<?xml version="1.0" encoding="utf-8"?>
<!-- Generator: Adobe Illustrator 23.0.0, SVG Export Plug-In . SVG Version: 6.00 Build 0)  -->
<svg version="1.0" xmlns="http://www.w3.org/2000/svg" xmlns:xlink="http://www.w3.org/1999/xlink" x="0px" y="0px"
	 viewBox="0 0 3000 3000" style="enable-background:new 0 0 3000 3000;" xml:space="preserve">
<style type="text/css">
	.st0{stroke:#000000;stroke-width:5;stroke-miterlimit:10;}
</style>
<g id="Layer_1">
</g>
<g id="Layer_2">
	<g>
		<path class="st0" d="M2195.3,1854.3c-14.9-9.3-29.2-19.6-44.7-27.8c-15.3-8-5.8-15.5-1.3-23.5c4.9-8.7,8.6-19,21.9-9.3
			c10.5,7.6,21.8,14.3,33.1,20.8c5.4,3.1,11.4,11.5,17.9,3.9c8.4-9.8,16.3-20.5,21.6-32.1c1.9-4.3-7.8-5.3-12.7-6.2
			c-23.5-4.2-45.8-12.2-68.4-19.6c-12.3-4-15.6-10-9.2-21.7c5.1-9.2,4.2-22.5,22.8-15.1c46.7,18.6,94.9,30,145.9,20.4
			c95.2-18,140.6-82.3,125.1-177.5c-7.7-47.5-7.7-46.8-56.3-42c-63.5,6.2-127.2,2.2-190.9,1.8c-19.5-0.1-13.2-14-14.2-24.5
			c-1.5-15,6.9-15,18.4-14.5c87.4,3.9,175.1,6.4,261.3-12c134.6-28.7,237.6-97.1,273.5-237.7c36.8-143.8,32.3-287.8-20-427.4
			c-41.7-111.5-118.4-190.8-235.3-224.8c-43-12.5-87.5-16.7-130.5,2.5c-9.7,4.3-18.8,10.5-27,17.3c-19.9,16.6-20.9,32-2.8,50.9
			c23.4,24.3,49,40.2,85.7,26.4c19-7.2,40.3-9.2,60.8-11.2c64.7-6.3,122.7,27.1,153.4,88.3c31.8,63.3,45,131.8,53.1,201.2
			c13.6,117.9,1.1,231.7-63.3,334.6c-67.4,107.8-163,168.5-293.2,166.1c-43.6-0.8-84.6-12.6-122.7-34.5c-8.3-4.8-15.1-10-5.8-18.5
			c6.9-6.2,5.5-26.2,23.6-15.6c114.2,66.6,273.3,24.1,358.4-106c61.9-94.6,75.8-199.1,66.3-308.5c-5.4-62-17.1-123.1-41-180.9
			c-31.4-75.9-81.5-101.7-161.6-82.7c-40.8,9.7-80.4,23.9-120.9,35c-36.4,10-73.1,17.1-111.2,8.5c-26.9-6-51.1-17.2-70.2-36.9
			c-41.6-42.8-68.6-94.3-81.9-151.9c-13.3-57.7,11-101.7,58.3-134.1c42.8-29.3,92.7-34.9,142.3-40c84.7-8.8,169.5-16.4,254.8-10.6
			c92.5,6.3,180,28.9,258.5,79.9c105.8,68.8,153.8,173.6,178.3,292c17.7,85.8,26.3,172.8,28.2,260.3c7.1,338.3-1.5,676.5-4,1014.8
			c-0.5,64.5-4.3,128.9-21,191.6c-39,146.1-139.2,237-275.7,286.3c-216.1,78.1-419.3,46.5-605.1-89.5c-6.9-5.1-26.8-6.6-12.9-26.1
			c12.9-18,21.7-14.7,37.5-3.3c175.6,127.4,367.1,156.8,570.3,81.6c141.1-52.2,235.2-150.2,258.6-304.7
			c11.6-76.8,10.8-154.4,11.3-231.9c2-304.5,9.5-609.1,3-913.6c-2.3-108.1-13-215.6-43.9-320.2c-47.3-160.2-160.5-242.5-318.9-270.8
			c-103.1-18.4-206.4-9.3-309.4,1.9c-30.4,3.3-61,6.1-90.4,15.5c-77.6,24.8-101.5,76.5-69.7,151.5c9.6,22.6,21.1,44.2,34.6,64.8
			c29.8,45.9,71.3,65.2,125.8,56.9c18.9-2.9,37.5-6.1,58.3-14.5c-8.2-7.7-14.8-14.2-21.8-20.4c-35.4-31.6-35.4-78.7,0.6-110.1
			c41-35.7,89.6-44.8,142-38.2c120,15.1,209.2,78.4,273.3,178.6c58,90.6,77.6,192.5,82.5,297.9c3.8,82.3-1.1,164.1-24.5,243.8
			c-2.3,7.7-2,12.5,4.8,17.6c61.9,46.4,86.6,112.4,91.8,185.7c8.4,118.5,1.7,236.1-37.1,349.8c-37.2,108.8-109.7,184.7-216.9,226.4
			c-128.2,49.8-260.1,70.9-396.7,44.2c-75-14.6-142.5-46.4-200.2-97.6c-8.1-7.2-17.8-13.4-3.5-24.5c9.6-7.4,13.8-19.9,29.9-4.6
			c45,42.8,45.5,41.3,82.3-6.8c10.6-13.9,12.7-22.7-4.8-31c-7.5-3.6-13.7-10.1-21.3-13.6c-16.5-7.7-17.2-16.5-7-31.1
			c7.7-11.1,13.7-12.4,23.4-4.3c1.2,1,2.6,1.7,3.8,2.5C2166.6,1900.4,2166.6,1900.4,2195.3,1854.3z M2716.8,1544.8
			c0.9-37.4-18.2-76.7-37.4-116.1c-4.7-9.7-8.8-7.5-15.3-2.2c-50.7,41.6-109.3,67.2-172.5,82.6c-11.5,2.8-15.8,6.4-12.5,20.2
			c7.2,30.5,12.2,61.8,8,93.3c-1.4,10.5,2.9,15.2,11.5,19.3c25.6,12.3,51.3,23.6,79.5,28.8C2660.1,1685.9,2719.2,1636,2716.8,1544.8
			z M2465,2027.7c1.4-3.4,2.1-6.6,3.7-9.1c14.4-23.4,28.9-46.8,43.5-70.1c4.9-7.9,0.4-12.7-5.1-17.5c-29.8-26.4-60.8-51.2-92.8-74.8
			c-8.8-6.5-13.7-6.4-19.4,3.7c-10.1,18-21,35.6-32.4,52.7c-6.3,9.4-5.5,15.2,3.2,23c29.5,26.6,58.1,54.3,87.1,81.5
			C2455.5,2019.5,2458.3,2021.9,2465,2027.7z M2715.6,1921.1c1.2-5.7-2-9.8-5.9-13.7c-26.4-26.7-55-51-84.4-74.4
			c-10.3-8.2-13.7-3.5-17.4,6.1c-5.9,14.9-12.7,29.5-19.3,44.2c-7.2,16-21.1,32.3-20.1,47.7c1.1,17,23.2,26.6,34.5,40.9
			c2.8,3.6,6.5,6.6,9.1,10.4c6.8,9.9,14,11.6,25.1,5.5c23.6-12.9,46-27.5,66.5-44.8C2710.4,1937.2,2715.3,1930.6,2715.6,1921.1z
			 M2534.8,1904c16.9-29.9,29.5-60.2,42.3-90.3c3.6-8.5,2-13.8-6-18.9c-30.3-19.5-61.6-37-93.8-53.1c-8.8-4.4-13.6-3.3-18.2,5.4
			c-10,18.9-20.2,37.8-31.2,56.2c-4.9,8.2-4.2,13.1,3.9,18.7C2467.7,1846.6,2501.1,1874.5,2534.8,1904z M2722.3,1863.2
			c7-38.1,7.3-74.5,7.7-110.8c0.1-6.2-4.3-9.4-8.7-12.5c-16.9-11.8-34.4-22.6-52.9-31.7c-9.8-4.9-14.6-4.2-17.7,7.6
			c-5.4,20.6-12.3,40.9-19.2,61.2c-2.2,6.5-2.7,10.8,3.5,15.7C2663.5,1815.2,2691.6,1838.4,2722.3,1863.2z M2322.1,1898.3
			c6.3-0.9,7.9-5.7,10.3-9.5c8.2-13,15-27,24.4-38.9c13.5-17.1,11.8-27.1-8.4-37.6c-66.1-34.5-41.9-39.5-88.2,19.7
			c-7.7,9.8-8.2,15.7,3.4,23.2c16.7,10.7,32.1,23.5,48.1,35.4C2315.3,1893.3,2319,1896,2322.1,1898.3z M2807.5,1763.4
			c10.6-27.7,13.8-56.6,18.1-85.2c5.6-37.3,4.2-38.9-30.4-55.4c-4.8-2.3-9.9-4.1-14.7-6.4c-11.8-5.6-14.6-0.7-13.8,10.7
			c1.6,22.1,5.4,44.6,3.1,66.4C2766.2,1726.4,2782,1746.3,2807.5,1763.4z M2130.4,2012.2c28,14.6,56.3,23.7,85.3,30.7
			c21.1,5.1,22.1-15,30.4-24.9c7.9-9.4-4.6-12.7-9.5-16.7c-17.2-14-35.5-26.7-52.9-40.5c-7.6-6-12.7-6.3-18.5,2.3
			C2154.2,1979.4,2142.4,1995.3,2130.4,2012.2z M2431.2,2048.9c-25-23.9-44.9-44.4-66.4-63.2c-37.6-32.8-23.6-36.3-55.6,9.4
			c-3.9,5.5-5.8,10.2,0.6,15.7c29,24.6,54.1,58.5,100.4,40.7C2414.2,2050,2419.1,2050.3,2431.2,2048.9z M2229.5,1878.4
			c-11.3,8-15.9,20.8-24.7,30c-8.8,9.4-8.2,15.6,3.1,23c16.5,10.9,32.6,22.7,47.2,36c14.3,13,22.8,10,30.3-5.9
			c1.9-4.1,4.5-8.1,7.5-11.4c10.6-11.5,9.6-20-4.1-28.9c-16.6-10.8-31.8-23.6-47.7-35.4C2237.6,1883.1,2233.6,1881,2229.5,1878.4z
			 M2831.2,1596.6c-14.3-42.4-32-78.5-52.1-113.4c-3.6-6.3-5.3-19.8-15.4-15.4c-10.4,4.6-20.3,13.5-15.9,29.1
			c3.3,11.7,6.7,24.1,5.9,35.9c-1.9,28.4,9.5,43,37.9,47.4C2804,1582.1,2815.4,1589.8,2831.2,1596.6z M2609.5,1721.2
			c0-8.6,0-9.7-9.7-9.9c-33.6-0.7-64.8-10.5-95-24c-7.3-3.3-12.1-4-16.5,4.6c-4.4,8.7-1.1,12.1,6.3,15.7
			c31.1,14.9,61.1,31.9,90.3,50.3c4.3,2.7,9.5,7.4,12.6-1.1C2601.9,1744.6,2605.8,1732.2,2609.5,1721.2z M2812.6,1382.1
			c-2.3-5.3-3.4-8.1-4.8-10.8c-10.1-19.8-22.6-37.6-38.6-53.3c-9.9-9.7-13.8-7.6-21.4,3.7c-13.5,19.9-14.5,36.1,4.4,52.7
			c6.2,5.4,9.9,13.4,15.4,19.7c3.5,4,5.4,12.7,13.6,8C2792,1395.7,2802.4,1388.6,2812.6,1382.1z M2505.6,2034.5
			c18.1-5,29.3-7.5,40-11.2c12.1-4.2,32.2-4.2,34-14.3c2.3-13.3-16.6-21.2-25.3-32.4c-0.5-0.6-1.1-1.1-1.6-1.7
			c-4.8-5.1-8.6-5-12.4,1.5C2529.9,1994.4,2519,2012.2,2505.6,2034.5z M2824,1418.6c-8.3,11.9-29.5,8.8-21.5,27.2
			c8,18.3,19.6,35,29.6,52.5C2833.5,1472.1,2831.5,1447.4,2824,1418.6z M2763,1866.1c37-55.6,34-60.7,4.5-80
			C2766.9,1813.6,2765.8,1839.9,2763,1866.1z M2710.6,1383.1c-1.8,1.2-3.6,2.3-5.3,3.5c1.3,16.9,11.8,30.5,18.5,45.4
			c2.1,4.7,3,13.7,12,7.3c5.8-4.2,10.9-9,4.7-17C2730.4,1409.4,2720.6,1396.2,2710.6,1383.1z M2363,1775.5
			c29.5,20.5,33,18.8,43.7-20.4C2392.1,1761.9,2378.7,1768.2,2363,1775.5z M2729.2,1652.5c-10.2,10.9-18.4,19.6-27,28.8
			c9.8,6.2,16.8,13.2,27.6,14.2C2732.4,1682.3,2730.5,1669.6,2729.2,1652.5z"/>
		<path class="st0" d="M1099.1,2172.8c-2.4-0.1-3.3-0.5-3.9-0.1c-15,8.2-37.3,6.8-46.2,17.3c-9.7,11.4,8.2,29.2,10.1,45.7
			c6.3,54.8-17,103.7-63.9,130.1c-46.1,26-102.5,20.7-144.2-13.5c-39.9-32.7-55.8-86-38.2-137.2c5.6-16.5,1.2-19.8-13.5-20.1
			c-17.9-0.4-33.8-8.4-53.7-16.5c7.3,120.1-30.9,220.1-122.4,296.6c-60.9,51-132,76.7-211.5,78c-158.3,2.6-298.2-102.1-336.9-251.4
			c-39.1-151,28.3-306.5,164.7-382.5c126.4-70.4,327.3-63.2,453,109.8c2.9-6.1,5.2-11.2,7.8-16.2c41.4-77.7,142.2-93.1,204.2-30.4
			c12.7,12.9,18.1,14.3,31.1-1.2c57.9-68.9,162.9-58.2,207.9,19.9c4.1,7.2,7.8,14.6,12.9,24.2c63.9-84.8,146.5-135.2,251.6-144.2
			c84-7.2,161.1,13.1,230.1,62.5c131.1,93.9,178.2,265.4,112,411.6c-65.6,144.7-221.7,228.5-389.9,191.7
			C1225.6,2517.4,1078.2,2385.1,1099.1,2172.8z M1184.5,2054.3c-44.2,69.5-57.3,141.4-43.4,218.5c20.9,116.1,112.5,213,229.6,236.6
			c128.2,25.8,235.2-13.2,314.3-118.5c71-94.6,75-225.3,13.5-327.1c-21.3-35.3-21.3-35.3-45.6-4c-4.7,6.1-9.3,12.2-14.2,18.1
			c-48.9,57.5-98.2,114.7-176.1,133.8c-10.4,2.6-7.8,9.9-7.8,16.1c0.2,35.3-0.1,70.6,1.7,105.8c0.8,17-7.3,18-20.5,18.7
			c-13.9,0.7-18.8-3.1-18.5-17.7c0.7-33.7-1-67.5-0.7-101.2c0.1-13.1-4-19-17.7-20.7c-42.8-5.4-80.1-24-114.3-49.8
			C1245.8,2133.3,1215.7,2095.5,1184.5,2054.3z M641,2028.6c-26.8,37.3-54.2,71.2-85.1,102.2c-35,35-73,65.8-122.8,77.1
			c-12.6,2.9-12.6,10.8-12.2,20.6c1.1,35.2,1.4,70.5,3,105.7c0.6,13.5-4.4,17.3-17.1,16.4c-11.4-0.8-22.5,2.5-22.2-16.4
			c0.6-35.2-1.5-70.5-2.3-105.7c-0.2-8.6,0.8-15.3-12-17.1c-80.3-11-137.8-58.6-187.4-118.6c-10.5-12.7-18.1-28.2-32.6-37.7
			c-83.5,119.1-56.2,293.2,60.6,390.3c120.4,100.2,299,91.7,409.9-19.7C728.3,2317.6,738,2142.5,641,2028.6z M1436.1,1917.4
			c-82.2,1.3-155.2,31.3-215.4,91.8c-6.3,6.3-14.5,11.7-5.7,22.8c31.8,40.3,63.4,80.8,106.6,110c73.6,49.8,146.4,45.9,214.7-12.2
			c38.7-32.9,70.5-72.2,101-112.6c9.5-12.6,9-19.3-3.4-29.3C1576.9,1942,1512.2,1918.5,1436.1,1917.4z M397.6,1915.4
			c-77.7,0.8-150.6,31.2-210.7,91.9c-6,6-14.9,11-5.6,22.4c30.2,36.6,58.7,74.6,97.4,103.4c76.8,57,151.2,55.9,224-5.4
			c40.1-33.8,72.7-74.4,103.8-116.4c8.3-11.2,4.3-17-4.6-24.3C544.7,1939.9,479.3,1915.8,397.6,1915.4z M813.5,2157
			c50.5,0.2,88.3-36.3,88.8-85.4c0.4-50.4-37.5-89.2-87.5-89.5c-49.8-0.3-89.9,39.3-89.6,88.3C725.5,2118.9,764.2,2156.8,813.5,2157
			z M933.8,2342.6c49.1-0.1,88-38.3,88.1-86.9c0.2-49-40.5-88.8-89.8-88.1c-48.8,0.7-88.2,39.7-88.5,87.5
			C843.4,2304,883.2,2342.6,933.8,2342.6z M1031.1,2149.3c50.8,0.3,90.5-37.9,90.7-87c0.2-48.6-40.6-88.6-90.1-88.2
			c-48.6,0.3-87.8,39.4-88,87.6C943.6,2110.7,981.9,2149.1,1031.1,2149.3z"/>
		<path class="st0" d="M2301.2,1035.4c-0.1-67.7,53-121.3,120.3-121.5c68.5-0.2,123.4,53.7,123.5,121.2
			c0.1,67.3-56.1,123-123.2,122.3C2354.8,1156.8,2301.2,1102.5,2301.2,1035.4z M2422,1118c48.1,0,84.7-36.4,84-83.7
			c-0.6-46.1-37.8-82.8-83.8-82.5c-45.5,0.3-83.2,38-83.3,83.4C2338.8,1081.2,2375.7,1117.9,2422,1118z"/>
		<path class="st0" d="M2333.5,1153.8c44.4,0.1,82,37.3,82.6,81.7c0.6,45.2-38,83.7-83.2,83.2c-44.6-0.6-81.6-38.1-81.4-82.6
			C2251.7,1191.6,2289.4,1153.8,2333.5,1153.8z M2334,1192.8c-24-0.1-44,19.9-43.8,43.8c0.2,24,20.3,43.6,44.4,43
			c23.4-0.5,42.1-19.2,42.5-42.5C2377.5,1212.9,2358.1,1192.9,2334,1192.8z"/>
		<path class="st0" d="M2484.8,748.7c44.7,0.3,81.6,37.5,81.8,82.3c0.2,45.4-38.8,84-83.6,82.9c-44.6-1.1-80.7-38.6-80.3-83.6
			C2403.1,785.4,2440.4,748.4,2484.8,748.7z M2527.1,832.1c0.3-25.2-17.8-44.2-42.4-44.4c-23.9-0.2-44.3,20-44.1,43.8
			c0.1,23.1,19.1,42.3,42.4,43.1C2507.9,875.4,2526.8,857.2,2527.1,832.1z"/>
		<path class="st0" d="M1321.1,2322.9c0,25.3-21.8,46.4-47.4,45.9c-24.9-0.5-44.7-20.8-44.7-45.8c0-25.7,21.5-46.9,46.9-46.3
			C1300,2277.4,1321,2298.9,1321.1,2322.9z"/>
		<path class="st0" d="M1568.8,2285.1c25.6,0,44.9,19,44.9,44.1c0,25.8-19.9,44.6-47.1,44.5c-26-0.1-44.5-18.7-44.5-44.5
			C1522.2,2302.4,1540.5,2285.1,1568.8,2285.1z"/>
		<path class="st0" d="M580.2,2326.8c0,25.6-21.7,47.1-46.9,46.5c-24.2-0.6-45.1-22-45.2-46.2c-0.1-25.4,21.6-46.4,47.2-45.9
			C560.3,2281.6,580.2,2301.9,580.2,2326.8z"/>
		<path class="st0" d="M240,2364.9c-25.3-0.1-44.9-19.5-44.8-44.4c0.1-25.6,20.2-44.4,47.4-44.3c26.1,0.1,44.4,18.6,44.2,44.6
			C286.7,2347.7,268.4,2365,240,2364.9z"/>
		<path class="st0" d="M1445.1,2018.5c27.5-0.4,46.9,18.1,47,44.9c0.1,25-19.4,45.6-44.1,46.5c-24.8,0.9-47.4-20.8-47.6-45.9
			C1400.1,2039.4,1420.2,2018.9,1445.1,2018.5z"/>
		<path class="st0" d="M414.7,2106.6c-27.2,0.5-46.9-18.3-47.1-44.9c-0.1-25,19.4-45.6,44.1-46.6c24.8-0.9,47.4,20.8,47.7,45.8
			C459.6,2085.7,439.5,2106.2,414.7,2106.6z"/>
	</g>
</g>
</svg>
