<?xml version="1.0" encoding="utf-8"?>
<!-- Generator: Adobe Illustrator 23.0.0, SVG Export Plug-In . SVG Version: 6.00 Build 0)  -->
<svg version="1.0" id="Layer_1" xmlns="http://www.w3.org/2000/svg" xmlns:xlink="http://www.w3.org/1999/xlink" x="0px" y="0px"
	 viewBox="0 0 3000 3000" style="enable-background:new 0 0 3000 3000;" xml:space="preserve">
<style type="text/css">
	.st0{stroke:#000000;stroke-width:3;stroke-miterlimit:10;}
	.st1{fill:#FFFFFF;stroke:#000000;stroke-width:3.5;stroke-miterlimit:10;}
	.st2{fill:#FFFFFF;stroke:#000000;stroke-width:3;stroke-miterlimit:10;}
	.st3{stroke:#000000;stroke-width:3.5;stroke-miterlimit:10;}
	.st4{stroke:#000000;stroke-width:2;stroke-miterlimit:10;}
	.st5{stroke:#FFFFFF;stroke-miterlimit:10;}
</style>
<g>
	<path class="st0" d="M277.5,1607.1c0-252.4,0.1-504.8-0.1-757.2c0-58.2,7.5-115.4,20.8-171.8c62.9-268.4,229.5-453.7,466.3-583.7
		c56.3-30.9,113.9-42.7,178.5-42.2c367.8,3,735.7,3.3,1103.6,2.5c59.5-0.1,115.5,9.7,170.4,30.9
		c270.7,104.7,431.6,302.9,494.8,583.2c7.9,34.9,10.3,71.6,10.4,107.5c0.7,453.1,4.4,906.3-1.3,1359.3
		c-2.6,204.8-58,398.7-183.6,566.1c-104.2,138.9-244.4,222.9-413.5,257.8c-42.9,8.8-87.6,12-131.5,12.2
		c-364.5,0.9-729,0.7-1093.5,0.4c-77.4-0.1-151.1-19.2-221.3-49.9c-180.3-78.5-293.6-219-364.1-398.4
		c-23.3-59.2-36.4-119-35.9-183.6c2-244.3,0.8-488.7,0.8-733C278,1607.1,277.8,1607.1,277.5,1607.1z"/>
	<path class="st1" d="M2625.3,1420.8c-105.4,0-207.3-0.2-309.3,0.1c-55.7,0.2-108.2-9.6-152.7-46c-71.3-58.3-103.9-137.5-121.2-225
		c-11.8-59.8-19.8-120.7-36.9-178.9c-45-152.7-132.7-273.3-279.7-343.1c-111.1-52.8-228.6-68.7-350.6-52.2
		c-126.9,17.1-241.4,61.6-335.1,151.6c-105,100.8-158.2,228.1-181.2,368.9c-9.1,56.1-8.9,113.7-17.1,170.1
		c-18.4,127.6-112.6,207.3-241.4,207.3c-67.8,0-135.6,0-203.4,0c-7,0-14.1,0-22.8,0c0,9.9,0,16.5,0,23.2c0,297.4,0,594.7,0.2,892.1
		c0,10.7,0.4,21.7,3.2,31.9c37.2,135.2,102.5,253.3,214.1,341.5c94.4,74.6,201.7,114.2,323.1,114.1c360.5-0.3,720.9,0,1081.4-0.3
		c28.7,0,57.7-1.9,86.2-5.6c147.8-19.2,269.2-88.3,363-202.7c125.5-153,175.1-335.4,180.2-528.2c6.2-232.1,1.4-464.5,1.3-696.7
		C2626.7,1434.8,2625.7,1427,2625.3,1420.8z"/>
	<path class="st2" d="M2625.2,1316c0.6-10.3,1.5-19.5,1.5-28.7c0.1-165.8-1.8-331.6,0.8-497.3c1.3-79-16.1-153-44.4-224.9
		C2510.3,379.7,2379.8,251,2194,179.4c-33.3-12.8-69.3-26.6-104.1-26.8c-399.3-1.9-798.7-1.2-1198-1c-10.4,0-21.7,1.5-31.2,5.7
		c-136.9,60.4-253.2,147.9-343.2,268c-88.7,118.4-139.4,252.1-142.5,400.1c-3.7,174.4-0.9,349-0.8,523.5c0,7.7,0.9,15.5,1.4,24
		c85.6,0,168.8,1.1,251.9-0.6c30.1-0.6,56.5-14.4,77.8-37.4c35.6-38.3,42.3-85.8,44.1-134.5c3.7-98.7,22.4-194.3,57.2-286.6
		c64.5-171.2,173.4-303.3,343-378.5c135-59.9,276.9-78.1,423-56.5c161.4,23.9,298.3,94.1,402.9,221.5
		c94.4,115.1,139.7,250.8,159.4,396c8.2,60,21.9,117.2,58,167c28.3,39.1,65.6,58.9,115.1,57.7c98-2.2,196-2.4,293.9-3.5
		C2609.1,1317.4,2616.3,1316.6,2625.2,1316z"/>
	<path class="st3" d="M1289.2,2316.7c0.4-129.8,107.2-235.7,236.6-234.5c128.7,1.2,234,107.4,233.8,235.8
		c-0.2,130.6-106.7,235.6-238.2,235C1392.9,2552.3,1288.9,2446.5,1289.2,2316.7z M1522.2,2453.2c75.8,0.6,136.9-58.5,137.8-133.3
		c1-75.4-58.9-136.9-133.7-137.5c-77-0.7-137.4,58.9-137.5,135.5C1388.7,2392.6,1447.9,2452.7,1522.2,2453.2z"/>
	<path class="st4" d="M1249.1,1555.5c0,59.1-44.9,104.7-103.4,105.1c-57.6,0.3-105.4-46.8-105.7-104.1c-0.3-57,47.4-105,104.8-105.3
		C1202.8,1450.9,1249,1497.1,1249.1,1555.5z"/>
	<path class="st4" d="M1871,1639c-59.1,0.1-104.9-45.4-104.6-103.7c0.3-55.4,47.2-104.6,99.3-104.1c64.1,0.6,110.2,44.4,110,104.6
		C1975.5,1594.7,1930.6,1638.9,1871,1639z"/>
	<path class="st5" d="M1522.2,2453.2c-74.3-0.5-133.5-60.6-133.4-135.4c0.1-76.6,60.5-136.1,137.5-135.5
		c74.9,0.6,134.7,62.2,133.7,137.5C1659,2394.7,1598,2453.8,1522.2,2453.2z"/>
</g>
</svg>
