<?xml version="1.0" encoding="utf-8"?>
<!-- Generator: Adobe Illustrator 23.0.0, SVG Export Plug-In . SVG Version: 6.00 Build 0)  -->
<svg version="1.0" xmlns="http://www.w3.org/2000/svg" xmlns:xlink="http://www.w3.org/1999/xlink" x="0px" y="0px"
	 viewBox="0 0 3000 3000" style="enable-background:new 0 0 3000 3000;" xml:space="preserve">
<style type="text/css">
	.st0{stroke:#000000;stroke-width:10;stroke-miterlimit:10;}
</style>
<g id="Layer_1">
</g>
<g id="Layer_2">
	<g>
		<path class="st0" d="M438.6,1247.8c-51.8-21.6-96-45.5-135.8-77c-226.5-180-265.9-498.4-87.5-736.4
			c134-178.9,319.2-251.1,538.6-239.9c111.5,5.7,214.4,38.9,301.7,112.1c4.6,3.9,10.3,7.4,13.3,12.3c24.9,41.1,55.3,39.3,98,24.1
			c140.6-50,288.2-70.9,435.5-90.4c234.1-30.9,469.2-45,705.4-37.8c86.4,2.6,171.4,14.5,252.4,46.3
			c111.1,43.6,192.6,120.4,249.2,224.8c63.2,116.7,88.9,244.4,108.2,373.8c14.9,100.1,25.4,200.7,28.1,301.9
			c2.9,108.4-9.7,214.2-61,312.1c-6.4,12.2-9.4,30.9-32.2,16.5c-17.8-11.3-25.7-19-12.7-41.3c34.2-58.8,49.9-124.5,52.2-191.4
			c7.6-213.7-17.6-423.8-77.2-629.4c-3.6-12.5-8.8-24.6-13.9-38.8c-14.2,7.7-19.5,21.4-28.3,31.5
			c-133.2,150.8-297,233.9-501.4,226.1c-19.8-0.8-23.6,5.8-23.9,23.5c-1.5,97.1-4.5,194.2-5.9,291.4c-0.3,21.4-5.3,30.3-29.2,29.5
			c-24.9-0.8-23.8-13.9-23.3-31.3c2.8-100.1,4.7-200.3,7.8-300.4c0.5-17-4.1-22.9-21.7-27.4c-193.6-49.7-326.8-209.6-331.8-396.2
			c-1.4-54.2,10.8-106.2,31.1-160.9c-65.4,6.5-127.5,11.8-189.5,19.1c-158.7,18.7-317,40.2-470.6,86.1
			c-116.2,34.7-225,84.4-318.2,164.6C753.3,667,689.5,869.3,743.5,1031.8c7,21.2,16.2,41.3,27.5,60.6c21.7,36.8,46.9,65.4,95.2,68.9
			c48.7,3.5,92.9,25.7,136.5,49.9c3.9-15.5,6.8-29.3,10.8-42.8c36.3-124.7,127.1-199.9,259.3-211.2c82.8-7.1,163.8,4.8,240.1,38.9
			c228.2,101.9,282.8,397.3,106.1,582.4c-122,127.8-272.3,157.7-440.2,115.4c-6.9-1.7-13.6-3.9-20.3-6.2c-9.8-3.4-17.9-7.8-22,8.5
			c-4.5,18,8.7,16.1,16.9,17.3c43,6.3,86,13.3,129.3,16.5c136.7,10.1,268.6-5.9,388.7-78.7c78.2-47.4,140.1-110,174.8-195.6
			c10.6-26.1,23.8-12.2,38-9.1c21.8,4.7,13.7,17.3,8.5,29.6c-44.1,104.3-120.2,179-218.7,231.1c-25.3,13.4-32.7,26.3-25.1,52.9
			c7.9,27.5,7.5,55.7-0.1,83.9c-22,81.2-98.3,113.9-170.9,71.1c-14.9-8.8-23.4-10.2-38.9,0.2c-43.9,29.5-109.8,7.8-140.3-44
			c-13.1-22.1-20.7-46.2-21.4-71.9c-0.4-14-6.2-19-19.8-20.6c-40.1-4.8-80.3-10.2-120.1-16.9c-13.6-2.3-17.8,1.9-20,14.2
			c-17,94.3-6.8,185.4,95.3,251.2c47,30.4,98.6,50.8,150.8,70.2c68.2,25.4,136.8,50.4,193.4,98.8c74.1,63.4,101.3,149.6,72.8,233.8
			c-13.5,39.9-37.2,71.7-77.4,88.4c-8.6,3.6-20.9,11.9-24.8-3.3c-3.3-12.9-17.1-27.8,0.3-41c74.6-56.1,82.8-147.2,19.6-216.6
			c-24.2-26.5-52.6-47.1-84.6-63.1c-41.6-20.9-85-37.6-128.4-54.2c-35.8-13.7-71.8-27.6-105.9-44.9c-138.7-70.6-190.8-178-160-330.7
			c12.8-63.2,32.1-125.2,44.1-188.5c34.3-179.8-69-330.4-250.5-365.3c-151.5-29.2-291.2,9.8-415.6,93.2
			c-241,161.3-361,389-351.6,681.2c1.3,39.5,8.8,78.4,23.5,115.4c15.3,38.5,38.3,70.9,75.4,91.9c49.9,28.3,100.4,21.5,140.9-19.8
			c30.7-31.3,51.7-69.8,78.1-104.3c44.2-57.6,97.6-97.6,173.8-76.4c81.4,22.7,124.6,83.2,138.8,164c10.4,59.2-2,116.7-22.2,172.6
			c-3.7,10.3-7.8,20.5-14.1,37.2c68.9,0,134.1-0.5,199.2,0.1c55.7,0.5,111.3,3.5,167,3c22.4-0.2,23.2,10.1,23.7,27.5
			c0.5,19.2-6.4,23.6-24.6,23.2c-123.4-2.7-246.9-4.1-370.3-6.7c-18.5-0.4-32.1,3.4-44.6,18.4c-27.3,32.8-65.4,50-104,66
			c-57.1,23.6-93.8,90.2-82.8,149.8c4.4,23.7,20.7,36.1,41.5,44.3c39.1,15.3,80.5,21.2,121.6,24.1c261.3,18.3,522.5,40.3,784.9,37.4
			c131.7-1.5,263.1,2.9,394.2,14.1c161.7,13.8,212.3-83.1,223.8-201.9c17.7-182-58-320.1-207.5-419.6c-22.3-14.8-13.8-24.2-5.7-40.5
			c11.3-22.5,22.5-8.8,33.2-2c197,124.3,279,346.6,208.7,566.7c-4.4,13.7-6.3,21.5,9.8,27.7c172.9,66.8,401.8,28.6,525.8-107
			c45.3-49.6,74.2-108.8,58.5-174.5c-18-75.5-50.4-145.9-117.9-195.2c-64.5-47-135-81.1-207.9-111.3c-17.5-7.3-26-12.4-16.7-34.1
			c8.8-20.6,17.7-21.7,36-13.7c103.2,45,206,90.6,281,179.6c7.6,8.9,11.9,8.2,17.7-1.5c15.4-25.7,37.7-44.5,63.9-61
			c-48.8-46.3-71.2-100.6-53.9-167.4c4.4-16.9-10-17.7-19.5-21.2c-70.1-25.9-142.6-37.9-217.2-33.1c-19.5,1.3-29.2-1.2-30.7-24.3
			c-1.5-23.4,9-26.7,27.7-27.4c79.8-3.1,157.8,7.2,232.2,36.1c26.7,10.3,46.8,13.2,66.1-10.3c6.3-7.6,18.5-8.5,23.7-18.8
			c-60.4-48.5-85-109-60.5-185c6.7-20.6-9.4-16.6-18.3-17.5c-71.9-7.4-143.6-7-214.1,10.6c-24,6-34,0.3-37.7-24.1
			c-2.4-16,2.1-21.2,17.1-24.5c88-18.8,176.4-23.9,265.2-8.4c19.3,3.4,33.9,0.4,50.7-10.4c106-67.6,231.1-13.6,246.5,106.8
			c7.3,57-14.1,105.1-56.6,143.7c-7.4,6.7-15.3,12.7-23,19.2c85.2,84.6,84.9,181.4-1.9,258.9c-16.1,14.4-4.5,19,2.3,27.6
			c75.3,93.6,30.1,234.8-83.9,261.8c-40.1,9.5-77.9-0.5-113.9-15.1c-29.8,175.1-151.8,256.3-304.9,302.5
			c-119.7,36.1-240,29.3-357.2-15.7c-14.2-5.5-24.4-8.6-36.5,6.1c-45.6,55.7-108.8,73.8-176.7,69.9
			c-361.6-21.1-724.5-9.9-1085.6-41.9c-77.5-6.9-155.7-8.5-231.5-28.7c-90.5-24.2-122.5-81-97.1-172
			c16.4-58.6,48.1-105.3,107.7-126.2c110.2-38.6,147.8-126.5,160.5-231.9c6.8-56.6-7.8-106.2-49.9-146.3
			c-49.6-47.3-104.5-46.4-152.2,2.6c-31.3,32.1-52.4,71.9-80,106.7c-89.9,113.4-227.6,104.5-302.7-20.2
			c-44.7-74.3-51.8-157.2-48-240.6c12.6-280.4,139.6-497.4,369.5-655.8C419.9,1259.7,426.7,1255.5,438.6,1247.8z M746.7,1150.5
			c-81.3-125.1-81.5-236.8-62.7-334.9c4.6-24.1-2.3-32.4-22-42.7c-156.6-81.9-245.2-259.3-218.6-434.3c1.6-10.2,4.8-20.7,0.5-33.5
			c-122.1,63.3-206,156.9-255.1,282.8c-94.1,241.2,18,510.1,251.9,605.9c39.8,16.3,76,21.3,115.1-0.5c17.3-9.6,38-13.4,57.2-19.4
			C655.4,1160.6,699.7,1156.7,746.7,1150.5z M1496.9,1610.2c35.1-17,61.9-40.9,86.5-67.5c160.1-172.9,96.7-439.1-122.3-513
			c-55.2-18.6-112.4-25.5-170.2-23.4c-126.3,4.7-212.9,80.6-235.3,203.6c-4.2,23.1-1.5,40.7,17.5,59.1
			c62.9,60.8,97.6,135.5,97.7,224.2c0.1,39.5-4.7,78.6-13.5,117.2c-2.5,10.9-6.4,21.6,11.9,27.6c84.1,27.4,168.1,30.5,253.2,6.4
			c13.7-3.9,20.4-9.9,19.9-24.9c-1.1-31.3,2.1-63-1.9-93.8c-7.7-58.2-29.4-110.7-86.3-137.4c-28.9-13.6-11.2-31.4-7.1-45
			c5.8-19.7,20.7-4.6,29.3-0.5c60.1,28.7,91.6,80,108,142.2C1495,1525.1,1492.8,1566.7,1496.9,1610.2z M2612.3,343.8
			c-7.5-0.6-9.1,4.4-11.5,8.8c-18.3,33.7-36.3,67.5-55.2,100.8c-5.8,10.2-1.6,16.9,3.6,24.7c35.5,54,71.3,107.8,105.9,162.4
			c8,12.6,13.2,14.6,24.6,4.2c33-30.2,61.2-64.3,86.9-100.7c6.7-9.5,6.9-17.6,1.7-27.9c-34.8-67.9-83-123.9-146.4-166.6
			C2618.5,347.2,2614.9,345.3,2612.3,343.8z M2825.8,1675.3c-65.3-0.3-119.3,46.2-120,103.5c-0.7,58.5,52.6,110.5,113.8,111.1
			c56.7,0.5,104.6-50,105.4-111.1C2925.7,1719.8,2883.4,1675.6,2825.8,1675.3z M2800,2158.7c51.1,13.4,103.8-45.3,106.6-99.2
			c3.2-60.5-37.3-108.8-94.5-111.3c-63.7-2.7-120.1,42.2-124.3,99.1C2683.3,2107.9,2730.5,2154.8,2800,2158.7z M2779.9,2212.4
			c-58.9-2.1-114.9,42.6-115.9,92.5c-1.2,62.8,48,116.4,109.8,119.3c56.4,2.7,106.4-46.9,108.6-107.8
			C2884.6,2253.7,2846.3,2214.8,2779.9,2212.4z M2399.9,617.1c26.1-48.5,50.1-93.9,74.9-138.7c5.5-9.9,3.1-16.3-2.6-24.3
			c-34.2-48.6-68.5-97.2-101.8-146.5c-10.3-15.1-15.3-10.6-22.2,1.9c-24.8,45-49.9,89.7-75,134.5c-4,7.2-7.7,13.2-0.6,21.6
			C2314.5,514.9,2355.7,564.5,2399.9,617.1z M2240,503.3c-12.4,22.5-22.5,41.1-32.8,59.5c-30.2,54.2-29.9,53.9,12.4,97.2
			c33.4,34.1,66.1,69,100.7,105.2c16.7-30.9,30.9-58.7,46.5-85.7c6.8-11.7,4.9-19.8-3.4-29.6C2322.9,602.4,2282.9,554.4,2240,503.3z
			 M2513.1,514.4c-25,46.5-47.2,89.4-71,131.3c-7.4,13-1.1,22.4,5,29.9c18.2,22.5,38.6,43.3,57.7,65c6.7,7.7,12.9,11.1,23.1,5.2
			c27.8-16.2,56.1-31.7,84.2-47.4c9.4-5.2,13.2-11.1,6.3-21.6C2583.9,623.9,2549.7,570.8,2513.1,514.4z M2101.4,337.5
			c-23.4,46.9-44.4,89.4-65.8,131.6c-4.6,9-7.1,16.1,2.1,23.9c33.4,28.4,66.4,57.1,101.1,87.1c20.6-36.9,39.5-71.4,59.1-105.5
			c5.4-9.3,4.9-16.2-2.1-24.4C2165,414.2,2134.9,377.7,2101.4,337.5z M1987.2,450.8c23-45.9,45.7-90.5,67.9-135.4
			c13.2-26.7,0.2-48-29.5-47.9c-25.2,0.1-50.3,1.7-75.5,2.7c-7.1,0.3-14.4,0.4-18.6,7.5c-18.2,30.8-27.7,64.5-33.3,99.5
			c-1.2,7.3,5.4,10.2,10.1,13.7C1933.8,410.4,1959.5,429.8,1987.2,450.8z M2010.3,536.2c-8.9-2.5-10,3.7-12,7.7
			c-12.4,24.3-23.9,49-36.8,73c-6,11.1,1,17.3,6.3,24.1c21.9,28.1,47.6,52.2,76,73.7c10.9,8.2,16.5,7.3,22.8-4.8
			c11.6-22.4,23.7-44.7,36.9-66.2c8-13,6-21.2-5.4-30.8c-26.3-22.1-51.6-45.5-77.4-68.3C2017,541.4,2013,538.4,2010.3,536.2z
			 M2230.9,415.4c25.2-45.1,49-88.4,73.5-131.2c8.4-14.6,4.6-19.8-11.3-19.9c-41.4-0.2-82.9-0.9-124.3-0.9c-14.3,0-31.7-5.4-37.9,15
			c-5.3,17.5,7.5,27,17.2,38.3C2175.2,348.5,2201.8,380.8,2230.9,415.4z M589.8,254.2c-19.4,5.2-39.1,9.9-58.3,15.8
			c-32.1,9.8-34.8,19.8-12.9,46.8c13.3,16.5,27.1,32.5,40.9,48.6c48.4,56.3,48.1,55.8,107.4,9.5c12.1-9.4,11.8-15.7,3.6-26.6
			c-20.7-27.3-40.8-55-60.7-82.9C604.6,258.3,599.7,252.7,589.8,254.2z M1485,1808.8c2,28-11.4,50.8,17.4,63
			c23.1,9.8,46,18.7,68.7,3.1c27.9-19.2,33.7-48.9,31.6-80.4c-3.3-49.4-3.7-49.3-50-36.9c-6.8,1.8-13.6,4.7-20.5,5.2
			C1497.5,1765,1476.4,1778.2,1485,1808.8z M585.5,644.4c2.2-1.5,4.9-3,7.1-4.9c24.4-20.8,60.9-37.8,69.4-63.8
			c6.9-21-31.9-43.9-48.8-67.2c-2.4-3.2-5.8-5.8-7.8-9.2c-6.8-11.8-13.3-9.9-23.9-3.2c-69.8,44.5-71.5,51.1-24.4,118.9
			c5.2,7.4,10.7,14.6,16.5,21.6C576.6,640.2,578.8,645.5,585.5,644.4z M2278,797.1c-39.9-47-79.2-86.6-119-125.8
			c-7.8-7.7-11.7-2.5-15.6,4.5c-11.1,20.2-21.9,40.7-33.9,60.4c-7.6,12.4-2.7,17.4,8.4,22.4C2166.8,780.6,2217.8,793.2,2278,797.1z
			 M770.6,490.8c-2.2-4.7-3-7.7-4.7-10.1c-15.9-22.1-31.9-44.1-47.9-66.2c-7.1-9.8-13.3-3.5-20.4,0.5c-64.9,37.4-65,37.3-17.8,93.8
			c3.2,3.9,7.2,7.3,9.8,11.6c12.9,21.5,26.3,22.3,43.3,3.5C744.1,511.5,758,501.6,770.6,490.8z M2507.7,416.2
			c16.4-30.2,30.2-57.1,45.5-83.1c7.8-13.4,4.3-19-9.2-24.2c-41.5-16-83.8-27.8-133.5-33C2443.7,323.9,2474.5,368.3,2507.7,416.2z
			 M1382.8,1782.5c0,0.2,0,0.4,0,0.7c-14.1,0-28.3,0.1-42.4,0c-7.8,0-12.9,1.1-13.5,11.3c-1.9,30.8,24,71.3,53.3,81.4
			c16,5.5,30.9,3.3,40.8-10.6c17.1-23.7,20.8-53.1,12.1-78.2c-5.3-15.2-30.9-2.3-47.2-4.6
			C1384.9,1782.3,1383.8,1782.5,1382.8,1782.5z M874.4,406.1c-1.9-5.1-2.5-8.2-4.1-10.6c-13.5-20.1-26.9-40.1-40.9-59.8
			c-2-2.8-8-6.4-9.3-5.5c-20.9,14-44.9,25.7-60.4,44.3c-9.7,11.6,11.6,24.2,19.2,36.2c7.5,11.9,15.9,23.3,24.4,34.5
			c2.8,3.8,9.6,9.7,10.4,9.1C834.3,438.6,854.4,422.2,874.4,406.1z M698.5,736.2c8.3-0.1,8.5-7.4,10.9-12.6
			c7.5-16.6,13.9-33.7,22.4-49.7c14.1-26.5-11.3-35.6-22.1-49.8c-13.1-17.2-20.2,3.5-28.2,8.9c-16.6,11.4-31.8,24.8-47.2,38
			c-4.6,4-13.5,6.8-8.4,16.4C628.9,693.2,692.8,736.5,698.5,736.2z M663.2,244.8c3.6,19.4,17.5,30.5,26.7,43.9
			c32.4,46.8,32.9,46.5,78.9,14c27.1-19.1,27.7-27.1,5.2-50.2c-5.5-5.6-11.4-7.7-18.6-7.7C725.4,244.8,695.4,244.8,663.2,244.8z
			 M982.4,315.4c-24.7-15.3-47.5-25.8-70.5-36.2c-18.8-8.5-28.9,4.1-39.6,13.3c-12.2,10.5,2.6,17.9,7.1,24.8
			c34.9,54.6,35.2,54.5,84.5,13.8C969.3,326.8,974.5,322.2,982.4,315.4z M492.6,365.5c-5.1,28.8-5,49.9-1.2,70.6
			c3.1,16.6-2.7,43.1,10.9,47.6c16.5,5.5,30.7-17.9,47.1-26.7c10.2-5.5,11.6-11.6,3.3-21C533.6,414.5,515.3,392.2,492.6,365.5z
			 M1899.1,447.8c-4,40.9,7.9,88.5,29.4,120.5c10.3-20.6,19.9-40.3,30.1-59.7c4-7.6,3.2-12.8-3.7-18
			C1936.8,476.9,1918.8,462.9,1899.1,447.8z M2464.2,770.9c-19.6-23.2-36.2-42.7-54.5-64.4c-15.6,29.5-29.6,56.2-45.3,85.9
			C2401.1,791,2430.5,781.1,2464.2,770.9z M1056.3,382.9c-26.2-39.6-26.2-39.7-61.3-11.2c-13.3,10.8-26.2,22-39.6,32.6
			c-7.3,5.8-10.3,11.6-4.1,20.3c5.8,8.1,11.1,8.8,20,3.8C999.3,412.7,1027.9,398,1056.3,382.9z M815.4,550.9
			c-2.8-4.4-5-8.9-8.2-12.4c-5.6-6.2-10.3-2.1-15.1,1.9c-13.8,11.6-27.4,23.2-41.7,34.2c-7.6,5.9-7.3,11.3-0.9,16.9
			c6.3,5.5,12.5,20.8,19,14.9C786,590.3,799.6,570.3,815.4,550.9z M912.1,457.9c-3-5.8-6.9-11.5-16.6-3.1
			c-14.4,12.5-29.5,24.3-44.3,36.3c-5.3,4.3-7.9,9.2-3.4,15.4c4.9,6.6,9.8,4.5,15.1,0.1c14.7-12.2,29.6-24.2,44.5-36.2
			C910.7,467.8,913.5,465.1,912.1,457.9z"/>
	</g>
</g>
</svg>
