<?xml version="1.0" encoding="utf-8"?>
<!-- Generator: Adobe Illustrator 23.0.0, SVG Export Plug-In . SVG Version: 6.00 Build 0)  -->
<svg version="1.0" xmlns="http://www.w3.org/2000/svg" xmlns:xlink="http://www.w3.org/1999/xlink" x="0px" y="0px"
	 viewBox="0 0 3000 3000" style="enable-background:new 0 0 3000 3000;" xml:space="preserve">
<style type="text/css">
	.st0{stroke:#000000;stroke-width:10;stroke-miterlimit:10;}
</style>
<g id="Layer_1">
</g>
<g id="Layer_2">
	<g>
		<path class="st0" d="M337.1,1270.7c-48.6-37.5-60-87.7-56.4-143.7c0.8-11.6,0.1-23.2,0.1-34.9c0-89.9,41.6-140,132.6-156.7
			c-10.3-7.3-19.1-13.1-27.6-19.4c-99.3-74-144.2-173.8-139.6-296.5c6.2-164.4,73.4-300.9,199.1-404.9
			C605.9,82,786.8,67.9,977.3,139.4c91.7,34.5,169.4,90.9,235.7,162.9c5.2,5.7,8.6,13.8,18.7,3.8c66.5-65.9,150.9-90.8,240.4-102.9
			c72-9.7,143.1-6,212.9,16.1c56,17.7,104.8,47.1,143.7,90.9c14.8,16.6,19.7,12.9,30.9-3.1C1952.2,175.1,2079,102,2240.5,94.5
			c120.2-5.5,228.6,33,328.1,98.5c151.8,100.1,213.6,265.2,167.4,441.1c-29.4,111.9-79.4,212-161.9,294.4c-1.4,1.4-2.2,3.2-5.5,8.2
			c19,0,35.6-0.3,52.2,0c77.9,1.6,137,60.6,138.5,138.4c0.4,21.9-0.8,43.8,0.3,65.6c3,62.2-20.8,110.1-76.8,143.4
			c49.3,37.6,59.6,88.9,56.3,145.5c-1.2,21.1,1.2,42.6-1.2,63.5c-5.6,49.7-31.2,87.1-75.9,109.6c-12.7,6.4-17.2,13.9-18.7,27.6
			c-5.3,47.8-7.1,95.4,1,143c11.4,67,44.6,99,112.1,107.9c13.5,1.8,27.2,2.7,40.7,4.8c86,13.6,129,70.1,147.6,149.9
			c14.2,60.9,7.2,119.5-22.7,174.8c-23.3,43.1-62.4,65.5-107.2,80.2c-19.4,6.4-39.2,12.1-58.2,19.5
			c-75.6,29.4-114.9,86.5-124.6,165.7c-6.9,56.4-2.3,113.4-10.7,169.7c-22.7,152.8-113.1,252.3-263.2,289.2
			c-62.2,15.3-125.5,19.7-189.1,19.9c-394.5,1.3-789,2.2-1183.5,3.6c-94,0.3-188.1,3.8-281.6-7.8c-108.2-13.4-200.2-55-254.1-156.8
			c-28.2-53.2-40.4-111.2-49.7-170.2c-11-69.3-19.8-139-43.5-205.9c-29.1-82.4-85.8-126.3-172.4-134.7
			c-87.3-8.4-137.7-61.1-145-148.7c-8.2-99.2,28.2-165,117.4-209.1c31.8-15.7,65.2-28.1,97.3-43.1
			c88.3-41.3,133.8-113.2,146.2-207.9c2.1-16.2,7.7-34.3,2.9-48.6c-6-17.7-28.2-7.8-42.8-13c-55.2-19.9-90.2-57.3-97.9-115.3
			c-5.3-39.8-4.6-80.8-0.1-120.8C267.3,1329.8,294.2,1295.3,337.1,1270.7z M1505.6,2908.5c0-0.9,0-1.9,0-2.8
			c207.8,0,415.7,0.2,623.5-0.1c61.5-0.1,123-1.4,183.9-11.9c162.7-28,250.5-126,262.2-290.6c3.2-45.7,0.9-91.6,7.3-137.1
			c13.3-95.1,62-163.2,151.4-200.3c22-9.1,44.8-16.5,67.7-23.1c55.4-16,85.1-54,95.6-108.9c4.7-24.3,5.4-49.1,0.9-73.5
			c-12.2-66.6-44.1-122.5-133.2-127c-99-5-153.2-56.5-170.8-153.7c-8.8-48.3-7.5-96.7-1.8-145c1.5-13-1-16.4-14.1-16.4
			c-120.3,0.4-240.7,0.5-361-0.1c-15.1-0.1-15.8,4.6-13.5,17.7c10.7,60,15.1,120.6,14.1,181.6c-1,62.4-10.3,123.7-20.6,185.1
			c-21.3,126.4-70.9,239.5-159.5,333.1c-144.2,152.4-327,218.7-531.9,229.5c-150.9,8-291.7-34.4-427-98.1
			c-131.1-61.7-221.7-161.1-267.7-297.8c-59.6-177-57.7-354.3,9.4-529.7c8.1-21.1,8.1-21.1-15-21.1c-106.7,0-213.3,0-320,0
			c-30.5,0-30.3,0-32.3,31.3c-0.7,11.6-2.3,23.1-3.9,34.6c-15.4,109.8-69,192.9-170.4,241.9c-33.2,16-67.8,29-100.9,45.1
			c-68.8,33.4-95.3,80.9-89.3,156.8c5.1,65.9,38.1,99.5,101.8,105.7c99.2,9.6,169.9,58.4,207.3,152.4c11.4,28.6,20.4,57.9,27.3,87.9
			c16.9,73.9,22,150,41.1,223.5c28.3,109.2,95.1,176.9,208,196.9c62.8,11.2,126,14.2,189.6,14.2
			C1077.7,2908.4,1291.6,2908.5,1505.6,2908.5z M1572.4,2508.7c39.5-4,74.8-11.5,109.4-21.6c247.9-71.9,413.5-222.6,464.2-484
			c23.4-120.5,29.8-241,8.1-362.5c-3.2-17.8-9.1-22.8-27.1-22.8c-407.4,0.5-814.8,0.5-1222.2,0c-16.1,0-23.7,4.5-30,19.7
			c-64.4,153.2-71.4,310.5-30.8,469.8c33.4,130.8,106.1,234.9,227.5,299.1c132.9,70.2,273.9,111.5,425.8,109.7
			c14.4-0.2,21.5-4.4,26.2-18.7c23.4-71.3,25.6-143.6,11.4-216.5c-10.2-52.4-42.7-83.8-95.2-94.5c-21.1-4.3-42.1-3.3-63.3-2.2
			c-30.9,1.6-30.7,1.6-36.6-29.3c-1.7-9-2.1-14.1,10.1-16.8c19.5-4.3,38.9-4.5,58.5-5.1c90.8-2.7,162.2,56.5,177.4,146
			C1599,2355.6,1597.2,2431.2,1572.4,2508.7z M1500.8,1306.4c-166.8,0-333.6,0-500.4,0c-197.6,0-395.1-0.1-592.7,0.1
			c-60,0-97.1,37.5-97.4,97.4c-0.1,18.5,0,36.9,0,55.4c0,75.6,33.3,109.1,108.4,109.1c721.2,0,1442.5,0,2163.7,0
			c5.5,0,10.9,0.1,16.4-0.1c51.2-1.7,88.6-38.8,90.2-90.2c0.7-21.9,0.2-43.7,0.2-65.6c0-71.3-34.5-106-105.4-106
			C2222.7,1306.4,1861.7,1306.4,1500.8,1306.4z M1520.5,1248.4c72.5,0,144.9,0,217.4,0c291.2,0,582.5,0,873.7-0.1
			c60.1,0,97.5-37.3,97.9-97c0.1-19.1,0-38.3,0-57.4c0-73.8-33.8-107.4-108.1-107.4c-720.5,0-1441.1-0.1-2161.6-0.1
			c-4.8,0-9.6,0-14.4,0c-56.1,0.8-94,38.3-94.8,94c-0.3,20.5-0.1,41-0.1,61.5c0,72.4,34.2,106.5,106.9,106.5
			C798.6,1248.4,1159.5,1248.4,1520.5,1248.4z M391.8,851c-0.7,1.4-1.3,2.9-2,4.3c9.6,7.4,18.9,15.2,28.7,22.1
			c41.7,29.5,87.6,56.8,138,57.7c188.6,3.4,377.4,1.2,566.1,1.7c14.1,0,17.6-4.1,15.4-17.6c-7-42.5-11.9-85.3-12.6-128.4
			c-0.3-19-5.3-26.4-25.9-23.9c-34.1,4.1-68.3,2.3-101.1-9.6c-53.9-19.5-81.5-62.6-72.7-113.3c8.5-49.3,49.1-80.6,105.8-80.3
			c28,0.2,56,1.7,83.9,4.4c13.6,1.3,18.7-0.7,19.9-16c5.3-63.6,15.6-126.4,48.2-182.7c7.5-13,4.9-19.8-4-29.6
			c-57.4-63.1-124.7-112.4-202.8-146.6C746.6,92.5,506.4,162.6,375.1,369.2c-4.1,6.5-10.8,12.3-9.7,22c5.1,0,9.9,0,14.7,0
			c108.7,1.2,217.4,2.5,326.1,3.9c5.8,0.1,15.7-2.8,16.7,3.3c2,13.3,2.5,27.7-0.6,40.6c-2.7,11.2-15.3,5.5-23.2,5.4
			c-114.5-0.7-229-1.6-343.4-3.4c-15-0.2-21.8,4.7-26.7,18.3c-12.4,34.1-21.8,68.8-28.1,104.6c-3.2,18.1,3.3,19.9,18.5,20.2
			c118.9,2.2,237.8,5.2,356.7,8.1c5.3,0.1,14.4-2,14.9,2.9c1.7,14.1,2.7,29.1-0.6,42.7c-2.1,8.8-14.5,4-22.1,3.9
			c-116.2-2.5-232.4-4.7-348.5-8.5c-21.1-0.7-24.8,5.7-23.2,25c3.7,43.5,14.1,84.6,34.7,123.3c7.5,14.1,16.1,20.3,33.2,20.1
			c97.8-1,195.5-0.5,293.3-0.4c6.5,0,17.2-3.3,18.6,3.5c2.8,13,3.6,27.5,0.8,40.4c-2.5,11.1-15.2,5.5-23.2,5.5
			C566.6,851.1,479.2,851,391.8,851z M1959.2,936.6c10.1,0,18.3,0,26.4,0c147.7,0,295.4-2.3,442.9,1.3
			c48.5,1.2,84.3-11.6,113.3-48.7c9.7-12.4,23.9-21.2,30.5-38.2c-83.9,0-165.9,0.3-248-0.1c-33.8-0.2-28.3,6.4-30-30.7
			c-0.7-15.4,4-19.4,19.3-19.3c93.6,0.7,187.3,0.1,280.9,0.7c13.6,0.1,21-4.4,27.4-15.9c16-28.7,29.8-58.4,41.4-89
			c9.1-23.7,8.9-24.1-16.9-24.3c-105.9-1.1-211.9-2-317.8-3.1c-6.6-0.1-16.6,3-19.3-3c-5.9-13.3-4-28.5-1.1-42.2
			c2.2-10.6,14-5.3,21.4-5.2c112.1,0.8,224.2,1.6,336.3,3.7c17.8,0.3,24.1-5.6,26.4-21.8c5.6-38.6,10.4-76.9,6.4-116.3
			c-1.9-18.4-7.5-23.6-26-23c-115.4,3.3-230.9,5.5-346.4,7.9c-22.7,0.5-21.4,0-23.3-32.5c-1.2-21,11.7-17,23.3-17.2
			c113.4-2.6,226.8-5.4,340.3-7.3c15.8-0.3,14.6-5.5,10.1-16.5c-11.9-29.3-26.9-56.8-47.3-81.1c-67.9-81-156.7-128.4-257-155.3
			c-190.3-50.9-387.8,30.4-487.4,199c-4.3,7.2-7.9,13.2-2.3,22.2c32.5,52.8,53.8,110.3,69.3,169.9c4.1,15.7,11.2,18.3,26.1,15.8
			c35.1-5.9,70.6-7.9,106.2-6.7c33.8,1.1,61.6,14.5,77.9,44.8c32.1,59.3,23.6,146.2-73,168.9c-29.8,7-59.9,4.1-89.8,3.5
			c-11.3-0.2-17.1,1.2-17.6,14.8C1979.9,839.4,1972.2,886.6,1959.2,936.6z M1325.9,936.6c39.7,0,79.3-0.9,119,0.4
			c16.6,0.5,19.2-5.1,17.5-20c-8.1-69-6.2-137.8,4.8-206.4c6.9-43.3,14.8-86.5,42.9-122.3c26.9-34.4,62.4-52.6,105.9-43.8
			c41.9,8.5,63.4,39.2,73.2,79.6c8,32.8,8.8,66.3,11.5,99.6c5.4,65.4,10.1,130.8,14.9,196.2c0.8,10.4,2.3,17.3,16.3,17
			c54-0.9,108-0.6,162-0.2c9.8,0.1,14.4-2.9,16.8-13c9-37.2,16.3-74.6,19.9-112.8c11.5-120-13.7-234-59.6-343.7
			c-45.4-108.7-119.4-187.7-240.4-210.5c-97.2-18.3-192-7.2-283,31.2c-73.7,31.1-121.5,85.8-144.1,163
			c-13.9,47.7-16.2,96.8-21.6,145.6c-12,108.7-9.8,216.9,6.3,325c1.8,12.2,6.9,15.4,18.7,15.2
			C1246.5,936.2,1286.2,936.6,1325.9,936.6z M1588,936.6c19.8,0,39.6-0.8,59.4,0.3c14.3,0.7,18.6-3.3,17.4-18.3
			c-5.5-64.6-8.9-129.3-14.6-193.8c-2.9-33.1-1.5-67-13-99.1c-11.7-32.4-33.7-41.3-64.3-25.7c-29.8,15.2-39.9,43.9-47,73.3
			c-19.6,81.8-22.5,164.6-13.5,248.1c1.3,12.1,6.2,16.1,18.3,15.5C1549.7,935.9,1568.9,936.6,1588,936.6z M2027.4,727.6
			c35.8,0.3,54.3-2.3,70.2-9.9c25.8-12.3,35.5-34.7,29.2-67c-5.6-28.5-19.3-40.6-49.7-41.2c-31.4-0.6-62.6,2.8-93.8,6.4
			c-11.2,1.3-13.4,5.8-11.5,15.9c3.1,16.8,6,33.6,7.6,50.5C1983.6,727.3,1983.3,727.3,2027.4,727.6z M1082.4,717.3
			c6.1-0.3,12.3-1.3,18.4-0.7c17.9,1.9,25.7-4.5,24.9-23.6c-0.8-20.3,1.1-40.8,2.5-61.2c0.5-7.3-0.2-12.1-8.6-12.6
			c-33.3-1.9-66.5-7.3-99.8-4.6c-26,2.1-41.3,17.4-44.9,40c-3.4,21.2,7,39.1,29.7,50.8C1029.1,718.1,1055.8,717.6,1082.4,717.3z"/>
	</g>
</g>
</svg>
