<?xml version="1.0" encoding="utf-8"?>
<!-- Generator: Adobe Illustrator 23.0.0, SVG Export Plug-In . SVG Version: 6.00 Build 0)  -->
<svg version="1.0" id="Layer_2" xmlns="http://www.w3.org/2000/svg" xmlns:xlink="http://www.w3.org/1999/xlink" x="0px" y="0px"
	 viewBox="0 0 3000 3000" style="enable-background:new 0 0 3000 3000;" xml:space="preserve">
<style type="text/css">
	.st0{stroke:#000000;stroke-width:10;stroke-miterlimit:10;}
</style>
<g>
	<path class="st0" d="M1013.8,715.5c80.5,89.3,112.3,191.3,82.6,307.2c-29.2,114.1-100.8,193.8-212.3,239.1
		c26.9,24.8,49.1,51.1,66.8,80.8c33.5,55.9,46.3,117.9,52.8,181.7c3.9,38.2,2.9,76.2-5.2,114c-11.2,52.4-39.2,91.9-87.6,116.1
		c-2.1,1-4,2.5-7.7,4.8c86.9,59.7,141,137.7,144.7,245.1c3.6,104.5-32.1,192.2-112.5,262.1c4.9,2.1,8.6,3.9,12.3,5.2
		c99.9,34.9,142.5,110.6,120.2,213.8c-29.9,138.4-134.9,229.7-275.9,241.4c-99.5,8.3-198.8,10.1-297.3-7.9
		c-79.5-14.5-153.2-43.5-219.9-90.8c-83.1-59-128.4-141.4-155.2-236.7c-31.8-113-48.7-228.6-62.1-344.8
		c-24.1-210-15.8-420.4-6.9-630.6c6.6-157.4,12.5-315,32.6-471.5c14.6-114,48.9-221.7,97.1-325.8C216.7,540.2,256,464,313.2,398.5
		C432.7,262,585.8,211.3,763,224.8c82.9,6.3,161.2,29.3,228.9,79.3c74.5,55.1,119.8,128.6,125.1,222.2
		C1121.7,608.6,1095.6,676.9,1013.8,715.5z M468.3,1654.1c1.9-207.4,28.8-421.7,70.1-634.6c20.1-103.4,63.5-191.2,155.3-250.3
		c55-35.4,112.1-63.9,176.5-78c29.9-6.6,59.8-5.9,89.6-9.6c58.4-7.2,89.2-32.9,105.9-89.3c10.3-34.6,10.4-69.5,1-104
		C1040.3,390.7,974.7,329.7,882,296c-94.8-34.5-191.9-38.1-289.9-15.8c-92.4,21-171.3,65.5-235,136.4
		c-41.2,45.9-75.4,96.3-103.1,151.3c-56.7,112.4-104.5,227.8-122.2,353.8c-12.4,88.3-19.1,177.1-24.6,266.1
		c-11.9,195.6-21,391.2-20.1,587.2c0.8,190.8,20.5,379.9,65.5,565.7c15.8,65.5,34.7,130.6,78.1,184.2
		c75.6,93.3,178.9,136.2,294.1,153.9c87.3,13.5,175.3,11.2,263.1,3.8c122.5-10.4,209-85.4,236.1-204.6
		c18.7-82.2-11.6-136.6-91.6-164.1c-6.9-2.4-13.9-4.4-20.8-6.3c-58.8-16.3-119.8-17.4-179.8-24.6
		c-102.3-12.2-174.2-61.6-205.9-162.6c-4.5-14.4-9.7-28.8-13.1-43.5C480.5,1941.1,468.3,1803.2,468.3,1654.1z M629.4,1547.4
		c0,0.1,0,0.2,0,0.3c-33.4,0-66.7,0.2-100.1-0.1c-8.4-0.1-13.1,1.1-13.6,11.5c-3.3,67.9-4.3,135.8-0.6,203.7
		c0.5,10.2,2.9,12.9,13.9,11.5c55.9-7.2,112-12.3,167.8-20.1c59.3-8.2,119.2-14.5,176.7-32.6c41.9-13.2,68.4-41.6,79.7-84.5
		c11.6-44.4,8.9-89,3.4-133.6c-10.3-84.7-42.1-158.6-109.4-214.4c-7.4-6.2-13.8-10.2-24.3-7.1c-89.1,26.4-179.8,39.4-272.9,29.1
		c-10.3-1.1-14.1,2.5-15,12.4c-4.8,53.7-9.7,107.5-15.2,161.1c-1.5,14.7,2,19.7,17.9,19.4c57.6-1.2,115.2-0.9,172.9-1
		c38.4-0.1,28.1-3.3,31.4,30.8c1.2,11.8-3.5,14.2-14.3,14C694.9,1546.9,662.1,1547.4,629.4,1547.4z M598.1,1269.9
		c84.8,2.5,206.9-21.6,281.3-54.4c61.8-27.3,109.8-69.4,143.9-128.2c66.9-115.5,45.3-262.9-52.8-350.6c-4.3-3.9-7.8-9.5-15.1-8.7
		c-19.9,2.1-39.9-1.3-59.8,2.6C821,745.1,755.1,777.9,695,824c-45.9,35.2-77.6,79.7-94.1,134.8c-29,96.6-41.5,196.4-56.5,295.7
		c-1.6,10.4,2.6,12.5,11.6,12.8C571.1,1267.7,586.2,1269.1,598.1,1269.9z M1004,2018.6c0.5-20.8-1.9-41.2-6.8-61.3
		c-20.6-84.6-75.8-139.8-151.2-178c-6.3-3.2-11.5-1.4-17.4-0.5c-33.5,5.5-66.9,11.5-100.5,15.9c-62.5,8.1-125,15.9-187.6,22.4
		c-18.1,1.9-23.3,8.3-20.6,25.7c4.5,28.7,7.3,57.7,11,86.6c8.7,68.6,19.9,136.6,46.6,201.1c23.2,56.2,65.4,89,123.8,101.5
		c55.2,11.7,111.8,13.1,167.6,21.2c8.2,1.2,13.8-3.4,19.7-7.6C966.5,2189.9,1002.8,2113.2,1004,2018.6z"/>
	<path class="st0" d="M2267.7,2538.3c-21.9,37.2-49.1,67.2-81.5,92.1c-64.1,49.4-138.4,74.1-217.1,86.7
		c-112.1,18.1-224.6,20.6-336.7,0.9c-144.3-25.3-246.6-105.6-302.4-241.5c-44.9-109.3-65.1-222.5-34.1-339.3
		c23.4-88.1,75.3-152.9,165.6-179.8c66.8-19.9,145.8,6,185.3,57.7c17.1,22.4,22.5,49.3,30.4,75.2c6.2,20.3,10.6,41.2,18.2,60.8
		c25.1,64.3,73.4,101.8,140.7,112c88,13.3,151.5-57.8,134.4-148.1c-6-31.5-15.7-62.2-17.4-94.6c-4.2-79.9,46.9-142.2,126.8-152.9
		c77.5-10.3,134.4,25,180.6,83c8.3,10.4,15.2,21.8,23.6,34c11.6-12.5,22.6-25.2,34.5-37c194-193.3,506.1-124.8,599.4,132.7
		c41.3,114,50.2,232.5,26.8,351.3c-25.1,127.2-110.9,202.4-228.7,243.5c-160,55.8-330.2,6.5-438.2-124.3
		C2275.3,2547.5,2272.6,2544.3,2267.7,2538.3z M2842.5,2541.9c31.1-34.3,48.8-70.4,57.1-110.5c20.8-101,14.5-201.3-12-300.5
		c-18.1-67.5-49.2-127.6-104.3-172.9c-147.5-121.4-348.7-99.8-470.4,64.4c-4.5,6.1-8.6,11.4-6,19.6c21.2,66.8,22.9,136,23.3,205.1
		c0.4,71.7-3.2,143.8-27.6,211.6c-10.8,30.2-5.8,49.4,15,70.2c19,19,37,38.9,62.1,55.8c0-18.1-0.7-32.6,0.1-47
		c4.6-76.7,15.4-152.1,51.8-221.2c26.3-50,65.1-85.8,121.2-99.4c86.3-21,181.7,22.1,229.3,103.3
		C2821.1,2387.1,2842.5,2458.9,2842.5,2541.9z M1539.6,2110.1c2.9-32,2.7-64.1,3.2-96.2c0.2-11.6-4-15.9-14.9-17.4
		c-38.8-5.5-73.4,5.2-104.6,27.2c-43.3,30.5-70.8,72.4-84.3,123.3c-23.4,87.9-12.5,174.5,12.9,259.7
		c43.2,145.1,134.2,239.7,287.1,267.7c15.1,2.8,20.8,1.3,20.5-16.6c-1.3-73.3-1-146.7-0.7-220c0-11.1-3.5-17.2-13.3-22.7
		c-50.9-28.5-81.8-72.1-96.9-128.1C1532.9,2228.6,1535.2,2169.5,1539.6,2110.1z M2004.7,2530.7c0.9,0,1.7,0,2.6,0
		c0,31.5-0.2,63,0.1,94.6c0.4,40.5,0.5,40.2,38.5,28c124.6-40.1,201.9-122.7,226.3-252.3c18.9-100.4,18.1-201.3,2.6-302
		c-7-45.5-22.5-88.1-51.9-124.3c-31.4-38.7-69.6-65.7-122.3-64.1c-21.6,0.6-21.7,1-16.5,21.6c17.9,69.9,34.8,140,33.4,212.8
		c-1.9,98.5-30.9,185.9-106.1,253.7c-6.5,5.9-6.7,12.1-6.6,19.4C2004.7,2455.5,2004.7,2493.1,2004.7,2530.7z M1588.5,2022
		c-2.1,43.6-3.8,85.1-6.2,126.6c-1.9,34-2.1,67.8,3.6,101.5c11.4,67.3,44.3,117.3,111.5,139.6c58.3,19.4,118.5,24.9,179.4,19.3
		c43.4-4,82.4-20.3,113.7-51.5c47.3-47.3,71.8-105.5,79.6-171.3c9.9-83.7-8.9-163.9-29.5-243.9c-2.4-9.5-5.7-10.6-13-4
		c-18.5,16.6-29,36.7-30.4,61.8c-2,35.8,8.9,69.6,16.7,103.7c33.9,149-105,237.4-224.6,193.9c-75.5-27.4-123.7-80.6-145.1-158
		c-6.9-25.1-13.6-50.2-21.2-75.1C1617.7,2047,1606.7,2033.1,1588.5,2022z M2499.7,2545.5c-1.7-22.1,1.5-49.2,3.6-76.4
		c1.9-25.2,10.4-48.6,25.5-69c44.9-60.5,121.8-54.8,157.1,11.5c8.3,15.6,13.9,32.1,17.8,49.4c11.2,49.9,16.6,100.4,14,151.6
		c-0.7,13.6,3.5,14.5,13.7,9c14.4-7.7,28.6-15.8,43.5-22.6c16.4-7.5,21.9-19.9,22.8-37.3c3.7-74.6-13.1-144-48.8-209.4
		c-16.4-30.1-39-53.8-68-71.6c-69.4-42.5-164.9-33.2-210,57.1c-41.8,83.8-49.5,173.7-46.4,265.5c0.3,7.5,3.1,12,10.2,15.3
		c17.6,8.3,35.6,15.1,54.1,20.9c9.1,2.9,11.2,0.6,11-8.7C2499.2,2604.2,2499.7,2577.5,2499.7,2545.5z M2674.1,2591.6
		c-0.4-38.2-4.6-77.8-13.3-117c-3.4-15.5-7.7-30.5-15.5-44.3c-19.1-33.8-51.4-37.2-77.1-8c-13.7,15.6-19.5,34.7-21.1,55
		c-4.3,53.2-1.6,106.6-2.2,159.9c-0.1,11.3,4.4,14.8,14.6,15.3c20.6,1.1,41.2,1.7,61.7-1.5C2684,2641.1,2668.2,2653.5,2674.1,2591.6
		z M1786.5,2570.7c-0.7,0-1.5,0-2.2,0c0,33.9,0.4,67.7-0.2,101.6c-0.2,11,2.7,15.1,14.1,14.4c19.3-1.2,38.7-1.3,58-1.4
		c10-0.1,15.8-2.8,14.8-14.6c-1.1-12.9-0.9-26-0.9-39c-0.1-53.8-0.2-107.7-0.1-161.5c0-9.1,0.7-16.7-13-14.8
		c-18.6,2.6-37.5,0.6-56.1-1.5c-11-1.2-14.9,1.8-14.6,13.4C1787,2501.7,1786.5,2536.2,1786.5,2570.7z M1962.7,2553.9
		c-0.7,0-1.3,0-2,0c0-29.1,0.1-58.2,0-87.3c-0.1-32.3,0-31.6-30.4-23.8c-12.9,3.3-16.8,8.9-16.6,22.2c1.2,61.2,1.1,122.4,1.6,183.7
		c0.2,31.5,0.3,30.8,32.1,27.3c12.8-1.4,15.8-6.4,15.5-18.5C1962.2,2623,1962.7,2588.4,1962.7,2553.9z M1739,2567c1.1,0,2.2,0,3.3,0
		c0-30.3-0.1-60.6,0-90.9c0.1-31,0.2-30.6-30.3-35.7c-7.8-1.3-9.4,0.8-9.4,7.8c0.5,74.5,0.7,149.1,1.2,223.6c0.1,20,16.9,10.2,26,13
		c10.9,3.4,9-6.3,9.1-12.5C1739.1,2637.3,1739,2602.1,1739,2567z"/>
	<path class="st0" d="M353.4,1649c-0.2,98.3,5.9,196.3,15.3,294.1c6.2,64.5,10.8,129.1,21.1,193.3
		c26.6,165.6,131.2,260.1,282.2,312.8c54.6,19.1,111.1,30.7,168.8,33.4c25.8,1.2,16.1,17.7,17,30.3c1.3,16.6-8.5,15.9-21,14.8
		c-90.1-8.1-176.8-28.1-257.9-69.4c-131.8-67.1-210.9-172.2-234-319.4c-12.7-81-17-162.7-25.2-244c-5.8-57.3-9-114.9-10-172.4
		c-2.1-118.9,3.7-237.5,12.2-356.1c7.1-99.1,16.1-198,26.9-296.8c16.3-150.1,57.3-290.9,155-410.5
		c103.4-126.5,237.9-168.2,395.9-148.3c8.8,1.1,13.5,3,11.2,14.7c-6.1,31-5.2,30.5-40.1,27.3c-126-11.5-235.3,22.8-320,120.6
		C489,744.3,446.1,825.7,421.9,916.9c-22.8,85.9-31.2,174-39.7,262C367,1335.2,356,1491.8,353.4,1649z"/>
	<path class="st0" d="M910.5,1017.6c-1.4,49.7-52.2,97.6-102.4,96.5c-51.1-1.1-92.5-43.5-91.5-93.7c1.1-52.9,45.9-92.4,102.3-90.2
		C873.6,932.2,911.8,968.7,910.5,1017.6z M815.6,975.1c-27.4,0.2-46.2,12.5-51.8,33.9c-5.4,20.5,1.3,40,17.8,51.2
		c18.5,12.6,42,11.2,60.7-3.6c19.5-15.5,27.9-35.9,22-53.5C858.3,985.9,839.3,974.9,815.6,975.1z"/>
	<path class="st0" d="M821.9,2015.8c0,44.8-26.7,75.8-65.6,76.5c-54.8,0.9-98.2-39.8-98.2-92.1c0-43,31.9-74.4,75-74.1
		C780.5,1926.3,822,1968.2,821.9,2015.8z M733.2,1971.8c-19.3-0.2-30.2,9.7-30.7,27.7c-0.6,24.6,21.8,47.2,47.6,47.8
		c18.4,0.4,27.1-9.2,27.3-30.2C777.6,1991.9,758.2,1972.1,733.2,1971.8z"/>
</g>
</svg>
