<?xml version="1.0" encoding="utf-8"?>
<!-- Generator: Adobe Illustrator 23.0.0, SVG Export Plug-In . SVG Version: 6.00 Build 0)  -->
<svg version="1.0" xmlns="http://www.w3.org/2000/svg" xmlns:xlink="http://www.w3.org/1999/xlink" x="0px" y="0px"
	 viewBox="0 0 3000 3000" style="enable-background:new 0 0 3000 3000;" xml:space="preserve">
<style type="text/css">
	.st0{stroke:#000000;stroke-width:10;stroke-miterlimit:10;}
</style>
<g id="Layer_1">
</g>
<g id="Layer_2">
	<g>
		<path class="st0" d="M1949.8,2016.4c64,9.7,119,35,167.8,73.3c90.2,70.7,136,165.2,147.4,277.9c13.2,130-35.1,238.2-119.7,332.5
			c-87.1,97.2-198.9,154.3-321.8,191.8c-67.3,20.5-136.1,34.7-205.6,45.6c-185.5,29-371.8,36.2-558.9,20.9
			c-98.8-8.1-196.2-24-286.7-67.2c-102.7-49-183.2-120.4-222.9-230.5c-29.2-81.1-21.9-161.5,14.3-237.6
			c82.9-174.3,214.8-294,401.9-349.5c8.1-2.4,17.1-2.6,25-8.8c-20-7.6-39.6-14.2-58.5-22.2C779,1977.9,678.5,1863,616.1,1711.7
			c-52.3-126.9-70.4-259.7-60.9-395.4c22-315.6,133.2-598.9,321-852c104.5-140.9,234.3-253.4,393.7-329.5
			C1392.7,76.2,1522.4,51,1657.8,56c135.5,5.1,263,39.5,378.7,112.2c146.3,91.8,231.9,226.5,276.3,390.5
			c29,107.3,39.6,217.2,44,327.7c5.4,136.3,11.8,272.6,4.5,409.1c-8.4,157.6-38.3,309.6-116.4,449.1
			c-66,117.8-158.9,206.6-282.6,262.4c-2.8,1.3-5.6,2.6-8.3,4.1C1953.1,2011.6,1952.6,2012.8,1949.8,2016.4z M916,1353.2
			c8.2-1.9,14-3.4,19.9-4.6c119.3-23.7,223.1,2.2,304.4,96.9c40.3,46.9,62.1,103.1,76.4,162.6c15.7,65.4,18.1,131.9,17.5,198.7
			c-0.7,74.7-4.3,149.4,4.6,223.9c1.2,9.7,1,17.5,15.2,16.8c67.2-3.6,134.4-6.5,201.6-8.7c13.8-0.5,17-5.3,17.4-18.5
			c2.3-70.4-0.8-140.7-2.5-211.1c-1.5-61.9,2-123.3,13.1-184.3c35.7-196.9,192.1-323.2,389.7-313.6c12.7,0.6,15.7-2.2,15-14.6
			c-3.5-69-5.3-138.2-9.5-207.2c-5.1-81.3-12.9-162.3-36.3-241c-26.8-90.1-73-166.9-151-222.1c-6.6-4.6-12.4-11.9-22.2-11.3
			c12.5,166.9-95,301.7-248.1,327.2c-144.9,24.2-299.7-58.5-343.8-236.9C996.9,884.2,938.3,1110.2,916,1353.2z M698.5,1776.5
			c4.7-8.1,2.7-14.3,2.5-20c-12.4-284.6,37.8-560.3,119.7-831.1c40.2-132.8,106.9-251.6,214.1-342.2
			c201.1-170,434.9-231.8,693.7-193.8c125.8,18.5,229.1,81.1,304.5,185.8c41.2,57.1,69.1,120.6,91.6,187
			c31.7,93.8,47.6,191.2,67.7,287.6c40.2,192.9,51.1,387.4,32.9,583.5c-1.6,17.8-3,35.5-4.6,53.3c5.9-5.5,8.9-11.4,11.7-17.5
			c57.2-124.3,78.4-256.3,84.4-391.6c5.4-121.6,0.3-243.2-4.2-364.7c-4.3-116-13.7-231.5-44.2-344.3
			c-43.2-159.8-127.7-290.1-274.4-372.4C1796,84.8,1586.8,72.9,1373.5,142.5c-174.6,57-314.5,166.9-428.3,308.5
			c-207.2,257.7-325,552.1-345.2,883c-8.8,144.5,16.3,284,83,414.2C687.6,1757.2,692.7,1766,698.5,1776.5z M1148.4,2359.8
			c0-1.8,0-3.6,0-5.3c61.7,0,123.4-0.5,185.1,0.3c14.8,0.2,18.9-5,19.4-18.9c2.8-77.3-0.5-154.2-10.4-230.9
			c-1.2-9.5-4.8-12.4-14.3-11.6c-52.4,4.5-104.8,4.2-157.3,1.7c-47-2.3-93.8,0.9-139.7,9.7c-187,35.8-321.9,143.2-412.4,307.7
			c-59.8,108.7-57.4,216.4,19.4,317.4c52,68.4,122.1,112.1,202.5,140c108,37.5,220.5,45.1,333.6,49.2c10.6,0.4,13.5-6.4,17.4-13.4
			c24.6-44.2,45.8-90.1,65.9-136.5c6.7-15.6,4.4-19.3-12.9-19.1c-97.5,1-195,1-292.5,1.2c-5.4,0-13.6,2.7-15.6-2.1
			c-4.9-12.1-3.6-25.6-1.3-38.1c1.6-8.6,11.4-4.7,17.5-4.8c102.5-0.8,204.9-1.6,307.4-1.4c15.9,0,24.5-3.3,28.5-20.1
			c6.9-29.3,16.5-58,24.5-87.1c6.3-23.3,6-23.4-18.7-23.4c-116-0.1-232.1-0.1-348.1-0.2c-5.4,0-14.4,0.8-15.7-1.7
			c-5.9-11.8-3.5-25.3-2.1-37.8c1.1-9.6,11-5.2,16.8-5.2c121.6-0.3,243.2-0.4,364.8,0.1c14,0.1,20.9-2.4,22.6-18.1
			c3.2-30.6,8.4-61.1,13.6-91.5c2.6-15.4-0.5-21.2-18.3-20.8c-120.9,2.9-241.9,4-362.8,7c-24.1,0.6-17-15.1-18.8-26.9
			c-2-12.8,0.8-20,17-19.8C1025,2360.4,1086.7,2359.8,1148.4,2359.8z M859.3,1951.5c0.5-5.9,0.8-8.3,0.8-10.7
			c-0.1-160.5,0.7-321,4.8-481.5c3.4-134.3,18.6-267.1,55.9-396.6c43.8-152.1,115.5-288.6,233.5-396.9
			c129.8-119.2,280.5-180.2,458.8-155.3C1738.3,528,1842.6,584,1916.8,689c59,83.5,83.4,179.2,96.2,278.7
			c13.2,102.4,14.9,205.5,19.5,308.4c9.2,204.1,14.8,408.3,12.3,612.6c-0.1,4.9-3.1,11.1,3.7,15.1c40.6-29.8,75.7-65,106.3-105
			c4.3-5.6,6.3-11.6,7.1-18.6c5-41,10.9-81.9,15.4-123c15.8-144.8,15-289.6-2.5-434.1c-14.2-117.6-38.1-233.6-65.4-348.8
			c-21.3-89.9-50.3-176.9-100.7-255c-80.2-124.4-200.3-181.2-343.2-193.7c-156.7-13.7-306,17.9-446.6,87.1
			C1043.3,599.2,928.6,739.3,869,924c-51.5,159.8-87,323.6-108.2,490.3c-17.8,140.1-19.3,280.6-10.7,421.4c0.5,8,0.2,16.3,5.7,22.9
			C785.1,1894,818.4,1924.7,859.3,1951.5z M1617.2,2891.4c74-10.7,143.1-26.3,210.5-48.3c134-43.8,250-113.2,330.9-233.1
			c93.7-139.1,77.2-308.7-6.1-420.2c-96-128.5-231.8-146.4-354.5-130.5c-7.3,1-12.5,5.1-12.6,14.9c-1,58.6-3.8,117.2-9.4,175.6
			c-1.1,11.3,2.6,13.7,13.3,12c28.1-4.6,56.4-7.6,84.7-3c49.7,8,91.2,29.3,110.2,78.9c17.6,45.8,3.3,85.9-29,120.5
			c-6.6,7.1-6.3,12.7-3,21.2c39.4,102.5-15.8,207.4-122.9,234.9c-44.6,11.4-89.3,8.6-134.2,2.1c-6.6-1-12.7-3.9-16,6.2
			C1661.1,2778.8,1639.9,2834,1617.2,2891.4z M1999.1,1650.4c-2.5-91.9-5.2-183.7-7.3-275.6c-0.3-12.1-3.5-16.9-16.3-18.1
			c-66.6-5.8-128.3,9.4-186.9,40.6c-11.9,6.3-16.2,13.5-15.7,27.3c6.3,191.1,12.2,382.1,17.6,573.2c0.4,13.5,4.8,15,16.1,12.4
			c60.7-14.4,119.8-33.2,175.1-62.9c12.5-6.7,17.1-14.3,17.2-28.5C1999.6,1829.3,2002.2,1739.9,1999.1,1650.4z M1111.9,1721.5
			c3.9-96.8,7.5-193.6,12.1-290.4c0.8-16.1-3.4-23.9-19.3-29.4c-55.4-19.1-110.7-20.8-167.5-6.9c-18.5,4.5-25.6,12.3-26,32
			c-4.3,180.2-6.1,360.4-6.1,540.6c0,10.7,4.6,15.1,13,19.2c51.2,25.4,105.6,40.6,161.4,51.8c17.2,3.4,21-0.9,21.5-17.3
			C1104.2,1921.2,1108.2,1821.3,1111.9,1721.5z M1487.2,2089.1c-27.8,0-55.5,0.3-83.3-0.1c-13.3-0.2-18.2,3.4-16.2,18.2
			c24.5,186.8,9,370.5-43.8,551.2c-24.8,84.9-58.1,166.4-99.1,244.7c-9.3,17.8-9.3,18.1,11.3,17.8c29.6-0.5,59.2-2.4,88.8-2
			c15.1,0.2,22.7-5.1,29.3-18.6c76.1-154.5,132.6-315.7,168.1-484.2c21.8-103.4,33.9-208.1,40.7-313.5c0.5-8.4-0.3-13.6-3.2-16.4
			c-4.8-4.7-13.2-3.4-16.6-2.9C1547.6,2085.6,1522.6,2087.4,1487.2,2089.1z M1420.5,2915.1c41.8-4.4,83.4-9.2,125.1-12.7
			c14.3-1.2,21-7.7,26.3-20.6c47.6-115.3,86.3-233.4,114.2-355.1c33.2-144.8,50.6-291.5,53.7-440c0.3-13.3-1.8-18.9-16.9-16.7
			c-26.2,3.8-52.7,5.8-79.2,7.9c-10.9,0.9-16,3.8-16.2,16.4c-0.8,50.6-5.5,101.1-11.6,151.3c-27.2,226.6-90,443-188.7,648.9
			C1424.5,2900.4,1419.7,2905.8,1420.5,2915.1z M1168.7,1438.2c-2.8,76-5.5,147.9-8.2,219.8c-4.7,125-9.3,250.1-14.6,375.1
			c-0.5,11.5,2.4,13.7,13.6,15.1c38.8,4.6,77.6,1.5,116.3,3.4c18.3,0.9,19.8-6.7,17.9-21.7c-6.9-54.6-7.3-109.4-6.3-164.3
			c1.5-88.7,5.1-177.7-19.4-264.5C1250.5,1539.1,1223.2,1482.8,1168.7,1438.2z M1495.4,725.5c0,52.4,0.4,104.8-0.3,157.2
			c-0.2,14.6,4.3,17.5,18.3,14.9C1655.2,872,1745.5,742.8,1721,601c-2.2-12.4-7.8-17.5-18.6-21.6c-63.9-24.5-130.2-31.3-198.1-28.4
			c-5.8,0.2-9.4,1.5-11.6,3.9c-4.1,4.4-3.5,11.2-3.3,13.3C1490.5,580.9,1492.6,641.6,1495.4,725.5z M1728.5,1441.7
			c-37.6,34.7-61.4,73.1-78.2,115.9c-25.2,64-33,131.1-34.4,199.3c-1.8,88.2,6.8,176.3,2,264.5c-0.5,9.9,2.8,13.2,12.6,12.2
			c31.9-3.3,63.8-6.5,95.7-8.9c15.9-1.2,20.7-7.5,20.1-24c-4.6-128.2-8.1-256.5-12-384.7C1732.5,1559.4,1730.5,1502.7,1728.5,1441.7
			z M1444,730.9c0-51.2-0.4-102.4,0.3-153.6c0.2-15.4-5.1-17-18.5-13.5c-71.9,19-136.8,51.9-195.9,96.9c-8,6.1-10.3,12.4-9.1,22
			c13.1,106.9,105.6,200.8,212.2,215.9c7,1,11.4,0.6,14-1.8c4.5-4,3.7-11.7,3.5-14.2C1448.9,868,1446.8,810.6,1444,730.9z
			 M1761.4,2677.6c14.4,0.3,28.4-2,42.3-4.3c73.6-12.3,124-73.3,115.7-140.6c-1.6-12.6-0.8-28.4-11.2-35.9c-7.6-5.5-19.1,4.5-29,6.9
			c-41.6,10.1-83,8.4-124.6,1c-8.2-1.5-16.7-4.9-19.5,8.8c-9.8,48.9-22.2,97.1-36.7,144.8c-3,10,0.6,13.4,9.6,14.2
			C1725.8,2674.2,1743.6,2675.9,1761.4,2677.6z M1813.5,2465.9c52-1.3,94.6-11.8,121.5-55.1c19.7-31.7,13.6-64-16-86.7
			c-9.4-7.2-19.8-12.8-31.1-16c-36.7-10.4-73.3-5.3-109.9,1.4c-6.5,1.2-8.7,4.7-9.6,11.2c-6.1,42.1-12.5,84.1-19.6,126
			c-1.5,8.9-0.1,12.1,9,13C1778.1,2461.5,1798.3,2464.1,1813.5,2465.9z"/>
	</g>
</g>
</svg>
