<?xml version="1.0" encoding="utf-8"?>
<!-- Generator: Adobe Illustrator 23.0.0, SVG Export Plug-In . SVG Version: 6.00 Build 0)  -->
<svg version="1.0" xmlns="http://www.w3.org/2000/svg" xmlns:xlink="http://www.w3.org/1999/xlink" x="0px" y="0px"
	 viewBox="0 0 3000 3000" style="enable-background:new 0 0 3000 3000;" xml:space="preserve">
<style type="text/css">
	.st0{stroke:#000000;stroke-width:10;stroke-miterlimit:10;}
</style>
<g id="Layer_1">
</g>
<g id="Layer_2">
	<g>
		<path class="st0" d="M1135.8,764.3c3.3-10.4,4.5-13.8,5.5-17.3c30.9-107.3,117.8-156.2,225.8-125.3
			c111.2,31.8,176.7,111.8,218.7,214.2c33.9,82.7,42.4,170.7,46.8,258.9c3.2,64.9,4.2,129.9,5.3,194.9c0.2,14.8,4.5,19.9,19.8,20.2
			c167.1,2.5,334.1,6,501.2,8.6c29.3,0.5,58.7-2.3,86.5-13.3c20.1-8,36-21.1,47.4-39.2c16.2-25.6,12.9-54.7-8.4-76.3
			c-23.4-23.7-54-35.6-83.1-49.8c-53.1-25.9-99.3-59.8-131.1-110.7c-41.2-66-33.6-141.4,19.6-198.1c24.2-25.7,52.8-45.5,84.2-60.8
			c170.3-83.1,350.5-124.2,539.9-122.8c57.5,0.4,114,10.8,165.3,39.5c36.3,20.3,64.5,48.1,77.8,88.4c19,57.3-13.2,110.7-72.5,121.9
			c-26.8,5.1-53.7,6-80.9,5.7c-94.2-1.2-186.6,10.5-277.2,36.6c-18.7,5.4-36.7,12.2-52.4,24c-21.7,16.5-24.3,36.4-7.6,58.2
			c15.8,20.7,39,29.8,62.2,38.5c84.4,31.4,128.4,93.5,136,181.7c8.5,98.8-38.2,172.3-111.5,232.2c-30,24.5-64.4,42-104.2,60.2
			c18.2,4.8,31.7,8.5,45.2,11.9c251.5,63.1,301,280.8,245.4,452.2c-60.6,186.8-198,284.7-388,314.5c-55.5,8.7-111.2,7.3-165.9-6.4
			c-94.4-23.6-154.9-83.9-175.9-177.9c-22.2-99.8,5.1-187.7,83.9-255.1c53.1-45.4,115.1-69.2,186.5-57.3
			c33.2,5.6,60.5,21.9,70.3,56.2c9.4,33-4,60.2-27.4,83.8c-19.3,19.5-43.8,31.6-65.1,48.3c-18.2,14.2-35.2,30-30.2,55.9
			c5.2,27.1,24.3,42.4,50,49.3c37.5,10.1,73.9,4.3,108.5-11.5c49.9-22.8,85.9-59.7,106.4-111c38.3-96-13.4-180-116.3-189.6
			c-72.1-6.7-143.7,3.3-215.4,7c-144.8,7.5-289.6,17-434.4,25.7c-37.8,2.3-75.6,5.5-113.5,6.7c-15.8,0.5-22.8,5.8-26.2,21.6
			c-12,55.9-30.2,110-51.1,163.2c-85.1,216.5-245.4,343.1-469.5,393.1c-135.9,30.3-273.4,27.6-411.1,16.6
			c-70.9-5.7-141.5-13.8-211.2-28.8c-197.3-42.5-310.8-166-352.8-360.5c-24-111.2-27.4-224.1-26.5-336.9
			c2.1-265.3,49.4-522.8,142.9-771.3c40-106.3,90.9-206.8,168.5-291.4c91-99.2,199.9-164.6,337.4-174.2
			c176.1-12.3,362.5,112.8,417.2,280.5C1132,751.8,1132.8,754.7,1135.8,764.3z M1599.9,1326.4c2.2-62.6-5.1-133.6-3.9-204.8
			c0.3-19.7-5-25.6-25.6-26.3c-96-3.2-161.3-54.8-176.6-143.2c-13.6-78.7-12.8-158.8-4.7-238.2c4.9-47.8,7.3-47.6-40.6-57.6
			c-8.3-1.7-16.8-2.9-25.2-3.7c-72.3-6.6-122,27.9-142,97.8c-15.2,53.2-21.4,107.5-21.1,162.7c0.5,87.4,1.6,174.8-5.1,262.1
			c-1.2,14.9-2.3,29.8-21.3,29.2c-19.9-0.6-19-16.7-18.3-31c4.3-90.5,1.1-181-4-271.4c-3-53.8-2.7-108.6-23.9-159.8
			c-68.5-165.3-285-304.2-511-200.7c-126.9,58.1-211.7,157.7-275.2,278.3c-53.6,101.7-89.4,210.3-119.5,320.8
			c-43.6,160.2-68.7,323.3-76.6,489.2c-0.8,17.3,2.4,23.7,21.1,20c34-6.8,68.3-12.5,102.8-17c49.1-6.4,97.6-5.1,141.7,21.6
			c73.1,44.2,80.2,139.8,13.7,182.6c-23.9,15.4-51.4,21-78.9,25.4c-59.5,9.5-118.9,19.2-178.6,27.2c-14.8,2-17.9,7.3-16.4,20.5
			c7.8,69.2,18.4,137.8,42.3,203.8c5,13.8,11.6,19.2,26.9,17.5c73-7.7,146.1-14.5,219.2-21.3c87-8.1,173.8-17.1,260.9-23.5
			c85.2-6.2,129.5,31.1,138.3,116.2c6.2,59.2,9.8,118.7,12.6,178.1c0.8,17,6.4,20.3,21.7,20c75.9-1.6,151.6-6.6,225.6-23.7
			c137.6-31.7,258.9-91.9,348.7-205.3c66-83.4,105.2-179.7,132.8-281C1589.2,1709,1603.5,1523,1599.9,1326.4z M1924.9,1356.6
			c-145.3-4.4-248.9-7.8-264.6-9.3c-2.5-0.2-10.7-1.1-15.9,3.8c-2.9,2.8-4.3,7.4-4.5,15c-1.5,65.7-4.2,131.4-7.5,197.1
			c-0.8,16.3,0.7,23.2,20.3,21.4c80.1-7.4,160.4-11.6,240.4-19.3c152.7-14.7,306.8-13.1,458-45.4c56.1-12,108.5-29.3,156.2-60.5
			c39.3-25.8,71.9-58.2,95.1-99.7c50.2-89.7,26.7-230.1-92.7-265.4c-28.8-8.5-55-24.4-74.3-49.4c-27.1-35-23-78.9,10.3-108
			c21-18.4,46.2-27.8,72.4-35.3c98.2-28.1,198.4-39.9,300.4-37.2c22.6,0.6,44.9-0.8,66.5-7.8c34-10.9,48-40.2,34.4-73.3
			c-11.3-27.5-31.3-47.6-57.1-61.9c-37.2-20.7-77.6-31.2-119.6-33.3c-191.7-9.4-373,32.5-545.9,113.9c-29.4,13.8-56.5,32-79,56.1
			c-40.4,43.3-46.4,96.1-16.2,147c24,40.5,58.9,69.2,99.9,91c18.4,9.8,37.4,18.4,56,27.8c8.9,4.5,17.8,9.3,26.2,14.8
			c35.4,23.5,61.4,54,58.1,98.9c-3.6,48.5-33.2,80.3-75.7,100.5c-29.9,14.2-62.2,18.2-94.9,18.2
			C2088.9,1356.7,2006.9,1356.6,1924.9,1356.6z M2282.2,2279.2c12.5-0.8,33.5-0.8,54.1-3.5c160.8-21.1,284.3-96.8,351.7-248.5
			c45.3-101.9,47.7-205.8-6.1-306.3c-44.5-82.9-122.8-119-209.1-140.4c-39.5-9.8-79.9-25.3-120.7-18.5
			c-142.2,23.9-286,27.6-429.1,40.3c-92.4,8.2-184.9,14.8-277.4,21.9c-10.7,0.8-18.9,1.8-20.1,15.8c-4.2,48.5-12.4,96.6-21.5,144.4
			c-2,10.4-0.3,14,10.7,13.1c25.4-2,50.9-3.3,76.4-4.8c178.2-10.6,356.5-21.8,534.8-31.5c54.7-3,109.4-10.4,164.3-1.3
			c74.7,12.4,132.8,53.4,148.7,123.2c33.5,147-115.9,298.3-263.4,266.1c-42.3-9.2-73.8-33.6-84-77.2c-10.1-43,10.4-74.8,44.7-99
			c13.2-9.4,26.7-18.4,40.1-27.7c13.4-9.4,25.6-20.1,33.7-34.6c10.7-19.2,6.3-36.2-12.4-47.7c-16.4-10.2-34.8-12.2-53.6-11.3
			c-37.2,1.8-70.8,14.4-102.2,34c-70.1,43.7-111,132.3-98.3,213.5c13.9,89,67.1,148.3,152.6,169.7
			C2221.4,2275.6,2247.6,2277.5,2282.2,2279.2z M181.4,2169.7c-1,10.7,5.5,17,9.8,24c45.6,74.3,111.6,122.9,193.2,151.2
			c108,37.4,220.7,44.3,333.3,51.8c16.9,1.1,38.8,7.8,49.7-0.1c14.3-10.3,2.2-33.1,1.3-50c-2.9-54-2.5-108.4-12.6-161.7
			c-7.1-37.6-26.7-54.2-64.8-58c-13-1.3-26.3-1.4-39.4-0.4c-55.4,4.6-110.9,9.6-166.3,14.7C384.3,2150.7,282.9,2160.2,181.4,2169.7z
			 M264.7,1668.2c-44.8,2.2-92.7,15.9-141.9,20.8c-14.6,1.5-19.9,5.9-19.4,20.8c1.6,42.5,2.5,85,2.8,127.6
			c0.1,14.5,5.7,16.6,18.5,13.7c15-3.4,30.5-4.5,45.7-7.2c55.5-9.8,112-13.6,166.5-28.2c27.6-7.4,51.4-21.5,54.1-53.1
			c2.8-33-13.4-58.3-41.2-75.1C325.4,1672.8,297.8,1668.4,264.7,1668.2z M1423.3,803.2c0.9,48.2,1.2,86.8,5.5,125.3
			c9,80.3,68.6,132.3,148.1,128.7c11-0.5,15-3.6,13.8-15c-6.8-63.8-15.4-127.2-38.9-187.6c-22.5-57.8-55-108.6-103.4-148.4
			c-11.6-9.6-17.9-13.8-20.3,7.2C1424.1,746.6,1424.1,779.7,1423.3,803.2z"/>
		<path class="st0" d="M953.5,1188.3c-22.8,27.9-43.9,54.5-66.1,80.3c-8.2,9.6-7.1,16.5-0.3,26.2c16.9,24,32,49.3,48.8,73.3
			c8.5,12.1,8.2,18.4-5.8,26.4c-13.5,7.8-20.1,8.5-28.3-6.5c-11.9-21.6-27.2-41.3-40-62.5c-7.7-12.8-13.8-12.1-20.9-0.3
			c-0.4,0.7-1,1.2-1.5,1.8c-13.7,16.7-35.6,31.9-39,50.5c-3.6,19.4,20.7,35.6,33.2,52.8c9.5,13.1,6,18.8-5.8,26.9
			c-11.5,7.9-18.1,10.7-26.8-3.9c-8.5-14.3-16.9-36.9-30.8-38c-14.5-1.1-23.7,21.5-34.3,34.3c-9.9,12-16.9,8.7-26.3-0.2
			c-8.4-8-15.4-12.8-4.2-25.3c13.6-15.2,38.1-29.4,35.9-47.9c-2.2-17.8-23.1-33.4-36-49.8c-8.6-10.9-18.3-21-26.4-32.3
			c-7.6-10.6-12.8-9.5-20.4,0.1c-21.2,26.6-43.8,52-64.4,79.1c-11.2,14.7-18.6,9.1-29.9,0.6c-12.7-9.5-9.3-15.6-0.8-25.4
			c23.2-26.9,45-55,68.3-81.9c8.6-10,10.2-17,0.2-27.2c-19.5-19.9-38.1-40.7-56.4-61.6c-7.1-8.1-11.7-7.4-17.7,1
			c-11.2,15.8-23.6,30.7-34.2,46.7c-9.4,14.3-16.7,4.7-24.1-1c-7.3-5.6-18.9-9.5-7.4-22.7c13.1-15.2,24.5-31.8,36.1-48.3
			c3.8-5.4,14-10.5,4.7-19.1c-7.2-6.7-12.5-18.6-22.4-18.7c-8-0.1-7.3,12.2-9.6,19.1c-9.7,28.4-19.3,56.9-27.4,85.9
			c-3.6,13-9.9,14-20,9.4c-8.9-4-23.7-3.2-17.9-20.3c33.1-96.2,56.5-196.1,110.3-284.3c46.6-76.3,106.6-136.3,195.9-160.2
			c102.5-27.4,193.5,8.6,250.5,98c39.7,62.3,51.7,133.4,64.2,204.1c17.3,98.3,26.8,197.6,31.9,297.3c0.6,12.2,4.1,24.1-16.3,24.9
			c-19.2,0.7-23.3-6.7-23.5-23.7c-0.3-24.1-0.4-45.8-20.4-68C999.2,1265.9,980.8,1224.5,953.5,1188.3z M855.7,994.4
			c30.8-37.6,60.1-73.6,89.8-109.1c6-7.2,6.8-12.5,0.8-20.1c-25.7-32.7-57.8-55.4-98.5-65.3c-11-2.7-18.7-0.6-25.4,9.8
			c-16,24.6-33,48.6-50.2,72.4c-6,8.3-6.3,13.6,1.2,21.6C800.8,932.9,827.4,963,855.7,994.4z M744.7,926.8c-4.2,3.5-6.9,4.9-8.5,7.2
			c-19.4,26.9-38.6,53.9-58.1,80.8c-5.7,7.8-0.8,12.6,3.9,17.9c21.3,24.4,42.9,48.6,63.4,73.7c8.2,10,12.5,7.3,19-0.8
			c18.8-23.5,37.7-46.9,57.3-69.6c7.2-8.3,6.6-13.6-0.4-21.3c-23.4-25.6-46.3-51.8-69.3-77.8C749.5,934,747.5,930.7,744.7,926.8z
			 M974.1,912.1c-30.7,37.2-59.1,71.7-87.6,105.9c-4.9,5.9-4,10.2,0.5,15.9c20.6,26.1,40.9,52.3,60.8,78.9c7,9.4,11,7.1,17-0.9
			c13.4-17.9,27.5-35.3,41.7-52.7c4.7-5.8,6.7-11.6,5.2-19.2C1003.2,997.8,995.7,955.3,974.1,912.1z M855.3,1247.3
			c23.4-28.7,45.5-56.2,68.1-83.4c6.3-7.6,4.5-13.5-0.8-20.4c-19.8-25.6-39.6-51.2-58.9-77.1c-6.6-8.9-11.2-7.7-17.5,0.2
			c-19.3,24-38.9,47.7-58.6,71.4c-4.8,5.8-7.9,10.5-2.1,18C808.7,1185.6,831.3,1215.7,855.3,1247.3z M727.8,1148
			c-1.6-3.1-2.4-5.3-3.8-7c-22.5-26.4-45.2-52.6-67.7-79c-8.2-9.7-11.5-0.8-15.3,4.2c-14.3,19.1-27.8,38.9-42.6,57.5
			c-8.1,10.1-6.4,16.5,2.1,25.2c19.4,19.8,38.1,40.4,56.3,61.2c7.6,8.6,12.6,11.8,20.9,0.6c12.9-17.3,27.3-33.4,40.9-50.1
			C722,1156.6,724.8,1152.1,727.8,1148z M771.9,1347c16.6-19.7,32.3-38.7,48.5-57.3c6.5-7.4,7.9-13.3,1.2-21.9
			c-20.3-26.1-39.9-52.8-59.5-79.5c-5.4-7.4-9.5-8.3-15.6-0.5c-14.8,18.7-30,37.1-45.6,55.2c-5.5,6.4-5.8,10.9-0.1,17.6
			C724.5,1288.8,747.7,1317.5,771.9,1347z M663.7,848.2c-4.6,3.3-8.6,5.4-11.8,8.6c-12.5,12.5-25.7,24.4-37,38
			c-29.7,35.8-29.4,36.1,3.3,69.7c5.9,6.1,12.2,11.8,17.5,18.4c7.5,9.1,12.6,8.2,18.9-1.6c10.5-16.1,22.3-31.3,33.4-47
			c26.4-37.3,26.4-37.3-7.1-70C675.7,859,670,854,663.7,848.2z M566.5,969c-18.2,29.6-28.9,61.8-41.6,93.1c-2.4,5.9-1,9.7,3.8,13.9
			c8.7,7.6,17,15.8,24.8,24.3c6.6,7.2,10.7,5.7,16-1.8c15.1-21.4,30.8-42.5,46.5-63.5c4.9-6.6,5.5-11.8-0.9-18
			C599.1,1001.6,583.4,985.7,566.5,969z M1022.5,1101.5c-15.1,19-26.4,33.3-37.9,47.4c-4.1,5-3.8,9.5-0.4,14.6
			c17.1,25,34,50,51.1,75C1036.9,1193.7,1030,1150.9,1022.5,1101.5z M782.2,799.2c-23.7,0.9-46.4,7.6-68,16.6
			c-15.1,6.2-16.5,11.2-4.2,23c27.3,26.4,26.7,27,48.7-4.7C766,823.3,773.2,812.5,782.2,799.2z"/>
	</g>
</g>
</svg>
