<?xml version="1.0" encoding="utf-8"?>
<!-- Generator: Adobe Illustrator 23.0.0, SVG Export Plug-In . SVG Version: 6.00 Build 0)  -->
<svg version="1.0" xmlns="http://www.w3.org/2000/svg" xmlns:xlink="http://www.w3.org/1999/xlink" x="0px" y="0px"
	 viewBox="0 0 3000 3000" style="enable-background:new 0 0 3000 3000;" xml:space="preserve">
<style type="text/css">
	.st0{fill:none;stroke:#000000;stroke-miterlimit:10;}
	.st1{stroke:#000000;stroke-width:10;stroke-miterlimit:10;}
</style>
<g id="Layer_1">
</g>
<g id="Layer_2">
	<path class="st0" d="M1117.7,1755.3"/>
	<g>
		<path class="st1" d="M2794.1,980.9c57.2,15.1,96.2,45.5,128.2,83.8c72.7,87.3,73,198.7,1.5,293.4c-18.2,24.1-39.4,46.1-60.4,68
			c-21,22-46.6,38.5-73.5,54.4c266.9,144.7,210.4,458.9-10.7,579.5c1.8,2.3,3.1,5.7,5.4,6.6c94.8,37.9,132.3,123.8,126.2,223.4
			c-4.2,69-19.3,133.6-62.3,190c-49.4,64.8-118.3,92-195.3,104.4c-153.3,24.7-304.2,10.4-453.4-29.4c-12.2-3.2-23.3-7.9-36,4.1
			c-106,99.9-236.7,146.4-377.6,163.7c-183.1,22.5-367.2,31-551.4,13c-120.9-11.8-233.5-49.1-329-127.5c-17-13.9-31.5-16-51.6-11.1
			c-148.1,36.5-297.4,48-448.1,17.6C265.8,2586.7,178.6,2483,173.2,2340c-1.4-37.5-2.1-75,8.8-111.4
			c19.1-63.6,62.3-104.8,127.1-130.8c-113.6-66.1-185.7-158.9-193.4-288.3c-8-134.7,61.7-227.9,178.3-292
			c-42.4-27.5-80.5-58.2-112.6-96.7c-131-156.8-86.8-329.8,107.9-406.7c-64.7-35.8-87.1-92.9-85.9-161.5
			c1.1-64.5,13.7-126.4,43.9-184.3c70.7-135.5,188.7-203.7,332.8-234.5c111.4-23.8,221.3-16.3,329.3,19.3c13.8,4.6,25.5,8.5,39.4-2
			c117.6-88.6,254.7-121.7,397.7-131.5c161.5-11,323.3-20,485.4-8.1c113.5,8.4,222.1,32.7,318.3,97.1c13.9,9.3,25.8,6.8,39.9,2.7
			c177.5-51,348.8-33.8,504.9,64.5c107.6,67.8,169.8,171.1,181.8,300.6c1.7,18.1,3.5,36.4,2.6,54.5
			C2876.7,891.9,2854.4,943,2794.1,980.9z M2341.9,1457.3c0-110.3,0.5-220.7-0.1-331c-0.7-125.6-4.4-251.1-30.4-374.5
			c-44.7-212.5-169.5-335.5-381.6-376.2c-58.7-11.3-118.3-17.3-178.1-17.1c-172,0.6-344.5-3.4-514.8,26.8
			c-234.7,41.6-387.9,174.9-451.8,407.1c-25.4,92.2-40.3,186.1-45.9,281c-15.6,267.9-21.1,536.2-17.7,804.6
			c1.6,124.4,8,248.8,34.8,371.2c56.5,257.4,204.5,396.6,465.4,433.9c147.3,21,295.1,9.2,442.7,1.3c83-4.4,165.2-15.5,245.1-39.7
			c183.6-55.6,305.4-171.3,354.7-360c34.2-131.1,44.3-230.9,47.6-323.7C2315.9,1844.1,2324,1674.4,2341.9,1457.3z M2522.4,2035.7
			c0,0.9,0,1.7,0,2.6c36.4,0,72.8-1,109.2,0.2c63.2,2.1,120.6-14.7,169.3-54.8c78.5-64.6,126.4-146.5,115.8-250.7
			c-10.4-101.5-71-169-162.9-209.7c-20.1-8.9-39.4-10.1-61.5-3.2c-93.2,29-188.6,46-286.7,41.5c-17.7-0.8-25.5,3.1-25.9,22.6
			c-1,49.5-3.2,99.1-6.6,148.5c-1.4,19.7,3.8,25.8,24.2,25.8c70.8-0.1,141.6,2.6,212.5,2.6c20.8,0,24.6,7.8,24.8,26.5
			c0.2,19.6-5.1,26.1-25.3,25.5c-69.8-2.2-139.6-1.8-209.4-4c-21.1-0.7-31.1,3.3-31.8,27.1c-1.6,59.6-5,119.3-9.2,178.8
			c-1.3,18.9,5.5,21.5,22.1,21.1C2428.1,2035,2475.2,2035.7,2522.4,2035.7z M2215.2,2503.7c5.4,2.9,8.7,5.5,12.3,6.5
			c138.8,34.6,279,47.7,420.9,23.7c125.9-21.3,189.2-82.3,207.3-206.8c18.4-126.1-11.6-210.8-162.2-230.8
			c-107.7-14.3-215.9-12.7-324.1-10.2c-16.7,0.4-19.4,9.6-21.1,23c-3.8,31.1-5.7,62.9-14.2,92.8c-8.7,30.4,3.5,33.4,28.5,33.5
			c72.8,0.3,145.6,2.9,218.5,3.3c21.1,0.1,24.5,9,24.6,27.6c0.1,20.8-7.9,25.2-27.1,24.7c-79.9-2.4-159.8-3.1-239.7-4.8
			c-11.4-0.2-22.1-2.4-26.3,12.8C2292.6,2372.6,2262.1,2441.4,2215.2,2503.7z M2515.8,1308.9c-35.4,0-70.9,0.9-106.2-0.4
			c-17.5-0.6-22.9,5.7-23,22.4c-0.4,53.6-1.3,107.3-3.2,160.9c-0.8,21.8,14.1,18.1,26.4,18.6c96.2,4.1,188.9-13.9,280.4-42.6
			c77.2-24.2,137-70.1,187.6-132.5c110.7-136.2,13.6-294.2-123.3-310.8c-113.4-13.7-227.8-16.4-342-20.2c-17.1-0.6-22.4,4.4-22.1,22
			c1.1,68.8,1.6,137.7,0,206.5c-0.5,22.3,6.9,26.8,27.3,26.8c67.8-0.1,135.6,2.3,203.4,2.4c25,0,19.7,16.1,20.6,30.9
			c0.5,8.2-0.7,13.7-4,17.2c-5.4,5.6-14.7,5-18.7,4.7C2600.8,1313.3,2564.4,1311.5,2515.8,1308.9z M516.4,1867.7
			c-42.5,0-85-0.7-127.4,0.3c-19.4,0.4-31.7-0.3-31.5-26.2c0.2-25.4,13.5-23.6,30.6-24.2c85.9-3,171.8-7.5,257.7-9.9
			c20.3-0.6,25.3-7.6,25-26.7c-0.8-54.6-0.2-109.3,1-163.9c0.3-16-4.6-20.4-20.6-20.2c-89.8,1.2-176.9-15.4-262.1-42.3
			c-19.7-6.2-36.9-4.9-55.6,2.5c-117.3,46.1-186.2,162.6-164.8,279.7c23.6,129.3,142.5,236.5,263.8,237
			c75.9,0.3,151.5-9.3,227.5-5.3c18,0.9,19.3-7.4,18.6-21.7c-2.9-56.6-5.5-113.2-6.9-169.8c-0.2-8-1.6-13-4.8-15.9
			c-5.4-4.9-13.9-3.6-16.9-3.1C633.4,1860.3,584.9,1863.6,516.4,1867.7z M890.1,502c-9.2-3.5-14.6-6-20.3-7.6
			C777.9,466.8,685,463.8,591.1,483c-196.3,40.1-325.4,169-337.2,355.5c-5.2,82.1,25.4,126.7,105.7,141.7
			C465.1,1000,571,994.7,677,985.9c18.7-1.6,22.3-13.2,24.1-28.5c6.4-56.3,15.3-112.4,32.3-166.4c8.8-28.1-1.6-29.5-24.2-28
			c-90,6.2-180-0.1-270-1.9c-26.7-0.5-23.8-15.2-24.2-33.7c-0.5-24.1,13.8-19.1,27.6-18.1c98,7.2,196.1,5,294.2,3.1
			c11.2-0.2,21.7-0.1,27.1-13.8C792.7,625.7,833,559.8,890.1,502z M2216.8,457.7c92.7,118.6,114,158,141.5,273.3
			c4.9,20.5,12.8,25.7,32.2,24.8c64.6-3,129.4-3.9,194-7.1c19.8-1,25.7,4.7,25.9,24.7c0.3,19.9-5.4,25.7-25.1,26
			c-62.7,1-125.3,4.4-188,5.9c-17.9,0.4-24.9,4.2-21.4,24.6c5.2,30.8,7.8,62.3,8.6,93.5c0.6,20.2,8.8,25.3,27.4,26.2
			c66.6,3.1,133.2,7.6,199.8,11.6c45.9,2.7,90.5-4.2,134.6-16.8c50.2-14.3,75.4-49.4,81.3-98.4c15.4-128.3-62.8-276.8-176.5-339.1
			c-81.3-44.5-168.4-68.4-260.6-71.7C2331.9,433.1,2274,439.3,2216.8,457.7z M518.4,1048.1c-89.2-0.1-155.8-1.5-221,17.8
			c-96.8,28.6-194.2,153.5-106.3,284.1c20.9,31.1,44.3,60.9,74.1,83.9c115.7,89.5,252.3,107,392.4,111.6c13.7,0.5,13.7-7.8,14-17.6
			c1.8-68.8,3.8-137.6,6.2-206.4c0.5-15.3-1.5-24.5-20.8-23.7c-78.8,2.9-156.9-9.2-235.3-13.7c-6.3-0.4-14.1,2.9-17-7.5
			c-6.4-22.8,8.5-42.4,32.8-41.2c72.7,3.7,145,13.8,218.1,12.6c14.3-0.2,24.7,0.1,25.3-19.6c1.9-57.6,5.5-115.2,9.1-172.8
			c0.9-14.4-2-18.4-18.1-16.9C613.2,1044.1,554.8,1050.1,518.4,1048.1z M840.7,2547.5c-37.8-45.4-68-91.9-88-144
			c-7.4-19.3-17.2-25.4-37.6-25.2c-97.1,1.2-194.3,0.3-291.4,0.8c-18.2,0.1-30.2-0.4-30.1-24.8c0.1-23,9.5-25.9,28.9-25.7
			c93.1,0.8,186.2-0.1,279.3,0.7c18.1,0.2,22.8-4.3,17.5-22c-15.7-52.4-26.6-106-31-160.5c-1.8-22.5-11.9-28.7-32.7-28
			c-66.7,2.4-133.6,2.1-200.2,6c-45.2,2.6-90.6,7.2-133.9,23.2c-51.8,19.1-82.5,55.1-94.1,109.3c-8,37.6-4.3,74.4,0.6,111.6
			c12.9,98.1,73.4,167.6,169,191.7c97.4,24.5,196.2,24.1,295.3,14.2C741.3,2569.9,790,2563.3,840.7,2547.5z"/>
	</g>
</g>
</svg>
