<?xml version="1.0" encoding="utf-8"?>
<!-- Generator: Adobe Illustrator 23.0.0, SVG Export Plug-In . SVG Version: 6.00 Build 0)  -->
<svg version="1.0" xmlns="http://www.w3.org/2000/svg" xmlns:xlink="http://www.w3.org/1999/xlink" x="0px" y="0px"
	 viewBox="0 0 3000 3000" style="enable-background:new 0 0 3000 3000;" xml:space="preserve">
<style type="text/css">
	.st0{stroke:#000000;stroke-width:10;stroke-miterlimit:10;}
</style>
<g id="Layer_1">
</g>
<g id="Layer_2">
	<g>
		<path class="st0" d="M2231.3,1136.6c171.5,17.3,327,78.8,468.2,174.9c151.9,103.3,231.4,248.2,224.3,434.3
			c-4.9,128.3-54.1,241.9-126,346.7c-10.9,15.9-21.8,31.8-31,48.7c-35.6,65.1-89.4,109.7-155.5,141.1
			c-125.9,59.7-259.6,91.6-396.6,111.8c-182.8,26.9-365.5,21.1-548-3.1c-108.7-14.4-218.4-22.9-324.9-50.6
			c-106.4-27.6-202.6-76.6-285.8-148.4c-89.2-77-108.2-182.1-55.9-287.8c6.2-12.5,6.2-12.5-1.3-46.4c-29.7,25.8-50.9,54.3-50.7,93.1
			c0.2,66.8,0.3,133.7,4.6,200.3c4.5,69.6-24.3,119.2-81.8,153.9c-86,51.9-173.9,99.2-275.9,112.5c-64.9,8.5-123.5-7.6-177.9-42.1
			c-23.8-15.1-47.4-30.5-71-45.9c-31.5-20.5-65.9-29.6-103.4-28.2c-21.5,0.8-42.9,3.4-64.5,1c-68.1-7.5-106-49-108.5-118.1
			c-1.6-44.4,13.8-84.1,30.1-124.2c17.8-43.8,40.5-87,32.1-136.7c-4.9-29.1-12.6-57.8-18.7-86.8c-9.5-44.7-5.6-88.4,9.9-131.3
			c13.1-36.2,27.2-72,43-107.2c18-40,41.9-75,78.4-101.2c-1.4-1.9-2.1-4.4-3.7-5c-57-24.8-87.8-69.9-102.6-128.8
			c-26.1-103.4-36.1-208.9-41.4-314.9c-2.8-55.6-2.4-111.4-6.6-166.9c-7.1-93.6,21.9-141.5,129-162.5
			c89.3-17.5,180.3-13.5,270.9-11.7c104.7,2.1,209.2,10.5,312,30.2c78,14.9,149.7,46.7,205.2,106.7c6.8,7.3,9.8,7.8,17.1,1.2
			c92.3-84.5,204.9-125.8,324.9-150.3c40.3-8.2,81.8-7.7,120.8,7.5c60.2,23.3,103.7,63.5,108.4,131.1c4.3,61.3-32,103.1-80.4,134.2
			c-28.6,18.4-60.3,30.8-95.1,34.4c-47.5,4.8-79.1-21.7-81-69.5c-0.2-4.4,0.3-8.9-0.1-13.4c-0.9-9.3,4.6-23.4-2.9-26.8
			c-9.8-4.4-20.5,5.6-29.1,12.4c-26.3,20.9-46.6,47-37.7,82.1c10.1,39.7,40.5,62.7,78.8,74.7c25.2,7.8,50,4,73.8-6.3
			c22.4-9.8,44.2-20.9,66.8-30.4c66-27.6,116-8.8,147.5,55.2c13.2,26.8,20.5,55.6,26.5,84.7c1.2,5.7-0.4,15.1,10.6,12.9
			c26.7-5.3,53.3-11,80.2-16.5c-2.4-6.9-7.6-6.4-11.3-8c-83.6-34.8-120.8-96.3-112.5-186.3c16.7-179.7,148.2-312.6,328.2-332.2
			c96.3-10.5,189.3,2.6,279.4,37.4c60.5,23.4,98.3,67.1,113.4,130.3c0.7,2.8,1.9,5.5,3,8.3c0.2,0.6,1,1,2.5,2.4
			c14.8-115.6,100.8-154.7,196.5-178.8c134.3-33.8,257.2-11.7,356.4,91.8c96.5,100.7,99.6,257.8,9,353.4
			c-48.4,51.1-110.7,72.4-178.6,80.8c-81.8,10.1-163-1.7-244.4-6.5C2395.4,1148.8,2313.3,1142.4,2231.3,1136.6z M907.4,817.1
			c-7.4-8.9-18.7-11.2-28.4-16.1c-60.9-30.6-127.8-33.3-193.4-43.2c-24.4-3.7-35.6,2.1-43.3,25.2c-5.2,15.8-1.8,18.9,13,19.7
			c84.1,4.4,168.3,9.3,252.4,14c0,8.7,7.9,11.9,12.4,17.4c13.4,16.6,26.6,34.4,16.4,56.3c-9.5,20.5-30.2,21.4-50.2,20.7
			c-3.7-0.1-7.4,0-11.1-0.2c-83-3.5-165.9-9.3-248.6-17.4c-17.8-1.7-27.3,1.8-31.2,20.5c-3.9,18.8-10.1,37.2-16.7,55.2
			c-6.4,17.5-3.4,24.1,17.1,24.4c72,1.1,143.9,3.7,215.9,6.3c31.5,1.1,53,24.8,51.6,55.1c-1.3,28.4-23.2,48.5-53.5,47.8
			c-69-1.6-138-3.1-207-5.8c-53.4-2.1-52.8-2.7-62.5,49c-2.8,14.7-0.8,18.8,14.8,19c67.5,1,135,2.9,202.5,5.3
			c35.1,1.3,57.9,24.8,55.9,55.8c-2,30.9-25.4,48.8-60.3,47.7c-70.5-2.3-141-3.9-211.5-5.6c-7-0.2-14.4-2.2-17.3,8.7
			c-7.6,28.7-1.8,37.5,27.3,38.6c8.9,0.3,17.8,0.2,26.7,0.6c40.8,2,81.6,2.6,122.2,6.6c30.8,3,46.3,28.3,42,62.1
			c-3.6,28.7-21.9,41.9-53.1,40.2c-51.1-2.8-102.3-4.1-153.4-7.4c-15.2-1-17.5,4.7-16.8,17.5c1.8,29.6,2.8,59.3,3.9,89
			c0.2,5.9,1.5,12.6-0.8,17.5c-6.3,13.5-41.1,23.5-63.2,19.3c-22.5-4.3-40.3-20.2-42.4-39.2c-3.6-32.4-7.6-64.9-9.5-97.4
			c-1-16-6.1-21.7-22.5-21.6c-43.8,0.3-87.6-0.8-131.4-2.1c-29.9-0.9-48.3-22-47.6-52.8c0.7-29.5,17.1-45.5,48.3-44.9
			c42.8,0.8,85.6,2.6,128.3,4.4c13.5,0.6,21.8-0.3,21.7-18.1c-0.1-16-5.2-19.9-20.1-19.9c-47.5-0.1-95-1.5-142.5-2.2
			c-9.7-0.1-19.2-0.3-28.5-3.9c-22.8-8.9-36.7-36.3-31.3-62.4c5.4-26.1,21.3-38,49.3-37.4c43,0.9,86.1,1.1,129.1,2.3
			c50.2,1.4,50.2,1.8,57.6-47.4c0.2-1.5,0.5-2.9,0.8-4.4c5.2-30.7,5.2-30.5-26.9-33.2c-68.7-5.8-137.4-13.1-206.2-17.1
			c-30.7-1.8-54.8-30.4-50.9-57.9c4.3-30.5,28.4-48.3,62.7-45.1c61.3,5.6,122.6,11.9,184,15.9c21.2,1.4,47.8,14.2,62.2,1.5
			c13.7-12,13.6-39.3,20.7-59.4c4.2-11.9,2.8-17.1-11.1-17.9c-31.1-1.9-62.1-4.9-93.1-7.6c-45.8-4-91.8-6.5-137.3-12.7
			c-27.8-3.7-45.4-31-41.7-56.9c3.9-27,29.2-46.9,57.5-44.6c18.5,1.4,36.9,3.5,55.4,5c65,5.3,130.1,10.5,195.2,15.5
			c7.5,0.6,16.9,4.2,20.8-7c5.3-15.1,15-28.6,17.6-45.8c-87.9-4.1-174.7-3.9-261.3,2.6c-31.9,2.4-63.2,7.6-92.4,22.2
			c-31.4,15.7-47.8,38.9-47.1,75.9c1.1,55.7,4.6,111.2,6.1,166.8c3.2,113,12.9,225,39.6,335c19.5,80.1,64.4,117.4,147.2,123.1
			c8,0.6,19.7-2.8,18.1,12.2c-1.3,12.8,1,28-20,27c-27.9-1.4-49.8,12.4-69.5,30.3c-20.1,18.2-35,40.4-45.6,65.2
			c-14.5,34.1-28.3,68.5-42.1,102.9c-18,44.8-22.1,90.8-7.3,137.1c24,74.8,20,146.7-15.1,217.8c-15.3,31-28.3,63.5-31.8,99
			c-6.7,68.1,27.1,104.4,95.4,102.2c28.8-1,57.7-3.1,86.6,1.8c53.2,9.1,94.7,41.2,137.6,70.1c47.8,32.3,99.2,50.4,157.2,43.6
			c105.3-12.3,195.4-61.6,282.2-118.4c39.6-25.9,51.9-63.7,49.7-109.3c-2.9-60-2.7-120.2-5.5-180.3c-2.7-56.8,17.6-103,60-139.7
			c8.8-7.7,11.7-16,12-27c1.1-36.4,7-72.2,14.1-108c23.9-120.6,75.8-225.6,168.4-308.7c26.8-24.1,53.7-48.1,85.5-73.1
			c-56.9-4-107.3-16.8-156.4-36c-88.6-34.7-153.7-90.3-166.7-190.1c-9.2-70,10.8-133.8,50.7-191.1c9.7-13.9,8.6-24.2-1.8-35.1
			C956.4,843.9,935.1,825.8,907.4,817.1z M2663.6,1913.7c-0.2,3.5-0.6,5.7-0.3,7.9c11.8,90.8-64.4,211.2-189.5,239.5
			c-5.3,1.2-11.5,4.5-15.8-2.6c-9.6-15.7-3.6-30.1,14.1-35.4c79.6-23.8,131.6-75.1,152.1-156.1c14.1-55.9-7.7-90.9-63.7-103.8
			c-63.3-14.5-127.6-18.6-192.4-17.1c-73.1,1.7-112,28.9-137.1,98.1c-13.1,36.2-23.2,73.5-36.6,109.5
			c-12.9,34.7-32.8,64.9-65.1,85.1c-6.6,4.1-15.2,11.3-19.4-1.7c-2.9-8.9-18.1-18.3-2.3-28.3c36.6-23.2,50.5-60.9,63.7-98.9
			c8-23.1,11.7-48,22.2-69.7c12.8-26.5,4.6-46.3-10.8-67c-72.5-97.7-257.2-119.4-349.4-39.9c-37.7,32.5-62,71.2-50.4,125
			c5.5,25.6,1.1,51.9-4.7,77.3c-29.3,128.5-164.2,225.3-296.3,213.4c-50.6-4.6-95.9-19.8-129.8-59.7c-67.1-79.1-32.1-184.1,69-206.4
			c46.8-10.3,91.2,1.5,135.1,16.8c11.5,4,19.9,6.7,13.3,22.8c-6,14.6-10.9,18.4-27,12.4c-37.6-14.1-76.1-25.1-117.3-15.1
			c-60.5,14.6-85.8,67.2-58.8,123.5c17.1,35.5,47,55.4,84.1,63.2c85.6,18.1,160.6-6.3,224-64.2c64.7-59.2,86.7-133.8,64.6-218.6
			c-21.5-82.3-79-127.8-160.4-145.5c-62.2-13.5-124.9-12.8-188-7.9c-103.5,7.9-201.4,34-292.2,85c-39.7,22.3-65.9,56.3-79.5,99.3
			c-26.4,83.6-3.3,154.4,62.2,210.1c79.6,67.7,171,114.5,272.4,140.5c95.8,24.5,194.3,32.5,292,45.7
			c195.6,26.5,391.2,35.3,587.1,3.1c123.3-20.3,243.8-49.7,357.8-102.6c73-33.9,126.5-85.5,160.1-159.3
			C2786.6,2012.6,2751,1935.7,2663.6,1913.7z M2802.8,2013.4c5.4-9.4,9.6-16.2,13.4-23.3c16.2-30.1,29.6-61.4,40.6-93.7
			c70.5-205.7,17.9-402.3-145.7-530.3c-112.7-88.2-241.5-146.5-381.3-173.7c-184.8-35.9-371.2-19.8-556.4,1.5
			c-166.2,19.1-318.5,82.5-468.6,153.6c-119.1,56.4-196.4,147.9-244,267.5c-30.2,75.9-34.5,154.9-23.7,236.7
			c17.1-11.4,31.6-23.1,47.8-31.3c14.2-7.2,20-16.1,21-32.2c6.4-109.7,57.6-197.3,136.2-271.2c73.9-69.5,162.7-113.2,256.7-147.2
			c251.4-91,510.3-119.3,775.5-88.3c79.5,9.3,158.8,21.6,233.9,51.7c146.8,58.9,224.5,201.5,189.7,348.4
			c-13.1,55.5-40.8,103-81.1,143.4c-3.7,3.8-15.9,9.5-7.6,14.3c16.7,9.7,26.4,28.8,46.4,33.1
			C2732.2,1889.1,2785.6,1930.5,2802.8,2013.4z M1253.8,1276.9c23.2-0.9,40.1-1.8,57.1-4.2c100.4-14.2,193.6-53.9,290.2-81.7
			c8.6-2.5,9.7-6.9,8.2-14.7c-5.6-29.2-12.7-57.9-26.4-84.5c-21.8-42.1-53.1-52.9-96.1-33.5c-20.2,9.1-40.1,19.1-60.4,28
			c-61.6,27.1-118.7,20.4-169.6-24.6c-33.9-30-52.5-67.6-40.6-113.2c12.2-46.9,44.3-78.4,90.2-93.7c30.5-10.2,50.7,5,52.9,37.4
			c0.9,12.5-1.1,25.2-0.6,37.8c1.1,26.9,11,37.3,37.5,34.6c56.1-5.6,102.3-30.6,132.4-79.2c18.5-29.9,18.3-61.7-1.2-92.4
			c-28.5-44.8-71.1-64.1-122.1-64.8c-82.2-1.1-156.6,29.2-229.9,61.7c-71.7,31.8-132.7,76.1-174.5,145.5
			c-42.5,70.7-61.3,178.6,30.8,257.2C1097.7,1249.2,1174.3,1274.4,1253.8,1276.9z M2242.4,1100c122.4,8.5,237.1,16.7,351.8,24.3
			c48.9,3.2,97.8,3.9,146.5-4.3c198.5-33.3,232.2-235.5,136.8-354.4c-103.4-128.8-338.7-147.5-460.7-35.2
			c-39.7,36.6-51.7,97.2-28.4,144c27.4,54.9,83.4,85.4,138.4,74.8c22.5-4.3,40.6-14.4,46.8-38.5c6.3-24.5-2.5-43.6-22-58.5
			c-5.9-4.5-12-8.7-18.3-12.5c-9.8-5.9-16.7-13.7-12.4-25.5c4.6-12.6,15.6-14.7,27.6-13c26.1,3.8,50.2,12.8,71.4,28.8
			c40.7,30.8,52.9,78.7,30.8,124.8c-20.1,41.8-52.8,69.8-98.3,80.1c-74.6,17-136.9-9.6-192.2-57.9c-5.7-5-11.5-10.1-19.4-17.1
			C2328.2,1020.8,2294.3,1063.3,2242.4,1100z M1907.4,1137.6c64.7,0.4,128.7-5.1,192.3-17.6c144.5-28.4,218.1-148.7,207.2-256.2
			c-9.4-92.6-44.5-142.8-133.7-169.5c-55-16.5-111.2-25.5-168.7-26.2c-184.1-2.3-317.9,101.3-351.5,272.6
			c-21,106.8,22.7,170.6,130.2,189.2C1824.2,1136.9,1865.8,1137.4,1907.4,1137.6z M2488.3,1813c22.6,3.7,41.6,6.9,60.6,9.9
			c7.1,1.1,12.7,1.3,19.8-4.7c162.1-136.9,120.9-377.5-78-452.1c-46.6-17.5-94.9-28.3-143.9-36.6c-183.9-30.9-367.8-31-551.5,0.4
			c-137.9,23.6-272,60.4-397.3,124.1c-100.4,51-182.9,121.1-229.5,226.8c-15,34-24.7,69.5-25.3,108.9c28.7-8.7,52.2-17.3,68.2-45.4
			c37.8-66.5,90.4-121,150.5-168.1c155.3-121.7,335.2-173.4,529.1-184.2c119-6.6,237.3,1.6,355.1,18.4c64.7,9.2,128.7,20.6,187.8,51
			c126.6,65.3,160.8,191.6,83.2,310.4C2508.4,1785.1,2498.8,1798.1,2488.3,1813z M2394.7,1808.6c43.1,16.8,65.5-18.4,88.1-52.3
			c7.8-11.7,14.9-23.9,21.1-36.5c31.8-64.4,21.8-128.5-27.3-180.5c-34.8-36.9-78.5-58.2-126.3-71c-79.1-21-160.4-28.4-241.6-36.4
			c-12.2-1.2-17,1.6-16.7,15.1c2.5,102.3-21.7,198.4-70,288.3c-6.8,12.6-2.3,14.9,8.9,16.4c78.5,10.5,144.7,42.1,189.3,110.6
			c4.2,6.4,7.6,8.2,13.3,1.5C2274.2,1816.1,2329.6,1809.3,2394.7,1808.6z M1248.6,1753.8c9.3-1.2,13.8-1.3,18-2.3
			c76.9-18.9,155.4-23.3,234-20.7c69.7,2.3,137.3,15,194.3,59.9c8.2,6.5,13.8,4.9,21-1.3c20.2-17.6,38.9-36.6,55.1-57.9
			c64-83.9,87.5-178.3,73.2-282.6c-1.3-9.3-1.8-16.5-15.6-15c-152.1,17.1-293.8,62.5-419,152.8
			C1347.2,1631.8,1293.1,1684.9,1248.6,1753.8z M440.4,1337.9c1.2,46.5,3.2,105.8,11.4,164.7c2,14,6.3,22.7,21.2,22.5
			c18.7-0.2,11-14.7,10.7-23.1c-7.2-176,8.7-349.6,53.6-520.2C556.2,910,580.1,840,607.5,771c2.2-5.5,11-12.7,0.2-19
			c-13.7-8-37.8-0.6-44.3,13.4C480.9,942.8,440.2,1129.5,440.4,1337.9z M1758.7,1866.1c25.4-43.3,57.9-73.7,100.5-92.9
			c8.1-3.6,12.3-9.9,16.1-17.4c43.2-85.9,69.8-176.6,78.3-272.3c5.3-59.6,4.6-59.1-55.2-55.7c-16.2,0.9-18.9,5.9-16.6,21.5
			c8,54.9,4.2,109.4-10.5,163c-22,80.2-64.8,147.4-127.6,201.6c-9.4,8.1-14,13.4-3.8,24.2
			C1746.8,1845.3,1751.3,1854.9,1758.7,1866.1z M1919.6,1750.5c38.5,5.8,60.1-8.4,76.1-42.3c35.3-74.8,57.1-152.3,59.8-234.7
			c1.8-55.4,3.4-43.5-43.7-46.4c-15.1-0.9-18.1,4.9-18.6,18.7c-1.1,33.3-4.7,66.4-10.3,99.3
			C1970.9,1616.2,1949.6,1684.3,1919.6,1750.5z M251.2,817.6c0-0.2,0-0.4,0-0.6c-2.2,0-4.4,0.1-6.7,0c-10.4-0.7-23.3-3.2-25.2,10.8
			c-2.1,15.1,10.7,16.9,22.3,17.9c19.2,1.5,38.3,3.2,57.5,4.8c56.8,4.7,113.6,8.9,170.3,14.2c16.3,1.5,15.8-11.1,18.2-19.8
			c2.8-10.4-7-9-13.1-9.5C400.1,829.4,325.7,823.5,251.2,817.6z M696.1,1058.1c51.8,3.9,90.2,6.5,106.8,8.1
			c3.9,0.4,14.9,1.2,20.1-4.8c1.8-2.1,2.9-5,2.9-9.2c0.1-13.2-11.3-15.7-22.5-15.9c-28.2-0.6-56.4-1.1-84.6-1.8
			c-44.5-1.1-89.1-1.9-133.5-3.9c-14.6-0.7-15.1,8.5-17,17.9c-2.8,14.2,8.9,9.3,14.3,9.4C620.5,1058.4,658.3,1058.1,696.1,1058.1z
			 M399.2,1044.3c1.3,0,5.2-0.8,8.7,0.1c15.6,4.3,20.1-5.9,21.7-17.4c2.5-17.2-12.4-9.1-18.4-9.7c-72.9-7.1-146-13.1-219-19.6
			c-10.1-0.9-18.3,0.5-19.6,12.1c-1.2,11.1,5.7,15.8,16.1,16.6C258,1032.2,327.4,1038.2,399.2,1044.3z M653.8,1235.8
			c32.6,0,65.1,0,97.7,0c10,0,23.4,3.9,24.3-11.3c1.1-17.1-13.2-16.5-25.2-16.8c-45.9-1-91.7-2-137.6-3.1c-20-0.5-40-0.7-59.9-1.9
			c-16.2-1-15.5,10.6-16.5,20.5c-0.4,4.2,0.3,6.6,1.8,7.8c3.8,3.3,11.6,0.6,13.4,0C560.4,1228.2,585.4,1227.6,653.8,1235.8z
			 M669.9,840.1c0-0.2,0-0.3,0-0.5c-10.4,0-20.8,0-31.1,0c-8.4,0-9,7.5-9.9,12.6c-1.2,7,5.7,4.6,9.3,4.9
			c82.1,5.9,164.2,11.7,246.3,17.3c4.6,0.3,11.4,2.7,13.3-4.1c1.5-5.6-4.2-8.9-7.2-12.9c-3.7-4.9-9-4.3-14.1-4.6
			C807.6,848.5,738.8,844.3,669.9,840.1z M309.4,1200.2c-23.6,0-47.3,0-70.9,0c-8.6,0-19.1-2.6-19.8,10.8
			c-0.6,11.5,5.6,17.8,17.4,18c51,0.8,102,1.4,152.9,2.6c14,0.3,9.4-10.2,11.4-16.8c1.2-3.8,0.9-6.3-0.2-7.8
			c-2.5-3.4-9.1-2.7-11-2.6C379.5,1205.4,354.1,1204.1,309.4,1200.2z M617.2,1387.3c23.6,0,47.3,0,70.9,0c8.8,0,18.8,1.8,18.4-12.3
			c-0.3-11.2-6.2-15.4-16.9-15.9c-48.8-2.3-97.5-4.6-146.3-7.6c-12-0.7-14.8,3.9-15.8,14.8c-0.5,5.1,0.4,8.4,2.2,10.4
			c3.5,3.9,9.9,3.6,12,3.5C552.8,1379.8,578.8,1382.4,617.2,1387.3z M2614.8,878.5c-4.7,66-27.3,98.1-77.8,106
			c-65.3,10.2-121.6-8.1-163.3-62.5c-12.5-16.4-20.8-35-29.9-53.5c2.8,15.9-3.9,33.7,7.8,47.3c30.9,35.7,66.3,65.6,112.5,80.1
			c62.4,19.6,120.5,0.3,149.4-50C2625.2,925.7,2628.2,904.7,2614.8,878.5z M326.9,1365c20,0,40,0,60,0c8.2,0,16.5,1.3,16.1-11.7
			c-0.3-11.7-7.7-10.4-15.1-10.5c-42.2-1-84.4-2.2-126.7-2.9c-7.4-0.1-17.7-3.4-17.7,10.1c0,4,1,6.8,2.7,8.8
			c3.9,4.5,10.9,4.5,14,4.5C272.1,1363.2,295.5,1364,326.9,1365z"/>
		<path class="st0" d="M565.7,2020c-61.1,0.1-108.8-47.5-108.8-108.6c0-60.5,48.6-109.5,108.8-109.6
			c59.1-0.1,109.8,50.5,109.7,109.6C675.2,1971.6,626.5,2019.8,565.7,2020z M637.4,1910.9c-0.3-40.2-32-70.9-73-70.6
			c-39.3,0.3-70.7,31.5-71,70.7c-0.3,39.4,32.7,72.5,72.2,72.4C605.8,1983.3,637.7,1951,637.4,1910.9z"/>
		<path class="st0" d="M211.4,1875.9c1.3-19.8,19.5-35.7,39-34c19.7,1.7,34.8,19.6,33.4,39.6c-1.4,20-19.2,35.4-39,33.7
			C224.6,1913.5,210,1896.2,211.4,1875.9z"/>
		<path class="st0" d="M754.6,2260.1c-19.2,0.3-37-17.4-37.1-36.9c-0.1-19.3,17.5-37.1,36.6-37.2c19.7,0,37,17.1,37.1,36.7
			C791.3,2242.3,774.1,2259.9,754.6,2260.1z"/>
		<path class="st0" d="M376.2,2264.6c-19.2,0.4-37.1-17.2-37.4-36.7c-0.2-19.2,17.4-37.2,36.4-37.4c19.7-0.2,37.1,16.8,37.3,36.5
			C412.8,2246.5,395.7,2264.2,376.2,2264.6z"/>
		<path class="st0" d="M253.5,1775.1c-20.6-0.2-36.6-16.3-36.2-36.3c0.4-20,17.1-35.6,37.6-35.3c20.5,0.3,36.6,16.6,36.2,36.7
			C290.6,1760.4,274.5,1775.3,253.5,1775.1z"/>
		<path class="st0" d="M870.3,1756.8c20.7,0.5,36.4,16.8,35.5,36.9c-0.9,20.1-17.6,35.3-38.2,34.7c-20.1-0.6-36.3-17.6-35.5-37.4
			C832.9,1770.9,849.3,1756.2,870.3,1756.8z"/>
		<path class="st0" d="M798.5,2156c-19.9-0.2-36.6-17.3-36.4-37.2c0.3-19.9,17.4-36.7,37.2-36.4c19.7,0.3,36.7,17.7,36.5,37.2
			C835.6,2139.3,818.3,2156.2,798.5,2156z"/>
		<path class="st0" d="M244.6,2193c-19.8,0.3-36.6-16.3-36.9-36.3c-0.3-20.2,15.9-37.1,35.8-37.4c19.5-0.3,36.7,16.6,36.9,36.4
			C280.7,2175.7,264.4,2192.7,244.6,2193z"/>
		<path class="st0" d="M842.7,1609.8c21.2-0.3,37.3,14.4,37.6,34.5c0.3,19.7-16.3,36.7-36.3,37c-20.4,0.4-37-15.3-37.4-35.6
			C806.2,1625.3,821.4,1610.1,842.7,1609.8z"/>
		<path class="st0" d="M245.3,1988.8c19.8,0.7,35.7,18,35.1,38.1c-0.6,19.7-18.2,36.2-37.6,35.5c-20.2-0.8-35.8-17.6-35.1-37.9
			C208.3,2004.6,225.7,1988.2,245.3,1988.8z"/>
		<path class="st0" d="M583.3,2263.7c0.2,20.8-15.1,36.6-35.8,36.9c-20.2,0.3-36.7-15.7-36.9-35.9c-0.3-20.6,15.2-36.4,35.9-36.7
			C567.3,2227.6,583.1,2243,583.3,2263.7z"/>
		<path class="st0" d="M296.7,1645.7c-20.5,0.1-36.3-15.6-36.4-36.2c-0.1-20.8,15.2-36.3,36-36.4c20.8-0.1,36.4,15.2,36.5,36
			C333,1629.4,317,1645.6,296.7,1645.7z"/>
		<path class="st0" d="M872.9,1941.5c-0.7,20.8-16.7,35.4-37.8,34.7c-20.5-0.8-35.7-17.2-34.9-37.8c0.8-20.3,17.3-35.2,38-34.5
			C859.3,1904.8,873.6,1920.4,872.9,1941.5z"/>
		<path class="st0" d="M1924,1053.1c-30.8,1.7-60.8-2.8-89.5-13.7c-71.5-27.1-104.8-112.8-66.5-168.6c26.5-38.6,62.6-64.4,105-81.8
			c39.4-16.2,79.6-27.3,123.1-16.7c63.2,15.4,112.7,73.5,114.8,136.7c2.1,60.3-38.1,113.3-101.4,133.1c-19.8,6.2-40.3,9.8-61.1,10.9
			C1940.3,1053.5,1932.1,1053.1,1924,1053.1z M1921.4,914.5c0.6,0,1.1,0,1.7,0c0,28.9,0.5,57.8-0.2,86.7
			c-0.3,12.8,4.1,17.1,16.7,15.8c26.6-2.8,53.1-5.7,77.5-17.9c56-27.8,73.6-89.7,40.1-140.4c-27.2-41.2-73.1-59.9-121.4-51
			c-13,2.4-14.6,9.2-14.5,20.1C1921.7,856.7,1921.4,885.6,1921.4,914.5z M1886.5,823.9c-27.4,11.7-47.4,23.7-64.4,40.2
			c-23.4,22.5-40.9,47.5-29.3,82.3c13,39.3,42.8,58.5,81.7,66.1c8.4,1.7,12.2-1,12.2-10.1C1886.4,944.3,1886.5,886.1,1886.5,823.9z"
			/>
	</g>
</g>
</svg>
