<?xml version="1.0" encoding="utf-8"?>
<!-- Generator: Adobe Illustrator 23.0.0, SVG Export Plug-In . SVG Version: 6.00 Build 0)  -->
<svg version="1.0" xmlns="http://www.w3.org/2000/svg" xmlns:xlink="http://www.w3.org/1999/xlink" x="0px" y="0px"
	 viewBox="0 0 3000 3000" style="enable-background:new 0 0 3000 3000;" xml:space="preserve">
<style type="text/css">
	.st0{stroke:#000000;stroke-width:10;stroke-miterlimit:10;}
</style>
<g id="Layer_1">
</g>
<g id="Layer_2">
	<g>
		<path class="st0" d="M450.7,1572.7c15.2-222.1,22.7-444.3,38.4-666c7.5-105.5,25.4-209.5,55.6-311
			C594.6,427.9,704.1,308.5,850.4,219C1219.2-6.5,1777.3,9.3,2134,252.8c191,130.4,293.6,313.1,330,537.5
			c48.4,297.5,40.6,598.2,51.1,897.9c6.5,184.5,6.9,369.2-18.1,552.7c-25.5,187-86.3,358.4-227.5,492.2
			c-122,115.7-270.2,179.8-433.4,204.4c-248.3,37.4-498.4,47.3-746.9,2.3c-197.3-35.7-368.5-121.8-490.3-288.2
			c-77.6-105.9-112.8-228.2-129.8-356.2c-19.5-146.9-22.3-294.6-18.8-442.6C452.5,1759.4,450.7,1666,450.7,1572.7z M1134.2,158.6
			c-86.3,23.4-166.1,55.9-240.8,100c-131.9,77.8-237.4,179-287.2,328.9c-24.6,74-41.7,149.9-50.3,227.2
			c-29.8,266.5-33,534.6-43.4,802.2c-0.8,21.9,5.4,23.2,24.5,17.3c98.9-30.5,199.9-43.1,302.9-28
			c239.6,35.1,421.6,152.1,512.5,382.8c65.4,165.9,46.2,333.8-15.3,498.2c-5.8,15.5-13.7,30.2-11.9,47.9
			c11.8,117.4-0.2,232.9-27.3,347.2c-4.1,17.2-3,26,18.6,26.9c110.1,4.2,220-1.2,330-5.3c22.2-0.8,24.1-8.3,18.6-28.7
			c-50.8-189.3-58.8-381.4-35.1-575.3c20-163.4,81.1-306.7,208.5-415.9c168-144,368.8-208.9,583.9-237.3c25.2-3.3,37-8.3,35.7-37.5
			c-4.5-103.3-5.3-206.7-9-310c-5.9-163.2-13.6-326-37.6-488.2C2366,502.7,2188.6,306.6,1905.3,196c-4-1.6-8.2-3.8-12.4,2.3
			c29.6,93.8,35.8,190.3,24.3,288.9c-14.9,127.4-75.1,221.6-194.4,273.3c-113.5,49.2-234.3,64-355.6,54.6
			c-130.4-10.1-199.6-76.9-224.8-207.4c-20.9-108-33.7-217.4-21.2-328C1125.6,240.3,1129.7,200.8,1134.2,158.6z M1274,2600.4
			c-5.4-64-5.1-135.3-17.7-205.6c-26.9-149.1-86.2-280.8-211.4-373.1c-150.9-111.2-325.3-140.5-507.9-138.3
			c-24.9,0.3-32.2,8.3-32.2,32.5c-0.4,139.1,2.6,278,26.3,415.3c23.4,136.1,72.8,260.7,174.3,359.5
			c142.8,138.9,320.2,193.3,512.8,211.3c19.8,1.9,21.2-11.3,24.3-24.1C1263.8,2789,1274.3,2698.8,1274,2600.4z M1482.5,115.3
			c-101.8,0-182.4,7.3-262.3,22.5c-16.1,3-26,8.2-29,25.7c-26.6,154.1-24,307.5,12,459.7c18.6,78.5,74.2,127.9,154.2,135.1
			c110.8,10.1,219.8-3.4,324.6-40.7c90.9-32.4,152.5-95.5,171.9-191.9c22.5-111.9,17.8-222.9-20.7-331.7
			c-7.2-20.3-18-30.2-38.4-35.5C1685.6,130.3,1574.9,114.5,1482.5,115.3z M2462.9,2007.5c0-33.3-0.8-66.7,0.3-99.9
			c0.6-18.3-6-23.4-23.5-20.5c-96.7,15.9-191,39.6-279.4,83.2c-131.1,64.6-228.2,160.6-259.4,307c-40.1,188.1-18.7,373.1,44.3,554
			c7.9,22.7,20.7,16.7,36.2,11.2c203.8-73,345.3-208.2,415.8-414.8C2443.7,2291.3,2454,2149.8,2462.9,2007.5z M2459.5,1762.6
			c0-15.5-0.4-31.1,0.1-46.6c0.5-16-1.7-21.2-22-18.3c-141.6,20.5-277.7,58.1-405.7,122.5c-170.3,85.8-290.2,213.1-332.5,404.7
			c-20,90.7-24.2,182.6-25.6,274.8c-1.9,125.1,14.7,247.9,46.5,368.9c5.8,22.2,15.6,28.9,36.7,25.1c39.3-7.2,78.6-14.3,118.1-20.2
			c22-3.3,22.7-12.7,15.8-31.6c-56.8-154.8-72.8-315.2-60.5-478.7c12.3-164.7,83.3-297.1,220.3-392.4
			c105.3-73.2,223.6-111.8,348.7-132.6C2462.9,1827.8,2462.9,1827.8,2459.5,1762.6z M1314.3,2374.9c4.6-22.2,8.7-40.6,12.3-59.1
			c51.5-266-83.1-514-334.1-613.8c-138-54.9-278.9-59.1-421.5-20.4c-61.3,16.6-61.2,17.1-62,81.9c-0.2,12.2,0.7,24.6-0.7,36.7
			c-2.7,21.7,5,28.4,27.4,27.7c99.3-3.1,197.6,6.8,293.8,32.4c249.2,66.3,410.9,219.8,471.1,474.2
			C1303.5,2347.2,1303.1,2361.1,1314.3,2374.9z"/>
	</g>
</g>
</svg>
