<?xml version="1.0" encoding="utf-8"?>
<!-- Generator: Adobe Illustrator 23.0.0, SVG Export Plug-In . SVG Version: 6.00 Build 0)  -->
<svg version="1.0" xmlns="http://www.w3.org/2000/svg" xmlns:xlink="http://www.w3.org/1999/xlink" x="0px" y="0px"
	 viewBox="0 0 3000 3000" style="enable-background:new 0 0 3000 3000;" xml:space="preserve">
<style type="text/css">
	.st0{stroke:#000000;stroke-width:10;stroke-miterlimit:10;}
</style>
<g id="Layer_1">
</g>
<g id="Layer_2">
	<g>
		<path class="st0" d="M2785.3,1265.4c-6,217.9-2.3,436.6-28.7,653.1c-26.4,216.9-58.2,433.8-129.1,642.2
			c-19.5,57.2-45.7,111.3-78.7,162.1c-84.5,130.1-200.6,199-359,205.5c-329.6,13.5-659.4,17.7-989.1,23.5
			c-77.9,1.4-155.6-2-233.3-6.5c-149.6-8.7-260.1-89.8-355.9-195.5c-113.6-125.3-175-278-227.9-436.1
			c-38.8-115.7-40.2-234.9-44.8-353.6c-8.3-214.6-14.5-429.3-13.9-644.1c0.8-274,12-547.5,39.2-820.3c12.3-123.3,82-210,176.5-280
			C653,132.4,781.3,88.5,919.5,73.1c78.3-8.7,156.6-18.2,235.1-22.8c146.6-8.6,285.8,16.4,409.4,102.1
			c39.2,27.2,72.6,60.3,98.3,100.4c12.3,19.1,19.4,18.6,34.9,2.2c96.2-102.1,211.6-168.5,352.9-185.5c72.9-8.8,144.4,0,214.8,18.4
			c109.1,28.5,208.6,77.5,301.2,141.8c133.7,92.9,200,221.5,212,382.1C2794.4,829.5,2792.3,1047.4,2785.3,1265.4z M1123.9,526.6
			c-141.2,107.3-158,347.7-30.5,468.7c135.9,129,357.4,196.5,557.6,62.5c114.6-76.7,184.1-179.2,187.7-320.6
			c1.4-55.8,2.5-111.7,5-167.5c4.1-92.5,49.5-159.7,134.9-192.6c136.7-52.6,270.3-38.7,397.5,34.3c5.9,3.4,14.3,5.5,11.3,16.8
			c-6.7,25.5-28.2,36.1-50.7,23.7c-93.4-51.4-192.3-63.2-295.4-38.7c-97.1,23.1-142.9,80.9-144.6,179.9c-0.5,31.8,0.7,63.6-0.3,95.4
			c-2.5,80.2-6.9,160.6-47.1,232.8c-164,294.4-546.2,365.2-804.7,100.4C876.6,849.4,940.5,552,1160.2,429.3
			c32.8-18.3,34-17.3,47.6,17.3c4.7,12,3.9,18.5-8.2,22.5c-12.7,4.3-13.7,15.5-16.2,26c-5.3,22.7-4.3,45.8-3.3,68.8
			c4.9,119.2,87.5,222.2,195.3,235.9c100.6,12.8,179.3-35.6,241.3-108.6c111.6-131.4,79.5-364.1-62.5-477.7
			c-85-68-183.8-100.2-290.9-107.8c-121.1-8.6-240.3,11.8-360,25.4c-117.8,13.4-224.6,54.8-321,122.2
			c-90.2,63.1-154.7,142.9-165.4,259.3c-29.1,315.7-38.8,632-35.9,948.9c0.3,30.5,7.1,36.2,36.7,29.4
			c107.1-24.5,215.1-39.8,325.7-24.6c156.5,21.6,253.5,120.4,267.1,277.1c5,57.8,8.2,115.8,11.2,173.8
			c7.8,150.4,85,251.7,220.6,310.6c75.1,32.6,154.8,46.7,236.4,50.8c121.6,6.1,243.3,10.3,364-9.6c136.1-22.4,217.5-110.1,228-234.1
			c6.5-76.7-0.1-153.4,3.6-229.9c3.5-73.2,17.2-142.9,63.3-203.6c54.7-72.1,130.1-108.2,214.9-127.6c110.3-25.1,222-23.8,333.3-8.5
			c32.3,4.4,40.5-3.1,40.9-35c2.1-161.1,9.9-322.2,8.8-483.2c-0.9-122.5,1.2-245.6-16.9-367.5c-11.5-77.7-30.9-152.3-84.9-213.2
			c-105.2-118.6-239.3-188.5-390.4-227.2c-205.1-52.5-374.7,10.4-515.7,163.5c-17.8,19.3-20.7,35.2-11.7,60.4
			c56.2,158,13.5,315.4-110.3,415.4c-181.6,146.7-410.6,76.6-469.3-143.6C1127.1,601.1,1125.8,566.3,1123.9,526.6z M1442.2,2331.3
			c-77.5-6.6-147-21.9-212.9-49.4c-138.8-57.9-232.5-155.9-256.1-308.3c-11-71.2-12.7-143.9-16.7-216.1
			c-7-126.6-73.6-206.4-196.8-232c-122.6-25.5-241.7-1.1-360.7,25.4c-20.4,4.5-15,18.6-14.8,30.3c1.9,105.2,2.7,210.4,7,315.5
			c6.5,156.1,6.8,312.5,64.9,462.6c48.9,126.5,102.3,249.4,193.8,351.2c74.9,83.3,159,155.5,274.9,173.4
			c122.9,19.1,247.1,11.1,370.8,11.2c21.8,0,13.5-13.7,11.6-24.8c-18.9-109.7-14.7-218.1,19.5-324.6
			C1351.3,2469,1390.6,2400,1442.2,2331.3z M1853,2324.5c14.8,34.1,30.8,66.5,43.1,100.2c50.7,138.6,63.4,280.8,35.3,426
			c-4.3,22.1-3.5,33.4,25.5,31.5c69.9-4.7,140-6.9,210.1-7.6c131.7-1.3,241.7-44.6,319.2-156.3c27-38.9,50-79.7,68.6-123.1
			c38.1-89,60.2-182.4,80.9-276.6c55.6-253.3,83.9-509.4,88.2-768.5c0.3-15.8-0.1-27.4-20.4-29.4c-112.5-11-225.1-18.8-336.8,6.2
			c-127,28.5-226.1,98.2-236.9,261.6c-5.1,76.7,2.4,153.3-2.6,229.9c-7,108.2-47.8,196.6-142,256.2
			C1944.7,2300.2,1899.5,2312.3,1853,2324.5z M1615,2894.2c120-5.6,205.6-9.1,226.5-8c3.4,0.2,14.5,1,23-5.9
			c5.1-4.1,8.3-10.6,10.3-20.3c35.7-177.1,13-345.7-70.5-506.2c-8.3-15.9-18.2-20.4-36.1-20c-75.4,2-150.8,3.1-226.2,1.7
			c-23.7-0.4-38.5,7.3-52.4,24.9c-118.9,150.4-161.9,319.3-126.8,508.2c3.9,20.9,12.2,26.2,32.2,25.9
			C1468.3,2893.6,1541.6,2894.2,1615,2894.2z"/>
	</g>
</g>
</svg>
