<?xml version="1.0" encoding="utf-8"?>
<!-- Generator: Adobe Illustrator 23.0.0, SVG Export Plug-In . SVG Version: 6.00 Build 0)  -->
<svg version="1.0" xmlns="http://www.w3.org/2000/svg" xmlns:xlink="http://www.w3.org/1999/xlink" x="0px" y="0px"
	 viewBox="0 0 3000 3000" style="enable-background:new 0 0 3000 3000;" xml:space="preserve">
<style type="text/css">
	.st0{stroke:#000000;stroke-width:10;stroke-miterlimit:10;}
</style>
<g id="Layer_1">
</g>
<g id="Layer_2">
	<g>
		<path class="st0" d="M1263.3,2982.7c-119.5,0.9-268.9,9.3-416.7-18c-73.2-13.5-145.7-29.7-207.8-74.9
			c-36.9-26.8-57.5-64.4-74.4-105c-28.4-68.3-43.1-140.3-56.3-212.6c-13.5-73.8-47.7-124.9-128.3-138.8
			c-63.6-11-84.7-39.9-90.1-104.3c-4.5-53.6-7.4-107.5-14.6-160.8c-7-51.8,13.7-90.5,48.9-124.5c8.9-8.6,18.4-16.7,27.5-25.1
			c12.4-11.4,15.6-22.2,2.1-36.4c-193.6-203.7-90.2-530.7,54.2-670.4c6-5.8,11.2-12.6,17.9-17.2c18.4-12.8,17.9-22.2,2.9-40.6
			c-47.7-58.8-55.7-131.1-54.4-202.7c5.3-291.1,117-532.1,345.4-716c189-152.2,403.3-246.3,644.3-277.4
			c121.4-15.7,243.7-16.2,365.9-17.5c108.1-1.2,215.3,5.4,319,38.7c195.7,62.9,343.8,186.8,452.3,359.1
			c44.7,70.9,64.5,149.6,60.8,233.9c-3.4,75.8,7.2,150.9,13.2,226.2c5.7,71.9-12.8,135.4-60,189.7c-9.6,11-9.9,20.4-7.6,33.6
			c59.3,332.4,87.7,667.3,76.6,1005c-3.9,118.1-7.4,239-57.3,347.4c-107.5,233.8-278.5,401.3-537.5,455.9
			c-134.5,28.4-273,34.1-410.6,40.8C1483.3,2975.5,1388.1,2978.1,1263.3,2982.7z M2174.1,2800.8c9.4-3.8,13.3-4.6,16.4-6.7
			c108.9-72.1,195.4-165.7,260.9-278.2c54.7-93.9,68.5-199.4,75.5-304.8c23.4-356.4-7.3-709.8-67-1061.1
			c-2.1-12.2-4.3-18.9-19.4-14.3c-39.6,12.2-79.8,8.1-120.1,2.6c-85.1-11.4-169.9-25.1-255.9-30.4c-122.1-7.4-237.4,9.4-341,79.8
			c-17.1,11.6-23.8,23.6-24.5,45.1c-5,155-76.3,270.9-218.5,333.2c-140.6,61.6-273.1,37.6-391.3-61.5c-7.4-6.2-12.1-17.2-26.3-16.9
			c-6,29.2-12.3,58.3-18.1,87.5c-21.2,107.6-30.4,215.3-1.8,323.2c25.3,95.1,90,151.7,187.5,165.7c43.4,6.3,86.9,7.1,130.2,3.1
			c141.3-13.2,281.1-37,420.3-63.7c100.5-19.3,198-51.7,299.2-67.9c89.1-14.3,159.1,16.3,196.7,95.4
			c56.4,118.6,52.2,237.1-21.2,348.6c-45.1,68.5-116.3,103.9-187.5,138.4c-22.3,10.8-44.1,22.8-65.4,35.4c-18.4,10.8-17.6,24-0.8,36
			c9.2,6.6,18.9,12.8,29.1,17.5c75.9,35.6,145.4,17.7,210.5-27.6c121.4-84.4,168.4-206.3,166.2-348.3
			c-1.8-113.8-10.4-227.6-18.5-341.3c-4.9-69.1-3.1-139.4-20-206.8c-29.8-118.9-167.3-229.9-289.4-241.9
			c-83.6-8.2-147.7,20.4-194.7,89.5c-20.9,30.8-42.4,61.3-64.5,91.3c-64.7,87.8-147.7,152.8-246,199.4c-18.8,8.9-24.9,2.4-31.8-14
			c-6.8-16-11.4-25.8,10.5-34.5c34.6-13.7,66.1-34,96.9-55.3c76.7-52.9,131.8-125.2,181.7-202c71.4-109.8,169.4-147.1,296.9-118.4
			c142.7,32.2,283.2,171.6,297.5,312.2c18.5,181.3,36.2,363.4,31.8,545.6c-4.6,188.2-86.4,334.2-269.2,409.4
			c-7.9,3.3-15.3,4.9-15.2,16C2174.3,2719.3,2174.1,2758.2,2174.1,2800.8z M1650.2,94.2c-21.8,0-43.5-0.2-65.3,0
			c-233.3,2.7-455.8,46.9-661.4,164.1C675,400,498.8,595.7,442.5,884.2c-18,92-27.2,184.8-2.6,277c20.2,76,46.1,92.8,124.5,87.9
			c42.4-2.7,42.4-2.6,36.7-46.3c-1.5-11.3-3-22.6-3.8-34C578.7,893,670.4,667.6,905.8,512.7c161.6-106.3,342.5-134.4,532.6-112.8
			c117.5,13.4,227.7,47.8,318.1,126.7c151.6,132.2,201.2,305.7,190.8,500.2c-1.5,27.3,5.9,30.2,28.8,29.4
			c45.5-1.4,91.1-0.1,136.6,3.1c81.7,5.7,162,21.9,243.2,31.3c77.5,9,124.4-19.3,153.9-90.9c12.2-29.7,15.1-59.9,13.1-91.2
			c-5.6-84.7-15.5-169.2-12.9-254.3c1.9-61.8-12.3-119.8-43.8-172.3c-105.6-176.1-252.5-301-452.1-359.1
			C1894.9,88.2,1772.5,90.9,1650.2,94.2z M1286.8,2929.7c207.2-7.6,387.4-11.8,566.5-33.3c84.1-10.1,168.9-16.3,247.7-52.7
			c18.2-8.4,24.6-17.8,23.6-37c-1.7-32-2.3-64.2-1.4-96.3c0.6-21.9-3.5-32.6-29.8-33.7c-42.9-1.8-83.2-16.7-118.3-42.1
			c-52.4-37.9-51.5-90.8,2.2-126.4c19.8-13.1,41.2-23.8,62.5-34.4c32.3-16.2,64.6-32.4,95.7-51.1c140-83.9,147.8-255.8,100.8-358.5
			c-29-63.4-74.1-87.9-142.6-78c-87.2,12.7-171.2,39.2-256.7,59.2c-24.4,5.7-44.2,21.1-61.3,40.4c-49.1,55.6-82.1,121.7-121.6,183.5
			c-42.6,66.7-87.8,131-156.7,173.7c-13,8.1-14.5,19.8-13.1,32.2c2.3,20.6-7.2,30.3-26.2,34.8c-79.6,19-159.3,39.1-241,44
			c-210.7,12.6-421.6,22.3-632.4,32.5c-16.3,0.8-21.1,3-17.5,20.9c12.4,62.1,29.9,122.4,55.3,180.5c14.4,32.9,37.8,56.1,68,73.9
			c52.8,31.1,111.8,43.1,170.9,52.9C1011.5,2939.6,1162.7,2935.2,1286.8,2929.7z M645.4,1107.1c1.7,32.3,4.1,72.6,11.3,112.4
			c3,16.8,9,21.9,26.7,19.9c75-8.7,150.3-15.4,225.4-23.4c55.8-5.9,55.7-6.3,67.9-60.7c2-9.1,4.4-18.1,7-27
			c45.2-153,184-257.9,344.5-260.5c161-2.6,304.1,98.8,353.2,252.5c7.5,23.3,12.8,26.7,33.7,12.6c46.7-31.5,98.9-52,153.8-64.2
			c18.9-4.2,24.4-12.5,26.3-30.8c5.8-58.2,3.6-116-7.8-173c-32.8-162.9-110.4-293.6-268.7-363.7c-142.3-63.1-290.9-68.1-441.3-41.7
			C860.8,515.1,642.6,778.8,645.4,1107.1z M1677.4,2076c-34.4,5.3-68,10.3-101.5,15.7c-105.3,16.9-210.6,33.6-318,27.6
			c-133.6-7.4-227.8-78.2-262.6-199.4c-13.5-46.9-20.3-95-21.6-144c-3-108.7,18-214.1,43.9-318.8c14-56.9-16.6-91.4-73.8-82.3
			c-164.7,26.1-283.7,114.4-355.3,264.5c-12.5,26.2-24.7,13.7-40.6,9.2c-22.5-6.3-13.2-18.7-7.6-30.6
			c31.9-67.3,74.2-126.8,131.4-175.1c81.3-68.6,174-111.4,280.7-120.1c25.1-2,24.4-14.1,21.3-32.5c-2.9-17.1-3-30.9-28.8-27.2
			c-62.4,9-125.3,15.3-188.1,21c-79.3,7.2-158.4,18.9-238.2,18.8c-18.2,0-31.3,4.8-44.3,16.7c-130.4,119.6-185.9,268.2-171.1,443.4
			c5.1,60,29.2,112.3,73.2,159.4c1.4-19.3,0.9-34.6,3.7-49.3c26.1-135.3,166.5-213.9,297.8-167c73.4,26.2,125.2,91.9,127.2,168.1
			c1.7,63.1-28.8,142.7-110,175.9c-81.1,33.1-167.6,40.6-248.5,10.4c-41.9-15.7-61.6-8.1-86.2,19.8c-15.8,18-35.2,34.3-34,60.4
			c3,68.3,8.7,136.4,17.7,204.1c1.6,11.9,6.8,21.3,17.1,28.1c53.3,35.1,111.6,18,137.5-40.5c-44.9,14.5-74.1,8.7-94.4-18.9
			c-21.3-28.9-17.5-72.2,8.5-106.9c28.6-38.2,68.1-45.5,110.9-36.6c18.7,3.9,33.2,0.8,50.2-5.6c72.9-27.6,140.1-14.6,194.8,39.8
			c21.3,21.2,30.9,17.1,50.8,1.9c68.7-52.3,167.7-54,233.3,2.6c31.4,27.1,47.7,21.9,78.2,1.9c115.8-76,261.6-60.3,362.7,36.4
			c16.5,15.8,22.8,15.4,35.2-3.7c35.9-54.9,79.6-103.2,129.9-145.5C1665.6,2092.2,1675.2,2088.3,1677.4,2076z M1646.9,1234
			c0.8-172.5-137.8-313.6-309.4-314.9c-175.2-1.3-317.5,139.4-317.4,313.8c0.1,171.6,140.2,312.7,311.6,313.7
			C1505,1547.6,1646.1,1407.7,1646.9,1234z M1434.1,2432.1c-0.7-99-61.3-160.8-149.9-155.1c-59.3,3.8-109.7,28.2-151.4,70.2
			c-25.1,25.3-42.2,53.2-30.4,91.7c3.8,12.5,4.1,27.1,1.9,40.1c-5.2,30.6,9.9,33.7,34.8,31.5c88.7-8,176.6-20.8,263.6-40.4
			C1428,2464.3,1439.5,2454.8,1434.1,2432.1z M640.1,2535.8c28.3,0.9,62.2-2.7,96.3-5.9c11.8-1.1,19.8-2.8,19-17.4
			c-2.4-43.3,2.5-87-5.5-130.1c-12.6-68.4-55.2-100.1-123.5-91.8c-6.2,0.8-12.3,2.2-18.5,2.2c-16.5-0.1-26.3,7.4-32.8,22.8
			c-10.8,25.9-26.9,48.8-46.2,69.2c-12,12.7-33.9,25.1-33.9,37.7c-0.1,14.8,18.8,29.7,29.2,44.7c2.9,4.2,6.7,8.7,7.5,13.5
			c9.6,54.7,47.5,61.2,93,55.2C627.9,2535.4,631.1,2535.8,640.1,2535.8z M926.1,2518.3c0-1.8,0-3.7,0-5.5c33.1,0,66.3-1.1,99.4,0.4
			c22.4,1,28.7-9,28.1-29.3c-1.4-42.8-9.3-84-23-124.6c-12.7-37.4-38-59.8-75.9-64.6c-44.2-5.6-88.3-3.7-118.1,37
			c-13.2,18-29.7,36.7-31.3,59.2c-2.6,36,0.8,72.4,0.7,108.7c0,15.3,6.5,19.3,20.8,19C859.8,2517.8,893,2518.3,926.1,2518.3z
			 M545.6,2025.2c44.3-2.5,89.9-3.4,132.4-23.4c25.6-12,37.3-30.6,34.9-59.1c-4.3-50.6-26.6-89-74.1-109.5
			c-52.3-22.6-101.5-14.7-145.5,21c-37.4,30.4-51.3,73.2-61.7,118.4c-4.2,18.2,2,26.6,16.2,34.7
			C478.1,2024.4,511.4,2023.2,545.6,2025.2z M488.1,1790.6c107.1-41,195.5-23.6,261,76.6c-4.2-53.7-39.2-96.1-90.5-113.2
			C596.8,1733.5,524.2,1748.1,488.1,1790.6z M497.9,2218.7c-30.5,0-54.9,23.3-54.6,49.4c0.1,11.6,4.6,23.8,16.9,19.5
			c19.5-6.8,27.6,5.4,39.1,15.1c5,4.3,9.5,15.3,19.8,7.7c11.2-8.2,24.2-58.5,18.2-72.6C529.2,2219.3,511.9,2219.5,497.9,2218.7z
			 M1486.7,2387.8c8.9-13.1,37.2-12.1,21.3-39c-27.5-46.4-63.4-83.5-112-108.5c-78.3-40.2-192.1-30.8-250.1,26
			C1337.3,2189.5,1419.6,2218.3,1486.7,2387.8z M757,2278.3c-29-60.6-96.1-89.1-153-69.9c-10.4,3.5-18.6,7-15.7,21.3
			c3.4,16.6,13.9,11.4,23.6,10C663.3,2232.2,710.3,2241.9,757,2278.3z M1065.9,2307.3c-36.9-89.4-156.2-116.7-219.5-52.3
			C928.9,2230.7,1004.5,2231.9,1065.9,2307.3z M1625.3,2208.1c-38.5,37.7-67.1,81.9-89.3,130.4
			C1573.2,2300,1603.6,2256.9,1625.3,2208.1z"/>
		<path class="st0" d="M2213.5,2215.7c-0.4,7.1-0.7,15.4-1.4,23.7c-6.2,68.8-46.5,101.5-115.2,92c-53.1-7.4-95.9-36.6-137.7-67.8
			c-11.6-8.7-7.5-15.9,0.7-21.7c10.5-7.4,13.3-33.5,35.1-16.2c22,17.5,45.8,31.8,71.6,42.9c9.5,4.1,19.1,8.2,29.1,10.5
			c42.8,9.8,62.7-5.3,65.5-49.1c2.9-46.1-8.8-88.3-34.7-126.3c-21.4-31.4-44.5-39.4-80.2-26.5c-62.7,22.5-112.2,65.5-161.6,108.1
			c-79.8,69-132.8,157.9-183.7,248.4c-33.5,59.6-68.1,118.3-119.9,164.8c-74.8,67.1-165.7,91.4-262.4,98
			c-129.1,8.8-258.2,19.1-387.8,7.4c-59.8-5.4-119.3-12.8-178.6-22.5c-17.4-2.9-21.7-7.9-17-25.5c4.1-15.6,2.7-31.5,26.8-26.3
			c50.7,10.9,102.2,16.6,153.7,20.6c159.6,12.4,319,7.4,477-16.8c102.7-15.7,175.6-78.1,228.4-166c50.6-84.1,94-172.6,158.5-248
			c53-62,113.6-114.8,182.3-158.2c128.2-80.9,231.4-29.8,248.9,122.3C2212.3,2193.8,2212.6,2204.2,2213.5,2215.7z"/>
		<path class="st0" d="M1896.5,2641.3c44,0.4,79.2,36,78.3,79.1c-0.9,43.4-36.9,77.4-81.1,76.6c-42.9-0.8-76-34.7-76.1-77.9
			C1817.5,2674.6,1851.6,2641,1896.5,2641.3z"/>
		<path class="st0" d="M1306.9,1448.1c-121.9,0.3-217.4-93.7-218.1-214.7c-0.6-116.2,95.2-216.5,207.5-217.2
			c128.7-0.8,226,91.7,226.5,215.5C1523.3,1353.4,1429.2,1447.8,1306.9,1448.1z M1360.8,1302.1c-1.6-11-11.1-18.2-16.4-16.7
			c-16.2,4.7-25.9,19.5-33.6,33.4c-4.8,8.7,8,17,13.3,16C1342.3,1331.3,1348.9,1313.1,1360.8,1302.1z M1365.3,1174
			c-9.3-5.8-20-17.4-26-15.3c-13.1,4.5-24.2,17.9-26.5,31.4c-1.4,7.9,12.9,19,22.4,16.2C1348.9,1202.3,1355.2,1187.3,1365.3,1174z
			 M1265.6,1106.5c-10.6,8.6-19.7,20-21.2,31.9c-1.1,8.7,12.1,18.7,21.6,16.7c12-2.5,21.5-15.2,23.5-26.1
			C1292,1116,1275.4,1114.4,1265.6,1106.5z M1297.4,1251.6c-4.2-8.1-10.1-13.6-18.4-15.4c-6.5-1.4-34.2,29.3-32.5,36.4
			c2,8.6,10.3,15.9,17.3,13.1C1279.1,1279.6,1287.1,1264.3,1297.4,1251.6z M1430.6,1223c-3-9.2-12-16.3-17.5-14.8
			c-16.3,4.5-25.2,19.4-31.4,33.8c-2.4,5.6,8.7,13.3,14.7,12.5C1414.2,1251.9,1420,1234.6,1430.6,1223z M1201.3,1240.5
			c9.5-12.1,21.3-23.6,28.3-37.6c3.5-7-9.7-16.7-15.2-14.6c-15,5.7-19.8,22.3-27.1,35.4C1182.6,1232.1,1192.1,1235.4,1201.3,1240.5z
			 M1424.3,1346c-3.7-6.8-10.7-15-15.8-12.9c-16.3,6.9-26.5,21.8-35.4,36.5c-2.3,3.9,4.5,10.2,9.6,8.3
			C1399.6,1371.8,1413,1360.7,1424.3,1346z M1418.1,1113.7c-7.1-9-14.4-19.4-26-19.5c-9.6-0.2-18.2,10.9-17.1,18.6
			c1.6,11.4,14.7,17.8,24.8,19.1C1408.2,1132.9,1414.6,1122.8,1418.1,1113.7z M1202,1358c8.4-8.8,21-15.2,22.5-28
			c0.8-7.1-8.4-13.9-15.3-11.1c-10.6,4.3-18.3,14.4-21.3,25.1C1186.3,1349.6,1194.7,1355.3,1202,1358z M1271.5,1363.7
			c-7.6,4-15.2,9.9-17.3,18.6c-2.7,11.4,8.4,9.1,14.4,10.4c9.2,2,17.1-2.6,19.1-11.2C1290.2,1371.1,1279.6,1369.1,1271.5,1363.7z"/>
	</g>
</g>
</svg>
