<?xml version="1.0" encoding="utf-8"?>
<!-- Generator: Adobe Illustrator 23.0.0, SVG Export Plug-In . SVG Version: 6.00 Build 0)  -->
<svg version="1.0" xmlns="http://www.w3.org/2000/svg" xmlns:xlink="http://www.w3.org/1999/xlink" x="0px" y="0px"
	 viewBox="0 0 3000 3000" style="enable-background:new 0 0 3000 3000;" xml:space="preserve">
<style type="text/css">
	.st0{stroke:#000000;stroke-width:10;stroke-miterlimit:10;}
</style>
<g id="Layer_1">
</g>
<g id="Layer_2">
	<g>
		<path class="st0" d="M1664.2,1111.8c-13.8-2.6-23.2-4.1-32.6-6.2c-46.5-10.4-75.6-39.6-87.9-84.7c-11.5-42.2,4.2-77.1,37.1-102.8
			c78.9-61.6,163-115.6,255.3-154.9c60.1-25.5,111.5,7.1,115.9,72.1c1.5,22.4,8.6,19,22.9,12c108.3-53.6,223.9-71.9,343.7-72.6
			c117.2-0.7,234.4-7.7,351.6,0.9c23.5,1.7,47.2,4.1,70.4,8.2c91.4,16.3,147.2,68,163.9,161.7c17.7,99.1,17.1,199.1,18.1,299
			c1.4,143,3.2,286.1-12.3,428.5c-15.8,145-89.9,249.1-227.3,302.5c-226.9,88.3-460,123.1-701.4,72.1
			c-142.2-30.1-265.6-97.9-373.9-193.1c-117.7-103.4-147.2-235.6-114.8-384c27-123.6,90.5-231.1,157.2-336.7
			C1653.9,1127.6,1658,1121.4,1664.2,1111.8z M1897.1,1991.8c10.9,4.9,15.5,7.8,20.4,9.1c25.9,7.1,51.6,15.4,77.9,20.5
			c230.5,45.2,453,13.3,670.4-69.8c136.3-52.2,207.4-153.4,217.4-295.8c13.9-198.6,16.5-397.7,6.3-596.7
			c-2.6-50.4-8.4-100.6-24.5-149.1c-13.1-39.5-39-66.1-76.6-82c-25.9-11-53-18.3-81-20.2c-155.8-10.8-311.6-9.1-467.5-0.5
			c-154.8,8.5-288.7,68.5-407.5,166.2c-108.7,89.4-183.3,204-245.4,328c-17,34-35.3,67.8-46.5,109c42.9-15.3,76.7-37.5,110.1-60.3
			c23.2-15.8,47.2-30.4,74.6-37.2c58.2-14.3,90,12.3,85.4,72.3c-4.8,61.9-31.9,110.5-88.2,141c-59.9,32.4-122.6,57.4-188.7,73.3
			c-18.7,4.5-24.4,10.9-20.5,30.5c5.6,27.5,13.3,54.1,22.4,80.6c10.6,31,30.9,46.9,63.1,56.5c92.2,27.2,187,24.4,281,31.1
			c90.7,6.4,167.4-18.3,222.9-95.4c17.6-24.5,42-43.3,71.8-52.6c59.7-18.7,101.4,18.1,90.7,79.4c-5.9,33.9-21.5,63-44.6,87.9
			C2134.8,1910.3,2030.9,1970.8,1897.1,1991.8z M1595.4,1798.8c67.4,68.8,142.7,126.3,231.2,165c8.3,3.6,19,2.5,28.6,2.1
			c129-5.4,235.2-61.1,326.8-148.6c24.3-23.2,45.1-49.6,53.3-83.1c4.2-17.4,9.8-37.3-6.9-51.2c-18-15.1-38.7-10.2-57.7-0.7
			c-21.6,10.8-38.8,27.9-52.8,46.7c-59.7,79.5-142.2,104.8-236.2,98.6C1786.6,1821.2,1690.2,1825.1,1595.4,1798.8z M1660.7,1079.2
			c19.4,3.8,34.6-6,49.2-23.5c51.8-62.4,112-116,179.9-160.6c30.5-20,42.8-58.6,28.4-86.6c-12.7-24.6-47.8-32.3-82.5-15.2
			c-81,39.9-158.1,86.7-229.9,141.7c-36.9,28.3-44.3,53.6-31.1,89.2C1587.3,1058.4,1617.8,1078.7,1660.7,1079.2z M1781.4,1386.1
			c0.3-46.7-12.2-55.7-51.8-44.3c-16.6,4.8-32.3,11.5-46.5,21.2c-44.2,30.4-89.6,58.6-139.5,78.9c-10.6,4.3-18.3,10.5-20.7,22.3
			c-6.3,30.4-12.2,60.8-14,91.9c-0.9,15.6,2.1,20.4,19.3,15.8c66.6-17.6,130.5-41.5,189.7-76.7
			C1761.5,1469.4,1779.2,1428.6,1781.4,1386.1z"/>
		<path class="st0" d="M396.1,1901.2c-93.5-48.7-168.2-111.2-230.4-188.1c-106.2-131.4-123.5-275.3-54.3-428.8
			c60-133.3,159.8-233.1,276-318C555.3,843.6,743.6,779,951,769.8c45.4-2,90.5,2.9,134.4,13.9c110.3,27.7,186,94.4,212.9,206.2
			c38.6,159.6,49.8,320.8,4.2,481.4c-64.8,228.6-197.1,396.5-431.8,468.7c-112.4,34.6-226.4,34.7-340.6,8.2
			c-10.2-2.4-20.4-4.8-35.3-8.2c34.5,59.9,44.2,120,34.4,183.3c-1.3,8.1,2.7,21.6-13.4,20.4c-15.2-1.1-15.3-11.7-14.5-23.3
			c2.9-42,4.6-83.7-11.1-124.2c-22.3-57.5-58.2-77.5-116.5-58.4c-91.9,30.1-175.1,76.5-246.1,143.1c-6.3,5.9-12.1,12.3-18.6,17.9
			c-7.3,6.2-12.4,18.8-25.8,6.1c-13.5-12.8-1.6-18.2,5.2-25.3c29.1-30.4,60.9-57.9,96.1-80.9
			C248.4,1956.7,316.2,1922.7,396.1,1901.2z M1302.8,1249.9c0.4-62.9-7.8-124.7-17.9-186.2c-29.6-179.5-114.2-257.7-296.5-263.2
			c-197.9-6-379.3,52.3-543.9,161.3c-129,85.5-240,188.9-306.1,332.3c-63,136.7-51.5,266.7,39.7,388.5
			c29.9,39.9,65.9,73.3,102.6,106.6c236.1,213.8,631.4,196.7,844.3-41C1251,1607.4,1300.5,1436.2,1302.8,1249.9z"/>
		<path class="st0" d="M1087.8,2059c-7.6-0.1-10.1-6.4-13.5-11.6c-4.9-7.4-0.2-11.8,5.1-15.9c44.2-33.8,88.6-67.5,132.6-101.5
			c8.4-6.5,13.7-3.4,18.4,3.7c3.4,5.2,8.2,11.2,0.9,16.8c-46.7,35.9-93.5,71.6-140.3,107.4C1090.2,2058.5,1089,2058.6,1087.8,2059z"
			/>
		<path class="st0" d="M1933.5,1532.8c-19.6-1.7-50.8,6.8-61.1-25.3c-9.6-29.9,15.1-47.6,35.3-62.7
			c54.1-40.5,108.5-81.1,173.7-103.1c18.3-6.2,36.8-11.7,55.6-15.8c16.1-3.5,33.2-3.6,44.5,11c12.3,15.9,6.6,33.3-2,48.5
			c-32.4,58-77.8,102.2-140.5,126.8C2006.8,1524.9,1973.4,1531.7,1933.5,1532.8z M1899.1,1500.9c93.1,17.7,193.2-29,246.6-115.4
			c5.3-8.5,17.4-18.3,9.8-27.7c-6.6-8.1-20.3-2.4-30.8-0.4c-5.2,1-10.2,3.2-15.4,4.8c-74.9,22.2-135.4,68.8-196.2,115
			C1905.7,1482.8,1899.1,1490.2,1899.1,1500.9z"/>
		<path class="st0" d="M2460.6,1912.7c-28.7,1.5-58.8-0.5-76.4-31.6c-5.6-9.9-11.8-24.4,0.7-31.1c8.5-4.6,20,2.6,23.6,15.5
			c2,7.3,8.7,11.6,16,14.8c36.3,16.3,120.9-1.2,142.2-35.5c47.6-76.9,88-157.5,98.5-249.4c1.1-9.8,7.1-23.8-4-29.1
			c-9.9-4.8-19.8,5.8-28.4,11.8c-17.6,12.2-34.2,25.9-52,37.7c-10.4,6.9-24.7,10-31.5-2.5c-5.9-10.8,9.2-16.5,15.6-20.1
			c28.9-16.6,50-44.6,82.5-55.6c37.6-12.8,51.2-4,49.1,34.6c-5.9,107.4-50.7,201.5-107,289.8
			C2561.3,1905.8,2512,1912.8,2460.6,1912.7z"/>
		<path class="st0" d="M2615.4,1253.5c3.2,0,6.4,0,9.7,0c79.2,0,103.9,33.8,78.8,110.2c-27.1,82.5-92.1,126.3-167.1,159.2
			c-9.7,4.3-16.8,2.2-20.3-8c-3.6-10.4,1.8-15.6,11.1-19.4c26.9-11.1,52.4-24.9,75.7-42.3c40.1-30,68.9-67.7,78.8-117.7
			c8-40.3-3.1-52.8-44.4-52.3c-23.6,0.3-47.3,1.1-70.9,1.2c-8.8,0.1-20.1,4.2-20.4-12.1c-0.2-15.3,8.7-17.6,20.7-17.4
			c16.1,0.2,32.2,0,48.3,0C2615.4,1254.4,2615.4,1253.9,2615.4,1253.5z"/>
		<path class="st0" d="M2362,1257c-44.8-0.2-77.9-25-77.1-54.1c0.8-28.4,36.2-53.9,74.1-52.2c11.5,0.5,23.6,3.2,34.2,7.7
			c19.6,8.2,35.6,21.6,35.6,44.9c0,24.6-16,38.9-37.5,46.9C2380.5,1254.4,2368.6,1255.6,2362,1257z"/>
		<path class="st0" d="M1873.6,1689.8c-36.6-0.5-67-24.7-66.3-52.6c0.7-28.2,30.7-50.1,68.4-49.9c37.5,0.2,66.2,22.8,65.9,51.9
			C1941.2,1667.1,1910.1,1690.3,1873.6,1689.8z"/>
		<path class="st0" d="M2032.9,1177.5c-29.6,0-53.4-24-52.7-53.1c0.6-27.4,27.2-52.4,55-51.6c28.4,0.8,50,23.3,50.3,52.1
			C2085.7,1155.2,2063.4,1177.5,2032.9,1177.5z"/>
		<path class="st0" d="M2060.4,1629.7c0.2,34.2-17.7,60.4-40.7,59.5c-21.4-0.8-39.5-27.5-39.7-58.2c-0.2-31.7,19.9-60.7,41.5-60
			C2042.6,1571.7,2060.2,1598.3,2060.4,1629.7z"/>
		<path class="st0" d="M2301.4,1543c-0.8,30-18.1,52.6-40.4,52.6c-23.3,0-41.1-24.6-40.4-55.8c0.7-28.6,19.5-53.7,40.3-53.7
			C2282.7,1486.1,2302.2,1513.5,2301.4,1543z"/>
		<path class="st0" d="M1919.8,1194c26.1,2,33.9,19.9,34.6,43c0.8,26.8-15.7,48.8-35.7,48.6c-20.3-0.2-36.3-22-35.8-48.7
			C1883.3,1210.1,1896.4,1194.8,1919.8,1194z"/>
		<path class="st0" d="M2127.9,1622.1c-20.5-1.7-40.4-8.9-40.2-34.3c0.2-25.8,20.5-33,42.5-32.8c22.2,0.2,42.5,8.9,42,33.8
			C2171.8,1613.2,2152.2,1621.6,2127.9,1622.1z"/>
		<path class="st0" d="M2335.7,1489.1c-22.8-1.6-37.5-14.2-37.1-36.4c0.4-20.6,11.6-37,35.5-38c25.8-1.1,37.8,15.9,38.6,37.7
			C2373.4,1474.6,2358.3,1487.2,2335.7,1489.1z"/>
		<path class="st0" d="M2161.8,1072.5c22.1,1.4,35.7,13.3,36.5,33.8c1,22.3-12.8,36.3-35.5,36.8c-22.4,0.5-32.1-16.2-33.6-35
			C2127.4,1086.3,2142.1,1075.7,2161.8,1072.5z"/>
		<path class="st0" d="M2357.8,1382.3c-19.6-3.4-34.7-12.6-35.3-34.4c-0.6-21,10.6-36,32.1-35.6c20.3,0.3,37.9,10.8,37.7,34.1
			C2392.2,1367.3,2377.6,1378.2,2357.8,1382.3z"/>
		<path class="st0" d="M1103.7,1101.7c1.7,289.6-256,484.3-527.8,403.3c-149-44.4-212.8-162.4-152.1-305
			c81.7-192,228.8-309.7,438.9-333.5c152.8-17.3,232.1,57.3,240,210.7C1103.1,1086.9,1103.5,1096.5,1103.7,1101.7z M697.3,1492.1
			c39,2.8,79.2-4,118.6-15.6c208.6-61.1,297.5-297.7,245.2-477.1c-15.3-52.3-51.3-85.6-104.5-99.9c-42.6-11.5-85.3-10.2-127.7-0.8
			c-188.6,41.8-320,152.6-386.6,333.6c-37.2,101.3,4.2,185.4,102.4,230.2C592.3,1484.3,642.5,1494.6,697.3,1492.1z"/>
		<path class="st0" d="M1157.1,1508.6c0,26.7-22.7,48.9-49.3,48.3c-27.3-0.6-48.1-22.6-47.3-50c0.8-25.8,21.5-46.4,47.3-46.8
			C1134.5,1459.7,1157.1,1481.9,1157.1,1508.6z"/>
		<path class="st0" d="M1166.6,1415.5c-26.5-0.5-45.8-20.2-45.6-46.8c0.1-26.8,22.9-49.4,49-48.8c26,0.5,48.9,24.6,48,50.5
			C1217,1397.2,1195.6,1416,1166.6,1415.5z"/>
		<path class="st0" d="M252.7,1499.2c-29.2,0.4-48.8-18.4-48.5-46.5c0.3-25.7,20.8-47.1,46.2-48.2c26.2-1.2,50,21,50.8,47.3
			C302,1478.7,281.5,1498.8,252.7,1499.2z"/>
		<path class="st0" d="M298.9,1621.7c-28-0.3-49.6-21.5-48.8-48.2c0.7-25.5,25.7-48.7,51.3-47.5c25.8,1.2,45.9,22.3,46,48.2
			C347.4,1602.8,327.7,1622,298.9,1621.7z"/>
		<path class="st0" d="M714.3,1783c-27.9,0.4-49.5-20.2-50-47.5c-0.4-25.5,23.4-49.3,49.3-49.3c25.4,0,46.4,20.8,47.3,46.9
			C762,1761.1,741.9,1782.6,714.3,1783z"/>
		<path class="st0" d="M416.3,1594.9c27.5,0.4,46.3,18.7,46.6,45.5c0.4,28.1-18.9,46.7-48.3,46.5c-29-0.1-49.1-19.5-48.6-46.6
			C366.6,1613.1,387.3,1594.4,416.3,1594.9z"/>
		<path class="st0" d="M586.5,1699.5c-0.3,27.4-22.2,48.4-49.4,47.5c-25.6-0.8-46.7-22-47.3-47.4c-0.6-26.5,21.8-49.1,48.7-49.2
			C565.6,1650.3,586.8,1672,586.5,1699.5z"/>
		<path class="st0" d="M993.5,1638.4c1.8-26.7,25.3-47,52.4-45.1c27.2,1.8,46.3,24.5,44.1,52.3c-2,25.5-24.1,45.1-49.7,43.9
			C1013.4,1688.2,991.8,1664.6,993.5,1638.4z"/>
		<path class="st0" d="M923.6,1710.9c-0.6,27.2-22.9,47.8-50.3,46.6c-25.6-1.1-46.2-22.5-46.2-48.1c0-26.1,23.3-49.4,49.2-49
			C902.5,1660.7,924.3,1683.9,923.6,1710.9z"/>
		<path class="st0" d="M728,1177.5c-35.7,0.4-63.9-26.4-65-61.7c-1.1-36,28.2-65.4,64.9-65c34.8,0.3,63.7,28.9,63.8,63.2
			C791.9,1147.9,762.6,1177.1,728,1177.5z"/>
		<path class="st0" d="M789.6,1217.9c28.9,0.1,54,25.1,53.5,53.4c-0.5,27.4-27.8,53.6-55,52.8c-26.7-0.9-50.7-25.5-51.2-52.7
			C736.4,1242.4,760.6,1217.8,789.6,1217.9z"/>
		<path class="st0" d="M890.4,1176.4c-28.5-0.2-51-22-51.5-50c-0.6-28.7,23.9-53.5,52.8-53.7c29-0.1,53.5,24.3,53.2,53.2
			C944.6,1155.4,921.7,1176.6,890.4,1176.4z"/>
	</g>
</g>
</svg>
