<?xml version="1.0" encoding="utf-8"?>
<!-- Generator: Adobe Illustrator 23.0.0, SVG Export Plug-In . SVG Version: 6.00 Build 0)  -->
<svg version="1.0" xmlns="http://www.w3.org/2000/svg" xmlns:xlink="http://www.w3.org/1999/xlink" x="0px" y="0px"
	 viewBox="0 0 3000 3000" style="enable-background:new 0 0 3000 3000;" xml:space="preserve">
<style type="text/css">
	.st0{fill:none;stroke:#000000;stroke-miterlimit:10;}
	.st1{stroke:#000000;stroke-width:10;stroke-miterlimit:10;}
</style>
<g id="Layer_1">
</g>
<g id="Layer_2">
	<path class="st0" d="M1280.2,1511.1"/>
	<g>
		<path class="st1" d="M1518.5,2909.2c-124.4-5.6-249.6,1.4-373-17.9c-136.3-21.3-270.5-53.9-393.3-119.3
			c-170.4-90.8-233.2-240.2-183.9-427c31.2-118.3,94.9-218.3,176.9-307.2c15.7-17,18.2-25-2.3-41c-144.9-113-222.4-268.2-269.6-441
			c-50.3-184.2-57.3-372.2-46.5-561.7c6-105.3,16.9-209.6,47.1-310.9c67.1-224.8,198.2-396.1,418.8-489.3
			c109.2-46.2,225.4-63.6,342.5-74.5c175.8-16.3,351.5-35.2,528.3-33c106.6,1.3,211.8,12.9,312.2,52.1
			c203.5,79.4,322.1,231.7,376.8,439.1c31.9,120.8,45.2,244.4,58.2,368.2c16.1,154.2,34.5,308.3,32.4,463.7
			c-1.2,88-12.1,175-37.9,259.6c-39.9,130.7-113.1,239.3-219,324.9c-20.9,16.9-20.2,28.8-10.9,50.3
			c62.3,143.4,105.8,291.3,103,449.6c-0.8,44.1-7.5,87.4-19.8,129.7c-28.6,98.2-93.9,162.4-187.4,200.2
			c-141.6,57.1-288.9,85.1-441.5,85.3C1659.4,2909.3,1588.9,2909.2,1518.5,2909.2z M1735.5,2101.2c40.8,0,81.7,1,122.5-0.2
			c217.9-6.5,389.9-99.9,516.2-276.7c94.5-132.1,117.3-285,118-441.9c0.7-140.9-14.9-281.1-30.1-421
			c-13.5-124.6-27-249.3-59.1-371.2c-56.1-212.9-183-358.9-397.5-421c-91.7-26.6-186.7-35.1-281.8-32.1
			c-212.1,6.7-424.1,19-633.7,54c-296.4,49.5-487.3,222.4-566.9,510.7c-64.5,233.5-63.8,472.1-28.1,710.4
			c21.3,142.3,64.8,277.8,145.1,399.2c82.6,124.9,189.2,209.4,345.9,223.7c126.8,11.6,253.1,29.2,380,40.4
			C1489.1,2086.3,1612.1,2097.7,1735.5,2101.2z M1778.5,2150.3c-40.8,0-81.7,1.2-122.4-0.5c-18.6-0.8-25.3,3.7-24.9,23
			c0.9,47.9,0.7,95.9-0.6,143.9c-0.5,16.7,4.3,20.5,20.5,18.8c41.8-4.3,83.6-2.4,124.7,6.8c63.1,14.1,99.1,60.4,97.8,125.6
			c-1.3,69.1-39.7,118.4-102.2,130c-41.1,7.6-82.5,13.9-124.6,10.9c-14.4-1-22.3,0.9-22.4,18.7c-0.2,69.4-1.4,138.7-3.5,208.1
			c-0.6,18.8,7.8,22.4,23.7,22c50-1.2,100-1.5,149.9-2.5c131.4-2.6,255.7-36.5,375.7-87.1c72.1-30.4,118.3-85.2,139.8-160.4
			c16.4-57.5,20.8-116.2,16.3-175.7c-8.7-116-40-226.4-83.2-333.7c-21.3-53-21.7-53.5-71.1-25.8
			C2049.4,2141.2,1915.5,2154.7,1778.5,2150.3z M1238.4,2206.4c0-13.9,0-23.1,0-32.3c0-62.6-0.2-60.3-62.9-66.8
			c-117.5-12.2-236.1-19.1-349.1-58.1c-12.7-4.4-20.8-2.3-29.6,7c-83,88.1-149.1,186.4-180,305c-38.5,147.8,5.2,268.6,123.1,344.9
			c58.8,38,123.4,62.1,190.1,82c91.9,27.4,184.1,53.1,280.4,59.7c13.5,0.9,28.6,6.5,28.3-18.2c-1-91.8-0.6-183.7-0.2-275.6
			c0.1-13.2-4.4-17.8-17.7-17.7c-46.2,0.7-91-9.8-136-18.6c-77.5-15.1-118.5-107.7-79.1-177c13.3-23.4,33-39.1,59.9-42.7
			c30.3-4,60.9-5.5,91.3-8.9c26.1-2.9,60.9,9.1,76.2-7.7C1249.8,2263.4,1236.2,2228.9,1238.4,2206.4z M1288.7,2487.6
			c0,112.2,0.5,224.4-0.4,336.6c-0.2,20.3,4.6,29.3,26.5,29.3c78.5,0.1,157,1.2,235.5,3c17.6,0.4,19.4-7.5,19.7-22
			c3.5-221.2,7.3-442.5,11.7-663.7c0.4-18.6-3.6-26.7-23.9-28.3c-81.3-6.3-162.4-14-243.5-22.2c-20.3-2-26.1,4.4-26,24.7
			C1289.1,2259.1,1288.7,2373.4,1288.7,2487.6z M1627.7,2471.6c-0.7,0-1.3,0-2,0c0,21.3,0.3,42.7-0.1,64
			c-0.2,11.1,0.6,20.2,15.1,20.9c46.9,2.3,93.7,1,138.5-14c29.6-9.9,43.9-41.9,41.8-83.5c-1.9-36.8-15.1-54.8-48.9-64.1
			c-31.5-8.6-63.7-12.5-96.4-10.7c-46.6,2.5-46.7,2.5-47.9,47.8C1627.4,2445.1,1627.7,2458.3,1627.7,2471.6z M1238.4,2412.5
			c0-16.3-1.1-32.6,0.3-48.8c1.7-18.6-4.9-25.6-23.7-24.7c-43.6,2.3-87.4-0.5-130.7,7.5c-15.6,2.9-29.2,6.5-36.4,23.1
			c-17.1,39.3,5.5,87.9,46.5,97.3c23.7,5.4,47.4,11.3,71.5,14c72.4,8.2,72.5,7.6,72.5-65.5
			C1238.4,2414.6,1238.4,2413.5,1238.4,2412.5z"/>
		<path class="st1" d="M2097.7,1141.2c4.6,158.1-11.3,313.9-51.1,467.1c-3.7,14.1-1.8,33.3-29.8,25.4c-25-7.1-26.8-17.1-19.7-38.8
			c9.6-29.7-7.7-67.9-34.8-85c-13.3-8.4-18.4,4.3-25.3,9.9c-59.2,48.4-118.7,96.6-176.5,146.6c-18.2,15.8-26.8,11.4-41.6-4.2
			c-17.4-18.4-5.4-26.4,7.5-34.6c21.8-13.9,23.6-27.2,2.2-42.9c-5.7-4.2-10-10.2-15-15.3c-36.2-37.7-36.2-37.7-73.8-2.7
			c-14.2,13.2-29.7,25.3-42.1,40c-17.3,20.4-29,17.9-44.5-2.5c-9.7-12.7-9.8-18.6,1.9-28.8c25.3-22.1,48.9-46.3,74.3-68.5
			c11-9.6,12.4-15.6,1.5-26.4c-23.2-23-46-46.5-66.9-71.5c-13.4-16-21.2-11.4-33.3,1.2c-57.1,59.8-115,118.8-172.7,178.1
			c-27.5,28.3-28.4,28.9-56.6-0.7c-30.3-31.7-59.4-64.6-88.2-97.7c-47.1-54.4-46.8-54.7-96.1-1.5c-18,19.5-36.6,38.5-53.6,58.8
			c-12.1,14.5-20.1,20.6-38.1,4.4c-19.3-17.3-12.6-26.5,1.3-40.8c30.5-31.5,59.3-64.7,89.6-96.4c11.3-11.8,12.2-19.9,0.1-32.6
			c-29.5-31-57.8-63.3-85.7-95.8c-10.6-12.3-17.2-12.9-28.3-0.1c-25.9,30.2-52.7,59.7-80.3,88.3c-11.2,11.6-14.9,22.3-10.3,38.1
			c6.2,21.5,7.1,44.8,15.2,65.4c9.1,23.1-5.7,24.1-19.7,28.9c-17.7,6.1-26.5,3.1-31.4-17.9c-17-72.7-30.4-146-33.1-220.5
			c-4.7-130.7-3.7-261.4,28.2-389.5c58.7-235.5,238-382.7,480.4-394.2c131.8-6.2,262.8-4.3,389.3,41.1
			c219.4,78.8,343,248.3,350.6,481.1C2092.9,1051.5,2095.6,1096.4,2097.7,1141.2z M1329.8,1541.3c4.8-3.9,8.9-6.7,12.3-10.2
			c52-53.3,103.4-107.3,156.2-159.9c13.3-13.2,9.5-21.4-0.9-32.4c-36.6-38.4-73.4-76.7-109-116.1c-12-13.2-18.4-9.5-28.5,1.6
			c-48.6,53.7-97.5,107.2-147.3,159.8c-11.4,12.1-9.4,19.1,0.8,30.1c34.7,37.4,68.3,75.8,102.4,113.7
			C1319.9,1532.4,1324.5,1536.2,1329.8,1541.3z M1733.5,819.6c-4,3.4-7.3,5.7-9.9,8.6c-44.8,48.6-89.3,97.6-134.4,145.9
			c-8.7,9.3-5.7,15,1.2,23c38.7,44.5,77.3,89.1,115.1,134.4c9.9,11.8,15.8,11,25.9,0.3c41.3-43.6,83.2-86.5,125.4-129.2
			c8.5-8.6,10.7-15.2,2.5-25.6c-38.5-48.6-76.4-97.8-114.6-146.6C1741.7,826.4,1737.6,823.5,1733.5,819.6z M1164.9,1357.6
			c4.4-3.6,8.6-6.1,11.8-9.6c50.4-54.7,100.6-109.6,151-164.2c8.4-9.1,8.9-15.7-0.5-25.3c-31.3-32.1-62-64.7-92.1-98
			c-9.8-10.8-15.9-11.9-26.1-0.4c-47.5,53.2-95.3,106-143.9,158.2c-10.6,11.4-11.2,18.5-0.3,30.1c30,31.9,58.6,65.1,87.9,97.6
			C1156.1,1349.8,1159.9,1353,1164.9,1357.6z M1592.9,643.4c-2.9,2.7-6.9,5.8-10.2,9.5c-46.1,50.2-91.7,100.8-138.3,150.6
			c-10,10.7-5.7,16.7,1.7,25.3c29.3,33.8,58.7,67.5,86.8,102.3c11.5,14.2,18.1,9.7,27.9-1.1c42.3-46.8,84.7-93.4,128-139.3
			c10.5-11.2,11-19.2,1.5-30.9c-28.1-34.8-55.3-70.3-83-105.4C1603.9,649.9,1602.3,642.8,1592.9,643.4z M1679.9,1182.3
			c-4.3-5.9-7.5-10.9-11.4-15.5c-37-43.3-74.4-86.2-110.9-129.9c-9.8-11.7-16-11.3-26-0.1c-36.5,41-73.6,81.5-111.2,121.5
			c-9.2,9.8-8.3,15.7,0.5,24.9c38.8,40.2,77.3,80.9,115.2,122c9.5,10.3,15.1,12.3,25.7,0.9c35.4-37.9,71.9-74.7,108-112
			C1673.2,1190.6,1676.2,1186.7,1679.9,1182.3z M1905,950.3c4.1-3.3,7.5-5.4,10.3-8.2c29.3-29.8,58.3-59.8,87.7-89.4
			c7.3-7.4,5.1-14,2-22c-24.1-63.2-63.7-115.4-113.1-160.8c-10-9.2-16.3-8-24.8,1.6c-28.3,32-57,63.8-86.3,94.9
			c-8.8,9.4-9,16-1.1,25.9c38.6,48.6,76.5,97.7,114.8,146.6C1897.4,942.7,1901,946,1905,950.3z M1373.8,1131.3
			c5.5-5.1,10.1-8.7,14.1-13.1c37.2-40.4,73.9-81.3,111.6-121.2c10.3-10.9,8.5-17.6-0.5-27.8c-29-32.7-57.5-66-85.2-99.8
			c-10-12.1-16.6-14.5-28.1-1.6c-38.7,43.2-78,85.9-117.8,128c-10.3,10.9-8,17.6,1.4,27.2c30.5,31.3,60.1,63.6,90.2,95.3
			C1363.6,1122.6,1368.3,1126.3,1373.8,1131.3z M1459.5,534.7c-19.6,4.4-44.3-12.2-62,8.8c-28.8,34.2-56.5,69.4-85.4,103.5
			c-8.3,9.8-8,16.9,0.1,26.1c26.1,29.8,51.9,59.9,77.5,90.3c7.3,8.7,12.9,10.9,21.6,1.2c46.9-52.2,94.1-104.1,141.6-155.8
			c7.1-7.7,10-13.2,2.3-22.8C1530.6,555.4,1511.6,516,1459.5,534.7z M2000.3,1161.4c-2.5-4.1-4.4-7.7-6.8-10.9
			c-28.1-36.2-56.6-72.1-84.3-108.6c-11.3-14.9-17.2-2.4-23.5,4c-40.7,41.5-80.8,83.5-121.7,124.8c-9.5,9.6-12.1,16.2-1.7,27.6
			c26.1,28.6,51.3,58,75.6,88.1c10.7,13.2,17.4,11.5,28.7,0.8c39.9-37.9,80.9-74.7,121.3-112
			C1992.3,1171.2,1996,1166.3,2000.3,1161.4z M1095.1,913.1c-33.9,41.3-67.1,81.1-99.7,121.5c-19.1,23.6-52.4,48.6-51.5,71.9
			c0.9,23.8,35.9,46.2,56,69.2c1.3,1.5,3,2.9,4.1,4.5c8.1,11.4,14.7,13.6,25.7,1.2c47.4-53.3,95.7-105.9,144.3-158.2
			c9.5-10.3,11-16.9,0.4-27.5C1147.8,969.2,1122.3,941.5,1095.1,913.1z M1088.4,837.1c9.1-9.7,14-14.4,18.3-19.6
			c25.2-30.6,50-61.5,75.4-92c56.5-67.7,56.2-67.3-4-131.3c-10.7-11.3-18.5-11.7-31.1-4.9c-56.5,30.3-104,70.8-143.3,121.3
			c-8.6,11.1-11.5,19.1,0.3,30.7c25.3,25,49.2,51.5,73.3,77.7C1081.4,823.4,1083.8,829.4,1088.4,837.1z M1363,813.7
			c-2.1-3.6-3.2-6.5-5.1-8.7c-27.1-31.7-54.3-63.3-81.5-94.9c-8.6-10-13.3-2.9-18.7,3.9c-19.8,24.5-40.2,48.6-59.7,73.3
			c-22.5,28.6-66.2,57-62.4,85.4c4,30.5,46.7,55.5,71.4,83.8c10.6,12.1,17.2,12.4,28.2,0c37.9-42.5,76.9-84,115.4-126.1
			C1355.3,825.3,1358.9,819.2,1363,813.7z M1680.8,1457c3.7-2.6,6.4-4,8.6-6c38.3-35.2,76.4-70.6,114.9-105.7
			c10.4-9.5,3.5-15.9-2.6-23c-24.6-28.7-49.7-56.9-73.4-86.2c-11.1-13.7-18.2-10.5-28.6,0.5c-33.6,35.6-67.7,70.8-102.2,105.6
			c-9.5,9.6-12.5,16.3-1.4,27.4c24.5,24.5,47.7,50.4,71.6,75.6C1671.6,1449.5,1676.4,1453.2,1680.8,1457z M897.7,1059.5
			c2.5,1.4,5,2.8,7.5,4.2c48.7-59.5,97.4-119.1,146.1-178.6c6.4-7.8,5.2-14.1-1.6-21.2c-24.6-25.7-49-51.7-73.2-77.9
			c-8-8.7-13.9-11-19.6,2.2C919.2,875,898.9,965.2,897.7,1059.5z M2043.7,1290.3c0.9,0,1.8,0,2.7,0c0-21.4,0.1-42.8-0.1-64.2
			c-0.1-7.5-3.1-14.5-9.6-18.2c-8.7-5-12.7,3.8-17.5,8.2c-40.6,37.2-80.8,74.9-121.7,111.8c-9.6,8.6-11.1,15.1-2.3,25.1
			c19.7,22.1,38.7,44.7,57.8,67.3c6.2,7.4,11.5,9.5,20.3,2.6c38.7-30.1,81-57.6,69.4-117.4
			C2041.9,1300.7,2043.4,1295.4,2043.7,1290.3z M1784.9,1576.8c10.6-7.8,15.5-11.1,20.1-14.8c14.9-12.2,30.2-24.1,44.4-37.1
			c23.1-20.9,65.9-36.3,65.6-62.3c-0.3-24.4-36.5-47.8-55.5-72.7c-9.2-12-15.4-12.5-26-1.9c-19.5,19.3-40.8,36.7-60.2,56.1
			c-17.8,17.9-52.4,33-50.5,52.7c1.9,21,31.7,39.3,48.8,59.2C1776.7,1562,1780.3,1569.5,1784.9,1576.8z M1737.5,737
			c30.1-32.8,58.9-64.2,87.8-95.5c6.8-7.4,12.6-13.5-0.4-20.9c-46.2-26.3-94.3-48.6-146.1-60.2c-21-4.7-27,20.7-40.3,31.8
			c-12.5,10.4,0.8,18.2,6.1,25.2C1674.8,657,1705.6,696,1737.5,737z M2037.8,1122.7c2.6-1.1,5.1-2.2,7.7-3.3
			c-6.8-70.4,2.3-142.2-20-214.1c-27.8,27.6-52.7,52.8-78.2,77.4c-8.5,8.1-8,14.4-1.1,23.1
			C1976.9,1044.5,2007.3,1083.7,2037.8,1122.7z M903.7,1318.6c23-25.3,45.7-50.9,69.3-75.6c9-9.4,5.3-15.2-1.7-22.7
			c-17.2-18.6-33.6-38-51-56.4c-5-5.3-8.2-16.3-18.3-12.1c-8.5,3.5-8.1,13.4-8.9,21.3C888.4,1220.8,896.1,1268,903.7,1318.6z
			 M1331.3,542.1c-22.4-6.4-40.7,0.5-58.6,4.5c-17.1,3.8-42.8,1.7-48.1,17.1c-4.3,12.6,18.9,25.8,28.2,39.9
			c12.1,18.4,20,12.1,30.3-1.8C1297.8,581.8,1314.3,563,1331.3,542.1z M2027.4,1447.6c-13.2,7.6-25.7,12.5-26.3,23.9
			c-0.4,7.6,6.6,17.9,19.6,18C2022.8,1476.2,2024.7,1464.3,2027.4,1447.6z"/>
	</g>
</g>
</svg>
