<?xml version="1.0" encoding="utf-8"?>
<!-- Generator: Adobe Illustrator 23.0.0, SVG Export Plug-In . SVG Version: 6.00 Build 0)  -->
<svg version="1.0" xmlns="http://www.w3.org/2000/svg" xmlns:xlink="http://www.w3.org/1999/xlink" x="0px" y="0px"
	 viewBox="0 0 3000 3000" style="enable-background:new 0 0 3000 3000;" xml:space="preserve">
<style type="text/css">
	.st0{stroke:#000000;stroke-width:10;stroke-miterlimit:10;}
</style>
<g id="Layer_1">
</g>
<g id="Layer_2">
	<g>
		<path class="st0" d="M1792.4,1319.5c4.8-16.1,8.2-27.8,11.8-39.4c59.9-192.3,200.8-299.1,386.4-346.5
			c230.4-58.8,442.8-4.4,631.9,135.8c81.3,60.2,121,147.6,129.3,248.6c15,182-51.5,338.8-154.2,482.4
			c-49.8,69.6-132.6,86.6-211.8,52c-58.1-25.4-112.9-57.6-172.3-80.4c-94.2-36.2-192-48.7-292.1-48.9c-41-0.1-81.8,3.3-122.9-0.6
			c-104.6-10-173.3-66.1-203.1-167.5c-3.7-12.6-6.6-25.5-11.9-45.9c-11.2,27-20,47.7-28.3,68.6c-22.7,57.4-54.4,91.2-126.6,83.9
			c-88.3-8.9-178.1-1.9-267.3-2.3c-16.2-0.1-27.6,0.6-34.5,20.2c-13,36.9-46.7,31.9-75.8,28.6c-110.3-12.5-220.5-8.8-330.8-1.3
			c-24.4,1.7-49.4,3-73.6-0.2c-85.8-11.1-137.1-72.2-145.7-171c-1.2-14.3-2.8-28.9-1.1-43c3.4-27-5.8-33.4-32.2-28
			c-101.1,20.8-145.1,73.4-145.6,177.4c-0.2,41,1.4,82-0.5,122.9c-4.3,90.7-52.8,143.8-141.4,157.7
			c-178.8,28.1-313.7-128.4-258.2-300.5c6.7-20.7,4.6-33.6-9.7-51c-114.5-139.1-77.5-367.5,76.6-479.6
			c94.5-68.7,202.9-99.9,317-114.7c3-0.4,6.1-0.5,9.2-0.8c76.9-5.1,155.6-2.6,221.9-52.6c133.6-29.9,265.3-43.2,386.4,41.9
			c2.5,1.8,5.6,3.3,7.2,5.7c30.9,49.4,69.6,38.6,117.7,24.8c226.4-65,432.9,35.3,519.9,248.1
			C1777.4,1266.8,1783.2,1290.7,1792.4,1319.5z M2157.6,997.6c-213.3,66.1-348.5,269.3-324.6,484.8
			c11.6,104.4,62.5,200.3,208.9,189.7c31.6-2.3,63.5-0.6,95.3-0.3c93.8,0.9,185.6,13.5,274.4,45.1c64.7,23.1,125.4,54.9,187,84.7
			c62.9,30.4,114,20,159.5-32.3c22.3-25.6,41.5-53.7,55.5-84.5c30.1-66.1,58.3-133,77.2-203.5c17.8-66.6,18.5-133.9,4.1-200.7
			c-22.4-103.9-86.3-175.1-180-222.4c-1.9,3.7-2.6,4.5-2.7,5.3c-0.5,11.2-0.6,22.5-1.3,33.8c-7.5,121.1-52.2,222.2-157.6,290.1
			c-62.8,40.4-130.5,65.6-206.2,53.7c-112.2-17.6-174.9-91.2-207.4-194.1C2113.6,1164.1,2118.9,1081.8,2157.6,997.6z M1046.5,1648.5
			c68.7-2.4,137.1,1.3,205.2,9.8c21.1,2.6,31.4-1.2,35.8-24.1c10-52.2,10-103.5-1.5-155.4c-5.8-25.9-13.3-46.3-44.9-47.6
			c-14.6-0.6-26.4-10.7-36.1-21.6c-22.9-25.8-24.3-58-24-89.7c0.6-53.2,5.1-106.3-0.6-159.6c-8.1-76.4-46.2-134.8-112.2-169.2
			c-110.2-57.5-226.3-51-338.2-6.8c-86.7,34.2-98.4,67.7-84.9,159c4.7,31.7,19.4,43.6,49.6,42.9c40.9-0.9,81.9,0.3,122.8-1.2
			c27-1,48.3,9.3,64.7,29c37.3,44.8,43,96.2,26.8,150.4c-14.3,47.7-50.7,66.5-97.4,70.4c-9.2,0.8-18.2,3.2-27.3,4
			c-25.5,2.3-37.1,14.1-34.6,41.5c2.1,23.3,1.4,46.8,5.5,70.3c13.4,76,54.9,110.1,131.9,106.3
			C940.2,1654.4,993.3,1651.4,1046.5,1648.5z M1513.3,1607.1c0,0.2,0,0.3,0,0.5c48.1,0,96.3-0.6,144.4,0.3
			c16.4,0.3,25.1-5.4,33.8-19.6c85.1-139.3,70.2-316.4-42.1-441.2c-114-126.5-272.7-146.7-425.1-91.5c-14,5.1-16.7,11.1-11.1,24.8
			c19.6,48.4,21.9,99.6,22.1,150.9c0.1,37.8-1.5,75.7-1.3,113.5c0.2,21.1,6.9,36.2,32.7,39.7c33.2,4.5,53,25.4,62.7,58.9
			c13.2,45.9,19.4,92.1,16.2,139.4c-1.3,19.1,4.7,25,23.5,24.6C1417.1,1606.5,1465.2,1607.1,1513.3,1607.1z M341.2,1874.2
			c85.5,0.8,127.1-38.2,130.5-123.3c1.9-48.1-3.4-96.2,1-144.4c8.5-92.2,62.8-164.1,151.4-183.2c62.6-13.5,124.4-32.3,188.2-39.8
			c30.9-3.6,45.5-19.7,51.6-47.4c5.7-26.1,1.6-50.8-10.8-74.4c-9.4-17.8-22.7-27.1-44.2-26.5c-47.9,1.5-95.8,6.9-143.8,0.4
			c-9.7-1.3-20.3,1.6-30.2,3.7c-158.5,34.6-279.7,120.8-362.7,260.9c-23.1,39.1-40.9,83.4-86.2,105c-5.2,2.5-7.8,11.6-10.5,18.1
			C123.2,1748.8,205.3,1873,341.2,1874.2z M2377.6,963c-53.8-0.2-89.5,2.3-125,7.8c-14.2,2.2-24.4,7.7-32.1,20.4
			c-41.6,68.9-57.7,141.7-38.2,221.2c27.6,112.1,108.9,187.2,202.8,179.9c106.4-8.3,187.6-60.3,238.6-155.2
			c28.8-53.6,34.3-112.7,38.5-172.4c2-27.6-9.1-40.7-33.2-49.1C2541.9,985,2453.2,961.7,2377.6,963z M601.6,1022.4
			c-28.1-3.9-53.5,1.3-78.6,4.3c-118.5,14.3-230.2,46.3-325.4,123.3c-131.7,106.7-112.2,278.2-57,373.7
			c22.5,38.9,32.5,38.4,56.5,1.3c27.2-42.1,51.1-86.3,82.2-125.8c78-99.1,178.8-164.1,299.5-198.2c20.3-5.7,25-12.5,20-33.8
			C587.7,1119.5,580.6,1070.8,601.6,1022.4z"/>
	</g>
</g>
</svg>
