<?xml version="1.0" encoding="utf-8"?>
<!-- Generator: Adobe Illustrator 23.0.0, SVG Export Plug-In . SVG Version: 6.00 Build 0)  -->
<svg version="1.0" xmlns="http://www.w3.org/2000/svg" xmlns:xlink="http://www.w3.org/1999/xlink" x="0px" y="0px"
	 viewBox="0 0 3000 3000" style="enable-background:new 0 0 3000 3000;" xml:space="preserve">
<style type="text/css">
	.st0{stroke:#000000;stroke-width:10;stroke-miterlimit:10;}
</style>
<g id="Layer_1">
</g>
<g id="Layer_2">
	<g>
		<path class="st0" d="M731,434.7c-31.1-61-46.7-122.8-30.8-189.3c13.2-55.1,57.5-85.2,104.9-61.6c129.9,64.6,261.9,44,395.3,20.4
			c87.9-15.6,175.9-33.6,265.9-16.8c47.2,8.8,91.7,23.6,125.5,62.2c17.4-31.3,44.8-42,77.6-43.5c135.5-6.1,270.9-12.1,405.9,10.2
			c44.4,7.3,88.7,3.3,124-31.1c0.7-0.7,1.6-1.2,2.5-1.8c68.5-44.9,117-55.3,152.8,43.1c14.5,39.8,30,79.2,25,122.4
			c-2.5,21.5,5.8,25.4,25.3,24.8c104.9-3.2,207.1,11,304.8,51.2c59.7,24.5,113.6,57.7,156.4,107c61.2,70.4,73.9,149.6,39.8,235.7
			c-30.3,76.5-79.4,139.3-146.7,186.5c-21.1,14.8-28.4,19.8-2.8,40.2c139.9,111.8,168,312.3,53.9,443.8c-14,16.1-5.5,24.7,3.4,36.1
			c57.8,74.3,99.4,156.2,112.3,250.3c15.2,111.4-17.9,203.6-114.4,267c-18.1,11.9-16.6,18.3-5,33.9
			c98.5,131.7,116.7,276.2,59.6,428.7c-37.7,100.8-113.2,159.3-221.2,172.6c-111.3,13.7-222,10.2-330.5-19.6
			c-23.5-6.4-34.6-0.3-48.1,17.7c-78.4,105-176.2,184.1-305.5,217.4c-84,21.7-170.8,25-256.8,32.1c-91.2,7.5-182.7,12.4-274.1,16
			c-234,9.3-447.9-49.4-635.6-192.9c-11.3-8.7-21.4-10-34.1-6.4c-146.2,42.1-290.8,28.7-434-14.5c-57.6-17.4-111.6-43-153.6-87.9
			c-74.9-80.1-81.4-173.9-50.7-273.5c20-65,56-121.1,102.6-170.2c10.4-11,13.2-17.4-0.2-28.7c-167.1-141.3-143.8-371,0.1-508.8
			c5.9-5.6,12.6-10.4,18.3-15c-4.6-11.8-13.3-13.2-19.9-17C99.8,1503.3,53.6,1390,91.7,1252.1c25.4-92.2,77.5-167.4,149.4-229.1
			c16.4-14.1,18.2-22.1,1.8-37.3c-14.9-13.8-27.2-30.9-38.2-48.1c-68.3-107.3-58-203.4,33.2-292.2
			c91.7-89.3,206.7-136.1,326.7-172.6C618.6,456.4,674.2,446.3,731,434.7z M2334.2,2385.1c4.1-4.6,6.7-6.3,7.6-8.7
			c34.9-99.1,69.5-198.4,74.3-304.8c14.4-320.8,17.5-641.7,13.5-962.7c-1.1-88.6-7-175.8-55.5-255.5
			c-87.4-143.7-201.3-257-358.1-322.3c-60.4-25.1-123.1-34-185.2-2.8c-68.8,34.6-120.4,85-144.4,160.3
			c-5.6,17.5-12.5,34.7-19.1,51.9c-7.7,20.1-19.1,37.1-42.4,40.3c-25,3.5-40.9-11.6-53.1-30.2c-17.5-26.6-32.6-54.8-50.3-81.3
			c-65.5-98-224.6-196.3-390.4-124.1c-109.4,47.6-198.6,119.9-272.9,211.2c-67.5,82.9-123.5,172.4-137.2,281.7
			c-9.4,74.5-14.7,149.4-18.6,224.4c-7.4,141.8-13.3,283.5-4.4,425.6c10.3,164.4,10.8,328.9,6.3,493.6c-2.5,93.5-11,187.1,1.4,280.5
			c5.2,39.4,20.2,75.2,47.5,111c1.2-9.2,1.9-12.1,1.9-15.1c2.1-400.4,287.6-715.7,616.5-790.2c15.3-3.5,21.6-11.7,24.9-26.3
			c35.1-156.1,70.5-312.2,106.2-468.2c9.8-42.8,20.6-85.4,31-128.1c46.8,192.2,88.8,383.5,129.3,575.1c5.4,25.4,15.4,36.4,41.3,42.5
			c310.4,72.7,513.1,263.5,613.6,564.7C2323.8,2345.7,2328.3,2364.2,2334.2,2385.1z M1452.4,2838c129.5-3.7,258.6-15.5,387.5-27.8
			c71.6-6.8,141.9-20.2,206.5-56.5c106.9-60.1,181.9-149,239.9-254.6c6.7-12.2,8.9-24.5,7.2-38.5c-9.9-81.4-33.3-158.7-69.2-232.3
			c-141.6-290.1-453.2-465.7-756.4-426.4c-399,51.7-692,414.7-659,815.6c1.7,20.5,9.1,34,24.6,46.2c76,60.2,163.6,98.3,253.7,130.5
			C1205.4,2836.5,1328.2,2843.3,1452.4,2838z M957.8,585.7c-60.5-21.1-114.9-47.8-162.6-85.8c-18-14.3-35.4-17.6-56.8-13.9
			c-86.2,15-171,35.6-252.5,67.9c-80.8,32-157.6,71.3-218.7,135c-31,32.3-56.4,68.4-55.6,116.5c1.4,77.7,69.5,172.9,144.6,193.8
			c95,26.4,193.3,37.9,290.4,54.3c14.3,2.4,20.3-1.5,22-16.6c11.9-105.7,62.5-194.6,122.9-279C837.9,693.3,894,637.7,957.8,585.7z
			 M2160.5,544.6c5.5,12,17,15.8,25.5,22.6c132.6,105.6,242.9,227.3,284.5,397.8c3.5,14.3,11.3,15.1,21.6,15.1
			c161,1.1,301.5-70.7,368.1-237.4c26-65.1,14.1-125.2-33-177.4c-28.5-31.6-62.5-56.2-100.4-75.4c-108.4-55.1-224.5-69.6-344.2-65.2
			c-13.3,0.5-22.3,5-30.4,16.7c-34,48.8-81.9,76.2-139.9,87.3C2194.8,532,2176.4,533.8,2160.5,544.6z M642.3,1344.8
			c1.4,0,2.8,0,4.2,0c3.6-68.8,5.5-137.8,11.7-206.4c2.4-26.8-6.9-32.1-30.1-36.2c-104-18.2-209.8-28.2-310.8-61.6
			c-10.5-3.5-17.3-0.7-25,5.5c-74.2,59.6-128.9,132.9-152.9,225.9c-30,116.1,10.3,209,117.6,262.3c113.6,56.4,234.4,72,360.1,52
			c21.5-3.4,26-11.7,25.7-31.8C641.6,1484.7,642.3,1414.8,642.3,1344.8z M642.2,1634c-96.1,20.9-191.3,17.6-282.2-9.5
			c-55-16.4-87.4-0.9-118,38.8c-3.8,4.9-8.2,9.3-12,14c-85.6,105.2-94,249.5-20.4,348.6c93.3,125.7,281.3,177,426.9,117.4
			c14.4-5.9,17.9-14.1,18-27.6c0.2-42.1,1.4-84.3,1.4-126.4C655.6,1871.4,650.4,1753.5,642.2,1634z M740.8,2642.5
			c-87.5-93-97.9-203-91.9-317.7c1.9-35.9,0.3-72,1.8-107.9c0.7-17.5-1.1-24.4-21.5-17.8c-114.5,37-224.8,23.9-330.4-31.9
			c-11.8-6.2-19-6.6-28.8,3.7c-49.7,52.3-87.4,111.6-105.4,181.9c-28.1,109.7,12.1,196.9,113,248.7c32.2,16.5,66.3,27.5,101.1,36.4
			C496.7,2668.2,615.1,2678.1,740.8,2642.5z M1586.9,677.2c0-105.8,3.6-209.4-1.3-312.5c-3-62.6-39.2-105.2-104.4-121.2
			c-46.9-11.5-93.1-12.6-140.6-8.8c-83,6.8-163.6,28.1-246.1,38.5c-102,12.8-200.5,9.3-294.6-37.7c-30.8-15.4-45.2-7.7-50.5,27.8
			c-10.9,72.7,6.6,137.8,64.5,186c47.6,39.6,101.6,68.7,161.7,86.6c26.2,7.8,47,7,71.9-7c139.6-78.6,278.4-84.7,414.6,10
			C1514.4,575.3,1556.5,620.4,1586.9,677.2z M2536.4,2582.4c22.3-1.2,53.1-2.4,83.9-4.5c99.3-6.9,169.1-55.9,201.4-150.4
			c47.3-138.4,27-266.9-64.1-383.2c-11-14-20.3-11.5-34.1-6.3c-76.2,28.8-153.7,52.5-236.2,53c-17.8,0.1-22.6,7.8-24.4,23.3
			c-3.2,27.5-5.9,55.3-12.5,82.1c-28.9,117.9-66,232.9-125.9,339.3c-8.8,15.6-5.8,20.6,10.9,24.5
			C2398.8,2574.7,2462.8,2582.9,2536.4,2582.4z M2480.8,1796.4c-4.8,117.8-8.4,202.9-10.2,221.9c-0.3,3.2-1.4,13.5,4.6,19.1
			c3.3,3,8.7,4,17.2,3.2c102.6-9.4,200-35.2,288.2-90.1c76.4-47.5,104.9-118.5,96-205.5c-9.3-90.7-49.3-168.6-103.7-240.2
			c-8.8-11.6-15.6-16.1-29.8-6.4c-72,49.2-152.2,65.3-237.8,54.1c-19.9-2.6-25,2.6-24.8,21.8
			C2481.3,1648.4,2480.8,1722.4,2480.8,1796.4z M1641,636.6c2.6,0.6,5.2,1.3,7.8,1.9c2.1-3.1,4.5-6.2,6.3-9.5
			c81.1-147.7,233.6-218.7,408.3-133.5c25.8,12.6,47.7,17.8,74.3,2c20.1-11.8,44-16,67.5-20.2c83-15,130.4-74.5,123.8-153.7
			c-2.2-27-12.6-51.8-22.2-76.6c-21.2-54.9-27.7-58.6-73.5-21.4c-49.6,40.3-105.7,51.4-164.7,41.8
			c-131.1-21.4-262.5-11.4-393.9-10.9c-24.1,0.1-34.5,9.1-34.3,34.9C1641.6,406.4,1641,521.5,1641,636.6z M2483.2,1276.5
			c0,49.3,1.1,98.7-0.2,148c-2.2,79.9-2.7,80,78.6,79.6c119.9-0.6,231.6-83.9,260.3-194.3c28.9-110.9-27.1-239.6-129.5-298.6
			c-12.4-7.1-23.7-9.9-37.8-4.6c-48.6,18.4-99.9,24.3-151.3,25.3c-23.6,0.5-26.6,8.8-24.7,29
			C2485.3,1132.5,2483.9,1204.5,2483.2,1276.5z M1537.4,1384.5c-2.2,0.2-4.5,0.5-6.7,0.7c-27,117.7-54,235.4-81.2,353.1
			c-4,17.1,7.8,13.3,16.1,12.5c44.1-4.4,88.2-8.2,132.4-3.1c19.6,2.2,16.9-9.7,14.5-21C1587.5,1612.6,1562.4,1498.6,1537.4,1384.5z"
			/>
		<path class="st0" d="M1243.6,1161.8c-0.7,79.1-62.2,139-142.5,138.8c-78-0.2-141.3-64.5-140-142.1
			c1.4-78.2,65.8-141.2,143.2-139.9C1183.1,1020,1244.3,1082.9,1243.6,1161.8z M1013.6,1158.5c-0.4,50.5,38.9,91.2,88.4,91.7
			c49.3,0.4,90.9-40.6,91-89.8c0.1-48-39.7-88.5-87.8-89.2C1053.4,1070.4,1014,1108,1013.6,1158.5z"/>
		<path class="st0" d="M1989.2,1300.6c-80,0-141.3-60.4-141.6-139.4c-0.4-78.6,61.7-141.7,140.1-142.4
			c77.5-0.7,141.8,62.8,142.5,140.8C2130.8,1237.4,2067.7,1300.6,1989.2,1300.6z M1988.6,1071.2c-49.7-0.2-90.9,40.5-90.4,89.6
			c0.4,48.1,40.2,88.2,88.4,89.3c49.2,1.1,90.5-39.2,91.1-89C2078.4,1110.3,2040,1071.5,1988.6,1071.2z"/>
		<path class="st0" d="M1562.4,2189.3c90.5,0,162.3,71.5,162.4,161.8c0.1,90-71.7,162.8-161.6,163.9
			c-89.8,1.1-165.5-74.6-164.7-164.5C1399.4,2260.8,1471.9,2189.4,1562.4,2189.3z M1562.1,2462.7c61.4-0.1,112-50.4,111.9-111.2
			c-0.1-61-51-111.5-112.1-111.4c-61.7,0.1-111.1,49.8-111.1,111.7C1451,2414.2,1499.6,2462.7,1562.1,2462.7z"/>
	</g>
</g>
</svg>
