<?xml version="1.0" encoding="utf-8"?>
<!-- Generator: Adobe Illustrator 23.0.0, SVG Export Plug-In . SVG Version: 6.00 Build 0)  -->
<svg version="1.0" xmlns="http://www.w3.org/2000/svg" xmlns:xlink="http://www.w3.org/1999/xlink" x="0px" y="0px"
	 viewBox="0 0 3000 3000" style="enable-background:new 0 0 3000 3000;" xml:space="preserve">
<style type="text/css">
	.st0{stroke:#000000;stroke-width:10;stroke-miterlimit:10;}
</style>
<g id="Layer_1">
</g>
<g id="Layer_2">
	<g>
		<path class="st0" d="M2414,707c20.1-29.9,37.3-58.8,57.7-85.2c47.9-62,108.4-103.7,188.6-113.3c104.9-12.6,227.4,51.8,275.7,145.8
			c25.2,48.9,21,98.2,4.8,148.1c-26.2,81.1-53.1,161.9-67.9,246.2c-11.7,66.5-13.7,133.7-17.8,200.8
			c-16,263.3-48.4,523.8-137.8,774.1c-46.3,129.6-112.5,246.1-223.5,332.3c-104.4,81.1-225.7,121.8-353.5,145.9
			c-62.3,11.7-125.7,13.1-188.8,13.4c-236.4,1.2-472.8,0.5-709.1-9.2c-91.8-3.8-183.7-7-275-18.6c-29.6-3.8-57.9-11.9-84.3-25.6
			c-58.1-30.3-80-89.9-54.4-149.9c4.9-11.4,2.6-16.6-5.3-24.7c-57.7-58.5-55.4-132.9,5.1-188c5.4-4.9,15.2-7.3,5.7-18.5
			c-47.7-55.9-41.3-120.4-24.8-184.4c7.6-29.3,13.4-54.3-3.9-83.3c-16.5-27.7-18.2-61.2-12.9-93.5c11.1-68.8,54.3-106.9,127.9-114.2
			c38.8-3.9,38.3-3.7,23.4-39.4c-116.9-279.9-129.2-561.4-0.1-839.7c123.7-266.5,338.1-416.5,627.8-456.1
			c238.3-32.5,454.7,22.7,641.5,178.3C2298.1,518.8,2362.8,606.2,2414,707z M2108.7,2464.4c-16.5-16.1-29.7-28.3-42.1-41.3
			c-61.9-65-107.4-139.2-120.4-229.4c-15.6-108.6,17.1-203.4,90.8-283c83.1-89.7,183.6-157,294.1-206.8
			c140.7-63.4,274.9-42.2,399.1,47.3c13.3,9.6,18.1,12.2,22.6-7.6c29-127.6,40.1-257.5,53.5-387.2c9.3-90.6,6.3-182.2,20.3-272.3
			c3.6-23.3-2.7-29.5-23.6-35.8c-117.5-35.7-178.6-130.6-155.1-250.5c16-81.2,52.6-153,104.6-217.1c4.4-5.4,11.9-9.3,10.9-18.5
			c-65.6-22-130-20.2-188.2,19c-72,48.4-120.2,117.4-143.1,200.1c-31.5,113.5-50.5,230.4-94.4,340.4
			c-31.3,78.3-58.9,158.4-114.2,224.7c-72.6,87-164.2,148.1-265.9,194.9c-262.2,120.8-537.3,150.9-821.7,116.3
			c-65.9-8-132-15.3-198.8-12.9c-78,2.8-116.5,50.6-102,127.3c10.6,56.1,47.1,86.5,100.2,98.9c47.3,11.1,95.7,15.1,144.2,15
			c134.6-0.2,269.3,2.2,403.9-3.9c68.9-3.1,137.9-3.7,206.8-7.3c21.6-1.1,18.6,11.9,20.6,24.6c2.1,13.5-3.5,16.3-16.1,16.8
			c-216.6,8-433.2,15.4-650,9.8c-65.3-1.7-129.4-9.1-187-43.7c-15.2,36.3-21.7,81.3-17,116.3c6.2,46.3,33.5,73.3,79.6,80.3
			c38.5,5.8,77,3.8,115.5,2.5c140.3-4.6,280.6-9,421-8c12.3,0.1,25.4-4.4,25.6,18c0.1,22.3-10.3,22.3-26.8,22.6
			c-123.1,2-246.3,4.9-369.4,6.9c-63.8,1.1-128,8.8-191.2-6.3c-7.3-1.7-13,1.3-18.7,3.7c-59.7,25.3-70.3,101.7-20.3,143.3
			c8.3,6.9,15.5,9.7,26.5,4.9c22-9.4,45.5-13.4,69.3-16c130.4-14.8,260.6-7.7,390.9,3c20.2,1.7,25.1,6,21.9,27
			c-3.9,25.4-20.7,14.6-31.3,13.6c-85.1-7.8-170.4-11.7-255.8-10c-56.6,1.2-113.3,1.5-168.6,16.5c-24.1,6.5-45,17.9-48.6,45.8
			c-4,31,6.1,56.8,33.3,74c18.2,11.5,38.5,18.2,59.5,22.4c74.4,15.1,150.2,14.8,225.4,19.1c255.9,14.4,512.2,11.9,768.3,11.9
			C1999,2473.3,2051.3,2472.3,2108.7,2464.4z M1656.5,1557.3c16.4,0,32.9-0.8,49.2,0.1c135.8,8,245.7-42.8,328-149.8
			c132-171.6,175.1-367.3,138.6-578.2c-25.6-148-115.9-242.8-264.9-276.9c-41.6-9.5-84.1-13.8-126.3-19.4
			c-84.6-11.2-169-11.9-251.7,10.6c-180.6,49.2-293,171.4-353.1,343.6c-39.1,112-37,229.2-27.5,345.9
			c4.3,53.2,21.4,102.8,52.3,146.6c64.2,90.9,155.7,138.6,261.9,160.5C1526.6,1553.6,1591.6,1555.6,1656.5,1557.3z M1647.3,1598.5
			c-6-1.5-7.4-2.1-8.9-2.2c-16.4-0.5-32.8-0.8-49.2-1.2c-121.4-2.8-236-28-335.5-102.3c-71.8-53.6-120.4-123-138.2-211.3
			c-23.8-118.4-20-237.9,7.3-354.4c56.8-242.5,251-443.6,550.1-442c72.5,0.4,144,10,215.2,21.6c170.7,27.8,287.5,133.2,321.8,302.8
			c42.4,209.7,1.3,405.7-114.8,585.7c-4.5,7-8.9,13.9-13.4,20.9c19.9-9.6,35.6-22.4,51.4-35.1c80.4-65.2,119.8-156,156.9-248.8
			c47.1-117.8,72.6-241.4,101.6-364.1c2.1-8.8-1.2-16.1-4.8-23.5c-43.6-91.2-99.8-173.8-174.4-242.2
			C2034.6,339.4,1823,280,1586.9,309.2c-282.1,34.9-490.4,179.6-608.6,440c-126.1,278.1-107.2,556.4,17,831.1
			c8.2,18.2,18.4,26,38.5,25.6c20.4-0.4,40.9,2.7,61.2,5.2c156.9,19.1,313.9,28.4,471.1,3.4
			C1592,1610.4,1618.8,1610.2,1647.3,1598.5z M1983.3,2147c-0.6,20.4,2.6,43.9,8.3,67.1c22.9,92.4,81,161.2,149.1,223.9
			c16.9,15.5,32.5,17.8,52.8,10.7c19.3-6.8,39.4-10.9,59-16.9c145.2-44.6,265.3-123,346.9-254.8c68.4-110.4,102.7-233.5,136.1-357.1
			c2.4-8.8-1.2-13.6-7.5-18.7c-101.5-82.7-215.6-118.3-341.9-73.9c-128.7,45.3-239.2,122.5-330.2,224.7
			C2008.2,2005.7,1983.2,2070.4,1983.3,2147z M2683.4,832.7c1.2,107.3,60.6,155.2,140.1,179.9c12.2,3.8,15.4-2.2,17.6-13
			c14.4-71.5,38-140.3,60.3-209.5c26.9-83.3-4.1-159.3-81.5-201.5c-8.6-4.7-14.4-5.4-21.2,2.2
			C2733.5,662.7,2694.5,746.4,2683.4,832.7z"/>
		<path class="st0" d="M193.1,1632.4c70.3-38.6,137.5-20.7,204.4-10.1c67.2,10.6,131.3,35.2,199,43.3c44.2,5.3,88.4,6.7,132.7,3.5
			c12.7-0.9,22.5-0.4,22.7,16.8c0.2,14.5,0.2,23.9-19.2,25.1c-81.9,5.2-162.2-3.5-241.2-24.8c-58.6-15.8-118-27.7-178.2-35.6
			c-50.6-6.6-94.7,3.2-127,46.5c-9.2,12.3-20.7,23.2-37.4,15.3c-18.4-8.7-15-26.1-10.9-41c29.7-109.4,83.5-206.2,155.6-293.2
			c18.8-22.7,39.1-44.2,59.9-67.6c-45.9-25.6-86.9-56.6-121.7-95.2c-66.6-73.8-104.3-161-112.8-259.4
			c-12.3-142.5,5.8-281.1,77-407.1c75.1-132.9,194.2-206.4,343.9-227.7c131.3-18.6,249.4,70.8,285.5,210.6
			c11.4,44.3,13,89.2,9.5,134.4c-0.8,10.1,2.5,25.9-17.6,20.2c-12.3-3.5-28.4,2.1-24-23.9c8.6-51.7,0.9-103.2-18-152.3
			C726.8,384.3,609.1,331.5,476,375.9C309.2,431.4,211.2,547.6,176,718.4c-19.5,94.6-29.8,189.7-8.2,285.5
			c38.2,169,174.9,292.7,347,315.2c58.8,7.7,117.6,10.3,176.3,0c19.9-3.5,23.3,8.3,25.8,22.9c3.3,19.3-10.5,14.8-21.4,16.8
			c-98.4,17.9-194.2,7.2-288-25.5c-9-3.1-14.6-2.5-21.5,4.4C302.4,1420.8,236.9,1515.7,193.1,1632.4z"/>
		<path class="st0" d="M46,2172.8c2-98.1,31.4-209.6,113.2-302.2c96.5-109.2,280.1-154.4,413.4-103.3
			c86.8,33.3,139.6,97.3,167.9,184.1c4.2,12.8,2.4,21.2-12,22.1c-9.6,0.6-20.9,14.4-27.6-8.2c-43.3-145.2-165.1-188.1-282.2-175.7
			c-203.3,21.6-300.5,155.7-326.6,334.2c-14.4,97.9-3.6,193,43.8,282c40.7,76.3,105.4,115.9,190.3,120.1
			c154.9,7.7,288.8-41.2,396-155.4c13.5-14.4,19.9-8.6,31.4,0.4c13.5,10.5,9.3,17.2-0.2,27.1c-129.2,134.6-287.1,188-470.7,162.8
			c-80.9-11.1-139.2-59.2-179.4-128.9C60.9,2358.8,45.8,2278.9,46,2172.8z"/>
		<path class="st0" d="M569.3,1103.1c25.2,0.9,56-4.9,85.1-16c23.6-9,17.8,11.3,23.6,19.8c9,13-1.1,16.5-10.9,19.6
			c-52.3,16.6-105.6,24.5-160,13.6c-81.3-16.3-136-65.6-167.8-140.8c-61.2-144.5-18.6-338.8,97.7-444.1
			c50.4-45.6,110.8-70.3,178.3-73.4c82.5-3.9,136.2,53.9,129.5,136.6c-1.3,16.2-4.7,32.5-9,48.2c-7.9,28.6-8.9,28.1-35.1,16.5
			c-10.8-4.7-12.6-9-7.7-19.4c8.5-18.1,10.9-37.7,10.4-57.6c-1.4-58.6-38.1-91.2-96.4-83.5c-72.2,9.6-133.3,40.8-177.2,99.9
			c-77.8,104.8-95.8,221.1-58,344.9C399.6,1057.5,471.5,1106.3,569.3,1103.1z"/>
		<path class="st0" d="M293.4,2152.7c-0.2-126.8,75-238.6,179.1-280.4c82.3-33.1,144.6-3.7,170.6,80.5c2.5,8.2,8.5,18.8-6.8,19.2
			c-10.6,0.3-26,18.4-31.9-4.5c-20.8-81-81.4-78.5-137.8-46.7c-109.4,61.7-157.5,180.9-119.8,298.6c30,93.5,99.6,120.3,183.9,70.5
			c12.7-7.5,26.1-14.9,36-25.4c16.9-18.1,23.2-0.4,32.8,7.3c13.6,10.9,1.6,16.3-5.1,22.2c-29.1,26.1-61.4,46.3-99.7,56
			c-65.5,16.6-123-5.4-160.5-61.7C304.1,2243,294.4,2191.9,293.4,2152.7z"/>
		<path class="st0" d="M539.9,1448.5c-35.2,0-70.5-0.9-105.7,0.4c-16.9,0.6-18.2-7.4-18.1-20.7c0.1-13,0.6-20.9,17.9-20.7
			c70.5,1,141,1,211.4,0c16.9-0.2,18.2,7.1,18.1,20.4c-0.2,12.9-0.5,21.6-17.8,21C610.4,1447.6,575.1,1448.5,539.9,1448.5z"/>
		<path class="st0" d="M1656.6,1017.8c-108.1-5.3-199.8,17.4-277.2,85.1c-48.6,42.5-83.7,94.6-104.8,155.2c-8.6,24.6-21,11-33.5,8.6
			c-20.7-3.9-7.6-16.5-4.9-23.7c64.5-175.1,222.7-277.9,410.5-267.5c51.6,2.8,103.3,4,154.3,13.3
			c189.3,34.7,244.9,184.3,201.9,342.8c-2.9,10.5-8.1,13.7-17.2,8c-8.6-5.3-27.7,1.7-22.7-19.8c4.8-20.7,10.2-41.2,11.4-62.8
			c6.8-128.1-56.2-206.9-183.2-228.2C1744,1020.8,1696.5,1017.9,1656.6,1017.8z"/>
		<path class="st0" d="M1549.8,763.7c-0.6,54.7-44.8,97.9-99.8,97.3c-54.7-0.5-98-44.7-97.4-99.6c0.5-54.6,44.8-97.9,99.7-97.4
			C1507,664.5,1550.4,708.9,1549.8,763.7z M1451.2,704.8c-31.2,0-58.3,27.4-57.9,58.4c0.4,30.1,26.5,56.4,56.7,57.1
			c31.1,0.7,58.7-26,59.1-57.2C1509.5,732,1482.4,704.8,1451.2,704.8z"/>
		<path class="st0" d="M1645.3,1359c-55.2,0.3-99.1-42.6-99.3-97c-0.1-53.9,44.7-99,98.7-99.3c54-0.3,98.5,44.2,98.6,98.8
			C1743.5,1317.3,1701.9,1358.7,1645.3,1359z M1646.9,1205.2c-33.7-0.8-58.4,22.3-59,55.3c-0.6,32.4,24.4,58.4,56.5,58.7
			c31.2,0.3,56.8-23.9,58-54.9C1703.7,1231.7,1679.5,1205.9,1646.9,1205.2z"/>
		<path class="st0" d="M1819.5,761.8c0.4-55.2,43.8-98.2,99-97.8c54.4,0.4,98.9,45.2,98.3,99.3c-0.6,54.4-45.1,98.1-99.7,97.8
			C1861.9,860.7,1819.1,817.1,1819.5,761.8z M1974.9,761.3c-0.6-32.5-26.7-57.3-59-56.1c-31.6,1.1-55.6,25.8-55.6,57.2
			c0,32.3,25.5,57.6,58,57.4C1950.5,819.7,1975.4,794,1974.9,761.3z"/>
		<path class="st0" d="M2394.8,1905c57.2-0.3,100.6,41.8,100.8,97.8c0.2,55.4-44.3,99.8-99.9,99.9c-56.2,0-100.6-43.5-101-98.9
			C2294.3,1948.5,2338.1,1905.4,2394.8,1905z M2394.3,1944.9c-33.6,0.4-58.5,26.3-57.7,60.1c0.8,32,26.5,57.4,58.4,57.5
			c32.2,0.1,59.8-27.4,59.5-59.6C2454.3,1969.8,2428.1,1944.5,2394.3,1944.9z"/>
	</g>
</g>
</svg>
