<?xml version="1.0" encoding="utf-8"?>
<!-- Generator: Adobe Illustrator 23.0.0, SVG Export Plug-In . SVG Version: 6.00 Build 0)  -->
<svg version="1.0" xmlns="http://www.w3.org/2000/svg" xmlns:xlink="http://www.w3.org/1999/xlink" x="0px" y="0px"
	 viewBox="0 0 3000 3000" style="enable-background:new 0 0 3000 3000;" xml:space="preserve">
<style type="text/css">
	.st0{stroke:#000000;stroke-width:10;stroke-miterlimit:10;}
</style>
<g id="Layer_1">
</g>
<g id="Layer_2">
	<g>
		<path class="st0" d="M2486,1548.7c-2.5,132.6,8.8,298-3.9,462.4c-31.1,400.6-229.5,695.1-593.2,861.9
			c-616.2,282.7-1310-105.3-1419.5-754.6c-9.2-54.7-13.8-109.8-13.7-165.1c0.2-307.9-5.9-616.1,3.1-923.8
			c13.3-453,345.9-843.3,788.8-941.2C1793.4-32.4,2329.4,304,2459.1,848.4c18.7,78.6,26.4,158.4,26.7,239
			C2486.4,1230.4,2486,1373.4,2486,1548.7z M2432.8,1329.9c0-82.5-0.1-165,0-247.5c0.1-73.3-7.2-145.8-23.9-217.3
			c-139.9-599.9-790.9-921.8-1346.1-655.8c-358,171.5-543.2,467.1-553.8,865.7c-5,188.9-0.3,377.9-1.5,566.9
			c-0.2,27.7,7.3,32.8,33.3,28.7c114.7-17.9,229.1-14.2,341.8,14.4c158,40.1,285.6,121.4,355.8,275.1
			c37.1,81.3,48.1,168.4,46.8,256.7c-3.2,214.1-28.9,424.6-110.9,624.7c-7.7,18.7-3.3,24.6,15,30c188.4,55.2,376.4,55.4,564.5-1
			c17.1-5.1,20.9-10.5,14.4-28c-74.4-202.8-88.3-413.1-75.2-626.3c15.5-252.9,157.8-429.8,400.2-502.1c93.9-28,189.8-39,287.4-37.6
			c52,0.7,52,1.2,52-52.2C2432.8,1526.2,2432.8,1428,2432.8,1329.9z M508.3,1885c0,23,0,45.9,0,68.9c0,382.3,232,732.5,583.3,882.1
			c20.4,8.7,28.4,5,36.1-15.2c85.5-223.8,116.1-455.9,99.9-693.7c-8.7-128-64.4-235.4-172.4-308.8
			c-162.7-110.6-344.8-118.8-532.2-93.3c-14.3,1.9-14.9,11-14.8,22.3C508.4,1793.2,508.3,1839.1,508.3,1885z M2432.8,1907.9
			c0-64.7-0.8-109.6,0.4-154.4c0.5-19.1-5.9-24.8-24.9-25.2c-103.9-2.4-206.4,6.5-305.9,37.9c-183.4,57.9-305.7,174-344.9,367.2
			c-19.9,97.9-16.7,197.3-14.4,296.4c3.1,134.4,29.1,264.8,72.7,392c7,20.3,14.2,22.6,33,14.3c171.4-75.5,311.3-189.1,416.8-343.8
			C2389.8,2310,2442.8,2107.6,2432.8,1907.9z"/>
		<path class="st0" d="M1253.4,934.6c2.1-37.7,3.1-70,6-102.2c1.7-18.6-3.3-27.2-22.9-32.4c-61.8-16.4-119.2-43.6-172.8-78.4
			c-11.1-7.2-28.9-11.9-11.9-31.7c11.5-13.3,16-29.4,40.2-13.4c107.8,71,226.6,102.8,356,93.5c100-7.1,191.7-38.8,274-95.1
			c24.2-16.5,26.4,3.1,36.2,13c12.9,13.2,8.6,22.6-5.9,31.5c-41.9,25.5-84.3,50.3-131.1,65.7c-20.9,6.9-28.3,14.6-25.4,39.3
			c10.8,92.8,6.6,185.2-15.8,276.5c-28.8,117.4-153.1,164.9-253,96.3c-39.6-27.2-54.9-67.3-60.1-112
			C1261,1033.3,1257.5,981.3,1253.4,934.6z M1310.3,928.1c-1.4,56.3,0.5,112.6,12,167.9c10.2,48.7,43.1,75.2,95.2,78.2
			c52.7,3,89.9-18.5,105-65.2c29.7-92,30.6-186.5,21.4-281.7c-1.3-13.6-6.1-17.2-19.8-14.6c-63.9,12.5-128.3,15.4-192.9,6.8
			c-17.9-2.4-21.4,5.6-21.1,20.9C1310.7,869.7,1310.3,898.9,1310.3,928.1z"/>
	</g>
</g>
</svg>
