<?xml version="1.0" encoding="utf-8"?>
<!-- Generator: Adobe Illustrator 23.0.0, SVG Export Plug-In . SVG Version: 6.00 Build 0)  -->
<svg version="1.0" xmlns="http://www.w3.org/2000/svg" xmlns:xlink="http://www.w3.org/1999/xlink" x="0px" y="0px"
	 viewBox="0 0 3000 3000" style="enable-background:new 0 0 3000 3000;" xml:space="preserve">
<style type="text/css">
	.st0{stroke:#000000;stroke-width:10;stroke-miterlimit:10;}
</style>
<g id="Layer_1">
</g>
<g id="Layer_2">
	<g>
		<path class="st0" d="M907.4,223.1c37.7-64.7,96-87.2,164-91.2c109.5-6.5,215.2,4.1,306.4,73.7c32.6,24.9,58.7,55.6,75.1,93.3
			c42.3,97-16.7,181.7-122.5,175.9c-33.5-1.8-66.9-6.4-100.4-8.3c-33.2-1.9-65.3,3-94.7,20.3c-15.8,9.3-27.3,22.1-35.5,38.2
			c-14.9,29.4-10.9,39.4,19.2,52.6c352.3,154.9,412.5,616.1,119.8,856.4c-14.1,11.6-18.8,22.5-17.6,40.3
			c6.9,100.9,22.8,200.3,52.6,297c20.2,65.5,50.1,89.1,118.3,93.4c145.3,9.1,290.8,6,436.1,3.9c83-1.2,115.6-32.2,132.4-113.4
			c20.6-100,28.3-201.2,24.6-303.3c-0.5-14.9-8-22.3-18-30.6c-123.2-102-190.1-232.8-188.4-392.9c2.2-207.8,100.6-359.2,283.8-455.8
			c29.6-15.6,34-26.4,17.9-56.9c-22.8-43.3-63.8-54.1-107.8-58.2c-32.9-3.1-65.3,4.5-97.9,7.2c-20.1,1.7-39.9,3.6-60.2-0.5
			c-81.4-16.7-119.5-78.7-92.4-157.5c27.8-80.6,89.5-128.6,166.6-157.3c80.2-29.9,164-32.6,248.2-22.9
			c55.4,6.4,100.1,32.2,132.8,81.5c42.6-73.6,111.3-90.7,186.3-92.5c101.7-2.4,199.9,10.1,284,75.1c31.1,24,56.3,53.2,73,88.7
			c46.7,99.1-13.4,187.4-122.7,180.4c-31-2-61.9-6-92.9-8.1c-27-1.8-53.7,0.6-79.4,10.3c-24.5,9.3-43.9,24.3-55.9,48
			c-14.8,29.4-10.7,38.9,19.1,52.7c169.5,78.5,270.2,209,302.3,394.1c8.7,50.2,8.4,99.9,8.5,149.8c1.5,380.9,8.9,761.7,5.3,1142.6
			c-0.8,82.4-3.3,164.8-21.5,245.7c-35.8,159-123.7,275-278.2,336c-106.4,18.6-254,39.8-431,50.5c-191.7,11.6-220.5-1-502.9-2
			c-387.9-1.4-669.5,21.1-876.9-79.1c-77.3-37.4-120.9-80.5-143-105.3c-54.9-61.6-89.9-138.1-107.9-227.4
			c-15.9-78.8-15.1-158.9-15.2-238.7c-0.7-362.4-0.2-724.8-0.6-1087.2c-0.1-54.5-8.6-108.7-0.6-163.5
			c26.4-180,122.3-309.2,283-391.8c26.5-13.6,30.5-21.5,18.5-49c-21.2-48.4-64.2-60.5-111.2-64.8c-33-3-65.3,4.6-97.9,7.3
			c-20.1,1.7-39.9,3.5-60.2-0.7c-81.3-16.6-119.4-78.9-92.1-157.6c27.9-80.5,89.7-128.4,166.8-157.1
			c79.4-29.5,162.4-32.4,245.7-23.2C828.6,147.2,874.5,172.8,907.4,223.1z M2731.6,1270.9c-1.6-0.1-3.1-0.3-4.7-0.4
			c-11.6,17.5-21.5,36.4-35.1,52.1c-16.1,18.6-20,38.8-20.4,62.4c-3.3,193.3-6.1,386.6-12.1,579.9c-3.3,107.5,0.8,215.1-12.3,322.4
			c-24.3,199.6-148.4,314.3-349.1,339.8c-120.1,15.3-240.2,6.2-360.2,3.4c-221-5.1-442-11.5-663-19.5c-110-4-220.2-1.8-329.9-14.3
			c-97.1-11-182.1-44.4-246.5-121.4c-45.6-54.5-67.9-119.5-83.8-186.8c-35.5-150.2-51.2-303-57.1-457
			c-5.1-133.7-2.6-267.3,4.6-400.8c0.6-11.4,5.3-25.1-2.8-34.2c-27.1-30.3-52.1-62-77.4-102.5c0,13,0,18,0,23
			c0.1,307.8-0.3,615.5,0.7,923.3c0.2,62.1,1.4,124.4,9.3,186.3c22.1,172.6,133.6,309.9,310.1,347.8
			c100.9,21.7,202.7,28.9,305.4,30.1c333.7,4,667.5,8.1,1001.2,12c92.5,1.1,184.9-1.2,276.1-18.4
			c186.9-35.4,294.4-141.8,333.1-328.4c16.1-77.9,17.6-156.9,18.4-235.9c3.3-315.3-3.1-630.6-4.5-945.9
			C2731.5,1282.1,2731.6,1276.5,2731.6,1270.9z M1839.2,1026.1c-0.5,243.4,197.8,443.2,441.3,444.5
			c244.2,1.4,445.3-198.3,445.9-442.7c0.6-243.3-198-443.3-441.4-444.5C2040.6,582.2,1839.7,781.7,1839.2,1026.1z M1364.1,1043.1
			c0.5-243.5-198.5-443.6-442.2-444.5c-243.5-0.9-444.9,197.8-444.8,441.5c0.2,252,200.9,444.6,443,445.6
			C1163.6,1486.7,1363.5,1286.7,1364.1,1043.1z M2047.4,1478c3.8,91.1-9.5,180.5-21.6,270.1c-15.8,117.3-78.6,176.6-196.4,182.4
			c-79,3.9-158,0.5-237,0c-66.4-0.4-132.9,3.4-199.1-3.2c-106.9-10.7-156.9-51.9-184.9-155.2c-21.1-77.7-35.7-157-45-237
			c-5.2-45.1-3.9-44-46.7-27.9c-19.6,7.4-26,17.2-24.6,38.2c6.1,95.7,21.2,190.2,32.7,285.2c11.5,94.5,66.4,142.3,153.6,162.2
			c13.9,3.2,27.9,5.8,41.9,8.1c90.6,15.2,182.2,17.6,273.7,17.2c107.5-0.4,215.2,4.3,322.4-7.1c85-9,137.5-51,153.4-125.6
			c24.9-116.5,29.4-234.5,24.7-353.4C2093.4,1499.6,2080.5,1483.2,2047.4,1478z M2482.2,176.2c-18.6,1.1-38.8,1.5-58.9,3.6
			c-66,6.8-101.1,37.9-114,101.6c-5.3,26.4-6.9,53.2-4.1,80.3c3.4,32.6,5.6,65.3,7.6,98c1.2,20-6.3,45.6,3.5,58.7
			c11,14.9,39.3,6.4,59.2,12.5c13.1,4,16.4-1.2,19.4-13.9c12.7-54.7,45.8-92,99-111.5c36.1-13.3,73-18.3,111.3-16
			c36.8,2.2,73.3,11,110.4,6.9c40.9-4.5,59.2-31,48.7-70.5c-8.5-32-27.9-57.2-52.3-78.5C2646.5,190.3,2566.5,178.9,2482.2,176.2z
			 M1120.6,191.4c-18,1-39.1,1.4-60,3.6c-66,7-100.9,38.3-113.7,102c-5.3,26.4-6.7,53.2-3.9,80.3c3.4,32.6,5.6,65.3,7.6,98
			c1.2,20-5.9,45.2,3.8,58.7c10,13.9,37.7,6.2,56.9,11.7c13.3,3.8,18.1,0.9,21.5-13.9c12.2-53.7,44.9-90.4,96.8-110.4
			c50.2-19.4,101.7-20.1,153.9-12.7c24.2,3.4,48.5,5.7,72.8,2.6c38.1-4.9,55.7-30.9,46.3-68.2c-8.3-33-28.1-58.9-53.3-80.8
			C1284.5,205.8,1205.4,194.3,1120.6,191.4z M2056,183.8c-23.6-1.2-52.1,1.1-80.3,6.1c-73.6,12.8-138.7,40.9-180.9,106.5
			c-16.2,25.1-29.7,53.8-11.6,82.5c17.5,27.7,48.1,26.8,77.3,24.6c39.3-3,78.3-10.7,118-7.3c70.5,6.1,152.6,38.3,170,130
			c1.8,9.3,5.9,13,15.5,10.2c8-2.3,16.4-3.6,24.6-5.2c38-7.4,38-7.4,40.1-45.8c3-55.3,10.1-110.4,8.8-166
			c-1.7-67.8-33.3-113.7-88.9-128C2119.8,183.9,2090.4,184.2,2056,183.8z M698.4,199.7c-29.5-1.5-58.8,0.4-87.8,5.7
			C538,218.7,473.9,247,432.3,311.8c-16.2,25.2-29.6,53.9-11.2,82.5c17.7,27.5,48.3,26.6,77.4,24.3c40.1-3.2,80-11.3,120.5-7
			c90,9.6,147.1,49.8,164.8,120.4c4.6,18.5,9.9,23.3,28.2,17.3c16.5-5.4,38.7-1.6,50.5-11.3c12.7-10.5,3.6-33.1,4.6-50.2
			c3.2-52.8,11.6-105.3,8.1-158.4c-5.6-83.6-50.1-126.5-133.8-129.5C727,199.3,712.7,199.7,698.4,199.7z M1656.8,2080.7
			c-48.4,0.2-48.4,0.2-80.1,36.4c-34.8,39.8-69,80.2-104.7,119.1c-14.6,15.9-18.6,30-10.7,51.2c30.4,81.6,58.7,163.9,88.2,245.8
			c3.1,8.6,1.6,21.6,15,23.5c12.7,1.8,16.7-9.7,22.6-17.2c57.3-73.4,114-147.2,171.5-220.4c9.2-11.8,11.9-22.3,7.5-36.8
			c-15.2-50.4-29.5-101.2-43.6-151.9C1708.6,2080.5,1708.9,2080.5,1656.8,2080.7z M837.6,2281.2c4.9-3,7.3-4,8.9-5.7
			c52.8-55.3,105.3-110.9,158.4-165.8c10.4-10.7,7.1-21.4,4.5-32.6c-14.5-61.1-29.2-122.2-43.9-183.3
			c-14.7-61-29.5-121.9-45.5-187.5c-56.3,65.7-109.7,127.9-163,190.2c-4.9,5.8-3.1,12.8-1.6,19.3
			C782.6,2036.8,809.8,2157.6,837.6,2281.2z M1171.6,2486.6c70.4-80.6,136.6-156.6,203.1-232.2c7.9-9,3.9-16.8,0.8-25.6
			c-14.1-39.5-30.3-78.4-41.2-118.7c-9.1-34-25.1-54.1-62.2-55.1c-12.2-0.3-24.1-7.2-36.4-9.7c-21.9-4.5-41.7-28.2-61.9-19.8
			c-19.3,8.1-30.8,32.8-48.5,46.7c-35.7,28.1-48.8,60.1-28.7,103.6c6.5,14.1,7.4,30.8,11.1,46.3
			C1128.5,2308.2,1149.3,2394.3,1171.6,2486.6z M2025,2076.3c-59.4,76.6-114.9,149.1-171.7,220.7c-10,12.6-12.9,23.4-8.3,38.5
			c15.8,52.9,29.6,106.5,46.3,159.1c7.7,24.1,4.2,58.3,26.3,69.8c20.9,11,50.9,4.1,76.8,6.2c13.1,1.1,19.6-4.1,24.9-15.5
			c19.4-41.8,37-84.8,60.4-124.3c25.4-43,27.9-83.4,11.6-130.5C2066.5,2228.5,2047.8,2154.6,2025,2076.3z M2304.6,2103.5
			c-41.4,86.3-82.7,172.4-124.2,258.4c-4,8.3-3.4,15.7-0.9,24.2c16.5,56.2,33,112.5,48.7,169c3.7,13.3,10.1,17.1,23.3,14.8
			c29.8-5.2,59.6-9.8,89.6-13.9c12.9-1.8,20.9-7.6,26.4-19.7c22.4-48.8,45.2-97.4,68.8-145.6c6.4-13.1,6.6-23.4-0.4-37
			c-38.7-74.5-76-149.6-114.1-224.4C2317.2,2120.4,2314.6,2110.1,2304.6,2103.5z M2477.5,2300.1c5.7-11.2,9.5-18.5,13-25.9
			c30.5-64.3,59.5-129.4,92-192.7c21.1-41,10.9-83.7,13.8-125.7c0.3-3.6-2.8-7.8-5.3-11c-42.7-54.8-85.6-109.4-130.4-166.6
			c-39.6,82.5-78,162.5-116.3,242.5c-3.6,7.6-0.8,14.4,2.8,21.4C2390,2126.5,2432.6,2211.1,2477.5,2300.1z M2304.9,1959.2
			c37.2-77.6,71.8-150.2,107.1-222.5c5.5-11.2,2.2-18.1-4.7-26.7c-34.5-43.3-70.9-85.4-101.9-131.2c-23.7-35-51.6-54.3-94.1-52.3
			c-18.1,0.9-43.1-15.8-51.6-5.1c-9.4,11.8-0.6,36.9-2.6,55.9c-7,66,12.5,124,44.9,180.9C2238.5,1822.2,2269.4,1889.3,2304.9,1959.2
			z M1032.4,2174.9c-4.2,2.2-6.8,2.8-8.3,4.4c-53.8,56.5-107.3,113.2-161.4,169.4c-7.8,8.1-7,15.4-4.7,25
			c9.8,42.3,20,84.7,27.8,127.4c3.7,20.2,14.5,26.5,33.1,29.5c58.2,9.5,116.9,10.2,175.4,13.8c22.3,1.4,27.4-4.1,21.8-25.6
			c-14.3-55-26.8-110.5-40.2-165.8C1061.6,2294,1047.1,2235,1032.4,2174.9z M2149,2280.3c4.6-7.7,6.9-10.9,8.7-14.5
			c34.6-71.7,68.7-143.7,104-215.1c7.6-15.3,6.7-27.4-1-42.2c-33.7-64.8-66.2-130.2-99.4-195.2c-3.2-6.2-3.9-14.9-13.8-17.5
			c-8.7,76.7-20.7,151.9-71,214.3c-5.1,6.3-2.3,12.8-0.5,19.2C2099.9,2111.3,2123.7,2193.4,2149,2280.3z M656.7,1473.5
			c26.9,119.8,52.4,233.7,78.9,352.2c50.6-58.8,98.4-113.9,145.5-169.5c7.8-9.2,21.6-16.7,18.8-31c-4.9-25.4-11.7-50.4-18.9-75.3
			c-0.8-2.8-8.5-4.7-13.2-5.2C794.2,1536.6,725.3,1514.2,656.7,1473.5z M1405.3,2313.3c-68.7,78.7-134.2,153.8-203.5,233.3
			c100.3,3,193.3,5.8,289.4,8.7C1462.5,2474.6,1434.7,2396.2,1405.3,2313.3z M702,1960.9c-18.3,21-33,39.2-49.1,56
			c-13.7,14.3-19.9,29.1-15.6,49.6c5.3,24.5,6.6,49.9,11.1,74.7c14.5,80.9,26.8,162.4,61.5,238c12.3,26.8,12.6,26.8,32.3,6.2
			c11-11.5,21.2-23.9,32.8-34.8c8.4-7.8,11.2-16.1,8.7-26.8C756.8,2204.5,730,2085.2,702,1960.9z M1065.1,2043.2
			c18.8-18.6,34.3-34.8,50.9-49.9c10.1-9.2,8.4-15.6-0.1-24.7c-24.1-25.9-38.2-57.4-44.3-91.7c-9.3-52.8-17.7-105.8-24.9-158.9
			c-6.1-45.1-9.9-90.5-15.3-141c-20.7,24.1-37.4,43.9-54.5,63.2c-5.8,6.6-5.9,13.1-4,20.9C1003.3,1787,1033.7,1913.1,1065.1,2043.2z
			 M2600,1854.8c2.7-127.6,5.2-248.2,7.7-368.8c-41.5,72.4-76.9,145.9-112.3,219.4c-2.6,5.5-4.2,10.9,0.2,16.4
			C2529,1764.4,2562.4,1806.9,2600,1854.8z M1653.6,2555.3c0.6,3.4,1.2,6.8,1.8,10.3c59.2,0,118.4-0.1,177.5,0.1
			c17.5,0.1,10.6-11.1,8.4-18.7c-11.7-41.8-23.7-83.6-36.1-125.2c-4.1-13.6-5-28.6-14.9-42.8
			C1743.7,2439,1698.6,2497.2,1653.6,2555.3z M2447.9,1661.3c32.3-67.3,62.8-131,96.6-201.6c-65.7,38.1-129.2,59.2-200.5,69.1
			C2379.3,1573.7,2412.2,1615.7,2447.9,1661.3z M1818.7,2240.9c45.2-58.3,87.3-112.7,133.2-171.8c-62.4,8.2-119.6,9.9-179,12.1
			C1788.2,2134.3,1802.8,2185.3,1818.7,2240.9z M626.2,1947.7c47.4-34.6,69.6-73.9,44.5-128.5c-1.7-3.7-1.8-8.1-2.7-12.2
			c-15.5-68.6-31-137.3-46.5-205.9C614.3,1716.4,617,1831,626.2,1947.7z M1428.5,2192.4c33.5-38.4,64.2-73.6,98.4-112.8
			c-43.6-2.1-81.2-2.9-118.5-6c-17.5-1.4-23.1,0.6-15.6,19.3C1405.2,2123.9,1415.5,2155.7,1428.5,2192.4z M2588.4,2213.9
			c-20.5,43.1-36.4,83.5-58.4,120.4c-19.5,32.6-10.3,57,9.6,83.1C2569.5,2379.2,2594.5,2278.3,2588.4,2213.9z M2136,2459.9
			c-3.6,4.4-5,5.6-5.7,7c-9.5,19.5-18.9,39.2-28.4,58.7c-22.6,46.3-22.6,46.2,27.5,47.9c7.5,0.3,15,1.3,22.5,1.6
			c11.6,0.5,17.4-3.7,13.4-16.5C2155.7,2526.6,2146.4,2494.7,2136,2459.9z M803.2,2412.9c-45.3,45.1-54.5,36.5,4.1,76.9
			c3.2,2.2,7.1,3.3,14.4,6.5C815.2,2467.3,809.5,2441.6,803.2,2412.9z M2446.7,2513.8c54.2-30,57.2-37.2,30.8-66.6
			C2468,2468,2458.6,2488.2,2446.7,2513.8z"/>
		<path class="st0" d="M2268.5,1133.4c-63.6,0.2-115.4-50.8-116-114.3c-0.6-63.7,53-117.4,116.7-117.2
			c63.4,0.3,114.9,51.9,115.2,115.4C2384.7,1083.1,2334.7,1133.1,2268.5,1133.4z"/>
		<path class="st0" d="M2377.5,1272.4c0.4,21.1-16.6,37.6-38.6,37.5c-21-0.1-36.3-15.4-36.6-36.4c-0.3-20.5,15.3-37.3,35.5-38.4
			C2358.2,1234,2377.2,1251.8,2377.5,1272.4z"/>
		<path class="st0" d="M2107.6,783.8c-20,0.1-36.8-16.3-37.4-36.5c-0.7-22.2,15.1-38.3,37.2-38.2c21.1,0.1,37.2,15.2,38,35.5
			C2146.2,765,2128.2,783.7,2107.6,783.8z"/>
		<path class="st0" d="M2000.9,958.7c-0.4,20.2-17,36.8-37,37c-20.5,0.2-38.8-18.3-38.3-38.8c0.5-21.2,18-36.9,40.1-36.1
			C1986.4,921.6,2001.3,937.7,2000.9,958.7z"/>
		<path class="st0" d="M2526.6,1142c-20.6-0.5-38-19.4-36.9-40.1c1.1-20.6,17.2-35,38.5-34.6c22.1,0.4,38.2,17.3,36.9,38.8
			C2564,1125.7,2546,1142.5,2526.6,1142z"/>
		<path class="st0" d="M2085.9,1210.5c0.4,20-15.7,37.4-35.7,38.5c-21.1,1.2-39.3-15.7-39.7-36.9c-0.4-21.2,17-38.8,38.2-38.5
			C2068.8,1173.8,2085.5,1190.3,2085.9,1210.5z"/>
		<path class="st0" d="M2567.4,853.3c0.5,20.5-15,37.3-35.3,38.3c-21.7,1.1-39.1-15.1-39.5-36.5c-0.4-21.5,16.7-38.9,37.8-38.7
			C2550.5,816.5,2566.9,832.9,2567.4,853.3z"/>
		<path class="st0" d="M2317.8,743.4c-21.1-0.2-37.9-17.9-37.2-39.4c0.7-20.6,16.8-36,37.6-35.9c21.2,0.1,37.9,17.6,37.2,38.9
			C2354.7,727.4,2337.9,743.6,2317.8,743.4z"/>
		<path class="st0" d="M1022.2,1033.8c-0.2,65.4-50.8,114.9-117.3,114.8c-63.1-0.1-114.9-52.4-114.6-115.7
			c0.3-62.9,52.5-115.3,115.5-115.9C970,916.5,1022.4,969,1022.2,1033.8z"/>
		<path class="st0" d="M600.6,1010.9c-20.6-0.4-38.3-19.4-37.2-39.8c1.1-20.4,17.3-35.1,38.5-35c21.9,0.1,37.7,16.7,36.7,38.8
			C637.7,995.1,620.6,1011.3,600.6,1010.9z"/>
		<path class="st0" d="M745.6,724.2c22,0.3,38.6,17.3,37.5,38.5c-1,19.6-18.7,36.5-38.2,36.3c-21.2-0.2-37.8-18-36.9-39.5
			C708.9,738.3,724.2,723.9,745.6,724.2z"/>
		<path class="st0" d="M1015.3,1288.2c-0.1,21.1-17.4,37.3-39.3,36.9c-20.9-0.4-35.9-16-35.9-37.1c0-20.5,15.9-37.1,36.2-37.7
			C996.7,1249.5,1015.3,1267.7,1015.3,1288.2z"/>
		<path class="st0" d="M648.2,1226.4c0-21.2,17.8-38.4,39-37.7c20.2,0.7,36.5,17.6,36.5,37.7c0,21.1-18,38.4-39,37.7
			C664.4,1263.4,648.2,1246.6,648.2,1226.4z"/>
		<path class="st0" d="M1203,1118.3c0.5,20.6-17.8,39.2-38.2,38.9c-19.5-0.2-36.9-17.5-37.3-37.2c-0.5-20.6,14.8-36.8,35.6-37.7
			C1185.5,1081.5,1202.5,1096.8,1203,1118.3z"/>
		<path class="st0" d="M1205,870.4c-0.6,20.6-16.6,36.2-37.3,36.2c-21.7,0-38.3-17.1-37.6-38.5c0.7-20.4,17.3-36.6,37.4-36.7
			C1188.7,831.3,1205.6,848.9,1205,870.4z"/>
		<path class="st0" d="M993.1,720c0.5,20.2-15.2,37.4-35.4,38.5c-20.9,1.2-39-15.8-39.5-37.1c-0.5-20.4,15-37.1,35.5-38.1
			C975.3,682.3,992.6,698.4,993.1,720z"/>
	</g>
</g>
</svg>
