<?xml version="1.0" encoding="utf-8"?>
<!-- Generator: Adobe Illustrator 23.0.0, SVG Export Plug-In . SVG Version: 6.00 Build 0)  -->
<svg version="1.0" xmlns="http://www.w3.org/2000/svg" xmlns:xlink="http://www.w3.org/1999/xlink" x="0px" y="0px"
	 viewBox="0 0 3000 3000" style="enable-background:new 0 0 3000 3000;" xml:space="preserve">
<style type="text/css">
	.st0{stroke:#000000;stroke-width:10;stroke-miterlimit:10;}
</style>
<g id="Layer_1">
</g>
<g id="Layer_2">
	<g>
		<path class="st0" d="M2353.7,2258.5c37.7,7.8,67,12.6,95.5,20c167.1,43.2,273.8,160.2,291.1,326.2
			c11.2,108.2-24.1,206.8-78.6,299.2c-6.1,10.3-12.2,16-22.7,5.9c-9.2-8.9-30.9-10.2-18.3-32.5c18.6-33,34.1-67.4,46.6-103.3
			c74.3-214.6-23.2-395.1-243.6-450.3c-173.6-43.5-343.8,11.5-440.3,143.3c-74.7,102-97.8,214.6-67,337.8c6.3,25.1-6,39.9-32.1,40.6
			c-15.3,0.4-11.2-12-13.2-19c-52.6-179.4,16.9-378,169.7-485.8c8-5.7,16.1-11.2,23.4-19.3c-150.7,31.1-302.7,46.7-462.4,50.8
			c16.2,19.2,27.9,32.4,38.9,46.2c102,128.4,100.1,305.1-4.8,431.2c-7.9,9.4-15.2,24-29.9,7.1c-10.1-11.5-27.8-16.6-9.6-39.4
			c113.7-142,84.7-311.9-54.9-429.5c-7-5.9-14.1-11.8-23.8-11c-99.4,7.8-200.5-1.4-298.2,22.1c-186.3,44.9-304.1,160.4-344.8,349.6
			c-7.7,35.9-10.3,73.1-13.6,109.9c-1.5,17.3-8.5,22.5-24.7,19c-14.8-3.2-29.2-3.6-25.5-26.7c10.1-62.4,7.7-125.4,7-188.5
			c-0.9-78.6-32.7-141.2-90.6-191.5c-156.7-136.1-415.9-121.9-525.8,74.5c-39.3,70.3-53.1,146-39.5,225.8c3,17.7,3.5,30.8-19,34.4
			c-17.5,2.8-26.8,1.2-30.2-20c-30.5-185.8,64.9-379.2,266.2-440.1c8.5-2.6,16.9-5.1,29.2-8.7c-75.8-58.4-122.4-132.4-142.9-221.7
			c-49.2-214.4,8.4-399,159.5-555.8c16.8-17.5,18.3-27.6,6.2-49.2c-161.8-289.3-182.5-580,2.9-867.3
			C517.5,512.6,634.2,415.1,765.5,335c221-134.8,462.3-211.9,717.4-247.5c224.9-31.3,449.1-27.8,669.8,29.9
			c295.6,77.2,507.3,257.2,627.5,537.6c96,223.8,54.5,430-102.4,614.2c-25.3,29.7-52,58.4-82.6,82.6c-16.1,12.8-15.7,23.2-6.5,39.8
			c57.2,102.8,100.1,211.1,121.4,327.2c13.4,73.4,15.9,147.1,0.7,220.5c-27,130.5-104.7,219.3-225.8,272
			C2445,2228.7,2403.7,2242.6,2353.7,2258.5z M1733.5,469.2c99-5.4,197.9-5.3,296.4,8.1c173.8,23.6,296.7,114.9,367.3,276
			c32.6,74.3,45.8,152.8,51.3,233c0.8,12-1.4,23.4,18.3,22.1c93.7-6.2,187.5-11.4,281.4-16c18.1-0.9,23.2-9.5,25.6-25.8
			c9-60,10.1-120.1-4.2-178.9c-56.1-230.8-192.8-403.1-393.4-524.9C2225,170.9,2056,136.9,1881.8,124c-298.4-22-585.9,25.7-862,139
			c-206.1,84.6-391.5,199.7-527.9,381.7C384.4,788.1,343.9,950.1,356,1127.2c1.5,21.7,7.7,27.7,31.2,24.4
			c77.1-10.8,154.6-18.6,232.1-26.7c64.5-6.7,64.5-6.1,80.7-67.5c1.3-4.8,2.4-9.7,3.7-14.5c72.8-268.8,261.1-507.2,619.8-549.1
			C1459.8,477.9,1596.6,473.3,1733.5,469.2z M2754.2,1041.9c-8.7,0-12.7-0.2-16.6,0c-139.7,8.2-279.3,16.7-419,24.1
			c-17.2,0.9-20.2,9.4-24.5,22.7c-54,167.3-152.7,294.5-327.1,346.6c-115.2,34.4-234.8,47.5-354.5,55.8
			c-122.2,8.5-243.6-2.8-364.5-19.3c-74.2-10.1-148.3-20.7-214.5-60.8c-92.4-56-155.8-136.2-199-233.5c-7.8-17.6-17.2-23.9-36-21.5
			c-38.6,4.8-77.6,7.2-116.3,11.7c-98.2,11.2-196.3,23.4-294.5,34.3c-17.3,1.9-20.4,6.7-16.5,24c12.4,54.7,28,108.3,50.8,159.5
			c85.1,190.6,218.6,330.5,421.3,395.3c124.9,39.9,253.4,43.5,382.8,31.6c130.5-12.1,258.4-39.4,385.7-69.2
			c256.7-60.2,504.8-143.8,734.8-275.3c123.2-70.5,236.2-153.9,322.9-268.4C2705,1152.3,2735,1102,2754.2,1041.9z M2538.1,1400.6
			c-47,36-93,67.8-141.6,95.6c-13.6,7.8-13.9,16-9.5,29.4c11.5,35.3,15.4,72.1,18.1,109c10,135.5-52.9,250.9-171.1,311.4
			c-65.8,33.7-133,64.3-201.8,91.6c-305.6,121.1-624.8,154.1-950.2,146.4c-85-2-169.9-6.6-252.9-26.8
			c-134.5-32.6-241.7-99.9-291.9-236.1c-27.9-75.7-32.8-155-18.4-233.5c7.3-39.5-2.6-66-28.8-93.2c-13.6-14.1-18.5-13.9-31.4-0.3
			c-118.9,125.1-175,271.2-157.2,445.1c17.2,168,103.6,264.6,266.3,298.6c74.3,15.5,148.4,17.7,223.4,15
			c209.8-7.3,419.7-13.1,629.4-22c129.8-5.5,259.8-8.8,389.1-21.5c129.4-12.7,256.4-40.3,383.6-65.9
			c102.9-20.7,204.9-44.4,299.8-91.7c101.3-50.5,157-133.9,172.2-244C2690.6,1722.7,2620.9,1561.2,2538.1,1400.6z M1474.4,529.8
			c-31.8,2.6-63.7,4.6-95.5,7.8c-104.9,10.6-208,29.8-301.3,81.6c-186.3,103.4-286,269.2-334.3,471.2c-5,20.8,5,18,18.2,17.2
			c110.7-6.4,221.3-12.1,332-18.5c119.6-6.9,239.2-14.6,358.9-21.1c19.4-1,27.8-7,29.6-27.4c13.8-152.1,28.9-304,43.1-456
			C1530.4,527.6,1529.7,527.5,1474.4,529.8z M2248,1071.9c-9.6,0-14.6-0.3-19.5,0c-181.5,10.8-363.1,21.7-544.6,32.5
			c-153.6,9.1-307.2,18.1-460.8,27.1c-107.7,6.3-215.4,12.5-323.2,18.8c-11.2,0.7-24.4-0.2-15.5,17.9
			c58,116.8,139.5,209.3,272.4,237c115.3,24,232.7,36.5,351,38.4c135.7,2.2,269-17.3,401.2-44.5
			C2088.2,1362.4,2189.6,1242.9,2248,1071.9z M1920.3,517.3c-10,0-20.2,1.4-29.9-0.3c-27.8-4.8-39.3,6.1-41.5,34.2
			c-2.4,30.7-9.4,61.1-14.5,91.6c-20.9,126-41.3,252-63.1,377.8c-4,23.4,2.2,28.9,25,27.2c68.7-5.2,137.6-8.4,206.5-12.5
			c123.7-7.3,247.4-15.2,371.1-21.7c21.5-1.1,26.5-8.5,24.3-29.2c-4-37.8-6.3-75.8-15.2-112.7C2341,698.1,2247,573.4,2063,534.5
			C2016.1,524.5,1968.3,519.4,1920.3,517.3z M1695.8,518.1c0,0.4,0,0.9,0,1.3c-28.9,1.4-57.9,4.5-86.8,3.8
			c-22.3-0.5-28.4,8-30.1,29.3c-5.8,73.6-13.9,147-21.1,220.4c-8.6,87.4-16.9,174.8-26.3,262.1c-2.4,22.2,2.4,29.7,26.8,27
			c44.6-5,89.6-7,134.5-8.1c17.2-0.4,24.2-5.1,26.8-22.5c9.1-61.1,19.8-122,30-182.9c16.9-101.3,33.6-202.6,51-303.9
			c3.5-20.6-1.4-28.6-23.8-26.9C1749.8,519.7,1722.7,518.1,1695.8,518.1z M2078.9,1651.6c-94,35.8-184.2,67.4-276.3,93.3
			c-13.6,3.8-15.5,14.2-17.9,24.7c-22,96.1-43.7,192.2-65.7,288.2c-3.7,16-3.5,24.3,17.9,18.9c90-22.8,179-48.4,266-80.8
			c17.5-6.5,24.1-16.5,26.7-34.5c8.1-57.2,18.5-114.1,27.7-171.1C2064.5,1745.3,2071.3,1700.3,2078.9,1651.6z M1374.8,2127.8
			c79.7-2,155.6-12.4,231.3-24.8c52.2-8.5,52.2-8.5,64.8-61.1c2.6-10.6,5.6-21.2,8-31.8c18.1-80.1,36.1-160.2,55.2-245
			c-88.5,22.6-172.5,42.2-257.2,58.3c-9.4,1.8-13.3,8.6-15.6,16.3C1432.6,1934.7,1404.1,2029.9,1374.8,2127.8z M1175.5,2133.6
			c0-0.6,0-1.3,0-1.9c42,0,84-0.3,125.9,0.2c14,0.1,21.5-5,25.6-19.1c24.8-84.2,50.2-168.1,75.9-252c5.2-16.9,2.5-24.6-16.9-20.6
			c-70.6,14.7-142,22.6-213.9,25.7c-15,0.7-23.2,6.6-29.1,20.3c-32.4,76.2-65.2,152.2-98.8,227.8c-8,18.1-1,19.9,14.4,19.7
			C1097.5,2133.2,1136.5,2133.6,1175.5,2133.6z M2080.5,1963.2c56.3-25.6,107.4-47.5,155.3-76.1c27-16.1,49.9-36.7,68.2-62.2
			c62-86.1,59.1-181,37-278.4c-3.7-16.5-11.9-11.5-21.5-6.3c-55.3,30-112.2,56.9-170.2,81.4c-13.2,5.6-16.5,14.2-18.5,27.3
			c-8.7,57.2-19,114.1-28.3,171.2C2095.1,1865.9,2088.4,1911.8,2080.5,1963.2z M964.1,2127.9c12.9,3.6,21.4-2.9,28-18.7
			c30.5-72.5,62.3-144.5,94.1-216.4c6.7-15.2,10.8-24.3-13.4-24.9c-72-1.9-143.2-11.7-212.9-30.3c-16.3-4.4-22.8-0.8-28.8,14.1
			c-26.3,65.6-52.8,131.2-80.8,196.1c-8.5,19.8-6.2,29.2,15,37.2C828.4,2109.1,893.9,2120.9,964.1,2127.9z M654.8,1747.5
			c-16.9,65.2-33.4,128.4-49.6,191.8c-2.2,8.5,2.9,15.2,7,22.1c17.7,29.4,41.2,53.5,67.3,75.6c13.1,11.1,18.7,8,24.8-7.3
			c26.2-65.5,53.5-130.6,80.8-195.7c4.5-10.7,5.5-18.3-7.7-23.2C735.2,1795.2,696.6,1772.3,654.8,1747.5z M726.9,2405.1
			c37.6,29.3,66.7,57.5,90,91.2c23.3,33.7,37.7,71.3,48.8,117.7c49.6-96.7,118.2-166,214-219.3
			C958.2,2398.3,846.6,2401.6,726.9,2405.1z M569.1,1685.1c-7.6,56.4-10.2,111,4,165.6c11-32.4,19.5-64.9,27.9-97.5
			C612.1,1710.6,612,1710.6,569.1,1685.1z"/>
		<path class="st0" d="M2135.4,2864.5c-55.4-10-50.8-0.2-39.1-54.7c13.3-61.6,32.4-121.5,55.1-180.4
			c35.4-91.7,104.5-118.4,206.3-109.6c48.4,4.2,79.2,42.8,84.7,98.6c9.2,93.4-11.5,180.6-59.5,261.5c-8.5,14.3-16.7,19.1-29.9,7.2
			c-10-9-29.7-10.2-13.7-34.6c41.1-62.6,57.9-133.3,55.4-208.2c-2.1-64.4-26.4-81.2-89.5-75.5c-62.1,5.6-94.3,39.3-113.5,94.4
			C2168.7,2729.3,2149.5,2796.2,2135.4,2864.5z"/>
		<path class="st0" d="M1471.3,2715.6c-1.9,40.4-9.5,80.4-23.9,119.1c-4.6,12.5-10.5,19.3-23.6,10.3c-10.3-7.2-33.2-3.4-23.7-28.1
			c16-41.5,24.7-84.3,18.6-128.9c-5.6-40.7-21.7-59.3-62.7-64.2c-89.1-10.7-147.4,22.6-154.8,113.4c-2.7,33.8-8.7,67.3-12,101
			c-2.8,28.2-22.3,14.5-36,15.7c-16.8,1.5-16.4-7.8-14.6-20.7c5.7-40.4,9.5-81.2,15.3-121.6c16.7-115.9,163.5-182.6,262.5-119.3
			C1461.1,2620.9,1470.2,2666.2,1471.3,2715.6z"/>
		<path class="st0" d="M497.7,2575.9c8.8-2.4,21.6-0.1,34.4,1.3c49.6,5.5,85.1,38,92.3,87.5c9.9,68.6-6.9,132.6-36.4,194.3
			c-7.8,16.3-17.2,13.2-28.2,5.5c-10.1-7-28.3-8.4-16.9-29.5c24.8-45.6,36.3-94.8,34.1-146.9c-1.7-40.8-20.5-60-61.1-62.4
			c-83.6-4.8-115.2,17.1-140.5,97.9c-7.1,22.8-14.1,45.7-19.8,68.9c-3.3,13.4-10.8,17.2-21.5,11.2c-10.4-5.7-33.3-0.4-27.1-23
			c12.8-47,22.2-95.4,49.2-137.3C388.4,2593.6,434.9,2572.3,497.7,2575.9z"/>
		<path class="st0" d="M1561.8,1247.3c0.2,36.9-28.6,66.8-65.3,67.5c-37.7,0.7-68.2-29.9-67.8-68.1c0.5-36.2,31-66.4,66.9-66.2
			C1531.9,1180.7,1561.5,1210.6,1561.8,1247.3z"/>
		<path class="st0" d="M1157.2,1312.2c-41-0.3-68.6-27.3-67.5-66.2c1-35.9,32.5-66.2,68.1-65.5c36,0.7,66.5,31.9,66.3,67.7
			C1223.8,1285.2,1195.3,1312.4,1157.2,1312.2z"/>
		<path class="st0" d="M1832.2,1312.4c-37.6,0-66.2-28.6-65.5-65.6c0.6-35.7,32.5-67.3,67.6-67.1c35.1,0.2,66.7,32,67,67.7
			C1901.5,1285.6,1873.1,1312.4,1832.2,1312.4z"/>
	</g>
</g>
</svg>
