<?xml version="1.0" encoding="utf-8"?>
<!-- Generator: Adobe Illustrator 23.0.0, SVG Export Plug-In . SVG Version: 6.00 Build 0)  -->
<svg version="1.0" xmlns="http://www.w3.org/2000/svg" xmlns:xlink="http://www.w3.org/1999/xlink" x="0px" y="0px"
	 viewBox="0 0 3000 3000" style="enable-background:new 0 0 3000 3000;" xml:space="preserve">
<style type="text/css">
	.st0{stroke:#000000;stroke-width:10;stroke-miterlimit:10;}
</style>
<g id="Layer_1">
</g>
<g id="Layer_2">
	<g>
		<path class="st0" d="M2640.6,1361.2c-1.6,155.5-11.2,310.6-16.5,466c-8.1,237.6-49.8,469.1-134.8,691.3
			c-86.1,225.1-253.2,356.5-487.4,404.7c-137.1,28.2-276.6,32.3-415.7,31.7c-170.5-0.8-341.1-6.4-511.5-12.5
			c-103.6-3.7-206.4-16-306.9-43.4c-213.1-58-340-190-380.8-412.4c-67.2-366.1-106.6-734.1-107.7-1106.4
			c-0.4-145.7,4.4-291.5,3.1-437.1c-2.7-295.7,131.3-516.9,367.2-678.5C987.9,33,1350.9-2.8,1731.1,152.9
			c26,10.6,47.8,11.8,73.7,2.1c127.5-47.4,258.7-76.3,395.6-69.5c79.6,4,155.6,21.9,223.9,66c46.8,30.2,81.1,70.1,102.5,121.7
			c46.9,112.7,66.5,231.8,83.5,351.4C2645.1,869.1,2647,1115,2640.6,1361.2z M1936.3,2874.9c3.7,1.6,5.6,2.9,7.5,3.1
			c3.2,0.3,6.5,0.2,9.7-0.3c208.4-35,374.2-132.8,464-331.1c79.7-176.2,123.6-363.5,140-555.7c23.1-270.1,29.7-541.2,31.5-812.2
			c1.2-178.1-5.6-356.1-29.9-533c-2.3-16.9-4.6-24.2-25.8-18.7c-35.5,9.1-72.5,10.7-109.4,8.7c-125.8-6.8-203.6-70-224.3-188.2
			c-16.3-92.7-23-186.4-4.3-279.9c4.5-22.3-1.2-30.9-25.3-30.1c-55.1,1.8-109.9,5.8-163.9,17.3c-55,11.6-110.3,22.9-166.3,46
			c9,6.3,13.9,10.2,19.2,13.5c86.2,52.4,139.2,126.7,153.5,227.9c20.8,147.8,28.3,296.3,26.6,445.5c-0.3,22.7-12.1,22.9-29,22.8
			c-18.1-0.1-27.2-3.4-26.7-25.1c3.1-135.1-5.2-269.4-19.3-404c-11.6-110.3-62.5-188.3-160.6-236.8
			c-151.4-74.7-308.6-127.8-479.9-129.6c-323.8-3.5-599.2,106.2-816,350.1c-87.8,98.7-145.4,212.3-160.4,346.7
			c-10.8,97-12.2,194-13.1,291c-2.1,223.5-1.1,447,13.1,670.2c1.6,24.6,11.2,32.7,34,34.9c130.1,12.5,260.3,20.6,391.2,17.7
			c129.5-2.9,258.4-20.6,388.2-17.1c112.3,3,198.7,52.7,259.4,146c58.1,89.3,91.5,187.5,99.4,294c14.9,202.3-24.3,388.9-160,547.1
			c-27.8,32.4-56,64.6-88.9,102.6c61.5,0,117.1,0,172.7,0c6.5,0,13-0.3,19.4,0.2c14.1,1.1,17.5-9.9,22.7-19.2
			c24.8-44.3,46.5-90.1,65.5-137.1c116.2-288,133.3-582.1,51.3-881.5c-7.2-26.1,4.3-31.1,23.7-37.3c21.9-7,24.7,5.6,29.1,21.9
			c31.3,115,48.4,231.8,51.1,351.1c4,176.7-24.8,347.4-84.7,513.4c-23,63.7-52.2,124.5-81.8,186.2c5.9,1.6,8.9,3.2,11.9,3.3
			c98.3,2.2,196.5-0.8,294.5-8.2c15.7-1.2,22.4-10.4,29.1-21.9c94.3-161.7,152-335,166.3-522.3c11.5-150.2-3.6-297.4-46.6-441.6
			c-8.4-28.2,10.9-25.3,25.1-32.2c19.6-9.5,23.2,1.8,27.7,16.8c22.3,75.6,37.3,152.7,45.3,231c23,224.9-12,440.8-104.4,647.1
			C1972,2804,1953.7,2839.2,1936.3,2874.9z M1468,2301.1c3.5-100.4-26.9-215.6-95.2-319.7c-42.8-65.2-101.9-106.3-181.8-116.2
			c-82.3-10.2-163.9,0.1-245.4,6c-182.4,13.3-364.4,12.3-546.1-8.3c-46.1-5.2-46.9-5.8-42.5,40.9c19.1,203.1,53.1,403.9,91.2,604.1
			c30.7,161.1,123.7,265.5,277.1,320.2c145.7,52,297.5,58.4,449.5,64.6c10.3,0.4,18.8-2.7,26.5-9.7
			c109.5-99.2,200.5-211.1,242.6-356.2C1463,2461,1464.3,2392.9,1468,2301.1z M2239.8,291.3c1.2,42,3.1,84,8.8,125.7
			c9.3,68,34.4,125.2,104.5,150.1c57.6,20.5,116.4,17.1,175.5,6.5c15-2.7,19.3-8.7,16.3-23.7c-15.2-77.1-31.3-153.8-56.5-228.6
			c-34.7-103.1-113.1-149.2-212.1-171.9c-18.7-4.3-24.5,2.3-27.6,19.5C2241.6,209.5,2239.4,250.3,2239.8,291.3z"/>
		<path class="st0" d="M974.6,677.8c-72.8,63.7-114.1,142.3-132.2,233.3c-3.1,15.8-7.1,32.2-6.1,48c1.5,24.3-9.2,28.8-30.6,27.8
			c-18-0.8-26.2-2.5-24.7-25c16.8-245.7,206.6-447.9,451.4-470c169.1-15.3,298,62.8,394.1,197.5c66,92.6,95.2,197.3,91.4,311.1
			c-0.5,14.9,5.1,34.2-22.7,31.1c-20.7-2.3-32-6.4-31.2-32.5c3.9-134.1-42.4-249.2-137-344.7c-6.8-6.9-14.5-12.9-22-19.1
			c-3.1-2.6-5.7-6.9-12.5-4.3c-6,9.6-2.4,21.6-2.1,32.8c2.9,111.2,5.5,222.3,10.3,333.4c1.2,26.6-7.7,32.5-32.3,34
			c-28,1.8-23.2-16-23.6-30.9c-3.3-125.2-7.2-250.4-8.5-375.6c-0.3-32.5-12.4-48.7-42.4-57.9c-27.9-8.6-56-15.5-84.5-21
			c-22.7-4.4-34.2-0.6-33.8,28.2c1.7,127.4,0.1,254.8,1.3,382.2c0.2,23.6-5.2,31-30,31.1c-25.9,0.1-24-13.6-24-30.5
			c0.2-125.3-1-250.5,0.9-375.8c0.5-32.6-8.9-37.5-38.1-29.9c-48.4,12.7-93.8,31.1-136.8,56.8c-15.2,9.1-19.4,19.9-19.3,36.7
			c0.6,104.7-0.1,209.5,0.7,314.2c0.2,19.8-3.3,28.8-26,28.1c-20.9-0.6-30.7-3.7-30.3-28c1.4-82,0.5-164.1,0.5-246.2
			C974.6,701.2,974.6,689.5,974.6,677.8z"/>
		<path class="st0" d="M1285.4,351.5c174.4,3.8,304.3,74.4,407.2,197c97.4,116.1,147.7,252,159.8,402.3c1.1,14,12.2,35.3-19.5,36.2
			c-24.5,0.7-32.3-5.3-34.2-30.9c-9.5-127.6-50.6-244.3-127.3-347.5c-147.6-198.5-375.1-257.2-597.7-149.4
			c-200.1,97-316.4,260.6-360.8,476.9c-2,9.5-5.2,19.2-4.8,28.7c1.4,32.4-21,21.1-37.2,21.1c-24.1,0.1-17.7-17.4-15.9-30
			c45.9-321.5,288.7-550.3,548.8-594.9C1234.5,355.7,1265.8,353.7,1285.4,351.5z"/>
	</g>
</g>
</svg>
