<?xml version="1.0" encoding="utf-8"?>
<!-- Generator: Adobe Illustrator 23.0.0, SVG Export Plug-In . SVG Version: 6.00 Build 0)  -->
<svg version="1.0" xmlns="http://www.w3.org/2000/svg" xmlns:xlink="http://www.w3.org/1999/xlink" x="0px" y="0px"
	 viewBox="0 0 3000 3000" style="enable-background:new 0 0 3000 3000;" xml:space="preserve">
<g id="Layer_1">
</g>
<g id="Layer_2">
	<g>
		<path d="M1462,2918.4c-40.6,8.2-91.3,15-149.8,15.1c-59.5,0.1-110.9-6.8-152-15.1c0-950,0-1899.9,0-2849.9
			c36.1-10.5,87.1-21.3,148.7-21.6c63.7-0.3,116.3,10.8,153.1,21.6C1462,1018.5,1462,1968.5,1462,2918.4z"/>
		<path d="M1816.2,2918.4c-40.6,8.2-91.3,15-149.8,15.1c-59.5,0.1-110.9-6.8-152-15.1c0-950,0-1899.9,0-2849.9
			c36.1-10.5,87.1-21.3,148.7-21.6c63.7-0.3,116.3,10.8,153.1,21.6C1816.2,1018.5,1816.2,1968.5,1816.2,2918.4z"/>
	</g>
</g>
</svg>
