<?xml version="1.0" encoding="utf-8"?>
<!-- Generator: Adobe Illustrator 23.0.0, SVG Export Plug-In . SVG Version: 6.00 Build 0)  -->
<svg version="1.0" xmlns="http://www.w3.org/2000/svg" xmlns:xlink="http://www.w3.org/1999/xlink" x="0px" y="0px"
	 viewBox="0 0 3000 3000" style="enable-background:new 0 0 3000 3000;" xml:space="preserve">
<style type="text/css">
	.st0{stroke:#000000;stroke-width:10;stroke-miterlimit:10;}
</style>
<g id="Layer_1">
</g>
<g id="Layer_2">
	<g>
		<path class="st0" d="M256.4,1574.7c-33.6-47.5-56.9-95-56.2-151.2c0.4-26.6,3.5-52.6,12-77.7c4.3-12.9,3.2-33.2,27.4-23
			c16.9,7.1,31.2,10.7,21.9,37.9c-27.8,80.7-1.3,148.3,62.2,209.2c110.8-225.5,265.1-410.8,485.8-547.6
			c-80.6-11.8-151.7-12.2-223.2-7.3c-90.7,6.2-177.6,29.5-264.1,55.3c-26.2,7.8-52.9,13.7-80.3,16.5
			c-91.9,9.4-154.1-35.5-169.3-126.5c-19.2-114.5-0.6-225.5,46.2-330C259.2,316.3,498.2,125.7,839.5,70.1c118-19.3,235-4,348.7,31
			c85.1,26.1,152.4,75.3,184.2,163.3c11.9-2.9,13.6-14.3,18.8-22.2c128.4-196.3,384.1-210.3,531.5-28.2
			c14.4,17.8,21.2,21.9,40.4,4.5c65.6-59.6,147.4-87.1,231-110.5c173.4-48.5,348.5-65.8,526.2-27.6c60,12.9,115,37.2,161.8,79.4
			c45.9,41.3,53.1,95.6,58.8,151.7c14.6,144.6,16.6,289.3,7.3,434.5c-10.1,156.3-102.2,256.1-257.5,271.9c-2.8,0.3-5.6,1.1-8.7,1.8
			c0.5,10.9,9.3,15.7,15.1,22c59.7,64.5,89.7,139.7,92.1,228.4c8.9,330.6,16.6,661.3,31.9,991.7c6.6,142.7-53.2,248-151.1,339.6
			c-98.9,92.5-218.1,150.3-344.3,195c-192.6,68.2-392.5,100.5-595.5,114.3c-292.2,19.9-581.8-5.2-868.8-60.4
			c-129.1-24.8-253-66.4-365.1-137.5c-220.9-140.4-325.1-343.5-322.7-603.4c0.7-73.3,10.4-145.7,28.7-216.6
			c4.9-18.9-3.3-20.2-16.4-20.9c-95.7-5-161.2-72.8-153.1-158.3c8.9-94,91.1-157.1,186.6-143.4
			C230.3,1571.7,241.2,1572.8,256.4,1574.7z M2768.3,2303.9c-15.6-2.1-27.8,6.5-40.9,11.2c-102.9,36.6-209.1,44.9-314.7,21.8
			c-124.1-27.1-189.1-115.8-214.1-235.1c-23.2-110.5-18.8-222.5,0.2-333c34.6-201.5,171.5-340.9,359.5-377.3
			c53.2-10.3,106.8-11.3,160.5-7.8c16.3,1.1,24.3-1.2,22.7-20.2c-2.1-25.2-3-50.7-2.2-76c3.4-113.5-51.4-197.2-135.1-266.2
			c-20.3-16.7-41.8-32.3-64.1-46.2c-142.6-89.3-302.2-126.5-466.5-144.3c-304-33-603.6-6.9-896.8,80.9
			c-449.6,134.6-735.8,437.3-890.9,873.2c-6.1,17.1-4.9,24,15.3,27.8c59.2,11,115.1,1.9,168.9-23.1c39.4-18.3,79.7-30,123.5-22.9
			c31.1,5,50.6,23,58.4,54c24.6,98.8-46.3,196.6-151.5,208.6c-80,9.2-159.9,9.6-239.9,0.9c-18.2-2-32.9-4.1-34.5,22.7
			c-6.6,114.8,3.3,226.8,48.6,334.1c9.8,23.1,15.5,29.3,37.3,9c112-104,244.7-152.6,397.8-141.2c79.1,5.9,156.5,22.8,232.1,46.1
			c123.4,38,245,41.3,365.9-9.1c35.5-14.8,71.9-27.4,107.9-40.8c160.4-59.9,325.3-94.3,497.3-81.7c139.4,10.3,207,93.1,188.1,230.8
			c-20.5,149.2-76.9,284.9-164.3,407.7c-6.5,9.2-16.1,17.2-17.5,33c41.1-7,80.1-13,118.8-20.4c162-31.1,319.3-76.4,463.6-159.1
			c100.2-57.4,186.5-129.5,240.5-234.6C2761.9,2388.1,2774.8,2348.3,2768.3,2303.9z M1515.7,2867.3c112.9-2.5,209.1-4.4,305-15.6
			c14.6-1.7,23.9-7,32.8-17.9c103.2-125.8,168.4-268.9,196.8-428.9c19.2-108-21.7-167.1-130.4-184.1c-49.1-7.7-99.2-4.2-148.8-0.3
			c-139.9,10.8-273.4,48.1-401.7,102.8c-141.3,60.2-283.9,76.9-432.4,29c-56.7-18.3-115.3-30.2-174.2-40.3
			c-167-28.4-310.6,17.3-432.2,134.6c-12.3,11.9-15.2,20.2-4.6,35.3c29.9,42.5,62,82.9,101.2,117.2
			c108.6,95.1,237.1,150.3,375.4,184.9C1042.1,2844,1286.6,2859.6,1515.7,2867.3z M218.1,544.4c18,0,29-0.1,40.1,0
			c119.8,1.5,239.5,3.5,359.3,4.3c21.5,0.1,30.3,5.3,30.1,29.1c-0.2,25.7-14.1,23.7-31.4,23.5c-132.9-2.3-265.9-3.5-398.8-6.6
			c-22.1-0.5-32.5,7.2-40.9,26.5c-31.8,73.1-53.8,148.5-59.5,228.3c-2.6,36.5-2.8,36.5,31.4,24.9c150.4-51.1,301-101.9,451.2-153.6
			c18.5-6.4,27.1-3.7,32.1,16c4,15.8,8.1,26.5-13.8,32.6c-35.9,9.9-70.8,23.8-106.2,35.8C389.1,846.7,266.4,888.2,143.8,930
			c-10.5,3.6-24.3,3.4-21.6,22.6c7.4,53.7,45.6,86.6,100.6,84.4c55.5-2.2,106.7-22.8,159.2-37.4c149.9-41.7,301.8-47.4,455.4-26.3
			c20.5,2.8,40.7,8.4,62.2-2.9c132.7-69.9,273.4-117.9,420.1-148.4c19.3-4,25.7-11.8,25.5-32.1c-1.3-151.2-1.7-302.4-11.7-453.4
			c-5.1-77.1-41.5-131.7-109.8-166.2c-68.3-34.5-142.6-46.9-217.3-53c-210.9-17.2-397.8,47-565.1,173.6c-13.1,9.9-25.3,21-37.9,31.5
			c13.2,6.2,23,6.2,32.8,6.2c108.6,0.3,217.2,1.2,325.8,0.5c21.6-0.1,27.1,6.4,27.2,27.4c0.2,23.3-12,23.3-28.7,23.2
			c-130.9-0.7-261.9-1-392.8-1.2c-10.8,0-22-2.6-31.2,7.4C293.2,432.8,253.9,482.6,218.1,544.4z M2614.6,406.9c0,2.3,0,4.6,0,6.8
			c-43.6,0-87.2-0.2-130.9,0.1c-43.6,0.3-87.3-0.3-130.8,2c-23,1.3-26.3-8.9-27.5-28.1c-1.3-21,8.9-22.4,25.3-22.6
			c86.2-1.1,172.5-3.1,258.7-4.8c85.2-1.7,170.5-3,255.7-5.3c11-0.3,26.1,5.7,27.8-17.1c6.2-85.3-23.3-139.8-99.5-177.9
			c-27.3-13.7-56.1-23.5-85.8-30.5c-118.5-27.6-237.8-23.9-356.7-4.5c-98.1,16-194.7,39.5-284.6,84.3
			c-78.7,39.2-134.4,99.4-152.6,186.5c-24.2,115.7-28.7,233.2-22.6,351.2c0.9,17.3,7.7,21.4,24,21.8c73.1,1.8,145.9,7.6,218.2,18.4
			c164.9,24.5,323.6,67,462.9,164c6.6,4.6,14,9.1,21.6,10.8c134.5,29.9,261.2-54,275.1-179.7c5.8-52.3,6.3-105.3,11.2-157.7
			c2.4-25.6-7.9-29.9-30.7-29.5c-158.3,2.8-316.6,3.9-474.8,6.9c-23.6,0.4-31-5.1-30.9-29.7c0.2-26.8,16.1-22.9,32-23.1
			c160.3-2,320.6-4.4,480.9-5.7c18.1-0.2,25.9-3.8,23.9-23.5c-2.9-28.2-4.9-56.7-4.6-85c0.2-22-6.4-29.1-29.6-28.6
			C2785.1,407.9,2699.8,406.9,2614.6,406.9z M2755.9,1844c-3.5-125.7-7.8-251.5-9.7-377.3c-0.4-24.7-10.3-31.4-31.3-32.9
			c-43.7-3.2-87.2-2.8-130.4,4.7c-142.3,24.6-248.7,98.7-303.3,234c-58.3,144.4-61.6,295.1-25.5,445.2c22,91.7,81,155,177,171.8
			c105.9,18.6,209.9,7.9,310.2-34.1c19.8-8.3,27.2-18.3,26.2-40.4C2763.8,2091.4,2760.2,1967.7,2755.9,1844z M1635.4,775.4
			c66.3-6.7,127-8.3,187.7-7.9c19.7,0.1,16.9-12.4,16.4-24.6c-2.9-76.1-1.5-152.1,5.5-228c6.5-70.7,11.4-142.5,47.5-205.7
			c14.3-25.1,12-42.4-6.7-61.1c-5.7-5.7-10.3-12.6-15.7-18.6c-75.2-84.2-191.5-114.6-293.4-76.8
			c-101.8,37.8-190.9,150.3-187.7,248.3c4.2,127.8,5.2,255.5,5.2,383.3c0,18.4,5.8,22.4,23.1,19.5c40.9-7,82-12.9,123.2-18.5
			c16-2.2,28.1-8.5,38.4-21.3c59.2-73.8,83.7-157,64-250.2c-6.1-28.7,11.4-27.7,28.3-32.7c21.7-6.3,19.7,9.3,22.1,21.9
			C1711.7,599.2,1692.6,687.9,1635.4,775.4z M373,1985.7c40.6,2.3,81-2,121.1-6.7c64.1-7.5,111.4-58.3,112.3-119.1
			c0.5-36.8-8-45.4-44-44.2c-19.5,0.7-38.1,5.1-55.7,13.3c-71.3,33.5-144.8,51.4-223.4,29.9c-15.7-4.3-21.7,2.5-24.8,17
			c-5.8,27.7-12.3,55.2-19.4,82.6c-3.7,14.5,0.6,20.6,15.6,21.1C294.3,1981.1,333.4,1987.9,373,1985.7z M187,1821.9
			c14-1.5,32.9,4.1,40.1-19.2c15.3-49.3,33.5-97.5,54.6-144.5c4.9-10.9,3.2-15.8-8.1-20.4c-32.3-12.9-64.8-22.7-100.2-17.1
			c-54.4,8.6-93.7,57.8-89.4,112.1C88,1784.3,130.6,1822,187,1821.9z"/>
		<path class="st0" d="M947.4,1827.9c-110,0.2-161.6-66.4-134.8-162.3c30.2-108.3,104.5-183.5,195.1-244
			c60.6-40.5,126.3-69.1,201.2-68.7c92.3,0.5,142.6,62.9,121.4,153.1c-22.7,96.6-84.9,166.9-160.3,226.3
			C1101.2,1786.6,1024.6,1824,947.4,1827.9z"/>
		<path class="st0" d="M1473.6,1407.8c-36.1,0.1-58.2-24.8-54.2-61.1c7.1-63.4,79.2-137.2,142.3-145.4c42.1-5.5,66.6,17,64.3,59
			C1622.5,1326.7,1539,1407.6,1473.6,1407.8z"/>
		<path class="st0" d="M1474.6,1602.5c-35.5,0.5-58.7-24.9-55.2-60.4c6.2-63.2,79-138.4,141.5-146.2c42.9-5.3,67.1,16.1,65.2,57.9
			C1623.1,1519.8,1539.8,1601.6,1474.6,1602.5z"/>
		<path class="st0" d="M1288.7,1182c0.3-67.5,82.8-151.4,150.1-152.6c39.8-0.7,61.6,24.5,55.8,64.1c-9.5,64.1-77.7,132.4-142,142.2
			C1314.7,1241.6,1288.5,1219.5,1288.7,1182z"/>
		<path class="st0" d="M1362,1789.6c0-68.4,84.4-152.8,152.9-152.9c36.1-0.1,57.7,24.7,53.5,61.3c-7.4,65.3-80.6,138.2-145.5,145
			C1385.3,1847,1362,1826.5,1362,1789.6z"/>
		<path class="st0" d="M1197.8,1935.3c0-52.5,63.1-117,116.2-118.9c30.5-1.1,51.1,21.8,47.7,53c-5.5,50.3-60,105.2-110.5,111.3
			C1217.4,1984.8,1197.9,1968.2,1197.8,1935.3z"/>
		<path class="st0" d="M971.9,2015.8c0.2-52.9,63-116.4,116.5-117.7c31.7-0.7,50.7,20.4,47.2,52.4c-5.6,50.4-60.4,105.5-110.6,111.1
			C991.6,2065.4,971.8,2048.3,971.9,2015.8z"/>
		<path class="st0" d="M1137.9,738.5c-37.2,1.1-70.8-5.4-98.9-27.8c-32.6-25.9-31.2-61.7,2.1-86.9c47.9-36.3,143-35.3,189.4,2
			c31.2,25.1,31.7,60.2-0.1,84.9C1202.8,732,1170.7,739.8,1137.9,738.5z"/>
		<path class="st0" d="M2509.2,1993.8c20.3,0.3,32.9,6.5,25.1,35.4c-10.9,40.5-9.9,84.5-33.4,121.4c-5.7,8.9-14.7,27.4-25.6,17.5
			c-10.8-9.8-33.1-20.5-17-46.4c20-32.2,18.9-71.5,26-107.9C2486.8,2001.3,2488,1988.5,2509.2,1993.8z"/>
		<path class="st0" d="M2569.5,1764.5c-1.6,41.4-14,76.1-38.3,106.1c-5,6.2-11.5,18.3-20.7,5.4c-7.7-11-31.6-17.7-19.5-34.9
			c21-30,29.6-60.6,24.6-96.9c-3.2-23.2,20.4-17.7,32.2-23.4c15.4-7.5,15.3,7.3,17.3,16.5
			C2567.3,1747.1,2568.4,1757.2,2569.5,1764.5z"/>
	</g>
</g>
</svg>
