<?xml version="1.0" encoding="utf-8"?>
<!-- Generator: Adobe Illustrator 23.0.0, SVG Export Plug-In . SVG Version: 6.00 Build 0)  -->
<svg version="1.0" xmlns="http://www.w3.org/2000/svg" xmlns:xlink="http://www.w3.org/1999/xlink" x="0px" y="0px"
	 viewBox="0 0 3000 3000" style="enable-background:new 0 0 3000 3000;" xml:space="preserve">
<style type="text/css">
	.st0{stroke:#000000;stroke-width:10;stroke-miterlimit:10;}
</style>
<g id="Layer_1">
</g>
<g id="Layer_2">
	<g>
		<path class="st0" d="M1616,1943.6c-187.1,9.8-373.5-5.5-560.2-12.2c-146.3-5.3-266.9,54-374.6,146.5
			c-38.4,33-72.7,70.1-105.5,108.7c-13.2,15.5-27.3,30.4-41.9,44.7c-87.5,86-183.2,87.8-273.7,4.3c-86.6-79.9-134-183.1-167.1-293.4
			C-27.9,1539.4,111,1173,474.3,934.8c183.5-120.3,386.6-195.6,596.2-254.5c164.7-46.3,329.8-91.6,500.1-113.5
			c342.4-44.1,682-36.4,1016.7,55.6c163.5,44.9,289,137,347.1,302.7c39.7,113.4,39.5,229.9,14.6,346.7
			c-46.2,216.8-187,358.2-370.2,467.2c-232.3,138.1-485.2,198.8-753.1,204.5C1755.8,1944.9,1685.9,1943.6,1616,1943.6z
			 M2890.6,1289.1c4.6-22.5,9.1-41.1,12.2-59.9c15.9-96.9,13.8-193.2-19-286.5c-52.2-148.3-165.9-227.1-310.9-268.9
			c-121.1-35-245-54.6-370.3-66.7c-167.4-16.2-334.8-15.3-502.3-1.2c-196.3,16.5-387.1,60.2-576,114.1
			c-207,59-410.1,127.8-593.8,243.1C258.9,1133.7,94.3,1367.3,106,1700.6c5.2,148.4,44.2,288.3,123.5,415.2
			c26.4,42.3,58.9,79.7,102.1,105.8c54.8,33.1,103.5,28.6,149.9-15.3c26.5-25,49.4-53.9,75.3-79.5c13.6-13.4,12.8-23.4,2.8-38.5
			c-31-46.8-53.9-97.8-70.7-151.3c-54.1-171.9-37.8-332.7,75.6-478.5c117.8-151.5,271.7-255.4,444.3-333
			c209.8-94.4,432-131.4,661-138.1c284.5-8.3,561.1,31.2,829.9,125.1C2633.8,1159.3,2762.5,1218,2890.6,1289.1z M818.7,1293.9
			c-81.1,58.7-151.9,118.4-208.7,193.6c-38.6,51-70.8,105.1-85.1,168.1c-31.5,138.7,2.9,265.5,69.2,387.1
			c13.1,24.1,19.9,24.3,39.6,6.2c129-118.5,278.2-183.4,457-171c224.3,15.7,448.9,17.1,673.7,13.9c269.1-3.9,527.4-49.2,764.3-186.4
			c134.5-77.9,252.9-170.8,323.5-313.6c24.4-49.4,24.1-49.7-23.3-75.2c-18-9.7-36.5-18.4-54.1-28.7c-12.7-7.4-22.1-7.3-34.2,3.1
			c-187.4,161.8-409.7,228.5-652.6,237.8c-52.7,2-105.4-2.2-156.8-14.9c-166.4-40.9-248.7-165.3-222.9-334.4
			c7.1-46.6,21.3-91.4,35.7-137.9c-99.6-2.6-195.8,4-292,15.8c-19.3,2.4-30.7,11.3-40.5,26.7c-33.9,54-61.2,110.8-77.5,172.6
			c-45.9,174.7,7.8,326,147.8,409.8c23.1,13.8,20.8,24.3,10.7,44c-14,27.4-28,9.8-41,1.9c-139.7-84.9-208.7-240.8-182.4-407.1
			c12.7-80.4,41.3-154.9,80.7-225c-6.7-5.5-11.8-2.6-16.9-1.6c-138,26.9-268.2,75.2-393.4,139c-41.4,21.1-63.1,47.8-69.2,94.3
			c-5.7,42.6-13.5,85.1-13.2,128c1.1,154.3,52.9,279.5,203.3,347.1c26.7,12-1.1,26-1.8,38.9c-0.9,18.2-14.2,12.9-25.7,7.6
			c-134.7-62.7-205-170.6-224.8-315.5C798.3,1445,805,1372.9,818.7,1293.9z M2701.9,1253.5c-95.3-46.4-189.5-81.6-285.5-111.9
			c-189.5-59.8-383.6-93.7-582.4-100.6c-18.6-0.6-31.3,1-39,22.4c-11.7,32.4-21.8,65.1-29.1,98.6c-36,166.3,41.9,279.5,209,305.3
			c114.5,17.7,227.1,2.5,338.8-21.3C2457.1,1415.5,2584.4,1351.2,2701.9,1253.5z"/>
	</g>
</g>
</svg>
