<?xml version="1.0" encoding="utf-8"?>
<!-- Generator: Adobe Illustrator 23.0.0, SVG Export Plug-In . SVG Version: 6.00 Build 0)  -->
<svg version="1.0" xmlns="http://www.w3.org/2000/svg" xmlns:xlink="http://www.w3.org/1999/xlink" x="0px" y="0px"
	 viewBox="0 0 3000 3000" style="enable-background:new 0 0 3000 3000;" xml:space="preserve">
<style type="text/css">
	.st0{stroke:#000000;stroke-width:10;stroke-miterlimit:10;}
</style>
<g id="Layer_1">
</g>
<g id="Layer_2">
	<g>
		<path class="st0" d="M55.7,2217.6c4.5-142.5,13.3-284.8,39.7-425.1c40.9-217.5,155.9-391.1,325-530.3
			c21.5-17.7,24.7-24.2-0.8-42.1c-122-86-207.4-197.8-230.3-349.3c-15.6-103.3,2.3-202.7,51-294.4c134.7-253.9,338-423,622.8-480.9
			c167.7-34,336.7-31.9,501.7,21.9c138,45,244.3,127.8,304.4,263c9.4,21.2,16.9,15.4,30.8,5.4c90.1-65.1,189.3-106.1,302.4-101.8
			c127.8,4.9,240.3,47.8,326.7,145.4c15.5,17.5,26.2,9.9,39.5,3.4c58.9-28.6,120.4-48.2,185.5-56.6c179-22.9,292.2,64.5,317.4,243.8
			c14.5,103.6,3.1,206.2-7.7,308.9c-14.9,141.7-49.9,278.2-108.9,408.1c-5.9,13-4.4,22.1,3.3,33.7c84.2,126.2,121.8,267.1,133.1,417
			c10.4,139.1,26.2,277.9,17.1,417.6c-8.7,133.5-35,264.2-80.4,389.8c-56.4,156.1-163,255.7-333.4,276.2c-5,0.6-10.3,1.8-14.8,4.2
			c-73.2,39.2-148.1,29.7-222.5,6.1c-22-7-39.8-7.6-61.4,1.4c-64.7,27-134.2,31.9-203.1,37.6c-154.6,12.7-309.7,13.4-464.6,17.7
			c-171.4,4.8-343,10.5-514.6,7.5c-81.7-1.4-163.2-3.6-243-24.1c-9.6-2.5-20.6-1.3-30.7-0.1c-15.3,1.8-30.6,7.9-45.7,7.3
			c-95.4-4-187.5,25.1-281.7,28.2C303.5,2961,223,2909.1,169.2,2815c-41.7-72.9-56.9-154.1-74.1-234.9
			C69.6,2460.5,54.5,2340,55.7,2217.6z M473.2,2899.8c-90-52.3-129.4-131.9-148.5-223.9c-9.3-44.6-13.6-89.9-14.8-135.4
			c-4.3-169.6,7.1-338.8,20.2-507.7c9.3-120.5,39.9-236.2,108.2-338.7c149.1-223.9,368.6-338.4,625.4-377.2
			c240.1-36.2,483.9-37.5,726.9-33.8c126.8,1.9,250,25.8,371.2,62.3c161.8,48.7,272.9,149.7,338.9,306.3
			c48.7,115.4,71.8,235.1,77.8,358.1c12.9,266.5,19,533.1-25.4,797c-1.3,0.2,1.8,0,4.7-0.9c121.6-38.3,189.1-128.6,227.4-243.6
			c46.3-138.8,73.2-281.5,73.8-428.4c0.5-120-10.3-239.5-20.5-358.8c-10.9-127-42.8-247.8-111.2-357.2
			c-84.2-134.7-200.6-234.8-337.1-312.9c-149.9-85.7-309.2-139.1-483.6-144.7c-180.9-5.8-361.5,1.2-542.3,6.5
			c-315.9,9.2-600.4,110.4-856.2,293c-179.9,128.5-311.5,294.5-355.1,515.6c-47.8,242.4-64.6,487.3-20.2,732.9
			c16.2,89.3,31.5,179.1,71.7,261.8C257.5,2879.2,352,2926.3,473.2,2899.8z M1146.6,934.2c39-4.2,76.2-13.8,112.4-10.9
			c68.9,5.4,99.9-34.8,123.6-88.6c1.7-3.8,3.7-7.4,5.3-11.2c89-198.7,4.7-374.8-206.4-426.8c-87.5-21.5-176.5-29.8-267.2-19.8
			c-236.1,26-382.3,192.7-375.3,430c1,33.3,3.7,66,12.2,98.1c6.5,24.4-12.8,22.6-26.5,28c-16.7,6.6-20.5-0.4-24.3-15.7
			c-9.3-36.4-13-73.3-13.9-110.4C480.8,574.3,612,390.6,834.2,338.7c142-33.2,283.8-22.3,420.8,26.9
			c164.1,58.9,246.3,212.8,210.9,383.7c-11.8,57.1-35.4,109-65.4,159.8c53.5,0,103.8-0.7,154,0.3c19.3,0.4,29.6-6.6,37.4-24.3
			c35.8-80.9,58.4-164.8,66.8-253.1c19.9-208.2-92.5-387.7-289.2-457.9c-156.8-55.9-317.9-58.8-479.5-30.8
			C633.6,187.6,446.3,334.9,311.8,552c-75.1,121.1-101.7,252.3-51.2,391.4c39,107.3,114.7,184.4,206.5,248.4
			c18.5,12.9,30.9,11.6,49-0.9c154.6-106.6,324.5-181,505.6-227.2c54.5-13.9,77-44.1,91.4-90.7c9-29.1,11-58.8,9-88.9
			c-8.5-122.8-107.7-197.6-226.3-169.3c-65.4,15.6-116.5,53.2-148.4,112.8c-13.7,25.6-26.1,7.9-39.5,3.5
			c-17.8-5.9-13.6-16.7-6.5-28.9c17.4-29.7,37.9-57,65.1-78.2c86.4-67.5,182.2-92.8,283.1-41c98.6,50.6,128.9,141.9,123.8,247.8
			C1171.4,866.3,1158.5,898.9,1146.6,934.2z M678.4,2876.7c-79.6-68.4-103.9-156.9-108.6-252.1c-8.9-181.5-15.4-362.9-0.5-544.7
			c21.4-262.2,183.3-461.6,434.9-536.8c97.5-29.2,196.5-36.2,296.5-38.7c167.1-4.2,333.4-29.6,501.1-16.5
			c126.9,9.9,249.5,34.6,361.7,97.3c115.3,64.5,193.5,156.5,210,292.4c8.1,66.8,12,133.8,10.1,201c-4.5,152.8-7.3,305.8-15.7,458.4
			c-5.5,100.5-7.8,203.9-81,286.1c-10,11.2-0.4,14,7.7,16.1c32.1,8.4,64.9,12.5,98,9.2c64.3-6.5,102.5-38.7,116.9-101.4
			c7.1-31.1,12.2-63.1,13.8-94.9c11.5-227.1,19.8-454.2,0.4-681.4c-10.7-125.7-39.9-245.6-100-357.7c-48.5-90.3-118-154.8-213-193.5
			c-150.5-61.2-307.7-84.2-469-86.6c-155.1-2.3-309.8,9.5-464.7,14.6c-166.5,5.5-328.4,30-480,104.9
			c-238.4,117.9-388.9,298.5-413.7,570.6c-14.6,159.6-22.1,319.5-23.4,479.7c-0.6,67.3,7.4,134.1,24.5,199.4
			C420.4,2838.2,537.6,2901.4,678.4,2876.7z M1472.3,2631.4c-78.4,3.5-156.8,7.1-235.2,10.5c-197,8.5-394,16.9-591.1,25.1
			c-14.2,0.6-19.3,3.2-16.8,19.7c15.3,102.1,78.4,170.4,180,190.9c90.6,18.2,182.7,19.1,274.6,17.7c164.2-2.5,328.4-6,492.5-10.8
			c169.2-4.9,338.6-3.6,507.1-25.4c137.8-17.8,199.1-73.9,221.8-207.8c1.7-10.2,1.1-20.9,3.9-30.7c6.3-22.1-2.2-25.8-23-24.8
			C2014.8,2608.1,1743.5,2619.6,1472.3,2631.4z M917.3,2603.7c142.5-6.2,275.5-12.2,408.6-17.4c14.4-0.6,22.4-9,31.2-17.5
			c252.1-243.2,504.2-486.3,756.2-729.7c6.1-5.9,15.6-10,16.1-22.1c-112.1-0.7-223.4,5.1-334.6,4.5c-51.3-0.3-85.5,16.9-120.7,51.3
			c-215.8,210.9-433.4,419.8-650.5,629.4C990.5,2534.2,956.9,2565.9,917.3,2603.7z M1956.4,910.6c100.9,10.5,194.6,29.6,283.8,67.2
			c15.4,6.5,19.8-0.8,22.3-14.2c22-117.7,49.5-234.3,67.4-352.7c11.5-76-14.9-136-74.4-182.1c-170.4-131.8-374.5-122.7-544.1,13.4
			c-11.3,9.1-14.5,18.7-11.6,32.2c29.7,141.9,2.7,277.1-50.7,408.6c-8.4,20.6-4.4,24.2,16.3,24c70.2-1,140.5-0.8,210.7-0.1
			c14,0.1,22.9-4.1,30.7-15.6c46.4-68.6,77.1-143.3,90.1-225.2c10.6-67,9.7-133.9-5.9-199.9c-5-21,4.8-27.6,21.8-31.8
			c16.9-4.1,25.2-1.2,29.3,18.9c16.8,83.1,17.7,165.9,0.9,248.8C2028.2,775.1,1999.5,843.1,1956.4,910.6z M2712.5,1304.5
			c6-13.8,10.9-24.8,15.5-35.9c56.7-135.9,80.5-279.2,92.8-424.6c7.7-90.4,13.7-181.2-11.8-270.8c-24.4-85.8-81.8-137.5-171.2-147
			c-91.5-9.8-174.7,21-256.8,56.1c-11.5,4.9-12.7,10.6-8.1,21.4c18.1,42.9,11.7,87.4,5.3,131.2c-16.9,116.4-44.2,230.8-67.2,346.1
			c-4.1,20.7,2.5,27,18.4,34.3c45.1,20.7,89.2,43.4,130.2,71.4c19.7,13.5,26.3,7.6,35.3-11.3c48.1-101,85.2-205.6,109.8-314.8
			c12.1-53.5,21.1-107.3,27.4-161.7c3.5-30.9,25.7-15.2,40.2-16c20.3-1.1,12.6,14.4,11.3,24.1c-4.8,35.7-9.5,71.6-16.2,107
			c-26.1,137.3-68.2,269.5-131.8,394.2c-8.9,17.5-6,26.1,9.1,37.7c29.6,22.4,58.1,46.5,85,72
			C2657.9,1244.8,2683.6,1274.2,2712.5,1304.5z M725,1791.3c521.8-10.4,1036.8-20.7,1556.7-31.1c-41.5-61.5-91.4-103.7-151-134.4
			c-141.5-72.9-294.4-94.6-450.5-90c-164,4.8-327.8,18.9-491.7,26.4c-126.1,5.8-239.5,47.2-344.1,115.1
			C799.5,1706.4,761.3,1743.3,725,1791.3z M2318.3,2499.2c7.6-180.2,16.7-353.5,12.4-527.2c-1.1-45.4-6.6-90.7-18-134.9
			c-2.2-8.7-2.4-18.9-11.5-24.1c-13.3-7.6-86.5,1.7-98,12.8c-118.3,113.9-236.3,228.2-355,341.8c-13.9,13.3-15.6,19.4,2.5,30.9
			c91.6,57.8,182.3,117,273.3,175.7C2187,2414.8,2250.2,2455.3,2318.3,2499.2z M1633.2,1828.5c-41.7,0-91.2,0.2-140.8-0.1
			c-13.5-0.1-22.9,6.6-32.8,14.7c-269,224-537.7,448.3-807.9,670.9c-27.7,22.8-36.3,45-33.1,78.9c2.1,22,10.2,24.5,28.5,23.4
			c52.6-3.1,105.2-5.8,157.9-6.8c24.5-0.4,42.2-9.2,59.8-26.2c218.3-211.3,437.6-421.5,655.6-633
			C1561.6,1910.4,1598.6,1866,1633.2,1828.5z M1426.2,2574.4c0.9,2.3,1.8,4.6,2.7,6.9c283.4-12.3,566.9-24.7,859-37.4
			c-12.1-9.2-16.6-13.1-21.5-16.2c-151.6-97.9-303.5-195.4-454.7-293.9c-17.3-11.3-26.5-6.3-39,5.9
			c-92.4,90.1-185.4,179.7-278.3,269.4C1471.8,2531,1448.9,2552.7,1426.2,2574.4z M1241,1950.8c-2.7-3.6-6.1-8.6-9.9-13.3
			c-22.2-27.2-45.7-53.4-66.4-81.7c-11.8-16.1-24.9-21.1-44.3-20.6c-135.3,3.1-270.7,5.5-406.1,7.1c-18.5,0.2-27.9,7.3-35,23.4
			c-14.6,33.1-26.4,67.1-36.9,101.8c-4.5,14.8-0.6,22.4,11,30.9c90.9,66.3,181.6,132.9,272,199.9c9.6,7.1,15.6,9.4,26.1,0.6
			c92.4-77.8,185.4-155,278.1-232.4C1234.2,1962.7,1240.8,1960.4,1241,1950.8z M614.5,2478.4c82.1-68.2,158.2-131,233.8-194.4
			c49.5-41.5,49.3-42.1-3.9-81.3c-71.1-52.4-142.5-104.5-217.4-159.4C605.1,2188.2,614.2,2329,614.5,2478.4z M1389.8,1833.3
			c-59.3,0-114,0-175.9,0c23.7,29.3,43,52.9,62,76.6c6.3,7.9,11.7,9.2,20.2,1.9C1326,1886,1356.7,1860.9,1389.8,1833.3z"/>
	</g>
</g>
</svg>
