<?xml version="1.0" encoding="utf-8"?>
<!-- Generator: Adobe Illustrator 23.0.0, SVG Export Plug-In . SVG Version: 6.00 Build 0)  -->
<svg version="1.0" xmlns="http://www.w3.org/2000/svg" xmlns:xlink="http://www.w3.org/1999/xlink" x="0px" y="0px"
	 viewBox="0 0 3000 3000" style="enable-background:new 0 0 3000 3000;" xml:space="preserve">
<style type="text/css">
	.st0{stroke:#000000;stroke-width:10;stroke-miterlimit:10;}
</style>
<g id="Layer_1">
</g>
<g id="Layer_2">
	<g>
		<path class="st0" d="M2155.5,364.7c32.8-51.6,68-96.4,114.3-131.3c114.4-86.3,241-106.5,377.8-68.5
			c133.3,37.1,220.7,118.8,243.4,258.9c13.2,81.3,13.2,163.1-6.2,243.8c-4.4,18.2-2.4,34.2,1.7,51.9
			c23.1,101.3,23.4,203.3,3.2,305.1c-4,20-3.7,38.1,3.2,57.5c21.2,59.2,23.8,121.8,28.4,183.5c10.5,141.6,18.7,283.7,11.5,425.6
			c-6.4,125.8-14.3,252.5-75.5,367.6c-20.4,38.4-41,76.8-73.7,106.4c-10.9,9.9-10.3,18.7-5.4,31.2c42.2,109.8,55.2,223.6,42.9,340.1
			c-8.6,80.8-48.7,144.9-113,193.6c-89.4,67.6-194.5,99.7-300.9,125.2c-272.4,65.1-530.4,28.7-770.3-119.6c-11.4-7-19.3-13.5-32,1.1
			c-67.3,77.6-157,109-255.8,120.1c-114.8,13-216.1-20.2-306.7-90c-9.1-7-16.4-15.4-29.9-3.4c-61.6,54.7-137.8,74.8-216.6,86.1
			c-117.7,16.9-235.3,19.2-353.6,1.6c-232.3-34.5-384.3-207.3-379.9-439.5c2.5-131.8,61.1-230.1,184.3-285.4c9.7-4.4,25.7-6,9.6-23
			c-104.3-109.9-133.7-247.1-140.6-391.9c-6.2-130.7,11-259.9,29.7-388.7c20.8-143.2,40-286.8,71.2-428.2
			c35-158.6,91.7-307.7,198.6-433.8c137.8-162.6,316.7-250,523.2-286.6c217.8-38.6,438.1-33.4,657.9-35.7
			c81.9-0.9,163.8,0.7,244.9,14.1C1976.5,174.9,2079,247.3,2155.5,364.7z M958.4,2215.2c11.2,1,14.8,1.7,18.4,1.7
			c171.6-1.2,343.3,8.3,514.7-6.3c97.9-8.3,192.8-29.1,279.1-79.3c141.8-82.4,226.9-209.3,272.9-362
			c79.9-265.4,143-534.8,165.6-811.9c11-135,8.5-270.3-27.2-402.5c-57.8-213.4-188.6-355.3-444.4-364
			c-172.8-5.9-345.2,0.4-517.7,3.9c-22.9,0.5-45.8,3.2-72.6,5.2c41.8,57,77,112.6,106.7,171.6c58.6,116.8,98.5,238.1,95.7,371.1
			c-2.3,109.5-8.2,218.7-18.5,327.7c-1.7,18.5-1.5,26.3,21.5,29.3c37.5,5,75.8,8.2,112.1,22.1c54.7,21,82,60.1,78.7,118
			c-2.6,46.2-20,86.3-53.5,118.3c-11.4,10.9-13.5,17.7-2.6,30.8c19.7,23.7,32,51.9,40.4,81.6c35,123.4-22.4,231.4-137.9,258.6
			c-34.8,8.2-70.4,9.8-105.8,4c-20.7-3.4-31,0.4-35,24.8c-19.7,121.6-72.6,228.1-151.7,322.3
			C1057.3,2128,1012.6,2170.9,958.4,2215.2z M199,1909.3c2.7,9.6,4.2,17.3,7.1,24.3c50.8,123.4,137,207.4,268.4,241.6
			c127.2,33.2,257.6,34,387.6,39c10.4,0.4,19.3-3.1,27.5-9.1c116.6-85.1,214.4-186.8,272.2-321c40.9-95.1,53.1-197.7,65.5-299.3
			c25.9-211.4,49.4-423.1,64-635.6c7.2-105.3,17.9-211.2,0.6-316c-26-157.3-100.9-293.1-195.9-418.9c-9.1-12.1-20.1-10.4-31.7-8.7
			c-38.1,5.4-76.2,10.1-114.1,16.8c-178.2,31.5-337,101.2-464.7,233.8C368.9,577.3,304.9,725.2,269.5,886.5
			c-46.8,212.9-76.2,428.8-99.5,645.4c-10.7,99.2-10.4,198.8,7.5,297.9c4.2,23.3,12.8,30.1,36.1,29.9c112.5-1.2,225-0.3,337.5-0.7
			c16.8-0.1,26.9,1.1,27,23.2c0,22.2-5.9,27.9-28.1,27.7C433.7,1908.7,317.4,1909.3,199,1909.3z M2881.8,1461
			c-2-65.6-4.7-192.8-24.8-318.8c-11.1-69.6-37-101.8-106.8-115.5c-95-18.7-191.6-23.9-288.3-21.8c-20.4,0.5-41.7,4-60.8,11.1
			c-84.1,31.2-153.2,79.7-170.2,174.8c-15.2,85.3-33,170-51.9,254.5c-26.4,118.2-59,235.6-50.2,358.6
			c7.2,99.4,19.3,198.3,63.8,289.4c26.3,53.8,69.7,88.4,130.3,95c94.2,10.3,188.8,11.7,283.5,5.6c71.7-4.6,127.9-37.3,169.2-95
			c39.9-55.8,68.6-117.4,81.7-185.1C2882.4,1784.6,2890.2,1654,2881.8,1461z M2218.5,2620.5c0-0.5,0-0.9,0-1.4
			c-29.6,0-59.2,1.3-88.7-0.2c-119.3-6.2-172.2-52-196.9-168.8c-17.8-84.3-27.9-169.3-22.9-255.5c1.2-20.2-5-26-24.4-24
			c-47.6,4.9-94.1,13.5-133.8,41.9c-53.9,38.6-83,87.8-76.5,158.5c9.2,99.5,2.1,198.8-26.8,295.3c-4.2,13.9-0.4,19.3,10.5,25.3
			c24.1,13.3,47.2,28.6,71.7,41.1c205.6,105.3,421.8,129.3,646,79c103.8-23.3,205.8-53.7,294.9-115.9c48-33.5,84-77.3,94.6-134.7
			c21.1-114.7,8.6-227.6-30.4-337.5c-4.4-12.3-9.7-14.5-21.6-8.1c-46.5,25.1-97.8,29.8-149.2,30.2c-22.6,0.2-28.8,7.6-27.9,28.9
			c2.4,57.5-4.3,114-22.5,169c-39.2,118.3-119.2,176.7-242.8,176.9C2254.1,2620.5,2236.3,2620.5,2218.5,2620.5z M613.6,2815.9
			c87.4-4.1,179-9.2,267.6-35.9c85.5-25.7,145.8-79.6,167.4-167.4c26.9-109.3,18-216.8-27-321.2c-9.9-23-23.8-29-45.3-25.7
			c-24.3,3.7-12.9,23.7-13.7,35.7c-8.4,127.3-85.7,303-269.5,345.4c-178.4,41.1-316.1-41.5-350-207.8c-15.7-76.9-3.2-151,28.2-222.3
			c3.1-6.9,7.8-14.5,7.1-21.3c-0.9-8.9-70.2-39.3-80.1-36c-78,25.5-137.8,71.8-167.8,150.5c-60.1,157.8,17.6,361.7,166.4,440.8
			C395,2802.8,501.1,2813.7,613.6,2815.9z M1625.9,2479.3c0-10.8,0.4-21.7-0.1-32.5c-3.4-86.4-60.2-148.8-145-165.2
			c-53.9-10.4-103.5,5-153.9,17.3c-28.8,7-56.7,17.5-81.6,33.7c-12.9,8.4-29.1,21.1-8.5,36.9c70.8,54.4,61,143.5-20.5,179.5
			c-26.2,11.6-53.6,20-81.9,24.6c-18.9,3.1-30.8,8.9-33.7,31.8c-4.1,32.2-15.1,63.8-33.7,90.8c-12.2,17.6-4.7,25,8.5,35
			c132.1,100.2,310.6,106.5,448.3,14.1c47.7-32,78.9-76.4,89.8-133.8C1621.9,2567.8,1623.6,2523.4,1625.9,2479.3z M2252.9,1046.2
			c21.4-15.8,38.5-30.5,57.7-41.8c16.4-9.6,18.6-19.4,15.2-37.9c-26.4-144.2,61.2-256.6,189.1-268.3c36.7-3.4,72.6-1.7,108.9,2.8
			c122.9,15.2,199.7,121.6,169.9,242.1c-7.9,32.2-4.4,48.9,28,56.4c0.9,0.2,1.6,1.1,2.4,1.7c13.2,10.1,19,8.3,21.9-9.6
			c11.7-71.7,10.9-143.7,1.8-215.1c-12.8-100.6-64.9-158.2-165.5-178.4c-146.4-29.4-283.9-5.2-408.3,81.2c-13.1,9.1-17,19-15.7,34.5
			c4.1,51.1,7.9,102.2,5.2,153.5C2260.2,925.3,2256.6,983.3,2252.9,1046.2z M2076.7,1831.9c-45.5,110.1-106.3,209.3-206.7,290.2
			c22.5,0,35.1-0.2,47.7,0c63.5,1.2,110.9,29.9,143.1,84.1c16.8,28.3,26.7,59.2,32,91.4c4.9,30.1,7.5,60.5,12.7,90.5
			c8.3,47.8,32.8,67.7,81.3,68c58.3,0.4,109.5-37.2,128.5-95.3c10.8-33,13.7-67.3,14.3-101.9c0.3-13.4-4.3-19.4-17.4-21.7
			c-103.5-18.2-159.6-87.4-189.5-181.5C2099.7,1983.6,2088.5,1908.6,2076.7,1831.9z M2213.8,2572.9c0-0.3,0.1-0.6,0.1-0.9
			c17.7,0,35.5,0,53.2,0c105.2,0.2,167.1-44.6,200.9-144.5c14.7-43.5,18.5-88.5,20.3-133.8c1.8-46.7,1.8-46.8-44.8-47.4
			c-19.7-0.3-43.6-7.2-57.9,1.5c-18,10.9-6.8,37.7-8.7,57.4c-9.7,101.3-57.8,169-138.9,193.2c-94.8,28.3-165.2-14-182.7-110.5
			c-4.6-25.1-5.6-50.9-10-76.1c-8.2-46.3-22.1-90.1-62.1-120.2c-13.5-10.1-24.5-14.6-25,9.9c-2,97.1,7.3,192.8,37.3,285.6
			c16,49.7,52.5,74.8,103.4,79.1C2137,2569.5,2175.4,2570.8,2213.8,2572.9z M2698.3,968.2c11.8-6.3,30.9,14.9,40.1-8.2
			c27.6-69.3,10.3-157.6-64.7-193.3c-40.4-19.2-83.9-22.9-127.2-21.5c-118.5,3.6-184.8,79.6-175,197c1.7,20.8,6.7,30.2,30.9,22.3
			c26.1-8.6,54.2-9.1,82-9.5C2555.4,954.1,2626,961.9,2698.3,968.2z M386.6,2373.7c0.2,112.5,58.6,200.2,151.3,225.1
			c63.8,17.2,126.9,11.3,187.5-13.6c121.9-50,184.7-183.1,189-304.5c0.5-13.7-5.8-15.1-17.3-16.7c-27.1-3.9-33.8,5.9-33.7,32.8
			c0,92.2-37.6,166.6-117.1,215.2c-112,68.4-216.7,34.4-258.4-81.7c-20.5-57.3-21.5-115.6-7.7-174.6c2.9-12.3,11.7-28.4-11.2-31.1
			c-18.5-2.2-39.5-23.3-52.8,11.5C399.3,2280.9,385.8,2325.5,386.6,2373.7z M520.5,2319.5c0.9,51.9,7.3,93.3,31.6,130.2
			c28.2,42.8,68.9,57.4,117.9,42.1c93.7-29.4,146-103.1,145.8-202.1c0-21.8-6.8-28.9-28.4-29.2c-77.8-1.3-155.6-4.8-232.5-18.4
			c-14.6-2.6-22.5,1.2-24.7,16.3C526.7,2281.6,522.8,2304.9,520.5,2319.5z M1327.8,1686.1c9-0.5,23.9-0.1,38.4-2.6
			c55.5-9.4,97.8-36.2,114-93.2c17.9-62.9,4.5-120.4-32.7-173.3c-10.2-14.6-21.1-20.8-39.6-15c-26.7,8.4-55.5,8.9-81.7,2.1
			c-27-7-29.4,5.4-31.6,25.2c-7.5,66.4-15,132.8-23.7,199C1263.4,1685.2,1262.8,1685.2,1327.8,1686.1z M2525.2,368.5
			c0,49.2,0.8,98.5-0.4,147.6c-0.5,18.7,4.9,23.7,23.3,21.7c26.4-2.9,53.2-2.3,79.5,2.2c16.9,2.9,24.9-0.2,24.7-20.1
			c-0.9-94.5-0.7-189-0.1-283.5c0.1-16-6.6-22.8-21.1-26.2c-27.8-6.6-55.7-11.7-84.3-13.3c-16.8-1-22.2,4.1-21.9,21.1
			C2525.8,268.1,2525.2,318.3,2525.2,368.5z M2840.9,632.9c30.1-197.6-16.8-345.6-138-389.2c0,97.8,0.1,195.2-0.1,292.6
			c0,9.9,2.1,15.9,13,19.2C2762.5,569.5,2804.4,592.3,2840.9,632.9z M2249.1,634.5c23.8-13.5,44.1-28.2,66.6-36.8
			c23.2-8.9,26.8-23,25.5-45.2c-5.2-86.6-8.6-173.3-13.1-259.9c-0.6-11.3,1.7-23.5-7-35c-57.4,38.3-99.4,89.2-131.2,149.3
			c-6,11.4-1,20.9,3.4,30.8C2220.7,499.3,2238,563.8,2249.1,634.5z M2476.2,372.7c0-33.5,0-66.9,0-100.4c0-82.3-5.2-85.3-83.4-53
			c-14.8,6.1-18.2,14.2-17.4,29c4.6,83.5,7.7,167,12.8,250.4c1.3,21.1-8.9,51.6,6.5,60.7c13.5,8,40.3-8.2,61.5-10.8
			c17.1-2.1,20.4-10.4,20.2-25.4C2475.8,473.1,2476.1,422.9,2476.2,372.7z M1355.8,1358.6c73.6,0.7,125.4-40.9,137.7-108
			c7.6-41.4-6.1-66.7-44.6-81.6c-35.2-13.6-73-15.5-109.5-22.8c-14.4-2.9-15.4,6.1-16.4,17.2c-4.4,49.9-8.9,99.9-14.7,149.7
			c-4.6,39.5-4.4,40.8,36,44.9C1349.2,1358.4,1354.2,1358.5,1355.8,1358.6z M1246.3,2273.9c-0.2-2.4-0.4-4.8-0.7-7.2
			c-55.5,0-111.1-0.3-166.6,0.2c-15.6,0.1-10.5,10.3-7,18.6c30,72.1,43.3,147.1,39.4,225.1c-0.6,11.1,2.2,17.3,14.6,14.5
			c29.8-6.6,60.1-12.7,85.8-29.9c32-21.4,30.8-64.5-1.4-86c-42.5-28.5-44-77.1-2.8-110.3C1219.5,2289.2,1233.4,2282.1,1246.3,2273.9
			z M1625,2308.4c11-26.6,20.3-49.1,31.2-75.6c-33.4,7.2-62.1,13.4-95.7,20.7C1586.5,2270.9,1606.7,2286.1,1625,2308.4z"/>
		<path class="st0" d="M1065.2,1246.9c-1,83.4-29.3,168.6-93.2,240.3c-111.5,125.3-290.6,130.1-408.9,11.4
			c-147.9-148.5-136-420.8,24.1-549.7c122.9-99,290.4-82,389.8,40.9C1034.7,1061.1,1065.2,1143,1065.2,1246.9z M1015.7,1230.2
			c1.9-75.5-27.7-147.1-78.1-210.7c-74.8-94.3-206.1-112.4-304.6-43c-150.1,105.8-167.8,353.2-34.9,486.8
			c100.2,100.7,249.2,94.9,341.3-13.6C991.2,1388.6,1015.6,1317.3,1015.7,1230.2z"/>
		<path class="st0" d="M2541.3,1577.4c84.2-0.3,150,65.3,149.7,149.2c-0.3,81.3-65.4,147.6-145.2,148.1
			c-86.8,0.5-153.8-63.6-154.4-148.1C2390.6,1643.5,2456.8,1577.7,2541.3,1577.4z M2540,1625.3c-56,0.7-99.7,46.6-98.4,103.4
			c1.2,55,46.2,98.4,101.2,97.6c54.6-0.8,99.3-46,99.4-100.4C2642.2,1670.5,2595.6,1624.6,2540,1625.3z"/>
	</g>
</g>
</svg>
