<?xml version="1.0" encoding="utf-8"?>
<!-- Generator: Adobe Illustrator 23.0.0, SVG Export Plug-In . SVG Version: 6.00 Build 0)  -->
<svg version="1.0" xmlns="http://www.w3.org/2000/svg" xmlns:xlink="http://www.w3.org/1999/xlink" x="0px" y="0px"
	 viewBox="0 0 3000 3000" style="enable-background:new 0 0 3000 3000;" xml:space="preserve">
<style type="text/css">
	.st0{stroke:#000000;stroke-width:10;stroke-miterlimit:10;}
</style>
<g id="Layer_1">
</g>
<g id="Layer_2">
	<g>
		<path class="st0" d="M54.8,1711c-9-144.3-3.8-288.3,2.8-432.4c5.8-127,10.3-254.2,37.5-378.8c33.7-154.3,93.8-298.6,185.2-427.4
			c106.6-150.2,256.7-229.7,438.5-249.7c236-26,457.1,31.7,671.7,123.2c12.8,5.5,23.4,7.9,37.3,1.6
			c159.6-71.9,328.9-107.8,501.2-130.2c175.4-22.8,351.7-26.8,528.3-17.6c79.8,4.2,158.5,14.6,233.6,44.3
			c145.7,57.8,221,167.9,233.4,321.1c13.4,164.7-42.7,311.5-126.4,449.6c-17.2,28.3-36.6,55.4-56.2,82.1c-8.6,11.7-8.4,17.9,3.7,27
			c120.4,90.5,175.8,216.8,189.5,361.9c21.9,231.3,36.6,463.3,29.3,695.9c-2.5,79.8-14.7,158.6-41,234.5
			c-52.1,150.4-154.7,253.6-298.5,318c-113.1,50.6-234.2,67.4-355.3,85.2c-176.7,26-351.9,7.8-527.2-14.3
			c-102.5-12.9-205.5-22.8-305.8-48.7c-41.4-10.7-82.2-23.5-119.2-45.4c-16.3-9.6-29.4-10.2-47.1-2.7
			c-185.1,78.9-377.9,119.4-579.4,104.4c-140.1-10.4-279.1-30.1-404.9-100.8c-122.7-68.9-190.6-173.7-202.5-313.2
			c-16.2-189-21.1-378.7-28.5-568.3C53.4,1790.6,54.8,1750.8,54.8,1711z M2071.4,1036.6c-58.7-1.5-131.7,2-204.6,6
			c-120.7,6.6-240.4,20.6-352.2,69.9c-193.8,85.5-309.6,238-365.9,438.7c-44.6,158.9-43.8,322.4-46.4,485.5
			c-0.3,18.8,10.4,16,22,15.4c78-4.1,155.3,3,232.4,13.8c75.3,10.6,126.1,52.5,155.9,121.4c13.5,31.3,25.7,63.2,40.1,94
			c22.6,48.2,58.1,80.9,112.6,90.3c26.2,4.5,52.3,8.5,78.8,10.3c179,12,358.1,13.5,537.4,5.7c64-2.8,106.2-35.7,136.7-87.6
			c12.9-21.9,23.2-45.6,32.7-69.3c16.5-41.3,28.3-84.4,47.9-124.5c29.1-59.7,73.8-100.3,140.1-114c85.6-17.8,171.7-14.3,257.4-2.4
			c20.4,2.8,21.5-3.4,20.9-20c-5.2-154.5-12.4-309-27.4-462.9c-9.2-94.1-31.1-185.2-90.5-262.7c-79-103.3-187.4-157.5-311.3-184.2
			C2355.3,1031.4,2220.5,1032.3,2071.4,1036.6z M2070.8,2785.1c60,2,119.4-4.3,178.7-11.8c109-13.8,217.9-29,321.5-68.4
			c152.3-57.9,261-158.8,311.4-316.5c34.5-108.1,38.1-219.8,36.9-332c-0.2-14.7-8.1-16.2-19.4-18.2c-77.3-13.6-154.8-14.4-232.3-3.9
			c-56.2,7.6-98.6,36.1-124,88.5c-20.7,42.8-33.7,88.4-51.4,132.2c-59.4,146.2-124,182.5-252.3,182.6c-110,0.1-220.1,1.7-330.1-0.7
			c-80.5-1.7-161.1-2-241.1-15.8c-80-13.8-133.9-58.3-165.3-131.9c-13-30.5-25.1-61.3-38.8-91.5c-19.5-43.3-52.2-72.7-99.2-81.6
			c-81.3-15.3-163.5-19.5-246.2-15.6c-13.4,0.6-17.9,5.4-17.5,18.8c3.3,111.3,12.6,221.5,53,326.8
			c54.1,141.2,151.7,232.5,301.2,266.3c69.5,15.7,139.6,26.8,210.1,35.3C1800.7,2763.7,1935,2783.3,2070.8,2785.1z M1356.4,380.9
			c-16-6.1-26.5-10.2-37.1-14.2c-187-70.2-377.8-118.7-580.2-98.9C574,284,432.2,348.3,331.9,483.4C222.9,630.2,157,796.9,129.1,978
			c-21.3,138.1-22.4,277.7-28.6,416.9c-3,67.2-8.5,134.3-4.2,203.9c10-3.2,18.9-5.7,27.6-8.9c96.8-35.4,193.4-71.5,290.6-105.8
			c21.2-7.5,27.8-17.1,28.3-40c2.9-144,6-287.5,65.9-423.8c43.5-99,97-188.4,181.7-257c121.1-98.1,261.9-136.9,415.4-137.1
			c13.8,0,24.3,0.1,30.3-16.8c21.8-61.5,62.2-109.8,111-152.1C1279.8,429,1316.5,406.1,1356.4,380.9z M2091.8,443.3
			c90-1.2,175.8,5.2,259.5,29.6c154.1,44.9,235.2,158.2,219.8,311c-7.5,75-37.8,142.5-77.1,205.9c-9.8,15.8-8.3,21,11,25.3
			c58.4,13,115.1,32.1,167.6,61.2c15.6,8.6,23.5,5,32.2-8.3c19.1-29.4,40.7-57.3,58.5-87.4c70.9-120.2,118.8-247.3,116-389.7
			c-3.1-152.2-84.7-263.6-229.1-311.4c-43.4-14.4-88-24.2-133.4-27.4c-284.4-20.6-566.7-8.6-844.4,61.7
			c-129.2,32.7-254.3,76.1-363.6,155.4c-67.6,49.1-120.7,109-140.4,193.6c-39.2,168.8,65.5,378.5,223.8,448.1
			c10.4,4.6,17.2,2.3,26.1-2.4c25.9-13.8,51.8-27.8,78.7-39.4c15.4-6.7,17.5-12.9,8.8-26.9c-21.7-34.8-35.8-73.1-46.9-112.4
			c-41.6-147,6.1-279,132-365.9c38.5-26.5,80.3-46.5,124.1-62.2C1837.9,457.6,1965.2,441.7,2091.8,443.3z M440.3,1528.6
			c-12.2-1.7-21.2,4.3-30.7,7.8c-94.1,34.4-187.9,69.8-282.5,102.9c-23.5,8.2-31.6,18.7-30.6,44.2c9.4,233,16.5,466.2,32.6,698.9
			c9.3,133.5,72.4,232.7,191.9,295.2c93.2,48.8,194.8,66.1,297.3,80.3c212,29.4,415.1-5.6,612.4-84.1c15.2-6.1,17.3-10.6,4.5-22.4
			c-67.7-61.7-111.2-138.7-137-225.6c-7.4-24.9-14.5-28.8-39.5-18.8c-119.3,47.4-241.4,57.4-358.1-2.9
			c-153.3-79.1-234.3-212-252.1-381.3c-14.8-140.6-10.2-282.3-8.2-423.6C440.6,1575.8,440.3,1552.3,440.3,1528.6z M1111.6,1505.7
			c-5.6-0.8-9.2-1.7-12.8-1.7c-196.3,3.6-392.6,7.5-588.9,10.5c-17.8,0.3-22.4,5.9-22.2,22.9c1.9,154.5-5.6,309.2,6.3,463.6
			c11.9,155.4,81.1,278.5,217.2,355.4c114.4,64.6,233.8,47.2,350.9-0.7c14.8-6.1,13.3-15.8,11.3-27.2
			c-20.2-119.4-21.5-239.7-17.7-360.2c0.9-28.6,0.1-57.2,0.1-88.3c-42.6,37.7-83.3,40.3-113.6,9.8c-26.9-27.1-28.2-69.3-3.1-98
			c13.2-15.1,30.1-23.1,49.6-24.7c31-2.6,52.4,15.5,72.5,40C1066.5,1702.2,1083.8,1603.6,1111.6,1505.7z M1707.9,555
			c-104.4,46.5-185.6,104.9-209.6,216.5c-20.4,94.6,10.5,179.6,55.1,261.1c6.1,11.1,13.5,10.1,23.7,6.9
			c37.1-11.6,74.9-20.8,113.5-25.7c238.8-30.5,478.2-35.9,718.1-15.3c17.1,1.5,26.3-2.9,34.7-16.4c32.2-51.7,59.8-105.4,74.1-165
			c18.5-77.6,11.2-150.8-41-215c-22-27.1-25.2-27-49.2-0.4c-67.8,75.1-86.2,161.2-50.5,255.6c10.3,27.1-6.6,28.1-20.4,35.6
			c-20.9,11.5-21.1-7.4-24.9-18.3c-39.7-114-20.4-216.8,62-305.5c17-18.3,12.8-23.6-6.5-31.7c-27.2-11.4-55.2-19.8-83.5-27.8
			c-14.5-4.1-24.7-0.9-35.9,8.9c-105.2,91.9-147.6,204.2-109.1,341.2c7,24.9-6.5,25.7-21.3,32.2c-18.8,8.2-21-4.8-24.3-16.8
			c-33.6-121.2-14.5-232.3,64.7-331.6c12.2-15.3,25.1-29.9,39.1-46.6c-44.8-8.4-87.4-5.7-129.9-7.5c-21.4-0.9-35,7-48.1,22.9
			c-92.1,111.5-125.1,238.4-97.8,379.9c4.9,25.4-9.2,25.2-24,29.5c-20,5.9-21-7.6-23.7-21.5c-20-100.6-9.5-197.8,30.8-292.1
			c16.7-39.1,39.5-74.6,66.4-113.5c-73.5,3.9-140.1,15.4-205.6,34.3c-9.4,2.7-13.1,10-17.5,17.4c-29.6,50.3-50,104-61,161.3
			c-12.7,65.8-15.5,131.9-0.4,197.6c5.5,23.9-10.8,22.8-24.7,27.2c-18.3,5.8-20.9-5.2-22.5-18.8c-3-25.3-7.9-50.6-9.3-76
			C1644.2,741.5,1663.9,649.7,1707.9,555z M489.4,1341c0,33.2,1.1,66.4-0.4,99.5c-0.9,19.8,4.9,26.4,25.3,25.8
			c61.6-2,123.3-3.2,184.9-2.3c25.4,0.4,28.3-5.6,23.2-30.1c-36.8-177.3,7.2-329,149.4-446.2c71.2-58.7,155.9-84.5,246.7-91
			c18.6-1.3,21.5-6.3,16-23.8c-18.5-58.5-25.1-118.7-18.9-179.8c1.8-17.8-4.3-21.7-19.8-20.4c-24.6,2.1-49.3,2.7-73.7,5.6
			C854.6,698,714.4,768.3,619.8,911.1C534.2,1040.4,490.8,1184.6,489.4,1341z M1218.8,1035.6c-17.1-26.6-33.9-49.7-47.2-74.6
			c-7.5-14-16.4-18.6-31-18.2c-289.7,8.4-434.7,264.5-367.9,499.9c4.5,16,12.7,20.7,28.5,19.6c26.5-1.8,53.1-2.9,79.5-2
			c19.7,0.7,24.6-5.1,24.6-25.4c-0.3-126.7,41.3-235.6,141.2-318.4C1096.5,1075.1,1154.8,1051.4,1218.8,1035.6z M1359.5,1147.5
			c-32.7-19.2-62.8-38.8-89.5-63.1c-6.2-5.7-12.6-6-20.8-4.8c-175.3,24.7-303.4,166-296.3,360.3c0.5,12.5,3.4,18.8,17.8,18.5
			c48.3-1.1,96.6-1.3,144.9-1.2c11.6,0,16.8-5.6,20.7-15.3C1183.5,1324.1,1257.7,1226.5,1359.5,1147.5z"/>
		<path class="st0" d="M2068.2,1512c-78.1-0.3-150.1-23.1-212.8-71.8c-71.1-55.3-82.6-131.8-31-205.4c82.9-118.3,280-203,446.9-63.5
			c23.5,19.7,42.8,43,58.1,69.2c40.3,69.2,26.7,145.5-35.2,196.6C2229.1,1490.8,2152.2,1509.8,2068.2,1512z M2070.1,1464
			c72.8-0.2,145.6-23.6,191.1-61.5c51.5-43,58.3-95.5,19.6-150.4c-103.9-147.1-334.8-135.5-424.5,21.3
			c-26.7,46.6-21,86.7,20.2,121.8C1931.9,1442.7,1997.1,1464.8,2070.1,1464z"/>
		<path class="st0" d="M2537.6,1627.5c49.5,5.9,74.6,26.3,79.1,62.3c3.8,30.2-15.2,60.2-45,71.1c-28.4,10.4-60.5,0.3-77.8-24.7
			c-21.7-31.3-16-60.8,19.3-99.9c-82.4,9.3-140.3-23.7-158-90c-16.8-63.2,14.4-127.4,73.7-151.6c58.8-24,126.2-1.8,158.3,52.1
			C2623,1506.9,2606,1571.9,2537.6,1627.5z M2556.1,1511.6c-0.2-46.2-32.5-78.2-79-78c-46.2,0.2-78.2,32.6-78,79
			c0.2,46.3,32.5,78.2,79,78C2524.5,1590.4,2556.3,1558.1,2556.1,1511.6z"/>
		<path class="st0" d="M1622.3,1389.3c70.2,0.4,125.1,57,124.4,128.3c-0.7,70.6-57.3,126.1-127.8,125.4
			c-70.8-0.8-126.2-56.7-126.1-127.3C1493,1443.7,1549.1,1389,1622.3,1389.3z M1619,1594.8c44.9,0.3,79.9-33.1,81-77.2
			c1.1-43.8-36.6-82-80.5-81.7c-44.1,0.3-78.3,35.2-78.4,79.8C1540.9,1561.3,1573.7,1594.5,1619,1594.8z"/>
		<path class="st0" d="M2009.8,1823c-71.1,0.6-126.7-53.3-127.5-123.7c-0.8-70.9,54.2-128,123.6-128.3
			c73.4-0.2,129.1,52.8,130.8,124.3C2138.4,1766.2,2082.5,1822.4,2009.8,1823z M2088.5,1697.5c0.1-44.4-34.2-79.4-78.2-79.9
			c-44.1-0.5-81.9,37.3-81.1,81c0.8,43,37.5,78.6,80.7,78.4C2054.2,1776.7,2088.4,1742.1,2088.5,1697.5z"/>
		<path class="st0" d="M1496.1,1802c-37.4,0.2-69.4-31.7-68.7-68.3c0.7-36.1,31.4-65.8,68.1-65.9c37.9-0.1,68.8,30.6,68.2,68.1
			C1563.2,1772.2,1532.9,1801.8,1496.1,1802z"/>
		<path class="st0" d="M1518.1,1884.4c0.7,35.8-29.4,67.5-65.5,69c-36.9,1.6-70.2-29.7-70.8-66.6c-0.6-36.9,31.4-69.2,68.4-69.1
			C1486.2,1817.8,1517.4,1848.5,1518.1,1884.4z"/>
		<path class="st0" d="M2514.2,1844.8c-0.6-37.9,26.9-66.9,64.4-68c39.1-1.1,69.5,27.2,70.4,65.4c0.9,37.4-30.3,69-67.8,68.9
			C2544.2,1911,2514.8,1881.9,2514.2,1844.8z"/>
		<path class="st0" d="M1978.7,1976.5c-39.5,0.2-68.3-28.2-68-67.3c0.3-37.1,29.4-66.6,66.4-67.1c37.3-0.5,68.9,31,68.6,68.4
			C2045.3,1947.4,2016,1976.3,1978.7,1976.5z"/>
		<path class="st0" d="M2043,2071.6c-0.1,38.5-26.9,65.6-65,65.7c-38.8,0.2-67.6-29.2-67-68.4c0.5-37.7,29.2-65.7,66.9-65.6
			C2017.2,2003.4,2043.1,2030.7,2043,2071.6z"/>
		<path class="st0" d="M693.1,1850.8c34.6-0.5,62.3,26.2,61.9,59.7c-0.4,31.3-29.1,59.8-60.2,59.9c-32.3,0.1-59.2-26.9-59.7-59.7
			C634.7,1877,659.6,1851.3,693.1,1850.8z"/>
		<path class="st0" d="M838.2,1826.2c34.1-0.7,60.1,24.1,60.8,57.9c0.6,33.2-25.2,60.6-57.9,61.4c-32.4,0.8-60.6-26-61.6-58.5
			C778.6,1854.5,805.2,1826.9,838.2,1826.2z"/>
	</g>
</g>
</svg>
