<?xml version="1.0" encoding="utf-8"?>
<!-- Generator: Adobe Illustrator 23.0.0, SVG Export Plug-In . SVG Version: 6.00 Build 0)  -->
<svg version="1.0" xmlns="http://www.w3.org/2000/svg" xmlns:xlink="http://www.w3.org/1999/xlink" x="0px" y="0px"
	 viewBox="0 0 3000 3000" style="enable-background:new 0 0 3000 3000;" xml:space="preserve">
<style type="text/css">
	.st0{stroke:#000000;stroke-width:10;stroke-miterlimit:10;}
</style>
<g id="Layer_1">
</g>
<g id="Layer_2">
	<g>
		<path class="st0" d="M1365.4,2184.3c-284.6-10.2-569.3-15.9-854.1-10.5c-124.6,2.4-237.2-28.2-321.9-127.5
			c-53.5-62.8-85.9-136.4-104.1-215.8c-38.7-168.4-27-333.2,40.6-493.1c4.9-11.5,6.6-22,3.7-34.6c-18.7-81.1-25.5-162.8-8-245.3
			C148,932.7,219.3,846.2,339,800.2c98.8-38,202.8-50.5,307-60.2c248.7-23,498.4-22.8,747.8-26.2c300.5-4.2,601.1-8.8,901.4,4.2
			c128.7,5.6,257.1,15.5,382.7,48.6c208.1,54.7,264.7,207.5,230.5,383.2c-7.6,39.2-30.5,76.8-31.3,114.4
			c-0.7,37.4,31.5,71.3,41.7,110.1c61.8,235.8,27.9,452.9-131,642.5c-81.8,97.6-195.5,141.3-317.1,164.4
			c-132.6,25.2-267.1,29.1-401.7,27.4C1834.2,2205.5,1599.9,2192.1,1365.4,2184.3z M1363.2,2137.1c4.6,0,9.3-0.2,13.9,0
			c236.2,10.8,472.5,22.3,709,24.5c124.3,1.2,248.6-2.3,371.3-25.2c118.3-22.1,229.6-63.1,305.3-161.7
			c151.9-197.7,179.5-415.6,87.8-647.1c-27-68.2-73.5-121.8-142.2-153.3c-91.2-41.8-188.5-59.4-286.8-73.7
			c-14.4-2.1-17.3,2.8-16.9,16.1c1,26.9,1.7,53.9,0.2,80.7c-10.9,194.1-97.8,336.7-285.9,403.5c-171,60.7-349,91.2-529.5,107.4
			c-168.4,15.1-335-2.9-501.3-27.8c-204.6-30.7-324.4-140.2-367.5-340.4c-16.1-74.6-20.5-150.6-14.1-226.9
			c1.2-13.9,2.2-25.5-18.8-22.8c-113.1,14.3-225.9,29.7-333.4,70.8c-64.8,24.8-114,67-150.2,126.3c-52.2,85.7-80.2,179.1-89.8,277.9
			c-12.6,129.5,0.7,255.6,59.6,373.9c47,94.3,120,156.3,224.6,178.4c49.4,10.4,99.4,8.7,149.5,8.3
			C819.9,2123.9,1091.6,2127.2,1363.2,2137.1z M2842.1,1219c7.3-27.2,14.4-49.1,19.2-71.6c39.1-184.7-29.9-294.7-213.2-340.5
			c-94.8-23.7-191.7-32.9-288.9-38.8c-184.3-11.2-368.9-13.6-553.4-11.5c-397.7,4.7-795.8-1.7-1192.7,33.5
			c-89.6,7.9-178.3,22.4-262.9,55.4c-90,35-148.4,99.3-175.8,191.2c-15.8,52.8-21.3,107.3-14.4,162.3c2.2,17.5-0.6,36.3,10.7,56.1
			c52-88.5,133.2-130.7,224.2-157.2c41.7-12.2,84.3-21.7,127.1-29.7c162.6-30.4,327.4-40.6,492.3-48.3
			c168.6-7.8,337.4-8.6,506.1-8.4c309.8,0.4,619.7,2,927,46.5C2589.4,1078.6,2732.9,1101.2,2842.1,1219z M1121,1193.7
			c0.2,1.9,0.4,3.8,0.6,5.8c-39.5,16.8-78.9,33.7-118.4,50.5c-46.6,19.8-46.8,19.9-28.5,68.2c28,74.1,74.3,126.8,157.9,138.8
			c85.7,12.2,171.9,12.5,258.1,15.5c14,0.5,18.9-7.7,24.4-18.1c25.8-49.2,52.1-98.1,78.7-146.9c3.1-5.6,3.4-15.1,15.6-14.8
			c24.4,52.1,49.2,104.8,73.8,157.5c5.2,11.1,9.2,21,25.3,20.7c117.8-2.4,235.6-3,352.5-19.5c55-7.8,103.1-27.6,136.6-75.7
			c29.6-42.6,30.7-41.6-19.2-56.6c-39-11.8-77.8-24.3-120.1-37.5c51.6-49.8,108.8-75.3,173.5-85.9c10.1-1.7,23.6,1,23-16.7
			c-0.9-28.7,0.5-57.4-2.9-86.1c-1.8-15.1-8.1-19.1-22.8-20c-153.7-9.4-307.7-12.7-461.6-15.5c-15.6-0.3-25.2,4-33.4,18
			c-23.8,40.8-49.1,80.8-74,120.9c-3.6,5.7-5.1,14.5-16,12.9c-10.5-42.9-21.5-85.8-31.4-129c-3.8-16.4-9.8-23.8-29.1-23.6
			c-158.6,1-317.3,2.4-475.7,11.2c-59.5,3.3-58.7,3.6-61.2,63.2c-0.8,20.4,4.1,29,25.9,32.6
			C1022.4,1171.7,1071.6,1183.4,1121,1193.7z M1431.3,1667.2c138.5-1,251.1-10.4,362.3-32.6c108.9-21.8,218.4-41.1,322.6-81.8
			c205.3-80.1,254.4-264.3,241.3-445.4c-0.8-11-4.9-16.2-16.8-17.1c-39.7-3.1-79.4-6.8-119-11.3c-17.7-2-24.4,2.1-22.9,21.8
			c4.2,51.8,4.2,103.6-4.9,155.3c-20.6,116.6-84.4,228.8-240.6,243.8c-95.1,9.1-190.3,13.6-285.7,16.2
			c-166.9,4.6-333.7,4.9-500.6-7.4c-123.1-9-200.6-70.1-240-185.5c-25.4-74.5-28.3-150.8-23.8-228c1-16.8-2.1-23.7-20.4-21.8
			c-35,3.6-70.2,6.1-105.4,7.8c-18.9,0.9-24.5,9.6-25.3,27.8c-3.3,71-2.5,141.9,12.1,211.6c33.6,160.3,115,272.3,289.1,305.2
			C1186.4,1651.1,1320.6,1666.1,1431.3,1667.2z"/>
	</g>
</g>
</svg>
