<?xml version="1.0" encoding="utf-8"?>
<!-- Generator: Adobe Illustrator 23.0.0, SVG Export Plug-In . SVG Version: 6.00 Build 0)  -->
<svg version="1.0" xmlns="http://www.w3.org/2000/svg" xmlns:xlink="http://www.w3.org/1999/xlink" x="0px" y="0px"
	 viewBox="0 0 3000 3000" style="enable-background:new 0 0 3000 3000;" xml:space="preserve">
<style type="text/css">
	.st0{stroke:#000000;stroke-width:10;stroke-miterlimit:10;}
</style>
<g id="Layer_1">
</g>
<g id="Layer_2">
	<g>
		<path class="st0" d="M1837.8,2153.9c70.4,39.5,123.4,90.6,165.4,153.1c9.3,13.9,16.9,10.2,28,5.4c67.9-29.6,138.6-48.4,212.3-56.1
			c55.3-5.8,109.8-2.6,163.3,12.4c119.3,33.5,168.4,118.2,134.6,237.3c-71.7,252.4-368,406.5-633,207c-20.4-15.4-31.9-17.6-54.3-1.8
			c-171.7,120.6-363.5,178.2-573.1,169.4c-81-3.4-158-32.9-220.4-83.7c-92.1-75-99-178.1-74-286.4c2.1-9,5.8-17.7,8.6-26.6
			c0.2-0.7-0.6-1.8-0.9-2.7c-42.3,18.4-68.7,15.4-91.4-10.3c-22.6-25.7-26-67.8-7-98.4c15.8-25.4,39-36.8,68.8-31.1
			c32.3,6.2,51.4,37.6,55.7,92.1c155.3-200.5,371.7-267.6,619.1-288.9c-45.8-5.4-82.6-10.1-119.6-13.9c-37.2-3.9-73.7-11.1-110-19.7
			c-284.4-67.5-452.9-249.1-499.7-539C802.7,905.8,1231.8,288.8,1893.7,157.2c194.1-38.6,387.3-42,577.3,20
			c272.8,89.1,423.4,283.1,457.7,563.1c35.1,287,1.9,567.1-127.1,829.7c-160.1,326-421.3,517-781.2,569.7
			C1962.1,2148.4,1902.8,2149.1,1837.8,2153.9z M1782.7,2097.8c149.4,6,296.2-7.5,437.4-59.1c267.6-97.9,448.8-285.7,559.5-544.7
			c101-236.2,129.1-484.2,98.8-736.7c-36.8-306.6-208.2-488.7-508.7-553.7c-182.8-39.6-365-26.9-544,23.5
			c-372.6,104.8-644.3,327.3-788.3,692c-91.9,232.8-122.8,472.5-58.8,718.3c57.4,220.7,196.3,361,419.2,417.1
			C1524.3,2086.5,1653.5,2091.9,1782.7,2097.8z M1333.8,2830.1c183.8-7.5,341.2-58.2,483-155.8c52.4-36,101-76.3,133.5-132.2
			c36.1-62.2,51.1-127.7,16.1-195c-28.8-55.3-75.9-95-125.5-131.1c-9.5-6.9-22.9-10.6-34.8-11.5c-114.8-9.2-228.6-8.7-342.3,17.5
			c-136.5,31.5-257.4,89.3-356.6,189.2c-77.1,77.6-99.9,169.2-65.9,273.7c12.3,37.8,36,68,71.5,86.5
			C1185.6,2809.3,1260.7,2839.9,1333.8,2830.1z M2161.8,2751.2c146.8-0.2,281.1-101.4,327-246.5c31.9-101-4.4-166.2-107.8-188.9
			c-117.2-25.7-227.7,1.3-335.3,46.9c-9.7,4.1-14.1,8.7-12.3,20.9c15.1,103-25.3,186.2-95.4,257.4c-14.7,14.9-12.4,21.7,2.6,32.7
			C2006.6,2721.9,2079,2751.3,2161.8,2751.2z"/>
		<path class="st0" d="M541.9,2236.8c38.5-2.8,76.6,0.4,114,9.8c24.7,6.2,46.1,18.6,64.3,36.1c27.6,26.5,33.8,56,16.1,90
			c-24,46.2-49.2,91.9-108.1,102.2c-74.6,13-148.9,22.2-213.9-29.3c-38.9-30.8-63.3-71.4-48.4-122.2c15.6-53.1,60.5-73.4,111.1-81.6
			C498.3,2238.3,520.2,2238.3,541.9,2236.8z"/>
		<path class="st0" d="M780.4,149.8c-140.8,8.5-266,80.3-362.6,204.2c-65,83.4-120.5,173.2-172.5,265.1c-12.1,21.5-22,22-41.9,11.3
			c-22.4-12.1-12-23.3-3.9-36.8c66.2-111,128.3-225.7,219.1-318.8C555.6,134.4,718.8,64.5,918.2,115.2
			c40.1,10.2,78.2,27.2,110.4,54.3c51.8,43.5,52.5,97.5,1.9,142.9c-7.7,6.9-15.8,14.8-25.1,17.7c-8.9,2.8-18.1,25.4-28.3,4
			c-7-14.7-29.6-32.2,1-47.3c5.5-2.7,10.1-7.2,14.8-11.2c31.8-27.5,31.8-46.8-4-70.7C931.6,166.4,867.4,149.1,780.4,149.8z"/>
		<path class="st0" d="M89.8,1255.7c2.1-84.2,11.9-176.7,32.7-268c4.4-19.4,10.3-28,31.7-21.9c19.4,5.5,25.5,12.4,20,34.2
			c-44.7,177.1-38.9,355.6-4.6,533c25.3,130.4,116.9,194.1,249.9,183.5c44.4-3.5,88.4-10.4,130.2-25.3c26.3-9.4,20.5,12.2,26.6,22.1
			c6.9,11.3,7.5,19.8-9,25.3c-70.5,23.7-142.4,37.4-216.5,26.6c-135.5-19.8-213.2-98.7-236.5-238
			C99.8,1440.6,93.6,1352.8,89.8,1255.7z"/>
		<path class="st0" d="M548.5,575.3c2.3-30.1,3.9-64.2,8-98.1c4.4-36.3,40.4-67.9,84.5-76.5c7.1-1.4,14.3-2.4,21.5-2.7
			c11.6-0.5,28.3-11.8,29.3,12.6c0.7,17.7,7.7,36-22.8,39.3c-53.2,5.7-60.7,16.1-63.5,68.2c-0.2,3.1,0,6.2-0.4,9.3
			c-8.1,81-8,79.8,74.5,85.4c81.9,5.6,159.4-15.5,237-35.9c25.7-6.7,46.2-22.4,61.9-44.2c49-68,99.2-135.2,146.8-204.2
			c14.6-21.1,23.8-15.9,41.1-4.9c21.8,13.8,10.7,23.6,1.2,36.6c-48.1,66.1-96.1,132.2-143.4,198.9c-27.1,38.3-63.9,61.1-108.3,72.8
			c-96.6,25.3-194,40.6-294.5,29.4C559.6,654.3,547.5,642.3,548.5,575.3z"/>
		<path class="st0" d="M1005.3,2175.5c-48.3-11.3-69.9-33.3-72.5-74.2c-2.4-36.8,15.8-67.7,46.7-79.4c28.2-10.6,50.8-0.8,69.3,20.2
			c26.3,29.9,24.5,70.3-5.8,116.5c29.8,2.5,53.2,15,65.9,41.9c10.7,22.5,11,46.2,2.3,69.2c-14.4,38.1-53.9,55.4-87.6,39.4
			C977.8,2287,970.3,2233.1,1005.3,2175.5z"/>
		<path class="st0" d="M322.6,1284.4c-15,2.3-26.8,2.2-37.3,6c-21.7,7.8-30.4,1.8-34.8-21.3c-4.6-24.2,7-27,25.7-30.1
			c48-8.1,96.3-12.6,144.6-17.2c13.9-1.3,25.3-1.6,23,17.6c-1.7,14.6,8.5,34.1-19.9,35.5c-17.8,0.8-42.3-6.2-52,8.3
			c-8.8,13.1,7.5,32.4,12,49.2c11.1,41.7,11.9,83.8,9.8,126.2c-1.1,22.9,7,27.7,26.8,19c7.5-3.3,16.5-4.3,22.9-9
			c26.1-19.2,31.4,6,40.8,19.2c14.3,20.1-8,20.5-16.8,26.7c-16.2,11.5-36,14.6-54.9,17.6c-45.1,7.4-73.9-21.9-70.6-73.8
			c3.2-51.4-1.1-101.2-20.6-149.1C318.1,1301.4,319.2,1294,322.6,1284.4z"/>
		<path class="st0" d="M826.6,2054.5c-45.7-0.1-83.4-36.9-84-82.1c-0.6-45.4,40.1-85.5,85.7-84.4c45.4,1.1,82.3,39.2,81.8,84.5
			C909.7,2018.3,872.7,2054.5,826.6,2054.5z"/>
		<path class="st0" d="M636.9,1936.8c0.4,46-35.8,83.5-81.4,84.4c-45.7,1-85.5-38.2-85.3-84.1c0.2-45.5,37.1-81.8,83.5-81.9
			C600.4,1855,636.5,1890.5,636.9,1936.8z"/>
		<path class="st0" d="M2618.7,2752c-55.8,0-111.7-1-167.4,0.5c-22,0.6-24.9-8.6-25-27.3c-0.1-18.4,4.4-24.9,24.1-24.8
			c111.6,0.9,223.3,0.8,334.9,0.1c19.2-0.1,27.6,3.7,27.2,25.3c-0.4,20-5.7,27.1-26.4,26.6C2730.4,2751.2,2674.5,2752,2618.7,2752z"
			/>
		<path class="st0" d="M250.9,2169.5c0.5,42.5-30.1,77.8-67.7,78c-37.6,0.2-69-35-68.9-77.1c0.1-40.1,30.8-75.7,66.5-77.1
			C217.8,2091.9,250.4,2127.4,250.9,2169.5z"/>
		<path class="st0" d="M207.4,2549.4c0.2,43-29.9,77.3-68,77.3c-37.5,0-69-35.7-68.5-77.6c0.5-40,31.7-75.5,67.3-76.5
			C175.4,2471.5,207.2,2506.8,207.4,2549.4z"/>
		<path class="st0" d="M207.4,2345.2c0.2,43.6-29.5,77.2-68,77.1c-37.6-0.1-69-35.7-68.5-77.6c0.5-40.4,31.4-75.2,67.4-75.9
			C176,2268,207.2,2302.5,207.4,2345.2z"/>
		<path class="st0" d="M916.7,2583.8c0.3,43.1-30,78.2-67.5,78.3c-36.8,0.1-68.7-36.3-68.3-78.1c0.3-41.3,30.1-75.1,66.6-75.8
			C886.4,2507.4,916.4,2540.2,916.7,2583.8z"/>
		<path class="st0" d="M648.7,2702.7c-0.6-43.7,28.4-77.4,66.9-77.8c37.8-0.4,69,34.4,68.9,76.6c-0.1,40.8-30,75.3-66.2,76.3
			C679.9,2779,649.3,2746,648.7,2702.7z"/>
		<path class="st0" d="M412.8,2752.2c-0.6,43.5-31.1,76.2-69.8,75c-36.3-1.1-66.1-35.4-66.1-76.3c-0.1-42.1,31.6-77.3,69-76.7
			C384.2,2674.8,413.4,2708.8,412.8,2752.2z"/>
		<path class="st0" d="M236.8,2026.9c0.2-42.3,32.2-78.7,68.4-77.6c36.8,1,67.1,37.6,66.3,80c-0.8,42.2-29.9,74.7-67.1,74.9
			C266.2,2104.4,236.6,2070.6,236.8,2026.9z"/>
		<path class="st0" d="M574.8,2750.4c0.1,43.8-29.3,77-67.9,76.8c-37.7-0.2-68.6-35.7-67.8-77.7c0.7-41.1,30.7-74.7,67.2-75.3
			C544.8,2673.6,574.7,2706.8,574.8,2750.4z"/>
		<path class="st0" d="M138.6,2702.7c-0.5-43.8,28.5-77.5,66.9-77.8c37.8-0.3,69,34.5,68.8,76.7c-0.2,40.9-29.9,75.2-66.2,76.3
			C169.4,2779,139.1,2746.2,138.6,2702.7z"/>
		<path class="st0" d="M2856.5,2293.8c1.4,10.7-5.6,13.3-12.1,16.6c-77.5,39.2-155.1,78.1-232.2,118c-21.9,11.4-20.9-8.7-26.9-17.9
			c-6.5-9.9-14.3-20.1,4.3-29.4c76.8-38,152.9-77.6,229.5-116.2C2834.7,2257.2,2855.2,2274.3,2856.5,2293.8z"/>
		<path class="st0" d="M2600,2608.2c-18.3,0.4-10.8-19-15.4-29.4c-4.2-9.5-4.9-19.2,11-22.4c78.8-16.2,157.5-33.1,236-50.8
			c20.5-4.6,12.7,11.9,14.9,18.6c3.7,11.4,13.7,28.7-6.8,33.3C2761.2,2575,2682.3,2590.9,2600,2608.2z"/>
		<path class="st0" d="M770,1162.4c-25.8,1.5-51.7,1.5-77.2,4.9c-20.2,2.7-25-5.3-25.9-23.4c-0.8-16.3-1.1-27.7,20.4-28.8
			c50.5-2.5,100.8-7.2,151.5-5.2c21.2,0.9,31,5,29.8,30c-1.2,24.2-11.3,25.2-30.5,23.6c-22.5-1.9-45.3-0.5-68-0.5
			C770,1163,770,1162.7,770,1162.4z"/>
		<path class="st0" d="M829.2,1462.8c6.8,24.5-4.9,34.2-31,36.3c-33.8,2.7-67.4,8.5-100.9,13.9c-16.7,2.7-25.1-1.6-24.9-20
			c0.1-13.7-12-30.8,15.4-32.4c23.6-1.4,46.8-7.1,70.4-9.1c16-1.3,20.1-8.1,14.4-21.9c-11.8-28.6,15.9-29.8,28.8-36.9
			c15.1-8.3,15.9,11.2,20,19.8C828.4,1427.3,831.4,1443.7,829.2,1462.8z"/>
		<path class="st0" d="M358,1159.1c-27.9,0-55.8-1-83.7,0.3c-19.8,0.9-18.7-11.2-18-24c0.7-12.2-5.4-27.9,17.5-27.6
			c56.8,0.8,113.7,1,170.5-0.1c21-0.4,20.1,11.6,19.9,25.8c-0.2,13.7,2.1,27-19.5,25.9C415.9,1158,386.9,1159.1,358,1159.1z"/>
		<path class="st0" d="M445.4,1062.3c-21.2,1.8-47,0.2-70.4,7.1c-30.3,8.9-31.5-9.2-36-28.8c-5.7-25,14.5-21.4,26.5-23
			c42.1-5.6,84.3-10.1,126.9-5.8c14.3,1.5,27.6,2.4,21.9,23.2c-3.9,14.1,4,36-25,29.8C476.3,1062.1,462.5,1063.2,445.4,1062.3z"/>
		<path class="st0" d="M756.3,953.6c-18.6,0-37.2-1-55.7,0.3c-19.7,1.4-29.6-2.1-29.4-26c0.2-23.7,10.2-26.7,29.8-26.1
			c39.2,1.2,78.5,1.3,117.7,0.1c22.6-0.7,20.9,13,21.5,28.1c0.6,16.2-2.8,25.3-21.8,23.9C797.7,952.5,777,953.6,756.3,953.6z"/>
		<path class="st0" d="M477.8,880.6c9.3,0,18.6,0.7,27.9-0.1c19.9-1.8,30.2,3.3,30.2,26.7c0,23.7-10.8,27.8-30.5,26.5
			c-15.4-1-31-0.4-46.4-0.2c-18.7,0.3-35.4,4.1-35.4-26.6c0-31.1,17.3-26.5,35.7-26.3C465.4,880.6,471.6,880.5,477.8,880.6z"/>
		<path class="st0" d="M723.3,1323.5c-8.3,0-16.6-0.9-24.7,0.2c-28,3.5-21.6-18.3-24.4-32.8c-3.4-18.1,8.4-20.5,22.3-20.1
			c18.6,0.5,37.1,1.4,55.7,1.4c19.6-0.1,22.7,9.4,22.2,27.4c-0.7,21.9-7.7,30.3-29.5,25c-6.9-1.7-14.4-1.3-21.6-1.9
			C723.3,1323,723.3,1323.3,723.3,1323.5z"/>
		<path class="st0" d="M2108.8,1154c-10.1-4.4-19.9,0.1-29.8,1.7c-106.4,16.5-213.1,16-318.6-4.3c-129.2-24.9-204.6-111-214-250.1
			c-13.5-200,40.3-381,169.2-537.3c40.7,28.7,41,28.9,13.2,67.2c-102.1,141.1-144.7,299.6-129.4,471.7
			c11.4,127.6,70.2,183.5,206.3,203.3c118,17.2,235.6,12.6,350.9-21.5c13.1-3.9,25.4-8.4,35.1-18.6c45.9-48.4,100.8-85.9,153.6-126
			c138.6-105.1,220.8-244.4,249.3-415.4c3.2-19,6.9-28.2,28.5-24.1c18.8,3.6,27.8,7.3,23.7,31C2616.3,712.3,2536,868,2385.9,972
			c-221.8,153.6-350.6,367-435.1,614.6c-6.1,17.9-10.4,27.3-32.7,19.6c-22.3-7.6-24.2-16.7-16.8-37.6
			c49.7-141.4,111.6-276.5,200.7-397.9C2105.5,1166,2111.2,1161.7,2108.8,1154z"/>
		<path class="st0" d="M2100.1,514.7c55,0.8,122.3,8.9,181.4,49c79,53.6,78.9,142.6,0.4,196.9c-93.1,64.3-270.6,64.7-363.7,0.7
			c-80.7-55.4-81.2-143.3-0.2-198.3C1968.4,528.7,2026.2,518.1,2100.1,514.7z M2099.1,757.3c60.2,0,118.4-15.3,153.9-40.5
			c48.4-34.4,48.6-75.6,0.4-109.4c-77-53.9-230.1-54.1-307.7-0.3c-48.4,33.5-48.7,76-0.2,109.3
			C1991.7,748.3,2044.5,756.4,2099.1,757.3z"/>
		<path class="st0" d="M1576,1613.2c-50.6-0.3-93.3-7.1-132.5-27.6c-62.6-32.8-68.6-85.4-14-130.1c67.8-55.5,148-84.9,232.4-103.8
			c34.2-7.7,68.9-13.8,104.4-8c53.8,8.7,77.9,43.7,59.8,95.5c-32,91.4-99.8,144.1-192.2,167
			C1612.9,1611.3,1591.3,1614.4,1576,1613.2z M1734.4,1394.3c-95.1,8.8-183,38.6-261.9,93c-11.5,7.9-28.4,16.6-25.9,32
			c2.6,16,20.7,21,35.2,26.4c52,19.6,104.7,21.7,157.8,5.7c64.1-19.3,108.6-61.2,136.2-121.6c10.7-23.5,3.1-35.5-22.9-35.4
			C1746.8,1394.3,1740.6,1394.3,1734.4,1394.3z"/>
		<path class="st0" d="M2245.1,1654.8c-42.1-0.8-77.1-30.1-84.8-74.4c-15-86.1,19.1-175.9,133.9-173.5c37.1,0.8,74.5-2.3,110.9-11.6
			c26.6-6.8,51.7-17.8,67.9-40.6c18.7-26.5,33.3-2.8,46.4,3.9c17.1,8.7,0.3,19.4-5.1,26.8c-7.7,10.7-17,22.8-28.4,27.9
			c-33.2,14.8-47.7,42.9-61,73.6c-19,43.9-43.3,84.7-76.9,119.4C2319.3,1635.7,2284.6,1651.9,2245.1,1654.8z M2381.7,1454.6
			c-31.4,1.5-59.1,2.4-86.8,4.1c-66.7,4-91.8,34-84.6,100.4c4.2,39.3,24.9,51.6,62.3,37.4c14.9-5.6,26.7-15.4,37.7-26.4
			C2342.1,1538.1,2363.4,1499.6,2381.7,1454.6z"/>
		<path class="st0" d="M1794.1,2520.1c1.7,12.1-3.1,23-13.1,31.8c-37.5,33.1-78.4,61-126.2,77c-19.5,6.5-42.7,12.6-56.3-9.2
			c-12.6-20.4-6.2-42.2,8.3-60.4c32.3-40.7,74.6-68.6,122.1-87.7C1771,2454.7,1794.3,2472.7,1794.1,2520.1z"/>
		<path class="st0" d="M1428.8,2428c0.3,52.3-61.8,99.2-105.4,86.6c-16.1-4.7-22.2-17.2-23.9-32.7c-5.2-47,39.2-103.3,86.3-110.3
			c16.4-2.5,28.3,0.5,33.1,18.3C1423,2404.8,1429.3,2419.2,1428.8,2428z"/>
		<path class="st0" d="M1575.6,2467c-0.5,56.5-35.5,94.8-78.3,93c-16.9-0.7-26.6-6.9-27.7-25.7c-1.8-32.5,39-102.8,68.3-116.1
			c15.3-7,24.7,0.5,29.4,12.9C1572.3,2444.6,1573.9,2459.2,1575.6,2467z"/>
	</g>
</g>
</svg>
