<?xml version="1.0" encoding="utf-8"?>
<!-- Generator: Adobe Illustrator 23.0.0, SVG Export Plug-In . SVG Version: 6.00 Build 0)  -->
<svg version="1.0" xmlns="http://www.w3.org/2000/svg" xmlns:xlink="http://www.w3.org/1999/xlink" x="0px" y="0px"
	 viewBox="0 0 3000 3000" style="enable-background:new 0 0 3000 3000;" xml:space="preserve">
<style type="text/css">
	.st0{stroke:#000000;stroke-width:10;stroke-miterlimit:10;}
</style>
<g id="Layer_1">
</g>
<g id="Layer_2">
	<g>
		<path class="st0" d="M2290.7,1686.4c-15.5,0-31.2,1.6-46.4-0.3c-64.3-8.1-123.9-3.1-183.1,31.3c-52.3,30.4-115.9,25.2-175.2,31.3
			c-183,18.9-366.6,17.3-550.3,17.6c-142.3,0.2-284.5,12.8-426.9,1.3c-50.3-4.1-101.2-4.8-148.1-27.3c-8.3-4-15.8-2.4-24-0.9
			c-134.1,24.4-269.3,39-405.6,44.3c-41.4,1.6-82.5-0.6-123.7-4.2c-81.2-7.1-132.7-51.8-158.3-127.2
			c-26.1-77.1-17.5-149.3,40.3-209.8c16-16.7,21-25.6,5.9-46.9c-24-33.8-14.3-77.2,20.9-107.9c13.7-12,18.8-19.2,7.1-36.5
			c-23.3-34.5-21.3-72-4.5-109c21.7-47.6,57.1-82.8,100.7-110.4c92.5-58.5,194.7-89,302.5-100.5c154.6-16.5,308.6-8.1,461.8,17.2
			c14.5,2.4,28.2,2.2,41.8-5.3c68.4-37.8,143.6-51.5,220-54.1c143.3-5,287.2-15.1,430,0c162.2,17.2,315.6,62,438.6,178.5
			c6.9,6.5,13.6,11.9,23.9,12.1c88.6,2,177.3,8.4,265.6-5.2c43.7-6.7,78.1-26.5,106.9-61.2c62.3-75.3,148.1-86,236.9-72.6
			c112.4,17,179.9,87.5,203.9,196.8c15.5,70.6,20,142.8,6.7,215.1c-29.3,159.4-149.4,275.2-322.6,309.3
			C2521.8,1684.2,2406.4,1688.3,2290.7,1686.4z M1524.9,1188c46.1-2.2,129.6-1.5,213.1,3.7c55.8,3.5,111,10.6,163,32.3
			c75.5,31.4,117.7,88.4,124.5,169.9c7.4,88.8,3.2,177.1-18.3,264c-4.6,18.6-4.3,26.6,19.2,19.4c88.7-26.9,145.7-96.5,154.4-188.5
			c4.8-51.6,4.2-102.9-0.4-154.4c-10.1-114.5-58.9-208-154.2-273.1c-113.3-77.5-241.8-114.4-377.4-122.7
			c-121.5-7.4-243.4-2-365.1-0.2c-46.4,0.7-92.9,4.5-137.9,16c-154.5,39.6-271.4,132.2-354.5,265.3c-71.5,114.6-91.4,241.8-66,374.7
			c15.2,79.4,55.7,112.9,135.4,117.5c9.2,0.5,18.7,0.9,27.6,2.9c18.5,4.2,23.4-1.5,20.5-20.5c-10.9-70.8-11.3-141.9,1.6-212.5
			c25.3-138.5,101.5-261,280.4-279.8C1289.6,1191.7,1388.6,1192.2,1524.9,1188z M707.3,1691.2c-12.7-28.7-26.4-55.2-32.9-84.5
			c-13.5-61.2-14.6-122.8-5.3-184.4c3.9-26.1-3.2-32.9-30.2-31.2c-110.7,7-218.1,30-324,61.8c-48.2,14.4-97.1,20.3-145.7,3.1
			c-12.8-4.5-19.3,1.7-27.2,7.9c-49.4,38.8-66.9,100.4-46.8,164.4c21.6,68.8,60.3,97.7,137.4,101.9c84.6,4.5,169.1,0.3,253.3-8.1
			C559.3,1714.6,632.9,1706.9,707.3,1691.2z M1105.4,1719c0-0.3,0-0.7,0-1c24.7,0,49.6-1.6,74.2,0.4c42.7,3.5,80.5-7.9,117.9-28.2
			c58.9-31.8,119.6-60.3,179.5-90.2c154.8-77.2,309.7-154.3,464.3-232c8-4,21.6-3.6,20.8-18.6c-2.5-44.4-85.3-93.3-125.8-74.4
			c-139.8,65.3-279.8,130.5-419.6,195.8c-144.5,67.6-289,135.3-433.4,203c-11.5,5.4-25.7,7.5-22.3,27.2c3.8,21.9,19.5,17.5,33,17.7
			C1031.1,1719.3,1068.2,1719,1105.4,1719z M935.9,995.1c-12.9-3-19.8-5.2-26.9-6.1c-106.6-12.8-213.6-19-320.8-12.4
			c-113,6.9-222.2,30.2-321.9,87.2c-39,22.3-73.7,49.2-95.3,89.9c-13.9,26.2-18.3,52.6,0.8,78.3c19.2,25.9,45.1,23,72.7,17.8
			c55-10.4,102.8-41.4,157.6-52.8c111-23.1,223-38,335.6-49.7c16.8-1.7,36.4,1.5,49-13.8C828.8,1082.4,876.1,1037,935.9,995.1z
			 M2895.6,1127c-7.1,6-10.5,8.3-13.2,11.2c-165,173.6-366.5,270.6-606,284.1c-37,2.1-42.7,16.6-42.6,47.7
			c0.1,19.6,5,24.5,23.7,24.8c231.2,3.1,443.8-57.6,637.3-184.6c9.7-6.4,18.9-12.5,18.6-26.1
			C2912.2,1232.7,2910.9,1181.4,2895.6,1127z M2901.4,1368.4c-55.4,31.2-105,60.4-158,82.8c-156.9,66.6-320.3,99.1-490.9,94.2
			c-10.1-0.3-24.7-7.6-30,7.1c-9.6,26.5-23.4,51.2-38.1,78.3c130.7,9.9,256.1,5.2,381.3-9.7c85.4-10.2,165.2-34,232.7-90
			C2848.8,1489.3,2883.5,1437.8,2901.4,1368.4z M741.7,1199.7c-109.3,10.8-212.8,24.1-315.4,45.4c-81,16.8-152.8,67.1-240.3,61.8
			c-20.6-1.2-42.4,17-49.5,41.2c-5.6,19,7.9,31.1,20.6,41.6c32,26.5,69.6,31,108,21.1c132.6-34.1,264.3-72,403.1-71.1
			c8.9,0.1,15.9-1.8,18.9-11.8C700,1284.7,718,1243.4,741.7,1199.7z M2273.9,1372.1c214.7-14.9,398.4-97.4,550.8-248.9
			c53.9-53.6,50.2-73.6-18.4-110.1c-0.9-0.5-1.9-0.8-2.8-1.4c-13.9-9.7-22.7-5.9-32.9,7.7c-129.5,174.1-302.9,264.8-520,271.9
			c-6.8,0.2-17.6-2.9-19.2,5.2c-4.6,23.6-1.6,48.3,6,70.1C2242.3,1380.5,2261.6,1369.2,2273.9,1372.1z M2728,987.5
			c-67.6-0.8-129.6,1.5-171.1,52.5c-48.8,60.1-110.4,85.3-184.9,90.9c-59.8,4.4-119.4,6.3-179.1,2.7c-20.3-1.2-23.5,3.7-13.3,21.7
			c10.7,18.7,20.7,38.5,26.4,59.1c6.4,22.9,19.6,27.1,40.7,26.5c134.9-4.2,257.1-44.5,363.8-127.9
			C2654.1,1078.8,2694.4,1040.8,2728,987.5z M1265.1,1484.9c-76.5-47.8-148.3-91.7-218.9-137.3c-19.9-12.8-27.1-2-35.8,11.9
			c-49.2,78.3-59.7,165.1-56.2,255c0.8,21.2,13,8.6,20.5,5.1C1069.8,1575.7,1164.8,1531.5,1265.1,1484.9z M1789.3,1705.5
			c47-4.3,91-9.3,135.2-11.8c16.8-1,25.3-7.8,26.3-23.1c1.3-19.4,23.6-39.8-1.1-58.5c-45.9-34.7-92.2-68.8-137.8-104
			c-11-8.5-19.4-7.1-30.7-1.4c-42.8,21.9-85.8,43.7-129.4,63.9c-19.8,9.2-15.3,15.9-2.1,27c37.7,31.8,74.9,64.3,112.1,96.8
			C1770.7,1702.4,1779.9,1707.8,1789.3,1705.5z M1450.6,1398c-75.3-49.1-145.7-95.1-216.3-140.9c-4.1-2.7-9.7-4.9-14.4-4.6
			c-53.7,3.3-105.5,13.2-154.7,46.5c84.3,52.5,165.3,102.7,246,153.4c8.2,5.1,14.4,4.2,22.6,0.2
			C1370.8,1434.8,1408.2,1417.7,1450.6,1398z M1323.1,1243.1c-0.3,3-0.6,6-0.9,9.1c46.5,30.1,95.1,57.4,138.8,91.1
			c32.1,24.8,57.8,26.1,93.2,7.5c67.9-35.6,138.4-66,207.8-98.6C1614.9,1234.2,1469,1242.5,1323.1,1243.1z M1700.2,1710.1
			c-38.5-33.4-71.6-60.9-103.2-90.1c-13-12-23.1-11.2-37.8-3.5c-53.8,28-108.5,54.5-162.6,81.8c-5.2,2.6-14.6,2.2-13.2,12.5
			C1486.5,1715.2,1589.1,1715.3,1700.2,1710.1z M1850.9,1472.4c36.9,27.8,71.2,53.4,105.2,79.4c14.6,11.2,17.8,2.4,18.2-9.9
			c1.1-38,1.5-76,2.4-114c0.3-12.4-3.7-17.4-16.2-11.1C1925,1434.9,1889.5,1452.8,1850.9,1472.4z"/>
	</g>
</g>
</svg>
