<?xml version="1.0" encoding="utf-8"?>
<!-- Generator: Adobe Illustrator 23.0.0, SVG Export Plug-In . SVG Version: 6.00 Build 0)  -->
<svg version="1.0" xmlns="http://www.w3.org/2000/svg" xmlns:xlink="http://www.w3.org/1999/xlink" x="0px" y="0px"
	 viewBox="0 0 3000 3000" style="enable-background:new 0 0 3000 3000;" xml:space="preserve">
<style type="text/css">
	.st0{stroke:#000000;stroke-width:10;stroke-miterlimit:10;}
</style>
<g id="Layer_1">
</g>
<g id="Layer_2">
	<g>
		<path class="st0" d="M1771.9,2400.1c24.2,81,73.4,154,26.7,241.6c-13.8,25.9,5.6,48.8,26,64.3c38.1,28.9,88.5,23.2,121.2-11.2
			c23.1-24.3,19.7-50.8-8.7-68.5c-34.6-21.6-49-87.2-30.1-136.5c12.2-31.8,49-45.8,95.4-35.9c12.8,2.7,25.8,5.3,38.1,9.6
			c178.6,62.4,184.6,216.3,98.6,338.3c-111.3,158-351.6,184.7-498.7,59.4c-8.2-7-16.1-14.2-26.9-23.8c-19.9,59.5-55.2,97-121.3,90.2
			c-43.8-4.5-70.7-31-91.8-89.3c-131,119.8-280,109.9-430.3,51.9c-89.3-34.5-127.5-118.9-149.8-204.8
			c-27.6-106.4,12.9-195.5,92.2-268c12.4-11.3,23.7-16.2,3.8-33.8c-152.5-135.3-178.5-371.9-59.1-539.5
			c17.4-24.4,18.2-38.8-0.1-63.5c-62.3-84-41.4-195.1,47-259.9c19.2-14,28.3-22.5,10.7-46.3c-20.9-28.2-11.6-65.1-18.5-97.1
			c-6.3-29.3-50-34.9-60-69.2c-14.8-50.4-9.4-100.1-1.1-149.8c4.2-25.1,5.1-48.2-0.3-73.9c-10.4-49.2,2.9-97.8,16.8-145.1
			c5.9-20,5-31.6-17.3-41.9c-50.3-23.2-76.4-68.8-93-118.7C684,606.2,706.7,298.7,960,145.6c116.7-70.5,243.4-82.2,374.8-71.7
			c68.5,5.5,135.6,18.2,200.7,40.2c14.8,5,26.4,3.8,40.4-3.9c58-32.1,121.7-43.5,187-45.9c98.6-3.6,196.9,5.6,295.3,9.6
			c79.6,3.2,135.2,43.6,177.9,106.5c49.1,72.2,68.7,154.8,83.5,239.2c21.3,121.8,17.8,243.9,6.2,366.2
			c-14,148.5-9.4,297.9-21.7,446.3c-9.4,113.4-15.2,227.7-42.6,339c-21.3,86.4-57.9,163.3-139.8,209.1c-21.4,12-5.7,21.7,0.2,30.9
			c49.1,76.7,76.9,159.7,77.2,251.3c0.6,198.4-132.1,328.5-330.5,320.4C1832.5,2381.3,1800.1,2385.5,1771.9,2400.1z M1309.2,2544.5
			l-0.8-1c8.1,32.4,18.7,64.1,15.8,98.5c-4.7,56.6-41.4,103.2-95,118.7c-60.9,17.6-128.5-7.2-168-61.7
			c-34.4-47.3-34.3-95.7,1.8-146.5c13.1-18.5,29.5-34.7,43.3-52.8c7-9.2,14.7-19,2.4-31.5c-29.1-29.5-140.9-36.1-173.7-9.4
			c-120.6,98-83.3,338.9,61.3,394c75.3,28.7,153.1,38.1,233.2,25c87-14.2,149.2-63,176.9-144.9c31.1-91.8,27.6-182.1-44.4-259
			c-21.2-22.7-44.8-29.2-74.3-25c-18.3,2.6-27,6.2-15.3,26.1C1285.7,2497.4,1297,2521.2,1309.2,2544.5z M2020.6,118.5
			c-8.4-0.8-16.7-1.6-25.1-2.3c-50.3-3.7-50.3-3.7-45.7,44.5c17.7,185.6-123.9,358.9-307.4,373.3c-126.9,9.9-228.7-40-308.8-137.3
			c-7.2-8.7-9.2-26.7-29.1-17.7c-51.3,23.2-103.4,44.5-154.5,68c-28,12.8-44.4,36.3-48.9,66.9c-10.7,72.4,29.9,141,98,171.3
			c22.8,10.1,34.3,6.7,49.2-14.4c97.6-138.7,314-123.1,382.9,30.7c20.6,46,44.6,57.7,87.6,51.6c2.4-0.3,4.8-0.3,7.2,0
			c26.5,3.5,34.4-4.4,22.7-30.9c-17.7-40.3-21.7-81.3,9.2-118.1c39.7-47.3,92.1-57.7,150-47.8c7.1,1.2,22.1,1.1,21.1,14.1
			c-0.8,10.2-5.1,21.4-11.4,29.4c-7.2,9-17.9,0.2-26.9-0.8c-51.8-5.7-99.5,19.4-107.8,57.5c-9.8,44.6,35.5,123.9,80.4,130.6
			c101.6,15.1,196.8,3.9,268.4-82.3c39.2-47.2,74.6-96.9,102.8-151.6c31.9-61.9,42.3-126,27-195.1
			C2226,198.1,2159.6,131.1,2020.6,118.5z M1607,2073c1.7-69-11.4-127.7-40.3-180.5c-73.3-133.8-253.5-209.8-420-177
			c-184.8,36.4-298.6,157.7-316.9,337.7c-18.5,181.6,97.5,338.7,270.6,350.4c113.4,7.7,228.2-3.6,338.9-34.3
			c67.8-18.8,112.7-66.1,140-130.4C1601.7,2185.8,1605,2129.5,1607,2073z M2289,562.8c-16.8,8-18.5,22.4-24.9,33.1
			c-46.9,77.1-92.4,156.6-173.7,202.6c-85.7,48.4-178.6,56-270.2,20c-26.1-10.3-49.4-20.3-77.4-19.1c-19.2,0.9-38.5,1.4-57.6-0.2
			c-20.9-1.7-27.9,4.5-30.3,27.1c-11,106-90.7,193-196.6,195.9c-61.8,1.7-95.7,28.5-128.4,70.3c-2.2,2.8-4.9,5.3-7.3,7.9
			c-24.6,26.8-24.4,29,12.7,38c63,15.2,127.8,18.9,191.7,28.9c33.2,5.2,53.1-9.3,69.7-37.5c37-62.8,93.2-95.7,167-92.6
			c20.8,0.9,32.1-7.6,45.2-21.6c82.7-88.3,184.4-130.5,306.2-124.7c53.2,2.5,102.5,19.3,156.5,39
			C2270.7,805.4,2295.5,686.1,2289,562.8z M1341.5,1502.2c-7-14-12.5-24.2-17.3-34.8c-23.3-51.6-51.8-99.9-84.2-146.4
			c-13-18.7-25.3-20.4-45.1-10.9c-49.4,23.8-66.8,69.2-84.1,115.8c-6.6,17.7-3.5,28.3,12.4,38.8c60.7,40.1,125.2,73.3,197.3,83.5
			c169.1,24.1,334.8-2.7,498.1-45.2c38.2-10,63.2-38.6,68-80.2c4.7-40.5,10.4-81,12.5-121.7c3.8-75.4-0.5-78.8-73.5-94.9
			c-19.7-4.3-30.4-0.4-39.6,18.4c-33.9,69.1-75.5,133.6-117.4,198c-15.5,23.7-24.7,21.3-41.9,2.9c-40.2-43-86-80-130.8-118.2
			c-27.9-23.8-37.8-16.3-52.3,12.8C1413.4,1381.1,1381.7,1441.5,1341.5,1502.2z M1515.3,959.7c63.8-37.2,95.6-89.8,95.4-158.2
			c-0.2-71.8-34.1-127.3-98.8-159.6c-67.3-33.6-133.8-27-192.5,20.1c-58.5,47-80.1,110-61.8,183.3c18.4,73.4,67.8,117.9,141,132.8
			c62.4,12.7,69.8,4.6,62.3-56.2c-2.2-17.8-3.6-36.1-8.9-53.1c-8.2-26.6-28.6-39.2-55.7-33c-16.1,3.7-35.2,12.8-14.5,34
			c16,16.5,3,31.4-5.2,40.8c-10,11.5-21.6-2.6-30.2-9.7c-27-22.2-29.6-51.2-8.1-79.3c20.8-27.2,48.4-38.1,82.1-32.7
			c39.5,6.3,66.1,29.2,76.1,67.4C1505,888.6,1508.7,922,1515.3,959.7z M1340.2,1011.9c-25.2-18.6-54.1-30.7-72-54.8
			c-13.9-18.8-26.6-16.8-45.5-9.3c-96.5,38.4-179.8,100.6-270.7,148.2c-63.3,33.2-79.7,76.9-79,138.5c0,3.6-0.4,7.2-0.4,10.8
			c1.1,70.9,32.8,92.6,96.6,60.6C1112.5,1234.1,1234.9,1135,1340.2,1011.9z M1941.5,1381.7c-13.9,37.7-0.6,70.8,6.2,104.7
			c22.1,110.1-29.5,185.3-139.7,200.6c-131.1,18.1-261.9,8.3-390.3-19.2c-173.6-37.1-345-42.2-515.3,13.7c-11.1,3.7-32,1.2-31,18.3
			c1.6,26.8,15.6,50.8,35.1,69.1c15.1,14.2,23-5.9,32.1-12.2c157.5-109,323.7-125.3,497.1-44.4c32.7,15.3,62.8,19.3,96.6,14.8
			c79.9-10.4,160.2-13.6,240.8-12.7c24.1,0.3,44,8,63,22c60.6,44.5,115.4,36.6,160.4-22.6C2077.3,1608,2051,1445.7,1941.5,1381.7z
			 M1769.5,2567.2c-32.7,28.2-67.6,42.9-108,39.1c-17.4-1.6-14,7.9-11.5,17.5c10.7,39.9,0.3,73.3-31.1,99.8
			c-14.9,12.5-13.9,24.4-3.7,39.7c60.6,90.1,146.1,133,253.4,129.6c109.7-3.4,200-48.3,251.2-147.5c73.2-141.6-12.6-226-133.9-247
			c-13.3-2.3-33.7-6.7-34.8,13.4c-1.7,29.6-18.1,64.9,24.1,84.2c15,6.8,23.1,23,28,40.1c14.6,51.1-15.2,101.9-76.6,124.1
			c-52.9,19.1-101.8,11.4-142.6-29.8c-38.4-38.9-46.4-82.4-17.8-130.8C1771.2,2591.2,1773.4,2582,1769.5,2567.2z M1613,489.4
			c128.8,0.1,242.6-86.1,277.8-210.6c4.4-15.7,8.8-28.2-14.7-35.3c-128.1-38.2-268.9,16.6-327.7,136.8
			C1502.2,474.6,1492.5,483.1,1613,489.4z M1900.7,1502.4c-27.4,30.4-58.7,45.7-93.1,52.7c-80.8,16.5-161.4,34.3-243.8,41.9
			c-165.7,15.3-326.6,8.3-467.7-95.6c-9.7-7.2-17.1-10.7-27.1,0.7c-20.4,23.2-47.9,28.3-77.8,29.6c-51.6,2.2-109.7,59.4-111.1,108.1
			c117-37.2,236.8-56.9,358.7-44.8c97.6,9.6,194,31.2,291.5,43.7c98.9,12.7,198.5,20.4,297.1-2.9
			C1887.9,1621.5,1915,1574,1900.7,1502.4z M1537,1773.5c20.4,35.6,40.4,49,82.1,39.4c90.7-20.8,160.3,30.2,172.3,122.4
			c10.5,80.9,14.6,162.6,2.4,244.2c-12.9,86.3-63.3,132.6-147.8,118.6c-48-7.9-58.5,18.1-79,48.7c17.3,3.9,30.8,8,44.6,9.8
			c39.3,5.2,78.7,4.7,118.3,0.9c71.9-6.8,98.2-29.8,106.4-101.8c13.2-116.2,7.6-232.6,1.3-349c-2-37.3-7-74-17.9-109.8
			c-6.9-22.7-21.1-38.4-46.2-38.1C1695.6,1759.7,1617.7,1762.9,1537,1773.5z M1815.3,109.2c-13.2,0-26.4-0.6-39.6,0.1
			c-97.3,4.8-187.7,23.8-252.5,107.3c-38.6,49.7-87.5,89.4-142.5,120c-22.1,12.3-18.9,22.4-5.7,37.7c18.9,21.9,39.7,41.5,62.6,59.4
			c22.6,17.6,33.7,20.2,44.5-13.5c41.6-130.6,130.9-208.8,267.4-230.8c42.2-6.8,84.4-3.7,125,7.8c27.7,7.8,30.4-2.3,29.3-25.1
			c-2.7-60.8-2.3-60.9-63.2-62.8C1832.2,109,1823.7,109.2,1815.3,109.2z M1206.5,789.5c0.7-8.2,1.3-12.9,1.5-17.7
			c0.9-16.3,11.6-34.7-17.5-40.9c-18.6-3.9-23.5,8.4-32,16.8c-69.1,69.1-139.3,136.6-239.1,159.6c-10,2.3-13.9,7.6-16.2,16.4
			c-10.8,40.6-22.8,80.9-25.8,123c-0.8,11.2-6.2,26.2,6.1,33c12,6.6,22.5-5,32-11.4c92.8-62.2,186.1-123.5,291.4-163.3
			c13.8-5.2,18.3-11.5,12-26.8C1207.1,848.9,1204.9,817.6,1206.5,789.5z M2018.3,1763.1c90.8-9.1,150.8-59.5,163.1-136.8
			c12.1-75.9-0.4-148.4-34.5-216.8c-35.6-71.3-92.4-118.3-169.5-140c-22.6-6.4-35.5-3.4-33.4,25.5c1.3,18,4.8,29.1,20.6,41.1
			c87.1,65.8,133.8,152,124,264C2083.1,1661.7,2055.1,1713.8,2018.3,1763.1z M1605.2,1863.9c61.1,118.6,59.9,241.9,25.6,366.8
			c-5.5,20.1,3,22.5,17.9,24.8c53.1,8.2,91.9-22.8,100.3-82.2c10.5-74.2,7.1-148.7-2-222.4C1736.7,1867.7,1689,1840,1605.2,1863.9z
			 M1190,2450.4c-21.9-2.7-35.7,0.2-28.1,29.6c3.5,13.6-2.9,29.9-14.9,42.3c-14.9,15.5-28.3,32.5-41.3,49.6
			c-29.1,38.2-31.1,65.6-8.5,98.3c26.9,39,77.5,58.5,119.5,46.3c37.9-11,61.1-43.5,61.8-87c0.5-32-10.2-60.9-24.2-89
			c-11.7-23.5-24.9-46.7-32.9-71.5C1215.6,2450.8,1206.8,2446.5,1190,2450.4z M2225.3,1489.7c2.2-0.1,4.5-0.1,6.7-0.2
			c6.1-58.3,11.9-116.7,18.4-175c1.4-12.6-1.4-23.6-7.2-34.4c-53.7-101-180.5-141.6-281.8-90.1c-8.2,4.2-20.6,6.8-19.6,18.3
			c1.2,13.2,14.7,9.7,23.3,11.4c113.7,23.1,190.6,90.6,235.4,196C2210.6,1439.6,2217.1,1465,2225.3,1489.7z M1508.7,159.3
			c-153.1,1.1-387.2,153.4-403.6,257C1248.6,349.8,1408,303.5,1508.7,159.3z M2263.8,1072.3c1.5-29.4,2.5-54.1,4-78.8
			c0.7-10.7-6.7-14.5-14.2-18.3c-138.8-71-315-45.9-416.1,80.4c25,29.5,45.7,35.1,80.4,5.2c57.6-49.7,128.8-65.9,205.6-53.7
			C2174.6,1015.2,2217.9,1039.5,2263.8,1072.3z M1213.8,123.1c-37.5-4.3-39.6-5-58.7,11.7c-214.3,187-300.9,420.5-253.4,701.9
			c1.5,8.7-3.5,27.7,17.3,24.4c21.1-3.4,12.9-18,11.2-30.5c-32.7-246.5,35.3-459.8,210.5-637.6
			C1164,169.4,1188.5,147.2,1213.8,123.1z M2257.5,1216.3c10.5-76,5.4-87.8-51.6-127.4c-86.3-59.9-206.8-49.6-281,23.6
			c-9.3,9.2-16.2,16.8-7.7,30.4c6.5,10.3,13,10.9,23.7,6.1C2060.6,1096.2,2164.5,1121.3,2257.5,1216.3z M1872.8,1798.3
			c19.3,177.2,26.8,347.9,1.3,520.5C1973.1,2173.8,1969.3,1934.5,1872.8,1798.3z M1186,1263.7c-29-18.3-47.4-6.4-65.2,5.7
			c-50.4,34.4-100.4,69.7-159.1,89c-12.2,4-16.7,11.5-18.2,23.4c-3,24.4-0.3,48.1,10.8,70c21.1,41.4,65.8,44.9,91.4,6.4
			c10.4-15.7,18-33.9,23.6-52C1088.5,1344.4,1119.9,1292.7,1186,1263.7z M1395.8,132.5c-54-20.4-88.5-17-129.1,12.4
			C1100.8,265.2,1001.1,426,973.4,629.6c-9.2,67.3-8,135,5.2,202.6c33.3-9,36-25.3,30.1-54.9c-44-222,15.7-408.4,196.6-550.4
			C1261.6,182.7,1327,155.6,1395.8,132.5z M1670.8,2559.7c44.8,0.7,82.4-31.4,83.4-71.1c1-39.7-35.8-73.4-80.5-73.7
			c-46.9-0.3-81.9,29.5-82.8,70.8C1590.1,2526.9,1624.6,2559,1670.8,2559.7z M1386.5,2431.5c26.8,30.1,50.5,57.6,61.7,91.9
			c7.8,23.9,24.1,24.5,41.8,19.5c23-6.6,54.4-9,55.4-40.4c1-33.5,5.2-63.9,27.2-90.1c5.2-6.1,8.9-14.5-1.4-16.3
			c-20.4-3.6-40.3-19.8-62-7C1472.6,2410.6,1431.8,2419.5,1386.5,2431.5z M1744,1204.9c-81.6-1.8-135.6,55.4-207.3,74.1
			c33.5,30.3,65.3,58.9,96.8,87.8c9.2,8.5,14.1,3.8,19.4-4.3C1685.1,1312.4,1716.9,1262,1744,1204.9z M1068.8,149
			c-42.5,4.1-63.4,25.9-82.2,51.3c-121.3,164.2-172,349-158.6,551.6c2.3,34.5,4.8,70.3,23.8,102.4
			C809.5,586.1,879.3,352.8,1068.8,149z M1612.8,1193.3c88.5-43.7,174.8-46.4,269.5-21c-34.4-52.8-70.2-91.6-129.2-90.3
			C1684.3,1083.5,1645.1,1128.6,1612.8,1193.3z M1926.2,2330.2c20.1,5.3,26.1-6.8,31.8-18.6c75.6-155.1,81.6-313.3,20.4-474.3
			c-4.4-11.7-9.8-29.6-26.3-22.9c-20.1,8.1-2.2,22.8,1.4,31.9c42.9,110.6,51.8,223.4,25.8,339.1
			C1968.1,2235.6,1948.2,2282.7,1926.2,2330.2z M1417.4,1272.2c-45.7-12.3-88-16.9-130.8-8.7c-9.1,1.7-28.5,2.2-16,21.6
			c24.4,37.8,49.5,75.3,77,117C1371.7,1357.2,1394.1,1315.6,1417.4,1272.2z M2022.4,1811.9c60.8,165.8,59.8,330.5-10.6,496.5
			C2108.4,2261.9,2114.8,1906.9,2022.4,1811.9z M1563.4,2825.8c0-33.5-22.5-56.8-55.6-57.5c-33.1-0.7-60.8,25.9-60,57.8
			c0.7,30.9,27.4,57,58.4,57.1C1537.1,2883.2,1563.4,2856.9,1563.4,2825.8z M1204,1210.1c22.2,23.7,43.6,19.3,67.6,9.9
			c14.9-5.9,32.5-5.7,49.4-6.5c56.8-2.5,110.6,17.5,166.5,19.5c27.7,1,56.2,2.9,81-19.4c-4.1-0.9-5.3-1.3-6.5-1.4
			c-97.5-8-196.7-6.3-288-49.9c-7.7-3.7-13.5-1.3-19.4,3.9C1237.7,1181.2,1220.5,1195.9,1204,1210.1z M777,728.2
			c-3.5-156,29.3-304.4,97.4-445.3C769.1,415.9,743.3,565.7,777,728.2z M1550.9,2704.1c32.5,0,55.5-21.3,56.2-52.2
			c0.8-32.2-23.7-56.7-56.4-56.6c-31,0.1-55.7,23.3-56.7,53.2C1492.9,2680.2,1517.3,2704.1,1550.9,2704.1z M1056.1,777.8
			c29.4-19.6,50.4-42.2,71.5-64.5c5.4-5.7,7.9-11.1,0.1-17.7c-20.3-17.2-36.7-37.6-49.5-61.1c-12.1-22-17.1-46.5-27.8-69.4
			C1037.1,635.5,1036.7,704.8,1056.1,777.8z M2128.3,2181.7c35.9-83.2,31-166.5-1.5-249.6
			C2140.6,2015.2,2142.8,2098.3,2128.3,2181.7z"/>
		<path class="st0" d="M1254.5,1756.4c158.5-13,304.3,116.2,318.7,282.4c13.7,157.6-120.6,301.1-295.1,315.2
			c-158.2,12.8-309.7-117-319.9-281.4C946.8,1890.3,1106.3,1754.7,1254.5,1756.4z M1262.5,2306.7c145.6,0,263.5-112.9,263.5-252.4
			c0-139.2-116.2-252.3-259.4-252.4c-143.1-0.1-263.6,116.9-262.5,255.1C1005,2194.5,1121.1,2306.7,1262.5,2306.7z"/>
		<path class="st0" d="M1309.2,2544.5c38.5-35.2,38.4-35.1,62.5,10.5c12.4,23.4,21.9,47.9,27.6,73.8
			c19.3,88.2-18.1,162.7-100.7,200.1c-124.1,56.1-268.1,10.2-329.2-105.1c-42.6-80.3-15.1-187.5,59.8-231.6
			c8.8-5.2,19.8-19.5,28.5,0.5c5.3,12.1,18.4,25.1-1.3,36.5c-89.9,52.2-80.9,188.9,24.4,248.5c62.3,35.3,128.5,37.2,194.2,11.2
			c68.1-27,95.1-81.9,77.9-153.5c-8-33.5-18.5-66.5-44.4-91.8C1308.4,2543.6,1309.2,2544.5,1309.2,2544.5z"/>
		<path class="st0" d="M1857.4,2856.8c-90.6-0.1-164.9-53.2-183.6-132.9c-3.2-13.6-16.1-33.8,8.2-41.6c23.5-7.5,31.4,5.4,36.3,28.4
			c12,56.2,61,95.4,122.2,100c63.1,4.7,118.8-14.6,164.3-59c53-51.6,55.1-115,3.8-167.8c-16.2-16.7-3.7-26.7,2.1-37.3
			c9.7-17.8,20.7-3.4,29.1,2.8c62.9,46.7,68.2,151.7,11.4,220.1C2006.2,2824,1933.1,2856.9,1857.4,2856.8z"/>
		<path class="st0" d="M1260.2,2249.1c-105.8,0-189.6-84.4-189-190.4c0.6-104.1,83.7-187.5,187.9-188.4
			c105.2-1,190.3,83.4,190.7,189.2C1450.2,2164.8,1365.9,2249.1,1260.2,2249.1z M1403.4,2060.8c0.3-81.3-61.9-143.6-143.2-143.5
			c-80.2,0.1-144.7,64.6-144,143.7c0.8,77.8,64.8,141.9,142.4,142.7C1338.7,2204.4,1403.1,2140.9,1403.4,2060.8z"/>
		<path class="st0" d="M1263.2,2105c-39.5,0.4-68.7-27.5-69.1-66c-0.3-37.5,30.7-68.8,68-68.6c36.9,0.2,68.6,32.6,67.8,69.3
			C1329.3,2075.7,1299.7,2104.6,1263.2,2105z"/>
	</g>
</g>
</svg>
