<?xml version="1.0" encoding="utf-8"?>
<!-- Generator: Adobe Illustrator 23.0.0, SVG Export Plug-In . SVG Version: 6.00 Build 0)  -->
<svg version="1.0" xmlns="http://www.w3.org/2000/svg" xmlns:xlink="http://www.w3.org/1999/xlink" x="0px" y="0px"
	 viewBox="0 0 3000 3000" style="enable-background:new 0 0 3000 3000;" xml:space="preserve">
<style type="text/css">
	.st0{stroke:#000000;stroke-width:10;stroke-miterlimit:10;}
</style>
<g id="Layer_1">
</g>
<g id="Layer_2">
	<g>
		<path class="st0" d="M1425.4,2701.9c-183.2,0.8-366.3-1.5-549.3-9.8c-221.7-10.1-405.4-103.5-559.8-258.9
			c-102.2-103-174.2-225.7-223.6-361c-21.7-59.5-26.8-124-35.7-186.8c-17.9-127.1-25.6-254.8-18.5-383.3
			c13-234.9,82.9-447.8,252-617.1c209.3-209.7,456.5-355,749.3-416.6c135.4-28.5,272.6-40.2,410.4-44.4
			c145.4-4.4,290.7-11.5,436.5-2.4c307.8,19.2,575.8,132.6,805.4,336.1c147.5,130.7,223.6,301.6,257.3,492.7
			c44.3,251.1,20.6,499.1-36.9,745.3c-24.9,106.7-52,212.6-95.3,313.9c-62.3,145.8-162.4,250.5-315.2,301.8
			c-94.7,31.8-192.4,45.6-291.1,55.2C1949.7,2691.8,1687.7,2699.4,1425.4,2701.9z M1627,467.4c-57.2-0.2-137.9,1-234.2,7.7
			c-123.5,8.6-259,18.8-400.3,53.6c-230.9,56.9-428,176.1-605.8,329.9c-144.6,125-239.1,281.1-276.9,469.2
			c-33.5,167-32.4,335.2-10.6,503.6c9.8,75.4,13.9,153.1,39.3,224.4c57.7,161.6,150.1,301.9,284.8,410.6
			c125.9,101.6,268.5,167.1,431.5,176.4c122.2,7,244.8,5.4,367.2,9.7c28.6,1,40-5.7,42.4-35.7c11.3-143.2,110.1-267.3,277.9-309.1
			c68.5-17.1,138-27.2,208.2-32.3c68.1-4.9,135.2,3.2,198.1,30.7c108.6,47.4,172,162,163.6,293.9c-1.5,23.3,4.5,27.9,26.5,25
			c63-8.2,126.4-13.8,189.4-21.8c52.6-6.7,103.9-19.9,154.4-36.2c151.1-48.6,243.9-155.1,299.6-299.4
			c58.9-152.6,93.9-311.1,118.9-472.2c27.4-176.4,32.6-353.1,2.3-529.6c-32.5-188.7-107.3-356.4-255.2-483.3
			C2490.9,647.8,2313.2,550,2109.9,503C1950.7,466.2,1789.3,460.9,1627,467.4z M1656.9,2653.9c129-6.9,257.8-13.7,386.6-21.7
			c11.1-0.7,19.9-0.9,20.9-16.7c9.5-160.1-68.8-278.5-241-290.2c-102.9-7-203.9,7.6-301.3,39.6c-125.3,41.2-196.1,129.6-211.6,261.8
			c-2.7,23,4.4,27.6,25.7,27.5C1443.2,2653.4,1550,2653.9,1656.9,2653.9z"/>
		<path class="st0" d="M623.4,1585.2c72.8,2.5,134.4,25.5,183.1,78.1c21.3,23,39.2,47.8,46.8,78.6c13.9,56.4-14.4,108.8-75.3,137.2
			c-78.2,36.5-159.9,50-244.7,28.4c-19.6-5-27-1.5-26.4,18.4c0.1,2.8-1,5.7-1.5,8.5c-8.2,44.4-8.2,44.4-55.2,35.2
			c38.8-269.7,146.6-505.7,345.7-694.7c186.5-177,410.3-272.9,666.7-291.9c202.3-15,400.5,7.9,591.3,76.8
			c335.1,121,527.3,427.3,498.5,782c-12.4,152.4-56.7,294.1-129.3,428.1c-11.9,21.9-21.3,23-41.5,10.5
			c-17.1-10.6-10.1-18.8-3.9-29.8c59.2-103.9,98-215.1,117.8-333c8.7-51.8,9.1-52-43.1-49c-62.8,3.6-118.1-12.3-163-58.5
			c-50.7-52.2-51.6-122.5-3.4-176.5c43.7-49,98.8-72,163.1-76.1c6.7-0.4,13.4-0.7,21.2-1.1c2.4-14.6-4.3-26.5-8.8-38.3
			c-78.3-210.3-229.8-344.1-438.1-418.2c-19.9-7.1-43.7-21.6-59.9-16c-21.1,7.3-8,36.9-11.6,56.4c-25.8,143.1-105.5,218.3-250,232.1
			c-91.5,8.8-183.2,8-273.9-6.4c-138.2-21.9-217.6-121.2-211.8-261.6c0.9-22.1-3.6-24.2-23-17.1
			c-250.1,90.4-437.7,253.1-565.1,486.1C626.8,1575.6,626.1,1578.4,623.4,1585.2z M1583.4,1327.9c37.7,2.3,75.2-0.3,112.7-3.4
			c133.6-10.9,213.2-99.5,211.8-233.8c-0.2-18.9-6-28.1-24.7-30.8c-32.4-4.7-64.5-11-96.8-15.8c-160.5-24-320.6-26.3-479.6,10.4
			c-49.2,11.3-40.4,2.2-41.9,51.9c-3.5,121.8,59.9,196,180.1,213.9C1490.9,1327,1537.3,1325.4,1583.4,1327.9z M605.1,1869
			c67,0.3,121.3-14,170.3-45.3c37.3-23.8,43.9-56.7,20.7-94.5c-40.4-65.9-101.1-94.8-176.7-95.3c-11.4-0.1-22.5,0.5-28.6,14.2
			c-27.4,61.6-48.9,125.3-66.3,190.4c-3.2,11.8,0.1,17.1,12.4,20.2C562.3,1865,587.6,1870,605.1,1869z M2505.1,1749.7
			c0.1-41.5-6.4-82.3-13.1-123c-2.2-13.3-7.6-20.3-22.1-20.6c-63.4-1.5-117.2,17.9-156,70.4c-21.1,28.6-20.2,62.4,2.2,90.5
			c31.1,39,73.1,57.7,121.5,53.7C2520.9,1813.7,2505,1820.8,2505.1,1749.7z"/>
		<path class="st0" d="M2136.6,1758.6c2.7-0.4,16.8-3,24.8,4.4c3.7,3.4,5.8,9.4,5.6,19.9c-0.6,25-13.1,24.9-31.1,24.7
			c-384.6-2.8-769.2-5.3-1153.9-7.5c-17.9-0.1-28-1.7-27.8-24.3c0.2-22.9,11-23.7,28.5-23.7c192.8,0.4,385.6,0.3,578.4,0.3
			C1891.5,1759.3,2113.3,1762.4,2136.6,1758.6z"/>
	</g>
</g>
</svg>
