<?xml version="1.0" encoding="utf-8"?>
<!-- Generator: Adobe Illustrator 23.0.0, SVG Export Plug-In . SVG Version: 6.00 Build 0)  -->
<svg version="1.0" xmlns="http://www.w3.org/2000/svg" xmlns:xlink="http://www.w3.org/1999/xlink" x="0px" y="0px"
	 viewBox="0 0 3000 3000" style="enable-background:new 0 0 3000 3000;" xml:space="preserve">
<style type="text/css">
	.st0{stroke:#000000;stroke-width:10;stroke-miterlimit:10;}
</style>
<g id="Layer_1">
</g>
<g id="Layer_2">
	<g>
		<path class="st0" d="M2495.6,2159c149.7,50,217,184,171.8,337.2c-27.3,92.5-85.3,163-162.3,218.3
			c-139,99.9-297.4,150.7-464.1,178.5c-214.5,35.7-429.1,23.1-643.4-2.6c-99.2-11.9-198.2-24.7-295.3-49.3
			c-103.3-26.1-200.9-64.3-279.8-139.1c-17-16.1-22.8-4.4-32.5,5.8c-84.3,89-183,153.2-305.4,176c-50.4,9.4-100.9,13.6-152.2,4.3
			c-103.4-18.8-165.3-85.3-174.2-190.1c-8-93.8,4-186.8,15.1-279.5c28.8-241.9,48.4-484.3,51-728.2c1.4-136.9,18.3-273.1,34.4-409
			c13.7-115.3,24-231.3,52.5-344.3C364.8,724.3,490,557.6,653.9,417.9c215.6-183.8,465-287.9,748.1-311.6
			c211.7-17.7,423.7-21.3,635.2-4.4c212.2,17,404.1,91.2,566.8,231.2c115.8,99.7,177.1,231.6,209.7,378.2
			c29.7,133.7,31.8,269.6,29.2,405.5c-2.9,147.7-2.6,295.5-27.8,442.1c-39.5,230-133.6,430.2-309.2,588.1
			C2502.7,2149.8,2500.3,2153.4,2495.6,2159z M2373.2,250.1c5.5,16.6,8.7,26.8,12.2,36.9c36.5,105.3,58.4,213.5,63.1,325
			c10.3,245.6-62.4,467-196.3,670.1c-12.5,19-15.1,31.7-0.3,50.9c24.1,31.2,38.6,67.7,48.8,105.9c26.6,99.7-17.5,158.2-119.6,156
			c-19.1-0.4-25.8,5.9-31.7,22.5c-15.5,43.5-49.3,64.4-93.8,69.7c-22.8,2.7-45.3,1.1-67.7-5c-11.3-3.1-23-7-28.9,10.1
			c-24.2,69.4-104.9,106.6-190.5,79.9c-34.1-10.6-60.5-12.7-95.5,3.8c-50,23.5-104.2,8.5-154.5-12.9c-10.4-4.4-19.1-13.3-33-6.1
			c-51.2,26.5-101.4,13-151.1-6c-9.8-3.8-18.3-10.9-30.6-6.6c-62,21.7-117.6,4.2-169.8-29.9c-11.6-7.6-22.8-11.9-36.6-8.2
			c-95.4,26-187.5-68.7-147.5-182.9c7.7-22.1,4.3-31.3-13.1-44.6c-74.3-56.5-116.4-132.7-133-224.2c-24.1-133-12.2-264.6,17.1-394.7
			c51.2-227.8,160.3-428,300.1-612.7c7.8-10.4,15.4-20.9,27.7-37.6c-14,3.5-19.2,4.6-24.3,6.1C976.7,260,844.8,334.6,725,430.2
			C544.6,574.1,407.7,748.1,357.3,979.4c-15.1,69.1-24.3,139-32.7,209.1c-24.2,202.9-48.1,405.8-48.9,610.6
			c-0.9,212.2-25.5,422.7-48.9,633.2c-9,81-19.1,161.9-16.1,243.7c3,84.8,42.3,138.1,116.9,155.9c31.8,7.6,64.2,8.3,97.1,5.7
			c155.1-12.3,269.9-93.4,363.6-211.1c98.9-124.2,163.5-265.9,210.4-416.2c8.7-28,21.7-20.3,40.9-17.3c27.6,4.4,16.3,20.1,11.9,32.7
			c-17.9,52.1-36.9,103.8-56.2,157.5c115.2,20.7,229.6,31.9,344.9,33.8c185.7,3.1,368.3-22.8,550.2-56.4
			c148.3-27.4,292.6-67.2,423.8-142.8c275.3-158.6,413.8-406,454-714.6c24.6-188.2,21.4-377.5,17.9-566.6
			c-1.5-80.3-11.9-160.1-31.1-238.7C2703.3,487,2577,339.8,2373.2,250.1z M1160.7,1277.2c14.6-112,47.7-212,109.8-301.3
			c144.7-208.2,393-279.7,617.8-177.4c85.9,39.1,160.6,95,229.9,158.2c16.5,15,22.6,13.8,29-7.8c73.4-248.5,79.4-495.7-9-742.5
			c-10.7-30-25.6-43-56.3-46.1c-214.9-21.8-429.7-17.2-644.7-3.1c-15.7,1-25,8.3-34.4,20.4c-111.6,145.9-216.6,296.2-307.5,456.1
			c-75.4,132.7-111.1,273.4-81.8,425.4C1031.1,1149.8,1075.4,1224.8,1160.7,1277.2z M2622.5,2369.7c-7.7,6.2-12.8,9.6-17.1,13.8
			c-70.2,68.4-151.7,119.4-241.3,158c-136.1,58.7-279.3,85.4-426.6,93.2c-279.9,14.9-558.2-3.3-835.9-38.4
			c-22.8-2.9-25.2-12.7-23.4-31.5c2-21.7,12.9-26.2,32.6-23.4c166.9,23.9,334.8,36.1,503.2,42c165.3,5.8,330.4,5.7,494.1-23
			c162.1-28.4,311.8-85.8,437.4-195.8c69-60.5,66.2-82.9-13.7-131.5c-7.4-4.5-15.2-8.5-23.2-11.8c-39.2-15.9-74.9-17.6-113.1,9.7
			c-65.6,46.7-138.9,80.5-214.5,108.4c-139.3,51.4-284.4,77-430.3,100.4c-251,40.3-501.7,43.3-752.4-0.9
			c-23.1-4.1-33.2,2.9-42.3,22.3c-27.8,59.1-60.1,115.7-100.7,166.9c-13.4,17-7.1,25.3,5.8,36.9c73.3,65.8,161.5,101.1,255.3,123.3
			c179.2,42.4,361.9,60.7,545.3,70.1c195.5,10,388.9-5.8,575.5-70c108.5-37.3,212.3-84.5,294.1-168.4
			C2597.7,2552,2634.6,2472,2622.5,2369.7z M2187.5,183.3c4.9,14.7,8.4,24.9,11.7,35.1c97.2,299.1,72.2,591.8-51,877.5
			c-62.8,145.5-172,244.6-324,291.5c-214.3,66.1-426.3,43.2-632.5-33.4c-127.5-47.3-202.3-146.8-230.5-279.2
			c-31.4-147.4-4.9-287.6,62.2-420.4c72.8-143.9,164.9-275.9,259.1-406.3c18.2-25.1,36.5-50.1,56.5-77.4
			c-91.4,5.2-95.4,7.3-146.2,72.1c-67.9,86.5-129.6,177.1-182,273.8C896.2,728,830.8,951.4,850,1194.6
			c10.5,133.2,70.3,233.6,197.3,286.5c39.1,16.3,79.8,28.5,121.7,35.4c184.3,30.5,369.8,36.8,555.9,24.2
			c168.1-11.4,313.9-74.5,419.7-208.2c264.1-333.9,323.9-699.8,161.4-1097.4c-4.2-10.2-8.2-19.8-20.2-23.8
			C2255,201.2,2225.1,188.6,2187.5,183.3z M1583,1369.3c39,0.9,85.5-1.9,131.5-10c117.4-20.6,221.7-66.7,303-157.3
			c12.1-13.5,16.3-25,7.5-43.2c-69.5-143-243.6-224.6-403.4-188.1c-164.7,37.7-285.9,186.4-285,348.2c0.1,18.9,6.2,26.1,25.2,29.3
			C1432.5,1360.3,1503.4,1368.9,1583,1369.3z M2072.2,1127.9c13.6-28.2,24.3-52.6,36.9-76c8.8-16.4,5.5-26.9-8.3-39
			c-60.4-53.2-122.1-104.4-193.1-143.4c-65.5-36-134.5-61.2-209.9-63.5c-249.7-7.8-458.5,201.5-482.7,481.6
			c-1.2,14.4,4.5,21,17.6,26.1c45.8,17.8,45.6,18.3,52-30.7c0.4-3.2,0.9-6.5,1.3-9.7c20.6-167.5,140.8-306.2,303.5-350.4
			c166.5-45.2,341.5,13.9,444.4,150.4C2046.2,1089.5,2057.3,1106.5,2072.2,1127.9z M1915.1,1629.5c-0.4-6-0.8-14.7-1.7-23.3
			c-4.8-45.3-4.8-45-47.3-34.2c-16.7,4.3-33.7,7.7-50.6,11c-54.1,10.4-53.7,10.4-58.9,64.4c-1.4,14.9-5,29.8-9.2,44.3
			c-2.5,8.6-3,14.6,6,18.5c38,16.4,76.7,24.1,115.8,4.9C1903.2,1698.5,1914.9,1668.2,1915.1,1629.5z M1632.4,1600.7c0,0.5,0,1,0,1.6
			c-21.7,0-47.1-7.1-64.1,1.9c-19.7,10.4-11.3,41.3-20.7,61.6c-4.5,9.8-7.6,20.3-11.8,30.3c-3.6,8.6-1.8,14.5,7.3,18
			c89.3,34.6,147.7,27.3,160.3-72.2c5.3-42,2.6-45.2-38.4-42.6C1654.1,1599.9,1643.2,1600.2,1632.4,1600.7z M2102.5,1559.2
			c2.3-25.7-4.9-49.5-13-73.3c-4.7-13.8-9.8-16-22.9-7.4c-27.1,18-55.8,33.5-83.4,50.8c-9.3,5.8-29.1,5.7-24.7,20.6
			c7.2,24.2-2.4,58.1,21.2,71.6c29,16.6,64.6,20.7,97.1,3C2103.1,1610.3,2104.2,1584.9,2102.5,1559.2z M2252.7,1476.7
			c-2.7-34.5-20-73.6-43.4-110.6c-4.7-7.4-9.4-11.8-17.5-3.3c-20.1,21.2-40.7,41.9-60.8,63.1c-3.5,3.7,29,110.9,33.8,113.6
			C2201.3,1559.6,2253.1,1528.5,2252.7,1476.7z M1065.5,1655c39.9,0.5,77.4-27.4,90.9-66.5c4.7-13.7,1.5-18.5-12.7-21.6
			c-41.2-9.1-81.8-20.5-120.9-36.7c-6.7-2.8-14.1-7.2-18.8,3.3c-12.1,27.1-14.2,54.5-0.2,81.3
			C1016.7,1639.4,1036,1655.4,1065.5,1655z M1168.2,1670.6c19,13.5,38.6,22.6,59.8,27.1c58.7,12.3,105.5-31.8,98.4-91.5
			c-1-8-1.5-15.3-11.5-16.3c-29.1-2.7-58.1-5.1-87.2-8c-9.9-1-13.6,5.1-15.8,12.6C1203.5,1622.8,1187.3,1646.9,1168.2,1670.6z
			 M1444.3,1598.6c-10.8-0.7-21.9-0.2-32.3-2.4c-24.8-5.3-33,5.6-32.6,28.9c0.4,22-7.2,42.6-16.5,62.1c-5.1,10.7-3.5,15.7,7.4,19.1
			c23.9,7.4,47.8,14.7,73.1,8.7c29.3-7,67.5-66.4,58.9-102.3c-6.8-28-36.9-5.5-54.7-13.8C1446.6,1598.5,1445.4,1598.7,1444.3,1598.6
			z"/>
	</g>
</g>
</svg>
