<?xml version="1.0" encoding="utf-8"?>
<!-- Generator: Adobe Illustrator 23.0.0, SVG Export Plug-In . SVG Version: 6.00 Build 0)  -->
<svg version="1.0" xmlns="http://www.w3.org/2000/svg" xmlns:xlink="http://www.w3.org/1999/xlink" x="0px" y="0px"
	 viewBox="0 0 3000 3000" style="enable-background:new 0 0 3000 3000;" xml:space="preserve">
<style type="text/css">
	.st0{stroke:#000000;stroke-width:10;stroke-miterlimit:10;}
</style>
<g id="Layer_1">
</g>
<g id="Layer_2">
	<g>
		<path class="st0" d="M1349.3,2946.1c-154.9,8.7-309.4,21.3-464.4,22.5c-105,0.8-208.8-7.8-307.8-46.6
			c-225-88.2-375.9-312.9-367.7-550c4.8-139.6,58.5-261.2,145-369c12.1-15.1,12.9-23.7,1.3-40.1c-56.2-80-77.6-172.1-72.3-267.2
			c11.3-204.3,40.9-405.7,130-593.4c10.5-22.1,21.9-43.8,33.4-65.4c4.5-8.5,3.6-11.5-6.6-13.5C318.9,1000.8,223,870.4,278.4,705.5
			c14.8-43.9,39-82.4,71.9-114.8c12.4-12.2,15.3-23.4,12.5-40.6C325.5,323.6,458,96.9,687.9,37.9c138.5-35.5,266.8-9.6,384.3,70.5
			c12.8,8.7,21.6,9.1,35.6,3.2C1172,84.4,1240,75.2,1309,72.6c128.5-4.9,256.5,6.7,384.8,10c47,1.2,94,1.2,140.9,1.6
			c36.5,0.3,72.9,0,109.2,5.1c16.1,2.2,33.8,3.6,45.7,14.1c19.5,17.1,34.6,11,53.1-1c67.4-43.8,140.7-46.6,216.4-27.8
			c24.4,6.1,49,11.7,72.9,19.4c59.9,19.4,119.8,24,182.1,11.3c63.5-13,104.3,24,107.2,85.2c1.4,29.6,2.6,58.8-4.9,87.7
			c-1.6,6.1-2.3,13.7-6.3,17.6c-25.7,24.3-16,46.7-4.7,75.6c19.7,50.3,4.2,99.3-24.2,143.8c-20.1,31.5-20.7,31.5,1.2,61.2
			c29.6,40,40.5,86.1,42,134.4c3.4,106-6.1,211.6-10.5,317.3c-4.2,98.9-5.3,197.5,0.4,296.4c9,155.5,8.8,311.2,8.6,466.9
			c-0.2,119.9-1.1,239.8-6.6,359.7c-4,86.5-23.1,170.5-39.7,255c-10.1,51.6-22,102.5-38.6,152.6c-56,167.9-172,271.1-339.4,321.3
			c-107.1,32.1-217.4,40.2-328.1,45.9c-144.2,7.5-288.5,13.9-432.8,20.2C1408.2,2947.2,1378.7,2946.1,1349.3,2946.1z M1734.2,1117.9
			c-22.6,9.2-38.3,24.9-51.6,43c-32.6,44.3-52.3,95.6-77.6,143.9c-6.2,11.8,2.5,13.1,8.8,16.4c25.7,13.4,49.1,29.6,68.3,51.7
			c61,70.2,40.9,189.2-68.9,199.9c-10.1,1-13.9,4.7-15.2,15.3c-5.8,46.7-31.8,73.6-78.2,83.9c-29.9,6.6-60.7-0.4-90,4.9
			c-28.3,5.1-33.2-9-39.1-30.1c-4.4-15.6,1-20.4,14.4-20.9c21.7-0.8,43.4-1.3,65.2-1c14.9,0.2,29.4-1.1,43.7-4.7
			c14.3-3.6,26.4-11.2,30.9-25.8c4.4-14.5,6.3-27-15.2-32.8c-36.4-9.7-68.7-29-94.5-56.6c-14.5-15.5-27.8-22.7-50.1-19
			c-47.3,7.8-95.2,0.4-142.8,0.9c-49.1,0.5-96.7,7.3-137.7,37.2c-45,32.7-86,69.9-120.7,113.4c-20.5,25.7-28.8,55.5-22.5,88.7
			c6.9,36.8,24.4,68.3,46.8,97.5c28.6,37.2,61.1,71.4,86.6,111c23.3,36.2,22.2,38.8-18,53.5c-7.1,2.6-9.8,1.3-12.9-4.6
			c-20.8-39.4-51.1-71.9-79.1-105.9c-32.3-39.3-61.2-80.8-71.7-131.5c-3.5-16.8-9.1-17.5-23.4-14.3c-77.4,17.6-147.1,0.3-209.1-48.8
			c-9.3-7.4-16.9-20.9-26.8-22.5c-10.9-1.8-16,15-25.1,22.2c-20.1,15.9-42,27.9-66.6,34.9c-14.6,4.2-29.5,7-46.6,11
			c29.4,42.8,58,81.6,116.6,82.6c44.5,0.8,81.5,19.6,104.8,59.7c4.8,8.3,10.1,9.6,18.8,7.4c28.3-7,57.2-5.9,85.8-4.5
			c82.4,3.9,136.4,41.9,120.9,129.6c-6.1,34.6,10.1,57.3,37.6,75.4c25.9,17,50.7,35.7,61.4,66.9c2.9,8.5,9.6,8.7,16.6,10.1
			c35.5,7.4,65,25.2,89.3,51.9c64.8,71.1,64.4,179.8-1.9,262.1c-57.1,70.9-135,100.5-222.8,106.2c-101.3,6.5-197.5-18.3-290.9-54.9
			c-42.4-16.6-78.9-42.7-105.8-80.4c-45.7-64.1-38.9-151.4,16.6-222.4c24.5-31.2,53.8-57.1,86.4-79.4c9-6.1,10.3-10.6,3.2-19.6
			c-11.1-14.4-20.9-29.9-30.3-45.4c-4.5-7.4-7.7-11-17.8-8.1c-68.4,19.3-130.3,4.3-186.3-37.7c-8.9-6.7-13.5-6-20.2,2.4
			c-18,22.5-34.8,45.7-49.7,70.4C241,2278.4,227.4,2459,329.9,2643.3c11.5,20.7,11.8,20.5,28.6,3.3
			c95.2-96.9,251.3-114.5,356.6-40.1c28,19.8,46.6,46.1,54.3,79.8c8.2,35.4,6,71.1,1.4,106.7c-5.1,39.7-17.9,77.3-33.7,115
			c7.9,1.4,14,3,20.2,3.6c86.1,8.8,172.3,6.6,258.5,2c11.5-0.6,11.6-7.3,12.5-15.1c1.9-16.7,2.9-33.6,5.8-50.1
			c16.2-90.7,67.6-145.4,151.7-161.4c36.6-7,73.7-9.9,110.9-9.2c42.4,0.8,84.3,5.7,121.7,27.5c64.2,37.4,95,95.1,97.6,168.3
			c0.4,12.6,2.8,17.2,16.4,16.1c28.6-2.3,57.4-3.8,86.1-3.8c16,0,20.5-7,20.5-21.3c-0.1-28.3,5.6-55.9,14.2-82.6
			c22.1-68.8,64.2-118.2,138-132.8c44.9-8.9,90.7-8.8,136.1-2.1c85.5,12.6,135,58.3,154.8,143.2c3.5,15,6.7,30.1,8.6,45.4
			c1.6,12.8,6.7,16.3,19.3,13.4c41-9.4,81.6-19.9,121-34.9c26.9-10.2,26.8-10.4,6.1-31.5c-9.3-9.5-19.1-18.7-27.6-28.9
			c-22.4-26.6-50.9-48.8-63.6-82.8c-3.2-8.7-10.1-5.9-15.8-5.9c-92.5-0.2-170.4-35.2-235.5-99.7c-7.9-7.8-14.8-9.9-25.8-7.8
			c-41.3,7.7-82.8,15.7-125.1,14.6c-41.4-1-75.2-17.5-94.3-56c-19-38.3-15.7-76.4,7.7-111.9c27.7-42.1,69.1-60,118.1-61.5
			c12.5-0.4,17-3,16-16.5c-9.1-129.7,33.2-243.7,113.4-342.8c25.9-31.9,30.1-55.6,7.8-88.2c-6.9-10.2-12.7-14.8-24.4-14.4
			c-27.3,0.8-54.7,1.8-82,1.3c-29.8-0.6-58.8-6-84.2-22.8c-52.6-34.7-66.7-87.1-59.9-145.3c7.5-63.5,41.4-109.3,103.8-130.4
			c31.1-10.5,63.5-10.4,95.8-8.3c13.6,0.9,19.7-2.4,22.8-16.6c7.8-35.7,20.6-70,38.4-101.9c7.2-12.9,5.3-17.6-7.5-24.7
			C1792.8,1364.6,1727.8,1263.2,1734.2,1117.9z M1990.5,522.4c-46.5,0-91.1-0.8-135.7,0.1c-164.7,3.7-329.4,9.2-493.7,21.9
			c-76.8,6-153.5,14.4-229.6,27.3c-10,1.7-16.8,2.1-11.6,16.3c55.3,150.9-47.7,316.5-227.9,334.8c-88.2,9-165.5-19.3-233.7-74.2
			c-9.4-7.6-14.3-9.4-23.1,1.2C521.5,988.7,435.7,1142.1,390,1316.7c-11.4,43.6-11.4,43.1,33.6,43.8c39.2,0.6,77.8-6.4,117.5-2.1
			c92,10.1,168.1-20,221.8-98.6c7.7-11.3,10.1-19-2.9-29.2c-21.1-16.5-36.9-38.2-50.1-61.6c-19.1-33.7-18.9-33.4,17.1-47.1
			c10.4-3.9,15.2-5,21.3,7.8c59.7,125.8,219.9,153.9,318.4,52.3c24.7-25.6,24.5-25,53.2-4.6c9.8,7,8.5,11.6,2,19.4
			c-12.1,14.6-23.6,30-39.7,40.3c-13.5,8.7-13.3,17.6-7.1,31.1c30.7,67.3,77.3,119.8,142.7,154.6c8,4.3,12.4,13.6,24.2,13.3
			c42-0.9,84.2,1.4,126.1-0.4c55-2.3,101.8-23.7,136.9-67.6c14-17.5,27.6-35.4,37.8-55.5c24.6-48,48.2-96.4,74-143.8
			c7.4-13.5,5.6-20.2-5.2-29.6c-59.8-51.7-128.2-84.4-206.1-97.7c-11.7-2-21-0.2-30.8,7.7c-66.5,53.2-161.5,53.2-227.8,0.9
			c-68.8-54.3-74.6-151.5-11.5-212.2c46.4-44.6,103.1-58.5,165.3-45.2c97.9,21,148.4,108.1,122.8,186.6c-3.4,10.3-0.8,13.1,9.3,15.1
			c80.7,16.5,152.1,52,213.4,107.2c7.8,7,12.8,8.2,20.6,0.1c20.5-21.2,45.3-35.2,74.8-39.6c6.4-1,9.6-4,12.1-9.8
			c16.9-39,42.8-72.1,68.7-105.3c21.4-27.5,38.8-57.3,42.9-92.3c4.6-39.6,6.6-79.5,10.1-124.7c-5.8,13.6-9,22.1-12.9,30.2
			c-29.4,61-96.2,94.1-160.6,79.8c-69-15.3-115.2-71.9-117.3-140.2c-0.6-21.1,4.9-25.6,25.1-22.1c17.6,3,26.9,5.7,27.9,28
			c2,46.5,40,81.6,86.1,85.7c44.6,3.9,84.1-24.2,98.7-68.9c2.1-6.6-2.3-19.5,11.2-18.8c15.4,0.9,32.6-4.4,45.6,10.4
			C1896,639.3,1933.5,575.7,1990.5,522.4z M2563.7,999.4c1.4-30.8,3.4-61.6,4.3-92.4c1.8-62.4,7.7-124.6,5.8-187.1
			c-2.9-95.6-49.9-158.8-138.6-186c-16-4.9-32.6-8.3-49.1-10.9c-96.3-15.1-193.1-6.8-289.8-5.7c-8.8,0.1-16.1,4.1-23.3,8.7
			c-85.8,54.2-142.7,130.5-146.7,232.3c-4,102.5-32,190.3-98.6,269.6c-54.5,64.8-54.1,142.4-22.2,218.6c38,90.9,112.3,142.3,203,168
			c161.8,45.9,317.7,13.8,469.8-46.2c29.8-11.8,53.9-32.3,73-58.3c7.4-10.1,10.5-20.5,9.4-33.2
			C2552.7,1184.3,2560.3,1091.9,2563.7,999.4z M2120.5,2609.6c-3.8-2.9-7.6-5.8-11.5-8.6c-136.2-97.4-191.2-264.1-139-422.7
			c18.3-55.4,52.3-97.5,109-117c43.6-15,88.9-17.9,134.8-13.2c39,4,78,8.3,117.3,8.5c16.1,0.1,26.2-2.4,24.6-22.8
			c-1.4-17.2,1.3-35,3.8-52.3c2.5-17.8-3.6-20.7-21-20.4c-119.2,1.9-216.4-43.5-275.9-148.4c-59-103.9-49.2-209.8,12.1-311.4
			c3.1-5.2,8.6-9.3,8.5-17.4c-28.9-4.4-58.2-7.9-85.4-18.5c-15.8-6.1-22.4-0.8-28.7,12.6c-72.9,155.6-68.3,307.5,22.6,454.8
			c8.5,13.8,6.7,20.7-3.7,31.2c-46.2,46.8-83.9,99.9-109.6,160.5c-51.1,120.3-55.4,240.1,14.2,354.8
			C1943.6,2563.1,2021.3,2606.8,2120.5,2609.6z M1465.4,124.9c0-0.5,0-0.9,0-1.4c-50.5,0-101-1.4-151.3,0.4
			c-61.7,2.2-122.9,9.9-181,32.7c-60.7,23.8-85.7,70.5-75.7,135.1c15.4,100,77.7,162.9,160.9,210.5c5.2,3,10.3,3.5,16.1,3
			c54.4-5.2,108.8-10.4,163.2-15.3c8.1-0.7,13.7-1.2,15.8-11.9c11.2-58.4,46.1-102.4,87.8-142.3c34.4-32.9,72-62.5,102.2-99.7
			c20.2-24.9,34.6-52.5,40.3-84.3c2.3-12.9,0.3-20.3-16.4-20.6C1573.2,130.1,1519.3,127.1,1465.4,124.9z M652.1,506.5
			c-81.8,7.4-177.9,45.4-236.8,93.5c-54.1,44.2-89.1,99.7-99.6,169.8c-14.9,99,50.1,192.3,142.7,204.6c15.9,2.1,25.3-1.4,34.2-15.6
			c44.2-70.1,94.1-136,151.7-195.7c70.9-73.4,145.8-141.7,242.9-180.1c50.3-19.9,101.9-34.8,154.5-47.1c4.9-1.2,11.7,0.7,13.7-7.8
			c-101.9-21.7-204.8-31.5-308.9-30.1c-10,0.1-17.3,4.2-24.2,10.6c-61.8,57.1-97.7,127.3-104.8,211.2c-1.5,17.8-5.4,26.2-24.2,22.8
			c-4.1-0.7-8.4-0.6-12.6-0.2c-12.4,1.3-17.7-2.6-16.1-16.3c2.3-20.2,4.1-40.3,8.6-60.2C586.5,607.4,613,555.6,652.1,506.5z
			 M625.6,1408.2c1.7,3.7,3,6.2,4.1,8.7c24.9,55.8,48.2,112,45.2,175c-0.3,6.9,2.2,12.1,5.8,17.4c45,66.1,145.9,96.7,219.6,66.5
			c6-2.5,11-5,13-12.1c12.6-44.3,42.8-76.3,74.7-107.3c47.8-46.4,96.2-91.8,164.7-111.6c-29.3-23.3-53.9-45.9-74.9-72.5
			c-21.4-27.1-39-56.5-52.1-88.4c-5.1-12.4-12.3-5.6-18.7-3.3c-59.3,20.8-118.3,20.7-176.2-4.4c-11.9-5.2-16.8-2-22.9,7.9
			c-19.7,32-45,58.8-76.2,80.1C699.8,1386.2,664.1,1399.6,625.6,1408.2z M1493.9,484.2c119-6.9,238.1-9.8,357.3-12
			c7.7-0.1,15.1-0.2,21.9-5.3c81.8-61.6,126.1-143.3,129.3-245.6c1.6-51.7-21.5-76-72.8-81.8c-73.4-8.3-147.1-1.9-220.6-4.1
			c-10.3-0.3-13.1,4-13.8,13.4c-4,52-28.9,94.3-62.6,132.4c-30.3,34.2-65.6,63.2-98.7,94.5c-24.2,22.8-45,48.1-59.3,78.3
			C1459.7,485.3,1460.2,485.9,1493.9,484.2z M2001.8,2308c4.6,112,58.6,206.3,166.1,269.3c10.3,6,18,6.5,27.9-1.3
			c28.8-22.7,55-47.7,77.3-76.8c4.8-6.3,8.4-12.4,7.5-21c-2.5-22.7,3.1-44.4,9.8-65.9c16.9-54.1,35.8-107.5,56.2-160.4
			c2.7-7.1,6.9-14,4.4-22.2c-9.6-31.1-4.3-62.5-1.8-93.7c2.2-27.5,2.7-27.3-23.9-27.6c-11.9-0.1-23.8-1.3-35.7-1.8
			c-52.3-2-104.1-13.8-157-6c-55.7,8.3-94.3,36.4-112.5,90.6C2008.6,2225.4,2002.3,2260.3,2001.8,2308z M2283.6,308
			c0-2.8,0-5.5,0-8.3c74.3,0,148.6,0.4,222.9-0.2c46.7-0.4,62.5-16.6,64.2-63.6c0.4-12.6-0.4-25.2-0.8-37.8
			c-1.3-37.4-11.4-48.5-47.5-41.7c-64,12.1-126.6,9.8-189-8.2c-28.2-8.2-56.6-15.6-84.9-23.5c-68.6-19.1-133.2-11.5-192.7,29.2
			c-5.3,3.6-12.6,5.1-9.2,15.6c13.2,40.7,9.6,81.6-1.4,122.2c-3.4,12.7-0.4,16.7,13.6,16.5C2133.6,307.7,2208.6,308,2283.6,308z
			 M2346.1,1800.3c0.1,0,0.2,0,0.4,0c0-22.4-0.3-44.9,0.1-67.3c0.3-20.9,1.7-41.3-15.5-58.2c-7.8-7.6-9-20.2-10.1-31.5
			c-5.1-50.9-7.6-102-7.6-153.2c0-15-3.6-19.3-18.7-16.4c-42.7,8.3-85.9,13.3-129.4,12.9c-10.6-0.1-16.7,5.4-23.1,12.1
			c-65.4,68.7-84.3,182.9-44.8,270.6c38.6,85.4,137.7,145.3,232.8,141.4c13.1-0.5,16.5-5.4,16.2-17.8
			C2345.6,1862,2346.1,1831.1,2346.1,1800.3z M1950.6,468.6c13,0,20.6,0,28.2,0c112.8-0.3,225.6-8,338.4-4.6
			c66.4,2,131.2,11.9,190,45.6c7.4,4.3,11.5,4,17.1-3.2c17-21.9,30.4-45.5,35.5-72.9c4.2-22.6,2.5-44.6-11.4-64.4
			c-9.1-12.9-19.7-19.4-36.8-18.8c-58.8,2.3-117.7,3-176.5,4.1c-98.1,1.8-196.2,3.3-294.3,5.1c-7.4,0.1-15.8-1.9-19.9,7.6
			C2004.7,403.9,1980.2,435.2,1950.6,468.6z M911.9,2003.3c0-7.8-0.3-13.4,0-19c1.9-35.2-5.7-46.6-40.6-54.1
			c-35.2-7.5-70.9-8.8-106.3-1.3c-17.9,3.8-31.8,12.3-37.8,31.9c-9,29.1-29.1,51-52.5,69.2c-10.6,8.3-11.7,14-4.7,25.2
			c55.8,89.3,135.3,143.9,238.7,162.6c27.6,5,55.9,6.7,81.8-8.6c27.4-16.2,31.1-44.3,8.2-66.3c-9.5-9.1-20.5-16.9-31.4-24.4
			C925.9,2090.1,901.6,2053.7,911.9,2003.3z M550.3,2023.2c53.7-6.8,107.5-20.2,127.1-86.7c2.1-7.1,6.6-14.4,12-19.4
			c10-9.3,5.5-16.7-0.3-25.3c-17.2-25.3-44-28.3-70.8-29.7c-34.6-1.7-63.5-15.5-89.3-37.4c-27.7-23.4-48.4-52.3-66.5-83.4
			c-3.9-6.7-7.1-13.7-16.6-13.9c-32.9-0.6-65.6-6.3-98.6-5.3c-10.7,0.3-13.2,4.7-12.3,14.1c7.1,74.1,22.5,145.5,69.1,206.3
			C439.8,1989,484.6,2019.9,550.3,2023.2z M1035.8,149c-3.4-4.5-4-5.8-5-6.6c-2.2-1.7-4.6-3.2-7-4.7
			C908.7,68.9,787.3,53.9,661,100.5c-169.5,62.6-275.8,244.1-250.1,422.8c0.7,4.6-0.8,15,7.7,9.9c13.9-8.3,32.1-11.4,33.4-35.2
			c5.2-97.8,50.8-176.4,121.9-241c89-80.7,197.2-111.5,314.4-116.9C936.6,137.9,984.8,141.1,1035.8,149z M2564.2,1373.2
			c-55.6,47.6-119.5,67.6-185.1,83.3c-12,2.9-16,7.4-15.5,19.5c2.1,53.1,3.2,106.3,8.1,159.3c1.3,14.3,8.2,22.1,21.9,23.4
			c54.4,5.1,108.9,7.5,163.4,8.7c10.1,0.2,13.3-3.3,13.3-13.2C2570,1561.9,2569.6,1469.7,2564.2,1373.2z M504,489.4
			c23.8-7.2,45.4-15.1,67.7-19.9c14.5-3.1,22.3-10.2,29.9-22.6c82-132.6,201.1-198.4,357.3-196.1c13.3,0.2,28.6,6.5,39.3,1.7
			c12.8-5.8,6.1-25.1,11.8-37.1c7.7-16-0.6-18.9-14-20.1c-49-4.4-97.9-6.5-146.9-0.7c-105.7,12.5-199.6,49.3-271.2,131.8
			C537.7,372.8,510.6,425.3,504,489.4z M2569.7,2068.7c0-28-0.2-56,0.1-84c0.1-9.2-1.5-14.2-12.4-14c-44.1,0.5-88.3,0.5-132.5,0.2
			c-9.8-0.1-13.7,3.5-14.3,13.2c-4.3,69.2-8.7,138.4-13.5,207.6c-0.8,11.7,3.6,17.6,14.2,22.1c41.5,17.8,85.5,19.2,129.4,22.2
			c12.9,0.9,16.5-4,17.7-16.2C2563.5,2169.5,2566.3,2119.1,2569.7,2068.7z M2330.5,2464.7c0.2,21.5,13.5,32,30.9,38.9
			c34.5,13.7,70.4,22.2,106.2,31.6c19.6,5.2,25.1-1.9,30-18.6c20.8-69.9,30.9-142,46.7-212.9c3-13.6-2.2-16.9-14.9-17.1
			c-39.3-0.5-78.1-6.1-116-16.5c-14-3.8-19.7,0.5-24,13.4c-15.7,47-32.6,93.7-48.5,140.7C2336.4,2437.4,2333.9,2451.2,2330.5,2464.7
			z M2467.8,2593.2c0.1-5.4,0-5.2-13.8-8.6c-46.1-11.2-92.8-20.7-134.4-45.2c-5.7-3.3-9.3-4.2-13.9,1.7
			c-27.3,35.1-61.8,62.5-96.6,89.8c-18.1,14.2-18.5,22.8-3.8,40.3c28.4,33.8,58.8,65.7,89.9,97c8.3,8.3,14.2,7.6,23.2,1.7
			c63.8-41.5,112.6-95.9,144.5-165.2C2464.6,2600.9,2466.1,2597.1,2467.8,2593.2z M2397.5,1813.7c-0.1,0-0.2,0-0.3,0
			c0,29.4,0.3,58.8-0.2,88.2c-0.2,12,3.2,18.2,16.4,18.1c47.6-0.5,95.2-0.5,142.8-0.2c9.4,0,13.9-2.2,13.9-12.7
			c-0.1-58.1,0.3-116.2,0.9-174.3c0.1-10.7-3.5-14.4-14.4-14.7c-48.3-1.4-96.5-3.3-144.8-6c-11.2-0.6-14.8,2.2-14.6,13.4
			C2397.9,1754.9,2397.5,1784.3,2397.5,1813.7z M1867.5,1671.1c-6.9-11.3,14.9-32.9-4.2-42.9c-15-7.8-35.7-3.5-53.8-1.1
			c-2.8,0.4-5.5,1.1-8.2,1.6c-52.8,9.6-82.5,40.9-89,94c-7.1,57.6,21.6,96.5,78.2,106.3c25.1,4.3,50.3,0.4,75.4,0.8
			c16.6,0.3,21.5-4.2,16.8-21.5C1870.8,1765.1,1867.3,1720.5,1867.5,1671.1z M658.8,452.5c45.6-4.9,86.5-6.3,127.5-5.8
			c7.1,0.1,9.4-4.9,12.4-9.5c29.7-44.6,72.8-68,124.1-79c27.4-5.9,55.2-5.5,82.9-6.5c4.3-0.1,9.9,2.1,11-5.9
			c2.6-20.2-11.9-39.2-32.4-41.3c-66.9-6.8-131.2,2.1-192,31.9C739.2,362.4,695.8,399.5,658.8,452.5z M1595.9,1521.7
			c55.2,1.7,83.7-40.3,61.8-91.1c-13.6-31.6-40.1-49.3-69.1-64.6c-9.7-5.1-15.4-4.3-22,5.5c-23.5,35.4-51.8,66.3-89.7,86.8
			c-12.2,6.6-5.7,11.1,0.4,16.3C1511.6,1503.2,1550.5,1520.6,1595.9,1521.7z M795.4,2449.6c0,7,0.2,14,0,21
			c-1.5,41-1.4,40.1,39.4,48.8c14.4,3.1,19.8-1.5,24.8-13.6c15.3-36.7,29.6-74,47.9-109.2c11.9-23,8.1-41.9-2.1-62.8
			c-4.1-8.4-7.3-9.9-14.9-4.7c-13.8,9.5-27.2,20.1-42.2,27.3C808.6,2375.4,784.3,2402.1,795.4,2449.6z M1760,2520.8
			c20.4-2.6,48.1-6.2,75.9-9.6c10.6-1.3,12.6-4.7,6.6-14.5c-16.9-27.6-28.8-57.5-37.4-88.7c-2-7.4-4.3-12.5-13.2-13.2
			c-29.8-2.2-57.3,2.7-79.9,23.9c-21,19.8-27.9,45.5-18.8,68.5C1702.5,2511,1720.4,2521.1,1760,2520.8z M1075.5,2477.4
			c-14.6-65.4-28.8-128.7-43-192c-1.2-5.4-5.5-7.9-10.7-8.8c-6.7-1.1-7.8,4.3-9.7,8.6c-10.9,24.9-21.6,49.9-33.1,74.6
			c-3.7,7.9-2.4,14.5,0.5,21.9c13.5,33.7,26.7,67.4,40.1,101.1c9.8,24.8,10.1,25.2,34.3,12
			C1062.3,2490.2,1075.1,2489.1,1075.5,2477.4z M1104,484.9c-12.9-14.5-27.6-25.2-34.2-39.7c-19.6-42.8-54.7-44.9-93.5-41.2
			c-7,0.7-14,0.4-21,1.3c-35.9,4.2-69.3,14-98.6,42.7c43.3,4.8,83.5,8.1,123.3,14.1C1020.6,468.1,1060.8,476.8,1104,484.9z
			 M670.2,2411.2c26.5-17.3,47.6-30.8,68.5-44.8c3.3-2.2,7.8-5.9,7.8-8.9c0.6-33.7,0.4-67.4,0.4-103.8c-24.5,13-46.5,25-68.8,36.3
			c-7,3.6-7.9,8.9-7.9,15.5C670.2,2339,670.2,2372.5,670.2,2411.2z M1121,2442.6c26.2-32.4,39.5-64.6,42.8-101
			c0.6-6.4,0.7-12.1-7.5-15c-21.3-7.4-42.4-15.7-66.6-24.7c4.4,20.6,7.8,37.5,11.6,54.4C1107.4,2383.4,1113.6,2410.4,1121,2442.6z
			 M619.3,2442.6c0-28.8,0.4-53.9-0.1-78.9c-0.8-43.4-0.8-43-39.8-22.4c-10.5,5.6-13.8,11.6-11.3,23.2
			C574.9,2396.1,591.2,2421,619.3,2442.6z M1810.9,2745.3c-5.7-12.6-9-31.2-20-40.1c-8.4-6.8-23.7,6.4-34.9,13.2
			c-3.6,2.1-6.7,5-9.8,7.8c-16.4,14.4-18.2,29.6-3.1,48.8c10.3,13.2,19.2-2.6,28.6-5c10.6-2.7,20.6-8.3,30.6-13.1
			C1806.2,2755,1812.2,2754.4,1810.9,2745.3z M801.1,2325.5c25.6-16.6,49.4-32.1,73.2-47.6c9.2-6,7.1-11.5-1.8-14.5
			c-22.9-7.7-46.1-14.6-71.3-22.6C801.1,2268.8,801.1,2295.2,801.1,2325.5z M515.8,1486.8c-3.8-5.9-7.9-12.3-12-18.8
			c-19.5-31.1-19.1-30.6-49.8-10.8c-13.6,8.8-19.6,14.8-7.9,31.3c24.4,34.4,23.3,35.3,58.5,10.2
			C508.7,1495.8,515.3,1494.6,515.8,1486.8z M1180.9,2878.3c11-6.5,23.1-13.5,35-20.7c27.1-16.3,26.4-16.1,16-46.6
			c-4.4-12.9-9.2-12.6-19-6.2c-13.4,8.8-27.3,16.9-41.5,24.3c-9.8,5.1-13.5,10.7-8,21.4c3.8,7.4,6.3,15.5,9,23.4
			C1173.8,2877.5,1175.3,2880.1,1180.9,2878.3z M1848.5,2839.6c-5.1-11.3-8.6-25.9-17.3-35.8c-4.9-5.6-15.8,4.4-23.9,7.7
			c-10.9,4.4-21.8,9.1-32.6,14c-4.9,2.2-9.6,4.1-8.6,12c3.3,26.8,13.6,33.4,38.6,24c11.7-4.4,23.5-8.3,35.1-12.9
			C1843.4,2847.3,1848.6,2847.1,1848.5,2839.6z M423.6,1547.9c-9.9-14.7-19.9-29.8-30.1-44.8c-0.5-0.7-2.7-0.9-3.6-0.4
			c-13,8.1-28.1,14.5-36.9,27c-6,8.5,4.7,16.5,9.1,23.9c17.3,28.7,17.5,28.5,46.6,8.9C414.3,1558.7,421.5,1556.7,423.6,1547.9z
			 M592.5,2809.1c-5.1-1.8-8.7,1-9.8,8c-2.1,13.8-4.4,27.5-6.6,41.3c-0.8,4.9,1.8,7.2,5.7,9.8c29.8,19.8,40.7,15.8,47.1-17.6
			c7-36.4,7-36.4-30.4-40.6C597.1,2809.9,595.8,2809.6,592.5,2809.1z M907.6,2525c21.9,2.4,41.1-0.7,60.4-3
			c7.8-0.9,9.5-4.1,6.8-10.9c-9.1-22.9-18.1-45.8-29.1-73.6C931.7,2469.5,919.9,2496.6,907.6,2525z M1345.2,2773.2
			c-4.4-10.8-4.4-26.5-14.7-34.3c-6-4.6-14.8,7.3-22.8,10.8c-3.2,1.4-6.2,3.1-9.2,5c-31.3,19.8-26.8,9.2-16.6,44.1
			c3.5,12,7,16.9,19.3,8.1c11.2-8.1,23.8-14.3,35.8-21.4C1341.1,2783,1345.9,2780.9,1345.2,2773.2z M1951.1,2803.5
			c0.5-6-18.2-45-21.8-45.5c-6-0.8-47.7,21.1-47.9,25.2c-0.4,7.8,17.8,41.8,22.5,42C1913,2825.5,1950.7,2808.2,1951.1,2803.5z
			 M628.6,2706.9c-33.5-2-35.9-0.7-35.9,38.6c0,24.4,22.2,12.6,33.7,15c20.5,4.2,25-3,27.7-40.9
			C656,2694.2,634.7,2714.1,628.6,2706.9z M541.5,1536.1c-13.5,9.6-27.7,19.5-41.7,29.7c-1,0.7-1.1,4.2-0.2,5.6
			c7.3,11.8,12.7,26.3,23.1,34.1c8.5,6.4,17.7-7,26.1-12.2c25-15.4,25-16,8.4-40.8C553.3,1546.7,552,1537.7,541.5,1536.1z
			 M511.8,2700.7c-31.9-8.7-28.3,13.7-28.7,28.6c-1,37.3,30.3,18.2,44.8,20.3c24,3.5,14.9-22.9,15.7-33.9
			C545.8,2687.2,519,2708.6,511.8,2700.7z M842.4,776.5c-8.9,1.7-16.4,2.9-23.8,4.6c-8.1,1.8-16.2,4-24.3,5.9
			c-17.7,4.2-27.2,18.9-20.6,36.3c5.2,13.6,16.2,0.1,24.5,1.7c4.3,0.8,9.3-2.1,14.1-3c33.8-6.5,33.8-6.5,31.6-40.4
			C843.9,780.2,843.1,778.9,842.4,776.5z M847.4,698.5c-2.6-2.8,7.4-14.9-5.8-15.3c-21.1-0.7-42.1,2.1-56.5,20.3
			c-6.8,8.6-7.6,20.4-3.5,29.4c3.2,6.8,12.5,0.2,19-0.5c9.6-1.2,18.9-5.4,28.4-6.1C845.4,725,850.6,716.5,847.4,698.5z
			 M671.5,2472.7c21,11.8,41.9,16.7,62.2,23.1c5.4,1.7,10,1,9.5-6.3c-1.5-20.2,3.7-40.6-0.9-63.4
			C717.6,2442.2,695.3,2457,671.5,2472.7z M1071.4,726.4c-17.3,3.7-34.1,7.4-50.8,11c-12.4,2.7-24,32.1-17,42.9
			c2.3,3.5,5.8,3,9.2,2.9C1048.4,782.8,1067,765.1,1071.4,726.4z M477.5,1635.2c0-5.9-23.6-37.4-27.6-36.9
			c-5.2,0.6-39.5,26.2-39.6,29.6c-0.1,4.1,22.6,36.7,25.7,36.9C441.2,1665.1,477.6,1639.2,477.5,1635.2z M735.1,2201.5
			c-46.9-38.4-36.1-34-49.3-25.6c-19.9,12.7-22.9,25.9-13.5,58.5C692.7,2223.7,713,2213.1,735.1,2201.5z M896.1,786.5
			c-3.1,15.2,1.4,21.5,17.4,16.3c5.9-2,12.3-2.3,18.4-3.6c14-2.9,26.2-29.2,19.2-41.5c-0.9-1.5-3.3-3.5-4.6-3.3
			c-14.9,2.8-30.4,4.5-44.5,9.6C892.9,767.4,897.8,779,896.1,786.5z M1361.2,2831.6c-1.3,0.6-2,0.8-2.6,1.2
			c-13.8,8.1-27,17.3-41.4,24.2c-17.8,8.6-10.1,21.1-4.9,31.2c6.9,13.4,13.7-0.1,19.6-3c12.4-6.1,24.1-13.8,36.1-20.9
			c12.6-7.4,2.6-16,0.6-23.5C1367.8,2837.8,1368.4,2830,1361.2,2831.6z M409.6,2694.2c-13.6,1.3-29.6-5-33.3,14.5
			c-1,5.3,28.3,36.4,33,36.3c16.7-0.2,24-11.8,24-38.8C433.3,2685,416,2699.7,409.6,2694.2z M522.5,2648.1
			c8.2,0.7,15.3,2.3,22.1,1.6c17.3-1.7,10.5-16.7,13-26.1c2.8-10.5-5.1-11.1-12.7-10.1c-13.1,1.8-26.3,3.7-39.4,5.8
			c-11.8,1.9-10.1,11.3-10.8,19.5c-1,12.2,8.2,8.5,14.3,9.2C513.9,2648.5,518.8,2648.1,522.5,2648.1z M1145.6,2267.2
			c-20.8-35.3-46.6-54.2-79.2-58.7c8.8,11.8,0.4,28.6,16.4,35.2C1102,2251.7,1121.7,2258.4,1145.6,2267.2z M943.1,670.2
			c-8.2,1.3-17.2,4.2-26.1,3.7c-23-1.2-18.1,15.9-17,27.3c1.6,15.8,13.7,5,20.7,4.6c8.9-0.5,17.6-3.9,26.4-6.1
			c13.3-3.4,7.6-14.7,8.7-22.6C957,668.2,949,670.9,943.1,670.2z M639.5,2655.5c4.9,0.2,7.8,0.8,10.5,0.4c6.4-1.1,15.6,5.1,17.8-7.7
			c1.8-10.5-4.6-13.4-11.9-16.2c-8.4-3.2-16.7-6.9-25.3-9.1c-6.2-1.6-14.5-8.7-18.7-1.1c-4.1,7.3-5.2,17.6-4.1,26.1
			c1.2,9.3,11.3,4.9,17.4,6.3C630.4,2655.4,636.1,2655.2,639.5,2655.5z M1208.5,2743.7c-0.8-4.1-2.9-7.4-6.9-6.8
			c-23.1,3.3-45.3,9.8-63.7,24.7c-8.2,6.6-1.2,14.7,1.9,20.9c3.4,6.8,8.5,0.2,12-1.7c16.5-9.2,32.7-18.9,48.9-28.6
			C1204.2,2750.2,1208.8,2748.7,1208.5,2743.7z M674.7,2885.8c-1.8,6.2-2.8,10.5,2.9,12.2c5.6,1.7,7.7-2.9,9.2-6.5
			c7.6-18.7,15.3-37.5,21.9-56.6c1.5-4.4,7.2-13.3-4.6-14c-7.7-0.4-17.2-4-19.2,9.3C681.9,2849.5,677.9,2868.6,674.7,2885.8z
			 M1102.2,2910.2c7.9-5,23.8,5.3,23.3-8.1c-0.4-11.8-1.9-29.8-16.2-35c-10.8-3.9-29.9,18.8-29.9,31.6
			C1079.4,2919.8,1095.4,2904.2,1102.2,2910.2z M1847.6,2694.8c10.8,37.5,10.8,37.5,42.1,23.4c3.2-1.4,6.7-2.2,9.5-4.2
			c4.5-3.1,14-2,11.3-11.6c-2.2-7.7-9.3-7.5-15.5-7.6C1879.6,2694.7,1864.4,2694.8,1847.6,2694.8z M1010.5,686.3
			c21.4-4.5,42.5-8.9,63.6-13.6c5.9-1.3,10.5-4.4,8.8-11.7c-1.6-6.8-6.7-5.7-11.7-5.1c-14.6,1.9-29.2,5.5-43.7,5.1
			C1007.3,660.6,1005.5,670,1010.5,686.3z M2010.1,2786.7c1.5-5,17.7,1.8,13-12.7c-5-15.4-13.9-28.6-25-40.4
			c-4.3-4.6-8.7-2.7-13.2-0.6c-4.2,1.9-3.9,5.3-2.5,8.7c5.7,14.1,11.3,28.3,17.3,42.3C2001.1,2787.1,2003.5,2790,2010.1,2786.7z
			 M471.8,2800.2c10,14,21.9,19.8,32.5,26.8c23.4,15.4,24,14.7,26.4-12.8c0.8-9.3-3.3-10.4-9.9-11.5
			C505.8,2800.3,490.8,2798.6,471.8,2800.2z M531.4,1410.2c4.2,14.9,13.7,24.5,20.2,35.6c2.8,4.9,4.2,14.3,11.6,12.5
			c6.9-1.7,14.6-6.7,18.5-12.5c5.1-7.5-4.1-12.1-8.4-16.8C562.6,1417.3,548.7,1412,531.4,1410.2z M722.2,2741.2
			C722.2,2741.2,722.2,2741.2,722.2,2741.2c0.1-5.6,0.5-11.3,0-16.8c-0.5-4.9,2.8-12.1-6.3-12.8c-8-0.7-8.8,5.4-9.9,10.9
			c-2.4,12.3-4.5,24.7-7.1,37.1c-1.7,8.3,3.4,9.7,9.5,9.9c5.8,0.2,13.5,3.2,13.7-7.2C722.3,2755.2,722.2,2748.2,722.2,2741.2z
			 M1451,2811.5c-7.3-7.7-7.2-22.1-18.2-21.3c-7.6,0.6-21,4.5-19.6,17c0.9,7.9,1.1,21.8,10.9,21.6
			C1433.7,2828.6,1443.7,2820.8,1451,2811.5z M1022.2,609.1c11.7-1.1,23.4-1.8,35-3.6c4.4-0.7,12.8,1.1,10.8-8.1
			c-1.3-6-3.6-12.8-12.1-11.2c-12.8,2.5-25.6,5.6-38.3,8.7c-5.2,1.3-5.1,5.9-4.7,10.1C1013.6,611.3,1018.2,610,1022.2,609.1z
			 M562,1662.5c16.4-5.6,30.6-14.1,41.2-27.6c2.3-3,2.3-7.1-0.8-9.3c-1.6-1.2-5.5-0.9-7.4,0.3c-13,8-25.7,16.4-38.5,24.8
			c-2.6,1.7-3.5,4.2-2.2,7.1C555.7,1661.2,558.1,1663.3,562,1662.5z M1706.6,2881.7c4-5.1,18.1,6.5,16.9-8.6
			c-0.5-6.9-0.7-19.7-11.7-18.4c-8.9,1-21.2,3-21.8,17.4C1689.3,2885.5,1698.3,2881.6,1706.6,2881.7z M615.5,1547
			c3.7-14.7-2-27.4-6.2-40.3c-1.4-4.4-0.2-12.8-9.8-8.4c-7.6,3.5-10.9,7.8-5.3,15.9C601.6,1524.9,608.4,1536.1,615.5,1547z
			 M949.9,852.3c-21-2.5-35.3,3.7-50.1,6c-3.7,0.6-6.2,3-5.6,7.3c0.7,4.5,3.6,5.4,7.5,4.5C916.7,866.6,932.8,866.1,949.9,852.3z
			 M585.9,2278.4c21-8.5,39.4-14.1,27.9-40.6C603,2249.4,594.2,2261.2,585.9,2278.4z M720.8,828.4c1.1-9.1,5.1-19.6-0.9-23
			c-6.9-4-17.1-0.9-24.6,5.6C701.9,818.6,709.5,824.1,720.8,828.4z M1464,2869.3c-10.7,4.5-21.7,5.9-23.3,17
			c-1.1,7.5,6.8,6.7,12.4,6.4C1468.3,2892.2,1463,2881.3,1464,2869.3z M2040.9,2849.8c-3.2-4.3,3.5-14.7-7.2-15.3
			c-4.2-0.3-12.4,1.4-9.8,9.4c2,6,2.2,14.7,10.4,16.1C2040.6,2861,2042.3,2856.2,2040.9,2849.8z"/>
		<path class="st0" d="M1776.7,2145.6c2.3,28.8,2,57.7-4.3,85.8c-16.2,71.6-75.5,119.2-157.5,125.5c-51.5,4-102.2-3.1-151.2-19.4
			c-43.1-14.3-61.6-47.1-53.9-91.7c1.4-8.3,3.5-16.4,5.3-24.6c10-45.3-6.3-83.8-45.7-107.9c-3.6-2.2-7.1-4.7-10.9-6.3
			c-50.5-20.9-62.7-64.5-37.9-113c33.8-65.9,81.9-120.9,149.7-154.4c90.7-44.7,185-16.9,246.2,71c39.9,57.3,51.9,123.1,57.6,190.8
			C1775.4,2116.2,1775.9,2130.9,1776.7,2145.6z M1570.1,2105.3c-6.4-11.7-21.2-11.4-32.3-15.1c-8.4-2.8-18-13.2-27.9-1.9
			c-0.8,1-0.8,2.6-1.3,4c-7.9,24.6-15.6,49.3-23.8,73.8c-3.3,10,3.3,13.3,10.3,14c16.1,1.7,36.1,22.4,46,7.1
			C1555.9,2164.5,1560.3,2135.1,1570.1,2105.3z M1635.4,2226.2c6.2,1.2,7.1-3.5,8.7-8.5c4.8-14.6,10.4-28.9,15.4-43.4
			c14.5-42,14.3-41.8-28.7-53c-7.6-2-11.1-1.9-13.6,6.2c-7.6,24.7-15.8,49.2-23.7,73.8c-1.5,4.8-3,10,3.5,12.3
			C1609.5,2217.9,1622.1,2221.8,1635.4,2226.2z M1608.1,1986c-11.3-12-28.7-11.2-42.8-16.8c-6.3-2.5-14.7-8.1-18.6,4
			c-5.3,16.6-10.9,33-16.1,49.6c-3.8,11.9,6.7,13.3,13.1,14c15.4,1.5,31.7,22.7,44.2,7.2C1599.2,2029.8,1601,2007.8,1608.1,1986z
			 M1668,1999.4c-6.7-2-10-0.2-12,7.1c-3.6,13.4-7.2,27.1-13.1,39.6c-8.3,17.6-3.7,24.9,14.9,30.1c31.4,8.7,31.1,9.9,41.7-21
			c2.9-8.6,6.3-17,8.9-25.6c2.7-8.8,1.7-17-8.4-20.5C1689.5,2005.4,1678.7,2002.6,1668,1999.4z M1436.6,1992.2
			c-0.9,2.5-0.9,6.3,4.4,9.9c24.6,16.6,38.1,12.2,47-16.1c1.7-5.3,2.5-11,5-15.9c8.2-15.9,3.6-22.9-13.8-27.1
			c-30-7.3-29.8-8.3-36.9,22.3C1440.6,1973.4,1438.9,1981.6,1436.6,1992.2z M1459.4,2262.2c0.2,18,20.4,32.7,41.3,32.2
			c6.9-0.2,27.1-34.8,21.8-44.5c-9.6-17.7-32.1-20.2-48.3-20.6C1454.8,2228.9,1467,2253.2,1459.4,2262.2z M1581.7,1874
			c-10.5,7-15.8,24.3-12.9,33.4c7,21.8,32.4,18.1,49.8,22.1c14.8,3.4,11.4-16.6,15.2-26C1636.8,1896,1599.3,1874,1581.7,1874z
			 M1589,2306.2c20.6,5.4,34.2-5.2,31.8-22.4c-2.7-19.4-27-18.9-40.4-19.6c-15.4-0.8-15.8,21.2-16.3,32.7
			C1563.4,2315.2,1581.5,2301.7,1589,2306.2z M1445.6,2116.7c4-11.5,6.6-18.5,8.8-25.6c9.3-29,9.2-28.7-20.1-36.8
			c-8-2.2-10.6-2.1-14.4,7.2C1408.4,2089.7,1436.2,2095.6,1445.6,2116.7z M1720.6,2156c-8.6,25.1-17.2,50.2-26,75.3
			c-2.3,6.8-5.3,13,5.1,16.1c9.7,2.9,13.7-0.8,16.8-9.7C1725.5,2211.3,1727.1,2184.5,1720.6,2156z M1521,1876.4
			c-13.1,2.2-23.4,5.6-33.4,13.7C1515.7,1901.6,1515.7,1901.6,1521,1876.4z"/>
		<path class="st0" d="M1360.9,2540c2.4-30.3,16.5-61.8,51.1-78.7c37.5-18.4,77.2-21.6,114.6,0.7c25,14.9,31.7,39.9,28.8,67.5
			c-6.4,61.4-81.5,111-140.6,93.2C1380,2612.2,1359.7,2583.8,1360.9,2540z M1473.3,2499.2c-12.9,0.4-24.7,1.6-35.8,6.6
			c-18.4,8.3-31.3,39.2-23.3,55.3c6.7,13.5,29.1,17.9,49.2,9.4c13.3-5.7,23.8-15.2,31.5-27.1c6.3-9.8,14.2-20.3,7.4-33
			C1495.8,2498.3,1483.1,2500.9,1473.3,2499.2z"/>
		<path class="st0" d="M944,1184c-92.5,0-162.7-56.8-179.1-132.2c-3.3-15.1-3.7-26.8,17.5-24.4c6.1,0.7,12.6-0.5,18.8-1.8
			c9.1-1.9,11.5,2,13.7,10.5c25.3,97.6,126.9,128.4,200.6,60.3c9.6-8.9,14.6-6,22.5,0c30.7,23.2,30.9,24.4,1.2,48.5
			C1007,1171.1,969.9,1183.5,944,1184z"/>
		<path class="st0" d="M2429.9,1058.2c-3.6-45.3-4.1-82.9-1-120.8c1.1-13.5,4.3-17.4,18.7-15.9c34.6,3.8,34,2.8,32.2,37.5
			c-3.4,67.8,5.9,135.6,1.8,203.5c-1.9,30.8-5.7,61.3-17.2,90.2c-13.9,35-37,60.5-75,70c-11.9,3-18.4,0.8-17.7-13.8
			c0.9-18.1-2.8-33.6,21-44.8c26.6-12.4,29.3-44.1,33.7-71C2434.2,1145.8,2430.4,1098.2,2429.9,1058.2z"/>
		<path class="st0" d="M2289.3,1187c-3.2-25.4-1.2-50.4,6.7-74.7c11.2-34.4,40.8-59.1,70.6-60.7c9.4-0.5,14.6,0.1,11.4,12.2
			c-4.8,18-2.5,36.6-23,50c-17.9,11.7-15.7,36.2-14.4,56.5c1.8,28.7,4.2,57.3-2.4,85.7c-10.1,43.6-44.2,72.1-84.5,70.5
			c-4.8-0.2-9.8-0.9-14.4-2.2c-25-6.9-26.5-11.5-9.6-30.4c8.9-10,16-20.6,33.3-20.5c14.1,0.1,21.3-14.2,24.5-28
			C2292,1226.1,2292,1206.6,2289.3,1187z"/>
		<path class="st0" d="M1948.1,1120.6c17.7-2.4,25.9,5.1,28,28.3c5.6,62.8,41.6,104.3,101.5,122.2c19.8,5.9,22.9,13.5,19,31.5
			c-5.7,26.4-4.7,26.6-30.5,19.7c-82.3-22-141.9-97.8-143.9-183.1C1921.8,1120.4,1922.9,1119.5,1948.1,1120.6z"/>
		<path class="st0" d="M2148,2438.5c-60.4,0.1-102.4-60.4-85.8-123.7c5.4-20.7,15.5-38.9,31.6-53.4c48.3-43.3,117.9-23,133.6,39.7
			c6.9,27.5,6,55.7-2.9,82.8C2213.4,2418,2183.8,2438.5,2148,2438.5z M2179.8,2337.7c-0.5-6.3-0.6-12.6-1.6-18.8
			c-1.9-12.3-6.6-23.2-19.5-27.4c-12.9-4.2-23.5,1.8-32.3,10.4c-13.5,13.2-16.8,30.1-15.3,48.3c1.7,20.1,18.2,36.8,36.3,37
			c18.5,0.2,28.6-10.9,31.3-34.8C2179.3,2347.5,2179.5,2342.6,2179.8,2337.7z"/>
		<path class="st0" d="M2318,1703c-0.5,40.8-33.3,75.9-73.2,78.3c-41.9,2.5-70-22-76.2-66.9c-1.2-9-2.6-18.2-1.8-27.1
			c4.1-46.2,34.2-74.2,76.2-71.6C2283.7,1618.2,2318.6,1658.9,2318,1703z M2218,1694.9c3.5,13.8-1.7,33,20.8,35.1
			c14.1,1.3,27.5-12.9,27.9-28.1c0.4-16.3-15.1-34.8-30-34.6C2217.9,1667.6,2221,1683.3,2218,1694.9z"/>
	</g>
</g>
</svg>
