<?xml version="1.0" encoding="utf-8"?>
<!-- Generator: Adobe Illustrator 23.0.0, SVG Export Plug-In . SVG Version: 6.00 Build 0)  -->
<svg version="1.0" xmlns="http://www.w3.org/2000/svg" xmlns:xlink="http://www.w3.org/1999/xlink" x="0px" y="0px"
	 viewBox="0 0 3000 3000" style="enable-background:new 0 0 3000 3000;" xml:space="preserve">
<style type="text/css">
	.st0{stroke:#000000;stroke-width:10;stroke-miterlimit:10;}
</style>
<g id="Layer_1">
</g>
<g id="Layer_2">
	<g>
		<path class="st0" d="M142.3,1692.5c-14.5,3-23.6,4.7-32.6,6.8c-39.9,9.6-62.4-8.5-60.7-49.4c1.1-24.9,8.3-48.5,24.7-67.2
			c77.9-88.7,132.2-193.4,199-289.7c9.3-13.4,28.9-30.4,25.7-39.2c-4.9-13.4-28.8-6.7-44.1-11.8c-30.6-10.2-65-17.2-68.7-57.1
			c-3.6-38.3,14.9-68.1,46.6-88.8c21.4-14,44.9-21.9,71.2-14.2c6.2,1.8,10.8,2.1,15.4-5.2c26.1-41.8,46.6-52.6,82.2-45.1
			c31.2,6.6,58.4,37.4,64.7,73.3c5.3,29.8,5.4,30.2,34.3,18.9c72.5-28.3,149.3-32.7,225.4-40.6c112.9-11.7,226.5-8.3,339.6-15.6
			c10.7-0.7,22.1,0.7,32.4,3.6c19.9,5.6,31.6,18.1,31.7,40.7c0.2,43.1-2.7,86-7,128.8c-3.6,36.7-22.4,52.2-61.4,53.2
			c-45.3,1.3-88.3,11.5-128,33.5c-30,16.7-55.2,38.7-52.5,76.7c2.9,39.8,25.6,68.5,61.7,84.6c47.4,21.2,99,21.3,149.5,25.4
			c66.3,5.4,130.6-4.5,193.5-26.9c63.8-22.7,99-68.9,114-132.1c9.7-41-7.3-60-49.1-57.9c-25,1.3-49.8,5.5-74.8,5.9
			c-48.3,0.8-68.6-18-73.7-65.2c-3.8-35.1-5.6-70.3,1.6-105.1c7.6-36.6,26.1-54.3,62.6-60c65.6-10.2,131.2-1,196.7,1.8
			c26.5,1.1,52.9,5,79.4,7.6c52.1,5.1,86.2,35.1,92.7,84.9c17.2,131.5,26.2,263.8-19.8,391.9c-34.8,97-90.6,179.3-179.5,236.5
			c-50.3,32.3-106.6,38.2-163.4,43.3c-199.1,17.6-398.6,14.4-598.1,14.5c-60.1,0-120.1,8.8-180.4,0.4c-32.6-4.6-64.9-10.8-96.2-20.6
			c-14.5-4.5-24.3-2.2-36.5,6c-64.5,43.5-131.9,56-202.4,13.8c-10.6-6.4-20.8-14.1-29.7-22.8c-34.8-33.8-37.6-69.9-9-109
			C125.9,1712.5,132.9,1704.2,142.3,1692.5z M88,1598.2c14.6,0,23,0,31.5,0c80.6,0.4,161.2,0.8,241.8,1.2c7.7,0,16.3-1.6,15.5,11.1
			c-0.7,11.1-8.6,9-15.2,9.3c-5.5,0.2-11,0-16.4-0.1c-82.9-0.5-165.9-1.1-248.8-1.2c-7.6,0-18.1-4.6-21.6,7.8
			c-4.5,16-8.2,32.4,0.5,47.8c6.1,10.7,17.1,9,27.3,6.3c17.3-4.7,35.8-15.6,51.8-12.6c33.1,6.1,65.5-0.2,98,2.2
			c7,0.5,16.4-3.3,16.4,10.1c0,12.8-9.2,10.4-16.3,10.8c-24.2,1.1-48.5,2.3-72.7,2.4c-15.9,0.1-22.6,13.2-26.6,22.9
			c-4.5,10.9,10.6,12.6,18.1,15.9c32.3,14.1,65.3,14.4,97.8,0.5c23.6-10.1,46.5-21.9,70.1-32c54.6-23.3,117-9,150.9,34.5
			c4.1,5.2,13.4,9.9,1.9,18.4c-9.7,7.1-12.3,0.8-17.7-5c-34.8-37.7-78-48-125.6-29.3c-17.4,6.8-34,15.7-50.7,24
			c-50.8,25.1-101.7,29.8-152-0.4c-11-6.6-14.4-2.7-18.8,6.4c-11.6,23.3-5.6,46.8,18.3,68.9c57.1,53.1,140.3,53.4,210.2-0.7
			c12.6-9.7,22.5-12.4,37.8-7.2c54.4,18.4,110.7,27.2,168.1,27.5c60.6,0.4,121-9.3,181.7-6.6c168.3,7.5,336.2-3.2,504.3-10.1
			c112.4-4.7,205.7-39.7,274.3-131.9c41.4-55.7,72.8-116.6,88.2-183.7c24.7-108,19.9-217.7,6.2-326.7c-6-47.4-29.6-69.5-74.2-75
			c-88.5-11-177.5-17.7-266.8-11c-32.2,2.4-47.3,17.5-52.9,49.3c-5.1,28.9-2.4,57.7-0.7,86.6c2.7,44.6,17,57.2,62.6,53.8
			c24.9-1.9,49.9-6.3,74.7-6c44,0.4,67,26.1,61.8,69.4c-7.7,63.5-38.5,113.4-94.6,145.7c-12,6.9-17.4,10.4-4.2,22.1
			c13.5,12,17.6,29.4,17.4,47.1c-0.2,21.1-1.5,42.2-2.3,63.2c-1.7,43.7-25.1,72.8-62.6,92c-18.9,9.7-38.9,16.5-59.8,20.2
			c-72.2,12.8-144.8,11-217.5,6.2c-26.7-1.8-52.6-7.3-77.6-17.1c-124-48.8-127.9-187.9-43.9-246.9c11.7-8.2,4.7-13.4,0.7-20.6
			c-31-54.7-19.1-105.5,33.8-140.1c13.6-8.9,28.6-16.1,43.6-22.5c35.6-15,73.4-20.3,111.8-22.2c21.9-1.1,34.8-10.4,35.9-34.2
			c1.7-36.7,5.6-73.3,7.3-110c1.5-32.5-5.8-40.1-38.7-40.6c-21.1-0.3-42.2,1.4-63.3,2.5c-39.8,2.1-79.7,6.6-119.5,6.2
			c-99.6-0.9-198.7,7.3-296.4,24.8c-119.1,21.3-222.9,73.2-294.4,175.2c-39,55.6-74.2,113.9-110.9,171.1c-2.4,3.7-7.8,7.8-3.5,15.3
			c60.8-18.3,122.8-23.4,185.6-19.2c6.9,0.5,19.1-4,17.3,11.6c-1.6,13.9-10.6,9.8-19,9.1c-68-6-134.1,3-198.5,25.6
			c-5.9,2.1-12.2,3.3-16.3,8.5C131.3,1543.5,111.5,1568.5,88,1598.2z M301.8,1228.4c6,0,9.1,0.1,12.3,0
			c24.2-0.8,31.6-14.3,19.5-35.1c-12.2-21.1-20.9-43.9-21.3-68.3c-0.3-19.2-10.2-24.2-26.5-24.5c-33.9-0.7-70.1,27.4-77.7,60.5
			c-6.6,28.8,0.6,42.4,28.1,53C258.2,1222.5,281,1227.3,301.8,1228.4z M333.4,1113c-0.9,27,5.9,49,17.8,69.8
			c6,10.5,11.3,14.7,23.4,6.1c19-13.5,39.6-24.8,59.8-36.5c7.3-4.2,12-9,12.4-18c1.3-28.1-5.8-52.8-28.4-71
			c-33.2-26.8-76.4-10.4-83.5,31.6C333.7,1101.7,333.7,1108.8,333.4,1113z"/>
		<path class="st0" d="M2677.8,1816.7c-43.3,27.2-83.8,50.4-127.1,68.4c-146.7,61.3-298.1,72.3-453.1,41.4
			c-16.5-3.3-32.5-3.2-48.9-1.6c-89.4,9.1-174.4-7.4-255.6-44.7c-30.6-14.1-56.3-33.9-69.6-68.9c-22.3,20.5-46.4,34.9-75.4,39.7
			c-12.6,2.1-24.8,1.7-37.1-1.9c-34.3-10-46.1-38-28.9-69.4c20.4-37.2,78.7-62.3,119.6-49.5c15.4,4.8,19.6,3.9,23.6-13.6
			c36.8-159.8,92.7-311.3,198.1-440.5c70.9-86.9,162.1-133.7,274.1-137.4c185.8-6.2,371.7-3.8,557.5,0.9
			c108.3,2.7,165.3,59.8,175.5,171.7c9.3,102,16.8,204.4,5.7,306.9c-11.3,104.7-42.5,201.7-112,283.4c-31.4,37-67.2,49.3-98,32.2
			c-33.4-18.6-44.3-50.9-48.2-86.4C2677,1839.1,2677.8,1830.4,2677.8,1816.7z M2416.6,1905c7.2-1.1,10.9-1.4,14.6-2.3
			c80.3-19.9,155.3-52.1,224.9-96.9c16.4-10.6,27.6-22.3,32.1-42.8c6.7-30.5,20.6-58.9,34.1-87.1c21.9-45.7,46.7-90.2,60.4-139.4
			c16.7-59.8,10.4-116-27.8-166.8c-51.4-68.4-124.3-95.7-205.3-103.1c-290.8-26.8-495.8,194.4-545.2,392.3
			c-19.1,76.3-12,149.2,37.7,213.8c11.1,14.4,23.7,26.5,42.9,30.4c61.5,12.7,123.4,20.4,186.2,19.9c10.7-0.1,19.6-2.2,27.5-10.1
			c46.3-46.4,75.1-101.5,82.4-166.9c3.5-31.3,2.6-31.4-27.7-25.2c-6.9,1.4-13.7,3-20.7,4c-34.7,5.1-68.2,18-104,15.7
			c-41.7-2.7-60.4-37.1-39.7-73.1c4.6-8,10.3-16.2,17.3-22c72-59.9,153.7-90.2,247.7-73.3c66.9,12,100.2,69.2,83.9,135.6
			c-7.7,31.3-25.2,56.8-45.5,81C2463.6,1823.4,2435.1,1858.7,2416.6,1905z M1915,1897.6c-2.1-5.3-2.6-7.7-3.9-9.4
			c-52.8-75.5-62.4-159.9-52-248.8c9-77.5,42.6-144.7,84.9-208.6c70-105.7,160.4-184.8,288-209.3c142.8-27.4,286.4-25.5,428.7,4.7
			c122.1,25.9,190.7,108.9,227.5,223c1.7,5.2,6.2,11.6-4.1,14.8c-8.2,2.5-13.3,2.5-15.3-7.3c-0.9-4.5-3.2-8.8-4.7-13.2
			c-40.2-121.6-124.6-188.7-250.8-206.2c-94.2-13.1-188.4-14.5-283.3-9.2c-141.8,7.8-257.7,63.3-343.5,178.6
			c-63.8,85.7-111.2,177.5-111,287.8c0.1,67.4,14.9,130.3,55.4,185.5c6.4,8.7,11.5,21.6,22.1,23.2c28.1,4,56.6,4.9,86.9,0.6
			c-71-83.7-79.4-172.3-52.1-264.7c52.5-177.9,221.2-377.8,486.4-395.2c84.4-5.5,166.2,7.3,237.5,56.4
			c75.1,51.7,112,122.8,96.8,215.7c-6.5,39.7-23,76.1-39.8,112.4c-23.2,50.2-52,98.1-64.7,152.8c-7.7,33.3-10.8,66.7,2.6,99.2
			c18.8,45.4,54.8,52.9,90.3,18.9c23.9-22.9,42.4-50.1,58.2-79.1c37.9-69.9,56.6-145.3,61.9-224.1c7.3-108.9,2.2-217.4-14.6-325.1
			c-7.6-48.6-37.4-81.5-84.5-97.8c-29.9-10.4-61-14.5-92.3-14.6c-172.2-0.5-344.3-1.7-516.5,0.2c-108.1,1.2-198.7,43.3-267.9,128.4
			c-74.1,91-125.6,193.8-160.3,305.3c-16.5,52.9-35.1,105.4-40.4,161.1c-2.9,30.2-2.1,60.9,23.2,82.5
			C1806.6,1872.3,1859.1,1886.1,1915,1897.6z M2322,1919.6c15.1-1.5,24.4-3.2,33.5-3.1c26.1,0.5,40.1-12.5,49.6-36.4
			c13.7-34.3,37.3-63,60.4-91.6c18.6-23,38.8-44.8,48.8-73.8c22.2-64.4-7.9-116.1-75.3-124.2c-80.3-9.6-151.3,15.1-213.4,65.6
			c-15.1,12.3-31.8,28.6-20.5,49.8c10.4,19.6,32,15.9,50.8,12.3c44.4-8.5,88.9-16.7,133-26.6c14-3.1,17.1,2,16.1,13.3
			c-2,23.3-3.3,46.8-7.6,69.7C2387.4,1828.1,2362,1874.2,2322,1919.6z M1633.2,1831.3c29.8-1.6,55.4-12.8,74.9-36.8
			c7.3-9.1,11.1-19.6,6.5-30.6c-4.7-11.3-15.9-14.5-27-15.3c-30.5-2-57,7.4-78.1,30c-9.3,9.9-18.3,20.7-12.4,35.3
			C1603.3,1829.6,1618.5,1829.9,1633.2,1831.3z"/>
		<path class="st0" d="M1154.8,1454.6c-35.7,1.1-61.4,0.2-85.3-11.5c-40.7-19.9-44.9-59.2-7-83.7c55.2-35.6,114.7-32.3,172.2-8.2
			c34.6,14.4,34.9,58,4.1,82.5C1211,1455.7,1177.7,1454.1,1154.8,1454.6z M1145.6,1435.8c14.7-1.6,29.4-3.4,44.1-4.9
			c16.8-1.7,32.1-6.9,43-20.5c12.6-15.6,9.8-31.1-7.1-41.4c-34.2-20.9-118.6-17.5-150.7,6.5c-8.6,6.4-18.8,13-17,26
			c1.9,13.2,12.3,19.2,23.4,23.8C1101.9,1433.6,1123.5,1435.9,1145.6,1435.8z"/>
		<path class="st0" d="M1903.4,1125.9c-0.4,37.1-27.7,65.8-62.5,65.4c-34.5-0.4-61-29.7-60.7-67.1c0.4-37.2,27.6-65.8,62.4-65.3
			C1877.2,1059.2,1903.8,1088.6,1903.4,1125.9z M1842.5,1171.1c22-0.4,40.8-21.8,40.8-46.1c0-24.4-19-45.6-41-46
			c-22.7-0.3-42.7,22.2-42,47.3C1801.1,1150.8,1820.6,1171.6,1842.5,1171.1z"/>
		<path class="st0" d="M569.2,1402.5c-12.5,0-24.9,0.3-37.4-0.1c-21.4-0.6-41.5-6.2-50.1-27.7c-9.1-22.7,2.6-41.3,19.1-56
			c47-41.7,102.6-64.8,164.7-71.4c36.7-3.9,73.3-2.4,109.1,7.8c22.9,6.5,29.5,16.3,25,39.4c-5.1,26.4-23.1,43.6-44,58.2
			C699.7,1392,636.1,1403.5,569.2,1402.5z M674.5,1368.5c25.9-7,48.6-18.2,69.7-32.9c14.9-10.4,28-22.8,34.3-40.4
			c2.9-8.2,4.7-15.8-7.7-20.2c-31-10.8-92.2-12.2-122.8-1.3C686.6,1302,691.8,1319.8,674.5,1368.5z M570,1297.3
			c-26.1,13.2-48.2,26.2-63.9,47.1c-12.6,16.8-8,29,12.3,34.9c22.5,6.5,45.5,3.9,74.7,2.6C561.7,1358.1,559,1330.4,570,1297.3z"/>
		<path class="st0" d="M644.3,1618.3c2.2,15.7-8.7,41,4.3,52.6c11.1,9.9,35.6,4.8,54.2,6.1c10.9,0.8,21.9,1.2,32.8,1.5
			c6.8,0.2,12.1,1.1,12.1,10.1c0,9.1-5,10.1-12,9.9c-32.8-1.2-67.8,4.3-97.9-5.3c-31.8-10.1-61.7-7-92.6-6.5
			c-10.1,0.2-13.7-3.5-15.4-12.7c-7.5-40.1-10.4-80.6-10.6-121.4c0-8.9,1.7-15,12.9-14.5c11.9,0.5,8.9,8.9,8.8,15.1
			c-0.6,31.4,1.3,62.5,5,93.7c1.6,13.2,6,18.4,20.4,18.4c57.2,0.1,57.2,0.7,56.7-56.7c-0.1-12.5-0.2-25-0.3-37.6
			c-0.1-8.1-0.5-16.2,10.9-16.9c12.8-0.8,10.6,8.4,10.7,15.9C644.4,1585.1,644.3,1600,644.3,1618.3z"/>
	</g>
</g>
</svg>
