<?xml version="1.0" encoding="utf-8"?>
<!-- Generator: Adobe Illustrator 23.0.0, SVG Export Plug-In . SVG Version: 6.00 Build 0)  -->
<svg version="1.0" xmlns="http://www.w3.org/2000/svg" xmlns:xlink="http://www.w3.org/1999/xlink" x="0px" y="0px"
	 viewBox="0 0 3000 3000" style="enable-background:new 0 0 3000 3000;" xml:space="preserve">
<style type="text/css">
	.st0{stroke:#000000;stroke-width:10;stroke-miterlimit:10;}
</style>
<g id="Layer_1">
</g>
<g id="Layer_2">
	<g>
		<path class="st0" d="M2947.7,1309.9c1,56.3-10.5,117-30.1,176c-42.3,127.2-103.8,244.7-187.3,349.7
			c-48.4,60.9-108.6,107.2-186.9,124.4c-138.5,30.3-240-80.4-197.2-215.2c16.7-52.6,50.5-94.2,88-132.9
			c60.4-62.5,115.8-128.8,159.3-204.4c6.2-10.7,12.6-21.4,17.7-32.6c15.1-33.7,28.5-68.9,1.5-101.9c-29.5-36-70.6-40-113-30.4
			c-38.9,8.7-72.3,29.7-103.7,53.4c-127.2,95.8-216.9,221.9-289.4,361.4c-8.9,17.2-14.4,36.4-19.6,55.2
			c-30.8,110.9-124,169.8-238,149.7c-96.5-17-149.7-86-143.5-184.8c4.9-77.9,30.5-149.9,68.2-216.5
			c116-205.5,277.3-368.7,478.5-490.6c111.3-67.4,234-97.9,365-75.5C2825.9,930.4,2951.9,1087.3,2947.7,1309.9z M2539.7,940.4
			c-120.2,0.1-225.6,44.1-321.9,111.7c-129.4,90.9-239.7,201.7-333.9,328.5c-59.1,79.5-103.4,166.5-122.8,264.2
			c-19.5,98,22,160.4,108.6,168.1c86.9,7.7,143.9-31.8,167.8-115.4c5.7-19.8,11.4-40,20.6-58.2c75-147.9,170.1-280.1,303.3-381.9
			c37.1-28.3,76.6-52.4,122.4-64.3c92.2-24.1,177.1,20.2,194.1,102.1c8.7,41.9-7.9,79.2-26.9,115
			c-47.3,89.2-110.4,166.5-180.4,238.7c-31.7,32.7-60.7,67.6-75.1,112.1c-30.5,94.4,33.9,167,131.4,149.5
			c52-9.3,93.6-36.9,130.8-72.1c49.2-46.6,84.5-103.6,117.5-162.2c62.1-110.4,113.3-224.3,121.2-353.5
			C2910.1,1098,2764.1,940.9,2539.7,940.4z"/>
		<path class="st0" d="M387.6,1976.7c-34.3,1.7-68.2-2-101.5-9.3c-141.8-31.2-225.1-140.2-216.8-292
			c22.3-409.6,330.2-733.4,685.1-798.3c132.6-24.3,261.3-9.8,378.7,62.2c93.9,57.5,128.5,146.4,126.1,252.4
			c-2,86.1-28.1,166.4-65.1,243.1c-92,190.8-220.9,348.4-415,442.6C656,1937.2,525.7,1973.9,387.6,1976.7z M122.1,1640.2
			c-3,180.7,66.1,264.4,208.4,281.5c138.9,16.7,270.2-21,395-75.3c199.2-86.9,331.6-242.9,423-436.2c37.4-78.9,63.9-160.9,58.6-250
			c-4.4-74.5-34-135.5-98.8-175.6c-89.1-55.3-187.4-71.9-290.5-64c-115.7,8.9-220.5,50.2-316.9,112.8
			C267.9,1184.5,146.7,1402.2,122.1,1640.2z"/>
		<path class="st0" d="M1382.5,2007.2c-109.6,0.2-198.7-85.5-198.4-191c0.2-105,91-192.3,199.1-191.4
			c107.9,0.9,195.5,86.1,196,190.5C1579.7,1922.4,1493,2007,1382.5,2007.2z M1236.8,1815.1c-0.7,78,63.8,141.1,144.6,141.3
			c80.5,0.3,146.9-62.9,147-139.9c0-75.8-64.5-138.1-144-139.2C1302.2,1676.3,1237.5,1736.7,1236.8,1815.1z"/>
		<path class="st0" d="M1543.5,1475.6c-76.2,0.4-136-57.6-136.4-132.1c-0.4-74.3,60.1-134.8,135.5-135.3
			c77.5-0.6,139.2,58.9,139.5,134.5C1682.5,1417.7,1622.5,1475.2,1543.5,1475.6z M1542.5,1425.7c49.1,0.6,86.1-33.7,87-80.8
			c0.9-47-35.4-84.7-82.8-85.9c-47.2-1.2-85.9,35.2-87,81.8C1458.6,1388.4,1494.3,1425,1542.5,1425.7z"/>
		<path class="st0" d="M1783.5,1011.5c0,59.5-46.8,108.1-104.1,108.2c-56.9,0.1-105.1-49.4-105.1-108c0-59.5,46.7-107.1,105-106.9
			C1738.4,904.9,1783.5,951.1,1783.5,1011.5z M1679.6,955.4c-29.1-0.4-53,25.2-52.7,56.6c0.3,30.5,22.1,54.2,50.8,55
			c29.7,0.9,54.5-23.7,55.1-54.4C1733.2,982.8,1708.2,955.8,1679.6,955.4z"/>
		<path class="st0" d="M870.7,1113c31,0.1,61.7,3.2,91.9,10.7c11.2,2.8,21.1,7.7,12.5,20.7c-7,10.5,3.1,35.7-24.4,29.6
			c-148.8-33.2-264.4,22.4-357.2,135.6c-89.1,108.8-169.7,223.2-217,357.3c-7.5,21.4-19.3,14.9-31.9,10
			c-11.1-4.3-27.6-3.3-18.6-25.6c71.2-176.5,170.8-334,315.5-459.2C706.8,1135.7,784.8,1113.4,870.7,1113z"/>
		<path class="st0" d="M880,1344.4c-9.3-9-31.6,2.1-35.5-18.3c-2.9-15.4,36.7-64.6,49.8-62.3c17.7,3.1,17.5,22.9,25.6,34.9
			C923.3,1303.4,888.5,1344,880,1344.4z"/>
		<path class="st0" d="M722.5,1483.3c-8.8-1.9-23.8,5.9-22.7-14.3c1.1-20,26.8-64.9,35-59.7c13.4,8.6,32,22.6,28.3,36.3
			C758.6,1462.2,756.6,1493.1,722.5,1483.3z"/>
		<path class="st0" d="M578.6,1671.9c-2.1-0.9-19.8,10.4-17.8-12.8c1.8-21.1,24.9-61.6,34.3-56.8c14,7.2,32.3,21.6,28.4,35.3
			C619.1,1652.6,617.4,1682.3,578.6,1671.9z"/>
	</g>
</g>
</svg>
