<?xml version="1.0" encoding="utf-8"?>
<!-- Generator: Adobe Illustrator 23.0.0, SVG Export Plug-In . SVG Version: 6.00 Build 0)  -->
<svg version="1.0" xmlns="http://www.w3.org/2000/svg" xmlns:xlink="http://www.w3.org/1999/xlink" x="0px" y="0px"
	 viewBox="0 0 3000 3000" style="enable-background:new 0 0 3000 3000;" xml:space="preserve">
<style type="text/css">
	.st0{stroke:#000000;stroke-width:10;stroke-miterlimit:10;}
</style>
<g id="Layer_1">
</g>
<g id="Layer_2">
	<g>
		<path class="st0" d="M2252,2272.1c80.6,34.1,143.9,83.3,191,151.9c90.9,132.5,76.5,301.4-33.3,398
			c-56.7,49.9-125.3,72.6-198.3,84.1c-68.6,10.8-137,9.2-205-6c-62.9-14.1-116.5-44.1-159.9-94.6c-50.5,72.2-121.2,88.5-201.8,78.7
			c-33.5-4.1-63.9-15.7-87.3-40.8c-9-9.7-14.2-14-26-2.4c-118.9,116.8-313.9,118.9-451.6-14.8c-4.4-4.3-8.2-9.1-8.8-9.8
			c-18.1,15-35.5,28.6-52.1,43.2c-84.7,74.6-181.3,111-292.1,75.2C611.9,2897.6,548,2811,525.7,2694.9
			c-26.2-136.9,18.8-256.9,95.8-367.7c7.6-10.9,15.9-21.4,24.1-31.9c25.2-31.9,24.8-31.5-5.1-61.1c-76.6-75.9-151-153.8-209.4-245.4
			c-80.8-126.6-121.4-265-128.6-415c-6.1-127.4-8-254.7,2.4-381.5c13.2-160,58.8-312.1,133.6-454.6
			c140.6-268,339.9-473.5,626.5-585.6c114.5-44.8,234.4-58.6,355.6-64.4c131.2-6.2,262.3-14.4,393.9-7.6
			c214,11.1,410.3,77.4,590.7,190.3c185.2,116,281.3,284.9,295.6,503.8c18.1,278.1,6.8,554.5-50.7,827.1
			c-53.5,253.7-178.4,469.8-370.5,645.6C2271.5,2254.6,2263.1,2262,2252,2272.1z M1826.9,2418.6c5.7-0.3,8.7-0.1,11.6-0.7
			c8-1.7,16-3.6,24-5.6c117.2-28.3,224.4-79.7,319.7-152.2c214.1-163,350.8-380.9,410.9-639.9c66.9-288.4,80.2-582.7,52.2-878.3
			c-15-158.9-81.4-290.1-209.1-385.6c-199.2-149-425.6-221.5-673.9-226.7c-125.4-2.6-250.3,6.5-375.4,11.7
			c-187.5,7.7-361.3,58.6-512.8,168.8C476.8,599.1,322.8,999,351.2,1479.4c0.9,15.8,9,17.6,21.8,18.2c47.2,2,94.3,4.3,141.6-0.2
			c121.6-11.4,204.2-72.1,243.5-189.4c20.3-60.5,33.3-122.8,43.8-185.3C825.3,984.3,872,857,970.6,753.5
			c156.1-163.8,344.8-236.2,568.7-184.8c217.6,50,361.1,185.9,425.7,401.1c37.3,124.3,43.7,252.6,41.4,381.1
			c-6.9,391.7-123.9,748-347.3,1069.6c-5,7.2-13.7,12.8-11.5,25.3c26.5-2.7,52.9-6,79.4-7.8c21.4-1.5,34.2-11.5,45.4-30.1
			c54.5-90.7,103.4-184.2,145.8-281.1c163.8-374.3,210.5-764.6,159.4-1168.3c-27.5-217.5-147.3-364.5-345.9-449.5
			c-178.9-76.6-359.9-64.5-540.6-5.6c-207.5,67.6-347.1,202.5-412.7,413c-28.6,91.8-57.4,183.9-102.3,269.6
			c-46.7,89.1-107.5,164.5-203.7,205.9c-4.9-11.1-8.8-21.7-14.1-31.6c-6-11.1-4.1-16.6,8-22.4c72.6-34.9,119.3-95,157.6-163.4
			c41.4-73.9,64.8-154.8,92.3-234.1c24.8-71.6,45.4-145.1,89.8-207.9c13.6-19.1,12.7-28.1-9-38.2c-11.4-5.3-21.1-16.5-28.8-27.1
			c-50-68-30.1-166.1,43.2-216.1c71.4-48.7,164-29.6,208.3,45.3c11.2,18.9,19,17.8,34.8,8.7c33.8-19.5,70.1-34.2,107.1-46.4
			c197.7-65.1,395.2-79.3,592.1,3.4c21.2,8.9,41.7,19.1,63.7,29.2c4.3-34.3,14.7-62.8,33.8-88c41.2-54.6,115.7-74.8,176.3-47.5
			c61.4,27.7,90.2,87.3,76,158c-10.1,50.6-37.3,91.1-77.9,121.6c-15.5,11.7-16,18.6-4.5,33.4c56.6,72.1,84.4,156.3,100.7,245.1
			c3.7,20.1,1.4,45.1,12.7,59.2c13.3,16.7,40,4.5,60.7,5.9c88.3,6.2,134.9,79.8,97.8,158.5c-7.1,15.1-5.7,26.2,0.5,40
			c15,33.6,17.4,68.3-3.4,100c-9.7,14.9-10.1,25.6-3.5,41.6c17.1,41.5,16.1,82.6-15,118.2c-8.9,10.2-6,17.7-1.8,27.4
			c13,29.6,20.1,64.4-1,88c-31.1,34.6-27.4,70.2-21.4,109.2c1.2,7.9,2,17.7-1.5,24.3c-23,44.5-30.4,94.3-48.5,140
			c-7.1,17.8-9,29.7-2.7,46.9c16.7,46.2,4.8,93.2-31.8,118.8c-16.5,11.6-21.5,21.1-18.3,41.8c7.9,50.7-18.6,83.1-70.1,88.6
			c-21.3,2.3-43.2,1.8-64.5-0.8c-23.7-2.9-36,3.5-46.3,27.1c-24.9,57.3-53.5,113.1-81.7,168.9
			C1865,2351.5,1846,2383.9,1826.9,2418.6z M1471.2,2450.2c23.6,0,47.3-1.5,70.8,0.4c23.3,1.9,37.8-7.4,51-26
			c40.5-56.9,79.1-114.9,114.7-175c9.1-15.4,11.8-23.3-8.9-33.1c-182.6-86.8-285.3-282.9-258.8-485
			c25-190.3,124.9-332.8,275.5-444.7c13.2-9.8,23.2-18.7,36.4,2.1c11.1,17.6,14.2,26.4-6,40.6c-99.6,70-177.7,159.2-220.8,274
			c-62.9,167.2-51.8,326.3,65.4,469c37.1,45.1,83.6,78.8,137.5,101.3c31.9,13.3,26.5-19.6,36-32.3c13.4-17.9-6.8-16.4-15-19
			c-101.4-32.6-166.7-101.2-201.1-200.6c-22-63.6-23.7-128.7-12.2-194.5c30-170.9,161.8-341.5,362.6-357.4
			c18.5-1.5,44.1,10.6,54.1-6.2c8.6-14.5,2.5-38,2.4-57.5c-0.5-125.8-10.3-250.4-55.5-369.2c-65.9-173-194.6-274.4-371.1-319.9
			c-22.7-5.9-30.9-3-26.3,23.9c5.9,34.2,6.9,69.4,8.6,104.2c3.4,66.9,0.4,133.3-14.4,199c-34.6,153.4-127,255.7-272.4,313.5
			c-48.4,19.2-98.1,37-140.6,68.7c-63.4,47.4-63.9,102.4-2.1,150.9c27.4,21.5,57.3,40,80.6,66.5c78.4,89.3,39.8,225.4-73.1,257
			c-9,2.5-24.6,13.2-25.9-5.3c-1-13.8-19-35.2,9.9-43.1c86.8-23.8,112-134.4,26-197.6c-26.4-19.4-53.8-37.8-76.7-61.6
			c-45.1-46.8-50.9-105.5-15.7-160.3c17.6-27.4,42-47.6,69.9-63.5c50-28.4,103.5-49.4,155.9-72.6c87.3-38.6,151.8-98.6,189.3-187.9
			c53.8-127.7,41.3-259.6,26.2-391.3c-3-26.1-30.9-12.2-46.9-12.7c-19.6-0.6-7.3,15.6-5.8,22.6c14.6,70.7,22.3,141.7,18.5,214
			c-8.5,161.4-97.6,281.9-249.9,336.2c-96.4,34.4-195.3,34.8-294.8,19.8c-24.5-3.7-32,2.6-35.6,26.2c-8.1,52.9-23.7,103.9-48,151.8
			c-46.2,91.1-118.9,146.9-219.9,165.5c-60,11-120.4,15.5-180.8,7.6c-28.1-3.7-32.3,6.2-30.6,31c7.1,106.6,28.8,209.1,78.1,304.7
			c91.5,177.6,230.4,312.6,387.9,430.9c17.2,12.9,35.2,24.4,56.3,30.8C1070.2,2404.3,1268.2,2441.1,1471.2,2450.2z M1098.6,2519.7
			c-1.1-14.2-2-31.6-3.8-48.9c-3.1-29.5-28.4-21.7-45.1-24.1c-18.4-2.6-11.4,15.3-12.3,24.4c-4.6,48-18.1,92.4-48.7,130.6
			c-42.8,53.5-111.1,75.5-170.2,55.1c-57-19.7-94.1-75.3-95.8-144.2c-1.3-53,13.8-100.9,45.4-143.7c5.3-7.1,15.9-12.6,3.5-25.1
			c-52.1-52.9-60.3-52.8-103.4,6.9c-22.9,31.6-43.4,64.7-59.2,100.4c-32.6,73.6-50,150-33.9,230.4c20.7,103,75.1,179.3,180.5,208.3
			c93,25.6,202.5-21.7,267.5-111.4C1078.5,2702.1,1095.2,2614.5,1098.6,2519.7z M1955,2441.6c-31.2,0.3-41.4,14.7-44.7,41.8
			c-18.3,149.9,91.7,273.8,242.5,271c69.3-1.3,135.1-47.2,159.7-111.4c24.1-63,7.5-120.8-51.2-172.3c-20.8-18.3,1.7-28.5,6.3-41.2
			c5.9-16.3,16.6-5,24.5,0c58.4,37.2,94.5,126.2,79.2,194.4c-29.4,130.7-154.8,207.3-289.1,176.5c-142.4-32.7-234-159.5-224.9-310.6
			c0.4-6.8,8.2-18.3-4.1-20.3c-11.5-1.8-10.4,10.8-11.3,18.1c-7.3,59.1-14.7,118.3-2.5,177.6c18.4,89.6,67.5,153.9,157.8,178.8
			c107.2,29.6,213.6,23.7,316-20.8c61.1-26.5,104.5-71.5,125.7-135.9c47.7-145.2-66.3-338.8-217-368.4
			c-49.5-9.7-83.1,26.8-68.2,74.5c6.5,20.8,19,38.5,31.5,56.1c19,26.7,38.5,53,48.1,85.2c16,54-1.1,111.2-45.2,146.7
			c-41.5,33.4-99.5,38.6-147.5,12.5c-49.8-27-73.4-72-86.2-125C1944.3,2527.1,1952.8,2485.4,1955,2441.6z M1236.7,2574.3
			c1.2-11.8,1.7-15.8,1.9-19.9c1.7-23.4,12.7-52.9,2.6-68.7c-11.6-18.1-45.1-10.5-68.3-17c-21.2-6-26,0-25,21
			c3.6,74.3-4.3,147.4-30,217.8c-25.2,68.9-24,72.9,38.8,115.8c10.1,6.9,20.7,13.2,31.4,19.2c143.6,79.8,323.6,11.9,368.4-139.5
			c12.9-43.5,17.3-88.3,15.2-133.7c-3.3-72.2-3.3-72.2-75.7-68.1c-1,0.1-2.1,0.1-3.1,0c-12.7-1.3-15,4.8-14.3,16.6
			c1.6,25.6,3,51.3,1.6,76.8c-4,71.7-46.2,131-104.5,149.3c-64.2,20.2-123.8-14.2-138-79.3
			C1230.6,2631.9,1235.3,2599.2,1236.7,2574.3z M988.5,2448.8c3.6-13.2-7.2-20.9-26.1-25.7c-40.3-10.3-80.4-21.5-119.8-34.6
			c-14.2-4.7-22.8-3.6-31.3,8.2c-32.3,44.6-46.4,93.4-31.9,147.7c16.4,61.5,73.6,86.2,130.1,56.5
			C967.5,2570.4,980.9,2515.3,988.5,2448.8z M2001.8,2497.4c-2.7,46.1,3.1,90.1,33.6,127.3c22.7,27.6,51.9,39.1,87.5,31.7
			c33.8-7,52.6-29.7,62.4-61.1c9-29-1.4-54.4-16.7-78.4c-26.3-41.2-60.4-78.2-69.2-128.7c-1.8-10.1-6.9-9.1-15.4-6.2
			c-68.6,23.4-75.1,31.3-81,103.1C2002.6,2489.2,2002.2,2493.3,2001.8,2497.4z M1680.1,2834.3c34.6,2.4,66-4.6,93.6-25.3
			c32.8-24.6,38.2-48.8,28.4-87.9c-13.2-52.7-58-56.9-97.4-63.9c-45.2-8-86.1,2.2-100.3,64.9c-2.5,10.9-7.4,21.3-11.9,31.6
			c-16,37-7.2,58.8,30.9,72.7C1641.8,2833.2,1661,2836.4,1680.1,2834.3z M2055.6,486c0.1-46.2-24.4-77.9-64-88.4
			c-56.3-14.9-115.4,30.7-122.6,94.3c-2.3,20.5,1.3,35.8,21,48.7c25.4,16.8,48.1,38,70.6,58.7c9.6,8.8,16.5,9.4,26.2,2
			C2027.1,571,2053.6,532.8,2055.6,486z M1286.8,2590.1c0,18.9-2,39.6,0.4,59.7c4.7,38.1,38.2,57.3,74.5,44.7
			c24.7-8.6,41.3-25.9,52.6-48.9c16-32.4,18.5-66.8,15.4-102.1c-3.9-45.8-4-45.6-48.9-48.3c-19.4-1.2-38.9-2.9-58.2-5.8
			c-18.3-2.7-28.6,0.5-29,22.4C1293.3,2537.4,1289.4,2562.9,1286.8,2590.1z M900,475.5c-68.4-1.4-123.1,71.1-104.7,134.4
			c5.4,18.5,15.4,33.2,31.7,43.6c15.8,10.1,29,10.9,42.7-5.5c25-29.9,53.7-56.2,84.9-79.8c35.5-26.8,35.6-39.7,1.3-69.1
			C938.9,484.5,919.2,477.1,900,475.5z M2171.7,1029.9c-23.6-3.9-37,5.8-31.8,37.3c3.8,23.2,3.7,47,5.3,70.5
			c0.7,10.6,1.3,19,16.2,20.7c45,5,90.8-28.1,93.7-69.5C2257.4,1053.9,2225.8,1029.9,2171.7,1029.9z M1712.1,2495.6
			c-20-0.1-38.2,5-54.3,17.3c-17,13.1-30.7,30.2-28,51.3c2.6,20.2,25,21.4,40.9,26.2c13.5,4,28,6.8,42,6.5
			c39.1-0.6,68.5-25.6,68.3-56.1C1780.9,2514.2,1753,2495.9,1712.1,2495.6z M2087.2,1965c17.5-1,31.8-3.3,43.4-12.3
			c18-13.8,23.4-32.8,17.7-54.3c-2.9-11-2.4-25.1-18.6-28.1c-55.9-10.6-62.3-6.8-79.7,48.7c-0.9,2.9-1.4,6-2.7,8.7
			c-10.1,20.5-6,32.6,18.9,33.8C2074.1,1961.9,2082.1,1964.1,2087.2,1965z M2146.5,1372.4c-0.4,0-0.8,0-1.2,0
			c0,10.2,0.2,20.4-0.1,30.6c-0.2,8.3,2.2,14,11.7,14c20.3-0.1,40.9,3.3,60.7-3.5c23.5-8.2,32.2-32.5,26-64.4
			c-5.1-25.7-20.4-25.9-40.5-20.3c-7.7,2.1-16.9,3.8-24.2,1.5c-29.6-9.4-34.8,5.6-32.4,29.9
			C2146.9,1364.2,2146.5,1368.3,2146.5,1372.4z M1074.2,863c3.3-2.5,6-3.8,7.9-5.9c15.1-16.5,36.7-31,42.7-50.4
			c4.3-13.6-21.8-25.6-33.5-39.1c-2-2.3-4.7-4-6.5-6.5c-16.1-22.1-30.3-22.1-49.8-1.4c-32.7,34.8-33.9,33.6,1.3,67.8
			c8.8,8.5,17.5,17.1,26.4,25.5C1066.3,856.5,1070.2,859.6,1074.2,863z M1167.2,763.3c3-2.7,7.7-6.3,11.7-10.5
			c14-14.9,26.3-31.6,41.8-44.6c21.7-18.2,17.7-31.2-2.1-47.4c-10.7-8.8-18.7-13.9-31.8-6c-22.7,13.7-46,26.3-68.7,39.9
			c-4.9,2.9-9.6,7.3-12.4,12.2C1103.8,710.2,1159.6,762.9,1167.2,763.3z M1328.3,768c-15.4-14.6-28.7-31-45.5-41.6
			c-12.9-8.2-16.6,10.4-23.8,17.2c-15.7,14.7-29.9,30.9-44.3,46.8c-5,5.5-12,9.5-4.6,20.2c28.4,41.2,44.3,43.1,77.5,6.5
			c10.3-11.4,20.5-22.8,30.5-34.4C1321.4,778.8,1323.8,774.5,1328.3,768z M2182.3,1468.6c-41-1-41-1-45.4,33.2
			c-1.3,10.2-1.2,20.6-3.5,30.5c-6.3,27.4,5.9,35.4,31,31c6.1-1.1,12.1-2.1,18.1-3.5c33.4-8.2,47.6-26.2,45.1-55.7
			C2224.9,1471.7,2206.7,1462.2,2182.3,1468.6z M977.5,834.5c-13.2,4.6-15.8,11.1-19.1,15.9c-8.7,12.7-15.7,26.6-25.2,38.6
			c-13.3,16.8-8,27.2,6.8,40.2c41.9,36.8,41.4,37.6,79.4-3.6c6.6-7.1,21.8-15.4,16.1-23.4C1018.3,878,997.1,856.8,977.5,834.5z
			 M1267.3,1049.5c9.2,0.9,11.8-4.2,15.4-7.5c40.3-37.2,38.8-48.3,2.6-88.5c-22.4-24.8-36.1-21.8-52.7,3.2
			c-7.7,11.6-20.8,19.6-24.1,34.1C1207.6,994.6,1266.3,1049.4,1267.3,1049.5z M2147.1,1238.2c3,11.8-6,30.9,8.1,35.5
			c25.3,8.3,52.3,7.2,76.5-7.8c20.6-12.8,22.4-32.3,19.2-53.6c-2.2-14.6-7-22.7-23.9-14.5c-16.6,8-35,12.7-53.4,10.4
			C2148.6,1204.9,2142.8,1216.2,2147.1,1238.2z M1647.4,1945.6c19.4,7,38.1,11.9,55.2,20.2c19.9,9.7,28.3,2.6,37-15.5
			c20.6-43.1,20.7-41.3-18.9-64c-23.8-13.7-37.2-11-47.8,14.5C1666.7,1915.9,1656.9,1929.3,1647.4,1945.6z M1665.2,1801.5
			c13.8-4.8,17.2-18.6,23.5-29.1c28-46.6,27.2-47.6-21-72.4c-8.6-4.4-13.9-6.7-19.7,3.1c-11.3,19.3-23.4,38.1-35.2,57.1
			c-2.7,4.4-5.5,10.3-0.1,13.4C1629.5,1783.2,1646.8,1791.8,1665.2,1801.5z M2147.6,1696.5c48.3-0.9,48.3-0.9,47.6-41.4
			c-0.8-41-1.4-41.5-49.5-40.6c-23.8,0.5-36.1,20.1-35.3,67.1C2111,1712.6,2137.9,1688.2,2147.6,1696.5z M1079.1,1048.1
			c7.1-0.7,50.3-50.3,49.5-56.7c-0.7-5.1-45.8-48.4-50.4-48.4c-5.6-0.1-53.7,51.8-53.4,57.7
			C1024.9,1006,1073.8,1048.6,1079.1,1048.1z M1852.8,1493.5c-14.9-10.6-28.8-21.8-44.1-30.7c-12.5-7.3-14.8,6.4-19.3,13.1
			c-10.2,15.1-19.7,30.8-29,46.5c-4.2,7.1-13.7,15.5-0.2,22.2c15.8,7.8,32.4,34.2,44.5,23.7
			C1825.1,1550.4,1835.7,1521.5,1852.8,1493.5z M1164.8,950.7c4.2-2.4,7.2-3.3,9.1-5.3c13.7-15.1,27.2-30.3,40.5-45.6
			c3.6-4.1,5.1-8.9,0.3-13.4c-14.9-13.8-27.7-33.6-45.3-39.5c-13.4-4.5-23.4,18.9-34.4,30.3c-7.7,8-24.1,16.8-15.6,28.8
			C1131.5,922.9,1149.3,935.8,1164.8,950.7z M1760.7,1761.7c-4.8,0.1-39.5,52.3-39.8,59.9c-0.2,6,46.2,36,56.7,36.6
			c6.4,0.3,35.6-46.9,35.3-57C1812.7,1795.7,1767.6,1761.6,1760.7,1761.7z M1232.9,1087c-16.3-15.4-30.1-28.6-44.2-41.5
			c-5.9-5.4-17.5-14.9-18.2-14.2c-16.5,16.4-34.6,32.2-46.4,51.8c-7.2,12.1,12.5,17.5,19.5,26.4c11.6,14.7,25.1,14.1,40.2,4.9
			C1198.4,1105.5,1213.7,1097.7,1232.9,1087z M1894.9,1524.2c-12.4,20.7-24.3,42.1-37.9,62.5c-8.8,13.2-6.5,20.5,6.3,29.6
			c32,22.6,31.5,23.2,49.8-13.2c1.8-3.7,3.7-7.3,5.5-11c20.8-41.6,20.8-41.6-19.2-66.4C1898.5,1525.3,1897.5,1525.1,1894.9,1524.2z
			 M1733.8,1681c9.5,1.6,11.6-5.2,14.7-10.1c6.5-10.4,11.8-21.7,18.9-31.6c9.8-13.6,9.7-23.5-6.8-31.3c-7.3-3.4-14.4-8.2-20.3-13.7
			c-11.7-11-20.3-10.8-27.4,4.5c-3,6.5-8.6,12-10.4,18.7c-3.3,12.4-29.3,20.6-8.6,37.3C1706.5,1665,1721.1,1672.8,1733.8,1681z
			 M1002.8,1133.6c5.4,0.1,38.5-35.3,38.6-41.4c0.1-5.9-49.2-50.5-55.4-50.1c-3.8,0.2-40.7,40-40.8,43.9
			C945,1090.2,997.5,1133.5,1002.8,1133.6z M1998.7,2070.8c26.4,0,50.5,0.3,74.6-0.1c15.9-0.2,21.8-11.2,20.3-24.6
			c-1.2-10.8,3-25.2-12.6-30.6c-51-17.6-59.7-13.3-77.3,38C2002.2,2058.1,2001,2062.9,1998.7,2070.8z M1823.7,1652.5
			c-4.1,0.1-37.6,51.6-37.4,57.4c0.2,5.6,45.5,39.5,50,36.1c18.3-14,23.1-36.6,32-56.4C1870.7,1684.4,1831,1652.2,1823.7,1652.5z
			 M2130.2,1750.1c-35.4,0.8-45.9,13-46.9,53c-0.6,23.4,17.8,15.3,28.2,15.6c33.8,1.1,51.5-17.5,52.1-49.3
			C2164.1,1740.3,2143.6,1751.4,2130.2,1750.1z M1343,932.4c13-36.8,20.1-74.5,19.2-120.6c-13.7,15-23.2,25.1-32.4,35.5
			c-41.9,46.8-41.8,47.3,9.5,84.5C1339.9,932.4,1341.2,932.2,1343,932.4z M896.7,961c-7.2,21.9-13.2,40.3-19.4,58.5
			c-5.1,14.9,4.1,22.4,14.6,29.7c12,8.4,16.2-2.8,22.1-8.6c35.9-35.1,35.8-35.2-1.7-67.6C908.5,969.8,904.4,966.9,896.7,961z
			 M1582.8,1820.6c-1.5,38.1,6.3,71.4,21.6,92.4c47.9-78.5,52.3-57.1-18.6-92.6C1585,1820,1583.8,1820.5,1582.8,1820.6z
			 M1812.9,1934.6c-6.4,0.4-36.3,47.2-33.4,52.5c7.7,14.2,24.1,12.9,37,17.6c6.6,2.4,29.6-38.7,26.3-49
			C1838.2,1941.2,1822.3,1941.2,1812.9,1934.6z M1858.5,1899.7c14.5-15.4,15.6-36.1,20.9-54.4c2.9-10-7.7-13.2-15-15.9
			c-4.8-1.8-33.3,44.1-31.6,51.8C1835.7,1893.1,1848,1892.9,1858.5,1899.7z M1774.2,2075.5c15.7,4.4,27.2-0.5,25.4-12.2
			c-2.8-18.2-23.2-15.7-36.1-21.2c-14-6-20.5,8.6-19.5,16.4C1746.3,2077,1766.6,2069.7,1774.2,2075.5z M1344.4,652
			c-34.8,34.4-34.8,34.4,11.8,67.3C1357,696,1351.5,675.4,1344.4,652z M1674.6,1551.8c-19.3,17.4-36.5,36.2-39.7,63.3
			C1655.7,1598.8,1666.8,1576.3,1674.6,1551.8z M1947.9,1493.8c1.4-21.8,2.6-38.8,3.7-55.9C1943.8,1455,1905.1,1470.3,1947.9,1493.8
			z M889.5,1147.9c16.6,4.6,29.5,5.6,48.6,2.8C919.5,1137.5,907.8,1114.4,889.5,1147.9z"/>
	</g>
</g>
</svg>
