<?xml version="1.0" encoding="utf-8"?>
<!-- Generator: Adobe Illustrator 23.0.0, SVG Export Plug-In . SVG Version: 6.00 Build 0)  -->
<svg version="1.0" xmlns="http://www.w3.org/2000/svg" xmlns:xlink="http://www.w3.org/1999/xlink" x="0px" y="0px"
	 viewBox="0 0 3000 3000" style="enable-background:new 0 0 3000 3000;" xml:space="preserve">
<style type="text/css">
	.st0{stroke:#000000;stroke-width:10;stroke-miterlimit:10;}
</style>
<g id="Layer_1">
</g>
<g id="Layer_2">
	<g>
		<path class="st0" d="M130.3,1497.1c0-253.5-0.4-507,0-760.5c0.6-323.4,219-589.1,536.1-652.6c41.7-8.4,84-11,126.6-11
			c479.1,0.2,958.2-0.4,1437.3,0.3c372.1,0.6,661.8,291.3,662.1,664c0.5,505.9,0.3,1011.8,0.1,1517.7
			c-0.2,379.3-287,668.5-666.8,669.7c-437.8,1.4-875.6,0-1313.3,0.8c-98.2,0.2-196.2,3.4-292.6-22.1
			c-285.7-75.7-486.7-330.1-488.9-625.6C128.8,2017.5,130.3,1757.3,130.3,1497.1z M319.2,1761.9c9.9-11.7,14.6-16.3,18.2-21.6
			c63.3-96.1,152.2-158.4,259.5-196c60-21.1,59.1-20.7,60.4-85.7c2.5-121.5-8.9-243.5,9.4-364.6c43.9-290.1,303.7-529.9,595.9-544.5
			c195.2-9.8,390.7-3.2,586.1-2.2c35.8,0.2,71.3,4.6,106.3,12c312.7,66.5,525.7,330.7,527.8,657.2c1.4,223.3,0.8,446.6,0.1,670
			c-0.5,189.9-66.4,353.1-202.2,487.2c-4.6,4.6-14.8,7.4-9.5,19.3c151.6-10.7,285,36.7,402.2,135.4c41.7-83,64.2-167.3,64.2-257
			c0.2-466.7,0.2-933.5,0-1400.2c-0.1-317.1-273.4-589.6-591.1-589.7c-412-0.1-824.1,0-1236.1,0c-16.7,0-33.6-0.2-50.2,1.8
			c-314.2,37.3-540.7,292-541.1,609.1c-0.4,278-0.1,556.1-0.1,834.1C319.2,1735.4,319.2,1744.3,319.2,1761.9z M1915.2,2495.2
			c2.2-0.4,4.4-0.7,6.6-1.1c124.9-22.4,233-77,324.7-165.2c19.8-19,21.7-30.9,4.8-54.2c-385.7-533.1-770.6-1066.7-1154.8-1600.9
			c-15-20.8-25.8-20.2-45.5-10.3c-126,63.7-219.1,159.2-281.5,285.7c-11.2,22.8-10.3,38.7,5.8,59.9
			c254.2,333.6,507.3,668,760.6,1002.3c117.2,154.7,234.1,309.6,351.4,464.2C1894.3,2484.6,1898.8,2498.9,1915.2,2495.2z M2550,2775
			c6.1-1.6,8.5-1.6,10.2-2.7c6.6-4.1,13.3-8.3,19.6-12.9c166.9-122.5,256.3-287.2,257.1-494.2c2.1-510.3,1.4-1020.7,0.5-1531.1
			c-0.6-337.6-269.4-605.5-607.6-606c-479.1-0.8-958.2-0.3-1437.3-0.3c-48.2,0-95.8,5.4-142.6,16.8
			c-272.8,66.4-463.3,306-464.4,586.6c-1,272.5-0.2,545-0.2,817.5c0,237.9-0.3,475.7,0.2,713.6c0.2,81.6,14,160.6,50.1,234.9
			c2.6-54.2,10.6-106.8,27.7-157.9c2.8-8.2,2.5-17.6,2.5-26.5c-0.4-476.8-0.8-953.7-1.4-1430.5c-0.1-40.3,2.9-80.4,10.7-119.9
			c63.5-319.7,328.8-537.4,658.2-538.1c397.6-0.8,795.1-0.2,1192.7,0.3c32.3,0,65,0.9,96.9,5.6c332.3,48.8,569.4,316.9,571.2,652.8
			c2.5,457.9,0.8,915.7,0.5,1373.6c-0.1,162.8-54.1,306.3-159.6,429.9C2609,2716.8,2579.8,2744.1,2550,2775z M2326.1,874.5
			c-7.6,8.3-14,14.4-19.4,21.3c-166.8,207.9-333.2,416.1-500.5,623.6c-13,16.1-13.1,26.2-0.9,42.9
			c126.5,174.1,251.9,348.9,377.8,523.4c40.7,56.4,81.7,112.6,124.6,171.8c66.8-92.5,110.8-190.4,114.2-299.7
			c8.5-270,8.1-540.2,0.1-810.2C2419.1,1048.9,2382,958.8,2326.1,874.5z M790,2868.9c78.5-1.4,144.4-14,203.6-52.7
			c171.9-112.4,202.5-366.1,57.5-521.9c-143.5-154.1-324.6-194.6-523.7-141.6c-131.3,35-204,133.6-225.8,264.6
			c-21.3,127.3-4.2,245.1,116,324.8c20.6,13.6,25.5,14.5,28.4-12.1c16.4-151.9,141.5-260.2,295.6-257.1c14.5,0.3,36-7.7,33.9,22.2
			c-1.6,23.5-6.5,34.5-35.2,33.5c-136-4.6-245.4,106.5-241,240.1c0.6,19.4,7.4,30,25,38.2C611.5,2847.3,704.2,2862.9,790,2868.9z
			 M1041.5,2859.7c4,0.3,9.3,1,14.5,1c364,0,727.9,3,1091.8-1.3c200-2.3,359.2-92.6,479.5-252.8c17.6-23.4,12.1-34.5-8.2-50.3
			c-113.3-88.1-240.7-127.4-382.5-101.9c-133.2,23.9-185.8,52.1-181.8,169.1c0.5,16.1-9.1,28.5-26,29.6
			c-16.2,1.1-27.1-9.1-32.2-24.1c-3.6-10.5-4.3-22-8.6-32.1c-11.4-27-28.1-50.1-61.7-45.6c-92.3,12.5-185,7.9-277.6,8.5
			c-78.9,0.6-103,19.8-118.4,96.4c-3.8,18.8-7.5,39.9-33.5,37.9c-25.6-1.9-26.2-22-27.2-41.8c-3.1-64.8-31.5-92.2-97.3-92.1
			c-50.3,0.1-100.5-1.1-150.3-8.1c-18.4-2.6-24.5,0.6-26.5,20.6c-11.5,111.6-58.4,204.9-148.5,274.3
			C1043.7,2849.5,1039.2,2851.6,1041.5,2859.7z M326.2,2198.9c106.1-81.9,213.5-133.2,338.1-141.1c13.9-0.9,18.4-10.7,23.7-20.5
			c36.5-67.6,7.5-144.1-69.6-174.3c-33.6-13.1-12.1-33.7-10.3-49.1c2.5-21.7,19.8-7.1,28.8-4.2c92.4,30.1,142.2,127.7,112.9,222.9
			c-6.4,20.8-5.7,28.5,18.5,31.7c53.6,7,104.2,25.2,150.5,53.1c18.7,11.3,31.9,11.9,49.7-3.1c86.6-73.1,131.5-164.4,113-277.8
			c-18.6-114.8-94.8-189.2-196.8-232.2c-162.3-68.4-306.3-18.5-433.8,89c-59.7,50.3-112,115.2-121.5,191.8
			C316.9,1984.9,326.2,2087.3,326.2,2198.9z M2011.3,632.5c-10.1-1.4-14.2,8-19.8,14.3c-22.8,26-45.1,52.4-67.7,78.5
			c-125.4,145.2-250.7,290.4-376.2,435.4c-9.8,11.4-18.5,19.2-5.9,36.3c66.9,90.5,132.7,181.8,197.8,273.7
			c13.9,19.6,19.9,18.4,34.6,0c166.8-209.2,334.3-417.8,502.5-625.9c13.3-16.4,10.2-25.4-2-39.1c-68.4-76.3-150.8-131.6-246.4-167.8
			C2023,635.9,2017.6,634.5,2011.3,632.5z M1134.7,631.3c118.6,164.6,235.3,326.4,351.8,488.3c14,19.4,19.2,2.6,26.3-5.5
			c65.2-74.9,130.3-149.9,195.4-225c72.3-83.5,144.6-167,216.7-250.8c5.4-6.3,16.6-11.7,12.4-21.5c-4-9.5-15.7-6.4-24.1-7.4
			c-19.9-2.5-39.9-5.9-59.9-5.9c-189.8-0.4-379.7-0.8-569.5,0.1C1233.7,603.7,1184.6,612.9,1134.7,631.3z M1830.8,2502.7
			c-2.7-8.3-2.9-10.7-4.1-12.3c-107.5-142.5-215.2-284.8-322.3-427.5c-12.3-16.4-18.5-8-27.1,2.8
			c-91.7,116.6-183.9,232.9-275.4,349.7c-27.7,35.3-12.3,75.1,30.7,81.7c11,1.7,22.2,2.9,33.3,2.9c176.3,1,352.6,1.8,528.9,2.6
			C1805.8,2502.8,1816.8,2502.7,1830.8,2502.7z M993.3,2169.3c74.7,50.4,133.2,114.9,171.5,196.4c3.7-2,6.2-2.6,7.4-4.2
			c91.3-115.4,182.2-231.2,274.2-346c12.4-15.5,3.7-23.8-4.2-34.2c-51.1-67.6-102-135.4-153.9-202.3c-20.7-26.7-36.5-73.5-64.3-74.2
			c-28.1-0.7-49.9,43.1-76,65.6c-13.7,11.9-18.4,23.1-14.2,43.1c22.8,107.5-5.7,203.3-74.1,287.5
			C1040.3,2125.1,1016.6,2145.7,993.3,2169.3z M734,1046.6c-11.7,46.8-19.7,85.9-19.9,126.2c-0.5,106.1,0.6,212.2-0.8,318.2
			c-0.3,25,8.4,28.7,30.8,28.1c67-1.9,130.1,13.8,189.4,46.1c72.3,39.4,130.2,93.3,178.6,177.2c21.5-26.4,37.6-51.3,58.7-70.7
			c18.3-16.9,17.2-27.4,3-45.9c-77.6-100.7-154-202.3-230.8-303.6C875,1232.4,807,1142.8,734,1046.6z"/>
	</g>
</g>
</svg>
