<?xml version="1.0" encoding="utf-8"?>
<!-- Generator: Adobe Illustrator 23.0.0, SVG Export Plug-In . SVG Version: 6.00 Build 0)  -->
<svg version="1.0" xmlns="http://www.w3.org/2000/svg" xmlns:xlink="http://www.w3.org/1999/xlink" x="0px" y="0px"
	 viewBox="0 0 3000 3000" style="enable-background:new 0 0 3000 3000;" xml:space="preserve">
<g id="Layer_1">
</g>
<g id="Layer_2">
	<g>
		<path d="M514.3,1495.2c-26.2-6.4-46.3-10.8-66.3-16.2c-128.5-34.9-187.9-137.7-155.2-267.7c19.4-77.1,64.5-139.2,114.1-198.8
			c32-38.5,67.6-73.6,106.6-108.2c-36.9-28.2-69.6-59.5-96.8-96.3C211.4,529.9,374.3,162.7,687.3,95.7c124.3-26.6,247-15.4,369.5,11
			c39,8.4,79.4,13.6,116.2,27.8c24.5,9.5,42.7,2.4,64.1-2.7c72.1-17.4,145.5-20.2,219.2-18.3c163.5,4.1,327.1,8.2,490.6,12.5
			c157.8,4.2,315.6,8.2,473.4,13.5c40.6,1.4,81.1,6.5,119.8,20.9c91.3,34,137.3,104.9,159.4,195.1c15,61.4,17.7,124.3,20.3,187.1
			c16.5,405.7,18.7,811.3,2.6,1217.1c-8.9,223.5-22.4,446.6-40.6,669.4c-6.4,79-14.5,157.8-38.2,234.1
			c-48.5,155.6-155.9,242.5-314,270.8c-107.2,19.1-211.9,1.7-315.9-22.9c-24.3-5.7-48.3-12.5-72.6-18.5
			c-17.1-4.2-37.3-5.6-23.6-33.8c-6.8,4.2-13.7,8.3-20.5,12.5c-114.2,71.1-237.3,79.1-365.5,51.7c-40.1-8.6-78.2-22.4-112.8-44.7
			c-6-3.9-10.1-6.2-16.1,0.8c-41.2,47.6-97,60.6-156.1,63.2c-171.4,7.3-342.9,7-514.3,4.3c-50.2-0.8-99.8-7.1-145.7-29.8
			c-43.2-21.3-73.1-54.2-85.5-101.4c-2.2-8.2-4-13-13.9-15.4c-138-34.6-189.7-184-104.6-300.8c3.8-5.2,9-9.6,11.6-15.3
			c11.2-23.8,47.1-27.7,46.4-62.3c-0.5-26.9,6.6-53.8,7.9-80.9c2.5-50.6,5.2-101.3,2-152.1c-0.6-9.3-3.5-11.9-10.3-15.3
			c-28.6-14.4-42.4-39.2-47.2-69.7c-6.7-42.1-1.5-83.1,17.4-121c8.5-17.1,3.2-24.2-9.3-34.4c-50-40.8-87.2-91.2-101.4-154.9
			c-22.4-100,17.8-177.2,94.3-238.6C428,1527.6,467.9,1510.3,514.3,1495.2z M1941.7,2838.1c11.9,3.4,20.8,6.1,29.7,8.4
			c103.3,26.3,206.9,51.6,314.7,40.4c162.5-16.8,274.6-100,315-267.4c20.4-84.5,26.5-170.6,33.2-256.7
			c16.3-210.1,28.5-420.5,36.4-631.1c15.6-415.1,12.4-830-6.3-1244.9c-2.3-50.6-9.1-100.8-25-149.5
			c-24.5-75.2-74.4-122.1-152.4-137.1c-34.3-6.6-69.2-9.4-104.3-10.1c-82.8-1.6-165.7-3.7-248.5-6.2c-47.2-1.4-46-1.9-48.1,45.6
			c-2.8,63.3-26.7,114.9-87.4,143.4c-17.6,8.2-36.6,11.7-55.6,14.9c-40.7,6.8-83.1,3.7-122.2,19.1c-13.1,5.2-17,0.9-22.4-9.6
			c-17.5-34.1-17.9-33.9,19.9-45.1c4.8-1.4,9.6-2.6,14.5-3.7c33.5-7.6,68-7.7,101.9-12.4c54.2-7.6,83.1-30.4,94.5-76.3
			c4.9-19.5,5.4-39.5,4.6-59.6c-0.6-14.6-6-18.5-20.6-18.8c-143.5-3.4-287-9-430.6-11.4c-93.4-1.5-186.9-9.5-280.4,2.6
			c-119.7,15.5-199.8,77.7-237.6,192.7c-31.9,97.1-22.6,196.1-12.3,295.1c1.1,10.5,7.1,9.9,14.7,10c20,0.1,40.2-0.9,59.9,1.9
			c15.4,2.2,15.7-2.4,14.6-15.3c-5.7-69.9,17.3-129.1,68.9-176.7c24.3-22.4,23.8-21.5,43.2,5.7c9.8,13.8,8.3,20.6-4.9,31.6
			c-46.1,38.5-61.5,89.3-53.6,147.9c2.1,15.4,7.8,27.4,23.4,35.4c25.5,13,43.3,34.2,55.1,60.7c6.8,15.3,6.7,25.9-7.1,39
			c-86.8,82.3-145.1,181.4-168.1,299.4c-37.1,190.1,36.7,389.5,272.8,454.1c139.3,38.1,280.1,36.9,418.8-3.4
			c165.7-48.2,291.6-152.6,392.7-289.4c20.9-28.3,20.2-27.6,50.5-9.4c12.5,7.5,11.3,13,4,22.6c-15.6,20.4-29.6,42.1-46,61.8
			c-124.3,149.3-277.3,251.5-471.6,284.8c-11.5,2-16.6,6-19.9,17.6c-12.2,42.6-32.8,80.5-66.8,110.2c-51,44.4-121.2,50-169.7,13.4
			c-26.5-20-36.1-22.8-67-19.7c-2.1,0.2-4.3,0.4-6.4,0.4c-59.5,2.2-105.6-28.5-130.7-88.3c-5-11.9-8.8-16.9-22.7-11.3
			c-23.5,9.5-48.7,10.7-73.8,9c-62.2-4.2-92.4-52.3-69.6-109.9c8.2-20.8,19.8-39.8,34.4-56.4c8-9.1,9.5-14.4,1.2-24.7
			c-64.1-79.4-92.9-171.7-91.6-272.5c1.9-149.3,58.4-277.7,156.7-388.6c29.8-33.7,28.3-42-14-60.6c-8.5-3.7-17.4-6.5-26.2-9.1
			c-42.9-12.3-86.4-9.7-129.6-2.9C794,763,601.9,867.8,449.5,1043.8c-45,52-86,107.1-104.3,175.1c-28.9,107,15,183.9,121.9,210.4
			c80.2,19.9,161.1,37.2,241.7,55.6c50.1,11.4,99.8,24.3,152,21.4c75.4-4.1,127.4-56,118.5-119.9c-4.8-34.1-19.3-63.8-43.2-89.1
			c-39.6-41.8-91.1-63-143.2-82.8c-35.5-13.5-36.9-17.4-18.9-52.2c3.4-6.5,6.5-8.6,13.1-6.2c69.3,25.3,138.3,51.4,189.9,107.7
			c30.8,33.5,50,73.1,54.4,118.7c7.3,76.8-32.6,135.8-109.2,164.3c-5.8,2.1-14.9,0-16.7,10c-11.2,65.5-7.5,128.6,25.4,188.4
			c56.2,102.2,141.2,165.6,254,194.2c126.2,32.1,252.4,20.4,378.6,2.1c67-9.8,133.6-23.7,202-19.5c91.6,5.7,160.9,58.6,188.9,145.9
			c27.4,85.4,9.1,165.1-32.5,241.1c-30.6,55.8-68.2,106.5-119.3,150.6c13.6,4.4,24,8.4,34.8,11.1c52,13.1,104.3,11.7,157.2,4.7
			c97.6-12.9,155.5-68.2,168.9-165.1c12.2-87.9,13.9-176.5,13.7-265.1c-0.2-105.8-34.1-200.2-97.2-284.7
			c-22.5-30.2-21.9-30.2,10.5-52.3c7.5-5.1,11.9-5.6,17.6,1.9c58.9,77.2,103.5,160.7,115.7,258.8c13.8,110.7,4.7,221.2-5.6,331.4
			c-9.9,104.7-59.2,182.1-164.6,214.9c-12.3,3.8-9.6,10.9-7.5,19.8c10.9,47.7,8,95-5,141.9C2023.8,2739.1,1989.7,2791,1941.7,2838.1
			z M1347.8,2012.6c-19.4,0.9-50.8-1.6-82-4.8c-102.2-10.6-197.5-40.3-276.4-108.8c-98.7-85.6-157.5-189.3-137.8-325.4
			c1.7-11.8-2.1-15-13.4-14.8c-32.3,0.5-63.8-5.5-95.2-12.7c-31.9-7.3-64.3-20.3-96-19.1c-71.6,2.8-141.5,17.9-203.7,57.1
			c-110.6,69.7-129,189.6-44.4,289.2c28.1,33.1,61.8,59.6,100.1,79.4c149,77.1,302.3,144.4,462.2,195.6
			c126.8,40.6,256.4,62.5,390.2,48.3c32.6-3.5,65.4-7,98.1-8.1c56-1.9,109.5,7.9,156.5,41.3c38.2,27.1,60.8,63.5,64.8,110.7
			c1.4,16.4,2.4,32.8,4.2,49.1c2.7,24.1,15.5,37.4,39.3,41.1c25.2,3.8,47.4-4.8,64.9-21.6c67.3-64.6,118.7-138.9,133.6-233.4
			c16.3-104-43-186.4-144.4-200.4c-37.7-5.2-75.6-0.7-113,5.3C1557.4,1996.2,1459.5,2011.5,1347.8,2012.6z M981.5,2895.3
			c97.8,0.3,195.7-0.7,293.2-8.7c31.9-2.6,61.1-13.6,84.2-37.5c9.5-9.8,13.3-17.7,4.5-31.2c-11.3-17.4-16.8-38-18.3-58.8
			c-1.9-27.8-2.4-55.6-2.8-83.5c-0.5-41.6,5.3-35.6-36.6-36.1c-64.3-0.7-128.6-1.8-192.8-1c-129.2,1.6-258.4-6-387.5-0.2
			c-45.5,2.1-89.9,10.8-126,41.1c-36.5,30.8-56.5,70.3-48.1,119.2c8.1,46.8,42.8,68.4,84.5,81.3c36.4,11.3,74.1,15,112,15.2
			C825.8,2895.6,903.6,2895.3,981.5,2895.3z M1997.1,2631.7c-21.1,8.6-38.2,15.8-55.4,22.4c-66,25.4-133.1,41.7-204.9,31.7
			c-98.6-13.6-170.7-74.1-192.4-164.2c-6.6-27.2-8.8-55-7.6-82.9c2.1-46.4,5.7-92.7,7.6-139c2.1-51.3,2.6-47.2-44.4-55.6
			c-28.4-5.1-56.8-2.8-85.4-0.8c-14.3,1-17.9,5.7-17.9,19.2c0.3,67.1-0.3,134.3-0.5,201.5c-0.2,90-0.8,180-0.1,270
			c0.5,54.6,26.5,93.6,77.4,115c13.8,5.8,27.6,11.9,41.9,16c63.8,18.4,129,25.3,195,17.2c87-10.7,164.2-42.5,222.2-111.4
			C1965.8,2731.3,1988,2686.6,1997.1,2631.7z M1031.8,2586.8c97.2,0,194.3-0.4,291.5,0.4c16.2,0.1,20.4-4.4,20.4-20.3
			c-0.3-90,0.6-180.1,1-270.1c0.2-47.6,0.2-47.6-46.4-44.2c-0.7,0.1-1.4,0.1-2.1,0.1c-9.8-0.9-12.4,3.7-10.8,12.9
			c12.2,71.6-35.6,157.2-123.1,189.8c-53.4,19.9-108.6,22.8-164.6,17.9c-81.9-7.1-161.7-27.4-242.9-38.7
			c-75.8-10.5-151.2-12-224,15.8c-63.2,24.1-110.2,66-130.6,132.3c-20.7,67.1,17.2,142.5,79.1,162.4c13.7,4.4,20.8,4.1,25.5-12.8
			c15.2-54.5,50-93.6,100.9-118.6c33.8-16.6,69.9-24.1,107.2-27C819,2578.3,925.4,2587.2,1031.8,2586.8z M495.3,2407.3
			c33.6-12.3,64.3-21.4,96-26.4c64.2-10,128.1-5.4,191.8,4.9c11,1.8,18.1,0.3,25.2-9.7c38.9-55.5,78.4-110.6,118.2-165.5
			c7.8-10.7,8.9-15-5.8-20c-153.4-52.4-301.8-116.8-445.9-191c-10.5-5.4-14-3.6-18.3,7c-9.1,22.2-13.8,44.9-13.2,68.7
			c1,45.3,12.3,56.3,58,56.9c70,0.8,139.9,1.5,209.9,2.4c30.2,0.4,29.2,0.7,30.2,31.6c0.6,17.6-4,22.8-22.4,22.1
			c-65.6-2.4-131.3-2.4-197-4.2c-15.1-0.4-20.4,4.1-18.8,19.2c1.5,14.1,1.1,28.5,1.3,42.8C505.6,2298.9,501,2351.5,495.3,2407.3z
			 M922.7,305.2c19.7-0.6,50.5,1.5,80.6,6.7c19.1,3.3,27.4-1.3,35.1-18.9c6.4-14.5,1.8-16.4-10.1-18.8c-20.3-4-40.3-9.4-60.5-13.6
			c-81.5-17-163.4-28.3-246.1-10c-76.9,17-146.9,49.1-186.2,121.1c-59.7,109.5-49.7,221.2,4.4,330.1c21.1,42.4,55.7,73.2,98,95.8
			c19.6,10.5,31.9-1.8,43.7-10.9c10.9-8.4-2.6-17.5-6.6-24.8c-35.7-65.7-59.4-134.6-54.6-210.4c4.9-77.4,32.9-144.3,96.9-191.9
			C775,316.8,841.6,304.3,922.7,305.2z M1135.4,177.3c-38.7-8.4-73.3-16.3-108.2-23.3c-110-22-220.7-32.5-331.3-6
			c-160,38.3-265.4,138-305.5,296.8c-40,158.7,12.9,292.2,133.3,400.1c31.1,27.9,32,26.9,64.9,1.3c0.6-0.4,1.2-0.8,1.8-1.2
			c8.7-5.2,8.5-9.6-0.4-15c-21-12.5-39.2-28.6-55.6-46.7c-66.1-72.8-88.9-161.2-89.7-256.6c-0.6-72.7,12.9-142.5,58.2-202
			c68.4-89.8,164.1-126.5,272.9-134.3c84.2-6,166.8,7.3,247.6,29.7c36.1,10,65.3,11.4,88.4-22.8
			C1116.4,190.6,1124.6,186.3,1135.4,177.3z M913.1,356.6c-21.6,0.1-42.8,2-64.1,5.1c-97.8,14.4-159.9,75.8-174.1,172.9
			c-9.8,67.1,9,128.5,39,187.4c19.5,38.3,19.5,38.2,57.7,22c3.3-1.4,6.4-3.3,9.9-4.1c17.1-4,20.7-10.1,10.2-27
			c-25.7-41.5-31.4-87.3-17.1-133.8c26.7-87.1,89.5-132,177-147c14.7-2.5,34.2,5.1,42.9-5.8c8.7-11,6.8-30,11.3-44.9
			c4.2-13.8-1.3-17.8-13.7-18.6C965.7,360.9,939.4,358.6,913.1,356.6z M1597.8,2293.9c-4.3,62.9-11.6,119.7-7.9,176.9
			c5.4,83.5,47,134.5,125.3,156.8c28.4,8.1,57.4,10.2,86.9,7.9c63.1-4.9,119.8-30.1,177.4-53.2c19-7.6,18.6-18.4,16.2-34.8
			c-2.8-19.2-15-17.1-27.8-16.3c-6.4,0.4-12.8,1.4-19.2,1.7c-68.2,3.9-133.9-5.2-194.4-39.3c-11.5-6.5-22.8-9.7-36.2-10.1
			c-45.4-1.3-76.2-25.3-90.9-68.2c-7.3-21.4-6.4-43.6-7.8-65.7C1618.2,2330.9,1613.8,2313.5,1597.8,2293.9z M990.1,550
			c0-15.4-0.7-33.9,0.3-52.4c0.7-12.5-3.7-16.5-15.8-15.3c-36.1,3.5-69.9,12.9-98.9,35.8c-59,46.6-72.7,125.6-31.4,180.2
			c6.5,8.6,12.5,14.3,24.7,10.3c39.2-13.1,79.5-22,120.3-28.9c10.9-1.8,11.7-6.5,10.7-15.8C996.4,627.1,993.5,590.2,990.1,550z
			 M1031,2422.9c57.4,0,101.6-9.7,135.9-28.2c44.4-24,72-73.9,66.9-120.2c-1.6-14.2-5.3-23.1-22.9-23.8c-27.7-1.1-55.4-5.4-83-8.9
			c-6.9-0.9-12.3-0.8-17.6,4.2c-50.7,47.8-94.2,101.3-130.6,160.8c-6.1,10-1.8,12.1,7.6,12.7
			C1004.4,2420.6,1021.4,2422.2,1031,2422.9z M1576.3,1630.8c0,0.5,0,1.1,0,1.6c-5,0-10.2,0.9-14.9-0.1
			c-38.5-8.4-62.9,3.4-75.8,43.5c-8.1,25.4-10.7,29.9,11.6,45.2c12.7,8.8,26.5,13,42.1,12.7c47.4-1,90.2-47.4,104.4-94.5
			c2.9-9.6-4.2-8.4-9.7-8.4C1614.8,1630.8,1595.6,1630.8,1576.3,1630.8z M1053,2228.2c-16.7-4.3-30.9-6.8-44.2-11.7
			c-13-4.8-20.8-1.9-28.7,9.3c-22.6,32.1-46.6,63.2-69.6,95c-17.8,24.7-35,49.8-54.3,77.2c19.4,3.6,35.5,6.3,51.4,9.6
			c7.8,1.6,11.8-1.6,15.4-7.9C958,2337.9,1001,2282.1,1053,2228.2z M1379.6,1690.8c27.8,0.6,62.7-28.6,70.1-57.4
			c1.9-7.5-1.1-9.2-6.5-9.9c-40.5-5.3-79.4-17-118.6-28c-13.4-3.7-22.9,6.9-22.3,21.1C1303.6,1651.9,1344,1690.1,1379.6,1690.8z
			 M1263.9,1570.8c-21.3-13.6-40.3-24.8-58.4-37.4c-35.6-24.7-35.7-25-56.7,13.7c-2.7,5-5.1,10.2-7.1,15.5
			c-8.4,22.2-3.3,32.5,20.2,36.2C1198.8,1604.7,1231.7,1593.5,1263.9,1570.8z"/>
		<path d="M2135.1,1168c-32.9,0-65.7,0.3-98.6-0.2c-9.8-0.1-15.5,1.8-18.2,12.7c-39.6,161.5-148.4,259.6-297.4,317.3
			c-121.1,46.9-245.7,58-370.7,14.3c-119.3-41.8-181.4-129.8-198.5-252.9c-11.9-85.5,7.6-167.3,27.8-249.1
			c12.7-51.5,28.7-101.7,55.9-147.5c35.9-60.7,87-102.2,157-116c128.2-25.4,256.9-30.7,383.8,5.2c161.4,45.7,255,174.7,252.5,342.5
			c-0.3,18.3,4.5,22.4,22.1,22.1c59.3-1.1,118.6,0.4,177.8-0.9c18.5-0.4,24.5,5.6,21.6,22.8c-0.5,2.8-0.4,5.8,0,8.6
			c2.6,16.4-3.4,22.3-20.7,21.5C2198,1167,2166.5,1168,2135.1,1168z M1763,802.2c-9.7-1.6-15.8,4-22.4,8
			c-217.5,133.4-378.6,316.6-485.4,548.1c-5.9,12.9-5,22.1,4.3,32.6c29.5,33.4,65.4,56.7,107,72.6c16.9,6.5,23.6,4.1,30.8-14
			c94.9-237.6,257.5-413.3,486.9-526.8c37.8-18.7,38.2-18.5,7.2-48C1854.6,839.4,1811,815.9,1763,802.2z M1839.4,1006.2
			c10.4,8,19.8,14.5,28.5,21.9c57.4,49.2,63.4,123.7,13.6,180.6c-29.9,34.2-67.1,57.8-112,66.1c-64.2,11.9-128.1,3.4-191.5-7
			c-15.5-2.6-24.6-0.1-33.6,13.4c-36.6,54.8-68.3,112.1-92.9,173.2c-11.6,28.9-11.7,28.8,20.6,30.6c78,4.4,154-6.1,226.8-34.5
			c128.6-50.2,227.1-131.4,265.6-269.8c19.8-71.3,16.5-142.7-11-212.2c-2.7-6.8-2.1-18.6-16.4-12.2
			C1903.8,970.9,1871.2,986.6,1839.4,1006.2z M1526.6,899.8c-138.7,11.8-241.3,78.8-305,201.8c-35,67.7-22,138.3-3.9,208.8
			C1294.8,1153.6,1398.3,1017.8,1526.6,899.8z M1593.8,1217.5c44.4,6.8,85.9,10,127.8,10.5c50.8,0.7,91-19.8,123.3-57.8
			c24.2-28.5,24.4-60.4,0.7-89.4c-11.5-14-25.6-24.5-41.9-32.6c-12.8-6.4-23.2-5.7-35.2,3.5c-36.4,27.7-71.9,56.3-104.5,88.3
			C1639.7,1163.8,1616,1188.1,1593.8,1217.5z M1677.5,786.7c-6.9-1.7-10.2-3.1-13.6-3.2c-78.5-3.8-157-5.9-234.6,8.4
			c-98.8,18.2-170,89.1-181.7,179.3c2-1.2,4-1.9,5.5-3.2c92.2-89.3,202.5-129.6,330.4-122.1c6.5,0.4,12.4,0.1,18.1-4.1
			C1625.6,824,1649.9,806.7,1677.5,786.7z"/>
		<path d="M1409.6,215.6c61-0.3,117,38,137.5,102c21.4,66.8-6,142.7-66.3,184.2c-23.1,15.9-48.3,27-75.6,34
			c-13.8,3.6-20.9,1.9-22.3-14.8c-2.5-31.1-3.4-30.8,26.6-41.3c25.3-8.8,47.7-22.4,65.2-43.1c29.6-35,35.6-85.6,14.7-121.9
			c-20.2-35-66.6-54-111.7-45.8c-25.6,4.7-49.6,13.8-70.2,29.8c-10.8,8.4-16.2,5.9-24-3.7c-24.1-29.8-24.4-29.5,9-49.3
			C1325,226.5,1359.6,214.5,1409.6,215.6z"/>
	</g>
</g>
</svg>
