<?xml version="1.0" encoding="utf-8"?>
<!-- Generator: Adobe Illustrator 23.0.0, SVG Export Plug-In . SVG Version: 6.00 Build 0)  -->
<svg version="1.0" xmlns="http://www.w3.org/2000/svg" xmlns:xlink="http://www.w3.org/1999/xlink" x="0px" y="0px"
	 viewBox="0 0 3000 3000" style="enable-background:new 0 0 3000 3000;" xml:space="preserve">
<style type="text/css">
	.st0{stroke:#000000;stroke-width:10;stroke-miterlimit:10;}
</style>
<g id="Layer_1">
</g>
<g id="Layer_2">
	<g>
		<path class="st0" d="M633.4,2286.6c-149.8,69.4-292.6,61.7-420.6-39.3C85.5,2146.7,41.8,2010,78.5,1852.1
			c34.4-148,164.4-263.9,311.5-285.8c122.3-18.3,234.2,69.8,254.7,200.4c0.3,1.8,0.6,3.6,0.6,5.4c-0.5,31.3,13,49.6,41.5,67.1
			c95.3,58.5,127.6,185.4,81,297.9c-3.5,8.3-7.3,16.5-13.1,29.7c36.6-24.1,69.1-46.2,102.3-67c35.8-22.5,35.2-21.8,25.3-63.6
			c-38.3-161.1,7.7-298.2,120.8-415c42.4-43.8,86.7-85.7,130.1-128.7c8.2-8.1,15.8-16.9,28.1-30.1c-48.2,9-90.2,13.6-132.5,3.7
			c-59.2-13.9-110.7-41.4-151.7-86.5c-56.7-62.3-67.1-141.3-31.6-218c21.9-47.3,55.1-85.3,93.4-119.6c5.9-5.3,14.2-8.5,17.2-18.2
			c-115.7-28.6-236.9-49.3-282.3-186.6c-5,0.1-5.3,6.3-7.1,10.8c-41.4,99.9-119.2,150.6-223.6,163.8c-53.6,6.8-107.1,4.4-159.8-9.7
			c-62.3-16.7-110.1-53.9-130.4-114C105,747,88,601.7,132.3,456.6c36.5-119.5,116.8-195.7,245.5-210
			c171.5-19.1,316,125.9,302.7,297.9c-3.2,41.3,8.1,83.6,14.9,126c24.4-53.5,52.2-104,89.5-149c174.7-211.2,476.8-250.4,699.1-89.4
			c16.5,12,27.3,13.2,44.9,1.8c109.6-71.5,231.9-108.5,360.4-124.7c254-32,507-18.8,758.1,26.6c140.2,25.4,217.5,103.8,240.5,236.8
			c11.6,67.3,11.5,136,12.4,204.1c3.2,236.7-1.7,473.2-14.7,709.6c-2.1,38.9,4.7,77.8-4.1,116.8c-17.8,78.9-59.8,143.6-113,202.5
			c-26.2,29-51.1,59-75.7,87.5c11.6,6.4,32.7,16.4,52,29c93.2,60.9,145.9,150.6,176,254.8c28.5,98.5,35.7,199,15,299.8
			c-33.4,162.8-141.2,253-307,262.4c-64.6,3.6-129.1,3.8-193.8,3.2c-298.6-3.2-597.1-5.9-895.7-9c-179.3-1.9-358.6-3.6-537.9-6.8
			c-79.4-1.4-158,9.4-237.1,11.8c-32.9,1-65.6-1.3-97.9-6.3c-87.6-13.6-134.8-74.4-130.3-169.2c4.4-91,32.8-174.6,82.9-250.8
			c4-6.1,8.4-11.9,12.4-17.9C632.5,2292.6,632.5,2290.7,633.4,2286.6z M2840.8,1388.5c3.8-0.7,7.6-1.5,11.5-2.2
			c0-78.2-1.5-156.4,0.3-234.5c4.2-182.9,8.5-365.9-7.1-548.4c-8-94.3-49.5-168.7-143.2-204.4c-31.4-12-64-20.2-97.3-25.5
			c-191.2-30.9-383.6-40.9-576.8-31.8c-130.5,6.1-258.8,25.9-379.7,79.4c-174.1,76.9-361.8,236.5-338.5,528.6
			c5.3,66.2,5.8,132.7,7.4,199.1c2.2,88.5-9.5,174.2-54.3,252.8c-34.6,60.8-83.5,109.3-132.5,158.1c-52.1,52-109.7,98.9-150.9,161.1
			c-68.7,103.9-82.3,215-44.8,334.5c7.8-3.5,13.6-5.8,19.2-8.6c125-62.4,255.7-109.1,391.4-142.1c131-31.8,263.7-53.7,398.4-62.1
			c22.6-1.4,35.9-5.8,39-32.7c3.6-31.5,15.2-62,31.8-89.3c10-16.5,6.8-23.9-9.5-32.5c-59.5-31.2-118.9-62.8-177.3-96.1
			c-80.9-46.1-120-117.2-107.9-209.4c11.8-89.9,62-155.8,147-191.5c12.9-5.4,16.1-10.9,14.7-23.3c-6-56.4-2-112.8,1.4-169.1
			c10.9-182.7,104.5-297,282.5-341.7c117.2-29.4,236.2-29.6,355-11c118.3,18.6,197.5,86,236.8,199.8
			c23.4,67.8,25.7,137.4,18.2,207.6c-4.2,39.7-12.4,78.9-17.9,118.5c-1.6,11.4-7.1,23.9,12.1,29.9
			C2678.9,1236,2772.7,1293.6,2840.8,1388.5z M2113.1,1875.3c-185.1-2.9-369.4,5.5-552.5,33.1c-230.1,34.7-450.4,100.3-654.2,215.1
			c-103.2,58.2-198.3,127.1-260.1,231.4c-43.8,73.9-70.6,153.7-61.9,241.5c4.9,49.7,31,77.4,79.1,87.8
			c66.8,14.3,133.7,6.2,200.8,2.1c16.5-1,17.8-12,20.9-23.3c16.8-61.1,43.5-117.6,80.7-168.9c93-128.6,217.2-213.5,368.8-257.6
			c261.2-75.9,528.1-100.3,799.2-86.1c101.8,5.3,199.8,24.7,292.3,69.4c105.1,50.9,180.2,128.4,216.1,240.4
			c21.7,67.6,25.2,137.7,16.7,208c-2.3,18.7,1.1,21.1,19.1,17.6c100.8-19.4,169.6-74.9,201-174c32.2-101.2,28.6-203.1,2.7-304.3
			c-44.3-173.7-148.8-282.8-333.1-306.2C2404,1883.1,2258.6,1880.2,2113.1,1875.3z M2322.4,1193.8c59.4-15.7,116.3-17.4,173.5-9.4
			c11.8,1.7,14.4-4.7,15.8-13.3c13.8-82.5,29-164.6,17.8-249.2c-15.6-117.9-86.5-204.7-196.9-227.1
			c-127.4-25.9-255.7-24.2-380.7,13.3c-120.3,36.1-198.9,114.3-217.8,243c-11.4,77.7-13.5,156.2-5.9,234.2
			c11.9,122.1,71.4,189.1,183.7,213.4c45.7,9.9,92.1,7.8,138.5,8.7c38.1,0.7,65.6-5.2,75.9-48.3c4.4-18.4,19.1-34.9,30.7-51
			c30.3-42.2,71.4-71.9,117.7-96.2c-46.3-19.9-61.8-43.8-48.9-73.6c9.6-22.1,34.9-26,72.5-11.1
			C2328.8,1139.2,2336.2,1157.3,2322.4,1193.8z M2459.6,1225.6c-123.6,0-199.9,32.5-256.3,97.3c-102.5,117.8-61.2,287.6,82.8,336.3
			c58.8,19.9,115.9,15.2,162.7-30.1c45.2-43.8,28.4-113.9-31.2-133.1c-24.5-7.9-14.9-27.5-14.5-40.3c0.3-11.9,16.5-5.9,25.1-4.1
			c74.1,14.9,114.6,110.1,76.4,178.5c-31.9,57.1-105.8,92.4-177.2,84.4c-84.6-9.5-147.6-52.6-192.1-124.1
			c-7-11.3-12.6-19.3-29.2-17.9c-134.8,11.3-251.3,112.8-278.7,243.3c-3.4,16.4-0.8,20.5,16.3,19.7c53.6-2.7,107.3-5.2,161-5.3
			c189.3-0.1,379,0,566.2,30.6c49.6,8.1,80.4-3.6,113.8-36.2c55.2-53.7,107.8-108.4,136.9-181.4c35.2-88.2,28-172.2-32.7-246.4
			C2697,1284.4,2573.9,1233.9,2459.6,1225.6z M456.2,2285.3c17.9,1.3,38.8-1.2,59.1-5.8c105.2-23.9,186.4-78,218.8-186.1
			c33.6-112.1-25.8-218.5-132-242.4c-78.9-17.8-154.2,28.6-168.3,103.7c-11.3,60.4,46,119.4,105.5,104.5c27.6-7,34.6,9.7,37.8,25.2
			c3.8,18.5-17.6,17.5-28.9,19.8c-94.6,19.8-179.2-69.2-157.5-164.7c19.4-85.2,98.1-142.7,187.7-137.4c9.8,0.6,23.7,9.5,23.5-13.3
			c-1-103.3-98.8-190.2-201-177.5c-163.6,20.4-296.1,177.7-289.5,343.7C118.8,2142.4,266.5,2285.2,456.2,2285.3z M645.6,659.7
			C579.7,742,541.4,769.9,475.5,785.6c-98.1,23.5-198.7-28.4-224.8-116.1c-2.3-7.8-10.3-20.7,4.7-20.9c12.2-0.2,29.9-19.7,38.1,6.2
			c22,69.3,99.2,106.7,178.2,84.6c114.9-32.1,185.8-155.2,157.6-271.7c-29.3-121.1-148-198.1-267.2-173.4
			C257.7,315.8,197.5,385,171.4,483c-34.4,129.5-17.7,258.2,21.4,384.3c10.2,32.9,33.3,58.2,63.9,75.5
			c77.1,43.7,230,33.6,299.6-21.4C640,855.2,649.8,762.7,645.6,659.7z M1357.6,2277.1c62.4,48.2,118.5,94.5,165.8,150.1
			c60.1,70.5,103.5,149,115,242.5c1.7,13.6,5.7,18.8,19.8,18.9c123.8,0.7,247.5,1.8,371.3,3.2c14.5,0.2,18.6-4.3,16.7-19.2
			c-23.7-187.6-108.8-340.8-255.8-459.9c-11.6-9.4-23.2-12.6-37.7-10.5c-44.1,6.3-88.5,10.5-132.4,18.1
			C1533.8,2235.2,1447.5,2252,1357.6,2277.1z M1260.1,2680.2c0,2.3,0,4.6,0,6.9c103.7,0,207.4-0.5,311.1,0.4
			c19.7,0.2,24.6-4,21-24.5c-11.5-66.2-40.6-124-80-177.2c-54.3-73.3-126-128-196.6-184c-9.6-7.6-17.7-4.8-27.7-1.1
			c-53.2,19.8-102.3,47.4-147.6,81.1c-96.5,71.7-169.4,161.2-206.9,277.3c-5.5,17-3.5,21.6,15.6,21.5
			C1052.7,2679.7,1156.4,2680.2,1260.1,2680.2z M1159.8,695.4c24.6,0,49.8-3.7,73.5,0.8c47.4,8.9,80.1-2.4,92.9-52.5
			c1.7-6.8,6.7-12.9,10.9-18.8c9.4-13.4,11.9-20.1-9.9-22.6c-85.7-9.5-170.8-7.9-254.7,12.3c-24.1,5.8-21.7-9.5-26.6-22.4
			c-6.4-17.2,3.2-19.7,16.5-22.7c87.9-19.6,176.8-25.3,265.6-11.8c36.3,5.5,63.8,3.4,85.6-29.7c10.2-15.5,26.4-27.6,41.2-39.5
			c12.9-10.3,9.8-15.5-2.1-23.6C1170.5,273,817.3,418.6,729.1,723.8c-5,17.2-2.8,22,17.1,17.3C882.1,708.5,1020,692.3,1159.8,695.4z
			 M1849.2,2199c1.6,2.5,2.5,5.2,4.4,6.9c138.1,127.3,218.6,283.9,238.3,471.1c1.5,13.9,8,16.1,19.4,16.1c87.4,0.5,174.8,1,262.1,2
			c14.4,0.2,18-3.2,15.6-18.5c-26.9-171.7-94-325.8-199.5-463.6c-7.8-10.2-17-14.6-29.9-15.4c-92.8-5.7-185.6-6.4-278.4-3.9
			C1870.7,2194.2,1859.5,2192.3,1849.2,2199z M1267.2,1106.1c0-31.8-0.7-63.6,0.3-95.3c0.6-18.2-4.4-21.3-21.7-15.4
			c-64.8,22.3-132,32.4-200.5,33.3c-6.3,0.1-12.7-0.7-18.3,3.4c-59.5,42.7-116.6,87.6-144.3,159c-22.3,57.6-16.1,111.5,27.6,156.7
			c63.3,65.5,139.3,91.5,230.3,71.3c59.2-13.1,96.2-44.8,112-105.1C1270.8,1245.4,1275.1,1176.3,1267.2,1106.1z M1152.2,742.6
			c-139-4.5-275.7,13.7-410.7,45.9c-18.7,4.5-25,11.9-21.8,31.9c7.9,49.7,37.5,82.9,79.8,104c146.4,73.2,296.9,74.8,449.9,22.1
			c9.9-3.4,14.3-8.9,13.9-20c-2.2-55.8,3.8-111,16.3-165.2c4-17.4-3.6-18.6-15.6-18.7C1226.8,742.4,1189.5,742.6,1152.2,742.6z
			 M1562.7,1408.6c2.7,61.9,28.7,109.6,82,139.9c63.2,35.8,127.8,69.1,191.1,104.7c13.9,7.8,20.1,3.4,29.1-6.8
			c50.4-56.8,113.1-93.1,186.9-111.1c17.5-4.3,42.9,1.2,50.9-12.6c7.4-12.7-3.4-34.8-2.5-52.6c0.9-17.9-5.2-21.6-21.6-19.8
			c-44.4,4.9-88.9,4.7-133.4-0.4c-121.1-14-223.3-76.5-252.6-201c-4-16.9-11.5-17.3-24.2-9.9
			C1602.6,1276.9,1567.8,1333.9,1562.7,1408.6z M2247.5,2210.7c0.4,1.7,0.2,3.8,1.1,5.1c99.5,140.3,162.2,295.4,187.1,465.6
			c1.8,12.1,7.2,14.8,17.7,14.7c46.3-0.5,92.7-0.8,139-0.8c12.3,0,17-4.8,19.2-17.2c4.9-27.1,5.2-54.2,5.1-81.5
			C2616.5,2379.2,2471.2,2250.2,2247.5,2210.7z"/>
		<path class="st0" d="M658,1247.9c-2.4,33.3-1.3,65.2-7.8,96.7c-19.9,95.5-81.7,152.4-178.5,165.2c-42,5.6-83.8,4.3-125.2-1.1
			c-51-6.7-100.9-8.4-151.5,3.4c-37.6,8.7-74.3-9.1-93.9-40.6c-19.6-31.5-17.6-66.3,8.1-99c36.7-46.8,84.3-82.8,127.1-123.5
			c49.4-47,99.6-93.3,160-126.7c36.4-20.1,74.9-33.5,116-37.2c70.8-6.4,147.7,27.6,145.7,118.1C657.7,1218.6,658,1234.1,658,1247.9z
			 M613,1247.2c0-12.7,0.4-25.5-0.1-38.2c-1.9-55-29.9-81.3-85-78.8c-32,1.5-62.5,9.1-91.8,23.1c-66.9,32.1-119.4,82.7-172.3,132.5
			c-39,36.7-81.2,70.3-116,111.4c-12.7,15-19.8,31.9-7.7,49.7c12,17.7,28.6,25.9,51.4,19.8c41.7-11.1,83.9-13.3,127-7.4
			c45,6.2,90.4,10.5,136,6.6c85.6-7.3,140.2-55.4,151.4-134.6C609.9,1303.5,613.9,1275.5,613,1247.2z"/>
		<path class="st0" d="M2075.9,1010.9c-0.2-50.7,24.9-80.4,68-80.4c44.6,0,75.7,29.6,75.3,71.7c-0.4,42.4-34.4,75.8-76.9,75.4
			C2102.4,1077.4,2076,1050.8,2075.9,1010.9z M2143.3,1031c18-1.9,30-10,30.7-28.8c0.7-19-13.7-25.9-28.4-26.5
			c-23.6-1-22.8,19.2-24.5,35.1C2119.1,1027.3,2131.2,1029.9,2143.3,1031z"/>
		<path class="st0" d="M1977.5,820.8c39.9,1.1,68.5,21.8,67.1,48.5c-1.2,23.7-25.2,40.7-55.6,39.5c-33.5-1.4-53.2-21.4-51.9-52.8
			C1938.1,830.7,1950.4,820,1977.5,820.8z"/>
		<path class="st0" d="M1980,1281.3c-16-2.6-37.5-3.3-47.1-26.7c-6.9-16.8-8.4-33.8,2.7-49c11.3-15.6,27.8-14.5,44.4-10.3
			c5.2,1.3,10.7,1.9,15.9,3.3c26.8,7.6,43.4,27.4,40,47.3C2032.2,1266.2,2010.7,1281,1980,1281.3z"/>
		<path class="st0" d="M2343.9,903.3c-18.3-0.8-38-7.4-47-31.4c-13.1-34.5,6.5-60.3,42.7-56.2c7.1,0.8,14.2,2.8,21.1,4.8
			c29,8.5,44.2,25.5,41.3,45.8C2398.9,887.9,2376.9,903.2,2343.9,903.3z"/>
	</g>
</g>
</svg>
