<?xml version="1.0" encoding="utf-8"?>
<!-- Generator: Adobe Illustrator 23.0.0, SVG Export Plug-In . SVG Version: 6.00 Build 0)  -->
<svg version="1.0" xmlns="http://www.w3.org/2000/svg" xmlns:xlink="http://www.w3.org/1999/xlink" x="0px" y="0px"
	 viewBox="0 0 3000 3000" style="enable-background:new 0 0 3000 3000;" xml:space="preserve">
<style type="text/css">
	.st0{stroke:#000000;stroke-width:10;stroke-miterlimit:10;}
</style>
<g id="Layer_1">
</g>
<g id="Layer_2">
	<g>
		<path class="st0" d="M1457.5,474.6c226.4,4.9,423.7,15,617.3,62.1c236.7,57.5,451.2,157,626.7,330.1
			c197.2,194.6,267.9,431.3,230.8,703.2c-23.6,173.4-80.5,333.8-188.3,473.2c-114.9,148.6-266.5,239-450.7,274.5
			c-16.1,3.1-33,3.5-49.5,3.2c-86.4-1.6-138.6-57.6-134.5-143.8c1.5-31.4,9.5-58.7,31.6-84.3c59.5-68.8,105.4-145.8,123.7-236.7
			c20.1-100.1-9.4-186.4-74.1-262.1c-59.6-69.7-133.1-122.2-217.9-155.3c-55-21.5-116.1-18.5-174.6-23.7
			c-139.3-12.2-278.6-13.4-418.4-2c-209.4,17-354.5,117.9-433.3,313.9c-41.7,103.8-69,212.5-111.5,316
			c-17.7,43.1-34.5,86.6-59.4,126.2c-69.1,109.8-169.8,125.6-265.4,38.4c-28.4-25.9-57.7-41.9-94.6-52.4
			c-127.2-36.2-188.2-143.8-162.1-284.2c5.3-28.2-2.6-36.7-26.9-45.6C151.4,1797.8,93.8,1751.9,79,1668
			c-8.7-49.8,5.4-96.4,24.9-141.7c3.8-8.7,12.7-16.4,3-27.9c-45.3-53-46.1-115.7-35.9-179.5c7.2-45,21.5-87.6,46.2-127.3
			c231.6-372.3,557.5-608.6,991.3-688.9C1233.1,479.7,1359.5,474.3,1457.5,474.6z M172.9,1753.1c14.3,8.6,24.5,15.6,35.5,21
			c13.9,6.8,28.7,11.8,42.6,18.6c12.8,6.2,17.2,2.4,24.4-10.2c141.6-244.3,326.6-450,553.2-618.5c15.3-11.4,21-7.3,31,5.8
			c14.7,19.1-2.7,23.1-12,29.9c-180.5,134-333.9,293.9-460.7,479.4c-6.8,9.9-19.6,17.9-0.2,31.7c81.3,57.9,100.2,137.8,58.4,228.8
			c-20.3,44.2-50.2,81-85,113.6c-18.1,17-13.5,24.7,4.1,36.1c23.9,15.4,50.1,24.1,76.7,32.8c22.7,7.4,32.8,4.2,40-22.3
			c72.2-263.5,207-490.6,401.6-682.2c9.7-9.6,16.9-23.1,33.9-5.2c16.2,17.1,4.9,23.4-5.8,33.6c-120.4,116.2-216.2,250.4-291.4,399.5
			c-5.7,11.4-11,19.1,5.1,29.6c56.5,36.9,74.8,90.9,63,156.3c-11.6,64.4-50,112.8-95.4,156.2c-18.1,17.3-13,22.5,7,29.4
			c41.2,14.2,83.3,3.5,114.8-32.7c51.4-59.2,75.8-132.5,102-204.2c30.6-83.5,54.9-169.4,87.4-252c65-165.1,169.4-291,351.8-333.2
			c5.8-1.3,16.4-3,12.9-9.3c-12.3-22,8.2-26.9,17.6-36.3c32.9-32.6,58.9-69.5,75.3-112.8c6-15.8,9.3-28.4,31.6-20.4
			c25.4,9.2,9.2,23.6,5.4,34.3c-17.7,49-47.9,90.6-88.7,132.1c131.2-17.7,255.9-23.2,381-14.7c6,0.4,10.1-1.3,15.5-6.4
			c42.1-39.4,72-85.5,79.5-143.4c2.2-16.8,6.3-23.1,24.6-21.7c23,1.8,16.6,15,14.9,28.1c-7.1,54.8-33.7,100.8-68.1,143.9
			c18.5,7.6,35.3,6.4,51.7,7.6c56.7,4.4,116.6,1.8,168.4,22.4c43.2,17.2,66.8,1.4,94.2-21.6c20.1-16.8,36.9-37.2,46.4-61.4
			c7.7-19.5,18.3-17.6,33.2-11.3c20.7,8.8,6.2,20.5,2,29.7c-19.5,43.6-53.4,74.7-94,102.1c72,43,135.6,92.2,183.1,159.4
			c9.6,13.6,15.8,6.7,24.2-0.6c33.9-29.1,64.5-61.5,92.6-96.1c13.6-16.7,22.1-5.9,33.2,1.5c15.2,10.1,3.6,16.9-2.5,24
			c-29.5,34.8-59.8,69.1-95.1,98c-16.8,13.7-21.2,24.7-11.4,46.3c28.3,62,33.3,127.5,20.6,194.4c-18.8,98.7-70.2,180.3-132,256.8
			c-24.7,30.5-29.1,84.2-10.1,119.4c16.1,29.9,58.3,47.2,100.2,42.7c15.1-1.6,18.3-7.2,16.9-21.9c-2.2-22.6-3.5-45.8-0.9-68.2
			c11.3-96.5,61.6-166.7,151.2-203.7c83.3-34.3,162.4-20.5,233.1,36c29.9,23.9,29.6,24.6,53.1-6.9
			c102.4-136.8,157.3-292.2,179.3-460.3c33.8-258-35.9-481.3-223.3-664.8c-178-174.4-396.2-270.9-636-323.8
			c-229.1-50.5-461.7-58.2-695.1-50c-264.9,9.3-512.5,77.6-736.2,223.5c-61.1,39.9-119.5,83.3-175.8,135.3
			c17.1,2.1,25.5-6.9,35-11.9C829.6,675,1217.9,569.3,1633,574.8c227.9,3,447.4,49.3,656.4,143.1c333.8,149.8,513.7,408,547.5,770.4
			c1,11.2,7.9,25.1-14.4,25.1c-16.2,0-25.1-2.4-24.5-21.2c0.4-12.2-3-24.6-4.6-36.9c-44.7-364.6-249.2-600.5-587.1-729.2
			c-13-5-19.6-5.3-23,11.9c-24.2,122.1-101.1,199.2-215,239.9c-117.5,42.1-237,31.3-354.8,0c-131.4-35-186.2-140.2-145.6-271
			c9.5-30.6,25.8-58,39.5-86.5c-3.1-2.1-4.7-4.1-6.4-4.1c-8.3-0.1-16.6,0.1-24.8,0.5c-176.5,9.7-348.6,44.6-518.5,91.7
			c-178.2,49.4-347.3,121.4-509.6,209.7c-9.8,5.4-21.4,18.4-29.5-1.6c-10.4-25.6-20.5-12.8-32.4-1.2
			c-88.7,86.5-163.7,183.7-230,288.2c-24.4,38.5-40.2,79.5-46.2,123.8c-6.3,46.4-8.9,93,18.6,135.3c11.2,17.2,20.4,19.3,34.3,1.6
			c38.5-49.3,67.3-104.5,95.7-159.5c55-106.7,133.4-179.5,253.6-210.3c108-27.7,195.6-92.6,262.4-183.1
			c9.6-13.1,16.3-26.3,35.9-11.7c20.9,15.5,2.9,25.3-4.1,35c-79.4,109.5-188.9,175-316.9,210.7c-67.5,18.8-119.2,56.1-156.1,114.6
			c-18.7,29.7-34.9,61.1-53.7,90.7c-9.5,15-10.1,20.3,9.3,27.2c48.1,16.9,71,54.3,73.8,104.5c3.1,54.1-20.6,98.2-53.3,138.6
			C270.3,1669.3,223.6,1710.3,172.9,1753.1z M1696.6,619c-132.5-18-164.9,0.7-193.8,110c-3.2,12-5.6,24.2-7.2,36.5
			c-9,69.3,24.1,136.3,87.4,159.3c130.9,47.6,264.7,60.5,396.8,5.7c86.1-35.7,142.9-100.8,164-193.4c3.1-13.6,10.8-30.7-12-38.5
			c-110.4-37.9-223.9-60.8-345.4-74c28.1,26.9,30.4,56.2,27.8,86.9c-0.8,9.3-1.7,18.6-1.4,27.9c1.1,34.1,22.4,46.3,51.7,28.7
			c16.8-10.1,31.2-24.1,48.1-34c51.1-30,108.9,3.4,109.8,62.6c0.7,45-30.5,85.6-82.7,99.9c-72,19.6-144.2,16.6-212.5-14.6
			C1606.1,826.9,1590.9,703.5,1696.6,619z M2315,2219.1c0,6.2-0.4,12.4,0.1,18.6c2.6,35.3,4.8,37,38.4,26.3
			c103.8-33,197.9-83.4,279.1-156.5c32.5-29.3,32.5-32.4-3.9-58.8c-61.4-44.6-127.7-52.6-196-19.3
			C2354.5,2067.5,2318.5,2133.9,2315,2219.1z M116.2,1637c1.5,24.5,5.7,45.4,14.6,65.6c7.7,17.5,15,21.4,31.3,7.8
			c44.4-37.4,86.2-77,122.5-122.3c19.6-24.5,33.7-51.9,38.4-83.4c5.6-37.7-10.1-72.5-39.9-86.7c-20.9-10-38.5-10.6-50.9,14.9
			c-15.5,31.7-37.1,60.4-64.5,82.4C127,1547.9,121,1593,116.2,1637z M1858,866.2c9.2,0,22.8,1.4,36-0.3
			c34.7-4.3,67.3-13.3,84.9-48.2c9.2-18.2,5.3-34.2-8.9-47.9c-14.2-13.6-28.2-8.3-41.9,1.5c-15.9,11.5-31.1,24.3-48.1,33.8
			c-52.7,29.4-105.1-1-106.6-60.9c-0.3-13.4-0.3-26.9,0.1-40.3c0.6-18.4,5.2-38.2-17.8-47.6c-22-9-40.4-1.1-57.3,12.7
			c-49.2,40.5-45.1,109.5,10,154.8C1750.5,858.6,1800.6,868.2,1858,866.2z M287.4,1927.1c-0.9,33.7,6.2,65.7,19.3,96.5
			c4.4,10.4,8.8,19.4,21.3,6.7c42.4-43,82-87.5,94.8-149.4c11.4-55.1-9.2-107.4-52.9-135.3c-14-8.9-21.5-8.3-31.6,6.9
			C302.6,1805.7,290,1864.8,287.4,1927.1z M651.1,1994.9c-2.5-31-9.7-63.3-42.1-83.4c-8.3-5.2-15.6-10.9-21.6,3
			c-31.6,74.1-58.3,149.8-77,228.3c-4.4,18.6,13.6,23.5,23.1,32.6c10.2,9.9,15.9-3.1,22.4-8.3c24.1-19,43.3-42.7,60.2-67.9
			C636.4,2068.9,651.3,2036.2,651.1,1994.9z"/>
	</g>
</g>
</svg>
