<?xml version="1.0" encoding="utf-8"?>
<!-- Generator: Adobe Illustrator 23.0.0, SVG Export Plug-In . SVG Version: 6.00 Build 0)  -->
<svg version="1.0" xmlns="http://www.w3.org/2000/svg" xmlns:xlink="http://www.w3.org/1999/xlink" x="0px" y="0px"
	 viewBox="0 0 3000 3000" style="enable-background:new 0 0 3000 3000;" xml:space="preserve">
<style type="text/css">
	.st0{stroke:#000000;stroke-width:10;stroke-miterlimit:10;}
</style>
<g id="Layer_1">
</g>
<g id="Layer_2">
	<g>
		<path class="st0" d="M2422.1,1075.7c10.1,131.7,8.7,263.5,10,395.2c1,94.9,0.3,189.9-23.4,282.7
			c-25.7,100.6-57.2,198.8-127.1,279.3c-7.6,8.7-1.1,12.7,3.4,17.8c55.4,64.5,90,138.7,104.2,222.5c8.4,49.2,8.1,98.3-2.7,147.2
			c-15,68.2-53.9,118.5-116.1,148.7c-56.5,27.5-101.7,66.7-140.1,115.8c-38.2,48.9-82.4,90.5-145.8,105.8
			c-107.8,26-214.4-29-254.2-132.7c-5.3-13.8-11.6-18.9-26.6-18.7c-27.2,0.2-53.6-6.3-78.7-16.6c-8.7-3.6-13.6-3.9-18.6,5.9
			c-64.6,126.2-176,185.7-308.7,212.6c-87,17.6-173,11-256.5-20.6c-9.1-3.4-15.1-3-22.8,3.9c-71.2,63-154.5,98.2-249.7,98.7
			c-96.2,0.6-185.6-22.3-255.6-94.4c-54.3-55.9-77.9-125.2-87-200.9c-10.5-86.6-1.4-172.3,9.8-257.9
			c23.1-177.5,58.7-353.1,83.4-530.4c20.2-144.6,27.4-289.8,6.9-435.2c-1.3-9.1-2.2-15.9-13.9-17.5
			c-68.5-9.4-128.9-57.2-132.8-156.9c-3.3-83.3,11.4-162.7,61.2-232.4c45.3-63.5,72-134,79-211.9c3.6-40.2-0.4-80.3-2.8-120.3
			c-8.3-137.9,87.5-233.2,225.5-251.5c60.3-8,119.6-1,178.7,9.6c14,2.5,19.3-0.9,25.8-12.4c115.4-205.6,291.9-320.9,524.8-347.8
			c153.5-17.7,307.4-16.4,460.3,10.6c117.1,20.7,228.6,55.8,326,127.1c49.7,36.4,89,81.7,119.5,135.1c21.4,37.5,24,78.9,25.7,120.4
			c6.7,159,13.3,318,19,477.1C2423.6,980.9,2422.1,1028.3,2422.1,1075.7z M981,2793.3c-6.1-4-10.3-6.8-14.6-9.5
			c-143.4-89.1-215.2-244-187.8-410.4c4.4-26.7,5.3-42-23.5-56.8c-38-19.5-49.6-59.6-52.4-100.6c-4.4-63.2,0.2-126.4,0.8-189.6
			c0.1-9.6-0.9-15.5-12.1-18.2c-43-10.1-69-39.4-77.6-80.8c-12.8-61.8-2.8-119.3,45.6-165c5.8-5.5,8.4-8.7,1.1-15.2
			c-60.6-53.8-38.1-174.6,68.6-194c12.3-2.3,16-7,17.6-18.6c5.2-39.1,11.1-78.2,17.8-117.1c8.3-48,8.8-48.1-36.6-67.3
			c-26-11-50.6-11.4-73.8,8.2c-19,16-41.8,24.8-66.4,28.3c-10,1.4-14.8,3.4-13.1,15.8c21.4,157.3,12,314.3-11,470.4
			c-26.4,179.5-62.5,357.5-84,537.8c-9.4,78.6-15.9,157.2-2,236.1c19.8,112.5,81,187.6,193.8,217c41.7,10.9,84,13.6,126.7,9.1
			C866.9,2865.7,926.5,2837.5,981,2793.3z M1102.9,1063.2c-3.9-8.1-6.3-13.3-8.9-18.4c-60.6-119-79-244.6-57.9-376
			c62.7-391.2,530.8-623.3,890.6-387.1c85.3,56,153.3,128.1,201.5,218.4c4.5,8.5,7.7,15.3,20.4,12.2c65.6-15.9,131.6-16.3,197.4-1.6
			c8.4,1.9,10.7,0,10.2-8c-2.2-32.8-1.2-66.2-7-98.4c-11.2-62.1-51-107.5-97.2-146.8c-78.2-66.4-171.9-101-270.2-123.9
			c-172.1-40-346-41.3-520.4-20c-159.6,19.4-293.7,89.3-398,212.2c-95.4,112.5-145.4,244.5-158,390.6c-6.9,80.1,3.9,157.7,43,229.6
			C981.6,1007.4,1033.6,1043.9,1102.9,1063.2z M980.3,2092.4c0-10.3-0.3-17.4,0-24.5c6.8-152.7,130.5-270,280.3-265.9
			c37.6,1,37.4,1,31.4,36.8c-1.9,11.3-5.9,14.6-18.1,13.3c-138.9-14.2-258.5,106.3-244.2,244.8c1.4,13.4,5.9,19.2,19,22.2
			c96.8,21.6,194.2,27.5,292,10.1c90.4-16.1,142.7-71,157.8-161c8.3-49.6,9.4-99.6,7-149.6c-4.7-99.6-59.2-162.2-157.1-182.7
			c-38.1-8-76.7-11.6-115.5-13.7c-71.1-3.9-142.4-4.6-212.9,6c-68.5,10.3-115.7,47.4-131.2,118.3c-9.6,43.9-14.3,88.3-15.4,133.1
			c-1.1,44.4,3.5,88.2,23.3,128.9C914.6,2044.8,941.1,2072.5,980.3,2092.4z M2003,634.1c15.6-38.3,38.6-68.8,72-89
			c16.1-9.8,13.8-17.3,6.4-30.5c-116.1-206.7-380.9-348.7-653.3-245.6c-357.9,135.4-430.3,522.4-275.3,781.6
			c4.5,7.6,7.7,18.1,20.4,12.8c14.7-6.2,36-2.4,40.1-24.9c4.5-24.6,9.1-49.2,18.3-72.6c3.8-9.7,0.2-15.6-6-22.6
			c-36.8-41.7-54.1-91.4-55.9-146.4c-3.3-98,41.4-173.8,114.5-234.1C1483,398.3,1832.9,405.2,2003,634.1z M958.8,2163.2
			c-7.2,4.8-9.5,6-11.5,7.7c-163,133.5-170.2,387.3-13,527.7c119.8,106.9,259.6,126.3,409.8,80.9c91.6-27.7,168.7-77.1,215-164.8
			c33.2-62.9,41.6-131.5,40.4-201.1c-1.5-86.9-17.2-172.9-20.4-259.7c-0.9-25.6-8.3-41.3-31.9-51.1c-12.6-5.2-23.2-19.6-35.3-20.3
			c-14.3-0.8-18.2,20-30,27.9c-12.4,8.2-12.4,18.6-9.6,32.5c10.5,52.5,15.6,105.5,9.4,159c-12.2,105.8-62.7,186-159.8,232.9
			c-175.1,84.5-380.2-37.5-390.8-231.7C928.6,2256.1,937.8,2211.5,958.8,2163.2z M1009,1147c-1.9-19.6-3.2-39.3-6-58.8
			c-1.2-8.6-3.3-17.2-12.1-23.3c-65.8-45.5-101.3-111.2-120.7-186.5c-4.9-19.1-10.8-25-29.8-18.2c-10.9,3.9-23.3,3.9-35.1,4.8
			c-81.6,5.8-156.7-13.3-225-58.7c-6.6-4.4-13.5-11.3-15.3,4.3c-9.1,81.8-41.7,154.3-88.6,221c-41.4,58.9-50.8,126.3-48.9,195.7
			c1.2,43.4,15.1,82.9,59,101.6c45.2,19.3,92.9,23,133.8-7.2c44.4-32.8,88.2-33.4,135.2-11.9c23.3,10.7,45.1,24.4,68.2,35.6
			c37.6,18.3,75.5,17.2,107.5-9.8c25.4-21.5,45.3-50.3,58.8-80.3C1005.1,1222,1009.5,1184.4,1009,1147z M2197.4,2232.4
			c0,9.9,0.6,19.8-0.1,29.6c-6.2,92.2-55.4,180.5-159.8,209.6c-62.1,17.3-125.5,23.1-189.7,13.5c-71.6-10.7-124.5-46.9-151.6-115.9
			c-19.4-49.3-19.6-100.2-12-151.7c2.5-16.7,14.9-37.1,6.8-48.7c-7.9-11.4-30.6-11.9-46.1-18.9c-16-7.2-18.9-1.9-17.4,13.4
			c5.2,52.4,8.8,104.9,14.6,157.2c8.8,79.7,9.3,159-10.1,237.3c-2.9,11.6,0.4,16.3,11,20.1c30.2,10.8,60.9,16.5,93,12.1
			c26.1-3.6,26.1-3.5,30.8,22.4c12.7,71.4,76,129,148.2,135.2c69.7,6,122.4-24.6,163.8-77.2c48.2-61.2,102.8-113.8,174.6-147.5
			c48.9-23,77.2-64.7,86.5-117.9c21.4-121.5-14.2-227.2-90.3-321.6c-7.3-9-12.3-8.3-20.5-1.3c-9.9,8.6-20.7,16.6-32.2,22.7
			c-11.8,6.2-13.1,14-10.2,25.8C2194.8,2164,2198.3,2198.1,2197.4,2232.4z M1432,1614.6c26.2,13.6,49.9,30.3,68.1,53.4
			c7,8.8,13.3,10.2,23.4,7.3c31.6-9.2,63.8-16.4,96.8-18.1c74.4-3.8,150.9,19.6,187,109c7.1,17.7,15.1,35,23.4,52.2
			c8.6,18,22.2,31.8,41.2,37.7c29.4,9,60.3,9.9,93.7,14.2c-3.3-5.6-4.7-8.4-6.4-11c-77.3-108.9-94.7-230.4-75.3-359.6
			c14.4-95.7,51.4-183.3,97.1-267.7c6.1-11.3,6-15.6-7.5-19.4c-26.6-7.4-52.9-16-78.7-25.8c-11.8-4.5-16.5-2.5-22,8.9
			c-31,65.1-81.4,110.5-146.3,140.8c-77.8,36.3-158.9,55.2-245.1,49.2c-12.5-0.9-16.3,0.9-12.2,14.5c9.6,31.9,12.1,64.8,5.8,97.7
			c-3,15.7,2.1,18.8,16.8,19c101.4,0.9,202.9,2.9,304.3,4c14.4,0.2,26.1-0.7,22.8,20c-2.3,14.6,4.7,30-22.5,29.1
			c-100-3.4-200.2-3-300.3-5.9c-26.1-0.7-45.9,2.1-53.4,30.9C1441,1601.8,1435.9,1607.6,1432,1614.6z M2382.1,1417.8
			c0-60.6-0.1-121.2,0.1-181.8c0-11.2-0.8-16.7-15.3-13.4c-63.8,14.5-128.6,21.1-194,18.4c-10.6-0.4-17,3.3-22.8,11.7
			c-19.6,28.5-34.7,59.2-42.9,92.7c-22.1,90.9-28.8,183.4-23.6,276.5c4.4,79.2,45.1,127.7,120.5,150.4
			c45.6,13.8,92.4,11.5,139.2,9.8c9.3-0.3,10.1-7.1,11.7-13.2c8.7-33.1,16-66.5,20.5-100.5
			C2386.3,1585.1,2382.4,1501.4,2382.1,1417.8z M1732.2,838.8c2.6,27.7,1,54.5-1,81.5c-4.6,62.6-46.3,117.3-105.3,137.6
			c-16.8,5.8-34.6,7.9-50.6,16.2c-22.5,11.6-37.4,35.5-32.5,59.8c2.8,13.8-2.2,17.2-12.9,20.1c-5.7,1.5-11.1,4-16.5,6.6
			c-10.4,4.9-14.5,1.6-17.3-9.6c-11.1-43.9,11.4-95.5,52.5-117.7c16.3-8.8,33.9-14.3,51.9-18.4c38.9-8.8,63.1-33.5,75.7-70.4
			c12.3-36,9.5-72.7,4.6-109.4c-5.1-37.5-9-41-46.4-48.3c-9.6-1.9-15.3-1-14.1,10.9c1.4,14.6-1.6,28.9-4.1,43.1
			c-14.8,82.9-79.4,128.4-158.6,110.9c-42.5-9.4-74.7-35.1-99.6-69.7c-7.1-9.9-11-12.4-19.9-1.9c-79.1,93.2-98.1,197.9-61.7,313.7
			c3.3,10.4,10.2,15.4,19.8,19.8c54.7,24.9,102.2,59.3,137,109.2c5.5,7.9,12.1,11.6,21.1,12.1c21.7,1.2,43.4,3.3,65,3.6
			c27.1,0.3,26.7-0.2,24.6-27.1c-11.8-152.2,116.6-304.3,296.6-256.9c14.1,3.7,14.5-0.9,13.6-12.5
			C1847.2,954.1,1800.7,890.4,1732.2,838.8z M1040.4,1576.3c28.9-1.3,28-1.5,34.7-28.5c20.6-83.7,72.3-138.2,154.9-163.4
			c11.6-3.5,19.3-2.8,19.7,11.9c0.1,5.2,1.5,10.4,3.1,15.4c3.9,12.3,0.2,16.9-13,21c-59.9,18.2-98.5,58.1-115.9,118.5
			c-4.4,15.3-2.6,21.7,16,21.4c79.8-1.7,159.3,0.7,237.3,20.5c6.6,1.7,10.5,1.3,14.5-5.2c45.2-73.1,53.9-158.3,4.7-232.6
			c-37.3-56.4-91.5-88.9-153.7-110.7c-75-26.3-189.1-6.1-232,79.3c-4.1,8.1-10.5,15.3-17.1,21.6c-11.9,11.4-18,25.4-21.9,41.1
			c-17.1,68.2,3.3,127,44.5,180.9C1022.9,1576.5,1031.7,1578.3,1040.4,1576.3z M1865.7,2140.5c37.5-1.1,81.4-4.5,124.6-14.3
			c5.9-1.3,11.4-1.4,13.9-8.6c13-38.7,27.7-76.9,23.3-119c-5-48.3-35.1-77.8-83.4-82.1c-19.6-1.7-39.2-4.5-58.7-7.7
			c-45.2-7.4-79.4-30.6-99.8-72.2c-9.8-20-18.1-40.8-27.3-61.2c-12.7-28.3-33-48.5-62.4-59.6c-51.8-19.5-102.5-8.3-153.3,4
			c-6.9,1.7-7.3,6-5.1,12c9.9,27.4,14.5,55.8,16.3,84.8c0.4,6.3,1.6,11.4,9.5,12.5c56.2,8,85.5,47,107.8,94.1
			c12.1,25.5,22.1,52,38.2,75.6c18.3,26.9,43,39.4,75.5,37.8c37.3-1.8,67.6-19.6,97-40.2c28-19.5,28.1-19.4,47.7,8.7
			c0.8,1.1,1.6,2.1,2.4,3.1c4.7,5.5,4.5,9.5-2.1,14.1c-23.7,16.6-47.2,33.4-73.8,45.4c-87.1,39.2-159.5,14.5-203.6-70.2
			c-11.8-22.7-21.5-46.5-33.2-69.4c-10.3-20.3-24.2-37.5-45.9-47.2c-13.6-6-20-5-20,12.5c0.2,42.3-3.8,84.3-16.7,124.8
			c-4.2,13.2-1.7,19.5,9.6,27.1C1641.1,2108.7,1745.5,2139.6,1865.7,2140.5z M1963.6,1085.3c19.6-19.3,30.3-37.3,39.4-56.2
			c69.7-144.1,21.1-338.6-109.6-439.5c-156.9-121.1-398.8-122.9-559.7-4.2c-61.1,45-105.8,101-114.8,179
			c-6,51.5,6.1,98.9,39.1,142.9c17.5-28.6,36.3-53,58.6-74.4c5.8-5.5,3.7-12.2,3.3-18.6c-2.6-41.8,9-79.3,33-113.3
			c42.7-60.4,102.1-95.9,172.8-112.8c189.7-45.3,375.6,60.7,434.3,247.1C1985.5,916.4,1986.5,998.2,1963.6,1085.3z M566.7,685
			c0.4,8.8,1.9,23.9,1.7,39c-0.1,9.1,3.8,14.7,10.2,20c76.7,63.3,163.7,85.9,261.7,67.3c14.3-2.7,18-8.4,16.4-22.3
			c-3.9-33.5-0.6-67,2.9-100.4c7.4-70.4,26-138,52.2-203.6c4.4-11,2.5-14.1-9.5-16c-28.6-4.4-57.2-8.3-86.1-9.9
			c-32.3-1.8-64.6,0.1-95.9,7.9C619.6,491.9,554.3,560.5,566.7,685z M2101.1,1237.9c-17.3-2.6-32.4-3.8-47-7.4
			c-11.6-2.8-18.1-0.5-23.4,10.6c-14.5,30.2-31.1,59.5-44.8,90.1c-45.4,101.2-72.1,206.1-57.3,318.1
			c12.5,94.6,48.4,177.8,125.3,238.2c61.5,48.3,131.3,71.3,210.3,60.3c11.5-1.6,22.8-2.4,29.2-16c13.5-28.5,26.5-57.3,37.9-86.8
			c4.2-10.8,3.1-14.8-10.1-13.9c-40.9,3-81.7,0.2-121.5-10c-97-24.6-155.9-91-163.5-188.7c-7.1-90.9,1.3-181.5,17.7-271.1
			C2061.8,1318.1,2077.6,1277.1,2101.1,1237.9z M932.3,2120.7c-58.6-41.8-91.9-96.7-101.9-165.2c-11.6-79.9-4.9-159.2,15.9-236.7
			c15.6-57.9,52.9-99.5,109-122c15.1-6.1,14.9-10.2,6.5-22.7c-33.5-49.5-50-104.1-43.4-164.2c1.3-11.5-2.2-12-11.6-9.5
			c-23.9,6.5-48.3,8.9-71.8-0.2c-14.5-5.6-18.8-1.8-21.2,12.9c-40,241.9-62.6,485.4-63.9,730.7c-0.2,30.2-2,60.6,4.7,90.5
			c4.6,20.7,14.6,38,34.3,48.1c7.9,4,14,5.1,18.7-5.5C835.5,2215.1,877,2163.9,932.3,2120.7z M1900.9,1107.2c6.9-3.7,7-9.4,8.7-14
			c20-56.1,25.2-113.6,19.5-172.9C1910.7,728.8,1741.5,598,1552.3,632c-72.8,13.1-133.4,47.5-170.6,115
			c-6.9,12.5-12.5,25.6-11.6,41.3c121.7-67.2,245.2-86.5,366.7-7.7C1853.2,856,1916.8,962.3,1900.9,1107.2z M1435.8,2252.3
			c-0.5-29.1-2.6-58-8.6-86.5c-1-4.7,2.1-13.9-8.4-11.7c-6.7,1.5-11.8,5.1-11.5,13.6c0.4,8.5,0.1,17.2-0.7,25.7
			c-8,85-42.7,154-119.1,197.7c-66.1,37.8-148.6,31.4-203.3-15.5c-55.9-47.9-70.3-113.7-41.8-190c2.2-6,11.5-15.4-2.6-18.5
			c-9.9-2.2-20.8-12.8-30.2,4.2c-26.2,47.3-36.5,97.8-28.2,150.6c13.7,86.8,64.8,145.9,145.8,177c80.8,31,155.8,14.2,222.3-39
			C1415.9,2406.9,1434.6,2332.9,1435.8,2252.3z M2225.1,934.7c-42.8,0-85.5,0-128.3,0c-8.8,0-16.4-0.7-18.1,12
			c-5.2,38.7-17.8,75.4-35.7,110.1c-4.7,9.1-4,13.4,6.1,17.3c108,41,213.5,35.5,317-15.3c8.3-4,11.3-9.4,10.9-18.5
			c-1.3-29.6-2.6-59.1-2.6-88.7c0-14.3-6.2-17.3-19.1-17.1C2311.9,935.1,2268.5,934.7,2225.1,934.7z M1198.3,2367.5
			c5.2-0.6,13.8-1,22.1-2.9c88.3-19.3,132.4-96.3,138.7-177.7c0.9-12.1-6.1-10.7-13.5-9.3c-78.5,14.6-157.2,10.2-235.9,1.9
			c-6.5-0.7-11.4-0.9-14.5,6c-17.5,39.5-30.3,79.8-6,120.7C1112.6,2346,1148.1,2367.1,1198.3,2367.5z M1929.8,2440
			c11.6-1.2,32.6-2.8,53.4-5.8c97.9-14.1,151.7-66.9,164.9-163c5.3-38.7,2.3-77.6-5.9-115.8c-1.4-6.5,3-20.5-12.4-15.4
			c-10.4,3.5-23.9,2.9-19,23.3c28.2,118.3-57.2,226-178.8,227.3c-80.5,0.9-138.8-47.2-152.2-126.1c-3.8-22.2-2.7-44.7-0.1-67
			c1.4-11.6-2.5-16.8-13.2-15.6c-9.5,1.1-23.6-12.4-27.7,9c-5.2,27.2-10.3,54.3-10.9,82c-1.8,84.7,38.7,144.8,108.1,160.7
			C1863.8,2440,1892,2442.2,1929.8,2440z M1825.8,2238c0.7,35.3,10.7,75.6,57,93.9c50.1,19.7,97.6,10.7,138.6-23.2
			c41.3-34.1,52.5-79.9,44-131.6c-2.3-13.8-8.1-15.5-21.4-12.4c-58.9,13.8-118.6,23.3-179.4,24.4
			C1826.4,2189.8,1826.4,2190,1825.8,2238z M2218.5,790.4c0-0.2,0-0.4,0-0.7c44,0,88.1-0.6,132.1,0.3c14.4,0.3,17.8-4.3,16.8-17.8
			c-2.1-26.2-3.2-52.5-3.7-78.8c-0.2-10.4-4.8-11.6-13.4-11.4c-99.8,3.1-199.7,6.2-299.5,8.8c-13.1,0.3-12,5.2-7.7,14.2
			c10.4,22,19.6,44.6,24.7,68.4c2.9,13.3,8.7,17.6,22.5,17.3C2133,789.7,2175.8,790.4,2218.5,790.4z M2204.8,642.6
			c0-2.6,0-5.3,0-7.9c38.8,0,77.6,0.5,116.4-0.1c38.6-0.6,38.5-1.1,38.3-40.1c-0.2-30.8,0-31.9-31.4-37.9
			c-71.1-13.7-140.6-11.9-208.1,19.3c-25.8,11.9-44.8,29.2-59.8,52c-2.3,3.5-6.9,7.5-4.2,12.3c2.8,5,8.3,2.3,12.6,2.3
			C2114,642.7,2159.4,642.6,2204.8,642.6z M2377.8,1109.8c-2.3-0.2-3-0.6-3.5-0.3c-118.8,51.4-238,54.8-357.6,3.1
			c-5.8-2.5-9.6-2.3-13.8,2.4c-14,15.7-30.8,28.2-49.6,40.9c6.8,2.2,11.6,4,16.5,5.5c116.7,34.8,235.2,42.3,354.8,19.8
			c71.1-13.4,52.9,3.7,54.4-67.1C2378.9,1112.9,2378.3,1111.6,2377.8,1109.8z M1591.3,1293.4c0.2,4.1,0.1,11.4,1.1,18.5
			c1.1,7.3-2.8,20.6,12.1,15.6c11-3.7,29.5,3.1,28.7-20.2c-3.6-111,85.5-186.8,193.5-164.4c13.7,2.9,17.3-0.5,19.5-12.6
			c2.1-11.5,8.3-22.7-9.7-27.6c-29.6-8.1-59.5-12.2-89.7-6.6C1656.1,1113,1591.6,1193.9,1591.3,1293.4z M1572.5,798.7
			c-2.1-7.7,5.7-20.3-11.1-19.6c-60.4,2.5-115.9,20.2-166.8,52.9c-6,3.9-8.3,6.9-3.4,13.8c17.9,25.1,38.6,46.5,68.8,56.3
			c47.3,15.3,87.2-4.5,103.4-51.4C1569.3,833.8,1570.1,816.1,1572.5,798.7z M2067.3,1955.6c16.7,53.8,8.6,103.6-9.3,155.2
			c75.4-17.3,135.8-53,188-111.3C2180.7,2000.7,2123.5,1986.2,2067.3,1955.6z M2227,885.8c42.1,0,84.2-0.1,126.3,0
			c10.1,0,21.7,1.4,17.6-14.5c-3.2-12.4,10.5-33.8-18.7-33.4c-84.2,1-168.4,0.8-252.6,1.1c-9.1,0-21-1.6-16.8,13.2
			c3.4,12.1-11.6,34.3,17.9,33.7C2142.7,885.2,2184.9,885.7,2227,885.8z M1050.3,1217.2c52.6-27.2,105.1-38.4,161-28.7
			c8.4,1.4,12.5-0.2,9.8-10c-5.7-20.3-8.8-41.2-10-62.3c-0.7-12.2-6.3-11.8-15.3-8.8c-22.9,7.6-46.5,8-70.3,7
			c-23.8-1-46.2-8.5-71.4-14C1057.6,1139.3,1058.3,1176.7,1050.3,1217.2z M1681.8,1288.9c0.2,5.3-3.6,15.8,9.9,10.1
			c49.4-21,92-50.5,121.9-96.3c6.6-10.1,3.8-12.8-7.3-14.6C1744.3,1178,1686.2,1224.1,1681.8,1288.9z M717,1787.3
			c-17.1,2.5-29.3,11.3-37.7,24.2c-22.7,35.1-27.8,73.1-15.8,113.1c4.7,15.8,15.6,27.2,30.8,34.1c7.3,3.3,12.1,2.9,12.7-7.4
			C710,1896.9,713.6,1842.6,717,1787.3z M736.9,1601.7c-15.8,1.4-27,8-37.1,16.6c-34.5,29.3-30.3,83.8,7.5,103.6
			c10.2,5.3,16.2,6.4,17.6-8.4C728.2,1676.9,732.7,1640.4,736.9,1601.7z"/>
		<path class="st0" d="M1069.1,2560.4c37.5-0.2,66.3,28.7,67,67.3c0.8,39.9-28.2,71.8-65,71.8c-38,0-65.3-29.8-65.1-71.2
			C1006.1,2588.9,1032.4,2560.6,1069.1,2560.4z M1055,2624.1c-0.6,17.3,3.9,27.3,16.6,26.9c11.5-0.4,14.9-11,15.4-21.4
			c0.5-12.3-5.9-20.9-17.8-21.2C1056.1,2608.1,1055.3,2619.4,1055,2624.1z"/>
		<path class="st0" d="M1312.2,2639.7c-0.2,38.7-30,71.7-64.5,71.3c-36.5-0.4-66.4-33.2-66-72.1c0.5-38.4,28.8-69.7,63.5-70.1
			C1281.8,2568.5,1312.4,2600.8,1312.2,2639.7z M1264.3,2639.3c-1.1-11.7-6.9-21.2-18.8-21c-12.4,0.2-14.2,12.2-14.7,21.9
			c-0.5,10.7,4.2,20.8,15.8,21.1C1259.7,2661.7,1262.5,2650.2,1264.3,2639.3z"/>
		<path class="st0" d="M932.6,1130.9c-0.1,57.6-35.4,94-91.1,93.8c-53.4-0.1-95.7-41.6-94.8-93c0.9-49.5,37.3-82.3,91.3-82
			C907,1050.2,932.6,1072.2,932.6,1130.9z M884.6,1131c0.8-24.4-5.8-32.1-27.9-32.9c-44.3-1.5-60.1,7.3-61.1,33.9
			c-0.9,24.3,18.8,43.9,44.9,44.9C867.6,1177.9,883.6,1161.3,884.6,1131z"/>
		<path class="st0" d="M653.2,1010.5c48.7,0.9,71.1,13.9,81.4,47c13.2,42.7-0.4,90.2-32,112c-32.9,22.6-80.9,21.3-112.9-3
			c-31.8-24.1-44.5-65.4-31.4-102.2C571.9,1026,600.9,1009.5,653.2,1010.5z M650.8,1058.6c-34.1,0-48.4,10.1-49,34.3
			c-0.6,24.9,20.7,44.9,47.4,44.5c27.1-0.4,41.7-17.4,41.7-48.3C690.9,1063.2,684.8,1058.5,650.8,1058.6z"/>
		<path class="st0" d="M2083.2,2573.8c-0.3,39.1-29.6,70.7-65,70.2c-36.4-0.5-65.9-31.8-65.8-70c0.1-39.3,29.1-71.6,64.2-71.5
			C2053.7,2502.7,2083.6,2534.7,2083.2,2573.8z M2035.3,2572.5c-1.5-11-6.5-20.4-19-20.2c-13.1,0.3-13.9,12-14.5,21.6
			c-0.7,11,5.3,20.5,16,21C2030.8,2595.4,2033.6,2583.8,2035.3,2572.5z"/>
		<path class="st0" d="M1914.4,2559c0.4,38.7-28.7,71.6-63.5,72.1c-36.8,0.5-65.8-30.4-66.5-70.8c-0.7-39.5,27.2-70.3,63.9-70.5
			C1883.7,2489.4,1914.1,2521.2,1914.4,2559z M1833,2560.1c0.3,11.8,3.9,21.3,16,21.2c13.4-0.1,16-10.9,16.3-22
			c0.3-11.4-5.2-20.1-16.3-20.4C1835.4,2538.5,1833.5,2550,1833,2560.1z"/>
	</g>
</g>
</svg>
