<?xml version="1.0" encoding="utf-8"?>
<!-- Generator: Adobe Illustrator 23.0.0, SVG Export Plug-In . SVG Version: 6.00 Build 0)  -->
<svg version="1.0" xmlns="http://www.w3.org/2000/svg" xmlns:xlink="http://www.w3.org/1999/xlink" x="0px" y="0px"
	 viewBox="0 0 3000 3000" style="enable-background:new 0 0 3000 3000;" xml:space="preserve">
<style type="text/css">
	.st0{stroke:#000000;stroke-width:10;stroke-miterlimit:10;}
</style>
<g id="Layer_1">
</g>
<g id="Layer_2">
	<g>
		<path class="st0" d="M2898.4,1076.9c-2.2,170.3-27.2,337.4-68.9,502.2c-15.2,60.1-48.1,111-88,156.9
			c-15.9,18.3-11.5,24.4,5.7,36.6c60.4,42.9,100.9,99,108.6,175.3c7.6,75.6-27,143.3-94.5,179c-15.9,8.4-15.9,13.5-6.4,27.7
			c37.5,55.7,66,114.9,61.3,184.8c-5.8,85.2-58.7,133.5-131.9,163.4c-98.2,40.2-200.2,48.1-304.1,27.5c-10.3-2-17.6-2.1-26.2,5.2
			c-67.4,56.6-147.6,73.6-232.9,71.5c-80.4-2-159-14.6-233.7-46.3c-6.2-2.6-11.3-3.8-18.1-0.2c-83.2,44.4-173.4,46.9-264.3,42.2
			c-123.4-6.3-246.6-14.4-366.8-46.6c-46.1-12.3-91.4-26.8-134.1-48.2c-10-5-17.7-7.8-27.7,2.1c-72.9,71.4-163.8,105.9-262.6,117.1
			c-136.8,15.5-274.2,16.3-410.2-8.2c-88.2-15.8-158.2-63.4-209.2-137c-81.3-117.4-108-249-95.5-389.2
			c12.4-139.2,64.3-262.3,157.4-367.4c4.7-5.4,13.9-10.2,1.4-18.5c-64.6-42.8-86.2-108.9-92.9-180.7c-13-138.3-22.8-276.8-20-415.8
			c2.8-133.9,17.1-265.8,69.9-390.8c84.6-200.4,239.7-311.3,449.7-348.5c191.6-33.9,369.8,13.1,539.8,99.5
			c34.5,17.5,68,37.1,101,57.2c12.3,7.5,20.2,7.3,32-1.1c74.3-53.3,156.1-90.5,245.7-109.7c38-8.1,76.9-9.9,115.4-11
			c186.4-5.4,372.8-17.5,559.3-6.2c176.5,10.7,339.1,62.8,481.1,169.6c73.5,55.3,127.1,127.1,142.4,220.6
			C2896.7,884.7,2900.1,980.7,2898.4,1076.9z M1786.9,442.4c-76.8,2.5-147.3,0.6-215.1,18.2c-146.3,37.9-265.6,120-359.9,236.7
			c-121.6,150.5-202.7,323.1-264.9,505.3c-5.5,16.2,3.1,21.6,12.9,29.1c276.5,208.3,586.9,324.5,933.3,340.6
			c332.3,15.4,641.2-64.4,928-232.2c12.5-7.3,17.6-16,19.4-30.2c20.7-156,22.6-312.1,7.6-468.7c-7.8-81.5-38.7-150.6-97.5-207.6
			c-98.6-95.6-222.6-139.5-351.1-174.7c-12.6-3.5-15.4,3-15.6,13.9c-0.7,37.5-9.5,73.6-19.5,109.3
			c-86.8,309.6-396.2,428.6-631,370.1c-65.8-16.4-112.9-55.5-133.9-120.8c-28.6-88.6-7.4-169.1,46.8-241.8
			C1685.6,536.9,1733.4,492,1786.9,442.4z M1638.6,2563.3c27.6,2.1,58.3-0.4,88.8-3c111.9-9.6,192.4-64,237.1-168.4
			c18.6-43.5,29.1-89,30.7-136.2c3.9-112.1-42-202.7-120.4-280.2c-22.6-22.3-46.2-29.9-77-31.1c-209.2-8.5-416.7-29-617.3-94
			c-10-3.2-18.6-2.3-27.6,2.9c-74,42.2-138.1,95-183.7,168.2c-92,147.6-58.9,311,83.8,410.5c59.7,41.6,126.5,67.1,196.4,85.2
			C1376,2550.2,1505.6,2557.9,1638.6,2563.3z M1114.6,1828.7c-26-12.4-48.8-22.3-70.7-33.9C956,1748,887,1684.4,860.6,1584.2
			c-3.9-14.8-15.5-14.6-26.1-16.5c-289.5-50.8-566.9,106.8-663.3,382.6c-60.6,173.4-49.3,343.3,51.7,501.5
			c44.8,70.1,109.7,114.4,191.5,128.3c132,22.5,265.2,21.2,397.9,6.2c82.3-9.3,157.8-38.1,222.7-91.8c13.8-11.4,13.8-16.9-1.5-27.1
			c-49-32.6-91.2-72.6-118.1-125.8c-63.7-126-42.6-245.5,31.7-359.3C988.7,1918.3,1046.8,1870.9,1114.6,1828.7z M581.8,434.9
			c-105.6,32.9-194.7,89.5-261,178.6c-88.6,119-121,257.4-131.3,401.5c-12.7,177.7-0.7,355,19.1,531.7c5.6,50,25.5,94.9,69.3,125.4
			c12.9,9,22.8,10.3,35.8-1.8c26.6-24.8,56.8-45.3,88.4-63.3c134.5-76.5,278.1-104.9,431.4-80.2c10,1.6,17.1,3.3,15.9-11.5
			c-4.6-57.7,3.6-114.4,17.7-170.1c5.4-21.3,1.2-24.5-20.5-23.2c-146.4,8.5-282.2-24.4-402.1-111.3
			c-143.3-103.8-194.7-255.2-145.9-424.8c30.3-105.3,88.9-192.7,169.2-266.1C503,487.5,542.5,461.1,581.8,434.9z M1589.4,1572
			c-243.7-58.2-461.9-161-660-312.5c-24.1,91.4-48.7,178.5-37.9,270.3c8.2,69.7,37.1,129,91.7,175.6
			c63.4,54.2,138.7,83.4,216.2,108.8c70.6,23.1,142.8,39.6,215.9,52.7c14.7,2.7,28.6,5.9,29.9-17.5c0.8-15,6.7-29.8,10.9-44.5
			C1481.2,1718.2,1525.5,1642.2,1589.4,1572z M1917.3,2527.7c56.8,26,155.7,41.6,239.4,38.5c130.1-4.8,215-70.9,250.6-195.2
			c15.8-55.2,22-112.1,30.4-168.7c16.2-109.3-29.2-189-117-249.3c-9.3-6.4-18.4-9-29.4-7.8c-120.8,13-241.8,6.4-362.8,5.1
			c-5.7-0.1-12.9-3.9-17.5,4.6c30.4,31.3,58.7,64.5,77.9,104c6.7,13.8,14.9,17.7,29.6,17.8c37.9,0.4,73.5,11.4,104.5,33.2
			c52.7,37,86.6,85.6,77.8,153.1c-11.4,87.8-92.3,155.9-184.1,157.9c-10.4,0.2-20.4-1.9-26.6,10.7
			C1972.3,2467.3,1948.5,2498.7,1917.3,2527.7z M2830,1382.8c-10.1,5.3-17.1,8.7-23.8,12.5c-43.6,24.5-88.1,47.1-133.7,67.7
			c-129.2,58.2-263.3,100.2-402.8,125.1c-9.8,1.8-24.2-1.6-18.5,20.1c25.1,95.3,20.9,190-12,283.1c-4.9,13.9-2.9,17.7,12.7,16.6
			c58.8-4.1,117-11.9,174.3-26.3c150.5-37.7,269.1-118.8,342.4-257.9C2807.3,1550,2811.5,1466.2,2830,1382.8z M1900,1912.1
			c60.5,0,121-0.9,181.4,0.6c18.6,0.5,25.2-6.9,30.3-22.7c26.9-83.3,31-167.2,11-252.7c-4.9-20.9-12.1-28.9-34.9-26.9
			c-120.2,10.3-240.1,5.1-359.3-13.1c-13.7-2.1-20.8,4.1-28.5,12.9c-64.8,75-110,160.3-137,255.7c-5,17.7-1.3,21.5,15.8,23.2
			C1685.7,1900,1792.8,1904.8,1900,1912.1z M1862.2,821.8c168.2,0.6,373.9-108.7,366.6-363.7c-0.4-15.7-4.7-20.1-20.1-20.7
			c-68.7-2.8-137.3-0.5-205.9-0.4c-16.4,0-26.9,6.2-37.1,17.8c-46.9,53.4-96.1,104.5-147.7,153.5c-28.2,26.7-53.8,55.6-66.4,93.9
			c-22.1,67.6,10.9,116.5,81.5,119.6C1842.8,822.2,1852.5,821.8,1862.2,821.8z M1920.2,440.4c-26.5,2.4-53.3-7.8-77.7,10.7
			c-57.6,43.8-107.2,95.6-154.2,149.9c-25.6,29.6-43.7,63.8-53.9,101.8c-28,104.1,20.6,189.7,121,213c11.8,2.7,23.7,4.9,35.7,6.3
			c273.7,32.3,509.5-148,549.3-421.2c9-61.5,14.4-49.6-47.2-58.4c-23.2-3.3-25.8,4.7-25.5,25.4c2.3,127.6-43.6,233.3-147.4,310.5
			c-85.5,63.5-182.9,87.5-288.2,84.2c-121.1-3.8-147.2-110.7-113.3-188.4c18.3-41.9,49-73.5,80.8-104.6
			C1841.6,528.8,1883.5,487.7,1920.2,440.4z M2609.6,1850.9c15.9,14.8,29.6,29.4,40.3,46.7c41.9,68.2,19,135.6-56,163.1
			c-33.3,12.2-67.7,21-103,25.3c-9,1.1-18.2,0.7-15.9,14.7c2,12.1,3.4,21.1,20.1,19.6c28-2.5,56.3-1.8,84.4-3.3
			c43.1-2.4,86.6,0.2,128.8-12.1c58.8-17.1,96.7-53.7,105.9-115.5c11.2-76-40.9-167.3-111.3-198.5c-6.9-3.1-11.7-2.9-17.3,2.2
			C2662.5,1814.3,2636.8,1832.2,2609.6,1850.9z M2471.9,2258.5c10.9-3.9,19.9-7.4,29.1-10.3c82-26.2,141,3.8,168.4,85.3
			c11.7,34.7,16.7,70.4,17.4,106.9c0.2,7.6-2.5,18.5,12.2,10.2c45.7-26,75.1-62.3,77.1-117.1c2.6-69.7-33-124.4-69.6-178.8
			c-4.6-6.9-10.8-5.8-17.2-4.6c-39.8,7.9-80.2,6.1-120.5,7.3c-23.3,0.7-46.7,1.3-70,2.8c-8.4,0.6-17.4,1.2-18.3,14.3
			C2478.5,2201.7,2475,2228.7,2471.9,2258.5z M2394.9,2491.9c82.6,14.4,159,10.2,234.4-12.4c8-2.4,15.3-4.2,15.8-14.9
			c2.4-51.4-2.2-101.5-26.9-147.9c-11-20.6-28.5-33-51.4-36c-36.3-4.9-67.8,10-98.6,26.4c-4.7,2.5-6.2,6.8-7.2,11.8
			C2448.9,2378.9,2433.7,2437.9,2394.9,2491.9z M800,407.1c-3.9-1.1-5.5-2.1-6.8-1.9c-204.1,41.4-355.8,150.9-439.4,344.7
			c-68.6,158.9-32.3,309.8,96.6,414.2c77.7,63,167.6,98.5,266.2,112.6c12.8,1.8,25.6,3.4,38.5,4.4c12.1,1,24.2,1.3,36.3,1.5
			c11.8,0.2,23.6,0.1,35.3,0.1c-122.7-17.4-237.1-52.5-336.3-128c-126.9-96.6-164.5-226-109.7-375.6
			C419.4,673.7,488.2,590.7,576.2,523C643.2,471.4,717.7,433.7,800,407.1z M2368.4,1936.4c35.7,31.4,66,63.5,85.3,104.2
			c4.7,10,13.4,7.3,21,6.5c34.6-3.3,68.2-11.5,101-23.1c57.8-20.6,71.1-62.6,34.8-112.7c-7.5-10.4-17.6-18.8-25.9-28.7
			c-8-9.5-15.7-11-27-4.7c-24.1,13.2-50.5,20.8-76.5,29.5C2445.3,1919.6,2408.1,1926.4,2368.4,1936.4z M2012.8,2380.4
			c82.9-2.1,151.8-68.2,149-139.3c-2.6-65.3-74.6-126.4-145.1-121.6C2043.6,2206.2,2040.9,2292.6,2012.8,2380.4z M2148.1,1909.7
			c39.7,5.5,39.9,5.5,51.9-28.6c28.9-81.7,34.3-164.9,15.4-249.5c-7.9-35.5-9.3-35.9-44.8-29.1c-11,2.1-14.4,5.2-11.2,17.3
			c10.7,39.8,15.9,80.4,16.3,121.7C2176.3,1799.2,2165.6,1854.9,2148.1,1909.7z M1663.7,1590c-19.7-11.6-31.4-4.7-44,8.8
			c-69.4,74.4-114.8,161-135.8,260.4c-1.8,8.4-6,18.5,9.1,18.8c10.4,0.2,23.8,11.2,28.3-9.7c4.2-19.6,10.7-38.8,17.2-57.9
			C1566,1729.4,1608.5,1656.8,1663.7,1590z M593.4,1101.1c20,33.1,24.2,72.7,52.6,91.9c27.8,18.8,63.6,26.2,102.5,31
			c-17.2-33.8-32.2-63-47.1-92.3c-2.7-5.3-6.3-8.8-12.5-10.1C658.5,1115.3,628.1,1108.6,593.4,1101.1z M611.1,953.1
			c-13.7-27.3-25.2-50.1-36.6-73c-3-6.1-6.9-10.1-14.1-11.5c-28.1-5.3-56.1-11.2-89.2-17.8c14.2,29.2,26.2,54,38.5,78.7
			c2.2,4.3,6,6.8,11.4,7.7C549.5,942,577.8,947.2,611.1,953.1z M879.5,1241.7c-14-29.5-26-55.4-38.7-81c-1.9-3.7-6.9-7.2-11.1-8.2
			c-25.6-5.9-51.3-11.1-80.5-17.2c16,31.8,30.5,60.3,44.6,88.9c3.6,7.3,8.9,11.3,16.7,12C831.9,1238.1,853.3,1239.7,879.5,1241.7z
			 M1041.7,820.7c-9.4-29.4-17.3-54.6-25.3-79.6c-1.7-5.4-3.5-10.8-10.4-11.7c-25.2-3.4-50.3-6.9-78.7-10.7
			c9.9,27.6,18.5,51.7,27.1,75.7c2.3,6.4,6,10.7,13.4,12.1C991.3,810.6,1014.7,815.4,1041.7,820.7z M535.2,981.2
			c8.6,17.8,14.7,31.8,22,45.2c5.3,9.7,6.2,24.5,17.7,27.7c30.9,8.6,62.6,14.6,98.6,22.7c-13.4-26.7-24.1-47.4-34.3-68.3
			c-3.5-7.3-8.8-10.9-16.6-12.2C595,991.6,567.4,986.7,535.2,981.2z M998.8,687.1c-8.7-27.4-15.6-49.5-22.9-71.5
			c-2.2-6.7-4.3-12.5-14-13.1c-25.4-1.4-50.6-4.6-79.5-7.4c9.3,26,17.4,48.4,25.4,70.8c2,5.6,4.9,9.1,11.7,9.9
			C944.8,679,969.9,683,998.8,687.1z M623.3,881.3c25.8,75.7,63.1,102.3,126.5,91.7c-9.4-19.8-19.4-39-27.6-58.9
			c-4.6-11.1-11.8-16.2-22.9-18.2C675,891.3,650.7,886.5,623.3,881.3z M814.9,1107.5c-12.3-25.9-22.5-47.7-32.9-69.3
			c-2.7-5.6-4.2-13.1-11.6-14.5c-26.9-5.3-53.7-12.3-84.6-13.9c12.6,25,23.8,46.2,34,67.9c3.5,7.4,8.5,11.4,16,13
			C760.7,1096,785.7,1101.3,814.9,1107.5z M746.3,584.7c9.4,22,18.3,42.4,26.6,63.1c2.5,6.1,6.7,8.6,12.5,9.4
			c25.2,3.6,50.1,9.4,78.7,9.2c-8.6-24.1-16.3-45.8-24-67.5c-2.1-5.9-6.4-9.4-12.7-9.3C801.1,590.1,775.3,581.8,746.3,584.7z
			 M1016.7,607.6c4.3,14.4,7.7,26.5,11.6,38.5c16.3,50.1,16.4,49.2,69.9,54.8c17.7,1.9,16.9-4.7,13.9-16.9
			c-4.6-18.6-8.9-37.4-13.2-56.1c-1.7-7.3-3.6-13.9-13-14.6C1063.5,611.6,1041.3,609.6,1016.7,607.6z M911.2,794.4
			c-9.6-26.4-17.6-48.1-25.4-69.9c-2.2-6.2-4-12.7-11.6-13.7c-24.8-3.4-49.7-6.4-78.3-10.1c11.2,26,20.6,48,30,70
			c2.4,5.7,6.7,8.9,12.5,10.1C861,785.1,883.7,789.3,911.2,794.4z M602.7,569c23.1,64.5,23.1,64.6,83.5,75
			c8.7,1.5,17.6,1.7,26.2,3.3c12.7,2.4,15,0.1,11-13.4c-12.1-40.7-32.1-68-80.6-60.7C630.7,575.1,617.6,570.8,602.7,569z
			 M780.4,768.8c-10-23.9-18.4-43.8-26.8-63.8c-2.6-6.1-5.8-11.6-13.2-12.6c-27.3-3.6-54.5-7.2-85.2-11.3
			c10.7,22.7,19.6,41.6,28.5,60.4c2.9,6.2,7.3,10.1,14.4,11.4C724,757.6,749.9,762.8,780.4,768.8z M957.4,558.6
			c-6.4-19.9-12.7-38-17.9-56.6c-2.2-7.7-6.2-10.3-13.5-10.9c-27.1-2.4-54.2-5.1-84.4-8.1c7.8,21.9,14.6,40.7,21.2,59.5
			c2.7,7.8,7.5,11.8,16,11.7C903.7,554.1,928.2,561.6,957.4,558.6z M821.1,548.2c-7.7-21.6-14.4-40.3-21.1-59.1
			c-1.7-4.8-4-9.9-9.3-10c-24.5-0.7-49.4-10-73.2,4.4c-7.5,4.6-10.8,7.3-7.8,18.3c7.8,28.5,23.2,43.3,53.7,42.4
			C781.2,543.7,798.8,546.5,821.1,548.2z M1002,496.5c-5.2,4.1-20.8-8.8-18.1,10.9c6.6,48.5,17.5,58.7,65.7,61.8
			c7.2,0.5,14.4,1.4,21.5,2.6c10.9,2,13.9-1.2,12.1-12.8c-8.5-54.1-9-54.9-63.3-60.9C1014.2,497.4,1008.6,497,1002,496.5z
			 M691.6,852.8c-10.3-22-19-39.7-27-57.8c-3-6.8-8.4-9.5-14.9-10.7c-27.4-5.4-54.8-10.6-86.8-16.7c10.1,20,18.2,36.2,26.5,52.4
			c3.2,6.3,5.1,13.7,13.7,15.4C631.3,840.8,659.4,846.4,691.6,852.8z M509,660.8c12.2,22,15.5,49.4,33.2,58
			c27.4,13.4,60,16.2,95.1,19.9c-10.1-20.6-18.4-37-26.1-53.6c-2.9-6.2-6-11.6-13.2-12.5C569.6,668.8,541.2,665.1,509,660.8z
			 M824.4,1032.9c8.8,18.2,17.2,30.5,21,44.1c9.7,35,33.5,49,67.7,53c17.9,2.1,20.7-3.5,15-17.8c-7.7-19.4-16.4-38.4-24.7-57.5
			c-2.3-5.4-5.7-9.4-12.1-10.4C870.8,1041,850.4,1037.4,824.4,1032.9z M879,998.2c-9.4-22.1-18.5-43.4-27.6-64.8
			c-2.4-5.6-6.6-8.9-12.7-10c-23.2-4.2-46.5-8.6-71.1-13.2C792.9,984,810.9,998.2,879,998.2z M401.3,960.3c3.1,10,5.4,19.4,9,28.2
			c5,12.5,6.2,30.4,20,34.2c28,7.7,56.4,15.7,84.2,17.6C506.1,973.7,460.7,958.9,401.3,960.3z M541.7,822.9
			c-16.6-57.8-33.8-71.8-90-78.5c-14.2-1.7-18.6,7.4-19.3,15.9c-1.4,18.2,5.6,38.5,21.6,44.2C481.5,814.4,511.4,817,541.7,822.9z
			 M712.3,797.2c26,67.4,40.4,77.4,112.6,80.2c-8.6-42-26.2-74.4-76.6-73.8C737.4,803.7,726.4,799.8,712.3,797.2z M947.8,901.3
			c-13.1-62.5-34.7-79-95.1-72.5C871.8,891.3,884,900.6,947.8,901.3z M898.3,938.3c9.3,22.2,17.2,43,26.6,63
			c6.1,13,45.3,19.6,52.9,9.9c9-11.5-1.6-59-15.6-62.4C942.3,944.1,922.2,937.6,898.3,938.3z M1182.2,570.6
			c-3.3-17.1-7-33.5-9.5-50.1c-1.3-8.7-6.4-8.8-13.2-9.9c-47.7-7.1-47.6-7.3-36.6,40.3c1.1,4.7,1.3,9.5,2.7,14.1
			c3.1,10.1,47.1,21.4,54.1,13.8C1181.6,576.9,1181.5,573.2,1182.2,570.6z M573.3,1160.6c-9.6-63.5-49.3-86.3-109.1-84.7
			C495.9,1110.5,531.9,1138.1,573.3,1160.6z M460.7,923.1c-12.7-26.3-24.6-50.7-36.4-75.1c-2.7-5.6-7.1-8.6-13.4-8.4
			c-7.8,0.2-8.5,6.4-9.1,11.9c-2,16.8-3.6,33.6-5.2,50.4c-0.6,6.7,0,13.9,8.5,14.7C423,918.2,440.2,925.9,460.7,923.1z M974.7,848.9
			c8,22,13.3,39.8,20.8,56.6c7,15.8,24.5,16.3,33,1.7c7.6-13.1,14.4-26.7,22.8-42.5C1026,859.4,1002.8,854.7,974.7,848.9z
			 M1157.1,698.7c13.7-16.1,23.4-27.8,33.3-39.3c10.5-12.4,5.9-30-2.4-33.9c-13.3-6.2-30.6-7.9-46.5-4.7c-0.7,0.1-1,5.7-0.4,8.4
			C1145.8,651,1151,672.6,1157.1,698.7z M1217.5,522.4c-3,16.5,2.8,29.5,4.7,42.7c3.2,23.4,24.2,31.2,43.4,17.3
			c23.4-17,23.4-18.2-1.3-32.9C1249.8,540.9,1235.2,532.6,1217.5,522.4z M1123.8,745.4c-20-2.6-35.1-4.7-50.3-6.6
			c-9.8-1.2-15.9,0.5-11.5,12.7c6.6,18.6,12.7,37.4,20.2,59.8C1096.8,788.1,1109.5,768.1,1123.8,745.4z M1058,460.8
			c-2-14.9-12-14.4-18.8-16.7c-19-6.4-38.4-12-57.9-16.9c-7.1-1.8-18.8-10.7-21.1,2.3c-1.6,9.1,0.8,23,17,24.2
			C1003.6,455.7,1029.8,458.3,1058,460.8z M840.1,437.4c-0.1,1.5-0.2,3-0.3,4.5c20.7,1.9,41.4,4.5,62.1,5.4c6,0.3,18.1,6.4,17-7.9
			c-0.7-9.9-4.6-18.9-18.3-15.6C880.6,428.8,860.3,433,840.1,437.4z M530.5,621.3c17.7,3.8,33.1,7.9,50.3,5.3
			c-2.8-14.6-10-26.3-18-40.2C551.4,598.8,541.8,609.1,530.5,621.3z M677.8,534.1c-9.2-28.1-10.3-28.1-36.6-4.6
			C652.5,535.8,664.3,534.9,677.8,534.1z"/>
		<path class="st0" d="M1426.5,1934.6c116.6,2.5,230.2,18.4,330.9,83.1c83.9,53.9,138.4,127.8,143.4,231
			c3,62.9-14.1,119.7-57.5,167.1c-7.5,8.2-15.1,13.8-22.9,1.5c-5.3-8.3-22.1-12-8-28.5c54.8-64.2,64.3-153.1,25-228.3
			c-44.6-85.1-119.9-130.6-208.6-157.1c-129.2-38.5-259.6-37.5-389.8-5.9c-92.3,22.4-145.9,86.9-178.1,172.5
			c-13.1,35-20.2,71.4-23.5,108.4c-1.8,20.3-15.7,10.4-25.1,11.5c-10.5,1.2-16.5-1.9-15.1-14.6c10.9-104.5,44.2-198.1,128.8-267.1
			c46.8-38.2,102.5-53.3,160.6-61.9C1332.9,1939.6,1379.3,1932.7,1426.5,1934.6z"/>
		<path class="st0" d="M1389,2257.7c-47.4-0.3-83.7-23.7-87.7-59.2c-4.8-42,13-76.7,45.8-100.7c32-23.4,70.1-29.4,107.3-12
			c56,26.2,55.7,110.7,0.4,151.4C1435.2,2251.4,1413.1,2257.7,1389,2257.7z M1383.5,2216.7c40.5,0.3,66.2-20.3,71.7-53.7
			c3.9-23.2-14.1-47.3-37.3-46.2c-14.8,0.7-30.4,2.9-43.9,11.1c-20.3,12.2-38.9,48.1-32.1,66.2
			C1349.9,2214.9,1369.9,2215.2,1383.5,2216.7z"/>
		<path class="st0" d="M1173.3,2228.9c-36.9-0.1-60.8-20.3-60.3-51c0.6-39.7,34.1-71.9,75.4-72.4c30.3-0.3,55.8,24.1,56.3,54.1
			C1245.3,2197.3,1212.7,2229,1173.3,2228.9z M1172.3,2187.6c19.4,0.8,28.6-9.5,31.2-25.4c1.8-10.7-6.3-16.2-16-16.8
			c-15-1-35.9,18.4-34.3,31.5C1154.8,2189.6,1165.6,2186.6,1172.3,2187.6z"/>
		<path class="st0" d="M1666,2265.5c-35.6-0.3-58.9-20.2-58.8-50.1c0.2-41.3,33.7-71.9,78-71.4c30.5,0.4,53.8,23.7,53.6,53.6
			C1738.8,2236.4,1707.3,2265.8,1666,2265.5z M1666.9,2225.8c16.9-0.5,31.2-12.8,31.2-26c-0.1-12.8-9-15.8-19.4-15.6
			c-14.4,0.2-33.4,18.8-31.1,30.9C1649.7,2226.5,1660.4,2224,1666.9,2225.8z"/>
		<path class="st0" d="M875.1,2005.3c0.6,19.1-2.5,56-10.5,92.4c-18.6,84.3-70.3,135.4-154.8,153.1c-58.2,12.2-116.9,15.9-175.2,2.2
			c-137.1-32.2-215.4-173.5-175.7-314.9c35.9-127.8,164.4-225.6,297.5-225.3c86.8,0.3,148.6,41.4,186.3,119
			C866.6,1880.9,872,1933.7,875.1,2005.3z M833.3,1991.2c0.1-39.9-3.9-88-23.3-133.3c-23.8-55.5-63-92.6-124.7-102.4
			c-123-19.5-258.9,76.2-290,204.4c-28.7,118.5,40.6,231.6,156.9,255.5c49.1,10.1,97.9,5.9,146.6-3.5
			c69.1-13.3,111.4-54,126.5-123.1C831.7,2059.4,834.3,2029.9,833.3,1991.2z"/>
		<path class="st0" d="M643.5,1653.2c-0.1,19.9-15.9,35.7-35.2,35.3c-19.5-0.4-33.8-16.4-33.1-37c0.7-19.4,15.1-34.5,33.3-34.6
			C627,1616.7,643.7,1634,643.5,1653.2z"/>
		<path class="st0" d="M421.4,1754.1c0.4,20.6-13.9,36.1-33.5,36.3c-19.4,0.2-34.9-15.5-34.8-35.4c0.1-18.1,15.4-34.8,32.8-35.7
			C405,1718.1,421,1733.9,421.4,1754.1z"/>
		<path class="st0" d="M852.8,1651c0.3,21.5-12.8,37-31.6,37.3c-18.9,0.4-32.4-14.8-32.5-36.2c0-21.4,13.6-36.5,32.5-36.1
			C839.3,1616.4,852.5,1631,852.8,1651z"/>
		<path class="st0" d="M867.2,2480.1c-1.6,20.2-17.8,34.2-37.4,32.4c-17.9-1.7-31.7-18.4-30.8-37c1-19.2,18.6-35.6,36.8-34.1
			C854.9,2442.8,868.8,2460.1,867.2,2480.1z"/>
		<path class="st0" d="M698.7,2470.3c19.1,0.6,33.7,17.3,32.9,37.5c-0.9,20.4-16.3,35-36,33.9c-18.1-1-32.4-16.8-32.2-35.6
			C663.5,2486.9,680.5,2469.7,698.7,2470.3z"/>
		<path class="st0" d="M295.4,1975.9c0,20.1-15.7,36.3-34.6,35.7c-17.4-0.5-33.2-16.9-33.7-35c-0.6-19.7,14.7-36,34-36.2
			C280.8,1940.2,295.5,1955.3,295.4,1975.9z"/>
		<path class="st0" d="M537.2,1686c0,20.6-14.9,36.6-33.8,36.2c-18.5-0.4-34.6-18.1-33.9-37.2c0.6-18.4,16.2-34.4,33.8-34.9
			C522.2,1649.5,537.2,1665.3,537.2,1686z"/>
		<path class="st0" d="M579.2,2542.8c-19.3-0.6-33.6-16.8-32.8-37.1c0.8-19.2,15.3-33.6,33.8-33.6c19.3,0,34.6,16,34.3,35.9
			C614.3,2527.9,598.5,2543.4,579.2,2542.8z"/>
		<path class="st0" d="M338.4,1856.9c0,20.1-15.3,35.6-34.8,35.2c-19.6-0.3-33.9-15.9-33.4-36.5c0.5-19,15.5-34.6,33.3-34.8
			C321.5,1820.7,338.3,1838.1,338.4,1856.9z"/>
		<path class="st0" d="M275.4,2103.2c0.5,19.9-14.6,36-34,36.1c-19.6,0.1-34.3-15.2-34.2-35.7c0.1-19,14.6-34.9,32.4-35.6
			C257.4,2067.3,274.9,2084.6,275.4,2103.2z"/>
		<path class="st0" d="M372.3,2443.3c0,20.1-15.3,35.6-34.8,35.2c-19.6-0.4-33.9-16-33.3-36.5c0.5-19,15.5-34.6,33.3-34.7
			C355.5,2407.2,372.3,2424.5,372.3,2443.3z"/>
		<path class="st0" d="M276,2231.5c-0.1,20.4-15.2,35.6-34.7,35c-18.1-0.5-33.1-15.8-33.6-34.4c-0.5-19.4,15-36,34.1-36.3
			C261.3,2195.7,276.1,2211.1,276,2231.5z"/>
		<path class="st0" d="M248.9,2315.1c18.4-0.3,35.1,16.7,35.2,35.9c0.1,19.9-15.4,35.6-34.9,35.4c-18.8-0.2-32.7-14.5-33.3-34
			C215.2,2332,229.8,2315.5,248.9,2315.1z"/>
		<path class="st0" d="M719.4,1674.3c-20.5,0.2-34.8-13.8-34.8-34.3c0-20.4,14.3-34.4,34.9-34.2c19.4,0.2,32.9,13.5,33.6,33
			C753.7,1659.2,739.6,1674,719.4,1674.3z"/>
		<path class="st0" d="M453.4,2468.4c20,0.1,34.7,15.1,34.2,35.1c-0.5,20-15.4,34-35.7,33.4c-19.6-0.6-32.2-13.7-32.4-33.8
			C419.1,2482,432.6,2468.3,453.4,2468.4z"/>
		<path class="st0" d="M618.5,2099.4c-50.8-3.1-100.2-17.2-124.7-73c-37.9-86.4,32.6-178.2,129.9-170.5c49.5,3.9,91.3,22,116.3,66.8
			C786,2005.3,721.9,2101.2,618.5,2099.4z M612.4,2057.8c49.4,2.6,79.7-13.6,94.9-47.5c12.9-28.9,7-62.7-15-85
			c-34.5-35-102-38.7-140-7.8c-37.6,30.6-37.8,91.3-0.1,120.4C571.4,2052.9,594.1,2057.7,612.4,2057.8z"/>
	</g>
</g>
</svg>
