<?xml version="1.0" encoding="utf-8"?>
<!-- Generator: Adobe Illustrator 23.0.0, SVG Export Plug-In . SVG Version: 6.00 Build 0)  -->
<svg version="1.0" xmlns="http://www.w3.org/2000/svg" xmlns:xlink="http://www.w3.org/1999/xlink" x="0px" y="0px"
	 viewBox="0 0 3000 3000" style="enable-background:new 0 0 3000 3000;" xml:space="preserve">
<style type="text/css">
	.st0{stroke:#000000;stroke-width:10;stroke-miterlimit:10;}
</style>
<g id="Layer_1">
</g>
<g id="Layer_2">
	<g>
		<path class="st0" d="M1500.9,129.5c249.2,0,498.4-0.3,747.7,0.1c324.3,0.5,589.4,218.5,652.2,535.9c8,40.5,10.7,81.5,10.7,122.8
			c-0.2,469.5,0.4,939-0.3,1408.5c-0.5,366.9-289.7,657.4-656.2,658.2c-502.9,1.1-1005.8,1.2-1508.7,0
			c-362.7-0.8-653-291.1-653.9-653.6c-1.2-472.8-1.2-945.7,0-1418.5c0.9-362.4,291.2-651.7,654.2-653.2
			C998,128.6,1249.4,129.5,1500.9,129.5z M1501,2800.5c249.3,0,498.6,0.4,747.9-0.1c338.8-0.6,606.9-267.2,607.5-605.5
			c0.8-468.5,0.8-937.1,0-1405.6c-0.6-336.8-268-604.3-604.6-604.8c-499.7-0.8-999.4-0.8-1499.1-0.1
			c-338.4,0.5-605.3,268.2-605.7,607.1c-0.6,467.4-0.1,934.8-0.1,1402.2c0,48,5.1,95.5,16.3,142.2c65.4,273,305.3,463.4,586.8,464.4
			C1000.2,2801.2,1250.6,2800.5,1501,2800.5z"/>
		<path class="st0" d="M1543,677.1c95.7,4.4,212.6-7.6,329,7c275.8,34.6,522.5,276.4,549.8,553.3c18,182.3,25.7,367.4-6.5,548.7
			c-52.4,295-326.3,519-625.7,521.3c-175.7,1.3-351.5,1.5-527.2,0.1c-357.2-2.7-646-291.2-649.3-648c-1.1-111.2-1-222.5,0-333.7
			c3.1-356.8,291.7-645.2,648.8-648.6C1348.6,676.4,1435.3,677.1,1543,677.1z M2075.3,2168c9.3-4,13.5-5.1,16.9-7.3
			c157.2-102.3,254.1-245.1,276.6-431.7c17.2-142.7,12.6-287.2,4.3-430.1c-16.5-284.8-217.6-505.8-497.4-557.7
			c-86-15.9-173.2-9.6-259.8-8.8c-141.2,1.3-282.7-8.4-423.7,5.5c-261.5,25.7-493.5,257.6-518.7,519.5
			c-13.8,143.1-7.9,286.9-3.9,430.3c3.4,119.7,46.6,227.9,118.7,323.8c59,78.6,132.5,139.5,224.4,182.9c0-8,0.3-12.3,0-16.6
			c-15.5-195.9-4.5-391.3,15-586.3c18.1-180.7,111.4-307.4,281.5-371.5c155.6-58.7,316-61.9,475.2-16.8
			c149.6,42.3,244.9,136.4,268.1,297.3c14.8,102.6,23.3,205.4,28,308.7C2085.9,1927,2082.3,2044.8,2075.3,2168z M1586.2,1876.3
			c-2.6,4.9-4.6,10.3-7.9,14.7c-31.9,42.7-63.6,85.6-96.1,127.8c-9.3,12.2-9.2,20.2,3.3,30.3c35.4,28.7,70.6,57.7,104.4,88.2
			c15.1,13.7,21,7.4,29.9-5.7c30.4-45.2,61.2-90,92.9-134.3c9-12.6,9.2-19.8-4.1-29.5c-35.1-25.4-69.1-52.4-103.6-78.6
			C1600.6,1885.9,1596,1883,1586.2,1876.3z M1271.7,1867.5c32.6-45.3,64-89.5,96.2-133.2c9.2-12.5,8.5-20-4.7-29.5
			c-35-25.4-69.2-51.9-102.9-78.8c-13.3-10.6-20.5-6.5-29.2,5.5c-26.2,35.8-52.9,71.2-80,106.3c-8.8,11.4-10.9,19.1,2.3,29.8
			C1192.9,1799.6,1231.3,1833.2,1271.7,1867.5z M1762.5,2254.6c11.7,2.8,25.4-6.7,37-24.4c23.8-36.2,48.8-71.6,74.2-106.7
			c9.2-12.8,12.3-21.2-3.5-32.2c-29.2-20.2-57.1-42.3-84.7-64.7c-12.3-10-19.4-10.2-28.7,3.7c-31.3,47.2-63.7,93.6-95.5,140.5
			c-4.1,6-14.1,13.9-6.2,19.9C1686.1,2213.8,1707.3,2252.7,1762.5,2254.6z M1866.9,1516.1c-10.2-0.9-12.5,8.2-16.8,13.7
			c-29,37.8-56.9,76.3-86.4,113.7c-10.4,13.2-6.9,20.5,4.6,29.7c30.3,24.2,60.3,48.7,89.6,74.1c13.7,11.9,20.8,9,30.2-5.3
			c26.6-40.8,53.9-81.1,82.5-120.5c10.6-14.7,7.5-21.8-5.7-31.4c-28.7-20.8-56.3-43-84.4-64.6
			C1876.1,1522.1,1871.4,1519.2,1866.9,1516.1z M1409.7,1668.1c6.3,0.4,9-4.9,12-9.1c27.1-37.7,53.8-75.7,81.4-113.1
			c7.2-9.8,4.3-15.5-3.7-22c-34.3-28-68.7-55.8-102.5-84.4c-10.4-8.8-15.7-6.6-23.3,3.8c-27.4,37.5-56,74.1-83.9,111.2
			c-4.9,6.5-13.8,13.6-2.5,22.2c38.7,29.5,77.4,59,116.2,88.4C1405.1,1666.4,1407.3,1667,1409.7,1668.1z M1695,1384
			c-7.5-0.6-10.4,4.5-13.5,8.7c-28.5,39.6-56.6,79.5-85.7,118.6c-8.6,11.6-3.6,16.5,5.3,23.7c30.3,24.3,60.7,48.6,89.5,74.6
			c15.3,13.8,23,9.5,33.4-5c26.6-36.9,53.8-73.4,82.1-109c11.8-14.8,7.2-22.2-5.7-31.8c-31.2-23.1-61.6-47.3-92.4-70.9
			C1703.7,1389.6,1698.9,1386.7,1695,1384z M1425.7,1996.8c3.4-3,7.1-5.4,9.6-8.7c33.5-44.4,66.6-89.1,100.5-133.1
			c9.5-12.3,2.1-16.9-6.5-23.3c-30.2-22.7-60.6-45.2-89.9-69.1c-11.6-9.5-17.8-8.3-25.9,3.5c-19.6,28.3-40.2,56-60.3,83.9
			c-38.2,53.2-38.2,53.2,12.8,96.9c15.2,13,30.4,26,45.7,38.9C1415.9,1989.4,1420.3,1992.6,1425.7,1996.8z M1539.1,1483.6
			c7.2,2.2,9.6-2.3,12-5.6c29.2-40.4,58.1-80.9,87.4-121.2c9.4-12.9-1.3-17.9-8.7-23.7c-30.5-23.9-61.7-47-92-71.1
			c-12.7-10.1-21.1-10.9-31.5,3.9c-24.2,34.4-49.3,68.2-75.7,100.9c-11.5,14.2-9,21.8,4,32c31.4,24.6,62,50.2,92.9,75.4
			C1531.7,1477.7,1536,1481.1,1539.1,1483.6z M1062.2,1936.5c-15.6,42,7.6,75,47.6,100.6c2.8,1.8,5.3,4.1,7.5,6.6
			c11.7,13.5,20.5,12.1,30.8-2.9c25.1-36.7,51.2-72.6,77.7-108.3c9.2-12.4,12.5-21.1-2.1-32.9c-35.6-28.5-70.1-58.3-104.3-88.4
			c-11-9.7-15.8-7.4-26.1,2.5C1059.3,1846.3,1061.1,1887.3,1062.2,1936.5z M1388.8,2048.9c2.2-10.3-5.1-13.2-9.7-17.2
			c-26.9-23.1-54.5-45.3-80.8-69c-12-10.8-19.1-10.6-28.5,3c-26.4,38.2-53.4,76-81.3,113.1c-10.1,13.4-6,20.6,5,29.8
			c25.6,21.2,50.9,42.8,75.3,65.2c12.7,11.7,20.6,10.1,30.4-3.5c26.6-36.7,54.3-72.6,81.4-108.9
			C1384,2057,1386.7,2052.2,1388.8,2048.9z M1751.4,1929.7c7.3,0.7,9.6-4.7,12.7-9.1c23.3-33.6,46.2-67.6,70.1-100.8
			c9.4-13.1,2-18.7-7.4-26.2c-31.1-24.9-62.1-50-92.1-76.2c-11.8-10.4-18.3-11.3-28,2.4c-23,32.5-47,64.3-71.6,95.6
			c-9.1,11.6-11.3,18.9,2.5,28.9c34.9,25.3,68.8,52.1,103.1,78.3C1744.3,1925.2,1748.1,1927.5,1751.4,1929.7z M1673.6,1669.9
			c-3.4-3.6-6.1-7.1-9.4-9.9c-32.4-27-65-53.6-97.2-80.8c-14-11.8-19.2-0.4-25.6,8.4c-24,33.3-47.2,67.1-71.9,99.7
			c-10.4,13.7-9.4,22.1,4.5,32.2c29.6,21.4,58.6,43.8,87.2,66.5c11.8,9.4,19.5,10.3,29.3-3.5c23.7-33.5,49-65.8,73.5-98.6
			C1667.4,1679.6,1670.3,1674.8,1673.6,1669.9z M1338.1,1396.3c-2.3-3.3-4-7.3-6.9-9.9c-25.4-21.3-51.2-42.2-76.6-63.6
			c-10.4-8.8-18.1-3.3-26.4,3c-38.4,29-70.7,63.4-95.4,104.9c-6.8,11.4-11.3,20.6,2.8,30.7c28.7,20.7,56.7,42.3,84.4,64.4
			c10.5,8.4,16.7,6.6,24.1-3.5c28.1-38.3,56.7-76.3,85.1-114.4C1331.7,1404.4,1334.5,1400.9,1338.1,1396.3z M1445,2252.9
			c25.6,0,51.3,1.2,76.8-0.3c28.5-1.6,34.1-29.1,46.3-47.3c11-16.5-10.3-21.5-18.7-29.1c-30.5-27.6-63.3-52.6-93.6-80.4
			c-16-14.7-24.1-11.1-35.3,4.9c-22.9,32.7-47.9,64-71.3,96.4c-6.6,9.1-21.9,18-14.4,29.7c8.5,13.2,20.9,26.3,40.1,26.2
			C1398.2,2252.8,1421.6,2253,1445,2252.9z M1999,1943.2c1.4-9.5-5.6-12.5-10.3-16.5c-13.5-11.5-26.7-23.3-41-33.7
			c-20.5-14.8-38.7-46.7-59.8-43.1c-22.9,3.9-32.7,38.6-47.7,60.2c-39.8,57-39.5,57.3,16.1,99.7c20.1,15.4,40.2,45,61.1,41.3
			c22.6-4.1,32.5-38.6,48.2-59.6C1977.4,1975.5,1988.2,1958.8,1999,1943.2z M1916.4,1348.5c2.2-12.1-4.5-15.9-9.3-19.5
			c-18.7-13.8-36.9-28.5-57.1-39.8c-68-38-73.3-35.8-115.1,28.3c-8.5,13-8.7,19.7,4.5,29.3c34,24.7,66.6,51.2,100,76.8
			c4,3.1,9.9,10.2,13.7,5.6C1875.6,1401.9,1896.9,1373.7,1916.4,1348.5z M1102.4,1506.7c-19.5,62.8-23.6,123.4-27.8,184
			c-0.8,12.1,7.6,18.4,16.5,22.6c9.8,4.6,12.7-5.7,17-11.4c26.7-35.2,52.9-70.9,80.1-105.7c8.5-10.9,9.6-17.9-2.5-26.6
			C1159,1550,1132.9,1529.7,1102.4,1506.7z M2012.9,1659c-31.9,46.2-59.5,86-87.1,125.8c-5.4,7.7-4.7,14.2,2.7,20.2
			c30.6,24.8,61.2,49.7,97.1,78.9C2024.2,1806.9,2023,1737.3,2012.9,1659z M1088.3,2223.3c27.4,11.7,54.8,16,81.9,21
			c17.4,3.2,35.2,4.3,52.9,6.5c9.8,1.2,17.7-1.7,22.7-10.2c6.6-11.2-2.7-15.6-9.4-21.3c-8.5-7.2-16.6-14.7-25.1-21.9
			C1139,2136.1,1139,2136.1,1088.3,2223.3z M1956.8,1388.3c-18,23.5-35.2,46.2-52.6,68.8c-6.1,8-3.9,13.6,3.7,19.3
			c30.3,22.8,60.4,46,93.6,71.3C1995.6,1482.4,1979.5,1424.9,1956.8,1388.3z M1457,1238.6c-52.3,8.2-97.2,18.9-139.8,38
			c-6.6,3-21.8,4.9-8.9,16.9c18.6,17.3,38.6,33.1,58.6,48.8c9.1,7.1,14-1.9,18.4-7.8C1407.9,1304.6,1430.2,1274.5,1457,1238.6z
			 M1856.4,2246c51.2-6,93.3-18.3,134.5-33.9c5.1-1.9,12.1-3.8,14.3-7.8c6.4-11.9-6.2-16-12.3-18.8c-23.8-10.7-34.6-45.3-68.3-37.3
			c-0.8,0.2-1.2,1.8-1.8,2.7C1901.9,2180.6,1881.2,2210.4,1856.4,2246z M1593.2,1233.6c21.6,17,37.7,30.1,54.2,42.6
			c32.7,24.8,32.7,24.7,56.5-10.8c1.8-2.7,3.9-5.4,5.8-8c7.6-10.1,5.1-16.6-7.4-17.7C1668.6,1236.9,1635.1,1228.1,1593.2,1233.6z
			 M2020.8,2133.8c0-40.6,0-78.6,0-121.8c-9.4,12.8-15.9,21.4-22.1,30.3C1962.4,2094.2,1962.5,2094.3,2020.8,2133.8z M1061.4,2074.1
			c1.9,25.9,3.5,47.3,5.3,71.4C1107.9,2105.5,1107.8,2104.5,1061.4,2074.1z"/>
	</g>
</g>
</svg>
