<?xml version="1.0" encoding="utf-8"?>
<!-- Generator: Adobe Illustrator 23.0.0, SVG Export Plug-In . SVG Version: 6.00 Build 0)  -->
<svg version="1.0" xmlns="http://www.w3.org/2000/svg" xmlns:xlink="http://www.w3.org/1999/xlink" x="0px" y="0px"
	 viewBox="0 0 3000 3000" style="enable-background:new 0 0 3000 3000;" xml:space="preserve">
<style type="text/css">
	.st0{stroke:#000000;stroke-width:10;stroke-miterlimit:10;}
</style>
<g id="Layer_1">
</g>
<g id="Layer_2">
	<g>
		<path class="st0" d="M1532.6,321.4c4.9-21.2,8.1-37.1,12.2-52.8c21.3-82.6,70.7-129.3,155.5-137.3c111.8-10.5,223.6-2,332.9,22.2
			c100.1,22.2,156.5,92.5,169.9,197c1.5,11.4,3.4,22.8,6.1,40.6c7.3-14.8,11.6-23.3,15.8-32c52.6-108.2,146.5-156.3,265.5-136
			c189,32.2,306.7,159.8,330.3,356.2c18.1,151.2-23,288.9-94.9,419.3c-10.9,19.7-11.2,31,6.6,46.1c105.7,89.8,141.8,212,158.7,343.3
			c20.2,156.8,21.2,314.7,29.4,472.1c7.9,151.8,10.3,303.7,5.6,455.6c-2.4,75.4-8.1,150.6-28.4,223.9
			c-16.1,58.3-51.8,100.1-105.2,127.3c-69.2,35.3-144.6,49-220.3,58.4c-353.2,44-707.8,44.3-1062.5,28.5
			c-102.5-4.6-205.4-14.7-303.3-50.2c-14.6-5.3-21.6,2.8-30.2,10.9c-59.9,56.8-127.3,100.8-209,119.4c-16.2,3.7-32.8,6.8-49.3,7.4
			c-172.6,6.1-344.9,6-514.5-33.7c-80-18.7-152.9-52.8-220.8-99.4c-121.4-83.3-139.5-274.7-83.5-379.5
			c15.5-29.1,38.1-51.7,66.1-70.5c-22.9-21.2-41.2-43.8-53.5-71.2c-18.5-41.1-19.2-81.7,3.2-121.2c7.9-14,9.7-23.5-2-38.2
			c-37.5-47-33.7-102.2-25-157.3c1.8-11.6,4.2-23.4,8.7-34.1c15.2-36.3,23.5-67-9.7-103.2c-27.8-30.4-17-74.6-4.3-112.6
			c13.8-41.1,33.7-79.4,60.2-113.8c9.8-12.7,9.2-19-3.6-30.1c-65.9-57-77.4-140.6-30.6-214.5c17.8-28.1,36.3-55.9,56-82.7
			c8.3-11.2,7.3-17.4-2.1-26.8C83,1073.7,50.6,975,45.2,865.9c-4.6-91.8-18.5-183.4-7.2-275.7C69.8,329.4,233.8,142,511.4,108.6
			c145.1-17.5,285.5-4.9,417.1,64.4c33,17.4,65,36.6,93.2,61c13.5,11.7,20.6,11.2,32.9-2.1c56.2-60.3,123.6-100.7,208.4-99.5
			c118.1,1.7,200.5,62.6,256.3,163.5C1523.1,302.5,1526.3,309.3,1532.6,321.4z M2873.6,1952c0-12.7,0.6-25.5-0.1-38.1
			c-9.8-181.9-7.9-364.6-35.6-545.3c-12.6-82.5-30.3-163.1-85.2-231.1c-78.4-97-179.8-158.9-295.2-200.1
			c-131.5-46.9-268.2-63.5-407-66.6c-172.5-3.8-344.8-3-514,37.8c-168.7,40.7-316.5,117.5-433.1,249.2
			c-131.3,148.2-187.5,325.1-199.9,518.8c-9.7,152.1,1,303.8,18.9,454.6c14.3,121.2,46.7,238.2,110.7,344.1
			c69,114.3,160.9,193.2,300.4,210.9c141.3,18,282.8,26.2,424.9,27.5c213.7,1.9,427.3-1.7,640.4-18.5c108.3-8.5,216.2-20,321.2-51.1
			c79.3-23.5,128.3-72,140.1-155.3c2.5-17.4,5.5-34.8,7.6-52.3C2886.5,2275.3,2878.8,2113.7,2873.6,1952z M1137.3,1051.8
			c191.3-138.5,298.4-184.8,522.4-214.9c187.1-25.1,375.5-24.2,563-3.1c155.3,17.5,303.5,59.8,434.4,149.5c17.5,12,21.4,1.6,27.6-10
			c68.9-129,106.5-263.5,84-412.1c-22.3-147-122.4-257.7-267.9-287c-123.7-24.9-205.6,21.8-246.1,141.4
			c-11,32.4-18.8,65.8-28.8,98.5c-6.9,22.6-8.8,55.5-41.9,50c-33.7-5.6-27.3-38.2-26.5-63c1.4-45,4.3-89.9-1.2-135
			c-11.5-93.6-58.6-151.7-142.5-168.1c-91.7-17.9-184.8-23-277.9-21c-98.5,2.1-140.5,44.9-150.5,143.5c-3.5,34-6.4,68.1-10.7,102.1
			c-1.9,15.3-12.9,24.7-27.8,26.2c-14,1.4-24.7-6.8-30.3-19.3c-5.9-13.4-10.3-27.4-14.6-41.4c-19.2-62.8-46.1-120.2-101.7-160.4
			c-121.1-87.6-256.2-49.2-340.5,77.3c-31.4,47.1-28.9,102.6-24.2,156.8c10.4,119.1,30.9,236.8,53.5,354.1
			C1104.1,893.7,1120.7,971,1137.3,1051.8z M900.8,2282.5c-6.7,5.5-10.5,8.4-14,11.6c-146.2,133.8-317.9,182.8-512.7,154
			c-10.3-1.5-32.7,5.7-26.5-22.2c4.7-21,7.3-30.7,34.8-26.4c180.4,28.2,338.6-19.8,473.9-143.5c23.1-21.1,33.2-41.1,24.9-73.7
			c-6.4-25.3-9.5-30.4-33.2-15c-152.5,99.3-318.8,146.9-501.6,130.2c-34.1-3.1-68.4-5.5-102.6-6.2c-41.2-0.9-73.8,16.2-96.2,51.6
			c-57.1,89.8-30.5,251,53.1,316.9c58.4,46,124.5,77.1,196.4,95.6c152.3,39.3,308,40.3,463.9,40.8c103.3,0.3,190.9-35.3,267.3-103.3
			c15.2-13.5,18.6-20.5,0.2-34.3c-33.8-25.3-62.8-56-89.4-89C971.5,2485.8,930.7,2388.9,900.8,2282.5z M564.7,1267.5
			c188.8-6.4,355.6-54.4,504.9-156.8c21.7-14.8,25.5-29,19.9-53c-16.3-70.4-30.9-141.2-44.8-212.2c-2.8-14.5-10-22.2-21.9-28.5
			c-149.2-79-321.9-46.2-424.1,95.9c-8.7,12.1-11.7,23.1-6.7,37.7c12.3,35.7,12.1,73.1,12.6,110.4c0.2,14.9-4.6,19.6-20.4,19.6
			c-22.7,0.1-28.9-7.2-28.6-30.4c1.4-120.8-52.4-202-154.5-227.8c-108.1-27.4-205,3-293.3,67.1c-8.5,6.2-10.2,12.9-9,22.5
			c11.5,89.1,48.9,165.1,117.2,223.7C320,1225.1,442.9,1264,564.7,1267.5z M1023.7,761.8c5.4-8.7,2.8-16.5,1.4-23.9
			c-15.3-82.7-28.3-165.8-36.4-249.5c-5.8-60.5-10.2-121.8,14.8-179.5c7.8-18.1,1.7-26.2-11-36c-48.4-37.4-100.6-67.6-158.4-88
			C718.3,144,599.7,141.2,480.5,163C327.1,191.1,210,270,138.8,413C71.3,548.7,79.3,690.9,93.7,837.7c10.6-6.1,18.8-10.9,27.1-15.7
			c47.9-27.9,99-47.5,154-54.1c20.1-2.4,25-7.6,23.7-28.4c-4.4-69.2,2.5-137.3,37.5-199.2c64.9-114.9,187.2-161.6,322.9-140.7
			c104.3,16.1,187.6,66.6,234.8,165.5c22,46,27.5,95.6,27.4,146c0,9.1-4.1,19,11.3,22.1C963.7,739.5,994.1,749.8,1023.7,761.8z
			 M995.2,1218.1c-7.9-4.2-11.7,0-15.8,2c-144.9,69.3-297.2,102.4-457.9,93.2c-19.2-1.1-23.2,5.5-23.1,22.7
			c0.3,41.9-6.7,82.4-34.6,115.6c-11.6,13.8-35.6,24.8-36.2,37.9c-0.7,14.6,20.2,29.4,29.2,45.5c40.3,71.5,31.3,185.8-22.3,229.8
			c-23.7,19.4-21.2,31.2-10.4,56.1c32.9,76.1,45.1,154.2-2.5,230.2c-5.5,8.9-1.4,14.5,2.1,21.3c26,50,22.7,102.7,8.7,154
			c-6.8,25-0.1,24.9,19.9,24.1c111.8-4.5,215.4-37.4,312.8-90.6c30.9-16.8,59.6-37.4,89.9-55.4c15.4-9.1,13.8-22.3,10.7-35.7
			c-3.5-15.1-15.9-7.1-24.5-7.5c-18.6-0.7-37.3,1.1-55.8-0.4c-100.4-8.1-179.2-52.3-220-146.7c-83-192.5,4.2-518.5,326.5-535
			c13.1-0.7,23.7,0,29.5-16.3C939.3,1311.8,965.4,1264.8,995.2,1218.1z M617.5,443.5c-195.6,1.8-288.5,133.3-269,301.8
			c1.9,16.3,9.5,20,24.2,21.8c69.7,8.6,129.9,36.7,173.8,93.1c12.1,15.5,17.2,17.4,31,0.9c71-84.7,161.8-131.4,273-134.6
			c18.6-0.5,21-9.3,20.9-23.2c-0.1-55.9-9.7-109.3-44.5-155.2C770.3,473.3,690.8,447.1,617.5,443.5z M273.9,1755.2
			c30.3-0.4,60.7,2.1,90.6-5.7c23-6,41-18.3,52.3-39.4c28.9-54,16.2-140.1-26.1-184.1c-13.9-14.5-28.9-20.5-49.6-16.7
			c-40.6,7.5-81.9,8.3-122.7,1.3c-11.7-2-18.1,1.4-24.9,9.9c-31.2,39.6-55.8,82.8-68.8,131.7c-13.2,49.5,8.8,84.9,58.6,96.8
			C213.2,1756.2,243.5,1755.6,273.9,1755.2z M278.2,1466.5c18.3-1.6,34.9-2.8,51.4-4.6c89.6-9.6,124.5-50.3,121-139.7
			c-0.5-12-2.1-19.6-15.8-23c-75.5-19.1-146.5-48.6-210.2-93.9c-9.4-6.7-14.8-5.8-20.9,3.7c-19.7,30.3-41.7,59.3-59.5,90.7
			c-22.1,39-19.1,78.6,5.7,116.4C181.2,1463.9,230,1466.4,278.2,1466.5z M300.3,2032.6c0-0.3,0.1-0.6,0.1-0.9c11.8,0,23.5,0,35.3,0
			c46.4,0,56.2-8.5,63.9-54c9.3-54.4-2.6-104.8-27.2-153.3c-8.5-16.7-19-23.7-39.1-22.1c-51.7,4.1-103.7,5.4-155.1-4.4
			c-10.9-2.1-16.2,1.5-20.2,10.9c-19.9,46.7-31.1,95.1-24.6,145.9c5.7,44.4,33.4,68,79.1,71.1
			C241.8,2027.9,271.1,2030.3,300.3,2032.6z M894.7,1428.8c-55,1.9-106.3,13.9-153.5,42.5c-122.2,74.2-181.4,231.5-146.5,379.1
			c28,118.3,131.2,173,244.2,161.2c8.3-0.9,23,1.6,21.2-13.4c-1.5-12.8-14.1-7.6-21.7-7.4c-34.3,0.7-68.5,0.6-102.3-6.2
			c-39.7-8-69.7-27.3-77.1-69.8c-7.7-44.3-7.8-88.3,22.1-126c8.8-11.1,8.3-19.2,1-30.6c-19.2-30.3-25.2-63.4-15.2-98.3
			c28.1-97.7,92.9-159.7,190.1-184.8C885.1,1467.9,893.9,1455.4,894.7,1428.8z M391.3,2160.3c0,0,0.1,0,0.1,0
			c0-10.8,0.7-21.6-0.1-32.3c-2.7-35.8-15.5-46.7-50.4-47.5c-47-1-94-0.2-140.9-6.4c-35.3-4.7-40.7-0.1-49.6,35.5
			c-14.5,58,42.8,130.1,105.8,133.2c22.5,1.1,45,1.8,67.4,4.1c42.3,4.5,63.3-11.7,67.4-54.4C392.2,2181.9,391.3,2171.1,391.3,2160.3
			z M872.8,1522.7c-70.1,15.2-115.7,55.7-146,115.1c-17.3,34-23.9,69.3,1.9,102c25.7,32.7,61.6,33.1,99,26.9
			c17.6-2.9,23-11.4,23.5-29.4C852.9,1667,860,1597.1,872.8,1522.7z M854.1,1880.6c-0.8-16.6-2.3-33.3-2.2-49.9
			c0.1-14.9-6-18.9-19.7-15.3c-23.2,6.1-46.4,5.6-69.8-0.1c-36.6-8.9-49.5-0.2-57.3,37.2c-11.1,53.4,6,78,60.4,86.5
			c8.7,1.3,17.4,2.8,26.2,3.4C857.3,1946.3,857.3,1946.2,854.1,1880.6z"/>
		<path class="st0" d="M1959.7,1126.7c-155.3,8.1-317.2,26.7-468.1,98.1c-231.7,109.5-354.7,297.7-387.7,547
			c-29.3,221.5,18.8,430.1,117.8,628.2c9.3,18.6,8.5,26.3-10.9,36.6c-21.4,11.4-26.5,0.6-34.1-14.9
			c-97.9-199.3-149.5-408.9-124.5-631.2c37.3-331.8,213.8-555.3,535.6-654.2c184.5-56.7,373.8-76.4,565.6-40.5
			c225.2,42.2,388.7,168.4,481.1,377c113.3,255.8,153.2,522.5,92.9,799.7c-5.4,24.7-27.8,32.6-48.3,17.9c-8.8-6.3-2.4-12.2-1.2-18
			c23.9-109.8,35.3-220.8,24.4-332.7c-17.5-179.4-54.1-354.1-146.9-512.2c-99.8-170-251.9-260.3-443.6-289.5
			C2064.4,1130.9,2016.5,1127.7,1959.7,1126.7z"/>
		<path class="st0" d="M1205.3,1977.8c1.1-127.4,16.1-252.2,68.5-370c88.3-198.6,244.8-304.3,456.4-334.3
			c77.6-11,155.8-15.7,234.1-20.5c183.7-11.3,329.4,56.7,442.3,201.7c105.4,135.2,163.1,288.4,184.4,457.1
			c16.2,128,18.1,255.9-0.6,383.8c-2.1,14.5,4.4,37-27,31.7c-22.5-3.8-26.1-10.7-23.1-32.2c29.5-212.9,18.4-422.5-62.5-623.9
			c-44.8-111.4-112.5-208.9-207.4-284.2c-72.8-57.7-157.7-84.7-251.2-84.7c-107-0.1-213.7,6.6-318.7,26.4
			c-222.5,41.8-360.1,178.2-414,394.6c-64.8,260.1-38.7,511.3,96.5,746.5c11.7,20.4,6.7,27.9-10.6,37.8c-14.3,8.2-21.6,6.5-29.9-8
			c-64.8-113.4-109-234-127.3-363.6C1207.8,2083.4,1205.4,2030.6,1205.3,1977.8z"/>
		<path class="st0" d="M2028.3,1931.8c-2.1,101.4-85.5,182.4-185.7,180.4c-103.7-2.1-183.6-86.4-181-191.1
			c2.5-98.6,86.7-179.1,185.8-177.5C1949.7,1745.3,2030.4,1829.2,2028.3,1931.8z M1845.3,2062.2c75.3-0.3,134.1-59,134.3-133.9
			c0.2-75.8-60.2-135.6-136.4-135.1c-73.6,0.5-134.2,62.1-133.4,135.7C1710.5,2003.2,1770.8,2062.5,1845.3,2062.2z"/>
		<path class="st0" d="M1557,2372.8c-54-0.4-95.9-43.3-95.2-97.7c0.6-52,43.6-94.8,95.4-95.2c52.5-0.4,97.5,44.3,97.4,96.9
			C1654.5,2329.9,1610.5,2373.2,1557,2372.8z"/>
		<path class="st0" d="M2185.8,1502.7c52.4-0.6,97.9,44.3,96.9,97.2c-1,53.5-37.6,92.4-94.1,96c-53.3,3.4-97.5-41-98.1-94.7
			C2090,1547.1,2132.3,1503.4,2185.8,1502.7z"/>
		<path class="st0" d="M1500.2,1714.3c-53.8-0.4-97.1-44.2-95.8-96.9c1.3-52.1,44.2-94.3,96.3-94.6c53.6-0.3,96.8,42.9,96.7,96.6
			C1597.3,1673.6,1555.1,1714.7,1500.2,1714.3z"/>
		<path class="st0" d="M2322.2,2396.3c-54.1,0.7-96.9-41.6-97.2-95.8c-0.2-53.8,42.7-97.4,96-97.3c52.2,0.1,94.7,42.2,95.7,94.7
			C2417.8,2352.2,2376,2395.6,2322.2,2396.3z"/>
		<path class="st0" d="M1947.7,767.2c-98.6-6.4-206.2,2.5-311.5-20c-133.6-28.6-246.1-98.8-351.4-182.2c-13-10.3-25-22.1-38.4-31.9
			c-18-13.3-29.2-33.9-16-49.8c11.4-13.8,32-2,46.3,10.3c54.3,46.6,110.8,90.2,172.9,126.2c76,44.1,156.2,76,244,88.1
			c26,3.6,38-3.1,38.6-30c0.4-16.5,3.1-33.1,6-49.5c7.8-44.7,44.5-80,89.8-84.2c30.1-2.8,61-5.9,89.5,8.6
			c11.3,5.8,18.3-0.1,26.6-5.3c53.1-33.2,107-23.1,159.8-0.6c22.4,9.6,31.7,31.2,32.9,55.3c1.4,28.4,3.1,56.8,3,85.2
			c-0.1,21.4,7,28.1,29.5,26c137-12.3,254.4-66.6,354.1-160.5c19.1-18,37.1-14.5,49,8.5c6.1,11.9-4,16-9.6,21.4
			c-97.5,93.1-210.9,154.8-345.9,173.1C2130,767.6,2042.8,767.2,1947.7,767.2z M2022.9,716.6c15.6,0,31.3-0.6,46.8,0.2
			c15.8,0.8,23.2-4.1,21.8-21.4c-2.3-29.2-3.3-58.5-4.5-87.7c-0.4-9.6-3-17.3-12.8-20.6c-28.1-9.5-56.7-15.1-85.9-6.7
			c-19,5.5-33.4,14.8-26.9,39.7c3.1,12,1.4,25.2,1.4,37.9C1962.9,717.2,1962.9,717.2,2022.9,716.6z M1846.6,714.7
			c69.1,1.1,69.1,1.1,68.1-67.9c-0.6-41.8-10.5-53.7-46.6-55.9c-48.9-3-76.7,14-82.4,50.5C1774.3,713.6,1774.3,713.6,1846.6,714.7z"
			/>
		<path class="st0" d="M626.5,709.5c-48,0.2-86.6-37-87.6-84.5c-1-47.7,39-87.6,87.7-87.3c47.7,0.2,85.8,38.4,85.8,86
			C712.4,671.1,674.2,709.3,626.5,709.5z"/>
	</g>
</g>
</svg>
