<?xml version="1.0" encoding="utf-8"?>
<!-- Generator: Adobe Illustrator 23.0.0, SVG Export Plug-In . SVG Version: 6.00 Build 0)  -->
<svg version="1.0" xmlns="http://www.w3.org/2000/svg" xmlns:xlink="http://www.w3.org/1999/xlink" x="0px" y="0px"
	 viewBox="0 0 3000 3000" style="enable-background:new 0 0 3000 3000;" xml:space="preserve">
<style type="text/css">
	.st0{stroke:#000000;stroke-width:10;stroke-miterlimit:10;}
</style>
<g id="Layer_1">
</g>
<g id="Layer_2">
	<g>
		<path class="st0" d="M625.1,722.8c63.2-103.1,137.1-193.6,228.8-268.7c190.9-156.4,410.3-247.6,653.3-282.9
			c193.7-28.1,383.4-12.8,565.5,64c27.2,11.5,54.2,23.8,79.7,38.6c18.2,10.6,26.7,11.2,37.2-10.3c31.1-63.9,81.2-110.5,141.9-146.3
			c74.7-44,149.4-43.6,224.2-0.6c9.4,5.4,19.7,9.9,27.6,17c77.6,69.7,167.6,112.2,271,126.8c16.5,2.3,31.9,10,45.3,20.7
			c23.5,18.6,30.2,44.1,16.6,70.7c-17.2,33.8-41.5,62.5-69.9,87.1c-58.2,50.3-110.2,104.9-156,168c-70.1,96.4-165.4,157-290.1,154.6
			c-0.8,3.9-2.1,6.5-1.4,7.2c77.3,74.1,98.1,172.2,117.1,271.6c52.6,274.7,67.5,551.4,46.5,830c-6.1,80.4-14.2,160.7-33.2,239.6
			c-21,87-1.6,166,55.7,235.3c6.3,7.6,12.8,15,18.9,22.7c68.7,86.7,66.1,169.8-13.8,247.1c-101.5,98.2-222.6,141.6-360.1,93.2
			c-141.7-49.9-230-150.7-252.3-303.5c-15.9-109.5,3.7-215.8,26.4-322c25.8-120.4,53-240.5,56.2-364.3c0.6-22.6,0.3-45.2-3.7-67.7
			c-11.2-63.1-64.6-84.8-118.3-47.3c-28.5,19.9-46.4,48.3-59.3,79.5c-37.6,90.8-50,186.4-47.4,283.5c3.6,133.1,7.9,266,5.4,399.2
			c-0.3,16.7-2.1,33.4-3.1,50.1c-3.6,55.7-33.5,86.5-85.4,107.7c-100.6,41-201.5,78.2-309.7,93.3c-111.2,15.6-222,14.3-332.5-5.4
			c-18.3-3.3-27.1-2.1-28.3,19.5c-1.1,19.4-6.1,38.9-11.3,57.8c-23.6,85.3-104.7,136.7-191,118.9c-20.7-4.3-35.3-0.5-51.5,10.8
			c-45.8,31.8-95.9,53.9-151.4,62.8c-101.9,16.3-179.1-22.3-234.7-106.8c-49.6-75.3-71.9-161.4-93-247.6
			c-58.5-239.1-66.1-481.5-43.1-725.5c9.3-98.8,21.2-197.4,47.9-293.4c4.5-16.1-1-29.4-12.7-42.6c-44.4-50.3-88.6-101.2-100.8-170.6
			c-8.7-49.2-5.1-98.2,5.4-146.7c8.4-38.7,13.6-77.2,9.4-117.1C244.9,975,223,928.9,178,894.4c-50.5-38.7-66.5-91-58.2-152
			c6.2-46.1,38.4-78.6,84-87.1c12.4-2.3,24.9-3.4,35.4-12.8c111.3-100,299.9-76.5,378,70.2C618.5,715.1,620.6,717.1,625.1,722.8z
			 M801.1,2504.3c-1,60.3-2.6,120.5,11.5,179.6c15,63.1,58.8,88.7,121.9,74.1c43.6-10.1,70.7-37.5,83.7-79.1
			c14.6-46.6,16.9-94.8,15.1-143.3c-5.6-147.7-18.3-295.1-22.8-442.9c-10-326.3,66.9-632.9,207.8-924.6
			c85-175.9,216.9-302.6,405.7-365.4c160.4-53.3,320.2-108.1,479.9-163.5c57.5-20,115.7-39.2,168.7-70.1
			c40.4-23.6,78.3-50.2,91.4-99.3c10-37.4,3-52.1-33.3-66c-53.2-20.4-109.6-23.3-165-21.8c-236.2,6.1-460.8,63.6-678,155.1
			c-157.9,66.5-300.3,153.5-402.9,294.2c-142.8,195.9-196.5,422.8-218.7,658.5c-11.5,122.5-11.2,246.1-19.3,369
			C832.9,2074,816.5,2289.1,801.1,2504.3z M1633.2,853.8c-116.8,35.4-216.6,107-294.7,212.6c-120.3,162.6-172.2,354.1-228.9,543.6
			c-3.8,12.8,4.3,18,12.5,23.6c148,101.1,309.9,135,486.1,101c15.9-3.1,22.4-10,26.8-25.6c26.1-93.1,66.3-177.3,155.1-227.8
			c19.3-11,5.3-18.6-1.6-26.5c-54.1-62.4-96.1-131.9-125.3-209.2C1615.3,1118.8,1607.3,988.9,1633.2,853.8z M752,1504.3
			c10.8,0.6,21.8,0.4,32.5,2c22.5,3.5,31.5-4.8,32.7-28.1c5.8-106.7,30.9-209.6,58.9-312.5c44.7-164.2,113-314.8,232.6-438.7
			c10.3-10.7,10.9-17.2,0.9-28.8c-60-69.3-119.7-138.8-178-209.4c-14.1-17.1-22.2-17.4-39.2-3.4C757,597,662,737.4,591.2,896.4
			c-72,161.7-114.5,332.9-164,501.8c-5.5,18.7,3.7,23.9,17.1,30.1C542,1473.7,644.4,1499.3,752,1504.3z M2498.9,1244.5
			c-91.3,173.9-91.7,174.6-250.4,288.8c-10.5,7.6-10.2,13.5-6.2,24.2c16.1,43,20.8,87.9,19.3,133.6c-2.4,70.1-14.6,138.9-26.1,207.8
			c-16.5,98.1-34.7,195.9-32.6,296c4.2,201.7,109,343.7,300.3,406.2c8.8,2.9,17.1,7.4,27.9,1.4c70.6-39.3,90.8-128.7,42.6-192.3
			c-8.9-11.7-18.3-23-27.5-34.4c-53.3-66.5-80.6-141-72.8-227.4c3.9-43.4,18.1-84.7,23.7-127.6c26.5-203.9,32.1-408.5,17.6-613.5
			C2511,1354.7,2504.6,1302.3,2498.9,1244.5z M2467.9,2641.1c-57.9-22.1-109.9-50-155.6-88.3c-102.3-85.7-149.1-198.1-157-328.8
			c-7.7-127.2,18-250.9,38.3-375.3c12-73.8,25.3-147.6,15.5-223.1c-9.5-73.6-49.3-120.3-120.4-140.8c-48.3-13.9-97.3-15.2-146.4-5.9
			c-84.6,16-161.8,46.4-209.5,124c-38.7,63.1-61.7,132.1-62.6,206.7c-2.6,199.1-4.2,398.2-6.1,597.4c-0.1,10.8-0.1,21.8,1.7,32.4
			c2.7,15.4,11.1,27,26.7,32.6c42,15.3,82.2-7.9,90.6-51.9c3.9-20.5,5-41,5.2-61.7c1.7-133.1-3.7-266.1-6.1-399.2
			c-1.6-92.1,9.1-182.8,41-270c15-41.1,34.6-80.1,67.1-110c45-41.4,98.3-53.2,155.9-31.9c51.6,19,55.4,67.1,61,112.3
			c2.3,18.5,1.8,37.4,1.5,56.1c-1.3,100-18.4,197.8-39,295.3c-19.9,94.3-44,188.1-48,285.1c-5.3,126.3,23.5,237.7,132,317.9
			C2250.2,2685.1,2372.7,2698.5,2467.9,2641.1z M2209.5,657.1c46.5,11.9,83.2,45.6,131,52.4c147.1,20.9,253.7-42.6,332.4-161.1
			c27.1-40.7,58.3-76.3,96.3-106.9c34.6-27.8,66.2-58.6,93.2-94.4c16.6-22,9-30.8-12.7-36.7c-20.9-5.7-41.6-12.4-62.9-15.8
			c-69.9-11.3-131.3-39.3-184.8-86.1c-20.6-18-44.1-33.2-67.7-47.2c-47.1-28-97.3-38.9-149.5-15.4c-63.6,28.7-114.7,72.3-148.9,134
			c-19.7,35.6-13.1,48.7,28.2,57.8c9.6,2.1,19.5,3.1,29.1,5c28.1,5.4,55.8,12.5,80.7,27.3c31.8,18.9,47.4,45.9,43.2,83.7
			c-5.3,47.4-27.2,85.4-61.9,117.3C2313.2,609.9,2261,630.9,2209.5,657.1z M562.2,2017.8c-66,0-132,0.5-197.9-0.3
			c-17.8-0.2-26.2,2.8-26,23.7c1.2,132.2,12.1,263.3,35.9,393.4c3,16.6,9.7,22.8,27.1,22.7c110.3-0.7,220.6-0.6,330.8-0.1
			c17.2,0.1,24.3-4.7,25.5-22.9c8.2-130.7,16.8-261.3,26.4-391.8c1.5-20.3-4.7-25.4-23.9-25.1
			C694.1,2018.4,628.1,2017.8,562.2,2017.8z M2149.1,332.4c-5.6-6.1-6.6-7.9-8.2-8.8c-6.8-4-13.6-7.9-20.6-11.5
			c-247.4-126.9-504.4-127.8-767-59.3c-17.2,4.5-17.9,9.7-8.4,23.2c41.4,58.6,83.2,117,122.5,177.1c15.6,23.8,28.7,28.6,56.2,17.2
			c147.8-61.1,301.5-101.5,460.1-123.4C2037.1,339.6,2091,336.8,2149.1,332.4z M369.2,1423.6c20-71.2,36.2-141.1,59.2-208.5
			c42.2-123.5,33.1-246.1,0.8-368.9c-27.3-103.8-72.2-138.9-179.7-144.4c-68.7-3.5-97.6,34.3-78.2,101.1c6.7,23,20.7,39.5,38.9,53.9
			c44,34.8,72.7,79.5,84.3,134.7c10.2,48.8,11.7,97.7-1.1,146.1C265.1,1245.6,278.3,1342.6,369.2,1423.6z M1865.6,773.1
			c-54.3,18.1-104.2,35.7-154.8,51.3c-16.6,5.1-23.2,14.1-26.7,30.3c-10.2,46.4-15.5,93.1-15.7,140.6c-0.7,168,55.9,314,167.9,438.8
			c8.8,9.8,16.4,18.4,32.4,12.7c13.6-4.8,14.4-13.1,14.1-24.6C1877,1207.4,1871.4,992.8,1865.6,773.1z M1153.1,2258.2
			c67.9-3.6,135.1-12.1,201.3-28.3c86.4-21.1,167.6-54.7,246-96.4c29.7-15.8,16.9-41.3,15.8-62.5c-1.1-21.7-21.6-11.5-32.9-11
			c-174.3,7.2-339.3,50-495.5,128.3c-28.8,14.4-24.2,34.8-21,56.2c3.4,22.6,23.6,11.4,36.2,13.1
			C1119.4,2259.9,1136.3,2258.2,1153.1,2258.2z M2395.2,843.9c-0.8,4.7-1.5,6.6-1.3,8.4c25.5,230.8-38.6,431.9-198.6,601.6
			c-5.8,6.2-22.9,11.2-10,24.8c11.1,11.8,20.7,24,41.9,11.5c117.5-69.3,196.4-168.3,233.8-299.4c10.5-36.8,19.9-74.3,11.6-113.4
			c-9.4-44.3-17.9-88.7-28.1-132.8C2436,908.1,2421,874.4,2395.2,843.9z M589.9,1637c53.1,0,106.3,0,159.4,0
			c62.2,0,61.6,0,62.3-61.8c0.2-15.8-4.4-19.9-19.7-20c-127.6-0.6-249.7-26.7-365.3-81.3c-14.8-7-20.2-4.8-23.3,11.7
			c-7.9,42.5-16.4,84.9-26.7,126.8c-5.2,21.3,2.1,25.1,21.4,24.8C462,1636.4,526,1637,589.9,1637z M307.2,656.5
			c8.2,2.9,11.5,4.4,15,5.3c72.4,19.1,120.5,64.2,144,135.2c12.4,37.4,22.3,75.4,27.4,114.7c2.4,18.3,6.8,36.4,11.7,62.4
			c27.2-65.6,50.4-123.1,79.1-178c5.5-10.5,4.6-20.8,1.3-31.5C551.4,652.4,414,596.8,307.2,656.5z M1651.8,2508.4
			c-7.4-8.2-14.2-12.6-16.3-18.6c-11-32.5-30.7-26.6-56.4-17.8c-152.9,52.5-310.3,70.3-471.4,56.5c-8.6-0.7-22.5-9.9-23.8,10.3
			c-1,15.2,5.2,20.1,19.6,22.7c99.6,17.9,199.7,22.9,300.2,10.4C1487.8,2561.5,1570.1,2543,1651.8,2508.4z M2079.4,1230.1
			c1.8-0.7,4.8-1.4,7.1-3c37.9-26.1,75.7-52.6,113.7-78.6c10-6.8,6.3-11.9-0.2-18.3c-30.8-30.3-61.7-60.5-91.8-91.4
			c-9-9.3-14.9-8.8-23.9-0.1c-28.3,27.1-57.3,53.7-86.4,79.9c-9.4,8.5-9.6,14.8-1,24.1c23.9,26,46.9,52.8,70.2,79.4
			C2070.2,1225.7,2072.5,1230.3,2079.4,1230.1z M2344.8,1032.9c1.9-8.3-2-15-7.5-20.9c-30.7-33.1-61.8-66-92.1-99.5
			c-9.1-10.1-15.2-8.1-23.9,0.2c-24.9,23.7-50.4,46.8-75.8,70c-7.2,6.5-12.5,11.9-2.7,21.2c34.1,32.6,67.6,65.8,101.3,98.8
			c5.1,5,9.1,9.4,17.1,3.6c24.6-17.8,49.8-35,74.7-52.3C2343.2,1048.9,2344.8,1041.4,2344.8,1032.9z M479.7,2748.4
			c27.5,41.3,58.1,67.6,99.6,79.5c71.7,20.7,135.3-3.4,196.9-37c26.9-14.7,27.5-35.1,2.1-52.4c-6.3-4.3-13.2-2.7-20-2.4
			c-36.3,1.4-72.7,2.5-109,4.2C594.7,2742.7,540.1,2745.5,479.7,2748.4z M1069.2,1829.4c-5.9,16.1,15,29.9,28.6,47.3
			c7.7,9.8,14.2,10.2,24.3,2.5c36-27.2,72.7-53.5,108.9-80.4c4.8-3.6,15-6.6,9.5-15.1c-10.3-16.2-15.4-36.8-35-45.8
			c-32.1-14.8-63.3-31.3-92.4-51.4c-13.8-9.5-20.3-7.7-22.8,9.6C1084.3,1736.8,1077.5,1777.5,1069.2,1829.4z M1929.5,1402
			c2.9,16.2-2.1,29.1,15.2,26.8c60.3-8.1,119.5-4.8,177.9,14.3c19,6.2,25.3-15,37-24.1c7.6-5.9,2.9-11.4-2.1-17.1
			c-26.7-30.3-53.6-60.4-79.4-91.4c-9.3-11.2-16-6.3-24.4-0.4c-36.2,25.4-72.6,50.6-109,75.8
			C1936.5,1391.6,1928.5,1397.4,1929.5,1402z M2199.6,1373.5c29-34.1,52.3-70.2,72.8-108.2c24.2-44.8,23.2-47-14.8-79.8
			c-8.3-7.1-13.3-8-22.3-1.7c-36.8,26.2-73.9,51.9-111.3,77.1c-12.8,8.6-10.7,15.3-1.6,25.3
			C2148.2,1314.6,2173.2,1343.6,2199.6,1373.5z M1322.9,1916.4c-16.4-25.9-33.4-53.5-51.4-80.4c-3.3-4.9-8.8,1.4-12.3,4
			c-35.1,25.4-69.9,51.2-105,76.5c-8.9,6.4-11.3,11.4-2.8,20.5c20.2,21.5,40,43.5,58.9,66.2c10,11.9,16.8,8.4,26.1-0.5
			c24.2-23.1,49.3-45.3,73.9-68C1315.3,1930,1321.4,1926.2,1322.9,1916.4z M1302.6,2368.8c3.7,48.8,32.1,75.3,76.6,71.4
			c31-2.8,65.3-34.8,63.7-59.7c-3.6-58.2-31.7-88.8-78.2-85.2C1325.2,2298.3,1299.5,2328.8,1302.6,2368.8z M2096.2,757.1
			c0.1-15.3-42.7-46.5-57.7-41.6c-34.4,11.3-68.8,22.8-103.1,34.6c-24,8.3-27.4,19.1-10.4,37.5c17.3,18.7,36.6,35.6,54,54.3
			c9.5,10.2,15.5,6.6,24.1-0.9c27.9-24.7,56.5-48.6,84.8-72.8C2091.5,765.1,2096.3,762.9,2096.2,757.1z M1060.5,2146.3
			c51.6-20.3,80.6-60.4,117.2-90.7c10.1-8.3,1.1-13.6-3.5-18.9c-18.1-20.7-36-41.6-55-61.5c-6.5-6.8-11.7-23.4-24.5-14.1
			c-13.2,9.6-34.3,13.5-34.2,36.4C1060.6,2045.7,1060.5,2093.7,1060.5,2146.3z M2198.3,864.6c-6.5-7.4-12.2-14-18-20.5
			c-45.3-51.3-45.4-51.5-95.5-7.1c-18.9,16.8-54.1,31.6-52,51.1c2.3,20.8,33.6,37.9,51,57.7c10.5,11.9,18.2,10.2,28.4,0.4
			c24.9-23.7,50.5-46.7,75.7-70.2C2191.4,872.9,2194.3,869.1,2198.3,864.6z M1986,922.9c-1.7,1-3.3,2.1-5.1,2.9
			c-46.2,22.1-70.7,76.4-57.3,127c8.7,32.8,30.2,39.3,54.8,16.4c7.9-7.4,16.4-14.3,23.7-22.3c17.7-19.5,55.2-34,52.3-55.3
			c-3-21.9-34.8-39.9-54.1-59.5C1996.2,928.2,1992.8,922.9,1986,922.9z M1189.1,2333.5c-36.6-0.4-65.9,22.3-66.9,51.7
			c-1,29.9,27,53.9,63.9,54.6c37.7,0.8,64.2-19.1,64.5-48.4C1250.9,2355.1,1228.5,2333.9,1189.1,2333.5z M1473.3,1857
			c-88.7,60.8-90.8,68.7-40.6,144.1c1.6,2.4,3.2,4.9,4.5,7.6c3.7,7.6,8.6,6.2,13.9,2c19.9-15.9,39.6-32,59.5-47.8
			c9.2-7.4,5.8-15.5,1.9-23.7C1499.6,1911.9,1486.5,1884.6,1473.3,1857z M1542.3,2378c36.3,0.3,66.7-22.8,67.8-51.7
			c1.1-28.9-28.8-54.2-64.7-54.8c-31.9-0.6-64.6,19.8-64.2,39.9C1482.2,2355.1,1502.9,2377.7,1542.3,2378z M1925.7,1328.6
			c3.2,1.1,6.3,2.2,9.5,3.4c26.5-18.3,52.4-37.3,79.5-54.5c16.8-10.6,21.6-18.8,5.1-34.8c-18.4-17.7-33.5-38.6-51.2-57
			c-6.7-6.9-10.5-22.9-23.7-16.9c-13.8,6.3-20.3,18.8-19.7,36.1C1926.7,1246,1925.7,1287.3,1925.7,1328.6z M1560,1923.2
			c19.9-19.4,49.6-27.8,56.5-52.8c7.1-25.8,11.8-58.4,1.6-80.7c-6.6-14.4-40.6,4.2-62.6,3.1c-15.2-0.8-25.3,8.7-35.8,18
			c-7.3,6.5-7.3,12.6-3.4,20.7C1530.7,1861.2,1544.8,1891.2,1560,1923.2z M1221,484.5c0,0.1,0,0.1,0,0.2c-2.9,0-5.9-0.1-8.8,0
			c-67.3,1.3-70.5,7.2-39.1,68.4c4.3,8.4,8.6,11.7,18,10.3c31-4.7,62.1-9,93.2-12.9c9.9-1.3,12.4-4.5,10.8-15.1
			c-7.3-50.6-7.5-51.2-59.4-50.8C1230.8,484.5,1225.9,484.5,1221,484.5z M1184.8,379.9c0-0.5,0-0.9,0-1.4c-9.8,0-19.6,0.1-29.4,0
			c-45.8-0.5-45.2-0.7-29.3,42.1c5,13.4,12.1,17.6,25.7,16.8c27.3-1.6,54.8-1.2,82.1-2.6c38.5-1.9,38.3-2.5,27.2-38.8
			c-3.4-11.1-8.9-16.4-20.6-16.2C1222,380.2,1203.4,379.9,1184.8,379.9z M2307.5,765.2c-1.6-7.8-7.3-10.3-12.2-13
			c-16.4-8.9-32.8-17.9-49.7-25.8c-19.8-9.3-48.9,2.7-65.5,28.7c-12,18.8,10,24.6,18,33.5c38.5,42.7,39.2,42.2,81.6,2.7
			C2289.1,782.7,2298.3,773.9,2307.5,765.2z M1447.6,1807.6c-0.6-9-6-11-12.1-11.9c-30-4.2-60-8.7-90.2-12.3
			c-13.1-1.6-22,8-29.4,16.6c-6.6,7.7,2.7,14.4,6.2,20.7c10.2,17.8,21.6,34.9,32,52.6c5.5,9.3,10,13.2,19.7,3.8
			c21.2-20.4,43.3-39.7,64.9-59.6C1442.3,1814.3,1445.1,1810.4,1447.6,1807.6z M1007.2,490.5c-0.8,2.7-1.7,5.3-2.5,8
			c18.6,22,38.8,42.8,55.4,66.3c17.8,25.3,40.8,13.3,58,6.7c16.6-6.4-1.1-22.2-3.4-33.6c-2.3-11.4-7.6-22.1-11-33.3
			c-2.5-8-5.4-14.3-15.5-14.1C1061.2,490.7,1034.2,490.5,1007.2,490.5z M1391.7,2030.9c-10.6-17.9-21.1-34.3-30.2-51.4
			c-7.3-13.7-13.8-12.7-24.1-2.7c-22.7,21.9-46.5,42.6-69.5,64.1c-4.4,4.1-13.3,7.4-8,16.3c4.8,8.2,11.6,4.2,18.3,2.5
			C1315,2050.3,1352,2041,1391.7,2030.9z M2335.2,808.3c-20.6,18.6-37.2,33.6-54,48.5c-6.6,5.8-10.4,11-2.6,19.3
			c22.5,23.7,44.5,47.8,71.5,76.9C2351.1,900.4,2346.6,856.5,2335.2,808.3z M492.3,1811.9c-0.6-3.6-0.6-4.5-0.9-5.4
			c-1.5-4.6-48.9-33.5-51.9-30.9c-17.7,15.5-34.8,31.6-51.9,47.7c-0.3,0.3,1.4,3,2.3,4.4c14.7,24.2,51.4,29.5,73.4,10.5
			C473.5,1829.4,483.4,1820,492.3,1811.9z M952.9,442.9c30.9,0,54.3,0.3,77.6-0.1c54.5-0.8,57.8-6.9,32.3-54.8
			c-4.6-8.7-8.7-12.3-17.8-6.9C1015.1,398.8,984.6,415.6,952.9,442.9z M1386.6,479.1c-17.1,0-28.9-0.2-40.7,0.1
			c-5.5,0.2-13.6-0.3-11.6,8.5c3.9,17.1,5,37.3,15.2,49.6c8.3,10.1,24.7-3.7,37-8.7c2.7-1.1,5.7-2,8-3.7c13.7-10.5,44.2-8.1,41-28.6
			C1430.9,466.3,1401,481.2,1386.6,479.1z M666.2,1856.5c-0.5,7.9,46.9,38.1,53,32.8c15.5-13.3,36.6-26.1,41.8-43.3
			c3.6-11.8-24.2-16.8-38-24.5C709.3,1813.8,667.2,1840.5,666.2,1856.5z M542,1838.4c-21.2,12.4-41.1,27-52.8,46.4
			c-6.9,11.5,15.2,15.4,23.6,23.3c26.5,25,36.3-3.6,50.1-16.5c7.5-7,22-17.2,16.8-24.7C571.4,1854.8,555.5,1848,542,1838.4z
			 M618.9,1969.3c22.3,2.4,30.8-17.7,45.4-28c13.3-9.4,8.8-15.2-2.2-23.2c-32.6-23.6-32.7-24.4-61.9,7.3
			c-7.1,7.7-23.7,14.3-16.4,26.4C590.1,1962.5,603.8,1970.2,618.9,1969.3z M395.6,1962.2c0.8,2.3,1.7,4.6,2.5,7
			c28.1,0,56.2,0.3,84.3-0.3c4.2-0.1,10-2.9,12.2-6.3c3.4-5.2-2.4-7.9-6-11.1c-36.2-32.3-44.2-32.3-79.3-0.4
			C404.9,1955.1,400.1,1958.5,395.6,1962.2z M799.2,1798.8c0.8-14,1.6-28.5,2.4-43c0.8-13.7,1.5-27.3,2.7-48.2
			c-12.6,13.4-19.3,20.5-26,27.6c-43.3,45.2-43.3,45.2,16.9,64.9C795.9,1800.3,797,1799.5,799.2,1798.8z M1352.7,430.3
			c8.3-5.8,28.7,8.7,30.4-11c1.6-19-29.4-38.2-53.9-36.8c-7.1,0.4-18.6-5.5-18.6,10.3C1310.7,421.3,1320.9,431.3,1352.7,430.3z
			 M448.1,2686.1c3.6-3.9,6.4-6.5,8.7-9.5c37.8-48.5,47-33.8-16.2-68.3c-4.7-2.6-9.6-7.6-15.5-1.3c-4.7,5-4.4,11-2.5,16.4
			C430,2644.2,435.3,2665.8,448.1,2686.1z M752.6,1689.4c-36.2-13.7-55.6,8.3-75.3,28.3c-5,5.1-20.8,9-10.2,18.5
			c8.3,7.4,20.7,21.9,35.2,6.9C719,1725.8,735.3,1707.9,752.6,1689.4z M629,2547c42.9,25.5,57.8,17.4,73.6-37.5
			C666.8,2498,644.9,2515.3,629,2547z M510.6,1714.6c-13.1,3.5-21.9,11.4-26.1,20.4c-4.2,8.9,8.4,10.9,13.9,15.2
			c9.2,7.2,19.1,13.7,29.4,19.2c16.3,8.7,20.5-10.1,30.9-15c3.9-1.9,9.6-8.3,4.6-11.4C545.9,1732.3,527.5,1723.5,510.6,1714.6z
			 M466.5,2565.6c15.4,8.4,30.7,16.9,46.1,25.1c16.5,8.7,18.9-8.3,26.4-15.4c4.4-4.2,10.3-8.6,2.4-16.7
			C515.5,2531.9,487.7,2533.7,466.5,2565.6z M658.9,1789.5c-11.9-6.1-21.3-11.4-31.1-15.6c-9.4-4-46.9,19.6-44.5,28.5
			c3.3,12.3,17.5,14.5,26.3,21.9c7.8,6.5,14.2,3.2,20.2-3.5C639,1810.5,648.4,1800.7,658.9,1789.5z M595.8,2588.1
			c-10.2,8.6-27.2,20.6-23.5,29.8c6.2,15.4,26.8,23.8,43.1,24.8c13.3,0.8,25.1-20.5,22.2-28.9
			C632.2,2598.7,611.5,2596.6,595.8,2588.1z M341,1944.3c19.6-16.9,33-28.1,46-39.7c3.8-3.4,12.6-7.9,6.4-13.1
			c-13.1-11-26.9-26.7-43.8-25.3c-10,0.8-4.3,20.2-5.7,31.1C342.1,1910.4,342.1,1923.7,341,1944.3z M1616.5,2181.4
			c-27.3,13.7-50.5,25.3-73.6,36.9c27.1,0.3,48.9,14.2,73.6,22.1C1616.5,2220.7,1616.5,2203,1616.5,2181.4z M1156.9,324
			c0.4,2.2,0.8,4.4,1.2,6.6c20.6,0,41.2,0.6,61.7-0.3c7.6-0.3,19.7,5.9,22.2-5.9c1.7-7.7-1.5-18.1-5.9-25.1
			c-6.7-10.8-15.7-1.8-23.1,1.2C1194.1,307.9,1175.6,316.1,1156.9,324z M507.5,2697.8c28.6-2.4,53.6,0.8,79-6.8
			C538.6,2652.9,536.1,2653,507.5,2697.8z M695.5,2687.5c6.7-11.1,17.9-22,19-33.8c0.9-9.7-15.9-16.9-24.9-15.1
			c-14.1,2.8-22.3,18.4-22.9,30.7C666.2,2678.9,682.4,2681.3,695.5,2687.5z M1616.7,1948.9c-37.3,12.4-42.1,27.8-18.5,55.2
			c3.6,4.1,7.1,6.5,12.2,5.7c6.5-1,6.2-6.5,6.2-11.1C1616.8,1982.2,1616.7,1965.7,1616.7,1948.9z M752.6,2543.8
			c-2.1-0.4-4.2-0.8-6.4-1.2c-7.5,11.4-15.3,22.6-22.3,34.2c-3.6,6-12.2,12.9-2,19.8c6.3,4.3,14.3,9.5,21,8.7
			c8.3-0.9,9.7-10.5,9.6-18.7C752.5,2572.4,752.6,2558.1,752.6,2543.8z M1461.7,2455.2c28.1-7.6,51.8-14.1,80.4-21.9
			C1486.1,2414.9,1486.1,2414.9,1461.7,2455.2z M357.1,1781c14.2-15.3,34.2-21,35.6-37.7c0.8-9-16.9-15.9-29.6-20.4
			C358,1741.1,355.2,1758,357.1,1781z M1113.4,627.3c16.8,17,26.2,36.5,46.3,48.5C1152.2,623.3,1147.6,618,1113.4,627.3z
			 M1310.4,2478.2c-32.9-30.5-32.9-30.5-66.4,6.2C1266.6,2482.3,1287.3,2480.3,1310.4,2478.2z M1129.4,2477.8
			c-21.4-15.1-36.3-28.6-48-49C1074.8,2479,1074.8,2479,1129.4,2477.8z M1920.8,855.8c0,19.4,0,35.8,0,53.7
			C1954.9,885,1954.9,885,1920.8,855.8z M2108.8,692.5c31.6,36.3,31.6,36.3,54.6,5.7C2146.1,694.6,2130.3,685.3,2108.8,692.5z
			 M447.3,2507.2c-18,0-27.9-0.5-37.6,0.2c-6,0.4-15.1-3.8-16.7,6.5c-1.2,7.3,3.2,13.3,9.3,17.3
			C426.8,2547.5,430.7,2523.9,447.3,2507.2z M791.5,1895c-11.1,9.2-29.3,12.7-27,29.7c0.7,5.5,17.4,15,20.2,13.1
			C799.6,1927.5,790.9,1910.3,791.5,1895z M1107.3,2309.2c-40.3-3.9-42.6-0.4-30.3,41.9C1086.4,2338.1,1095.9,2324.9,1107.3,2309.2z
			 M576.1,1687.3c17.6,11.8,36.2,35.3,53.4,0C611.2,1687.3,593.7,1687.3,576.1,1687.3z M2312.8,1168.1c6.9-13.7,12.3-27.3,12.5-43.9
			C2286.6,1146.6,2286.6,1146.6,2312.8,1168.1z M1322.2,329.9c-13.2-16.7-20.1-33-36.4-42C1297.4,301,1280,334.6,1322.2,329.9z
			 M1243.4,610.3c-47.8-1.8-49.9-0.1-37.6,27.6C1216.9,629.8,1227.7,621.8,1243.4,610.3z M405.3,1687.1c32.7,24.1,32.7,24.1,48.5,0
			C438.9,1687.1,424.9,1687.1,405.3,1687.1z"/>
	</g>
</g>
</svg>
