<?xml version="1.0" encoding="utf-8"?>
<!-- Generator: Adobe Illustrator 23.0.0, SVG Export Plug-In . SVG Version: 6.00 Build 0)  -->
<svg version="1.0" xmlns="http://www.w3.org/2000/svg" xmlns:xlink="http://www.w3.org/1999/xlink" x="0px" y="0px"
	 viewBox="0 0 3000 3000" style="enable-background:new 0 0 3000 3000;" xml:space="preserve">
<style type="text/css">
	.st0{stroke:#000000;stroke-width:10;stroke-miterlimit:10;}
</style>
<g id="Layer_1">
</g>
<g id="Layer_2">
	<g>
		<path class="st0" d="M559.2,933.2c-30-20.9-59.6-39.9-84.2-64.9C359.6,750.9,311.4,612,347.2,449.4
			c17.7-80.6,70.6-138.8,136.8-185.2c96.1-67.4,205.3-100.2,319.7-117.6c127.9-19.4,255.4-19.4,381,15.8
			c52.2,14.6,101.5,36.1,140.3,75.5c11.5,11.7,15.3,4.7,22.8-2.8c56-56.3,121.7-95.5,200.5-110c96.1-17.7,182.4,6.9,259.2,65.2
			c16.7,12.7,24.8,12.1,39.6-2.7c61.7-61.7,140.1-90.1,224.2-102.5c181.1-26.5,347.9,6.7,490.4,127.9
			c237.8,202.2,215.6,525.1-47.7,693.6c-24,15.4-22.9,21.1-2.5,39.1c173.4,153,271.3,344.4,279.8,576.5
			c4.8,130.9,12.3,262.6-12.1,392.7c-34.7,185.5-124.8,339.8-267.5,462.8c-20.9,18-20.3,27.2-4.1,47.8
			c53.9,68.3,93.3,143.7,98.8,232.9c5.7,92-34.2,161.2-117.8,199c-194.4,88.1-386.6,95-574.9-18c-8.7-5.2-15.7-12.2-26.6-1.1
			c-95.7,97-217.9,118.5-346.9,121.7c-140,3.5-264-40.2-374.1-124.9c-14-10.8-20.5-9.3-32,3.1c-19.6,21-43.3,37.5-69.4,50
			c-141.7,67.5-289.6,93.8-445.7,68.6c-43-7-85.2-15.7-124.8-34.5c-79.7-37.7-124.5-119.1-119.2-206.9
			c7.7-129.6,63.1-233.4,162.3-314.9c13.8-11.4,15.4-16.5,1.2-29.3c-184-167-276.1-374.9-273.3-623.7
			c1.2-109.4-7.8-219.1,11.6-327.9c33.8-189.2,124.5-346.1,267.9-473.1C549.2,942.7,553.5,938.5,559.2,933.2z M966.8,810.1
			c-13.5,1.7-23.8,2.1-33.6,4.3c-304.9,69.4-505.3,252.8-591.3,553.7c-44.6,156.3-33.9,318.7-19.2,477.7
			c32.4,350.6,311.6,630.6,658.1,672.2c20,2.4,29.8-1.6,34-22.8c33-165.6-6.5-309.5-129.9-426.5c-22.2-21-8.2-29.2,2.1-43.8
			c15.1-21.3,23.9-2.2,34.2,4.7c5.9,3.9,10.4,10,15.4,15.2c120.9,129.1,165.4,280.5,129.5,453.9c-5,24.1,3.4,25,21.5,24.9
			c300.8-0.2,601.5-0.3,902.3,0c19.4,0,28.2-4.7,25-26.4c-11.6-78.3-8.6-156.4,6.7-234c19.1-97.4,56.8-187.1,112.6-269.1
			c4.1-6,6.5-15,18.7-10.5c27.6,10.1,33.4,25,17.7,49.3c-90.7,141-125.7,294.6-105.3,461.1c2.2,18.3,7.5,23.6,27.3,21.1
			c330.4-42.8,607-325.2,643.2-657.4c10.8-99,3.4-198.2,5.2-297.4c2.1-114.6-22.8-223.7-73-326.4
			c-96.1-196.5-248.9-328.6-456.5-397.4c-8.5-2.8-18.6-10.3-25.8-3.6c-7.9,7.3,1.3,17.2,3.1,25.9c9.8,46.7,14.4,93.8,14.6,141.5
			c1,221-123.2,405.8-328.1,487.5c-189.4,75.5-385.2,85-581.6,42.2c-280.8-61.2-419-270.4-375.8-554.7
			C926.4,919.4,945.8,866.2,966.8,810.1z M473.9,338.3c5.7,2.3,6.6,3,7.5,3c109.5,0.3,219.1,1.1,328.6,0.2
			c21.4-0.2,27.7,5.1,28,27.1c0.3,23.6-9.2,26.6-29.1,26.4c-105.4-0.8-210.8-0.4-316.3-0.4c-77.8,0-82.4,3.7-99.4,80
			c-0.9,4-1.3,8.2-2.3,12.2c-6.3,24.2,2.3,31.8,27.6,31.6c130.2-1.2,260.4-0.1,390.7-0.9c20.6-0.1,29,4.1,28.8,26.9
			c-0.2,21.4-5.5,27.8-27.5,27.6c-112.6-1.1-225.3-0.5-338-0.5c-95.4,0-94.7-0.2-66.5,92.6c6.5,21.3,16.9,25.9,37.4,25.7
			c112.6-1,225.3-0.3,338-0.7c18.8-0.1,32.6-1.5,32,26.1c-0.5,25.3-10.2,28.1-31.2,27.9c-103.3-0.8-206.7-0.4-310.1-0.3
			c-8,0-19-3.6-23.2,3.6c-5.5,9.3,5,16.7,9.9,23.9c31.9,46.8,73.2,83.4,121.1,113.7c18.4,11.7,31.2,11.4,49.7-0.9
			c92.2-61.4,193.1-101.5,302.5-121.1c101.7-18.2,204-10.7,306.2-11.9c100.1-1.2,99.4-0.3,102.6-101.5c0.7-22.1-5.8-24.9-26-22.7
			c-60.6,6.6-121.5,9.3-182.4,1.4c-51.7-6.7-85.3-34.1-95.6-79.1c-9.6-41.9,9.4-83.1,50.4-111.1c28.5-19.4,60.6-25.7,93.9-26.9
			c45.5-1.7,90.9-1.2,136.1,5.2c8.7,1.2,22.9,6.4,20.9-12.2c-6.6-63.6-21.6-122.4-84.6-155.8c-27.5-14.6-55.3-27.8-85.4-35.7
			c-159.1-41.5-317.2-32.4-474,12C614.5,246.4,539.6,279.9,473.9,338.3z M2650.8,659.1c-13,0-24.2,0-35.3,0
			c-141.6,0-283.2-0.3-424.8,0.3c-18.4,0.1-27.6-2.4-27.6-24.6c0-22.4,7.3-27.1,28.3-27c143.7,0.9,287.3,0.5,431,0.5
			c49.7,0,49.7,0,51.9-50.1c0-1,0-2.1,0.2-3.1c4.4-25.9-3.8-35.5-32.6-35.2c-145.7,1.6-291.5,0.4-437.2,1.1
			c-20.6,0.1-28.9-3.9-28.9-26.8c0-23,8.6-26.9,29-26.7c132.3,0.8,264.6,0.4,396.9,0.4c73.2,0,72.1,0.5,43-66.8
			c-11.8-27.3-26.6-38.2-57.6-37.8c-128.1,1.9-256.3,0.2-384.5,1.3c-23.3,0.2-26.1-9.1-26.7-29c-0.7-21.7,7.9-25.1,26.8-24.9
			c115.8,0.7,231.5,0.5,347.3,0.2c9.8,0,20.2,3.1,30.3-3.2c-5.5-14.4-16.7-23.8-27.1-33.1C2386.6,123.9,2194.8,92.2,1985.9,162
			c-114.5,38.2-150.1,96.5-151.8,216c-0.3,17.7,5.7,21,21,20c43.3-2.7,86.6-5.9,129.9-6.4c62.3-0.7,100.5,35.5,104.9,97.5
			c1.2,16.4,1.1,33.1,0.2,49.6c-3,55.1-28.4,79.8-84,82.3c-34,1.5-68.4,0.7-102.1,5c-26.8,3.4-64.2-11.5-77.9,12.7
			c-12.5,22.2-3.3,56.4-5.1,85.2c-1.2,20,5.7,27.3,26.3,26.6c41.3-1.4,82.7,0.1,124-0.5c162.5-2.2,312.4,40.3,449.2,127.8
			c14,9,24.5,10.5,39.2,2.1c71.6-40.9,129.6-95.2,170-167.6C2638.5,696.4,2648.2,680.5,2650.8,659.1z M2152,997.8
			c0.2-49.8-8.8-98.3-18-147c-5.5-29.1-19.6-40.3-48.2-43.5c-70.1-7.8-140.2-5.3-210.4-6.8c-18.8-0.4-30.3,6.3-40.9,20.9
			c-30.3,41.8-59.5,84.4-85.6,128.9c-96.4,164.4-152.6,341.8-170.7,531.5c-1.4,14.7,0.2,20.4,17.3,18.2
			c58.3-7.4,116.5-14.7,173.5-29.9C2011.3,1405.5,2152.8,1231.1,2152,997.8z M744.7,2915.4c113.8-2.9,218.8-32.8,317.6-85.7
			c43.4-23.2,65.1-61.7,72.9-108.9c7.5-45.3-3-88-19-130c-5.6-14.8-15.5-16.4-28.9-16.2c-173.4,2-331.9-46.1-474.6-144.7
			c-12.7-8.8-20.2-8.1-31.8,1.1c-81.8,64.7-135.6,146-151.5,250.5c-17.1,112.9,28.1,182.8,138.8,212.6
			C626.4,2909.8,686.4,2911.7,744.7,2915.4z M1497.7,801.6c-153.8,0-304.2,0.1-454.7-0.1c-11.4,0-16.1,6.5-20.3,15.5
			c-59,127.6-85.9,259.7-40.2,396.6c52,156,173.5,231.9,326,268.2c18.6,4.4,17.6-6.6,17.3-18.9c-5.7-190,33.2-370.8,112.4-543.1
			C1456.1,880.8,1476.7,843,1497.7,801.6z M1165.8,2574.7c24.1,65.1,33.5,127.4,11.9,191.1c-3.8,11.3,4.5,16.8,11.9,22.6
			c172.9,132.6,362.9,155.7,563.4,79c114.8-43.9,173.5-145.1,169.5-262.6c-0.8-24.1-8.6-31.1-32.6-30.6
			c-76.4,1.6-152.8,0.6-229.2,0.6C1497.6,2574.7,1334.5,2574.7,1165.8,2574.7z M1608.8,556.3c0,55.8,0.6,111.5-0.3,167.3
			c-0.3,19.5,4.8,27.9,26,26.9c35-1.6,70.3-1.8,105.3,0.1c23.2,1.2,29.2-6,29.4-29.4c0.7-88.7,2.2-177.5,7.2-266.1
			c3.5-60.6,4-121.9,18.8-181.2c4.6-18.3,0.8-27.7-13.5-38.8c-116.4-90.9-257.2-83.4-379.1,18.9c-27.2,22.9-43.9,44.4-24.2,79.8
			c3.4,6.1,4.2,13.8,5,20.9c13.6,122.3,21,244.8,2,367.2c-3.4,21.6-0.2,29.8,23.4,28.8c39.2-1.6,78.5-2,117.7,0.1
			c24.7,1.3,31.1-6.7,30.8-31c-1.3-109.4,0.1-218.9-1.1-328.3c-0.2-21.7,7.9-24.8,26.7-25.1c19.9-0.2,26.9,5.3,26.4,25.9
			C1607.9,446.8,1608.8,501.5,1608.8,556.3z M2200.9,2872.4c106.3-1.1,196.9-26.5,282.2-70.8c47-24.4,70.6-65.2,71.8-118.2
			c2.1-95.9-44-171.8-100.9-243.4c-10.5-13.2-18-3.3-25.9,1.9c-131.3,85.8-275.4,129.8-432,132.3c-19.4,0.3-24.4,5.8-23.5,24.8
			c2.9,59.8-6.9,117.6-36.2,170.5c-9.6,17.3-1.5,22.6,11.5,30.4C2028.8,2848.7,2117.2,2869.1,2200.9,2872.4z M1784.6,801
			c-70.1,0-134.1,0.8-197.9-0.5c-19.2-0.4-29.5,6.5-39,22.5c-49.4,82.6-89.5,169.5-117.9,261.4c-38.7,125.1-57.1,253.2-53.2,384.4
			c0.6,19.6,6,27.2,26.4,27.3c30.9,0.1,61.8,2.7,92.6,5.6c21.3,2,29.7-3.3,31.9-27.4c13.9-155.5,55.2-303.8,121.1-445.3
			C1685.1,950.4,1731.7,877.7,1784.6,801z M1218.2,580.1c18.1-0.8,34.6-1,51-2.5c97.3-8.3,73.4,5.6,75.2-85.9
			c0.3-15.6-6.5-22.5-21.4-23.8c-49.2-4.1-98.3-11.2-147.9-5.4c-25.8,3-50.9,8-70.7,27c-31.6,30.4-21.9,71,20.2,83.2
			C1155.8,581.7,1188.1,577.2,1218.2,580.1z M1824.1,518.6c0,9.3,1.3,18.8-0.2,27.8c-4.5,26.3,5.2,34,31.5,31.1
			c41.9-4.6,84.2-6.3,126.4-8c54.7-2.2,61-8.6,57.9-64.1c-2.8-50-19.7-65.4-70.3-63c-24.7,1.2-49.3,4-74,5.1
			C1828,450.3,1827.9,450.1,1824.1,518.6z"/>
	</g>
</g>
</svg>
