<?xml version="1.0" encoding="utf-8"?>
<!-- Generator: Adobe Illustrator 23.0.0, SVG Export Plug-In . SVG Version: 6.00 Build 0)  -->
<svg version="1.0" xmlns="http://www.w3.org/2000/svg" xmlns:xlink="http://www.w3.org/1999/xlink" x="0px" y="0px"
	 viewBox="0 0 3000 3000" style="enable-background:new 0 0 3000 3000;" xml:space="preserve">
<style type="text/css">
	.st0{stroke:#000000;stroke-width:10;stroke-miterlimit:10;}
</style>
<g id="Layer_1">
</g>
<g id="Layer_2">
	<g>
		<path class="st0" d="M2573.6,1525c0,196.1,1.1,392.2-0.3,588.3c-1.7,245-90.8,453.6-270.2,620.8
			c-154.7,144.2-340,219.3-551.5,223.5c-158.9,3.1-318.3,9.2-476.8-2.1c-335.8-24-575.5-194-720.9-496.4
			c-51-106.2-72.6-220.3-72.7-338c-0.3-395.7-0.6-791.5,0-1187.2c0.6-404.2,282.7-747.3,678.6-826.3
			c53.7-10.7,108.1-15.3,162.9-15.3c136.6,0.1,273.2-0.6,409.7,0.2c402,2.4,738.5,276,823.1,668.8c12.7,59.1,17.8,119.1,17.9,179.4
			C2573.7,1135.6,2573.6,1330.3,2573.6,1525z M2520.2,1526.2c0.5,0,1,0,1.6,0c0-192.6,0.1-385.2,0-577.9c0-44.8-2.4-89.5-9.3-134
			c-59.6-386.4-390.1-670.2-780.7-670.2c-139.4,0-278.8,0.1-418.2-0.1c-47.8-0.1-95.2,4.8-141.9,14.1
			c-372,73.6-638.4,396.3-639.2,776.1c-0.8,394.3-0.3,788.7-0.1,1183c0,56.9,5.8,113.3,18.3,168.8c81.9,365,396.5,618.2,771.8,620.5
			c131,0.8,262-0.3,392.9,0.2c113.4,0.5,223.4-16.6,326.8-64.4c291-134.6,456.9-361.7,475.7-681.8
			C2530.2,1949.8,2520.2,1737.7,2520.2,1526.2z"/>
		<path class="st0" d="M2092.8,1584c-67.6,82.9-135.4,165.7-202.5,249c-8.4,10.4-13.2,13.9-25.7,4.4
			c-42.9-32.8-80.1-71.7-120.6-107.1c-4.7-4.1-9.6-8.2-13.8-12.9c-8.4-9.2-14-9.4-21.9,1.9c-29.6,42.5-61.3,83.5-90,126.5
			c-11.9,17.8-21,18.7-34.8,4.7c-1.9-2-4.3-3.8-6.8-5c-13.8-6.4-13.3-13.9-4.7-25.6c32.8-44.4,64.4-89.8,97.2-134.2
			c7.4-10.1,9-15.8-1.5-25.1c-39.3-34.8-77.9-70.4-116.2-106.3c-8.3-7.7-12.9-7.4-19.7,1.5c-49.7,65-99.6,129.9-150.1,194.3
			c-8.1,10.3-3.6,15.2,3.4,22.4c26.6,27.2,26.1,27.1-1.8,53.4c-7.2,6.8-11.8,8.1-18.1,0c-3.9-4.9-9.2-8.7-13.1-13.6
			c-7.1-9-12.9-8.8-18.9,1.1c-3.3,5.3-7.5,10.1-11.4,15c-19.1,24.6-18.4,23.7-43.7,6.3c-15-10.3-14-17.4-3.3-30.7
			c30.9-38.3,30.2-38.8-4.3-73.6c-46.8-47.3-93.7-94.4-140.1-142.1c-8.7-9-13.3-10.2-22.3,0.1c-54.8,62.7-110.3,124.8-165.7,187
			c-4.8,5.4-9.4,10.7-7.3,18.5c4.8,17.9-6,21.2-20.1,22.8c-28.3,3.3-28.8,3.7-32.4-23.7c-20.5-159.8-21.9-319.6,0.4-479.5
			c13.1-94.2,25.2-188.6,51.8-280.4C975.3,894.8,1051.8,783,1177.9,709c88-51.7,185.1-75.2,285.5-84.9
			c133-12.8,262.8,2.8,386.8,54.7c102.1,42.8,186.1,107.8,241.9,205.5c35.2,61.7,48.4,129.8,53,199.2
			c11.1,165.6,17.9,331.4,4.6,497.4c-5.7,71.9-14.4,143.4-25.2,214.7c-1.4,9-3.6,13-14.6,11.3c-38.7-5.9-38.1-5.2-32.7-43.6
			C2085.6,1704,2093.7,1644.7,2092.8,1584z M1338,1724.1c2.5-3.6,4.6-6.9,7.1-10.1c49.8-64.7,99.5-129.6,149.7-194
			c6.2-7.9,5.6-12.4-1.6-18.9c-53.4-48.2-106.6-96.6-159.6-145.3c-6.7-6.2-10.8-8.5-18.1-0.2c-51.1,58.3-102.3,116.6-154.3,174.1
			c-9,9.9-3.2,13.9,2.8,19.9c54.2,54.5,108.4,109.1,162.6,163.6C1329.5,1716.1,1332.6,1718.9,1338,1724.1z M1834.9,1077.3
			c3.1-3.3,5.6-5.5,7.6-8.2c53-68.6,105.9-137.4,159-205.9c5.8-7.5,5-12.6-1.3-19.6c-36.5-40.6-79.9-71.9-127.8-97.7
			c-8.9-4.8-13.4-2.4-19.2,4.2c-50.5,57.1-101.3,114.1-152.2,170.9c-6.3,7.1-7.2,11.8,0,19.1c42.1,43.1,83.7,86.6,125.5,129.9
			C1828.9,1072.4,1831.6,1074.4,1834.9,1077.3z M1284.1,1311.8c-2.6-2.9-4.3-5-6.3-6.9c-44.4-40.6-89-81.1-133.2-121.9
			c-7.9-7.3-12.4-4.8-18.4,2.3c-47.1,55.5-94.3,110.8-141.8,165.9c-5.5,6.4-6.8,10.1,0,16.9c41.1,41,81.9,82.4,122.4,124.1
			c7.8,8.1,12.2,7.7,19.6-0.7c49.8-56.9,100.1-113.3,150.1-169.9C1279.2,1318.6,1281.5,1315.2,1284.1,1311.8z M1533.7,1467.9
			c3.1-3.5,5.9-6.3,8.3-9.4c32.9-42.6,65.6-85.5,98.9-127.8c7-8.8,5-13.9-2-21c-45.7-46.4-91.3-92.9-136.3-140
			c-9.1-9.6-14.1-9.5-22.7,0.5c-36.7,42.3-73.9,84.2-111.7,125.5c-9,9.8-7.9,14.9,1.4,23.4c51.5,46.3,102.5,93.3,153.7,140.1
			C1526.4,1461.9,1529.7,1464.5,1533.7,1467.9z M1453.4,1120.8c-2.9-3.3-5-6-7.4-8.5c-42.4-43.6-85.1-87-127.2-130.9
			c-8.5-8.9-12.8-6.2-19.5,1.7c-39.7,47-79.6,93.8-120.1,140c-8.7,9.9-7.9,15,1.6,23.4c43.3,38.6,86.1,77.8,128.7,117.2
			c8,7.4,12.7,7.5,20-0.8c38.6-44.2,77.7-88,116.6-132C1448.6,1127.9,1450.7,1124.4,1453.4,1120.8z M1801,1122.3
			c-0.5-6.4-4.9-9.2-8.2-12.6c-40.8-42.4-81.9-84.5-122.2-127.3c-9.3-9.8-14.6-11-24.1,0c-36.1,41.9-72.9,83.2-110.2,124
			c-9.1,9.9-9.4,15.8,0.4,25.6c45.2,45,89.7,90.6,134,136.4c7.3,7.6,10.9,9.9,18.4-0.1c34.5-45.8,69.8-91.1,104.8-136.5
			C1796.5,1128.5,1798.9,1125.2,1801,1122.3z M1621.3,931.9c-3.8-4.2-6.9-8-10.3-11.5c-41.7-43.4-83.9-86.4-125-130.3
			c-9.3-9.9-13.7-9.1-21.9,0.6c-36.9,43.9-74.3,87.4-112,130.6c-7.3,8.4-8,13.5,0.5,22c42.6,42.5,84.6,85.6,126.5,128.9
			c7.1,7.3,11.5,9.6,19.4,0.5c38.1-43.8,76.8-87.1,115.2-130.6C1616.3,939,1618.5,935.6,1621.3,931.9z M1140,799.4
			c-4.2,3.3-8.1,6-11.6,9.1c-51.8,46.5-90.8,102-117.7,166.2c-4.2,9.9-1.4,14.9,5.6,21.2c34.8,31.3,69.5,62.8,103.6,94.9
			c8.8,8.3,13.7,7.8,21.3-1.3c40.5-48.1,81.3-95.9,122.7-143.3c8-9.2,6.7-14.2-1.2-22.1c-37.4-37.7-74.3-76-111.4-114
			C1147.9,806.6,1144.3,803.4,1140,799.4z M2040.1,897.3c-55.2,71.8-108.3,141.3-162.1,210.1c-8.1,10.4-1.9,14.4,3.9,20.4
			c32.1,33.3,64.4,66.3,95.9,100.1c9.1,9.8,13.9,10.2,21.7-1.2c24.6-35.7,49.1-71.6,75.7-105.7c14.3-18.4,20-35.9,16.3-59.3
			C2082.8,1005.5,2072.8,950.2,2040.1,897.3z M1590.8,672.6c-18.4-6.3-33.1,5.2-45.8,23.5c-7.9,11.4-17.3,22-27.2,31.9
			c-8.3,8.4-7.5,13.9,0.6,22.2c43.6,44.4,86.9,89.1,129.5,134.4c7.5,8,10.9,7.3,17.5-0.2c44.8-50.9,89.7-101.7,135.1-152
			c10.4-11.5,7.9-15.7-5.8-20.4C1730.2,690.1,1663.8,677.8,1590.8,672.6z M2103.8,1462.3c-1.5-11.7,5.1-24.6-5.7-35.6
			c-31.8-32.4-63.1-65.3-94.5-98.1c-5-5.2-8.2-8.4-14-0.2c-34.7,49-69.7,97.7-104.9,146.3c-5.1,7-2.6,10.9,2.3,15.9
			c36.3,36.8,72.6,73.6,108.5,110.8c7.1,7.4,11,7.2,17.5-1c24.7-31.2,49.6-62.3,75.4-92.5
			C2099.9,1494.4,2107.3,1480.6,2103.8,1462.3z M1839.5,1159.2c-3,3.2-5.5,5.5-7.6,8.2c-36,46.5-71.7,93.2-108,139.4
			c-6.5,8.2-4,12.9,2.3,19.2c36,36.3,72,72.7,107.4,109.5c7.9,8.2,11.4,6.1,17.1-1.9c33.2-46.8,66.6-93.4,100.4-139.7
			c6-8.2,6.6-13.7-1-21.4c-33.9-34.5-67.1-69.5-100.7-104.3C1846.6,1165.2,1843.4,1162.7,1839.5,1159.2z M1680.3,1364
			c-31.1,40.3-66.2,86.3-101.9,131.8c-6.6,8.4-1.8,12.1,3.6,17c39.3,35.7,78.7,71.3,117.8,107.4c7.2,6.7,11.3,7.9,17.7-1.2
			c28.5-40.6,57.6-80.7,86.7-120.9c4.9-6.8,7.4-12.4-0.5-19.6C1762.4,1440.7,1721.6,1402.5,1680.3,1364z M1970.3,1651.5
			c-2.3-3.1-4.1-6-6.4-8.4c-35.5-36.6-71.3-72.9-106.5-109.8c-8.3-8.7-11.8-4.9-17.1,2.6c-27.9,39.2-55.9,78.4-84.3,117.2
			c-6.3,8.5-5.5,13.8,2.4,20.8c34.4,30.7,68.4,61.8,102.1,93.2c7.2,6.8,11.2,7.3,17.7-1c28.1-35.6,56.9-70.6,85.5-105.9
			C1965.7,1657.6,1967.7,1654.8,1970.3,1651.5z M925.2,1710.1c1.7,0.5,3.4,1.1,5.1,1.6c46.3-52.1,92.1-104.6,139.1-156.1
			c10.7-11.8,11.3-18.2-0.6-29.6c-37.3-35.9-73.1-73.3-109.8-109.8c-5.2-5.2-10.2-16.1-17.2-12.7c-8.7,4.2-16.2,13.2-18.9,23.9
			c-0.7,2.7-0.3,5.6-0.5,8.4c-4.6,58.7-5,117.4-3.3,176.2C920.1,1644.7,923.1,1677.4,925.2,1710.1z M1176.4,772.3
			c40.5,37.9,79.9,73.6,117.7,110.9c11.6,11.4,16.6,8.7,25.4-2.1c26.6-32.4,54.2-63.9,81.3-95.9c12.1-14.3,33.4-27.3,33.3-43.6
			c-0.1-16.5-23.6-27.2-35.2-41.9c-8.1-10.3-17.2-12-29.3-9c-33.2,8.3-65.9,18.1-98,29.9C1240,732.2,1210.5,747.6,1176.4,772.3z
			 M987.1,1039.3c-27,90.3-38.9,180.2-51.4,270c-0.5,3.7-1.9,9,3.3,10.8c5.2,1.7,7-3.4,9.5-6.4c46.9-54.6,93.7-109.2,140.7-163.7
			c5.4-6.2,7.3-10.8,0.1-17.4C1055.7,1102.3,1022.4,1071.6,987.1,1039.3z M2104.5,1347.5c0-51.8-2.3-108.3-6.4-169.8
			c-24,33.4-44.9,62.7-66.1,91.8c-3.9,5.4-4.8,9.7,0.5,14.4C2057,1305.5,2081.4,1327.1,2104.5,1347.5z M1452.2,678.9
			c5.4,8.6,11.6,20.2,19.8,19c9.8-1.4,16.3-12.8,21.5-23.7C1478.7,673.5,1465.7,673.8,1452.2,678.9z"/>
		<path class="st0" d="M1946.2,2090.1c18.9,0,37.8,0.6,56.7-0.2c12-0.5,17.2,1.8,17.2,15.7c-0.1,36,0.7,36-34.8,36
			c-31.5,0-63-1-94.5,0.4c-17.3,0.8-22.6-5.7-20.5-21.5c0.5-3.4,0.5-7,0-10.5c-2-14.9,2.5-21.6,19.2-20.2
			C1908.3,2091.3,1927.3,2090.1,1946.2,2090.1z"/>
		<path class="st0" d="M1547.8,2090.1c19.5,0,39.1,0.6,58.6-0.2c11.6-0.5,15.5,3.2,15.8,15.2c0.9,36.5,1.4,36.5-34.4,36.5
			c-32.8,0-65.6-0.6-98.4,0.3c-12.9,0.3-16.5-3.7-16.5-16.6c0-35.1-0.6-35.1,35.1-35.1C1521.3,2090.1,1534.5,2090.1,1547.8,2090.1z"
			/>
		<path class="st0" d="M1131.7,2085.9c7.7,0,15.6,1,23-0.2c21.3-3.5,26.7,4.8,26.7,25.9c0,21.2-5.5,28.4-26.8,26.3
			c-19.4-1.9-39.1-0.9-58.7-0.2c-11.2,0.4-13.9-4-14.2-14.6c-1.1-37.1-1.6-37.1,35.3-37.1
			C1121.9,2085.9,1126.8,2085.9,1131.7,2085.9z"/>
	</g>
</g>
</svg>
