<?xml version="1.0" encoding="utf-8"?>
<!-- Generator: Adobe Illustrator 23.0.0, SVG Export Plug-In . SVG Version: 6.00 Build 0)  -->
<svg version="1.0" xmlns="http://www.w3.org/2000/svg" xmlns:xlink="http://www.w3.org/1999/xlink" x="0px" y="0px"
	 viewBox="0 0 3000 3000" style="enable-background:new 0 0 3000 3000;" xml:space="preserve">
<style type="text/css">
	.st0{stroke:#000000;stroke-width:10;stroke-miterlimit:10;}
</style>
<g id="Layer_1">
</g>
<g id="Layer_2">
	<g>
		<path class="st0" d="M1422.8,936.8c22.8-42.4,46.9-80.7,74.6-117c76.9-100.6,180.4-152.7,303.4-171.3
			c123-18.7,246.4-14.3,369.7-7.1c121.2,7.1,241.9,20,361.7,40.3c202.9,34.3,365.4,183.4,410.4,377.9
			c14.2,61.5,17.1,124.5,16.7,187.2c-0.7,123.5,5.7,247.6-10.9,370.1c-29.1,215.1-109.6,405.2-285.9,543.9
			c-61.1,48.1-131,78.2-205.3,99.4c-92.2,26.3-184.5,51.4-281.1,55.4c-70.5,3-140.7-3.6-210.9-7.3c-103.6-5.4-206.9-2.4-310.3,3.3
			c-68.2,3.8-136.3,10.3-204.5,0.7c-100.2-14.1-184.1-59.3-253.7-132.1c-20.8-21.8-21.1-21.9-44.7-1.8
			c-87.8,74.5-190.9,112.3-304.1,122.2c-157.5,13.7-315.6,13.6-473.6,13.1c-64.7-0.2-127.4-13.8-185.7-42.8
			c-61-30.4-94.1-79.6-98.8-148.9c-7.2-107.5,3.8-213.5,20.2-319.3c2.9-18.5,2.9-34-9.8-50c-27.3-34.3-36.1-75.5-37.5-118.3
			c-3.3-104.3,4.3-208.2,13.4-312c7.5-85.8,9.6-172.7,24.9-257.1c20.2-111.1,50.8-220.3,123.2-312c63.6-80.5,150-113.8,248.9-121.2
			c184.8-13.8,369.6-12.1,554.3,0.3c43.4,2.9,86.4,9.9,128.3,21.7c90.3,25.5,155.6,83.4,205.3,160.7
			C1385.3,852.7,1404.5,893.1,1422.8,936.8z M1443.1,1585.5c-1.7,5.9-3.3,9.7-4,13.6c-14.6,86.3-28.3,172.8-63.2,254
			c-5.1,11.9,2,12.3,10.5,12.7c27.6,1.3,55.1,3,82.7,4.3c181.3,8.3,362.6,16.4,544,21.9c76,2.3,152,4.2,226.8-11.6
			c154.2-32.8,270.6-121.5,361.4-247.7c52.2-72.5,77-153.7,76.8-242.2c-0.2-90-26.9-174.1-65.2-254.3
			c-23.7-49.6-61.6-87.9-109.8-115.1c-85.3-48.2-178.7-64.6-274.8-63.5c-114.5,1.4-204.1,51.3-264.4,150.2
			c-66.6,109.2-51.2,219.4,42.6,306.4c26.1,24.2,25.9,24,3.7,51.3c-6.1,7.5-10.6,9.2-18.5,2.8c-71.8-57.8-117.2-130.3-118.8-224.4
			c-2.4-138.7,113.4-286.2,251.2-321.9c129.2-33.5,253.7-12.3,373.4,38.9c84.1,35.9,142.1,100.4,176.3,185.7
			c13.1,32.7,24.6,65.9,34,99.7c38.1,136.8,29.5,269.4-48.6,390.1c-138.3,213.8-336.6,317.2-592.1,308.5
			c-235.9-8-471.7-17.2-707.3-30.2c-9.2-0.5-13.4,2-17.1,9.8c-32.3,68.3-73,131.2-122.8,188.1c-5.7,6.4-6.2,10.6-0.3,17.3
			c54.8,62.3,120.7,106.4,202.2,125.6c67.5,15.9,135.8,11.9,204,7.1c132.4-9.3,265.1-13.5,397.1-1.8
			c141.4,12.5,277.4-5.9,412.2-46.4c85.1-25.5,164-61,230.1-121.5c141.4-129.4,211.2-295.6,232.4-481
			c17.8-155.5,16.3-312.8,6.1-469.3c-13.2-200.9-162.1-368.1-361-407c-105-20.5-211.3-31.9-317.9-39.6
			c-137.7-9.9-275.6-19.4-413,2.5c-65.6,10.5-129.8,26.5-184.9,66.6c-81.6,59.5-135.1,140.4-175.6,231.2c-3,6.7-2.7,13.2-0.7,20.1
			c37.7,132.7,34.9,267.1,17.3,402.3c-3,23-13.3,46.1-6.8,69.1c11.4,40.6,28,79.3,53,113.8c36.5,50.3,81.1,87.2,145.8,95.4
			c160.2,20.3,320.6,17.1,481.1,6.4c36.5-2.4,71.7-12,103-33.6c136.5-94,185.3-300.5,105.8-450c-42.9-80.8-114.8-114.7-205.9-95.5
			c-17.5,3.7-27,2.2-28-17.4c-0.1-2-1.2-4-2.1-5.8c-8.8-16.9-2.1-23,15.2-26.5c122.8-24.9,224.7,23.4,273.6,138.8
			c65.9,155.6,44.8,302.6-60.6,435.1c-49.2,61.8-114,99.8-194.4,105.3c-159.2,11-318.3,12.9-477.4-3.6
			c-83.2-8.6-146.6-48.5-194.5-115.3C1464.5,1619.6,1454.6,1603.2,1443.1,1585.5z M158.8,1820.5c-8.7,56.1-15.5,109.7-18.5,163.9
			c-0.8,14.7,3.8,18.2,17.7,19.6c147.8,14.5,294.9,10.4,441.2-14.6c103-17.6,203.4-43.3,295.7-94.7
			c70.8-39.3,134.5-86.6,181.1-154.2c84-122,112.8-258,95.3-403.3c-16.9-141.2-92-240.8-225.2-294.6
			c-45.4-18.4-92.2-32.5-139.6-44.4c-168.7-42.4-318.5,22.6-393,170.1c-36.9,73-38.4,145.8,2.2,217.5c35.7,63,94.3,85.3,162,60.4
			c21.1-7.8,31.7-5.6,37.5,15.9c0.9,3.3,2.8,6.3,4.6,9.2c4.8,7.8,2.5,12.2-5.8,15.8c-53.8,22.8-107.9,28.3-162,1.8
			c-79.6-39.1-130.2-149-114.5-247c30.1-187.7,213.9-326.9,403.3-305.7c93.5,10.4,182.7,36.9,266.2,78.9
			c105.4,53,172.9,139.1,202.7,253.7c24.3,93.4,21.5,187.1,2.1,280.9c-42.1,204-166,339.1-354,419.6
			c-142.1,60.9-292.6,82.7-445.4,91.4c-86.9,5-173.9,2.7-260.5-6.7c-11.3-1.2-14.8,2-13.9,13.1c1.7,21.3,1.8,42.8,3.9,64
			c4.1,41.8,26.2,71.8,63,91.1c50.4,26.5,104.9,40.1,161,40.6c158,1.4,316.1,0.5,473.7-12.3c95-7.7,184.1-35.8,260.3-95.7
			c134.6-105.7,213.9-248.7,257-409.9c38.8-145,60.1-294.4,70.7-444.5c11.7-164.9-22.6-319.8-111.3-460.6
			c-46.7-74.1-111-125.2-199.2-143c-76.1-15.4-153.1-19.7-230.4-21c-145.6-2.4-291.3-8.1-436.3,10.2
			c-51.1,6.5-100.2,19.7-141.1,53.6c-104.3,86.4-136,209.9-157.7,333c-20.4,115.7-24.3,234.4-32.5,352c-5.4,77.7-12,155.6-3.1,233.6
			c1.8,16,5.1,31.5,13.2,45.3c50.6,86.2,125.3,141.6,224.1,152.5c145,16.1,282.6-14.9,410.5-86.1c61.8-34.5,107-83.7,131.4-151.1
			c48.3-133.5,12.9-277.2-93.4-376.5c-82.4-77-180.7-75.8-261.3,3.4c-22.3,21.9-22.3,21.9-46.2,2.3c-1.6-1.3-3-2.8-4.7-4
			c-6.8-4.9-8-9.2-1.7-16.5c81-95,202.8-123.3,301.3-57.4c120.1,80.3,180,195.8,177,340.3c-2.9,141.6-67.6,247.4-194.5,313.4
			c-76.5,39.8-157.5,66.1-242.8,78.8c-60.9,9-122.3,12.2-183.6,4.4C275.3,1898.4,214.6,1867.2,158.8,1820.5z"/>
	</g>
</g>
</svg>
