<?xml version="1.0" encoding="utf-8"?>
<!-- Generator: Adobe Illustrator 23.0.0, SVG Export Plug-In . SVG Version: 6.00 Build 0)  -->
<svg version="1.0" xmlns="http://www.w3.org/2000/svg" xmlns:xlink="http://www.w3.org/1999/xlink" x="0px" y="0px"
	 viewBox="0 0 3000 3000" style="enable-background:new 0 0 3000 3000;" xml:space="preserve">
<style type="text/css">
	.st0{stroke:#000000;stroke-width:10;stroke-miterlimit:10;}
</style>
<g id="Layer_1">
</g>
<g id="Layer_2">
	<g>
		<path class="st0" d="M230.5,864.5c-69.9-20.4-94.3-75.8-104.4-137.9c-13.5-83.2,1.1-159.9,74.4-213.3
			c63.2-46,165.1-47.3,230.7-5.1c34.9,22.5,55.9,54.2,57.6,96.5c1.6,39.5-23.4,66.8-63,70.1c-21.5,1.8-42.1-2.2-61.4-11.6
			c-11.4-5.5-22.4-12.8-35-5.2c-7.4,4.5-5.4,12.5-2.6,19c6.1,14.3,14.7,25.2,32.5,26c35.2,1.4,70.2-0.5,105.3-2.4
			c86.8-4.7,163.7-41.8,243.4-70.6c77.1-27.8,155.5-51.3,239.1-49.3c65.6,1.6,128.3,16,188.5,41.5c10.9,4.6,19.1,4.9,30.2-1.1
			c33.8-18.1,72-19.3,109.1-23.6c78.3-9,156.5-21,235.7-16.2c76.8,4.7,151.3,20.7,222.8,49.7c11.5,4.7,24.9,8.6,33.1,17
			c22.2,23,39.8,15.4,63.6,0.3c193-122.2,404.9-161.5,630.2-138.7c94.3,9.5,180.8,38.9,257.4,96.5
			c66.9,50.3,102.5,120.5,129.9,196.2c44,121.9,67.4,248.3,79.1,377c17.2,189.9,6.4,379.2-13,568.3c-12,116.4-18.1,233.4-38.8,348.8
			c-15.1,84-34.7,167-85.4,238.2c-61.5,86.5-150.2,130.3-251.1,149c-281.4,52.2-559.5,41.6-831.5-54.1c-18.6-6.5-32.3-5.7-49.6,5.3
			c-94.3,59.9-199.4,84.1-309.8,84.6c-56.2,0.3-109.1,16.6-163.8,24.2c-151.9,21-304.6,37.2-457.5,21.2
			c-163.8-17.1-297.3-98.4-409.1-216.9c-55.3-58.6-96.6-126.1-126-201.2c-16-40.9-20-83.5-20.9-126.4c-4.1-200-4.7-399.9,0-599.9
			c0.7-29.5,3.7-59.1,7.2-88.5c1.4-11.5-0.7-14.1-12.3-15.2c-76.6-7.4-108.8-40.3-116.6-117.4C42.3,1137.3,80,1080,140,1060
			c7.3-2.4,21.9,0,12.7-16.2c-38.2-66.9,0.7-132.4,52.7-164.2C213.3,874.7,221.3,870,230.5,864.5z M1842.3,765.1
			c9.6-0.7,16.7-7.4,24.8-11.8c148-79.9,303.4-129,473.7-105.9c143.9,19.5,252.7,90,309.2,229.2c26.2,64.6,36.2,132.6,37.3,201.6
			c3.4,201.1-10.1,401.3-43.1,599.7c-23,138.2-65,269.9-159.8,378.5c-61.7,70.7-138.4,116-230.7,133.1
			c-119.8,22.1-234.7,0.6-346-44.2c-21.1-8.5-26.7-3.3-33.9,15.5c-32.8,86.5-80.1,163.8-150.1,225.8c-1.4,1.2-1.4,4.1-2.2,6.9
			c35.7,12.8,71.7,22.4,107.7,32.3c238.5,65.5,478.8,64,719.1,15.4c139.2-28.1,230-113.1,265.5-253c3.3-12.9,6.8-25.6,10-38.5
			c23.3-93.6,29.5-189.6,39.4-285c16.6-159.3,31.6-318.6,32.6-479c1.2-186.9-19.9-370.5-77.4-549.2
			c-34.5-107.5-90.5-196.8-198.4-244.5c-56.2-24.9-114.8-39.3-176.1-44.6c-201.4-17.5-391.9,15.3-568,118.7
			c-58.3,34.2-58.6,33.7-35.5,97.4C1840.6,763.9,1841.5,764.3,1842.3,765.1z M617.9,2500.5c57.4,21.1,113.8,30.5,171.6,30.8
			c135.2,0.6,269.7-9.2,403.8-27.7c56.1-7.8,100.5-29.1,134.7-73.4c12.9-16.7,27.2-32.2,40.1-48.8c57-73,81.2-160.9,110.6-246.4
			c13.5-39.2,25.4-79,20.4-121.3c-6.3-52.7-27.9-75.5-80.7-79.8c-62.5-5.1-122.9,1.5-154.5,66.2c-11.9,24.3-27,11-40.4,10.2
			c-15.7-1-6.6-15.2-6.3-22.4c11.6-255.5,5.3-510.6-10.1-765.7c-7.4-123-15-246.6,4.8-369.3c7-43.5-6.2-79.6-29.3-114.5
			c-14.9-22.5-37.4-40.3-43.1-68.8c-0.7-3.4-6.5-6.6-10.5-8.3c-72.3-30-146.9-47.9-225.8-39.9c-73.5,7.5-144.2,27.8-211.3,57.2
			c-95.8,42.1-194.9,64.8-299.3,65.4c-21.2,0.1-42.3-0.5-62.3-8.3c-32.6-12.8-53.6-58.6-41.6-89.6c11.1-28.7,47.9-38.8,84.6-22.8
			c10.7,4.7,20.9,10.4,32.7,12.1c34.9,5.1,50.7-12.7,41-46.3c-4.5-15.5-12.3-28.7-24.6-39c-61.9-52.1-216.8-52.8-252.8,70.5
			c-14.6,50-11.6,98.6,8.6,146.4c14.7,34.9,37.4,59.1,78.4,59.8c13.2,0.2,26.4,2.5,39.7,2.7c118.1,1.7,235.6-8.8,353.2-16.9
			c54.5-3.7,109.4-7.9,163.2,5.2c115.9,28.2,206.7,142.3,210.6,263.2c1.8,57.9-5.8,115.4-7.9,173.1
			c-7.4,202.1-14.6,404.3-19.1,606.5c-2.1,94.8-23.2,183.8-65.2,268.2c-60,120.7-147,220.3-245.2,310.9
			C664.3,2459.7,642,2479,617.9,2500.5z M1336.9,2478.5c42.8,4.4,82-1.1,120.7-8.5c141-26.9,253.5-96.9,329.7-221.2
			c72.3-118,98.2-246.6,91.8-383.2c-10.4-221.6-20-443.1-31.3-664.7c-6.2-122.4-10.1-245.2-32.9-366
			c-25.5-134.8-34.9-153.2-161.5-189.8c-14.6-4.2-20.9-5-16.9,14.5c14.8,71.9,2.2,140.1-43.2,197.4
			c-84.5,106.7-195.4,151.6-330.9,126.1c-21.3-4-24.3-0.3-24,19.6c1.8,140.7,11.2,281,18.3,421.4c0.3,6.3-1.6,13.9,4.9,19.9
			c57.7-15.8,104.1-48.5,142.9-93c33.5-38.3,61.2-81,90.2-122.5c27.6-39.4,58.4-74.9,99.7-100.7c66.4-41.5,140.8-12.7,161.6,63.3
			c10.2,37.1-3.7,62.6-40.3,74.1c-7.4,2.3-15.2,3.6-22.6,5.9c-26.6,8.3-47.1,23.4-58,50.2c-14.7,36-29.5,72.1-45.1,107.7
			c-60.5,138.3-154.9,236.4-311.2,259.9c-14.4,2.2-17.1,8.4-16.8,21.4c0.6,35.1-0.4,70.3-0.5,105.4c-0.1,40,0,80,0,119.7
			c55.6-37.1,74.9-42.6,146.4-41.6c82.8,1.1,130.1,49.3,131.3,131.9c0.7,47.8-13.1,92.4-28.1,136.8c-33.1,98.5-66.4,197-138.4,276.1
			C1361.4,2451.1,1350.2,2463.7,1336.9,2478.5z M208.8,1842.9c0,59.5-1.3,116.3,0.5,173c1.1,36.4,2.1,73.2,15.4,108.4
			c62.5,165.3,180.2,277.7,336.1,354.5c13.1,6.4,20.2,0.4,28.6-6.6c82.6-68.5,159.4-142.8,224.3-228.5
			c84.3-111.3,142.4-233.2,143.3-376c0.8-133.6,7.5-266.9,11.2-400.4c3.3-117.8,9.6-235.6,17-353.2c8.9-141.6-105-272.4-253.9-266.1
			c-54.6,2.3-109.1,10.8-163.5,8.9c-49.2-1.6-75.3,28.2-107.3,60.9c22.7,0,41.1-0.7,59.5,0.2c18.7,0.9,37.3,2.8,55.9,5.1
			c155.4,18.7,275.6,138,297.8,292.8c11,76.7,6.5,152.6-5.1,228.5c-12.9,84.1-29.3,167.3-65.5,245.4
			c-83.8,180.8-255.6,262.9-448.4,213.2C304,1890,256.5,1868.8,208.8,1842.9z M206.8,1515.2c0,49.2-0.1,98.4,0,147.6
			c0,9.2-1.4,18.4,7.2,25.8c60.3,51.6,127.4,84.6,209.3,75.1c92.8-10.7,152.3-69.2,201.6-142c6.3-9.3,1.1-16.5-2.2-23.9
			c-73.4-163.4-196-268.5-369.9-314c-21.2-5.6-27-0.1-30.9,19.1C207.6,1373.1,208.7,1444.2,206.8,1515.2z M343.9,1050.1
			c10.5,0,16.5-0.1,22.5,0c79,1.9,157.4,9.8,235.1,23.7c102.9,18.4,146.4,71.7,145.1,176.3c-0.7,54.7-9.6,108.8-13.9,163.3
			C725.3,1509,695.7,1596,637,1673c-110.6,145.2-273.9,173.3-417.7,69.8c-3-2.2-6-5.2-11.7-2.5c0,8.7,1.1,18.1-0.2,27.2
			c-3.1,20.5,5,32.3,23.3,42.4c46.8,25.8,95.4,46.1,147.3,58.7c144.1,34.9,279.1-18.4,359.9-142.6c35.3-54.3,58.1-114,71.3-177
			c21.8-104,41.2-208.6,26.6-315.7c-17.8-130.6-87.1-219.7-214.3-260.1c-65.2-20.7-132.2-19.8-199.5-12.2c-6.2,0.7-9.8,4.1-13.5,8.1
			C386.4,993.2,365.3,1018.2,343.9,1050.1z M1861.6,860.4c49.1-26,100.8-47.4,155.5-61.2c177.4-44.9,304.9,36.4,338.2,215.7
			c19.8,106.9,6.3,210.2-35.3,309.6c-52,124.3-139.9,210.5-271.8,248.3c-40.9,11.7-82.6,16.9-124.8,18.2
			c-15.2,0.5-20.1,5.3-18.9,20.6c2.5,33.5,4.3,67,4.8,100.6c0.2,16.2,6.3,16.7,20,14.6c224.6-33.4,414.4-203.8,470.6-423
			c57.7-225-25.9-465.6-208.9-603.6c-13.9-10.5-26.9-12.4-43.3-9.2c-90.4,17.5-175.4,49.4-256.1,93.4c-44.1,24-44.1,24-32.6,73.5
			C1859,858.5,1859.9,858.8,1861.6,860.4z M1458.7,619.2c-69.4,3-152.2,12.7-234.8,24.7c-54.1,7.9-55.4,13.6-21.5,56
			c39.3,49.1,60.2,103.2,47.2,167.2c-3.6,17.5-3.8,35.6-6.3,53.3c-1.9,13.1,2,18.8,16,22.3c103.3,25.3,192.7-2.1,269.9-71.9
			c66-59.7,87.4-134.1,65.5-220.8c-3.3-13.1-8.3-21.3-24.2-23.2C1538,623,1505.6,618.8,1458.7,619.2z M1900.9,1353
			c0,60.5,0.2,122.1-0.1,183.7c-0.1,12.9,6.2,15.3,17.5,15.1c108.8-2.1,207-32.6,282.8-113.9c93.4-100.3,127.4-222.8,122.7-357.5
			c-0.5-15.5,1.5-32.3-7.3-47.3c-48.4,33.6-48.9,35.6-66.4,88.7c-16.1,49-42,90.2-98.9,97.1c-17.8,2.2-22.6,9.6-24.7,25.5
			C2111.8,1359.5,1982.6,1412.7,1900.9,1353z M1260,1565.6c0.8,0,1.6,0,2.4,0c0,21.1,1.3,42.3-0.4,63.2
			c-1.6,19.6,5.7,23.8,23.7,20.6c123.3-21.9,199.4-103.3,256.7-206.1c19.2-34.4,31.7-72.9,44.9-110.3c20-56.7,55.2-94.9,116.6-105.2
			c9.7-1.6,17.2-6.5,16.9-18.7c-1-41.5-53.2-74.4-90.1-56.2c-31.9,15.8-59.3,37.6-80.4,66.5c-27.2,37.2-53.6,74.9-80.5,112.2
			c-39.3,54.4-85.2,101.2-146.6,131.6c-20.9,10.4-52.8,7.8-61.5,30.5C1253.6,1514.8,1260,1541.5,1260,1565.6z M694,1399.1
			c7.7-61.1,16.6-118.1,13.1-175.5c-3.7-59.4-30-91.2-86.3-104.6c-94.6-22.5-190.9-30.3-288-29.1c-7.5,0.1-18.3-1.8-20.1,7.5
			c-1.9,10.1,10.2,10,16.4,12.9c123.8,58.3,231.5,138.3,323.1,239.9C665.5,1365.1,678.2,1380.6,694,1399.1z M654.1,1569.6
			c17.6-34.2,26-67.8,31.7-102.2c1.7-10.5-3.5-17.7-9.3-25.3c-98.4-131.2-222.4-230.5-371-299.6c-14.7-6.8-20.8-3.1-26.3,9.9
			c-9.5,22.2-18.7,44.6-29.6,66c-9.1,17.9-5,24.1,14.7,28.9c133.7,32.8,241.9,104.7,325,214.6
			C614.1,1494.8,634.2,1530.6,654.1,1569.6z M1886.7,1163.9c29.5-18.5,57.8-32.8,90.2-36.6c12.3-1.5,6.4-9.1,3.9-15.5
			c-17.2-43.2-5.7-79.3,27.8-109.7c18.7-17,39.8-29.8,63.9-37.9c5.4-1.8,15.6-0.6,12.9-12.2c-10.9-46.6,1.5-87.4,33.1-122.9
			c-2.9-1.6-4.1-2.9-5.3-2.9c-86.6,1-164,32.9-239.5,71.5c-8.8,4.5-8.6,10.9-7.7,19.5c4.2,41.1,7.7,82.3,11.1,123.5
			C1880.4,1080.7,1883.4,1120.9,1886.7,1163.9z M2289.1,1783.5c-0.7,6.4-1,19.8-3.6,32.7c-2.9,14.2,2.5,16.8,15.5,17
			c78.1,1,145.1-75,136.1-155.1c-7.2-64-49-105.8-93.1-146.3c-9.6-8.8-13.4,0-18.1,5.8c-20.5,25.6-42.4,50.1-67.1,71.7
			c-9.4,8.2-10.2,14.6-4.4,25.5C2278,1679.1,2287.6,1726.9,2289.1,1783.5z M2249.5,1774.4c-0.4-39.6-8.9-77.2-25.3-113.3
			c-5.5-12.2-9.5-15-21.2-6.2c-34.4,25.8-71.5,47.3-111,64.2c-11,4.7-15.2,10.6-15,22.6c0.9,46,1.3,92,0.9,138
			c-0.1,12.1,4,16.5,15.6,17.2c30.5,1.9,60.6,1.4,90.3-7.5c38.9-11.6,59.6-37.7,63.4-77.6
			C2248.3,1799.4,2248.7,1786.9,2249.5,1774.4z M2133.2,1181.2c25.8,2.8,45.7-9.6,60.3-30.9c15.8-22.9,24.2-48.4,25.5-76.5
			c0.6-12.1-3.1-17.5-15.5-20.9c-27.2-7.4-55.2-16.8-74-37.8c-20.6-23-39.7-18.1-61.8-6.8c-16.2,8.2-30.2,19.2-42.4,32.6
			c-11.9,13.1-16.6,29.2-11.6,45.6C2027.3,1131.7,2083.7,1185.6,2133.2,1181.2z M411.7,908.9c-46.9-12.9-89.3-17.1-132.1-14.9
			c-32.9,1.7-59,18.2-80.7,42c-25.2,27.6-29.4,58.8-12.5,87.9c18.7,32.3,54.6,48.6,89.2,41.1c6.4-1.4,12.1-3.3,15.7-8.8
			C325.6,1004,365.1,956,411.7,908.9z M1971.9,1337.2c61.3-0.4,104.3-36.5,115.5-91.8c4-19.5,2.9-33.1-19.6-41.3
			c-14.8-5.4-27.1-17.9-40-27.9c-5.5-4.3-10-9.5-17.8-10c-40.9-2.3-79.2,7-105.9,38.6c-23.2,27.5-7,57.6,5.7,85.6
			c1,2.1,2.3,4.1,3,6.3C1923.7,1326.6,1945.7,1338.7,1971.9,1337.2z M2120.2,920.5c-0.4,8.8,1.3,17.1,4.4,25.2
			c15.7,42.4,90.6,84.2,134.7,75.2c24.7-5.1,48.9-36.4,41.5-56.3c-17.2-46.3-42.9-86.7-87.1-112.3c-26.2-15.2-48-12.1-69.8,9
			C2127.1,877.6,2121.6,898.2,2120.2,920.5z M258.4,1108.5c-22.3-5.4-41.8-11.1-61.7-14.7c-39.3-7.2-81.2,13.9-98.3,48.4
			c-17.9,36.2-10.7,97.3,16.4,120.7c18.9,16.4,43.6,14.4,66.9,14.9c6.9,0.1,8.5-6.3,10-11.3C208.3,1211.8,230.4,1159.5,258.4,1108.5
			z M2037.8,1825.9c-0.1,0-0.3,0-0.4,0c0-22.6-0.4-45.2,0.1-67.7c0.3-12.5-3.3-17.1-16.3-12.7c-30.3,10.1-61.6,16.5-93.2,20.9
			c-10.8,1.5-14.8,5.1-14,16c3.4,45,5.7,90.1,4.8,135.3c-0.2,8.4,2.2,13.1,11.6,13.1c28.9-0.1,57.6-1,85.2-10.5
			c15.5-5.4,23.6-15.7,22.4-33.6C2036.7,1866.5,2037.8,1846.2,2037.8,1825.9z M2363,1494.2c28.9,28.9,56.5,53.9,77,85.3
			c22.9,35.1,22.9,34.6,58.8,11c10-6.6,11.7-11.6,4.8-21.8c-17.3-25.8-33.6-52.4-50.1-78.8c-4-6.4-7.9-11.2-16.6-9.5
			C2413.5,1485,2390,1489.2,2363,1494.2z M2145.6,2096.4c-3.1,0-6.2,0-9.3,0c-45.8,0.1-45.5,0-28.8,43.5c4.4,11.3,9.4,18.3,23,17.8
			c25.5-1.1,51.1-1,76.7-1.2c8.6-0.1,12.3-2.1,9.8-12.4c-10.3-43.6-15-47.8-59.8-47.7C2153.3,2096.4,2149.5,2096.4,2145.6,2096.4z
			 M2551.8,1458.6c-19.1,3.4-35.9,6.4-52.7,9.5c-9.3,1.7-8.8,6.6-4.6,13.3c15.4,24.3,30.7,48.6,46,73c2.7,4.4,6,7.4,11.3,4.3
			c15.4-9,30.8-18.1,46.1-27.4c2.4-1.5,6-3.9,3.6-7.3c-14.9-21.7-30-43.2-45.4-64.6C2555.3,1458,2551.8,1458.6,2551.8,1458.6z
			 M2559.7,1213.4c26.6-11.1,52.6-21.4,78.1-32.8c6.7-3,0.6-7.4-1.9-10.7c-26.2-34.2-32.2-35.9-72.9-21.3
			c-5.9,2.1-11.7,4.1-17.5,6.4c-30.9,11.9-31.2,12.2-8.8,37.7C2543.4,1200.4,2548.1,1211.4,2559.7,1213.4z M2427.2,1970.5
			c-17.1-56.6-17.1-56.5-68.2-50.2c-12.3,1.5-24.8,1.9-37.1,2.9c-4.6,0.4-10,0.4-12,5.4c-3.7,9.2,18.8,41.7,29,41.8
			C2367.5,1970.6,2396.2,1970.5,2427.2,1970.5z M2638,1384.6c1-22.3-20.4-46.4-35.5-41.8c-17,5.1-33.7,11.6-50.3,18
			c-3.5,1.3-8.8,2-7.3,9.1c5,23.7,35.2,43.7,59.5,38.7c3.8-0.8,7.6-2.2,11.4-2.2C2632.5,1406.4,2640,1398.3,2638,1384.6z
			 M2399.1,2006.8c0,0.3,0,0.6,0,0.9c-14,0.7-27.9,1.1-41.9,2.1c-4.8,0.3-11.2-1.4-10.8,7.8c0.7,21,19.4,39.8,40.5,39.8
			c7.8,0,15.7-1.1,23.3,0.2c19.3,3.1,30.7-8.2,40.8-21.4c9-11.7,0.5-28.5-14.6-29.2C2424,2006.4,2411.6,2006.8,2399.1,2006.8z
			 M2647.2,1060.4c-0.5-6.2-0.7-13.2-1.6-20.2c-3.3-25.3-32.5-39.6-53.7-26.3c-35.3,22-35.3,22-3.4,53.6c5,4.9,9.9,10,15,14.8
			c12.7,12,22.8-1.2,34.1-3.4C2648.3,1076.7,2648.7,1069.6,2647.2,1060.4z M2568.9,1104.5c-5.2-5.6-8.1-9.1-11.3-12.3
			c-34.7-35.3-34.9-35.6-76.3-9.6c-29.2,18.4-30.4,10.1-6.4,40.2c7.2,9,13.7,12.3,25.5,7.2C2521.7,1120.6,2544,1113.5,2568.9,1104.5
			z M2128.4,2058c0-0.1,0-0.1,0-0.2c14,0,27.9-0.3,41.9,0.1c9.2,0.3,12.9-2.7,9.8-12.2c-5.9-17.9-10.4-35.5-36.9-30.5
			c-16.5,3.1-34,1-51.1,1.4c-32.5,0.8-33.6,3.4-19.6,32.1c4,8.1,9,9.3,16.3,9.2C2102,2057.9,2115.2,2058,2128.4,2058z
			 M2272.7,2057.7c0,0,0-0.1,0-0.1c11.6,0,23.2,0.1,34.9-0.1c3.5-0.1,7.6,0.8,9.3-4.3c3.2-9.8-17.6-41.9-27.8-41.8
			c-21.7,0.2-43.4,1-65,1.8c-6.1,0.2-11.9-0.2-10.4,10.1c3.6,25.2,13,34.4,38.1,34.4C2258.7,2057.7,2265.7,2057.7,2272.7,2057.7z
			 M2097.1,1978.3c0-0.3,0-0.7,0-1c10.8,0,21.8,0.9,32.5-0.3c7.3-0.8,20.8,4.9,20.6-6.7c-0.2-11.3-4.4-31.6-14.3-31.6
			c-28.8,0-59.9-15.2-86.8,8c-5.6,4.8-13.7,6.7-9.4,17.7c3.9,10.1,8.7,15.1,20.1,14.2C2072.3,1977.6,2084.7,1978.3,2097.1,1978.3z
			 M2495.7,909.6c-2.2-3-3.2-5-4.8-6.3c-19.1-15.9-37.1-33.6-58-46.8c-14-8.9-22.8,8.8-32.1,16.1c-8.6,6.8,3.1,11.6,7.1,15.8
			c12.8,13.6,26.2,26.7,39.7,39.5c4.5,4.3,8.3,13.2,17,6.6C2475.1,926.6,2485.1,918.2,2495.7,909.6z M2242.9,2096
			c14.2,56,14.2,56,63.9,38.4c8-2.9,16-6,23.5-10c5.4-2.8,15.5-2.5,12.6-12.9c-2.6-9.3-6.7-16.3-19.1-15.8
			C2297.4,2096.7,2271,2096,2242.9,2096z M2283.9,1973.6c-4.4-11.8-7.3-20.5-10.9-28.9c-3.2-7.7-5.1-16.6-17.3-15
			c-24.2,3.2-49,2-75.1,9.2c10.7,11.3,3,33.3,24,34.4C2230,1974.6,2255.6,1973.6,2283.9,1973.6z M2067.6,2149.5
			c-14.5-52.9-14.5-52.9-64-52.6c-3.9,0-7.8,0.5-11.6,0c-17.2-2.3-19.9,5.6-15.2,20.2c2.8,8.6,6.4,14.6,16.3,17.1
			C2017,2140.2,2040.7,2146.6,2067.6,2149.5z M2582.7,1307.4c-35.4-47-35.1-46-73.1-31.6c-18.8,7.2-19.6,12.9-9.1,30.3
			c13.1,21.7,26.5,25.9,47.9,14.8C2558.6,1315.7,2569.8,1312.4,2582.7,1307.4z M2529.7,1006.4c15.1-9.6,29.6-18.6,43.8-28
			c1.1-0.8,1.7-5,0.9-5.7c-14.2-12.1-27.4-25.9-43.4-34.9c-9.7-5.4-16.8,8.5-24.3,14.4c-6.3,4.9-21.4,8.5-13.9,19.1
			C2502.3,984.9,2514.6,997.2,2529.7,1006.4z M2474.9,1662.2c-1.9,19,5,27,25.7,16.8c8.2-4.1,17.6-5.9,26.4-8.7
			c35.2-11.3,34.8-11,14.3-41.4c-6.3-9.3-10.9-13.5-21.6-5.8c-11.9,8.5-25,15.5-37.7,22.9C2476.3,1649.4,2471.8,1653,2474.9,1662.2z
			 M2447.5,1912.7c6.9,15.5,13.3,27.2,17.2,39.6c5.7,18,19.6,16.8,32,13c15.7-4.7,22.9-19.7,21-34.3c-1.5-11.9-7.5-25.9-25.9-23.1
			C2478.1,1910.1,2464.2,1911,2447.5,1912.7z M2469.8,1433.9c19.6-3.6,36.4-6.5,53.2-9.9c6.2-1.2,5.9-5.2,3.9-10.6
			c-10.1-27.5-24.4-34.6-51.7-25.1c-4.4,1.5-9.6,2.1-13,4.9c-5,4.1-19.8,0.5-14.1,12.6C2453.2,1416.8,2456.8,1431.2,2469.8,1433.9z
			 M2576.6,1777.3c1.9-0.3,3.8-0.6,5.7-1c3.9-16.2,7.7-32.3,11.7-48.5c3.2-13-1.5-26-12-29.7c-14-5-27.9,5.3-41.5,10.3
			c-3.4,1.2-0.8,5.3,0.7,7.9C2552.9,1736.7,2564.8,1757,2576.6,1777.3z M2645.3,1253.6c0.6,0,1.2,0,1.8,0c0-7-0.2-13.9,0-20.9
			c0.2-8.7-4-11.4-11.5-8.2c-16.2,6.9-38.7,10.5-46,22.9c-5.4,9.2,17.1,24,26.8,36.6c0.9,1.2,1.9,2.5,3.2,3.4
			c10.1,7.4,23.8,2,25.5-10.6C2646.2,1269.2,2645.3,1261.3,2645.3,1253.6z M1989.5,2058c46.6,0,48.3-1.9,33.3-29.4
			c-3-5.5-5.6-8.4-12-8.3c-15.6,0.4-31.2,0.6-46.8,0.2c-11-0.3-11.6,3.7-10.4,14C1956.7,2062.4,1975.7,2059.2,1989.5,2058z
			 M2516.9,1230.5c-13.1-15.1-25.2-29-37.2-42.9c-8-9.3-18.5-5.1-20.6,2c-4.5,15.2-8.8,31.9-3.5,47.7c3.2,9.7,9.7,17.4,22.9,9.9
			C2489.8,1240.8,2502.4,1236.7,2516.9,1230.5z M2501,1785.9c33.2-0.9,33.8-2,17.6-29.5c-4.7-8-9.3-16.1-14.2-24
			c-7.2-11.3-24.7-11.7-31.6-0.4c-8.5,14-2.3,26.2,4.7,38.9C2483.3,1781.5,2489.1,1789.3,2501,1785.9z M2622.9,1563
			c-18.4,10.6-32.9,19-47.4,27.3c-5.6,3.2-7.7,7.1-3.9,13.1c7.9,12.4,15.1,25.2,23.7,37c6.4,8.8,14.4,7.5,16.4-3.1
			C2616.1,1614.1,2618.8,1590.6,2622.9,1563z M2483.7,1868.6c-22.5-49.3-12.6-42.1-70.2-32.5
			C2427.2,1875.4,2427.2,1875.4,2483.7,1868.6z M2513.7,790.7c17.6,15.1,34,29.2,50.4,43.2c1.2,1,2.2,2.2,3.5,3
			c4.2,2.8,7.6,9.4,13.7,4.5c7.2-5.8,1.7-11.3-1.8-15.9c-9.4-12.3-19.9-23.7-29-36.2C2538.1,772.5,2526.6,772.4,2513.7,790.7z
			 M2449.4,1055.3c5.4-3,8.7-4.8,12-6.7c34.5-20.6,34.5-20.6,5-46.8c-4.9-4.4-8.9-11.5-17.3-4.6c-6.2,5.1-11.8,9.6-9.1,19.1
			C2443.4,1028.1,2445.8,1040.3,2449.4,1055.3z M2462.2,828.2c19.5,16,39.3,31.9,58.7,48.3c6.8,5.8,12.1,5,17.9-0.8
			c8.8-8.8-0.7-12.1-5.1-16c-13.3-11.8-28-22.2-40.5-34.8C2481.4,813.1,2472.5,814.4,2462.2,828.2z M2422.7,1365.2
			c19-6.6,34-11.8,49-17.2c5-1.8,7.7-5.1,3.9-10.5c-7.1-10.1-13.8-20.7-21.6-30.3c-6.6-8.1-12.6-4.3-15.3,3.8
			C2433.3,1327.7,2428.8,1344.6,2422.7,1365.2z M2395.3,741.3c-8.8,0.2-11.7,6.5-15.9,10.6c-3.4,3.3-2.1,6.9,1.4,9.7
			c14.3,11.7,28.7,23.3,43,35.2c7,5.8,11.1,0.1,16-3.3c3.1-2.2,8.2-5.7,5-8.6C2428.4,769.6,2411.3,755.3,2395.3,741.3z
			 M2509.9,1825.2c10.2,14.6,4.9,42.2,33.6,38.9c17.3-1.9,21.1-20.3,17.5-30.6C2550.9,1804.4,2527.5,1831.5,2509.9,1825.2z
			 M2285,682.2c18.4,15.4,34.4,28.2,49.6,41.9c9.4,8.5,14.2,2.5,20.5-3.7c8.2-8,0.8-11.5-3.6-16.6
			C2334.9,684.4,2313.3,680.3,2285,682.2z M2385.2,1878.6c-7.3-23.4-7.7-24.5-18.9-20.2c-21.3,8.4-43.3,12.7-65.9,14.6
			c-4.3,0.4-10.9-0.5-10.9,5.8c0,7.6,6.9,7.1,12.3,6.7C2328.9,1883.4,2356.1,1881.1,2385.2,1878.6z M2574.7,898.3
			c-2.7,2-6.9,4.2-9.8,7.6c-3.5,4.1,0.2,7,3.2,9.5c13.2,10.9,26.6,21.6,39.7,32.6c4.9,4.1,9.5,5,14.4,0.4c2.1-1.9,5.9-2.3,5-6.6
			C2626.6,938.3,2580,898.4,2574.7,898.3z M2395.1,821.7c-1.8-0.8-5.1-1.5-7.5-3.4c-10.9-8.8-21.7-17.8-32.4-26.9
			c-3.8-3.2-7.7-6.3-12.3-2.6c-5.7,4.6-2.6,9.4,0.6,14.2c7,10.3,13.6,20.9,20.8,31.1c2.7,3.8,4.1,12,11.7,6.4
			C2382,836.1,2389.7,833.2,2395.1,821.7z M2421.2,711.6c14.6,12.5,30.1,24.1,43.5,37.8c13.4,13.6,23.7,13.8,35-2.9
			C2475.7,729.8,2451,716.5,2421.2,711.6z M1969.3,1982.7c10-5.6,30.9,5.8,30.4-9.2c-0.6-15.4-19.5-1.5-29.7-4.6
			c-0.7-0.2-1.6-0.2-2.3,0c-9.6,2.9-28.3-5.4-27.7,5.8C1940.6,1989.7,1958.9,1978.7,1969.3,1982.7z M2625,1487.5
			c5.6-15.1,11.9-30.4,3.9-41.5c-4.2-5.8-17.8,1.5-29,4.9C2609.4,1464.7,2617.2,1476.1,2625,1487.5z M2384.9,1447.2
			c15,2.3,24.8-2.9,35.9-4.9c-2.7-10.9-8.9-24.9-15.8-24.3C2392.9,1419,2393.5,1435.4,2384.9,1447.2z"/>
		<path class="st0" d="M1136,1932.9c0.3,2.2,2,12.9-3.8,19.4c-2.8,3.1-7.8,4.9-16.4,4.9c-21.7,0.2-19.1-12.2-19.2-25.4
			c-2.2-194.4-4.4-388.7-6.6-583.1c-1.9-167-3.5-334.1-6.1-501.1c-0.3-18.5,4.9-23.2,23.1-23.4c21.1-0.3,17.5,12.8,17.5,24.5
			c0.1,181.1,0.1,362.2,0.1,543.3C1129.3,1698.3,1133.4,1914.3,1136,1932.9z"/>
	</g>
</g>
</svg>
