<?xml version="1.0" encoding="utf-8"?>
<!-- Generator: Adobe Illustrator 23.0.0, SVG Export Plug-In . SVG Version: 6.00 Build 0)  -->
<svg version="1.0" xmlns="http://www.w3.org/2000/svg" xmlns:xlink="http://www.w3.org/1999/xlink" x="0px" y="0px"
	 viewBox="0 0 3000 3000" style="enable-background:new 0 0 3000 3000;" xml:space="preserve">
<style type="text/css">
	.st0{stroke:#000000;stroke-width:10;stroke-miterlimit:10;}
</style>
<g id="Layer_1">
</g>
<g id="Layer_2">
	<g>
		<path class="st0" d="M2593.4,1207c45.8,40.5,87.6,79.5,121.6,125.4c162.8,219.5,226.5,460.7,154.3,729.4
			c-26.8,99.8-77,188.4-147.9,264.1c-17.2,18.4-20.4,26.2,4.2,42.1c115.5,74.4,148.5,223.8,71.6,322.6
			c-57.3,73.6-134.1,110.7-228.1,107.6c-118.7-3.9-211-81.6-236.1-199c-4-18.6-9.3-21.7-25.7-14.7c-16.6,7.1-39.3,7.3-49.7,19.1
			c-11.5,13,4.3,33.2,6.6,50.5c12,89.6-21.4,143.4-110.4,159.2c-143.9,25.6-289.6,32.2-435.1,17.7c-76.6-7.6-123.2-56.6-133.4-132.9
			c-3.3-24.5-12.8-31.3-35.2-33.4c-48.2-4.4-47.6-5.2-63.7,39.5c-31.5,87.6-93.5,136.7-186.8,143.9c-72.6,5.7-144.6-2.9-216.1-14.3
			c-57.3-9.2-88.1-48.9-105.8-100.6c-5.2-15.2-7.8-31.3-12.9-52.2c-10.2,12.7-18.1,22.6-26.1,32.3c-121.8,147.8-329,181.8-475,70.7
			c-40.2-30.6-68.8-38.3-117.2-24.1c-103.5,30.4-236.9-19.5-263.3-167.7c-10.9-61.1-16.4-123-13.1-184.8
			c5.5-103.7,72.3-174.7,176.8-194.1c31.2-5.8,62.5-7.5,93.8-4.4c14.4,1.4,20.6-1.1,20.9-17c2.4-112.4,5.2-224.7,8.7-337
			c0.5-16.4-5.6-16.1-18.1-12.9c-30.5,7.8-61.5,13.7-93.2,9.6c-88.6-11.5-147.8-68-160.7-160.4c-15.9-113.6-4.7-226.3,28.5-335.8
			c17.1-56.5,51.1-102,110-123c40.4-14.4,80.7-10.6,120.3,2.9c15.2,5.2,23.4,7,23.6-14.4c1.1-93.3,3.6-186.6-0.5-280
			c-0.8-16.8-4.9-22.5-22.9-22.4c-40,0.1-78.9-5.2-115.7-24.9c-43.1-23.1-69.1-57.5-74.3-104.7c-7.6-69.4-4.6-139.4,8.1-207.7
			C193,486,271,419.3,381.3,408.5c66.9-6.6,122.6-26,181.5-62.1c155.9-95.4,323-95.5,489.1-20.6c25.8,11.6,41.9,11.2,65.1-6.9
			c204-158.9,498.5-158.4,709.3,0.5c17.8,13.4,29.3,12.6,47.3,1.9c222.4-133.2,460.9-168.8,711.8-107.8
			c137.3,33.4,230.8,117.2,259.9,261.5c8.1,40.3,11.1,81.3,11.9,122.1c1.8,97,10.9,193.8,3.4,291.1c-12,156-97.6,252.6-238.2,307.9
			C2614.6,1199.3,2606.6,1202.1,2593.4,1207z M1779.5,2629.6c57.9-5.5,123.3-6.5,188.4-15.4c133.5-18.2,263.7-48.6,388.7-99.2
			c145.2-58.8,275.6-140.1,369.7-268.4c111.8-152.4,146.5-325.2,114.5-509.4c-43.3-248.8-168.1-444.7-393.3-568.2
			c-117.1-64.2-245-91.4-377.5-101.1c-251.7-18.3-491.3,24-715.6,141.7c-325.9,171.1-484.8,530.6-387.2,875
			c61,215.4,186.6,379.2,392.2,475.1C1490.1,2620.7,1629.9,2633.8,1779.5,2629.6z M421.4,1623.6c-3.6,181.8-7.6,378-11.4,574.2
			c-2.5,128.5-9.6,257.1,2,385.6c6.6,73.1,27.3,139.2,97.7,176.4c110.1,58.2,219.7,60.4,322.8-14.2
			c72.2-52.3,127.4-118.6,146.9-209.9c10.5-48.9,33.4-93.7,67.2-130.8c17.1-18.8,9.9-29.7-1.9-45.5c-14.9-20-25.1-2.3-35.6,3.2
			c-44.7,23.5-89.5,46.3-140.3,54.5c-86.7,14.1-150.9-27.3-170.4-112.4c-5.9-25.9-10.8-52.5-11.6-79
			c-6.5-216.1-13.2-432.3-17.4-648.4c-4.6-236.2,0.6-472.4,10.2-708.5c7.2-178.7,88.5-308.7,248.6-386
			c45.4-21.9,81.4-48.5,109.9-89.2c11.8-16.9,7.8-20.8-7.8-27.3C940.7,329,848.5,311,751.5,327.2c-99.4,16.6-188.9,52.5-252.7,135.2
			c-54.7,70.9-74.2,153.8-74.9,241.1c-0.7,86.6,3.4,173.3,5.1,260C433.3,1178.8,420.8,1393.9,421.4,1623.6z M1594.9,1064.4
			c117.8-32.7,232.4-48.2,349.1-46.8c13.1,0.2,18.1-6.8,22.4-17.4c36.6-91.1,51-186.2,37-282.8c-33.3-231.4-164.7-380.8-387.9-448.9
			c-195.7-59.7-419.6,5.5-545.9,161.5c-113,139.5-145.3,300.9-116.5,475.5c24.1,146.5,100.2,258.9,228.1,335.6
			c10.6,6.4,19.4,13.2,32.9,2.6c49.5-39.1,103.5-71.1,160.7-97.6c11.1-5.2,15.2-11.5,15-23.8c-0.4-46.4,11.1-90.1,30.4-132.3
			c13.2-29,24.1-59.3,19.7-97c-20.2,19.2-38.8,34.7-60,46.8c-68.3,39-149.8,7.1-165.9-65.3c-19.6-88.3,33.2-178.1,120.3-203.2
			c41.5-11.9,83.9-16.7,127.1-13.6c123.7,8.9,210,115.7,193.8,238.1C1647.3,954.3,1626.1,1007.7,1594.9,1064.4z M2012.9,1017.2
			c49.1,2,95.5,5,141.8,11.2c47.2,6.4,93.7,16.3,139.6,28.8c8.7,2.4,17.7,4,19.4-8.8c8.3-65.1,22.2-129.8,17.8-195.8
			c-2.2-34.1-26.3-46.5-58.8-33.7c-26.5,10.4-52.7,22.1-81.8,23.4c-35.1,1.5-70.4,0.9-89.4-35.6c-19.7-37.8-5.2-72.4,16.4-104.2
			c11.2-16.5,26.9-29.2,43.8-40.3c66.1-43.4,136.9-46.4,210.9-26.4c52.9,14.2,88.8,46.6,105.6,98.5c15,46.5,21.7,94.5,19.4,143.5
			c-3.5,76.1-7.7,152.1-11.4,228.1c-1.5,32.1,39.4,68.2,71.1,60.4c125.6-31,249.1-115.3,256.3-287.6c4.8-114.4,0.1-228.6-8.1-342.4
			c-10.9-150.3-86.5-237.7-232.5-277.5c-72.1-19.7-146.3-23.8-220.6-24.9c-168.6-2.5-321.7,48.7-465.2,134.5
			C2061,558.5,2094.6,774.9,2012.9,1017.2z M371.6,1538.4c1.9,0,3.8,0,5.8,0c0-62.8-0.4-125.5,0.1-188.3
			c0.5-62.3-2.6-66.6-65.2-77.4c-9.3-1.6-19-2.5-28.4-1.9c-60,3.8-91.6,42.5-109.1,94.2c-34.4,101.5-43.2,206.7-29.4,312.3
			c11,84.3,58.6,126.5,131.6,127.2c24.8,0.2,49-4.6,73.1-10.8c16.9-4.3,22-12.8,21.8-29.9C371.1,1688.6,371.6,1613.5,371.6,1538.4z
			 M1250.8,2802.1c8.6,0,17.1,0.1,25.7,0c92.4-1,151.6-49,172.8-139.3c2.7-11.7,4.1-18.4-10.6-22.8
			c-129.6-38.4-241.1-106.6-332.8-206.2c-8.2-8.9-14-11-22.1-0.1c-66.3,88.5-89.7,185.6-57.4,292.9c11,36.7,37.8,59.5,76.8,63.1
			C1152.3,2794.2,1201.2,2802.4,1250.8,2802.1z M360.4,2419.1c0-46.6-0.7-93.2,0.4-139.7c0.4-15.9-5-20.9-20.4-22.6
			c-46.4-5-91.3-0.1-133.7,19.3c-51.4,23.5-82.9,62.7-87.3,120.4c-4.6,59.9,1,119.5,9.3,178.8c19.1,136.5,142.3,168,245.3,129
			c8.9-3.4,16.3-5.9,11.4-20C355.1,2598.2,360.3,2508.2,360.4,2419.1z M2579.1,2750.6c87.1,0,173.5-54.2,201-126
			c32.8-85.5-19.4-199.5-105.5-232.5c-13.9-5.3-21.3,1.4-30.1,8.9c-71.8,60.8-152,108.5-238.5,144.3c-29.8,12.3-31.7,28.2-24.3,54.4
			C2408,2693.1,2482.6,2750.6,2579.1,2750.6z M1440.7,1118.1c29.3-20.6,68-15.3,89.7-44.1c37-49.1,62.9-104.1,74.8-164.7
			c17.7-90.6-19.5-163.5-99.9-193.2c-61-22.5-122.6-15.3-180.2,11.2c-43.7,20.1-66.4,58.3-67.1,107.7
			c-0.9,64.6,42.9,92.1,100.3,62.2c12.4-6.5,23.1-16.5,34-25.6c8.7-7.3,15.9-16.4,24.6-23.8c29.2-24.8,61.7-13.8,70.3,23.9
			c2.8,12,3.3,24.2,2.7,36.8c-2.3,43.6-17.2,83.4-34.4,122.7C1443.9,1057.3,1436.7,1084.3,1440.7,1118.1z M1888.6,2784
			c39,0,78.2,2.1,117-0.5c52.1-3.5,104.7-5.3,155.3-20.8c42.6-13,57.1-33,57.5-76.9c0.1-14.3-2.2-28.3-4.3-42.4
			c-3.4-22.5-12.1-26.7-34.5-21c-102.6,26.1-207,41-312.6,49.2c-72.3,5.6-144.6,6.4-217,4.3c-9.8-0.3-21.4-4.6-18.9,14.4
			c6.9,51.6,40.4,86.5,92.1,94.4C1778.1,2793.1,1833.3,2790.3,1888.6,2784z M449,447.4c-51.1,4.8-96.2,11.9-139,31.8
			c-55.2,25.7-84.9,69.3-91.1,128.3c-4.6,44.3-6.2,89.2-6.7,133.8c-0.9,86.4,40,127.1,126.7,128.7c39.1,0.7,39.6,0.7,38.6-39
			c-2-78.9-6.5-157.7,10.8-235.7C399.6,543.9,419.1,496,449,447.4z M775.3,1245.4c-59.9,0.5-59.1,0.5-60.4,58.2
			c-0.5,20.5,2.4,27.2,25.9,24.8c31.4-3.2,56.7,13,73.3,40.6c12.4,20.6,19.2,43.3,22.8,67.1c10.8,70.2-30.3,124.6-101,131.4
			c-14.3,1.4-20.6,4.4-19.7,19.6c0.8,14,0.1,24.4,19.9,27c77.1,9.8,147.2-7.5,212.2-48.7c11.2-7.1,16.8-16.9,19.9-29.7
			c10.3-41.3,11.5-82.7,5.9-124.7c-13.9-103.4-51.6-143.7-153.4-161.6C805.8,1246.7,790.5,1246.6,775.3,1245.4z M1162.1,1285
			c-90.3-53.6-158.7-122-204.1-212.1c-7.1-14.1-12-9.8-19.7-0.7c-41.5,48.9-93.7,63.9-156.3,51.3c-66.6-13.4-66.1-12.3-65.8,57
			c0.1,19.3,6.9,22.8,23.6,19.7c27.5-5.2,55.1-2.8,82.4,1.4c106.3,16.1,182.5,66.4,197.1,187.1c1.8,14.5,4.5,29,7.5,48.4
			C1068.2,1380.3,1109.5,1329.8,1162.1,1285z M2439.3,953.5c2,0,4,0,6,0c1.6-32.3,4.5-64.6,4.4-96.9c-0.1-33.3-4.8-66.2-14-98.5
			c-8.5-29.7-23.4-55.6-52.4-67.4c-63.5-25.7-127.5-29.5-189,7.2c-22.3,13.3-42.1,29.7-50.3,56c-9.3,29.9-1.3,40.6,29.5,41.9
			c32.7,1.4,60.7-14.1,90.2-24.1c48.9-16.6,92.2,4.3,109.3,52.8c6.5,18.4,6.3,37.3,6.3,56.3c0.1,45.8-7.3,90.9-13,136.1
			c-7.5,59.6-7.1,58.6,48.6,83.7c20.8,9.4,24.3,2.4,24.2-16C2439.1,1040.8,2439.3,997.2,2439.3,953.5z M761.1,712.5
			c64.8,18.6,81.7,38.1,89.3,105.1c2.1,18.8,2.6,38.1,1.3,56.9c-4.7,66-46.6,109.2-111.1,116.4c-7.2,0.8-14.4-1.3-17.9,9.3
			c-12.7,37.8,0.1,62.7,37.8,70.5c16.7,3.4,33.5,6.8,50.4,9.1c42.8,5.7,99.6-29.3,114.2-69.6c2.4-6.7,1.6-13-0.5-19.5
			c-27.2-83.6-32.2-169.4-26.6-256.4c2.2-33.7-30.4-64.2-77.3-78.6c-37.4-11.5-38.2,20.8-51.1,39C765.9,699.9,764,706.4,761.1,712.5
			z M891.1,1905.2c9.6-32.8-7.9-53.2-40.4-66.1c-39.3-15.5-75.9-10.3-112,9.9c-20.8,11.6-13,29.7-11.8,45.6
			c1.5,20.5,17.8,8.8,26.6,8.7c57.5-0.3,91.8,22.7,102.3,70.4c14.6,66.8-30,130.8-104,144.8c-20.6,3.9-22.2,13.9-19.6,28.9
			c2.6,15.1-10.7,36.6,20.1,40.7c59.4,7.8,112.8-5.5,162.9-37.1c14.5-9.1,17.6-18,12-34.8C904.9,2049,894,1979.7,891.1,1905.2z
			 M777.2,2237.5c-3.1-0.1-14.5-0.9-25.9-1.2c-6.3-0.1-12.3-1.7-14.6,8.5c-15.2,68.2,46.4,135,117.1,126.2
			c52.1-6.5,97.2-30.8,142.1-56c12.6-7.1,10.8-14.3,5-25.2c-15.2-28.4-30.4-57-42.8-86.7c-7.4-17.6-14-14.9-26.8-6.7
			C887,2224.9,838.1,2238.3,777.2,2237.5z M931.7,1631.2c-66.2,25.4-129.7,42.4-197.5,28.7c-7.7-1.5-14.7,1.6-14.6,12.3
			c0.3,42.2,0.1,84.3,0.1,131.3c63.5-29.7,120-26.1,176.1,3C900.2,1745.7,915.1,1690.7,931.7,1631.2z M726.3,890.3
			c0,5.7-1,11.6,0.2,17c2.7,12-9.4,29.4,6.9,35.3c15.9,5.8,31.4-3.8,44-14.5c31.9-27.1,39.1-120,11.7-151.5
			c-10.1-11.7-24.2-15.4-38.7-13.1c-13.8,2.2-11.1,15.5-13.2,25.2C729.9,822.2,726.8,856.1,726.3,890.3z M714.9,1451.8
			c0.2,0,0.4,0,0.6,0c0,16.2,1.1,32.5-0.3,48.5c-2,22.4,9.7,23.7,26.1,19c25.6-7.3,45.6-21.1,48.1-49.7c2.9-33.2-2.1-65.2-28.9-88.5
			c-9.8-8.5-23.4-6-35.5-1.6c-13.7,5-9.8,16.8-10.1,26.6C714.6,1421.3,714.9,1436.5,714.9,1451.8z M727.3,2011.1c0.4,0,0.7,0,1.1,0
			c0,5.7-1.2,11.7,0.2,17c3.9,14.4-8.9,36.9,10,42.4c19.5,5.7,38.2-7.6,51.9-23.2c15-17.2,22-37.3,18.1-60.3
			c-4.6-27.3-23.1-38.4-54.3-36.5c-28.9,1.7-29.5,19.4-27.1,40.8C727.9,1997.8,727.3,2004.5,727.3,2011.1z M951.7,523.9
			c-44,20-77.6,44.9-109.1,73.1c-9.6,8.7-7.8,12.8,4.1,16.7c19,6.2,36.4,15.8,51.9,28.5c7,5.7,13.3,8.5,15.9-3.8
			C922.4,600.9,937.6,565.5,951.7,523.9z"/>
		<path class="st0" d="M1861.4,2492.1c-143.3,4.3-277.1-7.9-397-82.3c-160.6-99.6-264.8-239.6-290.7-429.4
			c-37.8-276.6,147.8-566.4,429.5-629.7c109.5-24.6,218.9-49.6,331.8-54.2c152.8-6.3,299.7,22.8,439.7,80.9
			c160.9,66.8,237.3,203.7,219,386.1c-12.5,125.3-40.2,248.1-91.9,363.4c-96.9,216.1-265.4,334.3-501.3,355.6
			C1952.1,2486.8,1903.6,2489.2,1861.4,2492.1z M2185.3,2387.6c27.3-9,49-24.2,71.9-37.1c14.8-8.3,17.9-15.9,5.5-29.9
			c-18.2-20.7-33.4-44-51.7-64.6c-15-17-0.8-22.9,9.2-30.6c9.1-7,17.2-18.1,29-0.1c15.6,23.8,35.7,44.6,51.9,68
			c9.4,13.6,15.8,12,26.3,2c21.4-20.4,41.1-42.3,59.9-65.1c10.7-12.9,8.8-20-5.9-28c-37.5-20.6-73.6-43.7-111.5-63.5
			c-21.2-11.1-9.7-20.9-3.8-33.6c7.3-15.8,14.5-17.9,29.6-8c26.2,17.2,53.9,32,81.1,47.7c51.3,29.6,50.7,29.3,76.5-24.4
			c7.5-15.7,6.9-22.5-11.3-27.9c-44.6-13.2-88.2-29.8-132.9-42.4c-20.2-5.7-18.7-14.5-14.3-30.8c5.2-19,13.5-21.3,30.5-15
			c30.3,11.2,61.3,20.6,92,30.6c65.3,21.3,64.6,21.1,83.4-46.1c5.1-18.2,1.5-23.4-16.8-24.1c-53.3-1.9-106.5-4.6-159.7-7.9
			c-12.8-0.8-31.2,7.5-30.3-20.2c0.8-26.2,12.7-28.1,33.8-26.8c56.1,3.4,112.3,4.3,168.3,7.6c16.6,1,23.9-3.3,26.5-20.4
			c4.5-29.1,10.6-58,17.9-86.5c4.8-18.4-2.7-20.4-18.1-20.3c-65.7,0.6-131.4,0.2-197.2,0.3c-16,0-31,3.9-31.1-22.9
			c-0.2-27.8,15.1-25.2,32.8-25.1c65.7,0.2,131.5-0.5,197.2,0.4c18.7,0.3,25.7-5.9,24.6-24.6c-1.6-26.6-4.8-53-8.3-79.4
			c-3.5-26.3-13.2-36.4-41.8-35.4c-71.4,2.5-142.9,0.2-214.3,1.2c-19.8,0.3-21-9.3-20.7-24.5c0.3-14.2-1-25.2,20-24.6
			c56.2,1.5,112.4,0.5,168.6,0.5c18.4,0,36.8,0,59,0c-74.7-129.7-201.2-155-326.1-187.7C2185.3,1709,2185.3,2046.9,2185.3,2387.6z
			 M1409.4,1499.5c-25.6,20.6-45.9,44.2-66.9,67.3c-12.7,14-12.5,22,3.9,32.4c35.3,22.4,69,47.4,104.6,69.4
			c16.4,10.2,13.9,18.3,5,31.5c-9.1,13.4-16,21.1-32.9,8.7c-34.5-25.2-71-47.7-105.9-72.4c-13.7-9.7-20.3-7.3-28.1,7
			c-19.2,35.2-34.9,71.7-48.8,109.3c-7.3,19.7-2.3,24.4,17.6,24.3c59-0.4,118.1,1.6,177.1,0.9c19.3-0.2,23.3,6.4,23.5,24.4
			c0.3,19.6-6.8,23.7-24.7,23.2c-48.5-1.2-97.1-0.8-145.7-0.9c-71.6-0.1-70.9,0-71.8,71.9c-0.3,19.8,6.9,24.1,24.8,23.8
			c49.5-0.9,99.1,0.4,148.6-0.7c19.2-0.4,26.7,4.7,26.7,25.3c0.1,20.3-8.3,23.1-25.5,22.8c-50.5-0.9-100.9,0.1-151.4-0.5
			c-14.5-0.2-20.3,2.5-17.2,19c4.8,26.2,11.1,52,17.9,77.8c4.2,15.9,12.6,20.9,28.4,20.6c53.3-0.7,106.7,0.3,160-0.6
			c18.3-0.3,27.6,2.9,27.6,24.6c0,20.6-6.9,25.5-26.3,25c-52-1.2-104-0.4-159.4-0.4c18,40.3,40.8,72.4,65.7,103.6
			c10.8,13.5,18,11.6,29.2,1.1c19.4-18.3,40.6-34.5,60.1-52.7c18.4-17.2,23.2,2.1,32.2,10.7c9.1,8.7,14.1,15.7-0.1,26.3
			c-22.1,16.4-42.2,35.6-63.2,53.5c-6.8,5.8-13.7,11-3.4,20.1c30.4,26.8,59.9,54.7,98.9,72.2c0-265.1,0-527.7,0-791.1
			c-38,13.1-38,13.1-55.1-23.7C1426.8,1536,1418.7,1519,1409.4,1499.5z M1668.1,2429.6c4-5.2,7.5-9.1,10.2-13.5
			c103.6-172.5,207-345.1,310.8-517.5c8.2-13.5,12-26.9,11.9-42.8c-0.5-107.5-0.2-215.1-0.5-322.6c0-7.6,4.1-16.7-4.7-24.1
			c-3.8,6.2-7.4,11.7-10.6,17.4c-97,177.6-193.1,355.5-291.3,532.4c-21.5,38.7-32.2,76.9-30.5,121.4c2.8,73.2,0.6,146.5,0.9,219.8
			C1664.3,2409,1661.4,2418.6,1668.1,2429.6z M2047.7,1886.8c0,162.9,0,325.7,0,488.6c0,56.3-0.3,54.8,54.1,43
			c28.5-6.2,36.3-18.7,36.2-48c-1.3-319.1-0.8-638.1-0.8-957.2c0-57.8-0.3-56-59.3-64.3c-27.8-3.9-30.9,5.3-30.7,29.3
			C2048.1,1547.7,2047.7,1717.2,2047.7,1886.8z M1617.1,1913.3c0-99,0-198.1,0-297.1c0-65.7,0.1-131.4-0.2-197.1
			c0-6.7,4.1-19.3-6-18.9c-21.9,0.7-42.7,9-62.6,18.1c-14.9,6.8-8.2,22-8.2,33.3c-0.4,299.9-0.3,599.9-0.3,899.8
			c0,47,0,47,45.6,62.5c1.8,0.6,3.7,1.1,5.4,1.9c21.4,10.1,26.9,3,26.8-19.8C1616.7,2235.1,1617.1,2074.2,1617.1,1913.3z
			 M1665.7,2001.7c1.5,0.6,3,1.2,4.6,1.8c50-91.5,98.8-183.6,150.6-274c14.9-26.1,15.8-45.8-3-68.7c-11.4-13.8-19.6-30.2-29.3-45.4
			c-39.6-62-79.2-124-122.8-192.3C1665.7,1621.2,1665.7,1811.4,1665.7,2001.7z M1998.8,2356c0-128.1,0-250.1,0-380.8
			c-50.6,84.5-96.7,161.8-143.1,238.8c-4.6,7.7-2,12.2,3.4,17.1C1904.4,2271.6,1949.7,2312.1,1998.8,2356z M1695,1379.3
			c57.3,90,112.6,176.9,169.9,266.9c16.5-30.2,30.2-56.2,44.8-81.6c5.9-10.3,5.4-18.7,0-29.1c-28.3-54.9-55.9-110.1-83.7-165.2
			c-4-8-7.6-15.1-18.9-12.8C1771.1,1364.8,1734.8,1371.6,1695,1379.3z M1719.1,2441.6c91.5,5.5,176.8,2.1,262.2-5.4
			c6.1-0.5,14.4,2.8,17.8-4.9c4-9-3.8-13.8-9.3-18.8c-50.9-45.7-102.1-91.2-152.8-137.1c-7.6-6.9-12.6-10.2-19.1,0.9
			C1786,2330.2,1753.8,2383.6,1719.1,2441.6z M1945.7,1498.7c15.6-28.7,27.3-53.7,42.1-76.6c12.8-19.8,13.4-40.6,13.1-62.5
			c-0.2-10-2.1-16.7-13.9-16.2c-34,1.4-68.1,2.6-102.1,4c-11.7,0.5-14.4,5.6-8.8,16.3C1898.8,1407.1,1921,1450.7,1945.7,1498.7z
			 M1490.8,1443.2c-15.5,12-41.9,12.1-36.7,34.5c6,25.6,21.5,48.9,32.9,73.2c1.3-0.4,2.6-0.9,3.8-1.3
			C1490.8,1515.5,1490.8,1481.3,1490.8,1443.2z"/>
		<path class="st0" d="M1919.7,901.7c26.2,28.4,31.8,51,18.4,73c-11.5,18.9-29.2,27.8-50.8,23.9c-22.2-4-38.2-16.9-41.7-40.9
			c-4.6-31.9,12.6-49.8,42.8-61c-14.3-12.8-25.6-25.7-25.5-45.2c0.1-18.9,8.5-32.4,22.8-43.6c13.9-10.9-1.9-13.6-6.2-17.8
			c-16.8-16.7-21.3-36.1-12.6-57.4c7.3-17.8,20.9-28.5,41.5-29.6c22.3-1.2,39.7,6.2,49.2,26.4c10.3,21.9,7.2,42.9-10.9,59.9
			c-7.6,7.2-16.6,9.6-3.1,22.3C1978.4,844.4,1967.5,883.6,1919.7,901.7z"/>
		<path class="st0" d="M1812.3,424.2c0.1,26.8-23.8,51-50.6,51.2c-26.6,0.2-50.9-23.9-51.1-50.8c-0.2-26,24.5-50.9,50.6-51.1
			C1788.1,373.4,1812.2,397.3,1812.3,424.2z"/>
		<path class="st0" d="M1136.7,841.3c0.4,27-23,51-50,51.5c-27.7,0.5-50.9-21.7-51.6-49.4c-0.7-27,22.6-51.4,49.7-52
			C1110.7,790.7,1136.3,815.3,1136.7,841.3z"/>
		<path class="st0" d="M1898.1,681.2c-27.8-0.6-50.7-24.8-49.4-52.3c1.1-25.8,24.9-48.7,50.6-48.7c27.7-0.1,50.7,23.4,50.4,51.4
			C1949.3,659.8,1926.4,681.9,1898.1,681.2z"/>
		<path class="st0" d="M1156,629.8c27.7,0.6,50.8,24.3,50,51.3c-0.9,27-25.5,50.3-52.3,49.6c-27-0.7-50.6-25.3-49.9-52
			C1104.5,651.3,1128,629.3,1156,629.8z"/>
		<path class="st0" d="M1680.8,423.1c1,29.5-23.3,49.3-49.1,51.9c-26.3,2.7-51.4-22.1-52.3-49.1c-0.9-26,23-51.4,49.4-52.3
			C1655.7,372.7,1680.1,395.9,1680.8,423.1z"/>
		<path class="st0" d="M1136.7,966.9c-0.7,26.6-25.5,50.3-52,49.5c-27.2-0.7-50.3-24.9-49.5-51.9c0.8-27.9,23.6-49.4,51.8-48.9
			C1114.7,916.1,1137.3,939.4,1136.7,966.9z"/>
		<path class="st0" d="M1284.3,552.4c0.4,28.1-22.2,50.5-50.7,50.5c-27.4,0-49-20.7-50-47.9c-1-29,19.5-50.5,48.8-51.1
			C1261.8,503.3,1284,524,1284.3,552.4z"/>
		<path class="st0" d="M1204.4,1189.8c-27.5,0.3-50.4-23.1-50.2-51.4c0.1-28.3,23.4-51.5,50.9-50.9c26.3,0.6,48.4,23.2,49,50
			C1254.6,1165.6,1231.8,1189.5,1204.4,1189.8z"/>
		<path class="st0" d="M1394,473.4c0,26.6-22.5,49.9-48.7,50.2c-30,0.3-53.7-22.7-53-51.5c0.7-26.6,23-48.2,50.1-48.5
			C1371,423.3,1394,445.4,1394,473.4z"/>
		<path class="st0" d="M1833.4,458.6c27.7,0.6,49.7,24.3,48.9,52.6c-0.8,26.8-23.2,49.4-49.4,49.7c-27.2,0.3-50.5-23.6-50.3-51.7
			C1782.7,481,1805.7,458,1833.4,458.6z"/>
		<path class="st0" d="M1497.8,504.4c-28.5-0.4-50.8-23.4-49.6-51.5c1.1-26.8,23.4-48.2,50.4-48.3c28.3-0.1,51.1,22.5,50.8,50.5
			C1549.1,483.6,1527,504.7,1497.8,504.4z"/>
		<path class="st0" d="M1104.9,1138.8c-29-0.3-50-22-49.2-50.9c0.8-28.1,20.7-47,49.4-47.1c30.4-0.1,50.7,19.5,50.6,48.7
			C1155.6,1118.5,1134.3,1139.1,1104.9,1138.8z"/>
		<path class="st0" d="M2491.9,571.9c0.4-31,25.4-56,56.2-56.3c31.5-0.3,58.5,26.9,57.9,58.2c-0.6,31.7-27.8,57.2-59.7,56
			C2515.3,628.7,2491.5,603.2,2491.9,571.9z"/>
		<path class="st0" d="M2573.4,645.8c30.6,0.6,56.3,26.4,56.3,56.5c-0.1,31.1-27.9,58.3-58.9,57.5c-30.8-0.8-55.5-26.4-55.5-57.3
			C2515.2,669.5,2540.2,645.2,2573.4,645.8z"/>
		<path class="st0" d="M2182.9,361.9c0-30.7,25-56.9,55.2-57.6c30.8-0.8,58.8,26.7,58.8,57.7c0,30.8-25.1,56.1-56,56.5
			C2207.3,419,2183,395.2,2182.9,361.9z"/>
		<path class="st0" d="M2647.1,997.4c0.4,31.2-23.6,56.4-54.9,57.4c-32.1,1.1-59.1-24.4-59.5-56c-0.3-31.7,26.2-58.2,58-57.8
			C2621.8,941.4,2646.6,966.3,2647.1,997.4z"/>
		<path class="st0" d="M2547.6,842.8c-0.4-31.9,26-58.8,57.4-58.3c30.3,0.4,56,26.3,56.4,56.8c0.4,31.5-23.5,56.6-54.8,57.4
			C2573.2,899.5,2548,875.6,2547.6,842.8z"/>
		<path class="st0" d="M2088,342.3c32.7,0.2,57.3,25.7,56.4,58.4c-0.9,31-26.1,55.5-57.2,55.3c-31.2-0.2-58.3-28-57.3-58.9
			C2031,367.1,2057.3,342.2,2088,342.3z"/>
		<path class="st0" d="M2449.9,418.1c32.8,0.3,55.9,22.8,56.2,54.7c0.3,32.1-26,58.7-57.5,58.2c-30.5-0.5-55.9-25.9-56.3-56.5
			C2391.9,442.1,2416.8,417.7,2449.9,418.1z"/>
	</g>
</g>
</svg>
