<?xml version="1.0" encoding="utf-8"?>
<!-- Generator: Adobe Illustrator 23.0.0, SVG Export Plug-In . SVG Version: 6.00 Build 0)  -->
<svg version="1.0" xmlns="http://www.w3.org/2000/svg" xmlns:xlink="http://www.w3.org/1999/xlink" x="0px" y="0px"
	 viewBox="0 0 3000 3000" style="enable-background:new 0 0 3000 3000;" xml:space="preserve">
<style type="text/css">
	.st0{stroke:#000000;stroke-width:10;stroke-miterlimit:10;}
</style>
<g id="Layer_1">
</g>
<g id="Layer_2">
	<g>
		<path class="st0" d="M531.3,1170.2c-57.7-12.9-111.6-33.9-163.9-59.5c-71.6-34.9-118-91.9-146.1-165.3
			c-64.8-169.2-79.7-342.3-40-519.5c4-17.9,7.7-35.9,12.9-53.4c23.5-79.7,75.2-131.4,155.3-154c71.2-20.1,143.9-29.3,217.7-25.7
			c74.4,3.6,136.2,27.8,155.8,113.1c16-12.4,28.9-23.3,42.7-33c92.4-65.2,195.9-82.8,305.7-67.4c26.5,3.7,48.7,1.8,72.1-11.1
			c139.7-77.6,291.4-107.7,449.5-109.5c132.4-1.6,264.8-5.8,397.3-0.6c227.6,8.9,418.2,98.7,571,266.3
			c66.6,73,109.9,159.6,118.3,259.9c4.9,58.1-4.7,115.9-11,173.6c-18.8,172.4-13.8,343.4,15.2,514.7c24,141.8,30.6,285.6,35.3,429.3
			c5.4,165.3,1.3,330.5-7,495.5c-4.1,81.3-9,163.1-25.7,243.1c-30,143.6-120.2,245.4-237.1,325.1c-136.4,93-285.5,142.4-454.1,135.3
			c-261.9-11-524.2-7.4-786.2,1.5c-175,6-344.9-20.9-511.1-77c-249.1-84.2-332.2-281.7-329.4-469.3c1-70.3,15.8-137,90.1-170.1
			c12.2-5.4,6.4-12.5,2.4-19.5c-36.1-62.9-43.5-130.7-46.2-202.7c-2.6-69.4-23.4-138.2-36.5-207.2c-8-41.8-8.4-83.5,7.1-123.5
			c27.8-71.7,38-146.5,33.1-222.2c-6.7-102.7,28-185.6,105.1-252.2c3-2.6,5.4-6.1,7.8-9.3C531.7,1175.2,531.3,1173.9,531.3,1170.2z
			 M2439.5,306.4c-75.4-71.2-232.6-147.6-341.4-159.7c-209.4-23.4-421.1-29.1-628.7,1c-360.5,52.2-620.5,238.9-727.9,603
			c-19,64.4-27.8,129.8-11.2,196c20.6,82.4,114.3,153.2,187.8,143.8c-55.4-157-39.4-287.1,13.5-407.3c5.1-11.7,7.7-30,29.2-16.9
			c15.6,9.5,30.8,12.4,18.2,39.5c-56.6,121.5-59.2,245.7-10,370.7c4.4,11.2,7,25,23.9,22.3c72.4-11.6,150.6-10.3,195.5-85.4
			c4.6-7.7,11.9-14,18.5-20.3c60.1-57.1,130.5-93.8,214.5-84.7c113.4,12.2,190.6,77.1,232.5,182.5c7.6,19.2,17.5,22.7,35.8,22.6
			c85.7-0.9,171.4,0.1,257.1-0.8c19.1-0.2,26.9,3.8,26.2,24.9c-0.6,19.4-2.7,29.3-26.1,28.8c-79.5-1.4-159.1,0.5-238.7-1.1
			c-26.8-0.5-35.6,5.2-35.2,34.7c2,138.6-67.9,212.9-206.1,219.5c-88.5,4.2-177.2,4.8-265.9,6.6c-8,0.2-12.8,1.1-16.2,9.4
			c-15.9,38.9,3.2,66.8,45.2,65.5c60.1-2,120.3-5.8,180.4-5.2c135.4,1.4,232.8-63.3,280.7-191c22.5-60.1,64.1-97.9,125.4-114.8
			c45-12.4,90.6-11.2,136.6-7c21.2,1.9,21.3,13.2,19.1,28.8c-2.2,15.8-6.2,27.2-26.7,22.9c-32.3-6.9-65-5.4-97.4,0.5
			c-50.4,9.1-88.8,33.2-107.1,84.1c-13.8,38.3-28,76.9-56.8,107.3c-12.2,12.9-2.1,19.7,5.7,27.4c32.5,32,57.6,68.6,70.7,112.7
			c9.7,32.8,5.7,64-20.3,87.2c-36.8,32.9-80.1,54.5-130.9,45.8c-21.1-3.6-29.5,0.9-38.2,19.3c-9.3,19.5-29,28.8-50.3,30
			c-33.6,1.9-67.9,3.5-100.1-7.3c-18.5-6.2-29.4-4.9-40.4,12c-10.8,16.6-27.9,27.9-47.7,30.9c-79.1,12-149.4-8.7-175.7-105.6
			c-11-40.5-6.2-80.8,4.5-120.7c2.4-9,5-17.7-4.2-25c-9.5-7.5-17.5-1.6-25.5,2.2c-16.7,8.1-31,20-42.8,34.1
			c-48.7,58.5-83.4,125.2-113.6,194.6c-4.9,11.4-0.8,18.1,7.3,26c32.9,32,64.4,65.5,97.7,97c36.6,34.6,78.4,61.6,126.5,78.2
			c60.6,20.9,114.2,10,161.1-34c19.3-18.1,38.6-36.4,59-53.2c59.3-48.9,125.4-56.8,194.8-26.4c87.2,38.1,135.5,108.1,154.3,199.6
			c15.3,74,9.5,148.4-0.5,222.3c-12.4,91-27.4,181.5-72.3,263.8c-25,45.8-58.3,83.4-103.5,109.9c-9.2,5.4-21,15-26-3.6
			c-3.3-12.3-24.7-25.5-2.1-38.5c70.8-41.1,101.2-109.4,123.1-182.8c21.4-71.5,31.5-145.4,37.1-219.6c4.9-65.3,3.1-130.3-21.7-192.8
			c-51.6-130.3-184.8-160.4-283.2-64.1c-11.8,11.6-14.7,18.6-1.6,31.3c19,18.4,36,38.8,53.5,58.8c59.5,68.2,105.2,142.5,107.5,236.9
			c3.8,151.8-71.7,265.5-173.5,367.3c-15,15-22.2,4.9-31.5-5.4c-9.6-10.6-20.4-18.2-3-33.6c41.5-36.7,75.1-80.5,103.3-128.1
			c48.7-82.2,69.9-169.7,42.9-263.8c-24.6-85.7-89-144.5-146.5-207.7c-7.8-8.5-14.3-3.1-21.4,1c-45.9,26.4-94.7,29-145,17.1
			c-71.8-17-129.2-58.8-181.3-108.8c-43.4-41.7-83.5-86.6-129.9-125.2c-72.6-60.5-153.8-76.8-243.3-49.4
			c-69.1,21.1-137.2,45.4-206.2,67.1c-12.7,4-16.2,8.8-13.2,21.4c5.9,25.8,12.1,51.6,15.4,77.8c2,15.9,9.1,22.6,23.3,27.4
			c142.7,48.3,285.3,97.1,432,132.2c57.3,13.7,116.6,20.4,173,36.9c57.5,16.8,106.8,48.5,118.5,114.6
			c12.5,70.3-9.6,128.6-65.1,173.8c-33.3,27.2-72.5,40.2-114.1,48.1c-60.8,11.5-122.4,0.6-183.1,7.2c-128.3,14.1-256.5,13-384.9,3.8
			c-33.8-2.4-34.1-1.9-27.3,32.2c31.2,155.4,118.8,262.4,269.1,317.2c150,54.7,304.3,84.1,464,81.6c278.4-4.4,556.7-13.1,835.2-1.8
			c25.9,1.1,52,0.1,82.2,0.1c-101.4-63.4-138.8-109.9-157.8-202.9c-32.5-159.4-2.4-303.9,108.8-427c12.5-13.9,12.4-19.8-5-27
			c-14-5.8-27.3-13.9-40.1-22.2c-74.9-48.6-129.9-111.8-143.1-203.3c-8.8-60.7,3.3-120.1,20.3-177.9
			c22.6-76.6,68.7-128.8,154.1-135.2c6.6-0.5,14.3-0.5,22.2-10.9c-87.4-87.3-130.7-190.9-104.2-317.3
			c26.1-124,104.1-209.4,204.5-278.3c-0.9-1.6-1.2-2.8-1.9-3.3c-119.5-72.9-185.2-179.8-199.6-318.2c-2-19.2-9.8-23.8-26.6-24.3
			c-57.8-1.9-102.7,29.8-118.9,85.3c-10.3,35.3-16.1,71.6-19.4,108.1c-2.2,24.9-18.2,21.6-34.9,19.7c-17.1-2-20.7-9.2-17.3-26.6
			c7.5-37.9,11.5-76.5,22.1-113.9c21-74.2,73.5-121.5,149.8-120.5c41.2,0.5,54.2-14.9,65.3-49.5c8.1-25.1,7.9-43.1-8.6-63.5
			c-19.2-23.7-35.9-49.4-53-74.8c-18.9-28-44.3-42.2-78.1-47.1c-40.5-5.8-81.2-6.3-121.7-10.7c-15.6-1.7-28.4-7.8-32.1-23.6
			c-3.3-14.1,3.9-25.8,15.7-33.9c6.7-4.6,13.6-9,20.8-12.7c112-57.1,284.6-31.5,373.5,57c14,14,21.3,11.7,34.6,1
			c63.2-50.7,136.5-80.2,214.6-99.2C2358.4,314,2397,312.3,2439.5,306.4z M2669.1,1782.9c-3.5-91.4-6.3-203.5-16.4-315.3
			c-10-110.7-27.7-220.3-43.1-330.2c-3.5-24.7,9.5-55.6-9.9-72.7c-18.1-15.9-48.3-13.9-73.4-16.1c-165.4-14.8-319.3,9.7-443,133.9
			c-87.4,87.8-126.4,190.8-98,314.3c12.3,53.7,49.8,92.7,83.8,133.3c16.7,19.9,27.3,41.7,17.5,67.4c-9.9,25.9-34.7,28.8-58.1,32.5
			c-4,0.6-8.1,0.9-12.2,1.2c-47.7,3.4-79.3,29.4-97.7,72c-7.6,17.7-13.3,36.4-17.7,55.1c-31,131.4-3.1,217.2,91.8,283.7
			c203.4,142.7,498.8,103.8,658.7-86.5c11.7-14,18.2-28.5,18-47C2668.7,1940.2,2669.1,1871.9,2669.1,1782.9z M2482.8,991.4
			c34.8,5,67.1,8,98.6,14.7c18,3.8,23.6,0.2,23.8-17.9c1.3-105.1,11.8-209.5,22.1-314c11.8-119.7-38.3-215.7-114.5-301.9
			c-7.7-8.7-15.5-14.6-28.3-14.6c-117.6,0-228.6,23.3-327.7,90.3c-84.7,57.2-143.6,134.8-164.9,234.3
			c-28.7,133.9,37,233.9,130.1,320.4c23.1,21.5,51.7,26.9,82.7,21.1c49-9.2,97.9-18.4,147.2-26c13.8-2.1,21.8-8.6,29-19.1
			c56.3-81.7,20.9-193-72.4-226.8c-19.4-7.1-39.5-10.2-60.1-9c-29.1,1.8-17.3-22-21.3-34.7c-5.9-18.6,10.2-16.4,20.3-16.7
			c41.8-1.6,81.2,8.2,116.4,30.9c73.3,47.3,101.8,116.2,93.2,202.3c9.5-4.6,10.7-13.2,13.4-20.5c36.4-98.4,20.6-194.6-13.7-289.4
			c-10.1-27.9-32.7-46.4-60-58.1c-71.9-30.8-170.9-4.8-218.9,57.1c-54.9,70.8-40.5,162,32.2,203.4c15.2,8.6,31.7,13.7,48.7,17.4
			c24.2,5.3,11.5,24.3,12.4,37.4c1,14.1-8.8,15-20.8,13.4c-106.5-14.9-175.2-113.8-151.5-218.9c27-120.2,151.4-195.1,278.6-168.5
			c71.7,15.1,117.4,57.9,138.3,127.4c13.5,45,22,91.2,25.1,138.1C2546.5,844.5,2528.3,920.4,2482.8,991.4z M212.1,572.7
			C204.9,693,231,838.8,270.8,931.9c22.2,51.9,52.6,96.4,103.5,124.1c41.2,22.4,84.6,39.7,129.1,54.5c53.7,17.9,104.8,23.4,150.1-20
			c4.3-4.1,10.5-6.3,15.8-9.3c16.8-9.6,41.1-15.2,48.6-29.6c9.3-17.7-18.5-32.1-22.4-51.3c-5.6-27.6-22-29.2-46.8-25.6
			c-159.3,22.7-292.1-80.6-309.9-239.9c-1.4-12.6-4.6-23.4-11.4-34C291.7,644.6,278,583.1,282.8,517
			c6.6-89.9,68.8-174.8,141.9-192.1c10.5-2.5,27.6-10.5,28.4,9.4c0.6,13.6,14.2,34.5-15.6,40.3c-29,5.7-50.2,25.7-67.6,49.4
			c-67.8,92.4-40.9,237.6,57.2,310.5c50.6,37.6,109.5,52.5,169.7,64.6c11.1,2.2,17.9,1.8,14-13.1c-13-49.6-17.5-100.3-15.4-151.5
			c0.9-20.4-7.3-18-21.6-13c-35.1,12.2-71.1,16.9-108.2,9.4c-12.9-2.6-29.1-0.8-23-21.8c4.6-15.5,4.4-34.7,31.9-29.1
			c38,7.8,75,0.6,109.1-18.7c9.7-5.5,20.4-11,22.3-23.5c8.8-57.2,35.5-107.7,56.8-160.5c30.2-74.6-5.2-128.4-85.1-132.9
			c-68.6-3.9-136.5,3.1-203.1,19.8c-68.7,17.2-114.4,58.2-133.3,128.5C223.8,457.8,214.1,524,212.1,572.7z M2094.7,2256.3
			c-3.3,0.6-5.8,0.3-7,1.3c-125.9,103.4-169.8,339.9-89.5,482.1c30.5,54,76.5,85.7,138.2,94.5c73.8,10.5,141.8-8.8,205.4-43.5
			c91.1-49.8,168.2-114.8,189.6-222.5c21.9-109.9-5.3-211.9-63.5-306.4c-5.8-9.4-12.4-12-22.9-8.3c-29.9,10.7-61.1,15.5-92.4,19.4
			c-15.7,2-19.5,9-18.9,23.9c1,27.4,1.4,55.1-0.7,82.5c-3,39.2-11.4,77.6-48,100.5c-75.5,47.3-178.2,2.5-197.4-84.1
			C2077,2348.3,2087.6,2302.8,2094.7,2256.3z M715.6,1383.3c-10.4,16.7-18.1,30-26.6,42.6c-39.6,58.7-82.8,76-152.4,60.8
			c-14.8-3.2-30.3-6.8-43.5-13.8c-20.9-11-24.7-1.7-24.6,16.4c0.7,66.2-14.1,129.3-36.8,191c-6,16.2-7.9,33.5-8.3,51.1
			c-0.5,20.5,5.2,27.4,26.6,19.7c58.4-20.9,117.1-41.5,176.3-59.9c82.3-25.6,164.4-29.6,243.5,12.7c20.2,10.8,39.8,22.9,59.7,34.5
			c10.9-21.8,21-44.1,32.7-65.4c33.3-60.7,62.8-126.2,121.9-165.8c32.9-22.1,53.5-42.3,52.2-83.9c-0.5-16.2,1.9-21.8-17.2-23.3
			c-43-3.5-84.6-15.3-120.7-39.7c-19-12.8-26.1-11.5-36.6,10.2c-31.8,66.2-78.5,93.6-139.7,85.9
			C775.5,1450.4,743.4,1421.4,715.6,1383.3z M1269.3,1376.2c23.3-1.7,43.6-3.4,63.9-4.4c10.1-0.5,18.3-2.1,18.5-14.7
			c0.3-25.4,2.4-51,0.6-76.3c-1.3-18.3-10.6-38.9-28.8-41.2c-22.4-2.9-44.3,7.5-52.9,32.4c-3.9,11.4-7.2,23.5-7.7,35.5
			c-0.5,11.9-5.8,15.2-16,17.6c-31.6,7.5-36,4.3-34.6-28.2c2.6-58,40.2-101.2,93.5-107.6c44.1-5.3,83.1,24.1,94.9,72.8
			c3.1,12.7,1.9,26.4,4.1,39.4c3.7,22.6-15.8,53.9,8.3,66.1c19.2,9.7,47.8,1.1,72.2,0.1c7.1-0.3,14-2.4,21-3.7
			c54.9-10.1,92.1-39.7,107.8-94.9c12.3-43.3,11.9-86.4,2.5-129.9c-27.4-125.8-155.7-206.7-272.7-172
			c-132.3,39.2-223.8,212-182.2,344.5c17.3,55.2,30.9,65,89.2,64.5C1257.9,1376.2,1265,1376.2,1269.3,1376.2z M471.8,1378.2
			c-8,22.8,7.3,34.4,29.9,43c20,7.6,39.6,15.8,61.1,18.8c31,4.4,56.7-3.7,74.6-30.3c11.9-17.7,22.9-36.1,33.5-54.6
			c11.1-19.4,19.6-40.4,32.3-58.6c14.3-20.6,37.8-16.4,46,7.1c3,8.5,2.5,18.1,4,27.1c5.6,34.5,37.3,67.7,72.1,75
			c36.1,7.6,60.9-9.1,79.4-38.2c6.5-10.3,12.9-20.8,18-31.9c37.9-83.6-0.3-176.4-85.9-208.8c-20.1-7.6-39.2-17.1-56.9-29.2
			c-8.6-5.9-15.7-10.1-27.4-3.9c-83.1,44.2-163.9,91.6-227.2,163C495.4,1290,473.3,1327.3,471.8,1378.2z M1152.4,2239.7
			c2.1-28.1-12.9-54.7-43.7-73.3c-16.7-10.1-34-19.4-52.8-23.4c-44.7-9.5-89.9-16.8-134.8-25.6c-15-2.9-16.8,7-19.3,17.1
			c-24.8,101.6,36.2,204.9,137.5,233.1c12.1,3.4,23.6,5.2,35.3-1.4C1121,2340.1,1152.5,2304.4,1152.4,2239.7z M814.3,2391.7
			c-58.3-56.2-200.4-123.7-279.2-134.5c-64.3-8.8-95.6,12.5-110.3,75.8c-2.8,11.9-3.8,24.2-6.1,36.2c-3.2,16.5,1.9,22.3,20,23.9
			c83.3,7.7,166.8,10.5,250.3,7.6C729.6,2399.3,770.5,2400.6,814.3,2391.7z M564.9,2202.3c38,2.1,70.8-17.9,104.5-33.8
			c36.5-17.2,50.2-47.8,49.3-87c-0.3-14.6-6.2-21.2-19.9-25.5c-69.7-22.1-139.3-44.3-208.4-68.2c-21.5-7.4-23.3,1.2-24.2,18.7
			c-2.9,58.6,11.4,112.5,40.2,163.4C519.4,2192.6,537.1,2204.4,564.9,2202.3z M647.5,2236.4c11,4.9,19.2,9,27.6,12.3
			c71.9,28.1,136.5,68.2,194.3,119.2c26.9,23.8,45.7,27.6,85.1,16.8c-78.7-56.7-114.6-133.2-108.4-229.4
			c1.2-17.8,16.4-39.7,4.6-51.7c-11.8-12-36.1-10.8-53.7-18.3c-23-9.8-27.3,0.5-28.9,20.5c-4.1,51.4-32.1,86.5-77.3,109.1
			C677.3,2221.7,663.7,2228.4,647.5,2236.4z M2586.2,2574.8c25.2-32.1,39.1-67.6,47.6-105.6c15.5-69.9,17.5-141.3,24.8-212.1
			c4.6-44,6.4-87.9,4.4-137.8c-45.3,44.1-90.6,78.1-142.2,102.9c-12.2,5.9-9.8,12.6-4,21.5c15,23.1,27.4,47.7,37,73.5
			C2585,2400.5,2599.5,2485.8,2586.2,2574.8z M1286.8,1549.3c-12.4,0.9-33.7,2.1-55,4.1c-6.4,0.6-13.4-1.4-18.6,6.7
			c-25,38.6-11.2,130.4,24.8,159.9c46.6,38.1,106.3,18.7,118.5-38.9c4.2-19.8,7.4-40,9.3-60.2
			C1372.9,1545.7,1372.6,1545.7,1286.8,1549.3z M1120.2,1125.9c-57.2,18.1-110.9,24.5-168.7,25.1c25.1,42,37.9,82.2,35.7,126.3
			c-0.3,6.1-0.6,12.5,4.9,16.8c32.4,25.7,68,44.6,109.3,51.4c12.9,2.1,16.3-3.1,12.5-15.3
			C1093.6,1263.6,1100.6,1197.4,1120.2,1125.9z M2284.3,2338.8c0-12.1-0.8-18.3,0.1-24.2c4.5-29.2-7.9-38.9-36.8-38.3
			c-27.2,0.6-54.7-3.6-81.7-8c-13.9-2.3-20.2-0.4-23.3,14.3c-7.2,35.1-12.3,70.1-4.8,105.7c7.7,36.3,26.4,51.6,63.7,52.9
			c65.3,2.3,73.5-4.6,80.3-68.9C2283.2,2359.3,2283.7,2346,2284.3,2338.8z M1536.8,1639.3c0.7-0.1,1.4-0.1,2.1-0.2
			c-2.9-23.1-7.1-46.1-8.4-69.3c-1.8-30.6-13.9-40.8-43.3-27.8c-14,6.2-29.7,6.9-44.9,5.4c-15.2-1.5-21.1,3.2-21.5,19.8
			c-0.6,28.3-4.3,56.6-7.1,84.8c-1.5,14.9-13.3,34.5,13.1,38c34.5,4.6,70.3,24.2,103.4-3.6c4.6-3.8,5.5-13,6.3-19.9
			C1537.6,1657.6,1536.8,1648.4,1536.8,1639.3z M1714.6,1596.3c-0.3-2.2-0.2-6.3-1.3-10.2c-11.5-42.7-38.1-75.6-69.1-105.5
			c-3.7-3.6-7.7-6.3-13.3-2.7c-17.9,11.4-38.9,19.7-53.2,34.5c-11.8,12.2,1.2,30.6,2.9,46.3c1.8,16.1,4.7,32.1,6.2,48.2
			c3.6,38.5,23.5,53,60.3,41.2c17.2-5.5,33.2-14.8,49.2-23.5C1706.2,1619.2,1713.2,1610.4,1714.6,1596.3z M659.9,920
			c-13.1-39.5-27.6-71.2-80.1-74.1c-51.2-2.8-101.2-20.8-146.7-47.2c-8.8-5.1-17.5-10.1-30.2-17.4C436.8,888.5,546,945.5,659.9,920z
			 M794.5,313.9c-14.5,13-31.9,27.1-47.5,43c-34.5,35.4-34.2,35.8-0.6,70.3c14.9,15.3,30.2,30.2,44.6,45.9c8,8.7,12.5,9.1,21.1-0.5
			c64-71.9,64.2-78.9-0.9-149.3C807.5,319.2,805.9,311.8,794.5,313.9z M688.4,448.1c-12.5,20.2-19.5,44.5-25.8,68.9
			c-18.2,70.6-17.8,70.3,45.4,105.6c13.4,7.5,20.4,8.8,26.9-7.8c9.2-23.6,20.8-46.4,32.3-69.1c4.6-9.1,7.3-16.2-1.3-24.3
			C739.9,497.2,714.3,472.7,688.4,448.1z M1803.4,388.9c104.5,0.7,138.2,88.4,189.3,153.7c14.9-19.3,26.4-37.7,41.4-52.6
			c14.9-14.8,12.5-24.4-2-36.8C1966.2,397,1888,383.6,1803.4,388.9z M1038.8,253.9c-52.4-7.6-95.8,0.5-138.6,10.9
			c-58.4,14.1-58.1,15-20.3,61.7c6.4,7.9,12.9,15.6,19,23.6c5.2,6.9,10.3,9,17.3,2.1C952,317,992.5,287.3,1038.8,253.9z M672.2,812
			c11.5-41.3,21.9-79.2,32.7-117.1c2.7-9.5-0.5-15.5-8.5-20.2c-15.4-8.9-30.6-18.1-50.8-30C646.4,705,652.2,757.7,672.2,812z"/>
		<path class="st0" d="M1392.4,617.9c-96.6-2.6-171-46.1-226.2-123.9c-5.2-7.3-19.8-18.9-0.6-25.9c13-4.8,24.5-30,42.5-3.8
			c35.9,52.3,84,87.4,147.9,99.1c65.4,12,123.8-4.8,175.1-43.9c25.9-19.7,30.9,4.1,42,14.4c16.1,15-2.1,20.5-10.3,26.5
			C1512.3,597.8,1456.1,618.5,1392.4,617.9z"/>
		<path class="st0" d="M2547.5,1577.8c4.2-63.2,4.4-126.4-6.5-189.1c-14.2-82.1-105.4-164-197.5-177.5
			c-86.7-12.7-165,28.1-201.9,105.4c-24.7,51.8-25.4,105.2-3.3,157c12.2,28.5-8.7,29.9-22.8,37.9c-21.3,12-21.3-9.9-24.8-19
			c-34.4-91.3-24.3-177.3,40.6-251.4c66.5-76,151-100,249.1-73.4c125.6,34,207.6,131.7,216.7,261c10.1,142.8,15.1,286.7-20.5,426
			c-42.7,166.8-152.9,273-327.6,268.4c-206.2-5.4-290.9-178.6-211.2-356.2c4.7-10.4,10.2-20,21.5-9.3c9.2,8.8,34.5,4.3,25.2,29.5
			c-7.4,20-15.3,40.2-19.7,61c-26.6,125.6,46.8,218.9,178.4,224.2c109.2,4.3,191.7-40.3,247.2-137.5c42-73.6,52.3-153.1,56.6-234.6
			C2549.3,1659.4,2547.5,1618.6,2547.5,1577.8z"/>
		<path class="st0" d="M2468,1522.6c0.7,86.9-3,173.1-37.1,254.9c-17.9,42.8-41.2,81.8-77.5,111.8c-66.3,54.6-161.4,32-181.8-43
			c-7.7-28.2,2-52.1,16.8-74.7c18.2-27.9,46.6-45.1,71-66.6c31.2-27.6,54.6-59.7,63.9-101.4c5.1-23.1,0.4-42.3-16.5-58.5
			c-12.5-12-25.6-23.3-37.8-35.6c-37.3-37.3-44.4-82-26.2-129.5c19.6-51.2,55.5-88.6,110.3-100.6c42.1-9.2,88.4,29.9,102.3,82.3
			c8.4,31.5,12.5,63.9,12.5,96.7C2468.1,1479.8,2468,1501.2,2468,1522.6z M2418,1493.4c-1.1-18.4-2.2-51.1-5.2-83.6
			c-2.3-24.5-7.2-48.8-25.3-67.3c-9.3-9.6-19-16.8-34.9-10.7c-70.1,26.6-87,106.2-32.4,155.5c6.8,6.2,13.6,12.4,20.2,18.7
			c33.5,31.9,42.6,69.9,31.3,114.5c-13.1,51.6-42.6,91.8-82.2,125.8c-18.5,16-38.4,30.8-54.6,48.9c-27.3,30.4-14.1,64.4,26.3,71.9
			c22.7,4.2,42.2-3.3,59.5-17.5c38.8-31.7,59.2-74.9,73.6-121C2416.8,1656.7,2419.3,1582.3,2418,1493.4z"/>
	</g>
</g>
</svg>
