<?xml version="1.0" encoding="utf-8"?>
<!-- Generator: Adobe Illustrator 23.0.0, SVG Export Plug-In . SVG Version: 6.00 Build 0)  -->
<svg version="1.0" xmlns="http://www.w3.org/2000/svg" xmlns:xlink="http://www.w3.org/1999/xlink" x="0px" y="0px"
	 viewBox="0 0 3000 3000" style="enable-background:new 0 0 3000 3000;" xml:space="preserve">
<style type="text/css">
	.st0{stroke:#000000;stroke-width:10;stroke-miterlimit:10;}
</style>
<g id="Layer_1">
</g>
<g id="Layer_2">
	<g>
		<path class="st0" d="M1632.9,82.3c130.3-1.9,261-8.2,390.3,14.3c256.6,44.5,406,206.2,484.7,444.6c37.2,112.6,51.2,229.4,55.6,347
			c14.2,376.2-3.9,750.2-88.5,1118.5c-41.9,182.3-94.5,361.3-176.7,530.5c-117.8,242.2-316.8,357.6-579.7,374.4
			c-210.6,13.4-421.2,9.5-630.8-13.9c-196.2-21.9-380.2-79-535.7-208.2c-145.3-120.7-217-276.6-225.8-463.6
			c-6.4-136.2,9.9-271.1,21.8-406.2c13.8-156.4,27.5-312.8,42.6-469c15.7-162.6,29-325.4,48.3-487.7c11.7-98.3,31-194.1,69.4-285.2
			c94.9-225.5,271.9-355.5,499.6-425.4c154.5-47.5,313.6-64.2,474.2-69.7C1532.4,80.9,1582.7,82.3,1632.9,82.3z M2513.5,1118.5
			c0-50.2,1.4-100.5-0.3-150.7c-4.5-140-12.8-279.8-57.6-414.1c-77.3-231.6-225.8-380.4-477.7-409.1
			c-167.4-19.1-335.1-12.3-502.8-7.8c-146.7,3.9-291.7,20.8-433.4,61.1c-298.4,84.9-484.2,274.1-536.7,583.7
			c-29.6,174.8-40,352.1-56.6,528.5c-16.6,176.5-32.4,353.1-48.2,529.6c-10.7,120.2-25.1,240.2-22.2,361.3
			c5.3,225.9,105.7,395.7,298.9,511.9c71,42.7,146.7,73.4,226.3,95.5c168.6,46.8,341.8,50.8,514.8,55.6
			c129.3,3.6,258.6,4.1,386.9-16.8c183.9-30,325.3-121.4,418.5-285.2c56.4-99,95.5-204.7,130.1-312.5
			C2471.8,1881.7,2512.3,1502.9,2513.5,1118.5z"/>
		<path class="st0" d="M666,1735.4c-2.6-162.4,4.1-360.9,39.1-557.4c34.5-193.9,90.1-380.5,204.2-544.5
			c126.5-181.8,300.8-278,522.8-281.9c171.3-3,342.2,7.5,508.5,52c132.2,35.4,233.4,110.2,275.4,247.4
			c18.9,61.8,24.7,126.1,21.8,190.3c-5.7,124.9-13.9,249.6-21.5,374.4c-11.7,193-23.4,386.1-35.9,579
			c-8.9,136.4-14,273.5-46.2,407.1c-67.7,281.4-229,425-517.8,457.5c-176.7,19.9-353,6.8-525.5-33.5
			c-243-56.8-377.8-210.6-411.2-459.9C662.1,2035.1,663.9,1903.5,666,1735.4z M849.1,2433.2c1.4-12.2,2.3-17.2,2.5-22.2
			c6.9-204.3,28.6-407.1,65.2-608.2c32.5-178.8,70.6-356.1,134.5-526.9c45.5-121.6,121.2-218,236-280.8
			c146-79.8,300.1-113.5,463.3-66.2c152.4,44.2,223.5,159.4,250.1,307.3c29,161.3,36.8,324.5,43.1,488c5.7,148.7-1.8,297-9.3,445.4
			c-3,58.7-9,117.2-13.6,175.7c31.7-52.6,50.8-108.8,63.6-167.1c38-173.2,38.2-350.1,50.6-525.8c13.5-190.8,25-381.7,35.9-572.6
			c6.2-109.8,19.1-219.5,9.7-329.7c-11.4-133.8-76-228.8-203.3-277.4c-25.9-9.9-52.2-19.5-79.2-25.3
			c-155.3-33.6-312.8-46.9-471.3-42.8c-167,4.4-309.6,66.2-421.6,193c-59.3,67.2-104.4,143.2-140.5,224.7
			C783.2,1006.2,746.9,1201,731,1399.9c-15.2,189.8-13.7,380.3-12.7,570.5c0.4,82.3,6,164.5,25.4,245
			C762.4,2292.8,788.9,2366.5,849.1,2433.2z M1453.4,1793.1c-10.8,7.5-13.3,18.3-17.2,27.9c-85.6,209.7-241.9,347.1-449.3,425.9
			c-58.8,22.4-79.5,48.3-81.6,111.2c-4.7,138.1-4.2,152.6,127.7,193.6c215.5,66.9,436.2,79.5,658.9,41.3
			c91.5-15.7,172.5-54.9,240.5-119.1c29.3-27.6,28.8-30.3-5.7-48.3c-44.6-23.3-87.7-48.9-128.4-78.6
			c-113.2-82.6-181.4-184.5-152.6-333.7c11.8-61.1-15-102.7-71.8-128.4C1526.4,1863.5,1483.3,1837.2,1453.4,1793.1z M1914.7,1137.8
			c-72.4,148.9-170.3,270.9-280.5,384c-53.8,55.2-100.4,116.3-140.7,182.3c-12.6,20.7-10.6,36.1,1.9,55c24.1,36.5,58,58.9,97.4,75
			c56.5,23.2,92.5,64.3,104.6,124.4c6.4,31.7,3.5,64-1.4,95.7c-6.7,43.5-2.6,85,17.9,124.6c18,34.8,43.9,63,72.5,88.9
			c51.5,46.6,109.9,82.6,175.7,114.9c6.6-70.2,14.5-134.9,18.5-199.9c17.6-284.2,16-568.2-18.9-851.3
			C1953.9,1267.2,1944.1,1202.8,1914.7,1137.8z M913.7,2218.7c131.2-44.1,240.4-109.7,334.2-202.1c82.3-81,123.1-185.8,171.2-286.6
			c2.1-4.5,2.9-10.3,2.4-15.3c-9.9-88.2-37.3-167.4-105.8-229.7c-72.8-66.3-117.6-150.8-144.1-245.2c-4.6-16.4-9.1-32.8-13.7-49.2
			c-3.6-0.2-7.1-0.4-10.7-0.6C1000.3,1514.6,956.2,1863,913.7,2218.7z M1465,1647.3c53.1-78.5,111.8-144.3,173-208.1
			c94.5-98.5,171.8-209.1,232.9-331.3c11.3-22.6,7.7-36.5-9-52.8c-34.3-33.3-72.9-60.5-119-72.8c-199.2-53.3-372.2,1.7-526.8,130.4
			c-13.1,10.9-12.4,23.9-10.1,37.6c19.3,113.1,60.7,215.7,146,295.8C1409.1,1499.5,1447.3,1563,1465,1647.3z"/>
	</g>
</g>
</svg>
