<?xml version="1.0" encoding="utf-8"?>
<!-- Generator: Adobe Illustrator 23.0.0, SVG Export Plug-In . SVG Version: 6.00 Build 0)  -->
<svg version="1.0" xmlns="http://www.w3.org/2000/svg" xmlns:xlink="http://www.w3.org/1999/xlink" x="0px" y="0px"
	 viewBox="0 0 3000 3000" style="enable-background:new 0 0 3000 3000;" xml:space="preserve">
<style type="text/css">
	.st0{stroke:#000000;stroke-width:10;stroke-miterlimit:10;}
</style>
<g id="Layer_1">
</g>
<g id="Layer_2">
	<g>
		<path class="st0" d="M875.1,784.7c67.2,6.9,153.1,4.5,238,16.9c74.4,10.9,139.5,42,196.8,90.1c9.6,8,15.5,17.3,29.5,3.1
			c104.1-105.2,234.6-150.4,378.8-159c186.8-11,364.8,27,534.3,105.6c34.7,16.1,66.9,36.5,97.1,60.1c6,4.7,13.9,16.9,20.5,0.2
			c35.4-90.1,109.4-122.6,198.1-126.9c92-4.4,184.1-0.4,268.8,42.4c80.8,40.8,120.2,127.3,98.8,212.5c-8.6,34.5-26.3,60.7-59.9,77.7
			c-27.2,13.7-31.8,43.2-33,71.3c-1.9,46.9,12,91.8,19.4,137.4c28.5,174.6,22.1,349.6,3.7,524.3c-8.2,78.3-53,131.4-129.8,157.3
			c-92.9,31.3-189.3,39.6-285.7,49.3c-76.9,7.7-154,16.7-231.4,6.6c-24.4-3.2-49.1-7.2-72.7-14.1c-84.5-24.9-109.9-88.8-115.9-169.9
			c-9.8-132.5-24.5-264.7-37.7-396.9c-1.5-15.2-6.2-30.2-10.5-45c-6.5-22.1-21.7-36.9-44.9-35.2c-23.5,1.7-27,23.8-29.2,41.8
			c-7.4,60.3-11.1,121.2-19.8,181.3c-17.8,122.7,5.4,245,0.2,367.5c-1.3,30.8-2.7,61.9-6.9,92.4c-8.3,59.9-55.3,91.2-128.6,87.1
			c-110.2-6.2-220.3-12.7-330.5-19.1c-12.4-0.7-24.8-0.5-37.1-1.9c-79-8.7-154.7,10.6-231.9,22.5c-149,23-300,22.3-450.6,25.9
			c-56.7,1.4-113.6,2.9-169.8,9.7c-229.7,27.8-389-135.8-440-283.7c-26.5-76.8-37.4-156.2-42.2-236.6c-7.7-127.5-19.7-254.9-7.9-383
			C60.3,1115,130.1,965.7,296,875.8c91.6-49.6,192.6-71.8,295.4-85.4C679.7,778.7,768.4,782.2,875.1,784.7z M1049.1,2122.5
			c50.8-0.1,94.3-7.6,137.8-14.9c64.7-10.9,107.1-48.4,131.6-108.7c26.9-66,40.4-134.5,37.5-205.3c-9.8-240.2-1-480.7-11.7-720.9
			c-1.5-34.9-9.9-67.4-29.5-96.2c-50.2-74.1-124.2-109.6-209.4-123.6C1027,840,947.2,841,868,836.5c-154.1-8.9-306.5-1.7-455.6,46
			C226,942.1,124.4,1070.4,100.6,1261c-22.9,183.5-7.8,366.9,19.1,548.7c21.4,144.6,97.4,254,233.9,316.3
			c60.8,27.7,124.8,18.8,188.4,21.6c91.3,4.1,163.6-30.9,227.5-90.6c17.3-16.2,35.2-32.1,50.5-50.1
			c105.5-124.7,167.9-264.4,139.6-431.8c-11.6-68.8-37.3-133.3-87.6-184.4c-43.7-44.4-106.9-49.4-161.5-14.3
			c-54.3,34.8-69.3,80.7-47.9,144c6.6,19.5,12.9,39.2,17,59.3c8.4,40.8-16.4,89.4-50.9,102.9c-37.4,14.6-70.6-0.7-96.5-44.8
			c-4.2-7.1-8.3-14.3-11.5-21.9c-27.7-66.6-42-135.4-37.7-208c7-118.5,83.1-210.9,198.2-239.6c60.8-15.2,122.3-17.3,184.4-12.3
			c158.1,12.7,273.2,97.6,316.5,235.9c57.3,183.1,45.3,363.8-21.6,542.4C1135.3,2001.6,1095.3,2059.8,1049.1,2122.5z M2807,859.6
			c-75.8-32.8-152.9-34.3-230.2-33.3c-31.2,0.4-61.5,7.2-90,20c-66.8,30-86.9,89.9-53.8,154c10.3,20,19.3,41.4,24.6,63.2
			c28.5,117,25.9,235,9.2,353.3c-2.1,14.7-7.5,19-21.7,17.6c-23.5-2.3-33.7-10.5-28.8-37.2c11.6-63.1,12.5-127,10.8-191.1
			c-3.6-136.4-48.6-247.9-180-309.9c-191.8-90.5-391.7-132.5-603.6-99.1c-100.4,15.8-188.2,58.4-262.5,128.5
			c-15.1,14.2-21.7,26.1-9.4,47.4c16.6,28.7,22.3,61.3,23.8,95c11.1,248.4,5.4,497,11.7,745.5c2.4,94.7-21.6,183.7-73.6,264
			c-2.4,3.7-3.4,7.3,0.2,12.4c85.7,0.5,172.2,4.3,258.6,11.5c16.6,1.4,18.9-6.1,18.5-19.6c-1.4-47.4-1.8-94.9-3.4-142.3
			c-6-177.4-6.7-354.9,16.1-531.2c19.9-153.4,119.3-257.5,267.5-286.3c87.8-17.1,167.9-1.5,221.8,78c98,144.6,165.2,301.7,178.2,478
			c3.1,42.4,22.1,69.5,58.1,87.2c51.5,25.5,105.7,31,161.6,18.2c80.2-18.5,106.9-48.9,114.3-130.3c1.5-16.4,0.9-33,1.2-49.5
			c2.4-138.3-4.5-276.4-9.4-414.5c-4-112.5,29.9-206.9,118.7-278.6C2756.7,893,2780.4,878.3,2807,859.6z M1653.7,1801
			c3,0,5.9,0.1,8.9,0.1c0,92.8,0.5,185.6-0.3,278.4c-0.2,21.6,8.9,29.6,29.1,29.7c27.8,0.1,55.7,1.7,83.5,1
			c39.3-0.9,53.4-13.9,57.5-53.4c5-48.3,6.2-96.7,4.4-145.2c-3.9-109-14.8-218.1,2.6-327c9.8-61,8.3-123.6,24.5-183.6
			c12.5-46.2,52.7-69.9,97.4-57.8c41.8,11.3,65.4,41.3,75.3,82.4c11.4,47.2,14.3,95.7,19.3,143.8c11.6,112.7,21.2,225.6,31.5,338.4
			c3.1,33.8,20.7,57.2,50.6,72.3c18.6,9.4,38.2,15.1,58.6,18.6c76.1,12.9,152.2,6.6,228.2-1.1c94.3-9.5,188.7-17.2,280.6-43.5
			c66-18.9,104-59.5,111.3-128c2.5-23.6,5.6-47.1,6.9-70.8c9.7-175.4,9.1-349.9-27.7-523.4c-14.9-70.2-6.4-139.4,69.5-178.4
			c9.5-4.9,14.5-14.8,17.6-24.7c13-41.9,6.3-81.5-15.3-118.9c-4.6-8-9.2-16.1-21.6-9.6c-82,43.3-150.8,98.9-170.3,195.6
			c-14.6,72.4-5.6,146-3.3,219.1c3.5,114.4,8.7,228.9,2.9,343.4c-2.3,45.6-8.9,89.9-47.3,122.9c-83.9,72.2-232.8,80.8-323.9,17.6
			c-37.8-26.2-59.8-60.2-63.5-107.4c-12.7-161.9-70.6-308.1-158-443.6c-43.7-67.8-100.2-91.5-179.6-75.7
			c-130.7,26.1-210.3,114.2-230.8,252.2C1653.6,1549.4,1663.1,1675.6,1653.7,1801z M762.3,2130.5c62,0,123.7-0.3,185.3,0.2
			c18,0.1,30.7-7.1,42.4-20.6c59-68.2,108.3-141.9,135.6-228.9c49-156.3,58.1-313.3,7.8-471.2c-19.6-61.7-51.5-116.2-108.7-148.9
			c-119-67.9-244.4-74.7-372.1-27.2c-39.6,14.7-71.3,43-90.1,81.2c-51.5,104.9-30.7,206.1,19.8,304.7c4.7,9.1,12.3,17,24.8,14.4
			c12-2.5,16.1-12.1,19-22.1c6.7-23.3-1.3-44.9-9.1-66.2c-12.9-35.3-22.6-71-12.2-108.6c19.1-69.2,66.8-109.7,133.9-128.3
			c67.8-18.8,126.9,0.1,174.7,50.2c63.8,66.9,92.4,150.9,102.3,240.2c17.4,157.7-41,292.8-134.1,415.6
			C847.2,2060.1,804,2096.7,762.3,2130.5z"/>
	</g>
</g>
</svg>
