<?xml version="1.0" encoding="utf-8"?>
<!-- Generator: Adobe Illustrator 23.0.0, SVG Export Plug-In . SVG Version: 6.00 Build 0)  -->
<svg version="1.0" xmlns="http://www.w3.org/2000/svg" xmlns:xlink="http://www.w3.org/1999/xlink" x="0px" y="0px"
	 viewBox="0 0 3000 3000" style="enable-background:new 0 0 3000 3000;" xml:space="preserve">
<style type="text/css">
	.st0{stroke:#000000;stroke-width:10;stroke-miterlimit:10;}
</style>
<g id="Layer_1">
</g>
<g id="Layer_2">
	<g>
		<path class="st0" d="M2827,1359.5c0,169.2-1.4,338.5,0.5,507.7c1.1,95.1-12.7,186.4-49.4,274.2c-27.5,65.9-65.4,125-115.5,175.5
			c-17.8,17.9-17.5,30-6.7,51.3c48,94.6,68,195.1,56.5,301.3c-9.5,88-60.1,142.9-140.3,172.1c-90.7,33.1-182.4,38.9-273.9,1.7
			c-11.5-4.7-16.9-1.5-24.2,8.6c-50.3,69.4-120.7,90.1-202,77.5c-70.6-10.9-138.9-32.8-207.6-52.2c-13.5-3.8-23.8-5.1-36,4.8
			c-79.2,64.6-168.5,69.6-262.6,42.2c-39.9-11.6-77.1-29.5-112.2-51.4c-13.4-8.3-24-7.7-38.9-2c-103.5,39.9-205.4,29.6-304.4-15.8
			c-36.7-16.8-64.4-46-79.5-83.6c-7.9-19.6-14.9-17-29.5-8.5c-72.8,42.7-150.2,72.3-235,80.5c-245.8,23.9-460.4-135.2-509.1-377.5
			c-22.6-112.3-23.9-226.3-25.6-339.9c-4.9-336.5-11.4-673-9.6-1009.4c1.2-236.9,43-467.5,130.3-690
			c111.4-284,491.6-394.4,728.2-251.4c51.4,31,97.8,67.8,135.7,114.2c12.9,15.8,20,15.1,34.7,1.8
			c128.5-115.8,279.6-176.6,452.7-177.9c165.1-1.3,330.4-2.7,495.4,1.9c125.4,3.5,244.4,37.6,352.8,103
			c149.6,90.1,227.5,225.1,250.8,396c23.6,173.2,23.2,347.6,27.7,521.7c1.9,74.5,0.3,149.1,0.3,223.6
			C2829.5,1359.5,2828.2,1359.5,2827,1359.5z M2248.9,169.1c58.1,79.3,95.5,160.2,110.5,249.9c14.9,88.9,14.6,179.1,4.8,268.2
			c-18.7,169.4-112.2,280.1-274.7,331.3c-86.1,27.1-174.7,29-263.2,16.9c-154-20.9-258.6-103.5-307.1-253.2
			c-20.4-62.9-25.5-128.5-28-193.7c-6.3-162.1,51.2-297.2,178.9-400.3c8-6.5,15.7-13.5,25.8-22.3c-26.6-3.9-48.2,0.8-70,3.4
			c-304.4,36.9-546.3,309-546.4,615.1c-0.2,351.6-0.5,703.2,0.2,1054.8c0.3,143.1,49.5,269.5,136.1,382.6
			c14.3,18.6,21.6,15.6,35.4-0.5c88.6-104,154.1-220.6,197-350.4c31.5-95.5,44.7-193.9,47.9-293.9c0.6-19.2,5.1-25.6,25.4-25.5
			c23.1,0.1,25.5,10.3,25.1,29.5c-3.8,178.7-49.2,345.8-136.6,501.7c-36.1,64.4-79.4,123.7-128.2,178.9
			c-10.9,12.3-13.4,20.6,1.1,30.8c7.3,5.2,14.2,11.5,20,18.3c14.9,17.5,26.9,14.9,44.3,0.5c112.3-93.1,197-206.2,252.5-341.1
			c55.5-135.1,72-275.8,59.6-420.4c-1.8-21,6.4-25.1,25-26.6c18.9-1.5,23.4,4.6,25.4,22.6c11,98.2,3.6,195.5-16.8,291.4
			c-43,201.9-145,369.4-302.6,502.7c-17.6,14.9-21.4,21.8,1.9,34.6c59.6,32.6,121.6,57.6,187.9,72.5c17.2,3.9,28-0.6,39.8-12.6
			c95.7-97.4,170-208.6,220.9-335.7c59.6-148.8,78.4-303.3,65.3-462.1c-2.4-28.5,16.1-20.7,29.4-24.7c16.9-5.1,20,3.5,21.1,18.4
			c24.1,304.7-62.1,572.6-265.7,801.8c-6.2,7-16.1,12.1-16.6,28.3c30.3,0,60.2-1.3,90,0.4c22.1,1.3,37.6-6.1,52.9-21.9
			c98.2-101.7,170.1-218.8,212.1-354c48.7-156.7,51.5-314.8,13.8-474c-3.3-14.1-6.5-23.7,13-31.9c33.6-14,34,8.1,38.4,28.6
			c65.6,311.1-1.4,588.8-208.6,831.5c-4.7,5.5-13.9,9.2-9.9,21.2c76.1,0,152.5-0.3,228.9,0.2c13,0.1,20-6.2,26.7-15.9
			c122.5-177.9,193.8-374,211.5-589.5c8.5-103,3.2-205.3-16-306.8c-4.1-21.7,7.5-22,22.6-25.1c15.7-3.3,26.2-5.4,28.4,15.9
			c3.1,30,10.2,59.5,13,89.5c26.9,289.5-35.1,558-191,804.3c-5,7.8-14.9,14.4-10.7,26.3c32.7,5.4,64.5-3.4,96.6-4.2
			c18.2-0.4,28.7-9,37.2-25.1c112.1-210.9,166.5-434.8,155.1-674c-2.8-59.4-7.1-118.7-20.1-176.8c-5.6-25,11.1-24,26.2-28.8
			c19-6,21.3,3.7,24.1,18.8c8.6,46.6,14.5,93.4,18.1,140.6c13.8,179.8-7.2,355.4-64.6,526.6c-22.1,65.9-50.7,129.2-81,196
			c9.6-2.2,14.5-2.7,19-4.4c188.4-67.6,308.4-198.3,360.3-391.4c20.2-74.9,14.8-151.5,16.4-228c7.8-376.7,14.3-753.4-17.2-1129.4
			c-9.8-116.6-35-228.7-116.7-320.3C2539,242.6,2403.9,193.3,2248.9,169.1z M279.4,1663.3c0,80.6-0.2,161.2,0.1,241.8
			c0.3,81.6,0.4,163.2,2,244.8c2.1,100.7,7.9,201,23.8,300.8c37.6,235.9,261.5,357.4,433.7,344.9c124.6-9,230.6-60.2,325-137.9
			c95.5-78.6,154.6-181.3,188.3-299.3c3.1-10.9,7.1-24.3-6.4-28.8c-11.5-3.8-12.3,10.8-15.9,18c-29.5,58.2-67.8,109.4-116.9,152.6
			c-138.1,121.5-307.2,117.6-439.7-9.6c-107.1-102.9-146.8-232.3-150.4-376.5c-6.5-267.8-15.4-535.6-0.3-803.4
			c9.7-172.9,25.6-345.3,55-516c27-156.4,121.5-248.7,278-271.7c64.2-9.4,128.8-6.2,192.1,9.2c21.7,5.3,33.7,1.7,43.1-21
			c22.4-54.3,54.2-103.5,92.2-148.2c11.2-13.1,12.5-21.3,0.6-35.3C1012.7,125,751.3,113.1,532.6,267
			c-75.4,53.1-116.2,132.5-147.9,216.3c-66.3,174.7-97.4,356.9-109,542.5C262.4,1238.2,280.3,1450.8,279.4,1663.3z M1028.4,1695.1
			c0-76.3-0.6-145.8,0.4-215.2c0.3-21.6-6.9-26-26.6-20.6c-35.3,9.7-52.1,35-61.9,67.6c-16.5,54.7-34.5,109-50.2,164
			c-15.9,55.9-52.9,84.7-109.2,94c-64.4,10.6-128.2,24.3-192.6,34.6c-18.7,3-22.7,10.3-22.1,27.3c2.4,66.4,4.1,132.8,4.9,199.2
			c0.2,17,4.9,22.8,22.4,21.6c50.2-3.6,100.4-6.6,150.7-8.1c60.1-1.8,117-15.1,172.6-37.8c36.2-14.8,73.7-27.3,113.8-26.7
			c13.9,0.2,16.9-4.5,13.7-18C1022.3,1881.6,1029.8,1784.7,1028.4,1695.1z M1285.2,2842.8c111,7.8,179.9-50.2,229.8-138.7
			c33.1-58.7,45.3-124.1,59.7-188.9c3.9-17.7-6.6-20.1-19.2-22.9c-84.5-18.9-162.1-53.7-232.5-103.5c-19-13.5-24.8-10.6-31.2,10.4
			c-35.5,116.4-99.4,214.5-191.4,294.3c-36.9,32.1-37.9,48.6-4.7,86.6c12,13.8,26.2,24.6,42.6,33
			C1185.3,2837,1235.9,2842.3,1285.2,2842.8z M567,1587.7c-0.5,0-1,0-1.4,0c0,54.3,0.5,108.6-0.3,162.9c-0.2,17.3,3.1,21.7,22,17.9
			c61.9-12.6,124.2-22.9,186.5-33.3c37.9-6.3,59.7-26.9,70.1-64.6c16.6-59.9,36.2-118.9,55.6-177.9c12.7-38.7,39.1-64.8,78-78
			c50.9-17.4,50.8-17.4,50.8-71.7c0-1,0-2,0-3c0-63.2-0.1-61.3-63.8-63.6c-48.6-1.7-88.2,10.4-127.2,41.8
			c-72.4,58.3-158,86.9-251.4,87.9c-18.8,0.2-19.1,8.6-19.1,21.7C567.1,1481.1,567,1534.4,567,1587.7z M1878.5,2828.3
			c72.9,21.1,141.9,44.8,214,52.5c69.1,7.4,138.3-16.7,159.8-107.9c19.2-81.5,34.5-163.3,43.4-246.5c1.5-13.6,3.3-23.2-16.6-21.1
			c-95.4,10.2-191.2,2.3-286.8,4.8c-40.5,1.1-40-10.2-40.7,40.9C1950.5,2648.2,1936.3,2741.5,1878.5,2828.3z M577.6,2174
			c5.7,90.2,41.3,184.9,114.8,264.5c13.6,14.7,23,16.1,39.8,4.7c47.3-32.2,95.8-62.7,144.3-93.1c28.8-18.1,51.9-40.7,66.3-72.1
			c22.1-48.2,57.9-84,103.1-110.9c17.2-10.2,42.5-17.3,48.9-32.3c7.5-17.5-15.8-37.2-19.4-57.6c-5.7-32.5-26.7-36.4-52.9-32.4
			c-14.8,2.2-29.8,5.1-44,9.7c-32.4,10.4-64.5,21.9-96.7,33.1c-86.4,30-177.1,21.6-265.9,28.5C567.7,2119.9,575.9,2115.4,577.6,2174
			z M2664.8,2614c0.6-77.8-18.3-151.1-51.6-221c-6.2-13.1-11-18.9-26-7.4c-64.6,49.4-136.9,83.7-215.9,103.1
			c-17,4.2-21.4,12.5-23.1,28.8c-9.1,83.9-20.2,167.6-42.1,249.3c-5,18.8-1.3,26.2,16.6,32.7c62.6,22.6,125.5,23.8,189.6,7.9
			C2626.5,2778.9,2665.2,2730.1,2664.8,2614z M1991.1,164.1c-54.4,0-108.8-0.1-163.2,0.1c-10,0-19.8-0.8-29.6,3.9
			c-128.3,61.3-214.7,157.6-247,298c-19.8,86.2-9.6,172.6,5.9,258c23.9,132.3,100,220.5,231.9,253.2c94.3,23.4,190.2,21.6,283.6-6.5
			c133.4-40,215.7-128,238.4-267.6c10.9-67,9.3-134.7,6.5-202c-5-119.4-46-225.6-122.9-317.9c-11.3-13.6-22.4-20-40.5-19.6
			C2099.9,164.9,2045.5,164.1,1991.1,164.1z M1901.5,2569.1c0-9.2,0-14.2,0-19.2c0.1-45.5,6.9-39.3-39.6-39.8
			c-69.5-0.7-139,0-208.4-2.6c-20.3-0.7-27,2.4-31.1,23.5c-20.8,106.6-49.2,210.2-132.2,288.4c-11.4,10.7-3,14.9,5.4,19.6
			c37.2,20.5,75.8,37.6,117.8,45.2c112.7,20.4,196.9-22.4,247.6-125.8C1890.8,2697.5,1899.5,2631.9,1901.5,2569.1z M1028.3,719.9
			c-6.4,3.3-11.1,5-15,7.9c-49.3,37-100.3,70.2-160.9,86.6c-68.3,18.5-138.6,24.2-208.4,31.6c-23.6,2.5-27.9,12-29.8,30.6
			c-6.5,62-12.3,124.1-20.7,185.9c-3,21.9,5,25.5,23.6,26.2c57.3,2.1,114.8,3.5,171.7,9.3c38.8,3.9,64.1-6.8,84.9-41.1
			c36-59.5,76.4-116.4,143.8-145.8c8.8-3.8,10.9-10.7,10.9-19.5C1028.2,835.4,1028.3,779.2,1028.3,719.9z M1028.4,966.6
			c-19,1.9-28.3,13-38.2,22.3c-28.8,27-54.5,57.3-72.7,92c-30.1,57.6-76.9,73.8-138,67.6c-57-5.7-114.4-7.1-171.6-10.9
			c-15.5-1-23.8,1.8-24.7,20.3c-2.8,56.2-6.7,112.4-11.8,168.5c-2,22.1,3.4,30.5,27.2,29.2c74.5-4.1,145.2-24.5,200.7-72.6
			c55.3-47.9,115.4-60.9,183.9-55.4c7,0.6,14.2-0.5,21.1,0.5c18.3,2.6,25.1-4.2,24.3-23.1c-1.3-33.1-0.3-66.4-0.3-99.6
			C1028.4,1059.4,1028.4,1013.5,1028.4,966.6z M753,2490.1c76.5,53.4,154.7,63.4,236.8,28.2c99.7-42.7,162.9-121.3,206.5-218
			c5.3-11.9,3.1-20-4.8-29.9c-19.4-24.3-37.9-49.5-55.8-75c-6.6-9.3-11.2-15.2-23.8-8.3c-50.7,27.8-99.4,57.1-123.9,113.9
			c-15.1,34.9-40,62.1-72.4,82.8C862.5,2417.8,809.8,2452.9,753,2490.1z M659.2,792.4c119.2-7.2,235.4-26.1,330.4-109.1
			c3.7-3.3,8.2-6.9,12.8-7.7c41.5-7.2,45.3-41,53.5-72.7c3.8-14.5,0.1-18.9-14.2-21.8c-51.5-10.6-103.5-14.7-155.8-11.3
			c-130.2,8.4-215.4,77.6-249.4,198.8C629.3,793.8,633.8,800.6,659.2,792.4z"/>
		<path class="st0" d="M1957.2,1173.9c75.5-0.1,138,62.9,137.6,138.6c-0.5,76-63.6,138.1-139.1,136.9
			c-75.4-1.2-135.4-61.7-135.9-136.9C1819.3,1236.3,1881.2,1174,1957.2,1173.9z M1871.2,1310.1c-0.5,51.4,35.5,87.9,86.6,87.9
			c47.6,0,86.7-38.9,86.8-86.1c0-47.4-38.1-85.4-86.5-86.2C1908.9,1224.8,1871.7,1261,1871.2,1310.1z"/>
		<path class="st0" d="M1395.1,1113.7c-76.8-0.6-134.9-59.8-134.5-137c0.4-77.4,60.8-136.4,139.3-135.8
			c75.8,0.6,135.1,61.2,134.7,137.7C1534,1056.5,1474.3,1114.4,1395.1,1113.7z M1398.7,1064.8c48.4-0.6,86.9-41,85.6-89.8
			c-1.2-47.2-40.9-85.2-88-84.4c-47.1,0.8-86.1,40-86.3,86.8C1309.8,1025.2,1350.6,1065.4,1398.7,1064.8z"/>
		<path class="st0" d="M2615.5,960.7c-0.2,77.3-57.9,134.8-135.3,134.7c-77.9-0.1-137.6-59.5-137.5-136.7
			c0.1-77,59.9-135.9,138-136.1C2558.9,822.5,2615.7,880.7,2615.5,960.7z M2566.4,958.5c-0.2-47.5-38.4-86.2-85.6-86.7
			c-48.6-0.5-87.8,38.8-87.5,87.7c0.3,47.8,38.1,86.1,85.6,86.7C2527.1,1046.8,2566.7,1007.2,2566.4,958.5z"/>
		<path class="st0" d="M1553.4,1252.5c-41.2-0.3-72.8-31.3-73.3-71.9c-0.5-41.6,32.3-73.8,74.8-73.5c40.8,0.2,73,31.8,73.4,72.1
			C1628.9,1220.4,1595.8,1252.8,1553.4,1252.5z"/>
		<path class="st0" d="M2579.1,438.1c-0.4,42.1-33.3,73.5-75.8,72.3c-41-1.1-71.2-32.8-70.8-74.2c0.4-40.6,32.3-72.6,72.6-72.7
			C2546.9,363.4,2579.5,396.3,2579.1,438.1z"/>
		<path class="st0" d="M2325.8,1216.4c-40.8-0.7-72.5-32.8-72.1-73.2c0.4-41.6,33.7-73.3,76.2-72.4c40.5,0.8,72.5,33.4,72.2,73.5
			C2401.7,1185.8,2368.5,1217.1,2325.8,1216.4z"/>
		<path class="st0" d="M2579.1,717.4c-0.1,40.5-31.9,73-72.2,73.8c-41.3,0.8-74.6-32.5-74.5-74.4c0.1-40.5,32-73.2,72.1-73.9
			C2545.6,642.1,2579.2,675.7,2579.1,717.4z"/>
		<path class="st0" d="M1732.5,1343.4c-40.6-1-72-33.7-70.9-74.1c1.1-41.4,35.1-72.9,77.2-71.6c39.5,1.2,72.1,35.5,71,74.9
			C1808.8,1314,1775.4,1344.5,1732.5,1343.4z"/>
		<path class="st0" d="M1420.4,536.8c-0.2,39.8-33.4,73.8-72.5,74.4c-40,0.6-75.3-34.7-75.1-74.9c0.2-40.8,35.4-75.1,75.8-73.9
			C1388.7,463.5,1420.6,496.5,1420.4,536.8z"/>
		<path class="st0" d="M2204.9,1343.4c-40.7,0-73-31.5-73.6-71.6c-0.6-40.1,34-74.3,74.8-74c40.9,0.3,72.6,31.6,73.1,72.2
			C2279.8,1312.1,2248.1,1343.4,2204.9,1343.4z"/>
		<path class="st0" d="M1345.8,663.7c40.9-0.6,73.1,30.1,74.5,70.9c1.3,41.4-31.3,75.8-72.5,76.4c-41,0.5-75.3-33.4-75-74.3
			C1273.1,696.8,1305.7,664.3,1345.8,663.7z"/>
		<path class="st0" d="M2258.5,571.4c-1.3,69.2,0.2,138.7-10.5,207.7c-9,57.8-39.3,98.9-87.9,126.5c-45.7,26-95.3,43.4-148.8,44.7
			c-48.3,1.1-96.7,3.1-144.9,0.9c-139.6-6.4-250.3-113.7-260.2-253.9c-5.8-81.3-7-162.8-3-244.5c3.9-78.7,39.2-138.4,101.5-183
			c122.1-87.6,313.3-112,453.6-3c63.1,49,100.9,110.9,100.2,193C2258.2,497,2258.5,534.2,2258.5,571.4z M2092.4,469.5
			c-1.8-2.2-3.5-4.7-5.6-6.8c-23.3-23.4-46.7-46.8-70.1-70.1c-3.4-3.4-7.7-8.8-12.5-4.8c-24.3,20.8-53.5,38.8-69.8,64.8
			c-8.7,13.9,22.3,28.1,33.8,43.5c4.2,5.6,10.5,9.5,14.6,15.1c18.4,25.1,36.7,32.8,60.2,4.6c10.7-12.8,26-21.7,39.2-32.5
			C2086.7,479.7,2092.6,477,2092.4,469.5z M2195.9,390c-9.9-22.1-22.3-39-36.6-54.5c-43.4-47.4-44.3-46.7-91.8-5.8
			c-16.9,14.5-22.3,24.3-2.2,40.5c17.8,14.5,32.4,33,49.5,48.4c7.9,7.1,13.5,24.8,28.3,14.7C2161.8,420.6,2178.3,404.7,2195.9,390z
			 M2129.8,510.6c-13.8,11.1-28,22.3-41.8,33.7c-39.7,32.7-39.7,32.7-5,67.7c34.4,34.7,34.4,34.7,71.1,2.5
			c44.9-39.3,45-39.5,1.4-82.6C2147.9,524.4,2142.1,514.4,2129.8,510.6z M2190.9,796.5c-5.4-14.6-20.5-24-32.2-36
			c-46.7-47.9-46.6-47.3-95.8-1.6c-10.5,9.8-12.1,15.8-1.1,26.1c22.1,20.6,43,42.5,64.5,63.7c4.1,4,7.6,9.4,14.9,8.4
			C2154.2,855.2,2191.2,812.3,2190.9,796.5z M1906.3,625.7c17.2-13.7,33.4-27.2,50.3-39.7c12-8.9,15.3-16.3,2.3-27.8
			c-15.8-14-29.3-30.4-45.1-44.4c-9-8-16.2-28.2-29.3-19.8c-21.6,13.8-39.1,34.1-57.8,52.1c-0.7,0.6,2.7,6.7,5.2,9.2
			c21.2,21.4,42.6,42.7,64.1,63.8C1898.6,621.8,1902.4,623.3,1906.3,625.7z M1972.7,763.6c-9.4-8.3-21-17.7-31.5-28
			c-39.9-39.3-39.7-39.4-82.5-5c-29.6,23.9-29.6,23.9-3.9,52.1c44.6,49,44.6,48.9,97,5C1958.6,782.1,1967,778,1972.7,763.6z
			 M1861.5,658.2c-3.6-4.2-7.2-8.9-11.3-13c-15.6-15.7-32.4-30.4-46.7-47.2c-13.2-15.6-22.4-16.5-38.2-1.8
			c-42.9,40-43.7,39.2-4.1,82.1c35.3,38.2,35.5,38.5,76.3,3.8C1845.6,675.2,1856.6,670.7,1861.5,658.2z M2077.4,679.8
			c-4.5-5.2-7.5-9.1-10.9-12.5c-12.6-12.9-26.7-24.6-37.8-38.7c-14.7-18.7-25.7-16.5-43-1.7c-44.4,38-45.2,37-4.8,77.3
			c31.9,31.7,31.9,31.8,66.7,2.3C2057.4,698,2066.8,689.3,2077.4,679.8z M1969.4,338.7c-5.8-4.2-15.5-9.9-23.3-17.5
			c-34.2-33.5-34.6-34.5-69.6-0.8c-14,13.4-43.7,21.5-36.6,43.7c6.1,18.7,28.9,32,44.6,47.5c2.4,2.3,5.6,6.9,10,3
			c24.1-21,48.1-42.1,72-63.3C1967.7,350.2,1967.5,347.7,1969.4,338.7z M2084.4,883.2c-4.4-13.6-15.2-19.9-23.4-28.1
			c-51-51.2-51.3-51.3-105.7-2.4c-6.5,5.8-22.2,9.1-15.4,21.6c6.3,11.6,13.6,26.3,29.8,26.9C2008.8,902.9,2047.3,899.1,2084.4,883.2
			z M1727.4,838.9c21.2,23.6,48.1,37.9,76.3,51.4c23.9,11.4,36-3.9,48.5-17.3c14.8-15.8-5.7-22.8-12.1-30.5
			C1788.5,781,1788.1,781.4,1727.4,838.9z M1787.7,507.2c4.6-0.1,62.1-50.7,62.5-55c0.4-3.7-51.6-56.4-55.7-56.5
			c-5.4-0.2-62.4,53.3-61.9,58.1C1733.1,459.4,1782.7,507.4,1787.7,507.2z M1683.6,671.4c-12.6,8.9-26.5,14.8-25.3,31.9
			c2.1,30.3,10.6,58.7,26.8,84.7c5.4,8.6,9.6,9.4,18.6,3.6c57.1-36.6,57.5-38.2,11.2-88.9c-6.7-7.4-13.4-14.8-20.3-22
			C1691.4,677.3,1687.5,674.6,1683.6,671.4z M1652.5,538.5c-0.2,14.9,25.1,54.2,35.4,55.2c7.4,0.7,57.5-44.6,56.9-51.5
			c-0.4-4.4-49.2-51.6-53.7-51.9C1678.7,489.7,1652.7,522.2,1652.5,538.5z M1725,319.3c-24,16.4-36.5,35.8-49.8,54.7
			c-10.5,14.8-2.7,22.8,7.1,33c13,13.5,18.8,1,26.5-5.5c11.5-9.8,23.1-19.4,33.8-30c5-5,16.9-8.8,10.6-18.3
			C1745.2,340.7,1734.3,330.2,1725,319.3z M2057.8,268c-28.4-15.3-59.2-19.3-90.1-21.8c-8.2-0.6-20.3-0.3-10.2,15
			C1995.1,318,2012,319.4,2057.8,268z M1870.7,256c-27.5,0.9-84,20.1-95.5,29.6c-4.7,3.9-5.7,6.3-2.8,12
			c10.5,20.7,25.8,23.9,43.2,8.2C1832.5,290.5,1849.4,275.2,1870.7,256z M2209.8,637c-23,14.7-49.1,28-50.4,45.7
			c-1.3,16.9,23.5,32.6,44.2,45.6C2205.7,697.1,2207.6,669.6,2209.8,637z M2208,449.4c-41.8,28.2-41.1,35.6,0,55.8
			C2208,488.2,2208,470.8,2208,449.4z"/>
	</g>
</g>
</svg>
