<?xml version="1.0" encoding="utf-8"?>
<!-- Generator: Adobe Illustrator 23.0.0, SVG Export Plug-In . SVG Version: 6.00 Build 0)  -->
<svg version="1.0" xmlns="http://www.w3.org/2000/svg" xmlns:xlink="http://www.w3.org/1999/xlink" x="0px" y="0px"
	 viewBox="0 0 3000 3000" style="enable-background:new 0 0 3000 3000;" xml:space="preserve">
<style type="text/css">
	.st0{stroke:#000000;stroke-width:10;stroke-miterlimit:10;}
</style>
<g id="Layer_1">
</g>
<g id="Layer_2">
	<g>
		<path class="st0" d="M751.8,1118.8c-52.4-37.8-97.6-79.6-133.5-130.4c-115.9-164-130.2-339.5-52.7-522.2
			c83.1-196,234.8-309.6,441.3-350.8c119.4-23.8,239.9-25.4,359.1,3.8c71.5,17.5,129.2,57.3,171.1,118.3
			c7.7,11.3,12.5,12.7,24.2,5.1c112.6-73.5,234.5-123,368.9-137.6c93.9-10.2,188.1-12.7,280.6,10.3
			c136.2,33.8,220.7,128.4,234.4,268.1c14.7,151.1,24.1,303,4.4,454.5c-12.3,94.7-42.9,182-120.2,245.6
			c-45.3,37.3-98,56.2-159.4,63.3c32.8,27.7,62.4,53.8,88.2,83.9c98.6,115,147.5,248.4,147.8,399.5c0.5,239.4,1.2,478.9-0.1,718.3
			c-1.5,286.8-189.8,524.7-464.7,590c-46,10.9-92.8,15.3-140,15.3c-240.1-0.1-480.2,0.5-720.3-0.1c-296.2-0.7-538.3-201.1-595.1-492
			c-7.4-37.8-10.1-76.2-10-114.7c0.1-238.1-0.8-476.2,0.3-714.3c1-213.5,90.3-381.9,264.3-505.5
			C743.5,1124.8,746.7,1122.5,751.8,1118.8z M2357.3,1989.4c0-114.1-0.1-228.1,0-342.2c0-52.5-3.8-104.6-16.8-155.7
			c-62.7-248.2-281.4-417.6-541-418.2c-239.4-0.5-478.8-0.2-718.2-0.1c-23.8,0-47.6,1.2-71.4,3.9
			C738,1108.3,524.6,1346.5,524.4,1620c-0.2,240-0.1,480.1-0.2,720.1c0,31.9,2.3,63.5,6.7,95.1c37,265,272.1,469.6,539.9,469.6
			c246,0,492.1-0.1,738.1,0.1c46.7,0,92.5-6.1,137.5-18.2c243.5-65.4,409.7-282.5,410.8-537.2
			C2357.7,2229.5,2357.3,2109.4,2357.3,1989.4z M1607.6,424.1c1.9,34.3,4.4,66.6,4.9,98.9c0.2,13.4,3.2,18.1,17.4,18.2
			c47.5,0.4,94,8.9,136.9,29.6c76.4,37,147.9,24.3,217-18c42.7-26.2,88.3-45.4,136.3-59.1c20.4-5.9,41.2-10.6,62.7-8.6
			c32.5,3.1,45.6,28.7,28.9,56.7c-13.9,23.3-30,45.5-42.6,69.4c-39.5,75-107.8,108.2-184.7,128.6c-45.2,12-91.9,4.8-137.8,7.5
			c-82.1,4.7-164.4,4.6-246.6,4.3c-8.2,0-18.1-2.8-19.2,10.5c-1,12.4-13.5,24.4,3.5,36.8c109.7,79.9,231.5,128.1,366.8,139.1
			c149.8,12.3,289.6-21.9,421.5-93c23.6-12.7,32.2-28.1,34-53.6c9.3-132.8,2.4-265.2-9.2-397.3c-5.7-64.7-28-123.3-78.2-169.2
			c-72.9-66.5-163.1-73.4-254.5-77.8c-8.9-0.4-9.9,4.3-7.5,11.4c9.4,28,11.1,57.1,11.9,86.2c3.2,106.9-52,186.7-153.3,220.9
			c-69.6,23.5-139.4,20.7-209.4,1C1671.9,457.1,1639.8,441.6,1607.6,424.1z M1491.8,258.2c-1.9,6.1-3.6,9.8-4.2,13.5
			c-9.2,61.1-43.2,100.3-102.2,119.3c-53.6,17.3-107.5,32.9-162.1,46.5c-44.9,11.2-90.3,21.4-127.1,52.9c-9.8,8.4-12.6,13.2-1.8,24
			c28.7,28.5,39.6,63.7,30.9,103.7c-2.3,10.8,0,16.8,9.7,22.5c24,14.1,46.7,30.2,68.2,48c58,48,103.7,103.9,116.3,181.3
			c7.3,45,16.6,89.7,24.2,134.7c2.3,13.9,6.9,21.2,22.7,19.6c15.1-1.5,30.5-1.3,45.7,0c13.6,1.1,20-4.8,25.5-16.3
			c42.1-87.3,76.9-177.3,99.1-271.8c26.8-113.9,38.4-228.7,13.3-344.5C1539.8,344.3,1522.7,299.5,1491.8,258.2z M566.8,662.9
			c0.4,115.4,26.8,200.9,77.8,279c16.7,25.5,28.4,28.1,55.4,13.1c6.3-3.5,12.8-7.4,17.8-12.6c43.9-46,78.5-97.9,83.7-162.8
			c5.2-64.9,31.7-114,90.3-143.9c9.2-4.7,9.2-10.1,7.5-19.1c-5.8-31.3-2.9-63.5,19.1-86.3c22.1-23,19.6-44.2,9.9-69.2
			c-4.3-11.1-7.2-22.7-11.8-33.7c-13-31.1-24-63.8-51.3-86.1c-26.6-21.8-54.5-42.1-81.2-63.8c-8.4-6.8-13.8-6.3-21.8,0.6
			C638.1,385.5,574.1,521.4,566.8,662.9z M701.2,1010.9c23.5,27.5,53.7,48.8,83.1,71.2c10.4,8,18.8,8.3,30.5,2.5
			c72.2-35.8,148.6-56.6,229.2-58.8c78.2-2.1,156.5-1.7,234.7-1.5c15.6,0.1,19.6-4.4,16.5-19.4c-6-28.5-11.4-57.2-15.6-86
			c-10.1-70.4-34.3-132.9-91.5-179.4c-25.8-20.9-52.4-40.4-80.1-58.8c-8.5-5.7-13.4-3.4-20.6,2.1c-49.9,38.3-103,37.3-152.5-2.5
			c-4.7-3.8-8.2-8.3-15.4-4.5c-33.6,17.8-60.4,41-65.5,81.6c-1.5,11.8-1.7,23.9-4.1,35.5C830.3,885.4,788.4,962.6,701.2,1010.9z
			 M818.2,239.7c0.9,1.6,1.3,3,2.3,3.8c6.2,4.9,12.4,10,19,14.4c60.7,40.7,106.8,92.5,127.2,164.4c4.5,15.9,10.6,31.3,14.4,47.3
			c2.4,10.1,7.2,11.2,16.6,11.7c26.2,1.4,49.2-2.2,65.7-25.7c4.3-6.2,12.2-10,18.6-14.7c39.7-28.6,86-40.2,132.4-51.4
			c57.8-13.9,115.3-29.1,170.7-50.8c42.1-16.4,71.6-86,55.8-127.8c-2.4-6.2-7.4-9.1-12.4-12.3c-22.5-14.5-46.6-25.3-72.5-31.7
			c-108.6-26.5-218.1-24.5-327.3-6.2C953.8,173.2,882.6,198.1,818.2,239.7z M1811.4,433.3c18.1,1,35.9-0.6,53.4-4.4
			c70.9-15.1,128.3-47.5,148.6-123c13.2-49.1,6.9-98.2-5.2-146.9c-2.7-10.9-9.3-10.7-17.8-10.3c-150.3,6.4-285.5,57.4-410.1,139.3
			c-3.6,2.4-11.1,4.9-8.9,9.1c10.3,20.3,8.5,46.8,28.4,61.9C1662.4,406.3,1732.6,432.4,1811.4,433.3z M2386.1,892.9
			c-33.2,17.7-65.1,31.9-97.8,44.3c-129,48.8-261.5,64.6-398.1,42.5c-115-18.6-220.2-61.4-315.4-128.4c-13.6-9.6-18.4-8.1-23.4,8
			c-15.4,49.3-35.9,96.8-57.5,143.7c-9.6,21-9.7,21.1,12.8,21.1c97.4,0.1,194.9,0.1,292.3,0.1c97.7,0,190.7,20.1,277.6,65.4
			c13.5,7,27.1,10.2,41.8,10.3c25.2,0.2,50.2-1.3,75-5.8C2291,1076.3,2375.6,989.7,2386.1,892.9z M2152.9,536.5
			c-55.5,10.7-105.4,34.6-153.2,62.7c-78.5,46.1-159.4,58.2-244.3,19.5c-39.7-18.1-81.5-26.7-124.9-29.4c-14.1-0.9-21.4,1.2-22.5,18
			c-1.8,26.4-5.5,52.8-11.1,78.6c-3.5,16.1,2.1,17.4,15.4,17.1c75.6-1.4,151.1-1.4,226.7-3.6c44.2-1.3,89.1,3.2,132.4-6
			C2058.8,674.5,2120.7,622.9,2152.9,536.5z M1012.3,661.5c36.7,0.2,67.5-30.3,67.4-66.6c-0.2-36.1-29.6-65.7-65.7-66.2
			c-37.4-0.5-67.7,28.6-68.3,65.4C945.2,630.6,975.6,661.3,1012.3,661.5z"/>
		<path class="st0" d="M778,2732c-96.2-99.7-153.1-213.5-162.1-349c-6.2-93.4-8-187.1,3.1-280.1c28.4-238.3,134.1-435.8,319.1-589.6
			c170.2-141.5,369.1-197.3,587.1-193.5c131.7,2.3,258.1,28.7,374,93.8c167.6,94,262.4,237.7,275.4,429.1
			c21.5,318.9-70,601.9-283,843.3c-11.6,13.2-18.3,14.3-30.6,1.3c-18.9-19.9-19.5-18.8-2-38.9c41.8-48,80.7-98.2,114.2-154.9
			c-6.9-2.4-12.7-4.7-18.6-6.6c-46.8-14.6-92.7-31.8-139.1-47.4c-99.7-33.5-155-104.5-177.1-204.3c-24.5-110.7,9-207.9,71.6-297.8
			c3-4.3,7.1-7.9,10.8-11.6c11.1-10.9,23.6-17.2,39.5-11.5c15.7,5.7,20.3,19.3,20,33.6c-0.8,38.4-3.2,76.8-4.8,115.2
			c-0.7,15.9-1.8,31.8-1.4,47.7c0.8,34.8,13.9,64.4,40,87.9c34.6,31.2,72.7,57.6,112.7,81.2c24.1,14.3,50.8,17.5,76.8,8.2
			c45.3-16.3,84.8-38.3,95-93c21.2-113.6,39-227.3,29-343.5c-14.9-173.6-95.3-306-247.8-392.8c-3.3-1.9-6.8-3.5-13.6-7
			c3.6,37.4,1.9,72.1-5,106.2c-31.9,156-124.3,239.4-268.4,257.2c-67.9,8.4-135.9,18-204.1,10.9c-108.8-11.2-208.6-45.5-283.8-130.3
			c-40.5-45.7-64.7-99.7-72.1-160.8c-1-8.5-2.6-17-4.2-26.9c-20.2,9.5-35.7,24-51.9,37.1c-155.2,125.6-253.1,286.6-296.4,481.1
			c-2.6,11.6-1.1,21.7,4.5,32.4c36.5,69.2,93.2,98.2,181.1,89.3c35.5-3.6,70.9-9.8,105.8-17.2c51-10.8,74.9-39.1,81.3-91.6
			c2.3-18.4,4.5-36.8,7.4-55.1c2.5-16.5,8-31.7,27.1-34.8c19.2-3.1,31.4,8.4,40,23.6c22.8,40.3,31.1,84.2,30.5,130
			c-0.6,48.3-13.7,94.3-30.8,138.9c-14.6,38-42.5,64.9-79.5,82.3c-66.8,31.4-138,41-210.7,43c-51.7,1.4-103.5,2.6-155.1-2.3
			c-15.9-1.5-18.5,3.1-17.3,18.3c9.3,117.1,57,216.6,136.3,301.8c8.2,8.8,9.4,13.4-0.1,21.6C792.2,2713.4,785.8,2722.9,778,2732z
			 M1185.6,1703.7c33.7,26.5,103.8,57.2,156.5,66.7c94.8,17.1,188.7,6.4,282.1-11.6c72.7-14,124.4-55.5,158.3-120.6
			c30.3-58.1,39.8-119.9,35.2-184.8c-1.4-19.6-7.2-30.5-27-37.2c-215.7-72.8-428.5-63.5-638.7,21.4c-22.6,9.1-43.8,21.8-65.8,32.5
			c-15.1,7.4-10.9,21.6-7.6,31.3c3.7,11.1,13.3,0.8,19.5-1c43.3-12.7,86.5-25.8,132.5-17.7c55.4,9.8,77.8,47.3,62.5,101.5
			C1277,1640.9,1241.4,1680,1185.6,1703.7z M665.4,2118.6c-3.3,66.8-5.4,127-3.7,187.2c0.3,9.7,5.9,9.7,13,10.2
			c70.9,4.3,141.9,4.5,212.7-0.9c47.8-3.6,94-14.8,137.8-34.8c19.1-8.7,37-20,46.6-38.8c31-60.4,44.2-124.1,31.9-197.7
			c-4.5,15.4-7.3,25.4-10.4,35.2c-16.6,53.2-50.8,87.3-106.5,98.2c-16.9,3.3-33.7,6.9-50.7,9.9c-43.1,7.7-86.4,14-130.2,9.4
			C751,2190.6,705.1,2166.1,665.4,2118.6z M1729.4,2002.8c-40.8,69.9-62.8,142.7-43.4,222.8c15,61.9,41.8,117,101.1,147.3
			c63.7,32.5,132.8,51.8,200.9,72.9c5.8,1.8,11.6,3.3,15.5-3.9c20.7-38.8,39.4-78.4,55.5-123.2c-6.8,2.9-9.8,4.2-12.7,5.5
			c-54,24.3-106.4,22.9-157-9.6c-32.3-20.8-63.5-43-93.7-66.9c-50.7-40.1-73.3-92.4-70.3-156.3
			C1726.7,2061.8,1728.1,2032.3,1729.4,2002.8z M1200.4,1528.7c-33.6,1.7-69.2,11.2-104.1,24.3c-11.1,4.2-8.6,11.5-6.1,19.1
			c9.7,29.8,24.6,56.8,43.2,82.1c6.7,9.1,13.8,10.8,23.8,7.5c40.5-13.5,70.6-37.8,85.4-79.2c13.8-38.7,4.6-52.6-36.4-53.8
			C1205.5,1528.7,1204.8,1528.7,1200.4,1528.7z"/>
		<path class="st0" d="M1421.2,2465.1c-16.1,35.2-33,65.8-52.1,95.1c-71.5,109.8-174.7,158.2-303.5,156
			c-37.8-0.7-75.4-4.8-112.6-12.1c-13.4-2.6-19-7.2-12.8-21c1.9-4.1,2.2-9,2.8-13.6c1.5-12.9,6-16.8,20.7-13.9
			c62.8,12.7,125.8,16.7,189.4,3.2c65.4-13.9,116.3-49,157.3-100.5c39.8-49.9,63.4-108.4,88.2-166.2c6.5-15.2,12.2-30.8,21.5-44.7
			c7.3-10.9,18.1-16.2,30.7-13.6c12.9,2.7,19.5,12.4,21.6,25.6c2,12.6,1.3,25.2,0.3,37.7c-4.1,49.2-0.7,98.1,6.8,146.7
			c11.5,74.6,48.7,110.9,127.7,126c37.8,7.2,75.3,5.7,112.2-4.6c11.4-3.2,15.8-1.9,19.5,10.3c10.2,33.5,11.1,34-23.3,40.9
			c-67.8,13.6-133.4,6.5-195-25.9c-56-29.5-81-79.8-89.2-140C1427.6,2523.6,1424.9,2496.6,1421.2,2465.1z"/>
		<path class="st0" d="M1427,611.7c0.2,54-44.2,98.8-98.2,99.1c-53.8,0.3-98.4-44.1-98.8-98.2c-0.3-54.1,43.9-98.9,97.9-99.2
			C1381.7,513.1,1426.8,557.8,1427,611.7z M1328.2,661.5c27.1,0.1,49.7-21.7,50.2-48.6c0.5-27.5-22.9-50.8-50.6-50.4
			c-27.3,0.4-48.6,22.3-48.6,49.8C1279.2,639.8,1300.7,661.4,1328.2,661.5z"/>
		<path class="st0" d="M754.5,710.9c-53.8,0.4-98.8-44.2-99.2-98.2c-0.3-53.9,44.1-98.9,98.1-99.3c53.7-0.4,98.7,44.1,99.2,98.1
			C853.2,665.1,808.4,710.5,754.5,710.9z M754.6,562.5c-26.8-0.3-49.6,21.7-50.2,48.6c-0.7,27.8,22,50.6,50.1,50.4
			c27.4-0.2,48.9-21.8,48.9-49.3C803.3,584.8,781.7,562.8,754.6,562.5z"/>
		<path class="st0" d="M1111.3,922.3c0.4,53.5-44.3,98.9-98,99.3c-53.8,0.4-98.9-44.1-99.3-98.1c-0.4-53.9,43.9-98.8,98-99.3
			C1065.6,823.7,1110.9,868.4,1111.3,922.3z M1013.5,873.6c-27.4-0.4-49.7,20.8-50.6,48c-0.9,27.3,22.3,51,49.9,51
			c27.2,0,49-21.8,49.2-49.2C1062.1,895.8,1040.9,874,1013.5,873.6z"/>
		<path class="st0" d="M1011.6,302.3c-0.2-54.4,43.7-98.8,97.8-99.1c53.9-0.2,98.6,44.3,98.7,98.3c0.1,54.1-44,98.8-98,99.1
			C1056.2,400.9,1011.8,356.6,1011.6,302.3z M1060.8,301.2c-0.2,27.9,20.4,49.6,47.8,50.2c27.9,0.6,51.2-22.1,51.1-49.7
			c-0.2-26.9-22.5-49-49.6-49.2C1082.5,252.3,1061.1,273.6,1060.8,301.2z"/>
		<path class="st0" d="M1717.5,1563.2c0.5,75.8-56.4,148.4-130,166.5c-10.7,2.6-16.8,1-17.4-11c0-0.7-0.1-1.3-0.2-2
			c-6.3-28.6-6.1-28.2,20-39.8c48.4-21.7,77.9-58.4,78.5-112.1c0.5-52.1-26.4-90.1-71.2-116c-5.7-3.3-17.5-2.9-15.6-12.1
			c2.8-13.4,8.4-26.4,14.7-38.6c2.1-4.2,8.4,0.9,12.4,2.5C1672.1,1426.6,1717,1493.8,1717.5,1563.2z"/>
		<path class="st0" d="M1461.2,1585.6c-1.4,54.8-25.3,96.3-67,128.6c-8.8,6.8-14,4.8-18.3-4.3c-0.8-1.8-1.6-3.7-2.9-5.2
			c-14.4-16.2-11.7-27,5.1-42.5c48.9-45.2,45.5-117-6.4-157.8c-13.6-10.7-12.3-17.5-4.9-29.9c15.3-25.4,15-26,37.4-7.3
			C1441.6,1498.3,1459.9,1538.7,1461.2,1585.6z"/>
	</g>
</g>
</svg>
