<?xml version="1.0" encoding="utf-8"?>
<!-- Generator: Adobe Illustrator 23.0.0, SVG Export Plug-In . SVG Version: 6.00 Build 0)  -->
<svg version="1.0" xmlns="http://www.w3.org/2000/svg" xmlns:xlink="http://www.w3.org/1999/xlink" x="0px" y="0px"
	 viewBox="0 0 3000 3000" style="enable-background:new 0 0 3000 3000;" xml:space="preserve">
<g id="Layer_1">
</g>
<g id="Layer_2">
	<g>
		<path d="M2179.6,1084.6c20.3-20.3,40.2-39.5,62.3-56.2c60.1-45.5,128.1-68.7,203-70.6c81.2-2,162.5-5.1,243.7,0
			c67.9,4.3,129.5,23.1,173.5,79.8c26.3,33.8,36.4,73.9,43,114.7c11.7,72.6,21.5,145.6,12.5,219.6c-8.1,67-18.9,133-59.3,189.7
			c-5.9,8.3-3.1,13.7,3.3,17.6c39.8,24.3,45.7,62.3,44.4,104.3c-1.7,54.8,5.2,109.6,1.2,164.5c-4.8,66.7-40.4,112.5-96.2,145
			c-49,28.6-103.8,38.2-158.8,45.7c-89.6,12.3-179.9,16.4-270.2,18.8c-71.3,1.9-142-1.4-209.2-29c-8.5-3.5-16.2-1.2-24.4,1.5
			c-110.9,35.8-224.6,52.7-341.2,47.6c-46.5-2-92.7-7.1-136.9-23.1c-58.8-21.2-88-61.3-90.4-123.6c-3.1-78.2,5.5-156,9.8-234
			c3.5-63.8,8.9-127.4,13.4-191.1c0.4-5.1,0.5-10-2-15c-38.5-77.7-44.2-160.7-37.2-245.1c4.5-54,14.3-107.4,34.6-158.1
			c38.4-96,110.9-147.8,212.2-160.5c48-6,96.3-9.5,144.8-8.5c104.1,2.1,181.5,56.8,218.7,154.6
			C2175.8,1076.7,2177.5,1079.9,2179.6,1084.6z M2658.1,1621.8c-35-16.3-55.5-42.5-65.8-76.9c-8.2-27.4-11.4-55.6-9.3-84.2
			c2.8-38.9,14.9-51.7,53.3-49.2c34.6,2.3,54.6-14.2,68.3-42.9c29.3-61.1,21.7-120.2-10-177.8c-8.4-15.3-22.5-24.4-38.1-31.5
			c-38-17.3-78.1-26.5-119.5-29.7c-61-4.8-120,2.9-174,33.7c-79.5,45.4-117.9,119.8-142.1,204c-2.7,9.4-0.6,13.7,10.6,14.2
			c31.1,1.3,61.6,6.1,90.5,18.6c34.4,15,52,40.4,50.4,78.9c-1,25.5-6.2,49.7-16.5,73c-3.1,7-6.3,12.1,5.6,14.7
			c50.5,10.7,85.1,41.2,105,88.3c4.7,11.1,9.1,10.1,18.4,5.8c30.2-13.7,60-13,88.5,5.6c12.3,8,18.9,20.8,28.4,32.7
			C2617.7,1671.4,2635.3,1646.1,2658.1,1621.8z M2077.8,1890.4c8.7-5.1,10.8-12.1,14.6-17.7c37.6-54.6,88.6-89,153.8-101.9
			c5.1-1,11.8-5.2,12.5,5.2c0.5,7.4,1.7,14.7-9.1,15.2c-2.5,0.1-4.9,1.4-7.4,2c-69.7,17-118.6,58.9-150.7,122.6
			c-8.3,16.5-4.8,27.1,7,39c37.7,37.9,83.9,59,135,71.1c5.4,1.3,10,0,15-1.6c150.5-47.1,221.2-194.4,215.9-296.5
			c-3.9-75.4-49.8-132-123.8-143.4c-57.7-8.9-111.5,6.4-162.1,32.9c-93.3,48.8-137.4,129.9-123.5,229.7c2-6.8,3.4-10.2,4-13.8
			c26.1-155.7,176.2-210.9,281.6-209.2c40.7,0.7,71.9,28.5,76.6,68.8c11.9,101.9-13.9,189.2-103.2,249.6
			c-34.2,23.2-72.7,35.6-113.3,42.2c-6.7,1.1-12.4,1.2-13.9-8.3c-1.4-9,2.1-11.5,9.9-12.1c4.5-0.4,8.8-1.8,13.3-2.7
			c142.9-29.1,199.7-134.4,187.6-261.2c-2.8-29.5-20.7-48-49.5-54.6c-24.8-5.6-48.7,0.6-72.6,6.1c-62.5,14.2-118.6,39.7-157.6,93.5
			C2087.2,1787.9,2074.1,1835.6,2077.8,1890.4z M2143.5,1134.4c6.3-14.5,22.2-21.5,17.1-37.8c-26.3-83.5-88-143.7-172.8-154.6
			c-55.7-7.1-110.9-0.2-166,5c-109.9,10.3-184.1,72.4-214,177.8c-25.9,91.3-31.4,183.3-15.8,277.5c12.9,77.7,54.6,126.6,129.7,146.4
			c78.5,20.6,158.1,27.8,238.8,13.1c6.8-1.2,13.7-1.5,16.7-10.3c6.2-17.8,13.5-35.2,20.7-53.6c-57.2,24.1-96,30.6-151.3,25.8
			c-86-7.4-154.7-67.3-169.7-147.8c-28.9-155.6,77.2-322.3,230.8-362.5c83.9-22,159.1,4.4,207.8,73.8
			C2125.4,1101.1,2133.1,1116.6,2143.5,1134.4z M2137.1,2011.3c-38.2-23.9-67.8-51.3-86.7-88.5c-5.1-10.1-12.1-7.1-19.6-5.9
			c-28.9,4.4-57.2,1.7-82.1-14.2c-11.4-7.3-18.2-6-28.6,0.8c-50.9,33.5-102.2,22.8-133.4-27.3c-28.9-46.4-39.1-96.3-27.3-150.1
			c14.4-66,48.2-108.5,126-102.6c17.4,1.3,11-11.9,12.7-19.9c2.3-10.7-2-14.6-13.4-14.1c-45.4,2-90.2-4.2-134.6-12.2
			c-45.9-8.4-89-24.7-126.8-58.9c-3.5,49.3-7.3,94.8-9.9,140.4c-4.8,85.7-13.8,171.1-13.2,257c0.5,72.2,27.4,106,96.7,125.2
			c8,2.2,16.2,4,24.4,5.6c84.6,15.9,169.5,13.5,254.3,1.9C2029.3,2041.2,2082,2029.5,2137.1,2011.3z M2899.4,1306.8
			c1.2-35.6-3.8-75.4-9.6-114.9c-4-27.4-9.2-54.7-15.7-81.6c-7-28.6-20.8-54-41.7-75.3c-7.3-7.5-11.9-9.9-18.6,1
			c-15.5,25.3-31.9,50-48.4,74.6c-5,7.5-6.2,12.4,2.2,18.9c17,13.1,25.6,31.7,30.3,52.5c13.6,60.3,18.3,121.1,10.8,182.6
			c-8.5,69.3-44.4,109.6-103.4,117.4c-27.2,3.6-43.3-8.2-47.8-35.2c-0.7-4.3,1.3-10.8-3.5-12.2c-11.7-3.5-24.2-5.1-36.1-1.5
			c-10.1,3-12.9,12.5-13.6,21.6c-1.5,21.3-0.9,42.5,3.2,63.6c13.7,70.4,54.5,97.7,125,86.3c71.8-11.6,119.8-48.2,141.2-119.8
			C2890.7,1428,2899.1,1370.4,2899.4,1306.8z M1979.8,1325.9c0,0.8,0,1.6,0,2.5c18.1,0,36.2-0.7,54.2,0.3
			c10.6,0.5,14.9-3.6,17.3-13.3c6.3-26.1,7.8-52,3.1-78.6c-1.9-10.7-5-15.2-16.6-15.9c-25-1.6-49.9-5.4-74.9-7.9
			c-11.4-1.1-17.1-4.5-15.1-18.1c3.1-20.3,3.4-41.1,5.7-61.6c4.6-41.1,0.7-45.2-40.8-40.8c-5.1,0.5-10.1,2.2-15.1,2.8
			c-10,1.2-13.9,6.4-14.6,16.6c-2.1,31.5-5.7,62.9-7.6,94.4c-0.8,13-4.7,18.4-18.6,17.5c-27-1.6-54.2-1.7-81.3-2.4
			c-6.4-0.2-12.5-1.1-15.9,7.1c-14.9,35.5-23.9,72-21.8,110.9c0.7,12.8,6.5,14.8,17.3,13.1c15.9-2.5,31.9-4.1,47.9-6.3
			c37.5-5.3,37.5-5.4,37.5,32.9c0,5.2,0,10.3,0,15.5c0,64.2,1.6,65.5,66.3,54.8c1.9-0.3,3.8-1,5.7-1.2c9.6-1.3,12.1-6.1,11-15.9
			c-3.5-30.1-4.9-60.4-8.9-90.4c-1.8-13.8,2.7-16.6,15.1-16C1946.2,1326.5,1963,1325.9,1979.8,1325.9z M2425.5,983.1
			c-9-3.5-15.8-1.5-22.6-0.5c-87.2,13-156.7,57.1-212.5,123.5c-57.1,67.9-91.4,147.4-113.9,232.5c-7.8,29.5-13.8,59.5-15,92.7
			c26.6-17.3,52.3-30.9,80.4-38c11.7-3,17-8.5,19.8-19.8c12.9-51.4,31.2-100.9,50.6-150.1c22.2-56.2,60.8-96.4,115.2-122
			c5.2-2.4,11.2-4.8,14.5-9.1C2369.9,1056.3,2397.3,1020,2425.5,983.1z M2079.6,1253.6c13.6-31.1,28.7-60.9,44.6-90.2
			c3.8-7,1.1-12.2-1.2-18.1c-39.3-102.2-133.8-144.1-235.7-103c-118.1,47.6-179.5,139.1-193.4,262.6
			c-10.7,95,36.1,167.6,118.8,190.6c77.7,21.6,149.2,3.6,215.8-38.8c4.3-2.7,8.6-5.5,9.2-11.6c2.1-20,4.5-39.9,7.1-63.3
			c-5,5.7-7.5,8.5-9.9,11.4c-54.4,66.4-124.5,90.4-208.2,75.9c-73.5-12.7-119.1-79.9-109.8-162c9.1-80.8,45.8-147,108.7-198.2
			c79.6-64.7,171.7-46.3,221.6,43.3C2065,1183.8,2074.2,1217.7,2079.6,1253.6z M2633.8,1851.1c0.4,8.1,0.3,16.5,1.2,24.8
			c4.7,42.3,31.9,65,73.4,61.9c62.8-4.8,116.3-49.7,131.1-110.5c2.4-10,4.9-20,6.5-30.2c5.8-38.7,18.1-76.6,17.2-116.3
			c-0.5-24.2-14.2-42.8-35.7-42.9c-43.6-0.3-85.8,5.8-120,38C2656.9,1723.6,2635.9,1783.1,2633.8,1851.1z M2790.7,1304.1
			c-0.2-38.8-4.5-77.1-12.6-115.2c-6.4-29.9-24.1-48.7-51.7-60.2c-21.7-9-44.6-10.7-67.3-13.4c-73.6-8.9-147.2-21.1-221.7-17.6
			c-92.5,4.3-165.9,40.5-204.1,130.5c-19.1,45.2-35.8,91.3-48.1,138.8c-1.3,5-9.4,12.9,0.5,16.1c10.9,3.6,12.2-6.9,13.8-14.1
			c4.8-22.1,12-43.4,20.6-64.2c37.7-91.1,97.8-159.6,196.4-185.2c88-22.8,174.1-13.8,256.6,24.6c19.9,9.2,35.2,24.2,44.6,44.1
			c18.1,38.4,31,78.4,25.2,121.4c-5.6,42.1-16.4,83.1-53.1,109.9c-12.6,9.2-14.8,18.2-10,31c5.3,14,17.1,12.2,27.8,9.9
			c37.9-8,63.6-29.7,73.8-68.1C2789.1,1363.4,2790.9,1333.9,2790.7,1304.1z M2881.3,1658c1.1-4.7,1.8-6.4,1.9-8.1
			c1.3-29.1-21-42.2-39.2-58.4c-6.1-5.5-9.7-5.5-16.2-1.1c-40.3,27.3-85.9,37-133.7,37.7c-9.3,0.1-15.7,2.8-21.9,9.3
			c-100.1,106.1-109.6,247.7-30.4,369.7c4,6.2,7.7,10.4,16.9,9.1c48.1-6.8,95.6-15.6,138.6-39.6c45.4-25.3,79.7-60.6,86.9-114.2
			c7.1-53.2,0.4-106.8,1.2-160.1c-8.4,40.5-15.9,81-23.5,121.5c-14,74.5-63.1,114.3-133,131.5c-64.9,15.9-108.6-17.1-115-83.5
			c-2.5-26,0.5-51.4,5.1-76.8c13.8-76,73.3-169.7,174-177.2C2830.6,1615.1,2862.8,1616.9,2881.3,1658z M1913.7,1693.2
			c2.8,41.3,2.7,78.8,7.9,115.9c0.8,5.7,1.7,11.5,2.6,17.2c9.3,63.1,56.7,74.7,103.1,69.6c7.8-0.8,9.7-3,7.3-10.7
			c-16.4-53.1-15.4-106.7-4.6-160.6c2.6-12.7-0.9-21.9-13.3-26.1c-42-14.1-51-46.9-49.6-86c1-29.3,0.9-28.5-27.9-27.1
			c-14.8,0.7-20.1,6.9-20.7,21C1917.3,1636.7,1915.2,1666.9,1913.7,1693.2z M2085.9,1663.8c6.9-7.3,12.5-13.6,18.6-19.3
			c4.8-4.5,7.5-8,2-14.1c-14.2-15.9-16-36.2-17.8-56.1c-4.1-46.4,21.3-80.5,66.8-89.4c12.2-2.4,23.3,0,29.7,12.4
			c6,11.7,1.4,21.4-6.8,29.7c-4,4-9.1,7.1-14.2,9.8c-23.7,12.6-27.3,28.6-11.5,51c6.7,9.5,13.1,13.9,25.3,6.8
			c16.7-9.7,35-19.6,53.9-20.4c42.5-1.9,51.2-30.8,57.1-63.7c0.8-4.4,0.9-9,1.3-13.5c4.8-48.9-18.9-72.1-67.5-64.7
			c-59.7,9.1-111.4,35.6-156.5,75.1c-20.4,17.8-28.4,41-25.6,67.8C2044.2,1609.5,2062.7,1636.3,2085.9,1663.8z M2053.1,1707.2
			c20.4-17.9,18-33,1.2-49.5c-8.5-8.3-13.9-20.1-19.7-30.8c-24.2-45.2-23-93.7,9.4-126.2c53-53,117.1-86.6,193.6-89.4
			c51.4-1.8,80.2,31.9,74.6,82.9c-2.4,22.4-8.4,44.1-15.7,65.6c31.9,4,32.5,3.7,43.1-22.9c7.3-18.1,11.2-37,11.8-56.5
			c1.1-32.5-9.2-48.9-39.4-61.3c-46.2-19.1-94-20.2-142.5-11.5c-106.1,19-181.8,107.2-182.1,211.9c-0.1,27.2,7.5,49.4,36.3,59.1
			C2037.6,1683.4,2047.8,1693.1,2053.1,1707.2z M2477.1,1814c-11.6,30.5-24.3,60-40.4,87.9c-2.7,4.7-3.1,9.7-3,14.9
			c0.6,33.5,2.5,66.9-4.3,100.1c-1.3,6.2-2.3,13.3,7.6,14.3c9.4,1,16.1-2.5,15.1-12.3c-1.1-11.3,6.3-17.4,13.7-17.2
			c9.8,0.3,8.9,12.1,7.9,18.6c-1.9,12,3.3,12.8,12.5,12.1c35.3-2.7,70.7-4.4,105.9-7.9c34.4-3.4,34.3-4.1,13.9-34.3
			c-7.1,5.4-13.8,11.5-21.4,15.9c-23.6,13.6-52.4,8.4-65.4-11.9c-16.9-26.4-21.1-54.6-9.4-84.4c4.1-10.5,8.3-21,12.6-31.9
			C2486.7,1874.5,2479.7,1863.9,2477.1,1814z M1920.5,1873.2c-17.7,0.6-31.9,4-46.8,1.8c-71.3-10.9-97.8-91.4-85.5-142.3
			c10.5-43.7,40.6-66.2,93.7-71.2c5.3-0.5,12.2,2,12.4-7.6c0.1-6.7-3.3-8.6-9.2-9.8c-35.4-7.6-77.2,12.4-91.8,46
			c-27.1,62.4-24.1,123,14.4,180.2C1834.7,1910.1,1885.8,1912.6,1920.5,1873.2z M2565,1848.1c-18.6,31.3-39.6,61.3-39.8,99.7
			c-0.1,13.3,4.2,25.5,12.5,35.8c11.5,14.1,25.6,10.3,38.3,2.9c11.9-7,22.4-16.3,15.2-32.8C2576.6,1920.2,2570.4,1885,2565,1848.1z
			 M1945.2,1437.8c42-20.2,71-48.6,93.9-90.1c-32.7,0-61.6,0.3-90.4-0.2c-9.7-0.2-12.3,3.5-11.3,12.6
			C1940.2,1385.1,1942.5,1410.1,1945.2,1437.8z M2290.8,2032.5c35.3,4.6,69.9,4.7,104.6,3.1c4.4-0.2,11.5,2.4,11.9-5.8
			c1.4-29.7,10.8-59,4.3-91.9C2377.4,1979.4,2336.9,2009.1,2290.8,2032.5z M1773.2,1201.8c26.4,0,48.8-0.2,71.1,0.1
			c7.2,0.1,10.4-2.8,10.9-10c2-26.2,4.3-52.4,6.8-82.1C1824,1133.2,1797.2,1162.8,1773.2,1201.8z M2564.5,1749.8
			c-4.7,26.1-21.6,32.3-39.8,38.6c-25,8.6-34.8,39.7-20.8,61.5c3.9,6,8.1,5.7,14.6,4.3c15.8-3.4,24.7-14.9,35.2-25.2
			C2573.1,1809.8,2578.8,1779.2,2564.5,1749.8z M2044.9,1199.9c-11.2-35.4-28.9-63.8-56.3-85.9c-7.6-6.1-12-6.6-12.8,5.3
			c-1.4,20.6-3.3,41.2-5.7,61.6c-1,8.4,1.8,11.9,10,12.7C2001.1,1195.5,2022.1,1197.7,2044.9,1199.9z M1819.9,1406.5
			c0-8.4-0.5-16.8,0.1-25.1c0.8-11.7-2.1-16.3-15.3-13.6c-15.1,3.1-30.7,3.7-46.1,4.8c-9.8,0.7-14.7,3.2-9.4,14.2
			c10.2,21,25.1,37.3,45.5,48.6c24.1,13.4,25.2,12.7,25.2-15.2C1819.9,1415.6,1819.9,1411,1819.9,1406.5z M1894.5,1740.9
			c-1-29.7-1-29.7-29-27.7c-2.6,0.2-5.2,0-7.7,0.3c-20.8,2.6-35.8,22.9-32.5,44.2c2.3,14.9,13.9,18.8,39.3,12.9
			c3.1-0.7,6-2.3,9.1-2.9C1889.3,1764.3,1900.7,1757.9,1894.5,1740.9z M2584.9,1739.2c2-28.6-10.9-50.8-33-60.9
			c-19.8-9-55.4-5.4-68.2,6.7c-9,8.5,0.7,16.7,0.2,25.2c-0.4,6.5,4.7,4.4,8,3C2528.2,1698.1,2558,1708.6,2584.9,1739.2z
			 M1879.8,1835c6.7-2,15,0.9,21.5-4.3c2.1-1.7-2-43.3-4.5-45.2c-1.7-1.3-4.8-2.3-6.7-1.8c-12.7,3.9-25.6,7.6-37.9,12.8
			c-8.2,3.5-11.9,11.5-11.3,20.6c0.6,9.3,7.8,12.8,15.5,14.6C1863.8,1833.4,1871.5,1833.9,1879.8,1835z M2481.1,1794.1
			c7.6-6.5,12.6-15.2,21.7-19.2c8.8-3.8,17.4-8.2,26.5-10.9c10.1-3,12.7-9.6,12.2-18.8c-0.3-6.1,1.5-12.7-6.7-16.1
			c-20.8-8.6-47.2,6.4-49.7,28.7C2483.9,1769.6,2482.5,1781.6,2481.1,1794.1z M2164.1,1503.7c-20.5,8.1-44.1,13.6-50.7,36.3
			c-7.5,25.8-7.3,53.4,9.7,77.5c3.8,5.4,7.4,5.2,12.7,1.7c7.5-4.8,8.3-8,2.6-16.2c-26.9-38.2-21.3-63.1,17.6-85.8
			C2160.2,1514.8,2166,1513.5,2164.1,1503.7z M2610.5,978.9c-10.4-3.9-12.5,2.7-15.4,7.4c-16.7,27.5-33.3,55.1-49.7,82.8
			c-2,3.4-7.3,8-2,11.4c5.3,3.5,9.2-1,12.1-5.9C2573.7,1042.8,2592,1011.1,2610.5,978.9z M2523.7,1061.8
			c13.8-14.1,10.2-24.5-4.6-32.9C2499.5,1042.4,2513.3,1051.4,2523.7,1061.8z M2696.7,1035.9c-6.2,3.4-12.2,8.1-13.4,14.8
			c-0.9,5.3,4.8,12.4,9.6,11.5c7.2-1.5,12.7-8.7,13.9-16C2707.4,1041.9,2701.9,1038,2696.7,1035.9z M2652,1050
			c-2.3-5.5-4.8-13.3-10.3-12.3c-7.2,1.3-13.2,8.5-14.3,16c-0.5,3.5,5.8,11.5,8.5,11.2C2643.9,1064.1,2647.5,1056.1,2652,1050z
			 M2732.6,1072.5c-1.9-4.3-4.4-10.1-9.1-7.9c-7.5,3.5-13.4,10.5-15.3,18.6c-1.1,4.5,4.3,12.1,8.4,10
			C2724.3,1089.1,2729.2,1080.9,2732.6,1072.5z M2477.2,1042.5c-3.6-4-6.9-11.1-11.1-11.7c-6.6-0.9-11.5,6.5-12.7,12.1
			c-1.4,6.6,4.6,13.2,10.4,13.6C2470.1,1056.8,2473.3,1049.3,2477.2,1042.5z M2504.5,1010.8c-1.7-5.7-4.7-12.6-9.8-12.6
			c-6.9,0-12.1,7.3-13.1,13.6c-0.9,5.5,5,11.4,10.3,11.6C2498.8,1023.6,2500.8,1015.6,2504.5,1010.8z M2664.1,1093.4
			c6.2-0.4,11-5.5,11.7-11.4c0.6-5.1-4-12.7-9.1-12.3c-6.7,0.5-12.1,7.5-13.4,14.1C2652.3,1088.5,2656.8,1092.9,2664.1,1093.4z
			 M2555.9,1010c-0.2-5.9-4.3-10.5-8.6-11.4c-6.4-1.3-10.6,5.5-11.5,10.3c-1.3,6.6,4.6,12.8,10.3,13.4
			C2552.2,1022.8,2552.1,1013.8,2555.9,1010z M2748.5,1052.9c4.9-7,10.7-14.4,15.5-22.3c2.3-3.9-2.4-6.6-4.7-5.5
			c-8.8,4.2-14.8,11.8-18.8,20.4C2739.2,1048.2,2743,1050.9,2748.5,1052.9z M2668.1,1006.8c-3.5,3.5-9.9,6-9.5,12
			c0.3,5.2,3.8,12,9.7,11.9c5.5-0.1,10.6-6,11.1-11.4C2680,1013.8,2674.7,1009.9,2668.1,1006.8z M1893.1,1686.2
			c-16.4-5.6-31.8-3.6-45.9,6.6C1862.2,1688.7,1878.3,1693.4,1893.1,1686.2z M2607.3,1027.5c-0.2,3.2,0.4,7.2,2.7,6.6
			c8.5-2.2,13.5-9.1,16.6-16.7c0.8-1.9-5-8.9-5.5-8.7C2613,1012.6,2611.3,1021.3,2607.3,1027.5z M2736.2,1014.7
			c-3-4.9-7.6-7.3-12.8-6.9c-5.6,0.5-10.2,5.5-10.3,10c-0.1,4.6,4.8,10.4,10,9.8C2729.7,1026.9,2732.7,1020,2736.2,1014.7z
			 M2480.2,1076.4c9.6,0,17.1,0,25.7,0C2498,1063.2,2490.9,1054.5,2480.2,1076.4z"/>
		<path d="M1516.2,1356.2c-1.6,47.7-4,95.4-7.8,143c-4.1,52-25.7,95.4-61.2,132.3c-7.9,8.3-9,13.6-2.9,24.2
			c30.2,52.2,39.4,105.1-1.2,156.9c-6.1,7.7-1.5,13.2,1.3,19.3c21.1,46.9,33.6,95.8,37,147.3c3.7,55.3-29.4,83.2-82.1,67.1
			c-9.1-2.8-14.6,0.9-21.3,4.4c-50.9,26.9-98.2,21-140.8-17.4c-3.6-3.3-6.2-9-12.4-3.6c-44.2,37.7-96.4,29.6-147.8,25.9
			c-21.3-1.6-42-6.7-62.5-12.4c-6.1-1.7-11.6-4.2-18.2,0.4c-36.4,25.5-78.7,31.8-121.4,33.8c-105.9,4.9-206.8-14.8-300.2-66.6
			c-9.9-5.5-15.3-3.4-23.6,2.3c-95,65.7-199.8,95.3-314.9,79.7c-61.1-8.3-117.2-34.1-133.5-98.6c-23.6-93.7-29.6-189.9-5.5-285.3
			c6.8-27,19.1-52.1,35.5-74.8c4.8-6.7,8.2-11.9,1.2-20c-47.9-55.8-64.4-122-63.9-193.9c0.6-91.3,10.4-181.3,36.4-269.2
			c37.2-125.7,119.9-199.1,249.8-220.5c115.3-18.9,220.1,8.1,317.5,69c11,6.9,18.4,7.5,28.9,0.1c45.5-32,98.2-40.5,151.9-45.6
			c98.3-9.3,196.8-16.2,295.5-18.9c46.5-1.2,92.9,1.7,139,8.5c86.4,12.8,142.6,66.2,185.6,137.8c43.3,72.2,45.3,151.9,43.5,232.4
			C1517.8,1327.8,1516.9,1342,1516.2,1356.2z M949.9,966.8c-30.2,2.5-55.9,5.7-81.6,6.5c-99,2.9-178.4,45.3-243.3,118
			c-62.8,70.4-99.6,154.1-126.2,243.4c-6.1,20.3-1.7,30.4,15,42.4c130.8,93.6,274.9,151.1,435.5,166.4
			c188.4,18,363.8-22.6,528-115.3c11.7-6.6,16.3-14.4,16.6-27.4c0.7-41.9,3.2-83.9,3.3-125.8c0.1-64.4-6.3-127.5-41.5-184.3
			c-32.3-52.2-71.1-96.4-131.3-117.4c-11.9-4.1-15.8-2.4-19.3,10.7c-25.5,96.9-79.7,172.3-173.5,212.2
			c-83.5,35.6-171.8,36.1-258.3,13.6c-82.4-21.4-77.2-113.2-37.5-151.3c24.3-23.3,51.5-42.9,79.4-61.6
			C926.7,989.2,938.6,981.6,949.9,966.8z M841.4,2057.8c34.6-2,58.8-2.5,82.7-7.2c66.5-13,107.1-54.3,118.4-121
			c10.4-62-6.9-118.6-32.4-173.9c-6.1-13.3-14-18.6-29.3-18.7c-119.9-0.8-237.6-16.5-351.3-56.4c-7.5-2.6-13.2-1.9-19.7,2.7
			c-26,18.3-50.3,38.4-71.5,61.9c-24,26.6-44.3,55.9-50.2,92.1c-9.7,59.1,19.7,101.1,64.3,133.5
			C641.4,2035.4,744.1,2055.5,841.4,2057.8z M461.8,1397.5c-27.3,12-51.2,19.3-76.1,23.6c-98.8,17-199-37.4-226.4-127.1
			c-31.4-103-11.8-196.2,63-275.9c7.7-8.2,14.8-16.7,21.8-24.7c-6-0.4-10.2,5.1-15.1,8.7c-52.2,38.2-83.5,90.6-101.6,151.4
			c-28.7,96.7-38.8,195.6-35.2,296.3c1.9,54.1,20.4,101.7,52.5,144.8c7.1,9.5,11.3,10.5,20.5,1.6c46.2-44.6,102.7-67.4,165.4-76.8
			c38-5.7,75.9-4.6,113.8,0.4c5.7,0.8,14.3,4.4,12.3-7.6C450.4,1475,453,1437.9,461.8,1397.5z M486.3,1383.7
			c-2.6,13.6-4.7,24.3-6.7,35c-19.8,105.2,16.9,178.3,113.1,224.2c50.9,24.2,105.1,38.2,159.8,50.5c10.7,2.4,14.6-2.3,18-11.5
			c15.1-40.4,30.2-80.8,46.7-120.5c6.4-15.4,1.3-19-12.7-22.7c-87.9-23-170.3-59-247.1-107.4C534,1416.6,511.5,1400.6,486.3,1383.7z
			 M454.4,2041.4c29.6-9.7,55.4-25.2,80.6-42c6.3-4.2,9.6-7.6,1.2-14.2c-45.1-35.4-74.5-79.4-71.9-141
			c-72,74.2-148.1,87.5-215.8,39.2c-66.2-47.3-78.6-123.3-32.7-215.4c-11.5,6.7-21.5,6.5-32.9,3.9c4.9,18.2,2.2,32.8-13.2,42.2
			c-18.7,11.4-33.8,1.5-48.4-11.6c-4.2,13.8-9.2,25.4-9.1,40.1c12.4-14.3,23.6-27,43.4-18.6c14.8,6.3,22.6,17.5,21,33.3
			c-1.6,15.7-11.2,26.1-27,28.7c-23.9,3.9-33-13.2-41.4-36.3c-0.2,19.2-4.5,33-2.2,47.4c26-10.7,41.1-9.4,51,5.5
			c11.5,17.3,6.1,33-7.5,46.9c25.6,12.8,34,31.9,22.5,50.4c-9.6,15.5-30.9,20-45.8,9.6c-18.2-12.6-18.2-32.3,0-54.9
			c-6.8-3.3-13.6-6.6-22.5-10.9c3.2,35.8,6.2,69.4,9.5,106.4c17-16.3,33.3-22.7,50.7-9.7c12.7,9.5,16.7,22.9,9.9,37.9
			c-10.2,22.3-29.3,20.2-50,15.6c17.3,39.6,48.1,60.3,86,71.7c53.3,16,107.2,13,160.8,2c24.9-5.1,50.1-9.9,77.6-24.4
			c-18.4,1.7-30.3-1.6-39.7-11.9c-12.1,26.1-29,35.3-48.2,24.2c-9.7-5.6-13.9-5.7-21.7,2.6c-9.6,10.4-23.1,10.9-35.7,4.1
			c-12.5-6.8-18.5-17.9-16.8-32.2c1.7-14.4,10.5-22.9,24.1-27c13.3-4.1,24.1,9,33.8,7.5c10-1.6,18.2-18.7,31.2-14.2
			c18.5,6.3,33.4,8.8,44.4-11.4c1.4-2.5,6.8-3.4,10.5-3.9c14.9-2.2,26.9,3,34,16.5C473.5,2014.8,466.3,2028.5,454.4,2041.4z
			 M1489.6,1447.2c-1.5,0.3-3.5,0.3-5,1.1c-97,54.7-200.2,91.7-310.2,109.4c-11.2,1.8-11.3,7.9-11.3,16c0.1,29-0.4,58.1,0.2,87.1
			c0.4,15.8-7.1,36.3,3.8,46.3c10.3,9.3,29.7,0,44.9-1.9c52.7-6.8,106.1-7.6,154.5-36.6C1451,1618.1,1496.3,1547.8,1489.6,1447.2z
			 M1022.6,2023.2c44.4,13.5,87.8,15.7,131.9,13.3c32.9-1.8,57.3-18,75.9-43.9c54-75.2,41.6-190.1-26.6-252.8
			c-8.8-8.1-17.4-11.2-29.4-10c-40.4,4.3-81,7.2-121.6,7.5c-27.7,0.2-27.6,0.4-16.1,26.6c3.1,7.1,7.2,14,8.7,21.5
			c2.7,13.5,9.4,16.3,23,15.5c40.3-2.2,72,20.7,77.7,55c3.3,19.7,5.2,39.7,4.3,59.8c-1.8,40.7-23.3,68.1-62.9,65.6
			c-32.1-2-47.9,10.5-60.6,35C1025.9,2017.8,1024.9,2019.4,1022.6,2023.2z M986.7,1715.4c32.9,0,65.8-0.4,98.7,0.2
			c14.7,0.3,18.3-5.7,17.9-19.7c-0.9-37.4-0.8-74.9-0.1-112.3c0.3-13.2-2.7-18.2-17.1-16.9c-59.4,5.6-118.6,1.5-177.5-7.1
			c-10.8-1.6-14.5,2-18,11.2c-15.4,40.3-31.2,80.4-47.7,120.2c-5.1,12.3-3.5,17,10.5,18.1C897.8,1712.7,942.2,1716.4,986.7,1715.4z
			 M1113.4,956.4c-29.6,1.9-53.5,4.1-77.3,4.8c-9.9,0.3-14.5,3.8-18.6,12.7c-15,32.7-36.5,60.8-64.4,83.7
			c-16.6,13.7-26.3,31.4-32.3,51.6c-10.4,35,3.2,53.9,39.8,53.9c123.3,0,197.7-89.5,224.8-195.9c2.5-9.6-2.2-10.9-10-10.9
			C1152.9,956.5,1130.3,956.4,1113.4,956.4z M997.8,965.8c-11.7-4-17.7,1.2-23.5,7.8c-18.8,21.6-42,37.9-65.7,53.6
			c-20,13.2-38.8,27.8-55.9,44.6c-21.6,21.3-29.3,47.2-19.9,76.1c9.1,28,31.7,41.4,59.5,46c58.9,9.8,117.8,11.5,177,0.1
			c113.4-21.7,191-114.1,216.3-216.1c2.4-9.5-0.3-14.7-10.7-15.5c-16.7-1.3-33.5-2.6-50.1-4.8c-12.1-1.6-16.9,3.8-19.4,14.9
			c-8.3,37.6-24.2,72.1-45.6,103.9c-50.7,75-121.1,111.8-212,106.3c-35.3-2.2-53.3-24.2-50.4-59.5c2.6-32.3,16.2-59.4,41-80.5
			C963.2,1021.5,983.7,997.1,997.8,965.8z M465.1,1761.4c0-71.8-57.8-129.4-129.3-129.2c-70.7,0.3-127.8,57.4-128.2,128.3
			c-0.4,71.4,57.3,130,128.3,130.3C406.8,1891.2,465.1,1832.7,465.1,1761.4z M486.6,1300.6c-35.7,26.2-71.3,41.4-110.9,47.2
			c-84.8,12.3-155.4-34.7-175.5-118c-9.9-41.1-5.7-81.9,5.7-122.2c12.1-42.6,37.8-76.3,71.7-104.9c-2-0.9-2.7-1.4-3.1-1.3
			c-1.7,0.9-3.4,1.7-4.9,2.9c-60.2,46.4-97.4,106.4-102.4,183.1c-4.4,67.6,9.2,129.9,65.4,175.6c62.6,50.9,155.4,51,227.8,11.1
			c5-2.7,8-6.4,9.4-11.5C475.1,1343.5,480.2,1324.4,486.6,1300.6z M314.5,1611.8c-19.5-19.1-23.1-35.7-11.4-50.9
			c10.3-13.4,29.3-16.6,43.2-7.1c9.7,6.7,13.9,16,14.1,28.1c0.2,12.5-10,19.4-14.8,28.4c92.2,16.1,138.8,70.5,142.5,167
			c28.8-46.4,65.3-78.7,106.4-109.7c-21-10.7-40.4-20.6-58.2-33.3c-17.9-12.8-33-28.5-48.5-47.3c-4.7,14.9-10.6,26.9-25.1,31.2
			c-15.9,4.7-27.4-1.7-37.1-13.8c-3.8-4.8-6.6,0.2-9.6,1.8c-19.7,10-35.8,7.4-45.9-7.7c-9.1-13.6-7-31.1,5.2-42
			c12.7-11.4,31-10,46.3,3.8c3.1,2.8,4.8,8.2,10.4,3.2c11-10,24.2-9.8,38.8-5.3c-18.3-34.5-175.1-25.5-227.6,11.8
			c14.4-0.4,24.7,5,31.8,16.4c7.6,12.2,2.7,24.5-1,37.7C288.6,1619.6,301.4,1615.7,314.5,1611.8z M1327.9,1894.9
			c8.4,0.4,16.9,0.1,25.1,1.3c37.6,5.6,52.8,24.6,49.3,62.4c-1.2,13.4-5,26.5-7.1,39.9c-3.3,21.6,7.5,33.2,29.4,32
			c23.4-1.2,35.2-13.3,35.6-36.9c1-52.6-14-101.7-33.4-149.8c-4.3-10.7-8.6-9.2-17-4.5c-32.2,17.8-66.9,28.1-103.8,23.2
			c-17.1-2.3-22.2-0.2-21,18.3c0.9,14,1.7,20.5,17.7,15.9C1310.7,1894.4,1319.5,1895.4,1327.9,1894.9z M1330.4,1914.9
			c-9.2,1-17.5,2.9-25.8,2.8c-16.6-0.2-25.1,5.8-28,23.6c-3.3,20.3-12.6,39.1-24.4,56.2c-5.5,8-6.4,14,0.8,21.9
			c27,29.5,83.2,35.8,115.8,12.6c4-2.8,7.1-5.4,6.2-10.7c-3.4-21.6,3.4-42,6.9-62.9c4-23.9-4-35.1-27.5-40.1
			C1346.3,1916.6,1337.9,1915.9,1330.4,1914.9z M1279.8,1823.1c-1.8,11.9,5.2,16.1,15.3,17.4c15.4,2,31,3,46.2,0.5
			c97.3-16.3,128.1-81.4,94.8-157.3c-12.2-27.8-12.6-27.7-37.9-10.6c-2.1,1.4-4.1,3.3-6.5,4.2c-13.5,5.5-16.1,12.3-10.1,27.4
			c19.5,49.2-10.3,104.1-61.6,115.7C1307.1,1823.3,1293.3,1822.3,1279.8,1823.1z M1221.3,1726.5c16.4,18.6,31.6,34.8,40.3,54.9
			c5.8,13.3,15.8,17.9,28.2,20c45.1,7.7,85.8-35.9,75.3-80.4c-5.5-23.2-6.7-23.8-28.6-14.8c-3.5,1.5-7.1,2.7-10.8,3.7
			C1292.3,1719.4,1257.5,1719.8,1221.3,1726.5z M1128.5,1897.3c-0.6-10-1-17.1-1.5-24.2c-2.5-35.6-23.3-53.4-58.9-51.4
			c-8.2,0.5-11,1.6-8.9,11c8.8,38.9,9.8,78,0.7,117.1c-1.4,6-1.4,9.3,5.6,11.3c32.8,9.3,60.5-9.6,62.9-43.5
			C1129,1909.9,1128.5,1902.1,1128.5,1897.3z M873.8,1556.7c-28.7-10.7-28.7-10.7-39.1,16.4c-14.3,37.1-28.8,74.2-42.7,111.5
			c-1.8,4.9-9.6,13,1,15.5c8.5,1.9,20.4,9.5,26.3-5.5C837.4,1648.6,855.6,1602.6,873.8,1556.7z M252,1065.2c-5-0.1-6.1,3.6-7.4,6.1
			c-5.6,11.5-11.4,23-15.9,35c-2.6,6.8-8.7,14.8-2.7,21.8c10.4,12.1,21.8,23.5,33.7,34.3c3.4,3.1,6.3-2.6,8.9-5
			c38.8-37.9,38.7-37.9,1.1-75.6c-4.1-4.1-8.1-8.2-12.3-12.2C255.5,1067.8,253.4,1066.4,252,1065.2z M471.4,1285.1
			c-8.9-9.3-17.1-18.3-25.7-27c-23.6-23.8-23.7-23.7-46,1.5c-23.1,26.1-22.7,25.7-0.6,50.1c6.9,7.6,12.5,8.9,21.6,4.9
			C437.8,1307,454.3,1298.5,471.4,1285.1z M365.9,1178.7c-2,1.1-4,1.6-5.1,3c-13,15.1-30.3,28.6-36.7,46.1c-3.2,8.8,18,20.9,27.5,32
			c0.8,1,1.9,1.8,2.7,2.8c5.2,7,9.8,6,15.2-0.3c9.1-10.8,18.3-21.6,28.4-31.3c8.2-7.9,9.5-13.5-0.1-21.4
			c-8.9-7.3-16.5-16.2-24.7-24.3C370.8,1183.1,368.3,1181,365.9,1178.7z M304.8,1243.4c-2,3.1-3.4,6-5.5,8.5
			c-7.5,8.8-15.2,17.4-22.8,26.1c-17.6,20.4-17.6,20.5,5.9,33.4c4.5,2.5,9.4,4.2,13.9,6.6c11.3,6.1,19.4,3.9,28.3-6.1
			c22.9-25.9,23.5-25.5-1.3-51c-3.6-3.7-7.1-7.4-10.8-11C310.8,1248.3,308.8,1246.8,304.8,1243.4z M494.8,1123.9
			c-1.7-2.4-2.5-4.1-3.8-5.4c-10.9-11.8-21.9-23.5-32.9-35.2c-3.4-3.7-6-4.9-11.1-1c-33.5,25.3-34,38-5.7,68.4
			c12.4,13.4,20,12.9,30.3-1C478.5,1140.3,487.1,1132.3,494.8,1123.9z M352.9,1055.4c3.4-2.6,5.6-3.7,7.2-5.5
			c8.9-10.2,17.7-20.4,26.4-30.7c2-2.4,3.9-4.6,2.7-8.5c-5.4-17.5-31.9-30.2-48-22.3c-44,21.7-34.7,17.2-8.3,45.2
			C339.6,1040.7,346,1047.9,352.9,1055.4z M544.2,1168.2c-9.6-8.2-19.7-23.6-31.3-24.9c-16-1.8-22.2,19.4-33.9,29.3
			c-3.4,2.8-8.7,6-2.8,12.2c10.6,11,20.3,22.8,30.6,34.1c2.3,2.5,6.3,8.1,8.8,3.8C525.1,1206.7,533.1,1189.8,544.2,1168.2z
			 M542.4,1067.9c-7.6-6.1-16.5-11.6-23.4-19.1c-22.4-23.9-21.5-23.6-43.4,0.5c-8.9,9.8-7.4,15.5,1.3,23.2
			c7.1,6.4,12.7,14.5,19.8,20.8c4.6,4.1,7.9,15.5,15.7,9.7C523.4,1094.7,532.6,1083.8,542.4,1067.9z M1142.5,1636.3
			c0-19.9,0.2-39.9-0.2-59.8c-0.1-5.4,3.7-14-7.6-13.9c-9.3,0.1-11.6,5.4-11.5,13.8c0.3,41.2,0.1,82.4,0.2,123.5
			c0,6.1-1.7,13.4,9,12.8c8.9-0.5,10.2-5.3,10.2-12.7C1142.4,1678.8,1142.5,1657.5,1142.5,1636.3z M347.3,1164.4
			c0.4-4.2-25-31.6-28.1-31.6c-0.6,0-1.3,0.2-1.7,0.7c-13.2,15.7-26.3,31.3-39.3,47.1c-0.4,0.5,0.5,2.6,1.4,3.4
			c8.6,8.5,16.1,19.6,26.4,24.5c6,2.8,11.4-10,16.9-15.8C331.8,1183.4,339.7,1173.3,347.3,1164.4z M340.8,1072.6
			c-2.4-3-4.2-5.6-6.4-7.9c-12-12.7-24.4-25-36-38c-12-13.4-16.4,1.5-22.3,6.3c-5.7,4.7-17.6,9.7-5.7,20.7
			c11.8,10.9,22.6,23,34.5,34c4.1,3.8,7.3,13.8,14.8,8.1C327.8,1089.7,333.7,1080.7,340.8,1072.6z M246.7,1279.8
			c12-13.5,23.4-27.2,35.7-39.9c8.6-8.9,8.4-15.7-1.1-23.4c-5-4-9-9.1-13.5-13.7c-2.9-2.9-5.1-4.1-9.7-1.1
			C224.2,1224.4,220.3,1247.8,246.7,1279.8z M397.5,1107.2c5.5-6.3,7.7-8.7,9.8-11.1c7.2-8.3,13.9-17.1,21.7-24.6
			c8.1-7.8,6.2-12.8-1-20.2c-22.1-22.8-21.8-23.2-42.1,0.7c-2.5,2.9-5.3,5.8-7.2,9.1c-2.7,4.9-12.6,7.5-6.5,15.5
			C380,1086.8,388.5,1096.4,397.5,1107.2z M489.2,1270.5c5-5.9,9.6-11,13.9-16.4c4.2-5.2,1.5-9.1-2.5-13.2
			c-11.6-12-23.2-24.1-34.2-36.7c-6.3-7.2-11.7-7.7-16.4,0.4c-3.9,6.7-19.6,10.1-6.4,22.3c12.8,11.8,24.6,24.5,37,36.7
			C482.8,1265.9,485.5,1267.6,489.2,1270.5z M479.9,1010c-0.2-3.5-27.5-31.1-30.3-30.7c-3.7,0.5-27.6,30.3-27.2,33.8
			c0.5,3.7,26,29.9,29,29.8C454.8,1042.7,480.1,1013.5,479.9,1010z M400.7,1136c-6.8,7.7-13.5,14.5-19.2,22c-5,6.5,2.8,8.7,5.7,12
			c6.8,7.7,15.2,14,21.4,22.1c9.2,11.9,15.8,10.6,25.2-0.4c7.4-8.6,9-13.9-0.1-21.9c-8.6-7.6-15.8-16.8-23.8-25.2
			C407.3,1141.8,404.4,1139.4,400.7,1136z M558.1,1085.8c-10.3,11.2-17.3,19.6-25.2,27.1c-7.1,6.7-7.1,11.5-0.2,19
			c19.8,21.5,19.4,21.9,35.9-2.7c1.8-2.7,3.3-5.5,5.3-8.1c3.2-4.2,6.7-7.9,1.8-13.4C569.8,1100.9,564.4,1093.7,558.1,1085.8z
			 M527.6,994.8c-7.7,1-9.9,7-13.7,11c-4,4.2-0.1,6.7,2.4,9.4c10.6,11.2,21.1,22.5,31.8,33.6c3.4,3.5,7.2,9.1,12.3,2.5
			c5.6-7.2,20.1-15.8,14.5-21.7C561.5,1015.4,543.3,1005.8,527.6,994.8z M614.6,989c-20-7.9-38.5-15.2-56.9-22.4
			c-6.6-2.6-11.2,0.4-14.7,5.7c-4.6,7,2.3,8.9,5.9,11.6c7.2,5.4,14.8,10.2,22.2,15.2C595.9,1016.1,595.9,1016.1,614.6,989z
			 M384.1,1122.1c0.5-4.8-24.3-32.8-27.5-31.5c-10.5,4.4-15.7,14.4-22.2,22.9c-1.6,2.1,24.5,31.1,27.5,30
			C372.8,1139.7,377.4,1129.2,384.1,1122.1z M600.2,1044.4c-4.6-0.5-28.1,22.2-27,26.3c2.6,10.4,15.5,23,18.7,21.1
			c11.5-6.8,24-17.1,28.4-29C623.6,1053.9,606,1051.3,600.2,1044.4z M668.3,1022c-7.5-8.5-17.3-12.3-26.2-17.3
			c-13.4-7.6-15.2,7.3-21.6,12.7c-2.9,2.4-10.1,4.7-5.1,11.9c9.1,13.1,25.8,15.7,38.3,5.3C658.6,1030.5,663.4,1026.3,668.3,1022z
			 M218,1211.7c33.1-23.8,32.6-39.6,0-55.1C218,1174.5,218,1192.5,218,1211.7z M432,961.5c-12.8,2.7-24.7,5.3-36.7,7.6
			c-8.6,1.7-11.4,4.3-4.7,12.4c8.8,10.7,16.5,18.1,26.5,1.4C421.4,975.9,429.6,971.7,432,961.5z M467.6,958.7
			c-2.2,2.6-4.4,5.2-6.6,7.8c9.7,7.2,19.7,14.2,29.1,21.8c4.4,3.6,7.3,4.3,11.1-0.3c2.9-3.6,6.6-7.1,0.5-10.7
			C490.4,970.9,481.6,959.7,467.6,958.7z M340.5,1327.2c15.9,2.4,28.3-0.2,42.3-2.1C358.2,1295.3,365,1298.3,340.5,1327.2z
			 M182.2,1609.1c13.7-0.6,23,0.4,34,4.8c-1.7-11.6-0.1-21.5,4.3-32.9C205.7,1588,195.3,1596.8,182.2,1609.1z M163.6,1631.2
			c-7,6.6-14.6,12.4-16.7,22.3C174.6,1661.9,162.4,1641.3,163.6,1631.2z M228.7,1655.9c8.5-7,15-12.5,22.9-19.1
			c-9.1-2.9-15.7-4.9-22.9-7.2C228.7,1637.4,228.7,1644.9,228.7,1655.9z"/>
		<path d="M2428.3,1457.6c-32.9,0.1-54.7-16.5-61.3-43.1c-6.2-25.1,4.7-43.3,30.2-41.3c32.7,2.5,53.6-11.4,71.3-36.1
			c12.2-17,28.5-29.6,47.4-38.8c9.8-4.8,19.7-6.7,29.2-0.1c9.7,6.8,11.3,17.3,8.4,27.8c-13.5,48.4-37.2,90.4-79.8,119.2
			C2458.8,1455.3,2441,1456.7,2428.3,1457.6z M2532.5,1314.8c-26.7,9.1-42.6,28.4-58.4,47.9c-16.3,20.1-35.6,32.9-63,30.4
			c-8.2-0.7-20.1-3.7-23.6,6.9c-3.5,10.4,3.8,19.5,10.9,27.3c8.3,9,18.8,10,30.1,9C2475.4,1431.9,2530,1368.8,2532.5,1314.8z"/>
		<path d="M1650.9,1868.1c-23.3-17-30.2-33.2-23.2-51.9c5.8-15.6,24.1-27.6,39.9-24.5c16.8,3.3,29.8,12.4,33.2,30.6
			c4.2,22-5.5,35.3-34.2,48c31.5,20.2,34.6,38.8,10.9,71c18.6,0.2,32.8,7.2,40.4,24.3c2.1,4.9,5,7.3,10.4,4.8
			c1.1-0.5,2.5-0.5,3.8-0.7c15.3-1.8,24,12.2,35.3,15.4c9,2.5,21-14.5,35.7-10.9c14.4,3.5,24.1,12.2,27.5,26.8
			c3.2,14-1.6,25.8-12.9,34c-11.7,8.5-24.4,12.2-37,1c-10.8-9.6-19.6-10.5-32.9-1.2c-15,10.5-29.1,0.3-40.2-11.9
			c-3.1-3.4-3.6-9.9-11.2-7.2c-19.7,6.9-36,1.2-46.7-16.5c-11.4-18.9-4.9-35.8,10.6-52.1c-11.7-1.2-21.6-2.5-29.7-9.3
			c-8.3-7-13.9-16-14.4-26.5C1614.9,1888.6,1627.8,1875.6,1650.9,1868.1z"/>
		<path d="M1690.7,1570c21.7-0.3,38.3,15.1,39.1,36.4c0.8,21.4-17.2,39.9-38.5,39.8c-20.8-0.1-37.6-17.2-37.8-38.2
			C1653.4,1586.3,1669,1570.3,1690.7,1570z"/>
		<path d="M1664.4,1697.4c22.5,0.3,37.3,15.1,37.1,37.1c-0.2,21.7-15.9,37.1-38,37.1c-22.6,0-38.9-16.6-38.1-39
			C1626.2,1711.1,1641.7,1697.1,1664.4,1697.4z"/>
		<path d="M2041.7,2031c-18.4,0.5-34.5-15.2-34.9-33.8c-0.4-18.7,14.9-34.7,33.6-35.2c18.2-0.4,34.7,15.5,35.1,33.8
			C2075.9,2014,2060.1,2030.5,2041.7,2031z"/>
		<path d="M1886.1,2050.8c-19.1-0.3-34.1-15.8-33.6-34.6c0.5-18.6,16.6-33.8,35.4-33.3c18.7,0.5,34.2,16.7,33.6,35.1
			C1920.8,2036.8,1905.5,2051.1,1886.1,2050.8z"/>
		<path d="M1999.8,2008.6c-0.3,19-15.9,34.4-34.4,34c-18.5-0.4-33.6-16.4-33.3-35.3c0.3-18.9,16.1-34.5,34.5-34.1
			C1985.2,1973.7,2000.1,1989.6,1999.8,2008.6z"/>
		<path d="M2754.3,1719.2c42.6,0.3,77.5,35,77.8,77.4c0.3,42.8-35.9,79.1-78.6,78.8c-43.2-0.3-77.8-36-77.2-79.6
			C2676.9,1752.8,2711.4,1718.9,2754.3,1719.2z M2754.6,1740.5c-31.4-0.3-57.2,24.4-57.9,55.4c-0.7,32.2,24.8,58,57.3,57.9
			c31.5,0,56.7-25,56.8-56.4C2811,1766,2786.1,1740.8,2754.6,1740.5z"/>
		<path d="M708.2,1737.1c52.8,5.8,122.1,14.1,188.3,36.8c98.5,33.7,106.8,119.6,69.5,198.7c-3.4,7.3-7.1,7.7-13.4,4.2
			c-5.5-3-10-5.4-5.9-13.1c7.3-13.7,11.5-28.6,15.2-43.7c13.2-55-8.1-98.8-59.9-121.5c-39.4-17.3-81.8-22.6-123.6-30.2
			c-22.2-4.1-44.6-7-67-9.6c-77.7-9-136.2,30.2-157.8,105.7c-4.2,14.8-7.3,30.1-9.8,45.3c-1.4,8.2-4.7,10.5-12.8,10.1
			c-10.5-0.6-9.1-7.7-8.2-13.7c5.8-39.3,16.5-77,41.3-109C596.2,1755.3,638.7,1734.7,708.2,1737.1z"/>
		<path d="M695.8,1859.3c0-30.7,24.1-55.5,54.6-56.1c31-0.6,56.7,24.8,56.7,56.2c0,31.5-25.1,56.2-56.7,55.8
			C719.7,1914.6,695.8,1890.2,695.8,1859.3z M786,1858.8c-0.3-19.2-15-33.9-34.3-34c-19.8-0.2-35.8,15.6-35.4,35.1
			c0.3,18.1,16.6,34.4,34.5,34.6C770.1,1894.8,786.3,1878.3,786,1858.8z"/>
		<path d="M660.5,1861.4c-0.1,24.7-21.2,45.5-45.7,45.2c-24.7-0.3-45.3-21.7-44.7-46.2c0.6-24,20.8-43.8,44.9-43.9
			C639.8,1816.3,660.6,1836.8,660.5,1861.4z M639,1859.9c-1.3-13.3-8.7-21.6-23.1-22.3c-13.9-0.7-24.4,10.1-24.2,24.1
			c0.2,13.9,11.1,24.3,25.1,23.1C631.2,1883.6,638.5,1875.3,639,1859.9z"/>
		<path d="M882.1,1821.8c25.7,0.1,44.8,19.6,44.4,45.4c-0.4,24.7-19.4,43.7-44.1,43.9c-25.1,0.2-45.7-19.8-45.8-44.6
			C836.3,1841.9,856.8,1821.7,882.1,1821.8z M881.9,1890.1c12.9,0,23.5-10.1,24-22.9c0.5-13.2-10.8-25.3-24.2-24.7
			c-14.4,0.6-22.6,8.8-23.8,23C856.8,1878.9,868.2,1890.1,881.9,1890.1z"/>
		<path d="M279.1,2033.6c0.2,18-13.5,32.2-31.3,32.4c-17.9,0.2-32-13.5-32.2-31.5c-0.2-17.7,13.8-32.4,31.3-32.7
			C264.2,2001.6,278.9,2016,279.1,2033.6z"/>
		<path d="M336.7,1676.6c43,0.2,77.5,35,77.3,77.9c-0.2,42.8-35.3,77.7-78,77.4c-43-0.3-77.2-34.9-77-78.1
			C259.1,1710.7,293.6,1676.4,336.7,1676.6z M337.1,1697.9c-32-0.3-56.7,23.7-57.1,55.5c-0.4,32,23.7,56.6,55.5,56.9
			c31.8,0.2,57.1-24,57.7-55.3C393.8,1724,368.4,1698.2,337.1,1697.9z"/>
	</g>
</g>
</svg>
