<?xml version="1.0" encoding="utf-8"?>
<!-- Generator: Adobe Illustrator 23.0.0, SVG Export Plug-In . SVG Version: 6.00 Build 0)  -->
<svg version="1.0" xmlns="http://www.w3.org/2000/svg" xmlns:xlink="http://www.w3.org/1999/xlink" x="0px" y="0px"
	 viewBox="0 0 3000 3000" style="enable-background:new 0 0 3000 3000;" xml:space="preserve">
<style type="text/css">
	.st0{stroke:#000000;stroke-width:10;stroke-miterlimit:10;}
</style>
<g id="Layer_1">
</g>
<g id="Layer_2">
	<g>
		<path class="st0" d="M867.2,1021c-4.8-19.4-16.1-28-29-36.1c-29-18.2-34.3-44.9-15.6-73.6c36.2-55.6,108.9-57.9,156.9-4.1
			c9.5,10.6,12.6,14.5,23.1,0.4c79.5-107.2,211.4-124.3,321.8-42.8c39.7,29.3,71,65.5,90.3,111c6.9,16.2,17.4,19.9,33.2,23.6
			c43.2,10.1,78.4,7.5,108.2-32.5c18.4-24.8,48.9-39.3,77.4-53.3c41.1-20.2,79.9-44,111.6-77.2c19-19.9,23.9,2.4,34.2,9
			c14.6,9.4,7.2,16.8-1.9,25.4c-33.4,31.4-70.3,57.7-111.2,78.3c-35.8,18-69.2,39.4-97.6,68.4c-12.4,12.6-11.3,22.6,3.1,31.3
			c69.9,42.2,137.6,87.8,203.6,135.8c12.9,9.4,22.1,3.9,31.9-4.7c27.2-23.9,57-45.3,81.3-71.9c45.8-50,104.3-72.6,167.9-85.9
			c15.9-3.3,29.6-9,42.8-18.4c51.3-36.8,107.6-41.1,166.8-23.7c62.1,18.2,76,67.2,79.3,123.3c2.5,43.3,2.7,43.2,45.6,39.3
			c126.7-11.4,253.9-15.9,380.6-25.9c137-10.8,173.7,66.3,180.5,168.5c6.7,100.6-19.1,197.1-45.8,293
			c-36.6,131.4-86.6,258.2-132.7,386.4c-19.7,54.7-58.4,85.7-118.3,90.3c-172.4,13.4-344.6,26.5-516.3-7.5
			c-62.2-12.3-122-32.5-179.7-58.2c-144.4-64.6-293.7-89.4-452.8-78c-166.5,11.9-334,16.1-501.1,2c-32.3-2.7-64.8-6.6-96.4-13.3
			c-74.6-15.7-136.4-53-179.7-116.9c-10.8-16-18.3-15.2-32.3-4.9c-83.6,61.6-167.8,122.3-249.3,186.8
			c-113.6,89.8-245.7,122.3-389.3,109.9c-5.3-0.5-13.1,1.1-13.6-5.8c-0.4-4.3,4.7-9.5,8.2-13.5c92.2-105.2,193.6-199.8,308.8-279.9
			c92.9-64.6,180.3-136.8,277.1-195.9c8.7-5.3,12.6-11.8,12.2-22.6c-4.7-115.4,39.9-213.4,108.3-302.7c3.8-4.9,11.5-8.9,8.9-16
			c-2.8-7.4-11.2-4.7-17.3-5.5c-53.4-6.6-98.9,8.7-136,48.3c-17.1,18.3-34.2,36.7-52.4,54c-28.7,27.2-57,31.8-85.9,15.6
			c-30.4-17-44.2-49-34.3-86c22.7-84.9,76.1-146.6,148.5-194.3c72-47.4,152.8-52.4,235-51.7C839,1018.6,851.9,1020,867.2,1021z
			 M2392.2,2022.8c89.4-3,173.7-8.3,258-14.6c39.2-2.9,65.4-20.8,78.1-56.3c59-163.9,124.4-325.9,160.7-497
			c15.2-71.7,29.7-144.8,8.6-217.7c-18.3-63.2-39.7-74.6-94.4-73.5c-158.8,3.2-317,17.2-475.2,30.4c-20.1,1.7-34.9,10.5-45.8,29.9
			c-25,44.6-49.2,89.4-68.8,136.6c-83.9,201.9-98.9,409.3-50.3,622c3.6,15.9,9.8,24.4,28.4,26.9
			C2259.9,2018.7,2328.4,2021.8,2392.2,2022.8z M893.9,1636.8c8.8,2,10.6,2.7,12.3,2.7c119.8-1.1,239.1-13.8,359-11.7
			c17.5,0.3,31.9-8.9,41.2-24.5c13.1-22,31.9-38.1,52.8-52.6c86.1-60,182.2-84.9,286.2-84.1c33.5,0.2,66.6-0.7,92.1,32.5
			c22.7-89.3,44.2-173.9,66.1-259.9c-22.4,0-40.2-5.8-54.9-17.5c-73.8-59-162.1-97.3-231.1-162.9c-5.3-5-12-4.3-18.3-5.5
			c-61.2-11.5-123.2-17.3-185.3-20.2c-48.2-2.2-96.7-3-144.8-0.5c-63.8,3.3-110.9,43.9-159.1,79.5
			c-70.6,52.1-150.7,92.2-207.1,162.6c-42.1,52.7-76.1,109.5-94,175.1c-2.3,8.3-8.4,20.5,8.8,18.7c28.6-3.1,56.7-7.8,79.4-28.8
			c75.6-69.9,153.9-136.9,220.1-216.6c27.6-33.2,64-40.5,105.9-26.6c40.6,13.5,74.4,36.4,106.3,64.1
			c72.1,62.6,141.8,128.8,234.8,161.1c22.7,7.9,3.3,21.2,2.4,31.6c-1,12.9-8.3,16-21.3,11c-56.1-21.2-107.4-50.6-153.2-89.1
			c-11.8-9.9-20-11-33.4-1.1c-71.6,52.8-144.3,104.3-216.6,156.3C994.3,1564.8,946.3,1599.2,893.9,1636.8z M2039.2,1074.6
			c-10.3,2.7-16.5,4.2-22.7,5.8c-59.1,15.2-94.4,63.3-138.4,99.5c-10.5,8.7-16.1,19.2-19.3,32.5c-17.7,71.9-35.9,143.7-54.8,215.3
			c-23.4,88.7-43.3,178.2-63.8,267.5c-9.4,41-37.9,58.6-78,55.6c-9.6-0.7-27.2,2.9-23.4-14.3c2.8-12.7-2.8-37.5,26.1-32
			c14.9,2.8,26.4-2.2,31.5-19.1c14.7-49,17.4-98.2,5.2-148.2c-4.4-18.2-16.7-26.9-34.2-25.5c-43.4,3.4-87.7,0.8-130.2,11.3
			c-78.5,19.4-151.6,48.5-201.2,118.2c-15.9,22.3-40.1,32.5-67.8,32.6c-83.6,0.3-167.1,6.1-250.6,7.7c-24.1,0.4-27.6,6.6-26.4,26.8
			c1.2,21-7.8,38.6-26.9,48.2c-21.1,10.7-43.2,7.5-64.7-0.3c-5-1.8-8.2-6-5.4-10.7c7.9-13.4,2.5-42.2,33.9-29.5
			c9.1,3.7,16.2-0.6,17.5-11.6c1.2-10.2-2.2-14.5-13.2-16.2c-60.3-9.1-117.7-9.6-165,38.7c-9.2,9.4-11.4,14-3.9,24.5
			c29.3,41.1,65.9,72.5,113.8,90.3c45.9,17,93.9,22,141.9,25.8c160.6,12.5,321.2,3.1,481.8-2.6c81.6-2.9,163.3-8,244.5,6.9
			c89.1,16.4,172.4,50.2,255.8,83.8c36.7,14.8,73.3,29.8,114.5,36.8c-7.1-44.9-15-87.5-20.2-130.4c-2-16.5-7.6-20.8-23.7-22.3
			c-83.1-8.1-166.1-17.4-249-27.2c-35.2-4.2-50-18.7-58.4-53.8c-14.1-58.6,10-107.8,41.3-153.7c31.9-46.6,33.3-45.6,36.6-99.1
			c0.2-3.7,0-7.6,1.1-11.1c21.5-67.4,42.8-135.1,102.4-180.6c11.6-8.9,16.3-16.7,13.6-32.1c-8.9-51.1,11.4-91.1,56.2-116.6
			c7.4-4.2,18.9-4.7,16.4-18.4C2027.9,1124.1,2033.5,1101.5,2039.2,1074.6z M138.4,2030.4c71.7-4.1,132.2-19.2,189.9-46.6
			c59.3-28.2,108.6-70,159.2-111c59.7-48.4,124.1-91,187.1-135.2c15-10.5,17.7-19.9,10.4-36.8c-10.6-24.3-17.9-50.1-28.4-80.4
			C480.6,1750.3,293.7,1863.3,138.4,2030.4z M1238.7,1331.2c-16.3-14.4-31.5-26.4-45-40.1c-11-11.2-20-8.5-31.3-1
			c-148.4,98.1-296.8,196.3-445.8,293.5c-16.2,10.6-12.2,21.6-10.3,35.3c2.2,16.3,13.5,14.9,24.7,15c14.8,0.1,30-1.7,44.5,0.7
			c27.9,4.7,49.4-4.3,71.5-21.1c49.3-37.6,100.7-72.7,151.1-108.9C1077.7,1447.3,1157.3,1389.9,1238.7,1331.2z M955.9,1090.8
			c-2.7-5.8-7.2-6.9-11.6-8.1c-65.1-18.5-131.6-20.2-198.5-15.4c-85.4,6.1-153.4,45.3-207.3,110.5c-24.5,29.6-43.3,62.3-51.4,100.4
			c-2.9,13.5,0.6,23.8,12.6,30.8c11.9,6.9,21.5,1.3,29.9-6.7c10.1-9.6,20.3-19.2,29.1-29.8c62-75.2,139.2-104.5,235-79.5
			c7.7,2,16.5,5.9,23.9-0.8C860.5,1153.9,912.1,1127.4,955.9,1090.8z M2088.8,1713.1c1.4-18.5,0.9-37.4,4.6-55.4
			c4.4-21.9-5.8-26.4-24.3-29.3c-57.6-8.9-115.6-16.6-171.6-34c-6.1-1.9-11.2-4.1-18.2-0.2c-39.9,22.1-79.7,108.3-70.4,152.4
			c2.9,13.6,8,20,23.3,21.5c79.3,7.5,158.5,16.3,237.7,25.4c14.2,1.6,20.3-0.2,19.2-16.4C2087.8,1755.9,2088.9,1734.5,2088.8,1713.1
			z M2090.8,1585.8c7.1,2.2,11.7-4.7,13.6-16.9c8.1-53.2,20.8-105.4,40.5-155.4c6.7-16.9-1.5-20.2-14.3-24.5
			c-41.2-13.5-84.8-20.6-123.6-40.5c-14.4-7.4-23-5.4-34.3,3.9c-49.7,40.6-66.9,98.7-83.6,156.3c-6.8,23.5,9.6,38.5,31.8,44.5
			C1974.4,1567.8,2029.6,1575,2090.8,1585.8z M1366.7,988.3c-35.3-88.9-149.9-146.3-237.4-121.6c-73.6,20.7-134.7,114.6-120.3,191.2
			C1113.6,959.5,1241.6,988.1,1366.7,988.3z M2247.7,1148c56.1-0.5,56-0.5,48.3-57.8c-1.1-8.3-1.3-16.7-2.7-24.9
			c-1.9-11.3-6.8-21.3-16.4-28c-38.2-26.5-79.3-28.6-121.4-12.1c-41.5,16.3-70,45.3-77.2,90.8c-4.8,30.4,1.5,36.3,33.4,38.5
			C2157.3,1157.7,2202.3,1148.7,2247.7,1148z M2246.5,1192.1c-64.2,10.8-123.4,7.3-182.6,7.7c-31.4,0.2-55.3,23.3-59.3,52.3
			c-4.6,33.8,7.4,52.2,42.9,63.4c33.5,10.6,67.4,19.7,100.7,30.8c13,4.3,19.3,3.6,25.1-10.5
			C2193,1288.1,2217.8,1242.8,2246.5,1192.1z M963.3,993.5c1.5-23.9-7.2-44-23.3-60.7c-21.4-22.2-54.8-23.6-71.8-3.9
			c-4.7,5.4-12.2,11.9-2.1,18c28.8,17.4,43.5,44.7,54.8,74.7c5.5,14.4,20,13.5,30.7,13.9c10.8,0.4,6.7-12.9,9-20
			C962.9,1008.7,962.5,1000.9,963.3,993.5z M933.5,1385.5c66.3-43.9,132.5-87.8,200.8-133.1c-50.9-24-61.7-22.2-95.6,16
			C1004.2,1307.2,970.5,1346.8,933.5,1385.5z"/>
	</g>
</g>
</svg>
