<?xml version="1.0" encoding="utf-8"?>
<!-- Generator: Adobe Illustrator 23.0.0, SVG Export Plug-In . SVG Version: 6.00 Build 0)  -->
<svg version="1.0" xmlns="http://www.w3.org/2000/svg" xmlns:xlink="http://www.w3.org/1999/xlink" x="0px" y="0px"
	 viewBox="0 0 3000 3000" style="enable-background:new 0 0 3000 3000;" xml:space="preserve">
<style type="text/css">
	.st0{stroke:#000000;stroke-width:10;stroke-miterlimit:10;}
</style>
<g id="Layer_1">
</g>
<g id="Layer_2">
	<g>
		<path class="st0" d="M1121,798.9C1029.7,732,999.2,637,988.7,532.5c-6.5-65-14.5-130.2-12.8-195.6c2.4-91.4,40.7-167.3,110-226
			c54.3-46.1,116.4-56.2,183-27.5c7.5,3.2,12.8,6.5,20.5-0.4c59.3-53.5,131.2-48.7,201.2-37.1C1552,56,1610.1,79.7,1654,127.3
			c17.6,19.1,22.5-1.5,29.8-8.2c97.9-90.7,233.1-100.5,342.1-26.1c66.3,45.3,91,111.3,100.5,186.5c19,150.4,1.2,296.2-54.8,437.1
			c-16.7,42-39.4,79.5-85.1,102.8c100.6,71.8,112,178.5,119.9,285.6c10.2,138.5,0.9,277.1-2.5,415.6c-6.9,276-15.4,551.9-23.7,827.9
			c-3.3,110.8-6.1,221.6-24.5,331.3c-27.3,163.3-109.8,255.4-291.2,268.7c-199.3,14.6-399.3,4.9-597.3-20.9
			c-125.1-16.3-191.4-94.1-211.8-221.8c-12.9-80.7-8.6-161.4-5-242.2c10.7-237,28.3-473.8,28.7-711.1c0.3-190.7-6.9-381.3-10.7-572
			c-1.3-63.3,1.5-126.3,12.9-188.8C998.8,896.2,1034.1,846.1,1121,798.9z M1426,777c53.4,0,101.8-1.3,150.1,0.5
			c23.8,0.9,31.5-4.2,32.6-30.2c2.9-67.4,10.1-134.7,16.6-201.9c9.7-100.4,21.9-200.6,15.7-301.8c-2.4-38.8-13.3-74.1-48.3-97.3
			c-61.6-40.9-128.9-57.6-202.2-48.7c-60.1,7.3-70.2,21.3-70.6,81.4c-0.4,69.8-4.8,139.5-5.7,209.3c-0.3,24.4-10.8,28.9-32.4,28.1
			c-23.3-0.9-26-11.8-24.9-31.7c3.5-64.2,6.8-128.5,7.2-192.7c0.4-57.3-25.8-77.3-82.5-67.5c-18.8,3.3-36.3,10.1-51.4,22.1
			c-68.2,54-101.8,125.2-98.6,211.3c2.7,70.8,5.9,142.2,18.4,211.7c23.3,130,86.9,225.5,248,206.3c53.4-6.4,91.8-31.4,109.7-82.9
			c23.3-66.8,35.3-135.4,21.6-205.8c-4.9-25.3,9.5-26.8,26.3-30.8c19.6-4.6,28.2,1.8,30.1,22.1C1495.5,581,1485.7,679.6,1426,777z
			 M1734.6,616.3c2-44.7,3.5-83.5,5.5-122.2c0.8-15-6.2-32.9,23.2-31.8c27.5,1,32.8,10.5,31.6,35.3c-3.7,74.1-5.7,148.4-7.3,222.6
			c-0.9,39.7,10,51,49.7,54.6c18.7,1.7,37.6,2.1,56.4,2.6c73.9,2.3,98.2-12.1,126.2-82c51.7-128.9,70.2-262.7,51.5-400.7
			c-4.6-33.6-6.6-68.7-24.5-99.3C1975.1,73,1779.1,67.3,1699,185c-7.1,10.5-7,20-5.4,31.2c13.9,99.9-1.3,199-9.4,298.2
			c-6.5,79.5-13.7,158.9-21.4,238.2c-2,20.6,5.6,28.5,25.9,27c12.1-0.9,24.4,0.2,36.6,0.3c9.5,0.1,13.9-2.6,11.3-13.8
			C1725,714.3,1737.7,662.2,1734.6,616.3z M1538.3,1370.9c0-0.3,0-0.6,0-0.8c-160.7-3.6-321.4-6.7-482.1-11.2
			c-22-0.6-29.3,5.4-27.9,27.4c2,30.9,2.2,62.1,1.2,93.1c-0.7,21,5.3,29.7,27.9,28.4c34.3-1.9,68.7-0.5,103.1-0.5
			c285,0,570-0.3,854.9,0.6c25.2,0.1,36.6-5.5,34-32.3c-1.5-16.4,1-33.2,1.6-49.8c1.6-43.7,1.6-43.5-40.7-44.4
			C1853.1,1378,1695.7,1374.4,1538.3,1370.9z M1516.6,2359.1c145.2,0,290.4,0,435.6,0c73.3,0,71.7-0.1,75.1-72
			c1.4-29.8-7.3-36.5-36.1-36.9c-303.6-4.5-607.2-10.6-910.8-16.2c-62.6-1.1-62.6-1-65.1,60.2c-0.5,11.1,0.1,22.5-2.4,33.1
			c-6.5,28.2,6.6,32.5,31.6,32.3C1201.8,2358.6,1359.2,2359.1,1516.6,2359.1z M1621,1877.2c0-94.1-1-188.2,0.6-282.3
			c0.4-25.6-7.6-32.2-31.8-31c-38.7,1.9-77.5,1.1-116.2,0.2c-17-0.4-26.4,3.1-27,22.9c-5.8,191.4-12.1,382.8-18.8,574.2
			c-0.6,18.4,4.5,25.4,23.9,25c45.4-0.9,90.9-1.4,136.1,1.3c25.4,1.5,34.5-3.6,33.9-31.2C1619.9,2063.2,1621,1970.2,1621,1877.2z
			 M1201.7,1869.9c0,94.1,0.5,188.2-0.4,282.3c-0.2,20,3.2,30,26.5,29.4c38.7-1,77.5,0.3,116.2,3c22.4,1.5,28.6-6.8,29.2-27.9
			c5.2-189.2,10.9-378.4,17.2-567.5c0.6-18.9-5.2-25.4-24.1-25c-46.5,0.9-93,1.2-139.5-0.1c-21.1-0.6-25.7,7.5-25.5,27
			C1202.2,1683.9,1201.7,1776.9,1201.7,1869.9z M1833.3,1879.7c0-95.4-0.7-190.7,0.5-286.1c0.3-23.7-7.5-30.8-30.3-29.7
			c-33.2,1.6-66.5,1.2-99.8,0.1c-19.2-0.6-27.7,4.6-27.7,25.9c0.7,191.8,0.6,383.7,0.1,575.5c-0.1,19.3,7.5,25,25.5,24.9
			c34.4-0.2,68.8-0.4,103.1,2.2c24.4,1.9,29.4-7.7,29.1-30.1C1832.7,2068.2,1833.3,1974,1833.3,1879.7z M1472,1073.5
			c0-70.8-0.7-141.7,0.4-212.5c0.3-21.2-5.8-29.8-28-28.9c-52,2-104,3-156,2.6c-20.6-0.2-28.3,4.1-27.4,27.3
			c5.6,141.5,9.9,283.1,13.5,424.6c0.5,18.6,7.7,21.3,23.6,21.5c48.7,0.9,97.4,2.3,145.9,5.6c22.4,1.5,28.6-6.3,28.3-27.7
			C1471.4,1215.1,1472,1144.3,1472,1073.5z M1408,2651.1c0-70.8-0.2-141.5,0.1-212.3c0.1-14.4,0.3-25.8-20.1-25.4
			c-55.3,1-110.6,0.8-166,0.1c-16.2-0.2-20.6,6.2-20.6,21.5c-0.7,140.5-2,281-3.4,421.5c-0.2,14.6,3.4,21.5,20,22.4
			c50.8,2.8,101.5,7.1,152.1,12c9.2,0.9,15.1-0.4,18.8-3.8c6.7-6.2,5.8-17.4,5.6-20.5C1393.3,2846.7,1398.7,2766.5,1408,2651.1z
			 M1887.9,1876.7c0,96.4,0.4,192.9-0.3,289.3c-0.1,18.8,2.9,28.6,25,27.4c28.7-1.5,57.7-0.7,86.3,1.5c21.2,1.6,29.1-5,29.7-26.8
			c5.4-192.7,11.4-385.4,18.1-578.1c0.8-21.4-6.9-26.6-26.4-25.9c-34.3,1.2-68.8,1.5-103-0.1c-23.3-1.1-30.2,7-29.9,30.1
			C1888.6,1688.3,1887.9,1782.5,1887.9,1876.7z M1214.3,1080.1c-6.7-104.5-10.4-178.6-8.6-207.2c0.3-4.7,1.4-19.4-7.4-26.6
			c-6.2-5-16.3-4.4-30.5-1.2c-80.7,18.2-116.5,75.2-131.1,149.5c-18.6,95.2-15,191.6-10.4,287.8c0.6,13.3,4.3,19.9,19,20.2
			c50.9,0.9,101.8,2.3,152.6,4.7c8.4,0.4,13.7-0.9,16.9-4.1c6-5.9,5-16,4.7-19.2C1217.7,1265.5,1216.1,1188,1214.3,1080.1z
			 M1033.1,1891.4c-2.6,52.3-6.5,124.1-9.8,196c-4.3,92.2-4,90.6,87.7,93c31.5,0.8,35.8-10.3,35.6-37.7
			c-1.1-166.1-0.6-332.3-0.6-498.5c0-81.4,0-80.4-82.6-80.5c-25.4-0.1-31.3,7.9-30.9,32.3C1034,1687.9,1033.1,1779.9,1033.1,1891.4z
			 M1887.9,1083.1c0,70.8,0.8,141.6-0.5,212.4c-0.4,22,7,28.8,28.1,28.6c37.6-0.3,75.3,0.7,112.7,3.4c21.4,1.5,26.1-6.5,25.7-26.3
			c-1.3-59.7,1.1-119.5-1.5-179.1c-2.7-60.7-8-121.6-33.1-178.3c-20.6-46.7-53.5-80.6-104.3-94.4c-18.7-5.1-28.1-1.9-27.6,21.3
			C1888.8,941.5,1888,1012.3,1887.9,1083.1z M1599.9,2658.4c0-73.1-0.4-146.2,0.3-219.4c0.2-17.9-4.3-26.4-24-25.6
			c-29.9,1.3-59.8,1.1-89.7,0c-17.9-0.6-22.8,7.4-23.4,23.6c-4.5,145-9.3,290-14.5,435c-0.6,16.1,5.2,21.4,20.6,21.8
			c34.3,0.8,68.7,1.8,102.9,4.6c21.7,1.8,28.7-5.3,28.3-27.4C1599.2,2800.2,1600,2729.3,1599.9,2658.4z M1793.6,2654
			c0-44.3,1.1-88.7-0.4-132.9c-1.2-34.9,16-81-7.4-101.6c-22.7-19.9-67.8-4.2-103.1-5.7c-2.2-0.1-4.4,0.2-6.6,0
			c-15.1-1.5-21.8,4-21.8,20.4c0.4,148.4,0.4,296.9,0,445.3c0,14.6,5.4,19.2,19.4,19c29.9-0.6,59.7-2.1,89.5-4.3
			c23.9-1.8,31.6-9.5,30.9-34C1792.5,2791.4,1793.6,2722.7,1793.6,2654z M1848.2,2643c0,68.6,0.6,137.2-0.3,205.8
			c-0.3,22.7,5.4,26.9,26.3,17.1c68-31.9,102.7-88.2,118.8-158.4c20.4-88.8,24.6-179.4,28.5-270c0.9-20-7.1-24.4-25-24
			c-40.9,0.9-81.9,1.3-122.8-0.1c-21.1-0.7-26.1,7.6-25.8,27.1C1848.8,2508,1848.2,2575.5,1848.2,2643z M1656.2,1074.7
			c0-48.8,1-97.6-0.4-146.3c-0.8-30.6,13.8-69.8-6.6-89.3c-18.6-17.8-57.2-2.9-86.7-6.2c-27.1-3-35.8,5.3-35.4,33.9
			c1.7,116.4,0.3,232.8,1,349.2c0.2,31.8-14.4,75.9,5.9,92c21.1,16.7,63.3,6,96.2,9c21,1.9,26.6-6.1,26.3-26.1
			C1655.6,1218.9,1656.2,1146.8,1656.2,1074.7z M1712.8,1076.2c0,52.1,0,104.2,0,156.3c0,89.6,0,88.8,91.2,89
			c22.9,0.1,30.1-5.6,29.9-29.4c-1.2-121.9-0.5-243.9-0.5-365.9c0-91.4,0-90.1-90.9-92c-27.1-0.6-30.6,9.3-30.2,32.3
			C1713.6,936.5,1712.8,1006.3,1712.8,1076.2z M1145.4,2642.2c0-67.5,0-134.9,0-202.4c0-13.8,1.1-26.8-19.6-26.2
			c-33.2,1-66.4,0.6-99.5,0.2c-12.4-0.1-17.6,4.6-18.3,17.3c-4.7,89.4-12.8,178.9,2.1,268.1c11.4,68.5,39.4,126.5,105.9,158.5
			c9.6,4.6,16.5,6.7,20.9,4.1c6.6-4.1,5.7-16.5,5.4-20.5C1140.9,2817.9,1142.4,2745.7,1145.4,2642.2z"/>
	</g>
</g>
</svg>
