<?xml version="1.0" encoding="utf-8"?>
<!-- Generator: Adobe Illustrator 23.0.0, SVG Export Plug-In . SVG Version: 6.00 Build 0)  -->
<svg version="1.0" xmlns="http://www.w3.org/2000/svg" xmlns:xlink="http://www.w3.org/1999/xlink" x="0px" y="0px"
	 viewBox="0 0 3000 3000" style="enable-background:new 0 0 3000 3000;" xml:space="preserve">
<style type="text/css">
	.st0{stroke:#000000;stroke-width:10;stroke-miterlimit:10;}
</style>
<g id="Layer_1">
</g>
<g id="Layer_2">
	<g>
		<path class="st0" d="M1492.4,44.8c226.7,6.1,514.9,142.1,640.4,450.5c27.2,66.8,48.8,135.4,65,205.5
			c24.2,104.9,7.1,204.3-38.9,301.3c-63.3,133.4-152,245.6-267.5,336.8c-31.9,25.2-32.9,23.5-6.2,53.6c57,64.3,113.9,129,149,208.7
			c62.3,141.2,44.4,274.7-41.5,400.6c-45,66-103.6,114.3-182.2,135.6c-32.9,8.9-66.6,8.4-100.2,8.5c-48.6,0.2-71.2,20.3-77.9,68.5
			c-10.7,77.5,14.2,146.5,51.1,212.5c8.8,15.7,23.7,17.7,40.1,14.3c53.4-11.2,104.5-29.5,154.9-50.1
			c92.5-37.7,178.7-87.3,263.5-139.8c3.3-2,6.5-4,9.8-6c81.9-48.8,158.2-27.2,202,57.6c37.9,73.5,41.2,150.8,16.4,227.8
			c-53.2,165-160.5,285.5-313.5,365c-153.3,79.7-314,89.6-480,47.7c-76.6-19.4-149.4-45.2-210-98.4c-92.1-80.9-134.3-186-148-304.6
			c-12.6-108.8,14.3-209,66-304.6c42.3-78,85.3-155.9,115.8-239.7c11.6-31.8,20.7-64.2,20.2-98.5c-0.7-42.9-19.6-67.1-61.3-77
			c-67.4-15.9-135.1-13-202.4,0.2c-142.6,28-285.6,47.7-431.2,29.9c-24.4-3-48.2-8.5-71.6-15.9c-61.2-19.5-92.1-62.3-98.1-125.2
			c-8.5-89.3-12.2-179.1-12.3-268.6c0-60.3-19-115.9-26.5-173.9c-6.3-49.3-9.9-98.9,6.2-147.8c10.7-32.3,33.6-50,64.1-60.1
			c32-10.6,64.5-6.6,97.5-5.2c66.6,2.8,133.4,2.9,200,2.6c170.9-1,341.9-1.7,512.6-11.5c60.2-3.4,114.1-26.9,161.3-64.6
			c33.4-26.6,51.2-62.9,58.7-103.8c14.5-80.1,8.6-159.4-22.4-234.7c-44.1-107.2-127.9-162.5-241.5-175.8
			c-28.2-3.3-55.9-10-82.6-19.3c-95.2-33-181.9-162.2-78.7-277.8C1269.7,82.6,1368,44.2,1492.4,44.8z M600.4,1410.3
			c-0.8,1.8-2,3.1-1.9,4.4c4.1,97.3,5.9,194.6,13.8,291.7c3.2,39.5,23.3,64.7,62.1,76c36.3,10.6,73.3,15.4,110.8,17.8
			c133.5,8.7,263.8-16.9,394.3-38.2c69.3-11.3,137.5-10.8,204.8,7.3c48,12.9,79.1,45.2,88.9,95.5c9.9,50.7-1.5,99-18.1,146.3
			c-34.4,98-87.1,187.4-134.1,279.3c-44.6,87.3-58.2,178.5-41.9,274.1c18.5,109.1,63.7,204.6,160.9,264.4
			c106.1,65.3,225.7,85.7,348.4,81.5c146.7-5.1,274.1-61.2,380.4-162c78.9-74.8,136.6-163.7,156.3-272.5
			c10.9-59.8,3.1-118-35.3-168.3c-25.6-33.5-55.4-40.4-92.8-22c-18.5,9.1-36.4,19.6-54,30.5c-71.4,44.3-144.4,85.4-221.7,118.6
			c-61.3,26.3-123.9,49-189.4,62.4c-40.3,8.2-76.2-6.4-95.4-39.5c-38-65.8-65.2-135.6-63-213.2c2.7-91.3,38.7-163.6,154-154.4
			c5.3,0.4,10.7,0.1,16.1-0.1c31.7-0.9,62.2-7.1,91-21.2c149-72.8,221.9-276.5,154.1-432.2c-40.5-93.2-108-166.5-176.4-239.1
			c-8.5-9.1-16.8-7.1-26.9-3.5c-65.9,23.3-134.1,31.4-203.6,28.2c-71.2-3.2-142.3-7.8-213.7-8.4c-154.2-1.3-308,9.5-461.9,15.9
			C803.5,1433.8,700.6,1440.9,600.4,1410.3z M1005.2,1113.1c-85.9,0.7-171.6,0.9-257.5-2.1c-43.3-1.5-86.9-6.8-130.2-0.8
			c-30,4.1-41.7,15.2-45.6,45.1c-4.4,33.5-4.6,67.4,0.6,100.8c14.5,94,30.7,107.7,126.6,116.9c90.6,8.7,180.9,2.5,271.1-2.8
			c204.5-11.9,408.9-17.1,613.6-5c107.9,6.3,210.4-15.4,294.7-87.4c109.9-93.9,194.6-207.1,247.6-343.1
			c24-61.7,31.7-124.1,22.5-189.3c-5.6-39.6-17.3-77.7-28.4-115.8C2076.1,477.6,2005,342,1875.6,244.8
			c-126.1-94.8-266.9-150.3-427-141.7c-89.6,4.8-165.5,41.9-221.8,114c-33,42.2-32.3,82.7-2.1,126.7c33.7,49,85.4,59.6,138.2,66.6
			c132,17.5,230.1,82.1,282.5,206.1c37.9,89.5,45.6,183.4,25.6,279c-15.1,72.4-57.5,124-121,159.4c-58.5,32.6-121.6,48.9-188.4,50.4
			C1242.8,1108.1,1124,1110.6,1005.2,1113.1z"/>
	</g>
</g>
</svg>
