<?xml version="1.0" encoding="utf-8"?>
<!-- Generator: Adobe Illustrator 23.0.0, SVG Export Plug-In . SVG Version: 6.00 Build 0)  -->
<svg version="1.0" xmlns="http://www.w3.org/2000/svg" xmlns:xlink="http://www.w3.org/1999/xlink" x="0px" y="0px"
	 viewBox="0 0 3000 3000" style="enable-background:new 0 0 3000 3000;" xml:space="preserve">
<style type="text/css">
	.st0{stroke:#000000;stroke-width:10;stroke-miterlimit:10;}
</style>
<g id="Layer_1">
</g>
<g id="Layer_2">
	<g>
		<path class="st0" d="M1194.9,1083.9c46.6-106.5,123.1-160.4,235.3-161.4c34.7-0.3,69.4-4,103.9-2.6
			c115.2,4.3,198.5,60.2,253.2,160.6c3.4,6.3,6.8,12.6,11.6,21.5c26-24,47.2-49.7,73.3-70.6c103.5-83.2,219.9-122.5,353.1-116.4
			c127.1,5.8,254.3,11.5,381.3,14.1c141.3,2.9,354,190.7,328.9,372.2c-12.6,90.8-3.3,182.8,1.3,274.1c3.2,64-17.5,120.3-52.5,171.6
			c-68.9,101.2-162,163-287.1,170.1c-143.8,8.2-288.3,21-430.7-8.2c-117.7-24.1-224.9-74.8-316.9-154.3
			c-155.6-134.5-198-376.4-98.8-572c10.3-20.3,9.7-35.8,0.6-55.4c-51-110.5-131.3-160.6-253-154.3c-38.7,2-77.6,0.4-116.2,7.9
			c-95.5,18.4-163.2,118-144.7,213.9c19.6,101.6,2.7,199.6-37.3,292.9c-98.7,230.5-259.5,394.6-511.1,449.6
			c-331.1,72.4-584-148.4-629.7-429.8c-48.6-299.1,126.6-538.1,426.8-603.4c106.1-23.1,211.7-32.4,318.9-19.3
			C957.4,903.2,1095.6,951.7,1194.9,1083.9z M1778.9,1558.9c-0.6,10.5,6.7,21.2,12.4,32.1c90,172.2,248,242.6,426.4,272.4
			c121.2,20.2,245.2,9.2,368.2,2.4c117.1-6.4,201.5-63.8,262.5-160c27-42.6,40.7-89.2,35.1-140.9c-3.4-31.3-3.7-63-3.5-94.5
			c0.3-75.6,7.7-151.7,1.4-226.7c-10.4-124.3-168.7-262-288.6-263.2c-126-1.3-252-10.1-378.1-12.8c-47.2-1-93.6,0.4-138.8,14.7
			c-153.2,48.5-261.3,142.9-308.3,300.7c-6.2,20.7-1.3,22.8,17.6,21c66.8-6.6,133.6-14.2,201.1-8.5c80,6.7,141.3,73.3,140.8,154.2
			c-0.2,42.9-22.8,76.5-64.2,91c-38.9,13.6-79.4,18.8-120.7,18.4C1887.9,1558.5,1833.7,1558.9,1778.9,1558.9z M1085,1594.6
			c-43.9,5.4-83.2,11.4-122.7,14.9c-66.1,5.8-132.3,9.1-197.4-8.4c-47.1-12.7-75-43.6-80-86.6c-7.2-62.6,34.1-128.5,94.1-147.8
			c47.2-15.2,96.1-23.5,145.5-25.2c79.8-2.7,159.7-3.3,239.6-4c16-0.1,24.7-2.9,26.4-21.5c9.7-100.8-12.8-190.1-90.7-260.1
			c-51-45.9-111.5-74.6-176.6-93.9C777.6,919,630.7,919,484.9,958.3c-208.8,56.3-354.5,178.1-380.1,419.3
			c-22.9,215.9,122.4,442.6,331.6,500.7c191.4,53.1,360.8-1.9,510.8-125.2C1000.8,1709,1046,1657,1085,1594.6z M880.7,1561.9
			c75.6-1.8,150.2-12.7,224.6-25.6c12.7-2.2,20.3-8.7,25.6-20.2c15.5-33.3,28.9-67.3,40.4-102.2c6.3-19.1,1.6-23.8-17.3-23.3
			c-47.2,1.2-94.4,2.1-141.6,1c-67.4-1.5-133.9,4.7-199.6,19.6c-53.3,12.1-68.2,41.8-74.4,84.5c-3.9,27.1,7.7,44.3,33.6,52.3
			C807.4,1559,843.7,1563.1,880.7,1561.9z M1879.4,1505.7c53.5,0.9,106.9,4.3,159.1-12.5c15.8-5.1,29.2-10.9,33.5-28.8
			c12.7-52.6-32.7-114.9-87.4-116.2c-54.4-1.3-109-1.8-163.2,1.9c-72.4,4.9-74.9,9.7-71.1,84.2c0.8,15.7,4.3,31.2,5.5,46.8
			c1,12.9,6.5,17.8,19.8,18.3C1810.3,1500.7,1844.9,1503.5,1879.4,1505.7z"/>
		<path class="st0" d="M2141.6,1094.4c36.8,0.1,66,28.5,66.8,64.8c0.8,36.6-30.6,68.6-67.2,68.5c-36.7-0.1-67.5-32-66.6-68.9
			C2075.6,1122.2,2104.7,1094.2,2141.6,1094.4z"/>
		<path class="st0" d="M2380.7,1519.1c-37.1-0.7-65-29.9-64.4-67.4c0.6-36.5,30.9-66.5,66.7-66c35,0.4,67,32.1,67.2,66.7
			C2450.5,1489.1,2418.4,1519.8,2380.7,1519.1z"/>
		<path class="st0" d="M2011.7,1600.1c37,0.5,66.3,29.6,66.3,66.1c0,37.4-31.7,67.7-69.5,66.5c-36.6-1.2-64.3-30.8-63.8-68.2
			C1945.1,1627.4,1974,1599.6,2011.7,1600.1z"/>
		<path class="st0" d="M2336.6,1188.4c37.1-0.4,67.1,27.7,68.4,64.1c1.3,36.2-31.2,69.7-67.3,69.4c-36-0.3-65.9-30.5-66.1-66.9
			C2271.3,1217.4,2299.2,1188.8,2336.6,1188.4z"/>
		<path class="st0" d="M2249.8,1701.1c-36.8-1-65-30.5-64.4-67.6c0.6-38.1,31.3-66.7,70-65c36.7,1.6,63.9,31.6,62.6,69
			C2316.8,1674.3,2286.9,1702.1,2249.8,1701.1z"/>
		<path class="st0" d="M1062.7,1222.2c-0.5,47.8-39.4,85.6-87,84.4c-46-1.2-83.9-39.5-84.2-85c-0.2-46.4,39.9-86.5,86.4-86.3
			C1025.6,1135.5,1063.2,1174,1062.7,1222.2z"/>
		<path class="st0" d="M512.3,1405c-47.5-0.3-83.9-31.4-83.3-71.2c0.6-39.8,36.9-70.1,84.7-70.3c48.4-0.3,87.7,32,87.3,71.6
			C600.5,1374.9,561.9,1405.3,512.3,1405z"/>
		<path class="st0" d="M709.5,1208.8c45.1,0.3,81.5,30,81,66c-0.5,35.8-38,65.2-82.6,64.7c-44.8-0.5-81.9-30.8-81.3-66.4
			C627.2,1237.6,664.7,1208.4,709.5,1208.8z"/>
		<path class="st0" d="M527.1,1751.8c-40.6-0.3-71.5-31.4-71.4-71.8c0.1-39.3,32.8-72.7,71.6-73.2c39.4-0.5,74.5,35.2,73.6,75
			C600.1,1720.9,567.2,1752.1,527.1,1751.8z"/>
		<path class="st0" d="M507.9,1506.7c0,35.3-26.4,61.8-61.4,61.8c-35,0-61.3-26.4-61.4-61.8c-0.1-36.1,23.5-58.7,61.3-58.7
			C484,1448,507.9,1470.8,507.9,1506.7z"/>
		<path class="st0" d="M758.2,1747.4c-29.3-0.2-51-22.7-50.4-52c0.6-27.2,22.8-49.7,49.7-50.3c28-0.7,51.9,22.9,52.1,51.2
			C809.8,1725.6,787.6,1747.6,758.2,1747.4z"/>
	</g>
</g>
</svg>
