<?xml version="1.0" encoding="utf-8"?>
<!-- Generator: Adobe Illustrator 23.0.0, SVG Export Plug-In . SVG Version: 6.00 Build 0)  -->
<svg version="1.0" xmlns="http://www.w3.org/2000/svg" xmlns:xlink="http://www.w3.org/1999/xlink" x="0px" y="0px"
	 viewBox="0 0 3000 3000" style="enable-background:new 0 0 3000 3000;" xml:space="preserve">
<style type="text/css">
	.st0{stroke:#000000;stroke-width:10;stroke-miterlimit:10;}
</style>
<g id="Layer_1">
</g>
<g id="Layer_2">
	<g>
		<path class="st0" d="M555.1,794.7c-65.9-23.5-123.1-54.8-165-109c-86.7-112.2-81.1-273.3,14.1-397.9
			c161.9-211.8,462.5-231.9,649.6-42.4c18.4,18.6,28.6,19.3,47.8,1.9c117.6-107.1,260.1-152.8,415.7-162.6
			c167.3-10.5,334.6-7.7,501.7,6c131.4,10.7,225.6,79.7,289.5,191c84.4,146.8,152.8,300.7,181.4,469
			c16.3,95.9,18.1,193.2,15.7,290.6c-8.6,344-19.7,687.9-34.5,1031.6c-4.8,110.4-5.6,221.1-25.9,330.4
			c-34.7,186.5-147.3,319.7-295,427.2c-125.5,91.4-268,133.5-423.2,135.6c-231.6,3.2-462.5-1-689.5-54.4
			c-79.5-18.7-156.1-46.3-227.3-87.1c-73.6-42.2-129.1-101.5-152.9-183.3c-38.6-132.3-109.4-242.5-207.7-338.2
			c-106.4-103.5-133.9-235.5-123-378.2c3.6-46.8,29.4-79.3,75.3-91.8c15.7-4.3,18.7-11.8,18.6-25.7c-0.5-49.2-0.2-98.3-0.1-147.5
			c0-10.3-0.5-19.1-11-25.7c-106.6-67.4-121.4-171.3-105.3-282.8c28.7-199.2,118.3-372.9,234.8-534.2
			C543.7,810.6,548.2,804.3,555.1,794.7z M899.1,1672.9c-20.3,11.9-36.2,22.4-53.1,30.8c-81.1,39.9-186.3,29.8-220.5-54.5
			c-8.7-21.4-28.4-24.4-48.2-16.5c-28.1,11.1-56.1,22.1-86.6,23.1c-14.9,0.5-15.3,9-15.2,19.8c0.1,49.2,0.2,98.3,0,147.5
			c0,9.6,2.3,16.5,11.3,22.1c84.6,52.2,121.4,143,175.7,219.6c5.8,8.2,14.4,22.8-4.1,25.4c-14.6,2.1-30.2,23.3-46.2-1.9
			c-31.7-49.9-65.9-98.2-98.9-147.3c-13.4-20-31.1-35.2-52.1-46.2c-42.8-22.4-77.6-4.8-80,43.7c-5.9,122.1,15.5,236.7,108.6,325.4
			c106,100.9,180.6,219.9,221.3,360.8c14.6,50.5,45.2,91.6,87.6,123.7c75.5,57.1,162.8,88.2,253.3,108.6
			c241.5,54.4,486.8,66,732.8,47.6c342.8-25.7,606.8-301.5,621.7-639.1c18.8-426.3,33.8-852.8,43.8-1279.4
			c6.2-266.8-77.2-504.8-223.5-723.4c-45.9-68.6-114.4-105.2-196.7-113.7c-179.4-18.4-359.1-20-538.7-5.8
			c-122.8,9.7-237.8,46.2-332,128.1c-186.3,162-372.5,324.5-528.1,518c-128.2,159.5-226.7,334-266.8,537.3
			c-11.6,58.7-16.4,117.5,4.3,175.3c29.3,81.8,98.3,113.9,176.5,82.6c62.5-25,100.5-13.2,135,45.9c17.6,30.1,42.3,41,74.9,40.1
			c70.8-1.9,130.9-48.9,150.1-117.2c24-85,6.6-142-56.9-190.9c-15.2-11.7-12.7-31.8-9.3-46.3c3.7-15.9,20.8-7.2,31.2-4.4
			c33.2,9.1,56,31.8,71.9,61.3c36.8,68.5,33.6,139.6,11.8,211.4c-4.6,15.3-6.6,29.5-4.2,45.7c25,166.7,81,322,169.7,465.1
			c11.9,19.2,7.8,27.7-9.2,37.4c-15.1,8.6-25.8,17.5-39-5.9c-29-51.4-57.4-103-81.3-157.1C948.5,1875.7,919.9,1777.6,899.1,1672.9z
			 M745.5,169.6c-126.9,7.7-240.5,61.6-315.3,180c-100.8,159.6-34.9,335.3,141.9,390.6c17.8,5.6,25.5,2.1,36-10.6
			c69-83.5,143.3-162.1,222.5-236c62-57.8,123.8-115.8,186.1-173.2c11.2-10.3,17.5-16.8,3.5-31.1C947.5,214.9,861,172.4,745.5,169.6
			z"/>
		<path class="st0" d="M1822.5,2350.1c-61.3-8.6-117.6,2.1-167.5,41.1c-25.4,19.9-45,42.8-53.6,74.6c-7.9,29.1-18.2,57.5-25.2,86.8
			c-44,184-211.4,248.4-355,229.2c-99.1-13.2-184.7-57.9-262-119.2c-26.7-21.2-47.6-47.3-53.6-82.5c-6.2-36.5,5-53,40.8-61
			c66.7-15,131.7-33.6,186.5-77.9c65.5-52.9,98.2-125.8,126.3-201.7c18.6-50.1,36.3-100.6,52.9-151.4c39.4-120,120.8-201,233.5-253
			c16.5-7.6,27.2-13.4,25-35.8c-2.3-23.4,7.5-46.3,22.9-64.9c19.2-23.2,38.7-46.2,59.4-68.1c28.1-29.8,38.6-63.7,32.4-104.3
			c-5.9-38.6-17.5-76.1-18.2-115.6c-0.8-39.6,3.9-77.9,22.3-113.5c21.1-40.8,56.5-62.2,100.4-70.4c13.3-2.5,23.1-2.9,20.7-21.7
			c-14-110.7,35.2-176,143.8-193.2c62.8-9.9,125.1-5.3,186,10.4c112,28.8,181.8,135.2,175.8,261.3c-4.9,103-49.2,191.7-99.7,277.7
			c-70.1,119.2-132.9,239-119.5,384.9c5.6,60.7,8.2,122.7-3.4,183.8c-25.2,133-101.9,193.4-237.5,186.3
			C1844.8,2351.3,1833.6,2350.7,1822.5,2350.1z M1744.7,2188.8c2,27.8,3.9,55.7,6.2,83.5c1.1,13.4,5.3,22.3,22.4,22
			c42.4-0.8,84.9,2.3,127.2,0.3c63.2-3,105.9-34.7,126.8-96.1c19.2-56.4,17.6-114.2,16.2-172.3c-1.4-61.4-5.8-122.7,4.4-183.9
			c14-84.4,55.4-157,96.1-230.2c44.8-80.8,96.6-159.1,111.2-252.8c12.8-82,2.2-159.8-66-216.8c-62.5-52.3-218-58.7-287.7-15.5
			c-19.5,12.1-35.9,27.1-42.9,49.6c-9.5,30.7,3.1,47.4,34.5,44.7c47.9-4.1,95.8-8.2,143.8-6.8c47.3,1.4,77.2,29.4,81.4,76.2
			c8.5,94.4-5.5,184.8-49.7,269.4c-17.7,33.8-32.1,68.5-40.9,105.7c-16.1,67.9-19.1,137-18.6,206.3c0.2,23-12,24.9-29.5,25.2
			c-16.5,0.3-28.6-1.4-28-22.7c3.4-117.6,8.3-234.4,67.5-341.2c39.6-71.4,49.2-149.8,45.1-230.3c-1.1-21.1-10.6-36-32.8-33.2
			c-66.6,8.3-139.2-14.8-198,36.9c-5.5,4.8-14.3,6.1-21.8,8.2c-67.9,19.1-87.9,45.6-89.5,116.8c-0.9,39.7,11.6,77.1,17.6,115.6
			c9.6,61.3-3.6,115.1-48.4,159.9c-16.6,16.5-32.9,33.6-47,52.2c-30.2,39.8-22.9,62.3,24,80.4c83.2,32.2,109.7,77.4,98.5,166.3
			C1759.2,2066.9,1743.9,2126.8,1744.7,2188.8z M1709,2010.4c-14.3,7.2-24.3,11.7-33.7,17.2c-102.2,58.9-177.2,142.1-219,252.8
			c-61.7,163.6-171.8,287.6-311.7,388c-9.5,6.8-22.1,10.8-26.1,23.8c132.4,72.4,364.1,51.7,408.1-170.4
			c18.8-95.1,59.9-172.4,155.3-210c16.8-6.6,15.7-19,14-32.9c-5.4-43.3-9.6-86.7-5-130.2C1695.4,2104.5,1702.3,2060.5,1709,2010.4z
			 M1708.3,1939.6c-4.3-12.8-11.8-23.8-23.7-31c-23.9-14.4-52.6-18.4-75.7-34.9c-5.7-4.1-12.7,0.4-19,3
			c-101.4,41.6-178.6,107.4-218.7,212.7c-31.7,83.3-54.7,169.8-93.2,250.7c-48.5,101.7-122.3,174.6-230.8,209.6
			c-22.3,7.2-44.9,13.3-67.5,19.4c-9,2.4-18.1,3-13.7,16.7c4.9,15.2,69.6,71.1,85.9,71.9c6,0.3,12.9-2.9,18.2-6.3
			c134.2-89.1,248.8-195.9,314.8-347c21.8-50,40.7-101.4,71.5-147.2c58.8-87.3,136-153,230.3-199.2
			C1694.8,1953.9,1707.1,1953.4,1708.3,1939.6z"/>
		<path class="st0" d="M1400.6,570.7c160.6,6.1,290.8,92.8,381.5,244.6c8.5,14.2,9.7,24.4-8.6,30.4c-14.7,4.7-27.4,22.6-42.5-4
			c-60.2-105.5-146.9-178-267.6-205.5c-100.6-23-195.4-4.4-284.1,44.5c-28.2,15.5-27.2-7.8-36.8-18.7c-12.6-14.3-5.7-22.1,8.6-30
			C1222.9,592.1,1299.4,571.3,1400.6,570.7z"/>
		<path class="st0" d="M1526.9,1130c-205.1-0.4-368.1-58.5-512.7-169.4c-24.1-18.5-21.5-43,5.2-57.7c12.9-7.1,18.1,5,25.1,10.4
			c139,107.7,296,162.3,472.2,161.1c40.3-0.3,80.4-3.8,119.7-12.2c22.2-4.7,29.1,3.2,33.3,23.9c4.2,20.6,0.7,28.9-21.5,32.1
			C1600.4,1125.2,1552.9,1130.6,1526.9,1130z"/>
	</g>
</g>
</svg>
