<?xml version="1.0" encoding="utf-8"?>
<!-- Generator: Adobe Illustrator 23.0.0, SVG Export Plug-In . SVG Version: 6.00 Build 0)  -->
<svg version="1.0" xmlns="http://www.w3.org/2000/svg" xmlns:xlink="http://www.w3.org/1999/xlink" x="0px" y="0px"
	 viewBox="0 0 3000 3000" style="enable-background:new 0 0 3000 3000;" xml:space="preserve">
<style type="text/css">
	.st0{stroke:#000000;stroke-width:10;stroke-miterlimit:10;}
</style>
<g id="Layer_1">
</g>
<g id="Layer_2">
	<g>
		<path class="st0" d="M2440.8,2179.7c69.2-3.9,128,1.3,185.1,19.7c144.7,46.7,242.7,160.6,248.2,288.1
			c6.2,143.7-86.4,285.3-224.8,342.5c-91.1,37.7-183.9,39.6-274.7,2c-38.2-15.8-73-21.9-114.4-15.7
			c-171.1,25.6-344.1,29.9-516.6,36.9c-199.1,8-398.3,20.4-597.8,13.1c-123.7-4.5-247.1-13.3-368.1-41.3
			c-18.8-4.3-29.1,0.7-41.2,15.2c-131.9,157.7-350.3,172-496.9,33.3c-90.2-85.4-115.5-196.7-70.5-314.2
			c37.2-97,105-166.6,195.6-215.3c9-4.8,18.1-9.3,29.7-15.3c-17.5-8.2-33.2-15.1-48.4-22.8C277.3,2271,235.8,2217,228,2138.7
			c-17.8-178.1-30.4-356.6-30.8-535.5c-0.3-121.1,23.7-239.6,50.4-357.3c7.9-35,10.6-70.7,12.2-106.4c0.6-13-0.6-26-13.4-31.7
			c-52-23.4-68-69.2-71.4-119.7c-4.6-69.2-12.5-138.4-5.7-208.1c9.7-98.7,61-168.4,149-208.9c37.9-17.4,52-36.9,54.1-80.2
			c8.4-174.2,89.7-302.5,253.1-373.1C677.9,95,733.4,85.9,789.7,82.7c108.9-6.2,214,10.7,312.6,58.7
			c81,39.4,139.7,101.7,176.6,186.7c15.3-24.4,29.2-45.8,42.3-67.6c51.6-86,125.1-133.4,227.3-138.9c71.8-3.9,143.5-13.4,214.6-24.7
			c36.7-5.8,72-20.9,107.9-32.1c15.6-4.9,30.6-11.8,46.5-15.4c45.2-10.3,68,5.4,75.2,51.1c2.3,14.7,2.7,29.8,4.3,48.1
			c41.8-26.4,81.9-50.1,125.9-66.3c257.3-94.7,542.7,26.8,629.6,274.4c67,190.8,27.4,364.6-106.6,515.9c-14.6,16.5-19,25.3-1.5,43.4
			c65.6,67.6,95,150.7,99.7,244.1c8.9,179.9,7.7,359.7,1.7,539.7c-3.3,98.3-49,174.5-108.1,247.3
			C2575.4,2023.7,2517,2103.5,2440.8,2179.7z M2694.4,1436.1c0-80.8,1.8-161.6-0.5-242.3c-2.1-72.8-8.8-145.4-57-206
			c-73.2-92.1-161.6-167.2-258.6-232.8c-16.7-11.3-21.1-6.1-24,11.7c-11.8,71.7-28.3,142.2-57.1,209.3
			c-33.9,79.3-74.7,154.7-129.9,221.2c-70.6,85.1-164.5,128.6-271.4,147.6c-13.2,2.3-30.5,0.7-26.5,23.8
			c5.9,33.7,0.2,67.6-3.8,100.8c-12.1,99.6-52.9,183.1-139.3,241.2c-132.9,89.3-279.7,99.3-432.1,79.6c-28.9-3.7-50.2,9.7-53.7,41.1
			c-4.9,44.8-4.3,89.8-1.7,134.8c1,17.5,7.4,21.8,24.5,20.6c79.5-5.8,159.1-11.5,238.7-15c76-3.3,138.8-32.9,195.9-82.6
			c116.6-101.6,248.3-175.4,402.2-204.6c75.8-14.4,144.6,27.9,165.1,102.4c13.4,48.8,4.7,95.5-15.1,140.4
			c-43,98-121.2,156.1-221.5,182.8c-96.1,25.7-110.9,110.5-104.4,179.8c1.5,16.3,6.7,23,24.9,20.6c34.4-4.6,69.1-6.7,103.8-9.4
			c125.1-9.5,237.1-50,329.8-137.6c107.6-101.8,194.6-220.5,280.3-340.1c17.4-24.3,22.6-54.3,26-84.1
			C2700.8,1638.6,2700.2,1537.4,2694.4,1436.1z M949.1,982.5c-24.4,22.9-36.3,49.8-40.8,79.5c-19.5,127.6,0.8,249.9,47.5,369.4
			c11.4,29.3,21.4,35,51.3,22.4c180.1-76.2,367.3-124,563.1-135.9c90.8-5.5,181.8-8.8,272.3-17.4c120.3-11.4,226.9-53.4,301.1-155
			c87.9-120.1,142.3-254.1,163.4-401.7c2.6-18-2.8-26.2-19.6-30.8c-31.5-8.7-62.9-17-95.7-20.6c-58.9-6.4-58.1-6.8-76.5,50
			c-64.3,198.7-186.8,343-393.6,397.3c-144.6,38-293.9,50.8-443.8,44.9c-97.7-3.9-181.8-42.7-252.8-109.8
			C996.6,1048.1,974.1,1016.5,949.1,982.5z M537,2909.9c-31.6-27.4-58.4-49.4-76.6-79.8c-66.6-111.5-22.6-262.7,97.7-334
			c45.4-26.9,95-42.6,146.1-53.6c207.9-44.9,419.7-51.2,630.9-60.4c290.2-12.7,580.7-8.6,871.1-6.4c80.7,0.6,161.4,5.5,241.4,18.1
			c90.9,14.4,164.1,51.4,188.6,149.3c8.5,34,10.7,68.3,6.7,103.4c-5.5,47.6-18,93.4-35.1,144.4c58.5-20.1,102.3-51.5,139.1-93.3
			c107.8-122.6,102.2-282.9-15-381.8c-80.6-68-175.6-93.3-279.9-85c-49.5,3.9-95.3,16.9-137.6,45.8c-45.8,31.4-98.4,49.7-153,59.9
			c-96.2,18-193.5,25.3-291.2,30.3c-148.3,7.6-296.5,2.3-444.6-4.4c-104-4.7-208.5-6.2-311.5-24c-59.1-10.2-117.6-22.6-178.4-17.8
			c-25.6,2-51.6-5.9-70.4-24.9c-13.5-13.6-24-12.9-39.8-4.6c-82.2,43-169.9,64.8-262.8,60.1c-122.5-6.2-218.3,45.5-294,136.6
			c-116.5,140.3-85,311.7,70.1,393.9C399.6,2913.9,463.3,2924.7,537,2909.9z M1540.7,2314.7c88.9,1.3,177.8,6.5,266.7,2.5
			c63.4-2.9,63.4-2.8,64.8-66.5c2.1-96.7,45.3-156,136.9-188.1c18.3-6.4,37-11.9,54.6-19.7c85.3-37.8,140.8-100.7,155-194.4
			c11.5-75.6-40.4-125.4-115.2-111.8c-142.9,26.1-262.6,98.2-371.5,190.6c-30.6,25.9-61.2,51.5-98.9,65.8
			c-19.8,7.5-24.6,16.5-21,38.1c8.8,53-17.2,102.1-62.2,126.2c-55.8,30-125.3,27.2-164.1-7.8c-28-25.3-46.2-57.1-54.1-94.1
			c-2.9-13.6-6.7-21.4-23.7-20.4c-39.7,2.3-79.6,2.4-119.5,2.9c-11.7,0.2-20.5-0.7-22.9,16.1c-14.9,103.8-131.9,182.6-244.8,105.8
			c-12.2-8.3-45.1,4-47.9,16.9c-11,50.1,24.4,95.1,77,93.5c49.1-1.5,97.2-2.3,144.9,13.2c22.9,7.4,48,8.9,72.3,11
			C1291.6,2305,1416,2312.6,1540.7,2314.7z M1170.1,2547.8c0,2.1,0,4.1,0,6.2c-93,0-186-2.1-278.8,0.7c-65.1,2-130.8,5.8-192.4,31.3
			c-17.9,7.4-35.4,17-41,38.3c-14,53.2-3.6,100.4,50.5,125.8c15.6,7.3,32,13.5,48.7,17.6c187.1,45.9,377.8,50.2,569,49.5
			c14.1,0,22.3-7,31.1-16c61.7-63.9,102-139.1,123.6-225.4c6.1-24.2,1.5-28.9-22.7-28.5C1362.1,2548.6,1266.1,2547.8,1170.1,2547.8z
			 M2405,2788.4c42.8,16.3,82.2,19.2,122.4,18c14.6-0.4,21.5-6.2,26.6-19.4c15.9-41.1,29.1-83,35.5-126.6
			c20-134.8-29.9-199.5-165.3-217.9c-118.9-16.1-238.6-17.4-358.2-17.9c-272.1-1.1-544.2-1.3-816.1,12.6
			c-168.5,8.6-337.1,16.4-503.2,48.6c-67.3,13-134.1,29.1-189.5,73.3c-94.6,75.4-105.2,209.7-18.6,283.4
			c68.9,58.6,57.6,52.6,123.7,1.3c6.4-5,11.6-11.6,17.9-16.7c18.4-15,20.3-23.4-4.7-36.7c-57.6-30.7-78-83.5-73.5-146.6
			c4.4-61.1,40.7-95.9,96.7-112.7c20.5-6.1,41.4-11.5,62.5-14.9c121.8-19.6,244.8-15,367.4-16.9c140.1-2.2,280.4,0.1,420.4-4.5
			c210.5-7,420.9-22.1,631.7-14.7c77.5,2.7,155.7,7.8,227.8,41.1c86.5,39.9,112.2,163.4,49.3,230.6
			C2444,2766.9,2425.1,2774.7,2405,2788.4z M2299.7,102.4c-103.9,0.1-202.2,33.9-281.8,96.3c-13.3,10.4-23.9,20.4-22.4,40.1
			c2.8,39.3-17.4,65.7-51.9,82.4c-11.9,5.8-23.5,11.3-31.3,23.4c-55,85.6-70.1,177.2-42.9,275.6c2.8,10.1,5.7,18.8,19.9,18
			c33.6-2,67.3-2.7,101-3.7c11.5-0.3,14.2-5.5,10.3-15.7c-3.2-8.6-6.5-17.2-9.1-26c-46.1-152.9,18.3-307.2,150.6-360.4
			c136.7-55.1,316.5-6.7,407.5,109.6c92.2,117.9,96,282,9.8,422.6c-27.2,44.3-26.6,43.7,13.5,79.9c12.6,11.4,18.9,12.2,31.4-0.3
			c121.5-121.7,161.9-322.9,96.1-484C2635.7,202.3,2480,102.2,2299.7,102.4z M535.7,1259.2c1.5-10.5,2.5-14.3,2.6-18.2
			c3.8-216.7,7.3-433.3,11.6-650c0.4-19.1-7.9-20.9-23.5-21.9c-83.8-5.5-156.9,24.4-223.9,69.8c-47.7,32.3-76.6,79.4-81.3,138.1
			c-5.7,71.5-1.9,143,5.9,214.2c2.2,20.1,3.8,45.9,21.3,55.5c43,23.5,67.7,68.7,119.1,84.6C434.5,1152.1,485.7,1202.2,535.7,1259.2z
			 M258.1,1844.6c0,12.8-0.5,22.9,0.1,33c5.3,88.7,13.4,177.1,23.2,265.4c5.9,53.2,34.2,88.3,79.1,112.3
			c17.9,9.6,36.8,18.1,56.3,23.6c132.9,37.7,261.8,29,387-32.7c27.5-13.5,28.6-29.4,19.6-53.3c-5.7-15.1-17.5-21.9-31.4-26.6
			c-41.5-13.9-60.3-45.3-60.8-86.3c-0.9-72.9-11.1-146.8,20.1-221.5c-22.1,5-39.5,9.3-57.1,12.9c-58.6,12-58.6,11.9-61.5,71.2
			c-2,40.8-12,78.7-42.5,108.1c-27.8,26.8-61.5,32.5-96.3,19.3c-33.4-12.7-46.1-41.3-46.7-75.8c-0.6-29.7,0.9-59.2,5.1-88.6
			c1.2-8.4,5-19.6-9.7-21C380.5,1878.7,320.3,1863.2,258.1,1844.6z M589,1216.7c58.5-69.5,130.6-103.9,203-136.1
			c41.8-18.6,77.4-37.6,83.8-87.8c0.6-4.8,4.3-9.2,6.1-14c32.6-86.3,59.3-173.9,51.6-267.9c-5.6-68-34.1-99.5-101.1-109.4
			c-60.5-8.9-121.3-15.9-182-23.4c-46.8-5.7-47.9-5.5-49,41C596.9,815.3,593.2,1011.3,589,1216.7z M1721.3,2800.2
			c7.7,0.5,12.5,1.3,17.3,1c111.3-5.3,222.6-9.1,333.7-16.6c98.7-6.7,197.8-13.3,293.6-41.1c78-22.6,97.2-74.7,56.4-145.1
			c-11.2-19.3-28.4-28.8-47.4-36.5c-26.6-10.8-54.8-16.5-83.1-20.3c-162-21.8-324.4-11.1-486.7-6.7c-15.1,0.4-19.6,6.7-18.8,20.5
			c1.8,30.9-5.2,60.9-9.9,91.1C1768.1,2700.4,1745.1,2749.2,1721.3,2800.2z M831.2,132.4c-18,0.8-36.4,1.2-54.7,2.5
			c-208.2,14.1-347,158.3-353.8,366.5c-0.6,19.2,0.5,27.4,24.2,22.3c26.7-5.6,54.9-6,82.3-5.5c18.4,0.4,26.5-3.6,31.4-23
			c17.4-68.3,55-124.7,108.5-170.4c126.6-108.2,295.9-96.2,397.4,28.9c39.6,48.7,62.5,104.9,69.9,167.3c1.5,12.5-1.1,29,20.7,24.5
			c25.2-5.2,50.6-6.8,76.3-5c11.9,0.9,16.6-4.9,17.9-15.7c13.7-115.1-17.5-235-128.7-311.6C1035.2,152.9,935.2,135.9,831.2,132.4z
			 M1096.5,1471.7c-36.4,15.2-69.9,29.9-104.1,43c-14.3,5.5-24,14.5-32.1,26.8c-25.6,38.5-40.2,80.2-38.1,126.8
			c2.1,45.6-15.5,83.6-45.3,116.8c-11.6,12.9-23.4,25.8-36,37.7c-44.1,41.2-59.6,93.2-61.6,151.7c-0.7,21.8,5.3,27.9,27.2,25.9
			c119.1-11.1,238.4-16.9,358-12.7c19.9,0.7,24.5-6,22.6-24.5c-4.7-45.9-2.9-91.9,2.5-137.7c2.3-19.7,6.1-39.7,21.7-52.7
			c51.4-42.8,37.9-95.5,20.5-146c-15.4-44.9-54.6-58.7-99.6-40.2c-58.3,23.9-112.4,53-146.1,110.5c-13.9,23.6-31,1.3-45.1-3.4
			c-16.3-5.3-1.1-15.5,1.7-21.1c23.7-47.7,62-83.2,109.5-103.1c43.5-18.2,53.7-46,46.5-87.2
			C1098.3,1480.3,1097.9,1478.3,1096.5,1471.7z M1910,684.6c0,1.1,0,2.1,0,3.2c-49,2.4-97.9,6.1-146.9,6.7
			c-26.9,0.3-42.1,12.1-55.3,34.5c-63,107.2-89.3,222.3-81.4,346.3c1.7,26.7,10.2,32.7,35.4,27.5
			c220.7-45.2,348.6-186.2,410.9-395.7c5.6-18.9-1-23.1-18.7-22.8C2006,685.1,1958,684.6,1910,684.6z M1489.1,730.1
			c-9.2,1.4-15,2.1-20.8,3.3c-152.4,31.2-288.4,100.2-418.9,181.9c-63.1,39.5-63,39.1-14.4,95.9c88.4,103.1,204.1,132.3,333.9,124.1
			c18.5-1.2,16.8-13.8,18.3-25.8c8-61.7,20.4-122.5,35.9-182.9C1440.2,860.7,1463.8,797,1489.1,730.1z M1945.6,223
			c0.1-47.2,0-47.4-40.3-38.3c-101,22.9-197.8,57.5-290.4,103.9c-122.6,61.5-208.2,158.8-270,279.3c-5.2,10.1-6.9,18.1,1.4,27.5
			c22.1,25,35.6,54.6,43.6,86.7c2.9,11.6,6.8,16.3,20.9,12.8c38.6-9.7,77.6-18.2,116.8-24.7c17.7-2.9,17.9-10.3,15.9-24.7
			c-4.8-34.5-5-69.3-2.4-104.1c7-93.7,47.6-145.6,136.9-174.2c76.8-24.6,153-50.5,226.7-83.8C1934.7,269.7,1952.3,252.6,1945.6,223z
			 M849.7,1109.2c-64.4,30.2-125.1,56.8-177.9,97.2c-54.5,41.7-76.7,98.9-71.7,166.7c3.4,46.8,10,93.3,7.9,140.5
			c-1.7,37.4-0.7,38.2,35.3,31.8c100.2-17.6,174.3-75.3,234.4-154.3c5.9-7.7,5.4-14.2,2.9-22.5
			C856.1,1285.9,845.6,1201.3,849.7,1109.2z M2056.4,609.1c0-11,0.2-19.8,0-28.5c-2.6-128.5,74.8-226.3,200.1-252.7
			c117.9-24.8,207.4,45.6,211.7,166c2.5,71.1-18.2,135.2-58.2,192.9c-10.8,15.6-10.7,22.7,6.3,32.5c21.1,12.2,40.7,27.3,59.8,42.6
			c11.2,8.9,17.6,9.4,26.1-3.3c56-83.2,81.9-173.3,60.3-273.1c-38.6-178.3-244.3-269-405.6-203.3
			C2040.3,329.6,1988,501.2,2056.4,609.1z M2418,514.5c0-96.2-48.6-146-129.7-139.9c-119.5,9-201,117.9-177,235
			c3.7,18,11.2,26.2,29.9,26.9c66.7,2.5,131.7,14.4,193.6,39.9c11.7,4.8,18.3,2.9,25.6-7.1C2395.7,621.1,2415.5,567.6,2418,514.5z
			 M1614.5,1365.9c-29.7,2.2-63.3,5.1-96.9,6.9c-12.9,0.7-19.9,5.7-24.7,17.9c-39.5,101.2-102.3,185.5-186.3,254
			c-6.2,5.1-14.6,9.8-10.8,19.6c4.1,10.9,14,5.8,21.3,5.4c81.9-4.6,161.8-20.8,240.2-44.1c29.1-8.6,53.1-26.2,72.1-49.8
			c46.2-57.5,67.1-125.1,78.5-196.6c2.4-14.8-3.2-17.6-16-16.8C1667.5,1363.9,1642.9,1364.7,1614.5,1365.9z M863.9,302.8
			c-112.3-0.4-226.8,90.6-253.4,200.6c-3,12.3-3,19.3,11.8,20.7c28.4,2.7,56.8,5.9,85.2,9.4c14.1,1.8,18.1-4.8,17.1-17.5
			c-0.6-8.1-0.1-16.3-0.1-24.5c0-68.3,13.3-84.6,80.6-99.2c57.5-12.4,103.2,17.4,116.2,74.9c5.8,25.6,3,51-1.1,76.1
			c-7.4,45.4,17.9,66.6,61.8,51c16.3-5.8,32.7-11.6,49.2-16.9c65.2-20.7,65.2-20.6,47.8-88.1C1050.7,379.8,962.4,303.1,863.9,302.8z
			 M253.4,1654.6c-1.8,3.5-3.4,5.3-3.4,7c0.6,31.7,3,63.4,1.8,95c-0.9,23.6,8.5,34.1,30.2,41.2c170.1,55.1,339.2,53.9,507.4-7.6
			c51.2-18.7,86.3-79.2,79.9-134.9C663.8,1736.5,458.3,1777.4,253.4,1654.6z M962.2,906.7c6.9-2.6,10-3.2,12.5-4.7
			c113.1-71.6,227.5-140.7,355.6-183.2c11.1-3.7,13.4-8.4,11.4-20c-12.6-70.2-68.9-114.1-140.7-107.4c-72.7,6.7-141.1,31-209.9,53.6
			c-13.7,4.5-16.8,12-13.2,25.3c10.7,40.1,10.1,80.6,5.8,121.6C979.7,829.3,970,865.7,962.2,906.7z M557.6,1486.9
			c9.5-165.4-124-277.6-228.9-318.2c-16.1-6.2-19.9,0.5-20.8,14.5c-3.2,53.1-15.7,104.7-26.9,156.3c-3.4,15.5-1.5,26.9,7.1,39.6
			c50.2,74.7,118.4,127.2,203.4,153.9C565.6,1556.4,551.3,1555.8,557.6,1486.9z M263.7,1437.2c-8.4,47.6-11.6,91.1-13.8,134.9
			c-0.7,13.8,8.3,20.1,17.3,26.6c40,28.8,83,51.9,130.9,64.8c108.9,29.5,217.3,18.7,323.3-11.4c75.5-21.4,154.7-37.3,191.9-126.4
			c15.1-36.3,2-54.7-7.6-83.5C720.1,1660.2,447.4,1646.2,263.7,1437.2z M1840.4,367.4c-60.1,20-113.9,37.7-167.7,55.8
			c-40.2,13.5-63.8,42.4-74,82.7c-11.2,44.2-10.5,88.7-4.2,133.6c1.9,13.5,5.7,19.5,20.8,17.7c61.8-7.3,123.7-13.3,185.9-14.6
			c15.8-0.3,19-7.5,15.5-21.1C1794.9,536.5,1803.1,453.8,1840.4,367.4z M1306.9,527.3c3.8-5.8,8-11.3,11.4-17.3
			c75.6-134.9,184.3-232,326.9-292.7c89.6-38.2,181.1-69,276.5-88.1c14.3-2.9,24.5-6.9,18.6-23.3c-5.6-15.8-16.3-5.8-24.9-2.8
			c-18.3,6.3-36.3,13.4-54.6,19.5c-94.8,31.8-194.6,34.5-292.3,48.7c-62.8,9.1-126.3,13.2-169.8,70c-36.2,47.2-67.7,97-92.8,150.9
			c-4.1,8.9-5.4,17.6-4.1,26.7C1307,454.5,1307.6,490.1,1306.9,527.3z M1662.7,702.7c-36.4,5-65.6,9.4-94.8,12.8
			c-12.9,1.5-19,8.5-24,19.8c-52.6,120.3-87.3,245.6-105.7,375.6c-2.4,16.7,4.2,19.4,18.1,17.8c29.4-3.5,58.8-9.1,88.2-9.1
			c31.6,0,35.8-14,32.5-41.2c-9.7-80.1,1.5-158.6,24.3-235.6C1615.3,795.9,1637.1,752.3,1662.7,702.7z M1383.4,1746.8
			c103.2,6.1,203.3-9.7,292-63.2c119.4-72,148-171.7,142.6-312.7c-0.5-12.5-6.2-14.5-17.3-14.7c-35-0.6-38.6,2.4-44.6,44.4
			c-25.6,179.1-105.1,263.6-281.4,299c-50.1,10.1-100.6,17.5-151.6,21.9c-9.5,0.8-27.1-4.9-27.1,11.4c-0.1,18.5,17.1,7.8,26.2,9.1
			C1342.4,1744.9,1363,1745.4,1383.4,1746.8z M1570.6,2808.7c22.2-1.5,38.7-5.1,54.4-3c27.5,3.7,39.7-10.7,51.3-32.2
			c29.8-55.6,49-114.2,55.9-176.8c6.8-60.9,0.7-66.5-60.1-55.6c-7.9,1.4-13.2,3.3-14.3,12.3C1647,2642.3,1617.1,2725,1570.6,2808.7z
			 M1413.8,2815.6c25.5-1.4,42.8-4.4,59.8-2.9c27.4,2.3,41.7-10.7,54.4-33.5c32.6-58.3,57.5-119.2,70.7-184.6
			c12.7-62.5,13.2-48.3-40.6-47.8c-15.4,0.1-21.3,5.3-23.6,20.4c-3,19-8.2,37.8-14,56.2C1498.8,2691.8,1466.1,2754.5,1413.8,2815.6z
			 M1463.7,2125.6c15-2,31.2-1.8,47-7.3c37.9-13.1,56.5-43.7,50.1-83c-1.6-10.1-3.3-17.3-16.1-16.2c-50.6,4.3-101.3,8-151.9,12
			c-6.1,0.5-11,1-11.8,9.9C1378,2075.2,1426.8,2126.3,1463.7,2125.6z M1114.7,2037.8c-27.7,0-55.2,1.6-82.6-0.4
			c-37.5-2.7-68.8,1-73,48c-0.4,4.8-3.5,9.6-6.4,13.7c-9.1,13-2.8,18.6,8.9,25.3C1029.5,2163,1105.9,2121,1114.7,2037.8z
			 M1280.7,1599.3c69.3-57.4,121.5-127.1,158.9-212.7c-29-1.4-50.4,6.5-72.3,9.3c-15.3,2-21,9.6-23.7,25.5
			c-7.9,46.2-27.6,88.5-63.4,118.9C1253.5,1562.9,1255.7,1579,1280.7,1599.3z M1152,1491.2c4.5,10.6-8.7,31.3,7.6,33.9
			c18.7,2.9,39.1,13.6,58.8,0.8c33.8-22.1,55.8-53.2,69.2-90.6c5.3-14.8,3.2-23.8-16.4-17.7c-27.2,8.5-54.5,16.8-82.3,23.2
			C1161.7,1447.1,1142.8,1457.7,1152,1491.2z M497.3,1971.4c1.4,20.6-5.8,45.4,22.8,53.4c20.3,5.7,43.6-12.7,53.3-40.9
			c9.1-26.3,10-53.8,10-81.4c0-12.8-5.8-14.2-16.9-14.5c-59.9-1.7-60-2-66.9,56.1C498.6,1953.2,498.1,1962.3,497.3,1971.4z
			 M775.2,497.8c0.3,44.9,16.4,58.5,76.2,53.4c29.8-2.5,19.5-32.7,20.6-51c2.4-37.8-16.3-60.8-44.3-60.2
			C788,440.8,775,455.1,775.2,497.8z M917.5,2043.4c-41.5,2.7-80.8,5.2-120,7.8c-7.6,0.5-15.1,2.5-14.8,11.6
			c0.6,15.9-3.6,35,11.3,45.5c15.8,11.1,33.4,25.4,55,17C885.2,2111.4,909,2085.8,917.5,2043.4z"/>
		<path class="st0" d="M2470.2,1219.7c49.7,2,69.4,23.8,65.4,65.5c-4,41.5-19.9,79.7-42.5,113.6c-51.6,77.5-111.7,148.2-183.5,208.1
			c-22.8,19-49.4,28.4-79.5,24.8c-48.2-5.7-71.8-36.7-65.2-84.8c5.4-39.2,21.4-74.5,41.7-107.6c49.3-80.3,112.4-147.4,193.6-196.2
			C2424.1,1228.7,2449.9,1219.3,2470.2,1219.7z M2467.7,1270.7c-15.6,1.7-33.1,10.4-49.2,21c-75.5,49.9-136.3,113.7-178.9,194
			c-9,17-15.7,35.5-21.1,54c-3.5,12-9.9,27.1,4.3,36.5c13.7,9.1,29.2,8.8,42.9-1.3c13.1-9.6,26.2-19.6,38.1-30.7
			c48-44.7,88.2-96.4,129.6-147.1c26-31.9,39.1-68.2,49.8-106.5C2485.9,1280.8,2489.9,1269.6,2467.7,1270.7z"/>
		<path class="st0" d="M2181.7,1265.5c39.1,1.3,71.5,35.8,70,74.4c-1.6,39.2-36.3,71.1-75.2,69.1c-38.3-2-69.2-34.7-68.4-72.8
			C2108.8,1297,2142.9,1264.2,2181.7,1265.5z"/>
		<path class="st0" d="M2518,1592.5c-39.9,0.1-71.7-32.2-71.1-72.3c0.5-38.3,31.9-70.2,69.9-70.9c38.6-0.8,73.2,32.7,73.5,71.2
			C2590.5,1559.7,2557.7,1592.4,2518,1592.5z"/>
	</g>
</g>
</svg>
