<?xml version="1.0" encoding="utf-8"?>
<!-- Generator: Adobe Illustrator 23.0.0, SVG Export Plug-In . SVG Version: 6.00 Build 0)  -->
<svg version="1.0" xmlns="http://www.w3.org/2000/svg" xmlns:xlink="http://www.w3.org/1999/xlink" x="0px" y="0px"
	 viewBox="0 0 3000 3000" style="enable-background:new 0 0 3000 3000;" xml:space="preserve">
<style type="text/css">
	.st0{stroke:#000000;stroke-width:10;stroke-miterlimit:10;}
</style>
<g id="Layer_1">
</g>
<g id="Layer_2">
	<g>
		<path class="st0" d="M2950.5,764.9c-3.5,98.2,2.5,231.2-18.4,362.9c-7.3,45.7-17.5,90.7-38,132.4c-7.9,16.1-5.4,25.9,5.7,39.5
			c117.4,144.3,102.3,332.2-37.1,456.1c-15.4,13.7-12.4,21.9-4.3,36.9c60.2,111.5,65.1,222.1-10.1,329.4
			c-14.2,20.2-42.6,36.4-45.2,56.9c-2.5,19.1,23.2,40.4,32.2,62.5c41.9,103.9,39.7,202.1-42.8,287.7c-9.4,9.8-10.2,21-11.5,33
			c-6.5,60.9-24.6,117.8-60.5,168.2c-58.5,82-152.1,112.5-247.4,79.9c-19.3-6.6-38.3-9.9-58.8-9.6c-344.8,4.7-689.6,9.1-1034.4,13.4
			c-48.2,0.6-96.4,0.5-144.4-5.1c-27.4-3.2-53.9-9.6-72.4-32.1c-10-12.2-22.6-10.5-35.6-11c-90.5-3.6-176.9,18.7-263.7,40.1
			c-86.8,21.4-174.7,22.6-262.5,6.5c-17.6-3.2-36.1-8.3-51.1-17.6c-60.8-37.4-125.8-34.7-192.6-25.7c-43.7,5.9-87.3,11.9-132,5.9
			c-120.2-16.3-161.9-93.7-159.7-199.8c2.4-119.8,48.8-218.1,149.4-287.5c8.9-6.2,13.5-10.2,3.2-20c-52.3-49.8-59-114.7-55.9-181.1
			c3.4-71.2,9.4-142.5,35.6-210.1c3-7.6,4.4-14.7-0.2-22.8c-42-74.6-37.6-155.8-26.6-235.5c30-218.5,98.9-425.6,194.4-624
			c11.9-24.8,11.5-30.8-18.7-34.1C248,949.5,180.6,883,167.4,782.2c-18.5-140.1,0.8-272.6,90-388.3
			c102-132.2,249.8-143.2,385.2-69.9c13.2,7.1,18.1,4.8,27.2-2.4c77.4-61.9,168.1-71.1,262.2-64.3c43.7,3.2,87.4,8.8,129.7,21.1
			c9.8,2.8,17.7-1.8,25.9-5.4c151.9-66.9,312.8-95,476.8-107.3c172.8-13,345.5-11.6,517.7,11.1c14.9,2,30.5,2,44.6,6.4
			c86.7,27.1,169.7,0.2,254.1-14.1c144.4-24.4,285.9-12.9,422.9,42c91.8,36.8,134.2,106.3,138.6,202.9
			C2947,519.5,2952.1,625,2950.5,764.9z M2380.5,2747.5c-37.5-98.5-30.1-141.6,39.2-218.9c9.2-10.3,7.3-15.9,0.4-25
			c-17.2-22.8-27.9-48.8-32.1-77.1c-14.8-99.2,23-179.1,93-245.8c15.3-14.6,16.3-22,1.5-37c-25.1-25.5-40.5-57.3-47.6-92.5
			c-21.7-108.2,12.8-200.1,83.4-280.7c12-13.7,14.4-21.7,1.7-36.9c-54.3-65.6-74.4-143.2-75.6-227c-0.3-18.7,13.2-43.7-0.2-54.1
			c-11.6-9-36.3-2-55.2-0.6c-163.4,11.8-259.9-143.8-213.5-286.6c16.4-50.5,49.8-88.8,83-127.9c12.5-14.8,35.9-29.8,27.4-49.7
			c-9.5-22.3-37.5-23.3-60.5-25.7c-7-0.7-14.1-0.4-21.1-0.1c-41.6,2.1-80.3,17-120.1,26.9c-41.6,10.4-81.7,12.1-124.5,1.6
			c-112.7-27.7-217.8-15.2-303.4,73c-53.2,54.9-107.2,108.8-163.6,160.4c-118.3,108.2-245.1,199.2-409.9,208.9
			c36.7,127.2-0.3,246.2-32.8,368.1c19.3,1.7,39.1,3.9,58.9,5.2c95.3,6,190.5,13.4,285.9,16.8c66.9,2.4,111,34.9,141.4,91.2
			c12,22.2,22.1,45.2,26.8,70.1c2.8,15,9.6,19.2,24.9,15.4c38.5-9.8,77.8-9.2,116.9-5.4c84.8,8.2,143.5,60.9,158.1,141.2
			c13.5,73.8,0.6,144.4-31,211c-35,73.7-94,117.2-177,121.6c-60.5,3.2-114.8-16.9-162.2-54.3c-11.4-9-17.6-11.6-28.6,1.7
			c-62.3,75.7-146.1,89.9-237.3,78.5c-20.8-2.6-42.5-9.9-54.5-28.6c-10.2-15.9-22-20.4-39.6-19.5c-11.8,0.6-24.3-1.5-35.7-4.9
			c-20.6-6.2-32.4-1.7-45.9,17.7c-60.3,86.4-143.9,137.4-249.6,143.9c-152,9.3-275.2-90-307.6-244.6c-3.9-18.6-9.6-26.1-30-27.5
			c-54-3.7-108.8-2.8-161.4-17.9c-16.2-4.7-28.6-2.1-42.2,6.3c-110.5,67.9-152.1,169.3-141.6,294.7c5.6,67.3,42.4,102.2,109.5,111.1
			c38.4,5.1,76.4,1.3,114.1-4.4c81.1-12.4,159.9-13.2,233.7,30.9c14.9,8.9,34.1,11.9,51.7,14.8c85.6,13.9,170.6,8.2,253.6-15.7
			c85.7-24.7,172.3-37.3,261.5-33.6c19.4,0.8,35.8,5.4,48.6,19.5c15.4,16.9,34.8,23.4,56.6,23.9c54.1,1.3,108.3,3.2,162.4,2.7
			c309.6-3.2,619.3-7,928.9-10.9C2353,2751.6,2367.3,2754.1,2380.5,2747.5z M854.3,1359.1c-52.3-67.9-56.4-136.4-31.1-208
			c5.4-15.3,1.7-23.2-9.7-33c-43.1-37.1-61.5-85.5-61.1-141.7c0.5-58.8,19-112.5,45.5-164c5-9.8,8.4-25.9,24.6-13
			c11.1,8.8,36.7,9.7,20.6,35.9c-15.3,24.9-24.1,52.8-31.9,81c-30.1,108.3,12.4,182.4,122.6,201.5c129.5,22.4,255.9,7.3,375.6-49.5
			c72.7-34.5,138.9-80.6,208.3-121c84.7-49.4,159.6-108.4,207.8-195.9c12.7-23,24.3-5,36.6-0.3c15.7,5.9,14.6,13.9,6.8,27.2
			c-37.9,64.1-85.6,119.4-147.2,161.3c-85.6,58.1-172.9,113.9-265.1,161c-148.1,75.8-304.1,97.2-467.1,58.8
			c-8.6-2-13.9-4.1-19.2,5.9c-34,63.7-5,158.3,60.5,187.1c29,12.8,60.2,21.6,92.2,25.9c115.7,15.4,215.2-25.6,308.1-88.8
			c100.4-68.3,186.8-152.9,268.6-241.5c80.1-86.7,176-127.3,292.8-119.9c17.8,1.1,16.9-4.5,13.7-18.2c-9.5-41.4-11.8-83.3-8.7-125.8
			c7.6-104.6,29.7-206.5,54.5-308c20.1-82.5,67.1-147.4,133-199.2c17-13.4,35.9-24.5,58.6-39.8c-67.3-12.2-130.4-15.3-192.7-23.5
			c-35-4.6-55.9,3.3-65.1,40.2c-5.2,21-17.3,40.6-28.4,59.7c-57.5,98.6-133.8,175.9-246.2,209.9c-104.6,31.6-188.7-2.5-243.4-97
			c-26.6-45.9-41.5-95.8-47.8-148.1c-2.3-19.4-8.6-27-28.6-20.6c-23.9,7.7-48,14.7-72.5,20.3c-16.9,3.9-17.8,10.5-10.6,24.9
			c24.8,49.9,31.8,103.1,27.6,158.4c-11.7,152.6-135.5,249.3-278.7,215.9c-74.6-17.4-133.9-59.3-175.9-123.2
			c-12.9-19.6-19.6-17.6-34.5-3.3C666,628,593.5,712.5,531.3,805.7c-129.6,194.3-215.5,407.6-273.7,632.8
			c-24.5,94.6-44.4,189.8-41.5,288.3c1.9,62.7,19.9,116.4,77.3,150.7c63.8,38.1,132.8,51.2,205.7,41.2c61.2-8.4,109.3-37.9,138.1-95
			c37.3-74.1,4.1-135.9-78.8-138.3c-32-0.9-30.6-17.8-30.1-37.6c0.6-27.3,21.7-15,33.8-14.1c17.8,1.4,35.9,5.5,52.8,11.6
			c66.5,24.1,97.9,80.7,84.8,150.2C680,1899.5,580.9,1973.2,464,1972.2c-46.2-0.4-91.2-6.7-139.3-22.3
			c19.7,56.2,45.4,101.5,103.8,111.8c84.5,15,171.2,20.1,255.1,5.1c145-25.8,239.3-120.4,301.4-249.2
			c45.7-94.9,59.5-197.3,63.9-301.3c1.5-36-14.8-62-44.2-80.1c-26.8-16.5-56.9-26.2-88-27.4c-61.3-2.3-122.5,0.6-183.3,10.9
			c-70.8,11.9-76,15.8-88.8,86.5c-4.4,24.1-23.5,12.9-35.9,16.1c-15.1,3.8-14.6-8.2-14.5-18.9c0.5-74.6,43.4-121.1,120.5-131.8
			C759.1,1365.4,803.3,1358.7,854.3,1359.1z M243.5,1906.3c-21.2,49.6-36.6,167.1-29.8,227.9c9.4,84,40.7,123.9,124.4,133.8
			c137.2,16.2,275.3,26.7,413.7,20c78.5-3.8,142.4-38.4,188-104.2c13.7-19.8,29.2-38.3,44.4-57.1c37.2-46,82.8-79.5,142.1-89.7
			c56-9.6,112.3-6.2,168,3.8c35.3,6.3,52,25.6,56.9,60.6c9,64.7-13.5,120.8-48.8,172.7c-28.2,41.5-59.1,81.2-87.2,122.9
			c-17.7,26.3-11.4,43.2,19.3,46.9c79.4,9.4,166.7-0.6,213.9-97c31.9-65.2,55.8-133.6,69.1-204.9c14.5-77.1,8.5-152.3-35.7-220.5
			c-19.2-29.7-45.6-46.6-81.8-48.6c-115.4-6.3-230.7-12.5-346-20.6c-21.4-1.5-32.3,3.6-42.2,22.6c-40.5,77.5-99.7,138.4-173.1,185
			c-141.3,89.8-295.2,74.1-446.2,41.3c-75.2-16.3-105-88.1-121.7-159.5C266.8,1924.7,261.4,1911.5,243.5,1906.3z M991.3,316.8
			c-75.4-15.7-144.3-16.1-213.2,3.8c-45,13-82.7,37.4-110,74.9c-39.3,54-86.1,100.7-135,145.7c-13.4,12.3-22.6,22.7-40.9,2.9
			c-17.6-19-9.2-26.6,5.2-39.3c40.7-35.8,80.3-72.9,112.5-117c10.6-14.5,7.9-22.6-7.3-29.3c-113.9-50.6-222.9-41.1-306.6,68
			c-77.6,101.2-94.1,217.3-80.3,339.9c10.1,90.3,68.1,142.6,157.6,147.2c23.4,1.2,37.4-4.9,49.9-27.1
			c105.9-188,241.3-350.6,418.2-476.5C887.8,377,936.7,347.8,991.3,316.8z M2901.2,761c0.8-135.5-4.6-245.9-11.1-356.3
			c-4.3-74.1-40.6-122-108.3-148c-192.2-73.8-383.9-63-573.3,8.7c-114.8,43.5-189.6,125.4-214.3,248.4
			c-13.2,65.9-28.3,131.6-38.7,197.9c-9.5,60.5-15.7,122-0.9,182.7c10.9,44.7,37.3,61.7,82.4,53.1c26.5-5.1,52.4-13.5,78.6-20.3
			c54.9-14.2,109.9-24.9,165.6-4.2c59.9,22.2,75.1,66.2,38.7,118.1c-18.4,26.2-42.1,48.6-61.3,74.3
			c-45.9,61.6-62.2,128.9-26.5,200.5c35,70.2,96.7,94.6,171.1,84.8c80.9-10.6,162.5-8.8,243.5-16.7c91.3-9,158.9-51.4,197.9-136.3
			c19.5-42.4,31.4-86.7,38.6-132.5C2903,989.6,2894.4,862.5,2901.2,761z M2496,1508.4c-1.2,75.8,19,141.2,65.2,196.5
			c44.6,53.4,100.6,85.6,172.4,65.3c94.5-26.7,154.4-92.5,182.6-184.3c27.5-89.6,6.6-172.5-49-247.2c-11.9-16-17.5-3.6-24.5,4.2
			c-40.4,44.7-90.2,72.7-149.2,84.8c-41.5,8.5-83.5,9.9-125.7,11.6C2496.1,1442.3,2499.3,1424,2496,1508.4z M2478.5,1982.9
			c0.2,87.2,35.3,142.9,107.8,174.2c69.9,30.3,142.4,17.1,197.2-37c86.5-85.6,89.4-203.9,27.8-310.2c-9.4-16.2-18.1-6.8-27.3-3
			c-66.4,27.1-131.3,26.4-193.7-11.3c-12.3-7.4-20.4-8.4-30.8,3.2C2510.1,1853.8,2479.8,1916.5,2478.5,1982.9z M2811,2360.4
			c0.1-50.7-16.4-96.1-42.9-138.8c-8.7-14-16.8-18.6-33.9-12c-47.5,18.3-96.1,17.2-144.6,2.2c-57.1-17.6-59.1-16.9-99,30.4
			c-17.6,20.9-31.1,44.3-41.1,69.6c-43.2,109.4,6.3,203.6,121,228.8c29.2,6.4,58.6,7.4,88.7,1.4
			C2752.9,2523.5,2810.8,2455.1,2811,2360.4z M1662.2,2042c-5,0-10-0.1-15,0c-64.6,1.4-68.5,5-73.9,67c-0.5,6-1.7,11.9-2.5,17.9
			c-8.9,72.3-33.4,140-60.3,207c-3.8,9.4-12.7,18.2-0.5,29.3c76.4,69.1,204.3,82.5,266.1-19.9c36.6-60.7,47.9-127.2,37.8-196.6
			c-8.2-55.8-42.4-88.1-97.9-100.2C1698.1,2042.7,1680.3,2041.6,1662.2,2042z M1302.7,2124.6c6.5-26.2-10.4-36.9-39.9-38.5
			c-33.1-1.8-66.2-4.5-99.3-2.3c-53.7,3.6-99,24.1-133.2,66.7c-18.8,23.5-37.2,47.4-56.1,70.9c-6.5,8.1-10.7,16-8.9,27.3
			c12.9,81.3,92.8,148.9,174.4,146.8c10.1-0.3,19.5-0.7,25.7-11.6c28.5-50.9,67.8-94.5,99.3-143.4
			C1286,2207.2,1302.3,2171.8,1302.7,2124.6z M2725.1,2574.2c-84.8,31.6-165.2,30.3-242.4-14.4c-14.4-8.4-22.6-1.7-31.2,7.1
			c-35,36-55.1,77.6-37.7,128.1c17.5,50.9,61.7,69.4,109.5,76.8C2624.3,2787.3,2712.8,2703.5,2725.1,2574.2z M1712.4,294.5
			c-23.5-13.8-48.5-26.8-72.6-26.8c-14.8,0-27.2,25.5-38.2,41.6c-2.2,3.2-5.5,5.7-8.4,8.5c-12,11.8-13.3,20.6,3.1,31.5
			c52.2,34.8,51.8,35.4,87.7-15C1693.2,321.4,1702.4,308.5,1712.4,294.5z M777.7,2413.7c-19.1,20.1-33.3,37-49.6,51.6
			c-15.8,14.1-20.6,29.5-17.7,50.4c3.9,28,19.8,40.9,51.4,37.1c14.8-1.8,40.4-33.5,37.3-48.4C793.3,2476.2,786,2448.3,777.7,2413.7z
			 M823.3,2487.3c23.9-29.2,43.5-53.2,63.1-77.1c4.1-5,6.3-9.8,2.4-16.2c-11.8-19.4-18.9-41.8-36.1-60.1
			c-13.9,14.7-26.8,28.7-40.1,42.2c-7.4,7.5-12.9,14.8-9.9,26.4C809.4,2428.3,815.3,2454.4,823.3,2487.3z M1035.5,499.7
			c-6.9-14.7-11.7-36.4-25.1-49.4c-9.2-9-23.1,9.5-34.9,15.6c-9.7,5-18.3,12.5-28.2,16.9c-16.1,7.3-18.8,15.7-11,32.5
			c21.3,45.8,20.3,46.3,62.1,19.5c9.3-5.9,18.6-11.7,27.9-17.6C1031.4,514.1,1036.8,511,1035.5,499.7z M666.7,2385.5
			c-57.4,30.9-65.8,42.6-58,81.9c4.4,21.7,21.1,39.2,39.1,39.3c12.6,0.1,32.8-18.5,30.3-38.8
			C674.6,2440.6,676.8,2412.2,666.7,2385.5z M907,2428.2c-24.1,29.3-46.7,57.1-69.6,84.6c-7.7,9.2-6.9,18.7-1.2,27.7
			c6,9.6,15,3.1,21.6,1c14.3-4.5,28.2-10.2,41.7-16.7c47.3-22.7,47.2-22.9,23.3-67.8C918.2,2448.2,913.3,2439.6,907,2428.2z
			 M1609.7,257.3c-3.1-2.9-4.9-5-7.1-6.7c-35.3-27.5-69.3-23.7-98.3,10.7c-3.2,3.8-6.3,7.7-9.7,11.4c-3.3,3.6-3.5,7.3,0.5,9.9
			c19.1,12.6,37.1,29.6,58.2,35.8c16.1,4.7,21.5-19.6,32.2-30.4C1594.4,278.9,1601.4,267.9,1609.7,257.3z M1789.8,327.2
			c-1.2-2.2-2.1-4.8-3.8-6.7c-13.9-15.7-48.3-14.3-60.3,2.4c-12.9,17.8-26.3,35.3-38.4,53.7c-5.6,8.4-21,16.3-3.7,29.1
			c13.8,10.2,24.4,13,38-1.2c19.4-20.2,39.7-39.6,56.7-62C1782,337.6,1785.6,332.8,1789.8,327.2z M1471.1,302.1
			c-1.8,0.6-4.2,0.7-5.3,2c-13.8,15.6-32.6,29.5-38.9,47.8c-3.7,10.7,21.7,15.9,33.2,24.6c7.1,5.4,15.5,9,23.2,13.5
			c7.2,4.2,14.6,8.3,20.8-0.8c10.5-15.4,27.3-26.4,31.8-45.7C1536.7,340.1,1475.6,301.9,1471.1,302.1z M1098.1,389.9
			c-0.9,0.4-1.8,0.9-2.7,1.1c-49.3,13.4-64.2,47.7-39.2,90c2.9,4.8,4.9,13,12.4,8.5c19.6-11.7,41.9-21.5,56.5-38
			c10.7-12.1-8-28.4-11.3-43.5c-1-4.8-3.5-9.3-5.9-13.6C1105.9,390.8,1102.7,388.4,1098.1,389.9z M1519.7,411.1
			c21.5,12.8,41.5,24,60.7,36.4c11.4,7.4,19.4,7.7,26.2-5.5c3.6-7,8.6-13.6,13.9-19.3c11.3-12.2,10.9-19.7-4.5-29.7
			c-51.9-33.5-51.5-34.2-91,11.1C1523.8,405.6,1522.7,407.3,1519.7,411.1z M706.8,2449.1c20.1-21.3,36.4-39.9,54.2-57
			c16.8-16.1,5.6-32.8,0.1-46.6c-6.2-15.5-23.4-6.8-34.5-4c-14.9,3.8-33.9,10.3-31.3,29.8C698.6,2395.7,696,2421.2,706.8,2449.1z
			 M992.9,628.8c19.6-12.4,37.4-25.7,56.9-35.4c27.7-13.6,13.7-30.8,5.3-46.4c-11.7-22-21.7,0.4-30.6,4.1
			c-15.4,6.5-28.8,17.7-43.5,26.3c-9.7,5.7-12,12.1-5.9,21.9C981.2,609,982.3,621.7,992.9,628.8z M1773.3,208.9
			c-30.2,0-55.2-0.9-80,0.3c-16.7,0.8-28.1,13-30.4,28c-2.1,13.6,14.5,10.8,22.6,15.3c8.6,4.7,18.9,6.4,27.7,10.9
			c12,6.2,20.3,4.1,27.6-7.4C1750.2,241.1,1760.7,227,1773.3,208.9z M1845.5,221.2c2.1-9.6-0.9-13-6.9-12.7
			c-12.3,0.7-26.3-6.2-36.1,7.1c-10.6,14.5-21.7,28.6-31.1,43.8c-3.9,6.4-17.8,15.4-6.6,21.3c13.5,7.1,32.2,24.8,44.9,11.6
			C1828.6,272.7,1836.9,244.3,1845.5,221.2z M932.2,573.8c0.5-11.1-28.6-61.9-32.5-59.8c-19.2,10.5-39.8,19.5-54.7,35.9
			c-4.5,4.9,42.1,47.2,52.4,45.4C912.3,592.7,924,583.7,932.2,573.8z M1368,269.2c3.3,14.2,6.9,33.9,12.6,53.1
			c4.3,14.6,12.1,18.9,25.9,6.4c45.9-41.5,46.3-41.1-6.1-74.2c-2.5-1.6-4.8-3.6-7.3-5.2c-6.7-4.4-14.1-10.3-21.9-5.3
			C1364.2,248.4,1368.6,256.9,1368,269.2z M921.9,466.9c20-12.3,39.6-26.5,60.9-37c21.2-10.5,11.9-22.9,6-36.4
			c-9.1-21.1-19.7-4.8-28.1-0.3c-17.6,9.4-33.9,21.2-51.1,31.2c-11.1,6.4-8.7,14.5-3.8,22.5C910.2,453.8,909.6,465,921.9,466.9z
			 M1137.6,478.8c-13.4,8.5-26.1,19.1-40.6,25c-31.2,12.6-19.9,32.1-8.7,49.7c14,21.9,22.2-3.2,32.6-6.8c10.2-3.5,18.7-11.6,28.3-17
			c10.4-5.9,10.5-13.8,5.3-22.8C1149.1,497.9,1149.9,485.3,1137.6,478.8z M962.6,2473.3c11-27.2,21.3-48.9,28.4-71.6
			c5.8-18.5-15.8-22.6-22.8-34.8c-2.9-5.1-7.1-3.3-12,0.4c-24.5,18.1-29.6,38.5-15.3,65.7C946.9,2444.5,953.2,2455.9,962.6,2473.3z
			 M919.7,2281c-52.1,29.2-52.9,41.2-5.9,93.4C948.6,2336.8,948.6,2336.8,919.7,2281z M1185.8,399.1c-2.5-10.2-6.3-23.7-8.9-37.4
			c-3.3-17.3-10.4-12.9-22.8-7.7c-38.2,15.9-16.9,38.9-8.4,59.9c2.7,6.7,2,22,14.9,16.9C1172.3,426.1,1188.7,421.8,1185.8,399.1z
			 M827.3,525.4c16.3-10,32.5-21.7,50.3-30.4c22.8-11.1,9.5-24.8,3.4-36.5c-9.6-18.5-18.2-0.9-25.1,3.5c-14.4,9-27.3,20.3-40.9,30.6
			c-5.2,4-8.8,8.1-3.9,14.8C815.7,513.4,817,522.4,827.3,525.4z M1030.5,400.1c18.7-12.1,39.3-24.1,58.1-38.5
			c7.1-5.4-0.4-14.7-3.4-21.8c-3.2-7.4-9.1-6.7-14.9-4c-17.9,8.5-35.6,17.7-53.6,26c-11.1,5.1-7.2,12.5-3.5,19.4
			C1016.9,388.4,1015.9,399.8,1030.5,400.1z M1577,477.1c-23.7-14.2-43.4-27.7-64.6-38.3c-17.9-9-22.4,7.5-30,18.9
			c-11.6,17.3,5.7,16.7,12.1,18.8C1520.1,484.6,1546.3,489.2,1577,477.1z M624.9,2337.1c-9.1,6.3-26.8-7.8-30.5,6.6
			c-3.6,14.4-2,35.4,6.5,46c8,10,17.9-10.2,28.6-14c2.7-0.9,5.1-3.3,7.1-5.5c7.8-8.8,27.2-12.3,23.9-23.9
			C656.5,2331.8,637.9,2342.2,624.9,2337.1z M1399.9,372.6c8.5,27.3,20.4,43.4,32.7,58.9c5.7,7.1,10.7,21.1,21.9,15.7
			c8.9-4.3,17.7-15,20.4-24.5c2.9-10.3-11.1-11.5-18.2-15.9C1440,396.3,1423,386.4,1399.9,372.6z M1495.6,225.2
			c-25.6-1-47.4,2.4-69.9,8.7C1463.9,269.3,1467.3,269,1495.6,225.2z M571.2,2420.7c3.9-28.5-4.1-49.7-5.2-71.5
			c-0.5-10.7-6.4-14-15.8-13.1c-11.4,1.1-8.4,9.6-6.7,15.9C549.6,2373.8,554.6,2396.2,571.2,2420.7z M1157.8,316.2
			c-3.6-9.3-8.9-15.4-16.3-10.8c-10.8,6.7-30.2,2.7-31,21.7c-0.2,5.6,1.9,18.9,12.9,13.8C1136.2,335,1150.3,328.9,1157.8,316.2z
			 M1629.3,457.5c1.2,1.5,2.3,3.1,3.5,4.6c11.2-5.8,22.5-11.3,33.4-17.6c5.3-3.1,15.2-6.4,4.9-14.7c-5.8-4.7-12.5-12.5-20.2-2.8
			C1643.2,436.9,1636.5,447.4,1629.3,457.5z"/>
		<path class="st0" d="M2061.3,1599.8c-56.5-0.9-97,0.8-136,10.5c-28.6,7.1-19-15.7-23.9-25.9c-6.6-13.8,0-22,15.5-24.7
			c99.4-17.6,198.6-15.4,296.3,8c72.7,17.4,116.6,83.4,120.7,172.4c4.6,100.4-19.3,193.2-77.2,276c-8.8,12.6-9.8,20.4,0.3,33.3
			c207.3,262.1,65.9,556.2-202.7,655c-34,12.5-69.3,20.1-105,26.5c-20.9,3.8-28.3-1.9-31-22.6c-2.6-20.3,4.3-24.8,23.4-27.7
			c122.1-18.9,225.1-72.8,298.8-174.2c87.3-120,86.6-267.9,0.7-394.3c-27.8-40.9-27.7-40.8-66.3-9.3
			c-67.2,54.8-144.1,90.4-227.1,113.5c-10.2,2.9-24.2,13.1-26.9-10.7c-1.8-16.1-10.6-30.6,13.9-37.1c50.5-13.5,97.4-35.7,143.5-60.4
			c143.6-76.9,227.9-239.7,201.9-392.1c-10.5-61.5-38.9-91.2-100.3-104.2C2135.5,1602.3,2090.3,1600.8,2061.3,1599.8z"/>
		<path class="st0" d="M1516.6,1335.3c88.6,0.9,154.4,66.6,153.8,153.7c-0.5,85.7-70.9,155.3-156.3,154.4
			c-85.9-0.9-154.1-70.7-153.4-156.9C1361.4,1398.9,1427.9,1334.4,1516.6,1335.3z"/>
		<path class="st0" d="M1841.1,1565.2c-77.3,0.1-136-57.9-136-134.5c-0.1-75.6,60.7-136.6,135.7-136.2
			c74.6,0.4,136.4,63.1,135.3,137.3C1974.9,1506.6,1915.7,1565.1,1841.1,1565.2z"/>
		<path class="st0" d="M1725.3,1288.9c-66.3-0.3-118-52.6-117.4-118.9c0.6-66.2,53.1-118.1,118.9-117.7
			c64.8,0.4,118.9,55,118.3,119.4C1844.6,1237.3,1791.5,1289.2,1725.3,1288.9z"/>
		<path class="st0" d="M1997.1,2283.1c63.4-1,104.4,20.5,137.4,57.1c39.4,43.7,42.1,95.9,6.4,143.3c-51.6,68.5-127,87.4-207.1,94.5
			c-18.6,1.6-13.6-13.4-14.3-23.2c-0.8-12.5-4.4-27.1,16.5-27.8c27.2-1,53.8-6.2,79.6-15.3c25.8-9.2,49.6-21.9,69.8-40.6
			c40.3-37.4,38.9-77.3-3.8-112.1c-41.7-34-94-35.2-142.6-3.1c-17.5,11.5-41.7,3.3-49-15.9c-3.7-9.8,4.2-12.3,8.9-16.5
			C1926.8,2298.1,1968.6,2283,1997.1,2283.1z"/>
		<path class="st0" d="M1934.1,1726.7c59.2,3.2,111,16.7,154.1,53.9c37.7,32.5,48.7,73.7,31.9,119.3c-30,81.5-120,130.3-203.4,140
			c-20.2,2.4-10.7-18.9-15-29.1c-5.7-13.6,1-20.2,15.1-21.8c32.4-3.8,62.3-15,89.9-32.3c24.3-15.1,44.8-34,59.3-58.8
			c19.8-33.8,14.3-60.7-16.9-84c-33.4-24.9-71.9-37.9-112.6-36.2c-29.8,1.2-36.4-11.3-35.2-35.9
			C1902.8,1709.7,1928.5,1739.3,1934.1,1726.7z"/>
		<path class="st0" d="M1268.8,895.2c-80-0.2-145.8-66.8-144.9-146.7c0.9-81.6,64.6-143.5,147.1-143.1
			c79.9,0.4,143.1,63.7,143.6,143.8C1415.1,828.9,1348.7,895.4,1268.8,895.2z"/>
		<path class="st0" d="M2871.2,744.5c0,81.4-0.4,162.8,0.1,244.2c1.4,239.2-139.6,384.7-378.4,389.2c-51.2,0.9-102.6-1.9-153.1-10.6
			c-79-13.7-109.2-68-80.1-143.1c22.8-59,65.4-103,113.9-141.6c18.8-15,39.8-27.2,59.7-40.7c38.2-25.9,57.5-99.7,37-140.9
			c-7.1-14.3-20.8-14.4-33.6-15.6c-41.4-3.7-82.2,3-123.2,6.9c-46.3,4.4-92.2,5.6-137.7-6.2c-86.1-22.2-133.6-70.9-140.7-158.8
			c-11-136.4,19.4-263.5,103.5-374.5c38-50.2,90.2-77.7,152.6-78.5c151.7-1.8,303.4,4,454.9,11.3c36.7,1.8,64.2,21.7,83.4,52.5
			c32.4,52,35.3,116.7,35.6,126C2867.2,545.2,2870.1,638.3,2871.2,744.5z M2439.8,322.4c-41.9,0-79.8,1.1-117.6-0.2
			c-72-2.6-125.5,27-164.2,87.3c-13.5,21-13.4,28.3,13.7,33.1c100.1,17.8,148.3,91.3,126.1,188.5
			c-28.6,124.8-75.3,158.5-198.7,141.6c12,27.2,32.6,43.8,58.3,54.4c40.8,16.8,83.3,20.8,127.1,16.6c52-4.9,103.9-11.4,156.4-8.9
			c51.1,2.5,75.1,24.1,81.3,74.2c2.7,21.5,4.4,43,6.9,68.1c75.5-94.1,170.8-126,286.1-101.4c0-66.5,0-132.2,0-198.5
			c-164.5,65.8-270.2,61.3-351.3-21.7C2366.8,556.3,2381.2,443.9,2439.8,322.4z M2498.2,1053.5c-29.7,28-58.6,42.2-84.1,61.3
			c-48,35.9-89.8,77.3-110.1,135.5c-13.6,39.1,1.1,62.3,42.6,67.5c61.7,7.7,123.7,12.2,185.9,7.1c25.8-2.1,51.4-4.9,78.5-15.3
			C2527.8,1246.6,2485.5,1166.2,2498.2,1053.5z M2805.6,502.8c-0.6-6.5-37-53-41.6-53.1c-5.5-0.1-56.4,51.1-56,56.3
			c0.5,6.4,43,46.8,48.3,45.9C2764.1,550.5,2806.1,508.6,2805.6,502.8z M2730.4,573.6c-0.8-1.3-2.1-3.7-3.5-6.1
			c-24.4-42.9-41.3-45.4-76.5-11.3c-3.6,3.5-7.2,6.9-10.7,10.5c-6.1,6.2-15.8,12.4-6.7,22.1c12.6,13.4,19.8,32.2,38,40
			C2674.3,630.2,2729.7,578.8,2730.4,573.6z M2706.6,372.9c-11,13.1-21.2,26.8-33,38.9c-31,31.8-31.1,31.2-0.1,61.4
			c8.6,8.4,13.6,10,24,1C2752.9,426.1,2753.8,422.4,2706.6,372.9z M2819.4,963c-3.7-10.9,6.7-28.4-11.5-35.3
			c-15.4-5.8-22.2,10.1-32.7,16.4c-6.8,4-12.2,10.2-18.3,15.3c-14.3,12.1-12.3,59.4,3.2,69.7c1.9,1.3,5.4,1.3,7.8,0.7
			C2788.3,1024.7,2820.3,984.1,2819.4,963z M2655.8,332c-17.8-0.5-64.1,27.9-66.5,43.6c-2.7,17.4,16.6,22.6,24.6,34.4
			c7.4,10.7,15.1,10.4,24,0.5c11.4-12.6,24.7-23.5,35.8-36.4c7-8.2,22.9-12.7,15.8-28.5C2682.8,330.8,2668.8,332.3,2655.8,332z
			 M2683.2,926.7c-24.1,7.4-46.5,18.2-66.3,34.1c-4.8,3.9-3.8,7.9-2.3,13.2c12.1,41.2,26.5,45.9,58.8,18.7
			c8.4-7.1,17.5-13.5,25.5-21c12.1-11.3,0.9-22-1.9-32.9C2695.2,931.7,2692.8,925,2683.2,926.7z M2716.3,993.2
			c-16,12.9-29.2,23.4-42.3,34c-16.8,13.6-10.3,57.4,9.6,65.7c4.8,2,7.2-1.1,10.6-2.9c41.2-22.2,46.1-35.4,29.3-79.7
			C2721.8,1005.7,2719.7,1001.2,2716.3,993.2z M2662.7,503c-0.3-6.2-33.9-39.2-39.2-38.5c-6,0.8-48.8,45.8-48.7,51.1
			c0.2,6.8,31.3,41.2,36.4,40.2C2616.2,554.9,2662.9,506.9,2662.7,503z M2708.4,1196.5c-0.3-7.5-30.2-53.9-34.7-53.8
			c-6,0.1-46.3,35.4-46.4,40.6c-0.1,7.3,32.5,51.8,37.7,51.4C2672.3,1234.1,2708.6,1202.2,2708.4,1196.5z M2748.6,1080.8
			c-11,9.1-20.1,16.7-29.3,24.1c-21.6,17.6-20.4,33.3,8.9,69c17.1,20.8,23-7.3,34.8-10.6c11.3-3.2,12.9-12.8,7.8-24.4
			C2762.8,1120.8,2756.5,1101.9,2748.6,1080.8z M2603.5,440.7c-0.2-4.2-35.8-39.4-39.8-39.3c-4.2,0.1-47.2,41.1-47.2,44.9
			c0.1,4.5,35.6,44,39.2,43.7C2560.2,489.6,2603.6,444.7,2603.5,440.7z M2660,1109.7c-9.3-13.9-12.5-34-29.7-44.1
			c-5.2-3.1-51.6,39.9-48.9,44.7c8.6,15.2,14,33.5,30.2,42.9C2616.7,1156.1,2659.7,1118,2660,1109.7z M2543.1,379.1
			c0.4-3.9-36.1-45-40-43.5c-20.4,8-28.7,28.1-33.2,45.7c-4.4,17.1,14.7,28,27.1,38.8C2499.4,422.3,2542.6,383.4,2543.1,379.1z
			 M2589.8,986.1c-20.1,20.4-32.5,42-37.6,66.9c-2.5,12.4,0,29.9,17.9,23.5c41.8-14.8,49.7-40.3,27.9-78
			C2596,995.1,2593.6,991.8,2589.8,986.1z M2213.5,620.7c-11.1-11.9-3.9-41.8-25-42.1c-13.3-0.1-38.5,14-37.2,34.6
			c0.9,15,0.6,37.1,19.8,45.1C2179.2,661.7,2214.2,630.1,2213.5,620.7z M2716.7,664.9c10.5-4.4,28.8-12.4,47.4-19.7
			c23.8-9.3,21.5-19.4,4.8-35.6c-12.5-12.2-20.3-16.2-33.2-1.6c-11.2,12.7-25,23.2-37.3,35.1c-4.6,4.5-12.6,8.4-6.3,17.2
			C2696,665.9,2701.5,667.5,2716.7,664.9z M2603.8,603c-10.6,8.8-30.8,18.9-28.9,31.9c2.4,16.5,15.6,34.4,37.2,37.3
			c17.5,2.3,26.3-10.2,34-22.8C2648,646.3,2609.9,603.3,2603.8,603z M2082,675.3c2.2,11-4.6,30.8,15.2,27.8
			c15.6-2.4,36-12.2,40.4-27.3c3.8-12.9-6.6-30.1-11.3-45.2c-1.4-4.5-5.6-5.2-9.6-2.5C2099.6,639.5,2077.7,647.5,2082,675.3z
			 M2493.7,467.2c-12.1,7.3-22.9,17.3-31.1,29.9c-2.3,3.6,30.5,47.6,35.1,46.4c16.3-4.2,24.9-18.2,34.2-30.7
			C2534.4,509.7,2499.6,467.9,2493.7,467.2z M2589,577.8c-12-13.8-21.4-33.8-35.8-38.4c-12.9-4.2-31.1,15.9-31.5,28.9
			c-0.5,16.8,16,35.5,31,39.3C2564.8,610.7,2576.6,590.7,2589,577.8z M2818,1026.8c-52.6,37-54.1,46.5-18.1,99.7
			C2811.8,1094.8,2819.3,1063.7,2818,1026.8z M2749.7,339.5c-5.3,4.3-19.9,8.7-14.7,18.7c8.2,16.1,16.9,36,35.2,41.5
			c7.6,2.3,20.9-10.7,21.8-23.8C2792.8,363.4,2764.7,338.4,2749.7,339.5z M2190.2,723.7c20.4-8.6,30.3-25.7,38.7-44.2
			c2.6-5.6,4.8-14-0.9-16.2c-15.7-6.2-23.8,10.3-36.1,15.1c-3.6,1.4-7.2,3.7-10,6.4c-10.7,9.9-3.5,20,0.3,29.9
			C2183.7,718.6,2183,725.4,2190.2,723.7z M2816.9,536.1c-14.3,12.6-23.9,20.7-33.1,29.3c-4,3.8-11.4,8.1-5.7,14.5
			c9.8,11,18.6,29.8,32.2,28.5c12.6-1.2,5.1-20.4,6.3-31.6C2817.8,565.4,2816.9,553.7,2816.9,536.1z M2183.1,542.2
			c-3.7-8.4-5-17.7-10.3-22.2c-7.8-6.7-14.6,2.9-19.5,7.5c-8.5,7.9-27.5,9.3-21.5,27.1c2.1,6.3-0.5,23,12.9,17.4
			C2159.3,565.8,2174.4,557.1,2183.1,542.2z M2242.1,616.8c15.5-22.4,11.7-41.6,6.8-60.4c-1.6-6.2-2.2-18.2-13.7-13.3
			c-8.5,3.6-19.3,9.1-14.5,22.1C2226.8,581.4,2233.9,597.1,2242.1,616.8z M2637.9,1252.6c-9.4-14.9-18.7-29.8-28.1-44.7
			c-3.4-5.4-7.2-9.3-14-4.2c-5.9,4.4-12,9.1-5.8,16.7C2602.2,1235.2,2613.2,1251.6,2637.9,1252.6z M2554.3,1121.7
			c-7.1,25.6,3.1,40.2,9.1,55.7c2.3,6,6.2,11,13.5,6.2c5.8-3.8,12.3-7.7,6.5-16.6C2574.8,1153.9,2566.5,1140.6,2554.3,1121.7z
			 M2688.4,1273.4c15.6-9,30.8-18.6,41.6-33.4c1.2-1.6,0.1-5.7-1.2-8c-2.1-4-6.1-5.2-9.9-2.4c-12.8,9.4-26.4,18.1-37.8,29.1
			C2674.3,1265.4,2681.1,1270.6,2688.4,1273.4z M2493.8,592.4c-2.1,2.4-8.4,6.8-7.7,9.2c5.1,17.1,19.9,25.8,33.7,35.1
			c3.7,2.5,7.4,0.3,10-3c0.5-0.7,0.6-1.8,0.7-2.8C2530.7,626.1,2500.2,592.1,2493.8,592.4z M2590.4,329.2
			c-17.6,0.9-33.2-3.4-50.4,2.2C2567.3,363.8,2567.3,363.8,2590.4,329.2z M2445.1,469.8c36.4-26.8,36.4-27.2,10.1-47.3
			C2446.9,435.7,2448.3,450.5,2445.1,469.8z M2086.6,614c9-5.8,12.8-8.9,17-10.9c13.8-6.8,9.6-17.4,6.2-27.8
			c-1.5-4.5-3.6-11-9.3-8.4c-9.8,4.4-6.8,15.4-9.1,23.6C2089.8,596.2,2089,602,2086.6,614z M2810.3,456.5
			c0.2-15.3,5.7-31.7-8.5-43.1c-1-0.8-9.4,4.4-10.9,8.2C2783.7,439.6,2802.8,444.9,2810.3,456.5z"/>
	</g>
</g>
</svg>
