<?xml version="1.0" encoding="utf-8"?>
<!-- Generator: Adobe Illustrator 23.0.0, SVG Export Plug-In . SVG Version: 6.00 Build 0)  -->
<svg version="1.0" xmlns="http://www.w3.org/2000/svg" xmlns:xlink="http://www.w3.org/1999/xlink" x="0px" y="0px"
	 viewBox="0 0 3000 3000" style="enable-background:new 0 0 3000 3000;" xml:space="preserve">
<style type="text/css">
	.st0{stroke:#000000;stroke-width:10;stroke-miterlimit:10;}
</style>
<g id="Layer_1">
</g>
<g id="Layer_2">
	<g>
		<path class="st0" d="M324.9,2383.7c-165.6-135.6-127.1-310.7,23-406.2c-11.1-11.8-22.5-23-32.9-35.1
			c-86.5-102-66.3-222.8,50.8-288.1c27.2-15.2,25-23.1,9.2-45.8c-207.5-297-265.7-623-167.3-970.2c76.4-269.6,264.5-425,539.6-477.6
			c133.6-25.5,268.3-40.1,403.4-52.5c124.4-11.4,248.4-24.8,373.6-26.3c249.4-3,469.9,73,660.2,234.4c19.6,16.7,25.7,14.9,39.2-6.9
			c55.2-88.9,129.1-156.8,235.3-176.5c113.8-21.1,250.4,14.1,314.8,147.6c50.8,105.3,71,218.3,86.7,332.6
			c27.3,199,21.2,399,16.6,598.9c-7.3,314-22.5,627.7-25.3,941.8c-0.7,74.5,3.3,150.8-23.3,222.7c-85.9,232-235.2,408.3-459.9,516.6
			c-68.8,33.2-143.3,44.5-218.7,44.8c-363,1.3-725.8,21.8-1088.8,14.7c-199.7-3.9-400-5.9-597.3-44.8c-34.2-6.7-67.5-16.2-99-31.4
			c-81.6-39.4-105-113.9-59-192.1c8-13.7,9.9-19.2-5.4-29.9c-108.3-75.6-102.5-197.2,11.5-262.2
			C315.6,2389.9,319.1,2387.5,324.9,2383.7z M2547.6,183.5c-11.3-1.3-16.6-2.2-21.9-2.4c-135.4-5.9-270.5,116.7-291.7,261.9
			c-11.8,80.8,0.6,160.5,4.3,240.7c4.7,103,16.3,205.8-6.8,308.3c-40.6,180.2-150.6,310.9-298.3,412.3
			c-251.5,172.6-534.2,245.5-836.2,250.4c-146.7,2.3-293.5-0.6-440.2,1.5c-81.3,1.2-163.5,2.8-241,32.6
			c-72.9,28-115.8,98.7-94.5,157.2c21.9,60.1,62.8,103.8,126.4,121.5c33.6,9.3,68.3,12.1,103.1,13.9c141.3,7.3,282.6-0.3,423.8-0.8
			c20.6-0.1,28.1,4.7,28.5,26.5c0.3,21.3-5.5,27.8-26.9,27.9c-75,0.6-149.9,4.4-224.9,4.6c-99.9,0.3-201.3,6.9-298.7-17
			c-50.9-12.5-83.5,3.1-116.9,32.7c-82.3,73-87,172-11.9,252.4c60.2,64.5,134.3,91.5,222.7,86c162.7-10,325.4-21.3,488.5-15.9
			c14.9,0.5,31.1-3.4,29.1,22.1c-1.6,20.6-2.7,32.9-30.2,32.3c-98.9-1.9-197.7-0.6-296.6,4.8c-87.7,4.8-175.3,17.6-263.6,8.4
			c-29.3-3.1-56.2-17.8-84.9-19.2c-55.7-2.7-112.2,49.1-111.5,97.9c0.8,54.7,56.4,107.8,114.1,102c81.4-8.2,162.9-3.7,244.3-9.6
			c141.1-10.1,282.2-10.1,423.5-1.4c29.4,1.8,27.9,16.6,27.8,38.1c-0.2,27.2-17.4,18.7-31.1,17.7c-96.6-6.6-193.2-11.2-289.9-4.9
			c-119.1,7.8-238.9,2.4-357.7,18.7c-39.5,5.4-57.3,15.8-68.3,56c-9,32.9,1,57.7,32.2,77.5c24.1,15.3,50.8,24.1,78.4,30.8
			c97.6,23.7,197.3,32,297,37.7c297.5,17.1,595.3,13.3,893,5.9c28.6-0.7,57.1-2.9,89.7-4.6c-5.9-9.1-8.4-13.7-11.6-17.8
			c-183.8-237.8-228.9-503.4-155.4-791.2c75.9-297,284.6-468.4,579.2-475.4c219-5.2,433.8,20.2,638,105.9
			c22.2,9.3,27.3,5.3,27.7-18.2c1.6-85.8,5.6-171.6,7.7-257.4c6.3-246.5,20.8-493.1-0.5-739.6c-2.1-24.7-3.2-42.6-36.2-34.3
			c-14.9,3.8-31.8,1.1-47.6-0.5c-221.6-22.1-331.1-257-206.6-442.8C2531.5,207,2538.1,197.4,2547.6,183.5z M2009.1,2887.9
			c0-1.6,0-3.3,0-4.9c41.3,0,82.6,0.1,123.9,0c82.4-0.1,161.9-12.1,236.4-50.5c160.1-82.5,276.4-207.9,360.6-365
			c24.6-46,46.7-93.3,56.9-144.9c3.4-17.4,8.6-35.1-8.7-51.2c-38.1-35.4-79.4-65.7-131-75c-82.1-14.8-164.4-5.5-246.3,4.9
			c-33.9,4.3-59.6,23.5-83.2,47.3c-44.2,44.5-54.7,101.8-63.8,160.1c-9.7,62.1-20,124.4-45.2,182.5c-17.1,39.5-47.9,46.6-80.9,19.3
			c-29.4-24.4-44.6-58.3-56.6-93.6c-20.6-60.8-20.1-123.9-19.7-187c1-172.9,116.1-316.4,284.6-351.8c36.8-7.7,74.6-12.6,112.1-14.5
			c114.4-5.8,220.7,27.8,323.7,73c24,10.5,28.8,6.5,28.7-18.4c-0.1-69.5,0.5-139.1,3.5-208.6c1.1-25.2-8.1-35.7-30.4-45
			c-221.4-92-452.5-120.8-689.4-101.6c-165.9,13.4-299.1,91.1-385.2,235.2c-167.8,281-167.6,680.9,92.8,976.8
			c10,11.4,20.9,13.1,34.5,13C1887.4,2887.7,1948.2,2887.9,2009.1,2887.9z M1731.4,1456.8c71.4-31.1,133.1-69.3,191.6-112.2
			c127.2-93.4,222.9-209.3,256.1-368.4c17.8-85.1,10.5-170.8,6.8-256.6c-4.6-104.9-24.1-210.1,1.1-314.9
			c3.3-13.9-5.4-19.7-13.4-26.8c-108.7-96.7-231.4-169.1-372.1-207.8c-159.8-44-322.4-38.4-485.5-23.7c-24.2,2.2-30.3,9.9-31.1,32.5
			c-7.5,205.2-15.8,410.4-24.5,615.6c-0.8,18.7,5.3,24.4,23.6,24.9c29.3,0.8,58.7,2.7,87.6,7.3c154.8,24.6,272.1,98.5,327.3,252.5
			c20.3,56.7,27,116,33.4,175.4C1739.3,1320.6,1741.2,1386.6,1731.4,1456.8z M694.6,1601.8c-4.8-14.8-8.1-25-11.3-35.2
			c-27.9-89.5-37.7-181.1-24.4-273.7c27.9-192.8,129.3-332.8,307.3-415.1c13.7-6.3,22.1-12.6,22.8-30.5
			c5.2-146.5,11.9-293,17.9-439.5c2.8-69.5,4.8-139,8-208.4c0.9-18.6-3.8-23.5-23.6-21.1c-86.2,10.7-171.9,23.5-257,41.1
			c-231.3,48-386.6,182.7-466,404.5c-48.1,134.3-58.6,273.5-46.2,414.5c18.7,212.6,88.6,405.8,222.6,574.2c4.9,6.1,6,7.7,12.5,6.6
			C534.2,1605.5,612.2,1602.3,694.6,1601.8z M991.9,1602.2c220.2-0.5,437.5-19,644.9-102.2c30.3-12.1,40.4-29.3,42.8-58.9
			c7.4-92.7,2.3-184.5-14.1-275.8c-24.8-137.5-100.7-230.6-236.8-270.3c-90.2-26.3-182.2-28.1-274.5-14.7
			C1052.5,895,958.1,928.6,878,995c-178.8,148.3-206.7,389.7-131.2,589.7c5.9,15.5,15.5,17.9,29.8,17.8
			C848.4,1602,920.2,1602.2,991.9,1602.2z M1056.9,514c-0.2,0-0.4,0-0.6,0c-4.1,104.1-8.1,208.1-12.6,312.1
			c-0.7,15.6,2.5,23.1,19.7,17.8c38.5-11.8,78.2-17.7,118.1-21.7c17.7-1.8,23.5-8.9,23.9-26.1c1.3-53.1,4-106.2,6.1-159.3
			c6.1-151.7,11.6-303.5,18.8-455.2c1.2-25.1-7.4-29.1-29.2-25.8c-31.1,4.7-62.5,10.1-93.7,9.6c-32.8-0.5-38.7,14.6-39.4,43
			C1065.4,310.3,1060.7,412.2,1056.9,514z M2159.9,2565.7c27.6-69.2,36.5-140.3,48-210.5c19.8-121,99.9-198.6,220-212.9
			c47.7-5.7,95.5-3.7,143.2-6.8c79.5-5.3,149.4,19.8,212,67.8c3.5,2.7,7,5.1,11.4,1.7c8.3-99.9,8.1-99.5-84.1-135.8
			c-111.9-44.1-226.1-63.1-346.6-42.9c-138.1,23.3-215.9,108.1-248.8,238.1c-17.2,68.1-12.9,137.9,1,206.9
			C2122.7,2505.5,2133.7,2537.7,2159.9,2565.7z M2760.2,606.2c4.5-0.2,14.3-1.1,24.1-1c13.9,0.1,19.8-5.6,17.4-19.8
			c-17.5-105-34.9-210-89.8-303.9c-19.1-32.7-46.2-56.7-80-74.2c-15.6-8.1-25.4-5.3-36.2,7.3c-64.6,75.2-86.8,159.5-50.9,253.9
			C2576.7,552.7,2658.9,604.8,2760.2,606.2z"/>
		<path class="st0" d="M1688.3,461c70,0.3,123.3,54,123.1,123.9c-0.2,68.7-55.9,124.3-124.2,124.1c-67.4-0.2-124.3-57.7-124-125.1
			C1563.6,515.1,1619.1,460.7,1688.3,461z M1618.6,583.3c-0.6,39,30.5,71,69.1,71c36.6,0,68.7-30.8,70.1-67.3
			c1.5-37.7-30.2-71.4-68-72.5C1651.3,513.4,1619.2,544.4,1618.6,583.3z"/>
		<path class="st0" d="M654.1,583.3c0.5-69.6,54.5-122.6,124.7-122.4c68.8,0.2,124.2,56.1,123.4,124.5
			C901.5,653,843.8,709.7,776.6,709C708.1,708.2,653.6,652.3,654.1,583.3z M846.8,583.7c-0.4-39.2-31.8-69.9-70.6-69.1
			c-37.9,0.8-69.4,34-68.2,72c1.2,38.3,33.5,68,72.8,66.9C818.4,652.4,847.1,622.1,846.8,583.7z"/>
		<path class="st0" d="M987.6,1244.3c-0.5-90.6,69.6-162.7,159-163.5c93.1-0.8,167.5,71.6,167.1,162.9
			c-0.4,88.3-72.9,161.4-161.3,162.8C1062.4,1407.9,988.1,1334.7,987.6,1244.3z M1149.2,1350.8c60.4,1,107.9-44.6,109.4-105
			c1.5-60.3-47.4-111.1-107.4-111.6c-58.9-0.5-108.1,47.1-110,106.1C1039.4,1299.9,1088.1,1349.7,1149.2,1350.8z"/>
	</g>
</g>
</svg>
