<?xml version="1.0" encoding="utf-8"?>
<!-- Generator: Adobe Illustrator 23.0.0, SVG Export Plug-In . SVG Version: 6.00 Build 0)  -->
<svg version="1.0" xmlns="http://www.w3.org/2000/svg" xmlns:xlink="http://www.w3.org/1999/xlink" x="0px" y="0px"
	 viewBox="0 0 3000 3000" style="enable-background:new 0 0 3000 3000;" xml:space="preserve">
<style type="text/css">
	.st0{stroke:#000000;stroke-width:10;stroke-miterlimit:10;}
</style>
<g id="Layer_1">
</g>
<g id="Layer_2">
	<g>
		<path class="st0" d="M2917,1121.6c0,159.8,0,319.6,0,479.4c0,141.7-51.5,260.3-161.3,351.1c-21.5,17.8-20.5,26.7-1.3,45.6
			c165,162.8,195.4,418.5,71.1,599.3c-78.7,114.4-190.3,174.6-326.7,193.1c-68,9.2-133.9,1.1-199.1-17.5c-12.2-3.5-22.9-6-35,4.2
			c-99.2,83.2-213.6,70-315.7,11.6c-18.5-10.6-28.4-11.4-45.3,1.9c-49.8,39.1-109.2,56.5-170.9,61.8
			c-122.3,10.6-244.9,15.8-367.1-3.4c-5.8-0.9-12.1-0.7-17.2-3.1c-62.1-28.9-125.9-15.3-189.2-7.4c-82.2,10.2-164.7,16.1-247.3,20.2
			c-112.7,5.6-225.6,12.5-338.6,1.6c-83.3-8-166.9-14.4-248.8-32.3c-158.6-34.6-215.8-98.6-241.1-259
			c-27.5-175.1-23-351.4-23.5-527.6c-0.5-192.9,9.7-385.5,19.5-578C88,1297,111.8,1132,132.7,966.9
			c19.7-156.4,42.7-312.4,61.8-468.8c18.1-148,82.5-264.3,218.3-334.8c82.4-42.8,170.7-65.1,262.8-72
			c233.4-17.4,455.8,21.3,664,131.5c11.9,6.3,21.3,5.5,32.7-0.1c65.2-32,134.7-43.7,206.7-43.6c297.2,0.1,594.4-0.9,891.6,0.6
			c149.8,0.8,271.7,62,361.4,182.8c56.3,75.8,84.1,162.3,84.6,256.5C2917.6,786.4,2917,954,2917,1121.6z M1175,1076.1
			c-0.1,0-0.2,0-0.2,0c0,149.1,0,298.1,0,447.2c0,64.1-0.1,62.1,65.3,57.7c106.8-7.3,213.8-11.1,320.7-17.4
			c22-1.3,28.6,6.8,29.5,27.9c1.2,26.8-15.2,27.1-33.7,28c-118.6,6-237.2,12.3-355.8,17.9c-16.1,0.8-24.2,2.7-22.4,23.1
			c15.1,173,176.3,330.6,350,335.9c120.7,3.7,241.6,0.9,362.4,1.7c18.2,0.1,28.4-6.9,35.8-23.3c74.2-165,122.8-336.9,126.6-518.3
			c4.2-202.5,4.3-405.1-3.1-607.7c-7.2-197.3-36.4-391.2-78.8-583.5c-5.1-23.3-15.3-31.2-39.5-30.9c-124.7,1.2-249.4,0.3-374.1,0.7
			c-35.2,0.1-69.9,5.7-103.6,15.5c-164.3,47.8-277.3,195.4-278.7,366.6C1174,770.2,1175,923.1,1175,1076.1z M2861.2,1119.5
			c0-168.5,1.1-337-0.3-505.5c-1.6-204.6-172.2-376.2-376.8-378.7c-144.1-1.8-288.3,0.2-432.5-0.8c-27.5-0.2-29.7,9.2-24.2,33.1
			c30.6,133.8,54.4,268.9,65.8,405.9c2.1,25.6,6.1,48.2,40.7,46.4c11.1-0.6,22.5,5.3,33.8,8.5c96.1,27.2,159,94.3,164.2,176.2
			c2.8,43.9,0.5,87.7-7.4,130.9c-4.2,22.9-6.7,49.3-26.7,63.1c-23.8,16.5-16.4,28.8-6.4,49.6c54.3,113.3,53.6,264.5-107.6,306.1
			c-60.8,15.7-79.5,38.3-83.8,100.4c-10,144.7-54.2,282.5-111.8,415.3c-11.6,26.7-2.3,28.3,20.4,28.2c158.8-0.6,317.5-0.4,476.3-0.6
			c14.6,0,29.4-0.2,43.7-2.5c198.4-32.2,332.1-189.2,332.4-390.5C2861.5,1442.9,2861.3,1281.2,2861.2,1119.5z M1194.7,2779
			c-104-95-133.2-192.9-126.1-311.4c10.9-183.4,78-344.5,215-471.7c18.1-16.8,20.9-27.7-1-41.2c-5.7-3.6-10.8-8.4-15.6-13.2
			c-13-12.8-22-9.6-32.9,4.2c-19.9,25.1-41.1,49.2-65.4,70.6c-100.6,88.4-216.6,141.1-350.6,149.9c-128.6,8.4-246.8-22.1-342-112.7
			c-114.5-108.9-152-247.4-142.5-401.5c2.7-43,11-84.9,23-126.1c3.8-13.1,5.1-21.8-13.7-22.7c-60.2-2.9-120.4-7-180.6-11.2
			c-18.8-1.3-29.4,3.3-29.2,25c0.2,23.3-3.5,46.6-4.3,69.9c-5.8,180-14.4,360-13.7,540.2c0.6,135.4-0.9,270.9,19.5,405.1
			c25.5,168.2,46.4,208.6,216.2,243.5c118.4,24.3,238.9,34.8,359.8,33.8C871,2808.1,1031.2,2797.7,1194.7,2779z M1558.7,2804.3
			c48.8,1,104.1-1.9,159.5-6.1c134.6-10,224.4-82.9,241.2-204.4c24.3-175.5,4.3-345.4-73-507.1c-12.5-26.2-27.6-34.6-55.8-34
			c-83.7,1.8-167.5-0.6-251.3,1c-71.4,1.3-139.6-10.4-204.2-40.9c-14.9-7.1-25.7-4-36.6,6.7c-25.2,24.4-50.8,48.2-73.1,75.4
			c-89.1,108.6-134.1,235.3-141.5,373.4c-9,166.7,72.2,294.1,250.6,325.9C1433.3,2804.7,1492.5,2805.5,1558.7,2804.3z M277.8,1308.1
			c1.3-187.7,37.4-369.6,93.7-547.7c37.7-119.3,111.1-211.3,224.1-268.5c84.2-42.6,175.2-58.2,268.4-60.8
			c87-2.4,172.8,9.6,257.5,29.2c14.6,3.4,25.8,5.7,33.2-11.7c29.2-68.6,73.4-126,131.5-172.5c13.1-10.5,6.9-15.1-3.9-20.1
			c-19.4-9-38.5-19-58.3-27.1c-179.2-73.4-365.7-98.4-557.9-81.1c-82.1,7.4-161.3,27.5-234,67.9c-86.6,48.2-147,117.2-168,216.7
			c-19.1,90.6-31,182.2-42.5,273.9c-21,167-42,334-62,501.1c-8,66.6-13.3,133.6-20.2,200.3c-2,19.2,4.2,28.9,25.3,29.2
			c28.2,0.4,56.4,2.4,84.5,5.3c25,2.6,36.2-5.3,33.7-32.1C279.9,1376.3,279.4,1342.1,277.8,1308.1z M723.2,1625.3
			c0,16.9,0.2,26.6,0,36.3c-1,55.1-32.8,91.1-87.5,99c-83.9,12.2-129.9-22.9-139.1-106.4c-4.3-39,3.6-77.6,3.9-116.5
			c0.1-6.6,5-15.6-1.7-19.2c-20.4-11-43.2-9.2-65.5-8.8c-17,0.3-18.8,15.1-22.3,26.7c-23.1,77.5-31.8,156.3-18.5,236.5
			c13.8,83.3,43.7,159.7,102.7,221.9c91.5,96.6,206.3,126.9,335.1,114c152.8-15.2,273.7-87.9,368.8-206.7
			c11.1-13.9,9.9-24.8-0.5-38.7c-18.1-24.2-32.7-50.6-44.4-78.6c-28-66.8-37.3-136.7-35.2-208.5c0.5-15.3-2.2-26.3-21.4-27.3
			c-18.7-1-30.5,3.9-31.5,24.3c-0.9,17.5-2.1,35-2.5,52.5c-0.8,35-11,67.1-29.3,96.6c-26.9,43.4-70.7,56.2-116.1,33.2
			c-39-19.8-66.5-50.5-79.3-92.8c-10.4-34.3-9.2-69.3-2.5-104c3.1-16.5-0.1-26.2-19.4-26.7c-22.3-0.6-44.6-2.9-66.9-4.9
			c-17.7-1.6-26.1,4.4-28.4,23.7C718.4,1578.3,724.9,1605.2,723.2,1625.3z M884.4,486.2c-24.5-1.8-48.6,3-72.8,4.8
			C605,505.6,470.9,611.7,413.2,810.3c-56.6,194.6-89,392.5-75.8,596.4c2,30.7,9.5,44.6,41.2,43.3c19.3-0.8,38.9,1.3,58.2,3.7
			c25.5,3.2,33.9-6.3,33.7-32.4c-1.4-160.8,24.5-317.9,70.7-471.6c30.3-100.9,89-181,180.3-235.6c108-64.6,227.4-82.7,350.5-84.8
			c41-0.7,48.6,7.7,48.6-41.9c0-13.5,1.7-27.5,5.6-40.4c6.5-21.5-1.8-29.4-22.1-34.2C1031.8,495.7,958.3,489.1,884.4,486.2z
			 M2096.2,2053.4c-44.8,0-89.6,0.8-134.4-0.3c-24.6-0.6-28.4,6.5-18.3,28.7c50.2,110.2,79.5,225.5,79.7,347.2
			c0.2,100.3,3.6,201.4-53.1,291.4c-6.2,9.8-3,16.2,6.5,21.2c50.8,26.8,103.2,45.6,162.1,35.6c85-14.3,129.1-73.6,160.5-146.4
			c83.1-192.5,57-378.1-35.8-559.6c-7.4-14.5-17.9-18.3-33-18.1C2185.8,2053.8,2141,2053.4,2096.2,2053.4z M1119.1,1310.9
			c0-53.5-0.1-107.1,0.1-160.6c0.1-15-1.7-26.8-21.1-27.6c-45.2-2-89.2,0.7-131.1,20.6c-115.7,55.1-158.1,199.4-125.6,315.3
			c4.3,15.5,14.7,18.8,28.3,19.6c75.7,5,151.3,9.9,226.9,15.4c19.3,1.4,22.8-9.1,22.7-25.1C1118.8,1416,1119,1363.4,1119.1,1310.9z
			 M525.9,1399.8c0,12.7,0.4,25.3-0.1,38c-0.9,22.1,14.1,21.6,29.4,21.9c18.6,0.3,20.5-11.5,18.8-25.4c-2.4-19.4-3.5-38.6-2.9-58.2
			c3.5-132.5,40.5-256.6,91.2-378c68.3-163.4,226-255.3,401.2-230.8c56.8,7.9,56,7.9,56-51.8c0-22-5.9-30.8-29.7-30.9
			c-64.5-0.3-128.5,4.6-191.3,19C752.2,736.9,641,812.8,595,963.2C551.5,1105.4,527,1250.8,525.9,1399.8z M1049.5,902.7
			c15.1-1.1,21.9-2.1,28.6-2c42.1,0.3,41,0.3,41.4-42.1c0.2-22.6-9.1-32-30.4-33.2c-12.6-0.7-25.1-3.1-37.7-4.1
			C923.8,810.9,800.3,854.6,731,983.9c-21.3,39.6-35.9,82-51.6,123.9c-38.5,103.2-54.9,209.9-50.9,320.3
			c1.2,32.2,14.1,37.9,41.9,39.3c22.2,1.1,25.9-3.4,22.4-24.6c-13.8-82.8-5.8-164.8,11.9-246.2c20.3-93.7,55.2-179,139.7-234.1
			C909.1,920.3,981.4,903.5,1049.5,902.7z M741.9,1353.6c-1.2,34.3,2.9,68,9.8,101.5c2.6,12.7,10.7,18.8,23.3,15.6
			c12.3-3.1,8.7-12.8,7.2-21.5c-7.3-41.5-8.2-82.7-2.8-124.8c15-115.9,99.5-217.6,207.7-247.5c35.2-9.7,71.1-11,107.1-9.6
			c17,0.7,25.6-5,25-23.2c-0.7-20.4-0.7-40.9,0-61.3c0.6-17.6-7.5-24.9-24.5-24.5c-24.3,0.6-48.9-0.8-73,1.9
			c-115.1,12.9-204.2,62.7-243.4,178.7C754.8,1208.2,742.4,1280,741.9,1353.6z M2582.4,2154.3c0,0.5,0,1.1,0,1.6
			c64.2,0,128.3-0.6,192.5,0.3c22.8,0.3,24.5-6,14.1-24.5c-23.1-41.2-53.5-76-87.2-108.8c-14.6-14.2-26.7-17-46.1-7.9
			c-56.1,26.4-115.6,39.1-177.9,38.4c-45.7-0.5-91.4,0.6-137.1-0.3c-21.1-0.5-23.2,6.3-14.2,23.5c9,17.2,17.5,34.9,23.7,53.2
			c6.3,18.7,17.4,25.1,36.8,24.9C2452.1,2153.7,2517.2,2154.3,2582.4,2154.3z M2277.4,935.1c4-39.9-6-83.6-49-114.3
			c-27.9-19.9-58.2-35.2-91.4-44.2c-28.6-7.7-34-4.3-32.6,24.5c4.2,90.3,6.9,180.6,6.1,271c-0.2,17.6,4.4,25.3,23.7,20.7
			c25.5-6,51.3-11.4,77.2-14.6c40.4-4.9,58.6-26.5,61.2-66.9C2274,989.1,2276.6,966.9,2277.4,935.1z M2110.7,1281.2
			c0,35.9-0.1,71.9,0,107.8c0,10.7-0.8,21.3,14.9,23.3c47.6,6.2,127-44.6,136.5-91.7c9.8-48.4,6.6-96.9-16-142.2
			c-19.7-39.4-30.3-44-73.1-36c-11.4,2.1-23,3.8-34.5,5c-19.3,2-29.3,10.1-28.3,31.8C2111.8,1213.2,2110.7,1247.3,2110.7,1281.2z
			 M2602.6,2211.3c0-0.5,0-1.1,0-1.6c-65.2,0-130.4-0.2-195.6,0.2c-9.4,0.1-23-5-24.7,12.1c-2.7,26.3,13.1,44.3,39.6,43.7
			c76.8-1.7,153.6-3.6,230.4-5.7c52.5-1.4,105-3.7,157.5-4.9c24.5-0.5,24.1-13.2,17.6-30.9c-5.5-14.9-17.8-12.9-29.2-12.9
			C2733,2211.2,2667.8,2211.3,2602.6,2211.3z M2604.9,2498.1c-32.1,0-64.3,0-96.4,0c-31.2,0-62.3,0.3-93.5,0
			c-14.9-0.1-20.8,8.5-22.7,21.4c-2.2,15.4,9.4,17.6,20.1,19.2c9.6,1.4,19.4,1.3,29.1,1.7c103,4.7,206.2,7.6,308.9,15.3
			c29.1,2.2,42.1-5.9,53.8-30.1c11.2-23.2,5.4-28.3-18.3-27.9C2725.7,2498.7,2665.3,2498.1,2604.9,2498.1z M663.5,1584.5
			c0.2-61.9,0.2-61.9-60.1-64.4c-5.8-0.2-11.9,0.3-17.4-1.1c-23.3-6-29.8,7.4-30.3,26.3c-1,39.8-2.4,79.6-1.2,119.3
			c1,32.1,18.8,43.3,59.7,41.7c38.2-1.5,53.7-14.2,53.4-46.3C667.5,1634.8,665,1609.7,663.5,1584.5z M2619.3,2442.7
			c63.1,0,126.3-0.7,189.4,0.4c23.7,0.4,31.5-11.9,31.2-31.9c-0.3-21.8-18.3-13.1-28.6-13.2c-48.6-0.8-97.2-0.6-145.7,0.3
			c-77.7,1.5-155.4-3-233,2.9c-17.7,1.3-27.9,8.2-27.8,26.1c0.1,20.8,16.9,15.2,28,15.3C2494.9,2443.1,2557.1,2442.8,2619.3,2442.7z
			 M1008.3,1605.9c1.8-64.8,1.8-64.9-58-67c-11.7-0.4-23.3-0.5-35-0.6c-9.3,0-16.2,2.9-20.7,12.5c-20.7,43.8-5.7,113.6,31.6,144.3
			c29.5,24.3,50.1,20.2,67.6-13.1C1007.5,1656.2,1008.4,1628.1,1008.3,1605.9z M2738.6,2613.5c-3.1-2.1-4.5-4-6.1-4.1
			c-114.6-5.9-229.1-11.7-343.7-17.3c-26.1-1.3-26.1,21.2-28.3,36.6c-2.6,17.5,14.8,11.2,23.6,11.5c94.3,3.1,188.8,2.9,282.9,9.4
			C2702.3,2652.1,2720.4,2637.7,2738.6,2613.5z M2623.2,2343.6c0-0.5,0-1,0-1.5c39,0,77.9,0.1,116.9,0c28.2-0.1,56.5-0.4,84.7-0.6
			c11.1-0.1,19.4-3.1,18.8-16.4c-0.6-11.6-8.3-14.2-18.1-14.3c-6.8-0.1-13.6-0.2-20.4-0.1c-125.4,1.9-250.8,3.9-376.2,5.9
			c-4.9,0.1-9.8,0-14.6,0.7c-6.5,0.9-10.5,4.9-10.7,11.7c-0.1,6.5,3,11.8,9.5,12.8c8.6,1.4,17.4,1.7,26.1,1.8
			C2500.5,2343.7,2561.8,2343.6,2623.2,2343.6z M2604.2,2706.6c0-3.3-0.1-6.7-0.1-10c-68.4,0-136.9,0-205.3,0
			c-19.4,0-38.8-0.4-58.2-0.2c-11.3,0.1-18.3,7.3-19.9,17.7c-1.4,9.8,8.4,9.5,14.2,11C2426.9,2748,2516.7,2741.7,2604.2,2706.6z"/>
		<path class="st0" d="M1416.5,1261.7c-111-0.4-198.3-86.4-197.7-194.7c0.6-110.4,90.5-197,203.6-196
			c102.9,0.8,191.3,92.6,190.2,197.5C1611.6,1176.4,1524.6,1262.2,1416.5,1261.7z M1414.9,1207.5c78.5,0.3,141.6-62,142-140.3
			c0.3-75.9-62.8-140.7-138.5-141.9c-76.4-1.3-142.9,63.5-143.7,140C1273.8,1143.2,1336.9,1207.2,1414.9,1207.5z"/>
		<path class="st0" d="M1543.5,2532.8c-71.4-0.5-129.3-59.1-129.3-130.5c0-73.4,60.3-131.6,135.3-130.7
			c73.8,0.9,129.2,58.8,128.2,133.8C1676.6,2478.9,1619.3,2533.4,1543.5,2532.8z M1545.3,2477.4c44.2,0.2,76.2-30.6,76.8-73.8
			c0.5-43.4-30.9-75.7-74.4-76.4c-44.4-0.6-75.7,29.8-76.2,73.9C1470.9,2445.6,1501.5,2477.2,1545.3,2477.4z"/>
		<path class="st0" d="M2192.9,2411c0.8,97.8-26.8,185.9-73.2,268.8c-7.8,14-15.7,24.4-33.9,12c-15.5-10.6-27.4-17.2-14.4-40.6
			c87.3-156.5,89.7-314.6,3.6-472.8c-7.3-13.4-18.2-25.3,1.6-39.5c20.6-14.8,32.9-13.9,45.6,9.4
			C2167.3,2230.9,2194.4,2318,2192.9,2411z"/>
	</g>
</g>
</svg>
