<?xml version="1.0" encoding="utf-8"?>
<!-- Generator: Adobe Illustrator 23.0.0, SVG Export Plug-In . SVG Version: 6.00 Build 0)  -->
<svg version="1.0" xmlns="http://www.w3.org/2000/svg" xmlns:xlink="http://www.w3.org/1999/xlink" x="0px" y="0px"
	 viewBox="0 0 3000 3000" style="enable-background:new 0 0 3000 3000;" xml:space="preserve">
<style type="text/css">
	.st0{stroke:#000000;stroke-width:10;stroke-miterlimit:10;}
</style>
<g id="Layer_1">
</g>
<g id="Layer_2">
	<g>
		<path class="st0" d="M766.1,1026.6c91.3,0.5,187.3-6.2,282.5,11c73.1,13.2,132.8,47.4,177.7,106.7c6.1,8,11.9,13.4,23,13
			c113.5-4.2,226.9,4.5,340.3,2.5c35.7-0.6,71.4-4.5,107-8c14.3-1.4,28.9-5.2,30.1-23.9c4.8-75.5,63.4-95.5,117.2-97
			c33-0.9,66.3,5.6,91.8,26c32.8,26.3,70.8,30.6,108.9,38.3c107.4,21.8,215.6,6.4,323.4,6.9c64.5,0.3,129.1-3,193.6-2.4
			c36.1,0.3,67.9-9.2,96.7-29.8c74.6-53.6,151.7-45.7,227-4.8c79.7,43.4,97.8,134.5,44.7,208c-10.3,14.2-21.1,28.2-33.3,40.7
			c-47.7,48.9-62.2,108.7-60.4,174.7c1.3,47.5,9.5,93.7,21.3,139.7c18.6,72.4-5.7,127.7-70.6,166c-41.9,24.7-88.1,36.4-135,46.9
			c-114.1,25.6-228,20.3-341.7-1c-48.9-9.2-98.1-12-147.2-6.6c-71.4,7.9-141.4,0.4-211.3-12.9c-236.5-44.8-475.5-56.5-715.6-57.2
			c-45.1-0.1-83.7,3.8-118.9,38.2c-40.2,39.4-93.7,53.2-150.1,56.4c-135.8,7.6-271.5-0.6-407.2-3.1c-76.3-1.4-152.4-7.3-228.5-12.3
			c-84.6-5.6-145.6-45.5-194.3-111.8c-105.7-144.2-111.2-351.8-6.3-484.6c86.2-109.1,202.7-172.4,338.2-199.6
			C565.4,1027.3,663.9,1031.5,766.1,1026.6z M657.4,1808.5c124.6,0.6,213.7,5.5,302.9,0.4c42.8-2.4,81.9-13.1,117.6-37.9
			c73.2-50.9,116.9-122.3,144.3-204.8c36-108,42.7-217.2,1.4-325.3c-32.8-85.8-94.2-139.6-186.8-155c-43.4-7.2-87.1-11-131-11
			c-104.7,0.2-209.3,4.6-313.9,7.6c-123.1,3.5-234.9,37.9-334.8,110.3c-62.7,45.5-111.8,101.2-136.3,176.4
			c-3.8,11.6-2.7,15.5,10.5,14.9c36.4-1.7,72.9-2.2,109.3-3.5c25.6-0.9,51.2-2.8,76.8,1.5c33.5,5.6,55.2,24.1,64,56.7
			c6.4,23.6,7.6,48.1,6.9,72.3c-1.8,63.9-27.1,88.2-91.5,89.1c-51.3,0.7-102.7,0.9-154,0.3c-15.3-0.2-16.9,4.4-11.4,17.2
			c9.7,22.3,19.9,44.3,32.9,64.9c38.9,61.6,88.7,104.2,166.3,110.4C451.4,1802.6,572.1,1806.3,657.4,1808.5z M1930.7,1339.9
			c95.7-5.8,188.5-2.5,279.7,25.9c95.6,29.7,171.1,84.3,221.8,171.2c46.8,80.2,57.4,167.5,47.7,258.1c-1.2,11.1,1.1,13.8,11.8,13.8
			c25.7,0.1,51.3-1.1,76.8-4.4c64.3-8.3,128.1-19.4,186.5-49.8c54.7-28.5,69.3-63,52.4-121.5c-14.9-51.6-21.3-104.5-21.3-157.9
			c0.1-67.9,17-130.8,63.8-183.1c14.8-16.6,29.4-33.6,42.2-51.8c31-44,22.9-92.1-20-124.8c-51.3-39.2-125.3-43.6-179.6-8.1
			c-41.9,27.4-85.9,44.5-136.6,42.1c-16.7-0.8-33.5,0.2-50.3,0.5c-85.1,1.6-170.1,2.5-255.2,5c-77.1,2.3-153.9,2.5-229.7-14.1
			c-12.4-2.7-14.3,0.3-12.8,12.9c8.6,73-6.6,137.1-71.6,181.2C1934.2,1336.5,1932.5,1338.3,1930.7,1339.9z M1203.9,1713.8
			c7.7,0.5,11,0.9,14.2,0.9c99.2,0,198.4,0.9,297.4,6c12.9,0.7,15.6-4.4,16.7-16c11.7-127.1,73.1-223.3,182-289.6
			c4.7-2.9,11.5-3.8,13.3-11.8c-45.2,6.8-89.9,12.4-134.9,16.2c-92.2,7.9-184.6,9.3-277,7.8c-12-0.2-16.5,2.9-17.1,15.3
			c-1.5,27.6-5.8,54.9-12.2,81.8C1270.4,1591.3,1245.8,1654.2,1203.9,1713.8z M1450.8,1206.9c-54.2,0-110.3,0.3-166.4-0.2
			c-15-0.1-21.3,1.6-13.4,18.6c7.1,15.2,12.2,31.6,15.3,48.1c3,15.5,9.7,20.1,25.4,20.8c85.1,3.9,170.1,2.3,255.2,0.1
			c107.3-2.8,196.9-41,267.6-122.2c24.9-28.6,24.4-28.3,53.3-2c6.4,5.9,5.6,9.1,1.1,14.7c-57.2,70.3-125.9,124.8-215.7,145.3
			c-79.4,18.1-160.8,16.4-241.8,16.7c-39.2,0.1-78.3-0.2-117.4-3.4c-5-0.4-12.4-4.4-15.3,4.6c-5.2,16.2,4.5,30.4,21.1,30.5
			c134.5,1.2,268.7-3,401.8-24.5c59.4-9.6,116.9-25.4,171.9-51.1c60.6-28.4,72.1-93.4,65.8-139.4c-2.6-18.9-12-34.3-25.4-46.9
			c-31.5-29.6-68.8-41.1-111.7-33.7c-29.6,5.1-40.2,15.8-45.1,45.6c-7.5,45.6-28.4,66.5-73.9,72.4
			C1620,1211.7,1536.4,1212.6,1450.8,1206.9z M2003.8,1757.3c-1.5,20.3-1.5,20.2,18.3,24.1c29.3,5.8,59,7.4,88.6,5.1
			c77.5-6,154.9-9.8,231.4,9.2c9.8,2.4,14.2-0.7,12.4-11.1c-2.6-15.3-4.3-30.7-7.6-45.9c-31.1-145.2-160.5-258.3-303.7-266.5
			c-18-1-26,1.5-26.7,22.3C2013.3,1582.2,2008.2,1669.7,2003.8,1757.3z M2434,1741.2c1.6-159.2-86.6-282.9-238.2-328.2
			c-131.5-39.3-263-34.3-391.5,14c-116,43.6-194.9,122.8-217.7,247.8c-10.8,59.1-18.2,44.8,40.4,52.6c14.1,1.9,18.4-4.1,21.7-16.3
			c13.4-50.2,37.2-95.1,68.7-136.4c121.1-158.9,344.9-199.9,509.3-90.6c107.8,71.7,166.4,174.3,177.2,303.6
			c0.7,8.9-0.4,16.9,13.3,17.5c13.4,0.6,12.3-8.4,13.1-15.5C2432.3,1773.6,2432.9,1757.4,2434,1741.2z M1960.7,1624.8
			c-0.1-69.6,2.1-107.2,5.6-125.5c0.7-3.7,3.2-15.5-2.4-19.8c-2.6-2-8-0.6-18.7,2.3c-114.2,31.8-194.1,102.5-238.8,212.3
			c-14.8,36.3-14.1,36.5,22.9,42.6c1.3,0.2,2.6,0.6,4,0.8c68,10.1,136.1,20,204,30.3c11.4,1.7,16.6,0.5,16.9-13.6
			C1955.3,1711.1,1958.4,1668,1960.7,1624.8z M218.5,1550.5c29.1,1.7,59.3-1.5,89.6,0.8c16.1,1.2,27.5-7,29.4-25.7
			c1.9-19-0.3-37.7-1.3-56.5c-1.6-29.6-8.5-38.4-37.5-38.4c-59.9,0.1-119.9,2.7-179.8,3.8c-11,0.2-13.6,5.5-13.6,15.1
			c-0.2,29-0.5,57.9,3.9,86.7c1.7,11.2,6.6,14.5,17.3,14.4C156.7,1550.2,187,1550.5,218.5,1550.5z"/>
		<path class="st0" d="M1017.1,1627.3c-57.5-5.2-114.7-4-171.7-6.2c-5.4-0.2-10.9-1.2-16.2-0.6c-19.2,2.1-25.8-5.1-23.9-25
			c2.6-26.3,1.1-26.1,28.4-25.1c77,2.6,153.9,4.9,230.9,7.2c19.4,0.6,37.1-18.3,36.8-38c-0.1-9.7-7.3-6.1-11.6-6.2
			c-76.9-2.9-153.9-5.6-230.8-8.3c-2-0.1-4.1,0-6.1,0c-30.8-1.1-38.5-12.9-28.9-43.3c3.7-11.8,12.7-7.8,20.1-7.5
			c81.7,3.1,163.4,5.8,245,10.1c18.1,1,23.6-4.1,23.5-21.6c-0.1-13.9-4-18.6-18.3-18.7c-81.1-0.8-162.1-2.5-243.1-4.2
			c-8.3-0.2-20.5,3.7-23.7-5.6c-4.5-13.2-3.2-28.3,0.6-41.8c1.7-6.2,10.9-2.9,16.7-2.8c78.3,1.6,156.7,3.7,235,4.9
			c6.8,0.1,20.2,7.3,20.5-5.6c0.3-12.2-7.5-20.8-23.8-20.7c-74.3,0.7-148.6,0.1-222.9-0.5c-8.9-0.1-22.6,5.4-25.8-4.3
			c-4-12.2-2.2-26.8-0.7-40.1c1-8.6,10-4.8,15.3-4.8c60.8-0.3,121.6-0.2,182.4-0.2c5.2,0,10.4,0,21,0
			c-36.2-25.8-72.5-36.1-110.7-40.2c-35.8-3.8-71.7-2.9-106.7,6c-13.1,3.3-16-1.3-18.8-12.6c-8.3-33.4-8.8-33.3,25.3-39.2
			c67.4-11.7,133.4-7.2,196.5,20.5c99.7,43.8,134.2,124.6,130.2,221.4c-1.4,35.2-6.4,70-20.5,102.7
			c-28.3,65.4-82.3,97.2-148.3,113.9c-68.5,17.4-137.3,19.6-206.9,8.1c-12.9-2.1-15.2-6.7-12.5-19.6c6.8-32.1,5.9-32.3,37.8-27.5
			c63.8,9.6,126.5,4.2,188-14.9c5.1-1.6,10.2-3.6,15.1-5.6C1015.2,1630.6,1015.7,1629.1,1017.1,1627.3z"/>
		<path class="st0" d="M502,1321.2c0.3-41.8,35.4-76.5,76.5-75.8c41.7,0.8,75.1,35.4,74.8,77.5c-0.4,42.1-34.8,76.1-76.5,75.5
			C534.8,1397.8,501.6,1363.6,502,1321.2z"/>
		<path class="st0" d="M576.6,1650.9c-42.9-0.2-75-33-74.6-76.1c0.5-42.5,33.6-74.6,76.7-74.3c42.5,0.3,74.9,33.6,74.5,76.5
			C652.9,1619.8,620.3,1651.2,576.6,1650.9z"/>
	</g>
</g>
</svg>
