<?xml version="1.0" encoding="utf-8"?>
<!-- Generator: Adobe Illustrator 23.0.0, SVG Export Plug-In . SVG Version: 6.00 Build 0)  -->
<svg version="1.0" xmlns="http://www.w3.org/2000/svg" xmlns:xlink="http://www.w3.org/1999/xlink" x="0px" y="0px"
	 viewBox="0 0 3000 3000" style="enable-background:new 0 0 3000 3000;" xml:space="preserve">
<style type="text/css">
	.st0{stroke:#000000;stroke-width:10;stroke-miterlimit:10;}
</style>
<g id="Layer_1">
</g>
<g id="Layer_2">
	<g>
		<path class="st0" d="M1212.5,384.8c0.1,54.4,0.2,53.2-51.9,47.4C1054,420.3,947,412.3,841.8,442.2
			C745.6,469.6,667.5,521.6,623,615c-13.6,28.6-12.9,29.7,17.4,34.2c89.7,13.2,96,43.7,105.4,134c2.5,24-2.3,48.7-12.3,70.9
			c-7.3,16.1-1.4,23.3,11.3,31.3c84.2,52.9,172.9,65.2,266.9,30.5c31.1-11.4,60-27.3,87.4-45.8c37.6-25.4,75.4-50.6,112.7-76.4
			c78.7-54.3,165.5-79.4,261.1-76c54.9,2,109.9,7,164.9,2c45.7-4.1,90.3-13.3,126.6-44.2c34.1-29,57.9-63.1,45.2-111.1
			c-8-30.2-25.1-53.4-57.5-59.8c-13.3-2.6-9-11.3-9.2-18.1c-1.1-40.5,4.2-43.9,42.5-28.3c56.7,23.1,94.3,96.6,78.8,156.3
			c-23.8,91.6-91.2,134.1-177.5,153.2c-49.8,11-100.5,8.6-151.2,6.4c-46.1-2-92.2-4.6-138.4,1.3c-52.8,6.8-100.2,26.8-144.1,55.8
			c-48.3,31.9-95.5,65.5-144.5,96.2c-102.2,63.9-210.6,81.4-325.6,38c-14.3-5.4-29-11.2-41.6-19.7c-26.8-18-51.3-34-86.1-14.6
			c-18.5,10.3-41.7,2.3-62.3-3.4c-73.2-20.1-147-34.6-223.5-23.2c-81.5,12.2-148.9,47.6-194.9,117.9
			c-57.1,87.1-36.2,186.7,49.8,238.3c6.9,4.1,14.5,6.9,21.7,10.5c17.6,8.9,27,6.2,30.9-15.8c5.9-33.1,16.6-65.3,30.3-96.2
			c39.3-88.5,108.6-135.4,204-144.9c85.8-8.6,171.5-1.4,257.1,2.6c104.8,4.9,208.8,18.2,312.5,33.7c9,1.3,16.1,3.5,20-9.2
			c24.4-79.2,84.2-116.4,160.8-132.3c64.3-13.3,129.9-10.9,195.1-13c104.1-3.2,208.2-3.8,312.3-6.6c17.5-0.5,24.5,2.3,23.9,21.7
			c-1.1,37.6,3,32.3-32.9,33.1c-140,2.9-280.1,5.7-420.1,9.3c-30.8,0.8-61.3,6-91.1,14.1c-72,19.5-111.6,80.9-102.3,157.8
			c4.7,38.8,15.7,75.8,32,111.4c20.8,45.3,43.5,89.6,61.1,136.3c50.4,134,7.4,270.9-108.2,340.3c-66.4,39.9-139.7,45-214.8,38.7
			c-44.6-3.7-88.3-13.2-132.2-21.7c-8.1-1.6-14.2-3.6-13.5,8.6c4.9,92.1-23.6,178.1-50.3,263.9c-30,96.6-42,194.1-33.2,294.9
			c5.8,66.4,8,133.2,11.1,199.9c0.6,12.5,4.2,22.3,12.4,31.6c133.1,151.4,293.8,250.8,498.4,272.9c164.1,17.7,328,35,493.3,34.4
			c69-0.3,137.4-8.1,205.6-18.7c82.5-12.8,153.2-50.7,222.2-95c70.4-45.2,137.9-94.2,206.5-141.8c50.7-35.2,62.7-80,54.2-136
			c-4.5-29.7-9.8-59.4-12.5-89.2c-1.4-15.5-8.6-19.3-21.9-20.7c-36.6-3.8-72.3-12.5-106.1-27c-84.8-36.2-135.2-97.5-147.3-191.7
			c-23.3-181-28.3-362.5-17.7-544.3c1.9-31.9-7.8-52.8-33.6-70.1c-38.4-25.9-69.4-58.7-84.5-103.8c-2.8-8.4-7.5-11.6-16.1-11.4
			c-11.7,0.4-23.6-1.2-35.2,0.1c-20.6,2.3-28.8-4.4-27.3-26.4c2-28.2,0.5-28.3,29.7-28.3c6.6,0,13.3-0.6,19.8,0.2
			c15.3,1.8,22.8-2.8,27.1-19.6c13.2-51.4,51.7-75.3,100.6-87c37-8.8,40.9-14.7,35.1-51.7c-1.8-11.2,0.7-15.7,11.5-18.4
			c40-9.9,44.7-6.3,44.3,35.6c-0.4,45.2-27.6,77.6-74.6,86.9c-31,6.1-57.7,16.3-65.9,55c55.7,0,109.8-0.1,163.9,0
			c13,0,10.8-8.7,10.5-16.8c-1.7-42.7,9-82.6,27.5-120.8c38.2-78.9,85.5-96.6,162.4-82.7c138.3,25.1,246.5,97.2,317.2,220.9
			c21.4,37.4,32.5,78.7,35.1,121.5c11.1,182.2,20.9,364.4,31.8,546.6c8.2,136.1,16.9,272.2,20.4,408.6c2.4,94.7-1.8,189.4-33.7,280
			c-27.3,77.4-85.2,114.4-165.2,119.4c-153.2,9.5-306.4,7.3-459.6,0.3c-33.2-1.5-56.8,14.7-84.2,25.4
			c-73.6,28.7-150.7,42.2-228.9,48.8c-131.3,11.2-262.2,4.1-393.1-7.3c-97.1-8.5-194.3-16.2-290.3-33.5
			c-158.6-28.5-288.9-109.3-403.5-219c-7.7-7.4-14.2-15.9-25.4-28.5c-2.2,57.2-3.1,106.9-14.3,155.5
			c-18.1,79.2-57.2,142.8-135.4,175.1c-42.7,17.7-87.9,22.1-133.8,18.9c-55-3.9-109-14.1-161.8-29.6
			c-61.9-18.2-84.3-71.7-55.8-129.8c12.3-25.1,32.4-43.3,53.3-60.6c77.8-64.5,91.4-137.7,42.4-227c-22.7-41.3-50.7-78.9-80-115.5
			c-104.1-130.4-137.5-280.4-124.7-443.7c9-115.5,36-226.8,76.3-335.2c2.3-6.2,5.1-12.1,7.6-18.2c36.4-88.5,100.7-139.8,197.3-149.2
			c18.8-1.8,37.7-6.1,55.7-11.9c37.6-12.2,50.9-41.3,37.7-78c-13.6-37.6-43.7-53.2-79.3-40.7c-7.6,2.7-15.1,5.6-22.4,9.1
			c-120.4,57.6-250.6-36.7-270.9-150.4c-17.4-97.5,21.9-175.5,94-237.6c83.2-71.7,183.1-87,288.8-77.8
			c42.5,3.7,83.7,13.6,124.9,24.7c52.2,14.1,70.5,3.1,85.1-49.2c9.2-32.8,8.4-65.1-4.6-96.9c-4.2-10.3-10.7-15.9-21.9-18.9
			c-83.4-23-161-14-231.4,39.2c-14.6,11-29.3,22-44.3,32.5c-45.7,32.1-93.6,22.4-121.6-25.8c-31.7-54.6-37.4-115.4-35.8-176.6
			c4.4-170,84.5-296.9,226.1-386.9C554.7,126.5,668.3,94.3,786.9,77c110.7-16.1,222.2-17.1,333.6-17.3c298.5-0.5,597-0.6,895.5,0.7
			c104.8,0.5,209.5,3.4,313.3,22c162.4,29.1,286.7,114.5,377.1,250.2c17.1,25.6,33.6,39.6,66.2,34.9c26.2-3.8,52.3,5.4,77.2,14.2
			c75.4,26.5,107,75.7,88.1,153c-12.5,50.9-18.7,99.6-11.6,151.8c6.2,45.9-3.4,90.8-35.8,127.5c-8.2,9.3-1.4,16.6,2,24
			c16.6,35.8,27.2,72.6,21.9,112.7c-7,52.4-48.8,97.2-103.4,110.3c-54.5,13.1-119.7-9.1-148.2-49.7c-15-21.3-20.7-45.5-20.9-70.6
			c-0.1-15.9-6.7-25.5-18.1-34.9c-42.1-34.4-91.1-52.4-143.6-62.3c-68.4-12.9-137-12.1-205.7-0.7c-44.1,7.4-82.2,25.9-112,59.9
			c-35.8,40.8-69.5,83.3-96.7,130.5c-13.3,23.1-22.7,47.9-25.6,74.3c-1.5,13.6-5.7,18.2-19.9,17.7c-38-1.3-38-0.5-31-38.4
			c5.9-32.1,18.1-61.6,34.9-89.6c29.2-48.6,64.5-92.7,102-134.9c52.7-59.2,123.7-75.2,198.4-80.2c70.6-4.8,140.6-0.3,209.3,18.6
			c35.7,9.8,68.9,24.7,99.4,45.6c10.5,7.2,13.9,5.7,16.8-7c4.7-20.7,2.5-37.8-7.6-58c-34.6-68.8-15-132.5,27.3-191
			c8.4-11.7,9.6-18.5,4-32.2c-20.5-49.9-18.8-100.1,6.1-148.7c3.4-6.6,7.4-11.5,1.9-19.6c-71.5-106.2-156.1-195.5-283.9-234
			c-88.6-26.7-179.2-37.2-271-39.1c-322.7-6.6-645.4-2.6-968.1-3.2c-108.5-0.2-217.1-0.5-325.2,11.8
			c-135.6,15.5-265.2,48.6-378.4,129.3c-93.8,66.9-154.3,155.9-170.5,271.3c-8.1,57.6-6.7,115.5,11,171.9c1.8,5.6,3.5,11.2,5.9,16.5
			c15.6,34.7,30.1,39.4,60,16.3c44.3-34.2,88.7-69.6,145.3-78.2c36.5-5.5,52.8-20.5,67-55.5c43.4-107.3,131.5-168,238.2-202.4
			c82.6-26.6,168.3-31.1,254.6-24.8c46.8,3.4,93.5,7.6,140.2,11.5C1208.7,382.5,1210.6,383.6,1212.5,384.8z M330.9,1270.6
			c11.5-4.9,20.8-9.2,30.3-12.7c23.7-8.8,47.8-14.1,73.1-7.7c49.5,12.5,87.2,60.7,89.9,115.2c2.6,51.4-25.8,91.5-79.6,111
			c-28.4,10.3-58.3,14-88.1,18c-36.1,4.9-67.9,19.1-91.5,47.4c-46.8,56-63.6,124.8-83.4,195.4c11.2-2.9,18.8-5,26.5-7
			c52.2-13.3,104.6-16.8,155.9,2.2c66.1,24.5,119.8,67.4,164.9,120.6c17.3,20.4,25.4,46.2,26.2,73.3c1.9,62.9-22.3,112.7-76.2,146.4
			c-11.2,7-11.6,10.9-3.4,20.6c12.9,15.4,19.9,33.9,23.1,53.9c14,88.7-44.5,191.2-127.9,224.7c-25,10-51.3,14.5-79,18.1
			c17.5,27.9,35.3,53.1,49.7,80.1c50.2,94.2,63.6,219.8-56.2,299.6c-14.5,9.7-27.2,22.3-35.5,38.5c-15.6,30.3-8,49.2,25.2,57.7
			c49,12.5,98.4,22.7,149,26.3c104.9,7.4,180-40.1,204.9-130.6c7.8-28.3,12.2-57.3,14.3-86.6c8.2-113.8,1.3-227.4-7.6-340.6
			c-9.2-116.7-5.3-231.1,32.4-343.2c15.4-45.7,27.7-92.6,38.3-139.7c16.9-75.1,18.7-149.8-15.9-221.5c-14.2-29.4-36.9-49.3-67.6-59
			c-42.4-13.4-86-19-130.2-12.4c-14.3,2.1-20.5-1.2-20.7-15.5c-0.1-6.6,0.1-13.4-1.3-19.7c-3.3-13.9,3-18.9,15.8-19
			c25.7-0.1,51.4-1.9,76.9,0c83.9,6.1,154.9,36.7,183.5,122.1c12.8,38.2,33,50.9,69.7,56.3c66,9.7,131.1,23.7,198.6,14.4
			c135.6-18.7,217.6-139.4,184.3-272.1c-10.6-42.3-30.8-80.6-49-119.6c-26.7-57.2-53.7-114.4-57.3-178.7
			c-0.9-16.1-6.4-20.9-20.9-23.2c-160.3-25.2-321.8-36.8-483.9-39.4c-36.4-0.6-73.4,1.9-109.2,10.5
			C398.8,1093.9,338.1,1173.5,330.9,1270.6z M2139.5,1744.7c-6.6,116,2.2,231.4,14.5,346.6c6.2,58.3,23.1,110.1,75.2,144.6
			c38.9,25.7,82.2,37.6,127.2,45.5c14,2.5,11.8-6.2,10.8-14.4c-11.9-90.9-19.1-182.2-23.1-273.8c-4.3-97.6-4.5-195.1,15.7-291.3
			c32.5-154.3,115.1-264.1,274.8-303.7c33-8.2,33-8.1,17-37.7c-1-1.9-2.3-3.7-3.5-5.6c-63.7-105.5-158.2-166.6-277.9-189.1
			c-31.8-6-65.1-6.5-87,26c-27.4,40.7-42.2,85.1-37.7,134.7c3.6,40.2,38.3,81.5,77.4,92.9c26.3,7.7,41.7,0.2,52.3-25.4
			c8.2-19.7,10.4-41.2,4.8-60.4c-7.3-25,3.8-32.5,24.1-36.5c2.9-0.6,6-0.8,8.5-2.1c11.7-5.9,15.1,0,17.6,10.6
			c6.3,26.8,7.8,53.9,2.9,80.8c-14.5,79.9-78.5,111-151,74.1c-26.7-13.6-48.7-32.9-64.4-58.3c-6.8-11-14.5-14.4-26.6-14.3
			c-49.9,0.3-99.7-0.2-149.6-0.3c-5.6,0-13.3-2.8-16.4,2.6c-3.7,6.6,3.3,12.1,6.6,17.5c16.4,27,42.3,44.4,66.8,62.9
			c28.6,21.6,41.7,49.4,41.2,85.2C2138.9,1618.6,2139.5,1681.6,2139.5,1744.7z M142.1,1994.9c-1.6,106.1,20.2,220.2,91.8,320.7
			c6.3,8.9,11.7,17.5,24.8,19.1c93,11.6,172.1-47.5,185.8-140.4c3.7-25.5,4.4-50.4-14.4-72.7c-35.3-41.8-29.7-66.3,18.8-93.4
			c59-33,70.5-110.9,23.3-159c-18-18.4-39.2-32.9-59.2-48.9c-73.2-58.4-151.7-56.7-233.9-23.4c-10,4.1-14.5,9.7-16.7,20.3
			C151.3,1871.1,145,1925.5,142.1,1994.9z M2176.6,2756.6c8.9,1.9,11.6,2.9,14.4,2.9c131.8,2.6,263.7,5.9,395.5-3.3
			c59.7-4.2,100-34,117.6-92.1c4.5-14.7,8.9-29.4,11.7-44.5c15.9-85.5,18.6-171.6,13.9-258.3c-0.8-15.3-6.9-15.5-18.9-14.9
			c-79.1,3.7-158.2,4.3-237.3-0.3c-43.5-2.5-42.5-3.5-36.5,39.6c5.5,39.7,16.1,79,8.9,119.8c-13.3,74.8-59.5,123.7-123.9,158.2
			C2272.9,2690.2,2230.2,2726.1,2176.6,2756.6z M2723.2,2257.8c-19.4,3.1-38.7,7.2-58.2,9.1c-118.8,11.4-209-84.1-191.9-201.7
			c12.3-84.7,91.7-177.8,218.1-160.2c6,0.8,14.3,5.5,13.5-6.6c-0.5-7.2,2.1-17.5-11.2-16.7c-3.7,0.2-7.3,0-11,0
			c-88,0-175.9,0.5-263.9-0.4c-18.1-0.2-23.6,4.7-23.3,23.1c1.7,123.2,11.9,245.8,26,368.1c1.5,12.8,6.8,17.2,19.4,18
			c84.9,5.4,169.9,6.9,254.9,2.7C2729.1,2291.6,2729,2290.8,2723.2,2257.8z M2652.1,2213.2c14.6-0.5,29.4-0.9,43.3-5.8
			c11.1-4,28.5-1.3,25.1-22.4c-2.8-17.1,9-39.1-23.1-43.7c-31.4-4.5-51.3-34.1-50.7-65.3c0.6-30.9,20-55.3,51.6-62.3
			c8.6-1.9,14.6-3.9,12.5-13.2c-2.9-13.2,7-33-12-38.2c-51.2-14.2-97.8-3.8-134.7,35.6c-39.3,42.1-50.7,91.5-29.1,146
			C2552.7,2188.3,2596.5,2213.5,2652.1,2213.2z M2579.2,1828.2c-14.9-9.5-24.4-15-33.3-21.2c-78.1-54.8-94.7-138.8-43-219
			c31.5-48.9,76.4-80.1,131.3-97.6c11.8-3.8,24.1-6.5,36.3-8.8c17.8-3.4,7.4-15.9,8.1-24.5c0.8-9.6-4.6-12.4-14-10.5
			c-74.4,14.9-138.4,47.7-184.7,109.3c-57.4,76.3-74.4,165.6-80.8,258.2c-0.7,10.2,2.3,14.4,13.2,14.3
			C2465.7,1828,2519.1,1828.2,2579.2,1828.2z M2685.1,1564.9c0-7.3-0.3-13.1,0.1-19c0.6-10.2-3.8-12.3-13.3-10.2
			c-60.5,13.7-107.5,45.6-134.7,102.3c-19.6,41-12.1,76,20.2,108c24.1,23.9,53.3,39.7,86.2,45.3c67.9,11.6,54.9,13,52.9-45.5
			c0-0.7-0.2-1.5-0.2-2.2c0.8-14.1-4.5-19.6-19.9-20.9c-42.9-3.5-68.7-41.1-56.6-80.6c7.4-24,24.1-40.4,47.3-48.5
			C2682.9,1588.1,2691.1,1580.8,2685.1,1564.9z M2791.2,799.9c45.2,1.1,70.9-20.4,79.4-64.6c5.8-30.1,3.1-59.8-1.4-89.6
			c-1.6-10.3-6-14.8-17.3-14.3c-31.6,1.4-63-2.2-93.7-9.7c-40.7-10.1-46.7-7.9-64.7,31.3c-7.6,16.6-12.3,34.3-13.4,52.8
			c-3,51.2,17.3,78,67.6,89.3C2762,798.3,2776.5,799.5,2791.2,799.9z M2839.1,578.2c15.3,0.6,32.1,4.6,38.1-16.1
			c6.9-23.9,12.7-48,11.4-73.3c-0.9-17.4-8.3-31.1-23.4-39.8c-33.6-19.3-69.5-30.8-108.8-28.4c-15.1,0.9-25.5,7.6-32.3,22
			c-12.3,26-10.8,52.6-6.3,79.5c3.3,19.5,14.9,32.4,33.3,40.3C2779.4,574.5,2809.4,575.2,2839.1,578.2z M2695.5,908.9
			c-2,57.6,8.9,79.1,41.8,93.6c35.9,15.8,75.6,9.2,101.7-16.8c28.9-28.8,29.8-99.9,2-130.3c-3.5-3.9-7.3-4.4-11.7-3.7
			c-38.3,6.1-75.8,0.9-112.8-9c-8.9-2.4-13.3-1.3-14.3,9.2C2700.1,874.3,2697,896.8,2695.5,908.9z M2688.5,1644.1
			c-10.4,3.7-19.2,8-15.8,19.8c1.7,5.8,10.2,8.6,14.4,5.4C2696.2,1662.3,2690.2,1653.1,2688.5,1644.1z"/>
		<path class="st0" d="M1355.3,2425.7c-173.2-6.5-342.1-71-459.5-238.2c-56.8-80.9-85.1-172.9-97.9-270.2
			c-1.7-12.8,0.9-18.1,15.4-18.7c36.3-1.5,35.5-2.2,41.4,33.2c32.2,192.5,130.6,333.2,318.2,402.5c124.3,45.9,251.1,47.5,378.5,15
			c111.5-28.4,216.7-72,308.4-142.8c80.9-62.5,137.1-142.3,154-245.4c10-61.3,3.9-121.3-20.8-178.9c-51.3-119-161.8-149.5-260.9-141
			c-16,1.4-32.1,3.9-47.6,8c-11.7,3.1-14.7-0.2-17.6-11.1c-11.7-45-17.9-37.5,27.4-45.9c74.6-13.8,148.1-7.6,216.5,27
			c97.5,49.3,145.6,134.5,157.6,239.2c20.2,175.5-57.4,308.9-196.6,405.5C1724.8,2366,1560.2,2423.3,1355.3,2425.7z"/>
		<path class="st0" d="M1212.5,384.8c-1.9-1.1-3.8-2.2-5.7-3.4c-49.9-24.1-103.3-36.8-157.2-46.6c-112.5-20.5-223.8-17-330.1,29.2
			c-115,50-202.3,128.4-243.2,250.8c-3.9,11.7-8.9,12.2-19,8.9c-43.8-14.2-41.8-2.7-24.8-46.9c37.6-98.3,105.2-171.9,194.4-225.5
			c172.2-103.5,353.6-98.5,538.8-43.4c82.5,24.6,158.3,65,235.8,101.2c79.8,37.2,161.3,52.4,246.8,20.3
			c24.9-9.3,48.4-21.2,69.2-37.6c9.6-7.5,14.9-7.6,22.6,2.6c26,34,34.8,25.3-7.5,52.3c-112,71.5-228.3,67.9-346,14.9
			c-49.4-22.2-98-45.9-147.1-68.8C1231,388.9,1222.7,383.5,1212.5,384.8z"/>
		<path class="st0" d="M1310.1,498.5c117.8,6.2,235.7,12.8,353.5,18.2c15.1,0.7,15.9,6.2,15.2,18.5c-2.2,35.3-1.8,36.4-36.9,34.7
			c-125.9-6.1-251.8-13.1-377.7-19.5c-84.9-4.3-169.8-8.4-254.8-11.8c-36-1.4-71.9,1.4-106.1,14.2c-47.3,17.8-82.4,47.7-92,100
			c-1.8,9.9-6.4,11-14.6,11.5c-41.4,2.7-46.6-2.9-33.7-42.5c19.3-59.3,61.8-96.3,118.6-118.5c42.4-16.6,87-20.5,131.9-18.8
			c98.9,3.8,197.7,9,296.5,13.6C1310.1,498.2,1310.1,498.4,1310.1,498.5z"/>
		<path class="st0" d="M1137.9,568.4c141.9,0,258.4,23.2,375.3,43.4c54.1,9.3,107.9,19.8,162.2,28c17.9,2.7,24.6,8.8,19.3,26.2
			c-0.2,0.7-0.3,1.4-0.4,2.2c-5.2,29.6-5.2,29.7-34.3,24.5c-114.5-20.2-228.8-42.3-344-58.5c-94.7-13.3-189.7-18.3-284.6-2.4
			c-36.6,6.1-70.7,18.9-100,42.6c-11.6,9.3-22.4,20.3-26,34.7c-4,16.1-12.5,17.3-25.6,12.6c-4.7-1.7-10.1-1.9-15.1-2.4
			c-14.9-1.6-17.2-8.7-12.3-22.4c19.1-52.5,59.4-81.9,109-101.3C1025.5,570.6,1093,569.2,1137.9,568.4z"/>
		<path class="st0" d="M1357.4,2182.9c-12.3,0-24.6,0.7-36.8-0.1c-61.2-4.4-96.4-54.6-81.9-119.3c12.2-54.8,41.9-95.4,98-113.8
			c46.1-15.2,92.8-26.5,140.9-31.7c10.8-1.2,22.1-1.3,32.8,0.2c67.9,9.4,99,60.4,73.5,124.1c-33.6,83.9-98.6,127.6-187.1,138.2
			C1383.8,2182,1370.6,2182.1,1357.4,2182.9z M1356.3,2129c0-0.5,0-0.9,0-1.4c10.2,0,20.6,0.8,30.7-0.1
			c59.9-5.5,107.7-31.5,137.9-85c9.6-17.1,21.4-36.7,9.1-55.6c-12.8-19.7-35.8-16.4-56.3-14.4c-42.5,4-83.2,15.4-123.7,28.3
			c-38.5,12.2-56,40.8-63.1,77.2c-6.8,34.6,6.3,49.5,41.2,51C1340.1,2129.3,1348.2,2129,1356.3,2129z"/>
		<path class="st0" d="M2020.6,636.4c-0.5,131.1-109,240.7-240.4,243.6c-15.4,0.3-21.9-3.6-18.5-19.6c1.2-5.7,1.1-11.7,0.7-17.6
			c-0.7-12.4,3.1-17.5,17.3-17.9c149.6-4.8,236-166.9,157.4-293.9c-4.4-7-16-14.9-10.6-21.8c9.2-11.8,22.4-21,35.3-29.2
			c5.8-3.7,9.2,5.5,12.3,9.9C2005.5,533.6,2018.9,583.2,2020.6,636.4z"/>
		<path class="st0" d="M873.4,895.8c-7.3-4.8-24.9,7.2-25.7-11.4c-1.3-27.9,9.6-41.9,28-42.6c30.8-1.2,58.1-13.4,84.3-28.5
			c34.2-19.7,66.4-42.8,102.9-58.8c16.1-7.1,26-6.8,28.7,13.2c0.9,6.4,2.8,12.9,5.5,18.9c3.7,8.5,1.8,12.6-7.1,15.8
			c-30.5,11.1-57,29.7-84.3,46.7C965.4,874.2,923.7,894.8,873.4,895.8z"/>
		<path class="st0" d="M1009.8,2519.8c-26.3,0.2-45.9-19.2-45.8-45.4c0.1-25.7,20.7-46.3,46.1-45.8c23.9,0.4,44.7,21,45.3,45
			C1056,2499,1035.7,2519.6,1009.8,2519.8z"/>
		<path class="st0" d="M1580.6,2536c-0.1,25.6-20.8,45.7-46.4,45.3c-24.6-0.4-44.7-20.3-45.2-44.7c-0.5-24.7,21-46.7,45.7-46.9
			C1559.8,2489.4,1580.7,2510.6,1580.6,2536z"/>
		<path class="st0" d="M1661.9,1899.1c26.2-0.4,46.3,19.1,46.4,44.9c0.1,25.4-20.8,46.5-45.9,46.3c-23.6-0.2-44.9-21.1-45.7-44.8
			C1615.8,1920.2,1636,1899.5,1661.9,1899.1z"/>
		<path class="st0" d="M986.4,2094.3c0.3-25.5,21.6-46.1,46.6-45.3c23.8,0.8,44.6,22,44.7,45.8c0.2,24.7-21.6,46.5-46.4,46.3
			C1005.9,2140.9,986,2120.2,986.4,2094.3z"/>
		<path class="st0" d="M1193.4,2097.2c-0.7,24.6-21.1,44.3-45.5,43.9c-24.7-0.3-46-22.4-45.5-47c0.6-25,22.8-46.1,47.4-45.1
			C1175.4,2050.2,1194.2,2071.1,1193.4,2097.2z"/>
		<path class="st0" d="M1752.7,2501.9c0.5,26-19.1,46.6-44.8,47c-25.1,0.4-46.4-20.7-46.4-45.8c0-24.9,18.9-44.3,44.1-45
			C1732.2,2457.2,1752.2,2475.9,1752.7,2501.9z"/>
		<path class="st0" d="M2056.8,2429.9c0,25.7-20.4,46.1-45.8,45.8c-25.2-0.3-45.5-21.4-45-46.8c0.5-24.3,20.8-44.6,44.9-44.9
			C2036,2383.6,2056.8,2404.4,2056.8,2429.9z"/>
		<path class="st0" d="M1167.6,2564.7c-25.9-0.1-45.5-20-45.2-46.2c0.3-24.9,19.5-44.2,44.6-44.6c25.6-0.4,46.6,19.9,46.8,45.2
			C1214.1,2544.4,1193.4,2564.7,1167.6,2564.7z"/>
		<path class="st0" d="M1813.6,1854.8c25.1,0.2,44.2,19.3,44.4,44.3c0.2,25.7-20,46-45.6,46c-25.4-0.1-46.3-21.1-45.9-46.1
			C1766.9,1873.4,1787,1854.5,1813.6,1854.8z"/>
		<path class="st0" d="M1891.8,2430.9c25.7,0,44.7,18.2,45.1,43c0.4,25.4-20.1,45.9-45.9,45.9c-25.8,0-46.5-20.4-46.2-45.6
			C1845,2448.8,1864.6,2430.9,1891.8,2430.9z"/>
		<path class="st0" d="M1352.6,2538.8c-1.3,25.2-23.4,44.4-48.8,42.5c-24.3-1.8-42.8-22.9-41.8-47.6c1-25.3,23.3-45.8,47.9-43.9
			C1335.5,2491.7,1353.9,2512.9,1352.6,2538.8z"/>
		<path class="st0" d="M2770.4,760c-28.4-0.7-49.5-18-53.9-44.1c-4.1-24.1,11.6-46.5,39.1-55.5c11.7-3.8,23.6-8,36.3-5.9
			c29.1,4.8,48.1,27,45.1,52.4C2833.3,737.6,2804.1,760.8,2770.4,760z"/>
		<path class="st0" d="M2794.7,535.9c-24.8,0.4-43-17.1-43.6-42.1c-0.7-27.8,19.5-47,49.3-46.9c21.7,0.1,40.3,18.5,41.1,40.6
			C2842.4,512.6,2820.3,535.5,2794.7,535.9z"/>
		<path class="st0" d="M2826.5,924c-0.4,30.8-30.1,56.3-64.6,55.3c-30.4-0.9-51-22.2-50.3-52c0.8-34.5,26.3-62.9,55.5-62.1
			C2799.8,866.2,2826.9,893,2826.5,924z"/>
	</g>
</g>
</svg>
