<?xml version="1.0" encoding="utf-8"?>
<!-- Generator: Adobe Illustrator 23.0.0, SVG Export Plug-In . SVG Version: 6.00 Build 0)  -->
<svg version="1.0" xmlns="http://www.w3.org/2000/svg" xmlns:xlink="http://www.w3.org/1999/xlink" x="0px" y="0px"
	 viewBox="0 0 3000 3000" style="enable-background:new 0 0 3000 3000;" xml:space="preserve">
<style type="text/css">
	.st0{stroke:#000000;stroke-width:10;stroke-miterlimit:10;}
</style>
<g id="Layer_1">
</g>
<g id="Layer_2">
	<g>
		<path class="st0" d="M2303.1,1654.9c68.5-43.3,139.1-77.4,214.7-100.6c62.3-19.2,125.9-31,190.9-35.5c15.9-1.1,34.5-10.2,36.3,20
			c1.6,25.8-6.1,33.5-31.6,34.9c-136.7,7.8-261.5,51.9-377.4,124.4c-28.7,17.9-44.7,37.2-39.2,72.6c3.1,19.6,0.6,40.2,0.6,61
			c17.1-1.1,23.7-10.7,32.1-16.5c103.1-71,217.3-104.8,342.2-103.4c18,0.2,33.3-0.6,31.7,27.3c-1.4,25-8.8,29.3-32.4,28.5
			c-129.7-4.3-244.2,37.4-345,118.4c-14,11.2-20.4,22.2-16,41.4c7.2,31.5,9.4,64.2,15.9,95.9c25.5,124.4,100.3,187.5,227.8,193.4
			c11.9,0.5,23.9-0.4,35.7,0.5c31.1,2.2,43.8-3.9,48.4-42.5c3.1-26.4,5.1-54.7,9.9-81.8c3.9-22.1,22.6-9.4,34.5-11.9
			c12.2-2.5,18.6,1.5,20.3,16.6c4.7,42.5-19.1,80.6-14.1,123.9c5.8,50.4-1.9,101.4-11.6,151.5c-39.8,204.9-152.1,354.8-339.1,448.2
			c-158.3,79.1-327.4,116.4-502.5,129.8c-191.4,14.7-382.9,8.2-574.4,2.1c-153-4.8-289.3-54.8-415.9-138.1
			c-55-36.2-111.3-70.7-171-99.2c-67-31.8-136.4-47.1-210.8-40.5c-44.2,3.9-88.6,5.5-132.6-3.5c-45.7-9.3-82.5-32.3-108.4-71
			c-52.1-78-58.7-218.8,15.5-275.3c11.5-8.8,6.6-15.9,1-24.3c-60.8-90.7-74.4-189.6-50.2-294.7c3.3-14.3-0.6-24.8-7.7-36.3
			c-21.2-34-29.1-72.2-30-111.5c-1.8-80.1,34.8-132.4,110.5-160.6c41-15.3,54.6-27.6,77.4-73.2c-16.3,8.3-28,13.6-39.1,20
			c-36,20.5-71.4,16-104.5-5c-56.7-35.8-93.8-86.8-89.8-155.3c6.5-110.7,27.5-218.8,86.5-315.8c42.1-69.2,104.2-114.6,176.8-147.2
			c12.6-5.7,25.3-11.4,38.4-17.3c-3.3-14-14.7-19.7-22.5-27.8C231.9,817.1,209.4,611,330.3,427.1C425.8,282,556,176.8,721.4,119.7
			c217-75,421.4-6.1,554.6,186.3c15.9,22.9,24.7,23.4,46,7.9c52.4-38.1,107.5-72.6,160.6-109.8c121.5-85,257.8-117.8,404.1-117.8
			c188.3-0.1,376.5-12.8,565-6.5c114.9,3.9,228.7,16.1,340.3,45.1c8.4,2.2,16.7,4.3,25,6.8c109.7,33.1,154.9,109.5,129.1,221.4
			c-15.1,65.2-45,123.8-88.4,174.8c-9.2,10.8-12.7,21-13.3,34.6c-8.2,180.5-17,361-25.4,541.6c-0.7,15.7,1.6,32.1-22.5,28.6
			c-14.8-2.1-38.5,7.9-32.5-23.3c2.5-12.8-6-17.2-16-20.2c-75.6-22.6-152.1-34.8-230.1-14.7c-61,15.7-106.5,51.2-131.7,110.4
			c-37.7,88.7-45.1,183.9-62,276.5c8.7,3.7,12.5-0.8,16.6-3.7c120.7-85.3,254.3-108.1,398.3-83.8c22.6,3.8,15.9,18.6,17.4,31.4
			c1.9,16.1-6.3,20.9-21.1,19.8c-14-1.1-28.3,0.3-42.1-1.7c-115.8-16.7-219.3,13.3-317.4,75.3
			C2317.7,1535.6,2294,1583.7,2303.1,1654.9z M2617.6,2392.6c-41.7,5.7-80.1,8.2-118.7,8.3c-186.4,0.6-315.4-102.5-353-284.7
			c-12.7-61.6-16.1-124.5-15.6-187.4c1.5-172.1,7.6-344.2,20.9-515.7c7.9-101.4,22.9-202.2,69.2-295.2
			c54.8-110.1,142.4-173.3,265-189.2c88-11.4,172.6,3,255.6,29.7c21.6,7,30.8,7.1,31.7-19.6c4-117.9,9.4-235.7,15.1-353.5
			c0.9-17.9-5.1-21.4-21.8-21.6c-38.9-0.6-77.9-2.7-116.7-5.8c-99.7-7.9-184.6,16.8-241.2,106.2c-1.7,2.7-3.5,5.9-6,7.6
			c-18.2,12.3-26.1-7.8-38.7-12.8c-11-4.4-10-11.8-3.9-20.4c47.8-67.5,105.3-118.7,192.1-131.1c72.9-10.4,144.8,1.9,217.2,1.5
			c25.2-0.1,44.2-8.3,58.4-28.3c31.6-44.5,56.4-92.5,67.5-146.2c16.1-77.7-12.4-125-87.7-149.4c-9.2-3-18.8-5.1-28.2-7.6
			c-132.9-34.9-268.7-45.2-405.3-45.4c-179.7-0.2-359.3,7.5-538.9,11.6c-115.5,2.7-216.1,41.2-313.6,100.3
			c-194.8,118.2-364,267.4-529.6,421.8c-179.8,167.6-371,318.5-604.2,407.5c-49.7,19-93.5,49.6-127,92.7
			c-73.8,95.1-92.8,207.5-100.3,322.9c-2.6,40.6,19.5,71.6,51,96.6c25.2,20,49.5,23.7,76.8,4.4c13.1-9.3,27.4-17.7,42.4-23.5
			c14.4-5.6,24-11,22.8-29.1c-1.8-25.9,18.8-20.3,34.2-22.1c19.1-2.2,20.4,8.9,20.7,23.7c0.9,47.7,26.5,75.3,74,78.7
			c24.8,1.8,50,2.8,74.6,0.3c71.1-7.2,136.8-26.3,175.3-94.1c35.2-61.9,9.3-130.9-58.4-149.9c-27.5-7.7-16.5-26.9-17.6-41.3
			c-1.6-20.6,16.4-12.5,25.9-11.8c20.9,1.4,39.4,10.6,56.3,22.9c67.1,48.8,83,141.4,36.4,214.5c-37.6,59.1-92.5,95-160.6,105.4
			c-71.9,11-145.9,25.9-213.1-20.8c-11.4-7.9-12.2,4.4-14.7,10c-24.1,52.5-64.7,84.9-119.5,102c-46.9,14.6-60.6,52.9-60.8,96.7
			c-0.2,50,8.1,97.8,58.1,125.1c5.5,3,12.2,5,18.5,5.6c139.2,12.5,238.5,94.3,328.9,190.6c32.4,34.5,22.8,77.6-19.8,99
			c-29.4,14.8-61.4,20-93.7,23.6c-67.9,7.4-134.1,20.9-196.2,51c-36.3,17.6-56.2,46-62,85c-5.4,36-1.8,71,10.5,105.4
			c17.9,49.8,52.4,76.9,105,83.9c32.6,4.4,64.9,2.4,97.2,0c85-6.3,165.5,9.1,242.7,45.2c69.9,32.6,134.9,73.5,199,115.6
			c107.5,70.6,224.4,111,352.8,116.7c212,9.3,424.2,15.8,635.8-6.1c157.2-16.3,308.6-54.3,449.3-129
			C2481,2684,2574.6,2561.9,2617.6,2392.6z M937.8,634.8c2.5,0.1,4,0.7,4.6,0.2c103.1-85.6,195.5-183.4,301.7-265.5
			c7.4-5.7,4.4-8.5,0.5-14.8C1142,192.1,978.9,113.5,796.2,155.4c-174.9,40.1-308.9,143.3-411.1,286.9
			C260.9,617,288.3,821.5,449.4,963.8c10,8.9,18.1,17,33.7,8.9c125.6-64.9,243.6-141,343.9-241.3c41.6-41.6,67.2-92.9,56.3-155.6
			c-8.3-47.6-28.7-62.6-76.5-55.1c-41.1,6.4-75.8,25.1-103.8,55.6c-22.2,24.2-31.2-3.6-44.2-11.4c-19.4-11.7-0.6-19.8,5.7-26.6
			c40.7-43.9,92.1-67.3,150.9-74.4c50.8-6.1,94.8,21.1,112.4,69.1C939.9,565.9,943.5,600.1,937.8,634.8z M2764.4,1035.8
			c0.6-2.8,1.3-5.6,1.9-8.4c-7.3-3.7-14.3-8.1-21.9-10.9c-61.4-22.3-124.8-35.5-190.1-37.7c-149.5-5-252.7,65.1-302.8,205.6
			c-9.8,27.4-17.7,55.7-24,84.1c-26.5,120-31.9,242.4-35.1,364.5c-3.9,148-18,296.2,2.5,444.2c12.9,92.9,45.6,173.8,130.3,224.2
			c80.2,47.7,167.9,52.3,257.6,40.8c48.9-6.3,48.1-7.1,50.6-54.4c0.7-14.4-2.5-19.1-17.2-18.6c-27,0.9-54.2,1.5-81.1-0.4
			c-137.6-10-230.4-86.3-258.7-218.7c-27-126.1-40.1-253.8-32-383.5c5.8-94.2,21-186.8,36.4-279.5c12.1-72.4,22.8-145.2,51.3-213.9
			c31.5-76,86.2-126.2,164.7-149.1c46-13.4,93.3-16.6,141.4-12.1C2681.2,1015.8,2722.5,1027.7,2764.4,1035.8z M231.3,2114.8
			c-2.2,45.8,18.4,100.5,49.4,152.5c10.1,17,20.1,20.3,38.9,12.3c39.8-17,82.4-24.7,125.2-31.2c39.3-6,79.5-7.6,117.2-22.4
			c11.6-4.6,16.9-8.4,6.2-19.5c-74.7-77.5-152.8-148.9-265.7-166.1C231.1,2029.6,231.4,2028,231.3,2114.8z"/>
		<path class="st0" d="M2701.9,1880.8c0,8.6-0.7,17.4,0.1,25.9c1.8,19-1.8,29.8-25.4,29.3c-22-0.5-32-6.1-30-29.4
			c1.6-18.2,1.1-36.8,0.1-55.1c-1-17.4,3.9-24.3,23.2-25c24.6-0.9,36.6,5.1,32.1,31.6C2700.9,1865.5,2701.9,1873.3,2701.9,1880.8z"
			/>
		<path class="st0" d="M2756.7,1266.9c0,8.6-1,17.3,0.2,25.7c3.1,23-6.8,28.7-28.9,28.7c-21.5,0-28.5-6.8-26.3-27.4
			c1.4-13.8,0.1-27.9,0.3-41.8c0.3-19.3-6.9-40.2,27.9-39.4c32.2,0.7,26.4,19.6,26.8,38.2
			C2756.8,1256.2,2756.7,1261.6,2756.7,1266.9z"/>
		<path class="st0" d="M2674.1,1664.4c-20.8,4.3-27.1-4.1-27.8-25.3c-0.9-25.3,11.4-25.8,30.8-26.8c23.2-1.2,24.6,9.5,25.5,28.1
			C2703.8,1663.8,2693.4,1668,2674.1,1664.4z"/>
		<path class="st0" d="M2701,2016.4c5.6,24.4-6.2,27.8-26.2,28.6c-24.2,0.9-28-9.6-28.4-30.7c-0.4-22.3,8.8-26.3,28.6-26.8
			C2698.8,1986.9,2707.1,1995.3,2701,2016.4z"/>
		<path class="st0" d="M1504,2717.2c-33.6,0-67.2-1.2-100.7,0.4c-21.9,1.1-27.3-7.1-27.1-28c0.5-50.9-0.5-50.9-51.4-65.9
			c-201.6-59.1-299.1-291-198-475.6c51.2-93.4,136.5-129.8,239.3-124c32.8,1.8,39.6-6.9,39.7-36.8c0.1-58.4,3.9-116.8,6.3-175.1
			c3.3-80.8,44.3-133.7,120.1-159.2c15.7-5.3,20-9.1,14.8-26.5c-15.3-51.6-5.7-100.8,22.5-146c8.3-13.4,10.2-23.1,2.3-37.9
			c-30.2-56.5-21.2-111,14.1-161.9c8.8-12.6,10.9-21.9,7.2-37.7c-14.5-61.9-7-122.7,18.9-180.6c5.6-12.5,9.1-22.6,4.1-36.3
			c-27.5-76.4-27.4-150.1,21.9-219.4c7-9.9,8.2-24.3,10.9-36.9c12.6-58.6,37.5-111.1,81.7-151.9c85.3-78.6,173.9-152.8,283-198.1
			c74.7-31,151.4-44.2,231.5-30.8c74,12.3,107,70.3,82.2,141.7c-11.9,34.1-34.7,59.8-64.1,79.4c-63.1,42.2-130,77.4-200,106.7
			c-32.4,13.5-62.6,29.6-80.9,61.7c-5.4,9.4-7.7,15.5,3.3,24c62.5,47.8,73.8,116.5,71.8,188.6c-2.9,101.8-20.9,202.4-27.2,303.8
			c-16.9,269-33.3,538.3-15.5,807.7c6,90.5,10.8,179-19.2,265.9c-52.4,151.5-179.9,229.6-339.1,206.9c-21.8-3.1-27.7,2.7-26.7,24.1
			c1.6,33.5-0.4,67.1,0.7,100.7c0.6,17.4-5.7,22.2-22.6,21.6c-34.6-1.2-69.2-0.4-103.9-0.4C1504,2720.1,1504,2718.6,1504,2717.2z
			 M1630.7,2285.1c-0.2,0-0.4,0-0.6,0c0,66,2,132.2-0.9,198.1c-1.3,29.8,11.7,35.9,35.9,39.5c125.8,18.9,233.3-43.6,276.3-163.3
			c27.2-75.7,31.2-153.5,20.7-233.4c-15.5-117.4-9.2-235.7-6.4-353.5c4-173.1,6.1-346.3,23.7-518.8c9.1-89.3,22.2-178.3,23.7-268.3
			c1.7-103.3-36.8-155.7-134.9-181.7c-22-5.8-44.5-8.8-67.4-8.8c-111.4,0-171.2,78.3-142.8,186.2c4.9,18.6,12.9,24.8,31.9,19.8
			c31.8-8.5,64.4-8.2,96.8-4.8c65.5,6.9,105.2,42.5,116.8,106.9c12,66.3,13.6,133.4,11.5,200.5c-4.2,134.1-9.1,268.1-25.4,401.4
			c-10,81.6-5.4,164.5-18.1,245.9c-10.1,64.8-44.2,99.5-108.2,113c-35.6,7.5-71.4,5.9-106.2-3.1c-23.1-5.9-27,2.1-26.7,23.1
			C1631.3,2150.9,1630.7,2218,1630.7,2285.1z M1389.9,2330.4c2.2-142.8,6.2-207.9,11.1-223c0.8-2.5,4.8-14.1-0.5-21.7
			c-1.9-2.8-5.5-4.8-11.8-5.7c-85-11.4-173,10.6-216.9,99.4c-73.6,149.1-9.2,351.4,181.8,396c12.9,3,20.5,3.6,24.7,0.1
			c6.9-5.6,5.3-17.8,4.9-21.3C1380.7,2531.1,1383.5,2450.7,1389.9,2330.4z M1467.2,1930.9c-7.6,5.3-5.6,11.2-5.8,16.1
			c-6.1,143.6-12.1,287.2-17.9,430.8c-3.5,88.5-6.1,177.1-10,265.6c-0.8,17.2,4.6,22.8,21.6,22.2c31.3-1.1,62.8-1.6,94,0.2
			c21.7,1.3,27.5-6.3,27.4-27.3c-0.2-200,0.5-400,1-600c0-10.8,0.6-21-9.8-28.9C1533.8,1983.6,1500.4,1956.9,1467.2,1930.9z
			 M1830.4,1772.7c2.2-49.2,2.2-49.3-37.4-51.8c-59.3-3.7-118.3-9.1-176.6-21.7c-14.4-3.1-30.4-2.7-45.1-0.1
			c-49.3,8.6-87.5,33.2-100.7,84c-12.8,49.4,5.2,88.1,46.7,117.9c35.9,25.8,71,53,104.7,81.7c36.2,30.8,78,34.8,121.7,29.1
			c50-6.5,70.3-27.7,74.8-77.8C1823.7,1877,1827,1819.8,1830.4,1772.7z M1829.5,604c65,9.5,117.7,30.3,161.1,70.5
			c9.9,9.2,17.6,7.7,28.6,3.1c67.9-28.4,133.1-62,195.9-100.3c20.3-12.4,39.4-26.4,52.4-47.4c28.2-45.5,13.7-79.7-38.3-88.6
			c-9.5-1.6-19.2-3-28.9-3.3C2052.7,434.6,1940.7,510.8,1829.5,604z M1766,1260.7c0-0.8,0-1.5,0-2.3c23.8,0,47.6-0.5,71.4,0.2
			c15.9,0.4,23.9-4.2,22.5-22.1c-2.2-30.2-0.7-60.7-3.9-90.7c-8.4-77.8-36-100.6-114.3-97.8c-62.7,2.3-80.4,17.4-94.6,79.5
			c-5.8,25.6-6.9,51.5-5.5,77.4c2.2,40.6,15.2,53.5,56.2,55.6C1720.5,1261.6,1743.3,1260.7,1766,1260.7z M1789.1,1666.1
			c-1.9,0,4.8-1.1,11,0.2c28,5.7,41.3-4.8,42.6-33.9c1.2-29.1,4-58.3,8.2-87.2c3.6-25-5.7-30.6-29.8-30.5
			c-55,0.3-112.2,10.6-164.5-7.9c-37.4-13.2-45.2,3.4-54.4,30.1c-5.7,16.7-7.4,33.7-6.6,51.1c1.5,32.8,15.2,54,50.1,61
			C1690.4,1658,1735.3,1663.5,1789.1,1666.1z M1774.3,1461.8c20.1,0,35.4-1.2,50.3,0.3c23.1,2.4,33.6-4.6,32.5-29.9
			c-1.4-31.2-0.5-62.6,1.9-93.8c1.6-20.9-6.2-24.3-25.4-24.9c-62.3-2.2-125.2,9.5-186.7-8.1c-8.1-2.3-12.4,1.2-16.2,6.4
			c-20.8,27.6-28,58.6-17.4,91.5c9.6,29.9,31.1,48.9,63,53.5C1710.4,1461.8,1744.7,1466.2,1774.3,1461.8z M1710.7,753.4
			c71.1-15.9,136.8-16.7,202,7.8c28.1,10.5,25.4-22.7,38.6-33.9c11.8-9.9-1.5-16.8-8.5-22.2c-47.7-36.3-101.7-51.1-161.3-46
			c-12.5,1.1-22.7,6-30.4,16.2C1734.2,697.8,1719.7,721.5,1710.7,753.4z"/>
		<path class="st0" d="M841.9,989.5c47.3-26,96.2-47.3,149.2-59.3c97.2-21.9,193.7-9.1,290.4,3c36.4,4.6,72.6,11.5,109,16.3
			c12.7,1.7,23.2,5.4,17.2,19.3c-5.3,12.3,3.6,42.5-22.6,33.1c-58.9-21.1-86,14.9-119.4,52.1c-52.2,58.1-114.5,102.7-197.8,104.3
			c-78.1,1.5-133.7-35.3-172.3-101.2c-6.1-10.5-5.7-25.7-29-18.6c-14.5,4.4-19-25.3-33.5-34.8c-11.3,7.2-15.9,19.3-18.8,29.9
			c-8.3,29.4-24.3,25-45.2,14.9c-11.6-5.6-16.1-8.8-10.6-23.3c75.9-201.7,319.4-341.8,533-311.5c166.3,23.6,247.9,158.1,230.9,308.7
			c-20.5,182.2-149.2,311.3-337,343.6c-50.5,8.7-101.1,8.2-152,6.5c-19.2-0.6-31.5-5.3-26.8-28.3c3.5-17.3,4.2-29.4,30.9-26.8
			c120.7,11.7,233.3-12.1,327.4-93.5c87.5-75.7,117.4-174.7,100.8-286.8c-13.4-90.6-76.2-150.5-166.7-167.4
			C1128.2,737.7,924.3,834.3,841.9,989.5z M1255.9,985.8c-54.7-8.8-102.8-13.2-151.2-13c-52,0.2-103.2,6.7-152.6,24.6
			c-15.6,5.6-19.5,12.1-11.6,28.3c27.9,57.7,86.1,87.9,149.7,75.9C1160.6,1088.3,1206.5,1040.2,1255.9,985.8z"/>
		<path class="st0" d="M1601.4,663.6c-33.9-42.8-34-42.9,7.7-73.5c147.1-108.2,294.3-216,441.1-324.6c15.9-11.7,26.4-17.9,40.5,3.3
			c11.7,17.7,13.1,26.1-6.1,40C1923,426.3,1762.4,545.2,1601.4,663.6z"/>
		<path class="st0" d="M1172.7,1893.7c-81.4,0.4-99.4-24-70.6-100.1c17.5-46.2,29.5-94.6,60-135.6c15.2-20.4,5.8-46.4,5.7-69.7
			c-0.1-17.8,6.4-23.4,22.7-21.3c13.3,1.7,31.3-7.4,31.5,19.1c0.4,44.4,1.8,86.8-28.2,126c-24.2,31.5-28.9,73.9-45,110.4
			c-5.5,12.6-1.7,18,12.2,16.7c19.4-1.8,38.8-3.6,58.2-4.6c10.4-0.5,14.2-5.6,17.3-15.1c11.7-35.5,39.3-46.7,73.9-44.6
			c12.2,0.7,32-2.3,31.6,13.2c-0.4,15.1-9.4,37-27.8,38.6c-21.6,1.9-26.2,11.1-29.8,29.5c-3.6,18.2-17.9,28.8-37.5,30.4
			C1222.2,1888.9,1197.4,1891.4,1172.7,1893.7z"/>
		<path class="st0" d="M908.6,1857.2c13.8-100.8,27.4-199,40.4-297.2c3.4-25.6,21-19.1,36.3-17.7c14.5,1.3,22.4,5.8,19.5,24.6
			c-15.2,97.9-29.1,196-42.1,294.2c-2.4,17.9-4.9,29.3-26.1,23.9C920.4,1881,899,1882,908.6,1857.2z"/>
		<path class="st0" d="M901,267.4c63.3-1.9,128.4,8,193.3,20.8c15.1,3,28.4,6.4,19.9,26.7c-5.8,13.7,0.6,34-30.2,27.3
			c-157.6-34.5-312.9-30.9-464.7,32.3C465.6,438.5,431,560.4,465,706c11.3,48.5,43.8,70.8,93.6,65.3
			c88.3-9.8,165.9-37.8,193.1-135.1c8.5-30.5,25.1-14.9,41.5-11.5c22.7,4.6,15,17.2,10.6,30.8c-39.3,121.8-141.3,165.5-257,170.1
			C477,828.5,427.4,786,411.1,717.7c-13.4-56.1-17.3-113.3-6.5-170.6c18.1-96.5,74.6-163.6,161-206.9
			C670.2,287.9,781.4,265.3,901,267.4z"/>
	</g>
</g>
</svg>
