<?xml version="1.0" encoding="utf-8"?>
<!-- Generator: Adobe Illustrator 23.0.0, SVG Export Plug-In . SVG Version: 6.00 Build 0)  -->
<svg version="1.0" xmlns="http://www.w3.org/2000/svg" xmlns:xlink="http://www.w3.org/1999/xlink" x="0px" y="0px"
	 viewBox="0 0 3000 3000" style="enable-background:new 0 0 3000 3000;" xml:space="preserve">
<style type="text/css">
	.st0{stroke:#000000;stroke-width:10;stroke-miterlimit:10;}
</style>
<g id="Layer_1">
</g>
<g id="Layer_2">
	<g>
		<path class="st0" d="M158.5,1909.4c-56.2-36.1-89.5-85.3-94.8-151c-3.5-44.5,6.5-87,23.3-127.7c6-14.5,3.9-24-5-36.6
			c-91.4-129-31.4-295,121.1-335.6c69.8-18.6,141.6-23.4,213.4-25c188.5-4.2,376.5,6.7,564.3,21.9c85,6.8,170.1,12.6,254.8,21.4
			c84.6,8.8,169.3,22.4,254.1,11.4c197.4-25.8,388.6-71.8,550.6-196.9c91.9-71,135.1-164.2,129.3-282.4
			c-8.2-165,16.1-326.5,77.8-479.8c56.7-140.9,160.1-234.3,314.5-252.5c169.2-20,335,83.1,372.3,271.3c19,95.8,11.5,190.8-1.8,285.6
			c-24.5,174.4-34,349.9-41.9,525.5c-13.7,304.5-18.5,609.4-38.7,913.6c-8.9,133.8-22,267.6-62.2,396.7
			c-29.6,95.1-80.2,173.2-175.8,214.6c-62.3,27-127.7,27-193.2,21.1c-50.8-4.6-101.5-9.4-152.5-10.1
			c-326.9-4.2-653.5,4.4-980.1,17.2c-161.1,6.4-322.3,14.4-483.5,16.8c-169,2.5-336.9-10-498.7-65.3c-62.6-21.4-121-50.5-170.2-95.4
			c-88.4-80.7-79.6-207,21.9-278.2c-71.6-43.8-115.3-105.5-115-190.1C43,2016.1,84.2,1953.7,158.5,1909.4z M2820.6,1561.2
			c1.2-8.7,2.6-14.7,2.8-20.8c5.7-139.3,11.1-278.6,16.8-418c6.8-167.4,18.4-334.4,41-500.6c11.8-86.7,19.9-173.5,2.6-260.8
			C2849.5,188,2711.2,122.3,2596.7,126c-151.5,4.8-251,93.2-303.9,230.2c-54,139.9-79.6,286.8-70.3,437.2
			c9.3,149.8-50.1,264.1-167,352.7c-90.1,68.3-192.3,111.4-300.3,140.9c-122.3,33.4-245.4,66.9-374,55.7
			c-211.4-18.4-422.5-40.3-634.5-50.5c-100.8-4.8-201.7-9.4-302.7-7.5c-15.2,0.3-27.3-0.4-27.7,22.2c-2.1,107.2-5.6,214.3-9.9,321.4
			c-0.8,19.2,5.4,26.3,23.7,27.2c46.7,2.3,93.4,6.6,140.1,8.1c165.6,5.4,330.9,1.1,495.5-18.2c21.1-2.5,29.5,3.5,32,25.1
			c2.5,21.8-6.9,26.3-25.3,27.6c-68.5,4.7-136.9,11.1-205.4,15.4c-144.6,9-289.2,6.2-433.5-6.5c-24-2.1-30.2,4.6-29.7,28.1
			c0.9,40.5-1.8,81.1-3.4,121.7c-2.7,68.1-2.8,68.1,63.1,77.4c2.1,0.3,4.1,0.7,6.2,1c180.9,24,362.3,36.4,544.8,23.7
			c12.4-0.9,28.1-8,27.4,16.1c-0.6,18.6,5.4,36.5-25.3,37.3c-108.3,2.9-216.4,4.6-324.6-2c-86.2-5.3-171.9-15.7-257.4-27.3
			c-25.8-3.5-38.6,0-38.3,31.3c0.6,69.7-1.9,139.5-5.1,209.1c-0.9,20.3,7.4,21.9,23.4,21.1c200.1-9,399.2,5.4,598.2,24.3
			c20.9,2,32,3.7,30,29.7c-1.9,25.7-14.4,25.3-32.9,22.4c-12.3-1.9-24.9-1.8-37.3-3c-184.5-18.7-369.4-27.1-554.8-22.8
			c-22.4,0.5-30.8,7.1-31.1,30.5c-1.3,92.6-3.7,185.2-7.5,277.8c-1,23.9,7.1,31.7,29.6,36.4c138.6,29.5,278.3,42.5,420,36.2
			c124.7-5.6,249.6-9.2,374.4-12.7c20.1-0.6,25.2-3.6,21.3-26.3c-23.9-136.3-25.2-273.3-2.4-410c54.4-327.5,226-568.2,536.2-694.9
			c280.3-114.5,570.3-110.8,861.3-40.7C2687.9,1507.8,2753.3,1534.7,2820.6,1561.2z M2811.9,1848.3c3-65.5,4.7-131.1,9.4-196.4
			c1.8-25.1-6.5-36.1-29.4-45.8c-285.7-121.8-580.4-140.5-880.2-70.9c-229.1,53.2-411.3,179.5-529.7,385.4
			c-129.3,225-145.3,468.8-104.4,719.8c3.3,20.3,14.9,18.6,28.8,18.1c254.8-8.8,509.7-16.6,764.6-17.1c124.7-0.2,249.5-0.6,374,13.9
			c142,16.5,240.8-48.6,289.2-183.6c22.6-63,33.5-128.5,43.4-194.3C2799.1,2135.1,2805.2,1991.7,2811.9,1848.3z M358.9,1468
			c1.8-79.9,3.5-136,5.6-155.4c0.4-3.8,1.6-14.6-4.6-20.3c-3.1-2.9-8.3-4-16.7-3c-52.5,6.2-105.4,10.2-155.4,29.5
			c-60.2,23.3-93.7,69.6-94.8,136.3c-1,64.5,19.4,118.2,82.6,147.9c50.5,23.7,104.8,32.1,159,41.6c7.2,1.3,12.3,0.9,15.6-1.9
			c5.2-4.4,4.7-12.9,4.6-15.6C353.9,1610.9,355.8,1551.4,358.9,1468z M337.9,2108.5c2.7-28.2,4.3-52.5,5.3-71.7
			c2.2-42.2,0.6-50.3-5.4-58.2c-7.6-10.1-23.5-14-55.8-21.9c-8.1-2-16.2-3.7-24.1-6.4c-18.1-6.3-35.9-9.8-54.7-2.4
			c-58.8,23.1-96.1,64.8-105.9,127.5c-9.9,63.1,13.4,113.4,63.3,152.8c51.7,40.8,109.4,30.8,167.2,21.7c13.3-2.1,9.7-14.6,9.8-23
			C338.2,2187.5,337.9,2148,337.9,2108.5z M328.5,2455.9c2.3-70.8,4.5-118.6,7-134.2c0.5-2.8,2-11.9-2.8-16.5
			c-2.2-2.1-6.1-3-12.8-1.9c-39.9,6.7-79.3,15.1-118.6,25.3c-68.3,17.7-100.2,133.2-44.4,187.8c42.6,41.7,92.3,69.9,147,91.6
			c21.2,8.4,25,1.2,24.7-18.1C328.1,2545.4,328.5,2500.6,328.5,2455.9z M353,1808.8c0-29-1-58.1,0.4-87c0.8-17.1-5-24.1-21.8-26.1
			c-61.9-7.4-122.8-19.7-179.7-46.4c-9.4-4.4-14.7-4.5-18.7,6.3c-28.9,76.5-31.1,162.2,60.2,213.2c41.3,23.1,86.6,33.7,132,44.6
			c8.7,2.1,14.3,1.5,17.8-1.3c6.1-5,5.3-15.5,5-19.3C346.9,1876.2,348.1,1850.1,353,1808.8z"/>
		<path class="st0" d="M2075.5,2445.4c-68.7,1.7-140-8.6-207.9-38.6c-151.6-67-236.3-249.7-188.5-407.8
			c34.4-113.9,161.9-178.8,271.3-137.4c53.3,20.2,85.4,58.5,90.4,115.9c2.7,31,0.4,62.3,2.1,93.4c1.7,31.7,14.9,42.3,46.1,39.8
			c47.2-3.8,72.4-29.7,76.4-76.6c5.7-66.7,41-114.8,98.8-145.2c47.4-24.9,93.5-20,136.6,14.7c132.4,106.5,159.6,284.7,58.2,406.4
			c-57.6,69.1-138.4,101.2-223.6,121.1C2184.6,2442.8,2132.6,2447.3,2075.5,2445.4z M2081.2,2394.5c94.7-0.8,186.1-14.7,269.8-63.3
			c45.4-26.4,82.1-59.8,100.8-110.2c38.5-103.6,0.4-220.2-92.4-283.2c-20.8-14.2-42.9-16.7-64.9-5.9c-45,22-74,57-78.1,108.3
			c-5.9,72.2-52.4,118.1-126.5,122.8c-58.7,3.8-95.5-28.1-98.6-87c-1.5-28,0.3-56.2-0.8-84.2c-1.7-44.5-25.9-73.4-69.2-84.6
			c-89.4-23.3-176.7,32-196.9,124.7c-29.7,136.5,46.5,279.3,176.7,332C1959,2387.3,2019.4,2394.5,2081.2,2394.5z"/>
	</g>
</g>
</svg>
