<?xml version="1.0" encoding="utf-8"?>
<!-- Generator: Adobe Illustrator 23.0.0, SVG Export Plug-In . SVG Version: 6.00 Build 0)  -->
<svg version="1.0" xmlns="http://www.w3.org/2000/svg" xmlns:xlink="http://www.w3.org/1999/xlink" x="0px" y="0px"
	 viewBox="0 0 3000 3000" style="enable-background:new 0 0 3000 3000;" xml:space="preserve">
<style type="text/css">
	.st0{stroke:#000000;stroke-width:10;stroke-miterlimit:10;}
</style>
<g id="Layer_1">
</g>
<g id="Layer_2">
	<g>
		<path class="st0" d="M2978.2,953.8c-12.6,178.5-24.7,356.9-47.3,534.6c-17.4,136.7-94.3,230.9-207.1,301.3
			c-40.7,25.4-40.2,25.4-11.7,64.1c50.2,68.1,101,135.9,139.5,211.6c28.1,55.2,40.4,113.1,28.7,175.1
			c-13.2,69.4-53.6,117.2-119.4,138.9c-124.4,41-252.8,40-381.2,25.4c-27.8-3.2-46-23.9-57.8-48.9c-14.1-29.9-26.7-60.4-41.8-89.8
			c-17.8-34.6-40.9-64.1-82.6-72c-38.1-7.3-59.1,6.5-67.4,44.7c-8.9,40.8-17.6,81.6-27.2,122.2c-8.5,36.1-28.7,61.4-67.9,66
			c-116.8,13.9-233.4,29.5-350.7,2.5c-54.5-12.6-86.6-44.6-97.4-99.2c-4.3-21.9-10-43.6-16.3-65c-16.2-54.5-50.9-70.3-102.5-47.2
			c-22.1,9.9-38.3,26-49.9,47.2c-61.2,112.6-184.3,167.2-311.8,138.8c-45.6-10.1-87.6-27.4-119.3-62.6c-13-14.4-25.3-6.9-37-3.7
			c-140,39.1-282.7,52.1-427.3,44.9c-79.8-4-158.4-15.9-234.8-41c-87.9-28.9-144.1-88-174.7-174.3
			c-37.1-104.9-49.4-214.1-54.1-323.9c-5.4-125.3-10.5-250.6,2.1-376.1c17.2-170.9,60.9-334,128.8-491.5
			c39.3-91.2,77.3-182.8,140.3-261.1c107.3-133.1,250.9-203,414.9-235.3c212.8-42,424.1-22.7,634.5,19.8
			c61,12.3,121.4,26.8,180.7,45.8c17.1,5.5,31.6,4,47.6-3.2c145.5-66.1,299.3-95.2,457.9-104.3c110.9-6.4,221.7-12.1,331.8,6.7
			c133.9,22.8,261.9,64.5,382.3,128c33.7,17.8,64.3,40.5,92.3,66.2c67.5,62,108.9,136.2,106.1,230.7
			C2977.5,897.3,2978.2,925.6,2978.2,953.8z M1972.8,794.9c-152.6-13.3-292.4,27-422.3,105.1c-201.8,121.3-230.1,359.7-179.8,507.4
			c32.2,94.5,83.2,121.3,179.5,97c28.2-7.2,56.5-14.8,85.3-19.1c47.5-7.1,81.4,17.1,93.3,63.3c19.7,77-24.2,137.3-103.3,140.1
			c-35.9,1.3-72-1.1-108-0.4c-40.1,0.8-61.6,19.7-67.3,58.7c-5.5,37.6,6.1,73.2,15.4,108.9c2.3,9,9.9,11,17.7,12.9
			c48.5,11.6,89.1,37.7,126.4,69.3c58.6,49.6,127.4,72.3,202.7,76.2c243.7,12.8,472.4-43.5,690-150.6c10-4.9,15.3-10.9,16.8-21.3
			c4.4-31,5.9-62.2,0.2-93c-7.2-38.7-25.7-55.3-65.1-59.3c-16.3-1.6-32.9,0.9-49.4,1.4c-24.3,0.7-48.7,3.3-72.8,1.5
			c-47.2-3.5-83.4-37.5-90-81.6c-6.4-42.8,13.4-73.3,61.8-93.4c35.2-14.7,72.5-21.4,109.7-28.7c73.3-14.5,147.5-25.7,214.2-62.8
			c60.2-33.5,93.2-84.5,96.8-152.8c2.5-48.5,3.5-97.4,0.8-145.9c-8.6-155.4-74.1-242.1-214.3-284.7
			c-110.9-33.7-225.8-37.9-340.4-44.3c-15.9-0.9-19.6,8.3-22.8,20.4c-17.9,66.8-7.8,128.8,30.3,186.6c48.5,73.7,18.6,140-68,150.8
			c-15.8,2-22.5,7.7-20.8,24c2.8,26.1,4.6,52.3,6.6,78.4c1,13.5-1.9,27.2-15.7,31.5c-37.6,11.7-39.2,42-39.3,72.7
			c0,21.3,2.7,42.7,3.8,64.1c1.2,23.7,1,49.2-15.6,66.6c-26.9,28.2-28.7,59.1-22.2,94.5c6.3,33.9,0.6,64.6-36.5,79.6
			c-12.8,5.2-12,13.4-5.5,23.1c6,8.9,11.6,18,18,26.5c43.9,59.1,42.4,120.6,9.2,183.4c-5.6,10.5-7,27.7-28.5,16.1
			c-18.8-10.2-12.2-19.2-5.2-31.9c28.2-51.5,29.1-101.6-8.6-149.8c-8.9-11.4-17-23.9-23-37.1c-11.5-25.5-5.5-47.3,19.4-59.2
			c22.9-10.9,27.6-25.3,23.4-48.9c-7.3-41.1-7-81.2,26.4-114.1c10.5-10.3,12.8-26.1,11.8-41.1c-1.3-20.4-3.7-40.7-4.9-61
			c-2.1-34.8-1.6-74.1,27.1-94.4c29.9-21.2,27-44.2,24.1-71.6c-0.9-8.7-2.2-17.4-2.7-26.1c-2.3-38.8,14-57.6,53-61.7
			c57.4-6.1,76.4-43.4,44.6-90.7c-44.3-65.9-58.8-137-38.7-213.9c5.2-19.8-3.1-21.2-18.2-21.1
			C2052.6,795.2,2012.7,794.9,1972.8,794.9z M2558.8,1836.4c65.2-32.8,127.8-63.3,184.3-105.1c80.8-59.7,133.7-135.4,148.9-237.5
			c14.5-97.3,21.8-195.2,30.6-292.9c9.8-108.5,17.6-217.1,19.6-326.1c1.5-82.3-30.8-149.2-89.9-204.3
			c-30.7-28.6-64.5-53.3-102.1-72.3c-105.6-53.2-216.7-92.5-332.9-112.5c-200.1-34.5-400.5-21.6-596.7,24.2
			c-381.5,89-796.8,400-836.9,938.4c-5.4,72.1-8.5,144.3,21.3,212.4c44.4,101.3,112,179,223.1,210.5c47.1,13.3,92.4,2.8,138.1-7.3
			c18.7-4.1,45.5,0.5,55-10.5c10.4-12-4.4-36.1-7.3-55.1c-15-100.3,32.2-152.5,133.5-147.8c29.1,1.3,58.6,3.5,87.4,0.6
			c45.5-4.5,67.8-40.7,58.7-89.2c-6.8-35.9-29.9-46.9-77.2-36.4c-10.4,2.3-20.5,5.7-30.9,8.2c-18.8,4.6-37.5,10.2-56.6,13.3
			c-94.2,15.2-155.6-24-191.7-121.3c-66.7-180.1-4.6-407.7,148.1-524.4c123-94,263.9-143.1,419.2-147.4
			c122.7-3.3,245,7.3,367.3,14.1c89.4,5,178.2,15.1,263.9,43.3c119.3,39.3,193,118.6,217,243.4c12.8,66.6,11,133.2,10.1,200.4
			c-1.3,105.7-51.9,175.8-145.9,218.5c-60.9,27.6-126,38.8-191,51c-41,7.7-82.6,14.4-120.1,33.9c-30.9,16.1-36.4,41.4-17.3,70.4
			c15.9,24.2,40.4,29.1,66.4,28.4c31.1-0.8,62.1-4.8,93.1-4.6c63.2,0.4,100.9,35.6,109.6,98.4
			C2561.5,1778.4,2559.5,1805.3,2558.8,1836.4z M1848.9,2055.6c-6-1.1-11.5-2.8-17-2.9c-104.5-1.6-195.3-37.5-273.7-106.8
			c-22-19.5-49.2-31-77.5-39.4c-10.5-3.1-17.7-2.8-23.5,9c-25.8,52.4-66.4,92.3-108.6,131.9c-63.3,59.6-100.3,132-80.6,222.1
			c4.7,21.5-3.4,25.1-19.5,28.4c-21.2,4.3-15.1-13.9-16.8-22.1c-23.5-110.8,25.7-194.6,102.8-266.5c22.9-21.3,46-42,63.6-67.9
			c9-13.3,28-30.3,20.4-41.4c-7.2-10.5-31.8-3.4-47.5,1.2c-77.4,22.5-151.9,18.4-223-21.4c-9.4-5.3-15.4-4.4-22.3,3.8
			c-61.1,72.5-116.6,149-147.8,239.3c-40.8,117.8,17.4,218.1,138.8,245c108.7,24.1,217.2-24.9,269.6-121.7
			c28.1-52,85.3-83,140.6-73.3c54.6,9.6,73.7,51.7,84.7,99.7c4.6,19.9,9.3,39.7,14.4,59.5c7.8,30.9,25.8,51.6,58.2,58.2
			c14.2,2.9,28.1,7.9,42.4,10c99.2,15.2,197.8,0.5,296.4-7.9c25.8-2.2,39.2-17.7,44.3-42.6c8.8-42.8,18.6-85.4,28.3-128.1
			c8.9-39.5,37.7-64.4,78-66.3c44.8-2.2,81.4,15.2,110.4,49.1c23.1,27,40.2,57.9,50.8,91.2c17.3,53.8,48.2,79.1,108.1,79.6
			c99.6,0.9,198.7,1.7,294.9-27.2c76.3-22.9,115.3-82.5,110.2-161.8c-2.1-33.3-9.1-66-24.8-95.4c-46.9-87.7-104.3-168.5-165.4-246.8
			c-6.7-8.5-11.6-10.3-21.6-5.3c-60.4,30.5-121.2,60.4-182.4,90.8c16.7,16.8,33.3,31.9,47.9,48.7c71.3,81.7,104.9,176.1,93.3,285
			c-0.7,6.9,1.7,18-8.3,19.3c-8.1,1-18.4-0.8-25-5.3c-9.5-6.4-3.5-17.9-2.9-27c8-120.3-39.8-215.2-130.8-291.1
			c-12-10-21.5-11.9-36.4-6.1c-119.9,47.4-243.7,79.7-372.3,92.5c-30.3,3-60.5,5.9-92.1,9c20.2,39.3,18.4,63.7-5,82
			c-20.9,16.4-43,16.8-64.5,1.2C1833.8,2120.6,1831.1,2094.9,1848.9,2055.6z M534.8,2346.2c-0.3-2.7,0-4-0.5-4.5
			c-2.7-2.6-5.4-5.4-8.6-7.5c-84.2-55-133.7-132.9-156.2-230.3c-25.8-111.6-29.5-225.3-36.5-338.8c-14.5-237.7,24.6-467.3,111-688
			c72.5-185.2,200-318.7,393.5-379c156-48.6,312.9-39.1,468.3,6.3c17.3,5.1,30,4.6,45-7.6c27.8-22.6,57.7-42.9,87.8-62.7
			c29.7-19.5,60.6-37.1,93.2-56.9c-5.4-2.4-7.6-3.7-10.1-4.4c-251.8-69.2-506.5-105.3-766.6-57c-152.9,28.4-288.2,92.8-390,215.7
			c-54,65.1-88.3,141-123.1,217.3C144.3,1163,90.7,1386.9,90.8,1623.1c0,90.5,2,181,9,271.2c7.1,92.1,19,183.7,52.6,270.8
			c22.6,58.6,58.8,104.8,118.4,129.6C355.3,2329.9,444.3,2340.6,534.8,2346.2z M674.7,2076.8c21.5-72,19.1-141.6-0.6-210.9
			c-4.3-15.2-6.1-25.3,12.4-30.9c20.6-6.3,20.4,10.1,23.6,20.7c21.2,71.4,24.2,144.1,4.7,215.8c-7.9,29,0.7,38.9,26.3,43.3
			c5.7,1,11.3,2.9,16.8,4.7c24.6,7.9,36.4,0.1,40.5-26.6c11.7-76.8,12.5-153-6.7-228.6c-4.1-16-4.5-25,13.8-29.3
			c19.6-4.7,20.2,8.8,23.1,21.1c18.2,78.6,21.6,157.4,6.5,237c-6.7,35.7-5.7,35.9,31.3,31.4c4.8-0.6,9.6-2.5,14.4-2.3
			c25.9,0.6,33.7-13.4,37.2-37.4c10.3-70.2,8.7-139.7-10-208c-4.5-16.5,2.3-19.9,14.2-24c13.7-4.7,20,1.3,22.6,13.9
			c2.2,10.4,4.5,20.8,6.6,31.3c9.8,50.2,13.6,100.9,12.7,153c38-67.6,80.6-130.8,131-188.5c6.4-7.4,6.8-12.8-1.3-19.1
			c-44.5-34.6-71.7-83.8-107.2-125.9c-49.2-58.3-105.8-110.3-159.1-165c-7.5-7.7-16.8-8.6-26.8-8.6c-135.2,0.1-270.4,0.3-405.6-0.3
			c-17.5-0.1-22.9,5.3-24.1,22.9c-5,73-2.9,145.8,1.2,218.7c1,17.6,7.4,20.6,22.7,20.1c25.2-0.7,50.7,2.4,75.8,0.7
			c52.3-3.6,83.3,20.1,101.7,68.4c20.4,53.4,44.9,105.3,67.8,157.7C647.5,2048.8,656.9,2064.4,674.7,2076.8z M442.2,1843.5
			c-17.5,0-35,0.1-52.5,0c-11-0.1-15.4,4.5-14.6,16c7,94,14.8,187.8,43.2,278.6c22,70.2,66.8,121.3,125.2,163.4
			c54.2,39.1,112.4,51.2,178.7,41.1c70.1-10.8,140.4-19.8,209.1-38.1c9-2.4,25.3-0.1,16.4-20.9c-15.8-37-22.1-76.2-17.3-116.5
			c1.7-14-2.5-16.6-15.9-13.2c-42,10.6-85,10.7-127.6,7c-84.2-7.3-150.8-42.3-185.9-123.9c-17.3-40.1-37.6-79.1-51.4-120.3
			C531.6,1863.3,505.5,1827.7,442.2,1843.5z M951.6,1621.6c-12.4-89-9.1-173.2,4.4-257.1c2.6-16.4-3.8-19.9-18.6-19.9
			c-171.3,0.3-342.5,0.3-513.8,0c-14.3,0-20.7,4.7-23.1,19.2c-6.4,37.3-13.6,74.5-21.9,111.4c-5.4,24.3-0.8,32.9,27.3,32.6
			c135.2-1.7,270.5-0.5,405.7-1.1c17-0.1,28.9,4.9,40.7,17.1C883.2,1555.7,915.6,1586.4,951.6,1621.6z M1251,726.5
			c-31.8-5.3-58.3-7.2-83.2-14.5c-27.5-8.1-42.3,3.7-58.5,23.4c-92.9,113.4-184.7,227.9-281.5,338c-49.5,56.4-86.3,113.2-76,191.4
			c1.2,9.4-1.9,19.3-2.7,29c-0.4,4.7-1.2,9.5,3.8,13c12.9,9.1,79-1.5,88.6-14.8c90.1-124.1,180.2-248.2,270.1-372.4
			C1157,856.8,1202.3,793.9,1251,726.5z M1083.3,709.1c-60.3-15.2-236.9,13-289.3,44.1c-8.9,5.3-11.4,11.7-12,21.1
			c-3.8,64.9-8.9,129.8-11.6,194.7c-1.7,38.9-10,77.8-4.2,122.1C873.7,961.6,978,835.9,1083.3,709.1z M600.2,892.7
			c-3.9,4.2-9.3,9.3-14.1,15.1c-92.5,112.7-139.1,245.6-170.3,385.4c-2.7,12.2,1.2,15.2,12.6,15.2c47.6-0.3,95.3-0.6,142.9,0.2
			c14.6,0.2,17.3-5.8,17.8-18.9c3.1-77.7,8.2-155.3,10.6-233C601.6,1002.3,600.2,947.9,600.2,892.7z M744.2,779.2
			c-27.4,13.5-47,29.1-68.2,42.4c-21.9,13.8-30.3,31.6-31.2,57.3c-4.1,122.4-10.2,244.6-14.9,367c-2.5,64.8-1.9,64.2,60.9,62.7
			c16.7-0.4,20.4-5.8,21.3-21.8c4.2-75.6,10.2-151.2,15.1-226.8C733,968.1,738.3,876.2,744.2,779.2z M876.7,1308.2
			c27.4,0,47.6-0.7,67.8,0.2c15,0.7,21.6-3.6,25.5-19.6c10-41.4,22.6-82.2,35.1-123c5.9-19.1,13.9-37.6,20.9-56.4
			c-1.4-0.6-2.8-1.2-4.2-1.8C974.8,1172.6,927.8,1237.6,876.7,1308.2z"/>
		<path class="st0" d="M1697.5,1010.1c70.4-0.3,125.3,53.9,125.9,124.4c0.6,70.1-54.4,126.7-123.9,127.4
			c-71.5,0.8-128.7-54.7-129.3-125.3C1569.6,1065.5,1625.1,1010.4,1697.5,1010.1z M1786.2,1135.3c-0.1-49.3-39.6-89.1-88.6-89.4
			c-48.5-0.3-89.4,39.8-90.3,88.4c-0.9,49.5,40.7,91,90.7,90.7C1747.3,1224.5,1786.3,1184.9,1786.2,1135.3z"/>
		<path class="st0" d="M2432.4,1010.2c71.4-0.1,125.7,53.8,125.9,124.8c0.2,70.9-54.5,126.4-125,126.8
			c-71.9,0.4-128.1-55.6-127.7-127.3C2306.1,1063.8,2360.6,1010.3,2432.4,1010.2z M2431.8,1045.9c-48.8,0.2-89.3,40.5-89.6,89.2
			c-0.3,49.3,42,90.7,91.8,89.7c49.2-1,88.4-41.4,87.8-90.5C2521.1,1085.3,2480.9,1045.8,2431.8,1045.9z"/>
		<path class="st0" d="M1692.8,1899.4c-38.4-0.3-72.3-12.1-100.5-38.6c-26.8-25.2-45.5-53.6-32.4-92.6c11.1-33.1,52.5-62,90.9-62.2
			c31.4-0.2,61.8,7.1,89.3,22.6c36.4,20.5,53.7,67,41.8,108.2C1769.7,1879.2,1740.1,1900.1,1692.8,1899.4z M1685,1862.6
			c46.6,1.5,67.9-22.6,61.2-62.1c-7.4-43.5-86.8-73.6-125.6-47.7c-33.8,22.6-36.1,46.8-7.6,76.3
			C1634.3,1851.3,1661.1,1860.7,1685,1862.6z"/>
		<path class="st0" d="M1920.4,2344.7c0.8,27-23.2,53.1-50.3,54.8c-28.5,1.8-54.5-22.8-55.2-52.2c-0.7-29.3,20.7-52.3,49.7-53.7
			C1894.7,2292.3,1919.6,2315.1,1920.4,2344.7z"/>
		<path class="st0" d="M1875.4,2167.3c29.2,0.2,52.6,25.3,51.7,55.5c-0.8,28.6-24.3,51-52.9,50.2c-28.7-0.7-52.3-23.7-52.8-51.3
			C1821,2193.5,1847.2,2167.1,1875.4,2167.3z"/>
	</g>
</g>
</svg>
