<?xml version="1.0" encoding="utf-8"?>
<!-- Generator: Adobe Illustrator 23.0.0, SVG Export Plug-In . SVG Version: 6.00 Build 0)  -->
<svg version="1.0" xmlns="http://www.w3.org/2000/svg" xmlns:xlink="http://www.w3.org/1999/xlink" x="0px" y="0px"
	 viewBox="0 0 3000 3000" style="enable-background:new 0 0 3000 3000;" xml:space="preserve">
<style type="text/css">
	.st0{stroke:#000000;stroke-width:10;stroke-miterlimit:10;}
</style>
<g id="Layer_1">
</g>
<g id="Layer_2">
	<g>
		<path class="st0" d="M39.3,1457.4c-4.4-185.2-13.4-370.7,0.9-555.5c20.3-262.2,130.1-477.6,356.2-621.1
			c131.8-83.7,282.7-101.9,436.1-98.4c154.5,3.5,303.6,36.4,448.2,89.4c20,7.3,34.9,5.6,53-4.1c183.3-98.4,378.9-128.5,584.1-102.8
			c7.8,1,15.7,4,23.5-0.4c59.5-33.4,125.5-32.5,190.2-32.6c132.1-0.2,264.4-5.7,396.3,5.4c47.9,4,95.3,10.9,141.9,23.6
			c80,21.8,137.7,70,175.9,143.3c69.5,133.4,100.4,275.6,99.5,425.2c-0.4,60,5.1,121.9-7.3,179.7c-18.2,85.2,0.7,166.1,8.2,248.9
			c18.1,200.5,10.1,398.1-73.1,586.2c-28.2,63.8-65.8,121.6-115.6,170.4c-15.9,15.6-15.2,23.8-1.2,40.7
			c155.7,188,182.5,399,104.7,625.6c-37.2,108.3-111.4,188.7-215.6,234.6c-181.3,79.9-371.2,100.1-566.4,63.7
			c-8.8-1.6-18.4-2.8-25.9-7.3c-52.7-31.1-102.8-18.8-157.7-0.8c-113,37-229.7,41.9-346.8,17.5c-9.7-2-19.8-3.3-29.7-3.2
			c-113.1,1.3-226.4,0-339.3,5.4c-70.7,3.4-140.7,19.4-211.3,25.9c-184.6,17-369.7,25.5-554.5,3.5
			c-94.7-11.2-164.4-63.6-213.2-144.6c-48.9-81.2-72.2-171.6-87.5-263.4c-41.5-248.7-78.3-498-74-751.4
			C40.8,1659.7,39.3,1558.6,39.3,1457.4z M2879.5,1035.6c-19.3,16-33.9,27.9-48.3,40c-33.9,28.6-69.2,55.8-115.3,58.9
			c-180.1,11.9-360.1,13-539.9-4.7c-22.5-2.2-29.7,1.5-30.3,27c-5.4,229.3-218.5,384.4-433.4,314.1c-39-12.8-70.7-21.5-104,9.1
			c-9.6,8.8-25.3,11.8-38.8,15.1c-68,16.4-135.1,14.8-199.5-15.1c-14.3-6.6-22.7-8.8-34.4,6.7c-67.9,90.8-162.3,121.1-271.9,116.5
			c-23-1-51.5-22.8-67.4-1.6c-13.6,18.2-7.2,48.4-7,73.4c0,1,0.1,2,0,3c-2.4,17,4.2,22.9,21.7,21.1c29.8-3.1,60.3-1.7,89.8-6.6
			c69.8-11.6,131.6-4.9,175,60.1c7.6,11.5,20.4,15.8,33.1,2.7c46.7-48.2,106.1-66.2,171-68.7c21.7-0.8,31.7-5.5,34.9-30.9
			c9.7-78.1,55.6-119.1,128.8-110.8c44.5,5,87.7,1.2,131.1-1.8c69.7-4.9,139.5-10.4,203.9-43.4c123-63,196.3-164.5,229.5-296.1
			c6.5-25.7,20.1-15,33.2-14.2c17.4,1.1,20.6,10.3,16.3,26.4c-29.3,109.3-82.7,202.7-172,274.9c-123.6,100-269.3,107.6-418,103.4
			c-21-0.6-41.8-3.6-62.1,3.7c-28.8,10.3-37,35.1-40.6,61.4c-2.5,18-7.9,37,11.5,51.9c130.7,100.4,367.1,119.1,471.8-19.2
			c70.2-92.7,184.9-101.9,296.1-96.2c6.4,0.3,13.3-0.6,14.7,10.3c3.5,27.1-6.8,40-34,38.8c-107.7-4.5-201.9,23.6-272.6,110.5
			c-14,17.2-31.6,30.5-50.7,42c-80.8,48.8-168.1,52.5-258.4,38.2c-48.4-7.7-93.2-26.5-140.7-46.9c27.7,46.9,78.3,81.6,130.2,85.3
			c71.6,5.2,138.2,18,190,74.7c18.4,20.1,38,13.7,49.3-12.3c8.7-20.1,14.6-41.4,20.6-62.6c38.1-135.6,181.3-212.3,314.7-167.9
			c23.7,7.9,46.7,17.9,70.5,25.3c53.8,16.8,95.4,1,124.9-47c17.5-28.5,28.3-59.5,31.6-93c8.8-88.8,5.5-178.1,10.2-267.1
			c1-19.4,6.2-25.5,25.8-25.7c20.7-0.1,25,7.5,24.3,26.5c-3,82-3.7,164.2-7.3,246.2c-2,45.3-13.6,88.9-35.8,129.1
			c-40.8,74.3-108.7,102.8-189.6,78.5c-21-6.3-41.1-15.6-61.8-22.8c-114.7-40.3-227.7,19.5-260.3,137.1
			c-4.8,17.3-10.4,34.3-16.8,51.1c-27.5,72.2-86.7,88.5-142.6,34.7c-36.1-34.7-76.1-48.4-123.8-50.7c-60.9-3-120.5-19.7-158.8-67.3
			c-37.3-46.4-78.8-60.9-133.6-50.9c-2.9,0.5-6-0.1-9-0.1c-60.8-0.5-75.1,9.8-91.4,68.2c-6.7,24.1-12.8,48.5-26.5,69.6
			c-19.6,30.1-50.2,30.9-71.1,2.2c-13.5-18.6-25.4-38.4-38.4-57.3c-12.8-18.6-29.3-33.6-50.9-40.4c-49-15.5-99.4-22.1-150.8-22.2
			c-17.2,0-20.2,5.8-14.5,21.7c28.2,77.4,71.8,136.3,159,155.4c115.2,25.3,231.9,31.5,348.9,34.6c166.3,4.4,332.5-1.2,498.6-7.2
			c148-5.3,296-11,442.9-33.3c127.4-19.3,235.2-68.7,310-178.4c28.3-41.6,52.2-85.3,69.9-132.2
			C2921.4,1478.4,2913,1261.1,2879.5,1035.6z M1249.5,313.4c-174.8-60.3-350-92.7-531.3-77.9c-132.8,10.9-259.6,45-363,133.7
			C205.6,497.6,115.8,661.4,94.7,857.6c-23.3,216.5-6.9,434.1-8.3,651.2c-0.1,13.5,3.8,20,18.5,20c98.1,0.2,196.2,0.8,294.3,1.7
			c14.8,0.1,18.7-5,17.3-19.5c-14.4-148.5-1.5-296,20.3-442.6C466.3,870.3,573,734.9,767.5,674.3c67.4-21,136.9-30.9,207.1-29.8
			c29.9,0.5,37.9-10.8,45.7-36c26.9-86.4,70.7-163.3,139.9-223.4C1187.9,361,1217.4,339.1,1249.5,313.4z M1853.5,2459.4
			c-1.4,17.3-2.8,27.3-3,37.3c-4,182.5,75.7,305.9,267.8,339.1c155.3,26.9,307.6,6,455.4-43.8c106.9-36,188.1-104.6,233.4-210.6
			c17.7-41.5,29.1-85.1,36.4-129.6c28.6-175.2-13-331.3-127.7-467.4c-9.2-10.9-16.3-17.8-31.9-7.6c-62.3,40.8-133,59.1-205.3,71.6
			c-161.4,28-324.7,30.4-487.8,35.6c-25.2,0.8-39.2,8-51,30.7C1882.8,2225.3,1852.8,2342.2,1853.5,2459.4z M845.1,2462.8
			c-8.8-5.2-15.6-1.5-22.3-0.8c-208.9,22.2-354.9-60-424.9-244.6c-34-89.7-54-183.8-63.7-279.6c-11.4-112.8-0.3-223.7,28.8-333
			c4.8-18.1,3.8-26.1-18.9-25.7c-78.1,1.4-156.2,0.7-234.2,0.4c-13.3-0.1-22.3,0.2-22.3,18.3c0,139.1-1.7,278.5,8.9,417.2
			c11.5,150.5,32.5,300.2,58.3,449c16.2,93.7,36.2,186.7,80.5,272.1c40.5,78.3,103.7,124.6,192.3,136
			c97.7,12.6,195.7,10.4,293.7,8.8c106.8-1.8,213.4-7.3,321.4-23.8c-3-7-5-12.4-7.6-17.6c-35.1-71.5-79.6-136.4-136.5-192.5
			C846.3,2595.5,811.4,2538.8,845.1,2462.8z M2332.2,1092.6c23,0,39.8-1.3,56.4,0.3c19.2,1.8,24.8-4.1,25.7-24.2
			c3.1-67.9,9.5-135.7,13.4-203.7c1.5-26.9,19.3-18.3,34.1-19.3c18.1-1.1,18.6,9.3,17.6,22.8c-4.4,60.9-8.2,121.8-12.5,182.7
			c-3,42.1-3.1,40.4,40.1,42.3c24.2,1.1,27.6-8.1,27.2-29.1c-1.2-65.1,0.2-130.2-0.8-195.3c-0.3-18.1,4.2-25,23.3-24
			c16.6,0.9,28,0.5,27.5,23.3c-1.5,64.1-0.6,128.2-0.4,192.3c0,15.3-5,34.8,22.4,30.3c20.3-3.3,47.5,7.1,44.7-32.6
			c-3.3-45.8-0.1-92.1-1.1-138.1c-0.4-18.8,7-24.1,24.8-24.1c18.3,0,27.6,4.2,26.9,25.1c-1.3,43-0.4,86.1-0.4,129.2
			c0,39.1,3.8,42.3,40.3,25.4c45.9-21.3,80.9-57.8,118.9-90c18.9-16,26-37.6,27.9-61.1c7-85.9,9.7-172.2,5.2-258.1
			c-6.3-119.2-36.6-232.6-92-339.1c-35.3-67.9-90.3-107.9-164.1-123.7c-89.6-19.2-180.6-21.4-271.7-22.7
			c-20.1-0.3-21.9,11.4-24.1,26.4c-14.6,99.9,2.6,193.4,55.4,279.7c35.8,58.5,36.7,118.9,12.9,181.5c-2.7,7.1-7.2,13.4-6,22.5
			c7.7,60.7,7.8,121.9,3.8,182.8C2402.3,950.5,2387.2,1024.3,2332.2,1092.6z M380.1,1820.3c0.3,150.1,23.8,265.4,63.5,377.1
			c24.9,70.1,65.4,129.8,131.2,170c87.6,53.5,181.1,56.3,278.1,37.7c21-4,39.6-9.1,53.1-28.6c72.4-104.6,120-221,164-339.2
			c3.1-8.4,3.6-14.5-4.5-20.8c-61.4-47.7-93.6-113.1-111.6-186.7c-3.1-12.7-7.4-17.8-21.2-19c-64.1-5.5-103.2-43.5-125.3-101.1
			c-13.4-35-16.6-71.7-16.6-108.9c0-8.3,2.8-19-11.6-19.6c-14.7-0.7-15.8,8.7-15.9,19.5c-0.5,34-0.2,68.1-2,102
			c-2.7,48.8-20.9,91.3-57,125.1c-57.9,54.3-137.6,44-179.4-23.4c-20.7-33.3-28.2-70.5-28-109c0.2-31,2.6-62,4.2-92.9
			c0.8-16-4.8-24.6-22.4-22.7c-9.9,1.1-20.3,1.6-30-0.2c-23.5-4.2-30.8,8.4-35.7,28.4C393.2,1688,379,1768.5,380.1,1820.3z
			 M2358.5,750.5c-63.1,61.4-132,97.1-212,111.4c-92.7,16.5-185.6,8.6-278.3,1.4c-52.8-4.1-106.4-1.8-158.3-13.7
			c-100.3-23-168.7-87.6-218.7-174c-10.6-18.4-16.8-22.5-33.5-5.5c-96.2,97.8-142.6,215.4-142.4,351.8c0,15.6,3.3,32.1,8.9,46.7
			c9.4,24.6,32.1,34.1,55.8,32.1c24.7-2,9.6-25.8,15-38.8c2.6-6.2,1.6-13.8,2.5-20.8c11.8-87.3,53.3-157.8,120.6-214
			c11.3-9.4,17.2-10.9,27.8,2.5c14.9,18.8,14.4,28.4-5,45.2c-61.8,53.4-93.7,122.2-95.8,203.6c8.1,3,12.2-0.2,16.7-2.2
			c34.1-14.6,53.1-6,63.8,28.6c12.1,39.2,40.6,56.8,82.2,50.7c28.3-4.1,53.6-16.2,77.4-30.8c87.9-53.9,184-68.6,285.3-63.4
			c82.7,4.3,164.4,19.8,247.4,19.6c51.3-0.1,87.2-21.8,108-70.1C2361.1,929.3,2360.9,843.9,2358.5,750.5z M1891.5,2090.6
			c-35.4,0-71.2,0.4-107-0.2c-12-0.2-15,8.2-18.7,16.1c-42.4,92.8-68.2,189.8-73.4,291.9c-6.1,117.6,12.2,231.4,57.3,340.2
			c9.5,22.8-5.5,24.1-18.3,31.2c-15.5,8.7-22.2,4.6-28.5-11.4c-58.7-148.5-76.5-301.1-49.5-458.9c12.2-71.1,34.6-139,63.3-209.4
			c-30.6,5-60.5-9-83.9,12.1c-85.4,77-148.4,168.5-168.3,283.7c-20.9,121-4.7,241.5,16.4,360.7c10.5,59.3,53.7,92.4,115.7,100.8
			c44.9,6.1,89.9,6.2,134.8,3.1c65.5-4.5,129.9-14.9,194.7-42.5c-104.5-85.7-128.5-199.3-125.5-323c3.2-131.5,25.4-258.6,86.8-376.8
			C1890.1,2103.2,1893.9,2098.2,1891.5,2090.6z M1645.4,1282.9c-0.3,0-0.6,0-0.9,0c0-20-1.6-40.2,0.4-60c2.1-20.6-4-23-23.1-19
			c-56.9,11.6-112.8-11.4-133.4-56.5c-9.5-20.7-18.1-19.7-35.5-11.7c-44.8,20.6-90.9,25.9-134.9-1.3c-14.8-9.1-28.6-11.9-45.1-10.2
			c-37.8,4-75.6,8.9-113.5,9.9c-18.7,0.5-26,8.5-32.5,23.6c-44.8,103.8-85.8,208.9-111.3,319.4c-15.8,68.3-15.9,68.2,54.3,75.5
			c131.8,13.6,242.9-66.8,266-193.1c3.2-17.6,4.5-35.8,5-53.7c0.7-28.2,22.3-15.8,35.5-18.9c18.1-4.3,16.7,9.3,15.5,20
			c-3.7,32.7-3.1,66.3-15.1,97.6c-5.9,15.5-2.6,23.9,12.7,30.1c65.1,26.3,130.3,28.9,195.4,1.5c33-13.9,53-39.2,56.6-75.1
			C1644.1,1335,1644.2,1308.9,1645.4,1282.9z M2316.7,441.6c-28.3-81-37.7-159.7-24-240.4c3.1-18-6.7-19.5-20.5-19.6
			c-77-0.4-154.1-1.8-230.9,4.8c-34.2,2.9-65.4,14.2-94.3,34.9c-71.3,51-131.2,114-191.6,176.7c-70.2,72.9-146.6,139.1-222,206.5
			c-9,8-18.5,13.7-9,29.1c20.5,33.3,41.3,65.9,68.2,94.8c17.1,18.4,25.2,16.1,38.7-4.2c78.4-117.5,183.7-201.9,315.9-252.6
			C2066.1,425.9,2188.4,420.3,2316.7,441.6z M1871.6,211.5c-28.3-4.6-52.8-4.1-77.6,7.3c-50,23-99.2,47.5-145.2,77.8
			C1385.3,470.2,1235,713.5,1200,1027.1c-6.6,59-4.6,58.8,56.9,48.3c12.1-2.1,13.4-5.3,12.3-16.9c-15.5-173,39.3-322.1,168.7-436.2
			C1586.6,491.3,1728.2,353.1,1871.6,211.5z M461.7,1329.6c-2.6,76.4,0.3,130.3,4.6,184.2c1.9,23.6,18.4,15.5,30.8,16.9
			c13.8,1.6,16.4-5.1,14.9-18c-16.2-139.2,2.7-275.1,39.7-409.3c40.3-146.2,127.5-251,269.6-308.3c49.6-20,101.4-29.7,153.9-37.5
			c33.7-5,17.8-35.7,22.2-54c3.5-14.4-16.3-8.8-25.6-8.9c-46.1-0.2-92,4.3-137,14.1C663.7,746,542.8,839.3,499.2,1015.7
			C472,1126,467.9,1239.2,461.7,1329.6z M1677.1,218.6c-51.5,1.2-100.5,5.1-144.8,33.5c-295.1,189.1-443.1,457.7-441.2,808.8
			c0.1,21,5.8,27.6,27.1,26.3c19.5-1.1,29.4-5.6,28.3-27.4c-0.8-14.8,2.6-29.8,4.3-44.7c34.1-298.1,171.4-537.6,410.3-718.6
			C1598.1,268.3,1638.3,244.4,1677.1,218.6z M1015.1,2299c139.8-74.2,286.2-103.2,442.2-79.7c7.1,1.1,13.9,2.8,18.5-5
			c25.3-42.5,55.7-81.3,92.3-121.6c-12.3-0.7-18.1-1.2-23.9-1.3c-137.2-2.6-274.2-6-407.8-42.7c-10-2.8-16.7-2-20.8,9.5
			C1086.3,2139.9,1052.6,2219.8,1015.1,2299z M555.1,1408.6c1.8,28.9,6.2,58,4.9,86.8c-1.6,35,16.5,38.1,44.2,36.4
			c17.5-1.1,19.2-6.9,16.6-22.1c-10.2-59.5-11.6-119.2-4.2-179.3c25.6-207.5,133.1-354.4,325.9-435.7c30.5-12.9,39.4-29.4,41-58.9
			c1.2-21.1-3.3-28.7-25.4-25.2c-168.3,26.7-293.3,108.8-348,276.8C576.3,1191.4,555.1,1298.2,555.1,1408.6z M1324.7,2365.8
			c-157.5,1-298.5,94.5-360.2,240.5c-4.3,10.2-16.3,22.3-3.1,32c11.3,8.3,19.1-5.7,26.9-11.6c58-44,122-75.6,192.2-94.5
			c65.2-17.5,131.3-24.2,198.8-16.7c9.5,1.1,27,9.8,25.4-12.4c-2.6-37.2,1.3-73.9,6.4-110.5c1.7-12.6-1.9-18.8-15-19.9
			C1372.3,2370.9,1348.5,2368.2,1324.7,2365.8z M1422.5,2713.6c-4.4-43.6-10.1-83.2-11.6-123c-0.8-19.6-10-23.1-25.3-24.5
			c-137.3-12.9-261.6,19.7-371.4,104.5c-11.7,9-15.6,14.9-5.7,28.4c17.1,23.4,32.4,48.1,47.3,72.9c6.3,10.5,10.7,14.3,22.6,6.2
			C1182.3,2707.6,1296.3,2688.1,1422.5,2713.6z M1078.6,1141.8c-20.9,0.7-36.7-8.7-55.9-1.5c-169.5,62.9-215.1,233.8-164.7,377
			c2.3,6.4,4.1,14,13.2,14c24,0.1,48-0.2,72.1,0.2c12.1,0.2,11.6-9.6,12.9-16.6C980.4,1386.5,1026.3,1265.1,1078.6,1141.8z
			 M1805.5,1437.4c150.4-0.5,268.6-103.5,288.3-243.7c9.8-69.8,8.5-71.5-60.1-76.9c-5-0.4-10.1-0.6-14.9-1.8
			c-18.6-4.6-25.9-1.7-24.4,21.3c9.6,143-109.1,243.7-249.2,212.7c-16.4-3.6-32.5-8.9-48.8-13.4c-3.1,17.3-4.7,35-9.6,51.7
			c-4.8,16.6,2.2,23.3,16.2,28.8C1739.1,1430.1,1775.8,1438.2,1805.5,1437.4z M2360.6,656.3c-121.8-29.2-401.3,70.6-449.4,159
			c21,1.7,41.9,4.1,62.8,5c100.9,4.1,200.4,1,289.2-56.7C2305.1,736.5,2338.8,702.5,2360.6,656.3z M914.2,2587.5
			c17.9-29.4,32.6-58.1,51.4-83.8c104.6-142.8,246.7-202.4,421.2-181.1c33.5,4.1,45.5-3.6,54.2-33.5c5.4-18.6,1.6-22.2-15.7-23.9
			c-159.8-15.4-305.9,21-436.4,115.2c-33.1,23.9-65.7,49.2-87.8,85.2C872.2,2512.3,875.3,2545.7,914.2,2587.5z M1696.2,1219.8
			c-1.9,62.4-0.7,64.1,52.7,78.1c112.5,29.7,206.6-50.4,196.2-166.1c-1.6-17.3-8.7-21.4-24.6-21.2c-61.9,0.5-120.5,12.4-177,39.4
			C1708.8,1166.5,1685.9,1185,1696.2,1219.8z M735.4,1528.9c-1.3-5.9-2.3-11.7-3.8-17.4c-57.3-225.9,39.5-439.1,231.8-505.8
			c8.3-2.9,13.4-7.2,12.9-17.2c-0.7-16.6-0.2-33.3-0.2-53.1c-60.7,20.3-111.3,51.5-155.8,92.1c-136.4,124.2-171.6,283.1-152.7,458.9
			C673,1537,675.3,1536.8,735.4,1528.9z M1733.3,802.8c24.5,2.1,42.4,2.5,59.9,5.5c27.5,4.7,47.5-2.6,69-22.8
			c136.1-128,299.4-187.5,485.8-184.7c13,0.2,29,6.1,28.8-18c-0.2-20.8-8.6-27.5-28.8-27.8c-59.3-0.7-118,4.6-176,15.7
			C2004.5,602.6,1860.4,679.4,1733.3,802.8z M2347.4,503.6c-162-50.8-356.1-20.2-502,75.8c-72,47.4-131.1,108-178.1,180.2
			c-4,6.2-14.9,13.2-1.2,21.9c10.1,6.4,16.4,2.7,22.9-4.9c3.9-4.6,8.4-8.6,12.7-12.8c79.9-79,171.6-140.2,274.5-185.5
			C2091.6,527.5,2213.2,507.5,2347.4,503.6z M634.2,1579.4c0,0.3,0,0.6,0,0.9c-22,0-44,0.5-65.9-0.2c-12.6-0.4-17.7,3.6-17.9,17
			c-0.3,32.9-3,65.9-3,98.8c0.1,29.1,4.5,57.6,20.7,83.2c24.1,38.1,61.4,44.8,96.7,16.4c21.8-17.5,35.6-40.2,41.6-67.5
			c4.9-22.5,8-45.3,6.4-68.4c-1.8-25.5,11.5-59.2-6.2-74.2C691.5,1572.7,659,1580.6,634.2,1579.4z M1360.6,313.5
			c-39.3,14.9-73.4,38.5-107.9,61.5c-101.2,67.7-166.4,161.1-192.8,279.3c-25.1,112.5-35.3,227.1-33.7,342.5
			c0.3,21.7,3.5,43.1,12.1,63.9C1037.3,764.7,1143.8,515.6,1360.6,313.5z M1461.6,2841.7c0.5-3.8,0.9-7.6,1.4-11.4
			c-5.8-10.4-14.1-20.2-16.9-31.4c-6.8-26.5-25.1-35.1-49.6-39.4c-102.1-18.1-196.9-0.5-284,56.2c-7.7,5-22.5,8.3-19.5,19.5
			c3.7,14,19.5,13.2,30.7,11.6c35.9-5.1,71.8-5.2,107.8-5.2C1308.2,2841.8,1384.9,2841.7,1461.6,2841.7z M765.5,1383.6
			c-0.6,45.7,7.4,89.8,19.8,133.3c2.3,8.1,4.9,16.6,15.5,14c14.4-3.5,2.7-12.5,2.6-18.8c0-4.8-2.3-9.7-3.5-14.5
			c-41.8-165.4,25.7-316.9,177-391.4c29.1-14.3,9.7-30,5.8-43c-5.2-17.6-18.1-3.3-25.6,0.3C823.3,1128.3,768.9,1240.9,765.5,1383.6z
			 M1341.5,1796.5c-28.4,18.2-51.8,22.4-76.2,10.4c-20.3-10-34.5-27-48.6-43.8c-12.1-14.4-26-25.1-45.8-24.1
			c-54.8,2.9-109.6,6.3-164.3,9.4c-9,0.5-16.1,2.6-14.2,13.8c1.4,8.9,1.9,18.6,15.2,17.4c7-0.6,14-1,20.9-0.8
			c106.9,4.2,211.5,13.4,268.7,124.7c0.3,0.6,1.7,0.8,3.3,1.4c10.7-14.9,11.3-33.6,17.8-50
			C1325.1,1838.4,1331.5,1821.8,1341.5,1796.5z M939.2,1664c4.9-87.8,4.9-87.8-70.7-82.3c-4,0.3-7.9,0.7-11.8,1.4
			c-11.4,2.2-17.1,8.4-16.2,20.7c2.2,31.8,3.3,63.7,15.8,93.7c12.1,29,31.8,50.3,62,60.5c15.2,5.1,24.8,2.8,22.4-17.3
			C937.3,1714,936.8,1687.1,939.2,1664z M1366.5,1774.9c30.3-16.2,63.1-15.5,95.9-15c16,0.2,31.9-0.4,47.9-1.1
			c5.7-0.2,13.2-0.1,13-8.6c-0.2-7.2-3.1-14.9-11.7-14.8C1459.9,1736.2,1409.1,1740.1,1366.5,1774.9z"/>
		<path class="st0" d="M2310.9,2571.4c-88.8,0-158-68.3-158.6-156.6c-0.7-88.5,71.2-160.9,159.4-160.6
			c87.3,0.3,157.6,70.5,158.4,158.4C2471,2501.9,2401.4,2571.3,2310.9,2571.4z M2203.2,2413.3c-0.1,60.6,47,109,106.9,109.7
			c60.9,0.7,109.8-48.5,109.5-110.2c-0.3-61-47.4-107.7-108.5-107.5C2249.8,2305.4,2203.4,2352,2203.2,2413.3z"/>
	</g>
</g>
</svg>
