<?xml version="1.0" encoding="utf-8"?>
<!-- Generator: Adobe Illustrator 23.0.0, SVG Export Plug-In . SVG Version: 6.00 Build 0)  -->
<svg version="1.0" xmlns="http://www.w3.org/2000/svg" xmlns:xlink="http://www.w3.org/1999/xlink" x="0px" y="0px"
	 viewBox="0 0 3000 3000" style="enable-background:new 0 0 3000 3000;" xml:space="preserve">
<style type="text/css">
	.st0{stroke:#000000;stroke-width:10;stroke-miterlimit:10;}
</style>
<g id="Layer_1">
</g>
<g id="Layer_2">
	<g>
		<path class="st0" d="M60.2,1663.7c-3.2-188.3-3-328.4,14.4-467.9c35.7-286.7,165.8-525.8,369.8-726.1
			C569.3,347,710.9,247.9,878.7,192c110.1-36.7,225.6-46.3,340.5-53.4c272.5-16.8,545.3-27.4,818.3-31.8
			c103.8-1.7,207.5,3.4,311.1,12.4c161.5,14,266.9,108,347.3,238.6c57.1,92.7,89.1,195.5,119.9,299.1
			c47.9,161.4,91.3,323.4,101.4,492.4c12.1,201.3,11.6,402.9-0.5,604c-16.6,276.6-101.2,532.2-268.6,754.1
			c-148.5,196.9-349.2,317-591.8,367.7c-137.8,28.8-276.7,23.9-415.5,22.4c-134.8-1.5-270.4,1.2-404.1-18.5
			c-241.6-35.6-481.3-82-702.6-190.9c-251.6-123.8-397.7-328-445.8-603.6C61.2,1929.2,64.1,1772.2,60.2,1663.7z M1605,2843.9
			c112,3.7,205.4,3.3,298.8-1.2c223.4-10.8,418.7-92,584.4-239.3c212.4-188.8,312.8-438.4,359.4-710.9
			c35.7-208.5,26.2-420.2,22.8-630.9c-2.9-177.6-32.5-350.7-84.4-520.4c-39.1-127.8-69.2-259.2-144.6-372.5
			c-62.4-93.9-138-171.8-256.6-190.9c-51.3-8.3-102.9-13.7-154.8-14.9c-374.1-8.4-747.3,10-1120.2,37.7
			C950.2,212.3,804.1,262.7,671,352.3C502.8,465.6,366.1,608.5,264.5,783.4c-83.9,144.6-130.3,302.4-144.5,469.1
			c-15.2,179.4-8.7,359.1-5.2,538.6c1.9,93.3,7.7,186.6,23.4,279c43.5,256.6,176.4,448.8,410,567.1
			c207.2,104.9,432.8,147.8,658.9,185.7C1344.8,2845.9,1484.5,2842.6,1605,2843.9z"/>
		<path class="st0" d="M1686.7,2599.2c-263.4,14.2-522.3-18.1-775.5-88.9c-183-51.2-313.5-173.3-413.7-330.4
			c-81.8-128.2-124.6-267.8-123.7-420.8c1-177.4-9.6-355.9,26.9-530.9C458.5,950,575.9,703.1,799.5,518
			c70.5-58.4,147.9-110.3,240.9-123.3c85.1-11.9,171.6-13.8,257.5-20.2c153.8-11.4,307.5-22.6,461.3-34.1
			c111.3-8.3,222.5-21.7,334.2-20.1c115.6,1.6,209.8,57.9,291.1,132.8c170.5,157,271.4,350.6,291.5,583.9
			c24.4,283,9.1,563.6-47.3,842.1c-16.9,83.3-28.7,167.9-60.6,247.1c-92.2,228.8-255.4,381.5-493.6,450
			c-69.2,19.9-141.7,19.9-213.2,22.5C1803.1,2600.8,1744.9,2599.2,1686.7,2599.2z M1693.8,2550.4c12.5,0,24.9,0.4,37.4-0.1
			c109.9-3.7,221.9,4.8,328.3-24.7c236.2-65.4,395.1-219.4,470.3-451.7c53.8-166.1,75.2-340.2,93.7-513.4
			c18.1-168.6,13.2-337.9,1.9-507.1c-13.8-207.1-100.1-381.7-241.1-529.6c-100-105-219.4-168-372-150.3
			c-95.7,11.1-192.4,14.1-288.7,21.2c-215.2,15.9-430.4,32.2-645.7,48.3c-31.1,2.3-61.8,6.5-90.5,19.6
			c-77.1,35.2-147.6,80.3-207.7,140.6c-199.7,200.5-306.3,446-341.6,723.4c-18.5,145.4-14.1,292.3-12.6,438.7
			c1.4,133.8,36.3,258,106.8,372c101.4,163.9,235.2,285.4,427.7,333C1201.2,2529.9,1445,2562.5,1693.8,2550.4z"/>
		<path class="st0" d="M2501.5,1325.9c-2.4,155.8-6.2,296.9-19.3,437.6c-5,53.8-25.5,102.6-49.3,149.8
			c-119,235.6-295.2,406.2-553.5,481.8c-57.1,16.7-116.2,22.7-175.4,23.1c-138.1,0.8-276.2,1-414.3,0.1
			c-245.1-1.7-426.8-121.4-573.1-308.2c-82.5-105.4-121.6-225.6-128.4-357.2c-7.7-149.3-11.1-298.7-12.7-448.2
			c-3.7-336.9,166.7-564.5,450.9-721.9c87.2-48.3,182.3-58.8,278.7-64.3c179.3-10.2,358.7-16.9,538.1-24.2
			c146.4-6,281.4,22.6,404.5,103.6c72.8,47.9,136.4,104.8,184.8,177.9c43.4,65.6,66.6,136.8,70.3,216
			C2508.2,1108.3,2505.6,1224.4,2501.5,1325.9z M2449.6,1354.3c1-124.6,4.5-234.5,2.2-344.6c-2.2-109.6-43.6-200-119.5-274.9
			c-121.9-120.3-264.2-192-441.4-188.1c-188.8,4.2-377.5,11.6-566,22.4c-63.9,3.6-128.9,5.3-191,24.2
			c-73,22.3-137.2,62.5-197.9,107.3c-188.7,139.6-303.9,319.9-306.8,561.9c-1.8,147.5,6.5,294.7,7.3,442.1
			c0.9,194.8,77.4,353.2,219.1,482.9c114.5,104.7,245.1,172.4,403.8,177.4c151.5,4.8,303.1,5.7,454.6,1.1
			c65.4-2,130.2-10.4,192.3-33c234-85.1,391.6-250.1,493.9-472.7c16.9-36.9,28.2-75.2,32.3-116.2
			C2446,1609.5,2441.8,1474.3,2449.6,1354.3z"/>
		<path class="st0" d="M1073.9,1529.6c323.3-149.1,446.5-412.3,437.2-753.7c18.3,32.2,22.8,66.6,29.3,99.8
			c26.4,134.7,79.8,254.7,183.6,348.4c94.7,85.5,206.2,133,332.4,147.4c21.6,2.5,43.1,5.7,64.6,8.9c1.6,0.2,2.8,2.6,7.1,6.8
			c-18.9,8-36.4,15.5-53.9,22.9c-258.6,108.8-400,302.6-422.8,582.5c-0.8,9.3-2.9,18.8-2,27.9c2.3,22.8-9.8,26-29.3,28.3
			c-24.7,2.8-23.3-11.6-25.2-27.5c-21.4-175.5-98.6-317.1-252.5-411.1C1260.9,1560.4,1169.5,1542.4,1073.9,1529.6z M1537.6,1052.3
			c-47.9,194.3-151.8,341.6-313.9,452.5c93.4,26.9,171.8,69,239.5,131.2c68.1,62.5,114.7,139.2,152.2,233.3
			c50.8-206.1,163.8-355.8,341.5-462C1762.8,1351.7,1625.2,1236.7,1537.6,1052.3z"/>
		<path class="st0" d="M2064.2,1028.8c-84.5,0.1-150.5-66-149.8-150c0.6-82.1,67.2-148.4,149.2-148.6
			c83.1-0.2,150.4,67.6,149.8,151.1C2212.9,963.9,2147.2,1028.8,2064.2,1028.8z M2064.6,782.6c-54.4-0.4-99.5,44.5-98.8,98.4
			c0.7,52.5,44.8,96.7,97.3,97.2c53.4,0.5,99.4-45.4,98.8-98.8C2161.4,826.3,2117.8,783.1,2064.6,782.6z"/>
		<path class="st0" d="M1025.6,785.6c84.9-0.1,150.3,65.4,149.6,149.7c-0.7,81.8-67.7,149.1-148.9,149.3
			c-81.9,0.3-151.1-69.6-150.1-151.7C877.4,849.8,942.4,785.6,1025.6,785.6z M929.7,932.7c-0.4,56.2,39.2,97.2,94.3,97.8
			c57.3,0.6,99-40.2,98.9-96.7c-0.2-54.4-42.3-97-96.3-97.3C972.5,836,930.1,878.2,929.7,932.7z"/>
		<path class="st0" d="M1094,1913.3c80.5,0.6,141.8,62.1,141.5,142c-0.3,79.1-64,142.3-143.2,141.9
			c-78.9-0.5-143.1-65.1-142.4-143.4C950.7,1974.4,1013.9,1912.8,1094,1913.3z M1092.2,2144.2c50.8,0.3,92-39.7,92.1-89.6
			c0-49.6-42-91.3-91.8-90.9c-49.5,0.4-88.7,39.4-89.5,89.1C1002.2,2104.8,1040.3,2143.9,1092.2,2144.2z"/>
		<path class="st0" d="M2126.2,1975.4c0.2,70.9-57,129-127.9,129.9c-71.3,0.9-130.3-58.5-129.7-130.7c0.6-71.4,58.3-128.8,129-128.5
			C2068.3,1846.5,2126.1,1904.5,2126.2,1975.4z M1999.4,1900c-44.4-1-77.9,30.3-78.9,73.6c-1,43.7,31.2,77.6,74.5,78.6
			c43.4,1,78.2-31.4,79.7-74.3C2076.3,1935.6,2042.7,1900.9,1999.4,1900z"/>
	</g>
</g>
</svg>
