<?xml version="1.0" encoding="utf-8"?>
<!-- Generator: Adobe Illustrator 23.0.0, SVG Export Plug-In . SVG Version: 6.00 Build 0)  -->
<svg version="1.0" xmlns="http://www.w3.org/2000/svg" xmlns:xlink="http://www.w3.org/1999/xlink" x="0px" y="0px"
	 viewBox="0 0 3000 3000" style="enable-background:new 0 0 3000 3000;" xml:space="preserve">
<style type="text/css">
	.st0{stroke:#000000;stroke-width:10;stroke-miterlimit:10;}
</style>
<g id="Layer_1">
</g>
<g id="Layer_2">
	<g>
		<path class="st0" d="M1494.8,1059.8c-35.2,4.9-66.3,8-97,13.6c-325.7,59.6-566.3,295.1-631.9,619.4
			c-23.8,117.9-28.1,236.6-9.5,355.8c6.6,42.7,6.3,42.7-42,52.2c-42.3-317.6-2.1-611.1,236.5-848.9c132.5-132.1,295.9-204,480-230.6
			c14.6-2.1,29.3-4.3,46.5-6.9c-14.6-18.4-25.5-37.7-53.5-31.4c-222.9,50.7-422.1,145.4-579.9,315.5
			c-132.8,143.2-207.2,316.8-255.1,502.9c-31.7,123.4-43.8,249.4-36.7,376.8c0.9,16.7,0.4,28.4-21.6,30.1
			c-22.4,1.7-26.3-8.3-26.7-27.2c-3.8-166.2,14.6-329.1,67.1-487.6c56.7-171.1,137.2-328,266.9-456.2
			c142.7-141.1,314.8-229.7,506.8-282.6c11.3-3.1,23.8-3.5,36.6-13.4c-56-26.7-111.6-31.4-169.1-17.3
			c-85.7,21.1-156.8,69.1-220.2,127.6c-205.1,189.4-381.7,400.7-490.8,661.3c-47,112.3-76.6,229.2-56.4,351.4
			c22.5,136,69.8,264.2,138,384.5c26.2,46.1,55.5,90.2,88.1,136.4c-59,8-114.9,9.2-171,2.6c-156.5-18.7-277.3-89.2-339.9-240
			c-24.9-59.9-35.7-124.3-35.2-188.6c3.6-481.4,143.2-909.1,496.1-1252.8c103.1-100.4,208-197.9,332.3-272.1
			c99.6-59.4,205-102.7,322.1-109.9c165.8-10.2,303.5,52.3,420.3,166.6c16.5,16.1,31.3,42.7,49.7,45.4c16.5,2.4,36.7-21.6,55.4-33.8
			c6.2-4.1,12.7-7.8,19.2-11.4c34.8-19.6,34.8-19.5,11.2-50.5c-146-191.6-350.3-256.9-594.1-192.6
			C970.9,518.5,758,669.5,580.1,875.6c-103.6,120.1-181.5,256.6-259.6,393.3c-55.7,97.4-118.7,189.3-212.1,255.6
			c-25.9,18.4-31.2,16.8-43.6-12.4c-2.9-6.8-4.4-11.2,3.1-16.2c130.7-86.7,196.8-223.4,271-353.3c73.8-129.3,158.8-250,261-358.4
			c178.8-189.5,390.9-322.5,645.5-386.2c250.4-62.6,475.7,15.3,628.9,223.4c18,24.5,31.3,33.5,62.3,21.8
			c51.2-19.4,52.6-16.9,16.5-61c-33.4-40.9-74.9-72.2-119.2-100.4c-140.8-89.7-293.9-143.4-460.1-159.9c-17.4-1.7-40.9,3.7-36-29.5
			c2.7-18.1,9.5-20.7,25.2-19.2c211.7,21.4,404.1,91.4,571.7,224.7c33.9,27,63.3,58.8,82.2,97.7c10.3,21.2,21.4,29.7,44.4,24.1
			c9.6-2.3,20.3-0.4,30.5-0.4c4.5-13.4-4.9-20.5-9.7-28.4c-78.9-128.5-190-215.6-335.5-256.8c-21.4-6.1-31.6-11.5-23.5-36.2
			c9-27.3,25.6-11.9,38-8.3c165.7,48.2,289.6,149.7,373.6,299.5c12,21.5,25.1,26.7,48.2,26.1c160.4-4,320.6-1.3,480.4,14.9
			c45.8,4.6,83.8,24.5,111.7,61.5c62.1,82.7,123.3,166,185.9,248.3c13,17.1-1.9,19.8-9.5,27.2c-11.2,10.9-20.3,13-31.3-2.2
			c-44.2-61.1-89.5-121.4-134.3-182.1c-3.9-5.2-8.6-10-11.6-15.7c-39.4-75.9-106-94.6-186-98.3c-162.2-7.5-324.1-9.4-486.4-5.1
			c-196,5.2-343.3,97.9-460.3,248.1c-57.6,74-101.2,156.1-137.6,242.2c-24.1,57.1-66,94.5-126,109c-61.4,14.8-124,24.8-185.3,40
			c-92.5,23-173,64.6-216.3,156.5c-12.8,27.1-22,55.2-25.2,85.3c-8.1,76.3,23,131.9,88,169.9c33.4,19.5,68.8,30.1,108.4,31.7
			c120.2,4.7,240.6-1,360.6,8.4c13,1,26,1.9,38.9,3.4c50.6,5.9,99.6-23.5,117.5-71.4c11.4-30.5,6.3-58.8-14.7-83.7
			c-24.4-28.9-56.6-42-93.6-42.7c-13.9-0.3-19.9-4.7-22.2-18.3c-3.5-20.7,1.1-30,25-28.6c50,3.1,93,20.2,125.4,58.5
			c35.7,42.2,44.8,90.7,19.3,140.5c-27.9,54.4-71.2,92.4-135.8,92.1c-70.8-0.4-141.6-4.2-212.2-8.9c-26.2-1.7-34.6,8.6-37,32.1
			c-5.8,57.6,22.3,98.9,65,131.2c27.3,20.7,58.4,36.5,87.9,54.3c40.2,24.2,78.5,50.3,104.2,91.1c11.1,17.5,19.4,36.2,23.6,56.4
			c11.8,56.6-2.3,81.2-55.2,103.3c-76.6,32-143.9,24.3-204.5-37.2c-48.2-49-107.6-82.7-171.7-107.6c-6.9-2.7-14-5.1-21.1-7.2
			c-45.6-13.4-59.6-2.9-56,43.5c2,26,6.7,51.7,9.6,77.6c8.6,78-27.7,124.5-105,135c-36.9,5-56.1,34.2-47.2,73.1
			c6.1,26.8,21.4,49.1,36.8,71.5c98.3,143.4,234.8,198.1,404.4,172.9c85.6-12.7,170.5-29.6,255.8-43.8
			c112.7-18.7,223.6-12.6,329,34.1c169.8,75.3,346.6,105.3,531.2,90c20.6-1.7,24.9,5.4,25.5,24.1c0.5,17-3.7,21.4-21,22.7
			c-177.6,13.4-350.5-5.2-513.8-79.4c-141-64.1-284.4-63.7-431.7-30.5c-73.5,16.5-147.8,30.2-223.4,34
			c-103.8,5.2-200.3-15.7-283.8-80.8c-51.7-40.4-95.2-88.6-129.4-144.8c-15.2-25-26.2-51.4-27.3-81.2
			c-2.2-62.4,32.5-102.9,94.5-109.6c41.2-4.5,56.3-20.5,59-62.3c2-31.1-6.3-61-9.5-91.5c-1.8-16.9-1.9-33.4,1.4-50
			c6.7-33.7,29.7-53.5,64.1-55c21.6-0.9,42.4,2,63,9.5c75.5,27.5,143.4,67.7,201.2,123.3c52.6,50.7,90.9,53.2,168.1,19.7
			c13.7-5.9,14.2-15.9,13.6-27.2c-2.1-35.5-19-63.7-44.3-87.5c-39.8-37.6-90.1-59.1-135.3-88.5c-51.9-33.7-90.3-77.3-102.5-140.2
			c-3.6-18.6-4.8-37.3,0.2-55.4c4.7-16.9-0.9-21.1-17.1-21c-41.9,0.2-84,1.1-125.8-2c-105.6-7.9-239.6-90.8-227.2-238.3
			c10.3-122.1,72.6-211,184.3-263.6c63.8-30,132.3-43.5,201.1-55.8c18.3-3.3,36.5-7.4,54.8-10.6c61.3-10.7,103-44.4,124-103.7
			C1474.8,1101.1,1484.4,1083,1494.8,1059.8z M1078.6,929.6c-63.9-61.4-126.4-121-188.4-181.1c-11.4-11-18-2.4-25.9,3.5
			c-59.8,44.6-114.5,95-167.9,146.9c-12.3,11.9-9.8,17.5,1.4,27.4c57.1,50.5,113.8,101.6,170.3,152.9c8.7,7.9,14.4,11.6,24.8,1
			C948.3,1023.6,1008,972,1078.6,929.6z M313.8,1447.7c-10.4-0.7-11.5,7-13.6,12.6c-17.2,48-33.8,96.2-51.2,144.2
			c-5.3,14.6,1.2,19.5,13.8,23.9c58.6,20.6,117,41.7,175.2,63.2c13.6,5,21.1,3.5,26.8-11.6c16.7-43.4,36.6-85.5,61.1-124.9
			c12.9-20.7,3.6-25.6-13.4-32c-61.6-23-122.9-46.8-184.3-70.3C323,1450.9,317.8,1449.1,313.8,1447.7z M494,2379.1
			c-0.5-1.8-0.8-3.7-1.5-5.4c-12.9-31.9-26-63.8-38.6-95.8c-5.1-13-12.4-7-19.8-3.2c-63.8,32.4-127.6,64.9-191.7,96.8
			c-12.8,6.4-13,12.5-5.2,23.3c24.7,34.5,54.3,63.7,89.5,87.3c9.6,6.4,17.3,7.8,27.7,0.4c42.5-30.2,85.6-59.4,128.4-89.1
			C487.9,2389.9,494.7,2387.4,494,2379.1z M1387.2,727.6c-63.8,11.6-90.8,50.2-79.7,113.8C1377.2,818.2,1387.9,802.9,1387.2,727.6z
			 M1184.1,675.9c-68.6,18.8-68.6,18.8-76,88c-0.9,8-5.3,15.9-0.8,24.1C1172.4,771.7,1186.9,750.5,1184.1,675.9z M1333.2,692.1
			c46.1-9.7,81.7-25.6,82.3-77.8c0-4.6,0.6-9.4,2.2-13.6c5.6-15.4-0.7-18.6-14.2-14.2c-30.8,10.1-61.9,19.3-60.6,62.1
			C1343.2,661.8,1337.1,675.3,1333.2,692.1z M338.8,1813.4c-2.9,4.6-5.9,9.1-8.5,13.9c-9.3,17.1-18.5,34.3-27.5,51.5
			c-2.5,4.7-7.3,10.4-1.4,14.9c12.5,9.6,24.7,22.6,39,26c12.6,3,14.7-15.7,20.5-25.3C391.6,1843.3,391.4,1843.2,338.8,1813.4z
			 M1531.2,742.6c7.2-0.5,9.2-0.2,10.8-0.8c19.7-8.2,39.2-16.7,59-24.8c14.1-5.8,25.2-14.3,18.9-31c-4.8-12.8-53-39.2-59.6-34.6
			c-2.8,2-5.7,5.3-6.6,8.5C1546.2,686.4,1539.2,713.1,1531.2,742.6z M1224.5,738.8c59.4-17.3,69-32.8,70.7-109
			c-19.5,10.5-47.6,8-56.3,30.5C1229.8,683.7,1229.2,710.5,1224.5,738.8z M1500.8,869.8c46.8-18.2,95.2-33,91.9-96.7
			C1545.8,789.2,1494.9,801.3,1500.8,869.8z M220.4,2126.1c5.8,2,8.1-1.9,10.5-6c10.6-18.3,21.4-36.6,32.1-54.9
			c3.4-5.9,1-9.7-3.7-14.1c-24.6-23-36.8-21.4-52.5,7.8c-3.9,7.3-7.8,14.6-11.7,22C181.1,2107.1,191.1,2124.8,220.4,2126.1z
			 M1429.8,787.9c65.7-8.7,51-66.8,70.5-108C1442.8,693.2,1428.2,717.2,1429.8,787.9z M1267.6,775.1c-10.8,4.1-16.3,5.4-21.1,8
			c-14.5,7.9-35.2,7.9-36.8,32c-1.2,18.4-5.7,36.5-8.2,54.8c-0.3,1.9,1.8,5.1,3.7,6.2c9.7,5.9,41.3-6.3,44.2-18.1
			C1255.7,832.3,1260.9,806.2,1267.6,775.1z M255.4,1861.8c3.1-3.4,6.1-5.6,7.7-8.5c11.1-20.2,23.1-40,32.3-61
			c7.8-17.7-11.4-19.8-19.9-27.6c-10.9-10-13.9,1.9-17.7,8c-9.8,15.6-19.1,31.6-28,47.7c-3.3,5.9-11.3,12.5-3.9,19.4
			C234.6,1847.9,244.9,1854.1,255.4,1861.8z M411.6,1805.2c11.1-14.5,18-29.6,23.1-45.6c2.8-8.9,7.6-19.3-6.8-21.8
			c-15.3-2.7-29.8-21.4-45.5-7.2c-22.8,20.5-20.4,39.2,4.1,57.3C394.6,1793.9,403.1,1799.4,411.6,1805.2z M1063.6,724.7
			c-45.1,11.7-59.1,33.2-49.9,72.2c3,12.9,12.6,22.2,24.9,22.2c12.2,0,18.2-10.1,18.9-23.2C1058.8,772.9,1061.4,749.9,1063.6,724.7z
			 M534.4,1318.6c-51.5,35.9-58.8,54.2-42.5,105.3C527.2,1398,555.3,1368.8,534.4,1318.6z M1158.1,820.8
			c-17.1,7.1-32.3,13.7-47.7,19.9c-19.7,7.9-14.8,25.7-11.6,38.3c3.2,12.4,13.8,25.7,29.7,24.3c14.1-1.2,23.5-11,23.8-26.3
			C1152.6,859.4,1161.6,842.9,1158.1,820.8z M1557.5,896.6c-26.7,12.4-47.8,21.9-68.5,32c-13,6.3-15.8,14.6-3.8,25.4
			c13.7,12.3,26.8,25.2,41.6,39.2C1536.8,961.7,1546.2,932.1,1557.5,896.6z M342.1,2103.5c-6.2-9.8-18.3-14.7-29.8-19.9
			c-3.7-1.7-42.2,55.8-39.6,60.9c7.5,14.6,24.1,14.9,37.1,20.6C313.7,2166.9,342.9,2113.3,342.1,2103.5z M276.3,1934.7
			c-13.4,14.4-20.7,32-28.5,49.1c-2,4.4,33.8,29.6,40.4,29c5-0.4,31.9-39.7,29-44.7C308.4,1952.4,291.3,1946.1,276.3,1934.7z
			 M1121.1,647.9c23.6-9.2,45.7-17.7,67.7-26.6c14.2-5.7,10.2-20.2,13.6-31c0.9-2.8,0.2-8.2-5.5-7.2c-23.8,4.1-48.3,8.2-68.6,20.7
			C1114.9,612.2,1120.2,630.6,1121.1,647.9z M251.6,2191.5c-6.6,0.3-33.6,37.4-30.3,41.1c11.8,13.6,30.5,23.5,45.2,22.2
			c15.6-1.4,23.8-25.8,22.8-39.4C288.1,2197.7,262.9,2201,251.6,2191.5z M1637.5,806.2c26-12.4,46.7-22.3,69-33
			c-11.6-14.4-18.5-35.2-38-33.5c-20.8,1.8-18.4,24.9-24.3,39.8C1641.6,786.2,1640.6,793.5,1637.5,806.2z M185.3,1932.4
			c-0.9,11.3-2.9,23.5,11.6,27.4c15.2,4.1,13.5-11.8,19.4-18.6c3.5-4.1,6.4-9.4,7.7-14.6c2-8.6,16.8-16,3.8-26.1
			c-9.4-7.3-20.4-19.2-29.8-18.3c-12.3,1.1-6.4,18.4-9.6,28.3C186.1,1917.3,186.2,1925,185.3,1932.4z M523.8,1085.6
			c-28.1,25.9-47.3,53.2-34.4,92.8C527.5,1158.2,537,1127.2,523.8,1085.6z M1457.2,832.7c-32.3,5.5-49.8,19.3-51.5,49
			c-0.6,10.8-2,20.6,11.5,23.8c11.6,2.7,20.6-1.7,24-12.7C1447.1,873.8,1451.5,854.4,1457.2,832.7z M578,1088.5
			c45.1-20.6,24.9-58.3,26.4-92.9C567.5,1025.3,563.3,1041.3,578,1088.5z M1021.1,686.2c52-16,52-16,49.7-58
			C1018.3,644.8,1017,646.3,1021.1,686.2z M517.9,2428.1c-5.8,2.9-9.1,3.6-10.5,5.5c-9.6,14.1-44.3,12.7-32,38
			c14.2,29.1,33.8-2.3,51.4-3c5.4-0.2,12.5-4.5,6.6-13.5C527.7,2446.4,523,2437,517.9,2428.1z M696.9,1171.7
			c-40.1,27.3-42.6,34.1-28.7,74.8C697.2,1229.7,710.6,1206.6,696.9,1171.7z M589.1,1326c35.1-28.6,36.6-33.9,23.3-78.4
			C578.2,1271.5,576.9,1275.7,589.1,1326z M382.1,2198.1c2.8-3,6.5-5.7,8.4-9.3c6-11.4,10.5-23.6,16.9-34.8
			c6.9-12.1-0.9-15.4-9.1-20.9c-12.2-8.3-16.1-1-20.3,8.4c-4.5,10.1-8.4,20.6-14,30.1C351.8,2192.2,370.7,2191.2,382.1,2198.1z
			 M687.3,1057.1c-33.3,13.7-38,29.5-24.2,75.4C701.6,1117.1,688.7,1085.5,687.3,1057.1z M528.9,1210.6
			c-21.4,23-54.4,37.9-38.1,80.2C514.3,1268.6,548.1,1254.1,528.9,1210.6z M191.4,2294.4c7.4,12,2,33.2,20.2,39.7
			c10.7,3.8,40-21.9,35.5-28.8c-10.5-16.2-30.2-18.8-46.9-24.8C190.7,2277,191.6,2286.5,191.4,2294.4z M386.6,2016.3
			c-6.2-9.4-17-21-24.4-18.8c-15.4,4.6-22,22.5-25.5,36.7c-3.6,14.8,16.5,21.6,23.7,20.2C377.4,2051.1,375.6,2029.7,386.6,2016.3z
			 M582.7,1205.1c35.8-25.6,36.9-28.8,24.8-71.8C578.5,1148.9,571.6,1172.5,582.7,1205.1z M582.7,2542.5
			c-20.7-40.8-20.6-40.7-57.6-22c-5.4,2.7-13.7,2.8-10.4,12.2c2.2,6.5,6.8,10.9,14.3,10.9C546.1,2543.5,563.4,2547.3,582.7,2542.5z
			 M748.3,1166.3c24.8-15.1,37-34,24.2-63.2C743.7,1116.4,737.5,1137.6,748.3,1166.3z M594.5,1435.8c32-38.4,32.2-39.1,23.6-67
			C593.3,1384.2,581.3,1404,594.5,1435.8z M339.7,1710.4c-7.2-10.8-19.6-13.3-30.1-14.9c-11.4-1.7-15.9,12.6-15.1,18.9
			c1.5,12.5,15.3,20.8,25.5,21.5C331.8,1736.9,332.4,1720.3,339.7,1710.4z M315.8,2276.1c1.5,1.3,2.9,2.5,4.4,3.8
			c12-6.8,24.5-12.7,35.6-20.7c4.1-3,11.1-10.1,5.7-16.3c-4.5-5.2-12.2-8.2-19-10.6c-7.3-2.6-9.1,4.4-11.3,9.2
			C325.8,2252.9,320.9,2264.5,315.8,2276.1z M401.5,1373c16.4-21.1,48.6-28.9,32.9-67.8C418.5,1325.9,389.9,1335.8,401.5,1373z
			 M1514.5,618.4c-17.2-9.6-32.2-22-45.1-16.9c-11.6,4.6-7.9,24.1-10.4,40.8C1478.2,634,1494.5,627,1514.5,618.4z M970.8,680.9
			c-16.5,4.5-28.8,16.1-42.5,25c-10.9,7-4.1,12.9,3.5,15.2C951,726.9,973.8,703.5,970.8,680.9z M649.5,948.2
			c2,23.4-0.6,42.3,5.6,61.5C687.9,984.8,687.7,977.3,649.5,948.2z M399.9,1269.8c17.4-17.2,46.6-27.4,36.2-64.4
			C419.7,1226.6,406.5,1246.3,399.9,1269.8z M171.8,2158.3c1.2,18.1,2.1,33.2,3.3,51.3C206.6,2171.7,206.6,2171.3,171.8,2158.3z
			 M1248.4,595.7c21.9-6.4,39.5-12.5,54.8-24.2C1284.4,574.6,1257.8,559,1248.4,595.7z M542.2,1445.5c-12.2,6.8-20.3,15.8-27.3,26.8
			c9.7,5.6,18.1,11.1,29.5,10.1C547.1,1470.2,545.7,1458.7,542.2,1445.5z M731.4,1021.6c1.8,17.6,3.1,30.5,4.5,44.3
			C771.1,1049,753.3,1037.1,731.4,1021.6z M437,1404.2c-12.5,11.5-25.7,15.8-25,29.1c0.2,3,16.7,9.7,21,7
			C445.1,1432.9,438.5,1420.3,437,1404.2z M709.6,1282.6c-18.2,11.1-36.7,22-37.9,47C684.3,1313.9,697,1298.3,709.6,1282.6z
			 M396.8,2514.1c12.4,7,21.3-3,31.4-5.5c5.6-1.4,10.1-4.7,6.1-11.9c-3.3-5.9-7.8-8-13.2-3.5C413,2500.1,401.1,2502.6,396.8,2514.1z
			"/>
		<path class="st0" d="M2304.2,2394.6c-45-4.7-90.2-7.9-133.7-23.4c-31-11-58.7-26.6-75.7-54c-70.3-112.9-108.4-232.5-69-366.3
			c50.7-172.1,231.1-298.5,410.1-287.9c57.1,3.4,113,10.7,165.2,35.8c106.6,51.2,144.2,149.6,97.4,258.1
			c-32.8,76-82.9,141-135.4,204.1c-44.6,53.7-89.4,107.2-124.9,167.6C2408,2379.7,2363.5,2402.1,2304.2,2394.6z M2556,2091.5
			c42.6-50.2,80.8-103.8,104.5-166c26.9-70.9,6.5-129.4-57-171.6c-39.2-26-83.7-34.6-129-41.4c-179-26.7-356.7,85.6-405.7,258.9
			c-33.1,117.3,3.8,222.1,65.3,320.8c11,17.7,29.5,28.2,49.5,34.7c51,16.7,103.6,22.2,157,20.8c18-0.5,32.8-9.3,42.7-23.3
			c25-35.3,48.7-71.6,74.2-109.5c-121.1,25.4-193.2,0.7-237.5-79.5c-37.4-67.7-26.5-153.8,26.6-210c54.7-57.8,140.6-73.7,210.4-38.7
			C2533.2,1924.7,2568.9,1999.6,2556,2091.5z M2379.1,1915.5c-74.2-0.6-134.1,58.1-134.7,131.8c-0.6,73.8,58.4,133.5,132.5,134.2
			c74.2,0.6,133.9-57.9,134.5-131.9C2512,1975.5,2453.3,1916.1,2379.1,1915.5z"/>
		<path class="st0" d="M2075.6,871c-84.5,2.8-176.6,6.6-267.9,21.4c-22,3.6-40-17.6-32.8-38.1c3.4-9.7,12.6-6.1,19.1-7.1
			c107-16.6,214.7-22.9,323-21.6c57.8,0.7,115.4,2.6,172.6,11.5c83.6,13,116.1,50,117.2,135.1c1.5,112-13.8,223-20,334.5
			c-1,17.7-2.7,35.3-2.7,53c-0.1,52.2,23.7,84.6,73.8,98c99.2,26.4,197.5,22.3,293.2-15.1c22.5-8.8,30.9-3.3,37.8,17.9
			c4.3,13.3,1.5,18-10.5,22.6c-112.3,43.6-226.8,50.5-342.3,16.7c-67.3-19.7-102-73.5-98.3-147.9c3.7-73.5,10.4-146.8,15.2-220.2
			c3.3-51.1,7.2-102.3,7.9-153.5c0.8-66.6-19.6-87.5-85.4-96.3C2211.8,873.5,2147.6,872.2,2075.6,871z"/>
		<path class="st0" d="M1678.2,1337.1c-53.9-102.4-45.4-157.5,33.9-238.7c-4-12.6-34.4-5.3-21.1-32.2c10.3-20.8,18.3-26.4,41.1-13.8
			c109.7,60.9,220.6,119.8,331,179.6c23.8,12.9,47.1,26.6,65.1,47.4c24.1,27.9,19.7,58.5-11.7,77.8c-39.2,24.1-83,34.3-128,33.1
			c-109.9-2.8-219.8-5.6-329.8-4.4c-18.8,0.2-25.8-3.6-25.5-24.1c0.3-20.1,6.6-26.8,25.8-23.7
			C1664.2,1338.9,1669.8,1337.6,1678.2,1337.1z M1821.3,1153.2c24.3,65.8,16.4,125.7-4.7,190c65.4,0,126.8,0.7,188-0.4
			c23.2-0.4,46-5.7,67.5-15.4c27.1-12.2,28.5-16.2,2.9-32.5C1995.4,1243.7,1910.6,1201.6,1821.3,1153.2z M1790.8,1231.6
			c-0.5-21.8-5.9-49.8-21.8-75c-11.9-19-26.2-20.7-43.9-6.2c-44,36-45.2,125.5-1.5,163c23.5,20.2,49.3,12.6,57.3-16.8
			C1786,1277.7,1790.7,1258.8,1790.8,1231.6z"/>
	</g>
</g>
</svg>
