<?xml version="1.0" encoding="utf-8"?>
<!-- Generator: Adobe Illustrator 23.0.0, SVG Export Plug-In . SVG Version: 6.00 Build 0)  -->
<svg version="1.0" xmlns="http://www.w3.org/2000/svg" xmlns:xlink="http://www.w3.org/1999/xlink" x="0px" y="0px"
	 viewBox="0 0 3000 3000" style="enable-background:new 0 0 3000 3000;" xml:space="preserve">
<style type="text/css">
	.st0{stroke:#000000;stroke-width:10;stroke-miterlimit:10;}
</style>
<g id="Layer_1">
</g>
<g id="Layer_2">
	<g>
		<path class="st0" d="M2339.8,772.4c-11-5-19.3-3.3-27.4-3.3c-199.5-0.1-399.1,0-598.6-0.3c-7.6,0-20,4.3-21.9-4.5
			c-3-13.6-2.4-28.8,0.2-42.7c1.2-6.6,12.2-3.3,18.7-3.3c130.3-0.2,260.6-0.1,390.8-0.1c86.4,0,172.8-0.4,259.2,0.4
			c15.1,0.1,23.2-4.9,30.4-18c23.3-42.2,40.7-86.4,51.8-135.3c-9.7,0-17.8,0-25.9,0c-233.8,0-467.6-0.3-701.4,0.5
			c-19.9,0.1-27.9-3.4-25.9-25.2c2.6-28.6-4-25.9,27-25.9c236.6-0.1,473.1,0,709.7-0.1c27.7,0,28.1,0,28.8-28.4
			c1.2-46.6,0.9-93-10.3-139c-3.9-16.1-10.5-20.1-26.3-19.8c-233.7,4.3-467.5,8.1-701.2,11.6c-8.7,0.1-22.4,6.3-25.7-4.5
			c-3.8-12.6-2.5-27.4-0.2-40.7c1.4-8,11.8-4.1,18.1-4.3c134.4-2.6,268.7-5,403.1-7.2c101.3-1.7,202.7-3.2,307.2-4.8
			c-20.3-43.5-47.7-77.5-83.6-104.8c-49.2-37.4-106.9-52.5-166.6-58.9c-111.9-12-224.1-15.4-336.6-6.3
			c-161.2,13.1-316.2,51.4-465.1,113.1c-46.3,19.2-94.3,13.3-141.4,19.6c-7.9,1-11.2-2.8-11.6-10.3c-0.3-5.5-0.8-11-1.7-16.4
			c-2.5-16.2,0.8-25.7,20.7-24.4c15.6,1.1,31.4-2,47.1-2.6c25.5-1,49.7-5.5,73.8-15.3C1547.3,93.1,1747.7,52,1955.6,51.6
			c84.9-0.2,170.3,1.8,254.1,17.4c163.3,30.5,262.3,128,288.9,294.8c28.9,181.8-20.2,342.4-152,474c-41.4,41.4-90.3,73.4-145.4,98.8
			c11.2,13.4,21.9,25.3,31.7,37.9c55.8,71.3,86.4,154.9,117.8,238.4c57.3,152.2,88.8,309.2,90.7,471.8c1.1,90.5-4,180.9-12.1,271
			c-6.8,75-10.4,150.4-24.8,224.5c-28.3,145.6-92.3,274.7-184.7,389.7c-182.8,227.7-421.2,358.1-710.1,389.9
			c-322.2,35.5-602.2-65.2-836-287.5c-144.1-137-211.3-309.8-213.9-508.8c-1.3-100.1-6.3-200.1-3.4-300.2
			c3.8-133.6,21.3-264.7,74.4-389.3c57.7-135.4,142.2-251.1,251.9-348.7c10-8.9,20.1-17.7,31.4-27.7c-4-1.6-5.7-2.7-7.4-2.9
			c-36.7-3.1-36.9-3.8-33.9-39.8c0.8-9.1,4-11.9,12.5-11.6c13,0.4,26.2,1.1,39.1-0.2c17.7-1.7,28,2.8,24.2,22.7
			c7.6,2.7,10.8-3,14.9-5.9c102.5-73.4,212.4-132.5,332.8-170.9c14.3-4.6,20.8-11.2,16.8-26.1c-3.4-13.1,3.9-16.9,15.1-18
			c15-1.4,30.1-2.6,44.8-5.3c12.6-2.4,23.4-4.9,22.8,13.9c-0.2,7.2,5.1,6.2,10.2,5.3c83.8-15.6,168.7-20,253.5-24.5
			c122.5-6.5,244.8-17.8,367.7-10.4c79.3,4.8,154.5,21.9,220.2,69.5c5.7,4.1,11.3,7.3,18.9,3.9
			C2231.9,868.1,2290,828.2,2339.8,772.4z M1742.9,2340.8c-1.1-31.7-3.5-82.9-10.9-133.9c-1.6-10.9-4.9-12.6-14.1-8.4
			c-24.3,10.9-48.2,23-73.3,31.8c-15.6,5.5-22.1,13.1-24.6,29.8c-14.8,102.1-116.1,171.3-212.4,144c-75.1-21.3-117.9-73.9-131.8-150
			c-2-10.8-5.4-14.7-16-16.1c-22.6-3-45.2-1.4-67.7-2.4c-14.5-0.6-18.7,5.7-19.2,19.2c-1.7,45.2-7.5,90.1-15.7,134.6
			c-28,150.8-84.8,289.9-171.3,416.7c-8.3,12.2-7.6,16.8,6.4,23.1c189.2,84.9,385.4,109.6,589.3,70c12.1-2.3,19.1-7.5,24.9-18
			C1696.3,2719.2,1742.9,2545.9,1742.9,2340.8z M506.7,2128.5c6.2,0.3,7.7,0.8,8.9,0.3c105-38.9,204.3-26.1,298.4,33.2
			c27.9,17.5,58.6,27,91.3,28c84.3,2.6,168.5,3.1,252.8-2.7c56.2-3.9,111.8-1.8,167.2,11.2c116.8,27.4,230.8,19.3,340.4-32.3
			c22.3-10.5,44.9-20.4,69.2-25.3c63.6-12.7,128.1-13,192.4-9.8c86.3,4.3,170.8,1.1,251.7-34.3c53.8-23.5,110.8-29.1,169.1-23.4
			c7.9,0.8,20.3,7.9,21-9.5c0.5-14,5.2-27-17.7-30.7c-40.7-6.6-79,2.6-117.7,11.2c-57.4,12.7-114.2,29.8-174.2,19.1
			c-38.1-6.8-72.8-23.3-108.2-37.8c-77.7-31.6-154.3-29.1-223.5,18.4c-61.4,42.1-126,48.6-195.9,36.8c-59.5-10-116.2-31-174.8-44.6
			c-78.1-18-153.1-18.7-220.2,35.7c-24.7,20-56.5,24-88,21.2c-88.8-7.8-175.1-30.6-262.9-44.8c-86.6-14.1-173.3-27.2-261.5-18.6
			c-8.9,0.9-18.2-0.8-18,13.2C507,2071.7,506.7,2100.3,506.7,2128.5z M1380.3,1345.8c34.9,9,68,19.6,100.2,32.8
			c6.5,2.7,15.1,2.1,22.3,0.9c21.5-3.5,43.1-7.1,64.3-12.2c226.8-54.4,343.9-256.4,310-474.4c-2.8-17.9-10.4-21.5-26.8-21.2
			c-82.9,1.4-165.8,5.6-248.5,10.6c-62,3.8-124,8-187.6,12.2C1463.5,1050.5,1459.4,1200.4,1380.3,1345.8z M660.7,1847.6
			c-42.3-0.5-88.9,11.2-133.9,31.5c-15.7,7.1-23.5,15.9-21.6,34c1.7,16.3,1.7,33,0.2,49.3c-1.5,16.8,5.4,18.9,20.1,17.3
			c73.5-8.3,146.6-0.4,219,11.4c93.1,15.1,185.8,32.9,278.6,49.9c39.3,7.2,74.8,2,107-24.5c24-19.7,53.2-30.7,84.1-36.2
			c51.4-9.3,102.3-4.9,152.8,6.8c59.3,13.7,116.6,35.4,176.9,44.8c47.1,7.3,94.4,10.7,136.5-18.4c98.3-67.8,202-77,309.2-25.7
			c65.4,31.2,130.6,34.9,199.5,15.6c46.7-13.1,94.2-23.5,143.5-23c14.5,0.2,32.7,13.3,42.1,0.5c7.7-10.4,3.6-29.1,5.9-44
			c2-12.9-3.4-15.2-14.6-13.8c-19.7,2.6-39.4,4.7-59.2,6.4c-73.3,6.4-146.4,8.2-217.9-14.5c-30.6-9.7-61.4-18.7-92.4-27.3
			c-86.8-24.1-169.6-13.7-242.8,39.1c-74.3,53.6-151.5,57.3-233.5,25.8c-42.1-16.2-83.3-34.7-125.1-51.6
			c-62.6-25.3-123-28.1-185.2,6.8c-60.9,34.2-128.6,40.3-197.6,28.5c-53-9.1-102-30.7-152.6-47.4
			C797.2,1868.2,734.8,1847.7,660.7,1847.6z M1804,2826.7c9.1,1.5,14.5-3.3,20.4-6c168-77.3,300.9-195.8,404.1-348.1
			c67.3-99.3,111.8-208.3,131.3-327.2c2.6-16-0.8-21.7-17.7-21.7c-24.7-0.1-49.2-1.1-73.9,0.7c-13.7,1-18.1,5.2-18.9,19.5
			c-3,53.1-23.9,98.3-66.6,131.3c-67.4,52-167.9,36.6-226-33.9c-12.3-14.9-22.8-30.9-29.5-49.1c-6.7-18-22-11.6-33.2-10.4
			c-12.8,1.4-5.1,13.3-4.6,20.1c1.5,20.5,5,40.8,6.7,61.2c12.3,154-3.3,304.8-51.2,452.2C1832.6,2752.6,1816.5,2788.7,1804,2826.7z
			 M639.3,2158.1c-42.6-2.9-81.7,7.4-119.6,24.4c-9.4,4.2-7.7,11.6-7.3,19.1c11.3,226.6,123,395.5,302.3,525.6
			c8.3,6,12.3,4.3,18.5-2.2c124.2-131.5,189.7-287.7,197.7-468.3c0.5-11.4-3.9-14.2-14.1-14c-17.1,0.4-34.3,0.4-51.4-0.5
			c-11.9-0.6-18.7,1.9-21,15.6c-2.7,16.2-10.9,30.9-20.5,44.5c-34.2,48-100.1,70-163.5,54.7c-65.9-15.9-114.5-66.9-123.5-128.3
			C633.4,2205.3,636.7,2182.5,639.3,2158.1z M1119.3,1885.5c24.7-3.4,46.2-11.3,66.9-21.7c20.2-10.1,40.1-20.7,61.9-26.8
			c58.5-16.4,114.1-2.9,168.4,18.1c42.1,16.2,83.7,33.7,124.9,52c19.3,8.6,23.1-0.4,25.4-16.5c25.7-181.9-69.4-353.9-272.2-415.1
			c-10.1-3.1-18.7-1.8-27.8,6.2c-56,48.8-120.4,82.9-190.5,106.5c-6.1,2.1-13.9,1-18.4,8.5C1122,1682.9,1138.5,1779.8,1119.3,1885.5
			z M872,1433.3c85.3-2.9,161.3-22.9,228.7-68.9c133.6-91,196.1-256.5,158.9-417.3c-5.9-25.4-5.9-25.6-31.2-17.1
			c-102.3,34-198.9,80-289.3,138.9c-13.4,8.7-15.8,17.8-13,32.2c13,66.8,10.6,133.5-3.3,199.9C913.4,1346.6,895.7,1389.5,872,1433.3
			z M2085.1,1862.5c7.1-67.1,14.5-131,11.5-195.4c-0.8-16.1-9.5-29.9-21-41.3c-13.7-13.7-30.1-23.8-47.7-31.6
			c-104.4-46.1-205.9-39.7-304.7,17.3c-10.5,6.1-11.7,11.5-8.1,22.6c19.3,59.2,28.1,119.7,21.4,182.1c-2.2,20.7-4.4,41.4-6.9,65.2
			C1845.1,1806.2,1963.4,1815,2085.1,1862.5z M1557.9,1421.4c18.3,15.9,34.5,29.5,50.2,43.7c5.2,4.7,10.4,5.6,16.9,5
			c70.3-7,137.4-25.4,198.8-60.7C2025,1293.5,2065,1078,2033.8,903.3c-1.8-10.1-7.6-13.2-16.2-15.3c-26-6.5-52.5-9.4-79-13
			c-12.5-1.7-12.7,3.1-11.2,13.7c6.9,47,7.7,94.1,1.5,141.4c-19.7,148.4-93.9,260.7-222.8,336.7
			C1660.9,1393.4,1611.8,1410.1,1557.9,1421.4z M1655.1,1516.7c9.5,15.2,18.9,28.6,26.3,43c5.7,11.1,10.3,12.8,21.6,6.2
			c53.3-31.4,111-51.2,173.1-51.9c78.6-0.9,154.1,12.6,218.3,62.5c34,26.5,54.1,60.4,53.5,105.6c-0.8,59.7-4.7,119-12.1,178.2
			c-1.5,11.7,0,16.2,13.2,18c23.2,3.1,46.3,3.8,69.5,5.2c11.5,0.7,15.9-5,18.1-14.4c16.4-70.5,20-141.3-2.2-210.9
			c-45.3-141.7-146.7-219.2-289.1-249.3c-20.1-4.2-34.4-0.1-49.5,12.8c-14.4,12.4-31,22.7-47.7,31.9
			C1788.3,1486.3,1724.8,1508.3,1655.1,1516.7z M909.8,1484.6c39,16.4,73,37.5,103.3,64.1c6.4,5.6,11.6,1.5,17.1,0
			c86.9-23.1,165.3-63.1,228.3-127.6c139.1-142.6,166.1-311.5,111.2-498c-7.2-24.4-12.7-25.1-54.2-14.8c-23.1,5.7-7.6,20.5-5.8,28.8
			c58.1,256.3-105.9,498.9-365.6,540.4C933.6,1479.2,922.2,1477,909.8,1484.6z M508.9,1828.3c3,0.4,4.4,1,5.6,0.6
			c4.5-1.5,9-3.2,13.5-5c55.6-22,113.1-30.9,172.9-25.3c69.4,6.5,134.9,27.8,199.9,51.2c17.3,6.2,19.9,1.4,19-14.5
			c-5.4-91.2-58-159.9-146.1-188.3c-42.9-13.8-87.7-21.9-130.9-6.3c-35.9,12.9-70.6,29-107.7,38.8c-6.2,1.6-11.7,2.1-12.9,10.3
			C515.5,1735.9,509.9,1781.9,508.9,1828.3z M2089.5,917.4c0,7.5-0.3,11.6,0.1,15.6c13.3,134.8-6.7,262.2-83.9,376.7
			c-8.4,12.5,0.6,11.8,8.5,12c111.3,3.3,199.2-40.2,263.1-131.8c5.2-7.4,6-14,2.5-22.8c-18.5-47.3-39.4-93.3-67.7-135.7
			C2180.7,984.9,2142.4,945.9,2089.5,917.4z M2178.1,1470.6c22.8,24.3,41.7,45.8,57.3,70.1c64.1,99.5,76.6,207.8,53.6,321.6
			c-3.4,16.9,0.7,18.6,15.3,16.5c21-3.1,42.1-4.9,63.3-6.7c12.6-1.1,17.8-5.3,18.7-19.8c6.3-104.9,7.4-209.5-5.4-314
			c-6.4-52.1-14.9-103.8-30.3-156.9C2302.6,1430,2246.6,1459.5,2178.1,1470.6z M737.4,1583.9c3.4,2,4.5,3,5.7,3.4c4,1,8,1.7,12,2.6
			c49.7,10.7,94.8,31.1,132.7,65.6c58.4,53.1,83.4,120.3,82.1,198.3c-0.1,8.8-4.8,19.7,9.4,23.3c21.9,5.4,43.6,11.2,66.2,13.3
			c14.9,1.4,21.5-3.3,24.6-18.7c30.4-149.7-43.3-314-240.1-359.5c-6.5-1.5-13.3-1.6-18.8,4.6
			C789.5,1541.5,763.6,1561.7,737.4,1583.9z M1322.2,1431.6c3.1,1,5.6,1.9,8.2,2.8c104.8,36.8,187.7,100.4,241.3,199.1
			c47,86.4,58,178.6,43.2,274.9c-0.8,5-7,11.5,3.8,14.5c25.6,7.2,49.7-7.2,55.3-33.6c0.7-3.3,1.9-6.6,2.7-9.9
			c51.3-217.6-65.4-416.8-279.4-476.7c-47.6-13.3-47.6-13.3-74.1,24.7C1322.8,1427.9,1322.8,1428.7,1322.2,1431.6z M1667.3,2875.4
			c3.7,0.8,5.2,1.6,6.3,1.3c13.8-4.1,27.4-8.7,41.3-12.3c12.1-3.2,19.4-10,25-21.6c97.7-204.7,129.4-419.3,98-643.6
			c-0.7-5.3-2-14.4-4.6-15c-16-3.8-33.3-4.6-48.4,1.2c-9.1,3.5-2.3,15.8-1.5,24.2c0.9,9.5,1.7,19.1,2.8,28.6
			c15.8,136.1,5.5,270.4-28.7,403C1736.7,2722.1,1704.9,2799.1,1667.3,2875.4z M533.7,1627.6c42.9-11.6,80-28.4,115.7-48
			c178.4-98.1,249.2-265.6,232.3-436.4c-0.8-8.5,2-21.3-5.3-24.7c-9.3-4.3-16.4,7.5-22.9,13.5c-10.3,9.4-26.6,13.9-24.8,34.2
			c4.3,48.3-2.8,96-17.7,141.7c-40.3,124.2-122.6,209.6-244,257.7c-7.3,2.9-17,3.2-19.8,12.8
			C542.7,1593.6,538.7,1609.2,533.7,1627.6z M1122.6,2260.6c-2.2-5.2,4.9-16.4-2.9-18.9c-9.8-3.2-21.8-2.1-32.3,0
			c-10.5,2-5.9,12.5-6.2,19.1c-8.4,174.1-66.4,328.8-178.9,462.5c-10.8,12.9-32.6,25.9-29.5,38.7c3.5,14.4,27.8,19.1,42.6,28.8
			c10.8,7.1,17.1,5.4,24.6-5.6C1047.6,2627.2,1108.6,2453,1122.6,2260.6z M2305.8,1237.7c-76.4,93-171.8,137.1-288.8,136.1
			c32.4,12.5,63.2,26.6,92.5,44.2c4.4,2.6,10.4,3.3,15.7,3.5c81.3,3.4,148-26.2,200-88.9c5.5-6.7,8.7-13.3,5.4-22.4
			C2322.4,1287.2,2314.7,1263.9,2305.8,1237.7z M776,1202.6c-75.3,64.7-187.6,234.8-200.3,302.5C697.2,1455.8,780,1317.1,776,1202.6
			z M895.7,2239.9c-55.4-2.2-100.8-30.4-147.3-56.1c-12.4-6.9-26.6-10.4-39.8-16c-14.2-6-19.6-0.2-21.8,13.6
			c-9.9,61.6,26.8,115,88.1,127.4C833.2,2320.6,883,2293.1,895.7,2239.9z M1568.9,2254.2c-0.6-0.3-1.2-1-1.8-1
			c-76.7,10.7-153.5,17.7-230.3,0.4c-11.2-2.5-9.3,4.6-7.5,10.6c13.9,47.8,62.4,99.2,130.5,95
			C1510.8,2356.3,1560.9,2309.2,1568.9,2254.2z M1980.3,2180.4c17.3,45.6,70.3,78.2,117.7,75.3c46-2.7,87-40.7,97.9-91.3
			c1.2-5.6,5.5-12.9,0.5-17.4c-5.3-4.8-11.6,1.2-17.1,3c-40,13.5-79.3,30-122.5,30.4C2031.9,2180.6,2006.8,2180.4,1980.3,2180.4z"/>
		<path class="st0" d="M801.7,648.8c0.5-105.1,87.5-190.9,192.2-189.7c104.4,1.2,189.3,86.9,189.2,191
			c-0.1,104.8-86.9,191.3-191.6,190.7C886.3,840.3,801.2,754.2,801.7,648.8z M1132.1,650.2c0.1-78.7-61.7-139.8-141.2-139.6
			c-76.1,0.1-138,61.7-139,138.3c-1,76.3,62.2,140.6,138.8,141C1069.6,790.4,1132,728.7,1132.1,650.2z"/>
		<path class="st0" d="M970.4,191.2c0,13-1,26.1,0.3,39c1.5,15.1-5.1,20.7-18.6,17.4c-10.7-2.6-29.4,10-31-10.7
			c-2.3-30-0.5-60.2-0.7-90.4c0-7.4,2.6-10.6,10.5-11.7c36-4.9,39.5-2.2,39.5,33.8C970.4,176.1,970.4,183.6,970.4,191.2z"/>
		<path class="st0" d="M1346.7,769.1c-6.8,0-13.6,0-20.5,0c-30.2,0-40.4-14.4-31.5-43.6c1.8-5.9,5.3-7.1,10.5-7.1
			c27.3,0,54.6,0.2,81.9-0.1c8.6-0.1,11.6,3.4,12.6,11.9c4.3,36.9,2.7,38.9-34.6,38.9C1359,769.1,1352.8,769.1,1346.7,769.1z"/>
		<path class="st0" d="M581.5,478.6c8.2,0,16.6,1.2,24.5-0.2c21.8-3.8,25.4,6.3,25.5,25.8c0.1,19.3-4.4,26.6-24.7,24.8
			c-20.9-1.9-42.2-0.9-63.3-0.2c-10.9,0.3-15.5-2.3-15.9-14.5c-1-35.7-1.6-35.7,33.4-35.7C567.9,478.6,574.7,478.6,581.5,478.6z"/>
		<path class="st0" d="M1394.1,626.5c0,7.5,0,15,0,22.5c0,27.4-0.1,26.1-26.5,27.9c-19.7,1.3-26.5-4.4-24.7-24.5
			c1.9-20.3,0.8-40.9,0.3-61.4c-0.2-10.2,2.8-14.1,13.8-14.6c37.2-1.7,37.2-2.2,37.2,35.8C1394.1,617,1394.1,621.8,1394.1,626.5z"/>
		<path class="st0" d="M1110.6,186.9c-8.2,0-16.6-1.1-24.5,0.2c-22.2,3.7-26-6.2-26.6-26.6c-0.6-21.7,6.6-26.9,26.5-25.3
			c19.7,1.6,39.6,0.7,59.4,0.2c10.1-0.2,14.1,2.6,14.6,13.7c1.5,37.8,2,37.7-35,37.7C1120.1,186.9,1115.4,186.9,1110.6,186.9z"/>
		<path class="st0" d="M572.1,955.3c-6.2,0-12.4-0.8-18.4,0.2c-21.1,3.5-26.2-5.1-26.5-25.8c-0.2-21.3,6.1-27.9,26.6-25.7
			c15.5,1.7,31.4,0.8,47.1,0.2c10.6-0.4,15.7,1.9,16,14.4C617.7,955.4,618.3,955.3,572.1,955.3z"/>
		<path class="st0" d="M1354.7,339.8c-6.8,0-13.8-0.9-20.5,0.2c-20.5,3.2-26.3-4.2-26.5-25.4c-0.2-21.6,6.5-27.2,26.6-25.2
			c16.9,1.7,34.2,0.9,51.3,0.2c10.6-0.4,13.9,3.1,14.4,13.8C1401.3,339.8,1401.8,339.8,1354.7,339.8z"/>
		<path class="st0" d="M670.2,359.5c0,2.7,0,5.5,0,8.2c0,33.7,0,33-33.1,33.4c-13.3,0.2-17.9-3.6-17.1-17.1
			c1.1-18.3,0.9-36.8,0.1-55.2c-0.5-11.6,3.4-14.9,15-15.1c35.2-0.5,35.2-1.1,35.2,33.5C670.2,351.4,670.2,355.5,670.2,359.5z"/>
		<path class="st0" d="M810.6,221c4.1,0,8.3,0.6,12.3-0.1c21.6-4,25.6,5.9,26,25.9c0.5,21.6-6.5,28.4-26.7,25.3
			c-6.7-1-13.7-0.1-20.5-0.2c-33.5-0.5-28.7,3.8-28.6-27.9C773.1,216.8,767.4,221.5,810.6,221z"/>
		<path class="st0" d="M666.3,1050.9c-1.4,0-2.7,0-4.1,0c-32.9,0-41.3-11.3-33.3-43.6c1.9-7.8,6.7-7.5,12.1-7.5
			c17.1-0.1,34.3,0.5,51.4-0.3c11.8-0.5,14.9,4,15.1,15.4C707.9,1050.9,708.4,1050.9,666.3,1050.9z"/>
		<path class="st0" d="M554.8,686c0,3.4-0.5,6.9,0.1,10.2c3.9,21.5-5.1,27.1-26.2,26.7c-18.8-0.4-28.1-3.7-24.8-24.4
			c1.4-8.6,1.2-17.8,0-26.5c-2.5-18.9,4.8-24.8,23.7-23.7c31.5,1.8,26.6-2.8,27.1,27.5C554.9,679.2,554.8,682.6,554.8,686z"/>
		<path class="st0" d="M522.6,841c-30.8,0-43.6-14.7-30.5-42.4c8.7-18.4,31.7-4.9,48-7.7c6.4-1.1,16.4-3.4,17.2,8.3
			c0.7,10.9,0.1,21.8,0.2,32.7c0.1,7.3-4,9.2-10.4,9.1C539,840.9,530.8,841,522.6,841z"/>
		<path class="st0" d="M1403.7,429.6c30.7,0,39.9,12.8,31.6,43.1c-1.8,6.5-5.5,6.8-10.4,6.8c-15.7,0.1-31.5-0.2-47.2,0.1
			c-8.3,0.1-9.8-4.3-10.6-11.5C1362.8,430.7,1363.6,429.6,1403.7,429.6z"/>
		<path class="st0" d="M991.2,779.8c-71.9,0.2-128.7-56.4-129.2-128.8c-0.6-72.9,56.8-130.9,129.5-131c73.5,0,131,56.5,131.4,129.2
			C1123.2,723,1066.2,779.5,991.2,779.8z M991.4,729.9c45.1,0.3,81.3-35.4,81.1-80.1c-0.2-43.8-35.6-79.6-79.4-80.1
			c-44.3-0.5-79.9,34.3-80.4,78.4C912.3,694.4,946.2,729.6,991.4,729.9z"/>
	</g>
</g>
</svg>
