<?xml version="1.0" encoding="utf-8"?>
<!-- Generator: Adobe Illustrator 23.0.0, SVG Export Plug-In . SVG Version: 6.00 Build 0)  -->
<svg version="1.0" xmlns="http://www.w3.org/2000/svg" xmlns:xlink="http://www.w3.org/1999/xlink" x="0px" y="0px"
	 viewBox="0 0 3000 3000" style="enable-background:new 0 0 3000 3000;" xml:space="preserve">
<style type="text/css">
	.st0{stroke:#000000;stroke-width:10;stroke-miterlimit:10;}
</style>
<g id="Layer_1">
</g>
<g id="Layer_2">
	<g>
		<path class="st0" d="M1356.9,2635.6c-205.6-5.1-412.2-5.6-613.9-50.8C561.2,2544,386.6,2481.7,240,2360.1
			C123.7,2263.6,64,2138.4,51.1,1988c-11.4-132.9-1.4-265.2,3.6-397.6c4.5-120,11.2-239.9,19.6-359.7
			c7.4-106.3,17.1-212.3,45.7-315.9C153.7,793,228.1,709.5,345,662.6c93.3-37.5,191.2-56.4,289.7-73.5
			c116.2-20.2,232.7-39.2,348.5-62c89.3-17.6,164-63.6,226.2-130.1c19-20.4,37.6-41.2,57.9-60.3c54.2-51,123.9-53.3,183.6-8.8
			c48.2,35.9,84.5,83.8,127.9,124.6c79.8,75.1,171.5,111.4,282,108.1c193.2-5.9,386.5-5.8,579.7,0.3c96,3.1,192,8.1,285.7,33
			c91.4,24.3,150.1,82,178,171.6c44.9,144.2,69.4,290.7,59.7,442.8c-15,234-23.9,468.4-39.6,702.4c-9.9,147-54.6,285.2-136,408.4
			c-82.7,125.3-206.6,189.3-351.5,214.5c-138.1,24-277.7,36.6-416.8,53.2c-144.8,17.4-289.6,34.3-435.3,41.1
			c-75.7,3.6-151.8,0.6-227.7,0.6C1356.9,2630.9,1356.9,2633.2,1356.9,2635.6z M139.6,1089c1.7-0.2,4.1,0.2,5.1-0.8
			c75.1-71.5,165.6-118,260.2-156.6C545.8,874.1,690,828,843.1,817.2c141.6-10,239.6,60.7,263.7,189.8
			c15.4,82.3,22.9,166,22.6,249.3c-0.8,213-57.6,411.1-167.8,594.2c-74.5,123.7-185.1,185.5-325.9,198.6
			c-172.7,16.1-343.7,7.8-511.6-38.8c-17.5-4.8-22.5-0.7-19.8,17c12.5,81.2,40.6,155.4,92.8,220.2c85,105.2,198.3,167.4,320.8,217.2
			c25.4,10.4,36.8,8.5,48.1-18.6c24.3-58.7,67.1-97.9,134.3-94.3c115.5,6.2,212-41.2,300.6-105.9c57-41.6,115.2-74.4,184.8-88.6
			c93.1-19,194.6-135.4,198.2-227.5c4.8-122.8,9.4-245.8,4.7-368.7c-1.6-43.2,0.8-87.8-13.3-128.7c-20.3-59-16.3-118-6.4-176.5
			c23.9-141.4,34-281.2-7.8-422.1c-20.9-70.4-4.8-145.1-4.1-217.8c0.4-50.7,4.2-101.8,15.6-151.7c3.7-16.4,12-28.8,29.8-30.4
			c19.1-1.7,30.8,9.5,36.7,26.4c6.1,17.3,9.6,35.3,8.2,53.8c-7.8,103.8,15.5,200.3,67.7,290c15.9,27.3,23.9,56.8,24.5,87.9
			c2,106.7,6.5,213.1,17,319.4c2.3,23.5,10.8,31.1,31.5,34.4c68.6,11.2,137,14.6,206.7,8.3c60-5.5,102.8-32.5,133.9-82.3
			c36.5-58.3,51.5-123.5,61.6-190.2c6.9-45,5.2-90.2-0.9-135.1c-2.6-19.2,9.8-19.6,22.8-20.9c11.7-1.2,22.5-4,24.7,14.2
			c15.7,129.9-2.9,253.3-73,365.3c-35.3,56.4-87.7,89.3-156.3,96c-80,7.7-159.2,5.8-238-10.4c-9.3-1.9-19.8-7.1-22.2,8.1
			c-8,51.5-14.1,102.9,4.9,153.7c6.4,17.1,16.2,25,35.4,27.1c75.5,8.4,149.6-1,223.6-14c167.8-29.5,281.8-136,315.7-295.4
			c21.1-99.4,31.3-199.5,11.8-300.3c-5-25.9,12.5-22.4,25.6-26.2c17.4-5,19.9,5.5,22.6,19.9c20.9,113.9,10.2,226.3-18.6,336.8
			c-38.9,149-132.9,248.6-280.5,295c-85.9,27-174.6,37.2-264.5,34c-17.3-0.6-21.3,1.7-19.3,21.3c7.5,75.4,13.4,151.1,0.8,226.6
			c-2,12.2,0.5,19.5,10.3,26.8c52.3,39.3,109.5,68.9,174.8,76.8c77.3,9.3,155.3,12.5,233.2,11c148.9-2.9,261.9-67.5,332.1-200.5
			c17.4-33,29.9-68.6,43.8-103.3c22.8-56.9,40.4-116.2,77.2-166.6c10.9-14.9,22-29.9,39.2-37.3c62.9-27.4,128.2-25.6,198-17.6
			c-6.2,8.1-9.3,12.7-13,16.9c-89.5,102.9-154.6,219-193.6,350.1c-15.9,53.2-31.7,106.6-54.4,157.7c-32.2,72.8-86,116.8-163.9,135
			c-156.9,36.5-316.2,39.2-475.8,36.6c-87.6-1.4-163.9-36.5-234.1-86.9c-7.9-5.7-13.8-16.4-26.7-14.5c0,26.3-0.4,52.2,0.1,78
			c1,50,10.9,62.2,60.5,71c78.5,14,157.4,24.8,236.9,32.2c45.7,4.2,92.4,0.7,137.1,15.3c40.6,13.2,64.4,41.4,67.3,83.7
			c2.5,35.5,3.6,71,6.2,106.5c4,54.6,8.7,109.2,13.3,163.8c1,11.6,1.1,22.6,19.5,19.9c112.1-16.4,225.3-24.6,336.7-45.3
			c180.9-33.6,308.3-131.9,378.6-305.1c54.1-133.3,73.1-271.3,76.8-413.6c4.3-162.3,12.3-324.6,26.4-486.4
			c14.5-166.7,1.1-329.5-48.7-489.8c-26.9-86.9-81.2-138.2-169.6-156.7c-106-22.1-213.5-26.7-321.1-27.8
			c-184.6-1.8-369.2-0.4-553.8-0.5c-64.8,0-124.9-16.1-180.8-50c-56.6-34.3-103.9-79-148.8-126.7c-21.8-23.1-43.4-46.4-69.2-65.1
			c-40.5-29.5-84.4-27-120.2,7.6c-20.7,20-39.8,41.7-59.8,62.5c-61.2,63.8-133.8,108.8-219.2,132.4
			c-91.8,25.5-186.9,33.4-280.2,50.8c-117.9,21.9-237.1,38.3-350.8,79C225.1,755.9,125.7,912.2,139.6,1089z M100.5,1781.2
			c-8.7,49.9-8.4,99.8-5.4,149.8c1.1,17.5,8,24.5,24.3,28.9c79,21.4,159,35.7,240.4,44.1c28.2,2.9,37.3-5.9,44.7-31.7
			c12.1-42.3,26.5-84.5,53.2-120.5c28.8-38.9,64.4-33.9,82.5,10.6c11.3,27.9,12.2,58,18,87.1c3.7,18.3-8.3,44.1,9.2,53.4
			c14.6,7.7,37.3,0.9,56.4-0.7c119.1-10.1,219.2-55.3,285.5-159.4c62.7-98.5,109.6-204.2,138.3-317.8c5-19.7,0.3-26.4-19.7-30.7
			c-48.3-10.4-94.2-27.6-129.8-64.1c-29.8-30.6-29-66.4,0.9-96.9c12.2-12.5,26.6-22,42-30.1c36.2-19.1,74.9-29.4,115.3-33.7
			c14.3-1.5,25.4-3.2,24.6-23.1c-3.6-83.5-7-167-25.9-248.9C1039,928.3,995,887.9,927,872.1c-45.7-10.6-91.5-6.8-137.5-2.2
			c-17.3,1.7-24,8.8-28.4,25.2c-14.5,54.6-29.8,109.4-61.9,156.9c-31.8,46.9-71.6,43.7-96.3-7c-15.3-31.3-23.3-65-28.6-99.1
			c-2.7-17.9-7.9-23.5-27.4-16.6c-77,27-153.2,56-225.5,94c-58,30.5-111.9,66.7-157.1,115.4c-53.2,57.3-55.7,139.4-2,197.6
			c21.6,23.4,44.5,44.7,71.2,62.4c66.4,43.8,69.3,104.6,8.4,156.2c-33.8,28.6-73.8,45.1-116.1,54.8c-18.4,4.3-25.9,11.8-25.6,30.5
			C101,1687.1,100.5,1734.2,100.5,1781.2z M1405.9,660.1c-1.1,57.5-14.3,116.3,3.2,172.1c41.7,132.4,32.1,265.2,12.3,399.1
			c-7.8,52.9-22.1,106.5-6.5,159.8c14.2,48.5,20,97.8,21.1,147.8c2.7,123,1.1,246-4.4,369c-1.9,42.2-10,81.5-29.1,118.8
			c-47.3,92.5-114.6,160.7-220.9,181.1c-56.2,10.8-102,40.5-147.6,73.8c-94.3,68.9-196.7,122.7-317.7,118.2
			c-53.6-2-84,20.1-107.2,64.4c-12.1,23.2-8.7,31.2,16,39.7c162,55.7,330.7,66.1,499.5,75.8c155.6,8.9,311.2,8.6,466.8,0.3
			c138.2-7.4,275.6-23.6,413.1-38.2c16.5-1.8,22.3-6.4,20.8-24.7c-7-84.2-12.9-168.5-17.6-252.9c-2.6-45.7-13.2-60.2-59.1-65.2
			c-44.9-4.9-90-7.1-135-11.4c-77.5-7.4-154.6-17.8-230.7-34.4c-39-8.5-68.5-30.6-73.9-71c-10.7-80.3-17.5-161.7,19.6-237.7
			c29.2-59.8,39.8-121.4,34.1-187c-2-22.9-1.2-46.1-1.4-69.2c-0.2-22.8-5.3-44.7-19.8-62c-53.9-64.2-54.6-138.6-45-215.8
			c3.7-29.5,17.1-57.9,13.4-87.8c-13.1-104.1-15.9-208.8-18-313.5c-0.4-22-0.3-44.9-11-64.9C1449.7,785.6,1420.6,726.4,1405.9,660.1
			z M2612.9,1411.6c-48.3,1.4-89.3,11-110.9,58.1c-8.4,18.3-18.8,35.7-26.3,54.3c-20.8,51.6-38.5,104.5-61.1,155.2
			c-60.1,134.5-157.6,225.6-306.6,252.1c-82.9,14.7-166.5,5.7-250,3.9c-96.4-2.1-183.1-28.6-261.2-84.6c-4.3-3.1-8-9.4-14.3-7.1
			c-13.6,5.2-21.4,56-9.8,65.9c70.4,59.7,148.2,101.9,243.3,105.5c64.4,2.4,128.8,0.9,193-2.1c96.8-4.5,193.5-11.1,287.4-38.8
			c46-13.5,79.8-40.3,102.2-82.4c17.6-33.3,30.2-68.5,40.7-104.4c37.7-129.6,85.2-254.7,167.6-363.7
			C2609,1420.6,2610.2,1417,2612.9,1411.6z M115.3,1355.1c-4.1,69.5-7.8,130.7-11.3,191.9c-0.6,9.6-2.1,20.8,14,16.1
			c40.9-12,79.5-28.3,108.4-61.3c15.1-17.3,16-34.6-4.2-49.1C185,1425.9,149.7,1397,115.3,1355.1z M1078.7,1340.9
			c-3.3-9.4,8.2-27-13.4-24.5c-46.1,5.5-90.3,17.1-127.8,46.7c-16,12.6-15.9,24.5-0.9,37.5c32.3,28,71.2,40.5,112,49.2
			c13.4,2.8,16.9-3.7,18.2-15C1070.5,1403.3,1074.7,1371.9,1078.7,1340.9z M712.7,884.3c-30.5,7.8-57,14.9-83.6,21.3
			c-9.4,2.3-12.8,7-10.9,16.2c6.9,32.7,12.5,65.7,25.3,96.9c4.9,11.9,11,16.3,18.7,2.5C685.6,979.5,701.7,935.1,712.7,884.3z
			 M495.4,1882.3c-25.9,42.4-39.4,82.7-51.6,126.2c19.8,0,37-0.3,54.2,0.1c10.8,0.3,16-3.5,14.9-15
			C509.7,1958.6,508.2,1923.2,495.4,1882.3z"/>
		<path class="st0" d="M804.4,1392.1c0.8,70.8-56,128.8-127.1,129.7c-70.3,0.9-128.8-56.7-129.4-127.5
			c-0.6-70.9,56.2-128.8,127.2-129.7C745.2,1263.7,803.6,1321.3,804.4,1392.1z M755.6,1393.9c0.2-46.2-33.2-79.7-79.5-80
			c-44.4-0.3-81,36.2-80.4,80.2c0.6,43.5,35.6,78.4,79.2,78.8C721,1473.3,755.4,1439.7,755.6,1393.9z"/>
		<path class="st0" d="M1477.3,2527.8c-76.5,0.6-138.3-59.6-139.4-135.7c-1.1-78,59.6-140.5,136.9-141.2
			c77.1-0.6,140.1,61.8,139.9,138.7C1614.6,2465.6,1553.2,2527.2,1477.3,2527.8z M1476.5,2299c-49.4,0-90.4,40-91.3,89.1
			c-0.9,49.8,41.3,92,91.7,91.7c49.3-0.3,89.7-41.2,89.5-90.6C1566.3,2339.7,1525.8,2299.1,1476.5,2299z"/>
	</g>
</g>
</svg>
