<?xml version="1.0" encoding="utf-8"?>
<!-- Generator: Adobe Illustrator 23.0.0, SVG Export Plug-In . SVG Version: 6.00 Build 0)  -->
<svg version="1.0" xmlns="http://www.w3.org/2000/svg" xmlns:xlink="http://www.w3.org/1999/xlink" x="0px" y="0px"
	 viewBox="0 0 3000 3000" style="enable-background:new 0 0 3000 3000;" xml:space="preserve">
<style type="text/css">
	.st0{stroke:#000000;stroke-width:10;stroke-miterlimit:10;}
</style>
<g id="Layer_1">
</g>
<g id="Layer_2">
	<g>
		<path class="st0" d="M1022,1550.3c-87.2-44.1-132-112.3-160.2-195.7c-38.1-112.6-51.3-228-49.3-346.1c2.8-161.1,8.9-322,28.2-482
			c8.5-70.4,38.2-133.6,82.1-187.5c170.4-208.9,385.5-320,660.9-287.8c98.2,11.5,174.8,64.2,227.1,146.8
			c83.3,131.6,124.9,277,124.4,432.8c-0.5,152.3-4,304.7-28.5,455.6c-16,98.2-41.2,194.2-73,288.3
			c-22.5,66.8-57.5,125.7-119.3,164.2c-21.5,13.4-4.5,20.7,3,28.8c76.3,83.2,132.1,177.5,151.9,289.9c6,34.2,6.2,69.8,5.8,104.7
			c-1.9,184.1-6.3,368.2-15.1,552.1c-9.5,197.9-169.2,398.6-353.3,434c-117.7,22.7-238.6,23.6-356.7,1.7
			c-122.6-22.8-209.7-100-271.4-206.2c-50.3-86.5-79.4-178.7-80.3-280.6c-1.7-180.9,3.9-361.3,19.4-541.7
			c11.6-135.1,74.5-242.8,165.7-337.6C993.9,1573.2,1006.3,1564,1022,1550.3z M1049.5,284.5c-80.2,71.9-144.3,153.2-156.1,264.1
			c-16.4,153.7-23.2,308-26.4,462.5c-2.5,121.5,13.5,240.1,57.6,354.3c32.2,83.5,91.1,134.3,177.8,154c32.2,7.3,64.8,10.1,97.5,13.3
			c22.3,2.2,30-2.7,29.4-27.3c-1.4-64.6-8.8-129-2.7-193.8c3.6-38.8,18.4-71.8,44.9-99.8c41.1-43.5,94.4-46.4,140.6-8
			c31,25.8,46.7,59.5,53.6,98.7c9.8,56.5,7.9,113.6,8.6,170.5c0.8,60.6-0.6,60.6,59.1,58.7c142.5-4.7,211.5-56.6,254.3-193.2
			c16.7-53.1,33.5-106.4,46-160.6c39.4-170.6,42.2-344.6,47.1-518.6c3.6-126.8-25.6-245.3-75.2-360.1c-19.4-45-44.8-86.6-87-125.1
			c2.7,22.9,4.7,38.8,6.4,54.7c10.9,98.5-3.4,193.3-53.1,279.3c-77.8,134.6-197.1,202.3-352.4,201.1
			c-122-0.9-226.8-95.8-261.5-230.7C1041.6,414.9,1040.4,350.8,1049.5,284.5z M1692.1,2771.1c62.8-72.2,111.7-188.1,114.5-273.4
			c5.7-177.5,8-355.1,14.6-532.6c5-134-46.3-244.6-129.7-344.9c-28.7-34.5-57.5-57.4-105.1-39.1c-13.7,5.3-30.3,3.2-45.6,4.1
			c-72.8,4.1-71.8,4.1-75.6,77.1c-2.5,48.1-5,96.6-13.7,143.7c-13.3,72-54.9,103.7-110.2,94c-44.7-7.8-73-37.1-87.8-79.5
			c-23.1-66.3-26.7-135.2-24.2-204.3c0.7-19.6-2.6-27.1-23.5-28.1c-38.2-1.9-76.7-3.8-113.9-14.5c-9.5-2.7-16.7-0.5-23.9,5.9
			c-100.9,89.6-179.4,192.7-194.1,332.2c-19.1,181.2-21.9,363.1-21.2,545.1c0.4,105.9,34.1,199.8,90.6,286.9
			c22.4,34.5,49.7,64.9,87.5,93.2c-18.9-101.2-17-196.3-5.3-291.3c7.2-58.6,14.4-118.2,48.8-168.9c78.7-116,193.3-154.9,326.2-139.3
			c132.2,15.5,210.2,99.8,248.9,222.7C1680.4,2558.4,1703.7,2658.3,1692.1,2771.1z M1319.8,2906.4c25.2,0,50.5,0.7,75.6-0.1
			c74-2.6,146.2-12.8,210.4-54.1c14.8-9.5,22.8-20.4,25.8-38.7c20.5-127,1.2-248.9-46.8-366.7c-46.2-113.3-134.3-166.2-256.4-157.7
			c-116.9,8.2-210.4,78.5-233.9,182.8c-28.7,127.4-33.6,255.9-3.3,384.5c4.2,17.9,14.8,25,30.2,30.2
			C1186.1,2908.2,1252.9,2907.9,1319.8,2906.4z M1673.4,278c-1.8-34.8-7.4-73.6-14.5-112.5c-6.3-34.9-24.8-50.1-57.7-56
			c-129.2-23.3-250.3-0.7-371.6,48.8c-98.4,40.1-129.9,111.1-130.3,206.8c-0.1,21.8,1.7,43.8,4.7,65.5
			c24.4,181,175.2,269.1,344.7,201.9C1591.5,575.7,1673.4,448.1,1673.4,278z M1419.3,1446.7c0.1-56.8,0.1-108.5-14.1-158.3
			c-8.1-28.5-25.8-52.4-58.4-54.4c-31.6-1.9-44.3,24.2-56.5,47.4c-6.6,12.5-9.4,26.6-9.1,41.2c0.9,57.9,2.7,115.8,1.7,173.7
			c-0.6,32.8,11.2,44.9,44.1,40.2c29-4.1,67.3,10.9,85.6-7.1C1432.4,1510.1,1416.3,1471.4,1419.3,1446.7z M1351.1,1591.1
			c-11,0-22.1,1.4-32.8-0.3c-25.6-3.9-33.8,6.9-34.6,31.7c-1.3,44.1,2.4,87.5,9.2,130.9c3.8,24,8.1,47.8,22.1,68.1
			c11,16,26.2,27.7,46.7,25.5c20.7-2.3,27.6-19.4,32.4-36.8c2.6-9.5,5.1-19.1,6-28.8c4.2-41.4,8.2-82.9,11.5-124.3
			C1416.7,1591.1,1416.5,1591.1,1351.1,1591.1z"/>
	</g>
</g>
</svg>
