<?xml version="1.0" encoding="utf-8"?>
<!-- Generator: Adobe Illustrator 23.0.0, SVG Export Plug-In . SVG Version: 6.00 Build 0)  -->
<svg version="1.0" xmlns="http://www.w3.org/2000/svg" xmlns:xlink="http://www.w3.org/1999/xlink" x="0px" y="0px"
	 viewBox="0 0 3000 3000" style="enable-background:new 0 0 3000 3000;" xml:space="preserve">
<style type="text/css">
	.st0{stroke:#000000;stroke-width:10;stroke-miterlimit:10;}
</style>
<g id="Layer_2">
</g>
<g id="Layer_1">
	<g>
		<path class="st0" d="M1253.6,536.1c6.1-52.9,22.4-96.6,41.7-139.3c4.5-9.9,9.1-20,15.1-29.1c20.9-31.7,45.4-43.2,73.5-35.3
			c26.7,7.5,49,38.4,49.8,71.2c0.6,22.1,2.3,43.9,7.7,65.3c11.3,44.6,40.8,69,86.5,70.1c44.6,1.1,87-10.3,128.8-24.7
			c64.3-22.2,126-52.2,193.4-65.4c52.1-10.2,103.6-8.8,153.7,10.4c48.8,18.8,82,53.4,99.2,102.4c4.7,13.4,8.6,17.9,24.2,14.2
			c103.3-24.5,207.6-29.1,312.5-11.3c10.2,1.7,15.9-0.9,21.8-9.3c22-31.4,46.4-60.9,78.9-82.1c61.6-40.3,125.2-53.1,190.9-9.2
			c9.2,6.1,15.2,0.6,22.2-1.9c84.2-29.9,176.4,14.2,197.7,95.7c13.7,52.5,2.2,100.3-32,142.5c-5.2,6.4-10.4,10.7-3.9,20.4
			c24.1,35.8,25.6,75.6,17,116.4c-5.7,27.3-15.1,53.5-27.3,78.6c-11.2,23.1-28.5,40.2-53.3,49.8c14,14.6,25.8,28.5,39.2,40.7
			c52.8,48,65.8,106.4,42.9,172.1c-13.5,38.7-30.3,74.4-27.5,118.6c3,46.4-14.6,92.2-24.6,138c-3.3,15.2,1.2,22.2,11.8,30.9
			c65.5,53.4,92.9,143.5,68.1,222.3c-9.2,29.3-23.9,55.6-49.2,73.8c-10.8,7.8-10.9,14.2-6,25.3c56.5,127.5,80.9,261.3,77.8,400.5
			c-0.7,30.1-3.2,60.1-7.4,89.9c-6.1,43.3-10.5,85.5-3.5,130.4c13.3,84.7-36.1,171-111.4,210.6c-80.9,42.5-179.2,33.3-245.8-23.4
			c-8.9-7.6-17.2-15.9-26.7-24.7c-66.8,76.1-154,112.1-251.6,126.8c-76.3,11.4-152.4,5.1-228.2-4.5c-36.4-4.6-72.7-9.7-108.8-16
			c-48.5-8.5-94.2-23.3-124.5-67.4c-59.2,69.4-138.1,89.9-223.2,94.7c-27.9,1.6-54.8-2.7-74.1-25.7c-9.1-10.9-17.3-3.6-25.6-0.8
			c-176.6,61.3-349,50.5-517.5-29.7c-8.6-4.1-16.9-8.8-25.3-13.4c-8.3-4.5-16.5-9.2-25.1-13.9c-20.1,112.8-123.2,143.1-216.5,129.1
			c-23.9-3.6-47.2-10.9-71-14.8c-18.9-3.1-33.5-9.1-35.1-33.9c-0.2,37.8-27.2,30.8-47.9,32.5c-10.8,0.9-22.1,0-32.9-1.7
			c-39.5-6.4-77.3-21-119.4-11.1c-24.9,5.8-48.6-8.8-66.8-27.3c-6-6.1-9-7-17.6-4.1c-84.4,27.7-170.3,37.2-258,17.7
			c-15.8-3.5-31.3-8.3-44.9-17.4c-24.2-16.1-30-39.8-15.2-64.9c10.8-18.4,25.1-34.4,39.8-49.7c57.2-59.1,115.4-117.2,171.7-177.1
			c29-30.9,48.4-67.9,55.5-110.6c2.9-17.2-2.1-22.4-19.6-18.6c-23.1,5.1-46.7,5.9-69.7-1.1c-28.4-8.6-41.6-29.6-37.5-58.7
			c10-71.2,75.9-129.7,147.7-129.3c14.4,0.1,11.2-6.1,10.5-14.3c-12.7-133.8-1.7-265.3,38.1-393.9c5.6-18.2,11.1-36.6,18.5-54
			c6-14.1,2.9-18-11.9-21.5c-106.4-24.7-170.3-92.2-195.7-197.7c-7.1-29.3-11.9-59-15.2-88.8c-8.2-74-10.2-147.8,6-221.2
			c21-94.7,72-167.3,156-216.5c6.6-3.9,18.6-5.5,7.2-18c-76.4-83.7-75-229.8,12.4-331.2c13.2-15.4,27.6-29.5,58.7-55.8
			c29.9-25.4,82-68.9,160-102.3c17.6-7.5,81-33.6,169.5-42.9c48.4-5.1,135.9-13.3,239,22.5c23.7,8.2,84.6,31.4,149.4,82.9
			C1199.4,465.2,1232.5,505.9,1253.6,536.1z M1456.9,1952c-56-21.2-85.1-64.5-80.7-120.9c1.6-20.4,5.4-40.8,13.4-59.7
			c4.4-10.3,2.6-17.1-3.8-25.8c-88-117.5-187.7-223.6-303.4-314.3c-150.1-117.7-306.8-72.1-406.1,21.6
			c-81.2,76.7-117.2,175.6-128.9,284.4c-13,121.5,12.4,237.9,48.3,352.7c5.2,16.5,44.8,34.1,61.8,29.9
			c57.3-14,115.5-21.6,174.4-13.9c26,3.4,50.4,11.3,78.1,5.1c16.4-3.7,23.6-8.4,28.4-23.1c28.5-86.3,34-173.7,13.6-262.4
			c-2.7-11.9-5.7-19.5,11.4-23.2c17.7-3.8,13.9,9,15.6,16.2c22,93,17.3,185-13.6,275.3c-5.7,16.5-9.1,28.8,8.6,40.2
			c11.2,7.3,15.9,20.8,18.5,34.1c8.4,43.4-6.7,80-36,110.3c-10.9,11.2-12.5,20.4-10.4,34.6c13.2,88.4,31.3,176.1,37.3,265.4
			c0.5,6.7,3,8.8,8.5,12.3c33.5,21.4,68.6,39.7,105.7,53.8c147.6,55.8,296.3,59.4,445.6,6.7c9.3-3.3,19.6-4.4,19.8-19.1
			c0.5-28,12.7-52.4,27.4-75.5c11.3-17.8,22.9-35.4,35.5-54.9c-67.9-7.5-111.6-43.9-133.5-104.7c-20-55.6-20.3-112.3,2.2-167.8
			c4.3-10.7,6-15.3-8.3-19.2c-50.6-13.6-75.1-44.4-80.2-96.8C1400.4,2053.1,1418.2,2000.4,1456.9,1952z M1789.7,2389.6
			c27.4,0.1,50.9,6.8,71.4,22.8c45.7,36,61.4,97.5,38.1,155.1c-4.2,10.4-4,17.3,2.1,26.9c20.5,32,52.8,44,86.9,50.7
			c45.3,8.8,91.1,15.1,136.9,20.9c71.5,9,143.2,13.5,215.1,2.1c83.9-13.3,158.9-44.2,219.9-106.1c12-12.2,11.1-17.5,3.5-29.8
			c-16.3-26.5-25.7-55.7-29.7-86.8c-2.7-20.6-1.3-41-0.4-61.5c2.4-57.6-17.9-80.7-75.3-85.9c-20.4-1.9-41.1-2.9-61.2-6.9
			c-127.1-25.3-211.6-146.3-191.6-274.5c12.6-80.8,58.3-134.4,136.5-159.4c44.1-14.1,89.3-15.6,135-11
			c33.4,3.4,65.5,12.6,100.3,21.1c-10.5-26.9-17.1-55.4,1.6-73.4c24.4-23.5,14.6-42.9,4.9-65.5c-1.4-3.4-3.1-7-3.1-10.5
			c0.1-21.4-11.4-21.9-28.5-18.4c-131.4,26.8-263.7,40.8-398,30c-97.8-7.9-182-40.4-244.4-121c-38.7-49.9-93.7-71.7-156.3-72.8
			c-43.4-0.8-86.9-2-131,3.4c14.2,65.7-18.5,102.5-85.5,121.5c64.7,19.1,120.7,17.3,175.8-4.5c28.4-11.2,28.3-11.4,21.2-41.6
			c-1.5-6.4-3.3-12.9-3.8-19.4c-0.6-7.7-7-17.9,8.3-20c12.7-1.8,17.9,2.1,20,15.3c11.1,68.3,46.5,122.9,98.1,167.2
			c75.5,64.9,166.1,88.2,263.1,90.2c108,2.2,210.4-26.5,311.2-61.7c11.7-4.1,16.2-3.1,21,8.8c5,12.4-1.3,15-10.2,17.8
			c-7.7,2.5-15.3,5.2-22.9,7.7c-119.3,39.4-240.2,68.4-367.2,50c-125.7-18.2-228.1-74.1-291.4-188.8c-6.5-11.8-11.5-10.9-21.9-6.1
			c-56.2,25.8-114.9,34.6-175.7,20.9c-19.7-4.5-29.9-5.2-47.2,13.9c-22.4,24.8-15.2,39.3-2,59.9c6.7,10.5,12.8,21.4,18.6,32.5
			c18.3,34.8,29.1,70.6,11.8,110.4c56.4,9.6,96.3,38.1,115.2,93.4c18.6,54.4,1.6,101.6-29.9,146.7
			C1770.4,2161.9,1835.9,2287.3,1789.7,2389.6z M1894,1502.1c36.6,10.5,64.1,32.2,81.7,65.7c17,32.1,44.9,49.3,78.1,59.9
			c48.7,15.5,99.4,19,149.8,22.1c120.9,7.4,238.2-12.4,353.3-48.3c15.7-4.9,23.3-12.2,28.1-28.5c36.6-125.6,133.4-177.9,255.5-139.2
			c7.2,2.3,12.7,4,14.4-5.6c8.3-48.3,24-95.5,25.1-144.9c0.6-26.3-6.6-51.8-32.8-62.3c-31-12.5-64.1-15.3-96.2-0.8
			c-3.7,1.6-6.5,5.9-8.8,9.5c-23,34.7-9.3,91.8,27.4,111.4c11.1,5.9,8.4,15.1,6.8,22.6c-2,9.3-11.2,5-16.7,3.7
			c-20.4-5-35.8-17.5-44.2-36.6c-15.6-35.2-15.7-71.3-2.1-107c7.5-19.6,22.7-33,43.7-36.6c42.8-7.5,84.9-8.1,121.8,20.7
			c4.5,3.5,8.7,8.9,13.3-0.4c24.2-48.5,43.3-119.8-12.8-172.8c-61.4-57.9-120.8-117.7-171.7-189.7c-4.1,5.5-6.8,9.9-10.3,13.7
			c-89,98.4-199.5,141.9-331.5,125.7c-51-6.2-99.8-20.5-126.3-71.9c-3.8-7.4-10.8-6.6-17.2-7c-98.9-6.5-180,73.8-174.6,172.5
			c0.6,11.6,3.9,20.5,13,28.7c22.9,20.7,37.5,46.8,44.8,76.8c19.3,80.3-24.8,149.1-102.1,159.4c-70.3,9.4-137.8-30.4-164.6-98.1
			c-4.8-12.2-9.1-13.7-20.1-7.9c-18.3,9.6-35.5,20.7-51.7,33.4c-65.8,51.5-106.1,118.6-121.3,200.6c-4.3,23.2-2.5,24.6,19.1,19.5
			c82.2-19.3,165.1-25,249.3-17c41.6,4,75.3,16.5,92,58.9c8.5,21.5,27.4,30,49.7,29.6c34.4-0.7,55.7-20.9,67.7-50.9
			c16.8-41.8,21.3-85,9.4-129.3c-9.2-34.2-15.2-69-7.8-104.4c11-52.4,31.5-99.3,87.8-116.4c42.3-12.8,86.3-17.3,130.6-8.6
			c62.3,12.3,117.3,34.5,138.8,102.1c3.4,10.8,10.4,5.2,16,3.7c32.6-8.6,65.4-15.9,99.1-19.2c9.2-0.9,17.1-3.5,17.7,10.8
			c0.5,12.2-2.7,16.6-15.5,17.5c-32.3,2.1-63.6,10.2-94.9,18.3c-10.6,2.7-15.3,7.6-15.6,19.5c-1.2,36.2-13.3,68.8-36.1,97.3
			c-69.7,87.1-181.6,102.7-284.1,38.5c-1.4,9.2-2.4,17.8-4.1,26.3c-5.8,30.4-13.3,60.1-32.9,85.2c-39.8,51.1-121.5,52-146.9-1.8
			C1965.3,1508.4,1933.8,1500.3,1894,1502.1z M1061.9,1381.7c2.9-85.2,40.3-149.6,104.6-198c48.3-36.4,79.5-84.1,98.9-139.7
			c49.5-141.5,49.8-283-3.6-424c-12.1-31.9-44-99.5-113.8-160.4c-61.6-53.7-123-74.8-155-85.4c-177.7-58.9-336,0-377.9,16.3
			c-89.7,34.9-151.8,85.9-172.7,104c-23.2,20-34,30.7-47.2,46.1c-78.2,91-80.8,218.4-6.3,301.4c7.2,8,11.5,6.9,18.9,3.9
			c23.9-9.4,48.4-17.5,73.9-21c14.9-2,18.1-8.4,16.7-23.2c-9.6-99.5,25-183.5,95.2-252.5c143.3-140.8,351.4-84.5,447.8,50.2
			c60.8,84.9,63.1,178.9,41.2,276.1c-18.7,83.2-52.6,161.6-78,242.7c-21.4,68.3-37.6,137.4-25.6,209.8c1.3,7.9,0.5,17,10.2,20.1
			C1013.7,1356.3,1035.8,1369.2,1061.9,1381.7z M801.9,2724.9c109.6,1,162-55.5,152.9-155.7c-7.6-84.1-23.7-166.9-36-250.3
			c-1.4-9.7-2.5-15.4-15.6-14.1c-25.7,2.5-47.6-6.6-62.1-29.4c-3.2-5-5.5-10.5-13.4-8c-48.3,15.7-97.7,4.5-146.6,5
			c-23.2,0.2-47.6,2.5-65.5-17.9c-1.2-1.4-4.5-3-5.6-2.3c-16.9,10-38.5,7.3-54.2,21.7c-69.1,63-107.9,141.6-121.4,233.2
			c-1.9,13.1-6.2,15.6-18.6,16.9c-55.2,5.4-94,37.3-105.6,84.7c-6.6,26.8-0.4,44.7,18.9,54.8c19,9.9,39.1,4.8,56.7-15.1
			c16.6-18.7,32.4-38,49.4-56.3c4.8-5.1,7.4-17.3,17.5-12.6c9.3,4.4,15.3,13.4,16,24.7c1,15.1-5,26.8-15.9,36.9
			c-8.5,7.9-19.1,13.9-24.4,25.1c-2.1,4.5-7.5,9.8-3.1,13.8c13.2,12.1,30,14.4,47.2,13.9c13.3-0.4,20.8-5.9,23.6-20.5
			c2.6-13.3,6.5-27.1,14.8-38.7c4-5.5,8.3-8.8,16.5-7.5c8,1.3,11.9,5.4,13.8,12c1.5,5.5,1.9,11.5,2.1,17.3
			c1.4,43.3,1.4,43.3,44.5,47.2c4.4,0.4,8.8,0.5,13.2,1.1c21,2.8,36.3-1.2,35.6-27.3c-0.1-5.5,2.9-11.4,5.5-16.6
			c9.4-18.8,25.6-19.9,37.3-2.5c7.1,10.5,10.1,22.8,12.7,35c1.8,8.3,5.6,12.2,14,14.3C740.1,2716.3,774.4,2724,801.9,2724.9z
			 M1412.7,481.2c-7.8,17.7-15.7,32.7-21.1,48.6c-19.3,56.4,4.2,90.2,64,93.1c11.7,0.6,23.5,0.5,35.2-0.1c36.6-2,73.2-4.8,109.9-6.4
			c49.1-2.2,98.1-8.9,147.3-2.1c50.2,7,95.8,23.1,113.9,76.2c18.4,54.1-5.4,97.4-43,134.4c-26.6,26.2-60.6,40.7-94.8,54.4
			c-36,14.4-73.3,26.1-106.2,47.5c-41.4,27-68.9,62.4-64.3,114.4c3.8,43.5,24.2,79.6,56,109.1c43.7,40.5,98.2,60.4,153.4,78.8
			c5.3,1.8,9.6,1.6,14.5-1.1c17.1-9.5,34.5-18.7,52.1-28.2c-31.6-24.2-59-60.9-71-94.5c-18.4-51.4-2.9-96.5,43.2-125.5
			c16.2-10.2,33.9-17.1,52.4-22.3c32.7-9.2,66.5-11.1,99.8-16.1c67-10.1,106.6-49,121.7-113.4c16.2-69.2,19.4-139.9,11.6-210.1
			c-9.8-88.9-63.1-137.5-151.7-145.5c-57.1-5.1-110.6,9-163.3,28.6c-50,18.7-99,40.5-151,53.6c-17,4.3-34.3,8.1-51.7,10.4
			C1489.2,575.7,1451.9,556.3,1412.7,481.2z M1739.6,1251c-7.7-2.8-15.1-5.4-22.5-8.1c-44.3-16.4-86.6-36.5-122.3-68.1
			c-80.9-71.6-116-210.8,31-285.2c30.1-15.2,62-26.3,93.2-38.9c34.9-14.1,68.8-29.8,93.6-59.7c52-62.7,28.2-130.3-51.6-146
			c-46-9.1-92.1-3.9-138.3-1.8c-58.6,2.6-117.1,10.1-175.9,6.6c-69.6-4.2-103.5-52.8-84.4-120.2c3.8-13.3,9.4-26.2,14.9-38.9
			c7.2-16.8,15.5-33.2,22.5-50.1c7.5-18.2,10.3-37,1.3-55.5c-6.1-12.8-13.9-24.6-29.9-26.2c-16.2-1.7-26.5,7.5-33.9,20.1
			c-23.6,40-40.6,82.6-50.2,128.2c-8.9,42.1-7,82.7,9.9,122.7c20.7,48.9,61.8,77.2,114.6,77c15.5-0.1,30.8,1,45.9,4.7
			c25.1,6.3,44.8,26,47,46.9c2.7,26.3-11.2,43-32.9,54.4c-14.9,7.9-30.8,14-45.2,22.7c-69.8,42.3-113.3,100.6-102.9,186.4
			c7.4,61.5,42.3,108.4,89.4,146.6c52.1,42.3,113.9,62.7,178.4,75.7c36.6,7.4,74.2,10.3,110.5,18.6
			C1717.5,1266.4,1730.5,1274.5,1739.6,1251z M798.7,1238.3c-1,30.4,4.5,59.8,12.2,89c3.5,13.4,9.6,15.5,22,12.7
			c28-6.4,56.5-8.9,85.3-6.4c31.6,2.8,32.1,2.8,29.9-29.7c-5.7-84.9,18.9-163.8,45.8-242.6c28.3-83.1,62.3-164.7,71.8-253.2
			c21-194.3-132.2-304.9-263.1-312.1C655,487.9,524.2,619.5,524.7,773.5c0.1,43,0.1,43,41.6,42.9c5.1,0,10.5-0.8,15.4,0.3
			c19.8,4.5,26.9-3.8,31.8-23.1C640.6,687.3,749.2,630.5,853,666.8c99.5,34.9,147.8,148.7,105,247.2c-14.8,34.1-37.2,63.2-61.5,90.7
			C837.3,1071.6,796.8,1146,798.7,1238.3z M2434,1871c-13,1.1-29.2,1.6-45.1,4.1c-61,9.6-112.5,34.6-140.2,93.6
			c-60.7,129.3,34.1,288.7,176.8,298.1c16.1,1.1,32.3,2.1,48.2,4.9c30.4,5.2,59.5,14.5,74.7,44.2c7.1,14,15.3,15.4,28,10.9
			c6.2-2.2,12.6-4.2,19.1-5.3c11-1.8,13.9-6.2,11.2-18c-7.8-35-15.4-70.2-20.2-105.7c-9.1-66.4,33.8-107.5,100.1-96.7
			c9.3,1.5,13,0.9,15.8-8.3c6.3-21,20.2-36,41.3-42.3c13.6-4,10.5-10.1,5.5-18.6c-15-25.5-32.8-48.7-55.9-67.5
			C2618.7,1903.8,2532.3,1875.7,2434,1871z M450.5,1040.6c10.8,7.7,21.6,7.4,31.4,6.9c30-1.5,59.9-5.1,89.9-6.9
			c28.5-1.7,55.7,3,78.7,21.6c4.1,3.3,12.2,7.8,5.2,13.5c-5.7,4.7-10.1,17.5-21.3,9.3c-29.5-21.5-61.9-17.9-95.2-13.4
			c-34.1,4.6-68.6,10.2-102.1-3.7c-8.7-3.6-12,1.8-15.7,7.3c-16.1,23.8-29,49.2-38.9,76.3c-4,10.9-1.3,14.3,9.6,15.3
			c22.1,2,43.6-1.8,65.3-4.3c37.1-4.4,74.3-11,111.4-0.8c5.7,1.6,17.1,1.4,11.9,13.2c-3.4,7.7-3.2,19.2-18.7,14.6
			c-19-5.7-38.9-4.6-58.9-3.4c-40.9,2.4-81.2,14.5-122.6,7.9c-10.3-1.6-10.6,5.6-11.7,11.8c-3.6,20.3-3.3,40.9-4.2,61.4
			c-0.9,20.5,6.7,25.5,25.7,19.5c30.1-9.4,60.3-18.3,90.8-26.2c39.3-10.2,78.6-11.7,115.9,7.2c5.3,2.7,20.9,2.4,12,16.8
			c-5.6,9-10.2,16.6-24.1,8.7c-20.2-11.4-43.1-13-66.3-10.6c-47.9,4.9-91.5,26.2-138.4,34.8c-10.4,1.9-7.3,8.4-5.5,14.9
			c7.2,25.8,19.3,48.8,35,70.5c10.9,15.2,25.8,17.9,41.9,16.7c14.8-1.2,28-8,40.3-16.5c18-12.6,35.8-25.7,54.8-36.5
			c21.9-12.4,45.7-16.4,69.8-6.1c6.3,2.7,18.7,4.4,13.9,15.2c-3.7,8.3-9.9,17.4-24.1,11.3c-16.3-7-33.3-3.2-48.6,5.5
			c-31.4,17.8-57.1,44.6-96,55.6c41.5,26.2,83.4,39.4,125.1,53.1c9.5,3.1,13-1.1,17.6-7.6c43.5-62.6,100.1-108.9,171.3-136.5
			c11.4-4.4,12-9.6,9.1-19.6c-28-98.3-16.3-191.7,36.3-279.5c4.3-7.1,5.1-12.2-0.1-19.6c-33.1-47.2-128.1-87.5-185.5-77.2
			c13.7,8.1,28.3,10,42.1,14c10.6,3.1,20.9,6.6,30.2,12.6c5.7,3.7,9.2,8.4,3.8,14.3c-4.4,4.8-6.9,15.7-16.1,10.8
			c-26.1-14-58.8-12.4-81.8-30.6c-30.1-23.8-57-14.3-85.4-0.3C499.4,996,473.5,1014.6,450.5,1040.6z M910.3,942.8
			c-38.8-21.9-77.9-38.3-117.6-53.1c-99.7-36.9-201.2-58-308.2-37.3c-140.6,27.3-236.7,118.2-261.1,254.7
			c-18.2,101.9-10.3,203.5,17.3,303c23.3,84.2,79.2,136.4,164.8,157c33,8,66.3,11.9,99.9,15.3c48.9,5,48.2,4.5,69.9-39.6
			c6.3-12.8,2.4-16.2-8.8-19.4c-34-9.6-66.7-22.3-98-38.7c-68.6-36-111.7-91.2-126.3-167.8c-6.9-36.3-8.2-72.8-1.9-109.5
			c18.1-106.4,69.4-190.8,164.7-245c92.6-52.7,244.4-49.2,341.2,59.9C867.3,996,888.4,969.9,910.3,942.8z M2561.3,2405.1
			c-1.9,20.2-1.1,41.5,5.2,62.1c24.1,78.5,73.5,131.6,156.2,146.8c76.9,14.1,156.9-21.7,194.8-83.7c43.2-70.7,39.5-152.8-10.8-220.7
			c-18.8-25.3-39.7-49-58.9-74.1c-6.6-8.6-10.3-7-16.3,0c-16,18.6-35.9,32.4-57.3,44.1c-53.7,29.2-110.2,51.5-168.9,68.2
			C2562.7,2359.8,2562.7,2359.9,2561.3,2405.1z M1700.5,1290.2c-17.2-2.3-31.8-4-46.2-6.2c-86.7-13.2-171.4-31.9-245.6-82.5
			c-26.9-18.4-57.1-29.8-89.9-32.2c-122.4-8.8-229.7,93-229.4,216.9c0,10.5,2.9,17.6,11.6,23.9c29.6,21.6,57.9,45.1,83.8,71.1
			c11.6,11.6,17.3,9.4,26.7-2.3c44.6-55.6,100.9-95.6,167.8-120.2c84.8-31.2,170.5-32.3,256.8-5.7c7,2.2,15.3,11.3,23-0.8
			C1671.9,1332.1,1685.6,1312.4,1700.5,1290.2z M2643.8,464.9c-3,0.4-10.4,0.9-17.5,2.1c-67.8,12-111,57.4-146.1,111.3
			c-61.9,95.3-124.2,190.2-194.8,279.3c-28.7,36.2-25.8,55.4,14.8,78c5.7,3.2,12,5.4,17.9,8.4c10.2,5.2,16.5,2.6,23.1-7.3
			c44.6-67.4,95.1-130.3,146.3-192.8c43.7-53.3,97.4-78,166.2-69.1c6,0.8,13.3,4,17.5-4.1c18.7-35.7,47.4-65.4,61.9-103.5
			c16.1-41.9-0.2-77.9-42.1-94.2C2677.3,467.8,2663,464.9,2643.8,464.9z M2942.5,2309.8c19.2-93.7,17.1-183.8,5.5-273.5
			c-10.7-82.4-33.8-161.9-67.2-238.2c-3.2-7.2-4.7-15.1-16.7-12c-50.9,13.2-103.3,11.4-155.2,13.3c-27,1-54.5,1.6-80-10
			c-6.7-3-8.7-1.1-13.7,3.9c-23.3,22.7-25.1,46.5-3.6,70.9c18.2,20.6,42.8,30.4,67.4,40c26.8,10.4,53,21.6,75.4,39.9
			c73.5,59.8,99.7,140.3,99.9,231.7c0,11.3,0.1,21.8,7.4,31.2C2887.9,2240.1,2913.9,2273.4,2942.5,2309.8z M2731.6,1769
			c32.9,0,65.8-0.4,98.7-4.3c53.9-6.5,89.2-34.7,104.9-86.2c7.4-24.2,8.1-49,5.4-74c-11.8-108.9-124.8-183.3-224.3-148.3
			c-109.3,38.5-142.9,211.3-92.3,293.2c7.8,12.6,20.3,19.2,35.1,19.5C2683.2,1769.3,2707.4,1769,2731.6,1769z M2299.2,1176.7
			c-10.9,0.7-21.9,0.9-32.8,2c-69,7.2-98.5,33.1-112.9,99c-3.9,18.1-3.5,36.5-1.8,54.8c5.6,57.6,41.4,103,91.7,117
			c72.6,20.2,168.8-21.9,203.1-88.7c37-72.1,5.4-148.3-71.7-171.8C2350.4,1181.3,2325.3,1175.9,2299.2,1176.7z M2018.3,1075
			c1.5-12.4,2.6-24.9,4.5-37.1c9.4-60.4,40.9-106.1,93.9-136.2c32.6-18.6,68.5-25.3,106-23.6c7.6,0.3,16.2,3.3,20.1-7.7
			c5.2-14.9,17.3-25.2,26.8-37.2c18.4-23.2,37-46.2,55-77.1c-22.3,0-39.7,0.3-57.2-0.1c-35.1-0.7-47.3-12.1-49.6-47.3
			c-2.2-33.7-4.1-67.4-4.9-101.1c-0.4-13.4-1.7-20.8-18.3-16.5c-19.8,5.2-40.2,8.3-60.4,11.4c-14.1,2.2-19.5,8.5-17.8,23.4
			c5.8,53.5,2.2,107-4.1,160.2c-15.1,127.1-73.5,175.6-176.4,186.2c-39.8,4.1-80.3,8.2-116.1,29.5c-37.4,22.3-49.1,55.1-33.7,95.7
			c9.8,25.8,25.8,47.3,46,66.5C1860.3,1085.1,1927.1,1042.2,2018.3,1075z M521.4,2266.7c-20.5-5.8-37.7-9.7-53-18.4
			c-5.2-2.9-8.9-2.6-13.9,0.7c-25.8,17.3-53.8,16.9-81.9,8.1c-10.9-3.4-15.5-4-15.7,9.9c-0.6,47.2-18.9,88.2-45.6,126.3
			c-21.7,30.9-48.9,56.5-75.4,83c-48.7,48.8-99.1,96.1-142.4,150c-20.2,25.2-17.5,36.7,12.6,46.1c63.4,19.7,127.9,22,194.8,7.6
			c-16.6-21.5-26.8-42.5-20.2-69.8c14.5-60.3,51.1-97.6,111.1-111.5c12-2.8,16.7-8.3,18.8-19.9c7.5-41.3,21.4-80.5,41.3-117.5
			C470.1,2327.5,493.2,2297.3,521.4,2266.7z M380.6,1957.6c2,32.9,4.1,65.8,5.9,98.8c0.6,11.5,4.9,17,17.6,16.1
			c16.7-1.2,34.6,2.9,44.1,15.8c17.2,23.3,38.2,17.7,60.1,14.3c8.7-1.4,17.3-2.9,26.1-3.8c34.1-3.4,34-3.3,24.3-35.9
			c-42.8-144.2-61.5-289.4-17.3-437c3.5-11.7-1-14.1-11.1-14.7c-19.8-1.1-39.7-1.6-59.1-4.7c-16-2.5-22.7,2.4-28.6,17.7
			C401.8,1731.8,382.1,1842.9,380.6,1957.6z M1408.9,1729c15.7-17.5,33.1-25.3,56.9-20.5c15.2,3.1,31.3-6.4,32.6-22.6
			c2.6-34.4,23.4-50.5,52.2-60.4c25.6-8.8,44-23.3,46.3-52.2c2.5-31.5-13.1-53.2-39-68.3c-33.5-19.5-68.7-16.5-104.3-6.5
			c-15.4,4.3-30.4,10.8-46.9,10.5c-30.5-0.7-44.8-18.5-36.3-47.4c7.5-25.6,17.1-50.5,26.9-79.4c-71.5,26-128,66.7-172.4,124.4
			c-5.9,7.7-0.8,11.9,4,16.5C1293.8,1586.7,1353.4,1655.3,1408.9,1729z M1506.9,2311.1c0.5,11.2,0.2,21.6,1.5,31.7
			c6.9,53.9,28.2,99.1,81.3,121.4c30,12.6,59.3,13.8,83.7-14.9c14.3-16.8,32.6-30,52.6-39.1c36.5-16.5,48.6-47.7,50.5-83.3
			c4.2-77-61.8-142.4-143.3-143.7c-63.3-0.9-116.8,29.3-123.4,91.6C1508.6,2287.2,1507.8,2299.6,1506.9,2311.1z M1647.4,2676.6
			c43.1-0.3,104.8-14.7,138.7-31.5c39.3-19.5,70.3-47.3,87.4-88.7c18.3-44.4,5.6-94.9-30.9-122.8c-29.3-22.4-67.4-20.3-93,5
			c-16.2,16-34,30.3-54,41.2c-55.4,30.1-79.7,84-101.6,137.9c-12.1,29.7,4.5,51,36.4,57.3
			C1637.5,2676.4,1644.9,2676.4,1647.4,2676.6z M2763.1,871.4c5.2-5.9,2.5-10.2,2.2-14.2c-5.5-65.7,17.8-107.2,76.7-137.4
			c13.7-7,27.6-13.9,39.9-22.9c45-33.1,60.1-105.7,33.2-155.1c-26.3-48.3-91.8-73.2-144.7-55.5c-8.8,3-14.5,5.1-9.6,16.3
			c14.4,33.4,6,65.1-10.6,94.8c-14.6,26.2-31.7,51-47.8,76.3c-19.2,30.1-21.5,61.5-8.7,94.6C2708.9,807.9,2738.8,837.2,2763.1,871.4
			z M791.2,684.6c-71.4-2.2-138.1,51.1-152.6,120.8c-2.4,11.3-0.9,15,11.3,16.8c90.7,13.8,175.3,46,257,86.6
			c13.9,6.9,20.9,7.3,27.5-9.1C975.8,795.8,904.5,688.1,791.2,684.6z M1985.7,1315c60.1-0.1,95.6-36.8,95.3-98.7
			c-0.3-66.6-57.8-124.8-123.1-124.4c-54.4,0.3-99.7,48.1-99.7,105.2C1858.2,1263.1,1914.3,1315.1,1985.7,1315z M1433.7,2090.9
			c0,6.6-0.6,13.2,0.1,19.8c5.6,50.4,37.3,77.8,83.1,73.2c16.2-1.7,27.2-13.6,41.6-18.7c56.2-20,89.2-80.1,77.1-138.5
			c-8.9-42.9-41.1-75.6-83.7-82.8c-42.5-7.2-69.3,16.9-90.1,49.4C1442.9,2022.8,1433.3,2055.6,1433.7,2090.9z M2420.4,959.9
			c98.2-4.7,177.2-38.8,242.1-105.4c26.9-27.6,26.9-27.5,11.3-61.3c-3.1-6.6-5.7-13.5-8.1-20.4c-2.6-7.5-6.6-11.9-15.4-13.1
			c-36.3-5.2-70.6,0.6-94.5,29.3C2510.4,843.2,2467.7,899.8,2420.4,959.9z M1613,1517.7c2.5-43.1,8.2-81.3,23.5-117.2
			c5.8-13.6,1.4-17.1-10.9-21.1c-49.7-16.2-100.5-17.3-152.1-15.2c-29.4,1.2-47.8,12.9-54.1,42.4c-1.8,8.5-6.8,16.2-9.3,24.6
			c-4.5,15.1-19.9,33.6-10.3,44.7c11.6,13.4,31.1-1.1,46.8-5.3C1509.4,1454.1,1566,1459.7,1613,1517.7z M2438.1,592.8
			c-64.7-11.8-126-11.6-187.5-8.5c-8.8,0.4-11,5.5-10.6,13.2c2.1,37.3,4,74.7,6.4,112c0.3,4.9,1.5,10.6,4.4,14.4
			c5.6,7.4,92.6,7.9,98,0.2C2378.2,681.5,2407.1,638.5,2438.1,592.8z M719.4,2244.6c32.8,1.1,57.7,3.3,82.6,0.5
			c18.2-2.1,29.5-8.5,27.4-30.6c-2.1-21.9,0.7-44.2,12.4-63.7c6.7-11.2,3.9-14-8.4-16.4c-48.7-9.3-96.4-0.3-144,6.9
			c-47.7,7.2-58.7,23-58,71.4c0.3,20.7,9.5,31.5,30.1,31.8C683.4,2244.8,705.4,2244.6,719.4,2244.6z M1862,1531.5
			c30,17,55.4,39,76,65.7c49,63.5,115.7,92.4,193.1,101.1c137.8,15.4,273.9,1.5,409.2-25.1c33.3-6.6,33.3-7,33.3-41.3
			c0-1.3-1-2.6-1.6-3.8c-7.8-1.5-14.5,2.1-21.4,4.2c-147.4,45.6-297.2,59.6-450,35.1c-65.2-10.5-122.8-32-156.4-95.9
			C1928.1,1540.8,1897.9,1528.5,1862,1531.5z M2748.5,2240.4c-2.1-51.2-18.6-85.6-48.4-103.7c-20.4-12.4-41.5-14.1-62.6-2.2
			c-20.5,11.6-25.7,30.5-24,52.6c2.8,36.7,13.8,71.9,19.9,108c2.1,12.6,8.6,12.6,18.6,8.3c24.8-10.8,49.7-21.7,75.1-31
			C2744.3,2266,2752.3,2255.8,2748.5,2240.4z M2793.7,854.6c-0.3,15.8,5.2,41.3,18.8,64.8c13.7,23.6,28.1,26.1,49.2,7.9
			c7.3-6.3,13.2-13.8,17.3-22.5c13.6-28.6,24.3-58.2,29-89.6c4-26.1-0.1-51.3-13.1-74.5c-2.7-4.8-3.8-12.4-14.1-9.5
			C2824.7,746.7,2792.9,787.2,2793.7,854.6z M1474,1923.2c29.5-0.2,49.4-18.2,50.2-46.9c0.3-10.8-1.5-22.2-5.1-32.4
			c-12.2-34.8-32.8-65.5-51.6-96.8c-10.7-17.8-24.6-16.9-36,1.5c-18.6,29.8-29,63.1-26.7,98.2
			C1407.8,1893.9,1436.3,1923.5,1474,1923.2z M279.1,2243.9c10.5-1.4,25.7-3.2,40.9-5.5c17.9-2.8,29-12.4,31.4-31.2
			c3.1-23.9,7.5-47.7,9.8-71.7c2.3-23.3-7.2-32.3-29.5-27.2c-45.4,10.5-80,35.5-97.3,80.2C219.2,2227.9,232.1,2245.3,279.1,2243.9z
			 M557.2,2125.2c-18.6-1.3-36.3,5.1-54.5,6.1c-19.1,1.1-28.9,7.4-23.8,29.2c3.5,14.8,2,30.7-1.1,45.8c-2,10.1,0.4,16.3,10.5,20.6
			c32.4,13.6,65,15.8,98.3,3.9c12.2-4.4,19.3-10.7,17.8-25.4c-1.3-13,1.8-26.1,3.9-39.1c1.4-9,17.1-15.7,5.1-26.7
			c-7.8-7.1-18-9.9-28-11.9C576.3,2125.8,566.6,2126,557.2,2125.2z M1330.6,880.3c33.2-41.5,75.1-68.8,122-89.6
			c11.9-5.3,26.8-11.6,24-27.5c-3-17.1-17.7-24.5-34.2-25.7c-42.4-3.1-86.1-0.3-125.8-35.9C1328.8,765.9,1331.3,822.6,1330.6,880.3z
			 M855.9,2214.1c0.4,7.3,0.1,14,1.2,20.4c2.8,16.9,6.3,34.1,25.6,40.1c19.1,5.9,36.6,0.9,50.9-12.6c18.2-17.1,29.9-38.2,32.3-63.2
			c3.5-35.8-11.7-56.6-42.4-60.1c-35.4-4-58.4,12.9-64.2,47.6C857.7,2195.7,857,2205.3,855.9,2214.1z M2625.2,701.4
			c-39.6-0.2-73.8,13.8-99.9,43.1c-55.6,62.5-107.2,128.2-153.9,197.7c-2.7,4-10.4,9.3-2.7,14.1c5,3.1,12.8,4.1,18.3-1.8
			c3-3.2,5.7-6.7,8.4-10.2c40-50.6,81-100.5,119.8-151.9c33.1-43.8,74.3-67.7,130-62c10.1,1,13-2.3,13.1-11.7
			c0-8.4,1.7-16.7-11-16.4C2639.8,702.5,2632.5,701.7,2625.2,701.4z M451.4,2172.9c-0.9-11.5,0.5-26.3-4.6-40.5
			c-7.7-21.3-28.5-35.4-49.1-32.9c-6,0.7-12.6,0.9-11,9.7c7.1,37.1-3.8,72.7-9,108.7c-1.3,8.6,1,11.3,8.7,13.9
			C428.3,2245.9,451,2226.5,451.4,2172.9z M2777.8,2243.5c17.3-9.7,28.4-21.2,38.6-33.5c4.4-5.3,7.1-11.2,3.4-18.1
			c-18.6-34-30.4-71-46.2-106.3c-2.5-5.6-4.9-11.7-11.8-11c-12.1,1.3-22.5,6.8-28.7,17.8c-5.9,10.5-10.9,23.1-1.1,32.5
			C2764.9,2156.6,2774.7,2197,2777.8,2243.5z M1348.3,1144.8c-24.1-32.5-39.4-63.3-51.3-101.9c-15.2,39.3-31.2,71.7-53.5,103.9
			C1278.4,1138.9,1310.3,1138,1348.3,1144.8z M2819.7,2116.6c-6.7-49.8-25.9-93.8-63.1-129
			C2783.5,2027.6,2798.1,2073.5,2819.7,2116.6z"/>
		<path class="st0" d="M2760.8,1561.3c47,0.1,79.4,29.9,78.8,72.4c-0.5,39.2-37.3,70-83.3,69.4c-40.5-0.5-61.4-23.8-61.6-68.7
			C2694.6,1585,2716.1,1561.2,2760.8,1561.3z M2723.6,1632.8c0.1,32.2,7.8,41.9,33.5,42.1c29.7,0.2,54.5-18.6,55-41.9
			c0.5-22.3-22.7-45.1-45.4-44.6C2732.4,1589.2,2723.4,1598.5,2723.6,1632.8z"/>
	</g>
</g>
</svg>
