<?xml version="1.0" encoding="utf-8"?>
<!-- Generator: Adobe Illustrator 23.0.0, SVG Export Plug-In . SVG Version: 6.00 Build 0)  -->
<svg version="1.0" xmlns="http://www.w3.org/2000/svg" xmlns:xlink="http://www.w3.org/1999/xlink" x="0px" y="0px"
	 viewBox="0 0 3000 3000" style="enable-background:new 0 0 3000 3000;" xml:space="preserve">
<style type="text/css">
	.st0{stroke:#000000;stroke-width:10;stroke-miterlimit:10;}
</style>
<g id="Layer_1">
</g>
<g id="Layer_2">
	<g>
		<path class="st0" d="M464,1207.9c207.8,0.3,381.9,172.1,379.7,377.8c-2.1,200.4-164.1,377.5-375.3,379.9
			c-213,2.5-388.7-173.5-389-382.6C79.1,1381,257,1207.5,464,1207.9z M789.2,1581.7c0.9-179.2-161.7-328.6-346.3-319.9
			c-164.6,7.8-313.9,162.7-308.5,328.2c5.8,177.3,160.2,326.9,332,321.7C644.9,1906.3,793.9,1754,789.2,1581.7z"/>
		<path class="st0" d="M2551.4,1207.9c211,3.2,381.6,175.1,377.9,381.5c-3.4,193.5-161.5,375.2-376.7,376
			c-214.3,0.8-388.8-175.4-386.5-381.8C2168.4,1376.8,2344.9,1204.7,2551.4,1207.9z M2220.7,1583.7c1.5,178.7,151.9,328.4,329.7,328
			c173.3-0.4,325.5-152.9,325.3-326c-0.3-196.3-174.6-330.4-340.6-324.2C2369.1,1267.8,2219.3,1416.5,2220.7,1583.7z"/>
		<path class="st0" d="M1511.9,1936.1c-126-3.9-242.3-49.3-328.3-156.7c-99.1-123.7-90.8-283.1,17.7-398.8
			c156.1-166.4,442.3-178.2,612.1-25.4c153.1,137.9,147.5,349.3-12.8,481.3C1719.3,1903.3,1625.5,1934.5,1511.9,1936.1z
			 M1521.6,1302.2c-90.9,0.3-170.6,26.2-239.2,78.1c-132,99.8-151.2,257.2-46.3,378.2c143.8,165.8,429.9,163.4,570.5-4.9
			c90.6-108.4,85.4-245-15.2-344.3C1716.9,1336,1625.4,1302.9,1521.6,1302.2z"/>
	</g>
</g>
</svg>
