<?xml version="1.0" encoding="utf-8"?>
<!-- Generator: Adobe Illustrator 23.0.0, SVG Export Plug-In . SVG Version: 6.00 Build 0)  -->
<svg version="1.0" xmlns="http://www.w3.org/2000/svg" xmlns:xlink="http://www.w3.org/1999/xlink" x="0px" y="0px"
	 viewBox="0 0 3000 3000" style="enable-background:new 0 0 3000 3000;" xml:space="preserve">
<style type="text/css">
	.st0{stroke:#000000;stroke-width:6;stroke-miterlimit:10;}
</style>
<g id="Layer_1">
</g>
<g id="Layer_2">
	<g>
		<path class="st0" d="M1464.2,2366.1c-133.4-2-266.9,3.5-400.3-5.1c-111.2-7.1-206.6-50.6-280.8-133
			c-86.2-95.8-89.4-250.1-13.7-374c28.8-47,67.2-83,117.7-105.4c86.7-38.6,131.3-105.8,132.1-199.9
			c1.3-153.8,65.8-275.2,183.9-370.5c18.3-14.8,38.1-24.9,62.3-22.8c21.1,1.8,38.2,10,45.3,32c6.8,21.1,0.1,42.5-17.4,56.8
			c-98.2,80.5-160.6,180.3-173.3,309.4c-10,101.6-57.6,182.6-146.6,235.1c-100.6,59.4-135,152.2-134,261.6
			c0.2,27.3,6.4,51.2,17.7,71.6c17.2,31.1,44.3,51.3,85.1,70.8c90.6,43.4,174.3,48.2,175.6,48.3c350.4,20,299.2,35.3,492.3,30.6
			c336.7-8.2,478.2-54.4,514.7-67.4c64.5-22.9,128.1-54.2,128.1-54.2c46.5-22.9,89.9-44.3,136.1-79.6c20.2-15.5,70.4-56,124-131.7
			c43.8-61.8,64.8-111.6,147.1-347.2c159.6-457.2,108.1-349.3,126.8-391.4c8.1-18.1,28.1-65.2,32.9-129.3
			c7.5-100.5-33.5-177.5-112.6-236.7c-102-76.3-217.8-109.4-343.7-108.2c-139.3,1.3-278.4,9.9-416.6,27.9
			c-181.6,23.6-314.7,122.7-415.9,270.4c-18.2,26.6-34.1,54.6-48.7,83.5c-20.2,40-59.4,58.1-96,44.6c-36.4-13.5-51-52.2-40.8-97.2
			c22.3-97.8,83.6-169.7,153.3-236c120.3-114.4,265.1-175.6,429.7-182c216.2-8.4,432.6-2.3,648.2,17.6
			c75.2,6.9,149.5,20.3,219.5,51.2c102.6,45.3,151.2,122,147.5,234c-3.1,95.3-27.8,186.5-53.1,277.6
			c-38.9,139.5-73,280.3-123.7,416.4c-49.6,133.1-115.6,257.9-190.3,378.2c-91.2,146.8-224.8,237.5-388.3,288.3
			c-118.6,36.8-239.8,52.3-363.3,57.1C1704.6,2362,1584.5,2367.5,1464.2,2366.1z"/>
		<path class="st0" d="M1587.2,2247.3c-99.9,0.4-199-8.9-298.1-21.1c-73.8-9.1-145.3-26.2-216.4-46.4c-26.1-7.4-50.5-19.5-73.1-35
			c-68.2-46.7-89.4-118.7-57.6-194.7c16.7-39.9,40.5-75.7,72.2-104c84-74.8,121-172,141.5-278.6c7-36.6,15.8-72.9,26.4-108.6
			c31.9-107.7,127.9-180.2,239.9-182.6c9-0.2,17.3-1.2,25.2-6.1c76.6-47.1,143.9-105.1,174.2-191.6
			c51.1-145.8,156.6-220.6,302.2-250c201.8-40.8,404.3-47.3,607.5-12.1c54,9.4,104.1,29.7,147.2,65c70,57.4,98.1,131.8,71.7,217.7
			c-53.6,174.3-90.8,353-146,526.7c-36.2,113.8-84.8,221.6-158.6,316.6c-104,133.9-244.7,208.9-405.2,251.5
			C1891.7,2233.4,1740.1,2246.7,1587.2,2247.3z M1533.8,1986.6c-32.5,69.4-64.7,139-102,206.1c-9.6,17.3,8.1,12.9,14.9,13.3
			c191.2,12.2,380.9,2.2,567.7-43.3c57.3-14,113.1-32.6,169.8-60c-20.9-7.3-38.1-13-55.2-19.2c-70-25.6-118.4-72.7-146.4-142.3
			c-92.8-230.7,1.2-504.1,220.6-634c139.1-82.3,286.8-95.3,440.6-47.8c7.7,2.4,18.1,13.3,23.3-5.4c15.6-55.7,34-110.6,48.6-166.6
			c18.7-72-4-131.3-61-178c-33-27-71.3-43.4-112.4-52.9c-96.3-22.2-194.5-25.1-292.8-26.3c-13.1-0.2-16.4,4.9-15.4,16.9
			c1.7,22.7,2.4,45.4,3.7,68.1c2.4,43.4,1.9,86.2-13,128c-21.5,60.1-74.8,78.9-127.7,44c-1.8-1.2-3.8-5.1-7-1.6
			c4.2,14.1,9.1,27.9,12.3,42.1c3.2,14.3,5.7,28.8,6.6,43.4c1.7,30.2-1.5,59.2-30.6,77.2c-9,5.6-5.5,11.7-3.7,18.8
			c7.5,29.6,5.3,58.1-10.2,85c-19.9,34.5-56.1,50.4-93.4,41.1c-34.2-8.5-53.9-36.1-54.2-78c-0.1-16.8,1.9-33.6,3.6-50.4
			c0.7-7,1.4-12.2-6.7-16c-46-21.3-58.2-60.5-55.1-107.2c0.7-10.1,2.2-17.7-12.5-19.3c-49.5-5.5-76-36.7-87.4-82.9
			c-7.5-30.2-9.2-61.1-6.7-95.9c-38.2,32.1-63.5,68.4-79,111c-30,82.7-78.4,151.9-147.5,206.3c-10.5,8.3-21.3,16.2-34.7,26.5
			c52.9,17.3,88.1,49.3,108.2,97.4c12.2,29.3,19.3,59.7,23.9,91.1c5.7,38.9,3.4,78.1,5.2,118.8c17.6-9.4,32.5-18.5,48.3-25.8
			c61.5-28.5,124.2-35.9,186.1-2.9c83.7,44.6,99.4,151.4,32.6,205.4c-7.4,6-6.6,10.2-2.8,18c33.7,69,10.7,159.6-51.2,204.9
			c-26.5,19.4-61.4,25.2-133.9,33.6c-76.6,8.9-73.8-7.7-147.7-1.2c-3.4,0.3-36.2,3.2-39.3-6.1c-0.7-2.1,0.4-4.1,6.6-16.9
			c3.5-7.2,6.3-13,7.9-16.3c43.1-4,86.2-3.4,129.2,1.5c24.1,2.8,48.3,3.3,72.4,2.1c80.5-4,128.9-49.9,134.4-128.1
			c3.6-51.3-15.7-81.8-74.6-82.8c-58.6-0.9-117.1,0.6-175.5,5.5c-8.8,0.7-16.9,2.1-17.8-15.4c-7.2,26.1-13.2,46.4-18.4,67
			C1571.1,1888.3,1549.4,1936.4,1533.8,1986.6z M2620.6,1432.3c9.6-38.3,18-75.4,28.5-111.9c4.2-14.6,1.7-20.2-12.9-25.1
			c-67.8-22.9-137.5-31.4-208.1-24.1c-287.5,29.5-481.1,282.4-436.2,567.4c18.3,116,73.8,199.2,195.1,225.9c10,2.2,20,4.6,29.7,8.1
			c12.9,4.7,23.4,1.9,35-5.2c153.4-93.4,238.7-237.6,299.5-400.2c2.1-5.5,4.6-10.6-3-14.8c-32.2-18-64.6-35-103.4-30.8
			c-44.3,4.8-66.6,37.3-55.3,81.3c3.5,13.4,8.6,26.4,12.9,39.7c4.5,14,8,28.1,7.5,43c-1.8,46.2-32.2,71.1-77.1,61.5
			c-11.3-2.4-13.7,3.6-18.3,10.2c-34,49.3-101.8,48.1-134.5-2c-15.6-23.9-20.8-50.5-17.4-77.8c13.5-106.5,41.1-209.6,79.9-309.5
			c15.5-39.9,48-63.6,89-75.6c31.4-9.2,63.3-11.1,95.7-10C2494.8,1384.5,2558.6,1401.6,2620.6,1432.3z M1392.4,1641.4
			c-1.3-37.9-6.8-86.4-33.1-130c-24.7-40.8-60.2-64.9-108.3-69.5c-18-1.7-28.9,4.9-33.2,23.5c-11.3,49.1-23.6,98-35.3,147.1
			c-15.9,66.4-32.7,132.6-78,186.6c-18.4,21.9-38,42.7-57.2,63.9c-31,34.3-61.5,68.9-76.1,114.2c-16.8,51.9-2.7,97.8,40.5,130.7
			c40.1,30.6,87.4,43.1,135.2,54.6c13,3.1,19.7,2.4,18.6-14.2c-0.9-13.9,4.8-27.2,13-38.9c40.6-58.3,81.3-116.4,121.6-174.9
			C1358.4,1849.8,1392,1756.8,1392.4,1641.4z M2198.2,912.6c0-19.8-0.8-39.6,0.2-59.3c0.9-16.5-5-21-21.6-20.3
			c-51.3,2.3-102.3,7.8-153,14.9c-71.9,10.1-143.1,23.5-209.3,55.6c-7.1,3.5-15.8,5.7-18.1,14.7c-12.1,47.3-14,94.5,8.4,139.3
			c12.2,24.4,39.9,34,66.1,26.9c25.1-6.8,38.4-27.1,37.7-57.3c-0.1-6.6-1.1-13.3-0.1-19.8c1-6.7-5.7-17.6,7.5-19
			c12.1-1.2,24.1-0.7,28.2,14.3c1.5,5.6,2.6,11.4,3.7,17.2c3.4,18.6,11.8,34.5,26.2,47c20.3,17.6,36.4,17.3,56.1-1
			c15-13.9,24-31,29.5-50.6c3.6-13,8.4-26.9,25.4-25.2c17,1.8,18.1,16.7,20.3,29.8c0.3,2.2,0.7,4.4,0.8,6.5
			c0.8,21.8,11.1,36.3,32.9,40.6c23.2,4.5,35.5-4,47.2-29.3C2204.9,997.4,2204.5,955.2,2198.2,912.6z M1352.5,1326.8
			c62.3,18,99.8,60.4,127.2,113c17.6,33.9,31.1,69.8,37,107.6c30.2,191.3-19.6,362.7-131.4,517.9c-31.8,44.1-70.9,81.6-115,116.9
			c33.9,10.5,66.4,12.5,98.6,16.9c13.6,1.9,19.6-3.2,25.3-14.4c14.8-29.4,31.6-57.9,46.3-87.4c76.5-153.7,135.8-312.8,148.6-486
			c4.9-66.2,3.6-132.1-17.9-195.7C1542,1329.2,1440.9,1287.2,1352.5,1326.8z M1252.8,1405.2c36.3,3.2,67.3,15.1,94.3,37
			c47.2,38.2,69.1,90.1,77.1,148.3c18.7,136.1-19.5,257.8-96.7,368.9c-36.3,52.3-73.3,104.1-109.9,156.2
			c-6.8,9.6-13.2,19.5-14.9,31.4c-1.4,9.6,2.1,17.1,9.6,23.1c8.8,7.1,13.7-1.6,18.7-5.4c18.7-14.1,37.6-28.2,54.7-44
			c110.8-102.6,171.6-231.1,196.3-378.6c16.2-97,10.8-191.2-32.7-280.9c-19.2-39.6-44.8-74.1-87.2-92.1
			C1319.6,1351.1,1276.7,1364.9,1252.8,1405.2z M2280.1,1714c2.3-47.7,6.9-95.1,24.6-140c17.4-44.1,47.8-74.9,94.6-86.9
			c53.7-13.7,102.6,1.2,149.9,26.1c14,7.4,29,26.6,40.6,21.1c12.8-6.1,10.1-30.1,16.4-45.4c6.5-15.8,0.2-23-14.2-29.8
			c-67.2-31.3-137.8-44.9-211.5-39.1c-48.4,3.8-90,21-108.6,71.6c-32.7,88.9-55.4,180.4-72,273.4c-4.5,25.3-3.6,51.5,13.4,73.6
			c13.4,17.4,36.1,22.5,55,12.8c17.6-9,25.2-27.5,19.4-48.2C2279.8,1773.9,2279.4,1744,2280.1,1714z M1777,1581.7
			c-46.8-0.6-86.9,18.1-125.1,42.4c-5.5,3.5-12.6,10.7-16.6,9.3c-12-4.1-11.8,2.7-12.4,10.2c-2.3,30-6.6,59.7-13.3,89
			c-3.3,14.2,1.2,18.1,15.1,16.6c53.3-5.7,106.8-6,160.3-5.5c16,0.2,33.4-1.2,47.8,4.4c26.1,10.1,40.3-3,53.1-20.9
			c17.3-24.1,18.4-50.7,6.4-77.2C1870,1600.5,1828.3,1582.7,1777,1581.7z M2316.7,1726.9c2,21.9-2.4,45.7,9.3,67.7
			c6.4,12,14.7,21.2,28.7,18.8c14-2.3,16.6-15.2,18.4-27c1.6-10.3-1.7-20.3-4.8-30.1c-4.3-13.9-9.7-27.5-13.5-41.5
			c-18.2-68,15.9-120,85.6-129.6c39.2-5.4,74.7,7.4,108.9,25.6c5.3,2.8,14.6,14,19,2c4.6-12.7,20.2-28.4,3.9-40.9
			c-30.2-23.3-63.5-42-101.4-50.2c-66.6-14.3-115.5,13.8-136.4,78.4C2321.2,1641,2317.5,1683.2,2316.7,1726.9z M1952.6,1302.2
			c-0.6,35.9,8.8,51.7,30.1,55.8c25.3,4.8,49.4-12.2,56.7-40.1c8.3-31.6-1.1-54.4-25.9-63.8c-6.1-2.3-11.9-5.5-17.5-8.8
			c-15.6-8.9-34.5-1.6-38,15.9C1954.9,1276.2,1953.9,1291.6,1952.6,1302.2z M1974.2,1147.9c-0.4-33.9-0.8-33.5-31.4-60.5
			c-8.1-7.1-11.5-5.7-16.7,1.8c-2.8,4.2-6.6,7.8-10.4,11.2c-27.9,24.9-29.4,79-2.6,105.2c20.2,19.8,48.5,12.7,57-14.2
			C1974.6,1177.2,1974.4,1162.6,1974.2,1147.9z M2054.4,1101c-46.2,2.3-47.6,32.1-44.4,65.5c0.9,9.9,0.8,20.4-3.3,30.3
			c-1.7,4.2-1.8,8.4,2.1,12c12.1,11.3,26.3,16,42.3,11.7c14.8-4,19.9-15.4,20.5-30C2073,1158.5,2067.7,1128.1,2054.4,1101z"/>
		<path class="st0" d="M968.7,912.9c52.7,0.5,92.4-2.1,130.9,9.7c38.8,11.9,69.9,34,86.5,72.1c27.8,64-17.8,137-90.9,142.9
			c-86.5,7-166.9,29.7-237.8,81.2c-42.4,30.8-79.3,67.3-109.1,110.5c-9.2,13.3-17,27.4-21.4,43.1c-7.1,25.3-0.2,44.2,20.7,59.7
			c16.4,12.1,35.6,16.5,54.6,22.1c66.7,19.7,91,70.5,63,134.8c-32.1,73.9-94.9,106.2-169.7,120.4c-34.9,6.6-69.9,5.5-104.8-1.2
			c-94.5-18.3-141.8-81.3-160.8-170.4c-61.7-290,127.6-566.5,420.8-615.7C894.3,914.8,937.9,912.2,968.7,912.9z M455.2,1433.9
			c0.5,50.2,6.8,99.3,26.6,145.9c2.1,5,1.8,15.1,12.3,10.6c49.3-21,98.1-42.9,132-87.3c10.2-13.4,21.5-25.9,31.8-39.2
			c10.3-13.2,31.4-16,37.6-27.9c6.1-11.8-10-28.9-7.6-45.5c0.5-3.6,0.1-7.4,1-10.9c4-15.8-3.2-18.2-17.3-17
			c-54,4.7-108,8.8-162.1,12.6C454.8,1379,454.8,1378.7,455.2,1433.9z M819.1,1200.7c2-1.3,4.6-2.7,6.9-4.5
			c25.1-19.1,52.2-35.1,80.4-49.1c6.6-3.3,8.2-5.5,4.3-13c-27.4-52.5-54.1-105.3-80.7-158.1c-3.9-7.7-7.5-10.9-16.8-8.4
			c-52.7,14.1-101.9,35.8-147.5,66c-9.7,6.4-8.8,10.5-0.6,17.6c50.1,44,97.1,91.1,141.4,141C809.8,1195.8,812.4,1200.9,819.1,1200.7
			z M474.3,1295c60.3,5.4,118.8,2.5,177.3,3.2c21.2,0.3,42.5-0.2,63.7,0.1c9.6,0.1,14.9-5.7,18.6-13c4.5-8.9-4.8-11.2-9.2-14.8
			c-6.8-5.6-12.5-12.1-18.6-18.5c-40.5-42.3-81.2-84.3-122.2-126.1c-4.9-5.1-10.2-13-18.9-2.3C523.3,1174.6,492.2,1230.7,474.3,1295
			z M593.7,1095c-2,1.8-4.8,3.3-4.7,4.6c0.2,2.6,1.4,5.5,3.2,7.4c49,50.3,98,100.4,147.2,150.5c3.8,3.8,8.4,10.9,14.4,5.4
			c7.4-6.8-1.1-11.7-4.9-16c-45.3-50.9-93.4-98.9-144.9-143.5C600.9,1100.4,597.4,1097.9,593.7,1095z M638.8,1054.3
			c-2,1.6-4.3,2.5-5.3,4.2c-2.5,4.4,1.7,6.4,4,8.8c48,49.2,95.9,98.4,144.1,147.3c3.8,3.8,8.7,10.2,14.8,4.6c7-6.4-1.2-10.3-4.5-14
			c-45-51.2-93.3-99-144.4-144C644.8,1058.8,641.8,1056.7,638.8,1054.3z M611.7,1077.2c45,46.5,92.2,90.6,137.6,136.5
			C705.1,1166.4,662.9,1117.1,611.7,1077.2z"/>
		<path class="st0" d="M399.3,884.7C371.6,902,345,920,321.3,941.8c-75.2,69.1-123.5,155.5-159.4,249.5
			c-36.2,94.9-63.5,191.9-63.9,294.6c-0.5,123.2,31,235.7,119.6,325.3c114.6,115.9,294.5,131.1,443.9,41
			c48.9-29.5,90.2-67.5,126.1-111.3c4.6,2.2,2.9,4.9,1.4,7.1c-113.5,169.7-320.1,234.3-488.8,159.7
			c-121.6-53.8-190.5-153.1-221.6-278.9c-35.8-144.6-8.2-283.8,45.5-419.2c35.9-90.5,81.2-175.6,151.9-244.7
			c32.7-31.9,68.7-59.4,110.1-79.4C389.8,883.7,393.4,880.4,399.3,884.7z"/>
		<path class="st0" d="M1246.9,891.9c-51.3-0.6-87.5-36.2-87.3-86.1c0.1-50.4,38.6-87.3,90.3-86.6c47.2,0.7,85.7,41,84.5,88.5
			C1333.1,856.5,1295.8,892.4,1246.9,891.9z"/>
		<path class="st0" d="M1050.2,765.2c-0.6,37.8-33.5,69.6-71,68.8c-37.8-0.8-69.2-33.8-68-71.5c1.2-37.5,32.5-67.8,69.7-67.5
			C1018.8,695.2,1050.8,727.7,1050.2,765.2z"/>
		<path class="st0" d="M787.7,832.2c-32.9,0.5-60.6-26.3-61.3-59.3c-0.7-32.6,26.3-60.9,58.9-61.9c33.4-1,62.3,27,62.5,60.5
			C848,803.9,820.4,831.7,787.7,832.2z"/>
		<path class="st0" d="M538.4,887.4c-24.1-0.2-43-19.4-42.7-43.3c0.3-24.1,19.1-43.2,43-43.5c24.1-0.3,45,20.8,44.2,44.8
			C582.1,869,562.3,887.7,538.4,887.4z"/>
		<path class="st0" d="M659,766.7c24.2-0.2,43.2,18.2,43.6,42.3c0.4,24.3-17.8,43.3-42,44c-24.3,0.6-45.9-19.9-45.7-43.4
			C615.1,786.7,635.5,766.9,659,766.7z"/>
	</g>
</g>
</svg>
