<?xml version="1.0" encoding="utf-8"?>
<!-- Generator: Adobe Illustrator 23.0.0, SVG Export Plug-In . SVG Version: 6.00 Build 0)  -->
<svg version="1.0" xmlns="http://www.w3.org/2000/svg" xmlns:xlink="http://www.w3.org/1999/xlink" x="0px" y="0px"
	 viewBox="0 0 3000 3000" style="enable-background:new 0 0 3000 3000;" xml:space="preserve">
<style type="text/css">
	.st0{stroke:#000000;stroke-width:10;stroke-miterlimit:10;}
</style>
<g id="Layer_1">
</g>
<g id="Layer_2">
	<g>
		<path class="st0" d="M2254.1,1199c-4.7,177.1-19,371.7-35.2,566.2c-13.5,161.1-22.5,322.5-41.4,483.1
			c-11.1,94.2-26.4,187.5-50.7,279.5c-52.8,199.8-179.4,330.5-372.8,396.2c-190.2,64.5-379.5,59.6-564.5-21.4
			c-182.2-79.7-282.5-226.6-331.3-413.4c-40.9-156.4-52.1-316.6-56.6-477.4c-9.1-322.3-24.1-644.5-8.4-967
			c9.5-194.3,29.1-387.1,96.9-571.4c35.3-96,84.1-184.3,157.6-257.1C1155,110.1,1287,60.4,1435.5,55.9
			c205.7-6.2,391.7,53.4,551.4,184.9c137.5,113.3,203.4,267.1,236,437.6C2254.7,844.5,2257.9,1012.6,2254.1,1199z M844.1,1522.2
			c-1.5,199.6,8,389.2,14.9,578.8c4.6,124.9,19.7,249.1,50.3,370.9c48.8,193.9,157.5,335.7,351.6,401.8
			c148.2,50.5,297.9,53.5,448.1,8.2c191.3-57.7,317.6-178.2,367.6-375.3c33.6-132.2,49.8-266.7,61.2-401.9
			c17.6-207.2,33.6-414.6,47.9-622c16.1-234.6,27.2-469.3-1.5-703.9c-9.9-80.4-26.1-159.3-53.8-235.7
			C2052.1,326.3,1891.1,201.5,1676,139c-121-35.2-244-41.9-367.2-10.4c-183.3,46.9-292.9,172.6-359.7,342
			c-62.7,159.1-85.7,326.5-97.5,495.7C838.5,1154.7,836.8,1343.3,844.1,1522.2z"/>
		<path class="st0" d="M1835.1,1793.9c-2,50.8-20.1,106.1-68.2,147.4c-91.5,78.7-187.6,151.5-290.2,215.4
			c-57.6,35.8-119.7,37.5-183.2,19.7c-51.9-14.5-85-57.6-87-111.6c-2.7-75.2,32.5-132.4,87.5-179.2c68.9-58.6,139.9-114.6,212-169.4
			c60.9-46.3,128.9-67.8,204.9-64.5C1789.9,1655.3,1835.8,1704.1,1835.1,1793.9z M1367,2132.4c30.4,2.3,57.6-6.9,82.8-22.6
			c95.4-59,183-128.7,270.5-198.5c37-29.5,54.5-68.3,60.7-113.6c7.8-57.3-21-92.5-79-92.8c-58.5-0.3-112.6,15.1-159.6,51.9
			c-36.5,28.5-74.8,54.8-109.9,84.9c-50.5,43.4-109.1,78.4-147.2,134.6c-23.6,34.9-36.7,75.6-17,116
			C1287.9,2132.3,1329.4,2130.9,1367,2132.4z"/>
		<path class="st0" d="M1303,1499.2c-15-1.4-30.2-1.9-45-4.5c-80.5-14.4-120-67.7-110.6-149.3c5.1-44.1,21.1-83.9,53.4-114.9
			c90.3-86.7,186.8-166.2,293.1-232.3c54.4-33.8,117.5-41.4,181-31.2c64.9,10.4,103.9,63.9,99.8,133.7
			c-3.9,65.3-27.9,121-79.7,163.2c-85.2,69.4-172.1,136.5-264.5,196.1C1391.7,1485,1350.6,1502.3,1303,1499.2z M1619.3,1018.1
			c-33.8,1.4-80.9,10.2-121.7,39.7c-85.5,61.9-168.5,127-246.8,197.9c-33.8,30.6-50.1,69-51.1,114.4c-0.7,33.5,14.7,56.5,46,66
			c47.9,14.6,95.3,14.6,140.1-12.7c100.4-61.3,192.4-134,282.8-208.7c33.3-27.5,48-65.6,50.6-108
			C1723.2,1042.9,1699.3,1018.2,1619.3,1018.1z"/>
	</g>
</g>
</svg>
