<?xml version="1.0" encoding="utf-8"?>
<!-- Generator: Adobe Illustrator 23.0.0, SVG Export Plug-In . SVG Version: 6.00 Build 0)  -->
<svg version="1.0" xmlns="http://www.w3.org/2000/svg" xmlns:xlink="http://www.w3.org/1999/xlink" x="0px" y="0px"
	 viewBox="0 0 3000 3000" style="enable-background:new 0 0 3000 3000;" xml:space="preserve">
<style type="text/css">
	.st0{stroke:#000000;stroke-width:10;stroke-miterlimit:10;}
</style>
<g id="Layer_1">
</g>
<g id="Layer_2">
	<g>
		<path class="st0" d="M2406.4,2506.5c-32.2,75.9-70.5,104.1-136.5,103c-59.5-1-93.6-33.1-127.2-121.2
			c-51.4,78.3-123.8,126.2-212.6,147.3c-129.9,30.9-252.1,17.5-346.1-87.3c-29.3-32.6-51.3-37.2-91-26.7
			c-126.3,33.3-255.1,54.8-385.5,65.2c-103.6,8.3-206.8,3-306.9-24.8c-141.6-39.3-286.3-49.2-431.9-53.5
			c-39.9-1.2-79.8-3.4-119.2-10.1c-99.4-16.9-149.2-86-134.3-186.1c3.4-23.1,8.4-45.8,16.3-67.8c3.3-9.3,4.6-17.7-4.5-24.5
			c-42.4-31.4-46.9-76-41.5-123.1c3.9-34.1,15-66.5,30.8-96.9c6.7-13,8.1-19.7-7.5-28.3c-43.3-24-59.4-69.7-48.6-128.1
			c6.1-32.9,17.4-64,32.6-93.9c4.5-8.8,8.3-16.7,3.2-27.9c-31.8-70.7-18.4-138.1,18.7-202.4c7.4-12.8,9.4-22.6,3.7-36.6
			c-60.8-151.9-87.9-309.4-81.3-473.1c2.9-71.6,3.5-143.1,24.3-212.3c43.1-143.1,138.4-241.9,274.7-293.8
			c230.3-87.7,466.8-109.2,706.1-34.9c90.6,28.1,172.3,74.7,245.2,135.4c17,14.2,21.4,10.6,30-7.3c75.4-157,262.9-212.2,406.4-120.6
			c20.7,13.2,38.8,28.9,51.3,50c5.6,9.5,10.5,10.4,19.5,5c147.9-87,311.4-100.7,477.4-98.4c113.9,1.6,227.7,6.3,340.9,22.2
			c132.8,18.7,191.4,103.8,207.2,225.4c4.5,35,3.5,69.7,0.2,104.6c-1.2,12.6,1.2,20.6,13.4,28.2c28.6,18,42,47.1,45.8,79.5
			c10.9,91.5,4.2,182.7-6.8,273.7c-2.2,18.2-7.7,35.6-17.3,51.6c-13.1,21.9-0.9,44.2,1.9,65.4c17.1,130.4,28.6,261.1,27.9,392.7
			c-0.7,115-18.5,225.5-90.1,320.6c-11.8,15.7,2.9,18,10.5,23.3c81.1,55.3,136.2,129.3,156.3,226c22.2,106.9,13.4,209.8-61.3,296.1
			c-121.5,140.4-348.9,136.9-469.2-5.1C2423.2,2527.6,2415.6,2517.8,2406.4,2506.5z M1749,725.9c12.6-5.9,20.8-9.8,29.1-13.5
			c114.1-51.4,232.1-79.6,358.4-66.6c165.4,17.1,280.5,129.5,299.2,294.1c12,105.7,6.3,211.1-7.1,316
			c-11.4,89-37.8,174.1-90.1,248.3c-90.4,128.3-219.5,175.2-371.1,167.7c-140.5-6.9-264.4-60.3-376.8-142.9
			c-6.9-5.1-12.2-13.9-24.5-12.3c-5,32.8-11.4,65.5-14.6,98.5c-10.4,105-17.6,210.2-34.3,314.6c-14.7,92.2,10.4,136,95.2,177.2
			c21.6,10.5,44.4,18.7,67.1,26.6c93.2,32.2,189.9,40.6,287.5,38.6c163-3.3,325.8-13.6,488.5-24.3c41.3-2.7,83.8-4.5,122.1-22
			c113.5-51.9,192.2-138.1,236.2-254c31.5-83,31.1-171.2,28.8-258.7c-2.8-109-12.9-217.4-27.3-325.5c-3.5-26.1-5.9-41.4-40-47
			c-74.1-12.3-112.7-67.8-136-135.1c-39.5-114.6,10.8-247.9,128.7-303.8c10-4.8,10.5-12,10.9-20c1.6-31.6,4.3-63.3-0.3-94.7
			c-17.2-118-64.1-177.8-182.3-192.2c-154.8-18.8-310.1-25.2-465.7-16.4c-102.9,5.8-202.2,27.6-294.3,76.9
			c-26.4,14.2-47.4,27.7-50.5,62.7C1782.8,654.2,1760.9,686,1749,725.9z M117.1,1803.5c8.3,1,16.5,1.8,24.6,2.9
			c56.3,7.4,113.1-0.8,169.5,6.4c30.5,3.9,55,17.4,75.3,39.9c19.9,22.1,33.6,48.2,40.2,76.5c5,21.1,14.8,24.9,34.5,23.9
			c106.3-5.5,212.7-9.3,319.1-14.4c16.2-0.8,21.9,4,22.6,20.5c0.7,16.6-5.1,20.5-20.9,21.1c-101.4,4.1-202.7,11.3-304.1,13.4
			c-80.6,1.6-161.3,7.2-242,2.8c-80.2-4.4-79.7-4.7-102.4,72.5c-5.4,18.4-1.3,22.4,17.3,21.5c60.7-3,121.5-0.2,181.8,7.4
			c72,9.2,100.1,39.2,106.4,111.2c1.3,14.6,5.6,20,20.7,19.9c54.9-0.5,109.8,0.7,164.7-2.6c9.5-0.6,24.7-9,23.5,12.9
			c-0.8,14.6,4.5,29.1-20.6,29.4c-134,1.8-267.8,3.7-401-15.1c-59-8.3-59.1-8.3-67.9,52.7c-0.4,2.5-0.3,5-0.9,7.4
			c-2.9,12.3,0.6,17,13.9,13.7c49.8-12.1,100.2-12.4,151.2-8.9c93.7,6.4,160.2,50.1,194.8,138.4c5.1,12.9,11.3,17.6,24.8,18.5
			c92.3,6.3,182.4,24.5,272,47.2c89.2,22.6,180.2,30.8,272.2,24.1c138-10.1,273.7-34,407.9-67.3c35.2-8.7,34.8-8.3,22.1-41.8
			c-4.3-11.5-8.5-16.6-21.4-10.9c-10.5,4.6-22.2,6.9-33.5,9.7c-70.9,18.1-142.6,25.1-215,10.7c-134.7-26.8-220-127.2-234.3-277.1
			c-10.4-108.7-11.7-217.9-4.2-326.5c9.6-139.2,76.2-242.6,208.7-296.5c94-38.2,192.3-43.3,291.8-29.6c12.2,1.7,16,1.3,18-11
			c8.6-53.3,22-105.6,34.7-158c30.4-125.2,49.1-252.6,72-379.3c3.5-19.2,1.2-25.2-18.5-30.1c-100.5-25-148.9-93.3-139-196.7
			c9.1-95.5,57.5-172,122-239.9c5.9-6.2,15-10.3,16.2-20.4c-81.7-22.7-183.5,13.6-230.6,81.8c-21.9,31.7-37.4,66.7-50.9,102.4
			c-74.5,197-170.8,382.3-299.4,549.6c-155.2,201.8-358.8,294.5-614.6,266.5c-47.9-5.2-96.1-9.1-144.4-7.1
			c-67.3,2.7-115.7,32.5-139.9,96.9c-4.9,12.9-15.9,29.5-8.1,39.5c7.5,9.6,24.2-2.2,36.8-4.6c71.7-14.1,143.4-21.6,214.3,2.6
			c47.1,16.1,81.9,45.5,85.3,99.1c1.2,18.2,6.6,21.7,23.8,19.7c58.6-6.7,117.5-11.5,176.2-17.8c13.7-1.5,18.7,1.8,20.7,16.2
			c2.8,20.1-5.3,25.8-23.6,27.3c-137.5,12-274.9,24.9-412.9,29.8c-35,1.2-69.9-1.1-102.8-14.9c-8.8-3.7-13.7-3.6-17.2,5.8
			C123.2,1783.9,116.8,1792.1,117.1,1803.5z M694.7,778.6c2.1,0.2,4.2,0.4,6.2,0.6c15.7,64.3,32.7,128.4,46.5,193.1
			c5.5,26,15.8,36.1,43.3,37.7c90.1,5.2,172.1,35.6,244.6,89.6c16.8,12.5,24.3,11.9,35.5-6.3c81.7-132.5,158-267.6,211.6-414.5
			c5.2-14.3,4.1-21.9-7.4-31.6c-70.7-59.5-148.8-106.5-236.5-135.8c-216.3-72.4-432-54.3-644.2,14.3
			c-191.5,62-299.5,195.1-312.8,400c-11.6,178.7,1.8,353.9,67.3,522.6c5.8,14.9,10.2,23,26.8,10.8c14.9-10.9,33.2-14.9,51.1-19
			c40.2-9.4,81.1-7,121.6-4.6c19.2,1.1,22.4-3.1,20.9-22.6c-12.1-153.8,43.6-277.1,181.9-348.3c57.4-29.5,85.3-65.1,97.5-124.7
			C659.8,885.2,679,832.3,694.7,778.6z M1469.6,1953.8c1.3-2.9,1.8-3.6,2-4.4c24.5-125.1,26.9-252.8,43.8-378.8
			c1.6-12.2-5.7-13.3-14.5-14.1c-70.6-6.7-141.2-7.1-210.3,10c-128.7,31.8-217.8,107.2-235.2,243c-17.2,133.8-16.9,269.2,7.4,402.7
			c18,98.5,77.2,164.4,175.5,190.3c85.9,22.6,169.9,7.9,252.8-17.8c8.5-2.6,10.1-5.8,9-13.7c-12.2-85.2,3.2-165.4,44.9-240.6
			c4.8-8.7,2.1-13-4.8-18.4c-31.4-24.5-53.7-55.7-65.8-94.8c-37.1,70.3-79.6,95-137.7,80.7c-46.8-11.5-80.7-54.3-82.2-103.9
			c-1.5-49.7,31.9-97.2,79.5-108.1C1379.8,1875.5,1431.8,1880.9,1469.6,1953.8z M1886.1,1308.1c0-20-0.5-39.9,0.1-59.9
			c1.7-62.5,20.5-117.7,70.8-158.5c31.5-25.6,67.5-42.5,106.3-53.1c62.1-17.1,125.5-24.5,189.9-21.3c7,0.3,18.8,4.7,16.1-10.3
			c-10.3-56-28.4-108-76-144.2c-41.4-31.5-89.6-43.6-140.4-44.1c-117.5-1-220.2,42.9-316.2,106.6c-8.9,5.9-11.3,13.4-12.7,22.6
			c-18.1,123.3-35,246.7-40.7,371.6c-3.9,86.6,32,144.8,107.6,182.1c27.8,13.7,57.1,22.4,87,29.8c17.9,4.4,25.8,1.2,22.5-20
			C1890.1,1442.7,1886.1,1375.5,1886.1,1308.1z M1737.2,868.9c4.3,0,5.3,0.3,5.9,0c5.1-2.8,10.2-5.6,15.2-8.5
			c97-55.5,199.5-90.5,313.2-84.6c110.9,5.8,195,65.8,225.1,169.4c31.9,109.8,31.7,222.2,6.3,333.2
			c-43.1,188.5-159.6,291.6-339.6,297.9c-113.5,4-215.6-27.5-289.3-121.6c-6-7.7-12-10.2-21.1-8.8c-18.1,2.7-36.3,4.4-54.3,7.5
			c-6.8,1.2-17.1-2-19.7,6.8c-2.6,8.9,7.6,11.8,13,16.2c100.8,82.2,214.6,137.3,344.5,151.4c203.9,22.1,367.3-63.4,428.8-279.2
			c37-129.7,40.8-262.2,30-395.7c-11.5-141.7-101.5-239.6-241.3-262c-137.1-21.9-263.8,12.2-385.6,72.4c-8.3,4.1-12.4,10-14,18.9
			C1748.9,810.7,1743.1,839.1,1737.2,868.9z M2590.6,2305.3c-7.3-0.6-11.9-0.6-16.5-1.5c-57.9-11.2-105-36.5-125.9-96.3
			c-1.9-5.5-0.2-15.3-9.4-15.4c-7.8-0.1-9.9,8-12.7,13.8c-26.2,53.8-36.8,110.4-25.7,169.6c19.4,104.1,78,177.8,178.4,212.3
			c98.5,33.8,190.8,17.9,270.1-52.3c68.9-61,86.3-142,80-229.1c-8-111.1-61.5-196.4-154.7-257c-6.1-4-11.2-8.7-19.8-2.4
			c-24.5,17.8-30.6,33.4-25.3,64.3c3.2,18.8,4.7,38,5.6,57c2.2,44.9-14.2,80.5-51.7,107c-19.8,14-40.2,26.1-66.4,31.9
			c55.5,27.4,76.5,63.1,65.2,106.8c-11,42.5-46.1,67.5-91.1,64.9c-37.8-2.2-70.4-32.3-76.3-70.5
			C2506.8,2360.2,2530.3,2327.5,2590.6,2305.3z M494.8,1444.8c48.4,1,96.5-2.7,143.8-12.6c167.9-35,286.5-140.2,385.7-272.8
			c8.6-11.4,2.6-15.6-5.3-21.2c-124-87.5-257.5-116.8-402.7-61.4c-139.2,53.1-218.5,177.7-207.5,321.2c3.2,41.3,3.2,41.4,43.7,44.5
			C466.6,1443.7,480.7,1444.1,494.8,1444.8z M2061.6,2209c0,0.7,0,1.5,0,2.2c-3.3,0.2-6.6,0.5-10,0.7c-22.4,1-50.7-6.1-65.7,4.9
			c-18.4,13.5-2.3,43.4-5.2,65.9c-1.4,10.7-2.6,21.5-4.9,32c-10.7,50.1-43.1,77.3-94.7,78.8c-21.6,0.7-43,0.1-64.6-3.3
			c-36.1-5.6-60.5-24.7-75.9-57.3c-19.3-40.6-28.4-83.2-27.5-127.9c0.2-10.9,0.2-18.4-13.4-21.9c-34.6-8.8-68.5-20.4-100.6-36.3
			c-9.8-4.9-14.7-2.6-19.7,6.5c-63.6,115.7-57.5,267.4,32.3,365.9c72.7,79.8,165.9,99.9,268.5,84.2
			c193-29.5,299.5-175.8,264.4-373.4c-2.7-15.1-8.3-23.1-25.7-21.5C2100,2210.4,2080.7,2209,2061.6,2209z M1516.5,740.6
			c-0.1,98.1,38.7,144.9,112.2,159.6c12.3,2.5,19.7,1.7,23.2-13.3c19.9-86.7,53.7-168.8,85.9-251.4c25-64.1,10.7-101.1-50.3-132.6
			c-13.6-7-23.5-7.2-35.2,4c-19.1,18.5-38.1,37.1-54.5,58.1C1552.1,623.6,1518.2,687.2,1516.5,740.6z M2840.1,1008.3
			c0-31.6,0.4-63.2-0.2-94.8c-0.3-16.8-4.5-33.1-12.9-47.7c-15.7-27.2-39-32.2-65-14.9c-102.1,67.9-124.5,212.2-47.8,307.4
			c16.1,20,36.4,33.9,61,41.3c34.6,10.3,47.4,2.7,54.6-32.2C2840.6,1114.9,2839.4,1061.5,2840.1,1008.3z M1926.5,1333
			c3.8,50.5,5.7,101.3,12.1,151.6c7.2,57.5,10.6,57.9,68.5,46.8c14.1-2.7,16.5-7.2,14.8-21.1c-10.3-84.9-21.3-169.9-20.8-255.6
			c0.4-71,27.3-103.3,96-119c50.3-11.5,101.2-19.9,152.8-21.4c23.5-0.7,28-9.8,26.9-31.5c-1.1-20.7-5.5-31-28.4-27.5
			c-13,2-26.6-0.2-39.8,0.7c-73.3,5-145.5,14.7-209.9,54.6c-40.2,24.9-61.4,61.6-67.8,107.9
			C1925.6,1256.5,1926.1,1294.6,1926.5,1333z M267.8,1741.2c44.7-2.5,89.4-5.6,134.2-7.1c18.6-0.6,23-9.3,19.8-25.3
			c-3.4-16.7-10.1-31-24.4-41.9c-20.5-15.6-43.9-22.8-68.6-27.1c-65.4-11.6-128.7,1.1-191.8,16.1c-13.7,3.2-16.2,10.7-13.5,23.4
			c7.7,35.1,29.6,55.4,67.1,60C216.3,1742.4,242.1,1742.4,267.8,1741.2z M98.6,1875.3c-0.2,41.6,17.8,63.5,63.8,72.1
			c71.3,13.3,143.4,7.3,215.3,6.9c9.1-0.1,10.9-3.7,9.7-12.2c-7.3-49.7-47.5-86.7-98.2-88.8c-53.1-2.2-106.3-3-159.3-5.7
			C100.4,1846,98.7,1846.4,98.6,1875.3z M478.3,2471.5c-21.7-52.4-53.8-88.5-104.6-101.6c-66.9-17.2-134.7-15.5-202.1-0.4
			c-11.4,2.5-14.5,7.2-10.3,19.1c13.1,38,41.7,56.9,78.5,64.9C317.3,2470.5,396.4,2466.1,478.3,2471.5z M2276.9,2568.5
			c48.6-0.2,88.8-40.9,88-89.3c-0.8-48.2-39.4-86.4-87.8-86.7c-49.5-0.4-89,38.5-89,87.8C2188.1,2529.5,2227.6,2568.7,2276.9,2568.5
			z M229.4,2132.7c-37.2,0-63,0.4-88.7-0.1c-12.7-0.2-15.6,4.8-13,16.6c5.6,24.9,20.2,41.4,44.5,48.9
			c69.7,21.5,141.9,23.7,213.9,27.4c10.9,0.6,11.6-5.5,11.9-13.9c1.6-39.2-22.3-66.5-63.6-71.9
			C295.8,2134.5,256.8,2133.6,229.4,2132.7z M2692.9,2161.3c-0.7-7.1-2.3-17.8-2.8-28.6c-0.7-18.3-5.8-21.8-21.6-9.8
			c-49.4,37.5-105.4,58-167.3,61.8c-16.1,1-14.8,9.7-9.5,19.9c20.6,39.3,56.4,55.1,97.7,58.8
			C2650.4,2268.9,2694.4,2226.1,2692.9,2161.3z M1364.3,1924.1c-39.2,0-67.5,28.3-67.5,67.4c0,38.9,28.7,67.7,67.5,67.7
			c38.9,0,67.3-28.5,67.3-67.7C1431.6,1952.1,1403.6,1924,1364.3,1924.1z M2275.7,1180.8c0.8-24.4-5.8-32.4-21.4-25.1
			c-11.9,5.6-7.5,17.3-8.4,26.4c-7.7,79.8-26,155.7-79.2,219c-24.5,29.1-53,53.7-89.1,66c-25.2,8.6-18.2,26.2-12.7,39.7
			c7.4,18,19.4,1.4,27.5-2.2c39.3-17.6,72.2-43.5,98.8-77.8C2247.6,1354.3,2267.6,1269.7,2275.7,1180.8z M1934.1,2239.8
			c-5.9,17-11.9,30.2-26.6,37c-57.4,26.3-119.5-4-133.5-65.6c-1.7-7.4-3.6-13.1-12.2-12.1c-8.6,1-6.4,8.5-6.5,13.7
			c-0.9,39.9,9,77.3,28.4,112.1c6.3,11.2,16.2,19.7,29,22c105.7,19,132-3.4,123.9-100.5C1936.4,2245.6,1935.9,2244.9,1934.1,2239.8z
			 M2204.9,1176.6c-1-3.5,3.6-11.5-2.4-14.1c-11.2-5-22.6,0.9-33.9,2.6c-12,1.9-7.8,11.1-7.7,17.5c0.5,35.2-3,69.8-14.5,103.1
			c-12.5,36.3-33.6,67.1-73.6,73.7c-23.5,3.9-26.8,13-22.5,32.4c1.8,8,1.9,16.5,2.5,24.8c1,12.9,6.3,14.9,17.7,9.1
			c28-14.2,51.2-33.9,70.3-58.6C2183.8,1311.6,2197.5,1246.2,2204.9,1176.6z M2357.6,2376.2c-7.7-65.6,2.1-123.7,26.6-181.7
			c-27.3,1.7-51.3,3.5-75.2,4.5c-10.3,0.4-12.2,6-12.2,14.5c0.1,41.5,0.1,83,0,124.5c0,7.9,0.7,14.6,10.8,16.4
			C2324,2357.3,2338.1,2366.3,2357.6,2376.2z M2184.2,2386.7c21.6-16.6,39.8-28.2,61.1-32.3c10.7-2.1,10.1-8.8,10.1-16.3
			c0-39.8,0.1-79.5-0.1-119.3c0-6.9,2-17.2-9.8-15.3c-20.6,3.2-42.5-5.6-61.8,7.1c-0.9,0.6,0.4,4.6,0.8,7
			C2194.9,2271.8,2195.4,2326.1,2184.2,2386.7z M2041.9,1269.4c0.5,6.6,1.4,17.3,2.3,28.1c2,24.4,13.8,29.9,34.4,15.2
			c6.6-4.7,13.1-10.8,17.2-17.7c19.6-33.4,23.1-70.4,22.8-108.1c-0.1-12.5-7.3-12-16.9-9.9
			C2055.8,1187.4,2042.3,1207.1,2041.9,1269.4z M1675.7,986.9c-1-0.2-1.9-0.3-2.9-0.5c-2.2,11.3-4.7,22.5-6.5,33.8
			c-18.6,117.1-39.7,233.8-66.8,349.3c-3,12.7-14,30.3-6.1,37.2c11.4,10,29.8,0.5,45.3-1.2c9.7-1.1,9.5-5.7,8.5-13.3
			c-12.6-98.3,2.5-195.5,13.1-292.8C1664.4,1061.8,1670.5,1024.4,1675.7,986.9z M2642.6,2393.6c-0.1-24.2-20.8-44.4-45-43.8
			c-24,0.6-42.1,19.1-42.5,43.2c-0.4,25.3,18.3,44.9,43,45.2C2622.2,2438.4,2642.7,2417.8,2642.6,2393.6z M1842.4,2208.9
			c-7.3,4.6-22.8-10.1-25.3,7c-2.3,15,11.8,20.9,24.6,22.6c13,1.7,26.4,1,39.7,1.1c9.4,0.1,10-6.8,10.1-13.8
			c0.2-7.3-1.1-12.9-10.4-13.4C1868.6,2211.8,1856.2,2210.2,1842.4,2208.9z M695.6,933.7c-12.1,24.7-15.9,49.2-23.3,72.4
			c-1.9,5.9,0,8.5,7.1,8.9c26.8,1.5,34.3-6.9,28.1-32.8C703.9,966.9,700.1,951.8,695.6,933.7z"/>
		<path class="st0" d="M288.3,937.5c0.4-60.7,51.2-111.1,111.8-110.8c60.7,0.3,111.1,51.2,110.7,111.8
			c-0.4,61-51.1,111.2-111.7,110.8C338.3,1048.8,287.9,998,288.3,937.5z M331.5,938.8c0.4,39.9,29.7,68.7,69.5,68
			c39.2-0.6,67.5-30.6,66.9-70.8c-0.6-38.5-29.1-66.2-68.5-66.2C359.2,869.7,331.1,898.2,331.5,938.8z"/>
		<path class="st0" d="M1009,986c-62.9,0.8-111.4-46.1-112-108.2c-0.6-62.3,47.3-111.3,109.2-111.8c62.9-0.5,111.2,46.6,111.9,108.8
			C1118.7,937.7,1072.1,985.2,1009,986z M1006.8,945.6c38.5,0.4,70-30.7,70.1-69.2c0.1-38.2-31.7-70-69.8-69.7
			c-36.8,0.2-68.3,31.3-69.1,68.2C937.1,912.8,968.6,945.2,1006.8,945.6z"/>
		<path class="st0" d="M2714.3,2350.8c0-47.4,37.8-85.7,84.8-86c47.8-0.4,86.5,38.9,86,87.4c-0.5,47.3-39,85.2-86.1,84.7
			C2751.7,2436.3,2714.3,2398.3,2714.3,2350.8z M2798.9,2307.1c-24.6,0.4-44.5,21-43.6,45.1c0.9,24.4,21.6,43.2,46.4,42.2
			c23.6-1,42.5-20.5,42.4-43.8C2844,2326.5,2823.5,2306.7,2798.9,2307.1z"/>
		<path class="st0" d="M684.5,1390.9c-62.6-0.1-111.1-48.1-110.4-109.4c0.7-60.6,52.5-111.7,112.2-110.8
			c60.6,0.9,111.1,52.5,110.3,112.7C795.8,1345.6,748.4,1391,684.5,1390.9z M686.4,1350.7c39.2-0.3,68.8-30.8,67.8-70.1
			c-0.9-38.5-29.7-66.3-68.7-66.3c-40.1,0-69.2,28.8-69,68.5C616.7,1321.9,646.6,1351,686.4,1350.7z"/>
		<path class="st0" d="M1991.3,2539.6c-46.2,0.3-83.4-36.3-84.3-82.7c-0.8-46.7,40.2-88.3,86.7-87.8c45.8,0.5,85.6,40.8,85.5,86.7
			C2079.2,2503.8,2041.9,2539.3,1991.3,2539.6z M1993.4,2412.9c-26-0.1-44.1,17.7-43.9,43.3c0.2,24.9,19.7,43.7,44.7,43.3
			c23.9-0.4,42.2-18.9,42.6-42.8C2037.2,2431,2019.3,2413,1993.4,2412.9z"/>
		<path class="st0" d="M1690.3,2534c-47.8-0.2-84.8-37.6-84.7-85.5c0-47.9,37.1-85.2,84.9-85.3c48.7-0.2,86.5,38,86,86.7
			C1775.8,2497.3,1738,2534.2,1690.3,2534z M1691.3,2404.2c-23.4-0.2-44.7,21.1-44.7,44.6c0,22.5,20,43.2,42.6,44.1
			c23.1,0.9,45.4-20,46.1-43.3C1736,2426.3,1714.8,2404.4,1691.3,2404.2z"/>
	</g>
</g>
</svg>
