<?xml version="1.0" encoding="utf-8"?>
<!-- Generator: Adobe Illustrator 23.0.0, SVG Export Plug-In . SVG Version: 6.00 Build 0)  -->
<svg version="1.0" xmlns="http://www.w3.org/2000/svg" xmlns:xlink="http://www.w3.org/1999/xlink" x="0px" y="0px"
	 viewBox="0 0 3000 3000" style="enable-background:new 0 0 3000 3000;" xml:space="preserve">
<style type="text/css">
	.st0{stroke:#000000;stroke-width:10;stroke-miterlimit:10;}
</style>
<g id="Layer_1">
</g>
<g id="Layer_2">
	<g>
		<path class="st0" d="M1003.9,1396.7c3.1-30.3,5-55.5,8.3-80.6c18.2-140.3,125.6-162.3,216.6-138.9
			c96.8,24.9,145.2,100.6,157.6,191.5c0.6,4.5,0.7,9,1.3,16.8c13.1-9.8,24.1-18,35.1-26.2c158.5-118.3,336.8-179.9,534.3-188
			c67.5-2.8,135.1-4.1,202.6-5.3c1.8,0,3.6-0.9,6.8-1.8c-27.6-35-21.3-74-13.2-111.5c19.9-92.5,55.2-177.7,130.2-240.2
			c62.3-51.9,135.2-65.1,213.1-48.4c53.6,11.5,82.1,50.9,85.9,111.3c1.2,20-0.9,40.2,3.2,60c4.5,21.6,15.5,29.9,37.2,25.4
			c43.2-9,74.8-33.9,95.1-73.1c8.6-16.6,17.4-33.1,28.9-48c50.8-65.8,160.2-67.4,213.3-3.5c9.7,11.7,8,15.7-6.1,21.2
			c-87.6,34.5-155.1,93.2-203.6,173.8c-5.8,9.7-12,19.3-18.2,28.7c-21.1,31.8-49.9,51.3-88.3,56.1c-39.3,5-78.6,7.2-117.9,0.1
			c-45.4-8.3-73.9-34.7-84.2-80.3c-3.5-15.6-6.9-31.4-12.4-46.4c-10.6-28.6-34.6-34.8-59-16.2c-19,14.5-24.8,35.8-28.2,57.9
			c-2,13.2-2.9,26.6-4.8,39.8c-6.3,43.8-19.4,83.5-70,104.7c48.6,11.4,89.2,27.6,128.3,47.7c85.9,43.9,151.4,105.6,172.7,203.7
			c11,50.7,7.4,102.6,5.2,154c-3,68.7-1.6,138.2-23,204.7c-42.8,133.2-120.8,236.2-255.7,287.2c-57.5,21.7-118.8,23.9-179.3,30.1
			c-174.7,17.9-347-1.7-518.9-30.5c-32.3-5.4-64.8-9.1-96.8-16.4c-96.5-21.8-164.5-79.5-210.7-165.1c-3.4-6.4-6.8-12.8-11.5-21.7
			c-12.3,20.9-22,41-36.2,58.2c-79.5,96.4-184.2,149.3-305.7,162.3c-160.1,17.2-321,27.8-481.8,38.1
			c-91.9,5.9-181.5-11.6-266.3-46.8c-85.3-35.4-134.9-98.5-135.2-194.4c-0.4-109.1,2.7-218,16.1-326.3
			c15.4-124.1,84.3-210.8,195-263.5c134.6-64,275.3-103.4,426.5-89c58.5,5.6,116.7,13.5,172.1,35.4
			c63.1,24.9,108.3,67.4,132.2,131.5C996.4,1380.5,999.1,1385.8,1003.9,1396.7z M78.3,1900.5c5.3-4.3,7.9-6.1,10.1-8.3
			c73-73.8,162.9-115.6,263.2-135.9c58.3-11.8,115.1-9.4,160.6,37.1c8.6,8.8,9.9,1.1,13.9-4.1c29.3-38,79.1-49.5,122.3-28.8
			c40.8,19.5,57.9,54.9,65,96.6c6,1.7,9.6-2.1,13.1-4.8c59.1-46.7,126.3-57.8,198.9-46.2c26.8,4.3,48.5,15.5,57.3,43.3
			c7.5,23.6,0.3,37.2-23,44.7c-17.1,5.5-34.1,12.8-51.7,15.5c-65.1,10.2-93.5,50.1-95.3,113c-0.2,6.9-0.1,13.5-10.8,11.9
			c-8.7-1.3-15.5-1.9-14.4-13.8c2-21.4,5.3-42.5,12.6-62.7c10.2-28.6,27.9-49.8,58.1-58.9c28.1-8.5,56.1-17.3,83.8-26.8
			c6.1-2.1,16.6,0.3,17-10.4c0.3-8.5-5.4-14.7-11.5-20.3c-5.7-5.2-12.6-7.7-19.9-8.8c-57.4-8.9-113.4-8.4-164.1,25.8
			c-11.6,7.8-23,16.2-35.2,23.1c-20.6,11.7-36.4,3.7-41-19.5c-2-10.5-3.7-21.2-7.5-31.1c-11.7-30.3-33.4-49.5-66.2-54.2
			c-31.4-4.5-54,10.4-72.4,33.8c-5.1,6.5-6.8,12.6-3.4,21.8c28.5,78.4,29.8,158.1,9.5,238.5c-6.5,25.8-6.9,25.7,20,23.4
			c2-0.2,4-0.4,6-0.6c100.6-7.7,201.2-16.9,301.9-22.5c82.9-4.6,160.7-24.6,233.2-65c49.8-27.8,92.9-63.2,124.5-111.1
			c22.3-33.8,33.1-72.6,46.3-110.4c37.4-107.1,60-217.4,75.1-329.5c1.7-12.9,0.2-17.2-14-12.4c-24.3,8.3-49.7,9.2-75.1,6
			c-41.1-5.1-67-29.4-73.9-70.2c-6.8-40.4,5.8-76.6,26.6-110.5c11.6-18.9,27.4-34.3,44-50.5c-39.8-20.9-80.8-26.5-123.4-19.4
			c-47.2,8-77.6,36-92.4,81.5c-9.2,28.3-11.5,57.5-13.6,86.9c-1.4,20-3.3,40-6,59.8c-1.2,9.1-6.9,16.4-16.7,17.8
			c-9.9,1.4-16.6-4.7-20.7-12.9c-4.5-8.9-8.4-18.2-11.4-27.7c-27.1-88.1-90.6-133.1-177.3-152.3c-83.6-18.5-167.8-26.4-252.9-14.9
			c-110.4,14.9-215.1,48.3-311,105.1c-76.9,45.6-123.7,114-140.1,203c-8.9,48.3-10.6,97-13.4,145.7
			C79.5,1758.8,75.6,1827.6,78.3,1900.5z M2475.6,1890.7c-55.3,0-106,0.1-156.7-0.1c-8.6,0-19.1,3.6-19-12.4
			c0-16,10.5-12.4,19.1-12.4c52.8-0.2,105.7,0,158.5-0.2c6.3,0,12.9,2.8,17.5-7.5c12.9-28.7,25.2-57.4,33.7-87.7
			c4.3-15.3,0.6-19.7-15.4-19.5c-54.8,0.8-109.7,0.3-164.5,0.3c-9,0-17,0.7-17.1-12.8c-0.2-13.7,7.7-12.8,16.8-12.8
			c54.2,0.1,108.3,0.1,162.5,0.1c27.8,0,27.2-0.1,31-27.1c2.3-16.3-0.3-23.9-19.9-23.3c-48.1,1.5-96.3,0.6-144.4,0.4
			c-9.7-0.1-22.3,4.7-22.2-13.8c0-17.9,12.4-12.2,20.9-12.3c40.8-0.4,81.6-0.2,122.4-0.2c47.2,0,46.3,0,48.3-47
			c0.7-16.4-5-18.5-19-18.3c-56.2,0.7-112.4,0.1-168.5,0.4c-10.6,0.1-16.2-2.2-15.9-14.2c0.3-11.7,6.8-12.3,15.8-12.3
			c42.8,0.2,85.6,0.6,128.4-0.1c19.7-0.4,45.9,9.1,57.4-4.4c11.8-13.9,4.8-39.8,4.4-60.4c-0.9-43-1.2-43-44.5-44.4
			c-2.7-0.1-5.3-0.3-8-0.4c-133.1-6-266.1-3.9-399.1,3.5c-13.3,0.7-18.7,4.3-19.3,18c-1.1,26.7-3.7,53.3-5.6,80
			c-8.9,126-17.7,252-26.6,378c-3.2,46-6.5,92-9.6,138c-0.6,8.8-2,17.1,12.5,16c61.9-5,124.1-7.2,185.4-18.7
			C2339.9,2043.1,2415.3,1981.7,2475.6,1890.7z M2541.7,1423.9c-13.6-49.5-38.1-90.3-75.5-122.1c-82.9-70.5-179.5-107-288.1-109.7
			c-91.6-2.3-183.3,0.6-274.5,8.6c-191.4,16.8-360,89.6-507.5,212.2c-4.6,3.9-10.3,7.1-11.3,13.5c-4.9,32.1-9.5,64.2-14.5,98.2
			C1757.3,1439.1,2146.4,1407.4,2541.7,1423.9z M1374.7,1962.6c30.5,27.7,59.4,47.2,93,57.5c92.5,28.4,189.2,33.1,283.9,49.4
			c10.5,1.8,10.5-5.8,11.1-12.3c8.4-83.8,16.6-167.6,25-251.3c10.1-101.1,20-202.1,30.5-303.1c2.9-28.3,3.5-28.4-24.3-24.9
			c-134,16.9-266.9,39.7-399.2,67.1c-20.6,4.3-34,10.1-34.7,34.1c-0.4,14.4-5.1,28.9-8.7,43.1c-2.9,11.5,0.4,15.4,12.5,15.1
			c32.8-0.7,65.6-0.2,98.3-0.2c8.6,0,17-1.9,17,12.3c0,13.8-7.6,12.8-16.6,12.8c-35.5-0.1-70.9-0.1-106.4,0c-6.6,0-13.4-1.2-15.7,8
			c-5.7,22.1-11.9,44.1-18.3,67.7c59,0,115.1,0,171.3,0c9.2,0,18.2-2.2,17.9,13.3c-0.3,15.7-9.9,12.8-18.7,12.8
			c-40.1,0.1-80.3-0.3-120.4,0.2c-19.3,0.3-43.3-8-56.5,3.6c-12.7,11.1-14.7,34.5-20.9,52.7c-6.9,20.2-3.2,25.4,18,25.5
			c67.6,0.1,135.1,0,202.7,0c8.7,0,17.2-1.8,17.2,12.3c0,13.7-7.9,12.8-16.9,12.8c-54.2-0.1-108.4-0.2-162.6,0.1
			c-13.8,0.1-35.7-6-39.6,2.6c-5.9,13,11.6,25.9,18.5,39.2c9.4,18.1,23.1,24.1,43.8,23.4c46.1-1.7,92.3-0.4,138.5-0.6
			c9.9,0,18.2-0.6,18.4,13.9c0.3,15.6-9.5,12.9-18.5,12.9C1469.6,1962.6,1425,1962.6,1374.7,1962.6z M1932.1,2083.5
			c20.1,0,40.1-0.5,60.1,0.2c13,0.4,18.8-3.7,19.5-17.7c2.2-43.4,5.7-86.7,8.7-130.1c7.5-106.7,15.1-213.4,22.6-320
			c3.4-48,6.1-96.1,10-144.1c1.2-14.7-3.6-17.7-17.6-16.3c-41.2,4-82.6,6.7-124,9.6c-67.1,4.7-65.7,4.7-71.6,72.2
			c-8.8,101.2-19.8,202.1-29.9,303.2c-7.2,71.8-14.3,143.6-21.9,215.4c-1.4,13,1.2,18.6,16.1,19.9
			C1846.7,2079.4,1889.2,2083.8,1932.1,2083.5z M2926,841c-42.1-36.6-112-34-149,2.9c-15.5,15.4-25,34.5-34.8,53.4
			c-23.1,44.5-58.5,74.2-107.1,87c-43.7,11.5-74.4-11.6-76.4-56.4c-1-22-1-44-3.5-66.1c-4.3-37.6-24.2-62.5-60.2-71.6
			c-71.1-18-136.8-4.6-194.4,41.1c-62.4,49.6-92,119.4-114.6,192.9c-9.1,29.5-14.4,59.7-12.7,90.8c0.9,16.8,7.7,29.4,23.5,36.5
			c38.1,17.2,90.2-4.1,105.3-43c7.3-18.9,9.3-38.9,11.7-58.8c3.6-29.3,6.8-58.9,26.6-82.7c17.6-21.2,39.9-33.8,68.5-28.3
			c26,4.9,39.3,23.7,46.6,47.4c4.3,14,8,28.3,10.9,42.6c7.6,36.5,30.1,56.5,66.4,62.7c33.4,5.7,66.5,3.6,99.9,0.3
			c35.4-3.4,62.4-18.8,80-49.5C2763.4,954.4,2830.5,883.8,2926,841z M431.6,2104.1c20.9-0.9,41.6-2.6,62.2-3.6
			c15.9-0.8,20.9-8.2,25.3-21.8c20-61.4,20.1-123.9,9.9-186.3c-14.1-86.5-58.7-123.6-146.1-113.9
			c-113.8,12.7-211.8,61.5-290.7,146.2c-7.5,8.1-8.3,15.7-4.7,25.5c15.3,41.4,43.1,72,81.3,93
			C250.6,2088.3,340.8,2097.6,431.6,2104.1z M1289.2,1424.5c19.7,1,38.2-4.3,56.7-10.1c10.2-3.2,15.7-8.5,15.5-19.8
			c-1-59.9-20.2-112.1-64.4-153.9c-6.7-6.4-12.1-8.3-20.2-1.1c-31.4,27.8-54,60.6-59.9,103
			C1209.4,1397.5,1233.6,1424.7,1289.2,1424.5z"/>
		<path class="st0" d="M1342.4,1132.9c-26.5,1.1-49.7-1.5-72.5-6.9c-52.5-12.5-91.9-41.6-114.9-91.4c-10.4-22.4-20.4-45.1-32.5-66.6
			c-21.1-37.6-58.9-45.2-93.3-19.4c-34.3,25.9-46.3,62.5-47.8,103.7c-1,26.7-0.8,53.4-3.7,80c-5.6,52.7-49.6,85.8-109.6,81
			c-51.9-4.2-81.1-38.5-77.4-92.5c9-130.9,51.3-248,146.1-342.3c55.2-54.9,121.4-78.5,198.9-65.4c31.2,5.3,54.9,23,72.9,49
			c23.2,33.7,41.9,69.7,59.5,106.5c15.7,32.6,44.6,48.5,79.3,54.5c19.8,3.4,33.7-5.3,41.8-23.4c3-6.7,5.8-13.5,7.9-20.5
			c25.9-86.2,97.4-113.4,164.3-117.1c21.5-1.2,42.9-0.4,63.1,8.5c25,11,27.4,31,5.7,47.4c-7.5,5.6-15.5,10.5-23.2,15.8
			c-47.4,32.4-75.7,76.3-80.5,134.4c-1.2,14-2.3,28.1-4.8,41.9c-12.2,68.5-67.3,115.5-142.4,121.5
			C1365.9,1132.6,1352.6,1135.5,1342.4,1132.9z M1616.9,795.3c-27.9-10-52.2-9.4-76.9-5.4c-55.4,9.1-97.7,34.7-116.1,91.1
			c-3.7,11.4-8.2,22.7-13.6,33.4c-13.2,26.3-37.3,39-66.2,34.2c-45.6-7.5-81.3-30.3-101.3-72.9c-15.9-34-33.7-66.7-54.6-97.8
			c-14.6-21.7-33.8-35.7-59.6-40.3c-56.7-10.2-108.5,3.5-151.6,40c-109.5,92.9-154.2,216.3-160.6,356.2c-0.8,16.9,5.3,32,19.3,41.9
			c26.4,18.7,54.6,13.9,82.4,3.4c24.5-9.3,32.9-30,34.6-54.1c1.8-26.7,2.7-53.4,3.9-80.2c1.4-31.4,9.7-60.5,27.7-86.7
			c48.5-70.6,126.5-67.3,167,7.5c8.9,16.4,16,33.8,23.3,51c18.3,42.8,49.5,70.2,94.6,82.4c35.5,9.6,71.7,11.3,107.5,6.9
			c61.2-7.4,120-37.8,122.8-127.5c2.1-65.7,30-119.8,83.6-159.5C1593.1,811.6,1603.6,804.6,1616.9,795.3z"/>
		<path class="st0" d="M777.5,920.9c-0.2,59.1-7.7,117.3-21.4,174.7c-6.9,29-19.4,55.5-40.3,77.3c-31.6,33.1-80.2,26.9-102.9-13.1
			c-10-17.6-10.7-34.9,0.8-52.8c26.8-41.4,37.3-86.5,30-135.7c-2-13.8-4.6-27.5-18.9-32.9c-62.3-23.6-126-40-193.6-32.2
			c-30,3.5-51.6,19.3-66.7,45.5c-33.1,57.2-34.9,116.4-13.7,177.5c2.2,6.3,5.1,12.3,7.4,18.6c11,30.3,1.7,52-27.8,65.2
			c-62,27.7-138.6-2.6-164.3-65.3c-17.2-42.1-17.6-86.1-12.5-130.3C164.4,923.4,201.6,843,277.1,783c75.5-60,163.1-73,255.7-63.2
			c40.4,4.2,80.8,10,120,21.7c82.6,24.6,127.3,66,124.6,161.4C777.3,908.8,777.5,914.9,777.5,920.9z M751.9,918.3
			c0-8,0.2-16.1,0-24.1c-1.6-68-24.7-99.9-88.6-122.6c-27.2-9.6-55.3-15.2-83.7-19.9c-67.2-11.1-134.2-15.8-200.4,5.5
			c-171.4,55.2-224.9,242.4-193.9,366.7c15.9,63.8,73.2,83.2,128.7,67.2c25-7.2,27.3-15.3,17.5-40c-29-73-29.2-144.6,11.7-213.8
			c18-30.4,43.6-50.4,79.1-55.5c75.2-10.7,146,7.2,215.1,34.5c17.3,6.8,26.4,22.1,29.8,40.3c10.4,55.5,1.6,107.7-27,156.5
			c-13.4,22.8-11.5,33.4,7.8,47.8c17,12.7,33.6,10.8,49.8-6.4c17.3-18.5,27.7-40.9,33.4-65.3C744.5,1033,751.7,976.1,751.9,918.3z"
			/>
		<path class="st0" d="M2143.6,929.6c2.6,50.6-0.8,100.1-24.7,146.3c-30.2,58.5-90.1,85.3-142.2,71.6
			c-42.1-11.1-83.7-51.5-44.7-108.6c9-13.2,17.2-27,25.2-40.9c15.2-26.4,12.6-50.8-10.9-70c-34.5-28.1-75.8-38.6-119.7-36.5
			c-15.8,0.8-27.7,12.5-39.2,22.8c-49.3,44.2-81.8,99.9-109,159.2c-14.5,31.5-28.2,63.4-42.7,94.9c-6.4,14.1-13.3,30-31.4,30.1
			c-19.7,0.1-28.1-16.1-34.6-31.9c-28.2-68.5-21.3-136.1,8-202.2c54.9-123.8,146-203.9,281.3-228.6c60.9-11.1,121.3-8.3,179.7,13.8
			c64.2,24.3,102.4,68.2,102.6,139.9C2141.5,902.9,2142.9,916.3,2143.6,929.6z M2118.3,937.6c-1-16.4-2.7-37-3.4-57.7
			c-1.9-56-35.7-87.5-83.9-105.7c-70.9-26.8-143.3-24.8-214.3-1.6c-119.3,38.9-191.7,124.2-229.3,241.3
			c-15,46.6-12.9,93.5,4.6,139.4c2.3,6.1,3.9,15.4,10.3,16c8.8,0.9,9.7-9.6,12.4-15.7c12.4-27.3,23.8-55.1,36.2-82.4
			c30.5-67.4,67.1-130.7,123.9-180c19.8-17.2,42-29.2,69-26.9c32.1,2.8,63.2,11.2,92.1,25.5c57.6,28.5,71,78.2,36.7,132.4
			c-6.1,9.6-12.1,19.2-18,28.9c-22.5,37-8.6,66.6,35,72.6c43.9,6.1,76.4-13,99.9-48.9C2116.2,1034.3,2119.7,988.6,2118.3,937.6z"/>
		<path class="st0" d="M482.7,1464.2c-25.4-1.7-47.3,3-69.1,8.8c-7.6,2-9.8,8.5-12.8,14.4c-13.2,26.3-26.4,52.5-39.2,78.9
			c-4.4,9-8.1,13.7-19.5,7.8c-11.1-5.8-7.8-11.3-3.9-19c10.2-19.9,19.9-40,28.1-61.3c-45.8,20.1-82.6,50.6-113.2,89.1
			c-3.5,4.3-5.1,11.5-13.4,9.5c-12.8-3-16.8-12.4-8.6-22.8c139.1-178.1,383.2-176.1,520.3,0.3c4.4,5.7,9.7,10.6-0.7,17.4
			c-9.3,6-13.8,6.2-20.8-3c-28.7-37.8-65-66.8-106.5-89.8c-11.6-6.5-16.8-4.4-22.2,7.4c-12.5,27.2-26.6,53.7-39.6,80.8
			c-3.8,7.9-7.1,11.7-16.2,6.6c-7.8-4.3-13-7.1-7.4-17.8c14.3-27.1,26.9-55.2,40.9-82.5c4.6-8.9,3.2-13.3-6.5-15.1
			c-0.7-0.1-1.3-0.4-1.9-0.6c-49.5-16.2-53.3-14.9-80.7,29.1c-10.2,16.4-20.6,32.8-30.2,49.6c-5.2,9-9.3,12.5-20.1,5.9
			c-10.7-6.6-6.9-11.7-2.4-18.9C452.1,1514.8,466.8,1490.4,482.7,1464.2z"/>
		<path class="st0" d="M2205.3,1537.1c0-5.3,0.3-10.7,0-16c-0.5-8.6,4.7-9.7,11.4-9.4c6.4,0.3,14.2-1.5,14.7,8.7c0.4,8,0,16,0.3,24
			c0.4,10,0.3,17.7-14.1,17.6c-14.2-0.1-12.4-8.2-12.3-16.8C2205.3,1542.4,2205.3,1539.8,2205.3,1537.1z"/>
		<path class="st0" d="M2134.3,1913.3c-4.9,8.2,7.2,23-12.4,24.1c-18.7,1-13.9-12.4-13.4-21.7c0.5-9.4-7.2-24.3,13.3-23.9
			C2140.3,1892.1,2129.9,1906.1,2134.3,1913.3z"/>
		<path class="st0" d="M2145.8,1797.7c-10.1,1.9-14.1-1.7-14.3-12.6c-0.1-12.5,6.2-13.7,16.1-13.9c10.2-0.2,13.5,3.2,13.9,13.6
			C2162,1797.9,2155.6,1799.2,2145.8,1797.7z"/>
		<path class="st0" d="M2184.8,1668.6c2.5,12.8-4.3,13.7-13.4,13.9c-10.4,0.2-13.5-3.8-13.5-14c0-10.6,5.5-11.5,13.7-11.4
			C2180.3,1657.2,2188.7,1656.9,2184.8,1668.6z"/>
		<path class="st0" d="M1658.5,1795c2.9-10.3-5.7-24.2,13.6-23.9c19.8,0.4,13,14.5,13.4,24.2c0.4,9.6,4.4,22-13.6,22.2
			C1650.1,1817.7,1664.2,1800.9,1658.5,1795z"/>
		<path class="st0" d="M1709.9,1674.8c8.5,2.3,21.7-5.9,22,13.2c0.3,20.8-14.1,13-23.1,13c-8.4,0-22,7.6-22.2-12
			C1686.4,1668.9,1700.5,1676.9,1709.9,1674.8z"/>
		<path class="st0" d="M1731.8,1582c0,4.7-0.3,9.4,0,14c0.6,8.5-4.1,10.1-11.2,9.7c-6.4-0.4-14.1,1.6-13.9-9.1c0.2-8,0.3-16-0.1-24
			c-0.5-9.7,0.3-16.2,13.4-16c12.5,0.2,12.1,7,11.8,15.4C1731.7,1575.4,1731.8,1578.7,1731.8,1582z"/>
		<path class="st0" d="M1663.9,1912c-1.2,9.5,4.4,21.7-13,21.1c-19.2-0.6-11.1-14.5-11.8-23.1c-0.7-8.6-5.1-20.4,12.5-20
			C1671.4,1890.4,1660.6,1904.7,1663.9,1912z"/>
	</g>
</g>
</svg>
