<?xml version="1.0" encoding="utf-8"?>
<!-- Generator: Adobe Illustrator 23.0.0, SVG Export Plug-In . SVG Version: 6.00 Build 0)  -->
<svg version="1.0" xmlns="http://www.w3.org/2000/svg" xmlns:xlink="http://www.w3.org/1999/xlink" x="0px" y="0px"
	 viewBox="0 0 3000 3000" style="enable-background:new 0 0 3000 3000;" xml:space="preserve">
<style type="text/css">
	.st0{stroke:#000000;stroke-width:10;stroke-miterlimit:10;}
</style>
<g id="Layer_1">
</g>
<g id="Layer_2">
	<g>
		<path class="st0" d="M2924.7,1371c16.9,214.5-12.9,424-65.4,631.5c-35.6,140.8-129.9,216.6-266.7,245.3
			c-125.2,26.3-252,27.3-379,15.9c-151.2-13.6-300.1-44.2-450.8-61.3c-217.3-24.5-435-45.5-654.1-32.5
			c-110.9,6.6-220.5,21.9-323.5,66.7c-48.3,21-92.7,50.5-143.4,66.5c-77.1,24.4-154.5,46.6-237,38.4
			c-115.1-11.5-187.2-75.7-207.7-189.7c-14.8-82.3-23-165.7-23.6-249.4c-0.3-42.8,4.5-85.2,28.9-122.3c7.3-11.1-0.2-18-4.5-25.8
			c-63.6-116.3-114.9-237.6-145.7-366.8c-26.8-112.2-39.8-225.2-15.9-340C69.5,888.1,172,794.2,333.2,773
			c105-13.8,209.7-8.3,314,2.3c162.6,16.5,325,35,486.6,59.4c130.5,19.7,259.7,46.2,387.8,78.3c14.3,3.6,25.4,2.7,38.7-5.7
			c47.1-29.5,101-38.8,154.8-45.9c153.5-20.4,307.9-32.9,462.5-37.2c175.6-4.9,350.4,9.6,522,50.1c60.1,14.2,115,39.7,157,87.4
			c38.2,43.5,52.2,96.1,55.4,152C2916.9,1199.5,2920.5,1285.2,2924.7,1371z M2839.1,1847.3c14-91,31.5-175,33.6-260.9
			c3.8-156.4-7.2-312.4-14.2-468.4c-3.5-77.9-36.4-138-111.2-170c-24.9-10.6-50.5-19.6-76.9-25.9c-26.8-6.4-26.7-6.6-26.7,21.6
			c0,162.2,0,324.3-0.1,486.5c0,6.4,3.4,16.2-2.4,18.5c-14.3,5.9-30.4,3.9-45.3,1.6c-10.4-1.7-5.5-13.5-5.5-20.6
			c-0.3-167.3-0.4-334.6,0.1-501.9c0-14.9-2.8-21.2-19.4-23.7c-93.7-13.9-187.8-22.4-282.5-25.2c-32.3-0.9-28-4.8-28,27.3
			c-0.2,174.6,0,349.3-0.2,523.9c0,6.4,3.3,16.2-2.3,18.6c-14.3,6.1-30.4,4-45.2,1.7c-11.8-1.9-6.3-14.6-6.3-22.3
			c-0.3-176.1-0.5-352.2,0.1-528.3c0.1-18.4-5.1-23.5-23.5-22.8c-91.7,3.5-183,11.5-274.5,17.5c-24.9,1.6-28.6,10.4-28.4,32.8
			c1.1,135.7,0.7,271.5,0.4,407.2c-0.1,38.3,6.3,32.4-33.5,34.4c-19,1-21.2-7.1-21.2-23c0.5-137.9,0.3-275.9,0.3-413.8
			c0-5.1-0.2-10.3,0-15.4c0.4-8.8-1.8-13.6-12.4-12.4c-68.4,7.9-137.1,14-202.9,36.7c-19.9,6.9-35.7,18.6-48.8,35.7
			c-36.7,47.7-45,102.7-42.4,160.1c2.9,65.9,9.5,131.7,11.8,197.7c4.1,115.3-27.1,217.7-116.4,296.5c-46.8,41.4-101.9,66.5-161,86.8
			c-82.5,28.3-166.4,45.8-253.1,50.5c-157.7,8.5-315.3,3-473-2c-68-2.2-136.1-11.8-204.3-2.2c-48.9,6.9-77.7,33.1-89.8,80.9
			c-9.7,38.3-6.2,77.1-4.6,116c0.8,17.8,6.5,19.6,22.3,17.3c132.3-19.8,261.4,56.2,309.5,180.9c11.5,29.8,17.4,60.5,19.7,92.1
			c0.9,12.5,5.6,14.2,16.4,10.4c34.4-12.2,69.6-22.8,101.4-41c44.1-25.2,90.2-45.8,138.8-60.4c136.5-40.9,277-48.3,418.1-47.8
			c150.5,0.5,300.3,14,449.9,29.2c11.8,1.2,20,2.5,22.5-14.2c13.8-89.2,43.1-173.6,88.1-251.8c95.4-165.9,236.5-266.5,428.4-286.9
			c179.6-19.2,338.5,36.2,480.1,145.6C2765.7,1766,2801.8,1803.3,2839.1,1847.3z M1504.2,963.8c-108.5-26.2-215.9-48.9-324.1-67.2
			c-130.9-22.2-262.8-36.1-394.5-52c-88.1-10.7-176.2-21-265-24.2c-14.9-0.5-22.2,3.7-28,17.4c-18.8,44.8-35.5,90-40,138.8
			c-7.8,84,14.5,155,87.7,204.7c35.3,24,72.5,44.4,111.3,61.8c136.3,61.4,277.6,110.2,417,163.8c111.3,42.7,223.1,84.1,334.4,126.9
			c16.1,6.2,25.1,4.4,33.1-11.2c10.4-20.2,20.8-40.3,27.1-62.3c18.4-64,15.7-129,10.4-194.2C1465.5,1164,1448.8,1061.1,1504.2,963.8
			z M2383.4,2215.9c63.4-3.4,161.4-3.4,254.7-37.4c53.4-19.4,100.1-49.2,131-98.7c27.5-44.2,38.4-94.6,51.7-144.1
			c3.5-12.9,0.9-22-6.7-32.2c-83.1-110.3-188.6-189.9-319.9-234.1c-215-72.4-429.7-18.6-569.2,143.6
			c-78.5,91.3-120.4,200-143.9,316.7c-2.7,13.5-0.9,20.6,16.2,22.6c53.8,6.4,107.4,15.2,161,23.1
			C2088.1,2194.7,2217.7,2216.6,2383.4,2215.9z M1384.2,1584.8c-5.9-2.6-9.1-4.1-12.5-5.4c-178.6-67.6-357.4-134.7-535.6-203.1
			c-95-36.5-191.1-70.9-280.2-121.2c-37.2-21-72.5-44.8-100.1-78.1c-59.9-72-66.7-155.2-51.2-243.2c6.9-39,22.5-75.3,36.6-114.8
			c-22.1,1-41.8,1.2-61.3,3c-66.3,6.1-131.4,17.4-186.2,58.8c-76,57.4-103.4,139.8-112.6,230c-11.5,112.1,9.5,220.5,40.5,327.6
			c3.4,11.7,8.5,14.1,20.5,11.2c144.3-35.2,289.2-33.4,434.4-6.1c51.6,9.7,101.2,24.9,142.2,59.9c59.3,50.6,80,117.6,78.6,192.7
			c-0.4,18.9,4.8,24,22.7,23.2c47.6-2,95.3-2.9,143-3.7c99-1.6,194.9-19.1,287.9-53.1C1299.3,1644.8,1345.8,1623.9,1384.2,1584.8z
			 M534.4,1706.5c63,9.7,126.1,9,189.1,10.6c9.7,0.2,18.7,1.7,19.6-13.2c4.9-84.2-27.7-166-122.2-192.9
			c-152.4-43.3-306.6-44.5-461.2-10.9c-11.4,2.5-16.2,5.8-11.2,18.9c26.9,69.9,57.8,137.8,93.6,203.5c4,7.4,6.9,11.4,16.4,6.2
			c35.3-19,74.1-22.1,113.2-22.2C425.9,1706.3,480.1,1706.5,534.4,1706.5z M439.5,2288.9c26,1.1,50.4-3.5,74.9-7.8
			c9.2-1.6,13.8-5,13.4-15.6c-5.7-172.8-150.8-254.2-277.5-233.3c-9.7,1.6-13.9,4.3-12.8,15.3c3.8,37.9,7.7,75.7,16,112.9
			c13.7,61.2,51.5,100.2,111.1,118.5C389.3,2286.5,414.6,2290.2,439.5,2288.9z"/>
		<path class="st0" d="M2320.5,1998.2c-114.5-1.5-216.8-89.4-236.5-202.2c-2.8-15.9,2.3-19.6,16.6-21.8c32.1-4.8,32-5.5,39.8,24.1
			c23.5,88.3,99.6,147.4,188.3,146.1c84-1.2,161.5-67.1,182.5-155.1c1.6-6.6-0.3-16.8,9.8-17.1c15.3-0.4,30.8,0.9,44.9,7.6
			c1.4,0.7-0.1,8-0.7,12.2C2547.2,1908.1,2438.4,1999.8,2320.5,1998.2z"/>
	</g>
</g>
</svg>
