<?xml version="1.0" encoding="utf-8"?>
<!-- Generator: Adobe Illustrator 23.0.0, SVG Export Plug-In . SVG Version: 6.00 Build 0)  -->
<svg version="1.0" xmlns="http://www.w3.org/2000/svg" xmlns:xlink="http://www.w3.org/1999/xlink" x="0px" y="0px"
	 viewBox="0 0 3000 3000" style="enable-background:new 0 0 3000 3000;" xml:space="preserve">
<style type="text/css">
	.st0{stroke:#000000;stroke-width:10;stroke-miterlimit:10;}
</style>
<g id="Layer_1">
</g>
<g id="Layer_2">
	<g>
		<path class="st0" d="M1166.6,2622.7c-8.7,130.8-64.7,231.2-184.1,289.1c-110.5,53.6-220,49.8-317.3-28.9
			c-98.6-79.8-127.2-187.5-99.4-309.4c5.6-24.4,2.4-39-14.4-57.6c-45.2-50-67.2-108.6-51.2-177.1c2.4-10.1,4.7-22.7,11.7-28.8
			c26.4-22.7,19.7-47.3,11.6-75.6c-24.8-87-8.4-168.5,39.4-244.1c8.7-13.7,12.4-21.6-3.1-35.5c-44-39.3-51-92.1-45.5-147.7
			c0.5-5.2,1.3-10.5,2.8-15.5c23.2-75.3,37.2-148.4,24.1-230.7c-12.5-78.5,30.5-145,109.9-176.2c24.5-9.6,13.8-19.5,6.3-31.9
			c-69.5-116.3-115.1-241.2-128.5-376.1c-19.1-191.5,5.1-376.8,99.8-547.1C741.8,226,924,127.6,1150.1,105
			c230.4-23,441.8,38.6,639,154.7c20,11.8,29.6,10.3,46.1-6.7c107.8-111.4,243.8-151.6,395-150.2c52,0.5,102.2,10.7,150.7,30
			c86.9,34.5,132.7,97.7,141.9,191c6.7,68.3,6.2,136.7,6.7,205c2.2,271.6-4.7,543.1-17.4,814.3c-10.5,223.9-21.9,447.7-34.6,671.5
			c-4.1,71.7-19.1,142-49.3,207.7c-38.7,84.1-99.8,145.4-189.8,173.1c-22.2,6.8-24,12.7-14.1,33.4c66.5,139.2,34.3,280.4-84,377.1
			c-150.5,123-347.7,57.7-394.7-130.9c-11.9-47.6-13.2-95.6-2.9-143.9c1.5-7,8.2-18.8-3.6-20.5c-11.4-1.6-9.8,11.6-10.2,19.2
			c-4.4,82.2-30.5,156.3-81,221.7c-27.3,35.4-60.5,64.2-99.1,86.4c-111.9,64.4-231.2,36-313.9-74.3
			C1203,2721.4,1182.1,2673.7,1166.6,2622.7z M1790.3,2443.8c-10.3-4.8-20.8-9.3-30.8-14.6c-119.4-62.2-186.9-159.7-198.7-294.5
			c-7.4-85.1-6.7-170.3-0.7-255.5c15.9-224,104.8-410.9,277.4-557.4c144.8-122.9,300.3-124.2,444.4,0.2
			c61.2,52.9,108.1,117.4,147.6,187.6c5.3,9.3,8.5,20.6,21.4,28.7c9.8-216.8,19.3-430.2,23.1-648.5c-23.6,12.3-41,21.8-58.7,30.5
			c-73.7,36.2-151,59.2-233.8,55.4c-119.3-5.4-192.7-68.1-212.6-181.3c-4.2-23.6-5.3-48.4-3.7-72.3c11-171.4,70.3-325.4,170.5-464.1
			c25.6-35.4,56.4-66.5,88.8-101.2c-56.5-5.3-107,3.8-156.1,18.6c-166.4,50.3-265.8,145.2-274.9,329.2
			c-4.8,96.8,3.9,190.8,30.5,283.8c23.9,83.3,4.5,155.2-59.2,215.7c-40.5,38.5-83.1,74.4-126.5,109.4
			c-87.7,70.5-174.1,143-270.9,200.9c-138.2,82.6-291.2,104.2-449.1,103.2c-60-0.4-120.1-4.4-179.9,1.5
			c-38.9,3.8-77.8,9.2-107.5,38.7c-4.3,4.3-10.3,10.5-9.8,15.1c1.2,9.7,11.4,6.6,18.1,7.5c117.1,15.6,185.7,74.2,215.1,186.3
			c4.9,18.7,13.5,22.3,31,21.5c154.7-7.2,308.4-22.9,460.6-51.8c18-3.4,28.9-4.8,33.6,18.3c4.7,23-1.3,31-23.8,34.7
			c-190.2,31.7-381.1,55.4-574.5,51c-46.3-1.1-92.7-4.6-137-19.5c-48.5-16.2-48.3-17-63.2,31.1c-1.1,3.7-1,7.7-1.7,13.3
			c9.9,0,18.3-0.4,26.6,0.1c101,4.9,174.2,51.8,211.9,146.6c10.5,26.4,23.4,33.3,50.2,31.5c178.7-12.2,357.7-10.2,536.7-6
			c22.1,0.5,44.2,2.1,66.2,2.9c11.7,0.4,15.7,5.4,16.4,17.5c1.9,34.7,0.1,36.7-35.8,35c-174.7-8.1-349.3-7.3-524.1-0.5
			c-90.3,3.5-180.7,16.7-271,2c-23.2-3.8-38.4,1.4-48.4,22.7c-4.9,10.4-11.2,20.2-17,30.2c-9.5,16.3-9,25,13.8,27.7
			c73,8.6,127.6,46.3,160.6,112c8.9,17.7,18,20,36.4,17.8c174.7-21.4,350.2-29.6,526.2-26.8c21.2,0.3,26.5,7.2,26.1,27.5
			c-0.4,19.5-4.2,27.7-26.1,27.1c-143.2-3.8-286.3,0.4-428.9,14.4c-87.9,8.6-175.9,17.8-261,43.2c-24.4,7.3-49.6,14.4-73.6,38
			c22.6,0,39-0.8,55.3,0.1c98.4,5.4,173.4,50.4,228.2,132.2c14.1,21,12.5,56.9,40,62.6c25.4,5.3,54-4.2,81.1-7.3
			c1-0.1,2.1-0.5,3.1-0.6c185.7-25.2,372.4-39.5,559.6-47.3C1617.9,2464.2,1704,2460.3,1790.3,2443.8z M888.6,1362.7
			c34.7,0,69.5,0.6,104.2-0.1c160.5-3.3,305.4-51.7,432.9-150.5c104.7-81.1,212.1-158.7,307.4-251.4c46.6-45.3,56.5-97.9,40.4-158.9
			c-13.1-49.7-27.1-99.3-30.7-151.2c-7.3-107.7-9.2-214.7,37.2-315.9c8.3-18.1-3.9-22-14.6-28.2
			c-199.7-117.7-413.1-176.9-645.8-144.6C936.6,187.3,787.1,271,688,431.6c-66.4,107.6-97.4,227.2-108.8,352.2
			c-18.4,202.9,27.7,390.4,135.6,562.9c7.5,12,14.3,21.5,31.9,19.1C793.8,1359.2,841.3,1363.4,888.6,1362.7z M2439.8,1769.3
			c1.3-72.5,1.2-72.5-35.9-116.2c-17-20-33.4-40.7-50.9-60.3c-54.1-60.4-109.1-120.1-184.3-155.6c-84.3-39.9-150.4-28.1-207.2,45.2
			c-115.7,149.2-191.2,316.5-207.9,506.3c-14.9,170.1,76.8,281.8,244.9,303.6c115,14.9,220-17.6,322.9-65.5
			c51.6-24,77.6-59.9,88.6-115.3C2433.6,1993,2428.4,1872.6,2439.8,1769.3z M2476.2,572.4c-0.1,0-0.2,0-0.4,0
			c0-53.7,0.4-107.3-0.2-161c-0.2-22.1-2.6-44.1-4.1-66.1c-6.6-98.8-47.4-148.1-143.1-175.3c-20.2-5.7-34.7-3.1-51,11.4
			c-94.7,84.5-162.6,186.7-206.2,305.4c-31.7,86.2-57.5,173.6-54.4,267c3.3,99.8,55.1,158.1,152.8,167.3
			c104.5,9.8,195.6-28.7,282.6-81.5c17.5-10.6,24.6-22.7,24.3-43.1C2475.6,721.8,2476.2,647.1,2476.2,572.4z M2311,2294.5
			c-2.7-0.6-5-2-6.5-1.4c-7.9,2.9-15.5,6.4-23.3,9.5c-85.3,33.4-173.3,50.1-265.4,45.2c-192.4-10.3-318.3-139.2-314.2-331.4
			c4.7-220.2,94.2-410.3,229.6-578.6c67.2-83.5,159.4-96.2,256.8-50.4c63.9,30,115.8,75.9,164,126.5c10.9,11.5,21.8,22.9,32.7,34.3
			c-41.8-85.9-96.5-160.9-175.1-215.3c-100.4-69.5-200.3-70.9-299.1,0.7c-90.3,65.4-164.7,146.2-216.5,246.8
			c-80.1,155.3-89.4,322.2-84.3,491.8c1.2,38.9,3.3,78,13.3,115.7c32.2,121.1,117.6,187.1,232.3,222.2c47.4,14.5,94,15.8,142.3,0.7
			c73.1-23,147.4-42.1,220.9-63.7C2252.9,2336.7,2285.3,2321.9,2311,2294.5z M840.6,2892.8c168.6,0.3,296.6-153,266.5-318.2
			c-2.9-15.9-8.8-21.3-24.9-19.3c-62.5,8-125.1,15-187.7,22.4c-86.8,10.3-173.7,21.9-259.8-3.8c-14.7-4.4-16.3,3.5-18.7,12.5
			C577.1,2735.2,680.6,2892.8,840.6,2892.8z M1789.8,2588.2c-2.3,48.4,7.1,86.8,25.6,123.1c52.3,102.4,155.2,133.7,255.6,78
			c127.3-70.7,169.7-214.5,103.6-345.1c-11.6-23-23.6-26.2-46.1-18.6c-87.8,29.4-177.3,53.1-268.9,67.4c-58.2,9.1-64.3,15-69.6,74.2
			C1789.1,2576.6,1789.8,2586.2,1789.8,2588.2z M1438.6,2820.2c18.9-1,45.2-7.7,69.7-20.5c93.4-48.9,144-128.4,163.4-229.9
			c10.8-56.6,10.6-56.7-44.5-53.1c-5.2,0.3-10.5,0.5-15.7,0.8c-122.7,6.8-245.3,14.3-368,20c-26.5,1.2-33.9,9.5-30.1,35.8
			c9.9,69.7,36.5,131.3,84.5,182.7C1333.2,2793.9,1375.4,2820.2,1438.6,2820.2z M821.6,2531.5C784.3,2427,673.2,2361.8,569.9,2381
			c-17.3,3.2-23.7,10.2-18.6,27.4c14,47.2,37.8,87.8,84.2,108.6C695.3,2543.8,758,2540,821.6,2531.5z M754.6,1685.7
			c6.3,0.5,12.5,1.1,18.8,1.5c33.8,2.3,35,0.8,23.6-31.5c-27.6-78-103.1-128.1-185.1-123.2c-9.5,0.6-17.8-0.4-21.5,12.5
			c-12.9,45.4,18.2,107.3,62.5,123.2C685.8,1680.1,720,1683.7,754.6,1685.7z M716.2,1948c13.3,0,19.6,0.1,25.9,0
			c34.4-0.9,35.6-2.8,20.8-32.6c-31.4-63.6-111.2-106.8-179.5-98.2c-12.9,1.6-17.9,6.4-19.1,19.3c-3.9,44.3,23.2,86.4,65.6,99.6
			C660.3,1945.5,691.8,1946.6,716.2,1948z M563.6,2145.7c3.2,37.6,6,64.7,14.3,90.9c2.9,9.3,5.7,16.3,19.5,11.2
			c34.4-12.7,70-21.7,106.3-27.4c14.8-2.3,16.9-8.8,9-21c-27.1-42.4-65.5-66-115.3-73.1C572.7,2122.8,561.2,2130.3,563.6,2145.7z"/>
		<path class="st0" d="M807.6,884.4c2.6-317,297.8-530.8,611.7-442.2c51,14.4,98.6,36.1,143.4,64.3c12.8,8,26.8,14.2,11.5,32.9
			c-11.3,13.9-16.1,27.5-40.6,12.4c-141.8-87.7-291.7-105.5-445.1-34.7C890.1,608.7,803.2,868.5,906,1052.4
			c65.4,116.9,216.4,189.4,361.1,172.4c21.4-2.5,35.4-3.8,37.5,25.2c1.5,20.4-4.2,25.1-22,27.2c-221.7,25.1-435.3-110.3-469.2-330
			C810.2,926.4,809.5,905.3,807.6,884.4z"/>
		<path class="st0" d="M1560,825.1c-2.9,62.7-15.4,119.3-51.3,168.8c-32.1,44.1-80.6,59.1-127.1,38.9c-52.9-23-81.8-73.7-68.2-126.8
			c21.8-85.2,78.4-139.7,160.5-166.6c45.8-15,74.7,6.2,82.3,54.4C1558,805.3,1559,816.8,1560,825.1z M1506.7,833.6
			c-0.6-7.6-1-20.2-2.9-32.6c-1.5-9.9-7.1-13-18.1-11c-48.9,8.7-117.8,83.4-122.2,133.4c-2.9,32.8,16,50.9,42.9,62.4
			c24.6,10.5,43.2-1.9,57.4-20.6C1492.2,928,1503.9,884.8,1506.7,833.6z"/>
		<path class="st0" d="M1208,771.4c0.4,51.3-11.2,99.8-37.8,143.9c-33,54.9-83,73.3-135.8,51.2c-55.8-23.4-83.6-76.4-65.9-136.2
			c22.5-76.1,73.4-129,147.7-156.3c52.4-19.3,85.7,4,91.6,59.7C1209.1,746.1,1208,758.8,1208,771.4z M1158,769.1
			c-0.9-10.2-1.4-20.7-2.8-31.1c-2.1-14.9-11.1-19.9-24.5-13.7c-56,25.8-98.1,64.9-112.4,126.9c-7.3,31.7,7.9,54.6,38.1,67.5
			c29.5,12.6,48.6-2.7,64.1-24.4C1147.1,857.1,1154.5,813.8,1158,769.1z"/>
		<path class="st0" d="M2240.6,1915.8c-1,66.5-13.9,129.4-55.6,183.5c-57.7,74.8-150.5,75.6-209.2,2
			c-74.6-93.5-76.3-268.7-3.6-364.1c60.3-79.1,155.3-79.1,215.3,0.7C2227,1790.4,2239.5,1851.5,2240.6,1915.8z M1972.6,1921.4
			c0,59.6,14.1,107.5,44.3,146.5c34.9,45,84.5,47.5,120.6,6.1c65.9-75.7,67.9-231.9,4-309.1c-38.9-47.1-86.4-47-124.2,1.3
			C1982.8,1810.3,1971,1861.7,1972.6,1921.4z"/>
	</g>
</g>
</svg>
