<?xml version="1.0" encoding="utf-8"?>
<!-- Generator: Adobe Illustrator 23.0.0, SVG Export Plug-In . SVG Version: 6.00 Build 0)  -->
<svg version="1.0" xmlns="http://www.w3.org/2000/svg" xmlns:xlink="http://www.w3.org/1999/xlink" x="0px" y="0px"
	 viewBox="0 0 3000 3000" style="enable-background:new 0 0 3000 3000;" xml:space="preserve">
<style type="text/css">
	.st0{stroke:#000000;stroke-width:10;stroke-miterlimit:10;}
</style>
<g id="Layer_1">
</g>
<g id="Layer_2">
	<g>
		<path class="st0" d="M432,1185c-42.2-14.6-79.4-27.4-114.7-45c-78.7-39.4-147.1-91.5-197.9-164.3c-63.9-91.5-89.2-193.8-58-300.7
			c63.5-217.5,204.3-370.6,415.2-452.8c102.1-39.8,212.5-35.8,321-34.2c12,0.2,24.1-1.8,36-1.5c414.7,10.6,829-2.9,1243.3-16
			c125.4-4,250.9-1.2,372.3,36.1c147,45.1,274.4,124.2,380.3,235c126.6,132.4,151.7,305.6,74.1,476.5
			c-51.1,112.6-131.6,200.9-228.5,275.5c-10.4,8-21.1,15.8-31.6,23.7c-0.7,0.5-1.1,1.5-2.1,3c1,9.3,10,12.1,15.9,17.2
			c166.6,144.4,259.9,325.5,266.5,546.8c3.5,116.6,11.3,234.2-5.8,350c-41.7,282.9-197.8,480.3-459,594.6
			c-93.7,41-193.2,55.8-294.9,55.9c-436.2,0.4-872.5,0.8-1308.7,0c-366.1-0.7-665.7-238.8-744.2-589.5
			c-9.1-40.5-15.3-81.5-15.5-123.1c-0.6-119.6-9.6-239.6,5.9-358.5c28.1-216.1,135-386.2,310.6-514
			C417.7,1195.8,422.8,1191.9,432,1185z M775.2,2735.8c-10.3-11.6-15.4-17.8-21-23.7c-52.9-55.3-100.3-114.7-140.5-179.9
			C385.8,2162.5,500.7,1756,797.4,1525c120-93.4,261.9-125.6,409.4-135.8c221.9-15.4,444.3-13.3,666.6-8.7
			c106.4,2.2,212.5,4.5,318.4,18.9c221.6,30.2,359.4,154.5,421.2,366.6c32.4,111.1,35.5,224.5,23.5,338.7
			c-24.5,232.4-117,432.3-284.9,596.3c-4.1,4-11.4,6.6-10.1,14.7c2.1,0.2,4.1,1,5.8,0.6c275.1-63.1,499.1-317.8,526.3-597.6
			c9.9-101.6,4.6-203.3,4.7-305c0.5-389.6-312.5-702.1-701.9-702.2c-441.8,0-883.7,0.3-1325.5-0.2c-101.3-0.1-199.2,16.5-290.7,59.6
			c-236.8,111.5-377.1,296.5-412.5,556.9c-13.9,102-3.4,205.1-5.3,307.7c-1.9,100.4,17.9,196.9,60.8,287.6
			C316.5,2562.7,507.3,2696.1,775.2,2735.8z M1564.1,2066c-133.8,0-267.6-0.1-401.4,0.1c-38.4,0.1-45-7.7-31.2,38.4
			c2.4,8.1,3.7,16.5,5.1,24.9c1.5,8.8-0.4,14.7-11.4,14c-18.6-1.1-38.9,1.9-39.7-26.6c-0.3-10.1-5.9-20-6.7-30.2
			c-1.4-16.9-9.5-21-25.7-20.9c-162.1,0.6-324.1,0.6-486.2,0c-17.9-0.1-24.4,4.8-25.3,23.2c-3.1,64.4,1.8,128.1,16.9,190.7
			c41.9,173.3,139,313.3,265.3,435.1c10.2,9.8,20,22.7,37.6,22.4c41.5-0.6,82.9-0.5,124.4,0c13.5,0.2,18.3-5.4,17.9-18.5
			c-0.6-16.9,0-33.9,0-50.9c0-10.7,5.3-15,15.9-14.7c11.7,0.3,10.2,8.6,10.4,15.9c0.2,11.3,1.7,22.9-0.2,33.9
			c-5.4,30.3,8.8,34.8,35.7,34.7c335.4-0.9,670.9-0.6,1006.3-0.6c7.5,0,15.1-0.5,22.6,0c13.4,0.9,18.4-5.2,18.1-18.3
			c-0.5-22.6,0-45.2-0.1-67.8c0-9.9-0.2-18.7,14.3-18.4c14.1,0.2,11.3,9.6,11.4,17.5c0.3,22.6-0.1,45.2,0.3,67.8
			c0.1,6.8-2.8,18.5,7.7,18c40.1-2.2,82.7,12.8,118.6-19c44.6-39.4,87.3-80.4,125.1-126.4c119-144.9,181.8-312.3,201.4-497.6
			c2.3-21.4-3.2-27.2-24.8-27.1c-163,0.9-326,0.8-489,0c-21-0.1-26.8,7.1-22.9,26.1c1.2,5.5,1,11.4,2.7,16.7
			c7.1,22.1-7.3,23.4-23.2,27.7c-19.8,5.3-22.3-5.4-23.9-19.5c-0.9-7.5-2.7-15.2-1.8-22.5c3-24.8-9.2-28.7-31.2-28.6
			C1839.3,2066.4,1701.7,2066,1564.1,2066z M2807.2,991.8c-46.9,0-88,0-129.1,0c-182.8,0-365.6-0.2-548.4,0.3
			c-20,0.1-31.6-2.3-30.8-27.1c0.8-24.7,15.9-21.1,30.7-21.1c211.1-0.1,422.1,0,633.2,0c83.8,0,83.2-0.2,112.4-79.4
			c8.1-21.8,4.2-26.8-19.1-26.3c-189.3,4.4-378.6,7.7-568,11.3c-55.6,1-111.2,0.6-166.7,3c-24.6,1-20.3-13.9-22.4-28.7
			c-2.9-20.5,10-17.9,22.2-18.1c78.2-1.6,156.3-3.5,234.5-5.1c170.5-3.4,341-6.7,511.5-10.2c30.2-0.6,33.2-6.9,33.5-49.3
			c0.2-29.8-21.5-18.1-34.1-18.1c-292.1-0.6-584.2-0.5-876.3-0.5c-7.5,0-15.1-0.4-22.6,0c-11.4,0.7-16.1-2.9-17.4-15.6
			c-2.3-23.8,4-31.7,30.2-31.6c278.9,1.1,557.8,0.7,836.7,0.7c92.1,0,91.5,0.2,56.2-85.7c-8.3-20.2-18.2-28-41.4-27
			c-138.3,6.2-276.7,10.4-415.1,15.5c-13.3,0.5-26.6,4.6-25-17.7c1.2-16.4-2.4-30.6,23-30.9c73.4-0.8,146.9-4.2,220.3-6.7
			c63.5-2.1,126.9-4.3,195.2-6.7c-30.9-43.6-66.1-75.7-102.6-106.5c-10.1-8.5-20.1-11.6-33.3-11.4c-108.3,1.6-216.7,2.4-325,3.6
			c-123.4,1.4-246.8,2.9-370.2,4.3c-12.8,0.1-25.6,3.7-26.6-18c-1.1-23.4,5.1-29.7,29.1-29.8c202.6-1.3,405.1-4.1,607.7-6.8
			c8.3-0.1,18.1,3.4,26.9-5.4c-106.9-71.7-222.5-112.1-348.8-122.9c-166.7-14.2-333.2-1.4-499.9,1.8c-21.8,0.4-23.1,10.7-23.1,28
			c0.4,261,0.6,522-0.2,783c-0.1,22.3,5.9,28.4,28.1,28.2c127.2-1,254.4-0.1,381.6-0.5c141.9-0.4,274.1,35,394.2,110.5
			c23.7,14.9,35.7,15.8,58.9-2.6C2692.6,1120.6,2754.3,1066.1,2807.2,991.8z M177.3,530.1c10,6.3,19.6,3.9,28.6,4.1
			c196.8,5.8,393.5,11.6,590.3,16.4c19.5,0.5,24.9,4.9,24.2,25.4c-0.8,24.1-14.1,21.8-29.7,21.3c-187.4-5.5-374.7-10.8-562.1-16.2
			c-95.1-2.7-96.2-1.8-120,90.7c-9.1,35.5-9.1,35.5,26.7,35.5c222.3,0,444.7,0,667,0c7.5,0,15.1,0.2,22.6,0.1
			c11.4-0.2,16.1,4.7,17.4,16.7c2.7,23.9-4,31.9-30.2,31.7c-218.6-1.2-437.2-0.7-655.7-0.7c-66.1,0-65.4-0.1-54.2,65.4
			c3.4,19.7,11.2,25.6,31.4,24.9c108.3-3.7,216.6-6,324.9-8.6c119.6-2.9,239.2-4.8,358.7-8.8c24.3-0.8,23.8,11,25.6,28.6
			c2.3,23.3-13.1,18.1-25,18.5c-54.6,1.7-109.2,3.2-163.8,4.5c-168.6,3.9-337.1,8.1-505.7,11.2c-21.2,0.4-21.4,6.5-12.6,22.4
			c19.8,35.8,45.2,67,74,95.8c8.9,8.9,18.7,10.5,30.7,9.9c174-8.9,348-17.3,522-26.4c18.7-1,25.7,3.2,27.4,23.4
			c1.8,22.5-8.7,24.7-25.8,25.4c-143.9,6.3-287.9,13-431.8,19.8c-13.9,0.7-28.8-2.2-44.8,7.1c57.9,37.7,118.3,60.1,181.3,76.8
			c16.4,4.3,30.3,2.5,45.6-5.2c94-46.9,193.8-72.5,298.9-74.6c82.9-1.6,165.8-0.9,248.7-1.1c48.9-0.1,49.2,0,51.3-49.4
			c11-252.1,21.7-504.3,33.3-756.4c1-21-7.8-22.7-24.4-22.7c-137.5,0.2-275.1-0.9-412.6-0.2c-57.4,0.3-114.8,5.1-171.1,17.4
			c-25.5,5.6-51.8,9.9-79.9,29.1c25.3,1.3,43.9,2.6,62.6,3.3c98.8,3.8,197.7,7.3,296.5,11.2c11.5,0.5,27.6-5.5,25.8,18
			c-1.5,19.7-4.2,30-28.7,28.8c-135.5-6.4-271-10.9-406.5-15.7c-13.8-0.5-29-6.1-41.5,2.4c-35.6,24.1-68.1,51.8-99.1,88
			c10.7,1,17,2,23.3,2.1c103.6,2.5,207.2,4.7,310.8,7.3c82.9,2,165.7,4.6,248.6,6.5c14.3,0.3,21.4,2.8,22.3,20.2
			c1.1,24.2-7,29-30.3,28.3c-200.5-6.2-401.1-11-601.7-16.2c-7.4-0.2-15.8-2.2-21.2,4.7C204.4,489.8,187.5,507.3,177.3,530.1z
			 M2295.9,2018c91.4,0,182.8-0.7,274.1,0.5c21.7,0.3,26.6-6.6,26.4-27.2c-0.7-79.7-10.3-158.1-35.4-233.6
			c-52.1-156.3-150-265.5-317.8-300.1c-66.5-13.7-133.7-21.4-201.5-25.4c-23.8-1.4-30.1,4.9-30.5,28.4c-3.4,177-7.9,354-13.1,531
			c-0.6,21.7,5.6,27.1,26.6,26.9C2115.1,2017.4,2205.5,2018,2295.9,2018z M1098.2,1731.7c-0.3,0-0.6,0-0.9,0
			c3.6-85.6,6.4-171.2,11.3-256.8c1.3-23.7-6.2-25.4-26.9-22c-308.1,51.2-488.4,331.3-528,540.5c-4.1,21.5,1.3,25,21.1,25
			c162-0.7,324-0.7,486,0c18.8,0.1,26.3-4.3,26.9-24.2C1090.5,1906.7,1094.6,1819.2,1098.2,1731.7z M1716.7,648.2
			c0-130.9-0.5-261.7,0.5-392.6c0.2-21.4-6-28.1-27-26.3c-30.9,2.5-62.1,3.6-93.1,3.3c-19.7-0.2-24.4,7-24.9,26.3
			c-3.2,126.1-7.7,252.1-12.1,378.1c-4.7,134.5-9.4,269-14.9,403.5c-0.8,18.7,4.5,24.8,23.2,24.3c39.5-1.1,79.1-1.6,118.6,0.2
			c23.2,1,30.6-5.9,30.4-29.7C1716.1,906.1,1716.7,777.1,1716.7,648.2z M1174.9,671.5c-4.5,109.7-9.3,239.5-15.6,369.3
			c-0.9,19.7,5.3,24.3,23.2,23.8c37.7-1,75.4-1,113,0c16.5,0.4,22.8-3.8,23-21.8c1.1-78.2,3.9-156.3,6-234.4
			c5.1-182.7,9.9-365.3,15.5-548c0.6-18.3-3.9-25.1-23.1-24.3c-33.9,1.5-67.8,1.1-101.7,0.4c-14.7-0.3-21.4,2.5-22,19.7
			C1188.2,387.9,1181.9,519.6,1174.9,671.5z M1376.8,649.6c-0.1,0-0.2,0-0.3,0c-3.3,129.9-6.1,259.7-10.2,389.6
			c-0.6,20,4.8,26.6,24.8,25.5c27.2-1.5,54.7-1.8,81.9,0.1c22.2,1.5,26.3-7.8,26.5-27.7c0.8-70.6,3.2-141.1,5.7-211.7
			c6.6-189.1,13.3-378.1,20.9-567.2c0.8-19.5-5.4-24.1-23.4-23.3c-30.1,1.4-60.3,2.2-90.3,0.4c-22.3-1.3-26,7.7-26.4,27.6
			C1383.5,391.8,1380,520.7,1376.8,649.6z M1284.5,1686.5c-4.7,126.7-6.9,214.1-11.8,301.5c-1.5,26.3,7.3,31.3,31.2,30.5
			c48.9-1.7,97.9-1.8,146.7,0c25.3,1,29.3-5.9,23.7-30c-41.6-178.1-82.4-356.4-121.8-535c-5.4-24.6-17.5-24.7-37.1-24.7
			c-22.4,0.1-23.3,12.6-23.8,29C1289,1547.2,1286.1,1636.5,1284.5,1686.5z M1235.4,1725.2c2.8-75.2,5.9-150.3,8.4-225.5
			c2.3-68.4,2-67.8-66.6-61c-16.6,1.7-22.2,7.1-22.8,23.8c-5.3,164.4-11.8,328.8-17,493.2c-2,62.9-1,62,60.6,62.8
			c11.2,0.1,18.6-1.5,23.2-6c7.2-7.2,6.2-19,6-22.4C1225.7,1967.6,1229.4,1866.7,1235.4,1725.2z M1955.1,1727.4
			c-2.7-136.7,0.5-212.6,7.7-249.5c1.4-7.4,6-30.1-5.7-42.4c-6.1-6.4-18.7-6.7-44.3-8c-25.6-1.3-33.4,6.1-34.1,31.9
			c-4.6,163.8-11,327.5-16.7,491.3c-2.5,70.3-2.4,69.8,68.7,67.7c8.1-0.2,13.5-1.4,16.8-4.8c5.1-5.3,4.4-13.5,4.2-15.9
			C1950.7,1981.5,1952.4,1876.2,1955.1,1727.4z M1822.9,1720.4c0.2,0,0.4,0,0.6,0c3.1-87.4,5.2-174.9,9.8-262.2
			c1.4-26.8-7.7-32.5-32.6-32.5c-26.9,0-22,17.8-22.8,32.3c-9.7,176.5-19,353-28.1,529.6c-0.7,13.1-9.2,30.5,17.8,31
			c45.1,0.8,45.9,1.9,46.9-30.2C1817.4,1899,1820.1,1809.7,1822.9,1720.4z M1657.4,1719.4c0,91.4,0.1,182.7-0.1,274.1
			c0,13.9-1.3,26,19.4,24.9c16.1-0.9,25.3-2,26.2-22.5c8.4-174,18.7-347.8,27-521.8c2.8-58.8,7.4-46-45.4-49
			c-23.1-1.3-27.9,7.2-27.6,28.7C1658.1,1542.3,1657.4,1630.8,1657.4,1719.4z M1506.6,1425.3c0,0.8,0,1.5,0,2.3
			c-31,0-62.1,0.6-93.1-0.3c-14.2-0.4-18.6,4.7-15.4,18c4.4,18.3,8.4,36.6,12.5,54.9c2.7,11.9,8.3,16.2,21.8,14.5
			c41.9-5.5,83.9-9.8,126-13.3c53.3-4.4,57.4-9.1,52.2-61.8c-1.1-11.3-3.3-15.7-16.7-14.9
			C1564.9,1426.5,1535.7,1425.3,1506.6,1425.3z M1544.2,1750.2c0,0.1,0,0.3,0,0.4c-5.6,0-11.3-0.1-16.9,0
			c-61.2,1.4-60.7,1.2-45.4,61.7c3.1,12.1,6.9,17.8,20.1,17.5c31-0.7,62.1-0.2,93.1-0.3c6.5,0,14.6,0.7,14.7-8.7
			c0.3-23.3,8.1-49.5-3.6-68.9c-8-13.3-31.4-1-47.9-1.6C1553.6,1750.1,1548.9,1750.2,1544.2,1750.2z M1476.9,1609.9
			c38.7-4,77.1-9,115.5-11.5c31-2,15.1-24.3,17.6-37.8c3.3-17.6-8.4-16-21.2-14.5c-43.9,5-88,8.8-132,13.2
			c-30.7,3.1-39,20-21.3,45.7C1447,1621.6,1463.5,1604.3,1476.9,1609.9z M1531.4,1705.2c0-0.5,0-1.1,0-1.6c21.5-1.4,43.1-2,64.5-4.3
			c27.4-3,11.3-24.4,14.2-37.4c3.2-14.1-5.6-16.7-18.5-15.4c-38.2,3.9-76.4,8-114.7,9.3c-26.3,0.9-30.8,10.6-23.3,34.2
			c4.1,12.9,9.8,15.8,21.7,15.4C1493.9,1704.7,1512.6,1705.2,1531.4,1705.2z M1555.7,1876.3c-13.1,0-26.3,0.7-39.4-0.2
			c-16.6-1.1-17.9,6.7-15.6,20.7c3.2,19.6,10.8,30,32.9,27.4c16.6-2,33.8-1.3,50.6-0.2c18.2,1.2,26.9-3,27.1-24.2
			c0.2-22-9.9-25.1-27.4-23.7C1574.5,1877,1565,1876.3,1555.7,1876.3z M1564.6,1971c-11.2,0-22.4-0.1-33.6,0
			c-5.7,0.1-9.9,0.3-10.5,8.7c-1.7,23.1,10.8,38.1,33.7,38.3c11.2,0.1,22.5-1,33.5,0.2c19.3,2.1,23-7.2,23.3-24.5
			c0.4-18.7-6.1-25.4-24.1-23C1579.6,1971.7,1572,1970.9,1564.6,1971z"/>
		<path class="st0" d="M1486.4,2622.2c-44,0.4-86.5-6.4-126.6-24.3c-40.4-18-63.2-49.3-65-94.2c-0.3-8.3-4.5-22.6,11.1-19.4
			c12,2.5,33.2-10.3,34.9,14.8c2.4,34.3,22.5,51.7,53,61.6c24.4,7.9,49.5,14.3,74.7,13.2c84.6-3.8,169-10,253.5-14.5
			c25.6-1.4,37.1-13.9,31.6-38.2c-6.7-29.7,16.5-28.5,32.7-34.1c9.1-3.2,10.2,5.7,12,11.8c16.8,54.7-9.6,100.8-67,106.6
			C1650,2613.9,1568,2616.9,1486.4,2622.2z"/>
		<path class="st0" d="M1018.3,2577.6c0.8,30.2-26,58.2-56.7,59.1c-31,0.9-58-25.1-58.6-56.5c-0.7-31.6,24.6-58.2,56.1-59
			C989.7,2520.5,1017.4,2546.9,1018.3,2577.6z"/>
		<path class="st0" d="M867.6,2367.1c-32.6-0.5-57.4-25.4-56.6-56.9c0.8-31.1,28-57.2,58.9-56.5c31.1,0.7,57.4,28,56.6,58.8
			C925.8,2344.1,900.4,2367.6,867.6,2367.1z"/>
		<path class="st0" d="M2287.9,2344.4c-33.2-0.2-57.4-24-57.1-56.1c0.3-31.1,27-57.5,58-57.2c31,0.3,57.6,27.2,57.4,58.1
			C2345.9,2320.9,2320.9,2344.6,2287.9,2344.4z"/>
		<path class="st0" d="M2269.7,2192.2c-32.8,0-57.1-23.7-56.7-55.4c0.3-32.9,24.2-54.5,60.1-54.5c31.6,0.1,54.7,22.4,55.5,53.7
			C2329.4,2168.8,2304.9,2192.3,2269.7,2192.2z"/>
		<path class="st0" d="M869,2214c-32.1,0.1-57.8-25.1-58-56.7c-0.1-31.8,24.9-56.4,57.5-56.5c32.6-0.1,57.9,24.3,58,56.1
			C926.7,2188.4,901,2213.9,869,2214z"/>
		<path class="st0" d="M2261.8,2497c-32.9,0.4-58.1-23-59-55c-0.9-31.8,23.7-57.5,55.9-58.4c31.9-0.9,58.3,23.7,59.3,55.3
			C2319,2470.3,2293.6,2496.6,2261.8,2497z"/>
		<path class="st0" d="M847,2449.9c-0.1-32.4,24.7-57.3,57-57.2c31.7,0.1,57.8,25.7,57.9,57.1c0.1,30.6-26.9,57.8-57.7,58
			C873.3,2508,847.2,2481.5,847,2449.9z"/>
		<path class="st0" d="M2203.9,2496.5c31.8-0.4,58.2,24.9,58.4,56.1c0.2,30.9-26.4,57.2-57.9,57.2c-32.5,0-57.3-24.4-57.4-56.7
			C2146.9,2520.5,2170.6,2496.9,2203.9,2496.5z"/>
		<path class="st0" d="M2020,2237.1c-8.5,0-16.9,0.2-25.4,0c-27.6-0.6-36.2-14.5-26-40.1c3.7-9.2,10.1-6.5,16.1-6.6
			c22.6-0.3,45.6,2.2,67.6-1.3c22.3-3.6,27.2,5,29.6,24.3c2.7,21.7-9.8,23.1-25.1,23.2c-12.2,0.1-24.5,0-36.7,0
			C2020,2236.7,2020,2236.9,2020,2237.1z"/>
		<path class="st0" d="M2024.2,2266.7c8.4,0,16.9,0.8,25.2-0.2c19.2-2.2,26.3,5.1,27.1,25c0.7,19.9-7.5,24.1-24.5,23.2
			c-15.8-0.8-31.7-0.2-47.6-0.1c-17.4,0.2-32.3,2-31.2-25.3c1.1-28.3,18-22.6,34.2-22.7C2013,2266.7,2018.6,2266.7,2024.2,2266.7z"
			/>
		<path class="st0" d="M1215.6,2502.4c-6.6,0-13.2-0.7-19.7,0.1c-18.6,2.5-26.4-2.8-26.2-23.8c0.2-20.6,7.6-26.1,26.4-24.5
			c14,1.2,28.2,1.2,42.2,0.1c17.6-1.4,24.7,3.8,24.7,23.2c0,19.1-4.5,28.1-24.9,25.1C1230.8,2501.5,1223.1,2502.4,1215.6,2502.4z"/>
		<path class="st0" d="M1068.5,2279.1c-0.2-13-1.3-25.2,18.2-24c14.9,0.9,31.5-3.6,29.5,21.2c-0.7,9.2,2.4,18.6,3.6,27.9
			c3.3,24.9-6.5,35.1-31.7,34.3c-10.6-0.3-12-6.9-13.1-14.7C1072.9,2308.9,1070.7,2294,1068.5,2279.1z"/>
		<path class="st0" d="M2013.7,2400.5c-6.7,10.6,15.3,35.4-17.5,38.3c-21.3,1.9-32.3-3.4-28.8-26.9c1.1-7.3,0.4-15-0.2-22.5
			c-1.4-19-2.3-33.7,25.8-33.9c28.7-0.2,19,17.7,20.7,31.3C2014.1,2390.5,2013.7,2394.3,2013.7,2400.5z"/>
		<path class="st0" d="M1917.1,2502.9c-7.5,0-15.1-0.7-22.5,0.1c-21.3,2.4-18.1-12.1-19-25.2c-1-15.1,3.3-22.9,20.1-21.4
			c14,1.2,28.3,1.4,42.2,0c19.1-2,23.9,6,23.7,24c-0.2,16.5-4,25-22,22.7C1932.2,2502.2,1924.6,2502.9,1917.1,2502.9z"/>
		<path class="st0" d="M1138.7,2388.5c25.8-5.8,19.9,14.4,23.6,27.6c5.6,19.9-7.8,18.6-20,19.9c-9.3,1-18.5,3.5-27.8,3.9
			c-13.2,0.7-27.8,5.9-29.1-17.9c-1-19.2-0.1-30.3,22.8-29.2C1118.3,2393.4,1128.5,2390.1,1138.7,2388.5z"/>
		<path class="st0" d="M1100.2,2230.6c-16.9,2.5-27.9,0.9-27.9-21.6c0-21.4,7.1-26.5,27.4-26.5c20,0,27.4,4.4,27.2,26.2
			C1126.7,2230.6,1117.3,2233.7,1100.2,2230.6z"/>
		<path class="st0" d="M2102.3,541.5c35.7,0,71.5,1.2,107.1-0.5c17.2-0.8,21,5.1,20.4,20.3c-0.6,14.2,3.2,28.4-19.6,28.4
			c-49.8-0.1-99.6,1.4-149.5,2.4c-20.7,0.4-41.6-0.7-62,2.1c-23.2,3.2-25.9-7.3-26.3-26.8c-0.4-18.2,5.9-22.1,22.6-21.6
			c35.7,1.1,71.5,0.3,107.2,0.3C2102.3,544.6,2102.3,543.1,2102.3,541.5z"/>
		<path class="st0" d="M1904.1,429.6c-0.7,25.7-21.8,44.5-48.6,43.4c-25-1-43.9-21.3-43-46.1c0.8-24.5,21.4-44.5,45.7-44.5
			C1883.4,382.3,1904.8,404.3,1904.1,429.6z"/>
		<path class="st0" d="M1925.7,953.7c0,26.4-20.2,45.6-47.1,44.9c-24.9-0.6-44.6-20.6-44.5-45.1c0.1-24.3,20.4-44.8,44.7-45.5
			C1905.1,907.4,1925.7,927.6,1925.7,953.7z"/>
		<path class="st0" d="M1925.7,590.9c0.5,25.3-18,44.8-43.2,45.8c-26.4,1-47.8-18.4-48.3-44c-0.5-24.1,19.4-45.3,43.7-46.5
			C1904,545,1925.2,564.8,1925.7,590.9z"/>
		<path class="st0" d="M1881.4,817.7c-26.4,0.6-47.4-19.5-47.2-45.1c0.2-24.2,20.5-44.8,44.8-45.4c26.1-0.6,46.8,19.6,46.7,45.8
			C1925.6,798.3,1907,817.1,1881.4,817.7z"/>
		<path class="st0" d="M1075,428.5c-0.1,25.9-21.1,45.8-47.4,45c-25.6-0.8-43.8-19.6-43.7-45.4c0.1-25.6,21.8-46.8,46.9-45.9
			C1054.9,383.2,1075.1,404.4,1075,428.5z"/>
		<path class="st0" d="M1007.5,830c-25.2-0.1-44.8-19.1-45.4-44c-0.6-25.4,20.7-47.3,45.8-47.3c24.9,0,45.9,22.2,45.1,47.8
			C1052.2,811.8,1033.2,830.1,1007.5,830z"/>
		<path class="st0" d="M1075,619.3c0,25.4-21.6,46.3-47.1,45.5c-24.8-0.7-43.9-20.5-43.9-45.5c0-26.5,19.8-45.7,46.7-45.1
			C1055.3,574.7,1075,594.7,1075,619.3z"/>
		<path class="st0" d="M1053,966.7c0.6,25.8-20.1,47.3-45.5,47.1c-24.3-0.2-44.8-20.4-45.4-44.7c-0.7-25.9,19.9-47,45.7-46.8
			C1032.5,922.4,1052.4,942,1053,966.7z"/>
	</g>
</g>
</svg>
