<?xml version="1.0" encoding="utf-8"?>
<!-- Generator: Adobe Illustrator 23.0.0, SVG Export Plug-In . SVG Version: 6.00 Build 0)  -->
<svg version="1.0" xmlns="http://www.w3.org/2000/svg" xmlns:xlink="http://www.w3.org/1999/xlink" x="0px" y="0px"
	 viewBox="0 0 3000 3000" style="enable-background:new 0 0 3000 3000;" xml:space="preserve">
<style type="text/css">
	.st0{stroke:#000000;stroke-width:10;stroke-miterlimit:10;}
</style>
<g id="Layer_1">
</g>
<g id="Layer_2">
	<g>
		<path class="st0" d="M734.4,2451.6c-30.7,26.6-56.2,49.1-82.1,71.2c-21.3,18.2-43.1,35.9-68.6,47.9
			c-65.1,30.7-131.6,11-169.8-49.9c-14.3-22.9-23.9-47.8-25.6-74.7c-0.8-12.9-5.9-16.5-17.5-17.6c-28.2-2.7-56,1.9-83.8,3.6
			c-126.2,8.1-208.4-81.6-192-207.4c9.3-71.5,40.7-134.9,66.5-200.4c92.7-234.9,136.3-478.5,131.6-730.8
			c-1.7-90.5-0.5-180.7,23.2-269c19.7-73.2,49.9-142.4,82-210.8c65.3-139.1,142.5-271.4,228.2-398.7
			c75.3-112,170.1-203.2,295.3-256.7c96.8-41.3,200.2-61.4,304.1-78.1c208.2-33.6,417.3-22.8,626.3-13.3
			c138.5,6.3,276.9,15.6,415.4,20.6c183,6.5,299,104.5,379,259.1c55,106.2,78,219.4,78.4,338.2c0.4,125.4-0.3,250.8,4,376.1
			c4.8,140,14.1,279.8,16,419.9c1.3,100.9-3.8,201.7-7.3,302.4c-5.3,151.3-23.4,301.4-55.1,449.3c-46.4,216.5-145.8,406-303.8,562.2
			c-66,65.2-144.5,112.1-237.6,129.9c-44.4,8.5-89.4,8-134.1,5.7c-176.6-8.8-353,1.3-529.4,3.9c-173,2.6-346.1,3.3-517.2-28.8
			c-46.6-8.7-90.1-25.5-127.7-55.4c-51.5-40.9-73.1-97.2-83.7-159.7C736.1,2613.7,729,2536.6,734.4,2451.6z M444.5,840
			c-2.6,4.2-4.6,6.9-6.2,9.9c-71.5,139.6-101.6,287.1-94.2,444.2c6.4,136.1-8.9,271.3-34.2,405.2
			c-28.7,152.1-78.9,297.3-138.8,439.4c-13.4,31.8-22,64.7-25.4,99.2c-9,89.8,44.7,146.8,134.4,142.9c32.1-1.4,64.2-8.4,96.4-3.1
			c12.6,2.1,15.5-2.9,17.7-13.2c5.3-25.4,15.2-49.4,24.8-73.5c13.7-34.3,13.6-33.5,47.3-18.5c12.5,5.6,12.6,11.1,7.5,21.9
			c-12.2,26-22.6,52.8-29.3,80.8c-10,41.4-10.6,81.9,14.2,119.3c26.6,40.3,64.7,50.1,107.3,27.2c24.8-13.4,46-31.7,67-50.3
			c84-74.5,170.1-146.1,273.2-193.6c106.1-48.8,215.7-68.4,330.8-36.8c33,9.1,32.5,9.1,21,40.1c-4.9,13.3-10,17.9-25.6,12.5
			c-53.3-18.3-108.5-20-164-12c-96.6,14-180.3,57.5-259.4,112.5c-15.6,10.9-20.8,23.1-22.3,41.4c-6.6,83.7,0.1,166.4,13.3,249
			c13.4,84.4,57.7,140.7,141.7,163.5c61.2,16.6,123.9,22.8,186.7,27.7c139.9,10.8,280,9.9,420.1,5.6c14.8-0.5,29.7-0.1,47.6-0.1
			c-7.5-10.8-11.9-17-16.2-23.4c-64.5-95.4-89.6-199.8-68.9-313.6c13-71.3,41.3-137.9,68.3-204.7c44-109,107.8-207.1,168.7-306.8
			c57.9-94.7,91.8-197.6,102.1-308c14.1-150.2,32.8-300,36.3-451c2.6-112,9.6-224,1.9-336.1c-3.6-51.5-14.4-99.6-59.1-133.5
			c-80.6-61.2-99.8-205.6-7.4-272.6c13.8-10,11.3-21.4,1.1-32c-9.2-9.6-19.4-18.1-29-27.4c-47.8-46-48.3-93.4-1.4-140.5
			c17.8-17.8,36.6-34.7,53.8-53.2c41.2-44.2,70-95.5,87.1-154.7c-5.6-0.7-9.7-1.5-13.7-1.7c-122.4-6.6-244.8-12.6-367.5-12.7
			c-35.2,0-35.1-0.1-37.9,34.5c-1,11.9-2.6,23.7-4,35.5c-10.3,87.9-16.1,175.9-45.5,261.4c-83,241.4-241.3,400-492.6,456.9
			c-103.5,23.4-210.2,20-315.8,19.3C577.5,916.3,502.9,901,444.5,840z M1853.1,2877.5c81.5-2.7,136.7,1,192,2.5
			c29.5,0.8,59-0.3,87.9-5.9c79.5-15.3,145.8-56.8,204.2-110.4c94.3-86.4,159.6-194,216.9-306.9c10-19.7-5.2-15.2-14-15.9
			c-160.6-13.7-272-102.7-319.9-257.1c-38-122.5-53.6-248-55.9-376.3c-3.1-176,16.4-348.8,58.8-519.4c6.9-27.7,17.8-54.6,18.5-83.6
			c2.9-119.3,33.3-227.9,118.7-316.5c58.2-60.4,126.4-105.8,203.2-138.5c29.6-12.6,59.9-23.4,90.1-34.6c15-5.5,22.4-14.2,20.1-31.4
			c-2.3-17.3-2.3-34.9-2.9-52.4c-4.5-124.7-46.3-236.8-117.6-337.9c-62.9-89.2-146.2-143.6-258.7-150.7
			c-95.7-6.1-191.5-11.4-287.2-16.6c-15.5-0.9-21.8,3.5-26.3,18.3c-24.5,81.1-69.6,149.1-132.8,205.3c-9.4,8.4-18.6,17.1-26.7,26.8
			c-16.7,19.9-16.4,32.4,1.3,51.5c9.5,10.2,20.6,19,30.4,28.9c41.6,41.8,40.8,81.7-3.9,120.1c-27.2,23.4-38.9,52.1-37,87.2
			c2.1,40.5,17.5,75.1,49.6,100.3c51.3,40.2,72.6,95,76.9,157.3c10.6,155.5,1.6,310.8-6.5,466c-3.9,74.7-11.2,149.3-18.6,223.8
			c-7.2,71.6-12.4,143.7-27.1,214.3c-21.7,104.3-68.4,198-126,286.6c-75.9,116.7-136.9,240.3-181.1,372.6
			c-46.1,138.2-24.3,263.3,67.1,376.5c8.2,10.1,16,17.1,31.1,16.8C1744.7,2876.9,1812,2877.5,1853.1,2877.5z M2674.8,888.8
			c-0.3,0-0.6,0-1,0c0-36.4-0.1-72.8,0-109.3c0-9.4,0.6-16.6-13.5-11.8c-69,23.8-136,51.5-194.9,96
			c-84.4,63.7-148.7,141.9-162.7,250c-13.2,102-20,204.9-18.6,307.9c0.8,64.7,30.9,115,86.8,149.2c37.5,23,78.3,36.4,121.4,44.4
			c62.1,11.5,125.5,10.7,187.9,20.1c12.9,1.9,11.2-6,11.4-13.7c2.1-74.2,1.2-148.5,0.3-222.7c-0.2-12.7-5-16.8-16.3-18.9
			c-32.9-6.1-62.5-20-89.2-40.1c-77.4-58.3-104.8-183.8-13.1-262.5c28.1-24.1,56.6-48.1,90.4-64.1c9.3-4.4,11.4-9.8,11.2-19.3
			C2674.5,958.8,2674.8,923.8,2674.8,888.8z M2688.8,1740.7c0-13.3-0.5-26.6,0.2-39.9c0.4-9.5-2.2-13.8-12.6-14.6
			c-28.6-2.1-57.1-5.8-85.7-7.9c-60.8-4.6-121.4-10.6-179.3-31.3c-9.9-3.6-17.1-1.8-25.3,3.6c-39,25.5-73.9,55.6-102,93
			c-42.2,56.2-64.2,118.8-59.7,190c5.6,90.7,24.7,178.7,55.7,263.7c43.8,120.4,158.6,196.4,285,192.1c8.7-0.3,17.5,1.5,21.9-10.8
			c22.5-63.4,40.6-128,53.9-193.9c2.5-12.4-1.6-17.1-14.3-19.4c-29.9-5.3-57.6-17.3-83.5-33c-41.5-25.1-72-59.8-76.8-109.4
			c-5.6-57.1,12.6-109.2,45.6-155.6c12.5-17.5,31.6-27.6,52.1-33.8c21.3-6.4,43-11.6,64.5-17
			C2686.7,1801.8,2686.7,1801.9,2688.8,1740.7z M1408.2,112.6c-37.7,2-75.3,5.6-112.9,9.4c-13.4,1.4-18,2.4-13.7,17.5
			c8.1,28.6,7.6,58,1.8,87.3c-13.1,66.3-64.9,112.4-125.4,111.4c-86.4-1.5-144.1-50.5-161.1-137.6c-2.1-10.6-4.8-14.4-16.1-10.6
			c-63,21.5-119.3,54.7-170.3,97.2c-6,5-8.7,9.7-4.3,17.9c37.8,70.7,78.7,138.7,144.1,188.4c27.6,21,50.7,46.6,63.6,79.3
			c5.3,13.4,12.5,17.3,26.2,17.4c114.1,0.6,215.8-34.7,305.4-104.9c39.1-30.6,73.3-65.1,88.5-114.3c8.2-26.7,9.5-54.6,12.8-82
			c6-50,10.6-100.1,16.1-150.2c3.2-29.4,3.4-29.5-25.2-28.2C1427.7,111.2,1418,112,1408.2,112.6z M650.3,473.3
			c66.3,33.3,95.2,64.4,109.1,117.7c7.5,28.7,7.9,57-9.1,82.9c-45.3,69.4-162.7,87.5-225.6,34c-11.3-9.6-13.6-3.8-17.8,4.3
			c-10.6,20.5-20.5,41.4-32,61.4c-6,10.4-4.3,17.6,3.1,26.1c24.2,28,54.5,46.5,90.1,54.5c77.4,17.3,156.2,19.5,233.6,5
			c87.1-16.3,134.7-81.5,165.9-157.8c27-66,6.4-125.6-51.1-168.7c-22-16.5-41.2-35.7-59.3-56.3c-34.8-39.7-62.4-84.2-87.6-130.4
			c-2.8-5.1-4.1-17.7-15.4-6.5C713.7,379.7,679.7,424.6,650.3,473.3z M1366,538.3c-97.8,67.9-205.4,103.8-324.6,103.6
			c-10,0-11.2,4.7-11.7,12.7c-3.9,68.5-36.5,123.7-81.2,173.1c-6.6,7.3-13.3,14.5-19.9,21.7C1127.5,818.8,1271.8,713.6,1366,538.3z
			 M2679,1892.6c0.4-4.9,0.1-9.9,1.2-14.6c4.1-17.9-1.6-22.8-19.2-16.8c-15.8,5.4-32.2,10.8-48.7,12.5
			c-53.2,5.4-77.4,39.2-88.6,86.7c-2.1,8.8-3.8,17.8-5.5,26.7c-6.7,34,4.2,62.3,29.5,84.9c25.6,23,56.7,35.3,89.8,43.3
			c11,2.7,14.8-1.7,16.2-12.3C2663.3,2033,2675.9,1963.4,2679,1892.6z M2683,1201.4c-1.6,0-3.2,0-4.7,0c0-40.5-0.1-81,0-121.5
			c0-11.4-2.4-16.5-13.8-7.6c-11,8.6-22.8,16.2-33.8,24.7c-22.8,17.5-45.8,35.2-56.1,63.5c-24.4,67,15.7,144.8,102.9,167.5
			c13.6,3.5,11-6.2,10.7-13.5C2686.5,1276.7,2684.7,1239.1,2683,1201.4z M1236.9,188.8c-1.8-18.1-3.5-33.4-8.3-48.2
			c-1.9-5.9-3.3-9.3-11.3-7.9c-53.6,9.9-106.7,21.5-159.4,35.5c-11.7,3.1-12,9.4-11,18.3c4.9,43,25.6,74.7,66.3,91.8
			c55.7,23.4,101.4,2.1,117.7-55.1C1234.2,211.3,1235.2,198.6,1236.9,188.8z M614.7,687.7c32.2-0.3,59-10.7,82.3-30.5
			c11.5-9.8,16.3-21.6,15.2-37c-3-41.5-36.3-83.3-76.9-96.2c-11.1-3.5-18-1.9-24.2,8.7c-17.6,30.3-36.3,59.8-54.1,89.9
			c-18.1,30.4-11.8,46.4,22.1,59C591.2,686.2,603.7,687.1,614.7,687.7z M2344.7,1616.3c-24.8-17.8-47.3-35.2-64.9-58.2
			c-17.9-23.4-30.8-49.3-41.6-82.4c-14.5,92.9-23.5,180.4-21.9,274.7C2252.2,1694.8,2292.9,1651.5,2344.7,1616.3z"/>
		<path class="st0" d="M1159.1,1499.7c24.7,56.4,13.2,106-9.4,155.5c-33.4,73.1-60.6,149.2-108.8,214.7c-0.6,0.9-0.1,2.6-0.1,5.5
			c46.6-3.9,92.9-2.7,138.6,8c44.4,10.3,87.1,24.8,127.6,46.2c135.5,71.8,193.9,213.8,147.1,359.7
			c-20.1,62.7-55.4,115.7-102.3,161.6c-9.6,9.4-14.5,8.5-22.6-1.3c-21.6-25.9-21.8-25.3,1.2-50.7c65.2-72.2,100.1-154.9,83.6-253.7
			c-12.4-74.3-56.9-126.9-120.3-163.5c-92.8-53.6-192-70.1-297.2-46.5c-10.5,2.4-19.2,7.1-27.3,14.4c-18.7,16.9-38.5,32.5-57.2,49.4
			c-7.9,7.2-11.3,5.5-17.4-2.4c-23.7-30.6-24.4-30.8,6.1-54.9c83.6-66.3,138.8-152.4,177.2-250.6c10.7-27.3,23.3-53.8,34.6-80.9
			c20.8-49.4,7.9-106.4-37.4-133.8c-53.9-32.6-113.6-52-178-41.3c-47,7.8-81.1,34.8-94.6,81.7c-5.2,18.2-14.1,21.2-29.8,17.5
			c-8.8-2-17.7-3.3-26.5-5c20.4-109.7,118-170.5,230.6-143.8c40.1,9.5,80.5,19.2,116.6,40.2c11.7,6.8,13-1.9,16.2-8.1
			c20.5-39.8,48-74.1,83.5-101.4c79-60.8,167.4-78.4,263.5-53.3c36.1,9.4,72,16.2,109.4,16.9c74.2,1.4,148.4,4.4,222.6,5.5
			c17.1,0.3,23.2,4.4,21.7,22.4c-3,34.4,4.7,29.8-31,29.4c-58.1-0.6-116.2-2.4-174.3-4.2c-10.1-0.3-16.7,2-21.5,12
			c-68,142.8-238.5,215.1-405.4,160C1173.4,1503.7,1168.8,1502.5,1159.1,1499.7z M1296.8,1472.3c29,1.1,61.8-6.2,93.5-17.7
			c58-21.1,102.9-58.5,135.5-110.8c6.4-10.2,5.6-14.1-7.5-14.7c-27.4-1.4-53.4-10.4-79.7-17.3c-106.3-27.8-221.2,20.6-275.8,115.8
			c-6.2,10.9-4.8,15.2,6.5,19.6C1208.7,1462.5,1249.1,1472.5,1296.8,1472.3z"/>
	</g>
</g>
</svg>
