<?xml version="1.0" encoding="utf-8"?>
<!-- Generator: Adobe Illustrator 23.0.0, SVG Export Plug-In . SVG Version: 6.00 Build 0)  -->
<svg version="1.0" xmlns="http://www.w3.org/2000/svg" xmlns:xlink="http://www.w3.org/1999/xlink" x="0px" y="0px"
	 viewBox="0 0 3000 3000" style="enable-background:new 0 0 3000 3000;" xml:space="preserve">
<style type="text/css">
	.st0{stroke:#000000;stroke-width:10;stroke-miterlimit:10;}
</style>
<g id="Layer_1">
</g>
<g id="Layer_2">
	<g>
		<path class="st0" d="M824.6,772.3c-65.3-26.5-99.1-78.1-106.8-144.1c-11.1-94.7-9.7-190,12.6-283.4
			c46.8-196.8,253.9-248.4,400.4-157c16,9.9,31.5,20.5,45.2,33.4c6.9,6.5,11.3,7.5,19.1,0.4c106.9-97.2,276-102.2,397.9-29.7
			c12.2,7.3,19.8,7.5,31.7-1.7c176.2-136.2,369.9-153,567.6-62.9c131.2,59.7,203.3,173.7,204.3,320.6
			c0.9,129.5-67.7,221.5-178.7,283.6c-5.6,3.2-11.5,6-17.2,9c-0.4,0.2-0.7,0.9-1.6,2.4c1.9,2.1,3.7,4.6,6,6.6
			c117.1,97.6,169.2,286.3,84.7,457.1c-39.9,80.7-98.3,145.2-171.5,196.9c-3.6,2.6-7,5.5-11.8,9.3c49.7,34.9,92.9,75.3,128.3,123.6
			c68.2,93.1,104.2,197.1,104,312.8c-0.1,65.9,4.6,132.1-3.1,197.8c-19.9,171.5-104.8,302.8-249.7,395.4
			c-16.4,10.5-13.8,14.5-2.5,26.4c44.7,46.8,82.2,98.4,96,163.4c16,75.1-8.3,137.3-61.9,190c-87.5,86.1-194.1,130.9-314.9,142.3
			c-115.8,10.9-216.7-26-302.7-103.3c-12.1-10.9-18.1-11.9-30.9-1c-40.9,34.7-91.8,46.3-142.7,56c-82.7,15.7-166.1,27.4-250.6,20.2
			c-121.2-10.4-228.7-50.3-302.9-153.2c-66.4-92.2-70.3-204.4-12.6-288.8c21.2-31,48.9-54.7,84-73.7c-9.8-8.2-18.6-15.4-27.1-22.8
			c-123.8-107.1-188.3-241.8-190.5-406.1c-0.9-67-3.5-134.1,3.9-200.8c15.2-137.2,77.8-250.1,180.8-341.2c6.2-5.5,14-9.3,17.7-17.3
			c-134.5-85.3-186.7-276.4-130.5-451.7c23.7-73.9,61.7-139.2,116-194.8c3.2-3.2,6.1-6.6,9.1-10
			C824.1,775.3,824.1,774.5,824.6,772.3z M1262,2474.2c51.4,0,95.4-0.4,139.3,0.3c11.5,0.2,19.1-3.4,26.4-12.2
			c28.5-34.5,54.7-70.5,77.1-109.2c68.6-118,100.7-243.6,72.6-379.5c-23.9-115.9-87.1-204.3-193.1-260c-7.9-4.2-15.6-7.6-25.7-6
			c-91.5,14.9-180.9,37.4-267,72c-159.1,63.8-294.4,158.3-388.8,304.8c-1.7,2.7-4,7.6-5.5,7.5c-21.4-2.3-9.6,12.1-7.9,17.8
			c54.7,188.1,176.8,306.7,367.4,353.3C1126.7,2480,1198.3,2472.9,1262,2474.2z M1452.4,1695c2.6,3.7,3.4,5.5,4.8,6.5
			c72.1,52.8,122.7,121.5,151.4,206c3.7,11,10.3,11,19.2,10.6c36.8-1.7,73.7-3,110.5-4.4c23.3-0.9,45,2.8,62.1,21.1
			c36,38.5,34.9,118.6-3.8,154.1c-10.9,9.9-11.1,16-4,28.1c46.6,78.7,5,157.9-86.1,163.6c-30.9,1.9-62.1,0.5-93.1-0.5
			c-14-0.5-22.1,3.2-27.7,17.4c-17.9,45.2-42.4,87.1-70,127.1c-10.9,15.7-22.2,31.2-33.4,46.8c2.2,1.3,3.2,2.5,4.2,2.5
			c122.2-1.1,244.7,6.5,366.6-3.2c199-15.8,369-158.4,420.4-351.6c30.2-113.6,21.1-229.6,11.7-345.1c-1.2-14.5-7.1-21.2-20.9-25.4
			c-71.8-22.1-144.7-39.3-219-49.5C1848.7,1671.9,1651.9,1674.5,1452.4,1695z M976.9,1352c-3.9-4.2-6-6.6-8.2-8.9
			c-83.5-87.3-122.7-191.1-116.7-312c5.2-104.3,63.8-173.4,165.4-193.6c33.1-6.6,66.6-8.2,100.4-6.9c43.3,1.7,86.4,7.5,129.8,4.6
			c33-2.2,32.7-2.4,38.3,30.1c1.7,9.8,0,13.7-10.6,14.9c-36.8,4.4-73.6,2.9-110.4,0.7c-49.5-3-98.8-6.7-148,5.2
			c-60.7,14.7-100.5,50.3-111.5,112.3c-23.4,132.3,21.4,241.2,118.1,331.2c7.7,7.1,15.6,4.8,23.6,3.1c39.4-8.4,79.2-11.7,119.4-11.4
			c56.9,0.4,113.8,0.1,170.7,0c7.6,0,14.7,0.5,21.9-4.8c86.2-63.7,133-149.8,136.5-255.9c4.7-142.3-63.5-247-184.1-316.1
			c-157.9-90.3-370.7-45.3-487.5,102.6c-95.9,121.4-128.4,257.7-76.2,407.6c20.7,59.6,57.3,108.3,113.3,140.2
			c6.6,3.7,12.9,8.5,21.4,3.1C911.6,1379.8,942.8,1365.8,976.9,1352z M1965.5,122.1c-132.5,0-232,36.8-324,115.4
			c-53.3,45.5-91.7,100.5-98.5,172.3c-10.8,113.7,40.1,200.9,121.7,274.1c5.4,4.9,10.9,6.1,17.8,4.3c68.9-18.5,139.5-18.9,210-18.4
			c83.4,0.6,167.2,1.3,245.4,37.4c5.6,2.6,11.3,2.2,17,0.1c106.8-37.9,194.7-133.5,194.7-254.8c0-128.5-64.7-222-175.4-283.3
			C2105,131.1,2027.8,125,1965.5,122.1z M2145.7,1511.6c0.9-1.5,1.8-3.1,2.7-4.6c-4.5-3.5-9.4-6.6-13.6-10.5
			c-92.5-84-201.5-127.3-326.2-127.8c-217.3-1-434.5,0-651.8-0.3c-52.5-0.1-103.8,8.4-152.7,25.8
			c-160.9,57.4-265.6,169.2-313.7,333.2c-11.5,39.3-16.1,80-16.5,126.7c30.2-38.7,60.4-69.5,93.9-97c85.9-70.4,185.4-114.4,290-148
			c168.5-54.1,341-89.1,517.2-106c147.1-14.1,294.3-15.8,441.6-3.7C2059.7,1503,2102.6,1507.6,2145.7,1511.6z M1876.3,2902.1
			c82.2-18.4,149.6-56.7,206.8-113.6c60.2-60,70.2-128,29.1-202.8c-19.8-35.9-45.3-67.4-74.6-96.2c-10.3-10.1-18.6-12.1-32.1-6.4
			c-62.2,26-127.3,38.1-194.6,38.1c-108,0-216,0.1-324.1,0.2c-6.8,0-13.7,0-20.1,0c-0.4,2.6-0.8,3.4-0.6,3.7
			c2.3,3.1,4.6,6.2,7.1,9.1c67.5,79.8,89.5,167.3,44.9,265.9c-3.4,7.5-1.6,11.7,3.6,16.7c81.1,77.2,177.3,110.8,288.8,99.8
			c6.7-0.7,13.3-1.3,14.7-9.6c6-33.8,25.1-62,39.9-92c9.3-18.7,16.5-38,17.3-59.1c1-28.7-6.5-54.3-32.6-70.2
			c-26.9-16.4-68.1-1.7-60.5,34.6c2.2,10.3-7,9.5-11.6,11.8c-9.5,4.6-17.5,13.7-29.2,11.6c-2.1-0.4-3.7-6.4-4.8-10
			c-5.9-20.2-3.5-39.8,6.2-58.2c30-57.1,114.1-59.3,154.7-3.7c35.5,48.7,31.2,100.4,8.4,152.7
			C1902,2849.9,1886.5,2873.3,1876.3,2902.1z M2266.4,1699.3c-14.9-46.5-36.4-85.3-61.3-122.4c-4.8-7.2-11.4-9.5-19.5-10.7
			c-69.7-10.5-139.8-18.2-210.1-22.6c-266.7-16.5-529.5,8.6-787.9,77.1c-105.7,28-209.8,60.3-305.2,115.4
			c-80.9,46.7-149.1,106.4-197.1,187.8c-20.7,35.2-9,71.5-7.4,107.9c4.1-2.1,6.1-4.5,7.9-7c60.1-83.6,135.6-150.5,222.2-205.6
			c130.4-82.8,274.5-127.4,424.7-156.7c19.9-3.9,39.4-5.3,59.2-7.9c82.1-10.9,164.6-17.5,247.3-20.7c151.6-5.8,302.5-0.4,452.5,24.4
			C2149.5,1668,2206.3,1682.4,2266.4,1699.3z M1575.7,235.3c-104.3-55.1-207-64-310.7-6.7c-55.8,30.8-87,80-97.9,141.7
			c-14.9,84.7,4.2,161.9,56.5,230.1c76.8,100.2,222,122,320.6,49.7c11.2-8.2,14.2-13.7,5.7-27.1c-43.6-68.6-65.1-143.1-53.6-224.9
			C1504.9,336.8,1530.9,283.5,1575.7,235.3z M2242.3,870.1c-5.1-8.8-8-14.4-11.4-19.7c-40-62.3-96-102.4-168.1-118.7
			c-76.3-17.2-154.1-15.4-231.6-13.6c-57,1.3-113.8,5.1-167.8,25.4c-69.5,26.2-124.3,67.7-147.9,142.3c-3,9.5-0.3,15.6,2.4,23.1
			c53.1,148,25.9,280.6-76.7,398.7c-3.1,3.6-8.7,5.8-8.1,13.6c40.1,0,80-0.8,119.8,0.4c16.1,0.5,17.4-5.3,16-19
			c-6-58.7-5.4-117.3,4.9-175.8c21.6-123.3,102.9-212.6,219.7-238.3c52.6-11.6,106.4-12.4,160.1-13.4
			C2048.6,873.4,2143.5,871.9,2242.3,870.1z M1138.2,2688.1c34,0.3,67.2-4.4,99.9-12.4c70.9-17.3,134-50,188.3-99.1
			c3.9-3.5,14.5-7.2,7-14.5c-19.4-18.7-34.6-42.3-68.1-41.4c-71.1,1.9-142.2,0.8-213.3,0.5c-78.8-0.3-155-15.4-224-53.2
			c-33.1-18.2-57-10.5-83.2,7.7c-12.3,8.5-22.7,19-33.2,29.6c-9.4,9.5-8.2,16.2,0.1,25.8C897.7,2631.4,1006.5,2683.6,1138.2,2688.1z
			 M1653.6,1046.8c16.7,0,30.1,0,43.5,0c188.7,0.8,377.4,1.3,566.1,2.8c17.5,0.1,22.2-4.9,21.2-21.7c-1.9-32.4-6.4-64.1-15.3-95.4
			c-3.2-11.1-8.2-15.1-20-14.9c-125.3,3.1-250.7,4.8-375.9,8.7c-48.6,1.5-96.5,9.8-139.5,35.1
			C1699.7,981.4,1673.6,1008.8,1653.6,1046.8z M2158.3,1096.4c-34.9,0-69.8,0.1-104.6-0.1c-8,0-14.3-0.1-18.1,9.8
			c-28.5,73.9-57.5,147.6-86.8,221.2c-3.7,9.3-1.2,12.2,7.7,14.8c24.9,7,50.6,13.7,72,27.6c25.3,16.5,43.3,9.8,65-6.4
			c86.2-64.5,151.4-143.4,179.9-249.4c4.2-15.7,0.4-18.2-14.3-17.8C2225.5,1097.1,2191.9,1096.4,2158.3,1096.4z M1204.1,2807.4
			c0,22,0.4,43.9-0.2,65.9c-0.3,10.5,3.5,13.4,13.6,12c55.6-7.7,111.1-15.8,165-32.2c117.1-35.6,131.4-158.1,89.4-237.9
			c-4.1-7.8-7.4-8.5-14.1-2.5c-69.2,61.7-149.7,100.2-241,115.9c-10.7,1.8-13.3,6.9-13,16.9
			C1204.5,2766,1204.1,2786.7,1204.1,2807.4z M944.6,374.1c0,1.1,0,2.2,0,3.3c52.4,0,104.8-0.3,157.1,0.2
			c11.9,0.1,17.2-2.9,18.8-15.5c2.5-19.2,9.9-37.4,15.4-55.9c4.4-14.7,24.2-27.2,14.6-42.5c-8.4-13.4-25.3-21.5-38.7-31.6
			c-5.1-3.8-11-6.7-16.6-9.9C981.7,157.9,818.4,191,775.8,354.6c-4,15.5-1,20.1,15.5,19.8C842.4,373.5,893.5,374.1,944.6,374.1z
			 M1209.8,657.4c-26.8-29.6-48.7-58.4-62.6-92.1c-5.3-12.9-12.3-16.7-25.9-16.5c-102.2,2.1-204.3,3.2-306.5,5.2
			c-17.8,0.4-41-7.2-51.9,5.2c-9.9,11.3-0.7,33.4,0.3,50.7c3.7,64.8,35.8,102.2,99.3,121.1c8.6,2.6,13,2.6,19.5-1.7
			C980.2,663.9,1088.1,640.1,1209.8,657.4z M1728.8,1095.3c0-0.2,0-0.5,0-0.7c-25.8,0-51.8,1.2-77.5-0.4
			c-16.7-1.1-22.6,5.8-26.1,20.6c-15.5,64.4-14.4,129.3-8.5,194.6c0.8,9,4.1,12.3,13.1,12.1c31-0.4,62-0.4,93.1,0
			c8.4,0.1,12.7-2.8,15.7-10.7c26.3-67.9,53-135.6,79.8-203.3c3.7-9.2,2.2-12.5-8.2-12.4C1783.1,1095.6,1755.9,1095.3,1728.8,1095.3
			z M941.6,506.5c0-1.4,0-2.9,0-4.3c53.6,0,107.2-0.4,160.8,0.3c15.7,0.2,23.9-1.2,18.2-20.5c-4.1-14-4.4-29.3-4.9-44.1
			c-0.4-10-3.8-13.1-13.8-13.2c-107.3-0.9-214.5-2.1-321.8-3.8c-11.8-0.2-16.3,3.6-16.7,15c-0.8,19.4-2,38.7-3.6,58
			c-0.9,10.3,2.7,13,13.1,12.9C829.1,506.2,885.4,506.5,941.6,506.5z M1988.5,1095.6c-37.3,0-71.4,0.2-105.5-0.2
			c-8.4-0.1-10.9,5-13.3,11.2c-26,66.5-51.7,133.2-78.4,199.4c-5.9,14.6-0.6,15.9,11.6,15.4c27.2-1.2,54.3,1,81,5.2
			c10.7,1.7,14.8-1.5,18.3-10.9c12.2-32.5,25.3-64.7,38-97.1C1956,1178.7,1971.7,1138.6,1988.5,1095.6z M886.6,2825.8
			c0-54.1-0.2-105.6,0.2-157.2c0.1-8.9-5.8-12.1-11.7-16.1c-19.8-13.5-38.7-28.1-56-44.7c-13.7-13.2-26.6-27.1-40.5-41.5
			C744.8,2649.9,796.7,2774.9,886.6,2825.8z M1696.1,1961.5c0,0.3,0,0.5,0,0.8c-19.9,1.1-39.9,2.4-59.8,3.4
			c-7.2,0.3-11.7,0.8-9.7,10.8c6.1,30.4,8.6,61.2,8.6,92.2c0,8.5,3.1,11.2,11.5,10.6c23.8-1.7,47.6-0.3,71.3-4.3
			c53.9-9,73.7-44.1,54.2-95.5c-4.8-12.7-12.4-18.6-25.9-18.1C1729.6,1961.8,1712.8,1961.5,1696.1,1961.5z M933.8,2687.4
			c0,53.7,0.1,104.7-0.1,155.8c0,7.6,2.4,11.9,9.5,14.6c22.3,8.5,45,15.9,68.3,21.3c9.5,2.2,12.7,0.2,12.6-9.7
			c-0.3-45.9-0.2-91.8-0.1-137.7c0-7.1-1.3-11.9-9.5-14.1C987.7,2710.5,962.2,2699.7,933.8,2687.4z M1664.9,2232.2c0,0.5,0,1,0,1.5
			c13.5,0,27.3,1.5,40.6-0.3c23.4-3.2,46.2-8.7,55.5-34.9c7.2-20.2-3.3-58.5-19.5-73.6c-3.2-3-6.4-4.3-10.3-3.5
			c-29.3,6.1-59.2,3-88.6,6.4c-7.5,0.9-11.6,3.5-12.5,11.3c-3.3,27.5-8.9,54.7-16.6,81.3c-2.3,8-0.2,12.1,8.9,11.9
			C1636.6,2231.9,1650.8,2232.2,1664.9,2232.2z M1072.1,2808.1c0,22,0.5,43.9-0.2,65.9c-0.4,11.8,4,16.2,15.6,15.9
			c18.7-0.5,37.5-0.4,56.2,0.2c9.2,0.3,12.4-2.9,12.4-12.2c-0.3-43.3-0.4-86.5,0-129.8c0.1-10.1-3.3-13.4-13.4-13.3
			c-19.3,0.2-38.8,1.1-57.9-3.1c-11.4-2.6-12.9,3.3-12.8,12.6C1072.4,2765.5,1072.1,2786.8,1072.1,2808.1z M1482.5,839.3
			c27.7-57.9,71.1-95.4,123.9-122.8c13.5-7,12.3-11.7,2.4-19.7c-3.5-2.8-6.9-6.1-9.5-9.7c-7-9.8-12.9-10.5-23-2.3
			c-30,24.4-65,38.8-102.6,47.9c-25.5,6.1-51.6,6.4-81.4,7.8C1428.7,769.9,1456.4,801.9,1482.5,839.3z"/>
		<path class="st0" d="M1021.2,994.4c16-0.9,27.9,4.8,39.9,9.3c51.9,19.8,101.2,15.6,148.5-13.8c8.2-5.1,16.8-9.7,25.4-14
			c13.5-6.8,26.5-6.4,37.1,5.3c10.3,11.4,8.2,24.2,0.8,35.9c-7.9,12.5-17.4,24-25.9,36.2c-25.4,36.4-22.6,60.3,10.3,89.8
			c8.2,7.3,16.3,14.8,25,21.5c13.6,10.4,22.3,22.6,13.4,39.6c-7.1,13.6-23,15.1-43,6.4c-17.1-7.5-33.4-16.8-51.7-21.9
			c-34.8-9.8-67.8-6.8-98.7,12.6c-15.3,9.6-30.2,20-45.9,28.9c-12.1,6.9-24.8,7.6-35.8-3c-10.9-10.6-10.7-23.2-4.2-35.6
			c5.4-10.3,12.1-19.8,18.3-29.7c22.3-35.6,20.4-60.2-7.5-91.2c-8.6-9.6-18.4-18.3-26.5-28.3c-7.7-9.4-11-20.7-5.3-32.5
			C1001.2,998.1,1010.5,992.3,1021.2,994.4z M1079.7,1059.7c19.3,30.2,19.9,59.7,14.1,91.2c28.7-11.7,56-18,84.9-15.4
			c4.2,0.4,13.2,2.7,9.7-6c-10.1-25.2-5.4-50,2.8-78C1153.7,1065.8,1118.8,1064.7,1079.7,1059.7z"/>
		<path class="st0" d="M1913.1,603.8c-52.7-0.8-114.4-19-158.5-75.9c-56-72.4-30.3-177.3,52.3-216.6c85.2-40.5,170.4-34,251.7,8.4
			c60.6,31.6,80.4,88.6,74.3,154.2c-5.6,60.7-43,95.8-98.7,114C2000.1,599,1965,603.7,1913.1,603.8z M1931.2,556.9
			c30.3-1.7,61.6-5.1,91.9-15.4c36.3-12.4,60.4-35.2,63-74.9c2.9-44.9-9.3-85.3-52.1-106.3c-61.8-30.4-126.4-38.3-193-12.4
			c-38.5,15-62.2,41.2-67.8,82c-5.7,40.9,13.7,71.1,45.1,94.6C1851.3,549,1889.6,556.1,1931.2,556.9z"/>
		<path class="st0" d="M1275.4,453.3c3.3-71.2,31.2-132.7,88.3-180.3c9.9-8.2,14.2-6.1,20.7,3.3c17.2,24.8,17.6,24.5-3.2,44.9
			c-76.1,74.8-76.7,191.9-1.5,267.6c4.6,4.7,15.1,8.8,10.6,16.3c-6.8,11.4-16.3,21.5-26.3,30.4c-3.4,3.1-8.5-4.3-12-7.7
			C1302.3,581.2,1278.1,523.1,1275.4,453.3z"/>
		<path class="st0" d="M988.1,314.6c-26.5,0-53-0.4-79.5,0.2c-11,0.2-15.2-3.8-14-14.6c0.7-6.4,1-12.9,0.7-19.3
			c-0.6-11.2,4.8-14.5,15.3-14.3c52.3,0.9,104.7,1.7,157,1.8c11.6,0,13.7,4.7,13.6,15c-0.4,32.9-0.1,32.9-33.1,32.9
			c-20,0-40,0-60.1,0C988.1,315.7,988.1,315.1,988.1,314.6z"/>
		<path class="st0" d="M960.7,644.9c-22.6,0-45.3-1-67.8,0.3c-15.1,0.9-19.7-4.7-17.7-18.7c0.7-5.1,0.4-10.3,0.1-15.5
			c-0.6-7.8,1.7-11.6,10.6-11.7c50.3-0.5,100.5-1.4,150.7-2.7c11.3-0.3,14.4,4,14.2,14.7c-0.8,41.6,3.6,32.7-31.9,33.5
			C999.5,645.3,980.1,644.9,960.7,644.9z"/>
		<path class="st0" d="M1928.6,517.9c-36.6-0.4-67.9-32.6-67.1-69c0.8-36,31.6-66.5,67.5-66.6c36.5-0.1,68.2,31.5,68.1,68
			C1996.9,486.9,1965,518.3,1928.6,517.9z M1927.1,430.8c-9.5,1.1-17,6.2-16.9,19.1c0,12.4,6.1,19,18.7,19.1
			c12.5,0.1,19-6,19.2-18.6C1948.3,437.7,1941.6,431.7,1927.1,430.8z"/>
	</g>
</g>
</svg>
