<?xml version="1.0" encoding="utf-8"?>
<!-- Generator: Adobe Illustrator 23.0.0, SVG Export Plug-In . SVG Version: 6.00 Build 0)  -->
<svg version="1.0" xmlns="http://www.w3.org/2000/svg" xmlns:xlink="http://www.w3.org/1999/xlink" x="0px" y="0px"
	 viewBox="0 0 3000 3000" style="enable-background:new 0 0 3000 3000;" xml:space="preserve">
<style type="text/css">
	.st0{opacity:0.51;}
	.st1{stroke:#000000;stroke-width:10;stroke-miterlimit:10;}
</style>
<g id="Layer_1" class="st0">
</g>
<g id="Layer_2">
	<g>
		<path class="st1" d="M468.6,2252.2c2.1,35.4,0.1,66.1-11.5,95.9c-34.9,89.2-139,137.4-228.9,104.7c-26.9-9.8-50.3-25.1-54.4-56.3
			c-4.3-32.2,14.5-54.2,39.3-69.9c44.8-28.5,63.1-68,55.8-120c-2.6-18-7.7-35.2-15.4-51.8c-14-30.4-32.4-58.1-51.6-85.3
			c-35.9-50.7-66.5-104.1-73.7-167.2c-15.3-134,25.9-245.5,135.1-328.6c23-17.5,48.2-32.3,68.8-53c17.5-17.5,27.8-38.1,30.6-63.1
			c3.5-31.6-30.7-66-66.2-44.1c-48.4,29.8-88.1,66.2-110.9,118.4c-9.1,20.9-19.2,5.2-28.5,3.6c-14.1-2.4-8.5-11.7-4.8-19.5
			c20.5-44.2,51-80.4,88.5-109.5c0.7-4.5-1.9-4.6-3.8-4.7c-109.2-9.2-136.3-133.9-89.9-203.1c33.3-49.7,81.9-73.9,138.9-84.1
			c20.7-3.7,41.5-5.6,62.9-5c-33.1-7.8-64.9-17.3-93.1-36.7c-6.1-4.2-14.1-1-21.2,0.2c-24.5,4-49,5.2-73.3-1.2
			c-57.4-15.2-85.1-60.5-73.2-118.8c6.6-32.6,24.7-60.1,39.1-89.1c24.3-49,20.1-95.1-11.7-139.1c-14-19.3-32.4-32.9-54.8-41
			c-10.8-3.9-21.5-7.8-32.9-12c65.8-61.7,190.3-58.6,238.7,60c38.9-33.5,81.8-59.4,129.3-77.5c80.9-30.8,165.2-42.7,251.1-45.1
			c222.5-6.3,445-3.3,667.5-2.6c101.7,0.3,202.8,9.3,298.8,47c89.2,35.1,164.5,88,214.4,172.2c2.9,4.9,5.7,9,12.4,10.7
			c82.7,21.2,82.7,21.3,127.8,82.7c26.6-58.6,63.2-109.2,112.1-150.5c69.7-58.9,149.6-94.3,241-97.9c81-3.3,162.5-8.4,243,4.7
			c189.2,30.7,341.7,194.5,343.9,391.5c3.6,318.9,5.3,637.9-0.8,956.7c-3.2,168.5-92.8,289.3-246.4,361.7
			c-58.5,27.6-119.9,37-183.5,36c-66.6-1-133.3,4.3-199.7-6.1c-186.3-29.1-339.3-200.6-342.5-389.4c-2.8-168.1-1-336.3-1-504.4
			c0-10.2-0.6-20.2-3.7-30c-37.1-116.4-102-213.7-199.1-288.6c-23-17.7-48.5-31.4-76.1-41.3c-65.6-23.6-124-10.4-175.8,34.7
			c-24.6,21.5-47.1,45.4-66.2,71.8c-9.5,13.1-15.5,7.2-23.9,0.6c-8.5-6.7-15.6-11.5-4.6-23.3c20.2-21.7,37.6-45.9,59.4-66.3
			c79.5-74.2,170.6-85.5,265.4-32.8c11.8,6.6,23.4,13.7,37.9,22.2c-1.2-34.6,2.9-65.6,18.2-94.2c7.9-14.8,25.2-26.7,27.2-40.7
			c2-14.1-18.4-25.5-25.5-40.8c-20.6-44.2-13.8-93.7,21.4-130.8c9.9-10.4,9-16.9,2-27.3c-57.5-86.8-141.4-134.6-238.7-163
			c-86.5-25.3-175.7-28.8-264.8-29.3c-216.7-1-433.4-2.1-650.1,3.5c-87.2,2.3-173.1,16.1-253.4,53.1
			c-54.9,25.3-102.6,59.7-135.9,111.5c-26.1,40.6-36.6,85.2-29.5,132.8c10.8,72.6,61.6,119.3,135.8,128.2c39.4,4.8,78.3,2,116.6-6.7
			c15.4-3.5,17.7,2,21.2,14.7c4,14.3,0,19.1-13.3,21.5c-36.2,6.5-72.7,10.1-109.7,11c25.9,3.9,51.2,9.4,76.3,16.1
			c30.4,8.2,59,17.9,85.9,37.5c78.7,57.3,188.9,33.9,242-47.7c4.7-7.3,9.5-14.5,13.8-22.1c14.8-25.7,37.2-37.7,66.4-37.6
			c97.1,0.5,194.2,1.4,291.3,1.3c17.7,0,19.4,7.8,19.8,22.5c0.4,17.7-9.9,15.3-21,15.2c-94.2-1-188.4-1.4-282.6-2.7
			c-22-0.3-35.8,8.2-47.4,27.1c-74.9,121.6-206.1,146.3-320.4,62.3c-25.7-18.9-58.2-21.1-88.3-27.8
			c-59.8-13.2-119.4-14.8-175.7,15.6c-52.6,28.4-76.8,77.5-64,129.5c8.7,35.7,34.8,59.7,66.7,62.5c8.2,0.7,12.7,0.4,15.4-9.5
			c17.9-66.9,71.7-107.3,141.1-109.3c57.1-1.6,109.3,18.3,162.9,32.9c47.7,13,95.5,25.2,144.9,7.6c22.9-8.1,42.8-21,61.4-36.2
			c46.3-37.7,93.7-73.1,153.8-86.3c86.6-19,166.7-4.5,240.6,44.5c16.3,10.8,32.8,21.4,49.9,30.7c59.3,32.1,118.3,19.5,156.8-35.8
			c40.8-58.7,52.4-125,40-194.7c-7.3-41.1-34.6-66.3-75.1-75.3c-67.1-14.9-135.7-21.1-202.8-36.4c-126.1-28.9-252.6-56.2-379.2-83.1
			c-59.1-12.5-119.1-18-178.9-4.1c-85,19.8-143.8,71.5-178.9,150.7c-7.4,16.7-23.5,20.6-36.6,8.5c-8-7.3-0.2-13.8,2.1-19.3
			c47.3-108.3,129.5-169.8,247.3-182c80.7-8.4,158.4,10.8,236.3,27.6c127.1,27.4,253.4,58.4,381.2,82.7c34.1,6.5,68.8,10,102.9,16.3
			c76.1,14.1,119.2,63.9,122,141.3c2.4,65.1-9.2,127.2-46,182.3c-41.2,61.6-121.9,104.3-210.5,52.2c-24.3-14.3-47.4-30.8-72.2-44.2
			c-85.6-46-171.6-44.9-257.7-0.5c-13,6.7-18.8,16.2-20,30.7c-2.6,31.2,5.2,60.3,15.6,89.1c15.4,42.8,35.4,83.9,44,129.1
			c14.9,78.9-13.6,139.4-77.6,184.2c-65.3,45.8-138.8,49.9-214.7,38.1c-17.1-2.7-34-6.6-53.9-10.5c8.6,47,8.1,92.9-1.3,138.5
			c-12.7,61.6-26.8,122.9-38.5,184.7c-12.1,64.2-16.5,129.2-19.4,194.4c-0.6,13.6,4.2,20.4,16.1,26.6
			c120.2,62.9,248.8,98,382.4,115.9c168.3,22.6,336.9,16.5,505.4,1.2c37.5-3.4,75-7.4,112.5-9.8c14.5-0.9,22.4-6.4,30-19.1
			c40.3-67.3,55.2-140.8,57.7-217.9c0.4-11.7-3-13.3-13.3-10.5c-10.4,2.8-21.3,4.3-32,5.8c-94.4,13.2-157.1-36.6-168-131.4
			c-6.8-59.3,3.8-117,11.2-175.1c6.7-52.8,12.1-105.4-7-156.7c-13.6-36.5-37.2-64.8-72.7-82.2c-34.9-17.1-49.4-59.4-33.2-96.7
			c9.9-22.7,27.8-38.4,46.5-53.6c21.8-17.6,45.6-32.9,58.3-60.1c7.1-15.2,20.6-2,30.6-1.4c10.2,0.6,3.7,10.4,1.9,15.6
			c-8.4,25.3-27.6,41.9-47.3,58.1c-13.9,11.5-28.4,22.5-41.6,34.8c-11.2,10.4-19.2,23.3-19.2,40.5c50.8-45.9,85.9-48,143.5-9.3
			c15,10.1,29.9,20.3,45,30.2c9.4,6.2,20.1,7.5,31.2,7.1c13.8-0.6,26.8-3.8,33.2-16.7c7.2-14.3-5-22.8-13.4-31.2
			c-28.7-28.6-46.1-60.5-27-101.2c19.6-41.5,53.5-60.8,99.4-60.6c117.1,0.5,235.7,92.3,259.1,200.8c10,46.1,6.6,92.6,0.7,138.5
			c-26.5,206.7-40.1,413.9-30.6,622.2c1.2,26.1,0.6,52.2,2,78.2c0.6,12-3.6,17.4-14.5,22.6c-88.3,42.6-178.5,46.2-269.7,12.3
			c-20.7-7.7-40.2-9.8-61.3-7.4c-107.3,11.8-214.9,20.5-322.9,23.4c-177,4.7-351.7-10.2-521.8-63.2
			C593.5,2312.4,531.9,2285.6,468.6,2252.2z M2863.5,1009.6c0.2-3.7,0.7-5.8,0.3-7.7c-30.4-148.7-163-272.2-314.3-292.1
			c-67.1-8.8-134.6-3.4-201.9-3.7c-171.9-0.8-324.3,118.7-365.8,285.2c-12,48.3-8.7,97.3-10,146.5c-2.1,79.7-0.3,159.3-2,238.9
			c-0.1,6.9-2.1,14.2,2,21c8.1,0.4,13.5-5,19.7-8.3c77-41.5,153.8-83.5,231.1-124.5c13.9-7.4,21.6-16.3,25.5-31.9
			c25.4-99.5,87.9-167.6,180.3-209.6c74.9-34,154.3-42.7,235.5-41.2C2731.3,983.5,2797.4,993.9,2863.5,1009.6z M2870.1,1492.4
			c1.8-3.6,3-4.7,3-5.9c0.2-107.3,0.1-214.5,0.5-321.8c0.1-11.3-5.5-15-14.7-17.6c-25-7.2-49.8-15.4-74.9-22.3
			c-73.8-20.5-148.5-33.8-225.1-18.8c-98.8,19.3-169.9,71.3-196.1,173.1c-9,35.2-13.5,71.2-14.6,107.4
			c-6.5,199.2-6.7,398.5-4.2,597.8c0.1,10.8,1.5,21.7,2.8,32.4c8.1,66.7,38.6,100.1,104.9,115.2c46.4,10.6,93.5,10.5,140.6,7.8
			c73-4.3,143.9-16.5,205.6-60.2c69.9-49.6,92.9-111.4,72-197.3c-32.7,22.2-66.8,40.9-104.4,52.3
			c-245.2,74.4-398.3-118.9-380.1-288.2c15.1-140.9,151.9-255.4,293.8-238.8C2751.2,1416,2814,1444.5,2870.1,1492.4z M450.5,2199.1
			c1.2-20.8,2.1-38,3.1-55.1c5.7-97.9,26.1-193.3,47.5-288.7c20.6-92.2,34.1-184.3-52.3-256c-9.5-7.9,5.1-18.6,9.6-27.4
			c4.6-8.9,10-1.7,14,1.1c21.1,14.7,37.7,33.7,50.2,56.2c4.2,7.6,8.1,13.9,18.2,16.6c52.2,14,104.7,22.2,158.9,16.9
			c124.8-12.2,187.2-110.9,144.2-227.1c-19.9-53.9-46.2-106.1-48.9-168.1c-11.8,8.4-21.1,15-30.4,21.6
			c-36.1,25.9-74.8,40.8-120.7,40.5c-40.6-0.3-78.5-10.2-116.8-20.8c-43.8-12.1-86.8-28.8-133.2-27.7
			c-43.9,1.1-80.7,16.9-104.1,55.9c-14,23.4-10.9,28.5,15.8,30c59.5,3.5,97,40.2,93.3,92.1c-2.5,34.7-17.4,63.7-42.2,88.1
			c-23.9,23.5-52.5,40.9-79.1,61c-36.3,27.5-64.7,61.3-85.2,105.2c15-1.1,27.1-2.5,39.2-2.7c88-1.5,140.8,61.5,122.2,146.6
			c-1.6,7.5,0.6,10.2,5.4,14.1c39.4,32.4,54.1,73,36.9,121.8c-17.5,49.8-56.8,70.7-107,74.6c-13.2,1-26.5,1.5-42,2.4
			c22.8,37.8,45.9,72.3,54.1,113.7c12.8,64.3,3.4,121.2-54.3,162c-9.4,6.7-18.4,14.1-26.7,22.2c-16.5,15.9-15.1,29.7,4.1,42.5
			c5.3,3.6,11.4,6.6,17.5,8.4c58.8,17.3,111.7,5.4,153-39.3c41.3-44.7,49.8-98.2,27.3-155.5c-6.8-17.4-14.8-34.4-24.4-56.6
			C417.9,2179.4,432.6,2188.3,450.5,2199.1z M2873.4,1768.5c0-16.7-1-33.4,0.3-50c1.3-17-6.8-19.5-20.7-17.4
			c-25.7,3.8-47.9,15.7-69.7,28.8c-27.9,16.8-55.4,34-86.5,44.6c-89.6,30.6-185-17.2-207.5-104.2c-23.7-91.7,54.2-176,143.6-155
			c6.8,1.6,21.7,0.2,17.1,13c-3.6,10-2.5,27.5-25.7,22.5c-55.4-12-102.7,29-102.6,85.5c0.1,47.9,30.5,89.1,77.7,103.8
			c46,14.3,88.6,4.2,128.9-19.8c42.8-25.5,84.1-54.6,136.5-57.3c10.1-0.5,8.7-7.7,8.7-14c0.1-29.7-0.4-59.4,0.3-89.1
			c0.2-10.6-4.5-17.7-11.4-24.5c-53.9-53.4-117.3-86.1-193.8-91.7c-117.4-8.6-220.3,71.6-243.8,190.4
			c-22.1,111.8,48.6,233.2,155.8,267.1c91.5,29,175.3,9,255.2-39.4c27.9-16.9,45.1-36.9,38-71.5
			C2872.2,1783.3,2873.4,1775.8,2873.4,1768.5z M2195.6,1898.3c-8.5,3.8-15.1,6.5-21.6,9.6c-54.7,26.4-109.3,52.9-164,79.4
			c-41.4,20.1-41.4,20.1-36.8,64.9c16.6,163.1,155.6,306.6,318.2,328.1c67.8,9,136,4,204,3.8c128.5-0.5,229.6-56.1,306.3-158.1
			c3.1-4.1,5.2-9,8.7-15.2c-107.7,38.9-214.2,65.4-327.2,56.5c-141-11.1-239-94.4-271-231.7
			C2202,1991.1,2200.2,1945.5,2195.6,1898.3z M1411.5,1922.4c0.4,8,0.3,21.1,1.6,34.1c6.4,66,38.6,100.4,97.9,103.9
			c22.5,1.3,44.7-2.5,66.6-8.2c9-2.3,13.1-6.3,11.9-16.6c-3.7-30.2-5.6-60.6-9.8-90.7c-10-73.1-23.4-145.7-19.4-220.2
			c5.9-109.1,68.1-195.2,167-225.7c26.2-8.1,53.4-13,80.4-18.4c22.5-4.5,23.4-4.9,10.5-25c-39.1-60.9-98.5-91.7-165.7-110.8
			c-14.1-4-28.6-4.8-43.1-3.8c-27.6,2-48.1,15.2-59.3,40.8c-10.5,24.1,1.2,41.7,18.7,57.1c2.2,1.9,3.9,4.3,5.9,6.4
			c17,18.8,27.7,39.9,17.7,65.3c-10.1,25.6-32.1,35.8-57.8,40c-36.4,6-64.2-12.4-91.6-31.8c-17.7-12.5-34.3-27.5-56.6-30.7
			c-17-2.5-35.2-1.4-44,15.8c-8.7,16.9,7,26.4,17.4,35.4c39.1,33.9,60.6,76.5,67.8,127.4c4.6,32.6,3.9,65,0.4,97.5
			C1422.6,1815.2,1413,1865.9,1411.5,1922.4z M2866.6,2067.3c-33,33.5-65.4,57.4-103.2,73c-99.5,41-203.3,45-307.4,29.1
			c-85.9-13.2-142.8-63.1-145.8-158.6c-2.2-71-3.7-142-3.8-213c-0.2-156.5-2.1-313.1,11.2-469.2c5.9-69.6,27.9-133.7,80.5-182.7
			c71.9-66.8,159.6-86.5,254.9-81.4c60.5,3.3,118.6,18.1,176.1,35.9c47.4,14.7,52.3,10.1,43.4-40.2c-1.6-9.1-5.6-13.2-14.9-15.3
			c-96.5-22.1-193.7-33.9-292.6-21.5c-73.2,9.2-140.6,32.9-198,81.2c-72.4,60.9-92.1,144.9-101.5,232.7
			c-13.1,121.7-22.1,243.9-27.9,366.2c-4.7,100.5-10.8,201.2,5.8,301.5c23.4,142.1,121.7,225.5,265.6,227.9
			c113.1,1.9,218.5-27.3,321.8-69c5.8-2.4,10.1-4.7,12.5-10.5C2853.3,2127.7,2862.7,2101.9,2866.6,2067.3z M1627.7,2056
			c2.1,97.4-10.6,190.2-61,274.6c-6.1,10.3,0.1,12.2,7.3,14.9c75,28.1,149.8,27.1,224.4-1.6c8-3.1,13.4-6.9,13-17.1
			c-1.6-48.4-2.6-96.9-3.7-145.3c-0.2-8-1.4-13.4-11.5-14.5C1721.4,2158.8,1664.7,2122.9,1627.7,2056z M1787.2,1862.6
			c-2.9,0-5.8,0-8.7,0c-72.3,0.8-123.4,45.7-127.8,112.2c-5.1,77.4,64.4,152.3,144.1,156.3c13.2,0.7,11.9-7,12-14.9
			c0.7-34,0.7-68,2.1-102c0.5-11.4-3.2-16.6-14.1-19.8c-23.9-6.9-44.9-19.6-63.8-35.8c-6.1-5.2-14.2-11.3-2.7-17.8
			c7.9-4.5,9.9-25.3,25.9-10.2c12.2,11.5,26.7,19.8,42.2,26.1c8.2,3.4,15.3,4.6,15.8-8.5c1-24.6,2.6-49.1,4.6-73.6
			c0.8-10-3.3-12.8-12.4-12.1C1798.8,1863,1793,1862.6,1787.2,1862.6z M1617.8,1937.6c14.4-36.6,35.6-66.9,69.4-87.1
			c11-6.6,3-11.9-0.1-17.5c-68.3-123.3,1.4-256.3,142.6-270.7c19.6-2,15.2-13.3,13.8-24.1c-1.4-10.6,4.3-26.9-17.6-23.7
			c-34.5,4.9-68.6,11.6-101.1,23.8c-52.1,19.6-88.8,55.3-109.4,107.8C1577.1,1743.5,1603.1,1840.1,1617.8,1937.6z M1969.7,1761.8
			c3.8,3.1,6.5,2.1,9.1,0.7c71.7-38.8,143.2-77.9,215-116.4c8.2-4.4,11-10.4,11.5-18.9c1.3-22.4,2.4-44.7,4.5-67
			c1.2-13.1-0.4-17.6-14.4-10.2c-70.8,37.4-141.8,74.3-213,111c-8.7,4.5-13.1,9.2-12.9,19.6
			C1970.2,1707.9,1969.7,1735.4,1969.7,1761.8z M1785.2,1825.5c34.2-1.6,34.3-1.6,38.7-36.2c0.6-5,0.7-10.1,1.7-15.1
			c2.4-12-1.7-18-14.1-21.8c-25.2-7.8-45.1-23-54.2-49c-6.9-19.6-3.2-22.7,17.4-20.4c10.5,1.1,16.2,4.6,20.2,14.3
			c3.3,8.1,11.2,12.9,18.8,17.3c11.8,6.8,18.1,5.4,19.6-9.7c2.8-29.5,5.9-59,10.1-88.3c2.6-17.7-4.5-20.7-20.2-18.7
			c-100.6,12.9-155.5,115.7-110.3,206.6c8.9,17.8,17.6,33,42.2,23.8C1764.2,1825,1775.1,1826.3,1785.2,1825.5z M1934.1,1137.3
			c0-47.2-24.9-81.6-70.7-98.4c-5.2-1.9-9-2.2-14.2,0.2c-65.6,30.5-86.5,129.7-38.7,184.6c6.6,7.6,14.3,10.7,24.7,11
			C1891.3,1236.1,1934,1194.4,1934.1,1137.3z M235.4,1897.4c-18.9,0-35-1-50.7,0.5c-6.5,0.6-19-8-19.6,7.9
			c-0.8,20.4,10.3,39.5,22.7,39.7c18.8,0.3,37.6,1.1,56.4,0.3c18.6-0.8,15.7,11.3,16.2,22.9c0.6,15.4-7.7,15.6-19.4,14.2
			c-12.2-1.4-24.6-1.2-36.8-1.3c-3.9,0-9.1-1.3-10.1,5.1c-1.1,7,24.3,43.1,31.8,43.7c29.6,2.4,59.4,5.2,88.3-3.8
			c38.3-11.9,58.6-47.8,50.1-86.9c-6-27.2-31.2-49.7-54.1-45.7C284.2,1898.6,258.3,1896.7,235.4,1897.4z M114.9,670.2
			c72,68.6,82.9,149.3,33.9,231.1c-7.8,13-14.2,26.9-19.6,41c-22.6,59.7,11.2,103.6,74.8,97.9c11-1,13.9-2.9,7.5-13.9
			c-48.7-84.2-39.8-165.8,12.3-245c5.5-8.3,11.9-15.4,9.7-27.3C223.5,700.4,171.5,662.3,114.9,670.2z M1934.5,952
			c-0.2-33.9-34.8-68.2-77.7-76.3c-10.4-2-20.8-6-31.5,0.9c-21.1,13.6-37.3,50.2-32.6,76.4c6.1,34.7,27.5,56.9,59.5,68.9
			c15.7,5.9,57.6-16,71-35.4C1930.2,976.2,1935,964.9,1934.5,952z M231.8,1860.3c0,0.1,0,0.2,0,0.3c18.1,0,36.1,0.7,54.2-0.1
			c31-1.4,42.4-16.2,37.2-46.8c-9.5-55.2-94.6-90.4-144-59.6c-7.9,4.9-8.8,13.8-8.4,20.9c0.4,8.2,9.2,4.1,14.1,4.3
			c14.4,0.6,29,1.3,43.3,0c15.5-1.4,15.2,7.4,15.6,18.5c0.4,12.4-2.2,18.6-16.5,17.7c-18-1.2-36.2-1.2-54.1,0
			c-20.2,1.4-10.5,18.3-12.7,28.6c-2,9.3-0.2,16.9,12.8,16.4C192.8,1859.8,212.3,1860.3,231.8,1860.3z M1853.4,1271.4
			c31.2,38.8,55.6,78.8,79.6,125.4c0-57.6,0-108.6,0-163.4C1909,1253.5,1883.9,1265,1853.4,1271.4z M2171.8,1480.3
			c2-4.6,0.6-6.5-2-8.5c-17.5-13.8-45.4-10.8-59.4,6.6c-5.4,6.8-10.7,13.6-16.1,20.4c-3.4,4.2-4,8.4,1.8,10
			c15.1,4.2,32.5,14,45.2,9.9C2156.4,1513.7,2162.3,1492.8,2171.8,1480.3z M2111.3,1896.9c2.3-1,4.7-1.3,6.1-2.7
			c9.7-9.8,20.2-21.2,21.4-33.9c0.9-9.9-15.6-9-23.7-14.1c-2.4-1.5-5.3-2-8-3c-10.6-3.6-41.2,21.9-39.3,32.8
			c0.2,1.2,1.1,2.7,2.1,3.2C2083.6,1885.2,2097.5,1891.1,2111.3,1896.9z M2084.9,1448.3c-49.2-16.7-35.6-24.6-73.9,34.5
			C2051.5,1499.8,2058.1,1496.7,2084.9,1448.3z M1974.4,1590.1c14.5-18,29-35.9,43.4-53.9c2.2-2.8,5.2-5.5,3.2-9.5
			c-4.1-8.3-35.8-9.6-42.1-2.1C1962.5,1544.2,1972.4,1567,1974.4,1590.1z M2221.9,1405.4c-0.6-2.6-0.6-5.9-1.7-6.3
			c-12.7-4.7-27.8-12.3-38.9-6c-11.5,6.6-18.3,21.4-27,32.7c-0.3,0.4,1.1,2.9,2,3.2c13.4,4.7,28.1,14.5,40.6,9.8
			C2209.4,1434.1,2215.2,1417.8,2221.9,1405.4z M2015.4,1598c0.9,1,1.7,2,2.6,2.9c30.5-15.7,60.9-31.4,95-49
			c-15.3-4.6-25.5-8-36-10.7c-5.9-1.5-12.4-5.2-17.9,1.7C2044.6,1561.3,2029.9,1579.6,2015.4,1598z M2139.8,1381.8
			c-11.6-2.4-20.5-4.3-29.5-6.2c-17.4-3.6-28.9,5-38.1,18.2c-2.5,3.6-4.9,6.8,0,10.9c15.6,13,43.3,10.1,55.9-6.4
			C2131.5,1393.9,2134.7,1389.1,2139.8,1381.8z M2057.1,1826.5c-4.9-7.6-12.8-7.9-19.1-10.7c-15.9-6.9-28.9,1.4-37,25.5
			c-5.3,15.8,12.1,11,18.3,16.5c6.3,5.6,12.5,3.5,17.5-4.2C2042.9,1844,2050.4,1835.3,2057.1,1826.5z M2146.6,1783.2
			c-7.3-0.8-23,10.8-24.7,19.6c-2.4,12.6,9.8,8.7,15.4,12.3c2.4,1.5,5.1,2.7,7.8,3.8c17.7,7.1,28.5,2.3,34.1-19.1
			c4.4-16.9-13.9-7.9-20.1-13.6C2156.4,1783.6,2150.9,1784.1,2146.6,1783.2z M1969.7,1934.1c3.6-0.9,5.4-0.7,6.1-1.5
			c7.6-9.5,14.7-19.5,22.7-28.7c7-8.1,6.6-12.1-4-16.9c-21.5-9.8-24.4-8.6-24.8,15.2C1969.6,1912.6,1969.7,1923.1,1969.7,1934.1z
			 M2199.8,1700.9c-14.5,19.2-24.8,32.7-35.2,46.5c34.8,15.7,35.1,15.5,35.2-19.3C2199.8,1721.2,2199.8,1714.3,2199.8,1700.9z
			 M2097.5,1772.9c-11.4-6.8-23.6-8.3-35.5-10.3c-7.8-1.3-11.8,3.8-15.4,9.5c-2.2,3.4-2.2,5.4,1.7,8.5
			C2066,1794.8,2083.5,1793,2097.5,1772.9z M2067.4,1919c-28.7-13.8-30.5-12.8-49.5,24C2035.1,1934.7,2049.4,1927.8,2067.4,1919z
			 M1971.9,1468.9c12.1-11.5,20-24.8,30.1-41.8C1980.2,1435.7,1962.6,1442,1971.9,1468.9z"/>
		<path class="st1" d="M426.7,988.8c-8.9,1.6-1.9,20.6-18.7,14.9c-30.4-10.3-28.2-5.9-15.9-31.7c36.8-77.4,103.7-114.4,184-130.4
			c64-12.7,128.4-5.6,192.7-0.5c11.3,0.9,15.6,6.5,11.7,17.2c-3,8.4,3,25.2-16.3,19.6c-17.7-5.2-24.3,1.1-26.3,19.1
			c-2.6,22.1-12.9,42.4-23.9,64.9c51.7,0,100.1,0,148.5,0c50,0,100,0.5,150-0.3c13.9-0.2,18.7,3.5,18.6,18
			c-0.1,14.2-4.3,18.3-18.4,18.2c-105.1-0.6-210.2-0.1-315.2-0.7c-7.9,0-12.9,1.3-18.7,6.5c-73.4,67.1-185.6,65.9-248.7-13.5
			C429.4,989.4,427.7,989.2,426.7,988.8z M579.2,1014.2c15.9-6.3,36.9-0.8,39.6-23.9c4.1-35.4,0.3-70.7-2-106.1
			c-0.6-8.6-4.6-12.2-12.5-9.7c-7.2,2.2-20.4-3.5-19.5,10.7C587.7,927.7,582.4,969.9,579.2,1014.2z M548.5,940.3
			c0-11.5,0.8-23.1-0.3-34.6c-0.6-5.9,4.6-17.4-7.1-16.3c-8.9,0.9-22.6,2.1-23.1,15c-1.3,31-3.9,61.7-9.2,92.4
			c-2.9,16.5,14.2,12.9,23,16.2c11.4,4.3,10.2-5.6,11.5-12.4C546.8,980.6,547.8,960.5,548.5,940.3z M656.5,973
			c20.2-18.7,30.6-33.4,39.2-59.8c16-48.5,12.3-40.9-32-42.2c-9.7-0.3-12.8,3.3-11.3,12.7C657,912.2,655.6,941.1,656.5,973z
			 M480.3,922.4c-37.3,24.8-38,32.9-7.7,57.2C480.3,961.9,478.9,943.5,480.3,922.4z"/>
		<path class="st1" d="M939.9,2134c-59.7,0.1-118.7-5.8-175.8-24c-130.9-41.6-197.5-177.2-147-299.1c3.6-8.7,4.1-23.7,21.6-14.8
			c12.9,6.5,20.1,10.7,12.5,28.6c-40.1,94.8,5.4,200.9,102.6,242.6c41,17.6,84.6,25,128.8,28.2c86.8,6.4,172.7,2.7,253.6-33.7
			c81.1-36.4,140.2-94,164.9-182c27.4-98.1-35.8-203.7-115.6-224.7c-19.4-5.1-6.3-17.2-6.1-25.6c0.3-13,9.4-11.6,18.7-8.4
			c79.4,27.7,124.8,86,140.2,165.8c20.9,108.5-26.3,192.2-107.2,259c-81,66.9-178.1,86.5-280.3,88.1
			C947.1,2134.1,943.5,2134,939.9,2134z"/>
		<path class="st1" d="M1000.1,1813.9c28.2,0.4,51.7,7.9,65.5,32.9c16.2,29.3,12.7,58.8-3.3,86.7c-25.5,44.6-100.4,67.5-147.4,46.1
			c-41.7-19-50-81.4-15.5-121.3C926.2,1827.3,962,1816.1,1000.1,1813.9z M955.6,1950.2c44-1.5,70.9-17.6,80.8-46.8
			c8.7-25.8-0.1-46.5-22.1-52.3c-26.5-6.9-75.7,11.8-90.6,35c-9.9,15.4-13.6,32.5-5.2,49.3C926.6,1951.8,943.3,1950.1,955.6,1950.2z
			"/>
		<path class="st1" d="M1269.1,1803.6c-18.9,23.6-41.8,40.5-69.3,50.9c-6.2,2.3-15.8,10.6-17.9-3.9c-1.4-9.8-16.3-22.1,4.1-29.4
			c15.1-5.4,30-12.6,39.9-25c12.1-15.2,21.8-14.5,33.6-1.2C1262.1,1798.1,1265.7,1800.6,1269.1,1803.6z"/>
		<path class="st1" d="M1030,2255.5c-9.4-0.6-18.8-1.9-28.1-1.8c-19.8,0.2-26.4-7.4-20.4-27.4c2.7-9,5.5-12.8,14.3-10.7
			c20,4.6,40.3,4.6,60.5,3.4c18.1-1.1,14.3,11.2,15.7,21.3c1.7,12.7-4.1,17-16,16.4c-8.6-0.4-17.3-0.1-26-0.1
			C1030,2256.2,1030,2255.8,1030,2255.5z"/>
		<path class="st1" d="M1132.9,2251.1c-21.5,4.3-26.7-5.6-25-25.1c0.9-9.9,4.8-11.6,13.3-11.8c20.2-0.4,40.3-2.3,59.8-7.3
			c17.3-4.5,15.6,8.6,19.1,18.3c4.4,12.2-0.2,16.4-11.8,17.8C1169.8,2245.2,1151.3,2248.3,1132.9,2251.1z"/>
		<path class="st1" d="M1242.5,2208.1c-3.5-10.6-0.7-14.8,9-16.3c19.3-3.1,38.1-8.8,55.6-17.7c18.3-9.3,17.5,8.9,23.7,16.3
			c9,10.9-1.7,13.1-8.4,16.5c-17.5,8.8-36.2,14.2-55.2,18.9C1249.4,2230.3,1238.1,2228.7,1242.5,2208.1z"/>
		<path class="st1" d="M1363.7,2188.1c-8.4-5-9-15.3-13.8-22.8c-4.7-7.3,0.2-10,5.7-13c19.1-10.2,36.8-22.3,53.1-36.6
			c12.5-11,14.9,4.8,20.9,9.3c4.7,3.4,13.9,8.1,4.4,16.7c-19.9,17.9-41.7,32.9-65.7,44.7C1367.1,2187,1365.7,2187.4,1363.7,2188.1z"
			/>
		<path class="st1" d="M825.1,1980.6c-8.6-0.5-17.9,0.7-25.7-2c-7.4-2.6-23.6,4.8-20.2-13.5c2.6-13.9,3.3-29.6,26-22.6
			c10.6,3.3,23.8,4.4,34.1,1.2c22.5-6.9,23.7,7.4,25.1,21.8c1.9,20.3-14.7,12.3-24.2,14.5c-4.8,1.1-10,0.2-15.1,0.2
			C825.1,1980.3,825.1,1980.5,825.1,1980.6z"/>
		<path class="st1" d="M818.1,2237.4c-9.6-1.9-24.4-4.1-38.9-7.8c-7.2-1.8-20-1.6-13.8-15.4c4.4-9.8,3.6-26.5,23.3-19.7
			c14.2,4.9,29.3,8.3,44.4,7c20.6-1.8,13.3,13.7,15.1,23.3c2.6,13.9-7.5,12.5-16.1,12.6C829.2,2237.4,826.3,2237.4,818.1,2237.4z"/>
		<path class="st1" d="M730.5,2194.1c3.7,21.8-7.3,22.8-24.7,17.4c-12.4-3.8-25.2-6.6-36.3-13.3c-7.6-4.6-24.5-4.4-14.5-21.6
			c7.2-12.4,13.3-23.4,30.6-10.8c8.9,6.4,21.3,8.2,32.4,11C727.5,2179,735.1,2181.4,730.5,2194.1z"/>
		<path class="st1" d="M1091.1,1883.2c-1.1-12.8,0.1-22,16.3-21.1c10.1,0.5,19.4-5.1,27.1-11.9c5.3-4.7,8.8-4.4,14.6-0.1
			c21.5,15.7,21.4,21.3-1.6,35.4c-12.5,7.6-25.9,12.4-40.5,13.5C1095,1900,1087.1,1896.8,1091.1,1883.2z"/>
		<path class="st1" d="M912.7,2246c-2.3-0.3-10.5-0.2-17.8-2.7c-7.8-2.6-23,1.4-17.4-16.5c3.9-12.7,5.5-26,24.9-19.3
			c8.6,2.9,18.4,2.8,27.7,2.9c8.4,0.1,12.7,1.5,13.6,11.5C946,2246.6,944.8,2248.4,912.7,2246z"/>
		<path class="st1" d="M752,1960.4c3,13.9-2.4,19.4-15.9,17.3c-8.5-1.3-17.2-1.5-25.5-3.5c-25.9-6-27.8-11.5-14.6-33.9
			c3.7-6.3,6.8-7,13.4-4.5c7.3,2.8,15.5,5.4,23,4.6C748.6,1938.9,755,1944.9,752,1960.4z"/>
	</g>
</g>
</svg>
