<?xml version="1.0" encoding="utf-8"?>
<!-- Generator: Adobe Illustrator 23.0.0, SVG Export Plug-In . SVG Version: 6.00 Build 0)  -->
<svg version="1.0" xmlns="http://www.w3.org/2000/svg" xmlns:xlink="http://www.w3.org/1999/xlink" x="0px" y="0px"
	 viewBox="0 0 3000 3000" style="enable-background:new 0 0 3000 3000;" xml:space="preserve">
<style type="text/css">
	.st0{opacity:0.44;}
	.st1{stroke:#000000;stroke-width:10;stroke-miterlimit:10;}
</style>
<g id="Layer_1" class="st0">
</g>
<g id="Layer_2">
	<g>
		<path class="st1" d="M1696.8,1151.5c-75.5-7-149.7-10.1-220.3-35.6c-105.6-38.1-189.8-100.7-216.9-215.8
			c-23.8-101.2,7.6-191.9,73.3-269.2c109-128.2,251-198.5,415.4-225.4c124.9-20.4,250.6-7.9,375.8-3.9
			c185.8,5.9,370.5,24.8,552.8,63.2c43.5,9.2,86.2,22,124.9,44.7c117.8,69.2,161.7,187.9,116,317.6
			c-44.4,125.8-139.8,200.2-258.8,248.4c-71.8,29-147.6,42.9-225.2,52.6c36.2,6.2,72.7,11.4,108.7,18.8
			c78.4,16.1,151.4,42.6,209.9,101.5c58.1,58.5,79.9,131.8,84.9,209.6c14.7,227.6,8.3,454.6-36.8,678.9
			c-51.1,254.2-217.7,399.1-458,469c-165.3,48.1-335.5,48.8-505.7,44.4c-115.9-3-230.7-13.5-341.8-50
			c-83.6-27.4-159.8-67.7-227-124.8c-130-110.3-178.7-254.8-171.9-420.2c5.7-140.5,22.4-279.6,72.8-412.4
			c91-239.4,257.8-400.2,500.6-482.1C1678.6,1157.5,1687.7,1154.5,1696.8,1151.5z M1525.9,1279.9c-15.2,9.4-23.7,14.2-31.8,19.7
			c-133.1,89.9-223.4,212.8-279.3,362.3c-50.6,135.1-66.4,276.2-69.3,418.7c-2.1,103.7,22.1,201.7,86.8,286.6
			c12.8,16.8,21.1,17.3,36.8,3.9c86.6-74.2,152-163.3,190.2-270.9c8.8-24.7,20.6-17.9,37.6-13.6c23,5.9,13.9,18.3,9.2,30.9
			c-40.3,109.9-105.2,202.9-192.8,280.3c-30.4,26.9-30.8,26.7,2.5,52.9c100.7,79.5,218.1,117.1,342.7,136.7
			c16.3,2.6,28.7-3.8,40.9-12.7c130.5-94.5,206.2-220.8,220.4-382.2c1.7-19.2,5.7-27.4,27.8-25.8c23.2,1.7,24.2,11.9,22.5,30.7
			c-14.1,149.5-77.9,273.7-187.9,375.1c-6.9,6.3-16.7,10.4-19.7,22.8c5,1.1,9.5,2.7,14.1,2.9c147.3,5.1,294.3,6.9,440.8-14.9
			c28.1-4.2,49.1-15.1,68.2-35.9c105.4-114.9,175.3-247.5,203.7-401.1c3.6-19.5,12.6-23.8,30.3-20.2c16.8,3.4,24,7.8,19.8,28.7
			c-27.2,136.2-82.8,258.9-168.2,368.3c-6.1,7.8-12.2,15.7-22,28.5c237.3-76.6,361-223.2,401.7-419c40-191.9,44.7-386.1,41.7-581.1
			c-1-62.4-4.7-124.3-23.5-184.4c-12.7-40.4-36.4-72.3-70.8-100.1c-3.8,10.6-6.3,18.1-9.1,25.3c-83,207.9-221.9,357.7-442.6,419.9
			c-111.1,31.3-225.2,25.6-338.7,18.8c-80.9-4.8-161.6-12.3-237.8-43.7c-127.8-52.7-190.3-155.7-177.1-293
			C1496.5,1357,1511.2,1322.5,1525.9,1279.9z M2780.3,944.1c-0.4-3.6-0.7-7.3-1.1-10.9c-82.8,0-165.7-0.1-248.5,0.1
			c-14.9,0-29.4,3.2-28.3-21.3c1-20.6,4.8-29.7,28.4-29c85.9,2.6,171.9,2.9,257.9,4.3c48.6,0.8,65.4-13.8,75.1-71.9
			c-105.8,0-210.5-0.4-315.2,0.4c-19.5,0.1-22.9-7.8-22.2-24.8c0.7-16.2,2.9-25.4,22.9-24.6c47.4,1.9,94.8,1.1,142.3,1.9
			c52.4,0.9,104.9,0.7,157.1,4.2c27.5,1.9,36.2-7.5,36.7-33.7c0.8-45.6-0.4-48.1-42.5-48.1c-100.8,0-201.7-0.4-302.5,0.3
			c-18.5,0.1-26.4-3.8-26.1-24.3c0.3-19.2,5.6-25.5,25.4-25.1c69.2,1.2,138.4,0.4,207.6,0.4c33.6,0,67.2,0,100.8-0.1
			c7.9,0,16.6,1.5,11.6-12.4c-11.3-31.4-59.1-67.6-92.8-68.7c-77-2.5-154.1-5.5-231.1-6.7c-19.1-0.3-25.2-4.7-24.6-24.7
			c0.6-20.4,5.8-27.6,27.1-25.5c23.5,2.3,47.4,0.5,71.2,0.5c-75.6-15.7-151.5-27.1-228-35.3c-18.4-2-27.7,2.4-37.1,18.9
			c-87.8,154.3-176.7,308-265.3,462c-25.8,44.9-51.6,89.9-80.3,140c196.5-9.7,387.9,4.3,575.3-41.1c-14.9-3.1-29.7-3.5-44.4-2.9
			c-16.2,0.6-27.9,0.5-27.4-22.5c0.5-22.3,7.5-29.1,29.4-28c41.4,2,83.4-2.1,124.4,2.8C2710.3,1004.7,2745.4,976.2,2780.3,944.1z
			 M1368.4,668.8c98.7,0,191.3-0.4,284,0.4c16.8,0.2,40.4-10.7,41,24.7c0.6,35-21.8,25.6-39.3,25.5c-94.8-0.4-189.7-0.1-284.5-3.2
			c-30.7-1-44,10.4-53,37.6c-7.4,22.4-4.1,28.8,20.4,28.4c88.9-1.2,177.8,0,266.8-0.8c20.3-0.2,30.3,3,30.3,27
			c0,23.7-11.1,25.4-29,24.1c-13.8-1-27.7-0.2-41.5-0.2c-80,0-160.1,0.3-240.1-0.2c-18.3-0.1-29,2.8-21.2,24.4
			c1.9,5.4,1.1,11.7,1.6,17.6c2.2,24.4,10.7,37.3,40.2,36.1c80.9-3.2,162-1.7,243-3.8c22-0.6,25.6,7.6,26.3,27.1
			c0.7,21.2-8.3,23.7-26,23.6c-74.1-0.3-148.2,0.6-222.3,1.4c-7,0.1-16-4-20.9,5.3c27.8,42.5,33.7,45.7,80.5,46.3
			c54.3,0.6,108.6,2.3,163,2c22.5-0.1,21.8,12.5,22.1,28.8c0.3,18.2-6.1,23.7-24.2,22.9c-33.1-1.5-66.4-0.4-105.8-0.4
			c67.5,27.2,132.9,30.6,198.5,32.6c9.4,0.3,13.4-6.6,17.5-13.6c121.5-204.2,243-408.4,364.9-612.4c9.5-15.9,8.2-22-11.8-22.1
			c-79-0.7-158.1-6.4-237,0.1c-52.9,4.4-105.8,10.6-163.5,34.5c25.5,0,42.3,1.1,58.9-0.3c17.7-1.5,24.4,3.6,23.7,22.6
			c-0.7,17.8-0.9,29.2-24.5,28.9c-55.3-0.8-110.6,1.7-165.9,2c-23.3,0.1-39,11.9-59.2,32.4c73.9,0,141,0.6,208.1-0.4
			c20.2-0.3,27.2,5.8,27.5,26.8c0.3,23-10.1,25-28.6,24.6c-77-1.6-154.2,0.4-231.1-3.8C1416.6,613.1,1392.3,629.9,1368.4,668.8z
			 M1886.4,1163.5c-92.6,11.4-174.8,30.8-253.4,64c-5.3,2.2-10.6,5.7-14.5,9.9c-100.5,107.7-134.2,325.9,78.1,407.3
			c77.9,29.9,159.9,33.5,241.6,38.8c89.9,5.8,180,7.8,268.4-12.3c202.4-46,337.8-173.5,419.9-359.1c40-90.4,47.2-71.3-49-106.6
			c-19.9-7.3-28.8-2.3-38.6,16.2c-59.8,113.5-144.3,204.7-253.8,271.6c-146,89.1-304.2,124.9-473.8,97.6
			c-90-14.4-142.5-76.1-140.6-156.2c1.5-65,35.2-114.1,81.1-155.7C1793.2,1241.3,1836.8,1205.9,1886.4,1163.5z M2498.9,1191.5
			c-92.6-23.6-323.4-42.2-452.2-41.4c-47.3,0.3-85.6,10.9-119.2,45.1c-23.4,23.8-52.1,42.3-77.5,64.1
			c-39.6,34-82.9,64.6-110.2,110.8c-45.4,76.9-14.6,149.1,72,170.9c13.8,3.5,19.6,0.9,23.8-12c11.2-34.1,28.8-64.9,50.3-93.5
			c70.4-94,167-152.3,272.7-197.4c50.2-21.4,102.4-28.9,156.1-12.7c47.3,14.3,79.5,45.5,98.4,94.5
			C2448,1278,2476.7,1237.3,2498.9,1191.5z M1881.6,1550c174.1,4.2,325.5-46.8,456.8-156.3c35.9-29.9,35.5-71.5-1.3-101.2
			c-31.1-25.1-68.1-33.4-106.1-23.5c-122.9,32-225.9,96.4-305.4,196.2C1906.7,1489,1891.3,1515.4,1881.6,1550z M2187.4,455.8
			c-40.1-11-63.9,0.4-85.5,38.3c-88,154.1-180.5,305.7-271.2,458.3c-27.5,46.2-54.6,92.5-83.6,141.7c20.6,0,36.3-0.7,51.9,0.2
			c17,1,26.1-6.7,34.4-21.2c109.3-189.7,219.4-378.9,329-568.4C2171.7,488.8,2184.5,474.5,2187.4,455.8z M1879.3,1092.8
			c30.1-2.9,56.1,9.5,74.3-22.8c109.2-192.8,220.2-384.6,330.2-577c5.1-9,17.8-18.4,12.5-28c-6.1-11-21.6-4.3-32.8-6.5
			c-18.6-3.6-22.9,11.3-29.6,22.9c-99,170.3-197.8,340.7-296.7,511C1918.6,1024.5,1900.1,1056.7,1879.3,1092.8z"/>
		<path class="st1" d="M243.7,2564.5c-26.4,5.2-51.2,11.4-77,6.4c-40.3-7.9-68.8-29.4-79.9-69.9c-12.7-46.2,10.9-82.6,58-91.7
			c44.9-8.6,56.9-16.5,82.7-54.7c-1.5-0.6-3.2-2.1-4.3-1.8c-70.9,21.3-107.8-3.9-105.6-78.2c2.8-93,20.9-182.9,79.8-258.9
			c63.1-81.4,151.8-109.3,250-115.3c40.6-2.5,81.3-0.9,120.6,10.1c25.2,7,24.5-9.9,28.3-24.6c5-19.3-6.4-20.6-21.2-21.1
			c-124.5-3.8-248.9-9.1-373.3-11.5c-24.6-0.5-25.3-9.9-26.4-29.3c-1.4-24.6,12.4-21.3,27.7-20.8c125.4,4.6,250.8,8.9,376.3,13.2
			c25.7,0.9,50.6-34.2,40.2-57.2c-5.4-11.9-17.5-6.5-26.4-6.8c-126.4-5-252.8-10.1-379.2-13.7c-23.5-0.7-27.3-9.6-25.8-30.5
			c1.3-18.9,8.2-21.8,25.7-20.9c129.3,6.2,258.7,11.3,388,16.2c9.9,0.4,25,7.1,29.3-4.9c6.9-19.2,10.1-40.2,11.6-60.6
			c0.6-7.5-11.3-4.5-17.6-4.7c-134.3-4.1-268.7-8.2-403-11.9c-15.6-0.4-28.7,1.7-27.2-22.3c1.3-21.6,7.3-28.5,29.8-27.7
			c132.3,4.8,264.8,7.1,397.1,12.6c28.2,1.2,37.7-7.5,41-34c4.4-35.8,6-35.2-30.2-35.7c-133.4-1.8-266.8-4.2-400.3-5.5
			c-18-0.2-24.5-4.7-23.4-23.3c1-16.8,2.1-27,24-26.5c139.3,2.9,278.7,4.5,418,6.3c12.8,0.2,26.8,5.2,31.6-16.1
			c7.7-34.1,7.3-36.6-27.7-37.1c-138.4-2-276.7-3.8-415.1-5.8c-14.5-0.2-29.6,3.4-28.7-21.2c0.8-23.3,8.7-30,32-29.6
			c141.3,2.9,282.6,4.5,424,6c11.1,0.1,27.3,6.8,32.2-6.7c6.9-19.1,10.6-40.3,10.7-60.6c0.1-9.2-14.9-5-23-5.1
			c-145.3-2.1-290.6-4.2-435.8-5.1c-21.2-0.1-26.1-6.8-26.2-27.1c-0.1-23.2,12.5-22.3,28.3-22.1c144.3,1.9,288.6,3.7,432.9,5
			c12.2,0.1,30.2,7.4,35.8-5c8.3-18.3,11.6-39.8,12.9-60.1c0.8-12.6-13.5-8.3-21.4-8.4c-73.1-1-146.3-1.4-219.4-2.2
			c-70.2-0.7-140.3-2.4-210.5-2.1c-21.4,0.1-25.9-7.9-26.1-27.8c-0.2-20.7,7.9-24.1,26-23.8c145.3,2.5,290.6,3.9,435.8,6.6
			c21.1,0.4,31.2-3.7,34.5-27.4c6.2-44.6,17-88.7,26-133.8c-14.1,0.4-21.5,9.3-30.4,14.6c-102,60.9-211.5,92.9-330.7,82.3
			c-118.3-10.6-183.5-79.1-190.8-197.9c-2.3-37.4-0.9-75.1,6.8-112.1c18.4-87.9,68.5-121.4,156.7-104.9c16.4,3.1,33,5.6,49.5,8.3
			c13,2.1,26,1.2,37.7-4.7c13.7-7,27.2-18.5,21.6-34.4c-5.8-16.5-22.9-11.4-36.2-7.6c-11.3,3.3-22.2,8.1-33.3,12.1
			C355.5,639,284.1,594.3,276.8,514c-7.6-82.5,29.5-147.9,86.1-202.8c88.3-85.7,199-112.6,318-114.8c65.7-1.2,130.2,4.7,191.6,30.5
			c100.5,42.3,151.4,119.4,157.9,227c4.1,67.1-4.5,133.4-30.2,194.7c-33.7,80.2-46.8,164.7-63.2,248.7
			c-45.2,231.2-89.1,462.7-133.8,694.1c-24.6,127.8-49.7,255.4-74.6,383.1c-3.5,17.8-3.4,33.9,7.1,50.6
			c18.6,29.7,26.9,63.5,30.6,98.2c10.7,99.6,15.1,199.5-8.2,297.7c-45.6,192.1-244.5,322.7-439.3,290.9c-5.8-1-11.5-2.7-17.3-4.2
			C223,2687.2,200.6,2633.6,243.7,2564.5z M327.9,463.3c57.9-16.8,109.2-36.9,164.3-43.4c97-11.5,173.6,53.2,176.5,150.6
			c2.9,96.5-72.2,187.4-176.2,214.4c-54.8,14.2-110.3,20.3-166.8,18.9c-49.8-1.2-49.8-1-48.7,49.6c1.9,87.1,56.1,144.6,143.1,150.9
			c39.5,2.9,78.9,1.3,118.1-5.6c282.9-49.9,441.5-300.5,443.6-526.3c0.9-104.8-48.3-175.8-145.9-205.7
			c-127.8-39.1-254.1-30.1-373.6,31.9C397.1,332.5,350.5,384.9,327.9,463.3z M721.6,2256.7c0-29.6,1.1-59.3-0.2-88.9
			c-5.4-127.5-62.5-194-182.8-213.6c-50.2-8.2-100.2-6.3-150.3,3.4c-96.9,18.7-161.2,74.4-194.3,166.9
			c-15.1,42.1-22,85.8-25.9,130.2c-1.7,19.6-8.6,45.9,9.2,54.8c20,10.1,40.2-9.2,56.3-23.5c21.3-19.1,40.2-41,62.3-59.1
			c50-40.8,113.4-34.8,155.9,13.8c41,46.8,41.8,100.7,22.6,155.9c-23.1,66.5-67.3,117.9-122.6,160c-20.3,15.4-43.1,27.4-64.1,41.9
			c-24.5,17-23.4,37.5,2.2,52.5c13,7.6,27.6,10.7,42.3,12.9c145.6,21,301.8-66.5,360.4-200.9C721.7,2396.9,723,2326.9,721.6,2256.7z
			 M682,1956.2C753,1588.4,824,1220.9,895,853.3c-30,25.6-55,49-63.1,91.6c-60.1,316.2-123.3,631.9-187.8,947.3
			C636.8,1928.2,646.6,1945.1,682,1956.2z M334.9,755c46.3,0.8,85.7-3.3,124-12.6c61.5-14.9,114.3-44.1,145.5-102.2
			c23.4-43.7,21-87.8-5-129.4c-24.8-39.8-64.1-45.6-106.7-40.7c-44.4,5.1-86.3,19.9-128.1,34.7c-12.2,4.3-32.1,3.1-33.6,18.7
			c-1.8,18.9,14.4,31.5,29.7,41.2c15.4,9.7,31.5,7.7,48.3,1.8c24.9-8.7,49-20.6,76.9-19.1c50,2.8,78.3,45.5,59,91.7
			c-15.2,36.3-43.9,54.6-82.9,56.9c-27.9,1.6-54.9-4.6-82.1-9c-22.4-3.7-45.2-7.4-66.1,5.9c-20.4,13-29.5,35.7-26.5,55.7
			c2.1,13.7,25.7,3.7,39.5,6.4C331.5,755.8,336.6,755,334.9,755z M190.3,2523.8c8.6-1.6,17.8-1.8,25.8-5
			c69.9-27.9,122.7-77,165.4-137.3c12.8-18.1,18.2-42.4-2-59.2c-19.4-16.2-41.2-7-59.7,6c-23,16.1-37.4,40.2-54.4,61.7
			c-27,34.1-57.9,61.7-103.7,66.7c-11.7,1.3-24,2-27.2,17.4c-2.9,14.1,2.6,25.3,12.1,34.6C158.5,2520.4,173.6,2524.1,190.3,2523.8z
			 M422.7,2289.7c-27.2-44.5-61.7-51.5-89.3-21.6C365.1,2261.8,392.8,2268,422.7,2289.7z"/>
		<path class="st1" d="M1029.1,2546.5c19-1.2,35.2,2.8,50.6,10c40.2,18.6,56.8,57.2,35,95.3c-43.5,76.1-109.9,123.4-197.1,136.7
			c-41.8,6.4-79.8-18.2-95.7-55.3c-15.3-35.5-6.4-64.6,28-97.1c36.2-34.2,74.8-64.2,123.1-79.9
			C992,2550.2,1010.9,2544.9,1029.1,2546.5z M917.9,2739.4c52.2-8.6,98.7-39.6,136.5-84.8c10.2-12.3,26.7-25.8,15.6-43.6
			c-10.3-16.4-30.5-17.6-48.2-15.2c-15.4,2.1-30.7,7-45.4,12.4c-36.8,13.6-65.9,38.8-93.5,65.7c-11.1,10.8-25,20.9-15.5,40
			C876.3,2731.8,891.3,2739.1,917.9,2739.4z"/>
		<path class="st1" d="M1852.8,1951.3c-21-1.3-38.8-21.1-37.8-41.8c1.1-21,20.3-39,41.2-38.4c22.4,0.6,40.9,21,39,43.1
			C1893.5,1935.2,1873.6,1952.6,1852.8,1951.3z"/>
		<path class="st1" d="M2633.1,1734.2c-0.3,21.7-18,39.1-39.7,38.9c-21.6-0.2-38.9-17.7-39-39.6c-0.1-22.6,19.4-41.9,41.1-40.8
			C2616.1,1693.8,2633.3,1712.8,2633.1,1734.2z"/>
		<path class="st1" d="M1530.8,1768.3c0.4,21.7-16.8,39.9-38.3,40.7c-21.5,0.8-39.9-16.2-41-37.9c-1.1-22.2,18-42.8,39.7-42.8
			C1511.9,1728.4,1530.5,1747.1,1530.8,1768.3z"/>
		<path class="st1" d="M2317,1910.1c-0.8,21.1-19.1,37.8-41,37.6c-23.4-0.2-41-18.9-39.3-41.7c1.6-21.5,20-37.4,42-36.4
			C2299.9,1870.5,2317.8,1889.4,2317,1910.1z"/>
		<path class="st1" d="M2734.5,1587.8c21.6,0.1,39.3,17.8,39.5,39.5c0.2,21-17.9,40.3-38.6,41.1c-21.9,0.8-41.4-19-40.9-41.5
			C2695,1605.1,2712.8,1587.6,2734.5,1587.8z"/>
		<path class="st1" d="M1430,1641.6c-0.6,21.6-18.6,39.1-40,38.8c-22.4-0.3-40.8-20.2-39.3-42.6c1.4-21.5,19.8-37.8,41.7-36.9
			C1414.2,1601.8,1430.6,1619.5,1430,1641.6z"/>
		<path class="st1" d="M2471.4,1861.2c0.5,21.7-15.9,38.2-38.3,39.1c-25.1,0.9-38.5-12.2-40.8-36c-2.3-23.3,15.6-41.4,39.2-41.4
			C2453.3,1822.8,2470.9,1839.7,2471.4,1861.2z"/>
		<path class="st1" d="M2129.9,1926.6c-0.7,21.6-19,39-40.3,38.5c-22.5-0.5-40.7-20.5-39-42.9c1.6-21.5,19.9-37.5,42-36.6
			C2114.4,1886.6,2130.7,1904.5,2129.9,1926.6z"/>
		<path class="st1" d="M1700.4,1866.5c-0.4,21.3-18.5,39.2-39.8,39.3c-22.6,0.1-40.7-19-39.6-42.1c1-21.8,19-38.3,40.9-37.5
			C1683.5,1827,1700.9,1845.1,1700.4,1866.5z"/>
		<path class="st1" d="M2234.7,848.2c-2.9,4.7-5.6,9.7-8.9,14.4c-9.1,12.7-20.5,24.3-27.3,38.1c-12.6,25.7-25.6,9.2-39.8,3.1
			c-20.3-8.7-9.2-19.3-2.4-29.4c9.9-14.6,19.7-29.4,31.1-42.7c4.8-5.5,7.6-19.9,18.2-13.4C2216.9,825.2,2228,834.2,2234.7,848.2z"/>
		<path class="st1" d="M2296.2,729.5c-13.7,22.5-24.7,47.8-42.5,66.7c-9,9.6-23.4-8.2-35.2-14.2c-12.6-6.3-3.1-13,0.1-18.8
			c9.1-16.4,18.5-32.6,28.4-48.5c3.7-5.9,6.2-17.7,16.7-10.4C2274.5,711.9,2289.9,714,2296.2,729.5z"/>
		<path class="st1" d="M2105,1035.5c-9.6-8.2-20.7-15.2-28.4-24.9c-7.4-9.2,3.9-15.5,8.3-22.5c5.7-9.1,11.9-18,17.5-27.1
			c14.5-23.8,30.2-25.7,49.5-6.2c4,4.1,5.9,7.8,3.3,12.7c-11.8,22.6-25.2,44.2-41.6,63.8C2112,1033.2,2108.7,1033.8,2105,1035.5z"/>
		<path class="st1" d="M2314.6,658.1c-27.5-0.7-39.3-19.8-26.6-42.1c4.3-7.7,9.1-15.1,14.2-22.4c17.6-25.3,35.8-24.9,52.4,0.7
			c2.5,3.9,3.2,6.2,0.7,10c-10.7,16.4-21.1,33-31.6,49.5C2321.3,657.5,2318.3,659.5,2314.6,658.1z"/>
		<path class="st1" d="M1815.1,812.7c-14.6,20.6-26.7,44.2-45.1,60.9c-8.9,8.1-21.7-11.1-33-17.3c-11-6.1-3.7-12.8,0.6-19.1
			c7.8-11.3,15.5-22.7,23.3-34c15.4-22.4,37.5-22.2,51.1,0.6C1813.5,806.2,1813.9,809.1,1815.1,812.7z"/>
		<path class="st1" d="M1856.1,736.2c-29.3-1.4-42.3-25.3-30.7-45.2c3.9-6.8,8.7-13.1,11.8-20.2c8-18.1,16.4-24.5,36.8-11.8
			c19.3,12.1,17,21.9,6.2,36.8c-6.9,9.5-12.2,20.1-18,30.2C1859.4,731,1856.8,736.1,1856.1,736.2z"/>
		<path class="st1" d="M1696.4,1014.8c-25.2-2.3-36.4-24.1-23.3-45.4c4.1-6.7,7.5-14.1,12.9-19.5c8.2-8.3,9.2-30.9,31.4-13.9
			c17,13.1,28,22.6,9.2,42.4c-7.2,7.6-11.1,18.3-17.2,27.2C1706.3,1009.9,1704.4,1016.9,1696.4,1014.8z"/>
		<path class="st1" d="M1935.6,616.4c-12.1-14.8-40.2-8.3-36.4-27.7c3.9-19.7,5-46.9,27-56.3c6.9-2.9,36.5-3.2,35.2,18.5
			C1960,573,1951.1,595.4,1935.6,616.4z"/>
	</g>
</g>
</svg>
