<?xml version="1.0" encoding="utf-8"?>
<!-- Generator: Adobe Illustrator 23.0.0, SVG Export Plug-In . SVG Version: 6.00 Build 0)  -->
<svg version="1.0" xmlns="http://www.w3.org/2000/svg" xmlns:xlink="http://www.w3.org/1999/xlink" x="0px" y="0px"
	 viewBox="0 0 3000 3000" style="enable-background:new 0 0 3000 3000;" xml:space="preserve">
<style type="text/css">
	.st0{stroke:#000000;stroke-width:10;stroke-miterlimit:10;}
</style>
<g id="Layer_1">
</g>
<g id="Layer_2">
	<g>
		<path class="st0" d="M260.3,1373.6c-75.1-49.9-96.4-124-93.7-204.9c3.7-110.8-1.1-221.6,4.4-332.5
			C183.3,589.5,359.5,474.2,513.7,442c148.2-30.9,284.9,5.2,413.9,78.4c29,16.4,56.9,34.6,83.2,55.1c7.1,5.5,12.4,9.4,20.5-0.1
			c86.4-101.8,306.4-158.6,471.8-62.2c15.6,9.1,26.6,9.2,42.5-0.4c86.3-51.6,176.5-51.6,268.2-15.7c13,5.1,25.7,7.5,39.5,7.7
			c252,2.8,504.1,6.1,756.1,8.2c21.5,0.2,34.1,12,45.9,24.6c13.8,14.7,22.2,12.7,36.6,0.7c27.5-23,58.9-39.2,95.6-43.7
			c36.9-4.5,67.2,6.3,90.7,35.2c43.9,54,64.3,118.2,73.9,185.3c22.2,155.8-6.6,299.7-107.2,424.8c-8.1,10.1-5.6,19.1-2.9,29.6
			c28.5,113.6,44.6,228.6,38,346.1c-10.3,183-73,342-214.5,464.2c-11,9.5-5.6,13.7,0.9,20.9c44.2,48.6,71,104.9,73.7,171.4
			c3.6,90-39.5,163.6-122.6,199.1c-89.7,38.3-182.8,40.2-274.9,8.6c-62.3-21.3-101.3-66.7-117.4-131.1c-0.7-2.9-1.9-5.7-3-8.5
			c-0.2-0.6-1.1-1-2.7-2.5c-2,1.1-4.3,2.6-6.8,3.7c-26.1,12.3-42,24.2-33.1,61.5c10.6,44.3-27.3,84.1-81.5,98.4
			c-41.1,10.9-82.9,9.3-123.2-3.2c-59.5-18.4-80.7-70.7-50.9-125.3c10.1-18.5-5.6-16.9-12.9-24.1c-1.7,2.7-3.2,4.2-3.8,6
			c-30.3,101.5-103,148-204,159c-49.4,5.4-98.5,3.8-146.8-6.2c-125.7-26.2-188.4-135.1-151-260c6.1-20.4,14.7-39.6,25-58.2
			c12.9-23.4-14.3-23.3-22-34.2c-8.8-12.4-10.8,5.2-16.4,8.7c-1.2,0.8-2,2.3-2.9,3.4c-33.4,38.6-63.4,76.9-40.6,134
			c8.5,21.3,3,46.6-1.9,69.7c-19.2,88.8-85.2,132.9-187,125.7c-87.1-6.2-137.8-49.1-149.9-127.1c-4.6-29.8-0.2-59,10.1-87
			c5.2-14.1,1.3-16.6-12.5-16c-38.8,1.9-38.9,1.4-32.6,40.4c18.4,113.9-53.8,205.6-168.9,216c-28.9,2.6-57.6,3.2-85.8-3
			c-96.7-21.3-151.1-106.8-131.9-205.3c1.6-8.3,8.1-17.3,1.8-25.3c-1.8-2.3-11.6-1.6-14.6,1.1c-8,7.2-1.9,16.8-1.2,25.3
			c7.5,90.5-19.6,167.5-96.7,218.7c-77,51.1-159.5,52.8-240.7,8.4c-70.9-38.7-103.7-125.3-81.8-210.4c3.7-14.6,7.6-24.8-14.4-21.9
			c-10.1,1.3-12.4-9.5-15.9-16.8c-26.5-55.9-29.1-113.5-11.6-172.4c2.3-7.9,6-14.9,2.2-23.9c-23.8-55.6-18.8-112.5-4.6-169.1
			c5.8-23.2,8-44.7,0.9-68.5c-9.2-30.8-6.3-63.2-0.3-94.5c6.7-34.8,13.7-69.2,17.5-104.7C137.9,1473.8,175,1423.5,260.3,1373.6z
			 M2413.6,550.4c14.3,33.3,29.2,64.6,41.2,96.9c72,193.4,85,386.6-10.8,576.4c-112.4,222.5-298.5,329.8-544.3,330
			c-147.5,0.1-252.2-73.9-307.7-212.5c-6-14.9-9.3-17-22-5.7c-56,50.2-93.9,112.3-121,181.3c-47.4,121-58.7,247.8-59.7,376.5
			c-0.4,49.5,19.4,90.6,45.1,130.4c9.9,15.3,22.9,21.8,41.8,21.2c191.4-5.7,382.8-10.3,574.2-16.1c155.8-4.7,311.6-11,467.4-15.2
			c23.9-0.6,44.2-6.6,63.7-19c104.7-66.6,177.6-159.1,219.6-275.1c65.5-181,48.3-363.1,2.9-545c-2.5-10-8.6-12.9-17.2-14.9
			c-37.5-8.7-75-17.5-112.3-26.8c-12.1-3-21.2-1.3-30.9,7.5c-22.5,20.4-48.4,36-75.1,50.6c-11,6-17.2,4.1-20-7
			c-2.3-9-16-18.7,2.6-27.5c100.9-47.3,149.6-135.2,178.1-236.7c32.5-115.9,14-222.4-62.9-317.9c-29.6-36.7-61.6-57.5-111.5-52.5
			C2508.6,554,2461.6,550.4,2413.6,550.4z M227.3,1440.3c15.4,2.1,25.9,3.1,36.2,5.1c43.7,8.6,75,32.2,86.4,76.5
			c4,15.7,10.8,19.4,26.1,19.3c112-0.7,224.1,0.2,336.1-0.9c19.4-0.2,22.2,6.9,21.9,23.5c-0.3,18.8-12.6,15.4-23.5,15.5
			c-109.8,0.1-219.6,0.4-329.3-0.2c-16.1-0.1-26.8,1.6-31.4,20.1c-5,19.8-21.4,30.5-40,37c-16.6,5.8-34,7.1-51.4,8
			c-29.5,1.5-59.1,2.3-88.4-1.7c-21.7-2.9-18.1,13.3-20.2,24.4c-3.2,17.1,10.1,10.7,17.6,10.4c24.9-1.1,49.8-3.9,74.8-4.3
			c55.8-1.1,83.7,18.3,98.4,70.7c5,17.8,13.6,21,30.1,20.3c124.1-5.2,248.2-5.7,372.4-2c17.6,0.5,20.8,6,20.8,22.3
			c0,19.1-11.4,15.9-22.4,15.7c-123.4-2.6-246.8-2.8-370.2,1.3c-9.2,0.3-20.4-3.2-26.8,7.5c-16.9,28.1-44.2,28.9-71.9,27
			c-25.6-1.8-51.1-5.4-76.7-8c-48.8-4.9-52.3-1.2-56.6,49.8c-1.3,14.8,3.1,18.1,17,17.7c33.3-0.9,66.6-1.1,99.9-0.1
			c26.6,0.8,49.8,11.2,59.9,37.3c5.3,13.9,11.9,15.7,24.9,15.1c119.4-5.8,238.9-10.8,358.3-16.5c14.3-0.7,23.6-0.9,24,18.7
			c0.4,18.6-8.3,18.3-21.6,18.9c-119.4,5.5-238.8,12-358.3,16.9c-18.6,0.8-32,4.2-43.2,20.5c-10.5,15.3-28.6,21.6-46.6,25.9
			c-24.7,5.9-49.5,4.6-74.4,1.4c-31-4-30.3-3-37,26.4c-4.4,19.2,3.4,20,18.2,17.1c34.3-6.8,69.1-7.2,103.8-4.6
			c40.9,3,67.4,29.9,66.9,71c-0.2,18.3,5.5,20.8,21.7,19.8c80.8-5,161.7-9.1,242.5-13.3c136-7.2,272-14.2,408.1-21.5
			c6-0.3,13.1,1.2,18.5-4.9c-5.5-4.4-10.3-8.1-15-12c-75.9-64-120-143.5-116.1-244.9c2-52.9,10.4-105.3,22.1-156.9
			c28-122.7,71.9-239,145.5-342.2c37.1-52,88.4-83.6,151.6-95.7c50.4-9.6,100.8-9.3,151.5-4.2c8.8,0.9,19.6,5.5,19.2-12.2
			c-1-56.8-0.7-113.5-0.4-170.3c0.1-10.3-2.9-15.4-13.8-15.8c-23.6-1-46.2-7.4-68.4-14.5c-84.8-27.3-159.6-93.3-131.2-210.4
			c28.1-115.6,75.4-223.1,146.7-319.2c5-6.8,13.9-12.1,12.5-22.7c-81.1-5.5-180.9,24.9-242.6,74.7c-38.7,31.2-62.7,71.1-68.2,121.3
			c-4,36.9,3.4,72.2,13.5,107.3c12.4,42.8,27.9,84.7,36.2,128.6c14.8,77.6-10.4,151.4-90.2,190.4
			C865.8,1177.7,788,1266.2,728.6,1371c-6.3,11.1-12.6,15.9-25.8,16.1c-121.8,2.3-243.7,5.4-365.5,8.4
			C297.2,1396.5,263,1412.5,227.3,1440.3z M205.5,1012.2c0,25.7,0.4,51.4-0.1,77.1c-0.8,45.3-4.5,90.6,3,135.9
			c12.1,72.8,58.6,137.5,159.4,132.7c102.7-4.9,205.6-5.7,308.5-7.7c13.2-0.3,21.8-3,29.3-15.3c65.9-109.1,152.5-196.8,268-253.8
			c27.6-13.6,43.6-36.3,52.7-64.9c7.8-24.5,6.3-49.5,1.9-74.1c-7.8-44-24.2-85.6-36.3-128.4c-17.8-62.5-24.5-124.9,4.2-186.1
			c5.7-12.1-0.1-16.2-7.6-21.9c-44.9-33.8-92.7-62.6-144.1-85.3c-108.7-48-221.4-69.5-338.1-37.6
			c-155.2,42.4-261.6,135.6-290.9,300.6C202,859.1,206.2,935.8,205.5,1012.2z M1420.9,981.8c-4.4,107.8-4.4,182.7-3.5,257.7
			c0.3,23.7,3.9,46.9,19.2,66.4c25.4,32.5,69.8,37.2,98.9,10c46.1-43.1,98.5-75.9,160-90.9c18.1-4.4,17.7-10.2,14.3-24.7
			c-5.2-22-8.8-44.5-11.3-67c-12-107.7,5.3-212.8,29.8-317c20.9-89,49.4-175.8,81.9-261.2c2-5.1,13.4-13-1.8-19.3
			c-46.9-19.3-95.1-31.4-145.9-24c-123.3,17.9-217.7,116.7-231.9,244.5C1421.1,842,1422.7,928.5,1420.9,981.8z M1832.2,1357.9
			c2.4-0.6,4.8-1.2,7.2-1.8c0-39.3-1-78.5,0.2-117.7c2.6-86.7,21-169.5,65.9-244.8c48.4-81.1,118.9-131.1,212.2-148.6
			c63.9-12,128-10.4,192.2-4.3c13.5,1.3,20.1,1,17.1-17.1c-14.8-91.7-42.9-179-81.7-263.2c-5.5-11.9-12.7-14.2-24.5-14.3
			c-113.5-1-227-2.1-340.5-4.3c-18-0.4-26.4,4.5-32.8,21.8c-50.6,137.1-94.9,275.8-110.6,422c-10,93.7-3.8,185.8,29.6,274.9
			C1780.7,1298.1,1799.3,1333,1832.2,1357.9z M2373.4,942c-0.5,9.8-1.4,28.7-2.4,47.6c-11.2,208.1-145.8,374.4-346.9,427.2
			c-63.6,16.7-127.2,19.5-187.9-11.9c-54.4-28.1-85.1-75.8-105.1-131.4c-5.1-14.3-11.8-16.8-24.9-13.1c-27,7.7-52.6,18.7-77.2,32.1
			c-8.8,4.8-11.5,9.7-7.9,19.7c34.2,95.7,95.2,163.7,195.5,192c51,14.4,102.6,16.4,155.1,10c318.1-38.6,476.4-284,499.1-517.6
			c13.4-137.7-18.4-267.3-74.5-392c-25.7-57.2-26.3-56.9-89.6-57.7c-25.8-0.3-25.8-0.3-15.5,23.4
			C2341.4,686.1,2372.1,806.2,2373.4,942z M1376.9,1996.3c-35.4-58.1-21.8-118.7-24.5-181.5c-7.2,12.2-11.6,20.7-16.9,28.6
			c-29.9,44.8-78.1,66.2-124.5,55.7c-44-10-80.4-50.8-88.4-99.2c-13.1-79,46.4-170.6,124.1-191.2c44-11.7,79.2,5,98.4,46.5
			c7.4,15.9,11,33,15.4,53.9c2-7.6,3.3-11.2,3.9-14.8c14.4-92.4,37.8-182,84-264.3c5.8-10.4,0.1-12.9-7.3-16.1
			c-21.6-9.4-43.9-16.4-67.4-18.8c-115.6-11.6-202.8,38.4-268.3,128.8c-81.4,112.5-97.8,241.9-86.6,376.1
			c3.4,41.2,27.7,71.4,66.5,87.9c22.4,9.6,45.9,15,70.3,16.4C1228,2008.7,1299.1,1987.6,1376.9,1996.3z M2347.8,2057.1
			c-42.9,2.7-42.8,2.8-63.3,41c-9,16.7-15.8,34.3-20.6,52.6c-26,98.1,22.3,180.5,120.9,202.8c66.8,15.1,133.7,13,199-9.3
			c78.9-27,121.2-87.5,118.5-170.7c-1.8-55.1-25-101.7-59.9-143.6c-12.5-14.9-22.6-17.8-38.4-4.9c-10.3,8.4-23,14.7-35.6,19.6
			c-12.7,5-15.4,11.9-14.5,25.3c2.8,42.7-21.5,69-63.9,71.1c-13.6,0.7-27.3,0.6-40.8-0.2c-36.6-2.3-62.3-24.7-63.4-61.2
			c-0.7-21.9-8.3-25.8-26.5-22.3C2355.5,2057.7,2351.6,2057.1,2347.8,2057.1z M1678.6,2377.4c6.8-0.4,13.6-0.4,20.4-1.2
			c57.4-6.7,108.5-24.9,144.8-73.8c47.8-64.5,36.4-159.5,1.5-219.1c-5-8.6-11.6-10.3-20.7-9.8c-25.7,1.4-51.4,3.3-77,2.9
			c-14.2-0.2-17,4.3-17.8,17.8c-1.9,37.1-21.5,56.4-59.5,62.5c-50.3,8.1-89.5-6-103.3-37c-0.9-2.1-2.3-4.3-2.3-6.4
			c1.5-34.6-20.7-34.9-45.6-32c-7.5,0.9-15.2,1-22.7,0.2c-12.2-1.3-19.4,4.1-25.8,14c-17,26.4-29,54.9-34.6,85.6
			c-16.8,91,27.9,161.9,117.1,186.2C1594.3,2378.6,1636.4,2378.4,1678.6,2377.4z M2920.9,792.5c0.8-14.3-0.8-40.7-5.1-66.9
			c-10.2-60.9-27.1-119.3-64.7-169.8c-13.3-17.9-30.7-25.2-52.9-24.2c-32,1.5-56.4,18.9-82.2,34.9c-15.7,9.7-17.7,15.5-6.1,31.2
			c62.9,84.5,83.1,179.7,66.7,283.2c-11.3,71.3-38.3,136.7-77.4,196.9c-12.2,18.7-6.3,22.1,11.2,25.6c25.9,5.2,51.6,11.2,77,18.3
			c15.4,4.3,24.3,0.1,34.1-12.5C2890.9,1019.3,2920.9,917.1,2920.9,792.5z M1373.9,1032.6c9.8,2.1,6.4-9.9,6.7-18.1
			c2.9-72.5,6.2-145,8.2-217.6c2.6-89.8,31.8-168.7,93.8-234.2c10.7-11.3,6.4-15-4.2-20.6c-26.2-13.8-54.3-22.6-82.3-31.5
			c-14.1-4.5-23.3-0.7-32.9,11.1c-77,96-125.9,205.7-158.3,323.4c-14,50.7-7.8,98.3,34.1,135
			C1275.6,1012.2,1321.2,1023.6,1373.9,1032.6z M1366.4,2033.6c-28.6-3.5-52.4-1.7-76.4,0.3c-51.2,4.4-102,12.8-153.8,6.7
			c-85.2-9.9-146.9-61.1-155-134.7c-12.6-114.2,1.3-225.4,49.7-330.3c44.1-95.6,112.2-168.6,214-204.3
			c72.3-25.3,144.2-22.6,214.4,9.3c7,3.2,16.5,11.1,20.4-1.5c4.1-13.3-9.8-9.1-15.8-11.3c-24.8-9-47.3-21.3-60.9-44.7
			c-7-12-16.3-16.8-29.2-17.4c-31-1.5-61.9-4.7-92.9-4.3c-81.4,1-151.7,26.3-199.2,97.3c-58.2,87-97.1,182.6-123.3,283.5
			c-17,65.3-29.9,131.7-29.8,199.2c0,108.4,71.7,191.1,160.2,238.2c6.5,3.4,13.1,2.9,19.9,2.5c62.7-3,125.4-6.2,188.2-9
			c6.7-0.3,11.5-2.3,15.4-7.5C1329.3,2082.9,1346.5,2060,1366.4,2033.6z M371.5,2199.5c0-0.2,0-0.4,0-0.6
			c-50.5,2.8-101,5.7-151.6,8.2c-10.9,0.5-17.8,3.5-22,14.8c-17.2,46.4-17.2,91.7,6.7,135.7c34.2,62.9,118,92,197.9,70.3
			c94.3-25.5,149.1-116.9,132.3-223.1c-2.1-13.4-9.7-14.4-20.8-13.6C466.5,2194.2,419,2196.8,371.5,2199.5z M778.1,2385.7
			c3.8,0,7.5,0.1,11.3,0c128.2-3,169-109.1,141.7-200.7c-2.7-9-5.9-14.2-16.9-13.6c-88.3,5-176.7,9.6-265.1,13.7
			c-11.1,0.5-15.6,5.2-18.6,15.2c-9.5,32-11.5,63.8-1.2,96C649,2357.3,702,2389.4,778.1,2385.7z M2248,874
			c-33.3-2.1-66.6-0.1-99.6,4c-93.8,11.8-165.9,57-213.3,139.8c-63.8,111.5-61.7,234-58.4,356.3c0.5,17.3,22,10.9,33.7,14.9
			c11.9,4,10.6-6.9,11.6-13.8c4.4-29.9,8.8-59.8,12.8-89.8c10.4-78.1,21.7-155.9,61.9-225.8c41.4-72,102-115.7,184.7-128.6
			c43.6-6.8,87.3-5,131-3.7c10.1,0.3,24.6,6.1,22.2-14.2c-1.7-14.9,7.2-35.1-20.9-35.2C2291.8,877.8,2269.9,875.4,2248,874z
			 M1178.9,2157.2c-27.5,1.7-62.2,3.8-96.9,5.9c-5.9,0.4-11.8-0.8-15.6,6.2c-38.5,69.2-24.8,169.6,67.7,185.8
			c24.2,4.3,48.4,5.1,72.3,2.2c59.8-7.2,94.3-40.1,104.1-99.6c5.1-30.8,2.9-61.7-5.8-92.1c-3-10.7-7.3-14.8-18.8-13.9
			C1252.7,2154,1219.4,2155.2,1178.9,2157.2z M2080.5,2063.3c0,1.6,0,3.1,0,4.7c-24.2,0-48.4,0.9-72.5-0.2
			c-27.8-1.4-49.6,10.7-69.1,28.1c-28.8,25.8-31.9,58.4-22.3,93.6c8.8,32.3,35.2,42.7,63.8,45.2c48.9,4.3,98.2,3.3,147.1-0.8
			c15.7-1.3,31.3-5.4,45.7-12.5c29.8-14.8,45.3-39.1,42.2-68.6c-2.7-25.8-10.7-49.9-24.9-72.1c-8.2-12.7-17.1-18.8-33.1-17.8
			C2131.9,2064.5,2106.2,2063.3,2080.5,2063.3z M2052.5,1365.9c4.9-1.1,7.8-1.3,10.3-2.4c114.6-48.2,201.5-124,243.6-244.5
			c23.7-67.8,20.2-72.5-52.9-68.3c-69.2,4-119.6,34.2-143,102.3c-4.9,14.3-10.6,28.3-15.2,42.6
			C2077.6,1251,2062,1306.9,2052.5,1365.9z M2277.3,1013.1c12.8,0.6,25.8,0.4,38.5,1.9c23.2,2.8,15-15.9,17.4-25.9
			c2.5-10.3,5.3-23.4-13.3-23.5c-25.7-0.2-51.4-1.7-77.1-1.7c-119.3-0.1-192.9,50.4-235.5,162.3c-31,81.5-33,168.5-47.2,253.2
			c-1.4,8.5,1.8,10.2,9.7,10c33.7-0.7,40.1-6.5,46.8-40c15.6-78.6,35.2-156.2,67.4-229.9c22.7-51.9,62.1-84.3,116.9-98.6
			C2226,1014.4,2251.5,1012.5,2277.3,1013.1z M1322.9,1750.8c1-28.9-0.7-57.4-14.6-83.7c-10.5-20-26.1-27.5-48.8-22.7
			c-63.1,13.2-115.4,98.9-96.8,160.7c8.7,28.6,26.9,49.7,56.5,56.9c30.1,7.3,54.8-5.2,75.1-27.2
			C1316.2,1811.1,1323.1,1782.2,1322.9,1750.8z M226.9,1605.5c0,0.3,0,0.7,0,1c18.1-0.8,36.3-0.5,54.3-2.7
			c17.6-2.1,34.2-6.8,37.6-29c7.6-50.7-23-89.8-74.2-93.3c-12-0.8-24.2,0.5-36.2-0.1c-12.5-0.6-19.1,5.5-24.2,16.2
			c-11.5,24.3-16.1,50.1-19.2,76.5c-3.5,30.1-3.7,30.3,25.6,31.4C202.7,1605.9,214.8,1605.5,226.9,1605.5z M2043.4,2369.2
			c8.4-0.5,20.5-0.3,32.4-2c24.8-3.5,46.6-13.3,60.8-35.1c9.4-14.4,9.9-29.7,1.7-45.1c-7.9-14.9-21.1-14.2-35.3-13.3
			c-38.9,2.5-77.9,3-116.9-0.9c-5.9-0.6-12.2-2.3-17.2,2.7c-24.1,24-33.5,59.7,4.7,81C1994.3,2368,2017.1,2368.4,2043.4,2369.2z
			 M218,1711.4c0,0.2,0,0.4,0,0.6c-13.6,0.7-27.1,1.4-40.7,2.2c-3,0.2-6.4-0.1-8.9,1.2c-8,4.2-22.6-4.4-23.7,13.4
			c-1.3,21.5,9.2,53.6,21.2,55.8c42.3,7.5,85,12.3,128.1,12.6c10.7,0.1,18.6-3.4,17.3-17.5c-4.8-52.5-22.6-69.1-75.1-68.4
			C230.1,1711.4,224,1711.4,218,1711.4z M219.5,2168.5c0-0.6,0-1.1,0-1.7c16.6,0,33.2,0.5,49.8-0.1c24.4-0.9,31-11.5,22.9-34.9
			c-4.8-14-15.5-20.7-28.9-21.9c-37-3.5-73.9-1.6-110.3,6.4c-5.8,1.3-10.8,1.7-10.4,11c1.6,34.9,12.9,45.9,47.5,43.5
			C199.9,2170.2,209.7,2169.3,219.5,2168.5z M201.1,1932.1c-16.6,0-33.3,0-49.9,0c-6.4,0-11.2,0.6-12,9.4
			c-2.8,29.8,15.2,52,44.4,53.6c9.8,0.5,19.6,2.1,29.4,2.5c17.6,0.7,34.8-1.5,50.5-9.9c14.1-7.5,20.9-20.1,19-35.7
			c-2-16.5-16.4-18.7-29.1-19.6C235.9,1931.2,218.4,1932.1,201.1,1932.1z M2467,2054.2c-8.2,0-19.5,0.1-30.8,0
			c-6.5-0.1-11.3,0.8-13.4,8.7c-4.2,16.5,5.1,34.8,21.9,38.8c17.1,4.1,34.6,3.9,51.7,0.3c21-4.4,20.5-21.2,19.7-37.5
			c-1-19.8-16-10.6-25.6-11.6C2483.8,2052.2,2476.9,2053.5,2467,2054.2z M1645.5,2077.9c0,0.7,0,1.4,0,2.1c-9,0-18.2-0.9-27.1,0.3
			c-6.9,1-18.4-5.4-19.5,8.2c-1,12,2.9,22.4,15.8,26.7c20.7,6.9,41.8,6.3,62.3,0.8c13.9-3.7,16.7-16.9,15-29.4
			c-1.8-14.1-13.7-8-21.8-8.6C1662.1,2077.4,1653.7,2077.9,1645.5,2077.9z M2261.2,2061c-13.4-1-24.1-1.8-35.3,3.4
			c5.4,10.6,10.2,20.3,16.4,32.4C2249.1,2083.8,2254.6,2073.4,2261.2,2061z"/>
		<path class="st0" d="M353.8,1001c-1.5-44,1.3-87.9,10.7-130.9c24-109.2,112.9-185.1,227.2-197.3c82.9-8.9,160.5,9.9,236.9,39.3
			c15.3,5.9,10,13.8,6.3,22.6c-4,9.5-5.8,19.1-22.2,12.6c-62.1-24.9-125.9-41.3-194-38.3c-126,5.6-207.7,79.2-223.1,204.2
			c-5.7,45.9-6.2,91.9-3.8,138.2c4.3,82.5,47.7,137.9,118.2,175.1c50.5,26.6,105.7,35.8,161.6,40.6c15.1,1.3,20.2,4.3,19.6,20.7
			c-0.6,18.5-9.4,18.3-22.9,17.1c-71.5-6.3-140.9-20.2-202.2-60.2c-73.2-47.7-112-114.8-112.4-203
			C353.7,1028.2,353.8,1014.6,353.8,1001z"/>
		<path class="st0" d="M453.9,993.9c2.9-27.7,2.4-52.6,13-76.1c4.1-9,8.6-17.6,14.6-25.3c29.9-38.3,83.9-53.1,121.2-33.4
			c37.5,19.8,53.7,68.7,37.4,117c-14.1,41.6-39.9,76.2-70.7,106.5c-19.1,18.8-43.5,27.9-70.7,17.5c-26.1-9.9-37.5-30.8-41.1-57.5
			C455.4,1025.5,453.3,1008.3,453.9,993.9z M492.6,999.9c0.5,9.3,0.6,21.4,1.9,33.4c1.3,12.1,2.9,25.1,15.8,30.5
			c13.7,5.7,25.8-0.8,34.8-10.3c25.1-26.5,47.3-55.3,59.2-90.3c10-29.3,2.3-57.6-17.3-69.4c-19.1-11.5-49.1-4.8-70.2,16.1
			c-8.7,8.6-14.7,18.9-18,30.9C493.8,959.3,493.4,978.2,492.6,999.9z"/>
		<path class="st0" d="M703.1,1030.6c3.8-30.4,2.4-56.3,13.6-80.4c3.8-8.3,7.6-16.4,12.9-23.6c29.5-39.8,84.1-55.8,122.4-36
			c38.3,19.8,54.8,69.9,37.5,118.9c-14.3,40.6-39.5,74.7-69.8,104.5c-19.1,18.8-43.3,28.2-70.6,18.2c-27.2-10-39-31.7-41.7-59.3
			C705.8,1057.1,704.2,1041.4,703.1,1030.6z M858.1,980.8c-0.2-43.3-19.9-64.3-48.2-60.4c-27.4,3.7-49.4,18.4-58.5,44.5
			c-12.6,36.3-12.1,74.6-4.7,112.1c4,20.6,21.2,28.2,37.5,15.4C823.8,1061.1,850.5,1020.9,858.1,980.8z"/>
		<path class="st0" d="M2569.8,2206.2c-3,9.2,7.5,25.9-16.1,25.3c-19.2-0.5-23.8-8-23.1-25.9c0.7-16.3,1.6-25.4,22.6-25.2
			C2575.6,2180.6,2569,2194,2569.8,2206.2z"/>
		<path class="st0" d="M2393.6,2209.5c0.3,9,4.5,25.8-22.2,22.4c-12.9-1.7-17.1-5.4-15.9-17.5c0.6-5.9,0.7-12,0-18
			c-1.7-14.8,2.7-21,19.3-21.1c16.9-0.1,21,6.3,18.9,21C2393.3,2198.6,2393.6,2200.9,2393.6,2209.5z"/>
		<path class="st0" d="M1530.4,2216.5c-0.2-13.7-4.7-28.8,19.6-26.8c14.9,1.2,20.1,5.3,18.3,19.5c-0.6,4.4-0.3,9,0,13.5
			c0.9,14.5,1,25.3-20.1,25.2c-21-0.2-18-12.1-17.9-24.6C1530.4,2221,1530.4,2218.7,1530.4,2216.5z"/>
		<path class="st0" d="M1744.4,2224.5c1.5,12.7,0.7,21.8-19,21.9c-25.5,0.1-16.7-16.4-18.1-28.7c-1.6-14.2,1.4-21.1,18.9-21.2
			C1748.8,2196.3,1744.6,2210.1,1744.4,2224.5z"/>
	</g>
</g>
</svg>
