<?xml version="1.0" encoding="utf-8"?>
<!-- Generator: Adobe Illustrator 23.0.0, SVG Export Plug-In . SVG Version: 6.00 Build 0)  -->
<svg version="1.0" xmlns="http://www.w3.org/2000/svg" xmlns:xlink="http://www.w3.org/1999/xlink" x="0px" y="0px"
	 viewBox="0 0 3000 3000" style="enable-background:new 0 0 3000 3000;" xml:space="preserve">
<style type="text/css">
	.st0{stroke:#000000;stroke-width:10;stroke-miterlimit:10;}
</style>
<g id="Layer_1">
</g>
<g id="Layer_2">
	<g>
		<path class="st0" d="M1590.1,171.9c119.8-4.5,239.7-8,359.5-13.7c165.1-7.8,325.6,12.7,481.7,68.6
			c136.1,48.7,255.3,121.3,347.4,234.5c71.5,87.9,111.7,190.2,134.5,299.8c49.7,238.6,64.5,480.1,57.5,723.3
			c-4.2,146.4-18.1,291.8-37.9,436.9c-16.8,123.8-43.3,245-96.3,359.1c-98.8,212.8-257.4,361.1-477.5,443.9
			c-136.5,51.3-275.1,93.9-420.5,112.2c-111.3,14.1-223.3,18.2-335.2,21c-138.4,3.4-276.8,0.4-414.8-12c-186-16.7-368-54-548-103.3
			C372.4,2668.6,201.5,2492,97,2240.8c-40.9-98.4-54.8-199.9-53.1-304.9c4.2-260,5.1-520,12.8-779.9c2.8-95.8,8.1-190.9,39.8-282.4
			c121.4-351,365.8-564.8,725.6-649.5c107-25.2,216.2-31.2,325.5-35.5c131-5.2,262-10.2,393-15.1c16.4-0.6,32.9-0.1,49.4-0.1
			C1590.1,172.9,1590.1,172.4,1590.1,171.9z M2025,1928.6c3,22.4,5.9,43.2,8.4,64.1c2.7,21.8,0.5,43.4-1.9,65.1
			c-10.7,96.9-67.1,151.8-164.3,159.6c-76.3,6.1-143.1-37.8-167.6-110.8c-18.4-54.8-16.3-110.3-3.6-165.8
			c2.5-11.1,1.8-15.2-10.9-15.1c-50.1,0.3-100.2,0-150.3-0.8c-12.4-0.2-13.6,3.4-11,14.7c7.4,32.2,10.5,65,8.9,98.1
			c-5.1,103.6-51.8,160.5-149.2,181.6c-73.3,15.8-154.9-29.7-182.4-102.5c-21.5-56.9-20.5-115.1-5.9-173
			c4.6-18.4-0.6-20.2-16.8-20.3c-353.9-1.8-707.9-4-1061.8-6.2c-4,0-7.9,0.3-11.9-0.1c-8.3-0.7-12.1,2.6-11.8,11.2
			c1.3,50.7-1.2,101.5,6.9,151.9c10.1,62.9,32.6,122,58.7,179.5c88.4,194.6,222.7,343.7,429.7,413.8
			c202,68.3,410.6,107.3,623.2,124.9c144.7,12,289.5,14.4,434.6,9c104-3.8,208-8.1,311.3-22.6c134.5-18.8,262.7-59.9,389.1-107.9
			c184.9-70.1,326-190.5,420-364.8c59.8-110.8,94.8-229.5,111.2-354c1.4-10.9,13-26.1-14.2-26.2c-272.9-0.4-545.7-2.1-818.6-3.4
			C2038.2,1928.6,2031.7,1928.6,2025,1928.6z M98.9,1452.7c-1.8,0-3.5,0-5.3,0c0,132.5,0.1,264.9-0.1,397.4
			c0,11.1-1.3,19.5,15.4,19.5c111.4-0.3,222.8,0.5,334.1,1.3c11.9,0.1,16.1-3,15.2-15.6c-2.4-34.2-3.8-68.4-4.7-102.7
			c-3.9-165.8,7.9-330.5,39.1-493.5c17.7-92.3,30.1-185.6,55.8-276.4C601.1,796.5,720.6,674.2,903.7,617
			c87.3-27.3,179.1-36.3,270.8-41.1c126.8-6.6,253.8-6.4,380.7-6.5c92.9-0.1,185.9,1.4,278.8,3.3c92.9,2,185.5,7.6,276.9,26.8
			c159.1,33.4,277.6,119.3,349.4,266.4c31.4,64.4,49.1,133.2,61.6,203.4c12.5,70.7,16.9,142.5,25.3,213.7
			c13.7,116,20.2,232.2,16,349.1c-2.7,75.2-10.7,149.7-20.3,224.2c-1.4,10.8-9.8,26.2,14.7,26.1c104.8-0.2,209.6,1,314.4,2.1
			c11.6,0.1,17-1.8,18.9-15.4c12-89.5,20.7-179.3,26.2-269.4c9.8-161.4,10-322.7-3.4-483.9c-10.2-122.2-24.6-243.6-51.7-363.4
			c-37.9-167.8-124.6-302.3-270.8-394.8c-143.7-90.9-303.1-136.8-471.6-148.7c-167.7-11.9-335.3,6.8-503,9.6
			c-107.2,1.8-214.4,8.2-321.6,13.3c-126.3,6-253,4.4-378.5,23.6C776,277,643.5,319.9,522.8,395.8
			C334.3,514.4,210.6,683,140.9,893.1c-18.1,54.7-27.8,111-31.4,168.4C101.3,1191.7,101.7,1322.3,98.9,1452.7z M888.2,1871.6
			c0,1.3,0,2.6,0,3.9c120.6,0,241.1-0.3,361.7,0.4c15.6,0.1,21.2-4.3,24.1-19.9c26.4-142.5,30.3-285.5,8.7-428.6
			c-43.9-289.6-176.2-535-377.3-745.3c-6.7-7-12.1-9-22.2-5.5c-52.3,18.2-99.1,45.4-141.3,81c-82.5,69.6-129.6,160.7-153,263.5
			c-39.3,172.7-71.7,346.8-83.3,524c-6.7,102-5.7,204.1,0.5,306.2c1,15.8,6.3,20.8,22.4,20.7
			C648.4,1871.3,768.3,1871.6,888.2,1871.6z M2234,1879.7c0,0.5,0,1,0,1.4c79.7,0,159.5-0.3,239.2,0.3c12.7,0.1,18.4-2.6,20.2-16.3
			c16-121.7,25.6-243.6,21.6-366.5c-3.4-105.5-13.7-210.3-25.7-315c-9.9-86.4-23.6-172.2-54.6-254.1
			c-39.2-103.7-104.4-184.9-203.1-238c-14.7-7.9-20.5-5-28,9.1c-37.1,69.1-71.1,139.6-100.4,212.3
			c-72.5,180.1-117.5,367-134.1,560.5c-11,127.8-8.3,255.4,3.7,383c1.7,17.6,7,24.1,26.1,23.8
			C2077.2,1879,2155.6,1879.7,2234,1879.7z M950.6,656.1c3.7,10.2,11.4,15.8,17.5,22.4c47.5,51.4,91,105.9,130.7,163.4
			c124,179.6,204.2,376.4,233.7,593.2c19.4,142.2,15.5,283.8-10.4,424.8c-2.7,14.5,1.3,16.6,14,16.4c35.6-0.4,71.2-0.8,106.7,0.8
			c17,0.8,23.6-4.7,27.2-21.3c45.4-207.1,45.1-414.3-0.6-621.1c-49.2-222.6-148.8-420.8-292.8-597.1c-4.5-5.5-8.1-11.7-17.1-11.3
			C1089.1,629.7,1019.6,638.7,950.6,656.1z M1762.9,1720.2c0,47.4,0.3,94.8-0.2,142.2c-0.1,12.1,4.1,15.8,16,15.7
			c34.9-0.4,69.8,0.2,104.8,0.5c45.7,0.3,45.4,0.4,40.3-45.2c-21.4-192.7-10-384.1,26.5-574c39.2-203.8,109.7-396.6,209.6-578.5
			c7.3-13.4,4.4-17.3-8.8-21c-46.4-13-93.7-21.1-141.2-28.3c-17.8-2.7-26.3,2.2-33.5,19.6C1835.3,993.7,1762.7,1349.9,1762.9,1720.2
			z M1231.3,623.1c0.2,3.1-0.1,4.7,0.5,5.5c37.2,47.8,72.6,96.9,103.5,149c4.6,7.8,11,7.9,18.4,7.9c167.9,0.4,335.7,0.6,503.6,1.5
			c13.1,0.1,18-5,22.1-16.5c14.9-41.4,30.9-82.5,46.8-123.6c8.5-22,8.9-22-14.5-22.9c-208.6-8-417.3-6.7-626-3.6
			C1267.7,620.7,1249.5,622.2,1231.3,623.1z M1368.8,833.5c24.7,46.2,46.1,89.1,64.6,133.3c3.8,9,10.1,8.7,17.4,8.7
			c116.5,0,233-0.2,349.5,0.2c10.5,0,14.7-3.4,17.5-13.4c10.2-36,20.5-72.1,32.7-107.5c5.8-16.9,1.5-19.5-14.6-19.6
			c-149.4-0.2-298.8-1.1-448.3-1.7C1382.7,833.5,1377.7,833.5,1368.8,833.5z M1233,2022c0.7,28.4,4.1,56.4,15.6,82.8
			c18.3,41.9,61.4,69.4,107.9,69c54.8-0.5,94.2-25.1,112.7-70.8c22.5-55.7,17.5-112.1,3.9-168.7c-2.3-9.7-8.8-9.6-16.4-9.6
			c-64.5,0.1-129,0.2-193.5-0.4c-11-0.1-14.6,4.6-17.2,14C1238.7,1965.8,1234.2,1993.6,1233,2022z M1863.1,1928.6c0-0.7,0-1.3,0-2
			c-32.9,0-65.8,0-98.7,0c-7.4,0-14.6-0.7-17.1,9c-15.3,59.2-21.1,118,7.1,175.2c21.4,43.5,62.2,60.7,105.2,60.6
			c45.4-0.1,87.5-17.5,108.4-65.1c24.2-55.2,20.5-111.4,8.2-168.3c-2.2-10.2-9-9.5-16.3-9.5
			C1927.5,1928.6,1895.3,1928.6,1863.1,1928.6z M1630,1024.1c-52.1,0-104.1,0-156.2,0c-8.9,0-17.9-1.8-12.1,13.1
			c15.4,39.2,27.7,79.5,38.5,120.3c2.7,10.2,8.1,11.6,16.9,11.6c79.1-0.2,158.2-0.3,237.3,0.1c10.6,0,14.6-3.3,16.8-13.9
			c7.7-37.4,15.9-74.7,25.5-111.6c4.4-16.9-0.8-20-16.5-19.8C1730.2,1024.6,1680.1,1024.1,1630,1024.1z M1714.8,1756.9
			c-0.8,0-1.7,0-2.5,0c0-35.5-0.2-71.1,0.2-106.6c0.1-9.1-0.4-14.7-12.1-14.6c-46.7,0.5-93.5,0.4-140.2,0.1
			c-8.6-0.1-11,3.2-11.5,11.5c-4.7,72.3-15.4,143.8-31.1,214.5c-2.8,12.4,0.3,15.7,13,15.5c55.9-0.6,111.9-0.7,167.8,0.2
			c14.6,0.2,17.1-4.9,16.7-18C1714.2,1825.3,1714.8,1791.1,1714.8,1756.9z M1637.1,1217c-35.6,0-71.1,0.4-106.7-0.2
			c-11.8-0.2-14.8,3.2-12.2,14.8c10.6,46.9,17.9,94.3,22.9,142.1c1.1,10.8,5.2,14.5,16,14.5c54-0.4,108-0.4,162,0
			c11.5,0.1,14.1-5.1,15.5-15.2c6.5-46.2,12.4-92.6,21.2-138.4c3.4-17.5-2.7-18-16.1-17.8C1705.6,1217.4,1671.4,1217,1637.1,1217z
			 M1637.7,1437c-25,0-50,0.5-75-0.2c-11.6-0.3-14.6,3.9-13.8,14.9c3,40.7,5.2,81.5,3.2,122.3c-0.6,12.8,6.3,13.4,15.9,13.4
			c43.4-0.2,86.9-0.7,130.3,0.2c14.1,0.3,17.3-4.8,18.1-17.9c2.3-39.4,5.6-78.7,9.6-118c1.1-11.4-1.6-15.2-13.1-14.9
			C1687.7,1437.4,1662.7,1437,1637.7,1437z"/>
	</g>
</g>
</svg>
