<?xml version="1.0" encoding="utf-8"?>
<!-- Generator: Adobe Illustrator 23.0.0, SVG Export Plug-In . SVG Version: 6.00 Build 0)  -->
<svg version="1.0" xmlns="http://www.w3.org/2000/svg" xmlns:xlink="http://www.w3.org/1999/xlink" x="0px" y="0px"
	 viewBox="0 0 3000 3000" style="enable-background:new 0 0 3000 3000;" xml:space="preserve">
<style type="text/css">
	.st0{stroke:#000000;stroke-width:10;stroke-miterlimit:10;}
</style>
<g id="Layer_1">
</g>
<g id="Layer_2">
	<g>
		<path class="st0" d="M474.5,1504.3c0-257.9-0.3-515.7,0.1-773.6C475.1,413.5,690.5,143,999.2,71.4c48.4-11.2,97.6-16.5,147.4-16.5
			c254,0.1,508.1-0.5,762.1,0.2c336.4,0.9,620,248.9,666.3,581.9c4.4,31.7,6.1,63.7,6.1,95.8c-0.2,514.2,0.1,1028.4-0.2,1542.6
			c-0.2,328.5-226.7,603.3-549.3,666.7c-38.9,7.7-78.4,11.4-118.2,11.3c-257.1-0.1-514.2,1-771.3-0.2
			c-333.1-1.6-616.9-251.9-661.7-581.9c-4.5-33.3-6-66.8-6-100.4C474.6,2015.5,474.5,1759.9,474.5,1504.3z M1248.1,2897.1
			c7.3,0.4,11.8,0.8,16.4,0.8c177,0,354-0.3,531,0.4c18.7,0.1,19-5.4,14.3-20.7c-46.7-152.3-66.4-308.5-57.8-467.4
			c11.7-213.3,163.6-405.9,367.9-469.4c125.6-39,252.7-36.3,379.6-6.9c22.5,5.2,26.4,0.9,26.3-20.9c-0.6-392.9-0.3-785.8-0.6-1178.7
			c0-28.2-1.5-56.5-5.2-84.4c-41.4-309.6-302.9-538.6-616-539.2c-251-0.5-502-0.2-753-0.2c-39.8,0-79.3,3.5-118.2,11.4
			c-297.3,60.4-502.6,311.5-502.7,615.1c-0.2,393.7,0,787.3,0,1181c0,28,0,27.8,27.3,21.4c128.4-30.1,257.5-35.4,383.7,6.2
			c181.9,60,299.3,186,352.8,369.2c32.1,110,18.5,222.5,7.1,334.1C1292.6,2732.6,1274.7,2814.4,1248.1,2897.1z M530.1,2175
			c1.6,48.8-3.8,107.7,3.8,166.1c33.4,254.6,171.8,426.8,409.2,521.5c14.1,5.6,19.8,2.6,25.1-11.3c35.5-92.5,57.2-188.1,59.7-287.1
			c5.5-217.2-63.8-408.4-203.4-574.6c-10.7-12.7-23.1-15.5-38.1-16c-81.3-2.9-161.1,5.2-239.9,26.2c-14,3.7-16.7,9-16.6,21.2
			C530.3,2069,530.1,2117.1,530.1,2175z M2525.5,2163.4c0-48.8-0.8-97.6,0.5-146.4c0.4-15.3-4.9-20.7-18.7-24.2
			c-77.4-19.5-156-26.9-235.7-23.7c-14.9,0.6-25.4,5.8-34.9,17.5c-210.9,260.3-256.7,547.5-142.2,861.6
			c5.6,15.4,11.7,17.4,26.2,11.6c201-81,330.9-225.2,386.9-434.8C2530.6,2339,2525.2,2250.9,2525.5,2163.4z M2163.2,1987.8
			c-7.9,1.5-10.8,1.8-13.6,2.6c-168.5,43.1-317.2,213.5-338.4,385.7c-8.7,70.9-5.2,141.5,0.6,212.2c8.1,99.8,26,197.6,57.4,292.9
			c3.9,11.8,8.5,17.2,22,17.1c44.3-0.3,88.1-4.7,131.9-11.3c21.2-3.2,23.4-9.3,15.9-29c-81.7-214.6-82.8-430.1-2.2-645.3
			C2066.7,2133.2,2109,2060.2,2163.2,1987.8z M898,1991c8,11.1,13.2,18.2,18.3,25.4c106.8,150.1,163.4,317,167.8,501.4
			c2.8,118-17.1,232.3-60.2,342c-8.6,22-1.5,26.4,17.8,29c40.9,5.4,81.7,8.9,123,9.7c18.4,0.4,26.1-5,31.8-22.8
			c40-125.3,54.9-254.3,60.2-384.9c5.5-135.4-32.6-255.7-124.3-357.2C1069.6,2064.2,993.6,2016.3,898,1991z"/>
		<path class="st0" d="M1845.2,585.1c-2.9,121.4-50.9,220.2-151,290.3c-141.8,99.3-333.3,69.9-443.5-66
			c-125.9-155.3-98.6-388.5,59.4-507.1c200-150,487.7-32.2,529.1,216.6C1842.9,540.9,1844.8,562.8,1845.2,585.1z M1788.8,558.3
			c-2.6-83.3-48.1-170.3-143.7-229.3c-28.5-17.5-28.6-17.3-51.3,6.6c-137,144.2-158.6,354.7-54.2,523.2c7.7,12.4,15,15.2,29.3,12.1
			C1695,843.6,1788.7,722.8,1788.8,558.3z M1552.2,294.7c-119-12.1-211.4,27.7-273.9,123.5c-69.7,106.7-70.2,218.6-3.6,327.6
			c46.5,76,116,119,208.3,130.6C1377.9,665.9,1400.2,474.2,1552.2,294.7z"/>
	</g>
</g>
</svg>
