<?xml version="1.0" encoding="utf-8"?>
<!-- Generator: Adobe Illustrator 23.0.0, SVG Export Plug-In . SVG Version: 6.00 Build 0)  -->
<svg version="1.0" xmlns="http://www.w3.org/2000/svg" xmlns:xlink="http://www.w3.org/1999/xlink" x="0px" y="0px"
	 viewBox="0 0 3000 3000" style="enable-background:new 0 0 3000 3000;" xml:space="preserve">
<style type="text/css">
	.st0{stroke:#000000;stroke-width:10;stroke-miterlimit:10;}
</style>
<g id="Layer_1">
</g>
<g id="Layer_2">
	<g>
		<path class="st0" d="M158.7,1396.3c-5.1-140.4-2.6-321.7,1.9-503.1c2.5-101.9,13.6-202.9,42.3-301.5
			C254.4,414,366.7,288.7,530.3,206.3c132.1-66.5,273.4-99,419.3-112.5c228.5-21.1,457.5-18.2,686.2-3.7
			c183,11.6,365.1,36.7,535.3,107.2c297.2,123,523.9,323.4,649.6,626.2c30,72.3,40.2,149.2,46.1,226.2
			c17.5,229.7,30,459.8,31.9,690.3c1.5,183.3-34.4,360.5-102.4,530.5c-86,215.1-234.4,374.3-439.2,482
			c-199.5,104.9-409,179.4-632.5,212c-172.1,25.1-344.9,29.6-518.1,11.9c-158.9-16.3-317.3-37.4-473.1-72.9
			c-104.2-23.7-203.6-60.7-289.6-126.9c-115.4-88.9-179.6-209.2-212.6-348.6c-22.7-95.8-31.6-193.5-38.8-291.3
			C175.3,1903.9,163.7,1670.8,158.7,1396.3z M1675.3,2916.1c135-18,262.5-47.8,386.6-92.2c8.9-3.2,12.8-9.2,15.9-17
			c68.9-174.7,119.3-354.4,147.6-540.1c28.6-187.8,36.1-377.2,38.3-566.7c1.3-119.8-7.2-239.2-34-356.4
			c-39.6-173.3-119.1-323.9-264.2-431.6c-215.5-160-458.1-221-723.4-179.4c-196,30.7-353.9,127.9-463.2,295.3
			c-108.8,166.7-136.5,353.5-125.7,548.5c0.9,15.9,9.7,13.1,19.4,11.2c107.6-21.2,215.7-19.9,323.6-4
			c121.1,17.7,236.3,52.5,337.9,123.4c116,81,189.2,188.8,205.2,332c8.7,77.4,1.8,154.3-4.7,231.4c-16.2,194.4-57.2,383-130.6,564.2
			c-12.8,31.5-26,62.7-40,96.4c80.1,2.6,157.8-0.3,235.4-6.7c12.2-1,15.3-9.7,19.5-18.5c85.1-177.9,134.3-365,144.7-562.3
			c8.7-166.4-12-329-58.8-488.6c-10.4-35.4-10-34.6,25.4-46.2c13.7-4.5,18.3-0.7,22.1,11.8c18.6,61.8,33.6,124.5,45,188
			c22.6,125.7,27.7,252.2,18.1,379.7c-8.7,116-32.1,229-67,339.7C1728.7,2790.7,1704.5,2852,1675.3,2916.1z M1488.3,2150.9
			c2.4-38.6,1.8-77.3-4.1-115.6c-3.5-22.6-7.9-45.5-14.9-67.2c-36-111.2-110-191.3-211.9-244.5c-168.6-88.1-349.1-114.1-536.1-88.3
			c-182.7,25.2-338.9,109.1-477,229.2c-10,8.7-13.9,17.5-13,30.6c4.9,69.7,8.8,139.4,13.7,209c7,98.5,14.3,197,35.5,293.9
			c26.3,120.1,74.7,228.2,168.3,312.2c75.6,67.8,166.2,106.6,262.7,130.9c184.7,46.5,373.4,69.6,562.8,86.7c22.3,2,32.2-3.7,41.6-24
			C1426,2664.8,1477.9,2412.6,1488.3,2150.9z M2537.4,2554.6c9.1-1.5,12.6-7.8,17.1-12.4c75-76.7,136.7-162.9,178.3-262
			c80.3-190.9,117.7-390.1,111-597.4c-6.5-203.5-14.5-407-30-610.1c-5.8-75.5-14-150.9-41.3-222.7
			c-56.1-147.5-146.6-271-263.3-376.1c-134.9-121.5-286.2-213.4-463.1-261.3c-152.8-41.4-308.1-63.1-465.9-70.7
			c-218.5-10.6-437-13.8-654.8,9.7c-135.2,14.6-265.7,47.4-386.9,112.1c-145,77.4-242.6,192.5-286.2,352.5
			C226.7,711,217,807.8,214.9,905c-6.3,295.9-4.2,591.7,11.7,887.4c0.2,3.9-1.9,9.2,5.5,11.6c38.9-34.6,82.5-64.2,131.6-95.3
			c-35.6,1-35.2,1-38.9-29.2c-2.3-19.1-6.4-38.1-8.5-57.2c-14.7-133.1-11.2-265.9,13.2-397.5c60.6-326.4,230-578.3,526.1-733.4
			c337.4-176.8,690.1-188.2,1048.1-69c182.1,60.6,338.6,161.9,457.6,315.5c100.9,130.3,155.7,280.7,189.9,440
			c35.8,166.8,48.5,336.5,63,505.9c21.3,249,2.3,495.9-47.8,740.5C2557.6,2467.6,2547.3,2510.6,2537.4,2554.6z M2142.2,2792.9
			c110.5-48.4,215.6-95,309.4-163.1c7.9-5.7,11.6-13,14-21.7c74.7-267.3,110.4-539.3,100.5-817c-3.5-97.4-14.7-194-23.9-290.9
			c-12.4-130.2-29.7-259.4-62.4-386.5c-71.3-277.5-231-483-494.9-599.7c-321-141.9-649.1-153.2-978.4-32
			c-240.7,88.6-422.2,248-536,480c-65,132.5-96,274-105.1,420.8c-6.1,98.3-1.7,196.1,14.3,293.2c1.1,7-3.9,25.9,15.9,14.5
			c60.2-34.5,123.9-60.7,190.2-80.8c12.1-3.7,14.6-9.3,13.8-22.3c-9-139.1,0.7-276.4,46.9-409c92.6-265.5,275.5-432.1,550.8-492.5
			c222.5-48.8,436-13.6,639.8,83c219.7,104.1,365,272.9,431.9,507.8c36.8,129.1,47.6,261.5,49.1,394.7
			c1.3,110.7-5.5,221.3-11.3,331.8c-9.4,182.4-36.7,361.8-83.6,538.3C2201.2,2624.7,2173.6,2706.1,2142.2,2792.9z"/>
		<path class="st0" d="M1002,1150.8c-0.1-97.4,76.4-174,173.9-174.2c96.6-0.3,174.7,77.5,174.8,174c0.1,96.2-78.1,174.2-174.4,174.1
			C1078.8,1324.6,1002.1,1248.1,1002,1150.8z M1056.8,1149.9c-0.2,67.2,53,120.7,119.8,120.5c65.4-0.2,119-53.7,119.5-119.3
			c0.5-66-54.4-121-120.5-120.6C1109.6,1031,1056.9,1083.9,1056.8,1149.9z"/>
		<path class="st0" d="M1586.9,1007.4c67.8-4.1,132,59.2,131.5,130.5c-0.5,74.4-57.8,133.1-132.1,133.3
			c-74.3,0.1-132.8-58.3-132.7-132.5C1453.6,1064.2,1511.2,1007.5,1586.9,1007.4z M1587.9,1061.4c-44-0.7-78.8,32.1-80.1,75.5
			c-1.3,42.2,33.6,78.8,76.2,80c43.1,1.2,78.8-33,79.5-76.1C1664.3,1096.6,1631.3,1062,1587.9,1061.4z"/>
		<path class="st0" d="M1941.5,1241c-53.9,0.5-96.3-41.4-96.4-95.1c-0.1-53.3,42.9-96.6,95.7-96.4c51.9,0.2,94.6,42.4,95.8,94.6
			C2037.8,1196.7,1994.7,1240.5,1941.5,1241z M1981.3,1145.8c0.1-23.2-17.4-40.9-40.5-41c-23.2-0.1-40.7,17.3-40.8,40.5
			c-0.1,23.3,17.1,40.8,40.4,40.9C1963.4,1186.4,1981.1,1168.9,1981.3,1145.8z"/>
		<path class="st0" d="M533,1935.2c-36.7-43.5-37.1-44.1,10.3-72.8c134.8-81.8,279-106.8,431.9-65.2
			c196.3,53.3,328.3,222.8,335.7,426.1c2.5,68.3-6.6,134.7-26.8,199.9c-3.9,12.6-8.2,15.6-21.4,10.7c-34.6-12.8-34.2-11.9-24.9-47.7
			c39.1-150.4,22.2-291.2-80.1-413.2c-77.4-92.3-181.3-133.9-300-139.6C737.3,1827.6,629.5,1864.1,533,1935.2z"/>
	</g>
</g>
</svg>
