<?xml version="1.0" encoding="utf-8"?>
<!-- Generator: Adobe Illustrator 23.0.0, SVG Export Plug-In . SVG Version: 6.00 Build 0)  -->
<svg version="1.0" xmlns="http://www.w3.org/2000/svg" xmlns:xlink="http://www.w3.org/1999/xlink" x="0px" y="0px"
	 viewBox="0 0 3000 3000" style="enable-background:new 0 0 3000 3000;" xml:space="preserve">
<style type="text/css">
	.st0{stroke:#000000;stroke-width:10;stroke-miterlimit:10;}
</style>
<g id="Layer_1">
</g>
<g id="Layer_2">
	<g>
		<path class="st0" d="M1447.3,2898.8c60,3,114.7,3.6,164.5-43.8c88-83.8,159.4-177.3,202-291.2c9-24.1,19.2-21.3,38.4-16
			c25.3,6.9,16,20.5,10.5,34.5c-42.9,110-107.1,205.7-192.4,287.4c-6.4,6.1-15.4,10.1-18.4,22.1c52.6,1.7,99.1-2.1,139.4-45
			c67.1-71.5,117.1-151.1,138.8-246.7c5.5-24.3,16.7-21.9,34.5-19.9c24.8,2.7,20,17.5,16.2,32.7c-22.5,90.5-64.2,170.9-126.1,240.7
			c-6.6,7.5-13.1,15-25.4,28.9c66-6,124.8-10.2,183.2-16.9c108.3-12.5,216.5-25.5,324.4-40.4c27.3-3.8,29.5,10.3,33.5,29.6
			c5.1,25.2-13.3,19.9-25.9,21.7c-429.6,61.9-861.1,90.2-1295.1,71.9c-105.6-4.4-211.8-10.7-312.7-47.9
			c-21.2-7.8-42.6-15.6-62.4-26.3c-103.6-55.8-161.6-141.2-161.7-260.8c-0.2-151.2,1.3-302.5,2.2-453.7c0.2-37,0.3-74.1,1.7-111.1
			c3.3-83.6-7.3-163.4-33.9-244.6c-74.4-227-52.2-452.7,44.8-667.7c116.6-258.7,272-493.8,476.4-692.2
			c205.4-199.3,453.5-314.4,737.2-355.9c233.8-34.1,463.2-16.6,690.3,44.2c15.6,4.2,28.9,5.1,21.4,28.6
			c-6.2,19.4-10.8,28.2-33.9,21.8c-182.8-50.3-368.7-70.7-558.3-56.7C1456.8,156,1131.2,331.2,885.1,652
			c-107,139.6-206.1,285-283.8,443.6c-75.3,153.8-117,315.5-107.7,488.3c4.7,86.8,23.3,170.7,51.3,252.9c7,20.5,18.3,20.1,35.1,17.2
			c92.4-15.4,184.8-29.3,279.1-17.6c62.9,7.8,124.3,21.8,179,53.3c108.1,62.1,222.7,71.3,343.2,55.4c77.5-10.2,155.7-15.2,233.3,3.4
			c130.8,31.4,207.1,127.9,194.2,249.7c-7.5,70.2-41.2,128.4-90.6,178c-49.4,49.5-109.2,83.5-170.9,114.7
			c-60.5,30.6-122.9,57.6-179.9,94.9c-66.3,43.3-121.1,95.7-141,175.9c-9.6,38.8-9.1,77.2,6.4,115c7,17,16.6,25.2,36.6,25.7
			c104.1,2.8,104,3.3,168.5-79.9c42.3-54.6,81-111.6,111.7-173.5c9.5-19.1,17.6-21.8,37.2-12.6c22.6,10.7,17.6,21.6,8.7,38
			c-38.6,71.8-83.7,139.2-134.9,202.5C1455.7,2883.1,1448.2,2887.7,1447.3,2898.8z M1185.1,2900.5c-13.2-41.5-20.2-78.3-15.2-117.1
			c13.3-104.3,74.7-175.8,157.3-232.6c56-38.6,117.9-66.8,178.8-96.8c56.3-27.7,111.9-56.6,159.5-98.6c24.1-21.3,45.2-45.1,61.2-73
			c73.4-127.4,19.3-250.6-124.1-283.7c-69.4-16-139.4-11.7-208.8-2.8c-129.4,16.7-254.3,11.1-370.9-56.6
			c-32.8-19-69-31.5-106.3-40.5c-107.7-25.9-214.4-12.7-321.5,4.8c-22.9,3.7-27.5,11.6-27.6,33c-1,189.3-3.1,378.7-5.1,568
			c-0.5,45.3,0.6,90.5,3.9,135.7c5.6,77,44.7,133,107.5,174.3c55,36.2,78.5,34.5,127-10.9c49.2-46.1,85.7-102.1,121.6-158.7
			c53.3-84.1,99.7-172.9,168.1-246.7c104.4-112.6,233.1-172.8,386.6-179.6c13.2-0.6,25.9-1.3,23.3,18c-2,14.8,5.5,32.5-22.3,33.8
			c-183.2,8.3-318,98.9-416.9,248.9c-78.7,119.4-140.3,251-254.5,349.2C933.5,2895.7,1057.6,2898.6,1185.1,2900.5z"/>
		<path class="st0" d="M1188.9,1039.5c53.7-69.6,107.1-128.9,166.8-182.6c96.3-86.7,203.6-156.3,321.3-210.2
			c14-6.4,25.7-12.4,33.7,8.4c6.9,18,11.2,30-12.9,39.8c-59,24-114,56-166.1,98.3c45.2,0,90.6,1.7,135.7-0.6
			c26.8-1.4,30.1,9.7,28.7,32.3c-1.2,20.7-13.2,19-27,19.1c-64.8,0.3-129.6,1.2-194.4,1.4c-19.6,0-35.5,6.5-50.2,19.4
			c-39.5,34.6-78.5,69.5-113.2,108.5c4.2,11,12.7,5.9,18.7,5.6c115-5.8,230-12,344.9-18.3c20.3-1.1,39.2-3.4,36.3,28.3
			c-1.5,17-5.7,22.5-22.7,23.4C1524.3,1020.8,1360.1,1030.1,1188.9,1039.5z"/>
		<path class="st0" d="M1252.9,1641c-74.6-0.3-141.1-23.4-199.4-70.4c-20.8-16.8-40.9-34.6-63.2-49.1c-35-22.7-66.2-14.2-84.9,22.4
			c-23.9,46.9-22.9,95.2-2.1,142.9c7.6,17.4,21.2,30.7,39.6,36.9c10.2,3.4,14.2,7.3,14.6,18.9c1,34.9-7,40.9-39.1,27
			c-15.4-6.7-28.3-16.5-39.7-28.7c-56.5-60.2-55.6-191.2,1.6-250.9c32.8-34.2,85.3-40.8,130.7-16.6c28.4,15.2,51.1,37.8,76,57.7
			c145.9,116.2,355.8,54.3,412.6-123.4c9.1-28.6,23.3-23.6,42.5-18.8c25.3,6.4,10.8,22.7,7.3,33.9
			C1509.4,1553,1388.7,1641.4,1252.9,1641z"/>
		<path class="st0" d="M1238.1,1397.8c-100.2-0.5-170.5-39.2-229-101.9c-30.8-33-59.5-68.1-89.1-102.4
			c-34.4-39.8-69.5-78.4-119.8-99.5c-25.6-10.8-3.6-28-1.6-41.5c2.5-17.2,14.9-8.1,23.4-4.4c50.2,21.7,90.1,57.1,125.5,97.7
			c33.2,37.9,64.5,77.5,98.5,114.7c67.4,73.9,149.8,102.1,248.1,75.5c42.9-11.6,76.1-39.5,108.4-68.5c26.7-24.1,52-49.8,83.6-68
			c23.5-13.5,48.1-22.9,75.1-26.3c36.9-4.6,40.8,0.2,32.5,37.1c-2.2,9.8-4.9,14.4-15.3,14.2c-44.5-0.5-77.2,24.2-108.7,51.5
			c-26.4,22.9-52.1,46.7-79.6,68.2C1342.1,1381.7,1285.9,1396.2,1238.1,1397.8z"/>
		<path class="st0" d="M1353.4,593.7c4,21.4-13.4,18.2-23.4,20.8c-109.4,28.2-202.3,84.1-280,165.8c-27,28.4-51.3,59.2-70.4,93.4
			c-14.5,26-26.6,5.1-39.7,0.3c-18.8-6.9-10.9-17.3-4-28.3c90-143.2,216.6-236.7,380-280.3C1347.5,556.9,1352.6,561.3,1353.4,593.7z
			"/>
	</g>
</g>
</svg>
