<?xml version="1.0" encoding="utf-8"?>
<!-- Generator: Adobe Illustrator 23.0.0, SVG Export Plug-In . SVG Version: 6.00 Build 0)  -->
<svg version="1.0" xmlns="http://www.w3.org/2000/svg" xmlns:xlink="http://www.w3.org/1999/xlink" x="0px" y="0px"
	 viewBox="0 0 3000 3000" style="enable-background:new 0 0 3000 3000;" xml:space="preserve">
<g id="Layer_1">
</g>
<g id="Layer_2">
	<g>
		<path d="M818.4,2211.7c-6.6,13.1-4.1,23.5-4.1,33.4c-0.2,132.3-0.1,264.6-0.2,396.9c0,16.6-0.5,33.3-2.3,49.8
			c-6.6,59.6-59.5,102.1-122.8,99.1c-56.5-2.6-106.1-51-106.9-107.5c-1.2-83.1-0.3-166.3-0.3-255.7c-39.8,25.8-74.9,48.2-109.7,71
			c-36.1,23.6-72.4,46.9-107.7,71.5c-16.9,11.8-23.6,3.4-32.9-9.9c-9.9-14.2-8.4-21,6.5-30.5c69.5-44.3,138.2-89.9,207.2-135
			c40.3-26.4,42.1-31.1,31.4-85.3c-48.5,31.6-96.2,62.6-143.8,93.6c-21.2,13.8-42.6,27.4-63.4,41.7c-14.4,9.9-24.7,19.7-39.6-3.3
			c-14.4-22.2-0.9-26.5,12.5-35.2c66.7-43.4,131.9-89.4,200.4-129.8c35.2-20.8,45.6-45.4,34.4-85.8c-37.3,24.2-74,47.7-110.5,71.6
			c-36.1,23.6-72.3,46.9-107.7,71.5c-16.7,11.6-23.7,4-33-9.6c-9.6-14.1-8.9-21,6.2-30.6c71.9-45.8,142.1-94.3,214.7-138.9
			c26.6-16.3,38.9-34.7,33.9-65.2c-1.5-9.1-0.2-18.6-0.2-29.1c-15.1-0.6-23.6,9.1-33.1,15.2c-56.6,36.6-113.3,73.2-169.1,111
			c-15.5,10.5-23.2,8.7-32.7-7c-8.6-14.2-11.5-22.1,5.7-32.9c63.4-39.8,124.1-84.3,189-121.5c37.7-21.6,47.1-48.3,37.3-90.2
			c-32.7,21.2-64.6,41.7-96.4,62.5c-32.9,21.5-66.7,42-98.2,65.4c-19.7,14.6-32.1,14.7-42-8.9c-2.1-5.1-5.9-9.5-9.3-14.9
			c69.4-45.5,137-92.8,207.8-134.9c35-20.8,49.9-44.6,38.1-85.1c-14.1,2-24.8,13-36.7,20.6c-55.2,35.4-110.2,71.1-164.5,107.8
			c-15.6,10.6-24.9,14.1-37.3-5.2c-11.9-18.5-4.3-25,10.1-34.2c63.1-40.5,123.5-85.5,189-121.4c45.2-24.8,48-57.7,39-102.8
			c-32.4,20.9-63.6,40.8-94.7,61c-35.3,23.1-71.3,45.2-105.2,70.2c-19.8,14.6-32.1,14.5-42-8.9c-2.1-5.1-5.9-9.5-9.4-15
			c73.4-48,146.3-95.6,219.1-143.3c41.1-26.9,42.1-29.7,31.5-85.4c-50.9,33.1-100.8,65.6-150.8,98.1c-20.4,13.3-41.7,25.5-60.9,40.4
			c-14.5,11.3-20.5,5.1-26.8-7.6c-5.6-11.3-19.5-20,1.3-33c69-43.4,135.1-91.5,205.3-132.5c35.5-20.8,41.6-45.6,32.4-84.1
			c-33.6,21.7-66.3,42.6-98.8,63.8c-36.9,24.1-74.1,47.7-110,73.1c-16.4,11.6-24.8,11.5-37-6.6c-12-17.9-5.6-23.9,8.8-33.2
			c71.8-46,142.6-93.6,214.8-138.8c20.1-12.6,28.6-26.5,26-49.9c-2-18.3-0.4-37-0.4-60.9c-41.5,27-78.8,51.2-116.1,75.5
			c-25.1,16.4-50.9,31.9-75,49.6c-16.2,11.9-24.5,11.6-36.6-6.6c-12.7-19-3.7-24.3,10.2-33.2c59.9-38.5,117.6-80.8,179.4-115.8
			c37.8-21.4,43.8-48.4,35.4-86.7c-23.3,8.6-41.6,24.8-61.8,37.6c-44.3,28.1-88.3,56.6-131.5,86.4c-15.4,10.6-22.5,9-32.2-7
			c-8.7-14.5-11.7-22.1,5.4-32.9c61.8-38.9,121.2-81.9,184.2-118.6c35.2-20.5,45.4-45.5,36.1-82.7c-11.6-2.2-18.2,7.5-26.3,12.7
			c-57.5,37-115,74-171.4,112.6c-16.6,11.4-22.9,5.8-31.9-8c-8.8-13.5-11.8-21.4,5.2-32.1c65-40.9,128.1-84.8,193.6-125
			c25.4-15.6,38.7-32.7,33.5-62.8c-1.7-9.8-0.3-20.1-0.3-35.6c-28.3,18.3-52.4,33.7-76.4,49.3c-42.4,27.6-85.4,54.3-126.6,83.6
			c-18,12.8-22.8,2.6-31.6-9.5c-9.7-13.3-10.1-21,5.3-30.9c64-40.7,125.8-85.2,191.3-123.3c36.8-21.4,44.7-47.7,34.5-87.8
			c-21,13.3-41.4,25.9-61.5,39c-46.2,30.3-92.7,60.2-138.1,91.6c-16,11.1-23.4,6.5-32.9-7.9c-9.3-14.3-10.6-22,6.1-32.6
			c64.1-40.5,125.2-86,191-123.5c36.4-20.7,44.8-45.6,36.7-82.7c-11.4-2.3-18.1,7.3-26,12.5c-59.8,38.6-119.8,76.9-178.4,117.3
			c-18,12.4-23.9,5.4-34.1-8.5c-12.3-16.7-5.2-23.1,8.8-32.2c70.8-45.7,140.8-92.8,211.8-138.2c15.4-9.8,21.2-20.5,20.6-38.6
			c-1.3-39.4-0.8-78.8-0.3-118.2c0.8-74.4,47.8-124.8,115.9-125c69.8-0.2,117.4,50,117.5,126.1c0.3,310.5,0.1,621.1,0.1,931.6
			c0,11.1,0,22.3,0,40c18.6-24.8,32.5-45.2,48.2-64.1c46.3-56,103.1-100.9,157.3-148.5c50.7-44.5,101.6-89.1,130.5-152.8
			c26.2-57.8,20.6-105.5-19.7-147.5c-78.9-82.3-46.4-195.7,64.7-225.6c4.4-1.2,8.8-2.7,12.8-4c0.2-2.8,1-5.2,0.2-6
			c-123.3-126.5-102.4-308.5-1-436.2c59.9-75.4,137.3-124.7,233.7-138.7c123.9-18,219.2,30.8,291.4,130c4.9,6.8,9.5,13.8,14.6,21.3
			c69.2-124.5,174.9-189.3,315-187.3c133,1.9,218.6,76.8,268.2,202.2c29.9-41,62.4-74.9,100.8-103
			c145.8-106.7,327.1-86.3,434.1,50.9c68.2,87.4,88.1,186.7,64.8,294.7c-33.7,156.5-177.4,264.4-343.1,258
			c-109.7-4.3-202.1-44-271.3-136.6c-10.3,36.1-21.6,68.2-38.6,98.2c-16.8,29.6-37.3,56.1-63.5,77.8c4,9.4,12.5,8.2,19.1,10.3
			c48.5,15.2,95.2,34.7,136.9,64c16.7,11.8,27,11.1,43-1.6c84.4-66.8,180.5-97.3,288.3-86c167.1,17.5,333.3,193.9,237.6,406.6
			c-42.4,94.1-100.3,176-196.4,223.3c-16.9,8.3-6.9,19.4-4.3,28.4c40.6,143.7,60.5,290,53.6,439.3
			c-9.4,203.1-59.3,396.6-151.6,577.5c-81.8,160.3-210.5,267.8-384.7,318.7c-232,67.8-464.2,62.5-696.1,1
			c-66.5-17.6-126.9-50.9-185.9-85.6c-61.4-36.1-126.4-54.9-198.3-51.2c-56.6,3-111.6-8.4-165.9-25.3
			c-113.7-35.3-133.2-115.1-101.6-208.8c32.6-96.7,105.9-146.5,205.1-159.7c8.7-1.2,25.6-7.7,24,12.4c-1,12.9,10.1,29.8-18.7,33.2
			c-97.1,11.4-160.6,74-175.2,166.7c-7.8,49.1,9.5,81.4,55.2,101.2c56.7,24.7,116.6,37,178,34.1c79.7-3.9,152.5,15.3,219.8,56.4
			c120.9,73.8,252,113.9,393.3,121.2c134.2,6.8,267.9,8.2,400.1-23.4c210.5-50.4,357.5-175.6,440.1-374.4
			c95.4-229.8,140.5-467.9,106-717.2c-9.5-68.7-23.3-136.5-42.3-203.3c-4.7-16.6-11.5-20.4-27.4-17.7c-73.2,12.6-145.9,6.3-218-8.2
			c-15-3-24.3,0.1-35.1,9.5c-69.6,60.7-132.3,127.7-185.4,203.2c-12.4,17.6-20.1,17.4-37,5.9c-18.5-12.6-11.1-21.2-2.1-33.4
			c50.3-68.2,105.4-132,168.9-188.1c15.1-13.3,14.9-18.2-3.9-27.6c-115.7-58.5-154.4-152.9-115.4-279.2
			c21.4-69.2,58.9-129.5,106.7-183.3c12.3-13.9,11.1-19.7-4.2-28.9c-154.6-92.4-312.7-97.3-476.8-21c6.9,11.3,17.6,12.3,26.1,16.4
			c160.7,76.1,235.4,258.1,171,417.7c-7,17.3-15.8,34.1-26.2,49.5c-5,7.4-7.7,28.5-24.9,13.5c-11.3-9.8-31.9-13.8-14.4-39.8
			c88.3-131.6,30.7-321.7-117.3-394.1c-148.8-72.7-318.5-37.9-441.2,90.6c-18.8,19.7-37.2,40.1-50.8,63.7
			c-12.1,21.1-20.9,2.6-30.5-1.1c-11.7-4.5-20.4-12-8.9-25c66.2-74.9,39-158.6,19.1-239.4c-12-48.8-45.4-86.1-92.1-108.1
			c-44-20.7-86.5-11.7-117.5,23.2c-32.2,36.2-33.6,73.9,1.6,106.9c69,64.5,70.7,141.8,29.1,223.2
			c-39.1,76.4-105.5,128.3-168.6,182.9c-65.3,56.6-131.3,112.2-169.1,193c-42.6,91.4-37.7,175.7,33.9,251.9
			c15.9,17,29.6,36.5,41.7,56.4c30.7,50.5,27.9,100.3-9,146.3c-18.1,22.6-40.3,41.8-60,63.2c-57,62.1-38.2,162,39.4,195.3
			c28.8,12.4,14.4,29.7,10.4,42.8c-5.8,18.8-20.1,3.5-29.4,0.4C853.3,2244.7,835.9,2230,818.4,2211.7z M628.3,1572.2
			c0,359.3,0,718.5,0,1077.8c0,12.2-0.5,24.5,1.2,36.5c5.7,41.4,48,67.4,87.9,54.7c34.3-10.9,48.7-34.9,48.7-81.9
			c0-722.3,0-1444.5,0-2166.8c0-9.4-0.1-18.8-0.7-28.1c-2.4-37.2-31.6-65.1-67.9-65.4c-36.2-0.2-66.1,27.7-68.5,64.6
			c-0.9,13.1-0.8,26.2-0.8,39.4C628.3,859.4,628.3,1215.8,628.3,1572.2z M2082.3,635.9c0,26.2-0.7,52.5,0.2,78.7
			c0.5,15.8,3.3,31.6,5.4,47.4c7.4,58,31.8,70.3,83.4,42c6.5-3.6,13.3-7.5,18.5-12.6c64.4-64,93.5-142.8,83.6-231.7
			c-6.9-62-5.1-121.2,15.3-179.9c3.3-9.6,9.5-19,7.2-29.6c-19.1-87.9-69.8-176.5-178.2-204c-138.3-35.1-287.1,44.1-340.3,178.2
			c-3.4,8.7-3.1,15.4-0.2,23.8c20.5,60,18.6,120.6,9.8,182.9c-12.2,86.3-6.3,172,30.5,253.2c14.6,32.2,39.9,51,73.7,59.5
			c27.8,7,50-0.9,65.8-24.8c18-27.1,27.5-57.2,30.1-89.5c3.4-43.6-2.1-86.8-5.1-130.1c-3.9-56.5,0.3-112.3,18.9-166.3
			c4.9-14.2,14-24.3,31-23.4c15.3,0.9,23.4,10.4,28.4,23.4c3,7.8,5.6,15.9,7.4,24.1C2080.4,516.1,2084.3,575.7,2082.3,635.9z
			 M2567.9,1433.5c101.5,1.6,178-21.7,237.7-87.8c41.2-45.6,75.1-96,96.4-153.8c24.5-66.3,25.3-132-11.6-194.9
			c-57.8-98.7-166.9-150.2-280.1-128.3c-176,34-277.6,151.3-331,313.2c-34.7,105.4,15.4,189,121.5,223.2
			C2460.1,1424.2,2521.2,1431.7,2567.9,1433.5z M2596.5,747.3c194.6,0.1,329.8-163.7,288.9-354.7
			c-25.8-120.3-128.2-243.7-293.5-218.5c-104.4,15.9-182,75.7-233.9,167.3c-37.6,66.4-55.3,137.2-35.8,213.4
			C2352.6,673.1,2458.8,747.3,2596.5,747.3z M1451.5,747.3c166.9,0.1,287.5-114.8,295.7-281.7c7.4-150-104.6-284-246.4-294.5
			c-35-2.6-69.5,2-102.3,14.2c-117.8,43.9-193.7,127.6-221.1,249.6C1138.5,607.3,1263.2,747.2,1451.5,747.3z M1430.8,1009
			c4.4-0.4,6.6,0,7.8-0.8c7.6-5.5,14.9-11.4,22.4-17c85.9-63.5,181.1-98.8,288.7-87.9c36.1,3.6,66.1-0.8,95-26.3
			c-39-22.1-64.8-55.1-80.8-96.6c-15.4-39.9-21.3-81.9-27.7-127.4c-95.2,119.7-216.7,158.7-365.2,134.2
			c26,35.4,40.3,70.5,49.2,108.3C1429,932.8,1429.1,970.9,1430.8,1009z M816,1985.8c17.7-18.2,31.3-32,44.7-46.1
			c6.4-6.7,12.8-13.6,18.6-20.9c21.2-26.8,24.2-56.7,6.9-85.9c-18.8-31.9-43.3-59.6-70.2-92C816,1824,816,1901.7,816,1985.8z
			 M2009.5,826.3c11-0.5,20.2-1,29.3-1.3c12-0.4,15.9-3.9,11.6-17.3c-6.6-20.9-10.1-42.8-16.7-72.3
			C2029.6,771.5,2019.8,797.7,2009.5,826.3z"/>
		<path d="M1707.7,1724.5c81.7-72.4,170.8-126.7,270.9-162.3c59.5-21.1,120.6-34.6,183.4-40.7c12.9-1.2,27.4-6.8,27.1,15.4
			c-0.2,15.8,3.5,30.4-21.7,32.3c-131.3,9.9-250,56.5-356.2,133c-124,89.4-219.5,201.6-260,352.7c-20.5,76.4-13.6,149.2,44.4,209.9
			c9.8,10.3,10.4,16-4.5,21.2c-67.6,23.7-95.3,76-96.8,143.3c-1.6,72.2,36.6,122.7,97.3,156.3c88.2,48.7,178.4,41.3,268.4,4.3
			c41.8-17.1,81.5-38.8,116.9-66.6c18.5-14.5,25.3-3.4,35.7,8.5c13.3,15.1,3.9,22-7.9,30.2c-74.7,52.1-154.1,93.8-246.4,102.3
			c-102.9,9.5-194.2-17.6-262.6-98.8c-74.9-89-63.9-215.4,22.7-293c7.3-6.6,13.5-10.6,6.8-22.7c-41-74-36.3-151.4-13.8-229.2
			c26.3-91.1,78.1-167.7,139.7-238.2c11-12.5,14.5-23,10.8-40c-14.4-66-27-132.3-63-191c-33.5-54.6-77.1-97.1-141.5-112
			c-72-16.6-129.9,14.4-182.7,58.6c-37.7,31.6-67.4,70.6-94.6,111c-13.6,20.2-22.4,12.4-37.3,2.7c-17.2-11.2-10.8-18.5-2-30.5
			c36.8-49.9,74.2-99.2,124.8-136.4c58.9-43.3,123.5-67.5,197.6-52c20.2,4.2,18.5-9.5,21.8-20.1c37.9-124.3,187.6-164.8,280-75.8
			c92.7,89.3,54.7,245.5-69.5,282.4c-20.5,6.1-26.1,11.1-18.2,33.1C1689.7,1647.8,1697.2,1684.6,1707.7,1724.5z M1646.1,1298.1
			c-59-0.1-108.7,41.7-119.3,99.1c-2.2,12.2,1.2,18.6,11.4,25.1c41.9,26.5,75.8,61.3,100.5,104.3c7.6,13.3,16.4,15.1,30,12.2
			c66-13.6,106.1-68.1,98.9-135.7C1761.1,1341.4,1711.2,1298.3,1646.1,1298.1z"/>
		<path d="M2089.5,2305.2c52.2,14,97.9,4.3,141.7-18.2c48.3-24.7,87.8-60.8,123-101.3c14.4-16.5,21.8-11,35.4,0.1
			c16.2,13.1,10.9,20.9-0.5,32.7c-35.3,36.4-71.3,71.8-115.1,98.3c-93,56.4-186.3,54.5-279.5,0.9c-46.9-27-86.8-62.2-118.8-105.9
			c-62.9-86.1-61.5-174.3,4-258.3c24.9-32,56.1-57.6,86.7-83.9c17.8-15.3,21.7,2.4,30.1,10c9.8,8.8,12.8,17-0.1,27
			c-27.4,21.3-53.8,43.9-75.8,71c-19.6,24.2-35,50.5-42.5,89.2c30.1-26.5,55.4-48.6,80.4-70.9c25.2-22.4,51.2-44.1,74.9-68
			c16.4-16.5,21.5-0.7,30.1,7.2c9.7,8.8,16.4,15.9,1.9,28.5c-54.5,47.3-107.1,96.7-161.9,143.7c-17.5,15-20.4,26.7-9,47.1
			c30,53.3,29.1,53.8,71.2,9.8c55.8-58.2,113.9-114.1,173.3-168.7c14.9-13.7,21.7-8.7,33.4,2.9c13.2,13.1,12.5,20.6-1.5,32.8
			c-67.9,59.2-130.9,123.4-193.5,188.2c-14.5,15-12.7,21.6,3.1,33.4c53.2,39.7,52.8,40.3,99-6.3c57.4-58,114.9-115.7,171.6-174.4
			c10.9-11.2,17.9-13.7,27.8-0.4c7.9,10.7,26,16.3,7,34.9c-63.2,61.5-124.7,124.5-186.8,187.1
			C2096.8,2296.1,2094.6,2299.1,2089.5,2305.2z"/>
		<path d="M450.8,2796c0.2,92.8-73.3,166.4-165.8,166.1c-92.1-0.3-166.9-75.5-166-166.8c0.9-90.9,74.2-163.9,165.3-164.8
			C376.5,2629.7,450.7,2703.4,450.8,2796z M283.9,2914.7c67.7,0.4,120.5-51.5,120.6-118.2c0-65.7-51.8-117.9-117.6-118.3
			c-68.2-0.4-120,50.6-120.1,118.1C166.8,2862.6,218,2914.3,283.9,2914.7z"/>
		<path d="M362.4,601.5c-93.8-0.6-166.5-73.3-165.4-165.4c1-93.9,75.9-164.3,174-163.6c86.8,0.6,159,77.4,157.9,168.1
			C527.8,532,455.2,602.2,362.4,601.5z M361.5,555.9c66.8,0.5,120.9-52.2,121.2-117.9c0.3-64.6-52.8-118.1-117.6-118.6
			c-67.8-0.5-120.3,50.8-120.6,117.8C244.2,503.1,295.8,555.5,361.5,555.9z"/>
		<path d="M1272.9,1935.6c2.4,53.5-19.6,81.2-60,83.8c-8.4,0.5-22.1,4.6-19.6-11c1.9-11.6-12.4-30.7,10.5-34.3
			c28.7-4.6,22.8-24.4,21.5-42.8c-1.6-22.4-18.6-19.3-33.3-19.4c-5.6,0-11.7-0.3-16.7,1.7c-27.6,10.7-22.7-13.6-26.7-25.8
			c-5.9-18,8.2-18.9,20.9-20.8c55.7-8.4,85.6,3.5,98.4,41C1271.8,1919.4,1272.3,1931.9,1272.9,1935.6z"/>
		<path d="M162.5,1311.2c0-23.4,0.9-46.9-0.3-70.2c-0.9-18.1,10.5-16.9,21.8-16c10.7,0.8,26.3-5.9,26.2,14.8
			c-0.1,48.7-0.1,97.4,0,146.1c0,21.3-16,13-26.4,14.2c-11.2,1.2-22.6,2.4-21.7-15.9C163.5,1360,162.5,1335.6,162.5,1311.2z"/>
		<path d="M207.5,1855.5c0,21.5-1.2,43.1,0.4,64.4c1.4,18.3-6.2,22.2-22.5,21.2c-14.5-0.9-27.2,1.6-26.2-20.9
			c1.8-43.8,1.2-87.8,0.2-131.7c-0.5-19.3,9.7-20.6,24.6-20.6c14.7,0,25.3,0.6,23.9,20.3C206.3,1810.6,207.5,1833.1,207.5,1855.5z"
			/>
		<path d="M196.3,2441.7c0,18.7-2.2,37.7,0.5,56c4.1,27.7-9.8,30.6-31.7,29c-11.6-0.8-16.8-3.7-16.7-16c0.4-45.8,0.5-91.5,0-137.3
			c-0.3-23.1,16.5-14.4,27.7-15.8c12.5-1.6,21.6,0.1,20.6,17C195.3,2396.8,196.3,2419.2,196.3,2441.7z"/>
		<path d="M162.5,1588c0-16.8,0.6-33.6-0.2-50.4c-0.8-17.4-0.6-29.5,23.9-29.2c24.1,0.3,24.6,12.1,24.3,29.8
			c-0.7,37.3-1.6,74.8,0.3,112c1.1,22.8-12,19.7-26.3,20.8c-16.6,1.2-23.8-3.2-22.3-21.3C163.7,1629.1,162.5,1608.5,162.5,1588z"/>
		<path d="M199.1,2159.4c0,19.6-1.3,39.4,0.4,58.9c1.8,21-9.4,22-25.4,22.2c-15.4,0.2-23.9-1.6-23.3-20.8c1.5-43,1.1-86.1,0.2-129.1
			c-0.3-15.7,6.5-19.6,20.1-18.3c12.1,1.2,28.1-4.7,27.9,17c-0.2,23.4-0.1,46.8-0.1,70.2C198.9,2159.4,199,2159.4,199.1,2159.4z"/>
		<path d="M218.8,1036.7c0,19.7-1.1,39.4,0.3,59c1.4,18.4-8.7,19.3-22.3,18.6c-12.8-0.7-26.7,3.3-26.1-18.3
			c1.1-40.2,0.8-80.5,0.2-120.8c-0.3-21.7,14.8-16.9,27.2-17.7c12.5-0.8,22,0.5,21,17.4C217.9,995.4,218.8,1016.1,218.8,1036.7z"/>
		<path d="M1186.5,1363.4c-30-1.3-37.9-13.9-24.9-40.2c18.1-36.9,44.7-66.4,78-90.3c10.7-7.7,19.8-11.1,26.5,4.1
			c5.1,11.5,20.1,21.4,0.3,34.8c-29.9,20.3-52.3,47.6-67.1,81C1194.4,1364,1193.7,1363.7,1186.5,1363.4z"/>
		<path d="M221.6,808.4c0,10.3-0.8,20.7,0.2,30.9c1.9,19.2-2.6,28.3-25.4,28.2c-22.4-0.1-23.6-10.1-22.9-27.2
			c1-25.2,1.2-50.6-0.1-75.8c-0.8-16.9,8.2-18.6,20.7-17c11.2,1.5,28.4-7.2,27.5,16c-0.6,15-0.1,29.9-0.1,44.9
			C221.5,808.4,221.6,808.4,221.6,808.4z"/>
		<path d="M2625.1,1165c-17.7-0.5-32.9-5.9-41.1-21.1c-7.5-14.1-5.2-29.5,4.8-42.3c29.6-37.8,63.3-71.6,105.1-95.6
			c20.7-11.9,45.1-19.9,65.5-1.1c21.3,19.7,15.1,45.1,4,67.7C2735.3,1130,2684,1153.4,2625.1,1165z"/>
		<path d="M2542.2,336c-3.2,48.1,25.2,89.7,68.4,100c45.9,11,91.7-11.4,111.1-55.1c9.6-21.5,14.7-44.4,14.1-68.1
			c-0.3-14.9,7.3-17.7,19.5-14.6c10.2,2.6,27.2-6.2,27.2,14.4c0,72-32.5,144.4-107.1,166.7c-102.1,30.6-199-56.4-177.8-160.7
			c1.8-8.7,0.1-25.5,15.4-19.9c12.5,4.6,37.8,1.5,30.2,29C2542.5,330.3,2542.5,333.2,2542.2,336z"/>
		<path d="M1394.9,344.8c0,5.6-0.2,11.2,0,16.9c2,55.3,25.9,85.1,70.4,88c68.6,4.4,102.2-18.9,112.4-77.6c3.2-18.7,4-37.7-0.6-55.9
			c-5.3-20.6,3.3-24.5,21.6-27.6c19-3.3,25.8,2,25.9,19.8c0.2,23.4,3.3,47.2,0,70c-14.1,98.5-124.8,153.1-212.8,105.1
			c-49.3-26.9-62.8-73.9-64.8-125.9c-0.3-9.3-0.7-19.1,1.6-28c3.2-12.6-8.7-33.8,20.4-33c28,0.8,28.9,16.6,26.3,37
			c-0.5,3.7-0.1,7.5-0.1,11.2C1395.2,344.8,1395,344.8,1394.9,344.8z"/>
	</g>
</g>
</svg>
