<?xml version="1.0" encoding="utf-8"?>
<!-- Generator: Adobe Illustrator 23.0.0, SVG Export Plug-In . SVG Version: 6.00 Build 0)  -->
<svg version="1.0" xmlns="http://www.w3.org/2000/svg" xmlns:xlink="http://www.w3.org/1999/xlink" x="0px" y="0px"
	 viewBox="0 0 3000 3000" style="enable-background:new 0 0 3000 3000;" xml:space="preserve">
<style type="text/css">
	.st0{stroke:#000000;stroke-width:10;stroke-miterlimit:10;}
</style>
<g id="Layer_1">
</g>
<g id="Layer_2">
	<g>
		<path class="st0" d="M977,1160.8c-19.5-15.5-34.7-12.5-54.4-3.6c-56.8,25.6-115.8,25.7-173.5,1.6c-42.8-17.9-67.3-51.6-76.1-97.9
			c-30,6.1-59.2,14.2-90,8.7c-36.1-6.4-59.7-26.5-72.8-60.5C486.4,947.1,480.2,883,488,817.3c0.6-5.3,4.1-10.5-1.9-15
			c-40.7-31.1-49.4-77.3-55.6-123.4c-8.9-66.1-3-131.2,49.9-178.5c24.9-22.3,29.4-43.1,24.9-72.9c-5.8-38.9-1.3-77.4,14.4-114.1
			c26.2-61.3,87.9-95.2,153.5-83.5c13.1,2.4,17.4,0.8,19.7-13.4c10.5-63.8,41.9-90.7,107-92.9c26.3-0.9,52.6-0.4,78.9-0.6
			c22.4-0.2,42.8,5.9,58.4,22.4c8.2,8.7,14.5,6.6,23.3,1.8c27.5-15.3,57.3-23.6,88.6-28c51.3-7.2,91.2,10.6,120.4,52.6
			c7.2,10.4,13.1,12.7,25,6.6c44-22.7,91.2-27,139.6-19.8c8.4,1.3,14.8-0.8,21.7-3.9c117-52.3,239.1-85.3,367.5-86.8
			c201.1-2.4,393.3,35,563.3,149.1c144.3,97,211.3,235.9,206,409.3c-4.6,146.8-59,276.1-141.9,395c-40.3,57.7-87.7,109-139.7,156.1
			c-6.8,6.1-14.5,10.2-2.1,19.9c131.6,103.4,207.3,242.2,246.4,401.5c38.5,156.8,69.6,315.8,56.8,478.5
			c-22.3,282.8-124.3,530-341.1,720.6c-133,116.9-290.5,177.3-467.3,187.2c-146.9,8.3-293.9,8.7-440-9
			c-308.9-37.3-592.7-141.3-844-327.9c-31.8-23.6-59.6-51.8-84.7-82.6c-72.1-88.7-71.7-185-28.4-285c12.6-29.1,22.5-59.6,42.1-85.4
			c10.1-13.3,19-29.3,33.1-36.8c37.1-19.8,36.9-50.2,35.2-86.4c-10.3-217,45-415.9,172.7-592.6c92.6-128.1,212.6-225,351.2-299.6
			C952.2,1173.8,963.8,1167.8,977,1160.8z M2394,2378.3c36.4-77.7,66.4-231,68.9-329c3.8-147.6-22-291.3-56-433.4
			c-30.6-127.7-86.3-243.8-182.4-337.1c-88.7-86.1-195.1-141-312.9-173.3c-253.8-69.5-504.8-52.7-751.8,33.1
			c-149.8,52-288,126-405.4,234c-213,195.8-304,440.2-285.9,727.4c1,15.3,5.8,19.4,21.1,19c61.6-1.9,123.3-3.1,185-2.9
			c134.6,0.4,230.3,63.8,291.1,182.3c7.5,14.7,14.1,29.9,21,44.8c1.3-0.5,2-0.5,2.3-0.9c3.5-5.1,6.8-10.4,10.5-15.4
			c33.7-46,77.7-74.3,135.5-78.3c40-2.7,80-2.6,119.5,4.6c16.6,3,19.7-1.4,17.9-17.5c-7.2-64.9-7-129.9-0.3-195
			c23.3-224.9,118.1-414.6,280.2-571.3c4-3.8,10.9-6.1,9.9-15.2c-134.4,23.8-261.8,65.7-379,136
			c-127.6,76.5-229.6,179.7-312.8,302.3c-3.7,5.5-6.9,16.7-12.9,14.3c-13.2-5.2-26.3-12.9-36.4-22.7c-7.3-7.1,3.7-14.6,7.9-20.8
			c138.3-205.9,324.6-348,562.5-420.5c141.9-43.3,285.9-67.2,434.4-42c161,27.4,274.3,114.9,333.6,268.7
			c39,101.1,53.2,207.5,65.3,314.1c9.9,87,7.8,174.3-7.7,260.9c-2.8,15.8,0.7,21,17.9,21.5c44.1,1.4,81.4,20,112.9,50.6
			C2366.5,2334.4,2380.8,2355.4,2394,2378.3z M502.4,2645.9c8.3-97.4,29.8-160.2,76.5-224.6c39.4-54.4,88.9-96.7,150.5-124.2
			c5.2-2.3,13-9.5,16.5-3.5c7.1,12.3,13.3,26.2,15.4,40.1c1.4,9.1-12.1,9.3-18.9,13C618.5,2414.2,557.2,2519,554,2659.1
			c-0.4,15.6,5.6,25,19.3,33c144.1,84.7,297.2,147.3,458.9,189.8c205.9,54.2,415.7,62,626.8,55c95.4-3.2,189-17.1,277.7-54.1
			c183.9-76.8,313-211.1,407.1-384.2c22.5-41.3,19.8-73.2-3.3-110.1c-30-48-70.5-74.6-128.3-73.1c-57.2,1.5-112.5,12.2-166.9,29.7
			c-38.8,12.4-54.4,39.8-56.7,77.7c-0.5,8.3-0.6,16.7-0.1,24.9c3.7,59.2-5.8,117.4-12.7,175.9c-1.4,11.5-7.1,13.7-16.8,11.6
			c-5.4-1.1-10.9-3.3-16.3-3c-16.4,0.9-19.4-6.2-17.2-21.4c6.8-46.6,13-93.3,13.1-140.5c0.1-23.7-9-39.9-30.1-52.3
			c-62.9-36.9-130.4-53.4-202.9-48c-60.9,4.6-116,25.2-164,63.5c-7.5,6-14.5,10.9-11.3,23.7c16.4,65.3,9.8,130.6-1.7,195.8
			c-6.1,34.4-6.2,34.1-40.2,28.5c-11.6-1.9-15.5-5.1-13.2-18.6c8.2-47,16.7-94.2,13.6-142.3c-5.3-83.3-39.4-146.3-119.7-181.1
			c-70.1-30.4-142.4-44.3-218.4-41.1c-81.5,3.4-146.4,73.7-139.5,155.1c5.5,65.2,4.8,130-0.1,195.1c-2.7,35.6-2.2,34.9-37.6,33.5
			c-14.2-0.6-17.7-5.1-15.9-18.7c6.5-48.8,9.5-98,7.2-147.2c-3.8-81.8-18-161-65.5-230.6c-46.8-68.7-109.3-109.8-193.8-116.4
			c-74.2-5.9-148.3,2.5-222.3,0.1c-32.1-1-55.7,10-73.8,33.2c-50,64.1-81.3,135.6-81.1,218.6c0.1,26.3,6.2,51,19.4,73.5
			C384.9,2557.9,440.5,2602.8,502.4,2645.9z M2312.5,986.1c-12.2-2-22.1-3.9-32.2-5.2c-116.7-14.5-233.5-28.7-350.2-43.3
			c-27.8-3.5-27-4-25.1-31.9c1.2-17.8,8-22.8,26-20.5c131.6,17.1,263.4,32.7,395,50.2c16,2.1,22-3.3,28.7-15.4
			c22.8-41.4,41.4-84.4,57.3-128.8c5.9-16.5,4.2-23-14.6-27.7c-128-32-255.6-65.7-383.5-98.1c-14.4-3.7-19.8-6.9-14.9-23.2
			c9.5-31.1,8.3-31.5,40.1-23.5c8.7,2.2,17.2,5,25.9,7.2c116.4,29.9,232.9,59.6,349.3,89.8c11.8,3.1,17.2,3,19.5-11.1
			c9.9-60.7,10.4-121,1.3-182c-3.4-23-14.8-26.8-33.9-28.7c-124.7-12.3-249.2-25.3-373.8-38.5c-29.5-3.1-29.5-3.7-26.5-33.4
			c0.2-2.1,0.9-4.1,0.9-6.2c0.2-12.1,6.9-14.7,17.7-13.5c96.3,10.4,192.7,20.7,289,30.9c33.4,3.6,66.8,7,103.3,10.8
			c-28.4-66.2-67.6-119.4-121.9-161.5c-6.6-5.1-14.4-4.2-22-4.2c-34.6,0-69.3,0-103.9,0c-66.5,0-133.1-0.8-199.6,0.5
			c-19.2,0.4-24.8-5.7-22-23.3c0.4-2.7,0.5-5.6,0-8.3c-3.2-17.2,5.2-20.2,20.6-20c73.4,0.7,146.9,0.4,220.4,0.2
			c5.5,0,11.9,2.2,20.2-5.2c-265.1-120.1-530.6-144-804.2-31.1c24.4,24.2,40.7,50.9,49.5,81c12.6,43.2,25.4,87,6.1,131.7
			c-4.2,9.7,2.7,10.4,7.8,13c22.1,10.9,41,25.7,55.7,45.7c40.5,55.2,36.6,126.1-10.8,184c-7.7,9.3-9.9,14.9-0.4,25
			c19.2,20.4,30.3,45.9,40.7,71.7c30.6,75.7,3.4,147.9-73.2,176.2c-4.7,1.7-11.3,2.6-9.3,10.9c7.2,30.2,1,58.9-12.3,88.8
			c14.6-0.9,27-1.5,39.3-2.4c229.9-15.7,450.6,13.6,652,135.1c6.5,3.9,11.6,5.9,18.4,0C2218.9,1103.1,2269.3,1049.4,2312.5,986.1z
			 M2179.4,2106.3c2.5-122.1-18.5-241.4-47.7-359.1c-18.5-74.8-51.5-143.3-108-198c-19.5-18.9-19.7-18.8-38,0.6
			c-143.5,152.4-234.9,330.7-266.2,538.4c-10.6,70.6-16.9,141.7-11.5,213.3c0.7,8.9-0.7,17.8,13.8,17.2
			c75.4-2.9,145.4,16.1,210,54.7c10.1,6.1,13.7,3.7,17.7-6.5c13.1-33.7,38.1-55.2,71.9-67.2c39.9-14.1,80.6-25.7,122.8-29.6
			c15-1.4,19.6-7.5,21.6-21.2C2172.8,2201.6,2178.4,2154.2,2179.4,2106.3z M999.5,886.5c136.8-0.8,249-114.9,248-252.1
			c-1-137.7-113.1-249.2-250.8-249.4c-140-0.2-252.3,112.3-251.8,252.2C745.3,776.4,858.6,887.3,999.5,886.5z M1517.6,1581.3
			c102.6,23.3,201.5,45.7,300.3,68.5c12.8,3,20.7,1.3,28.9-10.8c30-44.1,64.3-85,101.6-123.1c11.5-11.8,11.6-16.4-3.6-24
			c-86.7-43.9-179.5-52.8-274.5-49.5c-4.5,0.2-9.7,1.9-13.3,4.7C1606.6,1486,1560,1529,1517.6,1581.3z M1493.2,2125.8
			c0,0.1,0,0.3,0,0.4c51.9,2.7,103.7,5.2,155.5,8.4c11,0.7,14-3.1,15.5-13.5c5.2-37.7,10.8-75.3,18-112.7
			c2.6-13.2,0.4-16.4-12.8-17.7c-41.3-4-82.4-9.6-123.6-14.5c-62.5-7.5-125.1-14.3-187.5-22.6c-17.8-2.4-24.6,3.2-26.4,20.5
			c-3.6,35.8-10.2,71.4-12.3,107.2c-2.4,41.8-8.6,34.5,32.5,37.4C1399.1,2122.1,1446.2,2123.5,1493.2,2125.8z M1507.1,2395.3
			c42.2-32.5,87.3-55.7,137.8-66.9c12.4-2.8,12.6-9,12.3-19.1c-0.8-34.6-2-69.2-0.4-103.8c0.7-16.1-4.5-19.9-19-20.6
			c-101.6-4.9-203.1-10.2-304.6-16c-12.9-0.7-15.5,4.1-14.4,15.2c2.3,22.7,4.5,45.4,6.1,68.2c0.9,12.5,6.4,18.4,18.9,22.8
			C1410.4,2298.1,1471.8,2328.9,1507.1,2395.3z M478.3,647.5c-0.6,17.7,5,44.8,12.4,71.5c4.3,15.5,11.3,29.8,23.8,40.6
			c4.5,3.9,8.4,8.6,16.2,5.9c53.2-18.6,109.1-24.7,164.4-33.5c12.2-1.9,12.2-5.9,9.5-16c-14.5-54.7-14.6-109.5,1.2-164
			c2.7-9.2,1.9-15.5-6.8-21c-47.6-30.2-97.4-44.2-151.1-18.3C496.4,537.5,478.4,582.6,478.3,647.5z M1734.8,1798.4
			c13.2,2.2,19,0.9,23.4-7.9c13.2-26.6,27.4-52.8,41.9-78.8c4.7-8.4,6-12.9-5.6-15.5c-99.8-22.2-199.6-44.5-299.2-67.6
			c-11.2-2.6-16.4,1.2-22,9.3c-21.6,31.5-41,64.2-58.9,97.8c-6.4,11.9-5.3,16.6,9.3,18.3c34.3,4,68.5,9.6,102.8,14.5
			C1597.5,1778.8,1668.7,1788.9,1734.8,1798.4z M721.5,1014.8c0.9,12.4,1.3,24.9,2.7,37.2c2.3,21.8,12.3,39,30.6,51.7
			c38.2,26.5,117.7,28.1,156.3,3.3c7.1-4.6,8.7-9.6,8.3-17.1c-2.6-49.1-2-98.1,8.1-146.5c1.6-7.5,1-13.3-8.2-15.6
			c-45-11.3-84.9-32.7-119.9-63.1c-5.4-4.6-8.7-4.9-13.3,0.8C751,909.6,712.1,951.7,721.5,1014.8z M1295.2,206.9
			c-27.6-1.1-51.4,5.1-74.7,15c-13.4,5.6-19,11.1-13.7,27.3c10.9,33.4,10.4,67.9,4.8,102.6c-3.2,19.7-20.6,39.5-13.6,56.4
			c7.2,17.7,28.3,29.6,39.9,46.9c6.3,9.5,11.9,10.4,21.9,5.4c43.2-21.7,86.6-43,130.3-63.6c18.4-8.7,25.4-22.6,23.7-41.6
			c-2.5-29-8.2-57.3-20.1-84.3C1374.2,227.1,1342.4,203.3,1295.2,206.9z M969.4,1045.7c0,6.8-0.1,15.8,0,24.8
			c0.4,31,5.8,39.4,36.1,41.8c71.9,5.8,136.7-14.1,193.5-58.9c4.8-3.8,9.4-7.2,5.4-15.4c-20.6-41.7-32.1-86.8-48.5-130
			c-3.1-8.3-5.3-12.9-15.7-7c-45.6,25.9-95.4,36.6-147.4,37c-9.5,0.1-13.6,2.9-14.8,12.5C973.8,981.5,967.6,1012.1,969.4,1045.7z
			 M1391.9,882.6c37.8,0.6,62.8-6.8,85.5-21.2c24.5-15.6,36.4-38.7,31.5-67.3c-6.3-36.7-21-70.1-47.1-97.7
			c-5.8-6.2-11.1-8.4-19.9-5.4c-44.6,15-90.4,19.7-137,11.1c-10.2-1.9-14.7,0.9-17.1,11.5c-4.7,21-12.5,41-23,59.9
			c-4.1,7.3-4.5,13.4-0.2,21.1C1294.6,849.3,1339.6,879.9,1391.9,882.6z M1685.2,1941.4c10.3,3.5,15.8-2.4,19.4-14.6
			c5.8-19.9,12.3-39.8,20.8-58.6c7-15.4,3-19.7-12.5-21.9c-105.4-14.7-210.8-29.9-316.1-45.3c-9.5-1.4-13.9,1.3-16.9,10.1
			c-8.4,24.9-17.3,49.6-26.4,74.3c-4.3,11.7-2.6,17.8,11.8,18.5c17.2,0.8,34.4,3.7,51.5,5.7
			C1505.4,1920.1,1594,1930.6,1685.2,1941.4z M535.9,868.3c-0.6,24.3,1.6,48.4,6.9,72.1c18.1,81.3,33.4,90.9,114,71.9
			c0.6-0.2,1.4,0.2,2,0c6.9-2,11.2-4.9,11.6-13.7c0.8-16.5,2.8-33.1,6.1-49.3c9-44.6,39.1-77.2,66.5-110.6
			c11.2-13.6,10.7-21.2,2.1-36.2c-11.8-20.6-25.4-24.5-46.8-19.9c-35,7.5-70.5,12.4-105.8,19c-54.9,10.2-54.9,10.3-56.6,64.7
			C536,866.9,536,867.6,535.9,868.3z M1350.1,656.6c15.2-1.8,29.7-2.9,43.9-5.4c11.5-2,23.1-4.9,34.1-8.8
			c40.9-14.5,69.1-58.5,66.6-102.6c-2.4-40.9-32.3-73.9-76.4-84.4c-10.8-2.6-21.2-5-32.2,0.6c-33.3,16.7-66.7,33.4-100.6,48.8
			c-12,5.5-12.6,11.1-7.9,21.9c11.1,25.6,14.9,53,19.7,80.3c2.5,14.4-7.7,33.9,6.9,42.1C1316.9,656.3,1334.9,654.5,1350.1,656.6z
			 M840,173.5c0,0.2,0,0.5,0,0.7c-13.8,0-27.7-0.1-41.5,0.1c-4.1,0.1-8.2,1.1-12.3,1.9c-30.2,5.7-39.8,13.7-42.2,44.7
			c-5.3,66.5,26.9,117.9,70.2,164.2c5.4,5.8,9.8,2.3,14.4-0.8c28.9-19.6,60.3-33.6,94.3-41.6c7.2-1.7,12.5-4.3,11.8-13.7
			c-2.5-35.9-3.5-71.9-11.9-107.1c-9.4-39.4-21.6-48.4-62.1-48.4C853.9,173.5,846.9,173.5,840,173.5z M554.4,405.8
			c1.1,11,3.2,21.3,2.8,31.6c-0.5,13.7,4.8,16.4,17.4,13.9c44-8.5,85.1,1.8,124.4,21c10.5,5.1,21.2,16.4,30.7,15.3
			c10.2-1.2,12.3-18.4,19.9-27.2c7.2-8.4,13.1-18,21-25.6c8.5-8.2,7.8-13.8-0.2-21.9c-27.7-27.8-49.1-60.4-61.4-97.5
			c-6.9-20.9-19.4-29.9-39-34.4c-41.3-9.4-81.8,8.9-100.9,46.7C556.8,352.5,554.2,379.2,554.4,405.8z M1165,308.9
			c-1.4-45.6-15.8-87.7-49.5-122.1c-9.4-9.6-20.1-16.7-34.2-17.4c-36.3-2-69.6,7.7-101.2,25c-6.9,3.8-10,7.4-7.7,16.2
			c9.2,35,11.8,70.8,12.6,106.8c0.3,13,4.2,17.5,18.3,17.3c38.4-0.7,75.1,8.7,111,22.5c12.6,4.9,25.4,22.1,37.4,12.9
			c11-8.4,9.7-27.8,12.1-42.8C1164.7,321.8,1164.6,316.2,1165,308.9z M1313.8,1034.5c25.5,0.7,49.4-5.2,71.2-18.6
			c24.6-15.3,36.4-42.3,31.5-69.3c-1.4-7.5-3-12-12.6-12.3c-72.5-2.8-129.7-34-171.3-93.7c-1.8-2.6-4.9-6.1-7.4-6.1
			c-9.5-0.1-29.9,33.2-26.4,42.7c12.1,33.8,24.4,67.4,36.5,101.2C1251.5,1023.8,1266.2,1034.3,1313.8,1034.5z"/>
		<path class="st0" d="M1008.2,556.1c48.6,0.2,86.4,38.6,86.1,87.3c-0.3,47.2-38.6,85.5-85.9,86.1c-47.6,0.5-87.7-39.3-87.6-86.9
			C920.8,594.3,959.7,555.9,1008.2,556.1z M1008.8,606.5c-19.4-0.6-36,15.2-36.5,34.9c-0.5,20.4,14.1,35.9,34.4,36.4
			c19.9,0.5,36.3-14.8,36.9-34.3C1044.3,624.7,1027.8,607.1,1008.8,606.5z"/>
	</g>
</g>
</svg>
