<?xml version="1.0" encoding="utf-8"?>
<!-- Generator: Adobe Illustrator 23.0.0, SVG Export Plug-In . SVG Version: 6.00 Build 0)  -->
<svg version="1.0" xmlns="http://www.w3.org/2000/svg" xmlns:xlink="http://www.w3.org/1999/xlink" x="0px" y="0px"
	 viewBox="0 0 3000 3000" style="enable-background:new 0 0 3000 3000;" xml:space="preserve">
<style type="text/css">
	.st0{stroke:#000000;stroke-width:10;stroke-miterlimit:10;}
</style>
<g id="Layer_1">
</g>
<g id="Layer_2">
	<g>
		<path class="st0" d="M1466.9,40.8c92.4,1.9,177.6-2.6,262.7,4.3c27.8,2.2,54.9,7,80.8,17.3c33.9,13.5,59.9,35.6,73.5,70.2
			c55.1,140.9,107.7,282.5,126.7,434c11.5,91.5,18.2,182.6-5.8,273.2c-8.2,30.8-21.5,58.9-43.4,82.1c-7.8,8.3-8.2,14.9-3.9,24.8
			c53.7,124.9,72.4,254.8,61,390.4c-7.9,93.2-25.7,182.7-67.9,266.6c-24.8,49.3-56.5,93.5-97.6,130.4c-13,11.7-14,18.5-2.9,32.8
			c64.2,82.3,114.1,172,132.8,276.2c18.2,101.5,2.9,193.2-81.9,262.6c-10.7,8.8-3.3,15.6-0.1,22.7c31.7,70.1,47.5,143.4,45.9,220.4
			c-4.5,212.7-151.6,377.1-362.5,408c-103.6,15.2-204.7,6.4-303.9-23.9c-242.2-73.9-352.6-302.2-262.5-540.3
			c11.9-31.4,26.7-61.3,44.6-89.8c4-6.3,7.7-11.1,0.1-18.6c-124.4-123-124.5-265.9-65.6-417.6c20.4-52.6,50.6-99.8,85.6-144
			c5.4-6.8,11.9-12.1,3.3-22.1c-72.9-85.3-100.8-188.3-107.3-296.6c-5.7-95.8-10.3-191.9-3-288.1c8.9-118.4,33.5-233.1,73.9-344.5
			c5-13.8,4.9-25.2-1-39.2c-19.4-45.4-21.8-94.7-27.5-142.9c-9-76.5-16.5-153.3-20.8-230.3c-4-71.2,7.9-139.4,33.8-204.8
			c25.6-64.7,73.9-102.7,145.2-109.1C1277.5,36.4,1375.9,44.2,1466.9,40.8z M1092,814.3c-2.8,7.5-4.4,11.5-5.8,15.6
			c-70,206.1-72.1,417.9-46.3,630.4c17.6,144.5,94.3,251.4,229.8,311.6c96.4,42.9,197.4,55,301.1,38.6
			c134.4-21.3,244.1-83.6,316.2-202.6c44.2-72.9,65.2-153.3,74.9-237.3c14.2-122.5,6.6-242.6-36.5-359.2c-5.5-15-8.7-32.4-18.6-43.8
			c-11.4-13.1-30,1-45.3-2.6c-2.8-0.7-5.8-0.4-8.7-0.4c-80.8-2-161.5-7.3-242.4-5.6c-88.8,1.9-177.6,3.7-266.4,4.4
			c-14.5,0.1-16.6,6-17.3,17.9c-2.2,39.4-11,77.6-20.8,115.7c-18.1,70.3-43.4,138.7-52.2,211.4c-13.2,109.1,23.4,165.8,142,183.6
			c92.4,13.9,171.6-20.1,239.6-81.6c28.9-26.1,46.6-58.8,55.1-97.1c10.7-48.1,4.1-95.7-1.9-143.3c-4.9-38.9-5.3-38.5,33.7-44
			c9.2-1.3,13.6,0.7,14.9,10.1c5.5,39.6,13.6,79,13,119.2c-0.8,60.2-11.8,118.8-52.3,165.1c-87.2,99.7-196.9,145.6-329.6,121.4
			c-102.3-18.6-181.4-87.2-169.4-215c5.9-62.8,21.6-122.9,38.3-183.2c15.7-56.7,34.6-112.7,37.6-172.2c0.6-11.6-2.7-16.8-13.8-19.9
			c-32.7-9.3-60.8-27.3-87.2-48.3C1142.7,878.4,1116.8,849.3,1092,814.3z M1809.4,909.7c0,0.4,0,0.7,0,1.1c18.2,0,36.5-1.3,54.6,0.3
			c30.8,2.7,51.1-12.2,67.2-36.1c9.4-14,15.7-29.4,20.6-45.5c21.3-69.9,17.4-141.1,11.1-212.3c-14.2-160.9-69.2-310.8-125.7-460.2
			c-10.9-28.7-33.5-42.4-61.4-50.1c-11-3-17.4-0.2-21,11.4c-6.7,21.6-16.6,42-28.3,61.3c-6.4,10.6-6,19.7-1.7,30.6
			c21.4,54.2,30.9,110.5,26.2,168.8c-1,12.8,2.4,24.1,6.3,35.9c31.7,96.1-16.5,179.2-114.7,198.6c-55.4,10.9-106.9,0.5-155.4-27.1
			c-10.4-5.9-19.4-10.2-32.5-5.5c-48.1,17.4-97.9,21.2-148.5,15.1c-50.5-6.1-88.7-30.4-111-77.4c-10.4-21.9-16.1-45.3-20-68.9
			c-1.9-11.6-7-15.6-17.5-17.6c-28.7-5.2-56.6-14-83.4-25.1c-19-7.9-18.7,0.3-17.1,14.7c5.8,52.1,9.6,104.4,16.7,156.3
			c8.3,60.6,10.3,122.7,44.4,177.5c34,54.7,73.6,103,131.3,133.8c21.6,11.5,21.7,11.1,24-12c6.4-67.7,37.6-121.8,91.7-162.1
			c108.6-80.7,275.9-64,338.5,85.8c11.9,28.4,19,58.1,21.6,88.7c1.1,12.4,5,17.4,18.6,17.1C1765.8,906.4,1787.6,908.6,1809.4,909.7z
			 M1469.8,2371.9c120.6-4.1,238.2-35.4,352.2-81.1c60-24,98.2-69,110.2-133.8c6-32.4,5.4-65.3-0.3-97.7
			c-15.8-90.2-56.9-169-110.2-242.1c-25.5-35-25.7-34.8-62.3-14.3c-5.7,3.2-11.3,6.7-17.3,9.2c-10,4.1-9.9,8.7-5,18.1
			c39.5,73.8,40.6,151.3,14.4,228.5c-33.8,99.9-105.8,158.5-209.2,175.9c-113,19-207.9-15.5-277.3-107.9
			c-69.4-92.3-85.5-197.2-62.9-308.8c2.9-14.1,0.2-20.8-11.7-27.9c-16.2-9.6-31.6-20.9-46.3-32.7c-9.1-7.3-14.5-8.7-22.4,1.7
			c-51.7,67.4-89,141.4-103.9,225.7c-22.4,126.2,23.3,232,133.3,298C1247.7,2340.5,1353.5,2369.8,1469.8,2371.9z M1472.2,2911.2
			c92.1,1.1,188.8-12.6,272.4-72.5c157.8-113,184.5-324.3,107.2-489.4c-4.4-9.3-8.8-9-16.7-5.4c-33.2,15.2-68.2,25.1-103.2,34.7
			c-12.6,3.4-18.3,6.3-13,21.8c12.5,36.9,16.2,75.4,10.2,114.2c-14.9,96.2-66,165.4-156.6,201.9c-92.5,37.3-180.8,27.8-257.4-38.9
			c-87.4-76.1-116.6-176.3-109.3-288.9c0.9-14.3-2.2-20.9-15.3-25.6c-21.9-7.9-43.1-18-62.2-31.3c-12.2-8.4-17.6-5.7-24.7,6.4
			c-46.5,78.8-69.8,163.4-60.3,254.7c10.2,97.7,54.4,177.2,136.5,233.2C1265.5,2884.5,1362.8,2904.9,1472.2,2911.2z M1705.7,98.6
			c-21.5-4.2-41.1-4.1-60.6-4.2c-76.4,0-152.9-0.1-229.3,0.3c-75,0.4-149.9-2.7-224.9,2.8c-52.1,3.8-88.2,28.6-107.2,76.1
			c-19.5,48.9-29.4,100.3-30.7,153.1c-0.2,9.9,3,16,12.8,19.9c153.3,61.5,304.8,65.7,451.5-18.3
			C1608,276.5,1665.4,195.4,1705.7,98.6z M1621.1,905.6c57.6-1.3,57.6-1.3,42.9-54.8c-1.2-4.2-2.3-8.4-3.7-12.5
			c-30.2-92.1-108.9-135-202-110.2c-75.3,20-133.2,93.2-131.9,165.3c0.2,13.5,4.4,17.9,17.4,17.4c24.7-1,49.4-1,74.1-1.3
			c8-0.1,12.5-1.6,14-11.8c3.9-27,18.4-40.4,46.2-43.3c18.8-1.9,37.8-1,56.6-2.5c17.4-1.4,30,6.9,32.3,22.3
			c4.6,30.9,23.5,34.8,48.7,31.1C1618.5,904.8,1621.4,905.6,1621.1,905.6z M1585.3,1863.5c-35.6,3.9-68.9,8.5-102.3,7.2
			c-14.9-0.6-23.8,4.4-32.3,16.3c-45.6,63.9-91.7,127.5-138.2,190.7c-7,9.5-7,15.6,0.4,24.3c23.8,28.3,51.5,51.4,85.7,66
			c34,14.5,33.6,14.1,48.2-19.2c32.9-75.2,63-151.7,103-223.6C1560.9,1905.1,1572.7,1885.3,1585.3,1863.5z M1488.5,2185.5
			c9.2,0,15.6,0.6,21.8-0.1c152.2-15.4,241.6-155.5,192.5-301.4c-5.1-15.3-9.7-36.3-24-39c-12.6-2.4-23.9,16.1-32.9,28.2
			C1576.4,1967.9,1537.5,2077.8,1488.5,2185.5z M1574.1,2417.3c-45.4,5.2-87.2,7.9-129,7.4c-6.9-0.1-10.2,4.5-13.3,9.6
			c-34,55-67.9,110-102.5,164.7c-6,9.5-3.9,15.2,3.1,22.3c27.6,28.1,59.2,48.7,98.2,57.8c12.6,2.9,18.1-0.1,23.4-11.4
			c22.8-48.7,46.5-96.9,69.8-145.3C1540,2488.5,1556.2,2454.7,1574.1,2417.3z M1522.3,389.2c-12.2,5.2-20.7,8.8-29.1,12.5
			c-45.5,19.9-92.5,33.3-142.3,38.3c-35.6,3.5-71,4.6-106.6,3.5c-6.5-0.2-14.6-3.4-14.2,9.5c1.2,41.7,33.2,81.1,74.1,88
			c64.7,10.9,125.7,0,182.6-33c13.5-7.8,24.8-17.4,28.5-33.9C1521.2,447,1518.4,419.6,1522.3,389.2z M1508.3,2678.4
			c121.6-16.2,197.1-141.9,160-260.2c-2.2-7-1.2-17.4-12-18.2c-10.5-0.8-16.8,5.2-21.3,15c-12.4,27.1-25.8,53.7-38.8,80.5
			C1567.3,2555.5,1538.5,2615.6,1508.3,2678.4z M1682.2,250.5c-31.8,40-64.7,74.6-103.8,102.7c-3.8,2.7-5.5,6.9-4.8,11.5
			c4.6,29.1-0.5,58.1-1.8,87.1c-0.7,15.3,7.2,21.7,21.3,20.4c20.3-1.8,40.4-4.6,59.7-11.9c20.4-7.7,35.3-21.4,39.6-43
			C1703.4,362.3,1700.1,308,1682.2,250.5z M1400.5,1865.1c-48.1-8.3-92.1-19.4-134.4-36.6c-10.1-4.1-12.3,0.3-13.9,9.2
			c-3.9,21.6-5.9,43.3-5.7,65.1c0.5,45.9,7,90.6,28.5,135.4C1317.5,1979.7,1358.2,1923.5,1400.5,1865.1z M1377.3,2419.3
			c-36.9-8.1-72.5-14.5-106.7-25.8c-8.4-2.8-12.2,0.7-12.5,9.2c-2.3,54,6,105.7,32.4,157c24.6-39.4,47.5-76.1,70.4-112.9
			C1366.1,2438.4,1371.1,2429.7,1377.3,2419.3z M1529.9,546.9c74.8,39.9,173.2,8.8,179.6-57.9c-38.2,28.9-82.6,39.3-127.5,35.7
			C1557.8,522.7,1542.8,526,1529.9,546.9z"/>
		<path class="st0" d="M1541.7,1297.8c-0.3-19.2,16.9-36.5,36-36.5c18.4,0,34.9,16.1,35.7,34.5c0.8,19.3-14.6,34.7-34.9,35.1
			C1557.1,1331.3,1542,1317.8,1541.7,1297.8z"/>
		<path class="st0" d="M1498,1298.3c-0.5,19.5-17.8,35.9-37,34.9c-18.9-1-33.8-16.8-33.8-35.8c0-19.9,16.3-36.2,35.9-36
			C1482.6,1261.7,1498.4,1278.4,1498,1298.3z"/>
		<path class="st0" d="M1343.6,1331.6c-18.6-0.6-33.8-16.9-33.1-35.5c0.8-20.5,17.1-34.2,39.6-33.1c17.8,0.8,32.5,16.5,32.2,34.5
			C1382.1,1317.8,1365.6,1332.3,1343.6,1331.6z"/>
	</g>
</g>
</svg>
