<?xml version="1.0" encoding="utf-8"?>
<!-- Generator: Adobe Illustrator 23.0.0, SVG Export Plug-In . SVG Version: 6.00 Build 0)  -->
<svg version="1.0" xmlns="http://www.w3.org/2000/svg" xmlns:xlink="http://www.w3.org/1999/xlink" x="0px" y="0px"
	 viewBox="0 0 3000 3000" style="enable-background:new 0 0 3000 3000;" xml:space="preserve">
<style type="text/css">
	.st0{stroke:#000000;stroke-width:10;stroke-miterlimit:10;}
</style>
<g id="Layer_1">
</g>
<g id="Layer_2">
	<g>
		<path class="st0" d="M896.6,2499.2c-55.9,87.3-121.7,156.6-208.9,204.3c-132.7,72.6-286.7,54.1-381.9-47.2
			c-77.8-82.8-88.5-182.3-63.9-287c42.8-182.1,156.1-300.5,332.9-360.2c97.3-32.8,196.1-51.1,299-41.8c13.4,1.2,22.3,0.5,28.2-15
			c81.6-213.7,208.8-396.6,376-552.1c2.6-2.4,4.5-5.5,9.7-12c-28,4.4-51.8,7.7-75.3,12c-126.7,22.8-189.2-62.2-194.5-158.7
			c-9.8-178.1,53.1-322.4,211.7-428.6c-19.1,1.9-31.2,2.8-43.2,4.4c-87.6,11.8-129.4-15.4-149.9-107.3
			c-19.6-87.9-11.7-175.4,26.4-258.6c17-37.2,36.4-73.2,63.3-104.1c11.5-13.2,9.5-21.7-0.1-33.6c-60-74.7-134.2-119.9-233.5-109.8
			c-130.6,13.3-258.2,41.1-379.1,93.3C422.2,336.8,356.9,400.9,343,504.4c-9,66.7,0.2,132.5,23,195.9
			c14.5,40.4,35.9,77.1,61.2,111.8c10.2,14,16.8,13.5,28,1.6c34.4-36.3,55.6-78.6,62.1-128.2c15.4-117.2,88.7-179.3,197.5-207.3
			c12.1-3.1,27.1-9.8,29.4,12.3c1.6,15.3,8.4,30.7-18,34.5c-21,3-41.7,12.6-61.1,22c-53.7,26-87.4,67.9-96.8,128.1
			c-4.5,29-8.9,58.4-22.1,84.9c-10.7,21.5,1.2,23.6,17.3,24.8c66.6,4.9,108.6-30.6,139.3-84.6c5.5-9.7,8.1-20.9,24.4-17.4
			c30.2,6.5,32.7,10.7,17.8,39.1C698.7,809.5,623.4,845.7,527.9,826c-9.1-1.9-17.5-4.8-25.3,5.3c-22.4,28.9-52.9,48.5-82.4,69.2
			c-35.5,25.1-45.7,54-35,96.5c15.8,63,62.7,99.7,127,101.2c60.2,1.4,119.1-5.9,176.8-23.4c26.5-8,51.2-19.9,74-35.6
			c19.4-13.3,36.2-8.2,46.1,13c5.9,12.7-4.9,14.9-10.6,19.3c-44.5,34.5-96.1,52.3-150.8,62.3c-61.8,11.3-123.9,19.8-186.2,4.7
			c-80.5-19.6-140.8-113.9-125.5-195c5.5-29,19-54.2,43.4-71.1c17.8-12.4,19.3-20.9,5.6-39.2c-69.7-93.4-98.7-199.5-90.6-315.4
			c7-100.8,56.4-177,140.3-231.6c89.3-58.2,191.6-80,293.1-103.9c48.9-11.5,98.4-19.4,148.4-25.2c112.5-13,203.2,27.7,273.9,112.7
			c20.3,24.4,29.6,20.6,50.6,2.6c161.4-138.8,348.7-180.4,555.1-140.4c96.6,18.7,172.8,70.5,223.2,157c2.3,4,5.1,7.7,8.8,13.2
			c21.8-33.3,46-62.1,80.3-80.1c12.3-6.4,9.6-17.3,10.2-27.2c2.3-35.2,6.9-69.7,25.3-100.9c27.2-46.2,74.1-70.3,118.3-60.4
			c41.7,9.3,72.3,51.6,77.4,104.9c1.1,11.1-7.2,29.4,8,32.1c19.9,3.5,41.4,0.3,61.9-2.4c7.1-0.9,3.5-11.6,4.7-17.7
			c7.3-37.1,25.6-66.8,56.8-88.5c43.6-30.4,90.3-23,122,19.7c16.4,22.1,31.7,45,49,66.3c39.9,49.1,90.2,83,151.2,101
			c53.1,15.6,75.1,53.9,75.4,107c0.1,29.3,5.8,58.1,2.3,87.9c-7.2,61-39,103.3-91.7,131.8c-20,10.8-39.9,21.7-60.1,32.1
			c-18,9.3-33.4,21.7-46.1,37.3c-7.1,8.7-17.6,18.8-13.4,29.7c4.2,10.6,18.6,6,28.4,7c73.8,7.5,117.8,42.9,134.8,117.5
			c41.7,182.7-4.9,343.4-128.1,482.4c-15.1,17-15.9,26.1-2.3,43.8c56.9,74.4,84.3,161.1,94.5,252.6c26,234.9-4.8,461.3-107.2,676.1
			c-21.7,45.4-48.3,87.9-78,131.8c10.5,5.6,20.1,10.5,29.6,15.8c88.6,49.7,123.3,148.9,84.6,241.8c-14.7,35.3-39.6,61.7-76.7,70.5
			c-79.7,18.9-156.3,10.1-226.4-35.3c-9.5-6.1-16.9-15.2-25.9-22.1c-13.3-10.1-16.4-34.7-33.7-34.3c-14.2,0.4-28,14.4-42.2,22.2
			c-122.3,66.7-254.9,95.3-392.5,103.9c-146.8,9.1-293.8,13.3-440.6,0.4c-124.3-10.9-245.8-33.8-359-90
			C1004.3,2622,943.3,2571,896.6,2499.2z M2699.1,1643.2c-3.4,8.7-6.7,17.4-10.1,26c-44.6,111.7-113.3,205.1-208.9,278.6
			c-12.4,9.6-20.7,16.9-32.9-1.4c-10.7-16-13.4-24,4.7-37.8c101.8-77.6,171.5-178.4,207.2-301.5c11.5-39.7,28.1-80.6,18.3-122.2
			c-11.3-48-33.1-92.7-63.4-132.4c-16.4-21.5-27.5-20.6-36.8,5.1c-35.3,97.6-82.8,188.6-143.4,272.9
			c-54.6,76-118.1,143.3-189.9,202.9c-5,4.2-9.4,12.7-19.1,7.1c-21.3-12.3-23.3-33.1-4.3-49.2c153-129.3,259.4-289.8,322.6-479.7
			c6.6-19.9,3.1-30.5-14.4-41.5c-40.7-25.5-84.4-43.1-131-52.9c-153.2-32.4-308-43.6-464.7-41.4c-220,3.1-410.3,79.6-577.2,219.5
			c-141.3,118.4-254,260.3-340.6,422.5c-73.9,138.3-127,283-129,443c-2.7,210.4,116.3,348.4,342.4,400.4c-2-45.9-1.2-91.3,5.9-136.3
			c24.5-155.5,96.5-282.3,228-371.4c182.1-123.4,377.1-137.9,579.7-59.7c158,61,245.1,212.9,224.5,381.1
			c-5.5,45-19.8,87.5-33.5,132.4c124.2-49.7,268.5-192.3,348.9-346.6C2682.6,2067.6,2717.2,1861,2699.1,1643.2z M1684.6,2702.5
			c56.8,0,113.8,2.2,170.5-0.5c97.8-4.5,194-19.6,286.8-52.2c12.3-4.3,24.6-7.6,30.1-22.6c12.8-34.5,27.7-68.2,37.4-103.9
			c46.7-171.5-30.8-326.1-196.7-389.9c-79.7-30.7-162.8-43.8-247.9-38.7c-126.6,7.6-239,56.4-331,140.6
			c-119.6,109.6-164.3,253.1-159.2,413.4c0.6,20.2,6,29.3,27.8,33.6C1428.9,2706.9,1556.5,2710.9,1684.6,2702.5z M1597.9,712.1
			c55.6,11.4,105.2,25.4,151.3,49.6c9.4,4.9,17.7,1.2,26.5-3c55.5-26.2,103.1-61,142-110.1c120.5-152.1,55.5-391.5-127.2-456.8
			c-84.6-30.2-173.3-35.5-260.9-20.9c-184.8,30.7-331.4,121.2-419,291.8c-42.3,82.4-48.1,170.8-21.3,259.8
			c12.7,41.9,32.3,52.7,74.1,48.9c53.8-4.9,107.6-9.9,160.5-20.8c74-15.3,148.4-30.4,217.7-61.6c52.1-23.4,74.5-64.9,69.3-118.5
			c-4.5-46.3-38.5-81.7-83.6-86.9c-52.1-6-78.9,11.5-98.5,61.6c-6.1,15.5-24,19.7-37.3,20.5c-10.8,0.6-9.5-16-9.5-25.8
			c-0.1-30.8,15.3-54,38-73.1c44.3-37.3,114.9-42,168.2-11.7c50,28.5,78.4,88.8,70.5,147.4C1653.2,645.5,1633.7,680.9,1597.9,712.1z
			 M1589.6,1194.8c18-6.4,34.7-12.8,51.7-18.5c89.1-29.8,139.9-93.8,159.7-183.1c18-81.1-5.1-148.7-63.6-183
			c-71.2-41.8-148.8-60-231.6-50.5c-78.6,9-147.8,44.5-217.6,78.6c-161.2,78.7-225.5,213.9-224.4,386.1
			c0.6,97.5,49.9,141.7,143.5,129c102.8-13.9,198.4-48.9,282.6-111c24.9-18.4,42.4-43.1,51.6-73.1c20.7-67-10.1-119.8-78.4-134.3
			c-87.5-18.5-167.9,39.1-178,130.5c-2.9,26.3-17.3,24.2-34.8,23.7c-24.3-0.6-14.6-18-13.2-28.8c13.5-107.5,98.6-180.2,205.1-176
			c109,4.3,171.2,85.6,146.8,191.7C1588,1181.4,1584.9,1186.7,1589.6,1194.8z M278.3,2434.5c-1,182.7,141.3,296.6,298.3,259.7
			c133.8-31.4,220.8-122.4,288.7-235.8c5.8-9.7,3.2-17.6,0-26.8c-13-36.8-21.1-74.6-24.2-113.5c-0.9-11.3,1.6-26.2-4.6-33
			c-10-11.1-21.2,4.2-32,7.1c-51.5,14-101.7-9.3-112.9-53.4c-13.5-53.1,15.7-95.2,73.4-106.3c23.4-4.5,47-8.3,70.1-0.2
			c13.3,4.6,15.9-0.9,18.3-12.3c5.9-27.8,11.9-55.6,20.5-82.6c6.3-19.9-0.1-23-18.6-24c-117.3-6.5-228,19.3-332.9,69.3
			C365.2,2157.4,293.4,2289.7,278.3,2434.5z M1782.2,1141.7c68.9-9.2,136-13.5,203.2-14.5c16.1-0.2,21.1-4.8,25-21.1
			c24.9-102.3,87.2-167.9,192.8-187.9c68.8-13,137.9-10.3,206.6-0.4c46.4,6.7,78.9,34.4,100.3,75.7c14.4,27.9,24.6,57.4,32.6,87.6
			c12.1,46,19.4,92.8,19.6,140.4c0.1,23.8,20.4,31.6,35,40.8c13,8.1,20-10.2,27.1-18.4c106.4-124.4,147.8-266.6,112.9-428
			c-13.7-63.5-45.9-88.4-110.4-87.6c-116.5,1.4-229.9,15.6-334.3,74.3c-108.3,60.9-213.2,28-291.2-40.7
			c-18.5-16.3-35.5-34.2-49.5-54.7c-5.9-8.6-10.3-12.1-18.9-2.2c-36,41.2-81.6,69.6-130,94.1
			C1887.3,918.2,1859.9,1029.7,1782.2,1141.7z M2373.7,217.8c-33.3,1.5-60.9,1.7-88.2,4.2c-59.5,5.4-118.6,13.8-175.3,33.2
			c-55.4,19-103.7,85-94.1,128.8c19.8,90,8.1,175-35.4,256c-4,7.5-8.2,13.7-1.9,23.2c39.7,60,91.4,103.1,162.6,120.3
			c14.4,3.5,21.8-0.2,27.8-14.9c63.5-154.8,166.4-276.5,308.9-364.5c8.5-5.3,14.1-10.4,14-22c-0.7-45.5-0.8-91,0.1-136.5
			c0.3-14.8-5.4-20.1-19.3-21C2437.9,222.6,2402.9,219.9,2373.7,217.8z M2659.3,562.1c-48.7-35.9-94.6-67.6-137.9-102.7
			c-14.1-11.4-21.1-14.6-37-3.9c-114.5,77-201.5,177.1-258.9,302.7c-2.7,6-10,12.1-3.8,20.8c16.5-1.5,30.8-8.8,44.7-16.6
			c78.9-44.3,163.5-69.2,253.7-75.1c27.9-1.8,53.4-3.9,57.2-41.4c1.8-17.8,17.1-31.1,29.8-44.1
			C2621.6,586.9,2639.2,576,2659.3,562.1z M2784.2,398.6c-2.2-21.6-4.4-43.2-6.7-64.8c-1.5-14.2-7.9-25.2-21.2-31.3
			c-63.8-29-130-50.7-198.9-64.3c-12.6-2.5-19.2-1.7-18.9,14.1c0.8,44.4-0.1,88.9,0.1,133.3c0.1,20,7.9,36.2,24.7,48.5
			c42.8,31.1,85.4,62.5,127.4,94.6c11.7,8.9,20.8,8.3,33,1.2C2774.8,500,2786.7,453,2784.2,398.6z M2508.3,2674.6
			c89.1,0.1,117.1-17.7,130.3-69.9c18.2-71.9-21.2-145.2-91-171.7c-14.8-5.6-22-1.2-30.9,9.6c-41.5,50.7-88.9,95.7-142.1,133.9
			c-17.1,12.3-16.3,20.9-4,35.7C2412.1,2662,2468.1,2673.4,2508.3,2674.6z M2288.5,1038.6c-0.4,0-0.8-0.1-1.3-0.1c0-8.5,0-17,0-25.6
			c0-59,0-59-59.2-51.1c-86.6,11.6-152,67.9-169.3,145.5c-2.3,10.2-7.7,20.6,10.4,21.5c66.8,3.3,133.4,9.9,199.8,18.6
			c13.9,1.8,12.9-6.9,13.5-15.3C2284.4,1100.9,2286.4,1069.7,2288.5,1038.6z M2512.4,1205.7c4.9-19.7-1.5-37-3.7-54.5
			c-4.1-32.9-12.7-64.9-23.7-96.3c-26.3-74.7-49.4-91.1-128.8-95.1c-18.4-0.9-22.9,5.1-22,22.2c2.7,51.2,0.4,102.3-4.3,153.3
			c-1.3,13.9,1.4,21.5,16.2,23.5C2403.3,1166.7,2458.6,1182.4,2512.4,1205.7z M2126.9,180.8c-4.8,17.8,5.8,19.1,25.2,13.8
			c20.9-5.7,42.5-8.9,64-12.2c39.2-6,42.3-9.8,34.1-48.5c-1.8-8.3-4.1-16.6-7.6-24.3c-15-33-45.3-40.7-74.3-18.7
			C2140.7,112,2130.3,141.7,2126.9,180.8z M2574.2,192.2c-22.9-31.3-43.7-60.2-65.1-88.6c-9.5-12.6-22.5-17.2-37.5-10.1
			c-25,11.9-42.5,30.3-49.2,58.1c-3.3,13.5-1.5,21.9,14.8,22.6C2482.4,175.9,2526.7,184.2,2574.2,192.2z"/>
		<path class="st0" d="M990.8,1494.7c-0.4,25.3-6.9,49.2-19.2,70.7c-50.9,88.7-123,155.1-215.7,197.9
			c-37.9,17.5-77.4,14.7-114.9-5.5c-69.5-37.6-89.2-109-41.9-172.1c54-72.2,118-136,190.5-189.9c43.3-32.2,91.6-30.6,138.2-4.5
			C967.8,1413.6,990.8,1447.4,990.8,1494.7z M702.7,1726.2c5.7-0.6,11.4-0.8,17-1.8c5.6-0.9,11.4-1.7,16.4-4.1
			c89.2-42.1,158.9-105.3,201.1-194.9c18.7-39.6,2.6-74.8-36.4-94.9c-34-17.5-66-12.6-94.9,11.5c-59.8,49.7-114.9,104.1-163.8,164.7
			c-17.8,22-30.9,46.8-14.2,75.4C644.4,1710.4,670.2,1724.3,702.7,1726.2z"/>
		<path class="st0" d="M465.7,1428.6c-0.6,62.6-52.9,113.8-115.1,112.8c-62.6-1.1-113.4-53.7-112-115.9
			c1.4-61.6,52.2-111.2,113.7-111.1C415.1,1314.4,466.3,1366,465.7,1428.6z"/>
		<path class="st0" d="M339.9,1587.5c52.4,0.1,93,41.4,92.7,94.1c-0.3,52-42.7,94.3-94,93.7c-50.9-0.6-94-44.3-93.5-95
			C245.5,1628.9,288,1587.3,339.9,1587.5z"/>
		<path class="st0" d="M478.7,1943.4c-0.5,51.9-42.9,93.7-94.3,93c-51.2-0.7-93.7-44.1-93-95.1c0.7-51.6,43-92.8,95-92.4
			C438.9,1849.3,479.2,1890.7,478.7,1943.4z"/>
		<path class="st0" d="M1151.6,2868.3c2.1-40.2,34.2-67.1,77.3-64.8c33.4,1.8,62.4,35,61.3,70c-1.3,38-36.8,70.8-73.5,67.9
			C1179.1,2938.5,1149.6,2905.4,1151.6,2868.3z"/>
		<path class="st0" d="M1662.2,2872.4c-0.3,38.1-30.9,68.7-68.7,68.8c-38.6,0-70-32.5-69-71.5c1-37.6,32.8-67.9,70.4-67.1
			C1633.4,2803.4,1662.6,2833.6,1662.2,2872.4z"/>
		<path class="st0" d="M887.2,2695.6c38.8,0,68.5,29.4,68.7,68.1c0.2,38-29.9,69.3-67.4,70.2c-38.3,0.9-70.4-31.3-70.1-70.4
			C818.7,2724.9,848.3,2695.6,887.2,2695.6z"/>
		<path class="st0" d="M1909,2871.3c0.2-38.1,30.9-68.8,68.8-68.8c36.7,0,69.4,31.7,70.1,68.1c0.7,37.5-33.2,71.3-71,70.6
			C1939.5,2940.6,1908.7,2908.9,1909,2871.3z"/>
		<path class="st0" d="M2030.6,1338.8c24.7-0.2,64.8,7.1,105.3,10.9c89.2,8.4,150.4,162.2,81.1,232.2
			c-76.3,77.1-160.5,141.3-258,188.3c-74.1,35.7-152,58.3-233.9,66.3c-15,1.5-30.4,1.7-45.4,0.5c-84.5-7.2-131.4-66.1-119-150.1
			c15.1-102,66.9-181.8,149.3-242.5C1800.5,1377.6,1902.4,1343.7,2030.6,1338.8z M2077.4,1388.3c-159.8-8.2-295,35.3-400.8,152
			c-39.9,44.1-64,98.4-69.4,159.1c-4.3,48.3,15.5,77.8,57.6,87.4c37.4,8.5,42.3,5.1,41.5-33c-2.3-111.1,41.6-193.6,144.7-242.3
			c64.2-30.3,126.9-63.5,190.2-95.7C2053,1409.8,2065.6,1405,2077.4,1388.3z M1951,1622.2c-0.3,0-0.6,0-0.8,0
			c0-28.4-0.3-56.8,0.1-85.1c0.2-15.7-3.9-21-19.6-12.3c-20.6,11.5-41.7,22.1-63.1,31.9c-87.8,40-116.5,112.5-114.6,203.3
			c0.4,21.9,9.2,24.8,27.7,20.9c54.9-11.5,107.1-30.2,158.1-53.3c13.6-6.2,17.3-14.8,16.2-28.9
			C1952.8,1673.3,1952.3,1647.8,1951,1622.2z M1997,1687.1c3.5,1,7,2,10.5,3c14.9-9.5,30.2-18.5,44.7-28.6
			c38.2-26.5,74.2-55.7,107.1-88.6c54-54,53.8-72.8,16.3-145.4c-7.8-15.2-21.3-24.3-37.9-27.2c-16-2.8-15.1,14.3-22.6,21.5
			c-15.2,14.6-32,26.4-50.7,35.9c-16.8,8.5-33.1,18.3-50.5,25.4c-13.8,5.6-17.4,14-17.2,28.1C1997.4,1569.7,1997,1628.4,1997,1687.1
			z"/>
		<path class="st0" d="M1767.9,2532.4c-72.8-0.1-129.6-56.7-129.8-129.4c-0.2-73.1,59.2-132.5,131.7-131.8
			c71.3,0.6,129.9,59.5,130.3,130.9C1900.4,2475,1842.2,2532.5,1767.9,2532.4z M1852.6,2402.1c-0.3-45.3-38.2-82.8-83.7-82.8
			c-46.1,0-83.4,36.6-84,82.5c-0.6,46.3,38.8,85.3,85.1,84.6C1815.6,2485.6,1852.9,2447.5,1852.6,2402.1z"/>
		<path class="st0" d="M629,2257.9c1.2,50.7-2.4,55.2-45.6,64.8c-19.3,4.3-38.4,9.9-57.9,13.2c-26.3,4.4-42.9-9.6-43.5-34.7
			c-1.4-62.9,74.7-115.9,131.9-91.7c7.6,3.2,11.7,9.2,12.4,17.5C627.4,2239.1,628.5,2251.4,629,2257.9z"/>
	</g>
</g>
</svg>
