<?xml version="1.0" encoding="utf-8"?>
<!-- Generator: Adobe Illustrator 23.0.0, SVG Export Plug-In . SVG Version: 6.00 Build 0)  -->
<svg version="1.0" xmlns="http://www.w3.org/2000/svg" xmlns:xlink="http://www.w3.org/1999/xlink" x="0px" y="0px"
	 viewBox="0 0 3000 3000" style="enable-background:new 0 0 3000 3000;" xml:space="preserve">
<style type="text/css">
	.st0{stroke:#000000;stroke-width:10;stroke-miterlimit:10;}
</style>
<g id="Layer_1">
</g>
<g id="Layer_2">
	<g>
		<path class="st0" d="M677.2,2048.3c3.6,6.3,6.7,11.9,9.9,17.5c18.9,32.9,16.1,62.6-15.8,81.8c-55.1,33.2-110.6,66.8-172,87.8
			c-38.3,13.2-75.7,7.9-109.6-14.4c-34.1-22.4-63.9-23.7-98.7,3.1c-51.6,39.7-126,19.6-153.5-39.8c-32.2-69.6-37.4-111.4,63.2-109
			c17.5,0.4,35.1-2.3,52.7-3c38.4-1.5,65.7-19.6,86.8-51.6c32.8-49.6,38.6-50.9,89.6-24.2c44.8,23.4,89.6,10.1,140.8,3.3
			c-30.2-16.9-55.6-30.8-80.7-45.3c-43.4-25.2-83.2-55.2-116.3-93.3c-67.9-78.3-79.2-169-32.7-261.8
			c35.8-71.6,90.7-127.3,151.2-177.7c31.5-26.3,63.8-52.6,99.3-72.8c31.6-18,38.8-39.4,34.6-73.4c-8.2-65.7-0.4-131.2,16.8-194.9
			C679,947,761.2,851,884.4,789.3c110.5-55.3,229.6-77.8,351-87c280.6-21.3,561.6-17.3,842.2,0.7c112.4,7.2,223.8,23.6,331.9,57.3
			c47,14.7,91.7,34,132.1,62.6c77.7,55.1,102.4,132.1,69.3,221.6c-23.9,64.5-65.2,118-112.6,166.7c-15.9,16.3-15.5,22.3,7.3,29
			c55.5,16.4,108.9,38.2,156.8,71.6c99.5,69.1,130.5,163.8,87.9,277c-57,151.4-159.7,264.8-295.8,350
			c-173.2,108.5-363.9,171.2-561.8,214.3c-165.1,36-332.2,52.1-501.3,47.6c-238.2-6.4-468-52.7-687.7-146.2
			c-6.3-2.7-12.7-5.2-19.1-7.4C683.1,2046.7,681,2047.7,677.2,2048.3z M1424.1,1161.1c-27.4,0-54.9-0.6-82.3,0.2
			c-27.4,0.7-54.7,3-82.1,4.2c-254.4,10.9-485.3,88.3-689.2,242.6c-68.2,51.6-132.3,107.1-180.1,179.3c-9.8,14.8-11.5,22.1,9.6,27.3
			c39.1,9.6,78.3,17.6,118.3,20.4c40.5,2.9,80.5-1.2,117-20.8c39.6-21.3,81.2-38.3,122.2-56.5c28.3-12.6,57.8-18.6,88.5-16.6
			c58.2,3.7,94.4,35.6,107.1,76c12.4,39.4-4.9,85.6-44.5,115.7c-24.7,18.9-53.1,29-83.7,32.9c-78.1,9.9-156.6,13-233.3-6.9
			c-71.8-18.5-120.6,10.4-162.2,64.6c-13.9,18.2-15.3,29.1,4.1,44.9c64.4,52.6,137.7,88.9,212.9,122.4
			c210,93.6,428.6,152.7,658.6,168.6c202.7,14.1,402.8-2.9,600.6-47.6c185-41.7,363.2-101.9,525.7-202.7
			c135.9-84.3,237.4-197.1,289.3-350.2c27.4-80.7,5.4-148.2-60.3-201.6c-28.4-23.1-59.9-40.6-93.2-55c-65.8-28.5-134.8-46.2-205-60
			c-131.8-25.8-265.1-38.7-398.8-49.1C1783.7,1179.2,1604.2,1164.6,1424.1,1161.1z M2314,1194c39.2,8.4,74.5,15.8,109.8,23.7
			c9.5,2.1,16.8,0.3,23.7-6.8c50.8-52.1,98.4-106.5,126.4-174.9c29.7-72.6,12.9-131.9-49.3-178.7c-37.3-28.1-79.5-45.9-123.4-60.2
			c-93.5-30.6-190.3-44.7-287.8-53.3c-211.9-18.7-424.4-19.1-636.8-16.1c-147.8,2.1-295.6,7.7-439.9,45.3
			c-94.9,24.7-183.9,62.2-253.9,133.7c-90.3,92.3-123.1,206.4-120.9,332.6c1,60.1,0.7,58.1,54.1,32.5c36.1-17.3,59.3-42.1,79.1-77
			c109.3-193.9,269.9-312,496.8-334.2c273.7-26.7,547.6-21.2,821.6-9.8c66.4,2.8,132.7,11.8,196.1,34.1
			c106.1,37.4,134.3,114.8,77.9,212.7C2367.8,1131.7,2342.2,1161.2,2314,1194z M1914.4,878.9c-55.7,0-111.5,0.4-167.2-0.3
			c-14.2-0.2-22.7,2.8-28.8,17.6c-30.3,72.9-61.9,145.3-93.6,217.6c-5.5,12.6-4.1,16.6,10.5,17.4c43.9,2.5,87.9,5.1,131.5,10.3
			c41.7,4.9,78.9-6,115.6-24.1c48.6-24.1,85.9-60,117.7-103.2c41-55.6,88.4-58.2,137-9.2c40.9,41.3,56.3,91.4,45.1,147.8
			c-4.1,20.8,0.7,25.6,20,26.1c16.5,0.4,33,3.9,49.4,6.4c8,1.2,15.3,1.6,21.7-4.9c41.9-42.8,82.4-86.6,100.5-145.6
			c13-42.6,0-74.2-38.8-96.6c-26.4-15.2-55.1-24.6-84.9-30.9C2139.3,883.5,2026.8,883.2,1914.4,878.9z M825.2,1216
			c10-2.2,13.9-2.5,17.3-3.8c93.5-36.1,190.1-61.1,289.6-71.9c32.6-3.6,49-13,61.6-46c24.2-63.2,74.5-101.2,143.6-103.6
			c59.9-2,106.8,30.4,125.8,84.4c16.1,45.8,41.3,56.4,82.7,51.2c1.9-0.2,4-0.2,5.9,0.3c20.2,5,29.6-4.8,37-22.8
			c28-67.7,56.5-135.1,86.6-201.9c9.9-21.9,2.5-23.7-16.8-23.5c-130.2,1.5-260,7.7-389.5,23.2C1065.8,926.1,928.1,1040.5,825.2,1216
			z M724.5,1736.7c29.3-2.2,58.6-3.7,87.8-6.9c30.6-3.4,59.7-12.1,82.5-34.3c41.4-40.4,28.9-94.1-25.9-112.8
			c-30.6-10.5-60.4-5.1-88.8,6.8c-40.5,17-80.8,34.9-120,54.7c-35.8,18-72.8,27.5-112.7,28.3c-55.4,1.1-109.2-7.6-161.9-23.7
			c-17.6-5.4-26.4-3.4-30.1,16.9c-8,43.7-6.2,85.6,14.4,125.7c14.7,28.5,15.1,28.7,34.8,3.9c49.5-62.4,108.4-94.7,191.9-72.9
			C637.5,1733,680.9,1739.8,724.5,1736.7z"/>
		<path class="st0" d="M2504.1,2352.2c-79.9-6.1-169.3-39.2-246.1-103.5c-25.1-21-22.8-36.9-0.4-60.8c34-36.1,77.7-48.2,124-51.5
			c57.5-4,98.3-25.2,124.1-81c30.5-65.8,99.3-75.1,153.2-26.2c10.9,9.9,21.3,20.3,31.3,31c21.9,23.6,48.7,34.8,80.9,34.7
			c13.6-0.1,27.3,1.9,40.7,4.6c32.3,6.5,53.1,30.5,55.6,62.9c2.5,31.9-12.9,55.6-45.7,66.7c-15.6,5.3-32.3,9.6-48.7,10
			c-53.8,1.2-94.3,28.2-131.5,63.3C2608.7,2333.6,2571,2354.9,2504.1,2352.2z"/>
		<path class="st0" d="M1427.6,2217.3c55.8,0,111.5,0.4,167.3-0.2c28.2-0.3,42,12.9,41.9,40.4c-0.2,27.3,2.6,54.6-1.8,82
			c-3.6,21.8-15.6,33.1-36,36.6c-61.1,10.5-126.5,21.9-183.2,2.7c-50-17-93.5-2.8-139.7-3.1c-38.6-0.2-66.2-13.3-82.7-48.4
			c-9.2-19.5-17.4-39.4-20.1-61c-3.6-28.6,5.4-39.7,34.5-42.3C1280.8,2217.4,1354.1,2214.4,1427.6,2217.3z"/>
		<path class="st0" d="M1134.2,581.7c0.5,77.2-35.2,116.3-111.6,114.1c-60.8-1.7-113.4,13.4-159.8,53
			c-27.4,23.4-59.9,26.7-94.1,17.9c-49-12.6-68.4-55-45.6-100.2c9.1-17.9,22.2-33.2,40.1-41.7c96.1-45.8,192.1-92.4,299.3-106.6
			C1122.2,510.2,1133.8,521.6,1134.2,581.7z"/>
		<path class="st0" d="M2303.2,450.7c42.4-1.8,80.6-0.9,117.6,9.9c53.9,15.8,83.4,51.5,82,97.2c-1.4,47.4-41.5,98-89.7,107.7
			c-76.8,15.4-150.3-1.3-219.2-34.4c-38.1-18.3-34.7-58.2-32.3-93.6c2.6-37.7,23.4-63.5,58.6-76.2
			C2248.2,451.3,2278.3,453.8,2303.2,450.7z"/>
		<path class="st0" d="M2749.6,500.9c36.1-1,71.9,0.8,106.8,12.3c13.2,4.4,23.1,11.5,27.1,24.3c14.8,46.4,19.6,93.6,5.8,141.2
			c-5.7,19.8-18.4,34.4-38.7,40.7c-62.7,19.6-126.5,23.8-191.1,12.3c-31.6-5.6-48.3-23.9-51.5-55.1c-4.1-41.5,0.7-81.5,17.1-120.5
			c15.3-36.4,39.6-57,80.5-55.3C2720.3,501.5,2735,500.9,2749.6,500.9z"/>
		<path class="st0" d="M1407.4,685.4c-32.3-1.1-78.4-15.2-118-46.8c-36.5-29.2-39.1-68.1-7.4-101.8c28.3-30.1,59.7-53.3,105.3-45.6
			c23.2,3.9,43.6-6.4,63.4-18.2c26.8-16,55.4-36.8,86.3-13.5c33.6,25.3,47.3,62,40.1,104C1563.9,640.2,1506.8,685.5,1407.4,685.4z"
			/>
		<path class="st0" d="M1833.6,644.7c-15.1,0-22.8,0.6-30.4-0.1c-61.3-5.9-91.6-50.2-75-109.1c24.5-86.9,134.3-138.6,217.6-102.7
			c42.1,18.1,53.5,54.5,55.3,95.3c1.7,38.2-14.3,67.8-48.4,87C1920.5,633.1,1869,645.5,1833.6,644.7z"/>
		<path class="st0" d="M2927,1095.1c-4.5,38.4-14.9,83.9-38.3,125.1c-26.7,46.9-94.9,55.3-133.7,17.7c-12.9-12.5-19.4-27-13.2-44.9
			c23.2-68,56.5-130.7,105.3-183.6c28-30.3,49.2-24.8,67.1,11.9C2924.3,1042,2927.5,1063.9,2927,1095.1z"/>
		<path class="st0" d="M398.5,1072.5c0-8.8-0.6-17.6,0-26.3c5.2-74.8,74.1-115.9,140.7-83.6c15,7.3,23.2,21,24.4,37.7
			c4.4,60.9-10.9,116.5-50.7,163.2c-30.8,36.2-82.8,27.1-103.2-16.3C398.6,1123.5,397.3,1098.1,398.5,1072.5z"/>
		<path class="st0" d="M500.2,934.4c-45.7,0.3-66.3-24.5-53.1-63.4c21.3-62.6,63.5-107.9,126.4-130.1c46.8-16.5,85.6,18.3,80.7,69.5
			c-5.5,57.9-50.1,106.5-107.1,116.6C529.8,930,512.4,932.4,500.2,934.4z"/>
		<path class="st0" d="M480.8,1226.3c40.3-0.3,74.8,33.8,75.2,74.1c0.4,40.3-33.7,74.7-74.2,75.1c-40.8,0.4-74.6-33.1-74.9-74.1
			C406.7,1260.7,440.1,1226.7,480.8,1226.3z"/>
		<path class="st0" d="M2765.7,897.8c1-37.7,9.8-71.8,46.4-91.1c32.7-17.3,55.9-6,61.4,30c8,52.3-4.5,100.9-31.8,145.3
			c-17.5,28.5-37.6,26.3-53.1-3.6C2775.6,953.1,2764.8,927.2,2765.7,897.8z"/>
		<path class="st0" d="M2344,1685.1c-9.6-6.3-20.6-3.1-30.8-3.1c-132.1-0.3-264.2-0.3-396.3,0c-16.1,0-28.6,0.2-27-22.5
			c1.5-21.5,16-15.9,27.3-15.9c136-0.3,272.1-0.2,408.1-0.2c50.1,0,64.7-24.3,40.7-70.5c-20.9-40.2-57.2-63.5-96.7-82.2
			c-83-39.2-171.7-51.4-262.3-53.7c-14.1-0.4-24.9-0.5-23.7-19.6c0.8-12.2,3.9-17.5,16.8-17.4c111.9,1.4,220.3,17.4,318.8,75
			c9.3,5.4,18.1,11.7,26.6,18.2c75.2,58.3,90.3,133.2,34.5,210.3c-81.4,112.4-192.6,184.4-326.9,219.7
			c-74.5,19.6-150.5,23.2-227.2,19c-13.2-0.7-18.8-3.7-18.2-18.6c0.7-15.9,6.5-19.1,21.4-18.3c102.7,5.5,203.1-5.7,298.5-47
			c81.4-35.3,149-89.2,207.1-155.5C2339,1698.2,2345.1,1693.7,2344,1685.1z"/>
		<path class="st0" d="M1528.7,1425.1c-8.8,10.6-12.1,15.2-16.1,19.2c-74.6,75.9-149.5,151.4-223.7,227.7
			c-11.4,11.8-18.5,12.6-30.6,0.7c-12.9-12.7-5.8-19.2,3.2-28.2c74.4-74.7,148.4-149.8,222.9-224.5c5.4-5.4,9.5-16.7,21.1-9.5
			C1513,1415.1,1520.4,1419.8,1528.7,1425.1z"/>
		<path class="st0" d="M1439.9,1851.5c-33.8,85.7-144.4,121-226,72.8C1290,1899.9,1363.5,1876.2,1439.9,1851.5z"/>
	</g>
</g>
</svg>
