<?xml version="1.0" encoding="utf-8"?>
<!-- Generator: Adobe Illustrator 23.0.0, SVG Export Plug-In . SVG Version: 6.00 Build 0)  -->
<svg version="1.0" xmlns="http://www.w3.org/2000/svg" xmlns:xlink="http://www.w3.org/1999/xlink" x="0px" y="0px"
	 viewBox="0 0 3000 3000" style="enable-background:new 0 0 3000 3000;" xml:space="preserve">
<style type="text/css">
	.st0{stroke:#000000;stroke-width:10;stroke-miterlimit:10;}
</style>
<g id="Layer_1">
</g>
<g id="Layer_2">
	<g>
		<path class="st0" d="M734.8,741.7c31.1-6.9,59.5-10.2,88.3-5.2c9.4,1.6,10.6-6.1,13.2-12c14.3-31.8,29.2-63.4,42.9-95.4
			c38.1-88.8,134.7-132.5,226.5-102c37.7,12.5,50.2,37.5,36.7,75.2c-4.5,12.6-10,25.1-16.9,36.4c-53.4,87.7-115.2,168.3-196.7,232.4
			c-31.2,24.5-58.7,53.2-80.3,87c-15.4,24.1-25,50.2-28.2,78.9c-1.8,15.8,3.3,24.7,18.4,30.7c93.5,37.5,186,13.3,253.1-62.6
			c88.3-99.9,184.4-191.6,287.1-276.3c110.5-91.1,239-142.6,379.3-165.3c113.7-18.4,228.6-21.5,343.4-19.5
			c78,1.4,149.4,61.3,172.8,139.9c1.7,5.8,3.3,11.6,5,17.7c8.2,0.1,13.5-5.4,19.7-8.6c108.1-55.6,220.9-76.8,338.7-38.8
			c123.4,39.8,186.3,132.4,209.2,255.5c14.8,79.8,5.6,157.9-22.8,233.6c-4.4,11.7-3,18.6,5.8,27.7c109.8,115.2,123.5,285,34,416.7
			c-5.9,8.7-9.2,16.5-7.4,27.7c25.4,164.3-1,315.6-113.5,444.8c-0.8,0.9-1,2.3-1.6,3.6c2.5,4.9,7.1,2.7,10.6,2.6
			c52.5-2.1,104.6,3.9,156.8,8.4c16.3,1.4,15.7,10,14.8,21.6c-0.9,12.5-6.1,13.9-18.2,12.7c-60-6.1-120.1-15.8-180.6-6
			c-14.1,2.3-32.3,1.4-37.9,17.4c-5.4,15.6,7.9,27.5,17.1,38.8c31.5,38.5,72.8,50.1,120.8,43.3c34.1-4.8,67.5-12.1,97.7-29.2
			c14.4-8.2,15.5,4.9,20,11.3c3.7,5.3,10,12-1.5,17.6c-58.8,28.4-120,44.9-185,29.6c-44-10.4-75.7-39.3-96.6-79.3
			c-4.3-8.3-5.5-13.5-16.5-6.5c-176.8,113-368.6,130.1-569.4,88c-23.6-4.9-46.8-12-70.1-18.1c-10.4-2.7-20.8-3.8-14.7-20.3
			c4.9-13.2,9.1-17.3,24.1-12.6c95.7,30.1,193.9,43.3,294.1,36.7c133.8-8.8,256.9-47.9,361.7-134.7
			c102.5-84.9,153.9-195.9,162.1-327.6c2.5-39.6,2.3-79.2-4.7-118.7c-8.4-0.9-11.5,6.3-16.2,10.4c-34.4,30-73.4,51.6-116.4,66.4
			c-10.5,3.6-17,4-20-9.4c-2.5-11.3-5.7-17.9,10-23.5c112.8-39.9,182.2-119.1,201.5-237.3c15.7-95.9-13.2-180.3-80.7-253.5
			c-16.9,29.1-32.9,56.9-53.1,81.9c-17.4,21.4-36.3,41.3-56.2,60.4c-9,8.6-14.5,6.6-20.7-2.1c-5.4-7.6-14.3-12.5-1.9-24
			c102.7-95.4,154.7-212.8,146.2-353.9c-6.6-109.7-60.8-233-203.8-272.3c-91.3-25.1-179.6-12-265.5,24.1c-6.2,2.6-12.1,5.8-18.3,8.4
			c-30.1,12.6-55.2,27.7-54.2,67c0.4,17.3-10.9,33.6-19.3,52.4c49.1-11.8,95.7-14.5,141.8-0.5c88.5,27,142.1,86.4,151.9,178.4
			c9.8,91.5-25.3,164.9-102.7,217.2c-46.9,31.7-99,49.3-151.7,27.5c-38.9-16.1-59.5-7-88.1,18.7c-62.4,56.2-141,84.4-219.3,111.1
			c-76.8,26.2-153.7,52.6-234.1,65.8c-62.2,10.2-124.2,10.4-185.8-5.7c-35.8-9.3-62.5-27.8-79.4-62
			c-27.9-56.3-54.8-112.3-50.6-177.7c4.2-64.4,30.8-119,72.4-166.8c63.9-73.6,147.4-114.5,238.9-142.3c147.1-44.6,297.8-63.1,451-64
			c8,0,15.3,1.1,20.8-7.7c33.7-53.5,37.1-125.5-3.1-175.4c-1.7,2.2-3.8,4-5,6.3c-30.2,60.2-84.3,76.9-145.8,78.7
			c-22.5,0.6-45.2-1-67.7-2.6c-35.9-2.5-62.9-24.6-73.2-59.1c-7.6-25.4-9.3-51.5-7.5-77.8c0.8-11.2-3.1-13.4-13.5-13.1
			c-221.3,6-416.4,76.2-577.7,232.2c-58.4,56.5-119.1,110.7-174.7,170.1c-99.4,106.2-161.2,231.4-187.6,374.3
			c-3.2,17.4-2.5,34.8-2,52.2c0.8,30.2,13,39.9,42.7,32.9c61.4-14.5,120.7-35.5,178.8-60.1c6.2-2.6,12.8-4.6,18.3-8.3
			c14-9.3,19.8-3.3,26.3,10c7.6,15.5-3.3,16.4-12,20.5c-60.2,28.5-123.6,48.2-187.3,67c-9,2.6-18.3,4.2-27.6,5.3
			c-41.9,5-66.2-13.9-71.8-56.2c-6.5-49.2,4.9-96.2,18.2-142.8c17.9-62.8,43.2-122.6,77.8-182.7c-27.8,8.1-51.5,17.6-77.2,20
			c-48,4.4-93.6-3.6-137.1-23.8c-19.3-8.9-26.5-25.5-26.7-45.9c-0.5-58.7,26.6-105.6,63.7-148.1c24.4-27.9,52.7-51.7,81.1-75.4
			c70.7-58.9,123.2-132.6,169.1-211.1c24-41.1,14.8-55.1-33.4-58.8c-23.6-1.8-46.8,0.8-69.8,6.3c-38.9,9.2-65,33.4-81.3,68.9
			c-16.3,35.3-32.7,70.6-48.1,106.3c-41,95-96.3,181.1-160.5,261.9c-25.5,32-50.9,64.2-60.6,105.6c-4.1,17.5-16.4,3.3-24.7,4.5
			c-11,1.6-8.8-6.9-7.3-13.5c8.5-40,30.9-72.7,55.7-103.8c50.4-63.1,96.7-128.8,134.5-200.3c11.4-21.6,11.2-22.1-13.9-21.6
			c-42.9,1-79.7,14-106.8,50.2c-21.2,28.4-50.2,50.3-68.4,81.6c-62.7,107.7-64.5,216.6-5,325.5c10.1,18.6-2.4,19.1-10.9,26.1
			c-12.1,9.9-14.7-1-18.5-8.1c-56.4-104.5-64-211.5-15.5-321.1c1.3-3,2.4-6,5.6-14.1c-30.6,15.5-56,30-77.2,51.3
			c-51.6,51.9-77,117-94,186.3c-2.9,11.7-5.4,23.6-7.7,35.4c-3.7,18.7-14.4,23.5-32,15.2c-5.7-2.7-3.8-5.8-3.1-9.5
			c14.1-77.2,35.8-151.4,82.7-216.2c28.3-39.1,65.2-67.4,108-88.4c35.3-17.3,68.4-37.6,94.7-67.2c49.1-55.2,82.6-118.2,93.9-191.9
			c2.5-16.6,2-24.9-2.7-40.2c-2.3,1.3-4.9,2.1-6.5,3.8C624.9,692.2,509.3,783.1,392,871.8c-90.6,68.5-118.4,160.1-106.4,268.4
			c4.1,36.8,12,72.9,23.9,107.9c4.6,13.4-2.8,14.6-11.6,17.1c-8,2.2-16,9-20.3-5.3c-26.2-86-39.8-172.5-15.3-261.6
			c19.8-71.9,67.6-122.1,124.9-165.5c69-52.3,137.4-105.5,202.7-162.5c4.4-3.8,8.4-8,13.1-12.5c-2.7-0.8-4.3-1.8-4.9-1.3
			c-71.5,48.5-152.6,74.4-233.7,100.8c-79,25.8-149.5,66.6-205.6,129.2C109.3,941.7,92.7,1009.6,86,1081c-9.8,105,1,209.3,9.8,313.7
			c4.4,52.2,9.6,104.3,14.5,156.9c9.4-1.8,11.1-10,15-15.4c72.3-99,161.4-175.8,280.8-212.4c43.4-13.3,87.7-18.6,133.3-11.8
			c66.8,10,117.1,44.5,152.7,101c44.3,70.3,58.4,149.1,63.1,230.4c8,140.7-41.3,260.4-133.8,364c-7.1,7.9-6,12.2-0.3,19.9
			c14.8,19.9,29.2,40.2,42.5,61.2c33.9,53.5,78.4,94.8,135.6,122.5c6,2.9,9.6,2.6,14.3-0.5c38.8-25.2,79.1-48.4,112.6-81
			c36.6-35.7,53-78.8,51.7-130.4c-1.5-61.9-12-122.9-15.3-184.6c-3.4-63.1,0.4-125,29.9-182.5c31.5-61.6,76.1-107.1,148.6-116.6
			c20.6-2.7,24.8,2.5,21.4,22.9c-1.1,6.6-3.9,8.9-10.3,9.7c-91.7,11.5-129.1,77.4-149.4,155.7c-15.3,59.1-6.7,120.2-0.5,180.4
			c1.7,16.3,13.2,9.8,21.2,8.2c44.2-9.2,88-8.2,131.6,3.4c69.4,18.5,120.1,62.3,157.8,120.8c34.9,54.1,76.5,97.9,138.7,119.8
			c15.5,5.5,21.6,3.5,27.9-12c26.7-65.3,55.4-129.7,102-184.1c14.9-17.4,30.2-34.2,49-47.7c33.3-23.8,69-38.4,109-19.3
			c40.7,19.4,58.4,55.6,63.9,98.5c6.1,46.8-5.8,92-13.6,137.6c-1,5.9-2.1,11.9-3.3,17.8c-7.9,40.3-7.9,40.4,33.7,35.2
			c51.3-6.3,102.7-12,153.8-19.6c14.7-2.2,17.2,3.7,18.7,15.3c1.5,11.2-0.4,16.6-13.6,18.5c-124.5,17.7-249.1,32.8-375.2,23.6
			c-68.6-5-135.7-17.1-198.2-47.6c-21.9-10.6-42-24-59.8-40.6c-8.1-7.5-12.1-6.4-18.7,1.7c-13.6,16.6-29.9,31.1-42.7,48.2
			c-34.7,46-80.6,57-134.3,45.7c-17-3.6-34.3-6.4-50.1-14.4c-45.6-22.8-55.5-70-19.5-105.8c40.1-39.8,87-71.7,132.7-104.6
			c15-10.8,12.6-15.4-0.6-24.2c-59.8-39.8-124.6-45.9-193.1-31.4c-9,1.9-11.8,6.6-10.9,15.6c1.4,15.4,1.4,30.9,2.6,46.3
			c5.5,72.5-20.7,131.5-75.9,177.8c-94.2,79-201.6,128.8-323.8,146.6c-54.3,7.9-108,11.3-162-1.3c-71.9-16.9-128.4-56.5-171.3-115.7
			c-60.3-83-97.9-177.1-131-273c-37.6-109.1-55.4-222.6-66.7-336.9c-13.6-137.6-29.9-275-31.4-413.6c-0.6-55.2,2.9-110,14-164.3
			c21.7-106.5,88.6-178.2,178.6-232c46.3-27.7,95.7-49.1,147.6-63.1c100.5-27.1,188.2-77,267.4-143.5c13.9-11.6,27.9-23.2,44.3-31.4
			c29.9-15.1,56.8-4,66.3,28.2c8.8,29.9,4.6,59.9-2,89.6C758.9,684.9,748.2,712.2,734.8,741.7z M249.8,2082.9
			c11.6-10.1,22.2-19.2,34.6-25.9c62.7-34,129.4-58.4,196.4-81.9c32.5-11.4,65.4-6.2,94.7,12.3c10.5,6.7,15.7,4.5,22.9-3.8
			c35.6-40.7,65.4-85.1,87.1-134.7c28.4-65.1,41.2-132.9,36.5-204.1c-1-14.9-6.2-19.5-20.8-18.6c-27.4,1.7-52.7,8.6-75.6,24.2
			c-40.3,27.5-59.4,67.3-62.6,114.1c-1.3,19.9-11.7,16.5-23.5,16.9c-15.5,0.6-10.7-10.2-10.3-18c4.6-82.7,63.8-165.8,170.5-170.8
			c13-0.6,17.8-3.5,15.1-17.3c-10.1-52.3-24-103.2-53.3-148.7c-26.7-41.5-64-68.1-112.2-78.9c-57.3-12.8-112.4-2.7-165.5,18.9
			c-111.2,45.2-192.4,125-255.5,225.2c-8.4,13.3-11.6,26.1-9.4,41.6c7.8,53.8,16.4,107.4,27.5,160.6
			C167.5,1894.6,203.9,1989.4,249.8,2082.9z M2172.8,868.8c-3.9-0.2-7.9-0.6-11.8-0.5c-127.4,1.7-252.6,19.5-375.3,53.9
			c-87.4,24.5-170.2,57.8-234.9,125.1c-49.4,51.3-81.3,110.3-77.6,183.4c3,58.7,30.1,109.2,59.8,158.1c6.9,11.3,19.2,16.6,31.5,20.4
			c46.7,14.8,94.3,19,143.1,14.7c68-6,132.7-25.6,197.6-45c15.4-4.6,16.4-9.8,10-23.4c-24.1-50.9-32.7-104.7-24.9-160.7
			c13.1-93.9,63-166.8,132.2-228.3C2067.4,926.7,2118.7,896.8,2172.8,868.8z M2331.5,856.7c-11.3,1.1-22.7,2.2-34,3.4
			c-42.6,4.5-77.4,28.7-115.1,45.5c-67.8,30.1-127.8,70.7-178,125.7c-10.9,11.9-10.8,16.8,4.1,25.4c47.7,27.5,70.4,70.2,60.3,114.7
			c-12.4,54.4-50.8,84.3-101.4,102.3c-13.2,4.7-34.4-2.5-38.6,15c-3.4,14.1,6.6,29.6,12.3,43.9c2.7,6.8,6.4,13.3,9.2,20.1
			c3.2,7.9,7.7,9,15.7,6.2c76.2-26.4,152.7-52.8,216.4-104.5c69.3-56.3,115.6-125.2,108.6-219.6c-1.1-14.5,8.1-14.2,17.2-16
			c10.4-2,16.8,0.4,16.9,12.4c0.1,10.7,1.6,21.5,1,32.1c-3,49.4-18.6,94.7-46.8,135.3c-6.6,9.5-6.3,14.2,4.9,19.2
			c21.3,9.5,43.1,15,66.4,12.5c97.9-10.2,173.6-101,169-202.4C2515.2,928.5,2436.9,857.5,2331.5,856.7z M2033.7,579.4
			c-22.1,0-44.2,0.3-66.3-0.1c-8.2-0.1-11.8,2.2-12.7,10.9c-2.5,24.3-1.5,47.9,5.1,71.6c6.7,24.1,22.2,36.7,45.9,37.9
			c28.1,1.4,56.3,1.8,84.4,0.1c38.7-2.4,71.2-17.2,91.4-53c15.3-27.1,15.3-26.3-8.4-47c-15-13-32.3-18-51.1-20.5
			C2092.7,575.5,2063.2,575.4,2033.7,579.4z M1177.3,2176.5c29.7,2,49.4-2.2,64.7-19.2c21.5-23.9,43-47.9,64.6-71.7
			c4.3-4.7,7.8-8.9,3-15.6c-16.5-22.8-31-47-49.8-68.1c-4.3-4.9-8.1-5.9-13.5-2c-48.3,35-97.3,69.3-141.1,109.8
			c-21.4,19.7-15.6,41.5,11.5,53.7C1138.4,2173.2,1161.9,2175.2,1177.3,2176.5z M1920.8,1225c-0.9,23.3-0.2,24,23.2,19.5
			c20-3.9,38.3-11.7,54.4-24.3c54.5-42.7,54.6-102.8-15.9-140.3c-8-4.3-12.7-3.4-17.6,4.9C1939.1,1128.1,1923.1,1174.4,1920.8,1225z
			"/>
		<path class="st0" d="M1849.3,1619.4c109.2,4.7,218.9,5.3,325.3,36.1c33.7,9.8,66.1,22.5,94.6,43.5c53.1,39.2,74.3,94.8,51.3,158.3
			c-46.8,128.8-137.1,210.7-273.5,237.4c-24.9,4.9-50.6,5.7-76,8.2c-12.8,1.3-19.3-2.1-19.1-17.4c0.2-14.3,4.5-17.4,18.4-17.5
			c140-0.8,242.2-63.9,306.1-188.5c12.7-24.7,21.1-51,18.4-79.3c-3.5-35.5-23.3-60.7-52.6-79.2c-50.7-31.8-107.8-44.8-165.8-52.2
			c-118.8-15-238.1-20.6-357.8-13.9c-169.5,9.4-307.1,83.5-418.6,209.1c-10.2,11.5-17,16.3-30.3,3.8c-9-8.4-7.6-12.5-0.6-20.4
			c100-114.6,222.5-190.8,373.3-217.9C1710.7,1617.3,1780,1617.7,1849.3,1619.4z"/>
		<path class="st0" d="M414.4,1830.4c0,46.3,0,46.3-46.3,46.3c-31.1,0-31.1,0-31.1-31.5c0-16.1,0.4-32.2-0.1-48.2
			c-0.4-11.3,4.2-15.6,15.4-15.2c15.4,0.6,30.8,0.8,46.2-0.1c12.6-0.7,16.7,4.8,16,16.6C413.9,1808.9,414.4,1819.7,414.4,1830.4z"/>
	</g>
</g>
</svg>
