<?xml version="1.0" encoding="utf-8"?>
<!-- Generator: Adobe Illustrator 23.0.0, SVG Export Plug-In . SVG Version: 6.00 Build 0)  -->
<svg version="1.0" xmlns="http://www.w3.org/2000/svg" xmlns:xlink="http://www.w3.org/1999/xlink" x="0px" y="0px"
	 viewBox="0 0 3000 3000" style="enable-background:new 0 0 3000 3000;" xml:space="preserve">
<style type="text/css">
	.st0{stroke:#000000;stroke-width:10;stroke-miterlimit:10;}
</style>
<g id="Layer_1">
</g>
<g id="Layer_2">
	<g>
		<path class="st0" d="M835.1,275.5c79.4-118.4,184.9-182.3,329.3-162.1c97.6,13.7,206.2,94,236.7,258.5
			c11.2-10.1,21.5-19.4,31.8-28.7c139.8-126.9,305.4-201.2,489.3-234.9c139.4-25.5,280-43,422.2-36.8
			c123.8,5.4,239.5,36,338.5,115.4c77.2,61.9,121.6,145.3,153.2,235.9c54.5,155.9,73.2,317.2,67.2,481.8
			c-8.1,221.2-64,431-152.1,633c-6.2,14.3-6.5,20.2,9.7,27.8c56.7,26.5,81.4,77.2,90.7,135.2c12.3,76.7,9.4,152.3-34.2,220.7
			c-5.9,9.3-2.3,17,0.2,24.8c15.3,47.7,26.6,96.1,29.2,146.2c3.3,64.9-5.2,126.6-47.9,179.2c-0.9,1-1.4,2.6-2.5,3.2
			c-36.6,19.3-29,50.8-24.4,83c17.6,123.4-4.4,241.4-52.1,355.3c-17.6,41.9-53.8,68.6-86.8,97.1c-87.8,75.7-192.7,111.4-305.6,126.7
			c-62.3,8.4-125,10.6-187.7,10.7c-439.1,0.5-878.2,0.6-1317.4,0c-79.3-0.1-158.6,0.4-237.7-10.2
			c-208.6-28.1-395.1-185.3-445.5-379.2c-29.2-112.2-18-223.4,15.2-333.1c36.2-119.7,93.2-227.7,182.1-317.1
			c10.8-10.9,4.1-15.1-3.1-21.9c-93-88.6-158.1-194.2-190.4-318.7c-41.7-161.1-26.8-315.5,60.2-459.9c5.6-9.4,5.3-14.6-2.6-21.9
			c-24.2-22.6-45.4-47.9-62-76.8c-45.5-79.6-30.3-153.4,44.1-207.3c13.7-9.9,16.8-14.8,4.4-29.7C64.6,623.7,68.3,440.7,199.7,300.3
			c118.1-126.2,263-182.2,436.1-148C698.6,164.8,764.4,191.7,835.1,275.5z M2773.1,1972.4c-50.3,37.3-107.3,52.9-168,58.4
			c-97.4,8.8-195.1,13.4-292.7,18.1c-126.6,6.1-253.4,9.9-380.1,15.2c-13.2,0.5-18.8-3.4-17.9-16.7c0.4-6.7,0.1-13.5-0.7-20.2
			c-1.4-11.2,3.9-13.2,14-13.4c137.6-2.6,275-9.6,412.4-15.6c13.3-0.6,20.4-4.8,26.4-16.4c27.8-53.3,65.3-99.1,111.6-137.2
			c89.9-74.1,193.6-109.5,310.1-106.7c14.9,0.4,18.9-3.6,16.5-18.1c-2.6-16-6.7-31.5-11.8-46.9c-14.9-44.4-45.4-68.8-91.9-73.2
			c-43.7-4.2-86,4.3-127.6,15.9c-209,58.2-414.3,128.1-619.7,197.6c-10.6,3.6-14.1,9.6-15.8,20.2c-8,52.4-34.1,93-80.7,119.5
			c-23.1,13.1-48,21.9-73.6,27.5c-197.6,42.6-395.3,32.4-593.1,1.2c-9.3-1.5-10.8-6.3-9.5-14c1.2-6.6,3.5-13.2,3.5-19.8
			c-0.2-14.5,7.2-16.7,19.4-14.7c23.3,3.8,46.6,7.3,70,10.4c153.3,20.2,306.5,22.3,459.5-2.9c38.6-6.4,76.9-15.1,110.1-37.6
			c29-19.6,42.3-47.6,46.4-85.2c-9.3,6.7-15.3,10.9-21.2,15.2c-36.1,26.7-75.2,47.2-119.3,57.5c-80.8,18.8-139.4-9.7-171.9-85.9
			c-22.4-52.5-35.4-107.5-32-165.2c0.8-14.2-2.8-19.1-17.4-17.9c-45,3.6-90.3,4.7-135.2,9.2c-136.8,13.9-273.4,29.2-409.1,51.4
			c-120.6,19.8-239.3,47.2-352.9,93.2c-186.6,75.6-328,198.2-403.1,389.8c-38.8,99.1-63.3,200.9-53.1,307.9
			c15.6,163.4,106.5,276.6,244.6,356.7c2.6,1.5,5.3,4.3,9.8,1.4c-2.3-4.7-4.5-9.4-7-14c-28.5-54-49.4-110.7-60.8-170.7
			c-20.1-106-11.1-208.4,41.7-304.1c64-115.9,168.5-175.6,293.3-202.5c161.4-34.8,321.5-22.6,479.3,23.2
			c71,20.6,135.8,52.7,184.4,110.8c68.3,81.9,78.3,176.7,57.6,276.7c-26.6,128.2-95.5,233.2-184.6,326.5
			c-5.3,5.5-10.5,11.1-18.1,19.2c9.4,0.6,14.6,1.2,19.8,1.1c302.9-1.6,605.7,4,908.6,0.1c50.6-0.7,101.1-3,151.5-6.9
			c12.4-0.9,17.9-4.8,20-18.7c16.3-107.3,70.8-189,165.6-243.1c5.6-3.2,12.6-4.6,17.4-12.6c-7.5-1-13.9-2.2-20.5-2.6
			c-147.1-9.5-293.9-3.1-440.7,6c-49.1,3.1-98.2,6.2-147.3,10.3c-13.3,1.1-18.7-2.8-18.6-15.8c0-5.4-0.9-10.7-1.7-16.1
			c-1.8-12.5,2.1-17.4,16.1-18c46.5-2.2,92.8-6.5,139.2-9.6c136.7-9.1,273.5-13.9,410.5-8.6c19,0.7,22.7-2.9,21.7-21.9
			c-5.6-112.1,68-185.7,180.1-182.4c30,0.9,57.8,10.5,88.4,22.6c-1.9-15.5-3.6-28-5-40.5c-0.9-8.4-3.6-11.1-12.9-8.6
			c-49.2,13.2-99.6,15.3-150.3,14.9c-198.3-1.4-396.6-3.6-594.9-0.6c-31.7,0.5-63.4,0.4-95.1,0.3c-5.1,0-12.7,2.7-14.7-3.1
			c-4.4-12.8-4.1-27-1.4-39.9c2.4-11.6,14.8-5.9,22.5-6c204.4-2.6,408.7-5,613.1-0.3c15.1,0.3,21-1.4,18.1-19.4
			c-24.2-150,88.7-269.3,239.8-254.9c14.4,1.4,34.9,14.4,41.4,2.6c5.7-10.4-5.8-30.2-9.8-45.8
			C2775.4,1977.4,2774.5,1975.7,2773.1,1972.4z M2625.4,1205.5c63.5-108.6,82.4-222.9,64.4-344.6c-3-20.6-11.5-25.5-30.6-25.8
			c-122-2.2-244.1-5.7-366.1-7.8c-18.7-0.3-22.2-4.9-18.1-23c26.9-118.7,52.5-237.8,79-356.6c3.3-14.7,1.2-22.5-14.5-28.2
			c-52.9-19.1-106.8-32.1-162.8-38.4c-143.6-16.3-280.6,6.1-411.8,66.2c-9,4.1-12.6,9.1-13.5,19.5c-13,136.1-26.8,272.1-40.3,408.2
			c-2.7,27.5-2.8,27.2-29.9,25.5c-101.6-6.7-203.2-12.7-304.7-19.6c-14.4-1-21,3-25.7,17.4c-35,106.9-45,216-31,327.4
			c5.3,42,14.1,83.3,27.5,123.9c33.8-17.1,61.5-9.9,72.5,17.5c4.8,12,4.4,23.9-1.2,35.3c-8.6,17.6-24.3,25.2-44.3,26.3
			c19,48,40.8,91.8,66.8,133.7c6.5,10.5,13.4,14.3,26,13.2c51.1-4.4,102.5-4.6,153.7-1.7c73,4.1,145.1,13.1,211.2,48
			c6.8,3.6,12.4,3.1,18.9-0.1c29.6-14.1,55.5-32.5,75.8-59c31.4-41,40.8-88.6,43.6-138.4c2.2-39.9-4.8-79.3-7.5-118.9
			c-0.6-8.2-4.8-18.5,3.4-24.4c12.9-9.4,43,3.9,45.7,19.8c2.9,17.1,5.7,34.3,6.6,51.6c5.3,99.6,58.4,166.2,143.8,211.2
			c8.6,4.5,15.6,4.4,24.5,0.7c104.1-43.3,200.1-99.7,285.1-174.2c27.5-24.2,53.5-49.9,78.1-78.8c-32.8-13.7-49.8-36.6-48.6-69.6
			c1-27.8,15.7-48.6,42.1-59.1C2575.2,1170,2601.5,1180,2625.4,1205.5z M1393,1578.9c-3.4-5.8-5.8-9.7-8-13.8
			c-65.2-115.3-108-238.3-117.9-370.7c-18-241.4,58.7-450.4,230.8-619.7C1690,385.6,1922,301.6,2192.5,333.4
			c164.9,19.4,304.6,88,410.6,217.4c156,190.2,206.7,482.4,37,725.1c-72.8,104.1-165.1,186.3-272.8,252.1
			c-135.7,83-283.3,134-439.5,161.1c-13.2,2.3-16.2,4.9-9,17c7.6,12.7,13.1,26.8,15.2,41.6c2.3,16.2,8.2,17.8,23.4,12.5
			c172-60,345.3-116.4,519.7-169.2c63.2-19.1,126.4-39.1,193.1-41.5c17.4-0.6,25.5-6.5,32.3-22.1c90.6-208.4,148.4-424.5,152.2-653
			c2.4-146-16.2-289.1-62.4-428.1c-43.2-129.9-117.4-233-249.4-285.1c-74.3-29.3-152.3-41-231.6-41.2
			c-139.3-0.4-277.3,14.5-413.3,44.4c-290.9,63.9-508,225.3-639.1,495.1c-79,162.6-110.5,338-116.3,516.7
			c-5.2,158.6,59.9,291.8,173.2,401.8c5.3,5.1,10.2,10.9,19,9.2C1353.4,1583.7,1372.6,1585.3,1393,1578.9z M170.8,1422.5
			c4.2,159,71.7,308.1,200,430.4c8.8,8.4,14.2,9.9,24.7,1.6c83.9-66.2,177.6-114.2,278.7-148.3c124.3-42,252.2-67.6,382-84.6
			c11.7-1.5,21.7-5.3,26.7-15.1c36-72.2,52.9-147.8,38.7-228.7c-6.8-38.4-19.9-75.6-23.4-114.6c-2.9-31.5-0.1-64.3-7.9-94.5
			c-32.8-126.8-104.9-220.2-234.4-260.6c-100.3-31.3-200.6-25.8-300.9,1.4C321.1,972.9,170.7,1166.4,170.8,1422.5z M1047.7,2897.5
			c29.1,0,50.7-0.7,72.3,0.2c13.8,0.6,23.9-3.9,34.2-13.2c44.8-40.3,85.3-84.4,119.7-133.9c57-82,98.8-170.1,102.9-272
			c3.8-93.9-29.9-169.7-110.7-221.8c-44.6-28.8-94.3-46.7-145-58.7c-75.8-17.9-153-28.5-231.4-28c-89.5,0.6-177.7,8.5-261.7,42.3
			c-136.8,55.1-213,156.3-224.8,303.3c-10.3,128.7,33.4,242.3,104.8,346.9c4.6,6.7,10.8,9.8,18.1,11.7c33.3,8.6,67,14.8,101.3,18
			c100.8,9.4,202,1.8,302.9,7.7C971.9,2902.5,1013.5,2894.6,1047.7,2897.5z M537.7,191.2c-119,2.7-221.8,53.8-303.5,145.3
			C117.8,466.9,119,619.4,233.7,750.4c6.1,6.9,10.4,14.2,22.9,8.6c119-52.9,243.9-88.5,368.4-125.4c15.5-4.6,19.4-11.3,18.6-26.6
			c-3.1-59.9-27.7-109-71.8-148.6c-31.2-28-72.4-31.2-108.7-10.2c-29.2,16.9-48.7,41.9-62.9,71.8c-13.5,28.2-20.1,58.5-27.2,88.6
			c-1.1,4.6,1,13.3-6.7,12.4c-13.9-1.6-29.2-2.5-40.7-9.1c-7.8-4.5,0.2-17.5,2.1-26.3c13-59.3,32.4-115.5,79.5-157.8
			c69.5-62.4,158.8-55.7,219.3,15.1c38.6,45,62.4,95.5,65.7,155.1c0.5,8.7-0.3,18.4,14.2,14.7c42.5-10.9,85.9-16.8,129.4-22.2
			c8.8-1.1,12.5-4.3,14.1-13.3c15.6-87.8,8.7-172.6-40.1-249.2C748.1,231.1,654.4,193.6,537.7,191.2z M1101.4,158.7
			c-88.7,4.2-166.8,52.6-221.3,141.2c-9.8,16-14.2,30.4-3.4,48.3c6.8,11.2,9.8,24.9,13.5,37.8c17.1,60.5,20.5,122,11.7,184.2
			c-1.1,7.8-4.3,15.6,9.8,15.3c99.8-2.4,186.9,33.8,266.8,90.2c14,9.9,17,4.1,22-7.6c31.4-74.2,69.1-145.5,123-205.4
			c29.8-33.1,32.3-65.3,23.9-104.9C1322.5,241.6,1228.1,159,1101.4,158.7z M1101.3,1055c1.6-8.1,2.3-10.5,2.6-13.1
			c13.7-100.3,32.2-199.5,65.5-295.3c4.7-13.4-1.4-17.8-9.8-24.2c-104.5-79.7-221.2-100.9-349.6-79.3
			c-107.4,18.1-211.3,47.8-314.3,81.7c-79.3,26.1-159.7,49.2-234.7,86.7c-26,13-50.9,27.6-71.5,48.7c-24.8,25.5-32.2,55.5-22.4,89.4
			c11.6,40.3,39.2,70.1,67,99.6c7.2,7.7,9.9,1.1,13.7-3.2c116.7-131.9,265.2-197.8,439-207.8c107.6-6.2,209.4,15.4,298.8,79.6
			C1034,952.8,1071,997.7,1101.3,1055z M2405.2,450.4c-2,6.3-4,11.2-5.1,16.3c-21.1,96.5-41.8,193.1-63.6,289.5
			c-4.2,18.4,0.3,22.7,18.7,22.9c99.1,1.3,198.1,3.4,297.2,6.4c19.2,0.6,19-5.2,13.9-20.2c-34.3-99.7-89.6-185.1-170.5-253.3
			C2468,488.6,2439,467,2405.2,450.4z M1699.3,485c-8.1-0.5-12.6,4-17.6,7c-29.5,17.6-57.6,37.4-84.4,59
			c-89.9,72.5-161.8,159.6-212.3,263.9c-3.6,7.4-12.7,16.5,6.8,17.5c82,4.4,164,10.1,246,15.2c25.9,1.6,25.7,1.4,28.3-24.9
			c6.5-66.3,13.3-132.6,19.8-198.9C1690.6,577.7,1694.9,531.6,1699.3,485z M2417.9,1991.6c3.9,0.9,5.8,1.8,7.5,1.7
			c69.7-5.5,139.9-5.7,209.2-16.2c102.6-15.6,157.6-71.8,171.4-174.2c1.4-10.5,1.5-15.4-11.7-15.8c-103.6-3.1-196.6,26-278,90.3
			C2476.6,1908.8,2443.9,1946.6,2417.9,1991.6z M1594,1656.5c-0.6,16.6,2.5,34.6,5.8,52.4c4.6,25.2,11.9,49.7,21.9,73.3
			c24,56.8,59.6,74.7,119.3,59.3c50.9-13.1,92.9-41.6,132.1-75.4c11-9.5,10.9-17.6,5.7-29.4c-18.5-42.8-53.7-66.1-94.9-82.5
			c-50.7-20.2-104.1-26.6-157.9-30.9c-32-2.5-32-3-32.1,29.3C1594,1653.4,1594,1654.1,1594,1656.5z M2798.7,2126.2
			c-0.5-10.2-1.2-19.6-1.4-29c-0.1-7-3.2-11.1-9.7-13.4c-65.1-23-127.1-17.7-180.5,27.4c-53.5,45.2-66.8,104.8-51.2,172.1
			c2.4,10.6,7.4,14,18,14c31-0.2,61.8-2.4,92.4-7.5c71.1-11.8,112.4-51.3,126.9-122.3C2796,2153.6,2797,2139.5,2798.7,2126.2z
			 M2679,2679.2c1.1-10.1-4.2-16.6-12-21.7c-26.5-17.5-52.9-26.8-86.5-16.7c-101.5,30.7-174.1,90.6-206.8,193.8
			c-4.4,13.9-14.8,33.2-7.3,41.5c8.2,9.1,26.9-3.3,41.1-5.6c3.3-0.5,6.5-1.8,9.7-2.6c99.1-26.8,181.4-79.8,247.3-158.5
			C2671.9,2700.6,2678.4,2691.2,2679,2679.2z M2728.3,2468c8-22.6-9.1-35.3-31.3-44.7c-9.3-3.9-18.6-7.8-28.3-10.6
			c-95.5-27.5-177,40.1-162.4,133.9c2.3,14.9,7.4,20.9,23.6,22.6c56.3,6,112.5,13.9,162.1,44.4c10.6,6.5,10.8-0.7,12.6-7.1
			C2717.4,2563.1,2724.6,2518.7,2728.3,2468z M1926.5,1636.6c63-8.2,123.3-23.5,186-44.9c-41.5-25.8-74.6-55.4-100.7-97.5
			C1996.6,1553.3,1969.2,1599.2,1926.5,1636.6z M1135.7,1610.1c42.6-5.2,82.7-10.2,126.7-15.6c-34.5-36.5-62.7-72-88.2-114.2
			C1168.2,1527.1,1155.2,1567.2,1135.7,1610.1z"/>
		<path class="st0" d="M2273.1,1347.6c-37.5-0.5-68.2-32.1-67-69.1c1.2-37.7,32.3-66.9,70.2-66c36.4,0.9,66.7,32.1,66.3,68.1
			C2342.1,1317.7,2310.6,1348.1,2273.1,1347.6z"/>
		<path class="st0" d="M1905.6,1055.2c0,37.3-31.5,68.6-68.5,68.1c-37.2-0.5-68-32-67.4-69.1c0.6-36.6,30.9-66.7,67.4-67.1
			C1874.3,986.8,1905.6,1018,1905.6,1055.2z"/>
		<path class="st0" d="M1662.5,1371.8c-37.8,0-68.6-30.7-68.4-68c0.3-37.1,31.6-67.5,69.2-67.1c36.9,0.4,66.7,30.1,67.2,67
			C1731,1340.9,1700.1,1371.8,1662.5,1371.8z"/>
		<path class="st0" d="M1574.8,1370.8c0.2,38.1-29.9,68.6-67.4,68.4c-37.5-0.1-67.7-30.8-67.5-68.5c0.2-37,29.5-66.7,66.5-67.4
			C1543.9,1302.6,1574.6,1333,1574.8,1370.8z"/>
		<path class="st0" d="M1838.3,1213.1c0,37.8-30.7,68.6-68,68.2c-37.4-0.4-67.6-31.4-67.2-69c0.4-36.8,30.1-66.7,67-67.2
			C1807.4,1144.7,1838.3,1175.5,1838.3,1213.1z"/>
		<path class="st0" d="M2241.6,1145.4c0.5,38-29.2,68.2-67.2,68.4c-38.1,0.2-68.2-29.5-68.1-67.5c0-37.3,29.2-66.9,66.2-67.4
			C2210.7,1078.5,2241.2,1107.8,2241.6,1145.4z"/>
		<path class="st0" d="M2421.6,1346.5c-39.3,0-67.7-28.1-67.4-66.9c0.2-37.4,29.2-66.7,66.4-67c38.3-0.4,68.3,28.9,68.5,67
			C2489.3,1318.1,2460.7,1346.4,2421.6,1346.5z"/>
		<path class="st0" d="M2151.7,921.1c38.3,0.1,67.4,30,66.8,68.4c-0.5,37.8-29,65.7-67.1,65.6c-39.1-0.1-68-28.5-68-66.9
			C2083.5,950.2,2113.3,920.9,2151.7,921.1z"/>
		<path class="st0" d="M718.1,1500.4c-82.5-0.3-144.9-62.2-145-143.7c0-82.8,64.1-145.2,148.8-144.8
			c77.7,0.4,141.1,65.3,141.2,144.5C863.2,1437.6,799.6,1500.7,718.1,1500.4z M717.7,1451.4c54.2,0,94.9-40,95.1-93.6
			c0.2-54.7-40.9-96.6-94.6-96.6c-53.9,0-95.8,42.1-95.6,96.1C622.8,1410.2,664.4,1451.4,717.7,1451.4z"/>
		<path class="st0" d="M727.8,2540.3c-0.1-111.4,91-202.7,201.8-202.3c111.2,0.4,202.3,91.9,201.7,202.6
			c-0.6,110.5-90.7,200.7-201,201.2C819.3,2742.5,727.9,2651.5,727.8,2540.3z M1081.1,2539.1c-0.6-84.4-68.4-151.6-152.1-150.7
			c-84.5,0.9-151.8,68-151.9,151.5c-0.1,84,69.8,153.2,153.7,152C1015.4,2690.7,1081.7,2623.2,1081.1,2539.1z"/>
		<path class="st0" d="M245.6,955.3c120.4-102.7,253.8-177.2,410.6-202.7c106.9-17.4,214.5-18,321.9-1.8c1.3,0.2,2.7,0.2,4,0.3
			c28.4,2.4,36.5,17.8,24.3,44.7c-3.5,7.8-8.9,4.2-13.5,3.8c-52.9-4.7-105.9-9.6-159.1-9.8c-102.4-0.4-203.3,8.5-299.6,46.8
			c-87.7,34.9-168.5,81.6-240.1,143.3c-13,11.2-20.2,11.4-29.3-2.7C259.7,969.4,252.5,963.1,245.6,955.3z"/>
	</g>
</g>
</svg>
