<?xml version="1.0" encoding="utf-8"?>
<!-- Generator: Adobe Illustrator 23.0.0, SVG Export Plug-In . SVG Version: 6.00 Build 0)  -->
<svg version="1.0" xmlns="http://www.w3.org/2000/svg" xmlns:xlink="http://www.w3.org/1999/xlink" x="0px" y="0px"
	 viewBox="0 0 3000 3000" style="enable-background:new 0 0 3000 3000;" xml:space="preserve">
<style type="text/css">
	.st0{stroke:#000000;stroke-width:10;stroke-miterlimit:10;}
</style>
<g id="Layer_1">
</g>
<g id="Layer_2">
	<g>
		<path class="st0" d="M1713.7,2846.9c-24.6,67.2-76.3,84.8-137.9,79.7c-80-6.6-160.7-14.4-231-58.3c-19.4-12.1-29.9-11.8-48,2.4
			c-84.6,66.2-183.3,82.5-287.6,75.5c-34.9-2.4-69.5-8-103.5-16.6c-54.3-13.6-106.2-32.6-151.1-67.2c-12.9-10-22.3-10.1-36.8,0.7
			c-70.1,52.4-148.6,81.4-236.9,66.4c-139.5-23.7-208.7-142.3-170.6-281.3c25-91.1,59.5-176.6,121.4-249.2
			c5.5-6.4,5.6-10.7-0.5-17.2c-60.7-63.8-77.3-141.5-70.2-226.3c9.6-114.2,55-215.8,112.8-312.6c7.6-12.7,7.9-20.1-1.5-31.9
			c-58.4-73.1-85.9-158.4-94.9-250.3c-11.6-117.2-5.4-233,31.7-345.8c42.1-127.9,126.5-221.1,240.1-290
			c11.7-7.1,23.1-14.4,35.8-22.3c-34-22.4-57.3-51-63.1-91c-2-13.4-9.8-7.6-16.5-6.6c-70.3,10.5-130.6-25.4-149.6-89.6
			c-12.8-43.2-5-83,22.6-118.3c7.3-9.4,6.8-12.7-3.2-19.4c-43.9-29.1-64.2-70.7-58.8-123.1c5.2-50.8,33.1-86.3,79.9-106
			c10.8-4.6,12.1-8.2,8.3-19.2c-18.2-52.8-9-101,31.8-139.8c41.5-39.5,90.8-45.4,143.1-24c11.4,4.7,14.3,2,19.2-7.8
			c23.9-47.8,62.9-73.7,116.6-73.9c53.7-0.2,93,25.1,117.2,72.9c5.5,10.9,8.9,12.4,18.8,4.7c47.6-37.1,127.6-33.4,170.3,15.2
			c9.1,10.4,17.2,7.2,27.3,3.6c112.5-40.1,226.9-73.7,345-93.2c177-29.2,354.5-37.5,533.1-16.2c90.5,10.8,181.6,18.8,269.8,43
			c72.6,19.9,141.8,47.7,198,100.5c86.5,81.4,118,183.9,113.8,299.6c-4.6,126.9-49.5,240.9-114.8,347.6c-12,19.6-12.7,29.9,5.1,46.9
			c61.5,58.8,105.6,129.1,130.8,211c11.9,38.9,12.4,78.6,12.1,118.2c-0.9,115.3-2.7,230.7-18,345.2c-7.8,58.4-15.8,117.4-46.8,169.3
			c-25.8,43.1-62,76.9-103.7,104.3c-12.6,8.3-12.2,13.4-4.1,24.7c56.3,77.9,91.3,163.9,95.2,260.8c3.1,77.5-9.9,151.7-50.8,219.1
			c-4.2,6.9-7,12.6-2.9,20.7c33.8,67,37.8,138.1,27.1,210.8c-8.2,55.6-15.2,111.4-26.2,166.4c-20.4,102.6-106.2,165.5-217.3,160.8
			c-73.9-3.1-140.9-27.4-200.9-70.3c-11.8-8.4-16.9-8.6-26.9,3.8c-43.6,53.9-104.2,70.2-170.3,70.5
			C1825.5,2924.6,1767,2895.4,1713.7,2846.9z M1834,1985.1c-6.9-0.5-9.6-0.9-12.2-0.9c-159.3-3.1-318.6-0.7-477.5,9.7
			c-193.4,12.6-385.5,2.9-576.2-31c-73.1-13-145-30.3-209-71c-13.4-8.5-26.2-29-39.4-23.6c-12.1,4.9-18.1,26-25.7,40.5
			c-43.9,83.8-80.6,170.1-83.7,266.4c-2.4,73.7,15.5,140.5,76.7,188.6c31.1,24.4,67.3,39.9,104.3,52.4
			c148,50.2,300.9,72.6,456.6,78.4c135.4,5.1,270.2-6.8,405-17.6c238.8-19,478.5-22.3,717.4-40.1c71.9-5.4,143.4-13.1,212-37.5
			c56.7-20.2,94.8-57.9,112.8-116.1c43.5-140.7,11-266.4-73.4-382.3c-5.3-7.2-9.8-6.9-17.1-3.3c-20.9,10.2-42.1,20.1-63.6,29.1
			c-127,53.1-261,61.1-396,58.8c-31.3-0.5-55.7,2.8-72.1,32.1c-5.6,10-14.7,18.1-22.8,26.4c-7.6,7.7-9.1,12.3,3.1,16.9
			c28.2,10.8,52.9,27.9,77,45.8c44.1,32.8,48.7,82.5,10.8,122.4c-16.1,17-34.4,31.5-54.4,43.7c-33,20.2-67.1,22.1-101.8,4.6
			c-35.3-17.7-67.5-40.6-94.4-68.8c-17.7-18.5-31.1-17.3-50.3-5.7c-9.7,5.9-11.3,10.9-8.4,20.9c5.6,19.1,10.6,38.3,14.8,57.8
			c10.8,50.3-12.6,82.8-63.6,90c-47.2,6.7-94.6,4.7-141.9,3.1c-31.6-1.1-49.9-21-52-52.8c-0.6-8.9,0.6-17.8,0.2-26.7
			c-0.3-8.5,4.6-19.7-12.5-19.1c-15.4,0.5-13,9.3-13.1,19.2c-0.2,58.6-29.7,98-81.5,107.9c-27.7,5.3-55.7,7.1-84,5.3
			c-48.3-3.2-85.4-33.4-98.1-80.1c-6.3-23-6.3-46.5-2.4-69.4c2.1-12.4-2.4-15.4-12-18.6c-16.9-5.6-33.3-12.5-50.2-18.1
			c-13.5-4.5-19.9-10.7-10.3-24.6c2.7-3.9,4.4-8.6,5.7-13.2c4-13.6,10-14.3,23.5-9.1c197.8,76.4,392.6,73.4,582.2-26.9
			C1712,2108.4,1776.8,2054.1,1834,1985.1z M1214.8,748.2c48.1-4,93.7-9,139.6-11.5c238.5-13.2,477-21.7,715.8-5.8
			c128.9,8.6,253.9,29.1,357.5,115.7c10.2,8.5,14.5,3.7,20-5.3c43.8-71.2,77.3-146.7,96.9-228.1c6.1-25.4,5.9-25.5-19.5-25.2
			c-274.5,3.5-549.1,7-823.6,10.8c-14.7,0.2-24.1-1.3-21.3-19.3c2.2-14.1-8.4-32.4,21.1-32.5c154.4-0.5,308.8-3,463.3-4.8
			c124.9-1.4,249.8-3.1,374.7-4c14.3-0.1,19.6-4.2,18.8-18.6c-1-17.8-0.7-35.7-0.2-53.5c0.5-18.6-4-27.1-26.5-27
			c-265,1-529.9,0.7-794.9,0.5c-33.7,0-29.6,5.9-30.1-31c0-0.7,0.1-1.4,0-2.1c-2-13.6,3.9-17.5,17.3-17.2
			c39.1,0.8,78.2,0.3,117.4,0.3c227.9,0,455.8-0.2,683.7,0.3c16.8,0,19.8-3.5,13.8-19.2c-11.1-29-25-56.3-43.5-81.3
			c-46.3-62.6-111.9-95.6-183.8-118c-116.7-36.5-238.1-46.4-358.9-56.7c-181.8-15.5-361.8,1-539.8,40c-82.5,18-163,43.1-242.4,71.6
			c-6.3,2.3-18.9,1.1-15.7,14.3c7.2,29.8-0.2,58-10.6,85.5c14.2,2.9,27.3,4.3,39.5,8.4c48.4,16.1,78.9,49.7,87.7,99.7
			c8.9,50.4-7.2,93.3-47.4,126.4c-5.3,4.4-19.1,5.4-8.6,19.1C1256.9,634.3,1253.6,689.8,1214.8,748.2z M424.1,1425.2
			c2.9,0.3,3.8,0.7,4.1,0.4c20.5-18.3,40.5-37,61.3-54.9c253-216.8,543.1-343.1,878.2-358.1c174.9-7.8,350-7.4,525-4
			c63.8,1.2,127.4,7.5,189.8,22c180.4,41.7,331.5,134.5,460.8,265c14.3,14.4,27.9,29.5,45.8,48.6c1.5-60.1,3.9-114.6-0.4-169.2
			c-0.9-11.5-2.7-23.4-6.4-34.3c-58-170.8-175-283-346.4-333.9c-109.8-32.6-225.2-31.9-339-33.1c-247.1-2.5-494,4-739.9,32
			c-158,18-306.3,65.4-445.8,141c-135.9,73.6-232.9,178.7-268.9,333.2C431.1,1327.9,426.6,1376.4,424.1,1425.2z M1566,1057.2
			c-93.9,2.7-187.9,3.2-281.6,12.5c-11.9,1.2-20,2.1-19.9,18.4c0.5,159.2-2.1,318.2-12,477.2c-7.5,120.4-17.5,240.6-32.1,360.3
			c-2,16.1-0.9,23,18.6,22.3c135.7-4.9,271.1-14.9,407-14.9c11.7,0,15.3-5.2,17-15.2c12.4-71.6,26.4-142.9,37.3-214.7
			c31.6-208.8,57.9-418.3,73.2-629.1c1.1-14.7-2.9-17.1-16-17C1693.6,1057.5,1629.8,1057.2,1566,1057.2z M1746.8,1732.1
			c-11.4,64.2-22.1,125.5-33.2,186.8c-2.2,11.9,3.5,13.9,13.5,13.9c138.6-0.2,277.3,10.3,415.6-6.6c114.5-14,219.8-52.5,313.9-119.4
			c53.7-38.2,91.1-87.8,104.1-154.6c14.3-73,20.6-146.6,25.6-220.6c0.7-10.3-4.6-16.7-10.2-23.6c-57.2-70-121.7-132.1-194.6-185.7
			c-161.8-118.9-344.6-167.5-543-164.8c-5.6,0.1-12.9-2.5-13.7,7.5c-4,52-8.2,103.9-12.5,155.9c-0.8,9.2,3.3,10.5,11,7.8
			c5.2-1.8,10.5-3.3,15.8-4.5c93.6-22,180.6-9.7,255.2,54.4c66.1,56.8,82.9,132.4,76.7,216.1c-9.2,124.2-111.6,240.1-233.5,263.2
			C1871.8,1770.2,1809.2,1760.9,1746.8,1732.1z M1182,1810.9c-54.9,15.5-108.2,18.9-161.1,5.7c-124.3-31.2-207.2-108.4-232.5-234.4
			c-26.7-132.9,18.6-244.5,127.7-325.6c83.9-62.3,179.2-75.1,279.7-47.9c15.4,4.2,20.4,2.8,19.3-14.2c-1.3-21.2-0.1-42.5-0.1-63.8
			c0-53.9,0.1-53.7-53.8-42.5c-267.3,55.5-494.7,185.1-693.7,369.4c-33.2,30.7-53.3,60.2-39.6,105.9c3.1,10.4,2.6,21.7,4.7,32.5
			c29.7,153.7,109.9,262.1,268.6,301.2c70.1,17.3,141.3,27.2,212.7,36.2c78.4,9.8,157.1,14.9,236.1,15.4c8.9,0.1,18,1.5,19.2-12.1
			C1173.1,1895.6,1177.5,1854.7,1182,1810.9z M1334.5,2624.5c0-24.7-0.7-49.3,0.3-74c0.5-12.7-4.2-14.8-15.5-13.7
			c-29.3,2.8-58.7,5.1-88.2,6.4c-10.7,0.5-14.8,4.1-17.8,14.6c-13.6,47.8-33.3,92.9-65.9,131.1c-56.2,65.8-159.9,51.6-196.6-26.8
			c-15.7-33.5-18-68.7-8.8-104.3c3.5-13.8,1-19.9-14.2-20.7c-19.1-1-38.2-3.6-57.3-5.8c-28.1-3.4-28.2-3.5-25.5,24.5
			c7.3,77-4.1,150-43.7,217.9c-8.3,14.2-31.2,26.6-22.7,42.1c7.8,14.2,29.5,20.8,45,30.7c1.1,0.7,2.4,1.3,3.7,1.9
			c65.8,32.2,136.1,46.1,208.5,48.7c78.2,2.7,152.8-11.8,218.8-57.2c39.1-26.9,68.5-60.6,78.6-108.7
			C1340.8,2695.7,1338.5,2660.2,1334.5,2624.5z M797.1,2592.4c-0.4-6.2-0.7-12.3-1.1-18.5c-3.3-53-3.4-52.6-54.8-64.9
			c-15.7-3.8-25.9-3.8-26.8,16.4c-0.4,10.8-3.7,21.5-6.2,32.2c-13.2,57.5-39,87-85.2,92.9c-51.2,6.6-95.1-9.6-128.2-49.8
			c-37-44.9-34.9-104.4,3.4-151.1c3.3-4,12.2-6.5,7-14.6c-7.9-12.3-27-13-36.5-1.6c-65.9,78.4-100.9,170.6-117.1,270.1
			c-8.9,55,8.5,103.2,53.2,139.1c43.2,34.7,93.5,45.4,147.1,38.2C697.5,2861.2,800.9,2738.8,797.1,2592.4z M2492.2,2525.4
			c1.2-31.3-4.5-61.4-14.8-90.8c-8.3-23.5-8.3-23.4-30.3-10.3c-7.1,4.2-14,9.4-21.8,11.4c-18.2,4.7-22,15.2-19.8,33
			c5.2,41.8-4,80.6-31.8,113.4c-52.5,61.9-133.6,52.4-170.6-19.7c-9.2-17.9-14.5-36.8-17.8-56.6c-1.5-9,0.9-23.6-16.2-18.1
			c-13.1,4.2-32.9-7.6-36,20.7c-9.8,89.8-22.2,179.3-34.5,268.8c-1.3,9.6,0.1,15,7.7,20.7c62.7,47.2,132,74.5,211.6,71.7
			c69.4-2.5,122.6-43.8,141.6-110.6c4.5-15.7,7.3-32,9.5-48.3C2477.4,2649.1,2490.2,2587.9,2492.2,2525.4z M1896.5,2873.7
			c5.5,0,11,0.2,16.5,0c76.8-2.9,128.4-44.7,137.5-112.7c11.2-84.2,21.7-168.5,32.4-252.8c0.5-3.9,0.9-10.8-0.5-11.4
			c-12.5-4.8-26.2-3.6-38.2-0.2c-10.9,3.1-1.3,12.9,0.1,18.8c11.7,48.6,1.9,91.6-34.3,126.5c-36.2,35-80.3,43.7-127.7,29.4
			c-56.6-17.1-87.2-78-76-144.9c1-5.7,10.9-18.9-4.1-18.4c-13.2,0.4-34.3-11.9-38.9,12.7c-15.2,82.2-29.3,164.6-38.8,247.7
			c-0.9,7.9-0.6,14.6,5,21C1773.7,2840.4,1827.1,2872.8,1896.5,2873.7z M1581.1,2877c60.5,0.6,82.7-18.3,88.3-71.6
			c9.9-92.8,25.3-184.7,40.5-276.7c1-5.9,10.4-17.1-6.6-17.1c-10.9,0-20-0.4-18.6,16c3.3,37.1-10.1,70.2-29.2,101
			c-45,72.6-147.7,69.7-187.6-5.3c-12.5-23.4-16.6-49.7-16.1-75.7c0.4-19.1-6.8-22.2-22.5-18.6c-3.3,0.8-6.8,0.9-10.2,1.2
			c-34.9,3.9-35.7,3.9-34.1,40.1c1.9,44.6,4.9,89.1,3,133.7c-1.3,31.2-6.6,62.3-23.5,88.5c-12.8,19.8-6.8,27,10.9,36.5
			C1442.2,2864.9,1515.8,2868.9,1581.1,2877z M1013.7,512.8c-0.3-93.9-75.3-169.4-168-169.4c-96,0-171.3,75.2-170.9,170.8
			c0.4,94.2,75.9,168.4,171.2,168.1C939.1,682.1,1014.1,606.3,1013.7,512.8z M1027.3,344.5c45.2,0.1,80.5-34.9,79.9-79.1
			c-0.6-43.7-35.2-77.6-79.3-77.7c-45.1-0.1-80.4,34.9-79.9,79.2C948.5,310.7,983.1,344.5,1027.3,344.5z M1223.2,458
			c0.1-43.2-34.8-78.9-77.8-79.6c-44.4-0.7-79.5,34.1-79.6,79c-0.2,48.8,34.4,79.9,87.4,78.9C1189.3,535.5,1223.2,497.6,1223.2,458z
			 M1115.9,741.1c44.8-0.2,79-35.3,78.5-80.3c-0.5-45.6-35-76.8-85.5-77.3c-37.9-0.4-73.1,38.6-72.4,80
			C1037.2,707,1072.4,741.3,1115.9,741.1z M578.7,756.5c44.7,0.2,80.3-34.8,80.1-78.8c-0.2-43.5-34.8-78.1-78.5-78.6
			c-44.3-0.5-80.3,35-80.1,79.2C500.3,721.8,535,756.3,578.7,756.5z M894.3,213.8c0.4-44.1-33.2-78.8-76.8-79.4
			c-42.5-0.6-79.4,32.2-80.3,71.2C736,255,769,291.9,814.1,292C859.8,292,893.9,258.8,894.3,213.8z M623.6,468.3
			c-0.3-42.9-38.7-78.9-83.7-78.5c-40.7,0.4-75.1,37.4-74.6,80c0.5,43.4,35.3,77.7,78.9,77.9C588.7,547.9,623.8,512.7,623.6,468.3z
			 M626,204.5c-44.6-0.4-79.8,34.6-79.7,79.2c0.1,43,38.7,79.4,83.6,78.7c38.4-0.6,74.7-36.7,74.3-74.1
			C703.7,240.5,670.4,204.9,626,204.5z M1079.3,2545.6c0-0.3,0-0.6,0-0.9c-12.3,0-24.7,0.3-37,0c-50-1.3-56.6,5.6-54.5,57.3
			c0.2,4.1,0.1,8.3,0.9,12.3c5.9,27.9,16.5,52.4,47,61.7c26.4,8.1,51,4.7,69.8-16c26.1-28.8,41.7-63.9,54.6-100.2
			c3.9-11,0.6-14.6-10.9-14.3C1125.9,2546,1102.6,2545.6,1079.3,2545.6z M670.6,794.8c0.1,37.7,35,73.8,72.5,71.6
			c43.6-2.5,84.9-33.3,85.4-75.4c0.5-38.5-35.5-72.5-76.6-72.5C709.6,718.5,670.5,755.2,670.6,794.8z M1832.1,2240.3
			c29.2-6.4,50.2-24.9,70.2-44.6c19-18.7,18.9-30.1-1.8-47.5c-26.9-22.6-57.6-39-90.9-50.4c-6.5-2.2-11.3-2.1-16.9,2.3
			c-23.5,18.8-47.1,37.4-71.2,55.4c-7.1,5.3-6.4,8.6-0.6,14c26.8,24.5,55.2,47,87.7,63.5C1815.7,2236.8,1824.1,2238,1832.1,2240.3z
			 M602.1,2601.5c28,0.5,44.4-10.8,51.7-37.2c4.9-17.8,8.4-36,12.5-54c2.5-11.2,1.5-18.8-12.8-21.9c-22.7-5-45.7-10.7-66.7-20.2
			c-20.5-9.3-33.8-2.2-47.3,11.1c-7.9,7.9-13.3,17.3-17,27.8C506.6,2552.4,547.2,2600.5,602.1,2601.5z M1924.8,2501.8
			c0,0.1,0,0.2,0,0.3c-7.5,0.3-15,0.9-22.6,1c-40.7,0.4-46,5.3-47.8,46.4c-0.7,16.7,2.6,32.6,10.8,47.4
			c8.5,15.3,21.5,25.3,38.3,28.4c29.5,5.4,55.8-1.1,76.1-24.8c20.4-23.7,22.3-50.3,12.9-78.9c-5.3-16-14-25.8-33.1-22.2
			C1948.3,2501.5,1936.5,2501.1,1924.8,2501.8z M1220,2359.9c13.6-1.6,27.2-3.1,40.8-4.9c36.3-4.9,50.5-20.8,51.8-56.3
			c0.5-14.1-3.3-21-19.3-21.1c-44-0.3-87.6-5.8-130.3-16.4c-12.1-3-15.3,1.2-16.9,12.5C1138.1,2329.1,1163.9,2359.1,1220,2359.9z
			 M1569.1,2520.2c-21.7,3.7-50.8-6.7-63.8,9.5c-11.6,14.3-1.7,40.7,3.9,61.3c0.5,2,1.4,3.9,2.2,5.8c14.9,34.1,61.7,45.9,87.3,20.9
			c24.5-23.9,36.2-54,36.6-88.6c0.1-11.3-4.8-14-15-12.9C1603.2,2517.9,1586.1,2518.9,1569.1,2520.2z M1503.9,2325.4
			c25.4,0.7,50.8-0.1,75.9-4.1c13.7-2.2,21.3-9.1,17.7-23.9c-4.4-18.7-8.9-37.3-13.4-55.9c-1.9-7.9-4.8-11.1-14.2-7.4
			c-38.3,15.1-78.1,25.4-118.6,33.3c-5.7,1.1-10.9,1.8-11,9.3c-0.2,13-0.6,26.1-0.6,39.1c0,8.4,6,9.7,12.7,9.7
			C1469.6,2325.4,1486.7,2325.4,1503.9,2325.4z M2356.3,2484.9c-5.1-5.9,8.9-25.2-11.5-21.3c-33.5,6.5-67.1,12.7-100.9,17.6
			c-5.5,0.8-11.2,1.2-10,9.4c4,27.5,11,53.7,33.2,72.8c12.1,10.4,25.7,11.9,40.2,5.3C2342.9,2552.7,2356.1,2523.4,2356.3,2484.9z
			 M1097.9,1617.3c-21,17.3-40.9,33.8-60.9,50.4c-3.8,3.1-7.7,6.2-3.3,11.7c14.8,18.7,26.4,43.2,45.7,53.9
			c10.9,6.1,28.1-19.1,43-29.5c4.5-3.1,8.6-6.8,13-10c6.2-4.5,6.7-8.9,2.2-15.4C1124.3,1658.6,1111.6,1638.4,1097.9,1617.3z
			 M1029.2,1516.1c-10.2,7.8-20.2,15.1-29.7,22.9c-14.7,12-39.8,20.4-41.8,36.3c-2.1,16.1,20.5,30.3,31.1,46.1
			c1.1,1.7,2.7,3.1,3.8,4.8c4.5,7.4,8.8,5.8,14.5,0.9c17.7-15.2,35.7-29.9,53.6-44.8c4-3.4,9.9-6.5,5.6-13.2
			c-10.6-16.8-21.4-33.4-32.3-50C1033.1,1517.8,1031,1517.2,1029.2,1516.1z M930.7,782.2c2.6-0.1,11,0.4,18.9-1.2
			c19.7-3.9,39.2-12.3,50.1-28.1c8-11.7,4.2-29.7-6.6-42.1c-9.8-11.3-23.4-11-36-6.4c-18.6,6.7-35.9,16.6-55.2,21.5
			c-3.9,1-6.8,2.5-8.4,7.4C882.3,767.7,890.4,780.4,930.7,782.2z M1211.2,1291.2c5.8-18.7-2.5-27.2-20.3-32.5
			c-13.1-3.9-21.6-1.6-30.9,7.7c-9.7,9.6-20.5,18.3-31.6,26.3c-11.1,7.9-11.9,14.5-4.4,26.6c25.1,40.5,24.6,41,62.8,12
			C1200.2,1321.1,1217.8,1313.4,1211.2,1291.2z M860.2,1452.7c3-1.8,4.8-2.7,6.4-3.9c24.1-20.3,48-40.7,72.1-60.9
			c5.4-4.5,5-8.6,1.2-14c-8.5-12.4-16.9-24.9-24.7-37.7c-4-6.6-7.1-6.9-12.2-1.3c-24.7,27.2-43.3,58-55.1,92.8
			C843.5,1440.5,854.1,1445.2,860.2,1452.7z M1004.1,1472.9c-9.2-14.3-17-25.5-23.8-37.3c-5.2-9-10-8.9-17.3-2.4
			c-14.7,13.2-29.8,26.1-45,38.8c-27.5,23.1-27.1,22.7-5.4,50.5c7,8.9,11.3,11.1,20.8,3.3c19.5-16.1,39.9-30.9,60.1-46.1
			C996.7,1477.3,1000.3,1475.3,1004.1,1472.9z M1167.2,1488.5c-9.9-16.1-20.1-32.9-30.6-49.6c-0.6-1-4-1.7-5-1
			c-19,14.4-43.4,25.7-54.7,44.7c-7.8,13.1,15.4,30,24,45.7c2.3,4.1,5.5,13.7,10.4,10.1c19.2-14,37-29.9,55.2-45.2
			C1167.1,1492.6,1166.8,1490.8,1167.2,1488.5z M2058.7,1433.9c1.7-0.8,2.9-1.4,4.2-1.8c49.8-18.4,57.4-44.5,25.2-86.2
			c-1.7-2.2-3.2-4.5-5.1-6.3c-1.9-1.9-4.6-3.7-7.2-1.7c-15.8,11.8-37.2,20.6-45.8,36.4c-8.7,16.1,13.4,31.2,19.6,47.9
			C2051.3,1426.7,2052.7,1432.6,2058.7,1433.9z M1044.5,1440.1c3.6-2.7,6.4-4.7,9.1-6.7c13.5-10.4,26.3-21.9,40.6-30.9
			c12.9-8.1,13-14.8,5.2-27.3c-23.6-37.9-22.9-38.2-57.2-8.9c-30.6,26.2-30.7,26.2-7.4,60.9
			C1037.7,1431.5,1041,1435.5,1044.5,1440.1z M912.2,1607c-2.9,1.6-4.7,2.6-6.5,3.6c-45.8,24.6-47.4,32.9-14,73
			c3.9,4.7,8.5,9,12.4,13.7c5.3,6.5,9.6,6.8,16.9,1.4c40.6-30.1,40.8-29.9,10.3-69.1c-4.2-5.4-8.2-11-12.6-16.3
			C916.8,1610.9,914.3,1609,912.2,1607z M1047.4,1287.8c-1.1-17.6-22.8-31.3-42.3-23.3c-10,4.1-20,8.6-29.6,13.6
			c-28.1,14.6-28,14.7-11.2,40.3c4.1,6.3,8.4,12.4,12,19c5,9.1,9.8,11.2,18.5,3.1c14.5-13.4,30.1-25.6,45-38.5
			C1043.2,1299,1048.4,1297,1047.4,1287.8z M2066.3,1559.8c-3.9-7.2-8.1-15.1-12.4-22.8c-15.8-28.4-15.8-28.4-43.9-10.8
			c-37.2,23.3-37,23.2-16,61.6c4.1,7.5,7.3,9.9,15.5,5.5c16.3-8.7,33.1-16.3,49.7-24.5C2062.6,1567.1,2067.4,1566.3,2066.3,1559.8z
			 M1199.7,1591.5c0.2,0,0.3,0,0.5,0c0.7-13.6,2.5-27.3,1.9-40.8c-0.4-9.5-5.1-16.2-15.7-7.2c-13.5,11.5-26.8,23.2-40.8,34.1
			c-6.9,5.4-7.3,9.7-2.5,16.7c10.8,15.7,20.8,32,31.6,47.6c3,4.4,3.7,13.4,12.1,10.7c6.9-2.3,10-8.9,10.4-16.3
			C1198.1,1621.5,1198.9,1606.5,1199.7,1591.5z M1983,1407.5c-11.9,8.8-23.8,16.8-34.8,25.9c-6.3,5.2-19.2,7.9-15.5,18.8
			c5.5,16,13.9,31.1,21.9,46.1c1.4,2.6,6-0.9,8.9-2.4c52-26,53-29.2,25.4-78.8C1987.3,1414.1,1985.4,1411.3,1983,1407.5z
			 M1957.1,1359c-3.3-6.2-6.8-12.8-10.3-19.3c-19.2-35.8-18.8-35.4-50.3-8.6c-10.8,9.2-14,16.3-7.1,30.3
			c19,38.3,18.2,38.7,53.4,12.3C1948.2,1369.8,1955,1367.1,1957.1,1359z M1853.4,1566.9c18-11.9,36.9-24.2,55.5-36.8
			c2.7-1.9,0.1-4.8-0.6-7.3c-11.1-43.2-18.4-45.9-52.9-19.8c-4.9,3.7-10,7.2-14.7,11.1c-7.5,6.2-1.2,49.1,7.7,52.8
			C1849.5,1567.3,1851,1566.9,1853.4,1566.9z M1951.6,1615.7c-5-10.7-10.6-21.7-15.4-32.9c-3.1-7.2-7.2-4.5-11.3-1.9
			c-17.9,11.4-36.7,21.7-53.2,34.8c-14.2,11.3,0.3,23.8,3.8,34.7c3.3,10.4,11.7,1.6,16.9-0.8c16.8-7.5,33.3-15.9,49.8-24.1
			C1946.2,1623.6,1951.7,1622.7,1951.6,1615.7z M1814.7,1468.6c55-35.5,55.3-36.1,33.5-77.2c-0.3-0.6-0.7-1.2-0.9-1.8
			c-2.7-7.1-5.6-9.1-13.2-3.8c-36.9,25.5-38.7,30.3-23.6,72.6C1811.6,1461.5,1813,1464.5,1814.7,1468.6z M1037.1,1767.3
			c-15.8-20.7-28.7-37.3-41.2-54.1c-3.6-4.8-6.7-6-11.5-1.7c-7.2,6.3-14.6,12.3-22,18.3c-5.6,4.5-6.7,8,0.8,11.8
			C984.9,1752.8,1006.9,1763.3,1037.1,1767.3z M1967.5,1270.7c6.2,11.8,10.5,20.3,15.1,28.6c19.1,34.4,18.9,34.2,48.4,8.8
			c7.4-6.4,7.7-10-1-14.5C2011.3,1283.9,1992.3,1275.2,1967.5,1270.7z M852.8,1530.2c-10.6-0.1-20,17-17.9,29.9
			c5.9,36.6,6,36.8,33.6,15c4.4-3.5,15.5-5.4,9.1-14.5C869.8,1549.7,863,1537.8,852.8,1530.2z M1894,1705.3c0.7,2.1,1.4,4.2,2.2,6.2
			c28.7,0.3,55.4-8.3,81.7-19.3c8.4-3.5,5.1-9,2.4-13c-2.7-4.2-1.9-14.5-11.6-10C1943.7,1681,1918.9,1693.3,1894,1705.3z
			 M2120.6,1457.7c-41.3,18.7-41.4,18.8-21.5,55.7c3.4,6.4,5,14.2,12.8,18.6C2119.8,1508.1,2122.8,1484.1,2120.6,1457.7z
			 M1762.7,1621.4c40-15.4,43.2-20.4,31.7-51.2c-1.8-4.9-0.3-14.8-9.2-13.3c-6.3,1.1-12.7,5.7-14.1,13.4
			C1768.2,1587,1765.6,1603.7,1762.7,1621.4z M1767.1,1682.7c17.7,17.1,33.2,12,50.5,4.1c18.4-8.4,10.2-20.1,5.5-29.8
			c-7.1-15-14.4-0.2-20.1,2.7C1790.6,1666,1779.4,1674.6,1767.1,1682.7z M1204.1,1451.2c1.3-0.4,2.7-0.7,4-1.1c0-22.7,0-45.5,0-70.9
			c-9.4,7.1-17.9,13.6-26.5,20c-4.8,3.6-4.9,7.7-1.9,12.5C1187.9,1424.8,1196,1438,1204.1,1451.2z M1120.7,1770.3
			c21.9,0.3,36.4-6,51.6-9.4c16.6-3.7,12.2-11.2,5.6-21c-5-7.4-9.2-7.9-15.9-2.4C1150.1,1747.5,1137.7,1756.9,1120.7,1770.3z
			 M1891.7,1267.9c-16.5-1.4-29.5-0.2-39.1,7.2c-3.8,2.9,3.7,12.8,8.4,20.3C1870.7,1286.7,1879.9,1278.4,1891.7,1267.9z
			 M2063,1631.8c-1.7-2-3.5-3.9-5.2-5.9c-10,4.9-20,10-30.2,14.6c-7.1,3.3-5.7,7.7-2.8,13.1c4.9,8.9,8.5,2,12.2-0.9
			C2045.9,1645.9,2054.4,1638.8,2063,1631.8z M1804.7,1303.4c-4.5,14-5.1,27.3-4.5,42.3C1823.3,1330.5,1823.3,1330.5,1804.7,1303.4z
			"/>
		<path class="st0" d="M843.5,389.9c68.2-0.3,123.4,53.8,124.3,121.8c0.9,68.1-55.5,125-123.7,124.9c-67.6-0.1-123-55.5-123.3-123.2
			C720.5,445.6,775.6,390.2,843.5,389.9z M843.3,585.9c39.7,0.7,73.8-32.6,74.2-72.5c0.3-39-31.8-72.2-71.1-73.6
			c-39.6-1.4-73.9,31.3-75.1,71.6C770,550.9,803.2,585.2,843.3,585.9z"/>
	</g>
</g>
</svg>
