<?xml version="1.0" encoding="utf-8"?>
<!-- Generator: Adobe Illustrator 23.0.0, SVG Export Plug-In . SVG Version: 6.00 Build 0)  -->
<svg version="1.0" xmlns="http://www.w3.org/2000/svg" xmlns:xlink="http://www.w3.org/1999/xlink" x="0px" y="0px"
	 viewBox="0 0 3000 3000" style="enable-background:new 0 0 3000 3000;" xml:space="preserve">
<style type="text/css">
	.st0{stroke:#000000;stroke-width:10;stroke-miterlimit:10;}
</style>
<g id="Layer_1">
</g>
<g id="Layer_2">
	<g>
		<path class="st0" d="M1972.6,2708.1c-16.7,32-36.2,62.5-59.4,90.5c-105.6,127.9-295,187.4-446.4,140.3
			c-31-9.6-58.3-25.5-84.2-44.6c-69.8-51.7-148-61.7-231-44.3c-30.5,6.4-57.6,21.4-79.9,43.3c-62.8,61.4-134,81.6-217.1,45.9
			c-9.6-4.1-15.8,1-23.1,4.6c-111.7,55.1-224.6,60.9-333.2-3.5c-119.1-70.6-164-182.4-152-316.5c18.2-201.8,182.2-306.8,347.2-314.9
			c51-2.5,100.8,4.5,149.2,20.4c14,4.6,16.6,0.8,15.2-12.2c-2-18.5-2.1-37.1,0.8-55.5c6.9-43.9,31.2-74.7,72-92.1
			c-9.3-16.6-18.1-8.2-27.8-1.2c-95.1,68.3-199.6,93.1-314,64.1c-117-29.7-196.8-123.6-210.6-243.8
			c-14.6-127.4,24.6-235.6,116.6-324.6c9.6-9.2,7.5-13.6,0.5-22.5c-85.4-107.4-92.2-252.2-17.1-358.5c15.9-22.6,34.7-42.6,56.3-59.9
			c6.1-4.9,11.2-8.3,0.8-14.9C416.9,1133.9,356.5,1020,324,889.1c-43.9-177.3-35.2-352.4,31.6-523.3
			c20.4-52.1,48.3-100.1,85.1-142.5c83.4-96.2,190.1-131.9,314.5-119.1c116.7,12,222.1,56.7,321.7,116.3
			c16.5,9.8,25.3,11.8,40.3-4.4c111.4-119.9,253.2-160.5,411.9-150.4c147.2,9.4,279.7,61.7,400.5,144.9c12.8,8.8,16.2,8.2,22.3-7
			c25.4-62.4,78-87.4,140.5-93.7c110.1-11.1,209.4,23.4,302.1,78.8c130.6,78,202.5,196.8,232.4,343.3c36.3,178.1-6,340.8-98.2,493.4
			c-29.1,48.2-61.8,94-100.4,135.2c-9.8,10.5-6.9,14,4,20c68.3,37.6,126.7,86.8,168.4,153.3c66.6,106.1,59.3,211.8-5.9,315.8
			c-21.6,34.4-48.2,64.7-79.2,90.6c-12.2,10.2-10.3,15.7-0.6,26.2c72.1,77.8,112.9,168.7,107.4,276.2
			c-3.1,59.9-10.6,119.6-25.2,178.1c-6.5,25.9-17.7,49.4-35.5,69.2c-8.2,9.1-8.7,15.5-1.9,26c37.9,58.7,62.4,122.5,73.2,191.8
			c22,141.4-43.3,257.3-176.7,308.1c-64.6,24.6-131.1,42.9-200.8,46.5c-119.7,6.1-212.9-38.2-274-143.8
			C1979.6,2715,1978.6,2710.1,1972.6,2708.1z M2593.2,646c0.9-19.2-2.9-50.2-8-81.1c-19.5-117.1-65.2-220.9-159.8-296.7
			c-93.5-74.9-199.6-118.7-321.8-112.3c-82.6,4.3-122.4,52.4-114.9,134c4.7,50.9,14.3,101.1,22.5,151.5
			c20.6,127.9,17,254.6-16.2,380.1c-25.7,97.2-66.9,187.5-121,271.9c-7.7,12-7.2,15.8,7.4,19.8c34.9,9.6,66.6,26.4,93.1,51.3
			c8.7,8.1,15.1,7.6,25,3.1c116.5-53.5,235.9-62.7,357.9-21.3c14.2,4.8,22.1,1.8,30.9-8.7c31.7-37.7,62.2-76.2,88.7-117.8
			C2547.2,909.5,2592.7,791.2,2593.2,646z M1622.8,2456.8c40.8,50.8,51.2,76.6,48.8,119.4c-2.8,51.2-27.7,82.3-75.8,92.4
			c-33.4,7-67.4,7.9-101.2,3.6c-54.8-7-103.2-29.2-127.5-80.3c-14.3-30.2-30.3-34.2-59.5-31c-206.7,22.5-348.4,130.3-428,321.6
			c-4.9,11.7-2.7,17.2,9.4,20.6c51.6,14.5,97.5,4.7,136.9-31.8c20.2-18.8,40.6-37.6,66.2-48.5c109.6-46.7,214.3-35.6,313.1,30.1
			c26.2,17.4,51.7,35.3,82.6,43.4c111.5,29.3,215.1,6.4,308.2-55.9c109.3-73.1,169.5-177.8,171-311.1c1.1-97-45.5-169.3-127.6-199.6
			c-102.6-37.8-207.9-42.3-312-7.8c-79.7,26.4-130.6,80.7-137.6,168.6c-4.8,60.8,24.9,109.2,79.6,127.6c40.5,13.7,81.8,11.7,123,2.9
			c16.7-3.6,26.6-14.3,29.8-31.1c7.2-37.4-0.8-69.9-31.2-94.6c-11.4-9.3-23.4-17.8-35.7-25.8c-11.8-7.7-19.1-18.2-17-31.8
			c2.2-13.9,13.1-22.3,26.5-24.3c77.4-11.5,150.1,0.3,210.1,53.3c54,47.8,60.6,119.8,22,189.4c-79.6,143.8-249.9,195.8-399,121.8
			c-27.9-13.8-27.4-13.5-12-41.4c5.6-10.2,10.1-11.2,20.4-6.1c22.2,11.1,45.8,18.9,69.9,25.1c131.4,34.1,236.9-37.1,285.5-134.8
			c28.2-56.8,9.5-109.5-46.3-139.2C1687.4,2466.5,1657.5,2458.8,1622.8,2456.8z M1771.6,1100.3c28.5,9.2,46,0.7,58.1-23.8
			c10.5-21.1,24.6-40.4,36-61c88.2-158.8,125.2-328.2,106.4-509.4c-7.7-74.4-25.7-147.3-31-222c-0.5-7.6-5-11.3-10.1-15.1
			c-149.4-108.9-313.6-171.3-501.2-154.9c-116.9,10.2-216.5,58.1-292.6,149.3c-91.8,110.1-132.2,239.6-136.4,380.7
			c-5.5,182,48.8,346.2,156.1,493.1c9.4,12.9,19.6,25.3,29.2,38c4.1,5.4,9.5,7.2,15,4c6.7-4,1.3-8.9-0.6-13.1
			c-2-4.7-4.5-9.2-6.7-13.8c-59.9-122.1-95.7-250.3-99-386.8c-2.7-112.4,15.8-220.4,71.3-319.8c51.3-91.8,126.1-153.8,231.3-173.5
			c120.5-22.5,234.5-2,339,61.7c83.9,51.2,140.3,125.3,159.4,222.7c24.7,126.3,14.1,250.7-30.7,371.6
			C1842.6,989.6,1811.5,1046.7,1771.6,1100.3z M2257.2,2815.9c59.6-3.1,135.4-22.3,207.5-54.8c62.4-28.2,104.1-75.9,118.1-143.9
			c21.2-102.8-11.1-194-64.6-280.1c-4.8-7.7-9.7-5.4-16.1-2.5c-72.6,32.7-149.1,43.7-228.1,39.9c-62.6-3.1-124.6-10.8-186.5-20.5
			c-42.7-6.7-68.8,8.5-70.9,53.9c-1.7,36.4-3.5,72.7-2.6,109.1c1,37.2-1.6,74.1-11.9,110c-2.4,8.3-2,16,0.9,24.3
			C2039.9,2757.9,2124.7,2817.6,2257.2,2815.9z M1549.4,641c0.9,16.5,1.6,28.6,2.1,40.7c0.2,3.7,0.9,9.8-3,10.1
			c-13.3,1.1-27.2,2.7-39.9-0.1c-8.4-1.8-4.4-13.3-4.7-20.4c-1.6-42.2-4.3-84.2-19.4-124.3c-8-21.2-19-40.4-35.1-56.5
			c-61.3-61.2-142.6-43.2-168.4,39.6c-20.4,65.5-17.9,132.8,1.1,198.4c8.6,29.7,28.8,50.5,62.6,54.3c22.7,2.6,46.1,4.2,64.9,19.9
			c3.3,2.8,8.3,4.6,8.5,9.7c0.2,7.3-32.2,27.6-39.7,25.2c-30.9-9.9-61.5-10.9-91.1,4.4c-58.9,30.5-79.3,111.8-44,175.6
			c13.7,24.7,33.5,45,50.1,67.7c22.4,30.5,51.5,34.9,84.9,27.4c58-13,97.5-55.4,105.8-114.6c1.9-13.3,7.1-17.8,19.7-15.9
			c4.4,0.7,9,0.8,13.4,0.4c14.6-1.4,18.5,5.6,14.3,18.2c-7.6,22.9,3.2,39.5,18,54.8c29.3,30.3,65.9,39,105.6,30.5
			c81.5-17.5,123.2-78,150-149.6c15.3-40.9,0-83.3-9.3-124.4c-4.5-19.6-21.9-25.9-38.9-14c-9.9,6.9-19.4,14.7-29.7,20.9
			c-31,18.5-30.5,18-43.9-14.8c-4.5-11.1-2.2-15.1,8.3-19.5c18.4-7.8,33.8-20.4,47.9-34.5c53-53.1,62.6-126.9,23.5-183.3
			c-36.1-52-88.8-56.8-145.3-50.9c-20.6,2.2-35.6,12.8-45.9,30.6C1553.8,577.2,1543.3,609.4,1549.4,641z M1716.5,1827.9
			c1.6-6.1,2.3-7.4,2.2-8.6c-0.1-5.7-0.3-11.5-0.5-17.2c-2.4-60.9,21.4-107.7,74.3-139.1c31.4-18.7,65.5-27.9,101.7-29.7
			c72.1-3.5,144.2-1.3,215.9,6.8c13.7,1.5,18.9-1.4,20.8-15.5c4-28.7,5.1-56.6-2.4-85.1c-31.1-118-86.1-223.6-163.3-317.6
			c-32.8-39.9-75.7-63.4-128.1-69.4c-35.8-4.1-71.5-1.6-107.2-2.3c-14.7-0.3-15.6,5-14,18.2c10.3,81.4-6.3,154.3-72.9,208.6
			c-11.4,9.3-11.6,15.3-5.8,27.5c38.5,79.9,29.5,154.5-26.5,223.4c-10.5,12.8-21.1,25.5-31.3,37.8
			C1643.9,1697.1,1691.3,1750.4,1716.5,1827.9z M2297.5,2328.2c63.5,1,124.7-9.9,183-35.4c36-15.8,59.4-42.1,70.5-80.7
			c11.9-41.5,14.3-84.2,20.9-126.4c18.1-115.4-18.6-212.6-98.3-295.6c-6.2-6.4-11.1-8.7-19.5-3.1c-13.8,9.1-28.3,17.5-43.2,24.8
			c-9.7,4.7-10.6,10.8-8.8,20.1c5.9,30,11.3,60.2,16.7,90.3c10.9,61.2,18.4,122.4,9.1,184.7c-18.5,124-112.3,204.8-235.1,202
			c-35.4-0.8-36.7-2.7-28.6-36.5c2.5-10.4,5.4-13.3,17.6-12c67.5,7.3,123.5-15.7,164.2-70.6c30.5-41.2,39-89.6,39.5-139.6
			c0.5-61.1-13.9-120.4-23.7-180.2c-5.3-32.2-5.9-32.1-37.7-21.6c-5.5,1.8-10.8,4.2-16.5,5.1c-15.7,2.3-15.6,9.6-9.6,22.1
			c25.1,52.5,47,105.8,51.8,165.2c7.5,93.1-50.3,173.6-141.6,193.2c-65.7,14.1-125.6-21.2-144.9-85.4c-17.4-58,8.5-128.8,60.6-165.9
			c24.5-17.5,24-17.2,38.3,9.7c6.1,11.5,6.8,17.9-6.1,25.6c-26.5,15.9-41.1,41.1-48.6,70.7c-14.7,57.9,26.3,108.5,83.2,100
			c50.8-7.6,91.6-36,106.5-91.2c7.1-26.5,7.1-53.3,2.7-79.9c-8.2-49.8-32.2-93.9-52-139.6c-4.5-10.3-11.9-7.8-19.2-6.7
			c-27.8,4.1-55.7,7.8-83.9,7.6c-12.6-0.1-23.8,3.4-34.6,9.2c-106.6,56.8-157,145.5-150.5,266.1c4.2,77.5,49.8,132,125.1,149.5
			C2154.6,2320.1,2225.9,2325.5,2297.5,2328.2z M1091.9,2189.7c7.1,7.6,15.5,9.6,20.3,17.2c30.1,47.1,23.2,119.2-16.2,162.5
			c-38.5,42.2-109,55.5-158.6,29.9c-3.3-1.7-8.9-5-8.6-6.4c2.9-12.5,11.1-22.5,17.6-33.3c5.9-9.8,12.5-1.4,18.2,0.4
			c33.7,10.4,65,6.1,91.3-17.8c26.4-24,33.3-55,25-89.3c-1.9-8-4-16.2-12.9-20c-29.5-12.6-59.6-23.4-92.2-23.2
			c-42.1,0.2-69.6,27.3-71.1,69.4c-0.7,19.1-0.8,38.3,2,57.4c16.9,114.6-2,222.4-60.8,322.8c-15.1,25.8-31,51.4-39.3,80.7
			c-13.1,46.4-3.4,87.5,28,126.7c4.4-9.9,7.8-17.3,11.1-24.8c42.9-99.5,109.3-179.5,199.5-239.5c85.2-56.6,179.4-84.9,281.1-89.9
			c9.5-0.5,15.8,0,16.2-13.9c2.9-90.6,45.1-157.8,124.2-202c4.8-2.7,11.9-3.4,14.2-10.8c-135.9-5.7-182.1-21.9-305.1-106.9
			c-3.7-2.6-7.4-4.9-12.3-3.9C1140.2,2180,1117.2,2184.6,1091.9,2189.7z M1285.4,2081.1c-53.7-56.5-79-122.5-74.3-199.4
			c4.8-77.8,40.4-139.6,100.9-189.3c-43.3-23.7-75.9-56.4-96.1-99.9c-5.8-12.5-10.9-11.9-21.1-7.2c-11.5,5.4-23.9,8.4-36.8,10
			c-43.4,5.7-83.6-6.5-122.7-22.6c-13-5.3-16.5-2.5-21.1,9.8c-12.6,33.7-30.5,64.4-54.7,91.6c-19.5,21.8-32.2,47.4-36.1,76.9
			c-3.1,23.4-6.5,46.8-9.2,70.2c-7.9,67.2-16.2,134.5-5.9,202.3c3.6,23.5,9,46.4,19.3,67.9c15.2,31.9,39.7,51.1,75.8,53.4
			c32,2,63.9-0.4,95.5-5C1163.5,2130.4,1225.7,2112.5,1285.4,2081.1z M658.7,1206.5c0-7.4,0-12.5,0-17.6c0-83.7,0-167.5,0.1-251.2
			c0-5.5-2.9-14.1,2.2-16.1c12.6-4.8,26.7-3.5,39.5-1.2c9.9,1.8,5.3,12.8,5.3,19.6c0.3,85,0.6,170.1-0.1,255.1
			c-0.1,16.1,4.6,21,20.5,20.2c26.8-1.3,53.6-0.1,80.4-3.3c12.4-1.5,17-4.2,17.5-17.9c3-80.5,7.5-160.9,10.7-241.3
			c0.5-12.4,4.2-15.9,15.7-13.4c4.3,0.9,9,1.2,13.4,0.8c15.4-1.3,18.8,5.8,18.1,20.4c-3.8,74-6.1,148.1-10,222.1
			c-0.9,16.3,2.8,17.9,17.5,13.8c63.5-17.8,124.7-41.2,183.8-70.5c11.7-5.8,12.3-10.4,5.5-21.1c-46.4-73.5-79.6-152.8-100-237.2
			c-3.5-14.4-9.4-17.6-23.1-17.5c-138.7,0.5-277.4,0.3-416.2,0.3c-54.3,0-108.7,0.1-163-0.1c-8.6,0-14.3-0.5-11.3,12.1
			c18.2,76.6,47,148.4,93.5,212.4c14.1,19.4,29.3,37.9,51.5,55.1c0-9.6,0-15.8,0-22c-0.4-56.9-0.9-113.8-1.2-170.7
			c0-5.5-3-14.1,2.4-16c12.7-4.3,26.9-3.7,39.6-0.7c8.6,2,4.2,13.3,4.3,20.3c1.2,69.7,2.3,139.3,2.6,209c0,13.2,4.3,20.9,16.2,26.7
			C600.6,1189.6,627.4,1200.9,658.7,1206.5z M2493.5,1696.6c22.6-19.3,39.2-39.4,54.3-60.8c73.3-103.6,71.6-208.7-8.7-306.7
			c-116.6-142.2-309.2-206.3-501.9-127.4c-17.2,7-19.1,11.5-7.7,26.6c62.2,82.4,107.7,173.5,137.3,272.4c10,33.6,9.6,33.7,43.2,37.6
			c10.8,1.2,21.6,2,32.4,3.2c52.6,5.7,81.2,29.4,84.7,74.9c5.1,66.4-20.4,113.2-96.4,116.8c-17.8,0.8-35.7-0.2-53.5,0
			c-5,0-11.9-4.3-14,4.8c-1.9,8.5,3.4,11.3,10.2,12.8c19.3,4.4,38.7,8.3,57.9,13c40.2,9.9,69.3-3.2,94-36.9
			c33.6-46,81.8-65.6,138.8-63.3C2494.2,1664.8,2495.4,1666,2493.5,1696.6z M344.4,664.3c0.1,49.7,3.4,86.6,7.2,123.5
			c1.2,12,5.3,16.5,17.7,16.2c27.5-0.8,55-1.2,82.4,0.1c16.1,0.8,20.9-3.7,19.2-20.1c-9.1-86.1-7-172.1-1.6-258.5
			c4.5-73.2,38.5-126.9,96.8-167.5c66.1-46,142.1-61.8,220.4-67.6c80-6,156.3,10.8,228.4,46c10.3,5,15.2,4.2,20.7-6.5
			c8.4-16.5,18.4-32.1,28.6-47.6c5.5-8.4,6.9-12.8-3.8-18.9c-82.4-47-167.9-86.2-261.3-105.8c-167.5-35-295.3,24.3-375.9,175.3
			C365.9,440.3,346.2,556.6,344.4,664.3z M742,803.7c65.2,0,130.4,0.3,195.5-0.1c28.9-0.2,27.6,6.5,23.3-26.2
			c-17.2-129-5.7-254.9,42-376.5c5.5-14.1,1.3-18.1-10.4-23.6c-117.5-54.8-235.9-53.6-354.5-5.1c-41.3,16.9-77.1,42.1-101.1,81.7
			c-18.4,30.4-19.2,64.1-21.6,97.9c-5.7,77.3-4.2,154.5,2.1,231.7c1.3,16,6.9,20.9,23.5,20.7C607.8,803.1,674.9,803.7,742,803.7z
			 M1178.9,982.8c-4.6-76.1,15.2-139.9,83.9-181.1c8.6-5.2,4-8,0.1-12.6c-14.7-17.3-25.4-37-30.1-59.2
			c-14.7-70.9-20.1-143,2.8-212.3c40.4-122.5,160.8-142.3,243.7-63.2c21.2,20.2,36.2,44.4,47.6,71.5c36.4-43.6,49.1-52.5,95.9-57.5
			c110.7-11.7,186.9,43,208,142.2c9.6,45-1.2,87.5-23.8,127.2c-2.3,4-10.5,9.9-1.6,14.1c27.5,13.2,35.7,38,40.8,69.9
			c2.7-9.6,4.5-14.4,5.3-19.3c9.4-58.9,12.2-118.3,7.9-177.8c-7.4-100.5-48.2-183.4-132.9-241.3c-76.3-52.2-161.9-74.7-253.7-72.5
			c-90.9,2.2-170.2,31.7-229.3,104.6c-28.8,35.6-50.4,75.3-66.2,118.1c-37.1,100.7-42,204.6-29.3,310
			C1153.6,891.1,1163.4,937.7,1178.9,982.8z M1973.4,2377.4c4.8-17.6,9.8-33.1,23.1-43.3c10.7-8.2,7.8-12.1-1.7-19.1
			c-41.9-30.9-67.6-72.6-77.4-123.7c-25.8-133.9,30.5-262.2,149.9-331.3c28.2-16.3,40.8-34.7,40.7-64.9c0-0.6,0.1-1.3,0.3-1.9
			c2.5-9.5-2-12.7-10.9-12.7c-59.7,0.3-118.7,3.5-174.3,29.2c-26.2,12.1-45.1,30.3-56.3,57.1c-19.5,46.8-34.9,94.7-37.7,145.7
			c-2.7,48.4-14.1,93.5-46.2,131.3c-34.1,40.2-76.3,69.5-123.7,91.9c-11.8,5.6-23.7,11-38.2,17.6
			C1754.9,2252.8,1882.9,2259.1,1973.4,2377.4z M1141.2,1194.9c-6.1-8.2-12-14.3-15.8-21.5c-7.5-14.2-15.6-15.3-29.9-7.5
			c-60.7,33.2-125.1,57.6-192,75.1c-10,2.6-19.5,5.7-28.3,11.2C727,1346,634,1478.9,594.3,1649.5c-2.7,11.7,1.4,17,11.5,22.1
			c33.3,16.8,68.9,26.4,104.7,35.7c14.3,3.7,18.4,2.7,17.6-13.8c-8.1-185.4,105.1-316.3,257.3-355.1c9.9-2.5,12.8-7.6,15.1-16.6
			c12.7-50.1,37.9-90.6,89.2-109.4C1105.9,1206.4,1122.3,1201.3,1141.2,1194.9z M1571.9,1715.4c-42.9-23.4-86.1-31.8-132.5-25.4
			c-98.7,13.6-176.6,96.3-181.7,193.7c-5.5,104.4,61.3,195.8,160,219.8c14.6,3.6,18.1,0.6,15.4-14c-5.5-29.9-4.3-59.8,3.5-89.3
			c15.7-58.8,56.6-97,105.3-129c30.2-19.8,63.1-27.2,98.6-22.7c10.4,1.3,20.7,3.9,33.1,6.4c-8.3-41.4-27.2-74.3-57.3-105.8
			c5.1,41-11.4,66.7-42.6,71.6c-27,4.2-53.2-15.4-58.2-43.7C1510.3,1747,1530.1,1724.5,1571.9,1715.4z M1294,1205.2
			c22.9,49.7,36.8,101.2,36.8,155.6c0,12.1,9.4,12.3,16.8,14.7c70,22.6,139.7,20.2,208.6-4.5c89.5-32,131.1-108,112.6-201.8
			c-2.6-13.4-8-16-20.4-15C1529.7,1164.2,1411.8,1179.9,1294,1205.2z M1284.4,1376.1c0-55.1-10.8-101.3-30.6-145.6
			c-5-11.3-11.4-13.4-22.2-10.6c-40.7,10.7-81.1,22-121.1,35.1c-29.3,9.6-46.8,29.2-57.7,56.8c-5,12.6-8,25.6-9.9,38.8
			c-7.5,53.2-1,107.4-11.1,160.3c-1.7,8.9,4.9,10.8,10.4,13.5c21.3,10.6,43.6,17.5,67,22.3c67.7,13.8,150-36.8,166.1-103.3
			C1281.2,1419.3,1285.1,1394.6,1284.4,1376.1z M1613.7,1492.9c-0.8-20.1-7-43.1-16.7-65.7c-6.2-14.3-13.9-16.9-27.4-11.9
			c-74.8,27.6-150.5,30.2-226.9,7.4c-13.2-3.9-15.5,0.3-17.6,12.3c-8,46.6-24.1,88.9-68.5,113.8c-9.5,5.3-3.8,12-1.1,17.9
			c19,41.9,50,71.6,91.9,90.5c10.1,4.5,18.9,4.3,29.2,0.3c39.4-14.9,80.3-20,122.3-14.7c5.9,0.7,11.1,0.5,16.7-1.7
			C1572.3,1618.5,1613.3,1558.5,1613.7,1492.9z M1227.1,2159.3c16.7,13.6,34.1,22.8,51.4,32c159.7,85.6,327,45.9,447.6-56.3
			c32.6-27.6,51.3-62.2,53.7-106.1c2.7-49.2,14.6-96.8,28.8-144.2c22.7-75.5,72.3-119.4,147.6-137.3c46.3-11,93.3-14.7,140.7-13.6
			c13.6,0.3,22.4-1.4,21.1-17.7c-0.3-4.3,1.5-8.8,2.3-13.2c1.8-10.2,0.4-15.3-12.8-16.6c-66.3-6.7-132.6-8.8-199.1-7.1
			c-21.2,0.5-42,3.6-62.1,10.3c-56.7,18.8-81.5,53.8-80.4,113.1c0.7,39,2.1,77.9,1.6,116.9c-0.7,56.8-18.3,107.9-55.8,151.4
			c-27.2,31.6-56.9,60.6-91.4,84.1c-23.4,15.9-48.5,28.1-76.1,35.1c-94,23.9-183.9,11.9-269.4-32.4
			C1258,2149.2,1244.5,2147.9,1227.1,2159.3z M517.6,2123.4c-5.1,20.7,9.1,34.9,32.2,44.7c15.9,6.7,31.6,13.7,48.2,18.3
			c23.6,6.5,22.8,6.5,22.9-17c0.5-123.6,44.1-227.9,139.7-308.6c28.5-24,60.4-42.4,94-58c7.2-3.4,16.7-4.3,15.2-16.2
			c-1.6-12.9-11.8-6.9-17.9-7.7c-37.3-4.9-74.8-8.6-111.6-17.1c-9.2-2.1-17.1-2-25.4,3.3C586.7,1847.5,522.3,1965.5,517.6,2123.4z
			 M777.3,1263.6c-4.3-1-5.9-1.8-7.6-1.7c-56.7,2.9-112.2-2.7-166-21.6c-8.3-2.9-13,0.6-19,4.5c-91,60.3-130.7,163.7-102.2,268.9
			c12,44.2,32.7,83.8,68,117.8C585.6,1482.9,661.6,1361.9,777.3,1263.6z M532.7,2905.7c-0.7-10-0.9-16.9-1.7-23.7
			c-6.8-56.1-1.5-111.6,15.8-164.8c48.1-148.2,151.6-237,301.6-273c14.7-3.5,19.1-9.4,17.7-22.9c-0.6-5.7-0.9-11.5-0.4-17.2
			c1.2-13-4.7-19.2-16.9-23.4c-26.6-9.2-53.7-16.2-81.4-21.3c-12.8-2.4-23.1,0.7-33.8,8.4c-154.6,112.3-248.7,262.7-284.3,450
			c-1.3,6.8-3.9,14.1,1.1,20.3C472.2,2865.6,498,2888.6,532.7,2905.7z M992.4,1386c-6.4,1.5-11.4,2.2-16.1,3.8
			C835,1437.4,760.9,1567,776.7,1710.1c1,8.9,4.5,12,12.6,13c24.7,3,49.4,6,74,9.6c10.8,1.6,15.7-1.7,18.7-12.9
			c8.2-29.9,23.2-56.8,44.1-79.7c17.5-19.2,30.1-41.1,40.2-64.7C992.5,1515.1,990.6,1451.1,992.4,1386z M661.4,1743.7
			c-42.7-13.7-80.7-28.4-113.8-52.9c-7.7-5.7-11.2-0.9-16.1,3.2c-93.6,78.5-134.5,227-93.6,341.9c7.5,21.1,15.3,42.5,33.7,62.5
			C480.4,1949.9,543.4,1833.7,661.4,1743.7z M859,2489.6c-52.7,10.9-99.1,31.2-139.4,61.8c-116.8,88.8-159.2,208.2-138.2,351.7
			c4.2,28.6,7.4,30.1,33,28.1c-0.6-3.1-0.9-6.3-1.7-9.4c-31.9-134.4,43.2-270.7,188.6-294.8c6.3-1.1,10.5-4,13.5-9.4
			C836.5,2578.1,851,2536.3,859,2489.6z M663,2360.3c-102.6,15.5-186.5,60.8-236.4,154.7c-42.4,79.6-46.5,163.3-15.9,248.4
			C452.5,2602.3,536.5,2468.2,663,2360.3z M779.3,2681.2c-6.2,2-8.5,2.6-10.7,3.4c-100.8,39.2-135.3,147.7-105.8,243.2
			c3,9.6,9,10.7,17.3,10.3c40.1-1.7,77.9-12.2,114.5-28.1c10.2-4.4,7.8-8.5,2.2-15c-19.3-22.8-32-48.9-38.7-78.1
			C747.4,2770.5,757.6,2727.1,779.3,2681.2z M861.6,1853.8c-2.1,0.2-3.5-0.1-4.5,0.4c-125.8,62.2-197,190-188.2,330.6
			c0.6,10,4.3,12.7,13.9,12.7c26.7,0.1,26.9,0.6,25.3-27.4c-5-87.5,30.6-153,109.2-191.2c26-12.6,47-21.7,38.7-55.3
			c-0.6-2.3,1-5,1-7.5C856.9,1895.3,863.4,1874.8,861.6,1853.8z M1476.5,2058.8c0.8,6.7,1.7,19.5,4,32c1.6,8.6,1.4,20.8,16.7,16.5
			c11.6-3.3,28.4,1.1,24.7-21.6c-4.5-26.8,2.4-52.2,17.7-74.6c27.4-40.1,66.2-56.8,113.9-51.2c13.4,1.6,18.8-1.8,19.9-14.6
			c0.5-5.7,1.2-11.5,3-16.9c4.6-14.1-1.7-21-14.4-25.9c-31.7-12.2-61.8-11.6-91.6,6.6C1516.2,1942.3,1477.8,1985.3,1476.5,2058.8z
			 M754.8,2152.9c0,5.8,0.2,11.5,0,17.3c-0.7,14.7,5.2,16.8,18.6,12.5c38-12.4,73.2-29.8,104.9-54.2c5.3-4.1,11.9-6.6,7-16.4
			c-13.6-27-21.2-56.1-24.4-86.1c-1.4-13.8-6.9-13.1-17.3-8.6C788,2041.3,754.8,2091.5,754.8,2152.9z M2206.6,1687.5
			c8.9-0.5,17.9-0.5,26.7-1.8c38.6-5.7,53.8-28.3,46.9-67.4c-2.7-15.4-10.9-24.4-25.7-26.7c-20.2-3.1-40.5-5-60.7-7.6
			c-8.3-1.1-11,2.3-11.8,10.4c-1.9,19-5.3,37.9-7.4,56.9C2170.7,1687,2170.9,1687,2206.6,1687.5z M2471.5,1713.2
			c-41.9-5.7-77.4,5.2-105,37.2c-13.2,15.4-25,32-40.2,46C2380.2,1778.1,2429.3,1751.9,2471.5,1713.2z M1197.1,1036.5
			c13.3,43.1,32.9,83.3,53.4,123.2c3.8,7.5,11.1,6.1,16.9,4.9c11-2.3,21.8-6,33.7-9.4C1257,1122.1,1227.1,1079.5,1197.1,1036.5z
			 M1568.9,2080.9c31.3-12.6,67.2-47.6,76.7-74.2C1599.6,2002.4,1566.9,2033.3,1568.9,2080.9z M2264.2,1815.2
			c-36.5-1.9-71.6-10.7-107.8-20.1c-1.6,8.5-3.1,16.6-4.5,24.7c-1.5,8.5,0.5,13.3,10.9,12.1
			C2196.8,1828.3,2231,1825.7,2264.2,1815.2z M1460.2,1127.6c31.7-4.1,58.2-7.5,89.9-11.6c-19.3-12.9-32.1-24.9-45.3-37.7
			C1493.1,1096.4,1478.6,1110.5,1460.2,1127.6z M1401.3,2151.8c-22.4-10.6-45.8-19-66.8-32.6c-9.3-6-16-3.9-23.5,5.3
			c16.1,5.9,30.8,12,46,16.6C1371.5,2145.5,1386.5,2148.3,1401.3,2151.8z"/>
		<path class="st0" d="M1594.8,919.9c0.3-34.6,27.7-61.8,62.2-61.8c35.2,0,63.4,28.2,62.9,63.2c-0.5,34.1-28.5,62.1-62.5,62.2
			C1622.8,983.7,1594.5,955,1594.8,919.9z"/>
		<path class="st0" d="M1351.4,915.3c35.5,0,62.6,25.9,63.2,60.3c0.5,34.4-28.1,63-63.2,63c-35,0-63.7-28.6-63.1-63
			C1288.8,941.1,1315.9,915.3,1351.4,915.3z"/>
		<path class="st0" d="M1442.1,633.8c-0.1,34.3-27.8,62.2-61.8,62.6c-34.9,0.3-63.4-28.3-63-63.4c0.4-38.5,30.5-62,63.8-62.3
			C1415.1,570.3,1442.2,599.4,1442.1,633.8z"/>
		<path class="st0" d="M1730.4,650.3c-1,34.3-29.6,61.5-63.5,60.6c-34.9-0.9-62-29.8-61-65.1c0.9-35.1,29.9-61.7,65.5-60.2
			C1705.6,587,1731.4,615.4,1730.4,650.3z"/>
		<path class="st0" d="M2204.7,1375.2c0.3-58.5,46.3-103.3,105.6-102.8c55.6,0.5,102,47.4,102,103.2c0,57.7-47.6,104.7-105.3,104.2
			C2249.9,1479.2,2204.4,1432.7,2204.7,1375.2z M2365.1,1376.2c0.2-31-26-57.4-57.1-57.3c-30.4,0.1-56,25.2-56.7,55.6
			c-0.7,31.1,24.9,57.8,56,58.4C2337.9,1433.6,2364.9,1407.1,2365.1,1376.2z"/>
		<path class="st0" d="M650.6,612c-0.1-60,46.8-107,106.9-107c59.3-0.1,107.6,48.4,107.1,107.4c-0.6,58.3-48.2,106.1-106.5,106.6
			C699.2,719.5,650.7,671.3,650.6,612z M817,611.7c0-33.1-26.3-59.9-59.2-60.2c-33.2-0.3-61.1,27.8-60.6,61
			c0.4,32.8,27.4,59,60.4,58.9C790.9,671.2,817,645,817,611.7z"/>
		<path class="st0" d="M535.4,744.1c0.1-28.4,21-49.9,48.7-50c27.4-0.1,51.9,24.4,51.3,51.5c-0.6,26.7-24,49.8-50.9,50
			C556.2,795.7,535.4,773.9,535.4,744.1z"/>
		<path class="st0" d="M878.8,781.8c-28.2,0.2-50.4-20.9-51-48.3c-0.6-26.9,24-51.7,51.1-51.8c26.9,0,49.9,22.7,50.4,50
			C929.9,760.2,908.3,781.6,878.8,781.8z"/>
		<path class="st0" d="M884.1,528.1c-28.6-0.4-50.1-23-49.3-51.8c0.7-27.8,22.7-48.8,50.9-48.5c28.5,0.3,50.4,23.3,49.6,51.9
			C934.4,507.2,911.9,528.5,884.1,528.1z"/>
		<path class="st0" d="M609.6,428.2c27.4,0.4,49.4,22.7,49.3,50.3c0,28.6-22.5,50.5-51.3,50.1c-28-0.4-49.1-22.1-49.1-50.2
			C558.5,449.8,580.8,427.9,609.6,428.2z"/>
		<path class="st0" d="M1430.5,1898.6c-0.1,28.8-22.3,51.2-50.8,51.3c-28.8,0.1-52.8-24.1-52-52.5c0.7-28.4,23-49.5,52.3-49.6
			C1409,1847.8,1430.6,1869.5,1430.5,1898.6z"/>
		<path class="st0" d="M1519,1819.3c-0.4,28.4-23.4,51.1-51.5,50.8c-27.9-0.3-51-23.7-51.1-51.7c0-29.1,23.1-51.5,52.9-51.1
			C1497.7,1767.7,1519.4,1790.5,1519,1819.3z"/>
	</g>
</g>
</svg>
