<?xml version="1.0" encoding="utf-8"?>
<!-- Generator: Adobe Illustrator 23.0.0, SVG Export Plug-In . SVG Version: 6.00 Build 0)  -->
<svg version="1.0" xmlns="http://www.w3.org/2000/svg" xmlns:xlink="http://www.w3.org/1999/xlink" x="0px" y="0px"
	 viewBox="0 0 3000 3000" style="enable-background:new 0 0 3000 3000;" xml:space="preserve">
<style type="text/css">
	.st0{stroke:#000000;stroke-width:10;stroke-miterlimit:10;}
</style>
<g id="Layer_1">
</g>
<g id="Layer_2">
	<g>
		<path class="st0" d="M743.9,2181.8c-22.7-18-43-32.7-61.7-49.2c-151.4-132.8-230.2-299.9-231.1-501.4
			c-1.3-307.2-1.8-614.3,0.1-921.5c2.1-333,231.7-598.7,560.8-652.2c30.7-5,62.1-7.3,93.2-7.4c265.2-0.5,530.5-4.4,795.6,1.1
			c317.8,6.5,572.3,226.9,633.2,538.3c8.6,44.2,10.3,89,10.3,133.9c-0.1,296.4-1.2,592.9,0.4,889.3c0.9,161.2-45.1,305-145.1,431.4
			c-2.8,3.6-5.2,7.6-9.7,14.3c86,6.4,129.9,63.5,167.1,128.7c109.7,192.3,92.4,455.1-38.4,620.9c-44.6,56.6-105.2,77-171.9,88.7
			c-123.7,21.7-247.3,33.6-371.4,3.3c-45.1-11-86.8-28.6-121.1-61.1c-7.3-6.9-11.9-15.9-24.5-2.1c-118.3,128.9-316.4,129.2-437.8,0
			c-17.4-18.6-24.5-21-42.5-0.9c-35.6,39.8-84.4,58.6-134.9,71.8c-90.4,23.7-180.8,49.8-275.3,49.3
			c-140.2-0.6-268.6-37.3-369.7-139.9c-148.7-151-142-427.6,11.7-561C626.9,2216.6,681.2,2194.5,743.9,2181.8z M1765,99.2
			c-49.2,0-92.2-0.7-135,0.3c-26,0.6-59.4-11.5-76.1,5.4c-15.9,16.2-9.8,49.5-12.4,75.5c-5.2,51.2-9.6,101.5-46.7,144.3
			c-25,28.8-15,87.8,12.6,115.9c26.9,27.4,43.2,59.6,49.5,97.3c7.5,44.7,5.4,89.5,1.1,134.1c-2.5,26-11.5,53.6-37.2,62.3
			c-36.3,12.4-39.4,36.4-36.4,67.3c1.2,12.5,1.1,25.4-0.3,38c-2.6,23.3,5.3,39.5,23.6,55.3c36.8,31.9,39.6,99.6,0.4,127
			c-32.3,22.6-28.4,49.1-31.3,79.3c-3.4,35.8,10.6,54.2,40.8,73c87.6,54.4,152.3,128.7,167.3,234.9c13.6,95.8,11.8,192.5,6.3,289
			c-3.6,63-27.8,114.9-82.6,150c-40.4,25.9-53.9,63.8-51.1,110.4c5.2,85.6,10,171.3,12.9,257c0.7,20.9,7,25.9,26.8,25.7
			c96.5-0.9,193.2,2.4,289.6-1c265.1-9.1,453.1-136,562.9-377.4c45.7-100.4,48.4-207.6,46.5-315.4c-0.3-19.5-4.1-25.6-25.2-26.5
			c-140.8-5.8-229.3-79.3-257.5-217.7c-18.2-89-26.1-179.8-10-270.2c18-101.2,68.8-177.2,172.7-208c32.1-9.5,65.3-11.7,98.5-8.7
			c17.1,1.5,21.9-4.2,21.4-20.7c-1.1-31.2-0.2-62.4-0.3-93.6c-1.4-272.6-191.2-515.1-454.9-583.6
			C1947.7,94.5,1853.1,100.5,1765,99.2z M500.3,1497.9c10.8-9.7,15.9-14.2,20.9-18.8c242.7-225.7,529.3-340.7,861.2-341.3
			c47.5-0.1,48.6-0.1,46.3-49.5c-1.9-40,1.5-74.6,41.7-97.6c21.8-12.4,21.9-46.7,0.9-63c-29.8-23.1-37.9-52-35.5-87.4
			c1.7-24.3,1-48.7,0.5-73.1c-0.6-33.4,14-56.7,45.6-66.9c17.7-5.7,24.8-17.3,27.2-33.9c5.3-35.9,5.1-72,1.5-107.9
			c-3.3-32.6-15.6-61.4-39.9-85.5c-43.9-43.6-51.7-131.1-13.9-180.4c22.1-28.9,31.4-59.2,32.6-94.3c0.8-23.3,3.1-46.8,8-69.5
			c5-23.2-0.7-30.3-25.2-30.1c-119.9,1.1-239.8-0.4-359.7,0.6c-348.2,2.9-612.4,270.1-612.4,618.4c0,247.6,0,495.3,0,742.9
			C500.3,1470.9,500.3,1481.2,500.3,1497.9z M1257.9,2241.1c90.4,0,165.5-0.5,240.5,0.4c19.3,0.2,25.1-5.3,23.8-25.1
			c-5.4-81.7-8.4-163.5-13.9-245.2c-4.7-69.7,16.2-126.7,76.2-166c39.5-25.8,53.8-63.3,57.6-108.9c5.8-71.3-1.3-142.3,0.2-213.3
			c2.8-124.7-57.9-210.3-158.8-273.8c-20.2-12.7-40.9-20.8-65.4-21.8c-79.2-3.1-157.9,1.9-236,14.7
			c-261.9,42.9-482.7,163.9-668.2,352c-8.3,8.4-14.6,16.9-14.1,30.3c1.7,43.8-0.7,87.5,5.2,131.3
			c34.5,254.9,231.4,470.4,502.3,516.5C1095.6,2247.3,1184.6,2238.6,1257.9,2241.1z M1253.9,2290.5c25.9,65.7,34.3,130.1,21.8,195.5
			c-35.2,184.2-202.6,298.5-387.2,265.9c-135.3-23.9-207.7-113.6-189.4-240.6c20.3-140.8,119.2-178,229.5-148.6
			c9.8,2.6,29.9,2.3,20.2,22.8c-6.5,13.6-5.5,34.9-34.6,24.5c-43.9-15.8-89.5-15.1-126.4,19c-73.3,67.7-53.6,206.9,36.5,249.5
			c105.8,50,209.3,43.4,301.5-31.2c94.7-76.6,124.7-178.1,96.4-296.1c-14.7-61-16.1-60.7-79.3-60.6c-4.9,0-9.8,0.6-14.6-0.1
			c-18.4-2.6-21.4,6.5-18.3,22c4.7,24,5.6,48.4,4.2,72.8c-6.3,108.6-66.6,190.1-160.8,217.4c-48.2,14-85.7,1.9-104.2-33.5
			c-18.9-36.2-9.1-74.2,29.3-105.5c22.6-18.4,47.5-34.1,70.5-52c42.7-33.3,45.3-62.4,9.3-103.4c-118.8-135-309.7-83.4-390.9,35.5
			c-87.7,128.3-71.1,323.3,34.5,436.7c72.2,77.5,166,111.2,267.3,123.7c133.9,16.5,261.2-18.1,385.4-62.8
			c68.7-24.7,104.5-79.1,111.8-151.1c11.3-110.9,9.7-222-1.6-332.7c-6.8-67.3-8.1-67.1-76.7-67.1
			C1278.3,2290.5,1268.6,2290.5,1253.9,2290.5z M2580.8,2460.7c-1.2-26.5-2.6-59.6-9.1-92.2c-16.3-81.5-46.1-157.2-101.7-220.1
			c-38.9-44.1-94.6-52.1-142.9-24.2c-64,37-102.7,131.2-83,203c8,29.4,22.8,48.9,57.5,52.4c52.6,5.3,78.8,52.5,61.4,103.5
			c-19.2,56-96.3,88.8-153.3,65.3c-39.5-16.3-68.1-44.1-87-82.2c-28.9-58.5-35.5-120.9-32.6-185c0.3-6.9,7.1-20.7-7.8-19.3
			c-15.2,1.4-32.2,2.1-31.9,27.5c0.9,72.6,9.2,144.2,32,213c40.5,122.3,198.1,185.2,313.7,127.2c67.4-33.8,100.7-112.1,86.5-203.5
			c-14-90.1-69.3-143.4-160.6-154.8c-6.8-0.8-13.9-0.2-20.3-2.1c-21.3-6.2-11.7-26-14.9-39.3c-3.4-14.4,11.8-9.4,18.7-9
			c41.1,2.4,81,9.6,117.3,31.3c80.4,48.1,109.5,123,111.7,211.9c2.9,118.9-67.7,208.6-179.2,228.4c-30,5.3-60.4,3.2-90.5,1.4
			c-114.9-6.8-201.1-81.1-232.9-192.9c-18-63.3-26.9-127.5-30.1-192.6c-1-20.6-3.3-30.4-27.4-24.7c-19.7,4.6-40.6,4.7-61,5.9
			c-36.9,2.1-36.2,1.7-29.6,36.4c14,74.4,12.4,146.4-41.9,206.5c-13.3,14.7-12.2,23.8-3.2,39.7c28,49.4,42.1,102.7,34,159.9
			c-7.3,51.4-1.1,65.1,43.2,92.6c21.8,13.6,45.5,22,70.1,28.1c119.3,29.4,237.5,14.2,356.7-4.1c83.5-12.8,137.8-56.2,175.4-128.5
			C2559.3,2640.5,2580.3,2556.6,2580.8,2460.7z M1615,2290.5c-62.4,0-124.8,0.4-187.1-0.3c-15.3-0.1-24,2.1-20.5,20.5
			c12.7,68.3,11.8,137.7,15.4,206.7c0.8,15.8,6.7,21.5,21.5,25c37.2,8.8,75,12.3,112.8,15.3c62.5,5,124.8,4.1,185-16.5
			c57.1-19.5,89.8-60.4,97.8-119.7c4.7-35,0.6-69.7-7.9-104.2c-5-20.3-13.6-28-35.6-27.4C1735.9,2291.6,1675.4,2290.5,1615,2290.5z
			 M1609.9,2884.2c13.6-0.9,27.2-1.4,40.8-2.9c144-16.5,214.5-143.6,152.6-273.3c-11.4-24-22.4-35.6-49.7-20
			c-13.8,7.9-31.4,9.9-47.6,12.5c-87.5,14-174.6,8.2-261-8.5c-15.5-3-23.4-3.3-24,15.7c-1.7,51.5-2.8,103.3-21.1,152.5
			c-3.6,9.6,2.4,14.7,7,20.5C1459,2845.5,1524.6,2884.1,1609.9,2884.2z M2201.6,2213.2c-61.3,21.1-62.7,22.9-62.8,82.6
			c0,13.6-0.8,27.3,0.3,40.9c4.3,53.1,15,104.5,54.2,144.1c33.4,33.7,82,34.8,112.3,3.9c10.7-10.9,16.8-23.7,12.5-39.7
			c-4.3-15.6-17.5-17-30-18.5c-50.4-5.9-77-37.7-90.4-83.2C2185.2,2301.1,2190.2,2258.7,2201.6,2213.2z M1007.1,2285.3
			c40.4,87.3,30.2,124.3-47.6,179.7c-18.2,13-36.6,25.8-53.8,40c-12.2,10-23.1,22.1-13.3,40.2c10.3,18.8,27.4,17.3,43.3,11.9
			c57.4-19.5,101.2-54.5,119.4-114.5c10.8-35.7,12.5-72.6,8.3-109.9C1057.9,2284,1058.6,2283.9,1007.1,2285.3z M2312.9,1061.6
			c-4.6,5.1-8.6,8.9-12,13.2c-10.3,12.8-20.5,25.8-30.5,38.8c-28.8,37.4-28.2,36.4,12.5,60.5c14.9,8.8,21.9,5.6,30.4-6.5
			c10-14.3,21.6-27.4,31.5-41.7c5.7-8.2,21.1-16.2,13.3-25.8C2346.3,1085.3,2329.1,1074.9,2312.9,1061.6z M2316.4,1250.2
			c-3.1,1-5.5,1-6.5,2.2c-10.5,12.7-21,25.4-31,38.5c-15.8,20.6-14.3,44,3.1,55.7c24.5,16.5,36.5,14.2,54.1-10.3
			c9.6-13.4,19.5-26.6,28.7-40.2c2.8-4.2,9.9-10,2.8-14.7C2350.8,1270,2333.1,1260.2,2316.4,1250.2z M2455.1,984.1
			c-54.5-36.5-54.5-36.5-85.5,3.2c-28.9,36.9-28.6,36.5,11.2,65.9c9.6,7.1,14.8,9.2,22.8-2.2
			C2419.8,1028.1,2437.8,1006.4,2455.1,984.1z M2453.1,1172.8c-12.4-10.1-24.1-18.4-34.4-28.2c-12.1-11.6-20.2-9.5-29.2,3.9
			c-11.4,16.8-24.7,32.3-37,48.5c-3.3,4.3-10.2,9.8-3.4,14.4c16,10.8,32.1,23.7,50,28.5c12.4,3.3,16.6-16.2,24.3-25.5
			C2433.8,1201.9,2442.4,1188,2453.1,1172.8z M2461,1340.8c-2.1-3.7-3.1-6.3-4.8-8.5c-17.4-21.9-41.3-21.6-57.2,0.5
			c-7.9,11-15.9,21.9-23.7,32.9c-4,5.7-8.6,12.8,1.6,15.8c15.5,4.5,33.5,21,45.4,12C2438.9,1380.9,2448.5,1358.8,2461,1340.8z
			 M2495.7,1013.4c-16.1,20.1-27.5,34-38.5,48.2c-25.4,32.9-25.3,33,8.6,57.9c18.2,13.4,28.2,10.1,29.5-12.2
			C2496.9,1078.6,2495.7,1049.9,2495.7,1013.4z M2495.8,903.9c0-36.4-0.6-37.5-18.4-38.1c-10.6-0.4-48.9,35.7-44.3,43.4
			c10.8,17.7,32.3,28.3,49.6,29.1C2506.5,939.2,2490.6,914.1,2495.8,903.9z M2299.9,988.9c8.2-0.7,51.1-55.6,49.6-60.5
			c-0.5-1.7-1.9-4.1-3.3-4.5c-11-2.9-19.7-21-32.8-8.3c-16.1,15.7-36.3,30.9-33.1,56.7C2281.1,979.1,2294,984.3,2299.9,988.9z
			 M2495.7,1208.8c-2.1-0.4-4.3-0.8-6.4-1.2c-11.9,16.4-23.9,32.8-35.8,49.2c-4.1,5.7-8.4,11.4,0.6,16.7
			c10.7,6.4,20.4,16.9,33.2,16.8c10.2-0.1,8.3-11.2,8.3-18.6C2495.9,1250.8,2495.7,1229.8,2495.7,1208.8z M2340.5,1421.2
			c7.4,17.6,22.2,24.2,36.4,31.2c5.5,2.7,11.4,2.3,14.2-4.6c3.2-7.9-2.8-9.6-8.3-11.5C2368.7,1431.3,2354.6,1426.2,2340.5,1421.2z"
			/>
		<path class="st0" d="M1769.5,1501.1c1.8-78.5,20.8-156.8,78.8-220.9c74.2-81.9,181.2-83,255.9-1.4c65.9,72,84.7,160.5,79,255
			c-3.9,65.2-22.6,126.3-62.5,179.4c-80.3,106.9-211.4,105.7-289.8-3.1C1787.3,1649.4,1770.6,1580.3,1769.5,1501.1z M2021,1561.1
			c-1.1-1.6-2.2-3.2-3.2-4.8c-20.7-38-43.3-43.7-78.4-19.9c-5.6,3.8-11.3,7.6-16.9,11.5c-32.5,22.5-32.5,22.6-10.1,55.7
			c1.6,2.4,3.6,4.7,4.7,7.3c6.6,14.7,15.3,13.9,27.3,5.5c21.4-15.1,43.7-28.9,65.4-43.5C2014.4,1569.9,2021.3,1568.7,2021,1561.1z
			 M1938.5,1476.3c-2-3.2-3.5-5.5-5-7.8c-28.2-45.4-44.7-49.1-89.4-20.3c-3.3,2.1-6.4,4.5-9.8,6.2c-12.8,6.7-11.3,14.1-4.3,25.4
			c30.9,50.4,30.5,50.6,80.5,16.8c6.4-4.3,12.9-8.6,19.1-13.1C1932.6,1481.5,1935.3,1478.9,1938.5,1476.3z M2050.4,1394.7
			c-18-14.9-35.9-29.8-54-44.4c-0.9-0.7-3.8,0.2-5.2,1.1c-19.3,13.1-43.8,22.8-55.7,40.8c-6.6,10,20.4,24,29.6,38.4
			c10.6,16.6,22.5,17.7,37.5,4.3c10.1-9,22.4-15.4,33.3-23.5C2039.4,1408.8,2045.2,1407.3,2050.4,1394.7z M2081.1,1440.3
			c-20.7,14.5-40,27.5-58.5,41.4c-5.4,4,0.5,8.2,3.1,11.9c30.7,43.7,38.1,45.3,81.4,16.8c1.6-1.1,3-2.7,4.7-3.4
			c21.7-8.2,19.9-18.4,4-32C2103.6,1464.6,2093,1452.4,2081.1,1440.3z M1979.9,1695.4c5.4-2.7,10.6-5.2,15.8-7.9
			c25.8-13.7,51.8-26.9,77-41.6c6-3.5,25.2-4.9,12-18.1c-9.1-9.2-13.8-33.2-34.6-21.2c-28.6,16.5-55.8,35.5-83.4,53.6
			c-5.4,3.6-13,7.2-5.7,15.6C1966.8,1682.6,1967.4,1694.7,1979.9,1695.4z M1958.4,1309.3c-1-14.5-31.7-31.1-43.4-22.6
			c-11.7,8.5-22.3,18.6-32.8,28.5c-8.3,7.8-13.6,15.9-2.1,26.6c9.1,8.4,15.7,16.4,28.9,5.6c12.7-10.4,27.2-18.4,41-27.5
			C1953.9,1317.2,1958.1,1314.8,1958.4,1309.3z M2101.7,1359.2c-9.7-17.7-19.9-37-37.3-50.1c-7.6-5.7-14.3,3.2-20,7.8
			c-7.5,6,0.4,10.5,3.6,14c10.9,12.5,22.6,24.3,33.9,36.4c4.6,5,9.9,6.3,15.5,2.5C2100.4,1367.8,2103.8,1365.2,2101.7,1359.2z
			 M1883.3,1650.9c-0.8-2-1.2-4-2.3-5.5c-10.5-15-21.1-29.9-32.3-44.4c-0.4-0.5-11,4.1-11.1,6.5c-0.9,19.2,10.3,34.4,18.2,50.7
			c2.9,6,7,10,13.6,5.9C1874.8,1660.8,1882.2,1658.9,1883.3,1650.9z"/>
		<path class="st0" d="M1769.6,649.4c1.5-68.1,21.5-136.2,71.8-192.7c88.7-99.9,226.2-95.2,308.9,9.7
			c82.8,105.1,84.4,269.8,3.5,376.8c-87.4,115.7-239.1,115.4-325.5-1C1787.4,786.9,1769.9,724,1769.6,649.4z M2024.9,812.7
			c2.5-1.4,5.3-2.5,7.6-4.3c25.8-20.4,65.2-32.5,75.3-60.7c7.4-20.5-25.8-46.5-39.1-71.2c-1.4-2.5-3.4-4.7-4.9-7.2
			c-2.3-3.6-5.7-6.1-9.5-3.4c-27.2,18.7-54.5,37.2-81.1,56.8C1967.9,726.5,2017.3,812,2024.9,812.7z M2031.3,617.9
			c-4.6-7.7-9.3-15-13.3-22.7c-22.7-43.4-22.6-43.4-62.9-16.5c-12.9,8.6-25.9,16.9-38.4,26c-5,3.6-14.9,6.6-10.7,14.6
			c10.3,19.6,22.4,38.3,34,57.3c2.4,3.9,6.2,3.5,9.8,1c25.4-17.6,50.9-35.2,76.2-52.9C2028.2,623.2,2029.4,620.5,2031.3,617.9z
			 M1924.6,756.5c-1.7,0.9-3.7,1.4-5.2,2.6c-18.8,14.9-50.3,22.2-54.9,43.9c-3.7,17.5,23.1,33.3,39.4,47
			c6.6,5.6,14.3,10.1,22.1,14.1c14.4,7.5,45.9-3.8,52.5-18.2C1981.9,838.5,1932.6,756.7,1924.6,756.5z M1962.5,506.2
			c-11.1-16.2-20.8-37.8-37.2-51.2c-9.2-7.6-23.2,9.9-32.4,18.9c-13,12.7-24.4,27.4-35.2,42.2c-6.6,9,8.5,48.6,18.8,52.3
			C1883.4,570.9,1962.3,516.6,1962.5,506.2z M2138.2,539.6c-0.7-11.3-32.8-54.4-40.6-54.5c-6.7-0.1-61.8,40-61.8,45
			c0,6.6,36,58.1,40.7,58.3C2083.9,588.6,2138.5,545.4,2138.2,539.6z M1818.3,682.7c4.1,18.9,8.2,38.9,13,58.7
			c2.5,10.5,7.3,12.8,18.3,6.7c55.6-31,56.6-32.6,24.2-85c-4.3-6.9-5.8-23.5-19-15.9C1840.7,655.3,1821.2,660,1818.3,682.7z
			 M2156.3,718.2c9.1-27.1,8.8-52.1,7.1-76.9c-0.9-14.1,4.8-34.6-8.2-40.5c-12-5.5-24.3,11.8-36,19.6c-7.4,4.9-23.1,8.3-12.9,23.4
			C2122.5,667.5,2134.4,694.3,2156.3,718.2z M2054.9,449.9c-34.8-17.1-48.4-19-74.6-11C2009.8,492,1997.1,493.9,2054.9,449.9z
			 M2099.5,820.1c-16.6,12.4-33.2,24.8-49.8,37.3c1.6,2,3.3,3.9,4.9,5.9C2075.8,856.4,2091.2,842.4,2099.5,820.1z"/>
		<path class="st0" d="M1026.9,564.1c102.7-0.2,184.6,81.1,184.3,183c-0.3,101.1-80.6,181.8-181.8,182.7
			c-101.8,0.9-184.2-81.1-184.1-183.3C845.4,645.4,926.2,564.2,1026.9,564.1z M1161.5,747.7c0.2-74.9-57.4-134-131.8-135.3
			C955.5,611.2,893,673,893.4,747.3c0.4,73.5,60.5,132.9,134.6,132.9C1103.6,880.2,1161.3,823,1161.5,747.7z"/>
		<path class="st0" d="M1566.4,1680.9c0.5,118.1-92,212.1-209.8,213c-119.2,0.9-213.8-93-213.8-212
			c0.1-117.9,93.4-211.4,211.3-211.6C1472.1,1470.1,1565.9,1563.2,1566.4,1680.9z M1354.1,1845.7c90,0.3,164-73.2,164.3-163
			c0.3-89.8-73.5-164.1-163.2-164.3c-89.8-0.3-164,73.5-164.2,163.3C1190.7,1771.6,1264.1,1845.5,1354.1,1845.7z"/>
	</g>
</g>
</svg>
