<?xml version="1.0" encoding="utf-8"?>
<!-- Generator: Adobe Illustrator 23.0.0, SVG Export Plug-In . SVG Version: 6.00 Build 0)  -->
<svg version="1.0" xmlns="http://www.w3.org/2000/svg" xmlns:xlink="http://www.w3.org/1999/xlink" x="0px" y="0px"
	 viewBox="0 0 3000 3000" style="enable-background:new 0 0 3000 3000;" xml:space="preserve">
<style type="text/css">
	.st0{stroke:#000000;stroke-width:10;stroke-miterlimit:10;}
</style>
<g id="Layer_1">
</g>
<g id="Layer_2">
	<g>
		<path class="st0" d="M2589.5,1196c70.1,50,125,106.4,167.7,174.3c61.6,97.9,90.1,205.1,90.4,320.2c0.4,130.4,1,260.8-0.1,391.2
			c-2.5,287.5-190.5,521.3-466.7,581.1c-44.3,9.6-89.2,13-134.6,13c-174.7-0.2-349.4-0.7-524.2,0.1c-174.4,0.8-323-59.3-444.1-185.2
			c-9.8-10.2-17.9-12.1-31-7.4c-173.7,62.3-352.1,105.9-535.2,128.2c-122.6,15-245.7,27.5-369.2,8.3c-6.7-1-13.4-2.4-20-4
			c-155.1-36.1-212.5-212.7-109-335.3c7.1-8.4,14.9-16.3,24-26.2c-51.9-29.2-80-75.4-68.7-132.2c8.5-42.8,2.2-73.4-22.1-108.8
			c-23.5-34.3-21.2-77.9-14.6-119.1c0.9-5.7,4.8-11.2,0.7-17.1c-30.7-45.6-19-92.7-3.8-139.5c3.3-10.1,4.4-17.2-4.9-24.4
			c-49.3-38.1-46.5-131.8,1.2-182.2c15.4-16.3,32.8-29.8,53.3-39c10.8-4.8,14.6-9.7,12.4-23c-14.2-86.8,13.5-159.7,78.3-217.9
			c13.2-11.9,13.6-17.7,3.2-31.6c-77.2-102.3-123.1-218-134.4-345.3c-12.6-142.7,10.8-277.1,110.1-389.2
			c67.2-75.9,154.6-116.1,250.6-139.3c260.4-62.7,522.2-75.1,784.4-12.7c49,11.7,95.8,11.4,145.5,6.4
			c163.6-16.6,271.1,41.9,352.8,185.6c7.8-6.5,13.4-14.5,19.8-22.2c79.8-97.5,178.7-165,307.7-168.8c116.3-3.4,202.8,59.3,274,145.7
			c10.7,13,19.7,27.5,31.3,43.8c6-16.3,10.5-31.1,16.8-45.1c43.2-96.4,130.9-136,236.5-107.2c145.7,39.8,258.5,169.4,277,319
			c4.7,38,8.2,76.1,12.7,114.1c15.9,136.7-39.2,238.4-153.9,310c-60.6,37.8-127.2,60.8-196.4,77.1
			C2603.2,1192.6,2599.3,1193.6,2589.5,1196z M1295.1,1331.2c-12.7,4.2-17.1,14-22.9,21.7c-72.1,95.5-110,203.4-111.4,322.8
			c-1.5,139.8-1.6,279.6-0.1,419.4c2.8,247.9,171.9,460.7,412.4,521.6c37.3,9.5,75.4,15.4,113.7,15.5c207.1,0.3,414.4,7.8,621.2-3
			c257-13.4,478.9-239.1,493.8-495.4c6.2-106.4,1.4-213,2.5-319.6c0-4,0.5-8.7-5.1-10.1c-1.6,0.5-3.4,0.8-4.8,1.6
			c-5.9,3.4-11.7,7-17.5,10.5c-160.6,96.8-331.9,165.3-518.4,191.5c-20.2,2.8-31.5,12.2-42.1,27.6
			c-62.3,90.9-105.4,190.2-130.9,297.3c-2.8,11.9-2.8,25.7-13.7,37c-2.7-15.1-5.2-27.6-7.1-40.2c-15.3-99.9-48.1-192.5-107.6-275.5
			c-26.4-36.8-56.7-58.9-102.6-70.6c-278.1-70.6-455.7-246.6-534.3-522.5C1308.2,1418.6,1302.3,1375.2,1295.1,1331.2z M1603.9,662.4
			c64.1,17.1,107.8-21.1,142.1-78.4c5.4-9,5.8-16.2,1.9-25.9c-23.4-58-61.2-104-114.3-137c-77.2-48-161-49.7-246.8-33
			c-106.1,20.6-159,78.1-170.8,183.9c-7,63.5-13,127.1-16.8,190.9c-2.2,36-2.9,71.7,4.2,106.9c26.5,131.3,108.7,220.1,220.1,286.6
			c10.4,6.2,17.4,1.8,25.7-2.3c61.9-30.1,126.9-48.6,195.5-55.2c74-7.2,148.2-2.4,222.3-3.7c43.6-0.8,77.1-26.2,85.3-69.2
			c11.3-59.3,20-119.2,31.1-178.6c9-48.3,10-98.7,31.7-144.1c19.9-41.7,60.5-64.7,98.8-57.8c34.8,6.3,63.7,41.9,68.7,86.1
			c12.7,112.6,24.5,225.3,25.2,338.7c0.1,20,5.2,25.8,25.3,25.2c93.2-2.8,183.6,11.9,268.2,52.2c24.5,11.7,46.5,14.8,72.9,8.3
			c84-20.7,165.7-46.1,236.5-98.1c61.6-45.3,99.4-104.3,104.9-181.8c4.8-67.7-5.3-134.3-17.6-200.4
			c-25.2-135.9-133.8-244.5-265.9-268.4c-64.1-11.6-119.9,13.8-151.9,69.2c-37.4,64.6-34.9,134.8,6.4,184.1
			c15.7,18.7,23.7,19,37.1-0.9c10.4-15.5,18.7-32.5,28.4-48.5c33.9-56,82.5-57.9,121.5-4.9c58.2,79.2,43.7,193.2-32.4,255.4
			c-42,34.3-97.1,39.6-143,10.8c-60.9-38.3-96.4-93.8-89.4-166.6c10.5-108.9-36.4-189.7-114.9-256.6
			c-76.9-65.4-163.9-93.6-263.3-59.3c-86.8,29.9-157.8,81.5-210.3,158.1c-14,20.4-17.5,38-13.3,63c15.1,89.5,0.3,175.3-48.5,252.6
			c-51.3,81.2-135.9,106.6-224.9,70.8c-71.9-28.9-111.9-101.5-94.9-172.3C1456.6,687.8,1509,654.1,1603.9,662.4z M1805.5,1137.8
			c-32.4,0-64.8-0.4-97.2,0.1c-64.3,0.9-127.1,10.6-188,32.2c-17.2,6.1-23.1,14.8-23.2,33.1c-0.7,70.2,5,139.6,21.1,207.9
			c65.7,279.2,276.2,443.1,561.9,429.4c280.8-13.5,502.9-138.8,665-369.2c6.8-9.7,9.5-17.7,3.4-29.7
			c-103.4-202.7-303.5-319.2-552.3-304c-12.2,0.7-13.4,6.6-13.3,16.4c0.3,26.4,1.5,52.9-0.6,79.2c-3.8,49-14.4,96.4-47.9,134.8
			c-33.6,38.4-80.8,39.1-116.2,2.3c-24.6-25.6-35.1-57.6-40.2-92.1c-5.6-38.3-1.6-76.6,0.5-114.8c1-19.2-3.5-26.9-24.7-26.2
			C1904.4,1138.9,1855,1137.8,1805.5,1137.8z M1389.6,1186.9c-114.6-82.4-122.6-90.8-195.9-211.5c-6-10-12-10-20.8-7.1
			c-32.2,10.7-64.3,22-96.8,31.8c-14.6,4.4-15.6,11.4-11.6,24.4c8,25.5,8.5,51.6,4.5,78.3c-6.5,43-25.3,80.9-45.4,118.5
			c-6.5,12.1-11.1,19.8-26.1,9.6c-11.6-7.9-24.2-11-12.3-29.7c17.8-28,32.3-58.1,39.1-91.1c9.5-45.6,4.8-88.4-29-124
			c-27.8-29.2-59.8-53.4-94.9-72.9c-35-19.4-79.6-12.6-109.3,14.2c-9.4,8.5-13.7,17.4-12.8,31.2c5.7,82.9-40.6,157.4-116.9,188.7
			c-8.8,3.6-22.2,17.6-27.9-3.5c-3.6-13.2-13.5-26.9,10.9-35.8c43-15.8,71.6-48.4,85.6-92.3c27.2-85.2-26.7-171.3-120.6-195.4
			c-66.3-17-134-8.5-201-12.4c-8.4-0.5-13.8,6.1-19.7,10.8c-39.2,31.4-79.1,62.1-117,95c-24.3,21.1-65,33.4-68.4,65.8
			c-3.2,30.8,17.8,63,31.7,93.1c79.3,172.9,206,288.6,397.9,320.5c176.3,29.3,354.5,29.5,532.6,27.3c12.4-0.2,18.1-6.6,23.1-16.3
			c12.9-25,28.3-48.5,45-71.2C1276,1275.2,1327.9,1227.9,1389.6,1186.9z M1161.7,1462c-75.2,0-145.7,0.1-216.2,0
			c-16.5,0-11.3,11.8-10.5,19.9c3.8,40.7,9.3,81.3,12.3,122c8.4,115.9,9.9,231.7-17.7,345.8C885.8,2131,790,2217.1,604.8,2236.7
			c-66.8,7.1-134.8,2.7-201.5,10.6c-48.7,5.7-101.8,7.9-141,44.1c-52.6,48.4-63.4,110.3-49.9,178.1c12.9,64.4,57.5,92.6,117.5,104.3
			c104.3,20.3,209,13,313.3,2.7c194.7-19.2,384.5-61.9,569.6-125.8c17.1-5.9,23.8-8.9,10.6-27.9c-71-101.4-105.5-214.5-105-338.4
			c0.4-88.6-0.1-177.3,0.1-265.9C1118.7,1699.5,1109.6,1579.4,1161.7,1462z M1456.3,1199.4c-35.3,16.8-63.7,37.9-92.4,58.8
			c-20.9,15.2-34,31.1-26.1,59.3c4.8,17,3.4,35.6,6.5,53.1c26.9,153.1,87.9,289.1,200.8,399c143.4,139.7,322.4,193.3,515.4,204.2
			c267.8,15.1,506.5-76.1,729.9-215.5c7.3-4.6,14.1-9.1,14.3-19.4c1.2-78.5-1.7-156.5-30.6-234.2c-7.5,9.8-13.7,17.8-19.6,25.9
			c-41.1,55.9-89.2,105.3-141.9,150.1c-124.5,106-269.4,166.7-430,192.5c-121.5,19.5-242.1,17.5-357.1-29.2
			c-211.6-85.9-318.7-253.7-358.4-471.3C1456.7,1316.6,1453.5,1259.9,1456.3,1199.4z M909.1,1719.8c2.3-59.2-5.2-122.7-10.6-186.3
			c-1.1-12.5-3-21.7-19.5-17.6c-146.1,35.8-257.7,115.5-314.4,257.9c-58.9,147.7-8.4,288.6,92.9,402.4c7.9,8.9,15.4,7,24.9,4.4
			c99.5-27,157.8-95.6,190.6-189.4C903.2,1904.9,910.7,1815.3,909.1,1719.8z M1284.6,376.3c-192.3-43.2-380.6-53.1-570.8-27.3
			c-15.4,2.1-20.5,10.3-25,23.6c-28.1,84.8-80,151-157,197.3c-23.3,14-46.6,28.1-69.2,43.2c-32.7,21.9-59.1,47.8-63.3,90.6
			c-5.5,56.3,1,64.7,57.6,63.3c59.7-1.5,119.4-1.9,176.9,16.6c17.6,5.7,23.4,1.1,29.1-14.5c24.3-65.4,64.1-120.5,119.3-162.6
			c111.4-85.2,236.9-110.8,373.6-80.8c18.6,4.1,26.7,1.6,31.3-18.3c6.3-27.4,19.6-52.3,36.7-75.2
			C1239.7,411.2,1261,396,1284.6,376.3z M614.1,2192.5c-7.5-10-12.9-17.3-18.4-24.6c-80.8-106.4-120.5-224.6-86.8-356.9
			c45.4-178.8,169-281.6,341.5-331.7c8.2-2.4,16.6-3.8,24.9-5.7c5.6-1.3,13.6-1,12.2-9.4c-1.3-8.4-9.5-4.7-14.8-5.5
			c-5-0.8-10.2-0.3-15.3-0.5c-114.9-5.9-229.9-11.3-339.5-51.7c-12.3-4.5-15.7-0.3-20.6,9.6c-22,44.4-46,87.7-87.7,117.4
			c-8.6,6.1-5,12.5-3.7,20.2c11.2,66.8,2.9,127.8-55.3,172.1c-10.1,7.7-5.3,14.6-2.6,22.1c11.3,30.2,16.8,61,7.8,92.5
			c-3.2,11.2,1,16.7,8,23.9c34.1,35.1,50.1,77.6,42.5,125.9c-3,19.1-0.1,27.5,16.2,38.1c61.8,40.3,86.9,98.9,32.7,165.6
			c-0.8,1-0.1,3.1-0.1,6.1C506.9,2200.2,558.6,2200.6,614.1,2192.5z M1168.3,603.3c8.4-22.4,1.8-33.2-23.1-37.2
			c-28.6-4.7-57.1-8.9-86.1-9.4c-161.3-3.1-299.8,86.4-358.5,231.2c-6.1,15.1-7.8,25.6,8.2,36.3c20,13.4,35.4,32.3,45.9,54
			c6.6,13.7,11.4,14,23.9,6c51.4-32.9,104-34.1,156-0.8c33.1,21.1,64.8,44.3,91.5,73.2c8.1,8.8,14.6,11,26.3,6.8
			c34.4-12.4,69.2-23.5,104.1-34.4c12.4-3.9,15.4-9.6,11.9-22.3c-14.5-52.4-16.4-105.6-10.6-159.6c2.9-27.2,2.9-54.7,4.4-83.9
			c-37.2,26.2-70.4,25-90.2-1.3c-17.6-23.3-13.9-57,8.3-76C1106.2,563.9,1137.2,570,1168.3,603.3z M648.4,359.9
			c-61.4,9.7-118.8,20.3-174.9,37.1c-139.8,41.8-236.1,128.3-277,271c-22.7,79.2-21.8,159.8-12.3,240.7c2.4,20.4,11.5,10.1,19.4,3.8
			c49.8-40,99.3-80.3,149.5-119.7c10.2-8,11.1-14.8,8.5-27.5c-13.6-65.1-2.4-123.4,51.7-168.5c33-27.5,71.1-46.7,106.8-69.8
			C581.4,487.3,623.1,432.4,648.4,359.9z M1967.5,1095.2c59.9,0,116.6-1.1,173.2,0.6c21.8,0.7,24.8-7.8,24.6-26.4
			c-1-108.3-13-215.7-23.6-323.2c-1.1-10.8-4.4-21.7-8.5-31.9c-11.9-29.5-36.4-35.6-61.1-15.8c-16,12.9-24.6,30.4-28,50.1
			c-10.3,58.5-19,117.4-30.4,175.7C2002.5,981.2,2004.7,1041.5,1967.5,1095.2z M1765.4,635.6c-27.9,33.5-58.3,61.2-102.2,68.7
			c-28.8,4.9-57.6,1.8-86.4-0.4c-32-2.5-61.1,2.8-80.5,32.3c-21.3,32.3-26,66.5-9.2,101.6c36.1,75.4,154.5,94.5,211,33
			C1758.9,804.5,1773.9,723.5,1765.4,635.6z M228.5,1427.3c1.6,26.7,3.2,50.8,24.2,67.3c37.9,29.8,112.9,26.1,147-7.8
			c25.7-25.4,43.3-56.6,59.4-88.6c5.2-10.3,4.1-16.1-7-21.9c-46.5-24-87.4-56-124.2-92.9c-11.3-11.3-18.8-10.5-29.7-1.3
			C252.3,1320.8,232.9,1371.8,228.5,1427.3z M249.4,1708.5c70-0.4,105.7-25.2,115.8-83.4c2.7-15.8,1.6-32.3,1.5-48.4
			c0-14.9-5-22.3-23.1-21.3c-42.1,2.4-83.6-1.2-119.1-28c-5.3-4-11.1-4.2-16.9-1.8c-37.6,15.2-65.9,40.3-75.1,80.8
			c-10.9,48.3,12.6,83.5,61.3,94.6C212,1705.2,230.9,1706.1,249.4,1708.5z M2454.9,693.2c-11.9,60.6,19.5,122.6,73,147
			c25.9,11.8,51.8,12.4,75.2-4c45.1-31.7,66.9-76.4,63.7-131.2c-1.9-31.9-14.7-60.9-37.5-84.5c-13-13.5-24.6-13.6-34.5,3.2
			c-9.1,15.3-17.9,30.8-26.8,46.2C2536.3,723.8,2505.9,730.6,2454.9,693.2z M295.8,2221.1c15.8-3.3,36.5-7.7,57.2-12.2
			c37.4-8.2,64-31.3,82.6-63.2c17-29.2-17.6-88.1-51.3-89.4c-3.1-0.1-7.1,1-9.3,3c-41.5,38-90.7,32.4-140.1,24.4
			c-9.5-1.5-13.6,1.5-17.8,9.4C187.1,2148.9,228.6,2221.4,295.8,2221.1z M2019.3,1204.4c0,25.6-1,43.5,0.2,61.3
			c1.8,25.9,9.2,50.3,25.6,70.9c19.3,24.2,39.6,24.5,59.3,0.7c6.4-7.7,11.6-16.9,15.7-26.1c18.2-40.4,22.6-83.5,21.4-127.2
			c-1.5-55.4,5-45.9-46.4-45.9c-23.4,0-53.3-10.7-68.8,4.9C2011.1,1158.5,2020.5,1188.5,2019.3,1204.4z M283.3,2046.6
			c28,0.3,54.9-2.3,70.8-30.2c20-35.3,13.1-87.4-15.1-116.3c-4-4-7.4-10.5-14.5-5.1c-43.6,33.4-90,28.9-137.5,10.2
			c-9.8-3.9-13,0-14.4,10.2C161,1996.9,202.4,2046.3,283.3,2046.6z M157,1809.1c1.7,14.2-4.3,31.2,10.8,40.1
			c29.6,17.4,61.3,30.2,96.7,27.1c16.6-1.5,30.7-9.5,40.5-23.8c15.8-23.1,15.3-74.9,0-98c-5.8-8.8-12.9-6.2-20.2-5.7
			c-23.8,1.6-47.7,2.1-71.4-1.3c-45.8-6.5-47.6-5.3-54.9,41.5C157.5,1795.7,157.4,1802.6,157,1809.1z M2080,2196.9
			c26.3-62.6,58.7-121.1,98.1-181.9c-69.8,7.4-132.6,1.3-200.7-4.4C2023.6,2070,2055.3,2130.6,2080,2196.9z"/>
		<path class="st0" d="M2474.6,2333c-71.1,0-127-55.1-127.1-125.2c-0.1-70,56.1-125.5,126.9-125.6c70.9-0.1,127.4,55.5,127.6,125.3
			C2602.1,2277.4,2545.5,2333.1,2474.6,2333z M2391.7,2207.3c-0.2,48.1,35.8,84.6,83,84.5c46.2-0.1,82.1-36.1,82.6-82.5
			c0.5-48.3-34.7-85.2-81.8-85.8C2428.4,2122.9,2391.9,2159.5,2391.7,2207.3z"/>
		<path class="st0" d="M1794.6,2206.8c0.1,72.9-52.5,126.6-124,126.5c-71.9-0.1-126.9-54-127.2-124.7c-0.4-72,55-126.7,127.9-126.7
			C1741.3,2082,1794.5,2135.8,1794.6,2206.8z M1753.1,2208.1c0.1-46.9-37.2-84.7-83.7-84.5c-46.6,0.2-83.8,38.1-83.4,85
			c0.5,45.9,36.9,82.6,82.6,83.2C1715.1,2292.4,1753,2254.9,1753.1,2208.1z"/>
		<path class="st0" d="M831.3,737c30.6-0.1,55.6,24.6,55.6,54.8c0,30.2-25.1,55.2-55.5,55.2c-30.7-0.1-55.3-24.6-55.3-55.1
			C776.2,760.9,800.1,737.1,831.3,737z"/>
		<path class="st0" d="M972.3,773.4c-31.9-0.5-54.1-23.3-53.5-55c0.6-31.2,24.3-53.5,56.1-53.1c31.1,0.4,54.2,24.5,53.6,55.7
			C1027.8,752.4,1004.8,773.8,972.3,773.4z"/>
	</g>
</g>
</svg>
