<?xml version="1.0" encoding="utf-8"?>
<!-- Generator: Adobe Illustrator 23.0.0, SVG Export Plug-In . SVG Version: 6.00 Build 0)  -->
<svg version="1.0" xmlns="http://www.w3.org/2000/svg" xmlns:xlink="http://www.w3.org/1999/xlink" x="0px" y="0px"
	 viewBox="0 0 3000 3000" style="enable-background:new 0 0 3000 3000;" xml:space="preserve">
<style type="text/css">
	.st0{stroke:#000000;stroke-width:10;stroke-miterlimit:10;}
</style>
<g id="Layer_1">
</g>
<g id="Layer_2">
	<g>
		<path class="st0" d="M920.4,2222.1c-52.5-30.9-89.4-74.5-93.9-133.5c-3.9-50.6-16.3-99.2-22.3-148.9
			c-11-90.8-11.6-182.3-9.2-273.8c1.5-58.4,18.2-111.8,52.4-159.5c4.9-6.9,8.8-11.5,0.8-20.3c-175.2-193.6-130.3-460.3,61.1-602.4
			c1.1-0.8,1.9-1.9,3.8-3.7c-16.9-13-34.4-25.1-50.3-39c-99.5-86.6-130.4-205.4-78-326.8C855.1,351,974,233.2,1139.4,167
			C1308.6,99.1,1485.1,65.4,1668,62.1c179.8-3.3,358.8,2.3,536.8,28.3c8,1.2,21.6-1.3,22.4,8.2c1.2,13.6-3,28-6.7,41.6
			c-1.2,4.5-8.4,2-13,1.3c-188.7-29-378.5-35.5-569.1-28.1c-75.9,2.9-151.2,9.6-225.7,24.9c-24,4.9-24,4.8-13.7,27.9
			c25.8,57.6,48.4,116.1,56.7,179.3c3.5,26.5,2.4,52.7-5.3,78.4c-15.1,50.6-60.5,81.4-123.5,84.7c-42.5,2.2-85.3,0.7-127.6,7.7
			c-30.2,5-51.7,20.1-59.9,50.2c-9.1,33.5-7.7,66.2,15.6,94.1c12,14.3,29.5,14.6,47,12.6c43.1-4.8,83.9-21,127.2-25.4
			c59.4-6.1,114.8,26.1,131.9,79.1c12.9,39.8,0.5,73.6-27.2,102.3c-46.2,47.8-105.2,72.8-168.1,89.5c-96,25.4-191.5,24.9-285.6-9
			c-10.3-3.7-17.7-2.2-26.3,3.5c-169,113-233.6,346.1-76.3,532.1c8.9,10.5,14.2,13,27,3.2c107.5-82.7,271.8-79.8,378,3.9
			c33.3,26.2,64.2,54,86.7,89.9c36.1,57.6,16.7,104.7-49.5,120.5c-60.9,14.5-122.9,19.3-185.3,20.3c-5.8,0.1-13.7-3.1-17,2.3
			c-3.9,6.6,3,12.6,6.4,17.9c18.1,28.6,38.3,55.9,54.7,85.4c50.9,91.6,32.7,177.3-51.9,239.4c-75.2,55.2-157.1,69.2-245,31.8
			c-2.4-1-5-1.7-7.6-2.6c-4.5,58.4,43.1,121.4,99.1,132.7c7.5,1.5,13.3-1.5,19.4-3.9c47.3-18.4,96.6-26.4,147-26.5
			c261.4-0.2,522.9-0.5,784.3,0.1c193.7,0.5,352.9,128.8,393.2,315.4c50.3,232.7-119.3,459.3-356.9,476.6
			c-18.9,1.4-37.9,2.1-56.8,2.1c-253.3,0.1-506.6,0.2-759.9,0.1c-116.1,0-215.9-39.8-296.4-124.5c-165.4-174.1-139-453.7,55.7-594.5
			C908.5,2231,913.8,2227,920.4,2222.1z M1195.5,2903.5c30.5,0,61-1.1,91.4,0.4c17.6,0.9,21-5.4,20.8-21.7
			c-0.9-70.4-1-140.8,0-211.2c0.2-16.9-4.1-21.5-21.1-21.1c-52.8,1.2-105.6-0.7-158.4,1c-20.8,0.7-25.7-5.3-25.5-25.5
			c0.2-19.8,4.2-26.6,25.5-25.9c53.4,1.7,107-0.3,160.4,1c18,0.4,18.7-7.6,19.2-21.5c0.5-15.4-3.3-21-19.9-20.7
			c-50.8,1.1-101.6-0.3-152.3,0.8c-16.2,0.3-22.2-4.8-19.9-20.5c0.6-4,0.7-8.2,0-12.2c-2.7-15.9,4.7-18.9,19.2-18.6
			c52.1,0.8,104.3,0,156.4,0.6c11.9,0.1,17.4-2.2,16.3-15.5c-1.2-13.4-1.2-27.1,0-40.6c1.2-14.2-4.9-16.7-17.5-16.3
			c-52.1,1.6-104.2,1.7-156.3,3.6c-14.4,0.5-19.9-3.8-18-17.9c0.6-4.6,0.6-9.6-0.2-14.2c-2.5-14.9,4.5-17.7,18.1-17.8
			c52.8-0.5,105.6-2.2,158.3-3.3c8.4-0.2,15.7,1,15.6-11.9c-0.6-50.8-0.4-101.5-0.1-152.3c0-8.5-2.5-12.3-11.5-12.1
			c-72.3,2.1-144.9-5.4-217,4.9c-142.7,20.4-280.5,144.8-290.1,324.3c-8.6,161.4,93.7,298.5,236,346.9
			C1080.5,2905,1137.9,2904.2,1195.5,2903.5z M1852.9,2903.5c38.6-1.7,84.7,2.9,130.5-4.3c178.7-28.3,301.3-183.6,291.3-369.6
			c-9.1-170-154.5-311.7-329.3-318.5c-68.3-2.7-136.7-0.6-205.1-1.2c-12-0.1-14.6,4.6-14.6,15.5c-0.2,51.4-0.8,102.9-2,154.3
			c-0.3,12.3,3,14.1,15.1,12.3c41-6.1,82.2-7,123.5-2.5c23.6,2.5,42.2,13.8,55.5,33.3c28.9,42.4,33,88.1,14.8,135.2
			c-4.9,12.7-4.1,21,2,32.8c35.4,68.9,31.2,147.7-75.2,170.2c-40.8,8.6-82.1,7.6-123.3,7.2c-14.4-0.1-18.5,4.3-18.2,18.4
			c0.8,33.8,0.7,67.7-0.3,101.5c-0.4,13.1,4.6,15.8,16.4,15.6C1771.1,2903.1,1808.3,2903.5,1852.9,2903.5z M1133.2,886.6
			c28.6,0.5,56.8-2.8,84.8-8.1c25.9-4.9,51.5-11.3,76.1-20.8c38.7-15,76.1-32.4,104.7-63.9c27.2-30,21.4-65.8-13.7-86.9
			c-15.7-9.5-32.8-11.1-50.9-9.5c-42.7,3.8-82.7,20.2-125.2,25.1c-57.8,6.7-100.8-20.5-117.4-76.4
			c-26.7-90.4,19.2-167.4,108.9-181.3c18-2.8,36.4-3.8,54.7-3.8c12.1,0,18.1-4.8,23-15.2c37.5-78.3,33.7-154.3-12.3-227.9
			c-22.6-36.2-22.8-35.9-62.8-22.5c-166.4,55.8-288.2,163.2-365.4,320c-56.2,114.1-27.1,226.3,75,302.3
			C978.1,866.4,1052.8,885.6,1133.2,886.6z M1676.5,2556.8c0-108.3-0.5-216.6,0.5-324.9c0.2-18.5-5.2-22.4-22.6-22.3
			c-92.1,0.8-184.1,0.8-276.2,0c-16.8-0.1-21.6,4.5-21.6,21.5c0.6,216.6,0.6,433.3,0,649.9c0,17.3,3.6,23.2,22.1,23
			c88.7-1,177.4-0.9,266.1-0.1c9,0.1,14.9-1,18.5-4.5c5.8-5.7,4.8-15.2,4.6-17.7C1666.6,2863.6,1670.4,2737.2,1676.5,2556.8z
			 M846.8,1747.2c0,29.8,0.8,59.6-0.3,89.3c-0.6,15.8,6.8,22.6,20.1,27.8c92.5,36.2,179.9,27.3,263-27.5
			c12.4-8.2,12.2-15.4,4.9-26.1c-17-25.2-34.2-50.3-50.3-76.1c-14.5-23.3-27.7-47.8-13-75.9c14.2-27.1,40.7-25.3,65.8-25.7
			c55.6-0.9,110.9-4.9,165.2-17.2c39.7-9.1,43.6-20,21-53.6c-0.8-1.1-1.5-2.2-2.4-3.3c-66.2-83.2-149.4-129-258.7-119.8
			c-105.1,8.9-191.6,82.3-212.6,182.6C841.2,1663,844.5,1705.3,846.8,1747.2z M1156.7,1879.6c-6.8,4-10.8,6.3-14.7,8.6
			c-53,31.4-109.9,48-171.9,47.2c-35.6-0.4-69.9-6.9-103.6-17.8c-5.1-1.6-14.5-9.2-14,4c1.3,35.2,6,68.9,41.9,88.6
			c25,13.7,52.1,22,79.4,21.5c59.3-1.2,110.5-24.4,150.8-68.9C1145,1940.3,1159.6,1914.9,1156.7,1879.6z M1790.8,2559.5
			c20.9,0,41.8,0.3,62.7-0.1c22.6-0.4,34.1-13.7,37.9-34.7c4.5-24.7,1.7-48.4-12.2-70c-5.3-8.3-12.2-14.7-22.4-15.5
			c-40.5-3.1-80.8-3.6-121.1,3.6c-9.8,1.8-13.6,6.2-13.5,16.2c0.2,29.7,0.2,59.4-0.7,89.1c-0.4,11.6,4.8,13.3,14.5,13
			c6.5-0.2,9.7,0.4,14.2-0.3C1756.8,2559.9,1768.4,2559.1,1790.8,2559.5z M1789.1,2611.2c-13.5,0-33.1,0.5-52.6-0.2
			c-10.9-0.4-15.9,2.4-15.8,14.4c0.2,26.3-0.5,52.7-1.6,79c-0.5,11.5,3.4,15.4,15,15c29.7-1.2,59.4-0.1,89-3.4
			c21.7-2.4,42.6-6.6,61.8-17.3c12.3-6.8,18.6-17.2,19.2-31.1c0.9-19.4-4.3-37.3-13.4-54.2c-3.3-6.1-7.7-9-14.8-7.3
			C1849.2,2612.8,1822,2608.4,1789.1,2611.2z M1329.5,455.7c47.5-1.1,70.9-21.4,77.2-64.1c1.8-12.1,1.4-24.2-0.1-36.3
			c-7.5-61.1-29.7-117.5-54.9-172.9c-12.3-26.9-12.1-26-40.7-19.7c-16.3,3.6-17.3,8.4-8,21.5c38.9,55.1,54,116.9,48.9,183.9
			C1349.7,398,1340.1,426.1,1329.5,455.7z"/>
		<path class="st0" d="M1749.5,296.5c133.7-0.8,242.3,106.8,243.8,241.5c1.4,134.2-109.7,246.3-244.5,246.6
			c-133.9,0.3-244.5-109.6-244.4-244.3C1504.5,385.5,1636.5,289.9,1749.5,296.5z M1780.6,615.8c33.2-39.7,33.2-39.7,3.8-69.7
			c-0.9-1-1.9-1.9-2.8-2.9c-21.5-22-21.7-22.1-38.5,4.1c-4.2,6.5-12.7,12.2-2.7,22.2C1754.6,583.8,1767,600,1780.6,615.8z
			 M1722.9,486.9c-1.2-2.7-1.6-5-2.9-6.3c-13.5-14.2-27.1-28.3-40.8-42.5c-4.9-5.1-7.6-1.9-11,2.3c-23.2,28.5-22.8,36.7,3.8,62.6
			c5.8,5.7,11.6,11.4,17.5,16.9c2.3,2.1,5.5,6.5,8.2,3C1706.7,511.4,1714.7,498.9,1722.9,486.9z M1751.8,439.4
			c1.3-0.8,2.8-1.3,3.4-2.3c6.7-10.1,15.4-19.6,19.3-30.7c3.2-9.3-9-13.5-14.4-19.8c-7.5-8.7-15.2-17.5-24.1-24.5
			c-5-3.9-9.4-19.4-17.4-8c-7.5,10.7-24.6,22.6-13.6,38.1c11.6,16.3,27.7,29.4,42,43.9C1748.3,437.5,1750.2,438.3,1751.8,439.4z
			 M1899.7,524.6c-29.4,38.3-29.4,38.3,1.8,70.3c5.2,5.3,10.6,10.5,15.6,16c6.1,6.7,9.5,7.5,13.7-2.4c13.3-30.7,12.3-38.1-10.8-61.6
			C1913.4,540.1,1907.3,532.8,1899.7,524.6z M1836.4,527.6c26.8-37.7,26.8-37.7-0.2-64.9c-24.1-24.2-23.8-24-41.5,5.3
			c-4.7,7.8-4.8,12.8,1.8,19.2C1809.7,499.8,1822.1,513.1,1836.4,527.6z M1845.1,612.8c-23.6,35-23.6,35,6.8,64.1
			c3.4,3.3,6.4,7.1,10.2,9.8c14.3,10.4,17.7-5.9,25-11.2c5.7-4.1,14.8-9.7,4.6-19.1C1876.4,642.4,1861.3,628,1845.1,612.8z
			 M1739.5,687.5c20.7-28.8,20.7-28.8-2-51.1c-6.3-6.2-11.9-13.3-19.1-18.1c-5.1-3.5-9.7-19.3-17.5-6c-5.6,9.7-27.1,18.3-8.7,34.5
			C1707.5,660.2,1723,673.2,1739.5,687.5z M1668.6,568.8c-8.5-8.2-16.7-15.9-24.7-23.8c-22.5-21.9-22.6-22-37.5,4.7
			c-3.3,5.9-11.7,11.9-3.9,19.3c13,12.2,25.9,24.8,41.6,33.8c0.3,0.2,1.4-0.3,1.7-0.8C1653,591.7,1660.1,581.2,1668.6,568.8z
			 M1901.5,421.5c-8.8-15.3-21.3-25.6-34-35.5c-4.6-3.5-9.5-12-16.4-2.6c-5.1,7-11.4,13.6-1.2,22.2c9.7,8.3,18,18.2,27.4,26.9
			c3.5,3.2,6.4,11.6,12.3,6.9C1895,435.2,1897.7,427.6,1901.5,421.5z M1706.1,724.7c-14.3-12.2-28.8-24-42.7-36.7
			c-7-6.4-11-5.4-15.4,2.5c-3.3,5.9-8.9,11,0.7,16.2C1666.5,716.4,1684.2,725.6,1706.1,724.7z M1635.7,397c-2.2-7-5.5-11-11.8-6.2
			c-11.1,8.6-21.1,18.6-29,30.2c-5.2,7.7,4.3,9.5,7.3,13.7c1.9,2.6,5.8,7.9,9.2,2.8C1620.2,424.3,1627.9,410.3,1635.7,397z
			 M1601.2,667c16.1-12.7,15.5-22.7-0.3-32.9c-9.9-6.4-17.2-16.5-31-23C1575.1,634.2,1588.5,649.6,1601.2,667z M1555.7,531.2
			c31.2-38,32.3-45.3,9.7-56.4C1559.5,492,1554.4,509.3,1555.7,531.2z M1794.1,728.7c8.5-3,23.9-1.8,24.5-11.1
			c0.5-8.5-12.2-20.3-21.2-20.7c-9-0.4-13.5,13.5-16.1,22.5C1779.2,726.4,1787.3,728,1794.1,728.7z"/>
		<path class="st0" d="M1902.4,1173.5c0.3,47.6-36.1,86.4-84.3,89.9c-45.5,3.3-88.5-31.5-92.7-78.2c-1.7-18.5-6.6-22.9-25.3-23.5
			c-48.6-1.5-85.3-43.5-83.9-91.8c1.4-47.3,40.5-85.6,87.9-86.2c48.9-0.6,89.1,36.1,90.3,85.1c0.4,15.8,6.7,16.7,18.9,16.7
			C1864.3,1085.7,1902.1,1123.4,1902.4,1173.5z M1745.6,1072.7c-0.2-20.9-19.9-40-40.7-39.5c-20.2,0.5-38.7,19-39.1,39.1
			c-0.4,21.2,18.4,40.4,39.7,40.5C1726.7,1112.9,1745.8,1093.8,1745.6,1072.7z M1813,1212.4c23.5,0.1,39-15.4,38.9-38.9
			c-0.1-22.7-17.2-39.6-39.6-39.1c-21.2,0.4-38.1,17.4-38.4,38.7C1773.6,1195.8,1790,1212.3,1813,1212.4z"/>
		<path class="st0" d="M2018.9,1845.8c0,20.3-0.5,40.6,0.2,60.8c0.4,11.1-2.9,16.8-14.7,15.2c-2-0.3-4.1,0-6.1,0
			c-33.8-0.5-28.1,3.9-28.7-29.3c-0.1-4.1-0.5-8.2,0.1-12.2c2.5-16-4.1-22.7-19.9-20c-17.1,2.9-25.1-4.9-20.4-20.9
			c4.2-14.3-11.9-17-12.4-27.8c-0.5-12.8-1.8-25.6-1.9-38.4c-0.3-25,0.5-50-0.3-75c-0.4-12.6,3.9-16.3,16.3-15.9
			c41.8,1.2,33-3.9,34.1,32.4c0.1,4.1,0,8.1,0,12.2c0,40.7,0,41.1,41,43.3c11.1,0.6,13.6,4.9,13.3,14.8c-0.5,20.2-0.2,40.5-0.2,60.8
			C2019.1,1845.8,2019,1845.8,2018.9,1845.8z"/>
		<path class="st0" d="M1571.6,1129.2c37.4,0,67.2,29.8,67.1,66.9c-0.1,36.8-30.7,67.4-67.3,67.4c-36.7-0.1-67.1-30.6-67.1-67.5
			C1504.3,1158.7,1534.1,1129.2,1571.6,1129.2z M1572,1213.1c9-1.2,16-5.6,16.2-16.4c0.2-10.2-5-16.9-15.5-17.5
			c-11.4-0.6-17.9,5.5-18,16.9C1554.6,1206.8,1561.1,1211.8,1572,1213.1z"/>
		<path class="st0" d="M1779.4,1323.1c0.7,29.1-19.7,50.7-48,51c-27.3,0.3-49.4-20.8-50.4-47.9c-1-28,20.6-51.3,48.3-52.3
			C1757.4,1273,1778.7,1293.9,1779.4,1323.1z"/>
		<path class="st0" d="M1730.9,1684.3c0-6.1,0.9-12.3-0.2-18.1c-3.8-21.2,5.7-25.3,25.5-25.6c20.6-0.3,28.2,5.5,25.2,26
			c-1.3,9.2-0.2,18.8-0.2,28.2c0,30.9-10.3,38.5-41.5,31c-6.6-1.6-8.9-4.9-8.8-11.1C1731,1704.5,1731,1694.4,1730.9,1684.3
			C1730.9,1684.3,1730.9,1684.3,1730.9,1684.3z"/>
		<path class="st0" d="M1864.1,1877.5c0,6.1,0.1,12.2,0,18.3c-0.4,28.9,4,24.5-25.8,26.5c-20,1.3-26.2-5.5-24.3-24.8
			c1.6-16.1,0.8-32.4,0.2-48.6c-0.4-10.5,1.7-15.5,14.2-15.7C1864.1,1832.5,1864.1,1831.8,1864.1,1877.5z"/>
	</g>
</g>
</svg>
