<?xml version="1.0" encoding="utf-8"?>
<!-- Generator: Adobe Illustrator 23.0.0, SVG Export Plug-In . SVG Version: 6.00 Build 0)  -->
<svg version="1.0" xmlns="http://www.w3.org/2000/svg" xmlns:xlink="http://www.w3.org/1999/xlink" x="0px" y="0px"
	 viewBox="0 0 3000 3000" style="enable-background:new 0 0 3000 3000;" xml:space="preserve">
<style type="text/css">
	.st0{stroke:#000000;stroke-width:10;stroke-miterlimit:10;}
</style>
<g id="Layer_1">
</g>
<g id="Layer_2">
	<g>
		<path class="st0" d="M2298.8,2059.4c41.7,34.1,80.7,71.1,112.4,115c98.2,135.9,139.4,285.7,102.9,451.6
			c-35.3,160.5-149.3,265.6-311.3,293.2c-120.1,20.5-234.6,1.9-344.5-48.5c-11.1-5.1-20.1-6.7-32.3-0.9
			c-274.2,130.8-548.2,127.3-821-3.9c-19-9.1-34-9.6-53.2-2.7c-86.5,31-175.4,38.6-265.3,17.9c-144.4-33.3-242-138.6-257.9-286.6
			c-25.1-234.5,54.7-423.8,252.8-558.4c4.5-3,8.8-6.2,14.5-10.2c-25.6-20.8-50.8-40.1-74.8-61c-82.4-71.8-147.8-155.7-187-259.1
			c-17.7-46.7-24.9-94.9-26.4-143.9c-3.5-115.8-1.5-231.7,2.5-347.5c3.6-106.2,4-212.7,14.4-318.5c8.3-84.1,30-166,56.8-246.2
			c45.7-137,109-264.2,206.6-372.4C798.3,155.1,933.4,83.3,1099.4,73c127.2-7.9,254.3-15.9,381.9-12.8
			c126.9,3.1,252.9,14.8,378.1,35.8c42.2,7.1,82.5-6,123.7-9.5c111.3-9.4,222.3-11.1,330.7,19.6c114.4,32.4,196.6,103.7,237.7,216.6
			c17.7,48.8,21.3,101.3,21.6,153.2c0.6,98.5-13.8,195.4-34.6,291.4c-5.4,24.9-15,48.2-31.3,68.1c-5.5,6.7-5.7,12.6-3.2,20.5
			c32.7,103.5,56.3,209,69.1,316.8c14,117.7,28.2,235.1,19.3,354.4c-16,215.9-109,389.2-280.6,520.7c-3.2,2.5-6.6,4.8-9.7,7.4
			C2301.1,2056,2300.4,2057.3,2298.8,2059.4z M1898.3,2830.6c1.5,2,2,3.5,3.1,4c4.9,2.4,9.8,4.7,14.9,6.6
			c56.5,21.6,115,33.9,175.3,36.1c69,2.5,136-8,198.7-38c127.3-60.9,181.1-169.7,185.6-303.7c6.1-180.9-70.4-325.2-209.8-438
			c-9.4-7.6-15.3-6.5-24.5-0.5c-137,89.6-289.3,135.4-450.7,150.5c-185.8,17.4-371.8,14.5-557.1-7.4
			c-171.5-20.3-331.8-73.9-475.5-171.7c-12.8-8.7-21.9-8.2-34.4-0.2c-189.8,121.2-267.4,296.4-246,517.2
			c6.9,70.9,35.3,134.1,90.8,182.1c76.5,66.2,167.6,82.1,264.2,72c109.2-11.4,203.2-58.3,284.2-131.9c25.3-23,24.9-22.4,49,1
			c9.4,9.1,8.4,13.9-0.5,22.3c-34.3,32.4-71.1,61.4-111.5,85.9c-4.8,2.9-11.7,3.8-13,10.9c190.1,93.3,420,116.6,636.4,48.6
			c134.2-42.1,251.5-113.2,352.3-211.3c4.1-4,8.8-13.2,13.6-9.9c11.5,8.1,23.2,17.8,30.6,29.4c5.9,9.2-7.4,14.1-13,19.6
			C2011.5,2752.4,1956.9,2794.1,1898.3,2830.6z M1600.5,1948.1c47-1.1,93.9-4.2,140.3-12.8c168.2-31.2,324.8-93,472.9-177.7
			c119.4-68.3,223.7-154.9,316.3-256.2c10.8-11.9,16-23.9,15.9-40c-1-128.4-17.5-255.3-37.7-381.8c-1.4-9-5.6-15.7-12.9-22.1
			c-90.1-78.5-225.4-75.3-312.9,7.4c-8.1,7.7-9.4,15.3-8.6,25.3c3.6,43.9-1.2,87-14.4,129.1c-45.4,144.9-190.2,253.2-353.3,258.8
			c-130,4.5-237.2-46.8-320.4-146.7c-10.6-12.7-16.1-18.1-32.4-5.1c-77.1,61.6-155.6,121.5-233.9,181.6c-8.5,6.5-14.5,13.7-17.6,24
			c-12,39.6-31.7,75.3-58.3,106.8c-7,8.3-6.8,14.7-2.7,23.4c23.8,50.1,52,97.2,89.9,138.2
			C1330.5,1908.5,1457.8,1947.7,1600.5,1948.1z M484.2,1694.1c17.3,45.8,38.6,84,64.7,119.8c64,88,148.5,153.1,237.4,213.3
			c160,108.4,339.5,157.8,529.9,171.4c163.3,11.6,326.7,15.8,489.8-3.2c163.8-19.1,315.5-70.5,450-168.4
			c102.7-74.8,186.2-165.1,235.9-283.8c22.9-54.7,37.9-111.3,44.6-170.9c-8.5,1.5-11.5,7.3-15.7,11.5
			c-232.4,227.7-510.6,362.8-831.9,408.8c-100.3,14.3-200.3,6.7-296.4-27.1c-129.9-45.6-221.9-134.6-284.3-255.9
			c-11.4-22.2-11.5-22.1-30.6-8c-23.6,17.4-48.7,32.4-75.8,44c-107.6,46.1-218.5,45.9-330.7,22.2
			C606.1,1754.1,544.6,1731.5,484.2,1694.1z M458.3,1274.2c-2.5,94.1-1.7,188.1-1.3,282.2c0.2,41.1,15.5,68.9,48.8,91.1
			c48.3,32.2,101.1,52.8,157,66.7c95.6,23.8,191.7,30.2,286.1-2.5c112.1-38.9,191.8-110.7,213.9-232.8c13-71.8,7.2-144-2.2-215.8
			c-6.1-46.5-30.1-82.9-66.7-110.8c-55.1-42-116.9-71.7-182.3-94.2c-18.9-6.5-38.5-9.1-58.2-10.2c-68.5-3.7-115.2,34-124.5,101.8
			c-4.8,35.1-5.4,70.7-1.7,106.1c2.7,25.9,9.7,50.8,25,72.6c27.1,38.7,80.9,47.5,115.4,18c5.4-4.6,8.8-4.6,14-1.7
			c7.8,4.3,15.5,8.7,23.6,12.2c10.7,4.6,10.3,9.9,3.8,18.5c-19.1,25.1-44.8,37.5-75.5,38.9c-71.9,3.3-127.1-37.2-147.5-110.2
			c-17.6-63-14.1-127.1-1.2-190.3c10.3-50.5,43.7-83.9,91.5-101.8c21.1-7.9,11-24.3,10.4-36.2c-0.7-14.2-13.8-6.6-20.9-5.2
			c-47.9,9.4-82.1,38.4-107.3,78.5c-36.6,58.5-44.7,125-49.9,191.8c-4,51-4.6,102.2,11.5,151.9c16.4,50.8,48.9,85.6,102,95.3
			c79.3,14.5,156.2-0.8,229.4-30.9c37.3-15.4,53.7-64,41.8-103.1c-11.7-38.5-51.1-65.5-94-58.3c-22.7,3.8-30-4-34.8-22.2
			c-0.7-2.6-1.8-5.2-3.2-7.5c-6.5-10.3-1.6-13.8,8.3-16.6c24.9-7.3,49.8-7.3,74.6-0.7c60.2,15.9,99.4,63.3,102.3,122.8
			c3.1,64.6-31.8,118.9-94.1,140.4c-60.1,20.8-122.7,32.6-186.4,32.2c-108.5-0.6-176.6-58.1-200.7-164.2
			c-11-48.6-10.2-97.5-6.4-146.4c5.3-68.8,15-137.2,49.9-198.5c36.2-63.7,87.6-107.4,163.3-115.6c10.6-1.1,12-6,11.6-14.5
			c-1.6-33.3-3.3-66.7-4.1-100.1c-0.2-9.8-5.7-12.8-13-15.5c-157.6-57.6-284.8,60.7-296.8,192.7
			C461,1079.1,461.8,1176.8,458.3,1274.2z M2481,294.9c0,13.6,0,27.2,0,40.8c0,5.8-0.5,9.7-8.1,11.1c-34.4,6.3-41.6,0.9-41.6-33.1
			c0-3.4,0-6.8,0-10.2c0-87.9,0-87.9-76.8-130.5c-0.6-0.3-1.1-0.8-1.7-1.1c-11.5-7-18-7-17.5,9.7c0.9,28.6,0.2,57.2,0.2,85.8
			c0,28.2,0,28.2-28.9,28.1c-1.4,0-2.8-0.2-4.1,0c-14.5,2.3-18.4-4.2-18-18.2c0.9-37.5-0.2-75,0.6-112.4
			c0.3-12.1-3.8-17.1-15.4-18.7c-26.3-3.6-52.5-7.7-78.7-12c-12.2-2-16.9,1.4-16.6,14.8c0.8,36.8-0.4,73.6,0.6,110.4
			c0.4,14.5-4.1,19.9-18.3,17.8c-4.7-0.7-9.6-0.7-14.3,0c-14.8,2.3-18.1-4.4-17.8-18.2c0.9-37.5-0.1-75,0.6-112.4
			c0.2-12.4-3.5-17.1-16.2-16.3c-22.4,1.5-44.9,2.3-67.4,2.5c-11.3,0.1-15.3,3.9-14.9,15.5c0.8,23.8-0.9,47.8,0.6,71.5
			c1,16.2-5.2,20.7-19.7,18.7c-4-0.5-8.2-0.5-12.2,0c-14,1.8-19.3-3.4-18.6-18c1.1-23.1,0-46.3,0.4-69.5c0.2-9.7-2.7-13.7-12.9-12.1
			c-28.9,4.6-57.9,9-86.8,13c-10.4,1.4-15,5.6-14.4,17c1,18.3,0.4,36.8,0.2,55.2c-0.1,4.9,2.5,12.9-5.1,13.4
			c-13.5,1-28,2.8-40.4-1.1c-10.3-3.3-3.9-16.9-4.9-25.9c-0.9-8.8,0.3-17.7-0.4-26.5c-0.4-5.6,3.6-14.4-4-15.9
			c-6.6-1.3-12.4,5.4-15.3,11.6c-3.1,6.7-5.5,14-6.6,21.3c-3.2,20.8-6.2,41.8-8,62.7c-8.3,94.3,5.4,177.2,106.6,219.4
			c33.2,13.8,45.5,45.5,47.2,80.3c0.7,12.8-1.4,25.8-1.5,38.7c-0.3,34.6-11.9,69.1-3.1,103.6c20.8,81.9,86.6,137.3,173,143.9
			c94.6,7.2,189.3,1.3,283.6-5c62.2-4.2,88.2-29.6,105.7-90.3c6.6-23,9.6-46.6,13.3-70.1c14.6-92.3,27.3-184.8,14.2-278.4
			C2512.3,367,2506.9,327.9,2481,294.9z M1766.4,133.1c-18.3-2.5-32.4-3.8-46.2-6.6c-13-2.6-20,1-23.6,14.5
			c-5.1,19-11.6,37.7-18.2,56.3c-12,34.4-5.5,28.3-38.2,19.8c-17.9-4.6-19.2-12.3-12.9-26.6c3-6.8,4.9-14.1,7.1-21.2
			c5-15.5,18.1-35.4,12.8-45.3c-7.5-13.8-31-6-47.4-7.9c-47.1-5.4-47.1-4.9-47.1,42.7c0,33.3,0,32.7-33.8,32.7
			c-12.4,0-17-3.2-16.2-16c1-17-0.2-34.1,0.4-51.1c0.4-10.7-3.9-14.5-14.3-14.4c-18.4,0.2-36.8,0.2-55.2-0.8
			c-11.5-0.6-14.9,4-16.3,15c-3.5,28.3-8.2,56.5-13.1,84.7c-5.9,33.5-6.1,32.8-40.4,28c-11.5-1.6-14.9-4.4-12.6-16.4
			c6-32.1,10.1-64.5,15.8-96.6c1.9-10.7,0.2-15.1-11.6-14.2c-24.5,1.7-49,3.1-73.5,3.5c-11.2,0.2-11.5,4.1-9.3,13.5
			c8.4,35.7,15.6,71.7,23.7,107.5c8.5,37.6,8.6,37.1-29.9,45.1c-9,1.9-11.5,0.7-13.3-8.3c-6.2-31.3-13.7-62.4-20.4-93.7
			c-14.2-66.2-14.1-65.9-82.3-57.4c-11.2,1.4-13.3,4.9-10.9,15.2c7.8,33.8,14.7,67.7,22.2,101.6c7.5,34,7.3,32.9-26.8,41.8
			c-13.6,3.5-15.9-0.6-18.2-11.9c-8.6-41.9-18.2-83.7-26.7-125.6c-2.5-12.5-7.7-17.2-20.6-14.6c-21.3,4.3-42.7,8.5-64.3,11.2
			c-14.4,1.8-14.5,7.1-9.3,18.7c11.7,26,21.9,52.7,32.7,79.1c13,31.6,12.7,30.9-18.8,44.6c-13.4,5.8-17.6,0.7-21.9-10.3
			c-8.6-22.2-18-44-27.2-65.9c-21.2-50.6-21-50.3-69.9-24.3c-11.3,6-14.2,11.2-8.7,23.5c15.2,34.1,28.9,68.9,43.1,103.5
			c12.8,31.3,12.4,30.5-19.1,44.1c-13.5,5.8-17,1.3-21.5-10.4c-14.2-36.8-30.2-72.9-44.5-109.6c-4.9-12.4-9.2-16.7-20.8-6.5
			c-16.9,14.8-34.2,29.2-52.1,42.8c-10.2,7.8-9,14.3-2.5,23.6c22,31.9,42.6,64.9,65.4,96.2c10,13.6,8,20.7-5.9,27.5
			c-3.6,1.8-7.1,4.2-10.1,6.9c-10.6,10-17.6,7.6-25.3-4.4c-21.7-33.6-44.5-66.5-67.9-101.2c-22.4,24.7-41,49.7-59.4,75
			c-5.8,8-0.9,12.2,3.3,17.4c15.3,19.2,30.5,38.4,45.7,57.6c21.4,27,21.2,26.7-5.1,47.7c-9.4,7.5-15.1,9.2-23.4-2.3
			c-16.4-22.8-34.8-44.1-53.4-67.2c-18.3,28.8-31.4,56.4-44.5,84c-8.4,17.7-25.4,36.9-20.3,53.7c4.8,15.7,29.7,21.2,45.9,31.1
			c30.7,18.6,30.3,18.2,11.6,49.6c-5.8,9.7-9.6,12.1-19.5,5.2c-15-10.5-31.6-18.7-46.8-29c-11.3-7.6-15.9-4.4-19.8,7.6
			c-15.1,46.6-29.8,93.4-41.1,141.1c-1.9,7.9-2.7,16-4.3,25.4c3.5-1.7,4.9-2.1,5.8-3c75.8-77.9,166.2-102.1,270.7-72.6
			c11.7,3.3,12.6-1.2,12.9-10.1c2.7-86.9,43.3-154.6,107.3-210c144.1-124.6,311.5-183.2,501.9-176.1c31.3,1.2,62.6,4.3,93.9-0.3
			c89.2-13,167.4-50.8,238.3-105.3c8.2-6.3,12.4-13.4,13.9-23.6C1738.5,183.9,1741.6,156.1,1766.4,133.1z M1586.4,1132.4
			c-1.6-0.7-3.1-1.4-4.7-2.1c-30.5,34.6-53.6,74-74.2,115.5c-7.5,15.1-5.3,25,3.9,37.9c114.4,161.6,342.6,193.1,496.7,67.7
			c78.8-64.1,120.6-145.9,117-249.1c-0.6-16.9-4.6-29.4-21.9-36.8c-15.5-6.6-29.8-16.1-44.6-24.5c-9.3-5.3-13.4-4.7-16,7.6
			c-11.3,53.9-23.9,107.4-35.8,161.1c-6.2,27.8-5.8,26.7-34.3,21.9c-16.5-2.8-21.1-7.4-16.8-25.1c14.2-58.1,25.7-116.8,39.1-175.1
			c2.8-12,0.7-16.5-11.5-19.8c-40.5-11-81.4-15.5-123.3-15.1c-12.9,0.1-17.5,3.9-18.4,16.9c-4.5,67.3-10.8,134.4-14.5,201.7
			c-1,17.6-6.7,21.4-21.9,17.8c-4-0.9-8.1-1.7-12.2-1.4c-14.3,0.9-17.9-5-16.7-19.3c5.2-63.1,8.6-126.4,13.9-189.5
			c1.3-15.9-3.9-17-16.6-13.3c-44,12.9-85.4,31.2-123.3,57.3c-10.1,6.9-13.9,14.9-13.7,27.2c0.7,36.1,0.3,72.2,0.3,108.4
			c0,32.2,0,31.5-32.8,32.1c-14.5,0.3-18.7-4.3-18.2-18.4C1587.2,1188.2,1586.4,1160.3,1586.4,1132.4z M1219,1314
			c2.2-1.3,4.1-2,5.4-3.4c10.1-11,20.4-21.9,30.2-33.3c57.5-67.2,91.4-142.2,81.5-233.7c-6.3-58.7,9.1-113.8,40.6-163.6
			c18.6-29.4,27-60.4,24.8-95c-1.5-23.4,2.3-46.2,11.8-67.8c15.4-34.9,48.3-50.6,85.3-42c14.7,3.4,26.9,12,40.7,18.2
			c3-33.3,14.5-49.8,39.7-55.4c17.6-3.9,35.3-2.8,52.2,4.1c6,2.4,9.8,4.1,15.5-2.5c25.8-29.4,78.8-38.4,115.9-19.5
			c10,5.1,18.4,6.3,28.8,2.6c26.1-9.4,52.1-20.7,81.1-15.5c3.6,0.6,5.9-0.1,7.8-4.1c11.8-24-0.1-65.8-23.3-79.5
			c-17-10-36-16.7-51.1-29.6c-9.2-7.9-17.9-9.1-29.8-6c-133.4,34.3-268.7,57.7-406.2,67.1c-15.1,1-17.6,6.8-16.3,20.3
			c3.1,31.3,1.1,62.7-5.1,93.5c-6.4,31.6-26.1,47.9-58.1,50.3c-5,0.4-10.7-2-16.2,3.3c14,16,29.3,32.3,33,53
			c7.3,41.4,23.2,80.4,31.3,121.2c12,60.1-31.4,102.4-91.8,93.1c-11.4-1.7-22.8-4.2-33.6-8.1c-9.1-3.3-15.5-3.6-23.5,3.5
			c-16.3,14.5-36.2,18.5-57.3,13.2c-22.3-5.7-44.5-12.3-66.6-18.8c-5.9-1.7-11.2-3.8-17.7-1.7c-19.3,6-39.1,3.3-58.7,1.3
			c-3.8-0.4-7.7-3.8-11.5-0.8c-9.3,7.1-3.8,48.9,7.1,53.9c44.7,20.2,88.1,42.7,128.3,71.2c53.6,38.1,87.4,88.5,98.3,154
			C1214.3,1276,1212,1295.3,1219,1314z M1724.6,294.8c-4.2,2.4-6.6,3.6-8.8,5.1c-100.8,68.7-211.1,98.5-333.9,91.7
			c-172.1-9.6-324.2,46.3-455.8,157.1c-44.5,37.5-81.2,81-91,141.1c-16.3,100,2.2,199.8,3.4,299.6c0,3.4,1,7.5,5.4,7
			c6.5-0.7,3.9-5.8,3.3-9.4c-10-54.8-2.7-108.3,9.8-161.9c37.8-162.2,126.5-284.1,287-339c96.1-32.9,197.3-51.4,298.3-65.5
			c88.1-12.3,174.3-29.3,254.4-69.9C1728.6,334.5,1728.9,335,1724.6,294.8z M1220.5,1442.1c3-1.6,5.4-2.5,7.5-4.1
			c68.9-53.3,137.7-106.9,206.8-159.9c9.6-7.4,7.5-13.8,3.5-22.7c-17-37.6-27.3-77.1-28.8-118.4c-4.5-119.5,44.2-215.1,133.2-292.1
			c5.9-5.1,13.4-8.3,14-18.6c2.1-41.4-25.6-84.9-64.5-100.4c-16.6-6.6-27.6-2.4-34.1,14.2c-6.9,17.6-6.9,36.1-6.4,54.4
			c1,35-5.6,68.4-24.6,97.6c-34.6,53.2-46.5,111.2-41,173.5c5.6,63.6-11.9,121.1-44.2,175.2c-30,50.1-68.2,93.4-110.1,133.7
			c-5.9,5.7-11.9,10.7-11.4,20.4C1221,1409.9,1220.5,1424.8,1220.5,1442.1z M1735.1,387.4c-68.7,35.4-139.5,62.2-214.9,72
			c-97.3,12.7-192.3,36.2-288.4,54.5c-96.2,18.3-176.2,61.8-239.5,135.7c-49.7,58-71.3,129.1-89.5,201.4
			c-11.6,46.1-13.7,92.7-4.1,139.6c2.1,10.2,7.2,16.2,17.5,16c12.7-0.2,7-10.9,7.5-16.6c6.9-77,19.4-152.9,52.1-223.6
			c69.8-150.7,180.2-245.9,352.8-257.3c136-9,270.6-28.6,403.1-61.2c25.5-6.3,25.4-6.2,15.5-29.5
			C1743.2,409,1739.7,399.4,1735.1,387.4z M1682.6,824c-154.3,52-263.7,220.9-210.2,376.7c2.3-3.2,4.6-5.7,6.1-8.5
			c43-79.6,101.7-144.2,180.7-189.2c8.4-4.8,9-10.5,7.9-18.5c-2.5-18.2-5.5-36.3-6.7-54.6C1658.2,894.4,1648,857.3,1682.6,824z
			 M2490.7,991.9c-10.5-37.2-20-69.7-28.6-102.4c-3-11.5-7.7-11.6-17.2-7.4c-18.2,8.1-37.8,11.5-57.5,12.7
			c-90.4,5.7-180.9,8.6-271.5,7.5c-4.8-0.1-10.8-3.5-15.1,4c25.4,33.2,45.4,69.8,59,111.1C2263.7,938.3,2372.1,929.2,2490.7,991.9z
			 M2099.8,1005.3c-44.1-114.4-176-192.2-257.9-195.4c9.7,11.6,21.3,20.6,26.9,33.8c5.5,13.1,11.3,26.3,15.2,39.9
			c4.9,17,8.6,34.3,11.9,51.7c1.5,7.6,3.3,12.2,12.3,12.8C1975.2,952.5,2037.4,973.7,2099.8,1005.3z M1706.2,884.3
			c3.5,31.3,6.6,52.8,8.2,74.5c1,13.2,4.7,17.2,18.2,11.6c22-9.1,45.6-13.1,68.9-17.9c14.9-3.1,37.9,2,42.7-9.4
			c5.2-12.1-4.3-31.1-8.7-46.7c-14.7-52.3-38-64.4-89.5-47c-3.9,1.3-7.5,3.2-11.4,4.3C1714.2,859.5,1702.2,870.7,1706.2,884.3z
			 M1205.1,681.9c0.8-25.6-12.3-46.9-27.2-67.6c-4.9-6.8-9.4-5.5-15.3-1.6c-28.1,18.5-52.3,41.2-74.1,66.6
			c-4.2,4.9-6.2,8.9,2.4,11.6c21.7,7,36,23.2,50.4,39.9c13.7,15.9,28.8,16.2,44.4,1.9C1200.1,719.5,1205.3,702.2,1205.1,681.9z
			 M1266,823.6c-1.2-21.5-7.1-41.8-22.3-58.9c-6.5-7.3-11.4-9.5-19-0.5c-11.1,13.2-25.7,22.5-42.8,25.8
			c-19.7,3.7-15.2,15.5-9.2,26.5c5.8,10.6,14.1,19.8,20.8,30c9.3,14.3,38.2,28.2,52.6,23.2c17.5-6,15.4-23.5,19.3-37.3
			C1266.1,829.9,1265.8,827.1,1266,823.6z M1897.5,767.2c-15.8-33-25.5-63.8-21.9-97.3c0.9-8.6-3.2-12.5-11.5-12.9
			c-9.5-0.4-18.8,0.4-28,3.3c-32.9,10.3-32.7,10.1-26.3,43.9c2.4,12.6,3.9,25.4,5,38.2c0.7,8,3.1,12.6,11.9,13
			C1849.5,756.1,1871.6,762.6,1897.5,767.2z M1119.5,808.7c-2.6-27.8-16.7-50.3-38.1-66.2c-23.2-17.2-30.2-13.9-44.3,12.1
			c-3.2,5.9-5.9,12.2-9.3,18c-7.6,13.3-10.4,23.7,8.8,30.5c12.6,4.5,22.4,14.9,31.2,25.5c9.3,11.2,21.3,13.9,34.6,9.7
			C1116.4,833.7,1119.2,822,1119.5,808.7z M1303.6,607.4c0-9.5-0.7-19.1,0.2-28.6c1.3-14.7-5.6-17.5-18.1-14.3
			c-18.4,4.7-36.9,9.2-55.3,13.8c-9.8,2.4-11.8,6.4-5.3,15.4c14,19.5,23.9,41.3,28.6,64.9c3.4,17.6,16.9,9.4,26.1,10.8
			c8.2,1.2,17.6,2,20-11.2C1302.8,641.3,1303.3,624.4,1303.6,607.4z M1691.7,703.5c-3.8,14.8,3.4,32.5,10.3,50.2
			c2.1,5.3,3.6,8.6,11.3,8.2c54.4-3,58.2-7.9,44-60.4c-1.4-5.2-2.9-10.4-4.7-15.5c-8.1-23.2-19.3-28.3-48.1-23.6
			c-23,3.8-9.1,21.2-12.8,32.1C1691.4,695.7,1691.7,697.2,1691.7,703.5z M1593.5,729.5c2.4,21,2.7,42.1,8,62.7
			c1.7,6.6,3.3,10,10.7,6.2c12.1-6.1,24.5-11.9,36.9-17.3c5.6-2.4,7.1-5.9,5.4-11.2c-8.6-25.8-19.1-51-33.3-74.2
			c-5.3-8.7-15.9-12-25.3-8.8c-9,3.1-1.5,11.8-2.2,18C1592.8,713.1,1593.5,721.4,1593.5,729.5z M1164.1,920.5
			c1.2-12.8-4-25.4-8.5-38.3c-4.1-11.6-9-13.2-18.7-5.1c-9,7.6-20.6,10.3-32,12.7c-4.4,0.9-8.6,0.3-10.1,7.2
			c-6.6,29.2-2.1,37.8,26.6,47c2.6,0.8,5.1,1.8,7.7,2.8C1154.3,955.8,1164.1,948.8,1164.1,920.5z M1015.5,931.5
			c23.9,0.4,31.9-7.8,29.6-31.8c-2.2-22.1-12.6-39.7-31.1-52.3c-8.2-5.6-14.2-6.5-16.5,5.7c-2.8,14.6-4.8,29.7-9.9,43.5
			C978.2,921.4,983.3,930.7,1015.5,931.5z M1289.2,904.5c-14.6,8.3-27.3,15.6-42.8,16.3c-10.2,0.5-28.8-6.7-28.9,4
			c-0.1,12.7,19.6,12.8,31.8,14.8C1280.8,945,1289.5,937.5,1289.2,904.5z"/>
		<path class="st0" d="M1520.3,2286.9c171.2,1.7,342-8.8,513-13.5c58-1.6,115.8-0.1,172.9,11.9c84.1,17.6,138.8,81.5,144.2,167.7
			c4,62.5-9.9,121.8-30.8,179.9c-13.2,36.6-30,71.5-47,106.4c-5.1,10.6-9.7,11.4-20,6.1c-31.2-16.2-31.7-15.7-15.9-47.3
			c29.9-60,53.7-122.1,62.5-189.1c3.4-25.9,3.5-51.8-2.6-77.2c-12-50-42-83.6-92.7-95.8c-75.2-18.1-151.7-12.9-227.9-10.4
			c-11.6,0.4-10.3,8.1-10.2,15.5c0.4,35.4,3.7,70.7,0.3,106.2c-7,72.6-28.1,138.6-82.4,190.6c-34.4,32.9-75.3,51.5-122.8,52.3
			c-52.4,0.8-104.9,1.8-157.3-3.4c-33.5-3.3-61.8-15.9-83.7-41.5c-6.4-7.5-10.4-9.9-19.3-2.3c-21.3,18-47.1,23.4-74.5,22.7
			c-47-1.2-94-4.1-140.4-12c-58.7-9.9-101.3-40.7-124.9-96.4c-28.3-66.9-38.3-137.5-41.2-209.3c-0.6-15.5-4-21.4-20.4-21.3
			c-77.6,0.7-155.3-4.8-232.6,7.2c-94.8,14.8-145.4,71.5-148,167.8c-1.3,49,8.4,96.3,24,142.3c5.1,15,3.4,22.7-12.8,25.6
			c-6,1.1-11.8,3.3-17.4,5.7c-7.6,3.3-12.2,2.9-15.1-6.5c-22.6-70.8-37.2-142.5-23.1-217c17.6-92.8,82.5-151.1,182.5-166.8
			c95.6-14.9,191.7-9.5,287.6-6.2C1269.5,2283.1,1394.8,2286.5,1520.3,2286.9z M1718.3,2330.6c0,2.1,0,4.3,0,6.4
			c-39.5,0-78.9-0.1-118.4,0.1c-7.3,0-15.8-1.5-13.8,11c6.6,43.4,4,86.9-0.6,130.3c-1.1,10.1,3.5,15,11.1,19.3
			c61.5,34.6,125.6,49.8,195.9,30c36.9-10.4,46.8-18.8,50.1-56.1c3.6-41.4,5.2-82.8,5-124.4c-0.1-13-3.1-17.3-16.9-16.9
			C1793.1,2331.4,1755.7,2330.6,1718.3,2330.6z M1353.2,2337.2c0-1.4,0-2.7,0-4.1c-34,0-68-0.1-102.1,0.1c-6.8,0-16.2-3.6-13.9,10.1
			c6.7,39.5,11.7,79.5,29.8,116c8.5,17.3,21.4,29.9,40.8,34.1c33.3,7.2,66.7,12.9,100.9,13c38.4,0.1,50.4-9.3,58.5-47.6
			c7.3-34.1,7.6-68.8,7.3-103.6c-0.1-14.7-5.7-18.4-19.3-18.1C1421.2,2337.7,1387.2,2337.2,1353.2,2337.2z M1524,2397.8
			c-2.9,34.5-2.7,69.6-17.3,102.2c-16,35.6-42.4,55.5-82.4,56c-28.7,0.4-57.1-2.9-85.6-5c-74.8-5.7-118.2-46-134.6-117.8
			c-2.6-11.3-5.4-22.5-7.6-33.8c-3.9-19.3-7.4-38.7-11-58.1c-1-5.2-0.4-11.1-8.8-10.8c-8.4,0.2-8.1,5.7-7.7,11.2
			c4.5,69.5,11.3,138.4,41.4,202.8c16.6,35.5,45.3,53.2,82.2,59.8c41,7.3,82.6,8.1,124,11.7c34.6,3,58.9-11.3,78.6-37.7
			c9.8-13.2,18-27.2,24.3-42.4c21.6-52.5,21.7-107.6,19.2-162.9c-0.4-8.2-1.6-16.3-2.5-24.4c-0.6-4.8-1.1-10.4-7.8-9.5
			c-5.7,0.8-4,6.2-4.1,9.9C1523.9,2365,1524,2381.4,1524,2397.8z M1687.1,2640.8c0-0.3,0-0.5,0-0.8c27.9,0,56.2,3.1,83.6-0.6
			c67.9-9.1,105.4-55.8,128.2-115.2c23-59.9,19.9-123,16.5-185.7c-0.3-5.9-1.7-11-9.2-10.7c-10.2,0.4-9.2,8-9.1,14.8
			c0.5,44.3-1.2,88.5-4.8,132.7c-4.6,55.7-27.1,84.3-78.1,98.9c-72.4,20.7-142.5,16.3-210.5-16.8c-10.3-5-22.5-15.3-30.8-12.8
			c-7.4,2.2-10.5,18.6-15.7,28.7c-12.5,24.5-10.1,34.3,12.3,50.5c11.9,8.6,25.4,13,40,13.7
			C1635.3,2638.5,1661.2,2639.6,1687.1,2640.8z"/>
		<path class="st0" d="M2362.8,601.3c-0.2,66.4-53.2,118.6-119.9,118.2c-66.3-0.4-118.4-53.6-117.9-120.3
			c0.5-65,53.7-117.5,119-117.5C2310.1,481.6,2363,534.9,2362.8,601.3z M2243.5,669.7c37.8,0.2,69-30.4,69.6-68.1
			c0.5-38-31.9-70.6-69.7-70.2c-37.2,0.4-68.6,32.2-68.6,69.3C2174.7,638.4,2205.8,669.5,2243.5,669.7z"/>
	</g>
</g>
</svg>
