<?xml version="1.0" encoding="utf-8"?>
<!-- Generator: Adobe Illustrator 23.0.0, SVG Export Plug-In . SVG Version: 6.00 Build 0)  -->
<svg version="1.0" xmlns="http://www.w3.org/2000/svg" xmlns:xlink="http://www.w3.org/1999/xlink" x="0px" y="0px"
	 viewBox="0 0 3000 3000" style="enable-background:new 0 0 3000 3000;" xml:space="preserve">
<style type="text/css">
	.st0{stroke:#000000;stroke-width:10;stroke-miterlimit:10;}
</style>
<g id="Layer_1">
</g>
<g id="Layer_2">
	<g>
		<path class="st0" d="M767.3,1507.6c0-259.9-0.6-519.7,0.2-779.6c0.6-184,65.1-343.2,195.9-472.9
			C1081.7,137.9,1225.1,72.8,1392,65.8c101.7-4.3,203.7-8,305,8.8c259.4,42.9,482.3,263.5,528.4,523.2
			c7.6,43.1,12.2,86.5,12.2,130.2c0.1,520.5,2.9,1041-1.1,1561.4c-2.1,277.8-134.9,480.1-384.1,603.9
			c-83.3,41.4-173,60.2-265.9,59.9c-88.7-0.3-177.4,5.1-265.9-8c-265.2-39.1-494.5-261.2-541.1-525.6
			c-8.4-47.4-12.4-95.2-12.3-143.3C767.3,2020.1,767.3,1763.9,767.3,1507.6z M2130.2,2542.4c-59.7,16.7-117,29.3-175.1,37.8
			c-129.7,18.8-259,17.1-384.8-22c-198.7-61.7-324.3-198-388.4-393.4c-36-109.7-54.6-223-65.9-337.6c-7.4-75.2-22.8-150-21.8-225.6
			c1.6-124.4,10.4-248.6,19.1-372.7c6.9-100.1,14.2-200.3,19.9-300.5c6.6-114.7,29-224.9,87-325.7c42.7-74.1,91.3-142.2,173.8-177.4
			c36.3-15.5,73.4-27.8,112-35.8c161.7-33.2,322.9-22.1,483.7,6.6c36,6.4,71.7,14.6,109.1,22.3c-1.6-4.5-2-6.7-3.1-8.4
			c-102.2-162.2-247.7-259-437.6-286.7c-79.5-11.6-159.9-4.3-239.9-5.3c-37.2-0.5-74.1,3.8-110.5,11.4
			c-288.4,60.7-486.2,304.9-486.5,602.7c-0.5,517.6-0.2,1035.2-0.1,1552.8c0,41.6,3.5,82.8,10.8,123.8
			c43.1,244.5,255,449,500.7,484.3c80.5,11.6,161.3,7.5,242,7.4c153.1-0.2,287.9-51.1,403.5-151.7
			C2043.1,2692,2093,2624.1,2130.2,2542.4z M2181.9,2098.1c0.6,0,1.2,0,1.8,0c0-82.2-0.4-164.5,0.4-246.7c0.1-14.8-5.1-22.3-18-28
			c-67.8-29.5-137.2-35.5-209-17.6c-16.5,4.1-18.6,9.7-11,24.8c31.7,63.4,47.8,130.8,47.8,201.8c0,10,4,25.6-14.3,20.5
			c-13.9-3.9-38.9,12.5-39.2-21.2c-0.5-65.7-16.5-128.1-46.4-186.6c-20.6-40.2-52.9-66.2-98-71.7c-67.7-8.3-127.1,10.8-178.4,57
			c-16.6,14.9-20.4,27.8-14.5,49.7c14.2,52.5,15,106.4,6.8,160.2c-0.8,5,0.1,12.7-4.5,13.8c-15.3,3.6-30.1-2.6-44.4-6.4
			c-10.8-2.9-4-14.1-3-20.9c9.4-68-0.3-133.2-26.8-196.3c-17.9-42.7-48-71.9-92.1-86.9c-90.9-30.9-179.3-15-267.1,13.8
			c-8.9,2.9-9.9,8.6-8.8,16.9c3.6,27.4,6.4,54.9,10,82.3c14.3,108.2,31.9,215.6,69.9,318.7c65.7,178.6,189.8,293.7,374.1,340
			c178.3,44.8,353.4,19.5,526.4-32.7c10.4-3.2,13.8-9.3,16.2-17.8c11.7-41.4,21.4-83.4,22.1-126.5
			C2182.8,2258.2,2181.9,2178.2,2181.9,2098.1z M1461.6,457.2c7.9,6.1,12.9,10.1,18.1,13.8c46.8,33.6,91.4,69.7,131.5,111.2
			c88.8,91.9,159.1,195,187,322c5.4,24.4,16.9,20.1,32.9,16.6c68.1-14.7,116.4,10.9,142.5,75.7c12.9,32,17.7,65.8,20.2,99.9
			c2.4,33.2,0.7,65.8-23,92.7c-5.1,5.8-3.3,12.3-1.7,18.6c12,46.3,15,93.3,11.6,140.8c-3.9,54.3-28.6,95.3-78.6,119.4
			c-21.2,10.2-44,15.7-67.3,17c-12.8,0.7-17.2,4.2-17.5,17.7c-1.4,66.9-3.5,133.9-6.3,200.7c-0.5,12.9,2.5,19.6,15.8,22.8
			c22.1,5.3,43.3,14.1,60,29.8c11.5,10.9,21.7,9.9,35.3,5.4c80-26.3,160.3-26.1,239.3,3.5c20.1,7.5,22.4,2,22.4-16.6
			c-0.4-339.9-0.3-679.8-0.3-1019.7c0-78.7-13.5-154.8-42.4-228.1c-4.3-10.9-10-17.3-22.3-20.6c-155.5-40.9-313-63.6-474.1-54.9
			C1583.7,428,1523.3,436.6,1461.6,457.2z M1539,1741.4c11-112.7,25.4-223.1,29.5-334.4c5.1-135-3-269.1-29.2-401.7
			c-31.5-160-121.3-270.6-278.1-323.5c-13.6-4.6-20-3.3-25.9,11c-25.9,62.5-40.1,127.6-44.9,194.6c-11.5,161-23.5,322.1-32.1,483.3
			c-5.4,100.8-18,201.6-6.6,302.8c3.6,32.4,3.1,31.7,34.4,23.3C1308.6,1664,1428.5,1654.1,1539,1741.4z M1592.8,1780.2
			c47-37.8,99.2-55.7,155.6-62.2c13.1-1.5,9.4-10.5,9.6-17.7c7.3-209.4,9.7-418.8,5.2-628.4c-3-139-36.9-265.2-123.4-375.9
			c-63-80.5-138.4-146.9-222.8-203.8c-13.3-8.9-22.4-8-35-0.2c-47.1,28.8-75.3,73.7-104.3,118.3c-9.3,14.3-6.5,18.8,9.3,24.3
			c137.8,48.7,234.8,139.5,282.5,279.3c40.6,119.2,48.3,243.5,53,367.8c5.2,137-9.1,273-24.4,408.9
			C1594.7,1719.2,1589.5,1747.7,1592.8,1780.2z M1875.3,1166.3c3.6,0,7.3,0.1,10.9,0c43-0.8,57.1-14.5,54.7-56.9
			c-1.3-23.1-4.3-46.4-9.9-68.8c-17.8-71.3-47.4-78-102.8-66.4c-15.2,3.2-17.8,9.7-16.8,23.4c2.8,37.7,5.1,75.4,6.4,113.2
			C1819.6,1165.4,1819.2,1165.4,1875.3,1166.3z M1819.3,1323.5c0,31.2-0.2,62.4,0.2,93.6c0.1,6.2-3.6,14.6,9.2,15.1
			c47.1,2,89.2-29.6,97.1-76.3c7.2-42.7,2.1-85.2-6.3-127.4c-2-10-8.2-9.7-16.1-9.5c-23.2,0.5-46.5,1.9-69.5-2.3
			c-12.1-2.2-15,1.8-14.8,13.2C1819.6,1261.1,1819.3,1292.3,1819.3,1323.5z"/>
	</g>
</g>
</svg>
