<?xml version="1.0" encoding="utf-8"?>
<!-- Generator: Adobe Illustrator 23.0.0, SVG Export Plug-In . SVG Version: 6.00 Build 0)  -->
<svg version="1.0" xmlns="http://www.w3.org/2000/svg" xmlns:xlink="http://www.w3.org/1999/xlink" x="0px" y="0px"
	 viewBox="0 0 3000 3000" style="enable-background:new 0 0 3000 3000;" xml:space="preserve">
<style type="text/css">
	.st0{stroke:#000000;stroke-width:10;stroke-miterlimit:10;}
</style>
<g id="Layer_1">
</g>
<g id="Layer_2">
	<g>
		<path class="st0" d="M1689.9,2936.6c-64.1,1.4-127.6-6-191.3-11.3c-96.4-8-193-8.3-289.6-8c-87.3,0.3-175.1,7.6-261.7-8
			c-118.5-21.4-221-75.5-306.5-160.6c-37.3-37.1-56.8-82.9-58.1-135.7c-0.6-26.3-10.6-46.4-32.9-60.7
			c-81.6-52.1-124.9-126-124.8-223.6c0-10.4-6-13-13.1-16.3c-32.1-15.1-59.8-35.8-78.8-66.3c-26.2-42-25.8-86.1-7.8-130.6
			c8.4-20.7,24-36.2,46.2-40.6c14.9-3,20.7-10.9,22.2-24.1c2.3-21.2,3.7-42.4,6.3-63.6c1.2-9.5-2.2-13.2-11.1-13.3
			c-0.7,0-1.4-0.2-2.1-0.3c-77.3-6.1-102.9-56-88-133.2c12.7-65.9,37.3-128,62.2-189.9c63.7-158.5,128.4-316.7,204.3-469.9
			c8.1-16.3-0.8-19-11-24.8c-110.5-61.9-186.2-151.9-220.8-274.6c-17.7-63-18.8-127.9-14.8-192.5c4.4-70.8,10.6-141.4,30-210.3
			c54.3-192.2,179-314.9,367.5-375.2c116-37.1,230.7-38.4,341.7,17.7c91.5,46.2,157.1,118.3,200.5,210.3
			c9.3,19.7,16.1,19.9,33.4,9.7c130.6-77.1,273.2-114.6,423.6-121.4c197.9-9,395,2.6,590,37.8c108.2,19.5,208.9,59.9,293.4,132.9
			c98.9,85.5,156.7,190.6,145.3,325c-5.3,62.2-22.1,122.7-34.5,183.8c-21.9,107.5-31.8,216.2-37.1,325.5
			c-9.9,200.9-12.1,401.9-13.7,603c-0.7,95.2-17.5,189.2-34.9,282.7c-16.7,90.2-26.1,181.3-32.3,272.7
			c-7.6,113.5-36.9,219.3-102.2,313.5c-41.3,59.6-96,103.5-165.1,125.5C2118,2887.9,1908,2935.2,1689.9,2936.6z M2658.6,543.9
			c-24.1-42.7-51.1-76-83.5-105.2c-80.1-72.2-176.4-111.3-280.4-130.2c-185.8-33.9-373.8-44.3-562.3-37.7
			c-165,5.8-319.3,49.4-458,141.5c-86.2,57.2-164,124.3-234.5,200.1C895.8,767.3,764,932.2,660,1116.7
			c-120.9,214.4-210,443.4-294.4,674.1c-10.2,27.9-18.2,56.9-18.4,87.2c-0.2,29.6,7,38.7,35.8,42.2c48.9,6,98.2,7.3,146.2-3.8
			c68.7-15.8,122.9,4.1,165.3,59.3c2.6,3.4,5.6,6.5,8.5,9.5c15.5,15.8,27.4,16.4,44.3,1.9c15.9-13.6,27.5-30.5,37.3-48.8
			c39.7-73.7,19.8-161.2-48-208.8c-5-3.5-6.2-5.8-5.2-11.6c7.5-41.3,17-45.5,50.5-21.9c20.7,14.6,37,33.2,48.5,55.7
			c31.4,61.7,34.5,125.1,9.7,189.6c-14,36.3-34.1,68.8-66.7,91.6c-35.3,24.8-73.8,21.7-104.3-8.3c-11.1-10.9-20.8-23.3-32-34.3
			c-23.3-22.9-50.1-33-83.4-24.7c-26.8,6.7-54.6,10.1-82.3,9.3c-14.1-0.4-18.6,4.8-19.5,17.7c-1.4,19.8-3.8,39.6-5.8,59.3
			c-4,40.3-20.1,61.8-57.7,72c-12.4,3.4-15.2,12-18.2,21c-21.6,63.4,43.4,140.2,114.9,132.5c82-8.8,161.3,2.5,240.5,21.4
			c87.5,20.9,172.9,50.9,262.5,62.3c34.4,4.4,69,9.5,103.9,3.6c18.2-3,25.8-13.2,22.7-31.5c-2.1-12.6-3.4-25.4-5.9-37.9
			c-21.1-104.5,68.6-270.2,224.4-238.8c17.6,3.6,31.4-2.9,42.1-16.6c7-8.9,13.4-18.3,20.3-27.4c40.6-53,70.6-113.5,114.4-164.2
			c38.3-44.2,86.1-67,145.2-59.9c16.9,2,14.9-4.9,13.2-16.2c-4.3-28.8-8.1-57.6-11.6-86.5c-6.2-51.9-7.3-104.2-8.6-156.7
			c-7.6,0.2-9.3,5.6-12.4,8.9c-139.9,153.1-311.5,222.7-518.3,189.1c-161.7-26.3-283.1-118-377.3-248.9c-5.7-7.9-3.5-12.8,3.8-17.1
			c5.5-3.3,11.4-6,16.3-10c11.8-9.7,17.7-7.8,27.6,5.4c67.5,89.7,150.7,160.6,257.7,198.7c233.5,83.3,482.8-22.2,604.2-225.5
			c3.8-6.4,5.6-13,6.2-20.1c10.8-135,48.8-263.3,93.5-390.2c36.6-104.1,84.2-202.4,158.8-284.5c162-178.3,368.8-235.2,602.1-216.2
			C2558.7,522.8,2606,532.3,2658.6,543.9z M1756.5,1168.8c-1.7,5.3-3.4,10.6-5,15.9c-56.2,196-63.2,394.4-29.4,594.8
			c3.9,22.9,7.8,45.4,22.5,65.4c12.8,17.4,15.1,39.3,12.8,61.3c-5.4,53.1-31.5,98.2-56.2,143.7c-6.3,11.5-7.6,21.4-3.7,34
			c21.1,68.1,30.1,137.1,12.2,207.8c-2,8-1.2,17-0.1,25.4c6.2,48,9.4,96.2,11.3,144.4c1.3,35.8-2.4,71.4-23.9,101.9
			c-8.6,12.2-12.3,25-13.9,39.4c-12,109.3-63.5,195.6-152.5,259.9c-3.7,2.7-9.3,3.9-10.3,11.9c38.8,3.1,77.3,7.7,115.9,8.9
			c230.8,7.1,452.7-41.5,670.9-110.8c55.6-17.7,100.3-52.5,134.7-99.8c66.2-91.1,91.9-194.9,98.5-305.5
			c4.8-80.7,13.4-161.3,27.7-240.9c22.9-128.1,42.1-256.3,40.1-387c-1.1-72.4,0.1-145,1.6-217.4c3-142.8,7-285.5,18.9-427.9
			c0.8-9.7-0.7-15.2-11.9-13.8c-5.6,0.7-11.5-0.2-17,0.8c-15.7,3-20.9-2.4-23.6-19c-14.4-87.7-74.8-147.4-163-162.6
			c-52.2-9-104.9-6.5-157.3-2.2c-65.6,5.4-127.6,23.2-179.4,65.4c-144.2,117.5-208,272.6-209.5,455.9c-0.3,37.2,0.8,36.7-35.6,40.1
			c-12.2,1.1-16-1.8-16.5-14.3c-5.4-138.2,26.8-266.4,102-382.8c58.4-90.4,131.8-164.3,237.6-197.3c80.6-25.1,163.6-25.7,247-19.4
			c109.2,8.2,200.3,86.6,223.9,193.8c1.1,4.9-0.7,11.6,7.3,13.6c9.7-90,28.1-178.2,46.4-266.4c10.7-51.6,20.5-103,10.1-156.1
			c-3.4-17.3-9.8-26.5-28-31.3c-91.4-23.8-184.1-35.3-278.3-30c-116.9,6.5-226,38.2-324.4,104.2
			c-125.3,84.1-200.5,204.4-251.2,342.7c-1.5,4-7.6,8.5-1.6,14.6c3.4-7.3,6.7-14.4,9.9-21.4c38.5-85.2,88.9-162.4,161.3-222.4
			c134.2-111.4,283.3-149.1,450.5-82.4c74.1,29.6,137.7,75.9,198.4,126.8c26.9,22.6,26.5,22.1,3,48.7c-9.1,10.3-14.6,10.8-25.2,1.3
			c-41.8-37.7-87.1-70.7-135.8-98.9c-145.2-84-287.3-77.8-424,18.4c-104.6,73.7-165.7,179.2-207.1,297.6
			c-37.3,106.7-52.4,217.8-63.5,329.5c-1.5,14.6-5.6,18.9-19.2,16c-4.8-1-9.9-1-14.9-0.8c-14.4,0.5-20.4-5-18.3-20.4
			c4.3-30.9,7-62.1,11-93.1C1738.7,1275.5,1748.2,1222.6,1756.5,1168.8z M560.3,2326.5c19.7,30.7,33.1,60.9,44.1,92.4
			c21,59.7,18.4,123,28,184.3c8,50.8,23.6,92.6,62.8,125.3c7.6,6.4,14.8,13.3,22.6,19.5c99.3,78.5,211.6,119.5,338.8,118.3
			c112.1-1.1,224.3-2.7,336.4,0.4c7.1,0.2,13.9-0.8,20.8-3.2c67.8-23.4,124.1-62.3,164.6-122.1c23.1-34.1,41.4-70.5,47.6-114.4
			c-6,2.7-9.9,4.2-13.6,6.2c-54.7,29.5-112.3,51.1-173,64.6c-27.8,6.2-27,6.4-33.4-21c-3.9-17.1-2.4-25.4,18.4-29.7
			c69.3-14.2,134.5-39.9,194.1-78.8c21.4-14,40.1-31.4,45.4-56.9c8.7-41.3,2.1-82.9,0-128.3c-39.2,34.4-75.3,66.1-111.3,97.8
			c-52.8,46.5-105.5,93.1-158.6,139.3c-4.7,4.1-8.5,14.1-18.8,5.5c-31.4-26.3-31.8-32.2-1.2-57.9c0.5-0.5,1.2-0.8,1.7-1.2
			c76.8-67.5,152.8-136.1,230.8-202.2c60.3-51.2,73.9-163,46.4-232.2c-4.3,6.2-8.5,11.8-12.3,17.7
			c-64.8,100.7-139.8,193.4-221.2,281c-20.4,21.9-19.5,20.8-42.4,1.4c-14.9-12.6-12.6-19.7-0.3-32.7
			c87.1-92,165.1-191.3,233.7-298.1c12.1-18.9,18.1-34.5,4.9-55.4c-7.4-11.6-9.7-26.5-14.2-40c-15.8-47.4-21.4-96.3-21.6-149.5
			c-26.7,17.3-42.7,39.7-57.8,62.3c-34.4,51.3-65.8,104.7-105,152.5c-87.3,106.5-175.6,212.3-263.9,317.9
			c-11.6,13.8-27.5,21.9-45.5,25.8c-29,6.2-58,3.7-87,1.9c-84.2-5.4-164.4-30-245.4-51.1C705.9,2347.8,636.9,2328.1,560.3,2326.5z
			 M369.5,723.8c-4,176.2,64,302.9,209.7,386.3c8.9,5.1,16.3,12.8,25.1-2.8c81-143.3,178.5-275.1,283.4-401.6
			c7.9-9.5,8.7-14.3-1.5-23.2C746.7,559.6,661.6,406.3,631,222.7c-4.3-25.6-4.7-25.6-27-12c-101.9,62.1-164.5,153.6-200,265.7
			C377.6,560.1,373.7,646.7,369.5,723.8z M678.3,183.2c0.5,2.8,1,5.6,1.4,8.4C702.5,365,778.2,511.1,906,630.3
			c25,23.3,25,23.2,48.5-2.7c6.2-6.8,11.9-14.3,18.8-20.3c12.8-10.9,11.5-17.9-1.8-28.7C848.7,478.4,771.9,350.2,740.7,194.7
			c-9.1-45.4-13.8-47.5-54.7-24.6C680.2,173.4,676.8,176.4,678.3,183.2z M1161.4,274.3c-1.1-1.8-2-3.7-3.3-5.3
			c-17.3-21.7-36.1-41.9-58-59.1c-5.5-4.3-9.6-3.6-15.2-0.3c-75.2,44.1-150.5,88.1-225.9,131.8c-8,4.6-9.2,8.8-4.7,16.8
			c13.2,23.5,27.6,46.2,43,68.4c5.9,8.6,10.8,8.3,18.8,3.3c78.7-49.4,157.5-98.4,236.3-147.6
			C1155.7,280.2,1160.3,279.4,1161.4,274.3z M1044,172.8c-81-43.2-163-51.3-248.5-36c-10.3,1.8-10.3,7-9.1,14.9
			c7.1,46.3,18,91.6,34.6,135.5c3.3,8.8,5.7,12.6,16.2,6.5C904.7,253.6,972.7,214.3,1044,172.8z M1190.1,321.4
			c-1.9,1.1-4.4,2.3-6.8,3.8c-78.3,48.6-156.5,97.4-234.9,145.8c-9.8,6-6.1,10.1-0.4,15.9c20.4,20.8,42.2,40.1,64.7,58.7
			c7.3,6.1,12.5,6.6,19.7-0.7c56.4-57.4,117.7-109.1,183.2-155.8c5.8-4.1,9.7-8.3,5.9-15.8c-7.7-15.2-15.2-30.5-22.9-45.6
			C1196.9,324.6,1195.2,321.3,1190.1,321.4z M1316.7,2109.9c-58.7-14.5-94,14.6-124.8,54.1c-26.3,33.8-44,96.7-26.1,127.1
			C1215.8,2231.1,1265.5,2171.4,1316.7,2109.9z M1659.9,2016.5c20.1-36.1,37.7-68.4,44.1-105c7-39.6-13.3-65-53.8-71.4
			c-12.5-2-18.2,0.5-18.1,14.7C1632.2,1908.4,1639.8,1960.6,1659.9,2016.5z M565.2,2498.8c2.5-14.4-1.2-25.9-3.6-37.3
			c-9.6-45.1-29.6-85.4-56.4-122.6c-5.2-7.2-10.6-10.8-19.6-8.5c-6.7,1.8-9.2,5.7-8.7,12.3C482.1,2407.7,509.1,2460.2,565.2,2498.8z
			"/>
		<path class="st0" d="M1068.7,1240.6c75.1-0.8,148,13.1,219.6,34.8c25.7,7.8,51.4,18.7,54.9,49.6c3.5,31-19.2,48.2-42.6,60.5
			c-99.8,52.4-203.6,86.3-318.5,61.1c-51.1-11.2-90.6-35.9-106.9-88.9c-15-48.6,2.6-84.1,50.7-100c14.1-4.6,28.7-8.1,43.3-10.5
			C1002,1241.7,1035.3,1240.6,1068.7,1240.6z M1284.3,1334.9c-3-8.4-8-8.6-11.7-9.7c-86.5-25.7-174.4-39-264.8-29.9
			c-21.9,2.2-43.6,5.2-64.9,11.1c-18.2,5-23.3,16.4-18.7,33.7c7.3,27.4,25.8,43.6,52.4,50.7c42.2,11.3,85,16.9,128.6,8.7
			C1168.2,1387.8,1228.2,1367.5,1284.3,1334.9z"/>
		<path class="st0" d="M1283.8,781c140.1,2.4,260.9,52.4,364.8,146c13.9,12.5,13.6,20.4-0.5,30.5c-3.4,2.4-6.6,5.6-9,9
			c-9.1,12.7-16.1,9.6-26.5-0.1c-95.2-88.2-207.7-134.2-337.7-132.9c-93.5,1-180.3,28.4-259.3,78.2c-15.2,9.6-22.8,9.1-30.3-6.3
			c-2.2-4.4-5-8.7-8.3-12.3c-9-10.1-6.3-16.1,4.8-22.9c64.1-39.5,132.5-67.4,206.8-80.5C1220,784.1,1251.7,780.7,1283.8,781z"/>
		<path class="st0" d="M1203.4,1095.1c-1.2,37.6-1.1,37.9-38.6,39.5c-79.5,3.5-153.2,25.9-220.2,68.7c-12.7,8.1-17.9,6.1-25.4-5.9
			c-18.7-29.6-19.4-29.4,10.5-46.8c80.8-46.9,167.8-70,261.3-68.6C1203.8,1082.3,1203.8,1082.4,1203.4,1095.1z"/>
		<path class="st0" d="M997.6,1839c-32.7,0.1-58.3-24.9-58.9-57.4c-0.7-32.9,25.9-60,58.9-60c32.1,0,58.3,25.7,58.7,57.9
			C1056.8,1813.2,1031.4,1838.9,997.6,1839z"/>
		<path class="st0" d="M1129.2,1934.3c-0.7,31.9-28,58.4-59.3,57.8c-32.6-0.6-58.7-28.3-57.8-61.4c0.8-32,27.6-58,59.3-57.5
			C1104.2,1873.6,1130,1900.9,1129.2,1934.3z"/>
		<path class="st0" d="M1198.8,1873.4c-35.4-0.1-58.9-23.5-58.3-58.1c0.5-32.6,26.1-57.5,58.7-57.4c33.4,0.1,59,26.4,58.3,60
			C1256.9,1851.1,1233.2,1873.6,1198.8,1873.4z"/>
		<path class="st0" d="M2419.8,2009.9c-2.3-31-4-59.4-6.8-87.6c-1.1-11.1,1.9-14.6,13.3-15.4c39.6-2.8,38.5-3.3,41.7,37.5
			c4.8,61.2,6.1,122.2-9.1,182.1c-17.1,67-50.8,123.4-110.9,160.7c-15.5,9.6-6.4,16.1-0.9,24.6c95.4,147.5,16.5,345.2-153.8,385.2
			c-136,32-273.6-51.5-305.3-185.2c-33.1-139.3,50.1-276.1,188.9-308.2c18.3-4.2,19.8-9.8,15.5-26.1
			c-26.7-100.4-21-199.5,12.6-297.6c5.9-17.4,12.8-24,29.6-12.8c3.5,2.3,7.7,3.9,11.8,4.9c14.1,3.2,14.6,9.9,9.8,22.8
			c-33.8,90.7-36.1,182.8-12.4,276.4c4.8,19,13.2,27.9,33.4,30c38.2,4,72.9,19.1,103.1,42.5c14.6,11.4,25.7,9.7,39.8,0.4
			c51.1-33.9,77.6-83.4,91.1-141.2C2418.5,2071.3,2417,2039.1,2419.8,2009.9z M1933.2,2451.2c0.6,111.5,92.2,202.3,202.6,201
			c112.5-1.3,200.1-91.6,199.6-205.9c-0.5-108.1-91.9-197.8-201.3-197.6C2022.9,2248.8,1932.6,2339.8,1933.2,2451.2z"/>
		<path class="st0" d="M2604.4,1416.1c0,139.7-17.4,271.6-51.4,401.4c-3.5,13.3-6.6,18.8-22.3,13.6c-32.6-10.6-32.9-9.5-24.7-42
			c42.7-168.2,56.8-338.5,37.9-511.2c-3.4-31.1-9.3-61.7-18-91.8c-48.8-168-258.5-230.1-400.4-118.7
			c-89.1,69.9-130.1,164.1-139.5,274.3c-2.9,34-2.6,68.2,2.2,102.1c1.1,7.7,0.1,10.8-8.2,13.1c-39.3,11.2-43.2,8.5-46-31.4
			c-8.5-120.9,14.4-233.6,90.5-330.9c56.8-72.6,130.1-119.2,222.3-134.6c121.1-20.2,301.7,63.1,336.4,237.2
			C2598,1271.5,2603.6,1346.2,2604.4,1416.1z"/>
		<path class="st0" d="M2523.9,1452.3c0.7,152.8-19.3,255.2-56.6,354.7c-6.2,16.5-12.7,21.5-28.1,11.5c-4.6-3-10.2-4.8-15.6-6.5
			c-10.7-3.3-11.9-8.5-7.7-19c29.7-73.6,47.3-150.1,53.6-229.2c8.9-111.2-4-219.7-40.8-325.1c-1.4-4-3.1-8-4.7-11.9
			c-41.2-96.9-142-120.5-222.3-51.5c-52.3,44.9-75,105.3-88,170.7c-8.2,41.3-8.9,83.3-11.8,125c-1,14.8-5,20.6-19.7,18.3
			c-7-1.1-14.1-1.4-21.2-1.6c-9.1-0.2-12.1-4.5-11.7-13.5c4-81,8.5-162,43.6-237.1c32.6-69.7,80.4-123.9,157.4-145.4
			c90.9-25.3,172.9,10.7,212.7,96C2508.9,1286.1,2523.1,1391.3,2523.9,1452.3z"/>
		<path class="st0" d="M2412,1451.2c-2.9,102.6-17.5,191.9-43.4,279.5c-4.7,16-10.9,21.1-26.1,13.3c-5-2.6-10.5-4.5-16-5.6
			c-12.2-2.5-13.3-8.2-9.6-19.8c36.1-115.1,49.3-232.9,39.6-353.2c-1.9-23.3-3.5-46.8-12.3-68.9c-11.3-28.5-31.9-38.9-61.2-29.9
			c-37.1,11.4-58.3,38.9-71.4,73.5c-19.2,50.7-17.3,102.9-10.7,155.6c7.5,59.8,17,119.6,10.6,180.3c-0.9,8.8-0.2,24-7.3,24.2
			c-15,0.4-30.2-5.7-45.2-9.7c-1.1-0.3-1.8-5-1.4-7.5c10.6-70.7-4.9-140-11.8-209.7c-5-50.3-0.4-99.3,15.2-147.1
			c21.7-66.7,79.7-113.8,138.9-114.1c46.1-0.3,81.8,26.4,95.7,73C2412.8,1342.9,2410.8,1402.9,2412,1451.2z"/>
	</g>
</g>
</svg>
