<?xml version="1.0" encoding="utf-8"?>
<!-- Generator: Adobe Illustrator 23.0.0, SVG Export Plug-In . SVG Version: 6.00 Build 0)  -->
<svg version="1.0" xmlns="http://www.w3.org/2000/svg" xmlns:xlink="http://www.w3.org/1999/xlink" x="0px" y="0px"
	 viewBox="0 0 3000 3000" style="enable-background:new 0 0 3000 3000;" xml:space="preserve">
<style type="text/css">
	.st0{stroke:#000000;stroke-width:10;stroke-miterlimit:10;}
</style>
<g id="Layer_1">
</g>
<g id="Layer_2">
	<g>
		<path class="st0" d="M2564.7,1404.1c18.9,26.8,36.9,51,53.6,76c66.4,99.6,90.9,211.9,96.6,329.1c8.4,173.3,5.9,346.7,5.4,520.2
			c-0.8,253.5-134.6,422.4-338.8,548c-66.9,41.1-143.8,53.2-220.8,56.6c-201.2,8.9-402.6,15.3-603.9,23
			c-128.3,4.9-256.2,16.4-384.7,17.8c-39.2,0.4-78.2-0.6-117-6.4c-82-12.1-149.8-49.5-205.4-111.5c-126-140.7-257.2-276.9-379-421.1
			c-96.6-114.4-163.6-246.6-184.8-398c-5-35.6-4.8-71.8,8.8-104.8c15-36.3,20-73.6,23.3-111.7c6.7-76.4,27.8-149.1,57.6-219.4
			c6.7-15.8,2.3-19.1-12.4-22c-85.2-16.8-144.5-67-180.9-144.7c-25.6-54.7-37.7-113-42.8-173c-8.7-102.9-20.2-205.8-15-309.2
			c6.4-126.8,39-245.5,114.6-350.2c67.4-93.3,94.6-200.1,102-313.2c2.1-32.4,4.4-64.7,7.7-97c9.3-92,84.2-132.4,153.6-132.2
			c107,0.4,208.3,27.7,304.8,73.1c48.3,22.7,92.5,52.1,133.9,85.6c8.5,6.9,14.1,8.2,24.7,2.4c79.1-43.1,160.9-80.7,248.3-103.4
			c145.6-37.8,294.7-47.1,444.4-48.7c158.8-1.7,317.1,8.1,474.5,30.2c103,14.5,193.4,59.8,280.1,114.8
			c63.6,40.4,127.6,80,176.6,138.8c68.1,81.8,104.6,179,134.1,279.1c28.8,97.8,36.5,198.4,33.5,300c-2.6,87.7-5.4,175.5-15.8,262.7
			c-6.9,58-24.1,112.1-67.6,154.8C2643.6,1379.5,2606.3,1393.7,2564.7,1404.1z M483.1,2367.5c6.5-10,10-17.7,15.6-23.4
			c33.4-34.5,68.3-67.3,105.6-97.6c134.2-109.6,279.6-130.3,437.8-57.3c55.8,25.7,108.1,57.3,158.5,92
			c59.2,40.9,124.5,58,195.6,60.1c132.8,4,265.6,4.9,398.5-0.4c14.7-0.6,25,0.9,21.4,19.4c-2.8,14.4,10.9,35-21.5,35.7
			c-139.5,3.1-278.9,5-418.4-1.5c-67.5-3.1-130.7-20-188.1-57.1c-62.4-40.4-124.2-81.8-194-109.5c-110.2-43.7-214.7-36.1-313.8,30.8
			c-43,29-82.4,62.2-118.3,99.6c-15.3,16-44.2,29.6-41.7,49.4c2.5,20.2,27.8,36.1,45.9,52.6c3-3.1,6.1-6.2,8.9-9.5
			c62.5-73,140.6-119.9,233.8-143c75.7-18.8,143.3-10.6,208.7,38.5c105.5,79.1,229.9,111,359.4,123c122.4,11.4,244.7,5.3,367-3.5
			c25.9-1.9,46.5-11.4,65.4-28c23.4-20.6,40.9-46.4,61.1-69.8c38.9-45.1,101.2-36.3,131.4,14.2c17.2,28.8,22.9,60.3,22.4,93.4
			c-0.6,36.9-0.4,73.8-1.9,110.7c-0.7,16.2,6.4,18.8,19.9,16.7c19.2-2.9,32.1-13.7,40.2-30.8c18.1-38.2,18-78.3,13-119.2
			c-15.2-123.9-98.3-210.1-221.2-226.8c-21.4-2.9-32.4-9.2-25.5-32.3c1.2-4.2,1.5-8.8,1.4-13.2c-0.1-9.4,3.8-12.9,13.5-11.7
			c84.3,10,160.7,38.5,213.1,108c78.9,104.8,102.6,218.9,44.7,342.2c52-8.4,85.9-48.9,88.8-106.4c5.1-100.6-16.4-193.8-68.2-281.4
			c-43.6-73.6-106.2-111.5-189.4-120.8c-41-4.6-32.6,2.5-33.6-36.7c-0.1-2.2,0.2-4.4,0-6.6c-1.1-10.4,2.8-14.2,13.8-13.5
			c71,4.3,136.8,23.2,191.5,70.7c64.2,55.8,96,131.2,121.6,209.6c6.6,20.4,9.9,41.8,15.5,66.1c4-6.6,6.4-10.2,8.4-14
			c47.7-93,23.5-210.7-57.6-284.6c-66.1-60.3-145.9-73-230.7-68c-19.6,1.2-29.4-2.7-27.5-23.7c0.5-5.1,0.1-10.4-0.5-15.5
			c-1.4-11.7,4-15.1,15.1-15.6c60.1-2.7,119.7-0.1,176.9,20.3c188.3,67.2,277.4,311,127.8,475c-8.5,9.3-9.1,19.3-9.2,30.5
			c-0.4,44.8-10.4,85.8-43.1,119.5c-50.9,52.2-113.2,62.7-181.4,51.1c-15.8-2.7-18.9,1.2-18.9,15.8c0,59.8-0.7,119.6-1.9,179.3
			c-0.2,12.6,3.3,16.6,16.2,15.8c39.8-2.4,79.7-2.4,119.4-5.6c59.6-4.9,119-11.7,174.3-37c85.7-39.2,154.7-99.5,214-171.5
			c66.5-80.7,114.5-169.7,119.4-277.3c9.5-205.9,7.4-411.6-4.2-617.3c-7.3-129.8-54.6-243.2-139.3-341.7
			c-12.7-14.7-24.3-22.7-44.9-17.2c-17.6,4.6-36.5,4.2-54.9,5.8c-150,12.9-300.4,18.5-451,20.2c-13.9,0.2-18.5,5.1-21.8,17.9
			c-37.4,147.5-128.9,246.8-274.8,287.4c-147.7,41.2-278.4,2.6-387.5-106.1c-4.5-4.5-7.7-11-15.6-11.1c-28.4-0.4-56.8-2.9-87.3,0.7
			c44.8,58.7,90.6,113.3,140.3,164.6c4.4,4.5,9.3,6.7,15.6,7c22.3,1,43.3,8.5,64.4,14.7c127.4,37.3,249.2,23.5,366-39
			c58.9-31.5,110.9-72.6,163.1-113.7c31.2-24.6,30.9-24.3,54.4,8.7c6.2,8.7,5.8,13.1-2.4,19.6c-52.1,41.1-103.7,82.9-160.7,117.3
			c-119.1,71.9-247,97.8-384.3,72c-26.9-5-53.3-13-81.4-20c3,37.4-9.6,68-27.7,96.3c-41.8,65.3-94.3,120.5-159.2,163.4
			c-15.5,10.3-32.1,18-51.3,18.2c-29.6,0.3-45.2-16.6-42.5-45.8c2.9-31.6,5.8-63.2,8.8-94.8c4.2-44.7-2.4-86.7-29.9-123.8
			c-21.9-29.6-42.5-60.3-65.6-89c-29.3-36.4-63-68.3-106.8-87.6c-21.8-9.6-42.8-13.1-65-0.1c-13.1,7.7-28.1,12.2-42.3,18.3
			c-124.4,53.4-250,104.4-372.4,162.5c-34.1,16.2-51.7,42-58.9,77c-4.6,22.5-6.3,45.2-3.6,68.2
			C353.3,2152.1,414.3,2256.8,483.1,2367.5z M1088.6,221.6c-77.4,34.3-147.7,73.8-211.5,124.9c-92.9,74.4-136.8,168.3-132,289.1
			c6.2,155.5,4.7,311.4,7.1,467.1c0.8,49.3-1.8,98.9,9.6,147.6c7.7,32.8,21.4,63.3,52.2,78.6c64.2,31.9,131.4,35,199.5,11.4
			c9.9-3.4,14.4-7.9,7.6-19.1c-20.1-32.8-19.8-68.6-13.7-105c9.7-57.8,11.5-116,3.7-174.1c-2.3-17.5,0.1-27.4,20.1-25.9
			c3.6,0.3,7.5-0.5,10.9-1.8c16.3-6,21.2,0.5,23.2,16.8c8.1,66.4,6.6,132.4-5.1,198.3c-10.2,58.1,30.8,117.4,84.3,121.8
			c24.6,2,31.4-3.1,34.7-25.9c31.7-223.2,231.6-370.6,454-334.7c180.1,29.1,313.1,182.9,322.2,374.6c1,20.5,6.5,25,26.1,24.9
			c126.3-0.3,252.3-7.5,378.1-15.8c71.2-4.7,142.7-9.8,212.2-28.8c53.7-14.7,87.5-48.7,103.7-101.7c14.4-47.1,16.2-95.8,19.3-144.3
			c8.3-127.4,17.1-255.1-7-381.7c-20.6-108.1-55.4-212-119.4-302.1c-77-108.4-195-163.6-308.7-223.2c-10-5.2-13-0.3-14.3,8.7
			c-7.3,50.7-25,98.4-44.5,145.3c-111.3,267.2-404.6,424.3-686.2,363c-208.5-45.4-337.5-179.7-402.4-379.7
			C1101.3,295.4,1094.8,260,1088.6,221.6z M1674.1,1692.1c10-3.4,16.3-5.1,22.3-7.6c146.1-60.5,228.6-216.3,199-375.7
			c-28.1-151.1-166.4-267-321.9-269.6c-214.6-3.6-376.8,189.2-336.8,400.4c31.7,167.3,194.4,288.6,360.4,269.5
			c13.4-1.5,18.5-6,21.3-19.2c21.1-99.4-57.5-190.4-161.9-186.7c-31.8,1.1-31.8,1.1-38.5-29.7c-0.3-1.4-0.3-3-0.8-4.3
			c-4.9-12.9,1.6-16.3,13.2-18.2c103.3-17,203.2,44.3,235.4,144.2C1675.7,1625.9,1675.5,1657.4,1674.1,1692.1z M371.6,457.5
			c-8,7.4-8.4,15.1-10.5,21.9c-16.5,53.2-40,103.4-73,148.1c-79.5,107.7-108.7,230.6-110.4,361.6c-0.9,71.5,3.6,143.1,9.6,214.3
			c5.3,62.4,12.5,124.5,33.8,184.2c24.4,68.4,68.1,116.4,139.1,136.5c44.9,12.7,45,12.2,70.1-26.5c2.4-3.7,4.4-7.9,7.5-10.9
			c15-14.7,11.4-26.6-0.7-42.8c-86.9-116.5-121-246.8-100.9-391.4c11.8-84.6,38.1-164.4,71.4-242.5c19.6-45.9,42.9-91.5,43.9-142.7
			C453,587.3,411.5,523.2,371.6,457.5z M371.6,1834.9c4-0.9,6.2-1,8.1-1.9c91.9-44.9,186.4-84.1,280.4-124.2
			c11.6-5,14.8-11.6,14.7-23.3c-0.4-62.7,1-125.4-0.8-188c-0.7-24.1,11.5-23.4,28.4-23.7c18-0.4,28.5,1.2,27.7,24.4
			c-1.8,54.5-0.5,109.1-0.6,163.7c0,10-0.3,18,14.2,11.5c76.2-34,154.8-60.4,237.1-75c7.5-1.3,12-3.5,11.5-12.3
			c-2.4-46.8,14.7-89.5,28.3-132.9c6-19.3,13.4-38.3,12.8-60.9c-49.2,17-97.9,20.5-147.6,14.5c-64.9-7.8-122.7-28.6-155.7-90.2
			c-9.1-17.1-16.1-14.3-29.4-6.2c-154.5,93.7-256.8,227.1-306.6,400.8C382.6,1751.2,374.1,1791.9,371.6,1834.9z M384.6,1174.4
			c-0.9,59.6,33.5,149.5,91.2,232c7.8,11.1,12.9,14.1,22.4,1.9c9-11.6,18.4-24.1,30.3-32c40.1-26.7,44.1-63.1,41.9-108.3
			c-5.7-117.8-7.3-235.8-0.2-353.8c4.6-77.5,26.4-152.1,38.8-228.2c11.9-73.2,10.7-144.5-35-207.8c-44.1-61-107.1-98-172.3-131.6
			c-3.7-1.9-7.5-4.8-11,1c-7.1,11.8-4.5,44.6,5,55.7c45.3,52.8,75.4,114.1,98.1,179.1c10.5,30.1,14.7,61.6,11.8,93.7
			c-4.9,53.6-25,102.8-46.2,151.4C417.1,924.7,385.7,1024.5,384.6,1174.4z M1692.2,666.9c62.3-0.9,175.6-35.5,275.9-108.3
			c128.6-93.3,194.5-225.3,228.2-376.5c1.9-8.5-0.8-13.9-10.3-15.8c-20.2-4-40.6-7.5-60.3-13.5c-22.9-7-30,0.4-36,23.5
			c-44.8,172.1-141.3,305.1-303,385c-75.6,37.4-156,54.5-240.2,37c-103.1-21.4-173.5-87.1-226-174.4
			c-44.4-73.9-67.8-154.9-75.5-240.5c-1.5-16.3-5.1-20.5-21.5-13.1c-21.4,9.6-44.1,16.4-66.6,23.4c-12.3,3.8-16.1,10.5-13.6,22.7
			c4.7,23.1,7.4,46.6,13.3,69.4C1217.5,522.2,1397.8,666.9,1692.2,666.9z M1964,2664.5c1.6,0,3.3,0,4.9,0
			c0-63.4,0.2-126.8-0.2-190.1c-0.1-13.9-0.6-28.2-3.9-41.6c-4-16.6-11.1-33.6-29.3-38.7c-18.8-5.2-26.1,12.7-36.7,23.1
			c-2.1,2-3.9,4.5-5.6,6.9c-41.4,59.3-93.3,100.2-170,97.9c-10.4-0.3-13.8,3.6-13.8,14.1c0.3,115,0.3,230,0,345
			c0,11.4,3.2,15.2,15,14.8c72.9-2.5,145.8-4.9,218.8-6c17-0.3,21.1-6.3,21-22C1963.6,2800.1,1964,2732.3,1964,2664.5z M1655,2712.9
			c0-55.3-0.6-110.6,0.3-165.8c0.3-16.3-3.8-21.5-20.9-20.8c-87.6,3.7-175.3,6.5-262.8-3.5c-15.3-1.8-16.3,5.1-16.8,17.3
			c-2.6,63.4-0.2,126.7,5.6,189.8c6.1,66.2,26.1,125.1,82.7,166.3c11.6,8.4,22.5,11.7,36.5,10.8c50.7-3.2,101.5-7,152.3-7.2
			c21.3-0.1,23.7-7.8,23.4-25.5C1654.4,2820.5,1655,2766.7,1655,2712.9z M1860.3,128c0-0.7,0-1.4,0-2.1c-20.6,0-41.3,0.6-61.9-0.2
			c-10.2-0.4-16.1,3.2-21.3,11.8c-73.4,121.2-122.6,251.1-143.9,391.5c-3,19.8,3.9,20.8,19.1,18.3c26.3-4.3,52.2-10.1,76.8-20.2
			c164.7-67.3,261-193,308.5-360.8c5.4-19.2,2.1-25.4-18.5-26.5C1966.1,137,1913.2,132,1860.3,128z M1377.4,2911.6
			c-15.9-20.9-30.6-38.1-40.6-58.8c-10-20.7-17.7-41.8-21.7-64.5c-14.7-81.6-19.5-163.9-13.7-246.5c1.5-20.9-3.4-29.4-25.1-32.7
			c-51-7.9-100.4-23.2-148.8-41.3c-14.3-5.4-30.8-20.6-42-14.2c-11.3,6.5-4.6,28.4-7.1,43.4c-23.4,140.4-8,276,50.6,406.4
			c6.1,13.6,13.1,18.3,27.9,18.2C1229.2,2920.9,1301.2,2915.9,1377.4,2911.6z M1075.2,2916.5c-4.2-11-7.1-18.5-10-26
			c-37.3-94.5-55.8-192.4-50.5-294.1c2.3-44.9,8.3-89.5,11.8-134.3c1.1-14.3,8.2-33.9-3.6-41.7c-12.4-8.2-26.7,7.4-38.5,15
			c-91.7,59.3-185.3,115.1-285,160c-2,0.9-3.5,2.6-5.5,4.1c1,2,1.6,4.1,3,5.6c72.2,79.8,143.5,160.5,217.2,238.9
			C956,2888.5,1011.4,2908.4,1075.2,2916.5z M623.8,1295.2c12.9-8.3,20.7-15.5,30-18.9c43.1-15.8,59.5-44.3,46-89.1
			c-2.1-6.8-1.1-14.7-1.2-22c-2.5-182.9-5.6-365.8-7.2-548.8c-0.4-47.1,0.6-94.9,20.7-139c7.5-16.5,4-28.5-5.1-42.6
			C639,329.3,558.4,234.8,463.7,152.5c-25.3-22-36.8-19.6-51.6,11.4c-2.2,4.6-3.3,9.7-4.9,14.6c-7.7,25-5.8,51.2-9.6,76.5
			c-3.2,21.3,3.1,31.5,22.1,40.3c34.1,15.7,66.5,34.9,97.9,55.7c125.3,83,172.1,198.8,144.8,345.5c-10.4,55.8-24.7,110.9-32.1,167
			C611.6,1005.2,622.3,1147.6,623.8,1295.2z M928.6,1664.3c70.5,43.2,113.1,104.2,157.3,164.2c38.3,52,59,108.2,52.5,173.3
			c-2.6,25.4-4.6,50.9-6.9,77.3c3.9-0.5,6.4-0.1,8-1.1c64.8-43.4,117-98.4,153.7-167.6c14.2-26.8,10.1-51.2-10.4-72.9
			c-48.1-51-93.4-104.2-137-159.1c-14.7-18.6-34.5-30.2-57.7-34.3C1034.8,1634.6,985.8,1655.8,928.6,1664.3z M1450.6,481.7
			c-2.8,9,1.3,14.3,7.8,19.2c31.2,23.5,66.1,38.6,104.4,45.8c8.4,1.6,13.8,0.7,14.5-10.2c1-13.9,3.9-27.7,6.4-41.5
			c22.4-126.7,66.5-245.4,130.1-357.1c6.7-11.8,4.5-15.3-8.7-14.9c-38.3,1.2-76.7,2-115.1,2.5c-9.6,0.1-14.3,5.2-19.1,12.3
			C1500.6,242,1460.8,357,1450.6,481.7z M750.8,402.9c39.4-55.1,86.7-98,140.1-134.3c11.6-7.9,11.4-12.4,0.2-20
			c-23.7-16.2-46.9-32.9-71.8-47.5c-79.5-46.6-166.8-68.8-256.6-83.2c-18.2-2.9-36.7-7.4-58-1.5C600.7,201,681.3,295.3,750.8,402.9z
			 M1511.1,130.2c-68.6,2.8-131.1,11.6-193.7,20.4c-17.5,2.4-21.1,9.1-19.5,25.1c8.7,85.7,33.2,165.8,80.5,238.3
			c5.4,8.3,9.7,18.2,21.1,24.4C1415.5,329.3,1450.4,227.8,1511.1,130.2z M969.2,2380.6c-26.9-21.8-54.7-31.3-86.1-29.1
			c-95.8,6.7-177.8,44.3-246,111.5c-37.3,36.7-37,37-1.1,75.8c1,1.1,2.2,2,3,3.3c8.2,12.7,17.4,14,31.5,7.2
			c49.7-24.1,99.9-47.2,147.4-75.4C868.4,2443.9,917.9,2412.3,969.2,2380.6z M1230.7,1575.5c-29.5-52.7-47.6-106.7-52.8-164.6
			c-0.5-5.8-4.2-7.2-9.3-6.1c-27.1,5.7-52.1-3.5-78.3-11.9c-4.9,44-20.8,83.9-33,124.7c-5.5,18.4-10.2,36.9-11.4,56.1
			c-0.4,6.5-1.1,14.3,9.7,12.8C1112.7,1578.3,1170.2,1578.5,1230.7,1575.5z"/>
	</g>
</g>
</svg>
