<?xml version="1.0" encoding="utf-8"?>
<!-- Generator: Adobe Illustrator 23.0.0, SVG Export Plug-In . SVG Version: 6.00 Build 0)  -->
<svg version="1.0" xmlns="http://www.w3.org/2000/svg" xmlns:xlink="http://www.w3.org/1999/xlink" x="0px" y="0px"
	 viewBox="0 0 3000 3000" style="enable-background:new 0 0 3000 3000;" xml:space="preserve">
<style type="text/css">
	.st0{stroke:#000000;stroke-width:10;stroke-miterlimit:10;}
</style>
<g id="Layer_1">
</g>
<g id="Layer_2">
	<g>
		<path class="st0" d="M448,1143.5c-47.7,15.8-90.6,28.2-135.4,32.8c-30.7,3.1-61.2,2.8-91.4-4c-77.2-17.5-126-77.4-134.7-164.5
			C76.3,905.5,103.1,810,140,716.6c79.1-200.1,216.6-344.8,412.5-434.9c45.9-21.1,89.1-47.7,140.3-54.8
			c96.5-13.4,200.4,25.2,219.2,158.3c7.7,54.7,5.8,109.2,0.1,164.3c9.2-0.5,12.4-7.8,16.9-12.6c102.6-108.9,206.2-216.8,306.9-327.4
			c55.8-61.3,126.3-87.3,204.5-100.2c138.7-23,278.7-31.1,418.8-38.7c137.4-7.4,274.7-11.5,412.2-4c63.3,3.5,126.5,5.9,189.3,16.4
			c96.2,16.2,171.3,66.4,225.2,145.2c74.7,109.5,118.7,231.7,128.6,364.3c13.4,180.7,8.2,361.6,2.2,542.4
			c-2.7,83.3-6.7,166.3-17.9,249.1c-14.2,105.2-70.1,183-152.2,245c-16.8,12.7-34.6,24.1-55.1,38.3c38.3,6.4,71.6,17,102.1,35.5
			c71.1,43.2,116.6,107.5,141.6,184.3c54.8,168.4,70.4,341.1,25.1,513.4c-55.4,210.2-188.2,355.8-392.3,433.1
			c-69.5,26.3-143.3,36.2-217.1,43.7c-101.3,10.3-202.4,22.1-304.4,24.1c-149.1,3-242.4-78-307.6-202.2c-4.5-8.6-4.1-12.8,5.9-17.6
			c33.9-16.4,33.7-17,52.1,15c41.3,71.8,96.7,127.1,179.9,146.6c53.4,12.5,107.9,6.2,161.8,1.6c102.8-8.7,205.6-17.7,307.8-33.4
			c267.2-41.1,460-267.1,481.3-521.1c10.1-119.5,1.3-237.5-30.8-353.3c-12.3-44.2-31.2-85.7-58.1-122.9
			c-41.4-57.4-97-91.9-168.8-95.1c-181.7-8.1-358.8,11.3-523.1,96.2c-143,73.9-247,183.5-298.6,338.5c-7.4,22.3-13.6,45.2-15.2,68.6
			c-1.4,19.9-7.3,28.5-29.6,25.3c-26.8-3.9-27-1.9-23-28.4c24-161.2,110-284.4,235.3-383.3c19-15,39.3-28.4,59.9-41
			c10.8-6.6,14-12.1,10.9-25.2c-13.5-57-21.6-114.7-18.6-173.6c5.4-104.1,49.8-185.4,139.2-240.8c49.1-30.4,97.5-61.4,135.5-106.2
			c49.6-58.5,66.1-129.7,79.7-202.1c7.7-41.3,13.2-82.9,15.8-124.9c6.2-100.3-9.7-193.9-86.3-266.9c-61.3-58.4-136.1-90-219.3-101.3
			c-80.8-11-160.7-3.4-239.3,16.7c-100,25.5-199.3,53.3-291.2,102.1c-35.9,19.1-66.5,44-87,79.7c-5.1,8.8-9.6,10.6-18.3,5.6
			c-11.1-6.3-22.7-11.7-34.8-17.8c32-64.1,85.4-103.7,148-130.5c122.6-52.6,248.8-94.6,382.3-109.1c125.5-13.6,244.4,5.7,350.3,79.4
			c94.1,65.5,143,157,148.1,270.7c4.8,108.4-12,214.5-44.4,317.8c-27.3,87-86.5,149.1-160.5,198.7c-21.9,14.7-44.6,28.1-66.3,42.9
			c-67.3,45.9-95.1,112.7-99.4,191.3c-2.9,53.1,5.9,105,17.8,156.7c2.7-0.4,4.9-0.1,6.7-1c128.8-61.8,266.3-85.2,407.5-91.9
			c32.9-1.6,60.8-18.9,89.5-32.7c45.9-22,86-52.4,122.6-88.1c53.7-52.4,78.7-117.4,86.2-190.3c19.1-186.7,19.7-374,18.8-561.4
			c-0.4-77.5,2.4-155.6-10.1-232.5c-18.4-112.8-54.6-219.6-123.2-312.5c-51.7-70.1-122.8-108.2-209.6-117.4
			c-144.1-15.2-288.5-18.1-433.2-13.3c-126.7,4.2-253.4,10.4-379.5,22.7c-84.1,8.2-168.9,14.7-249.6,42.9
			c-27.1,9.5-52.1,23.7-71.7,45.1c-162.6,178.5-334,348.9-496.5,527.4c-115.9,127.2-209.8,271.2-302.2,416
			c-50.5,79.2-104.3,156.4-143.9,242.1c-31.6,68.4-51.3,138.8-39.6,215.1c15.3,99.9,64.2,182.8,129.5,257.7
			c9.3,10.6,15.6,4.8,23.3-0.2c44.3-28.8,90.3-54.3,138.9-74.9c90.3-38.2,185.2-54.9,282.6-60c17.8-0.9,35.6-0.8,53.4-1.5
			c37.2-1.5,37.3-1.5,44.9-37.3c8.2-38.8,8.5-77.6,2-116.7c-5-30.3-18.5-51.1-51.8-55.5c-7.8-1-23.1,0.4-22.8-10.5
			c0.3-14.4,6.3-29.1,12.1-42.7c2.2-5.3,10.5-1.1,15.7,0.1c73.3,18,99.8,52.5,103,132.8c1.7,42.1-0.4,83.9-12.1,125.8
			c22.6,0,43.9,0.2,65.1,0c70.8-1,141.4,2.7,209.9,20.6c150.3,39.3,235.2,141.4,271.2,288.9c11.6,47.3,16.9,95.4,19.3,143.7
			c5,100.4,6.8,201-7.1,300.8c-16.5,118.9-80.4,209.3-174.8,280.5c-105.8,79.8-226.7,124.2-354.9,149.8
			c-128.1,25.6-257.7,40.1-388.5,35c-114.6-4.4-222.5-31.1-314.7-104.5c-105.5-83.9-165.4-194.6-187.3-325.6
			c-35.6-212.2,17.9-397.9,172-551.5c15.6-15.6,32-30.8,49.9-43.4c15.7-11.1,13.1-18,2-30.9c-64.2-74.5-110.7-158.1-129.6-256
			c-15.2-78.3-3.1-152.8,25.7-225.8c37.2-94,93.5-177.2,147.8-261.6C438,1159.7,441.6,1153.7,448,1143.5z M746.5,1822.1
			c-10.7,1.9-16.9,2.8-23,4.2c-88.1,19.8-166.9,60.2-241.6,109.5c-193.9,128.2-290,305.6-271.4,540.7c1.1,13.9,3.3,20.7,19.9,17.3
			c87.1-17.5,175.4-18.5,263.8-15.6c88.2,2.8,151,45.2,186.9,125.8c6.4,14.3,13.7,18,28.8,17c86.7-5.7,173.4-10.4,260.1-14.7
			c14-0.7,23.7-5.2,32.9-15.7c58-65.9,119-128.6,188.5-182.6c66.7-51.8,135.9-98.7,220.8-116.3c38.5-8,77.7-9.3,116.6-13.4
			c10.9-1.2,16.3-3.7,15.8-16.4c-2.6-66.9-5.9-133.8-22.6-199c-20.2-79.2-55.7-149.1-124.9-197.6c-52.2-36.6-111.3-52.1-173.4-60.8
			c-19.4-2.7-23.2,1-23.7,20.6c-1.6,71.8,3.5,143.9-10,215.2c-10.9,57.5-43.5,96.1-98.1,116.4c-64.8,24.1-131.7,36.1-200.9,32.5
			c-10.6-0.6-16.6,2.7-23.1,10.9c-21,26.6-48.7,44.7-81.9,50.7c-74.7,13.7-143.4-2.2-202.3-50.8c-55.1-45.4-58.6-117.1-11-170.1
			c20.2-22.5,44.6-39.8,68.3-58C690.8,1933.6,719.7,1881.2,746.5,1822.1z M820.3,646.8c28.1-15.8,29-43.1,33.5-68.9
			c11.2-64.9,18.4-130.1,4-195.2c-17.7-80.2-74.9-117.2-156-104.3c-45.9,7.3-84.5,31.4-125.8,50.3c-177,81-304.6,209.1-379.6,389.1
			c-37.2,89.4-65.7,180.6-58.5,279.3c4.9,66.9,38.2,110.6,95.2,123.9c21.6,5.1,43.5,6,65.8,4c63.9-5.7,123.1-27.4,181.7-51.3
			c13-5.3,21.9-14.1,29.7-25.8c77.7-116.7,158.8-231,252.4-335.9c23.2-26,23.1-32.5-5-53.7c-11.4-8.6-24-15.3-37.6-19.9
			c-45.3-15.3-88.9-7.5-130.7,11.7c-63.1,29.1-120.1,68.1-171.9,114.1c-34.1,30.4-61.3,66.6-66.5,113.5
			c-2.4,21.6-8.9,32.2-31.4,29.3c-2.8-0.3-5.8,0.1-8.5,0.8c-13,3.3-15.6-2.9-15.1-14.6c1.9-46.5,17.2-88.7,46.6-123.8
			c70-83.8,157.9-144.4,260.5-179.4C685.1,562.2,760.8,578.2,820.3,646.8z M819.6,2908.4c6.8,0,9.4,0.2,11.9,0
			c62.4-5.6,124.5-12.5,186.1-24.3c118.3-22.6,232-56.8,333.1-125.1c83-56.1,149.4-125,175.4-225.3c13.9-53.4,15.9-108.3,17.9-163
			c1.4-39.8,0.9-39.4-38-37.8c-83.1,3.5-159.1,26.8-227.3,75.8c-52.7,37.9-103,78.3-149.4,123.8c-84.6,83.1-158,175.5-230.4,268.9
			C872.5,2835.5,847.5,2870.7,819.6,2908.4z M668.5,2842.1c-0.2,0-0.4,0-0.7,0c0-13.5,0.7-27.1-0.1-40.6
			c-3.6-59.8-8.6-119.4-33.4-175c-23.7-53.1-62.1-88.2-122.2-93.6c-91.2-8.3-181.9-2.9-272.2,11.8c-15.8,2.6-17.2,7.7-13.5,22.2
			c52.6,207.5,213.5,337.3,428.4,345.4c10.5,0.4,14-2.3,13.8-12.5C668.1,2880.5,668.5,2861.3,668.5,2842.1z M1147.8,1896.5
			c0-26.4-1-52.8,0.4-79.1c0.9-16.7-5.3-19.6-20.6-19.7c-70.6-0.5-141,3.6-211.5,4.2c-17.7,0.2-22.2,5.3-22.7,22.7
			c-3,99.7-4.8,199.3,1.2,299c0.9,15,8.6,13.4,17.8,13.4c54.7,0.2,107.1-10.4,158.7-28.9c39.2-14,60.2-39.8,68.1-79.7
			C1147.7,1984.8,1145.9,1940.6,1147.8,1896.5z M840.9,1949.3c0-41.3,0.2-82.5-0.2-123.8c-0.1-6.2,5.2-16.6-5.2-17.7
			c-9.8-1-21.9-2.1-28.8,8.9c-2.6,4.2-4.2,9-6.1,13.6c-34.3,83.1-82.5,155.7-157.9,207.6c-9.3,6.4-18,14-26.2,21.8
			c-34.6,33-33.3,72.7,3.8,102.7c39.6,31.9,86.3,43.9,135.8,40.1c59.4-4.6,92-43.3,86.3-99.6
			C837.5,2051.7,838.6,2000.5,840.9,1949.3z"/>
		<path class="st0" d="M2354.2,2179.9c0.2,49.6-10.3,93-35.3,131.5c-54.8,84.4-129.3,140.6-231,156c-23.6,3.6-46.9,1.7-69.4-6.5
			c-37.5-13.6-53.8-44.1-44.5-82.8c3.5-14.6,8.6-28.8,16.4-41.5c47.1-77.1,103.6-146.1,176.9-200.1c35.1-25.8,74.5-40.9,117.7-46.5
			c37.7-4.9,55.4,7.3,64.5,44.9C2353.4,2151,2353.2,2167.3,2354.2,2179.9z"/>
		<path class="st0" d="M1436.8,985.8c27.8-1.5,59.7,2.3,91.6,5.1c14.9,1.3,25.2,5,17.7,23.3c-1.8,4.4-1.6,9.8-2,14.8
			c-1,12.8-4.9,17.4-20.1,15.1c-49.4-7.3-99.2-8.5-149.1-4.1c-12.1,1.1-18.8,5.8-25,15.8c-45.9,74.6-93.2,148.3-146.6,217.8
			c-54.8,71.4-126.3,113.7-217.4,119.7c-23.3,1.5-46.6,0.4-69.9-2.8c-101.2-13.9-148-81-170.5-172.6c-3.5-14.2,0.1-34.4-11.8-41.2
			c-10.1-5.8-27.4,0.8-41.5,2c-5.7,0.5-11.6,0.3-17,1.8c-18.5,5-26.2,0.1-26.7-20.7c-0.6-30-2.2-30,26.6-32.2
			c94.8-7.3,186.5-30.5,278.2-53.9c110.9-28.2,220.8-60.4,334.4-76.7C1335.9,990,1384,985.1,1436.8,985.8z M1292.8,1048.3
			c-33.2,6.3-61.6,11.3-89.8,17.2c-134.4,28.1-265.1,71.3-400.2,96.5c-10.9,2-13.4,6.7-11.5,17.5c5.5,31.1,15.6,60.6,28.7,89.1
			c13.5,29.4,35.7,48.6,66.2,59.7c95,34.7,201,4.1,270.1-80.4c41.1-50.2,75.6-105.2,111-159.4
			C1275.1,1076.9,1282.4,1064.8,1292.8,1048.3z"/>
	</g>
</g>
</svg>
