<?xml version="1.0" encoding="utf-8"?>
<!-- Generator: Adobe Illustrator 23.0.0, SVG Export Plug-In . SVG Version: 6.00 Build 0)  -->
<svg version="1.0" xmlns="http://www.w3.org/2000/svg" xmlns:xlink="http://www.w3.org/1999/xlink" x="0px" y="0px"
	 viewBox="0 0 3000 3000" style="enable-background:new 0 0 3000 3000;" xml:space="preserve">
<style type="text/css">
	.st0{stroke:#000000;stroke-width:10;stroke-miterlimit:10;}
</style>
<g id="Layer_1">
</g>
<g id="Layer_2">
	<g>
		<path class="st0" d="M272.1,1433.7c-58-38.2-102.6-90.1-131-153.4c-99.6-221.7-99-443.7,16.6-658.3
			c102.8-190.7,351.4-276.7,549.5-198.8c43.9,17.3,82.7,42.7,116.6,75.5c13.3,12.9,26.8,25.7,40.9,39.3
			c75.8-85.4,167.7-148.3,276.2-187.1c78.4-28.1,159.5-36.9,242.2-36.8c295.2,0.2,590.3-0.5,885.5,0.4
			c316.4,0.9,576.8,208.2,645.8,512.4c11.1,49,15.1,98.8,15.1,149c0,134,0.1,268,0,402c-0.2,198.5-74.1,364.4-221.2,497.6
			c-10.2,9.2-19.8,14.7,0.4,25.5c119.6,63.9,178.8,168.6,198.4,299.1c9.5,63.2,13,126.9,0,189.8
			c-28.7,138.2-190.1,213.4-315.3,147.7c-20.9-11-40.5-24.5-60.7-37.1c-20.2-12.6-40.8-24.3-64.5-29c-36.8-7.2-61.6,4.1-77.5,36.4
			c-25.3,51.3-72.5,67.1-123.2,73.3c-106,12.9-212.4,23.8-319.2,23.1c-83.5-0.5-166.9-10-250.4-14.7c-140.5-8-281.1-15.1-421.6-23.3
			c-26.5-1.5-41.1,6.2-44.3,35c-5.3,47.9-37,71.7-81.7,81.7c-101.2,22.5-195.6,4.6-282.6-50c-21.7-13.6-36.3-13.3-58,0.1
			c-220.9,135.3-530.7,59.9-652-162.4c-91.1-166.9-73.4-334.5,16.3-497.5c11-19.9,24.4-38.5,38.2-60c-10.7-3.9-20.6-7.4-30.3-11
			c-72.9-27.1-109.3-81.6-118.6-156.9c-17.1-137.9,64.5-256.8,196.6-302.4C262.7,1441.3,268.6,1441.9,272.1,1433.7z M1073.8,2006
			c-72.6,1.2-123.2,4.9-173.9,10.4c-87.2,9.4-128.3,41.8-150.8,126.1c-30.3,113.5-12.9,222.9,30.3,330.4
			c55.8,139,235.9,203.9,367.5,166.6c25-7.1,38.3-21.4,42.6-47.3c8.5-50.8,32.8-71.2,83-68.9c96.5,4.4,193,9.4,289.5,15.4
			c108.3,6.7,216.4,16.3,324.7,22c124.8,6.5,248.8-7.4,372.5-21c44.1-4.9,82.6-20.5,101.9-67.7c11.8-28.7,40.6-39.7,70.7-42.9
			c31.9-3.3,62.6,1.7,90.7,18.1c30.7,17.9,60.2,38.2,91.8,54.4c101.3,52.1,232.1-13.4,251.8-125.6c9.6-54.8,7.3-109.9-0.2-164.6
			c-17.4-126.5-76.1-224.8-194.1-282.5c-11.2-5.5-19.7-9-32.2-0.6c-116.9,78.5-246.2,111.9-386.7,111.1
			c-288.4-1.6-576.7-0.4-865.1-0.6c-37.2,0-74.5,0.7-111.6-4.8C1201.8,2022.7,1128.5,2001.6,1073.8,2006z M1109.5,1943.7
			c-10-16.4-16.1-26.1-21.9-36c-131.5-225.8-197.8-467.4-170.3-729.7c18.1-173.1,93.7-317.6,232-425.4
			c100.3-78.2,217.2-119.7,340.5-145.9c138.3-29.5,278.8-37.5,419.3-45.2c125.2-6.9,250.7-15.2,375.7,4.4
			c186,29.2,317,128.5,386.7,304.9c34.4,87,45.3,178.6,50.2,271.3c13.2,249.9-8.8,494.7-103.3,729.3c-2.6,6.6-8.5,13.1-4.4,21.8
			c3.1-1.7,6.3-2.9,9-4.9c167.4-121.4,257.8-284.6,263-492c2.8-111.1,1-222.2,0.3-333.4c-0.3-55.9,2.3-111.8-3.9-167.8
			c-33.2-301-296.4-537.6-599.3-537.6c-307.1,0-614.2,0-921.3-0.1c-28,0-55.8,1.4-83.7,4.5C998.8,392.9,762.4,640.8,749,921.4
			c-7.7,160.2-4.7,320.6-1.6,480.9c3.4,175.2,74.3,321.5,203.5,439.4C995.9,1882.9,1046.4,1915.9,1109.5,1943.7z M1301.3,1992.8
			c0.5-3.8,1.1-4.9,0.7-5.4c-8.2-10.8-16.6-21.4-24.9-32.2c-161.4-210.4-247.4-443.7-218.1-712.8c18.6-171.3,87.4-315.7,230.9-415.1
			c135.1-93.6,288.6-142.1,452-153.4c168.2-11.7,335.4,8.5,501.6,31.4c160.5,22.1,265.8,115.1,319.9,266.3
			c41.2,115.2,54.7,233.7,36.5,355.2c-26.1,174.9-56.6,349.1-88.4,523.1c-6.3,34.3-15.5,68.3-16.9,103.2c38.9-5.3,59.3-27.5,70.6-62
			c14.2-43.4,32.3-85.5,46.5-128.9c63.1-192.8,78-391.4,68.6-592.7c-3.5-74.6-8.7-148.9-28.2-221.4
			c-43.2-160.3-136.7-274.2-299.2-324c-66.1-20.3-134.5-26.6-203.4-27.3c-149.9-1.5-299.2,8.7-448.4,21.5
			c-112.5,9.7-223.6,28-330.8,65c-201.1,69.4-339.7,200.3-394.5,410c-34.3,131.3-29.2,263.7-2.6,395.7
			c33.1,164.6,91.6,318.8,189.8,456.3c8.2,11.5,14.7,24.8,30.4,29C1228.6,1983.7,1264,1991.9,1301.3,1992.8z M1411.7,1994.5
			c37.1,12,58.7-8.3,81.5-34.1c191.2-216.7,383.6-432.4,575.5-648.5c126.1-141.9,251.7-284.2,378.2-425.7
			c11.6-13,12.1-20.2,0.2-32.8c-34.3-36.3-73.1-65.1-120.2-83c-15.1-5.7-24-4.1-34.9,7.9c-58.3,63.9-117.3,127-176.3,190.2
			c-229,245.4-458.1,490.7-687.2,736.1c-47.4,50.8-94.4,102.1-142.5,152.2c-13,13.6-14.1,23.9-1.9,38.3
			c17.5,20.7,34.2,42.1,49.9,64.2C1353.3,1986.7,1374.9,2007,1411.7,1994.5z M139.8,2240.8c-1.6,190.3,112.5,343.1,295.9,397.4
			c122.8,36.4,239.5,23,350.3-41c7.7-4.5,21.3-6.8,8.7-21.3c-43.8-50.5-68.8-110.6-84-174.7c-4.9-20.6-11.6-16.5-24.9-9.2
			c-45.7,24.8-94.5,36.7-146.7,32.7c-59.4-4.6-100.2-41.6-105.1-98.1c-1.9-21.8-1.1-44.2,1.5-65.9c5.1-41.6,15.2-51.3,55.7-61.1
			c61.3-14.8,123.6-21.8,186.6-19.4c14.6,0.5,20.8-3.3,23.4-18.1c3.3-19.1,8.5-38.1,15.3-56.2c4.9-13.1,1.1-20.1-8.8-27.8
			c-38.6-30.1-80.8-53.2-128.7-64c-82.5-18.6-152.4,2.9-207.8,68.2c-23.9,28.2-40.8,60.1-52.6,94.9
			C267.2,2328,320.8,2511,530.3,2549c34.4,6.2,69.2,6.1,103.9,2.2c19.3-2.2,16,12.6,18,23.5c1.9,10.4,1,17.1-12.7,18.5
			c-122.8,12.4-232.1-15.3-314-112.6c-89.9-106.8-89.7-284.4-2.2-405.8c65-90.3,153-125.5,262.3-102.7c52.8,11,100,35.7,142.9,68.4
			c5.2,4,11.3,14.9,18.7,6.2c12.7-14.8,30.5-26.9,27.2-51.6c-3-23-7.5-45.1-18.7-65.4c-14.4-26.1-37.1-43.2-62.4-58
			c-19.2-11.2-36.1-0.1-54,1.7c-41.4,4.3-82.1,2-116.5-24.2c-14.2-10.8-19.8-6.3-29.2,4.8c-56.6,66.3-128,91.5-213.5,72.8
			c-16.5-3.6-26.2,0.8-36.2,14.2C177.5,2030,142.4,2129.7,139.8,2240.8z M1521.2,1992.4c7.6,6.5,14.6,4,20.9,4
			c247.5,0.2,495,0.1,742.5,0.1c37.4,0,74.4-4.7,111.1-11.6c50-9.4,49.9-9.8,58.8-60.7c2-11.7,3.1-23.7,6.7-34.9
			c4.4-13.5,1-21.4-11-29.2c-164.2-107.7-328.3-215.5-491.7-324.3c-17.8-11.9-25.7-8-38.3,6.4c-97.3,110.7-195.6,220.6-293.4,330.8
			C1591.5,1912.6,1556.5,1952.4,1521.2,1992.4z M113,965.1c2.9,116.1,22.9,224.9,81,324.5c63.2,108.1,158.7,155.7,281.6,150.5
			c55.4-2.3,108.6-17.3,160.1-37.8c68.1-27.1,67.1-27.3,67.9-99.5c0.3-21.5-6.1-22.3-24.1-18.1c-89.7,20.7-176.9,13.5-259.4-28.9
			c-128.5-66-202.1-217.5-178.2-364.2c24.1-147.7,115.4-250.5,253.3-282c93.1-21.3,182.2-6.8,265.2,39.8c17.6,9.9,23.8,6.3,32.1-9.6
			c9.8-18.7,21.7-36.4,34.3-53.4c6.9-9.4,6.7-15.4-0.9-23.8c-24.6-27.1-50.2-52.8-81.4-72.5c-156.2-98.7-396.8-52.6-515.8,100.6
			C142.7,701.4,116.8,831.4,113,965.1z M2258.6,751.8c-49.5-11.1-95.8-13.3-141.4-20.2c-22.7-3.4-37,1.8-52.3,19.2
			c-269.6,305.7-539.9,610.7-810,915.9c-20.8,23.5-52.7,44.5-58.7,71.4c-6.1,27.4,25.4,54.3,39.2,82.1c7.4,14.7,13,16.1,24.7,3.2
			c43.3-47.7,87.5-94.5,131.4-141.6c251-268.9,502-537.8,753-806.8C2181.8,835,2218.8,794.7,2258.6,751.8z M1194.1,990.2
			c-7.6,0.3-9.4,6.8-12.4,11.5c-15.6,24.3-28.7,49.9-39.9,76.5c-30.5,72.2-39.4,148.7-44.6,225.8c-8.8,131.1,16.7,256.3,66.9,377
			c5.8,13.9,10.7,11.9,18.9,2.4c18.8-21.9,37.9-43.4,57.1-64.9c98.4-111,196.9-222,295.3-333c9-10.1,18.5-17.4,0.5-31.1
			c-110.4-84.4-219.7-170.2-329.4-255.5C1202.5,995.8,1198.2,993,1194.1,990.2z M2473.3,1824.7c17.6-100.9,34.5-198.3,51.9-295.6
			c2.4-13.4-1.3-21.7-12-30.2c-103.3-82.3-206.3-164.9-308.9-248c-11.2-9.1-17.2-8.7-26.5,1.9c-66.5,75.7-133.5,151-200.7,226
			c-8.5,9.5-7.9,14,2.9,20.8c27.2,17,53.6,35.5,80.4,53.2C2196.8,1642.5,2333.1,1732.3,2473.3,1824.7z M1528.1,760.2
			c-12.5,4.4-26.9,9.5-41.2,14.5c-95.3,33.9-182.6,80.5-252.1,156.3c-13.4,14.6-18.7,22.7,1.7,38.2
			c109.3,82.9,217.2,167.7,325.1,252.3c12.8,10,20.3,12.1,32.4-1.9c59.4-68.5,119.8-136,180.3-203.5c9.2-10.3,11.8-16.5-0.2-27.9
			c-76.3-72.3-151.6-145.6-227.3-218.5C1542.1,765.2,1538.2,758.9,1528.1,760.2z M428.1,1565.6c0-13.6,1-27.2-0.2-40.7
			c-2-23-12.8-40-36.4-46.6c-35-9.8-69.8-10.4-105,0.1c-112.5,33.6-189.6,122.8-184.3,245.3c3.2,73.3,36.9,122.1,106.6,143.1
			c30.7,9.3,62.2,16.6,93.9,21.4c70.4,10.5,125.7-16.1,167.5-73c4.9-6.7,8.4-11.8,3.5-20.1C432.2,1723.7,436,1643.5,428.1,1565.6z
			 M716.7,831.6c10.3-35,18.3-68.7,31.3-100.7c14-34.3,13.6-34.5-20.5-51.7c-6.1-3-12.2-5.9-18.4-8.6
			c-124.6-54.1-268.5-27.5-351.4,64.9c-91.8,102.4-102.8,268-25.6,385.7c72.8,110.9,225.3,161.3,355.9,118.5
			c12.5-4.1,15.4-9.9,15.2-21.6c-0.5-32.2-1.2-64.5,0.2-96.6c0.9-19.2-6.4-18-20.5-13.5c-35.4,11.5-71.3,21.5-108.3,26.6
			c-101.5,14-168.8-28.1-194.2-119.8c-18.5-66.7-9.1-131.5,26.4-191.1c40.3-67.5,102.7-89.3,176.6-62.8
			C630.7,777.8,675.6,799.3,716.7,831.6z M473.8,1573.4c-0.1,50.8,3.7,101.7,15.9,151.1c18.2,74.1,68.5,114.6,132.7,107.8
			c67.9-7.2,124.3-36.9,167.6-90.7c7.2-8.9,9.9-15.6,3.3-26.7c-50-84.5-79.5-175.7-86.5-273.8c-1.2-17.1-5.4-21.5-22.6-13.4
			c-60.2,28.2-123.7,46.4-189.9,53.2c-14.9,1.5-21.2,6.2-20.7,21.4C474.3,1526,473.8,1549.7,473.8,1573.4z M550.1,1094.6
			c41.2-2.1,91.1-18.2,141.3-33.6c12.6-3.8,11.6-12.4,11.6-21.8c-0.1-47.5-1.3-95,5-142.2c1.7-12.7-3.7-20.3-12.9-27.9
			c-39.2-32.3-83.9-54-131.6-69.8c-50.7-16.8-89.5-3-117.8,42.4c-30.6,49.1-38.5,102.6-25.6,158.6
			C434.5,1062.1,476.5,1094.8,550.1,1094.6z M2484.9,907.7c-51,57.2-101.5,114.1-152.2,170.8c-9.9,11,1.4,14.8,7,19.5
			c41.6,34.8,83.6,69.1,125.4,103.7c31.1,25.6,62.1,51.3,94.2,77.9C2581.1,1187.3,2541.5,990.5,2484.9,907.7z M2535.7,1462.4
			c7-43.5,13-81.9,19.5-120.2c1.8-10.7-5.5-15.2-11.9-20.5c-77.7-64.3-155.6-128.3-232.9-193.1c-10.7-8.9-16.3-7.3-24.4,2.3
			c-18,21.4-36.3,42.6-55.5,62.9c-9.9,10.4-9.8,16.5,2.1,25.5c31.7,24.1,62.3,49.6,93.4,74.5C2394.4,1349,2463,1404.1,2535.7,1462.4
			z M1582.2,744.6c76.8,73.9,150.5,144.8,224.1,215.9c7,6.8,11.6,5.8,17.8-1.3c23.9-27.4,48.2-54.5,72.6-81.5
			c7.2-7.9,6.4-13.4-0.9-21.1c-41.9-44.2-83.3-88.9-124.7-133.6c-5.5-6-11.4-9.3-19.9-8.5C1695.7,719.8,1640.5,726,1582.2,744.6z
			 M693.7,2269.9c-0.4,0-0.8,0-1.2,0c0-10.1-0.8-20.4,0.2-30.4c1.4-13.5-4.1-17.7-17.1-17.9c-61.1-0.6-121.3,6.2-180.8,20.2
			c-10,2.4-16.1,6.9-16.4,18.6c-0.3,15.2-3.7,30.3-3.8,45.4c-0.2,48.5,25.9,75.3,74.4,77.4c40.7,1.8,78.3-9.6,114.6-27.1
			c23-11,40.5-23.3,30.5-53.6C690.9,2292.8,693.7,2280.9,693.7,2269.9z M733.2,1844.8c51,36.4,78.9,84.2,83.5,145.2
			c74.8-22.3,150.8-21.6,233.9-26.8c-90.4-50.4-161.4-111.8-218.6-188.8c-4.7-6.3-8.8-6.7-13.9-0.5
			C794.9,1802.3,766,1824,733.2,1844.8z M1821.7,714.8c36.7,39.5,69.6,74.7,102.3,110.1c5.8,6.3,10.1,10.2,17.8,1.3
			c28.5-32.9,57.6-65.3,89.3-101C1960,719.8,1894.1,711.2,1821.7,714.8z"/>
		<path class="st0" d="M1002.9,2392.5c0.4-100.3,52.1-172.5,146.7-206.1c65.6-23.4,134.5-27,202.9-31
			c225.2-13.4,450.7-16.9,676.2-21.3c117.8-2.3,235.6-5,353.5-5.7c132.3-0.8,245.6,43.9,332.6,146.5c5.8,6.9,23.5,14.6,5.4,27.8
			c-12.7,9.3-21.2,20.6-37.9,0.3c-73.5-89.6-172-130.6-285.7-132.1c-109.3-1.4-218.7,3.1-328.1,4.5c-13.8,0.2-17.1,5.6-17,18.2
			c0,11.7-2.4,23.6-4.3,35.2c-9.5,58.1-34.8,103.7-95.9,120.9c-60,16.9-114,6.1-161.4-34.8c-9.6-8.3-17.1-23.1-27.4-25.1
			c-11.6-2.3-18,15.1-27.7,22.8c-42,33.2-82.8,33.9-125,0.7c-34.5-27.2-53.3-63-56.4-106.8c-0.7-10.2-0.4-18-14.6-17.2
			c-111.6,6.1-223.8,4.5-334.2,26.1c-27.5,5.4-54.3,13.9-78.6,28.2c-62.7,36.7-83.1,95-81.4,163.9c0.3,12.8,3.3,25.4-16.6,27
			c-17.2,1.4-28.3-0.4-25.2-21.5C1003.7,2406.1,1002.9,2399.2,1002.9,2392.5z M1903.9,2177.5c0,1,0,1.9,0,2.9
			c-31.4,0-62.7-0.1-94.1,0.1c-5.7,0-12.1-1.4-16.8,3.3c-4.4,4.4-7.3,60.4-3.7,66.5c29.5,50.2,90.9,75.2,147,59.7
			c45.5-12.5,82.9-75.5,73.6-122.8c-2.2-11.4-9.8-9.7-17.1-9.7C1963.2,2177.5,1933.5,2177.5,1903.9,2177.5z M1747.6,2205.5
			c-1.2-11.7,3.3-23.6-14.1-22.9c-41.4,1.6-82.8,2.4-124.2,3.2c-11,0.2-14.3,5.7-14.4,16c-0.4,38.2,36.2,86.5,70.9,92.7
			c26.9,4.8,62.1-25,75.4-64.3C1744.1,2221.4,1745.8,2212.3,1747.6,2205.5z"/>
	</g>
</g>
</svg>
