<?xml version="1.0" encoding="utf-8"?>
<!-- Generator: Adobe Illustrator 23.0.0, SVG Export Plug-In . SVG Version: 6.00 Build 0)  -->
<svg version="1.0" xmlns="http://www.w3.org/2000/svg" xmlns:xlink="http://www.w3.org/1999/xlink" x="0px" y="0px"
	 viewBox="0 0 3000 3000" style="enable-background:new 0 0 3000 3000;" xml:space="preserve">
<style type="text/css">
	.st0{stroke:#000000;stroke-width:10;stroke-miterlimit:10;}
</style>
<g id="Layer_1">
</g>
<g id="Layer_2">
	<g>
		<path class="st0" d="M649.9,2637.3c-59.7,4.1-114.8,8-169.8,11.6c-29,1.9-58.1,4.8-86.9-2.2c-39.1-9.5-63.3-34.5-71.2-73.5
			c-8.6-42.5-13.1-85.6-14-129c-1.3-65.3,24.2-94.2,88.9-101.1c72.8-7.8,146-9.4,219.1-8.4c51.4,0.7,96.3-43.2,110.2-98.9
			c4.1-16.6-8.4-12.8-16.7-12.8c-85.9-0.2-171.9-0.1-257.8-0.1c-6.4,0-12.8-0.5-19.2,0.1c-15.2,1.3-20.2-2.9-15.2-19.4
			c19.4-63.7,36.8-127.9,56.6-191.4c5.5-17.6,0.7-22.5-15.7-25.8c-46.2-9.5-86.2-32.7-122.7-61.4c-50.9-39.9-53.4-94.9-5.7-138.5
			c48.8-44.5,99.8-86.5,149.7-129.7c9.6-8.3,18.7-17.3,29.6-27.3c-11.5-4.2-20.8-0.6-29.4,1.8c-50.9,14.3-92.3-3.6-128.1-37.9
			c-91.7-87.7-120.3-231.6-70.6-357c46.9-118.4,123.6-212.7,231.5-281.2c9-5.7,17.7-11.8,26.5-17.9c1.1-0.8,1.9-2,3.1-3.3
			c-4.5-7.4-12.9-8-19.7-11.3c-103.6-50.5-176.5-125.7-194.2-244.1c-10.8-72.3,3.3-142,32.3-207.8
			C415.3,346.9,498.4,246.3,617,177.9c91.7-52.9,191.9-71.5,296.7-69.1c139.7,3.3,267.6,46,386.4,117.6c14.3,8.6,21.6,8.2,33.1-4.2
			c69.2-74.5,159-106.4,256.8-120.6c40.8-6,81.9-8.6,123.1-8.9c185.4-1.3,370.7-2.9,556.1-3.2c55.3-0.1,110.5,4.1,165.4,13.5
			c107.7,18.4,192,73.8,258.2,159.2c3.5,4.5,7.2,8.8,10.5,13.4c26.9,37.9,29.5,24.4-8.5,53.8c-9.5,7.4-13.4,4.8-19.6-3.8
			c-19.3-27.2-40.7-52.8-64.1-76.7c-61.7-63.1-139.3-90.5-224.7-100.2c-55.8-6.3-111.9-7.8-168-7.5c-162.6,0.8-325.3,1.6-487.9,3.2
			c-68.9,0.7-137.4,5.9-204.6,23.8c-85.8,22.8-151.7,72-200,145.5c-17.5,26.7-35.4,53.4-50.2,81.5
			c-65.3,124.2-160.3,220.7-272.8,302.4c-131.1,95.2-267.5,182-406.2,265.5c-49.9,30-99.8,61.1-141,102.5
			c-73.4,73.7-130.2,158.4-144.3,264.2c-12.2,92,19.2,170.4,86.3,234.1c18.4,17.5,39.9,24.5,66.4,17.2
			c47.1-13.1,92.6-2.6,137.2,13.9c35.9,13.3,70,31.7,107.6,40.1c75.4,16.9,139.8-7.2,197.2-55.2c29.8-25,53.2-55.4,70.2-90.1
			c47.4-96.8,65.3-199.3,52.8-306.1c-8.9-76.3-59.5-120.2-136.4-123.1c-37.7-1.4-75.4-0.8-112.4,7c-12.8,2.7-17.7-0.6-19.8-13.6
			c-5.9-36.7-6.3-36.4,31.4-41c46-5.6,91.8-8.4,137.8,0.3c77.6,14.6,135.2,65.3,146.7,143.4c23.3,157.7-1.2,306.8-106.5,432.5
			c-61.5,73.3-143.2,110.7-241.4,102.1c-46.6-4.1-89-23.4-131.2-41.7c-17.9-7.8-28.8-4.6-42.5,8.5c-55.8,53.7-115.5,103-174.7,152.9
			c-44.5,37.5-42.3,53.5,6.2,86.8c43.4,29.8,92.3,41.6,143.4,49.3c82.2,12.4,153.4,46.9,205.4,113.6
			c60.1,77.2,65.4,169.7,12.9,251.7c-29.9,46.7-73.1,73.6-131.3,73.9c-71,0.4-142,1.9-212.8,8.2c-36.3,3.2-45.7,11.8-43.5,47.8
			c2.2,36.8,5.5,73.7,11.2,110c5.5,35.2,20.4,46.6,56.8,46.4c25.5-0.1,51-2.5,76.5-4.1c53.1-3.3,106.3-7.1,159.4-9.7
			c15.5-0.8,24.1-6.8,30.4-20.9c11.6-25.9,24.5-51.3,32.5-78.6c3.9-13.3,8.9-16.1,22.5-11.5c34.1,11.6,34.3,10.8,21.7,44.6
			c-63.2,168.5-177,286.7-346.9,349c-3.2,1.2-6.3,2.9-9.3,8.6c14.9,0,29.8,0,44.7,0c48.3,0,96.6-0.4,144.9,0.1
			c14.1,0.2,26-3.1,37.8-10.9c134.5-87.9,241.4-201.6,318.7-342.6c8.8-16,15-19.8,31.5-9.9c25.9,15.5,26.7,14.3,11.5,41.2
			c-68.2,121-157.2,223.9-267.5,308.4c-3.2,2.5-6.3,5.2-9.4,7.7c3.3,6.2,8.1,3.9,11.9,3.8c92.3-2.1,184.6-4.5,276.9-6.6
			c8-0.2,15.5-1,22.3-5.5c80.5-53.6,137.6-122.5,145.9-223.1c6.7-81.3-22.3-150.5-74.8-210.5c-11.1-12.7-11.7-19.9,0.9-29.8
			c5-3.9,9.4-8.8,13.3-13.8c6.7-8.6,11.9-6.8,18.5,0.5c95,104.3,127.8,248,58.4,379.9c-18.7,35.6-43.7,66.3-72.5,94
			c4.2,7.2,10.6,4.2,15.6,4.1c47.6-1.2,95.1-3,142.7-4.3c12-0.3,21.8-5.8,31.5-11.6c150.7-90.5,218.7-223.4,202-398.3
			c-2.8-29.8,19-19.4,31.3-24.1c16.2-6.2,20.2,3.7,21.6,18.1c14,147.4-27.9,274.8-134.3,379.5c-9.6,9.4-19.8,18.1-30.4,27.9
			c5.9,6,12.4,2.9,17.9,2.7c58.2-2.1,116.4-7.3,174.6-6.3c81.4,1.4,163.5-63.9,189.4-140.9c26.5-78.9,1-169.9-64.3-223.3
			c-10.4-8.5-21.1-17.5-33.2-22.8c-16.4-7.1-17.1-15.9-8.5-29.1c3-4.7,5.4-10,7.1-15.4c3.7-11.4,9.9-11.3,19.1-6
			c87.4,49.7,137.8,123.1,142,224.8c3.1,75.2-25.5,138.4-78,191.4c-2.9,2.9-7.2,4.5-9.6,9.1c10,4.5,18.3,2.8,26.8,0.8
			c113.7-27.5,201.1-128.7,205.3-238.1c4.8-123.5-67.4-228.8-184.6-265.9c-21.7-6.9-15.5-17.7-11.9-31.4
			c6.8-26.3,6.5-26.3,32.1-17.6c139.5,47.4,224.8,175.3,215.9,323.7c-8,132.7-115.9,254.5-251.7,281.6
			c-51.6,10.3-104.6,6.9-156.9,9.4c-140.4,6.8-280.9,12.6-421.4,16.7c-270.4,7.8-540.9,18.9-811.5,13c-31.1-0.7-62.2-5-93.2-8
			c-6.3-0.6-12.5-2.7-18.5-4.7c-13-4.4-22.6-12.9-23.9-27.1c-1.4-15.3,7.7-26.2,20.7-31.5c18.3-7.3,37.6-12.5,56.6-17.9
			c114.1-32.3,213.8-87.3,288.3-182.1C640.1,2651,643.3,2646.4,649.9,2637.3z M541.6,303.9c-9.2,1.4-12.7,8.2-17.3,13.2
			c-51.1,54.2-92,115.3-119.6,184.6c-24.3,61-36.3,124-21.2,189.4c22.1,95.9,89.1,150.7,173.8,190.5c30.3,14.2,56.3,17.9,83-5.9
			c9.3-8.3,21.4-13.8,32.7-19.8c10.2-5.4,13-9.1,3.3-19.5c-78.6-84.2-91.3-174-39.1-274.9c5.8-11.2,4.6-15.7-5.7-23.3
			c-46.5-34.5-78.3-79.3-90.6-137C533.9,368.8,535.7,336.6,541.6,303.9z M797.5,169.6c85.2,49.2,133.9,120,159.6,207.7
			c3.4,11.5,11.5,12.4,20.8,14.3c56.5,11.7,99,43.5,130.8,91.1c7.2,10.8,8.5,32.2,20.4,30.8c10.4-1.3,19.1-19.1,27.8-30.2
			c46.2-58.8,76.5-127.7,119.4-188.6c9.8-13.9,6.2-19.1-6.8-26.7c-98.6-57.8-204.1-95.4-318.3-105.2
			C901.9,158.6,852.2,158.6,797.5,169.6z M606.4,2170.2c33.3,0,66.7,0,100,0c24.5,0,25.1-0.3,16.5-23.3
			c-31-83.4-97.3-123.4-179-144.3c-13.6-3.5-15.1,5.8-17.7,14.8c-13,44.9-25.2,89.9-39.4,134.4c-5.6,17.6,1.2,18.8,15.3,18.6
			C536.9,2169.8,571.7,2170.1,606.4,2170.2z M851.9,631.6c2.5-5.3-0.2-8.6-7.1-10.8c-34.3-11-68.5-22.3-102.7-33.7
			c-6.5-2.2-10.3-2.3-11.1,6.3c-2.4,23.9-5.6,47.8-8.4,71.7c-0.9,7.5,0.6,13.1,8.1,17.7c27.2,16.5,54,33.7,80.8,50.9
			c6.9,4.4,11,5.1,13.5-4.4C833.5,697.1,842.6,665.2,851.9,631.6z M789.4,337.5c2-8.6-1.3-11.2-5.1-13.5
			c-22.4-13.4-45-26.7-67.3-40.4c-9.1-5.6-10.7,0.9-13.2,7c-7.9,19.6-15.5,39.4-24.1,58.8c-3.5,7.8-3.1,12.5,4.7,17.1
			c23,13.8,45.6,28.3,68.6,42.2c3.6,2.2,8.6,7.9,11.6-0.6C773.4,383.6,781.9,358.9,789.4,337.5z M880.4,528.2
			c3.9-9.5-2.7-11.6-10.1-14.1c-26.2-8.7-52.3-18-78.5-26.6c-14.7-4.8-48.5,16-52.1,31.1c-2.5,10.5,3.9,13.7,11.8,16.3
			c26.1,8.6,52.3,17.3,78.4,26C871.9,574.8,874.1,573.3,880.4,528.2z M724.8,455c-1.3-1.3-2.6-2.9-4.2-3.9
			c-19.7-12.5-39.4-24.9-59.2-37.3c-3.5-2.2-5.9-1.1-8.8,2.2c-23.1,26.5-20.5,56.5,7.2,78.4c3.3,2.6,6.7,5.2,9.9,7.9
			c2.3,1.9,4.7,3.2,7.3,0.7c15.4-14.6,30.7-29.3,45.9-44C723.8,458.3,724,456.8,724.8,455z M662.2,253.9c-2.9-7.6-12.1-9.2-18.3-14
			c-6.4-4.9-11.4-3.2-16,3.1c-10.8,14.8-20.8,30.1-27.4,47.4c-6.5,17,7.4,38.1,25.8,39.5c3.4,0.3,5.1-0.8,6.3-3.8
			C642.2,302.6,651.8,279.1,662.2,253.9z M714.7,735.8c-2.1,17.9-3.9,33.9-5.8,49.8c-1.8,15.2,11.2,20,19.8,27.8
			c8.9,8.1,14.1-2,19.9-5.3c13.3-7.6,25.8-16.7,40.3-26.3c-22.6-14.4-42.9-27.3-63.2-40.2C722.8,739.8,719.7,738.4,714.7,735.8z
			 M817.2,253.5c1.9-7.2-3.6-10.2-7.9-13.6c-16.8-13.2-35.2-23.8-55.1-31.5c-8.2-3.2-15.2-6.4-19.7,6.4c-3.6,10.2-5,16.5,6.1,22.4
			c17.5,9.3,34.1,20.2,51.2,30.2C808.7,277.4,816.3,273.2,817.2,253.5z M980.5,558.7c-0.2-6.2-36.8-25.4-42.8-21
			c-15,11.1-12.2,31-18.1,46.7c-1.6,4.2,34.3,22.8,40.7,18.8C976.7,593.2,971.9,572.2,980.5,558.7z M1011.1,462.8
			c-11.7-13.5-28.8-20-44.2-19.1c-18.5,1.2-12,23.2-17.9,35.3c-2.2,4.5,36.6,25.2,44.4,21.1C1007.1,493.1,1004.2,476.1,1011.1,462.8
			z M882.1,719.1c17.8-12.5,30.2-21.6,43-30c10.8-7.1,23.6-15.1,21.7-28.5c-2-14.1-19.4-10-29.2-15.4c-9.5-5.3-15.1-2.5-17.8,8.9
			C895.3,673.7,889.3,693.1,882.1,719.1z M824.2,403.3c21.8-5.6,41-10.5,64.3-16.4c-18.8-11.4-33.7-20.4-50-30.3
			C833.4,372.3,826.2,385.8,824.2,403.3z M1016.3,621.5c18.9-16,32.8-27.6,47.2-39.8c-31.5-14.7-31.5-14.7-40.6,15.5
			C1021.1,603.1,1019.7,609.1,1016.3,621.5z M851.7,452.1c14.1,5,23.1,8.7,32.5,11.2c4.5,1.2,10.7,7.4,14.1-1.3
			c2.2-5.8,5.5-12.7,4.1-18c-2-7.8-9.5-2.1-14.4-1.8C877,442.7,866.4,445.4,851.7,452.1z M596.4,407.1c16-25.2,15.8-26.2-5.4-33
			C588.6,385,593,394.7,596.4,407.1z"/>
		<path class="st0" d="M1963.8,1562c-69.7-60.9-151.1-83.5-239.9-88.3c-151.3-8.2-302.3-3.6-453.3,6.6c-13.5,0.9-19.8-3.4-17.9-15.5
			c2-12.7-15.7-34.6,11.9-36.5c92.8-6.3,185.7-11.8,278.7-10.8c59.6,0.6,119.1,2.3,178.6,3.8c114.4,2.9,211.6,44.6,299.3,116.1
			c117.6,95.9,237.2,189.5,355.7,284.3c6,4.8,19,9.2,14.7,17.8c-6.5,12.9-15.7,25.7-28.4,33.7c-6,3.7-11.2-4.5-15.9-8.2
			c-32.3-25.6-64.5-51.2-96.1-77.6c-10.4-8.7-21.1-13-34.6-13.5c-146.1-4.6-292.3-9.5-438.4-14.4c-53.9-1.8-107.8-4.5-161.7-5.5
			c-16.8-0.3-22.8-6.3-20.4-22.4c1-6.3,1.3-12.7,1.1-19.1c-0.2-10.4,4.4-12.6,14.5-12.2c90.8,3.7,181.6,6.9,272.4,10.1
			c89.4,3.2,178.8,6.4,268.1,9.6c2.5,0.1,5.1-0.3,13.4-0.8c-33.5-27-64-49.6-92.1-74.9c-23.1-20.8-48-27.6-78.9-27.2
			c-118.6,1.6-237.1-0.2-355.7,1.3c-24.5,0.3-21.1-12.2-21.6-27.4c-0.6-16.4-0.9-27.1,22.3-26.8c100.1,1.5,200.2,0.7,300.3,0.5
			C1947.2,1564.8,1955.1,1566.9,1963.8,1562z"/>
		<path class="st0" d="M2039.7,1137.8c0-32.7,0-65.3,0-98c0-126.3,39.7-242.9,89.7-356.4c58.5-132.7,141.1-249.1,243.7-351.6
			c10.4-10.4,17.8-14.7,26.9-0.1c0.4,0.6,1,1,1.5,1.6c21.6,22.9,21.5,22.8,0,44.6c-160.1,163.1-261.2,357.1-304.6,581.3
			c-2.5,13.1-2.6,26.8-2.9,40.3c-1.9,80.9-3.1,161.9-5.5,242.8c-0.4,15,2.9,20.1,18.5,18.5c60.7-6.4,121.4-12.1,182.2-17.3
			c12.7-1.1,14-7.8,14.7-18.2c14.6-210,87.1-397.7,218.1-562.7c21.6-27.3,45.2-52.8,69.2-78.1c8.8-9.2,13.9-10.2,23.4-0.4
			c24.6,25.4,25.1,24.7,0.9,50.5c-129.1,137.6-211.7,299-246.1,484.6c-9.3,50.2-16.3,101-14.3,152.3c0.6,14.5-3.7,18.6-18.7,19.9
			c-94.7,8-189.4,16.9-283.9,26.7c-15.3,1.6-17.7-2.7-17.5-16.3c0.6-54.7,0.3-109.3,0.3-164
			C2036.6,1137.8,2038.2,1137.8,2039.7,1137.8z"/>
		<path class="st0" d="M2271.7,2554.1c-4,162.7-122.3,302.1-282.9,334c-14.8,2.9-23.8,1.2-22.5-16.5c0.2-3.4-0.7-7.1-1.8-10.4
			c-4.9-15.2-1.2-21.6,16.1-25.6c110.1-25.1,187.3-90.5,224.2-197.4c56.5-163.4-59-345-233.4-371.5c-18.3-2.8-36.6-5.4-55.1-4
			c-12.6,0.9-17.4-3.3-17.9-16.5c-1.4-36.8-2-36.7,35.3-35.4C2121,2217.3,2276.2,2374.9,2271.7,2554.1z"/>
		<path class="st0" d="M923,1699.9c71.8,0.2,131.3,56.9,130.4,124.4c-0.9,67.9-60.8,123.4-132.4,122.6
			c-70.5-0.7-129.4-57-129.4-123.6C791.6,1755.7,851.2,1699.7,923,1699.9z"/>
		<path class="st0" d="M876.3,2182.1c-5,79.7-27.4,151.3-87.7,206.6c-30.2,27.7-65.5,46.7-104.3,59.8c-13.2,4.4-18.3,0-20.5-12.2
			c-1-5.5-2.9-11-4.6-16.4c-3.7-11.9-2-18.5,12.3-22.7c143.1-42.1,210.5-240.1,86.1-364.2c-76-75.9-167.4-123-268.5-153.9
			c-16.9-5.2-34.2-9.4-51.4-13.3c-11-2.5-14.5-6.3-11.3-18.9c9.1-36.5,8.3-37,45-27c112.2,30.7,217,75.8,303.3,156.6
			c52.1,48.8,89.8,106,99.4,178.6C875.2,2164.3,875.6,2173.5,876.3,2182.1z"/>
		<path class="st0" d="M2189.2,442c-7.9,11.5-15.8,25.1-25.9,36.7c-4.2,4.8-9.9-3.1-14.2-5.8c-81.6-51.1-169.7-84.8-265-99.4
			c-173.6-26.7-334.1,9.2-482.6,101.6c-17.5,10.9-34.4,22.6-50.7,35.1c-8.9,6.8-14.4,6.4-20.6-2.7c-24.8-36.1-32.7-24.2,6.6-52
			c122.3-86.5,257.9-135.9,408.2-142c156.8-6.4,301.4,33.5,434.2,116.8C2188.7,436.1,2189.1,436.8,2189.2,442z"/>
		<path class="st0" d="M1381.9,2253.4c66.7-0.2,120.2,49.5,120.4,112.1c0.3,62.4-53.2,113.4-119.2,113.8
			c-66.1,0.4-119.9-50.1-120.2-112.7C1262.7,2303.4,1315.1,2253.6,1381.9,2253.4z"/>
		<path class="st0" d="M1754.7,2203c-66.4,0-120.1-51-119.4-113.2c0.7-61.7,56.2-113.3,121.1-112.7c65.5,0.6,119.8,52.8,119.2,114.5
			C1875,2154.4,1822.2,2203.1,1754.7,2203z"/>
		<path class="st0" d="M1372.5,2010.8c67,0.2,119.6,50.1,119,112.9c-0.5,62.2-55.5,113.7-120.5,112.9
			c-65.7-0.8-119.9-52.7-119.4-114.3C1252,2059.8,1305.5,2010.6,1372.5,2010.8z"/>
		<path class="st0" d="M2036,1997.9c197.6,4.8,344,91.3,432.4,270.9c8.4,17,7.8,25.2-11.6,31.7c-26.6,8.9-26.2,10.2-38.8-15.5
			c-80.5-164-234.3-245.3-414-233.1c-24,1.6-47.9,3.8-71.4,9.7c-10.5,2.7-19.1,1.3-20.6-12.4c-0.8-7-2.6-14-5.1-20.6
			c-4-10.9,0.6-15.4,10.9-17.4C1956.8,2003.9,1995.9,1997.6,2036,1997.9z"/>
		<path class="st0" d="M1468.1,1103.2c-81-3.2-161.4-28.3-235.9-72.2c-24.8-14.6-45.1-34.1-59-59.9c-5.2-9.7-7.1-16.7,6.8-19.9
			c7.5-1.7,14.7-5.1,21.7-8.3c8.8-4,14.5-2,19.2,6.6c5.5,10.1,12.9,19.1,22.4,25.3c88.4,57.3,183.3,88.4,290,69.7
			c40.1-7.1,74-27.8,107.1-49.8c34.8-23.2,69.3-46.8,103.2-71.2c10.7-7.7,15.3-6.6,22.5,4.4c20,30.4,21,30.5-8.3,50
			c-43,28.7-84.1,60.2-129.2,85.7C1580.6,1090.7,1528.9,1103,1468.1,1103.2z"/>
		<path class="st0" d="M2472.7,2073.6c1.5,5.1-2.5,6.4-5.1,8.4c-4,3-8.8,5.1-12.1,8.6c-16.6,17.1-26,11.3-40.1-6.2
			c-125.6-156.1-288.7-211.8-484.5-177.4c-8.5,1.5-21.1,9.5-25.4,1.8c-6.9-12.5-9.1-28.1-10.9-42.7c-0.8-6.2,8.4-6.4,13.5-7.4
			c203.4-40.3,379.4,8.3,522.6,162c12.6,13.5,23.6,28.4,35.2,42.7C2468.5,2066.6,2470.6,2070.4,2472.7,2073.6z"/>
		<path class="st0" d="M2023.6,2192.9c-4.3,0-8.5-0.2-12.8,0c-38.5,2-37.8,1.9-41-37.1c-0.9-11.5,3.2-12.4,12.3-13.3
			c92.9-9.9,179.8,9.1,258.8,58.3c104.4,65.1,166.9,159.8,189.5,280.6c1.6,8.5,7.7,22.2-0.8,25.7c-13.1,5.4-28.9,5.1-43.6,5.5
			c-5.7,0.1-5-7.5-5.9-12.2c-28.3-164.5-139.4-276.8-301.6-304.2c-18.1-3.1-36.7-3.2-55.1-4.7
			C2023.7,2192,2023.7,2192.5,2023.6,2192.9z"/>
		<path class="st0" d="M976.4,1971.9c57.8-0.3,100.6,38,101.4,90.9c0.8,50.5-43.4,94.7-95,95.2c-62.9,0.6-108.5-38.9-108.6-93.9
			C874.2,2010.4,916.5,1972.2,976.4,1971.9z"/>
		<path class="st0" d="M1318.7,1702.5c-19,5.4-22-6-21.3-24.3c1.2-30.5,0.3-30.5-29.8-30.5c-1.4,0-2.8,0-4.3,0
			c-35,0-41.3-8.4-34.4-43.8c1.5-7.6,5.3-9,11.5-9c12.8,0,25.5-0.4,38.3,0c11.8,0.5,21.6-0.1,19.1-16.3c-1.1-7.3,3.5-9.9,10.3-9.7
			c10.6,0.2,21.3,0.1,31.9,0.1c6,0,10,2.8,9.3,8.9c-1.9,15.1,6.2,18.6,18.9,17c12.8-1.6,16.2,4.9,15.1,16.2c-0.5,5.6-0.6,11.4,0,17
			c1.5,13.6-1.8,22.2-17.9,19.8c-11.8-1.8-17.3,3.3-15.8,15.5c0.4,3.5,0.1,7.1,0.1,10.6C1349.7,1702.5,1349.7,1702.5,1318.7,1702.5z
			"/>
		<path class="st0" d="M1573.9,2251.8c0,24.1-0.6,48.1,0.2,72.2c0.4,12.3-4,15.8-15.9,15.5c-45.6-1.3-36.2,5.7-36.9-36.6
			c-0.6-39.6,0.6-79.3-0.5-118.9c-0.5-16.1,4.6-22.1,20.3-19.6c4.8,0.8,10,0.7,14.8,0c13.6-1.8,18.9,3,18.2,17.4
			C1573.1,2205,1573.9,2228.4,1573.9,2251.8z"/>
		<path class="st0" d="M1527.9,1843.1c0,21.2-0.7,42.5,0.3,63.7c0.6,12.9-3.6,17.2-16.7,16.9c-44.4-0.9-35.2,3.1-35.8-33.9
			c-0.6-35.4,0.5-70.8-0.4-106.2c-0.4-14.2,4.6-18.1,18.2-18.1c34.4-0.1,34.4-0.7,34.4,32.9
			C1527.9,1813.3,1527.9,1828.2,1527.9,1843.1z"/>
		<path class="st0" d="M921.9,2279.1c-0.2-17.5,3.3-34,14.9-47.6c13.4-15.6,30.1-15.4,43.8-0.2c19.8,22,20.3,72.7,0.8,95.5
			c-14,16.4-31.5,16.7-45.2,0.1C924.9,2313.1,921.6,2296.6,921.9,2279.1z"/>
		<path class="st0" d="M1696.7,1810.7c9.2,0,18.4,0,27.6,0c33.2,0,39.8,8.9,32.8,42.8c-1.5,7.5-5.5,9-11.7,9
			c-32.6,0-65.1-0.1-97.7,0.1c-8.8,0.1-11.9-3.3-12.8-12.4c-3.5-39.6-3.9-39.5,36.2-39.5C1679.7,1810.7,1688.2,1810.7,1696.7,1810.7
			z"/>
		<path class="st0" d="M1624.5,1967.2c0,5,0,9.9,0,14.9c-0.4,33.2,3.7,28.3-29.3,30c-18.2,0.9-25.9-3.6-23.9-23.1
			c1.8-17.5,0.9-35.4,0.2-53.1c-0.4-11.1,3.6-14.3,14.6-14.7C1624.6,1919.9,1624.5,1919.4,1624.5,1967.2z"/>
		<path class="st0" d="M2706.5,1963.4c7.3,2.7,19.3,6.9,31.2,11.4c7.7,2.9,5.3,8.7,3.4,14.2c-6.9,20.1-14.2,40-20.6,60.3
			c-3.7,11.7-9.7,12.2-20.3,8.6c-34.6-11.9-34.6-11.5-22.5-45.9c4.9-14,9.3-28.2,14.5-42.2C2693.6,1965.8,2694.2,1959,2706.5,1963.4
			z"/>
		<path class="st0" d="M2645.2,2101c41.5,1.1,45.2,6.6,30.8,46.4c-0.7,2-1.4,4-2.2,6c-16,39.2-29,41.1-56.9,9.1
			c-4.7-5.3-2.9-8.1-0.1-12.5c7.7-12,13.9-25,14.6-39.3C2631.9,2100.1,2637.5,2099.8,2645.2,2101z"/>
		<path class="st0" d="M2538.1,2401.1c-1.6,24.8-10.8,44.7-28.8,60.6c-7.2,6.3-10.4,4.1-16.8-2.2c-21.1-20.8-12.1-43.9-7.1-66.8
			c0.9-3.9,40.5-21.4,43.6-19.1C2539.1,2380.6,2537.1,2391.9,2538.1,2401.1z"/>
		<path class="st0" d="M2783,805.3c-1.4,0.1-3.2,0.9-4.2,0.3c-21.4-14.3-11.4-38.9-18.6-58c-4.3-11.6,5.4-13.6,14.4-15.1
			c35.4-6.1,35.4-6.2,41.1,31.1c0.1,0.7,0.2,1.4,0.3,2.1C2822,802.1,2820.2,804.3,2783,805.3z"/>
		<path class="st0" d="M2806.5,1594.8c-0.1,2.8-0.2,5.6-0.4,8.4c-2.6,40.3-5.1,41.6-43.2,29c-10.3-3.4-13.8-7.9-11.3-18.1
			c1.3-5.4,3.5-11.5,2.3-16.6c-4.7-20.5,5.4-26.3,23.6-28.8C2804.9,1564.8,2807.1,1565.9,2806.5,1594.8z"/>
		<path class="st0" d="M2701.1,367.5c1.8-30.1,1.8-30.1,31.4-28.4c22.1,1.3,24.2,3.2,21.3,36.2c-2.5,28.8-26.1,13.1-39.8,15.4
			C2691.4,394.6,2703.8,375.6,2701.1,367.5z"/>
		<path class="st0" d="M2823.9,1454c6,20.8-7.6,21.4-26.7,22.7c-23.6,1.7-24.7-8.7-25.9-27.8c-1.5-24,8.1-27.9,28.6-26.4
			C2827.1,1424.5,2823.4,1418.6,2823.9,1454z"/>
		<path class="st0" d="M2764.6,1754.6c-19.8,5.4-24.8-3.1-25.7-23.5c-1.1-24.2,11.4-22.4,28-23.2c19.4-1,26.2,3.2,26.6,24.7
			C2794,1756.6,2782.4,1757.3,2764.6,1754.6z"/>
		<path class="st0" d="M2780.5,1851.9c-4.9,11.1,2.3,30.3-14.2,38c-8.7,4.1-41.3-18.7-41.2-25.3c0.3-24,11.9-31.9,45.2-31.1
			C2779.8,1833.7,2781,1835.5,2780.5,1851.9z"/>
		<path class="st0" d="M2565.1,2260.7c13.9,9,37.4,3.7,40.5,20.9c2,11.4-1.2,32.3-17.2,38.4c-10.8,4.2-43.7-15.2-41.4-20.7
			C2552.2,2286.4,2551.1,2270.2,2565.1,2260.7z"/>
		<path class="st0" d="M2735.6,520.8c-26-4.1-20.3-25.1-19.3-36.6c1.9-22.8,25.5-13.6,37.4-14.5c25.5-2,16.2,24.5,15.9,35.1
			C2768.7,527.7,2743.7,509,2735.6,520.8z"/>
		<path class="st0" d="M2809.5,1113.7c-19.5,5-24.7-2.6-25.6-22.6c-1-24,10.8-23.2,27.9-23.6c17.8-0.4,25.6,2.4,25.7,23.6
			C2837.7,1114.3,2827.8,1117.2,2809.5,1113.7z"/>
		<path class="st0" d="M2810.9,961.4c-21.1,5.8-26.3-2.3-27-22.8c-0.8-23.1,9.5-23.4,27.2-23.8c19.2-0.5,26.6,3,26.3,24.6
			C2837.2,961.3,2830,967.2,2810.9,961.4z"/>
		<path class="st0" d="M2773.2,663.5c-17.9,3.5-27.8,0.8-27.5-22.2c0.2-21.2,6.7-25.1,26.2-24.9c19.6,0.2,27.9,2.8,27.5,25.8
			C2799,664,2790.6,667.3,2773.2,663.5z"/>
		<path class="st0" d="M2803.9,1355.7c-7.6-0.7-15.8,0.1-22.6-2.5c-5.8-2.3-2.9-9.9-3.3-15.3c-0.4-6,2.7-9.2,8.6-9.3
			c9.1-0.2,18.2,0.2,27.3-0.3c10.4-0.6,17.2,1,17,14.4c-0.2,12.9-7.5,12.9-16.5,12.6c-3.5-0.1-7,0-10.5,0
			C2803.9,1355.3,2803.9,1355.5,2803.9,1355.7z"/>
		<path class="st0" d="M2798.5,1235.3c-4.9,0-9.9-0.2-14.8,0c-7.3,0.4-11.6-1.3-11.9-10.2c-0.3-10.1,4.6-11.8,12.9-11.4
			c8.4,0.4,16.9,0.1,25.3,0.1c7.2,0,13.7-0.7,14,10.2c0.4,12.4-7,11.5-15,11.3C2805.5,1235.2,2802,1235.3,2798.5,1235.3z"/>
	</g>
</g>
</svg>
