<?xml version="1.0" encoding="utf-8"?>
<!-- Generator: Adobe Illustrator 23.0.0, SVG Export Plug-In . SVG Version: 6.00 Build 0)  -->
<svg version="1.0" xmlns="http://www.w3.org/2000/svg" xmlns:xlink="http://www.w3.org/1999/xlink" x="0px" y="0px"
	 viewBox="0 0 3000 3000" style="enable-background:new 0 0 3000 3000;" xml:space="preserve">
<style type="text/css">
	.st0{stroke:#000000;stroke-width:10;stroke-miterlimit:10;}
</style>
<g id="Layer_1">
</g>
<g id="Layer_2">
	<g>
		<path class="st0" d="M429.1,1489.8c-64.6-48.6-116.7-108.2-159.1-176.4c-87.4-140.5-117.9-293.5-100.7-457.3
			c14.1-134.5,59.7-256.6,141-365.2c42.9-57.3,96.5-102.7,156.7-140.8c132.9-84,279.1-136.8,429.2-179.7
			c276.4-78.9,558.5-105.1,844.8-86.3c205.5,13.5,407.7,49.3,608.4,94.3c228,51,364.8,193.6,423.1,416.7
			c28.3,108.3,42.5,218.9,48.8,330.1c14.6,257.9,25.8,516,21.5,774.3c-3,179.7-18.5,358.5-76,530.3
			c-98.3,293.3-295.5,494-581.4,607.3c-156.2,61.9-318.5,99.6-486.1,118.9c-241,27.8-482.2,30.2-723.8,18.1
			c-170.9-8.6-340.6-29.1-504.7-81.9c-49.5-15.9-97.9-34.6-141.3-64c-60.4-41-99.6-97.6-119.1-167.2c-22.5-80.2-37.2-162-38.7-245.4
			c-1.7-90.5,20.6-173,90.4-236.7c28.8-26.3,63.1-44.8,96.2-64.9c34.7-21.1,62.9-47.6,72.3-89.3c0.6-2.7,1.6-5.3,2.1-8
			c3.9-22,1-24.8-20.1-16.5c-50.9,20-103.2,35.8-156.8,46.2c-29.8,5.8-60.5,8.4-87.8-11.2c-35.7-25.7-38.8-63.9-37.3-102.3
			c2.5-62.5,19.9-122.5,35-182.9c9.4-38,23.1-73.8,44.9-106.4c47.7-71.6,116-115.3,195.6-143.7
			C413.5,1497.3,422.3,1496.9,429.1,1489.8z M706,1586.4c-0.1,10.5,6.3,15.7,10.1,21.9c25.1,40.1,46.8,81.6,59.2,127.5
			c15.3,56.8,10.6,109.3-29.8,155.7c-18.2,20.9-35.6,42.4-56.7,60.5c-65,56.1-102.9,125.7-106.2,212.6
			c-1.9,51.3-0.2,102.3,8.3,153.2c22.7,135.8,95.9,229.3,226.6,277.5c95.4,35.2,194.8,46.5,294.8,55.1
			c207.2,17.8,413.8,1.5,620.3-13.7c144.4-10.6,277.4-59.8,403.3-129.4c54.5-30.1,108.6-61.5,157.2-100.6
			c73.9-59.6,113.4-141.5,142.9-229.3c43.8-130.4,55.1-265.2,52.7-401.4c-4.2-235.4-10.2-470.7-16.4-706.1
			c-1.5-56.7-4.1-113.6-15.7-169.4C2423,739.4,2336.2,617,2187.9,542.1c-75-37.8-157.5-46.9-240-51.1
			c-184.1-9.3-368.3-10.1-552.2,3.8c-112.8,8.5-223.9,26.7-330.4,66.9C918.7,617,802.2,707.7,730.8,850
			c-39.1,77.9-52.5,160-35.8,246c18,92.9,74.5,153.3,159.5,167c128.2,20.7,242.9-11.5,342.9-94.5c21.3-17.7,19.9-17.1,40.8,1.3
			c15.5,13.7,12,21.3-1.8,33c-106.6,90.1-229.1,129.3-367.8,113.9c-104.7-11.6-176.4-67.1-211.4-167.7
			c-24.3-70-26.1-141.3-9.9-212.9C678.6,798,758.3,691.7,870.3,608.8C1009,506.3,1170.4,467.7,1338,449
			c125.8-14,252.3-16.1,378.7-15.5c108.7,0.6,217.5,1.1,325.5,15.4c89.9,11.9,174.4,38.9,247.3,94.4
			c147.9,112.6,219.6,264.5,229.6,448.3c6.1,112.1,7.5,224.2,10.2,336.3c4,162.7,10.7,325.3,10.4,488
			c-0.3,127.3-14.2,252.7-54.3,374.1c-34.4,104.2-82.1,200.8-173.8,266.9c-113.9,82-236.6,147.9-371.2,190.3
			c-98.4,31-199.7,40.8-302.1,47.3c-177.7,11.2-355.3,21.7-533.2,6.3c-95.9-8.3-191.5-18.9-283.4-49.9
			c-121.5-41-214.4-113.5-258.4-238.3c-21.3-60.5-29.2-123.4-32.3-187.4c-6.3-126.7,30.4-234.6,130.3-317.4
			c19.2-15.9,34.6-35.7,50.3-55.2c21.3-26.6,24.9-56.3,18.1-88.2c-14.5-68-51.5-124.7-91.4-179.9c-4.4-6.1-10.2-8.3-17.4-9.7
			c-27.2-5.2-55.6-10.2-78.9-24.5c-40.7-25-79.6-18.5-119.7-1.8c-2.5,1.1-5.3,1.6-7.9,2.6c-95.2,36.7-168.2,95.6-195.9,198.5
			c-11,40.7-20.5,81.8-29.1,123.1c-6.4,30.5-11,61.3-6,92.7c4.2,26.3,11.9,33,38,33.4c15.4,0.2,30.2-3.3,45.1-6.5
			c50.1-10.7,97.5-30.7,146.6-44.5c47.4-13.3,77.3,13.8,71.8,62.9c-6.1,53.8-30.5,97.5-74.6,128.9c-25.9,18.4-53.5,34.5-80.3,51.6
			c-64.1,40.9-98.3,100-104.7,174.9c-8.8,103,10.6,202.7,41.1,300.2c18.3,58.7,58,101.4,111.2,131.8c25.9,14.8,53.3,26.2,81.3,36.3
			c138,49.4,281.8,68.4,426.6,82.4c138.1,13.3,276.6,13,415.1,13c158.8-0.1,316.6-13.8,473.8-34.6c121.9-16.1,239.7-49.2,354.7-91.2
			c348.6-127.4,558.3-373.9,627.1-738.9c30.1-159.8,38.8-321.5,37.1-483.8c-2.2-203.6-7.5-407.1-20.1-610.4
			c-7.6-122.5-20.3-244-50.4-363.3c-50.2-198.8-169.3-328.4-372.3-376c-206.4-48.4-414.9-84.3-626.6-97.5
			c-277.9-17.4-551.6,9.8-819.6,86.9c-146.6,42.2-289.4,94.1-418.6,177.7C435.7,431,391.2,469.1,355,516.3
			c-78.2,102-121.7,217.6-134.9,345.2c-18.2,175.5,21.3,335.2,128.9,476.5c106.4,139.7,246.5,206.7,423,196.9
			c68.8-3.8,135.3-19.7,202.7-31.1c102.8-17.5,197.2-54.1,277.7-122.2c81.9-69.3,127.7-155.2,119.9-265.1
			c-2.1-29.1-11.7-55.4-30.4-78c-40.2-48.4-103.1-41.1-129.8,16.3c-15.8,34-37.1,62.9-67.3,84.6c-82.1,59.1-201.2,36-255.2-49.8
			c-37.4-59.4-45.5-125-37.7-193.6c7.4-65.1,41.5-111.7,97.3-143.5c24.1-13.7,49.7-24.4,76-33.2c182.9-61,370.6-97.2,563-107.5
			c130.9-7,261.7-4.8,391.6,15.8c93.9,14.9,171.8,56.1,224,138.4c25.4,40.1,42.3,83.7,53.6,129.8c19.8,80.9,18.4,163.6,20.2,245.8
			c3.6,166.8,4.9,333.6-7.2,500.4c-10.3,141.5-14.6,283.4-30,424.5c-7.2,65.6-19.4,130.8-58.9,186
			c-64.9,90.7-151.7,153.5-257.8,186.7c-99.8,31.3-204.3,35.3-307.9,41.4c-111.3,6.5-222.7,10.3-334,15.3
			c-91.7,4.1-182.9,0.4-272-23.7c-62.4-16.9-122.5-39.4-174-80.3c-72.3-57.3-98.3-137.3-72.3-225.7c12.5-42.3,33.6-80.4,59.1-116
			c29.4-41.1,59.1-81.9,89-122.6c41.2-56.1,41.6-112.9,6.3-172.4c-36.1-60.9-82.8-112.4-134-160.4c-4.6-4.3-8.8-8.5-15.9-8.4
			C747.4,1586.6,726.8,1586.4,706,1586.4z M839.2,1581.7c10.6,8.7,17.6,13.4,23.4,19.3c41,41.6,77.6,86.5,104.6,138.7
			c37.6,72.6,37.5,143.2-10.2,211.5c-15.5,22.1-31.5,43.8-47.2,65.8c-31.7,44.4-66.5,86.6-88.3,137.6
			c-30.8,71.8-19.7,138.4,33,186.3c21.6,19.7,45.8,35.6,72.4,47.9c96.2,44.6,198.4,60.1,303.2,57.1c175.7-5.1,351.4-10.5,526.6-27.1
			c110.8-10.5,214.3-37.6,302.9-110.2c65.9-54,110.6-118.1,123.7-203.8c9-59,14.1-118.1,17.8-177.5c9.1-147.1,20-294.2,25.9-441.4
			c6.1-152.9,1.1-306-4-458.9c-1.6-47.2-7.3-93.9-20.5-139.3c-30.8-106.1-93.3-180.7-205.9-205c-41.4-8.9-83.3-13.6-125.3-16.8
			c-223.2-16.7-443.9-0.2-661.4,53.6c-78.4,19.4-157.3,38.4-230.3,74.8c-39.4,19.6-65.8,50-74.4,94c-10.7,54.5-5.1,107.4,18,158.1
			c17.7,38.7,49.4,61.1,89.1,71.5c63.4,16.7,121.8-18.2,153.4-83.6c33.8-70,120.9-107,189-53.4c32.6,25.6,55.3,58.8,63,99.7
			c17.2,91.3,0.2,176.3-53.3,252.6c-79,113-191.6,175.6-322.3,208.1C977.5,1557.2,911.4,1567.5,839.2,1581.7z"/>
		<path class="st0" d="M1863.5,1571.1c0.1,97.7-78.2,176.8-175.7,177.5c-96.7,0.7-177.7-79.1-178.4-175.9
			c-0.7-98,79.5-178.5,177.7-178.4C1785,1394.4,1863.3,1472.9,1863.5,1571.1z M1687.2,1445.9c-69.7-0.4-125.3,54-126.8,123.9
			c-1.4,69.1,55.3,126.3,125.9,126.7c70.2,0.5,125.8-54,126.2-123.8C1813,1501.5,1758.5,1446.3,1687.2,1445.9z"/>
		<path class="st0" d="M1584.9,2101.9c-0.2,97.6-78.3,176.1-175.1,175.8c-100.1-0.3-179.2-78.5-179-176.9
			c0.3-97.2,80.6-177,177.9-176.7C1506.6,1924.5,1585.1,2003.7,1584.9,2101.9z M1534.1,2103.5c0.7-70.8-54.8-127.8-124.8-128.2
			c-69.9-0.4-127.5,56.6-127.5,126c0,68.9,56.3,125.6,125.4,126.1C1476.7,2227.9,1533.5,2172.5,1534.1,2103.5z"/>
		<path class="st0" d="M1795.7,975.2c0.9-99.4,80.5-174.8,183.5-173.9c94,0.8,171.2,82,170.2,179c-1,96.5-80.9,175.3-177.3,174.9
			C1873.6,1154.8,1794.8,1074.3,1795.7,975.2z M1971.4,1103.2c70.9,0.4,127.4-55.2,127.5-125.4c0.1-69-56.2-125.5-125.3-125.8
			c-70.6-0.3-127.4,55.7-127.5,125.6C1846.1,1047,1901.7,1102.8,1971.4,1103.2z"/>
	</g>
</g>
</svg>
