<?xml version="1.0" encoding="utf-8"?>
<!-- Generator: Adobe Illustrator 23.0.0, SVG Export Plug-In . SVG Version: 6.00 Build 0)  -->
<svg version="1.0" xmlns="http://www.w3.org/2000/svg" xmlns:xlink="http://www.w3.org/1999/xlink" x="0px" y="0px"
	 viewBox="0 0 3000 3000" style="enable-background:new 0 0 3000 3000;" xml:space="preserve">
<style type="text/css">
	.st0{stroke:#000000;stroke-width:10;stroke-miterlimit:10;}
</style>
<g id="Layer_1">
</g>
<g id="Layer_2">
	<g>
		<path class="st0" d="M2103.8,1181.8c87,12.5,159.2,44.8,223.9,94.3c79.7,61,122,145.3,145.7,240.1c28.4,113.6,29.9,229.2,20.2,345
			c-18.6,221.7-73.7,435.1-154.2,641.7c-69.1,177.4-184.8,314.7-359.5,398.1c-96.2,45.9-198.7,63.3-303.6,69.1
			c-127.7,7.1-255-4.2-382.2-14.3c-100.7-8-201.5-15.9-300.9-35.6c-107.7-21.2-210.9-54.2-300.1-120.3
			c-124-91.9-193-216.3-215.8-368.5c-13.9-92.4-12.1-184.8-7.9-277.5c5.3-114.9,10.5-229.8,29.2-343.6
			c33.2-202.5,120.6-375.5,279.7-508.7c15-12.5,12.2-17-1.6-27.6c-143.6-108.9-235.5-250.2-267.9-429
			c-48.4-267,96.6-567.3,331.8-684.2c82.2-40.9,170.7-59.7,261.2-69.3c161.1-17.1,323-16,484.7-19.8c133.2-3.2,266.4-2.7,399.1,11.6
			c107.7,11.6,212.3,35.1,303.3,97.2c106.8,72.9,162,178.4,171,304.8c16,226.3-57.4,422.4-214.7,586
			C2205.2,1113,2159.1,1148.3,2103.8,1181.8z M1915.2,1244.4c1.7,4,1.8,4.9,2.3,5.3c3.7,3.1,7.5,6.2,11.3,9.2
			c71,55.9,125.2,124.8,160.2,208.2c46.6,110.8,53.2,225.4,30.8,342.5c-6.9,35.9-7.1,34.7-40.7,28.2c-14.8-2.9-15.4-8.3-12.6-20.9
			c17.6-79.9,20.2-160.4,3.1-240.7c-33.2-156.1-126-267-266.8-336.6c-212.5-105.1-435.4-121-663.6-63.7
			c-325.4,81.6-540.6,319.6-590.9,649c-18.7,122.3-23.1,245.5-28.9,368.8c-3.7,77.5-2.7,154.6,8.6,231.6
			c2.5,17.2,7.7,24.6,26.8,24.9c103.2,1.4,206.3,4.1,309.5,6.6c88.5,2.2,177.1,4.4,265.6,7.1c53.2,1.6,79.1,27.7,80.4,80.7
			c2.8,115.4-24.9,223.7-78.2,325.6c-7.1,13.5-7.1,19,10.1,20.4c56.3,4.5,112.5,9.7,168.6,15.6c13.5,1.4,16.3-3.4,17.7-15.3
			c11.2-93.5,33.3-184.7,57.2-275.6c20.8-78.9,19.1-158.5,0.8-237.9c-6.2-26.8-6.4-26.8,20.3-34.3c2-0.6,4.3-0.5,6.1-1.4
			c12.9-6.8,18.1-2.2,21.3,11.4c20.9,88.8,25.4,177.9,3.2,266.9c-22.6,90.5-46.5,180.6-57.6,273.5c-1.6,13.7,0.4,17.7,14.8,18.7
			c71,4.9,142,8.8,213.1,8.4c120-0.6,238-13.3,348.4-65.3c173-81.3,280.8-220.2,345.3-395.6c58.3-158.4,103.5-320.5,127.5-488
			c19.4-135.2,28-270.5,2.7-405.7c-21.3-113.5-67.1-211.8-171.3-274.5C2152.1,1226.5,2037.8,1214,1915.2,1244.4z M557,819.4
			c0.3,3.3,0.5,5.4,0.8,7.5c28.9,179.3,124.3,316,268.8,421.7c8.7,6.3,14.1,4.6,21.9-0.5c190.7-124.5,401.9-168.3,626-151.4
			c127.8,9.7,251.2,41.5,365,103.8c11.1,6.1,20.8,7.6,33.1,3.5c35.6-12,72.3-20.3,109.7-23.9c12.8-1.2,24.6-4.4,35.9-10
			c172.8-86.2,292.9-218.7,355.3-402.5c5.6-16.4,2.1-22.3-13.6-28.7c-187.2-76.4-381.3-116.9-584-116.4
			c-165.2,0.4-330.4,2.9-495.6,5.2c-107.6,1.5-213.9,12.5-319,36.6C825.6,695.3,695.6,742,570.7,803.1
			C563.4,806.7,554.1,809,557,819.4z M2127.9,164c-11.8,92.8-47.9,182.3-101.1,255c-7.4,10.1-13,13.3-22.5,3.7
			c-3.4-3.4-7.3-6.7-11.4-9c-14.7-8.3-15.3-16.1-4.7-30.4c47.2-63.9,74.6-136.2,87.3-214.5c2.4-15.1-1.9-20.7-17-23.2
			c-152-25.4-305.1-26.9-458.5-22.6c-11.7,0.3-15.1,7.1-19.3,15.5c-21.9,44.2-44.1,88.2-66.1,132.4c-5.9,11.8-18.4,25.9-15.5,35
			c3.9,12.4,23.8,9.6,36.5,13.8c118.5,39.1,195.9,121.1,243.7,233.6c6.1,14.3,13.1,19.9,28.9,19.4c43.2-1.4,86.4,1.8,129.4,6.1
			c152,15.5,298.3,54.1,439.4,112.3c15.5,6.4,18.5,1.6,21.1-11.9c13.7-70.2,19.5-140.8,8.6-211.9
			C2383.5,316.4,2294.2,207.4,2127.9,164z M1528,127.6c-5.7-4.5-10.7-2.7-15.3-2.8c-101.2-0.2-202.2,3.5-303.2,9.2
			c-80.1,4.5-159.8,12-237.7,32.9c-12.2,3.3-23.7,7.5-33.1,16.6c-88.4,85.8-118.4,188.1-84,306.9c9.2,31.8-17.5,24.3-29.7,31.8
			c-17.6,10.9-17.4-7.4-19.8-15.8c-26.5-91.6-19.7-180.3,24.4-265.5c3-5.8,9.1-10.6,7.4-19c-2.4,0.9-4.3,1.4-6,2.3
			c-4.8,2.8-9.7,5.6-14.2,8.8C643.2,355.9,559.2,525.9,551.6,736.3c-0.7,19.7,7.1,15.9,19.1,10.1
			c142.7-68.6,291.8-117.9,447.7-145.4c22.9-4,32.9-14.7,42.2-34.9c67-145.9,176.7-238.9,338.9-258.3c34.2-4.1,49-16.4,61.6-44.9
			C1481.5,216.9,1505.6,172.5,1528,127.6z M545.8,2500.6c14,71.9,72.9,167.3,137.6,225.7c105.6,95.2,235.6,130.6,371.3,152.4
			c12.8,2.1,17-4.6,22.1-13.6c53.6-95.4,81.6-197.8,82.9-307.3c0.5-38.6-3.8-42.5-43.3-43.3c-76-1.6-151.9-3.1-227.9-5
			C775,2506.6,661.5,2503.6,545.8,2500.6z M1639,571.3c-0.1-2.6,0.3-4.2-0.3-5.1c-50-78-121.3-120-213.9-120.3
			c-92.8-0.3-163.7,42.7-214.5,119.8c-7,10.7-2.7,12.7,7.9,12.5c49.4-1.3,98.9-2.4,148.4-3.1c13.9-0.2,14.6-4.4,8.3-15.7
			c-11.5-20.4-8.3-43.2,6.8-59.8c14.4-15.8,33.6-21.4,58.9-13.8c20.7,6.2,33,27.9,34.1,50.4c0.6,13.5-9.2,22.9-10.7,35.1
			C1522.6,571.3,1580.7,571.3,1639,571.3z M1108.8,583.7c22.5,4,35.2-1.6,46.2-22.5c54.5-104,141.9-162.6,259.1-166.4
			c119.3-4,210.9,50.1,273.4,152.2c4,6.5,6.7,14,11.4,19.9c7.4,9.2,18.3,5.5,27,3.4c6.5-1.6,1.9-8.1,0-12.1
			c-51.9-107.3-130.7-182.5-252.5-199c-118.6-16-214.6,32.3-294.7,116.6C1148.8,507.1,1125.3,542.9,1108.8,583.7z"/>
		<path class="st0" d="M1791.1,1908.2c-0.6,34.7-6.8,76.6-16.6,118.2c-2.9,12.2-7.5,16.1-19.4,10.6c-6.2-2.9-13.1-5.3-19.9-6.2
			c-12.1-1.6-15.1-7.5-10.7-18.2c4.3-10.5,0-16-9.7-20.8c-56-28-111.8-56.3-167.3-85.1c-10.6-5.5-15.4-4.1-20.7,6.6
			c-11.1,22.5-23,44.5-35.5,66.2c-6.3,11-5.8,15.9,7.5,20.4c55.3,18.6,110,39.3,165.5,57.1c17.3,5.5,19.1,11.4,12.8,26.9
			c-11.5,28.4-10.6,28.7-40.4,18.3c-53.8-18.8-107.8-37-161.2-56.7c-14-5.1-19.5-1.2-25.3,10.8c-11.2,23.1-24.4,45.3-35.7,68.4
			c-5.4,10.9-9.8,13.7-21.7,7.2c-31.9-17.4-32.2-16.7-14.9-48.7c5.3-9.8,10.6-19.6,15.7-29.5c15.8-30.2,15.8-30.4-17.5-42.2
			c-24.2-8.6-49-15.7-72.8-25.5c-13.6-5.6-17.8-1.8-22.4,10.7c-8.6,23.5-20,45.9-28.6,69.4c-4.5,12.3-9.3,13.8-20.9,8.6
			c-33.2-14.7-33.2-14-19.5-46.9c8.7-21,29.3-45.6,21.4-62.2c-6.8-14.4-38.5-17.2-59.4-24.5c-40.2-14.1-40.2-13.9-54.5,25.5
			c-7.6,20.9-15.8,41.6-22.8,62.7c-3.7,11-8.1,13-19.4,8.7c-34.4-13.2-34.5-12.5-21.9-46c8.5-22.8,16.1-45.9,25.3-68.4
			c4-10,3.4-14.7-7.7-18.1c-20.6-6.3-40.9-13.4-60.9-21.3c-11.5-4.5-16-0.6-19.6,10.1c-10.8,32.4-20.1,65.2-24.9,99
			c-2,14-6.2,20.4-21,15.7c-4.5-1.4-9.7-0.8-14.5-1.1c-13.3-0.9-18.7-5-16-20.8c26.6-156.2,100-283.7,229.4-377.1
			c76-54.9,157.6-97.6,252.4-108.7c132.1-15.5,235.6,34.7,313.3,140.1C1764.2,1713.4,1791.2,1804.8,1791.1,1908.2z M1506.7,1828.2
			c7.3,2,8.8-2.6,10.7-6.1c13.4-25.1,26.3-50.5,40.3-75.3c4.8-8.5,1.5-11.8-4.6-16.7c-37-29.4-73.9-59-110.4-89.1
			c-8.5-7-11.9-5.9-16,4.2c-13.9,34.8-28.4,69.4-43.3,103.8c-4.5,10.4-2.8,15.4,7.7,20.6c35.6,17.4,70.6,35.9,105.8,53.9
			C1500.6,1825.3,1504.4,1827.1,1506.7,1828.2z M1389.4,1600.5c-8.8-11.5-22.4-18.8-33.3-29c-6.8-6.4-13.3-7.9-22.6-4.4
			c-26,10-51.9,20-76.5,33c-7,3.7-12.5,7.5-14.9,16c-5.2,18.7-11.4,37.1-17.6,55.5c-2.2,6.7-2.8,11.8,4.8,15.6
			c31.7,15.9,63.3,32.2,94.9,48.2c4,2.1,8.2,2.6,10.4-2.6c17.9-42.9,35.8-85.9,53.7-128.9
			C1388.5,1603.4,1388.7,1602.7,1389.4,1600.5z M1427.2,1974.5c8.1,1.6,10.4-3,12.6-7.3c14.4-26.9,28.4-54.1,43.3-80.7
			c5-9,1.1-12.2-6-15.7c-36.6-18.3-73.1-36.7-109.4-55.5c-7.3-3.8-10.8-2.8-13.9,4.8c-13.6,33.4-27.3,66.7-41.5,99.9
			c-4.3,10.1-2.3,13.9,8.7,17.4c33.6,10.8,66.7,23.3,100,35.1C1423.7,1973.5,1426.3,1974.3,1427.2,1974.5z M1253,1913.9
			c7.3,2.4,8-4,9.7-8c15.1-35.9,29.6-72.1,45-107.9c3.6-8.3,2.4-12.4-5.6-16.4c-29.3-14.6-58.5-29.5-87.5-44.6
			c-8.3-4.3-11.8-2.4-14.8,6.4c-14.3,41.4-29.3,82.5-44,123.8c-1.8,4.9-5.6,10.9,2.7,13.8C1189.9,1892,1221.5,1902.9,1253,1913.9z
			 M1739.6,1946.9c0-21.2,0-37.9,0-54.5c0-8.1-2.3-14.6-9-20c-39.2-31.1-78.3-62.5-117.2-94.1c-7.4-6-11-5.6-15.4,3.1
			c-10.8,21-22.1,41.8-33.8,62.3c-4.4,7.7-3.7,12.3,4.5,16.4C1623.8,1887.9,1678.8,1916,1739.6,1946.9z M1476.4,1551.2
			c-13.5-2.3-14.1,9.1-17.2,16.8c-2.8,6.9-9.1,13.7,1,21.6c39.5,30.9,78.3,62.6,117.3,94.1c6.5,5.3,11.3,6.8,15.8-2.6
			c8.5-17.5,17.8-34.7,27.1-51.7c3-5.4,4.4-9.3-1.3-14.2C1577.7,1579.9,1530.1,1558.8,1476.4,1551.2z M1124.2,1693.4
			c-1.1,0.8-3.3,2.3-5.2,4.1c-37.6,36.5-69.9,77-94.2,123.7c-5.4,10.3-1.4,12.8,7.7,15.7c19.1,6.1,38.1,12.7,56.7,20.3
			c11.1,4.5,15.6,1.3,19.2-9.4c13.9-40.6,28.6-80.9,42.9-121.4C1156.7,1711.1,1141.7,1692.1,1124.2,1693.4z M1662,1660.9
			c-10.8,20.5-20.1,38.8-30,56.8c-3.2,5.7-1.2,8.8,3,12.2c30.1,24,60.2,48.1,93.7,74.9C1716.2,1750.3,1695.2,1705.1,1662,1660.9z"/>
		<path class="st0" d="M1441.8,1450.1c-225,5.2-440.3,123-541.4,377.5c-11.5,29-21.9,58.5-28.7,88.9c-3.4,15-8.5,19-22.4,13.9
			c-5.1-1.9-10.9-2.1-16.4-2.8c-11.4-1.4-14.8-7.4-11.9-18.3C876,1700,989.8,1539,1194.2,1451.1c87.7-37.7,178.7-57.8,274-50.9
			c197.5,14.4,334.9,117.5,420.2,292.9c38.5,79,53.3,163.7,51.8,251.5c-0.2,14.8-5,20.3-19.4,17.7c-3.4-0.6-7-0.8-10.4-0.3
			c-17.9,2.7-22.8-3.2-22.5-22.4c2.4-140.3-42.6-263.1-142.2-363.1C1660.5,1490.9,1555.9,1449.8,1441.8,1450.1z"/>
		<path class="st0" d="M1443.7,1008.7c-82.9-1-145.9-62.7-145.7-142.5c0.3-81.1,65.5-144.1,148.1-143.4
			c77.6,0.7,141.1,66.1,140.4,144.7C1585.9,946.4,1521.9,1009.6,1443.7,1008.7z M1441.9,958.1c52.2,0.2,93.5-40.4,93.5-91.8
			c0-51-42.3-93-93.5-92.8c-50,0.2-91.6,41.5-92.5,91.8C1348.6,916.5,1389.8,957.9,1441.9,958.1z"/>
	</g>
</g>
</svg>
