<?xml version="1.0" encoding="utf-8"?>
<!-- Generator: Adobe Illustrator 23.0.0, SVG Export Plug-In . SVG Version: 6.00 Build 0)  -->
<svg version="1.0" xmlns="http://www.w3.org/2000/svg" xmlns:xlink="http://www.w3.org/1999/xlink" x="0px" y="0px"
	 viewBox="0 0 3000 3000" style="enable-background:new 0 0 3000 3000;" xml:space="preserve">
<style type="text/css">
	.st0{stroke:#000000;stroke-width:10;stroke-miterlimit:10;}
</style>
<g id="Layer_1">
</g>
<g id="Layer_2">
	<g>
		<path class="st0" d="M2518.8,1511.1c0,266.6,0.3,533.3-0.1,799.9c-0.2,151.8-46.7,288.1-144.8,404.4
			c-122.1,144.8-278.9,223.3-468.6,225.5c-264.5,3-529.2,2.2-793.7,0.5c-310.8-2-572.4-237.8-611.2-547.4
			c-3.6-28.6-4.9-57.2-4.9-85.9c-0.1-531.9-0.4-1063.8,0-1595.7c0.3-296.6,191.7-544.3,474-615.4c52-13.1,104.8-18.8,158.3-18.8
			c252.3,0,504.6-0.4,756.8,0.1c305.4,0.6,557.1,203.1,620.7,498.6c9.8,45.6,13.4,91.9,13.4,138.5
			C2518.8,980.6,2518.8,1245.8,2518.8,1511.1z M2468,1511.7c0-264.6,0-529.1,0-793.7c0-43.8-2.6-87.4-11.9-130.4
			c-58.3-270.7-290.1-458.5-568-459.2c-254.3-0.6-508.6-0.4-762.9-0.1c-82.2,0.1-162.4,13.8-236.7,49.9
			C672.8,282.9,549.7,454.3,547.8,695.7c-4.3,544.1-1.3,1088.3-1.5,1632.4c0,24,1.8,47.9,5.2,71.5c40.4,279.1,280,490.1,562.5,492
			c261.1,1.8,522.3,0.8,783.4,0.1c90.2-0.3,176.8-19.9,256.1-63.3c204.9-111.9,311.8-285.3,313.9-519
			C2469.8,2043.5,2468,1777.6,2468,1511.7z"/>
		<path class="st0" d="M695.2,1807.1c3.7-92.2,4.4-184.6,11.8-276.5c20.8-260.7,54.2-519.4,160.3-762.1
			c53.8-123,130.7-228.8,244.3-304.4c85.9-57.1,180.5-88.7,282.9-99.4c90.3-9.4,180.2-22.5,271.3-24.6
			c155.1-3.5,298.9,32.5,431.6,113.9c114.3,70.2,176.3,169.9,180.5,304.8c3,97.2-3.9,194-9.7,290.9
			c-9.2,152.9-15.7,305.8-19.5,458.9c-4.5,179.6-7.4,359.5-36.5,537.5c-21.3,130.1-56.4,254.6-140.6,360.3
			c-57.8,72.6-130.9,125.5-212.5,167.6c-200.4,103.2-414.1,143-634,98.5c-233.5-47.2-406.6-181.7-491.7-412.1
			c-28.6-77.5-34-160.1-38.7-242.1C690.7,1947.9,693.1,1877.5,695.2,1807.1z M2228.3,858.2c0-26,0.1-56.7,0-87.5
			c-0.6-121.2-54.5-210.8-157.4-274.1c-137.8-84.7-287.4-114.8-447.1-105c-75.8,4.7-150.9,15.2-226.3,23.2
			c-136.7,14.6-254.7,68.5-350.1,168.4c-53.3,55.8-95.1,119.8-127.3,189.8C832.8,962.9,798,1165.9,772.4,1371
			c-14,112-20.7,224.5-23.1,337.4c-2.8,131.8-12.4,263.6,2.1,395.4c14.1,128.7,56.6,244.2,150.4,337.2
			c98.8,98,213.7,167.3,352.9,187.8c148.3,21.8,294.4,6,437.2-38.9c100-31.4,192.7-77.7,273.1-145.4
			c100.4-84.5,153.3-196.8,181.5-322.6c37.1-165.7,43.2-334.4,48.9-503.1c4.7-138.7,6.8-277.4,15.1-415.9
			C2217.2,1089.7,2222.3,976.3,2228.3,858.2z"/>
		<path class="st0" d="M2147.2,1021.4c2.1,90.2,2.7,180.4-7.8,270.3c-8.5,72.4-31.2,140.1-69.4,201.8
			c-40.1,64.7-59.7,132.7-46.2,208.7c6.5,36.3,12,72.8,14,109.7c11.4,206.4-21.9,401-146.6,573.1
			c-76.7,105.9-179.4,158.6-308.6,162.4c-92,2.7-184.4,7.5-276.1-0.5c-141-12.3-267.9-58.1-360.4-173.4
			c-36.6-45.7-52.7-99.6-64.2-155.6c-22.6-109.7-45.8-219.3-47.7-332c-0.7-43.2,3.3-86.1,13-128.2c7.5-32.9,21.2-63.3,41.5-90.6
			c29.7-40,36-80.7,18.4-130.4c-33.7-95.1-62.3-192.1-52-295.9c10.3-104.5,33.9-205.9,66.6-305.4c7.9-23.9,16.8-47.5,24.5-71.6
			c48.4-151.8,157.4-244.5,299.7-301.4c141.9-56.7,289.3-85.8,443.1-69.7c110.1,11.5,216.7,38.6,316.1,87.7
			c80.5,39.7,125.8,105.5,133.6,197.1C2145.6,858.9,2146.5,940.1,2147.2,1021.4z M2097.2,994.5c0.2-50.9-2.7-128.7-7.9-206.5
			c-5.1-76.2-40.8-131.4-108.6-163.5c-97.6-46.3-201.2-73.1-308.8-82.6c-139.7-12.4-273.2,15.8-402.7,65.4
			c-79.5,30.5-150,75.1-204.9,142c-27.6,33.6-48.8,70.4-63.5,111.5c-34.6,97.2-63.8,195.6-85,296.8c-26,124.5-6.7,243.7,37.4,359.5
			c25.7,67.3,16.8,125-24.8,180.8c-17,22.8-27.2,48.7-33.3,76.4c-8.8,40.3-11.5,81.1-10.1,122.2c4,118,29,232.8,54.7,347.4
			c16.7,74.1,60.8,128.9,122,170.8c64.3,44,136.5,70.8,213.1,78.8c115.7,12,232.1,9.6,348-0.2c89.2-7.5,160.2-50.9,214.9-121.3
			c29-37.3,54.2-77.1,75-119.5c65.4-133.4,82.4-275.6,75.8-422c-1.8-40.3-7.8-80.2-14.4-119.9c-15-89.3,6.3-170.1,54.3-246
			c34-53.8,52.6-113.5,60.8-176.7C2100.6,1199.2,2097.6,1110.3,2097.2,994.5z"/>
		<path class="st0" d="M1389.2,1544.8c0-125-0.2-250.1,0.3-375.1c0.1-15.3-1.9-21.1-20.1-18.7c-67,8.6-133.8,18.2-200.1,31.5
			c-12.5,2.5-17,0.3-18.7-11.7c-5.6-40.3-15.1-33.4,26-41.1c257-48.3,515.3-57.7,775.1-26.6c14,1.7,14.9,7.3,13.6,18.4
			c-4.1,34.5-3.8,34.4-37.6,30.3c-81.4-9.9-163.2-15-245.2-16.3c-16.7-0.3-20.3,5-20.1,20.7c1.7,157.8,3.6,315.7,3.4,473.5
			c-0.1,51.7-0.6,103.9-11.9,155c-15.7,70.8-46.4,132.8-106.8,176.2c-28,20.1-58.6,35.1-94.8,33.3c-34.4-1.7-57.8-22-62.9-55.9
			c-1.6-10.8-2-21.8-2-32.7c-0.1-120.3-0.1-240.5-0.1-360.8C1388,1544.8,1388.6,1544.8,1389.2,1544.8z M1439.9,1536.4
			c-0.4,0-0.8,0-1.2,0c0,20.5,0,41,0,61.5c-0.3,105.3-0.7,210.6-0.9,315.9c0,29.1,8.9,35.6,36.7,27.7c28.4-8.1,51.8-24.3,71.4-46.1
			c45.2-50.2,63.5-111.5,66.4-176.8c8.4-189.3-1.8-378.7,0.9-568c0.2-11.8-3.6-15.4-15.2-14.8c-45.7,2.6-91.4,4.9-137.2,6.4
			c-16.2,0.5-21.5,5.7-21.4,22.9C1440.3,1288.9,1439.9,1412.7,1439.9,1536.4z"/>
	</g>
</g>
</svg>
