<?xml version="1.0" encoding="utf-8"?>
<!-- Generator: Adobe Illustrator 23.0.0, SVG Export Plug-In . SVG Version: 6.00 Build 0)  -->
<svg version="1.0" xmlns="http://www.w3.org/2000/svg" xmlns:xlink="http://www.w3.org/1999/xlink" x="0px" y="0px"
	 viewBox="0 0 3000 3000" style="enable-background:new 0 0 3000 3000;" xml:space="preserve">
<style type="text/css">
	.st0{stroke:#000000;stroke-width:10;stroke-miterlimit:10;}
</style>
<g id="Layer_1">
</g>
<g id="Layer_2">
	<g>
		<path class="st0" d="M1697.9,246.7c38.5-48.4,81.9-88,133-118.6c104.2-62.5,215.4-90.8,336.7-66.9c49.5,9.8,95.8,28.3,138.6,55.1
			c8.2,5.2,15.5,6.1,25,4.7c127.9-19.3,256.1-27.2,385.6-19.6c78.2,4.6,129.3,44,155.4,114.2c42.5,114.1,34.9,227.4-16.6,337.6
			c-8.7,18.7-20.2,36.3-36.3,49.4c-11.5,9.4-9.1,16.5-2.6,27.3c56.3,92.9,51.9,199.1-10.8,283.5c-10.7,14.4-23.5,26.8-36.6,38.9
			c-3.6,3.4-9.6,5.9-0.8,11.9c42.7,29.4,49.4,75.1,52.3,121.7c2.2,35.1-1.4,69.9-11.6,103.8c-2.9,9.7-1.8,18.1,1.7,27.6
			c43.2,118.1,46.7,234.4-18.4,346.8c-19.4,33.5-44.6,62.4-73.3,88.3c-4,3.6-11,5.5-5.4,14.3c22.2,34.8,20.3,73.9,14.9,111.8
			c-19.7,138.9-85.8,248.7-208.5,321c-135.6,79.9-277.2,147.1-426.1,198.4c-10.8,3.7-21.7,8.7-32.9,9.7
			c-16.9,1.5-16.2,11.4-13.7,22.8c13.9,65.7,51.4,112,116,131.9c64.3,19.9,122,4.3,170.9-41.7c16.6-15.5,23.8-35.7,27.6-58.2
			c11.7-69.2,50.6-103,121.3-106.8c125.5-6.6,215.9,57.9,238.6,183.1c26.8,147.9-6.1,281-112.3,391
			c-61.7,63.9-142.1,91.8-227.3,105.2c-264.2,41.5-519.4,13.4-762.5-102.7c-8.7-4.1-15.2-5.8-24,1.3c-136.7,109.2-320.4,102-455,7.1
			c-15.3-10.8-22.9-9.5-36.9,2.5c-95.5,82.7-206.6,95.7-324.4,65.2c-31.9-8.3-56.3-6.9-86,8.3C536,2996.9,381.2,2945,302,2787.9
			c-16.4-32.5-28.7-66.7-38-101.9c-41.4-157.7-1.4-296.5,98.2-421.4c5.2-6.5,11.2-10.7,2.5-20.2c-80.7-87.9-118.8-194.3-132.2-310.7
			c-15.8-137.3,3.2-269.4,64.8-394.2c20.1-40.8,45.6-78.2,74.1-113.5c9.1-11.3,7.1-16-2.8-25.8c-93.1-91.7-152.4-198.6-145.9-333.9
			c0.2-3.4-0.4-7.1,0.7-10.2c15.3-44,3.1-84-12-126.1c-27.6-76.7-30.7-155.7-4.1-234.1c3.7-10.8,0.2-18.2-4.3-26.8
			c-46.5-88.5-66.6-181.8-54.6-282c22.3-186.4,207.6-316,385.1-268.2c31,8.3,59.1,22.5,82.6,44.2c11.3,10.4,17.4,11.7,25.5-3.1
			c7.5-13.8,18.7-25.4,30.7-35.8c55.5-48.1,117.9-42.5,162.5,15.8c8.3,10.8,11.1,11.2,20.4,1.5c107.5-111,269.8-98.3,358,28.2
			c8.7,12.5,12.1,9,20,0.4c47.4-51.8,104.3-88.8,173.1-105.2c104.6-25,195.1,11.8,254.3,102.1
			C1676.2,191.2,1686.7,217.9,1697.9,246.7z M2776,1273.6c-19.4,27.5-36.1,51.7-53.4,75.5c-45.3,62.5-106.1,108.7-165.2,156.8
			c-98.4,80-195.9,161.1-306.3,224.8c-72.6,41.9-147.6,78.4-225.5,109.3c-9.7,3.9-18.2,8-21.4-7.2c-1.3-6-3.6-11.9-6.7-17.2
			c-7.7-13.2-2.3-18.8,10.5-23.5c241.1-89.2,433.7-251.3,624.5-416.1c14.5-12.5,16.8-23.7,10.4-42.2
			c-39.3-113.5-24-219.8,46.1-317.9c3.1-4.4,9.2-8.2,6.2-17.2c-46.5,10.3-88.9,28.6-124.8,59.4c-32.9,28.2-60.6,59.4-72.9,104.1
			c-15.9,57.8-53.4,102.9-100,140.2c-27.9,22.3-57.4,42.3-88.4,60.1c-166.3,95.7-337.6,182-507.2,271.5
			c-29.1,15.3-28.6,14.7-44-13.5c-6.6-12-6.8-17.8,7-24.6c44.8-22.2,88.9-45.8,133.1-69.3c128.2-68.2,258.2-133.2,383.6-206.5
			c44.5-26,87.2-54.5,122.6-92.8c10.1-10.9,13-19.5,4.6-33.5c-18.2-30.3-28.2-63.4-29.5-99.3c-0.9-25,2.6-49.4,6.9-76.4
			c-7.2,3.9-11.5,5.9-15.5,8.4c-114.2,71.1-235,126.8-366.2,158.9c-6.3,1.5-11.5,3.9-15,9.7c-43.8,73.5-114.2,110.8-191.3,137.5
			c-87.4,30.3-178.4,42.8-270.5,48c-99.5,5.6-198.9,5.3-298.1-4.5c-5.2-0.5-14.1,1.3-14.8-4.1c-1.9-14.2-1.7-29.3,4-42.4
			c4-9.1,14.8-3.6,22.2-3c144.1,11.9,287.8,11.6,430.7-13.8c75.4-13.4,148.3-34.2,212.4-78.4c23.3-16.1,43.5-35.1,58.3-59.9
			c-7.5-3.6-13.1-0.2-19,1.1c-47.9,9.9-95.9,16.1-145,10c-56.1-7-94.7-35.9-115.6-88.8c-13.3-33.7-16.6-69.1-19.9-104.6
			c-1.4-15.3-6-22-23.1-23c-104.5-6.1-208.6-1.8-312.2,11.3c-299.7,37.6-564.4,151.6-786.3,360.1
			c-79.7,74.9-152.3,154.4-195.3,256.7c-43.4,103.4-56,211.6-44.8,322.5c9,89.2,34.3,173.4,85.8,247.9c40,57.9,89.8,103,160.9,120.2
			c52.2,12.6,105,20.5,158.3,25.1c20.4,1.8,41,7.6,63.7,3.1c-56.5-86.1-92.4-177.8-100.8-279c-11.9-142.2,28.6-265.7,133.7-364.8
			c138-130,304.1-155.7,455.7-64c127.3,77,198.4,193.6,206.5,343.5c7.3,134.6-41.3,251.1-126.4,353.6c-7.5,9.1-17.3,16.7-23,29.3
			c6.8,0.3,11.5,0.7,16.3,0.7c123.5-0.2,247-3.8,370.1-14.2c106.6-9,213.2-19.6,316.7-47.6c180.4-48.8,347.3-129.3,507.1-224.9
			c33.7-20.1,63.4-45.4,88.7-75.9c8.2-9.9,9.2-17.6,3.4-29.1c-15.2-30.1-24.6-61.9-29.7-95.6c-3.8-24.7,0-49.7-3.9-76.3
			c-6.8,5.3-11.7,8.9-16.4,12.9c-134.9,114.2-289.4,188.9-460.8,230.4c-15.8,3.8-23.6,1.7-24.2-15.3c-0.1-2-0.6-4.1-1.3-6
			c-6.7-17-3.3-24.9,16.8-29.6c158.8-36.8,301.7-106.6,427.8-210.4c43.9-36.1,84.6-76.3,133.4-106.2
			c50.3-30.9,90.5-71.3,117.5-123.7C2798.3,1444,2800.9,1361.3,2776,1273.6z M1022,2331.9c0,1,0,2.1,0,3.1c60.3,0,120.7-0.2,181,0.1
			c10.2,0.1,18.1-2.5,25.9-9.6c57.8-52.3,103.5-113.4,132.6-185.8c50-124.1,50.9-246.5-22.3-362.4
			c-64.7-102.5-154.5-166.9-280.2-172.2c-153.2-6.5-341.8,142.4-358.9,338.6c-11.8,135.8,28.6,255.3,106.4,364.5
			c7.9,11.1,17.2,15.9,30.6,16.4C898.7,2326.8,960.4,2329.5,1022,2331.9z M2423.2,675.7c29.6-54.4,46.6-178.4,38.8-250
			c-20-183.1-223.8-358.2-441.8-317c-164.6,31.1-279.7,126.8-347.1,278.9c-73.1,164.8-79,336.9-51.8,512.3
			c2.5,15.8,8.4,21.5,23.2,21c6.1-0.2,12.7-0.7,18.4,1.1c50.9,16.5,85.4-7.6,116.9-44c11.1-12.8,13.4-20.8,5-36.3
			c-39.6-72.9-54.6-150.8-35.8-232.4c27.2-117.8,99.3-204,197.1-271c26.4-18.1,26.1-17.3,42.8,9.6c8.1,13,7.4,18.5-6.7,27.7
			c-98.2,64.5-170,148.8-188.1,269.1c-9.3,61.6,6.4,119.1,35.2,174.1c11.1-8.3,13.3-17.6,12.4-28.7c-2.8-36.5-0.2-72.9,8-108.4
			c28.5-123.9,100.2-211.9,221.2-254.9c64.3-22.8,120.4-3.2,162.3,50.5c39.2,50.4,81.9,97.7,126.1,143.8
			C2378.6,641.5,2399.8,659.8,2423.2,675.7z M1639.7,2784.6c3.7,2.3,6.4,4.3,9.4,5.7c104.6,47.8,213.5,82,327.3,99.6
			c133.5,20.7,266.9,15,399.7-5.1c138.8-20.9,238.8-92.4,282.9-230.3c27.4-85.8,33.7-172-3-257.3c-9.5-22.1-22.7-41.7-44-56.6
			c-1.8,7.5-3.5,13.4-4.7,19.3c-11.7,58.7-35.1,112.3-69.8,161c-103.9,146-282.2,210.1-441.3,153.9
			c-139.8-49.4-225.6-151.1-263.1-293.4c-5.5-20.8-13.4-25.1-32.9-22.5c-38.7,5.3-77.6,9.4-116.6,11.7c-17.4,1-21.8,6.3-20.1,23.2
			c7.7,74.4,11.8,149.2,11.1,223.9C1674.2,2675.3,1676.4,2733.9,1639.7,2784.6z M1481.5,548.1c0-0.8,0-1.6,0-2.3
			c-22.6,0-45.2,0.2-67.8-0.1c-25.2-0.3-42.4-10.6-47.8-31.2c-5.6-21.4-6-43.5,2.9-64.5c14.8-34.8,46.8-46.1,79.3-55.1
			c37.2-10.3,76.3-11.2,113.7-6.4c42,5.4,60.7-9.7,79.3-46.8c17.2-34.3,17-62.1,2.8-93.9c-4.5-10-8-20.4-12.9-30.1
			c-19-37.3-43.6-69.7-81.6-89.9c-50.6-26.8-103.3-27.8-155.1-7c-90.8,36.5-158.4,94.6-181.2,196.3
			c-23.5,104.9-55.7,207.4-94.7,307.7c-2.9,7.5-5.5,14.7-3.1,23.7c10.8,39.5,11.4,79.9,8.8,120.5c-0.6,9.3,0.2,17,6.8,24.6
			c34.8,39.7,58.5,86,76.8,135.1c4.7,12.6,11,14.7,22.9,12.6c25.6-4.5,51.4-8.2,77.2-11.4c83.1-10.5,166.6-14.6,250.4-12.9
			c9.1,0.2,15.2,0.6,13.1-12.8c-18.1-113.1-21.1-226.5-2.2-339.9c1.9-11.4-1.1-16.5-13.4-16.3
			C1530.9,548.5,1506.2,548.1,1481.5,548.1z M830.3,1066c26.3-11.6,50.8-23,75.8-33.3c77.4-32,157-57.3,239-74.6
			c15.7-3.3,18.6-8.2,11.7-22.8c-13.7-29.2-26.6-58.8-45.7-84.9C1018,723,887.6,684.1,737.8,697.5c-147,13.2-272.8,74.4-375.1,181
			c-75.2,78.3-107.1,171.1-82.8,279.2c18.2,80.8,64.4,145.7,120,205.1c10.9,11.6,15.5,11.1,26.5,0.2
			c88.6-88.3,182.6-170.2,290.4-234.9c3.6-2.2,9.3-2.9,9.5-9c-81.9-24.6-118.3-78.8-97.4-144.9c18.6-59,80.9-91.1,139.6-72.1
			C833.7,923.4,857.8,985.6,830.3,1066z M541,2343.2c-45.5-11.2-88.6-24.5-125.7-51.9c-7.6-5.6-10.6-0.8-14.6,4.4
			c-69.2,90.4-112.2,189.3-100.3,306.4c8.6,84.4,36.2,161.1,90,227.3c41.6,51.3,97.8,77.1,161.9,74.4
			c94.4-3.9,174.6-46.2,230.8-121.2c91.4-121.8,97.8-257.4,49.1-398.2c-2.7-7.8-7.7-10.2-15.3-10.7c-26-1.7-52-3.4-77.9-5.9
			c-10.2-0.9-12.3,3.7-14.2,12.5c-8.5,39.5-19,78.4-35.2,115.6c-16,36.7-41.6,58.6-83.8,56.6c-14.4-0.7-28.8-0.5-43.2,0
			c-22.1,0.7-36.5-9.7-44.6-29.5c-11.9-29-16.9-59-13.3-90.3C508.4,2400.1,521.6,2371.2,541,2343.2z M1443.8,2386.5
			c-60.7,0-119.6,0.2-178.6-0.1c-13.9-0.1-10.5,9-10.4,16.9c1.5,133.3-22.3,260.4-94.3,375.2c-5.5,8.8-3.9,12.4,3.7,17.8
			c120.5,86.1,281.8,92,398-0.8c32.1-25.6,54.6-57.9,58-100.4c8.1-102.3,1.6-204.2-7.4-306.1c-0.9-9.7-5.4-12.2-14.9-11.5
			c-27.4,2-54.8,3.9-82.2,3.8c-15.5,0-20.4,6.5-24,20.4c-24.5,94.3-76.8,170.3-153.9,229.4c-4,3.1-8.9,11-13.4,6.2
			c-9.7-10.4-19.6-22-24.7-34.9c-3.6-9.1,10.1-12.7,16.4-17.9C1379.4,2532.4,1422.2,2467.2,1443.8,2386.5z M263.7,926.1
			c21.6-33.5,42.9-63.7,69.2-89.9c101.3-101,222.6-163.7,363.9-184.5c134-19.8,261.1-2.1,372.8,82.1c0.8,0.6,2.4,0.2,4.7,0.3
			c0.2-3.2,0.6-6.4,0.5-9.6c-2.7-90.3-41.7-158.8-122.1-202c-83.5-44.8-174.1-56.1-266.9-53.3c-118.8,3.6-229.1,35.3-327.2,104.5
			C241.7,656.1,214.3,797.3,263.7,926.1z M2378.1,165c0.3,2.9,0,4.6,0.7,5.3c4.2,4.5,8.6,8.8,12.9,13.2
			c44.2,45,80.2,95.3,100.9,155.7c25.1,73.2,27.5,147.9,14.7,223.3c-2.9,17.4,1.9,21.2,17.8,21.7c58.9,1.8,117.8,3.8,176.7,7.2
			c54.4,3.1,91.2-18.8,113.1-69.3c24.5-56.5,35.2-115.1,33.1-176.2c-1.4-41.4-8.9-81.6-25.8-119.8c-20.9-47.1-55.8-73.2-108.3-74.2
			c-12.3-0.2-24.6-1.6-37-2.2C2576.8,145.3,2477.4,152.2,2378.1,165z M2520.7,1034.2c42.1-39.3,89.2-63.6,140.9-79.4
			c132.5-40.6,185.8-193.1,107.3-307.3c-4-5.8-7.5-10.5-16.1-9.8c-82.3,6.4-164.5,0.2-246.6-4.9c-11.9-0.7-15.2,4.3-18.1,13.9
			c-35.1,118.1-96.9,221.8-173.8,317c-17.3,21.5-35.7,42.2-53.5,63.2c22.6-7.9,42.3-19.6,62.3-30.9c27.4-15.5,54.4-31.7,82.4-45.7
			c53-26.5,99.2-2.7,110.4,55.6C2517.5,1014,2518.6,1022.1,2520.7,1034.2z M785.5,2857.4c27.3,10.5,54.5,13,81.5,14.3
			c108.4,4.9,197-33.3,254.9-127.3c64.9-105.3,85.9-222.3,81.6-344.7c-0.4-10.7-4.2-14-14.6-14c-32.2-0.1-64.6,0.3-96.7-2.4
			c-20.2-1.7-26.7,5.2-29.7,24.2c-13.9,85.9-46,165.9-83.3,244c-5.2,10.9-10.9,15.1-21.8,7.7c-2.8-1.9-5.9-3.5-9.1-4.7
			c-18.4-6.5-21.1-15.3-11.5-33.9c35.6-69.1,61.3-141.9,76.3-218.4c2.8-14.2,1.8-21.1-15.6-20.9c-31.5,0.3-63.1-0.7-94.5-3.3
			c-18.5-1.5-18.8,4.4-13.6,19.2c15.6,44.4,22.4,90.5,22,137.4c-1,119.2-30.6,227.8-119,314C790.1,2850.7,788.4,2853.6,785.5,2857.4
			z M237,626.4c3.9-3.3,5.8-4.3,6.8-5.9c52.1-75.9,126.2-121.7,209.6-156c19.6-8.1,47.7-3.9,57.3-28.3c8.3-21.1,3.9-44.8,4.2-67.4
			c0.2-16.8-9.4-23.6-24.6-23.2c-26.3,0.7-51.6,6.7-75.3,18.3c-13.7,6.7-25.6,18.3-24.9,32.9c1.3,26.7-16.8,27.3-34.2,32.7
			c-13.6,4.2-16.9-0.5-18-12.7c-3.7-39.7,16.8-78.6,52.7-97c32.2-16.4,66.6-24.7,103-24.1c41.1,0.6,68.3,25.7,70.8,67
			c1.1,18.4,0.7,37-0.1,55.4c-0.4,10.6,2.4,16.3,13.5,12.9c17.2-5.3,34.8-7.1,52.5-8.5c10.2-0.8,15.5-4.6,17.1-15.9
			c3.1-21.2,4.2-42.3,2.9-63.6c-5.3-89.9-60.9-159.7-141.5-178.2c-107.6-24.7-239.4,40-284.6,141C176,413.7,190.7,519.5,237,626.4z
			 M1894.8,729.7c28.9-36.2,57.5-66.4,87.7-95.2c42-40,92.9-54.6,148.8-53.5c64.5,1.3,107.4,34.3,116.5,86.5
			c16.4,94.2-88.2,196.3-182.5,178.1c-28.6-5.5-32.8-3.3-35.2,25.5c-3.6,43-5.3,86.2-8.8,129.3c-1.1,13.2,3.7,16.1,15.9,16.1
			c48,0.3,96,1.4,144,2.6c9.4,0.2,17.1-1.4,24.1-8.5c78.4-80.8,144.2-170.5,193.6-271.9c5-10.2,3-15.7-5.6-21.9
			c-25.1-18-48.9-37.8-70.1-60.3c-44.3-46.8-87.9-94.3-127.4-145.3c-31.1-40.2-62.6-50.9-107.7-37.9
			C1987,502.7,1898.1,618,1894.8,729.7z M2210.5,2644c58.3,0.7,112.9-13.4,163.2-42.5c103.7-59.8,165.6-149.2,187.5-266.8
			c3.1-16.4-1.7-23.3-18.4-25.9c-19.1-3-38.2-4.5-57.4-3.2c-46.4,3.2-66.3,18.8-73.1,63.8c-8.5,56.6-41,94.5-88.2,121.8
			c-131.3,75.5-293.7,2-325.1-147.4c-3.1-14.6-7.7-16.8-20.8-14c-28.7,6.3-57.7,11.9-86.7,16.7c-11.5,1.9-14.6,5.5-12.1,17.4
			C1912.3,2520.8,2053.4,2640.5,2210.5,2644z M1083.1,571.9c16.3-34.8,24.4-70.9,36.7-105.5c26.6-74.9,37.5-154.2,66.1-228.4
			c3.1-8-0.3-14.6-3.6-21.5c-57-119.8-226.7-134.1-303.1-25.5c-5,7-8.5,13.6-4.9,22.7c27,69,26.1,139.3,8.2,210
			c-3.1,12.1,0.1,17,11.9,20.2c33.2,9,64.4,23.3,93.8,40.9c9.8,5.9,16.4,6.1,25-2.3c25.9-25.4,34.8-70.2,19.2-102.7
			c-7.1-14.9-18.4-29.1-34.4-29.4c-24.5-0.5-25.6-15.8-29.3-32.8c-3.8-17.3,2.9-22.2,18.9-20.9c32.5,2.7,59.4,15.7,78.8,42.2
			c37.5,51.2,31.3,125.6-14.2,176.2c-3.7,4.1-13.3,6.8-4.9,15.8C1059.3,543.7,1070.5,557.4,1083.1,571.9z M1788.8,934.8
			c1.4,2,2.8,4,4.2,6.1c61.7,14,121.7,32.4,174.3,70.7c5.8-14.8,4.2-28.6,5.2-42.1c2.7-36.2,4.1-72.6,8.3-108.6
			c6.4-54.5,33.2-74.3,86.5-66.5c60.6,8.9,120.6-34.6,130.7-94.9c5.4-32-8.9-56.9-40.4-63.7c-44.5-9.7-88.2-5.1-125.1,23.5
			c-43.6,33.7-79.5,75.2-110.8,120.7c-27.6,40-55.4,80.1-89.2,115.2C1818.9,909.3,1803.5,921.6,1788.8,934.8z M844.8,329
			c-1.7-61.8-17.9-118.7-58.3-166.9c-19.4-23.1-41-26.1-66.4-10.3c-22.8,14.2-38.3,34.7-50.4,58.3c-3.9,7.6-3,13.9,0.8,21.2
			c28.7,54.7,35.5,113.1,28,173.5c-1.5,11.8,1.8,14.2,12.4,14.1c35-0.5,69.8,1.8,104.2,8.1c11.1,2,15.5-1.3,18.1-12.5
			C839.9,386.2,844.9,358,844.8,329z M1805.8,1137.4c42,1.3,88.4-4.7,133.8-18.4c28.3-8.5,33.4-23.4,15.4-47.3
			c-16.5-21.9-39.5-35.7-64-46.9c-59.8-27.2-123.6-39-188.1-48.1c-11.3-1.6-11.1,4.5-10.1,11.9c2.5,18.3,5,36.6,7.9,54.9
			C1710.8,1106.8,1736.8,1131.1,1805.8,1137.4z M2753.6,1020.6c-68.6,50-104.5,208.9-64.7,286
			C2765.2,1220.3,2792.5,1096.9,2753.6,1020.6z M596.6,2502.7c14.6,0.4,33.2,1.7,43.3-19.6c16.4-34.8,25.8-71.8,34.8-109
			c1.8-7.5-0.1-11.3-8.5-12.1c-19-2-38-4.5-56.9-7.3c-8-1.2-12.6,3.3-17.5,8.3c-28.7,29.9-41.9,65-36.5,106.5
			C559.7,2502.6,559.8,2502.6,596.6,2502.7z M734.9,1066.6c32.8-0.3,60.3-28.5,59.3-60.7c-1-32.2-27.7-58.3-59.8-58.6
			c-32.6-0.3-59.8,27.2-59.7,60.2C674.8,1041.1,701.1,1066.9,734.9,1066.6z M2636.4,1906.8c21.1-39.9,33-78.9,40.2-119.4
			c4.9-27.8,7.3-55.7-0.1-83.6c-3-11.1-7.9-13.2-18.9-8.1c-23.3,10.8-30.6,30.1-35.5,53.5
			C2610.7,1802.4,2615.1,1853.4,2636.4,1906.8z M1497.9,497.5c13,0,26-0.2,39,0c45.4,0.7,45,0.6,57.2-43
			c3.1-11.2,2.5-15.6-10.7-15.7c-34.9-0.3-69.9-1.5-104.7,1.7c-19.9,1.8-39,7.5-55.6,19.4c-10.1,7.3-12,18.2-9.9,29.5
			c1.5,7.9,10.4,7.3,15,6.6C1451.6,492.6,1474.7,496.9,1497.9,497.5z M2142.4,1066.9c-28.8,0-52.6,0.3-76.4-0.1
			c-49.1-0.8-49.1-0.9-48.2,47.9c0,2,0,4.1-0.1,6.1c-0.2,5.3,2.4,8,7.4,6.4C2065.4,1114.5,2109.6,1109.6,2142.4,1066.9z
			 M2457.6,990.2c-33.5,46.3-37.3,131.7-8.6,161.7C2464.6,1099.3,2480.7,1047.9,2457.6,990.2z"/>
		<path class="st0" d="M905.5,1906.3c-0.1-93.2,75.7-169.4,168.2-169.1c92.7,0.3,168.4,76.9,167.8,169.7
			c-0.6,92.4-75.3,167.3-167.4,167.7C981.1,2075,905.6,1999.6,905.5,1906.3z M1190.4,1906.8c0.1-66.7-50.3-117.8-116.3-117.9
			c-66.2-0.1-118.1,50.8-118.4,116.3c-0.3,65.6,51.1,117.6,116.9,118.2C1138.5,2024,1190.2,1972.8,1190.4,1906.8z"/>
	</g>
</g>
</svg>
