<?xml version="1.0" encoding="utf-8"?>
<!-- Generator: Adobe Illustrator 23.0.0, SVG Export Plug-In . SVG Version: 6.00 Build 0)  -->
<svg version="1.0" xmlns="http://www.w3.org/2000/svg" xmlns:xlink="http://www.w3.org/1999/xlink" x="0px" y="0px"
	 viewBox="0 0 3000 3000" style="enable-background:new 0 0 3000 3000;" xml:space="preserve">
<style type="text/css">
	.st0{stroke:#000000;stroke-width:10;stroke-miterlimit:10;}
</style>
<g id="Layer_1">
</g>
<g id="Layer_2">
	<g>
		<path class="st0" d="M2682,1529.9c0,268.7,0.4,537.5-0.1,806.2c-0.6,278.6-179,520.8-453.2,617c-77.8,27.3-158.5,40.5-241.2,40.6
			c-314.1,0.4-628.3,2.6-942.4-0.9c-334.9-3.7-616-234.9-671.2-545.6c-7.4-41.7-10.3-84-10.3-126.3c-0.1-528.9,1-1057.8-0.5-1586.6
			c-0.9-329.5,219.8-560.3,477.3-640.5c68.4-21.3,138.6-32.5,210.6-32.5c314.9-0.1,629.8-1.5,944.7,0.5
			c187.8,1.2,349,66,482.5,191.9c136.7,128.9,202.8,284.9,203.4,465.7C2682.8,989.5,2682,1259.7,2682,1529.9z M2626.4,1512.6
			c0-261.5,0.1-523.1-0.2-784.6c0-27.9-1.2-56-4.7-83.6c-38.2-302.1-308.2-529.6-631.8-530.7c-311.8-1.1-623.6-0.3-935.4-0.1
			c-45.7,0-91.1,5.1-135.6,14.8C622.5,192.6,420.9,433,420.7,724c-0.5,536-0.2,1071.9-0.1,1607.9c0,35.9,1.9,71.7,8.6,107
			c55.5,293.6,314.8,500.8,630.9,501.9c309.5,1.1,619.1,1.7,928.6-0.3c202.8-1.3,369.9-78.2,497.9-226.7
			c95-110.3,139.6-238.4,139.8-380C2626.7,2060.1,2626.4,1786.3,2626.4,1512.6z"/>
		<path class="st0" d="M2294.1,1180.2c-1.2,90.8,3.1,196.1-4.6,301.3c-2.6,35.3-8.5,69.9-28,100.8c-5.7,9-5.8,17.2-3.4,26.5
			c31,117.7,38.9,236.9,33.7,358.1c-4,92.3-13.6,183-46,270.2c-72.8,196-222.3,316.1-428.3,378.8c-121.6,37-247,51.2-373.5,41.7
			c-201.4-15.1-388.1-70.6-537.7-206C767.6,2326,712.9,2169.2,726.6,1990c5.5-71.9,22.4-141.4,51.6-208.1c3.3-7.6,4.6-14.1-1.1-21.8
			c-76.7-103.6-89.6-219.9-75-341.1c18.2-151.4,38.7-302.6,68.4-452.5c19.5-98.5,72-181.2,143.1-252.4
			c197.9-198.4,441-294.4,731.5-274.8c113.9,7.7,226.7,24.7,333.7,64.1c125.5,46.2,203.2,138,260.5,249.2
			c45.2,87.7,54.9,180.6,54.9,275.7C2294.1,1074,2294.1,1119.9,2294.1,1180.2z M1281.2,2331.2c0-26.5-1.1-53.1,0.2-79.5
			c3.1-62.2,3.2-124.7,21.1-185.4c22.9-77.3,98.2-125.6,187.7-120.4c92.5,5.4,148.2,52.1,160.3,138.4
			c12.9,92.4,12.1,185.8,18.4,278.6c4.7,70,10.5,140,14.8,210.1c1.1,17.6,9.1,19.7,24.5,15.8c22.7-5.9,45.8-10.3,68.4-16.4
			c231.5-62.9,383.5-198.4,438.2-424c18-74,18.9-149.1,22.4-224.1c4.1-89.9-5-178.7-24.2-266.8c-3.3-15-7.3-13.9-18.1-5.8
			c-37.2,28.1-78.9,48.2-125.5,58.6c-76.5,17.1-145.1,5.8-199.9-51.6c-35.1-36.7-53.6-81-63.7-128.7c-14.5-68.3-9.6-137-2.2-205.5
			c6.5-60.5,4.5-119.1-22.9-176c-69.2-143.5-210.7-213.1-370-179.7c-85.1,17.8-169.6,72.1-181.8,179.2
			c-5.6,49.2-8.7,98.6-10.4,147.8c-4.9,142.4-45.9,274.9-116.8,399.8c-25.5,45-54.2,88-96,121.7c-51.2,41.2-111.2,45-165,7.5
			c-15.5-10.9-18.8-5.8-23.3,7.5c-21.2,61.6-34.8,124.6-36.7,189.3c-3.9,132.3,34.4,252.4,125.9,354.2
			c98.6,109.8,230.1,168.1,374.6,204.1c17.3,4.3,12.1-7.1,11.4-14.9C1285.4,2487.2,1279.5,2409.4,1281.2,2331.2z M1349.4,518.6
			c-3.8,0.9-8.9,1.8-13.9,3.2c-125,37-236.7,96-332.3,180.6c-90.3,80-160.9,171.5-181.3,290.5c-22.6,132.1-43.6,264.4-60.5,397.2
			c-8.4,66.1-14.1,132.8-0.8,199c14.5,72.2,48.3,135.3,104.4,186.9c31.7,29.1,62.2,29.9,98.2,5.3c18.7-12.8,34-28.7,46.8-46.6
			c56.7-79.6,97.6-166.1,124.7-258.5c29.4-100.5,28.4-204.1,35.6-306.7c7.2-102,52-179.3,150.3-226.2c10.2-4.9,14.1-10.9,14.6-21.5
			c4.5-108.7,9.6-217.4,14.1-326.2C1350.3,570.3,1349.4,544.7,1349.4,518.6z M2238.7,1221.1c-0.3-100.1,0.5-184.6-4-269.1
			c-7.1-133.8-66.1-245.2-168.2-336.6c-67.9-60.8-154.4-82.3-243.2-98.8c-18.4-3.4-21.2,0.4-22.1,16.3
			c-8.8,158-17.9,315.9-28.3,473.8c-1.3,19.3,3.4,33.5,14.9,49.2c52.8,71.9,83.4,150,73.9,239.6c-5.2,49.1-8.1,98.5-8.8,147.9
			c-0.7,52,8.3,102.9,35,149.4c30.9,53.8,80.9,79.3,140.7,71.4c65.6-8.8,120.5-37.3,165.3-83.3c21.3-21.9,33.3-47.4,36.6-76.9
			C2241.4,1404.6,2237.2,1305,2238.7,1221.1z M1500,2606.4c38.2,2.4,74.5-2.1,110.9-3.9c14.1-0.7,20.6-4,18.1-19.2
			c-3.4-20.5-4.5-41.3-5.7-62c-8-133.7-15.3-267.5-24.1-401.1c-2.1-31.9-5.2-65.1-30.2-90.4c-49.7-50.3-182.6-42.4-210.3,43.6
			c-12.3,38.1-15.3,77.3-18.1,116.5c-9.5,129.7-3.2,259.2,8.7,388.5c1.3,14.4,8.7,17.7,21.1,19.5
			C1413.9,2604.1,1457.4,2609.9,1500,2606.4z M1717.3,982.8c0.9-6.5,1.5-9.2,1.6-11.9c5.7-90.8,11.4-181.5,17-272.3
			c3.6-59.3,6.7-118.7,10.8-178c1-13.9-4.5-18.4-18.5-20.4c-99.9-14.3-199.6-16.4-299.6-0.3c-14.8,2.4-19.9,7.4-20.3,21.8
			c-1.4,52.2-4.5,104.5-6.9,156.7c-3.4,74.4-6.5,148.8-10.5,223.2c-0.7,13.9,2.9,17.3,17.7,14.4c19.2-3.8,39-6.3,58.7-7.1
			C1558.5,904.9,1641.5,927.7,1717.3,982.8z"/>
	</g>
</g>
</svg>
