<?xml version="1.0" encoding="utf-8"?>
<!-- Generator: Adobe Illustrator 23.0.0, SVG Export Plug-In . SVG Version: 6.00 Build 0)  -->
<svg version="1.0" xmlns="http://www.w3.org/2000/svg" xmlns:xlink="http://www.w3.org/1999/xlink" x="0px" y="0px"
	 viewBox="0 0 3000 3000" style="enable-background:new 0 0 3000 3000;" xml:space="preserve">
<style type="text/css">
	.st0{stroke:#000000;stroke-width:10;stroke-miterlimit:10;}
</style>
<g id="Layer_1">
</g>
<g id="Layer_2">
	<g>
		<path class="st0" d="M2628,1504.2c0,235.4,3,470.8-0.7,706.1c-5.8,362.9-263.3,659.8-620.7,721.4c-41.1,7.1-82.8,10.3-124.6,10.3
			c-265.9,0.1-531.9,2.6-797.7-1c-361.3-4.9-660.9-265.3-720.8-621.4c-7.7-45.6-10.3-91.7-10.3-138c0-452.9,1.5-905.8-0.4-1358.6
			c-1.5-364.4,234.4-636.1,521.4-725.6c65.8-20.5,133.3-32.9,202-33.2c274.1-1,548.3-3.9,822.3,0.4c361.9,5.6,657.6,263.2,719.5,620
			c8,46.3,10.5,93.2,10.5,140.2c-0.1,226.4,0,452.9,0,679.3C2628.3,1504.2,2628.2,1504.2,2628,1504.2z M1544.1,1404.8
			c71.2-90.4,157.7-117.9,260.8-82c71.1,24.8,125.5,70.5,123.8,164.4c-1.8,99-0.3,198.1-2.5,297.2c-0.5,23.1,7.8,28.1,27.7,30.8
			c203.3,27.7,401.4,77.1,595,145.1c24.5,8.6,24.6,8.7,24.6-17.3c0-376.1,0-752.3-0.1-1128.4c0-39.5-2.3-79-9.1-117.9
			c-58.5-338.9-340.5-577.4-684.5-578.2c-260-0.6-519.9-0.4-779.9,0c-105.7,0.2-207.7,20.1-301.9,68.9
			C544.3,318.7,411.8,528.9,409.1,814.2c-3.6,387.3-0.9,774.6-0.9,1162c0,27.2,0.1,27.2,26.3,17c215.8-84.2,438.4-142.3,667.5-176
			c20.8-3.1,24.3-10.4,24.2-29c-0.5-98.4,5-196.5,18.4-294c13.1-95.1,59.8-150.5,150.6-171.5
			C1389.3,1300.7,1492.6,1319.3,1544.1,1404.8z M1490.4,2887.1c125.9,0,251.8-0.1,377.7,0c100.1,0.1,197.3-15.1,289.1-56.8
			c220.2-100.1,355.3-268.9,404.1-505.7c19.4-94.2,10.5-190,12.3-285.2c0.2-12.1-7.6-14.5-16.2-17.6
			c-76.2-27.8-153.5-51.7-231.6-73.6c-217.4-61.1-438.9-95.6-664.3-105.1c-264-11.1-525,12.3-782.8,71.1
			c-154,35.1-304.2,82.6-451,140.6c-9.2,3.6-19.7,5.2-19.5,20.1c1.1,87.8-4.1,175.9,14.4,262.7c68.8,322.9,344.3,547.6,674.7,549.6
			C1228.2,2887.8,1359.3,2887.2,1490.4,2887.1z M1180.2,1709.2c0,27.5,0.5,55.1-0.2,82.6c-0.3,12.3,3.7,14.6,15.6,13.1
			c88.7-10.7,177.9-15.2,267.1-18.6c22.6-0.9,52.2,9.2,66-6.7c13.4-15.4,5.4-44.3,5.7-67.2c1-86.5-3.8-172.5-28.7-256.2
			c-12.6-42.3-41.8-67.9-83.3-79.2c-38.6-10.5-77.7-11.5-116.8-1.1c-57.9,15.4-94.5,49.8-104.2,111.1
			C1189.8,1560.7,1185.3,1634.9,1180.2,1709.2z M1872.7,1626.1c0.1,0,0.2,0,0.4,0c0-49.9-0.7-99.8,0.2-149.7
			c0.7-36.4-15-62.7-44.6-82.1c-41.1-26.9-86.7-35.6-134.5-28.8c-71.7,10.2-129.3,77.2-119.6,140.8c13.2,87.2,18.8,174.6,12.5,262.6
			c-0.9,12.2,2.3,16.9,15.3,17.3c84.1,2.5,168.1,6.6,251.7,16.2c15.2,1.7,19.1-3.2,18.9-17.8
			C1872.2,1731.9,1872.7,1679,1872.7,1626.1z"/>
		<path class="st0" d="M1517.1,2522.6c-99.6,0.2-177-76.4-177.4-175.9c-0.5-98.9,77.6-178,176.1-178.2
			c100.8-0.2,179.2,77,179.6,176.8C1695.7,2445.5,1618.3,2522.4,1517.1,2522.6z M1516.3,2468.7c69.5,0.4,123.9-52.8,124.3-121.5
			c0.4-68.8-53.6-124-121.9-124.7c-68.5-0.6-123.7,53.9-124,122.3C1394.5,2414.9,1446.9,2468.3,1516.3,2468.7z"/>
	</g>
</g>
</svg>
