<?xml version="1.0" encoding="utf-8"?>
<!-- Generator: Adobe Illustrator 23.0.0, SVG Export Plug-In . SVG Version: 6.00 Build 0)  -->
<svg version="1.0" xmlns="http://www.w3.org/2000/svg" xmlns:xlink="http://www.w3.org/1999/xlink" x="0px" y="0px"
	 viewBox="0 0 3000 3000" style="enable-background:new 0 0 3000 3000;" xml:space="preserve">
<style type="text/css">
	.st0{fill:none;stroke:#000000;stroke-miterlimit:10;}
	.st1{stroke:#000000;stroke-width:10;stroke-miterlimit:10;}
</style>
<g id="Layer_1">
</g>
<g id="Layer_2">
	<path class="st0" d="M1253.3,1659.5"/>
	<g>
		<path class="st1" d="M1672.9,2941.1c-160.7,1.5-288.9,4-417.3-2.1c-153.5-7.3-296.3-51.2-433.5-116.6
			c-209.9-100-379.7-245.3-498.2-447.2c-66.2-112.8-102.2-236.4-125.1-363.8c-19.7-109.9-36-220.5-51.7-331.1
			c-12.8-90.6-20.3-181.6-11.6-273.5c8.4-88.1,52.3-152.1,126.8-196.3c16.9-10,14.7-14.2,2-25.8C109.4,1043.1,56.5,819.5,133,632.4
			c25.2-61.7,62.3-115.5,113-158.7c25.7-21.9,47.7-46.4,69-72.3c147.4-178.5,337-282.8,565.3-316c169.6-24.7,340.5-21.3,511.1-13.8
			c145.6,6.4,288.8,30,430.1,65.3c9.6,2.4,18.7,1,28.2-1.2c114-27.1,229.4-42.5,346.9-38c113.7,4.3,222.8,27.3,325,79.8
			c105.1,54,176,138,221.6,245.4c43,101.3,64.1,208.2,82,316c27.8,166.5,36.7,334.8,49.8,502.8c13.6,175.6,29.2,351,33.9,527.1
			c4.2,155.9,6.2,312.6-36,463.8c-65.8,235.9-188.5,435.7-393,578.9c-90.2,63.1-190.9,93.8-299.3,105.5
			C2001.1,2936.5,1820.8,2936.1,1672.9,2941.1z M2144,470.7c-80.6,0-161.2-1.2-241.7,0.4c-66.8,1.3-96,26.7-112.5,91.4
			c-0.8,3.3-1.6,6.6-2.1,10c-6.7,47.9-12.5,96-20,143.8c-15.9,101.4-71.9,157.8-168,170.5c-104.7,13.8-193.3-50.8-210.8-154.6
			c-6.6-39.3-3-79-0.6-118.5c0.6-10.4,0.5-16.4-12.8-16.5c-59.5-0.6-118.7,0.8-177.3,12.7c-85.6,17.3-155.8,56.7-199.7,135.5
			c-13.6,24.4-29.4,47.6-43,72c-65.6,117.8-109.1,243.6-133.7,376.1c-7.2,38.8-7.6,39.1-44.6,31.4c-6.6-1.4-13.5-1.7-20.1-2.9
			c-102.4-19.6-205.2-30.1-309.4-18c-62.4,7.2-122.1,23-174.7,59c-67.6,46.2-105.6,137.9-87.7,210.6c4.3-4.8,8.2-9.5,12.4-13.8
			c58.4-58,124.2-101.6,210.7-97c77.1,4.2,131.9,47.3,173.4,109.3c7.6,11.3,12.6,14,25.1,6.6c39.8-23.7,80.6-45.8,120.8-68.8
			c32-18.2,31.4-18,50,12.9c6.6,11,4.8,15.1-6,21c-48.5,26.4-96.5,53.7-144.4,81.1c-4.8,2.8-12.3,3.5-13.2,11.3
			c-2.4,20.6,14.3,37.9,35.6,36.1c56.4-4.7,112.9-9.7,169.3-14.5c5.3-0.4,12.7-4,15.4,1c6.9,13,4.5,28.1,4.2,42.1
			c-0.2,9.8-11.9,6.9-18.6,7.5c-55.7,4.9-111.5,9.2-167.3,13.8c-7.5,0.6-17-2.1-16.8,11.6c0.2,13.9,8.8,12.6,17.9,12.5
			c19.1-0.1,38.2-0.1,57.4,0c21.6,0.2,39.1,9.3,48.9,28.2c15.4,29.5,22.7,61,17.3,94.8c-4.3,27-20.3,47.8-36.6,70
			c9.1,2.6,16.2,4.7,23.3,6.7c14.9,4.3,24.9,22.8,37.2,22.5c13.5-0.3,25-16.6,40.4-21.5c52.7-16.7,96.9,0.6,136,34.4
			c11.8,10.3,20,13.8,35.2,7.5c31.4-13.1,63.7-24.2,96-34.8c12.7-4.2,16.4-10.7,16-23.6c-0.9-30-1-60.1,0-90.1
			c0.5-14.2-3.8-23.7-14.2-33.6c-112.5-107-147-271.7-80-409.4c18.8-38.7,11.8-60.9-14.7-87.3c-22.7-22.6-21.1-23.1,0.8-46.3
			c10.6-11.2,17.3-9.3,25.7,1.4c10.2,12.8,21.8,24.5,31.5,37.6c6.1,8.3,9.5,8.8,16.2,0.8c16.7-20,35.9-37.8,58-51.5
			c18.7-11.6,16.1-24.5,7.3-39.5c-7-11.8-18.2-21.8-31.2-20.4c-26.3,2.9-26.5-16.2-32-32.1c-4.4-12.7-0.6-19.1,13.1-19.8
			c33.3-1.6,61.4,8.6,84.5,33.4c11,11.8,10.8,35.8,25.9,37.7c15.2,2,31.9-9.7,48.2-14.6c14.2-4.3,34.7-3.2,41.4-12.5
			c6.9-9.5,0.3-28.7-0.1-43.6c-1-34.8-1-34.2,33.9-33.7c12,0.2,17,2.8,16.5,15.9c-0.7,15.6,1.6,31.3,1.8,47
			c0.1,9.8,2.8,14.9,13.9,15c32.3,0.2,63.8,5.9,94.5,15.8c11.8,3.8,14-1.4,14.3-11.7c0.6-18.4,3.9-36.9,2.9-55.1
			c-1.2-23.7,10.8-23.6,28.8-21.9c19.2,1.8,25.6,8.8,21.8,28c-4.9,24.9-4,50.3-3.8,75.6c0.1,6.1-0.5,11.9,6.5,15.7
			c22.1,12,41.7,27.8,63,44.4c8.3-28.8,20.3-53.7,41-73.6c27.6-26.5,27.1-26.3,46.6,5.4c6.3,10.3,7.6,16.1-3.7,24.7
			c-24.9,18.9-35.2,45-35.1,76.8c0.1,28.6,18.2,48.2,30.9,70c9.1,15.6,6.3,41.6,28.1,45.7c18.1,3.4,37.9-1.9,57-3.3
			c0.7-0.1,1.3-0.3,2-0.4c32.9-5.7,31.9-5.4,40.1,27.8c3.4,13.6-1.2,17.1-12.6,18.6c-16.2,2-32.5,4.4-48.7,6.4
			c-33,4-32.2,3.8-28.3,38.2c1.4,12.4,6.1,15.9,17.5,16.5c72.9,4.1,145.8,9.1,218.7,12.9c16.9,0.9,31.4,4.7,45.5,14.6
			c52.9,37.4,106.8,73.3,159.6,110.9c12.5,8.9,17,6.8,23.4-6c13-25.9,31.8-47.5,54.6-65.6c3.3-2.6,9.1-4.1,7.6-11.2
			c-2.5-0.4-5-1-7.6-1.2c-101.4-9-186.2-52.2-253-128.1c-199.9-227.3-185.9-584.8,58.9-808.3C2073.3,517.9,2108.7,495.2,2144,470.7z
			 M1564.9,2098.1c96.6-45.6,192.6-53.4,291.3-42c134,15.5,253.6,116.3,292.7,245.2c23.8,78.7,20.9,156.7,4.9,236.6
			c-27.4,137.3-90.1,252.1-203.4,337c-2.6,1.9-6.2,3.3-4.9,9c116.9-7,234.4-9.8,349-38.2c58-14.3,109.2-43.7,160.2-77.9
			c-20.1-3.9-37.3-6.7-54.3-10.7c-18-4.3-34.9-11.7-50.6-21.7c-81-51.8-106.2-161.8-55.9-249.8c8.6-15,10.5-23.7-2.3-37.9
			c-24.6-27.4-35.5-61.3-32.5-98.4c3.8-47.3,30.8-86.7,88.8-81.4c25.9,2.3,48.4-11.8,66.2-31.3c6.8-7.5,5.1-14.4-0.4-22
			c-13.2-18-31.7-27.5-52.2-34c-21.2-6.7-40.1-17.3-55.1-33.8c-28.6-31.4-23.2-71.7,12.5-94.5c16.8-10.7,35.1-18,53.3-25.9
			c38.8-16.7,78.1-32.3,113.4-56.2c26.5-18,41.3-42.4,44.8-74.4c4.7-43.7,4.1-87.1-0.1-130.8c-4.4-46.8-30.4-75.8-72.9-91.6
			c-34.9-12.9-76.3,6.7-76.8,40.8c-0.4,25.6-15.8,26.5-30.4,34.2c-14.7,7.8-18.6,1.3-20.8-11.9c-8.5-50.8,29.8-104.4,82.6-115
			c66.4-13.3,145.3,36.7,162.2,107.8c15.4,65,14.4,131.6,1,197.1c-9.9,48.5-45.2,77.8-86.4,100.9c-41.7,23.4-86.7,39.8-129.8,60.1
			c-7.8,3.7-19.6,5.9-19.6,15.7c-0.1,10.9,10.3,17.4,19.7,21.6c14.9,6.8,30.9,11.1,45.3,18.6c68.5,35.7,90.7,99.7,25.7,147.3
			c-0.8,0.6-0.9,2.3-1.3,3.5c44.1,27.2,76.6,24.8,116.1-5.8c30-23.2,41.1-55.6,46.2-90.4c21.2-146.2,31.8-293.2,24-440.9
			c-2.9-54.5-11.7-108.6-31.6-160c-17.4-45-44.6-61.2-92.4-54.8c-60.2,8.1-112,32.7-151.9,80c-23.6,28.1-23.8,27.1-54,7.9
			c-9.1-5.8-8.2-9.1-2.9-16.7c54.4-77.3,129.7-117.6,223-122.4c59.6-3,100.1,26.3,123.2,83.1c22.9,56.2,32.1,115.6,36.4,175.6
			c10.4,147.1-3.3,293.2-21,439c-5.8,48.2-18.5,94.5-57.3,129.7c-47.7,43.2-99.7,56.8-160,31.6c-21.4-8.9-42.2-19.2-63.8-27.7
			c-35.8-14-55.7,0.7-54,39c0.2,5.4,1.2,10.8,2.6,16.1c12.4,47.7,47.6,69.7,92.1,79.7c52.7,11.9,106.2,11.8,158.4-1.2
			c70.1-17.5,116.4-48.6,124.8-135.7c7.3-76,21.5-151.3,28.4-227.3c11.4-124.4,18.7-249.1,11.3-374.2
			c-6.4-108.1-59.7-186-153.3-238.1c-20.9-11.6-42.6-16.9-66.8-13.7c-27,3.6-54.3,5.7-81.5,7.6c-62.5,4.4-117.6,27.3-165.6,66.9
			c-23.9,19.7-38.8,43.3-37.3,77.5c2.5,54.5,0.6,109.2,0.7,163.9c0.1,30.8,2.8,61.4,12.1,90.9c11.8,37.2,32.8,67.6,73.5,74.5
			c40.1,6.8,68.8-15.8,92.5-45.5c3.8-4.8,6.8-10.2,9.8-15.5c19.8-34.7,25.1-73.3,28.8-112.1c4.3-45.7-0.9-33.7,39.8-34.7
			c11-0.3,14.4,3.7,12.9,14.5c-3,21.6-4,43.5-7.6,65.1c-8.7,52.8-26.1,101.7-67.1,139.1c-69.4,63.3-161.6,51.1-211.7-28.2
			c-15.6-24.6-24.6-51.8-28.4-80.4c-8.6-63.9-3-128.2-3.7-192.3c-0.2-17.2-6.5-27.5-19.4-36.2c-57.1-38.5-114.3-76.8-171-115.8
			c-9-6.2-16.4-13.8-28.2-14.4c-73.6-4.3-147.2-8.6-220.7-13.7c-14.6-1-18.1,4.7-19.8,18c-26.1,199.6-221,340.7-418.4,304
			c-39.6-7.4-77-20.6-115.7-40.5c6.7,41.1,21.5,74,51,98.6c38.6,32.2,84.8,38.9,133,35.4c105.1-7.7,197.6-49.7,283.7-107.4
			c73.4-49.2,129.6-114.6,171.7-192c6.9-12.6,12.9-15.9,24.5-7.5c3.3,2.4,7.1,4.3,10.9,5.6c15.8,5,17,13,8.7,27
			c-27.2,46-56.5,90.3-94.1,128.5c-7.1,7.2-8.9,13.4-6.1,23.1c18,61.4,4.4,118.8-24.2,173.7c-14.4,27.7-36.1,48.6-66.9,56.3
			c-17,4.3-35.1,5.2-52.7,5.9c-19,0.7-30.6,7.6-34.3,27.5C1581.7,2054.4,1578.4,2074.7,1564.9,2098.1z M402,382.2
			c70.1-24,138.2-30.8,207.6-26.1c15.9,1.1,31.1-0.4,46.6-3.9c216.9-48.6,433.1-45.4,649.1,6.9c71,17.2,112.7,58.9,127.7,129.7
			c6.3,29.7,8.4,59.4,7.5,89.5c-1.2,40.2-6.2,80.3-4.8,120.7c2.4,69,33.8,113.6,93.6,131.5c89.2,26.8,163.8-15.7,185.2-106.1
			c3.8-15.9,5.6-32.2,8.1-48.4c7.5-49.8,8.8-100.7,25.3-149c22.9-66.9,73.7-105.4,144.6-105.7c142.7-0.6,285.5-1.5,428.2,1
			c94.2,1.7,188.3,8.5,278.5,40.4c44.6,15.8,87.6,34.8,126.1,63.8c-3-15.1-7-28.7-11.7-42c-31.7-89.8-76.9-170.3-156.8-226.9
			c-69.2-48.9-146.5-78.4-228.9-94.7c-139.6-27.6-278.5-17.5-416.7,10.8c-33.8,6.9-68.1,11.4-96.7,35
			c-41.9,34.5-73.2,75.3-98.4,123.7c-26.7,51.4-45.2,102.2-41.1,161.1c3,42.7-11.8,82-34.1,118.2c-11.1,18.1-23.5,35.4-42.2,46.6
			c-23,13.8-48.8,4.1-53.7-21.4c-2.7-13.7-2.1-27-0.6-40.7c7.3-67.6,35.8-126.8,72.8-182.4c7.6-11.4,10.1-23.1,10.1-36.6
			c-0.1-75-12.6-148-32.6-220c-3.4-12.4-9.6-17.8-22.4-18.9c-45.5-4.1-90.9-10.5-136.5-13.4c-181.5-11.6-363.1-14.9-543.8,9.4
			c-163.4,22-309.7,84.9-435.2,193.2C438.3,343.6,419.2,358.8,402,382.2z M1324,2519.6c29.8,22,59.2,37.8,89.7,51.2
			c70.9,31,144.5,50.2,222.6,42.7c52.1-5,96.8-24.7,122.3-73.9c15.1-29.1,16.9-59.5-2.6-87.3c-19.9-28.5-47.9-41.3-83.3-36.9
			c-24.3,3.1-48.6,7.6-73.3,6c-36.3-2.3-61-22.7-69.8-58.3c-2.6-10.6-5.1-21.2-6.9-32c-13-81,14.5-129.1,91.1-158.7
			c15.2-5.9,31-10.9,47-13.8c64.8-11.7,130.3-13,195.9-8.3c63.1,4.5,115,31.5,150.2,83.7c67,99.5,84.5,208.2,52,324.2
			c-11.8,42.2-6.9,33.5-44.1,22.2c-10.4-3.1-13.3-8.1-9.5-19c29.4-83.8,23.8-166.4-10.4-247.5c-26-61.8-67.1-106.3-137.7-113.3
			c-49.5-4.9-99.1-2.5-148.7,1.7c-28.1,2.4-55.4,7.8-81.4,18.6c-47,19.5-60.4,41.2-56,91.8c1,11.5,3.6,22.9,5.6,34.3
			c3.1,17.7,14,26.2,31.7,24.7c21.7-1.8,43.3-4.9,65-7c66.4-6.6,131.1,39.7,143.5,105.2c12.4,65.7-15.8,116.5-67,154.3
			c-49.4,36.5-107.6,45.3-167.5,40.7c-117.6-9-222.4-51.5-314.9-124.5c-7.2-5.7-14-10-23.9-8.7c-38.7,5.1-77.6,5.6-116.5,4.1
			c-7.8-0.3-12.4,2-15.9,9.4c-40.2,86.1-41.4,192.7,25.5,271.8c28,33.1,63.1,57,104.8,68.2c29.6,8,60.9,6.3,91.6,7
			c160.5,3.6,320.9-1.5,481.3-4.2c10.6-0.2,20.1-3,29.4-7.6c26.3-13,51.9-27.5,75.5-45c96.5-71.4,154-167.6,180-283.9
			c14-62.9,25.6-125.9,12.5-190.4c-25.2-124.3-95.3-210.8-219.1-245.1c-101.1-28.1-202.2-20.5-297.7,24.3
			c-74.4,35-130.3,88.8-152.9,171.6c-25.8,94.3,20.5,183.5,109.8,209.8c40.5,11.9,79.5,5.4,118.1-8.6c5.3-1.9,10.4-8.5,16.9,1
			c21,31,19.5,37.8-14.7,50.9c-3.8,1.5-7.7,2.8-11.7,3.8c-89.1,22.3-166.3,4.2-227.3-67.7c-5.3-6.3-9.3-12.9-19.9-9.4
			C1384.9,2501,1356.3,2509.5,1324,2519.6z M1390.5,2309c-8.5,0.5-13.9,0.7-19.3,1.1c-205.3,16.4-397.2-26.7-576-129.3
			c-131.2-75.3-198.4-188.3-204.4-339.1c-2.4-60.6,2-121.3-3.3-181.9c-5.7-64.9-19.1-127.1-61.5-179
			c-33.7-41.3-75.2-67.3-131.3-68.7c-62.2-1.5-166.6,58.8-206.4,151.2c-6.2,14.4-1.5,17.9,13.4,15.8c29.1-4.1,58.6-4.2,87.9-2.3
			c105.2,7.1,168.3,70.4,175.4,174.6c2.2,32.7,5.3,65.3,9.8,97.7c17.3,123.1,68.2,232.3,140.8,331.9
			c122.7,168.5,277.5,285.5,493.2,303.3c95.4,7.9,187.8-6,278-36.5c6.4-2.2,12.8-3.1,9-13.6C1381.5,2394,1380.5,2352.8,1390.5,2309z
			 M2287,914.5c-45.6,58-101.8,78.1-167.9,58.4c-66.8-19.9-98.6-70.7-106.1-139c-3.3,5.5-5.3,10.3-6.5,15.3
			c-26.8,114.5-14.4,223.8,45.5,326c126.6,216.1,406.1,241.6,564.5,51.9c121.7-145.7,127.6-368.3,14-521.2
			c-142.4-191.5-404.4-194.8-550.8-6.8c-3.9,5-7.1,10.5-13.7,20.3c7.2-4.2,9.5-5.4,11.6-6.8c82.9-53.6,182.5-24.7,221.8,65.2
			c5,11.5,11.8,12.4,21.7,13.4c11.7,1.2,14.6-5.8,18.6-14.4c25.9-56,70.1-86.3,131.6-88.8c70.4-2.8,132.3,46.3,147.5,114.8
			c15.3,68.6-20.4,139.6-84.1,167.3c-65.7,28.5-141.3,6.9-181.7-51.6c-3.9-5.6-5.7-13.3-15.7-18.2c0,30.6,0.7,58.5-0.3,86.4
			c-0.5,15.1,3.2,23.4,18.2,31.2c68.6,35.4,96.2,119.1,64.6,189.9c-31.1,69.6-110.3,103.4-183.4,78.3
			c-71.8-24.7-113.5-101.9-93.1-176c17.5-63.9,61.2-99.5,126.3-109.7c7.2-1.1,17.7,2.2,17.6-11.2
			C2286.8,965.5,2287,941.9,2287,914.5z M1320.6,547c12.3,0,18.4-0.2,24.5,0c51.6,1.7,51.6,1.7,38.5-49.5
			c-16.5-64.5-47.7-90.2-113.7-88.3c-112.2,3.2-217,35.3-311.5,94.9c-232.2,146.6-337.2,359.4-322.8,632.6
			c0.7,12.4,4.2,17.2,17.5,18.6c31.2,3.1,62.2,8.2,93.1,13.5c28.2,4.8,27.8,5.3,34-23.5c35.7-167.5,101.1-322.1,200.2-462.1
			c32.9-46.5,76.9-78.5,129.7-99.3C1179.8,556.4,1252.7,548.4,1320.6,547z M2816.9,1121.3c-32.5,62.8-70.1,119.4-117.7,169.2
			c-47.4,49.6-101.9,90.1-162.5,123.8c2.6,1.7,3.5,2.6,4.6,2.9c123.1,37.4,200.9,118.8,226.4,244.5c26.5,130.6,8.2,262.8,1.4,394
			c-4.4,85.5-20.3,170.4-30.2,255.7c-7.1,61.3-21.6,118.5-77.1,155.7c-3.6,2.4-6.2,5.6-5.3,10.2c5.2,26.3,4.8,53.2,7.1,80.4
			c70.3-104.6,130.6-213.2,161.2-335.9c33-132.3,36.4-267.3,34.8-402.6c-2.1-170-16.4-339.4-27.6-508.9
			C2827.9,1247.2,2822,1184.3,2816.9,1121.3z M268.7,2093.8c46.6,208.1,154.5,374.9,310.8,511.7c139.4,121.9,433.9,265.9,536.3,263
			c-39.4-39.1-64.8-85.1-76.1-138.5c-2.3-10.8-8-10.7-16-9c-20,4.2-40.1,8.1-60.1,12.4c-34.9,7.5-34.5,7.6-40.6-26.3
			c-9.6-53.9-19.7-107.7-30-163.7c-71.3,46.4-140.2,91.2-211.4,137.5c-8.5-81-17-158.8-24.4-236.7c-1.4-14.3-2.9-20.1-20.1-16.8
			c-58.1,11.1-116.7,20-175.1,29.8c-3.8-7.6-2.1-15.2-2.2-22.5c-0.6-91.5-0.9-182.9-1.4-274.4c0-8.4,2.7-18.2-10-21.3
			C389.4,2124.2,330.2,2109.2,268.7,2093.8z M1330.1,1356.3c8.7,1.5,16,3.3,23.4,3.9c18,1.6,29.2,7.5,23.5,29.1
			c-3.8,14.6,6.9,16.1,18.1,16.8c86.4,5.3,172.8,10.8,259.2,16.7c10.4,0.7,13.8-2.4,11.8-12.4c-1.1-6-1.1-12.2-2.1-18.3
			c-22.9-129.2-125.8-232.6-251.9-253.2c-135.4-22.1-264.2,40.7-328.4,160.3c-34.1,63.5-24.7,82.9,47,97.4c1.3,0.3,2.7,0.4,4,0.7
			c11.8,2.9,19.8-1.5,24.6-12.5c8.6-19.5,14.1-39.7,14.8-61.2c0.9-29.9,1-29.6,31.5-33.3c12.3-1.5,18.5,0.4,18.9,15
			c0.7,26.2-2,51.8-10.3,76.6c-3.3,9.8-1.2,13.5,9.3,13.9c21.1,0.9,42.2,2.5,63.3,3.9c36.4,2.5,36.4,2.6,41.9-33.7
			C1329,1363.4,1329.4,1360.7,1330.1,1356.3z M1491.5,2148c-62.2,4.4-104.8-21.6-125.7-73.5c-4.3-10.6-8.2-14.7-20.4-11.7
			c-17.5,4.2-35.3,0.3-52.8-2.5c-81.2-13.3-149.8-54.6-163.9-146.5c-2-12.9-7.6-11.6-16.5-8.3c-25.5,9.6-50.8,19.5-76.7,27.8
			c-13.1,4.2-16.2,9.8-13.2,23.2c11.8,52.8-4.8,97.8-44.6,132.5c-16.6,14.5-27.4,26.3-23.5,50.1c2.3,14.1-2.2,29.8-5.7,44.3
			c-2.9,12,0.8,16.7,11.9,20.8c141.4,52.4,286.8,69.9,436.5,52.7c6.2-0.7,12.1-1.3,15.3-8.1
			C1429.7,2210.6,1454.4,2177.6,1491.5,2148z M2466.4,1388.2c-3.8,1-7.6,2.1-11.5,3.1c-116.5,29.7-225.2,12.4-323.6-57.2
			c-231.9-164.1-253.4-524.6-43.6-717.9c148.7-137,359.6-142.3,514.9-13c176.8,147.2,211.6,426.1,77.7,622.6
			c-3.9,5.8-7.6,11.8-14.6,22.6c6.9-4.7,8.8-5.5,10-6.8c96.4-110.1,144-235,114.9-382.8c-20.9-106.2-74.4-194.3-153-267
			c-127.3-117.8-303.9-149.2-450-81.1c-112,52.2-190,138.6-241.2,249.1c-78.8,169.9-69.3,337.1,26.4,497.3
			C2093.1,1458.3,2299.8,1466.9,2466.4,1388.2z M1361.6,1755.4c9.8-0.7,24.2-1.2,38.4-3.1c12.8-1.7,25.7-4,38.1-7.7
			c125.1-38.1,200.3-121.5,226.5-249.6c3.1-15.2-0.7-22.2-17.4-22.5c-23.9-0.5-47.8-2-71.4-4.9c-14.6-1.8-17.3,3.6-17.2,16.5
			c0.1,28.3-7,55.4-16.3,81.9c-16.8,47.6-49.4,73.6-100.3,81.2c-56,8.4-98.3-4.6-121.2-60c-1.7-4.1-3.7-4.9-9.2-3.5
			c-50.8,12.7-87.2-10-115.4-49.7c-15.5-21.9-24.1-47.2-33.1-72.2c-2.5-6.9-3.5-14-14.5-13.3c-27.4,1.7-52.1-9-76.7-19.2
			c-25.1-10.5-25-10.9-24.8,17.5C1048.4,1616.7,1186.8,1754.5,1361.6,1755.4z M360.8,862.8c-1,121.9,75.8,190.7,195.9,178.1
			c23.2-2.4,28.6-11.7,30.4-32.4c10.2-114.8,47.2-220.9,108.6-318.4c21.1-33.5,21.2-33.4-16.3-45.5
			C514.7,591.2,362.1,695.8,360.8,862.8z M1175.8,1878.1c2.9,45,13,85.9,54.9,108.7c37.7,20.5,78,31.6,121.8,24.1
			c31-5.3,47,5.5,56.6,35.8c1.8,5.8,3.3,12,6.2,17.3c12.1,22,30.4,35.2,56.1,34.4c26.2-0.9,45.2-14.2,55.9-38.1
			c3.6-7.9,4.7-17,6.4-25.7c10.8-54.3,33.4-77.5,88.5-77.1c47.6,0.3,71-23.1,85.1-64c6.1-17.5,11.4-35,13.6-53.3
			c1.6-13.9,0.5-27.5-3.8-42.5c-72.6,56.8-150.5,98-235.9,124.8c-43.9,13.8-88.8,22.5-134.7,22.4
			C1282,1945,1222.9,1927.6,1175.8,1878.1z M2611.4,2533.1c0-3.4,0.1-6.8,0-10.2c-1-27.3-0.9-26.4-26.6-20.3
			c-75,17.8-149.9,19.6-223.7-5.6c-11.4-3.9-16-0.6-21,8.2c-20.5,35.9-27.6,74-16.6,114c13.4,49.1,46.5,79.5,95.5,91.1
			c53.5,12.6,101.7,2.1,140.6-38.9C2596.3,2632.7,2610.2,2585.2,2611.4,2533.1z M2571.7,835.8c0.3-54.4-42.5-97.8-96.7-97.8
			c-53.7,0-96.4,42.1-96.8,95.4c-0.5,55.2,40.9,97.9,95.5,98.8C2527.8,933,2571.4,890.1,2571.7,835.8z M2066.5,831.3
			c-0.6,54.6,40.5,97.5,93.9,98.1c55.1,0.6,98.3-40,99-92.9c0.8-56.2-40-99.8-93.8-100.2C2109.2,735.9,2067.1,776.3,2066.5,831.3z
			 M2188.5,1147.9c0.5,54.1,44.5,97.3,98.3,96.4c54.1-0.9,96.2-44.6,95.5-99.1c-0.7-53.9-44.7-96.1-99.3-95.2
			C2230,1050.9,2188,1094.4,2188.5,1147.9z M149,813.9c-0.3,14,1.4,32.3,3,50.6c1.1,13.3,5.5,17.6,18.8,15.8
			c41.8-5.6,83.6-10.8,125.5-15.2c11.5-1.2,14.3-6.3,14.7-16.7c1.1-27.3,5.7-54.3,15.1-79.9c4.1-11.1,1-15.3-8.7-20
			c-44.6-21.8-89.2-43.7-133.1-66.9c-13.1-6.9-15.6-1.4-18.5,9.1C154.8,729.5,148.5,769,149,813.9z M708.7,2364.4
			c-1.6-3.4-1.9-4.9-2.8-5.8c-59.9-56.2-113.1-118.1-158.2-186.8c-0.7-1.1-1.4-2.3-2.2-3.4c-7.9-10.6-21.4-12.5-31.3-11.3
			c-9.8,1.2-4.4,14.8-4.4,22.6c-0.4,66.8,0.2,133.6-0.6,200.4c-0.2,15.8,5.4,18,19,15.5c32.1-6,64.4-10.9,96.5-16.4
			C652.6,2374.4,680.3,2369.4,708.7,2364.4z M859.7,509.6c-52.9-44.2-111.5-73.1-176.3-90.4c-10.6-2.8-11.7,2.4-12.3,10
			c-3.3,49-6.5,98-10,146.9c-0.7,9.7,3.5,12.6,12.3,14.7c21.9,5.2,43.1,12.9,63.5,22.6c5.5,2.6,10.5,5.9,16.2-0.9
			C784.4,574.6,820.6,541.4,859.7,509.6z M433.2,1901.1c-14-61.1-13-120-22.7-177.5c-3.7-21.7-13.5-41.3-28.9-57.7
			c-5-5.3-8.8-9.9-15.4-0.6c-33.6,47.7-67.8,95.1-102.6,143.7C319.7,1839.5,374.6,1869.3,433.2,1901.1z M1122.4,379.5
			c-124.3-16.4-247.2-15.4-372.6,6.1c4.9,3.3,7,5.2,9.4,6.1c49.3,19.3,93.9,46.5,134.1,80.8c8.5,7.3,13.9,3.9,21.3-0.8
			c46.1-29.3,94.7-53.8,146.4-71.8C1081.3,392.7,1101.9,386.2,1122.4,379.5z M281.9,509.6c-4.8,3.9-9.2,7-13,10.7
			c-28.5,27.7-52.1,59.2-71.9,93.8c-7.1,12.4-3.7,16.8,7.7,22.2c35,16.8,69.5,34.6,104.3,51.9c13.4,6.7,27.2,18.8,40.3,18.2
			c15.2-0.8,18.5-23,30.5-32.7c8.1-6.5,7.2-12.6,1.5-20.8c-30.8-44.1-61-88.7-91.5-133C287.5,516.6,284.9,513.5,281.9,509.6z
			 M620.3,435.6c0.9-29.9,0.9-30-33.4-30.7c-26.6-0.5-53,0.6-79.5,3.4c-14,1.5-17,6.2-14,19.2c11.2,49,22,98.1,32.1,147.3
			c1.9,9.2,4,13,14.2,11.2c19.4-3.4,39.1-6.1,58.9-4.9c10.6,0.7,12.2-5.4,12.7-13.8C614.1,524.6,617.1,481.8,620.3,435.6z
			 M723.6,2593.7c57.9-37.8,112.8-73.6,170.3-111.3c-35.6-17-68.1-31.7-95.8-53.5c-22.8-17.9-45.2-23.6-73.5-16.7
			c-15.3,3.7-19.9,9-18.2,24C712.5,2487.6,717.7,2539.1,723.6,2593.7z M478.4,597.1c-0.3-1.3-0.7-2.6-1-4
			c-11.3-53.2-22.6-106.5-33.7-159.7c-2.5-11.8-9.7-9-17-6.5c-31.7,10.7-61.8,24.8-91,41.4c-12.6,7.1-11.8,13-4.3,23.5
			c23.3,32.8,45.7,66.1,68.4,99.3c27.1,39.8,27.1,39.8,69.1,17.1c1.8-1,3.6-1.9,5.5-2.8C478,603.8,479,600.9,478.4,597.1z
			 M805.2,1997.3c52.7-10.2,91,12.2,121.6,50.7c8.8,11.1,13.8,9.2,21.7,0.6c24.3-26.7,36-57.4,22.1-91.8
			c-15.4-38.1-45.1-60.9-86.6-65.3c-31.8-3.4-57.4,16.2-62.8,48.1C817.8,1958.9,813.5,1977.9,805.2,1997.3z M1420.5,1458.2
			c0,0.1,0,0.2,0,0.2c-9.5-0.6-19.1-1.1-28.6-1.9c-6.1-0.5-11,0.2-10.8,8.1c0.6,26.3-8.4,50.8-14.1,76
			c-7.7,33.8,17.8,64.3,47.8,60.2c12.7-1.8,25.3-5.1,37.9-7.7c15-3.1,26.1-11.3,33.1-24.9c14.7-28.3,21.6-58.6,23.5-90.3
			c0.8-12.1-4.5-15.2-15.4-15.5C1469.5,1461.5,1445,1459.7,1420.5,1458.2z M222.2,1844.1c11.6,68.3,22.5,131.9,33,195.4
			c2.3,13.7,7.7,9.5,14.3,3.5c28.8-26,57.9-51.6,86.5-77.8c10.7-9.8,23.5-17.5,32.2-31C333.6,1904.5,280.1,1875.5,222.2,1844.1z
			 M978.7,2679.1c15.7-3.1,30.4-6.1,45.1-8.9c7.3-1.4,9.9-5.6,10-12.9c0.4-40.7,9.9-79.5,24.9-117.1c2-5.1,4.7-10.7-4.3-12.1
			c-32.4-4.9-63.9-13.4-95.6-21.4c-11.5-2.9-20.6,2.3-18,16.6c8.7,48.2,17.8,96.2,26.6,144.4
			C968.6,2674.9,969.9,2681.6,978.7,2679.1z M381.9,1049.8c0.6-12.4-22.6-35.1-32.9-30c-35.3,17.5-70.2,35.7-105.3,53.4
			c-6.4,3.2-7.2,6.5-2.8,12.3c24.7,32.8,53.1,62,86,86.5c11.7,8.8,37.1-0.6,39.2-14C371.7,1122.5,376.5,1086.8,381.9,1049.8z
			 M305.4,914.5c0,0.1,0,0.2,0,0.2c-41.2,4.9-82.4,9.8-123.6,14.7c-2,0.2-4.1,0.3-6.1,0.4c-8.6,0.4-9.5,4.2-7.2,12.1
			c8.5,28.8,20.1,56.3,33.8,82.9c4.2,8.2,8.8,8.1,16.3,4.3c33.8-17.4,67.9-34.3,101.8-51.4c5.6-2.8,12.5-6,7.9-13.5
			c-9.6-15.7-3.3-37.8-21-49.9C307,914.1,306.1,914.4,305.4,914.5z M904.2,2136.5c-0.2-3.6-0.3-10.4-1.1-17.2
			c-6.5-55.2-53.9-83.6-104.9-63c-12,4.8-24.1,9.4-35.9,14.6c-19.4,8.5-19.6,10.5-3.8,23.7c33.2,27.7,70.7,48.5,108.7,68.3
			C901.3,2180.4,903.4,2178.9,904.2,2136.5z M769.4,1936.8c-0.1-35.5-16.9-50-51.8-44.7c-19.1,2.9-36.4,11.1-54.1,18.2
			c-10.2,4.1-12.7,10.5-9.4,20.9c8.8,28.1,18.7,55.7,34.1,80.8c26.8,43.6,19,35.9,46.3,1.7c3-3.7,5.7-7.7,8.3-11.7
			C755.6,1981.9,769.2,1962.1,769.4,1936.8z M213,1785.5c1.7,0.2,3.3,0.3,5,0.5c35.7-50,71.3-99.9,108.3-151.8
			c-44.4-11.7-85.7-9.4-127.2-4.4c-6.7,0.8-7.3,4.7-6.5,10.1C199.5,1688.4,206.3,1737,213,1785.5z M445.7,1953.3
			c-38.7,34.6-75.9,67.7-116.1,103.6c60.6,15.3,117.3,29.7,177,44.8C482,2052.7,461.3,2005.6,445.7,1953.3z M640.6,1773.2
			c0.1,0,0.2,0,0.3,0c0,22.4-0.2,44.9,0.1,67.3c0.1,5.4-0.7,15.7,9.2,8c27.2-21.3,56.4-41.2,72.5-73.2c12.4-24.7,5.8-50.3-5.6-72.5
			c-7.8-15.2-27.2-4.5-41.3-6.9c-4.6-0.8-9.6,0.5-14.2-0.2c-16.4-2.5-23.1,2.6-21.3,20.6C642,1735,640.6,1754.2,640.6,1773.2z
			 M1644,149.8c15.6,51.2,22.4,100.2,31.6,149.2c22.6-48.4,57-86.4,98.3-122.6C1729.3,167.3,1688.8,159,1644,149.8z M1210.9,1445
			c11.4,32,20.3,61.5,46.2,81.2c26.8,20.4,51.5,13.1,65.5-17.5c6.5-14.2,7.7-28.8,7.5-43.8c-0.1-6.5-0.7-12.5-9.2-13
			C1285.1,1449.7,1249.3,1447.4,1210.9,1445z M484.5,1119.2c-3.7-10.6,10-31.1-15.4-32.8c-13.9-0.9-29.3-17-39-7
			c-8,8.3-5,27.1-6.9,41.3c-5,36.6-5,36.6,32.5,31.7C484.5,1148.5,484.5,1148.5,484.5,1119.2z M583.1,1125.3c0-11.6-0.2-19,0-26.5
			c0.2-6.5-2-9.2-9.2-9.8c-32.2-2.5-39.7,4.1-39.7,35.8c0,4.7-0.1,9.5,0.1,14.2c0.1,3.2-0.4,7.7,4,8.2c14.7,1.7,30.6,6.1,43.9,0.4
			C590.8,1143.8,581.8,1130.2,583.1,1125.3z M2755.1,644.1c-12.7-34.6-38.1-58.3-67.8-78.3C2710.5,591.3,2731.9,618.4,2755.1,644.1z
			 M1602,576.3c11.8-21.4,21.6-43.4,21.7-70C1611.5,524.8,1603.7,548.9,1602,576.3z"/>
		<path class="st1" d="M1694.5,2356.7c-29,0.4-52.4-22-52.9-50.7c-0.5-27.8,23.3-52.4,51.3-53c27.9-0.6,52.2,23.1,52.8,51.3
			C1746.2,2332.8,1723.3,2356.3,1694.5,2356.7z"/>
		<path class="st1" d="M1506.8,2790.4c-0.2,28.9-23.4,52-51.8,51.8c-27.9-0.3-52.1-24.7-51.8-52.4c0.3-28.2,24.2-51.8,52.4-51.6
			C1484.1,2738.3,1507,2761.5,1506.8,2790.4z"/>
		<path class="st1" d="M1652.5,2842.2c-28.2-0.1-52-24-52-52.1c0-28.2,23.9-52,52.1-51.9c28.4,0,52,23.7,51.9,52
			C1704.5,2818.4,1680.6,2842.3,1652.5,2842.2z"/>
		<path class="st1" d="M1822.9,2355.7c-30.1,0-51.8-21.5-51.4-51.1c0.3-28,22.9-50.9,50.7-51.4c28.5-0.6,52.2,22.8,52.4,51.7
			C1874.8,2334.5,1853.2,2355.8,1822.9,2355.7z"/>
		<path class="st1" d="M1972.5,2355.6c0.3,27.8-24.4,53-52,52.9c-28.6-0.1-51.7-23.7-51.5-52.8c0.2-28.3,22.2-50.7,50.5-51.2
			C1948.3,2304,1972.2,2327.1,1972.5,2355.6z"/>
		<path class="st1" d="M1972.5,2495c-0.6,28.6-24.6,51.3-53.4,50.6c-29.1-0.8-50.9-24.2-50-53.6c0.9-28,24.2-50.6,51.9-50.3
			C1948.6,2442,1973,2467.3,1972.5,2495z"/>
		<path class="st1" d="M1224,2637.2c0.2,28.9-22.4,51.9-51.3,52c-28.6,0.1-52.1-22.9-52.3-51.3c-0.3-27.4,24.4-52.5,51.8-52.7
			C1200.4,2585,1223.8,2608.4,1224,2637.2z"/>
		<path class="st1" d="M1291.1,2710.2c28.8-0.5,52.3,22.2,52.9,50.8c0.5,28.2-22.7,52.3-51,52.9c-28,0.6-52.3-22.9-53-51.1
			C1239.3,2734.4,1262.4,2710.7,1291.1,2710.2z"/>
		<path class="st1" d="M1919.6,2691.8c-28.7-0.1-50.3-21.6-50.6-50.3c-0.3-29.2,22.4-52.4,51.3-52.4c28.6-0.1,52.3,23.7,52.1,52.1
			C1972.2,2670.2,1949.6,2691.9,1919.6,2691.8z"/>
		<path class="st1" d="M1822.6,2790c-29.8-0.1-51.6-22.2-51.2-51.7c0.4-28.2,22.8-50.5,51-50.8c29-0.3,52.1,22.5,52.2,51.7
			C1874.6,2768.6,1852.7,2790.1,1822.6,2790z"/>
		<path class="st1" d="M598,798.8c-0.4,48.5-40.7,88.4-89,88.2c-48.3-0.2-88.5-40.3-88.7-88.6c-0.2-48.9,41.5-90.1,90.1-89.2
			C558.9,710.1,598.4,750.5,598,798.8z"/>
	</g>
</g>
</svg>
