<?xml version="1.0" encoding="utf-8"?>
<!-- Generator: Adobe Illustrator 23.0.0, SVG Export Plug-In . SVG Version: 6.00 Build 0)  -->
<svg version="1.0" xmlns="http://www.w3.org/2000/svg" xmlns:xlink="http://www.w3.org/1999/xlink" x="0px" y="0px"
	 viewBox="0 0 3000 3000" style="enable-background:new 0 0 3000 3000;" xml:space="preserve">
<style type="text/css">
	.st0{stroke:#000000;stroke-width:10;stroke-miterlimit:10;}
</style>
<g id="Layer_1">
</g>
<g id="Layer_2">
	<g>
		<path class="st0" d="M2468.4,1478.5c-4.7,139-5.6,278.1-14.9,417c-8.6,128.5-65,232.8-152.2,323.3c-17.6,18.3-36.4,35.8-56.3,51.6
			c-11.1,8.9-9.7,14.1-2.2,24.1c44,58.5,76.3,123.1,88.7,195.6c25.5,149-26.8,266.2-150.5,351.6c-68.5,47.3-146.6,71.7-226.9,89.5
			c-88.8,19.7-177.8,28.6-267.6,5.9c-63.4-16-114.7-49.8-149.7-105.4c-9.6-15.2-13.3-13.2-23.4-1c-66.3,79.4-167.2,106.4-260.5,70.7
			c-25.5-9.8-48.6-23.4-65.4-45.2c-8.1-10.5-13.5-9.4-23.1-2.5c-46.2,33.3-95.9,58.8-153,68.5c-47.7,8.1-87.2-5.9-118.6-41.7
			c-8.2-9.4-14.6-11.1-26.2-7c-45.4,16.2-92.4,22.7-139.6,11.7c-84.1-19.6-127.7-80.7-148.5-158.7
			c-31.6-117.9-20.4-233.4,32.5-343.8c29-60.6,72.1-110.2,124.3-152.1c6.3-5.1,16.4-8.3,4.7-19.7c-88.9-87-128.3-196.6-143.8-317
			c-17.7-137.1-6.7-273.4,10.9-409.6c21.4-165.6,46.5-330.7,76.3-495c27.1-149.4,68.1-294.7,140.1-429.8
			c99.5-186.6,250.1-317,440.2-404.6c112.5-51.9,230.3-86.3,352.5-105.3c83.8-13.1,168.3-13,252.6-7.7c101,6.4,202,12.4,302.6,23.3
			c41.1,4.5,81.7,11.8,121.7,22c98.9,25.2,163,88,196.2,183.3c31.8,91.1,38.6,185.5,34.9,281.1c-6.4,163.4-40.2,321.9-87.7,477.8
			c-4.5,14.8-4.1,26.6,3.9,40.6c27.1,47.3,27.1,100.4,27.8,152.7C2469.2,1307.7,2468.4,1393.1,2468.4,1478.5z M1592,1043
			c24.9,15.6,49.5,31.4,69,52.7c20,22,41.5,32.8,71.9,26.4c13.6-2.8,29.1-0.7,43,2.5c13.4,3.1,18.7,0,24.9-12.3
			c110.4-221.2,385.8-278.6,575.4-119.8c14.8,12.4,17.1,7.6,21.3-7.1c32.2-113.3,57.8-228.1,69.9-345.4c9.9-96.2,11.7-192.4-7.2-288
			c-23.7-119.3-83.7-203-211.9-224.2c-145-24-291.5-30.2-437.8-38.2c-11.3-0.6-15.5,5.8-20.6,13.5
			c-76.5,117.5-111.9,245.2-100.3,386c6.2,76.1,15.8,152,15.8,228.6C1705,839,1681.3,951.9,1592,1043z M1904.9,1194
			c4.1-8.1,7.1-14.3,10.2-20.4c22.5-43.7,52.5-80.7,95.5-105.8c64.5-37.6,127.5-29.1,176.7,26.7c53.3,60.4,77.3,134.3,86.5,212.7
			c9.5,80.8-8.4,158.8-31.1,235.8c-29.6,100.2-86.8,185-150.2,266.1c-33.6,43-70,83.1-117.1,112.3c-73.7,45.6-144.3,38.6-206.8-21.3
			c-15.5-14.9-29.2-31.4-39.5-50.1c-6.4-11.6-13-15.5-26.1-10.9c-20.2,7.2-41.8,7.7-63,9.8c-12.9,1.3-30.9-8.8-36.8,0.8
			c-5.7,9.2,0.8,26.2,2.6,39.8c17.8,139,7.5,276-30.3,410.8c-5.5,19.7,0.1,21,17,20.7c155.8-2.6,310.2-20,465-35.7
			c98.3-10,170.1-53.5,230.5-126.2c58.7-70.7,103-147.2,112.1-241.1c6.1-63.1,10.4-126.2,11.2-189.5c2.4-187.9,12.6-375.8,3.6-563.8
			c-1.8-38.4-14.5-72.4-39.6-101.9c-128.1-150.8-407.8-165.6-531.5,74.7c-4,7.7-0.9,9.5,4.2,12.3
			C1868.6,1161,1886.5,1176,1904.9,1194z M648.4,1556.6c1.7,0.3,3.3,0.7,5,1c3.4-7.3,6.7-14.6,10.1-21.9
			c25-52.9,57.1-100.4,105.1-135.6c62.1-45.5,132.8-61.1,208.3-58.7c15.4,0.5,19.3-1.8,17.6-18.7c-5.4-54.9-3.9-109.9,4.7-164.7
			c13.5-86.4,46.8-166.2,81.5-245.4c42.8-97.8,74.5-197.9,75.7-306.1c0.8-71.9-6.3-142.9-16.7-213.8c-4.7-32.2-10.1-64.3-15.2-96.5
			c-4.3,0.8-5.8,0.7-6.9,1.4c-2.9,1.8-5.6,4-8.4,6C973.8,402.3,881,533.1,819.4,687.2c-59.8,149.7-87.7,307.1-112.4,465.4
			c-13.4,85.6-26.8,171.2-38.6,257C661.6,1458.6,655.1,1507.6,648.4,1556.6z M1264.5,2314.8c82.5,2,161.6,3.8,240.7,6
			c9.7,0.3,13.4-4.3,15.6-12.5c5.2-20,10.9-39.8,15.8-59.8c32.2-133.7,35.1-268.3,11.6-403.6c-1.6-9.2-3.8-16-13.4-20.9
			c-62.8-32.3-103-84.6-124.1-150.6c-45.9-143.8-14.8-275.9,67-398.3c39.3-58.8,92.2-103.4,158.5-133.1
			c-18.5-19.2-38.5-33.5-58.4-48.2c-13.9-10.2-22.6-8.6-34.8,3.4c-180.9,178.7-242.1,392.6-189.4,640.2c6,28,6.2,27-22.2,36.5
			c-14.9,5-20.8,1.7-24.4-13.4c-50.3-210.8-18.7-407,104-587c28.3-41.6,61.8-78.9,100-115.2c-20.8-6.4-39.3-11-57-17.8
			c-38.3-14.7-64-5.6-90.5,28.7c-111.9,145-170.4,307.6-166.4,490.3c1.5,67.5,3.1,134.8,0.5,202.1c-0.6,15,4.2,21.3,17.5,27.3
			c59.2,26.3,95.9,72.2,111.8,134.8c6.8,26.8,8.6,54.3,9.1,81.9C1337.9,2112.7,1316.3,2214.6,1264.5,2314.8z M1537.8,2597.4
			c-0.1,37.5,3,77.2,9.2,116.7c12.5,80.6,53,139.3,131.5,167.7c32.5,11.8,66.7,17.8,101.2,17.8c123.1,0.2,240.5-25.4,348.5-85.3
			c99-55,157.7-137.7,159.1-254.6c1.1-90-36.3-166.5-86.1-238.4c-6.4-9.2-14.3-9.2-23.4-7.4c-20.2,3.8-40.3,8.8-60.7,11
			c-15.3,1.6-17.6,6.2-13.3,20.8c19.7,66.9,26.3,135,13.2,204.1c-10.5,55.3-26.9,108.8-63.6,152.7c-55.4,66.4-129.3,87.1-212.8,81.9
			c-168.3-10.6-273-176-210.1-332.1c1.5-3.8,1.4-11.6,8.1-9.3c13,4.3,27.4,7.9,37.6,16.2c7.8,6.2-1.6,17.5-4.1,26.2
			c-24.5,86.7,1.9,166.9,70.6,213.5c28.5,19.3,60.4,29.3,94.1,34.4c83.7,12.7,161.4-23.5,198.1-95.5c48-94.1,47.4-191.8,16.7-290.9
			c-2.7-8.7-7.2-10.5-15.1-9.4c-19.1,2.7-38.2,5-57.3,7.7c-46.2,6.4-45.7,6.3-38.9,52.8c3.1,21.1,10.9,36.6,31,47.4
			c28.8,15.4,40.3,41.7,38.7,74.3c-0.9,18.7-5.1,36.8-8.7,55c-8.4,42.8-34.8,69.2-76.4,80.6c-26.6,7.3-54,10.7-81.6,11.6
			c-63.7,2.1-107.7-24.4-127-75.4c-24-63.4-11.6-119.2,36.3-158.8c10.5-8.7,22.7-15.5,34.7-22.2c18.7-10.4,12.3-28.6,10.9-42.5
			c-1-9.8-15.2-3.8-23.3-3.4c-59.8,3.4-119.7,6.4-179.6,6.2c-12.6,0-18.1,4.2-22.1,15.7C1549.8,2454,1535.5,2523,1537.8,2597.4z
			 M1935.2,1435.1c-1.5-65.1-10.6-116.7-37.2-164.2c-29.3-52.1-72-87.2-131.6-96.6c-65.9-10.5-124.6,11.4-174.2,53.1
			c-116.4,97.7-164.3,224.3-147.2,374.4c7,61.7,32.2,116.7,81.8,157.2c62.2,50.8,150.2,53.4,227.4,3.5
			C1876.4,1683.4,1926.2,1564.2,1935.2,1435.1z M1737.5,89.9c-89.3-0.4-171.9,18.3-254.1,39.6c-6.6,1.7-10.7,4.2-10.6,12.3
			c0.8,53.4-18.3,102.4-34.8,151.8c-17.6,52.9-23.6,106.9-21,162.6c4,85.5,25,168.6,32.1,253.6c7.4,88.7,5.8,176.2-36.6,257.8
			c-6,11.5-2.3,13.5,8.6,15c28,3.8,55.4,10.5,82,20c46,16.3,46.9,16.3,77.5-22.8c4.2-5.4,8.2-11.1,11.9-16.8
			c42.7-64.7,58.4-137.3,61.5-213.3c3.3-82.8-8.1-164.9-14.8-247.2c-11.2-138.5,13.9-268.5,85-388.7
			C1728.4,106.8,1732.1,99.7,1737.5,89.9z M1149.4,1687c-1-29.2,4.7-70-3.4-110.3c-7.9-39.7-21.8-54.1-60.3-59.5
			c-36.1-5.1-72.6-7.3-109.1-5.4c-63.1,3.4-105.9,34.5-127,94.3c-16,45.4-28.7,91.7-25.7,140.4c1,16.5-4.8,22.7-20.6,21.2
			c-4.1-0.4-8.4-0.4-12.4,0.4c-15.5,3.3-18.3-4.4-18.3-17.9c-0.1-60,11.5-117.5,34.3-172.9c26.6-64.3,73.3-103.1,143.1-112.9
			c19.2-2.7,38.3-3.4,57.6-3.8c4.5-0.1,11.9,1.9,11.9-4.6c0-19.2-1-38.4-3-57.5c-0.7-6.5-8.8-5.7-13.9-5.9c-19.9-0.7-40-2-59.8-0.7
			c-86.7,5.8-159.3,39.5-205.3,115.6c-68.9,114-96.4,238-73.7,370.2c17.4,101.2,76.9,157.8,175.3,173.8c44,7.2,87.8,2.6,131.6-3.1
			c79.9-10.3,130.1-52.7,152.1-131.9C1142.7,1844.8,1147.4,1771.9,1149.4,1687z M2226,1337.1c-2.3-65.6-22.6-138.3-69.8-201.4
			c-34.4-46-79.1-52.1-126.6-19.8c-39.5,26.8-64.7,64.8-82,108.7c-4.9,12.5-4.7,23,1.5,35.2c23.8,46.8,35.9,97,35.5,149.2
			c-1.2,168.1-64.2,304.7-207.5,399.1c-6.9,4.5-10.3,7.2-5.1,15.6c48.9,77.8,115.5,104.6,194.3,42.4
			c38.7-30.6,70.2-67.6,100.6-106.1C2162.3,1639.6,2220.2,1504.9,2226,1337.1z M1422.4,147.1c-85.6,28.9-166.6,62.6-242.2,108.6
			c-8.8,5.3-10.1,11.4-8.3,20.5c19,98.6,32.8,198,34.9,298.5c1.5,73.2-6.3,145.4-26.9,216.1c-23.4,80-59.9,154.9-90,232.3
			c-24.2,62.3-42.7,126.1-46.5,199.7c5.7-13.6,9-21.7,12.6-29.7c3.6-8.2,7.1-16.4,11.2-24.4c55.9-110.8,139.9-182.5,268.6-190.4
			c10.8-0.7,15.6-6.9,20.6-14.6c23.4-35.9,35.6-75.6,41.5-117.6c11.6-81.7-1.8-161.8-14.3-242.1c-10.5-67.3-20.4-134.5-17.6-203.1
			c2.3-57.2,20.1-110.5,37.2-164.3C1412.2,208.1,1421.9,179.6,1422.4,147.1z M1523.7,2372.1c-80.3-2.1-159.3-4.1-238.2-6.4
			c-11.3-0.3-13,8.4-16.5,15.5c-26.8,54.4-48.8,110.7-63.3,169.6c-17.1,69.3-27,139.1-10.4,210.2c13.1,55.8,46.5,90.6,103.6,101.4
			c77,14.5,147.5-16.8,189.8-83.2c9.7-15.2,13.1-29.1,10.1-48c-13.3-83.9-18-168.1-2.8-252.5
			C1502.5,2442.7,1514.1,2408.2,1523.7,2372.1z M1221.3,2362.7c-96.5-4.9-189.8-12.5-280.4-37.9c-9.1-2.5-10.8,2.3-12.5,8.6
			c-32.5,120.2-54,241.8-45.6,367c2.8,42,10.9,83.2,30.5,121.3c23.6,45.8,53.6,59.5,103.5,48c48-11.1,89-35.6,128.4-63.9
			c6.6-4.8,8-9.1,5.6-17.1c-21-71.2-16.2-142.8-2.1-214.5C1162.9,2501.3,1188.6,2432.7,1221.3,2362.7z M612.3,2613.4
			c-1,13.7,1.2,37.7,5.6,61.4c3.3,17.5,7.5,35,13.4,51.8c37,106.6,112.6,131,212.9,101.2c9.5-2.8,13.2-5.9,9.3-17.2
			c-20.6-60.1-24.3-122.4-22.9-185.3c2.2-102.4,21.1-202.2,48.1-300.6c4.3-15.7,0.9-22-13.3-27.5c-21.2-8.2-41.6-18.9-59.3-33
			c-14.1-11.1-23.1-7.2-35.3,2.5C661.9,2352.5,613.1,2466.2,612.3,2613.4z M1192.4,1834.1c-9.4,49.7-17.8,97.8-38.6,142.6
			c-27.1,58.6-70.2,97.4-134,111.7c-12,2.7-24.1,4.6-36,7.5c-7.3,1.8-12.9,3.2-8.6,14.8c18.6,50.9,18.6,102.6,0,153.5
			c-4.9,13.4-2.3,17.4,11.2,20.3c68.8,14.8,138.5,22.2,208.7,25.9c12.2,0.6,16.7-5.1,21.6-14.3c57.8-106.2,77.6-219.9,64.7-339.2
			C1275.5,1901.5,1247.6,1858.9,1192.4,1834.1z M1331.4,1029.4c-75.1,6.2-132.1,38.4-175.7,94c-72.7,92.6-93.7,199.7-86.2,314.6
			c1.2,18.8,4.7,30.9,27.3,30.2c12-0.4,24.7,3.2,35.5,9.6c13.4,7.9,16.6,3.8,17.9-10.7c13.7-150.3,67.3-285.3,157.2-406.1
			C1314.6,1051.2,1322.1,1041.6,1331.4,1029.4z M1849.6,2615.8c8.9-1.1,25.3-2.6,41.6-5.1c45.3-7.1,57-19,64.1-64.2
			c1.1-6.8,1.1-13.8,2.7-20.4c4.6-18.5-0.3-31.1-18.2-40.7c-26.2-13.9-42.7-36.1-46.4-66.6c-1.8-14.3-6.5-28.5-6.3-42.7
			c0.3-18.4-6.8-20.9-23.2-18.4c-20.4,3.1-13.8,19.2-13.9,28.7c-0.7,34.8-15.5,57.7-46.9,73.2c-40.5,20-55.4,55.5-44.6,97.8
			C1769.6,2601.1,1791.1,2616.1,1849.6,2615.8z M684,2033.7c43.7,106.7,115.5,184.6,223.4,227.1c12.4,4.9,15.7-0.4,19.1-10
			c15.7-43.9,15.1-87.4-1.7-131c-4.1-10.5-9.4-14.5-21.2-14.2C822.2,2107.3,746.2,2091.8,684,2033.7z"/>
		<path class="st0" d="M2033.4,557.1c-57.1,0.5-101.9-42.5-102.3-98.6c-0.5-56.4,43.6-101.4,99.8-101.8
			c55.9-0.4,101.4,44.4,101.7,100.2C2132.7,511.9,2088.6,556.6,2033.4,557.1z M2032.1,408c-28.2-0.1-50.5,21.1-50.9,48.6
			c-0.4,27,22.4,50.2,49.6,50.6c27.6,0.4,50-21.6,50.3-49.3C2081.5,429.4,2060.5,408.2,2032.1,408z"/>
		<path class="st0" d="M1022.5,691.9c0.3,33.4-24.7,59.3-57.8,59.8c-33.9,0.5-60.9-26-60.7-59.4c0.2-32.7,26.6-58.9,59.2-59.1
			C995.8,633,1022.2,659.2,1022.5,691.9z"/>
		<path class="st0" d="M874.4,1061.2c-33.5,0.2-59.1-24.7-59.4-57.9c-0.3-32.9,25.3-59.4,58-60.1c33.3-0.7,61.2,26.6,61,59.7
			C933.7,1035.7,907.9,1061,874.4,1061.2z"/>
		<path class="st0" d="M814.9,1346.7c-33.2-0.3-58.4-25.9-58.2-59.3c0.1-32.8,26.2-59.1,58.8-59.2c33.5-0.1,60.1,27.1,59.5,60.7
			C874.3,1321.8,848,1347.1,814.9,1346.7z"/>
		<path class="st0" d="M1753.4,1293.5c0,7.8,0.7,11.4-0.1,14.7c-5.6,24.3-3.1,43.9,20.7,59.6c16.1,10.7,21.5,31.2,25.3,50.5
			c5.1,26.1,3.3,52.1-0.5,78c-2.7,19-13.4,33.4-29.4,42.8c-32.5,19.1-64.2,40-100.6,51.3c-11.5,3.6-16.8,10.2-18.2,21.7
			c-0.9,7.5-2.8,14.8-4.6,22.2c-8.5,34.9-8.4,34.2-43.1,22.8c-11.6-3.8-14.4-8-10.7-19.9c15-47.8,19.7-96.9,14.1-146.8
			c-7.3-65.3,14.3-101.1,79.6-139.8c9.4-5.6,14.2-9.7,14.5-21c0.5-23.4,3.3-46.7,4.1-70c0.5-13.1,5.1-19,18.6-16.6
			c6.8,1.2,13.7,2.1,20.5,2.1c11.3,0,13.8,5.5,12.4,15.8C1754.3,1273.1,1754,1285.5,1753.4,1293.5z M1751.3,1465.7
			c-0.5-23.8,0.4-41.3-8.8-56.8c-6.2-10.5-14.5-18.8-28.4-15.6c-26.9,6.1-58.5,45.2-58.2,72.8c0.2,20.6,2.3,41.2,2.5,61.8
			c0.1,10.8,4.5,11.6,12.3,7.6c16.4-8.6,32.1-18.8,49-26C1742.6,1499.6,1756.2,1485.6,1751.3,1465.7z"/>
		<path class="st0" d="M687.8,1766.2c-1.1-76.7,11-151.4,39.5-223.6c5.2-13.2,10.6-18.2,23.6-10.6c4.1,2.4,8.6,4.5,13.2,5.7
			c13.6,3.4,16.8,9.2,10.9,23.4c-22.8,54.5-34,111.7-35.9,170.7c-1.1,35.1,0.3,70.3,6.9,104.9c12,63,55.6,103.4,120.6,112.7
			c93.8,13.4,164.4-32.8,192.1-123.2c18.5-60.2,16.9-118.3-13.2-173.8c-28.3-52.2-88.3-55.9-125.4-8.9
			c-17.3,21.9-24.6,47.2-17.1,73.6c5.1,18-1.1,24.1-15.8,30.1c-27,11-28.3,10.7-34.3-18.1c-18.5-88,48.5-170.9,136.9-168.2
			c40,1.2,71.6,20.5,92.4,54.1c44.4,71.8,49.7,148.4,24.3,228c-25.3,79.2-74.5,134.2-157.3,153.8c-96.3,22.9-195.7-18.5-235.7-97.2
			C692.3,1857.9,691.6,1812,687.8,1766.2z"/>
	</g>
</g>
</svg>
