<?xml version="1.0" encoding="utf-8"?>
<!-- Generator: Adobe Illustrator 23.0.0, SVG Export Plug-In . SVG Version: 6.00 Build 0)  -->
<svg version="1.0" xmlns="http://www.w3.org/2000/svg" xmlns:xlink="http://www.w3.org/1999/xlink" x="0px" y="0px"
	 viewBox="0 0 3000 3000" style="enable-background:new 0 0 3000 3000;" xml:space="preserve">
<style type="text/css">
	.st0{stroke:#000000;stroke-width:10;stroke-miterlimit:10;}
</style>
<g id="Layer_1">
</g>
<g id="Layer_2">
	<g>
		<path class="st0" d="M460.6,1329.6c-48.1-19.9-90.1-44.4-128.5-74.6c-112.7-88.8-181.5-204-191.2-347.4
			c-19.1-280.2,91.3-501.8,314.6-669.5c108-81.1,230.2-125,363.3-138.6c175.7-17.9,352-28.4,528.7-17.2
			c151.1,9.5,298,37.2,435.3,105c33.7,16.6,65.3,36.6,95.2,59.1c10.9,8.2,18.2,7.4,29.2,0.6c118-72.5,243.1-128.7,379-158
			c89.3-19.2,179.2-24.6,268.5-0.4c132.8,36,218,124.1,268.2,249.5c32.8,82,49.1,168.1,58,255.1c15.1,147.4,27.1,295.3,26.1,443.6
			c-0.6,96-11.6,191.5-22.4,286.9c-13,115.6-28.2,230.9-45.2,346c-16.3,110.8-33.1,221.5-50.8,332.1
			c-23.6,147.5-48.4,294.8-84.8,439.9c-5.7,22.5-13.5,44.5-19.4,67c-31.8,120.6-112.9,193.9-226.5,235.3
			c-83.4,30.4-170,39.5-258.3,35.4c-128.7-6-252.5-35.5-373.6-77.7c-16.6-5.8-26.3-2.8-38.6,9c-196.2,189.2-432.3,272.7-702.9,262.9
			c-159.9-5.8-317.7-26.2-470.1-77.6c-119.1-40.1-228.5-97.7-318.1-187.5c-100.5-100.6-156.7-222-169.7-364.4
			c-11.1-122.2-3.5-244.1,0.4-366.1c2.7-84.5,15.7-167.3,40.9-247.7c48.9-156.2,138.9-284.3,269.8-383.1
			C444.3,1342.2,451,1337,460.6,1329.6z M964.5,2912.6c9.8,1.7,15.9,3.2,22.2,3.7c93.1,7.7,186,9,278.9-3.6
			c112.6-15.3,218.1-51.1,315.6-108.6c92.4-54.5,173-124.1,242.2-206.1c104.4-123.7,178.9-261.5,195.4-425.9
			c16.1-160.3,28.8-320.6,19.7-481.9c-6-105.8-34.9-204.7-84.3-298.9c-71.4-136.1-230.2-150.6-353.1-95.2
			c29.3,34.9,54.5,72.1,72.7,113.8c60.3,138.5,62.8,281.8,37.4,427.9c-3.7,21.5-11.1,21.5-29.5,18.1c-22.4-4.1-25.8-12.2-21.4-33.6
			c19.1-93.7,20.7-188.2,0.8-281.8c-37.5-176.8-138.6-295.7-319.1-335.9c-108.9-24.3-219.5-23.8-330.3-12.8
			c-128,12.8-251.6,42.4-369.1,95C380.3,1404.1,223,1602.5,187.1,1890c-17,136-17.6,273.3-12,410.3c2.1,51.4,9,102.5,24.1,152.2
			c3.8,12.4,8.9,16.7,22.2,14.8c139.5-19.8,278.8-16.6,417.7,5.4c50.7,8,102.1,13.9,149,37.4c43,21.5,71,55.1,81.2,102.4
			c13.4,62.4-3.2,120.1-28.8,176.3c-15.5,34.1-36.1,65.1-57.4,97.1c5.5,1.9,9.3,3.7,13.4,4.4c28.5,4.8,57.1,8.8,85.5,14.2
			c15.4,2.9,24.5-3.3,33.9-14.7c120.9-145.1,165.5-311.4,139.1-497.7c-4.1-28.9-4-28,26.6-36c14.1-3.7,19.3-2.5,22.2,13.4
			c20.2,110.5,12.9,219.1-20.7,326.1C1058.3,2774.5,1018.1,2845.2,964.5,2912.6z M1140,698c-81.9,0.3-163.7,2.3-245.4,7.8
			c-232.7,15.6-462.1,52.1-688.2,109.3c-13.5,3.4-18.4,9.2-18.4,22.8c0,48.3,4.4,96.1,17.9,142.3
			c45.4,155.4,150.4,254.2,298.8,311.2c9.9,3.8,16.1-0.5,23.3-4.8c49.9-29.6,102.6-53.2,156.9-73.4
			c182.9-67.9,372.1-89.8,565.9-75.3c97,7.3,190.7,28.3,269.7,88.2c28.6,21.7,51.9,29.1,84.1,11.8c23.9-12.8,53-12,77.1-27.2
			c147.3-92.6,251.6-218,300.2-387c8.1-28,8.5-27.7-19.2-34C1691.9,729,1417.6,698.3,1140,698z M1845.5,2652.3c4,2.2,6.3,4,8.9,4.8
			c121.9,39.7,245.6,70,374.7,71c96.5,0.7,190-13.4,275-63.3c44.6-26.2,83.1-58.2,105.2-106.8c21.2-46.4,36.1-94.9,48-144.2
			c48-200.5,78.5-404.3,109.6-607.8c28.7-188.3,55.9-376.9,74.3-566.6c10.4-107.5,18.2-215,12-323.5
			c-5.9-102.2-11.8-204.4-22.6-306.2c-8.9-84.4-24.5-167.4-54.3-247.4c-51-136.9-147.2-217-293.4-234.4
			c-87.1-10.3-171.3,4.7-254.6,29.4c-100,29.7-193.3,74.2-283.2,126.3c-3.8,2.2-12.5,1.4-8.6,10.7c6.6,15.5,24.1,22.6,38.4,15
			c121.9-64.5,249.8-107.5,389.5-106.3c108.1,0.9,206.1,29.6,285,108.3c64.1,63.9,94.1,144.4,113.7,230.2
			c19.7,86.5,22.6,174.8,27.9,262.9c6.5,107.3,5.5,214.7-4,321.7c-16.3,184.5-56.2,365.1-97.1,545.2
			c-27.5,121.2-66.3,239.3-132,346.6c-111.2,181.7-271.9,266.6-485.3,247.4c-15.3-1.4-17.3,6.2-20.2,16.9
			c-21.9,80.1-55.2,155.3-99,225.9C1921.8,2559.1,1885.9,2606.9,1845.5,2652.3z M1715.9,214.3c-6.7-3.2-12.2-6.3-18.1-8.5
			c-123.4-46.3-251.5-67.7-382.8-73.4c-11.4-0.5-18.4,5.2-25.9,11.6c-63.6,54.4-109.4,121-137.8,199.7
			c-13.2,36.5-13.2,35.9,24.1,46.2c137.3,38,234,123.1,291.5,253.2c4.2,9.5,6.4,18.6,20.8,19.8c166.7,14.4,331.6,41.3,494.7,78.7
			c13.8,3.2,18.6-0.1,20.5-13.6c12.4-87.8,10.8-174.5-17.4-259.5c-35.4-106.9-114.7-173.2-208.7-226.1c-12.4-7-16.5,1.3-22,8.1
			c-50,61.8-69.2,133.2-62.6,211.5c1.3,16-2.6,21.9-17.5,22.7c-4.9,0.2-10.1,0.5-14.6,2.2c-14.4,5.3-18.9-1.3-19.8-14.6
			c-4.2-61.4,1.8-121.1,27.2-178C1680.1,265.8,1697.4,240.4,1715.9,214.3z M1223.4,132.4c-8.9-4.7-16.7-2.8-24.2-2.6
			c-111.5,2.8-222.9,6.6-334,16.5c-75.3,6.7-149.5,20-220.9,46c-13.6,5-24.5,12.5-34,23.7C534.6,305.7,491,408.4,484.2,525.8
			c-0.9,15.3-5.4,19.8-19.6,17c-4.8-1-9.9-1.2-14.8-0.8c-14.9,1.2-18.7-5.1-17.8-19.8c3.3-54.7,14.6-107.4,32.9-158.9
			c11.7-33,27.6-64.2,44.5-97.2c-152.7,79-326,356.6-312,498.2c150.6-38.3,302.8-67.3,456.8-86.8c14-1.8,19.9-7.5,24.7-20.4
			c63.2-168.2,212.4-274.7,391.7-279.8c12.8-0.4,18.1-4,21.5-16.6c18.8-71.3,52.8-134.9,99.8-191.7
			C1202,156.8,1212.6,145,1223.4,132.4z M225.3,2519.1c20,43.7,43.6,81.2,72.6,115.1c110.7,129.5,257.9,195,418.1,237.6
			c7.6,2,11.8-0.1,16.1-5.7c42.4-56.4,77.5-116.3,88.7-187.4c10.4-66.3-17-110.8-80.6-131.9c-8-2.7-16.1-5.1-24.4-7
			c-82.1-19-165.5-28.2-249.4-32.6C386.6,2503.1,307,2507.5,225.3,2519.1z M2093.6,1847.8c3.3,0,4.8,0.4,5.9-0.1
			c2.5-1.3,4.8-2.9,7-4.6c119.6-91.3,216.3-201.9,283.4-337.2c60.2-121.6,86.1-251.7,92-386.1c4.9-112.3-4.6-223-51-327.4
			c-70.4-158.7-206.5-203.6-355.5-184.3c-6.8,0.9-12.6,2.4-12.6,11c0,21,0,42.1,0,63.5c29.3-4.6,59.4-4.5,89.6-4
			c31.1,0.5,62,5.2,92.1,12.3c109.1,25.9,182.2,116.8,192.7,235.2c7.5,84.7,3.1,169.2,0.3,253.8c-2.6,78.4-17.1,154.3-45.6,227
			c-55.5,141.8-151.8,249.4-281.4,328.1c-7.2,4.4-17.3,6-17.1,18.7C2094.1,1785,2093.6,1816.5,2093.6,1847.8z M2062.6,1516
			c15.4,57.2,22.2,111.9,28.3,168.5c5.3-2.7,8.5-4,11.3-5.9c133.4-87.6,226.1-205.6,263.1-362.4c31.1-131.8,29.2-265.9,18-400
			c-2-23.4-6.2-46.9-21-70.5c-6.2,67-36.1,114.9-94.7,144.7c35.2,42.6,46.4,91.1,36.5,143.4c-9.9,52.1-40.3,91.4-87.9,118
			c94.1,58.4,95.4,161,59.8,221.7C2242,1531.5,2159.1,1576.4,2062.6,1516z M1411.7,655c1.9-9.9-3.6-16.1-7.3-22.6
			c-75.7-131.9-187.4-203.4-341.8-203c-134.5,0.3-277.3,98.2-326.4,223.2c-6,15.2,0.5,15,11.6,13.9c29.5-2.9,59-6.5,88.6-7.8
			c12.9-0.6,16.7-6,19-17.1c7.1-34.2,22.3-65.3,39.1-95.5c15.9-28.6,43.2-39.3,75.4-33.5c30.9,5.6,52.5,24.6,71.3,48.6
			c19.3-20.3,39.5-36.6,65.3-44.3c60.6-18.1,111.1-1.9,126.2,68.5c3.6,16.5,7.8,32.9,11.8,49.3c1.7,7,3.6,13.2,13.1,13.6
			C1309,650.4,1360.3,652.8,1411.7,655z M2111.8,729.3c-15.6,1.8-25.4,4.2-35.1,3.8c-18.4-0.8-23.8,7.4-26.9,25.2
			c-30.4,174.1-113.1,318.4-249.7,431.2c-8.8,7.3-17.3,14.8-29.3,25c110,12.1,185.6,67.6,235.9,165.7c7.5-58.4,33.4-98.4,78.2-125.9
			c-0.9-1.1-1.3-1.8-1.8-2.1c-121-64.4-110-239.6,5.4-296.5c11.5-5.6,7.2-9.7,2.5-16.9c-29.4-44.7-35.1-92.6-19-143.5
			C2079.4,772.1,2092.4,752.2,2111.8,729.3z M2254.7,1099.8c-2.3-72.9-42.2-103.1-105.2-107.1c-51.3-3.3-100.4,54-100.7,113.2
			c-0.3,60.9,44.1,108.8,100.6,108.6C2208.4,1214.4,2254.5,1164.1,2254.7,1099.8z M2309.7,841.9c-1.7-58.1-34-97.5-96.1-102.3
			c-50.1-3.8-98,49.9-98.6,106.8c-0.6,59.1,39.9,101.3,99.4,103.7C2262.1,952.1,2308.7,899.2,2309.7,841.9z M2059,1392.6
			c0.5,57.8,41.1,100.9,94.7,100.6c51.9-0.3,93.4-46.7,92.4-103.3c-1-55.5-43-100.2-94.2-100.1
			C2099.7,1290,2058.5,1335.6,2059,1392.6z M2422.2,534c-4.5-1.6-9.4,2.7-13.9,8.9c-15.1,21.3-30.3,42.4-45.8,63.4
			c-5.1,6.9-5.3,11.6,2.2,17.2c30.3,22.5,55.4,50,77.1,80.9c10.3,14.7,42.8,18.1,51.6,5.9c33.7-46.9,67-94.2,100.4-141.4
			c4.3-6.1,6.9-10.8-4.3-12.3C2534.9,549.5,2480.5,541.9,2422.2,534z M2543.2,730.3c27.6,5.3,53.3,7.2,76.8,15.4
			c42.9,14.8,74.6,6.7,98.3-33.6c7.3-12.4,14.6-22.3,11.8-38.1c-4.4-24.1-7.5-48.7-8.5-73.2c-0.9-22-10.9-32-31.9-30.6
			c-11.3,0.8-25-10.2-33.7,1.7C2618.3,623.5,2581.8,675.8,2543.2,730.3z M2551.1,379.7c-23.8-1.7-23.7-1.7-37.6,17.7
			c-17.2,24-34.2,48.1-52,71.7c-8.6,11.3-9.9,17.2,7.1,19.2c44.7,5.3,89.7,9.3,133.6,18.4c27.1,5.6,38.5-5.6,54.4-24.4
			c23.9-28,20.7-50.6,1.5-77.8c-9.4-13.3-18.5-21.1-35.3-21.1C2598.9,383.2,2575,381,2551.1,379.7z M2171.7,1978.8
			c8.1,32,16.2,64.1,24.4,96.1c2.6,10.2,8.1,6.6,14.1,3.2c46.1-25.7,92.2-51.3,138.4-76.7c8.2-4.5,11.4-8.2,4.2-17.2
			c-18.5-23.1-36.2-46.8-53.5-70.8c-5.5-7.6-9.5-10-18.5-4.7c-33.3,19.7-67.1,38.6-100.7,57.8
			C2175.3,1969.3,2169.2,1971.2,2171.7,1978.8z M2237.4,2204.3c2.7-0.8,5.4-1.8,8.1-2.4c58.8-13.7,110.6-41.3,157.4-78.8
			c33.5-26.8,33.4-26.9,8.4-60.5c-2.5-3.4-5.5-6.6-7.4-10.3c-7-13.3-14.9-14.8-28.4-6.8c-38.2,22.6-77.2,43.8-116.1,65.1
			c-47.5,26.1-47.6,25.9-34,77.8c0.9,3.4,2,6.7,2.9,10.2C2229.5,2203.6,2232.1,2206,2237.4,2204.3z M2545.5,1891.4
			c1.9-2.8,3.8-5.5,5.7-8.3c-25.7-23-51.8-45.6-77-69.1c-7.3-6.8-12.7-8.7-21.8-3.3c-34.5,20.3-69.3,40.1-104.3,59.6
			c-9.4,5.2-9.4,9.8-3.2,17.7c18.2,23.2,35.9,46.8,53.4,70.5c5.3,7.2,9.7,10.2,18.9,5C2459.6,1939.1,2502.6,1915.4,2545.5,1891.4z
			 M2579.7,953.5c32.6,10.9,61.9,20.6,91.1,30.6c7.4,2.5,12.6,1.2,18.5-4.9c50.3-51.8,54.8-63.2,51.9-135.8
			c-0.1-1.4,0.1-2.9-0.2-4.2c-1.6-7.4,3.1-18.2-9.9-19.8c-13.2-1.6-27-11.6-39.1,2.6C2655.1,865.1,2618.2,908.3,2579.7,953.5z
			 M2665.4,1447.9c-26.9-18.9-51.6-35.1-74.7-53.2c-10.8-8.5-16.1-5.3-24,3.1c-26.6,28.2-53.7,55.8-80.8,83.5
			c-36.6,37.5-36.6,37.3,7.6,67.1c7.1,4.8,11.9,6.9,20.2,1.3C2563,1515.9,2612.9,1483,2665.4,1447.9z M2465.8,374.1
			c-51.7-3-98.7-5.5-145.6-8.4c-7.1-0.4-11.6,1.3-15.5,7.9c-16.2,27.8-33,55.3-50.6,84.7c43.4,6.1,84.3,11.9,125.2,17.5
			c7.2,1,13.5,0.4,18.5-6.6C2419.1,438.8,2440.9,408.8,2465.8,374.1z M2640.2,802.2c-37.2-7.2-71.4-14.1-105.6-20.4
			c-33.6-6.2-46.3,8.8-35.7,41.2c8.1,24.7,14.4,49.9,19.6,75.4c2.3,11.1,1,23.5,9.2,35.4C2565,890.1,2601.4,847.5,2640.2,802.2z
			 M2605.3,1165.5c22,7.5,41.1,14.7,60.6,20.4c9.6,2.8,20.5,12.9,29.5,4.3c14.4-13.7,34.2-24.8,37.5-46.4
			c3.5-22.9,3.1-46.3,5.2-69.4c0.9-10.5-2.8-16.5-13-17.4c-10.4-1-20.1-14.9-31.6-0.3C2665.2,1092.5,2636.1,1127.7,2605.3,1165.5z
			 M2579.6,1677.8c-24.6-18.5-47.6-35.6-70.3-53.1c-5.6-4.3-9.6-3.4-14.9,0.2c-23.1,15.8-46.4,31.6-69.9,46.8
			c-7.8,5-9.4,8.8-2.1,15.8c15.2,14.6,29.9,29.7,44.4,45.1c4.8,5.1,8.7,5.2,14.4,1.9C2513.3,1715.8,2545.5,1697.5,2579.6,1677.8z
			 M2428.5,1764.5c-18.2-17.3-34.2-31-48.5-46.4c-8.4-9-14.3-7.5-22.9-1.3c-16.5,11.9-33.7,22.8-50.6,34.1
			c-44.8,30-44.8,30.1-10.3,72.1c0.9,1.1,1.8,2.2,2.6,3.3c4.2,6.3,8.4,7.3,15.7,3.1C2350.7,1808.4,2387.3,1787.9,2428.5,1764.5z
			 M2533.5,1071.7c0.1,0,0.3,0,0.4,0c0,17.6-0.1,35.3,0,52.9c0,7.4-2.8,15.5,7.3,19.8c10.4,4.4,15.5-1.5,21.1-8.3
			c25.2-31.3,50.2-62.7,75.9-93.6c8.6-10.3,5.1-13.1-5.9-16.4c-25.6-7.7-51-15.9-76-25.3c-16.8-6.3-22.4,0.8-22.7,15.9
			C2533.2,1035,2533.5,1053.4,2533.5,1071.7z M2251.3,361.2c-35.4-2.5-67.6-4.5-99.7-7.1c-8.2-0.7-11.2,4-13.8,10.1
			c-8.8,20.6-17,41.5-26.4,61.9c-5.1,11.1,0.4,13.4,9.2,14.7c22.2,3.1,44.5,5.9,66.7,9.2c7.1,1,11.7-0.8,15.5-7.3
			C2218,416.7,2233.6,390.9,2251.3,361.2z M2340.6,313.9c47.5,3.2,91.1,5,134.5,9.6c21.3,2.3,34.3-4.8,44.3-22.7
			c5.1-9.2,6.7-13.6-5-18.1c-41.1-15.8-83.4-25.2-127.4-27.2c-6.6-0.3-12.2,0.2-16.1,7C2361.7,278.8,2351.9,294.9,2340.6,313.9z
			 M1126.3,646.4c0-0.1,0-0.2,0-0.3c17.6,0,35.1-0.3,52.7,0.1c8.3,0.2,14.4-0.7,11.7-11c-4.9-19-10.1-37.9-15.4-56.8
			c-2.9-10.2-11-13.9-20.5-15.7c-34.4-6.4-89.7,33.4-95.6,68.3c-2.1,12.3,2.1,16.2,14.4,15.6
			C1091.1,645.7,1108.7,646.4,1126.3,646.4z M2671.5,1512c-1.7-0.7-3.3-1.5-5-2.2c-36.1,24.2-72,48.5-108.3,72.3
			c-9.5,6.2-6.5,9.8,0.5,14.9c20.4,14.9,40.9,29.8,60.8,45.2c14.2,11,23.2,4.1,26.3-9.2C2655.3,1592.9,2663.1,1552.4,2671.5,1512z
			 M2653.4,1242.6c-1.9-2.5-3.8-5-5.7-7.6c-14.6-5-29.2-10-43.9-14.9c-33.1-11.2-33.1-11.2-55.8,16.6
			c-36.6,44.9-36.6,44.9,14.5,74.6c0.6,0.4,1.2,0.8,1.7,1.2c5.5,5,9.6,2.8,14.4-1.6C2603.5,1287.9,2628.5,1265.3,2653.4,1242.6z
			 M2197.2,554.2c23,5.5,43.4,11,64.1,15.1c18,3.6,35.5,23.3,52,13.5c15-9,23.2-29.4,34.5-44.8c0.8-1.1,1.6-2.3,2.4-3.5
			c6.6-8.5,1.8-10.5-6.2-11.5c-35.7-4.4-71.3-8.9-106.9-14c-8.1-1.2-13.5-0.3-17.6,7.2C2212.6,528.5,2205.3,540.4,2197.2,554.2z
			 M2123,1998.8c-13.9,12.1-35.9,11.1-38.2,30.1c-5,40.7-7.1,81.7-10.6,125.1c24.1-13.4,46.1-25.8,68.2-37.9c5.4-3,8.9-5.9,7.1-13.1
			C2140.6,2069.2,2132.2,2035.2,2123,1998.8z M2716.9,1272.5c-0.1-8.5,1.2-13.9-5.2-16c-4.7-1.6-8.1,0.8-11.1,3.9
			c-25.9,26.7-51.7,53.6-77.9,80c-6.3,6.4-5.4,9.8,1.4,14.5c19.7,13.5,39.1,27.4,58.5,41.2c5.5,3.9,10.3,5.9,12-3.1
			C2702.4,1351.7,2710,1310.3,2716.9,1272.5z M2582,1846.9c15.9-43,31.2-86,42.9-134.6c-37,21.2-70.2,40.7-103.8,59.3
			c-9.3,5.2-8.3,9-1.6,15.3C2539.4,1805.7,2559.1,1824.8,2582,1846.9z M1006.4,631.4c-1.1-28.8-9.1-51.3-34.4-63.6
			c-15-7.3-27.9-7.3-36.5,11.1c-9.2,19.8-18.5,39.5-26.1,60.1c-4.5,12.2-0.7,14.9,11.1,14c21.8-1.6,43.7-3.3,65.5-3
			C1001.9,650,1008.4,644.4,1006.4,631.4z M2160.8,1916.8c2.7-1.4,5.8-2.9,8.8-4.6c17.1-9.7,34.3-19.1,51.2-29.1
			c41.5-24.5,41.1-24.3,9.3-61.1c-6.8-7.9-10-6.3-16.3-0.7c-16.8,14.9-34,29.4-51.3,43.8c-15.3,12.6-18.5,29.8-8.3,47.1
			C2155.8,1914.5,2156.9,1917.1,2160.8,1916.8z M2024.8,346.5c-2.3,0.4-6.6,0.6-10.5,1.7c-22.7,6.5-24.3,11-13,31.2
			c6.9,12.3,14.2,24.5,19.3,37.6c4.8,12.1,13.8,11.7,23.8,12.8c11.4,1.3,12.2-7.1,15.1-13.9c3.6-8.4,6.9-17,10.5-25.4
			c16.6-39,16.7-38.9-24.3-41.7C2039.4,348.4,2033.1,347.4,2024.8,346.5z M2057.6,556.6c26.9-1.6,50.6-3.1,74.2-4.5
			c4.9-0.3,7.2-3.4,9.4-7.2c6.8-11.4,13.7-22.8,20.8-34c5.2-8.3,4.1-12.3-6.5-13.5c-18.8-2.1-37.4-5.1-56.2-7.7
			c-6.1-0.8-12.9-2.7-16.2,5.2C2074.8,514.7,2066.7,534.5,2057.6,556.6z M2311.3,255.7c-24.8,3.8-47.8,6.7-70.5,11.1
			c-20.7,4-41.1,9.7-61.6,14.7c-9,2.2-13,9.6-12.4,17.3c0.6,7.6,9.1,4.8,14,5.2c29.5,2.4,59.1,4.2,88.6,6.1
			c5.5,0.3,11.7,1.9,15.1-4.5C2292.9,289.8,2305.2,275.8,2311.3,255.7z M2530.2,1959.9c-31.6,17.5-58.4,32.3-85.1,47.2
			c-6.1,3.4-4.4,7.4-0.9,12c6.5,8.3,12.8,16.8,18.8,25.5c4.8,6.9,8.8,8,14.2,0.4C2495.4,2019.4,2513.6,1993.7,2530.2,1959.9z
			 M2077,2213.3c33,4.7,61,4.6,89.1,1.3c4.6-0.5,12.8,1.6,10.1-8.4c-3.7-13.8-7.4-27.5-11.5-42.7c-26.1,14.5-49.4,27.4-72.8,40.5
			C2088.4,2206,2085,2208.3,2077,2213.3z M2375,1636.2c1.1,1.2,2.3,2.4,3.4,3.5c23.6-15.9,47.1-31.9,71-47.5
			c7.9-5.1,4.6-8.4-0.7-12.2c-6.8-5-13.7-9.8-20.1-15.2c-6.3-5.3-9.3-2.6-12.7,3.3C2402.5,1590.9,2388.7,1613.6,2375,1636.2z
			 M2488.2,1399.4c1.7,1.4,3.4,2.9,5.2,4.3c6.8-8.6,13-17.7,20.6-25.6c21.7-22.9,21.9-22.7-3.9-39.7c-1-0.7-2.6-0.5-4.8-0.8
			C2499.6,1358.2,2493.9,1378.8,2488.2,1399.4z M2089.2,1938.8c4.5,3.5-5.6,14.2,5.4,15.2c5.6,0.5,14.6-3.8,13-12.8
			c-1.6-9.1-1.2-24.6-8.9-25.3C2086.8,1914.8,2090.4,1928.8,2089.2,1938.8z"/>
		<path class="st0" d="M1432.6,1948.2c-2.6,30.9-6,61.8-7.5,92.8c-0.7,14.6-6.6,18.7-19.7,15.9c-1.4-0.3-2.8-0.1-4.2-0.3
			c-30.6-4-32.2-4.3-25.9-34.4c5.1-24.3-1.6-36-24.9-45.8c-52.6-22-104-46.9-155.2-72c-15-7.4-20.4-4.2-25.3,10.5
			c-7.4,22-16.3,43.6-25.7,64.8c-5.1,11.5-2.9,17,8.4,22.9c43,22.5,85.2,46.8,128.3,69.2c13.3,6.9,16.3,13.4,7.6,25.3
			c-0.4,0.6-0.7,1.2-1,1.8c-14.8,28.3-14.8,28.3-42.4,13.3c-37.1-20.3-74.4-40.2-111.1-61.2c-11.1-6.3-16.1-6.7-20.9,6.9
			c-9.8,27.9-22.5,54.7-32.2,82.6c-4.5,13-10,14.5-21,8.8c-8.1-4.2-16.9-7.1-25.3-10.7c-3.6-1.5-9.3-2.4-5.6-8.3
			c9.4-15.1-3.1-17.7-12.3-22c-26.8-12.6-53.9-24.4-80.3-37.7c-11.6-5.8-18.2-4.8-21.3,8.3c-0.2,0.7-0.6,1.3-0.8,1.9
			c-13.5,30.8-24.5,33.4-52.9,13.7c-9-6.3-4.2-11.7-1.8-18c13.4-34.4,13.4-34.4-20.8-50.6c-19.7-9.3-39.8-18-59.2-28
			c-11.1-5.7-17.3-5.2-21.8,7.8c-5.5,15.9-13.8,30.9-19.1,46.9c-4,12.1-9.8,12.5-20.2,8.4c-34.3-13.5-34.3-13.2-20-47.7
			c5.9-14.2,18.1-30.8,14.7-42.5c-3.7-12.5-26.5-12.9-39.2-21.5c-17.9-12-30.1-11.2-36.7,11.3c-3.1,10.4-8.5,11.7-18.9,7
			c-35.3-15.9-35.4-15.4-16.8-50.6c67.6-127.6,160.3-231.9,287.1-303.1c81.4-45.7,168.4-72.1,263.1-66.1
			c92.3,5.8,163.8,47.2,212.7,126.2C1408.2,1744.9,1431.7,1841.8,1432.6,1948.2z M1378,1905.8c-2.1-30.5-6.2-59.7-12.4-88.7
			c-2.2-10.2-6.6-15.7-16.4-19.4c-33.6-12.4-67-25.2-100.1-38.9c-11.2-4.6-16.3-2.5-20.4,8.6c-8.2,22.4-17,44.6-26.5,66.5
			c-4.8,10.9-2.3,15.5,8.6,20.5c50.5,22.9,100.7,46.5,150.6,70.8c15.6,7.6,18.3,2.2,16.5-12C1377.7,1910.5,1378,1907.7,1378,1905.8z
			 M1029.4,1827.4c-4.3,0.7-6.4,3.7-8.2,7.9c-9.7,22.6-19.2,45.4-29.6,67.7c-4.6,9.8,1.8,12.4,7.9,15.8
			c27.2,14.8,54.7,29.1,81.6,44.4c9.3,5.3,13.1,3.2,16.6-6.1c8.7-23.1,17.4-46.1,27.4-68.7c5-11.4,1.5-16.3-8.7-20.9
			c-25.7-11.4-51.1-23.6-76.7-35.5C1036.5,1830.6,1033.3,1829.2,1029.4,1827.4z M939,1885.1c4.1-0.1,5.4-4,7.1-7.8
			c9.3-21.2,18.3-42.5,28.1-63.5c4.9-10.5-1.5-13.2-9.1-16.7c-29.3-13.4-58.7-26.8-87.7-41c-9.7-4.8-14.6-4.5-18.6,6.7
			c-6.1,17.2-13.2,34-20.9,50.5c-4.9,10.3-3.7,15.9,7.1,21.4c28.7,14.7,56.8,30.7,85.2,46.2C932.6,1882.3,935.2,1883.4,939,1885.1z
			 M1088.3,1696.6c-6.1-2-7.8,2.8-9.4,6.5c-10,22.4-19.6,45.1-29.6,67.5c-3.7,8.2,2.4,9.6,7.4,11.9c26.7,12.5,53.6,24.6,80,37.7
			c10.6,5.3,14.9,2.2,18.5-7.8c5.4-15.2,12-30,17.8-45.1c12.6-32.8,12.5-32.8-20-45.6C1131.5,1713.3,1109.9,1705,1088.3,1696.6z
			 M947.3,1641.7c-16.7,11-39.9,13.6-51.4,33.2c-14.4,24.3-13.3,26.1,12.1,38.1c26.1,12.3,52.3,24.2,78.2,36.9
			c9.3,4.5,14.3,4.5,18.5-6.7c7.2-19,16.3-37.3,24.4-56c2.1-4.8,6.4-10.8-1.7-14.1C1001.3,1662.6,975,1652.6,947.3,1641.7z
			 M816.6,1879.1c-5.1-0.5-6.4,2-7.5,4.6c-7.3,17.5-14.5,35-22,52.4c-3.6,8.2,2.6,9.5,7.6,11.9c18.4,8.6,36.9,17.2,55.4,25.8
			c47.5,22.2,47.2,22.1,66.1-26.6c3.6-9.3,2.4-13.1-6.5-17.7c-28.7-14.8-56.7-30.8-85.1-46.3
			C821.5,1881.3,818.3,1879.9,816.6,1879.1z M1146.7,1599.1c-12,0.5-21.7-2.7-28,10.9c-16.5,36-17.3,35.6,19.6,50
			c5.2,2,10.4,4.1,15.6,6.2c53.4,21.3,52.8,21.1,72.8-33.5c4.8-13-0.3-16.2-10-19.5C1193.4,1605.2,1169.4,1600.5,1146.7,1599.1z
			 M1071.2,2023.3c0.6-5.6-2.4-7.3-5.6-9c-30.3-16.5-60.6-33.1-90.8-49.7c-4.1-2.2-8.3-3.2-10.6,2c-6.6,14.8-13.1,29.6-19.1,44.7
			c-2.7,6.7,3.9,8.3,8,10.2c29.3,13.8,58.8,27.4,88.2,40.9c4.3,2,10.4,6.1,13.2,0.6C1061.1,2049.8,1066,2035.8,1071.2,2023.3z
			 M724.6,1828.5c-6.8,0.2-9,5-11.8,8.9c-9.8,13.7-18.8,27.9-29,41.3c-8.3,10.9-6.1,17.1,6.6,21.1c15.8,5,32,22.7,44.9,17
			c10.8-4.8,14.8-26.9,20-42c3.2-9.3,18.4-20,0-29.8C744.8,1839.4,734.4,1833.8,724.6,1828.5z M1338.7,1737.6
			c-16.1-36.8-34.9-64.1-62.3-88.6c-6.7,17.1-12.3,32.7-19.1,47.9c-2.8,6.3-1.2,9.1,4.3,11.2
			C1285.5,1717.3,1309.4,1726.4,1338.7,1737.6z M814.1,1735.3c-20.1,10-34.6,26.3-50.3,41.3c-7.4,7.1-6.1,12.8,2.9,15
			c7.3,1.8,15.1,18.7,23,1.4C798.4,1774.1,806,1754.6,814.1,1735.3z M1027.4,1614.1c26.7,16.7,28.7,16.2,34-8.1
			C1049.6,1606.7,1038.4,1608.6,1027.4,1614.1z"/>
		<path class="st0" d="M1089.6,1473.9c-145.9,5.5-279.9,49.3-386,158.9c-83.7,86.4-131,192.3-156.5,308.7
			c-1.8,8.1-1.2,19.9-9.1,21.5c-14.4,3-29.3-1.4-43.6-5.4c-4.1-1.1-1.1-6.1-0.5-9.3c44.5-245.2,199.3-466.3,496.6-517
			c102.2-17.4,203.3-13.1,299.1,28.6c127.8,55.6,205.6,154.4,235.9,290.3c18.1,81,18.3,162.2,1.2,243.6c-3.1,14.8-7.7,20-22.1,14.4
			c-5.2-2-10.8-3.4-16.4-4.1c-12.9-1.6-16-8.5-13-20.5c5.6-22.6,9-45.7,10.3-69c6.2-105.4-8.5-205.6-72.9-293.4
			c-67.2-91.6-160.6-134.4-271.1-145C1125.4,1474.9,1109.2,1474.8,1089.6,1473.9z"/>
		<path class="st0" d="M1051.1,1025.7c-69.6,0-127-57.8-126.2-127.1c0.8-69,57.2-125,126-125.1c69.4-0.1,127.1,58,126.2,127.1
			C1176.2,969.7,1119.8,1025.7,1051.1,1025.7z M1124.6,899.3c-0.1-41.3-32.7-73.8-73.8-73.6c-41.1,0.2-73.6,33-73.5,74.1
			c0.1,41.2,32.6,73.4,73.9,73.3C1092.6,973,1124.7,940.8,1124.6,899.3z"/>
	</g>
</g>
</svg>
