<?xml version="1.0" encoding="utf-8"?>
<!-- Generator: Adobe Illustrator 23.0.0, SVG Export Plug-In . SVG Version: 6.00 Build 0)  -->
<svg version="1.0" xmlns="http://www.w3.org/2000/svg" xmlns:xlink="http://www.w3.org/1999/xlink" x="0px" y="0px"
	 viewBox="0 0 3000 3000" style="enable-background:new 0 0 3000 3000;" xml:space="preserve">
<style type="text/css">
	.st0{fill:none;stroke:#000000;stroke-miterlimit:10;}
	.st1{stroke:#000000;stroke-width:10;stroke-miterlimit:10;}
</style>
<g id="Layer_1">
</g>
<g id="Layer_2">
	<path class="st0" d="M889.8,1627"/>
	<path class="st0" d="M950,1698.4"/>
	<path class="st0" d="M1016,1748.2"/>
	<g>
		<path class="st1" d="M1503.1,1529.5c-121.5,50-243.2,69.5-369,65.5c-5.4-0.2-10.8-0.3-16.1-0.6c-33-1.9-31.4-1.9-30.7-34.2
			c0.4-19,9.4-17.5,22.7-16.7c179.7,11.2,348-24.1,497-129.2c129.4-91.3,206.9-216.9,229.7-373.8c21.6-149.3,13.1-298.1-26.7-443.5
			c-35.4-129.2-117.5-219.1-246.6-260.7c-100.1-32.3-201.4-26.5-302.3-1.1c-5.8,1.5-11.5,3.5-17.4,5c-35,8.9-34.7,8.8-44.7-26.1
			c-2.1-7.4-1.3-11.5,6.2-13.7c176-52.8,347.3-58.1,503.5,57.2c86.6,63.9,133.4,154.8,158.2,257.5c19.5,80.7,24.9,163.1,28.6,245.8
			c4.2,92.6-0.8,184.2-29.4,273c-6.8,21-3.7,35.3,8.7,52.9c94.9,134.6,141.4,284.6,132.9,449.3c-8.5,164.9-71.8,308.5-178.7,433.5
			c-98.2,114.9-218.8,193.6-367.8,225c-77.5,16.4-156.3,14-235,12.3c-106.6-2.3-211.5-16-315.2-40.7c-16.2-3.8-18.6-9.5-14.1-24.5
			c8.4-27.6,7.5-27.6,35.8-21.5c14.3,3.1,31.6,13.7,42.4,6.4c11.4-7.6,4.4-27.4,5.4-41.7c4.8-72.4,8.5-144.9,12.2-217.4
			c1.2-23.6-23.2-62.1-44.4-69.8c-7.4-2.7-8.3-5.1-6.4-12.9c8.9-35.2,8.5-35.3,42.8-27.6c86.3,19.3,172.6,23.9,259.1,0.3
			c107.5-29.4,184.1-96.2,235.7-193.6c2.5-4.8,5.1-9.7,3.9-15.3C1475.2,1608.4,1483.6,1570.4,1503.1,1529.5z M1774.2,1617.1
			c0.1-67.7-53.4-122.1-120.6-122.6c-68.1-0.6-123.5,54.1-123.7,122.1c-0.2,67.7,55.2,122.9,123.3,122.6
			C1720.3,1739.1,1774.1,1684.8,1774.2,1617.1z M1510.4,1923.8c8.4,48.3,16.2,92.9,24,137.6c1.2,6.8,6.9,9.6,11.9,12.8
			c36.5,23.7,73.3,47,109.5,71.2c9,6.1,15.1,5,22.7-1.6c6.6-5.8,13.1-9.7,9.5-21.2c-13.8-44-26.4-88.4-39.6-132.6
			c-1.5-5-2.9-10.1-8.8-12.6C1597.6,1960.2,1555.8,1942.7,1510.4,1923.8z M1146.5,1986.4c-2,33-2.2,61.7-5.8,89.9
			c-4.1,31.7,4.5,58.8,20.8,85.5c16.7,27.4,31.7,56,46,84.7c7.2,14.5,19.3,11.7,29.2,9.4c9.8-2.2,3.5-12.2,2.6-18.6
			c-5.7-42.4-11.4-84.9-18.1-127.2c-3.2-20.4,0.4-44-11.7-60.2C1192.7,2027.3,1169.7,2009.3,1146.5,1986.4z M1381.1,2026.4
			c7.5,40.2,13.9,75.5,20.8,110.7c2.7,13.6,0.9,29.4,10.7,40.1c18.6,20.3,38.3,39.6,58.6,58.2c12,11,23.8-1.7,35.5-3.9
			c8.4-1.6,5.6-9.7,4.6-15.3c-6.3-37-13.1-73.9-19.5-110.9c-0.9-5-2.6-9.1-6.8-11.8C1451.9,2072.2,1418.8,2050.8,1381.1,2026.4z
			 M1755.5,1463.4c32.7,5.6,60.8,8.4,87.8,15.6c23.3,6.3,40.4,0.9,58.8-13.7c38.7-30.6,39.1-29.6,22-75.9c-3.4-9.2-7.7-12.8-17.3-12
			c-22.1,1.8-44.2,2.9-66.4,4.1c-5.2,0.3-8.9,2.7-12.2,6.1C1804.9,1411.8,1781.7,1436,1755.5,1463.4z M1478.3,2030.1
			c-7.5-43.5-14.2-82.2-20.9-120.9c-1-5.7-4-9.3-9.7-11.6c-26.7-10.8-53.1-22-79.7-33c-8.5-3.5-16.9-1.5-15.6,7.9
			c4.1,28.4,10.1,56.6,16.1,84.7c0.7,3.1,5.4,5.7,8.7,7.9C1409.3,1985.6,1441.3,2006.2,1478.3,2030.1z M1042.6,2046.2
			c-1.2,0.2-2.5,0.3-3.7,0.5c-0.9,11.7-1.9,23.4-2.6,35.1c-2.3,39.5-3.9,79-6.7,118.4c-3,42.4-3.4,41.8,39.3,45.4
			c11.2,0.9,14.2-2.5,14.6-12.5c1.4-31.5,3.4-62.9,4.7-94.4c0.2-4.5-0.6-9.6-2.7-13.4C1071.4,2098.8,1056.9,2072.5,1042.6,2046.2z
			 M1279.4,2111.2c-2.3,1.4-4.7,2.8-7,4.1c6.2,44.4,12.4,88.8,18.4,133.3c1.2,9.1,7.4,10.1,14.6,9.9c18.8-0.5,37.6-0.9,56.4-1.7
			c4.1-0.2,11.2,1.6,9.7-6.2c-3.8-19.4-0.9-41.5-14.9-57.4C1331.8,2165.2,1305.3,2138.5,1279.4,2111.2z M1870.9,1672.4
			c-16.5,2.3-32.4,4.8-48.3,6.6c-14.8,1.7-13.2,8-7.6,18.9c18.8,36.4,42.4,65.8,87.2,69.3c4.6,0.4,8.9,3.3,13.5,3.7
			c6.6,0.6,14.2,9.2,19.5,0.7c5.2-8.5,7.3-18.2-0.7-27.9c-17-20.7-33.2-42-49.6-63.1C1881,1675.6,1877.7,1670.5,1870.9,1672.4z
			 M1248.4,1940.6c3.4,31.9-0.4,64.6,14.7,87c20.9,31,52.7,54.8,83.4,85.2c-7.5-41.2-14.1-76.6-20.4-112.1
			c-1.4-7.8-4.7-13.5-11.5-17.7C1293.6,1969.9,1272.9,1956.4,1248.4,1940.6z M1741.8,1772c18.4,34.5,34.6,65,51,95.5
			c1.5,2.7,4.3,5.5,7.1,6.6c27,10.6,54.2,20.8,82.7,31.7c0-4.6,0.7-7-0.1-8.4c-20.6-32.9-41.4-65.7-62.1-98.6
			c-2.3-3.6-5.7-5.4-9.7-6.5C1789.2,1786,1767.6,1779.6,1741.8,1772z M1490.2,1809.6c3.6,18.7,6.6,33.6,9.1,48.6
			c0.9,5.2,3,8.5,7.9,10.5c38.6,15.9,77.2,32,119.4,49.5c-6.3-21.1-11.4-38.2-16.5-55.3c-1.3-4.5-2.7-8.8-7.9-10.8
			C1566.1,1838.5,1530.1,1824.8,1490.2,1809.6z M1802.7,1991.6c-14.5-27.3-26.1-49.2-37.8-70.9c-2.2-4.1-4.5-8.2-9.4-10
			c-28.4-10.8-56.8-21.7-89-33.9c6.6,22.5,12.1,40.9,17.5,59.4c1.7,5.6,5.5,8.6,10.9,10.8C1728.9,1960.8,1762.8,1975,1802.7,1991.6z
			 M1959.2,1582c-0.9-33.1-0.9-33.1-33-38.5c-9.2-1.5-18.4-2.8-27.6-4.6c-18.2-3.5-29.6,9.5-38.9,20.1c-7.5,8.6,8.1,15.1,12,23.2
			c2,4.1,6.1,7.2,8.3,11.2c11.1,20.7,26.5,26.9,50.4,22.5C1959.7,1610.5,1960.1,1612.6,1959.2,1582z M1835.8,1218.9
			c-10.4,18.6-20.2,37.6-31.4,55.6c-11.3,18.2-23.9,35.6-36.2,53.1c-5,7.2-2.9,8.8,5,8.8c24.2-0.1,43.9-6.1,61.5-25.9
			c39.3-44,40.5-42.9,3.6-90C1837.9,1220.1,1837.2,1219.8,1835.8,1218.9z M1089.5,2027.6c1.6-0.2,3.2-0.3,4.8-0.5
			c1.3-24.5,1.7-49.1,4.4-73.5c1.5-13.9-5.2-22.3-14.7-28.3c-10.8-6.8-27.1-10.6-35.8-4.3c-8.8,6.3-5.3,21.8,1,33.1
			C1062.8,1978.6,1076.1,2003.1,1089.5,2027.6z M1704.3,2004.5c9.2,30.6,17.5,57.1,25,83.9c2.8,9.9,6.6,8.3,11.9,2.8
			c15.7-16.4,31.2-32.8,48.6-51.1C1760.8,2028.1,1734.5,2017.2,1704.3,2004.5z M1510.8,1711.2c-9.4,13.8-16.1,23.7-22.8,33.6
			c-2.7,4-6,8.4,1.1,11.1c32.5,12.4,65.2,24.7,97.8,37c1.1-1.8,2.3-3.6,3.4-5.3C1569.1,1758,1527.5,1749.7,1510.8,1711.2z
			 M1759.3,1387.8c-43.2-0.9-73,16-104.2,57.1c8.2,0.7,16.1,1.3,24.1,2.1c7.1,0.7,15.2,6.7,21.2,0.9
			C1719.9,1429.1,1738.5,1409.2,1759.3,1387.8z M1618.4,2179.9c-22.5-14.5-45.2-29.1-71.6-46.1c6.6,27.8,6.2,52.6,16.1,75.5
			c19.3-6,36.6-15.9,53.8-26C1617.2,2183,1617.3,2182.2,1618.4,2179.9z M1724.4,1845.3c-11.1-20.9-19.7-36.6-27.8-52.6
			c-3.3-6.4-7.6-8.1-14.5-7c-13.1,2-26.4,3.1-42.3,4.9c6.6,10.2,2.4,24.4,17.3,29.7C1677.8,1827.6,1698.3,1835.5,1724.4,1845.3z
			 M1199.8,1964.5c-5.1-49.4-5.1-49.4-39-41.1C1173,1936.2,1186.4,1950.4,1199.8,1964.5z M1443.3,1841.4c0.9-13.8-1-24.9-6.7-36.8
			c-8.9,8-16.8,15-24.9,22.3C1420.9,1834.5,1431.4,1836.5,1443.3,1841.4z M1308.5,1918.8c-1.6-31.3-3-32.2-27.2-16.9
			C1289.8,1908.6,1298.2,1914.9,1308.5,1918.8z M1134.8,2215.6c-4.1,39.1-4.1,39.1,18.2,34.8
			C1147.7,2240.2,1142.5,2230.3,1134.8,2215.6z M1908.9,1845.4c10.8-23.8,9.9-25.2-16.2-26.2
			C1897.9,1827.4,1902.6,1835.1,1908.9,1845.4z"/>
		<path class="st1" d="M2071.5,1436c-7.5-193.7-2.6-412.1,4-630.5c2.6-85.5,0.6-170.9-18.4-254.7
			c-33.4-147.3-115.5-256.9-255.5-318.8c-166.6-73.6-340.4-115.7-523.3-112.6c-69.8,1.2-139,12.6-207,29.2
			c-33.9,8.3-62.8,26.9-89.4,48.9c-27.6,22.7-32.5,40.8-15.2,72.1c25.9,47,54.1,92.8,81.1,139.2c11.8,20.3,23.2,40.8,34.5,61.4
			c14.6,26.7,32.4,35.4,63.1,30.2c34.9-5.9,66.2-21.9,97.5-37.1c38.6-18.8,76.8-38.6,117.8-52c104.9-34.4,192.8-9.1,263.7,75.7
			c65.1,77.9,98.7,170,119.2,267.7c27.5,130.5,24.9,260.1-12.6,388.7c-50,170.9-188.5,285.2-366.3,302.6
			c-66,6.5-131.2,4.3-196.3-8.1c-10.8-2.1-15.8-5.7-11.7-17.2c2-5.6,3.7-11.6,4.1-17.5c1-14.9,10.4-15.2,21.3-13
			c68.6,13.2,137.3,14.4,206.1,1.7c159-29.4,259.2-123.2,299.8-278.7c46.6-178.4,29.3-351.6-51.5-517.8c-14.4-29.7-33-56.8-54.6-82
			c-56.8-65.9-124.7-84-206.6-55.1c-54,19.1-103.7,47.3-155.9,70.2c-27.3,12-55.2,21.6-85.3,21.8c-42,0.2-74.7-14.7-94.8-55
			c-27.5-55.3-61.3-107.2-93.2-160.1c-11.8-19.6-23.8-39-31.4-60.7c-14.9-41.9-4.5-79.4,28.6-109.2c49.7-44.8,108.7-67.5,173.8-77.8
			c81.1-12.8,162.5-24.2,244.7-17c171.3,15.1,337,52.4,490.9,132c153.6,79.5,233.1,210.9,260.3,377.7c13.8,84.6,14.6,170,11.3,255.4
			c-9.8,255.4-6.3,510.7,0.2,766.1c4.6,182,8,364.2-2.3,546.3c-5.3,93.9-9.4,187.6-24.2,280.9c-45.1,285.1-298.6,481-534.9,506.8
			c-167.5,18.3-327.9-8.8-486.1-59.4c-48-15.3-94.8-33.7-140.8-54.3c-12.4-5.6-17.5-10.5-9.1-22.9c3-4.4,5.5-9.3,7.1-14.4
			c3.8-11.9,9.8-12.9,21.1-8c129.1,56.3,262.8,96.6,403.3,111.2c120.5,12.5,240.4,7.9,352-43.2c191.5-87.7,310.5-233.8,341.9-445.9
			c18.8-127.3,20.9-255.7,24.4-383.9C2082,1830.3,2074.7,1645.5,2071.5,1436z"/>
		<path class="st1" d="M1406.6,756.1c88.3-0.3,158.4,69.3,159.3,158.1c0.9,88.8-70,160.6-158.9,160.8
			c-88.5,0.2-160.9-71.4-161-159.4C1245.8,827.4,1317.5,756.3,1406.6,756.1z M1516,914.6c-0.1-61.1-49-109.9-109.9-109.8
			c-60.4,0.1-110.1,49.7-110.4,110.2c-0.3,61,50.6,111.6,111.7,110.9C1468.4,1025.2,1516.1,976.3,1516,914.6z"/>
		<path class="st1" d="M1479.5,728.7c-48.7-0.3-88.2-39.8-88.5-88.4c-0.2-49.1,41-90.2,89.9-89.7c49.4,0.5,88.7,41.2,88.1,91.1
			C1568.4,690.9,1529.2,729,1479.5,728.7z"/>
		<path class="st1" d="M1271.2,1078.6c51.3,0.3,89.2,38.4,88.7,89.1c-0.5,48.6-40.7,88.7-88.8,88.5c-48.9-0.2-89.9-41.8-89.2-90.6
			C1182.5,1116.8,1221.9,1078.4,1271.2,1078.6z"/>
	</g>
</g>
</svg>
