<?xml version="1.0" encoding="utf-8"?>
<!-- Generator: Adobe Illustrator 23.0.0, SVG Export Plug-In . SVG Version: 6.00 Build 0)  -->
<svg version="1.0" xmlns="http://www.w3.org/2000/svg" xmlns:xlink="http://www.w3.org/1999/xlink" x="0px" y="0px"
	 viewBox="0 0 3000 3000" style="enable-background:new 0 0 3000 3000;" xml:space="preserve">
<style type="text/css">
	.st0{fill:none;stroke:#000000;stroke-miterlimit:10;}
	.st1{stroke:#000000;stroke-width:10;stroke-miterlimit:10;}
</style>
<g id="Layer_1">
</g>
<g id="Layer_2">
	<path class="st0" d="M1512.3,1821.2"/>
	<g>
		<path class="st1" d="M1982.4,2073c65,54.5,106.5,118.8,122.5,198.3c30,148.8-52.1,301.6-193.5,361.1c-6.1,2.6-16.5,2-16.2,11.8
			c0.3,9.8,9.7,6.1,15.3,7.3c62,12.7,104.4,55,110.7,110.9c6.6,58.5-23.1,112-75.1,135.1c-54.7,24.3-112.4,9.5-155.2-39.9
			c-2-2.3-3.1-5.4-5.5-9.5c-45.5,114.6-176.8,123.7-239.2,31.2c-22,24.4-46.9,43.5-79.9,50.2c-68.7,14-137.5-28.6-151.3-97
			c-3.7-18.5-11.1-23.5-28.2-24.3c-106.3-5-212.5-10.8-318.8-16.2c-8.7-0.4-17-1.5-24,7.3c-60.1,75.3-140.2,74.9-224.2,57.6
			c-36.6-7.5-66.3-25.8-85.2-59.1c-25.6-45.1-14.1-93.4,29.9-120.7c17.1-10.6,36-18.6,54.7-26.4c27.9-11.6,47.3-30.6,57.7-59.1
			c15.8-43.4,31.5-86.8,48-129.9c4.7-12.1,0.8-17.2-10.1-22c-15.8-6.8-29.3-17.4-41.1-30c-20.2-21.5-28.8-46.5-23.2-76
			c9.7-51.4,31.5-98.9,48.7-147.8c36.5-104.3,56.5-212,60.7-321.9c5.6-146.4,53.4-274.6,151.1-383.7c11.9-13.3,17.2-24.2,9.1-42.4
			c-8.2-18.4-8.4-39.5-8.4-59.9c-0.2-104.9,5.8-209.4,14.9-313.8c6.9-78.8,45.7-121.8,123.6-138.3c6.3-1.3,12.8-2.3,20.7-3.7
			c-3.2-14.9-14.8-24.6-21.4-37c-5.7-10.7-14.3-2.9-21.4-1.2c-38.7,9.7-77.3,18.9-117.7,10.9c-41.3-8.2-63.2-32.4-61.8-74.5
			c4.1-120.9,9-241.8,25-361.9c7-52.5,35.4-91.6,80-119.2c25.5-15.8,53.2-26.9,81.6-37.1c-40.8-56.2-43.4-99.5-8.5-136.1
			c34.3-36,77.4-36.2,131.6-0.8c34.2-66.9,90.1-81.4,149.5-38.3c7.4,5.4,9.8,6.9,16.2-1.9c46.6-63.9,104.2-69.4,166.7-15.8
			c19.4-44.4,51.7-73,100.9-76.2c48.2-3.1,84.2,19.3,110.3,63.2c23.2-32.8,52.2-53.2,91.6-53c26,0.1,49.4,8.4,68.9,26.3
			c44.7,41.1,44.1,91.8-2.8,159.2c46.9,15.5,88.9,39.4,124.8,72.9c56.4,52.7,91.5,113.5,84.4,195.5c-7.3,83.3-10.1,167.1-11.6,250.7
			c-1.6,88.6-36.1,156.9-113.5,200.7c0.2,3-0.2,5.3,0.5,5.8c55.9,38.7,74.1,96.4,79.2,160c3.9,48.7,2.2,97.4-5,145.8
			c-9.4,63.8-43.2,110.5-114.3,114.8c-6.4,0.4-12.8,1.9-19.8,2.9c1.7,11.4,10.3,18.3,16,26.7c101.2,150.8,145,316,123.9,497.1
			C2114.3,1987.8,2069.2,2046,1982.4,2073z M1641.9,1908c5.1-14.7,8.1-24.7,12-34.4c16.9-41.3,12.6-79.1-16.5-113.9
			c-8.3-9.9-15.1-21.2-21.9-32.2c-24.1-39-25.5-79.6-7.4-121.1c7.8-17.8,16.8-35.1,25.9-52.3c29.2-55.2,58.9-110.2,87.7-165.6
			c2.8-5.4,14.6-16.9,1.4-19c-21.6-3.5-43.1-10.4-66.8-1.3c-69.6,26.9-141.7,24.5-213.3,8.9c-15.2-3.3-24.9-3.2-37,6.5
			c-59.8,47.7-126.5,81.9-201.6,98.4c-45.1,9.9-90.2,23.2-136.6,6.5c-9.6-3.4-13.4,3.3-18,8.5c-85.9,96.2-138.8,205.6-146.2,336.9
			c-7.3,129.9-25.4,258.5-71.8,381.4c-13.2,34.9-26.1,69.9-37.2,105.5c-12.3,39.7-1.3,62.7,36.3,81.3c21.3,10.5,44.3,16,67.6,19
			c102.3,13.1,202.2-2.3,301.4-26.2c93.9-22.6,183.9-18.5,264.5,42.4c48.2,36.4,44.5,78.9-9.3,105c-13.8,6.7-28.5,11.7-42.6,18
			c-13.3,5.9-27,11.4-39.4,18.9c-24.6,14.9-27.1,30.4-11.7,54.9c12.5,19.9,33.1,25.7,53.7,30.1c107.8,22.8,214.2,3.9,321-10.7
			c-57.1-11.5-109.2-33.1-154-70.1c-64.6-53.4-104.8-120.6-91.6-206.2c19.3-125,71.8-234,176.5-311.5c13.3-9.9,13.8-14.5,1.8-23.8
			c-17.4-13.5-26-32.6-32.9-52.9c-15.3-44.8-40.9-83-77.3-113.1c-55-45.4-136.1-51.2-182.9,28.3c-14.3,24.4-31,47.2-50.6,67.9
			c-39.5,41.8-112.4,41.4-143.1-4.1c-13-19.3-27.4-22.3-46.8-21.3c-68.9,3.6-129.7,56.5-152,131.8c-11.8,39.7-11.8,80.1-9.5,120.8
			c0.5,9.6,0.7,15.6-12.2,18.4c-21.1,4.5-31.7,1.6-28.4-22.8c1.1-7.9-1.3-16.2-1.4-24.3c-1.4-65.8,12-127.4,51.5-181.7
			c16.4-22.5,38.2-39.4,60.7-56.5c-62.8-47.1-80.1-109.5-58.7-180.4c25.4-84.2,72.8-156.4,141.3-211.9
			c75.9-61.5,174.8-65.6,257.2-15.4c76.3,46.5,113.6,135.3,96,230c-2.9,15.4-7.9,30.4-12.2,46.6
			C1545.6,1803.4,1597.4,1846.1,1641.9,1908z M1468.9,918.3c56.2-18.6,111.6-17.2,167.3-9c31.5,4.6,59.5,17.2,81,40.7
			c10.8,11.7,20.2,14.6,35.8,10.7c62.5-15.6,126.3-22,190.7-21.7c71.7,0.3,156.9-65.9,165.5-136.7c14.1-116.1,14.5-233.3,18.9-350.1
			c0.6-14.8-5.4-28.8-12.4-41.6c-54.5-100.1-137.6-153.3-252.8-150.3c-69.8,1.8-139.5,6.2-209.2,10.8
			c-122.3,8-245.1,10.7-365.9,34.1c-72.6,14.1-144.5,31-209.8,67.8c-34.4,19.4-56.9,47.5-63.1,87.5
			c-13.2,85.2-15.9,171.3-21.6,257.1c-0.4,5.8-0.1,10.4,7,13.3c45,18.7,105.8-17.8,108.6-66.4c1.2-21.1-0.1-42.2,0.2-63.4
			c1-76.5,32.7-120.1,105.2-145.9c36.9-13.1,75.5-18.5,113.5-26.8c172.7-37.6,346-41,520.3-11.7c104.1,17.5,154.1,78,143,175.5
			c-5.5,48.3-21.8,93.2-43.9,136c-11.3,21.9-19.1,44.4-23.1,68.6c-5,30-15.5,57.9-32.7,83.1c-27.1,39.5-69.2,55-114.8,42.1
			c-71.4-20.2-130-98.4-130.4-173.9c-0.4-74,56.8-153.1,126.4-174.6c6.9-2.1,13.9-4.3,22.9-7.1c-56.1-30.1-114.4-32.8-172.9-35.7
			c-20.2-1-26.1,4-25.8,24.8c1.2,82,0.7,164.1,0.2,246.2c0,7.6,5.6,18.2-8.1,21.9c-23,6.1-33.4-1.1-33.4-24.7
			c-0.1-81.3-0.4-162.5,0.3-243.8c0.1-16.2-3-23.1-21.3-21.8c-45.7,3.3-90,12-132.8,28.1c-22.8,8.6-42.6,21.9-58.9,41.7
			C1496.8,632.5,1557.8,796,1468.9,918.3z M986.6,2751.6c104.6,5.6,202,10.3,299.2,16.4c20,1.3,33.4-0.9,39.9-23
			c4.3-14.7,15.1-27.5,27.9-36.2c17.6-12.1,12.3-17.4-2.3-28c-59-42.9-53.6-108.4,11.1-142.2c18.6-9.7,38.8-16.4,58-25.1
			c6.7-3,15.8-3.1,18.9-13c-12.9-7.9-26.4-12.8-40.8-16.1c-43-9.7-83.8,0.8-124.5,12.5c-49,14.1-97.2,30.3-149,33.8
			c-58.5,3.9-118.9-5.8-174.3,24.8c-13.2,7.3-16.2-12.1-23.4-19.6c-8.6-8.9,0.8-12.8,6.6-16.2c25.6-15.1,53.6-22.5,83-25.7
			c53.2-5.9,107.5,1.2,160.1-11.5c66-15.9,128.9-45.5,205.1-42c-19.2-11-33.6-12.7-48-14.5c-45.8-5.8-90.8-0.1-135.2,10.9
			c-102.5,25.3-206,37.8-311.3,23.2c-16-2.2-21.5,3.9-25.9,17.4c-10.1,30.8-22.8,60.8-31.9,91.8c-19.2,65.3-57.3,111.1-124,131.9
			c-22.1,6.8-43,20.2-43.6,46.9c-0.7,27.8,15.7,46.7,39.5,59.6c72.2,39.2,169,19.5,219-45.6c35.3-45.9,79.6-75.8,138-82.7
			c12.9-1.5,25.7-3.8,38.5-6c36.8-6.4,75.3-10.6,102.5-39.6c17.2-18.3,26.2-1.4,36.1,5.6c14.7,10.3-1.5,16.8-6.5,22.1
			c-34.6,36.6-81.3,44.7-128.1,52.4C1063.7,2720.2,1024.6,2722.5,986.6,2751.6z M1285.9,1836.1c28.4,1,57,0.7,84.7-6
			c17.7-4.2,36.1-7.2,47.6-25.6c39.5-63.1,32-157-18.2-213.7c-49.4-55.8-142.4-78.2-207.2-43.2c-98.3,53-153.1,140.6-174.1,248
			c-10,51.1,23.4,92.5,73.6,110.3c18.8,6.6,34.9-4,52.2-0.7c13.5,2.6,19.5-2.4,24-16.2c11.3-34.2,37.5-51.9,73.6-52.8
			C1256.7,1835.8,1271.3,1836.1,1285.9,1836.1z M1854.2,1380.2c0-0.3,0-0.5,0-0.8c-21.9-1.1-43.8-1.5-65.6-3.8
			c-11.5-1.2-15.8,4.4-20.3,12.9c-37.7,71.7-74.8,143.8-113.9,214.8c-24.4,44.2-24.3,84.4,9.4,123.5
			c44.9,52.1,50.7,110.2,24.8,172.8c-2.5,6-4.1,12.3-6.4,18.3c-23.4,60.8,8.2,113,72.5,123.3c65.1,10.4,130.5,9,195.3-3.2
			c83.9-15.8,125.7-60.9,134.8-146.1c18.8-175.6-27-334.2-128.2-478c-14.8-21.1-29.6-36.7-58.7-31.7
			C1883.9,1384.4,1868.8,1380.9,1854.2,1380.2z M1931.2,659.3c11.9-24.7,15.8-46.9,18.8-69.5c9.2-71.1-20.4-114.6-90.4-128.5
			c-79.7-15.8-160.4-24.7-241.8-24.4c-87.1,0.2-173.3,10.6-258.8,26.4c-45.5,8.4-90.8,17.2-134.9,31.6
			c-41.7,13.6-67.3,39.8-73.2,84.6c-4.1,31.6,0.7,63.3-2.3,94.9c-3.9,42.1-25.5,71.7-64.2,87.2c-21.7,8.7-45.2,14.3-68.8,11.1
			c-20.6-2.8-28.3,4.6-26.5,24.6c0.4,4.8-0.4,9.7-0.7,14.6c-1.9,31.1,7.7,42.1,39.4,44.8c28.7,2.5,56.3-3.6,84.2-9.9
			c16.4-3.7,19.2-10.2,17.6-26.4c-10.1-101.1,43.4-180.7,139.4-209.4c10.7-3.2,18.3-8.6,25.2-17.2c29.8-36.9,66.4-64.2,112.4-77.7
			c108-31.7,218.3-36.3,327.4-14C1822.3,520.1,1900.9,558.8,1931.2,659.3z M2070,2296.9c-2.1-61.2-43.5-140.6-124.5-199.6
			c-13.1-9.6-26.7-13.8-43-12.2c-45.4,4.4-91.7,7.8-136-1.6c-43-9-72.8,8.5-100.7,34.2c-72.5,66.7-111.9,152-133.1,246.4
			c-11.9,53,1.1,101.1,33.3,144.6c66.7,90.1,198,129.6,311.1,93C1989,2565.4,2070,2453.8,2070,2296.9z M1928.4,979.5
			c-52.1,1.2-103.5,7.1-154.5,17.7c-14.7,3.1-24,5.9-16.7,24.4c4.7,11.8,5.7,25.3,6.9,38.2c1,10.5,5.8,14.7,15.7,17.6
			c23.5,7,44.8,4.8,64-11.1c8.7-7.2,17.1-15.1,26.3-21.6c28.2-19.8,63.5-19.5,90.9,0.2c32.2,23.1,46.2,66.3,35.3,108.9
			c-8.1,31.4-31.7,50.1-66.9,53.8c-51.7,5.4-102.3,0.2-151.2-16.6c-15.3-5.3-21.1-3.6-24.1,12.7c-7.2,38.8-12.4,78.4-34.2,112.9
			c-7.4,11.6,2.4,11.4,9.6,12.1c92.3,9.6,184.5,19.9,277.4,5.4c37.7-5.9,58.6-22.4,67.1-59.8c4.1-18.1,7.2-36.7,8.5-55.2
			c4.1-60.1,6.8-120.2-17.5-177.5c-13.4-31.6-34-55.5-70.8-58.8C1972.2,980.9,1950.3,980.6,1928.4,979.5z M1318.6,645
			c-83.2,0.2-150.4,67.1-150.6,149.9c-0.2,82.8,66.8,150.2,149.9,150.9c83.6,0.7,152.4-67.9,151.9-151.4
			C1469.3,711.6,1401.7,644.8,1318.6,645z M1308.8,1225.1c-65.6,1.7-126.6,14.4-182.9,44.3c-87.1,46.2-76.2,28.3-71.6,127.6
			c2.3,49.2,18.8,62.9,68.9,58.2c96-9,182.6-43,258.6-103.1c7.5-5.9,10.6-10.5,4.1-19.7c-12.6-17.6-16.5-38.4-19.6-59.5
			C1358.9,1223.7,1358.7,1223.7,1308.8,1225.1z M1406.5,1169.1c-0.7,12.1-1.5,24.3-2.2,36.4c-1.5,24.4-0.2,25.2,23.5,16
			c46.3-17.9,81.5-48.4,108.1-90.2c26.8-42.2,67.5-61.9,116.2-65.6c19.3-1.4,38.9-0.6,58.3,0.4c11.1,0.6,13.8-2.9,12.8-13.7
			c-5-52-39.8-92.9-89.5-102.5c-30.3-5.9-61.2-7.9-92.1-5.7c-76.4,5.5-113.5,39.7-126.3,115.8
			C1409.3,1096.1,1406.7,1132.5,1406.5,1169.1z M1537.7,1347.6c26.7-2.8,56.1-1.5,84.4-9.4c32.8-9.1,59.7-27.3,71.7-60.2
			c18.2-49.7,26.1-101.8,30.7-154.4c0.5-6.3,1.3-11.8-7.4-15.4c-41.6-17.1-119.6,3.8-145.2,43.1c-37.5,57.6-87.2,97.4-153.3,116.1
			c-10.2,2.9-12,6.9-9.6,17.1c8.3,34.6,31.8,55.9,68,59.1C1496.4,1345.3,1515.9,1346.2,1537.7,1347.6z M1889.4,747.5
			c-1.7-38.8-9.7-75.1-30.7-107.2c-21.4-32.9-48-40.1-84.1-24.3c-50,21.9-88.9,81-87.9,133.3c1,54.2,41.9,111.4,93.9,131.5
			c32,12.4,57.5,4.9,76.5-23.5C1879.5,823.8,1887.9,786.2,1889.4,747.5z M1404.8,967c-57.4,24.6-109.3,25.3-161.8,4.3
			c-51.2-20.6-99.6-11-142.1,21c-42.6,32.1-31.4,81.8-38.4,129.8c49.6-25.2,96.2-43,145.6-53.2c50.5-10.4,101.3-13.3,152.5-8.4
			c9.3,0.9,13.4-2.9,14.6-11.6C1379.3,1021.6,1388.7,996,1404.8,967z M1055,1255.8c3.7,1.4,4.7,2.1,5.2,1.9c4.3-2.2,8.5-4.6,12.7-7
			c72.2-42.2,150.4-63.1,233.6-67.3c18.9-1,44.5,11.3,54.8-3.5c9.9-14.3,4.1-39.2,6.7-59.2c1.9-14.8-3-20.1-17.9-20.9
			c-97.1-5.4-188.7,13.2-273.3,62.1c-7.4,4.3-16.8,7.1-17.4,18.3C1058,1205.7,1056.5,1231.3,1055,1255.8z M1657.1,2900.9
			c49.4,0.7,88.7-37,89.5-85.8c0.8-48.7-38-88.9-86.5-89.3c-50.6-0.5-88.8,37.6-89.2,88.8
			C1570.7,2862.5,1608.3,2900.2,1657.1,2900.9z M1352.2,2803.7c0.1,49,39,88,88,87.9c48.6-0.1,88.3-39.7,88.3-88.2
			c0-48-40.5-88.3-88.5-88C1391,2715.6,1352.1,2754.8,1352.2,2803.7z M1806.2,2780.1c0.1,49.6,37.8,87.3,87.6,87.5
			c48.4,0.2,88-39.5,87.9-88.2c-0.1-48.6-40-88-88.5-87.4C1843.3,2692.6,1806.2,2730.2,1806.2,2780.1z M1700,218.2
			c40.3-0.4,72.2-33.3,71.3-73.5c-0.9-39.4-32.5-70.2-72-70.3c-40.3-0.1-72.9,32.3-72.7,72.3C1626.7,186.6,1659.6,218.7,1700,218.2z
			 M1954.3,146.9c0.3-36.2-24.4-61.3-60.3-61.5c-35.3-0.2-62.1,25.7-62.4,60.4c-0.3,34.6,26.3,61.3,61.3,61.5
			C1928.9,207.5,1954,182.8,1954.3,146.9z M1894.7,1167.8c6.4,0,17.8,0.4,29.1-0.1c21.3-0.9,32.4-12.3,34.4-33.4
			c2.3-24.4-2.9-45.7-25.4-58.8c-23.4-13.6-39.7,1.1-55.7,15.8c-25.8,23.9-55.7,35.3-91.4,29.4c-7.5-1.2-17.6-7.5-20.4,7.9
			c-2.4,13.3,4.7,16.6,14.8,20.2C1815.6,1161.5,1851.8,1169.4,1894.7,1167.8z M1510,232.3c34.6,0.4,60.9-24.7,61.1-58.3
			c0.1-31.7-26.4-58.7-58.4-59.3c-33.7-0.6-61,25.8-61.1,59C1451.5,206,1477.2,231.9,1510,232.3z M1290.9,1878.8
			c-10.3-0.6-18.4-1.4-26.5-1.6c-8.9-0.1-17.9-0.6-26.6,0.7c-23.6,3.5-36.1,21.3-32.7,45c5.5,37.7,50.8,52.2,83.8,26.6
			c21.6-16.7,34.5-40.5,49.3-62.7c7.9-11.9-0.9-11.3-8.4-10.9C1316.1,1876.7,1302.4,1877.9,1290.9,1878.8z M1346.5,243.1
			c27.3-0.2,49.7-22,49.9-48.6c0.3-27.9-23.1-51-51.1-50.6c-27,0.4-49.4,22.6-49.9,49.3C1294.8,220.6,1318.2,243.3,1346.5,243.1z
			 M1143.4,228.5c-0.1,27.9,19.2,47.9,46.5,48.4c27.4,0.5,50.4-21.6,50.4-48.4c0-25.1-22.7-48.4-47.9-49.1
			C1165.2,178.7,1143.5,200.4,1143.4,228.5z M1803.4,2685.7c-29.9,5.1-53.7,9.1-83.4,14.1c21.9,13.4,34.7,27.4,49.5,45.1
			C1776,2721.8,1787.4,2705.7,1803.4,2685.7z M1821.7,220.5c-8.9-10.5-14.1-16.6-20.3-24c-5.4,9.4-11.9,15-12.7,24
			C1798.9,220.5,1807.5,220.5,1821.7,220.5z M1536.9,2715.2c16.9,26.8,18.4,26.7,32.9,0C1559.8,2715.2,1549.7,2715.2,1536.9,2715.2z
			"/>
		<path class="st1" d="M2055.7,1700c-0.3,42.4-5.3,84.2-14.9,125.5c-25.4,110.2-83.2,150.8-195.3,136.6
			c-23.2-2.9-46.8-5.8-68.7-15.2c-56.9-24.3-68.2-82.7-23.7-125.5c12.2-11.7,26.8-21,40.1-31.6c31.3-24.8,43.8-60.4,33.4-94.7
			c-5.4-17.9-15.5-32-33.2-39.7c-43.7-18.9-79.1-44.9-73-99.2c6.3-56,50.8-100.5,108.2-110.3c72.2-12.4,129.1,15.3,172.8,71.1
			C2043.4,1570.3,2056.5,1633.3,2055.7,1700z M2016.3,1696.5c-1.4-15.2-2-34.8-5.4-53.9c-10.7-60.7-35.4-113.3-92.3-144.1
			c-55.1-29.8-117.5-16.1-146.7,31c-21.7,34.9-14,65.7,23.7,81c103.1,41.7,89.2,165.2,22.5,211.5c-12.6,8.8-25.3,17.9-36.4,28.4
			c-23.7,22.4-19.4,46.4,10.8,58.6c27.4,11.1,56.7,14.1,85.9,14.7c65.2,1.5,92.1-17.4,114.5-79.3
			C2009.7,1798,2012.3,1749.3,2016.3,1696.5z"/>
		<path class="st1" d="M1604.5,2382.3c-0.4-125.7,93.4-234.2,213.8-251.5c26.5-3.8,52.1,1.7,75.9,12.6
			c82.4,37.6,130.8,101.4,134.9,192.4c4,88.7-33.6,158.5-109.1,207c-48.2,30.9-100.8,45.1-157.4,37.9
			c-84.5-10.8-145.1-77.6-155.8-168.9C1605.5,2400.6,1605,2389.2,1604.5,2382.3z M1644.9,2371.5c0.7,34.6,0.7,34.6,34.5,28.8
			c70.6-12.1,121.1,32.5,122.4,108.2c0.6,36.7,0.8,36,36.1,27.3c16-4,14.8-11.5,13.2-24.3c-9.6-75.6,28.7-122.1,96.8-118.9
			c39.1,1.8,39.2,1.8,40.6-37.9c0.3-8.1-0.9-16.2-0.3-24.3c1.7-24.1-8.4-33.8-32.9-29.9c-8.4,1.3-17.9-0.8-26.3-3.3
			c-40.9-12.1-58-42-48.4-91.9c4-21-3.2-27.2-20.7-31.5c-21.9-5.4-42.7-2.3-63.9,3.4c-16.7,4.4-22.6,11.5-21.3,30.4
			c3.9,56.5-29.1,93.7-80.3,94.5c-38.5,0.6-38.7,0.5-45.9,38.2C1646.5,2350.4,1646,2361,1644.9,2371.5z M1761.6,2520.7
			c-0.3-65.5-33.3-93.6-88.1-78.3c-12.3,3.4-15.8,8-9.7,20.2c16.6,33.1,39.4,58.8,75.4,71.8
			C1756.8,2540.7,1763.8,2537.1,1761.6,2520.7z M1889.6,2487.9c5.9,3.7-9.1,28.5,14.4,16.5c24.1-12.3,41.4-33.6,56.2-56.4
			c4.5-7,4.3-10.9-5.3-13.3C1919,2425.8,1889.2,2448.9,1889.6,2487.9z M1921,2208.6c-2.4,16.3-7.3,30,5.7,41.8
			c10.7,9.7,22.7,11.2,37.8,4.6C1953.7,2237.2,1941.3,2221.1,1921,2208.6z M1685.1,2259.2c36.7,2,50-11.7,46.4-45.7
			C1710.4,2225.9,1700.4,2235.6,1685.1,2259.2z"/>
		<path class="st1" d="M1361.8,821.3c0.3,21.3-11.7,34.5-31.5,34.6c-20.1,0.1-36.1-15.4-35.7-34.5c0.4-18.2,17.6-33.8,37.3-33.8
			C1349.7,787.6,1361.5,800.8,1361.8,821.3z"/>
		<path class="st1" d="M1824.3,822.9c-17.4-0.5-31.5-15.8-31.2-33.8c0.3-18.7,17.8-36.3,36-36.1c18.3,0.1,29.2,12.9,29,34.2
			C1857.9,809.8,1845,823.5,1824.3,822.9z"/>
		<path class="st1" d="M1823,2294.5c29.3-0.5,51.6,20.5,51.9,48.9c0.4,27.7-22.1,51.8-49.5,53.2c-27.5,1.4-52.7-23.3-53.1-52
			C1772,2316,1793.3,2295,1823,2294.5z"/>
	</g>
</g>
</svg>
