<?xml version="1.0" encoding="utf-8"?>
<!-- Generator: Adobe Illustrator 23.0.0, SVG Export Plug-In . SVG Version: 6.00 Build 0)  -->
<svg version="1.0" xmlns="http://www.w3.org/2000/svg" xmlns:xlink="http://www.w3.org/1999/xlink" x="0px" y="0px"
	 viewBox="0 0 3000 3000" style="enable-background:new 0 0 3000 3000;" xml:space="preserve">
<style type="text/css">
	.st0{stroke:#000000;stroke-width:10;stroke-miterlimit:10;}
</style>
<g id="Layer_1">
</g>
<g id="Layer_2">
	<g>
		<path class="st0" d="M926.7,2360.9c-57.7,62.3-123.4,111.3-197.7,148.3c-115.1,57.4-233.5,75.7-357.3,29.4
			c-91.6-34.3-157.4-98.3-207.3-180.3C44.2,2160.9,86.6,1943,221.2,1769c40.2-52,87.1-97.3,139.5-136.7c9.3-7,17.2-12,8.7-26.2
			c-49.8-83.4-68.5-175.5-69.6-271.1c-2.6-228,63.8-433.4,208-611.5c111-137.1,257.3-212.8,430.1-236.7
			c253.7-35.1,507.9-66.1,764.8-58.8c59.2,1.7,117.7,11.8,173.5,33.1c153.2,58.5,233.3,176.9,268.7,330.9
			c72.8,316.7-85.2,724-352.3,909.1c-7.4,5.1-14.9,10.2-22.6,14.9c-30.5,18.8-30.2,29.1,1.6,47.5c17.2,10,35.9,12.4,55.3,10.8
			c61.2-5.2,118-22.6,168.4-58.9c17.1-12.3,34.3-24.5,52.3-35.5c59.6-36.4,121.5-21.1,158.1,38.4c21.6,35,32.1,74.2,35.1,114.1
			c17.3,226.8-45.1,423.5-225.7,571.8c-66.8,54.9-146,88.2-230,106.9c-162.8,36.1-327.1,63.6-494.6,62.8
			c-72.7-0.3-144.2-10.5-211.2-41.4c-69.9-32.1-120.3-82.4-145.2-156.4C932.6,2371.6,929.9,2367.4,926.7,2360.9z M530.4,953
			c46.5-9.5,88.2-6.3,129.5,4.1c87,21.9,126.2,72.4,126,161.2c-0.2,63.3,2.2,126.4,9.6,189.3c4.2,35.7,24.6,54.9,58.1,64.1
			c46.8,12.8,94.6,17.9,142.7,20.5c120.7,6.5,241.4,1.9,362.1-1.3c54.1-1.4,108.4-5.1,161.4-17.8c72.3-17.3,91.8-53.3,68.7-124.2
			c-9.9-30.4-20.7-60.7-28.3-91.7c-21.5-87.6,9.6-156.3,88.8-199.6c51.1-27.9,106.9-39.6,163.7-47.7c59.6-8.5,119.6-9.4,179.6-9.3
			c19.6,0,24.4-6.1,21.3-24.3c-6.2-36.6-13-73.1-25.6-108.2c-40-110.6-118.6-173-234.6-189.8c-52.9-7.6-106-9.1-159.2-8.1
			c-126.6,2.3-252.4,16.3-378.3,28.3c-110.7,10.6-222,18.6-330.4,46.7C717.6,688.6,608.9,799.4,530.4,953z M790,1942.5
			c-0.3,51.1,6.8,104-16.6,153.3c-50.4,106.1-204.6,127.8-297.4,24.4c-3.3-3.7-9-9.2-5.4-12.6c15.2-14.4,30.4-29.8,48.2-40.3
			c10.6-6.3,17.4,9.6,25.2,16c36.6,29.9,76.8,38.7,120.8,20.5c44.4-18.3,52.7-57.8,52.1-99.7c-0.8-62.3-4.6-124.4-11.5-186.4
			c-1.7-15-7.9-22-22.2-27.6c-62.5-24.8-131.4-29.9-191-63.2c-10.5-5.9-17.1,1.1-24.3,6.1c-83.8,58.8-151.3,132.1-194.1,225.8
			c-55.4,121.2-48,238.2,29.6,348c56.3,79.7,132.6,120.4,232.2,112c179.2-15.1,371.9-202.6,392-381.8c6.1-54.8,12-109.6,19-164.3
			c2.1-16.3-2.4-23-18.9-25.8c-43.5-7.3-86.8-16.1-130.1-24.7c-12.6-2.5-18.5-1.3-16.8,14.3C785,1871.3,787.1,1906.4,790,1942.5z
			 M1480.8,2417.4c57.4-8.7,107.8-16.8,158.3-23.9c13-1.8,18.8-10,24.3-19.9c37.8-68.9,37.1-138.1-9-201.2
			c-21.5-29.5-18.9-45.5,9.2-63c0.8-0.5,1.6-1.3,2.2-2.1c12.7-16.9,22.2-16.7,36,1.4c54.6,71.6,73.9,150.1,52.7,238.2
			c-1.7,7-9.2,14.2,0.4,23.2c21.1-6.8,42.9-13.8,64.7-21.1c7.6-2.6,15.3-5.7,18.7-14c35-84.4,71-168.8,75.1-261.7
			c2.5-56.4-16.9-71.4-74-61.7c-66.1,11.2-129.4,35.1-196.7,41.9c-95.1,9.7-172.2-35-208.8-123.6c-10-24.3-16.6-49.5-20.7-75.3
			c-2.1-13-6.9-15.6-19.8-13.6c-91.4,14.3-183.3,23.9-276,21.2c-16.9-0.5-19.1,6.5-19.9,21.1c-1.7,32-3.7,64.3-9.2,95.8
			c-17.1,97.1-28.7,194.6-26,293.3c2.2,79.5,31.5,116.6,107.7,139.8c62.5,19,126.7,18.4,191.1,16.8c15.1-0.4,23.6-9.8,32.3-19.4
			c74.3-81.9,82.5-192,21.6-286.1c-25-38.7-24.3-37.9,10.3-70.5c14.5-13.7,21.7-10.9,32.7,3.2c29.4,37.8,51.4,79.1,62.5,125.7
			C1539.8,2262.8,1527.9,2339.3,1480.8,2417.4z M1061.8,1594c-0.2,0-0.4,0-0.7,0c0-32.1-1.3-64.3,0.4-96.4
			c1.2-21.7-5-29.8-27.9-30.3c-62.2-1.4-124.3-5.3-185.1-20.4c-89-22.2-126.1-67.4-130.7-159.7c-3-60.1-8.6-120.2-5.5-180.5
			c1.8-35.5-15.2-57.3-46-69.6c-48.3-19.4-97.5-20.7-147.2-4.9c-19.5,6.2-31.1,17.8-37.2,38.6c-14.3,49.2-27,98.8-32.7,149.6
			c-10.7,96.7-9.4,192.4,29.9,284c26.4,61.5,71.1,101.2,137,115c22.6,4.7,44.6,10.5,66.4,18.1c115,40.4,232.9,67,354.7,76.5
			c21.1,1.7,25.7-4.4,24.9-23.8C1060.8,1658.3,1061.8,1626.1,1061.8,1594z M1405.6,1578.5c0,31.1,0.4,62.3-0.2,93.4
			c-0.3,14.3,0.8,21,19.4,18c179.1-28.8,329.5-105.6,435.6-257.4c90.5-129.6,142.1-273.2,155-430.9c1.8-21.7-5-28.2-26.1-27.1
			c-37.1,2-74.5,0-111.4,3c-62,5-123.9,12.2-181.4,39c-63.1,29.4-82,70.8-61.7,136.9c8.2,26.9,18.3,53.1,26.1,80.1
			c30.8,107.1-9.2,178.8-116.2,209c-37.9,10.7-76.7,15.6-115.9,17.3c-17.3,0.7-24.8,6.4-23.8,25.2
			C1406.7,1516.1,1405.5,1547.3,1405.6,1578.5z M2090.6,1826.1c-56.3,40.6-116.2,67.3-181.6,82.2c-119.2,27.2-221.8,8.3-292.5-102
			c-6.9-10.8-14.4-11.4-25.3-8.3c-29.9,8.5-59.9,16.7-90,24.1c-13.2,3.2-19.1,8.7-14.7,23c5.9,19.1,9.1,39.2,16.5,57.7
			c22.1,55.2,62.8,80.6,122.5,77.7c25.1-1.2,49.6-6,74.2-11.7c55.5-13,109.8-32.9,167.7-33.4c59.9-0.6,103.7,33.2,115.9,89.4
			c4.9,22.5,6.2,45.5,4.1,68.9c-5.5,60.2-24.2,117.2-42.4,176.8C2051,2201.2,2131.9,1955.4,2090.6,1826.1z M1242.8,1590.7
			c-0.9,0-1.8,0-2.6,0c0,33,1.5,66.2-0.6,99.1c-1.3,19.8,5.1,24.9,23.3,22.3c28.7-4.1,57.5-7.8,86.4-10.6c13.6-1.3,19-6.4,18.7-20.6
			c-1.3-66.1-1.9-132.2-2.4-198.4c-0.1-12.1-3.4-18.4-17.1-17.8c-27,1.2-54.1,1.6-81.1,1.4c-14.2-0.1-18.7,5.4-19.1,19.5
			C1247.5,1520.7,1244.8,1555.7,1242.8,1590.7z M1205.6,1593.6c0.3,0,0.6,0,1,0c0-14,1.1-28.1-0.2-42c-2.5-26.7,14.6-62.1-2.8-77.7
			c-18.2-16.3-53.6-2-81.3-4.4c-18.2-1.5-24.4,4.9-23.9,23.6c1.6,50,1.2,100.2,1.7,150.2c0.8,81.4,0.8,81.1,81.6,74.6
			c13.8-1.1,19-4.9,19.3-19.3C1201.5,1663.6,1203.9,1628.6,1205.6,1593.6z"/>
		<path class="st0" d="M2780.3,452.2c80.8-1.5,133.4,26.8,158.5,85.5c29.4,68.9,14.7,165.9-33.2,214.8
			c-21.2,21.7-49.3,30.4-77.8,36.8c-78.3,17.6-157.1,32.1-237,39.8c-16.9,1.6-34.1,1.8-51,0.3c-20.5-1.7-41-7-47.3-30.3
			c-6.4-23.6-2.1-45.8,15.7-64.1c21-21.6,48.7-27.2,76.8-30.2c44.9-4.7,90-6.9,134.8-11.8c15.7-1.7,31.2-7.1,46.1-12.7
			c21.5-8.2,32.9-25.8,36.7-47.9c7-39.9-17-60.3-54.4-45.6c-42.8,16.8-84.1,37.7-129,49c-35.1,8.8-70.3,15.8-106.8,15.2
			c-35-0.6-64.3-14.1-89.5-37.2c-29.7-27.2-28.2-52.9,4.6-77.3c38.6-28.8,84-42,129.6-54.2C2630.2,462.9,2705.1,456.5,2780.3,452.2z
			"/>
		<path class="st0" d="M2588.4,1607.2c-47.3,2.1-94.5,1.9-141.4-4c-39.1-4.9-57.1-18.8-59.3-44.3c-2.9-33.4,17.4-61,52.8-70.5
			c37.6-10.1,75.9-6.7,113.8-2.5c30.1,3.3,60.2,3.8,90.3,2.6c28.1-1.1,54.3-8.9,68.1-36.5c9.3-18.6,13.3-38.9-0.8-57
			c-13-16.8-31.6-10.4-47.5-6.1c-46.5,12.5-92.5,26.9-140.7,31.3c-43,3.9-86.9,8.5-127.5-10.2c-33.2-15.3-68.5-35.9-66.4-77.2
			c2-38.6,40.8-46.4,70.9-55.1c113.1-32.8,228.6-32.5,343.3-13.8c97.5,15.9,143.9,88.7,125.2,187.7
			c-13.5,71.2-50.4,146.1-154.5,147.9C2672.5,1600.3,2630.5,1604.5,2588.4,1607.2z"/>
		<path class="st0" d="M2538,1957.7c95.3,1.7,187.2,22.1,276.6,53.2c74.4,25.8,109.2,70.1,110.9,134
			c2.1,77.6-46.5,162.3-108.3,188.2c-31,13-63.7,9.3-95.2,5c-75.5-10.3-151-21.6-224.8-41c-13.5-3.6-27.2-7.7-39.8-13.7
			c-20.9-9.9-41.8-20.5-39.7-49.6c1.9-26.7,21.8-50.5,50-57.3c25-6,49.9-2.1,74.5,3.3c47.9,10.6,93.6,30,142.5,36.7
			c45.9,6.3,76.9-12,86.4-50.5c6.4-26.1-3.8-42-30.4-43.4c-18.9-1-38.1,1-57.1,2.6c-61.7,5.5-122.4,0.4-182-15.9
			c-40.8-11.2-71.5-35.8-89.9-74.4c-14.7-30.7-6.3-52.3,25.3-65.1C2469.4,1957,2503.8,1958,2538,1957.7z"/>
		<path class="st0" d="M1197.9,950.6c-37.1-0.5-74.2,1.7-111.3-2.9c-40.1-5-62.2-30.7-74.7-65.5c-12.2-33.8-5.9-65.4,19.5-91.9
			c40.9-42.6,93.4-57.2,150.1-58.2c51.8-0.9,103.7,0.2,155.2,8.7c59.7,9.9,91.7,41.1,91.9,89.6c0.1,55-37.7,99.7-92.7,109.7
			C1290.2,948.4,1244.1,949.6,1197.9,950.6z M1198.5,841.8c0-18-0.1-36,0-54.1c0.1-10.3-2.2-16.7-15-16.6
			c-45.5,0.2-87.3,10.2-121.1,42.7c-21.9,21.1-22.9,44.1-7.6,70.6c16.9,29.3,44.5,25.7,71.1,26.7
			C1199.8,913.7,1199.8,913.7,1198.5,841.8z M1279.9,772.1c-43.1-1.6-43.2-1.6-43.2,29.4c0,30,0.9,60,0.2,89.9
			c-0.3,14.4,4.8,19.3,19.1,18.8c30-1.2,59.9-3.3,88.6-12.6c28.6-9.3,46.1-38.7,44.5-70.7c-1.5-30.4-22.8-40.3-47.5-45.3
			C1317.2,776.7,1292.4,774,1279.9,772.1z"/>
	</g>
</g>
</svg>
