<?xml version="1.0" encoding="utf-8"?>
<!-- Generator: Adobe Illustrator 23.0.0, SVG Export Plug-In . SVG Version: 6.00 Build 0)  -->
<svg version="1.0" xmlns="http://www.w3.org/2000/svg" xmlns:xlink="http://www.w3.org/1999/xlink" x="0px" y="0px"
	 viewBox="0 0 3000 3000" style="enable-background:new 0 0 3000 3000;" xml:space="preserve">
<style type="text/css">
	.st0{stroke:#000000;stroke-width:10;stroke-miterlimit:10;}
</style>
<g id="Layer_1">
</g>
<g id="Layer_2">
	<g>
		<path class="st0" d="M902.1,2203.1C742.9,2053,667.2,1869,669.9,1653.9c2.7-215.8,94.9-393.9,242.3-548.8
			c-54.3-21.5-98.2-55.5-133.5-100.1c-73.6-92.7-98.1-199.6-82.2-314.9c22.9-165.7,97-308.7,207-432.8
			c88.5-99.9,205.2-151.2,332.8-180.3c76.5-17.4,154.3-25,232.5-27.7c129-4.4,258-6.7,386.8,3.6c76.6,6.1,152.6,16.2,226.5,39.2
			c156,48.5,241.7,167.5,261.4,322.2c16.8,132.5-23.7,250.8-93.3,361c-32.2,51-69.8,98-111.5,141.5c-9.7,10.1-12.9,15.3,1.6,24.7
			c74.4,48.6,105.7,122.5,119.4,206.8c11.3,69.6,13,139.6,11.6,209.9c-2.3,119.1-10.2,237.5-41.6,353.3
			c-46.4,170.9-126.6,324-239.8,460c-6.4,7.6-12.8,15.2-20.4,24.3c12.4,6.2,23.7,11.1,34.4,17.3c80,46.6,119.7,120.3,134.8,208.1
			c24.4,142.1-22,264.1-114.8,369.5c-109.7,124.6-251,173.3-414.7,164.6c-109.1-5.8-215.3-30.7-322.6-48.2
			c-91.7-15-183.3-15.9-275.5-3.7c-70.3,9.3-141.3,17.3-211.3-0.1c-126.1-31.3-192.8-118.6-217-241.1
			c-25.9-131.2,22.1-241.4,105.1-339.7c27.3-32.3,59.4-59.6,95.2-82.4c30.4-19.3,63.1-31.7,99.4-34
			C888.3,2205.7,894,2204.4,902.1,2203.1z M1589.8,95.9c-101.2,0.5-223.5,2.2-343.6,29.3c-132.6,29.9-249.2,87.7-334.8,197.2
			c-66.4,85-116.6,179-147.4,282.4c-27.1,90.8-34.7,182.8-0.7,273.6c31.7,84.8,85.6,150.3,173.2,183.2c11.1,4.2,19.6,3.8,29.1-4.6
			c38-33.8,79.2-63.6,122.9-89.6c9.1-5.4,10.8-10.6,8.2-20.8c-6-23.3-8.1-47.3-6.7-71.5c3.9-68.4,29.3-128.3,71.4-181.5
			c6.1-7.8,8.6-12.5,1-21.8c-43.1-52.5-54.6-113.6-43.6-179.1c12.7-75.8,54.9-134.7,115.4-179.2c146-107.4,310.5-145.1,488.9-118.3
			c95,14.3,175.7,57.6,236,134.8c89.5,114.7,71.9,269.8-30,348.3c-10,7.7-4.7,13-0.9,19.9c26.4,47.7,37.4,98.5,27.9,152.6
			c-2,11.3,2.1,13.8,11.1,16c33.1,8.1,65.6,18.7,96.3,33.2c13.6,6.5,21,3.1,30.4-6.8c45.7-48.2,87.5-99.3,121.9-156
			c58.3-95.8,92.8-198.3,79.3-312.3c-10.7-90.8-44.6-170.2-117.7-229c-53-42.7-116.1-62.2-181.5-74.8
			C1868.8,96.2,1739.9,94.5,1589.8,95.9z M1782.4,2104.2c-5.2-1.9-7.1-2.8-9-3.3c-2.6-0.7-5.2-1.3-7.8-1.7
			c-96.8-17.7-178.1-63.4-243.3-136.8c-55.9-62.9-89.7-134.2-77.4-221.2c8.3-58.9,33.2-111,67.4-158.9
			c69.3-96.9,165.6-157.5,273.8-201.5c53.3-21.7,108.4-37.7,164.8-49c8.1-1.6,18.8-0.1,17.1-15.7c-6.2-56.3-23.9-108.3-57.2-154
			c-46.9-64.3-111.9-80.2-183.6-47.2c-19.9,9.2-39.6,19.3-60.4,26.2c-47.5,15.8-82.7,3-111.5-38c-6.1-8.8-11.8-17.9-18.7-26
			c-43.4-50.5-92.8-79.8-164.6-64.5c-93.1,19.8-173,62.4-243.1,124.4c-120.1,106.3-209.1,233.3-250.8,390.2
			c-3.1,11.6-8.6,23.3-6,36.8c13.3-6.2,25.2-16,37.4-16.5c41.8-1.6,45.2-25.7,47.1-60.5c4-72.7,52.8-109.6,128.8-103.2
			c7.4,0.6,9-3.4,11.5-8.2c17.5-32.8,45.7-51.6,81.3-59.6c50.1-11.3,100.7-11,151.3-4.7c27,3.4,51.9,13.1,73.2,30.1
			c20.2,16.1,35,39.6,64,42.8c4.1,0.5,13.5,4.7,6.6,12.5c-8.8,9.9-17.3,22.8-28.7,26.8c-17.3,6.2-23.9,17.6-28.2,32.9
			c-2.9,10.3-6.1,20.4-9.1,30.6c-12.3,42.5-41.8,65.9-84.2,73c-38.5,6.4-77.4,5.4-115.9-0.4c-47.6-7.1-82.7-31.9-102.1-77.2
			c-5-11.6-10.8-23-17.1-34c-12.2-21.4-29.3-25.7-50.4-13.4c-15.2,8.9-24.5,22.1-29.8,38.7c-6.1,19-3.2,38.4-4.4,57.7
			c-0.7,10.1,4,13.9,12.5,16.9c28.3,10.2,52.6,26.6,70.1,51.2c7.5,10.6,15.6,13.8,28.1,13.8c90.2-0.1,180.5,1.3,270.7,0.3
			c22.2-0.3,20.9,10.5,20.9,25.6c0,15.3,0.7,25.8-21.2,25.2c-83.5-2-167.1-1.4-250.6-2.5c-13.7-0.2-19.8,2.1-15.9,17.6
			c2.3,8.8,2.8,19,0.8,27.8c-4.1,17.7,3.4,20.8,19.2,21.9c117.7,7.9,212.7,84.2,246.1,197.4c25,84.7,19.7,170.5,6.1,256.2
			c-1.9,11.7-4.7,20,13.4,19c99.4-5.8,198.8-10.5,298.2-15.4c7-0.3,13-1.4,17.8-7.2C1740.1,2154.8,1760.6,2130.3,1782.4,2104.2z
			 M1784.3,2180.4c19.2,0,35.8-0.2,52.3,0c16.7,0.2,33.6-0.8,50,1.6c20.1,3.1,33-3.6,46.2-18.8c166.8-193.1,264.6-415.6,283.1-670.6
			c8.1-111.8,12.2-223.9-4.4-336c-14.8-100.3-65.6-170-159.2-208.5c-14.8-6.1-29.5-12.7-44.7-17.6
			c-193.1-62.8-389.8-78.9-589.1-38.5c-247,50-446.6,175.3-583.2,389.5c-139.6,219-156,449.6-47.9,687.3c3,6.6,4.6,14.8,13.3,18.9
			c2.6-11.2,4.4-21,7.1-30.6c2.9-10.3,6.3-20.5,10.3-30.3c4.5-10.9,5.1-21.1,2.6-33c-25-119.5-22.5-239,4.4-357.8
			c33.8-149.5,111.5-275,216.3-384.5c116.5-121.6,254.6-198.8,427.7-194.7c127.7,3,255.3-1.2,382.9,3c59.4,2,116.3,17.5,167.7,48.2
			c84.6,50.4,118.4,130,127.3,224c10.5,109.9-3.4,217.8-31.1,323.5c-53.2,203-150.8,384.5-275.2,552.4
			C1823,2131.9,1804,2155.1,1784.3,2180.4z M656.5,2731.9c2.7-5.6,4.7-8.9,6.1-12.5c15.7-40.6,33.7-80,59.6-115.3
			c49.3-67.4,111-113.4,198.9-113c5.8,0,10.1-1.1,13.4-6.3c34.1-54,87.8-80.5,144.7-102c66.3-25,136.1-32.7,206.1-37.3
			c105.6-7,211.1-9.1,315.3,14c121.1,26.8,226.1,80.6,300.7,183.6c6.3,8.8,13.6,9,22.4,8.7c50.1-1.3,100.2-3.4,150.3-3.3
			c15.6,0,19.6-6.3,20.4-19.4c2-33.4,3.1-66.9-3.8-99.9c-26.9-128.8-99.3-202.9-236.8-198.9c-53,1.5-106,3.2-158.9,5.6
			c-150.9,6.9-301.7,15.4-452.6,21.1c-98.1,3.7-196.4,6.4-294.6-1.4c-51.5-4.1-100.8-0.9-145.6,30.7
			c-78,55.2-133.2,127.1-162.6,217.6C614.3,2580.7,621.8,2656.4,656.5,2731.9z M1624.8,235.7c-99.3,0-193.4,22.6-282,66.8
			c-68.2,34-128.1,78.5-160.6,150.4c-27.7,61.3-25.5,121.8,11.6,179.6c7.2,11.2,12.3,15.1,25.5,4.5c37.2-29.9,79.1-52.3,124.5-67.2
			c101.2-33.3,205-42.1,310.6-30.1c86.2,9.8,165.8,35.7,228.8,99c7.5,7.5,12.4,4.3,18.5-0.6c27.3-22.1,45.3-50.7,56.4-83.6
			c27-80.6-2.7-172.4-76.1-235.3C1807.8,255.6,1719.2,236.4,1624.8,235.7z M1491.9,1774.6c-0.5,28.6,4.7,56.3,18,81.5
			c62.5,118.6,162.5,182.1,294.1,199c10.8,1.4,17.4-2.2,23.2-11.1c19.5-30.3,40.5-59.7,59.3-90.5c107.1-174.8,189-359,210-565.9
			c1.8-17.4-1.4-21.5-18.8-20.9c-125.1,4.7-242.1,38.6-352.2,96.9c-60.2,31.9-114,72.3-156.8,125.9
			C1525.2,1643.7,1493.5,1703,1491.9,1774.6z M1957.2,2597.5c0,1.1,0,2.3,0,3.4c-22.7,0-45.5-0.6-68.2,0.2
			c-19.1,0.7-44-6.9-55.8,5.3c-10.9,11.3-2.8,35.7-3.1,54.3c-0.4,32.6-0.1,31.9-33.3,32.1c-13.8,0.1-17-4.8-16.4-17.4
			c0.9-18.7-0.4-37.5,0.5-56.1c0.6-12.6-4.2-15.9-16.1-15.6c-46.8,1.4-93.6,1.9-140.4,3.1c-17.9,0.4-41.5-4.8-52.3,4.5
			c-12.6,10.8-3.4,35.1-4.1,53.5c-1.2,31.6,5.2,29.2-30.8,29.4c-0.7,0-1.3-0.1-2,0c-12.8,1.6-18.1-3.3-17.4-16.8
			c1-17.3-0.5-34.8,0.4-52.1c0.7-12.8-2.9-17.6-16.6-17.1c-50.1,1.9-100.2,3-150.4,3.6c-11.3,0.1-15.1,3.3-14.8,14.7
			c0.6,27.4,0,54.8,0,82.2c0,33.2,0,32.6-32.7,32.6c-13.1,0-17.4-3.8-16.8-17c1.1-24,0.7-48.1,0.8-72.2c0.3-40.1,0.2-40.1-38.9-40
			c-19.4,0.1-38.8,0.1-58.2-0.1c-12.4-0.2-24,2.9-34.5,8.9c-13.1,7.4-21.1,20.3-17.5,34.5c15.8,61.3,6,119.3-19.5,175.6
			c-4.5,10-4.4,14,8.3,13.9c111-0.9,218.8,22.9,327.3,42c89.7,15.8,179.7,28.9,270.7,13.8c171.4-28.5,284.4-128.9,348.7-287.8
			c4.7-11.6,3.6-16.2-10.9-15.7C2028,2598.3,1992.6,2597.5,1957.2,2597.5z M861.9,2085.9c4.5-1.1,4.6-4.9,5.8-7.8
			c19.8-49.3,56.5-80.1,106.4-95.6c52.3-16.3,104.3-10.8,155.8,4.7c33.1,10,32.4,9.9,20.3,42c-4.7,12.6-9.6,14.2-21.8,9.6
			c-32.7-12.4-66.8-18-102.1-16.5c-58.6,2.5-106,38.1-116.8,88.9c-3.6,16.8-1.9,31.3,13.2,42.8c17.5,13.4,35.3,26.7,50.7,42.4
			c8.1,8.2,14.3,14,26.8,14.2c106.3,1.8,212.5-2,318.7-4.6c15.2-0.4,19.1-7.8,21.4-20.1c12-64.8,17-130.1,7.8-195.4
			c-11.6-82.4-47-150.9-125.7-188c-177-83.4-380.6,43.9-375.8,245.3C846.8,2062.8,848.4,2076.7,861.9,2085.9z M1567.4,583.5
			c-19.4,0.9-40.2,1.1-60.8,3c-86,8-169.3,26.1-241.2,77.3c-85.1,60.7-132.4,141.5-125.1,249c1.6,23,2.5,23.1,22.5,13.4
			c10.2-4.9,20.4-9.9,30.8-14.5c213-93.4,434.3-109.2,661.5-70.9c16.9,2.8,38.1,17,50.1,4.6c12-12.4,5.2-35.7,4-54.4
			c-0.1-2-0.8-3.9-1.2-5.9c-16.5-79.7-65.5-132.6-137.8-165.7C1706.2,590.3,1637.7,585.1,1567.4,583.5z M983,2501.4
			c48.5,18.2,88.6,45,119.4,84.4c5.2,6.7,8.4,7.7,15.6,2c22.2-17.7,48-24.7,76.3-24.7c209.8-0.4,419.5-5.8,629.3-10.1
			c6.3-0.1,13.2,1.9,20.5-3.8c-10.5-14.1-22.8-26-35.7-37.3c-85.7-74.6-188.6-105.2-299-116.7c-82.8-8.6-165.6-5.7-248.2,1.1
			c-65.9,5.4-131.5,15-192.4,43.3C1037.1,2454.5,1006.6,2470.8,983,2501.4z M925.5,2862.1c21.6-0.5,57.4-7.3,93.2-8.4
			c29.3-0.9,43.8-13.4,54.7-38.7c22.4-52.6,35.1-105.7,12.2-160.9c-52.4-126.2-207.9-151.4-301.1-49.3
			c-36.2,39.7-58.5,87.2-77.4,136.8c-18.6,48.8-18.6,48.1,22.9,78.8c14.2,10.5,18.9,8.1,26.6-7.4c41-82.4,106.2-135.6,196.3-157.2
			c4.4-1.1,11.7-3.5,13-1.7c9,11.7,6.8,26.7,9,40.2c1.8,10.7-9.8,8.4-16.1,10.1c-71.8,19.6-123.6,63.2-158.2,128.7
			c-7.7,14.6-3.8,19.1,11,22.1C844.4,2861.7,877.5,2864.6,925.5,2862.1z M1539,1009.5c24.2,20.1,41.4,43.6,58.5,67.3
			c16.5,22.9,33.2,27.4,59,16.2c17.7-7.7,34.9-16.6,52.6-24.5c86.9-38.7,169.7-20.7,231.1,52.2c42.4,50.3,65.4,109.7,74.4,174.6
			c4.5,32.2,2.2,25.1,30.2,24.1c13.4-0.5,26.7-2.5,40-1.9c13.3,0.7,17.4-4,17.1-17.1c-0.8-39.5-3.1-78.9-12.3-117.4
			c-13.4-56.3-42.7-102-93.4-132c-49.5-29.3-104-42.3-160.8-43.1c-96.2-1.4-192.4-0.5-288.7-0.4
			C1545.1,1007.5,1543.4,1008.3,1539,1009.5z M862,1847.1c53.7-63.5,116-101.8,193-114.6c7.6-1.3,11.4-5.4,12.7-13.1
			c6.4-36.4-0.8-69.7-26.4-96.6c-31.7-33.4-71.8-44.9-115.2-29.1c-43,15.7-70.3,46.2-72.4,95.3
			C851.6,1740.4,854.4,1791.2,862,1847.1z M1269.1,1356.5c-28.1,0.5-56.3,0.9-83.5,8.4c-24.5,6.7-44.8,20-49.1,47.1
			c-5.7,35.9,28.8,87.1,64.3,95.8c37.9,9.3,76.6,9.6,115.1,3.6c23.8-3.7,39.7-16.7,45.4-41.6c4.1-18.1,8.8-36.3,17.8-53
			c11.6-21.5,10.8-25.3-9.7-38.9C1338.8,1357.6,1304.2,1355.7,1269.1,1356.5z"/>
		<path class="st0" d="M1950.7,1695.4c-0.4,60.7-32.8,109.8-81.2,122.7c-77.3,20.7-151.3-44.7-142.6-126.9
			c6.1-57.5,38.1-96.9,89.2-121.3c30.3-14.5,58.9-8.8,83.9,12.4C1934.8,1611.8,1950.6,1650.2,1950.7,1695.4z M1902.1,1696.4
			c-1-30.1-9.9-56.4-33.5-76.3c-9.4-7.9-19.5-10.4-31.5-6.1c-33.3,12.1-61.9,53.1-61.4,88.6c0.6,39,26.2,67.9,62.3,70.3
			c30.4,2.1,54.6-20.9,61.8-58.8C1901,1708.2,1901.4,1702.2,1902.1,1696.4z"/>
		<path class="st0" d="M1562.6,803.5c-35.1,0-61.2,0.3-87.2-0.1c-46.8-0.6-71.4-36.7-54.5-80.8c16.5-43.2,52-63.3,94.5-71.3
			c42.9-8.1,86.6-6.7,129.6-0.4c43.8,6.4,73.8,40.2,74,79.3c0.2,36.7-27.2,64.7-69.5,68.6C1617.6,801.7,1585.5,802.3,1562.6,803.5z
			 M1556.3,754.7c0-1.4,0-2.8,0-4.3c28.7,0,57.4,0.9,86.1-0.4c11.2-0.5,25.4-1.8,27-18.1c1.6-15.2-8.5-22.9-20.5-28.8
			c-2.4-1.2-4.9-2.5-7.5-2.8c-45.2-4.4-90.5-9.2-134.9,4.4c-16.1,4.9-30.1,14.6-37.8,30.7c-5.8,12-6.2,20.1,11.5,19.5
			C1505.5,754.1,1530.9,754.7,1556.3,754.7z"/>
	</g>
</g>
</svg>
