<?xml version="1.0" encoding="utf-8"?>
<!-- Generator: Adobe Illustrator 23.0.0, SVG Export Plug-In . SVG Version: 6.00 Build 0)  -->
<svg version="1.0" xmlns="http://www.w3.org/2000/svg" xmlns:xlink="http://www.w3.org/1999/xlink" x="0px" y="0px"
	 viewBox="0 0 3000 3000" style="enable-background:new 0 0 3000 3000;" xml:space="preserve">
<style type="text/css">
	.st0{stroke:#000000;stroke-width:10;stroke-miterlimit:10;}
</style>
<g id="Layer_1">
</g>
<g id="Layer_2">
	<g>
		<path class="st0" d="M534.9,508c-42.3,6.6-80,8.6-117.8,0.7c-70.3-14.6-118.2-56.4-146.2-121.2c-29.9-69.2-29.6-142.9-29.6-216.4
			c0-11.6,5.7-12.4,15.5-10.6c131.3,23.9,263.1,16.6,394.9,4.9c124.8-11.1,249.2-27.6,374.6-32.6c110.3-4.4,216.7,9.1,315.6,63
			c79.8,43.4,127.6,109,144.7,197.7c1.3,6.6,2.5,13.1,3.9,19.6c0.2,1.2,1.1,2.2,2.3,4.5c12.3-33.6,23.4-66.7,38.4-98.3
			c50.5-106.8,132.5-169.5,250.7-183.7c58.3-7,116.3-16,174.8-20.4c100.7-7.7,200.9,0.7,300.7,12.9
			c126.3,15.4,252.1,34.5,377.7,55.2c26.5,4.4,51.9,12.4,74.7,27.1c46.3,29.9,64.8,81.4,48.3,140.8c-20.8,75.2-68,125.7-145.1,144.9
			c-14,3.5-19.2,6.7-14.2,23.1c54,179.8,94,362.6,115.9,549.1c24.3,207,25.5,414-5.5,620.7c-14.3,95.2-35,188.7-70.6,278.4
			c-60.3,151.8-161.4,270.3-296.2,360.8c-14.5,9.7-16.2,13.7-1.1,24.9c45,33.1,83.5,72.6,111.7,121.4
			c27.7,48.1,41.3,99.8,37.1,155.2c-5.4,69.9-38.4,126.9-97.3,162.2c-120.9,72.5-251.1,121.2-394.3,122.6
			c-108.7,1.1-181.5-40.1-241.7-131.1c-8,13.2-15.4,26.4-23.8,38.9c-42.3,63-99.9,102.7-176,113.1c-90,12.3-180.4,21.5-271.2,11.1
			c-73.6-8.4-140.6-31.4-187-94.5c-13.2-17.9-21.7-38.1-30.2-60.6c-9.6,12.5-18.1,24.2-27.2,35.3
			c-58.3,71.2-132.8,115.1-223.8,128.2c-100.4,14.5-200.9,14.4-300.3-8.7c-45.9-10.6-88.4-29.3-126.7-57.4
			c-97-71.2-130.7-178.7-91.3-292.4c28.9-83.4,85.9-144.8,154.8-196.7c19.6-14.8,40-28.5,61.3-43.6
			c-74.9-54.1-133-121.2-179.4-198.7c-67.6-113-102.6-236.7-118.7-366.4c-17-137-12.4-274.3-5.5-411.8
			c4.8-97.3,7.8-194.6,25.6-290.8c32.5-175.7,105.6-333.2,212.2-476C475.4,577.6,503.9,544.3,534.9,508z M1410.6,1628.9
			c-217.8-1.3-486,3.9-754.2,12.7c-128.1,4.2-256,10.7-384.1,15.6c-13.8,0.5-17,5.8-15.8,18.2c2.1,21.9,2.7,44,4.6,65.9
			c10.2,115.8,34.9,227.8,85.6,333.2c17.9,37.3,38.8,73,63,106.6c23.9,33.1,51.3,63.1,80.3,91.7c29.1,28.7,63.5,50.1,98,70.7
			c47.2,28.1,99,46.2,152.5,58.4c113.8,25.9,230,29.7,345.8,35.6c195.4,9.9,390.9,11.7,586.4,8.2c118.8-2.1,237.3-9.7,353.8-35.8
			c217-48.5,389.9-162.2,510.5-350.3c72.7-113.4,102.5-242.1,122.6-373.3c3.7-24.1,2.9-23.9-21.8-25.1c-78-3.7-155.9-8.1-233.9-11.3
			C2089.8,1637.1,1775.6,1629,1410.6,1628.9z M2683.7,1349.6c-1.3-114.6-11.7-244.7-31.5-374.2c-23.8-155.7-60.4-308.4-105-459.3
			c-2.2-7.3-5.3-12.3-13.3-15.4c-42.8-16.6-85-34.9-128-51.1c-122.4-46.1-247.5-75-379.6-58c-127.1,16.3-234,69.6-315.1,170.9
			c-57.2,71.5-90.1,155-119.7,240.3c-4,11.5,0.6,13.2,10.9,13.3c47.4,0.4,94.7-2.8,141.9-6c75.9-5.1,151.6-8.7,227.6,1.5
			c174.7,23.4,283.3,123.2,320.8,296.1c21.5,98.8,11.1,197.9,4.5,296.9c-3.9,58.6-7.7,117.1-5.6,175.9c0.3,9.3,0.4,16.2,13.4,16.7
			c116,4.9,231.9,10.3,347.9,16.1c12.6,0.6,17.6-2.6,18.8-15.8C2678.7,1520.5,2684.1,1443.3,2683.7,1349.6z M1438.8,1447.1
			c2-124,11.6-242.2,31.8-359.5c24.8-143.6,60.8-284.2,119.8-417.9c61.3-138.9,157-244,302.6-296.6c110.4-39.9,224.1-44,339-23.7
			c104.5,18.4,202.5,56.6,299.8,97.4c7.9,3.3,15.6,7.9,24.7,7.5c76-3,132.2-35.8,154.4-117.2c13.2-48.2-3.9-78.3-50.5-95.7
			c-11.8-4.4-24-8.5-36.4-10.3c-110.7-16.7-221.5-32.3-332.2-49.2c-174.2-26.7-347.8-25.9-521.6,5.5
			c-81.1,14.7-141.3,55.5-180.9,127.7c-13.5,24.6-25.1,49.9-35.4,76c-13.5,34.1-21.3,70.3-38.9,102.7c-7.9,14.5-19.5,24.3-37.1,21.6
			c-16.8-2.6-24.8-15-27.6-30.4c-3.4-19-5.7-38.2-8-57.4c-8.5-72.4-37-134-100.1-174.1c-67.6-43-142.2-66.1-222.5-70.2
			c-137.3-7.1-272.9,13.2-408.9,26.2c-135.6,12.9-271.2,24-407.2,7.7c-12.2-1.5-13.3,3.3-12.7,13.1c1.8,31.3,4.5,62.6,10.9,93.3
			c20.1,96.4,82.9,145.1,181.1,141.1c43.2-1.8,84.4-12.8,123.5-30.4c55.3-24.8,109.3-52.5,164.8-76.7
			c73.4-32.1,149.9-43.1,228.7-23.3c145.4,36.5,246.3,128.1,313.6,259c56.2,109.2,73.4,227.7,76.7,348.7
			c3.8,142.4-16.2,283.5-25.5,425.2c-4.3,65.9-7.4,131.9-3,198c0.8,12.1,4.4,16.3,16.5,15.6c15.9-0.9,32-0.8,48,0
			c12.7,0.7,15.9-4.4,15.3-16.4C1439.4,1523.5,1437.1,1482.8,1438.8,1447.1z M253.7,1425.6c0,54.7,0.6,109.4-0.4,164.1
			c-0.3,16,4.6,20.3,20.3,19.4c73.3-4.1,146.5-7.8,219.9-10.2c17.2-0.6,21-6.3,20-22.2c-4.6-74.6-5.9-149.2,3.7-223.7
			c13.4-103.1,49.6-196.2,118.3-275.1C763.3,931.3,932,868.2,1119.1,844.3c65.5-8.4,131.6-11.5,197.6-11.8c13.3,0,16-4.4,13.6-16.3
			c-4.5-22.2-7.1-44.8-12.4-66.7c-30.6-127.4-90.6-236.1-201.7-311.2c-76.3-51.6-159.4-76.9-252-58.5
			c-80.9,16.1-150.6,59.5-223.8,94.2c-4.1,1.9-7.3,5.8-10.6,9c-49.6,47.7-96.2,98.1-137.4,153.3
			c-110.7,148.4-185.5,311.9-212.8,496.2C265.2,1229.8,264.6,1327.9,253.7,1425.6z M696.4,2914.6c25.1,1.1,57.7-0.6,90.2-4.2
			c73.8-8.2,139.4-34.7,192.3-88.3c89.4-90.5,114.6-202.4,107.5-325c-0.7-12.7-8.7-10.8-16.5-11.3c-61.2-3.9-122.5-6.8-183.6-12.2
			c-109.5-9.6-216.6-29.7-314.8-82.9c-6.5-3.5-11.7-4.3-18.2,0c-59.5,38.6-117.6,78.9-161.1,136.2c-43.1,56.7-68.8,120-57.3,191.9
			c13.1,82.5,69.3,131.2,142.1,162.7C544.4,2910.7,616.3,2915.1,696.4,2914.6z M1781.8,2659.3c-3.5,82.9,34.9,147.6,101.6,180.4
			c48.1,23.7,99.3,30.9,151.8,25.2c112.7-12.3,217.8-49.7,316.3-104.5c58.2-32.4,90.9-83.1,90-151.9c-0.6-41.6-12.9-79.9-34.5-115.4
			c-29.1-47.6-70.1-83.3-114.3-116c-10.2-7.6-17.8-7.1-28.6-1.4c-51.8,27.6-105.7,50.3-162.4,66.1c-79.8,22.3-161.2,35.4-243.5,43.6
			c-9.4,0.9-15.6,3.3-20.8,11.9C1805.4,2550,1781,2604.8,1781.8,2659.3z M1439.4,2496.2c0-0.8,0-1.5,0-2.3
			c-51.4,0-102.9,2.3-154-0.8c-34.2-2.1-61.5,8.8-86.1,29.5c-30.7,25.8-60.7,52.9-68.3,95.3c-4.2,23.6-8.9,47-15.2,70.2
			c-21.7,80.3,15.3,156.1,91.5,188.6c28.5,12.1,58.3,18.8,88.9,21.9c80.2,8.3,159.8-1.5,239.4-8.9c145.4-13.6,233.1-167.5,184-306.2
			c-19.9-56.3-67-87.7-126.6-87.4C1541.8,2496.4,1490.6,2496.2,1439.4,2496.2z M1193.4,1234.6c-2.1-70.8,2.8-125.8,7.9-164
			c7.2-54.2,0.1-109.4,0.4-164c0.1-15.4-2.9-20.6-19.7-19.3c-86.2,6.4-170.3,22-252,50.6c-10.3,3.6-16.2,7.4-16.5,20.5
			c-5.7,202.6-11.9,405.2-18.7,607.7c-0.6,16.5,4.2,19.9,19.7,19.5c86-2,172-3.5,258-4.1c16.2-0.1,21.4-4,21.3-20.9
			C1193,1452,1193.4,1343.3,1193.4,1234.6z M1975.5,1226.6c0.1,0,0.2,0,0.3,0c-2.1,113.4-3.8,226.8-6.8,340.2
			c-0.4,16.4,4.7,20.1,19.8,20.4c79.4,1.7,158.8,4,238.1,6.9c13.6,0.5,17.1-3.5,16.2-16.6c-4.2-64.8,2.6-129.3,6.4-193.8
			c4.9-83.1,12.8-166.1-1.8-249.5c-26.1-148.8-108-238.1-248.8-267.7c-11.9-2.5-16-2.1-16.2,11.9
			C1980.8,994.5,1978,1110.5,1975.5,1226.6z M1927.1,1219.9c-0.2,0-0.4,0-0.6,0c2.4-114,4.4-228.1,7.7-342.1
			c0.5-17.8-4.4-22.1-21.6-23c-66.8-3.5-133.2,3.4-199.7,6.2c-14.8,0.6-15.2,8.6-15.4,19.5c-5.3,228.1-10.6,456.1-16.4,684.2
			c-0.3,13.2,3.4,16.9,16.4,17c67.4,0.6,134.8,1.7,202.1,3.7c15.1,0.4,20.6-2.8,20.8-19.2C1922,1450.7,1924.7,1335.3,1927.1,1219.9z
			 M855.1,1277.3c-0.1,0-0.1,0-0.2,0c3.1-98.7,6.1-197.4,9.2-296.1c0.3-9.6,0.4-16.5-12.5-9.7c-130.4,68.5-229.1,164.6-270.2,310.6
			c-27.9,99.3-23.1,200.8-19.2,302.2c0.5,12.1,7.6,11.7,16.2,11.4c82.7-2.7,165.4-5.6,248.1-7.4c16-0.3,19.2-5.7,19.6-20.9
			C848.4,1470.7,851.9,1374,855.1,1277.3z M1640,1222.4c0.1,0,0.1,0,0.2,0c2.5-113.4,4.8-226.8,7.9-340.1c0.4-13.7-2.7-19.3-17.3-18
			c-13.9,1.2-28.1,1.4-42-0.2c-13.8-1.6-18.1,4.8-21.5,16.6c-62.9,224.1-86.6,452.5-77.4,684.8c0.5,12.9,5.3,15.3,16.7,15.1
			c34.7-0.5,69.4-0.9,104.1,0.6c16.6,0.7,21.1-4.2,21.4-20.7C1634.2,1447.8,1637.3,1335.1,1640,1222.4z M1250.2,1230.7
			c1,173-1.5,276.8-8,310.2c-1,5.3-5,25.2,4.9,35c4.9,4.9,14.7,4.8,34.2,4.7c32-0.1,31.9-0.1,30.2-31.1c-0.5-8.7-0.7-17.3-0.8-26
			c-2.1-136.4,15.7-271.5,25-407.2c5-73.2,9.4-146.4,3.4-219.9c-1-12.8-5.9-15.7-17.2-15.1c-18.6,1-37.3,1.6-56,1.4
			c-11.7-0.2-16,3.1-16,15.8C1250.4,1009.2,1250.2,1120,1250.2,1230.7z M1783.8,2490.1c-22.5,1.6-41.9,3-64.3,4.5
			c15,17.1,26.6,32.2,37.3,49.8C1765.7,2526.5,1773.9,2510.1,1783.8,2490.1z"/>
		<path class="st0" d="M1344.4,2369.9c-59.7,0.1-116.6,0.4-171.5-16.4c-63.8-19.6-113.5-56.7-134.4-122.6
			c-17.8-56.4-1-105.1,41.5-145.2c42.7-40.4,96-52.6,152.4-55.9c33.4-1.9,66.6,2,99.9,3.8c71.4,3.8,142.5,0.2,213.4-9.8
			c33.4-4.7,66.1-2.7,97.6,12.2c53.1,25,78.2,73.3,65.4,130.8c-13.2,59.7-51.5,101.4-100.1,134.6c-60,40.9-128,58.2-199.3,64.5
			C1386.7,2367.9,1364.1,2368.7,1344.4,2369.9z M1326.2,2321.1c23.4-1.1,48.1-1.6,72.7-3.6c63.7-5.3,125.1-19.1,179.4-55
			c38.7-25.6,70.4-57.2,82-104.2c9.4-38.1-6.5-67.5-43.3-80.7c-18.5-6.6-37.7-8-57.2-6c-33.1,3.5-66.1,7.5-99.3,10.1
			c-62,4.9-123.8,2-185.8-2.5c-51-3.7-101.7-0.2-146,30.1c-56.2,38.5-63.6,97.5-19.6,149.4c20.1,23.7,46.2,37.9,75.1,47
			C1230.2,2320.2,1277.7,2320,1326.2,2321.1z"/>
	</g>
</g>
</svg>
