<?xml version="1.0" encoding="utf-8"?>
<!-- Generator: Adobe Illustrator 23.0.0, SVG Export Plug-In . SVG Version: 6.00 Build 0)  -->
<svg version="1.0" xmlns="http://www.w3.org/2000/svg" xmlns:xlink="http://www.w3.org/1999/xlink" x="0px" y="0px"
	 viewBox="0 0 3000 3000" style="enable-background:new 0 0 3000 3000;" xml:space="preserve">
<style type="text/css">
	.st0{fill:none;stroke:#000000;stroke-miterlimit:10;}
	.st1{stroke:#000000;stroke-width:10;stroke-miterlimit:10;}
</style>
<g id="Layer_1">
</g>
<g id="Layer_2">
	<path class="st0" d="M781.1,1118.2c-1.4,0.9-2.1,2.8-1.7,4.4s1.9,2.9,3.5,3.1"/>
	<g>
		<path class="st1" d="M1288.4,1733.5c10.9,8.3,20.5,15,29.6,22.6c52,43.3,63.8,102.7,67.6,166.1c9.4,158.5-94,239.3-214.8,264.3
			c-97.2,20.1-181.1-7.1-257.6-65.6c-5.9-4.5-10.1-8.4-18.1-3.1c-72,47.2-149.6,46.4-228.4,23.2c-26.3-7.8-46.6-8-71.2,8.6
			c-51.2,34.7-112,38.8-171.8,39.8c-38.5,0.7-77.1-2.2-115.1-10.1c-99.3-20.5-156.1-91.9-154.2-193.3c1.1-58,21.1-109.8,51.3-158.1
			c8.2-13.2,9-24.2,4.6-39c-18.6-62.7-27.5-126.1-3.8-189.8c7.2-19.3,18.1-36.5,32.3-51.3c6.6-6.8,8.6-9.9-1.7-16.4
			c-65.8-41.5-79.6-101-39.8-169.3c3.6-6.2,4.7-9.5-0.5-15.9c-35.5-43.8-36.3-99.1-1.8-147.4c7.8-11,12.6-17.9-0.8-28.8
			c-11.5-9.4-15.8-24.2-17.9-39.3c-3.5-25.3-1.8-50.5,0.7-75.6c3.9-38.9,35.4-68.6,77.4-74.2c7.6-1,15.2-1.6,23-2.4
			c1.6-9.9-6.5-14-10.5-19.9c-14.4-21.1-26.7-43.1-31.1-68.4c-10.9-63.4,30.8-118,100.3-132.7c40.3-8.5,79.6-2.4,118.7,7
			c13.7,3.3,24.7,3.4,38.7-5c30.8-18.5,65.5-13,98.2-3.8c81.4,23.1,130.8,77.6,151.5,159c1.7-0.4,3.8-0.2,4.3-1
			c50.8-84.3,128.9-129.6,222.2-149.2c117.1-24.6,235.1-28,352.7-2.5c33,7.2,63.4,21.5,91.6,40.8c57.3,39.2,78.6,97.2,84.7,162.1
			c10.9,115.2,24.9,230.5,17.1,346.4c-5.5,82.6-20.6,164.1-51.9,241.4c-31.6,78.1-87.3,134.5-161.3,173.5
			C1298.3,1728.5,1294.1,1730.6,1288.4,1733.5z M1118.3,952c-6.9,0-10.4-0.3-13.8,0.1c-10.5,1.2-21,2.1-31.3,4
			c-69.5,13-125.3,44.7-151.7,114.5c-4.2,11-6.3,18.3-21,13.1c-15.6-5.6-7-14.6-4.5-21.5c25.5-70.2,78.6-109.4,148.5-127
			c73.9-18.6,147.9-12.2,220.4,8.4c45.7,13,75,44.4,87.7,90.9c10.3,37.6,11.4,76.1,12.3,114.7c5,202.8-47.6,389.7-153.1,562.3
			c-3.9,6.4-9.9,11.8-10.7,21.5c3.9-0.6,7.2-0.8,10.4-1.6c102.6-27.1,181.8-83.8,224.7-183.2c33.7-78,48.5-161.4,53.1-245.4
			c6.4-118-7.2-235.4-20.2-352.6c-7.6-68.5-43.1-117.4-106.3-145.2c-16.6-7.3-33.9-14-51.6-17.6c-104.4-21.7-209.2-18.2-313.7-1
			c-59.5,9.8-115.4,30.3-163.3,68.2c-73.9,58.5-100.3,140.1-105.3,229.7c-6.9,124.1-8.3,248.6,0.5,372.4
			c8.2,114.9,68,201.3,171.4,255c21.2,11,22.5,10,21-14.8c-4.9-78.8-0.5-157.1,10-235.2c2-14.6,10.4-31.4,5.7-43
			c-6-14.7-27.1-8.6-41.4-12.3c-51-13.5-75.1-65.6-51.7-110.2c8.4-15.9,32.4-21,32.2-37.7c-0.1-16.7-6.4-34.1-4.9-51.8
			c3-36.3,25.8-57.5,61.7-58c19.8-0.3,39.1,1.7,58.2,7.3c30.7,9.1,30.9,9,44.4-20.9C1062.9,1075.2,1089.8,1015.3,1118.3,952z
			 M587.6,1561.1c42.4,0.7,78.9,1.2,115.3-3.3c14.2-1.7,21.4-6.8,14.2-23.4c-12.5-29.4-16.6-60.9-16.9-92.6
			c-0.1-14.1-4.1-19.7-19.3-18.8c-25.3,1.5-50.6-2.1-75-8.5c-85.5-22.7-147.9-70.3-166.4-161.7c-10-49.3-2.6-98,12.6-145.3
			c15.9-49.3,33.5-98.1,50.4-147.2c13.8-40.3,15.1-78.2-19.2-110.6c-12.5-11.8-19.7-27.5-19.9-45.1c-0.1-7.7-2.3-11.4-9.9-13.1
			c-36.4-8.2-72.8-14.9-110.4-8.1c-72.3,13-102.2,74.5-67.2,139c11.1,20.5,26.2,38.1,40.6,56.2c25,31.5,45,65.2,54.4,105
			c13.4,56.7,7.9,112.7-2.2,168.9c-7.1,40-15.4,79.9-7,121c11.5,56.4,44.6,85.5,101.5,87.4c14.7,0.5,29.4,0.8,44,0.1
			c10.4-0.5,16.8,0.7,18.4,13.5c1.8,13.9-6.8,13.1-15,13.6c-16.8,0.9-33.8,3.2-50.4,1.5c-70.8-7.6-130.9,17.2-184.9,60
			c-29.6,23.5-48.4,54.5-53.3,92.5c-7.6,59.1,0.4,116.2,26.5,169.9c15.9,32.7,40.5,57.7,76.6,67.5c49.6,13.5,100-13.9,101.3-66.9
			c0.5-21,2.1-42.1,2.5-63.1c0.3-21.6,6.3-41.5,16.8-60.1c30.8-54.5,92.2-66.9,141.4-28.6c10.5,8.2,20.5,17.1,30.9,25.4
			c48.7,39.1,124.6,32.5,166.2-13.7c5.9-6.6,6.7-10.3,0.6-17.1c-17-18.8-31.5-39.7-42.4-62.5c-6.6-13.9-13.5-16.1-27.6-10.8
			c-12.9,5-27.3,5.3-41.5,5.6c-63.1,1.4-126.2-3-189.3,3.9c-100.4,11-138.8,54.1-134.6,154.1c1,24.5,5.7,48.8,3.6,73.5
			c-0.6,7.5-1.9,14.3-12.3,12.1c-8.2-1.8-16.6-1.6-15.6-14.6c2.2-28.1-1.7-56-3.8-83.9c-6-79.6,26-127.7,101.4-153.9
			C478.4,1559.6,536,1560.9,587.6,1561.1z M391.6,1903.4c-66,18.2-114.1-5.1-151.8-54.7c-7.9-10.3-11.4-8.9-17,1.3
			c-20.6,37.1-36.9,75.8-41.1,118.4c-7.6,76.7,26.8,167,132.5,184.4c62.9,10.3,125.7,13,188.4,2.5c69.6-11.7,124.3-45.9,156.2-111.3
			c61.8-126.8,20.7-287.2-94.1-366.6c-32.7-22.6-74.6-11.8-95.1,24.4c-11.8,20.8-15.1,43.5-14.8,66.9c0.3,37.8,2.3,75.9-26.2,108.3
			c47.5,2.2,62.5,6.2,81.2,20.7c40.6,31.6,35.7,86.8-9.1,111.3c-24,13.2-49.2,15.4-75.3,12.5c-29.7-3.3-48.2-22.8-50.6-52.7
			C372.9,1946.6,378.3,1925.7,391.6,1903.4z M1339.5,1162.6c-1.8-30.7-2.1-55.3-4.9-79.7c-4.5-38.9-12.7-76.5-48.6-100.5
			c-13-8.7-21.4-12.3-32.2,6.1c-134.1,229.3-173.3,473.9-119.9,733.6c1.5,7.2-1.1,18.6,10,20.9c12.1,2.4,19-5.8,25.2-15.1
			C1284.7,1554.9,1340.3,1364.1,1339.5,1162.6z M463,1216.1c0,71.2,38.6,130.5,109.8,159.4c34.2,13.9,70,20.1,106.6,21.2
			c6.6,0.2,16.9,4.6,18.7-7.1c1.6-10.6-8.9-9.3-14.6-11.4c-46.7-17.6-72-51.5-77.3-100.6c-6-56.6,5.3-112.5,47.2-149.1
			c43.5-37.9,52.7-84,62.7-134.4c15-75.4-19.6-157-86.9-193.8c-35.1-19.2-72.2-31.8-112.8-21.4c-26.9,6.9-33.1,27.4-16.2,49.4
			c3,3.9,6.2,7.6,9.5,11.2c26,28.7,34.2,61.8,25.8,99.5c-9,40.4-24.4,78.8-38.1,117.7C480.4,1105.5,462,1154.1,463,1216.1z
			 M949,1635.3c0,26,0.6,51.9-0.2,77.9c-0.4,14,6.2,19.6,18.8,22.5c38.5,8.8,77.4,12.6,116.9,12.1c27.5-0.3,27.5-0.1,21.8-26.5
			c-33.2-155-29.9-309.4,7.7-463.1c24.2-98.8,62.6-191.8,115-278.9c8.1-13.5,5.9-18-9.4-19.3c-17.4-1.5-34.9-3.8-52.1-7
			c-14-2.6-21.2,1.6-27.1,15.2c-24.8,57.2-49.5,114.5-76.8,170.5C987.3,1295.5,943.2,1459.7,949,1635.3z M665.5,1736.2
			c8.9,20,17.8,38.1,24.8,56.9c4.1,10.9,9.7,13.3,20.5,11.4c20.2-3.5,40.5-2.1,60.6,2.3c53.9,11.8,86.6,55.9,87.4,118.4
			c0.7,53.1-29.3,89.8-84.3,102.4c-21.4,4.9-43.1,5.2-64.9,3.6c-7.5-0.5-15.4-2.7-19.2,7.6c-9.3,25-23.8,47.2-40.7,68.8
			c22.6,9.3,44.4,14.2,66.5,17.5c124.9,18.4,219.6-33.9,241.5-163.9c11.5-68-3.2-134-19.1-199.6c-1.6-6.5-6.8-8.2-12.2-10.1
			c-39.3-14-75.4-33.7-107-61.2c-5.5-4.8-9.2-6.6-15.4,0C766.8,1729.9,721,1745.6,665.5,1736.2z M1056.7,1893
			c85.8-1.2,167.9-33.5,236.6-98.8c4.2-4,13.9-6.7,8.6-16.3c-6.9-12.5-47.1-30.3-60.2-26.7c-85.7,23.7-172.5,30-260.3,14.7
			c-13.7-2.4-13.8,2.7-11.5,13.2c4.5,19.8,8.9,39.7,12.3,59.7C991.7,1892.8,991.5,1892.9,1056.7,1893z M1355.6,1916
			c-5.4,3.2-9,5.2-12.5,7.3c-100.9,61.7-210.5,86.2-328,76.8c-36.2-2.9-35.5-2.5-50.3,31c-5.7,12.8-2.2,16.3,9.6,19.8
			c131.9,39.5,254.7,20.3,368.9-56.1c6.3-4.2,12.3-8.2,13.2-17.5C1358.3,1957.8,1360.6,1938.4,1355.6,1916z M1324.5,1802.3
			c-6.9,6.4-12.9,12.1-19.1,17.7c-80.2,71.9-174.3,104.7-281.6,99.3c-34.2-1.7-33.8-2.5-37.8,32c-1.5,12.5,0,18.6,14.9,20.3
			c109.3,13,212.1-6.9,308.5-59.7c51.1-28,54.6-41.5,25.8-92.8C1332.2,1813.7,1328.5,1808.6,1324.5,1802.3z M1343.8,2027.8
			c-33.3,18.5-62.2,34.1-93.3,44.7c-95.3,32.6-191.2,34.5-286.6,2.4c-19.3-6.5-28.5,0.8-35.2,14.1c-7,14.1,9.4,16.8,16.4,21.6
			c95.2,66.3,195.3,73.9,299.2,22.1C1288,2111.1,1322.9,2079.7,1343.8,2027.8z M201.8,1094.3c-2.4,59.2,14.5,76.7,74.4,76.1
			c21.7-0.2,43.4-2.6,65.1-2.9c10.2-0.1,11.5-5.2,11.3-13.2c-1.2-49.3-11.2-96-40.9-136.8c-4.8-6.6-10-10.7-18.8-11.2
			c-58.7-3.4-94.6,17.2-91.2,79.7C201.9,1088.7,201.8,1091.5,201.8,1094.3z M384.9,1465.8c-13.7-14.3-26.2-26.4-34-42.1
			c-7.8-15.8-13.5-32.3-16.3-49.6c-1.8-11.3-9.6-9.7-17.2-9.8c-27.2-0.5-54.1,8.5-81.5,1.2c-8.5-2.3-12.2,5.7-16.2,11
			c-36.2,47.8-15.6,116,40.9,136.3c6.1,2.2,11.8,4.8,17.9,0.7C310.3,1491.6,345.1,1476,384.9,1465.8z M282.1,1339.4
			c12.7-0.6,23.3-2.2,33.6-1.3c11.9,1,16.4-2.9,16.6-14.9c0.6-35.1,9.1-69.3,14.5-103.8c3.9-25,4.2-25.2-20-24.7
			c-28.6,0.6-57.1,6.8-85.8,0.9c-7.3-1.5-11.8,2.8-16.1,7.7c-9.9,11.1-18.2,23.5-22.2,37.8c-14,50.3-7.1,108.7,75.3,98.8
			C280.1,1339.6,282.2,1339.4,282.1,1339.4z M703.9,1833.4c9.5,41.9,10.9,83.9,6,125.7c-6,50.7-5.7,51.9,46.5,44.7
			c46.2-6.4,73.6-32,75.7-70.6c2.7-50.7-21.2-89.2-62.8-99.3C748,1828.8,726.3,1828.4,703.9,1833.4z M698.1,1117.7
			c-51.3,49.8-76.2,103.8-62.5,171.5c6.8,33.4,31.4,57.9,62.5,62.4C698.1,1275.3,698.1,1199.1,698.1,1117.7z M930.6,1282.2
			c-8.1,0.8-17.9,1.2-27.5,3c-23,4.2-39.3,22.6-40.4,44.4c-1.1,22.9,11.7,41.7,34.9,48.6c11.9,3.6,24.6,4.7,36.9,7.1
			c8.5,1.6,12.3-1.3,14.2-10.1c4.3-19.7,9.8-39.3,15.3-58.7c8.8-31.2,8.7-31.5-23.3-33.7C937.8,1282.5,935,1282.4,930.6,1282.2z
			 M452.3,1996.1c8.6-0.2,25.2-2.9,39.7-12.6c21.2-14.2,24.9-40.2,7.9-58c-14.2-14.9-32.4-22.3-52.9-21.2
			c-29,1.5-47.1,25.9-45.4,59.8C402.7,1987.1,415,1996.4,452.3,1996.1z M945.5,1175c-35-0.7-48,12.8-48.1,45.3
			c-0.1,28.4,6.1,35.2,36.3,34.1c16.8-0.6,36.2,14.5,48.7,1.4c11.7-12.3,14.3-32.9,22.4-49.1c5.7-11.4,4.7-16.9-8.3-21
			C978.4,1180.1,960.1,1175.8,945.5,1175z"/>
		<path class="st1" d="M1685.5,1322.1c-91.2-48.1-125.5-126-128.5-221.3c-4.2-131.7,71.8-247.1,187.2-286
			c100.7-34,204.1,0.7,262.1,88.9c7.3,11.1,12.2,11.2,23,5.7c63.2-31.8,130.3-46.6,201.1-45c54.7,1.3,109.5,2.1,164.2,2.6
			c71.7,0.7,142.7,1.4,214.1-13.4c62.3-12.9,125.8-4.6,185.7,20.8c105.3,44.7,157.4,132.4,153.2,246.6
			c-3.3,92.2-17.7,182.5-34.3,272.8c-9,49.1-11,99-7,148.9c8.3,103.4-16.3,201.9-44.3,299.7c-19.1,66.6-41.3,131.9-50.4,201.2
			c-8,61.2-48.4,99.3-104.2,121.8c-62.9,25.4-127.7,29-194.3,18.7c-61-9.5-121.9-18.6-180.8-37.9c-4.5-1.5-9.7-1.1-14.6-1.2
			c-122.2-2.6-244.3-2.5-365.5,15.5c-47.1,7-93.9,15.9-141.1,22.9c-33.6,5-67.3,3.6-100.5-3.7c-78.1-17.3-130-73.7-141.1-153.5
			c-1.8-13.1-3.3-22.1-20.4-24.7c-23.2-3.5-34.1-20.3-33-46.5c1.9-42.7,8.8-85.1,9.3-128c0.1-11.5-1.8-19.5-11.6-26.8
			c-19.2-14.3-28.6-34.2-27.3-58.5c3-57.5,5.2-115,9.6-172.3c3.3-43.2,27.4-77.3,54.4-109.3
			C1591.9,1411.4,1634.8,1364.4,1685.5,1322.1z M1870.4,2147.1c63.6-11.6,125.1-20.5,187.2-24.9c86.2-6,172.6-4.5,258.9-3.6
			c13.6,0.1,20.9-3.6,27.6-16.1c42.3-78.9,55.4-163.6,52.6-252.7c-48.7,14.3-89.9,4.3-122.6-35.9c-10-12.3-9.1-36-23.6-38.1
			c-13.8-2-30.1,8.8-46.1,11.6c-47.2,8.1-83.2-14.2-96.1-60.4c-6.8-24.3-5.2-49,2.1-72.7c3.9-12.6,1-16.2-10.8-20.2
			c-40.7-13.8-56.2-35.7-56.1-78.5c0-25.3,3.3-50.5,11-74.7c4-12.4,4.6-18.8-12.1-21.5c-41.5-6.7-79.8-22.2-109.2-53.9
			c-6.5-7-11.7-4.5-18.4-1.7c-18.5,7.8-37.7,10.1-57.7,8.2c-52.2-5-89.2-34.8-119.5-74.5c-9-11.8-14.5-12.1-26-2.7
			c-57.4,46.9-107,101.1-153.2,158.7c-17.2,21.4-31.5,45-34.7,73.1c-6.9,59.9-6.9,120.3-9.8,180.4c-0.7,14.7,6.4,26,18.1,33.7
			c43.9,28.8,91.1,35.4,140.3,16.8c23.9-9,35.5-28.2,35.7-54.2c0.2-32.4-12.1-60.1-31.4-84.9c-7.4-9.4-3.7-13.9,3.5-20.2
			c8.6-7.6,13.2-3.5,18.5,3.7c18.1,24.7,31.3,51.7,35.5,82.2c7.4,52.6-17.8,90.1-69,104.5c-32.8,9.2-65.5,7.4-97.6-1.7
			c-12.9-3.7-15.4-0.2-16.2,11.6c-2.4,36.4-5.4,72.7-8.6,109c-2.1,24.2,5.3,32.2,30.1,29.1c21.2-2.7,41.9-2.2,62.6,2.8
			c39.5,9.6,74.2,29.2,107.8,51.1c6.9,4.5,17.1,7.1,8.5,20.4c-8.2,12.8-14,8.4-23.2,2.3c-34.6-23-70.7-42.3-112.4-50.5
			c-20-3.9-22.6,2.8-20.9,20.1c5.8,59.6,51.6,112.7,111.8,128.4c39.5,10.3,79.2,8.4,119.1,3.8c12.5-1.4,15.6-9.2,17.9-19.5
			c18.1-81.7-1.2-152.8-60.3-212.3c-8.7-8.7-13.1-14.1-2.4-24.8c11.9-11.8,16.3,0.7,21.3,5.7
			C1870.1,1971.5,1890.7,2052.1,1870.4,2147.1z M2770.3,1679.9c22.9,0,52.4-1.4,81.8,0.5c17.9,1.2,22.4-6.1,24.5-21.5
			c5.2-39.2,5.3-78.3,2.4-117.6c-4.7-63.4,0.4-126.4,13.9-188.1c18.8-86.1,27.6-172.9,26.6-260.9c-1-91.7-48.5-152.8-129.2-189.9
			c-81.3-37.4-165.1-30.4-249.2-10.2c-14,3.4-18.8,8.8-18.5,23.7c1.5,80,2,160,2.2,240c0.3,125.7-7.7,250.9-17.9,376.1
			c-5.7,70.5,14.1,98.8,80.5,124.5C2644.4,1678.6,2704.2,1677.3,2770.3,1679.9z M2494.5,1215.8c1.1,0,2.2,0,3.2,0
			c0-36.5-1.3-73,0.5-109.4c0.9-18.8-6.4-24.9-23.2-28.8c-199.2-47.2-397.6,47.6-486.7,233c-9.7,20.2-16.3,42.3-31.4,59.2
			c-10.5,11.8-5.1,17.9,3.8,25.4c23.1,19.4,49.9,30.9,79.3,36.4c70.1,13.1,140.7,15.1,211.5,7.5c79.8-8.6,154.6-31.9,222.2-76.7
			c14.3-9.5,21.3-20,20.9-37.3C2493.9,1288.7,2494.5,1252.3,2494.5,1215.8z M2497.3,977c-0.7,0-1.5,0-2.2,0
			c0-21.1-0.8-42.2,0.3-63.2c0.8-15-5-18.8-19.3-18.9c-81.4-0.3-162.9-0.9-244.3-2.7c-33.9-0.8-67.3,1.3-100.2,9
			c-60.2,14.2-117,35.9-158.7,84.1c-37.6,43.5-73.3,88.7-109.5,133.4c-42.4,52.5-83,106.1-111.2,168c-3.8,8.4-7.6,16.2-0.7,25.4
			c20.1,26.7,42.4,50.6,73.6,64.5c51.4,22.9,98.6,6,123.3-44.2c6.5-13.2,12.3-26.7,18.9-39.9c53.8-106.8,136.1-182.8,247.9-225.2
			c85.6-32.4,173.7-37.1,262.8-15.9c15.6,3.7,21.1,1.8,19.7-15.6C2496,1016.4,2497.3,996.6,2497.3,977z M1583.6,1094.4
			c0,51.9,12.4,97.5,37.2,136c19.1,29.6,43.4,53.1,77,65.9c12.5,4.8,20.4,3.7,26-10.7c15.1-38.8,36.7-74.2,61.3-107.5
			c9.7-13.1,8.3-17.2-6.2-25.2c-69.6-38.5-73.9-134.2-8.8-178.5c5.3-3.6,11.9-15.8,20.3-3.6c6.7,9.7,8.4,17.1-5,26
			c-26.5,17.6-37.8,44.5-33.1,76.6c4.2,28.9,21.7,47.6,47.2,60.2c8.9,4.4,15.1,4.1,21.4-4.7c9.8-13.7,20.7-26.5,31.6-39.4
			c41.6-49.2,77.9-103.2,125.9-146.6c12.2-11,10.9-17.6,3.3-29.1c-44.9-68-132.8-100-215-77.7
			C1656.7,865.9,1583.5,969.2,1583.6,1094.4z M2865.1,1719.4c4.4-16.4-7.8-13.2-16.1-13.4c-70.8-1.9-141.9,3.8-212.2-8.4
			c-11.5-2-12.3,4.5-13.5,13c-9,61.7-18,123.5-27.9,185.1c-2.5,15.4,5.8,15.6,16.6,15.9c49.9,1.3,99.3,7.3,148.7,14.1
			c44,6.1,43.6,6.4,58.5-36C2838.6,1833.9,2852.5,1776.8,2865.1,1719.4z M2614.6,1937.8c-10.3,1.1-24.1-7-27.5,13.8
			c-11,67.3-28.2,133-59.2,194.2c-4.1,8.2-3.7,12.5,6.7,13.9c66.4,9,129.7,0.4,188.9-32.3c34-18.8,54.7-47.4,61.5-85.8
			c3.7-20.7,5.6-41.7,10.5-62.1c3.8-16.1-0.9-22.1-16.9-24.4C2724.4,1947.4,2670,1941.6,2614.6,1937.8z M2490.5,1383.7
			c-53,34.2-106,56.8-163,69.8c-4.9,1.1-8.4,3.2-10.8,8.5c-23.4,50.9-6.7,113.7,39.7,146c33.5,23.4,69.9,41.2,109.1,52.9
			c7.4,2.2,17.9,12.1,23.5-0.7c5.1-11.7,17.4-22.4,7.1-38.2c-15.1-23.1-18.6-49.3-16.6-76.5
			C2483.1,1493.2,2486.5,1440.9,2490.5,1383.7z M2501.1,1908.8c11.5,0,31.9-0.4,52.2,0.2c10.5,0.3,14.6-3.5,16-14.1
			c7.9-57.5,16.6-115,24.9-172.4c4.6-32,4.4-31.7-26.2-44.8c-11.5-4.9-23-10.6-33.3-17.7c-9.5-6.5-13.3-5.7-18.1,5.2
			c-16.4,37.2-35.1,73.3-58.1,106.8c-26,38-35.1,80.1-36.3,125.1c-0.3,12.6,3.8,15.8,15.5,14.8
			C2455.8,1910.5,2474.1,1910.1,2501.1,1908.8z M2494.1,1936.3c0,0.3,0,0.6,0,0.9c-9.1,0-18.2-0.2-27.3,0
			c-42.8,0.9-43.2,0.9-51.5,42.9c-8.7,44.2-23.1,86.4-43.5,126.5c-5.8,11.4-10.5,22.1,9.2,25.6c31.6,5.7,62.9,12.8,94.4,19.5
			c12.3,2.6,20.3-0.2,26.6-12.7c29.7-59.4,46-122.8,58.8-187.5c2.5-12.6-2.4-15.8-14.1-15.4
			C2529.1,1936.8,2511.6,1936.3,2494.1,1936.3z M2213,1520.9c1,18,3.1,37.4,9.4,56.2c28.8,86,94.5,131.5,176.3,157.2
			c55.1,17.3,39.7,16.8,68.3-28.3c6.3-9.9,5.7-14.8-7.3-18.7c-43.2-13.1-83.4-32.7-120.6-58.5c-40.9-28.4-60.6-67-56.9-116.9
			c0.9-12.6,3.1-25,4.2-37.6c0.4-4.8,4-11.1-5.7-12.4C2234.2,1455.3,2213.1,1473.1,2213,1520.9z M2071.4,1544.3
			c-1.6,43,9.5,59.4,45,67c24.3,5.2,48.7,4.3,72.7-2.8c9-2.6,14.4-4.9,10-17c-12.5-34.7-17.4-70.6-9.3-107.3
			c2.4-10.9-0.6-15-12.3-14.7c-25.9,0.6-51.8,0.8-77.6-3c-9.3-1.4-13.9,1.7-16.7,11C2076.5,1500.4,2071.6,1523.6,2071.4,1544.3z
			 M2131.3,1691.9c-0.7,43.8,20.5,70.4,54.8,69.8c37.2-0.7,68.7-16.3,96.9-39.8c8.5-7.1,6.9-11.3-1.3-17.3
			c-15.3-11.1-31.8-22.9-40.4-39.2c-16.3-30.9-36.3-37.1-69.6-26.8c-32.7,10.2-35.2,8-39.7,43.1
			C2131.4,1685.8,2131.4,1690,2131.3,1691.9z M2361.2,1828.9c24.1-1.4,44.3-9.5,56.7-37.5c8.8-20,4.3-23.3-13.7-27.3
			c-26.1-5.7-51.5-15-74.2-29c-20.8-12.9-26.1,8-38.2,14.2c-11.1,5.7-10.9,14.8-7.8,25.2C2294.1,1807.4,2323.7,1829.1,2361.2,1828.9
			z"/>
		<path class="st1" d="M1990.2,1852.8c51.9,0.1,98.8,50.8,98.2,106.2c-0.6,49.2-40,88.1-89,87.7c-51.3-0.3-83.7-37.3-83.8-95.3
			C1915.5,1892.7,1945.8,1852.7,1990.2,1852.8z M2060.8,1953.1c-1-26-14.7-49.5-40.4-64.9c-32.2-19.3-58.3-9.6-71.6,25.6
			c-7.1,18.7-9.3,37.9-4.7,57.7c7.9,34.2,31.4,52.2,62.9,48.1C2038.7,2015.4,2061,1989.6,2060.8,1953.1z"/>
		<path class="st1" d="M1825.1,1465.2c23.8,1.5,47.5,2.9,71.3,4.5c20.6,1.4,45.4-2.8,54.1,22.1c8.9,25.8,7.4,53-10.3,75.8
			c-22.5,29-70.6,38.9-111.7,24.2c-33.5-11.9-58.5-47.8-58.6-84.2C1769.7,1476.9,1788.7,1462.1,1825.1,1465.2z M1864.7,1571.8
			c42.5,0.2,62.8-18.9,63.3-57.7c0.2-11-3.1-15.1-13.5-15.8c-32.8-2.3-65.6-4.7-98.3-7.6c-15.8-1.4-19.3,6.9-18.8,20.3
			C1798.9,1546.8,1826.1,1571.6,1864.7,1571.8z"/>
		<path class="st1" d="M2759.9,1216.5c0.5,68-20.9,127.6-40.5,187.6c-19,57.9-42.1,114.8-44.2,176.8c-0.4,12.2-7.6,10.5-15.4,11
			c-10,0.7-11.3-4.5-11.1-12.9c1-50.6,16.8-97.8,32.1-145.2c19.3-59.9,43.5-118.4,50.7-181.6c6.3-55.5-0.9-107.8-34.9-154.1
			c-16.6-22.6-37.2-40.5-64.3-48.7c-11.7-3.5-14-8.6-11.3-19.6c3.3-13.7,11.7-8.9,19.2-6.2c64.8,23.8,97.6,74.3,114.5,138
			C2759.7,1180.9,2759,1200.6,2759.9,1216.5z"/>
	</g>
</g>
</svg>
