<?xml version="1.0" encoding="utf-8"?>
<!-- Generator: Adobe Illustrator 23.0.0, SVG Export Plug-In . SVG Version: 6.00 Build 0)  -->
<svg version="1.0" xmlns="http://www.w3.org/2000/svg" xmlns:xlink="http://www.w3.org/1999/xlink" x="0px" y="0px"
	 viewBox="0 0 3000 3000" style="enable-background:new 0 0 3000 3000;" xml:space="preserve">
<style type="text/css">
	.st0{stroke:#000000;stroke-width:10;stroke-miterlimit:10;}
</style>
<g id="Layer_1">
</g>
<g id="Layer_2">
	<g>
		<path class="st0" d="M648.5,1191.4c-5.9-9.2-14.8-8.7-22.5-11.1c-234.3-70.7-390.1-264.2-411.3-508
			c-6.7-77.3-3.7-153.4,18.1-227.8C286.4,261,417.3,164.9,597.3,124.1c159.4-36.1,310.8-11.8,455.8,58.5
			c103.8,50.2,174.7,131,212,245.9c26.4-39.6,59.6-66.4,107.4-86.3c-14.4-11.9-26.8-19.7-36.1-30.3c-51-57.9-45.1-139.5,13.1-191.7
			c67.7-60.8,182.3-62.9,252.3-4.6c71,59.2,70.8,156.7-0.7,215.4c-8.8,7.2-18.4,13.4-32.2,23.2c38.8,23.1,69.4,52.3,88.6,95.5
			c18.9-37.8,33.7-73.1,54.2-105.5c190.3-301.4,689-404,970.8-21.9c244,330.9,94.8,731.9-190.3,906.9c-12.3,7.6-24.9,14.7-38.2,22.6
			c26.6,30.1,53.6,58.5,78.1,88.8c112,138.3,167.1,298.4,179.6,474.5c10.2,143.3-4.5,285.6-15.1,428.1c-6.5,87-20,172.8-43.4,256.9
			c-74.7,268.7-253.3,418.3-531.4,449.2c-164.7,18.3-329.3,9.1-493.8,2.1c-205-8.7-409.4-26.5-612.9-53.4
			c-117.1-15.5-233.1-36.1-345.8-73.3c-146.1-48.2-253.1-141.8-327.2-275c-66.6-119.9-101-249.6-109.9-385.3
			c-18.4-279.8,41.7-539.3,209.4-768.9c53-72.5,116.4-134.8,187.9-188.9C635.9,1201.6,642.2,1196.4,648.5,1191.4z M1824.3,2906
			c45.1,1.3,123.8,2.6,202.6-0.6c21.6-0.9,36.3-8.1,50.5-23.8c62.5-69.4,109.7-148.1,142.8-235c85.6-224.7,107.1-457.2,72.3-693.8
			c-24.4-166.1-104-298.4-263.9-369.9c-75.3-33.7-155.2-52-237.2-58.7c-159.2-13-318.4-13.8-477.9-1.1
			c-179.7,14.4-336.7,74.3-454.9,216.9c-7.3,8.8-15.2,17-22.6,25.7c-141.3,165-315.4,240.7-533.4,195.2
			c-22.6-4.7-17.8,10.3-18.8,21.1c-13.6,160.5,6,316.4,66.6,466.2c72.8,180.1,200.8,297,391.4,345.4
			c126.9,32.2,255.6,51.7,385.2,66.3C1347.6,2884.4,1568.7,2900.7,1824.3,2906z M2313.4,2842.4c6,0,8.2,0.6,9.8-0.1
			c7.5-3.4,15-7,22.3-10.8c137-71.5,211.3-190.9,253.9-334c27-90.7,40.5-183.8,47-278.1c10.2-146.7,25.7-293.3,9.4-440.7
			c-22.6-204.8-109.1-376-266-510.4c-113-96.8-244.3-159.2-386.3-199c-179.5-50.3-361.9-71.2-549.3-64.1
			c-154.4,5.8-305.5,24.2-452.2,70.8c-397,126.2-634.9,393.1-706.8,805.5c-3.2,18.5-0.1,25.2,18.8,29.5
			c56.4,12.5,112.8,13.1,169.9,6.9c21.1-2.3,27.4-9.6,25.4-31.1c-11.8-129.3,24.8-246.2,95.9-352.8
			c124.1-186.1,304.6-284.7,519.1-327.7c167.2-33.5,336-31.1,504.8-16.4c138.6,12.1,275.4,33.3,407.8,78.3
			c259.5,88.2,420.7,263.5,473.2,534.5c29.1,150,42.7,301.6,37.7,454.4c-4.5,137.9-28.4,271.8-92.2,396.2
			C2419.6,2723.6,2373.3,2786.4,2313.4,2842.4z M2143.2,2884.9c31.4-6.5,57.8-19.7,95.7-48.8c141.8-109,214-258.1,241.9-430.4
			c30.3-187.2,15.8-374-15.8-559.7c-18.7-110.3-53.1-214.7-120.6-306.1c-90.4-122.4-216.6-192.1-358.3-232.8
			c-255.8-73.4-517.3-93-781.5-61.5c-140.5,16.8-274.3,58.3-388.9,144.3c-158.5,119-261,270.2-256.9,478c0.5,26.3,6.7,32,32,21.7
			c85.1-34.6,151.2-93.6,209.1-162.3c97.5-115.9,214.2-200,364.5-233.5c85.4-19.1,171.8-27.1,258.9-29.5
			c165.9-4.7,331.8-7.4,495.2,28.4c212.9,46.6,354.8,170.6,411.4,384.9c19.7,74.5,27.3,150.7,28.5,227.6
			c3.1,208.2-22,411.3-107.9,603.6C2222.6,2771,2186.6,2828.4,2143.2,2884.9z M960.8,1033.3c14-4,20.8-6.8,27.8-7.8
			c25.6-3.5,32.8-14.8,27.7-42c-6.4-33.8,3.1-67.8,13.5-100.7c14.9-47.6,37.5-91.9,56.9-137.6c35.1-82.6,27.2-159.9-29.3-230.4
			C939,366.9,712.9,366.3,583,513.2c-105.1,118.8-119.4,288.5-33.6,433.6c14.8,25.1-1,28.7-14.1,39.3c-18.8,15.3-24.2,0.2-31.5-12.3
			C470.3,916.6,449.4,855,444.2,789c-12.4-157.7,44-286,175.2-374.5c126.9-85.5,260.2-83.9,392.9-8.5
			c127,72.2,178.8,218.3,124.6,353.5c-13.8,34.5-30,68.1-44.3,102.5c-15.7,37.5-27.9,76-24.4,117.4c0.6,7.2-3,17.3,8.5,20.6
			c17.2,4.9,64.3-16.9,72.5-34c59.4-123.5,88.2-254.8,86.4-390.9c-2-144.6-55.3-266.2-189.2-337.2
			c-146.2-77.6-300.6-99.9-462.8-57.1c-150.3,39.7-257.1,125.4-301.2,278.7c-18.5,64.4-20.3,130.2-16.7,197.1
			c13.5,243.2,188.1,443,427.4,486.3c18.9,3.4,36.5,2.8,49.6-16.2c-53.2-46.9-89.1-104.5-105-172.8c-25-107-18.5-209.3,63-292.9
			c49.1-50.4,111.8-66.6,179.5-48.8c67.1,17.6,101.7,67.9,115.8,133.2c13.1,60.2,2.8,119.5-10,178.4
			C978.4,958.9,969.9,993.7,960.8,1033.3z M1660.2,809.4c0,28-0.4,55.9,0.1,83.9c1.1,62.8,1.3,62.2,63.7,69.6
			c20.8,2.5,30.7-0.9,28.3-25.1c-6.7-67.2-3-134.5,0.9-201.8c5.7-97.4,28.3-190.1,75.1-276.4C1982,176,2301.2,198,2467,365.8
			c146.6,148.4,165.6,328.5,108.6,522.3c-7.7,26.3-18.2,27.8-41.7,18.4c-26.1-10.5-10.7-25.1-7.1-37.3
			c46.1-152.6,35.3-297.6-61.4-428.6c-109.2-148-326.7-189.3-472.1-91.5c-87.8,59.1-135.3,146.6-164.2,245.3
			c-31.4,107-28.6,217-26.1,326.9c1.3,54.3,1.2,53.6,54.5,60.7c19.1,2.6,23.7-3.5,21.3-21.3c-2.6-19.5-3.1-39.2-4.5-58.9
			c-6.7-99.5,2.2-196.4,44.6-288.5c53.9-117,175.1-192.2,296.1-182.5c131.8,10.6,235.8,95.8,269.6,221.4
			c22.4,83.4,6.4,162.8-29.4,238.5c-31.4,66.4-67.7,130.4-100.5,196.1c-32.2,64.6-31.5,64.9,25.1,107.1c2.5,1.9,5.2,3.5,7.3,5.7
			c13.3,14.2,26.6,14.3,44,5.2c284.8-149.1,452-548.7,194.5-871.4c-269.3-337.5-724.4-219.6-880.4,55.4
			C1671,519.9,1659,663.5,1660.2,809.4z M1924.6,871.2c2.3,26.8,6.3,68,9.1,109.3c0.8,12.4,5.5,18.1,17.7,20.9
			c110.3,26,216,64.8,315.6,119.3c10.4,5.7,16.5,5.8,21-6.4c28.8-79.2,75.4-149.5,111.6-225c22.9-47.9,41.9-97,44-151
			c4.2-110-70-214.9-173.8-245.8c-111.8-33.3-229.9,14.8-290.5,118.6C1934.8,687,1923.8,770.5,1924.6,871.2z M676.8,867.7
			c1.6,73.6,27.8,145.2,84.5,205.9c22.4,24,43.1,31.2,72,12.2c14.5-9.6,31.5-16.1,48.2-21.2c16.4-5.1,22.4-15.6,25.8-31
			c9.3-42.4,20.7-84.4,29.4-127c9.5-46.6,19.6-93.4,10.6-141.5c-8.9-47.5-28.8-88.2-78.8-102.3c-52.1-14.7-98.6,0.6-135.9,39.5
			C690.5,745.9,677.9,800.7,676.8,867.7z M1434.3,950.9c11.7,0,23.1,0.5,34.5-0.1c52.9-2.9,108.1-45.5,123.1-94.7
			c14-45.9-2.3-90.7-45.7-125.4c-67.3-53.9-182-47-241.8,14.6c-45.8,47.2-46.8,111-1.6,158.2
			C1338.7,940.8,1382.7,957.5,1434.3,950.9z M1450.2,632.8c52.9-0.4,95.1-15.8,124.6-42.8c54.7-50.1,54.5-117.9-0.5-167.9
			c-64.5-58.5-179.5-55.9-241.7,5.6c-47,46.5-45.8,114.7,2.8,159.9C1369.8,619.7,1411.9,631.4,1450.2,632.8z M1475.4,124.6
			c-23.6,1-50.8,6.1-74.9,22.1c-62.3,41.5-62.5,111.1-0.4,152.4c24.1,16,51.2,22.1,79.6,22.1c66.6-0.1,123.6-45.5,123.7-97.9
			C1603.6,170.9,1546.7,125.4,1475.4,124.6z M1233.6,898.2c-10,27.5-18.4,50.2-27.7,75.8c30-4.4,53.7-7.8,83.5-12.1
			C1265.2,942.6,1250.6,923.2,1233.6,898.2z M1615.4,628.3c-22.7,13.9-43.8,26.8-69.4,42.5c26.2,8,38.4,30.4,61.9,39
			C1610.5,681.7,1612.8,656.2,1615.4,628.3z M1280.7,693.2c23.2-14.1,41-24.9,59.9-36.3c-18.5-13.6-34.6-25.4-51.8-38.1
			C1286,643.9,1283.6,666.2,1280.7,693.2z"/>
		<path class="st0" d="M1312.1,1793.4c-0.2,33.6-10.2,65.3-19.4,96.9c-30.1,103.5-63.3,205.8-128.4,294
			c-36.3,49.3-78.5,91.3-141.2,104.8c-100.5,21.6-175.1-45.5-170.7-148.4c7.1-166.3,74.1-303.2,195.7-414.8
			c34-31.2,71.2-54.7,119.1-61C1255.2,1653.3,1313.3,1703.4,1312.1,1793.4z M905.7,2141.8c-1.7,27-2.3,69.4,42.3,90.3
			c44,20.6,84.5,6.4,121.4-21.9c20.8-16,37.6-35.5,53-56.4c56.9-77.2,87.1-166.3,114.2-256.8c9.8-32.6,20.4-65.1,23.6-99.4
			c5.2-56.1-24.8-85.6-81.1-82c-33,2.1-59.7,16.9-83.3,37.5C982.4,1852.2,913.2,1973.9,905.7,2141.8z"/>
		<path class="st0" d="M1922.4,1869.5c1,33.2-10,66.9-19.9,100.6c-29.2,99.5-61.3,197.9-122.4,283.8
			c-29.8,41.9-64.1,78.8-111.9,100.6c-110.6,50.3-209.8-21.1-204.2-142.1c8.1-172,80.6-310,208.3-421.8
			c32.7-28.6,70-47.3,114.4-50.4C1871.3,1734.2,1923,1782.1,1922.4,1869.5z M1515.9,2229.2c-1.5,20.4,1.5,58,40.9,78.4
			c40.3,20.9,78.7,9.3,114.1-14.2c22.6-15,40.7-35.1,57.1-56.6c63.6-83.2,94.7-180.9,124-279.3c9.1-30.7,19.2-61.4,19.2-93.9
			c-0.1-49.1-27.3-74.6-76.3-72.6c-31.4,1.3-58.5,13.7-81.9,33.4C1593.1,1925.3,1522.6,2051.6,1515.9,2229.2z"/>
	</g>
</g>
</svg>
