<?xml version="1.0" encoding="utf-8"?>
<!-- Generator: Adobe Illustrator 23.0.0, SVG Export Plug-In . SVG Version: 6.00 Build 0)  -->
<svg version="1.0" xmlns="http://www.w3.org/2000/svg" xmlns:xlink="http://www.w3.org/1999/xlink" x="0px" y="0px"
	 viewBox="0 0 3000 3000" style="enable-background:new 0 0 3000 3000;" xml:space="preserve">
<style type="text/css">
	.st0{stroke:#000000;stroke-width:10;stroke-miterlimit:10;}
</style>
<g id="Layer_1">
</g>
<g id="Layer_2">
	<g>
		<path class="st0" d="M168.5,1517.6c-96.3-65.3-102.3-209.5,11.7-279.5c-53.2-38.6-80.3-90.1-72.5-155.6
			c7.7-65,45.9-108.2,105.9-133.5c-55.7-54.3-74.4-117.7-43.3-189c30.8-70.6,89.3-100,166.9-95c-1.9-13.6-4.7-26.6-5.5-39.6
			c-3.7-60.9,19.1-110.1,69.5-144.3c51.7-35.1,106.9-36.6,162.9-9.5c8.3,4,13.3,9.3,16.5-6.2c13.4-65.5,52.4-109.9,117.7-126
			c64-15.8,118.8,3.1,162,53.5c1.9,2.2,4,4.3,6.9,7.4c17.5-32.5,40.5-58.5,72.9-74.8c72.8-36.6,155.8-15,204.1,53.3
			c5.7,8.1,8.1,14.1,17.1,1.6c38.7-54,92.4-76.4,157.4-65.7c62.5,10.3,103.2,48.9,124.5,108.2c1,2.8,2.1,5.6,3.2,8.6
			c8-2.8,10.9-10.2,15.5-15.7c58.1-67.7,133.8-101.9,220.5-111.2c85.3-9.1,171.1-10.2,256.2,2.5c48,7.2,93.1,23.2,130.1,57
			c25.8,23.5,43.7,51.3,51.1,85.7c1.5,7.1,1.7,14.8,7.5,21.9c29.4-36.9,62.6-69.6,100.3-97.6c203.4-150.5,475.4-119.5,632.5,71
			c153.1,185.6,104.5,441.8-46.1,573.1c-12,10.4-12.3,14.7,0,25.1c53.6,45.3,80.7,107.7,106,170.7c21.1,52.6,30.2,108.1,32.3,164.2
			c3.9,104.2-4,208.2-21.8,310.8c-17.3,99.8-74.7,166.6-174.5,193.8c-1,0.3-1.8,1.5-4.6,4c19,15.6,36.7,32.2,52.8,50.3
			c97.4,110,130.5,236.8,102,380.8c-16,80.7-37.4,159.4-78.4,231.3c-79.4,139.2-198,221-356,249.9c-120.6,22-241.2,32.7-363.8,26.8
			c-97.8-4.7-195.9-3.8-293.2-16.3c-130.3-16.7-254.6-51.1-363.4-128.7c-7.5-5.3-13.9-5.6-22.2-2.6
			c-169.5,61.8-345.6,79.8-524.8,80.4c-131.4,0.4-262-10.7-392.7-22c-62.6-5.4-125.2-9.6-186.8-23.1
			c-131.5-28.8-211.2-110.3-236.7-241c-23.3-119.1-27-239.9-7.2-360.1c11-67,42.2-124.4,97.1-166.9c18.1-14.1,37.8-25.8,60.2-31.3
			c11.4-2.8,14.1-8.3,12.8-19.4c-2.6-22.3-0.5-44.6,7.7-65.5c5.4-13.6-1-13.9-11.1-14.1c-77.2-1.6-139.1-52-154.8-125.5
			C78.8,1623,106.7,1558.6,168.5,1517.6z M882,564.1c-1.1,1.4-2.3,2.6-3.2,4.1c-50,83.3-131.2,108.4-218.4,66.6
			c-13.8-6.6-12.2,1.7-13.7,9.6c-12.8,65.3-63,115.7-128.1,127c-16.1,2.8-32.9,2-49.4,2.8c10.2,115.1-5.1,146-100.5,203.7
			c84.5,76.6,73.4,206.6-29.3,267.5c48.3,34,75.1,79.6,74.3,139c-0.8,59.2-29.4,103.6-77.8,136.5c68.8,52.4,86.7,119.1,61.3,198.8
			c95.3,5.2,143.5,42.5,168.5,130.3c3.8,13.4,9.2,6.7,15.4,3.5c72.2-37,151.9-19.6,202.2,43.8c2.8,3.5,3.8,9.1,9.9,9.4
			c27.9-50,68.8-81.7,126.7-87.7c58-6,105.3,16,143,59.8c55-91.2,135-114.9,234.2-90.3c-11.1-50.5-12.8-99.5-10-148.9
			c4.8-84.8,8.4-169.7,14.1-254.5c4.5-66.9,5.1-134.3,18.4-200.3c17.8-88.8,64.3-153.6,156.2-177.8c2.2-0.6,4.3-1.7,8-3.1
			c-21.8-16.3-40.6-33.8-56.3-54.5c-45.9-60.2-59.1-130.2-60.1-203.5c-0.6-45.5,4.3-90.7,11.5-138.7
			c-41.1,24.1-82.7,31.4-126.4,20.6c-44.6-11-77.1-38.9-101.3-77.6C1092.6,642.9,962,661.2,882,564.1z M2140.7,2781.3
			c98.1,9.1,219.9-6.1,341.1-30.7c115.7-23.4,208.4-81.2,277.4-177.6c56.5-79,84-168.7,102.6-262.5
			c30.1-151.3-14.2-276.8-127.9-379.2c-26.9-24.2-54.8-46.2-94.7-38.9c-2.3,0.4-4.9-0.2-7.4-0.4c-30.8-3.1-30.4-3-25.3-33
			c2.1-12.5,7.4-16.2,19.7-13.8c18.8,3.7,38,4.1,57.1,3c109.1-6.1,185.2-56,204-172.7c15-93.1,22.6-187.2,20.9-281.5
			c-1.7-92.2-27.8-177.8-74.8-257.7c-39.5-67.1-97.3-100.3-173.5-104.6c-94.2-5.3-188.4-5.3-282.6,0.1
			c-54.2,3.1-102.5,19.5-139.7,61.5c-32.2,36.3-52.2,78.7-63.8,125.3c-1.3,5.1,1,12.2-7.1,12.6c-12.4,0.7-25.5,0.1-36-5.6
			c-6.8-3.7-1.4-14.8-1.7-22.6c-0.4-9.2,0.6-18.5-0.1-27.7c-5.9-74.9-37.1-127-121.5-141.2c-171.8-29.1-342.1-21-511.8,14.8
			c-68.1,14.4-108.2,57.5-126.1,122.9c-9.8,35.7-14.5,72.4-16.6,109.3c-5.8,99.6-11.9,199.1-16.9,298.7
			c-2.6,52.2-7.4,104.3-2.1,156.8c9.6,95.4,60.6,150.4,155.1,164.1c56.7,8.2,113,2.7,168.5-9.4c13.2-2.9,17.2-0.3,20.2,11.6
			c7.3,29.2,7.6,29.1-22.1,34.3c-6.6,1.1-13.2,3.3-19.8,3.6c-55.9,2.3-105.3,20-145.9,59.8c-6.6,6.4-14.2,11.8-21.5,17.5
			c-70.4,56.1-114.3,127-118.3,218.5c-2.6,57.8-4.4,115.6-1.6,173.6c4.5,91.2,40.9,164.7,112.5,221.1
			c86.4,68.1,186.9,102.5,293.2,122.9C1873.4,2777.3,1994.2,2777.3,2140.7,2781.3z M1414,716.3c-4.1,37.8-0.9,70.9,6,103.5
			c16,75.8,51.9,136,129,164.9c9.9,3.7,17.7,4.8,27.3,3.6c51.3-6.4,102.4-13.6,154.1-16.3c88.9-4.6,177.1,2,265.1,14.4
			c9.5,1.3,18.4,3.8,25.4-7.8c63.6-104.3,95.2-216.7,87.4-339.3c-4-61.7-18.8-121.4-33.1-181.2c-9.5-39.6-34.8-65.7-70-83.2
			c-24.9-12.4-51.5-20.1-79.1-23.8c-71.7-9.6-143.6-7.3-215.6-3.9C1572,353.6,1469.1,435,1434,569.2
			C1421,618.8,1415.1,669.5,1414,716.3z M617.8,2698.8c264.2,22.6,526.4,29.5,782.3-57.3c-1.5-3.5-1.7-4.8-2.4-5.6
			c-48.4-49.5-79-108-89.2-176.6c-1.8-12.4-9.7-10.4-17.5-10.3c-39.4,0.8-78.8,2.4-118.2,2.1c-15.8-0.1-21.6,3.2-19.9,20.3
			c4.1,41.1,4.5,82.4,3.7,123.7c-0.3,13.3-5.1,17.6-17.5,15.6c-3.6-0.6-7.5-0.8-11.1-0.3c-15.1,2.3-18.7-4.3-17.6-18.6
			c3.3-40.6-0.8-81.3-2.1-121.9c-0.4-11.8-3.4-17.4-17.2-16.9c-50.5,1.8-101,2.7-151.5,2.8c-15,0-18.6,5.3-18.1,19.4
			c1.5,41.2,1.4,82.5,2.7,123.8c0.4,12-3.1,17.1-15.3,15.5c-4.2-0.6-8.7-0.6-12.9,0.1c-15.1,2.6-18.4-4.5-18.4-18.4
			c0.1-40.7-1.7-81.3-1.3-122c0.1-13.5-4.4-16.5-16.8-15.9c-24,1.1-48.1,1.2-72.1,0.7c-11.2-0.3-16,3.7-19.3,14.4
			c-15.4,48.5-38.5,93.2-68.3,134.4C675.7,2640.7,647.9,2670.1,617.8,2698.8z M2390.7,794.9c-2.3,0-4.6,0-6.8,0
			c0-59.1-0.1-118.1,0.1-177.2c0-9-0.8-16.1-10.1-21.4c-61.9-35.2-113.4-82.1-155.4-139.5c-6.5-8.9-10.2-7.4-16.7-0.7
			c-21.2,21.6-40,45-56.9,70.1c-5,7.4-5,14.7-3.2,22.8c21.4,98.1,17.1,195.4-10.3,291.8c-3,10.4-2.4,18.6,3.8,27.6
			c26.6,38.9,60.4,70.2,102.9,90.1c40.6,19,82.1,37.1,129.1,28.7c1.8-0.3,3.7-0.4,5.5-0.2c14.1,1.5,18.7-3.8,18.5-18.7
			C2390.1,910.6,2390.7,852.7,2390.7,794.9z M1086.3,2035.8c-27.5,59.2-70.6,95.2-134.6,101.2c-63.8,6-112.9-21.3-150.6-72.8
			c-12.5,22.6-26.4,41.2-45.2,55.7c-7.2,5.5-5.7,10.6-2.8,17.5c17.8,42.2,29.8,86,34.3,131.6c0.9,9.4,4.6,12.6,13.9,12.2
			c24-1,48-1.7,72-1.4c12,0.1,14.4-4.8,13.5-15.6c-2.2-27-3.2-54.1-5.1-81.1c-1.7-24.3-2-24.3,21.7-26.6c1.8-0.2,3.7-0.2,5.5-0.7
			c12.8-3,17.4,2.4,17.8,15.2c1,30.1,3.7,60.2,4.4,90.3c0.3,12.9,4.4,16.7,17.2,16.3c62.8-1.8,125.6-3,188.4-3.7
			c11.5-0.1,13-4.5,12.2-14.3c-2.7-31.3-5.2-62.6-6.7-93.9c-1.5-30.8-0.8-30.3,30.5-32.2c10.5-0.7,13.5,1.6,14,12.4
			c1.6,37.5,5,74.9,6.8,112.4c0.5,11.1,3.8,15.1,15.2,14.4c27.7-1.5,55.4-2.4,83.1-2.7c9.8-0.1,13-3.5,12.7-12.9
			c-0.6-22.8,1.7-45.4,5.7-67.9c16.6-93.4,71.4-161.6,143.7-218.2c9.9-7.7,19.8-15.4,32-25c-28.4-4-52.2-11.2-76.5-19
			c1.2,77.2-35.8,129.2-103.5,156.7C1224,2117.1,1150.4,2099.1,1086.3,2035.8z M2385,344.4c-49.5,15.6-92.4,38.8-132.4,68
			c-7.8,5.7-3.6,10,0.1,15.1c12.6,17.5,26.3,34.2,41.5,49.5c96.2,96.7,209.3,148.1,348.1,125.3c73.1-12,136.3-44.7,186.5-100.3
			c4.1-4.5,11.8-8.5,5.3-16.8c-22.8-28.9-47.9-55.3-78.9-77.3c-1.9,7.1-3.1,12.6-4.9,17.8c-8.2,23.9-23.4,40.5-49.2,44.4
			c-28.8,4.4-56.9,4.3-77.5-21.3c-14.5-18-10.9-39.7-11.1-60.4c-0.5-57.9-0.3-57.9-58.5-62.7c-0.6-0.1-1.2-0.1-1.8-0.2
			c-10.6-1.7-15.2,0.6-14.3,13.4c1.8,27,2.1,54.1,1.6,81.2c-0.5,28.9-15.7,46.8-43.5,54.4c-53,14.5-97.8-13.8-108.2-68
			C2383.9,386.6,2384.5,366.4,2385,344.4z M2909.2,714.3c-0.7-66.4-12.9-118.6-36.9-168.2c-5.4-11.1-8.3-15.5-19.2-3.9
			c-30.6,32.8-67.5,57.2-108.3,75.6c-13.9,6.3-32.8,8.7-40.6,19.3c-8.2,11.2,0.8,29.6,1.9,44.9c6.8,98.5-1.5,195.6-26.5,291.1
			c-3.5,13.3,0.9,16,12.1,17.1c16.6,1.6,33.1,4.7,48.4,11.1c12.6,5.3,21.5,2.5,31.6-5.8C2863.7,919.7,2904.8,820,2909.2,714.3z
			 M1364,1940.6c-0.4-23.9-6.7-43.5-19.7-60.8c-46.7-62.2-141.6-74.5-202.8-26.3c-59.9,47.2-58.6,128.1,2.9,173.4
			c48.7,35.8,122.8,36.3,171.5,0.5C1345.9,2005.4,1363.5,1976.4,1364,1940.6z M1042.8,2414.1c0-1.7,0-3.3,0-5
			c81.8-2,163.6-4.3,245.5-5.7c13.4-0.2,16.8-4.1,15.5-16.9c-1.9-17.7-3.4-35.7-2.4-53.4c0.9-15.6-5.1-17.8-18.9-17.4
			c-92.3,2.5-184.6,4.2-276.9,6.1c-66.5,1.4-132.9,2.9-199.4,3.7c-12,0.1-15.6,3.7-15.8,15.8c-0.2,19-1.4,38.3-5,56.9
			c-2.6,13.7,0.4,16.3,13.7,16.2C880.4,2413.8,961.6,2414.1,1042.8,2414.1z M1012.8,353.9c-63.6-0.2-114.9,51.4-114.6,115.3
			c0.3,62.6,51.8,114.4,113.9,114.6c62,0.2,113.8-51.3,114.6-114C1127.6,406.1,1076.4,354.1,1012.8,353.9z M1050.5,1977.1
			c-0.4-64.7-50.7-114.2-115.5-113.8c-62.8,0.4-112.5,51.5-112.1,115.4c0.4,64.6,50.9,114.3,115.5,113.9
			C1001.2,2092.1,1050.9,2040.9,1050.5,1977.1z M254.6,1267.1c-62.9,0-113.7,50.5-114.3,113.7c-0.6,63.5,50.2,114.8,114.3,115.2
			c62.7,0.4,113.8-50.2,114.3-113.4C369.5,1318.9,318.2,1267.1,254.6,1267.1z M248.7,1770.9c63.3,0.1,113.4-49.7,114.1-113.4
			c0.6-65.3-49.5-115.7-115.3-115.7c-62.5,0-112.5,51.3-112.2,115.1C135.7,1720.7,185.5,1770.8,248.7,1770.9z M314.8,709.8
			c-63.1,0.2-112.9,50.6-112.9,114.5c-0.1,64.6,50.2,115,114.5,114.8c63.1-0.2,112.9-50.7,113-114.4
			C429.5,760,379.2,709.6,314.8,709.8z M490.9,728.3c62.6-0.2,113.4-51.2,113.7-114.3c0.3-63.3-51.3-115.1-114.8-114.9
			c-64.1,0.1-113.4,50.7-113.1,115.9C377,678.5,427.4,728.5,490.9,728.3z M266.1,987.1c-64-0.1-115,51.1-114.7,115.1
			c0.3,63.3,50.9,114,113.8,114.2c63.9,0.1,115.1-51.3,114.8-115.1C379.7,1037.9,329.1,987.2,266.1,987.1z M410.1,1766.2
			c-63.6-0.1-114.9,51.5-114.5,115.3c0.4,62.3,52,115,113.8,114.4c69.1-0.8,111.1-52.1,114.2-113.9
			C526.8,1818.5,473.6,1766.3,410.1,1766.2z M1291.5,358.1c-63.8,0-113.2,49.4-113.6,113.4c-0.4,64.2,50.3,115.8,113.9,115.8
			c62.7-0.1,113.2-50.7,113.6-114.2C1405.8,408.4,1356,358,1291.5,358.1z M543,1992.1c-0.6,66.3,48.5,116.8,113.9,117.1
			c62.8,0.3,112.9-50,113.2-113.8c0.3-63.9-49.1-115.1-111.6-115.6C591.1,1879.2,547.4,1930.4,543,1992.1z M850.8,494.7
			c0.1-64.1-49.3-114.2-112.7-114.4c-64.8-0.2-114.8,49.4-114.9,114.1c-0.1,63.3,50,114.6,112.7,115.2
			C799.5,610.1,850.8,558.8,850.8,494.7z M2545.9,835.1c0,31.9,0.4,81.8-0.3,131.7c-0.2,12.2,2.1,17.8,15.9,17
			c17.8-1,35.7-0.4,53.5,0.6c11.2,0.7,16.1-2.8,19.1-14.1c26.8-102.3,34.6-206,24.3-311.2c-1.1-11.4-5.3-12.7-15.2-11
			c-29.2,5-58.7,8.1-88.2,4.3c-13.9-1.8-16.6,2.3-15.9,15.3C2541.6,717.4,2543.2,767.3,2545.9,835.1z M2429,802.1c2.3,0,4.6,0,6.9,0
			c0,45.5-0.3,91,0.2,136.5c0.2,14.5-6.8,34.3,3.2,42.2c9.2,7.2,28.2,1.3,42.7,2.7c15.1,1.6,18.2-4.8,18.3-18.7
			c1-96.6-1.5-193.2-5.9-289.7c-1.4-30.6-1.5-30.6-31.8-39.9c-6.5-2-13.1-3.7-19.1-6.6c-13-6.4-14.9-1-14.7,11.2
			C2429.3,693.8,2429,747.9,2429,802.1z M2108.9,910.2c-14.9,28.2-28.3,54.5-42.8,80.2c-5.2,9.3-2.8,12.1,6,15.7
			c20.3,8.1,37.8,20.7,52.4,37c18.1,20.2,31.1,43.6,41,73.4c24-41.8,54.1-73.1,93.1-99c-31.1-12.1-58-25.4-82.6-43.1
			C2150.7,956.3,2129.1,934.5,2108.9,910.2z M469.4,2030.5c-1.2,0.8-2.3,1.3-3.2,2.1c-21.9,16.8-43.6,33.8-65.6,50.4
			c-5.8,4.4-4.6,8.5-2.4,14.3c15.7,40.5,31.1,81.2,46.4,121.9c2.7,7.1,5,12,13.8,5.7c19.5-13.9,39.4-27.1,59.2-40.4
			c5.1-3.4,7.1-6.7,4.7-13.6c-15.8-44.4-30.8-89-46.2-133.6C475,2034,474.5,2029.8,469.4,2030.5z M356.8,2116.8
			c-22,16.6-42.3,32.3-63.1,47.6c-6.7,4.9-7.6,9.8-4.5,17.3c15.4,37.5,30.5,75.2,45.3,112.9c3.1,7.8,5.7,11.4,14.2,5.2
			c17.9-13,36.4-25.1,54.8-37.4c5.4-3.6,6.6-7.2,4-13.8C390.4,2205.3,374,2161.8,356.8,2116.8z M338.6,2069.7
			c-0.5-1.4-0.8-2.6-1.3-3.7c-11.4-24.6-14.2-53.6-39.1-71.3c-10.5-7.4-18.1-18.7-23.9-30.2c-5.1-10.1-12.1-11.3-21.1-7.6
			c-15.5,6.3-33.2,9.3-42.5,25.7c-0.8,1.3,1.5,4.4,2.4,6.7c16.7,42.3,33.5,84.5,50,126.8c3.1,7.8,5.4,11.1,13.7,4.3
			c18.1-14.8,37.2-28.3,55.7-42.5C335.2,2075.8,339.1,2074.2,338.6,2069.7z M593.6,2388.6c-1.4,0.7-3.1,1.4-4.6,2.4
			c-18.2,11.4-36.2,23.1-54.7,34.1c-7.9,4.7-6.9,9.8-4.2,16.9c14.3,36.5,28.3,73.1,42.1,109.8c2.8,7.6,5.1,11.5,13.9,6.3
			c16.4-9.6,33.2-18.5,50.1-27.2c7-3.6,8-8.1,5.6-15c-14-39.9-27.7-79.9-41.7-119.7C599.1,2393.2,599.3,2388.4,593.6,2388.6z
			 M486.6,2455.1c-21.9,13.8-41.9,26.9-62.3,39.2c-7.1,4.2-6.9,8.3-4.1,15c14.1,34.5,28.1,69.2,41.6,104c3.1,8.1,6.1,8.6,13.3,4.5
			c17-9.8,34.3-19,51.8-27.7c7.8-3.9,8.6-7.7,5.4-15.7C516.9,2535.7,502.4,2496.7,486.6,2455.1z M580.5,2340.2
			c-1.1-4.1-1.4-5.3-1.8-6.5c-11.7-33.6-23.7-67.2-35-100.9c-3.6-10.7-8.4-5.5-13.4-2.1c-18.3,12.4-36.5,25.1-54.9,37.3
			c-6.6,4.3-9,8.5-5.8,16.5c12.1,30.2,23.7,60.6,35.1,91.1c2.8,7.5,5,12,14,6c17.9-12,36.5-22.8,54.7-34.3
			C576.8,2345,581.3,2342.9,580.5,2340.2z M261.2,2537.3c-0.5-1.2-1.3-2.8-2-4.5c-11-27.2-22.3-54.4-32.9-81.8
			c-3.2-8.2-6.3-8.7-13.1-3.9c-21.1,14.8-42.4,29.3-63.8,43.5c-6.1,4.1-8,8.3-5.4,15.3c10.1,26.5,22.3,51.8,39.4,74.5
			c3.8,5.1,7,7.4,13.3,3.3c19.5-12.7,39.4-24.8,59.1-37.3C258.7,2544.4,262.5,2542.6,261.2,2537.3z M402.7,2453.9
			c1.2-0.7,2.3-1.3,3.3-1.9c19.2-12,38.4-24.2,57.8-36.1c5.4-3.4,5-6.9,2.9-12.3c-12-30.8-23.6-61.9-35.4-92.8
			c-2.1-5.4-4.1-9.8-11.6-4.4c-18.4,13.2-37.4,25.7-56.4,38.2c-6,4-5.6,8.5-3.2,14.2c12,29.6,23.7,59.2,35.6,88.8
			C396.9,2450.7,397.6,2455,402.7,2453.9z M244.6,2202.6c-2.1,1.5-4.6,3.1-7,5c-12.2,9.3-24.1,18.9-36.7,27.7
			c-7.2,5-8.9,9.8-5.2,18.2c9.5,21.9,17.6,44.4,27.1,66.3c7.2,16.6,9.2,44,23,46.7c12.8,2.5,30-17.7,45.5-27.5
			c6.6-4.2,9.1-8.1,5.6-16.4c-15.5-37.3-30.3-74.8-45.3-112.3C250.3,2207,250.4,2202.6,244.6,2202.6z M129.1,2449.2
			c24-16.3,45-31.1,66.6-45.1c7.1-4.6,8.4-9.2,5.3-16.8c-14.4-35.2-28.5-70.5-42.8-105.7c-1.3-3.2-1.6-7.5-6.4-7.6
			c-5.2-0.1-34.2,25.6-34.2,31.1C118.1,2352.4,119.4,2399.7,129.1,2449.2z M173.7,2014.9c-19.6,22-30.2,45.8-38.8,70.8
			c-1.4,4.2-2.9,8.2-1.2,12.5c13.3,32.9,26.6,65.9,40.5,100.3c17.2-13,32.8-24.9,48.5-36.6c5.1-3.8,7-7.9,4.5-14.2
			C209.5,2104.2,192,2060.5,173.7,2014.9z M728.7,2446.4c-1.1-3-2.5-6.4-3.7-9.8c-7.3-21.5-14.6-43.1-22-64.6
			c-15.3-44.8-15.1-44.4-55.5-18.1c-9.3,6-10.2,11.6-6.9,20.9c12.5,35.3,24.3,70.8,37,106c2.6,7.1,2.2,19.7,9.7,20
			c9.7,0.4,20.7-6.1,26.6-14.3C722.1,2475.2,724.9,2460.7,728.7,2446.4z M423.6,2640c-0.5-1.1-1.1-2.2-1.5-3.4
			c-13.9-34.8-27.9-69.6-41.4-104.6c-3.2-8.1-7.1-6.3-12.5-2.8c-12.4,8-24.6,16.4-37.6,23.3c-10.1,5.4-10.2,11.5-6.1,20.9
			c7.9,18,14.9,36.4,22.2,54.6c21.5,53.6,21.5,53.6,70.4,21.3C420.4,2647.2,425.4,2646,423.6,2640z M631,2162
			c-15.7,10.6-29.7,20.5-44.1,29.8c-5.5,3.6-7.1,6.9-4.7,13.6c12.2,34.1,23.7,68.4,35.6,102.6c1.1,3.1,2.5,8.8,6.8,6.3
			c15.8-9.3,31.2-19.5,46.5-29.7c1-0.7,0.6-4.7-0.2-6.9C657.8,2239.6,644.6,2201.5,631,2162z M358,2476.2c-0.4-1.2-0.7-2.4-1.1-3.5
			c-11.8-29.6-23.8-59.1-35.5-88.7c-2.4-6-5.1-7.7-10.8-3.6c-14,9.9-28,19.9-42.4,29.2c-5.9,3.8-6.5,7.6-4,13.7
			c11.5,27.7,22.8,55.4,33.7,83.3c2.9,7.5,5.5,9.7,13.1,4.6c13.2-8.9,27-16.8,40.6-25.2C355.3,2483.9,359.2,2481.7,358,2476.2z
			 M2495.1,379.9c-0.6-10.5-1-20.9-1.8-31.4c-2.1-25.8-2.3-26.6-28.1-22.2c-39.7,6.8-31.9-3-34.6,38.4c-1.2,18,0.2,35.7,9.1,52
			c9.5,17.6,25.4,17.3,41.8,14.8c17.3-2.6,12.9-16.6,13.6-27.6C2495.4,396,2495,388,2495.1,379.9z M534,2693.2
			c23.3,1.4,37-17.2,28.6-38.6c-2.2-5.7-4.4-11.4-6.1-17.3c-2.3-7.9-6-8.9-13-4.8c-15.3,8.9-31.2,16.8-46.6,25.6
			c-5.6,3.2-15.9,3.7-11.3,14.9c3.6,8.9,5.6,19,19.1,18.4C514.4,2691,524.2,2692.5,534,2693.2z M737,2239.2
			c-5.9-30.4-14.1-58-25.9-84.4c-6.9-15.5-18.3-2.2-27.1-2c-10.8,0.3-4.5,9.3-3,14c8.5,26.1,17.4,52.2,26.9,77.9
			c1.6,4.4,0,15.8,9.6,11.3C725.2,2252.4,736.9,2250.2,737,2239.2z M310.5,2660.9c-9.2-23.4-18-45.9-27.1-68.2
			c-1.2-2.9-2.6-8.1-7.5-5c-17,10.6-35.1,19.7-50.9,33.3C253.3,2642.5,284.7,2657.2,310.5,2660.9z M2658,353.5c0,21.3,0,41.3,0,61.3
			c0,3.8,0.8,7.1,4.4,9.3c9.1,5.6,35.7,2.2,41.3-5.4c7.9-10.7,6.8-39.9-2.9-45.9C2688.1,364.9,2674.7,357.7,2658,353.5z
			 M657.6,2571.2c-2.5,1.1-4.3,1.8-5.9,2.7c-16.7,9-33.4,18.1-50.1,27.1c-4.7,2.5-8.6,5.3-6.1,11.4c3.9,9.7,7.9,19.3,12,28.8
			c0.1,0.1,3.6-0.6,4.7-1.7c18.2-17.4,35-36.2,49-57.2C663.7,2578.7,662.9,2573.3,657.6,2571.2z M117,2240.5
			c21.9-13.1,21.8-24.2,0-52.6C117,2205.9,117,2222.1,117,2240.5z M742,2344.5c1.2,0,2.5,0,3.7-0.1c0-12,0.4-24-0.2-35.9
			c-0.2-4.2,3-13.3-6.6-10.9c-5.8,1.4-12.6,5.1-8.4,14.7C735,2322.7,738.3,2333.7,742,2344.5z M584.2,2138.4
			c-10.4-6.9-19.4-12.8-29.8-19.7c0.7,12.3,3.2,23.6,10,30C569.1,2153.2,576.2,2143.4,584.2,2138.4z"/>
		<path class="st0" d="M1060.8,1263.3c0.1,88.8-70.8,160.2-159.1,160.3c-88.4,0-159.2-71.1-159.2-160.1
			c0-88.6,71.2-160.5,159.1-160.7C989.1,1102.7,1060.8,1174.9,1060.8,1263.3z M901.3,1148.8c-62.9,0.2-113.6,50.9-114,114.1
			c-0.4,63.2,51.9,116.1,114.6,115.8c62.1-0.2,113.6-52,114-114.6C1016.3,1200.3,964.9,1148.6,901.3,1148.8z"/>
		<path class="st0" d="M2043.8,2641.7c-69.1-4.7-172.4-9.4-275.1-22.8c-133.7-17.4-213.9-99.8-264-217.7
			c-18.7-44-32.6-90.1-39.2-137.9c-10.4-75.5,21.7-141.1,87.8-178.8c31.7-18.1,65.4-31,100.6-40.6c36.2-9.9,72.5-19.6,106.5-36
			c52-25,83.2-64.8,83.6-124.2c0.4-49.4-28.2-83.9-76.7-94.6c-25.4-5.6-51.1-7.5-77.1-7.1c-27.8,0.4-55.6-0.4-82.8-5.5
			c-81.4-15.1-129.4-64.2-139.3-150.3c-14.3-124.1,2.7-244.9,56.8-358.2c32.1-67.4,81.6-119.9,151.5-150.4
			c91-39.6,197.2-15.5,252.4,57.4c19.4,25.7,32.6,54.9,45.1,84.5c9.1,21.5,17.8,43.2,28.1,64.2c35.5,72.5,104.2,100.5,180.8,75.2
			c62.7-20.7,108.7-57.8,130.2-122.7c35.8-108.5,190.5-160.5,302.9-86.9c99.9,65.4,183,228.8,56.3,389.4
			c-43.3,54.9-96.5,98.7-164.4,117c-70.9,19.2-78,70.3-67,122.3c13,61.4,45.9,107.4,107.4,130.6c93.5,35.2,138.4,106.6,138.6,203.9
			c0.3,111.6-26.1,217.3-90.5,310.4c-58.6,84.7-140.6,134.3-241.5,153.1C2263.4,2633.1,2171.5,2646.7,2043.8,2641.7z M2078.4,2598.2
			c94.4,2.6,183.7-10.9,272.8-28c118-22.7,197.5-92.7,245.8-199.9c27-60,41.1-124,45-189.4c4.9-83-18.3-156.6-118.6-194.1
			c-76.1-28.5-114.9-90.4-128-168.1c-14.8-87.9,13.8-136.8,96.8-164.9c55-18.6,99.3-50.8,136.7-93.8c89.6-103,80.5-233.9-21.2-320.9
			c-89.8-76.9-233.9-30-255.3,59.3c-7.4,30.9-25.5,58.7-49.5,81.1c-6.2,5.7-5,9.6,0.5,15c14.7,14.2,26.3,30.9,35.6,49.1
			c46.1,90.7,0.8,213.1-122.6,214.9c-10.8,0.2-11.6,3.7-10.2,13c10.3,65.7-27.4,102.9-68.4,124.7c-17.6,9.3-36.5,14.4-56.2,17.1
			c-62.4,8.5-116.9-29.8-130.1-91.2c-5.9-27.5-3.5-54.2,7-79.7c5.4-13.1,2.3-17.4-10.2-22.2c-38.3-14.9-61.9-43.7-71.3-83.5
			c-8.7-36.9-2.6-72,14.3-105.7c14.9-29.6,36.1-54.2,60.2-76.6c4.8-4.5,11-8,6.8-16.7c-19.8-40.9-33.3-84.7-57.5-123.6
			c-25.6-41.2-63.7-62.6-110.7-68.2c-79.6-9.5-139.1,26.8-188,85.2c-31.7,37.9-52.4,81.9-65.1,129.3
			c-22.2,83.1-35.6,167.6-25.4,253.8c9.3,77.9,49.1,113.9,126.8,120.2c40.5,3.3,81.2,1.6,121.7,6.5c60.6,7.3,110.7,46.7,123.9,103.3
			c14.9,64.3-1.5,121-49.1,167.1c-9.9,9.6-7.5,13.1,0.7,20.4c57.4,50.9,95.7,113.3,114.3,188c11.8,47.6,15.3,95.9,13.3,144.8
			c-3,69.7-15.7,138-32.9,205.4c-3.8,15-1.1,20.2,15,20.8C1990.9,2592.6,2036.3,2595.8,2078.4,2598.2z M1796.5,2359.4
			c-1.8-90.2-33.4-173.3-110.2-236.8c-30.1-24.9-59.4-31.6-92.9-8.4c-9.6,6.6-20.6,11.1-30.2,17.7c-38.6,26.7-58.2,64.2-53.6,110.6
			c8.3,83.5,35.6,160.9,86.6,228.2c36.1,47.7,81.7,83.2,142.2,96c9.6,2,14.1,1.5,17.8-8.4
			C1779.6,2496.4,1795.4,2432.9,1796.5,2359.4z M1703.1,2077.8c113.6,90,150,207.2,134.6,344.5c-5.5,48.6-18.1,95.4-35.4,141
			c-4.5,11.9-1.5,15.2,9.8,16c12.3,0.8,24.5,2.1,36.7,3.7c31.1,3.9,31.5,4.1,38.5-26.3c21.2-91.9,39.9-184,27.6-279.4
			c-11.7-90.1-50.5-165-121.7-222.3c-4.1-3.3-7.5-8.8-14.3-5.4C1755.3,2061.7,1729.4,2067.5,1703.1,2077.8z M2106.1,1488
			c0-32.4-0.9-35.6-12.6-38.1c-39.8-8.5-73.4-27.3-100-58.3c-4.1-4.7-7.3-7.6-13.3-1.9c-25.1,24.1-47.8,50-57.4,84.3
			c-8.9,31.8-7.9,63.4,17.4,87.7c28,26.9,63.4,30.9,100,22.7c34.2-7.6,53.5-31,60.9-64.4C2103.9,1507.7,2105.1,1494.8,2106.1,1488z
			 M2311.1,1516.4c-0.1-38.9-18.7-69-45.1-95.6c-6.3-6.4-11.5-4.2-17.8-0.7c-26.5,14.7-54.6,25.3-84.8,29.4
			c-11.4,1.6-13.1,6.7-12.5,17.3c1.6,28.4-1.1,56.6-10.8,83.5c-11.5,32.1-11.7,31.9,19.3,47.8c10.5,5.4,21.4,9.2,32.8,12
			C2257.2,1625.9,2311.2,1583.3,2311.1,1516.4z M2162.4,1687.6c-3.1-13.9-1.2-35.2-20.6-47.1c-13.1-8.1-26.7-15.2-38.4-25.2
			c-5.5-4.7-9.8-5.2-16.2-1.3c-19.8,12.1-41.9,17-64.7,19.2c-5.5,0.6-10.9,0.4-14,6.6c-14,28.6-21,57.8-7.2,88.5
			c15.1,33.8,46.7,47.3,87.9,38C2132.6,1756.7,2162.2,1726.9,2162.4,1687.6z"/>
		<path class="st0" d="M1784,762.9c-50.5,0.4-87.9,20.1-124.6,42.1c-9.9,6-19.2,13.1-30.7,16.4c-12.3,3.6-22.3,0.1-29.2-9.9
			c-6.8-9.8-4.5-20.4,2.7-28.9c9.5-11.2,20.2-21.5,30.5-32.1c48.9-50,51.2-99.6,7.4-154.1c-5.8-7.2-12.2-14.2-16.1-22.3
			c-4.2-8.8-6.5-18.8,1.9-27.5c8-8.3,17.4-11.8,28.4-7.8c14.4,5.3,28.6,11.2,42.7,17.1c71.1,29.7,137.8,22.9,199.8-23.7
			c14.7-11,28.2-23.9,49-22.2c8.3,0.7,12.1,2.4,12.1,11.5c0,13.3-2.3,25.4-10.3,36.4c-18.1,24.9-33.2,51.7-49.5,77.8
			c-17.4,28-16,54.7,1.2,81.3c10.3,16,21.8,31.2,32.7,46.8c9.1,13,14.3,27.1,2.8,40.6c-12.1,14.3-27.1,10.9-41.9,3
			c-20.6-11-39.5-24.9-61.5-33.4C1814.3,767.1,1796.4,763.4,1784,762.9z M1705,731.1c51.4-18.5,100.4-18.3,152.6,4.4
			c-25.3-47.5-21.1-88.8,7.6-133.2c-57,21.2-109.9,20.8-163.8,4.5C1720.6,667,1721,680.1,1705,731.1z"/>
		<path class="st0" d="M1986.5,2041.3c-44.5,0.2-78.9-33-79.2-76.5c-0.3-42.8,35.2-78.8,78.2-79.3c43.9-0.5,80.3,35.7,80,79.2
			C2065.2,2008.5,2031.6,2041,1986.5,2041.3z M1986.3,1996.9c18.9,0,32.8-13.1,33.4-31.6c0.5-18.9-14.2-34.1-33.2-34.2
			c-18.7-0.1-34.1,15.5-33.6,34C1953.4,1983.3,1967.7,1996.8,1986.3,1996.9z"/>
		<path class="st0" d="M2166.3,2119c0.2,43.6-34.7,79.1-78.1,79.5c-43.2,0.3-78.8-34.9-79.2-78.4c-0.4-43.4,34.7-79,78.1-79.3
			C2130.7,2040.6,2166.1,2075.5,2166.3,2119z M2087.4,2086.1c-19.1,0.3-33.4,15.4-32.7,34.7c0.7,18.5,14.9,32,33.4,31.8
			c18.9-0.2,34-15.9,33.1-34.4C2120.5,2100.6,2104.9,2085.8,2087.4,2086.1z"/>
		<path class="st0" d="M2107.9,2592.2c-43.8,0.1-78.5-34.2-78.5-77.7c0-43.1,35.4-78.2,78.8-78.2c43.6-0.1,78.8,34.4,79.3,77.6
			C2188.1,2558.1,2153.5,2592.1,2107.9,2592.2z M2108.3,2547.3c18.7,0.1,32.9-13.4,33.4-31.6c0.5-18.7-14.5-34.4-33.1-34.4
			c-18.4-0.1-34.1,15.9-33.7,34.2C2075.4,2533.4,2089.9,2547.2,2108.3,2547.3z"/>
		<path class="st0" d="M2196.6,2323.7c-0.2,43.5-35.7,78.9-78.8,78.7c-43.3-0.3-78.2-35.8-78-79.4c0.2-43.6,35.6-79.1,78.8-78.8
			C2162,2244.5,2196.8,2280,2196.6,2323.7z M2151.3,2323.4c0-18-14.3-33-32.2-33.5c-18-0.6-34.3,15.3-34.3,33.6
			c0,17.9,14.4,32.7,32.5,33.2C2136.2,2357.1,2151.2,2342.4,2151.3,2323.4z"/>
	</g>
</g>
</svg>
