<?xml version="1.0" encoding="utf-8"?>
<!-- Generator: Adobe Illustrator 23.0.0, SVG Export Plug-In . SVG Version: 6.00 Build 0)  -->
<svg version="1.0" xmlns="http://www.w3.org/2000/svg" xmlns:xlink="http://www.w3.org/1999/xlink" x="0px" y="0px"
	 viewBox="0 0 3000 3000" style="enable-background:new 0 0 3000 3000;" xml:space="preserve">
<style type="text/css">
	.st0{stroke:#000000;stroke-width:14;stroke-miterlimit:10;}
</style>
<g id="Layer_1">
</g>
<g id="Layer_2">
	<g>
		<path class="st0" d="M695,1166.5c-20.2,0-40-0.7-59.8,0.1c-82.3,3.5-164.6,7.3-246.8,11.4c-23.9,1.2-47.6-0.7-70.8-5.1
			c-71.9-13.7-107.2-63.1-91.5-135.6c27.7-127.9,67.1-252,134.4-365.5C461.2,501.9,609,389.8,791.6,320.4
			c120.5-45.8,245.7-68,374-74.1c132-6.3,263.9-3.9,394.9,15c63.2,9.1,121.2,32.3,168.8,76.9c7.1,6.6,13.8,13.8,19.7,21.5
			c15.3,19.9,17.5,19.8,32-2c22.5-34.1,49.6-63.9,84.4-86c69.8-44.3,153.3-30.3,203.5,38.2c49,66.8,53.3,140.3,29.7,217.2
			c-10.9,35.5-11.1,36.4,26.1,38.3c106.8,5.5,136.2,107.7,113.7,176.7c-17.9,55-54.2,95.5-102.1,125.7
			c-16.6,10.5-20.3,21.6-16.5,39.7c18.1,87.4-13.4,157.6-91.2,203.5c-12.8,7.5-14.2,13.6-6.5,26c103.2,165.1,122.4,344.3,85.9,531.7
			c-7.7,39.7-2.4,77.9,0.6,116.5c12.4,154.9-22.7,297.7-104.6,429.4c-4.1,6.5-7.4,13.6-12.1,19.5c-12.3,15.2-12.6,29.9-0.8,45.6
			c79.6,106,61.3,312.5-49.6,420.9c-66.5,65-146.8,108.1-230.7,145.3c-119.7,53.1-246.4,74.1-376.3,79.5
			c-184.8,7.6-369.7,15.8-554.7,12.4c-93.6-1.8-187.1-5.6-276.6-37.8C349,2844.8,242.6,2737.3,170,2593.4
			c-14.6-29-19.3-60.7-20.5-93.3c-5.5-146.6-4.4-293.2,9.2-439.3c9.9-106.1,16.4-212.9,47.5-315.9
			c40.9-135.6,120.1-247.6,214.5-350.3c77-83.7,163.7-155.8,260.4-215.8c4.1-2.6,8.2-5.2,12.2-8.1
			C694.1,1170.1,694.2,1168.5,695,1166.5z M2064,1442.7c-6.2,7.5-9,10.4-11.4,13.7c-54.9,74.3-115,143.9-183.3,206.3
			c-50.6,46.2-104.5,88.2-161.9,125.7c-13.3,8.7-26.9,12.6-38.5-2.6c-11.8-15.5-9.5-30.7,6.5-43.7c6.5-5.3,13.5-9.9,20.5-14.5
			c114.2-75.7,209.1-171.6,292-279.8c48-62.6,56.4-132.1,28.5-205.7c-48.1-127.1-166-205.6-306.3-206.3c-23.2-0.1-34,8.6-39.5,30.5
			c-8.8,35.1-19.3,69.9-36.8,102c-28.8,52.7-72.8,79-133.1,77.7c-56.1-1.2-111-10.7-165.6-22.8c-24.4-5.4-31.2,0-30,24.3
			c1.1,23,2.9,45.9,4.7,68.8c2.7,34.2,9.4,42.3,41.9,50.1c121,29.3,229.2,1.5,326.8-73.3c12.3-9.4,25-18.1,40.1-21.8
			c9.7-2.4,19.6-2.5,26.7,6.7c7.2,9.3,7.3,19.3,2.3,29.5c-7.1,14.4-19.4,23.7-32.5,31.8c-137.2,84.8-257.8,187.7-356.2,316.6
			c-58.4,76.5-138.3,105.4-233.5,89.3c-97.9-16.6-195.4-20.2-292.9,3.4c-39.3,9.5-79,17.3-118.6,25.4c-17.5,3.6-31.6-0.5-37.2-20.2
			c-5.4-18.6,3.4-29.3,19.1-36.5c24-11.1,48.2-21.8,72.1-33.1c31.6-14.9,62.3-31.1,89.2-53.9c40.5-34.2,52.4-78.4,32.5-127.7
			c-11.3-27.9-28.2-52.8-44.3-78.1c-4.9-7.6-9.2-15.6-13.4-23.6c-2.2-4.2-5.4-9.1-0.9-13.4c3.5-3.4,8.1-0.3,11.8,0.8
			c19.3,5.9,38.4,12.6,57.7,18.5c99.9,30.6,198,27,294.4-14.7c57.2-24.8,61-30.4,55.3-93.1c-2.6-28.3-3.9-29-29.5-14.9
			c-74.4,40.8-151.2,51.1-231.2,17.4c-54.7-23.1-94.2-63.5-126.9-111.8c-18.5-27.4-30.5-29.6-59.7-14.5
			c-142.2,73.9-266.3,171-371.2,292.1c-95.3,110-161.7,234.6-190.4,378.8c-20.1,100.9-22.7,203-27.9,305.1c-0.1,2.6-0.5,5.7,4.4,7
			c9.9-7.3,20.1-15.6,31.1-22.8c156.5-103.1,321.3-150.6,504.3-74.1c9.6,4,17.3,1.6,25.1-4.5c15.1-11.6,32.4-18.8,50.6-24.4
			c55.2-17.1,103.7-4.9,145,34.3c39.9,37.9,53.4,84.2,36.2,137.4c-4.6,14.2,1.4,17.9,13.3,21.3c58.9,16.9,95.3,56,109.3,115.2
			c15,63.1-11.1,123.7-69.7,144.5c-36.5,12.9-48.7,32.8-57.7,68.6c-32.7,129.9-112.5,228.6-217.4,308.8c-5.7,4.3-13.4,6.8-17.2,16.6
			c5.9,0,9.9,0.1,13.8,0c168.2-2.6,336.4-6.2,504.7-7.6c114.8-1,226.6-17.8,335.1-55.1c98.2-33.7,193.5-74.2,268.1-149.5
			c90.9-91.7,112.9-200.3,70.6-321.7c-14.8-42.5-25.4-44.2-56.1-11.8c-61,64.3-121.8,128.8-183,192.9c-14,14.7-29,14.8-41.9,2
			c-15-14.9-15.2-28.4,0.1-43.2c65.7-63.6,126.6-132,190.4-197.4c94.3-96.7,154.9-210.6,173.8-345.2c4.3-31,6.3-62.3-0.6-97.5
			c-6.1,9.6-9.9,15.3-13.6,21.2c-44.6,72.5-98.7,136.9-164.1,191.6c-13.4,11.2-26.4,15.6-39.8,0c-14.9-17.3-14.6-30.3,1.4-45.2
			c5.6-5.2,11.7-9.9,17.5-14.9C2013.3,1851.6,2082.1,1667.2,2064,1442.7z M1349.3,980.5c5.6,0.4,8.8,1.1,12,0.9
			c50.8-3.4,101.6-6.7,152.4-10.4c18.2-1.4,35.4-7,52-14.8c154.2-73.1,236.7-221.3,218.7-392.7c-15.2-144.4-93.2-229.4-236-252.3
			c-128.1-20.6-257.3-19.7-386.5-13.9c-106.3,4.8-210.6,22.5-311.9,56.3c-155.7,52-291.4,133.9-393.6,264.6
			c-98.8,126.6-146.6,276-183.4,429.2c-10.3,43.1,13.9,70.5,58.2,76.9c34.3,5,68.3-1,102.4-0.4c32.5,0.6,33-0.3,31.7-32.5
			c-3.7-93-2.2-185.7,15.8-277.4c39.2-199.2,150.6-334.7,348.1-395c82.1-25.1,166.1-36.4,251.3-40.4c51.4-2.4,103.1-7.3,154.1,1.9
			c127.8,22.8,211.3,102.1,264,216c28.6,61.9,24.5,126.3-1.8,189.1c-18,42.8-47.1,77.1-81.4,107.6
			C1388.4,917.5,1366.4,945.7,1349.3,980.5z M511.7,2214.7c-5.6,0-11.1-0.1-16.7,0c-4.9,0.2-9.7,0.6-14.6,1.1
			c-108.7,9.9-188.1,67-249,154.1c-19.8,28.4-28.2,59.5-27.2,94.5c2.9,99.1,46,179.5,114,248.1c36.3,36.7,82.4,52.2,133.4,48.4
			c111.4-8.2,212-43.3,296.1-120.4c57-52.3,76.7-114.4,57.9-188.8C772.1,2319,658.6,2228,511.7,2214.7z M1639.5,973.9
			c39.4,2.9,72.7,5,106,7.9c15.1,1.3,24.6-5.4,33-17.3c72.2-102.9,110.9-216.4,110.4-342.8c-0.2-44.9-6.7-89-14.1-133
			c-3.6-21.2,12.3-22.1,24.8-26.3c15.1-5,19.8,5,22.2,17.2c5.5,28.1,10.8,56.1,13,84.7c11.8,149.9-22.6,288.1-106.2,413.4
			c-9.3,13.9-6.3,17.9,8.6,22.3c43.8,12.9,85.5,31.2,119.3,62.8c15.7,14.7,29.1,14.6,46.7,6c64.5-31.6,91.3-107.9,61.3-176.8
			c-12.8-29.5-12.9-29.7,15.3-46.2c24.8-14.5,47.8-31.4,68.7-51.1c21.2-20,37.3-43.3,44.5-72c15.3-60.7-14.5-102.3-76.5-107.1
			c-20.3-1.6-40.3,1.4-60.4,3.8c-17.6,2.1-34.9,8.2-55.1,5.3c7.3-14.3,14-27.2,20.5-40.2c15.1-29.8,30.7-59.5,37.2-92.8
			c11-56.6,6.6-110.2-32.4-156c-39.9-47-93.7-52.3-143.3-15.9c-30.4,22.3-51.8,52.2-73.7,82.2c-11,15-13.4,27.4-5.8,45.6
			c86.4,207.9-7.3,419-149.7,514.9C1650.6,964.8,1647.6,967.5,1639.5,973.9z M479.3,2821.3c50.8,30.8,99.9,47.1,152.1,54.8
			c16.7,2.5,32.9,4.4,48.9-4.5c115.9-63.9,205.7-152.5,260.3-274.4c25-55.8,36.1-114.7,29.5-175.6
			c-23.2-214.1-228.7-372.5-443-345.2c-114.2,14.5-211.3,63.1-297.2,137.4c-24.6,21.3-31.8,51-20.8,83.7c1.3-0.5,2.8-0.6,3.8-1.5
			c15.7-13.8,31.2-27.9,47-41.6c84.1-72.3,180.8-107.9,291.7-92.7c149.7,20.5,247.9,108.3,301.4,246.4
			c37.5,96.8,19.7,185.3-53.7,260.4c-67,68.6-147.3,114.2-241.2,135.2C533.8,2809.3,509.4,2814.7,479.3,2821.3z M954.7,959.2
			c1.6,22.7,3.8,48.4,5,74.2c0.7,15.8,8,18.5,21.8,14.4c16-4.8,32.3-8.4,48.5-12.7c33.4-8.9,33.3-0.1,33.6-41.7
			c0.7-95.9,39.6-172.4,118.8-227.3c17.2-11.9,35.2-22.4,52.5-34.3c23.7-16.3,37.7-43.2,32.6-61c-5.1-17.6-31.5-32.4-60.9-32.4
			c-49.1,0-93.2,15.7-131.4,46.3C988.2,754.3,959,849.8,954.7,959.2z M1076.7,1262.3c4.9,0,9.8,0.1,14.6,0
			c100-3.1,188.5-81.1,199-175.6c3.5-31.4-1.8-36.6-34-34.7c-36.2,2.1-72.1,6.8-107.7,13.5c-78.8,14.9-155.4,37.8-231.6,62.2
			c-12.7,4.1-20.5,10.4-12.2,24.2C944,1216.6,995.7,1262.3,1076.7,1262.3z M1557.6,1026.9c-59.3,4.3-121.8,9.2-184.4,13.1
			c-15.1,1-21.6,8.4-22.2,22c-1.3,29.5-6.1,58.1-17,85.6c-4.2,10.7-0.5,17.8,11,19.9c55.4,10,110.4,23.5,167.4,20.5
			c34.7-1.9,58.8-19,74.2-49.4c14.3-28.2,20-59.2,27.8-89.4c3.1-11.9-1.3-19.1-14-19.9C1587.3,1028.3,1574.1,1027.8,1557.6,1026.9z
			 M1096.4,1481.5c-45.3,5-88.4,5.1-131.3-1.4c-16.4-2.5-20.8,1.2-15.9,18.6c14.9,53.2,3.7,102-28.9,146.1
			c-7.2,9.8-14.9,19.2-25,32.2c10.9,0,17.7,0.3,24.4-0.1c74.1-4.4,147.2,2.5,220.5,13.4c70.9,10.5,130.1-14.6,176.1-69.6
			c6.3-7.5,13.4-15.3,14.6-27.1c-6.1,0-11.3-1.1-15.8,0.2c-66.2,18.7-134.7,28.1-200.6,47.8c-16.3,4.9-32.9,6-49.6,1.9
			c-38.1-9.4-54.1-46.1-33.6-79.3c6.9-11.1,16.3-20.8,25.1-30.6C1070.6,1517.5,1085.2,1501.8,1096.4,1481.5z M866.8,867.9
			c-2.6-3.3-4.2-6.4-6.7-8.4c-38.7-32-77-64.3-116.4-95.4c-17.4-13.7-42.8-5.1-50.9,14.9c-19,47-34.3,95.5-55.4,141.7
			c-4.6,10-5.5,20.4,7,28.8c19.6,13.2,37.8,28.5,56.2,43.4c7.9,6.5,14.1,6.6,21.9-0.2c45-38.5,90.3-76.7,135.4-115.1
			C860.9,875,863.4,871.6,866.8,867.9z M757.3,704c34.6-3.6,69.2-7.3,103.9-10.7c69.1-6.7,56.3,3.3,69.4-66.9
			c2.3-12.5,1.1-23.5-6.6-33.5c-27.3-36-54.4-72.3-82.3-107.9c-13.9-17.7-28.8-15.2-38.2,5.6c-6,13.3-10.9,27-16.1,40.6
			c-17.3,45.4-34.9,90.8-51.6,136.4C727.7,689.9,736.8,704.2,757.3,704z M1476.6,1438.1c-39.3,1.1-71.7-3.6-103.1-12.5
			c-67.3-19.1-127.8-1.3-186.5,30.1c-10.7,5.7-19.3,13.5-25.8,23.7c-5.8,9.1-6.3,16.2,4.9,21.8c19.2,9.6,30.9,25.9,35.7,46.4
			c3.9,16.7,13.4,18.1,27.9,14.8c33.2-7.7,66.4-17.5,100.1-20.5C1397.5,1535.6,1431.2,1484.8,1476.6,1438.1z M1102.6,428.2
			c-28.2,2.3-51.8,4.8-75.4,6c-14.5,0.8-20.6,7.4-22.3,21.7c-3.9,32.4-7.3,65-14.2,96.9c-5.9,27.5-2.2,49.4,17.6,70.7
			c10.8,11.6,14.1,10.6,22.4-0.6c27.5-36.8,54.6-73.9,84.3-108.9c15.6-18.4,19.8-35.9,15.3-59
			C1126.5,435.5,1122.9,420.3,1102.6,428.2z M909.8,899.5c-53.3,45-101.9,86.2-150.8,127c-5.7,4.7-4.4,7.8,0.1,11.4
			c22.9,18,42.8,39.9,69.4,53.1c10.1,5,20.2,5.4,30.2,1.2c16-6.7,31.6-14.3,47.6-21.1c8.5-3.7,8-10.5,7-17.5
			C906.4,1004.4,906,955.1,909.8,899.5z M1252.2,595.3c25.6,1.7,38.2-10.5,50.7-24.5c6.9-7.7,7.1-13.8,2.9-22.3
			c-17.1-34.3-33.7-68.7-50.7-103.1c-6-12.3-12.2-14.7-23.1-3c-32.2,34.6-56.1,70.8-35.4,120.7c1.8,4.3,1.1,9.6,2,14.4
			c0.9,5.1,3.5,8.9,9.3,9.9C1224.4,590.2,1240.8,593.2,1252.2,595.3z M1087.7,2371.9c0.3-52.6-45.4-100-97.1-101.1
			c-9.8-0.2-15.8,1.2-10.3,12.4c23.8,48,36.3,98.8,39.5,152.2c0.8,13.4,7.9,13.8,18.5,10C1066.1,2435.5,1087.5,2404,1087.7,2371.9z
			 M1293.8,874.4c32.4-12.2,71.8-16.4,106.2-35.9c2.4-1.3,4.1-3.8,6.1-5.6c4.9-4.4,4-8.4-1-11.8c-26-17.4-50.1-39.8-78.7-50.4
			c-19.1-7.1-40.9,13-62,19.2c-1.3,0.4-2.4,1.6-3.7,1.9c-14.1,2.5-11.9,13.2-7.5,20.4c10.4,16.7,16.4,35.2,25,52.6
			C1280.6,869.4,1281.9,875.8,1293.8,874.4z M644.2,767.4c-31.3,2.4-59.7,4.2-88,6.9c-11.3,1.1-20.7,7.8-21.3,19.6
			c-1.3,22-18.5,42.8-4.9,65.8c0.3,0.6,1.1,0.9,1.6,1.3c17.1,13.2,34.2,26.3,51.2,39.5c5.4,4.2,9,5.6,12.1-2.7
			C610.7,855,627.1,812.4,644.2,767.4z M816.8,2094.3c45.3,32.1,83.4,69.4,117.1,111.5c12,15,18.6,13,26.1-5.1
			c15.8-38.3,6-77.3-25.9-103.3C902.2,2071.3,853.4,2069.3,816.8,2094.3z M1110.8,997.3c-1,12.3,2.5,20.4,21,16.6
			c36.6-7.7,73.7-13.5,110.6-19.5c41.3-6.6,41.2-6.3,20.3-44.3c-4.2-7.7-8.2-11.5-17.9-8.4c-40.4,12.7-81.1,24.5-121.6,36.8
			C1115.5,980.9,1109.1,984.8,1110.8,997.3z M1464.9,647.9c-7.5-27.9-18.9-52.4-33.5-75.3c-20.3-31.9-26.5-32.1-51.8-2.9
			c-4.9,5.6-5.5,9.8-2.1,16.4c13,25.1,25.7,50.5,37.8,76c5.1,10.7,12.7,12.4,21.9,7.2C1447.6,663.5,1464.6,664.9,1464.9,647.9z
			 M743.1,508.8c-43.3,25.1-77.6,51.6-106.4,85.2c-5.7,6.6-6.6,11.4,0.8,17.2c14.2,11.2,28.1,22.7,42.1,34.2
			c4.9,4.1,9.1,6.6,12.3-1.9C708.2,600.3,724.6,557.2,743.1,508.8z M1122.1,925.3c36.9-10.9,69.3-20.6,101.9-29.9
			c11.1-3.2,9.8-9.9,6.3-17.7c-7.7-17.1-16.3-33.8-23.1-51.2c-5.4-13.8-11.4-10.6-19.6-3.4C1157.1,849.9,1135.8,882.4,1122.1,925.3z
			 M519,1095c12.8-32.7,25.6-65.4,38.3-98.1c16-41.3,11.9-51.7-26.6-74.2c-12.6-7.4-15.5-3.1-15.8,9.2
			C513.8,986,511.9,1040.1,519,1095z M572.8,1119c6.7,0.3,10.9-1.9,13.1-6.7c4.8-10.7,14.3-16.8,22.8-23.9
			c17.7-14.7,35.3-29.3,52.8-44.3c5-4.3,12.5-8.6,2.7-16c-15-11.3-29.7-22.9-44.4-34.6c-5.7-4.6-8.1-2.2-10.3,3.5
			c-13.9,37-27.7,74.1-42,111C564.6,1115.5,566.8,1118.4,572.8,1119z M899.3,825.8c4.2-25.2,8-49.1,12.2-72.9
			c1.5-8.3-1.7-12.3-9.6-11.6c-27.7,2.3-55.4,4.8-83,7.6c-6.9,0.7-11.2,4.6-3.9,10.1C843.3,780.3,868.1,806.2,899.3,825.8z
			 M559.3,723.3c34.9-3.5,67.3-5.8,99.3-10.4c12.3-1.8,10.4-10.8,2.1-17.7c-17.6-14.7-35.4-29.2-52.8-44c-6.2-5.3-10.7-5.1-15,2.1
			C580.2,674.6,567.9,696.1,559.3,723.3z M1332.6,706.8c14.2-0.2,22.8-6.8,32.5-10.4c7.8-2.9,8.9-7,5.2-14.3
			c-10.4-20.5-20.1-41.3-30.4-61.8c-4.6-9.2-10.9-10.2-17.8-2.3c-7.5,8.5-15.1,17.7-11.2,29.8c4.4,13.6,5.4,27.2,4.8,41.2
			C1315.1,703,1324.4,706.2,1332.6,706.8z M943.6,536.6c2.8-17.1,5.5-28,6.3-39c1.3-17.4,15.2-40.6,0.6-50.4
			c-13.2-8.9-35.9,2.9-54.3,6.8c-0.7,0.1-1.4,0.2-2.1,0.3c-7,1.4-10.2,4.2-4.9,11.2C906.5,487.8,923.5,510.2,943.6,536.6z
			 M1088.5,1595.6c20-5,41.5-10.2,62.9-15.7c4.2-1.1,8-3.5,7.2-8.6c-2-13.1-8.8-22.8-21-29.1c-11.9-6.1-20.9-3.5-29.3,6.3
			c-9.4,11-19.5,21.6-29.2,32.4c-2.6,2.9-7.6,5.4-5,10.1C1076.6,1595.7,1082.1,1595.8,1088.5,1595.6z M769.1,1110.6
			c-17.6-14.1-31.1-25.1-44.8-35.8c-5.6-4.4-11.6-8.8-18.6-2.8c-13.9,11.9-27.5,24-44.2,38.6
			C698.8,1110.6,731.2,1110.6,769.1,1110.6z M1321.4,467.8c9.1,18.9,16.6,33.5,23.1,48.6c4.3,9.8,8.4,9.8,16.7,3.9
			c12.8-9.2,15-17.1,0.8-26.6C1350.1,485.6,1339.7,475.1,1321.4,467.8z M1143.7,560.5c-13.7,13.8-24.1,27.1-33,42.5
			C1148,600.2,1153,594.3,1143.7,560.5z M1459,745.9c3.6-11.2,10.3-20.7,4-30.5c-2.5-3.8-10.7-0.1-12.6,3
			C1443.7,729.2,1449.6,737.3,1459,745.9z"/>
		<path class="st0" d="M2406.4,414.7c49,0.2,92.8-0.5,136.3,5.5c27.7,3.8,55.1,8.5,81.6,17.5c110.3,37.5,179,112,194.7,228.6
			c23,170.9,23,341.3-30.7,507.4c-39.9,123.4-108.8,227.2-219.1,300c-43.4,28.6-91.8,46.9-138.9,67.5
			c-53.5,23.5-104.7,49.9-137.7,101.1c-4.4,6.8-8.5,5.3-13.8,2.1c-39.9-24-43.3-12.4-13.2-52c29-38.1,69-62.6,111.3-83.2
			c50.1-24.3,103.5-41.6,151.2-70.7c116-70.7,181.5-178.4,219.1-305.3c26.4-89.1,34.4-180.7,33.5-273.1
			c-0.6-62.1-2.1-124-11.7-185.7c-17.8-113.4-91.1-177.4-206.8-199.5c-66.4-12.7-133.5-9-200.4-7.1c-15.1,0.4-20-0.7-17.7-18.4
			c8.3-64.5,45.1-106.4,100.8-134.3c59.6-29.9,123.6-30.7,188.2-27c45.2,2.6,90.5,5.9,135.7-1.1c4.8-0.7,9.5-2.1,14.2-3.4
			c27-7.4,50.1-20.5,55.6-50.3c6-33-6-60.4-32.8-80.8c-12.9-9.8-27.3-18.1-43.1-20.4c-17.8-2.6-22.3-9.9-20-27.4
			c3.9-29.5,4-30.5,32.3-23c66.5,17.7,111.3,67,116,127.3c4.1,53.9-25.6,99.4-77.3,118.8c-38.1,14.4-77.8,14.6-117.6,14.3
			c-53-0.4-105.9-8.3-158.9-1.5C2485.7,347.5,2441.1,367.1,2406.4,414.7z"/>
		<path class="st0" d="M2208.7,2852c62.3-55.5,137.5-63.8,212.3-73.3c133.7-17.1,217.9-98.3,274-214c43.6-89.7,58.1-187.1,69-285
			c6-54.1,10.2-108.4,8.4-162.9c-3.2-95.8-28.4-182.9-100.4-251.3c-110.5-105-281.7-113.3-400-18.2c-13.2,10.6-20.6,10.5-29.7-2.5
			c-3.2-4.5-6.7-9.1-10.9-12.6c-10.1-8.6-6.2-14,2.5-21c71-56.9,151.9-84.8,242.6-81c175.8,7.3,320,137,340.1,316.9
			c20.4,182.6,0,362.8-73,533.1c-47.4,110.5-125.4,193.9-243.1,233.3c-49.3,16.5-101.4,17.9-151.9,28.1c-18.5,3.7-36.6,8.5-54,15.9
			c-36.2,15.4-64.1,38.7-77.1,77.4c-4.2,12.5-10.6,24.2-16.6,37.3c-10.6-9-11.9-22-16.7-32.8c-88.1-198.2,0.6-416.7,146.2-512.2
			c7.5-4.9,16.6-17.5,24.7-10.1c10.3,9.5,16.2,24,22.7,37.1c1.8,3.7-4.6,6.1-8,8.3c-106.3,69.9-159.1,170.3-168.7,295.4
			C2198.7,2788.1,2202.1,2817.8,2208.7,2852z"/>
		<path class="st0" d="M2687.5,913.1c-2.6,154.3-36.7,295.7-134.3,414.9c-91.6,111.8-209.2,175.9-356.3,179
			c-37.8,0.8-44.4-9.2-32.2-45.3c3.9-11.5,12.8-6.6,19.1-6.4c106,3.4,196.6-35.3,275.4-103.2c88.5-76.3,138-175.9,161.2-288.7
			c22.5-109.5,24.2-219.2-11.4-326.6c-28.7-86.5-81-152.2-172.6-178.9c-49.4-14.4-97.1-10.4-140.8,17.6
			c-17.6,11.3-20.6,5.2-24.3-11.6c-30.9-144.2,2.5-270.6,102.5-379.4c12.2-13.3,20.2-16.8,33.1-0.3c17.1,21.7,18,20.4-0.8,41
			c-69.4,76.1-100.1,165.9-94,268.6c0.7,11.4,2.8,15.1,16.2,12.4c111.2-22.4,200.2,16.8,269.9,102.6
			c57.2,70.3,77.6,154.7,86.1,242.8C2686.5,873.1,2686.6,894.8,2687.5,913.1z"/>
		<path class="st0" d="M2672.8,2166.3c-5.6,155.5-61.1,293.3-150.7,418.7c-40,56-87.2,105.3-140.2,149
			c-21.5,17.8-45.2,30.8-74.3,27.9c-32.7-3.3-62.3-34.9-66.8-71.1c-2.8-22.4-0.1-44.5,4.5-66.5c2.4-11.5,7.7-15.8,18.8-10
			c0.6,0.3,1.3,0.4,2,0.5c30.9,7.5,30.9,7.5,25.9,38.4c-0.3,2.1-0.6,4.1-0.8,6.2c-1.1,18.4-2.6,38.4,16.2,48.5
			c18.2,9.8,31.8-5.4,44.2-15.6c90.2-74.6,159.2-165.7,207.7-272.1c32-70.2,54.4-143.3,60.5-220.7c6.6-84.2-8.4-162.5-63-230
			c-58.6-72.6-150.5-94.9-226.5-54.8c-22.7,12-42.2,27.9-54.3,50.7c-6.4,12-11.9,11.2-22.5,6.3c-35.2-16.5-35.4-16.1-11.5-48.1
			c51.8-69.4,154.8-99.5,239.5-67.7c102.7,38.5,157.1,118,181.7,221.2C2670.2,2106,2673.5,2135.9,2672.8,2166.3z"/>
		<path class="st0" d="M534.6,2334.1c81.7-0.6,143.3,57.8,143.7,136.4c0.4,82.8-64.2,149-145.9,149.3
			c-80.4,0.3-148.3-65.9-148.5-145C383.6,2391.8,444.7,2334.8,534.6,2334.1z M443.4,2474.9c0,50.6,36,86,87.5,86.1
			c51.2,0.1,90.8-37.8,90.6-86.7c-0.2-49-39.9-87.8-90.1-87.9C480.3,2386.2,443.4,2423.3,443.4,2474.9z"/>
	</g>
</g>
</svg>
