<?xml version="1.0" encoding="utf-8"?>
<!-- Generator: Adobe Illustrator 23.0.0, SVG Export Plug-In . SVG Version: 6.00 Build 0)  -->
<svg version="1.0" xmlns="http://www.w3.org/2000/svg" xmlns:xlink="http://www.w3.org/1999/xlink" x="0px" y="0px"
	 viewBox="0 0 3000 3000" style="enable-background:new 0 0 3000 3000;" xml:space="preserve">
<style type="text/css">
	.st0{stroke:#000000;stroke-width:10;stroke-miterlimit:10;}
</style>
<g id="Layer_1">
</g>
<g id="Layer_2">
	<g>
		<path class="st0" d="M2938.9,1401c-2.3,141.5,0.9,283.1-5.3,424.6c-7.1,163.2-27.5,324-84.9,478.1
			c-89.6,240.5-260.5,403.4-489.9,509.5c-141,65.2-290,101.4-443.7,118.3c-253.7,28.1-508.4,24.7-763,21.1
			c-210.7-3-411.1-56.6-603.9-138c-201.9-85.2-322.9-242.4-385.9-448.6c-29.6-96.9-41-196.8-51.7-296.8
			c-16-149.3-14.2-298.7,4.5-447.6c23.5-187.5,70.8-369,141.7-544.3c56-138.6,113.8-276.3,190.6-405.1
			c180.3-302.4,450.6-477,788.4-555.9c153.8-35.9,309.5-45.6,467.1-36.7c142,8,283.9,15.7,425.6,27.9
			c149.4,12.9,290.6,53.8,421.9,126.7c202.5,112.5,323.8,284,370.2,510.1c22.4,109.2,27.8,219.8,27.2,330.8
			C2947.2,1183.8,2943.4,1292.4,2938.9,1401z M2886,1379.7c1.5-45.7,4.1-115,6-184.2c4.1-148.1,6.3-296.2-24.5-442.4
			c-34.3-163.2-109.3-302.1-243.4-405.3c-149.7-115.2-321.4-171.7-507.5-187.3c-120.6-10.1-241.4-18.2-362.3-24.4
			c-89.4-4.6-178.9-10.2-268.8-3.1c-86.8,6.9-172.3,19.7-256.6,40.3c-315.9,77.2-567.8,244-736.2,527.4
			c-64.2,108.1-114.2,222.9-162.9,338.3c-127.5,302.6-193.8,616.5-172,946.1c7.5,113.5,18.8,226.7,47.9,337.2
			c38.2,145,108.5,269.9,227.7,364.2c58.4,46.2,124.7,77.5,194.4,102.5c130.6,46.8,262.6,87.8,401.5,101.3
			c94.5,9.2,189.1,12.5,284.1,10.7c196.8-3.7,394,1.1,590.1-22c167-19.6,328.2-59.2,478.4-136.9c193.3-99.9,336.7-246,414.3-451.8
			c49.6-131.4,71.9-268.3,80.3-408C2886.2,1722.7,2883.4,1562.9,2886,1379.7z"/>
		<path class="st0" d="M840.3,1569.5c0.2-428.2,350.9-774.8,783.9-774.8c433.9,0,784.8,347.6,784.1,776.8
			c-0.6,427.8-351.9,774.1-785,773.7C1190.5,2344.8,840.1,1997.7,840.3,1569.5z M1623.4,2292c402.9,0.3,731.5-323.9,731.7-721.9
			c0.2-397-327.3-721.5-729-722.4c-403-0.8-732.1,322.8-732.7,720.7C892.7,1966.6,1220.8,2291.7,1623.4,2292z"/>
		<path class="st0" d="M1190.5,1554.4c-0.1-241.2,196.5-435.5,440.6-435.5c243.8,0,440.4,194.8,440,436.1
			c-0.3,239.7-197.2,434.6-439.5,435.2C1388.7,1990.8,1190.7,1795.1,1190.5,1554.4z M1631.7,1172
			c-213.3-0.2-387.1,170.5-387.9,380.8c-0.8,212.8,173.1,383.1,391.7,383.6c208,0.4,382.4-173.6,382.6-381.9
			C2018.2,1344.3,1844.4,1172.2,1631.7,1172z"/>
	</g>
</g>
</svg>
