<?xml version="1.0" encoding="utf-8"?>
<!-- Generator: Adobe Illustrator 23.0.0, SVG Export Plug-In . SVG Version: 6.00 Build 0)  -->
<svg version="1.0" xmlns="http://www.w3.org/2000/svg" xmlns:xlink="http://www.w3.org/1999/xlink" x="0px" y="0px"
	 viewBox="0 0 3000 3000" style="enable-background:new 0 0 3000 3000;" xml:space="preserve">
<style type="text/css">
	.st0{stroke:#000000;stroke-width:10;stroke-miterlimit:10;}
</style>
<g id="Layer_1">
</g>
<g id="Layer_2">
	<g>
		<path class="st0" d="M1114.8,2619.4c-79.3,111-220.2,82.7-261.8-21.1c-129.3,117.2-285.3,123.1-445.7,103
			c-96.3-12.1-180.3-55.5-252.8-120.4c-160.3-143.4-159.5-364.6,1.5-508.1c15.8-14.1,44-23.1,45.5-41.7c1.3-16.2-20.3-33.8-31-51.3
			c-46.3-75.6-70-157.4-71.1-246.6c-1.5-132.4-6.4-264.8,8.8-396.7c5.4-47.1,13.5-94.1,43-133.7c8.5-11.4,3.8-21.8,0.8-33
			c-37.6-140.7-45.3-282.8-9.3-424.5C198.4,526.3,338,385,551.5,314.7c105.3-34.6,214.3-48.3,323.9-58.1
			c140.3-12.6,280.5-14.2,420.5,4.5c106.8,14.2,211.1,38,306.9,89.9c79.9,43.3,144,102.1,181.7,186.6c1,2.2,3.4,3.7,6.5,7.1
			c5.2-11.4,9.6-21.8,14.5-31.8c75.1-151.7,190.7-248.9,364.1-263.4c127.7-10.6,256.2-14.6,382,14.1
			c223.4,51,395.7,262.3,402.1,491.8c4.2,151.1,5.4,302.4,5.3,453.6c-0.2,317.6,11.2,635.2,5.5,952.8c-2.3,130.1-34,251.4-120.9,353
			c-100.6,117.6-230.8,181.4-381.4,204.9c-204.1,31.9-397.1-0.8-576-106.9c-8-4.8-14.9-12.2-25.5-1.7
			c-57.1,56.8-130.8,83.1-205.2,106c-120.4,37-243.2,50.2-368,25.6C1212.8,2727.8,1154.1,2688.9,1114.8,2619.4z M152.8,1832
			c-4.4,15.4,1.3,24.1,4.6,33.1c32.5,88.3,85.1,162.2,156.6,223.8c53.8,46.3,114.6,70.5,185.3,73c153.8,5.6,307.7,4.7,461.4-1.3
			c40.1-1.6,80.3-3.9,118.2-20.2c27.9-12,41.1-32.8,41.6-62.6c0.3-18-1.7-35.8-8.4-52.4c-6.4-15.7-0.1-23.4,13.7-28.5
			c17.8-6.6,19.3,7.8,22.6,18.2c7.2,23.1,12.6,46.7,9.1,71.2c-2,14,1.7,20,17.5,22.7c81.9,14,163.8,15.5,245.2-1.4
			c117.9-24.5,213.4-82.5,279.4-186.4c52.9-83.3,78.3-175.5,94.8-271.1c12.9-75,17.4-150.8,23.9-226.5
			c10.4-120.3,24.8-240.3,18.6-361.3c-8.3-161.5-93.1-265.4-245.9-304.8c-53.5-13.8-107.9-14.2-162.5-13.4
			c-50.2,0.8-48.7,0.7-48.1,49.9c0.3,24.8,7.4,26.3,29.7,21.5c101.5-21.7,184.7,10.1,249.6,90.7c7.9,9.8,13.6,18.1-1.1,28
			c-12.6,8.5-18.9,9.5-29.8-4.6c-53.6-69.8-136.6-97.5-216.8-76.1c-24,6.4-39.3,17.1-41.5,44.2c-1.3,15.7-6.5,31.6-12.7,46.3
			c-6.4,15.1-2.4,22.2,11.6,29.1c54,26.6,92.7,68.8,121.5,121.1c40.5,73.6,54.9,151.9,46.7,235.5c-9.5,96.9-46.7,179.4-121.8,242.6
			c-93.1,78.3-223.3,75.6-314-5.4c-142.5-127.3-158-370.6-32.4-524c12.7-15.5,14.3-28.4,8-45.9c-14.9-41.1-41.5-70.8-82.4-86.4
			c-55.6-21.2-112-19.8-168.1-1.6c-20.1,6.5-36.8,18.1-47.4,37.2c-10.4,18.8-21.4,37.1-31.2,56.2c-39.4,77.3-58.6,158.8-51.4,246
			c1.4,16.9,7.1,24.8,25,27.9c28.9,5,57.8,12,85.7,21.3c106.3,35.4,173.8,105.7,193.5,218.4c9.5,54.2,10.9,108.1,4.4,162.9
			c-21.2,178.9-143,322.4-315.6,367.7c-139.2,36.5-265.3,0.9-383.2-73.8C247.9,1935.9,199.2,1887.6,152.8,1832z M1837.4,901.7
			c16.8,39.7,27.9,78.2,32.6,118.4c13.3,115.5,0.4,230.4-9,345.3c-1.4,17.6,0.2,29.7,15.7,41c147.1,106.9,310.5,155.5,492.1,137.5
			c112.5-11.1,172.9-64.9,198.7-175c15.9-68,22.3-137.3,27.9-206.9c10-123.5,10.3-246.8-7.1-369.4
			c-20.5-145.1-133.1-231.2-272.4-209c-84.5,13.5-146.8,61.8-190.6,134.8c-22.6,37.5-38.4,78.8-63.7,114.8
			c-39.4,56-91.3,87.6-161.5,81.7C1880,913.2,1860.4,906.7,1837.4,901.7z M136.1,1568.5c0,35.3,0.5,86.3-0.2,137.3
			c-0.3,23.3,5.8,43.3,18.8,62.7c69.3,103.4,161,179.3,276.7,224.8c157.3,62,336.2,20.3,441-102.3c81.5-95.4,106.9-208.9,97.2-330.7
			c-10-125.4-73.7-198.2-195.2-232.4c-49.1-13.8-99.4-21.5-149.6-30c-112.8-19.1-181,23.3-218.2,118.6
			c-43.7,111.8,9.8,222.2,117.3,250c39.1,10.1,78.1,7.8,116.7-2.1c15-3.8,18.6,5,22.2,16.1c3.4,10.3,2.3,17-9.4,20.3
			c-96.7,27.5-225.4,3.7-277.3-108.6c-61.2-132.4,6-285.7,144.5-329.5c12.7-4,26.9-4.9,24.6-24.6c-2.6-21.8-19.4-15.1-30.9-15.5
			c-128-3.8-233.3,66.5-276.1,188.2c-47.4,134.8-25.5,262.5,48.8,382.3c40.3,64.9,98.6,104.3,174.4,118.1
			c93.7,17.1,182.8,0,270.5-32.6c51.5-19.1,81.3-55.8,95.8-107.3c19.3-68.8,21.1-139.5,20.7-210.1
			c-0.5-102.7-54.5-166.3-155.8-186.4c-79.9-15.8-148.1,15.5-182.9,83.9c-17,33.5-15.5,65.3,8.7,95.1c3.9,4.9,8.1,9.6,11.7,14.7
			c9.2,13,0.1,22-8,30.2c-10.6,10.8-15.8-1.7-21.2-6.9c-35-34-46.8-74.8-34.9-122.5c18.3-73.6,83.9-126.3,170.9-136.8
			c122.7-14.9,244.3,83.5,249.2,204.2c2.9,71.5-1.9,143-14.3,213.8c-15.9,90.8-67.8,148.8-156.1,175.9
			c-61.2,18.8-123.6,30-187.3,30.5c-94.7,0.8-180.6-27.2-241-102.6c-103.7-129.5-139.7-276.2-89.2-437.7
			c53.2-170,192.8-248.1,331-232.2c8,0.9,18.6,4.9,19.3-10.4c0.6-14.6-9.2-14.8-19.3-16.2c-95.5-13.3-188.8-3.5-280.9,24.1
			c-50.6,15.2-80.1,48-91.2,98.7C137.3,1370.3,135.1,1461.4,136.1,1568.5z M1901,2353.1c21.6,70.7,23.1,136.6-2.6,201.5
			c-5.8,14.6,6.1,16.7,13.8,21.2c193.5,112.9,400.2,139.1,615.4,83.7c155.8-40.2,278.3-128.5,347.7-279
			c39.9-86.5,46.9-179.5,46.2-272.8c-2.8-382.9-6.5-765.8-10.9-1148.7c-0.9-78.7,3.3-157.3-4.1-236
			c-17.8-187.7-171.8-368.9-355.3-413.1c-117.8-28.4-237.9-25-357.6-17.9c-187.6,11.2-302,117.7-366.4,287
			c-4.5,11.9-11,23.7-10.1,39.6c17.7-24.4,32.9-47.6,50.4-68.8c17.6-21.3,36-42.5,56.7-60.8c198.8-175.3,425.9-209,670.7-122.6
			c160.9,56.8,255.2,173.5,275.3,347c13.7,117.9,6.3,235.9,8.5,353.9c0.2,11.4-3.8,23.4,6.5,32.8c3.9,3.5,4.3,7.6,0.1,11.4
			c-10.1,9.1-7.7,21.3-7.8,32.7c-1.4,202.2-1.6,404.4-4.6,606.6c-1.2,78.5-0.6,157.5-18.3,234.9
			c-75.5,329.2-438.5,543.2-768.6,452.9C2021.2,2420.7,1961,2392.8,1901,2353.1z M830.2,866.4c17.4-2.6,31.2-5.1,45.1-6.7
			c88.2-10,196.7,12.2,236.2,123.1c6.5,18.2,15.3,6.3,22,1.9c47-30.3,98.5-43,153.4-35.7c24.7,3.3,33.5-5.9,39.3-26.9
			c39.5-141,13-265.2-92.9-369.5c-12-11.8-21.3-23-5.5-38c16-15.2,23.9,1.3,32.5,9.7c47.6,46.3,82.5,100.8,102.4,164.5
			c4,12.8,8,23.1,25.2,21.1c93.8-11.3,185.6-4.1,274,31.4c8.5,3.4,13.8,3.8,13.2-7.5c-1.4-26.2,9.5-53.7-16.4-76.3
			c-14-12.2-17.1-33.4-15.4-52.6c1.3-14.9-3.5-22.4-17.9-27.6c-25.7-9.2-45.7-27.2-51.6-54.1c-5.1-23-16.4-34.3-38.6-40.1
			c-16.7-4.4-29.9-17.4-37-33.2c-7.3-16.1-15.4-17.3-31-10.9c-40.4,16.5-77.4,10.1-107.1-23.5c-7.8-8.8-13.1-11.9-24.1-4.7
			c-27.9,18.1-57.1,16.9-86.4,2.3c-5.8-2.9-11.7-10-18.9-2.1c-31.4,33.9-69.3,20.9-102.4,8.6c-33-12.2-65.6,2.6-97.3-7.7
			c-2.7-0.9-7.4,1-9.7,3.2c-22.5,21-49,17.9-75.9,13c-11.5-2.1-23.1-2.9-34.6-0.4c-12.9,2.8-17.6,9-12.3,22.8
			c46,118.9,22.7,231.7-30.6,341.8C856.3,816.1,843.8,839.6,830.2,866.4z M686.3,2206.9c133.7,154.8,20.8,309.6-123,342.3
			c-72.5,16.5-142.2,5.9-208.7-24.8C275.4,2488,243,2430,252.6,2343.1c7.2-65.2,32.8-125.6,52.8-187.3c4.2-13,5.2-22.2-8-31.8
			c-17.2-12.6-33-27.5-47.7-43.1c-10.1-10.7-17.4-11-29.1-2.7c-155.2,110.4-205.4,321.8-30.2,475.5
			c164.2,144.1,422.3,131.5,563.8,62.7c44.9-21.8,76.7-57.4,89.9-107.7c29.8-113.6-13.6-223.2-116-293.6
			C715.4,2206.5,703.2,2202.2,686.3,2206.9z M472.5,774.2c6.4-8.2,12.9-7.7,19-8.5c66.4-8.9,132.7-18.4,199.2-26.4
			c15.3-1.8,18.6-8.3,19.7-22c6.9-87.1-6.3-168.3-63.3-238.7c-20.7-25.6-42.3-30.2-69-10.8c-15.1,11-32.3,16.2-50.5,12.9
			c-15.8-2.9-24,1.4-30.9,16.5c-13.8,30-39.2,46.2-72,48.1c-13.2,0.8-15.6,7.8-22.2,17.2c-20.9,29.8-43.6,57.8-49.3,95.6
			c-0.9,5.6-8.8,11.5-14.8,14.8c-13.2,7.3-16.2,17.4-13.5,31.4c3.4,17.7-0.8,34.9-13.7,47.1c-12.4,11.7-11.8,22.5-8.4,37.7
			c5.7,25.6,19.1,54.8,1.8,77.7c-14.8,19.5-17.8,36.7-14.2,58.5c1.1,6.7-0.3,14.5-2.6,21.1c-9.2,27-11.5,53.4,1,80.2
			c4.2,9,2.9,19.6-2.1,28.6c-9.9,17.7-7.8,35.8-4.5,54.8c2.8,16.2,7.8,21.9,26.2,17.6c52.4-12.1,105.9-16,159.9-13.6
			c7.3,0.3,15.7,3.8,23.7-4.2c-39.4-42.2-78.5-84.1-120.4-129c15.9-2.6,26.4-4.3,36.9-5.9c60-8.9,120.1-17.5,180-26.8
			c21-3.2,33.8-18.2,38.4-37c4.2-17.1-14.6-22.4-24.8-30.9C559.3,844.5,515.7,809.5,472.5,774.2z M1392.7,2710
			c140.9-0.6,257.4-28,367.4-82.1c45.9-22.6,86.8-51.7,102.1-104c16.2-55.6,15.1-111.4-7-165.6c-47.2-116-135.2-200.2-223.6-283.9
			c-5.8-5.5-14.9-14.1-22.6-3.4c-9.2,12.8,6.3,14,11.8,17.8c59.3,41.5,111.3,90.2,149,152.4c57.3,94.7,40.2,186.4-48.1,253
			c-96,72.5-205.8,82.4-319.4,60.7c-89.7-17.1-126.7-65.7-129.6-157.4c-2.3-72.4,10-142.4,33.3-210.7c3-8.7,13.6-21.1,5.4-26.1
			c-10.3-6.4-26-5.7-38.6,0.2c-6.3,3-11.6,8.3-16.9,13c-101.2,89.2-140,202.6-126.3,334.6c11.3,108.6,65.8,167.2,172.1,191.2
			C1337.7,2708.1,1374.1,2710.7,1392.7,2710z M1503.5,1289c-1.2-46.2-7.6-89.4-24-130.5c-30.3-76-77.3-136.1-157.8-164.4
			c-18.9-6.6-29-3.5-35.3,17.2c-18.8,61.7-32.3,124.4-37.4,188.7c-9.9,124.5,4.7,245.8,48.2,363.4c7.2,19.4,15.8,22,33.6,14.5
			c30-12.7,57.4-28.9,80.1-52.4C1475.3,1459.1,1500.7,1377.3,1503.5,1289z M2606.9,1590.4c-11.3,7.7-7,15.4-7,21.8
			c-0.3,64.4,0.5,128.7-0.4,193.1c-0.6,45.3-22.8,77.9-63.7,97.4c-35.5,16.9-72.9,16.3-110.2,8.7c-18-3.7-32.9-6.4-47.1,10.7
			c-11.7,14-30.9,16.8-48.6,19.9c-37.2,6.5-74.8,6.2-112.3,4.9c-51.1-1.7-74.1-26-74.2-77.7c-0.2-60.8-0.7-121.6,0.4-182.4
			c0.3-17.7-5.7-23.5-22.5-24.4c-30.9-1.6-36.9,2.1-42.3,33c-11.1,63.2-10.8,127.1,2.6,189.2c17,79.2,55.3,147.1,142.5,163
			c95.1,17.4,191.1,11.6,282.7-21.3c65.4-23.5,103.3-71.8,103.2-144.4c-0.1-92.1-0.6-184.1-1.1-276.2
			C2608.9,1601.7,2607.9,1597.4,2606.9,1590.4z M1561.6,2104.6c-1,26.1,8.2,39.6,24.7,49.9c29,18.1,55.5,39,76.4,66.5
			c44.9,59.2,38.7,128.8-17.4,177.3c-54.1,46.7-118.9,50.4-184.9,39.1c-52-8.9-77.4-44.9-76.1-97.6c0.6-25.7,9.4-48.8,19.8-71.7
			c11.8-26,26.6-51.1,28.9-80.2c1.2-14.6,2.9-32.6-14.4-39.6c-16.1-6.5-52.3,8.8-57.9,22.2c-31.4,75.3-47.6,153.6-43.5,235.3
			c3.2,62.5,28.8,92.1,90.8,105.3c73.2,15.5,145.8,11.7,216.7-13.1c39.5-13.8,73.6-36.4,100.9-68.6c31.3-37,43.1-79.5,24.7-124.9
			C1714.2,2215.4,1644.8,2156.5,1561.6,2104.6z M542.4,2204.7c11.7,22,30.6,31.1,46.5,43.3c47.2,36.2,56.3,92.1,22.8,139.7
			c-29.2,41.5-87.5,57.4-145.1,39.7c-59.2-18.2-90.7-56.2-90.9-111.4c-0.2-40.3,6.1-79.9,15.1-119.2c6.1-26.6-20.6-21.8-32.7-29.2
			c-11.6-7.2-11.8,7.6-14.1,14.8c-12.6,39.1-25.8,78-37,117.4c-31.8,111.1,1.3,169.6,112.5,201c2.6,0.7,5.1,1.7,7.7,2.3
			c89.2,19.3,171.1,9.2,236.3-61.9c41.5-45.3,49.2-103.4,22.7-156.4C656.6,2225.6,611.2,2199.6,542.4,2204.7z M885.8,580.3
			c-2.5-41.1-5.6-82.2-24-120.1c-7.3-15.1-13.1-31.5-29.6-40.1c-16.8-8.8-21.5,13.1-34.7,13.4c-1.7,0-3.3,1.5-5,1.7
			c-16.6,2.3-16.4,12.1-12,24.9c8.4,24.5,16.5,49,24.2,73.8c24.4,78.5,27,156.2-8.6,232.7c-23.6,50.6-61.7,89.4-101.2,127.1
			c-50,47.7-81.2,105.4-94.1,173.6c-7.8,41.4-13.7,82.8-16.1,124.8c-4.6,80.3-7.4,57.5,57.6,69c16.4,2.9,17.8-4.3,17-17.4
			c-6.9-112.9,24.8-215.1,85-309.9c35.4-55.8,70.2-112.1,97.2-172.6C867.2,703.6,884.7,643.9,885.8,580.3z M1507.6,2397.5
			c32.6,0.2,64.1-5,92.7-21.6c50.9-29.4,61.4-83.7,25.4-129.6c-16.8-21.4-37.9-37.8-60.9-51.9c-22.2-13.6-39-31.4-44.9-57.4
			c-2.7-12-8.4-18.7-19.9-11.3c-10,6.4-33.6-0.3-26.7,23.8c10.7,37.8,1,72.3-14.3,106.4c-8,17.9-16.9,35.5-23.8,53.9
			c-19.8,52.3,0.9,84,56.3,87.6C1496.9,2397.8,1502.3,2397.5,1507.6,2397.5z M2189,1784.1c-0.3,0-0.5,0-0.8,0
			c0,29.5,0.6,59.1-0.2,88.6c-0.5,19.1,7.9,27.6,26.3,29.4c37.7,3.6,75,0.2,112.3-4.7c24-3.2,36.2-17.5,36.3-41.7
			c0.3-53.7,0-107.4,0.9-161c0.2-14.3-6.1-16.2-17.9-14.8c-45.6,5.5-91.3,3.4-136.6-2c-19-2.3-20.8,5.3-20.4,20.3
			C2189.5,1726.8,2189,1755.5,2189,1784.1z M2583.7,1548.8c-26.9-21.7-50.7-31.6-79.8-4.2c-19.4,18.2-46.7,25.5-72.9,32.3
			c-106.9,27.6-212.8,17.4-318.1-8.7c-16.6-4.1-27.3-3.3-38.7,11.4c-33.3,43.1-68.2,85-103.1,126.8c-9.8,11.7-11.1,22-6.1,36.5
			c17.9,52.2,34,105.1,51.7,157.4c1.9,5.6-1.3,19,12.5,15.6c12.3-3.1,9.3-12,7.9-21.4c-8.9-57.6-12.6-115.3-7.3-173.6
			c8.5-92.2,36.9-115.7,126.9-97.4c78,15.9,156.1,18.3,234.4,6.4C2461.7,1619.2,2527.2,1595.1,2583.7,1548.8z M1179,1567.8
			c-11-63.3-22-125.6-24.5-188.9c-0.4-10.9-9.1-13.7-17.6-17.5c-54.8-24.2-76.5-68.3-61.7-125.7c3-11.7,3.9-22-1-33.6
			c-25.3-59.7,4.4-101.3,68.7-96.7c7.7,0.5,16.4,4.5,18-8.5c3.5-28.1,7.5-56.2,11.4-85.3c-83.5,27.8-151,153.7-150.7,277.3
			C1021.8,1414.7,1091.3,1539.4,1179,1567.8z M2553.9,1624.3c-45.3,20.9-87.5,37-132.2,45.7c-13.6,2.6-12.3,13.1-12.4,22.8
			c-0.6,39.3-1.3,78.5-1.8,117.8c-0.7,57.9,2.7,61,62.1,61.3c13.6,0.1,27-1.2,39.3-6.5c22.1-9.4,40.9-22.4,43.9-49.1
			C2559.9,1753.4,2553.4,1690.5,2553.9,1624.3z M1085.5,2307.8c0-53.3-41.7-94.5-95.8-94.6c-53.4-0.1-96.9,42.3-96.9,94.4
			c0,51.8,44,95,96.7,95C1042.7,2402.7,1085.5,2360.4,1085.5,2307.8z M987.6,2645.1c53.9,0,96.6-41.3,96.7-93.7
			c0.2-52.5-42.4-94.1-96.2-94.2c-54.8-0.1-95.9,40-95.9,93.7C892.2,2604.7,933,2645.1,987.6,2645.1z M1924.9,1764.4
			c-46.9,57.4-90.8,111.1-134.7,164.8c-2.8,3.5-5.4,7.2-8.5,10.4c-8.4,8.6-3.9,15.8,1.9,23.3c14.6,19.2,29.9,37.9,43,58
			c7.9,12.1,14.4,9.2,23.8,3.4c38.7-23.8,77.2-48.1,116.9-70.2c14.9-8.3,14.6-16.2,10-29.8C1959.8,1873,1943.4,1821.2,1924.9,1764.4
			z M420.1,2294.7c-1,48.3,9.4,65.8,40,82c18.8,9.9,38.7,13.1,59.6,12.3c31.3-1.2,55.5-17.8,64.1-44.1c8.6-26.3,1.5-43.4-28.6-65.1
			c-26.4-19.1-49-39.7-60.9-72.3c-6.1-16.9-29.8-8.8-45.4-12.2c-14.6-3.2-14.9,11.3-16.5,19.6
			C426.9,2245.5,422.9,2276.5,420.1,2294.7z M2648.2,1482.1c1.8,0.7,3.5,1.4,5.3,2.2c0,9.7,0,19.3,0,29c0,8.8-0.6,16.7,10.3,21.9
			c45.5,21.7,90.6,44.5,142.3,70.1c-20.3-43.7-37.8-81.2-55.3-118.6c-7.2-15.3-14.8-30.5-21.5-45.9c-3-6.9-7.8-9-14.6-8.9
			c-35.7,0.5-71.3,0.7-107,1.4c-8.7,0.2-40.3,45.1-37.9,52.8c0.4,1.5,2,2.6,3.2,3.9c19.7,21.2,49.4,21.5,69,0.6
			C2644.2,1487.8,2646.1,1484.9,2648.2,1482.1z M2241.9,2415.4c23.1-2,46.1-4.6,69.2-5.9c13.8-0.8,17.2-4.7,10.2-17.7
			c-17.8-32.8-35.2-65.9-51.8-99.3c-5.3-10.7-11.9-14.1-23.2-11.7c-21.7,4.7-43.7,8.3-65.4,13.4c-22.7,5.3-29.9,20-22.9,42
			c2.4,7.6,4.8,15.3,7.2,22.9C2182.9,2414.1,2182.9,2414.1,2241.9,2415.4z M1187.7,1272.9c-1.5,87,8.5,169.4,22.1,251.5
			c2.8,16.7,6.2,33.3,10.6,49.7c4.9,18.3,22,18.2,35.1,16.8c14-1.5,6.7-13.5,4-21.2c-65.2-185.7-67.6-372.6-11.7-560.8
			c2.1-7,12.1-18.4-1.7-21.8c-11.1-2.7-25.9-3.3-31.4,12.6c-1.7,5-2.6,10.4-3.4,15.7C1197.8,1102,1185,1188.6,1187.7,1272.9z
			 M1993,1991.5c-1.9,1-3.5,1.8-5,2.7c-38.9,23.3-77.7,46.7-116.7,69.9c-10.4,6.2-3.5,12.2,0.3,17.4c18.3,25.2,37.5,49.8,55.3,75.2
			c6.7,9.5,11.4,10.5,20.9,3.5c23.6-17.5,47.7-34.3,72.2-50.4c9.7-6.4,13.5-12.9,9.7-24.2c-9.4-27.8-18.1-55.8-27.5-83.5
			C2000.7,1997.8,2000.2,1991.1,1993,1991.5z M2771.9,1900.2c-28.7-8.1-46.1,8.1-57.2,38.3c-7.7,20.8-18.9,40.4-29.7,59.8
			c-6.1,11-4.9,17,6.2,23.5c23.1,13.5,45.9,27.7,67.8,43c14.4,10,21.9,9.8,28.3-8.5c12.4-35.5,22.5-71.4,28.9-108.5
			C2824.7,1899.3,2825,1899.4,2771.9,1900.2z M1771.5,1880.8c43.6-53.5,87.2-107,131-160.3c6.3-7.7,3.8-14.6,1.1-22.4
			c-9.9-29.5-20.4-58.9-28.6-88.9c-5.1-18.7-13-16.1-25.8-8.5c-8.9,5.3-11.1,12.3-12.5,21.7c-3.7,25.5-8.2,51-13,76.3
			C1812.2,1760.9,1791.9,1820.4,1771.5,1880.8z M2397.5,508.8c13.8,6,18.9-2.8,23.8-15.1c21.3-54.4,21.5-54.3-22.3-91.5
			c-10.9-9.2-21.8-18.4-32.6-27.7c-14.2-12.1-31.5-9-45.8-4.5c-11.3,3.6-3.8,19-5.2,29c-0.9,7-0.2,14.3-0.2,21.4
			C2315.2,500.8,2315.2,500.8,2397.5,508.8z M2270.1,431c0-14.3-0.1-28.5,0-42.8c0.1-9.4-2.2-15.8-13.7-13.7
			c-44.8,8.2-88.8,19-130.8,36.9c-4.1,1.8-7.8,3.3-7.1,9.3c1.5,13.5,36.8,51.4,51,53.7c14.9,2.4,29.9,4.7,45,6.5
			C2271.3,488.1,2271.3,488,2270.1,431z M2066.5,608.4c3.4-0.9,6.8-2,10.3-2.8c27.8-6.1,55.5-12,83.3-18.2c4.2-0.9,8.5-2,8.3-8.2
			c-0.5-10.2-45-66.6-55.4-68.3c-38.5-6.4-77.1-12.5-115.8-18.3c-13.8-2.1-16.5,4.2-9.1,15.1c21,30.8,42.3,61.5,63.6,92.2
			C2055.2,604.9,2058.7,610.7,2066.5,608.4z M2516.6,2229.1c-42.4,8.2-78.9,15.4-115.5,22.3c-8.2,1.5-12.3,5.3-12.5,14.2
			c-0.9,38.4-2.2,76.7-3.2,115.1c-0.2,6-0.7,14.9,8.8,11.8c18.7-6.1,41.8-4.5,52.8-26C2469.3,2322.8,2491.3,2279.1,2516.6,2229.1z
			 M2390.6,2152.4c-0.8,56.2-0.8,56.2,53.1,45.1c4.4-0.9,8.6-2.1,13-3.1c19.9-4.3,49.1-2.2,57.4-14.3c10.1-14.7-8.1-38.4-15-57.9
			c-13.8-38.7-14.2-38.6-55.9-31.4C2391.4,2099.6,2391.4,2099.6,2390.6,2152.4z M2653.5,1580.6c0,18.2-0.5,31.6,0.1,44.9
			c1.2,23.9-9.7,54.6,5,69.8c13,13.4,43.3,10.2,66,14c25.2,4.1,67.9-28.3,71-53.2c1-7.7-5-8.4-9.2-10.5
			C2743.4,1624.4,2700.3,1603.5,2653.5,1580.6z M785,642.3c0.2-64.8-26.5-123.2-43.8-183.8c-3.6-12.8-10.4-25.2-23.3-26.9
			c-15.6-2-23,14.9-33.3,23.6c-10.6,8.9,2.2,19.2,6.8,27.9c4.5,8.6,10.6,16.6,16.9,24c20.9,24.7,31.4,52.9,34.8,85.2
			c4.1,39.2,4.3,78.4,5,117.7c0.1,7.1-3.9,17.5,8.5,18.9c10.9,1.2,15.1-5.8,18.3-15.4C782.5,690.4,785.9,666.8,785,642.3z
			 M2134,2261.2c17.8-33.3,31.3-61.2,47.3-87.7c10.3-17.2,10.7-31,0.7-49.1c-31.4-57.2-37.2-58.7-85.6-13.3c-5.1,4.7-8.6,9-6.4,15.9
			C2104,2169.8,2118,2212.5,2134,2261.2z M2346,2158.7c0.4,0,0.8,0,1.2,0c0-14.3,0.1-28.6,0-42.9c0-5.2,1.2-10.9-3.4-15
			c-4-3.5-72.9,0.3-75.7,5.1c-8.4,14.4-25,30.4-20.1,44.8c9,26.4,21.7,52.5,40,74.6c1.2,1.4,5.1,0.6,7.8,0.6
			c40,0.4,49.1-8.4,50.2-48.4C2346.1,2171.2,2346,2164.9,2346,2158.7z M2000.3,768.2c7.9-0.8,19.4-1.8,30.9-3.1
			c32-3.8,47.8-41.2,32.6-69.1c-15.6-28.7-34.4-39.2-66-27c-16.4,6.3-34.4,8.3-51.9,11.6c-14.2,2.7-15,8.6-7,19.6
			c13.6,18.7,26.1,38.1,39.3,57C1982.7,763.6,1986.4,771.7,2000.3,768.2z M2728.5,825.4c-9.8,0-20,1.5-29.5-0.3
			c-25.7-4.9-35.5,6.8-41.5,30.7c-10.2,40.6-11.8,40.2,28.4,54.5c48.1,17.1,48.1,17.1,74.6-28.1
			C2793.1,826.7,2793.1,826.7,2728.5,825.4z M2778.5,1286.3c-15.1,0.8-30.3,0.9-45.3,2.6c-15.5,1.7-22.4,9.1-14,25.2
			c6.6,12.5,13.9,25.1,17.9,38.5c7.5,25.4,22.1,33.1,48.7,31.5c44.8-2.7,44.9-0.8,44.9-45.1
			C2830.6,1285.9,2830.6,1285.9,2778.5,1286.3z M1757.5,2131.5c23.9,29.8,47.8,57.2,69,86.7c10.6,14.7,17.6,14.6,31.4,4.7
			c40.1-29.1,40.6-28.5,11.4-68.7c-1-1.4-1.9-3-3-4.4c-14.2-18.2-27.2-49.8-42.9-51.2C1802.9,2096.7,1780.3,2118.9,1757.5,2131.5z
			 M2026,2278c14.8-2.9,29.5-6.8,44.5-8.5c13.7-1.5,16.6-7.4,12.4-19.5c-10.3-30.2-21.4-60.3-30.1-91c-4.4-15.8-10.7-10.1-18.4-4.8
			c-19.1,13.1-37.7,26.8-57.1,39.4c-11.1,7.2-14.6,13.3-4.7,24.9c13.3,15.5,24.8,32.6,36.8,49.1
			C2013.7,2273.6,2017.1,2280.2,2026,2278z M559.7,795.8c33.1,27,60.5,49.4,88,71.8c4.9,4,10.3,8.7,16.2,2.4
			c28.9-30.7,63.7-56.4,86.9-99.8C686.4,778.9,627.1,786.8,559.7,795.8z M1942.6,1670.7c34.8-42.8,67-82.4,102.5-126.1
			c-25.4-0.4-40.2-24.4-64.2-12c-18.9,9.8-37.8,19.5-57,28.9c-8.9,4.4-14.7,9.3-10.9,20.5
			C1922.6,1610.1,1931.8,1638.4,1942.6,1670.7z M2793.3,1083.6c0-0.3,0.1-0.6,0.1-1c3.5,0.4,7.3,0.2,10.6,1.2
			c25.7,8.3,31.4-4.3,28.8-26.6c-0.7-6.2-0.8-12.6,0.2-18.7c3.4-20.5-5.7-29.8-25-36.3c-54.3-18.4-54-19.3-83.5,30.4
			c-2.7,4.6-5.6,9.1-8,13.9c-9,17.4-1.3,27.6,15.7,30.4C2752.4,1080.3,2773,1081.5,2793.3,1083.6z M2598.9,2167.1
			c48.7-9.5,93.1-18.4,137.6-26.8c10.7-2,13.9-10.4,17.8-18.2c3.4-6.8-3-9.6-7.2-12.2c-26.3-16.7-53-33.1-79.3-49.8
			c-7.2-4.6-12.1-5.5-16.7,3.7C2634.7,2097.2,2617.6,2130.3,2598.9,2167.1z M2680.9,781.9c45.1,0,86.9,0,128.6,0
			c6.7,0,12.5-1.2,15.1-8.3c2.2-6.1-1.1-10.1-5.4-13.7c-29.9-25.3-59.7-50.6-89.6-75.8c-10.1-8.6-17.7-7.3-21.7,6
			C2699.1,719.6,2690.5,749.2,2680.9,781.9z M1667.2,545.9c5.3-0.3,10.8-0.2,16-1.1c51.8-9.2,56.9-22.2,24.6-62.4
			c-7.8-9.7-17-18.3-25.2-27.8c-12.2-14-22.8-22.2-35.5,0.5c-4.9,8.7-14.8,16.3-24.1,20.5c-25.9,11.5-20.3,28.4-8.8,45.3
			C1626.4,539.1,1644.6,547.8,1667.2,545.9z M1936.2,775.8c-15.7-23.1-28.3-42.4-41.8-61.1c-5.7-8-8.8-22.6-23.1-17
			c-17.8,7-42.1-0.4-52.3,24.3c-7.5,18.3-12.6,36.8-15.3,56.3c-1.5,10.9,0.5,14.7,11.9,13.2C1854.5,786.2,1893.3,781.3,1936.2,775.8
			z M1163.2,287.9c-34.6-0.5-34.3-0.5-34.4,35.1c0,13.3-1.6,26.7-3.3,39.9c-1,7.3-2.6,12.8,5.9,17.9c39.7,23.9,72.5,10.6,80.7-33.4
			C1222.5,290.9,1220.8,288.8,1163.2,287.9z M1428.9,407.6c17.6,0.3,41.8-8.9,54-20.5c19.1-18.1,15.3-40.5-8.9-47.8
			c-26.5-8-53.4-14.7-80.1-21.6c-6.3-1.6-13.2-5.9-17.6,4.7C1359.4,362.7,1386.3,406.8,1428.9,407.6z M2633.4,436.5
			c-2.7-7.6-9.2-9.1-14.7-11.8c-26.5-13-53.7-24.4-82.3-31.5c-10.3-2.5-23.3-15.6-32,2.8c-7.5,15.9-13.1,31,7.6,43.4
			c12.9,7.6,23.4,19.2,35,29c36.8,31.1,36.8,31.1,67.2-6.9C2620.9,453.2,2627.2,444.6,2633.4,436.5z M2010.8,620.3
			c-19.9-29-37.5-54.7-55.1-80.3c-2.4-3.5-5.4-6.7-8.8-10.8c-22.3,20.7-40.9,43.4-58.9,66.6c-6.6,8.5-10.8,16.1-2.3,25.9
			c8.2,9.6,11.7,24.9,30.1,20.3C1945.9,634.6,1976.3,628.1,2010.8,620.3z M609,375.6c3.4,11.7-6.7,27,3.7,37.4
			c10.4,10.4,25.3,13.2,39.8,10.7c28.7-5,36.8-28.1,42.4-52c10.6-45.2,1.2-54.9-41.7-44.6c-3.4,0.8-6.7,2.9-10.2,3.1
			C614.2,331.7,596.6,341.8,609,375.6z M1210.9,2154c-20.4-3.3-35.2-5.9-50.2-8c-9.4-1.3-19.8-6.1-27.9,2.8
			c-17.7,19.5-40.7,30-69.5,38.1c29.9,22,49.9,46.3,62.6,80.3C1149.7,2225,1175.6,2189,1210.9,2154z M2750.3,1188.2
			c-14.3-19.3-28.1-38.9-43.1-57.5c-14.4-18-29.1-16-42.4,2.5c-13.7,19.1-18.1,37.1-3.5,57.8c6,8.6,9.3,19.1,13.9,28.8
			c16.2,34.1,18.9,34.7,44.6,6.2C2730.4,1214.3,2743.1,1204.2,2750.3,1188.2z M455.2,1007.9c34.9,36.7,65,68.5,97.9,103.1
			c7.9-43,16.6-80.2,29.6-120.8C540.1,996.1,500.7,1001.5,455.2,1007.9z M1774.2,646.6c-3-15.7-5.5-31.6-9.2-47.1
			c-9.6-40.2-9.8-40.1-48.7-25.1c-5.8,2.3-11.7,4.8-17.7,5.8c-15.9,2.6-19.2,13-18.7,27c1.4,34.8,30.2,57.7,72.7,59.7
			C1768.7,667.7,1777.3,664.7,1774.2,646.6z M207.1,771.8c0.8,0-3.6-0.1-8.1,0c-25.2,1-30.6,10.5-32.4,47.1
			c-1.3,25.2,15.7,21,30.1,22c18.7,1.3,37.4,3.4,54.4,11.7c15.4,7.6,21.3,2.3,22.2-13.3C276.3,790.3,261.1,773.5,207.1,771.8z
			 M327.4,606.5c-0.3-24.1-5.5-46-13.3-56.3c-14.5-19-25-19.4-38.9-0.6c-10,13.6-19.5,27.6-28.4,41.9c-22.1,35.1-21.9,35.2,18.7,44
			c6.1,1.3,12.2,2.6,18.2,4.1C318.5,648.7,327.9,641.6,327.4,606.5z M1291.3,384.6c29.9,0.2,47-21.3,46.6-58.7
			c-0.2-21.2-16.8-31.3-68.6-28.3c-35.2,2.1-12.1,35.6-18.7,53.7C1243.9,369.6,1264.8,384.4,1291.3,384.6z M1718.8,2103.4
			c29.5-18.2,51.5-31.5,73.1-45.2c3.9-2.5,0.9-6.4-1.1-9.2c-14.6-20.1-24.8-49-46.2-56.4c-13.3-4.6-25.6,26.9-39.2,41.5
			c-2.4,2.6-5.1,5.1-6.9,8.1c-4.4,7.1-16.4,12.6-10.5,22.2C1696.8,2078.5,1708.6,2090.7,1718.8,2103.4z M467.9,456.3
			c-0.4-17.5-15.5-53.8-22.3-53.7c-15.4,0.2-63.5,39.9-63.1,52.2c0.7,23.5,23.3,53.4,40.4,53.2C444.8,507.8,468.5,480.6,467.9,456.3
			z M1572.4,453.3c14.1-0.8,25.5-5.3,35.7-13.1c25.2-19.2,25.2-27.6-1.7-43c-18.4-10.6-37.8-19.6-57-28.9c-5-2.4-12.8-8.9-15.9-0.4
			c-6.6,17.8-17.9,35.5-7.3,56C1536.3,443.3,1553,451.3,1572.4,453.3z M800.9,346.2c0.1-43.1,0.1-43.1-42.4-37.4
			c-4.4,0.6-8.9,0.8-13.4,1.1c-10.1,0.7-15,5.6-12.3,15.8c4.4,17,1.6,33.8-0.7,50.6c-2.6,19,7.2,26.1,24.6,26.3
			C791.9,403.2,800.9,391.8,800.9,346.2z M2688.6,554.3c4.4,0.8,10.3,2.6,12.3-1.8c8.4-18.6,18.8-38.7,15.4-58.3
			c-2.8-16.2-22.9-23.5-36.5-33.3c-3.6-2.6-7.3-0.1-9.3,2.6c-16.1,22.1-48,41.5-46.1,65.5c2,26.4,39.4,18.5,61.7,24.8
			C2686.9,554,2687.8,554.2,2688.6,554.3z M2680.8,640.6c-32.4-21.4-49.8-51.1-86.1-56.6c-20.9-3.2-28.8,9.3-38.3,21.7
			c-10.9,14.1,6.5,17.4,10.9,25.4c4.6,8.5,12,15.5,17.4,23.6c5.1,7.8,11.3,10.8,20.2,8.2C2627.7,656.1,2650.6,649.4,2680.8,640.6z
			 M902.8,337.7c-0.1,0-0.3,0-0.4,0c0-4.4-0.6-9,0.1-13.3c4.2-27.3-7.6-35.3-33-28.1c-5.9,1.7-12.3,1.5-18.5,1.8
			c-8.6,0.4-12.8,4.1-12.5,13.1c0.6,17.7-1,35.7,1.5,53.2c3,21.1,17.1,33,39,32.1c22.4-0.9,22.7-18.7,23.7-34.8
			C903.3,353.7,902.8,345.6,902.8,337.7z M940.6,338.7c0,7.2,1.3,14.6-0.2,21.4c-6.2,26.6,7.8,30.8,30.1,31.6
			c19.9,0.8,24.5-7.9,24.9-25c0.3-15.1,3.7-30.2,4.1-45.3c0.9-35.1,0.5-34.3-34.4-33.5c-19,0.4-28.4,6.1-24.7,26.7
			C941.7,322.3,940.5,330.6,940.6,338.7z M570.9,388.4c-0.2-40.2-0.3-40.3-37.2-26.6c-11.7,4.3-23.3,8.7-34.7,13.8
			c-4.6,2.1-10.2,5-12.3,9.1c-4.6,9.3,18,51.9,29.5,56c19.8,6.9,36.7,3.6,48.2-15.9C571.1,413.4,569.7,400.7,570.9,388.4z
			 M184.1,733.6c12.7,0,22.3-0.3,31.9,0.1c10.7,0.4,21.5,0.3,31.9,2.2c18.9,3.5,34.8,1.3,39.4-20.3c5.3-25-3.9-36.6-29.7-41.2
			c-12.2-2.2-24.5-4.3-36.7-7c-9.8-2.2-15,1.8-18,10.8C197.2,695.8,191.1,713.2,184.1,733.6z M162,1010.9c2,40.6,2,40.6,41.1,35.2
			c4.4-0.6,8.9-0.8,13.4-1c39.6-1.9,42.6-7.4,23.6-43.5c-2.5-4.7-5.4-9.3-8.4-13.7c-15.6-23.3-35.8-11.3-55.5-7.9
			C154.8,983.6,161.6,998.3,162,1010.9z M1822.3,835.6c47.2,35.2,91.3,43.5,139.4,26.2c8.2-3,25.2-3.8,19-19.4
			c-4.5-11.3-10.3-25.4-28.4-23C1911.6,824.9,1870.8,829.6,1822.3,835.6z M178.7,878.5c-16.9-6.1-20.8,4-20.7,19.2
			c0.1,9.8-0.3,19.7-0.7,29.5c-0.5,13,3.6,17.6,17.5,13.1c17.8-5.7,37.2-11.9,54.8-2c21.8,12.3,23.5,0.9,23.7-16.3
			c0.2-20-10.4-31.7-28.3-37.5C210.5,879.8,195.4,878.2,178.7,878.5z M2706.5,2192.2c-24.7,5-41.8,8.5-59,11.9
			c-69.2,13.7-69.2,13.7-41.8,77.9c0.5,1.1,2.6,1.5,5,2.9C2644.3,2259.7,2674.1,2230,2706.5,2192.2z M2557.6,2149
			c19.9-39.1,36.9-72.4,53.7-105.7c3.1-6.1,8.5-12.4,0.1-18.6c-6.9-5.1-12.7-3.5-19,1.9c-16.2,14-33.8,26.1-53.3,35.1
			c-9.4,4.3-10.4,10.5-7,19.4C2540,2101.6,2547.5,2122.2,2557.6,2149z M1037.3,335.4c3.8,11-11.1,29,7.4,38.4
			c23.8,12.2,42.1,1.3,45.3-25.7c1.3-10.6-0.1-21.4,1-32c2.2-20.9-4.1-30.5-27.5-30.5c-22.1,0.1-28.3,9-26.3,28.6
			C1037.9,320.4,1037.3,326.7,1037.3,335.4z M247.3,1122.4c-11.5-8.8,6.5-42.5-26.6-38c-15.4,2.1-44-8.2-44.3,18.4
			c-0.2,19.5-0.7,46.2,19.8,58.9C206.2,1167.9,247.6,1136.1,247.3,1122.4z M1760.3,799.9c3.3-16.3,6.4-29.9,8.9-43.7
			c8.6-47.6,8.4-47-37.5-52.9c-14.5-1.9-19.5,2.4-19.7,16.3C1711.4,755.3,1728.9,779.7,1760.3,799.9z M2654.4,1842.7
			c2.4,0.3,4.8,0.7,7.1,1c20.6-28.7,41.1-57.4,62.3-86.9c-19-7.5-37-6.9-54.2-10.2c-10.1-1.9-15.3,0-15.2,11.4
			C2654.6,1786.3,2654.4,1814.5,2654.4,1842.7z M2826.7,1810.1c0-7.1,0.1-14.2,0-21.3c-0.2-8.4,3-17.8-9.5-21.6
			c-13.1-3.9-17.3,4.2-21.9,13.3c-9.5,19.1-18.9,38.2-28.9,56.9c-6.4,11.9-8.3,18.2,9.8,18.7
			C2824.8,1857.6,2824.8,1858.3,2826.7,1810.1z M2056.1,1956.4c-16,3.3-18.4,10.1-14.9,20.7c7.9,23.6,16.7,47,22.5,71
			c5.6,23,13.8,23.2,31.3,10.2c15.3-11.3,22.6-18.4,4.8-34.5c-16.5-14.9-26.7-35.4-37-55.2
			C2060.4,1963.9,2060.1,1956.1,2056.1,1956.4z M1968.3,2288.8c-13.2-18-24.7-33.4-35.7-49.1c-5.2-7.4-10.1-8.1-17.3-2.6
			c-10.6,8-21.5,15.7-32.7,22.7c-12.6,7.8-7.6,13,0,22C1908.4,2312.4,1936.7,2293.3,1968.3,2288.8z M2825.3,1538.5
			c1.8-0.4,3.5-0.9,5.3-1.3c0-30.7,0.2-61.4-0.1-92.1c-0.1-6.4,3.1-16.3-7.5-16.9c-14.8-0.7-30-2.8-44.1,4c-1.1,0.5-0.8,6.7,0.5,9.4
			C2794.5,1474.1,2809.9,1506.3,2825.3,1538.5z M2834,859.3c-1.7-0.8-3.4-1.6-5.2-2.4c-10.3,17.2-20.6,34.4-30.8,51.7
			c-21.8,37-21.6,36.5,17.7,49.7c14.9,5,18.9,1.1,18.5-13.6C2833.5,916.3,2834,887.8,2834,859.3z M791,2204.3
			c21.9,24.9,40.8,46.4,61.3,69.7c6.8-27.8,23.1-48.2,39-69.7C857.2,2204.3,826,2204.3,791,2204.3z M1152.3,1172.5
			c2.9-17.8,0.6-29.8-18.3-30.3c-17.3-0.4-29.9,6.2-31.9,24.6c-1.8,16.2,20.9,47.8,34.5,45.6C1163.4,1208,1144.4,1183,1152.3,1172.5
			z M2645.3,956.6c-0.1,25.2,18.8,38.5,30.3,55.9c2.3,3.5,6.8,2.5,8.9-0.8c7.4-12.1,15.5-23.9,21.3-36.8
			c5.6-12.4-7.6-12.9-13.5-14.2c-15.6-3.4-28.8-17.4-46.4-10.5C2644.8,950.6,2645.4,955.2,2645.3,956.6z M1149.6,1323.1
			c0-18.1,0.5-33.1-0.2-48.1c-0.3-7.9,5.1-19.6-7.8-22c-9.9-1.9-21.6-9-30.3-1.3c-7.7,6.8-5,18.5-2.2,27.7
			C1115.1,1299.3,1124.4,1316.7,1149.6,1323.1z M2478.1,469.1c-5.6,14.7-9.6,26.4-14.5,37.9c-3.1,7.3-2.6,11.8,6.2,13
			c24,3.2,47.5,10.4,77.5,8.8C2522.5,507.4,2501.8,489.5,2478.1,469.1z M2185.8,522.4c10.9,16.8,16.5,25.9,22.7,34.7
			c2.9,4.1,5.6,11.7,11.3,9.7c16.7-5.9,33.2-12.6,48.8-20.9c5.2-2.8,2.7-9.6-4.6-10.8C2240.1,531,2216,527.2,2185.8,522.4z
			 M2507.1,2347.5c72.8-33.7,67.3-28.8,40.4-78.6C2534.7,2293.9,2522.1,2318.3,2507.1,2347.5z M2638.1,1387.5c13,0,22.8,0.2,32.5,0
			c34.3-0.9,33.9-0.7,19.5-30.9c-6.5-13.6-11.8-22.4-24-4.4C2658.3,1363.6,2645.3,1371,2638.1,1387.5z M348.1,470.3
			c-9.7,8.8-16.9,15.3-24.1,22c-5.2,4.8-8.4,10.2-0.6,15.1c17.6,11.1,24.8,31,40.2,49.3C372.3,523.7,357.7,499.4,348.1,470.3z
			 M2659.5,694.8c-14.7,3.8-25.5,6.5-36.4,9.4c-7.4,2-9.6,6.3-7.1,14c5.9,18.4,11.2,36.9,18.3,60.5
			C2643.3,748.5,2650.8,723.5,2659.5,694.8z M1939,1500.3c-12.1-7.5-21.9-13.5-31.7-19.5c-9.4-5.7-18.8-11.3-30.3-18.1
			C1892.3,1531.6,1892.3,1531.6,1939,1500.3z M2047.5,2319.6c12.6,16.8,21.9,29,34.2,45.4c5.6-21,27.7-36.2,17.8-50.2
			C2091.2,2303.2,2069.1,2317.3,2047.5,2319.6z M2336.7,2324c1.8-0.6,3.5-1.2,5.3-1.7c0-13.2,0.6-26.4-0.3-39.5
			c-0.4-6.1,4.9-16-5-17.6c-7.2-1.2-16.6,0.7-22.5,4.8c-8.3,5.7,1.1,12.2,3.5,17.6C2323.2,2300.1,2330.3,2311.9,2336.7,2324z
			 M2820.5,701.8c-2.4-53.6-6.7-57.1-43.2-36.8C2791,676.6,2804,687.7,2820.5,701.8z M1962.7,2338.9c21.2,11.5,39.1,22.7,63.2,29.4
			C2011.1,2343.3,1999.8,2319.5,1962.7,2338.9z M2678.1,1905.3c-25.2,20.6-37.8,48.1-42.8,79.6
			C2655,1961.3,2667.1,1933.6,2678.1,1905.3z M2220.1,2199.8c-11,14.4-17.7,27-22.2,41.7c15.2,2.3,27.5-0.9,40.5-7.7
			C2232.7,2223.1,2227.2,2213,2220.1,2199.8z M2803.4,1131c-14.1-4.2-26-5.6-39.7-4.2C2782.6,1159.8,2782.6,1159.8,2803.4,1131z
			 M2657,1294.2c-33.2-0.3-33.6,0.1-31.9,35.5C2635.5,1318.1,2644.7,1307.9,2657,1294.2z M2086.3,458.5
			c-13.6-25.6-15.1-25.7-35.8-4.9C2061.2,459,2072.3,460.6,2086.3,458.5z"/>
		<path class="st0" d="M1078.5,1840.8c0.2-84.4,33.1-150.4,100.7-198.3c7.7-5.5,16.9-16.4,26.6-1.1c7.9,12.6,11.1,22.5-4.5,33.3
			c-69.7,48.2-94.6,116.1-81.9,198.2c2.8,18-5.6,21.8-18.7,25c-16.4,4-17.6-8.6-19.1-18.8
			C1079.5,1865.9,1079.3,1852.4,1078.5,1840.8z"/>
		<path class="st0" d="M2488.8,1078.5c0.5,80.2-60,142-139.5,142.4c-77.1,0.4-141.2-63.6-141.3-142.2
			c-0.1-85.7,76.5-132.3,142.2-136.1C2426,938.2,2488.3,1002.6,2488.8,1078.5z M2348.4,1175.3c55.9,0.1,95.9-40.2,95.7-96.4
			c-0.2-48.5-43-96.4-88.7-92c-50.7,4.9-103.6,35.9-102,92.8C2255,1133.7,2295.4,1175.2,2348.4,1175.3z"/>
		<path class="st0" d="M2320.6,1368.4c0,48.1-44.1,89.9-94.6,89.8c-43,0-76.1-32.8-76.9-76.2c-0.9-48.7,45.3-95.8,93.6-95.4
			C2285.8,1287.1,2320.7,1323.7,2320.6,1368.4z M2221.8,1412.2c31.8,0.1,56.1-21.1,54-45.2c-1.7-19.3-11.1-33.7-33.3-34.3
			c-24-0.6-47.7,23.1-47.3,48.1C2195.4,1400.9,2204.9,1412.6,2221.8,1412.2z"/>
		<path class="st0" d="M2535.6,746.3c-0.6,59-28.4,85.9-87.7,84.9c-45.4-0.7-82.3-37-82.5-81.2c-0.3-45.2,34.3-81,78.3-80.9
			C2501,669.3,2536.1,698.8,2535.6,746.3z M2454,786.9c27.2-1.2,38.3-13.9,37.4-42.9c-0.5-17.5-21.7-30.4-48.7-29.6
			c-19.5,0.5-33.2,17.1-31.6,38.1C2412.7,773.3,2430.9,787.9,2454,786.9z"/>
	</g>
</g>
</svg>
