<?xml version="1.0" encoding="utf-8"?>
<!-- Generator: Adobe Illustrator 23.0.0, SVG Export Plug-In . SVG Version: 6.00 Build 0)  -->
<svg version="1.0" xmlns="http://www.w3.org/2000/svg" xmlns:xlink="http://www.w3.org/1999/xlink" x="0px" y="0px"
	 viewBox="0 0 3000 3000" style="enable-background:new 0 0 3000 3000;" xml:space="preserve">
<style type="text/css">
	.st0{stroke:#000000;stroke-width:10;stroke-miterlimit:10;}
</style>
<g id="Layer_1">
</g>
<g id="Layer_2">
	<g>
		<path class="st0" d="M926.8,1110.8c-38.5-3.8-72.3-6.5-105.4-13.4c-153.5-32.2-253.5-128.1-315.2-267.7
			c-31.4-70.9-49.2-145-37.5-223.6c3.4-22.5,11.8-43.4,19.3-64.7c13.6-38.8,0.6-57.4-40.8-58.5c-13.7-0.4-27.4,0.6-41,1.6
			c-81.5,5.9-139.9-42-151.1-123c-9.6-69.8,18.8-124.5,68.3-169.6c60.2-54.8,134.1-84,211.2-104.9c86.4-23.4,173.9-37.1,263.6-19.5
			c55.1,10.9,101.6,35.6,135.1,81.9c20.2,27.9,27.8,60,29.8,94.1c2.5-0.8,4.3-0.8,4.8-1.6c51.4-78.8,129.2-89.5,213.4-81.9
			c41.9,3.8,81.3,17.6,119.9,38.2c10.4-55,38-97.1,85.3-125.1c35.6-21.1,74.4-26.7,114.9-19.4c102.2,18.5,159.8,91.7,155.7,199.5
			c136.8-50.9,256.6-32.5,350.4,86.9c6.9-4.9,7.6-12.2,10.5-18.2c64.5-130.2,165.8-211.2,313.3-218.8
			c263-13.5,402,224.8,347.3,413.9c-20.4,70.4-60.7,125.3-134.9,147.8c-38.9,11.8-77.3,3.2-115.8-3.5c-33-5.8-65.9-12.5-98.8,1.5
			c-20,8.5-29.7,22.4-28.7,44.6c2.2,46.5,1.9,93-9.1,138.7c-18,74.7-56.8,135.4-120.6,179.7c6.5,7.2,14.9,8.2,22.1,11
			c187.6,73.7,307.8,210.8,379.7,396.4c59.8,154.3,77.2,313.8,69.9,477.4c-4.9,110.7-5.9,221.6-20.9,331.7
			c-15.7,114.7-43,225.8-100.2,327.6c-92.3,164.3-235.5,263.1-413.3,315.1c-126.9,37.1-257.2,52.2-389.3,51.3
			c-158.2-1-315.9-11.8-473.5-24.8c-94.3-7.8-187.7-20.4-278.5-47.8c-183.7-55.6-315.9-175.1-413.2-336.8
			c-97.9-162.8-135.3-340.1-126.5-528.8c10.9-233.7,79.9-447.3,220.1-635.8c70.5-94.8,156.9-173.3,256.8-236.7
			C910.3,1121.9,916.4,1117.7,926.8,1110.8z M2593.9,1869.5c6.4-119.2-11.2-274.7-70.7-424.7c-64.8-163.4-169.5-288.5-335.1-354.7
			c-162.5-65-331.7-101.6-507.2-106.4c-167.7-4.6-330.6,21.3-491.1,69.8c-256.4,77.5-453.6,227.4-582,464.3
			c-66.7,122.9-105.9,254.4-123,392.9c-14.4,116.5-10.1,232.1,13,347.1c3.1,15.5,7.3,20.4,25.2,17.5c93.1-15.3,183.8-5,271.9,29.6
			c77.5,30.4,140.3,82,200.2,137.5c71.7,66.4,154,108.7,252.6,114.2c160.1,8.8,320.2,9,479.6-12c117.2-15.4,228.2-50,327.5-116.6
			c46.4-31.1,84.7-71.4,124.1-110.3c60.2-59.3,131.4-94.2,216.1-102.4c54.1-5.2,108-4,161.9,0.5c9.9,0.8,18.2,2.2,19.6-12.8
			C2585.1,2105.4,2591.4,2007.8,2593.9,1869.5z M1608.5,932.3c8.4,0.6,10.9,1,13.4,1c72-0.9,143.7,2.9,214.9,13.1
			c12.5,1.8,18.7-4.5,25.7-12.4c78.3-88.8,126.4-192.4,151.1-307.6c15.3-71.5,11.7-141.5-19.1-208.6
			c-53.1-115.7-161.2-164.9-283.2-128.9c-56.3,16.6-106.7,45.4-154.7,78.7c-65.6,45.5-127.9,96-199.7,132.1
			c-114.6,57.7-229.5,62.3-343.3-1.1C939.2,457,902.4,393.8,910.2,306.9c1.7-19.1,2.1-38.3,2.3-57.4c0.4-41.8-15.7-75.6-49.5-100.9
			c-42.9-32.2-92.9-39.3-144-38.5c-98.4,1.5-192.4,23.7-281.4,66.1c-36.1,17.2-69.6,38.4-96.3,68.6c-34.7,39.2-48.7,83.6-29.7,134.7
			c14.9,39.9,41.5,56.8,83.7,55c16.4-0.7,32.8-1.5,49.2-1.5c77.6-0.2,117.9,52.7,89.9,124.9c-25.5,65.7-23.5,130-3,194.6
			c47.6,149.7,136.4,259.4,297.4,294.8c82,18,165,19.6,244.7-7.5c121.2-41.3,243.2-77.7,370.5-94.5c23.5-3.1,48.3-0.6,70.2-12.2
			c42.1-22.2,79.6-50.6,111.8-85.8c78.1-85.5,122.9-184.9,124.2-302c0.1-11.1,3.8-14.7,14.2-13.6c4.7,0.5,9.7,0.7,14.3-0.1
			c17.7-2.9,23.2,3.2,22.5,21.9c-4,104.5-38.5,197.8-99.7,281.9C1676.3,870.4,1646.3,901.2,1608.5,932.3z M1910.1,957.4
			c61.4,11.7,118.4,26.2,174.5,43.7c13.8,4.3,24.7,2.4,36.8-4.2c75.2-40.9,113-106.6,125.9-188.8c4.5-28.5,7.1-57.4,3-85.9
			c-8.4-58.3,28.4-108.6,100.9-116.8c37.5-4.2,73.5,4.1,109.7,10.8c45.3,8.3,87.5,4.8,121.8-30.3c21.9-22.4,37.5-48.6,46.7-78.6
			c31.8-104.4-9.6-230.5-100.1-296.4c-177.6-129.2-425.1-36.2-483.9,184.5c-2.1,7.8,0.4,13.2,2.7,19.3
			c18.4,47.9,27.4,97.6,23.6,148.7c-9.7,130.8-55.8,248.4-132.2,354.4C1930.5,930.5,1921,942.8,1910.1,957.4z M1708.1,2740.9
			c-1.3,0-2.7,0-4,0c0,41.7,0.8,83.5-0.4,125.2c-0.5,16.8,5.6,19.8,21,20c83.1,1,165.3-7.6,247.1-21.2
			c104.7-17.5,205.1-48,296.5-103.3c181.7-109.9,264-281.5,297.4-483.1c1.9-11.5-3.2-12.5-11.9-13c-38.9-2.4-77.9-5.7-116.9-3.6
			c-71.1,3.7-138.6,18.6-194.2,66.7c-26.9,23.3-52.4,48.1-77.7,73.2c-54.7,54.1-117.8,95.5-188.1,126.2
			c-77.6,33.9-158.5,56.2-242.5,66c-20.2,2.4-27.6,9.1-26.8,29.9C1709.2,2662.9,1708.1,2701.9,1708.1,2740.9z M1423,2744.7
			c-0.4,0-0.8,0-1.2,0c0-38.3-0.6-76.7,0.3-115c0.3-14.5-4.3-18.6-18.6-18.4c-54.1,0.9-108.1-0.2-162-4.9
			c-72.7-6.4-140.5-26.3-202.3-66.2c-48-31-88.5-71.1-131.8-107.7c-106.8-90.2-229.2-126.8-367.9-109.7
			c-17.2,2.1-22.6,5.8-15.3,24.8c19.8,51.9,42.9,102.2,71.1,149.9c84,142.1,196.9,251.7,355.3,307.6c149,52.6,305.5,57.4,461,68.3
			c13.7,1,11.5-8,11.5-16C1423,2819.9,1423,2782.3,1423,2744.7z M1192.4,452.4c20.5-1,41.1-1,61.4-3c72-7.4,112.9-69.9,85.5-132.9
			c-13.7-31.5-34.5-58.8-66.3-75.8c-47.1-25.2-97.2-35.6-150.3-32.5c-9.5,0.6-19.1,2.2-28.4,4.2c-59.5,12.8-95.9,53.1-97.8,107.8
			c-2,56.9,34.1,104.7,92,120.6C1122.5,450.2,1157.5,450.7,1192.4,452.4z M1657.3,2745.1c0-41.7,0-83.4,0-125.1
			c0-8.2,2-16.2-11.9-15.2c-53.2,4-106.5,6.4-159.9,5.9c-10.7-0.1-14.2,3.5-14.1,14.2c1.1,80,1.8,160.1,2.5,240.1
			c0.1,8,1.8,12.3,11.3,12.7c50.6,2.2,101.1,4.6,151.6,8c14.6,1,17.1-4.9,16.5-17.6C1651.4,2827.1,1652.6,2786.1,1657.3,2745.1z
			 M1452.1,324.2c58.1-2,94.6-16.1,125.5-42.9c35.5-30.9,41-72.7,15.4-112.2c-23.9-37.1-58.2-58.7-101.5-66.2
			c-49.5-8.6-95.5,11.1-122.4,56c-21.6,35.9-31.1,67.3,9,118.3C1401.4,306.7,1429.9,325.5,1452.1,324.2z M1456.7,375.3
			c-21.6-4.2-40.4-7.7-59.1-15.8c-2.2,24.1-8.6,45.3-18.6,70.1C1407.5,411.5,1431.8,395.9,1456.7,375.3z"/>
		<path class="st0" d="M1510.9,1415.1c-44.5,0-89-1.4-133.4,0.3c-107.3,4.1-141.8-88-121.1-159.1c20.5-70.4,69.1-113.7,135.9-137
			c79.5-27.7,160.2-22.9,240.6-2.2c39.4,10.1,76.4,25.8,109.7,49.3c34.3,24.2,58.2,56.1,65.5,98.1c11.5,66.4-29.1,123.3-100.8,142.1
			c-19.8,5.2-40,8.8-60.8,8.6C1601.2,1415,1556,1415.1,1510.9,1415.1C1510.9,1415.1,1510.9,1415.1,1510.9,1415.1z M1506.5,1363.6
			c0,0.7,0,1.4,0,2.1c34.2,0,68.4-0.2,102.6,0.1c28.8,0.2,57.4-1.8,85.4-8.4c62.6-14.8,83.8-70.2,46.9-122.5
			c-6.8-9.6-14.9-17.7-24.4-24.7c-24.5-18.1-51.6-30.9-80.5-39.5c-78.3-23.3-157.4-31-235.3-1.1c-54,20.8-92.8,58.1-99.5,119.4
			c-4.7,43.1,16.5,71.3,59.3,73.9C1409.3,1365.9,1458,1363.6,1506.5,1363.6z"/>
		<path class="st0" d="M2018.1,1451.5c0,63-51.3,114.4-114.5,114.8c-63.7,0.4-115.9-51.8-116.1-115.8
			c-0.1-64.4,51.2-116.5,115-116.8C1967.5,1333.4,2018.2,1385,2018.1,1451.5z M1968.4,1450c0-36.3-28.6-65.3-64.8-65.6
			c-36-0.3-65.6,28.6-66.2,64.5c-0.6,36.7,29.3,66.9,66.2,66.6C1939.8,1515.2,1968.4,1486.3,1968.4,1450z"/>
		<path class="st0" d="M1640.1,1848.9c0,64.8-51.3,116.2-115.4,115.9c-63.8-0.3-115.2-52.5-115.1-116.8c0.1-64,52.4-116.2,116-115.9
			C1589.8,1732.5,1640.1,1783.8,1640.1,1848.9z M1590.5,1849c0.2-36.5-28-65.4-64.3-66c-36.9-0.6-66.9,29.2-66.7,66
			c0.3,36,29.5,65,65.6,65C1561.5,1913.9,1590.3,1885.3,1590.5,1849z"/>
		<path class="st0" d="M1619.5,2111.6c0,64.9-50.9,116.2-115.1,116.1c-63.8-0.1-115.4-52.3-115.3-116.5
			c0.1-64.1,52-116.2,115.7-116.1C1569,1995.2,1619.5,2046.5,1619.5,2111.6z M1569.9,2110.5c-0.3-36.2-29.4-64.8-65.6-64.7
			c-36.1,0.2-65.3,29.3-65.4,65.3c-0.1,36.8,30.2,66.5,67,65.7C1542.2,2176.1,1570.2,2147.1,1569.9,2110.5z"/>
		<path class="st0" d="M2313,1965.3c64,0,116.3,52.7,115.4,116.4c-0.8,63.2-52.5,114.2-115.6,114.2c-65,0-116.5-50.2-117.3-114.4
			C2194.8,2017.1,2247.2,1965.3,2313,1965.3z M2312.9,2014.9c-36.2-0.5-65.6,28-66.3,64.1c-0.7,37.3,28.3,67.2,65.3,67.3
			c35.7,0,65.5-29.5,65.9-65.2C2378.1,2045.5,2348.5,2015.4,2312.9,2014.9z"/>
		<path class="st0" d="M1481.4,2475.1c-64.4-0.2-116.2-52.2-115.6-115.9c0.6-64.9,52.6-115,119-114.7
			c62.3,0.3,114.4,53.4,113.8,116.1C1598.1,2424.7,1546.2,2475.3,1481.4,2475.1z M1482.2,2294.2c-36.1,0-65.2,28.8-65.5,65
			c-0.3,37.1,29.3,66.8,66.2,66.4c35.7-0.4,65.2-30.4,65-66C1547.6,2323.8,1517.9,2294.3,1482.2,2294.2z"/>
		<path class="st0" d="M1537.7,1678.2c-63-0.3-114.3-51.9-114.5-115.1c-0.2-64.5,52.2-115.7,118.2-115.5
			c62.8,0.1,114.7,52.3,114.6,115.1C1655.8,1627.8,1603.8,1678.6,1537.7,1678.2z M1474.3,1563c0,36.4,28.7,65.4,64.9,65.6
			c35.7,0.3,65.6-29,66.3-64.8c0.7-36.3-29.9-67-66.5-66.6C1502.8,1497.6,1474.2,1526.7,1474.3,1563z"/>
		<path class="st0" d="M2200.1,1961.6c-64.2-0.2-116.2-52.5-115.4-116.1c0.8-64.8,52.9-114.9,119.3-114.5
			c62.3,0.4,114.3,53.6,113.6,116.3C2316.8,1911.4,2265,1961.9,2200.1,1961.6z M2135.6,1846.1c-0.1,36.3,28.4,65.5,64.5,66
			c36.5,0.5,67.2-30.1,66.6-66.4c-0.5-35.8-30.3-65.1-66.1-65C2164.6,1780.9,2135.8,1809.8,2135.6,1846.1z"/>
		<path class="st0" d="M2072,1760.4c-63.2-0.3-114.3-51.5-114.7-114.8c-0.4-65.2,52.6-116.4,120-115.9c62,0.5,113.5,54,112.5,117.1
			C2188.9,1711,2137.3,1760.7,2072,1760.4z M2008.3,1645.4c0.2,36.3,29,65.2,65.1,65.4c35.7,0.1,65.6-29.3,66.1-65
			c0.5-36.3-30.2-66.8-66.7-66.4C2036.6,1579.9,2008.1,1609.1,2008.3,1645.4z"/>
		<path class="st0" d="M789.3,2270.6c-64.6,0.4-116.3-50.3-116.9-114.7c-0.6-64.2,50.6-116.1,115.1-116.5
			c64.7-0.4,116.5,50.4,117,114.6C904.9,2218.4,853.7,2270.2,789.3,2270.6z M788.4,2220.2c35.8,0,65.6-29.4,65.9-64.9
			c0.3-35.3-29.6-65.7-65.1-66.1c-37.1-0.5-66.5,29-66.2,66.4C723.2,2192.2,751.7,2220.3,788.4,2220.2z"/>
		<path class="st0" d="M801.7,1889.1c-0.2-64.2,51.4-116.3,115.3-116.6c64.3-0.3,116.1,50.9,116.5,115.3
			c0.4,64.3-50.9,116.2-115.2,116.6C854.1,2004.8,801.9,1953.1,801.7,1889.1z M982.5,1889.1c0.2-36.6-27.6-65.5-63.7-66.3
			c-36.3-0.7-67.3,29.7-67.1,65.9c0.2,35.4,29.8,64.4,65.8,64.4C955.1,1953.3,982.3,1926.4,982.5,1889.1z"/>
		<path class="st0" d="M1134.3,1711.4c-64.6-0.3-115.3-51.5-115.1-116.3c0.2-64.5,51.6-115.2,116.4-115
			c64.6,0.2,115.3,51.5,115,116.3C1250.3,1661.1,1199.1,1711.7,1134.3,1711.4z M1200.2,1595.9c0-36.5-28.4-65.5-64.6-65.8
			c-36.4-0.3-67.1,30.4-66.5,66.6c0.5,35.4,30.8,65,66.3,64.8C1171.5,1661.3,1200.2,1632.3,1200.2,1595.9z"/>
		<path class="st0" d="M1002.5,621.8c73.2,0.1,122.6,40.6,124.6,102.2c1.9,56.4-37,106.2-94.9,120c-49.1,11.7-95.2,2.9-136.3-26.1
			c-58.2-41.1-54.1-126.4,7.6-168.2C933.3,629.6,966.9,622,1002.5,621.8z M1006,671.5c-28.3,0.8-52.3,5.5-73.5,19.3
			c-31.1,20.2-36.6,59.8-12.1,82.2c31.1,28.4,87.2,34,122.8,12.1c25.3-15.6,38.6-41.6,33.1-67.4c-5.8-27.2-25.8-38.8-51.1-43.4
			C1017.7,672.9,1010.3,672.1,1006,671.5z"/>
		<path class="st0" d="M1365.7,656.9c-0.6,53.7-41.3,93.5-103.9,101.7c-61.5,8.1-106-32.6-102.9-94c0.8-15.5,6-29.3,14.8-41.9
			c28-40,94-60.6,139.8-43.7C1347,591.3,1366.1,619.8,1365.7,656.9z M1247.1,709.5c27.2-1.1,51.3-8.7,64.3-35.2
			c12.7-26-0.9-49.3-29.5-50.6c-21.9-1-41.7,5.6-58.8,19.4c-13.9,11.1-17.5,25.3-11.9,42C1216.9,702.4,1229.2,709.9,1247.1,709.5z"
			/>
	</g>
</g>
</svg>
