<?xml version="1.0" encoding="utf-8"?>
<!-- Generator: Adobe Illustrator 23.0.0, SVG Export Plug-In . SVG Version: 6.00 Build 0)  -->
<svg version="1.0" xmlns="http://www.w3.org/2000/svg" xmlns:xlink="http://www.w3.org/1999/xlink" x="0px" y="0px"
	 viewBox="0 0 3000 3000" style="enable-background:new 0 0 3000 3000;" xml:space="preserve">
<style type="text/css">
	.st0{stroke:#000000;stroke-width:10;stroke-miterlimit:10;}
</style>
<g id="Layer_1">
</g>
<g id="Layer_2">
	<g>
		<path class="st0" d="M2629.2,1155.8c64.8,27,121.5,62.2,167.7,112.8c86.4,94.8,130.4,208.5,143.6,334.1
			c16.2,154.6-13.8,299.2-106.6,426.8c-126.7,174.3-368.4,242-557.9,157.7c-24.6-10.9-47.8-37.5-69.6-35.9
			c-21.6,1.6-39.9,32.5-61.8,47.2c-69.7,47-148.9,66.7-231.2,75.3c-158.6,16.6-318,9.4-477,12.7c-257.3,5.3-514.7,7.4-772.1,9.8
			c-78.7,0.7-157.8-0.7-234.7-19.8c-200.5-49.8-311.4-185.8-350.3-381.5c-42.7-215,32.5-395.1,190-539
			c164.7-150.5,362.5-233.6,584.8-256.7c110.8-11.5,220.6-4.6,329,20.4c21.9,5.1,33.5-1,46.5-17.4
			c60.5-76.1,135.2-133.4,229.2-161.4c65.7-19.6,133.9-26.2,202.2-26c173.7,0.5,347.5,3,521.2,4.4c51.2,0.4,102.3-2.5,152.9-10.1
			c19.4-2.9,46-3.4,50.8-25.6c4.5-20.8-16.6-36.1-32.7-47.7c-40.9-29.3-89.6-36.5-137.8-43c-136.8-18.3-273.9-11.6-410.8-2.5
			C1568,806,1333.9,843,1098.9,871.4c-25.7,3.1-51.5,6.3-77.1,10.1c-11,1.6-21.8,2.6-31.2,11.4c-92,86.9-201.2,100.3-319.4,73.6
			c-14.2-3.2-28-8.2-42.1-11.6c-30.9-7.6-60.7-7.2-88.8,10.9c-95.8,61.8-190.7,50.5-284.3-5.4c-32.9-19.7-62-44.5-88.5-72.1
			c-46.4-48.2-40-100.1,17.4-135.4c39.8-24.5,84.3-37.2,129.4-48.1c41.3-10,83.6-11.4,125.7-13.7c32.4-1.8,55.2-15.4,71.8-42.4
			c54.2-88.2,135.7-130.8,236.9-135.5c78.8-3.6,154.8,11.7,225.4,48.5c17.3,9,35.8,18.3,46.6,34.4c14.2,21.2,32.7,22.1,54.5,20.8
			c120.8-7.1,240.4-25,360.2-41.2c200-27,399.2-62,602.1-62.3c164.3-0.3,325.7,16,480.4,75.3c76.4,29.2,143.5,71.9,191.8,139.9
			c61.3,86.4,68.8,177.8,25,273.8c-20.7,45.5-49.5,85.5-81.2,123.7C2645.8,1135.5,2638.2,1144.8,2629.2,1155.8z M1903.1,2234.3
			c24.8-3.7,45-5.6,64.6-9.7c89.4-18.7,170.9-51.4,226.3-129.8c4.9-6.9,7.9-13,8.8-21.5c10.7-107.3-6.5-210.1-47.9-309.3
			c-52.2-124.8-134.1-222.8-262-273.4c-111.2-44-228-68.1-347.3-79.3c-102.4-9.6-204.2-0.2-306.4,4.9
			c-164.8,8.2-316.2,55.6-449.3,153.1c-145.8,106.7-206.4,250.6-170.2,430.1c16.6,82.2,56.2,154.6,102.8,223.9
			c16.8,24.9,34.8,32.2,63.4,31.6c143.7-3,287.4-4,431.1-5.8c127.5-1.6,254.9-3.3,382.4-4.7c11.1-0.1,20.3-1.6,28.1-10.6
			c32.8-37.5,61.5-77.6,77.5-125.4c42.5-126.5-18.4-237.3-148.4-268.1c-80.7-19.1-161.5-14.1-241,6.2c-45.2,11.5-84.7,35-106.7,78.4
			c-11.8,23.4-24.2,7.2-35.4,3.4c-17.3-5.9-3.6-16.4-0.2-22.9c25.6-48.8,67.8-78.6,119.1-94c93.5-28,188.8-32.7,283.6-8.4
			c104.2,26.8,169,99.8,181.1,202c8.3,69.8-13.1,133.1-50.2,191.5c-9.3,14.7-19.6,28.7-29.2,42.7c57.3,0,113-0.1,168.7,0.1
			c9.3,0,12.2-6.3,15-13.2c38.4-95.8,66.2-193.9,53.3-298.5c-14.9-120.5-81.5-238.9-230-268.5c-139.2-27.8-279.3-24.3-418.6,0.1
			c-76.8,13.5-145.2,45.7-197.8,105.9c-59.9,68.6-68.3,159.7-20.8,226.5c45.5,64.2,133.6,72.4,185.2,15.1
			c17.5-19.4,27.8-4.3,38.4,3.3c13.4,9.7-2,16.9-6.8,22.7c-65.9,78.4-193,66.9-253.4-22.3c-49.5-73.1-46.4-168.6,9.2-249.1
			c46.3-67.1,111.9-109.3,188.9-129.3c166.8-43.2,336-45.1,503.8-7.6c97.5,21.8,165.9,85.3,208,176.1
			c43.1,92.9,45.8,189.6,26.2,288.2C1937.3,2137.2,1920.5,2183.7,1903.1,2234.3z M2352.2,2169.4c1-4.5,2.2-8.4,2.6-12.3
			c9.5-101.2,16.2-202.6,2.4-303.7c-15.9-116.7-54.9-223.6-143.9-306.4c-7.3-6.8-8.2-11.5-2-20.1c11.5-15.8,19.7-21.2,36.8-4
			c102.3,103.1,142.4,231.4,154.1,371.7c7.4,88.5,0.4,176.8-6.4,265c-1.1,14.5,1.6,21.6,17.1,21.3c22.7-0.3,45.5-0.1,68.2,0.3
			c12,0.2,17.2-4.6,18.4-16.9c12.2-127,22.6-254.1,0-381c-22.6-126.6-70.3-241.2-166.1-331.1c-8.8-8.3-10.2-12.7-2.7-23.5
			c13-18.8,21.8-15.9,36.4-1.3c116,115.2,165.5,259,181.4,417.4c10.4,103.2,2.9,205.9-7.9,308.5c-1.7,15.8,0.5,20.3,17.4,15.6
			c37.6-10.6,73.8-24.2,108.3-42.7c10.5-5.6,15.4-12.2,14-24.9c-10-92.4-3.3-184.9-1.1-277.4c2.2-94.2,3.8-188.5-18.6-281
			c-25.4-105-72.8-196.3-168-254.9c-17.8-10.9-10.1-18.6-4.9-30.5c7.2-16.5,16.1-11.3,26.7-4.7c44,27.5,80.5,62.7,110,105.4
			c65.1,94.1,88.9,200.8,94.2,312.6c4.2,90.1,1,180.2-2.4,270.3c-1.8,48.3-2.1,96.5,4.7,147.2c28.4-21,51.3-43.8,70.2-69.9
			c131.1-180.6,144.9-375.7,65.5-579.3c-54-138.4-155.4-226.5-300.5-263.6c-56.9-14.5-114.5-23.7-172.8-26.8
			c-126.4-6.6-253-11.3-379.4-17.6c-14.1-0.7-22.5,4.2-30.8,14.5c-62,77.5-108.2,163.3-138.1,258.1c-5.3,16.8-3.2,22.8,15.1,28.1
			c129.9,37.3,229.7,115,298.9,230.8c81.1,135.6,110.8,282.6,91.9,439.4c-1.2,10.2-3.3,18.4,7.9,24.8
			C2281.3,2145.2,2314.2,2162.2,2352.2,2169.4z M691.2,2254.3c-1.2-11.4-7.8-16.7-12.1-23.2c-36-53.4-65-110.2-85.2-171.5
			c-62.7-190.4-6.4-381.6,150-507c70.4-56.5,150.1-95.8,234.2-126.8c15-5.5,21.3-12.2,21.4-29.3c0.4-78.7,1.8-157.4,4.4-236.1
			c0.7-20.4-5.4-25.9-25.5-26.3c-163.8-2.8-318.4,32.5-465,105.5c-114.8,57.1-217.2,129.1-295.9,232.2
			c-139.3,182.3-145.5,433.7-14.1,612.5c25.4,34.6,54.5,65.6,91.7,89.3c1.3-3.6,2.2-5.1,2.2-6.5c0-4-0.1-8.1-0.5-12.1
			c-14.4-134-2-265.4,38-394.3c4.3-13.8,6.8-22.7,25.7-16.5c17.8,5.9,19.2,12.5,13.9,28.9c-43.8,135.9-52.9,274.8-32.9,415.9
			c1.4,10.1,5.3,16.3,14.4,20.2c49.5,21.6,101.3,34.1,154.8,39.9c12.9,1.4,17-1.4,13.8-15.7c-38.3-174.6-43.7-350.4-18-527.2
			c1.2-8.2-5.7-24.1,14.4-19.5c13.2,3,29.4-1,25.8,23.4c-6.8,44.9-10.8,90.1-13.3,135.6c-7.4,131.3,4.6,260.9,32.5,389.2
			c2.3,10.5,3.9,20,19,19.6C619.6,2253.7,654.5,2254.3,691.2,2254.3z M1032.2,838.3c8.3-0.7,12.3-1,16.2-1.4
			c190.7-22.8,380.8-51.1,571.9-71c146.2-15.3,292.6-26.6,439.8-24.1c80.3,1.3,160.7,4.6,239,26c44.1,12.1,83.1,31.7,111.7,68.9
			c30,39,20.9,79.1-23.2,99.9c-13.3,6.3-27.3,10.3-41.8,12.4c-84.6,12.3-169.9,11.8-255.1,11.9c-162.3,0.3-324.5-10.8-487-3.1
			c-138.4,6.6-252.6,59-341,166.2c-8.6,10.4-19.4,19.7-19.4,35.3c0,67.4-0.1,134.8-0.7,202.2c-0.1,12.2,4,15,15.8,13.7
			c26.6-3,53.3-5.6,80.1-6.1c17.2-0.3,17.1-6.4,14-20.6c-39.7-182.4,86.3-349.8,272.7-366.2c82.9-7.3,165.3-1.9,248,0.6
			c110.8,3.3,221.6,7.1,332.3,10.7c74.2,2.4,148.4,9.1,222.7,3.8c39.7-2.8,70.4-20.8,91.6-55.7c13.2-21.7,22.7-44.8,32.6-67.8
			c21.9-51,18.6-61.1-29.7-90.8c-9.6-5.9-20.2-10.3-30.5-14.9c-23.9-10.5-49-17-74.3-22.6c-17.9-3.9-10-14.9-8.1-24.1
			c1.9-9.2,2.2-19.6,17.6-15.7c58.5,14.8,116.4,30.5,159.4,77.3c4.5,4.9,7.8,10.2,14.7,2.2c17.7-20.6,40.7-33.6,67-43.6
			c-5.1-6.5-8.7-11.9-13.1-16.5c-7.9-8.2-15.9-16.2-24.5-23.7c-66.7-58.4-147.8-85.8-231.4-108.1c-12.6-3.4-19.4,2.8-26.7,11.4
			c-31.4,37.4-66.2,71.4-102.4,104.1c-39.2,35.3-67.3,33.4-101.1-7c-36-43-69.6-87.8-101-134.2c-6.6-9.8-13.5-14-25.6-14
			c-56.1,0.2-111.9,4.4-167.9,7.1c-16.5,0.8-26.2,8-34.9,21.3c-24.1,36.5-49,72.6-74.5,108.2c-27.9,39-59.8,41.9-93.6,8.7
			c-30.1-29.6-59.7-59.7-89.2-89.9c-7.3-7.4-14-11.3-25.3-9.5c-50.4,7.9-100.9,16-151.7,21.2c-19,2-25.8,10.1-30.7,26.6
			c-11,36.4-31.4,67.4-59.5,93.2c-40.3,36.9-81.4,34.5-115.3-8.1c-17.1-21.6-31.9-44.9-47.4-67.7c-4.7-6.9-8.4-13-18.8-11.9
			c-21,2.2-42.1,3.1-63.1,4.3c-8.5,0.5-14.2,2.2-12,12.9C1070.8,727.7,1059.6,782.4,1032.2,838.3z M765,938.6
			c29,0.8,55.4-3,81.4-9.8c100.2-26,165.4-98.1,176.2-193.8c1.9-16.9,0.8-26.4-21.3-25.7c-65.9,2-130.7,10.1-194.2,28.2
			c-6.5,1.8-15,0.9-17.5,10.4c-10.8,39.6-43.1,58.7-76.5,72.8c-64.3,27.2-131,41.9-200.8,19.3c-4.4-1.4-9.6-1.2-14.4-0.8
			c-74.5,6.4-141.6,32-201,77.8c-11.2,8.6-14.6,13.7,0.8,21.1c71.4,34.3,142.6,43.2,212.8-2.3c42.3-27.4,86.8-32.4,134.9-18.6
			C685.2,928.6,725,939.9,765,938.6z M757.3,553.1c-84.2,0.9-161.7,35.5-213.2,120c-20.5,33.7-50.4,53.1-90.9,57.3
			c-42.7,4.5-86.1,2.6-128.1,13.6c-46.2,12.1-93.7,21.9-131.5,53.8c-21.7,18.3-22.8,33.7-4.2,54.2c14.7,16.2,31.8,30.1,47.5,45.3
			c7.3,7.1,12.7,6.4,20.5-0.3c62.1-52.8,133.5-85.3,214.6-95.9c7.3-1,14.3-1.9,14.7-12.3c1.8-41.9,29-64.9,64.5-76.7
			c68.2-22.5,138.5-23.5,208.9-10.9c6.3,1.1,11.9,3.9,18.7,1.8c71.8-22.1,145.3-33.4,220.4-33.8c16.8-0.1,16.3-6.7,10.5-19.6
			c-12.6-27.9-36.2-43.5-61.9-55.9C891.5,566.7,831.5,554.5,757.3,553.1z M2590.1,891.4c-8.8,18.6-16.8,36.2-25.4,53.5
			c-27.9,55.8-72,87.1-135.1,93.6c-48.1,4.9-95.6-1.3-143.4-1.5c-33.6-0.2-67.2,0-101.7,0c4.2,12.3,11.4,23.7,11.4,35
			c-0.1,26.6,14.8,27.3,35.6,28.1c114.2,4.8,228.8,6.3,340,37.8c9.1,2.6,16.6,2.7,23.9-5.6c23.5-26.9,45.6-54.8,66.5-83.7
			c4.8-6.6,7.1-11.6-1.3-18c-32.6-25.1-46.5-61.5-58.1-98.9C2598.6,918.6,2598.5,904.5,2590.1,891.4z M1751,1125.4
			c-71,2.4-134.9,23.3-190.1,68.5c-48.9,40-65.2,98.4-44.8,157.2c4.1,11.9,9.6,18.5,23.4,19.6c33.9,2.8,67.7,6.8,101.4,11.7
			c15.5,2.3,19.4-3.1,20.6-17.6c6.8-80.1,34.6-152.8,79.1-219.4C1744.6,1139.6,1750.8,1134.7,1751,1125.4z M1930.1,1129
			c-34.5-1.5-68.3-2.4-102-4.9c-14.7-1.1-23.7,4.3-32.6,15.5c-52.3,65.8-82.6,140.5-94.3,223.5c-3.2,22.9,2.4,34.6,26.7,36.9
			c14.3,1.4,28.5,6.1,42.4,10.6c14.7,4.7,20.7,1.1,25.3-14.6c25.7-87.1,66-167.2,119.1-240.9
			C1920.1,1147.6,1928.3,1141.5,1930.1,1129z M1043.4,1270.4c-1.4,0-2.8,0-4.2,0c0,38.1-0.1,76.1,0.1,114.2c0,5.9-3.3,13.3,4.7,17.2
			c9.2,4.4,46.1-11.5,48.2-21.2c15.9-74.4,43.8-143.8,86.1-207.2c6.6-9.9,4.3-13.8-7.2-15.6c-36.7-5.7-73.4-11.7-110-18.2
			c-14.5-2.6-18.2,3-18,16.6C1043.8,1194.3,1043.4,1232.4,1043.4,1270.4z M2108.5,554.3c32.5,47.7,64.2,88.6,97.6,128.2
			c6.9,8.2,15.3,13.1,25.2,5.1c38.8-31.7,73.5-67.4,108.8-107.1C2262.6,563.8,2188.1,558.3,2108.5,554.3z M2722.2,878.8
			c-0.9-8.1-1.7-20.3-3.8-32.2c-1.7-9.5-4.5-18.9-7.5-28.1c-14-42.9-29.2-47.4-65.1-19.7c-4.5,3.5-8.4,7.6-12.5,11.5
			c-11.8,11.5-16.9,22.8-9.7,40.6c8.7,21.5,12.3,45.1,18.2,67.7c6.8,26.1,16.4,50.8,34.5,71.5c7.9,9,13.8,12.8,20.6-1.9
			C2712.4,954.6,2721.5,919.8,2722.2,878.8z M750.8,739.7c-65.3-9.3-126.6-7.8-186.8,11.1c-9.6,3-18.5,10-26.4,16.7
			c-8.3,7-13.3,16.8-9.6,28.2c3.7,11.6,14.4,12.5,24,12.8c48.2,1.5,95.8-2,140.3-22.3C714.2,776.2,735.4,764.5,750.8,739.7z
			 M1437.6,1366.5c5.6,0,11.4-0.7,16.9,0.1c18,2.5,24.3-1.4,18.3-21.7c-8.5-29-7-58.9-0.6-88.7c6.6-30.7-22-25.3-35.9-28
			c-15.4-2.9-39.8-18.7-47.6,11.5c-7.4,28.6-4.5,57.8,0.2,86.7C1395.6,1366.9,1396.3,1367.5,1437.6,1366.5z M1405.6,1180.9
			c12.3,2,22.5,4.3,32.9,5.1c19.8,1.5,38.8,19.8,54.7,14.8c17.1-5.3,30.3-25.4,43.3-40.7c8.9-10.4,33.8-10,27-28.9
			c-4.8-13.2-22.3-20.3-36.5-26.6c-15.7-7-32-11.2-49.5-10c-5.6,0.4-11.1-0.8-15.8,3.9C1438.1,1122.1,1418.5,1148.4,1405.6,1180.9z
			 M1801,566.9c-61.8,8.3-117.7,15.8-173.7,23.3c-1,2.4-1.9,4.7-2.9,7.1c26.8,25.7,53.7,51.3,80.2,77.2c9.9,9.7,17.6,5.7,24-3.4
			C1751.8,638.2,1774.5,605,1801,566.9z M1999.8,1031.4c4.8,15.3,10.6,31.2,14.7,47.5c2.5,10,8,12.4,17.2,12.7
			c38,1.2,75.9,2.9,113.9,4.3c5.2,0.2,11.3,1.8,12.7-6.9c2.9-18.3-25.2-56.7-44.2-57.2C2076.2,1030.7,2038.3,1031.4,1999.8,1031.4z
			 M1520,1056.5c16.8,8.4,34.8,11.8,43.6,22.7c31.4,38.5,66.7,34.6,105.5,16.1c3.5-1.7,8-1.5,11.9-2.6c4.2-1.2,6.5-3.2,5.5-8.7
			c-2.8-15.5-49.2-61.5-63.8-59.8C1587.3,1028.2,1553,1036.8,1520,1056.5z M1323.5,632.9c-40.2,4.6-80.4,9.4-120.6,13.9
			c-13.5,1.5-8.8,8.5-4.3,14.7c12.4,17,24.6,34.2,37.8,50.6c13,16.1,28.6,16.9,44.6,4c23.2-18.7,39.4-42.7,51.2-69.9
			C1336.4,636.6,1336.6,630.4,1323.5,632.9z M1201.6,1214.3c-27.2,41.4-42.8,80.8-55.7,121.3c-16.7,52.2-16.3,52,37.6,45.8
			c12.8-1.5,18.5-5.6,18.3-19.2C1201.3,1315.3,1201.6,1268.5,1201.6,1214.3z M1918.1,1087c0,0.1,0,0.2,0,0.3
			c14.5,0.6,29,1.5,43.6,1.8c4.3,0.1,9.6,2,11.6-4.9c3.4-11.9-21.2-56.2-33.7-57.3c-28.1-2.5-56.4-3.1-84.7-4.6
			c-7.6-0.4-9.4,2-7.6,9.9c11,47.7,15.2,51.6,63.6,54.4C1913.3,1086.7,1915.7,1086.9,1918.1,1087z M1691.5,1020.6
			c14.9,20.7,25.1,43.8,41.1,58.6c16.7,15.5,44.7,1.3,67.5,4.5c4.8,0.7,9.7,0.2,14.5,0.3c3.4,0,5.9-0.9,6.8-4.9
			c3.3-14-25.5-57.8-39.7-58.2C1752.9,1020,1723.9,1020.6,1691.5,1020.6z"/>
		<path class="st0" d="M1432.3,720.1c5.2,20.6-8.4,18.2-22.1,19.4c-17.8,1.5-18.8-7.4-19.4-21.3c-0.8-17.4,6.1-21.4,22.5-21.8
			C1432.3,695.8,1435.1,704.6,1432.3,720.1z"/>
		<path class="st0" d="M1975.8,697.7c-2.7-20.8,11-15.5,20.5-17.3c19.4-3.6,20.1,7.9,21.6,22.6c1.9,18.9-7.4,20.5-22.6,21.9
			C1967.8,727.3,1982,705,1975.8,697.7z"/>
	</g>
</g>
</svg>
