<?xml version="1.0" encoding="utf-8"?>
<!-- Generator: Adobe Illustrator 23.0.0, SVG Export Plug-In . SVG Version: 6.00 Build 0)  -->
<svg version="1.0" xmlns="http://www.w3.org/2000/svg" xmlns:xlink="http://www.w3.org/1999/xlink" x="0px" y="0px"
	 viewBox="0 0 3000 3000" style="enable-background:new 0 0 3000 3000;" xml:space="preserve">
<style type="text/css">
	.st0{stroke:#000000;stroke-width:10;stroke-miterlimit:10;}
</style>
<g id="Layer_1">
</g>
<g id="Layer_2">
	<g>
		<path class="st0" d="M2117.5,360.3c23.7-48.4,51.3-91.8,90.5-127.4c91.6-83.2,198-105,314.8-72.3
			c184.1,51.5,285.5,182.4,335.6,360c26.8,94.8,35.7,191.9,35.5,289.8c-0.2,95.5-0.3,191.4-18.9,285.7
			c-31.2,158.9-120.9,267.4-277.3,316.7c-12.6,4-12.1,8.8-9.6,18.8c19.6,76.3,65.2,113.4,143.7,116.1c26.3,0.9,52.5-0.8,78.8,3.3
			c36.9,5.9,57.8,35,49.9,71.8c-12,56.4-50.7,94.1-92.1,129.4c-11,9.4-23.2,17.6-35.4,25.5c-8.6,5.5-7.3,8.9-0.3,14.9
			c139.2,120.1,184.3,279,181.4,454.7c-2.7,164.5-60.2,308.3-185.3,418.7c-146.8,129.5-319.8,189.2-515.7,178
			c-46.4-2.6-91.4-14.3-130.7-41.8c-17.3-12.2-30.9-27.4-40.7-47.7c-28.5,36.9-59.5,69.5-97.4,94.5
			c-142.3,93.6-287.8,93.8-435.3,12.8c-12.2-6.7-20.9-7.9-33.4-0.4c-94.9,56.3-198.1,83.7-308.1,87.9
			c-126.7,4.8-253.5,5.5-380.3,3.9c-153.1-1.9-286.4-53.3-402.9-152.4c-151.6-128.9-187.8-348.7-85.1-518.1
			c29.6-48.9,65.5-90.7,112.2-123.1c13.4-9.3,9.4-13.4-0.4-21.8c-133.6-113.8-223.7-255.3-269.4-424.8
			c-17.7-65.8-27.1-133-27.2-201.2c-0.4-209.9-1.4-419.9,0.1-629.8c3-406,306.4-754,708.1-814c46.6-7,93.6-9.6,140.8-9.5
			c165.6,0.4,331.2,0.1,496.8,0.2c257.9,0.1,472.5,96.9,644.1,289.2c2.8,3.1,5.4,6.3,8.3,9.3C2113.6,358.3,2115,358.8,2117.5,360.3z
			 M2255.8,1198.2c0-101.9-0.2-203.7,0.1-305.6c0.1-45.2-4.1-89.9-11.7-134.3c-63.7-369.3-386.9-645.6-760.7-648.6
			c-179.4-1.4-358.9-0.6-538.4-0.3c-46.5,0.1-92.8,4.5-138.4,13.2c-374,70.9-640.9,392.3-641.9,773.1c-0.5,196.1,0,392.2-0.1,588.3
			c0,61.8,4.8,123.2,18.4,183.6c81.7,363.2,396.6,615.3,769,615.8c169.1,0.2,338.1-0.4,507.2,0.2c146.6,0.5,284.9-32.1,410-109.2
			c246-151.7,376.1-373,385.9-662.3C2258.7,1407.5,2255.8,1302.8,2255.8,1198.2z M2864,2229.3c1-58.7-7.1-116.1-23.7-172.2
			c-28.3-95.8-74.2-180.1-158.5-239.1c-12.4-8.7-24.1-11.1-38.7-7.6c-41.2,10-83.3,13-125.4,15.9c-85.2,5.8-170.3,2.6-255.2-4.8
			c-13.6-1.2-21,1.9-26.8,15.3c-36.2,84-86.2,159.3-147.8,226.8c-14.3,15.7-24,33.8-29.5,54.2c-7.8,29.1-10.9,59.1,12.8,81.9
			c25.1,24.2,57.9,27.3,91,22.2c34.5-5.3,64.8-23.8,98.4-32.4c53.7-13.7,103.5-6.8,145.8,30.4c36.8,32.4,49.5,74.8,38.9,122.4
			c-10.2,45.6-42.9,69.3-86.6,79.4c-21.7,5-43.7,6.4-66,6.3c-74.8-0.4-137.9-31.2-196.6-74.3c-11.4-8.4-24.9-24.9-36.9-18.1
			c-12.4,7-8.7,27.8-8.8,42.8c-0.3,50.6,5.1,100.9,10.2,151.2c6.4,61.9,11.3,123.9,23,185.3c5.1,26.6,19.7,43.3,42.6,54.7
			c30.2,15.1,62.6,23.2,95.9,24.6c187.7,7.6,352.1-51.5,488.4-180.6C2819.7,2510,2862.4,2377.1,2864,2229.3z M1798.4,2858.4
			c22.1-2.2,40.1-11.3,58.9-17.9c14.5-5,19.6-13.3,19.5-29.2c-0.8-84.5-0.6-169.1-0.3-253.6c0.1-34.4-5.8-29.9,30.6-31.5
			c16.5-0.7,20.7,4.6,20.6,20.8c-0.9,76.2-0.5,152.4-0.2,228.6c0,6.3-3,13.5,3.5,19.8c37.9-28.6,66.7-64.5,91.5-104
			c3.5-5.6,4.1-11.4,3.3-17.9c-6.1-52.9-13.2-105.7-17.7-158.8c-5.3-62.6-13.9-125.1-4.2-188.5c4.9-32.4-10.3-59.9-38.8-77.2
			c-29.5-17.9-61.4-32.4-95.6-15c-50.7,25.8-102.4,48.8-157,64.8c-11.7,3.4-15.1,9.1-15.9,20.2c-1.4,18.6-3.6,37.2-6.2,55.7
			c-27.2,190-170.2,325.9-361.1,345.4c-148.2,15.1-296.3,10.1-443.8-5.5c-138.8-14.6-235.1-90.1-288.2-219.5
			c-31.1-75.9-38.7-155.4-33.9-236.5c0.8-13.4-2.5-21-15.1-27.6c-23.3-12.1-45.6-26.2-67.4-41c-9.8-6.7-16.3-6-25.6,0.3
			c-55.1,37-99,83.4-126.3,144.7c-55.1,123.8-54.8,246,26.9,356.4c93.3,126,223.4,194.8,380.2,206.5c145.2,10.8,290.8,5.7,436.2-0.2
			c58.2-2.3,115.6-11.5,171-31.1c119.4-42.2,216.9-115.1,297.2-212c9.5-11.5,17.1-17,28.7-3.6c2.7,3.1,6.2,5.7,9.8,7.6
			c14.2,7.6,13.4,15.2,3.2,26.9c-35.5,40.9-72.5,80.1-115.3,113.5c-8.6,6.7-17,13.5-27.1,21.6c59.4,32.3,119.9,48.4,184.9,48.8
			c17.4,0.1,24-3.9,23.7-23c-1.2-78.3-0.5-156.6-0.5-234.9c0-34,0-33.2,34.2-33.7c14.3-0.2,16.9,5,16.8,17.8
			c-0.6,67.2-0.3,134.4-0.3,201.6C1798.4,2817.7,1798.4,2837.6,1798.4,2858.4z M2186,458.3c19.5-31.5,41.2-58.1,67.3-81.1
			c85.8-75.5,200-87,287.3-27c75.8,52.1,126.9,123.7,151.3,212c25.8,93.4,17.4,188.1,0.9,282.1c-18.4,105-71,189.7-155.7,254
			c-64,48.6-137.2,77-216,90.7c-12,2.1-14.5,6.4-14.4,17c0.3,47.8,0.5,95.6-0.1,143.4c-0.2,13.5,5.7,17,17.9,19.6
			c47,9.7,94.3,13.1,142.1,12.2c174.2-3.4,322.9-96.5,359-298.1c14.2-79.4,15.8-159.7,17-240c1.7-105.7-5.3-210.4-34.8-312.5
			c-28.4-98.3-72.6-187.5-156.7-250.8c-71.5-53.8-151.5-87.7-242.4-81.2c-128,9.1-204.4,87.1-251.7,199.7
			c-2.3,5.5-4.8,11.2-0.2,17.5C2166.6,429.1,2175.5,442.9,2186,458.3z M2655.4,700.6c6.7-114.5-30.8-209.9-114.5-285.9
			c-67.8-61.6-150.2-68.9-223.4-21.8c-27.6,17.7-50.4,40.5-71.1,66.1c-26,32.1-36.1,63.3-9.5,100.2c6.1,8.5,10.4,12.6,20.8,11.9
			c24.4-1.7,48.4,1.9,72,7.5c134.1,31.8,217.7,165.7,178.9,290.7c-28.4,91.4-92.8,147-185.1,170.2c-12.3,3.1-17.6,7.2-17,20.3
			c1,22.1,0.5,44.3,0.2,66.5c-0.2,10.5,1.7,14.8,14.3,11.7c30.3-7.3,60.3-15.4,89.2-27.1c121-49.1,201-134.5,230.3-263.6
			C2651.7,798.6,2655.3,748.9,2655.4,700.6z M2416.3,1778.2c70.9-1.3,137.9-3.7,204.5-14.4c83.5-13.5,142.6-60,183.8-131.3
			c14.8-25.7,11.7-30-17.2-32.7c-8.2-0.8-16.5-0.4-24.7-0.5c-42.3-0.6-84.6-0.6-123.6-20.8c-54.3-28.1-84.4-74.5-99-131.9
			c-4.1-16-9.2-20.1-26.3-17.8c-61.5,8-123.3,5.5-183.8-7.8c-20.2-4.4-23.8,0-23.3,18.6c3.4,107.9-5.4,214.5-39.9,317.7
			c-3.8,11.5-1.2,14.1,10.2,15C2324.6,1775.6,2372.3,1777.5,2416.3,1778.2z M612.8,2265.4c0,17.6-0.1,32.7,0,47.8
			c0.2,29.2,3.6,58.1,9.2,86.7c25.2,128.9,102.5,244.6,260.6,262.8c148.1,17.1,297,23.8,445.6,6c63.8-7.6,124.3-28,176.7-67
			c81.6-60.7,121.1-145.5,136-243.5c6.4-41.7,5.8-41.7-33.4-34.8c-35.3,6.3-35.3,6.3-42.9,42.3c-27.9,132.8-118.4,227.9-247.1,249.3
			c-122.2,20.4-245.7,19.2-368.3,0.7c-69.4-10.5-127.8-43.9-172.9-98.7c-47-57-70.9-122.8-76-196.1c-0.6-9,3.9-21.2-7.7-26
			C667.2,2284.7,641.2,2275.8,612.8,2265.4z M1335.7,2333.5c0,0.2,0,0.4,0,0.5c-55.4,0-110.8,0.2-166.2-0.2
			c-10.1-0.1-16.4,1.6-19.8,12.8c-21.7,71.4-43.8,142.6-66.4,213.6c-4.2,13.3-0.3,16.4,12.6,16.2c62.3-0.6,124.7,0.8,186.7-6.3
			c121.9-13.9,212.6-99.7,233.1-219.5c2.2-12.7,1.8-17.9-13.8-17.6C1446.5,2334.1,1391.1,2333.5,1335.7,2333.5z M2467.7,806.6
			c-0.5-101.4-94.2-182.7-193.6-184.8c-14.4-0.3-9.1,7.8-6.8,15c17.4,55.6,29.2,112.4,35.2,170.4c5.8,55.3,3.5,110.7,4.5,166.1
			c0.1,8-4,18.9,12.9,15.4C2398.8,972.2,2467.5,888.2,2467.7,806.6z M1950.4,2184.8c30.9,12.3,59.9,25.5,75.3,52.3
			c16.7,29,34.8,51.7,70.3,55.6c6.2,0.7,11.9,6.8,17.6,10.6c17.2,11.6,34.1,23.7,51.6,34.8c58.5,36.9,121.8,47.7,189,31.7
			c30.8-7.3,43.3-25.6,43-57.3c-0.6-51-52.4-88-108.2-77.4c-22.6,4.3-43.7,12.9-64.9,21.5c-43.5,17.6-87.9,23.7-134,10.6
			c-44.5-12.6-73.3-40.2-84.1-85.5c-2.6-10.9-3.8-22.1-5.9-34.8C1983,2160,1967.8,2171.6,1950.4,2184.8z M895.4,2546.3
			c17.2-68.3,33.8-135.3,50.9-202.1c3.7-14.6-6.9-10.1-13-10.2c-56.3-0.8-112-7.1-166.8-20c-17-4-16.9,3.5-15.3,15.7
			c5.2,38,15.4,74.7,33.1,108.7C809,2485.8,844.9,2522.1,895.4,2546.3z M1100.3,2334c-30.8,0-59.1,0.2-87.4-0.1
			c-8.5-0.1-11.8,3.3-13.9,11.4c-17.2,68.3-34.8,136.5-52.4,204.7c-2.8,10.7,0.9,15.1,11.9,16.1c17.2,1.4,34.5,3.3,51.5,6.3
			c12.1,2.2,17.1-1.5,20.6-13.3c12.7-43.7,26.6-87.1,40.1-130.7C1080.3,2397.6,1090,2366.8,1100.3,2334z"/>
		<path class="st0" d="M1824.4,1222.3c0.4,333-266.7,599.2-601.4,599.7c-328.1,0.4-596.6-268.7-597.1-598.4
			c-0.5-328.6,268.2-600,593.7-599.6C1557.1,624.4,1824,888.4,1824.4,1222.3z M676.7,1223.6c0.7,302.4,247.9,548.7,549.9,547.9
			c304.4-0.8,547.4-247.2,546.9-554.4c-0.5-297.5-248.3-542.8-548.2-542.7C923.1,674.5,676,921.9,676.7,1223.6z"/>
		<path class="st0" d="M2335.2,2605.9c-68.3-0.7-125.3-15.2-180-41.2c-14.9-7.1-14.8-13.6-7.5-26.1c15.5-26.4,14.9-26.6,43.4-14.1
			c76.4,33.7,155.1,41.9,234.7,14.5c109.4-37.6,162.6-120.7,179.2-231c6.9-45.9,2.8-91.2-12.2-135.2
			c-31.7-92.5-108.4-137.5-204.9-120.6c-46.3,8.1-89.7,24.2-128.1,51c-16.6,11.6-25,8.5-33.3-7.5c-2.5-4.9-6.1-9.3-9.6-13.5
			c-4.3-5.2-4.8-9.2,1.6-13.4c87.9-57.4,181-90.3,286.6-56.8c53.4,17,91.5,53.4,117.7,102.3c77.2,144.1,28.2,345.1-106.7,437.2
			C2459.4,2590.1,2395.4,2605.3,2335.2,2605.9z"/>
		<path class="st0" d="M957.4,1218.9c-2.4-166,134.6-303.9,304.6-306.5c168.9-2.6,310.1,136.7,311.5,307.5
			c1.5,168.4-136.9,308.8-307.3,309.2C1075.3,1529.5,950.5,1368.7,957.4,1218.9z M1521,1221.5c0.2-143.4-113.5-257.6-256.4-257.6
			c-142.8,0-256.9,114.5-256.8,257.5c0.2,142.1,113.5,255.8,255.6,256.5C1406.3,1478.6,1520.9,1364.5,1521,1221.5z"/>
	</g>
</g>
</svg>
