<?xml version="1.0" encoding="utf-8"?>
<!-- Generator: Adobe Illustrator 23.0.0, SVG Export Plug-In . SVG Version: 6.00 Build 0)  -->
<svg version="1.0" xmlns="http://www.w3.org/2000/svg" xmlns:xlink="http://www.w3.org/1999/xlink" x="0px" y="0px"
	 viewBox="0 0 3000 3000" style="enable-background:new 0 0 3000 3000;" xml:space="preserve">
<style type="text/css">
	.st0{stroke:#000000;stroke-width:10;stroke-miterlimit:10;}
</style>
<g id="Layer_1">
</g>
<g id="Layer_2">
	<g>
		<path class="st0" d="M2661.7,1202.4c110.1,98.5,184.4,217.7,221,359.9c15.5,60.5,21.5,122,21.3,184.3
			c-0.4,182.2,3.5,364.5-2.4,546.4c-10.1,312.8-248,588.8-554.8,652.2c-52,10.8-104.6,16-157.7,16c-466.7,0.2-933.4,0.6-1400.2,0
			c-341.1-0.4-625.5-229.4-698-560.7c-10.3-47-15.2-94.7-15.2-142.9c0.1-177.2-1.1-354.5,0.4-531.7
			c1.4-167.1,57.8-314.9,164.3-443.4c10.2-12.4,10.3-18.9-0.4-30.9c-80.2-90.1-138.3-192.4-163.8-311.1
			c-37.4-174.2,1.9-333.3,99.7-479.3c80.2-119.9,185.5-213.9,307.9-289c81-49.7,170.9-72.4,264.4-82.4
			c147.7-15.8,296-14.2,444.2-16.9c298.9-5.4,597.9-10.2,896.8-14.9c141.2-2.2,282.5-1.7,422.6,19.2c77.3,11.6,152,31.5,216.8,78.3
			c60.4,43.6,98.8,103.4,116.2,174.3c33.6,137.2,60.2,276,57.2,418.1c-3.9,184.4-77.2,334.3-228.3,443.5c-2.9,2.1-5.7,4.1-8.5,6.3
			C2664.1,1198.7,2663.4,1200.1,2661.7,1202.4z M1620.5,119.5c-25.4,0-50.8-0.5-76.2,0.1c-247,6.1-494.2,1.4-741,17.2
			c-75.5,4.8-150.8,14.3-220.9,44.7c-146.2,63.5-260.4,166.7-353.1,294.5c-69.5,95.9-112,202.3-114.9,321.9
			c-4,163.3,60.2,300.3,165.2,421.1c7.4,8.5,11.6,8.5,19.6,0.9c35.4-33.7,72.5-66.6,116.5-87.2c36.7-17.2,43.8-42.9,46.3-79
			c10.3-149.8,48.5-292.2,126.9-421.4C680,482.4,806.3,378,979.9,336.6c102.2-24.4,206.4-31.3,310.8-34.6
			c117.8-3.7,235.7-6.8,353.6-8.2c151.7-1.7,303.7-5.6,454.6,16.5c85.9,12.6,168.7,35.9,239.5,89.1
			c112.6,84.6,159.4,203,169.5,338.9c8.2,110.5-9.5,218.1-39.5,324c-3.8,13.5-2.6,19.8,11.2,25.5c44.4,18.5,86.2,42.2,125.1,70.5
			c9.7,7,15.9,7.1,25.8,0.4c49.6-33.7,92.6-74.1,127.8-122.5c78.7-108.3,99.7-231.6,90.9-361.7c-6.4-94.4-24.9-187.2-41.1-280.3
			c-24.7-141.5-107-225-247.2-254.9c-88.9-18.9-178.7-25.9-269.1-28C2068,106.1,1844.3,114.7,1620.5,119.5z M2039.6,1450.7
			c-13.3-3.3-25.2,1.3-36.6,9.6c-11.9,8.7-24.7,16.4-37.1,24.4c-498.5,323.4-997,647-1495.9,969.8c-18,11.7-23.2,23.9-23.2,44.2
			c-0.1,106.8,9.7,212.8,22.8,318.7c1.4,10.9,6.5,16,15.3,20.3c37.4,18.5,76.4,32.4,115.6,46.4c43.8,15.6,77.8,10,118.2-17.5
			c477.5-324.6,956.7-646.8,1435.4-969.6c110.5-74.5,220.7-149.4,331.7-223.1c16.8-11.1,16.4-18.6,5.1-33.2
			c-42.7-55.2-94.7-98.3-158.5-127.2C2239.7,1471.5,2140.9,1457.3,2039.6,1450.7z M246,2629.6c0-31.1,0.5-59.9-0.1-88.6
			c-2.7-134.2-0.4-268.2,11.3-402.1c9.4-107.5,14.1-215.3,30.2-322.3c22-145.7,83-268.7,201.5-359.6c77.1-59.1,164.3-98.5,257-125.9
			c169.4-50.2,343.7-63.8,519.1-67.3c197.1-4,393.9,4,590.7,13.5c146.7,7.1,292.8,20.8,436.2,54.4c111.3,26,218.3,63.2,310.2,134.2
			c76.7,59.2,132,133,150,230.5c10.3,55.7,13.8,112.2,13.4,168.7c-1.9,243.6-12.5,486.8-31.7,729.6c-0.8,9.7-0.1,19.5-0.1,34.7
			c74.1-110.1,115.7-225.1,117-351.9c1.9-180.7,0.2-361.5,0.7-542.3c0.1-44.7-4.4-88.7-12.9-132.5
			c-57.4-295.2-331.1-521.2-631.3-521.2c-475.9,0-951.9,0.1-1427.8-0.1c-103.6-0.1-202.3,21.8-293.1,71
			c-230.7,124.9-351.9,320-358.4,582.2c-4.1,168.7-0.7,337.5-0.9,506.3c0,46.7,3.7,93.1,12.5,139
			C157,2470.2,192.8,2552.9,246,2629.6z M414.3,2794.8c-0.5-7.9-0.5-12.7-1.1-17.5c-15.7-117.1-20.4-234.6-16.9-352.7
			c4.4-149.1,23.4-296.7,44.8-443.9c14.6-100.7,45.3-196.2,107.6-279.4c77.1-103.1,180.1-169.1,298.9-213.3
			c154.7-57.5,316.7-74.8,479.6-84.2c170.6-9.9,341.5-10.2,512.4-11.1c109.4-0.5,218.9,2,327.3,19.3
			c97.7,15.6,191.3,43.7,271.8,104.3c127.5,96,181,230,196.4,383.6c8.7,87.4,5.7,174.9,4.5,262.4c-2.8,201.5-39.1,396.8-108.2,586
			c-10,27.5-20.8,54.7-31.7,83.4c4.3-0.8,6.5-0.6,8.2-1.5c58.1-31.6,110.4-70.8,156.8-117.9c6.5-6.6,8.1-13.8,9-22.7
			c15.1-158.8,24.3-318.1,30.7-477.5c5.6-138.9,11.6-277.8,7.4-417c-3.4-113.4-40.8-209.3-131.4-281.3
			c-37.3-29.6-78.1-53-121.3-72.5c-145-65.3-300-86.3-456.2-101.6c-116.7-11.4-233.9-14-350.9-18.6
			c-213.8-8.4-427.7-14.1-640.9,10.4c-122.2,14.1-242.3,38.4-355.9,88.1c-106.6,46.7-197.1,112.6-255.7,216
			c-43.8,77.2-58.5,162.7-68.8,249.1c-12.9,108.6-18.6,217.9-26.6,327c-11.7,158.7-9.2,317.4,1.6,476.1c0.4,6.2,0.8,14,4.6,18.1
			C340.6,2739.2,373.9,2769.2,414.3,2794.8z M755.2,2904c4,6,8.7,4.4,12.5,4.4c103.8,0.2,207.5,0.2,311.3,0.5c10,0,17.3-4.5,24.8-10
			c45.4-33.4,91-66.6,136.6-99.9c309.7-226.2,619.3-452.5,929-678.7c128.7-94,257.3-188,386.3-281.6c11.7-8.5,16.1-16.3,12-31.2
			c-7.8-27.9-17.2-55.1-27.3-82.2c-6.8-18.3-13.7-17.5-28.2-7.7c-156.3,106.1-312.9,211.8-469.5,317.4
			c-410.8,277.1-821.7,554.1-1232.5,831.1C791.8,2878.7,773.6,2891.4,755.2,2904z M2556,2468.3c1.2-4.2-4.7-8.6-9.9-13.4
			c-105.2-96.3-210.7-192.2-315-289.3c-14.1-13.1-21.8-10.3-34.9-0.7c-125,91.9-250.4,183.3-375.7,274.8
			c-27.6,20.2-27.5,19.8-1,41.2c152.6,123.1,305.3,246.2,457.6,369.7c58.8,47.7,58.2,47.9,130.4,23.8c13.1-4.4,21.4-10.9,27-23.8
			c32.9-75.7,62.1-152.8,85.2-232.1C2533.6,2570.5,2545.1,2521.8,2556,2468.3z M1523.2,1709.7c-112.4-80.5-221.9-158.9-331.2-237.4
			c-5.6-4-11.3-4.4-17.9-3.6c-80.5,10.3-160.7,22.4-238.8,45.2c-99,28.9-192.5,69-271.6,137.5c-10.3,8.9-14.8,14-0.6,24.7
			c135.9,102.1,271.3,204.7,406.4,307.8c12,9.1,19.6,8.2,31.2,0.5c57-37.8,114.6-74.7,171.9-111.9
			C1355.3,1818.7,1438.1,1765,1523.2,1709.7z M510.7,1082.3c33.3-12.7,62.8-24.7,93.9-30.6c18.6-3.5,24.1-13,26.7-30.6
			c13.7-92.7,40-181.8,84.5-264.6c71.6-133.4,171.3-235.9,319.2-283.2c81.9-26.2,166.8-34.8,252.2-40.2
			c132.5-8.5,265.1-11.5,397.8-15c129.8-3.4,259.8-6.6,388.7,15c166.6,28,265.8,120.2,301.4,281.7c21.3,96.9,12.6,193.7-7.9,289.8
			c-9.2,43-9.2,42.6,33.3,54c10.4,2.8,15.4,1.4,18.3-9.5c33-120.8,52.5-243,29.6-368c-25.2-137.4-97.4-238.4-232-288.5
			c-33.1-12.3-67.2-21.3-102.1-27.1c-113.9-19-228.9-22.3-344-20.8c-184.2,2.4-368.5,2.4-552.5,12.6
			c-76.9,4.3-153.2,12.7-228.3,30.4c-127.6,30.1-229.1,100.3-308.6,202.7C569.4,733.5,524.8,900.4,510.7,1082.3z M2318.9,711.4
			c-0.9-6.1-1-9.5-1.9-12.8c-28.3-103.8-93.8-171.2-197.2-201.4c-84.9-24.8-172.5-26.2-259.9-29.5c-10.6-0.4-13.2,4.1-13,13.8
			c0.3,12.7-0.7,25.4-1.1,38c-5.6,163.6-11,327.1-17.1,490.6c-0.6,15.6,5,18.6,19.1,18.8c148.8,2.5,297.7-7,446.4,6.2
			c10.2,0.9,13.5-3.1,15.2-12.4c3.3-18,7.6-35.8,11.7-53.7c2.6-11.4,0.3-16.5-13.3-15.8c-24.6,1.3-49.4,1.7-74,0.4
			c-47.4-2.5-94.5-8.6-136.9-31.7c-37.7-20.6-61.2-51.2-59.2-97.1c2.5-57.5,36.3-99.6,95.5-117.8
			C2194.6,688.5,2255.7,693.3,2318.9,711.4z M1251.4,755c2.9-83.9,5.5-167.8,9.2-251.7c0.7-15.1-5.9-16.2-17.3-15.1
			c-48.5,4.3-96.6,11.3-144.3,21.2C980.8,534,889.1,599,816.7,693.6c-3.2,4.1-9.5,8-7.1,14.2c2.9,7.4,9.8,2.4,14.9,2.8
			c36.5,2.4,73.9,2.3,105.6,23.8c45.4,30.7,59.9,76.2,51,127.8c-9.7,56.3-47,89.9-101,105c-47.5,13.2-95.2,7.8-142.6-1.1
			c-42.3-7.9-42.2-8.5-50.4,33.2c-7.1,36.2-7.1,36.1,28.7,32.4c7.7-0.8,15.5-1.3,23.2-1.3c159.5-0.6,318.9-1.5,478.4-1.1
			c19.8,0,24.6-6.2,25.1-24.6C1244.9,921.4,1248.3,838.2,1251.4,755z M2257.8,2908.8c-3.2-11.5-8.7-13.9-12.9-17.3
			c-40.6-32.9-81.2-65.7-121.7-98.5c-120.1-97.1-240.4-194.1-360.2-291.6c-10.2-8.3-17-7.6-27.1-0.2
			c-52.1,38.7-104.3,77.1-157.2,114.8c-13.6,9.6-14.9,14.9-1.7,26.9c93,84.4,185.4,169.5,277.6,254.9c9.9,9.1,20.1,11.2,32.6,11.2
			c102.4-0.3,204.8-0.2,307.1-0.2C2214.5,2908.8,2234.8,2908.8,2257.8,2908.8z M1036.2,2025.7c-2.4-2.9-3.5-4.7-5.1-5.9
			c-135.3-102.6-270.7-205.1-405.8-308c-9.4-7.2-14.5-6.3-21.9,2.9c-46.6,58.3-77.4,124-95.3,196.2c-2.7,11,0.8,16.4,10,22
			c109.1,67.2,218.1,134.8,327,202.3c6.1,3.8,11.2,7.5,19.1,2.3C921.2,2100.1,978.5,2063.1,1036.2,2025.7z M2568.3,2404.7
			c22.6-175.6,27.7-345.7,13.2-517.7c-5.3,1.8-6.8,2-7.8,2.7c-101.3,73.9-202.4,148-303.9,221.5c-11.3,8.2-8.4,12.5,0,20.1
			c57.4,52.1,114.5,104.6,171.7,157C2482.4,2325.7,2523.2,2363.3,2568.3,2404.7z M1923.7,1450c-218.4-4.7-435.8-5.1-654.7,9.8
			c2.8,4.1,3.3,5.6,4.3,6.4c96.1,69,192.3,137.9,288.2,207.2c7.2,5.2,12.2,4.1,18.7-0.3c18.1-12.1,36.5-23.9,54.8-35.8
			C1731.2,1574.8,1827.4,1512.4,1923.7,1450z M1785.2,2908c-2.1-4.1-2.4-5.6-3.3-6.4c-84.6-77.8-169.4-155.3-253.6-233.5
			c-10.3-9.6-15.6-3-22.9,2.3c-102.4,74.8-204.9,149.4-307.1,224.4c-4.3,3.2-12.3,4.3-11.6,13.2
			C1385.7,2908,1584.4,2908,1785.2,2908z M808.1,2173.6c-103.1-64-203.2-125.9-303.1-188c-11-6.8-12.6-1-13.9,8.5
			c-14.6,109-28.6,218.1-37.7,327.8c-2.2,26.9-3.1,53.9-4.8,84.9C570.1,2328.1,687.5,2251.9,808.1,2173.6z M1785.7,746.8
			C1785.6,746.8,1785.6,746.8,1785.7,746.8c3.1-87.4,6-174.7,9.6-262.1c0.5-12.8-2.7-17.6-16.1-17c-35.9,1.6-71.9,2.5-107.9,2.6
			c-12.3,0-15.2,4.4-15.2,16c0.3,175.6,0.3,351.2,0,526.8c0,11.9,3.4,16.1,15.5,15.8c28.2-0.7,56.5-1.1,84.6,0.2
			c16,0.7,20.2-4.9,20.6-20.2C1779.3,921.5,1782.6,834.1,1785.7,746.8z M1604.2,752.2c0-86.8-0.4-173.7,0.3-260.5
			c0.1-15.7-3.9-21.1-20.2-19.7c-27.4,2.3-55,3.3-82.5,3.1c-12.9-0.1-17.4,3.7-17.5,16.6c-0.3,33.2-1.6,66.3-2.8,99.5
			c-5,139.7-9.8,279.3-15.4,419c-0.6,15.3,4.2,19.3,18.8,18.9c33.2-0.9,66.4-1.1,99.5,0.1c16.2,0.6,20.2-5,20.1-20.6
			C1603.9,923.1,1604.2,837.6,1604.2,752.2z M1423.8,751.4c-0.2,0-0.5,0-0.7,0c0.3-7,0.7-14.1,1-21.1c2.6-78.3,4.8-156.6,8.1-234.9
			c0.6-14.8-4-18-17.6-16.9c-27.4,2.1-55,3.5-82.5,3.9c-13.7,0.2-19.3,3.5-19.5,18.9c-0.3,42.3-2.9,84.6-4.4,126.9
			c-4.6,128.3-9.1,256.7-14.1,385c-0.5,12.5,3.7,15.9,15.5,15.7c29.6-0.6,59.3-0.5,88.9,0c11.1,0.2,16.2-2.5,16.5-15.1
			C1417.6,926.3,1420.8,838.8,1423.8,751.4z M2333.2,834.2C2333.2,834.2,2333.2,834.2,2333.2,834.2c0.1-16.2,0.3-32.4,0-48.6
			c-0.1-8.1-2.2-14.6-11.4-18c-60.6-22.1-121.8-29.5-184-7.2c-29.7,10.7-47,35.9-48.5,67.8c-1.5,30.9,20.1,43.3,43.5,52.8
			c60.5,24.8,123.7,24.8,187.4,19.3c10.6-0.9,12.9-6.9,13-15.3C2333.3,868.1,2333.2,851.2,2333.2,834.2z M817.1,762.4
			c-9.1,0.4-21,1-33,1.4c-10.1,0.3-16.5,4.9-21.3,14.1c-19.2,36.9-34.6,75.3-48.2,114.5c-4,11.5-0.4,14.5,9.8,17.1
			c32.2,8,64.8,13.8,98,13.2c29.8-0.6,59.3-4.3,82.9-25.5c24.3-21.8,31.5-49,23.4-80.4c-7.7-30.2-27.9-45.4-58.3-50
			C853.6,764.3,836.8,764,817.1,762.4z"/>
	</g>
</g>
</svg>
