<?xml version="1.0" encoding="utf-8"?>
<!-- Generator: Adobe Illustrator 23.0.0, SVG Export Plug-In . SVG Version: 6.00 Build 0)  -->
<svg version="1.0" xmlns="http://www.w3.org/2000/svg" xmlns:xlink="http://www.w3.org/1999/xlink" x="0px" y="0px"
	 viewBox="0 0 3000 3000" style="enable-background:new 0 0 3000 3000;" xml:space="preserve">
<style type="text/css">
	.st0{stroke:#000000;stroke-width:10;stroke-miterlimit:10;}
</style>
<g id="Layer_1">
</g>
<g id="Layer_2">
	<g>
		<path class="st0" d="M270.4,1377.6c0.7-172.1,4.6-344.2,12.4-516.1c6.2-137.1,17.7-273.8,48-408.5
			c42.9-191.3,168.5-294.5,352.1-336.7c143.8-33,286.8-18.4,428.8,13.8c50.7,11.5,100.5,26.2,149.7,43c8.6,2.9,15.2,5.1,23.5-3.9
			c83.4-91,189.2-118.4,308.1-105.5c96,10.4,179.7,48.2,248.4,116.9c8,7.9,12.5,9,21.4,0.6c81.4-77.3,180.4-113.4,290.6-124
			c74.5-7.1,149.1-10.3,220.3,15.5c177.1,64.1,284.6,189.1,302.2,378c13.4,143.1,7.1,287.3-24.2,428.5
			c-30.7,138.6-95.5,261.2-187.8,368.9c-10.5,12.2-10.9,18,2.2,28c78.3,59.9,108.7,145.8,127,237.9c30.3,152,34.3,305.9,31.5,460
			c-2.8,155.6-16.8,310.2-43,463.7c-5.3,30.8,2.8,62.4-4.2,93.3c-3.3,14.9-5,30.5-12.2,43.9c-19.1,35.9-26.3,75.6-39.1,113.6
			c-24.4,72.1-64,133.3-129.3,175.8c-50,32.6-106.5,38.1-163.4,40.7c-122.8,5.7-245.3,1.4-367.6-11.2c-22.2-2.3-43-0.1-65,6.9
			c-69.8,22.1-142.1,24.5-214.1,14.9c-36.8-4.9-69.4-2.7-103.8,13.7c-61.2,29.1-126.7,45.2-195.3,42.5
			c-56.9-2.2-107.4-21.1-147.7-62.4c-11.3-11.6-22-13.1-36.9-10.8c-124.2,19.7-248.4,24.9-372.4-1.6
			c-71.1-15.2-137.6-41.8-199.8-79.9c-68.8-42.2-112.2-103.9-141-177.4c-36.6-93.6-55.7-191.5-70.2-290.4
			c-39.4-269.9-45.3-541.8-49.1-813.8C269.8,1483.1,270.4,1430.3,270.4,1377.6z M1244.2,222.6c-2-1.4-3-2.4-4.2-2.8
			c-94.1-32-190.4-54-289.1-65.9c-13.4-1.6-14.6,4.4-14.5,15.1c0.8,55.3-21.1,100.9-60.2,138.9c-47.8,46.5-112.7,45.5-159.1-2.5
			c-26-26.9-39-60-43.7-96.6c-4.9-38.8-5-39.2-42.1-25.4c-126.5,46.8-214,129.3-246.5,264.7c-16.3,68.3-28.9,137-35.4,206.7
			c-15.4,165.2-20.7,330.9-25.7,496.6c-0.6,20.9,6.5,23.7,24.2,21.9c90.3-8.9,180.7-17.2,271.1-25.4c9.9-0.9,16.2-4.7,21.3-13.6
			c68.9-121.5,169.3-209.3,292.8-272.1c33-16.8,32.5-16.5,47.9,16.3c5.4,11.4,3.6,16-8,21.5c-23.2,10.8-46,22.9-67.7,36.4
			c-169.7,105.2-274.3,252.2-286.2,455.9c-8.2,139.2-9.1,278.7-4.8,418.2c2.1,66.6,4.4,133,17.4,198.7
			c18.6,93.9,62.9,167.1,158.8,198.6c51.6,17,105,19.8,158.3,11.7c20.5-3.1,27.8,3.3,28.4,22.1c0.1,3.5-0.1,7.1,0.8,10.4
			c3.4,12.8-1.8,16.5-14.3,18c-35.3,4.4-70.7,5.7-105.9,2.6c-112.7-9.8-199.2-59.8-248.4-165.1c-16.8-36-25.2-74.6-32.6-113.6
			c-5.3-28.3,1.7-27.2-30.2-21.9c-63.5,10.4-127,20.9-190.7,30.2c-15.8,2.3-20.3,8-18.7,24c7.3,73.8,12,147.9,20.4,221.7
			c12.4,109.5,30.7,217.9,61.7,324.2c32,109.6,93.3,191.8,201.1,236.4c17.3,7.2,22.8,5.5,29.2-12c13.9-38.3,25.6-77.7,44.9-113.8
			c21.3-39.9,66-44.9,97-11.9c10.1,10.7,17.6,23.3,23,36.8c17.2,43,26.7,87.7,23.7,134c-1.2,17.4,4.7,21.3,20.1,21.9
			c74.4,3,148.3-1.6,222-11.9c13-1.8,12.3-6.7,7.7-16.3c-10.3-21.3-17.9-43.6-23.7-66.5c-21-84.1-25.5-170-24.3-256.1
			c1.3-93.6,4.3-187.2,10.7-280.6c2.6-38.5,7.8-77,5.2-116.4c-11.5,2-21.7,3.8-31.9,5.5c-118.5,19.8-219.7-29.2-277.5-134.4
			c-33.7-61.3-47.7-128.2-56.5-196.6c-12.7-99-7.3-198.2-2.7-297.2c3-64.3,7.4-128.8,23.5-191.7c36.4-142.5,125.5-231.1,269.3-263.6
			c39.4-8.9,79.5-13.2,119.9-10c19.3,1.5,30.7-0.7,24.5-24.3c-2.4-9.2-1-19.3-1.4-29c-4.6-110.4,1.8-220.6,4.6-330.8
			c2.3-90.3,12.9-179.8,41.2-266.3C1187,322.2,1214.2,271.7,1244.2,222.6z M1757.9,362.7c13.1-41,26.4-80.7,50.7-114.7
			c11.1-15.6,6.2-22.8-5.1-33.7c-65.7-63.2-144.4-96.1-234.7-101.8c-122.5-7.8-218.3,36.3-284.8,142.6
			c-55.6,88.9-88.8,184.9-97.7,288.7c-12.4,144.6-15.1,289.6-11.8,434.6c0.7,29.1,2.1,58.3,9.6,86.7
			c26.1,98.9,86.6,173.6,165.7,235.3c7.8,6.1,13.7,3.5,20.8,0.3c41.3-18.3,84.1-32.7,128.8-39.6c18.1-2.8,25.5-8.3,25-28.1
			c-1.3-55.3,6.7-107.9,51.5-147.9c14.6-13,19.5-32.1,20.8-51c2.6-39.8-1-79-15.6-116.6c-9.2-23.8-25.9-38.7-51.2-43.9
			c-28.8-6-58-5.9-87-3.4c-22.2,1.9-39,13.7-48.7,34.2c-17.7,37.6-27.8,76.7-22.5,118.8c3.9,30.8,3.2,29.8-27.6,38.6
			c-15.6,4.5-18.8-1.1-21.1-14.3c-9.8-55.9-0.4-108.9,22.5-160.2c13.1-29.4,34.5-50.5,64.5-61.3c14.1-5.1,12.3-8.3,5-19.1
			c-63.8-94.9-82.6-198-53.2-309.1c1-3.8,4.5-10.4,5.5-10.1c14.1,3.3,28.9,5.7,41.6,12.1c9.1,4.6,1.3,15-0.4,22.1
			c-22,90.9-5,174.9,45.8,252c23.4,35.5,54.3,39.9,89.7,16.1c9.7-6.6,18.9-14.1,27.5-22.1c68.8-64,97.7-144.4,97.1-236.9
			c-0.2-37.1,0-36.7,36.9-39.3c9.4-0.6,13.5,0.4,13.9,11.3c3.4,90.3-11.3,175.7-67.1,249.9c-22.7,30.3-47.5,58.8-81,81.4
			c39,21.6,58.1,54.5,66.8,93.8c17.7,79.5,20.7,156.2-46.1,218c-12.3,11.4-12.2,27.5-14.2,42.3c-2.1,15.8-1.3,31.9-2.6,47.8
			c-1.1,12.8,4.6,14.4,15.9,13.9c27-1.2,54.1-1.2,81.1-0.7c10.9,0.2,20.1-2.2,29.5-7.7c34.2-20.1,70.1-36.4,108.3-47.5
			c12-3.5,16.4-7.1,10.9-20.8c-91.4-229.3-119-466.2-82-710.4c1.9-12.8-0.1-24.4-6-36.1c-41.6-83.9-127.1-132.5-217.6-123.1
			c-86.5,9-163.7,77.9-185,168.5c-4.9,21-11,30.4-32.7,22.8c-1.3-0.4-2.8-0.2-4.1-0.2c-14.5-0.2-20.6-5-16.7-21.5
			c25.3-107.6,88.3-182.2,195.2-211.7c106.4-29.3,196.5,4.6,269.7,85.8C1746.2,352.3,1748.7,359.4,1757.9,362.7z M1980.9,160.4
			c-9,0.6-14.2,5.4-20.1,9c-81.4,49.3-133.2,121-154.4,213c-30.9,134-40.7,269.9-26.4,407.1c1.1,10.2,5.6,16.1,13.2,21.7
			c106,78.1,224.1,123.9,356.1,128.5c174.7,6.1,325.2-56.9,458.3-166.5c9.4-7.8,13-17.1,13.8-28.7c5.8-82.4,8.2-164.9,8.1-247.5
			c-0.2-123.2-49.7-224.1-142-304.6c-9.2-8-17.9-17-30.3-21.3c35.2,175.1-73.7,312.1-223.8,323.2c-69,5.1-131.4-13.8-181-63
			C1976.1,355.7,1960.3,262.5,1980.9,160.4z M2469.6,2693.8c-53,29-103.9,40-158.9,33.5c-114.8-13.8-203.7-112.9-206.6-232.4
			c-2.8-116.1,83.7-221.6,197-238.1c17.2-2.5,22.4-9.3,26.1-24.9c38.9-165.3,41.2-332.7,27.8-500.6c-9.1-114-71.4-189.3-180.6-224.6
			c-60.2-19.5-122.2-22.8-185-18.3c-57.1,4.2-111,18.2-158,51.7c-79.4,56.7-109.5,137.8-113.1,232.1c-0.8,21,5.3,28.1,25.5,35.4
			c68.6,24.9,124.4,65.3,139.4,143c5.1,26.6,3.3,53.9,0.1,80.9c-7.8,65.4-22,129.7-34.2,194.3c-1.5,7.7-5.3,16.2,3,23.1
			c42.4,35.1,51.3,83.9,53.9,134.7c0.7,14.4,5.2,18.2,19.1,19c41.6,2.3,78.3,17.1,108,47.1c48.2,48.5,49.5,111,4,161.8
			c-11.8,13.2-26.2,23.3-41.1,34.5c7.1,4,12.5,7.1,17.9,10.2c66.2,37.3,78,91.1,32.5,152c-11.4,15.2-25.4,28.4-38.4,42.8
			c7,5.1,14.2,3.8,20.9,3.9c77.7,1.6,155.2,1.6,232.9-2.7C2365.5,2846.5,2427.9,2789.2,2469.6,2693.8z M1311.1,1332.3
			c-5.4-3.5-9.2-5.4-12.3-8.1c-75.5-62.5-131.6-138.4-160.4-232.9c-3.1-10.2-9.6-12.1-18.5-12.7c-60.2-4-119.6,0.9-176.2,22.1
			C828.6,1144,770.7,1233,753.1,1350.2c-19.5,129.3-23.6,259.7-16.1,390.2c4.2,74.3,18.2,146.8,51,215
			c45,93.6,128.7,130.5,228.6,114.6c54.5-8.6,43.4,1.5,48-54.5c9.4-114.7,15.7-229.8,38.2-342.9c17.4-87.6,43.5-172.1,100.3-243.7
			C1232.6,1391.6,1268,1360.9,1311.1,1332.3z M1639,2495.5c-32.7,59.4-80.4,101.8-144,125.2c-11.9,4.4-17.7,10.1-20.5,22.3
			c-10.3,45.5-15.4,91.6-17.8,137.9c-2.2,42.7,5,54.4,46.3,66.5c92.8,27.1,186.7,29.9,280.8,5.9c28-7.1,46.3-24.7,54.6-51.8
			c11.5-37.3,21.6-75.2,21.6-114.5c0-79-0.5-158.1-2.3-237.1c-0.7-32.5-0.2-65.2-5.9-97.5c-9.2-51.7-31.1-77.1-79.4-82.1
			c-86.2-8.9-170,1.7-248.4,41.3c-28,14.1-47.6,35.9-53.3,67.7c-10.7,60-10.1,119.9,1.5,179.8c2.5,12.8,6.5,14.4,17.6,9.2
			c31.9-14.9,58.8-36,82-62.5c9.2-10.6,11.9-31.5,26.6-30.9C1612,2475.5,1625.1,2488,1639,2495.5z M2541.3,2358.6
			c1.2-6.3,1.8-8.8,2.1-11.4c20.4-138.9,30-278.6,30.4-418.8c0.4-135.3-4.4-270.4-30.6-403.8c-17.4-88.7-48.4-169-126.4-223.7
			c-36.7-25.8-75.5-46.7-117.8-60.6c-143.3-47-288.2-43-432.9-8.9c-107.5,25.3-200.2,76.9-269.2,165.5
			c-87.3,112.2-108.1,240.3-88.2,377.5c4.1,28.1,8.7,56.4,20.2,84.1c17.5-15.1,32.5-29.7,51.1-39.2c8.7-4.5,8.5-10.3,7.7-18.7
			c-4.3-43.6-4.2-87.1,1.8-130.7c20.6-147.2,99.9-249.3,235.2-308.9c54.4-23.9,111.7-36.6,170.3-44.4
			c123.9-16.4,242.1,0.6,352.6,60.3c88.2,47.6,146.2,115.8,151.7,222c8.1,156.3-2.3,311.9-12.6,467.6c-4.6,69.1-12.3,138-18.8,207
			c-0.8,8-1.1,14.4,7,19.6C2500.5,2309.4,2520.7,2331.3,2541.3,2358.6z M321.9,1566.9c1.2,0,2.5,0,3.7,0c0,65.8,0.2,131.7-0.2,197.5
			c-0.1,13.3,4.5,17.5,18,17.3c54-0.8,108.1,0.1,162.2-0.6c19.1-0.2,43.8,8.8,55.6-4.2c10.7-11.8,1.8-35.8,1.5-54.3
			c-1.9-133.7-4-267.4,13.2-400.4c2.1-16.3-7.4-11.4-14.7-10c-73.4,13.7-146.6,28-220.1,41.3c-15.1,2.7-19.9,9-19.7,24.3
			C322.4,1440.8,321.9,1503.9,321.9,1566.9z M1334.4,2275.3c-59.3-52.4-41.3-137.4,2.5-173.3c9.4-7.7,8.5-12.9,1.6-21.4
			c-8.3-10.3-13.6-22.5-16.2-35.7c-10.3-52.2-1.6-100.7,29.5-144.2c6.8-9.5,6.9-13.6-3.6-20.2c-17.6-11.1-28.9-28-33.5-48.4
			c-9.1-41.1-7.5-82.6-1-123.8c2.7-17,12-31.3,25.8-41.5c9.3-6.8,13-11.8,5.3-22.9c-7.1-10.2-8.8-23-9.8-35.6
			c-3.6-44,4.5-84.4,37.2-117.6c-4.4,1-7.3,2.7-9.9,4.7c-44.8,35.2-65.1,83.5-72.7,138c-18.8,136.2-22.3,273.6-33.1,410.4
			c-10,127.1-17.9,254.5-27.4,381.7c-5.5,73.3-13.8,146.4-14,220c-0.2,62.9,15.6,120.5,58.6,168.9c28.6,32.2,64.1,54.1,101.2,75.1
			c28.8,16.3,53.2,11.1,81.6-5c-46.3-25-54.4-65.4-50.8-110.9c1.6-20,2.6-40.1,4.7-60.1c1.1-10.8-1.3-15-13.4-16.9
			c-60-9.8-104.7-41.1-123.8-100.3c-19.2-59.5-2.9-112.4,39.8-156.7c10.3-10.7,8.9-16,0.8-26.6c-20.4-26.6-24.5-56.4-13.2-88.4
			C1307.7,2305,1320.8,2290,1334.4,2275.3z M2416.7,2262.2c0.5-3.4,1.1-6.8,1.5-10.2c11.8-116.6,22.7-233.3,27.8-350.5
			c4.3-99.8,8-199.5,2.5-299.5c-4-71.7-36.4-123.5-94.5-161.6c-16.8-11-34.3-21.2-52.4-29.7c-103.8-49.1-212.5-58.9-324.9-39.9
			c-71.8,12.2-140.9,32.3-200.6,75.2c-115.2,82.6-147.7,200.5-138.6,335c0.5,6.8-3.2,18.8,11.7,16.1c10.7-1.9,22-1.5,19.9-18.7
			c-2.5-20.7,0.7-41.5,3.9-62.1c19.2-125.3,86.1-213.7,206.1-256.5c99.6-35.5,202.2-33.2,302.8-3.9
			c124.5,36.3,200.2,118.5,221.5,248.6c10.1,62,7.6,124.6,9.4,186.9c3.1,109.2-7.4,217.5-30.1,324.4
			C2374,2256.5,2373.7,2256.5,2416.7,2262.2z M1724.3,2215.8c22,1.5,40.2,0.6,57.4,4.4c15.4,3.5,17.7-3.4,19.7-14.9
			c3.5-20.5,8-40.8,11.6-61.2c9.4-54.5,22.9-108.5,22-164.4c-0.4-22.5-4.2-44.2-19-62.4c-65.8-80.7-195.3-113.4-274.6,8.7
			c-49.6,76.3-55.7,162.3-51.1,250c0.7,12.6,7.9,23.6,17.7,31.8c19.4,16.2,42.1,23.9,67.1,23.8c108.1-0.4,187.1-122.1,143.5-221.2
			c-11-25-31.9-39.4-58.6-40.1c-23.7-0.6-35.9,18.3-45.5,37.4c-4.7,9.3-6.9,19.3-8.7,29.7c-4.6,26.5-1.7,52.7,2.7,78.6
			c2.2,12.9,1.6,18.3-13.6,19.9c-35.7,3.8-35.6,4.8-39.5-31.6c-0.9-8.3-2.2-16.5-2.6-24.8c-2.2-41.8,3.8-81.7,28.8-116.7
			c32.2-45,81.4-56.1,130.2-30c50.7,27.2,66.5,73.8,69.4,126.6C1784.5,2117.7,1763.3,2167.9,1724.3,2215.8z M2155.4,2491.6
			c0.1,103.5,82.8,186.3,186.4,186.6c103.7,0.3,188.6-84.4,188.2-187.8c-0.4-101.8-84.3-186.3-185.2-186.6
			C2238.7,2303.4,2155.3,2386.1,2155.4,2491.6z M2606.3,840.6c-3.8,2.1-6.2,3.2-8.3,4.8c-71.8,53.4-150.4,93.3-236.4,118.3
			c-13.2,3.8-12.9,11.8-12.9,21.8c0.1,56.1,2.6,112.4-0.8,168.4c-2.2,36.4,5.7,59.3,42.9,71.5c15.3,5,22.2,4.9,32.4-7.1
			c81.9-96.5,140.4-205.3,173.5-327.6C2600.9,875,2606.8,859.3,2606.3,840.6z M2023.2,235.4c-0.1,65.7,27.2,127.7,71.9,166.5
			c11.1,9.6,19.8,11,33,3.7c92.3-50.9,124.1-157.5,73.3-254.2c-27.9-53.2-23.4-47.2-73.7-40.1c-85.3,12-101.3,29.2-104.5,115.8
			C2023.2,229.9,2023.2,232.7,2023.2,235.4z M1790.7,872c14.4,104,44.6,198.7,80.9,291.8c4.2,10.9,10.7,10.8,19.5,9
			c43.5-9.3,87.7-13.4,132-15.5c14.1-0.7,15.5-6.4,15.3-17.7c-0.4-38.8-0.2-77.7-0.2-116.6c0-44.1,0-44.2-42.9-56.1
			C1923.4,947,1856.5,916,1790.7,872z M2234.4,103.5c33.1,57.9,49.4,116.7,38.5,181.2c-11,65-46.1,114.3-99.3,153.4
			c32.5,8.8,63.2,8,98.1-2.4c130.2-38.6,171-187.3,119-297.4c-2.2-4.7-5.4-7.7-10.2-9.7C2334.5,110.2,2286.4,103.8,2234.4,103.5z
			 M2297.4,1185.3c0-66-0.3-129.8,0.2-193.6c0.1-15.1-9-10.7-16.3-9.5c-59.2,9.8-118.6,11.6-178.3,4.9c-9-1-14.1-0.5-14,10.9
			c0.5,48.6,0.4,97.1,0.1,145.7c0,8.9,3.4,12.1,12.1,12.4c18,0.6,36,1.8,54,3.1C2202.9,1162.6,2249.9,1170.7,2297.4,1185.3z
			 M2019.1,2539.8c0.2-14.9-1.9-23.6-6.2-31.7c-17.8-33.7-47.4-48.6-83.6-54.2c-14.3-2.2-19.8,0.8-19.4,16.6
			c1.3,51.2,0.4,102.5,2.1,153.8c2.2,68.5-5,135.5-27.7,200.3c-4.8,13.8-0.6,15.1,11.1,14.4c52.8-3.1,91.5-29.1,118-73.7
			c16.4-27.6,12.3-41.7-14.9-58.7c-17-10.6-35.4-19.2-51.7-30.7c-28.8-20.4-25.9-51.4,5.2-67.4c7.4-3.8,15.4-6.6,22.3-11
			C1997.8,2582.5,2015.6,2563.3,2019.1,2539.8z M448.7,1832.3c-33.3,0-66.6,1.1-99.8-0.4c-18.4-0.9-22.3,5.7-20.7,22.5
			c2.4,24.8,3,49.8,3.9,74.7c0.9,25.7,1,25.8,25.8,21.7c58.7-9.6,117.4-19.2,176.2-28.5c32.2-5.1,32.2-4.9,31.2-38.9
			c-0.3-9-1-18.1,0.1-27c2.2-18.1-3-25.7-23.2-24.5C511.1,1833.6,479.9,1832.3,448.7,1832.3z M836.7,149c-34.1,0-67.8,4.1-101.5,8.8
			c-7.1,1-16.5,0.2-15.4,12.1c3.3,35.4,7.2,70.6,32.6,98.7c24.9,27.7,56.2,29.7,84.3,5.4c26.7-23.1,43.5-51.8,48.1-87.1
			c4.9-37.8,4.8-37.8-33.5-37.8C846.4,149.1,841.6,149.1,836.7,149z M607.4,1200c-77.1,7-152.1,13.1-226.8,21.3
			c-18.6,2-44.6-6.1-54.3,9.8c-8.8,14.3-2,37.7-3.7,56.9c-1.4,15.4,5.4,16.8,17.9,14.3c79.3-15.4,158.6-30.5,237.9-45.4
			c6.7-1.2,11.9-2.5,14.1-9.7C597.1,1232.2,601.9,1217.3,607.4,1200z M1317.3,2547.8c-0.5,52.4,43.1,97.9,92.5,99.2
			c4.6,0.1,11.2,2.1,12.3-4.2c2.7-14.7,11.1-28.6,6.9-44.4c-10.1-37.6-14.5-76-16.9-114.8c-1.5-24.1-11.5-31.8-35-27.5
			c-5.1,0.9-10.2,4.2-14.5,7.4C1333.7,2485.3,1318.3,2514.2,1317.3,2547.8z M1369,2006.9c0,43.1,22.7,68,59.3,66.2
			c8.6-0.4,12.6-3.2,13.8-11.4c7.8-51.5,19.3-101.8,45.8-147.7c6.2-10.7-6.2-36.2-14.6-33.9
			C1415.6,1896.1,1372.2,1929.1,1369,2006.9z M1418.1,1693.9c-45.2-0.2-57.1,11.4-57.5,55.9c-0.1,9.7-0.6,19.4-0.7,29.1
			c-1,63.5,25.5,81.3,85.1,57.2c1.3-0.5,2.6-0.9,3.9-1.3c13.6-3.9,18.1-11.5,14.3-26.3c-6.9-26.8-9.9-54.4-11.1-82.2
			C1450.6,1694.1,1450.7,1694.1,1418.1,1693.9z M1491.9,2259.8c-40.6-27.8-54.2-62.5-54-103.8c0-6.9-0.5-13.8-0.7-20.7
			c-0.1-6-1.6-10.7-8.7-11.8c-38.5-6-66,15.5-76.8,45.2c-11.9,32.8,0.6,63.2,32.8,77.2C1416.7,2259.9,1450.8,2262.5,1491.9,2259.8z
			 M787.3,2820c-1.6-35.5-8.6-69.8-24.6-101.8c-3.6-7.2-8-16.9-16.8-16.5c-8,0.4-9.9,10.6-12.6,17.5c-13.2,34-25.5,68.4-39.4,102.1
			c-4.8,11.6,0,14.4,9.2,16.6c16.8,4,33.4,8.4,50.3,12.2C788.4,2857.9,789.2,2857.1,787.3,2820z M1106.8,2159
			c-1.7,27.3-3.2,51.5-4.6,75.7c-0.4,7-1,13.4,7.9,16.8c22.6,8.7,44.9,18.1,67.3,27.4c7.4,3.1,11.7,2.1,12.2-7.1
			c1.2-21.5,2.7-42.9,4.4-64.3c0.7-8.1-2-12.5-9.8-15.7C1159.3,2181.7,1134.7,2170.9,1106.8,2159z M1385.5,1588.4
			c0,35.7,19.6,54.6,55.5,55.5c7.8,0.2,10.8-2.1,11.6-10.1c3-29.6,7.5-58.9,14.9-87.8c1.2-4.6,2.4-9.1-2.4-13.1
			c-20.9-17.8-51.7-13.6-67.4,9.4C1387.9,1556.6,1384.7,1572.6,1385.5,1588.4z M1092.7,2594.2c4.2,64,4.2,64,58,61
			c0.7,0,1.4-0.1,2.1,0c9,1,12-3.3,12-12.1c-0.1-15.9,0.5-31.7,1.2-47.6c1.5-35.4,8.1-28-26.3-39.2
			C1089.3,2540,1089.2,2540.4,1092.7,2594.2z M1204.8,2022.2c5.6-23.7,5-46.5,6.5-69c0.4-6.3-1.3-10.6-7.4-13.1
			c-26-10.6-51.9-21.4-79.8-32.9c-2,24.5-3.6,46.4-5.5,68.3c-0.6,7.4,0.1,13,8.6,16.2C1153.1,2001.3,1178.5,2011.7,1204.8,2022.2z
			 M1175.6,1611.9c-2.5,1.4-5,2.9-7.5,4.3c-5.2,22.9-10.6,45.7-15.7,68.7c-1,4.7-2.3,10.1,1.4,14c22.2,23.9,44.6,47.7,70.3,75
			c2.9-34.6,5.2-63.4,7.8-92.3c0.6-6.2-2-10.4-6-14.7C1209,1648.7,1192.3,1630.3,1175.6,1611.9z M1445,2312.2
			c-15-2.3-26.5-4.2-38.1-6c-8.1-1.3-16-3.3-24.4,0.1c-22.8,9.3-39.5,35.7-35.8,57.5c3.9,23,28.8,42.1,54.3,43.2
			c10.8,0.5,15.2-3.8,16-13.7C1419.1,2364.7,1427.6,2338.1,1445,2312.2z M1140.3,1759.8c-3.1,23.5-6.6,42-7.7,60.6
			c-2.4,39.9-9.9,29.2,27.6,45.9c14.5,6.5,29.2,12.7,44,18.4c3.6,1.4,10.3,6.8,11.5-1.5c2.1-14.7,9.5-31.3-1.4-44
			C1191.9,1813,1167.4,1788.6,1140.3,1759.8z M1473,1359c0-8.3-0.6-16.7,0.1-24.9c1.1-12.3-2.4-16.1-14.7-11.4
			c-17.4,6.7-35.1,12.4-52.9,18.1c-15,4.8-23.8,11.3-16.7,29.7c4.9,12.6,1.2,31.7,9.3,39.2c10.1,9.4,26-3.6,39.4-6.4
			C1473.1,1395.8,1473,1395.3,1473,1359z M1201.9,2096.8c5.2-15.4-3.3-23.7-20-28.8c-18.4-5.7-36.5-13.1-54-21.2
			c-11.6-5.4-13.8-1.4-15.3,9.4c-6.6,46.1-5.8,48,36.4,65.3c3.2,1.3,6.4,2.5,9.6,3.9C1199.2,2143,1199.2,2143,1201.9,2096.8z
			 M1092.5,2410.4c0,18.1,0.2,32.5,0,46.8c-0.6,35.1-8.4,27.8,29,39.9c1.3,0.4,2.8,0.4,4.1,0.8c49.6,15,49.5,15,50.2-37.2
			c0.1-6.1-0.4-10.7-6.6-13.6C1144.9,2435.7,1120.8,2424,1092.5,2410.4z M1234.2,1612.6c2.6-2.1,5.1-4.2,7.7-6.3
			c3.1-10.6,4.3-22.2,9.6-31.5c18.4-32,11.6-59.7-11.3-85.7c-0.4-0.5-0.7-1.2-1-1.8c-4.5-9.4-9.1-11.1-15.3-0.9
			c-12.3,20-23.3,40.6-32.3,62.3c-2.6,6.3-2.3,11.3,2.7,16.9C1208,1580.9,1221,1596.8,1234.2,1612.6z M1100.6,2303.1
			c-11.4,48-11.4,48.1,30.1,68.5c4.3,2.1,8.8,4,13.1,6.1c35.8,17.6,35.8,17.6,39.3-22.5c0.7-8.5,4.5-17.6-7.9-22.3
			C1150.2,2323.6,1125.6,2313.2,1100.6,2303.1z M1337.7,1375.9c-13.8,10-25.4,17.4-35.8,26.1c-46.5,38.9-37.9,23-10.6,72.3
			c0.7,1.2,1.6,2.3,2.2,3.5c2.9,5.3,5.4,6.1,11.1,2c45.6-33.2,46.4-34.8,35.3-91.7C1339.3,1385.4,1338.9,1382.7,1337.7,1375.9z
			 M1137.4,2705.8c-34.1,0-34.1,0-26.9,33.6c1.2,5.4,2.5,10.7,3.9,16c7.1,28.2,7.1,28.2,35.6,23.1c35.8-6.4,35.8-6.4,26.8-41.6
			C1168.8,2705.8,1168.8,2705.8,1137.4,2705.8z M1143.6,2831.6c11.7,22.1,26.1,39.3,44,53.6c10.3,8.3,60.5,1.9,65.6-10.9
			c5.4-13.4-13.1-17.8-18.8-27.9c-3.4-5.9-9-10.5-12.8-16.2c-4.4-6.7-10.2-8.6-17.7-7.5C1184.4,2825.6,1164.9,2828.4,1143.6,2831.6z
			 M1617.7,1299.7c-22.8,1.4-39.8,1.2-56.5,3.8c-45.3,7.2-36.6-4.5-36.9,42.1c-0.1,11.7,0.5,23.5,0.8,35.2c0.1,4.1-0.2,8.9,4.5,10.6
			c4.3,1.5,8.2-0.3,10.8-4C1562,1357.1,1586.5,1329.4,1617.7,1299.7z M1503,1444.7c-41.2,5.4-80.6,10.5-114.2,35
			c21.8-7.8,43.5-12.7,66.6-6c10.7,3.1,22.2,15.2,31.5,8.3c8.3-6.1,10.6-20.3,15.4-30.9C1502.9,1449.9,1502.7,1448.4,1503,1444.7z"
			/>
		<path class="st0" d="M1239.8,802.9c0-83.8,0.3-167.7-0.3-251.5c-0.1-15.3,2.5-22.3,20-21.4c37.1,1.7,31.3-2.8,31.3,30.8
			c0.2,163.5,0.2,327-0.1,490.6c0,7.5,4.8,19.5-5.4,21.6c-13.8,2.9-29.2,4.1-42.8-1c-5.6-2.1-2.5-11.4-2.6-17.4
			C1239.8,970.5,1239.8,886.7,1239.8,802.9z"/>
		<path class="st0" d="M2185.1,849.4c-116.5-0.8-213.8-41.6-298.4-116c-14.3-12.6-19.4-22.1-1.1-34.3c2.8-1.9,5.4-4.5,7.4-7.3
			c8.3-11.3,15-9.2,24.7-0.2c59.4,55.2,128.6,91.3,209.4,102.6c122,17.1,226.6-22.1,318.6-100.7c5.1-4.4,9.5-16,18-9.4
			c11.3,8.7,22.9,18.3,29.4,31.5c2.2,4.5-4.7,7.9-8.1,10.9C2398.8,804.1,2298.8,847.6,2185.1,849.4z"/>
		<path class="st0" d="M1971.2,2091.8c0.3-63.2,51.2-113.4,114.1-112.6c62.8,0.8,112.9,52,112.2,114.7
			c-0.7,61.4-51.7,111.8-113.3,112C2021.9,2206.1,1970.9,2154.5,1971.2,2091.8z M2084.9,2030.5c-35.4-0.2-62.1,26-62.3,61
			c-0.2,35,26.4,62.6,60.7,63.3c33,0.6,62.8-28.5,63.3-61.7C2147.2,2059.3,2119,2030.7,2084.9,2030.5z"/>
		<path class="st0" d="M2348.6,1807.5c-0.2,63.5-50.3,112.9-113.9,112.4c-63.1-0.5-112.9-51.2-112.2-114.4
			c0.7-61.7,51.1-111.5,113.1-111.6C2298.7,1693.8,2348.9,1744.3,2348.6,1807.5z M2236.2,1868.8c34.9-0.2,61.4-27.1,61.3-62.2
			c-0.2-34.4-28.2-62.3-62.2-62c-33.4,0.3-62.3,29.7-62,63C2173.6,1841.6,2201.6,1869,2236.2,1868.8z"/>
		<path class="st0" d="M1973.3,1919.2c-62.3-0.5-111.3-50.4-110.8-113c0.5-63,51.4-112.9,114.5-112.3
			c61.6,0.5,112.2,51.5,112.2,112.9C2089.2,1870.1,2038.1,1919.7,1973.3,1919.2z M1974.7,1868.8c34.7,0.4,62.7-26.4,63.4-60.7
			c0.7-33.4-27.8-62.8-61.4-63.3c-34.4-0.5-62.1,26.6-62.3,61.2C1914.1,1841.6,1939.9,1868.4,1974.7,1868.8z"/>
		<path class="st0" d="M805.6,1530.3c0-50.8,13.6-97.3,45.6-137.3c55.4-69.3,147.5-73.2,208.5-9.2c73.2,76.7,71.8,221.1-2.8,296.3
			c-63.5,64-158,54.9-212.1-20.8C817.3,1620.9,805.4,1577.4,805.6,1530.3z M856.5,1525.7c0.1,44.5,10.3,81.8,37.3,113.4
			c36.1,42,88.9,43.8,127.2,4.4c55.6-57.1,55.6-169.4,0-226.3c-37.2-38.1-88.4-37.5-124.6,1.6C867.7,1450.1,857.3,1488,856.5,1525.7
			z"/>
		<path class="st0" d="M2336.6,2614.5c-70.1,0.2-125.9-54.5-126.5-123.9c-0.6-69.3,55.4-126.4,124.3-126.6
			c71.4-0.3,127.6,54.1,128.6,124.4C2464.1,2557.9,2407.5,2614.3,2336.6,2614.5z M2336.7,2564.2c42.3,0,74.9-32.7,74.7-74.9
			c-0.1-41.9-33.4-75.1-75.1-75c-41.3,0.1-75.4,34.2-75.3,75.3C2261.2,2530.9,2294.9,2564.2,2336.7,2564.2z"/>
	</g>
</g>
</svg>
