<?xml version="1.0" encoding="utf-8"?>
<!-- Generator: Adobe Illustrator 23.0.0, SVG Export Plug-In . SVG Version: 6.00 Build 0)  -->
<svg version="1.0" xmlns="http://www.w3.org/2000/svg" xmlns:xlink="http://www.w3.org/1999/xlink" x="0px" y="0px"
	 viewBox="0 0 3000 3000" style="enable-background:new 0 0 3000 3000;" xml:space="preserve">
<style type="text/css">
	.st0{stroke:#000000;stroke-width:10;stroke-miterlimit:10;}
</style>
<g id="Layer_1">
</g>
<g id="Layer_2">
	<g>
		<path class="st0" d="M1531.3,1656.7c-99.7,366.7-464.5,614.4-857.9,544c-363.7-65.1-620.7-371.2-623.6-734.7
			C47,1105.5,299.7,791.5,649.5,721.1c413.4-83.1,787.6,177.6,881.9,539.7C1595.7,1056,1720.3,903,1912,808
			c150.3-74.5,308.8-91.9,472.2-57.1c328.1,69.8,563.3,358.4,569.9,696.8c6.5,332.1-217.8,629.9-539.7,712.2
			c-189.6,48.4-372.1,26.2-542.8-71.2C1701.1,1991.5,1590,1845.7,1531.3,1656.7z M1504,1459.9c0-388.8-312.1-702.2-699.9-702.8
			c-388.2-0.6-703.7,314.3-703.7,702.2c0,386.7,315.3,701.9,702.1,702.1C1189.7,2161.6,1504,1847.4,1504,1459.9z M1557.4,1459.8
			c-5.1,353.9,286.2,666.4,661.1,672.8c372.3,6.3,683-294.6,684.3-666.9c1.3-378-299-680.2-673.2-680.1
			C1845.4,785.8,1551.4,1104.6,1557.4,1459.8z"/>
		<path class="st0" d="M853.4,1032.7c235.3,0.1,425.7,191.1,425.5,426.9c-0.2,235.1-191.3,426.3-426.5,426.7
			c-233.9,0.4-426.9-192.3-427.2-426.7C424.9,1223.8,616.7,1032.6,853.4,1032.7z M851.9,1833.7c79,0.2,146.4-18.6,211.2-64.5
			c115.4-81.6,169.8-194.1,164.1-335.6c-0.6-15.5-5.5-20.1-21.2-16.1c-64.6,16.3-130.4,26.5-196.7,32.7c-34,3.2-34,3.5-34.2,37.6
			c-0.6,93.2-46.8,150.6-135.2,167.8c-83.7,16.3-149.3-27.6-163.4-110c-4.6-26.9-3.3-54.4,3.9-80.5c4.2-15.4-1.8-17.7-13.9-19
			c-57.3-6.2-113.9-16.3-169.7-30.5c-16-4.1-17.5,1.4-18.7,15.1C460.5,1647.3,632.6,1833.3,851.9,1833.7z M854.8,1407.4
			c115.5-0.6,229.5-13.5,342.2-39.1c15.4-3.5,18.2-8.5,13.6-23.4c-47.3-152.5-195.2-261.3-356.3-261.5
			c-163.7-0.2-311.2,106.9-359.5,260c-5.1,16.2-0.6,19.8,14,23.2C622.6,1393.1,737.9,1406.4,854.8,1407.4z M924.6,1486.3
			c0.2-29.2,0.2-28.9-29-28.9c-36.7,0-73.5,0.3-110.2-1c-57.5-2-58.6-1.6-59.9,57.5c-0.2,8.3,0.4,16.7,1.9,24.8
			c9.2,47.9,37.6,72.1,86.1,68.2C891.1,1600.8,922.6,1560.3,924.6,1486.3z"/>
		<path class="st0" d="M2664.3,1461.8c-3.1,237.3-196,427.1-431.2,424.1c-236.8-3-425-196.1-421.8-432.7
			c3.2-237.7,195.6-423.4,435.7-420.5C2477.2,1035.5,2667.3,1231,2664.3,1461.8z M2198,1478.4c127.9,0,271.8-36.6,384.6-99.9
			c16.3-9.1,18.1-17.7,12.8-34.3c-51.2-160.4-213.1-272.5-377.5-260.4c-179.7,13.3-322.2,140.4-351,312.6
			c-2.5,14.7,0.8,22.1,15.8,27.6C1979.8,1459.9,2079.7,1479.9,2198,1478.4z M1863.4,1471.5c-4.1,122.7,78.5,258,199.5,319.3
			c136.1,68.9,270.7,60.4,394.7-28.8c114.1-82,162.1-197.6,154-336.8c-6.6-2.2-9.9,0.7-13.5,2.6c-82.3,42.8-168.8,73.4-260.5,88.7
			c-12.3,2-16.4,7.3-18,20c-8.6,64-70.9,107.1-131,92c-31.7-8-48.4-32.6-59.7-59.4c-13.1-31.2-31.5-45.5-66.8-48.2
			C1994.3,1515.6,1929,1495.5,1863.4,1471.5z"/>
	</g>
</g>
</svg>
