<?xml version="1.0" encoding="utf-8"?>
<!-- Generator: Adobe Illustrator 23.0.0, SVG Export Plug-In . SVG Version: 6.00 Build 0)  -->
<svg version="1.0" xmlns="http://www.w3.org/2000/svg" xmlns:xlink="http://www.w3.org/1999/xlink" x="0px" y="0px"
	 viewBox="0 0 3000 3000" style="enable-background:new 0 0 3000 3000;" xml:space="preserve">
<style type="text/css">
	.st0{stroke:#000000;stroke-width:10;stroke-miterlimit:10;}
</style>
<g id="Layer_1">
</g>
<g id="Layer_2">
	<g>
		<path class="st0" d="M580.9,1566.9c160.4,4.6,276.1,7.7,391.7,11.7c13.7,0.5,17.3-3,16.3-16.5c-2.7-34,5.7-30.3-32.6-28.9
			c-152.2,5.5-304.3,18.2-456.7,9.3c-70-4.1-140.2-10.5-206.9-34.2c-101-35.9-177.5-100.8-223.7-198.2
			c-58.5-123.4-18.1-293.3,118.7-367.5c88.8-48.1,182.8-62.6,281.8-41.1c14.9,3.2,28.9,9.3,41.6,17.8c27.9,18.6,31.4,50.2,8.3,74.6
			c-6.9,7.3-14.5,14.1-21.5,21.4c-22.7,23.5-25.4,47.6-7.7,75.5c33.2,52.4,83.4,71.3,142,63.8c96.2-12.2,192.9-13.1,289.5-17.5
			c55.7-2.5,110.6-9.7,165.5-18.6c68.9-11.2,138.6-10.6,208.1-10.1c205.5,1.7,410.9,4.8,616.2,13.4
			c241.5,10.1,476.4,53.2,702.4,141.1c76.4,29.7,154.7,54.4,228.9,89.6c25.1,11.9,49.7,24.9,71.6,42.3
			c46.4,36.8,57.8,84.5,32.5,138.4c-13.9,29.7-35.7,53.3-59,75.9c-110.7,107.1-244,171.6-392,208c-241.2,59.2-485.1,99.5-734.4,97.3
			c-121.4-1.1-242.4-10.8-363.3-21.3c-125.2-10.9-249.8-27.3-374.5-42.3c-96.7-11.6-186.5,14.1-275.5,46.4
			c-52.6,19.1-102.6,42.4-145.7,79c-20.9,17.7-38.1,38.7-55.7,59.4c-12.3,14.4-24.6,28.9-39.2,41.2c-37.5,31.5-79.9,37.1-120.9,10.8
			c-83.1-53.4-157.4-117.2-212.7-199.9c-34.7-51.9-56-110.2-64.2-172.5c-8.5-64.5,21.6-112.7,83.3-133.7
			c52.3-17.8,107.1-18.5,161.3-18.5C444.9,1563,535.3,1566,580.9,1566.9z M2164.5,1439.9c119.6-2.4,209.3,1.4,298.8,8.2
			c14.9,1.1,20.6,4,19,22.4c-1.9,21.6-9.1,29.3-29.6,26.8c-3-0.4-6.3,0.7-9.4,1.2c-111.4,19.9-223.3,35.9-336.4,41.8
			c-33.4,1.7-67,1.9-99.9,8.6c-23.1,4.7-26.5,11.7-16.3,32.8c13.3,27.6,32.8,50.8,53.4,73.2c55,59.8,118.4,110.1,180.4,162.1
			c7.8,6.5,15.3,7.5,24.5,5.6c61.2-12.5,122.7-23.7,183.6-37.5c140.6-31.8,274-79.9,385.5-175.8c31.2-26.8,62.5-53.6,83.7-89.7
			c20.5-34.8,14.9-63.5-16.6-88.3c-21-16.5-44.4-28.9-68.7-39.8c-111.8-50.3-228.3-88.1-344-128c-122.9-42.4-250.2-65-378.9-80.7
			c-8.9-1.1-16.8-1.1-23.6,7.4c-23.6,29.6-48.3,58.5-69.5,90c-24.7,36.6-50,73.1-61.6,116.6c-8.6,32.2,0.6,45.1,33.7,47.3
			c12,0.8,24,0.9,36,0.6C2070.5,1442.9,2132.4,1440.9,2164.5,1439.9z M1096,1164.7c-23.7,3.6-45.4,7-67.2,10.1
			c-76.5,10.9-153.8,11.2-230.8,13.6c-62,1.9-123.3,11.2-185.2,13.1c-66.2,2-118.9-25-157.7-78.4c-32.9-45.3-29.1-98.6,8-140.2
			c7.1-8,24.9-12.3,19.5-24.9c-4.3-9.9-20.7-9.9-32.1-13.6c-2.4-0.8-5-0.9-7.5-1.3c-79.1-12.8-154.2,0-225.5,35.9
			c-122.4,61.6-158.6,213.5-102.3,320.4c48.8,92.6,125.7,150.2,226.8,174.8c91.5,22.3,185.1,25.2,278.7,24.4
			c118.2-0.9,236.2-8.2,354.4-12.5c10.7-0.4,13.5-3.9,14.4-14.1c7.1-79.4,27.9-155,62.7-226.8
			C1065.4,1218.2,1081.3,1192.8,1096,1164.7z M1052,1806.7c-4.8-11.6-8.1-20.4-11.9-28.9c-19.2-42.1-32.9-86.1-40.4-131.7
			c-2.7-16.2-9.3-20.8-25.4-21.2c-200.9-4.9-401.8-10.9-602.7-15.6c-51.8-1.2-103.7,0.1-154.3,13.6c-49.3,13.1-67.5,38.6-60.5,88.8
			c8.4,60.3,30.1,116.1,66.4,165.2c49.3,66.8,111.4,120.4,180.1,166.3c33.2,22.2,55.9,18.7,83.6-10.7c3.9-4.1,7.4-8.6,11.2-12.8
			c26-29.2,50.1-60.6,81.5-84.5c99.2-75.6,215.2-108.8,335.4-130.3C959.4,1796.8,1004.3,1803.7,1052,1806.7z M1332.1,1840.2
			c-4.3-9.1-6.3-13.6-8.5-18c-34.3-66.6-77-127.5-125.7-184.4c-15.6-18.2-31.7-36.3-44.8-56.3c-23.5-35.6-7.7-69.8,33.7-77.8
			c21.5-4.1,42.8-2.7,64.2-0.8c80.6,7.1,161.1,14.4,242.1,16c87.2,1.7,174-8.2,261-8.5c38.6-0.1,75.8,5.6,104.6,35.4
			c26,26.9,32.3,61.1,32.5,96.4c0.6,91.5,48.3,155.4,118.2,207c4.6,3.4,9.5,6.3,15.6,5.8c48.4-4.1,96.3-11.8,144.6-19.7
			c-2.7-8-8.7-10.7-13.5-14.6c-58.3-47.6-115.1-96.9-164-154.5c-19.6-23.1-38.8-46.7-48.1-76.5c-13.7-43.5,2.7-73.6,46.5-84.8
			c7.3-1.9,14.8-3.2,22.3-3.8c56-4.4,111.9-8.6,167.9-12.8c-8.2-1.9-16.3-2.1-24.5-1.8c-46.1,1.5-92.2,3.2-138.4,4.6
			c-25.2,0.8-50.3,1.3-75-4.9c-29.3-7.4-48-28.2-52.3-57.9c-3.9-27.4,4.5-52.6,14.9-77.1c20.7-48.6,51.3-91.3,83-133.1
			c10.2-13.4,20.5-26.6,32.5-42c-22.4-1.8-41.6-3.8-60.9-4.8c-30.6-1.4-30-0.9-38.8,29.2c-34.4,117.1-100.5,200.1-240.3,206.2
			c-125.6,5.4-251.2,12.4-376.9,17.3c-32.9,1.3-65.8,0.8-98.3-5.1c-57-10.2-74.3-42.4-51.4-95.5c20.2-46.9,40.6-93.8,58.3-141.8
			c9.7-26.3,9.7-24.7-18.7-26c-25.7-1.2-41.5,8-55,30.2c-23.1,37.8-45,76.2-61.3,117.3c-67.6,170.4-56.5,337.1,25.2,500.1
			c4.6,9.2,11,12.1,20.8,13c27,2.7,53.8,6.8,80.8,9.9C1245.8,1830.8,1287.2,1835.2,1332.1,1840.2z M1945.3,1861.5
			c0.8-1.5,1.6-3,2.4-4.6c-5.4-4.2-11.3-7.8-16-12.6c-43.9-44.9-74.8-96.9-83.9-159.9c-3.2-22.5-3.5-45.3-5.7-68
			c-2.7-28-20-47.9-47-55.2c-19.8-5.4-40.1-4.6-60.3-4.2c-69.5,1.4-138.7,7.9-208.3,8.7c-102.6,1.1-204.3-11.2-306.3-18.2
			c-9.8-0.7-23-4-27.6,5.3c-3.4,6.7,7.6,14.8,13.2,21.4c69.1,80.1,131.8,164.6,176.3,261.2c3.7,8.1,8.6,10.6,17.2,11.2
			c37.8,2.6,75.5,6,113.3,9.2c133.6,11.1,267.4,15.3,401.5,8.3C1924.6,1863.6,1934.9,1862.4,1945.3,1861.5z M1429.9,1372.5
			c92-5.9,184.4-5.9,276.2-16c30.9-3.4,60.9-9.8,86.2-30.5c45-36.8,69.6-85.4,85.1-140.1c4.3-15,1.9-19.2-14.1-19.6
			c-191.7-5.8-383.4-10.3-575.2-11.6c-13.4-0.1-18.4,4.8-22.5,16.6c-18.7,54.3-40.5,107.4-63.9,159.8
			c-16.1,36.1-12.7,41.4,27.2,44.6c3.8,0.3,7.6,0.4,11.4,0.6C1303.6,1378.4,1366.8,1376.2,1429.9,1372.5z"/>
	</g>
</g>
</svg>
