<?xml version="1.0" encoding="utf-8"?>
<!-- Generator: Adobe Illustrator 23.0.0, SVG Export Plug-In . SVG Version: 6.00 Build 0)  -->
<svg version="1.0" xmlns="http://www.w3.org/2000/svg" xmlns:xlink="http://www.w3.org/1999/xlink" x="0px" y="0px"
	 viewBox="0 0 3000 3000" style="enable-background:new 0 0 3000 3000;" xml:space="preserve">
<style type="text/css">
	.st0{stroke:#000000;stroke-width:10;stroke-miterlimit:10;}
</style>
<g id="Layer_1">
</g>
<g id="Layer_2">
	<g>
		<path class="st0" d="M870.7,917.4c-35.1,0-65,0.1-94.9,0c-69.2-0.2-97.5-39.2-105.9-99.1c-8.8-63,5.1-123.6,26.5-182
			c73.4-200.4,196.5-360.5,384.8-465.9c113.8-63.6,237.3-95.5,366.3-109.4c129.1-14,257.8-12.6,386,8.2
			c123.6,20,243.4,51.6,350.6,119.9c50.5,32.2,92.5,72,115.2,129.1c11.3,28.3,15.2,58.2,16.6,88c3.8,81.5,5.2,163-6,244.1
			c-3.2,23-10.5,44.7-24.4,63.2c-7.5,10-7.2,17-1.3,27.5c53.2,93.5,83.8,193.7,84.1,301.7c0.5,183-73.7,331.6-211.7,449.8
			c-4,3.4-8.1,6.5-12.1,10c-0.9,0.7-1.1,2.2-1.8,3.9c23.3,12.4,47.3,23.7,69.9,37.3c107.2,65.1,168.5,158.9,175.6,285.5
			c8.4,149.4,7.5,299-12.9,447c-25.7,185.8-88.5,357.8-220.8,497.3c-82,86.3-184.1,136.8-298.8,164.6
			c-88.7,21.5-179.1,27.5-269.6,30.3c-122.5,3.8-245.1,8.1-367.5-2.8c-149-13.3-292.9-43.5-420.6-126.4
			c-143.9-93.4-226.4-227.1-253.1-395.8c-24.1-152.2-0.6-299.8,43.8-445.4c28.4-93,60.1-184.3,112.4-267.5
			c60-95.5,139-170.1,237.3-224.9c6.7-3.8,13.4-7.6,22.6-12.8c-125.3-44.4-212.9-123.8-234.1-256.5
			C705.4,1103.6,763.3,1000.9,870.7,917.4z M1471.2,2922.6c88,0.3,189.8-2.4,290.7-16.2c120.1-16.4,232-53.7,325.5-135.2
			c77.9-68,131.2-153,170.9-247.1c46.9-111.5,73.9-227.8,78.7-348.8c4.5-113.3,11.6-226.6,4.1-340.2c-7-105.8-52.9-189.6-143.7-244
			c-148.2-88.9-306.3-103.6-470.1-50.6c-51.5,16.7-86.7,53.6-110.2,102.2c-16.7,34.5-23.5,71.5-30.4,108.6
			c-2.7,14.4,0.1,20.6,15.5,23.6c58.5,11.3,111.5,35.8,158.8,72c154.7,118.4,157.5,322.6,6.2,444.7
			c-141.6,114.3-367.9,117.1-512.2,6.2c-161-123.7-158.9-335.5,4.7-455.5c75.3-55.2,160.9-78.4,253.3-78
			c12.7,0.1,18.6-1.9,19.3-16.1c2.2-42.4,4.7-84.6-1.3-126.9c-12.1-85.5-52.6-129.9-137-144.4c-62.6-10.8-126-9.2-189.1-2.9
			c-184.7,18.3-333.1,100.8-442.8,251.4c-62,85.1-96,182.7-126.5,282.1c-42.7,139.2-66.8,280.2-44.1,425.9
			c26.1,167.2,110.1,295.8,257.5,381.3c79.4,46.1,165.9,71.8,255.5,87.8C1221.4,2923.3,1339.2,2926.2,1471.2,2922.6z M1053,860.7
			c-13.2-24.2-21.4-46.5-23.1-70.9c-3.3-46.5,19.2-83,46.7-116.8c21.4-26.3,34.9-54.6,33.8-89.1c-0.4-11.7,0.8-23.4,1.7-35.1
			c2.8-37.9,19.8-68.6,48.8-92.4c38.6-31.8,83.8-43.4,133.2-41c39.3,1.9,77.4,10.6,114.6,23c38.3,12.8,73.7,10.4,106.8-15.9
			c21.4-16.9,45.1-30.5,72.6-36.9c94-21.8,208,26.6,261.8,113.6c43.5,70.4,49.2,145.5,22.4,223.4c-2.5,7.3-9.2,15.7,7.4,15.6
			c93.2-0.8,186.6,4,279.3-8.2c60.3-7.9,98.3-30.6,105.3-99.7c7.8-76.8,6.9-153.4,3-230.4c-3.2-64.2-31.5-112.6-81.3-150.9
			c-47.6-36.6-100.4-63.1-156.9-81.9c-249.7-83.3-503.5-94.3-756.2-22.6c-292.9,83-468.9,285.2-549.8,574.4
			c-10,35.9-11.7,73.5-2.1,110.3c7.3,28.2,18.1,36.2,46,39.2c31.3,3.4,62.5,1.2,93.8,0C923.7,866.2,986.7,863.4,1053,860.7z
			 M1717.4,1149.6c10.4,0,20.9-0.4,31.3,0.1c88,4,130.4,40.5,146.8,127.1c10.5,55.2,15.4,111,14.5,167.2
			c-0.2,13.5,1.9,19.2,17.5,19.5c41.1,0.7,82.4,4.8,121.8,16.3c26.3,7.7,44.4,1.8,65.1-14.7c218-173.9,265.7-454.9,130-697.9
			c-4.1-7.3-7-11-16.3-6.6c-23.7,11.3-49.4,16.9-75.3,19.4c-13.5,1.3-17.8,6.2-20.7,19.4c-15.9,71.6-74.9,126.1-149,118.6
			c-27.9-2.8-55.6-6.8-82.1-16.4c-7.9-2.9-14.4-3.2-22.1,1.4c-82.9,49.1-168.5-11.1-193-79c-4.7-12.9,1.7-32-12.5-38
			c-12.3-5.2-28.3-0.8-42.6-2.1c-15.3-1.4-17.7,2.9-15.2,18.4c23.1,144.4-115.1,258.5-251.3,208.9c-12.3-4.5-24.8-21.3-37-10.9
			c-9.7,8.3-12.1,25.3-17.3,38.6c-2.1,5.4-3.5,11.2-4.7,16.9c-17.1,77.1,23.4,131.7,102,137.5c27.5,2,54.7-0.7,81.4-7.3
			C1563.9,1167.2,1639.1,1148.4,1717.4,1149.6z M1579,1610.9c41.3-75.3,104.4-114.2,182.3-131.6c27.3-6.1,54.7-12.2,82.8-13.3
			c13.6-0.6,19.3-4.7,19-19.6c-1.3-53.5-4.4-106.8-14.6-159.4c-12.8-66.3-33-84.2-100.2-89.6c-7.1-0.6-14.3-0.5-21.5-0.6
			c-73-0.5-143.5,14.7-213.7,32.6c-40.6,10.4-81.7,15.9-123.9,10.1c-92.1-12.7-146.4-83.8-133.8-175.6c4.3-31.5,14.3-60.8,29.4-88.5
			c4.9-9,6.5-15.3-1.5-23.8c-11.6-12.4-20.4-27.2-26.3-43.2c-3.7-10.1-9.5-11.7-19.3-11.1c-35.1,2.4-70.3,3-105.4,6
			c-53.7,4.7-108.2,1.6-160.7,18.8c-107.1,35.2-191.7,136.2-200.1,240.8c-8.9,111.4,46.9,208.1,149.8,261.5
			c14,7.3,19.4,7.8,25.6-9.3c20.3-56.5,60.8-91.2,120.3-102.4c33.7-6.4,67.6-3,101.4-1.9c35,1.2,66.7-4.9,94.8-28.3
			c27.6-23,60.3-28.4,95.5-20.1c20.4,4.8,39.8,12,59,20c40,16.6,81,18.9,122.6,8.7c38.5-9.5,76.5-21.3,115.1-30.2
			c83.1-19.1,140.2,22.5,148.3,106.9c0.5,5.2,4.2,14-3,15.4c-12.7,2.3-26.5,3.9-38.8,1.1c-9.7-2.3-6.5-15.5-8.1-23.9
			c-8.3-43.5-32.7-61.7-76.2-55c-32.9,5.1-64,17.4-96.1,25.6c-43.9,11.3-87.9,18.6-133.4,10.4c-26.5-4.8-51.1-15.1-75.9-25
			c-31.9-12.7-61.3-13.8-89.3,10.6c-23.8,20.7-53,29.3-84.6,31.5c-33.3,2.3-66.4-2.6-99.7-1.3c-53,2-95.3,32-108.5,77.4
			c-1.9,6.4-7.1,14.1,5.4,16.1c24.4,3.9,48.3,8.4,73.3,0.7c107.1-33.1,217.1-35.4,327.2-23.1c83.3,9.3,142.5,54,170.2,135.4
			C1571.4,1577.4,1574.2,1592.2,1579,1610.9z M1700.8,735.2c0,0.7,0,1.5,0,2.2c31.3,0,62.6-0.9,93.9,0.4c15,0.6,22-5,27.5-18.3
			c17.2-41.5,21.8-83.9,14-128.2c-23.1-131.2-199-214.4-299.9-126.2c-37.5,32.7-83.6,36.6-131.1,22.1c-46.2-14.1-92.4-27.6-141.7-23
			c-60.4,5.6-105,46-104,98.5c1,55.2-12.4,104.2-49.5,146c-6.9,7.7-12.7,16.5-18.1,25.4c-21.8,36-18.1,78.1,8.9,108.9
			c7.7,8.7,16,14,28.6,13c31.2-2.5,62.4-4.2,93.7-5.3c13.2-0.5,18.5-3.7,18.7-19c0.9-82.1,52.9-152.4,129.3-177.3
			c78.6-25.7,161.5,1.1,211.6,69.2c6.7,9.1,13.6,12.1,24.3,11.9C1638.2,734.9,1669.5,735.2,1700.8,735.2z M1484.7,2331.2
			c104.3,0.1,180-23.4,241.4-68.3c131.3-95.9,140.5-258,20.8-365.5c-134.9-121.2-375.5-112.2-498.8,18.8
			c-92.4,98.1-84.8,239.6,17,327.9C1334.5,2304.2,1415.8,2329.7,1484.7,2331.2z M1429.3,973.5c76.7,0.5,139.9-60.4,140.6-135.5
			c0.7-82.1-58.8-143.9-139.3-144.7c-77.3-0.8-140.9,61.9-141.5,139.6C1288.4,910.2,1351,972.9,1429.3,973.5z M2085.5,785.8
			c-37.5,0-73.8,0-110.1,0c-12.3,0-26.7-3.6-36.5,1.5c-11.2,5.9-2.9,22.6-7.2,33.8c-0.5,1.2-0.9,2.6-0.8,3.8
			c0.8,11.7-13.8,24.5-3.9,33.2c8.2,7.1,23.2,6.5,35.3,8.9c4.4,0.9,9.1,0.7,13.6,1.2C2033.8,874.8,2072.3,846.5,2085.5,785.8z
			 M1807.9,785.5c0-0.1,0-0.1,0-0.2c-21.5,0-43,1-64.4-0.3c-16-0.9-17,5.5-13.2,18.1c9.1,30.1,28.6,51.3,56.7,63.2
			c50.5,21.3,99.7-13.2,99.4-68.1c0-9-2.5-13-12.1-12.8C1852.1,785.8,1830,785.5,1807.9,785.5z"/>
		<path class="st0" d="M1484.4,2428.8c73.1,1.2,146,0.7,216.6-22.8c140-46.6,234.4-180.5,237.4-327.9
			c2.9-141-90.4-285.9-243.8-334.8c-28.9-9.2-10-24.7-9-37.7c1.5-19.2,14.1-11.8,24.2-8.4c218.3,72.3,329.3,300.8,250.4,517
			c-4.5,12.4-1,18.6,6.7,27c88.2,96.2,83.9,242-9.1,324.4c-67.4,59.7-173.6,71.3-257.4,26c-9.8-5.3-15.2-6.7-24.1,3.2
			c-69.9,77.6-156.3,111.2-258.6,82.9c-104.8-29-170.3-100.7-195.1-206.3c-6.3-26.9-16.4-41.9-41.4-55.5
			c-107-58.3-164.5-153.6-185.4-270.9c-20.2-113.7-2.7-221.1,69.1-315c63.9-83.5,151.4-124.8,254.4-136.5
			c34.5-3.9,68.8-4.4,103.4-0.5c9.6,1.1,13.3,1.8,11.6,13.2c-6.5,43.6-0.9,33.7-43,32.6c-120.7-3-225.8,30.2-298.3,133.7
			c-103.9,148.4-60.9,387,87.1,487.7c52.3,35.6,111.8,52.3,173.7,60.3C1397.1,2426,1440.7,2429.3,1484.4,2428.8z M1268.7,2454.3
			c7.3,96.4,116.2,188.5,217.9,184.9c98.4-3.4,201.4-94.2,201.8-176.9C1548.4,2485.6,1409,2481.7,1268.7,2454.3z M1982,2413.4
			c-0.1-55.3-13.7-93.2-39.1-127.1c-6.6-8.8-10.5-13-18.5,0.1c-41,67.5-97.2,118.3-169.7,150.3c-7.8,3.4-12.2,7.2-13.5,16.6
			c-3.7,27.2-11.2,53.6-23.6,78.2c-4.5,9-3.6,13.9,5.6,18.4c59.8,29,119.6,30.7,177.8-2.7C1956.9,2515.1,1980.8,2463.8,1982,2413.4z
			"/>
		<path class="st0" d="M1030.1,1130.2c0,42.2-34.8,77.5-76.6,77.7c-42.2,0.2-76.8-34.3-77.2-76.9c-0.3-43.4,34.7-78.7,77.5-78.2
			C996.1,1053.3,1030.1,1087.8,1030.1,1130.2z M982.5,1130.6c0.3-15.6-11.9-28.2-27.9-28.8c-17.4-0.7-30.1,10.9-30.4,27.9
			c-0.3,16,11.4,28.4,27.5,29C968.7,1159.3,982.2,1147,982.5,1130.6z"/>
		<path class="st0" d="M1676.5,2093.2c-0.1,102.9-82.4,185-185,184.8c-102.9-0.2-184.7-82.3-184.6-185.3c0.1-103,82-184.7,185-184.6
			C1594.8,1908.3,1676.6,1990.2,1676.5,2093.2z M1490.8,2229.4c77,0.1,137.4-59.1,137.8-135c0.4-76.7-60.9-138.8-137-138.7
			c-75.4,0.1-136.8,61.5-136.9,137C1354.5,2169.1,1414.5,2229.4,1490.8,2229.4z"/>
	</g>
</g>
</svg>
