<?xml version="1.0" encoding="utf-8"?>
<!-- Generator: Adobe Illustrator 23.0.0, SVG Export Plug-In . SVG Version: 6.00 Build 0)  -->
<svg version="1.0" xmlns="http://www.w3.org/2000/svg" xmlns:xlink="http://www.w3.org/1999/xlink" x="0px" y="0px"
	 viewBox="0 0 3000 3000" style="enable-background:new 0 0 3000 3000;" xml:space="preserve">
<style type="text/css">
	.st0{stroke:#000000;stroke-width:10;stroke-miterlimit:10;}
</style>
<g id="Layer_1">
</g>
<g id="Layer_2">
	<g>
		<path class="st0" d="M2738.7,1348.3c30.1,4.4,55.6,7.5,80.8,12.1c80.6,14.6,117.4,62,116,153.6c-0.8,52.6-18.9,100.8-49.8,143.6
			c-6.8,9.4-9.2,18.5-7.9,29.8c4.4,37.5,1.7,74.2-15,108.8c-3.8,7.9-1.3,14.9,0.9,22.7c14.3,51.5,15.8,102.9-4.2,153.4
			c-3.4,8.5-3.2,16-0.3,24.7c16.3,49.5,21.2,99-1.9,148.2c-3.1,6.6-2.3,13.8-1.8,21.1c5,69.2,11.8,139.8-8.7,206.6
			c-26,84.9-50.7,171.2-95.6,248.9c-78.6,136.2-200.3,213.9-349.9,252c-93.6,23.8-189.3,35.1-284.9,47.4
			c-69.4,8.9-138.8,17.8-209.1,17.2c-38-0.3-75.5-4.6-112.6-12.8c-52.6-11.5-97.2-36.8-132.8-77.3c-6.9-7.8-10.5-10.8-19.5-1.9
			c-82.5,81.3-182,111.8-295.9,95.9c-17.8-2.5-33.7,2.8-50.5,4.9c-73.2,9.3-146.8,9.8-220.4,6.1c-48.5-2.4-96.7-9.1-145.1-12.5
			c-30.9-2.2-62.3,6.2-93.6,7.8c-90.7,4.7-179.9-4.2-265.5-36.6c-80.3-30.4-129.7-86.2-139.5-173.4c-5.5-49.3,5.3-92.1,51.1-119.9
			C338.9,2508.3,298.8,2310.5,389,2154c8.5-14.8,0.9-17.8-8.8-23.5c-127.3-75.8-218.3-182.4-270.7-321.3
			c-33.7-89.2-45.3-182.3-49.5-277.1c-9.5-215.4,38.1-418,132.6-610.9C245.3,814,306.2,711.5,366,608.4
			c41-70.7,69.9-144.7,84.3-225.1c8-44.9,26.9-85.9,58.8-119.5c38.9-40.9,85.4-53.6,140.5-37.7C766.5,259.9,864,393.7,859.1,515.2
			c-0.4,9,0,18,0,31.8c25.8-38.7,50.1-73.5,77.1-106.1c124.3-149.8,284.3-242.1,469.7-294.8c167.3-47.5,337.1-68,510.8-51
			c74.8,7.3,148.3,21.6,220.7,41.8c11.5,3.2,21.1,2.4,32.5-2.5c55.6-24.2,114.9-27.7,174.4-26c109.3,3.1,213.4,27.6,310.3,79.9
			c145,78.3,227.8,199.7,258.1,361.2c18.5,98.6,12.7,196.1,2.9,294.3c-10,100.2-18.8,200.4-29.4,300.5
			c-6.5,61.4-22,119.5-71.4,162.6C2793.6,1325.4,2767.6,1335.2,2738.7,1348.3z M2825.7,1717.4c-21.1,8-40.4,17.9-60.8,22.6
			c-140.9,32-283.9,40.6-427.9,35.9c-3.4-0.1-9.6-1.7-9.6-2.5c0-14.9-1-30.1,2-44.5c2.1-10.1,13.4-4.9,20.3-4.7
			c126.8,3.4,252.5-6,377.4-29c80.8-14.9,131.3-56.3,153.1-156.9c17.3-80-13.7-120.9-94.5-130.8c-46.8-5.7-93.8-8.8-141.1-8.9
			c-125.1-0.4-250,6.3-374.7,13.8c-49,2.9-98.2,7.2-144.7,26.5c-182.1,75.8-298.6,215.6-377.7,390c-34.4,75.8-37.5,159.4-44.3,241.1
			c-10,121-17.1,242.3-24.6,363.5c-5.7,92-8.9,184.1-6.1,276.4c2.7,89.2,32.7,137.1,134.3,164.4c45.2,12.1,91.8,14.4,138.3,11
			c144.6-10.7,288.7-27.4,430.2-59.5c148.2-33.6,267.1-109.6,340.2-247.5c8.2-15.5,16.6-31,20.7-49.8c-23.2,3.8-44.7,8.2-66.4,10.6
			c-89.5,9.9-179.5,13.2-269.5,15.1c-34.1,0.7-33.6,0.7-35.8-33.7c-0.9-13.8,2.6-19.2,17.3-19.1c92.2,0.2,184.1-5.8,276-13
			c77.6-6.1,112-31.3,133.3-105.9c16.5-57.6,18.8-116.6,12.9-177.3c-13.5,4.6-26,9.5-38.8,13.3c-56.5,16.7-114.9,22.4-173.2,27
			c-84.1,6.6-168.4,9.4-252.7,3.2c-11.3-0.8-15.5-4.2-13.3-15.4c1.1-5.6,2.1-11.5,1.5-17c-1.9-17.6,6.3-21.4,22.3-20.1
			c66.4,5.4,132.9,3.4,199.2-0.3c65.6-3.7,131.2-9.2,195-25.9c64.5-16.9,89.8-64.6,70.2-130c-21.5,15.8-43.8,30.2-68.7,38.7
			c-131.6,45-266.7,68.2-406.2,62c-4.1-0.2-11.3-1.1-11.6-2.8c-3.2-14.8-1.4-30,1.8-44.3c2.1-9.4,13.6-4.6,20.7-4.5
			c132.9,3.3,261.8-17.1,386.1-64.3c64.5-24.5,98.8-92.6,83.8-160.2c-2.2-10-4.5-13.6-15-7.5c-21.7,12.7-45.6,20.4-69.9,26.3
			c-117.8,29-237.6,41-358.5,44.9c-11.4,0.4-15.7-3.3-15.1-14.4c0.4-6.4,0.4-13-0.6-19.3c-2.4-15.2,4.5-20.4,19-20.1
			c48.7,1,97.1-3.4,145.3-8.9c78-8.9,156-18.3,230.8-43.8C2804.9,1805.1,2827.5,1770.9,2825.7,1717.4z M1153.7,1859.2
			c27,28.2,45.1,60.3,56.7,96.1c2.8,8.7,9.5,13.9,15.8,19.7c31.9,29.5,53.6,64.6,60.6,108.1c12.6,77.6,3.2,153.9-14,229.5
			c-31.6,138.8-102.6,248.6-235.4,310.9c-79.3,37.2-163.9,52.1-250.7,57.4c-79.8,4.9-158-9-236.6-19c-48.4-6.2-68,13.3-66.7,61.6
			c1.8,66.8,39.4,116,112,141c129.1,44.5,260.2,44.1,389.9,5.9c203.9-59.9,343-195,432-385.1c12.8-27.4,12.4-26.4,41.1-16.2
			c16,5.7,18.7,11.9,11.7,27.5c-70,155.9-175,280.3-325.2,364.4c-23.3,13.1-47.8,24.1-75.9,38.1c72.2,6,139.6,3.3,207-2.3
			c45.8-3.8,82.2-26.9,113.5-58.8c13-13.2,25.1-27.4,36.2-42.3c65.3-87,101.9-187.5,134.7-289.7c11.3-35.4,3.7-29.7,40-21.5
			c0.7,0.2,1.3,0.5,2,0.8c16.7,7.8,21.6,1.8,22.4-15.8c6.9-152,16.3-303.8,30.6-455.3c9.3-98.7,28.7-194.1,80-281.7
			c81.3-138.6,184.1-254.1,331-325.4c3-1.5,7.1-2.1,6.4-6.9c-30,0-59.9-0.2-89.8,0c-92.9,0.8-185.8,1.4-278.7,2.9
			c-14.4,0.2-21.7-2.8-19.2-18.5c0.7-4.2,0.7-8.6,0-12.8c-2.6-16.5,3.6-21.5,20.7-21.5c86.5-0.1,172.9-1.8,259.4-2.7
			c36.6-0.4,73.3-0.1,112.7-0.1c-41.2-56.4-49.2-78.3-55.4-145.4c-2.7-29.4,0.8-58.6,3-87.7c0.8-10.7-0.9-14.9-12.3-17
			c-33.2-6-66.6-8.8-100.1-9.6c-130.2-2.9-251.6,28.4-364.2,93.9c-10.3,6-15.8,9.9-8.3,24.1c33.9,64.4,31.3,128.7-10.8,188.1
			c-42.8,60.4-103.7,83.8-176.2,71.7c-21.8-3.6-20.8,3.6-19.2,19.6c11.6,116.5-21.2,218.7-99.6,306
			C1211.4,1817.8,1183.5,1838.7,1153.7,1859.2z M409.4,2086.3c2.9-10.9,3.8-19.8,7.6-27.3c11.8-23.2,11.5-44.7,4.5-70.7
			c-18.7-69.3,6-116.9,70.7-148.8c28.9-14.2,58.6-26.2,89.5-35.5c93.5-28.3,189.1-41.5,286.7-39.4c68.1,1.5,138,3.5,198.1,37.5
			c41.4,23.5,67.8,11.7,96.8-14.8c3.7-3.4,7.5-6.6,11.2-10c88.9-82,120.6-184.2,106.8-302.4c-3-25.7-11.1-47.8-30.3-68.2
			c-39.4-41.6-50.4-94-39.6-149.5c3.8-19.4-2.3-21.6-18.2-21.4c-47.9,0.4-95.8-0.5-143.6,0c-75.1,0.8-149.3,12.2-224,17.9
			c-14.1,1.1-13.1,11-14.2,19.6c-10.7,79.3-36,154.2-70.1,226.2c-41.9,88.6-110.3,129.1-208.3,121.8c-86.7-6.5-146-59.9-134.3-154.3
			c1.9-15.6,3.7-31.3,7.8-46.4c30.6-113.7,71.2-224.1,110.1-335.1c38.1-108.6,91.4-209.1,165.9-297.8
			c31.7-37.7,61.7-76.7,84.1-121.2c7.4-14.7,7.7-27.2,0.8-42.3c-49.7-108.5-126.8-190.6-233.2-245c-25.4-13-26.7-13.4-32.2,14.4
			c-14.8,75.4-37.6,147.8-76.1,214.8c-37.7,65.6-74.6,131.5-111.9,197.3c-74.4,131.5-139.5,266.7-174,415.1
			c-29.9,128.8-33.7,258.9-21.6,389.9c8,86.9,29.7,170.3,70.7,247.6C239.9,1954.5,312.7,2030.2,409.4,2086.3z M2094.4,180.5
			c-41.4-12.1-82-19.3-122.6-25.5c-146.3-22.4-291.9-16.3-436.6,13.4c-128,26.3-251.3,65.6-363,135.3
			c-159.5,99.5-268.7,241.1-340,413.2c-45,108.4-73.3,220.7-72.5,339c0.3,40.1,5.3,79.8,23.7,116.5c9.8,19.5,23.6,31.7,47.3,28.9
			c32.5-3.8,65.1-7.4,97.7-10.1c13.6-1.1,18.4-7.3,18.4-20.2c0.1-34.5,6.6-68.1,13.7-101.7c90-428.9,534.7-690.8,951.9-528.1
			c13.4,5.2,18,3.5,20.7-11C1957.4,401,1996.4,278.3,2094.4,180.5z M1895.8,1034.5c12.8,0.6,25.7,0.9,38.5,1.8
			c48.4,3.6,52,1.5,71.5-43.5c1.4-3.3,3.1-6.5,4.1-9.9c20-68.8,19.7-133.7-36.2-188.1c-14.5-14.1-24.5-31.6-31.4-50.6
			c-13.6-37.4-20-76.3-17.5-115.7c1.2-19.9-5-28.8-23.3-35.7c-236.5-88.3-455.4-56.5-653.1,99.9
			c-151.3,119.7-229.1,281.1-249.2,471.6c-1.6,15.1,0.9,21.5,18.6,20.5c69.9-3.9,139.8-2.9,209.7,0.5c11.6,0.6,18.1-4.1,25.3-12
			c60.2-66.3,154.4-78.9,229.7-30.1c11.6,7.5,19.3,6.8,30.2-0.1c56-35.1,116.2-60.9,179.7-79.1c38-10.8,38-10.7,29-50.4
			c-22-97.5-92.4-160.6-193.3-173.2c-35.6-4.5-34.3-4.5-36.2-35.3c-1.2-18.6,6.1-20.8,21.8-19.9c139.2,7.7,243.6,102.6,262.3,240.2
			c2,14.7,7.1,19.5,21.7,16.8C1830,1036.3,1863,1036.1,1895.8,1034.5z M2121,1014.2c-19.2,12.6-27.6,29.4-32.4,48.1
			c-12.9,50.3-17.5,101.5-12.4,153c7.7,77.6,43.5,113.7,120,123.2c92.4,11.4,184.9,15.2,278,9.3c89.8-5.7,176.4-24.3,260.7-55.4
			c50.2-18.5,79.8-53.8,90.2-105.2c6-29.3,10.7-59.1,13.6-88.8c8.9-88.8,16.4-177.7,24.9-266.5c8.6-90.4,15.6-180.1-2.5-270.8
			c-22.2-111.1-66.7-207.4-158.3-278c-114.6-88.4-246.1-121.7-388.8-122.6c-128.9-0.8-213.7,61.2-266.4,175.4
			c-28.6,62-49.9,126.1-61.5,193.2c-10.9,62.8-18.2,126.1,2.9,188.6c16.4,48.5,48.4,71.3,99.1,73.1c16.1,0.6,19.2-3.1,14.8-19.2
			c-19.3-70.5-19.5-141.5,3.2-211.2c37.6-115.2,115.4-189.9,234.1-215.4c120.3-25.9,222.4,9.8,304.6,102.7
			c52.7,59.6,71.2,131.1,73.6,207.6c4,123.6-1.3,247.2-9,370.6c-3.5,54.8-17.5,107.2-49.5,153.1c-103.3,148.3-333.5,158.2-456.4,20
			C2157.4,1146.7,2130.6,1085.7,2121,1014.2z M426.5,2195.7c-14.7,23.9-22.3,47.8-27.3,72.1c-20.5,100.8,12.1,189,68.8,269.8
			c20,28.5,51.5,41.4,86.4,46.2c17.1,2.4,23.7,0.2,24.5-19.3c2.9-71.9,52.1-136.6,119.5-160.4c66.6-23.5,143.6-3.5,192.2,49.1
			c10,10.9,16.6,33.1,28,31.9c12.4-1.3,23.6-18.7,34.5-29.9c65.7-66.8,115.8-142.9,138.7-234.9c16.1-64.8,1.3-99.5-57.5-131
			c-81.6-43.6-168.5-56.2-259.5-40.4c-67,11.6-127,38.1-175.3,87.2c-23.7,24.1-22.3,33.1,7.5,49.9c21.1,11.9,43.9,20.8,64.5,33.4
			c37.5,23,37.7,59.4,1.9,84.3c-49.5,34.4-126.3,30.3-171.8-9.2C470.3,2267.6,445.8,2235.3,426.5,2195.7z M2665,835.1
			c1.6-70.7,5.5-141.3-1.4-212c-15-152.4-152.5-256.9-302.9-228.9c-183.3,34.1-250.7,219.7-204.5,372.9c3.4,11.4,8.2,8.4,15.2,4.8
			c29.7-15.3,47-50.7,43.7-88.9c-2.6-29.9-5.6-59.7-7-89.7c-3-63.6,32-106.4,94.7-117.1c131.8-22.5,245.5,65.2,257.6,199.3
			c7.9,86.7-1.2,172.7-15.6,258c-18.3,108.5-89.1,169-190.6,196.4c-65.5,17.7-135.3,0.7-137.1-99.7c-0.1-7-1.4-14.4-4-20.8
			c-6.1-15.1-19.9-19.5-33.5-16.1c-12.7,3.2-5.6,16-4.5,23.8c10.3,70.7,42,130.5,98.4,174.8c76.6,60.2,161.5,67.9,250.2,30.9
			c87-36.2,125.1-106.8,133.6-197.2C2663.1,962.2,2662.5,898.6,2665,835.1z M2061.7,995.5c30.8-30.5,62.4-48.6,100.3-54.7
			c58.7-9.3,101.3,22.8,107.3,81.4c0.7,6.4,1.2,12.8,1.9,19.2c3.9,34,14.7,43,48.8,41c76.3-4.4,153.2-66.7,169.4-141.7
			c18.4-85.5,24.6-172.7,18.4-259.7c-7.4-103.7-92.7-169-194.4-153.4c-37.2,5.7-54.6,24.9-53.1,62.4c1.1,29.9,5.4,59.7,7.2,89.6
			c2.9,48.9-10,91.8-49.9,123.6c-40.1,31.9-86.4,42.2-136.5,39.6c-7.9-0.4-18.5-5.2-14.2,10.9
			C2079.2,899.6,2076.7,945.3,2061.7,995.5z M716.3,2627.4c72.9,4.5,144.4-2.7,214.7-21c131.2-34.1,225.4-110.4,271.5-240.7
			c28.5-80.4,40.2-163.4,36.6-248.5c-2-47-22.1-85-60.4-113c-54.2-39.5-116.9-55.3-181.6-65c-99.7-14.9-199.7-8.6-299.4,0.6
			c-50.6,4.7-100.7,13.6-145.8,39.2c-46,26.1-82.1,61.9-89.2,116.4c-9,68.7,27.3,119,76.2,161c29.9,25.8,64,21,99.1,7.6
			c-6.9-9.9-16.5-11.8-24.7-15.6c-18.9-8.7-37.3-18-53.8-30.7c-25.3-19.4-33.7-47.6-24.7-78.1c6.7-22.5,22.2-37.9,38.9-52.6
			c64.5-56.7,140.6-86.5,225.3-94.5c98-9.3,190.8,8.2,275.7,59.6c60,36.3,87.4,90,72.7,155.8c-36.6,163.9-125.5,290-277.7,367.2
			C821.2,2599.9,768.8,2613.7,716.3,2627.4z M747.7,793c-5.9,5.5-8.1,7.2-9.9,9.3c-60.9,72.6-113,150.8-148,239.4
			c-48.8,123.5-89.8,249.6-129.2,376.4c-7.8,25.2-11.4,51.4-10.7,78.2c0.7,27.2,13,46.1,36.2,58.7c56.7,30.7,160.9,14.3,196.6-56.5
			c40.5-80.4,68.4-164.4,79.7-253.8c1.1-8.4-0.5-14.8-6.6-21.2c-18.5-19.7-29.1-43.7-35.8-69.7c-19.8-77.1-14.2-154.4-2-231.8
			C724.7,879.9,735.7,838.8,747.7,793z M1260.7,1291.6c0,70.3,54.5,125,124.6,125c69,0,124.4-54.6,124.9-122.9
			c0.5-71.8-53.7-126.8-125-126.8C1314.6,1166.9,1260.7,1220.8,1260.7,1291.6z M1130.9,1918.1c-1.4-9.7-7.5-13.9-12-18.9
			c-38.1-42.6-88.5-61.6-142.6-71.4c-100.2-18-200.3-12.9-299.8,6.6c-60.4,11.9-119.1,29.1-173.6,58.5
			c-30.9,16.7-42.2,46.9-28.7,77.7c39.4-36.6,86.3-59.4,137.9-69.6c126.1-24.8,253.5-28.8,381.3-15.2
			C1040.1,1890.9,1085.3,1903.1,1130.9,1918.1z M798.1,567.5c31.8-119.4-50.3-261.4-164.2-292.1c-36.2-9.8-65.8,0.1-90.4,27.6
			c-9.7,10.8-13.2,17,4.5,25.1c72.3,33.3,133.4,81.7,184.6,142.7C756.9,499.7,777.8,530.8,798.1,567.5z M1408.9,2893.9
			c89.3-4.6,158.5-38.8,213.5-102.6c5.1-5.9,6.4-11.4,4.9-19.4c-9-49.4-9.6-99.3-8.6-149.4c0.8-40.4,0.2-80.9,0.2-125.1
			C1572.4,2642.1,1523.2,2782.4,1408.9,2893.9z M757.5,2446.4c-64.2-0.8-122.1,53.5-127.2,118.6c-1.1,13.9,2.2,19,17.1,17.4
			c74.5-7.8,145.3-27.8,212.7-60.4c10.3-5,9.8-9.4,4-17.3C837.8,2468.5,802.5,2448.7,757.5,2446.4z"/>
		<path class="st0" d="M1335.9,2097.5c1.5-29.8,10.9-50.5,24.7-69.2c29.6-40.1,70.2-66.4,113.1-89.9c7.8-4.2,11.7-2.6,14.4,5.1
			c0.5,1.3,1.2,2.6,1.8,3.9c16.4,31.3,16.3,31.3-13.2,49.3c-30.7,18.7-59,40.3-78.9,71c-16,24.7-11.5,37.2,16,46.1
			c5.4,1.8,11.1,4.3,16.5,4.2c19.4-0.4,22.4,7.9,20.6,26.4c-2.9,29.9,2.2,31.2-34.9,24.4c-19-3.5-37.1-10.4-52.9-22.2
			C1344.7,2132.9,1335.6,2114.4,1335.9,2097.5z"/>
		<path class="st0" d="M1449.9,1284.1c-0.2,36.6-28.8,64.5-65.7,64c-35.7-0.5-63.4-28.4-63.6-64c-0.2-36,29-65.6,64.7-65.6
			C1421,1218.5,1450.1,1248.1,1449.9,1284.1z"/>
	</g>
</g>
</svg>
