<?xml version="1.0" encoding="utf-8"?>
<!-- Generator: Adobe Illustrator 23.0.0, SVG Export Plug-In . SVG Version: 6.00 Build 0)  -->
<svg version="1.0" id="Layer_1" xmlns="http://www.w3.org/2000/svg" xmlns:xlink="http://www.w3.org/1999/xlink" x="0px" y="0px"
	 viewBox="0 0 3000 3000" style="enable-background:new 0 0 3000 3000;" xml:space="preserve">
<style type="text/css">
	.st0{stroke:#000000;stroke-width:10;stroke-miterlimit:10;}
</style>
<g>
	<path class="st0" d="M2820,602.6c-90-210.7-290-289.8-493-250.8c-97.5,18.7-167.7,78.1-220.5,159.7c-9.6,14.9-15.5,17.1-31,6.1
		c-143.5-102.4-302.3-165.6-478.6-180.8c-232.3-20.1-444.9,35.1-635.3,170.9c-15.3,10.9-22.6,12-36.5-2.6
		C755.7,327,460.1,340.8,306.8,532c-58.9,73.4-100,155.4-125.8,245.5c-47.4,165.5-70.2,335.2-78.2,506.5
		c-7,151.6,49.9,277.3,168,374.2c10.6,8.7,29.4,14.9,29.8,26.8c0.4,11-13.9,22.5-21.8,33.8c-106.2,153.5-139.2,328.2-137.5,509.6
		c0.5,56.8,13.6,107.8,38.8,152c41.6,72.9,106.7,108.9,124.9,118.8c12.8,6.9,38.4,19.7,73.1,28.9c20.6,5.5,62.2,13.7,113.7,10.1
		c48.4-3.5,95.7-16.9,141.7-39.9c13.7-6.8,25.3-7.5,39.6-3.2c29.8,9,337.8,83.9,520.3,109.5c19.5,2.7,52.3,7,93.9,10.4
		c76,4.8,146.8,10.1,217.8,9.8c286.4-1.3,566.1-41.8,834.4-146.1c99.6-38.7,179.7-92.7,179.7-92.7c26.6-17.7,47.6-33.6,61.3-44.4
		c28.2-26.1,54.6-49.6,76.7-77.8c111-141.7,152.6-306.2,157.1-482c3.4-133.2-16.9-263.7-55.5-391.3c-3.4-11.4-10.8-22.8-1.8-35.7
		c68.2-97.1,94.2-210,116.9-323.2C2903.7,883.1,2878.7,739.9,2820,602.6z M1429.7,387.4c229-20.4,434.9,42.9,621.5,174.7
		c12.2,8.6,14.5,14.3,6.7,27.7c-52.4,91.2-84.7,188.9-92,294.3c-1,14.4-4.9,17.9-20.3,15.8c-152.2-21.4-304.8-40.5-457.8-55.2
		c-68.3-6.6-135,3.5-196.6,36.1c-52.3,27.6-107.3,34.3-165.9,28.2c-104.8-10.9-179.5,40.9-239,121.3c-54.1,73.2-70,157.7-73.9,246
		c-3.5,78.7-7.5,157.3-1,236c0.2,2.6-0.5,5.4-1.1,9.9c-36.7-11.1-73.3-18.6-110.6-23.2c-28.8-3.6-57-2.5-85,3.7
		c-9.8,2.2-15.1,2.2-16.1-10.5c-28.7-341,68.6-638.3,315.3-878.7C1055.8,475.1,1232.6,404.9,1429.7,387.4z M863.7,1377.9
		c10.5-4.7,19.5,15.6,30.6,23.1c20.2,13.5,24.1,28.8,8.4,48.7c-6.3,8-10.1,17.9-15.1,27.1c-32.8-10.2-29.4-36-28.6-60.1
		C859.4,1403.1,853,1382.6,863.7,1377.9z M876.2,1177.5c17.9,11.7,24.4,24.4,10.4,42.7c-6.5,8.5-10.9,18.7-16.3,28.1
		C868.1,1223.9,869.7,1200.8,876.2,1177.5z M895.6,1332.3c-6.8-5.9-6-11.1-2.2-17.9c11.4-20.6,22.6-41.3,33.6-62.1
		c4.3-8.2,8.6-10.7,14.5-1.6c0.4,0.6,0.8,1.1,1.3,1.6c43.8,47.2,43.7,55.4-2.9,120.5C925.1,1359.2,910.7,1345.4,895.6,1332.3z
		 M1869.9,1016.6c17,14.2,17.7,24.9,5.2,42.1c-15.8,21.8-28.7,45.6-43.4,69.4c-2.4-1.1-3.3-1.2-3.6-1.7
		c-12.3-16.6-33.8-32.2-33.7-50.6c0.1-17.2,18.6-34.3,29-51.4C1843,992,1841.9,993.3,1869.9,1016.6z M1868.2,945.4
		c24.9-3.8,43.5,3.2,62.5,4.2c6.4,0.3,7.2,3.9,4.8,10.1c-10.7,28.6-18.5,30.7-40.8,10.1C1887.1,962.8,1879.5,955.8,1868.2,945.4z
		 M1794.5,1189c-12.8,20.6-25.5,41.2-40.2,65c-12.3-17.7-22.6-33.2-33.5-48.2c-4-5.5-3.4-9.8-0.1-15c11.7-18.8,23.4-37.6,34.8-56.6
		c4.5-7.5,8.1-8.1,13.3-0.7c8.8,12.5,17.7,24.8,27.2,36.8C1801.8,1177.5,1798.2,1183,1794.5,1189z M1798.7,966.8
		c-11.4,17.3-22.4,35-32.7,53c-6.3,11.1-10.4,9.9-16.9,0.2c-9.6-14.4-20.2-28.1-30.4-42.1c-12.8-17.5-7.7-42.7,11-52.5
		c2.8-1.5,6.6-1,10-1.5c22.4,0.9,41.9,7,57,25.1C1802.2,955.5,1803.4,959.6,1798.7,966.8z M1723.4,1071.3c4.5,6,4.5,10.4,0.6,16.6
		c-13.1,20.3-25.6,41-40.1,64.4c-19.4-28-37.6-54.4-56-80.7c-3.4-4.9-2.5-8.6,0.9-12.9c14.2-18.6,28.2-37.3,43.2-57.1
		C1689.7,1025.7,1706.3,1048.7,1723.4,1071.3z M1634.9,965c-13.9,18-27.6,36.3-42.2,55.5c-19.3-27.6-37-54.2-56.1-79.8
		c-8.4-11.3,0.3-17.7,4-25.9c3.7-8.3,8.7-11.3,18.9-11.9c37.3-2.4,58.6,18,75.4,47.4C1638.2,955.9,1638.9,959.8,1634.9,965z
		 M1558.1,1065.4c-20.4,27.9-40.8,55.7-63,86.1c-16.2-23-30-42.9-44.1-62.5c-4.8-6.6-4.2-12.3-0.3-19c15.1-25.6,30-51.4,44.6-77.3
		c4.4-7.8,8.4-10.9,14.1-1.4c1.1,1.8,2.6,3.2,3.7,5C1527.4,1019.9,1547.2,1039.7,1558.1,1065.4z M1418.5,1253.5
		c-7.2,8.5-11.4,8.2-16.5-0.9c-0.3-0.6-0.8-1.2-1.2-1.7c-31.2-41.7-31.2-41.7-4.4-87c6.3-10.7,12.6-21.3,20.1-33.8
		c3.6,4.8,5.3,7,6.9,9.2C1465.8,1198.2,1465.6,1198.1,1418.5,1253.5z M1463.7,944.7c-16.4,29-33.3,57.6-51.3,88.7
		c-21.3-30.4-41.1-58-60.3-86c-8.1-11.8,0.3-35.8,14.8-41c21.7-7.8,44.7-10.1,67.5-11.4C1449.9,894,1471.3,931.3,1463.7,944.7z
		 M1378,1074c4.1,5.8,5.1,10.8,1.4,17.1c-13.3,22.6-26.4,45.3-41.2,70.7c-20.2-28.8-38.8-55.7-57.8-82.3c-3.8-5.3-3.4-9.5-0.5-15.1
		c12.5-23.7,24.5-47.7,38.6-75.3C1339.8,1019.7,1358.7,1046.9,1378,1074z M1303.8,1221.8c-10.5,17.1-19.9,34.9-30.5,52
		c-12.7,20.5-26.9,18.6-42.9,1.2c-30.8-33.6-36-66-6.9-103.3c10.4-13.3,16.3-30,25.2-46.9c19.1,26.9,36.5,52,54.5,76.5
		C1308.7,1208.6,1308.4,1214.4,1303.8,1221.8z M1241.9,1024.9c-10.2-14.3-19.2-26.6-28-39c-9.3-13.1-4.9-22.7,9.1-27.1
		c19-5.9,38.5-10.3,61.8-16.3C1269.5,971.9,1256.1,997.6,1241.9,1024.9z M1196.8,1113.9c-12.6,17.8-21,38.6-31.9,59.3
		c-3.2-2.3-3.8-2.7-4.3-3.1c-28-27.7-34.6-56.7-8.2-90.1c9.3-11.7,14.6-26.7,21.4-40.5c4.3-8.7,8.5-10.4,14-1.3
		c1.1,1.8,2.2,3.7,3.6,5.1C1214.8,1065.2,1215.4,1087.7,1196.8,1113.9z M1138.2,998.1c-14.6,24-26.6,49.6-41.3,77.4
		c-6.4-9.1-10.4-14.7-14.3-20.4c-28.8-42.8-28.8-42.8-1.9-86c6.7-10.8,40.4-16,52.5-6.7C1145.7,972,1147.2,983.3,1138.2,998.1z
		 M1040.4,1184.6c-10.5,20.4-21.2,40.6-33.1,63.5c-14.8-17.4-27.9-33.2-41.6-48.6c-4.4-5-5-9.3-1.9-14.9
		c21-38.4,41.9-76.9,63.2-115.9c2.9,1.9,3.7,2.1,4.1,2.6C1071.1,1124.8,1071.1,1124.8,1040.4,1184.6z M1055.9,1384.7
		c-11.1,21.2-21.3,40.8-31.6,60.3c-0.5,0.9-2.7,2-3.3,1.6c-14.1-7.7-23.8-20.6-35.5-31.2c-7.5-6.8-0.2-12.5,2.6-18.2
		c7.3-14.8,15.3-29.4,22.4-44.3c4.6-9.7,8.7-13.2,16.7-2.6C1036.3,1362.3,1046.4,1373.4,1055.9,1384.7z M991.7,1025.5
		c-22.5,41.1-44.9,82.3-67.3,123.6c-2.6-1.8-4-2.3-4.8-3.3c-26.5-29.6-26.5-29.6-5.5-64.1c15.9-26.2,34.7-50.2,57.5-70.7
		c3.9-3.5,7.6-12.5,14.8-5.7C991.7,1010.3,996.5,1016.7,991.7,1025.5z M946.3,1476.9c2.8-5.5,5.9-10.8,9.5-17.3
		c5,4.3,9.2,7.7,13.1,11.4c29.9,28,29.7,27.9,9.8,63.6c-4.4,7.9-6.7,11.5-16.5,4.6C927.1,1514.3,926.7,1514.8,946.3,1476.9z
		 M987,1631.1c4.1-5.4,7.4-1,10.3,1.2c25.5,20,50.8,40.3,81,64.3c-9.6,0-12.4,0-15.1,0c-53.2-0.9-57.6-4-77.2-52.1
		C983.7,1639.3,983.7,1635.4,987,1631.1z M1020.7,1585.2c-6.8-5.2-5.9-9.6-2.5-15.7c6.1-10.8,11.8-21.7,17.7-32.7
		c38.8,25.4,51.2,47.6,59.4,107.5C1069.6,1623.8,1045.5,1604.1,1020.7,1585.2z M1069.2,1470.7c8.4-13.1,12.9-28.6,25.9-39.6
		c-3.4,23.3-12.3,45.1-15.3,69.3C1062.9,1494.1,1060.1,1484.8,1069.2,1470.7z M1081.7,1334.6c-11.9-13.6-22.1-25.7-32.8-37.4
		c-4.6-5-4.1-9.7-1.3-15.1c18.1-34.4,36.1-68.9,55.2-105.3c10.4,15.5,19.4,29.3,28.9,42.8c4.2,5.9,4.2,11.2,0.9,17.4
		C1115.9,1268.9,1099.3,1300.8,1081.7,1334.6z M1122.6,1368c15.2-29.6,30.7-59.1,46.7-89.8c2.7,2.2,3.9,3,4.7,4
		c22.7,31,22.4,30.6-6,56.2c-12.3,11.1-22.8,24.3-34.5,36.2c-3.2,3.2-4.7,12.1-12.3,6.3C1115.6,1376.5,1120.6,1371.9,1122.6,1368z
		 M1131.2,1503.4c18-108.9,116.5-186.7,226.7-177.6c-91.6,146-14.6,320.4,165.7,321.2c-23.4,72-139.1,121.5-232.3,99.3
		C1184.1,1720.7,1113.1,1613,1131.2,1503.4z M1499.3,1592.3c-90.1-4.8-146.6-86.4-124.6-176.6c6-24.6,16.9-46.9,31.9-67.4
		c7.1-9.8,13.4-11.3,24.2-5.9c80.9,40.5,122.4,106,126.5,187.9C1553.7,1599.7,1555.9,1595.3,1499.3,1592.3z M1551.4,1365.7
		c-5.5,6.6-9.8-3.9-13.4-7.7c-21.2-22.4-45-41.3-72.5-55.1c-11-5.5-15.2-9.6-5.3-20.7c11.5-12.8,21.1-27.2,33.1-43
		c23.6,33.7,46.4,65.7,68.4,98.2C1570.2,1350,1557.5,1358.4,1551.4,1365.7z M1529.6,1201c-4.4-6.2-0.2-10.5,3.1-14.8
		c18.7-24.8,37.6-49.5,58.6-77.1c20.4,29.6,39.7,57.8,59.3,85.7c4.3,6.1,0.9,10.3-2,15c-17,27.7-34.1,55.4-52.8,85.6
		C1573,1263,1551.3,1232,1529.6,1201z M1595.8,1394.7c2.4-4.3,5.9-0.2,8,2.4c2.5,3.3,4.9,6.8,7.2,10.2c29.1,41.8,29.1,41.8-6.2,86.1
		c-5-24.2-11-45.5-20.4-65.7C1577.5,1412.9,1590.1,1404.9,1595.8,1394.7z M1633.5,1332c15.4-24.8,30.8-49.6,45.9-74.6
		c5.2-8.7,9.6-8.8,14.7-0.3c0.4,0.6,0.7,1.2,1.1,1.7c30.9,40.2,30.9,40.2,3.8,84.6c-10.1,16.6-20.1,33.3-32.3,53.3
		c-12.4-17.5-22.9-32.9-34-47.8C1628.1,1342.6,1630,1337.6,1633.5,1332z M1703.6,1434.4c17.7-27.3,34.4-55.3,53.3-86
		c15,21.4,27.8,40.2,41.2,58.6c6.1,8.4,4.4,12-5,16.2c-23.4,10.4-46.3,22.1-69.3,33.4c-5.5,2.7-10.4,7.5-15.6-0.5
		C1703.6,1449.4,1697.1,1444.3,1703.6,1434.4z M1788.8,1303.7c-3-4.4,0.6-8,2.6-11.4c13.7-22.5,27.6-44.9,42.7-69.6
		c16.5,22.3,30.7,42.1,45.5,61.4c5.3,6.9,6.2,12.9,2,20.7c-12.7,24-24.8,48.3-38.9,76.1C1823.9,1354,1806.3,1328.9,1788.8,1303.7z
		 M1869,1182.9c-5.5-7.2-2.9-12.4,1-18.7c16.9-27.1,33.6-54.3,50.1-81.7c4.8-7.9,7.9-10.6,16.8-3.2c41.3,34.6,41.6,34.3,17.4,81.6
		c-13.3,25.9-26.6,51.8-41.8,81.4C1896.8,1220.7,1883.3,1201.5,1869,1182.9z M1920.7,1340.7c11,14.9,19.8,27,29.9,40.6
		c-17.8,8.5-36.1,4.9-56.4,12.1C1903.9,1374.1,1911.6,1358.8,1920.7,1340.7z M1951.4,1279.6c10.9-20,21.1-40.3,34.2-65.6
		c12.5,64.1,40.4,116.2,74.3,167.1c-29.6,5-51.3,0.6-66-26.9c-10.4-19.4-25.8-36-39.1-53.8
		C1949.8,1293.9,1946.9,1287.9,1951.4,1279.6z M545.3,1474.1c3.5,46.4,3.2,46.4-38.9,64c-53.7,22.5-102.6,52.6-146.7,90.9
		c-7.3,6.3-12.8,23.1-28.3,11.1c-14.3-11-0.8-20.4,2.9-28.7c36.5-82.9,69.4-167,87.3-256.3c8.2-41.2,8.1-83.1,13-124.5
		c5.4-45.8,15.9-90.3,30.4-134c19.6-59.4,34.4-120.1,50-180.6c7.5-29.1,19.1-56.4,31.7-83.6c24.5-52.8,62.9-82.4,123.7-77
		c16.1,0.8,38.5-5.8,47.1,6.9c6.6,9.8-11.2,26-18.7,38.8C576.9,1009.3,527,1233.9,545.3,1474.1z M211.8,1514.5
		c-34.8-53-50.9-109.2-56-168.9c-7.4-86.8,5.5-172.3,16.8-257.9c15-114.6,32.5-228.6,71.3-338.3c33.8-95.6,82.9-181.9,163.7-244.8
		c143-111.4,356.6-94.6,480.5,34.2c11.4,11.8,11,17.5-0.9,28.9c-14.7,14.2-28.2,17.3-48.1,12.5c-67-15.9-134.8-28.3-204-26.5
		c-80.7,2-146.5,30.5-188,105.8c-72.3,131.4-116.9,271.7-140.5,419.1c-16.7,104.4-30.5,209.2-46.5,313.6
		C253.5,1435.2,236.9,1474.9,211.8,1514.5z M288.5,1587.9c-3.8,9.3-7.9,12.8-15.6,3.7c-0.9-1.1-2-2-3-2.9
		c-27.3-25.8-27.2-25.8-8.2-57.1c35.2-57.7,48.8-121.6,57.8-187.8c22.5-165.3,40.6-331.6,95.9-490.5
		c21.3-61.3,49.5-119.6,80.8-176.2c33.7-60.9,92.7-72.3,136.3-73.2c72.7,1.9,124.7,11.4,176.6,21.6c12.3,2.4,14.3,5.1,5.7,15.1
		c-18.1,21.1-35.7,42.7-52.8,64.8c-6.2,8.1-12.2,9-21.5,6.5c-41-10.9-82.6-11.6-124.1-3.3c-38.7,7.8-68.9,28.8-91.5,61
		c-35.8,51.1-54.9,108.9-68.5,169c-17.5,77.3-47,151.3-63.6,228.8c-7.9,36.8-12.4,74.2-14.1,111.7c-3.2,70.5-22.6,137-46.8,202.4
		C318.6,1517.5,302.8,1552.4,288.5,1587.9z M2799.3,1127.2c-18.1,57.8-33.7,116.2-65.3,168.9c-46,76.8-110.4,131.8-192.4,166.8
		c-21.4,9.2-20.7,8.8-7.4,43.2c8.1,20.9,19.4,6.7,28,3.2c50.8-20.6,96.3-49.9,136.1-87.8c3.4-3.2,7.2-6.1,12.2-10.3
		c15.9,44.9,24.7,89.8,32.8,134.8c19.2,106.8,26,214.2,13.6,322.4c-18.4,160.3-71.8,304.8-192,417.7
		c-65.7,61.8-145.1,102.8-227.8,137.4c-155.8,65.2-318.9,102.4-485.5,126.1c-218.7,31.1-437.5,29.3-656.5,4
		c-161.6-18.6-319.9-52.5-475.8-98.2c-3.3-1-6.4-2.3-13.4-4.9c31.5-24.2,47.7-56.2,68.7-84.6c40.5-54.9,98.8-79.1,164.6-88.1
		c80.8-11,161.4-0.8,242.1,2c33.4,1.2,66.8,4.2,100.2,5.4c12.3,0.4,15.6,4.6,16.7,17c6.5,73.6,53.4,133.4,116.5,150.4
		c69.2,18.6,146.1-24.2,175.6-97.7c0.3-0.6,0.4-1.3,0.7-2c8.3-17.8,4-42.4,16.1-54.6c11.5-11.6,34.5-11.9,51.5-20.1
		c35.4-17.1,62-44.5,86.9-73.8c4.5-5.3,8.8-10.8,12.9-16.4c54.4-72.6,111.6-91.7,210-56.4c6.5,2.3,13.3,4.6,19.2,8.1
		c11.4,6.7,16.3,2.7,21.3-8.6c14.6-32.9,15.1-32.6-18.6-45.1c-47.6-17.8-96-28.9-147.1-18c-36.5,7.7-67.8,25.2-93.1,52.4
		c-16.6,17.8-32.5,36.4-47.6,55.5c-41.6,52.6-93.7,75.8-162.2,71.5c-167.5-10.6-335.3-18-503-25.4c-64.8-2.9-129.1,2.2-190.3,27.2
		c-49.7,20.3-93.5,49.8-120.3,96.2c-45.1,78-115.1,118.1-198.9,135.5c-99.6,20.7-189.8-1.7-263.4-75.2c-43.1-43-63.8-97.1-71-156.8
		c-3.1-25.6-4.3-51.3-3.2-77.2c0.7-16.1,3.8-21.4,21.8-15.8c92.8,28.6,184.8,24.8,272.9-16.9c119-56.4,182.3-156.9,214.4-280.5
		c0.2-0.7,0.2-1.4,0.2-2.1c0.8-9.4,10.2-22.2,1.8-27.1c-10.5-6.2-25.3-5.8-38.3-6.7c-7.8-0.5-8.3,6.7-10,13.2
		c-18.7,73.1-48.6,140.4-102.5,195.1c-69.2,70.2-154.1,96.6-250.7,90.3c-29.3-1.9-57.7-8.3-85.5-17.9c-4.9-1.7-10.3-1.9-16.1-2.9
		c14.4-89.9,30.6-180.2,70.6-264.2c75.2-157.8,200.2-251.5,370.4-285.5c49.7-9.9,98.1,3.4,145.2,17.8
		c44.6,13.7,87.8,31.8,123.1,64.1c62.6,57.2,76.9,122.1,44.3,200.4c-13.9,33.3-27.6,66.8-40.6,100.4c-9.3,24.2-16.3,49.6-15,75.3
		c1,21.2-9.3,24.9-26.1,26.8c-43.4,5-84.2,18.2-120.9,42.5c-20.5,13.6-37.5,30.7-51.5,51.2c-35.8,52.2-69.3,106.2-113.1,152.5
		c-25.1,26.6-55.3,35.9-90.9,30c-11.3-1.9-20.8-7.4-30.3-13.4c-7.1-4.5-9.4-17.6-17.6-16.2c-12.7,2.2-24.5,9.2-36.7,14.1
		c-10.3,4.1-3.9,9.7-1.2,14.5c20.8,37.4,72.3,59.9,121.1,53.7c38.4-4.9,69.9-22.3,95.8-50.5c42.1-45.8,76.8-97.3,110.5-149.2
		c21.7-33.4,51.2-54.5,88.2-66.2c106-33.4,211.3-22.7,316.2,6c44.2,12.1,86.4,31.8,131.7,39.2c78.1,12.8,154-3.2,229-23
		c86.2-22.7,166.7-58.4,239.8-109.9c42.9-30.3,89.6-53.2,139.7-69.3c33.3-10.7,67.2-11,101.1-5.1c50.9,8.8,82.7,39.8,98.9,88.2
		c15.9,47.7,15.2,96.1,5.7,144.5c-2.7,13.8-0.4,19,13.1,21c11,1.6,21.7,4.9,33.6,7.7c13.7-61.7,16.9-122.8-2.1-183.7
		c-29.8-95.8-100.4-135.6-200.1-132.5c-72.5,2.3-137.4,32.1-195.5,72.3c-97.3,67.4-202.7,112.7-318.9,133.5
		c-65.9,11.8-130.5,14.5-195.2-10.6c-83.6-32.5-170.8-50.3-261-49.8c-11.5,0.1-14.4-4.5-13.8-14.8c1.4-26.1,8.7-50.6,18.1-74.7
		c17.6-45.3,41.1-88.4,50.2-136.8c2.3-12.3,5.2-24.8,5.1-37.2c-0.2-15.5,6.6-18,20.1-17.1c45.9,3.1,91.8,5.3,137.7,7.7
		c9.4,0.5,17.1,4.2,25,9.1c127.7,78.5,291.2,39.7,367.8-89.4c49-82.6,118.1-141.9,202-185c104.5-53.6,215.4-67.7,330.9-48.3
		c10.2,1.7,18.2,5.7,25.8,12.2c27.7,23.6,58.6,42.3,90.9,59.1c11.6,6,16.8,3.5,21.9-7.9c13.5-30.6,13.9-30.3-14.5-46.1
		c-49.8-27.7-93.4-62.5-129.6-114.9c43.9,23.4,85.6,33.9,129.6,37.9c127.9,11.7,274.9-90.1,308.1-214.3
		c5.7-21.5,10.6-43.3,17.7-64.4c8.6-25.6,21.4-48.2,49.1-58.7c13.9-5.3,4.3-17.1,4.1-25.4c-1-28.7-4.5-30.7-30.6-19.1
		c-32.5,14.4-52.2,40.8-65.7,72.5c-10.7,25.1-16.3,51.7-23.4,77.9c-37.5,137.8-205.6,218.8-336.5,162
		c-35.5-15.4-74.4-41.9-94.5-64.6c6.8-1.5,10.1,3.7,14.1,6.8c94.2,73.6,243.3,69.9,333.4-8.2c68.8-59.7,63.9-185.2-8.9-240.2
		c-23-17.4-49.4-21.1-76.8-22.3c-65.4-2.9-100.3-52.5-80.8-115.9c15.2-49.6,51.2-83.6,89.5-115.5c10.7-8.9,19.1-42.5,13.3-54.2
		c-2-4.1-5.2-4.4-8.5-3.5c-7.3,2-15.7,3-21.6,7.3c-60.7,44.6-112.8,96-127.1,174.2c-11.5,62.9,23.7,129.5,78.9,150.9
		c19.8,7.7,40.8,9.3,61.7,8.5c27.7-1,45.7,11.4,59.5,34.5c36.9,61.8,21.9,124.5-42,157.1c-85.3,43.4-169.8,42-247-18.8
		c-41.3-32.6-63.7-78.7-71.2-130.8c-26.5-182,4.3-351.8,107.5-506.7c26.3-39.5,52-79.2,88.4-110.3c61.8-52.9,136.1-68.4,214.5-66.6
		c93.5,2.1,177.9,31,247.9,95.3c52.1,47.8,84.9,107.8,108.8,173.4C2845.1,815.9,2848.2,970.9,2799.3,1127.2z M1388.8,2290.7
		c49.9,2.7,99.8,5.6,149.8,7.8c10.7,0.5,14.4,2.5,11.5,14.4c-8.3,34.1-26.2,61-56.1,79.4c-38.3,23.6-79.9,16.4-112.6-18.8
		c-10-10.8-17.9-23-23.4-36.7C1340.7,2293.8,1343.5,2289.7,1388.8,2290.7z"/>
	<path class="st0" d="M2125.3,1902.6c-0.1-92.6,75.2-168,167.2-167.4c91.5,0.6,165.8,75.2,166.2,166.7
		c0.3,92.1-75.2,167.3-167.7,167C2199,2068.5,2125.4,1994.7,2125.3,1902.6z M2406.9,1901.7c-0.3-64.6-51.2-114.7-115.8-114.1
		c-64.5,0.6-115.4,51.7-115,115.3c0.4,63.3,52.8,115,116.3,114.9C2356.1,2017.6,2407.1,1965.8,2406.9,1901.7z"/>
</g>
</svg>
