<?xml version="1.0" encoding="utf-8"?>
<!-- Generator: Adobe Illustrator 23.0.0, SVG Export Plug-In . SVG Version: 6.00 Build 0)  -->
<svg version="1.0" xmlns="http://www.w3.org/2000/svg" xmlns:xlink="http://www.w3.org/1999/xlink" x="0px" y="0px"
	 viewBox="0 0 3000 3000" style="enable-background:new 0 0 3000 3000;" xml:space="preserve">
<style type="text/css">
	.st0{stroke:#000000;stroke-width:10;stroke-miterlimit:10;}
</style>
<g id="Layer_1">
</g>
<g id="Layer_2">
	<g>
		<path class="st0" d="M1781.4,550.1c240.2-3.7,473.4,40.9,704.3,101c84.6,22,166.9,50.9,237.9,103.7
			c111,82.6,169.5,196.1,192.1,330.9c21,125,15,250.2,6.2,375.5c-7.7,109.4-15.1,218.8-23.2,328.2c-3.6,48.5-6,97.2-15.9,144.9
			c-26.6,128.9-120.5,189.4-249.2,161.8c-46.6-10-90.3-28.1-132.6-48.9c-120-59-247.6-76.8-379.5-74.1
			c-123,2.5-244.5,20.4-366.3,35.1c-189.5,22.8-376,60.3-559,114.8c-126.2,37.6-248.4,85.8-370.8,133.8
			c-206.7,81-406.1,53.6-599.1-45.6c-41.1-21.1-74.8-52.7-104.4-88.8c-39.1-47.6-56.8-102.2-59.8-162.9
			c-4.6-94.4,7.1-187.5,20.5-280.6c14.7-101.7,29.2-203.3,61.7-301.5c54.7-165.6,145.2-309.3,271.2-428.5
			c198.2-187.4,433-303.5,704.2-341.2C1339.4,577.4,1559.5,553.5,1781.4,550.1z M673.7,1977.5c-0.2,81.9,16.8,160.6,41.4,238.1
			c6,18.9,12.5,22.3,31.3,16.1c70.9-23.6,139-54,208.8-80.2c230.4-86.4,467-149,711.1-181.8c142.6-19.2,284.9-40.4,428.9-46.2
			c110.9-4.5,220.7,3.2,327.1,38.2c11.3,3.7,16.5,3.1,19.9-9.9c17.2-66.7,28.2-134.2,24-203.3c-6.9-113.1-50.1-208.2-141.2-278.7
			c-67.5-52.2-145.4-81.5-227.7-100c-165.4-37.2-332.3-32.8-499.3-14.9c-111,11.9-221.4,28.5-330.6,51.8
			c-113.7,24.2-224.1,57.9-325.6,116.4C766.8,1624,676,1774.7,673.7,1977.5z M505.8,2247.5c-2.9-8.5-4.5-13.7-6.4-18.8
			c-32-85.9-54-174-60.4-265.6c-12.6-179.6,35-339.6,157.7-473.7c90.9-99.3,205.1-163.2,330.1-209.9c125.9-47,256.6-73.7,389.5-90.5
			c19.6-2.5,29.7-8.5,34.8-28.6c10.2-40.4,23.6-80,35.5-120c40.6-135.6,80.8-271.3,121.9-406.7c4.5-14.9,3.4-19.7-13.2-17.7
			c-29.9,3.6-60,5.8-90,8.8c-97.5,9.9-194.9,20.4-291.9,34.6C944.6,684,789.5,745,645.2,834.6c-212.1,131.8-366.1,311.3-449.4,548.7
			c-35,99.7-48.7,203.6-63.6,307.4c-12.1,84.2-22.1,168.4-20.6,253.9c1.3,76.1,29.7,138.6,87.9,186.9
			C287.3,2204.2,392.9,2230.7,505.8,2247.5z M1775.7,1155.7c11.2,0,19.9-0.1,28.6,0c118.1,2.2,235.7,9.5,351.7,33.1
			c118.4,24.1,231.9,60.8,332.1,131.2c131.8,92.8,197.9,220.4,200.8,380.8c1.9,106-25.7,206.1-65.8,303.2
			c-14.6,35.4-14.6,35.4,23.5,43.4c98.3,20.5,164.6-22.8,186.4-121c11.4-51.2,12.1-103.4,16.1-155.3c8.2-108,15.6-216,23.1-324.1
			c8.2-117.8,13.6-235.6-6.3-352.9c-29.3-172.3-119.8-295.6-285.7-359.5c-83.5-32.1-170.4-51.2-257.3-70.7
			c-109.7-24.6-220.1-44.8-332.3-54.8c-32.9-2.9-32.8-3.3-43.4,28.7c-40.5,121.9-81,243.7-121.5,365.6
			C1809.3,1053.3,1793,1103.2,1775.7,1155.7z M1789.7,1205.3c-94,0.8-174,5.8-254.1,11.7c-146.5,10.8-292.1,27-435,62.4
			c-133.9,33.3-262.1,80.1-375,162c-140.8,102.1-220.4,239.1-235.7,412.9c-11.8,133.7,18.7,259.9,66.7,383.2
			c4.5,11.6,11.2,14.4,22.9,15.1c24.7,1.5,49.2-1.4,73.8-1.6c15.8-0.1,19.9-4.3,14.3-20.5c-24.5-71.6-40.3-145.2-43.5-221.1
			c-8.1-192.2,57.9-351.8,209.3-473.3c103.8-83.3,225-129.6,352.1-161.9c139.7-35.5,282.2-55.1,425.3-70.7
			c145.2-15.8,290.3-17.8,434.9,4.9c104.5,16.4,204.5,46.6,292.2,108.7c100,70.8,158.1,167,174.4,288.6
			c12,89.2,0.9,176.5-22.8,262.5c-3.7,13.3-2.1,19.9,11.4,24.6c15.5,5.3,30.7,12,45.1,19.6c11.8,6.2,17.3,4.7,22.8-8.1
			c35.6-84.4,63.3-170.9,68.9-263.1c6.8-110-18.2-211.2-88.7-298.1c-63.4-78.2-148.3-125.1-240.7-159.1
			C2136.6,1220.6,1957.1,1207.4,1789.7,1205.3z M1726.2,600.7c-51.2,2.8-99.7,5.5-148.2,7.9c-10.2,0.5-11.3,7.9-13.5,15.2
			c-15.7,52.4-31.7,104.7-47.5,157.1c-37.9,126.4-75.4,253-114,379.2c-5.1,16.5-1.2,18.5,13.9,16.8c33.4-3.7,66.9-7.1,100.4-8.7
			c15.5-0.7,22.3-6.2,27.2-20.9c43.1-131,87.1-261.7,130.7-392.6C1692.1,704.4,1708.6,654,1726.2,600.7z M1594.7,1156
			c40.2,0,79.1-0.1,118.1,0.1c9.1,0.1,11.2-5.5,13.4-12.5c5.5-17.6,11.6-35.1,17.4-52.7c51.8-156.4,103.3-312.9,155.7-469.1
			c5-15,2.7-18.9-12.8-19c-30.2-0.1-60.4-1.1-90.5-2.8c-12.7-0.7-17.7,4.3-21.4,15.8c-20.7,63.9-42.3,127.5-63.5,191.2
			C1672,923.9,1633.1,1040.9,1594.7,1156z"/>
		<path class="st0" d="M1310.1,1617.9c-7.2,73-27.8,140.7-78.8,196.1c-16.4,17.8-36.6,31.2-61.9,22.8c-26.9-8.9-36-31.7-37.4-58.3
			c-4-76.7,21.2-144.1,65.8-205.1c8.1-11,18-20.7,30-27.8c32-18.9,66-6.2,76.7,29.4C1308.7,1588.8,1310.7,1603.1,1310.1,1617.9z
			 M1256.1,1589.9c-1.8,0.3-2.7,0.1-3.1,0.5c-52.3,51-70.9,114.8-70.7,185.7c0,3.4,0.6,8.2,4.5,7.7c3.5-0.4,7.3-3.4,10-6.3
			c22.6-24.6,37.1-54,47.1-85.5C1254.3,1658.9,1264,1625.4,1256.1,1589.9z"/>
		<path class="st0" d="M1810.9,1743.3c5.7-73.5,27.6-140.8,77.5-196.9c16.9-19,38-30.1,64.1-23c20.7,5.6,35.7,30.8,36.5,59.2
			c2.4,80.1-23,150.8-73.8,212.4c-6,7.3-13.6,13.7-21.6,18.8c-31.9,20.4-67,6.7-78-29.5C1811.6,1770.9,1811.9,1757.2,1810.9,1743.3z
			 M1861.2,1742.3c-0.1,15.9,1.3,25.5,4.6,25.4c10.2,0,14.9-8.9,19.7-15.5c33.8-46.6,51.5-99.1,53.8-156.6c0.3-6.6,2-16.3-4.5-18.8
			c-8.2-3.1-12.3,6.7-16.5,12.2C1882.9,1633.9,1867.1,1686.3,1861.2,1742.3z"/>
	</g>
</g>
</svg>
