<?xml version="1.0" encoding="utf-8"?>
<!-- Generator: Adobe Illustrator 23.0.0, SVG Export Plug-In . SVG Version: 6.00 Build 0)  -->
<svg version="1.0" xmlns="http://www.w3.org/2000/svg" xmlns:xlink="http://www.w3.org/1999/xlink" x="0px" y="0px"
	 viewBox="0 0 3000 3000" style="enable-background:new 0 0 3000 3000;" xml:space="preserve">
<style type="text/css">
	.st0{stroke:#000000;stroke-width:10;stroke-miterlimit:10;}
</style>
<g id="Layer_1">
</g>
<g id="Layer_2">
	<g>
		<path class="st0" d="M1499.4,274.1c178.9,0,357.9-0.2,536.8,0.1c449.6,0.6,822.3,308.1,907.7,749.3c10.7,55.1,14.8,111,14.7,167.3
			c-0.3,230.2,0.4,460.4-0.2,690.6c-1.2,450-320,827.6-763.6,904.5c-49.6,8.6-99.8,13-150.1,13c-368.5,0.1-737.1,4.9-1105.5-1.7
			c-446.1-8-807-322.1-886.6-760.2c-9.2-50.5-13.5-101.7-13.6-153c-0.3-237-3.7-474,1.3-710.9c9.1-440.1,317.4-801.4,749.2-884.6
			c62.9-12.1,126.6-14.9,190.5-14.7C1153.1,274.4,1326.2,274,1499.4,274.1z M1497.9,2747.8c0,0.7,0,1.4,0,2c177.9,0,355.9,0,533.8,0
			c70.8,0,141-6.3,209.9-22.9c392.3-94.3,667.7-441.7,669.1-845.1c0.8-231.1,0.2-462.3,0.1-693.4c0-41.6-4-83-9.8-124.2
			c-60-421.4-427.2-741.4-853.5-742.2c-362.7-0.8-725.3-0.5-1088-0.2c-115.3,0.1-227.9,18.2-333.2,65.9
			c-324.8,147.1-513,396.8-534.3,754.7c-15.2,254.6-4.3,510.4-3.1,765.7c0.3,54.3,8.1,107.8,19.2,161
			c78,372.2,415.6,663.7,795.1,677.5C1101.2,2753.7,1299.7,2747.8,1497.9,2747.8z"/>
		<path class="st0" d="M1446.3,2535.1c-127.8-2-292.3,5.1-456.6-2.7c-334.4-15.8-635.6-290.9-684.4-622
			c-7.6-51.8-11.4-103.7-11.3-156c0.4-158.6-2.6-317.3,1.4-475.9c9.2-362.3,263.9-657.8,619.7-723.2c44.8-8.2,90.3-10.8,135.8-10.8
			c289.2-0.1,578.4-1,867.6,0.3c355.5,1.5,652.7,236.1,734.4,577.5c13.3,55.7,20,112.4,20.2,169.6c0.6,169.3,3.3,338.6-0.9,507.8
			c-9.2,362.8-259,654.3-615.5,723.6c-47.7,9.3-95.9,11.7-144.3,11.8C1769.2,2535.3,1626.1,2535.1,1446.3,2535.1z M1484.7,2485.9
			c142.2,0,284.3-1,426.5,0.3c101.1,0.9,198.7-15,290.3-57.9c251-117.5,396.6-313.7,418.8-590.8c13.9-174.3,2.8-349.9,3.9-524.9
			c0.3-41.6-2.5-83-8-124.3C2572.6,860,2269.6,594,1938.3,593.9c-294-0.1-588,0.7-882-0.4c-101.1-0.4-198.7,15-290.3,57.9
			c-251,117.5-397.3,313.7-418.5,590.8c-14.4,187.8-4.1,377-3.1,565.5c0.1,27,3.4,54,7.1,80.8c45.2,335.4,345.2,597.4,683.6,597.4
			C1184.9,2485.9,1334.8,2485.9,1484.7,2485.9z"/>
		<path class="st0" d="M1474.2,697.6c118.5,3.9,235.6-4.1,352.5,5.6c319.7,26.5,607.5,280.3,659.1,597c31.3,192,38.8,388.4-18.3,578
			c-94.7,314.3-379.6,520.9-718.5,525.9c-188.5,2.8-377.2,3.9-565.7-1c-367.6-9.5-662.2-268.5-724.6-631.4
			c-10.5-61.3-9.1-123.3-8.4-185.2c1.1-100.4-4.8-200.8,16.9-300.4c68.4-313.8,341.3-555.4,660.7-583
			C1243.8,693.1,1359.9,701.5,1474.2,697.6z M988.3,782c-10.3,2.2-14.1,2.5-17.6,3.8c-252.8,97-409.5,276.6-461.6,543.2
			c-22.1,112.8-10.9,227.7-10.5,341.6c0.4,98.7,24.3,193,66.3,282.9c10.4,22.3,17.8,23.1,36.3,8.2c82.6-66.9,154-143.8,210.7-233.8
			c13.6-21.6,23.7-8.9,37.4-2.7c18.4,8.3,11.5,17.2,4,28.7c-24.9,38.1-52,74.5-81.4,109.2c-46.5,54.9-98.2,104.2-155.8,147.1
			c-22.4,16.7-2.4,26.4,4,37.5c5.2,9.1,8.8,25.7,27.1,13.3c112.2-75.6,221.2-154.1,273.7-286.6c9.5-24.1,23-5.9,34.9-4.6
			c14.8,1.7,16.2,9.6,11,22.1c-14.4,35-32.2,68.1-54.3,98.8c-60.4,83.9-140.4,146-226.1,201.2c-19.8,12.7-18.5,20.2-3.6,36
			c92.2,98.2,202.6,165.6,332.1,203.2c29.3,8.5,45.4,4.6,64.5-20.8c88.8-118.1,173.5-237.7,192.3-390.1c1.3-10.3,4.7-14.4,16.5-13.9
			c32.6,1.4,34.5,2.9,29.3,34.9c-1.7,10.5-3.2,21-5.4,31.4c-25.3,120.1-87,222.2-158.8,319.2c-13.4,18.1-26.8,36.1-43.3,58.3
			c30.4,1.8,54.4,2.1,78.2,4.9c24.7,3,41.6-6.3,57.5-25c97.1-113.9,148.4-245.1,150.4-394.8c0.3-20.7,6.6-25.2,26-26.1
			c22.4-1.1,22.5,10.3,22.4,26.3c-1.1,146.2-47.8,276.6-135,393.2c-5.4,7.2-15.3,12.3-13.3,26.3c8.6,0,17.2,0,25.7,0
			c116.1,0,232.1-0.8,348.2,0.6c24.4,0.3,33.4-9.1,40.4-30.4c43-131.6,47.4-263.9,5.2-396c-8.2-25.9,4.5-28.9,21.2-35.5
			c22.9-9.1,22.2,9.1,26,21.6c39.5,129.2,39.4,258.9,4.6,389c-13.7,51.4-14.2,49.6,39.5,49.1c25.4-0.3,33.9-10,35.4-33.1
			c3.6-55,10.3-109.8,11.9-164.8c2.5-90.9-10.3-179.7-55.6-260.3c-12.9-23,2-26.5,14.8-35.9c19.1-13.9,23,2.2,29.1,13.5
			c38.1,71.2,55.4,148.1,59,228.2c3.2,69.6-0.4,139.1-10,208.2c-4.6,33.4-4.2,33.6,27.4,26c74.9-17.9,143-51.1,209.9-88.8
			c56.5-31.8,91.4-71.8,80.6-140.3c-0.6-3.7,0.6-7.7,0.9-11.5c8.3-114.6,4.5-228.4-32.9-338.1c-8.6-25.3,3.1-28.4,19.8-35.8
			c23.9-10.6,23.1,9.5,26.9,21c29.3,88,38.5,178.9,37.7,271.2c-0.4,40-0.1,79.9-0.1,119.3c36.9-22.4,43.3-60.4,46.1-100.7
			c7.3-104.8-5.7-206.6-46.2-303.8c-11.2-27,11-24.1,22.5-31.9c16.9-11.6,18.9,2.7,22.9,13c15.7,40.5,27.8,82,36.9,124.6
			c11.3,52.7,13.6,106.2,16.5,168c37.5-63.8,62.3-124,74.9-188.3c30.3-155.2,26.8-312.7,9.1-467.9c-21-183.6-115.2-331.6-259-447.8
			c-13.6-11-20.2-10.7-31.3,4.2c-41.5,55.9-86.3,109.1-135.1,159c-97.3,99.4-211.6,165.5-352.1,177.3
			c-165,13.8-330.4,14.8-495.4-0.1c-69.6-6.3-138.1-20.4-198.4-58.6c-63.8-40.4-92.6-99.4-85.3-174.8c3.1-31.9,12-62.5,24.4-92.1
			C931,867.2,956.4,826.4,988.3,782z M1509.7,1197.4c0-0.4,0-0.8,0-1.2c24.1,0,48.3,0.9,72.4-0.2c112.4-4.9,220.5-23.9,314-93.4
			c84.7-63,151.6-142.6,216.1-224.9c14.5-18.5,10.8-24.8-7.8-35.7c-130.2-76.6-271.9-100.5-420.5-94.4c-10.1,0.4-18.6,3.5-26.1,10.5
			c-125.1,115.9-209.1,256.3-252.4,421.3c-3.9,15,0.3,18.5,14.5,18.1C1449.8,1197,1479.7,1197.4,1509.7,1197.4z M1395.5,747.7
			c-105.4,1.8-210.4-6.5-314.9,10.1c-6.2,1-13.2,4.7-17.2,9.4c-54.4,63.5-102.3,131.2-123,213.6c-17.8,70.9,4.2,123.5,62.6,159.4
			c40.2,24.7,85.6,33.9,130.8,43.8c20.8,4.5,27.6-1.1,32.4-22.4c33.5-150.6,105-281,213.7-390.8
			C1385.6,765,1394.3,760.9,1395.5,747.7z M1594.3,748c-38.9,0-72.6-0.1-106.2,0.1c-9.1,0.1-16.4,4.8-23.2,10.6
			c-130,109.7-213.3,247.8-252.3,413.2c-4.1,17.3,2.1,22.6,18.1,22.9c30.9,0.5,61.9,0.9,92.7,3c20.6,1.5,29.6-4.3,34.9-26.3
			c28.5-117.9,79.6-225.7,152.9-322.4C1536.1,816,1563.6,785.1,1594.3,748z"/>
		<path class="st0" d="M2227.5,1204.3c-0.5,31.4-27,56.9-57.8,55.8c-30-1.1-54-26.2-54.1-56.6c-0.1-30.9,26.4-58.2,56.3-57.9
			C2202.1,1145.9,2228,1173.2,2227.5,1204.3z"/>
		<path class="st0" d="M827.7,1394.8c-31.2,0.3-57.5-25.4-57.6-56.1c-0.1-31.3,25.6-56.2,57.6-56c30.4,0.2,55.1,24.3,55.9,54.6
			C884.4,1368.6,859.2,1394.5,827.7,1394.8z"/>
		<path class="st0" d="M1606.3,1400.5c31.4,0,57.5,25.7,57.3,56.4c-0.2,31.4-25.9,56.1-57.9,55.6c-30.4-0.4-55-24.7-55.6-54.9
			C1549.4,1426.4,1574.9,1400.5,1606.3,1400.5z"/>
		<path class="st0" d="M1941.4,1332.1c30.8,0,57,26.7,56.5,57.6c-0.4,29.7-25.5,55.2-55.2,56.1c-30.5,0.9-57.9-25.5-58.3-56.2
			C1884,1359.1,1910.7,1332.1,1941.4,1332.1z"/>
		<path class="st0" d="M1228.3,1467.4c-0.6,30.6-27.5,55.9-58.7,55.1c-31.4-0.9-56.1-27.4-54.7-58.7c1.3-30.2,26.3-53.6,56.8-53.5
			C1203.4,1410.6,1228.9,1436.3,1228.3,1467.4z"/>
	</g>
</g>
</svg>
