<?xml version="1.0" encoding="utf-8"?>
<!-- Generator: Adobe Illustrator 23.0.0, SVG Export Plug-In . SVG Version: 6.00 Build 0)  -->
<svg version="1.0" xmlns="http://www.w3.org/2000/svg" xmlns:xlink="http://www.w3.org/1999/xlink" x="0px" y="0px"
	 viewBox="0 0 3000 3000" style="enable-background:new 0 0 3000 3000;" xml:space="preserve">
<style type="text/css">
	.st0{stroke:#000000;stroke-width:10;stroke-miterlimit:10;}
</style>
<g id="Layer_1">
</g>
<g id="Layer_2">
	<g>
		<path class="st0" d="M852,1910.6c31.4,43.5,68.2,52.3,121.1,33.8c68-23.8,140-35.9,213.5-53.9c-55.6-26.3-103.9-60.5-149.8-97.9
			c-26.7-21.7-45.7-47.6-44.2-84.5c1.9-45.6,36.1-74.7,81.3-67.4c28.9,4.6,54.8,17.8,80.6,31.1c15.6,8,31.2,16.4,47.6,22.2
			c49.1,17.3,81.3,3.7,105.1-42.6c8-15.6,15-32,24.6-46.6c16-24.4,39.1-37.1,68.9-32c31.7,5.4,51.9,24,58.8,56
			c5,23.2,8.2,47,15.7,69.4c14.9,44.6,43.1,64.1,91.3,64.4c32,0.2,64.1-2.8,96.1-2.1c15.6,0.3,35.1-0.7,39.1,21.9
			c3.7,20.9-8.8,32.9-24.8,42.3c-8.9,5.2-18.3,9.6-27.6,17.1c89.9,0.6,179.6,5.1,273.9,11.4c-23-27.2-37-54.2-28.6-87
			c5.9-23.2,20.5-40.1,40.6-52.8c51.2-32.3,123.4-20.9,156.8,24.8c29.3,40.2,17.9,84.2-37.2,128.4c53.1,7.2,102.3,13.3,151.4,20.5
			c102.5,15.1,204.1,34.7,300.3,74.6c226.7,94.1,297.8,268.8,202.4,495.3c-62.1,147.4-16.6,294.8,119.7,380
			c23.7,14.8,9.8,25.6,4.3,39.8c-7.3,18.7-17.1,13.9-30.7,6.2c-99.3-57.1-150.5-138.6-172-276.9c-12.4,3.8-16.5,15.2-22.7,23.7
			c-155.9,216.5-374.4,314.4-633.8,332.6c-277.6,19.5-531.9-58.1-771.7-191.9c-38-21.2-72.6-47.8-100.8-81.8
			c-44.7-54-46.1-104.4-4.4-160.6c34.4-46.4,34.4-46.2-21.2-63.1c-45.4-13.8-91-27.1-136-42.4c-18.5-6.3-26-1.7-34.9,15.3
			c-54.2,103.2-127.4,189.1-235,239.3c-104.3,48.6-206.8,51.4-298.8-28.7c-58.5-50.9-86.4-119.9-91.7-194.8
			c-15.1-214,66.8-386.8,237.8-514c95-70.7,201.5-95,315.2-39.7c2.7,1.3,6.1,1.2,9.1,1.7C845.1,1904.6,848.6,1907.6,852,1910.6z
			 M1582,2079.1c170,0.9,379.9,20.3,587.2,63.6c90.4,18.9,179.3,44.4,251.2,107.3c47.4,41.5,70.3,93.9,62.4,157.6
			c-6.4,51.7-30.6,96-58.6,138.9c-9.8,15-18.5,13.3-29.6,2.9c-9.9-9.3-30-12.3-12.7-34.2c19.2-24.3,33.1-52.4,42.4-82.4
			c19.2-61.6,3.7-112.2-46.8-151.7c-22.1-17.3-46.5-30.9-72.1-42.3c-65.7-29.1-135.4-44.2-205.4-58.2c-47.2-9.4-47-8.5-64.3,37.2
			c-5.4,14.4-12.1,28.7-20,41.9c-50.2,84.2-126,116.3-209.3,91.1c-24-7.3-38.4-34.9-58.4-36.5c-20.6-1.6-42.7,17.9-67.4,17.1
			c-5-0.1-10.1,0.9-14.9,0.1c-96.4-16.8-171.2-47.1-123.5-160.5c0.8-1.9,1.7-3.8,2.3-5.7c10.8-35.1,10.8-35.5-25.1-34.9
			c-176.3,2.6-351.3,18.5-524.9,49.3c-17.3,3.1-24.8,9.7-25.2,27.8c-1,46.9-9.6,92.7-25.8,136.6c-7.4,20.1-1.6,26.5,17.3,32
			c56.6,16.2,113.3,32.3,168.7,52c51.5,18.3,62.2,59.2,30.4,103.4c-4.8,6.7-10.4,12.9-15.5,19.4c-36.4,46.5-35.5,70.6,5.1,113.9
			c8.4,9,17.9,17.2,27.6,24.9c72.2,57.4,156.1,93.2,240.5,126.8c244.7,97.3,494.9,131,753.1,59.1c79.2-22,155.3-53,222.1-100.1
			c66-46.6,118-109.3,170-171.5c65.5-78.3,98.3-172.3,127.7-266.4c32.9-105-16-215.3-112.8-280c-76.2-50.9-161.9-78.4-250.5-95.5
			c-286.8-55.1-575.5-82.6-867.7-55.4c-170.4,15.9-337.9,47.3-502.6,93.4c-17,4.8-25.1,9.3-15,28.9c12.3,23.9,19.6,50.4,22.3,77.2
			c2.3,22.5,11.9,25.4,32.4,21.6C1176.3,2094.7,1357.6,2079.2,1582,2079.1z M919.8,2184.2c0.2-28.1-2.2-54.9-8.3-81.1
			c-19.7-84.8-61.1-152-151.4-174.8c-56.5-14.3-110.8-2.2-162.5,22.7c-178.9,86.2-301,330.6-262.7,525.7
			c30.7,156.4,167.4,227.4,309.7,154.5C825.3,2538.6,902.8,2378.9,919.8,2184.2z M1683.9,2133.7c-75.8-2.1-75.9-2.1-97,70.7
			c-2.6,8.9-5,17.8-7.3,26.8c-1.6,6.3-1.6,12.9,4.6,16.5c31.7,18.3,62.9,39.1,102.3,31.1c48.6-9.8,106.3-78.2,109.1-126.6
			c0.9-15.3-9.8-10.5-16.2-11.1C1747.7,2138.1,1715.8,2136.1,1683.9,2133.7z M1860.9,2306.3c66.9,8.1,123.8-80.3,132.3-127.3
			c2.4-13.2-5.4-15.9-15.7-17.1c-35.8-4.2-71.8-8-107.5-13.1c-14.5-2.1-20.5,4.2-24.3,16.7c-9.2,30.8-22.9,59.7-39.6,87.1
			c-16.2,26.7-10.2,42.5,20.9,49.7C1838.1,2304.8,1849.7,2305,1860.9,2306.3z"/>
		<path class="st0" d="M603.5,929.5c79.7,0,159.3,0,239,0c23.4,0,45.5,5.1,63.5,20.7c34.8,30.1,31.1,72.4-8.7,98.1
			c-21.4,13.8-45.9,18.9-71.1,18.5c-98.4-1.4-196.4,5.4-294.4,13.3c-43.3,3.5-70.8,18.2-65.2,38c8.9,31.4,39.3,32.4,65.4,37
			c24.8,4.3,47.5-2.9,66.9-18.1c63.2-49.5,137.1-36.4,208.6-35.8c14.6,0.1,28.7,6.9,31.8,24.5c2.9,16.1-3.6,30.3-17.1,37.1
			c-71.5,36-139,82.9-222.5,88.4c-103.7,6.8-206.9-1.3-309.1-18.1c-126-20.8-162.5-118.8-80.9-216.9c43.5-52.3,96.8-87.1,170.2-87.6
			C454.6,927.9,529.1,927.8,603.5,929.5z"/>
		<path class="st0" d="M2516.1,917.1c56.8,2.5,123.2-4.4,189.1,5.7c7.1,1.1,14.4,1.9,21.3,3.8c45.5,13,83.3,36.7,90.7,86.9
			c7.3,49.2-26,78.1-63.2,101.4c-17.4,10.9-36.7,18.8-55.7,26.9c-37.7,16.2-70.6,38.6-96.9,70.4c-37.5,45.4-87.2,64.6-144.8,66.4
			c-106.8,3.4-209.9-16.1-311.2-48.5c-23.6-7.6-23.6-20.2-14.2-37c15.8-28.4,43.7-36.2,73.3-39.7c71.9-8.4,143.8-16.1,215.7-24.8
			c25.7-3.1,50.8-9.9,74.5-20.2c9.2-4,20.9-8.9,18.7-21.4c-1.8-10.3-12.7-11.9-22-13.9c-44.1-9.6-88.7-6.5-133-4.3
			c-50.6,2.5-101.1,7.8-151.7,10.3c-38.5,2-73.8-8.1-103.4-34.3c-11-9.7-23.3-17.1-37.5-21.2c-13.8-4-25.3-10.6-24.8-27.3
			c0.5-16.6,10.7-26.6,25.2-32.1c34.2-13,70.8-14.8,106.5-19.9C2283.4,928.6,2394.7,918.5,2516.1,917.1z"/>
		<path class="st0" d="M2442.7,209.2c66.2,0.1,121.3,8.3,175.8,21.2c24.5,5.8,49.1,7.8,73.9,3.6c46.1-7.8,69.4-38.5,65.7-85
			c-0.6-7.2-1.2-14.4-2.2-21.6c-2.7-20.6-2.1-41.5,19.7-50.5c19.5-8,37.9,1.3,52.8,14.9c15.7,14.2,25.1,32.2,29.5,53.2
			c7.5,36.3,3.8,72.4-2.2,108c-5.2,31-26.8,50.2-55.5,61.8c-49,19.7-99.5,15.5-150,9.9c-55.4-6.2-110.2-18.5-166.5-16
			c-38.8,1.7-46.5,8.5-49.1,46.7c-7,103.2-117.5,157.8-204.5,101.1c-6.9-4.5-14.1-8.6-21.4-12.5c-76.7-41.8-81.8-129-10.6-180.9
			c44.6-32.5,97.1-39.4,149.5-45.9C2382.5,212.6,2417.7,211.2,2442.7,209.2z"/>
		<path class="st0" d="M1495.1,232.7c18.5,1.7,37.1,2.4,55.5,5.1c63.2,9.5,91.6,40.5,88.8,104.9c-5.6,128.4-45.2,247.5-109.1,358
			c-24.8,43-65.1,64.8-116.9,62.3c-20.4-1-29.7-8.2-30.2-29.6c-1.1-43.5,7.9-84,29.4-121.8c17.3-30.5,35-60.8,51.3-91.8
			c11.2-21.4,15.3-44.7,13.8-69.1c-2.1-35.7-16.6-55.1-50.5-65.8c-15.7-5-32.2-8.5-46.9-15.4c-42.5-20.1-50-57.4-19.6-93.6
			c16.6-19.7,38-31.3,63.3-35.9C1447.5,235.7,1471.1,232.8,1495.1,232.7z"/>
		<path class="st0" d="M1444.8,1349.7c-99.6-1.8-192.8-23.7-272.1-87.9c-113-91.5-113.2-235.6-0.9-327.9
			c141.1-116,395.7-118.2,539.3-4.7c120.4,95.1,119.9,244.3-1.7,337.8C1631.5,1326.8,1541.1,1348.2,1444.8,1349.7z M1459,897.7
			c-99.6-0.1-179.8,19.5-249.2,72.6c-93.8,71.7-93.7,181.8-0.6,254.5c121.8,95.1,335.8,98.1,460.9,6.4
			c106.9-78.4,106.3-192.7-1.9-268.8C1601.4,915.5,1525.8,898.1,1459,897.7z"/>
		<path class="st0" d="M1881.1,451.4c-90.6-1.2-97.3,5.5-105.4,96.1c-4.1,46.3-7.3,92.8-17.8,138.2c-5.2,22.2-8.8,47.9-34.8,54
			c-28.7,6.8-48.4-13.7-65.2-33.3c-15.3-18-19.4-40.6-16.6-64.2c12.2-104.3,40.3-204.1,82.4-300.3c28.7-65.5,77.5-99.7,148.8-101.9
			c24.8-0.7,49.7-1.1,74.4-0.1c42.5,1.7,61,18.9,68.9,61c5.9,31.3,1.9,62.4-5.7,92.2c-9.3,36.2-38.1,53-73.2,57.8
			C1918.6,453.4,1899.7,451.4,1881.1,451.4z"/>
		<path class="st0" d="M2776.7,1371.1c-2.3,69.5-14.1,135.8-63.2,189.6c-29,31.8-64.2,51.6-107.7,55c-42.6,3.4-71.3-14-88.6-53.2
			c-37.8-85.3-4.4-231,66.4-291.8c23.6-20.2,50.7-31.8,81.2-35.2c53.5-6,94.9,24.4,106.7,76.9
			C2776,1331.8,2776.9,1351.3,2776.7,1371.1z"/>
		<path class="st0" d="M2703.3,594.4c70.5,0.5,131.8,44,148.1,105.2c11.9,44.6,0,80-41,102.4c-54,29.6-115.4,39.9-175.1,45.5
			c-40.7,3.8-77.3-25.4-110.8-49.4c-12.8-9.2-16.2-25.5-13.5-42.2C2524.5,672.4,2617.9,593.8,2703.3,594.4z"/>
		<path class="st0" d="M472.6,416.6c-45.2-16.1-90.6-16.4-135.3-6.2c-37.4,8.5-64.4-4-88.3-30.3c-29.8-32.9-44.4-71.7-45.2-115.8
			c-0.2-10.7,2.7-20.6,13.4-26.1c10.1-5.1,18.5,0,25.3,6.2c65.7,59.1,146.4,73.4,230.4,76c72.7,2.3,130.1,30.4,168.1,93.5
			c19.2,32,29.4,65.9,16.4,103.6c-5.8,16.9-16.6,26.6-34.3,25.4c-36.1-2.4-72.5-3.2-108-9.5c-64.2-11.4-80.2-48.7-48.1-104.8
			C469,425.1,470.5,421.2,472.6,416.6z"/>
		<path class="st0" d="M852,1910.6c-3.5-3-6.9-6-10.4-9c-32.1-39.5-73.9-60.8-123.7-70.7c-39.7-7.9-77.6-22.7-107.6-52.1
			c-41.8-41-32.4-87.6,22.1-109.8c21.3-8.7,43.9-12.8,66.8-11.3c66.9,4.2,127.3,26.4,179.6,68.8c39.4,31.9,55.1,74.5,50.2,124
			C923.7,1904.7,905.3,1918.1,852,1910.6z"/>
		<path class="st0" d="M330.3,1296.5c24.1,0,42.5,0.3,60.9,5c38.3,9.8,60.2,34.7,67.5,72.5c14.1,74-30.7,138.9-104.7,152.8
			c-27.6,5.2-55,7.8-83.1,1.9c-60.3-12.6-89.2-43.2-89.9-97.1c-0.8-64.6,32.7-114.2,87.2-127.8
			C290.3,1298.5,312.9,1295.3,330.3,1296.5z"/>
		<path class="st0" d="M1292.5,310.3c0.5,64.3-62.1,120.4-136,121.8c-65.6,1.2-136.5-63.3-136.7-124.3
			c-0.2-68,82.6-134.9,167.9-135.6C1236.2,171.6,1291.9,245,1292.5,310.3z"/>
		<path class="st0" d="M462,715.4c-1.3,47.7-12.5,88.6-45.1,121.4c-60,60.4-147.4,42.4-175.6-38.3C220,737.3,231,679.7,275.2,631.4
			c55.6-60.7,141.2-45.2,174.5,29.8C457.8,679.6,460.1,698.9,462,715.4z"/>
		<path class="st0" d="M855.8,442.9c-21.7,0-43.6-1.1-65.2,0.3c-20.9,1.4-30.2-4.6-28.4-27.3c1.8-23.7-1-47.7,0.5-71.4
			c1.3-19.9-6.7-25.1-25.1-23.6c-38.2,3-76.4,5-114.7,6.8c-8.5,0.4-19.9,4.2-22.4-9.6c-2-10.7-0.1-20.5,9.5-27.7
			c13-9.7,27.8-13.1,43.8-13c94.2,0.8,188.4,0.9,282.6,2.4c45.3,0.8,56.8,14.9,52.5,59.5c-1.6,16.4-4.6,32.7-7.2,49
			c-7.7,49-13.8,54.3-63.7,55c-2.1,0-4.1,0-6.2,0c-18.6,0-37.3,0-55.9,0C855.8,443.3,855.8,443.1,855.8,442.9z"/>
		<path class="st0" d="M2331.4,1613.8c68.1-0.6,122.6,47.1,123.8,108.4c1.3,62.6-53.8,113.8-122.2,113.8
			c-67.3,0-122.1-49.5-122.5-110.6C2210.2,1664,2263.9,1614.4,2331.4,1613.8z"/>
		<path class="st0" d="M533,1666.3c-2.1,30.9-5.9,61.6-21.8,89c-16.2,27.9-39.9,37.6-70.7,29.1c-44.9-12.4-79.9-40.4-103.9-78.4
			c-27-42.7,7.4-121.6,59.4-145.5c52.8-24.3,106.4-1.8,127.9,54.2C530.2,1631.2,534.5,1648.2,533,1666.3z"/>
		<path class="st0" d="M2603.8,531.7c-78.1,0.7-137.7-53.2-132.4-119.7c5-62.4,41.2-82.4,94.5-50.2c38.4,23.2,78.3,36.1,123.5,31.4
			c24.9-2.6,32.7,11.7,32.1,34.1C2720,484.5,2667.6,531.2,2603.8,531.7z"/>
		<path class="st0" d="M561.9,2342.2c5-60.2,33.7-115.1,90.4-153.4c22.9-15.5,49.2-24.8,75.3-7.2c25.1,16.9,29.5,43.6,26.2,71.6
			c-7.9,66.2-37.8,120-95.5,154.5C605.4,2439.2,560.6,2411.2,561.9,2342.2z"/>
		<path class="st0" d="M1479.9,998c41.4,0.5,92.5,10.2,137.9,40.7c61.5,41.3,62.4,110,2.2,153.3c-77.6,55.9-227.5,57.2-306.3,2.5
			c-65.1-45.2-63.8-116.2,3.1-158.7C1363,1006.6,1414.3,997.7,1479.9,998z M1465.7,1048.6c-43.6,2.5-86.6,7.8-123.8,33.1
			c-32.2,21.8-32,45.4-0.5,68.3c59.8,43.6,186.9,43.8,247.2,0.4c32.7-23.6,32.3-47.7-1.9-70.1
			C1550,1056.3,1508.1,1051.2,1465.7,1048.6z"/>
	</g>
</g>
</svg>
