<?xml version="1.0" encoding="utf-8"?>
<!-- Generator: Adobe Illustrator 23.0.0, SVG Export Plug-In . SVG Version: 6.00 Build 0)  -->
<svg version="1.0" xmlns="http://www.w3.org/2000/svg" xmlns:xlink="http://www.w3.org/1999/xlink" x="0px" y="0px"
	 viewBox="0 0 3000 3000" style="enable-background:new 0 0 3000 3000;" xml:space="preserve">
<style type="text/css">
	.st0{stroke:#000000;stroke-width:10;stroke-miterlimit:10;}
</style>
<g id="Layer_1">
</g>
<g id="Layer_2">
	<g>
		<path class="st0" d="M2299.5,2159.3c29.1,34.7,55.2,69.8,74.4,109.6c56.8,117.7,41.5,225.9-41.6,325.7
			c-53.3,64-119.8,111.5-191.3,152.3c-148.8,84.8-309.4,137.4-475.9,174.5c-177.9,39.6-358,49.5-539.4,42.8
			c-140-5.1-278.4-21.7-410.9-70.8c-46.2-17.1-90.5-38.6-130.3-68c-117.6-86.9-158.1-202.7-127.3-344.4
			c18.8-86.5,59.1-163.3,108.4-236c35-51.6,73.1-100.6,116.1-145.9c4.7-4.9,15.5-9.8,9.5-18c-5.4-7.4-14.3-13.4-25.8-10
			c-24.2,7.2-48.2,3.5-71.6-4c-54.6-17.6-91.9-51.7-103.2-110.1c-18.1-93.4-30.8-187.5-31.5-282.7c-0.5-67.4,18.8-130.9,49.5-190.4
			c12.7-24.7,17.8-50.2,21.2-76.9c12.1-95.9,14.7-192.1,11.8-288.5c-1.3-42.8,7.7-83.4,30.2-120.3c4.5-7.3,4.9-14.4,3.9-22.5
			c-18.1-149.6-11.1-298.3,14.8-446.5c10.8-61.9,19.5-124,37.5-184.6C675.4,185.2,783.9,96.5,944.9,67.8
			c148.4-26.4,292.9-4.2,433.8,41.8c50.8,16.5,97.4,30.6,145.6-2c150.5-46.6,291.1-27.9,421.1,62.8c4.9,3.4,8.3,11.7,17,1.8
			c56.2-63.6,128.8-96.8,211.1-111.6c67.8-12.2,134.4-6,200.5,11.7c49.4,13.3,84.3,43.4,106.9,88.6c28.9,57.8,39.9,120.3,48,183.5
			c15.2,118.7,14.6,238.3,14.1,357.5c-1.3,304.3-7,608.6-3.9,912.9c1,98.3-0.4,196.8-14.1,294.5c-5.6,39.7-15,78.5-31.1,115.4
			c-33.6,77.1-92.4,120.1-175.9,129.4C2312.3,2154.9,2306.2,2154,2299.5,2159.3z M1042.7,1717.8c10,29.8,11.3,57.4,15,84.6
			c4.1,29.5,14.2,37.6,44.6,37.6c56.5,0.1,112.7-4,168.4-13.4c90.2-15.1,175.1-40.6,243-108.7c63.5-63.7,160.1-66.6,232.9-12.8
			c52.1,38.5,64.5,94.2,33.2,150.9c-22.1,39.9-55.8,64.4-101.2,69.5c-20.1,2.3-22.7,10.5-16,26.5c4,9.6,8.7,19,12.8,28.6
			c4.7,11.1,4.6,21.8-4.3,31c-8.7,9-19.5,10.2-30.9,6.5c-6.2-2-12.2-4.8-17.7-8.2c-31.3-19.2-53.3-46-65.3-80.9
			c-2-5.8-1.5-12.9-9.9-15.3c-26.7-7.7-61.9,6-74.7,30.4c-9.8,18.7-23.6,33.3-42.7,41.8c-10.9,4.9-15.5,12.6-18.5,23.2
			c-6.2,22.1,1.6,41.1,11.7,59.9c6.3,11.7,7.7,24-1.7,34.9c-9.5,11-21.9,11-34.3,6.3c-7.3-2.7-14.3-6.5-20.7-10.9
			c-31.5-21.5-53.4-50.2-62-87.7c-2.8-12.2-8.1-15.4-20.9-16.1c-42.2-2.2-83.7,6-125.6,5.2c-16.4-0.3-21.5,7-25.6,20.2
			c-7,22.1-1.4,42.5,5.7,63.2c4.3,12.4,3.9,24.9-6.6,34.6c-10.4,9.6-22.6,9.4-34.9,4.2c-7.2-3-14.5-6.4-20.7-10.9
			c-46.5-33.6-69.7-78.9-66.4-136.6c0.7-11.7-3.3-17.1-13.2-22.7c-47.4-26.8-97.4-31.8-150.2-22.7c-58.8,10.1-108.6,30.7-126.7,95.1
			c-2.7,9.6-2.9,14.5,6.2,20.3c44.5,28.3,91,52,142.4,65c75.6,19.2,152.9,22.7,230.2,23.4c129,1.2,258.2,10.7,387-7.6
			c103-14.6,203.4-37.5,297.8-82.6c147.2-70.2,250.1-179.6,295.2-338.5c31.4-110.3,31.3-222.7,16-335.5
			c-14.3-105.4-42.6-207.7-68.1-310.6c-35.2-141.9-121.8-237.9-254.5-294.3c-109.7-46.6-225.4-58.1-342.9-54.3
			c-161,5.2-317.2,36.7-468.6,91.8c-93.8,34.2-185,73.4-265.8,133.6c-73.4,54.7-114.6,123-104.2,218.9c6.3,57.9,0.1,116.6-4.5,174.7
			c-2.3,29.6-5.3,59.2-8.2,90.7c52.9-21.2,104.7-28.2,158.1-14.1c12.2,3.2,12.4-5.2,14.6-12.7c22-74.5,60.8-138.5,117.1-192.4
			c14.8-14.1,21.3-12.8,34.1,1.9c13.2,15.2,11.9,22.8-2.8,36.1c-51.2,46.5-84,104.8-103.1,171.1c-2.1,7.4-5.7,14.3,4.6,20.1
			c20,11.1,39.2,23.7,59.8,36.3c3.1-6.2,6.4-12.5,9.6-18.8c34.9-69.1,78.6-131.8,136.9-183.2c102.5-90.3,217.9-127.5,352.3-82.9
			c101,33.5,164.2,119.4,158,214.7c-10.4,158.9-128.6,293.4-284.9,324.7C1169.6,1733.5,1108,1731.2,1042.7,1717.8z M1999.6,2764.9
			c28-13.6,52.9-24.9,77.2-37.6c78.8-41.3,152.9-89.2,212.3-156.7c49-55.7,81.8-118.6,67.9-195.3c-20.7-114.8-87-198.7-186.5-256
			c-92-53-194.1-64.4-298.1-64.2c-8.4,0-15.2,3.8-21.9,7.7c-150,84.6-314.3,114.3-483.3,121.5c-108,4.6-216.4,0.8-324.5-3.6
			c-102.7-4.2-204.2-15.1-296.1-67.1c-9.9-5.6-14.1-0.2-19.5,5.7c-38.2,41.6-74.2,84.9-106.7,131.1
			c-51.6,73.3-96.3,150.2-116.2,238.7c-26.4,117.6,3,216.9,101,291.4c49.5,37.7,105.7,62.8,164.9,81.2c16,5,32.3,9.2,52.1,14.8
			c-7.3-18.2-13.3-32.5-18.8-46.8c-26.2-68.8-37.7-139.1-19.9-211.9c23.2-95.1,87.2-156.2,170.9-199.3
			c93.9-48.4,195.9-69.2,299.3-83.9c87-12.3,174.5-19.2,262-26.3c88.4-7.2,176.7-8.3,264.3,10.7c112.6,24.4,189.6,88.7,223.3,200.2
			c14.8,48.8,16.7,99.2,12.1,150C2012.6,2700.4,2006.3,2730.9,1999.6,2764.9z M2324.1,1123.7c0-59.7,1.1-119.4-0.2-179
			c-3.2-150,0.6-300.4-19.3-449.7c-5.7-42.9-12.5-85.7-31.7-125.1c-14.2-29.1-37-44.7-70.6-43.2c-42.5,1.9-77.3,22.3-111.5,44.8
			c-6.8,4.5-5.7,10.9-5.3,17.5c3.4,56.3,7.6,112.5,9.8,168.8c4.7,118.7-14,232.5-75.8,336.3c-4.9,8.3-3.5,13.8,0.9,21.1
			c17.6,29.4,31.3,60.6,40.6,93.5c40.4,142.4,79.4,285.3,88.5,434c9,147.8-8,290.7-88.2,420c-6.6,10.6-2.9,14.5,6.1,19.2
			c19.7,10.4,39.6,20.5,60.7,27.7c84.9,29.2,137,2.1,161.1-84.1c18.4-66.1,23.8-134.1,27.1-202.1
			C2324.3,1456.8,2323.9,1290.2,2324.1,1123.7z M2082.3,318.8c27.1-15.5,54.8-30.3,86-36.6c71-14.4,121.7,9.7,151.1,73.6
			c7.1,15.4,12.4,31.8,16.8,48.1c17,63,23.4,127.7,26.6,192.5c13.2,267.4,12.2,535,8.3,802.6c-1.6,110.1-2.2,220.4-15.3,330
			c-6.2,52.2-13.9,104-36,152.4c-22.4,49-59.7,78.5-113.7,86c-21.2,2.9-42,0.3-62.5-4c-11.2-2.4-13.8,0.6-13.6,11
			c0.5,19,0.7,38.1-0.1,57.1c-0.5,11.5,3.2,17.6,14.3,22c28.6,11.3,56.2,25,81.7,42.6c4.2,2.9,9.2,5.5,14.1,6.4
			c96.8,17.1,184.5-8.5,219.2-121.2c17.1-55.6,22.2-113,26.4-170.5c7.6-104.1,4.8-208.4,4.1-312.7c-1.8-267,4.8-533.9,4.9-800.8
			c0-123.8,1.3-248-16.9-371.1c-7.6-51.3-18-101.9-42.7-148.4c-16.3-30.6-40.6-50-74.5-59c-65.8-17.5-131.7-21.9-198.3-6.8
			c-56,12.6-106,37.7-149.1,75.7c-16.7,14.8-16.1,17.5,2.4,28.9c33.2,20.3,53.6,49.4,60.8,87.7
			C2077.3,309,2077.2,314.5,2082.3,318.8z M1274.7,540.2c1.1,37.3,6.2,77.4,17.2,116.8c3.4,12.2,8.3,15,20.5,13.6
			c69.8-7.7,139.9-11.8,210-6.8c17.1,1.2,22-1.8,23.2-19.6c3.7-57.6,40.8-92.2,98.4-93.5c18.9-0.4,38,1.3,56.8,3.2
			c47.3,4.9,73.6,33.3,84.5,77.9c5.9,23.8,7.6,48,4.5,72.2c-1.4,11.5,1.6,17.4,12.7,22.1c33.2,14.2,64.9,31.5,93.5,53.8
			c9.9,7.8,14.2,6.2,20.4-4.4c66.3-112.9,103.4-234.5,104.4-365.6c0.5-69.3-25.1-131-77.4-176.7c-125.3-109.5-269-129.7-422.1-72.1
			C1370.5,217.8,1274.8,368.2,1274.7,540.2z M1167.8,1953.3c11.8,1.3,28.5-3,45.4-4.4c55-4.7,110,2.1,165,0.2
			c19.8-0.7,38.8-4.2,48.7-23.4c25.6-49.3,67.5-63.7,119.7-60.1c34.8,2.4,68.2,12.9,103.1,14c45.9,1.5,80.4-20.5,94.4-61.8
			c6.7-19.7,6.6-38.7-6.9-55.9c-32.3-41.2-136.3-68.8-183.9-16.7c-48.4,53-109,88.4-179.1,107.8c-89.2,24.6-180.2,33.9-272,36.4
			c-52.6,1.4-85.2-29.4-92.7-82c-3.1-22-2.5-44.6-10.2-65.8C958.1,1628,888,1537.5,783,1476.2c-47.5-27.7-99.3-37.2-153.4-22.4
			c-26.3,7.2-56,13.1-70.8,38c-26.5,44.8-44.2,94.1-48.6,146.2c-9,106.1,9.7,210.2,29.1,313.8c7.9,42.3,39.4,61.7,77.6,71.5
			c36.6,9.5,51.5,1.8,65-33.3c18.9-49,54.4-79.3,103.4-94.5c85.5-26.5,168.4-26.9,248,22C1072.2,1941.6,1116,1953.3,1167.8,1953.3z
			 M1145,1681.6c74-0.5,142.4-18.9,202.7-63.6c11.7-8.6,14.5-14.7,4.1-27.5c-45.8-56-102.8-94.5-172.4-114.2
			c-27.3-7.8-25.7-7.6-22.1-35.9c2.2-17.3,9-17.8,22.5-14.3c82.5,21.4,151.9,63.5,205.3,130.3c8.9,11.1,13.5,12.6,22.1-0.1
			c23.2-34.5,43.3-70.4,53.3-111c16.5-66.7,9.4-128.6-44.9-176.6c-44.9-39.7-100.7-55.1-159.2-57.8c-60.1-2.8-114.9,16.8-164.9,49.4
			c-86.9,56.5-145.2,136.7-188.8,229.1c-4.9,10.3-0.8,15.2,5.7,21.7c40.5,40.6,75,85.9,102.4,136.4c5.1,9.4,11.7,14.9,21.8,17.6
			C1069.4,1674.8,1106.7,1681.4,1145,1681.6z M1407.1,168.8c-60.6-21.6-119.2-37.5-179.1-48.2c-103.4-18.5-206.9-24-310,2.3
			c-81.2,20.8-150.2,60.5-197.4,132.4c-5.6,8.5-10.9,14.2,5.7,17.9c106.5,23.7,200,72.4,278.4,149c6.3,6.2,10.3,7.5,17.5,0.8
			c68.6-64,150.8-95,243.8-99.2c7.1-0.3,12-1.8,15.7-8.8C1311.7,258,1353.2,210.5,1407.1,168.8z M1370.7,2852
			c0,15.7,0.4,31.4-0.1,47.1c-0.4,10.9,3.3,14.8,14.7,13.8c51.5-4.4,103-9,154.3-16.5c12-1.8,17-6.2,18.9-19.1
			c28-185.4,103.7-348.9,226.9-490.2c10.4-12,9.1-15.5-6-19c-68.3-15.7-137.3-17.9-207-14.9c-17.1,0.7-27.1,7-36.6,20.1
			C1432.2,2516.3,1376.1,2675.4,1370.7,2852z M1486.2,2359.3c-49.2,4.4-94.1,8.6-139,12.5c-9.2,0.8-15.8,4.9-21.2,12.2
			c-15.5,21.1-31.8,41.7-46.8,63.1c-93.8,134-149.5,282.7-170.3,444.7c-3.1,24.1-3,24.7,20.8,24.8c58.3,0.4,116.6,0,174.9,0.5
			c13.3,0.1,18-3.5,17.6-17.8c-4.2-150.3,28.4-292.4,96-426.5C1437.5,2434.9,1459.6,2398.7,1486.2,2359.3z M620.1,935.3
			c11.3-9.6,20.1-17.3,29-24.6c67.5-55.5,144.6-94.2,225-126.8c12.6-5.1,18.1-10.6,17.3-25.4c-2.8-54.2,5.2-107.2,21.8-158.7
			c3.5-10.7,2.3-17.7-5.1-26.1c-63.7-72.3-144.2-103.3-239.5-100.9c-15.7,0.4-21.2,5.5-23.8,20.4c-15.7,93.1-29.1,186.4-31,280.9
			C612.9,826.9,615,879.6,620.1,935.3z M1254.9,374.2c-25.5,0.1-47.9,4.2-69.8,10.6C1002.6,438,937.6,614,938.9,747.2
			c0.1,10.6,4.5,9.8,12.1,7.1c19.7-7,39.5-13.9,59.5-20c7.8-2.4,11.8-7.2,15.2-13.9c43-84.2,106-148.6,189.8-192.7
			c5-2.6,11-4.3,11.4-11.9C1229.8,468,1238.3,421.3,1254.9,374.2z M979.5,469.1c-0.6-7.1-6.4-10-10.4-13.8
			c-75-72.6-164.5-117.2-266.4-137.9c-9.7-2-14.2,0-17.4,9.4c-8.8,25.4-16.2,51.1-23.4,77c-4.7,17-2.4,22.2,17,21.6
			c85.2-2.6,161,23.8,226.8,78.3c11,9.1,22.8,28,31.6,26.5c12.6-2.1,15.7-23.4,24.6-35.4C968.1,486.4,973.8,477.6,979.5,469.1z
			 M1658.6,598.8c-47.1,0.1-65.7,16.2-66.3,57.1c-0.1,8.6,0.4,14.1,11.6,15.5c43.4,5.5,86.2,14.1,128.1,27.3c3.9,1.2,7.8,4.6,10.4-3
			c14.7-41.8-14.6-90.4-58.3-95.4C1675.6,599.3,1667.1,599.2,1658.6,598.8z M1085.7,712.5c53-12.9,102-23.9,151.7-31.2
			c11.4-1.7,9-8.6,7-15.9c-6.8-24.7-12.3-49.6-14.3-75.1c-0.8-10.9-3.7-14.8-13.9-7.7c-11.3,7.8-23.2,14.8-34.1,23.1
			C1144.6,634.4,1112.3,667.9,1085.7,712.5z M1933,2007.7c49.4,5.6,94.4,8.7,138.2,20.2c4.4,1.2,9.9,2.7,9.9-4.8
			c-0.1-26.2,4.3-53.8-2.8-78c-3.6-12.2-28.5-17.8-43.4-27c-6.3-3.9-10-2.9-14.6,2.8C1995.3,1951.5,1967.4,1979.1,1933,2007.7z
			 M2048,589.1c-5.1,3.2-5.6,7.8-6.7,12.2c-16.5,65.8-42,128-76.3,186.5c-19.2,32.9-18.2,32.2,5.9,60.5c12.3,14.5,16,7.5,21.8-4.2
			C2032.6,764,2047.3,678.4,2048,589.1z M1091.8,2571.7c-1-2.3-1.3-3.6-2-4.6c-11.5-16.6-22.9-33.3-34.5-49.8
			c-2-2.8-4.6-4.1-7.8-0.9c-18.2,17.8-42,32.7-52.7,54.2c-6.7,13.6,17.4,30.4,25.7,47c0.3,0.6,0.7,1.1,1,1.7c4.2,9,9.1,9,16.2,2.3
			c15.2-14.3,31-27.9,46.5-41.9C1087.1,2577,1089.5,2574.1,1091.8,2571.7z M1143.6,2425.8c-3.7,2.7-5.5,3.7-6.9,5
			c-14.7,13.9-29.2,27.9-43.9,41.8c-3.9,3.7-4.7,7-1.2,11.7c12.8,17.2,25.2,34.7,37.8,52.1c16.6-8.2,27.7-23.1,41.6-34.5
			c4-3.3,7.8-7,12-10c7-5.2,6.2-9.8,0.7-16c-12-13.7-23.4-28-34.9-42.2C1146.7,2431.2,1145.2,2428.3,1143.6,2425.8z M1909.9,2687.9
			c5.9-0.4,6.1-5.2,7.7-8.4c11.9-23.9,23.7-47.8,35-71.9c2.8-6,10.9-13.1,4.1-19.3c-12-10.8-25.5-20.2-39.1-29
			c-2.7-1.7-5.1,4.7-6.6,8.1c-6.7,14.8-13.5,29.6-20.1,44.5c-17,38.5-16.2,42.6,13.9,71C1906.4,2684.7,1908.3,2686.4,1909.9,2687.9z
			 M954.3,2606.7c-3.6,3.1-6.5,5.4-9.2,8c-10,9.4-19.9,18.9-29.9,28.3c-23.8,22-23.8,22-4.3,48.7c18.6,25.4,18.6,25.4,42.2,4.6
			c42.1-37.2,42.1-37.2,7.8-81.2C958.9,2612.6,956.9,2610.1,954.3,2606.7z M1052.1,2754.5c-4.3-6.8-8.8-14-13.5-21.1
			c-20.2-30.7-20.2-30.7-47.8-5.8c-33.8,30.5-33.6,30.3-5.1,66.8c6,7.8,10.2,10.2,18.5,2.8c12.7-11.3,26.5-21.3,39.6-32.1
			C1047.1,2762.4,1051.9,2760.5,1052.1,2754.5z M955.4,2838.5c-2.2-5.3-2.5-6.6-3.2-7.6c-9.7-13-17.1-30.1-30-37.5
			c-8.7-5-17.5,14-27.9,20.2c-2.2,1.3-3.9,3.4-5.9,5.1c-30.2,26.8-30.2,26.8-9.4,61.5c0.3,0.6,0.6,1.2,0.9,1.8
			c3.5,8.7,8,7.9,14.6,2.5c17.5-14.5,35.5-28.5,53.5-42.5C950.6,2839.9,954.1,2839.1,955.4,2838.5z M864.2,2623.9
			c1.8-1.4,4.6-3.1,6.9-5.3c9-8.5,17.9-17.2,26.8-25.8c32-30.9,32-30.9,5.3-66c-0.4-0.5-0.8-1-1.2-1.6c-3.9-7.3-8-6.8-13.3-1.1
			c-18,19.2-33.2,40.3-44.2,64.3C841.6,2594.9,856.7,2623.1,864.2,2623.9z M1875.3,2528.4c-0.8-1.6-1.3-3.8-2.6-4.8
			c-12.5-9.4-24.1-22.7-38.1-26.1c-7.5-1.8-10.4,18.5-16.4,28.3c-2.4,3.9-3.3,8.7-6,12.2c-11.2,14.8-7,25.9,4.8,39.1
			c24.9,27.6,24.1,28.3,39.1-5.6C1862.3,2557.2,1868.8,2543,1875.3,2528.4z M1743.6,2819.3c7.7-16.6,14-31.6,21.6-46
			c4.8-9.1,3.2-15.7-3.8-22.4c-11.6-10.9-21.6-37.1-31.4-32.7c-12.4,5.6-16.8,28.9-24.9,44.5c-2.5,4.7-2.2,8.3,1.3,12.4
			C1718.6,2789.4,1730.6,2803.9,1743.6,2819.3z M962.9,2529.2c4.3-3.6,7.3-5.8,10-8.4c12.7-12.2,25-24.9,38.2-36.5
			c9.1-8,12.1-13.9,4.2-25.7c-8.7-13.1-16.5-8.9-26.1-3.6c-11.4,6.3-22.6,13.2-34.5,18.4c-17.7,7.8-21.7,17.4-7.7,32.6
			C953.1,2512.5,957.2,2520.8,962.9,2529.2z M1792.1,2711.9c8.4-18.2,16-34.7,23.5-51.1c2.2-4.8,0.6-8.7-2.6-12.5
			c-10.8-12.9-21.4-26-33.6-40.7c-8.4,17.3-15.4,32.6-23.1,47.4c-3.3,6.3-2,10.8,2.2,15.8
			C1769.4,2683.7,1779.9,2696.9,1792.1,2711.9z M1092.9,2723.7c11.5-32.1,22.4-62.7,33.4-93.3c1.9-5.4,2.2-10.1-1.9-14.5
			c-3.1-3.2-5.9-1.5-8.4,0.7c-19.4,17.4-45.6,31.8-55.7,53.5c-6.6,14.2,18.4,34.2,29.5,51.5
			C1090,2722.2,1090.8,2722.4,1092.9,2723.7z M842.7,2794.8c9.9-8.8,18.2-16,26.3-23.4c24-21.8,24-21.8,5.5-47.7
			c-18.7-26.2-18.5-26-40.8-2.4c-5.7,6-6.9,11.7-5.6,19.4C831.3,2758.1,835,2775.3,842.7,2794.8z M1854.9,2697.9
			c-30.4,42-30.8,56.8-3.2,88.2c0.9,1,1.7,2,2.5,3c4.7,6.2,7.1,4.4,11-1.6c26-40.1,25.8-46.8-5.4-83.1
			C1858,2702.4,1856.6,2700.2,1854.9,2697.9z M1180.1,2395.1c13.4,16.6,24.5,30.1,35.4,43.6c3.3,4.1,6.3,6.5,10.3,0.6
			c12.6-18.4,25.4-36.6,40.3-58C1236.1,2386.1,1210.4,2390.2,1180.1,2395.1z M1911.5,2448.5c-2.7-7.9-8.9-13-14.6-18.1
			c-26.5-23.8-21.4-26.6-37.4,8.7c-2.2,4.9-5.4,9.5,0.7,13.6c12.3,8.3,22.5,19.8,36.6,25.4c0.3,0.1,1.7-1.7,2.2-2.8
			C1903.2,2466.6,1907.2,2457.7,1911.5,2448.5z M1070.8,2805.9c-14.2,11.2-27.8,22-41.5,32.7c-4.1,3.2-6.1,6.6-2.5,11.5
			c10.3,13.9,20.6,27.7,32.8,44.1c4.8-30.1,9-56.4,13.1-82.7C1072.7,2810.5,1071.9,2809.2,1070.8,2805.9z M1674.6,2647.5
			c-7.3,18-14.4,35.3-21.3,52.8c-4.9,12.4,5.5,19.5,12.6,23.1c7.2,3.6,7.2-8.1,10.4-12.9c3.5-5.4,5.3-11.9,8.7-17.4
			C1695.8,2675.9,1696.2,2660.7,1674.6,2647.5z M1727,2547c-7.6,13.6-15.1,27.1-22.8,40.6c-8.6,14.9,3.9,23.2,12.4,28.2
			c7.2,4.2,8-8.6,11.4-13.8c3.5-5.4,5-12,8.6-17.4C1746.9,2569.1,1743.4,2557.2,1727,2547z M1714.2,2860.9
			c-10.9-13.4-19.9-24.4-28.7-35.4c-4.7-5.9-8-5.1-11,1.6c-6.7,15-13.8,29.9-22.1,47.9C1674.1,2870.1,1692.3,2865.9,1714.2,2860.9z
			 M1080.6,2051c-0.6-20.1,2.4-35.1,7.6-49.7c1.7-4.8,1.9-9-4.1-10.6c-8.1-2.2-16.3-6.3-24.2-5.7c-5.3,0.4-2.9,8.9-2.1,13.5
			C1060.4,2016,1065.5,2032.6,1080.6,2051z M1006.1,2907.5c-22.7-35.9-16.6-41.3-50.1-7.2C971.5,2906,987.6,2905.3,1006.1,2907.5z
			 M1768.6,2515.5c8.6-17.7,18.7-34.2,25.9-57.5C1762,2484.3,1754.8,2501.4,1768.6,2515.5z M1637.1,2766.3c-2-0.2-4-0.5-6-0.7
			c-5.1,21.1-10.1,42.3-15.2,63.4C1622.7,2808,1652.2,2792.6,1637.1,2766.3z M1824.2,2828.7c-7.9-7.8-12.8-22.1-19.5-19.5
			c-9.5,3.8-11.2,17.8-15.2,29.5C1802.4,2837.5,1812,2833.8,1824.2,2828.7z"/>
		<path class="st0" d="M1458.8,972.4c0.2,65.1-53.3,121.3-115,120.8c-72.7-0.6-125.4-50.4-125.9-119.1c-0.5-65.2,53-122.3,114-121.8
			C1405.7,852.9,1458.7,903.1,1458.8,972.4z M1337.9,1044.5c40.6,0.1,72.9-31.3,73.1-71.2c0.3-39.8-31.9-71.9-72.3-72
			c-41.2-0.1-72.8,30.6-73,71.1C1265.5,1012.4,1297.5,1044.3,1337.9,1044.5z"/>
		<path class="st0" d="M1019.4,1205.2c-38.2,0.2-68.7-30.1-68.7-68.2c0-37.9,31.1-69,68.7-68.6c36.7,0.3,67.4,30.9,68.1,67.7
			C1088.2,1173.6,1057.3,1205,1019.4,1205.2z"/>
		<path class="st0" d="M984.3,973.1c-38.7,0.2-68.9-29.3-69-67.5c0-37.8,31.1-68.8,68.8-68.5c37,0.3,67.5,30.3,68.2,67.3
			C1053.2,942.2,1022.8,972.9,984.3,973.1z"/>
		<path class="st0" d="M1667.8,1137.9c-0.3,38.2-31,68-69.3,67.4c-37.2-0.6-66.7-30.7-66.7-68.2c0-38.1,30.7-69,68.4-68.7
			C1638.2,1068.6,1668.2,1099.4,1667.8,1137.9z"/>
		<path class="st0" d="M1632.5,973.4c-38.5,0.2-68.4-29.7-68.4-68.1c0.1-38.3,30.6-68.7,68.6-68.3c37.4,0.4,67.1,30,67.6,67.5
			C1700.8,942.8,1670.9,973.3,1632.5,973.4z"/>
		<path class="st0" d="M1509.8,448.9c24.7,0.1,43.1,18.6,43.2,43.4c0.1,25.3-19.1,44.2-44.9,44c-25.2-0.2-45.2-20.1-44.6-44.7
			C1464.1,466.7,1483.5,448.7,1509.8,448.9z"/>
		<path class="st0" d="M1464.2,571.2c26.4-0.2,45.3,17.7,45.3,42.8c0,24.6-20.3,44.5-45.3,44.3c-24-0.2-43.9-19.5-44.4-43.3
			C1419.1,589.9,1438,571.3,1464.2,571.2z"/>
		<path class="st0" d="M1884.4,465.2c25.5,0.3,44.4,19.7,43.9,45.2c-0.5,24.1-19.9,43.6-43.9,43.8c-24.7,0.3-44.8-19.8-44.8-44.8
			C1839.6,484,1858.9,464.9,1884.4,465.2z"/>
		<path class="st0" d="M1884.5,391.1c0.1,25.1-19.7,45-44.6,44.8c-24.1-0.2-43.5-19.3-44-43.6c-0.5-25.5,18.3-45.2,43.6-45.5
			C1864.9,346.6,1884.4,365.7,1884.5,391.1z"/>
		<path class="st0" d="M1711.6,392.1c-0.4,24.9-20.9,44.6-45.7,43.8c-24.9-0.8-43.7-21.3-42.9-46.5c0.8-24.4,20-42.7,44.6-42.5
			C1693,347.1,1712,366.7,1711.6,392.1z"/>
		<path class="st0" d="M802.7,1618c-0.1,49.6-39.4,88.4-89,88.2c-49.3-0.2-89.1-40.1-88.7-89c0.3-48.6,41-89,89.5-88.7
			C763.4,1528.8,802.8,1568.8,802.7,1618z"/>
	</g>
</g>
</svg>
