<?xml version="1.0" encoding="utf-8"?>
<!-- Generator: Adobe Illustrator 23.0.0, SVG Export Plug-In . SVG Version: 6.00 Build 0)  -->
<svg version="1.0" xmlns="http://www.w3.org/2000/svg" xmlns:xlink="http://www.w3.org/1999/xlink" x="0px" y="0px"
	 viewBox="0 0 3000 3000" style="enable-background:new 0 0 3000 3000;" xml:space="preserve">
<style type="text/css">
	.st0{opacity:0.34;}
	.st1{stroke:#000000;stroke-width:10;stroke-miterlimit:10;}
</style>
<g id="Layer_1" class="st0">
</g>
<g id="Layer_2">
	<g>
		<path class="st1" d="M503.5,1832c-0.5-5.7-4.5-9.2-8.4-10.5C313.6,1760,226.7,1627,210,1442.4c-21.4-235.9,56.3-437.6,216.5-609
			c45.5-48.7,103.7-78.1,167.4-97.6c125.4-38.3,254.5-55.4,383.7-74.8c196.2-29.6,393.8-44.2,591-63.3
			c159.6-15.5,319.8-22.6,480-9.8c40.2,3.2,81.3,2.3,120.2,13c60.6,16.8,107.8,54.1,144.2,105c20.9,29.2,37.1,61.1,51.8,93.7
			c3.4,7.6,7,15.2,12.5,27.2c10.8-41.4,21.7-77.7,29.5-114.7c36.1-171.4,154-218.8,303.9-188.5c15.2,3.1,30.4,6.7,44.2,14.3
			c5.7,3.1,12.1,4.9,17.5,0.5c6.2-5.1,2-11.1,0-16.9c-5.6-16.1-10.7-32.4-11.5-49.7c-1.6-34.9,18.3-54,53.2-50.9
			c56.3,4.9,98.5,32.7,124.8,81.8c39.3,73.5,48.1,152.4,31.6,233.4c-10.5,51.1-47.5,80.3-94,98.7c-31.1,12.3-31.9,12.8-20.3,43.8
			c24.8,66,13.8,128.7-18.5,188.6c-9.2,17.1-9.2,29.9,1.5,46.5c28.9,45,32.9,96.5,33.6,148.1c0.3,22.5-1.8,45.1-2.5,67.6
			c-0.5,15.6-5.2,29.8-18.4,38.5c-15.2,10.1-16.5,21.6-10.8,37.9c28.5,81.1,17.7,158.8-20.4,234.6c-21.3,42.5-53.9,67.1-100.7,73.5
			c-6.7,0.9-13.3,2.8-23.2,4.9c17.2,9.8,32.4,17.3,46.4,26.5c132.3,87.3,158.8,265.1,59.7,393.3
			c-81.7,105.8-193.5,136.9-320.4,131.7c-28.9-1.2-57.3-5.7-84.2-16.9c-40.8-17-62-46.2-58.7-80.6c3.5-35.6,33.3-64.8,74.8-72.8
			c29.8-5.7,58.7,0,87.5,7.5c37.6,9.7,73.8,12,104.7-18.3c29.5-28.9,37.6-67.2,21.5-104.8c-18.8-43.9-62-70.8-109.6-68.4
			c-22.1,1.1-42.5,8.8-62.4,17.5c-42.6,18.9-84.9,38.6-127.4,57.7c-4.4,2-8.2,3.4-10.1,8.5c-27.3,73.3-83.9,122.1-142.2,169.3
			c-143.4,116.4-309.7,182.7-488.7,219.9c-185.1,38.4-372.6,59.6-560.7,75.9c-159.6,13.9-318.9,31.4-479.3,32.5
			c-142.7,1-284.7-4.1-424.1-38.4c-53.5-13.2-104.4-32.1-143.2-73.5c-49.8-53-62.7-116-47.9-186.1c20.4-96.2,79.4-165.2,155.5-222.2
			c92.9-69.6,197.8-113.2,308.9-143.6C499.3,1833.5,501.4,1832.7,503.5,1832z M1231.9,679.1c-35.6,4.2-64.5,7.7-93.5,11
			c-155.2,17.9-310.1,37.7-462.3,74.6c-85.9,20.8-165.5,50.6-227.8,118.4c-80.8,88-132.7,190.7-165.8,304.1
			c-4.7,16-0.7,28.3,11.8,39.5c68.8,62.3,151.5,78.3,240.7,73.1c13.1-0.8,16.9-9,17.7-20.1c1.8-25.6,4.4-51.1,5.1-76.8
			c1.3-47.7-12.1-62.5-59.5-68.2c-9.4-1.1-18.4,0.8-27.6,2.6c-21.8,4.3-30.8-4.8-34.3-29.5c-3.1-22.3,10.4-21.8,25.5-21.3
			c6.1,0.2,12.3-1.8,18.4-2.5c73.8-8.5,124.8,33.5,128.5,107.2c1.8,35.8-1.9,71.5-8.2,106.8c-5.7,32.5-19.4,46.4-51.7,50.8
			c-95,13-182-9-261.9-61.2c-6.9-4.5-12.3-11.8-22.5-12.9c-11,66-12.2,131.6-0.6,197.2c27.8,157.5,114.5,263.7,269.9,310.5
			c110,33.1,222.7,29.8,335.6,25.1c12.3-0.5,14.8-7.4,15.6-18.3c2.5-31.8,5.2-63.6,9.5-95.1c6.3-46.2,14.9-92.2,32.5-135.7
			c18.6-45.9,53.8-63.4,101-51.3c14.9,3.8,29.1,10.7,43.4,16.6c27.4,11.3,30.2,10.1,34.3-18.4c3-20.8,4.4-41.8,7.6-62.5
			c6.4-41.1,28.8-69.1,68.2-84.1c49.4-18.7,100.1-27.6,153-25.1c36.2,1.7,66.1,13.6,81.1,48.3c15.2,35.3,4.4,67.1-19.9,94.8
			c-16.4,18.7-34,36.4-50.5,55c-5.7,6.4-18.6,12.6-10.6,22.5c8.1,10,19.8,3.4,29.6-1.8c18.6-9.8,25.1-28.9,35.2-45.3
			c17.8-29,41.6-39.8,70.5-32.4c23.5,6,35.1,25.8,36.4,60.8c2.5,67.7,4,135.3,0.8,203c-0.7,14.5,0.3,27.2,20.7,24.4
			c111.6-15.2,223.7-27.1,333.2-55.1c132.4-33.9,247.5-95.3,334.6-203.5c74.8-92.9,116.9-200.7,143.2-315.6
			c7.9-34.5,4.7-39.2-30.9-40.1c-6.2-0.1-12.4,0.1-18.7,0.2c-66.9,1.1-133.8,2.7-200.7,3.1c-30.8,0.2-60.2,5.1-88.4,17.7
			c-29.7,13.3-59.2,27.3-89.5,39.4c-65.7,26.1-161.2-15.7-140.3-116c2.4-11.4,3.4-23.1,6.4-34.3c10.7-38.8,34.4-56.3,75-56.2
			c37.1,0.1,37.5,0.2,47.3-34.7c4-14.1,11.1-19.9,25.3-14.8c12.9,4.7,31.3,4.4,25,27.2c-4.9,18-9.5,36-13.7,54.2
			c-4,17.5-16,24-32.4,23.9c-8.5-0.1-17-1.8-25.5-2.9c-47-6.2-51.9-2.4-57.3,45c-0.6,5.4-1,10.9-0.8,16.3
			c1.5,33.3,16.8,46.8,50.3,46.6c20-0.2,38.9-4.3,55.6-14.8c56.9-35.4,119.5-46.6,185.2-46.5c62.2,0.1,124.5,1.5,186.7-3.1
			c52.4-3.9,50.6-4.7,53.3-56.7c4.7-92.8-10.9-180.9-52.2-264.5c-38.2-77.3-98.8-125-183.9-139.2c-131.5-21.9-263.6-13.8-395.7-6.5
			c-16.3,0.9-18.1,10.2-18.5,23.3c-2.1,65.2-29.4,118.7-84,153.3c-98.9,62.7-203.3,114.3-321.1,130.8c-45.5,6.4-91.8,7.5-136-9.2
			c-58.2-22-74.3-78.8-36.5-127.8c9.5-12.3,20.2-23.7,30.5-35.3C1178.2,739.5,1202.8,711.9,1231.9,679.1z M1854.8,1767.4
			c31.4,3.9,59,7.2,86.6,10.9c90.8,12.2,182.2,21,268.9,54c20.6,7.8,39.4,2.3,56.7-11.2c42.5-33.1,88.2-61,137.2-83.5
			c59.7-27.4,122.5-39.8,188.1-37.3c32.9,1.3,33.2,1.9,33.3-32c0.5-151.7,1.1-303.4,0.8-455c-0.1-51.3-3.4-102.6-8.4-153.7
			c-4.8-49.5-14.1-98.6-10.3-148.7c4.6-61.8,48.4-103.2,110.1-104c16.3-0.2,32.7,0.1,49,0c36.4-0.1,70.8-9.4,103.3-25.1
			c35.1-17,54-45.6,56.1-84.9c2.8-51.1-4.4-100.9-21.2-149.1c-13-37.2-40.6-59.4-76.6-73.1c-14.7-5.6-16.5-0.1-13.4,12.1
			c3.6,14.3,8.6,28.3,11.2,42.7c7.1,40.5-20.9,68.8-61.4,62.4c-10.6-1.7-21-5.4-31.2-9.1c-39.4-14.1-79.9-17.6-121.5-14.6
			c-71.5,5-117.4,40.2-140.6,109c-56.2,166.5-76.7,337.3-67,512.3c4.9,89.7-2.1,178.5-20.4,266.5c-19.4,93.3-73.6,137.6-168.8,135.4
			c-20.2-0.5-36,5.5-50.5,18.8c-48.7,44.5-104.7,77.5-164.9,104C1953.6,1734.5,1905.4,1748.8,1854.8,1767.4z M648.6,2448.2
			c113.4-3.7,223.6-10.3,333.6-20.1c20.1-1.8,27.1-10.5,26.4-29.7c-0.9-24.8-0.8-49.7-0.3-74.6c0.7-29.1-2.5-31.9-31.9-29.1
			c-56.5,5.4-113.1,11.9-169.8,2c-52.1-9.1-74.1-41.6-64.7-94c1.1-6.1,1.9-12.3,3.5-18.3c2.3-8.5,0.5-15.3-6.6-20.6
			c-45.1-33.8-41.6-88.1-0.5-132.3c37.5-40.3,85.7-58.1,138-66.5c31.8-5.1,64.2-6.9,96.3-10c22.5-2.2,36.2-12.2,34.9-37.1
			c-0.5-9.3,0.7-18.6,1.2-28c1.2-20.3-6.4-29.9-28.6-28.2c-38,3-76.1,5.3-114.2,5.4c-67.7,0.1-135.4-3.7-203-2.5
			c-170,3-320.3,63.4-456,162.6c-61.4,44.9-106.1,102.3-123.2,178.3c-19.5,86.7,11.9,149.2,93.4,184.9c22.9,10,46.8,16.6,71,22.4
			C381,2444.1,516.1,2448.2,648.6,2448.2z M1306.2,2393.6c4.4,3.5,9,1.7,13.5,1.3c124-11,246.5-31.9,368.2-57.4
			c172-36.1,330.9-101.4,467.1-215.6c39.4-33.1,77.3-67.5,103.8-112.6c29.3-49.9,20.8-83.3-29.4-112.6c-20.9-12.2-43-21.7-66.7-27.2
			c-194.1-45.5-390.3-67.2-589.8-53.1c-41.1,2.9-82.2,5.9-123.2,9.7c-24.7,2.2-28.9,9-25,33.3c2.8,17.6,6,35.4,6.2,53.1
			c0.3,20.6,9,27.2,28.8,25.7c52.1-3.9,104.2-0.3,156.1,3.5c55.1,4.1,93.9,34,109.8,83.2c32.3,100.2-25.4,179.8-130.6,178.7
			c-57.5-0.6-115.1-2.8-172.5-5.2c-16.7-0.7-25,4.7-30.5,20.9c-18.9,55.4-46,106.9-77.6,156.1
			C1310.8,2380.9,1304.5,2385.6,1306.2,2393.6z M1382.7,1962.2c-0.7-26.1-3.6-64-8.3-101.9c-2.1-16.7-9.5-24.6-27.6-23.3
			c-86.1,6.1-172.2,11.9-258.4,17c-20.7,1.2-27.7,9.7-27.8,30.4c-0.3,99.9-2,199.7-2.8,299.6c-0.2,26.3,1.2,52.5,2.7,78.8
			c2.6,44.6,0.9,89.5,0.3,134.2c-0.2,17.4,6.6,23.2,24,21.2c35.5-4.1,71.2-8,106.9-9.2c25.9-0.9,44.6-11.1,59.1-31.4
			C1336.7,2256.9,1382.8,2123.1,1382.7,1962.2z M1457.5,1528.2c-15.5,1.3-17.3,9.9-20.3,16.4c-21.9,46.1-60.4,64.4-109,66.3
			c-22.9,0.9-41.4-6.6-52.2-27.7c-10.1-19.9-3.3-37.4,8.7-54.2c23-32.5,52.5-59.3,76.9-90.5c20.7-26.5,10.6-50.1-23-53.7
			c-39.3-4.2-77.3,4.2-114.9,14.2c-48.3,12.8-60.9,28.2-62.8,78.6c-0.9,22.7-3.1,45.1-11,66.4c-10.9,29.6-33.4,41.8-64.5,36.2
			c-20-3.6-38.5-11.9-57.1-19.6c-32.2-13.4-47.7-6.1-57.9,27.3c-19.2,62.7-28.8,127.1-32.8,192.5c-1.2,18.9,5,26.4,24.9,26.3
			c158.8-1,316.2-21.6,474.2-34.1c15.2-1.2,19-9.5,19.1-23c0.3-40.4,1.4-80.9,1.8-121.3C1457.7,1595,1457.5,1561.9,1457.5,1528.2z
			 M2328.6,1956c17.9-13.1,33.9-25.2,50.3-36.7c58.1-40.6,121.6-58.2,192-42.9c77.1,16.7,128.6,96,113.3,172.9
			c-16.1,80.5-85.3,127.4-167.8,113.3c-21.4-3.7-42.7-8-63.8-12.8c-17.9-4-34.1,0.4-49,9.5c-17.9,11-18.1,27.2-1.1,39
			c5.7,4,12.1,7,18.6,9.6c106.3,42.3,201.9,17,287.8-50.7c74.5-58.6,113.7-135.5,98.8-232.6c-15.2-99.2-104.1-169.4-215.6-174.3
			c-113.3-4.9-205,47.4-293.5,108.8c-10.5,7.3-9.5,17.6-2,26.4C2313.6,1905.4,2324.6,1928,2328.6,1956z M1247.9,890.8
			c16.2-0.6,32.4,0.6,48.8-2.4c106-18.9,200.5-64.6,290.6-121.7c35.4-22.5,54.7-53.8,60.6-94.7c4.6-31.6,1-35.2-31.3-31.9
			c-92,9.3-184.1,18.2-276.1,27.2c-11.7,1.1-23.8,1.8-32.6,10.6c-50.5,50.7-102.1,100.5-145.7,157.5c-14.6,19.1-9.6,34.3,12.6,44.8
			C1198,891.2,1222.8,892.3,1247.9,890.8z M2676.8,1250c0.8,0,1.6,0,2.4,0c0,38,0.4,76-0.2,114c-0.2,15.5,5.4,21,20.9,18.2
			c20.8-3.7,39.7-12.7,59.6-18.8c46.7-14.3,65.8-43,63.4-92.2c-2.3-46.2-5.6-91.3-27.7-132.9c-9.4-17.6-22.8-31.1-44.2-27
			c-17.7,3.4-35.2,5.1-53,3.9c-14.9-1-21.2,6.1-21.2,20.7C2677,1174,2676.8,1212,2676.8,1250z M2711.5,1063.7
			c79.8-0.1,90.6-9.3,103.7-88.8c1.1-6.9,2.2-13.9,2.5-20.8c3.7-76.6-15.8-96.8-91.8-95.3c-49.5,1-71.6,23.9-68.7,73
			c1.8,31,5,62,8.6,92.9C2670.4,1063.8,2670.9,1063.8,2711.5,1063.7z M2676.8,1557.3c0.3,0,0.7,0,1,0c0,29.6,0.6,59.2-0.2,88.7
			c-0.4,15.6,6.1,21.4,20.8,20.1c36.8-3.3,65.6-18.9,80.9-54c13.4-30.8,22-63.3,24.5-96.8c2.2-30.1,5.4-60.4-8.4-89.5
			c-5.8-12.4-12-15.6-25.2-11.3c-16.9,5.5-34.6,8.6-52,12.4c-32.4,6.9-41.5,18.2-41.3,51.1
			C2676.9,1504.4,2676.8,1530.8,2676.8,1557.3z M813.5,2123.3c0,0.2,0,0.4,0,0.5c47.3-3.2,94.5-7.2,141.8-9.3
			c50.6-2.3,52.3-3.2,52.6-53.1c0-1.6,0-3.1,0-4.7c-0.3-53.6-0.3-54.2-53.6-49.2c-42.4,4-85.1,6.4-125.5,22.9
			c-26.8,10.9-48.3,27.9-64.7,51.4c-7,10.1-8.8,22-3.1,33.1c5.5,10.7,16.6,9.8,26.8,9.4C796.4,2124.1,805,2123.7,813.5,2123.3z
			 M1518.2,2151.5c37.8,0,68.1,0.6,98.4-0.2c20.9-0.5,39.7-6.9,52.4-25.4c38.2-55.7,4.9-126.1-61.6-133.3
			c-51.3-5.5-102.5-2.8-153.8-3.5c-6.3-0.1-16.9-3.7-16.9,6.2c0,12.1,11.5,6.7,18.2,6.8c49.7,0.7,99.5,0.8,149.2,1.7
			c16.8,0.3,30.2,4.4,28.3,26.6c-1.7,19.6-11.6,23.9-29.3,23.6c-51.3-0.9-102.6-0.3-153.9-0.6c-8.7,0-18.6-2.1-18.2,11
			c0.4,13.7,10.7,9.3,19,9.4c56.7,0.9,113.4,1.8,170.1,3.6c18.3,0.6,18.7,14.5,18.3,28.8c-0.4,14.6-4.2,23.9-21.4,22.6
			c-27.1-1.9-54.3-3.3-81.5-4c-34.2-0.9-68.4-0.9-102.6-1.1c-9-0.1-15.1,3.7-15.1,13.6c0,10.8,8.2,9.3,15,9.6
			C1463.6,2148.6,1494.6,2150.3,1518.2,2151.5z M922.3,2165.5c0,1,0,1.9,0,2.9c-31.8,2.2-63.6,4.4-95.3,6.5
			c-27.6,1.9-36.7,13.9-35.9,48c0.6,25.1,19.7,24.9,36.6,25.5c43.5,1.6,86.9,0.1,130.4-3.2c49.2-3.7,54.8-9.1,50.4-58.2
			c-0.1-1.5-0.4-3.1-0.3-4.7c0.5-12.7-4.8-17.9-18.2-17.3C967.3,2166.3,944.8,2165.5,922.3,2165.5z M2344.9,1353.3
			c-30.3,65.2-66,126.4-109.6,184.3c39.5,1.1,68.3-14.3,82.7-46.6C2337.5,1447.5,2344.7,1401,2344.9,1353.3z"/>
	</g>
</g>
</svg>
