<?xml version="1.0" encoding="utf-8"?>
<!-- Generator: Adobe Illustrator 23.0.0, SVG Export Plug-In . SVG Version: 6.00 Build 0)  -->
<svg version="1.0" xmlns="http://www.w3.org/2000/svg" xmlns:xlink="http://www.w3.org/1999/xlink" x="0px" y="0px"
	 viewBox="0 0 3000 3000" style="enable-background:new 0 0 3000 3000;" xml:space="preserve">
<style type="text/css">
	.st0{stroke:#000000;stroke-width:10;stroke-miterlimit:10;}
</style>
<g id="Layer_1">
</g>
<g id="Layer_2">
	<g>
		<path class="st0" d="M480.3,1364.7c-30.3-19.6-57.8-38.9-83-61.2c-83.6-74-132.4-165.7-143.5-277.4
			C241,897.1,231.7,768,235.1,638.4c1.8-65.6,11-130.2,32.2-192.7C316.9,300,422,213.8,564.8,168.4c116.2-37,235.8-46.8,356.9-42.6
			c86,3,172.1,6.5,257.9,14.5c75.9,7.1,142.8,35.2,200.5,84.6c10.2,8.8,17.3,10.4,27.7,0c88.6-88,197.5-129.4,320.2-139.4
			c182.1-14.8,353.9,22.3,517.3,101.9c26.3,12.8,50.4,29.3,73,47.7c7.7,6.3,12,5.8,15.8-3.4c31.3-76.7,93.2-107.1,171.3-112.2
			c82.1-5.4,163.2-2,239.7,33.1c82.1,37.7,121.7,120,98,202.5c-7.7,26.7-22.1,48.6-47,61.5c-25.2,13-33.2,34-34.6,60.4
			c-2,38,6,74.7,13.3,111.5c17.5,88.7,21.3,178.6,20.4,268.6c-0.7,73.1-6,146.1-13.3,218.9c-7.3,73.3-46.2,120.5-114.2,144.5
			c-55.1,19.5-112.4,29.6-170.4,35.9c-80.9,8.9-161.5,19.8-248.3,20c10.3,5.3,16.2,8.5,22.2,11.5
			c157.4,78.7,276.5,193.2,333.6,363.3c31.2,93,46.5,189.7,55.3,287.3c15.7,174.4,2.8,346.9-42.3,516.2
			c-33.3,125-95.1,233.4-200.9,312.3c-57.4,42.8-125,60.6-193.7,74.8c-120.4,25-242.1,41.2-364.1,55.6
			c-152.4,17.9-305.1,31.6-458,44.8c-226.4,19.6-451.5,11.5-675.4-28.1c-84.6-15-169.5-28.9-253-49.7
			c-177.3-44.3-290-159.8-354.5-326.8c-51.6-133.7-66-272.5-53.4-414.3c16.2-182.2,71.2-352,170-506.7
			c62.1-97.2,138.9-180.4,235.4-244.5C472.8,1370.4,475.2,1368.4,480.3,1364.7z M275.2,2705c-1.5-16-2.4-26.2-3.6-36.5
			c-6.2-54-12.2-108-13.7-162.4c-3.3-120,3.4-239.6,16.6-358.7c14.2-128.5,60.1-244.4,147.7-341.9
			c161.3-179.6,364.9-276.8,602-307.6c205.9-26.7,413-28.6,620-25.8c196.1,2.6,377.1,61.8,544.6,161.7
			c179.1,106.9,271.6,263.1,262,474.9c-3.2,70.5-5.5,140.9-11,211.3c-10.5,134-31.2,265.9-66.2,395.7c-2.4,9-11.1,21.6-2.7,27
			c8.8,5.5,18.2-6.4,25.9-12.8c70.4-58.2,119.9-131.6,155-215.2c35.2-83.8,50.9-172.1,59.2-262c14.2-152.9,11.2-305.5-13.2-457
			c-23-143.4-83.7-268.7-193.4-367.2c-83.6-75.1-182.5-121.5-289.3-152.9c-159-46.8-322.4-52.9-486.4-52
			c-79.6,0.4-159.2,4.2-238.8,8.3c-184.2,9.5-368.5,17-550.7,48c-117.8,20.1-229.7,56.9-331.5,120.3
			c-136.9,85.2-231.2,207.8-299.4,351.3c-79.8,167.8-109.4,346-100.6,530.5c5.1,107,32.5,209.3,81,305.3
			C210.2,2629.6,236.4,2668.4,275.2,2705z M1231.5,1195.4c54.8-2.7,104.5-5.4,154.3-7.4c10.6-0.4,14.4-5.1,16.5-14.7
			c5.4-24.6,11.2-49.1,14.4-74.2c7.1-55,0.6-109.9,0-164.9c-2-182.6-0.9-365.3-7.8-547.8c-1.2-32.6-10.3-62.2-29.3-88.9
			c-51.4-72.1-125.9-100.5-209.8-109.7c-90.8-9.9-182.2-12.3-273.4-14.1c-111.8-2.1-222.2,10.4-329.1,45.5
			c-109.6,36.1-194.3,101-241.9,209c-27,61.5-34.8,126.8-39.9,192.9c-9.1,117.4-1.4,234.3,12.6,350.7c7,57.7,11.5,116.1,34.1,170.7
			c35.5,86,91.9,152.2,178.6,189.9c7.3,3.2,14.3,6.6,23.6,1.7c123.6-65.9,257.7-95.1,395.2-112.5c10.3-1.3,18.3-4.4,24.9-12.6
			c81.5-99.9,125.4-212.2,111.7-342.8c-7.6-72.3-30.3-138.5-83.2-191.9c-63.4-64.1-158.5-22.3-186,33.5c-5.3,10.7-7,22-7.7,33.8
			c-1.7,30.1,10.8,56.9,19,84.6c9.7,32.7,6.7,62.6-14.3,89.9c-25.1,32.7-67.3,35.6-96.5,6.9c-14.1-13.9-23.8-30.7-31.2-48.7
			c-26.3-63.9-37.8-130.1-31.5-199.3c8.7-94.6,80.7-177.6,172.6-200.3c69.6-17.2,139.5-19.8,209.7-7.4
			c127.3,22.5,213.6,93.1,251.3,219c15.2,50.9,27.3,102.5,33.8,155.3c13.4,108.4,3.6,213-50.2,310.6
			C1245.3,1165,1239.6,1178.6,1231.5,1195.4z M2724,196.4c-8.8-3.5-15.2-6.3-21.9-8.6c-55.5-18.8-112.8-20.6-170.7-20.1
			c-30.8,0.3-60.4,4-88.9,16.5c-60.7,26.4-80.3,76-52.2,136.1c10.4,22.3,19.9,44.8,25.5,68.9c23.5,101.2,19.1,203.1,6.9,305.1
			c-1.8,15.4-8.7,23.6-25.8,20.2c-18.7-3.8-26.5-12.7-23.1-30.9c11.5-60.2,11.6-121.1,10.1-182c-1-38.9-6.8-77.3-19.2-114.5
			c-21.3-63.5-59.9-114-119.5-144.6C2060.4,147.7,1866,106.5,1659,145c-83,15.4-154.5,54.2-215.7,112.2
			c-10.9,10.3-17.9,22.2-9.6,36.1c20.6,34.3,23.1,72.3,24.5,110.5c6.9,182.5,9.1,365.2,9.9,547.8c0.3,72.8-2.3,144.8-19.7,215.8
			c-3.1,12.9-1.1,18,14.5,17.2c53-2.9,106.1-5,159.2-5.2c19-0.1,24.8-3.8,24.3-24c-3.9-148.2-6.2-296.3,10.6-444.3
			c17.3-152.5,102.1-251.1,251.5-280.2c74.2-14.5,142.1-1.6,188.7,64.2c93.3,131.8,154,276.6,166.7,439.2
			c2.8,35.5,19.3,60.8,51.2,76.5c59.5,29.2,119.7,28.3,180.8,5.5c32.9-12.3,53.2-35.5,60.7-70c3.5-15.9,6.3-31.8,6.4-48
			c0.4-75.8,0.6-151.5-1.7-227.3c-2.3-72.5-8.6-144.9-5.5-217.5c3.4-79.8,33.7-147.9,94.2-201.6
			C2672.1,231.8,2697.7,216.4,2724,196.4z M571.8,1901.6c25.7,0,47.5-0.1,69.3,0c19.2,0.1,25.3,6.7,25.4,25.5
			c0.1,18.4-11.4,20.6-25.9,20.5c-20.7-0.1-41.4,0.1-62.1,0.9c-34.2,1.3-48.6,12-60.6,44.3c-11.5,30.9-19.2,63-27.2,94.9
			c-6.5,26.1-2.5,31.6,24.1,31.6c36.3,0,72.5,0.1,108.8-0.4c13-0.2,21,4.6,23,18c2.7,18.2-3.9,26.8-23.1,26.9
			c-39.5,0.3-79,0.1-118.5-0.5c-18.7-0.3-28.1,6.2-29.9,26.4c-4.9,54.8-11.6,109.3-17.4,164c-2.1,20.1,3,25.9,23.3,26
			c53.8,0.2,107.5-0.1,161.3,0.1c20.3,0.1,29.4,13,23.1,32c-4.5,13.4-15.9,13.8-27,13.8c-50.5-0.1-101-0.4-151.5-0.6
			c-28-0.1-32.2,3.7-31.3,31.1c1.7,49.8,3.6,99.6,6.2,149.4c2,38.1,5.2,40,42.7,39.3c45.3-0.8,90.6-0.8,136-0.6
			c20.2,0.1,27.8,8.7,26,27.2c-2,20.8-18.2,19-31.9,19c-47.3,0.2-94.5-0.3-141.8-0.8c-16.1-0.2-21.9,6-18.6,22.7
			c5.6,27.9,10.2,56,13.7,84.2c2.5,20.4,12.2,30.7,32.6,34.3c66.2,11.7,132.1,24.8,198.2,36.9c110.9,20.2,222.6,33.6,335.1,39.7
			c30.1,1.6,35-3,36.5-30.7c3.8-69.8,7.8-139.6,12-209.3c8.6-140.2,17.7-280.3,26.1-420.5c11.3-187.3,22.3-374.7,33.5-562.1
			c1.6-27.2-1.6-30.2-29.3-27c-130.7,15-256,50.6-377.1,101.4C683.1,1789.7,621.7,1834.7,571.8,1901.6z M2110.4,2438
			c0,0,0,0.1,0,0.1c32.4,0,64.8,0.1,97.2,0c23.9-0.1,27.2-2.9,28-26.3c1.8-50.5,3.6-101,4.9-151.5c1.3-46.8,1-46.5-46.2-46.1
			c-50.5,0.5-101.1,0.2-151.6,0.5c-15.7,0.1-27-4.4-26.6-22.6c0.4-15.9,8.4-22.7,24.7-22.6c58.9,0.5,117.9,0,176.8,0.4
			c14.4,0.1,24.5-2.7,22.5-20.4c-6.9-59.1-11.1-118.5-26.2-176.5c-5-19.2-14.3-26.6-33.8-26.2c-45.3,0.9-90.7,0.4-136,0.6
			c-14.6,0.1-27.9-1.2-28.1-20.7c-0.2-18.2,7.5-25.2,28.4-25.3c39.5,0,79,0.3,118.5,0.1c20.3-0.1,24-5.7,14.5-23.1
			c-23.6-43.7-53.3-82.5-92-114.2c-61.1-49.9-134.8-66.7-209.6-79.9c-85.5-15.1-172.4-18.1-258.7-26.6c-19-1.9-23.2,7.3-23.2,24
			c0.3,153.5,0.9,307.1,0,460.6c-1.4,237.7-2.8,475.3-17.9,712.7c-1.5,24,3.1,28.3,28,25.5c167.2-18.7,334.7-34.2,500.9-61.2
			c64.9-10.6,71-16.1,82-82.1c3-17.8-2.6-23.4-19.9-23.3c-51.2,0.5-102.4,0.4-153.5,0.1c-18.8-0.1-28.3-10-27.8-26.7
			c0.5-18.2,12.7-19.9,26.9-19.9c54.4,0.2,108.8,0.1,163.2,0.1c26.5,0,29.5-3,33.3-29c5.7-39,11.6-78,18.2-116.8
			c5.4-31.7,0-38.5-32.1-38.3c-53.1,0.4-106.2,0.6-159.3,0.7c-11,0-22.1,0.6-32.9-1.1c-15.9-2.5-17.6-15.2-16.9-28.2
			c0.7-13.2,8.9-17,21.1-16.8C2041.7,2438.3,2076.1,2438,2110.4,2438z M2610.3,688.4c1.3,73.9,1.9,147.7-0.4,221.5
			c-1.5,47.1-9.4,91.5-50,123c-76.4,59.3-202.6,64.7-283.6,11.2c-35.5-23.5-56.2-55.8-59.8-99.2c-12.2-147.9-65-281.3-146.2-404.4
			c-34.2-51.9-82.5-73-143.4-64.3c-119,16.9-201.1,100.3-218.7,219.6c-14.5,98.1-11.1,197-15.9,295.6c-2.7,55.8,1.4,111.3,1.3,166.9
			c0,15.1,3.6,21,20.5,21c38.8,0.1,77.8,1.5,116.4,5.5c19.2,2,21.6-3.7,22-20.8c2.2-95.8-12.2-191.6-0.2-287.3
			c7.7-61.6,10.3-123.8,23-184.7c11.9-57.3,62.8-80.9,113.8-52c24.7,14,38.4,36.4,44.9,63c8.8,35.9,12.7,72.6,16.2,109.3
			c10.6,110.8,20.8,221.6,31.3,332.4c2.2,23.5,14.6,41.2,34.3,53.6c14.9,9.4,31.1,15.8,48.3,19.5c45.3,9.6,91.1,10.9,137.2,8.4
			c62.1-3.4,123.8-10.4,185.5-17.4c52.1-5.9,103.8-14.5,154-29.9c50.7-15.5,85-47.8,92.5-101.4c15.8-113.1,15.3-227.2,10.4-340.8
			c-3.3-76-16.9-151.4-30.8-226.5c-11-59.6,10.3-106.6,61.3-137.1c10.8-6.5,17.6-15,21-26.5c11-36.9,4.9-71.6-14.1-104.6
			c-5.6-9.7-12-11.7-22.2-6.2c-36.1,19.5-70.1,41.7-97.9,72.3c-25.8,28.4-43.3,61.4-50.4,99.1c-6.1,32.5-9.1,65.5-7.8,98.6
			C2605.1,566.8,2607.8,627.6,2610.3,688.4z M444.2,2806.7c-0.8-6.1-1.1-9.2-1.6-12.3c-13.5-86.3-25.4-172.8-28.7-260.2
			c-5.3-138.9,7.2-276.8,26.8-414.1c27.4-192.5,127.4-330.3,308.5-405.9c192.3-80.2,393.6-113.1,601-111.5
			c101.7,0.8,203.1,7.9,304.5,14.8c92.3,6.3,184.6,13.4,275.5,31.8c129.2,26.1,230,91.9,289.1,212.7
			c44.9,91.8,56.2,191.7,64.2,291.9c7.2,89.4,3.2,178.6-3.7,267.8c-7.3,93.5-17.2,186.6-38.7,278.2c-7.4,31.6-15.3,63.1-23.4,96.4
			c23.5-4.7,44.6-8,65-13.4c17.3-4.6,28.8-17,35.2-33.6c4-10.2,7.5-20.7,10.3-31.3c57.3-214.7,80.2-433.8,78.2-655.4
			c-1.3-142.9-61.5-260.6-175.2-346c-162.1-121.7-348.7-180.7-549.1-199.8c-64.1-6.1-128.1-2.7-192.2,0.1
			c-142.3,6.2-285,3.9-426.8,19.3c-174.4,18.9-334.7,76.9-478,179.2c-115.4,82.4-202,186.6-243.4,324.6
			c-19.5,65-22.5,132.5-30.1,199.3c-19,165.9-11.2,331,13.4,495.6c1.5,9.7,4.3,19.2,13.3,24.9
			C370.5,2780.5,404.3,2797.7,444.2,2806.7z M1014.1,1211.2c50.6-3.8,97.4-7.9,144.2-10.6c13.7-0.8,20.1-6.8,25.9-18.5
			c33.3-67.6,52.2-139.1,59.8-213.6c10.4-101.7,3-201.6-32.6-298.3c-19-51.6-51.2-91.9-101-118c-104.5-54.7-211.3-59-321-18.5
			c-41.2,15.2-69.8,43.4-87.1,83.4c-39.9,92.4-20.7,179.6,23.7,264.5c3.9,7.5,9.7,11.7,18.9,10.2c8.8-1.4,13.3-6.5,16.2-14.6
			c6.4-18.3,2.5-35.7-3.3-53.1c-7.2-21.4-16.3-42.4-17.3-65.2c-2.8-63.1,25-110.5,79.5-140.4c58.4-32,118.3-37.4,175.7,3.5
			c34.3,24.5,60,57.3,78,95c61.9,130,57.2,260.3-0.6,390.3C1057.3,1142.6,1037.9,1175.9,1014.1,1211.2z M1414.9,2273.3
			c0.7,0,1.4,0,2,0c0-17.5-0.6-35,0.1-52.4c7.3-170.8,15.1-341.5,22.3-512.3c2.5-58.8,0.1-60.6-59.2-62.7
			c-28.2-1-36.1,6.3-37.4,34.1c-3.9,85.4-7.6,170.7-12,256.1c-7.3,140.3-14.2,280.6-22.8,420.8c-10.5,172.4-11.5,345.4-30.7,517.3
			c-2.3,20.7,7.2,32.1,28.4,32.8c12.8,0.4,25.8-1.6,38.5-3.5c42.7-6.5,42.6-6.7,44.5-50C1397.4,2660,1406.2,2466.6,1414.9,2273.3z
			 M1267.7,2281.4c-0.1,0-0.1,0-0.2,0c6.5-123.4,12.9-246.9,19.4-370.3c4-75.6,8.2-151.2,11.7-226.9c1.4-30.6-5.6-36.9-35.8-35.8
			c-9.1,0.3-18.1,0.4-27.2,1.2c-25.6,2.1-28.8,4.6-30.4,30c-5.8,92.4-11.2,184.8-16.7,277.1c-5.6,94.3-11.2,188.6-16.8,283
			c-7,118.2-14,236.4-21.1,354.7c-5.9,98.8-11.8,197.7-18.3,296.5c-0.8,12.9,3.1,18,15.7,17.7c22-0.5,44-0.8,66-0.7
			c14.6,0,21-5,21.8-21.4C1246.1,2684.7,1257,2483.1,1267.7,2281.4z M1551,2270.5c0-102.5-0.1-199.7,0-296.8
			c0.2-100.4,0.4-200.7,1.1-301.1c0.1-12.2-6.6-17.6-16.1-21.4c-23.3-9.2-47.4,5.4-49.3,30.6c-2.3,31-3.2,62.1-4.6,93.1
			c-7.5,161.7-15.3,323.4-22.4,485.1c-8.4,190.8-16.1,381.6-24.4,572.4c-2.6,59.4,2.9,65,62.2,58.7c29.4-3.2,34.3-9.6,34.8-39.7
			c1.5-78.3,3-156.7,5.6-235C1541.9,2499.3,1546.8,2382.3,1551,2270.5z M2063,1216.7c-18.9-27-28.9-52.9-31.7-80.9
			c-9.7-97.1-18-194.4-28.2-291.5c-4.8-45.5-4.9-91.8-19.1-136.1c-4.9-15.1-12.9-27.1-29.3-30.5c-21.5-4.4-32.4,7.1-35.9,39
			c-10.5,96.4-21.7,192.7-16.8,290.1c2.8,56.2,0.7,112.6,0.3,168.9c-0.1,9.6,0.9,15.5,12.4,16.7
			C1963,1197.6,2010.7,1205.8,2063,1216.7z"/>
		<path class="st0" d="M959.4,2508.4c-0.4,36.6-31.7,67.9-68.1,68.2c-36.8,0.3-69.5-32.3-69.4-69c0.1-37,32.5-69.4,69.3-69.3
			C928.1,2438.3,959.8,2470.9,959.4,2508.4z"/>
		<path class="st0" d="M959.5,2691.7c-0.2,36.6-31.9,68.7-68,69c-36.7,0.3-69.7-32.8-69.5-69.6c0.2-36.4,31.8-68.4,68.1-68.9
			C926.8,2621.6,959.7,2654.6,959.5,2691.7z"/>
		<path class="st0" d="M940.2,1796.5c38,0.2,68.2,30,68.2,67.1c0,38.2-30.9,69.3-68.9,69.3c-37.8,0.1-67.9-31.2-67.5-70
			C872.4,1825,901.9,1796.3,940.2,1796.5z"/>
		<path class="st0" d="M925.3,1998.5c40.5-0.1,68.3,26.6,68.7,65.2c0.4,36.7-30.2,66.4-68.2,67.3c-39.3,0.9-69.1-28.7-69.1-67.8
			C856.8,2024.2,883.8,1998.6,925.3,1998.5z"/>
		<path class="st0" d="M993.8,2300c-0.3,37.2-31,67.8-68.4,68c-38.2,0.3-69.2-30.8-69-69.1c0.2-39.8,28.1-64.5,72.9-64.6
			C965.7,2234.2,994.1,2263.1,993.8,2300z"/>
		<path class="st0" d="M1827.1,2399.5c-39.5-0.2-68.8-29.6-68.2-68.3c0.6-36.8,31.6-67.5,68.5-67.8c37.5-0.4,68,31.3,67.7,70.1
			C1894.7,2371.8,1866,2399.7,1827.1,2399.5z"/>
		<path class="st0" d="M1849.1,2740.8c-0.9,38.5-32,68-70.6,66.7c-36.3-1.2-66.2-33.7-65.1-70.8c1.1-37.7,31.5-67,69.1-66.5
			C1821.1,2670.7,1850,2701.4,1849.1,2740.8z"/>
		<path class="st0" d="M1895,1833.3c-0.1,38-29.5,68-67,68.4c-38.3,0.3-69.3-30.4-69.2-68.5c0.1-38.6,30.4-68.2,69.5-67.7
			C1866.6,1765.9,1895.1,1794.9,1895,1833.3z"/>
		<path class="st0" d="M1800.4,2490.8c37.7-0.4,67.6,28.7,68.4,66.8c0.8,38.6-29,70.3-66.8,70.9c-36.9,0.6-69.1-31.8-68.9-69.4
			C1733.2,2521.4,1762.9,2491.3,1800.4,2490.8z"/>
		<path class="st0" d="M1826.5,2131.1c-38-0.1-67.4-29.5-67.7-67.5c-0.3-38,30.9-69.8,69.1-68.3c40.9,1.6,67.4,31.5,67.2,67.7
			C1894.9,2102.1,1865.9,2131.2,1826.5,2131.1z"/>
	</g>
</g>
</svg>
