<?xml version="1.0" encoding="utf-8"?>
<!-- Generator: Adobe Illustrator 23.0.0, SVG Export Plug-In . SVG Version: 6.00 Build 0)  -->
<svg version="1.0" xmlns="http://www.w3.org/2000/svg" xmlns:xlink="http://www.w3.org/1999/xlink" x="0px" y="0px"
	 viewBox="0 0 3000 3000" style="enable-background:new 0 0 3000 3000;" xml:space="preserve">
<style type="text/css">
	.st0{stroke:#000000;stroke-width:10;stroke-miterlimit:10;}
</style>
<g id="Layer_1">
</g>
<g id="Layer_2">
	<g>
		<path class="st0" d="M2571,477.2c5-263.7-190.5-398.1-397-397.1c-123.6,0.6-231.9,43.5-319.6,132.6c-19.8,20.1-32.9,22.1-58,2.9
			c-121.8-93.1-259-126-409.5-89.9c-85.3,20.5-159.2,64-224.8,121.9c-11.9,10.5-18.9,15.3-31.6-1.3
			c-43.8-57.3-104.9-86.8-174.9-95.6c-65.4-8.2-127.5-5.9-186.7,5.8c-143.1,28.5-240.4,103.9-287,145.8
			c-22.1,19.9-45.5,41-70.3,75.7c-70,98.2-78.4,205.2-80.2,247.1c-2.9,70.3-2.1,140.6,11.3,210.2c1.2,6.4,0.8,13.2,1.4,27.7
			c3,8.9,7.1,17.5,9.7,26.7c4.7,16.8,6.5,34.6,12.3,51.2c7.2,20.5,22.3,39,29,59.8c97.8,137.4,104.2,140.4,256.1,212.3
			c-82,69.5-147.1,152-203.5,242.9c-22.9,43.9-49.2,100.4-72.9,168.2c-99.7,285-68.6,524.1-59.7,583.6c7.6,50.7,20.3,112.2,42.4,181
			C372,2432.2,392,2481,420,2532c11.4,20.8,23.1,40.1,34.8,57.9c8.9,11.6,16,20.7,22.9,29.8c63.3,83.2,142.5,147.8,233.8,198.1
			c159.6,87.8,333.2,125.4,512.7,137.1c198.2,13,396.9,16.8,595.1,0.2c152.2-12.7,291-63,406.6-166.3
			c191-170.6,273.8-392.6,298.8-640.5c18.1-179.6,9-358.9-13.3-537.5c-17.9-144-55.6-282-139.9-403.5c-29.3-42.3-29.1-42,13.8-67.1
			c16.3-9.5,32.1-20,47.1-31.4c125-95.2,182.7-266.4,95.2-414.2c-7.9-13.4-3.8-22.9,1.6-34.8C2555.8,602,2569.8,541.4,2571,477.2z
			 M1279.6,226.3c10.8-6.6,21.3-6.8,33-5.7c110.5,10.5,182.7,112.9,156.3,221.1c-14.2,58.5-41.2,111.9-63.5,167.2
			c-25.6,63.3-49.7,127.2-35,198c5.9,28.2,15.4,54.5,32,77.9c10.1,14.2,7.1,19.3-9.5,21.7c-62.4,8.8-123.1,25.8-184.9,37.3
			c-55.2,10.2-93.1-26.9-124.2-64.9c-35.4-43.3-46.7-97.7-52.4-152.5c-2-19.8-2-39.8-2.9-59.7
			C1031.3,473.7,1115.7,327.4,1279.6,226.3z M439.5,967.2c-55.2-110.4-65.1-229.9-54.3-350.3c18.4-205.3,155.4-351.1,373.7-403.1
			c84.7-20.2,169.8-27.5,253.5,6.5c34,13.8,60.6,36.8,82.9,65.6c9.1,11.7,9.2,21.1-0.9,32.9c-32.2,37.9-56.5,80.9-75.1,126.7
			c-7.5,18.4-16.1,24.5-36.6,24.1c-81.7-1.9-159.3,12.7-222.8,69.3c-48.1,42.8-73.7,95.9-69.3,161.6
			c4.8,70.3,52.8,127.4,121.1,143.7c58.9,14,123.2,8.1,187-17.9c19.4,61.8,53.3,109.6,112.3,144.8c-24.9,9.1-43.8,16.1-62.8,22.8
			c-111.2,39.6-217.1,89.8-314.6,156.8c-14.7,10.1-28.6,14.3-46.8,11C569.2,1141.1,491,1070.1,439.5,967.2z M981.1,749.4
			c2.8,19.6-6.3,29.5-22.5,36c-25.7,10.3-52.4,14.7-77,13.9c-82.9,0.4-129.6-32.5-138.4-98.1c-6.7-50,14.3-90.6,51-122.7
			c52-45.5,114.8-57.9,181.9-56.4c14.5,0.3,14.2,6.3,11.8,17.4C973.4,609,971.2,679.1,981.1,749.4z M1205,2501.9
			c-2.3,21.3-4.8,89.7-7.9,185.7c-2.9,62.9-6.4,125.9-8.1,188.8c-0.5,17.4-3.8,24-22.9,21.4c-112.5-15.4-223.3-36.6-329.6-78.9
			c-241.5-96.3-393.9-269.5-449.1-523.7c-68-313.3-25.9-609.5,152.6-880.3c107.5-163,265.1-262.9,440.6-338.3
			c83.1-35.7,169.1-62.3,256.2-85.9c23.2-6.3,28.2-0.6,27.2,22.6c-2.6,64.1-2.4,62.1-58.8,85.2c-171.8,70.4-325.9,166.7-434.5,321.6
			c-99.4,141.9-139,299.7-106.1,471.8c23.3,121.9,94.5,211,200,273.2c19.4,11.4,27.4,22.1,27.1,45.6
			c-2.1,160.9,126.2,280.1,286.9,267.3c10.6-0.8,17.4-0.4,21.4,3.2C1206.8,2487.3,1205.4,2498.3,1205,2501.9z M1214,2255.8
			c-1.1,25.1-0.3,50.2-0.3,75.3c-0.9,0-1.7,0-2.6,0c-1.2,23-3.8,46-3.3,69c0.4,17.4-6.1,23.7-22.8,25.9
			c-122.1,15.5-230.3-70.7-241.5-192.9c-1.8-19.2-3.1-31.9,24.8-22.8c72.4,23.6,147.3,31.5,223.2,24
			C1211.2,2232.3,1214.8,2238.7,1214,2255.8z M1220.3,2116.4c-5.6,76,11.3,62.7-66.7,66.9c-66.5,3.6-132-7.3-194.6-31.2
			C763.7,2077.8,682,1910.4,712,1705.6c33.2-226.6,174.1-371.7,360.4-483.3c58.2-34.9,119.3-64.4,184-87.7
			c5.5,89.5,4.7,87.4-74.6,118.5c-213.4,83.8-350.6,238.3-403.7,460.6c-28.8,120.6,17.3,221.6,116.7,295.2
			c87.3,64.7,187.9,86.2,294.8,78.4C1215,2085.4,1222.1,2091.2,1220.3,2116.4z M1188.8,2035.9c-76.5,1-150-6.7-219.6-42.9
			c-120.2-62.5-175.6-173.9-133.1-301.5c65.3-196.4,193.7-335.5,395.1-400c5.8-1.9,12-2.6,13.7-3c0,68.3,1.8,133.3-0.4,198.2
			c-5.7,171-13.6,341.8-19.2,512.8C1224.4,2026.4,1216.4,2035.6,1188.8,2035.9z M1472.5,978.1c-4.1,164.8-6.6,329.7-9.7,494.5
			c-2.8,152.2-5.7,304.5-8.6,456.7c0.1,0,0.1,0,0.2,0c-5.7,316-11.7,632.1-16.4,948.1c-0.4,27.3-7.3,36.5-35.4,34
			c-47-4.1-94.4-5.1-141.6-6c-17.8-0.3-20.3-8.1-19.7-23.4c9.6-225.5,18.9-451.1,27.9-676.6c9.1-227.6,17.7-455.3,26.5-682.9
			c6.8-175.2,13.7-350.4,20-525.6c0.6-17.7,5.9-26.3,24.7-28.6c34.3-4.2,68.4-10.4,102.3-17.1
			C1466.3,946.6,1473.1,953.4,1472.5,978.1z M1625.9,2912.1c-35.6-2.2-71.5-1.8-107.1-0.1c-21.5,1.1-28.6-4.4-28.1-27.3
			c4.7-223.7-4.4-447.9,11.7-671.1c4.8-66.3,9.3-163.7,5.3-283.5c5.3-314,10.5-628,16-942c0.9-50.4-7.5-42.8,46.1-46.8
			c22-1.6,44.1-0.7,66.1-1.4c13.2-0.4,19.5,4.9,18.6,18.5c-0.5,8.4,0,16.8,0,25.2c0.2,448.6,0.3,897.1,0.6,1345.7
			c0.1,183.8,0.5,367.7,2,551.5C1657.3,2905.4,1651,2913.7,1625.9,2912.1z M1671.4,889.1c-53.5-2.3-107.2-3.5-160.5,3.6
			c-21.3,2.8-36.6-5.2-50.2-19.8c-41.8-45-48.5-98-36-155.6c12.8-58.9,40.8-112.1,63.4-167.3c22.8-55.5,42.3-111.7,37.4-173.4
			c-6.6-83.8-49.6-142.8-121.6-182.8c-5.3-3-10.6-6-21.3-12.1c65.5-19.8,126.3-23.4,187.7-11.4c80.8,15.7,154,48.1,215.8,103.8
			c82,73.9,111.8,166.3,90.8,273.3c-23.4,119.4-70.5,228.2-154.1,319.1C1708.2,882.4,1693.8,890,1671.4,889.1z M1706.6,1163.7
			c0.1-7.7-2.4-17.1,12.1-16.1c101.3,6.9,199.1,24.2,289.8,74.6c218.1,121.3,295.5,447.5,129.7,669.9
			c-103.3,138.6-243.7,218.2-409.1,258.7c-19.5,4.8-21.6-2.7-21-18.1c0.5-13.6,0.1-27.3,0.1-41c-0.3-61.5,0-60.7,56.5-80.1
			c149.1-51.1,262.7-141.1,308.7-297.8c58.7-199.9-44-388.4-235.5-437.6c-34.7-8.9-70.1-13.8-106-10.2c-18.5,1.9-26.9-3.3-25.7-23.7
			C1707.7,1216.3,1706.3,1190,1706.6,1163.7z M1708.5,2231.6c0-11.6-1.1-22.7,15.2-26.1c99.2-20.6,191.8-58.2,280.7-114.9
			c14,54.8,20.1,105.3,6.8,156.5c-19.1,73.1-79.7,120.1-168.4,127.5c-36.4,3-73.2,0-109.9,0.5c-19.7,0.3-24.8-9.3-24.4-27.3
			C1709.4,2309.2,1708.6,2270.4,1708.5,2231.6z M1744.6,1316.1c107.4,5,195.8,43.6,253.1,138.5c67.6,112.2,44.4,278.8-53.3,384.9
			c-58.3,63.3-130.7,103.5-212.8,128.1c-22.7,6.8-24.1-1.8-24-20.1c0.5-100.7,0.2-201.4,0.2-302.1h-1.1c0-97.5,1.5-195.1-0.9-292.6
			C1705.1,1320.9,1715.4,1314.8,1744.6,1316.1z M2448.6,1550.9c32.7,191.2,41.4,384.1,25.2,577.3c-17,202.8-76.6,390.3-210.8,548.9
			c-122.5,144.8-281.5,214.1-467.5,227.3c-26.9,1.9-61.8,16.4-78.9,0.6c-18.9-17.4-5.7-53.6-6.4-81.5c-1.2-52.5-0.3-105-0.3-157.5
			h-0.8c0-71.4,0.7-142.8-0.4-214.2c-0.3-21.2,6.4-27.6,27-25c45,5.6,90.4,5.5,135-2.7c139.9-25.7,214.5-127.2,198.9-270.2
			c-3.6-33.1-21.4-69.5-12.1-97.6c9-27,46.1-43.8,68.1-67.6c146.5-158.2,193.4-340,123.2-546.6c-66-194.3-210.6-295.1-405.6-333.5
			c-38.2-7.5-77-9.8-115.8-10.8c-16.6-0.4-21.8-6-21.4-22.1c0.8-36.7,0.5-73.5,0-110.3c-0.2-13.2,1.2-22.5,18.3-20.9
			c225.3,22.1,433.5,81.9,584.1,266.9C2389,1310.3,2427.6,1427.7,2448.6,1550.9z M2390.6,1074.8c-2.5,1.9-5.1,3.6-7.8,5.4
			c-71.4,47-71,46.4-136.7-5.3c-129.9-102.3-280.8-151.7-442.2-174.3c-10.2-1.4-21.1,0.1-32.9-9.3
			c71.4-82.3,117.6-175.3,144.3-278.3c2.9-11,6.7-21.1,20.3-25.3c119.4-36.5,240.2-56.2,361.5-13.8
			c111.4,38.9,194.3,111,215.6,232.6C2532.8,921,2478.9,1006.9,2390.6,1074.8z M2483.6,631.2c-161.8-157.2-349.9-153.3-547.7-99.4
			c0-21.6,0.8-41.3-0.1-60.9c-3.1-64.5-22.9-123.7-61-175.9c-10.2-13.9-9.4-21.7,2.1-34.1c126.4-136.6,336.1-169.5,495.5-74.2
			c93.9,56.1,137.2,144.6,145.5,251.2C2523,503.9,2513.2,567.7,2483.6,631.2z"/>
		<path class="st0" d="M967.4,1776.3c0.2-51.1,41.2-91.4,92.2-90.7c49.4,0.7,89.7,40.8,90.4,90.1c0.7,50.4-40.5,91.9-91.4,92.1
			C1007.4,1868,967.2,1827.6,967.4,1776.3z M1096.4,1780c0.4-23.9-15.1-40.1-36.8-40.9c-22-0.9-42,17.3-40,38.6
			c2.1,22.4,14.6,37,38.6,36.8C1081.8,1814.2,1094,1800.5,1096.4,1780z"/>
		<path class="st0" d="M1799.5,1504.9c0.8-50.2,40.8-88.7,91.5-88c50,0.7,89.2,41.5,88.2,91.6c-1,50.5-41.2,89.1-91.7,88.2
			C1837.4,1595.7,1798.8,1555.4,1799.5,1504.9z M1891.6,1543.9c21.7-3,35.2-15.2,34.2-39.2c-0.9-22.6-14.9-35.1-36.3-35.2
			c-23.3-0.2-37.9,14.5-37.7,37.5C1852.2,1529.9,1866.5,1542.9,1891.6,1543.9z"/>
	</g>
</g>
</svg>
