<?xml version="1.0" encoding="utf-8"?>
<!-- Generator: Adobe Illustrator 23.0.0, SVG Export Plug-In . SVG Version: 6.00 Build 0)  -->
<svg version="1.0" xmlns="http://www.w3.org/2000/svg" xmlns:xlink="http://www.w3.org/1999/xlink" x="0px" y="0px"
	 viewBox="0 0 3000 3000" style="enable-background:new 0 0 3000 3000;" xml:space="preserve">
<style type="text/css">
	.st0{stroke:#000000;stroke-width:10;stroke-miterlimit:10;}
</style>
<g id="Layer_1">
</g>
<g id="Layer_2">
	<g>
		<path class="st0" d="M2055.6,394.8c61.9-124.5,154.3-209.6,284.1-248.6c293.2-88.1,538.9,125.2,561.7,388.9
			c5.3,60.7,0,120.6-19.7,178.6c-4.6,13.5-4.1,22.9,6.4,35c53.2,61.1,54,132.5,1.8,193.4c-11.6,13.5-9.6,19.3,0.6,31.8
			c45.2,55,51.3,136.7,16.5,197.6c-19.6,34.3-47.9,58.6-88.1,61c-22,1.3-23.5,10.4-23.3,28.2c1.9,171.2,13.4,341.9,28.7,512.4
			c15.5,173.1-23.9,328.8-148.2,456.3c-15.8,16.2-1.6,19.6,6.9,26c55.1,41.6,99.8,92.2,131.5,153.7
			c89.8,174.2,34.6,354.7-142.5,437.6c-225.3,105.5-446.2,94.3-654.2-49.7c-20.3-14-32.3-16.6-52.7-0.2
			c-122.7,97.9-266.1,136.5-420.2,151.3c-176,16.9-350.6-1.6-525.8-8.7c-96.5-3.9-193-11.6-289.4-11
			c-167.4,1.1-301.6-69.9-421.1-179.5c-131.6-120.7-184.8-279-218.4-446.9c-40-200-48.1-402.6-44.3-605.9
			c3.8-205.1,10.6-410.2,31.2-614.4c13.6-134.4,36-267.2,84.7-394.3c11.8-30.8,26.2-60.3,42.3-89c55.4-98.7,137.1-161.5,249.8-179.8
			c127.2-20.8,223.8-83.9,285.7-198.6C812,85.9,932.5,42.8,1076,46.2c99.7,2.3,191.6,31.1,277.8,81.2
			c102.7,59.6,208.2,113.1,327.9,129.9c48.8,6.8,98,11.2,146.7,19.2C1915.5,290.6,1989.4,331.9,2055.6,394.8z M152.9,927.5
			c-8.2,61-17.8,115.9-22.7,171.1c-19.4,217.5-28.2,435.7-29.5,654c-1.3,208.8,11.7,416.3,61.1,620.4
			c46.2,190.8,148.2,339.3,320.5,437.2c19,10.8,37.8,15.1,59.6,12.6c81.6-9.5,156.1-37.1,217-92.7
			c167.7-153.2,266.6-345.3,311.8-566.1c23.6-115.1,19.3-231.1,6.9-347.2c-23.5-219-47.6-437.9-70.2-657
			c-13-126.4-28.9-252.9-34.1-379.8c-9-218.8,10.4-436.2,55.2-650.8c4.9-23.4-0.3-29.3-23-26c-90.2,13.1-165.8,49.1-210.8,133.3
			c-72.3,135.1-183.8,213.5-335.5,237.1c-57.2,8.9-109.8,32.2-150.1,75.9c-97,105.3-126.7,238.2-154.9,375.3
			c15.9-5.2,20.5-16.1,27.7-23.7c150.9-159.5,403.9-194.1,580.3-78.9c164.8,107.5,235.4,336.8,166.5,538.5
			c-85.5,250-370.3,375.8-630.7,295.5c-16-4.9-19-12.7-11.2-25.8c6.9-11.6,0.2-36.4,29-27c48.3,15.8,98.1,20.9,149.1,20.7
			c277.6-0.8,473.6-226,427.7-498.9C847.9,860.4,611.8,761.8,387.6,831c-76.6,23.6-137.1,72.2-188.7,133.7
			C185,953.5,171.7,942.7,152.9,927.5z M1282.4,1568.9c0,15.4,0.5,27-0.1,38.6c-1.2,24.9,9.6,35.6,35.1,40
			c78.7,13.6,156.6,32.2,235.4,45.2c88.5,14.5,172.8,8.2,240.1-63.3c19.4-20.6,43.1-37.2,65.1-55.4c4.5-3.7,7.9-10.2,16.4-6.7
			c22.9,9.3,29.4,39.8,11.2,55.6c-22.4,19.4-46.3,37.1-67.5,57.6c-68,65.7-150.6,80.1-240.4,70.6c-86.2-9.1-169.5-33.6-254.7-48.3
			c-22.9-3.9-30.8-0.2-27.7,25.3c18.9,154.5,40.3,308.6,80.9,459.3c28.6,106.1,60,210.6,130.8,298.7
			c100.6,125.1,249.1,151.1,367,58.1c77.8-61.4,161-80.9,255.4-51.5c13.6,4.2,21.3,2.6,28.8-11.1c72.9-132.7,130-271,144.1-423.2
			c24.2-260.4,28.9-520.8,0.5-781.7c-13.9-127.6-80-212.6-188.9-269.3c-107.9-56.1-235.7,29.2-241.1,131.2
			c-5.4,101.8-11.1,203.7-15.3,305.5c-3.8,91.3-51.8,148.5-129.1,186.2c-77.8,38-159.5,35.2-241.3,16.2
			C1416.5,1630.1,1349.2,1604.4,1282.4,1568.9z M2253.2,1037c5.7-9.8,0.7-17.6-1.3-25.7c-27.6-114-64.8-225.2-99.3-337.1
			c-13.9-45-32.7-88.3-55-129.9c-68-126.3-169.6-206.6-315.2-218.2c-164.2-13.1-314.4-64.6-454.3-149.7
			c-33.7-20.5-69.8-36.2-106.9-50.2c-20-7.6-27.1-3.2-30.5,17.1c-44.7,261.5-51.7,524.1-10.2,786c27.3,171.8,65.9,341.8,84.3,515
			c4.9,45.9,30.2,68.1,64.6,86.1c68.4,35.9,140.9,61,217.4,71.3c61.9,8.4,122.9,2.7,177.9-31.4c44.2-27.4,74.6-64,77-118.8
			c4.3-95.3,7.8-190.6,13.8-285.8c3-48,8.4-96.2,40.2-136.5c81.3-103.3,207.9-124.1,319.1-50.8
			C2201.8,996.2,2226.8,1017.2,2253.2,1037z M2116.8,2548.9c-67.5-29.5-137.4-19.7-203.4,36.1c-127.5,107.7-271.6,81.2-380.8,0.4
			c-78.5-58.2-127.1-138.4-160.4-228.3c-80.7-217.7-112.8-445.6-136.5-674.9c-17.5-169.1-34.6-338.2-65.8-505.3
			c-28-149.8-57.5-298.9-66.6-451.5c-11.9-198.2,0.5-394.6,33.7-590c2.6-15.6,7.5-30.7-17.5-32c-17.4-0.9-30.5-3.1-35.3,21
			c-42.4,213.8-65.8,429.5-56.1,647.5c9.1,204.9,38,408.1,58.6,612.1c17.5,173.3,40.5,346.1,52.7,520
			c20.2,286.6-68.9,537.6-242.7,761.5c-67.6,87.1-148.1,158.7-255.9,193.3c-1.2,0.4-1.5,3.6-3.3,8.6c39.9,2.3,78.9,5.3,117.9,6.6
			c140.3,4.6,280.7,7.7,420.7,19.3c153.1,12.7,305.8,10.3,457.7-12.3C1848.3,2849.1,2000.1,2725.2,2116.8,2548.9z M2846.3,621.5
			c1.1-18.6,1.9-29.1,2.3-39.6c1.1-26.4-2.3-52.5-6.5-78.5c-27.1-167.1-167.2-303.4-330-320.9c-170.3-18.3-347.7,86.4-408.3,240.5
			c-4.3,10.8-6.3,19.2,1.4,30.2c64,89.8,95,193.6,129.4,296.7c101.3,303.3,151.3,614.1,142.5,933.8c-4,144.5-3,289.6-28.1,432.8
			c-3.1,17.8,1.1,24.7,20.1,18.9c55.6-16.8,111-33.5,160.1-66.2c52.6-35,83.1-82.5,90.2-145.6c7-62.4,5.5-124.8,1.8-187.3
			c-13.8-230.1-62.7-455.5-92.3-683.4c-15.2-117.5-26.8-235.4-15.7-354.1c7.2-77.1,34.2-143.7,110.9-176.9
			C2708.9,485.2,2789,519.8,2846.3,621.5z M2409.9,2272c122.6-0.9,214.9-45.9,279.9-143.2c46-68.9,69.3-145.8,80.5-227
			c9.4-68.2-1.6-135.7-7.6-203.2c-14.1-156.2-19.8-312.8-22.5-469.5c-0.2-11.9-0.3-23.7-8.3-34.4c-48.3-64.8-50.3-133.1-13-203.4
			c5.7-10.8,6-14.6-5.7-22.4c-58.2-38.8-82.7-93.6-67.2-154.6c16.2-63.9,59.3-101.3,124.6-109.8c20.8-2.7,24.9-11.9,25-29.6
			c0.4-51-31.8-95.3-79.7-108.1c-48.7-13-99.1,9.3-125.2,55.9c-17,30.4-23.1,64-24.5,97.9c-5.1,120.8,5.2,240.7,22.3,360.3
			c29.4,205.9,70.4,410.3,85.5,618.1c6.2,85.3,12,171.4-4.2,255.9c-21.7,113-104.5,170.1-204.6,207.1c-37.8,14-77.3,23.7-116.4,34.1
			c-29.4,7.9-24,34.5-27.7,53.7c-3.3,17.4,17.3,12.3,27.3,14.3C2370.8,2268.6,2393.8,2270.1,2409.9,2272z M2368.7,2397.9
			c-27.4,0-54.8,1.1-82.1-0.4c-19.7-1.1-29.2,7.5-37,24.5c-37.6,81.7-83.3,158.6-138.6,229.7c-35,45-35.4,46.3,13,78.6
			c119.3,79.6,248,96.6,384.6,53.7c38.9-12.2,65.9-37.1,68.6-79.1c5.2-81.1,1.6-162.1-19.3-241.2c-7.8-29.6-28.7-48-58.6-56.4
			C2456.3,2395.3,2412.3,2398.2,2368.7,2397.9z M2544.5,2833.3c59.8-14,115.6-36.5,165-74.4c52.5-40.3,82.5-92.9,90.3-157.9
			c14.6-120.4-65-251.3-176.3-320.2c-8.3-5.2-14-2.4-21,1.2c-89.1,47-182.8,56-280,32.9c-23.1-5.5-32,1.9-31.7,25.3
			c63.1,3.9,125.5-3.1,187.6,6.7c80.7,12.7,123.1,49,138.8,126.1c13.8,67.8,16.2,136.7,16.3,205.8
			C2633.7,2748.1,2606.7,2799.3,2544.5,2833.3z M2782.3,933.5c50.8,0.7,91.4-38.5,91-87.8c-0.4-46.5-38.9-85.5-85.8-86.7
			c-49.2-1.3-89.1,36.1-90.3,84.8C2696.1,893,2733.8,932.9,2782.3,933.5z M2874.9,1089.9c-0.5-28.5-5.6-50.8-18.5-70.6
			c-25.2-38.9-64.7-38.8-89.9-0.2c-19.9,30.6-21.4,64.6-13.3,98.1c7.1,29.3,20.8,56.9,56.5,60.2c26.6,2.4,49.1-21.4,59.6-60.3
			C2872.2,1106.6,2873.7,1095.8,2874.9,1089.9z"/>
		<path class="st0" d="M180.9,1188.3c0-178.4,139.8-316,321.2-316.2c170.9-0.1,311.9,142.7,312,316
			c0.1,175.5-142.5,317.4-318.5,316.9C321.2,1504.6,180.9,1363.3,180.9,1188.3z M234.9,1189.7c0.7,143.2,119.8,261.5,262.9,261
			c143.2-0.5,261.7-119.2,261.8-262.3c0.1-144.6-119.9-263.6-264.7-262.4C351.3,927.2,234.2,1046,234.9,1189.7z"/>
	</g>
</g>
</svg>
