<?xml version="1.0" encoding="utf-8"?>
<!-- Generator: Adobe Illustrator 23.0.0, SVG Export Plug-In . SVG Version: 6.00 Build 0)  -->
<svg version="1.0" xmlns="http://www.w3.org/2000/svg" xmlns:xlink="http://www.w3.org/1999/xlink" x="0px" y="0px"
	 viewBox="0 0 3000 3000" style="enable-background:new 0 0 3000 3000;" xml:space="preserve">
<style type="text/css">
	.st0{stroke:#000000;stroke-width:10;stroke-miterlimit:10;}
</style>
<g id="Layer_1">
</g>
<g id="Layer_2">
	<g>
		<path class="st0" d="M2640.2,2015.3c51.3,44,96.3,91.5,133.4,146.2c59.7,88.3,95.7,184.3,92.5,292.1
			c-4.6,157.6-88.2,368.1-328,418.8c-113.6,24-227.9,40.6-343.5,44.5c-155.8,5.3-311.7,12.9-467.6,2.6
			c-93.7-6.2-185.3-19.2-268.9-65.4c-8.3-4.6-16-4.6-25.2-2.5c-190.9,44.3-385.2,59.6-580.4,64.5c-133,3.4-264.8-4.8-385.9-67.2
			c-232.3-119.7-373.8-303.7-390.3-570.3c-14.3-231.1-16.4-462.6,0.1-693.9c12.3-173.3,57.5-337.5,142-490.1
			c5.8-10.4,17.7-20-3.3-28.9C104,1018.9,54.4,929.7,47.7,814.1C42,713.8,50.6,614.4,79.3,517.4c39.8-134.7,132-224.3,251.6-289.3
			C463.3,156.2,607.1,124,755.9,111.1c264.7-23.1,510.2,34.4,735,177c10.7,6.8,19.4,9.2,32,2.7c78.9-41,163.7-60.7,252-61.2
			c200.1-1.1,400.4-5.6,600.2,1.6c273.7,9.8,489.5,193.9,547,455.2c9.7,44.2,13.3,89.2,13.3,134.4c0,223.7,0.3,447.3-0.1,671
			c-0.4,221.3-93,392.7-279.7,512.6C2650.9,2007.4,2646.4,2010.9,2640.2,2015.3z M2885.4,1160.2c-0.3,0-0.5,0-0.8,0
			c0-125.5,3.6-251.2-0.7-376.6c-9.5-279.4-240.9-502-520.4-503.6c-191.2-1.1-382.4-0.6-573.7-0.7c-34.3,0-68.5,2.6-102.5,7.9
			c-238,37.6-431.6,257.4-434,497.8c-2.3,239.3-1,478.6-1.6,717.9c-0.2,72.4,12.5,143.3,40.6,208.9c72,168,198.8,273.2,377.6,314.4
			c31,7.1,31.1,6.8,24.4-23.8c-17.1-78.6-0.1-136.1,60.2-168.9c59.5-32.4,94.6-79,121.7-140.2c34.7-78.4,94.9-131.8,187.3-134.5
			c104.5-3.1,229,74.4,232.3,208.4c0.7,28.9,10.9,52.1,41.5,64.6c31.1,12.6,47.1,40.3,55.3,72c8.9,34.3,14.2,69.5,11.7,104.8
			c-1.6,22.9,2.5,28.3,26.3,24.5c267.7-42.8,452.8-257,454.5-528.6C2886.1,1389.7,2885.4,1274.9,2885.4,1160.2z M1292.1,1819.2
			c-3,5.6-4.5,7.2-4.6,8.8c-0.3,8.8-0.1,17.7-0.2,26.5c-2.2,278.7-73.3,538.4-215.4,778.4c-8.2,13.8-13.2,27.7-34.9,13.6
			c-18.6-12-19.7-19.5-8.5-38.1c81.4-135.3,139.6-280.1,174.1-434.4c4.3-19.2,1.9-24.7-18.2-20.8c-33,6.3-66.3,5.4-99.6,0.4
			c-133.7-20-179.8-125-103.3-236.2c55.1-80.2,134.6-107,227.5-100.8c22.4,1.5,28-2.8,27.6-25.7c-1-61.2-11.2-120.8-25.4-179.9
			c-32.8-137.1-175.7-300.3-383.8-283.6c-199.9,16.1-333.2,154.3-351.8,354.3c-12.2,131.4-6.7,262.6-2.5,393.9
			c2.6,82.3,13.6,164.3,8.5,246.8c-6.6,106.4-66.7,178.4-163.4,194.6c-45.8,7.7-91.1,1.6-136-15.6c1.1,15.5,8.2,25.2,14.3,34.8
			c126.7,202.3,305,319.9,547.3,329.7c142.3,5.8,284.3-3.9,425.8-19c73.5-7.8,146.8-18.8,222.4-37.1
			c-122.9-119.6-193.7-257.1-156.6-429.2c36.4-168.9,145.3-278.4,307.6-343.5C1437.3,1986.7,1355.1,1916,1292.1,1819.2z
			 M2267.6,2311.1c4.5,32.3,9.5,60,12.1,88c12.2,128.4-12.6,249.5-72.7,363.5c-3.1,5.9-3.4,15.6-15.7,12.9
			c-26.2-5.9-34.6-21.3-23-44.4c65.8-131.3,80.4-268.7,49.3-411.8c-3.9-17.7-12.5-26-30.4-29.5c-71.8-13.9-144-15.8-216.8-11.8
			c-19.5,1.1-24.7,8.3-21.2,27.6c11.5,62.9,15,126.7,13.4,190.4c-3.1,123.3-27.1,242.8-72.5,357.7c-6.4,16.2-5.8,22.4,14,21.4
			c36.2-1.9,72.6-2,108.9-2.3c163-1.3,325.6-7.2,485.5-42.3c68.1-15,136.1-33.1,189.5-81.5c116.7-105.7,160.9-296.5,105.3-443.6
			c-38.1-100.8-103.2-181.4-183.2-251.7c-13.2-11.6-22.8-14.2-38.6-7.7c-74.5,30.7-152.6,42-232.9,41.9
			c-182.5-0.2-364.9,0-547.4-0.1c-46.2,0-92-4.2-137.2-14.5c-19.5-4.5-38.3-3.3-57.9,1.5c-39.4,9.5-77.2,23.3-111.3,44.4
			c-141.4,87.2-224.8,211.4-206.1,380.6c17.6,159.5,106.7,275.5,258.7,336.1c83.3,33.3,172.3,34,260.5,38.4
			c23.9,1.2,34.7-6.3,43.1-28c66.7-171.9,89.1-348.3,60.5-531.1c-3.6-23.3-9.8-26.3-31.1-21.2c-124.8,30.1-238,84.2-337.7,164.8
			c-21.8,17.6-28.7,3.4-41.1-9c-17.2-17.1,1.8-21.8,9.4-27.9c165.3-131.6,352.8-201.8,565-194.5c225.3,7.8,414.3,99.8,572.3,259
			c16.4,16.5,17,25-1.7,40.2c-16.1,13-22.7,5.9-33.2-4.9C2509.6,2425.1,2399.6,2354.4,2267.6,2311.1z M1201.9,1465.3
			c0-140.5-0.1-273.8,0.1-407.1c0-21-14.6-16.8-26.6-17.1c-105.9-2.7-211.9-1.9-317.6-8.5c-136.8-8.5-269.8,5.4-400.4,47
			c-49.9,15.9-101.8,23.3-153.8,12.9c-20.3-4.1-28.7,1.1-38.5,18.3c-88.6,156.7-131.7,326.2-142.2,504.6
			c-11.9,202.9-8.7,405.8-1.7,608.8c2.2,62.9,10.7,124.9,25.6,186c1.8,7.2,4,17.7,9.1,20.2c26.9,13.1,51.7,30.2,82.3,36.4
			c101,20.6,174.4-28.4,192.2-129.5c5.7-32.3,4.8-64.6,2.7-96.8c-8.2-123.3-13.1-246.8-15.2-370.4c-1.4-81.5,1.9-163,17-243.1
			c31.5-166.8,127.5-280.4,290.2-330.5c156.6-48.2,296.3-12,415.4,100.5C1160.8,1416.3,1178.2,1438.8,1201.9,1465.3z M101,685.1
			c6.9-4.1,11.2-6.3,15-9c83.1-59.6,174.6-100.1,274.3-122.9c16.9-3.9,26.7-2.3,30.1,18.7c2.9,17.9,2.2,25.2-18.2,29.6
			c-106.9,23.3-203.4,69.1-288.4,138.6c-10.1,8.2-19.4,16.2-18.9,31.1c1.5,47.2,5.4,93.8,23.1,138.4c9.2,23.4,16.8,27.7,36.7,7.4
			c75.3-76.6,167.4-120.6,273.6-136.8c19.8-3,25.3,1.5,27,20.7c1.4,17,1.9,25.9-19.7,28.8c-98.4,13.2-182,56.7-252.5,126.8
			c-16.3,16.2-16.6,25,2.6,37.7c74.3,48.8,153.7,66.2,240.7,43c101.2-27,201.9-57,308.2-55c11.7,0.2,17.7-6.4,23.9-14.1
			c47.7-59.4,86-124.2,108.2-197.2C936,542,866.1,347.1,719.8,170.9c-5.5-6.6-11.3-6.3-18.1-5.3C562.8,185.5,429.2,221.3,309.6,298
			c-77.8,49.9-139.4,114-172.4,202.1c-3.4,9.2-10.5,18.2-5.9,31.8c89.4-69.9,185.9-123,290.9-160.5c13.6-4.8,26-12.3,32.2,11.6
			c5,19.2,6.2,27.9-16.2,35.6c-107.5,37-203.8,94.3-293.3,164.4C111,609.4,97.6,640.5,101,685.1z M1266.6,538.9
			c17.4-26.4,32.2-50.7,48.9-73.6c8.5-11.7,7.6-20.3-0.1-31.5c-15.7-23.1-38.3-31.1-63.8-27c-31.4,5-27.7-21.6-30.4-35.6
			c-2.8-14.3,15.7-12.2,26.2-13.2c40.6-4.1,75.6,7.3,102.6,39.1c5.7,6.8,9.9,15,20,4.1c25.9-28.1,57.3-50.2,88.7-75.4
			c-210.2-130.9-436.2-185.3-683-166.3C878.5,306,891.5,333,931.9,488.4c3.3,12.7,8.3,16.5,21.1,18c96.6,11.1,125,116.2,98.7,184.1
			c-8.1,20.9-11.8,40.2-10.9,62.1c3,73.3-24.4,102.1-98.2,104.1c-12.6,0.3-25.3-2.3-38-3.4c-6.6-0.6-14.8-3.6-18.6,4.1
			c-20.9,42.3-44.5,83.1-76.2,124.7c129,3.7,250.5,7,372,11c15.5,0.5,20.8-4.7,20.5-19.9c-0.7-39.2-1-78.5,0.2-117.7
			c0.6-18.3-6.2-25.6-23.7-22.7c-24.5,4-25.5-9.6-26.5-29c-1.2-23,10.8-23.5,26.8-21.9c15.7,1.6,25.7-1,26.3-20.9
			c1.7-50.3,13.1-99,30.4-146.2c7.7-20.9,0.1-36.2-14.2-49.8c-12-11.4-26.9-15.7-43.4-13.6c-27.8,3.6-25.8-21.2-29-35.2
			c-4.4-19.4,16.4-12.6,25-13.8C1210.6,497.3,1240.7,512.8,1266.6,538.9z M2053.3,2037.7c75.5,0,151,0,226.5,0
			c82.7,0,83.6-0.1,72.7-83c-4.1-31.2-5.3-65.5-41.8-81.7c-40.8-18.2-59.2-51.8-63-95.3c-2-23.3-3.6-47.1-14.2-68.6
			c-34.4-69.8-93.6-101.6-168.4-101.1c-75.1,0.5-121,48.7-147.3,112.4c-27.4,66.4-66.7,118.1-131.6,150.9
			c-41.1,20.8-55.2,55.1-47.3,100.9c2.3,13.5,6.7,26.6,9.1,40.1c3.5,20,14.6,26,34.8,25.8
			C1872.9,2037.1,1963.1,2037.7,2053.3,2037.7z M1234.9,1950.4c2.8-85.9,2.8-85.9-60-85.3c-1,0-2,0-2.9,0
			c-75.9,1.2-143.2,47.4-171.2,117.6c-18.3,45.8-6.1,80,37.6,103.6c48.2,26,99.4,24.3,151.7,16.5c21.1-3.2,30.7-12,32.6-32.9
			C1226.9,2022,1232.4,1974.4,1234.9,1950.4z M941.6,626.1c-0.2,4.8-1.9,17.6-0.9,30.2c0.7,8.6-11.6,25.1,8,24.6
			c19.4-0.5,43.8,17.3,57.9-10c17.1-32.9-2.3-92-34.5-108.6c-24.9-12.8-30.8-9.3-30.5,17.7C941.7,592.7,941.6,605.4,941.6,626.1z
			 M940.8,806.5c43.1-0.4,49.5-6.2,49.5-43.8c0-30.6-2.8-36-49.2-30.5c-31.5,3.7-22.4,40.3-27.9,61.5
			C907.6,815.1,932.6,801,940.8,806.5z"/>
		<path class="st0" d="M2438.1,806.5c-3.8,42.9-7.5,80-21.7,114.6c-43.1,105-125.1,160.2-234.3,178c-65.4,10.6-130.9,10.1-195.2-9
			c-131.1-39-225-151.9-239.4-287.8c-1.1-10.4,1.2-21.7-8-31.5c-80.3,58.4-125.2,137.9-144.8,233.8c-21.8,106.4-21,214.4-25.4,322.1
			c-0.4,9.1-0.7,18.1,11.7,20c80.7,11.9,157.9,5.4,213.5-70.4c18-24.6,18.4-55.5,32.6-81.2c3.6-6.5,2.3-17.9,12-18.2
			c9.3-0.2,15.4,8,19,16.4c6,13.7,8.5,27.5,5.4,42.9c-17.9,88.8-104.6,160-201.9,163.7c-23.4,0.9-47.4,1.3-70.3-2.8
			c-21.9-3.9-26.6,2.2-26.5,22.9c0.4,122.6-0.3,245.2,10.6,367.5c1,10.7-0.1,21.8,1.9,32.3c4.2,22.4-8.6,25.6-26.3,27.9
			c-20.6,2.8-21.2-8.3-22.5-23.7c-15.3-180.1-15.6-360.3-6.9-540.8c4.1-85.2,5.8-170.3,18.5-255c27-179.7,126.7-302.1,293.3-366.4
			c219.7-84.9,426.8-58.5,614.4,88.5c104,81.5,150.8,191.8,158.9,321.6c13.7,217.7,7.9,435.1-9.9,652.3c-3.5,42-8.3,83.9-10.7,125.9
			c-1.1,18.7-8.5,23.2-25.6,20.6c-16.3-2.5-26.4-6.3-24.3-27.1c7.7-79,14.8-158.1,20-237.3c4.5-69.5,5.1-139.2,9.5-208.7
			c1.6-24.9-7.1-28.4-29.4-27.7c-40,1.2-80.2,4.1-120.1-4.8c-68.3-15.3-96.8-48.5-98.9-118.1c-0.2-7.8,1.2-16.2-1-23.4
			c-9.9-33,18.1-29.8,33.7-32.1c18.9-2.8,11.8,17,15.4,27.2c1.2,3.5,0.2,7.8,0.3,11.7c1.3,66.3,13.1,79.4,78.4,89.4
			c35.3,5.4,70.5,0.8,105.7,0.4c13.1-0.2,16.5-6,16.1-18c-3.6-107.7-1-215.7-23.2-322.2C2528.5,911.5,2490.1,858.9,2438.1,806.5z
			 M2054.4,663.7c-54.6-1-119,14.6-182.8,34.8c-17.5,5.5-22.4,13.9-19.2,32c16.5,92.8,67,158.8,151.8,199.5
			c13.9,6.7,23.1,3.6,33.9-6.2c54.7-49.5,88.7-111,95.2-183.6C2141.2,649.3,2146.5,666.8,2054.4,663.7z M1801.6,735.5
			c-8.9,1.7-9.1,6.2-9,9.7c2.1,94,29.2,178.1,103,240.9c92.3,78.6,200.7,83.4,311.4,57c137.5-32.9,188.3-148.5,179.6-260.5
			c-0.9-11.8-2.5-27-16.6-27.3c-11.2-0.2-8.8,14.9-11.4,23.6c-26.6,89.2-79.5,157.2-164.9,195.8c-144.5,65.4-319.9-19.4-375.4-180
			C1811.6,775.5,1807.2,755.5,1801.6,735.5z M2089.5,945c5.3,1,7.9,1.9,10.5,1.9c93.2,0.1,186.1-82.6,213.1-185.8
			c8-30.3,1.1-45.3-28.3-53.5c-22.6-6.3-44.5-14.9-66.5-23.1c-22.4-8.4-33.9-8.3-34.1,22.7c-0.6,86.3-29.8,162.8-87.8,227.7
			C2094.1,937.4,2092.4,940.6,2089.5,945z"/>
		<path class="st0" d="M2471.6,1942.4c0,12.7,0.5,25.5-0.1,38.2c-0.6,12.3,1.6,26.8-20,22.2c-16.1-3.5-32.9,0-29.8-27.1
			c12.6-111.4-31.1-203.6-106-281.5c-41.4-43.1-76.2-88.1-96.1-145.2c-17.5-50.1-63.6-64.5-110.1-71.3
			c-77.5-11.3-170.6,15.2-207.1,103.2c-13.9,33.4-42.1,53.6-75,66.5c-25.9,10.2-45.2,26.8-57.2,51.8
			c-35.2,73.1-69.6,146.6-100.1,221.9c-6.3,15.5-12,31.8-10.3,48.5c2.2,21.3-9.5,23.6-26,25.5c-18.5,2.1-23.8-4.3-23.5-22.2
			c0.5-42.6,17.2-80.2,34-117.6c25.9-58,52.9-115.6,79.7-173.2c17.7-38.1,46.1-65.2,85.7-80.2c23.9-9.1,42.5-24.7,52.4-48.5
			c52.2-125.3,221.3-153.9,328.2-102c37.9,18.4,65.5,47.2,78.6,87.1c14.5,44.1,40.8,78.9,73,111.7
			C2421.2,1730.9,2473.3,1825.1,2471.6,1942.4z"/>
		<path class="st0" d="M846.8,1868.2c-2.9,18.7-13.4,30.3-31.3,29.9c-19.4-0.5-30.8-12.7-29.3-32.8c1.4-18.6,13.7-28.6,31.6-27.7
			C836.1,1838.5,845.1,1850.9,846.8,1868.2z"/>
		<path class="st0" d="M999.7,2272.3c-2.1,19.1-10.9,32.1-29.1,33.3c-19.7,1.3-32.3-10.7-32.5-30c-0.2-17.2,8.6-28.1,29.2-28.9
			C988.3,2245.8,994.1,2258.5,999.7,2272.3z"/>
		<path class="st0" d="M1097.8,1605.7c18.4,0,28.3,11.2,28.7,29c0.4,18.1-10.4,29.6-29,29.9c-19.9,0.3-31.8-11.8-31.3-30.8
			C1066.7,1616.4,1077.3,1605,1097.8,1605.7z"/>
		<path class="st0" d="M983.3,1709.5c-1.3,19.6-10.9,31.1-29.1,31.5c-19.7,0.4-30.8-11.1-31-30.9c-0.2-20,15.1-26.9,30.5-28.3
			C972.3,1680.1,981.6,1692.6,983.3,1709.5z"/>
		<path class="st0" d="M830.7,2104.6c-1.4,18.5-12.1,29.4-29.6,29.4c-18.9,0.1-30.9-11.3-30.6-31.2c0.3-18.5,11.9-29.1,29.4-29.3
			C819,2073.5,830,2084.8,830.7,2104.6z"/>
	</g>
</g>
</svg>
