<?xml version="1.0" encoding="utf-8"?>
<!-- Generator: Adobe Illustrator 23.0.0, SVG Export Plug-In . SVG Version: 6.00 Build 0)  -->
<svg version="1.0" xmlns="http://www.w3.org/2000/svg" xmlns:xlink="http://www.w3.org/1999/xlink" x="0px" y="0px"
	 viewBox="0 0 3000 3000" style="enable-background:new 0 0 3000 3000;" xml:space="preserve">
<style type="text/css">
	.st0{stroke:#000000;stroke-width:10;stroke-miterlimit:10;}
</style>
<g id="Layer_1">
</g>
<g id="Layer_2">
	<g>
		<path class="st0" d="M2682,1500c0,176.2,6,352.6-1.2,528.4c-15.8,386.5-201.6,666-548.8,836.3c-121.9,59.8-253.1,83.5-388.3,84.1
			c-169.7,0.7-339.4,1-509.1,0.1c-449-2.4-824.6-308.5-918.4-747.8c-13.4-62.8-19.5-126.5-19.5-190.6
			c-0.2-346.6-7.2-693.3,2.2-1039.7C309.3,583.3,499,303.2,847,132.4c115.1-56.5,239-82.3,366.8-83.4c193.4-1.6,387.1-8.9,580.1,2.5
			c342.5,20.2,599.3,185.4,771.1,481.1c83.5,143.7,117.6,301.4,117.6,466.9c0,166.8,0,333.6,0,500.5
			C2682.4,1500,2682.2,1500,2682,1500z M2628.3,1744.3c0.5-9.7,1.1-15.9,1.1-22.1c0.1-158.9-0.4-317.8,0.6-476.7
			c0.1-21.3-5.8-25.8-26.2-25.7c-146.7,0.9-293.4,0.5-440,0.3c-6.7,0-18,3.8-19.4-3.7c-2.6-14.6-3.6-30.7,0.1-44.8
			c2.6-9.6,16.6-4.6,25.4-4.6c146-0.3,291.9-0.4,437.9,0.1c16.5,0.1,22.8-3.8,22.1-21.5c-1.3-37.3-1.4-74.8,0-112.1
			c0.7-18.7-6.3-22.5-23.5-22.4c-124.4,0.6-248.8-0.1-373.2,0.8c-20.1,0.1-27.9-4-26.8-25.7c1-18.7,0.9-29.2,25.8-28.9
			c124.4,1.6,248.8,0.4,373.2,1.1c17.6,0.1,23.2-3.6,22.1-22.4c-6.6-113.2-31.1-222.3-81.7-323.7
			c-154.6-309.7-405.1-479.7-750.3-509.8c-18.7-1.6-24.1,2.8-23.9,22.5c1,135.2,0.5,270.3,0.4,405.5c0,6.3,3.3,15.9-2.2,18.2
			c-14,6-29.7,3.7-44.3,1.7c-10.6-1.5-5.9-13-5.9-19.9c-0.3-135.9-0.5-271.8,0.1-407.7c0.1-17-4.6-22.1-21.7-21.8
			c-51.7,1-103.6,1.6-155.3-0.2c-22.1-0.8-27.3,5.7-27.1,27.3c1,133.7,0.6,267.5,0.4,401.2c0,7,3,18.7-3.1,19.9
			c-14.5,2.9-30.3,3.6-44.8,0.7c-10.2-2-5.3-14.8-5.3-22.6c-0.3-135.2-0.5-270.3,0.1-405.5c0.1-15.6-3.4-21.5-20.1-20.9
			c-35.2,1.3-70.4,0.3-105.7,0.4c-86.2,0.2-172.3-1.3-258,13.3c-398,67.7-707.2,415-727.7,818.2c-1,19.2,2.4,25.7,23.3,25.5
			c119.3-1.1,238.7,0.1,358.1-1.1c21.6-0.2,24.6,8.1,24.5,26.4c0,18.4-1.3,28.4-24.8,28.1c-119.3-1.3-238.7-0.2-358.1-1
			c-19-0.1-26.2,3.9-25.6,24.7c1.5,54.6,0.4,109.3,0.6,163.9c0.1,34.1-4.3,31,31.2,31c156,0.1,312,0,468.1,0.1
			c7,0,17.4-3.3,20.2,3.2c6.2,13.9,4.8,30,1.2,44.3c-2.7,10.7-15,5.6-22.8,5.6c-158.2,0.3-316.4,0.6-474.5-0.2
			c-19.2-0.1-23.9,5.1-23.8,24c0.7,170.4,0.4,340.8,0.5,511.2c0,6.2-1.9,12.7,3.3,21c9.1-7.1,17.9-14,26.7-20.8
			c219.3-171.6,463.6-291.7,734.5-357c12.9-3.1,15.7-7.1,12.5-20.2c-13.5-55.8-16.1-112.4-5.8-169c10.5-58.4,26.3-115.6,63.5-163
			c81.2-103.3,246.7-105.6,336.1-4.8c14.1,15.9,21.8,15.2,37.1,3.3c30.3-23.5,65.1-39.3,101.9-50.1
			c113.5-33.2,211.5,5.3,261.9,107.2c41.4,83.8,56.9,173,38.1,266c-3.6,17.8,0.7,22.9,17.8,26.9c209.4,49.3,405.6,130.5,587.6,245.4
			C2585.1,1716.5,2605.3,1729.6,2628.3,1744.3z M1487.4,2894.8c0,0.3,0,0.5,0,0.8c84.8,0,169.7-0.1,254.5,0
			c156.4,0.3,303.9-35.8,438.7-115.2c255.4-150.5,403.9-373.3,442.1-668.1c11.9-92.3,4.8-185.3,7.1-277.9c0.4-18-5.7-28.6-20.3-38.6
			c-102.4-69.8-209.8-130.1-323.5-179.5c-279.4-121.6-571-171.8-874.8-148.8c-203.7,15.5-399.2,65.1-586.5,146.8
			c-166.4,72.5-319.3,166.9-458.6,283.4c-8.8,7.4-16.9,13.9-16.9,27.9c0.1,83.4,0.9,166.6,15.6,249.2
			c71.3,399.9,425.6,707.7,831.4,719.5C1293.2,2897.2,1390.3,2894.8,1487.4,2894.8z M1168,1348.2c-2,24.6,4.4,54.1,10.1,83.8
			c2,10.5,6.7,13.8,17.7,11.6c106-20.8,212.9-32.6,320.9-33.5c11.5-0.1,16.2-3.8,18.5-15.3c8.7-44.2,11.3-88.6,2.6-132.8
			c-13.5-68.9-41.7-129.1-109.3-160.8c-74.3-34.9-182.2-22.8-225.8,80.4C1181.2,1233.1,1167,1286.1,1168,1348.2z M1914.6,1352
			c-1.1-51.2-14.1-105.4-37.4-156.8c-23-50.8-59.8-86.3-117.4-93.4c-72.4-9-133.2,19.5-189.3,61.9c-7.1,5.4-4.4,10.7-1.8,16.9
			c28.5,69.1,33.1,140.6,20,213.5c-2.3,12.6-0.2,16,12.7,16.3c96.3,2.3,192.1,11.1,286.8,29.3c12.3,2.4,16.4-2.2,18.6-13.6
			C1911.4,1403.3,1913.9,1380.6,1914.6,1352z"/>
		<path class="st0" d="M1338.2,2350.8c-62.1,0.1-104.1-4.1-144.9-17c-13.7-4.4-26.9-9.9-39.2-17.5c-51.9-32.3-61.7-86.2-24.1-134.5
			c22.4-28.8,51.3-50.1,82.9-67.8c84.7-47.2,176.3-71.7,272-82.7c61.1-7,121.9-6.7,181.9,8.8c20.2,5.2,39.6,12.6,57.1,24.4
			c45,30.5,55.1,78,25.2,123.6c-20.6,31.4-49.9,53.5-81.9,71.9C1559.4,2322.2,1441.7,2346.8,1338.2,2350.8z M1323.1,2298.5
			c108.4-4.4,216.4-26.6,315.5-82.8c25.7-14.6,49.5-32,66.3-57.1c13.4-20.1,10.2-36.2-10-49.3c-17.7-11.5-37.3-18.3-58-21.9
			c-107.8-18.7-211.6-0.2-313.3,34.6c-53.2,18.2-104.5,41.2-144,83.2c-30.7,32.7-26.2,53.4,14.7,72.1
			C1233.9,2295.4,1276.4,2296.7,1323.1,2298.5z"/>
	</g>
</g>
</svg>
