<?xml version="1.0" encoding="utf-8"?>
<!-- Generator: Adobe Illustrator 23.0.0, SVG Export Plug-In . SVG Version: 6.00 Build 0)  -->
<svg version="1.0" xmlns="http://www.w3.org/2000/svg" xmlns:xlink="http://www.w3.org/1999/xlink" x="0px" y="0px"
	 viewBox="0 0 3000 3000" style="enable-background:new 0 0 3000 3000;" xml:space="preserve">
<style type="text/css">
	.st0{stroke:#000000;stroke-width:10;stroke-miterlimit:10;}
</style>
<g id="Layer_1">
</g>
<g id="Layer_2">
	<g>
		<path class="st0" d="M345,1696.2c-8.9-2.9-15.3-5.2-21.9-7.1c-85.6-24.6-124.1-88-108.7-176.4c12.3-70.2,45.6-130.3,88.4-185.2
			c15.8-20.3,14.7-27.6-8-40.6c-312.6-179.1-309.1-579.8-153.2-771C227.6,410.4,344.2,357.4,474.9,334
			c212.6-38,412.4,5.1,602.1,102.9c22.6,11.7,36.3,12.6,57-4.8c81.3-68.7,179.2-99,282.6-116c268.8-44.2,539.1-66.7,811.5-60.1
			c125.3,3,250,12.8,371.4,48.2c153.1,44.6,275.3,190.8,297.3,348.8c49.7,357.4,49.1,715.7,25,1074.7c-9,133.9-14.3,268.4-43.5,400
			c-22.2,99.9-56.9,196.2-98.8,289.2c-87.7,194.6-246.5,291.2-451.8,325.4c-106.2,17.7-212.9,21.2-319.9,27.5
			c-162.1,9.5-323.6,26.8-486.1,31.6c-91.6,2.7-178.7-6.8-259.8-56.5c-55-33.7-121.4-38.8-183.4-53.6
			c-112.9-26.9-225.3-56.6-340.5-72.1c-75.6-10.2-151.9-11.4-228.2-9.7c-23.1,0.5-46.2,0.8-69.2,0c-86.8-2.9-135.9-54.1-131.3-140.5
			c4.2-80.9,32.9-154.4,78.7-220.7c34.8-50.5,86.2-72.9,146-78.6c21.1-2,42.3-4.6,60.2-16.6c13.9-9.3,24.7-24,19.2-40.8
			c-5.1-15.6-22-10.1-34.4-9.2c-33.9,2.6-67.9,5.5-101.7,9.3C295.3,2132.9,192.9,2004,253.3,1830c13.3-38.3,34.4-72.2,61.9-102.1
			C324.6,1717.7,334.2,1707.7,345,1696.2z M2266,919.4c-17.5,13.3-29.9,23.1-42.5,32.3c-154.5,112.6-326.2,179.9-517.9,188.3
			c-313.2,13.7-572.7-111.6-799.1-317.4c-18.1-16.4-26.5-22.1-45.6-0.3c-113,129.2-235.9,248.8-359.9,367.3
			c-55.8,53.4-113.1,105.4-158.5,168.5c-39.5,54.8-75.9,110.8-80.1,181.4c-3.1,52.1,17.8,85.2,67.4,99.2
			c33.7,9.4,68.1,16.2,102.4,23.2c87.8,17.8,176.3,28.6,265.6,13.7c66.4-11.1,108-71.4,105.9-146.8c-1.4-51.8-35-97.5-107.2-96.4
			c-2,0-4.2,0.6-6-0.1c-18.1-7-8.7-23.8-11.9-35.9c-2.9-11.1,5.1-15.8,16.2-15.2c76.3,4.3,140.9,35.8,156.1,120.8
			c21.2,117.9-56.1,219.6-176.1,227.5c-79.1,5.2-158.3,2.6-236.2-15.3c-14.8-3.4-28.8-6-42.4,5.6c-41.1,34.9-75.9,74.2-95.4,125.4
			c-49.5,129.7,22.4,228.1,159.2,217.5c39-3,77.8-7.6,116.7-11.1c24.7-2.2,52.9-1.4,66.9,18.5c17.2,24.4,37.9,20.9,60.2,21.2
			c14,0.2,28.1,0,42.1,0.1c7.2,0,12.9,0.3,15.5,9.8c7.5,28-1.6,41.4-30.2,41.6c-18.1,0.1-36.1,0-54.2,0.1
			c-8.1,0.1-15.9,0.3-20.1,9.6c-22.1,48.8-65.7,60.3-113.2,66.2c-30.8,3.8-63.7,6.5-86.7,29.7c-68.3,69-100.9,153-94.4,250.1
			c2.4,35.3,22.9,54,57.8,58.7c22.7,3.1,46,3.1,69,2.8c89.3-1.1,178.6-2,267.2,10.8c114,16.5,225.4,45.7,337.3,72.2
			c73.9,17.5,150.2,28.5,216.4,68.9c42.6,26,88,36.3,137.1,37.6c129.6,3.4,258.5-7.5,387.5-17.5c29.9-2.3,60.7-0.7,93.1-10.5
			c-5.9-5.6-8.7-8.2-11.5-10.9c-123.1-113.5-105.9-292.6,36.7-380.7c4.3-2.6,8.9-4.8,12.7-7.9c6.5-5.3,11.5-12.9,9.8-20.9
			c-2.4-11.4-13.2-6.1-20.1-6.2c-28.1-0.2-56.2,1.4-84.2,0.5c-16.4-0.5-24.1,3.5-29.7,20.8c-17.7,54-56.2,86.9-112.4,96.5
			c-36.7,6.3-74.1,6.3-110.8,0.3c-56.1-9.2-95-41.3-113.3-95.4c-5.8-17-13.7-19.9-30.5-18.4c-69.9,5.9-140,9.4-209.9,15.1
			c-20.6,1.7-25-5.8-25.2-24.8c-1.2-101.3-2.7-202.6-6.1-303.8c-0.8-24.1,7.6-28.2,28.9-27.4c66.1,2.6,132.4,1.8,198.4,5.7
			c30.3,1.8,38.9-8.2,35.8-36.6c-2.1-18.8-0.5-38.1,0.3-57.1c3-73.1,61.4-133.2,133.7-137.4c29.9-1.7,60.3-2.1,90.1,0.9
			c59.3,6.1,100.7,38.8,120.2,94.8c6.8,19.6,16.1,19.3,30.8,14.8c61.9-19.1,103.4-58.1,122-121.4c19.2-65.2,6.4-128.9-4.3-193.2
			c-2.8-16.8-6.8-23.4-25.5-23.4c-33.5,0-65.2-9.6-93-29.7c-102.5-74.3-97.1-231.9,10.2-298.5c40.4-25.1,85.2-35,131.7-36.6
			c93.7-3.3,152.9,44.1,167.2,136.9c17.1,111.8,12.4,224-2.6,335.7c-14.9,111.3-18.4,221.6,19,329.9c5.9,17.1,7.6,35.1,8.6,53.3
			c5.8,102.8-24,196-76.7,282.8c-10.1,16.6-14.4,23.8,10.3,31.9c159.6,51.9,214.4,240.8,109.3,371.4c-5.1,6.3-14.7,10.5-13.5,21.2
			c2.4,0.3,4.5,1,6.3,0.7c35.6-5.8,71.2-11.2,106.7-17.6c178.8-32.4,312.8-124.8,387.5-293.7c36.5-82.4,66.4-167.5,89-254.9
			c10.7-41.1,19-82.6,22.7-129.4c-68.3,40.9-135.7,72.6-210.7,85.5c-82.4,14.2-157.2-0.7-222.2-56
			c-69.7-59.4-109.9-137.3-137.2-222.3c-69.1-215.5-67.9-436.2-45.7-658.2C2238.8,1080.1,2251.6,1003.1,2266,919.4z M2383.9,811.6
			c-43.8,29-61.6,68.4-69.1,116.7c-12.4,80.2-26.7,160-34.6,240.9c-16.9,174.3-20.3,348.3,14.8,521
			c19.7,96.9,49.7,190.1,111.7,269.6c48.1,61.7,110.2,95.6,190,88.9c92.6-7.8,172.5-48.8,248.7-98.8c9.2-6,9.3-14.5,10.1-23.5
			c3.9-45.9,7.9-91.8,11.6-137.8c19.6-245.1,24.6-490.6,15.8-736.4c-1.3-36.1-4.4-72-5.7-108.1c-0.7-21.2-4.3-32.7-28.8-18.9
			c-24.5,13.7-51.6,22.5-79.3,27.1c-16.8,2.8-23.7,10.9-27.5,26.2c-15.3,61.3-26.3,123.4-32,186.4c-14.4,161.2,6.7,318,61.2,470
			c10.1,28.2-12.2,22.5-23.2,29.9c-15.8,10.5-20.3,0.4-24.8-12.3c-41-115-62.9-233.6-67.1-355.5c-3.7-105.7,7.7-210.1,33.2-312.7
			c3.8-15.4,1.2-23.9-15.3-22.4c-26.3,2.4-52-1.2-77.2-7.2c-17.6-4.2-22.7,2.5-24.8,19c-11.4,91.7-16,183.6-13.9,276
			c2,84.3,9,168.2,25.4,250.9c4.6,23.4-8.4,26.2-24.9,30.2c-19.6,4.7-22.9-5.3-25.6-21.6c-18.4-110.9-28.5-222.5-25.9-335
			c1.7-73.2,6.9-146.1,16.8-218.7c1.4-10.5,5.9-20.9-8.8-27.8C2459.7,901.9,2416.8,862,2383.9,811.6z M2454.4,324.5
			c-80.5-12.7-159.5-15.8-238.4-19.9c-16.8-0.9-21.5,3.6-21.5,21.6c0,212.8-163.6,381.7-374.6,386.1c-22.4,0.5-25.9,12-29.8,27.6
			c-27.4,107.5-54.4,215.1-82.6,322.4c-6,22.9-3.2,29.1,22.6,26.6c245.1-23.3,445.5-133.6,612.6-310.5c11.9-12.6,13.5-23.2,8.7-39.9
			c-41.7-144.1-10.7-272.8,84.2-387.5C2441.9,343.4,2451.2,338.2,2454.4,324.5z M643.9,370.2c-144,0-259.7,29-350.3,81.5
			C193.7,509.6,131.2,595,104.1,707c-3.7,15.4-7.2,27.4,17.9,20.7c38.6-10.3,78-18.2,117.4-25c63.9-11.1,125.7-35.9,191.7-32.2
			c18.7,1,26.9-6.4,35.2-20.3c21-35.2,43.9-69.3,64-105.1c10.5-18.8,19.4-19.6,37.2-8.8c17.4,10.6,18,18.5,7.3,34.6
			c-22.9,34-43.6,69.5-65.1,104.4c-5,8.1-11.4,14.6-0.1,25.1c64.1,59.3,120.1,126.3,179.2,190.3c17.9,19.4,26.4,17.1,43-0.6
			c115.1-122.9,227.2-248.3,326.5-384.7c13.2-18.1,3.5-20.9-8.9-27.2C915.2,409.5,773.2,372.4,643.9,370.2z M2011.4,304.2
			c-167.3,8.5-333.7,24-499.6,47.1c-23.1,3.2-28.1,11.2-24.3,32.5c9,50.2,28,95.9,57.2,137.4c84.3,119.6,234.9,170.4,372,125.5
			c134.8-44.2,229.1-176.7,227.6-317.8c-0.2-19.3-4.7-26.1-24.8-25.1C2083.6,305.4,2047.4,304.2,2011.4,304.2z M89.2,848.2
			c8.4,178.7,85.9,315.6,244.6,403.5c12.1,6.7,20.7,11.7,33.7-1.1c95.9-95.4,192.7-190,289.4-284.7c11-10.7,18.4-18.4,3.7-33.7
			c-56.2-58.6-111-118.5-166.1-178.1c-28.5-30.9-62.9-40.8-103.6-32.1c-80.2,17.2-160.4,34.6-240.7,50.9
			C88,785.5,87.9,784.8,89.2,848.2z M2138.6,1406c-2.1-33.3,2.2-87.8-12.3-140.8c-9.5-34.6-28.8-60.7-64.4-68.6
			c-60.5-13.4-117.9-3.7-168.6,33.3c-41.1,29.9-51.6,73.3-43.2,120.5c7.9,44.2,29.1,80.9,75,97.3c47.5,17.1,52.8,13.3,49.6-36.4
			c-0.2-3-0.3-6-0.9-9c-3.8-20.1,10-20.8,23.6-21.2c12.8-0.4,25.8-3.6,26.7,17.6c1.2,27.9,7,55.6,9.5,83.5
			c5.2,59.7,22.7,117.8,20.4,178.7c-4,107-56.9,189.2-147.9,223.8c-14,5.3-29.1,7.6-43.1,13.1c-27,10.5-9.2,34-13.3,51.2
			c-3.3,14.1,7.4,14.9,18.5,16.1c90.5,9.6,144.8,61.6,169.4,147.1c15.9,55.4,13,110.9-0.6,166.3c-1.7,6.9-9.2,16.9-0.5,21.5
			c9.5,5,19.1-0.1,25.2-10.2c11.9-19.7,25.6-38.4,36.2-58.7c45.8-88.2,77-180.5,47.2-279.9c-29.9-100.1-33.5-200.6-22.3-303.1
			C2130.9,1574.5,2141.6,1501,2138.6,1406z M1547.1,2072.3c0.3,0,0.6,0,1,0c0,69.1-1.2,138.3,0.4,207.4c1,44,36.1,79.9,79.7,83.8
			c26.8,2.4,54.1,3.1,81,1.3c53.4-3.6,89.9-40.3,90.4-93.9c1.3-131.3,1.3-262.6,0-393.9c-0.6-56.3-39.7-92.4-96.2-94
			c-17-0.5-34.1-0.3-51.1-0.1c-68.9,0.6-104.1,34.6-105,103C1546.4,1948,1547.1,2010.2,1547.1,2072.3z M2539,340.2
			c-19.4-2.8-26.3,5.2-33.6,11.9c-92.6,84.3-131.7,189.9-119.2,313.4c6.8,67.7,35.1,127,86.3,174c12,11,18.1,11.9,24.9-4.8
			c30.3-74.9,75.4-141.2,121.4-206.9c41.6-59.4,64.8-126.1,77.6-196.9c1.9-10.7,4.3-21.6-7-29.9C2642.2,366.2,2587,351.8,2539,340.2
			z M2743.1,450.8c-16.8,94.4-55.4,170.4-106.7,240.8c-37.2,51.1-68,105.9-94.2,163.5c-9.4,20.6-6.2,29.6,15.1,37
			c101.4,35.3,198.6,25,293.4-23.2c15.3-7.8,18.7-17.7,16.6-33.6c-9.3-70.4-14.8-141.4-27-211.3
			C2828.8,558.7,2791.1,505.6,2743.1,450.8z M1934,2411.3c-69.2,72.9-63.7,188,9.5,256c73.6,68.4,191.7,63.7,259.6-10.1
			c64.2-69.8,65-182.5,0.1-242.6c-24.9,62.1-64,108.9-136.5,105.7C1999,2517.2,1959.8,2473.3,1934,2411.3z M1284,2134.3
			c1.7,0,3.5,0,5.2,0c0,34,1.1,68.1-0.4,102.1c-0.9,20.3,5.8,25.5,25.4,23.8c53.8-4.9,107.8-8.6,161.8-11.5
			c15.4-0.8,20.5-5.9,20.3-21.4c-0.7-64.1-0.8-128.3,0-192.4c0.2-17.4-6.2-22-22.8-22.1c-56.1-0.2-112.2-1.1-168.2-3.1
			c-17.8-0.6-22.2,5.8-21.6,22.4C1284.8,2066.2,1284,2100.2,1284,2134.3z M1849.4,2127.4c0,32,0.7,64.1-0.3,96.1
			c-0.5,16.6,4.2,23.5,21.9,22.6c34-1.8,68.1-2.9,102.1-2.2c17.7,0.4,21.8-8.1,23.6-22.9c5-41.7,0.2-82-16-120.6
			c-20.2-48-56.4-75.9-108.2-84.5c-16.7-2.8-24-0.4-23.3,18.4C1850.2,2065.3,1849.4,2096.3,1849.4,2127.4z M2072,2350.1
			c-26.8-0.2-57.9,6.1-75.3,14c-9.7,4.4-16.7,8.8-15.6,21.9c2.9,33.9,41.5,76.7,77.1,83.7c35.3,6.9,71.2-14.3,88.5-52.4
			c17.1-37.4,12-49.6-26.7-60.1C2103.8,2352.8,2087.1,2348.7,2072,2350.1z M1284.2,585.3c-11-16.9-22.2-31-30-46.8
			c-15.1-30.5-33-37.6-67.4-24.9c-79.5,29.3-80.2,26.9-26.4,94.7c6.4,8.1,12.1,11.9,22.4,8.6C1215.8,606.2,1249,596.2,1284.2,585.3z
			 M1442.4,838.4c-26.2,12.5-53.8,26.4-82.1,38.9c-14.2,6.3-15.1,13.2-5.7,24.3c4.5,5.3,7.9,11.5,11.7,17.3
			c29.1,43.9,29.1,43.9,76.1,20.5c59.4-29.6,59.5-29.6,20.9-85.1C1458.5,847.6,1456.5,837,1442.4,838.4z M1369.3,456.3
			c-26.6,8.6-53.2,17-79.6,25.8c-11.4,3.8-4.7,9.8-1.6,16c35.6,71.2,39.1,72.8,113.3,51.5c6.7-1.9,13.4-4.1,20.1-6
			c8.9-2.6,11-7.5,5.7-15.3c-15.1-22.3-30.2-44.7-45.3-67.1C1378.7,456.7,1375,454,1369.3,456.3z M1211.6,790.1
			c-27.6,11-58.8,17.5-80.9,35.3c-8,6.5,19,32.6,27.7,51c0.4,0.9,1.2,1.6,1.6,2.5c10.2,25.9,24.3,29.4,50.1,16
			c64.4-33.4,66.4-39.4,16.6-95.3C1222.7,795.1,1219.6,789.7,1211.6,790.1z M1323.2,839.9c29.9-14.6,61.4-29.7,92.4-45.6
			c6.2-3.2,1.2-8.7-0.7-13c-20-46.3-33.1-52.1-79.7-35.4c-4.7,1.7-9.4,3.3-14.1,5c-54.1,19.2-54.3,19.4-22,66.8
			C1304.8,826,1307.3,838.8,1323.2,839.9z M1634.5,837.7c-0.9-1.8-2-3.5-2.8-5.3c-27.4-61.1-40.2-65.8-100.2-36.9
			c-6.3,3-12.6,6.1-19,8.8c-10.8,4.6-15,9-7.7,22c35.9,64.4,35.4,64.7,100.8,32.2c7.1-3.5,14.5-6.8,21.4-10.7
			C1630.9,845.9,1637.1,844.8,1634.5,837.7z M1284.7,914.1c-11.7,5.6-30,13.6-47.7,22.9c-9.3,4.9-25.8,6-25.7,17
			c0,14.6,10.7,27.6,23.9,35.7c9.3,5.7,20.5,8.5,29.5,14.6c30.9,20.7,56.3-0.6,75.1-16.6c15.1-12.9-11.7-28.1-17.7-43.2
			c-3.7-9.1-10.7-16.8-16.2-25.1C1302.4,914.3,1298.7,909.4,1284.7,914.1z M1351.1,686.2c-10.9-16.6-20.9-31.5-30.4-46.5
			c-4.2-6.6-8.2-10.2-17-7.4c-30.4,9.7-61.1,18.5-91.6,27.9c-9.2,2.8-11.6,6.9-6.4,17.2c24.8,49.2,29.8,51.5,81.4,32.1
			C1307.5,701.8,1328.1,694.6,1351.1,686.2z M1525.4,954.6c-28.2,14.1-54.1,26.8-79.8,40c-9.6,4.9-28.1,8.9-13,23.6
			c12.9,12.5,9.2,49.4,43.4,33.6c23.4-10.9,46.4-22.7,69.2-34.8c6.7-3.6,21.2-5,14-17.1C1549.4,983.6,1541.7,965,1525.4,954.6z
			 M1186.2,741.2c-0.6-1.9-1.3-3.7-1.9-5.6c-13.5-41.7-38.4-54.5-81.3-41.5c-10.5,3.2-20.8,6.6-31.4,9.3
			c-12.7,3.3-17.9,6.7-9.4,21.6c32,55.9,31.3,56.3,91.4,33.3c7.4-2.8,14.8-5.6,22.2-8.4C1180.3,748.2,1185.7,747.7,1186.2,741.2z
			 M1045.7,791.1c-14-20.8-28.3-42.4-43.2-63.5c-1.1-1.6-7.5-0.2-11.1,0.9c-18.2,5.3-36.8,9.7-54.2,16.9
			c-16.7,6.9-27.9,17.2-6.7,33.4c11.1,8.5,20.8,18.6,31.3,27.9c14.3,12.6,69.4,6.1,80.7-9.4C1043.5,796,1044.1,794.3,1045.7,791.1z
			 M1745.2,717.9c-0.7-15.9-12.2-15-19.5-13.4c-11.5,2.6-22.2,8.5-33,13.7c-61.2,29.3-60.7,29.1-20.2,85.2c8.7,12,14.9,15,29,8.4
			C1744.1,791.8,1726.5,745.9,1745.2,717.9z M1556.1,725.3c1.7-20.6-32.7-47.9-49.7-41.8c-20.5,7.3-40.8,15.5-61.5,22.4
			c-11.6,3.9-14.1,9-6.7,19.2c8.7,12.1,16.3,25,25.2,37c8.1,10.9,16.4,1.6,23.6-1.7C1510.7,749.2,1536,740.6,1556.1,725.3z
			 M1494.4,633.7c-25.5-51.8-25.5-51.8-77.8-36c-7.6,2.3-16.2,3.1-22.6,7.3c-8.2,5.4-28.2-2.5-23.5,17.5
			c5.5,23.6,31.3,45.3,45.9,40.2C1442.5,653.6,1468.3,643.5,1494.4,633.7z M1663.3,886.5c-18.4,9-35.5,17.4-52.5,25.8
			c-37.3,18.4-37.6,18.7-12.9,53.1c4.7,6.6,6.2,21.6,21.2,13.9c19.6-10,39.6-19.3,58.7-30.3c11.3-6.5,16-18.7,10.3-30.7
			C1682.4,906.3,1676.1,893.5,1663.3,886.5z M1113.3,628.2c-11.3-16.7-23.6-36.1-37.3-54.3c-3.9-5.1-8.6,1.2-11.5,5.1
			c-15,19.9-29.8,40-44.9,59.9c-5.2,6.9-3.1,12.9,1.1,19.1c4.1,6.1,9.2,6,15.6,4c22.7-7.3,45.6-14.2,68.5-21.3
			C1109.6,639.2,1114.5,637.8,1113.3,628.2z M1123.1,927.8c1.7-1.4,3.3-2.8,5-4.2c-10.4-16.7-20.7-33.5-31.3-50.2
			c-23.7-37.5-26.3-38-67.1-11.5c14.9,11.1,29,22.1,43.7,32.4C1089.7,905.8,1106.5,916.7,1123.1,927.8z M1256.3,439.5
			c23.8-7.5,47.8-14.6,71.3-22.9c6.1-2.1,18.5-1.5,14.5-13.3c-3.1-9.3-8.9-19.2-22.1-14.1c-23.3,8.9-46.4,18.2-69.6,27.4
			c-6,2.4-11,6.1-7.6,13.4C1245.3,435.3,1248.6,440.8,1256.3,439.5z M1655.1,678.8c-16.5-9.7-30.3-19.5-45.5-26
			c-11.8-5.1-28.6-4-28.6,12c-0.1,24,27.9,37.6,49.6,26.9C1638,688,1645.4,683.9,1655.1,678.8z M1533.4,1084.2
			c30.8,2.5,55.7,4.4,82.5,6.6C1594.7,1042.9,1591.7,1042.6,1533.4,1084.2z M1405,392.4c8.5-6.9,26-1.3,29.5-17.7
			c1.5-6.9-4.2-11.5-11.1-8.5c-11.3,5-27.6-2.1-34,11.5C1387.2,382.4,1393.3,392.9,1405,392.4z M1463.7,491.8
			c1.2-0.4,2.4-0.8,3.6-1.2c-5.5-15.7-11.2-31.3-16.4-47c-2.8-8.4-7.8-10.9-15.8-7.1c-10.1,4.7-2.1,10,0.3,13.8
			C1444.4,464.3,1454.2,477.9,1463.7,491.8z"/>
		<path class="st0" d="M1024,1438c-125.7,5.8-210.8-53.8-247.8-174.3c-20.1-65.3,20.6-113.3,86.5-96.2
			c128.7,33.4,255,28.7,381.9-8.5c58.9-17.3,85.5,12,77.8,73.4c-14.9,119.5-88.9,187.3-211.7,197.5
			C1081.8,1432.4,1052.9,1435.3,1024,1438z M1016.1,1387c34.2,1,68.1-2.9,101.5-8.5c98.3-16.4,146.8-65.4,154.7-150.7
			c1.9-20.7-4.1-25.3-22.2-19.7c-128,39.9-256.8,45.5-387,10.5c-12.3-3.3-27.7-13.4-38.5,2.4c-9.9,14.5-1.7,29.1,4.1,42.7
			C867.6,1355.4,916.5,1387.4,1016.1,1387z"/>
		<path class="st0" d="M781.9,591.6c-0.1,29.9-26.3,55.5-56.3,55c-30-0.5-55.5-26.9-54.5-56.7c1-29.9,23.9-51.6,54.7-51.8
			C758,537.8,782,560.7,781.9,591.6z"/>
		<path class="st0" d="M441,478.8c-0.2,31.5-24.1,54.8-55.8,54.2c-30.3-0.5-53-23.2-53.5-53.5c-0.5-31.5,22.9-55.6,54.3-55.8
			C417.4,423.6,441.2,447.4,441,478.8z"/>
		<path class="st0" d="M351.6,916.4c50.4,0.1,89.2,38.8,89.3,89c0,49.9-39.3,89.2-89.3,89.3c-49.2,0.1-90.1-40.4-90-89.3
			C261.5,956.4,302.1,916.3,351.6,916.4z"/>
	</g>
</g>
</svg>
