<?xml version="1.0" encoding="utf-8"?>
<!-- Generator: Adobe Illustrator 23.0.0, SVG Export Plug-In . SVG Version: 6.00 Build 0)  -->
<svg version="1.0" xmlns="http://www.w3.org/2000/svg" xmlns:xlink="http://www.w3.org/1999/xlink" x="0px" y="0px"
	 viewBox="0 0 3000 3000" style="enable-background:new 0 0 3000 3000;" xml:space="preserve">
<style type="text/css">
	.st0{stroke:#000000;stroke-width:10;stroke-miterlimit:10;}
</style>
<g id="Layer_1">
</g>
<g id="Layer_2">
	<g>
		<path class="st0" d="M689,1512.1c-32.2-18.5-64.2-36.4-93.3-58.9c-109.8-85.3-164.7-200.9-185.2-335.4
			c-13.7-89.6-11.6-179.5-6.2-269.7c5.4-92.1,10.9-183.9,29-274.6c48.6-242.7,191.3-402.2,425.1-480.3
			c235.1-78.5,461-52.4,678.3,63.3c48.7,26,90.9,60.3,127.3,101.8c18,20.6,18.1,20.4,37.1,1.9c95.5-93.1,207.3-154.5,340.3-174.5
			c248.8-37.4,516,87.5,625,305.8c31.2,62.5,46.7,129.3,53.4,198.5c8.7,89.1,15.2,178.2,13,267.9c-3.8,151.1-58.3,284.6-140.2,408.8
			c-53.7,81.3-120.5,149.8-200.3,205.8c-4.7,3.3-11.1,5.1-13.1,12.2c8.5,2.6,16.3-0.2,24.1-1c90.5-9.9,175.3,7,253.8,53.5
			c64.4,38.2,99.8,94.8,107.2,169.5c5.4,53.9,6.5,107.8,2.1,161.6c-8.9,109-69.6,181.6-177.7,215.7c-38,12-37.4,12-38.8,51.2
			c-1.4,40.9-3.7,81.8-6.2,122.7c-1.9,31.5-2.3,62.8,6.8,93.4c8.6,28.9,25.8,42.3,56.2,44.3c78.3,5.2,140.5,61.9,162.1,147.6
			c30,118.9-48.2,240.4-168.4,260.4c-44,7.3-86.9-3.2-129.7-11.8c-86.3-17.2-168.2-46.4-244.3-90.9c-8.1-4.7-13.4-6.3-20.7,2
			c-104.4,118.5-241.8,179.1-389.6,221c-240.2,68.2-475.3,47.5-706.8-40.3c-14.2-5.4-14.6-11.3-9.3-23.7
			c12.4-28.9,11.7-29.1,40.5-18.4c163.2,60.6,331.2,86.2,504.7,65.6c127.8-15.2,249.7-51.7,363.4-112.6
			c139.4-74.8,232.8-189.4,283.6-338.4c53.6-157.5,55.9-316.1,4.1-474.6c-55.5-169.9-166.2-288.6-335.7-347.3
			c-133.3-46.3-270.8-78.2-412.9-74c-235.9,7-450.6,77.2-626.6,239.3c-141.1,129.9-190.3,297.4-172,485.3
			c16.6,170.6,88.4,318,198.3,447.6c11.8,13.9,10.5,20.4-2.9,31.2c-22.5,18.1-21.7,18.9-40.4-3.6c-28.9-34.7-55.3-71.1-79.4-109.3
			c-2.8-4.4-4-10.4-11.7-12.2c-11.3,37-30.5,69.5-59,95.9c-38.9,36.1-86.4,52.9-138.2,53.9c-125.4,2.4-228.4-45.3-305.6-145
			c-26.1-33.7-42.5-72.5-37.2-116.1c7.2-60.2,59.8-111.2,123.6-123c19.4-3.6,39.1-6.2,58.7-8.9c25.6-3.6,42.5-16.8,49.3-42.3
			c13.6-51,15.5-103.7,24.1-155.5c4.6-27.6,7.4-55.4,11.6-83c2.1-13.8-0.3-23.1-12.6-32.9c-94.5-75.3-123.1-177.5-111-292.5
			c9.9-94.7,51.9-173.1,133.6-226.8c36.6-24,76.7-38.2,120-44C676.4,1517.1,682.9,1518.2,689,1512.1z M1556.8,442.4
			c28.1-44.6,56-84.9,87.8-122.4c6.3-7.4,4-13.2-1.5-19.8c-31.7-37.2-67.2-69.9-109.7-94.5c-198.4-114.9-408.1-144-629.2-80.6
			C712.1,180.2,571.1,293,502.4,485.9c-23.6,66.1-33.6,134.8-40.6,204.2c-12.3,122.3-25,244.6-14.4,367.8
			c7.9,91.5,28.7,179.4,79.9,257.2c73.2,111,180.7,172.5,306.8,202.5c152.7,36.4,307.4,36.1,461.6,10.4
			c130.8-21.8,242-81.6,322.8-188.5c148.1-195.9,202.8-415.4,159-658.2c-7.1-39.4-16.2-78.1-32.4-115.3c-8.5,4.4-10.9,12-14.6,18.2
			c-86.3,143.7-135.1,298.1-126.5,467.1c3.2,62.3-16.1,116.2-51.3,164.5c-73.6,101.3-178.1,147-299.6,158.5
			c-125.4,11.9-248.2-5.1-368.1-41.3c-137.3-41.4-220.2-132.6-245.7-275.4c-20.1-112.6-23-225.1-8.2-338.4
			c19.9-153,85.8-280.2,206.3-378.3c176.8-143.9,414.2-156.4,593.2-30.4C1480.4,345.5,1521.2,389.3,1556.8,442.4z M1499.2,1213.4
			c36-45.2,62.5-90.3,59.9-147c-2.4-52.7,0.1-105.1,7.2-157.3c23-170.4,90.8-322.7,202.3-451.5c123.8-143,285.5-192.2,472.7-165.9
			c180.2,25.4,338.7,191.6,321.5,393.1c-5.2,61.2-14.5,121.9-20.4,182.9c-13.6,141.5-68.3,262.9-170.2,362.6
			c-90.4,88.5-197.2,140.3-325,144.5c-115.5,3.8-221.4-26.3-317.1-91.3c-7.8-5.3-13.4-10.9-20.5,1.7c-21.6,38.1-47.9,73-77.5,105.4
			c-6.1,6.6-8.2,10.7,1,17.4c36.5,26.7,74.5,50.5,116.4,68c68.8,28.8,141.3,40.4,214.7,48.5c95.4,10.6,189.5,6.1,281.1-25.3
			c101.2-34.7,180.8-99.6,249.7-179.4c126.1-146,197.2-313.1,194-508.1c-1-61.4-5-122.8-9.5-184.1c-4.5-61.3-13.4-122.1-36.3-179.9
			c-47.5-120.2-132.7-205-247.6-261.1c-115.2-56.2-235.8-81.5-363.5-55.9c-162,32.5-287.9,121.5-383.4,253.6
			c-137.5,190.2-197.7,403.8-183.7,637.9C1468.9,1085.9,1476.1,1149,1499.2,1213.4z M971.1,760.8c0,19.8,1.2,39.7-0.3,59.3
			c-1.5,18.4,7.2,24.8,23.5,25.5c15.7,0.7,31.4,0.9,47,1.9c12.6,0.8,16.2-4.9,16.8-16.8c4-81.2-3.4-161-29.9-238.2
			c-3.8-11-1.5-16.3,7.7-21.4c17.9-9.9,30.5-5,37.1,16.5c21.7,71.7,32.6,145.1,29.5,220.1c-1.7,41.4-2.2,40.5,37.9,43.4
			c17.2,1.2,22.3-5.2,24.4-21.2c10.4-81.4,3-160.9-25.6-237.8c-7.2-19.4,1.5-25.7,16.7-31.5c15.8-6,20.6,3.5,24.8,15.5
			c28.5,81.9,38.7,165.8,28.9,252.1c-1.1,10-8.6,22.2,10.8,23.8c31.8,2.7,40.3-0.5,42-20.5c2.1-23.8,3.9-47.7,4.2-71.5
			c0.7-51.4-5.4-102.2-16.6-152.3c-4.8-21.6,12.1-18.4,23-22.6c12.3-4.7,17.8,1.7,20.1,12.9c15.7,75.3,22.1,151.1,12.3,227.8
			c-1.6,12.4-6.6,26.8,14.8,28.3c36.8,2.7,39.3,1.7,40.5-22c3.4-69.4-4.1-137.7-21.8-204.7c-5-18.8,2.1-26.3,18.5-31.1
			c19.5-5.7,21.4,7.7,24.6,20.6c18.2,73.4,27.3,147.6,21.5,223.2c-0.7,9.1,0,16.9,11.3,17.6c11.3,0.7,10.8-8.2,11.5-15.5
			c10.7-112.6,41.9-219.5,91.1-321.2c11.7-24.2,9.7-45-5.1-67c-95.3-141.6-281.1-216.3-449.1-176.8
			c-182.9,43-355.4,193.9-389.1,446.4c-1.2,9.3,2.2,15.3,9.9,20.5c34.7,23.3,72.2,41.3,111.1,56.2c11.8,4.5,16.5,1.7,17.7-12.2
			c4.8-54.6-0.2-107.9-19.2-159.3c-8.6-23.3,9.1-24.5,21.7-30.1c15-6.7,17.2,6.5,20.3,15.5c17.6,50.9,24.4,103.3,22.6,157.2
			c-0.5,15.4-10.5,33.5-0.4,45.4c9.6,11.4,29.2,8.2,44.2,12.6c24,7.1,26.2,5.1,27.4-20.9c3.6-76.2-3.4-151.5-20.5-225.6
			c-4.5-19.5,3.9-22.7,19.5-26.7c17.5-4.4,21.2,3.5,24.3,17.7C965.8,635.5,973.2,697.7,971.1,760.8z M1837.4,825.3
			c12.4-8.9,10.2-20,10.8-30.1c5-83.9,24.8-164.3,54.9-242.5c6-15.5,13.8-16.2,26.3-10.6c11.5,5.1,23.2,8.6,15.8,26.2
			c-29,69.1-45.4,141.3-52.4,215.9c-4.4,47.2-5,46.3,42.8,50.4c17.9,1.6,21.8-3.7,21.4-20.8c-2.1-80.2,5.8-159.4,26.6-237.2
			c4-15.1,10.1-20.2,26.1-15.4c14.8,4.4,22.6,8.4,17.2,26.5c-22.2,74.6-28.7,151.2-26,228.8c0.8,23.9,2.4,24.5,36.9,25.3
			c21.7,0.5,18.1-13.4,17.7-26.1c-2.5-75,7.1-148.4,27.3-220.6c3.9-13.8,8.2-23.7,26.5-18.1c16.8,5.1,21.5,12.5,16.2,29.7
			c-21,69.2-28.1,140.1-26.7,212.3c0.4,18.2,5.2,26,23.9,26.6c19.3,0.6,23.4-9,21.9-25.4c-0.6-6.8,0.1-13.6,0.4-20.5
			c2.6-69.8,11.8-138.6,31.2-205.9c2.2-7.5,2.1-17.5,13.4-17.5c24.8,0.1,34.1,12.5,27.6,36.3c-18.6,68.2-28.6,137.5-27.9,208.3
			c0.1,14.3,0,24.4,20,24.6c19.2,0.2,20.8-8.5,20.9-23.6c0.6-78.9,19.2-153.9,48.8-226.7c6.8-16.8,16.2-11,25.5-6.1
			c8.8,4.7,24.4,5.3,16.1,23.6c-27.2,59.6-41.4,122.5-46.1,187.7c-3.1,43.3-3.4,42.3,38.9,42.9c19.1,0.2,26-5.8,28-25
			c7.3-72.3,31.9-139.2,67.1-202.5c7-12.6,14.4-20.7,30.6-10.9c14.6,8.9,18.8,17.4,9.2,32.9c-35.5,57.1-55,119.8-64.4,186.1
			c-2.1,14.8,2.4,18,16,16.8c27.9-2.5,55.8-4.6,83.7-5.8c14-0.6,20.8-5.6,22.1-20.4c3.9-42.1,9.8-84,13.6-126.1
			c13.5-148.8-76.9-288.1-217.8-336.4c-182.5-62.6-384.2-5.7-508.1,142.2c-13.2,15.7-15.6,29.5-8.6,48.3
			c28.8,77.9,45.3,158.5,49.2,241.6C1834.5,797.9,1836.2,811.6,1837.4,825.3z M2207.6,1731.3c7.8-13.8,13.7-26.2,21.3-37.5
			c68.7-101.9,220.1-96.7,272.9,9.2c29.2,58.7,15.8,132.4-30.5,168c-32.9,25.2-80,23.7-111.5-3.7c-29-25.1-36.8-72.5-17.4-106.8
			c2.5-4.3,5.3-13.5,9.8-10.9c11.6,6.8,21.6,16.4,32.1,25c7.2,5.9,0.2,11-1.1,16.4c-4.7,19.1,2.1,35.9,17.7,43.7
			c16.6,8.2,35.3,3.9,47.9-11c26.9-31.9,23.9-88.3-7.2-120.4c-31.8-32.7-70.7-40.6-112.9-26.2c-44.6,15.2-68.7,49.4-78.5,94.5
			c-1.4,6.4,0.3,11.9,4.2,17.2c55.5,75.4,90,160.2,110.5,251c2.6,11.7,9.4,17,20.4,19.8c21.2,5.3,42.1,1.9,63.1-0.4
			c59.8-6.7,119.3-14.3,173.3-44c51.1-28.1,83.7-69.9,91.7-128.1c8.5-61.8,7.3-124-0.5-185.9c-5.5-43.7-25.2-80.2-61.4-107.1
			c-48.5-35.9-103.3-55.5-162.8-60.9c-133.2-12.1-239.9,37.2-321.8,142c-4.7,6-9.8,11.1-0.7,18.6
			C2180.4,1705.5,2193.6,1718.4,2207.6,1731.3z M735.1,1565.9c-91.6-0.9-153.4,22-200.4,74.6c-69.7,78-85.1,170.7-60,270
			c26.2,104,104.2,169.8,210.4,181.2c9.5,1,21,5.8,24.7-11.9c31.8-153,112.9-274.8,236.4-369.1c9-6.9,10.6-11.9,3.6-21.2
			C890.9,1610.6,812.6,1569.2,735.1,1565.9z M676.7,1015.7c1.9,12.5,3.1,21.2,4.6,29.8c19.4,110.9,75,193.5,184.2,233.5
			c114.3,41.9,232.4,59.3,353.9,53.9c81.3-3.6,158-21.8,225.4-70.3c12.9-9.3,17.3-18.3,11.8-34.4c-11.8-34.2-19.8-69.7-24.4-105.5
			c-2.1-16.8-9.8-19.8-24.3-18.6c-47,3.8-93.9,7.8-141,10c-127.1,5.9-254,5.4-379.2-22.3C815.4,1076,746.3,1051.2,676.7,1015.7z
			 M2429.3,1086.1c-7.1,0.6-10.5,0.7-13.7,1.1c-72.4,9.6-144.9,17-218,18.9c-123.9,3.2-246.7-5.9-368.4-29.3
			c-19-3.6-29.8-1.6-36.1,19.7c-12.7,43.1-28.1,85.3-49,125.3c-5.3,10.1-4.6,17.6,6.7,23.4c12.1,6.3,23.3,14.2,35.1,21
			c203.2,117.2,437.6,76.6,588.8-102.3C2394.3,1140.6,2414.3,1117.4,2429.3,1086.1z M2560.5,2755.6c96.7,1.7,176-88.5,164.6-176.2
			c-2.1-15.8-7.3-18-21.9-14.7c-53.1,11.9-105.3,6.8-153.2-19c-88.4-47.6-130.2-125-135-223.4c-3.1-64.8-5.4-129.6-6.3-194.5
			c-0.3-19.5-13.2-16.4-23.1-16.7c-15.6-0.5-5.8,11.8-6.2,17.9c-0.7,9.4,1.9,19,2.4,28.5c8.9,175.5-27.4,339.2-128.3,485.6
			c-6.6,9.6-4.1,13.3,4.7,18.3C2354.8,2715.9,2459.3,2744.3,2560.5,2755.6z M694.6,2219.2c1-21.8,1.7-43.6,3.2-65.4
			c0.9-12.9-7.7-11.8-15.9-12.6c-10-1-10.6,4.2-10.3,12.4c0.8,23.9,2,47.8,0.9,71.6c-4.5,93.4-33.4,179.4-85.3,256.7
			c-31,46.2-76.6,68.2-133.2,65.4c-39.4-1.9-74.6-16-106.6-37.8c-13.2-9-16.9-4.1-20.8,7.7c-8.2,25.1-3.2,48.4,8.6,71
			c56.1,107.1,209.2,172.5,325.8,142.7c82.3-21.1,134.1-139.3,100.7-206.4C714.4,2429.8,695.7,2325.8,694.6,2219.2z M994.7,888.3
			c-116.9-12.6-225.7-38.9-324.4-99.7c-8.8,53-0.3,102.7-1.8,152.4c-0.4,14.1,4.8,22.1,17.2,29c64.2,35.8,132.2,61,203.7,76.9
			c32.7,7.3,65.5,14.7,102.8,16.3C948.1,1003.5,949.4,946.9,994.7,888.3z M2201.5,1062.2c84.2-2.8,164.1-11.3,243.6-24.6
			c10.9-1.8,15.3-9.9,18.6-19.5c13-36.7,22.4-74.3,29.3-112.7c5.3-29.6,3.7-28-24.9-25.8c-86.5,6.7-173.2,8.4-259.9,8.9
			c-6.4,0-13.6-2.7-20.2,4.3C2236.6,943.8,2239.3,999.9,2201.5,1062.2z M1156.7,1072.8c88.7-0.4,171.6-4.4,254.4-12.7
			c12.4-1.2,11.4-9.1,10.8-17.5c-2.7-41.6-5.1-83.2-1.7-124.8c1-12.9-5.1-17.1-16.6-17.4c-28.7-0.9-57.3-2.6-86-2.9
			c-47.5-0.5-95-0.1-144.9-0.1C1214.3,958.1,1208.8,1015.4,1156.7,1072.8z M2032.6,886.4c-64.7-5.4-124.9-10.4-185.2-15.4
			c-9.3-0.8-11.6,5.2-12.1,12.8c-2.9,44.3-8.2,88.2-18.6,131.4c-2.7,11.4,2.4,16.2,13.2,17.7c16.8,2.4,33.5,5.8,50.4,8.1
			c41,5.4,81.5,15.7,125.8,13.8C1975.7,993.3,1980,937.6,2032.6,886.4z M2458.9,2220.2c0.3,0,0.7,0,1,0c1.6,33.4,2.7,66.9,4.8,100.3
			c2.3,37,10.1,72.3,29.3,105.2c40.3,68.8,112.5,104.5,190.3,92.1c11.3-1.8,22.1-2.7,10.4-18.9c-23.4-32.5-53.5-51-94.2-53.4
			c-51.6-3.1-88.3-36.1-100.1-87c-5.2-22.7-8.8-45.6-7.8-69c2.3-55.2,5.2-110.5,7.1-165.7c0.2-6.7,7.3-21.5-8.7-18.5
			c-11.7,2.2-32.9-7.9-32.3,18.6C2459.5,2156,2458.9,2188.1,2458.9,2220.2z M372.8,2463.3c75.1,58.9,148,36.4,181-20.3
			c53.7-92.4,78.4-190.6,67-297.7c-1.8-17.4-11-23.9-23.8-24c-12.9-0.1-8.6,14.1-9.8,22c-10.1,68.7-17.9,137.8-29.6,206.2
			c-9.7,56.9-40.8,84.5-97.3,96C431.7,2451.3,401.5,2448.8,372.8,2463.3z M2213,1556.8c-98.6,22.8-197.1,18.8-296,8
			c33,11.5,65.9,22.3,97.6,36.3c32.5,14.3,64.3,29.8,94,49.4c5.8,3.9,10.2,5.8,15.2-1.3C2148.7,1613.9,2179.2,1584,2213,1556.8z
			 M1158.5,1589.3c-81.2,2.1-162-1.2-242.8-8.7c28.9,25.3,54.8,51.4,76,81.7c5.4,7.6,9.5,9.4,18,4.2
			C1057.4,1637.5,1107.1,1612.4,1158.5,1589.3z M1747.3,1525.2c-52.3-23-100.9-50.8-145.4-85.9c-6.2-4.9-12.6-4.8-18.5,0.4
			c-29,25.4-60.5,47.4-93.1,69.3C1576.7,1507.1,1662.1,1510.6,1747.3,1525.2z"/>
		<path class="st0" d="M1549.9,2747.8c-195.4-3.1-367.1-64.6-502-210.8c-175.7-190.4-175.3-468.3-0.2-659.7
			c102.5-112.1,231.3-176.8,379.8-201.1c187.4-30.8,363.2,1.7,521.8,108.8c116.3,78.5,197.8,184.2,227,323.6
			c33.5,160.2-9,302.2-116.5,423.6c-110.9,125.3-254,189.8-418.1,211.3c-15.6,2-31.2,3.4-46.9,4.1
			C1579.9,2748.4,1564.9,2747.8,1549.9,2747.8z M1553,2232.1c-188.5,0-377.1,0.2-565.6-0.4c-16.8-0.1-21.3,4.7-18.6,20.8
			c5.3,32.4,11.5,64.4,22.2,95.6c4.1,12,9.3,17.3,23,17.3c358.6-0.4,717.3-0.4,1075.9,0c13.6,0,18.9-5.2,23-17.3
			c10.2-30.6,16.5-61.8,21.9-93.5c3.1-18.2-1.2-23-20.1-22.9C1927.3,2232.4,1740.1,2232.1,1553,2232.1z M1577.2,1949.3
			c0,71.6,0.4,143.3-0.3,214.9c-0.1,14.1,3.6,18.6,18.1,18.4c58-0.8,116-1,173.9,0.1c16.2,0.3,18.8-5.3,18.7-19.8
			c-0.5-129.6-0.5-259.2,0-388.9c0-12.8-3.4-18.9-16.3-23.1c-57.4-18.8-116.1-29.3-176.2-34.1c-15.5-1.3-18.3,3.9-18.2,17.6
			C1577.5,1806,1577.2,1877.6,1577.2,1949.3z M1526.4,1951.2c0-72.3-0.3-144.6,0.3-217c0.1-13.9-2.8-18.8-18.2-17.5
			c-47.7,4-94.7,11.4-141,23.3c-12.4,3.2-17.5,8.5-17.4,22.2c0.5,134.4,0.5,268.8,0.1,403.2c0,13.6,4.2,17.3,17.5,17
			c47.1-0.8,94.2-0.9,141.2,0c14.7,0.3,18.1-4.6,17.9-18.5C1526.1,2093.1,1526.4,2022.1,1526.4,1951.2z M1504,2555.2
			c0,41.7,0.4,83.3-0.2,125c-0.2,12.6,2.7,18.1,16.7,18.5c70.7,1.9,140.3-4.9,209-22.4c12.6-3.2,17.6-8.1,17.4-21.9
			c-0.7-73.7-0.6-147.5-0.1-221.3c0.1-12.6-2.3-17.8-16.5-17.6c-69.6,0.7-139.3,0.8-209,0c-15.2-0.2-17.9,5.3-17.6,18.8
			C1504.5,2474.6,1504,2514.9,1504,2555.2z M1837.2,1981.1c0,61.4,0.4,122.8-0.3,184.2c-0.1,13.3,3.5,17.4,17.1,17.2
			c51.2-0.8,102.4-1,153.5,0.1c16.5,0.3,22.1-3.4,21.8-21c-1-73.7-0.7-147.4-0.2-221.1c0.1-12.6-3.7-21.9-12-31.1
			c-46.9-51.6-102.6-91.5-164-124c-15.4-8.1-16.2-1.7-16.1,11.4C1837.4,1858.2,1837.2,1919.7,1837.2,1981.1z M1299.9,1763.4
			c-60.2,24.7-112.6,55.8-160.3,95.1c-5.9,4.8-7.9,10.2-7.8,17.6c0.2,97.6,0.2,195.2,0,292.8c0,9,1.6,13.6,12.1,13.5
			c47.8-0.5,95.5-0.4,143.3,0c9.7,0.1,12.9-2.9,12.9-12.8C1299.8,2035.2,1299.9,1900.8,1299.9,1763.4z M1453.3,2554.6
			c0-40.3-0.6-80.6,0.3-120.9c0.3-14.5-4.3-18.4-18.5-18.2c-58,0.7-116.1,0.8-174.1,0c-14.1-0.2-18.6,3.5-18.4,18.1
			c0.8,58,0.8,116.1,0,174.1c-0.2,12.9,4.3,19.2,15.5,24.8c56.7,28.3,116.6,45.9,178.7,57.2c12.6,2.3,16.9-1.2,16.7-14.3
			C1452.9,2635.2,1453.3,2594.9,1453.3,2554.6z M2081.6,2415.9c-93.8,0-182.6,0.2-271.4-0.3c-13-0.1-14,5.9-14,16.2
			c0.3,58.7,0.1,117.5,0.1,176.2c0,14.6,0,29.2,0,46.3C1917.6,2604.4,2014.2,2531.1,2081.6,2415.9z M1080,1917.4
			c-65.4,75.9-102.1,158.2-111.9,252.5c-1.1,10.5,3.2,12.6,12.5,12.5c27.9-0.4,55.9-0.9,83.8,0.2c13.7,0.5,17.3-4.1,17.2-17.3
			c-0.5-77.6-0.2-155.3-0.3-232.9C1081.3,1929.1,1080.7,1926,1080,1917.4z M1193.1,2595.2c0-59.6-0.1-114.6,0.1-169.7
			c0.1-10.9-7-9.7-13.8-9.7c-24.6,0-49.1,0-73.7,0c-26.8,0-53.6,0-83.9,0C1065.6,2490.2,1120.5,2547.5,1193.1,2595.2z
			 M2078.7,2002.5c0,55.7,0.1,111.5-0.1,167.2c0,7.8,1,13.9,10.8,12.5c15.3-2.3,31.8,5.9,46-5.1c1-0.8,0.3-3.9,0.1-5.9
			C2129.1,2111.1,2113.1,2054.2,2078.7,2002.5z"/>
		<path class="st0" d="M660.3,1796.5c33.6,0,61.5,27.7,61.4,61c0,33.8-29.6,63-63.2,62.4c-33.7-0.6-60.6-28.1-60.7-62.1
			C597.8,1822.1,623.9,1796.5,660.3,1796.5z"/>
	</g>
</g>
</svg>
