<?xml version="1.0" encoding="utf-8"?>
<!-- Generator: Adobe Illustrator 23.0.0, SVG Export Plug-In . SVG Version: 6.00 Build 0)  -->
<svg version="1.0" xmlns="http://www.w3.org/2000/svg" xmlns:xlink="http://www.w3.org/1999/xlink" x="0px" y="0px"
	 viewBox="0 0 3000 3000" style="enable-background:new 0 0 3000 3000;" xml:space="preserve">
<style type="text/css">
	.st0{stroke:#000000;stroke-width:10;stroke-miterlimit:10;}
</style>
<g id="Layer_1">
</g>
<g id="Layer_2">
	<g>
		<path class="st0" d="M693.1,1054.5c-60.9-21.9-117.5-51.3-167.2-92.6C400.3,857.5,329.1,726.8,337.2,560.1
			c5.8-119.4,60.6-216.6,146-297c90-84.7,196.2-141.5,317.6-164C967,68.4,1124.9,90,1260.3,199.2c31.9,25.7,60.5,32.3,98.4,28.7
			c133.7-12.7,267.5-10.1,401,3.3c93.7,9.4,176.7-11.4,249.5-74.6c76.3-66.3,167.6-103.2,267.3-117c102.5-14.2,185,25.1,250.5,102.9
			c68,80.8,104.1,176.3,125.2,278.1c41.5,200-16.7,374.7-137.1,533.2c-36.4,47.9-77.4,91.9-123.4,130.9
			c-10.3,8.8-10.8,13.4-0.8,23.1c50.8,49,96.9,101.8,134.6,162c68.1,108.9,91.3,227.9,83.5,354.4c-6.6,106.1-36.6,205.8-82.6,301.3
			c-19.4,40.3-39,80.3-41.2,126.7c-2.1,44.1,6.3,84.6,28.8,122.8c30.4,51.6,62.5,102.2,77.5,161.6c29.1,115.8,19.1,228.5-24.8,338.7
			c-11.5,28.8-24.7,56.8-40.4,83.7c-67.2,115-167.8,173.8-300.1,179c-55.2,2.2-110.5,2.4-165.1-7.9
			c-80.7-15.2-146.4-52.8-184.5-128.6c-25.1-50-62-47.2-96.2-30.6c-28.6,13.9-55.8,30.3-82.2,47.8c-110,72.9-230.8,114-362.5,121.3
			c-77.5,4.3-151-8.2-214.6-58.1c-31.8-24.9-52.7-57.9-73.7-91.2c-32-50.9-50.4-52.7-91.1-8.1c-19.1,20.9-36.9,43.1-57.1,62.7
			c-89.2,86.5-199.1,117-320.2,114.9c-58.6-1-115.2-12.7-168.3-38.1c-91.4-43.8-139.2-117.4-148.9-217.7
			c-11.7-120.9,24.6-231.8,69.1-341c16.9-41.4,36-81.9,53.8-123c13-30,14.5-62.2,0.5-90.6c-28.1-56.9-39.2-117.4-46.4-179
			c-14.6-124-17.5-248.2,11.2-370.7c49.8-212.4,157.2-389.9,326.7-528.6C682.5,1066.6,690,1063.6,693.1,1054.5z M1473.5,1918
			c0.1-96.7-5.7-193.1-18.2-289c-15.5-119.2-39.9-236.4-73.4-351.9c-3.3-11.4-8.1-13.9-18.9-12.1c-64.6,11.2-128.3,25.6-189.8,49.2
			c-162.7,62.4-283.8,168.5-346,334.1c-42.7,113.9-47.5,231.6-24.6,350.5c2.5,12.8-0.2,17.8-12.5,19.2c-5.5,0.6-11,1.5-16.2,3.3
			c-15.5,5.6-20.8-1.5-22.4-15.9c-3.2-28.1-8.6-55.9-10.5-84.1c-9.9-147.2,17.2-285.7,99.5-410.6
			c89.3-135.5,217.8-216.7,370.1-262.9c150.6-45.6,305.3-56.1,460.9-39.9c182.4,19,321.7,108.6,411.5,270.1
			c51.8,93.2,75.7,194.7,81.9,300.8c6,101.6-6.7,201-32.7,299c-1.2,4.6,0.2,13.9-7.3,12.6c-14.1-2.4-29.6-4.7-41.1-12.2
			c-8.1-5.3,0.9-17.7,3.1-26.6c36.4-146.7,43-293.7-2.6-439.4c-60.3-192.8-186.4-315.1-389.3-350.6c-83.6-14.6-167.9-9-252-6
			c-17.8,0.6-11.2,10.9-8.7,19.7c38.6,136.4,65.3,275,78.9,416.1c1.1,11.4,4.6,15.7,16.3,15c25.5-1.6,51-2.2,76.5-3.3
			c35.8-1.6,69.8,4.3,100.8,23.5c99.9,62.1,105.4,195.2,10.4,273.5c-14.1,11.7-15.7,15.3-0.4,28c49.7,41.7,77,93.7,61,160.7
			c-10.4,43.4-40,72.8-75.9,96.2c-60,39.2-125.1,43.9-192.6,25.5c-12.9-3.5-18-2.9-20.5,11.5c-33,189.8-89.7,372.3-168.7,548
			c-6.8,15.1-6,20.2,12.4,18.9c88.2-6.5,173-25.1,252.7-64.8c56.2-28,107.7-63.9,162.5-94.2c67.2-37.1,138.7-25.4,173.5,46.7
			c29.4,61,82.7,89.9,146.6,102.8c53.3,10.7,107.2,9.8,160.9,7.6c87.4-3.6,164-34.8,219-104.4c69.6-88,104.8-190,109.6-302.2
			c4.1-95.7-23.5-182.2-76-261.7c-17.9-27.1-32.6-56.1-40.1-88.1c-17.3-73.4-3-142.3,30.3-208.4c50.3-99.6,83.6-203.9,87.8-316.3
			c3.9-102.7-11.9-201.4-65.9-290.4c-89.4-147.5-213.4-259.8-364.5-340.8c-199.4-106.9-415.3-125.1-635.8-106.2
			c-147.8,12.6-293.6,40-437.2,77c-201,51.7-372.9,149.9-497.2,320.7c-93.3,128.3-155.1,269.6-172.9,428.6
			c-9.8,87.6-7.4,175.1,2.9,262.3c6.7,57.5,15.5,114.6,40.9,167.8c22.1,46.3,20.3,93.5,0,140.1c-16.3,37.3-33.6,74.1-49,111.7
			c-41.1,100.6-76.8,202.2-68.6,314.1c6.8,93.3,50.7,158,138.4,192.5c59.1,23.3,120.5,29.8,183,24.3
			c99.9-8.8,187.1-44.9,253.5-123.4c18.3-21.6,36.5-43.3,58.2-61.7c38.5-32.8,88.1-29.6,121.9,7.7c17.7,19.6,29.9,43,44.3,64.8
			c28.8,43.4,68.4,70.3,118.3,84.8c21.6,6.3,30.9,1.2,40.1-19.3C1404.2,2561,1473.3,2247,1473.5,1918z M2542.3,818.5
			c-10.6,2.1-17.8,3.5-25,5.1c-161.4,36.1-321.7,32.2-480.8-13.7c-32.8-9.5-32.5-9.5-21.6-41.7c3.5-10.4,6.7-16.1,20.2-11.9
			c60,18.9,121.3,30.9,184.1,36.7c115.4,10.6,228.5-0.5,339.7-32.8c10.8-3.1,15.6-9.1,19.3-18.8c11.8-31,21.8-62.6,27.6-95.2
			c8.3-46.7,12.5-93.6,7.1-141c-8-0.4-11.7,4.4-16,7.3c-187.4,127.1-391.7,162.7-611.8,114.2c-28-6.2-27.6-6.1-20.8-34.9
			c3.2-13.4,5-22.2,23.7-17c47.9,13.4,97.3,20.1,147,21.7c167,5.3,318.4-40.6,453.4-139.9c13.1-9.6,17.2-18.8,13.3-34.6
			c-14.7-59.8-33.7-117.9-63.7-171.9c-14.2-25.5-9.2-25.4-31.9-7.4c-149.7,118.8-320.3,181-511,188.7c-30.8,1.2-29.8,0.9-31-29.9
			c-0.7-16.8,5.2-20.1,20.8-20.7c80.3-3,159.1-14.3,235.7-40c96.5-32.4,184.3-80.3,262.9-145.1c6.7-5.5,14.7-8.6,5.1-20.3
			c-53.7-65.1-120.8-97.2-205.9-85.1c-92.2,13.1-175,48.8-246.1,109.2c-73,62.1-156.6,89.7-251.9,83.7
			c-96.4-6.1-192.7-15.4-289.5-12c-49.9,1.8-99.9,3-151.5,8.9c120.3,170.3,135.2,352.3,68.7,544.5c4.3,0.3,6.4,0.8,8.3,0.6
			c18.5-2,37-4.3,55.5-6.1c143.8-13.7,286.9-8.7,428.4,21.1c161.2,34,304.1,105.5,428.4,213.8c6.9,6,10.6,7.3,18.3,0.3
			c38.6-34.7,74.9-71.5,107.7-111.6C2490,904.7,2517.8,864.7,2542.3,818.5z M1043.4,895.9c101.3-24.5,199.1-44.1,297.8-58.8
			c8.9-1.3,12.6-6.6,15.7-14.2c58.5-143.7,63.4-287.9-4.5-429.2C1244.2,169,1025.9,116.6,834.1,143.9
			C717,160.5,613.5,213,525.8,293.2C409.7,399.4,357.3,529.3,400.2,684.5c48.1,174.3,169.8,278.6,339.4,331.1
			c9,2.8,15.8,0.3,23.2-4.2c52.2-31.2,106.4-59.4,164.3-77.2c37.8-11.6,59.3-34.3,73.8-67.9c0.5-1.3,1.5-2.3,2.1-3.6
			c41.7-87.3,42.3-172.8-11.9-255.5c-27.9-42.6-67.7-63.9-118.6-63.1c-58.8,0.9-101,31.8-109.7,83.9c-3.6,21.3-11.7,25.9-30,21.9
			c-2.7-0.6-5.5-0.6-8.3-0.4c-13.3,1.1-16.6-5.4-14.8-17.6c3.1-21.3,8.6-41.7,19.5-60.6c40.2-69.2,138.5-99.3,218.4-63.7
			c92,41,124.6,121.9,134.8,214.5C1089,782.2,1072,838.5,1043.4,895.9z M1519.9,1873.8c1.3,0,2.5,0,3.8,0c0,34.5,0.5,69-0.3,103.4
			c-0.3,11.8,3.3,15.7,15,15.8c28.3,0.2,56.6-0.9,84.5-5.3c54.1-8.5,90.2-40.1,106.8-91.6c20.1-62.4-24.2-131.2-89.1-140
			c-37.8-5.1-75.6,2.4-113.5,1.2c-10.3-0.3-7.3,7.5-7.3,13.3C1520,1804.9,1519.9,1839.4,1519.9,1873.8z M1584.4,2270.9
			c48.9-1.9,93.2-20.2,126.9-61.2c22.1-26.9,26.6-56.9,13.5-89c-15.1-37-43.3-61.2-78.8-77.9c-7.8-3.7-15.7-5.2-24-3.9
			c-28.7,4.3-57.7,5-86.6,3.7c-12.6-0.6-14.4,4.9-15.2,15.5c-4.1,61.1-9,122.2-18.8,182.8c-1.7,10.8,1.5,15.6,12.7,18.8
			C1536.2,2265.9,1558.3,2269.8,1584.4,2270.9z"/>
	</g>
</g>
</svg>
