<?xml version="1.0" encoding="utf-8"?>
<!-- Generator: Adobe Illustrator 23.0.0, SVG Export Plug-In . SVG Version: 6.00 Build 0)  -->
<svg version="1.0" xmlns="http://www.w3.org/2000/svg" xmlns:xlink="http://www.w3.org/1999/xlink" x="0px" y="0px"
	 viewBox="0 0 3000 3000" style="enable-background:new 0 0 3000 3000;" xml:space="preserve">
<style type="text/css">
	.st0{opacity:0.49;}
	.st1{stroke:#000000;stroke-width:10;stroke-miterlimit:10;}
</style>
<g id="Layer_1" class="st0">
</g>
<g id="Layer_2">
	<g>
		<path class="st1" d="M412.4,1602.4c-78.4-20.3-144.3-55.6-207.4-97.9c-111.4-74.6-160.6-180.5-143.9-310.1
			C96.7,918.8,230.5,706,485,581.2c139.2-68.2,289.7-84.7,443.4-75.1c57.2,3.6,113.5,12.5,168.7,28.2c109.5,31,174,71.6,245.2,155.6
			c37.2-91.8,93.7-167.3,179.6-219.2c64.1-38.7,135.2-53,207.9-59.6c128.6-11.7,257.4-19.3,386.8-11.5
			c207.8,12.6,408,56.2,596.3,146.7c76.8,36.9,139.5,90.8,187.9,163c95.7,142.9,43.4,257-86.3,331.7c-33.4,19.2-69,32-107.7,35.5
			c-10.4,1-20.4,0.8-18.9,17.3c5.2,55.1-10,106.2-33.4,155.5c-23.2,48.9-54.3,92.5-89.2,133.6c-18.3,21.5-18.6,21.3,9.3,30.9
			c50.9,17.5,100.3,38.3,145.6,67.8c121.1,78.6,159.4,181.6,118.9,320.2c-17.4,59.3-43.2,115.1-75.4,167.7
			c-77.1,125.9-162.1,245.5-268.7,349c-151,146.6-331.3,232.1-537.8,266.1c-163.1,26.9-327.3,34-492.2,29.9
			c-170.6-4.2-341.5-4.8-511.7-19.6c-185.9-16.2-370.7-38.3-543.7-115.1c-76.9-34.1-146.2-79.8-196.5-149.2
			c-78.3-107.9-87-227.7-53.3-352.1C199.2,1833,276,1710.8,395.4,1617C400.1,1613.3,404.4,1609.2,412.4,1602.4z M1375.1,2568.6
			c94.4,1.7,188.8,4.1,283.3,0.9c95.4-3.2,190.2-11.3,284.3-26.8c159.6-26.2,307.8-80.2,436.3-181.1
			c105.2-82.6,191.8-182.1,267.7-291.8c57.7-83.5,112.8-168.2,146.5-264.9c44.4-127.8,12-219.9-103.4-290.9
			c-22.1-13.6-45.4-25.3-69.1-35.9c-75.5-33.7-155.1-54.2-236-69.1c-283-52-568.5-55.1-854.6-38.8c-173.7,9.9-347.1,24.6-518.9,54.1
			c-143,24.6-282.8,59.8-415.1,120.4c-203.4,93.2-345.5,240.2-398.4,462.6c-27.3,114.5-13.6,222.5,64.8,315.6
			c46.1,54.8,106.1,91.4,170.9,119.9c111.1,48.9,228.8,72.9,348.2,89.6C978.4,2560.1,1176.7,2564.4,1375.1,2568.6z M860.3,546.4
			c-37.2,0.2-97.5,4.9-157.6,13.9c-326.1,48.7-578,319.6-599.9,648c-5.5,82.7,13.2,160,76,218.4c75.6,70.2,164.7,117.1,266.2,139
			c10.8,2.3,19.5,1.9,29.3-4.2c136.7-84.6,287.1-132.6,443.5-163.4c87.1-17.2,173-35.8,247-88.9c64.2-46,111.7-103.3,126.2-183.4
			c21.4-118.1,24.4-237.7,26.3-357.2c0.5-33.2-14.2-62.1-37.5-86c-44-45-97.8-74-156.4-94.6C1045.9,560.6,965.5,549.7,860.3,546.4z
			 M1393.9,680.4c51.8-3.5,99.8-7.3,147.8-10c218.4-11.9,436.4-8.5,653.9,15.7c102.4,11.4,204.4,25.7,302,61.4
			c131.7,48.2,188.9,128.7,187.9,266.3c-0.2,20.9,7.4,22,24.1,19.2c60.5-10.1,110.4-39.8,152.6-82.7c47-47.7,56.2-103.6,30.7-164.9
			c-7.3-17.5-16.7-34.3-26.7-50.3c-52.4-83.5-130.4-134.8-219-172.1c-246.9-103.8-505.5-134.6-770.7-119.2
			c-83.6,4.9-168.1,6.4-249.6,29.4C1517.1,504.1,1443.8,576,1393.9,680.4z M2002.2,1177.5c0.1,42.6,4.8,84.6,13.9,126.2
			c3.1,14.4,8.9,21.2,25.5,22c148.8,7.8,296.6,23.9,441.4,60.7c9.6,2.4,17.8,3.4,25.8-5.3c53.5-58.6,100.3-121.5,125.4-197.9
			c29.6-89.9,3.4-166.7-74.3-220.3c-25.7-17.8-53.2-32.3-82.3-43.8c-110.3-43.7-226.7-60.8-343.1-77.6c-13.3-1.9-20.8,3.1-27.8,13.3
			C2039.2,951.9,2001.7,1058.5,2002.2,1177.5z M1930.2,822.1c-191.9-7-377,12.8-559.2,60.8c-16.4,4.3-14.5,15.2-15,25.6
			c-2.4,55.4-6.5,110.6-12,165.8c-11.2,113.3-58.5,205.3-154.1,270.2c-3.8,2.6-10.1,3.9-8.6,11.4c50.9-4.9,101.7-10,152.5-14.7
			c151.1-14,302.4-23.1,454.1-22c14.8,0.1,18.3-4.9,19.3-19.3c6.3-92.5,21.5-183.7,46.5-273.1C1873,957.8,1899,891.2,1930.2,822.1z
			 M2641,975c-8.1-83.4-49.5-135.8-117.3-169.1c-62-30.5-128.6-46.1-196.2-57.3C2114.7,713,1900.2,703.1,1685,708
			c-94.4,2.1-188.6,10.5-283,15c-20.6,1-30.9,8.7-35.4,29.1c-4.3,19.8-3.4,39.6-5.2,59.4c-2.6,29.4-2.2,29.4,25.8,22.5
			c170.8-42,343.9-60,519.8-56.6c119.1,2.3,236.5,19.3,353.2,40C2396,841.6,2531.7,868.7,2641,975z M2069.1,831.8
			c-27.7-2.4-50.1-3.8-72.5-6.4c-12.8-1.5-20.4,2-26.3,14.5c-68.6,146.6-108.9,300.3-119.6,461.9c-1,14.5,4.4,17.9,17.4,17.8
			c27.7-0.2,55.6-0.8,83.1,1.6c22.3,1.9,23.1-6.4,19.4-24.9c-21.1-104.7-15.9-208,19.4-309.4
			C2008.9,933.1,2035.2,882.9,2069.1,831.8z"/>
		<path class="st1" d="M1158.8,2501.7c-168.5-2.4-329.5-9.1-486.3-52.4c-71.4-19.7-139.7-46.6-198.4-93.4
			c-90.4-72.1-120.1-176.5-89.7-288.7c44.1-163,149.3-274.3,290.2-357.2c140.4-82.7,293.6-131.4,451.7-165.4
			c291.2-62.7,586.1-84.3,883.4-72.1c145.7,6,290.3,22,427.4,77.3c28.2,11.4,55,25.5,80,42.8c100.1,69.5,130.2,172.2,85.1,285.3
			c-44.4,111.3-121.9,198.1-204.4,281.8c-168.1,170.7-374.5,258.9-609.4,290.7C1576.8,2478.9,1365,2498.4,1158.8,2501.7z
			 M1154.2,2274.7c-10.1,0.6-14.2,0.8-18.3,1c-85.9,5.4-171.5,3.8-256-13.9c-48.6-10.2-84.7-37.6-92.1-89.8
			c-8.2-57.2,7.5-107.6,57.3-141c16.7-11.2,19.4-19.7,16.1-38.5c-16.2-92.2,18.1-143.1,103.9-158.3c51.2-9.1,102.8-8.6,154.4-7.5
			c88.4,1.8,176.6,7.1,264.2,19.2c17.7,2.4,26-1.9,31.6-19.6c28.6-89.4,46.9-180.7,57.6-273.8c2.2-18.8-5.4-19.6-20.2-17.6
			c-96.9,13.2-193.9,25.3-289.6,45.8c-161.4,34.6-318.9,80.6-462.7,164.5c-129.9,75.8-229.9,175.9-272.1,326.2
			c-32.2,114.6,1.5,211.4,103.7,272.1c128.9,76.5,273,95.1,418.7,106.2c7.4,0.6,13.4-1.9,19.2-6.3
			C1034.5,2393.9,1096.1,2341.1,1154.2,2274.7z M1465.1,2442.4c7.2,0,11.4,0.4,15.6-0.1c99-10.6,197.9-21.7,296.8-33.9
			c253.9-31.3,467.6-137.7,638.3-329.4c57.9-65,112-132.1,144.7-214c39.1-97.9,14.9-180.4-68.1-237.2c-19-13-24.8-11.6-30.7,11.7
			c-36.3,142.3-104.9,267.7-208.2,371.9c-166.9,168.3-371.2,245.5-607.5,241.3c-26.3-0.5-57.8-15.2-77.4-0.2
			c-19.3,14.7-26.1,45.7-38.7,69.4C1508.8,2361.4,1487.5,2400.8,1465.1,2442.4z M1810.9,1514.3c-5.9-0.6-10-1.5-14.2-1.4
			c-33.8,1.1-67.5,2.9-101.3,3.3c-15.9,0.2-21.5,6.6-25.1,22.2c-74.6,328.1-212.6,626.9-414.6,896.2c-4.1,5.5-12.7,10.1-8.6,19.2
			c22.1,0,43.7,0.6,65.3-0.2c21.6-0.8,43.3-5.2,64.8-4c25.1,1.4,38.4-8.5,50.5-30.2c116-207.4,216-422.1,297.4-645.4
			C1756.2,1688.8,1785.6,1603,1810.9,1514.3z M1032.6,2449.8c0.8,2.7,1.5,5.5,2.3,8.2c39.7,0,79.5-1.2,119.2,0.5
			c21.6,0.9,34.7-7.4,47.5-24c196.1-255.3,334.8-538.3,413.3-850.7c5-19.9,20.3-46.1,10.1-58.5c-10.5-12.7-38.9-1.9-59.4-0.9
			c-45.8,2.3-45.7,2.9-51.5,47.2c-1,7.7-2.4,15.4-3.4,23.1c-32.4,254-131,479.2-294.9,675.8
			C1160.8,2336.4,1099.6,2396,1032.6,2449.8z M1032,2235c41.7,2.9,83-2.2,124.5-4.9c29.6-1.9,52.2-12.2,68-38.8
			c14.6-24.5,32.8-46.7,48.5-70.5c28.7-43.4,28.4-44.1-21.5-46.9c-111.5-6.3-223-12.3-334.5-18.1c-46.9-2.5-80.4,27.4-87.5,77.4
			c-6.8,48.1,13.4,75.6,63.2,87.2C938.6,2230.9,985.4,2231.9,1032,2235z M1120.3,2024.2c0-0.3,0-0.5,0.1-0.8
			c61.4,3.1,122.8,5.8,184.2,9.4c14.6,0.9,23.9-2.2,30.3-16.8c15.5-35.7,32.3-70.9,49.5-105.8c8.7-17.6,2.9-21.3-14.7-23.2
			c-79.2-8.4-158.5-15.5-238.3-16.1c-61.4-0.5-123-4.5-183.4,11.4c-27.9,7.4-41.9,26.6-45.9,53.5c-2.8,18.9-1.3,37.9,2.5,56.8
			c2.8,13.9,8.2,19.5,23.8,20.2C992.5,2015.6,1056.4,2020.2,1120.3,2024.2z M1755.7,1821.8c40.7,1.5,82.1-6.5,137.7-32.8
			c104.2-49.5,164-134.4,189-245.5c3.6-16.2,0.2-24.9-19.8-25.6c-61.4-2.1-122.7-5.7-184.1-5.6c-17.3,0-24.3,5.8-28.2,21.7
			c-5.8,23.4-13.5,46.5-21.1,69.4C1804.8,1676.2,1780.2,1748.9,1755.7,1821.8z M1667.3,2210.6c251.7-5.8,459.6-99.3,615.5-299.7
			c69-88.7,113.3-189.4,142.8-297.2c4-14.7,1.1-24.8-15.5-28.2c-18.3-3.7-13,11.6-15.7,19.7c-8.5,25.4-15.2,51.4-24.4,76.5
			c-112.7,307.7-404.3,492-728.6,461.4c-17.3-1.6-54.2,42.4-48.8,58.1c2.2,6.3,8.5,5,13.2,5.4
			C1626.5,2208.3,1647.2,2209.3,1667.3,2210.6z M1711.5,1931.8c10,5.4,17.3,1.6,24.6-0.3c212-56.2,366.9-183.9,470.7-375.7
			c9-16.6,6.7-22.7-12.6-23.3c-14.6-0.4-29.6-1.8-43.7-5.7c-19.6-5.4-23.8,4.6-26.2,20.5c-8.3,54.8-28.9,105.2-60.4,150.5
			c-73,105.1-174.8,159.6-301.7,169.1c-10.3,0.8-23.5-4.6-29.2,10.2C1725.9,1895.4,1718.7,1913.6,1711.5,1931.8z M2188.7,1897.7
			c43.7-48.7,78.9-98.7,107.1-153.7c6.7-13.1,1-12.8-9.9-17.4c-34.7-14.7-76.4-20.6-90.2-64.6c-25.3,30.4-48.9,60.2-74.3,88.5
			c-10.5,11.8-8.5,18.6,0.4,30C2149.2,1815.2,2173.8,1851.8,2188.7,1897.7z M1853.8,1940.3c42.5,25.7,64.2,60.7,63.4,108.2
			c-0.3,18.7,7.2,21.1,23.6,14.4c40.9-16.6,80.2-36.1,118.4-58.2c14.7-8.6,14.2-13.5,3.1-26.1c-19-21.6-41.7-35.8-68.1-45.4
			c-16.1-5.9-29.7-14.3-32.4-33.3c-1.8-12.4-7.1-12.8-17.4-7.1C1915.7,1908.5,1886.5,1923.2,1853.8,1940.3z"/>
		<path class="st1" d="M638,1331.1c-55.9-1.3-130.6-8.5-201-39.2c-130.5-56.9-181-171.5-124-302.2c72.8-166.9,203-268,382.1-303.5
			c80.3-15.9,160.3-11.5,238.2,15.7c155.7,54.3,243.2,234.4,186.9,385c-23.7,63.4-68.1,109.6-123.5,146.3
			C903,1295.2,778.1,1331.1,638,1331.1z M658.1,1289.1c118.2-3.4,229.1-32.7,327.1-101.1c76.5-53.4,119-126.8,107.1-222
			c-12.6-100.2-62.5-176.9-158.8-217c-90.1-37.6-183.2-37-274.9-9.7C506.5,784.4,397.1,880,344.2,1031.3
			c-31,88.6,2.9,162.5,85,207.9C500.4,1278.7,578.7,1285.6,658.1,1289.1z"/>
		<path class="st1" d="M660.6,1222.9c-32.8-1.5-65.8,0.2-98.5-4.5c-75.3-10.8-118-48.7-136.7-122.1C393,968.8,489.2,846.3,621.2,847
			c61.4,0.3,87.1,32.4,73.7,91.9c-2.5,11-4.6,22.1-8.2,32.7c-7.3,21.5,3.7,24.9,20.6,20.9c36.1-8.4,68.2-24.1,93.3-52.4
			c16.1-18.1,32.3-35.2,56.8-43.6c87.5-29.7,157.5,26,146.4,117.8c-9.8,81.5-57.9,134.9-128.3,170.7
			C807.8,1219.4,734.9,1225.4,660.6,1222.9z M657.3,1179.9c19.5,0,32.5,0.2,45.5,0c67-1.3,131.5-13.3,186.6-53.9
			c46.9-34.6,77.6-79.3,69.6-141.6c-5.1-40.2-31.3-57.9-71.4-51.4c-24.4,3.9-39.4,19.6-54.8,36.4c-34.6,37.7-77.6,60.5-128.3,67.4
			c-41.8,5.7-67.2-19.3-62.3-60.8c1.8-15.3,6.7-30.3,10.3-45.4c7.5-31.7,0.3-40.5-32.9-40.5c-118.3-0.1-194.8,128.8-138,232.2
			c17.1,31.1,42.9,48.8,78.5,52.6C594.6,1178.3,629.1,1180.9,657.3,1179.9z"/>
	</g>
</g>
</svg>
