<?xml version="1.0" encoding="utf-8"?>
<!-- Generator: Adobe Illustrator 23.0.0, SVG Export Plug-In . SVG Version: 6.00 Build 0)  -->
<svg version="1.0" xmlns="http://www.w3.org/2000/svg" xmlns:xlink="http://www.w3.org/1999/xlink" x="0px" y="0px"
	 viewBox="0 0 3000 3000" style="enable-background:new 0 0 3000 3000;" xml:space="preserve">
<style type="text/css">
	.st0{stroke:#000000;stroke-width:10;stroke-miterlimit:10;}
</style>
<g id="Layer_1">
</g>
<g id="Layer_2">
	<g>
		<path class="st0" d="M1770.6,416.2c156.5-11.3,312.9-17.7,469.4-5.9c68.2,5.1,136.1,12.8,202,32.2
			c145.3,42.7,249.7,138,330.5,261.6c93.2,142.5,136.6,302.5,154.1,469.7c25.1,239.5,7.3,476.9-52.7,709.9
			c-63,244.7-192.6,445.7-406.2,587c-140.1,92.7-297.2,138.1-462.2,157.7c-219.1,26-439.1,19-659.1,14.8
			c-159-3-316.9-16.7-470.4-59.2c-423.6-117.5-678.6-396.7-775.9-822C2.8,1336,196.3,852.3,557.6,609.9
			C689,521.8,836.9,481.1,991,458c203.3-30.5,408.5-32.5,613.3-41.4C1659.6,414.2,1715.2,416.2,1770.6,416.2z M1405.9,474.7
			c-11.9,0-16.8-0.2-21.6,0c-139.7,5.2-279,14.7-417,37.3c-141,23.1-275.4,64.3-394.4,147.2C237.6,893,58,1346.3,147.4,1745.5
			c96.6,431,359.3,701.5,791.3,802.8c162,38,327.3,45.3,492.9,47.2c212,2.5,424.4,9.4,634.6-26.6c377-64.5,627.1-279.3,742.8-643.3
			c75.9-238.9,91.6-485.9,69.2-734.8c-13-145-48-285.1-119.9-413.5c-71.6-128-166.6-231.6-310-280.1
			c-122-41.3-249.3-41.2-376.1-44.8c-15.5-0.4-14.3,11-17.4,18.8c-39.9,100.3-74.3,202.5-106.4,305.5c-1.6,5.2-5.3,11.1,0.9,17
			c43-4.2,86.6-5.6,130-2.6c170.1,11.8,311.2,79.9,414.6,218c143.1,191,155.7,473.8,13.4,681.6
			c-207.4,302.7-505.8,457.1-868.5,484.6c-158.1,12-316.7-2.9-474.9-15.5c-274.4-21.8-486.1-150-643.6-371.6
			c-154.1-216.7-153.2-457.4,0-668.8c48.1-66.4,106-123,172.2-171.2C838.4,842.1,1002.7,784,1180.8,763c15.9-1.9,24.2-8.1,31.6-21.5
			c40.8-73.9,89.3-142.7,143.2-207.6C1370.6,515.8,1386.1,498,1405.9,474.7z M1172.6,816.6c-5.5-0.8-7.5-1.6-9.4-1.3
			c-11.8,1.6-23.5,3.2-35.2,5.3c-216.6,38.6-405.7,128.9-546.7,302.1C463.9,1267,411.9,1432,484.7,1610.5
			c104.6,256.3,293.5,423.4,568.3,482c165.6,35.3,334.8,32.1,503.1,36.3c205.6,5.2,395.2-50.2,571.5-153.8
			c138.3-81.3,261.9-179.6,345.4-319.4c112.2-187.8,111.4-380.7,10.3-571.5c-91.5-172.7-300.8-267.7-511.5-242.7
			c-30.1,3.6-49.1,7.3-56.7,43c-6.2,29.3,0.4,36.4,26.5,43.5c121.4,32.9,226.6,93.3,308.9,190.1c124.3,146.2,125.6,320.6,2.9,468
			c-82.2,98.7-188.6,165.2-302.2,220.9c-97.5,47.8-202.1,68.5-310,72.4c-174.3,6.2-349.1,14.5-520.9-24.4
			c-195.3-44.2-337.3-158.4-418.4-341.6c-67-151.5-23.4-323.7,102-431.8c81.3-70.1,175.6-100.8,282.5-94.7
			c12.7,0.7,28,6.5,32.5-14.7C1130,918.7,1150.9,868.4,1172.6,816.6z M1570,1831.4c16.8,0,33.7,0.4,50.5-0.1
			c229.8-5.7,422.2-97.5,579.8-260.9c113.5-117.7,125.8-255,41-381.6c-79-117.9-195-182.2-328.9-218.6c-16.7-4.6-20.4,4.7-23.8,17.3
			c-12.3,45.8-24.5,91.6-37.4,137.2c-29.2,103.2-90.8,179-190.3,222c-118.1,51.1-238.5,51.8-359.3,11.9
			c-90.4-29.8-164.2-78.8-189.3-179c-10-40-11.9-80.3-8.4-120.9c1.5-17.3-4.6-22.8-20.9-23.5c-27.9-1.2-55.3,1.5-82.8,5.4
			c-201.2,28.6-335.1,254.9-257,442.2c77.7,186.3,222,293.7,419,330.8C1297,1839.1,1433.7,1833.5,1570,1831.4z M1460.5,1338
			c4-0.2,7.9-0.4,11.9-0.6c172.2-8.5,298.6-74.8,345-272.5c46.8-199.1,105.9-395.2,181.9-585.5c9.8-24.6,1.3-26.9-20.5-26.1
			c-160.4,5.9-320.8,11.1-481.3,16c-13.1,0.4-22,5.1-30.6,14.1c-98,102.3-181,215.1-242.9,342.9c-37.3,77.1-65.6,157.5-71.2,243.7
			c-5.1,79.3,6.8,154,80.2,201.7C1301.8,1316.2,1379.6,1333.2,1460.5,1338z"/>
	</g>
</g>
</svg>
