<?xml version="1.0" encoding="utf-8"?>
<!-- Generator: Adobe Illustrator 23.0.0, SVG Export Plug-In . SVG Version: 6.00 Build 0)  -->
<svg version="1.0" xmlns="http://www.w3.org/2000/svg" xmlns:xlink="http://www.w3.org/1999/xlink" x="0px" y="0px"
	 viewBox="0 0 3000 3000" style="enable-background:new 0 0 3000 3000;" xml:space="preserve">
<style type="text/css">
	.st0{stroke:#000000;stroke-width:10;stroke-miterlimit:10;}
</style>
<g id="Layer_1">
</g>
<g id="Layer_2">
	<g>
		<path class="st0" d="M675.5,2008.1c-39.2-14.9-76.5-32.1-109.5-57.6c-81.9-63.2-130.3-145.9-134-249.8
			c-3.4-96.3-3.4-192.8-0.7-289.1c3.9-135.2,74.7-236.7,204.3-300.5c0.5-7.4-6.3-8.4-10.5-11.2C496,1012.4,415.8,893.3,396.5,737.3
			C369.2,517,487.8,292,678.9,204.2c62.5-28.7,129-43.5,197.3-48.1c103.1-6.9,206.3-11.2,309.7-1.9c159,14.2,273.4,93.7,346.6,234.5
			c2.5,4.8,5.1,9.7,9.1,17.2c96.5-191.3,249.8-301.2,459.9-326.4c168.3-20.3,315,34.1,441,144.9c88.4,77.8,147,175,175.5,289.5
			c28.7,115.2,21.8,228.7-19.5,339.9c-40.9,110.3-109.9,199.7-206.4,271c41.7,24.6,77.1,53,105.5,89.6c46,59.2,70.7,126,71.3,201
			c0.7,90,1.4,180.1,0,270.2c-2.9,185.5-149.2,329.5-335,331.4c-5.6,0.1-11.2,0-17.5,0c2.4,6.3,7.8,6.2,11.9,7.7
			c141.7,49.5,225,148.6,236.2,298c8.1,108.4,9,218.1-1.7,326.7c-15.8,159.9-159.6,289.3-320.8,291.9c-73.1,1.2-146.3,0.4-219.5,0.4
			c-417.9,0-835.8,0.2-1253.7-0.1c-168.3-0.1-303.6-111.6-335.6-275.7c-2.6-13.1-4.9-26.5-5-39.7c-1.2-107.6-7.1-215.4,2.9-322.7
			c14-150.2,146.7-278.8,296.8-291.3C643.6,2010.6,659.6,2009.4,675.5,2008.1z M1502.4,1137.4c0,0,0-0.1,0-0.1
			c-242,0-484,0.2-726-0.2c-57.7-0.1-111.5,12.4-160.4,43.6c-68.7,43.8-111.3,105.9-128.5,185.4c-5.1,23.7-4.5,23.9,18.5,21.2
			c16.8-2,33.4-4.8,50.2-6.1c73.5-5.9,146.8-14.9,220.7-6.4c48.8,5.6,93.2,19.6,127.3,57.8c58.7,65.6,45.9,144.7-31,186.2
			c-27.9,15.1-57.3,26.7-87.9,34.9c-91.5,24.3-184.7,27.6-278.4,20.9c-21.5-1.5-27.7,5.1-24.3,24.8c0.7,4.1,0.4,8.4,0.8,12.6
			c16.3,143.9,136.9,253.3,282.6,253.5c488.9,0.5,977.8,0.6,1466.7,0.1c158.8-0.2,284.5-127.7,284.8-286.6
			c0.1-85.1-0.1-170.2,0.1-255.4c0.1-20.5-2-40.8-6.4-60.7c-29.4-134.2-142.9-225-283.1-225.3
			C1986.4,1137.1,1744.4,1137.4,1502.4,1137.4z M1397.9,2061.7c0,0,0-0.1,0-0.1c-239.9,0-479.8,0-719.7,0c-23.9,0-47.9,0.2-71.4,5.7
			c-106.5,24.9-177.4,89.3-214.2,192.1c-5.2,14.5-2.6,18.9,13.3,16.4c16.6-2.6,33.6-3,50.5-4.1c105.5-6.7,210.9-8,315.9,6.6
			c107.9,15,166.9,97.6,140.8,197c-17.3,66-67.1,95.1-128.6,106.4c-114.8,21.1-230.6,25.4-346.6,11.7c-67.8-8-67.7-8.7-54.5,60.7
			c26.5,139.2,141.4,235.6,283.2,235.8c275.1,0.5,550.2,0.1,825.2,0.1c211.8,0,423.5,0.3,635.3-0.1
			c150.5-0.3,273.1-109.6,285.4-258.8c8.2-100.2,3.3-201.1,1.5-301.6c-0.3-18.1-3.9-36.4-8.4-54
			c-32.8-128.2-144.9-213.5-281.6-213.8C1882,2061.5,1639.9,2061.7,1397.9,2061.7z M984.7,1085c108.3,0,198.3,0,288.4-0.1
			c10.3,0,19.9,0.1,29.3-7.8c40.5-34.1,77.5-71.4,110.4-112.7c122.4-153.4,160.5-323.2,91.4-509.8c-51.3-138.6-149.5-225-299.5-246
			c-87.6-12.3-175.4-7.8-263.3-4.7c-74.1,2.6-147.2,10.6-217.2,37.1C540.7,310.7,424.6,521.3,447,723.9
			c18.1,163.9,108.8,279.4,249.6,359c5.9,3.3,11.6,7,19.5,6.3C811.6,1080.2,907.3,1087.7,984.7,1085z M2308.9,192.5
			c-0.5,11.2-1.1,18.8-1.1,26.4c-0.3,46.9-14.9,88.3-47.2,122.8c-32.9,35.1-80,39.6-117.7,10.2c-26.8-20.9-39.4-50.7-47-82.7
			c-9.3-39.3-9.6-79.4-10.6-119.5c-0.1-2.8,0.2-5.6,0.2-8.4c-0.1-5.4,1.6-12-6.2-13.6c-3.2-0.6-8-0.7-9.8,1.1
			c-4.1,4.2,0.3,9.2,1.4,13.7c18,75.5,8.6,146.7-34.2,212c-18.7,28.6-45.9,45-81.2,45.3c-50.4,0.3-95.6-31.9-116.8-82.3
			c-16.7-39.7-26.2-80.7-25.1-125.9c-43.8,18.9-76.7,48.2-110,77c-11.8,10.2-15.9,21.6-15.4,36.9c2.7,96.1,32.8,182.4,94.7,256
			c86.5,102.7,196.5,158.6,332,144.2c188.5-20,337.1-180,351.2-369.7c0.5-6.5,0.3-12.3-4.2-17.7
			C2419.4,267.4,2369.5,226.1,2308.9,192.5z M1638.5,346c-28.7,36.6-46.2,75.3-62.9,114.5c-5.8,13.6-6.5,26.1-3,40.5
			c26.1,107.2,22.3,213.1-16.7,317c-2.9,7.9-5.6,15.6-4.6,24.5c14,129.7,136.7,241.3,267.3,242.5c38.7,0.4,77.4-0.7,116.1,0.4
			c16.6,0.5,21.4-4.6,21.2-21.3c-0.7-101.3-0.6-202.6-0.1-303.9c0.1-14-3.4-20.9-17.4-25.9c-95.8-34.7-170.5-96.3-226.6-181
			C1670.9,491.4,1647.8,422.9,1638.5,346z M2511.4,389c-1.7,5.8-2.4,7.8-2.9,9.8c-39.7,162.5-135.7,276.3-292.6,336.9
			c-10,3.9-12.2,9.3-12.2,18.7c0.2,104.8,0.3,209.6-0.2,314.4c-0.1,13.4,4.7,16.4,17.2,16.5c32.2,0.3,64.7,0.9,95.6,10.9
			c13.6,4.4,23.7,1.8,34.8-6.4C2530.4,958.7,2606,783,2575.4,563.1C2567,502.4,2545.5,445.1,2511.4,389z M603.7,2319.4
			c-82.2-0.4-146,3.5-209.8,9.2c-12.5,1.1-15.3,6.4-15.3,17.1c0.1,57.6,0.3,115.3-0.2,172.9c-0.1,11.6,4.4,15.5,15.6,17.3
			c99.2,15.5,198.8,16.7,298.5,7.2c37-3.6,74.1-8,109.7-19.7c30.7-10,52.6-28.4,60.9-61.1c15.9-63-16.6-116.1-80.3-129.2
			C717.8,2319.7,651.6,2320.3,603.7,2319.4z M578.3,1623.3c38,1.5,76,0.7,113.7-3.9c59.1-7.2,116.1-21.5,167.6-52.6
			c30.5-18.4,36.5-38.1,23.2-71.3c-16-40-48.1-59.7-88.7-65.7c-100.7-14.8-200.5-1.4-300.3,11.6c-11.3,1.5-11,7.9-11,16
			c0.1,49.9,0.4,99.9-0.2,149.8c-0.1,12,4,16.4,15.6,16.2C524.8,1623,551.5,1623.3,578.3,1623.3z M2151.5,920.3
			c0-49.9-0.2-99.7,0.2-149.6c0.1-11.7-1-18.4-16-15.7c-37.6,6.8-75.5,6.1-113.2,0c-11.7-1.9-16,0.5-15.9,13.3
			c0.5,100.4,0.5,200.8-0.1,301.2c-0.1,14.3,6,15.8,17.6,15.7c35.8-0.5,71.6-0.9,107.4,0.2c15.4,0.4,20.7-3.7,20.3-19.8
			C2150.8,1017.2,2151.5,968.7,2151.5,920.3z M2028,212.1c-0.1-26.1-4.4-47.9-11.5-69.5c-3.2-9.8-7.2-13.4-18-11.9
			c-39.9,5.3-78.4,15.5-116.2,29.1c-7.1,2.5-12.4,5.9-13.6,14.1c-7.9,54.5,0.6,105.9,34.5,149.9c28.2,36.6,71.9,32.9,95.9-6.3
			C2019.6,284.3,2026.5,247.1,2028,212.1z M1513.6,909.1c-39,66.6-85.2,121.9-140.7,174.6c93.9,0,182,0,275.1,0
			C1584.1,1038.9,1540.4,983.7,1513.6,909.1z M2137.1,173.3c1.4,40.8,4.6,81.4,22.2,118.9c15.3,32.8,45.2,35.9,68.3,8.6
			c32-37.8,31.3-82.3,26.6-127.7c-0.9-8.6-7.7-11.3-14.4-13.4c-20.7-6.5-41.3-13.4-62.3-18.8C2136.1,130.4,2136,130.7,2137.1,173.3z
			"/>
		<path class="st0" d="M1109,1274.8c102.5,108.6,121.2,301.1,42.7,430.8c-13.5,22.2-28,43.6-43.9,64.2c-8.2,10.5-13.4,10-22.8,1.1
			c-24.9-23.7-25.3-23.2-4.8-50.7c90.1-120.5,92.8-269.2,5.4-391.9c-13.1-18.3-12.2-27.8,5.9-38.7
			C1098,1285.7,1103.2,1279.7,1109,1274.8z"/>
		<path class="st0" d="M1805.4,1594.6c0.5,62.6-24.4,132.9-66.4,198.1c-8.4,13-14,15.5-26.9,4.9c-24.3-19.9-25-19.1-8.7-46.1
			c75.3-124.8,66.4-267-24-388.2c-4.2-5.7-14.5-11.3-7.8-19.3c9.3-11.1,19.9-21.9,33.9-27.2c2.1-0.8,7.5,5.5,10.4,9.2
			C1772.8,1400.8,1806.2,1483.8,1805.4,1594.6z"/>
		<path class="st0" d="M1376.5,1294.1c80.2,126.7,101.5,258.7,45.1,399.8c-9.9,24.8-22.5,48.2-36.3,71c-6.5,10.8-11.7,12.8-22.9,5
			c-27.7-19.3-28-18.5-11.8-47.9c70.1-127,67.5-253.4-5.1-378.1c-9.7-16.7-9.2-25,7.5-33.4
			C1360.9,1306.3,1367.9,1300.1,1376.5,1294.1z"/>
		<path class="st0" d="M2106.5,1593.4c-0.7-74.2-21.4-142.7-61.6-204.8c-9.4-14.5-10-22.7,5.7-30.7c5.6-2.8,10.8-6.6,15.6-10.7
			c7.2-6.1,11.6-4.3,16.5,3.3c68.4,107.5,94.4,222.5,61.4,347.9c-8.6,32.7-21.2,63.8-36.6,93.8c-5.4,10.5-9.5,14.7-21.7,7.1
			c-29.6-18.4-30-17.7-15.4-49.1C2093.6,1700.5,2106.5,1648.4,2106.5,1593.4z"/>
		<path class="st0" d="M1969.9,2520.9c-3.3,120.1-62.2,216-164.9,287.8c-12.3,8.6-17.3,4.7-23.6-6.9c-15.3-28.3-15.9-28,9.8-47.1
			c156.6-116.6,169.9-320.7,30.2-460.9c-5.7-5.7-18.2-11.8-15.1-18c6.4-12.8,17.2-23.8,27.6-34.1c5.1-5,10.1,1.8,14,5.5
			C1923.9,2319.8,1968.2,2406.9,1969.9,2520.9z"/>
		<path class="st0" d="M1308.6,2503.7c-3.2,117.5-60.9,201.5-158.7,261.4c-10.2,6.2-13.8,3.2-18.8-6c-17.3-31.5-17.6-31.3,10.7-50.5
			c160.8-108.7,142-307.9,8.6-415.7c-6.3-5.1-20.8-7.3-16.4-18.1c5.4-13.3,15.3-25,24.4-36.4c3.3-4.1,7.3,1.9,10.2,4.1
			C1256.1,2307.7,1304.7,2393.8,1308.6,2503.7z"/>
		<path class="st0" d="M2185.5,2531.4c0.6-98.1-30.2-178.9-84.6-251.1c-9.3-12.4-11.4-19.3,2.8-27.4c4.2-2.4,7.9-6,11.1-9.7
			c9.9-11.6,16.3-9.7,25.6,2.3c127,163.3,129.5,379.5,5.2,545.8c-5.1,6.9-11,20.4-18.7,16.8c-12.9-6-23.8-17.2-33.6-28.1
			c-5-5.6,3.8-11.1,7.3-15.6c43.1-55.5,71.4-117.4,81.2-187.3C2184.2,2559.9,2184.6,2542.2,2185.5,2531.4z"/>
		<path class="st0" d="M1654.2,2527c-0.3,80.2-34.5,171.7-98,253.1c-10.1,12.9-16.4,14.6-28.7,2.4c-22-21.8-22.8-21-4.1-45.4
			c99.3-130,105.5-305,16.2-446.3c-4-6.3-15.7-13.2-8.5-20.7c9.9-10.4,22.9-18.4,35.8-25.1c5.1-2.7,8.2,6.4,11.2,10.7
			C1624.5,2320.8,1655.6,2421.8,1654.2,2527z"/>
		<path class="st0" d="M809.6,433.3c16.2,1.4,33.1,8.1,49.7,16c54,25.7,108.3,50.2,168,59.8c73.3,11.8,144.1,0.9,213.5-23.2
			c22.5-7.8,44.8-16.3,67.2-24.5c11.2-4.1,22.6-7.3,34.8-7.9c16.1-0.8,29.3,3.1,36.2,19c6.8,15.6,1.7,29.6-8.9,40.7
			c-15.5,16.1-32.4,30.7-49,45.7c-38.7,35-70.9,74-80,127.7c-5,29.2-0.8,57.3,7.9,85.1c7.3,23.4,15.9,46.6,21.4,70.4
			c9,38.9-18.5,64.8-57.2,55.5c-22.3-5.4-40.6-19-60.1-30c-84.2-47.3-174.6-68.6-270.9-63.1c-37.6,2.2-72.6,15.1-106.2,31.9
			c-27.1,13.5-47.7,11.6-56.4-4.2c-7.3-13.2,2-31.1,24.2-48.1c25.6-19.6,52.5-37.6,73.4-63c38.2-46.4,42-90.1,10.6-141.4
			c-13.2-21.6-28-42.1-41.8-63.3c-7.3-11.1-14.3-22.5-17.3-35.8C762.8,454.5,780.4,432.8,809.6,433.3z M858.6,753.3
			c131.5-9.4,248.4,21.9,358.2,89c-50.7-117-38.9-220.9,55.3-311.3c-150.4,57.9-293.3,40.9-433.4-32.6
			C896.4,579.5,932.9,660.8,858.6,753.3z"/>
	</g>
</g>
</svg>
