<?xml version="1.0" encoding="utf-8"?>
<!-- Generator: Adobe Illustrator 23.0.0, SVG Export Plug-In . SVG Version: 6.00 Build 0)  -->
<svg version="1.0" xmlns="http://www.w3.org/2000/svg" xmlns:xlink="http://www.w3.org/1999/xlink" x="0px" y="0px"
	 viewBox="0 0 3000 3000" style="enable-background:new 0 0 3000 3000;" xml:space="preserve">
<g id="Layer_1">
</g>
<g id="Layer_2">
	<path d="M1774.3,2955.9h-330.2c-1.3,0-2.3-1-2.3-2.3V58.4c0-1.3,1-2.3,2.3-2.3h330.2c1.3,0,2.3,1,2.3,2.3v2895.2
		C1776.6,2954.9,1775.6,2955.9,1774.3,2955.9z"/>
	<path d="M2190.8,2955.9h-330.2c-1.3,0-2.3-1-2.3-2.3V58.4c0-1.3,1-2.3,2.3-2.3h330.2c1.3,0,2.3,1,2.3,2.3v2895.2
		C2193.2,2954.9,2192.1,2955.9,2190.8,2955.9z"/>
	<circle cx="1073.7" cy="772.9" r="279"/>
	<circle cx="1073.7" cy="2210.7" r="279"/>
</g>
</svg>
