<?xml version="1.0" encoding="utf-8"?>
<!-- Generator: Adobe Illustrator 23.0.0, SVG Export Plug-In . SVG Version: 6.00 Build 0)  -->
<svg version="1.0" xmlns="http://www.w3.org/2000/svg" xmlns:xlink="http://www.w3.org/1999/xlink" x="0px" y="0px"
	 viewBox="0 0 3000 3000" style="enable-background:new 0 0 3000 3000;" xml:space="preserve">
<style type="text/css">
	.st0{stroke:#000000;stroke-width:10;stroke-miterlimit:10;}
</style>
<g id="Layer_1">
</g>
<g id="Layer_2">
	<g>
		<path class="st0" d="M1065.8,2176.4c-8.4,42.1-16.5,81.4-31.5,118.7c-71.2,177.5-195.3,299-380,354.2
			c-91.6,27.4-182.1,11.7-271.6-13.6c-29.4-8.3-59.2-16.4-90.1-14.3c-67.3,4.6-113.4,42.4-144.6,98.6c-11.9,21.6-21.4,12.1-35,6.2
			c-19.4-8.4-7.3-18.3-2-27.2c39.4-65.9,93.5-111.1,172.6-118.8c38-3.7,74.8,5.2,111.2,15.1c73,20,146.7,37.1,222.5,19.5
			c174.6-40.6,293.1-149.1,367.6-309.1c12.7-27.3,21.7-56.1,29-85.3c0.9-3.7,0.1-7.8,0.1-14.8c-45.4,38.8-93.6,69.3-150.1,80.3
			c-35.8,7-59.8,24.4-84,50.7c-66,71.7-143,130.1-240.5,150.7c-115.3,24.3-233.6-38.7-283.3-145.7c-32.8-70.8-46.4-146.4-53.6-223.2
			c-13.7-144.1-3.7-287.3,17.8-430.1c1.9-12.7,2.1-22.6,20.1-18.6c15.5,3.4,25.5,6.1,21.9,26.5c-13.3,75-19.7,150.9-22.8,226.9
			c-4.8,115,0.6,229,32.5,340.5c4.8,16.8,11.8,33,17.4,49.6c42.9,126.2,211.2,168.9,309,110.4c63.1-37.8,128.7-84,157.6-124.4
			c-19.1-3.6-37.8-5.8-55.8-10.7c-155.8-43-240.5-149-267.6-304.7c-20.7-118.8-7.2-236.4,11.9-354.1c21-129.4,51.8-257.4,55.5-389.3
			c1.3-46.8,1.2-93.6-10.3-139.6c-14-55.7-48.7-87.8-105.9-95.3c-82.5-10.8-161.7,4.1-238,34.3c-19.4,7.7-23,1-30.1-14.2
			c-8.7-18.7,2.9-20.9,14.9-25.6c71.8-27.9,146.1-41.4,223.2-39.4c109.6,2.9,171.6,59.4,184.2,168.8c11.7,102.2-1,202.9-17,303.7
			c-19.7,124.5-48.6,247.6-55.9,374c-4.5,78.2-0.3,155.7,23.5,230.7c35.9,112.9,112.7,185.3,227.6,211.1
			c112,25.2,207.2-12.1,287.2-92.5c15.2-15.3,17.3-26.1,0.4-42.3c-21.1-20.2-36.7-45.4-52-70.5c-5.1-8.4-9.4-17.1-22.4-16.5
			c-133.4,5.9-267-121.9-296.5-274.3c-21.9-113.5-1.9-222.8,28.4-331.6c26.2-94.1,60.7-185.6,84.8-280.3
			c34.2-134.2,26.3-264.5-26.7-392.8c-44.1-106.8-123.7-164.9-237.4-171.3c-111.6-6.3-199.4,39.8-259.7,135.2
			c-6.7,10.5-13.9,21.4-17.4,33.2c-6,20.3-16.8,16.2-31.8,11.2c-14.6-5-14.5-11.3-9.3-23.6c79.7-189.1,319.1-259.3,486.3-141.9
			c51.5,36.2,85.3,85.9,109.4,143.6c65.7,157.3,60.7,315.7,11.7,476c-30.7,100.5-67.7,199.2-89.6,302.4
			c-17.8,84.4-26.6,169.4-2.1,253.2c31.8,108.6,96.8,187.6,211.7,216.3c7.9,2,16.3,2.2,25.4,3.3c0-3.8,0.6-6.1-0.1-8
			C719.2,1477,892.6,932,1345.2,634.1c213.1-140.3,447.8-221.2,700.7-251c174.1-20.5,347.5-20,517.9,25.9
			c115.2,31,219,82.5,291.4,182.9c46.8,65,70.3,139.2,75.6,217.6c14,208.4,14.4,417.2-34.6,621.3c-62,258.7-192.4,477.8-404.2,643.6
			c-139.6,109.3-299.1,168.6-475.5,181c-217,15.2-434.4,22.4-651.9,15.4c-92.4-3-183.1-17.2-263-69.6
			C1090.4,2193.9,1079.7,2186.1,1065.8,2176.4z M2809.1,1569.2c3.6-9.2,6-15.2,8.3-21.2c36.5-96.8,59.6-196.7,66.3-299.9
			c9.7-151,22.7-302.1,3.3-453.3c-16.2-125.4-74.9-222.8-187.6-285.9c-113.2-63.4-236.6-87.3-363.3-93.5
			c-329.2-15.9-638.7,53.6-922.4,225.4C1230.9,751.2,1082.2,895,988,1089.3c-92.1,189.9-120.8,391.6-102,600.4
			c10.3,114.1,38,224,97,324c55.4,94,130.2,165,238,195.2c55.1,15.4,111.8,21.1,168.7,22c202.5,2.9,404.9-2.4,607-15.8
			c109-7.2,215.3-29.1,314.3-78.1c37.8-18.7,75.1-38.4,111.4-65c-7.9-2.6-12.5-4.6-17.3-5.7c-97-24-161.6-84.5-195.8-177.3
			c-42.3-114.7-44.1-231.1-5.9-346.8c65.3-197.7,254.3-330.1,474.7-333.7c20.8-0.3,26.9-6.3,27.5-26.5c2.2-68-1.2-135.6-14.5-202.3
			c-39.2-196.4-151.4-325.6-349.4-373.3c-99.9-24.1-200.8-21-301.6-5.7c-47.2,7.2-47.6,7.6-41.4,56.7
			c24.6,195.8-31.1,368.7-150.5,522.8c-53.9,69.6-123.2,116.9-210.9,134.8c-42.5,8.7-84.9,18-127.3,27.6
			c-39.3,9-77.3,21.5-109.2,47.6c-51.8,42.5-55.5,103.2-8.4,150.4c33,33,73,51.6,119.4,58.3c52.5,7.6,105.2,3.2,157.9,4.7
			c42.8,1.2,85.3,4.6,125.5,20.7c32,12.8,45.6,36.3,44.7,70.8c-0.9,33.5-16.1,61.1-34.8,87.1c-46.5,64.8-103,120.7-158.6,177.6
			c-12.8,13.1-19.3,8.8-29.9-1.6c-11-10.8-12.9-17.1-0.3-29c43.8-41.3,85.1-85.3,123.7-131.5c19.9-23.8,39.5-47.9,52.2-76.3
			c15.8-35.1,7-52.8-29.5-63.5c-16.1-4.7-32.4-7.4-49.1-9.3c-59.2-6.6-118.8-1-178.1-4.8c-72-4.7-135.1-29.2-183.2-84.6
			c-47.5-54.7-46-128.7,2.5-182.6c28.8-32,65.4-52,106.2-63.7c34.5-9.9,69.2-20.6,104.6-25c126.4-15.8,222.7-76.3,287.5-186.2
			c12.7-21.6,25-43.4,37-65.5c67.8-124.5,85.3-257.1,62.8-396c-1.6-10.1-0.7-21.7-19-16.6c-54.8,15.3-108.5,33.4-161,55.3
			c-10,4.2-14.1,9.2-12.6,20.7c4.9,38.4,2.9,76.9-2.5,115.1c-13.6,96.4-48.2,182.5-125.6,246.3c-61.4,50.6-133.3,57.2-203.5,20.3
			c-33-17.4-62.1-40-86.1-68.1c-13.7-16.1-20.1-12.6-31.1,1.7c-24.4,31.9-48.7,63.8-69.6,98.2c-109.8,180.4-159.2,377.5-161.1,587.4
			c-0.2,22.6-10.2,23.2-27,24c-22.9,1.1-15.1-14-15.1-25.1c0.1-11.7,0.9-23.4,1.2-35.1c5.2-186.2,49.8-362.2,139.1-525.8
			c115.2-210.9,290-358.6,502.8-463.5c191.7-94.5,392.9-148.6,608.5-120c205.7,27.3,351,134.5,420.5,334.7
			c23.2,66.9,32.5,136.4,35.8,206.8c5.4,115.3-11.2,228.4-36.9,340.4c-2.2,9.8-10.2,21.2,3.3,29
			C2754.5,1490,2785,1524.8,2809.1,1569.2z M2614.7,1899.6c-13.3-2-22.3-3.2-31.3-4.6c-40.8-6.4-81-15.7-114.1-41.7
			c-73-57.2-90.5-136.9-78.1-222.6c17.6-122.1,124.1-219.1,258.1-189.4c14.7,3.3,16.7-3.7,19.4-14.5c12.8-51.9,20.3-104.8,29-157.5
			c3-17.9-5.1-19.3-18.8-19c-126.5,2.6-238.6,43.8-328.1,133.8c-130,130.7-158.1,289.2-111.4,463c29.8,111,103,174.2,218.9,185.7
			c9.5,0.9,17.9,1.4,25.9-5.2C2530,1990,2572.9,1949.3,2614.7,1899.6z M2620.6,1855.6c20.9,4.8,35.6-5.9,49-25
			c40.2-57.7,75.5-118.1,106.3-181.3c7.1-14.5,8-27.7,2.5-43.1c-28.6-80-102.1-130.8-187-128.1c-69.6,2.2-133.3,59.3-155.4,139.2
			c-27.3,98.7,19,197.9,105.7,225.5C2566.3,1850.7,2591.7,1856.3,2620.6,1855.6z M1718.3,703.4c-134.4,64.7-252.5,146.1-354,251.1
			c-8.9,9.2-5.9,14.6,1,22.7c23.8,28.1,52.3,50.3,84.6,67.6c55.4,29.6,109.6,22.9,158-17.6c34.1-28.5,58.4-63.9,76.6-103.9
			C1715.9,854.1,1725,781.6,1718.3,703.4z"/>
	</g>
</g>
</svg>
