<?xml version="1.0" encoding="utf-8"?>
<!-- Generator: Adobe Illustrator 23.0.0, SVG Export Plug-In . SVG Version: 6.00 Build 0)  -->
<svg version="1.0" xmlns="http://www.w3.org/2000/svg" xmlns:xlink="http://www.w3.org/1999/xlink" x="0px" y="0px"
	 viewBox="0 0 3000 3000" style="enable-background:new 0 0 3000 3000;" xml:space="preserve">
<style type="text/css">
	.st0{stroke:#000000;stroke-width:10;stroke-miterlimit:10;}
</style>
<g id="Layer_1">
</g>
<g id="Layer_2">
	<g>
		<path class="st0" d="M1239.1,2949.9c-125.9-2.3-251.8-1.6-377.2-15.9c-127.9-14.6-252.6-41.3-364.1-109.8
			c-135.3-83.1-207.4-208-228.3-362.4c-22.6-167,34-306.9,156.7-420.9c5.8-5.4,15.1-10.1,0.4-17c-77.3-36.4-104.8-102.4-108-182.7
			c-2.8-70.2,1.9-140.3,5.7-210.3c14.8-274.2,21.4-548.6,17-823.2c-0.8-51.6,0.3-103.1,5.1-154.6c6.2-66.2,28.3-125.8,72.3-176.3
			c7.8-9,8.8-13.1-3.9-18.4c-28.8-11.9-54.7-28.5-75.4-52.4c-43.8-50.3-44.1-108.9-31.3-169.5c13.7-64.9,51.8-108.9,114.3-132.7
			c69.1-26.3,141.3-35.2,214.2-38.6c168.2-7.8,335.4,6.4,502.2,26.8c111.8,13.7,223.1,30.3,334,50.4c12.3,2.2,24.1,1.2,36.4-2.9
			c68.2-23.2,139-32.8,210.6-37c137.4-8,274.9-9.4,412.4-10.2c84-0.5,167.8,0.6,249.9,19c174.7,39.3,271.9,152.9,306.3,325.2
			c9.9,49.4,13.6,99.6,14.9,149.7c4.2,154.8,3.4,309.5-18.2,463.4c-21.1,151-57,298.2-108.9,441.5c-5.9,16.3-6.3,30.9-2.8,47.8
			c36.2,172.7-17.5,342-162.8,442.6c-10.7,7.4-21.6,15.1-33.3,20.4c-14.1,6.4-12.9,12.9-5.8,24.6c53.1,86.9,92.9,179.1,110.2,280.2
			c30.2,175.8-30.4,314.4-170.8,420.6c-100,75.6-215.6,117.4-335.2,148.6c-150.9,39.4-305,57.5-460.4,66.7
			C1423.5,2947.9,1331.3,2949.1,1239.1,2949.9z M1911.4,1592.1c0.5-11.5,0.6-17.7,1.1-23.8c4.9-61.9,18.6-120.6,57.7-171.3
			c107.4-139.3,341.6-164.7,483.7-52.1c33.6,26.7,61,58.7,83.7,95.4c7.4-6.4,7.8-14.5,10.2-21.4c90-266.2,116.3-540.6,105.6-819.7
			c-2.2-57.7-5.5-115.4-18.7-172c-33-141.7-117-233.7-261.1-265.9c-55.2-12.3-111.5-16.9-168-18.1c-112.9-2.4-225.7,0.5-338.5,3.7
			c-81.8,2.3-163.6,5.2-244.8,16.7c-143.9,20.4-253.5,93.6-331,215.3c-90.7,142.4-110.6,302-103.7,465.5
			c3.5,82.7,49.8,127.9,126.6,139.3c55.8,8.3,109.3-3.6,161.3-24.1c10.4-4.1,9.4-11.2,8.9-19.9c-14.1-227.9,202.1-401.8,420.6-335.4
			c132.6,40.3,209.5,133.5,232.6,270.1c2.4,14.1,6.3,17.4,20.5,16.4c46-3.2,92.1-4.1,138.1-6.5c28.5-1.5,26.9-1.9,29.7,25.3
			c2.2,20.9-5.8,25.5-24.6,26c-48.1,1.1-96.2,4.3-144.3,6c-12.2,0.5-16.9,4.1-18.8,17.5c-14.7,108.6-69,192.8-164.9,245.5
			c-115.2,63.3-230.5,57.5-342.5-11.8c-7-4.3-12.2-12-22.9-3.5c-39.2,31-67,69-75.4,119c-11.3,67-6.6,134.4-3.1,201.8
			c0.7,12.8,5.9,17.3,19.2,16.8c71.5-2.8,143-5,214.5-7c39-1.1,76.9,2,110,26.6C1888.3,1557.8,1897.3,1573.9,1911.4,1592.1z
			 M1413.7,184.4c-9-2.1-12.9-3.3-16.8-3.9c-57-8.6-114-17.6-171.1-25.7c-181.9-26-364.4-44.6-548.6-40.5
			c-77.8,1.7-155.5,7.1-229.4,34.4c-76.6,28.3-116.3,113.5-89.2,191.3c16.4,47.2,57,65.8,100.3,80.7c9.1,3.1,15.1,1.9,22.5-3.6
			c81.9-62,176-95.1,275.9-113c109.1-19.4,218.9-19.4,328.9-8.7c32.3,3.1,32.3,2.4,29.2,34.3c-0.2,2.1-0.7,4.1-0.9,6.1
			c-0.7,9.9-3.9,13.3-15.5,12c-101.5-11.1-203.2-12.8-304.6,1.8c-96.9,14-189.5,41-270.3,98.9c-59.1,42.3-105,94.9-121,168.5
			c-6.9,31.7-9.9,63.9-10.1,96.2c-0.6,147.2-0.3,294.4-1.3,441.6c-1.1,162.3-9.9,324.4-16.8,486.6c-3.1,73.4-11.8,146.9-3.4,220.5
			c8.1,70.5,38.9,107.1,107.4,127.3c53,15.6,106.5,12,159.4,1.8c131.6-25.5,251.9-80.6,368.5-144.7c4.8-2.6,9.7-4.9,9.5-11.9
			c-1.6-44.2,12.5-87.2,10.7-131.3c-1-23,5.6-48.9-8-68.4c-51.5-73.8-63.8-156.7-61.2-243.5c3-98.5,39.5-185.9,90.7-268.3
			c3.6-5.8,10.7-10.4,7-19.9c-19.5-49.4-49.6-88.2-105.2-97c-55.2-8.8-110-3.1-162.2,17.3c-39.2,15.3-65.5,43.8-78.1,84.9
			c-9.4,30.7-12.5,61.7-9.6,93.6c5.4,59,19.5,116.5,29.8,174.6c13.9,78.6,14.2,155.8-10.7,232.2c-10.7,32.9-22.9,65.2-46.8,90.8
			c-24.8,26.6-58.5,22.7-78.4-7.6c-13.8-20.9-22-44.3-28.1-68.3c-29.7-118.7-40.6-239.5-38.3-361.7c0.8-42.7,5.5-85,9.7-127.4
			c6.4-65.6,11.7-131.5,28.8-195.6c25.8-96.8,83.6-163.4,181-194c55.3-17.4,111.6-22,169-21.2c61.2,0.9,122.2,7.8,183.5,5.3
			c36.9-1.5,36.9-1.6,41-37.2c0.9-8.2,1.9-16.4,3.5-24.5c2.4-12.9-2.4-18.2-15.7-19.2c-93.3-7-186.4-14.6-280.2-13
			c-67.8,1.2-114.4,32.9-143.7,92.6c-16.2,32.9-16.3,32.8-50,18.1c-7.7-3.3-9.9-6.5-6.5-15.2c29.8-75.5,86.5-143.5,194.6-145.8
			c97.8-2,195.2,4.7,292.5,13.5c16.3,1.5,19.3-4.3,22.2-17.8c21.5-100,59.7-192.8,123.3-274C1317.2,259.4,1360.9,220,1413.7,184.4z
			 M1890.7,2030c-31.9-25.7-48.5-59.3-70.2-89c-25.6-34.9-61-49-103.2-39.4c-16.8,3.8-25.5,1.9-29.6-15.1c-1.1-4.6-3.5-9.1-6.1-13
			c-6.5-9.9-2.6-14,7.4-17.2c45.3-14.8,87.9-9,129.2,14c41,22.8,41.2,22.6,50.4-21.9c0.1-0.7,0.4-1.3,0.5-2
			c11.9-61.7,20.6-123.5,10.1-186.4c-9.8-58.5-38.5-87.6-90.4-88.6c-36.4-0.7-72.9,0.9-109.3,2.5c-108.7,4.8-217.2,4.9-325.9-0.3
			c-23.1-1.1-24.8-9.8-23.1-28.5c1.5-17.2,5.9-25.2,25.5-23.4c32.8,3.1,66,2.2,98.9,4.9c19.7,1.6,26.7-3.7,24.1-24.3
			c-4.7-36.9-4.2-74.1-4.3-111.3c-0.4-91.5,18.4-175.2,95.1-235.4c10.4-8.2,2.1-12.3-2.3-17.4c-28.8-33-52.3-69.4-65-111.4
			c-5.3-17.7-11.1-19.1-28-13.4c-83.7,28.7-167.6,37.9-248.9-8.4c-8.9-5.1-12.3,0.6-17.1,5.2c-31.6,30.7-61.3,63.2-87.7,98.6
			c-73.3,98.7-121,206-112.3,332.4c4.8,70.2,22.3,135.5,72.4,188.4c46.3,48.8,105.9,71.3,169.7,82.1
			c145.4,24.4,291.4,26.6,437.3,3.2c39-6.2,28.1-5.5,37.4,31c2.7,10.6-0.2,14.9-11.3,16.2c-23.9,2.7-47.6,6.8-71.5,10
			c-130.6,17.3-261,10.9-390.7-8.2c-61.3-9.1-119.7-29.4-173.5-68.4c-0.9,44-7.1,83.8-12,123.9c-2.4,19.8,8.2,34.5,24.6,44.3
			c9.3,5.6,19.6,10.2,30,13.4c44.1,13.6,86.3,31.5,126.8,53.9c42.1,23.3,85.1,44.7,131.4,58.8c146.7,44.5,297.1,53.6,449.1,46.2
			C1847.7,2034.7,1867.7,2036,1890.7,2030z M560.7,2051.6c-17.6-1.6-31.2-2.8-44.7-4.2c-8.9-0.9-17.1-1.8-25.2,4.7
			c-110.6,88.1-175.9,200.6-175.4,343.8c0.6,164.2,82.5,342.8,281.6,422.8c118.5,47.6,242.4,66.7,368.3,73.1
			c200.7,10.3,401.6,10.9,602.2-3.6c144.9-10.5,288.5-30.2,428.5-70.3c111-31.8,217.4-73.9,307.5-149.1
			c97.4-81.4,144.8-184.3,134-312.4c-9.8-115.3-56.2-217.1-114.7-314.6c-5.3-8.9-10.6-8.1-18.7-4.9c-19.2,7.6-38.8,13.6-59.1,18
			c-64.7,14-129.9,23.2-196.2,23.8c-4.2,0-10.7-3-12,3.9c-1,5.3,3.8,8.4,8.2,10.6c2.5,1.2,5,2.3,7.5,3.4
			c114.8,52.7,183.7,143.7,216.9,263c32.6,117.5,2.2,207.3-90.1,273c-57.1,40.6-122.7,60.9-190.6,72.8
			c-128.7,22.4-258.2,44.7-388.8,44.5c-206.2-0.3-412.8,6.4-618.4-18.1c-141.6-16.9-275.3-58.8-399.1-129.4
			c-72.1-41.1-127.5-98.4-146.5-182.8c-15-66.8-2.3-131.2,20.9-194.1C480.2,2162.5,513.7,2105.2,560.7,2051.6z M2074.9,2166.5
			c-2.6,9,1.8,15.1,4,21.2c17.3,49,28.4,99.3,29.4,151.2c1.9,92.9-28.9,184.9-153.7,211.5c-130.9,27.9-263.7,39.2-396.6,48.5
			c-186.3,12.9-372.5,10.4-558.1-12c-72.3-8.7-144.9-18-213.1-45.1c-105.1-41.8-165.4-121.2-185.1-231.4
			c-8.5-47.4,17.5-87.4,63.2-102.9c16.2-5.5,33.2-8.7,49.8-13c48.4-12.3,67.4-36.5,67.9-86.6c0.3-28.4-6-55.8-13-83.2
			c-3.5-13.7-9.4-13.7-20.4-10.1c-31.4,10.3-63.1,19-95.7,24.6c-8.9,1.5-16.5,5.1-23.3,11.8c-68.4,67.7-117.5,146.9-140.8,240.7
			c-21.5,86.4-7.9,164,61.9,225.5c32.7,28.8,69.6,51.4,109,69.9c114.9,54,235.4,87.3,361.9,98.5c198.8,17.6,398.1,15.6,597.2,12.3
			c119.7-2,238-21.9,356-41.4c60.6-10.1,119.1-27.9,171.1-62.4c63.2-41.9,92.4-100.2,82.9-176c-8.5-68.4-35.4-129.5-78.1-183.5
			C2129.9,2207.7,2105.3,2184.4,2074.9,2166.5z M1093.8,1061c24.6-32.6,52.3-60.3,80.6-87.2c4.3-4.1,6.9-7.3,2.2-13.5
			c-38-50.2-43.2-108.7-41.4-168.6c0.4-13.2-4.5-14.3-15.5-13.8c-49.5,2.3-99,0.6-148.5-1.9c-49.7-2.6-99.5-4.1-149.2,2.7
			c-118.9,16.1-184,75-211,190.9c-12.5,53.8-16.8,108.6-22.3,163.3c-6.7,67-13.7,134-10.4,201.7c3.1,62.6,10,124.7,18.4,186.7
			c5.5,40.2,13.5,80,27.7,118.2c2.8,7.6,4.8,19.4,12.2,20c9.4,0.7,11.9-11.6,15.7-19.1c17.5-35.4,27.4-73.1,34-111.9
			c11.2-66.1-4.4-130-15.2-194.3c-9.4-56.2-24.6-111.7-21.9-169.3c4.2-87.2,38.4-156.1,123.5-190.2c55.9-22.4,115.2-25.8,174.6-21.1
			c36.7,2.9,68.5,18.8,96.5,42.7C1064.5,1013.8,1078.7,1036.2,1093.8,1061z M1931.6,1785.2c-6.9,36.5-12.3,69-19.5,101.2
			c-3.2,14,0.8,19,14.1,22.4c35.4,8.9,71.4,14.2,107.3,20.3c86.6,14.7,171.2,9.1,252.6-26.6c46.8-20.5,80.7-53.7,100-101.1
			c20.6-50.5,23.6-102.9,13.1-156c-18.2-91.7-107.4-171.4-198.7-177.5c-64.7-4.3-111.8,25.4-142.2,80.2
			c-31.4,56.5-36.4,115.8-0.6,172.4c31.2,49.2,124.5,64.6,171.5,31c48.9-34.9,44-102.3-9.6-129c-10.5-5.2-21.5-9.2-33.3-10.5
			c-9.5-1.1-11.7-5.8-11.2-15.3c2.1-41.7,2.1-41.9,42.4-29.2c14.5,4.6,28.1,10.9,40.9,19.3c53.3,34.9,69.5,94.4,41.3,151.5
			c-13,26.3-32.1,47.9-52.6,68.4c-71.5,71.4-162.8,85.4-243.7,49.6C1971.7,1842,1949.4,1817.5,1931.6,1785.2z M1543.9,986.8
			c2.2-12.3,3.3-19,4.5-25.7c10.1-57.5,53.6-86.9,111-75.4c34.9,7,62.5,28.1,90.7,47.2c33,22.3,66.4,24.4,101.5,8.4
			c24.9-11.4,49.3-24.2,73.5-37c9.5-5,19.4-7.6,29.7-6.7c39.9,3.5,79.6-1,119.4-2.7c14-0.6,14.8-5,13-17.2
			c-20.1-134-132.5-232.9-269.3-236.5C1637.6,636.6,1498,808.8,1543.9,986.8z M2127.5,1817.5c-77.7-16-122.9-60-139.3-134.1
			c-6-27.1-5.8-54.4-1.8-82c14.3-100.4,94.8-180.4,192.6-184.5c85.4-3.5,154.1,36.3,209.8,97.9c63.4,70.1,76.2,154.9,61.3,245.1
			c-13.5,81.6-55.2,145-130,182.1c-86.2,42.8-178.3,53.7-273.2,40c-52.1-7.5-104.3-15.2-156.1-31c2.7,11.3,9.5,17.3,15.3,23.9
			c31,34.5,72,46.6,116.1,50.8c59.4,5.6,117.9-3,176.2-12.8c83.9-14.1,159.9-46.5,222.6-104.4c78.2-72.1,113.4-163.8,112.9-269.4
			c-0.3-67.7-12.3-132.9-51.2-190.2c-74.3-109.6-217.6-153.2-350-105.8c-93.6,33.5-153.3,96.5-166.7,198.1
			c-8.6,65.5-3.7,130.6,6.6,195.2C1983.3,1803.2,2061.1,1844.2,2127.5,1817.5z M849.4,2508.9c3.7-1.4,7.6-2.6,11.4-4.2
			c188.2-82.5,316.6-220.4,384.9-414.3c4-11.3,3.2-15-10.3-15.5c-48.7-1.8-97.5-3.7-146-8.5c-21.1-2.1-29.4,5.1-37.9,23.2
			c-61.6,129.8-148,240.5-259.8,331.1c-13.3,10.8-27.2,21-40.5,31.8c-3.6,2.9-11.5,5.9-3.3,12.1
			C778.1,2487.2,812.7,2499.8,849.4,2508.9z M940.8,2525.5c71.9,13.4,143.6,19.8,215.4,24.6c8.2,0.5,14.3-2.4,20.2-7.8
			c77.5-68.9,140.5-148.6,180.4-245.2c26.2-63.4,40.6-129.5,43.6-198.1c0.5-10.7-1.4-16-14.1-16c-21.9,0-43.9-1.7-65.8-4
			c-14.2-1.5-19.8,3.7-24.2,17.3c-44.1,136.9-121.4,251.5-232,343.6C1026,2472.1,984.1,2499.3,940.8,2525.5z M1238,2555.6
			c41.7,0,78.1-2.9,113.9,0.8c39.9,4.1,63.7-12.4,87-43c92.3-121.9,144.8-257.9,155.6-410.3c1.2-16.5-2.9-23.1-20.5-23.7
			c-33.7-1.3-67.1-7-99.9-14.6c-17.6-4.1-22.2-0.5-22.6,17.7c-3.2,166-64,309.1-174.5,431.9
			C1265.8,2526.7,1253.9,2538.7,1238,2555.6z M1474.3,2549.5c24.8,0,47.3,0.8,69.7-0.2c69.1-3,69.3-3.2,112.6-57.6
			c89.5-112.4,135.3-240.7,140.4-384.1c0.6-16.6-4.5-20.5-20.5-20c-37.8,1-75.7,0.6-113.4-1c-14.9-0.6-18.5,4.5-19.1,18.3
			c-3.3,81.8-21.6,160.4-50.7,236.7C1564.7,2416.5,1524.5,2485.1,1474.3,2549.5z M1685.3,2537.9c34.9-3.7,64.8-7.5,94.9-9.8
			c18.3-1.4,31.5-9.9,44.1-22.6c64.9-65.6,112.2-141.8,142-229c16.5-48.3,26.3-98.1,28.7-149c1.7-35-20.7-55.6-50.8-51.2
			c-24.4,3.5-49,6.8-73.5,7.3c-18.9,0.4-23.6,7.2-24,25.5c-2.7,140.6-46,268.2-126.6,383.2
			C1709.9,2506.5,1698.8,2520.2,1685.3,2537.9z M1008.8,2061.8c-46.9-2.5-90-5.6-133.2-6.8c-14.8-0.4-34.1-9.7-43.2,0.6
			c-8.7,9.9,0.5,28.8,1.2,43.8c3.6,75.1-32.3,124.7-105,144.1c-13.2,3.5-26.8,5.8-40,9.6c-30.5,8.8-39.9,23-36.7,54.8
			c3.7,36.7,22.2,67.3,40.9,97.9c8.8,14.4,15.2,16.5,29.5,5.5c62-47.3,119-99.7,168.1-160.4
			C936.8,2193.5,976.2,2131.9,1008.8,2061.8z M1940.4,954.1c-16.4,8.3-31.7,15.6-46.7,23.6c-15.2,8.1-31,14.8-47.7,19.2
			c-45.4,12.1-86.9,3.2-125.6-22.6c-23.3-15.5-45.3-33.8-74-39.4c-25.5-5-43.3,7-47.9,32.4c-10.9,60,23.3,119.9,81.6,138.6
			c68.4,22,136.9,18.5,204.4-4.8c31.7-10.9,50.6-33.7,57.7-66.9C1947.9,1007.9,1944.1,982.3,1940.4,954.1z M810.1,1995.4
			c17.7,7.8,490.4,31.5,522.1,32.6c-35.1-15.6-66.3-29.3-96.1-46.1c-43.8-24.7-89.2-45.5-137.7-59.4c-18-5.1-34.9-13.6-48.3-26.7
			c-8.7-8.5-15-7.6-24.7-2.1c-52.7,29.7-107,56.1-162.8,79.7C846.3,1980.1,830.1,1986.9,810.1,1995.4z M1679,1161.6
			c1.6,1.3,3.1,2.8,4.9,3.7c172.2,88.9,377-19,403.8-207.5c1.6-11.2-2.4-13-12-12.2c-17.1,1.3-34.3,2-51.4,2.6
			c-30.8,1-30.7,0.9-29.5,30.7c0.4,8.9,0.6,17.9,0.7,26.8c0.2,76.3-37.9,127.8-111.2,149C1817.1,1174.1,1749.2,1176,1679,1161.6z
			 M1887.8,2511.7c29-4,52.1-10,75.3-16c50.1-13,76.8-47.5,89-95.6c3.9-15.4,5.7-31.1,5.7-46.9c0-44.7-6.1-88.3-23.2-134.4
			C2009.5,2330.1,1962.2,2425.4,1887.8,2511.7z"/>
		<path class="st0" d="M1796.7,364.5c-0.2-62.1,49.7-113,111.8-113.9c61.7-0.9,114.6,51.8,114.2,113.8
			c-0.4,61.5-51.8,112.9-113.1,112.9C1847.9,477.3,1797,426.4,1796.7,364.5z M1911.9,302.4c-35.3-1-63.8,25.6-64.5,60.3
			c-0.7,33.6,26.6,62.5,59.9,63.3c35.3,0.9,63.7-25.8,64.3-60.8C1972.2,330.7,1946.3,303.4,1911.9,302.4z"/>
		<path class="st0" d="M2165.6,275.2c48.9,0.5,88.9,41.7,87.8,90.3c-1.1,49.2-41.6,88.1-90.8,87.2c-50-1-86.7-40.8-85.9-93.2
			C2077.5,313.1,2118,274.6,2165.6,275.2z"/>
		<path class="st0" d="M1618.5,499.5c-49.5-0.1-89.6-40.6-88.8-89.5c0.9-48.5,40.4-87.4,88.9-87.4c49.5,0,88.7,39.8,88.3,89.7
			C1706.4,461.2,1667.6,499.6,1618.5,499.5z"/>
		<path class="st0" d="M2412.8,540.3c-0.4,48.9-39.3,87.4-88.3,87.3c-49.5-0.1-89.7-40.5-88.8-89.4c0.9-48.6,40.2-87.3,88.8-87.4
			C2374.2,450.7,2413.2,490.3,2412.8,540.3z"/>
		<path class="st0" d="M1089.6,1264.7c0.1-62.7,50.4-113.1,112.7-112.9c62.3,0.1,112.4,50.6,112.3,113.2
			c0,62.8-49.9,112.7-112.6,112.6C1139.3,1377.5,1089.5,1327.4,1089.6,1264.7z M1140.3,1264.6c-0.1,34.9,28,63.2,62.5,62.8
			c33.8-0.4,61.2-28.1,61.4-62c0.2-35.1-27.4-63.6-62.4-62.3C1165.5,1204.5,1140.9,1224.7,1140.3,1264.6z"/>
	</g>
</g>
</svg>
