<?xml version="1.0" encoding="utf-8"?>
<!-- Generator: Adobe Illustrator 23.0.0, SVG Export Plug-In . SVG Version: 6.00 Build 0)  -->
<svg version="1.0" xmlns="http://www.w3.org/2000/svg" xmlns:xlink="http://www.w3.org/1999/xlink" x="0px" y="0px"
	 viewBox="0 0 3000 3000" style="enable-background:new 0 0 3000 3000;" xml:space="preserve">
<style type="text/css">
	.st0{stroke:#000000;stroke-width:10;stroke-miterlimit:10;}
</style>
<g id="Layer_1">
</g>
<g id="Layer_2">
	<g>
		<path class="st0" d="M1415.3,1450.6c-4.9-9.6-14.1-11.5-21.2-15.9c-80.4-50.8-134.8-125.1-186.1-202.8
			c-73.3-111.3-131.8-228.7-159.3-360.2c-19.1-91.1-26.4-183.2-23.2-275.9c3.4-98.8,3.8-198.1,25.2-295.5
			c15.8-72.2,40.9-139.9,93.2-194.7c41.2-43.2,90.6-64.7,151-62.6c104.8,3.6,209.6,3,314.4-1.2c55.6-2.3,111.6-1.4,166.7-8
			c124.7-15,188.3,63.8,220.8,151.2c25.5,68.6,32.7,140.6,34.2,213.1c1.6,75.9,5.7,151.7,5.1,227.6
			c-2.1,271.9-98.8,508.8-265.4,719.6c-36.1,45.7-82.2,80.9-136.9,108.4c120.9,75.4,181.9,196.7,249.3,312.2
			c68.5,117.4,111.9,244.6,128.8,379.2c21.2,168,31.8,337.2,10,505.9c-16.1,124.3-77.6,219.7-197.5,269.4
			c-55.3,22.9-114.3,30.2-173.6,34.4c-89.4,6.4-178.6,13-268.2-0.3c-141.9-21-257.9-106.1-291.2-276.8
			c-27.9-143.1-51.6-287.6-48.6-434.1c5.2-257.3,94.8-485.2,249.6-688.6C1325.5,1511.6,1366.2,1475.8,1415.3,1450.6z M1544.8,2457.1
			c74.4,0,148.9,0,223.3,0c64.3,0,128.6,0,192.9,0.1c9.8,0,18.5,0.9,17.9-14c-4-106.1-5.8-212.2-23.1-317.4
			c-31.5-191.5-120.3-356.9-231-512.4c-30.7-43.1-66.7-81.5-112.2-110.1c-52.7-33.1-107.3-35.6-163.2-10.6
			c-46.5,20.8-83,55.2-114.6,94.1c-107.8,133.2-172.8,287.3-214.5,451.9c-33.7,133.1-29.1,267.7-11.8,402.5
			c2.3,17.6,12.6,15.8,24.3,15.8C1270.2,2457.1,1407.5,2457.1,1544.8,2457.1z M1532.1,484.2c-142.4,0-284.9,0.3-427.3-0.4
			c-18-0.1-23.9,5.1-23.3,22.9c0.7,22.3-1.2,44.8-2.1,67.2c-3.9,96.4,1.8,192,21.3,286.7c31.9,155.1,109.6,287.8,201.8,413.2
			c34,46.2,73.4,87.6,123,117.8c68.7,41.7,138.1,41.5,207.4,1.9c30.3-17.3,57.5-39.1,80.7-65.1c128-142.8,203.8-312.3,248-496.6
			c25.5-106.2,21.8-215.3,21.5-323.7c-0.1-20.9-7.2-24.4-26-24.3C1815.6,484.5,1673.9,484.2,1532.1,484.2z M1550.8,2510.1
			c-137.3,0-274.6,0.3-411.8-0.4c-16.6-0.1-21.4,3.9-18.4,20.5c5.4,29.8,8.6,60,13.6,89.9c10.3,62.3,24.6,123.7,64,175
			c53.6,69.7,128,101,213.2,109.6c107.8,10.8,215.2,3.1,321.6-14.2c116.9-19,195.9-84.1,226.9-200.9c13.7-51.8,17.6-105.2,20-158.7
			c0.8-17.4-4.7-21.3-21.5-21.3C1822.5,2510.4,1686.6,2510.1,1550.8,2510.1z M1532.7,431.2c141.7,0,283.3-0.3,425,0.4
			c18.4,0.1,23.9-5.1,21.9-23c-4-35.9-4.9-72.1-9.9-107.8c-6.5-47.3-16.9-93.9-39.8-136.5c-30.2-56.3-75.9-84.8-141.5-78.9
			c-99.3,9-199,11.7-298.7,12.6c-73.7,0.7-147.4-0.1-221.1-0.3c-17.1-0.1-32.4,5.3-47.2,13.6c-49.6,27.8-76.5,73.2-96.2,124
			c-21.5,55.7-29.8,114.2-37.7,173c-2.5,18.5,1.3,23.3,20.2,23.2C1249.4,430.8,1391,431.2,1532.7,431.2z"/>
	</g>
</g>
</svg>
