<?xml version="1.0" encoding="utf-8"?>
<!-- Generator: Adobe Illustrator 23.0.0, SVG Export Plug-In . SVG Version: 6.00 Build 0)  -->
<svg version="1.0" xmlns="http://www.w3.org/2000/svg" xmlns:xlink="http://www.w3.org/1999/xlink" x="0px" y="0px"
	 viewBox="0 0 3000 3000" style="enable-background:new 0 0 3000 3000;" xml:space="preserve">
<style type="text/css">
	.st0{stroke:#000000;stroke-width:10;stroke-miterlimit:10;}
</style>
<g id="Layer_1">
</g>
<g id="Layer_2">
	<g>
		<path class="st0" d="M2798.7,1496.3c2.9,176.1,5.2,352.1-10.6,527.9c-33.2,369.3-214.3,644.5-526.7,837.8
			c-106.1,65.7-225.3,80.7-345.9,85.5c-223.4,9-446.5-1-669.5-16c-158.5-10.7-317.2-17.3-475.3-34.4
			c-57.6-6.2-114.7-15.5-171.5-27.1c-134.5-27.6-208.3-119.6-255.6-239.5c-40.6-103-54.8-211.5-63.1-320.9
			c-15.5-203.8-6.8-407.8-3.7-611.8c3-201.9,9.7-403.7,24.2-604.9c11.5-159.1,29.1-317.9,63.5-474.7
			c40.7-185.7,159.2-304.5,318.7-390.1c122.5-65.7,255.1-101.6,393.1-114.4c308.6-28.5,615.9-15.1,920,44.6
			c192.6,37.9,372.3,108.9,526.7,234.7c143.2,116.7,226.4,264.3,246.4,450.3c21.3,198,20.2,396.6,29.1,595
			C2799.4,1457.6,2798.7,1477,2798.7,1496.3z M2745.3,1461.3c-8.3-198.4-8.7-397-27.1-595.2c-18.1-195.3-107.2-344.5-263.5-458.5
			c-119-86.8-251.9-142.2-393.1-178.7c-268.6-69.4-543.1-78.1-818.3-73.2c-170.6,3-338.7,25.7-494.7,100.4
			c-144.9,69.5-269.9,160.7-316.8,326.2c-11.1,39.1-21.5,78.7-28.9,118.6c-34.7,187.2-48.9,376.7-57.5,566.6
			c-5.2,114.8-8.8,229.6-12.8,344.5c-0.5,13.3-3.9,26.6,16.4,32.1c111.5,30.4,216.4,31.2,306.4-56.5c26.1-25.4,57-46.5,94-53.7
			c47.1-9.2,92.9-7,128.4,30.9c33.1,35.3,28.4,78.1,13.8,118.3c-36.6,100.8-104.9,173.6-204.1,215.4
			c-104.1,43.9-212.1,50.1-322.1,27.6c-39.8-8.1-39.7-8.7-39.7,33.3c0,106.3-1.7,212.7,6.5,318.8c8.9,114.7,21.6,228.4,63.4,337.1
			c46.3,120.4,127.1,193.7,258.8,211.5c134.2,18.2,268.6,31.1,403.6,39.9c260.4,16.9,520.9,33.6,782.1,29.9
			c80.6-1.1,161.1-5.7,240.2-21.9c122.8-25.1,224.4-91.5,314.2-174.5c186.6-172.3,309.1-379.5,335.6-637.3
			C2750.4,1862.8,2751.7,1662.2,2745.3,1461.3z M328.3,1779.7c-0.3,0-0.6,0-0.9,0.1c0,17.2,1.8,34.5-0.4,51.4
			c-3.1,24,5.8,34.1,29.4,39c68.9,14.2,137.6,20.2,207.6,8.4c125.6-21.1,222.2-81,273-202.5c10.8-25.8,22.9-55.9-2.2-77.8
			c-25.1-21.8-58-21.4-88.3-7.7c-22.5,10.2-42.4,25.1-60.8,41.7c-79.4,71.2-171.2,98-276.7,79.5c-24.9-4.4-59.1-23.9-72.3-9.4
			C322.6,1717.9,330.2,1753.1,328.3,1779.7z"/>
		<path class="st0" d="M2078.9,1933.3c6.5-76.6,12.2-151.3,19.4-225.9c2-21.2-10.9-24-26-28.5c-191.7-57.3-382.8-55.8-573.1,6
			c-19.3,6.3-32.1,10.8-40.3-16c-6.9-22.5-0.6-28.4,19.1-34.8c198.7-64.4,398.3-67.5,598.9-10.1c19.8,5.7,27.7,6.4,28.5-18.7
			c1.6-54.7,5.1-109.5,11.6-163.8c3.8-31.5-8.7-45.4-36-56.6c-176.5-72.4-352.3-74.2-528.4,0.6c-13.5,5.8-26.5,18.9-39.2-5.3
			c-12.5-23.8-9-33.8,16-44.2c185.2-77.1,370.8-80.2,557.4-6.2c32.5,12.9,32.3,13.4,32.3-21.8c-0.1-53.8-3.1-107.2-14.7-160
			c-4.2-19-12.6-32.7-30.1-42.4c-157-87.2-313.3-87.1-467,6.3c-27.1,16.5-31.4-1-42.7-14.6c-17.1-20.4,2.5-25.3,13.9-32.3
			c131.2-79.2,270.3-97.9,417.4-53c13.2,4,26.2,8.7,41.6,13.9c-0.2-10.6-7.2-15.6-12.3-21.1c-75.6-80.8-162.6-142.7-273.4-165.5
			c-65.9-13.6-127.5,0.5-187.2,27.8c-85.6,39.2-172.9,63.9-268,38.3c-90.4-24.4-125.4-91.2-94.6-180.1
			c20-57.6,58.2-99.6,108.3-131.6c226-144.3,658-165.9,899.6,93.8c129.6,139.3,203.5,303.6,204,496.8c0.4,185.8,6.8,371.7-2.4,557.3
			c-5.4,110.3-14.1,220.5-27.8,330.4c-21.8,174.8-112.1,306.6-252.9,404.9c-153.4,107-322.4,160.5-510.9,123.7
			c-112.4-22-187.7-93.9-240-192.5c-6.5-12.2-11.2-25.7-14.7-39.1c-19.4-75.1,16.2-125.4,93.5-130.5c77.9-5.1,153.5,14,230.1,23.2
			c67.5,8.1,134.8,12,201.8-3.2c17.6-4,35.1-8.8,54-20.2c-67.7-52.6-141.6-83.7-221.7-101.2c-88.5-19.4-177.2-18.9-264.3,6.6
			c-30.7,9-25.5-12.7-32.2-27.1c-10.1-21.6,5.2-22.4,19-25.8c188-45.9,361.5-13.7,521,95.6c33.4,22.9,36,22.6,55.9-14.2
			c28.1-51.9,37-109.2,45.6-166.7c3.2-21.2-14.2-21.6-25.7-26.3c-181.1-74.8-361.5-72.8-539.9,8.3c-24.6,11.2-34.6,7.1-45.5-15.8
			c-7.7-16.1-3.9-21.6,10.5-28.5c88.2-42.5,181.3-65.9,278.9-70.7c107.6-5.3,211.5,12.7,311.2,54
			C2063,1929.1,2069.2,1930.4,2078.9,1933.3z M2360.1,1457.7c0-96.7,0.1-193.4,0-290c-0.1-60.7-11-119.5-31.1-176.7
			c-65.2-185.9-176.4-330.7-365.6-403.7c-112-43.2-228.7-53.1-347.4-39.8c-82.7,9.3-162.2,31-236.7,68.8
			c-37.5,19-74.3,40.3-99.3,75.1c-25.5,35.5-46.8,76.2-29.2,119.9c17.3,43,62.6,43.3,101.7,49c62.3,9,118.4-12.3,174.1-36
			c46.4-19.8,93.3-38.4,144.5-42.1c111-8,206.5,32.7,293.4,96.4c111.4,81.6,192.9,182.2,204.3,327.5c7.7,97.9,3,195.4-2.9,292.9
			c-7.7,127.5-18.7,254.7-29.4,382c-7.1,84.5-15.8,168.8-39.3,250.9c-28.3,98.5-94.6,155.6-192.4,178.4
			c-56.9,13.3-114.6,14.9-172.9,10.3c-85.6-6.7-169.4-29.1-255.7-29.2c-60.2-0.1-79.1,27.4-52.8,82.5
			c42.6,89.3,107.7,154.2,208.7,174.9c107.6,22,212.2,7.8,312.4-33.1c208.9-85.2,358-222.7,386.6-460
			C2355,1857,2366,1657.7,2360.1,1457.7z"/>
		<path class="st0" d="M1292.6,1472.3c0,106.1-86.5,192.8-192.2,192.8c-105.5-0.1-192.8-87.5-192.6-192.9
			c0.2-105.8,87.1-192.7,192.8-192.7C1206.4,1279.3,1292.6,1365.9,1292.6,1472.3z M1103.3,1334.6c-76.9-2-138.2,55.7-140.8,132.3
			c-2.6,78.4,55.4,140.7,133.4,143.4c76.5,2.6,140.7-57.5,143.5-134.5C1242.3,1399.7,1181.4,1336.6,1103.3,1334.6z"/>
		<path class="st0" d="M991.4,1846.2c107.1,0.7,192,86.2,191.2,192.8c-0.7,106-88,192-193.9,191c-106.2-0.9-192.6-88.2-191.6-193.6
			C798.2,1930.1,884.6,1845.5,991.4,1846.2z M991.1,2175.2c76.1-0.3,136.8-60.2,137.8-136.2c1-75.8-62.2-139.8-138.4-140.2
			c-76.7-0.4-138.8,61.9-138.7,139.2C852,2115.9,912.3,2175.4,991.1,2175.2z"/>
	</g>
</g>
</svg>
