<?xml version="1.0" encoding="utf-8"?>
<!-- Generator: Adobe Illustrator 23.0.0, SVG Export Plug-In . SVG Version: 6.00 Build 0)  -->
<svg version="1.0" xmlns="http://www.w3.org/2000/svg" xmlns:xlink="http://www.w3.org/1999/xlink" x="0px" y="0px"
	 viewBox="0 0 3000 3000" style="enable-background:new 0 0 3000 3000;" xml:space="preserve">
<style type="text/css">
	.st0{stroke:#000000;stroke-width:10;stroke-miterlimit:10;}
</style>
<g id="Layer_1">
	<g>
		<path class="st0" d="M1503.1,631.6c-34.9,53.8-67.7,104.5-101.4,156.5c12.4,5,21.9-1.9,31.6-2.7c53.4-4.4,103,5.4,147.2,37
			c7.7,5.5,12,8.1,18.9-1.8c68.1-97.6,219.5-123.6,329.4-74.4c21.1,9.4,29.3,8.6,39.8-14.4c32.4-70.8,90.4-104,168-106.5
			c129.3-4.1,258.5-12.5,387.9-9.8c83.7,1.8,161.1,22.7,230.3,71.1c20.5,14.3,41.5,27.9,62.6,41.4c39.3,25,80.6,44.9,128.5,45.7
			c11.3,0.2,15.5,4.3,16.5,15.5c1.1,11.2-2.6,15.6-13.3,18.2c-18,4.3-35.9,9.5-51.5,20.3c-36.4,25.2-35.8,59.7,1.6,83
			c13,8.1,26.1,16,38.9,24.5c12.5,8.3,20.8,20.2,25.7,34.4c7.4,21.6-2.9,47.9-22.5,58.4c-18.9,10-38.7,3-53.5-18.9
			c-2.7-4-4.9-8.4-7.6-12.4c-5.7-8.4-8.9-21.1-22-19.5c-12.9,1.6-21.4,11.1-26.3,22.8c-4.4,10.4-7.7,21.2-11.3,31.9
			c-7.6,22.3-19.7,40.8-42.4,50.1c-7.8,3.2-12.3,5.8-6.4,15.5c53.3,87.5,62.4,186.2,67.3,284.6c10.7,215.2-27.6,421.5-120.9,616.6
			c-9.7,20.3-29.5,38.9-30.9,59.3c-1.4,20.8,24.4,35.6,35.4,55.2c85.1,151.7-0.7,343-167.8,372.8c-70.5,12.5-116.8-16.4-137.4-85.8
			c-0.6-2.2-2.1-4.1-5.3-10.1c-42.5,86.1-119,111.2-204.1,123.9c-83.3,12.4-164.5,18.1-237.9-39.3c-6.2,30.6-24.1,50.1-49.5,62.8
			c-37.6,18.8-78.6,27-117.5,12.2c-63.7-24.2-115.8-15.8-170.2,27.6c-52.5,41.8-103.2,17.1-118.2-49c-5.7-25-6-51.5-21.6-76.2
			c-10.3,34.2-24.4,64.6-52.6,85.8c-75.9,57-158.8,57.2-244,27.1c-46.9-16.6-84.3-47.1-111.6-89.4c-9.6-14.9-19.8-29.5-30.3-43.8
			c-11.3-15.2-25.8-26.9-44.1-32.8c-15.7-5.1-26.3-3.2-32.6,16c-14.7,44.5-32.5,53.7-78.7,45.9c-7.9-1.3-16.2-2-23.6-4.8
			c-60.6-23.7-118-7.7-175.1,13.1c-16.9,6.2-33.2,14-41.3,31.5c-4.3,9.4-10.4,9.2-17.5,5.2c-8.4-4.7-3.6-11.2-0.7-16.7
			c12.2-23.1,33.5-34.4,57-42.1c14.6-4.7,29.8-7.5,44.5-11.8c40.4-11.7,60.1-35.9,65.1-78c4.4-37.5-4.3-74-7.5-111
			c-0.6-6.4-3-13-2.2-19.2c4.5-33.9,0.5-63.2-34.4-80.6c-7.6-3.8-11.4-13.7-7.7-23.5c4-10.6,12.6-14.3,23.2-13.4
			c8.8,0.7,17.5,2.5,26.3,3.7c50.6,6.5,91.6-11.6,125.4-48.8c8.1-8.9,5.7-14.5-2.2-21.9c-15.4-14.3-33.9-20.4-53.6-16.7
			c-99.6,18.7-140.9-54.5-140.7-133c0.1-56.6,0.7-113,9.4-169.3c7.8-50.8,29.4-97.1,45.3-145.1c30.6-92.6,63.9-184.3,96.1-276.4
			c9.6-27.5,20.8-54.2,37-78.7c23.8-35.8,52.7-63.5,99-66.7c-44.5-11.2-89.2-10.4-132.8-0.2c-166.8,39.2-274.2,139.2-306.2,310.8
			c-17,91.3-1.1,178.5,45.1,259.7c4.4,7.7,13.9,15-3.5,21.3c-90.5,32.9-147.3,100.4-182.2,186.7c-38.7,95.6-54.8,195.7-46.9,298.9
			c3.1,40.6,23.4,73.4,52.5,100.7c23,21.5,43.6,23,70.6,7.2c18.5-10.8,31.7-27.5,46.3-42.5c8-8.2,15.9-18,28.8-12.7
			c14.5,6,12.6,20,10.6,31.6c-10.6,63.3-39.8,117.8-85.4,162.3c-108.1,105.4-287,95.5-384.5-19.9c-27.5-32.5-44.2-70.4-48.1-112.1
			c-10.8-115.5-7.2-231,10.2-345.7c8.6-56.4,36.4-104.8,74.6-147.2c11.9-13.2,23.8-26.5,31.7-42.7c6.6-13.6,5.8-26-10.1-31.8
			c-64.5-23.7-85.4-76.5-87.3-137.9c-3.7-119.6-8.7-239.4-4.8-358.9c4.7-146.4,39.2-287.8,98-422.3c39.3-90,114.4-132.7,207.3-148.5
			c142.5-24.3,286-27.2,429.7-14.6c39,3.4,76.6,15,102.6,47.7c8.9,11.1,14.9,4.3,22.1-0.3c84.3-53.2,175.5-89.2,273.2-108.4
			C1321,620.4,1410,616.2,1503.1,631.6z M1044.7,1188c-45.3-17.1-74.2,5-98.2,37.7c-35,47.7-47.2,104.8-68.3,162.5
			c34.1-12.7,62.2-3.4,90.1,7.7c78,31,79.6,10.3,76.2,113c-1.3,40.5-7.6,80.4-34,114.2c-34.4,44-83.4,54.3-130.9,25.4
			c-26.3-16-49.9-35.5-71.3-62.1c-13.5,40.9-26.3,79.6-38.9,118.4c-4.5,13.9-1.2,19.1,14.8,15.4c17.2-3.9,35.1-6.9,52.8-7
			c63.9-0.4,119.1,15.8,143.4,83.6c3.1,8.7,7.2,8.5,14.4,6.5c39.3-10.8,72.1,2.8,99,30.2c48.4,49.3,57.2,110.4,45.9,175.5
			c-3.2,18.8-16.2,32.7-32.8,43.2c-16.9,10.6-35.3,17.1-54.5,18.8c-19.7,1.8-16.6,10-9.8,21.6c14.3,24.5,47.5,33.3,77.2,20.4
			c15.1-6.6,27.6-16.6,37.1-30.2c2.3-3.3,5.1-7,9.7-4.2c4.1,2.5,4.1,6.1,1,10.1c-19.2,24.8-42.5,41.8-75.4,41.9
			c-30.7,0-52.2-13.8-65-41.8c-5.5-12-71-21.7-79.6-11.6c-19.8,23.4-44,40-72.8,50.4c-30,10.7-60.5,9-91.9,4.2
			c0.8,2.6,0.9,3.6,1.4,4c2.9,2.7,5.9,5.5,9.1,7.9c141.9,109.3,300.9,181.2,476,218.3c7.8,1.7,19.9-1.4,17.9,13.3
			c-2.4,17.5-14.7,8.5-22.4,7c-85.9-16.9-168.6-44.1-248.6-79.8c-7.1-3.2-13.6-9.2-24.1-6.6c2.9,23.1,0.3,46.4-0.9,69.7
			c-0.3,5.7-2.3,10.1,7.4,10.5c39.7,1.8,62.8,29,84.4,58c7.3,9.8,11.7,22.2,23.1,29.7c11.5-37.2,29.7-50.2,68.5-49.4
			c29.3,0.6,57.5,7.9,85.8,14.6c30.1,7.2,60.4,11.9,91,3.1c31.9-9.2,51.8-33.9,47-64.1c-3-18.9,4.7-19.9,18.7-20.3
			c27.7-0.7,44.9,17.3,62.8,36c8.4-28,23.1-48.4,49-58.9c36.8-14.9,74.4-2.3,102.2,33.8c10.8,14,18.9,30.5,36.9,43.6
			c2.7-51.6,24.3-92.4,44-133.8c10.1-21.2,19.3-42.6,24.4-65.6c12.3-55.5-9.6-99.3-61.7-122.4c-33.7-15-69.1-16.5-104.7-10.9
			c-35.6,5.6-71,13-106.5,19.7c-60.4,11.4-119.4,12.2-172.1-26c-49.3-35.7-62.5-103.5-24.2-144.3c17-18.1,19.9-36.1,22.4-57.5
			c1.5-12.9-1.5-18.7-13.7-23.2c-25.9-9.6-49.6-23.7-70.7-41.6c-87.7-74.5-127.7-172.3-139.1-284.2
			c-15.1-148.5,66.6-298.7,199-365.2c8.9-4.5,16.1-10.3,23.3-16.8c69.4-63.2,148.3-108.5,241-128.1c148.5-31.4,272.2,32.8,332.6,172
			c22.4,51.6,36.1,106,54.2,160c8.7-8.1,9-18.4,11.6-27.3c27.8-92.9,63-181.8,135-250.9c11.3-10.8,2.9-12.5-6.4-13.9
			c-36.1-5.4-66.2,6.2-86.7,36c-9.4,13.8-16.9,14.1-28.8,6.2c-16.1-10.7-0.8-18.3,3.7-24.7c31.1-44.8,87.8-61.4,139.8-42.2
			c13.5,5,54.3-5.6,62.6-18.8c7.8-12.5-2.8-24.4-8-35.2c-52.7-111.2-144.2-177.9-258.8-210.4c-113.9-32.3-207.7,5.5-276.4,101.6
			c-10.2,14.3-14,2.8-19.6-1.9c-58.6-48.6-124.4-61.9-194.8-33c-72.7,29.9-106.1,88.2-106.9,166.1c-0.1,13.1,4.2,31.8-13.4,34.6
			c-17.7,2.8-17.9-17-23.3-28.9c-0.3-0.7-0.9-1.5-1-2.2c-0.8-22-15.5-21.1-30.7-18.1c-39,7.8-73.1,25.5-102.1,52.7
			C1065.5,1067.9,1042.3,1122,1044.7,1188z M595.5,826.9c-10.7-34.8-30.2-61.8-55.1-85.7c-9.6-9.2-19.5-12.5-32.8-10.4
			c-30.3,4.7-61,7-91.2,11.9c-84,13.8-154.2,49.2-190.4,131.6c-61.1,139.3-92.9,285.9-97.3,437.3c-3,103.3,2.9,207,5.3,310.4
			c1.4,59.5,13.9,111.5,78.8,136.3c25.8,9.8,30.5,37.1,18.6,64.6c-6.8,15.7-16.9,29.4-28.4,42c-43,47-72.7,99.9-80.6,164.6
			c-11.8,95.9-11.8,192-9,288.1c2.2,76.4,37,134.3,103.6,172.3c146.6,83.5,304.3,0.5,345.1-141.8c-6.2,4.7-11.2,8.5-16.1,12.2
			c-44.2,33.1-90.5,30.2-128.2-10.1c-35.4-37.9-56-82.8-57.1-135.4c-1.8-84.7,10.5-167.8,35.9-248.3c31.4-99.6,86-182.6,181.6-232.4
			c17.4-9.1,7.8-17.7,3.8-27.1c-48.4-111.8-50.1-224.5-4.4-337.1c64.1-157.9,235.7-263.1,406.6-251.1c41.6,2.9,40.7,2.5,58.2-33.7
			c38.3-79.2,100.2-127,188.8-137.4c11.7-1.4,24-3.8,31.3,14.6c4.9-49.9,21.5-91.1,56.7-121c23.5-19.9,39.3-44.4,55.5-69.3
			c23.7-36.3,47.2-72.8,70.9-109.4c-8.4-4.9-14.8-2.8-20.9-1.9c-84.9,12.1-167.9,31.9-248.2,62.4c-91.5,34.6-176,81-247.8,148.4
			c-35.6,33.4-62.3,71.5-68.9,121.7c-2.6,20-8.9,39.7-26.1,53.1c-16.4,12.9-35.1,17.6-49.9,0.8c-11.3-12.8-20.6-11.2-33.5-6.3
			c-19.7,7.7-38.1,17.5-55.2,30c-50.2,36.9-83.9,86.9-110.2,142.1c-71.5,149.6-106.5,307.6-107.5,473.3
			c-0.1,10.7,3.7,22.7-15.3,22.7c-19.7,0-14.7-13-14.8-23.1c-0.6-48.6,2.9-96.9,8.9-145.1c5.7-45.9,16.1-90.9,25.5-137.6
			c-14.9,8.5-26.9,16.9-40.2,22.5c-14,5.9-29,10.1-44,13.2c-84.7,18-137.7-24.6-139-111c-0.7-42.2,4.9-83.9,10-125.6
			c9.4-77.2,22.2-154,61.8-222.6C388.4,879.7,470.5,819,595.5,826.9z M1239.8,1274.2c9.3,2.9,17.2,4.7,24.7,7.7
			c39,15.2,49.8,56.4,23,88.9c-16.6,20.2-39.3,28-64.6,27.4c-13.4-0.3-18.4,3.3-18,17.5c2.9,106.3,57.8,232.5,198.1,272
			c101,28.5,204.4,31.4,307.4,14c76.3-12.9,136.1-51.3,162.6-128.3c13.5-39.1,19.3-80.2,14.2-121.6
			c-12.1-96.8-39.9-189.7-80.7-277.8c-33.7-72.8-92.7-117.2-174.1-126.6C1490.2,1030.9,1307.2,1136.7,1239.8,1274.2z M1219.3,1200.9
			c-6.5,5.7-13.3,11-19.5,17c-105,101.9-135.3,226.4-99.7,364.7c46.6,180.8,169.6,277.6,364.9,257.9c60.6-6.1,119.1-21.6,177.7-36.6
			c6.5-1.7,13.8-7.4,17.6,4.1c3.5,10.9-2.4,14.2-11.5,16.4c-25.1,6.2-49.7,14.1-75,18.9c-14.6,2.8-19,10.3-18.4,23.1
			c0.9,19.4,3.4,38.7,3,58c-0.6,35.2-1.4,35.5,33.5,45c10,2.7,20.6,4.7,31,4.8c25,0.1,48.7-7.3,57.2-32.5
			c14.8-43.9,22.1-89.4,7.8-135.5c-2.7-8.7-11.3-17.6,4-22.7c14.2-4.7,13.7,8.7,15.8,15c15.2,45.4,9.7,91.2-1.9,136
			c-10.5,40.2-38.3,59.6-80,60.6c-22.3,0.6-43.1-5.2-63.7-12.8c-7.2-2.6-14.4-7.7-22,0.4c-30.3,32.4-65.1,25.3-100.2,10.2
			c-9.2-4-15.7-6.7-26.2-0.7c-35.3,19.9-68.4,13.2-96.1-16.5c-13.3-14.2-20.4-31.8-27.4-52.2c-5,6-8.6,9.3-11,13.3
			c-27.1,44-5.7,98.3,48.4,122.7c49.3,22.2,99.6,14.5,149.9,4.7c51.5-10,102.6-22.3,155.8-17.4c71.4,6.6,123.8,55.1,127.5,119.9
			c1.6,28.7-5.2,56.2-16.6,82.5c-14.4,33.3-30.5,65.9-43.7,99.7c-13.3,34.1-16.7,69.4,2.7,102.9c5.8,10,2.3,14.6-5.4,19.2
			c-9.8,5.9-11.5-4.2-13.2-8.6c-16-42.1-56.6-64.4-80.3-100.8c-15.8-24.3-47-27.4-72.1-15.1c-22.9,11.3-39.7,40.3-29.7,65.2
			c17,42.2,26.8,85.9,38.3,129.5c7.8,29.7,32.4,39.2,61.4,28.5c9.7-3.6,19.9-8.2,27.4-15.2c49.2-45.8,104.2-54.5,165.6-28.6
			c5.1,2.2,10.8,3.2,16.4,4.2c43.2,7.8,84,3.1,118.9-26c17.9-14.9,21.4-36.5,10.2-51.8c-14.4-19.7-29.6-9.2-44.7-0.9
			c-40,21.9-55.7,20.7-92.1-8.6c-17.4-14-34.8-27.6-59.5-23.5c2.9,14,7.9,27.6,19.3,37.6c6.9,6.1,7.8,12,1.4,18.4
			c-8,8-13.2,0.5-18-4.4c-12.2-12.4-19.1-27.6-23.2-44.5c-9.3-38.5,2.5-73.5,16.8-108.2c6.8-16.4,14.5-32.4,21.1-48.9
			c23.7-59.1,22.7-118.1-1.5-177c-9.8-23.8-21.8-47.7-11-74.5c1.8-4.6,3-12.6,11.1-9.5c5.8,2.3,12.6,6.2,9.7,14.3
			c-8.3,23.1,2.9,42.4,10.8,62.6c16.3,41.3,22.9,83.6,17.6,128.2c-4.8,40.1-21.7,75.8-37.2,112.1c-8.3,19.3-16.1,38.7-18.3,59.9
			c-1.3,12.8,5.7,12.5,14.7,11.4c6.9-0.8,15,2.3,12.2-10.7c-5.4-25.2,3.5-48.2,15.5-69.4c24.7-43.5,30-89.6,23.3-138.3
			c-4.7-34.4-8.3-69-10.5-103.7c-1.8-27.1,1.9-53.6,24-73.2c4.3-3.8,10.3-11.1,16.3-4c4.1,4.9,7.5,12.5-0.7,18.9
			c-18.3,14.3-18.6,35.3-17.4,55.4c1.8,30.6,5.8,61.1,8.6,91.6c4.8,51,8.1,101.7-17.8,149.1c-20,36.7-33.8,71.4,4.1,108.5
			c19.1,18.6,36.1,29.5,59.8,17.1c14.6-7.6,28.8-16,44.7-20.4c-9.9-21.3-19.7-40.8-28.2-60.8c-9.4-22.1-12-45.2-7.6-68.9
			c5.7-30.8,29.1-55.8,57.8-61.9c29.7-6.3,54.8,5.2,73.2,35.1c10.1,16.4,18.3,34,27,51.3c19.4,38.5,49.5,65.3,88.7,82.3
			c77.9,33.6,175.8-17.3,179.7-106.9c1.3-29.8-2.3-60,7.8-89c2.8-8.1-1.6-9.9-8-10.9c-7.8-1.2-15.6-2.7-26.6-4.6
			c36.1,49.8,25.1,98.3,3.6,146.3c-13.1,29.4-36.4,44.6-69.3,43.3c-76.5-3.2-133.1-39.5-171.8-104.6c-10.6-17.8-14.6-37.6-11.5-58.4
			c4.6-31.2,33.8-57.1,63.3-56.4c30.6,0.7,50.8,23.6,53.5,60c1.3,17.7,1.9,35.7,5.7,52.9c3.3,14.6,14.6,25.8,30.4,19.1
			c14.6-6.1,6.3-19.4,2.6-29.5c-6.1-16.4-17.1-31.3-12.6-50.5c4.5-19.2,18.3-30.8,35.4-41.2c-56.3-23.5-110-45.1-163-68.4
			c-53.8-23.7-103.1-54-137.5-103.8c-56.8-82.3-41.4-170.8,40-228.8c2.1-1.5,6.3-2.1,4.5-7.7c-41.1-15.2-65.6-46.7-78.8-90.9
			c-43.7,48.9-97.6,75-158.6,85.6c-101.5,17.5-203.2,15.1-303.4-8.2c-160-37.2-258.2-162.5-260.8-326.9
			C1154.3,1337.6,1177.8,1267.9,1219.3,1200.9z M2131.4,2087.5c-2.6-18.8-4.6-33.8-6.7-48.9c-2.3-16.2-0.5-32.3,2.3-48.3
			c10.3-58.4,51.6-93.8,110.6-93.9c18.5,0,37.1,1.8,55.6,3.4c9,0.8,15.3,0.1,18.5-10.3c6.5-21.1,22.1-35,39.1-48
			c35.3-26.9,36.8-32.1,23.9-73.3c-13.1-41.8-7.2-57.6,29.4-81.3c6.5-4.2,18.4-7.3,15.7-15.9c-2.8-8.9-14.8-7.2-23.6-7
			c-50.1,0.9-100.3,1.7-150.4,2.9c-16.3,0.4-32.5,0.4-48.1-4.2c-23.9-7-39.9-28.1-38.9-49.7c0.9-21,19.7-41.2,43.5-45.7
			c9.4-1.8,19.3-1.7,29-1.5c25.9,0.5,51.7,2.6,77.5,2.1c48.3-1,91.5-16.1,125.6-51.6c32.5-33.9,40.1-75,22.2-113.6
			c-18.7-40.5-53.8-46.9-93.4-45.3c-27.4,1.1-55.1,2.7-82.4,0.5c-51.4-4.2-90.2-44.7-79.2-87.4c6.4-25,1.4-46.7,0.6-70.1
			c-1.7-46.8-1.1-93.8-1.4-140.7c-0.2-30.4,0.6-26.5-26.9-21.6c-44,7.8-75.5,34.1-100.6,65.7c-84.4,106.1-124.6,229.9-135.1,363.9
			c-2.2,28.1-2.1,55.9-8.2,83.9c-4.6,21.1-12.9,41.4-14.5,63.5c-3.5,47.3,19.3,94.6,53.9,100.6c16.9,3,23.5,9.2,23.4,26.6
			c42.3-16.1,84.9-20,127.5-23.9c7.2-0.7,16.2-5.7,20.9,5.1c8.5,19.5,0.2,33.9-21.1,36.2c-8,0.9-16.1,0.7-24.2,1.6
			c-47.9,4.8-94.3,14.1-133.4,45.2c-39.3,31.4-52,75.5-36.2,123.5c12.2,36.8,35.8,64.6,66.3,87.3
			C2034.2,2048.1,2081.7,2066.3,2131.4,2087.5z M2886.9,795.8c-51.4-16.5-93.6-43.6-133.8-73.3c-76.2-56.3-162-77.3-254.9-77.1
			c-123.7,0.3-247.1,6.6-370.7,12.6c-66.2,3.2-107.5,37-135.3,93.4c-7.3,14.8-6.6,22.9,9.3,32.6c75.8,46.1,135.4,106.9,165.9,192.4
			c3.2,9.1,6.8,11.8,17.3,8.7c22.4-6.5,45.3-12,68.4-15.4c99.2-14.6,198.4-7.2,297.3,2.5c65.2,6.4,126.5,25.9,176.8,71.2
			c24.3,21.9,48.7,15.7,61.1-15.7c5-12.7,8.8-26,14.7-38.3c11.2-23.5,27-42.5,55.8-43.6c27.1-1,39.3,18.5,50.7,38.7
			c0.8,1.4,1.6,2.8,2.5,4.1c4.1,5.8,7.6,14.6,16.5,9.1c6.6-4.1,7.2-12.4,5-19.7c-3.8-12.5-14.6-19.1-24.5-25.7
			c-12-8.1-25.3-14.4-37-22.9c-35.8-26-42.1-65.3-17.4-102.1C2862.4,815.8,2873.4,807.6,2886.9,795.8z M2155.3,2023
			c0.6,14.5,3.2,28.9,4.4,43.2c2.4,27.9,15.5,42.3,42.5,49.9c59.2,16.7,115.9,45,180.4,32.6c15.5-3,28.5,9.5,44.6,8.5
			c107.4-7.1,189.6-54.9,240.9-150.6c73.5-137.1,110.7-285,127.2-438.9c1.3-11.7-1.7-15.4-13.6-15.9c-67.8-2.6-135.6-5.5-203.3-9.2
			c-14.5-0.8-18.9,2.9-19.8,18.2c-2.5,45.1-5.8,90.1-13.9,134.8c-25.1,139-128.7,264.4-291.1,232.8
			C2190.2,1916,2156.2,1955.1,2155.3,2023z M2682.4,1518.2c0,0.7,0,1.5,0,2.2c32.3,0,64.6-0.5,96.9,0.2c12.5,0.3,19.5-2.1,20-16.6
			c3.6-111.9-0.4-223.1-36-330.5c-28.8-86.7-90.1-136.9-179.3-154.9c-36.6-7.4-73.6-10.3-110.6-12.2c-71.8-3.7-143.7-6.8-215.4,2.7
			c-17.4,2.3-26.7,7.1-25.9,28c1.8,50,0.4,100.2,0.9,150.3c0.5,43.4,10.7,53.8,54.6,55.2c21.8,0.7,43.6-1,65.4-0.6
			c104.1,1.7,174.9,56.7,199.1,154.6c7.6,30.7,10.1,62.3,8.8,93.7c-0.7,16.4,4.9,21.3,19.8,22
			C2614.7,1513.8,2648.6,1516.2,2682.4,1518.2z M756.1,1834.1c-2.6,28.7-1.7,54.5,1.1,80.3c7.4,67.5,37.5,93.1,105.1,89.6
			c27.9-1.4,55.8-1.4,77,20.3c29.2,29.9,62.7,35.9,103.1,28.1c65.6-12.8,84.6-33.3,79.7-100c-3.8-50.3-20.3-95-67.4-121.6
			c-27.4-15.5-48.5-13.4-71.8,8.1c-6.2,5.7-9.7,2.4-14.7,1.5c-8.2-1.5-6-7.3-6.2-13c-1.4-43.3-23.2-71.9-65.5-85.2
			c-41.6-13.2-83.1-6.3-124.5,1.8c-12,2.3-12.1,11.7-12.6,20.4C758,1788.6,757.1,1812.8,756.1,1834.1z M2343.8,1896.5
			c4.6,0,7.1,0.5,9.3-0.1c5.4-1.5,10.8-3.3,16-5.4c75.2-30.8,115.9-91,136.1-165.9c24.7-91.3,27.7-185.3,23.2-279.1
			c-2.4-50.8-18.4-98.3-59.6-133.3c-40.4-34.4-88.7-40.2-138.8-39.2c-26.7,0.5-53.7,4-79.3-4.9c-22.2-7.7-21.9,3.8-18.5,18.7
			c5.6,25.2,26.2,40.1,61.2,41.2c26.6,0.9,53.3-2.5,79.9-2.7c79.7-0.6,131.8,56,122.3,133.8c-5.2,42.5-28.8,74.9-63,99.5
			c-52,37.5-111.4,44.4-173.3,39.8c-14.5-1.1-29-2.6-43.5-2.2c-11.7,0.3-24.4,4.5-24.8,18.1c-0.5,15.3,12.9,18.6,25.5,20.1
			c5.6,0.6,11.3,0.3,17,0.2c50.1-0.9,100.2-1.7,150.3-2.9c17.1-0.4,34.1,0,49.5,8.5c18,9.9,24.1,23.7,16.1,44.3
			c-5.2,13.5-14.6,21.3-26.1,26.7c-22.4,10.6-27.5,25-19.3,48.8c18,52.5,12,69-32.1,104.2
			C2361.3,1873.2,2348.9,1879.9,2343.8,1896.5z M2666.8,2082.8c3.2,7.8,6.4,15.6,9.7,23.4c30.5,73,12.2,160.7-43.1,206.4
			c-46.6,38.5-103.7,27.6-132.9-25.3c-13.4-24.2-15.5-50.6-15.8-77.4c-0.1-8.3,3.1-20.8-11.9-16.8c-12.9,3.4-37.6-7.3-36,16.2
			c3.8,54.3-7.4,108-2,162c7.8,78.5,57.3,111.7,133.6,89.7c109.1-31.4,180.1-138.5,164.6-250.6
			C2726.1,2160.8,2706.4,2116.7,2666.8,2082.8z M1303.8,2562.2c24.5,2,54.5-4.4,82.9-16.4c44.3-18.7,74.9-50.1,83.1-99.2
			c4.6-27.7-5.3-50.9-27.1-68.6c-11.9-9.7-19.8-11.1-23.2,8.5c-6.8,38.6-33.1,59.3-69.7,68.5c-27.3,6.8-54.5,3.4-81.6-2.2
			c-28.4-5.8-56.2-15-85.4-16.7c-21.1-1.2-43.3-2.5-53,22.9c-8.8,23.2-1.5,40.8,24,58.9C1196.8,2548.3,1244.6,2562.8,1303.8,2562.2z
			 M1921.4,2263.4c-15.9,19.2-19.5,31.2-17.1,56.4c7.1,74.3,79.9,159.1,152.8,174.1c79.7,16.4,157.7,2.7,233.7-21.7
			c46.8-15.1,80.2-47.1,101.4-91.6c26.6-55.7,21.8-114.9,19.3-173.8c-0.5-12.3-11.8-8.5-19.1-8.4c-10.9,0.2-7.5,8-6.1,14
			c5.6,24,3.8,48.3,2.8,72.5c-4,93.9-52.7,151.2-143.3,169.1c-10.2,2-20.9,1.5-31.1,3.3c-112.5,19.5-219.5-33.9-269.9-135.7
			C1935.6,2302.9,1929.2,2283,1921.4,2263.4z M806.5,2420.5c36.1,7.2,70,13.8,103.9,20.7c24.2,4.9,38.6-5.6,46.1-28.1
			c13-38.8,18.2-78.4,14.9-119.3c-0.8-10.2-5.3-15.7-14.1-20.2c-42.4-21.7-83.2-46.3-122.7-73.1c-3.7-2.5-7.4-8-12.3-5.1
			c-5.6,3.3-4.3,10.2-3.9,15.6c1.8,20.9,3.6,41.8,6.6,62.6C832.2,2322.9,837.3,2371.8,806.5,2420.5z M2215.3,2353.2
			c21.1-0.9,38.8-6.8,49.4-25.9c13.2-23.7,20.5-49.3,21-76.2c0.4-24.5-8.3-46-29.6-60.4c-16.3-11.1-32.4-8.5-46.8,3.4
			c-13.3,11-12.4,24.5-5.6,39.4c5.3,11.6,11.3,23.1,12.1,36.5c1.8,32-23.5,49.3-52.7,35.5c-23.8-11.3-29.2-32.9-31-56.2
			c-1.3-16,0.3-32.2-4.7-48c-8.4-26.8-33.2-34.2-54.8-16c-19.5,16.5-23.9,42.4-8.7,70.5C2096.6,2315.7,2148.4,2346.8,2215.3,2353.2z
			 M2369,2259.2c2.2-16.4-2.7-32.2-4.8-48.1c-0.9-7.2-2.7-14.9-12-15.9c-11.8-1.4-12.7,8.7-14.6,15.8c-6.5,24.5-5.4,49.7-6.1,74.7
			c-1.6,63.9-34.7,106.6-92,130.1c-78.8,32.3-171.6-7.7-215.9-91.4c-8.7-16.4-16.2-33.5-25.5-49.5c-8.3-14.2-19.1-26.4-37.1-28.2
			c-12.2-1.2-20.3-0.5-15.3,16.7c20.5,71.6,61.2,126.6,130.3,156.5c68.7,29.7,139.2,25.4,208-0.4c42.2-15.8,67.2-48.5,76.6-93.1
			C2365.2,2304.2,2367.5,2281.8,2369,2259.2z M2651,2101.3c-11.3,9.8-20,18.4-29.7,25.5c-10.5,7.7-14.2,13.3-5.4,26.6
			c13.2,19.9,4.8,44.7-15.3,56.1c-20.4,11.6-45.6,3.9-57.8-18c-4-7.1-4-18.2-17.6-12.4c-9.7,4.1-19.7,5.8-19.2,20.3
			c0.6,16.9-0.4,33.7,3.6,50.5c7.3,30.1,21.6,55.3,53.3,62.8c32.4,7.6,56.7-10.5,74.5-34.7C2677.2,2223.4,2679.2,2165,2651,2101.3z
			 M518.4,1037c-34.1,51-63.4,100.7-77.4,158.3c-3.9,15.9,0.7,20.3,14.9,21.6c17.7,1.7,35.2,4.2,52.8,6.5c31.7,4.3,36.9,1,45.9-30.8
			c6.6-23.5,14.3-46.5,32.1-64.2c9.5-9.5,6.7-15.8-1.7-24C563.1,1083,541.8,1060.9,518.4,1037z M640.8,935.7
			c-25.6,0.6-90.8,47.8-99.9,71.4c-2.8,7.3,1.3,10.5,4.9,14.4c19.3,20.6,38.6,41.1,58,61.6c4.5,4.7,8.7,10.7,14.6,1
			c19.8-32.9,49.4-52,86.1-61.7c12-3.2,11.3-10.6,5.9-20.3c-12.8-23-30.6-41.3-50.3-58.2C654.6,939.2,649,934.3,640.8,935.7z
			 M1441.1,1885.1c-0.6-8.7,4.8-22.2-14.7-21.4c-34,1.4-67.7-1.7-100.9-9.5c-6.1-1.4-12.7-3.6-13.9,7c-3.6,31.8-4.6,63,14.5,91.1
			c29.2,42.9,78.7,39.6,102.5-6.6C1438.3,1927.1,1439.1,1906.9,1441.1,1885.1z M1535.1,1901c-1.7-48.1-1.7-48.1-49.1-41.4
			c-3.2,0.5-6.4,1.6-9.6,1.5c-11.7-0.2-14.5,5.7-14.3,16.7c0.6,28.3-2.4,56.2-16.6,81.5c-3.2,5.8-4.1,10.6,2.7,13.9
			c18.5,9,37.7,16,58.1,8c19.5-7.7,27.4-24.2,28.7-44C1535.8,1925.2,1535.1,1913.1,1535.1,1901z M496.6,1351.2
			c12.1-33.6,22.6-62.9,33.3-92.8c-24-3.5-47-6.4-69.8-10.5c-18.4-3.3-24.1,0.1-18.7,20.6C450.3,1301.6,477.5,1321,496.6,1351.2z
			 M708.5,943.5c12.9,18.1,26.4,35.2,34.7,55.5c2.9,7.2,5.8,11.1,13.9,7.3c7.9-3.7,4.3-9.1,2.5-14.2
			C750.8,967.3,734,950.7,708.5,943.5z"/>
		<path class="st0" d="M1432.1,999.6c-25.3,0.3-43.3-16.2-44.1-40.4c-0.6-19.1,7.4-31.1,27.8-31.3c34.3-0.4,54.9,13.9,54.7,37.4
			C1470.2,985,1454.2,999.3,1432.1,999.6z"/>
		<path class="st0" d="M1903.6,895.3c0.3,32.7-30.2,67.4-60.4,68.6c-25.9,1.1-60.3-37.2-61.3-68.2c-0.9-30.4,25.7-53.5,62-53.8
			C1878.6,841.6,1903.4,863.8,1903.6,895.3z M1845.5,853.7c-28-0.5-51.8,17.7-52.2,39.7c-0.4,21.7,28.3,56.7,47,57.3
			c26.1,0.9,49.7-24.8,50-54.4C1890.6,870.6,1873.3,854.1,1845.5,853.7z"/>
		<path class="st0" d="M294.5,1662.2c-29.2-34.4-55.4-70.6-73.4-112.2c-3.6-8.3-13.6-17.8,3.1-25.3c15.9-7.2,20.2,0.9,25.7,13.3
			c26,59.2,66.9,106.2,119.4,143.4c4.1,2.9,8,8.5,16.7,4.6c-33.4-27.2-61.7-57.6-84-93.3c-16.3-26.2-28.6-54.2-38.4-83.4
			c-3.8-11.3-0.3-16.6,10.2-19.1c9.4-2.2,16.2-2.2,19.9,10.2c13.7,45.2,36.1,85.6,69.5,121.5c2.8-10.5-4-15.2-7.4-20.9
			c-19.6-32.7-35.1-67.1-45.7-103.8c-2.7-9.5-5.6-16.2,7.9-19.6c11-2.8,17.7-3.8,21.5,9.6c18.3,64.1,51.9,119.3,96.8,168.6
			c9.8,10.8-3.9,27-7.2,40.6c-4,16.7-9.4,32.9,2.6,48.6c6.8,8.9,0.2,17-2.8,24.7c-4.2,10.7-11.4,2.1-15.9,0.5
			c-102.6-36.5-179.6-103.2-231.7-198.8c-4.9-9-9.1-16.5,4.2-23.4c12.9-6.7,17.9-2.4,23.6,8.9C230.1,1598,257.9,1633.7,294.5,1662.2
			z"/>
		<path class="st0" d="M170.9,1373.8c15.7-151.1,52.3-296.9,112.3-436.6c19.6-45.7,45.2-87.5,84.4-119.6
			c27.5-22.5,58.8-36.7,94.2-40.8c6.7-0.8,15.9-3.3,15,8.8c-0.6,8.5,5.1,20-10.7,22.1c-70.9,9.5-112.7,56.3-141.6,115.9
			c-64.2,132.7-99.8,273.8-119.2,419.4c-1.7,12.8-3.9,25.6-4.3,38.5c-0.5,13,0.1,23.3-19.1,21.5c-21-2-10.4-15.1-11.4-24.5
			C170.4,1377.1,170.7,1375.4,170.9,1373.8z"/>
		<path class="st0" d="M429,2413.5c17.2-0.8,30.1-1.3,43-2.1c7.2-0.4,12.5,1,14,9.5c1.8,9.7-4.2,10.5-11.1,11.4
			c-47.9,6.1-95.3,5.3-140.5-14c-52.7-22.6-78.3-66.5-85.4-120.7c-15.4-118.3,9.2-231.3,50.4-341.4c21-56.1,49.3-108.7,83.4-158.1
			c4.6-6.6,7-21,21-11c12.4,8.9,1.4,15.4-2.9,21.8c-83.8,125.1-129.2,262.7-135,413.3c-1.1,28.3,0.1,56.5,6.5,84.3
			c14.8,64.2,56.3,99.8,122.1,105.1C407.5,2412.6,420.4,2413,429,2413.5z"/>
		<path class="st0" d="M1856.3,2193.5c0.6-33.7-10.3-60.5-12.2-88.7c-1.8-26.2,1.8-51.3,12.4-75.3c2.8-6.3,4.8-14.5,15.4-9.1
			c8.6,4.3,9,9.2,5,17.3c-17.3,34.6-12.6,70.1-4.5,106.1c4.5,20.3,10.2,41,4.5,61.9c-1.3,4.7,3.6,16.7-10,14
			c-9.9-1.9-13.1-7.6-11.4-17.1C1856.2,2197.9,1856.3,2193,1856.3,2193.5z"/>
		<path class="st0" d="M1918.9,2082.1c-5.2,15.1,2.7,35.3,7.1,55.6c5.5,25.3-1.3,48-13.7,69.5c-2.6,4.5-5.3,13.5-14.4,7
			c-6.7-4.8-9.7-9.7-4.3-18c15.5-23.6,13.2-48.8,6.5-74.7c-4.3-16.4-6.8-33.6-0.1-50.1c2.2-5.4,3.8-14.5,12.1-12.2
			C1918.9,2061.1,1924.9,2066.8,1918.9,2082.1z"/>
		<path class="st0" d="M1971.8,2145.5c0.3,11.9-0.1,22.2-3,32.4c-2.1,7.3-4.7,11.6-12.9,10.2c-7.1-1.2-9.3-6.1-8.3-12.3
			c3.9-23.3,3.1-46.4-2-69.3c-1.6-7.5,1.5-10.1,8.2-11.1c7.3-1.1,12.2-0.5,13.4,8.6C1969.2,2118.3,1973.6,2132.3,1971.8,2145.5z"/>
		<path class="st0" d="M2042.8,805.2c-9.4-44.8,38.6-103.9,89.6-107.5c39.3-2.7,71.3,9.1,94.7,42c8.9,12.5,17.8,25.3,28.5,36.1
			c25.2,25.3,51.7,18.3,61.6-15.4c2-7,3.7-14,5.9-21c12.4-40.1,43.6-46.9,72.3-15.6c6,6.5,11.2,13.8,16,21.3
			c17.8,27.8,43.3,37.3,78.4,16.9c11.2-6.5,21.8-13.9,32.6-21c56.2-37.1,121.7-34.4,174.5,8.3c46.3,37.4,69,88.5,81.5,145
			c0.9,4.2,4.5,10.1-2.9,11.8c-9.5,2.3-7.3-5.9-8.5-10.8c-8.7-33.8-19.8-66.7-39.8-95.7c-32.4-46.7-75.2-74.5-134.4-72.5
			c-22,0.7-40.7,8.9-58.7,20.3c-14.3,9.1-28,19.5-42.9,27.3c-35,18.2-62.8,11.4-87.4-19.7c-8-10.1-14.9-21.5-24.5-29.8
			c-17.8-15.5-35.2-10.1-43,12.2c-3.7,10.6-5.7,21.9-9.5,32.5c-11.3,32-38,41.5-67.4,23.9c-15.7-9.4-26.1-23.9-35.9-38.8
			c-22.4-34.2-53.2-52.5-94.4-44.9c-42.8,7.9-66.5,36.8-76.4,78.2C2051.5,794.1,2053.5,802,2042.8,805.2z"/>
		<path class="st0" d="M2124.7,810c1.9,12,5.1,19.4-3,20.4c-7.1,0.9-7.4-7.4-8.2-12.3c-2.9-16.4,2.5-30.6,14.6-41.6
			c15.4-14,33.8-14.3,52.4-8.6c17.9,5.5,29.5,19.1,39.2,34.4c8.2,12.9,15.5,26.7,25.7,38c16.5,18.2,34.5,18.1,53.1,2.1
			c5.5-4.7,10.6-10,15.4-15.5c21.6-25.1,48.8-33.2,80.7-27.5c9.5,1.7,19.7,2.5,28.2,6.6c53.6,25.2,107.1,24.8,162.1,3.8
			c23.5-9,48.7-11.5,73.9-4.8c27.9,7.5,52.1,35,50.6,58c-0.2,3.9,0.6,8.6-4.7,9.6c-5,0.9-5.9-2.5-7.4-6.9
			c-14.3-44.4-37.3-57.6-86.3-50.3c-4,0.6-8,1.6-11.7,3c-63.1,23.9-124.8,25-188.1-2.8c-34.5-15.2-66.7-5.9-93.6,24.2
			c-35.5,39.6-66.7,35.2-95.4-9.7c-9.5-14.9-16.3-32-31-42.9c-14.4-10.7-30.3-15.9-47.6-7C2129.2,787.8,2123.7,800.5,2124.7,810z"/>
		<path class="st0" d="M2470.7,877.3c24.9-0.7,46.9,7.1,68.5,15.8c25.9,10.4,51.2,17.1,79.5,6c26.7-10.4,46.1,4.7,62.3,24.9
			c11,13.7,19.8,29.9,37.8,36.3c3.7,1.3,5.5,3.3,3.2,6.9c-1.8,2.7-4.2,4.8-8.1,3.9c-8.2-1.9-14.7-6.8-20.2-12.8
			c-8.1-9-15.9-18.3-23.1-27.9c-14.7-19.6-32.2-28.2-56.6-17.9c-20.4,8.6-41.4,6.4-61.5-1.5c-41.7-16.6-83.1-33.3-128.2-12.1
			c-4.2,2-8.1,1.2-9.4-3.7c-1-3.7,2-5.7,5.1-7.1C2436.5,880.8,2453.6,876.5,2470.7,877.3z"/>
		<path class="st0" d="M2247.6,932.7c-26.4-15.2-50.3-28.3-73.4-42.8c-3.4-2.1,1.9-6.3,6.2-6.8c15.4-1.7,62.9,28.7,67.1,42.8
			C2249.2,930.9,2246.7,933.2,2247.6,932.7z"/>
		<path class="st0" d="M2588.7,1918.6c-39.6,0.4-65.6-22.7-65.7-58.4c-0.1-42.4,35.9-75,83.4-75.4c43.7-0.4,73.5,23.5,73.9,59.4
			C2680.9,1884.9,2640.1,1918.1,2588.7,1918.6z M2590,1887.4c31.7-0.2,58.8-19.5,59.2-42c0.3-18.3-18.3-31.3-44.1-30.8
			c-27.6,0.5-50.4,20.5-50.8,44.4C2554,1878.8,2565.1,1887.6,2590,1887.4z"/>
		<path class="st0" d="M2666.1,1421.4c-45.8,0.9-77.3-19.5-83.2-53.5c-6.6-37.9,23.1-83.9,65.2-99.6c35.2-13.1,66.7-5.8,93,20.7
			c24.5,24.8,24.3,54.8,14,85.4c-11,33-38.6,43.1-69.7,46.8C2679.1,1422.1,2672.6,1421.4,2666.1,1421.4z M2669.9,1391.7
			c3.1-0.4,10.4-0.8,17.5-2.1c33.3-6,47.1-25.1,42.1-58c-3.7-24.6-30.4-41.3-59.1-37c-28.2,4.2-59.3,38.2-57.7,63.2
			C2614,1378.8,2634.6,1392,2669.9,1391.7z"/>
	</g>
</g>
<g id="Layer_2">
</g>
</svg>
