<?xml version="1.0" encoding="utf-8"?>
<!-- Generator: Adobe Illustrator 23.0.0, SVG Export Plug-In . SVG Version: 6.00 Build 0)  -->
<svg version="1.0" xmlns="http://www.w3.org/2000/svg" xmlns:xlink="http://www.w3.org/1999/xlink" x="0px" y="0px"
	 viewBox="0 0 3000 3000" style="enable-background:new 0 0 3000 3000;" xml:space="preserve">
<style type="text/css">
	.st0{stroke:#000000;stroke-width:10;stroke-miterlimit:10;}
</style>
<g id="Layer_1">
</g>
<g id="Layer_2">
	<g>
		<path class="st0" d="M2134.3,2268.5c-110.6,28.6-218.7,33.9-327.4,28.9c-21.9-1-26.2,7.2-28.9,26.6
			c-25.8,186.6-140.4,304.6-302.7,382.8c-125.5,60.5-261.6,76.1-398.4,83.8c-64.2,3.6-128.5,6.7-193,1.5
			c-97.5-7.9-179.1-78.8-196.6-172.8c-17.8-95.7,34.8-200.9,120.3-242.4c14.1-6.8,24.9-10.4,30.9,8c4.7,14.2,14.2,25.6-7.9,39.2
			c-75.3,46.7-107.8,114.8-93.3,184.2c16.3,77.8,70.7,130,160,132.5c194.9,5.6,389.9-0.7,570.4-88c124.7-60.3,216.1-153,252.1-291.3
			c16.9-64.6,14.4-62.2-48.5-75c-68-13.9-111.5-3.9-156,62.1c-82.4,122.1-215,176.6-355.5,209.1c-91.8,21.2-185.3,28.3-278.9,35.7
			c-22.3,1.8-27.4-6.2-29-26c-2-23.7,10.3-24.8,28.9-26.1c133.9-9.1,267.6-20.5,393.2-73.3c89.4-37.6,166.1-92.1,221.6-173.6
			c14.4-21.2,14.2-29.6-14.7-35.8c-32.4-6.9-51.4-1-74.6,25.3c-131,148.5-295.6,200.8-489.3,160.4c-12.8-2.7-35.1,0.8-26.2-27.9
			c7-22.6,14.5-27,39.1-22c167.9,34.3,312.9-8.8,431.2-134.9c4.4-4.7,7.9-10.4,14.6-19.3c-66.7-17.8-130.6-34.3-194.2-51.9
			c-206.6-57-407.7-130.6-610.2-200.1c-13-4.5-27.2-7.4-29.4-23.1c-2.4-17.2,13.3-21.4,24.4-28.1c63.7-38.5,112-90.5,143.5-158.6
			c11.6-25,11.6-38.8-18.2-51.4c-65.6-27.7-127.7-63.8-181.3-110.6c-40.7-35.6-81.6-33.9-127-17.6c-55.5,19.9-98.7,57.1-126.2,107.3
			c-91.6,167.1-143.5,344.5-108.4,536.5c20.7,113.1,80.1,204.4,186.4,257.3c23.7,11.8,18,23.5,12.3,40.4
			c-9.2,27.2-24.8,11.8-37.2,5.2c-133.8-70.3-200.4-187.3-218.6-331.8c-22.9-181.8,26.2-351.3,107.6-511.5
			c43-84.6,111.1-144.3,208-162.7c27.3-5.2,56.4-11,82,5.4c12.4,7.9,17.3-0.7,23.7-5.8c93-72.7,188.2-142.4,286.9-207.1
			c15.1-9.9,14.9-18.2,4.7-31.9c-185.4-247.2-138.9-595,99.5-830.1c189.8-187.2,419-305.7,684.6-345.7
			c105.3-15.9,211.6-3.9,317.1,5.9c127,11.8,253.8,23.2,380.7-1.4c14.7-2.8,32-5.2,34.9,15.5c3,21.2-14.6,21.5-29.4,23.9
			c-107.1,17.8-214.1,10.9-320.5-4.9c-439.7-65-802.5,78.7-1092.4,408.8C778.2,686.9,721.8,824.7,726.7,981.5
			c3.5,110.7,43.5,208.6,109.4,296.9c11.4,15.3,19.8,17.5,35.5,7c32.3-21.6,65.4-42,98.6-62.2c13.6-8.3,30.1-19.2,41.3,1.2
			c10.4,19-8.4,25-20.3,32.2c-126.6,75.8-248.4,158.7-367.1,246.3c-91.3,67.3-91.9,84.2,0.7,149.3
			c122.6,86.2,262.9,116.6,409.6,125.1c9.4,0.5,18.9-0.9,28.1,0.3c76,9.6,132.7-3.9,175.8-82.5c40.5-74,114.7-117,207.9-94.6
			c51.5,12.4,86.1,53.4,92.5,104.7c13.3,107.5-121,262.9-229.6,265.7c-74,1.9-129.8-47.1-133.1-120.8c-1.1-25.2-5.3-34.5-33.1-33.2
			c-123.1,5.9-243.3-10.9-360-51.5c-10-3.5-21.5-10-28.5,2.9c-30.5,56.4-79.9,100.7-101.7,163.1c-7,19.9-2.4,27,12.3,38.4
			c70.2,55,150.8,87.1,236.5,105.4c222.6,47.5,440.1,116.4,664.4,156.6c62,11.1,124.4,19.4,187.3,24c17.8,1.3,30.8-3.2,43-15.7
			c174.7-180.3,272.3-395.1,290.9-645.7c0.8-11.2-10.2-31.9,10.2-32.4c24.5-0.6,18,21.2,16.9,36.6
			c-17.8,242.7-109.5,453.7-272.5,634.1c-6,6.7-11.6,13.7-22.4,26.6c35.2,0,63.9-0.2,92.7,0.1c13.9,0.1,22-7.6,28.9-18.4
			c119.2-187.8,238.5-375.6,319.3-584.3c11.1-28.6,20-57.8,20.2-89.6c0.5-67.2-36.3-110.5-104.1-119.5
			c-49.2-6.5-95.8,5.7-142.1,19.6c-9.2,2.7-17.6,7.1-22.1-6.9c-4.4-13.5,4.9-17.4,13.5-19.6c42.7-11.3,85-25.3,129.9-23.6
			c120.2,4.7,180.5,93.2,142.6,212.9c-41.5,131.1-107.4,250.9-176.5,369c-45.3,77.4-89.6,155.4-139.8,229.9
			c-4.3,6.4-10.5,12.6-6.7,24.4c112.9-9,221.4-36.2,321.1-91.3c162.3-89.8,303.7-206,422-349.2c110.5-133.8,151.3-293.3,164.5-462
			c4.1-52.9,11.1-105.9,7-165.1c-54.6,45.4-110.3,78.6-176.8,88.1c-9.8,1.4-25.1,13.8-29.6-5.8c-4.7-20.6,13-18.8,25.6-21.4
			c13.1-2.7,26.3-5.2,39-9.2c117.9-37,151.4-86.8,143.4-212.9c-16.9-2-26.1,11.9-37,19.9c-111.7,82.3-237.6,127.3-374.3,144.7
			c-6.6,0.8-13.4,1.1-20.1,0.9c-7.5-0.2-16.7,2.4-18.6-9.3c-2-12.3,4.7-16.5,15.6-18c29.2-4,58.4-7.6,87.4-13
			c121.1-22.5,228.2-75,324.5-151.1c18.6-14.7,27.6-29.7,25.9-54.2c-2.4-34.5-0.6-69.3-0.6-104.2c-22.6-2.6-30.6,12.2-41.4,20.4
			c-102.7,78.4-219.2,116.2-347.6,119.5c-14.7,0.4-29.4-1.3-44.1-2.6c-11.2-1-22.1-3.4-19.6-18.8c2.3-14.4,14-9.9,22.2-9.4
			c49.7,3,99,1.5,148-8.8c96.6-20.2,182.1-62.3,255.4-128.4c31.8-28.7,22.1-121.1-14.6-144.4c-95.8-60.8-236.2-47.1-325.3,32.7
			c-22.9,20.5-43.1,44.1-65.2,65.6c-8,7.8-17,21.2-30.2,9.2c-15.8-14.5,2.9-20,9.7-27.6c59.4-67.3,124-125.1,218-140.3
			c57.4-9.2,111.7-5,165.6,15.8c12,4.6,22.5,14.4,36.8,12.9c-21.9-167.9-144.4-287.6-311.4-307.4c-119.6-14.2-234.9,7.8-349.7,36.4
			c-1.3,0.3-2.5,1.2-3.8,1.3c-16.8,0.8-40,20.7-48-7c-7.8-27.1,19.9-26.5,36.5-30.7c41.5-10.5,83.2-21,125.3-28.6
			c88.8-16.1,178.1-23.9,268-8.9c181.6,30.3,278.4,145.9,321.2,317.4c28.5,114.2,34.4,230.7,35.3,347.3
			c1.3,166.2-3,332.5-22.6,497.8c-26.3,222.7-146.3,393.5-306,541c-113.3,104.6-240.1,188.5-384.8,244c-12.3,4.7-25.1,8.3-29.7,24
			c-13,44.8-41.3,80.3-69.3,116.6c-67.8,88-49,193,51.1,239.9c153.4,71.9,315.7,97.3,480.9,44.8c198-62.9,253.8-220.5,146.1-397.9
			c-11.4-18.8-33.3-37.5-0.5-58.3c12.3-7.8,17.6-5.9,25.4,4.6c133.8,179.2,102.4,392.8-108.6,482.9c-187.9,80.3-374.3,53-553.7-24
			c-142.3-61.1-171.5-206.6-76.8-330C2103,2319.8,2122,2300.3,2134.3,2268.5z M1512.4,1725.3c0.9-57.7-41.4-100.6-100.7-102.3
			c-98.9-2.7-221.2,131.5-209.5,229.9c6.9,58.2,57.8,97.7,116.3,90.1C1400.4,1932.4,1511,1808.3,1512.4,1725.3z"/>
		<path class="st0" d="M402.7,510.2c89.8-11.1,150-51.2,183.9-124.6c11.6-25.1,23.2-22.3,42.3-15.4c27.2,9.8,10.6,25.5,4.7,37.6
			c-45.1,91.4-119.5,142.6-220.3,153c-23.4,2.4-33.3,9.7-36.3,31.9c-3,22.5-9.4,44.5-12.4,67c-6.5,48.4-4.3,50.6,44.4,38.6
			c30-7.4,59.4-19.4,80.5-42.7c19.5-21.6,30.3-4,42.6,5.8c20.9,16.8-0.1,25.2-9.1,33.6c-39.6,37.2-88.2,55.3-141.5,59.2
			c-20.6,1.5-29.5,7.4-27.8,28c0.6,6.6-1.1,13.4-0.5,20.1c2.2,24.7-11.9,60.2,9.6,71.5c28.5,15,61.9-1.9,90.4-19
			c12.7-7.6,22.9-28.4,43.5-7.2c15.8,16.3,18.4,25.6-0.8,40.6c-38.4,30-83.6,39.4-131.2,45.6c8,37.6,23.4,69.7,52.9,89.6
			c25.4,17.2,12.1,30.5,2,44.6c-14,19.6-26.1,3.1-36.3-5.4c-44.4-37.1-68-86.6-74.9-142.5c-19-154.1-5-305.3,56.1-449.1
			c46.5-109.6,121.4-195,232.1-244.9c14.5-6.5,30.1-19.2,41.3,8.5c10,24.8-1,30.4-20.5,39C513.6,319.3,449.8,402,402.7,510.2z"/>
		<path class="st0" d="M293.2,1870.7c45.5,9.5,81.7-2.6,109.6-31.8c21-21.9,30.2-1.3,42.1,6.9c19.5,13.4,2,23.2-6.5,31.1
			c-38.3,35.4-83.8,53.9-135.9,47.3c-25.4-3.2-37.3,4.4-41.9,27.9c-0.8,3.9-2.1,7.8-2.8,11.7c-4.1,22.8-26.3,52.5-8.4,66.6
			c20.9,16.5,50-4.7,74.4-15.4c17.1-7.5,31.6-33.1,54-5.2c12.3,15.3,13,23.3-3.5,34.6c-32.7,22.5-67.9,36.8-107.3,41.7
			c-31.3,4-42.9,31.2-30.8,76.6c8,30,33.8,14.2,48.3,10.5c34.7-8.8,69.8-20.5,98.2-43.7c20-16.4,34.7-16.7,49.3,5.1
			c17.6,26.1-10.1,29.2-20.9,37.3c-41.5,31.1-89.5,48.6-140.7,54.4c-21.6,2.5-24.6,10.1-16.8,27.4c1.6,3.7,3.4,7.3,5,11
			c23.2,53.5,30.8,57,84.6,35.1c36-14.6,72-30.4,101.8-55.4c20.5-17.1,31.1-10.8,44.7,7.2c17.2,22.9-4.2,27.9-15.7,35.5
			c-24.6,16.1-49.7,31.8-76.2,44.5c-23.1,11.2-46.4,18.4-46.4,51.2c0,18.6-15.2,14.5-27,10.5c-54-18.4-91.7-55.2-112.7-107.3
			c-41.9-103.9-34.6-210.2-8.9-315.9c28.9-118.7,88-220.9,177.1-304.8c10-9.4,18.1-38,42.8-11.4c20.5,22,9.3,32.3-6.9,47.3
			C364.4,1749,324.4,1805.1,293.2,1870.7z"/>
		<path class="st0" d="M130.5,701.7c0.3,117.2,29.4,224.8,106,316.7c23.5,28.3,50.8,52.6,84,67.3c23.9,10.6,14,21.6,8.5,36.6
			c-7.5,20.1-18,18.1-33.5,9.4c-92.6-51.9-148.9-132.6-183.6-230.3c-110.4-310,49.8-668.4,346.9-777
			c75.8-27.7,153.7-35.1,233.3-27.6c14.4,1.3,37.6-4.2,31.5,27.1c-4.7,24.1-12.9,28.2-37.1,24.6c-199.1-29.5-412,97.3-500.7,296.2
			C147.1,530.9,130.9,607.1,130.5,701.7z"/>
		<path class="st0" d="M1444.2,1377.5c-26.2-2.2-51.7-0.5-76.5-8.7c-49.3-16.2-61.6-48.3-33.1-92.3c25.3-39,61.7-67.1,99.7-92.1
			c50.8-33.4,106.7-55.6,167.2-64.8c54.9-8.3,98.3,8.3,115.5,43.6c19.2,39.3,8.6,85.3-31.8,123
			C1617.4,1349.6,1535.1,1376.5,1444.2,1377.5z M1445.5,1350.6c91-4.2,170-29.9,231.5-96.5c18.8-20.3,28.2-44.9,16.5-74.1
			c-11-27.2-33.9-34.3-58.4-33.8c-83.3,1.8-154.1,35.7-222.4,87.8C1486.3,1250.3,1494.2,1280.4,1445.5,1350.6z"/>
		<path class="st0" d="M1300.6,934.2c7.8-92.1,46-169.8,113.6-226.3c169.1-141.4,365.8-205,585.8-176.6
			c125.9,16.2,226,116.2,242.4,226c1.2,7.9,3.2,16.2,1.8,23.7c-1.5,8.2-8.5,13.9-17.7,13.3c-8.9-0.6-8.2-8.4-9.7-14.8
			c-35.4-146.9-127.6-227.6-281.5-228.3c-178.2-0.9-344,47.9-485.2,161.8c-69.3,55.8-112.6,128.3-120.9,218.9
			c-1.1,11.9,0.4,25.7-18.1,24.3C1292.4,954.8,1301.9,940.9,1300.6,934.2z"/>
		<path class="st0" d="M1802.4,754.4c40-2.3,88.1,8.4,134.6,26.1c8.9,3.4,27.7,3.5,21.4,21.9c-6,17.5-18.6,8.8-29.8,4.7
			c-128.8-46.9-249.3-30.6-361.5,48c-7.9,5.6-14.5,17.4-25.9,3.5c-13.5-16.5,3.1-20.9,11.1-26.7
			C1623.6,779.7,1703.6,753.8,1802.4,754.4z"/>
		<path class="st0" d="M480.5,2509.1c-21.4,1.5-18.2-14.5-22.7-24.4c-4.6-10.3-9.1-19.1,6.8-25.1c52.6-19.6,90.7-55.7,114-106.5
			c9.1-19.9,20.5-5.4,29.4-3.4c8.4,1.9,21.8,2.6,20.2,19C624,2410.1,518.9,2508.7,480.5,2509.1z"/>
		<path class="st0" d="M1069.1,1487.6c1,40.8-28,73.1-67.1,74.8c-38.5,1.6-67-22.3-67.9-56.9c-1-41.6,36-82.3,75.3-82.7
			C1044.6,1422.3,1068.1,1447.8,1069.1,1487.6z M1040.5,1493.8c-0.1-23.7-5.4-41.6-28.3-45.5c-19.1-3.2-52.6,32.3-51.3,54
			c1.4,23.1,17.2,33.3,38,32.7C1026.2,1534.2,1038.9,1516.9,1040.5,1493.8z"/>
	</g>
</g>
</svg>
