<?xml version="1.0" encoding="utf-8"?>
<!-- Generator: Adobe Illustrator 23.0.0, SVG Export Plug-In . SVG Version: 6.00 Build 0)  -->
<svg version="1.0" xmlns="http://www.w3.org/2000/svg" xmlns:xlink="http://www.w3.org/1999/xlink" x="0px" y="0px"
	 viewBox="0 0 3000 3000" style="enable-background:new 0 0 3000 3000;" xml:space="preserve">
<style type="text/css">
	.st0{stroke:#000000;stroke-width:10;stroke-miterlimit:10;}
</style>
<g id="Layer_1">
</g>
<g id="Layer_2">
	<g>
		<path class="st0" d="M1511.2,1604.6c-50.6,102.7-136.8,159.3-234.2,201.7c-130.5,56.8-268.5,84.4-408.9,102.1
			c-138.2,17.5-276.9,24.5-416.1,20.7c-69-1.9-137.1-11-201.6-38.2c-102.9-43.4-165.7-121.4-185.9-229.5
			c-24.5-130.9-19.6-262.7,8.7-392.9c13.1-60,41.5-113,84.1-157.7c53.5-56.2,122.8-76.3,197-84c116.4-12.1,232.5-2.1,348.5,6.1
			c118.8,8.4,237.7,17.3,355.9,32c71.2,8.9,141.3,22.5,208.7,47.7c99.6,37.2,167.4,108.8,217.4,199.9c3.7,6.7,5.5,14.7,12.6,20.1
			c48.5-101.3,135.8-157.5,234.3-199.4c122.4-52.1,251.8-77.2,383-93.2c143.9-17.5,288.5-22.5,433.3-17.4
			c66.8,2.3,132.9,10.4,196.1,34.4c114.7,43.5,183.3,126,203.4,246.4c21.2,126.7,15.2,253.8-14.7,378
			c-38.8,161.1-139.9,239.5-305.3,248c-91,4.6-181.5-1.3-272-9.6c-111.5-10.1-223.2-19.3-334.4-33.2c-81.6-10.2-162.8-21.9-242-45.6
			c-116.2-34.7-199.3-107.5-255.3-213.4C1520.3,1621,1516.5,1614.4,1511.2,1604.6z M728.3,1481.9c0.2,0,0.4,0,0.6,0
			c-3.8,119.7-7.5,239.5-11.4,359.2c-1,30.3-1.4,30.6,28.9,27.9c116.5-10.4,232.4-25.5,345.8-55.1
			c101.2-26.4,198.1-62.1,284.1-124.7c95.6-69.6,119.5-164.2,94.5-272.2c-17.5-75.6-60.8-139.9-118.1-193.1
			c-56.7-52.6-127.5-75.5-201-90.3c-129.5-26.2-261.2-34.1-392.6-43.7c-14-1-17.9,1.3-18.3,15.8
			C737,1231.1,732.5,1356.5,728.3,1481.9z M2216.7,1501.3c6.3-157.3,10.9-276.3,15.8-395.4c1-25.3,1.5-25.5-24.7-23.1
			c-100.3,9.1-200,22.4-297.8,46.9c-100.2,25-197.3,57.9-280.6,122c-43.6,33.6-79.2,73.9-93.6,128.2c-14.4,54-9.5,110,7.8,161
			c45.1,132.7,133.6,222.3,273.6,257.2c121.6,30.4,245.9,40.3,369.8,54.5c18.2,2.1,15.1-10.1,15.5-19.8
			C2207.9,1709.6,2213.1,1586.3,2216.7,1501.3z M2357.7,1637.7c68.9,38.8,136,76.5,203,114.5c6.5,3.7,11.4,3.2,17.4-1.1
			c50.6-36.1,101.4-71.9,153.6-108.9c-67-47.9-132.1-94.4-197.1-141.1c-6.3-4.5-10.7-3.9-16.5,1
			C2465.4,1547,2412.3,1591.6,2357.7,1637.7z M2904,1509.8c1.6-7.7-3.5-11.6-8.4-15.9c-57.6-49.3-115.3-98.4-172.5-148.1
			c-7.7-6.7-12.2-6-19.4,0.1c-41.5,35.4-83.2,70.5-125.1,105.3c-7.6,6.3-10.1,10.2-0.4,17c63.6,44.9,127,90,190.1,135.6
			c7.6,5.5,12.3,3.8,18.6-0.7c35.7-25.5,71.4-50.9,107.2-76.3C2900.1,1522.6,2905.5,1518.2,2904,1509.8z M2282.3,1162.5
			c0,13.4,0.4,21.2-0.1,28.9c-4,66.3-4,66.3,51.7,102.2c0.6,0.4,1.3,0.6,1.8,1.1c6.3,6.2,12,4.8,18.5-0.5
			c49.7-41,99.6-81.9,149.5-122.6c5.6-4.6,6.7-8,0.6-13.2c-33.1-27.8-62.8-61.8-100-81.7c-25.4-13.5-61.1-0.7-92.2,0.3
			c-3.5,0.1-7.2,1.1-10.6,0.6c-12.7-1.7-15.4,5-15.7,16C2285,1118.5,2283.3,1143.3,2282.3,1162.5z M2522.7,1790.8
			c-58-32.6-113.9-64.4-170.1-95.6c-38.4-21.3-38-20.3-72.3,6.7c-15.3,12-22.2,25.2-22.2,44.6c0.1,31.8-1.5,63.7-3.6,95.5
			c-0.9,12.8,3,17.9,15.8,18.8c41.7,3,83.3,6.7,124.9,10.1c7.1,0.6,13.7,0.5,20.2-4.1C2450.4,1841.6,2485.7,1816.9,2522.7,1790.8z
			 M2552.4,1200.6c-3.8,2.5-7.5,4.6-10.7,7.2c-47.4,38.9-94.5,78.2-142.2,116.7c-9.8,7.9-6.3,11.5,1.3,16.9
			c37.5,26.6,75,53.3,112.3,80.3c7.3,5.3,12.5,6.1,20.1-0.4c43-36.8,86.4-73.2,130.1-109.3c8.6-7.1,7.3-11-0.5-17.6
			c-34.1-28.8-67.8-58-101.6-87.1C2558.6,1205.1,2555.7,1203.1,2552.4,1200.6z M2482.2,1464c-43.1-30.9-84.4-60.6-125.9-90.1
			c-3.7-2.6-7.6-7.4-13-2.9c-22.9,18.9-46,37.7-68.6,57c-4.6,3.9-3.7,10.5-4,16.1c-1.7,41.8-3,83.6-5.2,125.3
			c-0.6,11.2,1.9,18.4,12.5,23.7c38.8,19.7,23.6,21.7,57-4.9c4.4-3.5,8.7-7.2,13.1-10.9C2392.4,1540,2436.6,1502.5,2482.2,1464z
			 M283.1,1310.6c-50.2,55.4-99.4,110-148.9,164.3c-5.4,5.9-3.3,9.4,1.6,13.8c25.2,22.7,50.4,45.5,75.4,68.5
			c5.4,4.9,9.2,7.4,15.4,0.5c42.7-47.3,85.5-94.3,128.8-141.1c6.6-7.1,4.7-11.5-0.3-17.6C331.3,1370.1,307.8,1341,283.1,1310.6z
			 M355,1683.4c1.5-1.2,3.8-2.8,5.7-4.8c37.3-39.7,74.5-79.6,111.9-119.2c4.9-5.2,4.7-9.1,0.3-14.5c-23.3-28.5-46.4-57.1-69.3-85.9
			c-5.8-7.2-9.9-7.8-16.5-0.5c-39.8,44.2-79.8,88.2-120.2,131.8c-7,7.6-6.7,11.9,0.9,18.5c25.5,22.4,50.5,45.5,75.7,68.2
			C346.5,1679.8,349,1683.8,355,1683.4z M513.6,1510.9c6.1-0.2,8.2-4.3,11-7.3c36.8-39.2,73.2-78.7,110.5-117.5
			c7.8-8.1,4.5-12.8-0.8-19.3c-21.7-27-43.6-53.9-64.5-81.5c-8.5-11.2-13.8-12.2-23.7-1c-34.2,38.7-69.2,76.6-104.4,114.4
			c-7.4,8-9.7,13.4-1.6,22.9c22.5,26.3,43.7,53.7,65.5,80.6C508.3,1505.4,511.3,1508.3,513.6,1510.9z M448.5,1129.6
			c-5.8,5.3-8.5,7.4-10.8,9.9c-37.1,40.9-74,82-111.2,122.8c-5.8,6.3-6.9,10.6-0.9,17.7c22.4,26.5,44.3,53.4,65.8,80.6
			c5.5,6.9,8.5,7.2,14.3,0.8c37-41,74.2-81.8,111.6-122.5c5.6-6.1,7.5-10.5,1.5-17.8c-22-26.8-43.4-54.1-64.8-81.4
			C451.7,1136.9,450.5,1133.3,448.5,1129.6z M2620.6,1785.7c39.5,22.3,76.4,42.7,112.9,63.9c8.7,5,14.9,1.2,21.7-2.1
			c37.5-18.1,65.1-47,87.3-81.6c19.9-31,20-31.1-9.7-51.7c-18.5-12.9-37.3-35.2-55.9-35.2c-18.7,0-37.6,22.2-56,35.2
			C2688.1,1737.1,2655.6,1760.6,2620.6,1785.7z M2689.4,1094.5c-6.2-1.5-11,1-15.6,4.8c-24,19.9-47.8,39.9-72.3,59.2
			c-9,7-4.8,10.4,1.3,15.6c34,28.9,67.8,58,101.5,87.2c5.8,5,9.8,8,17.5,1.3c32.6-28.3,65.9-55.8,99.2-83.3c6.7-5.6,6-9.5,0.2-15.2
			C2784.2,1127.5,2738.2,1108.4,2689.4,1094.5z M590.2,1691c-1.1-1.8-2-3.7-3.3-5.4c-22.6-28.1-45.5-56-67.8-84.3
			c-6.1-7.7-9.7-4.5-14.7,0.9c-34.3,36.7-68.7,73.4-103.5,109.6c-7.3,7.6-6.3,12.2,1.2,18.7c20.9,18,41.5,36.4,61.5,55.4
			c7.4,7,11.9,6.2,19.2-0.1c33.1-28.8,66.8-56.8,100.2-85.3C585.8,1698,590.4,1696.4,590.2,1691z M172.1,1173.4
			c-52.2,78.1-63.9,162.9-67.6,256.3c49.1-54.2,94.1-103.9,139.2-153.5c5.9-6.5,2.9-11.1-1.5-16.5
			C219.4,1231.8,196.7,1203.7,172.1,1173.4z M224.8,1818.3c6.1,0.7,8.2-3.5,11-6.5c23.6-25.3,46.9-51,71-75.9c7.9-8.2,9.7-13,0-21.5
			c-25.1-21.7-49.5-44.4-73.6-67.2c-7-6.6-11.4-8-18.5,0.1c-20.9,24-42.4,47.4-64.1,70.7c-6.3,6.8-7.1,12.3-2.2,20.5
			c18,30.2,41.3,55.5,69.9,75.8C220.6,1816,223.1,1817.3,224.8,1818.3z M672.6,1422.4c-38.7,41.4-77.7,83.2-117,124.7
			c-5.7,6-5.4,10.3-0.6,16.2c23.7,29,47.3,58,70.9,87.1c2.1,2.6,3.4,6.2,7.8,5.8c5.8-0.5,38.6-33.3,38.6-39.8
			C672.7,1552.2,672.6,1488,672.6,1422.4z M2860.7,1214.3c-33.7,28.2-66,55.5-98.5,82.4c-9.2,7.6-2.9,11.5,2.6,16.2
			c21.5,18.4,42.9,36.9,64.5,55.2c24.4,20.8,48.9,41.4,77.4,65.6C2904.8,1354.5,2901,1281.7,2860.7,1214.3z M388.8,1076
			c-8,0.6-17.2,1-26.4,2.1c-50.3,6.1-99.2,16.1-141.9,46.1c-11,7.7-11.6,12.6-2.9,22.7c20,23,39,46.8,57.6,70.9
			c7.5,9.7,12,10.3,20.5,0.7c35.3-39.8,71.4-78.8,106.9-118.3c3.7-4.1,10.9-7.5,6.6-15.6C405.1,1076.6,398.8,1073.7,388.8,1076z
			 M604.7,1876.4c20.8-1,35-1.7,49.1-2.3c5.1-0.2,10.3-0.2,10.5-7.3c1.4-44.5,12-91.1-31.6-124.8c-7.1-5.5-9.6-6.9-16.5-0.9
			c-31.6,27.4-63.6,54.3-95.7,81.1c-6.3,5.3-7.2,8.9-0.7,14.9C545.7,1861.2,568.9,1891.1,604.7,1876.4z M660.2,1081.8
			c-53.8-2.7-102.6-4.9-151.4-7.8c-11-0.7-17.3,4.9-22.7,12.6c-6.1,8.6,2.9,13,6.6,17.8c19.5,25.3,39.6,50,59.4,75
			c5.2,6.5,8.9,12.1,17.4,2.5C598,1149.6,627.3,1117.9,660.2,1081.8z M682.5,1135.4c-27.8,30.6-55.2,60.8-82.7,90.9
			c-4.1,4.5-3.9,8.3-0.2,13c25.9,32.3,51.6,64.7,77.4,97.1c1.8-0.5,3.7-1,5.5-1.5C682.5,1269.2,682.5,1203.7,682.5,1135.4z
			 M375.4,1869.7c7.7-0.1,54.1-34.1,54.1-39.7c0-2.8-2.6-6.3-5-8.5c-19.8-18.3-39.8-36.3-59.6-54.5c-5.3-4.9-9.6-6.7-15.7,0
			c-21.4,23.6-43.4,46.7-65.4,69.8c-6.6,6.9-4.9,9.9,3.7,12.9C316.5,1859.8,346.6,1864.5,375.4,1869.7z M120.6,1673.1
			c20.8-22.6,39.4-42.8,58-63.1c2.8-3.1,6.3-6.2,1.5-10.5c-24.9-22.4-49.8-44.8-78.4-70.4C104.4,1580.3,107.4,1625.8,120.6,1673.1z
			 M2667.2,1872.5c-32.4-18.4-59.8-34-87.1-49.6c-3.9-2.2-7.4-3.6-11.6-0.5c-23.7,17.1-47.4,33.9-71.2,50.9
			C2552.9,1877.6,2606.9,1881.7,2667.2,1872.5z M2487.1,1074.9c21.7,18.5,40.2,34.4,58.8,50.3c2.6,2.2,5.9,5.7,9.2,3
			c18.6-14.6,36.9-29.7,55.3-44.6C2568.5,1076.2,2530.2,1071.3,2487.1,1074.9z M2822.1,1642c16.6,12,31.5,22.7,46.2,33.5
			c5.8,4.2,11.4,7.2,13.7-2.9c5.9-25.8,14.2-51.3,13.4-82C2870.3,1608.2,2847.5,1624.2,2822.1,1642z M2276.4,1357.4
			c9.9-8.4,23-12,22.4-22.7c-0.3-5.7-11.5-12.1-22.1-14.3C2275.7,1332.7,2273.5,1343.3,2276.4,1357.4z"/>
	</g>
</g>
</svg>
