<?xml version="1.0" encoding="utf-8"?>
<!-- Generator: Adobe Illustrator 23.0.0, SVG Export Plug-In . SVG Version: 6.00 Build 0)  -->
<svg version="1.0" xmlns="http://www.w3.org/2000/svg" xmlns:xlink="http://www.w3.org/1999/xlink" x="0px" y="0px"
	 viewBox="0 0 3000 3000" style="enable-background:new 0 0 3000 3000;" xml:space="preserve">
<style type="text/css">
	.st0{opacity:0.58;}
	.st1{stroke:#000000;stroke-width:10;stroke-miterlimit:10;}
</style>
<g id="Layer_1" class="st0">
</g>
<g id="Layer_2">
	<g>
		<path class="st1" d="M183.2,541.2c11.1,36.5,23.6,69.9,41.4,101.2c11.6,20.4,25,39.2,41.3,56.1c31.6,32.7,69.4,41.2,112.1,28.9
			c41.8-12.1,81-29.7,116-56.3c52.6-40,112.2-51.9,176.5-40.3c46.8,8.5,80.1,35.5,97.7,79.7c10.4,26.2,17.7,53.5,27.3,82.9
			c14.6-28.7,27.5-56,45.7-80.3c61.7-82.2,146.3-131.7,240.4-167.2c104.4-39.4,213.3-59,323.8-68.2
			c124.4-10.4,249.1-19.7,374.2-11.4c102.9,6.8,201.2,28,284.6,93.8c15.5,12.2,29.4,34.8,45.1,35.9c12.5,0.8,26-24.8,40.4-37.1
			c66.9-57.6,159.7-62.7,241.9-14c54.7,32.4,72.2,53.7,100.6,123.8c40-28.4,83.8-47.2,132.1-55.5c121.8-21,244.6,46.4,287,158.3
			c45,118.7,3.9,252.8-96.7,315.5c-97.9,61-236.6,52.8-338.8-20.1c-6.7-4.8-13.4-9.7-21.8-15.8c-17.9,59.6-38.6,116.5-66.4,170.5
			c-13.3,25.9-37.8,51.6-37.6,77.2c0.2,24.1,27.2,47.4,40.7,72.1c56.4,102.9,78,215.4,86.5,330.7c8.2,111.2,15.6,222.6,16.1,334.2
			c0.4,91.9-5.2,183.2-30.8,272c-43.5,150.5-143,254.6-277.6,328.4c-120.6,66.1-251.2,100.2-386.5,119.2
			c-142,19.9-284.4,19.9-425.7-0.2c-182.6-26-358.7-73.7-509.4-188c-53.8-40.8-98.3-89.9-129-150.4c-7.1-14-13-16.5-28.4-12
			c-83,24.4-167.5,35.8-254,22c-140-22.3-223.6-104.6-257.8-240.6c-15-59.5-15-120.4-20.1-180.8c-10.3-123.6-0.1-245.6,30.1-369.2
			c-25.6,6.1-48.7,6-71.7,4.3c-11.8-0.9-23.1-3.8-17.4-19.2c3.6-9.7-3.2-26.8,21.3-22.8c69.6,11.6,118.7-29.6,126.7-104
			c2.2-20.6,2.2-41.8-0.3-62.3c-10.2-85.7-99.8-120.6-173-68.3c-7.1,5.1-12.3,16.5-25.4,8.5c-23.2-14.1-24.2-21.7-2.6-39.2
			c54.5-44,136.7-46.5,193.1-4.9c31.7,23.3,44.5,58,48.6,95.2c7.2,64.4,0.2,124.7-42.7,179.2c-21.9,27.7-21.7,67.4-28.6,102.3
			c-30.7,155.7-26.7,312,2.9,466.6c27.1,141.3,129.7,218,274.7,219.3c62.2,0.6,122.7-7.5,182.1-25.1c9.8-2.9,19.5-3.8,15.4-19.1
			c-17.7-65-19.1-131.6-17.9-198.3c0.3-16.4-5.3-22.8-20.3-27.6c-72-22.8-135.3-58.6-181.7-120.9c-44.7-60-43.8-127.7-35.7-196.1
			c18.8-158.5,68.3-309.5,114.1-461.5c18.4-61.2,41.6-121.2,53.9-184.1c11.8-60.3-8.8-97-65-120.9c-54.1-23.1-111.4-33.2-169.2-40.6
			c-44.5-5.7-89.6-7.4-133.9-14.2C105.6,959.6,19.6,803.6,76.5,667C98.4,614.6,134.9,574.7,183.2,541.2z M1043,2130.7
			c-29,90.6-48.5,175.6-58.9,262.3c-2.7,22.1-12,24.2-30.5,22.6c-23.5-2.1-12.5-16.7-11.5-27.1c1.4-14.9,4.1-29.7,6.6-44.4
			c31.5-185.8,92.4-362.5,175.1-530.9c73.4-149.4,197.1-240.1,358.5-278.2c150.4-35.5,297.9-19.2,441.1,34.8
			c178.6,67.3,286.9,192.1,300.8,387.4c8.8,123,9.4,246.3,1.8,369.4c-2.6,41.5-8.8,82.7-12.7,124.1c-1.2,13-6.9,18.1-19.4,15
			c-9.1-2.3-26.8,3.4-22.7-14.1c11.6-48.8-24.5-80.1-39.5-122.1c-7.9,9.4-14,16.3-19.6,23.4c-49.7,62.5-96.9,127.3-150,186.8
			c-30.2,33.8-34,61-10.9,99.3c22.8,37.7,19.9,39.6,61.8,25.7c92.4-30.5,178.8-72.3,254.7-134.1c121.4-99,169.3-232.4,180.3-383.6
			c8.7-120,0-239.7-7.1-359.3c-4.7-79.7-10.7-159.2-27.9-237.7c-39.9-182.5-144.7-308.9-319.2-376.6c-26.3-10.2-53-20.1-80.4-26.9
			c-292.7-72.4-571.7-31.8-836.6,107.9c-186.6,98.4-311.9,250.1-378.4,451c-57.4,173.2-72.4,351-65.8,532
			c4.7,129.4,61.3,228.8,165.1,303.8c112.2,81.1,239.8,124.7,373.3,153.8c21.6,4.7,43.2,11.4,69,10
			C1241.4,2514.2,1143.8,2325.6,1043,2130.7z M1634.9,505.9c-120.5,5.5-241.2,9.2-360.3,31.2c-108.5,20.1-214.2,49.5-306.7,112.9
			c-107,73.3-162.7,173.9-154.1,305.5c9.5,143.7,78.4,261.5,164.7,371.5c8.1,10.4,12.8,5.4,19.5-0.5c37.2-32.2,76.9-61.2,119.2-86.2
			c12.3-7.3,12.7-14.1,7.1-26.1c-13.3-28.8-21.4-59.4-28.8-90.2c-50.9-212.1,47.4-387.2,250.2-446.4c65.2-19,132.2-26.1,199.6-29.5
			c84.7-4.3,169.6-9.2,253.7,7.9c127.8,26,208.8,108.5,231.2,236.9c11.2,64.3,3.3,127.8-14.4,190c-4.2,14.7-2,20.6,13.5,24.2
			c20.2,4.7,40.1,11.3,59.2,19.4c14.7,6.2,19.5,2.1,24.8-11.8c29.7-77.7,46.7-157.8,47.3-241c1.2-187.4-103.5-316.1-287-353.5
			C1794.8,504.2,1714.9,504,1634.9,505.9z M162.6,613.3c-15.6,13.5-25.4,27.9-34.2,43c-71,121.4,0,267.9,139.3,285.8
			c53.6,6.9,107.6,9.7,161,18.5c54.3,8.9,108.2,19.3,157.3,45.8c65.8,35.6,88.5,84.5,75,157.6c-4.9,26.2-12.8,51.5-20.4,77
			c-50.4,167.8-109.7,333.2-139,506.8c-9,53.3-18.8,106.9-8.8,161.2c13.7,73.8,114.6,165.7,187.4,171.9c8.4,0.7,10.3-2.5,10.9-9.1
			c0.7-7.5,1.5-14.9,1.8-22.4c5.9-144.2,35.1-283.5,88.5-417.7c4.1-10.2,6.2-20.3,5.5-31.5c-9.7-156.1-18.3-312.3-22-468.8
			c-1.5-63.3-4.6-126.7,1.1-189.7c6.9-76.1-13-146.7-37.1-216.8c-9.6-28.1-31.1-46.3-59.5-51.8c-51.1-9.9-101.2-6.4-144.3,27
			c-34.7,26.8-73.2,45.9-113.9,60.8c-79.4,29-139.9,11.9-193.2-53.4C195.1,679.5,179.8,647.3,162.6,613.3z M2457.6,760.5
			c0-11.6,0.6-23.3-0.1-34.9c-5.1-85.3-48-138.5-132.1-164.4c-67.6-20.8-131.5,0.6-177.5,58.1c-10,12.4-10.6,21.5-1.9,35
			c20.3,31.7,34,66.5,42.6,103.2c29.9,127.2,8.6,249.5-35.7,369.3c-6.7,18.1-4.2,25.4,13.1,33.6c50,23.5,95,54.9,134.7,93.4
			c10.1,9.8,14.9,14.2,24.3-2C2412.1,1099.5,2447.2,933.4,2457.6,760.5z M2665.5,1086c96.2-0.3,172.8-47.9,205.1-127.7
			c39.8-98.4,9.1-210.1-73.5-267.5c-83.8-58.3-212.9-50-288,18.4c-6.5,5.9-10.8,11.4-10.3,21.1c3.9,87.2-12.8,172.2-29.3,257.1
			c-2.9,14.9,1.7,23.2,12.3,31.8C2535.4,1062.5,2596.3,1085.6,2665.5,1086z M1501.6,2365.7c-3.2,1.1-5.2,1.2-6.2,2.2
			c-58.6,60.3-116.9,120.8-175.7,180.8c-8.7,8.8-5.3,15.8-0.8,24.3c19.7,37.5,40.9,74.4,58,113c10.6,24.1,26.3,31.9,50.9,33.9
			c85.4,7.1,170.8,9.4,256.2,4.6c75.7-4.3,150.5-15.4,224.7-30.9c18.8-3.9,19.6-10.3,11.4-25.9c-16.2-30.8-30.3-62.8-45.4-94.3
			c-34.5-72.3-69-144.6-104.7-219.3c-32.1,32-62.5,61.5-91.9,91.9c-20.1,20.8-53.8,37.6-56.5,63.5c-2.5,24.1,19.2,51.6,33.1,76
			c9.1,16,5.7,21.8-9.7,28.9c-14.1,6.5-22,6.9-28.3-9.4c-7.2-18.5-17-35.9-25.7-53.9C1561.3,2489.3,1531.5,2427.5,1501.6,2365.7z
			 M2138.4,2251.6c11-13.5,19.1-24.9,28.7-34.9c16.6-17.2,22.1-36.6,21.5-60.7c-1.6-65.7,0-131.6-5.7-197.2
			c-6.5-74.1-25.8-143.9-71.3-204.6c-6.6-8.8-11-14.6-21.7-3.2c-40.6,43-81.8,85.4-123.5,127.3c-11,11-9.9,19.8-3.3,32.4
			c35.4,67.8,69.9,136,104.8,204C2090.9,2159.6,2114,2204.3,2138.4,2251.6z M1905.7,2540.6c3.9-2.6,6.3-3.6,7.7-5.4
			c62.7-78.8,125-157.8,188.2-236.3c8.3-10.3,4.9-17.6,0.2-26.8c-25.1-48.7-50.8-97.2-74.6-146.6c-9.2-19-15.3-14.9-27.1-2.8
			c-56.6,57.7-114.2,114.3-170.8,171.9c-34.1,34.7-31.2,18.9-10.3,63.8C1847.1,2419.2,1876.4,2479.4,1905.7,2540.6z M1695.5,2099.4
			c68.1-70.4,134.4-139.2,201-207.7c7.2-7.4,3.7-13.2,0.3-19.9c-28.8-56.2-57.8-112.2-86.3-168.6c-5.7-11.3-9.4-15.8-20.6-4.5
			c-60.4,60.8-121.5,121.1-182.5,181.4c-7.1,7-10.8,12.8-5.6,23.6C1633.1,1967.9,1663.5,2032.4,1695.5,2099.4z M1284.4,2506
			c52.3-47.7,106-95,157.6-144.4c38.9-37.2,38.3-38.6,15.2-87.9c-25.7-54.7-52.5-108.9-81.6-169.1c-64.4,65.8-126,128.7-187.8,191.4
			c-7.7,7.8-4.9,14.3-0.8,22.2C1221.2,2383.7,1255.1,2449.3,1284.4,2506z M1511.8,2289.8c49.7-51.7,97.3-101.5,145.4-150.9
			c7-7.2,4.6-12.8,1.2-19.9c-29-60.7-58-121.5-86.7-182.3c-4.5-9.5-8.2-13.2-17.4-3.9c-45.2,45.5-90.7,90.6-136.4,135.7
			c-6,5.9-8.2,11.1-4.1,19.4C1446.3,2154,1478.2,2220.4,1511.8,2289.8z M1920.9,1927.5c-2.6,2.3-5.8,4.8-8.6,7.7
			c-62.5,64.6-124.9,129.4-187.6,193.8c-7.5,7.7-8.8,14.3-3.9,24.2c18.7,38,37.2,76.2,54.6,114.8c6.7,14.9,11.9,11,20.6,2.2
			c63.4-63.8,127-127.4,190.8-190.8c7.3-7.2,10.3-12.8,4.7-23.3c-20.8-38.7-40.3-78.2-60.6-117.2
			C1928.7,1934.7,1927.8,1929.1,1920.9,1927.5z M1770.7,761.4c-6,5.4-11.2,9.5-15.7,14.2c-54.8,56.9-109.4,114.1-164.3,170.9
			c-40.3,41.7-40.5,41.5-12,93.2c21.5,39,21.6,39.8,66.3,34c14.9-1.9,32.4,3.8,44.5-10.4c47-55,93.9-110,141.1-164.9
			c5.5-6.4,7.4-11.3,2.9-19.5C1812.4,840.5,1792.1,801.6,1770.7,761.4z M1687,1560.5c-34.5-1.6-34.2-1.3-54.8,22.1
			c-35.7,40.5-71.5,80.9-108,120.7c-8.5,9.3-10.5,16.5-4.6,28.1c16.9,33.3,33.4,66.8,48.2,101c7.5,17.3,12.9,16.1,24.9,4
			c51.4-52,103.6-103.3,155.5-154.8c33.4-33.2,30.2-31.9,13.3-75.2c-14.4-36.8-38.4-48.2-73.9-45.9
			C1686.8,1560.6,1685.9,1560.5,1687,1560.5z M1657.3,686.4c0,0,0,0.1,0,0.1c-17.5,0-34.9,0.6-52.4-0.2
			c-14.5-0.7-25.4,4.9-35.4,14.6c-35.3,34-70.7,68-106.7,101.3c-8.6,7.9-8.1,14-2.8,23.3c19.7,34.6,39.1,69.4,57.6,104.6
			c8.2,15.6,13.8,18.2,27.3,3.9c61.5-65.4,124.3-129.5,186.1-194.7c6.9-7.2,21.5-11.6,13.5-27.9c-7.5-15.3-15.3-26.8-35-25.4
			C1692.3,687.4,1674.8,686.4,1657.3,686.4z M1090.1,2127c62.7-70.2,124-138.9,185.4-207.5c4.1-4.6,6.8-8.9,3.6-15.5
			c-23.4-48.3-46.6-96.8-71.5-148.5c-7.8,11.4-13.3,19.5-18.7,27.5c-53.4,78.7-78.2,170-115.2,256
			C1058.3,2074.8,1071.5,2098.5,1090.1,2127z M1318.4,1873c0.6-0.9,2.3-3.9,4.5-6.4c44.2-49.6,88.4-99.3,133-148.6
			c6.1-6.7,6-12.3,2.3-19.9c-13.9-28.3-27.5-56.7-40.6-85.4c-4.5-9.8-9.7-11.2-19.1-6.9c-57.3,26.1-108.7,60.6-153,105.6
			c-6,6.1-7.4,11.2-3.3,19.6c21.7,43.8,42.5,88.1,63.9,132.1C1308.1,1867.2,1308.5,1873.4,1318.4,1873z M1161.5,2267.7
			c64.4-65.5,126.1-128.2,187.8-191c4.6-4.6,9.5-8.2,5.2-16.7c-17.4-34.7-33.9-69.8-52.1-107.6c-63.2,70.9-124.2,139.6-185.6,207.9
			c-6.5,7.2-4.8,13.1-1.1,20.1C1129.9,2207.4,1144.1,2234.6,1161.5,2267.7z M1681.1,2176.5c-2.1,1.8-4.8,3.8-7,6.1
			c-45,46.6-89.9,93.4-135.2,139.8c-7.8,8-4.9,14.4-1,22.2c17.5,35.8,35,71.5,51.9,107.6c5.6,11.9,9.6,15.2,20.4,4.1
			c43-44,86.7-87.3,130.4-130.6c7.3-7.2,10.2-13.4,5-23.8c-18.8-37.9-36.5-76.3-54.9-114.4
			C1688.7,2183.4,1688.2,2177.4,1681.1,2176.5z M1421.8,842.3c-48.1,45.9-94.1,90.2-140.7,133.9c-8.7,8.2-5.4,13.9-0.2,21
			c25.6,35.8,51.4,71.5,76.5,107.6c6.7,9.6,11.2,12,20.3,2.3c37.1-39.3,74.8-78.1,112.4-116.9c5.1-5.2,7.8-9.6,3.6-17.2
			C1469.9,930.4,1446.6,887.5,1421.8,842.3z M1927.5,1840c44.6-40.1,90.1-81.1,135.8-121.9c11-9.8,3-15.3-4-21.4
			c-47-40.6-99.9-70.9-158.5-91.6c-8-2.8-13.6-3.2-19.8,3.4c-12.5,13.3-25.6,26-38.9,38.7c-6.1,5.8-8.4,10.8-4,19.3
			C1869.8,1727.3,1901,1788.4,1927.5,1840z M1482.6,1750.6c-49.2,54.9-95,106.2-141.1,157.4c-5.2,5.8-9.2,10.7-4.8,19.5
			c17.8,35.5,34.8,71.4,54.9,112.7c50.1-51.3,97.5-100,145-148.6c4.9-5,8.8-9.9,5.2-17.4C1522.6,1834,1503.3,1793.8,1482.6,1750.6z
			 M1251.2,946.5c3.6-3.2,8-7,12.2-10.9c27.1-25.8,53.6-52.1,81.3-77.2c60.1-54.4,60.4-54.2,18.5-123c-0.9-1.4-2.2-2.6-2.8-4.1
			c-3.7-9.9-10.2-11.4-19.8-8.1c-63.1,22.3-119.1,54.6-159.3,110c-5.4,7.5-7.9,13.4-1.6,21.9c20.2,27.4,39.5,55.4,59.5,82.8
			C1241.8,941.5,1243.5,947.4,1251.2,946.5z M827.2,1531.2c35-57.4,74.4-110.6,121.2-158c10.5-10.6,1-16.1-4.3-22.6
			c-50-61.6-91.6-128.2-123.8-200.8c-2.7-6.2-2.7-14.6-12.1-18.2C807.4,1265.3,817.8,1397.6,827.2,1531.2z M1330.6,1139.2
			c-28.1-39.5-55.4-77.1-81.8-115.3c-6.4-9.2-10.4-7.3-17-0.9c-28.7,27.8-57.7,55.3-86.8,82.6c-6.2,5.8-8.2,12.2-6,20.1
			c6.8,24.9,13.5,49.7,24.3,73.2c3.4,7.4,6.4,11.1,14.6,6.6C1226.3,1179.6,1277.1,1159.1,1330.6,1139.2z M1943.4,1086.9
			c-28.9-54.6-55.5-104.8-83.8-158.2c-40.1,47.1-78.3,91.9-120.5,141.3C1810,1069.5,1874,1075.2,1943.4,1086.9z M1974.5,1055.1
			c25.3-82.7,26.8-162.6-14.4-243.8c-23.4,27.2-44.7,52.2-66.2,77.1c-4.9,5.6-2.7,10.7,0.1,15.9
			C1920.8,954.6,1947.7,1004.9,1974.5,1055.1z M1932.9,776.7c-2-2.9-3.5-5.9-5.7-8.2c-26.5-29-59.9-47.1-96.2-60.4
			c-12.1-4.4-15.5,6.8-22.2,12c-8.7,6.9-5.2,14.2-1,22c17.3,32.2,34.8,64.4,51.2,97.1c7.2,14.5,12.6,11.2,20.7,1.3
			c14.2-17.4,29.2-34.1,43.8-51.2C1926.8,785.6,1929.5,781.4,1932.9,776.7z M1128.5,1064.3c29-27.9,54.5-52.6,80.2-77
			c5.9-5.6,6.4-10.3,1.5-17c-19.4-26.7-38.3-53.8-59.6-83.8C1127.2,944.6,1119.4,1000.5,1128.5,1064.3z M1596.7,1559.6
			c-40.3,3.5-73.8,7.8-106.9,15.9c-39.6,9.7-39.6,9.5-22.4,45.2c6.4,13.4,13.5,26.5,19.4,40.1c4.3,9.8,8,13.9,16.8,3.8
			C1532.9,1631.1,1562.6,1598,1596.7,1559.6z M1519.7,691.2c-28.2,2.8-48,4-67.7,7c-58.6,8.9-58.5,9.2-28.5,60.3
			c0.8,1.4,1.6,2.9,2.3,4.4c3.6,7.6,7.7,9.8,14.8,3C1465,742.5,1489.8,719.5,1519.7,691.2z M1436.2,1107
			c43.1-8.6,79.3-15.8,117.8-23.5c-9.9-18.2-19.3-34.7-27.9-51.6c-4.8-9.6-9.3-9.7-16.2-2.3
			C1487.2,1053.8,1464.2,1077.6,1436.2,1107z M1792.8,1574.6c6.5,15.8,9.5,33.5,21.3,36.9c9.7,2.8,17.8-13.8,28.5-24.7
			C1825.2,1582.5,1810.6,1579,1792.8,1574.6z M2186.1,2263.4c-30.5,30.6-30.6,34-3.4,67.2
			C2183.8,2308.7,2184.8,2288.3,2186.1,2263.4z"/>
	</g>
</g>
</svg>
