<?xml version="1.0" encoding="utf-8"?>
<!-- Generator: Adobe Illustrator 23.0.0, SVG Export Plug-In . SVG Version: 6.00 Build 0)  -->
<svg version="1.0" xmlns="http://www.w3.org/2000/svg" xmlns:xlink="http://www.w3.org/1999/xlink" x="0px" y="0px"
	 viewBox="0 0 3000 3000" style="enable-background:new 0 0 3000 3000;" xml:space="preserve">
<style type="text/css">
	.st0{stroke:#000000;stroke-width:10;stroke-miterlimit:10;}
</style>
<g id="Layer_1">
</g>
<g id="Layer_2">
	<g>
		<path class="st0" d="M920.3,2507.3c-51,87.1-132.1,121.2-224.2,132.3c-130.6,15.8-261.3,6.4-389.9-16.6
			c-132.9-23.8-206.6-116-218.3-254.5c-8.5-100.3-6.3-200.8-3-301.1c2.6-80,1.9-160.3,12.5-240c11.2-84.1,42-158.1,104.8-216.6
			c10-9.4,10.2-15.1,2.2-26.3c-49.1-68.2-82.5-142.9-92.6-227.4c-9.1-76.4,4.5-148.4,39-216.3c7.9-15.5,7.2-26.5-1.1-41.2
			c-83-146.9-89.1-300.4-34.9-457.6c17.6-51.2,45.1-97,89.1-131c50.8-39.2,111.2-48.4,172.2-53.9c47.7-4.3,95.3,0,141.8,12.6
			c7.6,2,14.5,1.8,22.1-0.1c139-34.9,261.5-1.2,368.5,91.5c15.5,13.5,21.2,12.1,32.9-3.5c130.1-174.2,373.6-231.2,559.2-131.5
			c72.1,38.8,126.4,95.4,164.2,167.9c3.8,7.4,7.5,14.8,12.3,24.1c20.9-23.2,42.1-44,68.4-58.6c11.8-6.6,3.9-14.1,1-21.2
			c-14.2-33.9-16.1-68.2-2.2-102.5c21-52,71-81.3,126.3-74.5c49.3,6.1,88.9,47.5,96.6,101.5c3.9,27.7,2.6,55.2-5.3,82
			c-3.3,11.2-1.9,18.6,8.8,24.9c17.4,10.3,30.5,25.8,44.9,40.5c2.4-2.1,5-3.3,5.8-5.2c53.4-129.1,152.2-203,286.4-230.3
			c119.4-24.4,239.7-25.8,358,6.4c177.5,48.2,248.2,182.4,237.8,347.8c-9.5,151.2-75.4,279.1-170.8,393.6c-7.6,9.2-19,15.3-1.7,28.9
			c189.5,148.7,233,341,166.5,565.5c-9.2,31.2-17.7,62.6-25.9,94.1c-36.1,137.9-113.1,242.7-245.2,302.8c-2.2,1-4,2.7-9.2,6.3
			c20.7,5.2,38.7,9.3,56.5,14.2c46.4,12.9,89.8,31.9,126.9,63.3c60.4,51,77.6,118.9,47.1,192c-42.3,101.1-119.5,164.7-220.1,203.3
			c-102.9,39.5-210,62.5-318.6,77c-194.9,26.1-390.3,50.4-587.5,41.3c-193.8-9-387.8-18.3-577.5-64.8
			c-45.5-11.1-89.9-25.8-131.4-48.3C973.3,2577,940.5,2549.4,920.3,2507.3z M890.5,2101.5c4.7-100.2,7.1-200.7,14.8-300.7
			c7.1-93.2-27.9-164.2-105.3-212.3c-123.4-76.8-257.4-91.1-394.8-48c-152.7,47.9-254.6,143.2-268.7,312.8
			c-6.9,82.8-8.4,165.8-10.6,248.7c-2.5,94.5-5.3,188.9,7.4,283.1c14.7,109,72.8,175.2,180.1,197c85.5,17.3,172.8,18.5,259.6,22.1
			c59.6,2.4,119-1.9,176.4-18.6c76.6-22.2,149-67.1,143.5-182.9C888.1,2302.5,888.1,2202,890.5,2101.5z M1667.5,2176
			c285.7,5.5,537.2-14.1,786.7-58.2c76.1-13.5,151.1-30.9,215.8-76.1c86.3-60.3,136.7-144.3,161.9-245.7
			c5.8-23.3-0.4-30.5-21.3-32.2c-4.2-0.3-8.3-0.8-12.5-1.4c-65.4-9.4-127.9,6.8-190,23.2c-106.3,28.1-212.8,51-324.1,38.5
			c-38-4.3-76.3-9.4-115-1.9c-49.9,9.7-81.1,38.9-85.5,86.8c-1.7,18.2-16,14-25.1,18.8c-9.4,5-14.2-0.7-18.7-9.6
			c-29.3-57.4-79.7-86.1-140-99.9c-41.8-9.5-84.4-10.4-127.2-11.4c-23.2-0.5-28.1,7.2-27.3,28.4c0.9,24.9,3.9,50.3-4.2,74.8
			c-3.6,10.8-11,17.3-22.3,16.4c-9.9-0.8-16.8-7.1-18.9-17.3c-1.3-6.6-2.8-13.1-3.7-19.7c-8.8-67.4-25.7-83.3-94.2-82.5
			c-75.3,0.9-150.6,4.8-225.9,5c-22.7,0.1-29.4,10.2-31.8,28.8c-3.8,29.1-4.6,58.4-4.2,87.7c0.2,14.9-1.6,30.6-19.9,32.6
			c-17.4,1.9-24.5-11.4-27.6-26.6c-6.7-33.5-13.4-67.1-19.8-100.7c-2.3-11.9-4.1-22.1-19.8-24.2c-93.3-12.4-186.7-14.9-280.5-5.6
			c-10.8,1.1-15.4,5.3-16.6,17c-3.6,37.7-4.7,75.1,1.4,112.6c14.1,87.5,55.1,154.9,139.4,191.3c40.5,17.5,83.3,25.2,126.6,28.7
			C1382.1,2166.1,1540.8,2174.8,1667.5,2176z M2820.4,2331.3c0.4-45.3-15.4-73.7-41.6-97c-20.8-18.5-44.3-33-70.2-43.2
			c-85.8-33.5-174-45.6-265.5-29.5c-162.4,28.6-325.9,46.3-490.7,53.7c-142.3,6.4-284.5,4.4-426.6-1.3
			c-107-4.3-214.3-7.4-320.4-21.5c-38.7-5.1-64.3,4.9-91.1,29.7c-43.7,40.4-86.7,81.3-120.4,130.7c-9.9,14.4-19.2,29.6-26.1,45.6
			c-29.3,67.8-15.7,112,46.7,151.8c55.2,35.2,117.7,50.6,180.3,66.1c24.2,6,35.3,2.5,44.8-23.5c27.1-74.3,79.8-124.1,156.3-147.5
			c32.1-9.8,64.9-15.9,98.1-20.2c106.4-14,213.6-15,320.6-17.3c157.2-3.4,314.3-14.1,471.6-2.6c114.6,8.4,212.7,45.1,267.9,155.5
			c4.9,9.7,10.2,10.6,19.9,7.1c52.9-19,105.7-38.8,148.3-76.6C2773.3,2446,2812,2392.5,2820.4,2331.3z M1909.7,1124.5
			c103.9-2.3,207.7-2.7,310.4,15.3c213.8,37.5,369.6,151.3,458.7,351.7c29.8,67,46.9,137.5,55.8,210c1.3,10.5,2.8,17.4,15.9,16.4
			c28.6-2,56.8,2.1,84.4,9.1c9.8,2.5,15.5,0.2,18.8-10c35.4-110.2,46.1-221,5.2-332c-47.5-128.9-145.8-209.7-263.9-269.1
			c-176.3-88.8-366.9-121.8-561.4-136.8c-129.7-10-259.2-4.4-387.8,15.3c-141.6,21.6-278.1,60.1-400.3,137.3
			c-224.9,142-309.3,352.1-291,610.6c1.1,14.9,4.8,22,22.2,20.3c33.2-3.3,66.7-4.5,100.2-5.4c12.8-0.3,18.3-4,17-17.4
			c-2.6-27.6,1.4-55.1,3.4-82.6c17.2-245.5,168.6-429,406.6-492.4C1637,1129.4,1773.6,1128.7,1909.7,1124.5z M2333.5,1784.8
			c100.2,2.4,182.9-17.8,265.3-40.4c11.1-3,14.3-7.5,13-19.2c-14.7-137-64.1-256.9-168.4-351.1c-17.4-15.7-21.9-13.1-30.6,7.4
			c-43.2,102.1-154,150.5-259.2,91.5c-82.7-46.4-129.2-116.9-135.7-212c-1.1-16.5-6.5-21.7-22.3-20.6c-22.5,1.7-45.2,3.1-67.7,2.1
			c-18.9-0.8-23.8,6.5-24.2,24.5c-3.2,122.1-7.3,244.2-11.6,366.3c-0.4,12.2,2.7,20.2,12.9,27.2c62.5,43.3,124.7,87,186.9,130.8
			c8.7,6.2,16.3,8.8,27.3,3.3c27.5-13.5,57.4-18.3,87.8-17.1C2253.9,1779.4,2300.6,1782.8,2333.5,1784.8z M1303.3,420.1
			c-109.4,0.2-205.7,35.4-284.4,111.9c-200.2,194.8-145,500.7,80.6,641.2c14.8,9.2,20.9,0,29.4-7.3c13-11.2-1.4-15.8-6.2-21.1
			c-99.7-109.8-114.8-259.1-38.1-379.9c56.2-88.4,149.7-131.8,246.1-114.1c134.3,24.7,245.5,141.6,265.1,277.6
			c1.4,10-2.8,26.5,11.6,28.8c12.8,2,24.3-3.7,30.7-19.4C1737.5,697.6,1585,420.2,1303.3,420.1z M2202.8,954.5
			c-6-11.9-11.1-21.3-15.5-31c-39.4-86.3-38.4-171.5,16.2-250.3c56.2-81,138.4-120,235.4-114c169.6,10.4,297.3,174.8,273.2,343.6
			c-8.9,62.8-32.3,118.9-70.2,169.5c-3.9,5.2-15.1,9.8-2.7,19.6c34.5,27.3,41.6,27.2,69.4-6.2c7-8.4,13.8-16.8,20.2-25.6
			c83.2-114.2,139-238,132.6-383.1c-5.7-129.7-77.8-221.1-203-254.6c-113.5-30.4-228.3-29.1-342.9-6.6
			c-73.8,14.5-139.2,46.5-191.3,102.4c-107.6,115.6-103.2,279.4-52.3,410c3.1,7.8,7.6,12.5,16.2,13.4
			C2125.4,945.7,2162.7,950,2202.8,954.5z M1309,1804.6c15.6-22.7,30.2-34.8,52.7-35.2c73.6-1.3,147.1-3.6,220.7-4.9
			c41.8-0.7,83.9-1.6,122.5,30.4c-5-25.2,9.6-35,23-46.2c36.6-30.5,72.6-61.8,109-92.5c8.7-7.3,14.2-14.6,14.5-27.1
			c2.8-114.5,6.7-229,9.6-343.6c1.1-42.3,0.2-41.9-42.4-39.5c-15.6,0.9-26.4,2.7-27.5,23c-4.5,83.6-45,147.1-113,193.9
			c-103.1,70.9-227.2,39.3-277.3-72.4c-11.3-25.2-18-19.8-33.2-6c-95,86-135.7,196-143.3,320.9c-3.6,58.3-3.8,59.1,54.8,65.9
			C1297.8,1773.5,1309.8,1778.4,1309,1804.6z M576.6,1096.6c-101.9,2.3-177.7,37-231.4,110.6c-71.9,98.6-61.3,201.8-12.6,300.6
			c6.4,13.1,13.5,8.2,22,4.9c130.7-50.5,261.5-47.6,391.9,0.4c16.2,6,22.6,0.2,30.5-11c59.8-84.8,74.9-175.4,26.5-269.3
			C754.4,1137.8,667.7,1102.2,576.6,1096.6z M802.9,1537.8c16.1,17.3,28,19.9,45.8-0.3c40.8-46.2,77.6-94.4,99.5-152.4
			c37.7-99.8,31.4-196.6-38.9-278.6C788.5,965.8,631.4,923.3,453.7,962.8c-118.4,26.3-214.9,90.5-268.8,203.3
			c-60.8,127.1-37.4,248.9,33.8,365c25.2,41.2,24.8,40.3,65.8,16.6c15.8-9.1,15.4-15.3,7.5-30.5c-33.7-64.7-48.8-133.9-35-206.4
			c35.3-185.3,215.6-294.8,398-243.2c132.3,37.4,216.5,143.6,217.5,273.4C873.1,1415.3,847.6,1480.1,802.9,1537.8z M1945.3,1165.3
			c-140.8,4.7-276.5,4.1-409.7,34.7c-294.3,67.6-405.9,300.2-399.2,540.4c0.7,26.9,20.7,14.9,32.6,17.8c16.6,4,13.9-9.2,13.6-18.9
			c-0.8-36.9,1.4-73.7,8.2-109.9c39-209.3,168.5-333.3,369.2-388.9c71.2-19.7,144.1-29,217.8-33.2c137.9-7.8,276-17.1,413,7.9
			c212.1,38.6,360.8,154.6,432.6,361.8c15.4,44.5,23.8,90.5,29.3,137.1c1.5,12.7,5.3,17.6,18.7,13.6c11.4-3.4,26.5-0.3,22.1-21
			c-5.3-25.3-7.9-51.2-13.8-76.4c-50.8-214.9-172.5-366.4-389.3-431.1C2175.9,1165.1,2057.9,1164.2,1945.3,1165.3z M1192.4,936
			c1-39.4,10.2-85.5,56.3-111.8c49.1-28,98.6-19,145.3,8.2c39.4,23,62.4,58.9,76.8,101.6c5.6,16.5-1.3,42.4,15.9,47.9
			c15,4.8,35-7.1,53.1-10.1c15.2-2.5,17.2-10,16.1-24.2c-8.4-111.5-97.2-219.1-208.9-250.4c-78-21.8-145.6-3.1-200.7,56.3
			c-89.1,95.9-91.3,238.6-6.3,346.7c26.6,33.8,26.6,33.8,62.6,9.3c6.2-4.2,12.2-9.1,18.9-12.3c13.1-6.3,12.9-13.7,6.2-25.6
			C1205.5,1032.6,1192.7,990.6,1192.4,936z M2313.2,973.2c-3-10.2-5.7-18.8-8.1-27.5c-15.1-55.2-18.9-110.4,3.4-164.7
			c24.1-58.7,73.9-84.5,135.5-69.6c69.1,16.7,114.9,59.4,134.5,127.9c18.5,64.7,7.9,127.3-16.4,188.7c-3.2,8-17.2,18.9,1.4,26.2
			c13.6,5.3,25.7,18.3,40.8-1.6c52.2-69.2,77.3-145.4,65.1-232.3c-16.1-115-122.6-216.8-233.6-219.2c-92.3-2-167.6,34.4-211.1,118.1
			c-41,78.8-25.8,155.2,24.5,226.4C2265.2,968.1,2286.6,973.4,2313.2,973.2z M186.7,1081.5c26.7-31.2,52-59.3,83.7-79.7
			c16.3-10.5,18.2-20.5,13.1-38.5c-37-130.6-15.6-251.4,63.8-361.6c28.6-39.7,65.7-70.5,110.9-99.5c-40.6-8.5-75.9-4.5-111.2-0.2
			c-79.6,9.6-144.2,41.8-177.8,119.6C102.5,775.9,104,928,186.7,1081.5z M2104.6,2447.7c-6-6.4-11.3-4.5-16-4.4
			c-84.4,1.9-168.7,5.9-253.1,5c-40.7-0.4-74.8,11.7-107.6,33.2c-67.8,44.4-119.6,102.3-155,178.9c113.9,9.6,224.4,14.7,335.4,7.7
			c11.1-0.7,15.6-6.3,19.8-15.5C1966.2,2567.3,2025.6,2499.9,2104.6,2447.7z M2518.3,2584.5c-25.6-54.7-64.1-93-119-113.7
			c-59.5-22.4-122.1-26.1-184.9-26.4c-7.2,0-14.8,2.6-21.6,5.5c-95,40.2-167.3,105.5-215.1,197.3c-2.3,4.4-8.9,8.9-2.1,16.7
			C2156.4,2647.1,2338.6,2633.1,2518.3,2584.5z M1679,946.8c115.1-13.6,225.9-16.6,337-11.2c12.4,0.6,11.2-5.6,8.8-14.1
			c-6.3-22.5-14.4-44.7-17.8-67.7c-7.4-50.3-37.9-82.4-79.9-105c-77.9-41.8-184.1-5.8-215,75.1
			C1697.7,861.6,1697.4,904.1,1679,946.8z M1690.3,2455.5c-23,0-38.7-0.7-54.3,0.1c-76.8,3.9-153.7,8-228.1,30.1
			c-64.9,19.3-107,62.7-130.9,124.9c-3.3,8.5-11.2,18.7,7.3,21.4c76.1,11,152.5,19.4,229.2,24.4c9,0.6,15.5-0.9,19.8-10.5
			C1566.7,2570,1618.7,2508.9,1690.3,2455.5z M2545.5,907.2c-0.4-63.9-21.1-116.5-82.7-145.5c-64.6-30.5-112.4-4.9-124.7,65.4
			c-9.1,52.4,3.2,101.1,21.9,149.3c4,10.3,11.6,13.4,20.6,15.7c39.7,10,79,21.8,117.1,36.7c12.5,4.9,17.5,1.5,22.4-9.9
			C2535.7,983.2,2545.6,946.5,2545.5,907.2z M692.4,504.6c-37.5-10.3-44.3-10.4-57.8,3c-109.3,108-172.8,238.3-190.5,391.1
			c-1.9,16.7,0.4,23.4,19,18.3c29.2-8,59.5-10.9,89.5-9.7c20,0.8,25.7-7,27.6-25.2c7-67.5,23-133.1,42.6-197.9
			C641.5,622.6,664.4,562.7,692.4,504.6z M577.5,503c-19.1,5.2-31.2,7.9-42.8,11.9C369.3,570.9,275,755,318.9,935.6
			c7.2,29.7,7.2,29.6,33.7,17.5c8.3-3.8,16.6-8.2,25.4-10.7c15.6-4.3,21.4-12.4,22.9-29.8c10.4-125,51.3-239.4,124.6-341.7
			C540.5,550,556.8,530,577.5,503z M620.1,899.2c-2.3,9.8,6,11.6,14.7,13.3c19.7,3.8,40.1,5.5,58.7,12.2c21.7,7.9,25.4-1,26.8-19.5
			c8.3-108,33.9-212.1,70.6-313.8c20.2-56.1,19.9-55.6-37.3-74.8c-14.6-4.9-20.1-1.2-26.2,11.9c-31.4,67.5-56.4,137.2-76.5,208.9
			C636.2,789.7,627.4,843.1,620.1,899.2z M913.3,1040.2c-4.1-8.1-8.2-16.2-12.2-24.4c-58.1-120.1-63.8-242.2-13.4-366.1
			c16-39.3,16.5-39.1-17-66.7c-1.3-1.1-2.7-2-3.9-3.1c-13.7-14-21.8-14.8-29.9,6.8c-41.6,110.9-68.3,224.9-77.7,343.1
			c-1,12.7,3.3,17.8,13.9,22.3C824.1,974.1,870.3,1003.7,913.3,1040.2z M1994.3,741.4c2.5-21.4,4.4-40.5,7.1-59.4
			c1.5-10.7-1.7-19.3-7.2-28.2c-67.7-108.6-227.8-106.4-292.1,4.3c-2.8,4.9-6.6,11-5.8,15.9c4,24.4,9.3,48.7,14.3,73.7
			C1792.8,676.8,1893.8,665.4,1994.3,741.4z M1233.8,952.6c1.6,30.3,12.4,65.8,30.3,99.4c5.6,10.7,10.7,14.5,23.1,8.1
			c43.8-22.5,89.4-41.1,136.1-56.6c8.1-2.7,15.8-5,14.6-16.6c-5.1-50.7-22.7-94.6-69.1-120.9C1294.6,823.8,1233.2,860,1233.8,952.6z
			 M938.9,2029.1c-10,110.7-6.2,220.9-3.2,331.9c45-72.5,104.7-130.1,171.2-187.2C1029,2147.4,975.1,2099.2,938.9,2029.1z
			 M2245.9,1456c63.3,0.1,124.8-50.5,136.7-112c1.9-9.7,0-15.8-9.2-20.2c-12.1-5.7-11.8,5.6-15.1,10.8
			c-36.9,58.8-93.1,85.7-149.3,71c-56.8-14.8-99.1-72.3-101.8-137.5c-0.3-7.5,5.1-19-6.1-21.5c-12-2.7-26.1-4.9-37-0.9
			c-11.6,4.3-1,17.6-2.5,26.7c-0.4,2.4,0.3,5,0.5,7.5C2071.6,1370,2161.2,1455.8,2245.9,1456z M1563.3,1459.7
			c90.8,0.3,193.1-106.6,187.3-195.8c-0.3-4.7,1.2-9.7-5.6-12.1c-18.4-6.4-40.9,7.7-42.7,27.6c-3.6,41-20,76-51.6,102.3
			c-62.4,51.9-144,35.5-194-37.7c-3.9-5.8-4.8-17.5-17.8-9.9c-8.9,5.2-10.8,10.7-8.4,20.4
			C1444.4,1410.6,1505.9,1459.5,1563.3,1459.7z M1926.5,493.1c0.3-43.2-15.1-72.8-44.4-85.3c-31.9-13.7-66.6-3.7-88.9,25.5
			c-21,27.6-22.5,71.2-4.5,96.6c6.6,9.3,13.9,7.1,22,5.4c25.6-5.2,51.3-5.6,76.9-0.5c36.4,7.3,37,7,38.8-31.7
			C1926.6,499.8,1926.5,496.5,1926.5,493.1z M2071.7,1828.6c-64.8-45.5-129.6-91-194.5-136.5c-3.9-2.7-8.1-7.5-13.3-3.2
			c-28.6,24.1-57.1,48.4-85.5,72.7c25.1,5.8,46.8,4.5,68.4,6c67.2,4.8,130.8,22.3,181.4,68.9c19.8,18.3,30,18.6,41.5-4.6
			C2070.1,1831.2,2070.6,1830.6,2071.7,1828.6z M2245.2,1367.1c34-2.8,59.1-24,77.6-55.1c6.8-11.3-0.8-14-9-17.5
			c-48-20.1-97.5-34-149.1-41.3c-10.8-1.5-15.1,0.5-16,12C2145.1,1315.4,2192.5,1367.9,2245.2,1367.1z M1566.7,1370.2
			c49.6,0,94.7-48.1,93.9-93.2c-0.2-11.1-3-14.7-14.4-12.6c-50.2,9.4-99.6,21.2-147,40.5c-10.4,4.2-12.5,9.1-5.8,18.5
			C1512.7,1351,1537.9,1368.2,1566.7,1370.2z M1011.9,1298.1c23-29,41.6-53.4,61.3-76.9c6.5-7.8,6.5-11.7-2.2-17.1
			c-33.5-20.6-62.8-46.5-92.2-73.5C1001,1182.6,1014.4,1236,1011.9,1298.1z M921.8,1518.9c-17.2,19.2-33.9,38.5-52.5,56.1
			c-4.9,4.7-6.6,8.5-1,14.4c13.5,14,26.3,28.6,42.9,46.8C911.9,1593.7,919.4,1557.3,921.8,1518.9z"/>
		<path class="st0" d="M379,1971.3c1.9-55.9,23-116.9,79.3-162.5c65.8-53.3,164-44.4,223.4,36.9c58.7,80.4,58.1,199.4-0.8,279.7
			c-68.4,93.1-191.4,92.7-258.7-1.2C392.5,2082.7,378.9,2036.1,379,1971.3z M683.2,1981.3c-0.4-50.1-16.7-100.5-61.8-138.2
			c-40.3-33.8-92.2-34.8-134.2-3.7c-85.1,62.9-89.8,216.3-8.6,284.3c50,41.9,109.3,39.3,155-7.8
			C668,2080.5,682.2,2036.7,683.2,1981.3z"/>
		<path class="st0" d="M1883,1887.8c40.8,0.8,74.7,36.2,73.2,76.3c-1.5,40.7-37,74.4-77.1,73c-41-1.4-74.3-36.3-73.1-76.7
			C1807.4,1919.4,1841.8,1886.9,1883,1887.8z M1913.5,1963.4c-0.4-19.7-16.7-36-34.1-34c-19.1,2.2-29.9,14.4-30.8,33.3
			c-0.9,18.3,15.3,32.8,34.2,31.6C1902.8,1992.9,1911.9,1980.8,1913.5,1963.4z"/>
		<path class="st0" d="M1581.1,1972.3c0.5,42-32.2,75.8-73.6,76.2c-41.4,0.4-74.8-33.2-74.8-75.1c0-40.3,32.4-73.8,72.5-75.1
			C1545.7,1897,1580.6,1931,1581.1,1972.3z M1539.6,1972.5c-0.6-18.3-15.9-32-35-30.5c-19.8,1.5-30.4,13.2-29.8,32.6
			c0.7,19.4,11.9,30.2,31.9,30.5C1526.2,2005.3,1540.2,1991.2,1539.6,1972.5z"/>
		<path class="st0" d="M2459.3,1946.1c0.4,41.7-32.7,75.7-73.9,75.9c-40.7,0.2-75.2-34.3-75.1-75.1c0.1-40.5,32.6-73.5,73.1-74.1
			C2425.6,1872.1,2458.9,1904.3,2459.3,1946.1z M2352.8,1945.6c0.9,19.9,10.4,31.8,30.1,33.5c18.2,1.6,34.6-13.4,35-31.2
			c0.5-17.9-15.1-34.2-33.2-33.1C2365.7,1915.9,2354.4,1926.4,2352.8,1945.6z"/>
	</g>
</g>
</svg>
