<?xml version="1.0" encoding="utf-8"?>
<!-- Generator: Adobe Illustrator 23.0.0, SVG Export Plug-In . SVG Version: 6.00 Build 0)  -->
<svg version="1.0" xmlns="http://www.w3.org/2000/svg" xmlns:xlink="http://www.w3.org/1999/xlink" x="0px" y="0px"
	 viewBox="0 0 3000 3000" style="enable-background:new 0 0 3000 3000;" xml:space="preserve">
<style type="text/css">
	.st0{stroke:#000000;stroke-width:10;stroke-miterlimit:10;}
</style>
<g id="Layer_1">
</g>
<g id="Layer_2">
	<g>
		<path class="st0" d="M1184.3,2754c-66.8,74.6-145,131.2-238.6,164.9c-87.9,31.7-178,41.7-269.5,19.8
			c-149.5-35.8-225.6-140.6-259-282.8c-15.1-64.2-16.8-129-2.1-194.1c14.4-63.9,46.2-114.8,102.1-150c7.5-4.7,14.5-10.4,26.4-19.1
			c-23.8-3.6-42.7-6.4-61.6-9.3c-104.7-16.3-153.3-68.5-162.7-173.4c-7.4-82.2-6.8-164.6-3.8-246.9c5.2-142.6,0.9-285.3,10.3-427.7
			c7-106.3,16.9-212.1,54.4-313.3c24.6-66.5,61.2-125.7,107.3-180.4c-23.6-6.3-45.6-9.7-65.6-18C347.4,892.6,315,830.7,310.4,755
			c-8-131.9-5.6-264,42.4-389.3C413.3,208,533.7,120.9,698.1,96.3c121.3-18.2,242.5-6,362.3,17c48.8,9.4,94.1,29.3,130.7,64.4
			c10.2,9.7,19.6,11.1,32.4,7.6c164-45,330.9-73.3,500.5-87.1c136.5-11.2,272.9-10.7,409.3-0.6c105.1,7.8,210.7,10.4,314.2,33.3
			c19.5,4.3,38.9,9.7,58,15.5c128.8,39,186.1,132.6,194.8,260.6c16.2,238.7,22.6,477.6,0.1,716.3
			c-14.3,151.3-70.3,285.9-169.6,401.1c-20,23.2-23,34.6,1.5,58.2c86.7,83.2,120.8,192.4,138.1,307.3c22.2,147,13.6,294.4,3.3,441.9
			c-6.6,94.5-17.8,188-45.8,278.6c-31.1,100.5-77.9,191.3-168,253.6c-45.5,31.4-95,46.1-149.8,46.8c-102.6,1.2-204.6-9.4-306.9-13.7
			c-156.5-6.4-313.1-13.8-469.6-21c-12.5-0.6-23.8,2.3-34.9,7.3c-90.4,39.9-170.5,20.1-242.4-43
			C1228.5,2815.7,1204.6,2787.3,1184.3,2754z M1213.1,625.5c0.9,0,1.7,0,2.6,0c0-72.3-0.8-144.6,0.4-216.9
			c0.5-33.3,0.4-66.6-5.9-99.1c-17.2-89.5-81.4-131.1-163.2-147.5c-106.6-21.4-214.9-31-323.5-18.1
			c-168.8,20.1-286.2,107.7-334.8,272.9c-32.8,111.6-39,227.6-26.6,343.2c9.9,92.7,73.1,141.5,165.9,126.3
			c34.5-5.6,25.7,21.2,36.9,32.4c13.1,13.1-4,19-10.4,25.5c-66.3,66.9-113.7,144.3-140,235.4c-27.5,95.5-36,193.3-39.7,291.6
			c-4.8,128.5-5.7,257.1-8,385.6c-1.4,78.3-4.3,156.6,1.1,235c6.7,96.7,39.3,131.5,135.9,143.2c20.9,2.5,42,5.5,62.1,11.2
			c40.6,11.6,49.6,49.7,18.8,78.3c-12.4,11.5-26.9,21.1-41.3,30c-42.6,26.5-67.1,65.3-78.3,113.2c-13.6,57.8-12.8,115.9,0.3,173.3
			c27.8,121.3,88.3,215.3,217.7,247.2c173.6,42.8,364.6-42.7,474.8-182.2c6.4-8.1,6.7-16.3,5.1-25.4c-25-140-27-281.6-29-423.1
			c-0.3-22.5-4-30.3-29.3-29.8c-85.7,1.6-170.8-5.9-250.8-40.4c-95.6-41.1-167.1-103.9-182.1-213.4c-4.1-29.7-4.5-60.2-3.4-90.2
			c8.6-246.9,25.2-493.1,55.6-738.4c19.4-156.5,90.5-227.7,248.3-250.3c70.5-10.1,140.7-6.3,209.5,9.1c31.5,7.1,31.8-5,31.6-28.8
			C1212.5,792.2,1213.1,708.8,1213.1,625.5z M1584,2827.3c65.6,2.6,123.6,4.2,181.6,7.2c165.4,8.6,330.7,17.3,496,27
			c22.5,1.3,31.3-5.3,35.1-27.4c18.1-104.5,39.4-208.5,64.9-311.5c33.2-133.8,57.5-268.7,55.6-407.1
			c-2.4-180.5-93.9-291.3-270.4-327.7c-79.9-16.4-161-21.5-242.5-18c-107.9,4.6-203.6,41.3-286.8,110c-37.6,31-63.5,69.2-68.8,119.1
			c-8.2,76.1-25.8,149.8-52.5,221.6c-25.8,69.7-73.1,113.1-145.8,129.3c-47.8,10.6-95.9,7.6-143.9,3.4c-13-1.1-21.3-1.8-20.2,15.2
			c6.8,109,3.7,219.1,31.7,325.8c20.2,77.1,74.3,126.1,146.6,151.6c70.6,24.9,129.8-7.8,181-53.9c69.8-62.9,112.4-142.9,137.4-232.6
			c5.9-21.1,14.2-25.5,36-19.6c24.3,6.5,17.2,18.8,12.8,33.6C1704.3,2667.3,1659.4,2751.3,1584,2827.3z M2660.9,664
			c-9.3,7.1-13.2,9.9-16.8,12.9c-102.1,86-216.2,149.6-346.7,180.3c-134.4,31.6-266.9,33.3-391.3-38.6c-11-6.4-19-2.9-27.8,1.3
			c-44.4,21.3-87.2,45-126.7,74.8c-13.1,9.9-16.4,20.1-14.5,35.8c21.9,176.7-49.6,309.4-210.7,391c-12.1,6.1-19,12.6-19,26.9
			c0.2,47.1-2,94.3,6.1,141.2c2.6,15.3,6.7,22.5,24.8,20.3c102.7-12.8,205.7-21.3,309.2-24.3c22.5-0.7,36.8-8.8,49.1-27.4
			c75.7-114.1,96.9-237.3,60.8-369.2c-8.2-30,14.3-23.7,26.8-30.8c19.3-10.9,19.2,5.9,21.9,16c20.3,74.7,25.5,150,9.9,226.4
			c-12.9,63.3-36.9,122-73,179.6c60.3,0,116.2-0.7,172.1,0.4c19.6,0.4,34.1-5.6,47.7-19.7c105.3-109.6,135.1-238.5,96.3-383.5
			c-8.1-30.4,14.5-23.5,26.5-30.9c15.4-9.6,18.9,1.9,21.8,12.7c37.1,138.6,19.9,268.1-65.2,386.1c-7.8,10.8-18.9,19.8-22.9,35.3
			c18.3,0.9,35.1-1.5,49.9,2.9c66.7,20,107.5-16.9,145.8-62.4c82.1-97.4,113.7-210.6,103.3-335.9c-2-24.1,12-23.1,26.5-25.6
			c16-2.7,22.8,2.3,24,20.3c9.7,137.9-22.3,262.7-113,369.7c-15.2,18-31.5,35.1-47.8,53.3c14.3,5.8,27,9.6,38.2,16
			c13.5,7.7,21.6,3.5,30.7-7.2c63.7-74.9,116.1-156.2,144.7-251.1c26.3-87.1,33.7-177,38.6-267.3
			C2666.1,885.7,2663.9,778.5,2660.9,664z M1411.1,1515.6c4.8,0.7,8.6,1.8,12.5,1.8c46.1-0.2,43.2,3.4,37.7-41.1
			c-12.2-97.7-5-194.9,25.3-288.9c58-180.1,173.5-311.9,340.7-399.3c7.9-4.2,31.3-2.5,13.9-24.4c-47.9-60.3-63.8-130.9-62.5-206.1
			c2.3-142.1,53.7-268.1,128.6-386.3c5.6-8.9,15.4-16,13.8-30.5c-11.2,0-22.1-0.1-33,0c-98.5,1.4-196.6,8.4-294.3,21.1
			c-112.5,14.6-223.7,36.5-333.5,65.2c-11.3,2.9-25.1,2.6-16.3,22.1c19.2,42,23,87.3,22,132.6c-2.6,122.5-8.8,245-4.5,367.6
			c3.8,106.5,2.2,212.9-3.8,319.3c-0.9,15.5,4.5,23,17,31c70.6,45.7,115.1,110.7,136.9,191.3
			C1431.7,1365.4,1427.4,1440.2,1411.1,1515.6z M2159.8,826.9c179.1-5.1,344.9-88.4,489.3-221.4c8.2-7.6,10.6-16.1,10.5-26.7
			c-0.7-74.4-5.9-148.2-18.2-221.8c-13.2-78.6-58.4-127.9-130.5-155c-25.2-9.5-51.4-17.4-77.8-22.5
			c-140.5-27.1-283.2-30.6-425.5-37.7c-12.2-0.6-20.5,3.3-27.8,13.5c-82.9,114.2-139.6,238.8-150.7,381.3
			c-9.9,126,38.1,213.4,139.9,258.1C2023.3,818.6,2080.4,826.1,2159.8,826.9z M2586.8,2255.1c0.2-47.1-1.1-94.1-5.6-141.2
			c-22.3-234-166.9-401.4-396.9-452c-185.1-40.7-367.4-19.1-546.4,36.5c-91.1,28.3-153.7,88.7-182.9,180.8
			c-13.6,43-27.2,86.1-37.7,129.9c-14,58.5-22.7,118.3-37.9,176.4c-15.6,59.6-55.9,85.2-117.2,79.4c-16.8-1.6-33.1-7.8-49.7-11.1
			c-8.4-1.7-17.9-13.3-24.4-4.7c-8.6,11.4-4,27.1-3.1,40.9c0.8,13.3,12.2,10.7,20.5,12.1c32.8,5.8,66.1,7.2,99.1,4.3
			c58.9-5.1,111.3-24.8,136-83.6c22.5-53.5,42.7-108.4,48.8-166.9c7.4-71.9,18.8-142.5,74.4-195.2c66.1-62.6,144-105.1,232.8-126.2
			c117.6-28,235.9-19,352.7,2.3c200.1,36.4,308.4,162.5,316.9,365.7c5.5,131.2-14.9,259.6-45,387.2c-26.9,114.1-49.7,229.1-74,343.8
			c-2.4,11.3-7.4,27.4,14.4,21c41.9-12.2,80.2-28.6,102.3-71.6C2548.9,2617.1,2592.8,2442,2586.8,2255.1z M2632.7,2095.9
			c-0.1-138.3-8.4-275.2-76.4-400.1c-47.3-86.8-116.4-143.2-218.4-155.6c-108.1-13.2-216.5-10.2-324.8-9.7
			c-162.7,0.8-325.3,9.5-486.3,31.9c-92.8,12.9-169.4,65.9-235.6,131c-43,42.2-72.1,93-80.7,154.5c-13.4,95.6-18.9,191.7-22.3,287.9
			c-2.1,58-0.2,59.3,56.1,75.1c1.9,0.5,3.9,0.9,5.9,1.3c49.3,12.4,72.5-1.2,83-50.2c16.8-78.3,33.5-156.6,52.6-234.5
			c38.3-156,129.3-257.6,287.7-293.9c137.3-31.5,275.7-52.5,417.5-37.9c144.6,14.9,275.9,59.7,382,163.9
			C2567.1,1852.2,2613.1,1967.5,2632.7,2095.9z M977.2,1543c-24.2-23.1-52.1-43.2-70.4-72.5c-44.2-70.8-6.7-163.3,74.2-184.3
			c22.2-5.8,42.2-2.7,60.5,9.3c88.6,58.1,107.2,159.6,50.9,225c-1.5,1.8-1.4,5-2,7.3c18.9,8.4,38.3,6,57.1,8.2
			c28.2,3.3,38.4-6.6,39.2-35.8c3-103.3,8.4-206.6,13.4-309.9c3.7-75.3,4-75.3-69.5-92.5c-156.9-36.6-237.9,12-268.1,159.9
			c-24,117.5-28,237.1-35.8,356.2c-6.3,96.1-11.8,192.2-1.2,288.7c7.3,66.7,45.2,105.1,104.5,126.3c62.2,22.3,126.5,18.9,190.6,10.9
			c11.9-1.5,24.1-5.3,24.1-23.9c0-122.7,33.7-242.1,34.1-365.1c0.2-64.9,3.9-64.2-58.8-66.9c-18.1-0.8-24.9,2.2-23.1,22.3
			c3.3,36.7-2.2,72.8-23.8,103.5c-10.9,15.5-9.9,25.8,0.3,41.6c32.7,50.7,21.3,125.2-22.9,165.5c-42.5,38.8-99.3,38.7-141.2-0.1
			c-40.5-37.5-45.9-93.5-8.5-137.8c17.3-20.5,16.2-30-1.2-49.6c-39.9-45.2-33.6-101.7,12.9-140.5
			C932.2,1572.3,954.7,1558.8,977.2,1543z M770.7,1758.1c-0.6-114.5,10.7-231.5,20.1-348.6c6.7-84,15.5-168.2,48.5-247.2
			c30.2-72.3,85.4-111.1,162.4-122.2c45.6-6.6,89.9,0.6,134.7,6.7c23.6,3.2,51.9,30.7,68.4,8.6c13-17.4,5-50.4,7-76.4
			c1-13.6-3.9-19.5-17.6-22.1c-72.3-14-144.6-22.3-218.5-12.1c-115.6,15.9-174.1,66.2-195.5,171.4c-3.6,17.7-5.7,35.6-8.3,53.5
			c-21.5,152.3-30.4,305.7-40.6,458.9c-6.8,101.1-15.3,202.2-12.9,303.9c2.2,96.9,52.1,159,135.2,199.9
			c66.3,32.7,137.8,41.6,210.4,45.6c73.1,4,73.2,3.7,75-70c0.4-15.4-1.9-21-19.2-18.3c-49.8,7.8-99.7,8.4-150,0.6
			c-122.5-18.8-189.5-88.4-197.6-208.7C769.5,1841.7,766.1,1801.6,770.7,1758.1z M1254.4,1145.4c-4.2,76-8.3,145-11.8,214
			c-2.6,50.1-4.2,100.3-6.7,150.5c-0.6,13,1.3,20.9,17.5,19.4c30-2.8,60.1-4.6,90.2-5.6c14.5-0.5,15.2-11.1,17.6-20.2
			c16.1-62.2,19.3-125,5-187.9C1350.8,1247.8,1315.8,1192.3,1254.4,1145.4z M1520.8,1267.5c135.1-64.3,191.6-226.1,164.2-311.7
			C1609.8,1019.2,1529,1171.8,1520.8,1267.5z M1073.5,1432.6c-2.4-42.6-25.7-72.4-60-94.9c-10.1-6.6-21.4-4.1-31.7,0.7
			c-42.8,19.8-56.2,69.3-29.5,108.7c10.8,15.9,24.2,29.4,39.2,41.2c31.5,24.8,52,20.3,72-15.3
			C1070.6,1460.6,1074.6,1447.4,1073.5,1432.6z M1047.7,1621.3c0.7-43.3-10.5-50.7-48-30.3c-21,11.4-41.5,23.9-59.3,40.3
			c-19.3,17.8-20.5,37.7-7.9,59.3c19.5,33.6,74.9,31.6,96.6-3.8C1041.3,1666.9,1047.1,1644.7,1047.7,1621.3z M926.6,1845.6
			c0.8,32.3,39,58,69.1,46.5c42.1-16.1,60.9-81.3,33.6-117.1c-4.9-6.4-9.8-11.7-19.4-11.9C976.2,1762.3,925.7,1811.8,926.6,1845.6z
			 M1361.5,1573c-41.8,2.1-75.8,3.8-109.8,5.7c-8.9,0.5-19.9-0.2-20.2,12.5c-0.7,29.1-0.2,58.3-0.2,92.5
			C1268.9,1639.1,1311.4,1607.8,1361.5,1573z"/>
		<path class="st0" d="M1621.6,2195.3c0.1-60.8,47.8-109.4,107.8-109.6c60.5-0.3,110.2,50.4,109.5,111.6
			c-0.6,59.6-50.9,109-110.3,108.3C1668.5,2304.8,1621.5,2256.4,1621.6,2195.3z M1788.5,2196.8c0.6-32.9-24.8-59.2-57.7-59.9
			c-32.4-0.6-59.7,25.4-60.4,57.5c-0.7,32.1,25.7,59.3,58.1,59.8C1761.5,2254.8,1787.9,2229.6,1788.5,2196.8z"/>
		<path class="st0" d="M2310.5,1966.6c-0.6,60.8-48.8,108-109.9,107.6c-60.8-0.4-108.7-48.6-108.6-109.2
			c0.1-61,51.3-111.3,111.8-109.8C2263.8,1856.7,2311.2,1906.1,2310.5,1966.6z M2199.7,2023.9c32.9,0.8,60-24.5,61-57
			c1-32.4-24.8-60-57.4-61.2c-31.3-1.2-60.4,26.2-61.4,57.7C2140.9,1995.7,2167,2023,2199.7,2023.9z"/>
		<path class="st0" d="M2086,2050.2c-0.4,60.3-48.9,108.5-109.5,108.5c-62.2,0.1-110.2-48.8-109.2-111.2
			c1-60.3,50.4-108.6,110.3-107.9C2036.9,1940.3,2086.3,1990.8,2086,2050.2z M1975.7,2108.3c32.9,0.3,59.6-25.5,60.1-58.1
			c0.5-31.4-27.3-59.7-59-60c-32.5-0.3-59.3,26.1-59.6,58.8C1917,2081.8,1942.8,2108,1975.7,2108.3z"/>
		<path class="st0" d="M1835.2,1193.2c-0.7,62.6-6.6,111.1-20,158.8c-4.6,16.3-12.5,19.1-25.9,12.9c-11.1-5.1-29.9-2.5-23.2-25.8
			c25.6-88.9,25.3-178.1,0.6-267.3c-7.2-26,16.8-18.6,27.5-24.6c14.1-7.8,18.2,1,21.9,13.7C1830,1108.6,1834.1,1157.4,1835.2,1193.2
			z"/>
		<path class="st0" d="M2246.9,698.4c-82.9-0.2-146-61.6-146.7-142.9c-0.6-79.5,65.6-146.5,145.2-147
			c79.4-0.5,146.1,65.6,146.8,145.4C2392.9,634.6,2328.5,698.6,2246.9,698.4z M2151.5,554.8c0.4,54.5,41.1,94.9,95.3,94.7
			c53.8-0.2,94.9-42.1,94.2-96c-0.7-52.8-41-92.6-93.9-92.8C2192.4,460.6,2151.1,501.2,2151.5,554.8z"/>
	</g>
</g>
</svg>
