<?xml version="1.0" encoding="utf-8"?>
<!-- Generator: Adobe Illustrator 23.0.0, SVG Export Plug-In . SVG Version: 6.00 Build 0)  -->
<svg version="1.0" xmlns="http://www.w3.org/2000/svg" xmlns:xlink="http://www.w3.org/1999/xlink" x="0px" y="0px"
	 viewBox="0 0 3000 3000" style="enable-background:new 0 0 3000 3000;" xml:space="preserve">
<style type="text/css">
	.st0{stroke:#000000;stroke-width:10;stroke-miterlimit:10;}
</style>
<g id="Layer_1">
</g>
<g id="Layer_2">
	<g>
		<path class="st0" d="M2005.3,2755.5c-12.3,27.2-26.8,50-47.4,68.7c-66.3,60.6-179.9,57.4-240.8-15.9c-9.8-11.8-14.2-18-28.5-2.1
			c-68.3,76.7-165.8,82-244.9,14.6c-10.1-8.6-15.9-11.8-27.6-1.9c-103.4,88-223.9,122.1-358.1,112.2c-83.5-6.2-167.2-10.2-249-29.9
			c-43.3-10.4-83.5-27.7-115.9-59.1c-10.6-10.2-20.5-10-33.3-6.3c-42.2,12.1-85.3,19.7-129.1,24.3
			c-185.6,19.6-315.7-73.2-356.3-255.2c-19-85.4-22.2-172.3-21.5-259.1c1.6-193.1,9.7-386,17.9-578.9c9.4-222.5,18.5-445,27.9-667.5
			c1.7-39.8,4.1-79.6,6-119.4c0.5-11.2,0.6-21.3-10.6-29.6C118.6,895.7,93.7,816.2,92.7,728c-1.2-111,14.3-220.3,54.5-324
			C219.3,217.6,359.5,109.7,553,73.9c183-33.9,365.8-33.4,543.9,31.5c8.9,3.2,17.7,4.1,26.9,4.5c338.1,15.7,676.2,13.8,1014.3-0.7
			c96.9-4.2,193.6-13.1,290.8-12.3c64.5,0.5,128.6,3.7,191.6,19.3c28.9,7.1,56.8,17.3,82,33c55.5,34.5,86.8,81.5,77.7,150.4
			c-14,105.2-26.2,210.6-40,315.8c-5.9,45.5-13.5,90.8-20.9,136.1c-3.9,24.3-7.7,50.5-24.2,68.4c-23.2,25.2-12.3,38.6,7.4,58.2
			c93,92.7,140.9,205.2,146.3,337c7.1,171.9-3.8,343-16.7,514.1c-12.4,163.9-27.4,327.6-40,491.4c-4.7,61.4,1.4,122.6,14.5,182.7
			c10.4,47.9,14.2,93.6-33.6,133.8c27.8-2.3,47.9-2.7,67.8,1c40.9,7.6,65.7,33.5,68.3,74.7c2.9,45.9,3.7,91.9,6.6,137.7
			c3.4,55.6-21.7,95.4-65.3,127c-60.9,44.1-131.7,53.1-203.1,59.2c-86.7,7.4-173.6,5.5-260.4,0.3c-64.6-3.9-117.6-31.9-160.5-79.2
			c-11.2-12.3-20.5-17-38.7-14.2c-71.9,10.9-130-14.1-172-74.4C2012.8,2765.2,2009.7,2761.4,2005.3,2755.5z M1189.9,2386.3
			c32.7,20.3,65,34.9,98,48.2c175.6,70.9,358.2,87.5,544.6,65.1c130-15.7,253.6-52.8,363.7-127.2c99-66.9,161.6-155.7,174.7-277.7
			c20.5-190.2,29.9-380.8,30.7-572c0.1-31.5,3.5-62.8-42.9-60.5c-3.7,0.2-7.8-2.4-11.3-4.4c-74.1-40.6-141-30-200.6,28.9
			c-20.7,20.4-27.1-6.6-39.4-11.8c-15.2-6.5-5-16.2,2.1-23.6c37.4-39,82-64.1,136.7-66.8c21-1,28.7-4.7,20.5-28.3
			c-10.6-30.7-18.4-62.5-21.5-95.2c-9.9-104.7,35.7-179.6,133.3-215.3c11.4-4.2,13.4-10.6,12.7-20.6
			c-4.9-74.7-32.2-133.1-107.8-162.9c-60.2-23.7-123.6-34.3-186.7-46.6c-18.4-3.6-22.7,1.8-19.3,20.7c8.7,48.2,16.7,96.6,22.1,145.3
			c25.5,229.4-3.3,454.8-55.7,677.6c-45.7,194.3-147.3,347.8-337.9,427c-154.8,64.3-315.4,66.5-477.8,30.5
			c-17.8-4-28.1-6.6-22.7-28.6c4.6-18.7,10.8-26.9,31.6-21.5c57.5,14.8,116.5,20.2,175.7,21c266.6,3.7,488.3-110.6,568.9-396.9
			c57.6-204.5,84.6-413.9,73.8-627c-3.9-77.6-15.1-154.4-30.2-230.6c-2.3-11.4,0.8-28.3-18.9-30.1c-18.3-1.6-36.6-3.7-54.8-6.1
			c-17.9-2.4-23.2,4.8-21.2,22.4c6.6,59,4.5,118.4,4.6,177.7c0.4,150.1,3.7,300.3-13,449.9c-10.5,94.4-39.9,181.1-107.4,251.6
			c-94.6,98.9-212.4,150.6-346.2,165.2c-181.9,19.8-336-48-473.9-160.6c-15.5-12.6-30.2-26.2-48.7-42.2c-1.8,11.9-3.4,18.7-3.7,25.5
			c-6.6,179.7-12.9,359.5-5.3,539.4c1.8,41.7,5.7,83.5,17.6,123.9c12.8,43.4,38.3,58.6,83.5,50c29.4-5.5,56.4-17.2,82.1-32.3
			c49.6-29,95.4-63.5,136.3-103.5c19.5-19.1,25.4-3.3,37.1,6.6c16.6,14,9.4,22.8-3.7,33.3
			C1257.2,2329.8,1225.3,2356.9,1189.9,2386.3z M145.9,707c-11.5,97.5,32,185.4,109.6,221.9c31.7,14.8,65.8,22.3,100.2,26.1
			c211.3,23.6,423.3,33.4,636,28.4c18.9-0.4,31.5-6,44.1-20.8c53.7-63.1,120.4-110.3,194.4-146.2c16.6-8.1,22.8-14.9,22.1-32.7
			c-5.5-138.9,0.2-277.7,4.5-416.6c2.7-87.3-31.7-152.4-114.3-187.8c-27.1-11.6-54.6-22.8-82.5-32.4c-140.2-48.3-284-50.8-429.5-34
			c-91.3,10.6-178.9,32.8-256.4,84.1C293.4,250.5,234,322,197.2,416.6c12-2.6,19.7-4.5,27.5-5.9c8-1.5,16.1-3,24.2-3.8
			c100.2-10.3,196.2-5.4,274,71.2c70.3,69.4,60.8,149.5-25,198.8c-66,38-136.9,56.7-213.8,53.8C236.9,729.1,191.4,718.5,145.9,707z
			 M1249.9,1789.6c-2.9-101.6,4.2-199.1,28.6-294.5c72-281.4,241.4-473.7,519.9-565.2c27-8.9,63.8-8.4,79.3-26.5
			c17.3-20.2-0.7-56.6,1.8-85.9c1.8-21.3-5.8-27.1-27-28.3c-119.6-6.7-238.9-1.1-358,8.8c-98.5,8.2-191.9,31.8-278.8,82.8
			c-128.4,75.3-209,180.2-232.9,329.5c-16.6,104.1-21.4,209-32.4,313.4c-5.7,53.9,11,86.4,50.5,118.8
			C1075.5,1703.6,1153.4,1757.9,1249.9,1789.6z M1222.9,166.3c47,41.1,73.2,85.9,80.5,141c5.5,41.6,5.7,41.9,49.3,41.5
			c212.5-2,424.9,0.9,637,17.2c108.8,8.3,217.6,19.6,327.2,7.8c142.5-15.4,262.9-75,366.1-175.9c-34-22.6-70.3-31.9-107.4-38.9
			c-109.7-20.5-220-11.1-330-4.9c-320.5,18.1-641.1,21.9-961.9,12.2C1265.7,165.9,1247.6,166.3,1222.9,166.3z M985.5,1034.7
			c-82.7,6.8-161.7-10.9-238.7,14c-119.4,38.5-204.2,109.5-226.1,239.8c-4.9,29.2-9.4,58.5-12.8,87.8c-8,68-17.4,135.9-8.8,204.6
			c9.2,73.9,47.5,119.5,114.7,127.9c86.8,10.8,173.2,6.4,257.7-19.4c15.4-4.7,20-12.2,20.6-27.9c2.2-53.1,4.9-106.2,10.6-159
			c3.1-28.3-2.1-37.7-33.5-38.3c-77.5-1.5-137.5-36.2-170.4-108.9c-16.7-36.9-17-75.4,0.3-112.7c2.9-6.3,4.6-16.7,16.2-14.8
			c16.2,2.7,30.8,28.4,26.4,45.2c-2.1,7.8-3.3,16-3.4,24c-0.8,63.6,59.2,114.7,135.9,118.2c24.6,1.1,33.6-6.7,35.5-32.1
			C918.8,1265.9,932.4,1149.3,985.5,1034.7z M445.2,1017.3c-56.5-9.6-110.6-8-161-25.1c-27.7-9.4-29.5,2-30.4,24.4
			c-6,152.1-13.1,304.1-19.6,456.2c-11.4,266.4-23.5,532.9-29.1,799.5c-2.2,105.2-2.9,210.5,18.3,314.5
			c15.1,74.2,43.4,140.4,109.9,183.8c28.9,18.8,30.8,17.8,37.2-15.5c19.2-99.9,9.4-199.5-4-298.9c-15.8-117.4-31.3-234.7-38.9-352.9
			c-11.7-181.7-8.4-363.6-6-545.4c1.3-99,3-198.3,18.3-296.4C353.9,1172.7,382.1,1089.3,445.2,1017.3z M641.3,2475.7
			c-6.3-0.6-10.1-1.3-13.8-1.2c-115.7,3.3-170.7-62.3-146.1-174.5c2.4-11,4.7-22,8-32.7c28.5-94.4,23.7-187.1-12.6-278.8
			c-10.1-25.5-18.6-51.7-20.5-79.7c-4.3-62,19.8-113.3,58.1-159.8c5.2-6.3,19.5-12.9,5.6-24.4c-75.3-62.5-79.1-147.9-73.7-235.1
			c3.4-54.9,9.9-109.8,16.6-164.4c9.7-80.1,31-155.6,88.6-216.5c27.9-29.5,60-53.4,100.2-77.3c-40.8-2.9-74.3-4.1-107.5-7.9
			c-22.7-2.6-38.7,5.8-54,21.4c-55,56.4-80.2,126.7-95.2,201.8c-20.5,102.8-18.3,207.2-21.5,311.2c-9.2,298.4-2.1,596,44,891.9
			c17,109.1,25,219.6-0.1,328.9c-5.7,24.6,3.8,27.7,22.7,29.6c58.6,5.9,116-0.9,173.4-12.4c27.4-5.5,36.2-14.2,20.2-40.3
			c-6.7-10.9-9.2-24.7-12.3-37.5C601.7,2636.8,614,2558,641.3,2475.7z M755.4,2403.6c-25.8,15-41.9,34.1-52.9,57.9
			c-17.7,38.3-30.3,78.5-35.5,120c-17.4,139.2,24.1,255.2,195.2,279c76.9,10.7,154,18.8,231.6,21.1c108.7,3.3,204.5-31.2,288.5-100
			c14.5-11.8,20.3-21.8,13.7-41.2c-6.8-20-7.6-41.7-4.5-63.6c8.1-57.8,39.9-99.1,92.3-131.9c-37.1-8.9-70.1-14.8-101.6-25.1
			c-23.8-7.8-37.2-3.3-53.5,16.8c-121.1,149.2-335.4,164.3-475.6,34.7C804.8,2526.3,773.9,2470.7,755.4,2403.6z M2413.1,905.1
			c21.5,56.2,21.5,56.2,75.8,56.1c88.1-0.3,141.4,37.2,170.4,121.2c7.3,21.1,13.3,43,17.3,64.9c54.2,296.8,38.4,590.6-50.7,878.2
			c-50.1,161.6-43.1,317,12.5,473.9c9.2,25.9,21.4,31.4,44.8,22.5c8.5-3.3,17.8-4.7,26.3-8.1c47.6-18.8,56.5-36.1,48.8-86.6
			c-9.7-63.5-23.6-127.3-18.9-191.6c13.3-181.3,31.1-362.2,44.6-543.5c11.5-153.9,19.3-308,14.8-462.4
			c-3.5-119.3-43.5-222.6-125.8-310.4c-26.3-28.1-47.5-40.8-87.5-24.2C2531.7,917.1,2472.9,908.5,2413.1,905.1z M1949.6,742.1
			c-64.9-54.3-108.1-120.4-123-203.4c-6.8-37.4-8-74.7-4.4-112.8c3.4-36.3-27-17.1-41.9-20.6c-21.9-5.2-14.6,10.7-12.6,22.3
			c12.6,71.4,11.1,142.1-9.1,212.2c-3.6,12.6-2.9,28-24.5,18.6c-15.5-6.7-33.7-6.2-25.2-33.1c20.4-64.7,19.5-130.5,6.8-196.9
			c-4-20.5-12.6-26-32.1-26.7c-116.5-4.3-232.9-3.3-349.4-1.9c-21.2,0.3-27.6,7.1-28.2,28.1c-3.5,110.3-4.7,220.6-3.8,331
			c0.2,22.6,7.7,21.9,24.8,16.8c53-16,107.6-23,162.6-28.2C1642.2,732.9,1795.1,730.7,1949.6,742.1z M2651.3,1482.6
			c0-44.9,2.8-90.1-0.6-134.7c-6.2-82.4-12.5-165.3-38-244.5c-23.7-73.5-75.6-102.8-151.8-90.7c-7.8,1.2-18.4,0.4-17.4,12.2
			c0.8,10.2-6.1,23.4,8.3,29.8c74.3,33,84.6,96.8,84.6,168.2c0,50.4-14.4,99.2-13,149.2c2.7,93.9,9.6,187.8,10.4,281.7
			c1,129.7-2.4,259.6-32.7,386.6c-32.9,137.9-44.2,275.8-15.9,415.8c12,59.3,11.4,59.4,72.6,68.9c35.9,5.5,37.5,3.8,25.8-30.8
			c-53-156.2-60.5-312.3-9.6-471.7C2629.8,1847.3,2656.2,1666.7,2651.3,1482.6z M884.3,1808.4c0.5,0,1,0,1.5,0
			c0.8-15.3,0.6-30.7,2.5-45.8c2.7-21.1-4.9-23.9-24.1-18.6c-88.9,24.1-179.1,28.2-269.9,13.4c-11.2-1.8-18.8-1.4-26.8,7.6
			c-52.1,57.7-78.2,119.6-45.4,198.2c41.7,99.9,49.3,203.2,19.9,308.5c-7.1,25.4-13.5,51.4-16.9,77.5c-4.2,33.1,12.8,54.5,49.3,67.7
			c38.5,13.9,70.4,8.1,87.8-17.3c20.1-29.4,47.7-50,76.4-69.6c47.7-32.6,55.5-60,28.4-111.6c-17-32.4-39.2-62.1-56-94.6
			c-49.7-96.2,8.3-216.2,113.7-240.2c19.8-4.5,47.8,10.5,57.9-11.5C890.8,1854.2,884.3,1829.8,884.3,1808.4z M2510.2,2889.4
			c62.6-0.1,117.7-0.4,172.5-7.7c50.9-6.8,100.3-17.3,142.8-49.3c26.5-20,40.5-44.4,38.1-78.5c-2.3-32.6-2.9-65.3-3.1-97.9
			c-0.4-66-12.1-76.4-78.1-67.9c-5,0.7-9.9,2.5-14.9,3.3c-41.5,6.7-70.7,34.2-101.9,59c-64.2,51.1-199.8,51.7-241.6-57.8
			c-10.2-26.7-34.3-41.2-62-38.8c-27,2.4-32.3,27.4-36.7,50c-2.2,11.1-2.2,21.9-0.6,33.3c8.9,64.3-3.9,122.2-54.7,166.8
			c-11.7,10.3-10.6,16.7-0.1,26.4c28.3,26,58.9,46.4,98,52.8C2417.7,2891.2,2467.8,2887.2,2510.2,2889.4z M1884.2,1175.4
			c-18.9,3.2-29.9,12.6-41.6,20.1c-84.3,54.5-154.4,123.4-209.1,207.8c-74.1,114.4-110,240.2-112.6,376.1
			c-0.4,19,2.7,24.5,24.1,18.1c34.3-10.3,68-22,99.9-37.8c119.4-59.3,199.7-148.9,221.6-284.9
			C1882.4,1376.4,1878.8,1277.3,1884.2,1175.4z M2293.6,809c80.5,45.5,160.5,56.5,242.8,44.9c96.2-13.5,127.1-53,136.6-133.2
			c11.6-97.2,27.1-193.8,39.9-290.9c6.9-52.6,12-105.4,17.5-158.2c1.2-11.3,0.6-25.7-8.4-31.2c-10.6-6.5-15.8,9.2-24.1,14.1
			c-55.8,32.3-68.3,77.6-64.4,142.9c7.9,135.6-40.8,252.2-152.8,336.7C2427.5,774.3,2366,794.8,2293.6,809z M297.7,680.1
			c71.1,0.3,149.2-24.5,194.4-61.7c31.6-26,35.5-52.4,11.2-84.8c-23.8-31.8-54.9-54.8-92.9-66.6c-73.5-22.9-146.7-15-219.8,3.7
			c-10.6,2.7-15.1,7.2-17.2,17.5c-10,47.8-19.4,95.7-25.3,144.3c-1.9,15.4,2.9,22,17.3,26.1C208.9,670.9,252.5,680.5,297.7,680.1z
			 M1302.6,1721c0,22.4,0.5,44.9-0.2,67.3c-0.5,17.6,10.7,19.3,23.8,20.5c18.4,1.6,12.3-12,12.7-20.7c2.4-50.9,3.4-102.1,12.6-152.3
			c53.9-294,215.7-499,500.2-600.4c29.9-10.7,35.8-25.1,33.5-52.7c-1.5-18.1-5.6-22.6-23.7-18c-156,39.6-288.5,117.3-389.7,243.6
			C1352.2,1357.9,1306.3,1532.9,1302.6,1721z M1881.8,1077.9c-164.1,54.3-294.3,151.6-383.9,300.5
			c-69.9,116.3-101.5,243.5-106.7,378.6c-2.4,61.7-4.8,61.5,56.1,58.1c17.3-1,21.7-6.9,22-24c0.6-35.6,2.1-71.6,7.5-106.8
			c37.6-248.1,165.9-434.7,384.2-558.7C1881,1114.2,1891.1,1102.7,1881.8,1077.9z M1098.5,2607.4c58.8-0.6,127.6-33.1,184.2-93.5
			c12.8-13.6,14.6-21.1-5.9-29.2c-33.1-13.2-66.6-26.7-96.7-45.3c-28.7-17.7-52.1-20.1-83.6-5c-48.3,23.2-101.1,31.7-148.3-3.4
			c-35.1-26.2-74.2-35.5-115.7-41.7c-26-3.9-26.2,7-19.9,27C848.4,2528.4,955.7,2607.2,1098.5,2607.4z M2251.4,463.2
			c-5-9.9,12.1-34.3-17.5-33.7c-65.5,1.3-130.6-5.3-195.9-7.8c-11.1-0.4-16.7,1.8-18.2,14.2c-4.6,38.5-12.1,76.7-15.4,115.3
			c-4.9,57,21.8,101.7,66.9,114.1c26.6,7.3,54.3,10.2,81.9,7.5c47.8-4.6,69-23.4,80-70.5C2243.9,557.4,2249.3,511.8,2251.4,463.2z
			 M2484.7,1232.2c0.9-21.8,1.6-41.1-2.2-60.4c-8.9-46.1-30.7-69.3-72-75.1c-40.6-5.8-68.7,11.1-91.5,51.1
			c-39,68.3-22.1,136.1-0.3,204c14.1,44,39.6,65,77.9,65c40.5,0.1,54.4-31.6,68.1-61C2483.4,1316,2480.7,1272.2,2484.7,1232.2z
			 M2513.3,376.1c-67.1,26.7-128.7,43.4-193.1,47.9c-14.4,1-18.6,8.1-18.1,21.8c1.6,47-5.3,93.4-12.6,139.7
			c-6.4,40.5,16,67.7,56.9,68.3c47.9,0.7,89.6-15.8,124.9-48.2c9.2-8.4,18-18.1,19.5-30.3C2498.7,510.9,2505.5,446.3,2513.3,376.1z
			 M1560.6,2581.4c-67.5-0.3-118.7,50.4-118.5,117.3c0.2,65.5,50.7,116.3,116.3,116.9c65.8,0.6,117.3-49.5,117.9-114.7
			C1676.9,2632.4,1627.8,2581.7,1560.6,2581.4z M2156.9,2795.8c63.6,0.6,119.5-53.3,119.4-115.3c0-67.5-50.5-118.8-117.2-119.2
			c-67-0.4-119.8,51.3-119.5,116.9C2040,2741.9,2093,2795.2,2156.9,2795.8z M1729.7,2697.4c-0.2,69.8,47.2,117.8,116.2,117.5
			c65.4-0.2,116.8-50.8,117.5-115.8c0.7-64.6-53-117.9-118.8-117.8C1777.5,2581.5,1729.9,2629.7,1729.7,2697.4z M2473.5,1442.1
			c-19.2,4.5-22.2,16.6-21.8,32.4c4.4,183.9-7,367.2-20.9,550.3c-9.1,120-32.1,235-125.1,322.7c-5,4.7-11.1,8.9-5.4,17.9
			c33.4,52.3,76.9,92.7,136.3,120.8c-0.6-8.6-0.4-12.7-1.2-16.6c-21.4-111.2-27.7-223.5-4.7-334.4c30.6-147.2,54-294.7,51.4-445.4
			C2480.7,1607.4,2483,1524.9,2473.5,1442.1z M811,2335.2c13.5,1.4,23.7,2.3,33.7,3.7c16.9,2.3,41,12.9,49.1,5.6
			c13.1-11.7-1.5-33.9-2.9-51.8c-8.6-110.1-12.1-220.2-7.7-330.5c1.1-27.8-9.3-33.2-33.6-30.4c-82.7,9.8-130.7,97.5-91.9,171.7
			c16,30.7,37.2,58.6,53.8,89C836.6,2238,842.9,2284.9,811,2335.2z M2458.3,679.9c-3.7,1-7.5,1.7-11,3.1
			c-60.7,23-121.2,41.3-178.5-8.1c-9.1-7.9-11.8,1.4-16.4,5.5c-57.1,52.3-176.5,59-239.3,13.3c-23.9-17.4-38.9-40.9-48.9-68.7
			c-16.6-46.2-10.9-92.6-3.6-139.1c11.9-75.7,9.8-78.3-67.3-75.5c-1,0-2,0-3.1-0.1c-11.5-1.1-15.9,4-17.2,15.6
			c-15.3,141.4,49.7,256.2,166.3,304.2c81.5,33.6,165.9,36.5,251.4,25.6C2353.3,748,2410.9,725.9,2458.3,679.9z M2355.9,2499.3
			c-34.8-27.3-64.3-54.2-85.9-88c-10.1-15.8-17.2-16.9-32.8-5.6c-69.1,50.2-145.8,85.3-227.9,108.7c-31.4,8.9-63,17-99.9,26.9
			c40.8,18.4,66,45.8,87.8,79.5c13.9-28.2,28-51.7,49.1-70.1c63.4-54.9,150.5-56.2,219.5-3.7c6.3,4.8,14.3,24.4,24,3.2
			C2302.4,2522.7,2325.6,2509.6,2355.9,2499.3z M2465.1,2555.7c16.3,45.6,40.5,73.8,87.3,75.9c50,2.2,89.9-16.3,112.5-54.5
			C2597.6,2587,2532.9,2574.2,2465.1,2555.7z M2543.2,574.2c37.8-68.2,44.5-141.9,40.3-217.6c-0.3-4.9-1-12-7.3-10.9
			c-8.1,1.4-9.2,9.3-10,16.8C2558.7,433.1,2550.9,503.7,2543.2,574.2z M1662.5,2560.3c41.7,45.3,41.7,45.3,76.3,4.1
			c0.4-0.5-0.2-1.8-0.4-4.1C1714.9,2560.3,1691.2,2560.3,1662.5,2560.3z"/>
		<path class="st0" d="M921.9,504.2c-43,0.4-78.5-33.9-78.9-76.4c-0.4-41.5,36.4-78,78.3-77.8c41.8,0.2,75.3,33.5,76.2,75.6
			C998.3,470,965.8,503.8,921.9,504.2z M946.8,426c-2.5-15.4-11.6-23.9-26.8-23.4c-15.5,0.4-24.6,10-24.2,25.2
			c0.3,16.8,10.3,26.7,27.4,24.8C937.8,451,946.2,441.3,946.8,426z"/>
		<path class="st0" d="M921.2,629.5c43.8,0.1,76.9,33.9,76.3,77.9c-0.6,41.9-34,75.7-75.6,76.5c-41,0.8-78.8-36.3-78.9-77.5
			C842.8,664.2,878.1,629.4,921.2,629.5z M923.1,680.3c-17,0.3-26.1,9.1-27.4,24c-1.3,15.3,6.9,25.8,22.5,26.7
			c16.5,1,27.7-7.3,28-24.6C946.6,691,936.5,683,923.1,680.3z"/>
	</g>
</g>
</svg>
