<?xml version="1.0" encoding="utf-8"?>
<!-- Generator: Adobe Illustrator 23.0.0, SVG Export Plug-In . SVG Version: 6.00 Build 0)  -->
<svg version="1.0" xmlns="http://www.w3.org/2000/svg" xmlns:xlink="http://www.w3.org/1999/xlink" x="0px" y="0px"
	 viewBox="0 0 3000 3000" style="enable-background:new 0 0 3000 3000;" xml:space="preserve">
<style type="text/css">
	.st0{stroke:#000000;stroke-width:10;stroke-miterlimit:10;}
</style>
<g id="Layer_1">
</g>
<g id="Layer_2">
	<g>
		<path class="st0" d="M2292.7,682.7c-7.4,191.5-31.7,365.6-53.7,540.1c-10.9,86.2-22.7,172.1-49.5,255.2
			c-23.4,72.3-58.7,137.5-113.1,191c-14.5,14.3-13.2,27.3-8.9,44.4c56.4,222.5,93.7,447.6,88.9,678.2
			c-2.2,102.6-13.7,203.7-46.1,301.7c-36.3,109.6-102.7,183.3-222.6,203.3c-128.7,21.5-257.3,32.6-387.3,18.2
			c-9.8-1.1-20.8-1.6-28.7-6.5c-42.4-26.6-81.2-11.9-123.8,3c-108.1,37.7-219.3,56.2-333.9,31.5c-119.4-25.7-206.4-93.9-263.7-200.9
			c-52.2-97.5-70.1-203.6-72.5-312.1c-6-274.1,48.2-533,202.3-765c10-15.1,7.4-24-3.3-36.9c-108.9-130.4-154.3-283.3-160.7-450.8
			c-4.9-130-5.7-259.2,20.2-387.6C833.2,308.9,1252.5,47,1695.6,92.2c120.8,12.3,235.3,45.7,341.5,103.7
			c152.5,83.3,234.7,214.3,250.5,386.9C2291.1,621.1,2291.6,659.6,2292.7,682.7z M2014.8,1731.6c-10.9-1.2-15.8,5.9-21.8,10.1
			c-74.8,52.4-157.4,87.5-245.9,107.9c-104.5,24-210.8,30.2-317.7,25.3c-13.3-0.6-25.1-4-26.3,17.6
			c-14.6,255.8-31.2,511.5-25.1,767.9c0.7,28.4,5.4,56.9,11.3,84.8c15.4,72.3,54.5,109.1,128.1,116.3c126.6,12.4,252,0.9,376.8-22.9
			c76.1-14.5,121.6-60.2,150.3-128.4c31.4-74.8,45.4-153.2,52.8-233.5c13.9-152.2,0.2-303.1-21.7-453.4
			C2061,1924.7,2041.2,1827.1,2014.8,1731.6z M1372,2845.3c-37-55.7-46.4-116.2-48.5-178.3c-8.3-253.2,8.9-505.6,24-758.1
			c1.8-29.9-2.1-41.1-34.9-45.9c-131.8-19.3-253-66.2-354.7-154.5c-23.9-20.7-31.6-16.5-46.8,7.9
			c-136.3,218.4-183.6,459.1-178.7,712.3c1.8,92.6,16.7,183.9,57.2,269.1c48.9,102.9,126.7,169.4,239.9,191.7
			C1147.1,2912.6,1258.3,2886.1,1372,2845.3z M767.6,1053.7c2.9,135.8,5.6,235.7,38.3,332c6.3,18.6,13.6,28.4,35.2,31.1
			c71.1,9,142.2,14.3,213.7,10.4c136.8-7.4,267.8-36.2,384.3-112.5c60.9-39.8,112.5-89.1,134.9-161
			c48.4-155.2-50.9-356.3-210.3-410.1c-180.2-60.8-362.9-54.4-543.9,4c-16.5,5.3-20.8,15.9-24.6,30.8
			C769.3,880.6,768,984.9,767.6,1053.7z M947.2,451.1c195-41.9,378.9-27.3,562.1,12.8c119,26,228.5,71,301,174.1
			c126.4,179.9,137.5,376.1,34.4,564.1c-143.6,262.1-381.5,391.5-674.9,424.2c-70.8,7.9-141.7,4.7-214.5-0.8
			c4.6,16.4,15.8,22.1,24.3,29.9c76.6,69.6,167.4,111.7,266.4,138.7c36.7,10,72.2,13.1,109.8,4.2
			c189.2-44.8,359.4-125.4,491.6-271.2c159.3-175.6,228.6-386.8,219.8-621.1c-9-237.9-111.6-427.6-319.3-551.5
			c-156.2-93.1-326.2-112.9-505.9-92.8C1112.9,276.2,1028.8,348.9,947.2,451.1z M842.7,1472.6c33.6,80.3,42.2,87.8,106.9,95.3
			c251.7,29,480.6-23,679.1-187.9c141.8-117.8,229-260.2,224.5-451.7c-4.5-190.5-109.8-340.2-292.8-393.1
			C1352.2,475,1141,460.7,928,510.8c-10.6,2.5-23.8,2.4-29.8,12.1c-31.4,50.9-57.8,104.3-77.2,167c135.7-43.9,268.6-46.4,403.4-34.8
			c211.4,18.1,356.6,132.9,404.5,324.3c36.3,145-6.7,262.9-122.4,354.2c-127.6,100.7-278,137.2-436.5,147.1
			C995.4,1485.4,920.6,1482.9,842.7,1472.6z M1300.2,197.1c59,3.6,117.8,1.6,176.5,8.2c359.2,40.7,627.2,320.9,645.3,681.8
			c18,359.4-150.1,747-593.3,916.5c-8.6,3.3-17.2,6.9-25.7,10.4c86.1,8.1,169.7-0.8,251.4-23.3c218.5-60.2,367-189.2,406.8-421.7
			c12.4-72.6,22.5-145.6,31.4-218.7c21-173.5,48.2-346.6,42.9-522.2c-5.4-180.4-83.2-315.6-248.6-395.9
			c-156.5-76-321.1-104.6-493.7-84C1427,156.1,1362,170.4,1300.2,197.1z"/>
	</g>
</g>
</svg>
