<?xml version="1.0" encoding="utf-8"?>
<!-- Generator: Adobe Illustrator 23.0.0, SVG Export Plug-In . SVG Version: 6.00 Build 0)  -->
<svg version="1.0" xmlns="http://www.w3.org/2000/svg" xmlns:xlink="http://www.w3.org/1999/xlink" x="0px" y="0px"
	 viewBox="0 0 3000 3000" style="enable-background:new 0 0 3000 3000;" xml:space="preserve">
<style type="text/css">
	.st0{stroke:#000000;stroke-width:10;stroke-miterlimit:10;}
</style>
<g id="Layer_1">
</g>
<g id="Layer_2">
	<g>
		<path class="st0" d="M650.1,2280.3c-81.3-27.7-163.6-49-240.2-87.2c-22.4-11.2-43.9-23.7-63.2-39.7c-64.3-53-70.1-114.6-17.5-179
			c32-39.2,73.3-67.2,114.7-96.1c-8.3-12.7-22.3-11-33.1-15c-111.8-41-159.7-125.4-131.3-240.9c29.9-121.2,89.5-227.2,173.6-319.8
			c55.9-61.5,115.2-119.5,181.9-174c-10.7-3.8-18.2-6.8-25.8-9.1c-206.3-62.9-365.4-262.5-351-506.2
			C272.8,365,465.5,171.5,700.7,148c180.8-18.1,330.3,45.7,446.2,186.2c10.2,12.4,14.8,21.8,32.2,5.9
			c184.2-168.8,404.5-249.8,651.4-261.5c138-6.5,276.3-13.9,414.3,3.7c242.1,30.8,387.9,173,470.4,395.9
			c38.6,104.3,22.8,206,9.5,309.6c-5.4,42-3.7,85.5-25.7,124.1c-3.2,5.6-4.8,12.6,5.3,13.1c28.1,1.2,15.3,22.5,15.4,34.6
			c0.1,18.8-17.6,11.9-26.3,10.5c-24-3.9-39.4,5.3-55.9,22c-57.7,58.4-131.9,89-211.4,118.4c49.3,26.6,94.5,53.4,134.9,87.7
			c18.7,15.9,20.4,26.1,1.7,43c-11.9,10.7-18.2,11.4-30.2,1c-37.8-32.8-79.5-59.8-125.2-80.7c-121-55.2-267.3-38.8-370.4,59.4
			c-111.4,106.2-174,234.6-190.2,388.2c-22.5,214.1-38,428.6-47.9,643.6c-2,42.6,2.6,85.1,10.3,127.2c13.7,75,55,129.5,123,162.5
			c138.2,67.1,281.6,74.9,427.5,29.9c25.6-7.9,30.8,0.2,38.6,21.3c9.9,26.6-9.9,25-22.9,28.9c-150.8,45.5-299,39.6-444.4-22.8
			c-106.1-45.6-163.1-125.9-178.2-240c-11.6-87.6-3.9-174.7,1.7-261.6c11.6-180.4,21.8-360.9,48-540.1
			c25.6-175.4,113-311.9,252.7-417.5c2.4-1.8,4.1-4.3,6.1-6.5c-5.1-8.5-13.2-5.9-19.9-6c-165.3-4.2-330.5-9.4-495.5-20.9
			c-144.1-10.1-284.6-35.5-413.4-105.5c-16.2-8.8-25.1-5.1-37.5,6.2c-104.3,94.9-226.9,139.6-368.1,131.8c-10.6-0.6-20.3-0.2-29.3,7
			C548.8,1265,413,1393.5,346.3,1578.6c-10.6,29.5-20.4,59.1-21.8,90.5c-3.9,82.9,49.6,140.3,141.7,155.8c35.9,6,69.6-2.4,103.7-8.9
			c44.2-8.5,80.7-2.3,102.1,42.8c2.5,5.3,7.4,10.3,12.5,13.3c56.7,33.6,164.6,12.7,206.3-39.6c38.1-47.8,35.8-89.7-9.1-131.7
			c-51.6-48.3-114.9-73.9-182.6-89.1c-21.4-4.8-28.9-12-24-35.2c5.5-26.2,19.7-20.1,36.6-16c66.3,16.2,128.6,41.1,183.3,82.8
			c63.7,48.5,86.9,102.9,69,160.1c-23.2,74.4-94.6,132.8-167.3,133.3c-35.2,0.3-70.5-4.2-105.5-8.3c-28.4-3.3-51.7-17.3-64.2-43.8
			c-9-19.1-22.5-22.4-40.7-18c-55.8,13.6-99.5,49-148.3,79c15,13,31.5,11.6,45.9,15.9c174.4,51.6,301.3,158.6,379.5,323
			c14.7,30.9,7.4,46.4-25.8,53.2c-57,11.7-113.8-1.3-170.6-3c-68.6-2.1-137.2-7.5-205.1,6.5c-56.5,11.6-63,28.8-27.2,74.8
			c49.1,63.1,113.1,109.9,178,155.1c198.9,138.7,422.2,216.2,659,258.2c284.4,50.5,570.8,52,857.8,30.1
			c65.1-5,129.4-17.1,192.8-34.6c109.1-30.1,182.6-99.1,230-199.1c54.1-114.1,76.4-236.5,93.6-360.3c10.2-73.5,8-147.3,5.2-221.1
			c-0.8-21.2,26.3-39.3,45.5-30.7c7.6,3.4,4.9,10.3,5.3,15.9c15.3,186.2-13.6,366.6-70.9,543.3c-62.6,192.9-196.3,297.5-396.3,326.1
			c-187.3,26.8-375.2,27.4-563.4,22.7c-212.6-5.4-422.7-31.3-627.5-91.8c-222.2-65.6-424.8-167.4-597.5-324.3
			c-24.8-22.5-47.4-46.9-65.4-75c-40.3-62.9-17.2-119.5,55.5-137.1c60.2-14.6,121.6-13.6,182.9-12.9
			C629.5,2280.4,639.8,2280.3,650.1,2280.3z M1196.6,587.5c-32.5,47.3-69.1,58.8-106.1,35.5c-30.8-19.3-39-62.2-18.4-93.6
			c10.4-15.8,25.7-24,43-27.9c25.6-5.8,47.9,3.3,68.9,24.4c-43.4-187.7-249.6-370.2-510.9-321.6C429.3,249.7,273.6,481,317.9,728.9
			c42.4,237.1,276,395.3,521,352.7C1065.8,1042.2,1233.8,812,1196.6,587.5z M1221.3,832.8c93.9-2.1,186.5,10.8,279.4,17.3
			c199.1,14,398.8,14.6,598.2,5.9c72.4-3.2,145.1-3.6,214.9-30c109.5-41.5,200.4-109.3,282.3-191.4c-12.9,1.1-24.5,4.4-36.1,8.1
			c-185.3,59.3-374.4,102-567.3,127.5c-239.9,31.7-480.4,38.7-721.6,18.6C1229.9,785.4,1229.8,786.4,1221.3,832.8z M1243,532.6
			c3.5,24.4,7.9,44.9,8.9,65.5c0.8,16.9,7.2,22.7,23.9,24c56.9,4.7,113.6,12.6,170.6,16.3c256.4,17,510.7-0.6,762.8-49.8
			c143.7-28.1,284.6-66.8,422.8-115.5c18.9-6.7,23-14,13.1-30.6c-3.7-6.2-7.2-12.8-9.2-19.7c-8.6-29.8-22.1-32.8-50.7-18.3
			c-171.9,87-354.1,141.8-546.1,159.1c-210.9,18.9-421.4,0.1-631.8-15.9C1353.7,543.7,1300.2,537.9,1243,532.6z M2691.4,625
			c-28.8,25.4-50.4,44.1-71.6,63.4c-89.8,81.8-186.4,153-303.7,191.1c-14.4,4.7-19.3,12-19.1,26.8c0.8,46.8,2,93.7-0.4,140.4
			c-1.4,26.8,9.6,31.4,32.3,29.2c81.5-7.8,154.7-38.2,222.9-81.7c73-46.5,122.5-107.7,119.1-200.2c-0.3-7.2,2-14.4,2.9-21.6
			C2679.3,726.6,2684.7,680.8,2691.4,625z M1541.7,747.7c221.9,0.4,441.6-21.1,659.1-64.9c154.8-31.2,306.4-74.4,455.1-127.5
			c9.6-3.4,23.8-3.4,20.4-21.3c-4.7-24.6-18.9-14.6-32-10C2447,593.6,2244.5,642.4,2037.1,670c-251.4,33.5-503.4,36-755.1,5.1
			c-36.6-4.5-28.4,17.3-33.1,35.1c-7.1,26.6,11.8,25.8,28.1,27.1C1365.1,744.2,1453.3,747.3,1541.7,747.7z M1722.6,142
			c-68.2,8.4-126.8,25.5-185.4,43.1c-14,4.2-22.5,13.7-29.9,25.5c-50.7,80.2-75.1,168-77.8,262.5c-0.5,17.8,4.6,27,23.8,27.7
			c36.3,1.5,72.7,3.6,108.9,6.9c18.4,1.7,22.7-5.3,23.1-22.5c0.8-37.4,8-74.1,16.9-110.5C1623.1,289.7,1665.2,215.4,1722.6,142z
			 M2372.2,166.5c-39.1-12.7-72.9-32.6-109.1-23.5c-151.2,37.8-291,197.7-314.6,354.9c-2.3,15.6,1,20.8,17.1,19
			c31-3.4,62-6.8,93.1-7.5c19.3-0.5,26.9-8.7,31.6-26.1c13.5-50.6,36.4-97,65.9-140.3C2209.5,264.3,2281.7,208.4,2372.2,166.5z
			 M1949.1,130.3c-42,0-78.2,0.5-114.4-0.2c-23.8-0.4-40.4,10.4-55.9,27.7c-80.7,90.1-129.3,194.2-141.5,315
			c-4,39.1-4.8,39.1,35.8,40.6c12.4,0.5,25.1-0.6,37.3,1.1c19.8,2.7,29.3-4.7,35.3-24.2c20.5-66.6,49.9-129.5,84.1-190.2
			C1863.4,240.7,1903.3,185.5,1949.1,130.3z M790.7,2256.8c-96-153.3-229.5-234.5-398.3-261.8c-6.7-1.1-11.7,0.8-17,5.1
			c-37.1,30.6-38.3,75.8-2.1,107.5c30.1,26.4,65.6,43.6,102.4,58.3C575,2205.6,679.6,2227.4,790.7,2256.8z M1590,909.6
			c-27.8-2.1-51.5-3.8-75.2-5.8c-89.8-7.9-179.2-19-269.7-19.4c-39.6-0.2-65.8,10.7-84.1,46.8c-8.4,16.5-11,22.7,7.4,31.9
			c108.4,54,224.4,77.8,343.9,88.8c9.4,0.9,18.1,2.1,22.9-9.8C1552.9,998.1,1571.3,954.6,1590,909.6z M1973.8,909.9
			c-107.6,0-209.2,0.1-310.7-0.1c-8.9,0-16.8,1.2-20.6,10.3c-18.5,44.7-36.9,89.5-57.2,139c104.1,4,203.5,7.8,303,11.7
			c8.1,0.3,13.8-2.1,17.3-9.9C1927.1,1013,1948.8,965.1,1973.8,909.9z M2096.8,1075.5c42.5,2,84.9,5,127.5,1.7
			c14.8-1.1,22.4-3.8,22-21.1c-1.1-45.6-0.7-91.3-0.1-136.9c0.2-14.5-3.7-19.9-19.4-18.9c-58.9,3.8-117.8,6.6-176.8,9
			c-14.7,0.6-22.1,7.2-27.7,20c-17.9,40.7-35.6,81.5-55.3,121.3c-11.4,22.9-2.1,25.5,17.9,25.1
			C2022.2,1074.9,2059.5,1075.5,2096.8,1075.5z M2506,250.2c-16.2-19.1-35.2-29.9-52.8-42.6c-9.3-6.7-18.8-8.4-29.3-4.6
			c-140.6,51.1-235.8,146.3-284.1,293.1c53-6,100.7-19.3,148.4-32.2c8.4-2.3,10.5-9.6,13.2-16.2
			C2340.2,353.2,2408.8,289.1,2506,250.2z M2153.8,133.3c-0.6-2.7-1.3-5.5-1.9-8.2c-34.1,0-68.1,0.9-102.2-0.3
			c-19.8-0.7-32.6,7.5-45.2,21.7c-83.7,94.2-148.9,199.5-194.4,317c-21.3,54.9-21.3,54.9,36,55.8c6.2,0.1,12.6-0.4,18.7,0.4
			c19.8,2.6,29.4-3.4,32.8-25.5c9.7-64.3,32.8-124.1,66.8-179.8C2011.3,237.1,2075.3,177.9,2153.8,133.3z M1433.1,233.1
			c-5.7,0.7-9,0.3-11.4,1.5c-80.2,40.6-152.9,92-218.9,153c-9.5,8.8-8.4,15.3-4.8,26.6c14.9,46.9,40.3,76,94.9,70.6
			c21.2-2.1,43.4,2.9,64.9,6.4c17.5,2.9,21.4-3.8,21-19.8c-0.4-19.6,1.3-39.3,3.1-58.9C1387.7,350.2,1408.4,292,1433.1,233.1z
			 M2361.5,441.2c78.4-25.7,146.5-55.3,213-88.7c5.1-2.6,12.2-6.7,13.1-11.2c3-14.9-38.9-49.6-53.8-44.7
			C2459.8,320.8,2403.6,366.8,2361.5,441.2z"/>
		<path class="st0" d="M1933.8,2200c-0.4,62.7,3.4,124.7,25.5,184.2c24.7,66.8,70.4,94.2,140.3,85c39.7-5.2,76.7-18.5,111.7-37.1
			c18.3-9.7,21.5,3.9,26.5,14.6c4.8,10.1,17.8,21.9-0.9,31.1c-60.4,29.6-122.6,53.2-191.5,43.5c-56.7-8-96.6-41.1-122.9-91
			c-26.7-50.8-35.2-106.2-38.2-162.6c-8.2-154.8,16.8-306.7,40.5-458.6c13.3-85,22-171.1,47.4-253.8c20.2-66.1,45.8-129.8,99-177.4
			c82.2-73.4,178.8-79.8,280.4-56.7c50.8,11.5,98.7,31.9,144.4,57.1c10.7,5.9,24.8,10.2,11.5,26.6c-9.8,12.1-11.4,34.1-38.1,19
			c-60.1-34-124.1-58.1-194.2-61.7c-110.1-5.6-182,38.1-227.3,139c-38.3,85.3-52.3,177-65.8,268.5
			C1961,1912.6,1938.3,2055.3,1933.8,2200z"/>
		<path class="st0" d="M2190.9,1704.8c-1.3,23.8-11.9,53.6-1.5,69.9c11.8,18.5,43.8,2.6,67.1,5.6c82.9,10.6,163,77.5,184.1,156.9
			c18.3,68.9-13.1,141.7-76.8,173.6c-52.5,26.3-109.1,40.5-167.5,44.9c-28.2,2.1-41.3,10.2-38.1,40.8c1.8,17.3,3.7,37.2-27.6,35.7
			c-25-1.2-27.2-9.1-25.6-31.1c12.5-174.1,23.8-348.2,35.1-522.3c1.7-25.4,27.3-40.2,48.6-27.6c7.2,4.3,4.9,10.6,4.6,16.4
			c-0.8,12.4-2,24.9-3,37.3C2190.5,1704.8,2190.7,1704.8,2190.9,1704.8z M2166.8,2070.2c7.5,8.5-19.1,37.6,16.1,34.8
			c57.1-4.5,113-16.5,163.6-44.7c35-19.5,54-63.1,46.8-100.7c-14.6-75.6-106.4-139.8-182.4-127.8c-19.4,3.1-30.6,10.5-31.6,33.3
			C2176.4,1932.5,2171.3,1999.7,2166.8,2070.2z"/>
		<path class="st0" d="M1541.6,1160.2c-15.3,14.9-13.6,49.9-50.4,34.9c-7.2-3-10.8,10.7-15,17.4c-25.6,41-58.4,75.1-97.9,103
			c-105.5,74.4-244.3,32.7-288.9-88.3c-7.9-21.6-15.3-26.3-34.5-14.7c-27.9,16.9-26.1-13.8-34.8-24.3c-12.3-14.8,4.9-18.9,14.1-23.3
			c42.8-20.5,88.9-29.9,135.5-31c96.4-2.3,192.8-9.6,289.2-1.7C1488,1134.4,1515.5,1143.1,1541.6,1160.2z M1434.1,1182.3
			c-99.5,0.5-191.3-3.1-283,5.5c-21.5,2-16.5,12.2-11.6,24.9c24.3,63.6,88.5,99.2,155,83.9
			C1356.4,1282.4,1394.3,1237.6,1434.1,1182.3z"/>
		<path class="st0" d="M1278.8,1513.7c-88.9-8.9-180.2-20.9-252-88.9c-26.4-25-25.4-29.8,4.8-48.5c9.1-5.6,15.3-7.4,23.5,2.4
			c71.1,84.8,277.1,111.1,398.3,38.7c17.9-10.7,33.1-24.4,46.2-41.1c43.5-55.4,104.1-67.4,170.1-65.2c23.4,0.8,14.2,17.6,15.2,29.3
			c1.2,13.7-0.2,24.4-19,22.9c-21.7-1.6-43.5-0.5-64.8,5.8c-20.2,6.1-40,13.9-53,30.9C1480.6,1488,1383.9,1505.8,1278.8,1513.7z"/>
		<path class="st0" d="M1249.3,1739.1c52,10.3,51.9,10.3,41.1,60.5c-10.7,49.6-20,99.6-32.4,148.7c-5.6,22.2-2,29.7,21.6,29.4
			c38.4-0.6,76.9,2.7,115.2,1.8c21-0.5,23.5,8.8,23,26.2c-0.5,16.7-1.7,26.7-23.3,25.9c-60.2-2.2-120.4-2.6-180.6-2.6
			c-19.8,0-25.3-6.6-21-26.1C1212,1916.1,1230.2,1828.9,1249.3,1739.1z"/>
		<path class="st0" d="M1099,1693.4c22.6,2.3,38.6,2.4,32.6,33.9c-16,83.2-27.3,167.3-39.9,251.1c-2.5,16.4-7.6,25.2-26,18.3
			c-13.1-4.9-32.4,3-26.7-26.8c16-84.2,27.4-169.4,40.6-254.1C1081.5,1703.3,1082.6,1689.6,1099,1693.4z"/>
		<path class="st0" d="M2714,1301.9c-0.4,3.5-1.4,13.7-2.6,24c-1.9,16.4-4.5,30.5-27.8,25c-18.4-4.3-30.4-9.6-24.6-32.1
			c3-11.8,3.9-24.6,3.3-36.9c-0.7-14.1,3.9-19.8,18.2-22.2C2714.5,1254,2715.3,1254.2,2714,1301.9z"/>
		<path class="st0" d="M2720.6,1616.9c-1,16.9,7.5,36.6-24.6,36.9c-31.8,0.3-28-17.6-28.3-37.3c-0.3-20.3-2.7-39.4,28.7-35.6
			C2720.3,1583.8,2720.6,1581.7,2720.6,1616.9z"/>
		<path class="st0" d="M2715,1469.8c1.1,9.6,1.1,23.3-26.2,23.5c-29.9,0.3-26.7-16.5-27.4-35.6c-0.8-20.8,0.4-33.3,28.4-33.5
			C2722.4,1424,2713.1,1444,2715,1469.8z"/>
		<path class="st0" d="M2707.7,1106.4c1.7,18.2,3.9,33.5-24.7,33.2c-25.6-0.3-28.9-10.5-27.9-31.4c0.9-19.3-2.5-35.8,27.7-35.2
			C2710.8,1073.5,2709.6,1087.8,2707.7,1106.4z"/>
		<path class="st0" d="M2681.8,1900.7c-15.8,1.8-30.5-2.2-23.7-26.5c3.7-13.2-6.5-38.8,22.7-32.1c11.4,2.6,38-9.8,30.8,19.2
			C2708.1,1876,2721.3,1906.4,2681.8,1900.7z"/>
		<path class="st0" d="M2692.5,1757.9c-16.6-0.4-30.5,3.5-31.2-18.6c-0.8-23.4,13.2-21,28.1-21.1c14.2-0.1,25.9-1.5,25.7,19.9
			C2714.8,1759.4,2703.1,1758.6,2692.5,1757.9z"/>
		<path class="st0" d="M598.9,539.1c46.9-61.9,107.9-97,186.3-103c112.7-8.6,216.6,61.7,233.9,161.5c10.4,60.4-11.5,110.1-54.9,151
			c-88.1,83.1-246.1,81.1-331.6-4.4C572,683.6,567.3,613.5,600,537.9L598.9,539.1z M801,488.4c-50.5,0.1-96.7,16.9-128.6,46.9
			c-51.2,48.1-54.5,114.3-8.2,166.7c69.8,79.1,219.4,73.2,282.1-11.3c30.1-40.5,31.3-92.9,1.2-133.6
			C911.3,508.2,860.4,488.8,801,488.4z"/>
		<path class="st0" d="M624.3,851.2c-0.5,37.1-30.6,67.1-67.4,67c-36.6-0.1-67.2-30.7-67.5-67.4c-0.3-38.3,31-69,69.4-68.1
			C596.3,783.6,624.8,813.4,624.3,851.2z"/>
		<path class="st0" d="M622.2,421.3c-37.2-0.6-67-30.6-67-67.5c0-37.5,32.8-68.7,70.7-67.2c36.8,1.4,66.6,33.1,65.4,69.4
			C690.2,392.8,659.5,421.8,622.2,421.3z"/>
		<path class="st0" d="M866.4,396.4c-37.2-0.3-67.6-30.3-67.7-66.9c-0.1-37.7,32.2-68.9,70.3-67.8c36.6,1.1,67.3,32.8,66.5,68.8
			C934.7,366.9,903.5,396.7,866.4,396.4z"/>
		<path class="st0" d="M1129.5,783.7c0.1,37.6-28.8,67.1-66.3,67.6c-38.1,0.5-69.8-31-69-68.7c0.8-36.5,32.1-67,68.4-66.7
			C1099.1,716.3,1129.4,747,1129.5,783.7z"/>
		<path class="st0" d="M600,537.9c-26.3,24.3-54.4,42-91.4,23.1c-29.8-15.2-43.7-49.9-33.4-82c9.8-30.7,44-50.9,76.2-45
			c32.9,6,56.3,34.6,54.7,68.9c-0.6,12.1-4.7,24.1-7.1,36.2C598.9,539.1,600,537.9,600,537.9z"/>
		<path class="st0" d="M491.1,757.8c-38,0-66.8-28.2-67.5-66c-0.7-38.1,30.7-69.6,68.7-68.8c36.9,0.8,66.6,31.3,66.3,68.2
			C558.2,728.4,528.4,757.8,491.1,757.8z"/>
		<path class="st0" d="M1087.8,394.6c0.3,37.3-28.8,68.1-65.5,69.4c-37.5,1.3-69-30.4-68.7-69c0.3-37.4,30.1-67.5,66.9-67.6
			C1057.1,327.2,1087.5,357.6,1087.8,394.6z"/>
		<path class="st0" d="M688.9,983c-40.3-0.2-66.3-25.4-66.4-64.4c-0.1-38.1,28.3-67,66.1-67.4c39.2-0.4,68.8,29.4,68,68.7
			C755.9,958.7,729.6,983.2,688.9,983z"/>
		<path class="st0" d="M888.9,1013.7c-38.1,0.3-67.3-27.8-68.1-65.3c-0.8-38.7,29.7-69.6,68.1-69c37,0.5,66.7,30.8,66.4,67.8
			C955.1,985.1,926.9,1013.4,888.9,1013.7z"/>
		<path class="st0" d="M880,620.3c0.2,37.3-29.1,67.7-66.1,68.7c-37.3,0.9-69.8-31.7-69.1-69.3c0.7-36.3,32.3-67.6,68.2-67.5
			C849.1,552.2,879.7,583.4,880,620.3z"/>
	</g>
</g>
</svg>
