<?xml version="1.0" encoding="utf-8"?>
<!-- Generator: Adobe Illustrator 23.0.0, SVG Export Plug-In . SVG Version: 6.00 Build 0)  -->
<svg version="1.0" xmlns="http://www.w3.org/2000/svg" xmlns:xlink="http://www.w3.org/1999/xlink" x="0px" y="0px"
	 viewBox="0 0 3000 3000" style="enable-background:new 0 0 3000 3000;" xml:space="preserve">
<style type="text/css">
	.st0{stroke:#000000;stroke-width:10;stroke-miterlimit:10;}
</style>
<g id="Layer_1">
</g>
<g id="Layer_2">
	<g>
		<path class="st0" d="M548.4,1010.5c-78.8-9.3-130.8-59.3-142-142c-5.7-42.2-9.4-80.3-39.7-116.5c-27.6-33-27.2-79.8-16.1-123.1
			c1.6-6.3,3.8-14.3,8.5-17.6c24.5-17.7,16.2-39.4,10.4-62.1c-8.2-31.8-10.6-64.2,1.7-95.8c9.2-23.6,24.7-42.1,48.6-51.8
			c10.3-4.2,11.9-9.4,10.3-19.9c-7.5-51.2,16.6-109.3,66.3-120.2c4.9-1.1,8.7-1.9,9.2-9.5C512,159.2,550.9,129.1,638,149
			c7.9-82.1,100.2-96.4,152.6-60.3c10.1,7,13.7,7.5,21.2-3.6c29.8-44,74.9-47.3,111.8-9.1c11.1,11.5,20.8,24.3,34,40
			c-1.2-25.5,1.3-46.1,22.3-58.6c26.5-15.7,54.3-17.8,83-7.8c41,14.2,64.7,44.7,77.2,84.9c2.6,8.6,3.5,15.8,15.5,9
			c65.9-37.1,138.9-48.7,212.4-55.7c254.6-24.1,509.9-24.3,765.4-20.1c83.4,1.3,166.8,1.2,250.2,2c153.2,1.4,273.5,95.7,305,239.2
			c4.7,21.7,6.8,43.6,6.8,65.9c-0.1,199.3-0.1,398.6,0,598c0,38-4.8,75.6-20.2,110.2c-10,22.4-10.7,43.2-5.6,66.1
			c14.4,64.1,12,128.6,6,193.7c-2.7,29.4,6.2,59.7,8.3,89.7c11.4,165.1,17.7,330-0.5,495.2c-16,144.9-9.1,290.4-6.7,435.8
			c2,125.2-10.2,249.2-47.1,369.5c-41,133.5-137.3,200.5-271.6,215.3c-153.3,16.9-301.9-1.7-441.9-70.6c-8.7-4.3-15.2-5-24.1,1.1
			c-130,89-272.9,103.5-423.5,72.6c-15.1-3.1-30.8-5.4-44.7-11.6c-37.4-16.5-74.8-8.9-112.6-3.8c-192.7,26.1-372.9-9.8-539.5-110.8
			c-58.8-35.6-109.9-79.2-142.4-141.5c-19.2-36.8-29.3-75.7-28.1-117.1c3.4-109.9,10.9-219.5,23.9-328.6c2.7-22.5,2.2-39.2-20.1-56
			c-59.2-44.7-71.5-110-54.8-177.2c9.7-39.1,1.7-57.7-28.3-83.6c-73.9-63.9-99.8-148.8-84.3-245.6c13.7-85.5,18.4-171.3,16.1-257.9
			c-3.5-137.3,25.4-268,87-391.2C542.9,1021.9,545,1017.4,548.4,1010.5z M1358.4,2025.5c-5.6,1.5-7.6,6.6-10.7,10.6
			c-100.8,132.7-98.9,338.1,4.1,469c23.7,30.1,52.7,52.3,91.5,57c56.6,6.8,113.3,6.7,170-0.9c14.8-2,23.5-8.6,31-20.8
			c85.4-139.2,21.2-312.3-134.5-361.9c-7.9-2.5-15.8-5.4-22.4,2.1c-18.6,21.1-31.9,10.6-48.3-4.7c-13.5-12.5-10.9-17.8,1.4-27.7
			c57.7-46.7,123.1-68.3,197.2-62.9c86.2,6.2,157.6,67.3,172.3,152.5c11.3,65.6,11.4,132.1,0.4,198.3
			c-15.9,96.1-75.6,158.8-170.6,175.5c-59.8,10.5-120.1,11.3-180.9,7.2c-71.5-4.8-123.4-39.5-162.4-97.3
			c-33.5-49.5-56.9-103.2-67.8-162.1c-2.7-14.5-8.6-22.1-23.7-26.4c-99.7-28.2-188.9-75.3-260.9-151.2c-10.4-11-16.9-5.8-26.2-0.4
			c-68.5,40.2-141.6,57.4-220.8,43.1c-7.9-1.4-15.9-5.3-17.3,8.4c-1.4,13.4,6.9,11.8,15,11.8c50.2-0.1,100.4,2.7,150.2,9
			c75.1,9.5,148.5,25.4,214,65.6c72.3,44.4,110.3,108.9,108.2,194.9c-1,37.6-4,75.2-4.1,112.8c-0.1,37.5,10.1,72.4,29.1,105.3
			c34.5,59.8,87.4,97.2,149.2,123.1c73,30.6,148.8,49.9,228.3,55.6c200.8,14.4,368.7-86.9,443.2-273.5
			c52.9-132.5,58.2-271.2,42.5-411.7c-10-89-53-164.5-110.7-226.9c-92.3-99.8-211.8-140-347.7-116.5
			c-89.6,15.5-166.4,57.6-226.1,127.9C1366.6,2015.3,1362.5,2020.4,1358.4,2025.5z M1992.5,122c-7.1-1.4-9.7-2.4-12.3-2.4
			c-213.7,3.4-427.5,1.2-640.4,25.4c-117,13.3-210.9,64.3-285.3,155.2C997.9,369.4,957.1,448,913,524.6
			c-56.8,98.7-101.6,202.9-136.4,311.3c-3.2,10-9.3,19.8,10.3,18.8c113.8-5.9,216.6,28.8,312.6,87.1c12,7.3,16.8,7.9,22.8-7.2
			c26.9-67.5,73.1-117.8,144.8-135c101.6-24.4,204.9-34.8,309.4-16.5c76.6,13.4,138.7,49.4,178.6,117.1
			c12.1,20.6,20.3,31.9,44.6,16.9c9.9-6.1,24.2-7.4,36.5-7.1c20.4,0.4,25.2-7.7,25.1-27.3c-0.8-167.6-0.1-335.2-0.6-502.7
			c-0.2-72.7,20.1-138.2,65.2-195.4C1944.1,161.5,1965.7,141.7,1992.5,122z M2642.2,660.1c-83.4,72.1-166,76.9-228.5,16.3
			c-55.2-53.5-60.1-144.7-11-203.4c24.7-29.5,55.9-48.1,94.1-53c56.5-7.2,104,11.5,144.6,59.3c0-42.8,1.5-79.4-0.3-115.9
			c-6-127.1-99.4-226.6-226-236.7c-89-7.1-178.7-5.7-267.6-0.2c-138.4,8.6-231.7,114-231.7,252.6c0,200,0,400.1,0,600.1
			c0,127.6,101.1,237,228.7,242.3c89.2,3.6,178.7,3.4,267.9,0c115.2-4.5,214.5-97.2,225.4-212.2
			C2648.6,894.5,2639.1,779.2,2642.2,660.1z M491,1739.1c25.8-37.5,46.2-77.5,71.9-114.3c39.8-57.2,92.8-92.7,163.1-97.5
			c103.2-7.1,206.5-6.2,309.9-3.8c21.4,0.5,42.7,2.3,64.1,4c9.9,0.8,12.6-2.2,11.2-12.4c-4.8-34.7,1.8-69.3,4.9-103.7
			c6.3-69.4-4.2-83.6-73.1-86c-55.7-1.9-110.2-10.2-162.7-28.8c-73.8-26.1-143.3-59.7-192.2-124.3c-27.6-36.4-40-77.2-28.1-122.7
			c10.5-40.2,11-40.1,45.1-18.2c6.8,4.4,13.7,8.7,20.6,13c89.7,55.3,183.7,73.6,284.9,33.8c21.3-8.4,44.2-13.6,67.1-11.9
			c20,1.5,22-6.4,24.9-24.2c4.7-28-7.3-40.5-29.1-53.4c-72.1-42.6-148.1-73.2-232.3-79.4c-100-7.3-183.9,19.7-236,113.4
			c-11.1,20-22.6,39.7-31.8,60.7c-53.5,122.9-72,251.6-65.2,384.7c2.6,51-2.6,101.6-8.3,152.3C495.5,1659.6,486,1698.6,491,1739.1z
			 M1295.6,1160.3c-0.1,0-0.2,0-0.4,0c0-13.3,0.1-26.6,0-39.8c-0.2-26,7-48.8,31.4-61.5c24.3-12.6,47.5-4.2,69.3,8.3
			c8.9,5.1,16.5,12.7,21.6,21.9c6.4,11.6,10.5,7.8,16.5-0.6c13.2-18.6,27.3-36.8,44.3-52.1c28.8-25.8,63.3-18.7,79.8,16.3
			c5.9,12.6,9.9,26,12.6,39.8c7.4,37,9.8,74.6,11.6,112.1c0.6,13.7,4.7,19.6,19.4,18.7c18.4-1.2,36.9-1.1,55.3,0
			c13.5,0.8,21.7-4.6,29.1-15.3c35.6-52,54.3-108.6,52.8-172.3c-2.3-99.9-59.6-172.8-156.5-195.6c-97.2-22.9-193.5-8.7-289.6,8.6
			c-47.1,8.5-81.8,36.2-106.1,76.6c-25.9,43.2-31.2,91.4-30.9,140.6c0.1,13.1,5.8,21.4,17.2,28.1c10,5.9,18.8,14.2,27.1,22.5
			c27.1,26.9,47.4,58.5,59.9,94.5c5.3,15.3,16.5,11.9,27,11.7c14.2-0.2,8.2-11.3,8.5-18.1C1296,1189.8,1295.6,1175,1295.6,1160.3z
			 M712.8,1100.7c4.7,19.6,13.3,32.9,23.6,45.2c44.3,53.3,105.1,79.2,168,101.7c58.6,20.9,120,21.1,180.8,26.7
			c40.4,3.8,71.4,31.3,82,70c6.6,24,4.4,48.2,2.9,72.5c-2,32.3-8.4,64.3-4.5,97c1.7,14.4,6.2,21.9,22.8,22.9
			c21.9,1.2,43.6,6.5,65.4,10.2c68.4,11.8,137,23.2,206.5,10.9c128.6-22.8,221.6-91.7,271.2-214.4c16.9-41.7,23.5-85.4,20-135.9
			c-6.5,9.8-10,15.1-13.6,20.3c-32.7,48.1-71.2,90.9-121.9,120.2c-41.5,24-72.2,55.5-95.8,97.8c-36.6,65.5-99.6,83.5-168.8,55.6
			c-49.3-19.9-78-58.5-100.2-103.9c-22.3-45.5-28.9-94.5-36.4-144c-15.5-103.1-97-152.3-195.1-121.3c-8.4,2.7-17,4.9-25.4,7.5
			c-62.4,19.5-124.8,19.1-187.4,0.7C775.4,1131.2,745.8,1116.9,712.8,1100.7z M1273.3,2885.3c-2.4-2.8-3.4-4.8-5-5.8
			c-106-64.3-166.6-154.1-158.9-282.3c0.7-11.8-4.6-10.8-13.3-9c-47.7,10-95.8,16.6-144.4,19.7c-94,5.9-187.3,0.1-279.4-19.6
			c-16.2-3.5-16.3,3.8-14.1,14.2c2.7,12.9,6,25.9,11,38.1c26,64.1,76.1,105.7,133.5,139.7c84.4,50.1,174,86.6,271.9,100.4
			C1140,2890,1205.8,2893.9,1273.3,2885.3z M781.9,665.4c-106.2-30-163.8-101.6-163.4-201.8c0.2-68.8,35.6-111,97.1-114.1
			c32.8-1.6,62.5,8.1,88.1,29.6c31.3,26.3,54.3,59.1,74,97.6c47.2-84.3,92.5-166.8,158.3-237.4c-24.3-8.8-46.4-10.7-68.3-12.5
			c-162.3-13.8-342.8,63.6-401,255.3c-42.6,140.2-13.7,269.7,71.5,387.3c5.8,8.1,11.1,25.1,23.1,18.7c17.7-9.5,44.5-6.4,52-31.7
			C732.6,792,755.8,729.1,781.9,665.4z M2135.6,1278.3c-44.3-6.4-85.9-18-123.4-40.9c-93.5-57-145.1-139.7-151.1-249.9
			c-0.4-7.6,3.7-19.6-4.6-22.2c-19.1-6-37.4,1.3-55,9.5c-13.5,6.3-13.4,16.3-11.3,29.3c2.5,15.1,2.2,30.8,1.8,46.3
			c-0.6,28,0.3,55.3,6.3,83.2c13,60.3,13.4,121.1-1.2,181.8c-8.1,33.5-21.7,64.7-34.4,97.5
			C1878.3,1342.9,2002.5,1298.9,2135.6,1278.3z M795.9,1787.8c73.3,75,145.1,149.1,217.6,222.4c57.8,58.5,128.5,95.4,206.5,119
			c5.7,1.7,13.3,8.6,18,1.4c4.9-7.5,10.4-16.5,5.5-26.7c-2.5-5.3-5.2-10.6-7.9-15.8c-43.2-82.5-104.9-149.3-177.6-206.2
			c-49.6-38.8-103.2-70.9-165.1-86.2C860.8,1787.7,828.3,1782.6,795.9,1787.8z M585.5,1901.5c27.7,19.3,56.9,21.3,86.2,14.5
			c77.5-18,139.1,7.4,187.6,67.5c24.8,30.8,46.9,63.6,69.7,96c68.3,97.4,160.8,160.7,273.4,196.4c14.3,4.5,17.6,1.6,17.3-12.9
			c-0.4-18.4,0.3-37.1,3.5-55.1c2.7-15.3-0.3-21.6-16.2-26.1c-103.3-29.2-189.4-86-263.6-163.5c-66.9-69.8-136.9-136.6-205.4-204.8
			c-6.7-6.6-12.3-11.4-22.8-7.1C664.1,1827,623.1,1860.9,585.5,1901.5z M742.3,2174.8c55.1,0.5,100.3-13.3,142.8-37.1
			c5.8-3.3,15.4-5.6,7.5-15.9c-30.6-39.6-54.9-83.8-90-120c-32.6-33.6-72.2-43.3-117.4-33.9c-12.9,2.7-26.3,3.3-39.2,6.2
			c-11.2,2.5-25.3-8.3-32.9,2.7c-6.7,9.6-7.4,23.4-10.7,35.3c-0.4,1.4-0.7,2.9-1,4.3c-13.5,78.1,17.4,130,90.1,151.1
			C710.1,2172.9,729.1,2175,742.3,2174.8z M1617,1282.3c-3.9-2.6-5-4-6.1-4c-107.7-0.2-215.4-0.1-323.1-0.6
			c-13.1-0.1-14.9,6.2-12.8,16.4c9.7,47.4,24.5,92.9,57.9,129.4c50.6,55.2,111.1,48.3,147.5-16.5c22.5-40.2,51.7-73.2,92.4-95.7
			C1587.8,1303,1601.6,1292.5,1617,1282.3z M1881.8,1783.2c18.1-87.8,34.9-169,51.5-250.2c1.5-7.5-0.5-14.2-4.8-20.9
			c-17.5-27.3-34.5-54.9-51.8-82.3c-2.6-4.1-4-9.4-10.9-9.3c-14.4,0.3-42.5,23.7-45,38.9c-9.3,55.9-18.3,111.9-27.6,167.8
			c-1,6.1-0.6,11.4,2.8,16.8C1823.5,1688.4,1850.8,1732.9,1881.8,1783.2z M2000.8,1976c25.2-77.1,48.6-148.9,72.2-220.6
			c1.8-5.4,1.8-9.7-1.3-14.5c-30.5-48.4-60.9-96.9-92-146.5c-2.6,3.7-4.6,5.3-5,7.2c-16.5,79.2-32.9,158.5-49.2,237.8
			c-1.4,6.6-1.4,12.9,2.5,19.1C1951.4,1895.8,1974.5,1933.4,2000.8,1976z M1025.6,2543.6c-22.3-9.8-41-22.6-53.1-43
			c-5.8-9.8-12.4-4.5-19-3.4c-42.2,7.2-78.7-3.2-106.9-36.1c-8.1-9.5-13.5-12.9-24.6-4.1c-13.5,10.7-30.4,14.7-47.2,17.3
			c-57.4,8.9-84.4-7.3-104.7-62.3c-1-2.8-2.3-5.3-7.2-3.5c-1.8,34.8-3.3,70.2-5.5,105.4c-0.7,11.5,2.4,16.6,14.7,19.3
			C789.3,2558.5,907,2562.2,1025.6,2543.6z M672.9,466c0.3,65.6,40.4,122.8,98.3,140.2c30.3,9.1,33.9,7.6,47.5-19.9
			c5.2-10.5,10.3-21.2,16.1-31.4c4.6-8.2,5.8-16.3,3.1-25.4c-12.3-41.1-33-76.9-65.3-105.7c-14.1-12.6-30.7-21.2-49.4-20.8
			C687,403.7,672.7,422.7,672.9,466z M2113.3,1807.2c-24.1,74-46.5,142.6-68.9,211.2c-2.1,6.4-3.6,12.4,0.6,18.9
			c22,34.2,36.2,72.1,50.4,114.6c29.2-78.2,57-152.6,84.8-226.9c1.6-4.4,1.1-8.5-1.4-12.6
			C2157.8,1878.8,2136.9,1845.2,2113.3,1807.2z M2021.4,1377.6c-6.3,29.4-9.2,53.6-16.9,76.2c-14.6,42.3-5.2,77.3,21,112.4
			c25.7,34.5,46.5,72.6,72.1,113.2c14.1-42.7,26.7-80.9,39.2-119.1c2-6,0.5-11.3-3.2-16.6
			C2097.3,1490.2,2061.2,1436.5,2021.4,1377.6z M2379.4,2232.3c-27.4,59.2-52.7,114.8-78.9,169.9c-4.4,9.3-1.8,15,3.5,21.7
			c18.1,23.2,36.6,46.3,54,70c8.2,11.1,11.9,9.9,17-2.1c20.9-49.5,42.2-98.7,63.7-148c2.9-6.7,3.5-12-0.6-18.4
			C2419.1,2295.8,2400.5,2265.9,2379.4,2232.3z M2480.5,2652.2c24.2-45.2,46.8-87.3,69.4-129.5c2.4-4.5,5.6-9,2.3-14.4
			c-23.9-38.3-47.8-76.6-74-118.6c-24.2,56-46.2,107.2-68.6,158.3c-2.8,6.5-1.4,11,2.5,16.1
			C2434.3,2592.5,2456.4,2621.1,2480.5,2652.2z M2249.4,1390.6c-16.7,51.7-31.7,98.6-47,145.4c-1.5,4.5-2.4,8.2,0.4,12.4
			c24.5,36.1,49,72.3,75.9,112.1c19-51.2,36.2-98,53.6-144.7c2.4-6.3,0.3-11.1-3.5-16.2C2303.1,1464.6,2277.7,1429.5,2249.4,1390.6z
			 M2566.2,2185.8c-20.4,47.2-39.9,92.2-59.4,137.1c-2,4.6-0.9,8.5,1.5,12.4c24.9,39.5,49.7,79,75,119.1
			C2636.2,2393.4,2644.9,2264.3,2566.2,2185.8z M1721.7,2507.7c20.7-22,29-47,34.2-73.1c11.4-57.8,9.3-116.3,3.3-174.3
			c-9-87.1-100.9-143.7-185.8-115.9C1714.5,2227.2,1761.8,2348.4,1721.7,2507.7z M2217.8,2855c21.2-48.8,40.5-93.1,59.5-137.5
			c2.2-5.2,5.4-10.7,1.5-16.7c-22.3-33.9-44.7-67.8-68.4-103.9c-20.1,43.4-38.5,83.4-57.2,123.2c-3.1,6.7-3.1,12.2,0.5,18.7
			C2174.4,2775.9,2194.8,2813.1,2217.8,2855z M2258.2,2364.1c28.6-61.8,55.6-120.4,82.9-178.8c2.9-6.1,2.3-11-1.1-16.3
			c-14.9-23.5-29.7-47.1-46.3-73.3c-28.4,66.4-55.4,129.9-82.7,193.2c-2.2,5.2-3.5,9.3,0.3,14.1
			C2226.5,2322.6,2241.5,2342.4,2258.2,2364.1z M2567.9,1825.6c-23.7,51.5-46,100.2-68.7,148.7c-2.7,5.7-1.9,9.3,1.3,14
			c18.2,26.5,36.2,53.1,55.9,82.1c23.3-53.7,45.2-104.2,67.2-154.8c2.6-5.9,2.1-11.2-1.8-16.5
			C2604.2,1875.5,2587.1,1851.8,2567.9,1825.6z M1576.5,1737c3-6.6-0.2-11.2-4.8-15.5c-27-25-53.9-49.9-80.8-75
			c-7.6-7.1-11.4-7.1-13.9,4.6c-6.9,33.7-14.5,67.4-22.8,100.8c-1.8,7.5-0.8,12.5,4,17.9c19.6,21.9,38.6,44.4,58.5,65.9
			c11.6,12.5,40.5,4.4,43.9-12.2C1566.5,1794.8,1571.3,1765.8,1576.5,1737z M1325.5,1701.9c-15.1,50.3-29,95.8-42.3,141.4
			c-1.9,6.5-6.2,13.4-0.3,20.8c22.3,27.9,44.1,56.1,69.1,87.9c13.5-59.1,25.8-113.2,38.3-167.2c1.4-5.8-0.6-9.9-4.2-13.9
			C1366.9,1749,1347.6,1727,1325.5,1701.9z M2460.1,1928.4c23.8-51.4,46-99.2,68.2-146.9c1.7-3.7,2.1-7-0.3-10.3
			c-19.3-26.3-38.6-52.6-59.5-81.1c-21.7,50.3-41.5,96.9-61.8,143.2c-2.9,6.7-3.3,11.9,1.1,18.2
			C2424.6,1875.6,2440.9,1900.1,2460.1,1928.4z M2206.6,1853.4c15.9-42.5,30.4-81,44.7-119.6c2.4-6.4,2.7-12.7-1.5-19
			c-23.2-34-46.2-68.1-71.5-105.5c-14.4,43.8-27.6,84.1-40.7,124.4c-1.7,5.2,0.2,10,3.1,14.6
			C2161.8,1782,2182.9,1815.7,2206.6,1853.4z M2557.3,1718.5c20.9-45,40-86.2,59.2-127.4c2.2-4.7,4.6-9.2,0.9-14.4
			c-20.3-28-40.6-56.1-62.8-86.8c-20.2,46.8-38.7,89.9-57.3,132.9c-3,7-1.3,12.6,3,18.4C2518.8,1666.1,2537,1690.9,2557.3,1718.5z
			 M478.1,817.8c-5.9,2.4-18.8-9.3-21.7,9.3c-11.5,75.4,52.2,138.2,126.4,124c20.4-3.9,29.2-26.3,16.7-42.5
			c-15.3-19.9-29.3-40.7-41.7-62.5c-19.6-34.7-19.6-34.6-60-29.7C492,817,486.1,817.2,478.1,817.8z M2469,2272.5
			c20.5-47,39-89.3,57.2-131.7c1.9-4.5,5.4-9.1,1.8-14.5c-19-28.2-38.1-56.5-59-87.5c-20.6,44.4-38.9,84.4-57.7,124.2
			c-3.2,6.7-3.5,11.8,0.6,18.2C2430.5,2210.3,2448.5,2239.6,2469,2272.5z M2456.3,1580.6c20.3-47.7,38.9-91.5,57.8-135.1
			c2.3-5.4,1.9-9.4-1.5-14.1c-19.4-26.6-38.6-53.3-59.7-82.4c-18.4,49.2-35.6,95.4-53,141.4c-2.7,7.1-1,12.7,3.3,18.5
			C2420,1531.2,2436.5,1553.8,2456.3,1580.6z M1237.5,1805.4c15.2-50.8,29.1-97.1,43.1-143.4c1.6-5.4,1.2-9.9-2.7-14.2
			c-13.3-14.8-25.7-30.5-39.9-44.3c-14-13.5-28.1-9.3-34.1,8.9c-10,30-19.5,60.2-29.6,90.1c-2.9,8.7-4.9,16.3,1.8,24.7
			C1195.9,1751.7,1215.1,1776.8,1237.5,1805.4z M2373.9,1560.9c-18.8,50.3-36.5,97.6-54,144.9c-2,5.5-2.9,11.4,0.8,16.9
			c14.6,21.5,29.2,43,45.5,67c21.2-49.3,40.9-95.1,60.8-140.9c2.5-5.9,3.4-10.8-0.8-16.4C2409.2,1609.5,2392.5,1586.3,2373.9,1560.9
			z M1713.8,1777.9c7.1-42.3,13.3-79.2,19.4-116.1c1-5.8,2.2-11.8-1.1-17.3c-20.3-33-40.7-65.9-63.6-103
			c-10.6,56.6-20.1,107.9-29.8,159.1c-1,5.2,1.2,8.6,4.4,11.7C1665.5,1733.3,1688.1,1754.1,1713.8,1777.9z M2168.9,2247.9
			c29.3-68,56.8-132,84.5-195.9c3.1-7.1,5-13.3,0.1-20.7c-11.2-17.1-21.8-34.6-34.4-54.8c-27.9,74.7-54.5,146-81,217.3
			c-2.4,6.5-2.3,12.7,2.6,18.6C2149.5,2222.9,2157.9,2233.9,2168.9,2247.9z M2377,1903c-19,44.1-36.4,84.4-53.8,124.8
			c-1.8,4.3-2,8.7,0.5,12.7c15.5,24.6,31.1,49.2,48.8,77.2c20.4-44.2,39-84.7,57.9-125c3.2-6.8-0.3-11.3-3.5-16.1
			C2411.3,1953.4,2395.5,1930.3,2377,1903z M929,2445.3c18,0.4,31.1-7.8,39.3-23.4c9.9-18.8,17.5-38.6,23.9-59
			c4.1-13.1,0-18.9-12.4-22.3c-21.2-5.9-41.9-13.5-63.1-19.1c-37-9.8-37-9.4-42.5,29.3c-1.2,8.7-3.1,17.3-4.2,26.1
			C865.7,2410.6,895.4,2444.9,929,2445.3z M2160.9,1486.3c16.1-48.9,30.5-92.8,44.9-136.7c3.6-10.8,5.7-22.5-11-20.9
			c-38.7,3.9-77.4,8.5-115.6,16.6c-10.1,2.1-9.8,6.3-4.9,13.5C2102.4,1399.9,2130.2,1441.1,2160.9,1486.3z M763.1,2302.6
			c0-0.4,0-0.8,0-1.1c-8.1-0.5-16.3-0.1-24.2-1.7c-18-3.5-23.8,3.9-22.3,21.2c1.6,18.3,1.1,36.7,2.6,55
			c3.9,47.2,17.2,54.5,66.3,39.2c13.6-4.2,21.6-15.3,25-28.8c3.9-15.6,7.3-31.4,10-47.3c5.5-33.4,4.4-34.6-28.7-36.4
			C782.2,2302.2,772.7,2302.6,763.1,2302.6z M977.3,1724.7c10.4-36.8,19.3-68.4,28.1-100.1c8.2-29.6-5.7-48.5-36-48.8
			c-13.2-0.1-26.6,1.2-39.6-0.3c-17.4-2-25.9,3.9-25.8,21.9c0.1,15.6-12.2,32.5-0.7,46.4C925.7,1670.8,950.5,1695.7,977.3,1724.7z
			 M2056.1,2675.1c-27.3,61.3-61,112.6-108.3,157.9c23.6,9.6,44.1,17.5,64.2,26.3c11.6,5.1,16.7,0.8,21.5-9.8
			c15.6-34.9,32.1-69.5,48.1-104.2c3-6.4,7.3-12.7,2.6-20.6C2075.1,2709.6,2066.8,2694.2,2056.1,2675.1z M417.6,502.4
			c0.1,25.4,6.6,49.5,17,72.3c8.4,18.3,20.8,33.9,41.9,39.4c10.8,2.8,17.9,2.2,17.7-12.8c-0.3-19-1-39,4.2-56.9
			c10.8-36.4,3.5-62.7-29.1-84.5c-17.8-11.9-30.4-13.7-43,4.6C418.5,475.9,417.4,489,417.6,502.4z M2404.9,2792.9
			c15.2-28.1,28.5-53.5,42.5-78.5c3.9-7,3-12-1.6-17.9c-20.9-26.6-41.5-53.4-64.2-82.7c-12.4,28.5-23.9,54.6-35.1,80.7
			c-2.7,6.3,0.8,11.3,4.1,16.3C2368.1,2737.2,2385.5,2763.6,2404.9,2792.9z M484.1,762.6c2.7-0.2,7.1-0.9,11.5-0.9
			c19.1,0.1,23.9-7.3,17-25.9c-6-16.4-8.3-34.2-11.7-51.5c-1.7-8.8-4.2-14.1-15.1-14.3c-25.9-0.5-48.7-10.3-68.1-27.5
			c-7.7-6.8-12.4-5.8-16,3.7C380.8,701.6,423.1,762.8,484.1,762.6z M2292.9,1778.9c-16.6,44.3-32,85.5-47.6,126.5
			c-1.8,4.8-0.6,8.5,1.9,12.4c12,19.2,24,38.5,37.9,60.9c18.4-43.1,35-82.8,52.3-122.3c2.5-5.6,1.6-9.7-1.4-14.2
			C2322.3,1822.2,2308.7,1802.2,2292.9,1778.9z M2117.8,2667.3c17.5-38.1,34.2-74.9,51.2-111.4c3.2-7,6.2-13.2,1.2-20.6
			c-12.9-19.1-25.6-38.3-39.9-59.7c-11.8,27.4-21.5,52-32.8,75.8C2077.5,2594,2084.6,2631.7,2117.8,2667.3z M2358,1446.6
			c15.4-41.1,29.6-78.8,43.7-116.5c2.4-6.5,2.1-11.4-7-11.3c-40.9,0.3-81.8-0.9-126.1,5.6C2299,1366,2327.4,1404.8,2358,1446.6z
			 M2308,2645.5c11.4-26,21.6-49.3,31.8-72.6c2.6-5.9,1.9-11.2-2.2-16.5c-20.3-26.1-40.4-52.3-60.6-78.6c-5.1-6.7-8.7-6.5-12.3,1.6
			c-7.7,17.4-16,34.6-24.1,51.9c-2.4,5.2-1.5,9.7,1.6,14.5C2263.8,2578.1,2285.1,2610.6,2308,2645.5z M2318,2761.2
			c-19.2,44.3-36.9,85.1-54.6,125.9c-4.4,10.1-0.5,13.3,9.5,12.6c22.8-1.7,45.6-2.4,68.3-4.8c14.9-1.6,37.1-42,29.6-53.9
			C2354.5,2815,2337,2789.8,2318,2761.2z M1510.7,1080c-34.3,40.1-64.2,77.8-75.3,126.7c-1.9,8.3-4,16.4,9.4,16.3
			c24.2-0.3,48.5-0.1,72.7-0.1c7.2,0,10.7-2.8,10.3-10.6C1525.7,1169.1,1524.6,1125.8,1510.7,1080z M1052.9,1658.1
			c-10.7,37.7-20.5,72.1-30.4,106.6c-1.3,4.6-0.7,8.4,2.8,12.1c13.3,13.7,26.3,27.8,39.7,41.5c6.3,6.4,11.2,8.5,14.8-3.3
			c7.6-25.3,16.5-50.2,24.9-75.2c2.2-6.6,2.7-12.6-2.1-18.6C1086.6,1701.1,1070.8,1680.8,1052.9,1658.1z M2587.3,2568.1
			c-22.2,41.7-43.5,81.8-65,121.9c-2.9,5.5-5.2,10.2-0.5,16c13,16.2,25.6,32.7,40,51.2c22.7-47.1,29.1-94.6,40.6-140.8
			C2606.9,2598,2603.4,2583.4,2587.3,2568.1z M1196.9,1941.3c7.6-24.5,13-41.8,18.3-59.3c1.7-5.6,3.2-11.8-0.8-17
			c-20.9-27.1-41.9-54-65.3-84.1c-9.3,27.6-17,50.9-25,74.2c-2.3,6.8,1.1,10.9,5.5,15.4C1150.9,1892.7,1172.1,1915.2,1196.9,1941.3z
			 M558.6,237.9c0.6,16.5,10.4,28.8,19.1,41.5c21.8,31.9,22.2,32.2,49.4,5.8c8.2-7.9,20.9-12.5,23-25.4
			c2.9-17.9-18.1-51.9-35.8-59.6C585.7,187.7,558.1,206.4,558.6,237.9z M703.4,226.9c26.5-11,50.7-21.2,75.1-30.9
			c6.7-2.7,8.1-6.9,8.3-13.5c1-37.7-38.6-67.1-74.6-55.2c-12.9,4.3-19.3,11.9-17.4,26.3C698,177.5,700.5,201.6,703.4,226.9z
			 M1780.4,1722.8c-7.5,19.6-7.8,37.2-10.9,54.2c-9.9,54.7-14.1,51.9,42.1,70.9c17.4,5.9,34.2,13.5,55.3,21.9
			c-3.4-9.3-4.2-13.7-6.4-17.3C1834.4,1810.1,1808.1,1767.7,1780.4,1722.8z M524,436.1c11.8-26,22.9-50.1,37.6-72.3
			c3.5-5.3,5.6-9.7,0.4-15.5c-8.8-9.9-16.3-20.9-28.2-27.7c-21.7-12.3-35.9-7.4-45.1,15.9C474.7,371.6,487.1,407.7,524,436.1z
			 M777.8,1589.3c-2,25.2-0.5,45.8-5.9,64.5c-10.5,36.1,3.9,56.8,35.5,70.2c1.3,0.6,2.5,1.5,3.8,2.2c11,6.9,18.5,8.6,19.7-8.9
			c1-15.3,5-30.4,7.3-45.6c1.1-7.2,2.7-14.5-3.3-20.8C817,1631.7,799.2,1612.4,777.8,1589.3z M1045.4,2376.6
			c-4.9,13.6-8.5,24.8-13,35.7c-4.8,11.6-9.3,23.5-15.9,34c-5.9,9.3-3.5,16.7,1.2,24.5c11.2,18.7,34,24.9,54.1,15
			c21.2-10.4,30.4-33.4,21.3-56C1084.1,2407.2,1066.8,2391.5,1045.4,2376.6z M2619.9,1176.2c-38.4,40.9-80.6,67.6-127.8,87.6
			c45.5,1.4,90.1,2.7,133.1,25C2627.4,1250.9,2626.5,1215.9,2619.9,1176.2z M1012.5,116.7c0.7,6.2,1,9.9,1.5,13.5
			c5.7,46.9,5.7,46.9,50.9,59c26.3,7,30.2,3.6,26.8-23.5c-4.5-36.2-27.4-63.4-56.7-67.1C1019.4,96.6,1008,99.4,1012.5,116.7z
			 M632,1675.7c-2.4,28.6-4.8,52.7-6.5,76.8c-1.2,16.7,16.7,28.5,32.1,21.4c13.9-6.4,28-12.8,41.7-19.6c12.7-6.3,16-24.1,5-31.8
			C681.7,1706.7,658.1,1692.4,632,1675.7z M2488.6,2752.7c-16.1,30-30.4,57.4-45.6,84.2c-6.1,10.7,1.6,16.6,6.1,23.4
			c6.4,9.7,13.4,2.3,18.9-1.3c14.1-9.3,28.3-18.7,41.2-29.7c24-20.5,23.6-20.9,4.5-44.9C2505.9,2774.7,2498.2,2764.9,2488.6,2752.7z
			 M2202.4,2484.6c9.2-20,17.3-38,25.7-55.8c2.9-6.1,2.5-11-1.6-16.2c-14.2-18.1-28.3-36.4-44.3-57.1c-8.4,19.4-15.4,35.4-22.4,51.5
			c-3,6.9-0.6,12.7,3.3,18.5C2175.8,2444.2,2188.3,2463.2,2202.4,2484.6z M1428.9,1616c-23,0-43.7-0.1-64.3,0.1
			c-6.2,0-13.9-2.7-15.9,7c-1.5,7.5-7.5,14.7-0.3,22.7c18.7,20.6,37.1,41.5,58.5,65.5C1414.7,1677.7,1421.5,1648.1,1428.9,1616z
			 M2120.6,2791.3c-13.5,28.8-25.1,54-37,79.1c-3.6,7.7-0.7,10.7,6.8,11.9c28,4.4,55.9,8.9,87.8,14.1
			C2158.3,2860.2,2140.7,2828,2120.6,2791.3z M1262.2,1926.1c-28.3,45.1-22.3,83.7,14.2,117.7c9.9-14.2,19.9-29.6,31-44.2
			c5.1-6.8,3.7-11.5-1-17.3C1291.8,1964,1277.4,1945.4,1262.2,1926.1z M2632,1503.4c4.1-62.8-4.7-124.4-20.5-145.3
			c-9.3,21.4-18.1,42.4-27.5,63.1c-3,6.7-3.5,11.9,1.2,18.2C2600.3,1459.4,2614.8,1479.7,2632,1503.4z M1608,1565.6
			c-29.3,14.1-56.7,24.1-87,34.4c23.5,21.6,45.3,41.7,69.3,63.9C1596.6,1629.1,1602,1598.9,1608,1565.6z M2636.9,1826.9
			c3.4-53.2,6.3-100.3,1.4-148.1c-15.1,27.6-28.1,55.9-41.3,84c-2.7,5.8-0.5,9.8,2.7,14C2611,1792,2622.3,1807.2,2636.9,1826.9z
			 M1129.1,1666.2c8.1-24.8,14.1-45.2,21.4-65.1c3.8-10.2,2.4-15-9.1-15.8c-18.3-1.3-36.5-3.3-54.8-4.6c-4.6-0.3-10.4-2.7-13,4.4
			c-2,5.5-0.2,10.2,3.1,14.3C1093.1,1620.7,1109.8,1641.8,1129.1,1666.2z M714.3,1663.3c7.6-24.1,4-47.3,8.7-69.5
			c2.1-10-4.2-10.8-11.9-9.6c-22.2,3.5-42.3,12-60.5,25.1c-6,4.3-8.1,8.1-0.3,13C671.3,1635.5,692.2,1649.1,714.3,1663.3z
			 M924.1,169.7c-11.1-23.3-25.8-41.4-42.1-58.2c-11.1-11.4-19.5-7.3-25.7,5c-7.5,14.8-6.5,31.5-9.6,47.3
			c-2.4,12.4,3,13.6,13.1,12.4C880.2,173.8,900.7,172,924.1,169.7z M564.8,1814.1c0-0.3-0.6-2.7,0.1-4.6c6.7-20.1-10-24.6-21.4-32.6
			c-6.6-4.6-11.8-1.1-14.1,4.8c-5.5,14-30.6,20.2-17.2,41.8c7.3,11.8,15.2,23.2,22.8,34.9c5.6,8.7,10,6.8,17,0.4
			C565.1,1846.7,563.9,1831.3,564.8,1814.1z M1349,1163.5c0.6,0,1.2,0,1.8,0c0,15.4,0.2,30.8-0.1,46.2c-0.2,10.9,5.4,13.6,15.2,13.3
			c8.7-0.2,13.7-2.4,14.1-12.3c0.5-13.1,2.9-26.1,3.1-39.1c0.4-17.7-1.7-35-10.6-51c-4-7.3-10.1-12-17.5-10.9
			c-9.2,1.4-5.7,10.4-5.9,16.4C1348.7,1138.6,1349,1151.1,1349,1163.5z M2542.2,1377.3c29.9-53.6,27.2-58.3-32.8-57.6
			c-1.9,0-3.8,1-7.2,2C2514.1,1342,2527.5,1359.7,2542.2,1377.3z M1762.3,1478.5c-17.1,10.5-28.7,18-40.6,24.9
			c-6.1,3.6-8.7,7.3-4.3,14c9.3,14.4,18.3,29,30.7,48.7C1753.3,1534.7,1757.3,1509.7,1762.3,1478.5z M1627.1,1774.8
			c-14.6,48.6-14.6,48.6,32.8,46.4c4.8-0.2,10.2,1.9,15.6-4.1C1659.5,1803.1,1645.8,1786.7,1627.1,1774.8z M1965,1379.5
			c-49.4,10.8-49.5,10.8-24,49.8c2.5,3.9,3.2,9.9,11.4,10.4C1956.4,1420.5,1960.4,1401.3,1965,1379.5z M2619,2069.8
			c-29.4,48.5-29.3,64.3,0,85.2C2619,2127.3,2619,2100.3,2619,2069.8z M1470.3,1866c-10.8-12.2-20.7-23.4-33.9-38.4
			c-4,23.5-12.3,41.5-11.4,63.7C1441.1,1882.3,1454.9,1874.6,1470.3,1866z M2115.2,2270.4c1,31.4,4.1,57.9,4.3,84.5
			C2147.3,2296,2150.9,2313.6,2115.2,2270.4z M889.5,1712.6c-9.7,27.2-8.7,28.4,28.3,30.6C909.3,1731.5,901.4,1720.6,889.5,1712.6z"
			/>
		<path class="st0" d="M1370.8,2010.2c15-5.1,28-14.9,45.6-14.3c40.7,1.2,69.8,31.2,66.7,71.4c-2.8,37-37.4,65.8-73.2,60.9
			c-40.3-5.5-66.1-42.1-57.2-81.4c1.6-7.1,3.8-14.1,5.8-21.2C1362.5,2020.4,1366.6,2015.3,1370.8,2010.2z"/>
		<path class="st0" d="M2252.8,567.8c0.3,83.5-66.1,150.5-149.6,151.2c-82.2,0.6-150.8-67.2-151.7-150
			c-0.8-80.4,66.7-149.8,146.1-150.3C2185.4,418.1,2252.5,482.6,2252.8,567.8z"/>
		<path class="st0" d="M2101.7,950.2c0.3-83.6,67.1-149.9,150.8-149.6c83.3,0.2,150.4,67.6,150.1,150.6
			c-0.3,82.8-68.4,150.5-151.1,150.2C2168.4,1100.9,2101.4,1033.3,2101.7,950.2z"/>
		<path class="st0" d="M1503.9,2363.6c36.3,0.2,67.3,30.5,65,66.6c-2.7,42.5-29.9,64.8-68.2,66.2c-35.7,1.2-65.3-31.3-65.1-67.4
			C1435.8,2390.8,1464.6,2363.4,1503.9,2363.6z"/>
		<path class="st0" d="M1516,1977.5c0.3-37.4,28.5-65.2,66.2-65.3c36.8,0,66.4,29,66.7,65.4c0.3,36.5-31.6,68.1-67.9,67.4
			C1544.9,2044.4,1515.7,2013.9,1516,1977.5z"/>
		<path class="st0" d="M1887.1,2718.8c-38-0.3-65.5-27.8-65.4-65.6c0-36.5,29.6-66.5,65.8-66.7c36.4-0.2,67.8,31.6,67.1,67.9
			C1953.7,2691.1,1924.4,2719.1,1887.1,2718.8z"/>
		<path class="st0" d="M1746.8,1903c37.3,0.5,64.9,29.1,64.1,66.8c-0.7,36.4-31,65.9-67.1,65.2c-36.1-0.7-66-31.2-65.7-67
			C1678.3,1930.6,1708,1902.5,1746.8,1903z"/>
		<path class="st0" d="M1935.8,2226.7c37.2-0.1,67.3,28.2,66.8,64.9c-0.5,41-28.9,65.7-67.2,67.5c-35.6,1.6-65.6-30.7-65.5-66.9
			C1870,2254.8,1898.1,2226.9,1935.8,2226.7z"/>
		<path class="st0" d="M1889.1,2005c36.4,0.2,66,30.3,65.4,66.5c-0.6,35.8-31.2,66-66.9,65.9c-36.2-0.1-65.8-29.9-66-66.4
			C1821.6,2032.5,1849.9,2004.8,1889.1,2005z"/>
		<path class="st0" d="M1709.9,2807.2c-37.1,0.2-66.4-28.1-67.2-64.8c-0.8-36.5,30.8-68.4,67.2-68c36.1,0.3,65.6,30.5,65.6,67
			C1775.6,2778.7,1747.3,2807,1709.9,2807.2z"/>
		<path class="st0" d="M1936.5,2537.5c-39.7-0.3-67.2-27.5-66.6-65.8c0.6-38,29.2-64.7,69-64.3c35.1,0.4,64,30,63.9,65.6
			C2002.8,2509.7,1973.8,2537.8,1936.5,2537.5z"/>
		<path class="st0" d="M1351.6,2785c-37.2,0-65.8-28.5-66-65.8c-0.2-37.9,29.8-67.8,67.3-67.1c35.8,0.7,66,31.7,65.5,67.3
			C1418,2755.9,1388.3,2785.1,1351.6,2785z"/>
		<path class="st0" d="M1249.5,2674.8c-33.7,5.8-67.9-28.2-67.1-65.3c0.8-36.1,28.8-64.1,64.9-64.3c39.2-0.3,68.1,27.5,68,65.3
			C1315.3,2647.7,1287.5,2674.8,1249.5,2674.8z"/>
		<path class="st0" d="M1566.4,2769.8c0,38.1-25.5,64.8-61.8,65c-40.7,0.2-67.5-25.4-67.6-64.6c-0.2-40.1,25.5-65.6,66.2-65.8
			C1541.6,2704.3,1566.4,2730,1566.4,2769.8z"/>
		<path class="st0" d="M1330.6,2254.4c-0.1-35.6,26.9-63.2,62-63.5c37.2-0.3,65.4,26.1,66.1,62.1c0.8,35.1-28.4,65.1-63.7,65.6
			C1360.1,2319.1,1330.7,2289.9,1330.6,2254.4z"/>
	</g>
</g>
</svg>
