<?xml version="1.0" encoding="utf-8"?>
<!-- Generator: Adobe Illustrator 23.0.0, SVG Export Plug-In . SVG Version: 6.00 Build 0)  -->
<svg version="1.0" xmlns="http://www.w3.org/2000/svg" xmlns:xlink="http://www.w3.org/1999/xlink" x="0px" y="0px"
	 viewBox="0 0 3000 3000" style="enable-background:new 0 0 3000 3000;" xml:space="preserve">
<style type="text/css">
	.st0{stroke:#000000;stroke-width:10;stroke-miterlimit:10;}
</style>
<g id="Layer_1">
</g>
<g id="Layer_2">
	<g>
		<path class="st0" d="M1000,1583.1c-33.2-19.5-64.7-33.5-96.2-47.3c-70.9-31-131.1-78-189.9-126.9c-30.9-25.7-31.5-61-23.4-97
			c7-31,20.5-59.5,38.3-85.6c7.3-10.8,6.7-16.2-4.3-24.6C611,1115,587.8,930.7,710.2,824.8c10.2-8.8,9.1-17.2,6.8-27.8
			c-17.3-80.4-22-161.2-8-242.6c25.1-146.5,103.5-257.7,226.9-338.3c90.2-59,190.3-92.7,295.3-112.5c192-36.2,384.3-32.9,575.7,3
			c85.4,16,164.7,49,236.3,100.6c90.1,64.9,138.8,152.9,156.6,260.6c16.7,100.8,20.7,202.4,19.7,304.3
			c-1.8,183.3-10.5,366.3-20.5,549.3c-7,128.1-14.2,256.3-43.2,382c-15.2,65.8-39.4,127.3-87.6,176.6c-8.4,8.6-3.3,13.8,1.1,20.4
			c49.2,73.7,84,153.3,97.9,241.2c23,145.7-7.4,279.2-92.7,399.9c-13.9,19.7-28.2,39-45.2,56.1c-8.7,8.8-6.4,12.6,2.2,19.5
			c34.2,27.4,68.5,54.8,95,90.3c32.3,43.2,35.3,89.9,8.8,132.9c-24.1,39.1-62,52.8-105.3,36.8c-46-17-83.3-47.7-119.2-79.6
			c-14.8-13.2-22.5-12.2-37.1,0.4c-138.5,119.1-298.7,180.8-482.2,173.7c-173.3-6.7-322.6-74.4-451.8-188.1
			c-10.6-9.3-16.6-9.3-27.1-1.1c-27.7,21.6-54.8,44.4-87.1,59.1c-35.5,16.2-70.7,20.1-105.4-3.7c-64.2-44.1-70.4-128.7-12.6-180.8
			c24.5-22,53.1-38.1,81.8-53.6c12.6-6.8,11.7-10.7,3.9-21c-73.5-97.9-112.1-207.7-108-330.8c3.6-109.3,40-207.4,105.4-294.6
			c9.3-12.4,7.8-18.2-2.6-28.2c-38.9-37.6-70.9-80.5-93.3-130.1c-9.2-20.3-15.7-41.4-18.8-63.6c-7.1-51.8,16.3-84.7,68.5-92.5
			c57.3-8.5,115.1-13.3,170.9-29.8C943.3,1604.8,970.7,1596,1000,1583.1z M734.5,1361.8c9.5-7.9,16.7-14.8,24.7-20.3
			c8.1-5.5,16.8-10.5,25.8-14.3c28.7-12.2,55.6-0.8,64.9,28.8c3.2,10.1,8,13.1,17.2,15c27.2,5.8,47,21.6,56.3,48.2
			c3.2,9.2,8.2,9.9,16.3,10.2c34,1.5,60.4,16.2,74.9,48c4.2,9.3,9.8,12.5,19.5,12.9c82,3.6,163.9,7.3,245.9,11.8
			c12.4,0.7,16.8-4.1,20.9-14.7c20.8-54.7,61.4-88.9,116.2-105.5c48.9-14.8,98.7-14.3,147.8,0.4c65.6,19.6,96.6,58.9,101.3,127.4
			c1.1,16.6,0.7,33.3,0.3,49.9c-0.6,25.8-13.3,44.5-36.4,55c-15.2,6.9-24.9,17.8-30.6,32.6c-24.7,63.9-25.1,127.9,3,190.6
			c14.8,33,25.6,66.9,29.3,102.5c1.6,15.7,7.6,18.8,21,19.8c78.8,5.5,157.1,2.5,232.6-21.7c112.4-36.1,191.8-106,221.4-224.9
			c17.4-69.7,26.7-140.4,33.6-211.6c10.2-104.4,14.8-209.2,20-314c6.8-136.9,13.3-273.7,13.5-410.8c0-7.5-0.7-14.4-4.7-21.2
			c-79.6-135.6-223.1-188.5-371.9-153.1c-7.9,1.9-11.8,5.2-10.4,15.4c3,23.2,4.8,46.7,5,70.1c0.1,13.5,4.2,16.9,17.4,18.7
			c128,16.9,216.2,92.5,244.9,209.2c10.5,42.7,16.6,86.1,15.9,130.1c-1.1,79.6-9.2,158.7-20,237.6c-5.3,38.6-10.8,76.8-27,112.8
			c-20.8,46.1-55.2,76.5-103.5,91c-43.3,13-86.6,8.5-129.9-0.7c-12.4-2.6-28.3-15.3-35.4-8.2c-7.5,7.5-5,25.5-5.8,39
			c-2.3,36.4-2,35.8-37.1,33.1c-11.4-0.9-10.8-5.7-10-13.8c2.3-24,4.1-47.9,5.8-71.9c8.2-115.7,16.7-231.4,24.2-347.1
			c8.5-129.9,15.1-260,16.2-390.2c0-5.6,2.7-12.1-3.6-17.6c-84.1,47.9-168.1,95.8-252.1,143.7c-2.7,1.5-5.2,3.4-8.1,4.5
			c-10.5,4.1-7.4,12.4-7,20.3c4.4,95.7-30.9,173.2-110.6,226.7c-79.6,53.5-164.9,56.9-251.5,16.3c-11.7-5.5-16.9-5.7-24.5,6.2
			c-62.7,98.1-191.7,147.6-300.7,108.8c-8.5-3-13.4-1.9-18.2,6c-11.1,18.6-22.1,37.1-29.8,57.3
			C734.3,1319.2,728.8,1338.5,734.5,1361.8z M2172.2,677.4c-1.8-78.3-5.8-155.7-23.8-231.7c-14.6-61.7-38.8-117.6-85.7-162.7
			c-85.4-82.1-190.4-121.5-304.4-139.5c-120.4-19-241.7-24.1-363.4-15.5c-124.6,8.8-245.4,32.8-359.6,85.1
			C792,324.7,712.6,538.4,759.2,777.1c0.9,4.4,0.3,12.1,7.4,10.1c15.4-4.3,31.5-8.3,45-16.2c7.9-4.6,5.5-18,6.8-27.6
			c16.3-119.4,63.1-225.1,151.4-307.7c165.5-154.8,358.6-188.2,569.4-112.9c111.8,39.9,198.8,111.1,235.6,230.5
			c2.5,8.2,6.5,7.9,13.8,6c39.6-10.5,80-14.4,120.9-12c9.6,0.6,14.2-1.7,16.7-11.9c15.5-64.3-12.4-130.2-69.9-163.3
			c-22.3-12.8-21.2-12.5-13.1-36.5c5.2-15.4,11-16.8,24.8-9.5c82,43.8,119.7,121.8,102.8,215.2c-1.7,9.4-2.8,16.2,10.7,17.2
			c10.2,0.8,20.2,5.4,30,8.9C2074.3,589.9,2127.1,627.2,2172.2,677.4z M1345.8,1502.4c13.9-10.6,23.8-18.4,33.9-25.8
			c27.1-19.7,48.6-19.6,76.7-2.2c34.5,21.3,45.9,54.7,50.9,91.9c7.8,58.5-12.8,109.5-44.1,156.7c-27.6,41.6-31.7,83.2-6.9,126.7
			c6,10.5,3.4,15.4-6.8,19.2c-4.6,1.7-9.1,4-13.1,6.7c-10.9,7.3-16.3,4.2-22.1-7.4c-26.2-53-29.3-104.5,3.2-156.5
			c15.3-24.5,30.6-49.2,39.1-77.3c9.2-30.4,9.2-60.8-0.9-90.9c-12.4-36.9-36.8-43.9-65.4-18.5c-32.8,29.1-67,55.9-103,81.1
			c-61,42.6-127.1,44.6-192.4,22.5c-34.4-11.6-60.6-11.7-93,2.4c-76.3,33.2-157.9,46.3-240.4,55.4c-40.3,4.4-47.7,17.4-38.4,57.1
			c0.7,3,1.5,6,2.6,8.9c41.3,103.9,108.8,182.6,216.2,221.7c37.8,13.8,77.4,20.5,117.4,24.3c133.1,12.6,266.6,14.3,400.2,10.7
			c35.7-1,71.5-4.9,104.8-19.7c21.9-9.8,26.9-18.9,23.2-42.2c-4.9-30.5-12.5-60-25.4-88.5c-33.4-73.8-34.2-149.2-6.2-224.8
			c7.8-21,18.3-42.7,39.9-51.3c23.9-9.6,28-25.6,26.6-47.9c-0.9-14.8-1.5-29.6-4.5-44.1c-4.4-22.2-15.4-40.1-35.2-52
			c-54.7-33-149.9-27.9-200.1,11.3C1366.7,1462.3,1353.1,1476.9,1345.8,1502.4z M1358.2,686.1c2.3,0.9,4.8,1.4,6.8,2.7
			c43.8,29.3,76,68.3,94.8,117.6c5,13.1,10.7,7.2,17.4,3.4c84.5-48.2,168.9-96.7,253.8-144.3c10.9-6.1,13.9-12.7,13.3-24.8
			c-4.8-90.7-42-165.3-115.7-217.8c-138.3-98.7-291.1-119-450.1-63.8C994.7,422.9,894.3,559,863.1,748.8c-1.5,9-2.3,16.9,11.6,16.4
			c39.7-1.6,77,8.8,112.2,26.4c8.2,4.1,11.7,2.4,15.4-5.4c11.6-24.1,27.2-45.5,46-64.5c9.3-9.4,19.4-18,30.2-28
			c-31.3-12.4-54.3-31.1-69.9-58.4c-15.6-27.5-14.8-28.4,15-36.9c12.1-3.5,17.2-1.5,23.2,10.8c14.3,29.5,39.3,43.5,72.8,45.2
			c42.2,2.1,83.3-9.6,125.4-7.2c79.6,4.6,151.5-15.9,212.4-68.9c8.8-7.6,13.6-5.2,19.2,2.4c2.9,4,5.7,8.3,9.4,11.4
			c10.4,8.8,10.1,14.6-1.5,23.5C1446.8,644.8,1406.2,668.2,1358.2,686.1z M1330.4,2052.4c-48.7,0-97.5,0.3-146.2-0.3
			c-8.7-0.1-13.6,2.6-17.7,9.9c-51.7,89.6-78.9,185-62.7,288.8c15.2,97,67.2,166.7,163.2,195.9c113,34.4,224.6,26.9,331.9-24
			c71.7-34,122.8-89,150.9-163c45.4-119.8,26.3-233.7-36.6-342.5c-3.7-6.5-8.4-9.7-16.2-10.1c-22.8-1.1-45.5-2.8-68.3-4.2
			c-4.4-0.3-8.2-0.3-11.7,3.6c-23.7,26.6-56.2,34.4-89.2,40.3C1462.6,2058.6,1396.5,2057.1,1330.4,2052.4z M673.9,984.8
			c0,79.1,27.5,138.9,71.2,175.8c97.3,82.4,248.6,41.9,311.9-64c5.3-8.8,1.5-12.9-4.2-18.5c-62.7-62.4-86.2-137.5-72.3-224.5
			c1.5-9.2,0-14.8-8.8-19.2c-67.9-34.1-135.8-34-201.7,3.5C706.4,874,676,931.3,673.9,984.8z M1298.2,923.5
			c37.7-3.1,79.3-1.2,119.3-13.9c9.8-3.1,15.6-7.2,14.9-19.3c-8.1-128.6-121.7-230.2-274.1-185.4c-45.8,13.5-81.5,43.8-105.6,85.2
			c-25.3,43.4-26.8,36.1,12.4,67.3C1132.2,910.6,1212.1,922.6,1298.2,923.5z M2024.5,1068.2c1-9.4,1.4-27.9-0.3-46.4
			c-1.8-19-3.4-38.1-6.1-57c-17.7-121.5-91-195-209.8-212.2c-14.7-2.1-16.4,2.5-16.1,14.7c0.5,19.7,0.5,39.5-1.1,59.1
			c-1.3,16.1,2,22,20.3,21.5c62.2-1.8,98.5,23.3,120.7,77.9c20.4,50.3,15.8,102.8,16.5,155.1c0.3,25.7-9.5,45.7-31.8,58.5
			c-8.4,4.8-8.8,9.1-6.1,17.6c11.8,36.6,16.2,74.4,17,112.8c0.9,43.1-11.5,80.3-47.1,107.1c-33.5,25.2-71.8,37.1-113.3,40
			c-4.1,0.3-10.8-2.3-11.4,5.6c-0.5,6.7,5.3,7.7,9.7,9.1c15.2,4.8,30.3,10.3,45.9,13.4c87.7,17.6,166.2-6,186-118
			C2012.2,1244.3,2019.2,1160.9,2024.5,1068.2z M1160.2,2541.2c-20.5-16.4-37.9-34.5-51.8-55.7c-5.2-7.8-9.9-4.4-15.4-1.3
			c-19.2,11-38.5,22-57.7,32.9c-87.7,49.8-175.6,99.5-263.1,149.6c-16.5,9.5-32.4,20.5-45,35.1c-20,23-19.3,52.3,1.5,81.4
			c18.7,26.1,41.8,33.2,70.8,20.2c13.4-6,26.2-13.6,38.5-21.8c51.4-34.1,98.4-74,147.9-110.6
			C1043.8,2628.2,1101.3,2585.1,1160.2,2541.2z M2107.7,2780.6c1.1-11.5-2.7-21.2-7.7-30.5c-8.3-15.4-19.6-28.4-32.1-40.4
			c-89.1-85.4-191.6-152.7-296-217.2c-33.7-20.8-34-20.4-61.5,6.7c-1.8,1.7-3.3,3.7-5.3,5.1c-9.9,6.7-9.5,12.5-1.5,21.8
			c72.9,85.7,151.8,165.3,237.3,238.3c31.4,26.8,63.7,52.7,102.4,68.9c24.1,10.1,39.3,5.3,53.3-16.8
			C2103.7,2805.4,2108.1,2793.4,2107.7,2780.6z M1022.9,882.9c-5.9,113.2,74,208.8,180.1,219c100.6,9.6,204.4-58.6,218.1-145
			c-37.2,8-74.6,9.3-111.9,11.8c-7.6,0.5-9.9,6.3-14,10.7c-32,34-70.7,52.3-117.6,43.5c-46.9-8.7-72.2-41.6-84.7-85.6
			c-1.6-5.6-2.7-10.4-8.3-13.3C1063.2,913.1,1043.8,899.3,1022.9,882.9z M1783.8,1001c0.1,0,0.2,0,0.3,0c-2,30.2-4.1,60.3-5.7,90.5
			c-0.3,5.2-4.4,13.2,5.7,14.7c36.1,5.2,72.3,9.6,107.6-4.5c6.1-2.4,12-5.7,11.8-14.5c-0.7-37,2.7-74.1-3.9-110.8
			c-11.2-63.3-40.6-88.1-96.4-82.8c-10.1,1-14.7,3.3-14.9,15.1C1787.9,939.4,1785.4,970.2,1783.8,1001z M1881.7,1260.2
			c0.1-29.6-5.5-61.7-15.1-93.1c-2.1-7-4.2-12.6-13.5-11.4c-22.9,2.8-45.6-0.5-68.3-2.9c-8.7-0.9-10.4,2.3-11,9.9
			c-4.3,65.8-9,131.6-13.6,197.4c-0.5,6.4,0.1,10.1,8.2,10.7C1831.8,1376.1,1884,1326.9,1881.7,1260.2z M1020.6,1534.8
			c-0.4,2-0.8,3.9-1.2,5.9c16,8.9,32.5,17.1,48,27c39.9,25.6,84,31.1,129.7,26.8c32.3-3.1,59.7-16.2,80-47.5
			C1189.4,1542.8,1105,1538.8,1020.6,1534.8z M1371.9,2643.1c-10.7,15.8-18.2,29.4-28.1,40.9c-17.3,20-20.4,41.1-14.3,66.5
			c8.8,36.9,14.5,74.6,22.7,117.8c17.8-40.6,33.2-76,49-111.2c2.4-5.4,0.2-9.6-1.1-14.2C1391.2,2710.9,1382.1,2678.9,1371.9,2643.1z
			 M2015.9,2109.9c-6-0.7-7.3,3-8.9,6.3c-12,23.6-23.8,47.2-35.9,70.7c-3.1,6.1-2.2,9.7,3.9,13.4c19.5,11.7,38.8,23.8,57.9,36.1
			c6.9,4.4,10.8,3.4,14.1-4c6.2-14.1,13-27.9,19.4-41.9c6.4-13.9,19.8-29.6,17-41.3c-3.3-13.8-25.6-16-39.1-24.1
			C2034.7,2119.4,2024.8,2114.6,2015.9,2109.9z M1068.2,2181.2c3.5-10.3,0.4-14.2-4.6-17.8c-16-11.4-31.9-23-47.5-34.9
			c-5.7-4.4-8.9-4.2-12.8,2.3c-12.3,20.5-25,40.8-38,60.8c-4.5,7-4,11.4,2.6,16.7c19,15.5,37.8,31.3,56.1,47.8
			c7.6,6.8,10.1,3.3,15.2-3C1057.1,2230.8,1065.1,2204.9,1068.2,2181.2z M1599.7,2618.8c-8.7,31.6-16.4,59.3-23.9,87
			c-0.7,2.7-0.8,6.3,0.3,8.8c15.1,31.3,30.4,62.4,47.5,97.2c11.7-42.7,22-81.1,32.9-119.4c1.8-6.2,0.8-10.4-3.4-14.9
			C1636,2659,1619.2,2640.2,1599.7,2618.8z M1652.3,2881.3c27.3-10.2,48.1-22.2,70-31.5c23.9-10.2,25-33.2,33.8-52
			c1.7-3.7-1-7.1-3.5-9.9c-18.5-20.4-37-40.8-57.7-63.5C1680.4,2777.4,1666.9,2827.4,1652.3,2881.3z M1164.4,2720.6
			c-19.7,23.3-37,43.7-54.1,64.3c-1.8,2.1-2.5,5.5-2.8,8.4c-5.8,44.4,1.9,57.7,43.7,74.9c3.8,1.6,7.4,5,12,3.1
			c8.7-3.6,28-43.6,25.6-53.4C1181.1,2787,1173.3,2756.1,1164.4,2720.6z M794.7,2371.9c4.5,0.6,5.3-2.2,6.5-4.1
			c12.1-19.2,23.9-38.6,36.3-57.6c4-6.1,2.4-9.7-2-14.3c-17.1-17.6-34.3-35.3-50.9-53.4c-6.8-7.5-10.4-5-15.3,1.8
			c-10.4,14.4-21.4,28.5-32.2,42.6c-7.5,9.8-7.1,19,1.6,27.9c16.8,17.1,33.3,34.5,50,51.7C790.9,2368.7,793.3,2370.5,794.7,2371.9z
			 M2023.8,1919.4c-2.7,1.7-5.9,3.6-8.9,5.7c-20.6,14.6-42.4,27.1-65.4,37.5c-8.8,4-26.4,34.4-26,43.9c0.2,4.7,3.7,5.9,6.8,7.6
			c17.4,9.1,34.9,18,52.2,27.3c5.8,3.1,9.9,3.3,13.2-3.5c14.7-29.7,30-59.1,44.5-88.8C2043.7,1941.9,2030.8,1919.3,2023.8,1919.4z
			 M1496,2655.3c-15.2,34.7-28.4,65.1-41.9,95.3c-1.9,4.3-2.3,8-1.1,12.4c9.8,33.8,19.5,67.7,30.5,106.1
			c14.5-52.4,27.7-100.3,40.9-148.2c1.1-3.9,0.4-7.1-1.4-10.6C1514.7,2693.4,1506.4,2676.4,1496,2655.3z M875.5,2338.6
			c-2.1,1.9-3.7,2.8-4.7,4.3c-12.8,20.2-25.3,40.6-38.2,60.8c-3.9,6,0.4,9,3.6,12.4c16.6,17.3,33.4,34.4,49.9,51.8
			c5.1,5.4,8.6,7.5,13.6-0.6c11.2-18.3,22.9-36.3,35-54c4.4-6.4,3.8-10.4-1.4-15.7c-16.8-17-33.2-34.6-49.8-51.8
			C881,2343.2,878.2,2341,875.5,2338.6z M2021,2286.4c0.5-3.6-2.8-5.4-5.9-7.3c-20.3-12.7-40.8-25.3-60.8-38.4
			c-6.9-4.5-9.5-1.5-12.4,4.2c-8.8,17.6-17.8,35.1-26.9,52.5c-2.8,5.5-4,9.6,2.2,14c20.1,14.2,39.9,28.8,59.8,43.3
			c3.4,2.5,7.8,6.7,10.7,0.8C1999.1,2332.9,2009.7,2310.1,2021,2286.4z M1258,2609.6c-12,14-20.7,26.8-32.1,36.7
			c-23.3,20.4-27.4,43.2-15.7,71.5c7.4,18,8.4,38.5,17.2,58.9c15.4-22.9,29-43.4,42.9-63.7c3.8-5.5,4.8-11.2,3.6-17.5
			C1268.8,2668,1263.7,2640.4,1258,2609.6z M968.4,2360.9c10.1-15.3,22.1-33.9,34.5-52.1c4.2-6.1,2.1-9.7-2.9-13.8
			c-19-15.7-37.9-31.5-56.4-47.7c-7.2-6.3-10.8-4.5-15.2,3.2c-7.3,12.8-15.1,25.4-23.6,37.4c-5,7.1-4,11.6,2.1,17.1
			C927.1,2323,947,2341.4,968.4,2360.9z M2062.2,2308.6c-2.4,3.9-4.8,7.2-6.6,10.8c-8.3,17.1-15.1,35.1-24.9,51.3
			c-8.6,14.3-4.2,22,8.1,29.3c16.1,9.5,32.4,33.7,45.9,28c14.6-6.1,16.7-33.4,22.7-52c10.6-32.8,10.4-32.9-18.8-51.2
			C2080.4,2319.5,2072,2314.5,2062.2,2308.6z M1054.3,2676.2c-31.5,23.9-60.7,46.1-91.8,69.7c22.9,17.9,44.6,34.9,66.4,51.6
			c2.1,1.6,5,5.3,7.7,2.2c9-10.4,23.5-17.9,23.1-33.9C1059,2737,1059.1,2708.1,1054.3,2676.2z M1762.5,2009.3
			c9.5,21.5,20.5,42.9,28.2,65.3c6.8,19.8,24.9,24,38.9,34c5.3,3.8,7.2-1.6,8.7-5.7c7.8-20.6,15.5-41.3,23.5-61.8
			c2.7-6.9,1.1-10.9-5.7-14.8C1827,2009.8,1798.2,1992.9,1762.5,2009.3z M969.5,2098.7c1-5-3.1-6.3-5.9-8.3
			c-8.8-6.7-17.6-13.3-26.5-19.8c-22.9-16.7-23.2-16.9-40.3,6.8c-10.3,14.2-30.3,27.6-28.3,42.8c2,15.3,24.4,23.9,37.6,35.7
			c18,16.1,18.3,15.7,31.5-5.6c8.7-14.1,17.6-28,26.4-42.1C965.9,2105,967.7,2101.8,969.5,2098.7z M1517.8,2917.6
			c25.1-0.9,47.2-8.1,69.6-13.5c17.1-4.1,20-17.8,14.9-29.9c-13.3-31.2-29.3-61.2-46.3-95.9
			C1542.5,2827.2,1530.4,2871.3,1517.8,2917.6z M1926.8,2169.5c1.9-2.4,4-4.4,5.4-6.9c4.4-8.1,8.7-16.3,12.6-24.6
			c7.9-17.2,27.9-36.9,21.5-50.4c-6.8-14.3-32.1-19.9-49.4-29.3c-0.5-0.3-1.2-0.5-1.7-0.8c-7.2-5.1-10.5-2.1-13.1,5.3
			c-5.5,15.7-11.7,31.1-17.5,46.6c-10.3,27.6-10.3,27.6,14.4,43.2C1907.8,2158.2,1916.8,2163.4,1926.8,2169.5z M1287.4,2769.3
			c-15.3,22.8-27.9,41.7-40.7,60.5c-3.7,5.4-4.9,10.5-3,17.2c4.7,16.5,8.4,33.4,12.6,50.1c1.4,5.6,3.5,10.5,10,11.9
			c12.7,2.6,25.3,5.4,37.9,8c8.6,1.8,10.5-1.4,8.8-10C1304.4,2862.5,1296.4,2817.9,1287.4,2769.3z M1937.2,2455.1
			c4.2-0.4,4.9-3.7,6.5-6.1c26.2-41.1,25.8-44.2-14.4-72.6c-12.9-9.1-27.3-28.8-38.3-24.2c-11.9,5-16.1,27.3-24.6,41.4
			c-5.2,8.7-1.9,13,5.2,17.7c19.5,12.8,38.8,26.1,58.1,39.2C1932.2,2452.2,1934.9,2453.7,1937.2,2455.1z M1042.7,2332.6
			c-1.6,1.7-3.4,3.3-4.7,5.2c-12.2,18.5-24.2,37.1-36.4,55.7c-2.9,4.4-2,7.9,1.5,11.5c14.6,15,28.6,30.7,43.9,45
			c10.6,9.9,17-4.3,25.5-6.9c5-1.6,9.7-4.2,6.4-12.2c-11-26.2-17.6-53.8-21.9-81.9C1055.9,2340.9,1049.9,2336.5,1042.7,2332.6z
			 M1775,2744.8c5.5-3.5,5.6-9.1,8.1-13.2c16-25.5,13.8-46.5-12.1-65.2c-17.6-12.6-32.6-28.7-48.3-42.8c-2.5,9.1-4.6,20.1-8.7,30.3
			c-5,12.5-2.5,21.8,6.7,31.3C1739.1,2704.3,1756.4,2724.2,1775,2744.8z M875.2,2029.7c1.3-4.6-1.5-5.7-3.3-6.9
			c-15.5-11.1-30.4-29-46.8-30.7c-12.6-1.2-18.7,24.3-28.2,37.6c-3.6,5-5.8,10.8-8.9,16.2c-2.4,4.2-3.1,7.5,1.4,11.1
			c13,10.3,24.7,27.4,38.8,29.6c11.3,1.7,18.4-20.3,27.8-31.4c5.2-6.1,9.8-12.6,14.7-19C872.4,2033.7,874.1,2031.2,875.2,2029.7z
			 M898,2213.8c1.1-6-3.1-7.3-5.7-9.5c-9.2-8.1-18.6-16-27.9-24c-28.5-24.3-27.9-23.8-50.9,5.8c-7.5,9.7-6.3,15.3,1.4,22.9
			c14.8,14.7,29,30,43.6,44.9c2.6,2.7,6.4,9.6,9.8,5C879.3,2244.2,888.7,2228.3,898,2213.8z M802.1,2454.5
			c-3.8,8.4-21,17.7-14.6,33.5c10.1,25,26.6,46.8,43,68.3c2.8,3.7,5.8,7.4,9.7,1.5c8.5-12.8,16.6-25.8,24.9-38.6
			c3.3-5.1-0.3-8.2-3.3-11C841.8,2490.2,821.7,2472.3,802.1,2454.5z M2069.5,1992.4c-11.9,23.5-21.9,43.9-32.6,63.9
			c-3.9,7.3-4,11.7,4.3,15.8c18.7,9.1,36.9,19.2,55.5,28.6c3.2,1.6,6.6,6.5,11.1,1.6c3.4-3.7,3.1-7.7,1.8-12
			C2099.8,2057.5,2088.1,2025.5,2069.5,1992.4z M2031.5,2519.2c1.8-0.9,3.9-1.3,4.9-2.6c9.4-12.8,22.5-24.9,24.7-40.1
			c1.5-9.8-15.2-13.7-23.1-21c-4-3.7-8.9-6.5-13.4-9.8c-21.6-15.5-21.6-15.5-33.6,9.5c-13.4,27.7-13.4,27.7,12.8,45.5
			C2013,2507,2022.2,2513,2031.5,2519.2z M1869.9,2276.5c5.7,0.3,6.7-3.6,8.3-6.7c5.6-10.9,11.2-21.9,16.8-32.8
			c12.7-25.2,12.7-25.2-11.7-40.6c-25.2-15.9-25.2-15.9-35.3,11.2c-2.6,6.9-5.8,13.6-7.8,20.7c-2.1,7.3-10.8,15.7-4.7,21.9
			C1845.5,2260.5,1858.6,2268.1,1869.9,2276.5z M1424.4,2828.6c-1.4-0.3-2.9-0.6-4.3-0.9c-13.2,30-26.3,60-39.8,89.9
			c-3.5,7.9,1.6,8.5,6.6,8.6c18.4,0.5,36.8,0.6,55.2,0.8c9.5,0.1,9-4.8,6.9-12C1440.5,2886.3,1432.6,2857.4,1424.4,2828.6z
			 M1079,2046.5c-8.7,1.2-19.4-6.2-28.1,7.4c-18.9,29.6-19.8,29,8.3,49.8c3.5,2.6,7.2,4.9,10.2,7.9c13.5,13.9,20.6,8.3,25.3-7.6
			c1.9-6.4,5.3-12.4,8.2-18.6C1120.2,2049.1,1120.3,2049.1,1079,2046.5z M1672.8,2631.6c4.5-15.8,7.8-28.3,11.8-40.5
			c3.1-9.7,1.4-16.9-5.7-24.8c-21.1-23.4-20.7-23.8-49.1-8.3c-4.8,2.6-9.5,5.5-15.3,8.8C1633.6,2588.1,1652.1,2608.6,1672.8,2631.6z
			 M1104.5,2720.3c8.6-10.1,13.7-18.1,20.7-23.9c23-19.1,27.5-41.7,15.2-68.3c-0.2-0.5-0.2-1.2-0.3-1.8c-1.4-8.1-3.9-9.7-12.1-4.9
			c-20.8,12.2-33.3,27-27.5,53.2C1103.6,2688.1,1103.1,2702.5,1104.5,2720.3z M2123,2178.5c-12.7,26.5-25.3,53.1-38.2,79.5
			c-2.4,4.9-3.6,8.9,2.4,12.3c12.1,7,23.9,14.5,37.7,22.9C2131.1,2253.6,2130.6,2216.6,2123,2178.5z M972.6,2438.5
			c-14.7,22.5-28.1,43.1-41.7,63.6c-3,4.6-4.1,8.3,0.3,13c4.2,4.4,7.7,4.6,12.8,1.7c21.8-12.6,43.7-24.9,66.5-37.9
			C997.7,2465.3,985.9,2452.8,972.6,2438.5z M1918,2503.1c-0.1-7.6-5.5-9.1-9.4-11.8c-18.3-12.5-36.6-25.1-55.3-37.1
			c-4.9-3.1-10.9-14-16.9-0.7c-4.1,9.1-14.7,17.8,1.9,26.8c18.9,10.3,36.3,23.2,54.6,34.7c4.7,2.9,9,11.5,15.1,6.1
			C1913.2,2516.6,1915.2,2508.5,1918,2503.1z M1815.9,2295.9c-5.2,19.6-11.1,39.3-15.6,59.3c-2.8,12.6,10.7,12.9,16.7,18.9
			c2.8,2.8,6.7,3.3,9-1.3c8.4-16.9,21.4-33.4,23.3-51c1.2-10.8-19.8-17.2-30.6-25.8C1818.3,2295.7,1817.4,2295.9,1815.9,2295.9z
			 M1432,2687c7.2-15.9,12.2-27,17.2-38.1c19.5-43.9,19.5-43.6-28.3-39.4c-8.5,0.8-10.5,3.1-8,11.2
			C1419.1,2641.1,1424.7,2661.7,1432,2687z M763.6,2097.2c-3.5,9.7-7,18.8-10.1,28c-4.2,12.6,3.7,32.1,16.3,35.6
			c10.7,3,11.6-9.7,17.1-14.9c3.9-3.7,6.6-8.8,10.1-13c3.3-4.1,3.6-7.4-1-10.7C785.2,2114.3,776.8,2103.5,763.6,2097.2z
			 M2003.6,2558.4c-1.2-1.9-1.8-3.7-3.1-4.6c-12.6-8.7-25.2-17.3-37.9-25.7c-2.8-1.9-4.9-1-7.4,2.1c-10.3,12.5-9.5,21.7,3.6,31.3
			c4.9,3.6,9.7,7.5,14.9,10.7c4.2,2.5,7.7,9.8,13.8,4.1C1993.3,2571,1998.1,2564.6,2003.6,2558.4z M976.3,1519
			c2.8-17.5-3.3-29-15-37.3c-11.4-8.1-24.2-8.1-37-3.3c-4.2,1.5-7.8,4.6-8.6,9c-1.1,6,4.7,6,8.3,7.6
			C940.6,1502.6,957.2,1510.2,976.3,1519z M882.3,1444.8c-0.2-14.9-13-31.3-24.1-28.9c-13.8,3-9.7,19.8-16.3,29.1
			c-2.2,3.1,24.3,23.1,29.3,21.1C881.3,1462.3,881.3,1452.4,882.3,1444.8z M1147.3,950c23.2,32.7,56.7,38.6,88,16.6
			C1205.7,963.1,1177.7,957.9,1147.3,950z M1186.4,2622.9c9.6-11.2,18.3-20.5,25.9-30.5c3-4,10.9-8.1,7.1-13.2
			c-3.6-4.8-11.2-8.3-17.4-9.2c-10.8-1.5-24.6,17.6-21.9,28.8C1181.8,2605.9,1183.8,2613,1186.4,2622.9z M801.8,1420.7
			c6.9-14.6,6.4-28.2,6.5-41.5c0-3.6,0.8-10.8-5.3-9.4c-12.7,3.1-24.5,10.3-30.9,21.4c-5.9,10.2,7.4,11.4,12.4,16.3
			C789,1412.2,794.9,1415.6,801.8,1420.7z M1809.9,2788.2c17-5.5,25-16.8,35.2-24.7c4.3-3.3,13.3-6.5,9.7-13.1
			c-3.9-7.1-11.6-12.4-18.2-17.7c-3.1-2.5-5.4,1-6.6,3.9C1823.7,2752.8,1817.4,2769,1809.9,2788.2z M1560.2,2588.9
			c-12.2,3-21.5,5.1-30.8,7.5c-5.3,1.3-9.4,3.7-6.1,10.2c6.3,12.6,12.7,25.1,21.1,41.6C1550.3,2626.1,1554.9,2608.8,1560.2,2588.9z
			 M1785,2447.8c9-6,12.7-15.6,14.5-24.1c2.1-10.3-10.5-16.2-16.1-15.8c-12.2,1-15.4,15.2-17.2,24.3
			C1764.5,2440.7,1778.3,2441.4,1785,2447.8z M1338.1,2611.1c-33.4-10.9-36.2-8.6-29.7,21.7c1,4.6,2.5,9,4.5,16.1
			C1322,2635.2,1329.9,2623.4,1338.1,2611.1z M1005.7,2037.1c-14.8-3.1-29.4-6.1-45.5-9.5c5,10,13.6,13,20.1,18.2
			C996.7,2058.8,997,2058.5,1005.7,2037.1z M747.3,2391.9c4.7,14.1,8.7,25.8,12.9,38.4C773.8,2413.1,773.8,2413.1,747.3,2391.9z"/>
		<path class="st0" d="M1563.4,2305.1c0.4,71.9-56.6,129.9-128.2,130.4c-71.2,0.5-129.5-57.1-130.4-128.7
			c-0.9-70.8,57.3-129.8,128.7-130.4C1505,2175.8,1563,2233.3,1563.4,2305.1z M1518.4,2307.1c0.5-46.9-36.6-84.6-83.8-84.9
			c-46.3-0.3-83.3,36.2-83.8,82.6c-0.6,46.5,35.5,84,81.6,85C1479.2,2390.9,1517.8,2353.6,1518.4,2307.1z"/>
	</g>
</g>
</svg>
