<?xml version="1.0" encoding="utf-8"?>
<!-- Generator: Adobe Illustrator 23.0.0, SVG Export Plug-In . SVG Version: 6.00 Build 0)  -->
<svg version="1.0" xmlns="http://www.w3.org/2000/svg" xmlns:xlink="http://www.w3.org/1999/xlink" x="0px" y="0px"
	 viewBox="0 0 3000 3000" style="enable-background:new 0 0 3000 3000;" xml:space="preserve">
<style type="text/css">
	.st0{stroke:#000000;stroke-width:10;stroke-miterlimit:10;}
</style>
<g id="Layer_1">
</g>
<g id="Layer_2">
	<g>
		<path class="st0" d="M990.8,1918.5c-82.2-74.3-171.1-103.6-276.2-79.7c-88.4,20.1-151.4,73.1-199.4,147.4
			c-19.7,30.6-38.4,61.8-59.9,91.3c-78.5,107.8-208.2,69.7-265.8,0.7c-42.9-51.4-59.3-114.2-70.1-177.8
			c-26.1-154-40.5-309.5-40.2-465.6c0.5-219.7,74.9-417.4,193.5-599.1C459.9,548.9,727,372,1052.1,276.4
			c125.7-36.9,253.9-47.6,384.6-47.8c191.5-0.2,382.1,15.2,573,26.1c121.2,6.9,242,18.9,362,38.9c150.3,25,265.2,108.5,359.5,221.5
			c168.1,201.3,245.2,434.1,233.8,697.1c-7,160.6-15.1,321-31.4,480.9c-17,166.9-48.2,330.4-116.3,485.5
			c-108.7,247.8-295.5,392.8-561.3,443.6c-233.6,44.6-469.3,50.4-705.6,50.9c-214.1,0.5-427.8-8.8-641.3-24.3
			c-51.2-3.7-102.1-10.7-152.6-20.4c-72.8-13.9-132.8-48.5-180.3-104.9c-50.5-60-90-125.5-101.1-205
			c-11.3-80.8,26.1-140.4,107.2-157.1c39.4-8.1,59.2-23.9,75.1-62c49.8-118.9,162.6-185.4,293-180.8
			C962.1,1918.8,973.8,1918.5,990.8,1918.5z M2850.3,1922c-33,15.5-62,29.8-91.6,42.9c-126.5,55.9-260.5,77.7-397.4,85.6
			c-21,1.2-31.5,6.7-25.7,29.4c1.4,5.4,1.7,11.1,1.9,16.7c5.4,146-80.4,248.9-203,267.5c-108.7,16.5-212.6-1.9-309.6-51.4
			c-73.7-37.6-115-102.3-129-183.3c-4.9-28,5.4-66.8-9.9-82.6c-15.9-16.4-54.7-9.3-82.9-15.4c-148.9-32.1-236-141.8-226.9-285.3
			c5.1-80.1,31.1-153.1,76.9-219.2c35-50.4,78.7-91.6,130.2-125.5c-2.9-3.8-4.2-6.5-6.3-8c-77.3-55.4-104.7-133.9-100.9-224.9
			c4.6-112.3,45.1-212.9,107.2-305.2c60.4-89.9,137.4-161,243.2-192.9c142.2-42.9,272-11,381.1,85.4c42.3,37.4,72.8,39.2,122.4,21.2
			c120-43.5,246.3-37.7,371.6-31.4c41.6,2.1,83,8.4,128,13.2c-23.6-57.3-53.3-107.7-87.8-155.2c-108-148.4-242.5-253.2-433.3-273.1
			c-121.7-12.7-243.2-25.8-365.3-32.8c-168.8-9.8-337.5-22.8-506.8-22.7c-104.8,0.1-209.2,5.2-311.5,30.7
			c-51.8,12.9-103.4,26.8-156.9,49.1c64.3,43.5,119,90.9,168.8,144.5c201.5,216.8,219.9,553.5,67.8,774.9
			c-64.6,94.1-117.5,194.8-159.2,301.5c-9.1,23.2-5.9,30.3,17.6,38.5c155.7,54.8,267.6,157.2,326.1,313
			c39.8,106.1,9.3,220.5-74.9,296.5c-80.1,72.3-194.4,88-295.6,40.7c-5.8-2.7-11.7-7-17.6-7.2c-73.7-2.5-142.2-28.3-212.3-47.1
			c-66-17.8-132.6-22.6-199.1-3.2c-53.9,15.7-74.3,43.9-68.1,99.5c9,80.5,50.8,144.9,105.1,202.5c35.2,37.3,78,60.2,127.6,71.2
			c60.3,13.5,121.6,19.5,183,24.1c134.2,10.2,268.6,15.3,403.1,18.9c271,7.4,541.9,8.4,811.1-30.2c74.8-10.7,148.8-26.3,220.8-50.2
			c140.8-46.8,251.9-131,332.7-256.2C2776.7,2175.1,2822.1,2054.2,2850.3,1922z M1095.9,2238.6c148.5,35.4,291-108.8,258.5-260.1
			c-18.9-87.8-66.3-161.4-133.4-218.9c-138.7-118.9-304.5-154.8-482.6-144.5c-117.6,6.8-220.1,47.6-297.3,140.8
			c-42.6,51.5-77.9,107.6-102,169.9c-8.1,20.9-16.5,23.3-36.1,15.8c-23.6-9.1-12.3-21.9-7-34.8c23.8-58.3,55.8-111.9,93.9-161.9
			c71.3-93.5,164.9-148.8,281-168.5c99-16.8,196.9-12.4,294.1,9.6c21.2,4.8,27.8-1.1,34.2-18.9c42.4-116.5,104.4-222.6,170.1-327.2
			c112.9-179.8,117.4-368.2,32.3-559c-57.4-128.7-158.4-219.9-273.4-297c-12.2-8.2-23.3-6.9-36.5-1.3
			c-244.3,103-441.5,263-585.1,486.5c-106.3,165.5-175.7,345.1-180.3,543.5c-3.8,162.6,12.7,324.7,40.6,485.1
			c8.8,50.5,21,100.6,52.6,143.2c55.7,75.2,146.6,76.5,202.5,2.5c11.8-15.6,22.3-32.3,32.6-48.9c18.6-30.3,38.1-60.1,61.5-86.8
			c85.6-97.6,194.4-138.6,321.5-118.3c132,21.1,220.8,110,292.9,213.7C1188.4,2086.3,1172.3,2170.2,1095.9,2238.6z M2918.3,1237.9
			c0-14.7-0.2-32.4,0-50.2c1.8-119.4-10.1-236.7-52.6-349.6c-6.5-17.4-15-26.4-34.9-30c-118.6-21.5-237.8-24.3-357.4-14.2
			c-161.7,13.7-291.8,84.8-388,216.5c-87.5,119.8-140.5,254-166.5,399.3c-21.9,122-24.8,243.6,17,362.4
			c39.6,112.7,115.6,186.9,233.2,216.9c84.8,21.7,170,17.6,255.9,9.6c147.9-13.6,287.6-52.9,416.9-127.2
			c14.9-8.6,22.9-18.2,25.8-36.2C2899.3,1638.5,2906.7,1439.6,2918.3,1237.9z M2216,825.7c-94.7-102.7-225.7-146.3-353.6-117
			c-77.3,17.7-140.3,60.5-192.1,119.1c-83.7,94.9-135.7,204.6-147.5,331.8c-10.5,113.7,49.1,202.2,151.7,226.6
			c60.3,14.3,120.6,8.9,180.7-0.4c14.3-2.2,22.4-9.5,26-26.5c22.4-106.6,61.6-207.2,116.2-301.5
			C2052.2,963.4,2122.7,883.8,2216,825.7z M1696.3,1994.8c87.5-0.9,166.7-26.8,238.3-77.3c14.4-10.1,17-17.1,6.1-32.5
			c-33.9-47.8-54.3-101.7-67.2-158.7c-20.4-90.4-20.7-181.6-8.5-272.9c2.9-21.3-2.2-23.2-20.6-19.6c-64.1,12.3-128.1,12.6-191.3-5.5
			c-13.1-3.7-23.3-0.6-34.2,6.2c-102.7,64.1-168.6,154-191.4,273.7c-26,136.2,38,237.4,171.8,274.2
			C1631.1,1991.1,1663.4,1994.5,1696.3,1994.8z M2290.6,2105.3c-5.3-59.8,9-50.6-52.3-56.4c-89.4-8.4-171.5-35.6-239.4-97.1
			c-10.8-9.8-18.4-11.6-30.7-2.1c-62.6,48.5-133.9,76.7-212,87.8c-10.5,1.5-15.9,3.6-17.4,16.1c-11,94.3,34,184.2,119.7,224.3
			c76.1,35.6,158,52.1,242.1,44.2C2222.5,2310.6,2294.2,2226.4,2290.6,2105.3z M940.1,1964.4c-111.3,3.3-193.7,52.4-241.9,154.6
			c-13.2,27.9-12,29,17.4,30.7c35.6,2.1,70,9.9,104.1,20c57.9,17.2,115.2,36.5,176.3,39.7c63,3.3,104.2-21.7,117.2-72
			c17.1-66-25.2-142-90-160.7C996.2,1969.1,968.8,1963.7,940.1,1964.4z"/>
		<path class="st0" d="M831.9,860.8c3.5,119.6-111.8,232.3-236.2,170.3c-57.4-28.6-85.1-85.8-61.6-144.7
			c32.2-80.7,86.6-142.1,177.5-157.1c67.1-11.1,96.6,14.9,110.3,69.3C827.7,821.3,832,844.1,831.9,860.8z M785.8,870.9
			c0.4-21.6-5.4-42.2-9.8-63.2c-5.7-26.9-22-36.6-48.3-33.8c-73.4,7.9-114.4,57.5-145.4,116.7c-21.7,41.5-6,78.4,36.4,99.3
			C695.7,1027.9,785.6,963.8,785.8,870.9z"/>
		<path class="st0" d="M2683.8,1484.6c-1.1,87.8-30.2,171.5-97.2,239.5c-110.8,112.5-276.4,111.9-387.4-0.6
			c-129.8-131.6-127.5-364.8,3.9-494.5c119.9-118.3,311.5-106.3,417.3,43.6C2662.1,1331.6,2683.7,1402.2,2683.8,1484.6z
			 M2636.8,1511.9c0.3-106.4-21.2-171.6-66.8-228.3c-88.2-109.5-238.6-117.5-336.9-18.3c-113.5,114.6-111.3,318.5,4.6,430.3
			c89.3,86.2,216.7,88,307.4,3.3C2608.9,1639.5,2636.3,1564.2,2636.8,1511.9z"/>
		<path class="st0" d="M2393.7,1662.8c-91.5-0.9-160.8-69.8-159.4-158.3c1.4-88.6,73.6-157.9,163.2-156.7
			c85.4,1.2,155.5,73,155.1,159C2552.1,1595,2482.2,1663.6,2393.7,1662.8z M2393.1,1617.1c62.8,0.1,112.4-48.6,112.7-110.5
			c0.3-61.4-50.3-112.2-111.9-112.3c-62.3-0.1-111.7,49.1-112,111.5C2281.7,1569.1,2329.6,1617,2393.1,1617.1z"/>
	</g>
</g>
</svg>
