<?xml version="1.0" encoding="utf-8"?>
<!-- Generator: Adobe Illustrator 23.0.0, SVG Export Plug-In . SVG Version: 6.00 Build 0)  -->
<svg version="1.0" xmlns="http://www.w3.org/2000/svg" xmlns:xlink="http://www.w3.org/1999/xlink" x="0px" y="0px"
	 viewBox="0 0 3000 3000" style="enable-background:new 0 0 3000 3000;" xml:space="preserve">
<style type="text/css">
	.st0{stroke:#000000;stroke-width:10;stroke-miterlimit:10;}
</style>
<g id="Layer_1">
</g>
<g id="Layer_2">
	<g>
		<path class="st0" d="M1774.2,734.2c51.6-54.4,114.6-88.8,187.3-104.8c142.3-31.2,269.4,7.1,387,86.7c11.6,7.9,23.4,23.1,34.2,22.4
			c11.8-0.8,14.7-21.3,22.1-32.8c56.2-87.9,139.8-118.3,239.6-116.3c149.7,3,276.9,106.4,304,250.4c11.1,59.2,9.1,117.6-39.3,163.4
			c-7.1,6.7-4.7,12.6-3,20c16.4,72.5,13.7,144.2-9.9,214.9c-2.8,8.3-1.4,16.1-0.5,24.4c2.9,25.8,2.3,51.8-9.2,75.3
			c-8.7,17.8-6.7,33.5-1.9,51.6c40.7,154.1,30.9,304.7-28.6,453.2c-24,59.9-39.5,122.3-44.7,187.9c-5.4,67.1-26.5,131-71.1,184.4
			c-3.2,3.8-5.8,8.8-9.9,11c-39.1,20.9-60,58.2-86.6,91.1c-71.3,87.9-205.3,94.7-289.2,16.3c-15.1-14.1-21.4-14.1-35.4,1.5
			c-69,76.8-160,114.8-257.6,138.8c-107.2,26.4-216.8,34.4-326.6,38.9c-164.9,6.8-329.9,9.2-495,5.7
			c-102.5-2.2-204.4-11.7-303.7-39.7c-78.9-22.2-151.9-56.1-212.3-112.7c-13.6-12.7-23.3-11.9-38.5-5.5
			c-95,40-186.4,37.4-271.6-26.2c-23.4-17.5-39.2-42.4-59.5-62.6c-21.2-21.1-54.9-8.8-81.1-21.9c-51.9-25.9-80.6-76.9-75.4-144
			c1.5-19.1-1.3-29.9-20.3-40.8c-69.8-40.2-80.5-138-21.3-193c16.5-15.4,17.4-25.3,7.6-44.3c-48.3-94.3-52.1-193-23.2-293.4
			c5-17.3,1.1-24-12.8-33.1c-68.5-44.9-83.2-135.8-31.8-199.1c12.3-15.2,12-25.7,5.9-43.4c-22.5-65.3-18.1-130,15-191.3
			c7.6-14,7.6-23.8-0.8-37.9c-40.8-68.6-27.6-163.9,30.1-227.5C196,747,260,718.5,331.2,710.3c115.5-13.2,228.9,1.3,338.6,40.4
			c35.3,12.6,66.8,32.7,94.6,57.7c10.7,9.7,16.5,10.8,27.8-0.2c91.4-89.1,203.9-124,329-126.2c88.3-1.6,173.8,15.4,258.5,37.8
			c10.9,2.9,17.6,3.7,25-6.7c94.5-131.4,288.1-114.6,363.5,14.4C1769.4,729.6,1771.5,731.2,1774.2,734.2z M406.2,748.6
			c-17.3,0-34.9-1.6-52,0.3c-67.4,7.3-129,28.4-176.4,80c-73.6,80.2-54.6,185.7,42,233.5c71.1,35.2,146.1,60.8,220.9,86.7
			c26.2,9.1,49.2,22.7,70.6,40c39.2,31.6,64.5,73.6,82.2,119.1c37.2,95.3,106.6,151.9,202.3,181.3c62,19,127.2,39.1,189.5,28.8
			c125.2-20.7,250.9-27.6,376.8-36.3c74.5-5.1,134.1-38.6,170.1-107c8.8-16.8,16.4-34.3,26.3-50.5c17.7-29.2,48.3-28,63.9,2.2
			c6,11.7,10.4,24.2,15.4,36.4c29,71.3,84.1,108.3,160.9,109.4c80.2,1.2,159.8,6.9,238.6,24.5c56.3,12.6,113.5,23,171.8,15.1
			c54.3-7.4,97.5-28.4,112.8-87.5c26.3-101.1,79.7-187.8,146.7-266.6c73.8-86.7,160.3-152.8,278.4-164.1c27.1-2.6,54.4-1.6,81.7-2.7
			c42.5-1.8,67.1-21.6,78.1-62.7c9-33.7,6-67.2-3-100.3c-32-118.2-147.1-200.8-274.5-198c-98.5,2.2-171.2,43.6-209.7,137
			c-15.1,36.6-29.1,73.6-43.2,110.5c-30.7,79.9-74.8,150.2-141.3,205.8c-127.5,106.5-365.4,107.1-430.5-124.7
			c-14.3-50.8-28-101.8-44.2-152c-12.5-38.6-31.1-74.5-63.7-100.7c-53-42.7-112.8-54.9-176.6-31c-66.8,25-105,76.4-115.3,146.1
			c-6.5,44-7.3,88.9-10.4,133.3c-8.2,114.9-63.7,184.7-167.4,208.1c-87.2,19.7-174.3,15.7-259.7-9.1
			c-62.5-18.1-105.4-59.8-127.3-121.9c-9.3-26.5-18.4-53-27.2-79.7c-23.7-71.6-72-120.8-138.6-153.8
			C589.5,756.2,497.2,754.8,406.2,748.6z M1219.7,2475.3c-3.2-10.9-5.6-18.6-7.9-26.5c-14.4-49.4-22.5-99.7-20.7-151.4
			c5-137.1,79.8-223.7,214.8-246.1c55.5-9.2,111.8-11.3,167.9-7.9c166.9,10,276.4,92.7,324.1,244.2c15,47.5,23.4,96.2,22.8,146.2
			c-0.2,17.7,6.9,23.3,23.9,19.8c38.7-8,77.5-15.9,116.5-22.7c15.1-2.6,20.1-10.5,21.9-24.7c9.4-75.1,10.2-150.1-5-224.3
			c-30.1-146.1-115.2-263.2-298.3-279.3c-84.9-7.4-169.8-8.5-254.8-9.5c-110.6-1.3-221.4-6-331.4,10.5
			c-135.8,20.4-224.8,96.2-266.1,227.1c-25.6,81-24.6,163.9-18,247.7c3.4,42.6,22,59.4,62.8,67.8
			C1053.4,2463,1134.8,2471.9,1219.7,2475.3z M1700.3,1853.7c35.7,3.6,69.3,6.2,102.7,10.4c141.6,17.5,238.5,93.3,291.1,225.7
			c38.8,97.7,42.2,199.4,32.6,302.4c-1,10.7-5.3,20.6,13.1,13.4c102.7-40.1,180.2-105.7,217.7-212.3c32-91,32.4-183.8,7.9-275.6
			c-61.2-228.9-201.3-388.5-469.8-400.7c-22.7-1-34.9,3.9-45.1,25.5c-45.3,96.2-92.6,191.5-139.1,287.2
			C1707.7,1836.9,1704.6,1844.3,1700.3,1853.7z M1323.6,1525.7c-143.9,7.6-283.1,14.1-417.1,58.4
			c-140.2,46.3-230.9,141.1-268.2,283.5c-38.2,145.6-23.8,285,63.4,411.7c42.1,61.2,99.6,103.9,170,131.5
			c-2.7-34.9-5.9-67.6-7.7-100.4c-1.9-33.9,0.6-67.6,4.7-101.3c18.9-156.2,102.9-307.8,305.7-343.9c14.7-2.6,21.1-9.1,25.9-21.7
			c15.8-41.6,32.2-82.9,48.3-124.3C1273,1656.4,1297.3,1593.5,1323.6,1525.7z M1674.2,2474.4c65.2-3.9,128.5-7.9,191.8-11.4
			c14.5-0.8,14.3-9.9,14.2-20.4c-0.4-54.1-8.6-106.9-27-157.8c-36.3-100.4-103.8-168.4-209.7-190.5c-85.7-17.9-172.7-14.5-258.3,3.3
			c-79,16.5-126.2,67.7-144.7,145.4c-17.4,73.1-5.7,144.1,17.4,214.2c5.2,15.6,12.3,22,29.6,21.7c106.5-2,213-3.3,319.6-3.6
			c18-0.1,25.2-8.1,29-23.2c15.2-59.8,12-119.5-2.2-178.7c-6.4-26.5-26-41.4-52.2-47.3c-30.6-7-60.8-2.7-90.5,5
			c-22.7,5.9-41.3,15.1-38.6,45.3c1.2,13.5-12.8,24.6-24.6,27.1c-11.1,2.4-13.2-12.3-15.9-21.4c-9.8-33.1,11.3-70.4,50.9-85.3
			c39.1-14.7,79.9-19.7,121.6-12.3c51.6,9.1,81.9,40.7,92.7,90.6C1691.5,2340.5,1691,2406.1,1674.2,2474.4z M1114,1133.3
			c22.3-1.3,44.7-1.3,66.7-4c98.8-12.3,161.6-57.3,171.1-167.9c5.4-63.1,2.6-127.4,22.4-188.9c4-12.4-6.4-12.7-14.3-14.8
			c-101.2-27.1-203.4-44.2-308.5-29c-86.2,12.4-163.6,44.7-227.3,105.6c-6.6,6.3-21.6,12-11.6,25.5c33.6,45.7,45.1,100.4,63.6,152.3
			c19.5,54.6,56,89.6,112.7,104.8C1030,1127.8,1071.7,1130.9,1114,1133.3z M2049.9,659.1c-11.7,1.2-30.6,2.3-49.4,5.1
			c-73.8,11.1-139.2,39.7-191.6,94.4c-7.2,7.5-16.9,15-12,27.7c25.5,65.4,34.4,135.9,61.4,200.8c24.2,58.1,64.9,99.7,127.2,115.1
			c110.1,27.2,196.8-14.4,268.9-95.4c54.6-61.3,81-137,108.6-212.2c3.7-10,0.9-15.1-6.4-20.9
			C2268.6,704.8,2170.7,661.8,2049.9,659.1z M2521.4,1162.5c-30.8,29.9-52.5,62-75.5,92.9c-11.9,16-10.6,24.5,5.2,37.6
			c109.1,90.9,217.1,183.1,325.7,274.5c11.7,9.9,13.7,16.3,3.1,29.5c-11.3,14-17.9,13.8-30.8,2.6c-58.1-50.2-117-99.4-175.6-149
			c-49.8-42.1-99.5-84.4-149.5-126.3c-5.1-4.2-11-15.5-18.6-1.3c-23.1,43.5-38.2,89.7-50.6,138.5c112.3-18.8,158.5,20.2,172.1,142
			c13-0.9,26.1-2.6,39.1-2.6c54.4,0,103.4,37.8,116.4,90.2c3.4,13.5-0.4,31.6,7.3,40.5c9.4,10.9,27.6,0.4,42.2,1.5
			c41.8,3.1,72.2,24.8,97.3,57.2c43.3-96,51.2-282.8,17.9-381.6c-4-11.7-8.2-10.4-17.7-7.5c-45.3,13.8-82.5-1.4-107.1-42.3
			c-14.4-24-19.3-50.5-20.5-78.2C2594.9,1314.3,2526.2,1248.4,2521.4,1162.5z M526.6,1270.5c-2.5,4.4-3.8,5.6-3.9,7
			c-12.9,88.8-79.4,133.3-165.7,108.6c-19.7-5.7-16,6.1-17.4,15.6c-10.6,72.3-60.2,118.5-133.4,121.8c-13.8,0.6-20.6,4-24.6,17.5
			c-25.1,85.3-24.9,169.1,11.3,251.6c11.6,26.5,20.7,55.4,60,44.2c2.2-0.6,4.9,0.4,7.3,1.1c17.3,5.1,18.3-2.1,16.3-17.4
			c-11-83.3,62.7-152.3,145.5-135.3c20.5,4.2,27.4,3,29.7-20.1c5-48.6,33.2-82.6,79.1-98.5c45.9-15.9,89.1-8.6,126.3,24.7
			c22.3,19.9,33.8,45.7,40.4,78.4c47.9-53.9,105.4-89,168.1-117.2c-12.9-5.3-24.9-7.8-36.7-10.7c-83.2-20.5-160.5-52.3-216.9-120.3
			c-12.4-14.9-18.7-14.3-32.6-3c-109.4,89.1-219.7,177.2-329.1,266.3c-12.5,10.2-18.1,9.3-29.1-2.4c-16.1-17.2-5-24.6,7.2-34.3
			c111.3-89.4,222.5-179,333.6-268.7c5.7-4.6,16.7-7,10.6-18.6C557.3,1331.6,547,1300,526.6,1270.5z M2778.1,1970.3
			c-103.7,27.1-165-13.3-178.5-114.8c-1.8-13.9-8.2-10.7-16.5-9.6c-82.1,10.2-144.9-45.1-142.8-127.5c0.5-17.9-4.3-19.2-20.1-17.7
			c-75.6,7.3-129.6-34.7-141.1-107c-3.1-19.5,3.6-38.1,4.3-59.5c-34,15.6-68.3,18.1-102.8,23.3c2,3.3,2.4,5,3.6,5.8
			c109.6,80.6,176.4,190.2,214.8,318.7c4.4,14.8,13.4,23.9,24.2,33.1c76,64.9,151.5,130.2,228.1,194.4c14.9,12.5,7.6,19-0.8,29.4
			c-9.1,11.2-15,13.3-27,2.4c-34.2-31.1-69.9-60.5-105.1-90.6c-32.1-27.4-64.2-54.6-99.7-84.8c2.5,42.8,6.2,79.9,2.6,117
			c-1,10.4,4.6,17.1,10.4,24.1c48,58,109.4,94.9,182.2,112.5c39.9,9.6,73.4-1,98.2-35.2C2758,2121.1,2771.1,2047.9,2778.1,1970.3z
			 M577.3,1930c-4.1,3.2-8.6,6.5-12.9,10.1c-80.6,67-161.7,133.5-241.4,201.5c-14.6,12.4-19.5,5.9-28.6-4.2
			c-9.7-10.8-13.2-16.8,1.2-28.5c86.5-70.3,171-142.9,257.9-212.6c31.6-25.3,55.4-52.8,60-94.9c-25.7,3.9-51.8,7.3-77.5-1
			c-10.1-3.3-12.1,1.7-13.7,10.8c-14.5,85.7-60.1,122.7-144.4,116.4c-12.4-0.9-15.3,0.3-14,13.4c7.7,76.7-32.8,129.6-108.5,141.4
			c-12.9,2-17,7.2-16.6,18.9c0.4,11.6-0.6,23.2,0.4,34.7c3.2,38,27.5,70.3,61.5,78.9c51.2,13.1,100.1,7.5,144.5-22.9
			c56.6-38.8,95-93,127.1-152.3c2.6-4.9,4.6-10.8,4.7-16.2C577.5,1993.1,577.3,1962.6,577.3,1930z M584.8,2101.6
			c-48.5,73.4-103.3,131.8-186.3,156c60.8,85.5,165.7,109.3,266.9,67.1c13.5-5.6,10.2-11.5,3.7-19.8c-22.3-28.9-38.7-61.2-52.8-94.7
			C602.2,2176.8,593.8,2141.5,584.8,2101.6z M298.3,1387.5c0.1-54.3-41.2-96.5-94.4-96.4c-53.9,0.1-96.2,41.7-96.7,95
			c-0.5,52.9,42.2,95.9,95.4,96.1C257.2,1482.3,298.2,1441.7,298.3,1387.5z M2413.5,2149.2c-11.4,45.2-24.5,85-46.6,121.1
			c-4.9,7.9-2.5,13.1,2.5,19.6c64,83.6,207.9,71,259.6-24.9C2546.3,2249.5,2474.3,2214,2413.5,2149.2z M341.5,1158.6
			c-60.4-25.3-119.8-44.9-173.5-77.3c-10.2-6.2-13.1,1.2-16.4,7.9c-25,50.6-28.8,102.6-10.6,156.1c3.1,9.1,6.2,15.7,19.3,11.1
			c34.2-11.9,68.2-9.4,101.2,5.9c6.4,3,12.8,6.2,14-4.8C280.4,1214.5,303.7,1183.1,341.5,1158.6z M1621.8,1853.1
			c23.7,7.3,36.4-6.1,47.6-30.8c30.2-66.7,63.6-132,95.7-197.9c15.1-31.1,30.3-62.2,44.9-93.5c2.4-5.2,11.5-12.6-1.4-17.2
			c-21.5-7.7-43.7,1-55.2,21.8c-52,93.6-103.9,187.2-155.9,280.7C1577.5,1852.1,1577.4,1852.1,1621.8,1853.1z M573.2,1600.7
			c-47,0-81.2,33.9-81.5,80.5c-0.3,47.6,35,83.6,81.7,83.6c45.6-0.1,81.5-35.7,81.9-81.3C655.8,1635.9,620.8,1600.7,573.2,1600.7z
			 M2646.5,1084.9c-46.2,0.2-81.6,35.1-82,80.8c-0.4,46.5,36.4,83.5,82.7,83.4c45.3-0.2,81.6-36.3,81.8-81.7
			C2729.3,1119.9,2694.1,1084.7,2646.5,1084.9z M2721.9,1938.3c47.7,0.4,83.5-34.6,83.5-81.7c0-46.2-34.9-81.6-80.8-82
			c-47.9-0.4-83.2,34.3-83.3,81.8C2641.3,1903,2675.7,1938,2721.9,1938.3z M243.2,2042.5c45.4-0.5,81.2-36.8,81.2-82.4
			c0-47-36.3-82.8-83.3-82.3c-45.3,0.5-81.4,36.9-81.5,82.1C159.5,2006.1,196.9,2043,243.2,2042.5z M400.6,1724.3
			c-47.8-0.7-83.5,34.1-83.7,81.3c-0.1,45.3,35.7,82.1,80.7,83c45.9,0.8,84-36.4,84.1-82.4C481.9,1761.1,446.1,1724.9,400.6,1724.3z
			 M2402.8,1660.7c45.6-0.1,81.8-35.8,82.2-81c0.4-46.1-36.6-82.8-83.2-82.6c-46.2,0.2-81.3,35.2-81.7,81.2
			C2319.7,1625.5,2355.2,1660.8,2402.8,1660.7z M400,1188.4c-46.6-0.5-82.1,33.4-83.1,79.5c-1,46.4,35.5,84.4,81.4,84.9
			c44.9,0.4,82.3-35.7,83.5-80.6C482.9,1225.3,447.4,1188.9,400,1188.4z M2645.5,1723.1c-0.4-45-37.2-81.8-82-81.9
			c-45.8-0.2-83.5,37.7-83.1,83.5c0.4,45.7,38.7,82.6,84.8,81.5C2610.8,1805.1,2645.9,1768.8,2645.5,1723.1z M2866.1,1190
			c11.8-50.8,11-98.7,1.6-147c-2.4-12.5-8.1-13.2-18.7-12.5c-28.8,2-57.6,2.3-86.4,3.9c-24,1.3-47.9,3.2-73.6,14.1
			c46.3,21.9,74.2,54.1,80.6,102.5c0.7,5.2,0.8,12.8,9.7,10.7C2813,1153.8,2840.4,1166.6,2866.1,1190z M2856.2,1283.7
			c-1.9-24.9-6.8-48.9-25.1-67.9c-19.1-19.9-43.7-20-63.1-0.3c-32.7,33.2-32.2,103.1,1,136.1c18.6,18.5,42.7,18.7,61.3,0
			C2849.1,1333,2854.1,1309.1,2856.2,1283.7z M1241.2,1852.9c47.6,4,47.7,4.1,61.4-36.7c30.7-91.2,61.5-182.4,91.9-273.7
			c2-6.1,9.9-15.5,0.4-18.8c-9-3.1-21.7-5.1-28.5,7.1c-2.4,4.3-3.8,9.1-5.6,13.7c-19.7,50.6-39.4,101.2-59,151.8
			C1281.6,1748.3,1261.5,1800.3,1241.2,1852.9z M1589.4,1352c-22.8,49.5-46.1,91.3-85.5,121.2c54.3,0,106,0,165.2,0
			C1626.8,1439.4,1605.3,1401.1,1589.4,1352z M1446.9,1617.7c-5.1-0.4-44.3,32.4-45.1,37.4c-0.8,4.4,30.4,33,36.7,33.7
			c4.5,0.5,41.6-37,39.7-41.2C1471.7,1633.6,1457.7,1626.9,1446.9,1617.7z M1441.1,1825.2c10.7-13.8,20.8-26.6,30.5-39.6
			c3.7-4.9,9.3-10.7-0.2-15.8c-10.1-5.3-15.8-22.2-29.4-16.6c-24.7,10.2-29.5,36.3-12.6,57.7
			C1432.8,1815.5,1436.5,1819.7,1441.1,1825.2z M1503.2,1742c9.2-11.6,16.9-22,25.2-31.9c7.9-9.4,10.5-16.4-1.3-26.1
			c-11-9.1-17.7-8.9-25.9,2.2c-4.9,6.6-11.5,11.9-16.4,18.5c-3.4,4.6-13,8.3-7.3,15.3C1484.2,1728,1493.4,1733.8,1503.2,1742z
			 M1545.6,1571.8c-6.7-7.7-16-12.5-26.5-14.3c-5.6-1-39.8,29.6-37.6,32.2c8,9.2,15.9,19.1,28.2,22.7
			C1512.9,1613.3,1545.8,1576.2,1545.6,1571.8z M1607.4,1604.7c-20-13.8-20-13.8-33.7,1.2c-7.7,8.5-14.5,17.8-22.9,25.5
			c-9.8,8.9-5.5,13.9,2.2,21.2c9.2,8.6,14.4,6.9,21-2.6C1584.5,1634.5,1596.1,1619.7,1607.4,1604.7z M1475.5,1850.7
			c19,0,32.1-0.2,45.2,0.1c13.2,0.3,17.7-10.7,19.1-19.1c2.3-14-13.3-16.3-21.2-23.7c-9.4-8.8-12.7,2-16.6,6.8
			C1493.9,1824.7,1486.6,1835.5,1475.5,1850.7z M1560.5,1786.8c5-0.1,30.2-39,29.3-44.6c-1.6-9.2-9.7-12.7-16.9-16.3
			c-3-1.5-34.8,35.7-33.5,40.2C1542.5,1777,1553.6,1780.5,1560.5,1786.8z M1650.4,1626.1c-22.8,15.1-35,39.1-51,59.7
			c-3.8,5,3.2,8.3,6.6,11.3c3.9,3.5,7.9,2.7,10.2-1.6C1628.5,1673.1,1643.7,1651.9,1650.4,1626.1z M1674.1,1515.7
			c-28.2-0.2-34.9,20.8-48,32.5c-3.5,3.1-13.4,7.4-3.4,14.7c7.2,5.2,13,5,18.6-3C1650.7,1546.4,1660.8,1533.6,1674.1,1515.7z
			 M1387.6,1701.7c-15,29.5-16.7,42.3-5.5,45.9c13.8,4.4,18-10.3,22.6-17.6C1417.3,1710.4,1391.8,1713.3,1387.6,1701.7z
			 M1475.5,1533.4c-11-1-19.2-21.4-30.8-5.6c-5.4,7.3-14.3,22.9-3.4,28.2C1457.6,1563.9,1463.6,1542.9,1475.5,1533.4z
			 M1402.9,1848.5c-21.2-35.1-21.4-35.1-43.6,0C1373.5,1848.5,1386.9,1848.5,1402.9,1848.5z M1594.9,1518.2
			c-14.2-0.7-27.5-5.7-35.9,5.5c-4,5.4,5.1,8.8,9.8,10.8C1584.2,1541.1,1586.9,1527.7,1594.9,1518.2z"/>
		<path class="st0" d="M1617.2,995.7c-0.8-29.5,5-58.5-4.5-86.9c-6.4-19-16-36-37.4-38.6c-22.6-2.8-36.6,12.7-46.8,30.4
			c-11.8,20.5-14.1,43.8-15.2,67c-9.6,213.6-165.7,393.4-377.1,421.9c-161.9,21.8-299.4-32.9-403.2-162.3
			c-47.2-58.8-78.1-128.2-120.6-190.2c-70.4-102.6-177-142.1-286.1-104.3c-10.1,3.5-20.4,7.4-29.2,13.2c-11.8,7.7-17.6,4.6-25.7-6.1
			c-12.3-16.3-8.3-23.6,8.7-32.4c123.8-63.7,272.9-24.1,359.1,95.9c33.8,47,60.9,98.1,90.9,147.5c83.4,137.8,206.6,205.6,367,201.8
			c184.5-4.3,356.5-170,371.8-353.6c2.9-35.2,3.2-71,16.7-104.8c21.7-54.6,76.1-80.9,120.5-57.2c31.8,17,45.9,46.2,51.2,80.3
			c4.3,28,3,56.1,0.3,84c-14,139.3,95.7,269.6,249,287.7c139.5,16.4,252.7-38.2,351.9-130.9c63-58.9,105.1-133.2,152.1-204
			c27-40.7,55.4-80.4,90.8-114.2c62.9-60,135.4-96.8,225.4-87.2c10.6,1.1,22,2.3,31.1,7.2c7.6,4.1,27.6-1.7,20.3,18.1
			c-5.5,14.9-8.9,28.4-34.2,21.2c-76.3-21.6-141,8-198.4,56.4c-38.1,32.1-67.4,72.2-95.2,113.5c-42.8,63.6-80.4,130.9-133,187.6
			c-86.9,93.6-189.4,157.7-318.8,174.6c-168.9,22.1-330.7-77.1-373.3-230.9C1615.4,1065.8,1614.8,1030.5,1617.2,995.7z"/>
		<path class="st0" d="M1146.3,910.2c0.5,46-34.8,83.2-79.3,83.6c-41.8,0.4-76.7-32.9-77.3-73.8c-0.7-43.2,43.2-80.7,95-81.3
			C1120.8,838.3,1145.9,867.4,1146.3,910.2z M1105.3,911c-0.5-19.8-8.9-30.1-24.1-29.8c-27.1,0.6-49.2,18-48.8,38.6
			c0.3,19.4,14.9,32.4,35.7,31.8C1089,950.9,1105.8,932.6,1105.3,911z"/>
		<path class="st0" d="M2043.2,982.4c-53.9-0.3-96.8-43.3-93.5-93.6c3.9-58.5,61.3-90.2,123.6-68.3c1.6,0.5,3.1,1,4.7,1.7
			c51.3,20.7,72.7,49.2,65.6,87.9C2136.4,949.7,2090.6,982.6,2043.2,982.4z M2048.7,941.5c12.5-1.1,26.9-6.3,39.1-17.1
			c22.6-20.1,20.8-40.5-5.4-55.3c-17.6-9.9-36.6-14.9-57-12.8c-23.2,2.4-36.5,19.9-33.2,43C1995.6,924,2018.3,942.1,2048.7,941.5z"
			/>
	</g>
</g>
</svg>
