<?xml version="1.0" encoding="utf-8"?>
<!-- Generator: Adobe Illustrator 23.0.0, SVG Export Plug-In . SVG Version: 6.00 Build 0)  -->
<svg version="1.0" xmlns="http://www.w3.org/2000/svg" xmlns:xlink="http://www.w3.org/1999/xlink" x="0px" y="0px"
	 viewBox="0 0 3000 3000" style="enable-background:new 0 0 3000 3000;" xml:space="preserve">
<style type="text/css">
	.st0{stroke:#000000;stroke-width:10;stroke-miterlimit:10;}
</style>
<g id="Layer_1">
</g>
<g id="Layer_2">
	<g>
		<path class="st0" d="M433.1,1273.9c4.8-95.6,32.7-176.3,97.2-241.8c139.9-142,350.6-87.7,404.6,104.1c3,10.6,5.2,21.4,8.2,33.6
			c10.9-6.5,11.3-18.2,15.4-27.2c81.3-180,222.2-280.4,416.6-299.6c283.4-27.9,510.3,79.7,685.6,301.4c1.7,2.2,3.3,4.4,5.2,6.4
			c1.2,1.2,2.9,2,7.5,4.9c10.8-51.1,34.4-94.5,68.8-132.4c135.8-149.2,369-143.4,493.2,13.2c53.9,68,65.5,143.7,34.2,227.6
			c29.6-1,56.9-8.7,85-5.8c130.7,13.9,216.3,107.6,219.8,242.6c1.8,67.9-17,131.2-52.5,188.3c-61.5,99.2-173.1,123.5-278.5,62.4
			c-12.5-7.2-18.5-11.1-28.9,5.1c-60.4,93.7-144.8,145.6-258.9,133c-112.1-12.4-195.5-68.8-243.4-173.8c-0.9,0-3.6-0.6-4.2,0.3
			c-52.1,72.6-131.2,90.2-211.9,101.7c-191.7,27.4-384.6,24.4-577.5,19.2c-79.9-2.1-159.8-5.1-236.6-30.8
			c-37.9-12.7-71.8-32.3-101.1-65.3c-3.1,13.7-5.3,25.6-8.5,37.2c-13.6,49.8-43.8,88.8-83,120.5c-119.8,97-252.5,120.1-397.6,65.9
			c-28.6-10.7-54.7-26.3-77.4-46.8c-38.3-34.8-57.6-77.7-51-134.7c-41.9,23.1-83.8,31.2-127.2,22.5c-57.3-11.5-98.8-46.6-131.2-93.5
			c-83.3-121-83.4-312,0.5-432.6c41.5-59.6,95.7-98.5,172.4-96c52.8,1.7,94.5,26.3,130.4,62.9
			C415.6,1254.4,422.6,1262.5,433.1,1273.9z M1979.9,1748.9c52.5-10.2,94.7-47.9,117.9-110.8c57.3-155.2,34.9-303.5-55.8-437.9
			c-138.4-204.9-335.9-310-582.8-317.1c-100.4-2.9-197.3,18.2-283.9,72.9C1010,1060.2,961.3,1223.4,948.6,1405
			c8.8,0.7,13.3-4.3,18.5-7.9c66.3-45.6,126-98.2,171.5-165.2c50.5-74.2,121.5-118.4,206.6-141.3c103.8-28,209.5-27.6,314.2-11
			c127.8,20.3,225.6,88.7,290.1,201.8c41.9,73.5,46.1,155.6,50,237.4C2003.3,1596,1995.5,1672.4,1979.9,1748.9z M1834.2,1696
			c-3.3,0.8-6.3,0.8-8.4,2.1c-42.9,26.6-87.1,37.4-134.7,11.9c-7-3.7-14.3-1.5-21.6-0.3c-64.2,11.1-113-13.2-148.3-66.2
			c-8-12-16.7-19.8-30.4-25.3c-37.4-15.2-50.5-46.4-38.6-85.2c9.2-29.8,26.6-54.5,49.6-74.8c11.4-10.1,16-18.4,12.8-34.6
			c-7.7-38.4,4.9-63.6,38.5-82.9c25.5-14.7,51.6-28.9,82.5-26.4c10.2,0.8,13.8-3,18-11.9c20.5-43.7,20.9-43.6-27.6-55
			c-8-1.9-16.3-2.8-24.2-5.1c-123-36.4-223.1-2-304.1,96.1c-42.7,51.7-88.4,100.8-132.1,151.6c-26.3,30.5-59.8,48.1-98,57.8
			c-32.3,8.1-65.2,11.1-98.4,7.3c-15.1-1.8-19.7,2.9-17,18c14.7,81,57.6,173.6,169.7,197.6c32.4,6.9,64.9,12,97.9,14.7
			c164.2,13,328.6,8.5,493,4.5c31.2-0.8,62.3-4.1,93.4-6.5c10.3-0.8,20.7-2.2,21.7-16C1829.5,1743.8,1837.4,1720.7,1834.2,1696z
			 M2376.2,1395.6c81.8-2.7,157.4-33.3,216.7-98.8c62.5-69.1,64.2-158.5,6.6-231.1c-117.4-147.6-344.6-137.3-448.4,20.3
			c-54.9,83.4-45.2,168.3,28.6,235C2233.5,1369.8,2297.7,1393.9,2376.2,1395.6z M901.6,1222c-1.2-11.3-1.7-27-4.6-42.2
			C881.9,1098,844.2,1032,760.3,1006c-83.5-25.8-151.8,6.7-206.2,68.8c-67.3,76.8-89,167.5-64.4,266.6
			c18.4,73.7,60.6,130.5,137.5,150.5c80.5,20.9,145.5-11.3,199.2-69.6C877.2,1367.2,898.4,1300.1,901.6,1222z M451,1491.4
			c0.7-64.8-15.9-131.4-57.5-190.5c-21.6-30.7-49.3-54.5-85.5-66.3c-58.6-19-119.6,7.1-162.9,68.6c-76.5,108.5-75.2,280.9,2.8,389.2
			c68.5,95.1,176,95.4,244.9,0.2C434.5,1634.7,451,1568.9,451,1491.4z M657.9,1947.2c85.8-1.7,174.1-44,242.2-126.3
			c48.7-58.7,43.4-126-14.6-175.1c-66.3-56.1-144.2-80.2-230.4-64.8c-101.2,18.1-179.4,72.4-229.4,163c-34.9,63.2-21.5,114,38.7,154
			C516.2,1932.6,574.6,1946.3,657.9,1947.2z M2361.9,1846c118.2,0.1,210.4-71.1,238.8-167.9c22.1-75.4-3.3-142.3-70.3-185.6
			c-117-75.6-292.7-30.1-361,93.7c-30.7,55.6-26.8,109.6,11.9,159.3C2232.2,1810.8,2300.4,1843.6,2361.9,1846z M1953.6,1525.2
			c-1.2-21.1-2.6-42.1-3.5-63.2c-7.2-169.5-118.8-304.2-284.6-335c-92.2-17.1-186.4-17.3-279.2,1.1
			c-88.7,17.6-162.8,58.5-214.3,136.4c-30,45.3-68.4,83.8-110.2,118.6c-33.2,27.7-67.8,53.4-104.8,75.6
			c-16.7,10.1-13.1,24.4-12.5,38.7c0.4,9.5,7.4,11.3,15.4,11.8c74.5,5,141-6.2,191.4-71.4c43.7-56.5,92-109.8,142-160.9
			c65.1-66.4,143-105.4,239.7-92.2c24.5,3.3,48.9,7.8,73.4,11.3c210.5,30.3,279.4,188.3,284.6,327.4c2.9,77-4.4,153.8-14.5,230.2
			c-0.9,6.5-7,14.5,1.9,19.7c12,7,50.9-10.4,54-24.3C1948.4,1675.4,1957,1600.8,1953.6,1525.2z M2490.6,1419.5
			c6.3,4.4,8.2,6.3,10.5,7.3c124,53.7,163.2,123.2,144.9,257.4c-1.1,8-0.8,14,6.3,19.2c67.5,49.3,160.4,47.1,207.7-9.5
			c61-73,81.6-157.4,59.6-249.6c-27.6-115.8-163.1-185.3-293.7-109.3C2581.5,1360.8,2544.6,1399.9,2490.6,1419.5z M1843.8,1541.6
			c4.7-30.4-0.8-59-8.8-87.2c-4.4-15.8-6.1-36.2-16.8-45.2c-11.1-9.3-27.3,8.3-42.3,10.7c-6.3,1-12.7,2-18.9,3.5
			c-7,1.6-13.9,2.9-17.8,10.9c-17,35.4-43.3,60.9-80.8,74c-5.3,1.9-10.7,4.4-10.7,10.9c0,7.3,7.3,7.1,11.9,9.2
			c12.6,5.8,25,11.9,34.5,22.1c8.4,9,15.2,9,25.8,2.6C1759,1529.5,1800.1,1523.4,1843.8,1541.6z M911.6,1605.2
			c-14.9-71.2-16.8-134.3-12.4-198.7c-38.5,56.7-87.2,99.3-157.1,127.3C806.8,1545.2,858.8,1565.8,911.6,1605.2z M1624.4,1466.8
			c22.7,0.4,40.2-10.2,55.4-25.8c8.6-8.9,14.5-16.1-2.8-23.2c-16-6.5-27.2-20.2-29.9-37.1c-4.1-25.2-19.4-22.8-36-16.6
			c-12.7,4.8-24.6,11.9-36.8,18c-17.7,8.8-18.5,23.9-13.5,39.8C1568.2,1445.8,1598.7,1466.7,1624.4,1466.8z M1640.3,1666.1
			c37.7,1.8,53.8-20.5,40.8-56.4c-9.1-25.1-29.8-36.3-53.2-43.5c-21.1-6.5-23.8,15.8-35.4,24.4c-2.2,1.6-3.8,3.9-5.7,5.9
			c-28,29.1-26.6,35.6,8.9,57.6C1609.7,1662.7,1624.9,1664.2,1640.3,1666.1z M1731.2,1629.1c-1,8.2-0.2,18.9-3.8,27.9
			c-5.9,15-0.5,19.7,13.4,21.4c36.4,4.5,79.6-26.3,86.2-61.9c2.7-14.5,1.1-29.2-13.2-35.7c-24-10.9-46,0.4-67.9,10
			C1728.9,1598.4,1727.6,1611.7,1731.2,1629.1z M496.2,1459c2.8,53.1-1.7,97.8-11.4,146.3c43.9-29.7,86-51.7,139.2-65.8
			C572,1525.2,533.1,1500.6,496.2,1459z M1726.4,1381.8c3.6-0.7,10.8-2.1,17.9-3.3c17.8-2.9,42.6-2.6,47.6-19.3
			c4.3-14.2-15.5-29.1-28.1-40.7c-14.1-12.9-28.1-38.6-46.5-30.6c-20.1,8.7-25.3,36.2-27.1,59.6
			C1688.2,1374.2,1696.2,1382.4,1726.4,1381.8z M2286.9,1430.2c-47.3-13.7-84.8-32.8-124.7-61.6c10.4,48.1,8.7,89.2,12.8,135
			C2207.9,1470.8,2244,1450.3,2286.9,1430.2z M1524.9,1579.5c2.5-0.6,7.4-0.7,11.3-2.7c25.6-13.2,38.4-38.3,55.1-59.8
			c2.7-3.5,0.7-6.2-2.1-9.2c-27.6-29.9-50.6-28.9-74.6,4.4c-6.9,9.6-12.7,20.2-17,31.2C1489.3,1564.8,1499.6,1578.9,1524.9,1579.5z"
			/>
	</g>
</g>
</svg>
