<?xml version="1.0" encoding="utf-8"?>
<!-- Generator: Adobe Illustrator 23.0.0, SVG Export Plug-In . SVG Version: 6.00 Build 0)  -->
<svg version="1.0" xmlns="http://www.w3.org/2000/svg" xmlns:xlink="http://www.w3.org/1999/xlink" x="0px" y="0px"
	 viewBox="0 0 3000 3000" style="enable-background:new 0 0 3000 3000;" xml:space="preserve">
<style type="text/css">
	.st0{opacity:0.51;}
	.st1{stroke:#000000;stroke-width:10;stroke-miterlimit:10;}
</style>
<g id="Layer_1" class="st0">
</g>
<g id="Layer_2">
	<g>
		<path class="st1" d="M303,1694.5c50.7,8.3,99.9,8.8,149.1,2.3c8-1.1,11.2-6.8,14.7-12.4c11.8-18.7,20.1-39,24.8-60.5
			c5.9-27.2-3.9-43.4-30.7-52.2c-42.2-13.8-82.8-2.1-123.5,8.4c-42.3,11-84.2,25-129.1,16.3c-59.5-11.6-96.6-66.3-84.7-125.7
			c9.4-47,78.2-81.3,124.2-62.2c5.7,2.4,7.7,5.5,7.6,11.2c-0.1,7.6-4.4,10.3-11.3,10.1c-8.4-0.3-16.8-1-25.3-1
			c-40.9,0.1-66.8,17-73.9,47.8c-7.9,34.7,12.1,74.5,45.3,90.3c27.4,13,55.9,11.3,84.2,5.7c23.9-4.7,47.4-11.5,71-17.6
			c48.8-12.7,97.5-19.3,147.5,5.5c-9.6-65.9,31.4-97.7,78.6-124.4c17.2-9.7,18.7-16.1,6-32.6c-63.3-82.6-31.6-173.4,71.2-207.4
			c16-5.3,32.3-9.6,47.9-15.7c37-14.6,48-31.7,47.5-71.3c-0.2-15.9,0-31.8,0-50.5c-71.1,37.1-139.6,73.7-219.8,29.9
			c-4.5,21.8-6.3,45.3-30.5,56.5c-7.3,3.4-4.8,11.9-5.6,18.3c-5.9,46-41.4,67.2-84.8,50.7c2.2-14.4,10.3-19.4,24.7-17.3
			c12.5,1.8,23.3-3,30.6-13.8c4.7-7.1,9.5-15.7,6.6-23.5c-3.5-9.1-13.2-2.3-20.1-3.3c-4.1-0.6-8.4,0.3-12.6,0.3
			c-7.1,0.1-10.2-3.4-10.8-10.7c-0.7-7.9,2.7-10.6,9.9-10.6c3.4,0,6.8-0.2,10.1-0.7c57-7.8,70-27.9,54-84.3
			c-3.7-13-11.2-26.1-6.8-39.2c8.9-26.5-8-23.2-23.2-21.7c-23.6,2.3-44.3,11.7-59.4,30.1c-36.7,44.8-65.2,93.8-77.3,151.5
			c-3,14.4-1.4,20.9,13.1,26.1c27.9,9.9,53.2,25.2,76.6,43.4c5.4,4.2,14.4,7,7,17.4c-7.4,10.3-13.4,5.9-20.7,0.3
			c-20.2-15.4-42.2-27.6-65.2-38.1c-13.4-6.2-17.6-2.7-18.9,11.4c-3.8,39,6.3,61.9,35.3,76.5c30.8,15.5,59.7,10.5,87.4-16.2
			c7.3-7.1,14.1-14.1,23.1-5.2c10.4,10.2-2.5,16.5-7.3,21.4c-28.5,29.1-63.2,38.7-101.6,24.4c-15.5-5.8-22.7-7.1-33.2,9.3
			c-22.8,35.6-70.4,41.2-101.7,14.9c-4.4-3.7-14-7-8.1-15.5c5.4-7.6,11.9-8.3,21.5-2.8c32.8,18.9,60.5,12.2,74.9-16.4
			c3.1-6.1,6.9-12.7,2.8-19.1c-30.8-47.4-11.8-96.3-4.2-144.6c2.5-15.8,4.5-30.2,1-46.6c-3.5-16.5-9.1-20.8-24.9-18.1
			c-15.8,2.7-32.2,3.5-45.1,14.3c-47.5,39.9-116.7,10.1-126.2-59.2c-1.6-11.6-1.8-23.7-0.1-35.2c0.9-6.4,1.2-17.9,10.1-17.9
			c10.5,0.1,10.6,11.5,12,19.4c1,5.7-0.3,11.7-0.3,17.6c0,13.6,2.4,26.8,8.7,39c15.5,30.3,48.1,40.3,76.3,21.2
			c21.2-14.3,44.3-19.8,68.6-22.6c17-1.9,33.7-2.1,42.6,16.7c15.8-23.7,30.3-46.3,45.6-68.4c25-35.9,59.6-54.4,103.6-51.2
			c15.2,1.1,23.3-5,34.1-14.5c78.3-69.4,167.5-117.4,272.6-132.2c7.6-1.1,13.3-1.1,14,8.7c0.6,8.2-2.1,12.1-10.9,13.1
			c-83,9.1-152.5,50.4-221.8,92.5c-15.4,9.3-28.3,20.8-39.5,34.9c-17,21.3-25.8,44.6-14,70.3c12.9,28,36.4,44.4,67.6,45.6
			c67,2.5,122.8-25.7,172.5-67.2c51.4-43,94.8-93.3,128.7-151.4c4.2-7.3,6.2-19.4,19.8-12.5c14.8,7.6,3.3,15.8-0.3,22.5
			c-15.9,29.7-36.3,56.5-57.3,82.5c4.1,5.9,8,2.7,11.4,1.4c94-35.9,192.4-40.2,291.2-40.1c62.1,0.1,124.3,0,185.2,16.6
			c113.3,30.9,171.8,102.8,174.9,219.9c3.3,125.6,5.5,251.3-20.3,375.3c-16.9,81.4-42.8,159.3-92.9,227.3
			c-16.4,22.3-9.3,45.7,2.1,66.6c14.8,27.1,41,36.2,70.7,35.2c9.1-0.3,18.5-2.6,27-5.8c9.9-3.7,14.3,0.7,17,8.8
			c3.5,10.1-5.4,10.9-11.1,13.2c-59.3,24.2-118.4-9.4-138.1-79.3c-92.4,69.2-201.5,75.7-309.8,79.8c-68.6,2.6-134.3-20.3-199.1-41.2
			c-74.4-24-148.7-48.7-222.4-75c-42.9-15.3-77.6-4.5-107.8,26.5c-23.6,24.1-47.3,48.1-76.3,66c-47.9,29.5-100.6,42.8-156.1,44.6
			c-47.2,1.5-94.4,1.4-141.6,1.1c-41.4-0.3-66.8-18.7-73.6-51.6c-7.2-34.8,10-68.3,44.1-85.2c12.9-6.4,26.8-9.7,41.2-11.2
			c26.9-2.7,50.1-13.3,70.5-34c-19.9-10.3-38.1-2.8-56.1,1.5c-12.2,2.9-23.7,8.7-35.8,11.6c-33.9,8-66-14.2-72.5-49.5
			c-5.4-29.3,19.5-59.9,51.7-62.9c7.1-0.7,16.6-3.8,17.2,8.1c0.4,8.1-3.4,12.8-13.1,14.9c-27.2,5.9-37.5,20.4-32.1,41.3
			c5.8,22.5,27.2,33.3,52.2,23.6c35.5-13.9,71.4-19.3,108.8-11.8c9.7,2,16-3.2,22.6-8.4c27.2-21.3,54.3-42.6,81.6-63.8
			c6.4-5,12.4-12.6,20.9-2c9.1,11.2-1.5,14.8-7.2,19.5C349.2,1658.3,326,1676.3,303,1694.5z M518.2,1605.6
			c-24.4,104.2-62.7,149.6-159.8,191.2c-15.6,6.7-31,13.5-43.2,25.7c-12.9,13-25.9,29.7-16.9,46.7c7.3,13.9,26.2,4.3,39.6,2.3
			c65.1-9.8,118.7-41.2,162.2-90.1c43.1-48.5,93.5-60,154.9-36.7c66.8,25.4,135.7,45.3,203,69.4c107.6,38.4,216.6,53.8,329.9,29.3
			c58.7-12.7,117.9-22.5,163.4-66.8c14.5-14.1,28.9-28.5,39.7-52.7c-16.4,6.6-27.1,11.1-37.9,15.1c-41.1,15.4-82.6,29.3-127.3,28.7
			c-54.1-0.7-84.2-26.2-93.4-79.8c-3.7-21.8-3.4-43.8,0.3-65.5c21.3-125,58.5-245.1,110.1-360.8c19.8-44.5,52.4-70.1,101.5-76.6
			c41.7-5.5,83.2-12.8,125.3-15.1c10.8-0.6,19.1-1.2,18.9-16.5c-1.1-66.7-24.5-121.3-81.5-159.4c-37.9-25.4-79.8-38.6-128-45.4
			c11.2,12.2,20.6,21.5,28.9,31.7c36.7,45.4,34.8,91.2-8.7,129.5c-35.3,31.1-72.3,61-119.8,72.4c-10.9,2.6-14.1,8.2-15.3,19.1
			c-5.8,54.7-30.3,103-54.3,151.2c-5.4,10.8-13.6,19.2-24,25.3c-45.4,26.6-93.5,43.4-146.8,35.3c-38.8-5.9-79.5-7.4-111.1-35.9
			c-19.8-17.9-28.1-40-21.3-66c6.3-24.3,26-34,48.4-39c12.3-2.7,24.9-3.9,37.4-6.2c20.3-3.6,36.4-13.4,44.9-32.9
			c6.9-15.9,12-29.1-15.1-32.1c-31-3.4-52-33.5-45.6-58.9c1.5-5.9,2.9-12.2,10.6-11.7c6.6,0.5,9.9,5,11.4,11.4
			c8.7,36.3,19.8,45.8,55.5,37.2c52.3-12.6,104.9-15.4,158-12.3c76,4.4,131.8-34.5,182-84.3c22.3-22.1,24.5-44.7,7.4-71.3
			c-26.4-41.1-59.2-73.6-114.3-68.7c-15.9,1.4-32.1,1.3-48-0.1c-17.7-1.5-25.6,2.6-25.1,22.6c0.4,13.8-4.7,28.3-9.9,41.4
			c-10.4,26.3-28.5,45.7-57.3,52.2c-7.5,1.7-17.1,1.2-19.2-7.3c-1.5-6.3,5.4-13.1,11.8-14.7c41.3-10,47-43.2,52.2-77.4
			c1.9-12.4-1.4-16.8-14.2-16.1c-77.6,4.4-153.7,15-226.9,44c-59.8,23.7-95.6,58.4-85.3,128.8c5.4,37.3-15.1,65-49.6,79.8
			c-23.1,9.9-47.6,16.6-71.1,25.9c-84.9,33.8-102.5,109.5-42.3,177.4c7.8,8.8,13.5,10.3,23.1,3.7c18.1-12.4,36.7-23.9,55.3-35.5
			c6.6-4.2,13.1-12.5,21.1-1.3c9.3,13-2.9,15.9-9.9,20.5c-24.7,16.1-49.6,31.7-74.6,47.4c-26.4,16.5-54.3,30.9-77.7,51.7
			c-30.8,27.5-35.2,71.4-10.5,96.7c41.6,42.7,111.7,46,156.8,7.2c17.9-15.4,35.2-31.7,57.2-41.2c20.9-9,35.6-3.6,41,18
			c4.6,18.4,16.8,26.6,32.1,32.3c29.6,11.1,57.9,9.3,83.2-11.4c5.5-4.5,10.1-8.9,16.9-1.5c4.4,4.8,6.8,7.7,1.9,14.6
			c-29.5,41.2-132.6,33.7-150.2-13.6c-9.8-26.4-19.3-17.7-33-8.3c-6.9,4.7-13.8,9.9-19.5,16c-50.6,54.6-107.9,59.8-171.2,24.3
			C536.3,1614.3,528,1610.5,518.2,1605.6z M1489.5,1317c0-36.2-0.4-72.5,0.2-108.7c0.2-12.4-2.1-18.8-16.6-17.2
			c-49.3,5.6-98.8,9.5-147.3,20.9c-23.4,5.5-41.8,18.8-52.1,40.5c-16.2,34.2-30.9,69.1-46.3,103.6c-6.8,15.2-0.2,18,14.2,18.3
			c24,0.5,43.9-8.6,63.8-20.5c28.8-17.3,45.9-8.2,49.4,25.3c0.5,5,0.9,10.1,0.4,15.1c-6.3,71.9-40.4,125.5-104.9,158.7
			c-6.8,3.5-15.6,14.2-23.3,0.5c-8.5-15.1,5.6-15.8,13.4-19.9c58.4-31.2,89.5-79.6,92.4-146c0.7-15.4,0.2-25.8-19.4-12.5
			c-25.6,17.3-54.3,27.3-86,21.2c-11.5-2.2-14.5,2.9-17.2,12.3c-6.7,23.4-15.3,46.4-21.5,69.9c-15,56.9-33,113.1-35.8,172.6
			c-3.3,72.1,28.2,101.4,99.4,92.5c47.4-5.9,90.5-25,134.2-42.7c22.1-8.9,34.5-23.4,43.3-45.2C1473.7,1547,1486.6,1433,1489.5,1317z
			 M967,1393.6c43-2.9,88.4-11.8,116.1-45.3c33.1-40,49.8-91.1,57.8-143.5c1.2-7.9,1.5-15.8-10.2-15.2c-48.7,2.5-97.7-4.8-146.1,6.1
			c-13.6,3.1-19.2,8.1-20.8,22.7c-4,37.5-26.3,60.6-63.5,68.7c-13.9,3-28.3,4.3-42.1,7.8c-33.7,8.6-42.1,37-18.7,62.9
			c8.6,9.6,19.8,15.8,32.1,19.4C902.4,1386.2,934,1390.8,967,1393.6z M435.9,1721.5c-56.7,3.6-108.5,3.9-160.1-0.7
			c-5-0.4-11.5,3.4-15.6,7.1c-31.7,28.5-68.1,45.7-110.9,49.4c-5.7,0.5-11.4,3-16.6,5.5c-24.7,11.9-38.3,36-33.7,59.1
			c4.6,23.3,22.4,36.2,53.2,36.4c33.7,0.2,67.4-1.4,101-0.9c15.8,0.2,22.6-4.1,21.6-21.2c-1-16.6,7.8-30.8,18.3-43.2
			c15.1-17.7,35.5-27.7,56.4-36.9C379.3,1763,409.7,1751.1,435.9,1721.5z"/>
		<path class="st1" d="M2385.7,948c109.5,2.8,231.9,12.1,351.3,45.3c11.3,3.2,22.5,6.9,33.6,11c64.3,23.5,105.6,63.2,112.6,136.8
			c8.7,92.2,27.9,184,17.4,276.7c-13.9,121.7-99.3,189.3-199.8,188.8c-2.5,0-5.5,0.7-7.5-0.4c-39.1-19.7-74.8,0.3-111.3,9.4
			c-280.7,70.1-556,52.7-825.9-51c-14.3-5.5-28.3-8.8-43.9-9.2c-63.7-1.6-106.1-43.4-100.6-107.1c17.4-201.7,118-394.1,353.1-446.9
			C2111.5,968.5,2242.4,948.1,2385.7,948z M1767.7,1542.6c3.7,3,4.9,4.3,6.4,5c4.6,2,9.3,3.8,14.1,5.5
			c203.8,73.9,413.2,99.2,628.6,71.5c71-9.1,140.9-24.2,209.6-44.6c8.4-2.5,19.2-3,15.3-17.3c-9.2-33.7,1.4-65.1,13.7-95.7
			c19.1-47.7,36.3-95.8,46.1-146.5c16-82.3-37.4-163.2-119.9-174.9c-141.5-20-283.9-19.6-426.2-13.4
			c-113.1,4.9-199.5,59.7-264.7,150.3c-40.9,56.9-65.3,121.1-82.4,188.5C1801.5,1498.1,1794.2,1525,1767.7,1542.6z M2319.5,1104.9
			c56.2,2.9,127.8,6.5,199.3,10.4c16.8,0.9,33.6,2.9,50.3,4.7c100.5,10.8,167.1,93,155.5,193.1c-5,42.8-18.2,83.6-33.4,123.9
			c-10.7,28.2-25.2,55.3-28.8,85.9c-6.1,51.3,15.4,70.4,66.3,60.3c94.9-18.9,145.7-87.8,151.5-185.5c5.4-90.4-11.2-179.7-21.5-269.2
			c-5-43.4-29.3-71.8-67.7-90.7c-25.1-12.3-51.1-22-78.2-28.2c-201.8-46.4-404.8-51.6-608.5-14.5c-44.7,8.1-88.9,18.5-133.3,28.3
			c-175.2,38.8-275.2,152.7-319,321.5c-10.5,40.6-23.4,81.4-17.9,124.3c4.9,37.7,35.8,62.3,78.6,64.9c36.5,2.2,59.8-16,70-55.1
			c12.7-49,27.1-97.4,50.1-142.6c56.5-111.1,138.3-192.9,264.6-219.1C2165.5,1103.2,2235.1,1107.4,2319.5,1104.9z"/>
		<path class="st1" d="M267.6,909.8c18.5,4.4,37,9.5,55.8,12.9c18.4,3.3,20.1,13.7,15.5,29c-10.3,34.1-29.5,61.6-63.6,73.3
			c-59.4,20.3-83.8,11.1-103.4-38.9c-4.9-12.5-10.1-24.9-14.3-37.6c-9-27.6,8.1-49.1,36.8-46.1c6.6,0.7,13.4,2.3,19.3,5.1
			c17.6,8.4,25.8,2,35-14.5c30.2-54.2,78.4-78.6,140.1-76.4c6.5,0.2,16.5-3.1,15.2,10.2c-1.1,10.9-6,11.2-16.3,11.2
			C328.3,838,283.6,865.7,267.6,909.8z"/>
		<path class="st1" d="M1795.6,1815.8c59.2-3.2,105.3-25.8,141.4-68.7c5.4-6.4,8.7-17.2,21-7.7c13.9,10.7,0.4,16.7-4,21.7
			c-50.5,57.6-112.6,86.7-190.3,73.1c-28.3-4.9-49.4-20.8-57.6-50c-8.2-29.4,6.6-50.4,27-68.5c20.4-18,42.5-33.6,71.1-34.5
			c6.2-0.2,16.9-4.8,17.8,6.6c0.7,9-4.4,14.3-15.6,15c-23.8,1.5-42.3,15.3-59.5,30.4c-13.9,12.2-24.4,26.7-18.8,46.3
			c5.7,19.8,21.7,29.2,40.8,33.3C1778.6,1814.8,1788.8,1815.1,1795.6,1815.8z"/>
		<path class="st1" d="M222.7,1185.8c-47.8,0-95.6,0.1-143.4-0.1c-8.1,0-18,2.1-17.9-11.2c0.1-14.8,10.3-11.6,19.6-11.3
			c42.9,1.6,85.8,2.3,128.7,4.5c14.5,0.8,32.7-1.4,39.4,16.2c6.5,16.9-6.1,28.4-16.8,39.2c-39.8,40.6-75.5,83.8-93.9,138.8
			c-2.8,8.4-6,15.9-17.6,10.9c-12.8-5.5-5.7-13.7-3.1-20.9c17.1-46.5,44.1-86.8,77.9-122.7c10.2-10.8,20.1-21.9,30.1-32.9
			C224.7,1192.8,223.7,1189.3,222.7,1185.8z"/>
		<path class="st1" d="M2358.5,1821.7c-2.5-41.3,30.6-59,58-80.8c6.6-5.2,10.6-1.9,14.2,3.8c3.5,5.6,4.5,10.1-2.1,14.9
			c-10.8,8-20.9,16.9-31.2,25.6c-7.9,6.7-13.6,14.9-16.1,25.1c-8.4,34.2,6.4,49.1,40.4,39.4c61.3-17.5,117.2-46.3,168.5-84
			c5.4-4,10.8-8,16.2-12.1c8.2-6.1,11.8,0.9,16.5,5.6c7.3,7.3-0.2,9.8-4.3,13c-58.7,46.7-124.1,80.8-196.2,100.7
			C2381.5,1884.2,2357.7,1863.9,2358.5,1821.7z"/>
		<path class="st1" d="M2055.1,1834c-1.2-15.7,5.6-28.8,21.3-37.6c11.7-6.5,22.5-14.9,34.5-20.9c14.1-7.2,23-16.1,19.9-33.5
			c-1.1-6.1-2.1-14.7,8.6-14.4c9.2,0.2,12.6,5.3,13.3,14.6c1.6,21-2.3,38.2-23.1,48.7c-13.5,6.8-25.7,16.3-39.2,23
			c-15.8,7.8-15.1,20.8-12.8,34.5c2.4,14.4,14,19.2,26.1,19.1c35.3-0.4,66-11,86.5-42.7c18.7-28.8,35.2-33.3,65.8-22.3
			c9,3.2,9.9,8.3,9.2,14.8c-0.9,8.2-9.2,8.7-13.6,6.6c-28-13.6-37.3,7-51.2,24.4c-27.7,34.5-66.2,45.2-108.8,39.9
			C2066.5,1884.9,2054.9,1866.3,2055.1,1834z"/>
		<path class="st1" d="M2772.7,1844.9c-35.6-0.3-67.6-11.2-96.1-32.6c-6.2-4.7-9.5-8.9-3.6-16.3c4.9-6.2,8.2-7.3,16.1-2.7
			c98.9,57.2,187.1,24.1,228.9-84.1c3.9-10.2-1.1-36.8,21.7-26.7c17.4,7.6,1.5,24.9-2.7,36.2
			C2907.3,1799.2,2845.6,1845.9,2772.7,1844.9z"/>
		<path class="st1" d="M456.3,830.8c28.3,0.2,45.1,12.8,44.5,33.2c-1,29.4-29.2,63.3-52.2,62.7c-17.3-0.4-47.1-36-46.9-56
			C401.7,847.5,424.8,830.6,456.3,830.8z"/>
		<path class="st1" d="M2800.4,1708.6c2.7,8.3-3.8,9.3-7.6,11.7c-17.6,11.2-35.5,22-53.2,33.2c-6.1,3.9-11.1,7-16.9-1
			c-5.1-7.1-4.2-12,2.9-16.4c19.2-11.9,38.3-23.8,57.4-35.8C2794.6,1693,2797.5,1701.7,2800.4,1708.6z"/>
		<path class="st1" d="M929.7,1477.5c-8.3,0.4-17.6,2.7-17.8-10.8c-0.2-12.9,9.1-12.2,17.4-12.6c37.8-1.8,75.7-3.6,113.6-5.1
			c23.1-0.9,45.8-2.1,59.5-25.2c5-8.5,13.8-8,19.8-3.9c7.5,5.1,0.9,12.4-2.1,17.6c-12.5,21.7-32.7,30.7-56.7,32.2
			C1018.8,1472.4,974.2,1474.8,929.7,1477.5z"/>
		<path class="st1" d="M1006.4,1540c-15.8-0.9-31.7-2.9-47.4-2.2c-10.2,0.5-10.7-5.3-12.2-11.8c-2.4-10.4,5.1-10.6,11.9-11.3
			c25.7-2.8,51.2,7.5,77.1,0.6c5.7-1.5,10.8,5,11.9,10.9c1.1,6.1-5,7.4-9.3,9.6C1028.1,1541,1017.2,1540.2,1006.4,1540z"/>
		<path class="st1" d="M2256.9,1441.5c-20.3,0.5-40.4-0.5-59.4-7.7c-46-17.5-91.3-17-138-1.4c-33,11-60.8-3.4-72.2-32.7
			c-8.6-22.1-1.2-32.8,22.4-29.8c33.5,4.2,65.2-0.3,95.5-14.9c23-11.1,36.1-28.3,37.4-55.1c1.5-31.8,14.7-43.6,45.5-44.7
			c4.1-0.1,8.9,0.6,12.1-1.2c39.9-23.1,84-22.2,127.7-22.5c69.2-0.5,104.9,46.4,84.4,113.3c-17.5,57-61.8,83.3-117.6,93.5
			C2282.2,1440.4,2269.5,1440.4,2256.9,1441.5z M2263.9,1307.3c-20.9-0.3-40.5,22.1-40.3,43.2c0.1,10.5,2.9,18.1,15.8,17.4
			c17.2-1,49.1-25.5,48.6-39.3C2287.4,1312.4,2274.4,1309.3,2263.9,1307.3z"/>
	</g>
</g>
</svg>
