<?xml version="1.0" encoding="utf-8"?>
<!-- Generator: Adobe Illustrator 23.0.0, SVG Export Plug-In . SVG Version: 6.00 Build 0)  -->
<svg version="1.0" xmlns="http://www.w3.org/2000/svg" xmlns:xlink="http://www.w3.org/1999/xlink" x="0px" y="0px"
	 viewBox="0 0 3000 3000" style="enable-background:new 0 0 3000 3000;" xml:space="preserve">
<style type="text/css">
	.st0{stroke:#000000;stroke-width:10;stroke-miterlimit:10;}
</style>
<g id="Layer_1">
</g>
<g id="Layer_2">
	<g>
		<path class="st0" d="M861.3,2727.9c0,22.3,0.7,44.6-0.1,66.9c-1.8,50.2-25.6,84.9-62.4,92.3c-44.2,8.9-89.8-15.8-110.3-59.9
			c-23.3-50.1-15.4-102.4-7.2-153.4c21.7-135.3,89.3-195.2,227.9-210.6c119.2-13.3,238.6-18.3,358.4-12.8c17.1,0.8,34.2,0.1,56,0.1
			c-21.5-20.6-43.8-25.9-67.3-27.3c-22.5-1.4-45.1-2.1-67.6-2c-66.3,0.2-125.7-19.5-176.4-62.4c-15.9-13.5-24.7-15.9-38.6,3.1
			c-22.2,30.4-52.1,53.2-86.5,69.1c-33.6,15.5-58.9,7.7-77.2-24.3c-22.2-38.8-36-80.6-37.3-125.5c-0.5-17.5-5.3-27.5-22.3-35.9
			c-40.9-20.3-61.1-68-51.5-118c12.6-65.8,42.5-126,64.7-188.6c5.7-16.2,6.8-23.6-10.8-34c-65.1-38.1-90.6-106.4-69.5-179.6
			c17.4-60.2,43.5-117.4,59.7-178.2c21.2-79.4,18-161.5,29-242c15.9-115.4,28.8-231.2,57.1-344.5c14.4-57.4,6.5-82.5-40.1-97.1
			C667.9,825.1,621.4,737.4,618.1,618c-2.8-98.4,12-193.3,53.6-283.3c72.8-157.5,193-246.6,367.9-262.3
			c86.1-7.7,172.2-13.5,258.5-14.8c207.8-3,414.9,8.1,620.9,36.6c10,1.4,18.9,2,28-4c41.7-27.2,88.5-36.2,137.3-36.2
			c51,0,102.1-0.4,152.7,7.4c104.7,16.1,171.6,79.9,214.2,173c31.1,68,41,140.9,46.8,214.4c10.9,139,6.8,278.5,10.9,417.7
			c4.1,139.5-34.5,265.8-142.2,363.3c-6.2,5.6-15.1,10.5-5.2,21.1c45.9,49.1,60.5,111.3,69.7,174.7c12.5,86.2,27.6,172.1,29.8,259.7
			c2.8,112.1-8.6,223.2-18.2,334.5c-13.7,157.6-14.9,315.4-10,473.4c0.4,13.6,6.4,24.2,11.9,35.6c65.1,134.4,19.5,301.3-103.9,379.2
			c-55.5,35-115.2,44.3-180.4,34.6c-61.5-9.2-123.2,3.9-184.8,7.1c-221.3,11.6-442.4,27.5-664.4,21.1
			c-179.9-5.2-318.5-85.4-426.8-224.8c-5.3-6.8-10.9-13.5-16.3-20.2C865.8,2726.5,863.6,2727.2,861.3,2727.9z M904.3,2688.4
			c5.1,7.6,9,14.1,13.5,20.1c103.2,138.8,239.1,212.6,414.1,214.6c202.3,2.3,403.9-9.5,605.7-20.2c37.5-2,74.9-5.5,112.2-8.3
			c-0.4-5.1-0.1-6.5-0.6-7c-129-114.8-119.3-325.5,2.8-435.3c6.1-5.5,10.2-11.4,10.1-20.1c-1.1-112.7,7.2-225.7-12.2-337.7
			c-6.5-37.9-23-49.6-61.5-46.6c-25.4,2-50.9,5.5-76.2,4.5c-59.3-2.3-95-40.7-97.3-100.3c-2.8-72,38-118.9,90.4-159.2
			c28.7-22.1,60-40.8,86.3-66.1c24.5-23.5,38.6-52,40.8-85.5c2.5-37.6-18.1-60-55.4-60.8c-21.5-0.5-43.1,0.8-64.6,2.3
			c-90,6.2-137.6-35-144.8-125.3c-7.9-99.7,34.9-174.1,113.6-231.2c8-5.8,20.2-7.6,23.1-20.7c-63.3-19.4-103.5-67.3-140.4-116.7
			c-19.1-25.5-35.4-28.8-65-20.8c-196.3,53.2-385.7,40.3-566-61.9c-64.4-36.5-117.9-80.5-144.3-151.9c-3.7-10-9.9-19.2-15.8-28.1
			c-35.8-53.8-89.6-59.9-137.7-16.4c-9.3,8.4-12.2,13.3,0.5,21.4c45.7,29.5,56.7,72,44.9,123c-17.6,76.2-33.6,152.8-40.9,233.1
			c7.8-40.7,30.3-28.3,53.1-17.9c49.2,22.5,90.9,55.1,122.4,98.6c30.4,42.1,68,54.5,117.7,44.1c36.9-7.7,72.3-18.2,104.3-37.9
			c24.9-15.3,23.5,10.8,32.7,19.5c12.7,11.9,2.3,17.4-7.6,23.2c-37.7,21.8-78.1,35.8-120.8,44.4c-11.6,2.3-31.9-5.3-33.2,8.7
			c-1.4,15,16.6,24.9,30.4,32.8c12.4,7.2,26.2,7.7,39.9,7.9c21.6,0.3,42.7,3.7,63.9,8.1c63.5,13.2,117.4,53.7,182.7,62.8
			c17.2,2.4,5.3,21.5,7.3,32.7c1.4,8.1-0.8,17.6-12.1,14.1c-23-7-33.5,9.4-46.8,22c-89.9,85.3-210.1,68.4-256.6-41.5
			c-19.9-47-38.6-93.9-64.9-137.7c-4-6.6-5.6-14.1-13.6-17.8c-28.7-13.2-47.2-37.7-66.5-61.2c-31.8-38.8-70.7-67.3-117.5-85.5
			c-13.8-5.4-19.8-2.6-21.5,12.2c-3.8,33.1-8,66.1-12.7,99.1c-10.1,71.8-7.2,144.9-23.8,216c-15.6,67-40.2,130.9-63.2,195.5
			c-19.3,54.2-6.1,94.8,39.4,129.6c13.1,10,25.9,13.6,40.6,5.1c41.5-24.1,80-15.2,118.9,8c58.8,35,77.7,33.1,131.5-8.4
			c29.6-22.8,35.5-53.9,15.8-84.9c-18.3-28.8-45.2-48.3-77.6-54.1c-29.9-5.4-24-22.1-20-40.3c5.3-24.6,22.1-9.3,32.6-7.1
			c21.1,4.4,40.5,14.2,58.7,26.2c52.8,34.7,93.6,104.8,43.7,177.4c-7.7,11.3-4.6,16.6,4.6,23.6c23.4,17.8,47.1,35.3,69.1,54.8
			c29.6,26.4,63,38.1,102.5,34.6c50.1-4.4,100-0.8,149.8,4.7c92.8,10.2,163.1,50.8,195.9,144.3c24,68.7,46,137.6,49.2,211
			c0.6,12.9,2.3,25.7,3.9,43.2c55.5-105,52-240.1-6-334.3c-54.1-87.9-156.2-133.5-246.5-106.2c-26,7.8-31.5-2.6-38.6-21.9
			c-9.5-26,12.8-22.1,24-25.4c128.5-37.5,268.7,36.5,325.8,172.1c50.7,120.5,33.1,237.8-18.3,353.3c-10.1,22.8-18.6,44.3-48.8,22
			c-5-3.7-13.4-4.9-19.8-4c-24.6,3.2-26.6-10-25.1-29.5c7.5-95.1-15.7-184.5-49.7-272.2c-23-59.5-67.3-88.8-127.7-99.5
			c-56.3-9.9-112.9-10.3-169.7-7.6c-45.8,2.2-87.1-9.2-122.9-39.3c-26.2-22.1-54.3-42-80.5-64.2c-12.6-10.7-23-13.6-39.1-6.4
			c-40.1,18-80.1,15-118.7-6.6c-15.4-8.6-30.8-17.4-46.9-24.5c-24.1-10.7-49.7-4.5-58.7,17.3c-27.9,67.7-58.2,135.1-74.8,206.6
			c-13.3,57.3,10.4,84,69.2,83.3c53.1-0.6,100.5,14.5,142.8,46c22.8,17,46.4,33.3,67,52.7c48.6,45.7,105.2,64.3,171.6,62.7
			c62-1.5,124,2.6,171,55.2c6.3-18.3,7.6-36.2,17.1-47.1c23-26.2,3.5-35.2-15.1-43.2c-33.8-14.6-69.6-9.8-104.4-4.8
			c-64.3,9.2-122.8-0.9-173.3-44.8c-12.5-10.9-26.3-20.5-40.1-29.8c-18.2-12.2-38.1-21.9-60.6-18.1c-28.5,4.8-30.5-19.8-34.2-34.5
			c-3.3-13.2,16.1-11.5,26.2-14.6c10.5-3.2,21.3-1.2,32.1,0.3c43.1,5.9,75.6,31.8,107.1,58c38.2,31.8,80.2,42.6,128.8,35
			c24.1-3.7,48.8-4.4,73.3-4.7c27.8-0.3,56,3,78.4,20.2c19.2,14.7,54.9,23.9,32.3,61.7c32.7,31.3,36.1,82.3,76.5,109.6
			c37,24.9,76.3,33.8,119.5,33.1c38.3-0.6,76.7-0.7,111.4,19.8c55.1,32.7,65.1,101.4,17.8,140.9c-54.4,45.6-118.4,69.2-189.9,67.2
			c-70.9-2-123.8-37.6-162.1-95.7c-9.8,6.4-11.5,16.5-18.5,23.7c-41.4,42.2-92.7,42.9-145.3,37.5c-99.7-10.1-199.6-13.8-299.7-13.1
			C934.7,2683.5,919.7,2680.8,904.3,2688.4z M861.4,182.6c160.2-15.5,297.7,37.1,424.4,128.6c102.4,73.9,214.6,128.8,336.3,163.3
			c12.4,3.5,27.7,13.9,26.5-13c-1.9-41.7,22.5-64,59-77.5c41.7-15.4,84.7-25,128.9-26.7c20.8-0.8,23-7.4,19.3-25.6
			c-13.1-64.4-9.9-126.7,27.9-183.6c1.3-1.9,0.2-5.4,0.2-8.9c-105.4-13.6-210.7-23.8-316.5-27.8c-183.2-6.9-366.5-10.9-548.8,14.7
			C962.8,133.9,907.6,145.4,861.4,182.6z M2114.2,1163c21.7,2,36.1,3.4,50.5,4.5c44.4,3.5,87.4,13.6,127.2,33.3
			c17,8.4,26.8,6.6,40.6-5.8c93.1-83.3,127.1-191.9,127.2-311.3c0.1-141.1-5.9-282.3-11-423.4c-2.5-69.7-12.4-138.8-41.2-203.3
			c-33.7-75.7-85.7-132.3-171.5-145.3c-67.8-10.3-136.8-16.8-204.8-2.8c-60.2,12.4-105.2,46.6-125.8,106.7
			c-11.5,33.5-9.6,34.1,25.2,31.5c55.7-4.2,111.3-10.6,167.3-9.2c96.1,2.6,166.2,46,208.2,133.1c24.1,50.1,36,103.2,40.2,158.5
			c8.9,117.4,3.8,235.2,10.3,352.7c1.4,25.3,4.1,51-2.3,76.2c-17,67.1-66.9,97.7-128.3,116.2c-12.7,3.8-29.3,0.6-37.4,13.8
			C2171.1,1117.1,2148.5,1140.8,2114.2,1163z M2380.7,2439.6c0-8.1,0-13.8,0-19.5c-1.3-157.9,1-315.9,19.1-472.8
			c20.7-179.9,11.8-357.8-20-535.5c-16.1-90.2-56.2-158.6-150.6-182.6c-91.6-23.3-182.5-22.7-271.6,11.6
			c-105.5,40.6-163.4,145.5-135.5,243.5c10.2,35.8,30.3,50.4,66.1,50.4c16.8,0,21.3-4.4,18.7-22.1c-9.7-65.2,3.7-126.9,34.5-184.6
			c36.9-69.1,92.9-94,169.3-76.3c7.5,1.7,15.1,3.5,22.7,5c93.5,18.4,156,96.2,153.4,191.5c-1.4,50.3-9.7,99.3-26.3,147
			c-18.7,53.7-37.4,108.2-39.6,165.2c-7.3,189.1-11.2,378.4-4.8,567.6c1.7,49.3,6.2,52.3,52.9,61.6c4.7,0.9,9.5,1.8,17.2,3.2
			c0-14.8,0.2-28.3,0-41.8c-4.4-245.2-8.8-490.3-13.7-735.5c-0.4-18.6-0.6-30.2,24.8-30.9c27-0.7,24.1,13.7,24.4,30.9
			c4.4,252,10.1,504.1,12.6,756.1C2334.6,2406.9,2345.6,2426.7,2380.7,2439.6z M2111.5,2275.2c0,38.2,0.4,76.5-0.2,114.7
			c-0.2,13.6,0.9,19.7,17.5,14.1c44.6-15.1,44.8-14.3,39.5-61.9c-0.9-7.8-1.4-15.6-1.9-23.5c-9.9-146.1,4-292.1,0.7-438.1
			c-2.5-110.3,14.5-216.2,52.6-319.5c15.1-40.9,18.3-84.6,18.3-127.4c0-75.3-59.6-122.6-150.6-135.9c-34.6-5-66.8-1.5-88.8,31
			c-34.1,50.5-48.3,106-44.8,167c1.4,24.5,9.1,34.8,35.6,37c57.3,4.8,91.1,45,91.5,102.7c0.3,49.8-19.2,91-54.5,125.7
			c-33.8,33.2-75.2,56.5-111.1,86.9c-28,23.6-47.7,51.9-51.6,89.1c-4.6,43.4,16.8,67.5,60.4,66.8c23.4-0.4,46.8-4.7,70.3-5.4
			c58.6-1.6,93.1,28.5,103.8,86.2C2109.8,2147.8,2110.3,2211.5,2111.5,2275.2z M2011.5,820.8c-50,0-100.1-0.2-150.1,0.1
			c-9,0.1-19.2-3.4-23.8,10.5c-10.5,31.7-34.5,54-56.9,77.6c-30.4,32-34.9,63.7-12.4,101.6c28.2,47.5,63.1,89.8,106.3,124.7
			c34.8,28.2,74.5,33.7,116.4,22c24.4-6.8,48-16.6,71.9-25.5c51.4-19.2,84.1-55.7,99.6-108.1c17.3-58.9,23.4-119,23.1-180.2
			c-0.1-17.9-6.1-23.6-23.9-23.2C2111.6,821.5,2061.5,820.8,2011.5,820.8z M2118.3,2464.8c-4.4,2.6-8.6,4.8-12.5,7.5
			c-109.5,76.3-134,246.4-49.8,350.1c46,56.7,105.8,84.9,178.7,73.4c95.2-15,154-75.7,179.4-165.3c26.2-92.1,9-176.8-63.1-245.3
			c-5.8-5.5-10.6-14.5-21.3-11.9c-10.4,59.8-43.7,87.5-108.4,90.2C2165.2,2565.8,2140.4,2542.4,2118.3,2464.8z M1486.8,1049.5
			c58.8-0.5,117.2-5.9,174.3-21.5c16-4.4,36.5-4.5,46.7-14.8c11.1-11.1-4.4-30.8-2.2-46.5c2.6-18.8-4.8-22.1-21.9-23.5
			c-113.4-9.6-227.1-9.9-340.6-16.3c-54.3-3.1-106.3-12.3-150.7-47.6c-53.6-42.6-107.7-84.6-162.2-126.2
			c-41.3-31.6-85.3-58.7-133.1-79.8c-80-35.3-146.1,6.4-182.9,70.4c-2.7,4.7-7.8,9.4-2.7,15.7c14.5,17.9,31.8,32.3,53.7,39.6
			c17.8,6,22.1-12.8,31.3-21c80.4-72.2,172.2-58.5,226.3,35c7.8,13.5,14.5,27.7,20.7,42c14.4,33.4,37.1,59.5,67.3,79.6
			C1224.6,1010.3,1348.7,1052.8,1486.8,1049.5z M2214.2,1025.3c67-19.2,96.4-51.3,95.1-104.4c-3.2-131.3-6.7-262.6-12.1-393.9
			c-2-47.2-14.9-92.8-35.7-135.6c-29.2-60-75.5-95.5-143.4-102.2c-59.1-5.9-117.4,2.6-175.9,6.8c-46.6,3.3-45.7,3.7-33.4,48.6
			c3.4,12.4,9.4,15.4,19.8,16.8c11.6,1.6,23.2,3.8,34.7,6.2c124.5,26.4,206.8,96.4,236.6,223.9c17.9,76.6,29.3,153.9,33.4,232.4
			C2236.5,890.7,2230.4,956.7,2214.2,1025.3z M1958.1,643.8c60.7,0,121.4,0.3,182.1-0.3c7.1-0.1,22.7,7.5,18.5-11.8
			c-15.7-72.3-38.3-141.7-109-179.3c-106-56.4-216.4-61.8-329.3-20.8c-17.2,6.3-23,17.2-23.4,35.5c-1.4,56.3,16.9,105.4,48.8,150.7
			c5.1,7.2,10.6,12.4,17.1,15.7c9.6,4.9,18.8,4.5,21.9,4.4C1803.1,637.5,1867.6,640,1958.1,643.8z M1678.6,606.9
			c-7.8-21.8-15.5-40.8-21.2-60.4c-3-10.4-9.4-13.4-18.5-15.8c-156.2-39.9-294.5-116-425.4-207.9c-112-78.5-236.7-100.6-372-87.8
			c-56.9,5.4-81.5,37.8-104.5,80c-5.7,10.4-5.3,16,8.3,16.8c90.5,5.6,179.6,31.9,271.6,18.3c21.2-3.1,43-2.7,64.5-1.9
			c87.5,3.2,162.3,41.8,234.4,86.4c60,37.1,118.2,76.9,178.6,113.4C1550.4,581.9,1612,599.4,1678.6,606.9z M1114.9,2545.9
			c85,0,154.7-1.1,224.2,0.6c24.4,0.6,24.2-10.8,21.7-28.2c-2.6-17.9-15.8-17.3-28.6-17.6c-96.5-2.8-193.1-6.2-289.5-0.2
			c-67.3,4.2-135.1,7.2-200.4,27.8c-51.4,16.3-85.6,49.3-101.3,101.3c-13.1,43.6-17.2,88.3-17,133.6c0.1,18.8,3.7,37.3,14.8,53
			c11.4,16.2,27.2,26.8,47.5,23.1c20.3-3.7,23.8-22.3,25.1-38.8c2.2-26.3,1.1-52.9,2.9-79.3c2.6-39,22.4-66.6,59.5-79.5
			c18.5-6.4,38.3-7.4,58.1-7.6c97.1-0.6,194,2.7,290.8,10.4c32,2.5,64.3,9.4,96.6,1.8c15.5-3.6,30.4-8.3,37.3-25.1
			c6.5-15.9,6-26.1-15.8-25.5c-31.3,0.9-62.7-0.3-94.1,0.1c-113.6,1.3-227.4-5-340.8,2.4c-64,4.2-100.5,40.7-105.3,104.6
			c-2.4,31.2-25.3,19.1-38.8,21.4c-16.4,2.8-11.6-14.2-11.4-23.5c2-73.7,57.1-137.5,130.3-149.1
			C963.6,2538.5,1047.2,2549.8,1114.9,2545.9z M1423.8,2434.3c-6.2,62.6,0.1,115.3,25.3,164.4c23.3,45.3,59.4,76,111.2,81.9
			c60.1,6.9,114.2-11.9,162.8-46.6c31.4-22.4,28.1-53.3-6.3-70.9c-24.6-12.6-51.2-12.4-77.7-11.2
			C1546.9,2556.3,1475.6,2521.3,1423.8,2434.3z M1820,692.4c10.2,15.4,24.3,30.8,24.4,51c0.2,26.2,14,28.8,35.8,28.5
			c81.3-1.1,162.6-0.4,243.9-0.4c62.7,0,64.2-2.1,49.2-62.8c-2.8-11.4-7.9-16.5-19.9-16.4C2042.8,692.5,1932.3,692.4,1820,692.4z
			 M681.7,700.4c10.6-12.1,18.2-22.3,27.4-31c55.4-52.6,118.1-74.8,193.4-46.3c50,18.9,95.8,45.1,138.3,76.9
			c61.2,45.8,121.3,92.9,181.4,140.1c15.7,12.3,32.2,22.9,51.5,27.1c89.2,19.2,180,12.1,270.1,17.2c-47.3-8.5-94.7-15.2-142.1-22.4
			c-100.5-15.3-193.2-47.1-270.9-117.1c-59-53.2-126.4-95.6-193.9-137.7c-51.7-32.2-103.1-44.9-160.4-15.7
			c-20.8,10.6-43.7,17.2-65.1,26.9C660.5,641.4,660.6,641.7,681.7,700.4z M1411.6,718c-26.7-17.6-48.8-31.8-70.6-46.5
			c-7.9-5.3-15.9-6.5-25.1-4.6c-51.9,10.6-103.9,21-159.5,32.1c27.6,27.5,54.9,47.5,84.8,64.3c10.4,5.8,20.3,6.5,30.9,2.8
			C1317.3,750.7,1362.5,735,1411.6,718z M1743.2,750.8c10.7,0.5,21.5,1.4,32.2,1.3c5.6,0,13.7,0.1,16.2-3.2c4.6-6.2-0.7-13.3-5.4-18
			c-34.5-34-61.4-80-120.4-75.6c-21.3,1.6-49.8-19.7-61.3-3.7c-9.6,13.4,3.4,42.6,5.8,64.9c1.5,13.9,8.7,19.7,22.4,22
			C1669.3,744.7,1706,749.8,1743.2,750.8z M1277.1,567.6c-4.1-33.3-7.4-61.2-10.9-89.1c-1-7.7-1.3-16.9-8.5-21
			c-41.9-23.6-84.7-45.3-135.5-54.5c6.2,30.8,11.7,57.4,16.8,84c1.9,9.6,7.4,15.1,16.3,18.8C1195.7,522.4,1234.3,543,1277.1,567.6z
			 M668.7,583.8c49.5-23.8,98.5-42.4,149-56.3c17.5-4.8,11.8-20.2,13.6-31.6c2.1-13.4-9.9-12.7-17.7-14
			c-39.4-6.4-79-11.6-118.4-18.1c-11.5-1.9-16,1.8-17.7,12.6C672.1,510.7,664.9,544.9,668.7,583.8z M1149.4,1461
			c14.8,42.6,34.1,79.6,80.6,90.6c44.3,10.4,79.1-10.2,113.8-39.9C1281.2,1480.6,1221.4,1453.3,1149.4,1461z M1047.1,613
			c-0.4,2.5-0.9,4.9-1.3,7.4c24.7,8.5,38.9,39.5,67.8,35.4c51.6-7.3,102.5-19.5,162.7-31.4c-35.7-19.9-63.5-35.5-91.4-51
			c-6.2-3.5-12.4-4.1-19.6-1.5C1125.9,585.9,1086.5,599.4,1047.1,613z M841.6,2260.6c-18.4-4.8-23.3,3.6-20.8,20.1
			c4.7,32.1,12.3,63.2,26.7,92.5c6.8,13.7,13.9,16.3,27.5,8.8c26.2-14.5,47.3-34.2,66.4-56.9c9.5-11.3,6.5-17.9-3.9-26.1
			C909.1,2276.6,878.2,2261.2,841.6,2260.6z M1524.3,829.9c81.2,9,155.1,10.5,229.2,6.8c5.8-0.3,11.7-1.2,17.5-1.8
			c14.6-1.5,20.8-12.4,20.4-24.3c-0.5-13.2-13.3-7.5-20.8-8.3c-40.8-4.1-83.4-1.5-122.1-12.7
			C1597.6,774.8,1565.1,799.4,1524.3,829.9z M1457.8,634.5c0,51.5,0,51.5,48.4,69.9c7.3,2.8,14.6,5.6,22,8
			c32.9,11,31.6,11.1,28.7-22.6c-3.5-39.3-9.7-70.5-57.5-83.8C1456.1,594,1457.8,587.8,1457.8,634.5z M1408.9,652
			c0-28.9,0-57.8,0-86.8c0-5.7,0.4-11.8-5.6-15.6c-26.6-17-53.2-34-81.5-52.1C1320,568.3,1328.2,629.3,1408.9,652z M2218.8,2434
			c-17.5,4-47.8-9-46.8,30.8c0.9,33.6,13.8,48.3,45,48.2c42.5-0.2,63.8-16.5,63.2-48.5C2279.7,2439.6,2269.1,2434,2218.8,2434z
			 M1341.3,794.8c72.2,33.7,132,24.7,183.9-31.2c-19.4-5.6-36.9-19.5-58.4-12.4C1426.1,764.8,1385.9,779.3,1341.3,794.8z
			 M732.5,379.4c-25.2-1.3-33.9,5.2-35.1,23.9c-1.3,20.2,16.5,13.4,25.2,15.1c32.6,6.3,65.8,8.8,98.4,14.9
			c19.6,3.6,17.3-9.6,19.4-20.4c2.1-10.9,4.8-20.7-12.7-22.2C794.6,387.9,761.7,383,732.5,379.4z M1098.8,542.5
			c-41-13.6-81.1-53.2-124.2-7.4c-7.4,7.9-26.5,11.4-20.5,23.2c5.2,10.1,21.8,15.1,34.2,20.4c4.3,1.8,11.2-1.7,16.7-3.6
			C1036.3,564.4,1067.5,553.4,1098.8,542.5z M1084.4,478.8c0-7.2,0.6-11.1-0.1-14.8c-3.7-18.2-8.3-36.1-11.4-54.4
			c-2.4-14.2-12.4-13.2-22.1-12.6c-18.2,1.1-37.1-1.6-53.5,9.4c-0.8,0.5,0.2,3.7,0.3,5.6c1.8,23.2,25.9,50.4,50,56.7
			C1058.9,471.6,1070.2,474.9,1084.4,478.8z M959.1,449.2c-5.9-13.9-10-24.7-15-35.2c-9.8-20.5-30.4-16-46-15.5
			c-13.5,0.4-5.5,17.7-8.7,27c-4.6,13.3,4.3,16.6,15.6,17.6C921.4,444.7,937.7,446.8,959.1,449.2z M940.5,497.7
			c-17.3-2.8-27.9-5.2-38.5-5.9c-7.9-0.5-19.1-4.9-21.5,8.2c-1.7,9.3-5.5,20.4,2.5,27.9c9.6,9,17.8,0.6,25.6-5.4
			C917.6,515.4,926.8,508.4,940.5,497.7z M1629.8,887.8c19.9-3,59.2,11.2,98.6,0C1689,887.8,1649.7,887.8,1629.8,887.8z"/>
		<path class="st0" d="M1003.9,2109.9c58.7-1.2,111.4,11.2,154.3,46.6c47,38.8,98.8,52.8,158.3,47.8c64.1-5.4,122.6,10.5,172.2,53
			c43.2,37,70.8,83,80.2,139.7c2.6,15.9-0.5,24.5-18.4,24.2c-13.8-0.3-26.9,6.8-30.9-17.8c-14-87.6-89.4-149.5-179.8-151.2
			c-19.6-0.4-39.2,0.8-58.8,0.9c-42.1,0.4-84.3-5-116.4-33.2c-75.8-66.5-161.7-71.4-253.9-49.5c-23.7,5.6-42.1-13.8-36.4-36.7
			c2.3-9.5,10.8-7.6,16.4-8.7C929.2,2117.4,967.5,2108.6,1003.9,2109.9z"/>
		<path class="st0" d="M2120.6,2771.1c-40.1,0.1-70.7-30.8-70.1-70.7c0.6-38.5,31.1-68.4,69.6-68.4c39,0,71.5,32.5,70.7,70.8
			C2190,2740.7,2158.7,2771.1,2120.6,2771.1z"/>
		<path class="st0" d="M2300.4,2770c-40-0.4-68.2-28.6-68.3-68.1c-0.1-40.8,28.7-68.6,70.8-68.4c39.1,0.2,68.6,29.4,68.8,68
			C2371.7,2741.1,2341.3,2770.5,2300.4,2770z"/>
	</g>
</g>
</svg>
