<?xml version="1.0" encoding="utf-8"?>
<!-- Generator: Adobe Illustrator 23.0.0, SVG Export Plug-In . SVG Version: 6.00 Build 0)  -->
<svg version="1.0" xmlns="http://www.w3.org/2000/svg" xmlns:xlink="http://www.w3.org/1999/xlink" x="0px" y="0px"
	 viewBox="0 0 3000 3000" style="enable-background:new 0 0 3000 3000;" xml:space="preserve">
<style type="text/css">
	.st0{stroke:#000000;stroke-width:10;stroke-miterlimit:10;}
</style>
<g id="Layer_1">
</g>
<g id="Layer_2">
	<g>
		<path class="st0" d="M251.1,2155.8c-72.7-49.8-100.3-120.9-106.6-202.2c-7.4-94.6,17.5-183.5,50.9-270.6c4-10.4,10.8-19.3,0-31.6
			c-82.3-93.7-124.8-205.5-139.8-327.3C28.7,1106,46.4,891,122.9,684.3c62-167.6,175.3-289.2,348.9-347
			c64.6-21.5,131.8-27.9,199.3-30.2c223.7-7.4,441,22.3,647.2,114.2c7.5,3.3,14.1,7,22.2,0.2c62.8-52.5,140.4-67,217.1-81.3
			c164.2-30.5,329.2-57.1,495.3-75.5c143.2-15.8,285.5-4.6,427.2,17.9c54.1,8.6,108.1,17.4,160.9,32.8
			c151.2,43.9,236.2,146.5,267,297.9c16.8,82.5,18.7,166.1,15.7,249.8c-6.1,170.7-16,341.3-26.5,511.8
			c-4.4,71-25.3,135.8-68.2,192.6c-10.9,14.4-11.1,21.9,3.2,34.4c51.1,44.6,88.9,98.9,107.3,164.9c25.5,91.6,7.5,176.4-45.3,254
			c-11.8,17.3-13.4,32-9.1,52.2c25.7,122,41.4,244.8,8.4,368.1c-32.3,120.6-106.8,199.5-227.6,237.1
			c-244.9,76.1-495.7,102.9-750.8,95.2c-138.2-4.2-276.5-2.9-414.8-9c-205-9.1-409-25.5-609.3-73c-49.9-11.8-98-0.5-146.4,9.7
			c-91.5,19.3-179.7,50.4-269.7,75c-33,9-66.2,16.4-100.3,20c-102,10.6-177.8-32-232.9-115.2c-103.9-156.9-93.8-391.7,99.9-517.3
			C244.7,2161.6,247.2,2159,251.1,2155.8z M776.4,353.2c-59.6-4.7-112.5-1.9-165.5,2.7C429,372,292.3,458.7,203,618.4
			c-52.5,93.9-79.1,195.8-94,301.7c-20.7,146.7-29.6,293-2.5,440.1c46.7,253.4,232.5,415.9,489.9,426.4
			c221.7,9.1,413.3-69,586.5-201.4c13.7-10.5,11.1-17.9,4.3-30.5c-48.2-89.4-74.2-184.6-70.8-286.8c2.9-85.9,25.6-166.8,65.9-242.4
			c9.2-17.3,5.2-22-9.7-31c-69.6-41.7-143.3-74.8-218.5-104.3c-113-44.4-227.6-15-307.9,76.5c-94.2,107.3-77.6,283.8,35.2,373.2
			c11.3,9,23.4,18,37.5,20.7c26.4,5,16.7,21.8,13.2,36.2c-5.4,22-19.5,8.9-29.7,5.6c-18.1-5.8-35.2-14.8-49-27.7
			c-86.8-80.6-128.2-180.5-110.9-297.9c23.7-161.1,228.3-307,414.8-233.9c82,32.1,162.6,67.1,238.1,113c7.3,4.5,15.9,18.5,26.6,2.7
			c17.7-26.3,35.2-44.7,23.8-87.3c-34.8-130.3-24.9-260.6,42.3-381.4c12.5-22.4,9.8-29.3-13.5-38.7
			C1112.5,385.7,944.6,352,776.4,353.2z M2859.6,1259.1c5.2-99.9,11.5-191.4,14.2-283.1c3.5-115.8,14.2-231.7-8.6-347
			c-24.8-125.4-87.1-218.9-212.7-262.3c-60.7-21-123.6-30.7-186.6-40.7c-154.5-24.7-309-31.4-464.7-10.1
			c-115.7,15.8-231,34.2-346.3,52.5c-76.1,12.1-152.5,24.5-225.1,52.3c-41.5,15.9-74.7,41.7-97.6,80.6
			c-35.4,60.2-53.1,125.5-58.5,194.5c-4.3,54.1,0.5,107.9,11.6,160.9c2.7,13,5.8,27.4,26.4,28.2c111.4,4.5,222.8,10.1,334.1,16.3
			c14.7,0.8,20.2-3,23.8-17c9.8-38.9,32.8-69.8,63.5-94.7c75.6-61.6,164.3-79.9,258.5-70.9c93.7,9,176.8,41.9,229.7,126.6
			c7.4,11.9,17,11.1,27.7,11.1c72.9,0,145.8,0.6,218.6-0.4c19.1-0.3,23.9,6.1,24.4,24.6c0.6,21.1-10.6,20.4-25.2,20.4
			c-67.5-0.3-135-0.2-202.4,0c-9.7,0-21.8-4.4-21.1,14.5c3.1,76.5-36.1,130.3-97.7,168.6c-89.6,55.7-187.7,66.1-288.3,40.2
			c-89.8-23.2-165-67.2-190.5-165.9c-3.4-13-13.2-10.4-21.4-10.9c-38.6-2.5-77.2-5.1-115.8-6.4c-71.9-2.4-143.5-10-215.6-8.8
			c-10,0.2-18.5,0.8-25.7,10.4c-48.9,65.3-88.6,135-110.1,214.4c-23.1,85.4-22.8,170.6,0.2,255.7c1.9,6.9-1.4,23,17,14.6
			c41.1-18.9,85.3-28,129-38c97.3-22.3,195-42.9,296.1-30.3c34,4.2,65.1,18.9,99.5,22.8c84,9.5,168,18.3,252.3,23.7
			c114,7.4,228.1,13.5,342.3,15.5c12.9,0.2,18.4-1.6,12.4-16.5c-23.6-58.5-7.2-111,32.2-154.9c85.9-95.7,193.1-134.4,320.6-107.9
			C2751.9,1156.5,2810.8,1193.9,2859.6,1259.1z M1106.5,2197.2c48.6,0,97.2,0.1,145.7,0c147.5-0.5,295,0.2,441.4-22.4
			c109.3-16.9,191-65.8,221.2-179.4c13.4-50.2,14.8-101.1,11.3-152.6c-3.9-58.1-3.3-57.2-60.7-54.5c-110.6,5.2-221.2,7-331.7-2.9
			c-44.1-3.9-43-3.8-62.3,36.2c-52.4,108.5-131.6,185.3-256.2,198.7c-124.4,13.5-249.8,18.2-374.2,1.1
			c-124.8-17.1-229.6-70.7-295.4-184.4c-4.5-7.7-10.9-11.3-19.5-12.6c-102.6-15.3-195.7-52.8-276.1-119.4
			c-9.1-7.5-13.1-5.6-16.9,4.7c-28,76.4-50.1,154.2-44.7,236.7c7,105.6,53.7,167.9,144.6,195.1c62.3,18.6,126.6,26.6,191.1,32.4
			C717.9,2191.3,912.3,2191.8,1106.5,2197.2z M2423,1744.7c-20.4-4.4-37,1.7-53.8,3.5c-126.9,13.5-253.8,27.4-381.4,33.4
			c-16.1,0.8-23.6,3.6-20.7,23.6c4.9,33.7,13.6,69,5.3,101.9c-14.5,57.6,14.1,96.2,48,134.6c19.7,22.3,41.1,43,65.5,60.1
			c38.7,27,79.7,50.2,128.4,51c80,1.2,160.1,1.7,240.1-0.2c68.2-1.7,138.3,1.3,204.2-13.2c117.5-25.8,195.3-105.8,234.1-217.5
			c41-118.2-14.6-219.9-96.8-293.7c-11.7-10.5-15.7,1.6-21.1,7c-78.2,76.7-170.9,117.6-281.4,114.4c-13.2-0.4-21.7,2.9-28.6,14.6
			c-30.1,51-41.3,104.7-26.8,162.9c9.8,39.4,30.5,72.8,57.1,102.5c18.7,20.9-6.5,24.7-12.9,35.2c-8.4,13.8-14.8,1.3-20.1-4.4
			c-31.5-34.2-54.6-73.4-67-118.4C2376.2,1873.2,2388,1808.6,2423,1744.7z M2317.9,1707c1-2.1,2-4.1,3-6.2c-3.3-1.6-6.9-2.7-9.8-4.8
			c-74.4-53-117.5-124.9-128.6-215.5c-1.8-14.9-8-18.2-22.1-19.1c-138.1-8.4-276.5-14.6-413.9-31.8c-36.4-4.6-72.3-9.8-108.1-20.3
			c-56.1-16.5-114.1-9.2-171.3-1.8c-79.4,10.4-156.8,29.8-233.4,52.6c-29.2,8.7-33.2,20.1-19.7,48.4c12.8,26.8,28.2,52.1,45.6,76.2
			c59.9,83.3,137.3,138.5,241.5,151.1c58.1,7,116.3,11.2,174.8,11.5c178.2,0.8,355.8-11.8,533.2-27.6
			C2245.4,1716.7,2281.6,1711.4,2317.9,1707z M1642.4,2610c159.7,5.7,362.3-5.7,563.6-36.8c125.4-19.4,248.7-47.7,366.4-96.9
			c134.1-56,161.7-167.1,141.5-286.8c-1.6-9.8-4-13.6-15.6-11.3c-26.4,5.2-53.2,8.9-79.9,11.8c-10,1.1-13.7,5.8-16.3,14.3
			c-42.1,137.8-141.4,219.5-269.5,271.1c-94.7,38.1-195.1,48.1-296.2,49.9c-207.9,3.8-415.4-6.6-622.5-25.4
			c-198.9-18.1-396.4-45.1-592.6-82.1c-48.4-9.1-96.1-23.5-146.2-21.8c-102.3,3.5-179.4,84.9-169,179.5
			c4.2,38.6,22.4,71.4,44.9,102.5c12.8,17.7,26.1,23.9,47.7,15c18.9-7.8,39.3-13.7,59.6-16.5c28.5-3.9,38.2-18.3,43.4-46.4
			c17.3-93.9,80.6-139.9,175.3-133c57.2,4.2,110.3,23.7,164,41.7c68.9,23.1,136.5,49.5,209.9,57.2
			C1366.6,2608.4,1482.6,2606.1,1642.4,2610z M357.1,2751.2c-20.6-27.7-39.5-51.5-54.3-78.1c-39.2-70-62.3-144.4-48.7-224.9
			c17.8-105.7,91-162.2,186.9-191.5c104.2-31.8,210.2-26.3,313.7,4c116.2,34,234.9,52.1,354.7,64.1
			c175.2,17.5,350.6,33.6,526.3,46.8c239.5,18,465.4-23.1,671.9-150.8c8.4-5.2,19.3-8,25-21.4c-57.3,0.9-112.1,2.4-166.2-8.2
			c-8-1.6-13.6,3.8-19.6,7.4c-128.9,77.3-262.3,84.7-399.6,24.7c-13.8-6-26.3-8.3-41.1-5.5c-79.8,14.6-160.5,19.5-241.5,21.7
			c-275.2,7.4-550.3,1-825.1-12c-105.8-5-211.9-12.2-314.6-41.9c-16.2-4.7-28.6-2.7-42.7,5.5c-198.8,115.9-196.2,349.1-86.6,487.1
			C235.2,2727.9,285.6,2757.6,357.1,2751.2z M522.1,2715.3c-4.8-7.2-7.2-10.9-9.8-14.6c-3.1-4.4-6.6-8.6-9.5-13.1
			c-43.9-69.5-63-143.3-21.6-219.2c43.2-79,114.4-116.2,204.4-117c50-0.5,97.7,13.4,146.2,22.5c219.1,41.1,439.8,71,662.2,87.4
			c203.7,15.1,407.5,27.9,611.8,15.3c105.3-6.5,206.6-28.6,296.8-86.6c68.2-43.8,121.6-100.5,150.4-178.1
			c5.8-15.7,3.6-20.8-13.9-19.6c-33.2,2.2-66.5,3.3-99.7,3.9c-11.7,0.2-20.4,5.1-29.3,11.5c-241.7,174.9-512.8,234.6-806.7,206.7
			c-133.3-12.6-266.8-22.5-400.1-34.9c-108.3-10.1-216.2-22.2-323.4-41.4c-77.9-13.9-151.4-45.9-230.9-52.6
			c-92.7-7.8-183.5-5.1-265.8,46.6c-58,36.4-87.8,88.6-87.6,157.1c0.2,80,31.1,149.2,79.5,210.4c44.6,56.3,28.4,48.8,91.9,31.2
			C484.2,2726,501.3,2721.1,522.1,2715.3z M2842.1,2087.8c-21.5,16.6-38.5,33.3-58.6,44.3c-24.9,13.7-29.9,29.4-24.6,57.4
			c29.9,157-35,274.2-182.6,333.5c-188,75.6-386.2,103.3-586.1,120.9c-213.6,18.8-427.7,12-641.5,4.9
			c-84.5-2.8-168.1-12.7-248.9-41.4c-67.5-24-134.3-51-205.3-63.5c-80.5-14.2-128.3,14.8-147.8,88c-4.5,17-5.7,25.4,17.1,19.2
			c49.4-13.4,99.4-12.8,149.4-1.5c66.5,15.1,133.3,28.6,201,37.9c152.5,20.9,305.9,28.4,459.5,34.3c107,4.2,214.1-0.6,320.9,4.5
			c262.9,12.6,520.3-16.1,771.4-95.9c97.1-30.9,156.3-98.7,182.5-195.9C2879.5,2319.4,2867,2204.8,2842.1,2087.8z M2500.8,1705
			c176.4,4.8,306.7-140.7,341.2-265.4c22.3-80.6,0.8-151.5-66.8-204.4c-120-94-300.5-68.5-391,54.7c-20.3,27.7-30.3,58.6-17.7,91.2
			c19.2,49.5,57.1,80.5,109,90.6c44.8,8.7,71.3-10.1,81.6-54.1c1.9-7.9,5-9.6,12-10.7c29.2-4.7,35.6,1.3,31.4,30.5
			c-3.9,26.5-17.2,47.1-40.1,60.8c-47.8,28.6-99.7,28.9-143.1-1c-40.4-27.9-81.9-30.8-126.5-31.5c-9.9-0.2-19.7-1.1-29.6-1.6
			c-38.2-1.9-39.4-0.4-29.9,38.5C2262,1629.4,2362.5,1704.8,2500.8,1705z M594.9,1833.5c11.3,13.7,17.8,22.1,24.8,30.1
			c67.6,77.3,157.4,106.2,255.6,116.7c102.4,11,204.8,4.9,307.1-0.9c126.3-7.2,205.9-78.1,254.1-190.5c5.3-12.4,5.6-19.3-9.3-23.4
			c-78.9-21.5-137.8-72.2-187.9-133.7c-14.2-17.4-21.6-18-38.9-4.4c-119.3,93.2-252.7,157-401.2,188.5
			C733.9,1829.6,667.8,1834.3,594.9,1833.5z M1953,1091.1c64.3,0,124.6-14.2,178.1-51.5c89.6-62.6,90.4-161.2,2-225.1
			c-98-70.8-254.9-71.5-355.7-1.7c-92.4,64-92.6,163.5-0.2,227.6C1830,1077.1,1889.6,1091,1953,1091.1z M1798.2,2193
			c93.4,44.2,250,23.8,305.3-27.2c-60.1-32.6-108.2-78.7-150.9-137.3C1921.7,2104.5,1877.6,2163.4,1798.2,2193z"/>
	</g>
</g>
</svg>
