<?xml version="1.0" encoding="utf-8"?>
<!-- Generator: Adobe Illustrator 23.0.0, SVG Export Plug-In . SVG Version: 6.00 Build 0)  -->
<svg version="1.0" xmlns="http://www.w3.org/2000/svg" xmlns:xlink="http://www.w3.org/1999/xlink" x="0px" y="0px"
	 viewBox="0 0 3000 3000" style="enable-background:new 0 0 3000 3000;" xml:space="preserve">
<style type="text/css">
	.st0{stroke:#000000;stroke-width:10;stroke-miterlimit:10;}
</style>
<g id="Layer_1">
</g>
<g id="Layer_2">
	<g>
		<path class="st0" d="M415.4,1515.2c0-156.6-2.1-313.3,0.4-469.8c7.6-468,336.6-864.4,795-959.8c56.2-11.7,113.2-19.1,170.8-19.1
			c114.7,0.1,229.7-6.3,344.2,4.5c215.8,20.2,404.7,104.3,565.6,248.6c177.3,159.1,283.9,357.7,320.8,593.2
			c7.9,50.4,10.8,101.4,10.8,152.5c-0.2,300.5,0.4,600.9-0.2,901.4c-0.9,475.9-323.9,876-788.6,977.5
			c-58.3,12.7-117.4,20.3-177,20.5c-128.9,0.5-258.2,10.1-386.3-9.7c-328.2-50.8-573.2-223.6-735.6-512.3
			C450.8,2292.6,415,2129.1,415,1957.4c0-147.4,0-294.8,0-442.2C415.1,1515.2,415.3,1515.2,415.4,1515.2z M467.2,1515
			c0,149.5-0.4,299.1,0.1,448.6c0.5,133.3,22.3,263.1,79.8,383.8c169.4,355.6,451.3,546,845.6,565c89.1,4.3,178.6,2.8,267.8-0.2
			c233.1-7.9,436.7-91.6,607-250.4c201.6-188,302.3-422.3,303.3-698.1c1-299.1,0.1-598.1,0.3-897.2c0-55.4-4.6-110.4-13.7-165
			c-74.8-448.3-470.8-783.4-925.3-783.4c-75.1,0-150.2-0.1-225.4,0c-141,0.2-276.7,27.9-402,92.5
			c-346.4,178.4-526.3,464.1-536.9,853.6C463.8,1214.4,467.3,1364.7,467.2,1515z"/>
		<path class="st0" d="M2106.3,2070c-22.1-2.3-39.8-11.3-57.5-19.9c-88.5-43-177.5-84.6-271.2-115.5c-239.8-79.3-473-58.5-701,44.3
			c-54.8,24.7-108.4,51.9-162.7,77.7c-9.5,4.5-19.7,7.9-29.8,11c-16.9,5.2-31.3,1.3-39.9-14.9c-8.7-16.5-2.2-31.1,10.6-41.5
			c17.5-14.2,36.5-26.8,55.4-39.2c66.8-44,133.1-88.3,189.8-146.1c109-111.2,122.3-236.4,61.3-375
			c-53.4-121.2-130.3-226.7-215.6-326.8c-23.4-27.5-47.9-54-71.8-81.1c-4.2-4.8-8.5-9.8-11.1-15.4c-6-12.6-9.1-25.6,1.9-37.6
			c10.8-11.8,24.4-11.6,37.1-6c12.1,5.3,23.4,13.2,34.1,21.2c99.5,73.9,206.4,133.4,323.8,174.4c160.4,56.1,318,50.5,474.8-13.1
			c103.6-42,197.7-101,292.4-159.3c11.4-7,22.6-14.5,35.7-18.4c13-4,23.9-0.9,32.4,9.4c9.1,11,6.2,22.9-0.3,33.5
			c-7.8,12.7-19,22.8-30.1,32.7c-107.5,95.5-195.9,206.3-265.3,332.1c-27.8,50.4-50,103.3-56.9,161.2
			c-9.8,81.6,16.7,151.9,67.5,214.6c51.9,64.1,116.4,113.5,185.1,157.9c39.2,25.4,79,49.9,118,75.5c12.5,8.2,22.4,18.6,20.8,36.6
			C2132,2061.5,2119.5,2066.5,2106.3,2070z M1083.3,1915.9c385.6-114.7,420-107.3,795-3.9c-8.7-7.4-15.1-12.9-21.5-18.3
			c-46.1-39.2-87.9-82.2-119.5-134.3c-36.8-60.5-53.8-125.5-47.3-196.6c7.9-86.3,43.8-161.9,88.6-234.1
			c41.3-66.6,84.5-131.9,137.2-193.4c-301.5,190.4-600,172.4-897.1-10c6.2,12.2,13.2,20.9,19.9,29.8
			c71,94.7,140.3,190.4,181.9,302.7c24.2,65.4,36.7,132.6,25.6,202.1c-16,99.6-74.4,174.1-147.1,239.4
			C1093.3,1904.4,1085.7,1907.6,1083.3,1915.9z"/>
	</g>
</g>
</svg>
