<?xml version="1.0" encoding="utf-8"?>
<!-- Generator: Adobe Illustrator 23.0.0, SVG Export Plug-In . SVG Version: 6.00 Build 0)  -->
<svg version="1.0" xmlns="http://www.w3.org/2000/svg" xmlns:xlink="http://www.w3.org/1999/xlink" x="0px" y="0px"
	 viewBox="0 0 3000 3000" style="enable-background:new 0 0 3000 3000;" xml:space="preserve">
<style type="text/css">
	.st0{stroke:#000000;stroke-width:10;stroke-miterlimit:10;}
</style>
<g id="Layer_1">
</g>
<g id="Layer_2">
	<g>
		<path class="st0" d="M1470.7,429.6c-1.1,18.9-0.5,39.3-4.9,59.2c-2.7,12.1-1.5,19.5,14.3,16.6c13.1-2.4,31.6,2.1,38.7-5.2
			c8.1-8.2-3.1-24.7-5.3-37.7c-24.6-143.6,33.5-276.6,150.4-342c58.9-33,122.5-44.1,189.5-40c9.4,0.6,12,3.7,9.9,12.2
			c-0.2,0.6-0.2,1.3-0.2,2c-1.9,34.6-1.9,34.6-36,34.7c-141.9,0.1-246.5,89.1-266.9,229.4c-6.9,47.2-1.7,94.3,14.2,139.8
			c3.2,9,8.6,12.6,17.1,14.4c156.5,32.1,298.8,180,323.2,379.3c18,147-18.7,278.5-117.9,390.5c-11.6,13.1-23.9,26.1-38.1,36.3
			c-15.1,10.8-18.4,23.5-18.2,41.1c0.7,52.4-6.9,103.4-27.8,152.2c-22.4,52.3-58.9,91.5-106.9,120.8c-23,14.1-46.6,27.2-69.3,41.9
			c-38.9,25.2-57.4,61.7-55.9,108c1.1,35.8,3,71.5,12.5,106.4c9,33.2,29,56.1,62.4,65.7c23.9,6.9,47.9,14.1,72.4,18.5
			c101,18,161.2,79.8,188.5,175.7c21.9,76.5,24.6,154.3,8.4,232.5c-14.5,70.2-58,117.2-120.1,149c-17.4,9-34.6,18.3-50.3,30.2
			c-36.1,27.4-48.3,63.9-40.1,107.4c8.2,43.9,29.4,78,74.8,92.1c14.8,4.6,30.2,7.9,43,17.3c43.9,32.2,43.7,95.9-1.3,132.3
			c-41.1,33.3-89.8,37.2-138.5,26.2c-113.2-25.6-187.8-99.6-235.9-201.2c-36.2-76.5-48.2-157-24.4-240.5
			c18-63,58.6-108.4,111.5-144.3c10-6.8,20-13.9,29.4-21.5c23.9-19.4,27.8-38.4,13.1-66c-18.9-35.3-49.4-58.6-83.8-77
			c-30.4-16.2-61.6-30.7-92.4-46.2c-72-36.4-115.6-93.9-126.4-174.3c-10.8-80.6-13.8-161.7-1.3-242.3
			c10.9-70.4,51.8-124.9,98.7-175.6c23.4-25.3,46-51.2,68.6-77.3c16.1-18.6,27.2-40.1,34.5-63.6c2.9-9.3,1.2-14.1-8.9-18
			c-183.6-71.2-295.6-274.6-271.9-483.2c15.8-138.7,76.9-251.6,191.3-333.7c30.9-22.2,64.8-38.7,101.3-50
			c7.7-2.4,14.4-4.5,16.7-14.7c31.9-141-22.9-298.7-172.1-358c-42.6-16.9-87.5-23.1-133.2-19.4c-17.2,1.4-22.4-4.4-23.4-20.4
			c-1.8-27.6-2.5-28.3,24.4-29.6c190.4-9.1,327.3,114,357.1,282.4C1469,383.8,1470,406,1470.7,429.6z M1464.8,799.3
			c-2.8,114.9-0.8,180.2,5,208.6c1,4.9,4.6,22.7-4.1,31.2c-4.4,4.3-13.3,4-31.4,3.5c-10.1-0.3-14.1-2.9-14.3-13.7
			c-0.8-52.7-2.4-105.3-3.8-158c-2.6-95.2-5.7-190.4-7.7-285.6c-0.3-14.9-4.6-15-16.3-10.4c-30.9,12.4-59.6,28.7-85.8,49
			c-187.3,145.3-211.5,444.9-50.3,622.2c148.5,163.4,385.3,155,522.1-18.4c110.7-140.4,122.4-345.1,28.2-498.2
			c-47.7-77.5-113.4-132.9-200.5-161.9c-14.8-4.9-20.6-4.7-19.8,14.2c5.8,147.1,10.6,294.2,15.6,441.3c0.2,5.7,4.2,15.3-1.9,16.6
			c-13.6,2.8-28.4,4-42,1.8c-9.6-1.6-6-13.8-6.2-21.2c-4.9-137.7-9.6-275.3-14.2-413c-1.9-56.4-1.6-55.8-57.6-52.9
			c-17.5,0.9-22.7,6.3-21.9,24.1C1461.1,652.1,1462.6,725.7,1464.8,799.3z M1690.8,1369.8c-3.2,0.2-4.8-0.2-5.9,0.4
			c-75.9,38.2-155.5,52.5-239.7,37.1c-10.8-2-12.2,4-14.5,11.7c-11,36.8-30.3,68.9-55.3,98c-22.9,26.7-46.5,52.6-70.9,77.9
			c-37.8,39.2-65.5,84.3-74.3,138.9c-9.9,61.8-5,123.9-3,186c2.9,93.1,48,155.5,134.3,190.6c37.3,15.2,73.9,33.3,106,58.7
			c32.2,25.5,60.7,53.8,71.6,95.4c9.5,36.3,3.1,68-25.3,94.2c-14,12.9-29.3,23.8-44.9,34.5c-47.5,32.3-81.5,73.9-93.8,131.6
			c-29.5,138.1,63,306.3,195.7,354.9c27.2,10,55.1,13.4,83.6,9.9c17.5-2.1,34.4-7.3,47.5-20.4c21.2-21.3,15.8-46.6-12.2-56.4
			c-7-2.5-14.2-4.3-21.2-6.8c-61.5-22.5-93.4-69-103.7-131.3c-9.7-58.7,5.7-109.7,53.4-148.4c20.6-16.7,43.2-30,66.9-41.7
			c51.9-25.8,83.2-66.5,93.3-124.3c11.2-64.3,8.2-127.6-8.3-190.5c-21.7-82.8-70.1-136.7-158.6-148.6c-24-3.2-47.5-9.9-70.5-18.1
			c-51.4-18.5-84.9-53.1-97.9-107c-9.4-39-12.8-78.8-12.5-118.5c0.5-59.8,25.1-108.5,75.6-142.3c18.5-12.4,37.4-24.4,57-34.7
			C1656.3,1551.8,1688.8,1470.1,1690.8,1369.8z"/>
	</g>
</g>
</svg>
