<?xml version="1.0" encoding="utf-8"?>
<!-- Generator: Adobe Illustrator 23.0.0, SVG Export Plug-In . SVG Version: 6.00 Build 0)  -->
<svg version="1.0" xmlns="http://www.w3.org/2000/svg" xmlns:xlink="http://www.w3.org/1999/xlink" x="0px" y="0px"
	 viewBox="0 0 3000 3000" style="enable-background:new 0 0 3000 3000;" xml:space="preserve">
<style type="text/css">
	.st0{stroke:#000000;stroke-width:10;stroke-miterlimit:10;}
</style>
<g id="Layer_1">
</g>
<g id="Layer_2">
	<g>
		<path class="st0" d="M345.6,1175.2c-74.5-25.9-131.1-67.2-174.4-126.6C18.7,839.5,95.5,515.3,325.4,398.1
			c113.8-58,236.3-75.7,361.9-76.6c111.3-0.8,221.2,11.7,327,48.6c40.6,14.1,81,29.7,108.8,65.2c7,8.9,14.5,6.6,23,4.6
			c170.5-41.5,344.4-51.4,519-54.4c210.4-3.6,420.9-7.9,631.4-9.9c111.8-1.1,223.4,4.8,330.9,40.8
			c108.6,36.4,200.8,96.4,268.9,190.2c120.9,166.5,95.3,403.9-59,540c-16.1,14.2-16.4,21.2-2.4,37.3c83.1,95.6,94.3,249.5,26.6,364
			c-35.5,60-77.4,115.6-125.5,166.2c-11.1,11.7-14.7,18.2-2.5,32.9c175.5,213,136.9,502.4-88.4,664c-13.1,9.4-16.7,19.6-16.6,34.4
			c0.1,46.8-6.9,92.4-25.9,135.5c-25.2,57.3-67.8,89.1-132.1,89.1c-58.4,0-116.9,1.3-175.3,0.7c-53.8-0.6-105.4,13.3-157.9,21.2
			c-136.1,20.4-272.5,32.3-410.4,27.7c-144.2-4.8-288.6-6.2-432.9-8.7c-92-1.6-180.9-18.9-265.8-54.2
			c-84.4-35.1-170.9-53.8-263.1-49.6c-89,4.1-175.8-13.9-260.7-40c-10.4-3.2-19.7-6.3-32-1.6C330.7,2621,194,2568,122.6,2431.1
			c-41.4-79.4-55.9-165.3-61.8-253.2c-13.1-196.1,40.3-375.4,139.5-542.6c9.2-15.5,10-22.1-7-33.1c-58.6-38-84.9-116.3-67.7-192.1
			c24-105.9,94.8-171.7,187.3-219C322,1186.4,331.3,1182.1,345.6,1175.2z M528.7,2527.7c6.6,2.7,11,5.1,15.6,6.4
			c75.4,20.8,152.3,34.1,230.5,30.6c89.4-4.1,173.6,13.6,255.9,46.8c54.1,21.8,109.3,40.1,167.6,48.2
			c81.2,11.3,162.8,9.6,244.3,10.2c176,1.3,352,15.5,527.9-0.7c51.6-4.8,102.9-12.2,157.3-18.7c-59-61.5-70.2-141.7-30.6-213.8
			c9-16.4,7.9-22.8-7.1-34.1c-107.8-81-173.2-188-183.4-323.4c-13.7-181.5,60.8-321.5,210.9-422.1c11.8-7.9,16.7-13.2,9.2-27.8
			c-17.9-35.1-32.3-72-40.9-110.6c-3.7-16.3-11.6-18-27.2-16.5c-145.9,14.4-291.7,11.4-436.7-9.9
			c-160.5-23.7-314.8-69.3-462.7-136.3c-12.2-5.5-24.2-7.5-37.4-5c-153.4,29-306.3,60.2-455.6,107.1c-25,7.9-50.9,14-76.9,28.2
			c53.1,13.4,102.3,28.8,143.4,61c16,12.5,31.2,15.3,49.9,12.2c114.9-18.7,230.5-29.6,345.1-53.2
			c211.7-43.5,411.4,131.2,409.5,347.5c-1.2,146.1-89.7,241.1-235.4,255.8c-31.8,3.2-63.1-5.5-94.8,1.7
			c-91.2,20.6-180.5,17.1-267-22.3c-29.4-13.4-54-33.5-80.8-58.4c6,63.7,21.2,118.6,48,170.2c19.3,37.3,49.1,57.1,91.4,61.9
			c141.1,15.8,282.5,21.4,424.4,15.8c57.3-2.3,114.9-8.9,172,4.4c78.9,18.4,124.1,91.1,105.8,170.3
			c-16.3,70.4-89.6,126.4-175.7,111.7c-5.2-0.9-14-0.8-12.9-9c1.4-11,3.3-22.8,8.7-32c4.5-7.6,14.2-0.1,21.4,0.5
			c47.3,4,94.5-23.9,111.9-66.6c16.6-40.7,6.6-85.6-26.2-112.2c-26.7-21.6-59-27.4-92.2-26.4c-170.9,5.2-341.6,6.7-512.3-9.4
			c-79.9-7.5-137.5-38-166.7-114.7c-6.1-16-12.8-31.9-18.1-48.1c-22.7-69.3-26.3-141.4-31-213.4c-4.8-73.6-5.2-147.6-19.1-220.5
			c-2.8-14.8-8.1-20-23.6-19.1c-48.6,2.9-94.9,13.9-139.2,33.8c-56,25.1-102.7,62.2-138.9,111.6c-13.7,18.7-22.7,5-33.9-1
			c-13.5-7.2-9.1-14.3-1.8-23.9c51-66.7,115.3-113.9,195.3-140.8c38.3-12.9,77.8-18.8,119.3-24.3c-2.6-5.8-3.7-9.9-5.9-13.2
			c-44.6-67.8-114.7-89.9-188.2-109.9c-60-16.3-105,7.5-149.6,40.1c-1.4,1-2.7,2.1-4.1,3.1c-45.1,33.1-93.6,57.7-151.3,57.5
			c-12-0.1-16.1,7.5-21,15.7c-98.5,161.4-153.9,334.8-142.7,525.8c4.9,83.5,17.2,165.9,57,241.2c38.1,72.1,93.6,121.5,177.8,133.8
			c96.1,14,168.4-28.9,199.8-120.6c5.8-17,11.7-34,18.3-50.7c26.1-65.6,71.8-82.8,135.1-50.3c59.6,30.6,120.4,58.3,183.7,80.3
			c173.4,60.2,351.8,84.4,534.8,70.5c24.4-1.8,22.9,10.8,25.3,26.5c3.4,22.6-13.4,15.4-23,16.2c-164.5,13.6-325.6-5.6-483.9-51.2
			c-90.2-26-176.4-61.9-259.4-105.5c-36-18.9-55.2-11.8-71.1,25.3c-5.7,13.4-10.8,27.1-15,41C571.2,2462,557.8,2497.9,528.7,2527.7z
			 M2698.5,494.6c-28.9-18.1-56.1-27.7-83.5-37c-103.3-34.9-210.7-40.1-318.1-38.8c-234.5,2.7-469,7.6-703.5,12.3
			c-148.8,2.9-296.5,15.9-441.5,51.9c-10.2,2.5-19.4,3.9-24.9,15.1c-9.3,18.9-25.1,32.5-41.7,44.9c-66.7,49.8-143,81.2-218.5,114.2
			c-13.8,6-24.8,12.6-33.5-9.3c-8.1-20.4,1-24.9,16.1-30.9c55.9-22.1,110.5-47.2,162.7-77.1c21.7-12.4,42.7-25.8,61-42.8
			c25.1-23.2,24.1-35.1-3.9-53.7c-20.8-13.9-43.4-24.4-67.2-31.9c-183.9-58.1-369.6-64.4-555.8-14.5
			c-82.3,22-158.8,58.9-214.7,125.7c-100.9,120.6-114.8,259.3-72.1,405.1c32.9,112.5,109.6,183.9,223.9,213.1
			c36.7,9.4,74.4,13.7,112.3,12.1c17.5-0.7,19,7.9,19.4,21.9c0.4,14.9-2.7,21.3-19.5,21.1c-27.4-0.3-56-7.9-82.1,0.6
			c-68.9,22.7-133.8,53.8-184.7,107.6c-43.1,45.6-67,99.6-64.3,163c3.8,90.7,78.5,138.3,162.7,105c20.9-8.3,40.3-19.2,58.3-32.5
			c50.9-37.4,107.2-64.5,165.9-87.2c117.1-45.4,238.5-76.1,360.9-103c52-11.4,104.3-22,162-34.1c-14.2-8-22.9-13.1-31.8-17.9
			c-99.5-53.4-192.4-116.5-278.9-189c-16.9-14.1-32.8-17.8-53.8-15.3c-52.9,6.2-106,9.8-158.9,15.6c-24.3,2.7-17-15.7-20-27.1
			c-4.3-16.1,6.6-15,17.7-15.9c222.7-17.6,443.6-48.5,662.9-90.4c378.4-72.3,747.4-178,1106.4-318.1
			C2444.7,607.7,2570.5,555,2698.5,494.6z M1296.6,1005.5c6.8,5.3,11.9,9.7,17.5,13.4c72,48.8,148.4,89.3,228.7,122.6
			c20,8.3,39,9.8,59.9,5.5c104.2-21.1,208-44.3,310.9-71c334.8-86.9,657.3-206.8,967.8-359c17.4-8.5,20-15.7,11.7-32.3
			c-30.8-62-75.9-111.2-131.1-152.3c-13.2-9.9-23-9.5-37-3C2285.9,735.2,1829,888.6,1354.8,990.3
			C1336,994.4,1316,995.4,1296.6,1005.5z M2550.8,1615.8c45.7,19.9,86.6,41.7,121.9,72.2c12.3,10.6,19.6,11.3,30.7-1.5
			c40.6-46.7,78.9-94.9,112.7-146.9c49.8-76.5,57.4-159.3,32.8-244.4c-27.6-95.6-99.9-145.5-192.4-166.8
			c-117.6-27.1-236.8-25.4-354.8-3.4c-95.6,17.8-160.8,71.7-181.7,172.3c-23.2,112-0.8,216.2,46.8,317.3c5.2,11.1,11.8,9,20.8,5.3
			c97.5-40,197.5-48.4,300.2-23.6c8.1,2,16.4,4.6,24.1-3c67-66,78-156.5,13.1-224.7c-22.4-23.6-51.9-26.1-80-9.5
			c-21.5,12.7-38,30.4-44.8,54.4c-7.1,25-22.4,13.3-35.6,10c-19.6-5-7.6-17.5-4.4-26.1c12.3-33.5,33.8-60.1,65.4-76.6
			c40.4-21,82.4-22.8,118.3,7.5c51.1,43.1,74,99.5,65.7,167C2603.9,1541.5,2581.5,1579.5,2550.8,1615.8z M805.1,1083.7
			c2.1,3.6,2.8,6.3,4.5,7.6c35.1,26.1,69.5,53.3,105.6,77.9c231.7,158.4,487.3,253.7,765.8,287.1c121.4,14.5,243.2,15.5,365.1,4.3
			c20.4-1.9,28.2-7.3,24.3-29.3c-8.4-47.2-3.2-94.5,7.9-140.5c5.2-21.6,0.2-24.4-19.5-22.7c-91.2,7.6-181.9,0.3-271.7-14.4
			c-197.4-32.4-376.5-109.1-537.4-227.9c-10.4-7.7-19.5-10.2-32.8-7.7c-64.9,12-130.1,23-195.3,33.3
			C949.9,1062.7,878.1,1072.9,805.1,1083.7z M2375.6,1626.3c-28.4-0.6-56.5,2.1-84.5,6.9c-278.9,47.8-430.5,362.4-291.3,605
			c113.1,197.2,366.6,272.3,569.1,168.7c159.4-81.6,251.9-250.9,228-417.7C2766.7,1778.4,2589.1,1625.4,2375.6,1626.3z
			 M1321.7,2058.8c9,4,15.5,1.6,22.1,0c86.9-20.7,144.2-92,150-186.5c13.6-221.4-201.8-385-410.5-311.7
			c-158.1,55.5-242.5,179.6-228.5,337.6c5.3,59.4,28.8,110.8,83.2,140.3c108.2,58.6,219.4,55,329.3,5.3
			c48.1-21.8,65-68.9,47.3-113.9c-14.2-36-39.1-62.3-75.1-77.1c-52.4-21.5-94.6,4.4-99.4,61c-1.7,19.7-19.4,18-30.5,20.8
			c-12.7,3.2-11.4-11.5-12.3-19.7c-5-45.5,25.7-91.3,72.8-106.3c53.1-16.9,98.5,1.9,137.2,37.2c38.2,34.9,61.8,78,56.1,132.2
			C1360.1,2009.8,1344.3,2035.9,1321.7,2058.8z M1665.9,1178.7c2.1,3.1,2.4,4,2.9,4.1c135.8,40.6,274.7,49.4,415.3,41.9
			c10.8-0.6,16.7-5.8,21.8-14.9c34.1-61,86.9-98.2,152.8-118.1c90.3-27.2,183.1-26.2,275.9-23.1c84.1,2.8,165.7,16.8,239.1,61.7
			c13,7.9,19-1.6,26.3-7.9c106.6-92.4,144.5-208.9,121.9-346.8c-3.6-22.1-9.6-26.8-32.2-15.7c-350.3,171.9-715.5,302.1-1095.8,389.6
			C1751.6,1159.3,1709.3,1168.9,1665.9,1178.7z M2586.2,2447.4c-9.4,3.8-16.4,6.7-23.4,9.6c-127.7,52.1-255.3,52.1-382.4-2
			c-39.6-16.9-42.8-15.8-55.7,25.4c-1.8,5.7-3.7,11.5-4.5,17.4c-9.1,67.9,2.8,121.7,79.4,127.3c94.9,6.9,190.2,4.5,285.3,0.6
			c29-1.2,52.4-15,67.2-41C2576.1,2542.8,2583.1,2496.8,2586.2,2447.4z M940.9,1582.4c-49.3,6.4-98.6,12.8-152.1,19.7
			c27.8,38.9,36.8,79.3,48.1,125C861.8,1667.2,898.5,1623.8,940.9,1582.4z"/>
		<path class="st0" d="M2691.5,2002.8c7.8,171.1-91.5,298.2-267.1,340.8c-64,15.5-128.9,20.5-193.8,5.7
			c-44.2-10.1-79.1-34.1-95.6-78.1c-13.8-36.6-4.8-69.1,23.5-96.2c27.8-26.7,62.5-42.4,96.1-59.1c55.1-27.5,63.8-62.5,29.1-120.2
			c-11.8-19.7-27.4-37.4-42.9-54.6c-104.4-116.1-23.9-265.2,109.7-287.3c160.7-26.6,318.3,94.7,334.8,256.7
			C2688.5,1941.2,2690.4,1972,2691.5,2002.8z M2649.8,2002.8c-2.1-27.4-3.6-54.8-6.4-82.1c-14-139.3-136.6-240.2-275.5-225.7
			c-57,5.9-100.4,34.1-123.2,88.2c-21.4,50.9-2.7,93.2,30.8,132.2c19,22.1,38.7,43.8,52.4,69.8c37.6,71.3,20.9,127.6-49.3,166.7
			c-24.7,13.7-50.5,25.9-74.1,41.4c-44.4,29.2-42,75.2,4.7,101.7c11,6.2,23.5,10.9,35.9,13.5c46,9.4,92.4,8.2,138.2-0.3
			C2530.5,2280.8,2655.7,2193.9,2649.8,2002.8z"/>
	</g>
</g>
</svg>
