<?xml version="1.0" encoding="utf-8"?>
<!-- Generator: Adobe Illustrator 23.0.0, SVG Export Plug-In . SVG Version: 6.00 Build 0)  -->
<svg version="1.0" xmlns="http://www.w3.org/2000/svg" xmlns:xlink="http://www.w3.org/1999/xlink" x="0px" y="0px"
	 viewBox="0 0 3000 3000" style="enable-background:new 0 0 3000 3000;" xml:space="preserve">
<style type="text/css">
	.st0{stroke:#000000;stroke-width:10;stroke-miterlimit:10;}
</style>
<g id="Layer_1">
</g>
<g id="Layer_2">
	<g>
		<path class="st0" d="M924.8,932.3c66.7,3.7,158.3,2,248.9,15.7c73.3,11.1,129.6,48.9,169.7,111.3c42.3,65.9,56.3,140.5,66.6,216.2
			c5.1,37.7,9.8,75.4,16.1,112.9c11.1,65.7,59.7,102.8,126.6,98.2c53.7-3.7,75.9-24.9,81.3-80.1c12.3-125.5,54.8-238.5,132.1-339.2
			c70.8-92.4,163.8-141,278.3-147.4c142.3-8,284.6-17.9,427.3-9c53.2,3.3,105.9,9.7,157.6,23.9c139.8,38.3,235.2,126.2,285.7,260.6
			c55.1,146.8,51.6,294.4-9,439.2c-56.3,134.5-163.3,210.6-299,251.2c-57.8,17.3-116.6,29.9-177.1,32.8
			c-53.2,2.5-101.7-10.2-140.1-49.8c-43.3-44.6-45.1-107.9-6.2-156.1c42.2-52.2,95.4-94.4,135.1-148.9c26-35.7,54.4-69.9,71.3-111.4
			c18.5-45.3,9.7-78-34.6-98.2c-92.9-42.2-190-65.6-292.2-40.8c-109.5,26.5-169.5,104.4-171.3,217.2c-0.6,40.1,2.7,80.2-3.5,120.2
			c-11.3,73-46.2,132.7-107.4,172.8c-102,67-215,106.6-336.3,121.1c-107.9,12.9-214.2-0.6-319-25.6
			c-94.7-22.6-158.2-83.9-199.3-170.6c-23.7-50.1-41.9-102.3-62.2-153.7c-23.3-58.9-51.2-115.6-102.3-156.2
			c-40.5-32.2-85.7-51-138.8-37.6c-28.8,7.3-50.7,25-66.5,49.8c-19.6,30.8-17.3,61.9,6.2,92.4c34.5,44.8,79.2,79.1,119.8,117.7
			c18.1,17.2,35.6,34.8,50.1,55.2c42.7,60.3,31,119.1-30.6,160.3c-50,33.4-105.9,40.3-163.2,34.8c-91.5-8.7-183.4-14.2-274.4-28.3
			c-24.6-3.8-48.9-9.1-73.2-14.6c-93.1-21.1-150.4-85.4-184.5-168C23.4,1498,52.6,1310.8,194,1142.4
			c89.8-106.9,207.9-160.9,342.4-186C656.9,933.8,778.3,929.4,924.8,932.3z M922.9,983.2c-114.6-3.6-207.9-0.2-300.8,11.1
			c-25.4,3.1-50.6,7.4-75.7,12.4c-95.8,19.3-186.6,49-261.8,116.1c-173.4,154.5-211.6,364.6-134.1,551.4
			c37.1,89.4,101.3,142.5,200.2,155.4c100.2,13.1,200.5,23.6,301.1,31.5c45.6,3.6,89.8-2.5,127.9-31.8c33.4-25.7,37-49.4,11.7-83.2
			c-20.8-27.8-45.8-51.8-72-74.5c-30.3-26.3-59.9-53.6-86.4-83.7c-25.3-28.8-43.6-61.8-39.7-101.5c7.7-79.3,77.1-140,156.8-140.1
			c75.5-0.1,133.8,34.7,181.8,89.6c43.6,49.8,69.1,109.7,91.6,170.9c16.4,44.8,33.5,89.3,55.1,131.8
			c34.3,67.7,86.6,113.8,161.7,131.7c60.7,14.5,122.2,22.8,184.5,26.8c151,9.7,288.9-33,417.3-108c54.9-32.1,87-83.4,96.3-148
			c5.7-39.4,2.2-78.8,3.1-118.2c2.6-119.1,65.5-211,178.1-249.4c132.4-45.2,258.4-15.9,378,46c37.8,19.6,54.2,57.5,51.4,101.8
			c-2.6,40.3-20.6,74.3-42,106.8c-43.9,66.8-95.9,126.8-153.4,182.3c-11.9,11.5-23.4,23.8-32.9,37.2c-21.8,30.4-18.7,59.3,6.9,86.2
			c27.2,28.5,61.8,35.6,98.9,33.4c80.7-4.9,158.4-23.1,232.8-55.1c99.2-42.6,169.5-113.3,207.3-214.6c46.2-123.8,49-249.1,5-373.8
			c-41.7-118.1-121-200.1-243-236.3c-57.3-17-116.5-23.9-176-26.7c-132.3-6.3-264.3,3-396.3,8.9c-110,4.9-196.1,52.6-260.8,143.2
			c-65,91-100.3,191.5-111,301.8c-7.1,72.3-42.3,109.6-114,121.1c-90.8,14.6-175.9-40.7-192.5-126.8c-7.8-40.6-12.2-82-17.8-123
			c-9.8-71.5-21.2-142.3-62.7-204.1c-31.9-47.6-76-75.5-132.5-83.8C1077.5,985.3,989.4,987.3,922.9,983.2z"/>
	</g>
</g>
</svg>
