<?xml version="1.0" encoding="utf-8"?>
<!-- Generator: Adobe Illustrator 23.0.0, SVG Export Plug-In . SVG Version: 6.00 Build 0)  -->
<svg version="1.0" xmlns="http://www.w3.org/2000/svg" xmlns:xlink="http://www.w3.org/1999/xlink" x="0px" y="0px"
	 viewBox="0 0 3000 3000" style="enable-background:new 0 0 3000 3000;" xml:space="preserve">
<style type="text/css">
	.st0{stroke:#000000;stroke-width:10;stroke-miterlimit:10;}
</style>
<g id="Layer_1">
</g>
<g id="Layer_2">
	<g>
		<path class="st0" d="M2957.8,1326.8c-6.8,135.5-14.1,271.1-20.3,406.6c-6.2,137.6-10.6,275.2-17.1,412.7
			c-5.3,112.7-13.6,225.1-48,333.7c-34.7,109.7-94.6,204.6-175.9,284.9c-129.6,128-300,151.9-465.4,66.4
			c-22.4-11.6-37.8-12.1-58.6,2.8c-47.6,34.2-103.8,45.3-161,49c-71.8,4.6-143.6,3.4-215.2-4.4c-61.4-6.7-112.8-32.1-152.1-80
			c-10.2-12.4-21.6-19.1-37.1-22.1c-120.7-23.3-238.5-15.5-357.8,16.8c-264.6,71.6-507.4,31-718.1-154.7
			c-50.8-44.8-102.7-89.1-165.9-116.3c-23.1-10-45.7-22-72.2-2.8c-16.5,11.9-35.2,0.3-48.3-12.3c-11.3-10.9-21.6-24-28.5-38.1
			C157,2348.3,99.5,2226,68.1,2094.8c-31.4-131.3-44-266.1,14.8-393.2c27-58.3,35.6-110.8,25.7-174.7c-15-96.7,1.3-191.4,66.9-270.7
			c8.1-9.8,1.8-15.4-0.9-23.3c-23.8-71.3-41-145.1-4.8-215.3c20-38.7,20.2-64.6-2.3-102.4c-41.1-68.9-15.5-144.7,58.9-188.5
			c23.9-14.1,24.1-26.3,16.1-49.3c-39.1-112.4-52.9-227.1-23.2-344.1C261.1,169.2,400.1,54,559.5,49.8c50.3-1.3,96.5,10.8,140,36
			c68.9,40,142.9,58.6,223.1,53.9c169.7-9.9,339.2-5,508.2,12.9c64.2,6.8,126.6,19.3,174.1,68.8c7.3,7.6,13.1,9.5,22.6,2.4
			c106.9-80.7,232.5-93.6,360.2-99.3c67-3,133.3,0.7,199,15.4c49.8,11.2,94.7,32.8,130.6,68.7c16.8,16.8,24.2,13.5,38.9-1.4
			c135.9-137,345.8-138.7,484.7-17.4c72.2,63.1,106,145,115.8,239c4.8,46,2.2,91.7,0.8,137.5c-4,130.7-2.5,261.5-1.4,392.2
			C2957.3,1081.2,2963.3,1204,2957.8,1326.8z M277.1,2470.5c13.1-23,24.4-43.9,36.7-64.3c23.5-39.1,41.8-82.2,78.3-112
			c58.3-47.7,161.4-75.6,262-9.3c54.8,36.2,110.7,72.2,174.6,90.5c175.2,50.1,352.2,79.6,533.3,33c20.5-5.3,21.4,5.7,24.2,18.1
			c2.9,12.7,10.3,26.4-12.3,31.2c-75.3,16-150.9,30.4-228.3,23.3c-23.2-2.2-45.6-1.4-68.2,3c-215.6,41.7-422.4,14.8-621.1-78.6
			c-21.6-10.1-43.8-37.6-65-25.9c-18.9,10.3-27.1,40.3-39.9,61.5c-1,1.7-1.9,3.5-2.9,5.2c-5.9,9.5-5.7,15.5,7.1,19.5
			c83.2,26.2,147,82.7,211.7,137.6c82.3,69.8,171.8,128.2,278,152.3c136.5,31,272.9,27.7,407.9-14c88.6-27.4,179.4-37.6,272-26.6
			c21.6,2.6,43.2,4.6,68.4,7.2c-69.8-154.9-43-285.9,89.8-393.4c-15.1-4.8-28.1-8.8-41.1-13c-103.5-33.2-160.9-104-177.6-211.2
			c-12.9-83.2-5.9-165.3,8.8-246.8c11.7-64.8,38.1-123.8,84.4-172.3c9.9-10.4,20.1-20.5,33.2-33.8c-70.5,0-136.6,0-205.8,0
			c8,12.7,14.9,23.3,21.3,34.1c37.5,63.7,36.4,144.1-16.5,187c-48.8,39.5-86.2,85.8-121.6,135.5c-1.1,1.6-2.7,2.9-4.1,4.4
			c-135,140.3-364.6,113.6-475.5-54.9c-6.7-10.2-9.2-24.2-23.1-29.8c-17,64.9-23.9,130.3-21.1,196.4c3.2,78.4,4,78.2,75.1,110
			c70,31.3,141.4,56.9,219.6,43.4c49-8.5,97-22.1,145.6-32.8c70.9-15.5,141.2-38.8,215.2-26c70.2,12.2,127.5,44.6,148.3,117.5
			c20,70.1-7.2,128.9-60.5,173.3c-58.1,48.4-128.3,55.7-201.2,44.7c-5.9-0.9-10.7-1.2-11.4-10c-2.2-27.8,8.5-39.6,36.9-37.4
			c46.8,3.7,92-0.9,132.2-27.4c40.4-26.7,63-64.8,59-113.6c-4.1-50.3-39.9-75.6-83.5-91.6c-21.8-8-44.8-9-67.9-8.4
			c-71.5,2.1-139.4,23.2-207.7,40.9c-91.3,23.7-181.9,36.3-273.1,1.9c-41-15.5-81.2-32.9-120.8-52c-63.7-30.9-127.5-61.4-198.8-71.5
			c-92.4-13.1-170.8,29.5-203.3,113.2c-9.5,24.5-27.2,9.9-40.4,9.7c-20.3-0.3-9.1-16-6.9-24.3c21.5-80,79.5-122.2,155.1-142
			c72.3-18.9,142.4-4.2,210.4,23.2c29.6,11.9,29.9,11.8,27.7-20.7c-5.2-79.4,4.2-157.5,24.2-234c7.7-29.4-1.7-40.4-28.5-45.1
			c-42.1-7.5-83.9-17-126.2-23.7c-24-3.8-16.5-18.7-15.5-32.8c1.2-16.6,6.8-21.6,24.7-17.5c45.6,10.3,92.2,16.4,137.7,27.2
			c16.8,4,20.8,1.3,21.4-14.6c1.9-54.8,4.5-109.7,6.9-164.5c0.4-8.6-0.8-15.6-10.1-19.3c-55.4-21.9-111.4-41.5-176.8-55.8
			c19.1,21.8,33.6,38,47.8,54.5c10.8,12.4,28,20.4,4.9,41.4c-21.5,19.4-28.8,7.3-41-6.6c-27.6-31.5-55.9-62.4-83.6-93.8
			c-6.8-7.7-13.7-14.7-24.3-16.2c-51.6-7-103.1-12-154.4,2.5c-88.7,25.1-138.3,89.9-172.6,169.8c-51.7,120.7-42,244.9-12.3,367.3
			c30.8,127.2,86.7,245.6,143.8,363.1C264.5,2454,270.4,2460.8,277.1,2470.5z M1650.8,499.9c0-13,1-26-0.2-38.9
			c-13.8-151.2-69.7-247.4-231.1-260.6c-153.4-12.5-306.8-19.5-460.5-11.8c-87.2,4.4-171.3-2.7-250.6-41.3
			c-12.8-6.2-22.6-1.9-33.4,3.8c-106.4,55.8-160.9,146.1-170.9,263.4C498.7,477,529,519,589.5,534.4c74.5,19,150.5,29.9,227.9,26.8
			c64.9-2.6,123-32.1,185.1-45.8c75.6-16.7,151-27.6,225.8,5.6c56,24.8,83.5,69.7,78.2,130.8c-4,46-12.2,91-29.3,133.9
			c-5.7,14.3-2.8,19.2,11.7,21.6c65.8,11,131.6,22.2,197.3,34.3c17.1,3.1,27.6-3,38.5-15.2C1608.1,733.4,1653.4,626,1650.8,499.9z
			 M2313.7,1763.1c-1.8-52.7-2.6-111.6-13.9-169.5c-10.7-55.4-28.5-65.4-83.7-55.2c-87,16-174.2,31.2-261.5,46
			c-92.2,15.6-183.9,32.3-269.6,72.4c-72.2,33.8-125.4,85-148.8,162.3c-26.2,86.7-35.9,175.2-23.3,265.7
			c15.8,114.1,72.3,173.6,186,194.1c117.3,21.2,234.3,9.8,351.3-3.9c123.6-14.4,193.6-87.2,224.3-204.2
			C2300.6,1971.8,2312,1871.2,2313.7,1763.1z M1776.9,846.6c-16.4-15.6-29.8-27.2-37.4-44.1c-29.8-66.1-23.6-129.1,20.5-185.8
			c43.9-56.3,104.7-73,173.8-62.5c9.6,1.5,23.3,4.7,15.8,18c-6.3,11.1,3,35.8-24.4,31.5c-22.7-3.6-45.3-3.1-67.8,4
			c-65.8,20.7-99.8,90.5-79.7,158.4c11.1,37.4,45.8,42.1,71.7,57.8c21.7,13.1,43-7.4,64.6-11.9c8.7-1.8,17.1-5.4,25.5-8.5
			c85-31.2,168.6-67.7,261.5-68.8c9.1-0.1,13.9-6.2,20.1-11.2c91.1-75.3,136.6-172,135.4-290.2c-1.4-143.6-75.2-229.9-216.9-251.3
			c-98.5-14.9-196.9-7.9-294.9,6.5c-65.1,9.5-125.2,32.1-179.6,69.4c-11.9,8.1-17.1,14-9.9,30.8c82.1,189.5,57.5,367.2-61.9,533.6
			c-6.5,9.1-17.3,16.1-18.5,29.9C1642,858.1,1707.4,859.2,1776.9,846.6z M2354.8,814.9c89.7-52.7,165.6-16.1,181.3,87
			c1.2,7.8,1,15.9,1.5,23.9c5.1,87.6-4.8,175.6,5.9,263.1c0.8,6.8-6.8,20.3,10.2,18.9c15-1.3,13.6-10.9,10.9-21.6
			c-13.2-53.7-13.4-108.9-14.6-163.5c-1.2-52.6-1.8-105.9,11.2-157.7c16.2-64.6,72.1-99.5,136.7-83.5
			c79.7,19.8,112.3,80.5,126.6,154.2c12.9,66.7,16.7,134.6,20.5,202.1c1.9,33.9,15.1,46.1,46.8,48.5c14.4,1.1,17.7-1.8,16.8-14.6
			c-0.5-7-0.1-14-0.1-20.9c0.4-201.4-10.1-402.8-0.2-604.3c2.3-45.8,2.4-91.5-4.8-137.2c-19.4-123.6-88.8-206.3-206.4-243.1
			c-120.2-37.6-225.8-4.9-314.3,84.4c-12.2,12.3-15.1,22.8-7,39.2c20.2,40.8,27.5,85.1,29.7,130.2c5.6,120-32.8,223.5-117,309.3
			c-13.1,13.3-16.6,20.2,4.1,27.9C2321,767.5,2339,790.3,2354.8,814.9z M1241.9,1222.5c24.9-1.3,49.8-2.6,74.7-3.8
			c6.8-0.3,15.2,1.4,17.6-7.3c1.8-6.5-4.6-10.5-8.5-14.8c-34.7-38.4-75.9-68.4-125.1-84.1c-29.7-9.5-15-25.9-11.4-41.5
			c5.6-24.6,20.9-8.4,29.9-5.2c67.4,24.3,117.8,70.7,167.4,121.5c34.8,35.7,90.4,59.1,135.9,56.9c147.2-7.3,294.2-22.3,441.5-30
			c71.9-3.8,136.4-24.5,199.3-56.4c40.6-20.6,78.3-48.3,124.6-56.3c9.3-1.6,13.3-7,15.5-15.6c6.8-26.1,13.7-52.2,11.7-79.5
			c-2.6-34.7-18.6-48.5-53-44.3c-31.8,3.9-61.9,14.8-92,25.4c-88.1,31-175.2,65.1-269.1,76.1c-130.3,15.3-260.9,10.4-391.6,7.5
			c-118.2-2.6-233.8-20.8-347.5-52.6c-222.5-62.3-450.5-81.6-680.3-86.5c-61.9-1.3-123.5,5.9-182.2,27.9
			c-53.8,20.2-88.6,57.6-96.8,115.2c-5.7,39.8,0.1,79.5,11.2,118.3c4.1,14.3,8.9,17.1,22.1,7.9c98.7-69.4,210.9-91.3,329-90.2
			c102.3,0.9,201.9,21.2,301,44.4C990,1184.3,1113.2,1218.8,1241.9,1222.5z M1026.9,1556.4c-14.9-4-22.5-6.2-30.2-8.1
			c-193.5-47.6-356.4-146.3-489.8-293.8c-5.7-6.3-18-11.4-9-24.5c15.7-22.8,31.9-24.6,50.5-4.1c122.7,135,272.6,225.3,449,271.3
			c71.6,18.7,144.1,29.7,218.7,22.4c13.4-1.3,16.7-7.5,20.5-16.7c25.8-62.7,71.1-96.1,140.4-96.7c39-0.3,74-14.8,104.1-39.8
			c22.6-18.8,24.7-36.3,7.3-59.7c-27-36.5-63.6-53.8-109-49c-29.7,3.2-58.9,11.6-88.6,13c-124,6.1-243.7-21.1-363.2-49.2
			c-116.4-27.4-232.3-58-352.9-60.5c-108.7-2.3-211.4,17.1-305.5,76.7c-118.2,74.9-131.5,240.5-101.6,329.3
			c75.4-73.8,167.9-88.8,266.7-76.6c104.2,12.8,205.7,38.6,302.4,79.3C834.2,1610.8,927.2,1596.7,1026.9,1556.4z M516.9,881.9
			c174.3,8,348.5,18.6,519.7,55.4c93.4,20.1,185.7,45.7,279.2,65c127.9,26.4,258.3,18.3,387.8,21.6c146.1,3.6,287.8-17.5,423.9-73.9
			c53-22,107.7-43.6,167.7-36.4c7.9,1,11.7-1.3,15-9.8c15.4-39.7,1.8-79-35.6-99.7c-28.9-16-60.1-19.8-92.5-18.3
			c-67,3-128.8,27-189.4,51.7c-166.3,67.6-336.2,81.1-513.4,54.8c-178-26.5-350-75.5-523.6-119.6c-179.7-45.7-361.7-72.6-547.9-51
			c-60.9,7-120.4,18.4-170.4,57.3c-38.5,30-47.7,70.9-26.6,114.4c20.1,41.4,20,41.3,62,23c8.2-3.6,16.7-6.5,25.3-9.1
			C369.5,885.7,442.8,880.8,516.9,881.9z M2871.7,2089.4c1.6-31.9,3.3-63.7,4.9-95.6c3.5-69.2,3.3-68.6-63.9-85.2
			c-23.6-5.8-33.1-3.3-32.4,25.1c2.5,92.7,0.1,185.4-9.5,277.8c-4,38.6-12.4,76.1-50.1,96.6c-66.8,36.2-166.6-11.4-178.4-85.7
			c-14.5-91.6-2.5-182.9,8.3-274c0.9-7.5,12.8-21.4-5.5-22.3c-14.7-0.7-14.7,12.1-14.5,24c0.6,32.9,2.4,66-0.1,98.7
			c-4.8,63.7-12.3,127.2-46.5,183.6c-43.4,71.5-159.8,105-219.3,6.3c-2.8-4.7-5.7-14.7-11.5-10.4c-13.5,10-27.1,21.5-36,35.3
			c-6,9.4,8.4,16.1,14.5,23c124.5,142.2,128.4,362.4,19.7,481.2c-10.2,11.2-6.3,15.7,5.3,21.2c114.5,54.2,229.3,63.5,338.8-8.7
			c115-75.8,187-186.1,229.1-315.6C2864.3,2343.1,2866.1,2215.8,2871.7,2089.4z M2101.5,1241.9c-97.6,28.1-194.8,23.5-290.7,31.3
			c-80.5,6.5-161,12.8-241.5,19c-17.3,1.3-30.1,2-22.7,27.4c9.5,32.7-5.5,60.7-29.9,82.6c-41.1,36.9-91.2,53.9-144.9,55
			c-47.8,1-72.7,26.6-89.5,66c-2.6,6.1-4.9,14-3.2,19.9c4.8,15.9,67.8,56.3,85.8,56.5c74.8,0.7,149.7-0.4,224.4,2.4
			c60.6,2.3,118.8-2.8,174.6-28.4c16-7.3,34.2-10.7,51.7-14c117.3-21.5,234.8-42.2,352.1-63.9c72.1-13.3,136.4-83,141.9-156.6
			c4.1-55.7,0.6-111.5-5.6-167.1c-2.2-19.7-11.2-24.3-28-15.9c-28.5,14.2-56.3,29.9-85.4,42.8c-18.9,8.4-28.4,21.6-35.6,40.6
			c-51.8,136.3-150.7,219-291.4,254.1c-25.5,6.4-33.8-2-34.3-27.2c-0.3-16.9,7.5-18.6,20.7-21.6
			C1965.2,1418.6,2049,1353.2,2101.5,1241.9z M1920.8,2835.3c22.9,0,45.9,0.8,68.8-0.1c113.5-4.8,208.2-47,258.5-153.1
			c60.6-128,34-248.1-50.3-358.3c-17.5-22.8-33.6-37.2-63.1-18.1c-11.1,7.2-26.3,9.1-40,11.2c-17,2.6-21.2,9.7-20.8,27.6
			c1.8,74.5-43.7,137-114,152.2c-75.9,16.3-124.9-1.7-143.6-79.7c-4.4-18.3-8.9-37.2-8.8-55.8c0.1-19.7-8.1-23.2-24.9-22.8
			c-10.5,0.3-19.3,3.4-28.1,7.9c-141.1,72.2-186.6,214.7-114.1,355.9c34.4,67,80.3,119,161,127.2
			C1841.1,2833.4,1880.9,2836.5,1920.8,2835.3z M636.9,113.1c-36.8-14-65.7-17.1-101.1-12.1c-141,20.2-249.3,127.6-274.2,270.5
			c-15.6,89.4-6.1,176.8,18.6,263.2c15.3,53.4,15.6,54,69.1,44.9c172.9-29.4,343.9-13.9,514,20.9c111.2,22.7,220.8,52,329.4,84.9
			c20.6,6.2,32.2,4.2,39.2-19c12.7-42.2,22.4-84.7,24.6-128.8c1.4-28.7-10.3-50.4-35.5-64c-17.6-9.5-36-16.8-56-20.2
			c-70.2-12.1-138.4,1.6-202.4,26.3c-130,50.2-259.1,34.4-388,2.4c-76.3-18.9-116.5-74-121-152.1c-1.6-27.2,2.4-53.8,9.1-80
			C488.6,248.9,544.7,169.5,636.9,113.1z M1194.7,2005.8c35.7-24.6,58.3-52.7,74.3-86.4c11-23.3,27.6-40.5,50.5-53
			c64.4-35.2,80.7-97.1,41.4-159.2c-27.9-44.1-62.7-82.5-103.3-115.4c-24.4-19.8-51.8-27.6-83.8-22.3
			c-48.4,8.1-95.6,20.4-140.9,38.8c-72.6,29.5-147.5,41.9-225.4,33.4c-14.5-1.6-19,1-19.4,16.1c-0.9,41.9-1.9,83.9-5.9,125.5
			c-4.6,47.4-4.9,92,35.9,126.2c5.8,4.8,8.2,13.6,12.5,20.3c63.2,97,181,144.4,285.5,114.8c11.9-3.4,25.4-4.3,26.2-22.9
			c1.4-32.9,4.1-65.9-1.5-98.6c-8.6-49.8-38.7-71.9-88.9-66.8c-26.3,2.7-50.4,10.3-71.7,27.1c-20.7,16.4-27.1-7.7-37.7-16.2
			c-13.2-10.6,0.2-17.3,7.2-22.8c43.3-34,92.2-45.6,146.2-35.1c48.4,9.4,76.1,40.4,89,86.4
			C1194.5,1929.8,1196.1,1964.6,1194.7,2005.8z M2358.6,1643.6c9.2,0.5,12.8-6.6,18.1-10.7c147.1-115.3,313-157.6,496.9-125.1
			c24,4.2,26.9-3.1,27.4-22.4c1.9-67.8,4.8-135.5,6.9-203.3c1.4-44.5,1.2-45.7-43.4-50.9c-244.2-28.4-445.4,39-577.5,260.3
			C2352.4,1523.5,2346.9,1587.8,2358.6,1643.6z M2344.7,1985.6c8.8-6.1,12.9-8.6,16.6-11.5c148.1-118.3,313.1-156.1,496.7-103.8
			c16.6,4.7,22.4,1.9,23.3-16.5c4-89.7,8.9-179.3,14.6-268.8c1.2-18.3-5.6-23.7-22.4-26.7c-189.3-34.1-355.2,12.4-497.4,142.5
			c-8.4,7.7-13.9,15.7-13.4,28.2C2366,1812.8,2358.7,1896.1,2344.7,1985.6z M2599.9,1015.8c4,49,0.1,100.2,11.5,150.2
			c2.2,9.8,0,26,20.3,21.1c49.7-11.9,100.4-15.2,151.4-14.7c8.9,0.1,15.9-1.3,14.5-13.1c-9.9-81.9-7.6-165.5-30.2-245.7
			c-9.1-32.4-27-59.6-58.6-75.8c-47.8-24.6-87.7-6.9-100.2,45.3C2598.3,926.2,2604.1,970.5,2599.9,1015.8z M2364.6,1312.2
			c41.3-28.8,78.4-55.6,120-74.7c12.4-5.7,11.3-15.3,10.2-25c-9.9-90.4-3.9-181.2-5.8-271.8c-0.4-21.1-2.6-41.8-10.7-61.4
			c-12.8-31.2-41.2-49.3-63.8-41.2c-31.8,11.3-73.4,86.1-61.4,117.1c17.5,45.5,12.2,89.7,0.7,134.6c-3.2,12.5-10.5,26.3-7.7,37.4
			C2361.4,1186.6,2356.4,1247.8,2364.6,1312.2z M2730.1,2030.2c0-36.9-0.6-73.8,0.3-110.7c0.4-16.4-4.7-24.5-22-22.9
			c-26.8,2.5-53.6,4.4-80.3,6.8c-12,1.1-19.4,6.2-21.8,19.7c-15.8,88.6-24.6,177.9-18.6,267.7c3.9,58.1,28.7,76,88.2,76.3
			c21.9,0.1,34-8.9,39-28.7c3.4-13.5,6-27.3,7.5-41.1C2728.4,2141.8,2729.7,2086,2730.1,2030.2z M2482.4,2011.5
			c0-12.9-0.3-25.9,0.1-38.8c0.4-14.8-5.6-17.8-17.7-10.2c-73.9,46.6-144.4,96.1-166.3,188.7c-8,33.7,3.2,61,27.2,83.2
			c22.5,20.8,48.6,18.9,75.2,7.4c32.1-13.8,47.6-41.1,57.8-71.9C2475.6,2118.6,2480.7,2065.2,2482.4,2011.5z M423,2330.5
			c151.7,84.1,307.2,125.1,474.7,119.3c-75.3-19.4-147.3-46.4-213.7-87.2c-27.1-16.6-54.3-33.2-82.2-48.5
			C541.7,2281.4,485,2294.8,423,2330.5z M1987,2332.7c-29.8,1.9-59.5,4.3-89.3,5.5c-43.8,1.7-43.9,1.4-37.2,45.8
			c1.2,7.8,2.8,15.6,5.1,23.2c11.9,38.5,31.6,50.6,71,44.3c42-6.8,76.3-38.2,84.9-77.9C2029.7,2335.7,2025.7,2331,1987,2332.7z"/>
		<path class="st0" d="M365.8,1721.2c33.6-0.2,57.6,22.6,57.1,54.2c-0.5,29.7-25.6,54-56.1,54.3c-31.2,0.3-57.8-25.8-57.3-56.2
			C310.1,1743.2,333.6,1721.3,365.8,1721.2z"/>
		<path class="st0" d="M1909.8,2028c-77.9,0.8-138.7-58.3-139.7-135.8c-1-77.8,59.3-141.1,135-141.6c81.5-0.5,144.3,59.3,145,138.2
			C2050.9,1966.5,1989.7,2027.1,1909.8,2028z M1999.3,1889.8c0.1-49.6-38.8-89.4-88.1-90.2c-50.2-0.8-91.9,40-92,89.9
			c-0.1,48.9,39.6,89.1,88.7,89.7C1959.7,1979.9,1999.2,1941.2,1999.3,1889.8z"/>
		<path class="st0" d="M1748.1,2551.7c0.8-30.9,28.4-56.7,59.1-55.1c30.2,1.6,54,27.1,53.4,57.4c-0.6,32-25.8,55.4-58.5,54.3
			C1772.1,2607.2,1747.4,2581.4,1748.1,2551.7z"/>
		<path class="st0" d="M2047,2632.4c-29.6-0.7-54.8-26.6-54.4-56c0.4-31.2,25.4-53.7,59.1-53.1c31,0.5,54.9,24.7,54.3,54.9
			C2105.3,2609,2079,2633.2,2047,2632.4z"/>
	</g>
</g>
</svg>
