<?xml version="1.0" encoding="utf-8"?>
<!-- Generator: Adobe Illustrator 23.0.0, SVG Export Plug-In . SVG Version: 6.00 Build 0)  -->
<svg version="1.0" xmlns="http://www.w3.org/2000/svg" xmlns:xlink="http://www.w3.org/1999/xlink" x="0px" y="0px"
	 viewBox="0 0 3000 3000" style="enable-background:new 0 0 3000 3000;" xml:space="preserve">
<style type="text/css">
	.st0{stroke:#000000;stroke-width:10;stroke-miterlimit:10;}
</style>
<g id="Layer_1">
</g>
<g id="Layer_2">
	<g>
		<path class="st0" d="M2812.3,1506.7c0,230.2,6.1,460.5-1.4,690.4c-12,367.8-313,691.8-677.2,740.5c-48.6,6.5-97.3,9.8-146.3,9.8
			c-336.4,0.1-672.8,0.8-1009.2-0.2c-237.2-0.7-438.8-87-599.9-261.8c-133.6-145-207.2-318.1-208.9-515
			c-3.7-442.6-5.8-885.3,0.2-1327.8c5.8-432,361.3-773.9,800.9-777.4c346.8-2.8,693.6-2.3,1040.4,0.1
			c397.3,2.7,716.9,271.5,791.3,661.1c9.8,51.3,12.1,103.3,12.1,155.5c0.1,208.3,0,416.6,0,624.9
			C2813.7,1506.7,2813,1506.7,2812.3,1506.7z M219.9,1506.1c0,204.2,0,408.4,0,612.5c0,49,3.2,97.7,10,146.3
			c47,337.6,357.8,622.1,697.4,627.1c365.6,5.4,731.3,2,1096.9,1.9c29,0,58.2-2.8,87.1-6.3c363.8-43.6,650.4-366,650.5-731.7
			c0.1-428.1,0-856.3,0.1-1284.4c0-32.3-1.6-64.4-5.2-96.6c-40.5-365.9-364.5-656.9-732.5-656.9c-353.1-0.1-706.3,0.2-1059.4-0.1
			c-116.7-0.1-228.1,24.5-330.5,79.5C364.6,342,225.6,569.1,220.6,874.8C217.1,1085.2,219.9,1295.7,219.9,1506.1z"/>
		<path class="st0" d="M2636.7,1478.7c-6.1,153-4.1,306.2-12.5,459.1c-12.9,235.2-92.9,446.8-228.4,637.7
			c-52.2,73.6-130.4,111.1-214.7,136.8c-97.4,29.6-197.6,41.1-298.8,43c-240.7,4.7-481-0.2-720.8-24.5
			c-220.6-22.3-415.6-98-559.2-274c-119.4-146.4-195.8-315.2-220.9-502.4c-27.8-207.7-43.5-417.8-12.3-625.9
			c54-360.2,200.6-672.9,502.2-895.3c142.9-105.4,306.6-154,483.2-166.2c122.5-8.4,244.7-21.4,367.8-17.7
			c127.4,3.9,252.7,20.6,375,58.5c233.9,72.6,375.4,239.5,470.6,455.6c57.7,131,68.6,269,68.7,409.2
			C2636.8,1274.6,2636.7,1376.6,2636.7,1478.7z M2581.1,1482.1c0.7-135.4,3.5-270.8,0.8-406.2c-2.3-115.5-28.5-224.6-78.3-327.9
			c-83.6-173.4-200.8-313-389.6-379.1c-101.9-35.7-206.7-54.5-314-63.6c-150.3-12.8-299.5,3.3-449,14.1
			c-169.1,12.2-325.2,61.4-460.9,164.1c-271.7,205.8-404.5,492.4-465.5,818.2c-25.3,135-15.9,271.9-12.5,408.3
			c4.9,197.6,35.8,388.3,131.7,565.7c107.1,198.1,262.8,330.2,484.4,379.9c116.2,26,234.7,34,353.3,39.6
			c212.3,10.1,424.7,21,636.7-2.5c168.3-18.6,312.3-74.4,397.2-239.6c78.4-152.7,140.3-308.2,153.3-480.7
			C2581,1809.1,2580.2,1645.6,2581.1,1482.1z"/>
		<path class="st0" d="M2443.1,1639c8.2,135.4,12.9,270.8-0.1,405.9c-9.2,95.9-26.6,189.7-72.9,275.7
			c-57.8,107.5-152.2,171.5-261.7,216.2c-90.4,36.9-184,58.3-282.4,57.2c-214.5-2.4-429.2-3.4-642.8-25.2
			c-262.7-26.8-441.9-173.3-558.4-402.7c-59.3-116.8-82.4-244.1-89.6-374c-8.8-157-16.7-314.9,8.4-470.7
			c44.6-277.4,163.3-516.8,385.4-696.3c129.3-104.5,282.3-149.8,445.6-171c151.5-19.6,301-12.5,450.3,13.8
			c72.8,12.8,143.2,35.1,213.2,59c203.3,69.6,315.4,216.6,354.1,422.2c30.4,161.6,49.3,325,51,489.8
			C2443.7,1505.8,2443.1,1572.4,2443.1,1639z M2369,1438.5c22.5-15,22.5-15,21.4-39.1c-6.2-145.8-21.8-290.7-48.3-434
			c-35.1-190.2-136.4-326.2-325.7-391c-224.9-77-453.4-99.9-688.4-61.5c-202.4,33.1-372.7,122.6-500.9,284.3
			c-133,167.6-213.3,358.2-239,571.2c-1.5,12.7,1.5,22.1,10.3,30.8c31.8,31.5,63,63.6,98.3,91.5c13.8,10.9,22.7,9.7,33.6-3.5
			c59.7-72,98.4-150.1,89.3-248.2c-4.8-52.1-15.8-102.6-23.9-153.9c-6.4-40.7,11-67.5,49.5-77.7c54.5-14.4,114.7,20.9,129.2,75.5
			c9.3,35,7.7,70.3,2.5,105.4c-18.7,125.8-55.3,247.1-96.1,367.1c-9.3,27.4-2.9,35.6,23.6,41.2c47.8,10,95.8,18.6,144,26.7
			c18.1,3,28.2-3.2,38.1-18c56.3-84.4,92.4-176.7,110.6-276.2c9.6-52.3-6.3-94.6-52.2-123.7c-24.6-15.6-50.5-29.3-73.9-46.4
			c-38.7-28.2-38.4-72.5-0.9-102.3c64.6-51.5,145.4-42.2,194.3,25c46.1,63.4,68.3,135.5,62.5,214.2c-8,107.3-32,211.6-66.4,313.2
			c-9.8,28.9-1.7,34.5,24.4,33.6c20.8-0.7,42-1.6,62.4,1.7c67,11.1,120.9-53.1,126.1-104.2c14.7-144.5,22.1-287.3-81.8-409.4
			c-33.7-39.6-21.3-83.8,22.6-112c60.9-39.2,126.8-21.7,160,44.5c36.7,73.2,45.1,153.3,49.8,233.5c6.3,107.2,3.3,214.4-5.8,321.4
			c-1.9,22.5,3.2,31.9,28.2,30.1c69.6-5,139.4-3.4,209-10.5c16.1-1.7,21.6-7,23.3-21.4c11.5-95.3,18.8-190.7,7.7-286.6
			c-4.9-42.4-23.3-71.5-66.2-89.1c-56.8-23.3-88.4-71-97.4-131.9c-5.7-38.8,7.5-57.1,46.3-63.4c53.3-8.6,101.1,6.7,143.9,38.3
			c61.8,45.6,94.8,109.5,111.6,182.5c23.2,101,30.9,203.7,28.9,307c-0.5,26.9,6.5,30.7,29.5,20.5c35.1-15.6,70.9-29.9,106.6-44.1
			c12.5-5,16.8-12.7,16.2-26.1c-1.8-36.5-6.1-72.7-14.2-108.2c-20.9-91.1-54-175-136.9-229.8c-16.1-10.7-29.4-26.5-41.8-41.8
			c-14.4-17.6-14.2-37.9,2.5-53.5c32.6-30.4,69.7-52.6,116.3-53.4c62.1-1,99.5,37.9,130.4,83.9
			C2325.6,1215.4,2363.7,1319.9,2369,1438.5z M1586.5,2043.9c58.4,122.5,44.1,226.8-39.2,297.9c-75.8,64.7-187.4,72.7-267.1,19.5
			c-52.8-35.3-87-83.6-98.6-146c-11.6-62.5,2.1-121,38.7-175.9c-101.8,6.7-186.7-19.5-234.6-109.8c-54.5-102.7-13-185,78.8-255.9
			c-190.9-9.8-347.6-77.6-475.5-210.1c-9.5,15.4-7,28.2-7.5,40.3c-4,92.7,0.1,185.4,5.1,277.9c7,127.8,28.5,253.3,87.9,367.7
			c110.8,213.6,280.1,347.1,526.5,369.4c203.5,18.4,407.6,20.4,611.6,23.8c86,1.4,169.3-13.8,250.1-43.5
			c149.9-55.1,262.9-145.9,303.1-308.8c13.5-54.7,22.1-110.1,26.7-166.2c14.2-174.9,3.5-349.7-0.5-524.6c0-1.4-2.3-2.8-5.7-6.6
			c-188.1,134.5-397.9,206.3-637.4,200.8C1900,1839.9,1791.3,2042.6,1586.5,2043.9z M1401.2,2343.1c95.2,0,171-75.1,171.3-169.5
			c0.3-94.9-76.9-170.9-173.5-170.9c-94.1,0-168.9,76.1-168.7,171.6C1230.6,2269.3,1305.4,2343.2,1401.2,2343.1z M1598.3,1988.1
			c39.4,0,69-8.1,100.8-27.6c90.9-55.6,93.4-170,5.2-229.3c-67.1-45-161.8-41-224.8,9.5c-65.8,52.7-70,141-9.1,198.9
			C1506.1,1973.6,1549.4,1988.6,1598.3,1988.1z M1181.5,1988c90.6-0.4,163.6-61.1,167-138.8c3.3-73.7-60.6-137.7-148.1-148.3
			c-85.2-10.3-170.1,45.4-183,120.1C1002.1,1910.7,1078.5,1988.5,1181.5,1988z M2257.4,1509c59.2-22.3,64.3-30,58.5-87.7
			c-1.3-12.4-2.4-24.9-4.3-37.2c-14.3-93.3-50.3-177.9-107.1-253c-35.4-46.7-70.9-54.2-116.7-30.1c-31.6,16.6-33.4,20.6-4.2,40.5
			c87.3,59.6,130.2,145.8,154.3,244.9C2247.7,1426.8,2252.7,1467.7,2257.4,1509z M1479.6,1648.2c19.3,0,34.1-1.8,48.2,0.4
			c30.7,4.8,38.3-8.8,39.9-37.5c5.1-89.5,8.4-179,6-268.5c-2.2-80.1-8.4-160-37.5-236.1c-6-15.6-12.4-31.1-24.8-42.9
			c-19.5-18.5-50.4-16.7-74,2.8c-24.7,20.4-4.5,34.8,6.4,49.5c43.3,58.6,79.4,121.3,83.1,195.5
			C1532.6,1424.4,1553.4,1540.3,1479.6,1648.2z M1999.8,1530.7c1.5-69-5.6-126.8-13.9-184.6c-9.1-63.2-21.5-125.3-61.1-177.8
			c-32.1-42.4-72.5-71-128-73.4c-17.1-0.7-26.7,3-19.9,22.8c12.7,37.4,35.2,65.8,73.1,79.9c46.1,17.1,72,50.9,82.2,98.1
			c6.6,30.6,10.1,61.5,10.8,92.8c1.6,71.9-1.4,143.6-11.3,214.9c-1.1,7.9-5.2,21.5,1.9,23.1c18.1,4.1,36.4-2.8,54.6-6.5
			c13.2-2.7,11.6-12.8,11.6-21.9C1999.9,1572.3,1999.8,1546.2,1999.8,1530.7z M1134.6,1627.6c59.6,16.6,59,16.2,77-36.4
			c29.1-84.9,47.1-172.3,60.1-260.7c12-81.2-1.8-157.8-54.2-223.7c-29.8-37.5-73.7-41.3-110.6-13.1c-13.4,10.2-15.3,18.3,0.2,27.6
			c22.3,13.3,44.9,26.1,66.5,40.5c64.2,42.7,88.2,103.1,74.3,178c-9.1,49-22,97-40,143.8C1188.7,1533.9,1162.9,1581,1134.6,1627.6z
			 M760.2,1534c12.5,7.5,24.5,13.8,35.5,21.4c21.2,14.7,29.3,8.2,36.9-15.7c30.9-97,59.5-194.5,81.6-293.8
			c10.6-47.4,21.4-95.4,10.8-144.9c-5.6-25.9-22.2-39.2-46.8-43.6c-21.2-3.8-35.5,1.4-29.9,27.8c5.8,27.3,11.9,54.6,16.4,82.2
			c19.3,118.5,7.6,230.1-74,326C780.1,1505.9,770.9,1519.7,760.2,1534z M1389.9,1776.9c10.8-33.8,34.4-51.6,51.2-77.5
			c-38,0-72.1,0-110.9,0C1355.8,1722,1371.9,1745.7,1389.9,1776.9z"/>
	</g>
</g>
</svg>
