<?xml version="1.0" encoding="utf-8"?>
<!-- Generator: Adobe Illustrator 23.0.0, SVG Export Plug-In . SVG Version: 6.00 Build 0)  -->
<svg version="1.0" xmlns="http://www.w3.org/2000/svg" xmlns:xlink="http://www.w3.org/1999/xlink" x="0px" y="0px"
	 viewBox="0 0 3000 3000" style="enable-background:new 0 0 3000 3000;" xml:space="preserve">
<style type="text/css">
	.st0{stroke:#000000;stroke-width:10;stroke-miterlimit:10;}
</style>
<g id="Layer_1">
</g>
<g id="Layer_2">
	<g>
		<path class="st0" d="M2730,1163.8c129.3,82.8,178.3,201.9,182.2,347c4.2,156.1,11.3,312-6.9,467.7
			c-10.6,91.1-31.2,179.7-63.9,265.6c-49.3,129.6-142.8,217.9-261.6,283c-120.3,65.9-249.1,105.4-384.8,122.4
			c-17.2,2.2-26.7,6.1-30,25.9c-5.1,30.8-26.9,48.9-58.1,49.9c-69.8,2.2-139.8,4.7-209-6.6c-19.4-3.2-36-0.6-53.8,3.5
			c-125.6,29.4-250.9,61.1-379.8,73c-178.9,16.6-349.4-14-510.5-94.3c-17.4-8.7-28.1-16.8-40.7,10.1c-20.7,44.1-65.4,63.5-110,62.1
			c-132.7-4.2-266.9,20.4-398.1-16.4c-153.7-43.1-265.8-131-296.8-294.9c-41-216.8-0.8-420.2,117.6-606.9
			c13-20.4,12.9-28.5-7.1-44.6c-87.6-70.4-110.5-169-111.5-275c-0.3-26,16.3-40.8,43.3-42.1c46.1-2.2,92.3-5.8,138.4-6.4
			c23.1-0.3,30.6-7.1,26.9-30.6c-10.4-66,1.9-124.8,62.5-167.5c-60.3-36.3-99.2-85.4-113.7-152.2c-2-9-4.8-18.5-3.6-27.3
			c1.5-11.6-12.1-32,13.3-32.2c18-0.1,35.6-2.7,37.9,28.5c6.6,88,71.2,146,168.4,158.7c68.5,9,137.1,9.5,206,7.4
			c19.4-0.6,27.3-7.3,28.6-26.4c2.3-36.7,6.2-73.3,10-115.9c-45.1,31.6-90,48.9-140.3,51.5c-118.6,6.2-191.4-80.5-164.9-196.8
			c13.2-58.1,47.1-104.1,85.5-147.5c64.7-72.9,144.8-127.1,223.5-182.9c15.5-11,29.5-70.7,19.5-86.3c-7.1-11.2-16.5-3.5-24.5-1
			c-70.6,22.1-132.6,59.5-189.5,106c-55.2,45.1-103.2,97-144.5,155.1c-11.4,16-20.7,33.1-22.5,53.2c-0.7,7.7-1.9,14.7-10.1,17.1
			c-11.3,3.4-22.6,14.9-34,7.8c-10.3-6.4-7.4-20.5-6.8-31.6c1.7-28.7,14.5-53.4,31.1-75.9c98.7-133.4,218.1-239.6,381.4-287.2
			c15.6-4.6,28.1-56.3,16.2-67.9c-7.2-6.9-15.5-0.6-22.8,1.4c-236,64.5-399.4,210.1-489.4,438c-4.4,11.1-1.5,30.4-26.7,22.5
			c-24-7.5-32.2-13.9-21.5-40.9C283.9,614.7,463.8,458.6,722,391c11.3-2.9,24.1-0.7,26.7-18.9c3-21.2,2.8-30.7-24.6-28.5
			C398.7,369.7,156.7,603.2,121,928c-4.6,41.8-4.4,84.3,0.7,126.1c2.3,19.1-1.9,25.9-21.2,26.7c-17.1,0.7-28.1,1.6-30.8-21.4
			C37.5,777.7,192.3,494.5,449.9,366.1c97-48.4,200.4-67.4,308.2-77c74.8-6.7,148.4-11,222.8-4.2c8.2,0.7,17.2-0.8,24.4,2.2
			c43.8,18.2,84.1,6.7,126.3-8.4c132.7-47.3,271.2-51.4,410.3-50.6c103.8,0.6,207.4,0.8,308.6,28.7c44.7,12.3,87.5,29.4,126.7,54.4
			c12.3,7.8,19.5,10.2,27.8-5.9c12.8-24.7,34.3-32.6,63.4-33.6c81-2.5,162,1,243.1-3c118.8-5.9,235.8,10.9,346.1,58.4
			c127.9,55,198.4,157,220.7,290.9c17,102.3,23.2,206.1,5.1,309.6C2866.2,1026.8,2815.9,1105,2730,1163.8z M2867.1,1709
			c-5.7-92-1.8-176.4-11.5-260.2c-12.4-107-64.7-188.5-157.6-243.5c-11.8-7-23-11.1-37.5-5.1c-125.5,52-255.5,56.1-387.1,31.7
			c-23.7-4.4-25.5,5.2-27.4,22.6c-5.1,46.9-12.1,93.6-16.6,140.5c-6.5,67.3-10.9,52.9,48.4,51.8c18.5-0.4,36.9-2.4,55.4-2.4
			c50.3,0,101-3.4,150.8,1.9c141.1,15.2,248.2,126.3,273.7,276.3c17.2,101.6-0.6,199.7-22.4,298.4
			c-30.3,137.4-103.8,237.8-233.4,297.7c-106.4,49.2-214.8,92.3-328.2,121.9c-19.8,5.1-26.7,13.1-26.4,33.1
			c0.5,35,1.8,69.7,5.6,104.5c2,17.8,7.8,24.3,27.5,21.8c128.5-16.1,250.1-52.9,365.4-112.7c141-73.1,232.5-183.3,274.1-337.8
			C2859.3,2002.1,2866.9,1852.2,2867.1,1709z M2841.7,772.8c-3.2-37.5-5.6-77.4-10.1-117.2c-16.6-148.9-92.6-251.3-237.3-298.2
			c-26.2-8.5-53.3-14.9-80.4-20.1c-67.6-12.9-135.7-22.3-204.8-17.2c-8.4,0.6-23.7-4.2-18.7,14.5c12.7,47.3,12.7,95.4,8.6,143.6
			c-1.5,17.4,5.1,20.3,21.3,18.5c37.8-4.2,75.8-5.1,113.8-2.3c70.1,5,129.1,32.1,171.9,89.2c44.9,59.9,67.3,127.4,71.9,202.6
			c6.5,108.6-120.2,297.7-255.9,325.5c-46.2,9.5-92.3,19-139.3,22.3c-16.1,1.1-23.6,5.3-24.8,22.8c-1.4,18.6,7.9,21.7,22.7,24.4
			c87.7,16.3,175.7,19.4,263.1,1.2c104.5-21.8,197.3-64.8,253.5-162.3C2840.7,944.2,2843.2,860,2841.7,772.8z M2125.3,924.4
			c0.2,151,9.7,301.8,13.8,452.7c3.2,118.9-12.2,235.3-56.8,346.8c-21.3,53.3-38.9,108.1-51.7,164c-58.3,255-45.6,511.8-18,768.9
			c2.4,22,17.7,20.7,31.3,18.4c24.1-4.1,54.6,16.8,71.3-15.3c3.9-7.6-0.6-20.1-2.5-30c-2.6-14.1-7.8-27.8-9.6-41.9
			c-15.2-120-3.2-240.1,3.3-359.8c9.9-184.4,19-369,40.2-552.7c17.7-152.8,34.8-305.6,52.8-458.3c14.3-122.3,28.2-244.7,34-367.8
			c4.2-90.2-4.6-180.6,5.5-270.8c6.4-57,9.8-114.6,10.2-171.9c0.5-75.8-9.8-84.3-84.2-84.5c-3.1,0-6.2,0.3-9.2-0.1
			c-15.7-2.2-20.8,3.6-21.4,20.1C2126.8,536.3,2125,730.3,2125.3,924.4z M772.9,2435c0,88.3-0.2,176.6,0.3,264.9c0,8.8-6,21,9.7,25
			c47.6,12.1,102.2-36.6,89.4-83c-15.9-57.5-15.1-115.7-14.5-174.1c1.5-142.7,11-285.1,20.1-427.5c8.5-134.1,18.2-268.2,32.4-401.8
			c14.4-135.5,34.3-270.5,53.2-405.4c26.1-185.7,37.5-373.2,71.3-558.1c17-92.8,23.6-187.3,15.3-282.1c-3.5-39.7-9.4-47.8-48.1-53.7
			c-13.2-2-26.5-2.7-39.6-4.9c-26.1-4.4-32.2,6.5-31.9,31.8c1.7,166.3,2,332.7,2.2,499c0.1,79.3-8.7,157.6-33.6,233.3
			c-20.8,63.4-38.4,127.1-40.4,194.7c-4.2,139.5-11.6,279-12.7,418.6c-0.4,48.1-2.5,96.7-10.2,144.1c-12,73.7-31,146.2-44.2,219.8
			C770.3,2194.5,778.1,2315.1,772.9,2435z M2346.3,1499.3c-35.9,0-71.8,0.1-107.7-0.1c-12,0-22.5,0.1-23.5,16.6
			c-1.3,20.4-3.8,40.8-6.5,61.2c-2.4,17.6-0.1,25.1,22,21.8c61.1-9.2,121.9-5.7,181.9,10.9c91.6,25.4,149.4,82.6,167.1,177.1
			c10.5,56,9.9,112.4-0.8,168.3c-14.5,75.6-54.3,134.2-120.8,173.7c-85.7,51-176.8,86.4-277.5,92.1c-16.7,0.9-23.8,6.8-24.1,23.6
			c-0.8,41.1-1.6,82.2-4.5,123.1c-1.6,22.4,5,25.1,25.4,19.3c99.8-28.4,195.4-67.2,290.4-108.9c122.2-53.6,191.7-144.7,218.7-273.7
			c20.7-98.9,40.4-196.9,15.1-298.1c-30.4-121.6-110.9-194.4-235.1-209.9C2426.3,1491.3,2386.3,1495.3,2346.3,1499.3z M1535.6,280.5
			c-38,0-76-1-113.9,0.2c-104.1,3.4-205.9,20.4-304.3,55.8c-15.8,5.7-22,11.7-18.9,30.4c6.1,37.4,8.1,75.4,6.5,113.5
			c-1.4,34.9-1.1,34.8,33.6,23.7c11.7-3.8,23.6-7.1,35.5-10c96.9-23.9,195.6-18.1,294-18.4c86.3-0.2,165.4,19.5,239.3,66
			c80.1,50.4,167.4,86.6,257,116.9c16.2,5.5,24.4,5.2,24.1-15.6c-0.6-33.8-0.7-67.9,2.5-101.5c3.3-34.4-10.3-48.6-44-53.4
			c-61.2-8.7-117.1-29.2-156.1-82c-21.5-29.1-41.5-58.9-53.5-93c-7-19.7-16.4-28.3-38.7-29.8
			C1644.3,279.5,1589.9,279.8,1535.6,280.5z M1401.2,524.3c-83.4,0.4-166.9,1.8-246.6,28.9c-68.1,23.2-51.8,10.7-61.5,77.5
			c-2.7,18.2-2.8,36.9-6.8,54.8c-4.8,21.4-0.7,27,22.1,22c68.2-14.9,137.5-22.9,207.4-25.2c141.7-4.6,275.2,22.7,395.4,102.1
			c41,27.1,82.6,53.4,125.2,77.9c36.6,21.2,76.4,34.5,118.9,39.1c21.8,2.3,31.6-3.2,30.8-27.6c-1.5-43-1.1-86.2,1-129.3
			c1-20.5-6.9-28.1-25.2-33.7c-104.3-32.3-202.8-77.4-296.4-133.5c-39-23.4-79.8-42.4-126.1-45.5
			C1493.4,528.8,1447.3,526.8,1401.2,524.3z M879.6,656.6c-0.3,0-0.6,0-1,0c0-99.6,0.1-199.2-0.2-298.8c0-8.8,3.4-19-5.6-25.8
			c-21.1-15.8-62.3-0.6-70,25.5c-8.1,27.2-5.9,55-4.8,82.6c11.7,305.3-9.2,608.9-40.4,912.4c-19.1,185.7-31.9,372.1-46.4,558.3
			c-12,154.4-22.7,309-40.9,462.9c-8.9,75.4-19.1,150.6-26.6,226.2c-4.2,42.3,8.4,79.5,46.7,103.5c8.3,5.2,18,14.2,27.9,8
			c8.5-5.3,3.9-17,4-25.7c0.5-123.2,0.2-246.4,1-369.6c0.8-117.1,8.2-233.7,36.8-347.9c13.2-52.7,28-105.4,30-159.8
			c5.3-145.7,8.2-291.4,13.4-437.1c3.3-92.2,7.9-184,41.1-272.4c25-66.5,35.4-136.7,35-208.2C879.3,812.6,879.6,734.6,879.6,656.6z
			 M632.2,2725.2c-17.9-25.6-32-46.4-35.2-71.3c-2.3-18.1-12.5-22.5-27.8-25.9c-196.3-42.8-332.5-198.5-343.3-398.3
			c-7.7-143.4,52.9-247.3,208.7-269.2c49.7-7,99.7-13,149.6-18c77.8-7.7,77.3-7.1,79.4-86c0.4-15.8-4.1-19.7-18.6-18.5
			c-44,3.7-88,6.3-132,10c-67.2,5.7-134.3,23.7-201.8,6.3c-18.2-4.7-25.3,1.2-34.3,14.8C168.4,2034.9,127,2216,151.4,2412.2
			c11.7,94.6,48.8,174.5,129.4,231.5C385.7,2717.7,504,2728.5,632.2,2725.2z M1427.4,2571.5c128.6,2.5,255.9-9.7,382.6-30.6
			c20.5-3.4,29.6-11.1,30.9-32.6c1.9-31.6,6-63.3,11.8-94.5c4.2-22.9,0.2-27.4-23.9-22.7c-275.2,52.7-550.4,49-825.2-4.4
			c-29.5-5.7-67.7-30.1-86.2-12.6c-19.2,18.2-6.5,60.3-9.5,91.8c-2,20.3,5.7,27.9,25.1,33.3
			C1095,2544.1,1259.7,2567.6,1427.4,2571.5z M1034.9,1084.4c64.1-21.4,126.2-37.6,190.2-44.9c134.9-15.4,261.2,2,364.3,99.8
			c95.8,90.8,215.5,122.5,339.9,145c17.6,3.2,21.1-3.6,22.1-18.2c1.8-24.5,2.4-49.5,7.5-73.4c5.1-24-0.5-33.5-25.6-39.5
			c-95-22.5-181.7-63.4-257.9-125.4c-29.4-23.9-57.5-49.6-93-64.9c-172.8-74.4-346.5-57.5-520.5-5.5c-9.7,2.9-15.9,8.3-16.8,19.2
			C1042,1011.2,1038.6,1045.6,1034.9,1084.4z M1345.9,734.1c-88.4-1.5-169.3,12.4-250.1,27.5c-13.9,2.6-24.6,6.8-26.6,23.9
			c-3.8,31.5-8.6,62.9-14.7,94.1c-4.8,24.8,5.1,25.1,24.6,19.1c93.2-28.7,188.7-37.6,285.9-35.1c130.4,3.4,247.4,38,347.3,127
			c66.1,58.9,147.9,91,233.1,113.8c17.2,4.6,22.9,0.4,23.8-17.9c1.7-33.8,4.8-67.7,10.2-101c4.3-26.2-4.5-35-30-34
			c-22.7,0.8-44.6-6.2-66.2-13c-63.5-20-119-55.4-172.7-93.1C1599.2,766.9,1475.9,730,1345.9,734.1z M1472.5,1910.6
			c-187.2,0.4-324.6-5.3-461.9-11.1c-74.8-3.1-74.2-4.1-77.2,72.4c-0.6,16.7,4,23.3,20.6,26.5c288,55.9,576.4,58.9,865.4,8.9
			c72-12.5,71-13.5,79.1-83.2c2.7-23.5-2.2-29.9-26.8-28.1C1722.2,1906.4,1572.5,1909.8,1472.5,1910.6z M1408.7,2376.8
			c143.5,0.2,263-9.2,381.3-31.2c75.5-14,74.3-14.7,80.8-93.1c2-24.3-6-26.3-26.6-24.7c-290.1,23.2-580.2,22.9-870.5,0.7
			c-62.2-4.8-54.3-16.4-59.3,53.5c-1.7,24,5.5,32.7,29.5,38.3C1104.6,2357.7,1267,2377.3,1408.7,2376.8z M2071.5,919.6
			c-0.8-190.1,5.9-380,10.1-570c0.2-9.4,8.8-23.9-9.4-27.4c-18.8-3.6-25.8,8.5-29.4,23.7c-5.3,22.1-6.5,44.6-5.5,67.3
			c14.5,314.7-9.4,627.6-40.8,940.5c-18.8,186.9-31.8,374.3-46.4,561.6c-11.8,151.5-22.8,303-40.3,453.9
			c-9.3,80.5-20.5,160.9-27,241.6c-3.7,46.9,12.5,59,58.7,61.1c20.5,0.9,21.6-7.8,19.4-23.6c-10.8-77.3-16-155.1-19.8-233
			c-11.1-232.2-0.8-462.6,83.4-682.2c50.4-131.4,68-265.1,61.3-404.2C2079.3,1192.6,2076.1,1056.1,2071.5,919.6z M2296.8,1645.7
			c-9.2,0.4-18.4,0.8-27.7,1.2c-66.4,3.3-64.4,3.7-75.7,68.3c-5.5,31.7,3,37.2,32.9,36.5c66.6-1.5,103.9,26.5,115.3,82.8
			c5.1,25,7.4,50.8,5.2,76.5c-7.5,89.9-65.6,138.4-155.9,127.5c-20.1-2.4-22.7,5.2-23.4,20.6c-1.4,28.7-1.3,57.7-5.4,86
			c-3.6,24.6,6.2,27.2,26.7,24.9c80.8-9.2,155-37,226.2-75.3c67.4-36.2,106.3-90.9,116.6-166.9c4.9-35.9,6.4-72.1,1.7-107.5
			c-11.3-85.5-46.3-137.7-136.2-161.2C2364.1,1650.6,2331,1644.7,2296.8,1645.7z M1419.9,2194.3c118.5-1.4,246.8-5.1,374.9-13.5
			c26.5-1.7,59,3.3,77.5-10.3c20.3-14.8,6.3-50.3,12.1-76.2c1.6-7,1.3-14.3,2.5-21.4c3.5-20-0.9-26.6-23.9-22
			c-110.8,22.3-222.8,35.5-335.7,40.2c-193.5,8.1-385.6-2.6-575.6-42c-17.9-3.7-24.2,2.5-24.3,20c-0.2,22.6,0.5,45.6-4,67.5
			c-6.2,30.6,5.5,38.2,34.3,40.1C1108.4,2186.5,1259.1,2193.5,1419.9,2194.3z M1798.6,1656.6c16.7-1.2,47.5-2,78-5.9
			c44.5-5.7,43.7-6.6,47.5-52.6c1.4-17-2.2-24.2-20.8-23.7c-28.7,0.7-57.5-0.5-86.2-1.7c-157.5-6.4-304.9-40-424.5-153
			c-28.7-27.1-65.5-41.2-105.8-45.1c-73.2-7-146-2.4-217.1,14c-97.9,22.6-74.7,1.4-89.9,96.4c-3,18.6,2.2,23.3,19.7,23.3
			c57.5,0.3,115.1,4.1,172.5,2.1c101.1-3.4,194.2,19.6,283.5,67.9C1557.3,1633.3,1668.7,1655.8,1798.6,1656.6z M251.5,1538.5
			c-4.1,0.3-8.4-0.1-12.2,1.1c-26,8.6-65-13.4-77.5,14.6c-10.8,24.2,1.1,58.3,9.2,87.1c31.3,110.6,100.7,172.2,198.7,167.8
			c94.2-4.2,188-15.5,282-23.2c12.7-1,18-6.1,18.8-18.6c2.8-42,5.9-83.9,9.6-125.8c1.3-14.9-4.1-19.8-18.8-19.1
			c-29.7,1.5-59.5,2.5-89.3,2.3c-74.2-0.5-148.4-10.6-204.7-61.1c-29-26-55.8-27.8-88.1-26.6C270,1537.4,260.8,1537.9,251.5,1538.5z
			 M1379.3,2748.8c136.5-1.7,267.9-35.2,400-64.3c18-3.9,40.1-4,52.4-14.9c15.4-13.6-3.7-35.5-0.8-54.1c3.6-23.2-6-26.1-27.9-22.3
			c-203.8,35.2-408.3,38.9-613.4,11c-87.5-11.9-173.7-30.2-259.1-52.1c-7-1.8-17.6-12.8-21.2,4.8c-5.9,29,12.2,67.3,39.4,82.7
			C1082.4,2715,1227.2,2746.1,1379.3,2748.8z M1735,1790.1c33.8,0,67.7-1.9,101.3,0.4c78.3,5.4,77.6,6.2,76.9-73.2
			c-0.2-18-5.1-19.2-21.1-17c-38.6,5.2-77.4,9.2-116.5,8.2c-124.9-3.2-244.2-29.8-354.3-89.6c-74.2-40.3-152.2-58.8-236-57.4
			c-49.2,0.8-98.5-0.4-147.7-0.5c-71.2-0.1-70.6,0-75.1,73.6c-1.1,17.5,1.4,23.3,20.7,22c121.5-8.2,239.1,11.6,353.2,52.8
			c46.2,16.7,91.4,36.3,139.1,48.6C1560.7,1779.8,1648.1,1779.6,1735,1790.1z M2388.6,542.8c-21.4,2-42.9,3.4-64.3,6
			c-33.9,4-37.6,13.2-36,70.4c0.9,31.8,24.1,15.8,36,16.7c77.2,6,135.1,45.4,158.1,112.5c24.8,72.4,2.1,133.1-50.2,184.7
			c-33.9,33.4-75.7,53.9-122.3,60.1c-29.5,3.9-41.4,16.2-39.4,44.6c0.5,7.1,0.9,14.7-1,21.5c-5.9,21.8,4.9,22.9,22.6,22.3
			c133.6-4.6,235.2-59.3,301.1-179.6c48.9-89.3,37.1-172.5-8.6-257.1C2542,565.9,2472.5,541.5,2388.6,542.8z M1003,1350.4
			c58.7-16.1,118.4-23.8,178.6-29.2c106-9.5,201.4,10.8,281.1,87.6c40.3,38.8,90.9,62,144.7,78.8c96.4,30.1,195.7,33.7,295.3,36.2
			c13.9,0.3,29,4,29.1-19.7c0-18.2-0.3-29.2-23.3-32.7c-144.7-22.3-271.5-82.5-381.5-179.8c-46.9-41.5-104.4-60.6-167.4-59.4
			c-115.5,2.1-226.7,33.6-340,51.4c-6.7,1.1-12.1,3.2-12.6,10.7C1005.9,1312.4,996.8,1330,1003,1350.4z M1321.7,1086.1
			c-93.5,0.5-169.4,12.4-242.2,38.4c-65.4,23.4-48.4,5-60.5,78.2c-3.7,22.7,3.2,28.5,25.5,24.3c71.4-13.4,143.2-24.6,214.6-38.4
			c122.1-23.6,231.7-2,326.6,82.9c84.6,75.7,185,119.9,295.6,142.5c62,12.7,61.4,13.1,62.7-53.1c0.3-16.4-4-23.8-20.6-26.2
			c-26.3-3.8-52.6-8.7-78.5-14.9c-100.5-24.3-197.4-57.1-274.9-129.7C1495.3,1120.4,1409.4,1081.3,1321.7,1086.1z M746.8,704.4
			c-91,63.3-175.8,123.8-238.2,210.1c-21.3,29.5-36.7,61.4-41.7,97.9c-8.3,60.7,28.6,111.2,85.9,116.5c34.3,3.2,67.9-1,99-16
			c40-19.4,76.7-47,83.2-92.4C749.6,918,748.5,814.3,746.8,704.4z M1816,1847.9c-0.2-3.2-0.4-6.4-0.6-9.6c-20.4,0-40.7,0.7-61-0.1
			c-146.9-5.7-292-17.4-430.2-77c-108.9-46.9-225.2-60.2-343.8-53.5c-21.3,1.2-28.4,8.4-28.9,28.9c-0.6,27.7-3.4,55.4-6.4,82.9
			c-2,17.7,1.9,24.4,22.2,25.6c232.9,14.8,466,15.5,699.2,10.2C1716.3,1854.3,1766.1,1850.5,1816,1847.9z M643.9,2124.9
			c0.9-47.1,0.9-47.1-45.9-52.7c-94.8-11.2-173.9,32.1-200.5,110.6c-34,100.5,40.9,220.2,157.2,231.4c57.1,5.5,58.8,6.4,64.6-48.9
			c0.6-6.1,1.7-12.2,2.6-18.3c8.7-62.3,8.7-62.3-54.7-64.1c-53.7-1.5-82.6-30.1-84.3-84.1c-0.4-12.3,2.2-24.9,0.3-36.8
			c-5-30.5,15.8-33.8,36.2-33.6c28.5,0.3,14.9,23.2,15.8,36.8c1,14.2-2.5,28.5,1,42.8c2.3,9.3,4.8,19.3,14.8,21.6
			c25.2,5.8,52.5,7.9,75.9,0.3c17.7-5.7,7.9-30.8,10.4-47.2C640.3,2163.7,641.7,2144.2,643.9,2124.9z M276.9,2212
			c2.1,172.9,119.7,321,287.1,363.2c22.4,5.6,31.5,1.2,32.2-22.1c0.4-14.3,3.2-28.5,5.4-42.6c6.4-41.9,6.4-41.9-35.3-43.8
			c-162.3-7.3-273.2-172.8-211.6-315.9c43.1-100.3,149.1-149.3,272.3-126.2c7.3,1.4,17.4,9.8,21.7-0.5c4.2-9.9,5.9-23,3-32.9
			c-2.5-8.3-14.5-3.6-22.3-2.8c-50.9,5.4-101.8,11.5-152.7,16.6C337.2,2018.9,275.3,2082.9,276.9,2212z M482,1562.7
			c-18.2-32.7-12.7-59.1,3.6-82.9c9.2-13.3,21.1-25.1,33.4-35.9c48.5-42.6,104.1-72.1,166.8-87.8c13.5-3.4,22.8-9.1,20.4-24.6
			c-2.6-17.1-16-9.4-24.3-8.7c-66.7,5.2-133,1.2-199.2-7.4c-50.7-6.6-101,23.6-114.6,67.4c-23.6,76,10.7,145.2,85.2,171.4
			C460,1556.4,466.9,1558.2,482,1562.7z M2287.8,802.8c-3,51.2-4,87.1-7.5,122.7c-1.8,18.4,5,21.8,20.4,18
			c32-7.9,62.4-19.1,88.4-40.4c44.9-36.9,62.6-91.6,44.5-139.5c-19.1-50.3-68.2-79.3-127.8-77c-17.5,0.7-23.4,7.1-22.3,24.1
			C2285.8,746.6,2286.9,782.4,2287.8,802.8z M491,1564.8c59.4,14.5,120.7,7.4,181.6,6.4c10.8-0.2,13.3-6.6,14.3-15.8
			c5.3-48.7,11.1-97.5,11.7-148.4C605.3,1428.2,539.5,1482.9,491,1564.8z M2176.6,1917.7c0.4,0,0.8,0.1,1.3,0.1
			c-1.5,16.3-3,32.6-4.5,49c-0.8,8.7-0.3,16.7,10.6,18.8c62.9,12.4,110.5-15.7,111.5-71.2c0.5-25.6,0.6-51.3-6.2-76.3
			c-7.7-28.1-77.4-50.4-99.6-32c-6.7,5.5-5.2,12.8-5.8,19.7C2181.4,1856.4,2179.1,1887.1,2176.6,1917.7z M1788.1,296.3
			c2.5,8.2,3.5,13,5.4,17.5c33.2,80.2,96.2,118.6,179.8,128c4.6,0.5,12.1,4.2,12.1-3c-0.1-21.7,11.4-48.3-7.5-63.9
			C1923.8,330.5,1859.5,308.5,1788.1,296.3z"/>
	</g>
</g>
</svg>
