<?xml version="1.0" encoding="utf-8"?>
<!-- Generator: Adobe Illustrator 23.0.0, SVG Export Plug-In . SVG Version: 6.00 Build 0)  -->
<svg version="1.0" xmlns="http://www.w3.org/2000/svg" xmlns:xlink="http://www.w3.org/1999/xlink" x="0px" y="0px"
	 viewBox="0 0 3000 3000" style="enable-background:new 0 0 3000 3000;" xml:space="preserve">
<style type="text/css">
	.st0{opacity:0.47;}
	.st1{stroke:#000000;stroke-width:10;stroke-miterlimit:10;}
</style>
<g id="Layer_1" class="st0">
</g>
<g id="Layer_2">
	<g>
		<path class="st1" d="M1473.2,1691.9c102.9,77,135,154.9,102.4,247.9c-28.1,79.9-104.9,133.2-190.1,131.8
			c-84.1-1.4-160.7-59.1-184.9-139.2c-28-92.8,6.8-173,105.9-240c-65.4-37.4-108.1-90.1-113.5-166.6
			c-5.5-77.5,28.1-136.7,92.1-183.8c-111.8-43.5-161-122.8-144.7-240.4c-150.4,31.9-222.6-0.3-278.9-125.3
			c-16.1,36.1-33.5,70-64.1,94.4c-61.4,49-129.1,59.6-202.6,31.9c-12.7-4.8-21.1-11.6-25.7,10.4c-27.6,134.3-84.3,181.4-227.2,186.8
			c58.7,49.1,91.1,107.4,85,182.2c-6.2,75.7-48.2,127.9-113.1,164.6c102.1,75.1,135,154.7,103.7,247
			c-27.4,80.9-108.4,137-192.5,133.4c-88.9-3.9-163.4-63.2-185.4-147.6c-23.4-90,13.7-170.9,108.2-230.7
			c-100.3-62.8-142.8-149.9-96.4-262.1c36.5-88.3,111.2-123.2,205.7-116.8c2.7-11.4-7.6-13.4-12.8-18.1
			c-74.5-67.2-90.2-166.9-39.4-252.4c48.2-81.2,147.9-115.8,239.3-80.7c22.4,8.6,28.3,7.6,30.6-17.9
			c8.2-89.4,73.8-159.5,159.2-173.9c90.2-15.2,173.6,27,213.5,108.2c4.5,9.2,9,18.3,14,28.7c50.6-110.8,136.7-159,238.8-135
			c100,23.5,152.2,106.8,147.5,240.2c72.1-28.7,140.7-24.1,206.6,22.1c13.5-47.7,33.5-89.9,72.2-120
			c59.7-46.5,125.4-57.1,196.5-31.2c14.5,5.3,23.5,11.4,27.4-12.4c14.8-89.5,67.6-147,156.5-164.9c86.1-17.3,154.5,15.1,204.5,86.8
			c2.6,3.7,5.5,7.3,9.8,12.9c59.6-70,134.1-96.2,220.9-68.9c86.7,27.2,129.2,93.1,137.9,182.6c127.7-69.7,222.8-61.2,292,24.3
			c67.4,83.2,56.5,182.2-33.2,283.5c96.9,12.4,165.8,61.4,192.5,155.4c26.6,93.7-6.5,170.8-84,233.4
			c70.3,44.5,111.5,105.7,112.3,188.4c0.6,58.1-21,108.9-62.3,150.4c-83.2,83.6-221.5,80.7-302.8-5.4
			c-71.4-75.7-91.6-219.2,35.2-321.1c-64.6-40.9-106.4-97-111.5-174.3c-4.9-75.8,26.3-136.9,87.9-187.5
			c-113.2-20.1-174.7-84.5-187.9-197.4c-41.1,29.6-82.1,50.9-131.9,51.2c-70.6,0.5-125.3-27.9-166.9-83.9c-7-9.4-10.7-25.1-27.1-7.5
			c-66.8,71.1-146.1,83.6-235,47.9c-2-0.8-4.5-0.1-6.8-0.1c-17,158.6-179.9,240.4-320.6,148.8c-13,56.3-42.2,101.6-90.9,134.4
			C1628.7,1383.2,1629.9,1611.5,1473.2,1691.9z M2577,1397.7c0.9,84.6,69.6,152.1,153.9,151.1c84-1,152.1-70.8,150.8-154.7
			c-1.3-84.5-70.4-152.1-154.4-151.1C2643,1244,2576.1,1312.8,2577,1397.7z M2749.9,1610.2c-88.7,1.2-155.8,68.2-153.7,153.6
			c2.1,85.4,69.1,149.5,155.5,148.7c85.8-0.8,150.8-67.8,149.5-154C2899.9,1674,2833.7,1609.1,2749.9,1610.2z M228.5,1967.8
			c77.9,0.4,140.3-59.5,141.8-136c1.5-75.7-61.1-140.3-137.2-141.6c-76.8-1.3-139.8,60.1-140.6,137
			C91.8,1906.1,151.1,1967.4,228.5,1967.8z M374,964.1c-78.1-0.2-139.8,59.6-140.8,136.5c-0.9,75.8,62.1,139.8,138.4,140.3
			c77.4,0.6,138.6-60.3,138.8-137.9C510.7,1022.9,453.2,964.4,374,964.1z M92.6,1465.5c0,77.6,61.1,139.2,138.2,139.3
			c76.3,0.1,139.5-62.9,139.6-139c0.1-76.2-63-139.3-139.3-139.4C154,1326.4,92.6,1388.1,92.6,1465.5z M1946.1,993.4
			c77.1-0.4,138.9-62.8,138.3-139.5c-0.6-76.7-63.5-138.8-140.1-138.2c-76.9,0.6-138.7,63.2-138.3,139.9
			C1806.4,931.8,1869.5,993.8,1946.1,993.4z M914.4,921.2c0.3,77.3,62,138.3,139.6,138c76.1-0.2,139.1-64,138.4-140.2
			c-0.7-76.4-63.6-137.9-140.6-137.4C973.9,782.2,914.1,842.9,914.4,921.2z M2420.2,880c0.4-77.6-60.4-138.6-138.3-138.7
			c-78.9-0.1-138.9,61-139.4,141.9c-0.4,72.9,64,135.9,139,135.9C2358.3,1019.2,2419.8,957.4,2420.2,880z M531.4,920
			c-0.1,77.4,60.9,138.7,138.5,139.2c76.1,0.5,139.4-62.5,139.6-138.9c0.1-76.3-62.5-138.7-139.3-138.7
			C592.1,781.6,531.5,842.1,531.4,920z M1527.3,1877.3c0.7-79.9-56.6-140.1-134.8-141.6c-78.3-1.5-143,61.4-142.7,138.9
			c0.3,74.9,61.7,137.3,136.5,138.7C1464,2014.7,1526.6,1954.4,1527.3,1877.3z M1527.3,1513c0.5-79.4-58.4-139.9-136.8-140.6
			c-77.4-0.7-139.9,61.2-140,138.5c-0.1,76.3,60.3,137.8,136.1,138.4C1466.8,1650,1526.9,1591.7,1527.3,1513z M2616.5,1160.8
			c79.7,0.9,139.4-57.4,139.8-136.6c0.4-77.7-57.9-138-134.4-139c-79.7-1-140.7,57.1-142,135.3
			C2478.6,1099.4,2537.4,1159.9,2616.5,1160.8z M1472.8,1147.3c-0.6-78.6-59.9-137.3-139-137.5c-76.3-0.2-139.6,62.9-139.1,138.8
			c0.5,76.2,63.5,138.2,140.3,137.9C1412.9,1286.1,1473.4,1225,1472.8,1147.3z M1650.9,884.3c-78,0.7-138,62.1-137.5,140.6
			c0.5,77.9,62.8,138.5,140.8,137c75.8-1.4,136.6-63.1,136.6-138.7C1790.9,946.7,1727.3,883.6,1650.9,884.3z"/>
		<path class="st1" d="M964.3,1745.7c-1.4,118.8-45.3,216.3-144.5,285.6c-12.7,8.8-26.2,23.7-38.8-1.3c-8.5-16.9-22.4-29.1,4.6-46.6
			c139.1-90.1,149-279.9,79.6-396.8c-38.8-65.4-95.1-74.7-174.6-32.9c-11,5.8-22,27.5-40.1,4.6c-25.7-32.4-26.7-33.2,10.3-54.2
			c119.3-67.8,224-31.6,275.9,95.5C955.6,1646.3,964.5,1695,964.3,1745.7z"/>
		<path class="st1" d="M2223.9,1729.4c-2.9,102-28.8,187.4-75.3,267.2c-10,17.1-18.6,16.7-31.2,5.9c-11.4-9.7-34.8-11-18.8-37.6
			c50.3-83.7,74.5-174.1,62.7-272.6c-10.5-87.8-60.1-152.4-128.2-162.5c-49.6-7.3-96.4,6-141.9,24.5c-27.2,11.1-45,0-50.3-29.2
			c-1.8-9.9,3.6-12.6,9.6-15.5c66.3-31.7,135.2-50.7,208.6-32.6c93,22.9,133.7,93.5,154.4,179.2
			C2220,1683.2,2221.5,1711.2,2223.9,1729.4z"/>
	</g>
</g>
</svg>
