<?xml version="1.0" encoding="utf-8"?>
<!-- Generator: Adobe Illustrator 23.0.0, SVG Export Plug-In . SVG Version: 6.00 Build 0)  -->
<svg version="1.0" xmlns="http://www.w3.org/2000/svg" xmlns:xlink="http://www.w3.org/1999/xlink" x="0px" y="0px"
	 viewBox="0 0 3000 3000" style="enable-background:new 0 0 3000 3000;" xml:space="preserve">
<style type="text/css">
	.st0{stroke:#000000;stroke-width:10;stroke-miterlimit:10;}
</style>
<g id="Layer_1">
</g>
<g id="Layer_2">
	<g>
		<path class="st0" d="M1865,609.3c-0.9-41.8,3.3-80.2,23-115.4c33.7-60.2,79.9-65.9,126.4-14.6c25.7,28.3,53,54.4,87,72.5
			c37.6,20,75,27.5,118.5,13.3c104.9-34.1,212.6-49.2,323-31.2c136.3,22.3,229.4,91.9,262.8,232.3c30.7,129,46.7,260,60.4,391.3
			c16,153.3,24.7,307.2,22.4,461.5c-3.1,212.4-30,421.6-82.6,627.5c-47.8,187.4-166.9,236.2-344.3,210.7
			c-94.4-13.6-181-51.5-264.1-96.7c-16.7-9.1-22.4-5.5-36.1,6c-109.5,91.3-231.8,143.8-377.8,112c-19.5-4.2-29.5-3.2-42.8,13.5
			c-51.2,64.1-127,79.2-201.9,92.4c-63.6,11.2-126.2,4.5-184.4-26.8c-10-5.4-17.5-7.8-27.1,2c-40.7,41.8-93.3,53.6-148.4,51
			c-82.5-3.9-166.9-5.6-233.4-66.7c-8.5-7.8-13.7-3.9-20.2,1.8c-71.5,61.9-151.6,57.1-233.9,29c-58.2-19.9-111.1-49.9-156.9-91.4
			c-15.7-14.2-28.2-18.9-50.9-9.8c-79.2,31.7-154.8,16.3-221.4-33.3c-129.9-96.9-148.3-242.9-48.4-370.2
			c10.8-13.7,9.7-22.6,2.1-36.3c-106.4-191.6-139.6-400.4-134.4-615.5c4.1-171.2,25.6-341.7,66.3-508.3
			c48.3-197.6,164.6-335.8,365.7-393.3c58.9-16.9,119.8-22.3,180.1-29.9c195.3-24.4,391.2-36.4,588.2-22
			c196.4,14.3,387.8,47.7,565.3,138.2C1852.4,605.5,1857.8,606.7,1865,609.3z M1060.3,2313.4c42.4,2.4,78.1,2.8,113.4,6.9
			c24,2.8,37-3.7,47.6-26.4c44.6-96.4,84.8-193.9,89.5-301.7c1-22.8,13-21.9,28.6-22.5c21.9-0.9,16.8,14.9,16.1,26
			c-2.9,41.3-9.1,82-19.7,122.2c-18.4,69.8-47.7,135.6-77.4,204.2c43,0,81.9-0.1,120.9,0.1c9.9,0.1,18.1-2.1,22.8-11.7
			c50.3-102.5,97-206.3,93.5-324.2c-0.5-17.4,0.1-27.9,21.2-30.1c23.8-2.4,23.4,12.9,24,27.8c2.4,54.6-8.4,107.3-22.9,159.6
			c-16.3,58.5-41.4,113.7-67.4,172.1c50.4-0.1,95.3-9.5,140.5-16.7c11-1.8,17.9-7.7,21.8-19.1c35.7-105.4,77.8-209.8,54.7-325
			c-4-19.8,9-23.6,21.6-29c18.7-8.2,18.1,8.5,21.1,18c15.5,48.7,8.9,97.9,1.8,146.9c-9.3,64.3-30,125.9-52,192.6
			c24.7-6.8,44-13.7,63.9-17.2c60.1-10.6,92.3-42.7,100-105.9c11.6-96.1,45.9-191,3.4-287.7c-6.9-15.8,11.2-20.7,19.9-28
			c11.5-9.7,15.7,3.5,20.1,10.2c11.6,17.5,17.5,37.3,20.5,58c7.6,52.9,4.4,105.6-3.8,158.1c-6.9,44.3-15.8,88.3-24.7,137.2
			c83.2-43.9,159.1-85.6,155.6-191.3c0-1.1,0.6-2.2,0.8-3.4c9.2-83.4,22.8-167.3-18.8-246.6c-10.5-20,8.2-23.5,16.6-31.7
			c13.7-13.3,17.4,3.6,21.8,10.6c30.4,49.1,33.8,104.3,32.6,159.8c-0.9,40.8-4.5,81.5-6.9,122.2c28.9-47.9,67.6-89,82.6-144.2
			c22.5-82.8,31.2-167.3,33.2-252.5c4.4-186.8-13.9-372.4-36-557.4C2126,950,2076.4,840,1983.6,755.4
			c-86.4-78.8-185.7-137.5-298.6-173.5c-195.3-62.4-396.1-79.6-599.3-78.7C923.9,503.9,763,518.7,603.1,543
			c-203.6,31-339.4,141.1-401.6,339.8c-26.3,83.9-39.4,170.1-50.6,256.7c-24,184-41.3,367.8-4,552.7c21.2,105.3,46,208.5,97.8,303.6
			c9.4,17.3,16.1,25,34.3,8.3c77.9-71.5,145.3-150.5,186-249.5c5.9-14.5,8.1-30.2,32.9-20.9c27.5,10.3,13.1,25,7.9,37.8
			c-37.7,92.1-97.3,168.9-168.1,237.7c-59.7,58-59.1,57.7,3,117.3c13.2,12.7,20.6,11.9,33.6,0.2c63.2-57.4,122.5-118.3,170-189.7
			c26.3-39.4,48.7-81,55.6-128.8c2.5-17.2,6.1-26.5,27.3-23.8c25.7,3.2,17.9,19.9,15.8,33c-8,49.7-29.9,93.9-56.7,135.9
			c-47.5,74.3-108.5,136.7-171.6,197.6c-6.7,6.4-33.3,12.6-11.6,29.5c13.8,10.8,25.7,34.9,51.3,11.6
			c50.2-45.7,101.7-90.1,147.2-140.5c50.1-55.5,99.9-111.7,122.3-185.6c5.7-18.7,18.8-12.2,30.7-10.5c17.7,2.6,14.1,13.7,10.6,25.6
			c-18.8,63.4-57.5,114.4-99.3,163.9c-56.3,66.6-120.1,125.8-187.2,185.4c15.5,7.9,27.5,14.5,39.9,20.4c8.3,3.9,17.3,6.3,25.5,10.4
			c9.1,4.6,16.8,4.7,25.5-1.3c119.2-83,232.1-171.5,276.3-319.1c5.3-17.8,14.1-20.3,30.3-16.8c17.9,3.9,16.9,13,13,27.5
			c-18.8,70.7-57.5,129.9-104.7,184.3c-46.7,53.9-102,98.5-162,142.9c39,12.7,76.1,8.6,111.6,15.2c36.4,6.8,64.9-1.9,90.4-32.5
			c45.6-54.9,93.8-107.4,127-171.4c14.9-28.7,29.2-58,31-90.7c1.2-21.5,12.3-23.4,29.3-23c24.9,0.7,16,17.2,14.1,29.3
			c-13.9,87.3-62.2,157-115.7,223.8c-18.9,23.6-39.5,45.8-61.5,71.1c22.2,1.8,39.4,3.1,56.5,4.7c103,10.1,103.8,10.6,156.7-78.2
			c41.8-70.1,82.5-141.2,83.7-226.6c0.3-21.9,18.9-16.7,30.6-18.9c17.4-3.3,13.5,12.1,13.6,20.9c0.4,65.1-24.7,123-52.1,180.2
			C1116.4,2226.9,1088.3,2267.2,1060.3,2313.4z M2187.3,2237.3c-5,46.7,3.5,74.3,42.8,92.3c68.1,31.1,135.8,61.9,209,79
			c47.6,11.1,95.6,14.7,143.9,8.6c105.5-13.4,155.3-83.6,179.6-179c42.1-165.3,68-333.1,77.7-503.4c10.3-182,2.2-363.5-15.6-544.5
			c-14.2-144-29.7-288-66.5-428.8c-26.7-102.2-95.9-155.3-193.9-178.5c-112.3-26.6-222.2-10.1-329.5,23.8
			c-54.9,17.3-103.5,10.1-152.5-15.3c-40.6-21.1-72.6-52.1-103.3-85.1c-9.9-10.7-20-24.1-37.7-11.1c-38.7,28.4-45.1,124.6-8.8,158.1
			c46.2,42.6,98.7,73.8,161,88.5c73,17.2,145.7,17,218.8,3.2c84.4-15.9,148.2,14.9,196.7,83.4c28.4,40.2,45,85.2,55.3,132.7
			c22.5,103.7,29.8,209.1,36.8,314.7c17.1,258.3,20.2,516.7,11.3,775.2c-4.5,130.4-101.2,224.1-231.2,228.1
			c-93.5,2.9-184.7-40.8-123.5-163c20.5-41-7.8-79.3-55-84.6c-22.9-2.6-35.5,6.5-37.9,28.8c-3.3,30.8-6,61.8,2,97.6
			c1.9-8.8,3.5-12.9,3.5-17c0.1-14.4-1.2-27.7,21-26.3c20.2,1.3,23.2,9.9,23.4,28.6c0.9,96.5,38.5,138.9,128.8,151.4
			c9.1,1.3,18.2,3.2,27.3,3.8c73.4,4.3,147.3,11.7,219.1-11c62.7-19.8,101.9-68.3,97-127.3c-7-85-5.5-170.1-8.3-255.1
			c-9.3-277.1-17.4-554.2-24.1-831.3c-1.5-61-13.6-118.8-36.1-174.4c-46.2-114.2-135.2-212.6-305.8-193.5
			c-47.7,5.3-96.8,3.6-144.8-0.1c-65.9-5-130.7-17-178.9-69c-8.6-9.2-22.9-22.5-10.5-33.7c10.6-9.5,28.9-14,42.5,3.4
			c17,21.6,41.3,32,67.1,39.7c75.3,22.5,152,21.4,229.2,14.6c111.9-9.9,207.1,23.6,278.4,112.6c62.1,77.5,95.1,167.6,100.3,266.4
			c5.3,101.1,6.9,202.3,9.9,303.5c8.1,267.9,16.8,535.8,23.6,803.7c2.6,104.1-50.6,168-153,189.8c-75.2,16-151.3,12.3-226.8,3.3
			C2283.2,2332.2,2220.5,2314.1,2187.3,2237.3z M2567.5,1846.8c14.8-116.2-2.3-168.9-73.5-237c-39.8-38-85.3-63.3-141.8-59.7
			c-22.7,1.5-25.5-13.9-27.3-27.4c-2.8-21.2,16.3-15,26.9-15.7c48.8-3.2,92.8,10.9,133,38.5c31,21.3,55.8,49.3,84.8,79.8
			c0-36.3-0.9-67,0.2-97.6c1.1-30.5-9.9-55.3-28.2-79.1c-51.8-67.4-117.2-106.3-204.4-98.6c-20.9,1.8-26.2-7.7-28.8-24.1
			c-3.9-24.2,15.1-18.4,26.9-19.5c65.6-5.7,125.3,10.3,177.4,51.4c16.4,12.9,32.1,26.6,49.2,40.8c9.3-47.7-7.2-84.9-32.9-118.9
			c-52.7-69.9-123.6-99.7-209.9-90c-26,2.9-24.6-13.9-27.9-28.6c-4.6-20.6,13.6-14.2,22.1-16c20.3-4.3,41.1-2.8,61.8-0.4
			c68.4,8,126.2,37.5,178.9,92.5c-5.5-35.6,4.2-65.5-11.3-91c-29.9-49.1-72.6-81.6-129.7-95.2c-43.4-10.3-86.8-10.3-130.2-4.6
			c-23.6,3.1-23-12.6-26.2-26.4c-4.7-20.2,11.7-15.2,21.5-17c35.3-6.3,70.6-7.1,106.4-2.6c55.5,7,104.8,27.9,153.5,66.6
			c-8.5-46.3-3.5-87.8-46.3-113c-46.7-27.4-95.5-45.2-149.6-46.6c-34.4-0.9-69.2-2.7-103,6.3c-19.5,5.2-25.7-4.7-30.9-21.5
			c-6.9-22.4,9.6-18.9,20.6-21.2c38.4-8.2,77.2-10.5,116.6-8.4c51.8,2.8,100.4,17.7,149.5,40.3c-20.6-78-86.4-124.3-159.5-115.8
			c-27.4,3.2-54.7,7-82.2,9.8c-59.9,6.2-118.9-0.1-177.6-14.8c-1.1,14.5,7.9,21.2,13.5,29.3c39.3,57.7,66.2,120.6,82.7,188.4
			c13.1,53.9,16.6,109,23,163.8c20.5,175.1,32.1,350.6,23.2,526.8c-4.3,85-14.3,169.9-48.5,249.3c-10.3,24-25.3,46-41.3,74.5
			c53.9-35.5,98.8-34.5,142-0.7c40.7,31.8,48.1,67.1,26.3,126.8c-2.8,7.5-5.7,15-8.5,22.5c-12.4,33.8-6,49,26.5,62.1
			c73.8,29.9,176.8-4.1,220-71.4c11.4-17.8,12.2-32.2,0.3-50.2c-46.6-70.1-109.2-117.8-191.1-137.9c-17.9-4.4-22.4-10.8-20.6-27.4
			c2.3-21.3,15.8-19.1,29.9-15.9c45.5,10.3,86.7,30.1,124.3,57.4c32.3,23.5,60.2,51.7,87.9,82.8c6.2-45.5,15.4-91.7,2.1-133.3
			c-27.8-86.3-146-163.9-241.5-162.4c-26.3,0.4-24.5-14.9-27.1-29.2c-4.2-23.9,15.6-14.5,25.3-14.9c15.9-0.7,32.1,1.1,48,3.5
			C2452.3,1738.4,2512.5,1784.7,2567.5,1846.8z M2098.8,2065.1c-6.9,7.3-10.9,11-14.2,15.2c-72.6,93.1-167.1,157-275.5,199.9
			c-34.4,13.6-55.5,25.7-40,67c5.4,14.3,5.3,32.4,2.4,47.8c-6,30.7,9.2,40.5,35.4,45c120.2,20.5,219.9-27.3,314-93.6
			c13.6-9.6,21.1-24.8,19.6-42.1C2133.8,2224.8,2118.2,2146.8,2098.8,2065.1z M391.9,2444.6c81.9,2,148.6-43.1,176.9-109.8
			c4-9.5,5.6-16.4-5.5-16.5c-29.8-0.3-49.8-21.1-74.2-32.7c-85.4-40.7-158.2-97.7-217.3-171.4c-15.6-19.5-23.3-22.1-37.9,0.7
			c-43,67.1-54.1,137.1-17.2,208.9C255.2,2398.7,319.3,2438.6,391.9,2444.6z M780.7,2550.5c107.5,1,175.8-77.3,160.5-170.1
			c-2.3-14.1-2.5-29-24.6-30.4c-91.7-5.9-183.3-13.3-275-20.8c-13.7-1.1-25.2-1.9-30.2,14c-9.8,31.6-29.7,57-51.3,80.9
			c-9.1,10.1-9.5,15.5,0.8,24.2C628.2,2505.8,704.1,2543.2,780.7,2550.5z M1050.7,2367c0-3-0.1-6.1-0.1-9.1
			c-13.8-0.8-27.7-0.5-41.2-2.6c-21.4-3.3-29.8,2.1-23.8,25.3c7.1,27.5,1.5,54.9-6.4,81.6c-13.2,44.6-9.5,55,33.9,75.1
			c54.5,25.3,113.3,28.6,172,28.7c111.2,0.1,161.1-64.1,138.2-173c-4.3-20.2-12.1-26.4-31.4-26.2
			C1211.5,2367.3,1131.1,2367,1050.7,2367z M1482.3,2543.7c60.7,1.5,113.6-13.2,164.5-35.1c62.1-26.7,84.6-64.6,81.6-132.5
			c-2.8-62.1-3.5-62.7-63.5-47.4c-3.3,0.8-6.8,1-10.2,1.8c-86.2,21-173.7,31.8-262.2,34.1c-21.4,0.5-30.8,3.6-24.6,29.2
			c5.3,21.8,3.6,45.7,2.2,68.5c-3.7,58.6-2.4,60.6,55.3,75.5C1445.8,2543,1466.1,2544.3,1482.3,2543.7z"/>
		<path class="st0" d="M1386.7,1617.3c-33.5,77.5-90.5,117.4-173.9,111.4c-77.5-5.6-125.6-50.7-150.1-125.2
			c-36.3,24.3-73.9,42.1-118.9,32.1c-47.6-10.6-81.4-37.5-96.6-84c-5.3-16.2-8.1-21.4-27.1-16.4c-85.5,22.4-151.9-19.6-167.2-105.6
			c-3.1-17.2-9.1-18.4-23.9-19c-72.3-2.8-114.1-45.2-115.4-117.9c-0.3-17.2-6.3-19.9-20.9-22.9c-59.1-12.2-89.6-50.3-84.7-102.9
			c4.4-46.8,44.2-83.1,93.5-85.1c51-2.2,93.2,33.4,100.6,88.8c2.3,17.4,8.2,19.4,23,19.9c64.8,2.6,99.1,29.4,115.1,92.4
			c4.2,16.4,10,15.5,23.2,14.2c66.6-6.6,117,24.4,138.9,87.7c6.5,18.9,13.4,17.2,28.8,13c63.9-17.3,114.9,2.9,151.1,59.1
			c7,10.9,8.9,18.5,23.9,6.1c91.8-75.7,178.2-68.6,261.4,21c18.7-26.5,39.3-50.8,70.7-62.6c40.2-15.1,79.3-12.9,115.9,9.5
			c14.6,8.9,19.5,6.7,27.8-8.1c32.5-57.6,80-78.8,148.3-65.3c17.7,3.5,22.6,1.7,28.1-16.1c12.9-41.8,43-67.6,86.3-75
			c16.5-2.8,22.2-7.6,23.1-25.6c2.5-53.1,38.7-89.5,88.2-93.1c48.8-3.5,92.2,25.1,103.6,68.2c13.2,50.2-9.8,93.2-63.4,114.2
			c-14.3,5.6-18.1,10.1-15.7,26.6c11.1,75.9-51.3,137.4-128,126.6c-16.9-2.4-25.1-3.6-30.8,17.4c-23.5,87.1-109.8,122.8-190.8,80.9
			c-9.6-4.9-15.7-14.9-26.5,2.2C1548.4,1671.9,1477.1,1683.1,1386.7,1617.3z M1105.8,1572.6c0.7,63.8,55.3,114.5,122.3,113.4
			c66.7-1,121.2-53.7,120.2-116.3c-0.9-62.9-55.3-112.5-123.2-112.4C1156.9,1457.4,1105,1507.6,1105.8,1572.6z M1698.6,1397.5
			c-48.2-0.7-86.9,34.7-86.5,79.1c0.4,42.9,38.6,78.6,84.2,78.7c45.3,0.1,84-35.6,84.7-78.2
			C1781.8,1433.5,1745.2,1398.2,1698.6,1397.5z M779.2,1496.9c45.9,0.6,84-33.2,85.4-76c1.4-42.7-35.7-79.1-81.5-79.9
			c-47.3-0.8-87.2,34.9-87.1,78.1C696,1462.5,732.1,1496.3,779.2,1496.9z M967.8,1593.7c47.2,0.7,83.3-32.2,84.2-76.7
			c0.9-45.5-32.6-79.6-79.7-81.3c-48-1.7-85.8,32.8-86,78.6C886,1559.4,920.5,1593,967.8,1593.7z M1569.8,1533.8
			c-0.6-44.6-36.5-77.8-83.6-77.3c-47.1,0.5-82,34.1-82.1,79c0,46.2,36.9,80.3,85.5,79C1536.8,1613.1,1570.5,1579.2,1569.8,1533.8z
			 M628.6,1365.1c36.9-0.5,70-31.5,69.9-65.4c-0.2-37-33.5-67.3-73-66.4c-38.4,0.9-69.4,30.4-69.7,66.3
			C555.5,1335.9,588.6,1365.6,628.6,1365.1z M1868,1440.2c39.9-0.3,69.5-28.2,69.7-65.7c0.2-37.8-32.5-67.8-72.6-66.8
			c-39.1,1.1-68,30.1-67.4,67.8C1798.3,1413,1828.3,1440.5,1868,1440.2z M2018.6,1240.4c-0.6-27.2-26.5-50.6-55.4-49.8
			c-29.5,0.8-53.5,25.2-51.9,52.9c1.4,25.3,26.9,48.1,53.9,48.3C1994.3,1292.1,2019.1,1268.2,2018.6,1240.4z M558.2,1175.5
			c-0.6-27.8-25.4-49.4-55.6-48.7c-30.2,0.8-52.9,24-51.3,52.4c1.5,27,24.4,47.2,53.3,46.9C534.9,1225.9,558.9,1203.2,558.2,1175.5z
			"/>
		<path class="st0" d="M1246,1294.9c-166.1-0.2-299.2-20.7-425.3-77.1c-37.9-17-73.4-38.1-105.7-64.3
			c-123.7-100-123.2-235.2,1.4-335c60.2-48.2,129.1-79.5,202.9-99.4c236.9-63.8,470.5-58.7,698.3,39.4c50,21.5,93.8,52.7,132.2,91.9
			c77.8,79.5,78,193.3-1.2,273.5c-77.4,78.3-175.3,116-278.9,142C1386.9,1286.7,1302.4,1295.7,1246,1294.9z M1223.5,721.2
			c-125.3,1.8-243.4,16.8-356,62c-64.5,25.9-124.9,58.6-168.5,115.6c-43.6,56.9-43.7,117.5-0.9,174.5c34.2,45.5,81.1,73.6,130,99.9
			c23.1,12.5,36.1,11.4,52.7-12.1c75-106.2,174.4-178.7,303.2-206.3c18.9-4.1,24.8-13.2,22.3-31c-2-14.1,0-24.6,19-23.9
			c15.2,0.5,28.8,0.8,26.5,21c-2.3,20.1,6.5,23.7,25.2,24.8c146.8,8.5,262.3,70.2,334.9,201.8c7.6,13.8,13.7,14.4,26,7.1
			c33.9-20.2,65-43.5,90.2-74c49.2-59.5,49-129.2-0.5-188.6c-28.4-34.1-63.6-59.6-102.6-80.2C1497.8,744.4,1360,725,1223.5,721.2z
			 M908.9,1201.9c7.6,8.3,18.4,8.9,28.2,11.6c195.7,53.2,390.8,51.5,584.8-8.4c67.6-20.9,69-24.4,25.5-79
			C1367.5,900.8,1046.8,974.1,908.9,1201.9z"/>
		<path class="st0" d="M1088.6,926.9c0.3,28.7-22.3,52.9-50.6,54.2c-29.2,1.3-55.1-23.6-55.2-53.2c-0.2-29.2,25.9-55.5,54.3-54.7
			C1064.6,874.1,1088.4,898.8,1088.6,926.9z"/>
		<path class="st0" d="M1459.4,895.3c0,29.8-24.9,54-54.8,53.3c-28.7-0.7-51-24-51.1-53.4c-0.1-29.1,22.2-52.2,51.2-53
			C1435.1,841.3,1459.4,864.9,1459.4,895.3z"/>
		<path class="st0" d="M1251.2,1127.2c30.4-0.2,55.4,24.4,54.7,53.7c-0.7,28.3-24.6,51.5-53.3,51.7c-30.5,0.2-55.9-24.6-55-53.8
			C1198.4,1150.6,1222.6,1127.4,1251.2,1127.2z"/>
	</g>
</g>
</svg>
