<?xml version="1.0" encoding="utf-8"?>
<!-- Generator: Adobe Illustrator 23.0.0, SVG Export Plug-In . SVG Version: 6.00 Build 0)  -->
<svg version="1.0" xmlns="http://www.w3.org/2000/svg" xmlns:xlink="http://www.w3.org/1999/xlink" x="0px" y="0px"
	 viewBox="0 0 3000 3000" style="enable-background:new 0 0 3000 3000;" xml:space="preserve">
<style type="text/css">
	.st0{stroke:#000000;stroke-width:10;stroke-miterlimit:10;}
</style>
<g id="Layer_1">
</g>
<g id="Layer_2">
	<g>
		<path class="st0" d="M2558.1,2151c2.6,8.1,9.4,10.9,14.5,15.3c71,61.2,122.6,135.2,136.8,229.1c24.4,161.7-30.6,292.1-164.1,387.7
			c-68,48.7-146.6,71.3-227.4,86.6c-111.3,21-223.5,32-336.7,19.4c-89.7-9.9-173.5-36.1-246-92.1c-7.5-5.8-11.9-9-18.8,1.6
			c-20.2,30.3-49.6,49.4-83,62.1c-101.3,38.6-205.3,62.6-314.6,53.2c-77.6-6.7-149.4-30.3-211.7-78.5c-11-8.5-17-8.7-26.6,1.8
			c-30.4,33.3-69,54-111.2,68.4c-80.8,27.5-162.2,54-248.6,55.5c-124.8,2.2-243.4-22.7-343.1-101.5
			c-115.8-91.5-156.5-217.4-147.8-361c5.4-88.7,50.8-161.5,100.1-231.8c27.3-38.9,57.6-75.5,88.9-111.3c5.9-6.7,10.5-11.9,0.8-20
			c-63.3-53.5-85.7-126.2-93.2-204.9c-11.1-117.3-11.9-235-15-352.7c-3.9-152.1-1.4-304.2,5.2-456.2
			c5.7-131.3,10.1-262.7,13.8-394.2c5.4-191.8,68.4-360.8,197.9-503.2C619.8,123.7,737,74.3,870,59.3c141.9-16,278.2,8.5,410.3,60.2
			c12.9,5,21.2,4.9,32.7-4.7c58.7-49.3,145.7-46.8,202,5.6c11.1,10.3,15.3,11.1,26.3-0.9c30.4-33.3,72.4-41.4,114.8-43.2
			c225.7-9.6,451.5-4.7,677.3,0.2c87.6,1.9,158.2,42.8,210.9,112.7c52.6,69.8,75.8,150.6,82.9,236.3c10.8,129.8,9.5,260,11.3,390.1
			c4,296,6.1,592,8.7,888c0.8,95.7-1.5,191.5,1.8,287C2651.5,2064.4,2626.1,2119,2558.1,2151z M1569.5,1545.1
			c-2.4,7.6-3.3,9.3-3.4,11c-4.9,179.4,9.6,359-8,538.3c-2,20.5,5.4,25.9,27.4,25.9c284.3,0,568.6,0.1,852.9-0.1
			c19.2,0,38.6-1.4,57.6-4.2c56.4-8.5,104.8-39.6,102.8-118.2c-3.7-150.3-3.3-300.8-4.4-451.2c-1.4-185.9-2-371.7-4.4-557.6
			c-2.3-183.1-1.7-366.2-12.5-549.1c-4.4-74.3-22.3-145.4-65-208.3c-47.1-69.3-112.4-105.1-196.4-106.2
			c-70.9-0.9-141.8-1.6-212.7-2.3c-143.9-1.6-287.7-3.2-431.6,2.2c-26.2,1-52.1,4.2-76.2,15.7c-16,7.6-25.8,18.2-25.8,38
			c-1,324.2-2.4,648.5-3.8,972.7c0,5.6,0,11.2,0,21.9c3.9-7.2,4.9-9,5.8-10.8c24.2-48.4,75.7-68.8,118.4-46.9
			c42.6,21.8,58.6,79.6,34.6,125.8c-10.7,20.6-27.4,31.7-51.1,32.7c-47.8,2.2-86.9-10.6-106.5-60c-1.2,40.1-0.8,79.2-1.5,118.3
			c-0.2,12.4,7.9,13,15.8,14.3c49.4,8.7,98.7,18,149.2,18.1c85.3,0.2,162.4-19,219.7-88.2c31.5-38,49.4-82.6,61.1-129.5
			c38-152.6,51.1-307.8,44.7-464.7c-1.6-40.6-9.8-80.4-29.2-117.2c-44.3-84.1-133.9-97.3-199.7-29c-22.6,23.5-40.7,50.3-54.4,79.8
			c-9.9,21.2-20.1,42.2-34.4,60.9c-28.7,37.7-82,42.4-116.3,9.8c-16.8-15.9-28.6-35-36.1-57c-33.9-98.7,4-213.9,93.8-282.7
			c67.8-51.9,145.6-72.7,229.8-71.1c121.9,2.2,250.4,56.4,311.6,201.7c30.8,73.2,38.3,150.5,36.9,228.4
			c-1.7,94.9-7.5,189.8-11,284.7c-3.4,91.7-11.4,182.7-43.1,269.8c-3.7,10-1.4,14.7,7.2,19.8c20.3,12,38,27.1,53,45.5
			c79.4,97.5,75.3,243.8-9.8,349.2c-105.9,131-320.5,199.8-482.3,153c-100.7-29.2-167.5-93.9-196.3-196
			C1568.6,1605.9,1569.1,1578.5,1569.5,1545.1z M742.1,1687.4c-1.2,7.9,2.1,10.8,4.5,14c34.5,45.7,78.1,79.2,132.7,97.3
			c114.6,37.9,231.8,51.1,352.1,37.2c18.7-2.2,24.7-7.7,24.7-27.3c-0.6-438.4-0.5-876.8-0.5-1315.3c0-4.1-0.4-8.3,0-12.4
			c1-10.1-4-12.3-13.3-13c-90.7-6.7-181.2-8.4-272.1,0.1c-91.3,8.5-159,49-196.9,134.3c-19.4,43.6-30.9,89.5-40.2,136.1
			c-2.4,12.3,1.2,13.5,12.3,12.7c27.4-1.8,55-2.6,82.5-2.6c33.6,0.1,32.9,0.6,32.1,33.7c-0.3,13.4-4.1,17.4-17.6,17
			c-32.3-1.1-64.6,0.2-96.9,2.1c-19.1,1.1-24.1,9.1-25.7,25.5c-6.2,63-12.8,125.9-19.8,188.8c-1.2,11.1,1.7,14.6,12.8,14.4
			c27.5-0.6,55.1-0.6,82.6-0.1c36.2,0.7,30.6-7.9,32,33.2c0.5,13.8-4.3,17.5-17.5,17.1c-32.3-0.8-64.7,0.4-97-0.6
			c-13.7-0.4-19.3,2.7-19.7,17.7c-1.1,41.3-3.4,82.5-6.4,123.7c-1.1,15.6,2.4,22.1,19.6,21.7c33.7-0.6,67.4,1.6,101.1,1.6
			c11.7,0,16.4,3.6,14.9,15.3c-0.8,6.1-1.4,12.4-0.8,18.5c1.5,14.2-5.1,17.2-18.1,16.8c-33.7-1.2-67.4-0.6-101.1-1.8
			c-12.5-0.4-17.1,3.1-16.4,16c1.9,37.1,3.3,74.3,3.6,111.4c0.1,13.5,4.7,16.3,17.1,14.4c37.4-5.7,75.2-8.7,113.1-7.8
			c33.6,0.8,32.7,1.1,32.1,35.2c-0.2,15.4-5.9,18.1-19.6,16.9c-40.6-3.5-81,1.1-121.4,5.5c-12.5,1.4-18.1,5.4-16.4,19.3
			c4.7,38.2,8.5,76.6,11.8,114.9c1.2,13.5,5.8,19.1,20.3,18.6c30.2-1.1,60.6,0.1,90.8-0.6c11.9-0.3,16.1,3.8,15,15.2
			c-0.5,5.4-0.5,11.1,0.2,16.5c1.9,14-2.7,19.7-17.8,19C790.8,1686.5,766.8,1687.4,742.1,1687.4z M1290.6,2131.7
			c-13.1-19.1-24.7-36.5-28.6-56.7c-2.6-13.5-8.1-17-21.8-16.8c-107.3,2.1-214.7,4.4-322,4.2c-106.2-0.2-203.2-31.8-288.9-94.9
			c-73.6-54.2-123-125.3-129.2-218.3c-12.4-187.5-16.3-375.5-11.7-563.4c3.6-146.2,9.2-292.4,44.8-435.4
			c23.4-94.1,45.9-188.4,93.3-274.4C705.4,332.7,829,259.5,989.5,245.3c79.4-7,157.6,1.7,234.5,22.4c31.3,8.4,31.5,8.2,31.5-23.2
			c0-20.1,0.5-40.3,8.5-58.8c6-13.9,1.2-18.6-11.5-23.3c-82.3-30.8-167-51.2-254.8-56c-137-7.5-268.3,13.9-377.5,102.8
			C484.5,319.6,412,467.5,388.8,639.6c-11.9,88.1-9.2,177.2-13,265.8c-10.4,246.8-21.9,493.7-12.1,740.8
			c4,101.7,3.5,203.6,16.2,304.9c14.6,116.1,88.9,179,182.4,204.9c44.1,12.2,89.8,13.6,135.2,11
			C893.9,2155.7,1090.3,2143.7,1290.6,2131.7z M1508.8,1148.5c8-298.7,7-597.3,7.1-896c0-7.6,0.4-15.2-0.3-22.7
			c-4.5-45.1-26.7-77.9-70-93.3c-43.3-15.3-81.4-4.3-112.7,28.8c-21.6,22.9-27.3,51.3-27.3,82c0.2,590.5,0.1,1180.9,0.1,1771.4
			c0,4.1-0.1,8.3,0,12.4c1.5,53.5,36.4,93.2,88.5,104.2c46.4,9.9,119.4-30.3,114.8-93.1c-5.2-71.2-0.4-143-0.4-214.6
			C1508.8,1601.3,1508.8,1374.9,1508.8,1148.5z M1977.4,2171.7c-37.7,0-71.9,0.8-106-0.4c-15.8-0.5-27.2,4.8-38.7,14.9
			c-78.4,68.5-129.2,154.7-162.9,251.9c-43.3,124.6-8.1,238.8,96.8,319.1c82.6,63.2,178.6,82.1,279.2,86.2
			c67.6,2.7,134.9-3.6,201.7-13c79.8-11.2,158.7-27.4,230.9-65.7c136.5-72.3,207-210.3,181.7-359.2
			c-17.3-102.1-78.7-174.8-161.8-231.7c-5.4-3.7-11-4.4-17.4-4.3c-53,1-106,1.7-159,2.7c-5.1,0.1-11.1-2-15.3,3.9
			c5.7,11.6,11.9,23.1,17.2,35c20.7,46.8,26,95.7,13.8,145.2c-21.4,87.2-70.7,150.2-161.9,171.1c-69.5,15.9-131.9-5.2-189.2-44.1
			c-34.5-23.4-56.6-56.2-65.5-96.7c-10.5-47.8-4.2-94.4,15-139.3C1946.7,2222.2,1961.9,2199.4,1977.4,2171.7z M1773.8,2170.8
			c-67.4,0-129.2-0.4-191.1,0.2c-20.2,0.2-38.9-3.5-53-18.2c-8.4-8.7-12.9-7.3-21.5-0.4c-38.2,30.5-81.7,40.7-129.9,31
			c-10-2-20-4.1-30.6-3.5c-47.4,2.8-94.8,4.9-142.2,7.5c-31.6,1.7-63.2,4.1-94.8,5.7c-10.9,0.6-12.7,4-7.8,13.7
			c7.7,15.3,14.7,31,21.3,46.9c47.8,115,62.4,234.2,48.4,357.8c-6.1,54.5-16,107.7-42.1,156.2c-7.7,14.4-3.5,20.2,7,28
			c47.4,35.2,100.7,56.1,158.8,64.3c115.8,16.3,225.3-9,331.6-52.9c17.4-7.2,31.9-18.7,44-33.3c10.9-13.3,12.6-23.8-0.2-39.2
			c-59.9-71.7-82.1-155.1-66-246.8c17.6-100.2,62.9-188.5,124.9-268.4C1742.9,2204,1756.9,2189.8,1773.8,2170.8z M1004.5,2200.1
			c1.5,3.8,2.1,5.7,3,7.5c52.2,102.3,30.5,219.9-57.2,293.7c-88.1,74.2-191.5,90.2-300.8,65.6c-135.8-30.6-191.8-136.2-146.2-267.8
			c10-28.7,23.4-55.7,39.9-81.2c5.8-9,5.4-13-6.4-16.5c-17.7-5.3-35.3-12.1-51.4-21c-12.5-6.9-18.8-3.9-27.2,6
			c-34.7,41-69.5,82-99.2,126.7c-41.2,62.1-79,126-80.2,204c-2,126.3,36.5,234.9,141.4,311.9c71.3,52.4,155,72.5,241.6,80.6
			c97.6,9.1,189.1-18.7,280.6-47.8c93.8-29.9,148.6-94,168.9-187.9c33.3-153.7,16.5-302.1-53.2-443.9
			C1042.2,2197.6,1042.4,2197.5,1004.5,2200.1z M537.3,1410c4.1,109.4,7.4,211.9,11.3,314.4c2.7,71.5,30.9,129.2,80.5,177.2
			c72.5,70,163.7,104.6,261.2,109.4c116.6,5.7,233.9-2,350.9-3.5c12.3-0.2,14.7-5.4,14.5-16.3c-0.6-28.9-1.1-57.9,0.2-86.7
			c0.7-16.6-4.1-21.4-20.7-19c-100.1,14.5-198.9,4.6-297.1-17.1c-77.2-17.1-149.2-44.6-204.5-104.1c-46-49.4-79.6-104.7-82-175.1
			c-1.3-37.1-6.8-74-9.4-111.1c-9.2-128.6-9.9-257.3,0.9-385.8c8.4-100,19.5-199.8,30.7-299.5c8.1-72,22.3-142.8,52.7-209.1
			c39.2-85.4,102.3-142.2,196.9-159.1c25.7-4.6,51.8-7.3,77.8-9.5c79.1-6.7,158.2-4.6,237.1,2.5c13.8,1.2,18.4-2.3,17.6-16.2
			c-1-17.8-1.4-35.9,0.1-53.7c1.2-14.8-4.8-20.3-18.1-24c-62.6-17.2-125.8-29-190.9-29.8c-171.4-2.2-324.6,70-399.5,255.7
			c-49,121.5-80.5,248-93.3,378.6C538.2,1090.5,537.5,1253.7,537.3,1410z M2202.2,843.9c3.3-81.8,11-163.6-0.5-245.2
			c-11.1-78.1-36.8-150.6-99.6-202.6c-87-72-187.9-84.9-293.8-55.7c-100.1,27.6-167.8,89.6-182.4,197.5
			c-5.1,37.7,0.5,74.5,24.9,105.6c16.9,21.4,34.5,20.9,50.4-1c8.4-11.6,14.9-24.7,21.2-37.6c19.1-39.1,40.6-76.6,72.3-107.2
			c94.3-90.9,218.4-66.4,278.2,46.9c22.6,42.8,31.1,89.3,33.9,137c6.4,111.7-1.7,222.8-17.7,333.3c-11.1,76.9-23.5,153.6-56.7,225.1
			c-50.6,109-138,163.8-255.6,174.4c-63.7,5.7-126.5-2-188.6-14.9c-19.1-4-24.2,0.6-22.6,19.3c1.5,17.8,1.7,35.9,0,53.6
			c-1.7,17.6,5.6,22.2,21.6,23c72.9,3.7,145.7,8.9,218.6,1c81.8-8.9,159.5-30.2,227.1-79.2c89.3-64.8,128.1-158.8,148.1-262.8
			C2200.6,1051.8,2196.1,947.5,2202.2,843.9z M658.7,2220.5c0-0.4-0.1-0.9-0.1-1.3c-14.4-1.1-28.8-2.1-43.2-3.2
			c-6.4-0.5-11.8-0.3-15.8,6.3c-23.8,38.7-47.3,77.6-57,122.8c-16.3,75.4,11.2,133.8,83.2,160.9c98.9,37.2,195.5,27.9,282-35
			c77.5-56.4,100-166.6,54-241.2c-11.9-19.3-25.4-27.8-50-25.7C827.6,2211.2,743.1,2215.2,658.7,2220.5z M1868,1793.2
			c81.8-2.7,136-14.6,187.8-36.2c82.7-34.5,153-84,193.4-167.5c41.9-86.7,20.4-199.9-48.1-254.7c-20.1-16.1-20-16-32.4,5.1
			c-4.9,8.3-9.6,16.8-15.6,24.2c-7.4,9.3-7.4,16.2-0.5,26.8c37.9,57.7,36.4,133.1-2.4,188.4c-36.8,52.6-109.2,78.7-175.9,62.2
			c-12.6-3.1-18.9-0.6-26.4,10c-36,51.3-102.8,74.1-164.6,57.5c-59.3-15.8-105.7-68.6-109.8-130.3c-1.6-23.9-9.3-30.3-32.2-30.6
			c-17.6-0.2-21.2,5.8-21.6,20.8c-1.1,42,10.8,80.2,33.6,114.9C1710.3,1770.8,1797.4,1791.9,1868,1793.2z M2141.9,2172.5
			c-26.1,0-52.3,1-78.3-0.4c-15.7-0.8-25.5,4.9-34.5,16.9c-18.6,24.9-34.7,51.4-46.6,79.9c-29.5,70.3-23.7,150.4,64.9,192.6
			c71.8,34.2,155.4,22.6,199.9-31.7c59.8-72.9,60.9-170.6,3.2-245.1c-7.1-9.2-14.8-12.6-26.1-12.4
			C2196.8,2172.9,2169.3,2172.5,2141.9,2172.5z M1925.6,1561.8c0-2.8,0.1-5.5,0-8.3c-1.2-26.8-2.6-27.7-28-21.5
			c-49.7,12.2-100.2,17.1-151.2,18.5c-25.2,0.7-27.6,3.6-22.9,29c10.1,54,55.4,88.1,110.6,83.2
			C1887.8,1658,1925.4,1616.6,1925.6,1561.8z M2110.2,1418.2c-31,28.9-61.9,55.9-99.5,71.2c-30.4,12.4-47.9,27-34.6,61.7
			c1.4,3.6,0.7,8.2,0.6,12.3c-0.7,30,1.2,32,32.4,32.6c4.8,0.1,9.7,0.4,14.4-0.1c42.3-4.6,76.7-22.6,94.9-62.5
			C2135.8,1494.8,2132.9,1456.4,2110.2,1418.2z M1661.2,1224.2c21.1,4.2,22.7-12.3,23.8-27.6c1.6-21.5-12.7-38.5-31-38.4
			c-18.4,0.1-37.6,17.7-37.5,34.3C1616.7,1211.8,1632.9,1223.8,1661.2,1224.2z"/>
		<path class="st0" d="M1787.9,834.8c59.5-1,107.4,49,108.3,113.3c0.9,59-41.1,101.9-100.2,102.4c-59.9,0.5-108.7-48.1-109.1-108.8
			C1686.5,882.9,1731,835.8,1787.9,834.8z M1845.7,949.3c-0.2-35.4-27.2-65.7-58.2-65.4c-27,0.3-49.8,27.1-49.4,58
			c0.5,33.3,24.5,57.4,57.4,57.4C1826.4,999.3,1845.8,979.9,1845.7,949.3z"/>
		<path class="st0" d="M1890.5,650c46.8,0.2,84.2,36,84.4,80.8c0.2,46-35.1,83.4-79,83.8c-47.6,0.4-83-36.3-82.9-86.2
			C1813,682.6,1845.4,649.8,1890.5,650z M1891.1,701c-18.4,0.3-27.9,9.8-27.8,28c0,20.8,13.3,35,32.2,34.6
			c15.5-0.3,28.9-14.7,29.2-31.3C1924.9,714.9,1909.7,700.7,1891.1,701z"/>
		<path class="st0" d="M1085.9,1364.5c-14.2-1.6-28.7-2.9-40.8-11.7c-17-12.3-16.6-30.8,0.7-42.4c17.4-11.7,54-10.4,70.6,2.4
			c16.6,12.8,14.5,34.7-4.6,46C1103.9,1363.5,1095.3,1366.2,1085.9,1364.5z"/>
		<path class="st0" d="M1089.5,1183.2c-14,0.2-27.3-2.8-39.6-9.3c-9.6-5.1-16.3-13.2-15.7-24.7c0.6-11.5,8.1-18.6,18.2-22.9
			c14.4-6,29.2-7.1,44.4-3.4c23.1,5.5,33.4,16.7,31.2,33.9C1126,1172.7,1110.9,1183,1089.5,1183.2z"/>
		<path class="st0" d="M1080.8,976.2c7.5,0,14.9-0.3,22.3,2.7c14.1,5.6,26.7,12.3,25.3,30.4c-1.4,17.5-14.8,24.4-28.9,27.6
			c-19.6,4.4-38.5-1.3-54.7-12.3c-15.3-10.4-14.1-28.7,1.1-39.5C1055.9,977.9,1062.9,976.1,1080.8,976.2z"/>
		<path class="st0" d="M1085.8,860.3c-13.9-1.9-26.9-3.2-38.7-9.2c-10.4-5.3-18.1-13.2-17.5-25.6c0.6-11.4,8.1-18.7,18.3-22.8
			c17.9-7.1,36.4-7.5,54.2-0.3c12.2,5,23.5,12.1,21.9,28.5c-1.5,15.3-12.1,22.2-25,26.7C1094.5,859.1,1089.6,859.5,1085.8,860.3z"/>
		<path class="st0" d="M1076.5,1480c10.3-1,19.6,0.4,28.7,4.3c12.3,5.2,21.3,13.1,20.3,27.7c-1,13.9-9.5,22.5-22.4,26.6
			c-21.9,6.9-42.5,1.6-60.9-10c-15.7-9.9-14.3-30.8,1.4-41.3C1053.6,1480.4,1065.1,1478.8,1076.5,1480z"/>
		<path class="st0" d="M1087.4,1690.3c-11.3-1.4-24.2-3.5-36.1-9.1c-10-4.7-17-12.4-17-23.8c-0.1-12.4,8-19.7,18.7-24.6
			c13.1-6.1,27-4.9,40.5-3.6c22.6,2.1,36.4,15.7,35,32.7C1127,1678,1109.8,1690.4,1087.4,1690.3z"/>
		<path class="st0" d="M1086.2,712.2c-14,0.1-27.2-3.6-39.6-9.5c-9.8-4.7-15.7-13-15.1-24.8c0.6-12,8.2-19.4,18.2-22.7
			c14.2-4.6,28.9-7.6,44.2-3.5c23.1,6.2,32.7,16.4,30.7,34.1C1122.7,702.1,1108,712.2,1086.2,712.2z"/>
		<path class="st0" d="M2479.1,2563.9c0,46.5-37.1,84.1-83.3,84.4c-46.5,0.3-85.4-38.8-84.7-85.4c0.7-46.3,38.1-83,84.6-82.9
			C2442.1,2480.1,2479.1,2517.3,2479.1,2563.9z M2394.7,2597c18,0.3,33.2-13.7,34.1-31.5c0.9-18.3-14.5-34.8-32.9-35.1
			c-17.8-0.3-33,14-33.7,31.8C2361.4,2581.5,2375.6,2596.7,2394.7,2597z"/>
		<path class="st0" d="M2041.4,2612.6c0,46.9-36.9,84-83.6,84.1c-46.8,0-84-37.1-84.1-83.8c-0.1-46.9,36.8-83.8,83.8-83.8
			C2004.6,2528.9,2041.3,2565.5,2041.4,2612.6z M1991.1,2613.1c0.2-18.5-15.5-34.1-34-33.9c-18,0.2-32.3,14.8-32.5,33
			c-0.2,19.8,13.5,33.3,33.6,33.1C1976.7,2645.1,1990.9,2631.2,1991.1,2613.1z"/>
		<path class="st0" d="M480.7,2748.9c-46.7-0.3-83.7-37.6-83.3-83.7c0.5-47,38-82.8,86.6-82.6c45.9,0.2,82.8,38.5,82,84.9
			C565.1,2713.8,527.9,2749.2,480.7,2748.9z M481.8,2632.9c-18.4,0-32.7,13.7-33.2,32c-0.6,19.1,14.1,34.1,33.3,34
			c18.1-0.1,33-14.3,33.6-32C516.1,2648.5,500.8,2632.9,481.8,2632.9z"/>
		<path class="st0" d="M792.9,2677.4c-0.2-46.6,36.5-84.3,82.8-85c46.3-0.7,85.7,38.4,85.4,84.9c-0.3,46-38.3,83.7-84.3,83.7
			C830.7,2760.9,793.1,2723.5,792.9,2677.4z M876,2643.6c-17.6,0.4-32.7,15.6-32.9,33c-0.2,18.3,15.9,34,34.3,33.5
			c19.1-0.5,33.2-15.9,32.3-35.1C909,2656.7,894.4,2643.1,876,2643.6z"/>
		<path class="st0" d="M676.9,2338.2c0.2-49.1,35.9-85.7,82.9-85.1c46.2,0.6,83.1,38.3,83,84.8c-0.1,46.3-37.6,84-83.7,84.2
			C712.8,2422.2,676.7,2385.4,676.9,2338.2z M758.9,2370.3c17.9,0.2,32.9-13.9,33.6-31.6c0.7-18.7-14.2-34.1-33.1-34.2
			c-19.2,0-32.3,12.6-32.8,31.7C726,2356.5,738.9,2370.1,758.9,2370.3z"/>
		<path class="st0" d="M2130,2244c47.7,0,84.2,35.5,84.2,82c0,46-37.7,83.6-83.9,83.9c-47.3,0.2-85.7-38-85.2-84.7
			C2045.6,2278.6,2081.8,2244,2130,2244z M2163.2,2325.7c-0.3-18.7-15.6-32.8-35.1-32.2c-18.2,0.6-32.4,15.2-32.1,33.1
			c0.3,17.6,15.4,32.6,33,32.9C2147.3,2359.9,2163.4,2344,2163.2,2325.7z"/>
	</g>
</g>
</svg>
