<?xml version="1.0" encoding="utf-8"?>
<!-- Generator: Adobe Illustrator 23.0.0, SVG Export Plug-In . SVG Version: 6.00 Build 0)  -->
<svg version="1.0" xmlns="http://www.w3.org/2000/svg" xmlns:xlink="http://www.w3.org/1999/xlink" x="0px" y="0px"
	 viewBox="0 0 3000 3000" style="enable-background:new 0 0 3000 3000;" xml:space="preserve">
<style type="text/css">
	.st0{stroke:#000000;stroke-width:10;stroke-miterlimit:10;}
</style>
<g id="Layer_1">
</g>
<g id="Layer_2">
	<g>
		<path class="st0" d="M747.9,2370.2c-4.3,23.7-6.3,41.6-10.9,58.7c-28.3,105-135.2,162.8-250.6,136.1
			c-49.5-11.5-93.4-34.6-132.6-66.1c-16.5-13.2-32.4-18.2-53.8-17.3c-110.2,4.8-192.9-62-208-165.9c-1.2-8.4-3.4-17.5-1.4-25.3
			c11.3-43.1,8-86.4,6.8-130.2c-1.5-53.3,6.2-106.5-2.7-160.3c-11.2-67.7-2.6-135.4,12.6-201.9c2.9-12.6,2.1-22.1-5.1-33.9
			c-20-33-16.7-71.1-16.9-107.5c-0.2-32.9,3.3-65.9,15.9-97.1c2.8-6.9,5.2-12.7,1.2-21.1c-23.8-50.5-15.8-100.8,2.7-150.8
			c3.4-9.1,9.6-16.6,2.7-28.7c-48.6-85.6-34.5-168.5,15.1-248c9.1-14.7,11.2-22.7,0.3-38.3c-37.7-53.9-30.3-110.3-1.9-165.6
			c13.4-26.2,31.6-49.1,53-69.3c7.6-7.2,13-12.4,6.7-25.8C129.4,703.3,198.9,569,319.6,542.1c1.8-0.4,3.7-0.8,5.6-0.9
			c24-0.9,30.8-8.7,25.4-35.6c-19.5-98.3,59.9-189.9,165.9-195.6c37.3-2,73.4,3.7,107.9,17.5c11.9,4.8,18.5,5.9,26.9-7.6
			c39.4-63.9,108.8-91.4,185.7-75.8c33.4,6.8,65.5,17.4,95.6,33.2c10.6,5.6,18.2,7.5,25.1-5.7c34.6-66.7,138.3-93.2,219.4-42.4
			c27.5,17.3,50.6,39,68.5,66.3c4.4,6.7,7.4,19.6,19.8,6.1c67-73.4,157.8-60.2,233-17.6c55.4,31.4,99,75.1,122.6,135.8
			c3.7,9.4,5.5,18.8,18.6,8.8c95.2-72.5,208.4-83.8,321.6-89.4c122.3-6,244.9-12.7,367.4-6.3c120.1,6.2,236.8,25,347.2,78
			c196,94.1,265.1,241.5,259.4,441.9c-5.4,189.8-8.8,379.6-17,569.3c-11.2,260.3-34.7,519.1-124.2,766.8
			c-56.8,157.3-146.8,288.1-297.3,370.5c-118.6,64.9-246.9,91.9-380.4,90.4c-65.3-0.7-129.7,5.2-194.3,10.2
			c-241.9,18.6-483.8,27.3-725.4-2.4c-67.3-8.3-133.9-21.5-197.8-45.4c-111.4-41.7-192-116.7-242.3-224.3
			C754.6,2383.5,752.5,2379.5,747.9,2370.2z M2872.8,1298.3c1.3-13.3,2.4-20.4,2.6-27.6c1.6-59.4,3.7-118.7,4.5-178.1
			c1.4-108.3,11.8-216.7,4.7-325c-7.6-115.2-59.5-207.3-155.5-272.1c-103.9-70.1-220.8-102.6-344.8-111.9
			c-173.6-13-346.8-3.9-519.6,11.7c-125.6,11.4-226.5,65.9-290.6,179c-12.1,21.3-26.3,41.3-39.4,62
			c-81.4,129.1-178.2,245.2-290.9,348.3c-57.7,52.7-122,98.2-173.3,157.9c-119,138.5-194.6,298.9-239.6,474.8
			c-29.1,113.4-39.4,229.9-55.9,345.3c-12.2,85.4-31.6,170.2-17.8,258c25.7,163.4,99.8,289.8,262.5,348.1
			c133,47.7,273,52.7,412.3,59.8c7.7,0.4,14.7,0.7,16.4-10.3c10.7-70.9,44.6-133.5,72.6-198c35.3-81.2,80.5-155.7,150.6-212.2
			c52.6-42.4,111.2-71.1,180.5-70.4c43.7,0.5,71.5,31,71,74.7c-0.3,29.9-14.4,54-32.9,76.2c-78.5,94.1-140.9,197.6-184.8,312.3
			c-7.5,19.7-6.5,25.8,17,24.3c169.1-10.5,338.8-13.8,507.1-31.2c185.6-19.2,339.8-101.7,443.8-263c37.4-58,64.8-121.2,86.8-186.5
			c44.1-130.8,68.9-265.7,85.5-402.6c14.8-122.7,23.2-245.8,26.9-369.2c0.2-7.2,7.7-20.7-6.7-21.6c-12.9-0.8-17.7-9.8-24.5-16.8
			c-53-55.5-111.5-104.3-176.1-145.7c-33.3-21.3-67-41.9-105.3-54c-49.2-15.5-91.1-7.3-123.5,35.2c-8.6,11.2-17.4,22.3-25.3,33.9
			c-75.2,109.7-144.5,222.9-205.7,341c-10.6,20.5-20.1,14.6-35.2,7.9c-17.8-8-14.7-16.6-7.3-30.3c39-72.1,79.2-143.5,123-212.8
			c37.2-58.9,72.5-119.4,117.2-173.1c45.1-54.1,104.3-69.4,170.5-46.9c28.6,9.7,55.8,22.2,81.8,37.6
			C2733.7,1173.2,2804.5,1228.9,2872.8,1298.3z M333.7,1725c-2.9,87.8-0.6,175.5,17,261.8c23.3,113.6,74,209.5,184.5,262.1
			c50.9,24.2,104,32,159.4,17.9c13.7-3.5,20.4-9.2,18.1-25.5c-4-27.9-5.4-56.2-7.4-84.4c-0.6-8.9-3.4-13.1-13.1-14.1
			c-109.3-11.9-162.2-83.2-185.2-181.7c-23.2-99-23.4-200-15.7-300.8c17.4-227.6,85-439.1,208.1-631.8
			c43.7-68.4,99.8-124.6,173.9-161.4c107.8-53.6,264.5-24.3,322.5,76.9c9.6,16.7,16.1,5.3,23.1-1c87.6-78.2,161.2-168.7,230.9-262.8
			c9.6-12.9,4.4-19.6-5.5-27.6c-33.7-27-72.4-44.2-113.9-54.1c-118-28.1-238-39.3-358.9-32.2c-102.5,6-201.6,26.8-289.4,84.8
			c-108.3,71.6-170,177.1-211.7,295.5C381.7,1198.3,343.2,1459.2,333.7,1725z M686.5,1151.2c4.4,90.2,98.1,178,186.4,177.5
			c16-0.1,20.6-9.1,26.6-20.1c61-111.7,136.3-211.9,235-293.4c35.7-29.5,35.9-37.4,2.5-71.2c-8.5-8.6-18.2-16.5-28.3-23.2
			c-88-57.8-219-38.1-290.7,43.5c9.9,8.5,23,7.2,34.4,11.2c64.6,22.7,104.2,83,90,138.3c-14.9,58-81,92.8-149,80.7
			C754.6,1187.5,721.8,1167.2,686.5,1151.2z M1383.7,297.3c-43.8-1.1-76.3,18.8-97.7,55.7c-26.5,45.7-32.5,95.7-29.8,148.1
			c1.3,26,9.2,37,36,41c65.8,9.8,128.4,30,180.6,73.7c12.9,10.8,16.8,3.4,22.8-5.9c25.1-38.6,46.9-79.6,76.5-115.1
			c12.4-15,13.7-29.3,8.6-46.9C1558.4,370.8,1465.1,299.1,1383.7,297.3z M1570.5,2629.6c0-0.1,0-0.3,0-0.4c14.1,0,28.5-1.6,42.4,0.3
			c25.1,3.5,35.9-7.3,43.9-30.7c35.9-104.1,89-199.3,155.1-287.3c18.1-24.1,37.3-47.4,54.7-71.9c9.4-13.4,15.4-29.5,4.6-44.9
			c-10.3-14.7-26.5-11.5-41.5-9.1c-80.2,12.7-140.2,58-188.1,120.2c-67,87.1-103.9,189.3-141.5,291c-1.9,5.2-1.5,11.3-3.1,16.6
			c-3.7,12.9,1.6,16.7,14,16.3C1530.9,2629.1,1550.7,2629.6,1570.5,2629.6z M539.1,355.8c-58.8,1.7-103.3,20.9-131,68.2
			c-26.5,45.3-14.8,89.3,11.6,130.4c32.9,51.3,75.9,93.2,123.6,130.9c11.4,9,18,8.6,27.7-2.1c32.5-35.9,70.7-65,113.2-88
			c16.1-8.7,19.5-14.9,7.9-31.1c-30.3-42.4-54.4-88.2-59.2-141.4c-4.2-46.9-3.6-47.3-49.1-58.9C567.5,359.7,550.6,357.8,539.1,355.8
			z M603.3,1551.9c-52.7,0.2-54.4,1.6-60,53.3c-0.6,5.6,0,11.5-1.4,16.9c-6.3,23.8,2.5,29.5,26.5,29.4
			c67.5-0.1,120.1,33.4,137.9,83.8c28.9,81.9-27.6,167.2-119.7,180.7c-42.7,6.3-42.8,6.3-30.5,49.5c7.3,25.5,18,49.7,33.9,70.9
			c22.8,30.4,52.2,50.6,90.4,58.1c20.1,4,28.8-0.7,31.7-22.3c16.3-122,31.6-244.3,52.2-365.6c6.6-38.8-5.4-66-27.6-92.4
			C702.1,1572.7,657.2,1552.3,603.3,1551.9z M209.5,738.4c-0.4,42.2,16,66.8,54.6,78.8c54.6,17,109.8,32.4,164.2,49.9
			c16.6,5.3,23.2,0.7,29.8-14c16.5-37,36.3-72.4,60.1-105.2c9.1-12.5,6.2-18.4-5-26.8c-46.7-35.5-87.9-76.8-122-124.7
			c-7.7-10.8-17-13.3-29-13C278.9,585.6,210.3,655.1,209.5,738.4z M940.1,377.1c-12.7-21.2,8.7-41.6-17.8-53.1
			c-35.4-15.5-70.5-30.8-109.2-35.8c-87.4-11.2-148.3,53.3-132.3,139.7c8.8,47.7,34.9,86.6,60.7,125.9c7.5,11.4,15.9,6.7,24.5,3.6
			c48-17.4,97.7-27.6,148.3-32.4c19.3-1.8,26.2-9.5,26-27.7C939.9,455.1,940.1,412.9,940.1,377.1z M1183.5,526.4
			c24.4,9.9,29.1-5.8,26.7-33c-3.6-40.6,0.4-81,13.6-119.9c3.4-10,2.7-17.9-2.2-26.7c-14.4-25.7-31-49.6-54.6-67.6
			c-39.8-30.2-83.7-39.5-130-18.7c-45.2,20.4-53.3,62.3-54.8,106.3c-0.2,5.6,0.2,11.3,0.4,16.9c1.8,39.5,4.5,78.9,5,118.4
			c0.2,16,8.3,15.8,19.5,15.7C1063.6,517.4,1120,518.5,1183.5,526.4z M786.9,1599.4c20.1-80.4,47.5-152,78.2-223.6
			c-100.3-13.6-170-65.7-213.4-158.7c-42.3,91.7-69.9,183.9-90.5,278.5c-2,9.3,2.1,11.2,10.8,10.3
			C658.5,1496.3,728.3,1527.4,786.9,1599.4z M146.1,993.2c0.3,41.2,19.8,69.7,57.5,85.5c45.7,19.1,95,22.1,142.6,32.8
			c19.9,4.5,26.5-2.7,30.6-20.5c12.1-52.3,27.5-103.8,47-153.8c6.5-16.6,3-22.3-13.7-27.1c-57.8-16.6-115.2-34.6-172.6-52.6
			c-6.7-2.1-11.5-4.4-17.6,1.4C181.3,896,147.2,935.6,146.1,993.2z M291.7,2434c90.3,2.5,163.2-65.1,199.7-138.8c2-4,4.8-8,2.3-13.1
			c-6.2-12.4-61.1-36.2-75.5-32.6c-85.8,21.4-172.2,31.3-259.9,13.7c-18.2-3.7-17.8,6.9-19.2,18.5C128.6,2365.6,197,2434,291.7,2434
			z M385,2463.9c34.9,25.6,68.8,44.3,107.7,53.8c124.4,30.5,220.9-54.9,205.8-181.5c-1.6-13.5-4.3-20.1-20.2-18.2
			c-41.3,5-82.4,2.7-122.3-10.6c-10.1-3.4-16.9-2.9-22.5,8.4C501.4,2380.5,454,2430.9,385,2463.9z M287.9,1357.5
			c9.5-7.2,30,15.8,35-14.5c9.1-54.6,20.9-108.8,32.1-163.1c2.8-13.6,0.6-19.7-15.2-22.3c-51.8-8.7-104.5-14.1-153.5-34.7
			c-11.1-4.6-15.5,0.5-20.5,7.8c-37.6,55.1-50.4,114.3-30.7,179.3c6.7,22.2,20.3,34.9,44,37C214.8,1350,250.3,1353.8,287.9,1357.5z
			 M398.5,2204.2c-32.1-40.9-55.3-83.7-72.3-129.7c-3.5-9.4-9.5-12.7-19.3-12.7c-48,0.1-96,0-144-0.5c-12.4-0.1-16.1,5.8-16.3,17.3
			c-0.5,34.8-1.6,69.6-2.5,104.4c-0.6,21.7,10.7,33.8,31.4,36c23.3,2.6,46.8,4.7,70.3,4.8C296.5,2224.3,346.8,2220.7,398.5,2204.2z
			 M222.3,2012.8c0,0.3,0,0.7,0,1c22.6,0,45.1-0.4,67.7,0.2c12.3,0.3,16.8-3.9,14.5-16.5c-11.1-60.2-17.3-121-17.5-182.3
			c0-13.6-5.3-17.9-18.5-17.4c-31,1.1-62.1,1.9-93,0.9c-17.1-0.6-21.9,6.4-25.2,21.9c-12.7,58.5-13.6,117.4-9.8,176.8
			c0.8,12.8,5.5,15.9,17,15.6C179,2012.4,200.7,2012.8,222.3,2012.8z M218.2,1751.6c15.1,0,30.2-0.9,45.2,0.2
			c18.4,1.4,24.3-5.8,24.3-24.2c0.1-36.7,2-73.4,4.7-110c1.1-14.8-4-20.4-18-21.4c-21.6-1.5-43.2-6.3-64.6-5.3
			c-23.1,1.1-50.5-21.9-66.8-1.8c-15.1,18.6-9.7,48.7-9.8,74.2c0,2.8,0.2,5.6,0.3,8.5C136.1,1753.3,136.1,1753.3,218.2,1751.6z
			 M135.5,1470c-1,47.2,11.8,64.5,56.6,71.3c28.7,4.4,57.9,5.2,86.8,8.2c12.7,1.3,18.8-2.4,20-16.1c3.1-34.6,6.9-69.1,11.6-103.5
			c2.2-16.1-1-24.2-19.1-25.2c-29-1.5-57.9-5.9-86.8-7.9c-56.1-4-64.4,3.8-68.9,61.9C135.2,1462.4,135.5,1466.2,135.5,1470z
			 M775.9,1010.1c-16.7-2.7-24.2,24.7-35.7,43c-39.1,62.4-51.7,46.4,25.4,83.9c26,12.6,54.1,16.7,82.4,9.1
			c51.9-14,65.2-63.3,27.9-102.1C852.8,1019.7,821.9,1015.7,775.9,1010.1z M551.6,1696.7c-11.2-2.4-17.1,6.7-16.4,24.8
			c1.2,32,1,64.1,1.8,96.1c1.4,58.3,13.2,65.8,69,44c7-2.7,13.7-6.3,20-10.4c29.8-19.4,45.6-55,39.3-87.6
			c-7.1-36.6-33.4-52.9-66.4-61.1C586.3,1699.5,572.8,1699.2,551.6,1696.7z"/>
		<path class="st0" d="M1942.8,1586.9c153.5-2,283.3,44,402,122.5c158.4,104.7,219.7,274.5,168.7,459.3
			c-35.3,127.7-108.4,230.8-207.2,317.1c-9.8,8.5-18.7,20.4-31,2c-8.8-13.3-20.2-21.7-0.2-38.3c69.9-57.8,124.5-128.4,162.8-210.8
			c102.3-219.8,32-418.9-183.6-529.2c-154.8-79.2-314.7-91.6-483.1-54.5c-192.6,42.5-364.1,120.3-496.7,270.8
			c-107.4,121.9-170.8,264.8-200.1,423.7c-2.9,15.7-6.2,31.5-7.2,47.3c-1.3,21.4-9.8,28.5-31.8,24.7c-14.4-2.5-18.8-5.5-16.8-20.7
			c18.2-142.1,61.4-275.5,138.6-396.8c129.1-203,315.6-324.4,546.7-381.2C1785.4,1602.9,1867.2,1584.7,1942.8,1586.9z"/>
		<path class="st0" d="M2186.5,1036.6c-132.3,16.1-261.3,46.6-387.3,89.4c-134.1,45.5-262.5,103.8-383.5,177.6
			c-16.1,9.8-23,7.5-32.7-8.3c-9.5-15.6-9.2-22.9,7.3-32.7c234.7-138.7,486.6-228.8,756.4-268.4c24.2-3.6,47.9-8.2,72.7-0.6
			c45.5,13.9,58.8,53.8,26.3,88.9c-46.7,50.5-94.3,100.2-137.5,153.9c-75.8,94.2-143.7,193.7-199.8,300.8
			c-11.4,21.7-20.2,16.1-36.8,9c-22.1-9.4-11.7-20-5.1-32.1c90-165.9,200.9-316.3,333.2-450.9c5.7-5.8,17.2-11.2,12.7-19.8
			C2208,1035.3,2195.8,1037,2186.5,1036.6z"/>
	</g>
</g>
</svg>
