<?xml version="1.0" encoding="utf-8"?>
<!-- Generator: Adobe Illustrator 23.0.0, SVG Export Plug-In . SVG Version: 6.00 Build 0)  -->
<svg version="1.0" xmlns="http://www.w3.org/2000/svg" xmlns:xlink="http://www.w3.org/1999/xlink" x="0px" y="0px"
	 viewBox="0 0 3000 3000" style="enable-background:new 0 0 3000 3000;" xml:space="preserve">
<style type="text/css">
	.st0{stroke:#000000;stroke-width:10;stroke-miterlimit:10;}
</style>
<g id="Layer_1">
</g>
<g id="Layer_2">
	<g>
		<path class="st0" d="M254.4,1477.7c-2-2.3-3.2-4.6-5-5.5c-132-65-196.4-178.4-217.9-317.2C-12.4,871.2,162,609.9,440.9,548.5
			c188.3-41.4,356.9,4.7,492.7,147.8c13,13.7,15.6,10.6,23.2-3.8c74.5-141.4,188.4-233.4,346.6-263c127.9-23.9,242.8,3.5,321,115.8
			c75.3,108.2,74.2,226.4,27.2,345.9c-17.3,43.9-42.2,83.9-70.9,121.4c-1.7,2.2-2.6,5.1-4.9,9.7c85.6-11.3,168.9-23.3,252.7-31.4
			c83.8-8.1,167.7-11.8,256.9-11.7c-9.2-8.7-15-14.1-20.7-19.6c-71.2-68.5-90.1-160.1-50.6-250.5c18.6-42.6,42.6-82.1,69.9-119.7
			c57.8-79.4,139.3-115.1,233.7-125.2c144.8-15.4,288.7-8.5,429.9,28.1c124.9,32.3,184.4,110.2,192,246.8
			c5.8,105.4-34.3,192.6-110.3,264.3c-4.9,4.6-9.9,9.1-15.2,13.9c62.8,45.6,82.4,111.6,79.7,182.9c-4.9,130.5-12.5,260.9-42.5,388.9
			c-38.6,164.9-124.5,296.9-266.7,390.8c-2.5,1.7-4.8,3.7-7.1,5.7c-0.5,0.4-0.6,1.4-1,2.6c24.9,11.9,50.4,22.8,74.6,36.1
			c57.1,31.4,109.8,69,147.9,122.8c53.6,75.7,73.8,157.1,26.8,243.6c-32.9,60.6-88.4,95.3-152.3,116
			c-109.7,35.6-223.1,44.3-337.6,42.7c-48.6-0.7-96.8-4.8-144.8-14.4c-143.7-28.7-267.9-222.6-131.8-387.2c2.2-2.7,6.2-4.8,5.4-7.9
			c-54.8,0-109.1,0-164.7,0c10.7,58.7,14,113.6,1.1,168.7c-17.2,73.2-61.7,122.4-131.5,148.5c-82.3,30.7-168.8,44-254.9,57.8
			c-117.4,18.8-235.7,25.7-354.4,14.4c-64.3-6.1-128.4-14-189.6-36.3c-42.1-15.4-79.9-37.8-107-74.4c-9.7-13.2-16-12.1-28.5-3.9
			c-145.8,95.2-305.3,122.3-475.3,92.4c-77.8-13.6-151-40-214.6-88.6c-50.8-38.9-77-90.4-79.1-154.6c-4.9-147.4-5.5-295,1.1-442.3
			c5.9-130.9,58.6-240.6,162-323.9C237.5,1491.1,245.8,1484.5,254.4,1477.7z M1682,2104.7c6.2,0,12,0.1,17.8,0
			c106.4-1.5,212.8-0.8,319.1-5.1c128.6-5.2,255.7-22.4,377.4-67.5c217.6-80.5,366.7-223.6,419.5-456.3
			c23.5-103.5,29.1-208.9,37.7-314.1c3.4-42.3,6.3-85.1-4.8-126.9c-11.6-43.7-32.9-81.5-78.9-95.8c-46.9-14.6-86.4,4.5-120.7,35.6
			c-25.7,23.3-38.5,54-46.1,87.2c-21,92.3-28.2,186.1-27,280.5c0.3,21.2-12.2,17.2-24.6,19c-16.3,2.4-15.1-7.8-14.9-17.9
			c2.4-97.3,6.1-194.5,29.7-289.5c3.6-14.6-1.2-19.9-13-25.7c-36.8-18.1-74.2-34.8-112.4-49.6c-168.7-65.3-344.6-65.7-521.2-56.8
			c-115.3,5.8-229.7,22.4-343.8,39.2c-90.9,13.4-180.9,31.5-267.5,63.3c-153,56.1-263.4,154.2-309.9,315
			c-36.7,126.7-41.5,257.4-46.5,388c-0.1,1.5,2.1,3.1,3.7,5.4c50.9-57,108.8-103,179.6-130.8c152.1-59.7,309.2-74.1,469.7-46.6
			c84.6,14.5,162.6,40.9,178.4,144.4c14.4-8.8,27.6-14.6,41.7-17.5c14.1-3,28.4-6,42.7-6.6c122-5.5,195.5,54.5,175.3,182.7
			c-2.1,13.5-4.6,17.1-19,15.7c-15.9-1.5-21.6-6.4-19-22.2c1.8-11.2,2.5-22.7,2.5-34.1c-0.2-35.9-8.3-69.1-43.4-86.7
			c-48.8-24.4-99.4-25.6-149.7-4.4c-17.2,7.3-30.1,19.4-32.3,40.5c-8.3,80.8-41.4,151.6-88.8,216.5
			C1689,2089.6,1682.1,2094.1,1682,2104.7z M102.3,2040.8c0,54.7-0.4,109.5,0.2,164.2c0.4,31.8-1.4,64,6.5,95.3
			c16.3,64.5,65.2,98.4,120.5,125.3c98.3,47.8,202.9,61.9,310.7,52.4c100.7-8.9,194.6-39.6,278.5-97.6c8.9-6.2,17.3-10.8,14.2-24.9
			c-15.4-70.2,8.1-129.9,51.1-184.1c27.7-34.9,62.9-61.3,98.6-87.1c7.3-5.2,13.8-8.3,4.4-18.5c-52.3-57-67.9-127.6-71.7-201.8
			c-5.5-106.7,8.3-212.3,20.4-317.9c1.7-14.9,0.7-23.1-13.8-30.6c-50.7-26.2-102.7-49.3-157.4-65.5c-151-44.7-299.8-47.3-441.8,31.1
			c-126.9,70-202.8,175.6-215.4,322.7C100.5,1882.7,102.1,1961.8,102.3,2040.8z M588,572.4c-181.7,0-326.6,66-419.2,190.7
			c-120.3,161.9-142.5,338.8-54.9,523.4c35.2,74.2,91.5,130,171,159c9.3,3.4,16.5,3.5,25.4-1.2c118.3-62.8,243.9-76.2,373.9-51.8
			c28.1,5.3,52.7,2.1,76.8-9.6c121.3-59,181.5-160.3,200.1-290.5c4-28.1,0.1-52.5-12.6-78.6c-35.4-72.8-44-150.1-23.8-228.6
			c6.7-26.1-0.5-42.9-16.4-61.1C816,618.6,694.5,580.7,588,572.4z M1209.4,1022.7c0.8,0,1.6,0,2.4-0.1c0-19-1.5-38.1,0.3-56.9
			c5-52.8,8.7-106.2,31.8-155.3c21.5-45.8,70.8-69.2,114.8-55.9c49.5,15,75.7,57.6,68.2,110.9c-3.2,23-12.2,43.7-24,63.4
			c-12.5,20.8-25.6,41.3-38,62.1c-10.9,18.3-13.9,38.1-10.7,59.2c2.1,13.7,7.3,16.9,21.3,13.4c39.7-10.1,79.8-18.3,119.8-27.3
			c9.5-2.2,18.9-3.5,26.2-11.9c76.4-87.2,129.4-184.4,123.1-304.3c-8-149.9-111.7-271.7-287.1-258.3
			c-179,13.7-304.1,110.2-376.9,271.7c-65.8,145.8-10.5,321.8,118.8,398.4c33.1,19.6,64.9,33.2,98.3,1.8c1.6-1.5,3.8-2.6,6-3.3
			c10.5-3.6,12.5-10.6,11.5-21.2C1212.4,1080.4,1211.2,1051.5,1209.4,1022.7z M2901.6,760.8c-1.4-129.1-49.6-205.7-173.3-234.4
			c-129.9-30.2-261.3-38.6-393.9-25.9c-89.5,8.5-168.6,37.9-222.8,115.5c-25.7,36.9-48.9,75-66,116.7
			c-13.3,32.4-17.6,66.1-10.3,100.4c17.7,84.1,91,147.9,176.2,154.2c8.3,0.6,17,0.5,24.8,2.9c20,6.3,27.5-1.1,32.9-20.8
			c19.7-71.4,51.4-136.6,108.7-186.1c49.1-42.4,106-67.2,171.6-58.6c104.5,13.7,160.6,95.2,141.3,200.4
			c-4.7,25.4,8.9,53.1,32.9,67.4c15.1,9,55,6.2,67.7-5.4C2858.1,926.3,2902.2,854.4,2901.6,760.8z M1379.9,2104.9
			c76.4,0,133.7-3.6,190.2,1.1c45.6,3.9,72.7-13.4,96.8-49.5c49.6-74.5,83.9-152.9,78.6-244.5c-2.6-43.9-22.9-76.6-63.8-94.6
			c-16.6-7.3-33.9-13.5-51.5-17.7c-102.6-24.9-206-24.2-309.8-8.6c-131,19.8-250,63.6-338,169.2c-11.2,13.5-26.6,26.8-24.1,45.8
			c15.4,116.8,78.7,184.4,197.3,194.9C1236.9,2108.2,1318.1,2102.5,1379.9,2104.9z M2813,2294.9c-0.7-55.2-22.2-102.3-58.1-142.3
			c-57.6-64.2-129.4-106.9-211.3-133.1c-10.6-3.4-20.1-2.8-30.5,2.7c-89.6,46.7-184.9,75.7-284.1,93.6c-30.5,5.5-62.8,3.8-91.1,17.9
			c-82.3,40.8-122.7,155.9-84.2,239.2c34.6,75.1,91.5,120.3,175.1,130.9c16.3,2.1,20.5-1.2,23.1-16.8c7.3-44.2,23.9-84.7,56.4-117
			c37.7-37.5,83-52.6,134.8-39.2c48.3,12.5,73.8,48.5,85,95c4.6,19.1,6.8,39,5.1,58.8c-1,11.7,3.4,14.7,14.2,13
			c62.3-10.1,124.3-22.2,178.4-57.1C2778.4,2406.4,2813,2360.8,2813,2294.9z M1268.4,2497c83.8-1.4,158.1-6.6,231.6-18.5
			c88.3-14.3,177.1-27.1,261.2-59.2c45.5-17.4,78.7-48.5,95.3-95c19.8-55.3,17.6-111.8,7.1-168.5c-2-11.1-7.5-14.6-18.6-14.5
			c-63.8,0.7-127.6,0.9-191.4,0.6c-11.9-0.1-17.5,4.2-21.8,14.9c-19.7,48.9-46.2,93.4-83.6,131.3c-59.1,60-128.7,92.8-214.2,86.1
			c-115.1-9-191-105.9-170.1-218.3c2.6-13.8-2.4-15.2-13-16.4c-27.2-3.1-57-3.9-79.2-18.8c-38.5-25.7-64.9-11.1-94.9,13.9
			c-41.9,35-81.1,71.2-100.5,124c-25.6,69.8-5.7,131.5,56,172.9c19.6,13.2,41,23,63.7,29.8C1088.2,2488.9,1182.7,2494.8,1268.4,2497
			z M2682.1,1007.6c-30.3-32.8-34.6-68.4-24.9-108c10.6-43.2-7.9-77.5-39.6-104.9c-47.8-41.2-112-45.1-174.5-10.6
			c-80.6,44.5-115.7,121.1-140.5,204.3c-2.5,8.4,0.9,11.6,9.7,13.5c90.9,19.8,177.7,50.8,260.2,94.1c7.3,3.8,11.8,3.8,16.2-4.3
			C2609.2,1053.6,2640.9,1027.2,2682.1,1007.6z M1400.7,2142.3c0,0.2,0,0.4,0,0.6c-47.8,0-95.6,0-143.5,0
			c-57,0.1-63.3,6.9-59.2,64.8c0.4,5.3,1.4,10.5,2.6,15.7c18,76.8,98.6,127,183.4,112.2c104.6-18.3,165.1-88.9,207.3-179.9
			c7.9-17-5.1-13.1-13.1-13.2C1519.1,2142.2,1459.9,2142.3,1400.7,2142.3z M784.8,1416c49.8,17.5,96.7,35.1,140.4,59.3
			c16.2,9,22.5,9.9,27.4-11.4c15.8-69.4,43.3-134.1,85.3-192.1c23.2-32,51.7-59,82.6-87.9c-48.2-18.5-85.8-49.1-120.1-86.5
			C977.2,1238.7,911.9,1345.9,784.8,1416z M1253,1104.9c21-7.9,40-15.2,59.1-22.2c6.9-2.5,9.5-6.4,7.4-13.8
			c-13.4-48.2,4.1-89.1,30.5-128c14.4-21.3,29.6-42.3,36.3-67.8c5.3-20.3,7.2-40.5-5.7-59c-26-37-77.9-31.9-100.8,10
			c-16.8,30.7-19.7,65-24.7,98.6C1246.1,982.9,1245.4,1043.1,1253,1104.9z M2371.3,2510.7c0-0.3,0-0.6,0-1c22.7,0,45.8,2.5,68-0.8
			c18-2.7,43.5,8.1,53-12.3c8.2-17.7,2.4-40.2-0.7-60.5c-0.2-1.5-0.9-2.9-1.3-4.3c-17.5-65.2-81.6-88.5-137.2-49.9
			c-39.5,27.5-55.6,68.3-64.7,113.2c-2.6,12.8,3.6,15.8,14.8,15.7C2325.9,2510.4,2348.6,2510.7,2371.3,2510.7z"/>
		<path class="st0" d="M1900.8,836.2c22.6,23.5,37.5,49.7,28,83.8c-9.3,33.4-38.4,52.9-82.6,55.1c-38.9,2-70.2-18-83.7-53.4
			c-12.8-33.6-3.6-70.7,26-91.2c13-9.1,9.7-13.4,2.5-23.6c-22.7-32.3-20.3-74.2,4.2-100.9c25.6-28,71.6-32.9,109.1-11.7
			c36.1,20.4,52.9,57.5,42.4,93.7C1940.4,809.2,1931.5,818.6,1900.8,836.2z M1841.5,937.3c31.4-0.1,51.3-14.1,51.5-36.3
			c0.2-25.7-26.4-48.4-56.5-48.1c-26.1,0.3-41.7,15.9-41.1,41.1C1796,918.7,1815.9,937.4,1841.5,937.3z M1813.7,758.4
			c-0.3,25.5,19.8,45.5,45.9,45.7c30.3,0.2,51.3-14.5,51.7-36.1c0.4-25.5-25.5-48.6-55.1-49.2C1830.5,718.4,1814,733.7,1813.7,758.4
			z"/>
		<path class="st0" d="M1827,574.2c0.3-44.3,33.6-77.1,78.3-77.2c53.5-0.2,96.5,39.5,95.7,88.6c-0.7,43.1-37.2,72.5-90.4,72.7
			C1864.4,658.3,1826.7,620.4,1827,574.2z M1908.5,536c-26.8-0.4-43,13.6-44,37.9c-0.9,23.2,19.9,44.8,44,45.5
			c32.6,1,55.3-14.4,55-37.1C1963.2,557.8,1937.7,536.4,1908.5,536z"/>
		<path class="st0" d="M1750.9,1269.6c-64.3,15.8-120.2,41.5-172.2,76.2c-43.3,28.9-82.3,62.7-114,104
			c-11.3,14.8-18.9,10.5-31.3,1.9c-16.1-11.2-5.5-18.1,1.5-26.2c125.8-147.1,286.1-216.4,478.9-209.4c47.9,1.7,95,11.9,136.1,39.6
			c67.1,45.3,93.2,126.8,69.6,216.9c-7.2,27.4-19.4,52.6-32.5,77.5c-6,11.4-12.5,14.4-22.7,5.9c-7.6-6.4-21.5-7.8-11.1-25
			c27.6-45.9,43.6-95.3,34.2-149.9c-5.3-30.7-17.9-57.6-40.5-79.8c-10.7-10.6-15.8-9.1-23.3,3.5c-41.3,70.2-88.6,136.2-140.6,198.9
			c-9.7,11.7-15.6,17-30.1,4.9c-14-11.6-9.2-18-0.3-28.6c50.7-59.8,95.6-123.8,136.6-190.7c8.6-14,8.1-19.7-9.2-24.2
			c-56.9-14.9-114.2-14.1-172-7.7c-12.2,1.4-15.7,9.1-19.2,19.1c-24.1,69.4-58.6,133.3-103,191.9c-7.6,10.1-13.1,17.8-26.3,6.3
			c-11.1-9.6-16.3-15.1-4.4-30C1696.4,1393.2,1727.3,1335.4,1750.9,1269.6z"/>
		<path class="st0" d="M1866,1166.6c-208.7,1.8-371.5,88.3-485.9,263.7c-10.8,16.5-28,17.5-39,1.6c-6.1-8.9,2.2-14.2,5.8-19.9
			c76.1-121.7,181.6-207.5,317.9-252.7c143.5-47.7,285.6-40.2,424.6,19.2c18.1,7.7,35.5,17.3,52.1,28
			c90.8,58.5,120.2,148,82.3,249.2c-14.5,38.8-36.9,73-61,106.3c-7.7,10.6-14.1,9.6-21.7,1.8c-6.9-6.9-21.2-9.7-8.8-25.7
			c31.4-40.4,57.6-83.8,66.3-135.5c10.4-61.8-8.4-112.5-58.6-150.5c-68.2-51.6-147.8-72.2-230.9-82.3
			C1894.8,1168.3,1880.4,1167.7,1866,1166.6z"/>
		<path class="st0" d="M458.9,2151.5c5.2-205.7,56.9-393.9,159.2-567.8c5.6-9.5,8.4-21.1,24.6-10.4c13.9,9.2,17.5,14.9,8,31
			c-106,180.4-157.2,375.5-152.5,584.9c0.3,14.5-1.1,22-18.6,22.2c-16.4,0.2-21.8-5.1-20.9-20.7
			C459.6,2176.2,458.9,2161.7,458.9,2151.5z"/>
		<path class="st0" d="M303.7,1027.9c12.4-110,63.9-198.5,158.2-261.4c9.4-6.3,16.8-9.8,22.9,4c4.5,10.1,15.5,17.4-1.7,28.5
			c-85,55-131.6,134.3-140.8,234.7c-1.9,20.4-12.4,17.3-25.1,18C298,1052.7,305,1039.2,303.7,1027.9z"/>
	</g>
</g>
</svg>
