<?xml version="1.0" encoding="utf-8"?>
<!-- Generator: Adobe Illustrator 23.0.0, SVG Export Plug-In . SVG Version: 6.00 Build 0)  -->
<svg version="1.0" xmlns="http://www.w3.org/2000/svg" xmlns:xlink="http://www.w3.org/1999/xlink" x="0px" y="0px"
	 viewBox="0 0 3000 3000" style="enable-background:new 0 0 3000 3000;" xml:space="preserve">
<style type="text/css">
	.st0{stroke:#000000;stroke-width:10;stroke-miterlimit:10;}
</style>
<g id="Layer_1">
</g>
<g id="Layer_2">
	<g>
		<path class="st0" d="M2775.9,1266.6c-2.3,174.4-8.9,348.6-20.3,522.5c-17,259.1-68.7,510.9-169.1,751.4
			c-8.8,21.2-19.3,41.7-29.1,62.5c-68,145.3-181.5,234.5-335.9,274.3c-109.2,28.1-220.5,45.2-331.6,62.4
			c-174.7,27-350.6,21.6-526.3,14.8c-170.6-6.6-341.2-5.7-511.8-6.5c-70.5-0.4-140.6-5.8-209.2-24.8
			c-128.1-35.4-216.6-114.9-269.4-235.9c-40-91.8-54.7-189.1-61.1-287.8c-7.9-120.7-10.8-241.7-0.4-362.4
			c11.3-130.2,44.6-252.7,133-353.9c30.2-34.6,63-67,94-101c50.1-54.7,58.9-117.2,34.3-186c-16-44.8-38.4-86.6-57.6-129.9
			c-16.3-36.5-34.6-72.4-35.9-113.5c-0.3-9.2-6.5-12.3-12.9-16.2C286.9,1025.7,218.3,860.3,234.6,656
			C246,513.3,301,387.5,398.8,282.3c71.5-77,158.7-126.7,264.9-136.1C779.1,136,875,174,945.8,268.3c5.1,6.7,7.6,16.5,19.5,6.8
			c117.1-95.5,257.1-123.3,402.3-135c181.1-14.6,362.2-29.9,543.9-34.2c124.3-2.9,248.1,2.8,366.1,47.2
			c153.3,57.6,287.6,142.3,387.5,276.1c69.1,92.5,99.9,197.1,108.7,310.2C2787.4,915.1,2777,1090.9,2775.9,1266.6z M2643.5,2182.1
			c-5.6-4-10-2.2-14.3-1.7c-127.4,13.6-243.3-16.1-343.9-96c-66.5-52.9-106.4-122.5-113.7-208.8c-7.5-88.9-4.8-178-2.4-266.9
			c4.9-186.9,16.3-373.6,11.3-560.7c-0.9-32.6,0.1-65.4,8.7-97.2c31.2-114.8,106.9-191.2,211.7-240.6c91-42.9,188.1-51.5,287-43.9
			c18.2,1.4,22.1-2.4,18.1-19.6c-12.6-54.7-32.5-106.2-63.3-153.3c-97.8-149.8-240.2-239.1-405.3-296
			c-100.2-34.6-205.1-39-309.9-36.6c-204.7,4.8-408.8,20.1-612.5,40.6c-115.8,11.7-223.2,43.1-316.6,116.5
			c-81,63.7-150.9,136-196.4,229.5c-37,76-46.5,157.3-43.3,240.5c3.9,103.2-39.4,181.8-122.3,240.4c-23,16.2-47.1,31.1-69.2,48.4
			c-31.5,24.6-38.9,58.1-29.9,95.8c6.6,27.5,18.4,53,30.3,78.5c20.3,43.6,42.8,86.2,58.2,132c28.3,84,16.3,160.4-41,229.3
			c-20.9,25.2-43.7,48.5-67.1,71.3c-70.7,68.9-113.6,152.5-135.6,248.2c-4.4,19.3-2.6,24.6,19,24.5c224.8-0.8,449.7-0.5,674.5-0.5
			c39.8,0,39.5,0,36.5,40.8c-0.7,9.2-3,13.9-12.8,13.3c-5.9-0.4-11.9,0-17.8,0c-229.3,0-458.6,0.3-687.9-0.5
			c-20.5-0.1-27.2,6.4-27.8,25.4c-0.7,22.2-2.3,44.5-4.9,66.6c-1.9,15.7,3,20.1,18.9,20c82.4-0.9,164.7-0.8,247.1-0.8
			c142.4,0,284.8-0.2,427.2,0.4c42.8,0.2,77.2,19.1,103,53c11.2,14.7,20.8,30.6,31.4,45.8c21.7,31.1,52.6,47.1,89.2,52.8
			c50.9,8,98.7-2.4,144.3-25.2c47.5-23.8,87.8-57.8,128.5-91.3c55.5-45.7,109.6-93.3,177.2-121.5c48.2-20.1,97.8-31.5,149.7-22.4
			c127.9,22.3,214.1,156.4,185.7,286.4c-20.1,92.2-75.2,158.2-155.2,204.2c-16.3,9.4-19,18.1-15.5,34.6c5.6,26.8,9.5,54,12.9,81.2
			c10.5,82.7,12.4,165.6,5.6,248.8c-0.8,9.4-0.9,15.4,12.3,13.1c96.3-16.5,193.1-30.8,287.6-56.8c109.2-30,202.1-83.4,262.9-183.5
			C2560.2,2497.8,2603.8,2340.4,2643.5,2182.1z M376.2,2485.5c8.2,69.6,25.7,133.5,53.6,194.5c40,87.3,105.5,147.2,195.5,180.7
			c55.7,20.7,113.9,26,172.4,30.3c80.6,6,161.3,1.3,242,2.3c132.1,1.5,264.1,5.9,396.1,9.4c134.2,3.6,268.5,6.5,402.3-10.7
			c12.5-1.6,17.6-5,18.7-18.4c10-122.2,2.4-243.3-25.2-362.6c-5.8-25,0.5-32.5,22.3-42.5c90.5-41.9,153-107.6,158.9-212.5
			c7.6-133.2-108.4-222-235.3-181.9c-48.7,15.4-91.3,41.9-131,73.7c-48.6,38.9-94.5,81.3-146.4,116.1
			c-89.5,59.9-183.9,89.2-289.4,43.8c-10.4-4.5-10.7,2.3-12.6,8.8c-41.2,138.6-171.7,189.7-294.3,115c-9.4-5.8-15.7-6.7-25.6-0.9
			c-28.2,16.6-59.2,22.4-91.9,21c-29.1-1.3-57.1-8.1-85.3-14.1c-12.7-2.7-21.2-0.9-29.5,11.5c-25,37.8-62.1,56.6-107,58.8
			C502,2511,440.1,2506.6,376.2,2485.5z M2722.2,1266.6c0-17.1-0.3-34.1,0-51.2c2.8-155,7.7-310-1.7-465
			c-1.2-19.4-5.2-31.4-27.3-29.1c-3.6,0.4-7.3-0.9-11-1.2c-108.1-7.8-212.4,4.7-305.3,65.5c-93.2,60.9-144.9,144.9-142.4,260.1
			c3.3,149.8,0.2,299.6-7,449.4c-5.3,109.6-6.2,219.5-5.4,329.3c0.6,83.4,24.4,157.2,90.2,211.6c94.3,78.1,203.7,104.9,324.4,88.7
			c15.6-2.1,22.2-9.2,25.1-24.6c19.7-105.8,33.6-212.4,39.9-319.8C2711.8,1609.2,2718.7,1438,2722.2,1266.6z M518.4,537.8
			c-1.1,36-7.9,70.8-19.8,104.6c-21.9,62.6-56.5,112.9-126.8,127c-21.8,4.4-44.1,7-66.4,4.2c-13.8-1.7-16.3,2.5-13.8,15.8
			c5,27,10.8,53.8,20.2,79.5c31.7,86.8,84.1,157.9,162.3,208.5c5.3,3.4,13.2,15.4,19.7,3.2c21.6-40.9,59.5-63.2,96.2-86.7
			c77.9-50,119.8-117.5,113.8-213.4c-3.4-54.6,1.2-109.6,15.3-163.2c29.9-114.1,93.5-207.2,179.4-286c12-11,12.9-18.2,3.5-30.9
			c-36-48.4-82.7-80.2-141.3-94c-128.5-30.3-256.2,34-336,127.6c-7.7,9-4.1,12.6,4.2,18.2C494.7,396.8,518.9,461.5,518.4,537.8z
			 M498.1,2174.2c0,0.1,0,0.3,0,0.4c-38.6,0-77.1,0.8-115.7-0.4c-17-0.5-22.8,3.6-22.5,21.8c1,60,1,120.1,4.7,180.1
			c2.7,43.3,9.5,53.1,51.8,64.5c46.2,12.4,93.6,15.9,141.1,13.3c48.6-2.7,79.3-31.6,87.2-79.7c2.7-16.8,3.5-33.8,2.6-51
			c-2.3-45.2-13.3-89.5-12.9-134.9c0.1-12.5-5.6-14.4-16.2-14.3C578.2,2174.5,538.1,2174.2,498.1,2174.2z M1005.7,2174.1
			c-7.4,0-14.8,0-22.2,0c-39.7,0-40.3,0-38.5,38.9c2.5,54.1,5.4,108.2-16.7,159.6c-3.3,7.8,0.7,10.9,6,14
			c62,36.7,124.6,35.6,177.3-18.1c31.2-31.8,48.3-73.8,31.4-116c-19.8-49.6-56.1-85.6-117.5-78.5
			C1019.1,2174.7,1012.4,2174.1,1005.7,2174.1z M790.5,2174.1c-15.5,0-31.1,0-46.6,0c-62.2,0-61.4-0.1-51.7,61.7
			c6.9,43.8,13.8,87.7,8.6,132.4c-0.6,5.4-4.1,12.8,4.9,14.5c40.5,7.8,80.7,21.4,122.5,10.8c45.3-11.4,56.4-48.6,61.9-88
			c5.5-39.8-2.1-79.9,0.7-119.8c0.8-10.9-5.2-11.8-13.6-11.7C848.3,2174.2,819.4,2174.1,790.5,2174.1z M463.7,532.5
			c0.7-56.1-18.2-102.7-65.6-135.7c-9.4-6.5-15.7-7.5-22.8,4.1c-56.3,92.5-86.1,192.7-90.1,300.7c-0.5,12.2,2.9,17.8,15.8,17.2
			c11.8-0.6,23.7,0.5,35.5,0.1c45.6-1.5,78.8-22.3,98.2-64.2C452.5,615.9,463.4,575.5,463.7,532.5z"/>
		<path class="st0" d="M1123.7,1296.4c42.9,2.1,85.9,3.7,128.8,6.8c13.4,1,21.3-2.8,29.8-13.3c45.7-56.8,122.3-75.8,186.2-47.5
			c57.3,25.3,93,82,87.8,139.3c-5.3,59.1-47.5,107.6-112,118.4c-31.1,5.2-49.4,19.8-66.9,42.9c-45.6,60.2-93.3,118.9-138.9,179.1
			c-11.9,15.7-19.9,17.1-34.6,4c-22.9-20.4-23.5-19.5-4.9-43.2c44.4-56.5,88.4-113.3,133.1-169.6c9.1-11.4,11.2-16.9-4.8-24.9
			c-48.3-24.4-79.4-61.5-76.7-119.2c0.6-13.3-8.1-12-15.8-12.4c-43.7-2.3-87.4-4.3-131-6.5c-37.7-1.9-75.5-4.4-113.2-5.3
			c-16.5-0.4-23-6.2-20.1-22.5c1-5.8,1.8-11.8,1.4-17.7c-0.8-14,5.2-16.9,18.7-15.8c44.3,3.4,88.8,5.3,133.2,7.7
			C1123.7,1296.6,1123.7,1296.5,1123.7,1296.4z M1401.6,1452c22.6-0.7,44-5.8,63.5-17.6c33.4-20.2,44.8-53.3,31.4-90.2
			c-23.1-63.5-105.9-80.9-158.7-33.3c-54.2,48.9-40.7,112.9,28.8,135.6C1377.8,1450.2,1389.5,1452.6,1401.6,1452z"/>
		<path class="st0" d="M1411.8,1746.5c51.7,0.8,97.1,34.2,96.3,70.8c-0.8,35.6-40.5,66.3-84.7,65.5c-43.7-0.7-77.9-35-77.9-77.9
			C1345.6,1768.7,1371.5,1745.9,1411.8,1746.5z"/>
		<path class="st0" d="M1709.3,1608.9c54.1,2.2,97.4,35.9,95.2,74.2c-1.9,34.4-41.8,64.4-84.4,63.4c-44.1-1-79-37.6-77.3-81
			C1644.2,1630.7,1671.6,1607.4,1709.3,1608.9z"/>
		<path class="st0" d="M1158.9,1047.7c-41.9-0.3-76.2-34.1-77.1-75.9c-0.6-30.4,17-53.1,46.9-58.5c34.1-6.1,65,2.9,91.7,24
			c32.9,26.1,31,67.5-3.1,92.2C1200.2,1041.8,1180.9,1047.9,1158.9,1047.7z"/>
		<path class="st0" d="M1484.8,990.1c-47.9,0.1-81.8-35.2-78.3-83.1c2-26.9,20.6-47.6,47.3-50.9c32.1-3.9,61.9,2.7,88,22.6
			c35.8,27.3,34.3,71-3.4,96C1522.7,985,1505.5,991.5,1484.8,990.1z"/>
		<path class="st0" d="M1837.5,1488.4c-41.4-0.2-77.1-41.9-69.9-88.9c4.3-28.3,27.9-47.3,60.9-47.3c25.7,0,49.8,6.9,71.2,21.8
			c39.1,27.2,38.7,72.4-1.2,98.8C1882,1483.5,1863.7,1488.9,1837.5,1488.4z"/>
		<path class="st0" d="M1753,1034.3c51-0.5,99.2,34.2,98.9,71.2c-0.2,35.2-40.1,66.9-84,66.7c-43.3-0.2-77.5-34.5-77.8-78
			C1689.9,1058,1714.5,1034.7,1753,1034.3z"/>
		<path class="st0" d="M2461.5,1515.2c-50.9-0.1-88.2-46.4-75.9-94.1c5.8-22.3,20.1-36.3,42.5-39.9c34.1-5.4,65.9,1.2,93.3,23.3
			c33.7,27.3,32,68.1-3.7,93.2C2500.9,1509.4,2482.1,1515.7,2461.5,1515.2z"/>
		<path class="st0" d="M2431.8,1763c49.1-0.7,94.6,31.3,96,67.4c1.3,35.5-36.8,67.1-81.8,67.7c-45.5,0.7-79.8-31.8-80.7-76.5
			C2364.5,1784.7,2388.4,1763.6,2431.8,1763z"/>
		<path class="st0" d="M2469,1151.2c-26.7,2.2-48.5-8-63.9-30.4c-16.6-24.2-21.8-50.7-6.9-77.2c14.7-26.2,41-29,67.5-26.7
			c23.9,2.1,46,10.6,64.5,26.6c29.4,25.6,29,63.4-1.3,87.8C2511.8,1145,2492.3,1153,2469,1151.2z"/>
	</g>
</g>
</svg>
