<?xml version="1.0" encoding="utf-8"?>
<!-- Generator: Adobe Illustrator 23.0.0, SVG Export Plug-In . SVG Version: 6.00 Build 0)  -->
<svg version="1.0" xmlns="http://www.w3.org/2000/svg" xmlns:xlink="http://www.w3.org/1999/xlink" x="0px" y="0px"
	 viewBox="0 0 3000 3000" style="enable-background:new 0 0 3000 3000;" xml:space="preserve">
<style type="text/css">
	.st0{stroke:#000000;stroke-width:10;stroke-miterlimit:10;}
</style>
<g id="Layer_1">
</g>
<g id="Layer_2">
	<g>
		<path class="st0" d="M1078.5,1408.8c70.5-101.3,204.6-96.6,268.2,0.5c76.9-107,216.2-87.4,270.6,11.3
			c66.1-104.9,205.3-101,269.9-3.1c1.3-2.1,2.7-3.7,3.3-5.6c25.6-80.2,89.7-127.4,189.5-128.3c25.8-0.2,51.5,1.4,76.6,8.9
			c42,12.4,65.3,40.6,68.8,84.4c0.9,11.1,0.6,22.3,0.7,33.4c0.3,35.8,18,59.2,52.5,68.3c11.4,3,23.1,6.1,34.8,6.5
			c81.3,3.1,163.1,9.4,242.7-14.7c36.1-10.9,69.4-28.2,99.2-51.9c13.4-10.7,12.8-18.2-3.1-26.8c-72.5-39.3-83-109.7-26.1-170.5
			c67-71.6,180.4-62.3,244.1,21.6c51.2,67.3,55.2,143.2,30,220.6c-38.7,119.1-125.9,192.7-237.2,240.8
			c-73.1,31.6-150.6,44.9-229.7,48.6c-103.2,4.9-206.4,6.8-307.7-18.2c-101.3-25-182.7-77.2-230.5-177.5
			c-29.9,57.3-75.1,89.9-138,91.3c-62.4,1.4-109.1-28.2-141.7-84.4c-32.7,49.6-75.4,78.4-135,78.6c-59.2,0.2-102.1-27-135-76.4
			c-34.8,50.6-81.8,77.6-143.3,73.4c-61.9-4.3-104.2-38.3-131.9-93.2c-58,119.5-161.4,169.3-283.4,186.3
			c-124.1,17.2-249,16.8-372.5-7.3c-114.7-22.4-215.9-71.8-289.5-165.2c-63-79.9-93-169.8-60.2-271.6c26-80.8,100-132.4,178.6-127.4
			c56.4,3.6,109.6,45,126.1,98c16.3,52.4,1.7,89.1-46.1,115.9c-29.2,16.4-29.8,19.6-1.8,39.1c41.6,29,87.6,49,138.1,55.2
			c68.6,8.4,137.7,9.2,206.4,1.1c44.7-5.3,76.7-28,75-84.3c-2.3-72.3,31.3-106.1,104.3-113c30-2.9,59.9-3,89.5,2.6
			C1008.9,1289.8,1055.6,1334.8,1078.5,1408.8z M603.8,1692.2c146.2-0.9,206.6-8.1,280.8-38.6c66.8-27.5,119.7-71.2,142.6-143.1
			c27.3-85.7-19.9-168.3-105.1-184.7c-19.9-3.8-40.2-3.4-60.4-2.2c-60.8,3.6-70,12.4-70.1,72.1c-0.1,49.1-20,86-63.8,109
			c-27,14.2-56.2,20.1-86.5,20.6c-80,1.5-160.4,6.7-238.7-16.1c-48.6-14.2-93.6-35.8-131.5-69.9c-37.4-33.6-33-73.6,9.7-99.3
			c8.3-5,16.7-10,25.3-14.7c14.8-8,19.4-20.4,17.7-36.7c-3.3-31.5-31.5-62.9-66.6-73.1c-52.5-15.2-114.5,18.6-139.5,76.8
			c-22.8,53.1-19,106.5,2.1,158.6c41,101,120.2,161.4,218.6,199.6C429.7,1686,525.6,1691.2,603.8,1692.2z M2341.9,1704.8
			c50.3,0.9,100.3-2.3,150.1-8.7c80.3-10.3,156.7-32.5,224.6-78.4c73-49.4,126.1-113.3,143-202.4c14-73.9-12.5-140.7-69-174.9
			c-45.6-27.6-100-18.8-131.6,21.2c-28.3,35.9-23.7,61.7,15.2,84.7c3,1.8,6,3.5,9,5.3c46.4,28.2,49.2,69.6,6.8,104.5
			c-41,33.7-87.9,55.9-139,69c-73.2,18.7-147.9,14.2-222.4,13.1c-26.1-0.4-51.2-4.9-75.5-13.9c-48.6-17.9-76.1-56.1-77.9-107.7
			c-0.4-11.1-0.1-22.3-0.5-33.4c-0.8-22.3-12-36.3-33.8-41.8c-25.3-6.4-51-6.9-76.8-5.2c-95.6,6.6-152.8,86.2-127.6,179
			c21.8,80.6,80.9,126.1,154.4,155.1C2171.5,1702.3,2256.9,1703.1,2341.9,1704.8z M1212.5,1385.9c-56.9,0.2-102.5,46.1-101.8,102.3
			c0.8,56.7,46.6,101.3,103.5,100.6c56.3-0.7,100.1-44.9,100.1-101.3C1314.3,1430.4,1269.7,1385.7,1212.5,1385.9z M1480.1,1592
			c56.7-0.2,102.3-46.3,101.5-102.6c-0.8-55.7-45.7-99.7-101.7-100c-56.9-0.2-102.5,44.8-102.5,101.3
			C1377.4,1547.3,1422.9,1592.2,1480.1,1592z M1752,1597.3c56.5,0.7,101.6-42.8,102.8-99.1c1.2-57.4-42.9-103.2-100.1-103.9
			c-57.3-0.7-102.7,43.9-102.9,101.1C1651.7,1551.9,1695.7,1596.6,1752,1597.3z"/>
	</g>
</g>
</svg>
