<?xml version="1.0" encoding="utf-8"?>
<!-- Generator: Adobe Illustrator 23.0.0, SVG Export Plug-In . SVG Version: 6.00 Build 0)  -->
<svg version="1.0" xmlns="http://www.w3.org/2000/svg" xmlns:xlink="http://www.w3.org/1999/xlink" x="0px" y="0px"
	 viewBox="0 0 3000 3000" style="enable-background:new 0 0 3000 3000;" xml:space="preserve">
<style type="text/css">
	.st0{stroke:#000000;stroke-width:10;stroke-miterlimit:10;}
</style>
<g id="Layer_1">
</g>
<g id="Layer_2">
	<g>
		<path class="st0" d="M437.9,1813.9c-83.1-57.6-87.5-139.4-74.3-224.9c13.8-88.8,62.1-162.1,114.3-232.7
			c11-14.9,11.8-22.8-2.9-36.9c-135-129.2-136.7-309.1-5.5-442.5c4.2-4.3,8.3-8.7,12.8-13.4C396,793.9,377.8,695.2,373.2,595.5
			c-11.5-248.9,115-417,366.5-497.1C841.1,66,945.4,65.5,1050.2,69.3c110.5,4,213.3,37.3,312.1,84.3
			c68.7,32.7,125.4,78.2,152.5,153.6c12.8-9.5,16.6-23.8,23.8-35.6c75-122.7,181.7-191,327.9-192.2c54.8-0.4,109.5-3.9,164.2,3.8
			c63.8,9,115.1,38.6,153.4,89.7c45.9,61.3,95.9,118,161.3,159.7c43.1,27.5,90.9,44.6,137,65.6c62.1,28.3,114.5,66.6,114.6,142.6
			c0.2,82.2-39.2,142.9-112.6,180.8c-4.4,2.3-8.8,4.5-13.4,6.9c6.1,11.3,17.5,14.6,26.7,20.5c169.7,109.4,271.5,263.6,307.4,462.3
			c21.2,117.8,43,235.3,48.9,355.3c6.7,136.5-5.9,271.6-22.1,406.8c-12.3,102.7-26.3,205.1-47.3,306.5
			c-35.4,170.9-137.4,295.4-272.8,397.1c-174.9,131.5-373.5,201.6-589.7,224.5c-188.7,20-377.3,45.9-567.6,35.5
			c-145-7.9-288.9-26.8-428.7-68.7c-64.6-19.3-124.6-49.5-178.7-89.5c-85.1-62.9-175-117.4-268.4-166.8
			c-62.8-33.2-120.6-74.6-178.2-116.2c-63.2-45.7-74.4-104.8-53.2-174.8c15.2-50.3,39.8-95.9,77-133.1c25.2-25.1,27.7-50,10.3-79.1
			c-3.1-5.2-5.7-10.7-8.4-16.2c-45.7-89.7-37.9-142,34.3-212.6C384.4,1856.9,411.2,1836.6,437.9,1813.9z M346.1,2464.8
			c41.8,33.7,84.7,62.7,130.1,87.2c104.4,56.6,207.5,115.1,302.7,186.7c38.3,28.8,80.6,51,125.4,68c61.3,23.3,124.3,39.8,190.5,46.8
			c-0.4-12-7.7-16.8-12.2-23.3c-152.2-220.2-172.7-450-47.7-688.8c58.3-111.4,142.2-201.8,239.3-280.9
			c295.2-240.8,703.9-249.2,999.5-19.9c34.9,27.1,79.6,27.1,114.8-0.2c22.1-17.1,23.3-33.9,3.2-53c-5.9-5.6-12.3-10.7-18.8-15.4
			c-81.3-58.9-69.7-153.1-13.9-209.4c63.9-64.3,141.9-104.2,233.8-112.3c71.7-6.3,138.8,10.1,201.7,45.5c5-13.7,1.2-24.5,0.1-35.4
			c-7.2-71.7-22.8-142.1-34-213.3c-34.7-220.6-147.3-385.3-347.9-487.2c-8.6-4.3-16.4-12.3-30.7-8.2c22.8,24.9,45,48.1,62.5,75.3
			c66,102.2,73.5,213.5,47.9,328.1c-38.2,171.5-131.4,301.3-301.5,361.4c-144.3,51-295.5,48.4-445.8,37.9
			c-172.2-12-300-95.1-383.2-247.4c-117.2-214.6-61-460.5,138.6-601.4c5.8-4.1,15.3-5.4,16.1-15.8c-3.4-0.2-6.5-0.8-9.4-0.3
			c-244.1,41-464.6,135.2-653.9,296.2c-91,77.4-160.4,174.8-233,268.8c-60.1,77.8-125,152.3-170.8,240.4
			c-26.7,51.3-42.6,105-40.7,163.4c2.8,83.2,43.6,125.2,127.2,126.6c42.5,0.7,85.1-4.1,127.7-5c48.7-1,66.7,12.5,81.1,60
			c10.1,33.3,32.1,53.1,64.8,62.1c71.9,19.8,137.2-30.9,141.4-109.9c5.3-99.4-60.7-180-163-193.2c-28.8-3.7-25.6-19.5-25.6-36.9
			c0-26.7,20.7-14.5,31.3-13.4c115.1,12.1,231.1,120.9,205.7,266.2c-13.2,76-70.7,134.4-139.6,141.3c-79.2,8-132.5-26.3-164.6-107.8
			c-6.7-17-17.3-20.3-33-18.8c-48.6,4.7-97.2,7.2-146,5c-8.3-0.4-15.7,1.1-23,5.8c-42.6,27.8-82.8,58.4-116.6,97
			c-15.2,17.4-17.9,26.4,7.2,38.7c100.5,49.3,195,108.3,281,180.3c16.4,13.7,31.9,28.5,41.9,47.8c17.3,33.1,5.3,63.6-29.7,75.2
			c-10.5,3.5-21.6,5.6-32.6,7.2C521.1,2305.4,430.9,2379,346.1,2464.8z M2253,1891.1c-1.8-2.2-3.3-5-5.6-6.7
			c-172.2-129.1-364.7-185.4-578.2-149.9c-230.8,38.3-407,166.3-540.5,353.6c-176.5,247.6-164.7,519.4,28,754.2
			c10.8,13.2,20.7,26.1,40.7,28.7c89.7,11.7,179.5,19.4,270.1,18.1c21.2-0.3,35.8-7.4,50.3-22.2
			c105.7-108.5,148.5-239.6,140.3-388.7c-4.6-84-37.9-117.1-121.9-125.6c-62.1-6.3-107.3-35-127.4-96.4c-15.1-46,1.5-79.4,48-90.8
			c72.4-17.8,145.6-26,220.2-13.4c142.7,24,235.6,125.6,244.3,269.8c8.5,140.9-23.1,273.9-78.7,402.4c-4.6,10.6-13.3,20.2-11.2,35.4
			c108.9-8.3,215.7-24.6,320.2-55.4c21.6-6.4,27.8-16.7,27.5-38.5c-1.8-143.2-2.4-286.3-2.8-429.5c-0.1-22.8-1.5-42.9-18.6-61.3
			c-16.2-17.3-21.7-41.2-24.3-64.6C2119.1,2083.9,2157.3,1976.9,2253,1891.1z M2229.4,2769.8c12.8,4.5,19.6-1.5,26.7-4.4
			c91.7-37.4,175.6-88.4,252.6-150.3c118.2-95.1,201.8-211.2,229.9-364.8c18-98.9,31.8-198.1,44.4-297.7
			c15.3-120,24.8-240.2,21.6-361.3c-0.5-20.8-7.4-33-24.5-43.9c-135.6-86.1-282.7-49-386.1,52.3c-34.2,33.5-48.3,95.3,13.9,135.1
			c34.6,22.2,53.7,54.5,48.1,99.4c31.1-9.7,59.5-17.5,87-27.6c17.7-6.5,20.6,6.3,21.3,16.1c0.8,10.2,20.6,24.6-3.4,31.7
			c-57.2,16.8-112.1,42.2-172.5,47.3c-91.3,7.7-150.7,57.1-185,140.1c-6.8,16.3-4.7,25.1,15.1,24.5c22.3-0.7,44.6,1.1,66.8-3.5
			c118.5-24.5,217.8-87.2,310-161c45.8-36.7,52.1-153.1,17.3-200.6c-22.8-31.2-48.1-32.8-74.1-4.3c-13.8,15.1-34,15-47,8.2
			c-11.7-6.2-0.4-23.8,4.2-35.5c4.5-11.4,13-20.4,23.1-27.7c38.5-27.8,91.7-20,126,18.6c31,34.8,36.4,77.4,39.7,121.7
			c5.6,74.6-17.9,134.5-79.3,179.4c-50.1,36.7-103.9,67-158.3,96.6c-67.8,36.8-139.4,61-217.8,59.2c-48.4-1.1-48.5-1.3-48.6,46.9
			c0,6.1,0.2,12.2,0.5,18.3c4.4,77.4,49.3,111.5,125,94.5c13.7-3.1,27-8.6,40.1-14c37.5-15.2,68.1-40.1,93.8-70.9
			c17-20.5,25.8-0.1,37.1,6.3c9.3,5.3,16.1,10.9,5.5,22.9c-61.4,69-133.2,116.2-230.2,108.1c-20-1.7-24.3,3.4-24,22
			c1.1,68,1,136.1,1.1,204.1C2229.5,2627.4,2229.4,2699.3,2229.4,2769.8z M778.4,837.7c83.5-12.1,135.7-14.5,170.4-13.4
			c9.7,0.3,30.5,1.3,52.5-9.8c19.8-10,34.6-27,47.4-49.4c38.6-67.4,41.6-141.9,37-215.6c-4.2-68.1-40.4-97.8-108.9-103.4
			c-10.1-0.8-20.3-0.8-30.4-0.9c-55.9-0.3-65.2,8.8-64.5,65.5c0.4,31.5,3.6,63.2-4,94.1c-10.1,40.6-30.6,74-74.6,83.7
			c-43.4,9.5-74.2-12.2-98-46.3c-5.2-7.5-9.9-15.4-13.9-23.6c-70.7-145.7,0.6-299.4,158-337.7c102.7-25,199.4-0.8,292.2,42.9
			c56.9,26.8,93.8,72.5,115.2,131.6c24.3,67.2,38.7,136.6,45.9,207.4c1.9,19.1,7.1,19.8,23.9,15.4c46-12.2,92.5-22.9,139.3-32
			c18.6-3.6,22.1-12.1,21.1-29c-4.9-78-10.1-156.1-12.7-234.2c-2.8-83.2-45-137.7-116.7-174.6c-108.2-55.7-221.9-87.8-344.1-89.9
			c-130.5-2.2-257.1,11.8-373.8,76.8c-67,37.3-127.1,83.6-162.6,151.6c-64,122.7-72.2,251.7-27,383.3C477.7,810.8,520.5,840,605,838
			C662.8,836.6,720.6,837.7,778.4,837.7z M1731.9,621.9c26.5,0,70.1-0.6,113.7,0.3c16.2,0.3,21.1-4.5,19.5-20.9
			c-1.7-18.1-2.2-36.8,0.7-54.6c9.3-56.6,28.9-107,91.7-123.6c26.7-7,54.4-4.5,81.8-3c38.7,2.2,64.3,21.2,77.2,57.9
			c16.6,46.9,37.6,92,59.3,136.7c4.8,9.9,7.9,21.6,20.4,24.9c65.5,17.2,131,34.5,196.7,50.7c9.4,2.3,20.3-0.2,30.2-1.9
			c63.7-10.6,115-64.7,123.5-130c6.5-49.4-18.4-82.8-86.1-114.1c-33.1-15.3-67.2-28.6-99.8-44.9c-91.3-45.6-159.9-116.7-219.3-197.9
			c-29-39.7-69-61.2-117.8-67.9c-74.1-10.2-148.1-7.4-221.5,2.8c-56.3,7.8-105.8,32.9-147.8,72.6c-52,49.2-88.4,107.8-113.4,174.3
			c-6.1,16.1-13.3,31.6-12.4,49.6c3,59.8,6,119.6,7.5,179.5c0.5,18,6.5,21.6,23.6,20.2C1611.3,628.4,1663,626,1731.9,621.9z
			 M1880.2,675.6c-44.6,0-89.3-0.6-133.9,0.1c-267.2,4.5-460.1,276.6-373.1,528.7c58.1,168.2,170.6,275.5,352.8,297.5
			c114.5,13.8,228.9,6.6,342.9-6.8c68.2-8,133.8-27.3,190-67.9c154.8-111.7,213.8-267,188.4-451.9
			c-19.2-139.7-160-272.2-287.7-286.3C2066.8,679,1973.6,674.8,1880.2,675.6z M1571.7,2884.2c65.1-5.8,122.4-11,179.8-15.9
			c11.7-1,17.3-8.1,22.2-17.8c68.3-136.7,106.8-280.4,96.5-434.2c-5.1-76-38.2-138-106-177.9c-94.6-55.7-194.4-46.8-295.3-23.4
			c-12.1,2.8-16.6,10.4-12.5,22.7c9.9,29.5,26.1,52.9,58.9,59.2c15.9,3.1,32.1,4.9,48.2,7.1c68.8,9.6,114.1,44.7,134,113.9
			c20.9,72.8,12.6,144.8-0.1,216.7C1681.2,2726.7,1637.2,2806,1571.7,2884.2z M1112.1,757.2c45.7-18.2,85.9-34.7,126.6-50.1
			c13-4.9,16.1-12.7,14.9-25.6c-6.8-75.1-21.3-148.4-48.4-218.9c-12.7-33-32.7-61.9-63.2-79.8c-86.8-50.9-180.3-74-280.2-52.6
			c-127.2,27.4-185.1,160.2-120.8,273c10.9,19.2,23.9,41.8,50.8,35.7c25.9-5.9,35.4-29,37.4-53.5c1.8-22.2,1.3-44.6,0.9-66.9
			c-1.3-68.5,14.4-131.3,119.5-123.4c4,0.3,8.1,0.2,12.2,0.3c125.5,3.9,190.2,79.1,176.5,204.9
			C1132.8,651.5,1130,703.1,1112.1,757.2z M684,885.3c-50.6,1.8-93.1,9.4-135.4-0.2c-9.1-2.1-15.1,3.9-21.6,8.8
			c-127.5,95.3-137.4,276.3-21.6,385.5c13.2,12.4,21.2,15.5,32.7-1.5c14.2-21,30.7-40.3,46.2-60.3c94-121,186.6-243.4,313.5-333.4
			c0.7-0.5-0.3-3.4-0.7-7.3c-39.4,1.8-78.9,4.4-118.3,5c-20,0.3-33.3,7.4-45.7,23.3C679.5,974,624.9,1042,570.1,1109.8
			c-5.3,6.5-7.7,20.4-22.4,14.6c-26.9-10.7-31.6-27.9-13.6-51c4.4-5.6,8.9-11.1,13.3-16.6C591.4,1001.4,635.4,946.2,684,885.3z
			 M567,2252.1c-55.2-29.8-107.5-50.9-161.9-67c-5.8-1.7-11.4-4.3-16.3,2.1c-37,47.9-80.2,92.2-94.3,153.9c-5,21.6-10,43.3-2.9,66
			c6.4,20.4,12.3,28.2,31.4,8.9C392,2346.7,468,2286.9,567,2252.1z M2125.9,633c-17.9-42.9-35.9-82.4-50.9-123
			c-8.4-22.9-18.8-40.5-45.7-40.2c-33.8,0.5-71.6-8.4-93.8,27.5c-19.7,31.9-25.4,67.9-20,105.2c1.7,11.4,5,20.5,20.3,21.1
			C1998.6,626.1,2061.3,629.7,2125.9,633z M663.8,2225.2c-92-88.5-199.2-150.7-317.5-211.7c15.9,43.1,38.9,73.4,48.4,109.5
			c2.5,9.6,12.3,9.1,19.9,11.4c73.9,22.2,144.3,52.6,211,91.5C636.2,2232.1,646.5,2239.2,663.8,2225.2z"/>
		<path class="st0" d="M909.5,1399.2c63.3,16.9,117.5,6.4,171.7-9.6c45.5-13.4,86.7,1.6,124,26c56,36.6,110.4,75.4,165.5,113.4
			c7.9,5.5,20.7,10.5,8.2,22.4c-9.4,9-9.4,34.9-31.4,22.2c-13.1-7.5-22.9-3.3-34.1,0.3c-70.3,22.9-141.2,25.9-212.3,4.7
			c-52.6-15.7-94.6-47.1-123-93.9c-11.9-19.6-24.4-27.6-47.4-29.1c-41.3-2.7-47.2-13.6-32.7-44.5
			C902,1402.4,906.9,1398.3,909.5,1399.2z M1276.9,1527.6c-76.5-53.6-145.7-128.6-251.3-66.4
			C1065.5,1531.4,1192.9,1566.3,1276.9,1527.6z"/>
		<path class="st0" d="M1919.5,742.4c132.3,2.3,249.3,42.9,342,140.3c128.8,135.3,126.8,328.6-3.2,462.6
			c-167.2,172.4-477.8,183.7-657.9,23.9c-180.7-160.3-159.9-414.3,45.2-548.5C1728.7,766.5,1820.3,741.6,1919.5,742.4z
			 M1925.3,1011.4c-28.4-69.5-53.4-130.3-78.1-191.1c-4.6-11.3-6.3-22.4-24.6-18.3c-105.4,23.3-192.1,74.3-252.7,165.7
			c-9.6,14.4-10.7,23,6.6,33.3c39.2,23.3,76,50.5,115.4,73.4c21.8,12.7,17,20.3,1.7,33.7c-39.6,34.8-77.5,71.6-117.4,106.1
			c-16.4,14.1-18.2,25-6.2,43.2c47.8,72.3,114.3,119.3,194.4,149.5c15.8,6,23.2,1.1,30.1-13.7c20.2-43.1,42.1-85.5,63.4-128.1
			c14.6-29.4,29.3-58.9,46.3-93.2c31.1,82.3,60.9,157.7,87.4,234.3c5.8,16.8,12,17.8,25.4,14.8c105.3-24,191.4-76.5,249.6-169.6
			c21.3-34,20.7-34.5-15.1-54.8c-15-8.5-30.2-16.6-45.3-24.9c-48.1-26.6-96.1-53.3-144.2-79.9c69.3-10.1,136.6-14.9,204-19.5
			c37.9-2.6,39.3-3.4,27-38.8c-41.9-120.9-133-186.7-250.4-223.8c-22.3-7-31.2-2.4-39.8,19.5
			C1979.9,887.9,1953.6,945.6,1925.3,1011.4z M1537.5,1180.5c29.8-27.1,55.6-50.9,81.7-74.4c7.9-7.1,8.5-12.2-1.3-18.3
			c-21.5-13.2-42.9-26.7-63.7-40.9c-11.5-7.9-16.6-7.6-19.7,7.6C1526.3,1094.7,1525.9,1134.5,1537.5,1180.5z M1897.8,1299
			c-20.5,41.2-37.4,74.6-53.7,108.3c-3.4,7.1-12.3,17,5.3,19.3c27.2,3.6,54.4,6.1,81.8,5.2c14.1-0.4,14.4-7.5,10.4-17.9
			C1927.8,1377.7,1913.9,1341.3,1897.8,1299z M1926.2,877.5c12-27.4,21.3-48.1,30.1-69c3-7.1,3.9-14.7-7.3-14.7
			c-17-0.1-37.9-5.3-50,2.6c-10.9,7.2,5.2,24.5,9.3,37.4C1912.3,846,1918.1,857.8,1926.2,877.5z M2237.2,1129.6
			c18.2,10.3,32.9,18.9,47.9,26.8c6.9,3.6,16.6,9.2,17.4-5c0.6-9.8,9.6-26-4.9-28.6C2279.5,1119.6,2259,1118.2,2237.2,1129.6z"/>
	</g>
</g>
</svg>
