<?xml version="1.0" encoding="utf-8"?>
<!-- Generator: Adobe Illustrator 23.0.0, SVG Export Plug-In . SVG Version: 6.00 Build 0)  -->
<svg version="1.0" xmlns="http://www.w3.org/2000/svg" xmlns:xlink="http://www.w3.org/1999/xlink" x="0px" y="0px"
	 viewBox="0 0 3000 3000" style="enable-background:new 0 0 3000 3000;" xml:space="preserve">
<style type="text/css">
	.st0{stroke:#000000;stroke-width:10;stroke-miterlimit:10;}
</style>
<g id="Layer_1">
</g>
<g id="Layer_2">
	<g>
		<path class="st0" d="M856.6,2027.7c-14.7,21.3-27.7,42.4-42.9,61.8c-101.1,129.2-237.2,178.2-397,170.7
			c-48.3-2.3-95.5-12.5-140.8-29.6c-150.2-56.6-230.1-167-220.7-327.2C73.8,1586.3,167,1294,368.9,1043.2
			C565.6,799,821.4,650.3,1126.1,582.8c207.5-45.9,418-52.5,629.3-47.5c147,3.5,293.9,7.7,440.6,17.7c92.8,6.3,185,17.9,275.2,41.9
			c224.7,59.9,367,206.2,436.3,424.4c72.2,227.3,55.3,454-17.1,678.2c-38.6,119.6-97.2,228.4-176,327
			c-97.2,121.5-219.6,188.5-377,198.7c-309.1,20-618.3,33.5-928,33.2c-98.8-0.1-197.3-5.8-295.3-21.7
			c-107.5-17.5-183.2-76.5-236.2-168.8C871,2053.7,864.3,2041.4,856.6,2027.7z M2649.7,721.6c-21.3-17.5-42.6-28.5-64.1-39.3
			c-108.9-54.7-226.9-73.6-346.2-83.7c-196.2-16.6-393-21.6-589.9-22.6c-171.3-0.9-341.8,9.2-509.8,46.4
			c-235.1,51.9-444.5,153.1-620.4,319.5c-210.5,199-335,444.5-391.1,726.5c-17.6,88.6-35.5,177.3-31.7,268.8
			c4.4,103.7,51.4,179.8,141.6,229.9c8.1,4.5,15.6,11.6,26.7,10.3c-12-88.7-1.7-172.1,44.7-248.4c41.6-68.3,118.4-100,190.1-79.9
			c75,21,124.3,89.1,125.6,174.9c0.9,53.5,2.4,107-5.7,163.9c102-42.9,168.4-114.7,212.7-209c3.7-7.9,0.4-14.4-1.6-21.5
			c-22.6-78.2-29.6-157.5-21.9-238.9c28.1-296.4,276.7-533.1,573-544.7c18.5-0.7,20,7.4,21,21.6c1.1,14.4-1.6,21.6-18.2,21
			c-14.8-0.5-29.8,1.7-44.6,3.7c-381.1,51.1-600.5,447.1-441,796.9c53,116.4,143.8,178.6,274,182.6c-1.1-3.3-1.6-6.5-3.1-9.2
			c-50.9-91.7-66.6-190.4-55.9-293.6c16.3-157.9,89.7-280.9,226.5-363.9c78.8-47.8,166.5-69.5,256-84.8
			c161.2-27.6,315.8-10.6,460.4,70.9c128.5,72.5,203.5,180.6,215.4,328.8c3.8,47.5,0.9,95-36.1,132.6c-23.4,23.9-52.4,37.5-83,48.6
			c-27.3,9.9-55.3,17.9-81.9,29.4c-68.2,29.5-118.5,79.2-159.5,143.9c7.8,0.5,11.7,1.1,15.7,1c146-5.7,291.9-11.7,437.6-25
			c118.6-10.8,212.8-62,290.7-149.6c66.9-75.2,120.3-158.6,159.4-251.1c97.4-230.8,126.3-468.3,62.7-713
			c-29.1-112-82.9-211.2-166.1-293.2c-10-9.9-19.8-17.3-34.8-13.2c-90.5,24.8-156.4,78-191,166.7c-10.6,27.2-15.9,55.6-17,85
			c-0.8,23-20.5,14.6-32.4,16.1c-14,1.8-9.1-10.1-8.8-17.6c3.9-95.3,43.9-172.2,117.8-232C2575.5,751.7,2610.5,736.6,2649.7,721.6z
			 M1584.6,2214.5c59.5-1.8,146.7-5.7,233.9-6.2c29-0.1,46.2-8.5,61.8-33.5c44.9-72,105.4-127.3,185.3-159.5
			c36.9-14.9,76-23.9,111.6-42.3c31.1-16.1,49.8-40.5,52.9-75.9c6-67.2-7.5-130.6-39.6-189.7c-66.1-121.8-177.7-180-305.3-212
			c-147.3-36.9-292.3-17.3-433.5,31.1c-325.4,111.4-355.7,471.2-235.6,660.4c8.7,13.7,17.3,20.9,34.6,22
			C1352.6,2215.7,1454.7,2215.6,1584.6,2214.5z M585.2,2107.3c0.3-40.2-1-71.6-4.1-103.1c-6-60.1-38.8-100.7-96.1-116
			c-48.6-12.9-103.3,7.6-133.7,53.9c-49.2,74.6-60.4,156.4-41,243.1c2.3,10.1,6.6,15.5,17,18.3c77,20.6,154.1,21.3,231.7,3.9
			c12.3-2.8,17.8-9.3,18.8-21.9C580,2156.5,583.2,2127.6,585.2,2107.3z"/>
		<path class="st0" d="M2269.3,818c43.4,1,85.9,7.3,127.4,20.3c12.8,4,18.4,9.4,11,22.5c-5.4,9.6-3.2,25.4-24.1,17.7
			c-47.4-17.5-97.1-20.2-147.2-17.3c-30,1.8-55.3,13.2-71,39.3c-13.1,21.8-25.2,6.6-36.9,0.8c-16.3-8-2.7-16.8,1.7-23.5
			C2163.4,827.5,2213.9,816.8,2269.3,818z"/>
		<path class="st0" d="M2390.5,1307.1c-1.6-71.9,32.4-125.5,65-179.5c8.7-14.4,17.3-0.6,24.5,3.7c6.4,3.8,19,5.5,10.2,19.4
			c-12.4,19.6-22.8,40.4-34.4,60.5c-23.5,40.9-28.7,85-18.3,129.9c6,26-12.1,20.8-24.7,25.4c-19.9,7.2-14.9-10.7-16.7-17.9
			C2392.2,1333.5,2391.8,1317.5,2390.5,1307.1z"/>
		<path class="st0" d="M2283.5,717.1c45.3,2,89.5,14.5,132.3,33.7c11,4.9,14.2,10.7,6.5,20.3c-6.5,8.1-4.8,27.3-25.1,17.3
			c-14-6.9-29.3-11.1-44.2-16.3c-49.7-17.5-99.6-17.6-148.2,2.1c-21.2,8.6-20.8-6.8-27.2-17.2c-9.2-15,1.3-17.8,11.8-22
			C2219.2,723.3,2250,718.1,2283.5,717.1z"/>
		<path class="st0" d="M2353.6,946.5c7.5,0,15,0.3,22.4-0.1c12.8-0.7,22.3,2.2,18.4,17.7c-2.8,11.3,0.8,26.1-21.7,24
			c-65.3-6.2-120.3,17.2-165.4,64.6c-13.7,14.4-33.5,11.8-43.5-4.8c-5.4-8.9,3-12.1,6.6-16.2C2218.8,976.4,2279.6,947,2353.6,946.5z
			"/>
		<path class="st0" d="M2782.6,1355.4c-3.2,9.6-14.7,8.9-22.6,13.1c-10.6,5.7-16.6,0.5-20.9-9.5c-15.3-35.2-35.3-67.5-60.8-96.2
			c-9.9-11.1-19.1-23.8-31.2-31.8c-19.1-12.7-11.2-22.4-1.4-35.4c13.1-17.5,21.5-3.4,29.5,3.9c44,40.2,77.5,88.1,102.5,142.1
			C2779.4,1345.3,2780.5,1349.3,2782.6,1355.4z"/>
		<path class="st0" d="M2599.3,1305c0,28.9-1,57.9,0.4,86.8c0.8,16.5-6.2,19.3-20.3,18.5c-12.2-0.6-22,0.9-21.5-17.4
			c1.5-57,1.5-114.1,1.4-171.2c0-16.2,4.8-23.1,22.8-23c19.3,0.1,21.1,8.8,20.5,24.4c-1.1,27.2-0.3,54.6-0.3,81.9
			C2601.3,1305,2600.3,1305,2599.3,1305z"/>
		<path class="st0" d="M2737,1131.3c9.5,0.3,11,6.6,13.9,11.4c25.2,42.5,56.4,79.9,97.4,107.8c20.3,13.8,4.8,22.9-0.9,33.8
			c-7.2,13.8-14.9,7.1-23.5,0.8c-44-32.2-79.8-71.8-107-119.1c-3.4-5.9-12.5-12.7-5.5-19.4C2718.8,1139.5,2729.4,1135.7,2737,1131.3
			z"/>
		<path class="st0" d="M2372.2,1080.5c18.4-2.4,14,12.8,16.2,21.8c2,8.4,5.6,19.1-9.7,19.5c-52.3,1.2-82.3,35.2-106.2,75.2
			c-12.2,20.5-21.5,11.7-35.1,4.1c-18.2-10.2-5.5-19,0.1-27.3c29.1-43.2,60.6-83.6,117.7-90.7
			C2360.9,1082.4,2366.5,1081.3,2372.2,1080.5z"/>
		<path class="st0" d="M1656.6,1852.6c0.4-37.8,31.2-67.5,68.7-66.4c36.1,1.1,66.2,31.5,66.4,67.2c0.2,36.6-31.3,67.7-68.4,67.6
			C1685.7,1920.8,1656.1,1890.5,1656.6,1852.6z"/>
		<path class="st0" d="M2058.6,1920.9c-37.6,0.5-67.9-29.4-68-67.1c-0.1-37,28.1-66.4,65-67.6c36.8-1.2,69,29,70,65.9
			C2126.7,1888.5,2095.6,1920.4,2058.6,1920.9z"/>
		<path class="st0" d="M1888.4,1919.1c-38.9-0.3-67.6-29.3-66.6-67.2c1-38.7,30.7-65.3,72.2-64.6c34.9,0.5,62.7,30.2,62.6,66.6
			C1956.4,1892.6,1928.3,1919.5,1888.4,1919.1z"/>
		<path class="st0" d="M1530.4,1788.4c39.9-0.3,67.5,26.6,67.3,65.5c-0.2,37.4-28.3,65.4-65.8,65.4c-39.7,0-68.6-27.2-69-65
			C1462.4,1816.4,1490.8,1788.7,1530.4,1788.4z"/>
		<path class="st0" d="M1353.2,1786.2c37.4,0.4,66.8,31.1,66.2,68.9c-0.6,36.6-30.1,65.7-66.6,65.9c-37.2,0.1-68.3-30.7-68.1-67.5
			C1284.8,1816.6,1316.3,1785.7,1353.2,1786.2z"/>
	</g>
</g>
</svg>
