<?xml version="1.0" encoding="utf-8"?>
<!-- Generator: Adobe Illustrator 23.0.0, SVG Export Plug-In . SVG Version: 6.00 Build 0)  -->
<svg version="1.0" xmlns="http://www.w3.org/2000/svg" xmlns:xlink="http://www.w3.org/1999/xlink" x="0px" y="0px"
	 viewBox="0 0 3000 3000" style="enable-background:new 0 0 3000 3000;" xml:space="preserve">
<style type="text/css">
	.st0{opacity:0.49;}
	.st1{stroke:#000000;stroke-width:10;stroke-miterlimit:10;}
</style>
<g id="Layer_1" class="st0">
</g>
<g id="Layer_2">
	<g>
		<path class="st1" d="M1778.1,2657.1c20.8-57.8,54.1-103.8,105.7-135.6c37.9-23.4,79.2-34,123.1-34.8c8.5-0.2,26.2-6.3,22.2,11.2
			c-3.2,13.8,11.5,38.9-20.2,40.6c-36.1,1.9-70.7,10.1-101.7,30.6c-61.1,40.3-90.6,100-86.4,169.6c5.6,93.2-63.4,166.8-149,191.1
			c-91.4,25.9-183.7,20.9-275.9,3.9c-44.6-8.2-88.6-19.7-131.2-35.2c-17.3-6.3-31.2-4.4-47.7,3.6c-122.6,59.7-280.7,35.3-377.9-81.8
			c-89.9-108.4-95.7-264.7-11.2-381.5c13.1-18.2,8.9-24.4-7.1-35.1c-58.1-38.8-98.1-92.9-121.8-157.7
			c-31.5-86.2-14.4-166.2,39.9-238.7c9.2-12.2,15.2-21.2,8.2-38.8c-90.1-229-35.7-450.2,149.3-613.1c6.3-5.5,12.5-11.1,21.6-19.3
			c-134.6-57.9-187.8-169.8-211.3-303c-10.3-58.4-18-116.7-19-175.9c-2.6-165.9,27.9-324,107.6-471.6
			c62.6-116.1,154.8-190.9,283.1-224.7c147-38.8,295.4-66.1,446.8-82.3c172.9-18.4,345.3-12.9,517.9-4.3
			c141.4,7.1,214.1,84,218.8,226.1c1.9,56.5-5.6,111.5-29,163.6c-38.1,84.8-105.6,122.2-196.8,106c-106.8-18.9-213-40.7-321.4-50.3
			c-121.1-10.7-239.8-10-353.6,42.2c-168.7,77.3-237.2,210.8-200.4,393.4c16.6,82.4,50.7,155.9,104.2,220.6
			c11,13.3,20.6,19.1,39.6,15.1c217.6-45.1,436.5-35.8,654.9-9c111.8,13.7,157.3,66.3,170.2,177.9c4.4,38,6.1,75.5-2,113.3
			c-14.2,66.6-62.6,104-129.9,95.1c-22.7-3-26.9,7.7-31.9,23.9c-41.3,135.6-39.6,270.1,8.7,403.7c8.5,23.7-9.1,48.5-33.2,46.2
			c-8-0.8-8.8-7.5-11.1-13.3c-32.5-83.4-49-169.9-46.7-259.4c1.8-68.7,11.9-136.4,35.1-201.4c6.8-18.8-2.3-21.4-15.9-24.4
			c-53.9-11.8-108.7-16.4-163.5-15.9c-102,0.9-205.5-9.2-304.9,21.9c-95.1,29.7-182.5,76.3-263.1,135
			c-63.5,46.3-94,111.8-107.2,187.2c-3.2,18.2-0.1,28.5,20.9,33.7c37,9.2,71,26.6,102.6,48.1c106.4,72.6,126,181.7,75.6,302.1
			c-10.2,24.4-24.6,46.6-41.3,67.2c-6.6,8.1-12.1,14.2,1.9,21.4c58,29.6,101.4,74.7,136.1,136.1c17.4-81.3,76-89.8,139.5-88.9
			c59.3,0.9,93.6,32.9,100.3,92.3c3.8,33.3,0.9,67.2,12.9,99.9c10.8,29.3,26.2,46.6,60.2,42.8
			C1710.8,2622.2,1745.7,2632.3,1778.1,2657.1z M1221.3,1207.6c-55.4-72.3-92.6-147.9-110.5-233.2c-45.7-218.1,38.4-379,242.4-466.5
			c125-53.6,254.1-51.8,385.5-38.9c105.1,10.3,208.2,32.3,312.1,49.3c62.9,10.3,105.7-14,132.1-72.1
			c23.2-51.1,29.9-105.3,26.2-160.7c-6.4-96.6-56.4-148.8-153.1-156.2c-199.8-15.2-399.8-19.7-598.9,8.6
			c-131.4,18.7-261.7,42.8-389.2,81.5c-99,30-170.1,90.6-218.7,179.4C724,627.9,711.3,868,782.8,1115.4
			c26,90,89.3,145.3,173.3,180.2c9,3.7,17.2,5.5,26.9,0.1C1056.2,1255,1134.1,1226.7,1221.3,1207.6z M1678.1,1215.3
			c-103.6-5.2-206.3-1.4-308.8,17.4c-123.6,22.8-245.8,47.2-358.6,107.4c-207.5,110.8-306.4,366-224.8,585.8
			c7.4,20,13.3,20.5,29.9,9c47.3-33,101.3-47.8,158.4-45.8c26.5,0.9,35.7-4.8,40-32.2c11.7-73.4,39.6-140.6,97.7-190.3
			c96.9-82.7,206.7-147.5,330.7-172.1c180.2-35.6,362.7-35.2,541.7,17.3c53.8,15.8,84.9-4.4,93.6-60.4c4.1-26.4,1-52.6-0.6-78.9
			c-5.5-89.8-39.3-125.2-127.8-140.1C1859.5,1217.3,1768.5,1220.9,1678.1,1215.3z M1077.9,2880.1c143.5,0.6,262.9-114.7,261.9-253.1
			c-1-148.1-114-264.4-257.2-264.8c-144.5-0.5-260.1,113.2-261.4,257C819.9,2763.3,934.2,2879.5,1077.9,2880.1z M976.6,1941.9
			c-122.8,0.1-227,87.9-238.5,204.4c-7.6,76.5,29.7,136.6,80.8,188.4c47.2,47.9,51.9,46.2,110.3,14.3c20.3-11.1,27.3-22.3,25.9-46.1
			c-5.6-95.2,30.7-172.7,106.3-230.9c9.2-7.1,20.3-28.5,34.9-5.2c9.7,15.4,26.2,27.9-1.6,47.2c-61.1,42.7-88.6,104.8-88.3,179.6
			c0.1,18,4.3,25.2,23.3,20.3c25.9-6.7,54.1-10.2,78.4-2.6c48,14.9,70.1-11.4,89.8-46.2c7.8-13.7,16.1-27.4,22-41.9
			c36-89.4,15.9-169.7-54.6-220.6C1108.9,1961.9,1046,1941.8,976.6,1941.9z M1291.6,2849.9c88.7,36,230.3,53.5,316.5,40.2
			c46.5-7.2,90.7-20.2,124.9-55.4c30.4-31.2,44.1-66.9,27.1-109.5c-16.6-41.7-51.1-47.2-91-46.1c-55.7,1.5-82.8-18.8-103.5-70.5
			c-12.8-31.9-16-65.3-18.4-99.1c-4.3-60.7-20.3-71.5-80.1-64.6c-35.7,4.1-52.8,21-57.5,54.7c-2.9,20.9-8.4,41.5-10,62.4
			C1391.7,2667.2,1382.6,2771.7,1291.6,2849.9z"/>
		<path class="st1" d="M1531.3,1967.4c-83.7-0.2-151-67.6-150.8-150.8c0.2-82.8,68.2-151.1,151.1-151.6
			c83.6-0.6,153.7,70,152.6,153.5C1683.1,1901.7,1615.4,1967.7,1531.3,1967.4z"/>
		<path class="st1" d="M1719.7,973.3c-54.7,0.3-97.1-40.7-97.1-94c-0.1-52.1,44.9-96.7,96.9-96.3c51,0.4,94.3,43.4,95.3,94.6
			C1815.9,931.1,1774.2,973,1719.7,973.3z"/>
		<path class="st1" d="M1533.2,878.4c0.4,54.5-40.9,96.2-95.2,96.2c-54,0-96.1-42.2-95.7-96.1c0.4-51.6,42.5-94.5,93.9-95.6
			C1488.5,781.8,1532.9,825.4,1533.2,878.4z"/>
		<path class="st1" d="M2084.5,896.2c0,44.2-33.8,78.2-77.9,78.4c-43.9,0.2-79.1-33.7-80-77c-1-43.7,36.4-81.3,80.3-80.8
			C2050.3,817.3,2084.5,852.3,2084.5,896.2z"/>
		<path class="st1" d="M1947.8,2294.6c4.1-65.9,37.5-113.3,98.2-141.6c7.3-3.4,20.8-15.5,24.6,3.5c2.8,14.2,21.1,30.1-1.4,43.7
			c-2.7,1.6-5.8,2.6-8.5,4.2c-78.7,45.4-81.9,144.7-3.5,189.5c30,17.1,12.9,32.7,6.2,47.7c-9.7,21.5-23.9,4-33.2-1.6
			C1976.4,2407.5,1948.1,2359.7,1947.8,2294.6z"/>
	</g>
</g>
</svg>
