<?xml version="1.0" encoding="utf-8"?>
<!-- Generator: Adobe Illustrator 23.0.0, SVG Export Plug-In . SVG Version: 6.00 Build 0)  -->
<svg version="1.0" xmlns="http://www.w3.org/2000/svg" xmlns:xlink="http://www.w3.org/1999/xlink" x="0px" y="0px"
	 viewBox="0 0 3000 3000" style="enable-background:new 0 0 3000 3000;" xml:space="preserve">
<style type="text/css">
	.st0{stroke:#000000;stroke-width:10;stroke-miterlimit:10;}
</style>
<g id="Layer_1">
</g>
<g id="Layer_2">
	<g>
		<path class="st0" d="M1500.2,2806.3c-30.3,83-96.3,122.4-174.8,143.5c-110.9,29.7-219.4,18.5-323.3-30.1
			c-108.9-51-167.8-138.9-179.2-257.4c-19.9-206.8-24.5-413.6,7.7-619.8c3-19.3-1.2-31.1-17.2-44c-54.9-44.3-78.6-104.5-78.7-173.9
			c-0.5-189.7-0.7-379.4,0-569c0.3-93.7,40.6-164.7,125.7-207.5c10.2-5.1,13.1-10.7,12.5-21.9c-9.1-160.9-14.3-321.9-10.5-483.1
			c1.8-74.5-1-149.4,11.9-223.5c16.4-94.2,68.8-161.2,152.3-205.2C1084,84.4,1146,70.2,1210,66.4c85.5-5,171.2-9.7,255.8,10.3
			c28,6.6,54.8,16.8,77.7,34.4c11.8,9.1,20.4,8.2,33.1,1.8C1723.2,39.2,1876,27.5,2033,72.7c51.9,14.9,97.9,41.5,135.5,81.8
			c31.9,34.3,46.3,75,52,120.6c14.4,113.7,15.9,227.7,8.5,341.9c-5.4,83.2-12.8,166.4-17.8,249.6c-3.5,58.5-4.2,117.1-6.7,175.6
			c-0.4,10,2.5,16.2,10.7,21.8c67.8,46.4,97.6,112.1,97.5,193.1c-0.2,188.2-0.1,376.4,0,564.7c0,75.7-26.8,138.6-88.1,184.7
			c-10.8,8.1-9.4,16.3-6.8,26.7c35.2,139.4,48.4,281.2,41.4,424.6c-3.9,80.5-15.1,159.9-37.1,238
			c-38.5,136.9-132.4,212.6-266.2,241.4c-164.3,35.3-310-7.5-437-116.2c-5-4.3-9.9-8.7-14.8-13.1
			C1503.5,2807.4,1502.7,2807.3,1500.2,2806.3z M1525.3,1329.6c-237.2,0-474.5,0.2-711.7-0.4c-18.8-0.1-24.8,4-24.7,23.9
			c0.9,156,0.3,311.9,0.6,467.9c0.2,107.9,68.2,175.6,176,175.6c372.7,0.1,745.4,0,1118.1-0.1c105.8,0,174.6-68.8,174.8-174.9
			c0.3-156-0.3-311.9,0.5-467.9c0.1-18.9-4.1-24.6-24-24.6C1998.4,1329.9,1761.8,1329.6,1525.3,1329.6z M1566.8,655.9
			c0.3,0,0.6,0,0.9,0c3.3-64.3,7.6-128.7,9.4-193c1.8-64.3,10.1-128.4,1.9-193c-9.1-72.1-52.2-122.7-122.9-140.3
			c-26.4-6.6-53.3-9.8-80.3-11c-96.8-4.5-193.3-5.8-286.5,27.5C989,181.8,931.2,251.8,923.7,358.7c-9.3,131.5-10.3,263.4-7.4,395.2
			c1.9,85.6,6.5,171.2,10,256.8c0.4,9.7-0.1,17.6,15.1,17.2c53.4-1.4,106.9-0.7,160.4-1c33.6-0.2,29.3,4,29.3-28.9
			c0.2-188.2,0-376.4,0.2-564.6c0-7-3.6-18,3.1-20.4c14.4-5.2,30.8-4.2,45.4-0.9c10.4,2.4,5.4,15.1,5.5,23
			c0.3,189.7,0.5,379.4-0.2,569c-0.1,18.1,4.5,23.5,23,23.3c106.9-0.9,213.8-1,320.8,0.1c20.4,0.2,23.3-6.7,23.9-24.9
			C1556.6,887,1561.9,771.4,1566.8,655.9z M1886.2,2378c0,102.5,0.1,205.1-0.1,307.6c0,6.2,3.1,16.9-3.4,17.9
			c-15,2.3-31.3,3.7-45.7-0.1c-10.1-2.6-4.7-16.8-4.8-25.7c-0.3-201.4-0.5-402.8,0.3-604.2c0.1-19.8-5.4-24.2-24.5-23.9
			c-87.9,1.1-175.8,1.2-263.6-0.1c-20.5-0.3-23.5,6.4-23.4,24.6c0.8,126.7,1.1,253.4,0.1,380.1c-0.6,79.1-1.1,158.3-7.2,237.1
			c-2.9,36.9,5.8,60.7,33.9,84.6c115.2,97.9,245,141,394.9,109.1c117.4-25,198.7-90.3,229.8-211.6c17.5-68.5,27.8-137.6,32.2-207.8
			c8.7-139.1-5-276.3-37-411.8c-2.7-11.2-7.2-14.4-18.2-11.1c-23.4,6.9-47.5,7.6-71.8,7.5c-57.1-0.3-114.3,0.6-171.4-0.5
			c-16.8-0.3-20.5,4.6-20.4,20.8C1886.6,2172.9,1886.2,2275.5,1886.2,2378z M1859.9,718.3c0,93-0.2,186,0.1,279
			c0.1,33.8-5.6,29,30.6,29.7c80.2,1.4,160.7-4.4,240.7,4.2c18,1.9,20.2-2.5,20.5-18c1.8-108.3,6.9-216.6,17-324.4
			c12.6-135.3,13.4-270.2-1.4-405.4c-5.8-52.7-28.9-92.6-71.9-122c-18.2-12.4-37.5-23.3-58.3-30.3c-145.4-49-287.6-40.1-426.6,24.4
			c-10.4,4.8-12.4,9.3-6.1,19.6c16.8,27.3,23.7,57.9,27.6,89.4c9.8,78.3,2.9,156.6-1.7,234.6c-10.1,169.5-16.8,339.2-24.9,508.8
			c-0.8,16.3,4.9,19.4,19.6,19.2c52-0.7,104-1.2,155.9,0.2c19.8,0.5,25.8-4.7,25.7-25.2c-0.9-180.1-0.5-360.2-0.5-540.4
			c0-5.9,0-11.7,0-17.6c0-33.8,0-32.9,33.4-34c16.1-0.5,21,3.5,20.8,20.3C1859.4,526.5,1859.9,622.4,1859.9,718.3z M1468,2405.6
			c0-120.3-0.4-226.5,0.4-332.6c0.1-17.7-3.7-23.7-22.6-23.4c-76.1,1.1-152.3,1.4-228.4-0.1c-21.4-0.4-26.2,5.2-26.1,26.3
			c0.9,194.8,0.6,389.5,0.4,584.3c0,7,3.7,18-2.7,20.5c-14.2,5.7-30.6,4.3-45.2,1.2c-10.7-2.2-5.5-15-5.5-22.8
			c-0.3-195.5-0.5-391,0.2-586.5c0.1-18.5-5.3-22.5-23.1-23c-73.7-2.2-147.9,8.5-221.1-7.7c-6.1-1.3-9.7,0.1-10.4,7.1
			c-0.7,7.3-2.5,14.4-3.5,21.7c-26.5,191.9-22.1,384.1-4.8,576.2c7.1,78.4,32.1,149.7,102,195.4c117.6,76.9,243.4,91.7,374.7,41.1
			c47.7-18.4,87.4-49.1,98-104c4.7-24.3,7.7-49.1,9.6-73.9C1467.9,2601,1463.8,2496.1,1468,2405.6z M1523.6,1276.2
			c236.5,0,473-0.3,709.5,0.6c22.2,0.1,26.4-6.8,25.8-27.1c-2.6-99.5-70.2-168-170.2-168.1c-376.3-0.5-752.7-0.6-1129-0.2
			c-101.5,0.1-168.5,68.5-170.7,169.8c-0.4,19.8,4.6,25.6,25.1,25.5C1050.6,1276,1287.1,1276.2,1523.6,1276.2z"/>
	</g>
</g>
</svg>
