<?xml version="1.0" encoding="utf-8"?>
<!-- Generator: Adobe Illustrator 23.0.0, SVG Export Plug-In . SVG Version: 6.00 Build 0)  -->
<svg version="1.0" xmlns="http://www.w3.org/2000/svg" xmlns:xlink="http://www.w3.org/1999/xlink" x="0px" y="0px"
	 viewBox="0 0 3000 3000" style="enable-background:new 0 0 3000 3000;" xml:space="preserve">
<style type="text/css">
	.st0{stroke:#000000;stroke-width:10;stroke-miterlimit:10;}
</style>
<g id="Layer_1">
</g>
<g id="Layer_2">
	<g>
		<path class="st0" d="M1768.8,2707.5c-27.3,19-51.6,34.8-79.5,43c-14.5,4.3-15.3,15-16.7,26.2c-3.7,30.2-14.4,58-30.4,83.6
			c-70.4,113-206.8,109.8-272.2-6.5c-17.5-31-29.6-64.3-27.7-100.1c1.4-27.3-20.6-29-35.5-35.2c-14.7-6.2-15.4,12.6-20.2,21.1
			c-40.3,71.5-97.2,125.9-171.1,160.5c-147.2,68.9-297.6,72-446.2,7.4c-150.9-65.6-211.7-204.3-165-362.1
			c29.2-98.7,89-175.7,169.8-237.7c8.3-6.3,25.2-9.8,7.7-26.2c-116.8-109.7-174.8-251.3-211.2-402.6
			c-47-195.5-76.8-394.2-101.2-593.8c-14.6-119.1-22.8-238.4-17.3-358.2c8.1-176.9,41-347.7,129.2-504.7
			C589,230.4,751.5,124.3,969.9,101.8c217.8-22.4,436-36.6,655-39.2c193.8-2.3,380.1,27.2,555.4,113.3
			c88.5,43.5,168.8,99.2,243.1,163.9c112.9,98.4,160.1,226,171.6,371.7c20.3,257.7,9.8,515.8,12.5,773.8
			c1.9,182.8-6.7,365.4-6.3,548.1c0.3,122.2-34.9,231.8-113.1,326.2c-11.9,14.4-9.4,23.4-1,37.4c49.8,82.9,75,172.7,62,269.3
			c-18.6,138-101.9,222.5-232.9,259.5c-100.5,28.4-203.7,35.2-306.3,12.1C1885.9,2909.9,1803.3,2835.1,1768.8,2707.5z M878.9,1299.8
			c-0.4,87.7-1.5,175.3,5.7,263c12.4,151.4,66.8,283.4,183.2,383.2c221.6,190.1,476.5,244.7,757.5,171.3
			c263-68.7,467.7-250.8,498.8-579.2c13.8-145.8,12-290.7-3.5-435.5c-18.1-169.3-84.5-315.6-216-428.4
			C1866.7,470.4,1597,423,1303,519.6c-212.9,69.9-350.9,214.9-397.3,438.2C882.4,1070.3,881.3,1185.2,878.9,1299.8z M861.8,2902.2
			c62.9-0.2,108.8-6.9,153.7-19.4c165.4-45.9,259.5-162.7,269.4-332.2c1.6-27.9-4.2-43.5-36.3-45.9c-33.7-2.6-67.1-10.7-100.4-17.7
			c-19.3-4.1-27.4-2.5-29.3,21.6c-8.4,102.7-85.1,180.1-185.3,187.6c-21.7,1.6-29.9,7.9-26.3,28.8c4.2,24.1-7.3,28.3-29.4,29
			c-26,0.9-24-12.7-24.7-30.4c-0.7-16.7,7.8-34.5-15.6-47.9c-111-63.6-135.6-192-58.3-293.7c3.7-4.9,9.9-10,10-15.1
			c0.3-13.3-56.8-36.7-68.8-28.3c-89.9,62.6-152.4,144.7-174.5,253.5c-22.3,109.8,22.6,204,121.5,256.9
			C732.8,2884.2,804,2899,861.8,2902.2z M975.6,177.1c-99.9,2.2-140.2,17.9-173.4,62.6c-101.7,136.9-21.8,350,145.2,386.4
			c38.8,8.5,76.6,7.1,107.9-21.1c52.7-47.6,112-84.1,178.3-109.3c23.1-8.8,31.2-23.1,26-48.1c-12.8-61.4-37.5-117.3-71-170
			c-25.5-40.1-60.5-66.9-104.3-83.4C1044.9,179.5,1003.8,177.1,975.6,177.1z M2113.8,2898.4c69.9-1.3,116.8-6.1,163.5-15.3
			c128.2-25.2,209.3-109.7,222.3-235.5c7-67.4-10-130.9-38.8-191.5c-20.9-44-20.4-42.5-62.4-18.7c-21.9,12.4-30,24.7-30.2,52
			c-0.5,85.1-34,156.3-113.8,193.8c-30.6,14.4-39.2,30.6-35.3,59.9c2.6,19.3-1.5,29.8-25.5,29.6c-22.3-0.2-27-7.1-27.4-28.1
			c-0.3-15.1,14.5-39.1-15.9-44.7c-89.2-16.5-147.5-68.9-177.6-153.5c-4-11.3-9-16.4-21.9-15.3c-35.9,3-72,4.7-108,6.7
			c-10.8,0.6-19.6,1.6-22.3,15.6c-25.7,132.7,14.5,268.9,160.6,322.4C2031.1,2894.2,2083.4,2898.2,2113.8,2898.4z M2331,821.5
			c72.8-0.9,120-26.6,154.7-79.8c79.1-121.5,11.7-326.7-137.6-346.5c-45.3-6-91.1-7.9-135.5-0.4c-71.3,12.1-125.3,51.4-152.3,120.9
			c-16.1,41.5-10.9,54.6,24.8,81.1c68.5,50.8,128.7,110.1,174,182.4C2279.4,811.8,2305.8,823.2,2331,821.5z M962,2304.2
			c15.7-0.7,41.7,0,67.1-3.6c61.2-8.6,111.6-36.8,144.2-90.5c36.7-60.3,25.6-110.4-33.6-148.6c-59.3-38.3-113.4-82.4-159.7-135.8
			c-12.8-14.8-28-20.6-46.7-16.9c-103,20.1-181.4,71-217.4,174.6c-31.6,90.8,7.4,169.6,98.6,201.6
			C859.3,2300.7,905.8,2300.1,962,2304.2z M2313.1,1947.7c-124.4,0.1-175.1,39-199.1,152.9c-28.9,137,100.3,280.7,239.6,266.5
			c106.8-10.9,198.2-158.8,169.3-274.1C2499.4,1999.4,2424.7,1947.6,2313.1,1947.7z M920,2646.1c79.9,0.8,152.8-76.6,149.5-158.1
			c-0.5-11.7-2.8-17.6-16.1-20.9c-68-16.9-135-36.9-198.1-67.9c-11.7-5.8-18.4-2.5-26.9,5.3c-38.8,35.8-52.9,98.6-33.2,151.1
			C815.3,2609,865.6,2645.6,920,2646.1z M645.7,2161.1c28.8-140.1,29.3-142,123.9-231c13.7-12.9,6.9-18.2-3.2-25.5
			c-50.8-37.1-101.4-74.4-152.5-111.2c-6.4-4.6-14.9-9-22.4-8.9c-40.8,0.6-80.8,56.2-68.6,96c11.8,38.4,26,76.1,38.6,114.3
			C580.7,2052.8,607.1,2107,645.7,2161.1z M1649.9,2542.2c0,0.4,0,0.8,0,1.2c-14.5,0-28.9,0.1-43.4,0c-23.7-0.2-52.3-8.7-69.9,1.6
			c-18.4,10.7-9.2,43-15.3,65.2c-1.4,4.9-3.5,9.7-4.5,14.7c-6.8,33.6,9.7,64.1,41.4,77.6c25.8,11,53,8.4,79.4,6.6
			c44.1-3.1,79.7-25.7,111.4-55.2c20.7-19.2,9.1-44.9,14.3-67.2c2.1-9,1.1-18.8,3.8-27.5c4.7-15.2-2.3-17.4-15.1-17.2
			C1718,2542.5,1683.9,2542.2,1649.9,2542.2z M758.7,213.6c-16.6,0.3-25,8.5-34.3,14.2c-73.8,45-128.3,108.7-175.2,180
			c-37.6,57.2-37.5,57.2,14.4,99.9c8.8,7.2,17.4,14.5,25.8,22.1c12.3,11.3,24.1,12.5,38.6,2.5c23.7-16.3,48.4-31.2,73-46.3
			c11.8-7.2,18.8-16.5,14.7-30.6C691.1,369.5,709,290.6,758.7,213.6z M2545.2,746.8c-17.3,19.3-29.3,30.5-38.7,43.5
			c-37.7,52.2-90.9,70.9-152.5,73.3c-13.5,0.5-33.5-7.2-39.2,8c-5.8,15.4,7,31.4,17.6,43.9c7.2,8.4,16.5,15.8,26.2,21.2
			c40.5,22.3,81.3,44,122.4,65.3c34.4,17.8,48.6,12.5,65.8-23c5.9-12.1,10.9-24.6,10.1-38.4C2553.4,879.1,2549.6,817.6,2545.2,746.8
			z M839.8,1885.5c24.8-6.6,49.6-13.1,74.3-19.7c7.4-2,11.2-8.1,7-13.9c-24.9-34.4-28.8-82-69.4-106.8
			c-33.3-20.3-65.4-42.9-97.1-65.8c-16-11.6-28.6-12.2-43.8,1.1c-18.5,16.3-38.1,31.5-58.1,45.9c-18.2,13.2-19.4,22.5,0.5,36.4
			c50.6,35.3,99.8,72.6,149.6,109.1C813.9,1879.9,825.8,1885.6,839.8,1885.5z M2179.2,2650.4c89.1-0.2,139.4-91.2,137.6-157.2
			c-0.4-12.6-6-12.7-15.8-9.4c-83.8,28.3-171.5,31.9-258.4,40.1c-20.4,1.9-21.1,9.2-14.2,25.5
			C2052.6,2606.5,2118,2650.8,2179.2,2650.4z M1504.7,2892.1c59,2.9,109-65.6,116.4-117.9c1.9-13.5-9.6-10.6-17-11.1
			c-26.8-2-52.8-6.2-77.8-17.8c-22.4-10.4-34.5-45.4-54-41.7c-21,4-39.6,27.4-64.8,32.3c-8.7,1.7-15.1,4.9-15,15.8
			C1393.2,2812.6,1442,2887.3,1504.7,2892.1z M597.7,610c0.9-0.2-2.5-0.4-5,1.1c-28,17.2-56,34.4-83.5,52.3
			c-13.9,9.1-1.8,15.7,4,21.3c35.4,34.4,71.4,68,106.6,102.6c12.7,12.5,23.8,12.4,37.7,2.1c22.3-16.5,45-32.4,68.4-47.3
			c18.8-12,21.2-21.8,2.2-36.6c-36.5-28.4-71.8-58.2-107.5-87.6C615.1,613.4,609.7,608.6,597.7,610z M709.5,1174.2
			c-3.9,1.3-7.1,1.8-9.6,3.4c-37.5,25.1-75.1,50.1-112.3,75.6c-12.1,8.3-1.7,13.9,4.1,18.6c30.3,24.7,60.9,48.8,91.1,73.5
			c10.2,8.4,19.6,9.5,30.5,1.4c32.2-23.8,64.7-47.2,97-70.9c8.5-6.2,14-13.2,3.2-22c-31-25.4-62-50.7-93.3-75.8
			C717.2,1175.8,712.7,1175.3,709.5,1174.2z M432.3,1378.7c-0.7,13.1,2.6,25.6,13.1,33.2c26.5,19.3,54,37.4,81.3,55.6
			c10.4,6.9,19.7,1.7,28.3-4.6c27.4-20,54.5-40.4,82.2-60c14-9.9,17.7-18.6,2.1-30.7c-30-23.3-59.5-47.4-89.1-71.2
			c-5.8-4.7-13.1-10.2-19.5-6.6c-32.9,18.7-65.9,37.6-93.7,63.9C431.3,1363.5,432.2,1371.4,432.3,1378.7z M408,843.3
			c-0.5,17.8,49.9,69.4,68,68.4c5.6-0.3,11.5-4.1,16.4-7.5c27.3-18.6,53.8-38.3,81.6-56c19-12.1,16.7-22,1.9-35.8
			c-35.4-33.2-69.7-67.5-105-100.9c-17.9-17-38.6-11.4-43.4,12.8C419.7,763.8,414.4,803.7,408,843.3z M724.3,1600
			c10.3,0.8,15.9-3.8,21.6-8.3c21.8-17.3,43.1-35.1,65.5-51.6c15.3-11.2,14.6-19.9,0.1-30.9c-32.8-25-65.6-49.9-97.2-76.3
			c-14-11.7-24-10.5-37.6,0.2c-25.1,19.7-51.2,38.1-77.5,56.2c-15.8,10.9-15.5,18.5,0.7,29c36.3,23.5,71.7,48.3,107.6,72.4
			C713.4,1594.6,719.9,1597.6,724.3,1600z M466.2,1603.2c0.9,16.1,7,26.7,18.9,35.2c29.3,20.9,58.3,42.3,86.5,64.5
			c13,10.2,22.5,9.5,34.9-1.1c21.8-18.7,44.6-36.3,67.9-53.2c14-10.1,11-15.8-1.6-24c-36.2-23.5-71.6-48.1-107.6-71.9
			c-12.5-8.2-25.7-21.9-41.2-8.2C503.2,1563,472.4,1572.3,466.2,1603.2z M1474.6,2561.5c-1.4-8.2,9.5-23.4-12.5-25.6
			c-35.9-3.6-71.7-8-107.4-13.3c-13.8-2.1-18.2,1.6-18,15.5c0.3,31-4.3,61.7-10.4,92.1c-7.1,35.9,0.9,47.7,37.1,54.8
			c30,5.9,55.1-2.8,75.6-25C1463.8,2632.9,1474,2600,1474.6,2561.5z M660.2,1140.7c-1.6-2.1-3.1-4.8-5.2-6.9
			c-22.5-21.2-45-42.4-67.6-63.5c-8.8-8.2-17.8-8.2-27.7-0.9c-33.2,24.4-66.3,48.9-100.1,72.3c-14.3,9.9-11.3,16.3,0.4,25.2
			c20.5,15.6,40.4,31.9,60.4,48.2c11.8,9.6,22.8,10.9,36.1,1.4c31-22.1,62.9-43,94.2-64.6C654.6,1149.3,660.6,1147.9,660.2,1140.7z
			 M1568.3,317.9c-3.8-5.8-6.9-11-10.6-15.8c-21-26.7-43.4-52.4-62.7-80.3c-14.7-21.3-29.9-17.9-46.2-5.7
			c-18.1,13.5-34.8,28.9-52.5,42.9c-9.9,7.8-12.7,14.6-3.2,25.2c27.6,30.6,54.4,61.9,81.6,92.8c4.7,5.3,10,12.7,18,6.8
			c24-17.8,47.5-36.2,70.8-54.7C1566.2,326.9,1566.6,321.9,1568.3,317.9z M869,2347.9c43.4,28.9,94.2,39.5,140.7,60.2
			c61.3,27.2,113.5,16.7,163-25c9.5-8,11.9-12.4,2-21.1c-27.9-24.5-54-51.6-96.4-25.7c-11.5,7.1-27.8,6.4-41.9,9.2
			C980.9,2356.2,925.4,2344.4,869,2347.9z M859.3,645.6c-4-3.8-6.3-6.8-9.4-8.8c-41.5-27.9-76-62.6-102.2-105.3
			c-7.8-12.7-16.3-8.5-25.8-2.4c-18.1,11.6-36.1,23.6-55,33.8c-19.3,10.5-16.3,18.9-1,30.7c28.4,21.9,55.6,45.5,83.9,67.6
			c51.9,40.7,30.6,38.3,86.1,2.3C843.5,658.6,850.3,652.5,859.3,645.6z M717.9,958.4c-3.9,1.4-8.4,1.9-11.5,4.2
			c-27,20-53.9,40.3-80.7,60.6c-9.3,7-2.5,11.8,2.5,17.2c68.3,72.6,87.9,74.4,166,14.3c0.8-0.6,1.5-1.5,2.4-1.9
			c13.9-7.1,14.2-14.9,2.7-25.4c-22.1-20.2-43.4-41.2-65-61.9C729.7,961.1,724.9,956.9,717.9,958.4z M1385,2469.3
			c4-1.4,7.4-1.7,9.7-3.4c24-17.7,47.9-35.4,71.6-53.4c9.8-7.4,1.8-12.2-3.6-16.5c-26.5-21.2-53.3-42-79.7-63.3
			c-10-8-20.4-9.8-31.3-3.5c-22.2,12.9-44,26.6-66.1,39.5c-11.3,6.6-11.1,13-1.4,21c29.5,24,58.7,48.3,88.2,72.3
			C1376.3,2465.2,1381.1,2467.1,1385,2469.3z M1518.3,2225.8c-11.3,6.9-24.4,14.8-37.2,23c-21.6,13.8-60.2,27.3-60.6,41.8
			c-0.6,22.8,34.6,35.2,54.5,52c44.5,37.5,34.5,34.4,78.5,1c58.8-44.7,58.5-45.2,2.6-92.8
			C1545.3,2241.7,1536.5,2229.5,1518.3,2225.8z M1691.7,224.3c-1.5-2.2-3.2-6-6-8.7c-30.9-30.4-61.9-60.7-92.8-91
			c-4-3.9-9.4-6.3-14-3.1c-20.1,14.2-45.6,24.9-56.6,46.4c-9.2,18.1,14.7,28.4,25.2,41.4c5.8,7.2,11.4,14.7,17.2,21.9
			c53.5,66.3,53.5,66.2,116.7,9.2C1685.8,236.3,1691.6,233.3,1691.7,224.3z M2351.1,349c1.9-8.1-2-10.5-5-13
			c-27.7-23.1-56.9-44.3-87.5-63.5c-58.5-36.8-58.4-36.9-107.3,9.3c-8.2,7.8-16.9,15.1-25.3,22.7c-4.4,4.1-11.2,8.8-5.4,15.1
			c15.1,16.4,29.5,40.7,54,35.7C2233.6,343.5,2292.4,340.8,2351.1,349z M1337,460.1c23.8-7.3,58-10.2,89-24.9
			c17.4-8.3,18.7-18.4,4.8-33c-22-23.1-43-47.2-63.2-71.8c-15.1-18.3-30.5-26.8-52.6-11.4c-19.7,13.7-35.4,26.4-22.9,55.2
			c9.7,22.4,13.6,47.4,18.9,71.4C1313.1,456.1,1315.7,463.6,1337,460.1z M1656.1,2486c10.2-0.5,14.8-6.4,19.9-11.3
			c14.1-13.5,27.1-28.3,42.2-40.5c19.5-15.8,17.9-26-1.5-42.3c-72.8-60.7-71.8-61.1-144.9-2.3c-16.1,13-15.5,20.4,0.7,32.1
			c24.1,17.4,46.6,36.9,70,55.3C1647.2,2480.8,1652.6,2483.7,1656.1,2486z M2488.3,1713.8c-1.4-1.7-2.9-4.6-5.3-6.2
			c-35.2-23.2-70.3-46.5-105.9-69.1c-11.6-7.4-15.9-0.2-18.6,10.8c-5.1,20.9-11.5,41.5-17.2,62.3c-6.6,23.8,37.2,83.9,62.2,85.4
			C2411.7,1797.5,2489.3,1722.2,2488.3,1713.8z M1479.7,2192.8c-74.1-20-144-37.5-211.2-63.9c-22.5-8.8-24.7,1.3-22.7,18.8
			c1.2,10.8,6.9,19,15.4,25.8c30.8,24.3,61.2,49,92,73.3c8,6.3,16.8,13.7,27.9,6.9C1414.1,2233.6,1446.8,2213.2,1479.7,2192.8z
			 M2557.5,1586.3c0-5.6,0-19,0-32.4c0-3.1,0.2-6.2-0.1-9.3c-2-23.2-15.5-31.5-35.3-19.4c-33.4,20.4-65.5,42.8-98.5,63.9
			c-13.4,8.5-10.8,15.1,0.6,22.4c18.2,11.7,36.3,23.5,54.4,35.4c64.2,42.4,72.8,38.3,77.5-37.4
			C2556.3,1604.4,2556.6,1599.2,2557.5,1586.3z M2561.4,1405.6c2.6-16.2-5.6-26.3-17-34.5c-10.9-7.8-22.4-14.7-33.1-22.6
			c-63-46.3-50.3-43.1-109.2,6.9c-0.8,0.7-1.6,1.3-2.4,1.9c-14.9,11.3-14.2,20.7,2.7,29.7c32.7,17.4,64.8,35.8,97.5,53.3
			C2546.2,1465.2,2559.1,1457.6,2561.4,1405.6z M2557.6,1132c-1.7-37.8-2.4-36.9-21.8-46.1c-24.7-11.7-30,11.5-40.9,22
			c-25.8,24.9-49.8,51.7-74,78.2c-9.9,10.8-27,22.9-8.2,37.8c16.1,12.7,32.2,35.8,57.9,12.5c21.3-19.3,43.8-37.2,66.1-55.3
			C2553.2,1167.8,2563.1,1152.4,2557.6,1132z M2037.2,316.2c-2.4-3.3-4.5-6.6-7-9.7c-50.9-62.8-61.5-63.7-120.5-10.3
			c-7.6,6.9-15.3,13.7-22.9,20.7c-3,2.8-8.4,6.2-8.1,8.7c4.5,33.3,39,41.5,55.3,65.3c5.8,8.5,14.1,11.9,23.4,3.2
			c24.8-23.2,49.7-46.2,74.4-69.5C2034,322.7,2035.1,319.7,2037.2,316.2z M1253.8,124.9c16.1,18.6,28.5,33.4,41.4,47.9
			c55.2,62.1,55.5,62.3,121.1,10.4c10-7.9,29.8-13.2,19.2-32.5c-9.7-17.7-18.9-37.3-45.2-35.3
			C1347.5,118.8,1304.6,121.4,1253.8,124.9z M1803.2,323.2c-15.2-12-32-21.3-43.3-35.2c-19.6-24-35.7-22-59.2-4.5
			c-70,52.2-64.3,44.9-6.7,112.4c10.4,12.2,18.6,12.9,30.3,1.7c19.3-18.6,39.7-35.8,59.6-53.8
			C1788.3,339.8,1792.1,335.1,1803.2,323.2z M1847.3,2305.1c-3.3-4.2-6.5-9.4-10.7-13.5c-12.4-12.3-26.5-23.2-37.6-36.6
			c-16.6-20-32-18.2-49-1.6c-5.1,5-10.9,9.5-16.6,13.9c-46.5,35.9-46.6,35.8-2.9,72.5c46.4,38.9,46.5,39.1,90.2-3.3
			C1830,2327.2,1842.2,2320.2,1847.3,2305.1z M1073.6,140.2c110.9,49.6,115.8,52.8,176.3,139.5c14.1,20.2,25.4,9.3,38.4,1.4
			c14.9-9.1,19.8-19.6,6.4-34.6c-30.8-34.5-61.2-69.4-91.6-104.2c-7.3-8.4-16.6-12.6-27.3-11.6C1143.1,133.6,1110,131,1073.6,140.2z
			 M1894.3,2473.8c0.4-0.1,4.2,0.1,6.3-1.6c13.3-11.3,25.5-24.2,39.6-34.4c22.5-16.3,22-29.3,1.4-48.4
			c-54.5-50.4-53.1-50.5-107.3,0.4c-18.7,17.5-18.5,29,1.3,43.8c11.5,8.6,20.9,19.9,31.6,29.5
			C1873.9,2469.4,1881.3,2475.4,1894.3,2473.8z M2205,2457.4c-29.2-31.1-57.7-61.7-86.5-91.9c-4.3-4.5-10.3-5.7-17.1-3.9
			c-19,5-54.4,41.2-53.9,55.9c0.4,12.8,43,53.6,59.1,53.6C2140.4,2471,2174,2468.2,2205,2457.4z M1231.6,2339
			c31.9-7.3,57.1-29.6,85.3-46c3.5-2,5-7.9,1.4-10.8c-27-22.2-54.2-44.2-81.9-65.6c-4.1-3.2-67.9,74.8-64.2,78.8
			C1188.5,2313.4,1202.5,2335.1,1231.6,2339z M576.4,993.1c10-0.1,15.3-5.2,21.1-9.3c20.9-14.9,41.7-29.7,62.9-44.2
			c11.7-8,27.1-13.3,15.1-32.7c-14.1-22.8-44.4-40-58.1-30.7c-27.1,18.4-53.7,37.6-80.4,56.6c-6.7,4.8-15.4,10.7-10.3,19.7
			C538.2,972.8,557.1,984.9,576.4,993.1z M1841.2,290.3c2.2-0.9,6.7-1.6,9.6-4.1c21.9-18.8,43.7-37.7,64.9-57.3
			c3.1-2.9,5.7-10.4,4.1-13.8c-9.9-21.2-27.4-36.2-46.6-48.3c-15.2-9.5-23.9,6.8-34.2,13.7c-16.2,10.8-31.5,23-47,34.9
			c-5.6,4.3-12.3,8.4-12.8,16.5C1778.5,243.7,1827.3,290.7,1841.2,290.3z M836.4,800.9c-4.7-11.9-16.9-21.6-28.9-31
			c-11.6-9.1-24.3-10.2-37.1-1.3c-22.7,16-46.1,31.2-68.1,48.1c-10.9,8.3-29.6,14.3-13.3,35.6c24.1,31.5,37.4,38.3,59.4,23.1
			c25.4-17.6,50.1-36.2,75.1-54.3C829.4,816.9,835.9,813.2,836.4,800.9z M2544.3,1919c9.4-54.9,7.6-106,6.2-156.9
			c-0.5-19.1-14.2-21.4-27.6-8.5c-23.1,22.1-45,45.3-68.1,67.4c-10,9.6-9.1,16.4,1.2,24.8C2484.5,1869,2512.6,1892.7,2544.3,1919z
			 M1991.8,2246.1c-7,0.2-63.8,54.1-64.2,59.1c-0.1,1,0.2,2.1,0.3,3.1c0.8,5.4,66.1,66.1,71.8,66.4c3,0.1,6.8,0.1,8.8-1.5
			c19.7-16.4,46-29.4,54.2-53c4.9-14.2-20.3-25.2-31.7-37.9c-8.9-10-18.9-18.9-28.7-28.1C1998.8,2250.7,1994.5,2248.1,1991.8,2246.1
			z M2378.9,1151.6c30.4-29.4,59-57.1,87.6-84.8c7.1-6.9,9.6-13-1.6-18.9c-36.2-19.2-72.3-38.9-114.1-61.4
			C2367,1044.8,2369.7,1097.9,2378.9,1151.6z M402.2,1123c44.1-31.6,80.6-58.1,117.5-84c9.6-6.7,13.3-14,3-21.8
			c-19.2-14.5-36.3-35.8-64.9-27.7c-33.8,9.6-53.5,33-55.4,66.3C401.3,1075,402.2,1094.4,402.2,1123z M1745.3,439
			c32.5,10.4,61.6,17.3,88.7,28.9c28.2,12.1,47.1-0.8,66-17.6c6.9-6.1,9.5-13.8,1.4-21.2c-21.9-20-38.2-51.5-65.7-58.2
			c-20.7-5-36.4,25.8-55,39.8C1770.1,418.6,1760.1,427.1,1745.3,439z M1951.5,2209.6c-7.2-17.6-20.2-29.3-32.7-41.1
			c-19.8-18.7-37.4-23.1-60.3-0.6c-40.1,39.5-41.8,38.4,0.1,77.6c9.7,9,18.6,27.6,34.7,18.2C1916,2250.7,1935.2,2232,1951.5,2209.6z
			 M1656,108.4c-1.4,2.6-2.9,5.2-4.3,7.8c23.2,21.9,46.8,43.5,69.3,66c12.1,12.1,22.7,10.9,35,1.1c19.3-15.4,39.2-30.2,58.6-45.4
			c4.6-3.6,11.8-6.8,9.1-14.3c-2.2-6-8.2-8.4-14.7-9.5C1758.2,105.5,1707.1,106.6,1656,108.4z M885.7,836.8
			c-40.4,28.7-75.1,53.5-110,78.2c-8.4,5.9-10.6,11.3-2.1,19.3c22.8,21.6,45.2,43.7,71.1,69C855.4,945.2,868.1,893.9,885.7,836.8z
			 M2148.8,219.7c-7-5.5-9.6-8.7-12.9-10.1c-22.6-9.6-44.6-21.3-68.2-27.4c-23.7-6.1-46.9,4.8-58.9,24.4
			c-11.1,18.1,12.4,24.5,22.6,33.6c47.2,42.3,47.4,41.9,94.1-2.2C2132.2,231.7,2139.9,226.7,2148.8,219.7z M976.7,681.2
			c-46.3-22-106-3.6-130.4,39.3c-1.9,3.3-3.6,7.7-3,11.1c4.8,26.2,47.6,43.4,68.9,27.5C939.8,738.5,957.4,709.3,976.7,681.2z
			 M2385,1432.2c-3.5,43.6-9.6,83-5.7,127.7c37-24.1,70.6-46,106.9-69.7c-8.2-5.7-12.1-8.8-16.4-11.2
			C2442.9,1464.1,2416,1449.3,2385,1432.2z M1571,2195.2c7.2,7.7,10.3,11.5,13.9,14.7c83.3,74.1,48.6,68,136.1,4.2
			c6.2-4.5,15.7-8.8,11.2-19.2c-3.5-8.3-12-6.7-19-6.4C1667.9,2190.5,1622.7,2192.8,1571,2195.2z M2247.9,1901.8
			c45.4,11.5,73.2-12.9,98.5-42.8c7.8-9.3,18.6-19.1,12.1-32.6c-7.8-16.5-24.6-24.3-39.7-32.8c-5.9-3.4-8.9,2.3-11.5,6.8
			C2287.8,1833.8,2268.2,1867.2,2247.9,1901.8z M466.5,632.6c13.4-8.3,27.5-16.6,41.3-25.4c62.3-39.7,62.2-41.1-0.9-82
			c-0.9-0.6-1.8-1.1-2.5-1.8c-8.6-7.5-13.3-5.1-18,4.9c-12.7,27-23.3,54.6-31.8,83.2C451,623.1,454.6,629.1,466.5,632.6z
			 M823.8,1326.6c-26.8,19.3-49.9,36.1-73,52.7c-7.7,5.6-12.3,11-2,18.8c23.9,18.2,47.5,36.7,75,58
			C823.8,1410.2,823.8,1370.8,823.8,1326.6z M2108.1,381.2c-0.3-13.9-30.4-30.2-40.3-21.5c-24.7,21.8-49.3,44-71.3,68.4
			c-14.8,16.5,1.9,27.4,13,38c14.6,13.9,18.9-0.3,24.7-9.2c15.9-24.5,36-44.9,59.6-62C2099.4,390.8,2107,388.5,2108.1,381.2z
			 M2069,2065.3c-35.9,18.4-66.2,33.3-95.9,49.4c-9.7,5.3-28.9,9.3-19.6,24.7c8.9,14.6,25.8,35.7,44.3,23.7
			C2030.7,2141.9,2062.9,2116.4,2069,2065.3z M1655.7,427.8c-15.8-20.2-27.9-35.5-39.8-51c-5.1-6.6-10.2-15.6-19.6-9.3
			c-25.6,16.9-50.5,34.9-75.7,60.3C1568.3,427.8,1609,427.8,1655.7,427.8z M414.9,1195c-4.6,35.6,4.9,65.4,6.1,95.7
			c0.4,10,6.1,12,14.4,6.4c15.3-10.3,30.6-20.7,45.9-31c9.2-6.2,9.3-12.5,0.6-19.2C460.4,1230.3,439,1213.6,414.9,1195z
			 M2549.7,2013.7c4.8-11.3,1.6-20.5-5.5-29c-2-2.4-4.2-4.5-6.6-6.5c-37.9-31.8-75.9-63.4-113.6-95.4c-8.9-7.6-17.3-10.6-27.5-2.9
			c-7.3,5.5-18.5,10.8-16.7,20.2c1.9,9.6,14.8,8.6,23.2,11.5c47.3,16.4,91.3,37.8,123,78.9C2532.7,1998.9,2538,2009.7,2549.7,2013.7
			z M1447,2487c46.8,7.2,89.3,8.4,137.5,10.1c-64-63.9-64-63.9-126.6-17.5C1455.7,2481.1,1453.4,2482.6,1447,2487z M827.2,1204.9
			c1.5-25,3-39.2,3.1-53.4c0.1-18.9,12.1-49.2-2.7-53.8c-18.4-5.8-36.8,20-55.8,31.2c-8.8,5.2-6.9,11-0.8,17.2
			C787.9,1163.6,804.6,1181.2,827.2,1204.9z M1297.6,2467.7c-63.5-66-83-69.4-122.5-22.4C1215.4,2452.6,1254.1,2459.7,1297.6,2467.7
			z M831.7,1589c-66.1,42.2-66.1,42.3-3,81.8c5,3.1,10.3,5.7,18,9.8C840.8,1649.1,842.2,1619.3,831.7,1589z M2558.5,1224.6
			c-25.1,14.7-40.9,30.7-54.8,47.4c-12.7,15.3,7.3,18.7,14.6,22.7c12.2,6.7,20.5,24.4,38.6,16.9c1.5-0.6,1.5-5.7,1.5-8.8
			C2558.5,1278.6,2558.5,1254.4,2558.5,1224.6z M1722.8,2495.3c32.4,0,56.6,0,80.7,0c3.1,0,6.3,1.2,9.1,0.5c4.7-1.2,11-2.4,13.1-5.8
			c4.1-6.6-2.2-10.5-6.9-14.5c-35.9-31.2-39.7-31.2-74.6,1.5C1739.8,2481.2,1735,2484.9,1722.8,2495.3z M488,1703.3
			c0.5,29.4,6.7,52.9,13.5,76.7c52.9-29,53.1-31.2,6.5-63.6C503,1712.9,497.9,1709.8,488,1703.3z M2224.1,2392.2
			c46.5,59.2,58.8,61.6,91.9,21C2286.8,2406.5,2258,2399.9,2224.1,2392.2z M1996.8,536.2c-9.4-29.1-26.5-43.2-45.2-55.5
			c-10.6-6.9-17.1,1.3-22.9,8.8c-9.3,11.9,2.6,13.8,8.9,17.1C1955.3,516.1,1973.4,524.7,1996.8,536.2z M2071.7,2250.7
			c6-18.4-4.1-31.9-5.7-46.5c-0.8-6.8,0-18.6-10.4-19.5c-10.1-0.9-15.3,9.1-21.2,15.8c-7.4,8.5-1.4,15,4.8,20.8
			C2049.5,2230.8,2060,2240.1,2071.7,2250.7z M448.6,1475.7c2.1,21.4,0.9,37.8,9.9,52.9c13.2-4.4,31.6-12.8,30.2-22.1
			C486.2,1491.1,466.8,1485.8,448.6,1475.7z M1923.5,139.9c5.9,15.1,19.3,21.7,29.4,31.2c6.8,6.3,15,7.2,22.1,0.2
			c3.5-3.5,8.7-8.4,8.3-12.1c-0.9-9.1-10.7-8.1-17.1-10.3C1952.8,144.2,1939.3,139,1923.5,139.9z M1962.4,2477.7
			c19,6.5,32.2,3.9,45.3,2.8c5.7-0.5,13.5,1.6,15.2-6.4c1.8-8.6-5.7-13.1-11.7-16C1990.2,2448,1980.5,2465.9,1962.4,2477.7z"/>
		<path class="st0" d="M2195.8,1391.1c-2.8,79.6-2.6,168.5-31,254.2c-70.1,211.6-220.9,331.1-432.6,382.9
			c-188.9,46.2-346.9-15.2-488.4-136.8c-140.9-121.1-220.2-272.1-226.2-460.2c-3.6-113.6-9.6-227.1,12.3-339.4
			c45.4-233.3,189.9-373.4,417.9-423.5c207.7-45.7,397.4,0.8,561.4,139c120.3,101.3,171.8,236.1,182.3,389.4
			C2195.7,1258.4,2201,1320.1,2195.8,1391.1z M2146.4,1341.1c-0.3-56.3-2-130.8-17.6-203.7c-22.9-107.3-56.7-212.4-144-284.6
			c-134.7-111.5-286.4-177.5-468-150.7c-230.4,34-388.9,158.4-434.7,393.2c-21.5,110.1-16.9,221.3-13,333.1
			c6.2,176.7,79.5,317.5,211.3,430.7c124.9,107.3,262.9,166.8,432.6,126.2c215.9-51.6,360.2-175.5,413.6-395.1
			C2145.1,1514.4,2143.6,1436.5,2146.4,1341.1z"/>
		<path class="st0" d="M727.7,2651.9c35.3-0.6,63.9,27.1,63.8,61.8c-0.1,33-27.8,61.3-60.8,62.1c-34.6,0.9-63.3-27.3-63.3-62.4
			C667.4,2679.4,693.8,2652.5,727.7,2651.9z"/>
		<path class="st0" d="M1080,2798.7c-33.9-0.9-59.9-28.1-59.6-62.3c0.4-35,29.4-63,64-61.6c33.1,1.3,60.5,30,60.2,62.9
			C1144.3,2772.1,1115.1,2799.6,1080,2798.7z"/>
		<path class="st0" d="M2093.1,2769.5c0,35.8-26.7,62.3-61.9,61.5c-33-0.8-60.3-28.2-60.9-61.1c-0.6-33.5,27.6-62.1,62.1-62.9
			C2066.5,2706.2,2093.2,2733.6,2093.1,2769.5z"/>
		<path class="st0" d="M2434.4,2713.9c-0.2,34-26.8,61.2-60.5,61.9c-33.5,0.7-64.2-29.3-64.1-62.6c0.1-33.7,30.1-62.1,64.8-61.3
			C2408.8,2652.7,2434.6,2679.5,2434.4,2713.9z"/>
		<path class="st0" d="M1586.6,1031.9c0,8.4,0.7,13.7-0.1,18.7c-4.6,27.3,3.8,37.1,34.1,36.5c30.4-0.7,40.1-7.1,39.2-39.4
			c-2.2-74.6,39.8-124.6,114.4-144.5c69.5-18.5,138.4,9.1,171.9,71.2c35.2,65.2,16.2,127-26.7,177.9c-28,33.3-28.4,54.5-8.5,91.7
			c50.6,94.5,31.4,183.9-37.3,263c-16,18.5-15.2,27.8,1.8,44.2c36.6,35.1,55.7,79.5,53.9,130.5c-3.4,98.4-88.5,163.9-188,145.9
			c-41.3-7.5-78.8-24-110.9-51.4c-11.7-10.1-19.6-13.3-27.8,3.9c-37.7,79.9-94.2,92.4-191.6,65.9c-59.7-16.2-97.8-93.6-90.4-169.9
			c4.8-49.6,22.7-93.9,51.7-133.9c17.8-24.5,18.6-48.1,2.3-74.4c-50.1-80.4-48.5-162-0.6-242.6c11.2-18.9,14.6-29.3-10.9-39.3
			c-40.7-15.9-74.5-43.8-106.2-73.6c-41.3-38.8-49.8-87.1-34.6-139.2c16.1-55.2,48.3-99.2,106.7-114.5c43.3-11.4,88.1-9.6,131.7,2
			C1544.6,882.8,1583.9,937.5,1586.6,1031.9z M1617.2,1582.1c82.9,0.2,142-17.7,190.8-52.1c115.6-81.4,133.9-230,40.7-330.9
			c-108.6-117.5-317.3-115.7-423.8,3.7c-75.9,85.1-75.7,205.1,1.6,289.4C1482.7,1553.5,1554.3,1580.4,1617.2,1582.1z M1418.8,1167.5
			c-43.2-20-78.1-44.4-101.5-82.5c-29.9-48.8-13.8-107.7,39.4-133.2c61.3-29.3,119.1-21,143.3,38.3c11.3,27.7,17.9,56.9,23.2,86.3
			c1.6,9-1.9,23.4,13.9,22.8c13.9-0.5,19.5-11.6,19.5-23.7c0.1-24.7-0.3-49.5-2.4-74.1c-4.6-53.5-32.8-89.7-83.1-108.5
			c-30.3-11.3-62-15.4-94-15.6c-63.3-0.2-98.8,37.5-123,91.4c-22.9,51-5.6,92.2,28.6,129.6c30.5,33.4,69.4,54.5,110.4,72.1
			C1400,1173.5,1407,1174.8,1418.8,1167.5z M1483.1,1830.2c41.4,2.1,60.2-7.5,81.9-42.7c29.2-47.2,45.3-99,53.7-153.6
			c2.2-14.3,1.8-24.1-15.5-26.8c-18.2-2.9-20,7.9-21.3,21.5c-3.5,36.6-15.5,70.2-36.2,100.8c-25.7,37.9-61.6,49.8-101.9,33.5
			c-36.8-14.9-51.8-48.9-42.3-95c7.1-34.9,22-66.6,41.5-95.9c10.3-15.4,5.2-23.5-7.4-33c-15.1-11.4-23.5-4.9-32.5,7.9
			c-25.9,36.7-44.5,76.2-51.3,121.2C1337.1,1765.5,1385.2,1825.3,1483.1,1830.2z M1405.2,962.4c-23.1,0.5-50.7,16.4-67,48.3
			c-15.4,30.2-1.1,55.7,17.8,79.2c17.2,21.3,40.2,35.3,63.8,47.9c25.9,13.8,44.9-6.3,65.3-16.3c17.5-8.5,10.3-24.2,8.4-38.2
			c-3.8-28.7-11.6-56.4-21.2-83.6C1463.4,973.9,1444.9,962.3,1405.2,962.4z M1690,1050c0,1.6,0.1,6.7,0,11.9
			c-0.2,12.5-1.7,26.1,14.9,29.5c21.3,4.4,15.8-14.9,19-24.4c13.4-39.8,33.3-73.3,75.5-87.8c32-11.1,72.1,2.7,96.6,32.3
			c22,26.5,12.9,52.3-2.4,77c-10.8,17.5-23.9,33.4-35.8,50.3c-5.1,7.3-18.9,12.8-5.3,24.7c11.1,9.8,18.4,3.6,25.9-4.7
			c20.9-23.1,39.7-47.8,47.8-78.4c12.4-46.7,8.4-91.6-30-124.8c-40.1-34.7-87.1-40.4-135.8-18.3
			C1713.8,958.3,1687.9,993.6,1690,1050z M1702.4,1634c2.6,68.1,30.2,109,72.5,107.5c41.7-1.5,77.6-40.4,75.5-81.9
			c-1.9-38.4-39.1-85.3-65.7-83C1739.5,1580.5,1701.3,1607.1,1702.4,1634z M1819.5,1556.7c16.6,16.5,34.2,29.6,44.3,48.8
			c20.2,38.2,25,76.9-0.6,114.1c-25.6,37.2-62.9,53.9-107.3,47.3c-43.3-6.4-62.7-39.8-74.6-78.1c-6.5-20.7-10.1-42.1-10-63.9
			c0-6.9,1.3-15.7-9.9-15.4c-9.2,0.2-12.4,7.2-12.6,14.7c-1.2,32.2-11.6,62.8-16.7,94.3c-2.5,15.3,2,28.3,15.6,37.6
			c23.9,16.3,48.3,31.8,76.3,40.1c65.1,19.3,136.7-5.5,162.7-56.1c28.9-56.4,8.4-142.5-43.4-182.5
			C1837.4,1553,1831.5,1549,1819.5,1556.7z M1429.1,1698.6c-2.5,16.9,7,33.8,31.7,41.5c25.3,7.8,43.8-0.8,57.9-22.5
			c13-20,22.9-41.3,28.7-64.4c12.4-49.4,12.3-49.4-34.9-68.4c-7.6-3.1-15.2-6.4-22.5-10.1c-7.9-4-13-2.4-17.8,5.3
			C1451.1,1614.2,1430.6,1648.5,1429.1,1698.6z M1750.9,1081.8c-1.6,13.4-1,14.8,9.9,23.2c47.1,36.3,64.4,33.5,97.8-16.1
			c2.9-4.3,5.9-8.4,8.5-12.9c9.5-16.3,18.3-32.7,3.8-50.9c-14.2-17.8-32.5-24.5-54.7-21.1
			C1785.3,1008.8,1755.4,1044.4,1750.9,1081.8z"/>
		<path class="st0" d="M1657.2,1195.5c69.3,1.8,122.7,25.6,160.6,77c60.8,82.6,23.3,192.3-82.1,235.6
			c-70.8,29-140.3,20.8-201.5-26.6c-52.7-40.8-75.2-96.1-56.9-161.5c20.3-72.3,74.8-108,145.6-121.7
			C1635.9,1195.8,1649.5,1196.1,1657.2,1195.5z M1660.2,1495.4c27.3,1.9,55.2-4.8,80.9-19.2c45.3-25.3,74.2-62.2,74.3-116.3
			c0.1-55.4-28.7-94-76-118.3c-52.8-27.1-107.5-27-160.8-0.7c-39.9,19.7-67.3,50.7-75,96.1
			C1488.9,1423.4,1559.2,1495.4,1660.2,1495.4z"/>
		<path class="st0" d="M1664.5,1458.5c-66.5-0.1-118.3-46.4-117.8-105.2c0.5-57.7,51.4-101.8,117.7-101.9
			c65.6-0.1,117.7,44.6,118.5,101.6C1783.7,1410.9,1730.1,1458.6,1664.5,1458.5z M1664.5,1277.4c-49.5,0.1-87.1,32.9-87.5,76.3
			c-0.4,44.1,39.7,79.2,89.4,78.2c49.1-1,86.1-34.9,85.7-78.3C1751.5,1310.3,1713.6,1277.3,1664.5,1277.4z"/>
	</g>
</g>
</svg>
