<?xml version="1.0" encoding="utf-8"?>
<!-- Generator: Adobe Illustrator 23.0.0, SVG Export Plug-In . SVG Version: 6.00 Build 0)  -->
<svg version="1.0" xmlns="http://www.w3.org/2000/svg" xmlns:xlink="http://www.w3.org/1999/xlink" x="0px" y="0px"
	 viewBox="0 0 3000 3000" style="enable-background:new 0 0 3000 3000;" xml:space="preserve">
<style type="text/css">
	.st0{opacity:0.58;}
	.st1{stroke:#000000;stroke-width:10;stroke-miterlimit:10;}
</style>
<g id="Layer_1" class="st0">
</g>
<g id="Layer_2">
	<g>
		<path class="st1" d="M860.6,2413c-18.9,61.9-49.1,110.8-100,143.8c-84.6,55-171,52.2-256.5,2.5c-16.8-9.8-24-9.4-37.4,5.7
			c-93.8,106.3-277.5,91.7-364.2-26.1C56.8,2476.9,46,2408.4,53,2334.1c12.1-128.8,22.9-257.8,34.4-386.7c0.6-6.7,0.7-12.8-3.6-18.4
			c-45.3-60.1-33.5-125.8-17.3-191.2c9.5-38.1,30.8-71,52.6-103.3c4.8-7.1,12.4-13,0.4-22.6c-64.4-51.7-70.2-122.7-59.7-196.8
			c9.8-69.6,39.5-130.7,90.2-180.3c10-9.8,13.6-21.6,17.2-34c37.1-128.5,43.1-260.3,41.9-392.9c-0.8-93.4-2.1-186.9-1.9-280.3
			c0.1-50.1,4.4-99.8,26.1-146.3c25.8-55.5,69.4-85.1,130.2-88.7c53.7-3.2,110.5-8.1,156.9,21.2c37.4,23.6,62.6,22.2,100.4,1.4
			c66.3-36.5,138-29.6,205.7,0.7c60,26.9,72.5,82.4,74.3,141.1c1.4,45.9,0.3,91.8,4.4,138.7c27.8-19.7,50.9-40.5,76.7-57.8
			c102.6-68.7,217.9-104.2,337.2-128.5c228.2-46.4,459.1-51.5,690.7-40.9c150.6,6.9,300.8,18.8,450.1,40.7
			c101.7,14.9,202,35.7,296.7,77.8c6.7,3,13.4,6.2,20,9.4c182.1,90.3,240.3,247.3,161.7,434.9c-51.3,122.5-132.2,224-224.7,317.1
			c-14.5,14.6-18.7,24.4-7.8,43.9c35.4,63.7,46.9,134.5,49.5,205.9c4.8,132.1,10.6,264.3,0.9,396.7
			c-16.1,220.3-83.7,418.1-246.3,575c-120.5,116.3-267.5,182.2-428.2,222c-125.4,31.1-253.5,40.4-381.7,49.7
			c-119.3,8.7-238.4,8.9-357-10.2c-202.2-32.6-365.5-125.3-472.7-305C868.3,2423.5,866,2420.6,860.6,2413z M2383.4,2509.5
			c12.1-1.6,18.4-8.8,25.6-14.2c170.5-128.8,260.8-303.8,290.5-511.8c25-174.9,18-350.9,5-526.2c-10.4-139.9-83.2-242-206.1-308.7
			c-69.8-37.9-144.8-59.9-222.9-72.7c-150.4-24.8-300.6-18.7-450.2,6.2c-196.5,32.7-383.8,93.3-557.2,193.1
			c-370.7,213.4-478.7,595.1-429.4,928.4c2.6,17.9,10,22.9,26.6,23c53.7,0.3,107.3,1.1,161,2.7c27.5,0.8,50.2-5.4,67.3-29.5
			c17.2-24.2,42.7-33.4,72.5-32.1c37,1.6,64.2,21.5,88.5,46.4c30.4,31.2,60.9,62.1,100.1,82.6c60.9,31.8,120.8,37,180.7-3.3
			c38.6-25.9,80.3-46.2,126.5-54.4c30.7-5.4,61.8-13.9,93.1-2.4c25.6,9.4,36.4,30.8,29.6,57.2c-5.7,22.1-21.3,36.7-38.3,49.5
			c-51.1,38.8-74.9,92.1-85,153.5c-10.1,61.3-0.4,121.6,7.5,182.2c2.5,18.8,13.2,18.1,27.2,16.9c75.5-6.3,151.3-10.4,226.4-21
			c126-17.7,248.5-47.6,363.2-104.7c11.7-5.8,22-12.1,28.6-24.7c78.3-148.8,84.4-302.6,26.9-458.5c-30.1-81.6-95.9-104.5-175.1-68.1
			c-38.6,17.8-71.2,43.7-96.8,77c-17,22.1-25.7,3.4-37.6-3.3c-16.4-9.2-6.2-17.6,0.9-25.9c27.2-32,58.1-59.6,94.9-80.1
			c113.7-63.6,219.4-25.9,262.6,96.7c33.6,95.5,42.6,194.4,28.6,295.1C2412.4,2423.2,2397.3,2465.6,2383.4,2509.5z M1861.3,409.4
			c-194.1,2.4-362.1,10.4-527.8,44.5c-112.7,23.2-222.5,54.8-320,118.9C941.7,620,887.7,681.1,867.4,767.4
			c-50.6,214.6,85.1,441.4,299.9,501.8c11.5,3.2,21,1.9,31.3-4.7c189.6-122.4,399.4-190.1,620.1-228.3c7.9-1.4,19.1-0.2,22-9
			c9.3-28.3,16-57.2,2.8-86.4c-11-24.2-31.9-27.1-55.5-27.6c-77.7-1.5-155.5,6.8-233-0.7c-63.3-6.2-121.9-9.9-178.6,33.6
			c-46.8,35.8-109.4,36.7-167.5,40.8c-50.7,3.6-89.1-20.7-117-61.5c-68-99.3-10.6-235.2,108.8-254.7c89.3-14.6,179-6.2,268.4,2.2
			c66.6,6.3,132.9,22.1,200.2,0.2c16-5.2,20.1-9.7,19.3-25.2c-1.1-21.2,1.9-42.3,3.8-63.5c7.3-82.7,112.8-117.8,178-66.4
			c43.7,34.5,55.1,82,52.6,133.7c-1.1,23.5,6.1,31.8,28.6,35.6c46.1,7.8,89.9,23.5,123.6,57.7c13.5,13.7,26.5,17,44.3,13.2
			c50.3-10.8,101.2-9.5,152-4.5c31.7,3.2,52.8,21.4,62.4,51.4c28.3,88.5-38.4,183.7-130.9,187.6c-16.6,0.7-33.3,1.6-49.9,0.9
			c-10.9-0.5-16,4.5-16.4,13.8c-0.5,11.9,10,7.7,16,8.4c45.9,5.5,92.2,8.4,137.7,16.3c140.6,24.3,269.6,72.9,365.5,185.6
			c9.5,11.1,15.4,9.6,23.9,0.2c19.9-21.9,40.9-42.8,60.3-65.2c67.6-78,126.8-161.4,163.4-258.9c55-146.6,9.6-269.4-127.7-345.1
			c-65.4-36-136.1-57.6-208.8-72.4C2325.7,427.3,2080.8,417.2,1861.3,409.4z M502.6,1226.2c-62.9,0-125.8-1.9-188.5,0.7
			c-42,1.7-87.7,0.9-121,31.7c-73.7,68.3-104.5,153.3-85.1,253c8.5,43.4,35.8,71.6,81.3,80.4c31,5.9,62.3,9.5,93.6,10.2
			c191.7,4.2,382.4-8.7,572.6-31.8c13.6-1.7,16.9-6.3,15.4-19.2c-9.2-77-16.6-154.3-26.8-231.2c-7.9-59.4-21.7-73.4-81.5-84.3
			C676.6,1220,589.4,1223.4,502.6,1226.2z M961.1,2275.3c0-0.6,0-1.1,0-1.7c-27.7,0-55.5,0.5-83.2-0.2c-15.9-0.4-23.8,0.2-16.7,20.9
			c51.5,150.1,146.9,261.4,289.8,330.7c140.5,68.1,291.4,77.3,444.2,76.2c27.1-0.2,30.8-10.9,26.2-33
			c-10.3-49.2-13.2-99.2-9.3-149.1c6.5-82,33.1-155.3,100.9-208.1c5.8-4.5,11.5-9.5,16.3-15c3.8-4.4,11.9-7.9,7.4-15.8
			c-3.7-6.4-10.2-1.6-15.2-1.5c-56.3,0.4-107.2,18.1-153.3,49.5c-82.2,55.9-164.5,50.9-247.6,2.1c-35.5-20.8-65.3-48.4-93.3-78.1
			c-12.7-13.5-25.8-26.8-43.6-33.6c-19.2-7.4-39.3-10-52.9,8.9c-28.6,39.9-67.8,51.2-114.2,47.9
			C998.2,2274.2,979.6,2275.3,961.1,2275.3z M216.8,1194.2c39.6-10.9,75.5-15.2,111.2-14.7c29.7,0.5,35.1-11.1,34.9-38.5
			c-1.2-187.9-0.4-375.8-1-563.6c-0.1-19.2,2.7-28,25.1-27.6c23.8,0.3,21.4,13.8,21.4,29c-0.1,187.9,0.4,375.8-0.6,563.6
			c-0.1,25.6,4.4,37.8,32.7,33.9c17.3-2.4,35.4-2.3,52.6,0c23.6,3.1,31.5-6.1,34.6-28.9c24.3-181.9,39.9-364.3,32.6-547.9
			c-2.4-59.1-0.2-118.5-7.8-177.4c-4.9-38.4-27.4-61.7-63.2-72.8c-44-13.7-89.2-15.5-134.6-9.3c-38.9,5.3-65.9,27.1-80.8,63.7
			c-9.1,22.4-14.5,45.7-17.1,69.8c-8,73.9-3.6,147.9-2.3,221.9C257.2,861,260.4,1026.6,216.8,1194.2z M879.7,1615.9
			c-6.4-0.3-10-1.1-13.5-0.6c-114.7,15.1-229.9,25.3-345.4,29.5c-110.8,4-221.8,11.2-332.3-6.1c-7.7-1.2-14-2-19.6,5.3
			c-49.8,64.7-79.1,135.7-66.8,219c3.6,24.2,17.7,42.1,40.8,52.5c22.3,10,46.5,13.8,69.8,12.3c79.5-5.3,158.8-5.1,238.3-3
			c75.8,2,151,14.2,227.1,12c61.6-1.8,104.8-30.3,122.4-89.5C823.6,1769.5,841.4,1690.2,879.7,1615.9z M458.1,2228.3
			c-0.5,0-0.9,0-1.4,0c0-62,0-124,0-186c0-72.4,0-72.4-71.2-72.4c-46.4,0-46.4,0-50,46.6c-10.8,137.3-22.2,274.6-31.8,412
			c-1.7,23.9-10.9,27.2-30.9,23.5c-30.1-5.6-15.3-27.9-14.3-41.7c9.9-140.2,21.1-280.2,32.8-420.3c1.4-16.7-3-20.9-18.9-19.8
			c-39.6,2.9-79.7,7.2-118.7-3.4c-18.4-5-22.4,1.4-23.8,17.8c-10.6,129-23.2,257.9-32.3,387.1c-7.8,109.8,67.3,200.7,175.2,217.4
			c113.9,17.6,190.3-52.1,185.8-166.5C456,2357.9,458.1,2293.1,458.1,2228.3z M708.5,889c-6.3-124.9,3.2-224.8,31-322.6
			c2.3-8,0-19.3,14.4-19.3c27.5,0,36.4,10,29.1,36.5c-23.2,83.5-36.1,168.8-29.9,255c8.2,112.9-4.6,221.3-49.4,325.5
			c-5.6,13.1-3.1,16.8,11.5,18.2c37.7,3.4,75.6,7.2,110.5,23.9c7.2,3.5,12.3,3.1,15.3-5c17.4-47.9,34.8-94.9,12.9-147.1
			c-52.1-124.6-62.8-250.2-2.3-375.9c2.3-4.9,4.5-10.4,4.6-15.7c2.7-80.5,2.6-161-6-241.2c-2.7-24.9-13.3-47.7-36.4-59.3
			c-66-33.2-143-34-207,13c-8.8,6.5-14.4,12.9-11.5,25.2c9.2,39.1,6.5,79.2,8.5,118.9c10.5,202,0.5,403.2-26.5,603.6
			c-7.2,53.3-7.6,51.9,45.4,54.7c21.2,1.1,28.5-7.9,35.9-25C698.5,1060.6,715.3,965.2,708.5,889z M785.5,1950.7
			c-26.4,16.8-51,28.6-77.7,29.4c-25.5,0.7-29.4,11.6-29.3,34.1c0.5,123.5-0.8,247-0.8,370.5c0,16.6-2.6,24.3-22.4,24.7
			c-22,0.4-25.7-7.5-25.4-27.2c1.8-124.9,2.2-249.9,4-374.8c0.3-18.7-4.4-26.3-24.3-26.4c-26.8-0.1-53.6-2.5-80.2-5.7
			c-20.1-2.4-27.2,2.9-27.1,24.8c1,124,0.3,248,0.3,372c0,36,8.5,72.2,0.7,107.9c-3.9,18,3.1,26.7,16.8,35.8
			c68.3,45.1,155.6,45.3,219-0.4c65.5-47.2,96.7-136.1,75.1-214.4c-15.5-56.3-26-113.3-31.7-171.5
			C776.9,2071.4,782.1,2013.6,785.5,1950.7z M1699.2,866.9c28,1.4,69.6-5.3,111,0.5c50,7,81.4,40.3,85,90.7
			c1.2,16.5,1.6,33.7-2,49.6c-4.1,18,3.1,17.7,16.5,16.4c35.8-3.5,71.7-7,107.7-8.5c79.2-3.3,80.5-4.1,82.5-85.8
			c0.2-7.4,0.2-14.8-0.1-22.2c-4.4-89.7-52-148.2-138.3-171.2c-43.1-11.5-87.3-15.6-131.3-19.2c-77.6-6.3-155.1-7.3-229.9,20.3
			c-33.8,12.5-63.2,31.3-81.8,62.9c-22.2,37.9-11.7,58.2,31.5,64.3C1595.2,871.1,1640.5,866.5,1699.2,866.9z M1522.2,725.3
			c-109-11.3-213.4-26.2-318.6-8.3c-41,7-69.3,33.7-85.7,71.7c-28.3,65.8,15.8,152.9,81,151.4c63.9-1.5,129.9-5.9,182.2-52.9
			c9.6-8.7,21.7-16,34.5-16.9c35-2.4,49.9-16.5,49.8-54.7C1465.3,779.3,1493.7,753.2,1522.2,725.3z M918.2,1546.6
			c60.3-95.6,133.3-171.3,218.4-239.5c-93.2-33.8-167.8-85.6-227.1-158.5c-22.8,55.9-46.1,108.8-19.6,167.8
			c5.1,11.3,4.2,25.4,5.7,38.2C902.8,1415.8,910,1477.1,918.2,1546.6z M2122.7,805.1c12.1,31.3,20.8,62.2,22.4,94.7
			c2.5,52.5,2.6,52.5,55.5,46.8c4.6-0.5,9.2-1.2,13.7-2c50.9-8.8,89.2-65.9,78.1-116c-3.5-15.6-10.3-29-28-29.6
			C2217.5,797.6,2170.3,792.9,2122.7,805.1z M1733.2,634c4.8,11.7-9.1,31.7,17.3,32.9c37.7,1.8,75.4,4.5,113.1,7.4
			c8.9,0.7,14.1-0.6,14.4-10.9c0.9-27.9-0.5-55.6-12.9-81.1c-14.7-30.2-45.6-45.6-77.6-40.5c-31.3,4.9-43.4,18.9-50.3,59.4
			C1735.3,612,1734.5,623,1733.2,634z"/>
		<path class="st1" d="M1670.9,1898.7c-47.2,0-93.4-1.7-139.5,0.3c-142.6,6.2-189.3-92.2-195.9-188.6c-2.1-30-11-35.7-38.2-34.9
			c-61.9,1.9-124-0.3-186,1.1c-20.1,0.4-21.7-8.2-22.1-24.5c-0.4-16.9,4.4-22.2,21.7-22c69.4,1,138.8,0,208.2,0.7
			c14.3,0.1,21.4-3.8,25.2-18.1c33.9-130.2,157.1-199.2,277-203.8c83-3.2,158.1,15.5,213.9,83.1c24.7,29.9,38.2,64.9,45.9,102.6
			c20.1,98-31.6,226.9-112.6,283.7c-80.4,56.5-124.6,135.3-133.7,232.4c-2.5,27.2-18.4,18.7-32.2,20.2
			c-21.6,2.3-15.1-12.8-14.2-23.7c5.3-68.1,29-129.3,68.9-184.5c4.9-6.7,9.7-13.5,14.4-20.3
			C1672.1,1901.9,1671.4,1900.7,1670.9,1898.7z M1819.2,1735.2c-37.5,12.4-72,17.2-106.7,11.1c-77.3-13.8-126.4-89.7-115.8-176.1
			c5-40.9,19.6-78.2,43.2-115.9c-52.5,0.5-98.4,11.8-141.3,34.5c-101.9,54.1-146.6,178.5-102.8,285.5c18.1,44.3,48.7,73.8,99,76.8
			c73,4.3,146,1.8,218.4-7.4C1774.1,1835.9,1800.3,1792.3,1819.2,1735.2z M1839.2,1644c0.4-59.8-24.2-120.5-65.5-147.9
			c-76-50.5-84.8-45.9-120.2,33.8c-2.2,5-3.6,10.5-4.8,15.8c-10.7,47.9-10.9,95.3,26.5,132c36.3,35.5,80.5,28,124.7,14.6
			C1827.1,1684,1845,1671.1,1839.2,1644z"/>
		<path class="st1" d="M2419.2,1402.4c-3.2,175.8-173.9,306.8-361.4,259.9c-11.8-2.9-30.7-1.4-23.2-24.4
			c5.5-17.2,10.5-26.9,34.3-21.3c96.6,22.7,183.4,1.7,248-76.1c65.6-78.9,71.3-169.3,34.9-263.4c-4.9-12.8-13.5-23.4,5.3-34.2
			c19.7-11.3,28.6-9.5,37,12.8C2410,1297.6,2420,1340.2,2419.2,1402.4z"/>
		<path class="st1" d="M1038.8,1891.3c-33.9-1.6-73.6,1-112.4,9.6c-25.3,5.6-17.2-14.2-22.3-24.6c-7.5-15.2,1.2-19.6,14-21.7
			c90.8-15,181.8-15.2,271.7,3.9c73.5,15.6,112.5,69.4,110.8,144.4c-0.8,35.3-8.9,69.3-21.5,102.4c-4.8,12.4-10.1,16.6-21.8,9.1
			c-10.1-6.5-31.1-4.4-21.7-26.5c10.6-24.9,15.9-51,18.1-77.8c4.6-58.5-22.1-94.3-79.5-107.8
			C1131.5,1892.3,1088.1,1892.3,1038.8,1891.3z"/>
	</g>
</g>
</svg>
