<?xml version="1.0" encoding="utf-8"?>
<!-- Generator: Adobe Illustrator 23.0.0, SVG Export Plug-In . SVG Version: 6.00 Build 0)  -->
<svg version="1.0" xmlns="http://www.w3.org/2000/svg" xmlns:xlink="http://www.w3.org/1999/xlink" x="0px" y="0px"
	 viewBox="0 0 3000 3000" style="enable-background:new 0 0 3000 3000;" xml:space="preserve">
<style type="text/css">
	.st0{stroke:#000000;stroke-width:10;stroke-miterlimit:10;}
</style>
<g id="Layer_1">
</g>
<g id="Layer_2">
	<g>
		<path class="st0" d="M484.1,2482.6c-17.8,45.4-34.2,85.5-49,126.1c-5.4,14.8-12,20.7-28.8,20.7c-115.2,0-230.5,0.8-345.7,2.7
			c-21.4,0.4-23.6-5.4-17.7-24.2c72.9-233.1,145.1-466.4,217.8-699.5c4.7-15,5.3-27.1-1.4-43c-13.4-32-12-67.6-14.7-101.7
			c-10.6-138.3-19.8-276.7-28.9-415.1c-4.6-70.6-7.5-141.3-11.8-211.9c-0.9-15.3,1-22.7,19.5-22.7c50.6-0.1,50.3-1,39-53.5
			C210.3,817.3,158.2,574.1,105.3,331c-3.4-15.6-4.7-22.2,15.2-22.6c125.2-2.8,250.3-6.3,375.4-11c19.1-0.7,27,7,34.4,22.3
			c30.9,63.4,62.7,126.2,96.9,194.7c20.1-56.1,39.8-106.8,56.2-158.5c7.5-23.6,17.3-32.3,43.4-31.4c107,3.6,214.1,4.8,321.1,5.6
			c19.5,0.1,24.7,6.3,23.7,24.9c-1.5,28.7-0.4,57.5-0.4,89.6c68.3-26,135-45.8,203-60.8c317.2-69.9,638.1-93.6,962.3-76.3
			c108.7,5.8,217.2,13.8,323.4,39.9c198.1,48.8,323.4,183.6,354.1,384.2c10,65.3,5,130.5-17.4,193.2c-6.2,17.4-4.9,32.2,0.9,49.4
			c96.9,288.1,86.5,572.3-33.6,851.8c-31.8,73.9-73.7,141.4-136.5,195.3c122.2,57.8,157.8,162.8,159,285
			c0.8,81.7-6.4,163.2-24.5,243.2c-19.5,86.4-59,160.7-148.8,189.7c-93.5,30.2-190.6,37.1-286.9,13.5
			c-78.3-19.2-144.9-85.6-135-181.4c1.9-18.8,4.5-48.6-20.4-48.3c-21.8,0.2-19.5,29.5-17.9,47.8c8.6,96.2-65.1,167.6-158.6,182.8
			c-147.1,23.9-294.6,19.3-441-8.7c-78.7-15.1-125.2-64.4-141.7-142.8c-4.1-19.4-10.2-38.4-16.5-57.2c-4.3-13-12-24.1-22.8-33.2
			c-13-10.9-27.4-14.4-42.8-8.7c-14.1,5.2-15.1,18.7-16.1,31.8c-9.3,123.2-75.3,203.6-190.1,242.9c-94,32.2-182.3,10.6-265.6-38.4
			c-12.5-7.3-26.3-14.1-35.7-24.6c-27.1-30.2-60.5-33.4-98.2-31.4c-67.9,3.6-136,3.1-204,6.3c-20.6,1-30.2-6.3-39.1-23.9
			C550.5,2606.1,518.5,2547.3,484.1,2482.6z M1518.1,2101.1c-0.1-1.1-0.1-2.3-0.2-3.4c-26-2.6-51.9-5-77.9-7.9
			c-120.8-13.8-234.6-46.8-330.3-125.8c-15-12.4-26.7-12.8-43.8-6.4c-180.4,67.5-293.8,245.7-271.5,437.7
			c17.3,149.8,90.1,265.5,231.9,327.8c91.3,40.1,180.5,32.8,261.4-30.5c55.4-43.4,76.2-102.5,82.1-170.8
			c4.7-54.1,52.7-80.3,103.7-61.5c29.9,11.1,49.6,33.2,61.3,61.9c8.1,20.1,16.3,40.8,19.6,62c11.6,75.1,58.6,110.5,129.7,121.6
			c114.4,17.9,229.3,19.3,344.6,12.2c35.4-2.2,70.2-7.9,102.6-23.9c49.8-24.5,80-61.3,76.9-119.8c-0.6-11.7-0.3-23.7,1-35.3
			c4-36.2,28.8-61.5,60.2-62.6c32.1-1.1,58.6,21.6,65.2,57.3c2.5,13.3,3.5,27.1,3.3,40.6c-1.1,73.6,34,119.4,105.7,136
			c64.8,15,129.7,7.5,194.7,0.9c90.8-9.2,149.5-57.9,172.2-145.6c28.2-108.8,38.4-219.8,23.9-331.6c-8.6-66.8-40.5-122-99.9-157.5
			c-27.9-16.7-56.3-25.2-88.9-6.1c-29.7,17.4-64.1,24.7-98,30.4c-33.9,5.7-68.1,10-109.4,16c20.7,6.9,34.4,11.2,47.9,16
			c105,37,172,108.7,194.8,218.3c19.6,94.2,2,185.7-26,275.9c-5.3,17.1-15,13.2-27.4,8.9c-12.9-4.5-22.6-6.7-16-25.1
			c16.8-47.1,27.4-95.9,30.8-145.8c9.6-144.3-45.6-259.2-203.6-299.7c-88.7-22.7-179.2-30.3-269.7-30
			c-303.9,0.9-607.9,1.3-910.7,31.4c-78.5,7.8-156.4,21.5-228.8,55.6c-92.7,43.5-134.4,119.2-123.6,220
			c5.5,51.1,20.7,99.4,42.9,145.2c11.4,23.6-8.6,22-18.5,29.3c-12.3,9-17.7,3.3-23-8.8c-17.8-40.8-33.4-82.4-41.8-126.1
			c-28.4-146.8,30.1-254.6,168.5-310.6c20.1-8.1,40.8-15.2,61.7-20.9c83.5-22.7,169.1-31.7,255.1-38.4
			C1406.3,2107.4,1462.2,2104.6,1518.1,2101.1z M2035.1,1475.8c-34.4-32.2-63.3-59.2-92.1-86.2c-9.6-9-17-16.5-30.5-2.2
			c-13.1,13.9-18.7-7-27.8-11.5c-7-3.5-14-11-4.2-19.3c13.5-11.5,6.8-19.3-3.3-28c-13.1-11.2-26.3-22.4-38-35
			c-10.8-11.6-18.3-10.5-28,1.2c-6,7.2-12.5,21.4-20.1,18.7c-11-3.9-20.9-14.6-28.1-24.7c-6.2-8.7,4.8-14.8,10.3-19
			c19.6-15.1,13.7-25.5-2.3-39.5c-35.5-31-69.8-63.5-103.9-96c-28.3-26.9-56.7-47.3-98.9-54c-84.7-13.4-150.2-82.5-153.1-154.6
			c-1-24.2-10.3-29-30.1-33.6c-130.1-30-206.8-158.8-172.8-287.8c17-64.2,59.7-110.9,105.6-155.4c9.8-9.5,21.3-17.3,32-25.8
			c-2.3-2.6-4.6-5.2-6.9-7.8c-157,32-309.8,74.1-436.8,179.9C815,671,759.4,766.4,742.8,884.3c-12.8,91.2-3.4,180.8,15.6,270
			c17.1,80.3,40.8,158,89.7,225.4c30.5,42.1,68.2,75,120.6,87.7c16.4,4,24.9,3.1,28.5-18c10.5-60.1,60.1-104.6,121-112
			c47.1-5.7,89.4,8.3,129,33c55.5,34.7,97.2,84.2,141,131.2c44,47.2,95.2,81.1,159.7,91.3c37.6,5.9,75.7,7.2,113.9,7
			c55.3-0.3,110.7-4,165.7,5.5c75.5,13,143.6,38.8,187.8,106.8c17.6,27.1,25.4,58,34.2,88.4c20.1,69.5,69.2,103.7,137.8,113.4
			c55.7,7.9,102.3-16.6,122.2-60.7c9.2-20.3,10.5-30.6-18.2-32.8c-67.2-5.2-130-26.1-189.7-61.9c5.5-5.8,9.1-9.7,12.9-13.5
			c40.9-40.6,49.7-87.3,24-138.4c-25.7-51.1-72.2-74.5-124.5-88.4c-70.9-18.8-142.3-7.4-213.7-2.3c-79.7,5.7-159.2,9.6-235.1-25.1
			c-72-32.9-121.1-90.6-168.4-150.7c-37.5-47.7-70.8-98.9-116.4-139.9c-47.3-42.5-100.3-71.8-166.3-68.5
			c-65.5,3.2-122.4,64.3-110.4,122.4c5.7,27.6-12.8,29.8-27,33.5c-19.7,5.1-15.5-15.3-18.5-25.3c-4.2-13.9-2.5-28.8,0.3-43.2
			c18.6-94.8,110.5-150.6,211.9-128.7c74.4,16.1,131.5,59.8,179.3,116.1c34.6,40.7,65.7,84.4,99.1,126.1
			c50.7,63.2,106.7,118.9,191.3,134.4c47.7,8.7,95.5,8.6,143.6,4.5C1865,1464.8,1946.3,1454.4,2035.1,1475.8z M2542.4,1033.4
			c13.8,0,21,0.3,28.3-0.1c78.3-4.2,155-14.6,224.8-54.8c31.3-18,51.4-41.8,62.4-77.6c49.7-162.1-15.5-410.8-257.6-493.8
			c-90.9-31.1-185.3-41.6-280.3-49c-11.4-0.9-21.2,2.9-31.2,7.4c-81.3,36.4-141.1,94.7-176,176.7c-40.2,94.4-41.1,186.5,21.4,273.5
			c11.1,15.5,24.2,24.2,43.8,28.1c109.3,21.9,207.1,67.4,282.2,151.7C2485.3,1023.9,2508,1046.9,2542.4,1033.4z M2366.1,1847.9
			c17.2-23.9,35.2-47.4,51.6-71.9c79.7-119,132.6-247.8,135.5-392.9c3.2-155.6-44.5-291.5-165.9-394.6
			c-87.8-74.6-193.6-104.4-306.4-111.8c-74.7-4.9-148.4,4.7-221.9,17.3c-31.2,5.3-18.9,28.1-21,43.9c-2.3,17.3,14.6,12.3,23.7,12.8
			c33.5,1.9,67,0.2,100.6-2.1c66.9-4.4,133.6-13,200.9-2.7c153.9,23.6,219.5,98.8,236.6,221.9c7.8,55.6,14.9,111.5,19.1,167.5
			c6.6,86.1,3.7,172.2-3.7,258.3c-2.1,24-16.3,17.2-30.4,17.6c-17.9,0.4-18.4-8.1-15.9-22.2c2.6-15.1,2.9-30.7,4-46
			c1.4-19.6-14.6-29.1-26.5-38.1c-10.7-8.1-16.7,9.2-25.5,13.9c-23.9,12.6-17.6,25.4-1.1,39.8c10.9,9.5,19.3,21.8,30.2,31.3
			c12,10.5,9.8,16.7-0.6,27.6c-14.8,15.4-25.5,16.7-37.9-1.4c-5.1-7.4-12.2-13.4-18.4-20c-25.8-27.6-26.6-28.5-55.9-3.8
			c-14.3,12.1-19.1,1.2-25.1-6.7c-5.9-7.8-21.5-12.8-6.2-27.8c27.3-26.8,26.5-27.6,0.1-55.5c-5-5.3-10.6-10.2-14.5-16.2
			c-8.9-13.6-18.2-10.6-24,0.8c-5.8,11.3-35.8,14.1-13.5,36.5c11.3,11.3,35.1,19,16.4,43c-1.5,2,3.9,9.5,6.3,14.3
			c24.9,49.8,30.1,100.5,5.4,151.7c-5.6,11.7-2,15.5,8.3,19.1c36.1,12.7,73,21.1,111.2,24.7
			C2364.2,1782.1,2364.1,1782.7,2366.1,1847.9z M1012.4,1626.2c-104.7,0-204.3,1.2-303.9-0.3c-135-2.1-270-6-405-10
			c-19-0.6-25.1,3.8-23,23.9c6.2,58.5,10.9,117.2,15.1,175.9c1.3,17.4,6.4,23.6,25.6,24.2c225.6,7.1,451.3,5,677,9.4
			c5.1,0.1,10.3-0.6,18.2-1.1C989,1777.3,989.1,1707,1012.4,1626.2z M835,1436.9c-65.3-77.3-95.5-163.1-116.6-252.9
			c-3.2-13.5-7.2-19.8-22.6-20c-141.5-1-283-2.7-424.5-4.7c-15-0.2-20.7,3.1-19.7,19.7c5.4,84.1,10.2,168.3,13.9,252.6
			c0.9,20.2,7.6,25.6,27.9,24.6c88.8-4.1,177.6-6.2,266.5-9.3C649.5,1443.8,739.1,1440.4,835,1436.9z M2856.1,994.5
			c-21.7,12.7-41.4,25.7-62.4,35.9c-12.9,6.3-16.1,13-14,27.1c6.4,43,13.5,86.2,15.9,129.5c17.5,307.4-58.6,589.2-233.3,843.7
			c-4.1,5.9-12.2,10.8-8.1,22.2c59.2-12.4,111.6-37.2,156.1-77.9c51.3-46.9,85.2-105.7,112.7-168.4c86.5-197.8,112.5-404,81.6-617.2
			C2895.1,1123.3,2880.3,1058,2856.1,994.5z M1045.1,1732.1c-7.3,8.3-4.6,14.7-4.3,20.8c4,71.3,37.9,126.7,91.6,171.6
			c95.2,79.6,208.6,109.4,328.8,121.8c134.5,13.9,269.7,17.4,404.5,25.3c32.7,1.9,65.5,0.3,100.7,0.3c-75-69.3-98.8-111.4-120.6-222
			c-5.2-26.2-11-24.8-31-12.9c-160.7,95.6-331.2,117.4-509.9,61C1204.5,1866.4,1118.8,1809.6,1045.1,1732.1z M644.9,2066
			c-46.2,119.2-89.9,232.1-133.8,345c-3.9,10-3.7,18.6,1.5,28.3c33.8,62.9,67.1,126.2,100.8,189.2c4.1,7.7,7.8,16.1,19.6,15.7
			c68.4-2.3,136.7-4.2,207.5-6.3c-2.9-5.8-4.1-9.1-6-11.9c-69.4-99.1-97.5-208.9-85.4-329.2c0.8-7.9,2.2-17.3-1-23.9
			C715.1,2205.6,681.3,2138.7,644.9,2066z M157.5,347.9c1.2,10.4,1.4,13.8,2.1,17.1c18.7,87.5,37.5,175.1,56.3,262.6
			c33.9,157.4,68,314.6,101.3,472.1c2.6,12.4,6.3,16.2,18.7,15.6c72.9-3.5,62.9,17.2,56.8-62.4c-9-119.2-20-238.3-30.1-357.5
			c-9.3-110.1-18.7-220.3-27.8-330.4c-1-11.9-4.7-17.6-18.1-17.4C264.3,348.3,211.8,347.9,157.5,347.9z M478.5,1886.5
			c-50.1,0-94.5,1.3-138.8-0.6c-19.3-0.8-26.5,5.6-31.9,23.4c-35.6,117.7-72.2,235-108.6,352.4c-31.3,101-62.3,202.2-94.5,302.9
			c-5.9,18.4-1.2,22,16.1,21.1c20.8-1.1,41.8-1.8,62.5-0.1c20.4,1.7,30.2-5.7,37.4-25.1c48.9-130.3,99-260.2,148.8-390.2
			C405,2077.6,440.7,1984.9,478.5,1886.5z M260.2,2583.4c39.5,0,74.9-1,110.1,0.4c19.3,0.7,28.8-5.9,35.5-24.4
			c23.8-65.4,49.5-130.1,74.6-195c58-150.1,115.8-300.3,174.6-450.1c8.2-20.9,2-24.4-17.3-23.8c-27.2,0.7-54.5,0.9-81.6-1.4
			c-22.5-1.9-33,5.6-41.1,27.4c-53.5,143.1-108.8,285.5-163.4,428.1C321.6,2422.9,291.6,2501.4,260.2,2583.4z M438.1,1037.8
			c5.7-11.3,8.6-15.7,10.3-20.6C499.2,875,549.7,732.8,600.8,590.7c4.8-13.5,1.5-24.4-4.4-36.1c-23.3-45.9-51.8-90.2-68.1-138.6
			c-21.6-64.1-59.8-83.8-123.5-70.9c-20,4.1-26.8,7.6-24.9,29c17.1,192.2,33.2,384.5,49.7,576.7
			C431.7,977.6,434.7,1004.3,438.1,1037.8z M2369.3,2073.8c0-0.3,0-0.5,0-0.8c29.8-1.8,59.7-3.8,89.5-5.3
			c12.3-0.6,22.5-3.8,30.6-14.3c90.6-117.2,157.3-246.9,203.1-387.5c4.1-12.5,2.1-17.6-12.7-17.5c-40.7,0.3-81.5-0.8-122.2-1.5
			c-10.5-0.2-18.7,0.8-23.7,12.8c-36.6,88.8-94.6,164.3-149.9,241.6c-35.8,50-74.2,98.2-104.7,152c-8,14-11.4,22.4,11.2,20.9
			C2316.7,2072.5,2343,2073.8,2369.3,2073.8z M1363.2,469.2c11.5,5.8,21.5,3.3,31,3.2c217.7-2.5,435.5-5.9,653.2-7.3
			c36.7-0.2,65.6-5,86.2-40.2c14-24,38.9-40.2,61.2-57.5c4.9-3.8,14-4.8,12.8-15.5c-11.9-0.9-23.6-2.3-35.3-2.7
			c-227.2-7.7-453,7-678.3,37.8C1433.4,395.4,1400.7,430.6,1363.2,469.2z M461.3,1117.3c28.1,0,52.6-1.7,76.7,0.5
			c22.3,2.1,31.3-5.9,37.7-27.3c38.7-128.1,79-255.8,118.9-383.5c32.3-103.6,65-207.1,96.7-310.9c2.1-7,12.8-20.4,1.2-23.1
			c-19-4.4-39.8-3.9-59.4-1.8c-12.4,1.4-12,16.8-15.5,26.4C652,580.6,586.8,763.8,521.5,947C501.8,1002.2,482.4,1057.5,461.3,1117.3
			z M2295.3,1937.9c-8.2,3.4-16.3,7-24.6,10.1c-93.3,34.6-204.7-7.7-249.2-94.9c-12-23.5-18.4-49-25.7-74.3
			c-14.2-49.3-45.8-82.9-92-104.5c-17.3-8.1-22.8-5.7-24.4,13.6c-7.6,90.5,9.7,176.5,44.4,259.6c14.4,34.4,36.9,62.3,67.5,83.3
			c69.8,47.7,146.5,44.3,224.5,28.6c7.1-1.4,12.4-5.7,16.1-13C2250.7,2009.3,2274,1974.8,2295.3,1937.9z M1061.3,1516.8
			c-52.8,3.6-102,1.8-146.4-21.8c-23-12.2-45.6-14-70.5-13.1c-182.2,7-364.3,13.9-546.6,19.1c-24,0.7-30.7,7.3-25.3,29.3
			c1.5,6.1,2.3,12.7,1.8,18.9c-1.3,18.4,8.1,22.6,24.6,22.4c41.7-0.4,83.5,0.1,125.2,1.1c194.1,4.7,388.1,9.8,582.2,14.6
			c8.6,0.2,18.5,3.5,23.9-7.5C1039.9,1559.8,1049.9,1539.9,1061.3,1516.8z M764.5,2203.2c3.5-1.4,4.6-1.5,4.8-2
			c50.6-133.1,140.8-228,272.7-283c4.3-1.8,12.7-2.2,9.7-9.7c-2.1-5.3-7.2-11.3-12.4-13.2c-6.4-2.4-14.3-1.1-21.5-1.1
			c-75.2-0.2-150.5,0.7-225.6-0.8c-79.5-1.6-77.8-1.9-108.9,70.3c-13.8,32.1-12.7,57.7,4.6,88
			C715.9,2100.9,739.3,2152.8,764.5,2203.2z M1829.5,1720c-59.7,61.4-98.9,82-175.5,85.8c-67,3.3-134,1.7-201.1-1.4
			c-128.5-6.1-236.3-56.5-326.6-146.8c-14.7-14.7-29.8-29.2-44.9-43.5c-4.1-3.8-7.5-11.4-14.9-2.9c-15.1,17.5-16.5,57.2-2.1,74.1
			c181,211.6,490.6,259.3,728,113.9C1823.8,1779.8,1842.6,1759.6,1829.5,1720z M1597.7,1697.3c74.6,0,131.9-9.9,189.8-12.4
			c6-0.3,7.2-2.1,9.4-5.5c13.6-21.3,8.3-33.3-18-33.9c-60.7-1.6-121.5-1.2-182.3-2.1c-100.3-1.5-181.7-43.1-248.3-116.9
			c-25.5-28.3-51.7-56.1-79.4-82.2c-29.2-27.5-62.1-50.2-102.2-59.6c-51.4-12.1-105.5,13.5-121.9,57.7c-8.7,23.5-4.8,30,20.1,27.1
			c98-11.2,179,20.4,241.2,96.6C1386.1,1664.2,1491.6,1700.4,1597.7,1697.3z M1094.1,1515c4.6,8.8,19.4,13.9,8.8,25
			c-15.1,15.8-5.6,26.6,6.7,37.9c14.7,13.5,28.5,28,42.7,42c66.6,65.6,142.1,116.4,236.3,130.9c89.9,13.8,180.6,16.2,271.3,8.2
			c25.9-2.3,51.5-6.1,79.4-22c-14.9,0-24.5-1-33.8,0.2c-46.1,6.1-92.4,6.1-138.6,3.8c-103.4-5.2-195-38.2-267.4-115.9
			c-19.7-21.2-41.1-41-61.5-61.5C1199,1524.1,1151.1,1510.5,1094.1,1515z M737.3,724.6c57.8-100,135.8-178.1,236.1-229.2
			c47.7-24.3,59.4-54.1,53.8-101.3c-1.8-15.4-6-19.8-20.8-19.7c-45.3,0.2-90.7,0.3-135.9-2c-19.7-1-26.7,6.7-31.8,24
			c-19.4,65-40.2,129.5-60.3,194.3C764.6,635.2,751,679.9,737.3,724.6z M1900.3,840c-19-40.9-56.1-80-102.2-108.8
			c-138.3-86.1-324.2-45.3-412,90.9c-3.9,6-13.3,11.8-7.1,20.7c8.7,12.5,44.5,8.6,52.6-5.1c74.4-125.5,276.9-145,365.7-28.4
			C1830.1,852.3,1857.8,853.1,1900.3,840z M2677,1323.5c-19.9,0-39.8,0.5-59.7-0.2c-14.4-0.5-18.8,5.6-17.9,19.6
			c2.5,42.6-1.7,84.9-8.5,126.9c-2.1,12.9-0.7,20.6,15.6,19.9c37.9-1.7,75.9-2.6,113.9-2.9c13-0.1,16.8-5.7,18-17.6
			c2.4-24.3,7.8-48.3,8.8-72.6c1-24,15.9-54.8,0.4-70.1C2732.6,1311.7,2701.2,1324.3,2677,1323.5z M1502.8,897.7
			c-48.4,0.1-53.7,8-37.4,50.3c3.2,8.3,7.6,16.5,12.7,23.8c60.6,87.7,211.3,97.1,282.6,17.7c17.2-19.2,30.1-41,32.5-67.2
			c0.9-10.2,6.3-28.5-13.3-23.9c-15.1,3.5-41.6-19.7-45.2,17.5c-5.3,54.2-53.2,88.3-106.5,77.5c-38.3-7.7-67.4-29.8-80.5-65.7
			C1538.1,901.2,1524.7,891.5,1502.8,897.7z M2653.2,1174.6c0-0.4,0-0.7,0-1.1c25.4,0,50.7-0.7,76,0.2c16.3,0.6,20.6-6.3,18.3-21.1
			c-4.1-27.7-7.5-55.6-11.5-83.3c-1-7.3-2.4-14.9-13.3-11.9c-59.8,16.8-121.2,20.4-182.7,22.3c-12.2,0.4-12.3,5.4-8.2,15.6
			c32.8,80.2,32.6,80.2,118.6,79.3C2651.4,1174.6,2652.3,1174.6,2653.2,1174.6z M1476.8,852c97.4,0,188.5,0,279.5-0.1
			c4.2,0,10.1,1.9,12-3.5c2.4-7-3.3-11.8-7.6-16.1c-43.4-43.1-96.7-59-156.3-52.6C1554.4,785,1510.8,804.2,1476.8,852z
			 M1679.9,1084.3c17.6,16.5,32,30.1,46.6,43.6c15.3,14.1,30.8,28,45.9,42.3c52.4,49.2,52.3,49.2,98.6-6.8c0.6-0.7,1.1-1.4,1.8-2
			c8-6.8,6.9-12.3-0.3-19.9c-29.2-30.9-57.8-62.4-86.3-93.9c-6.4-7-11.3-9.8-20.1-2.8C1741.8,1064.2,1712.6,1074.1,1679.9,1084.3z
			 M1876.4,733.2c31.3,31.2,52.6,59.2,69.5,90.4c4,7.4,9,10.1,17.3,10.1c40.3-0.3,80.6-0.1,125.5-0.1
			c-17.3-32.5-32.1-59.4-38.7-89.5c-1.9-8.8-7.9-10.8-16.1-10.8C1984.2,733.3,1934.6,733.2,1876.4,733.2z M696.2,856.1
			c-23.6,74.9-47.2,149.8-70.8,224.7c-11.9,37.9-11.9,38,29.1,38.4c10.9,0.1,21.8-0.2,32.6,0.4c12.3,0.7,17.7-1.7,15.4-16.6
			C689.5,1021.3,685.1,939.2,696.2,856.1z M2636.3,1601.1c0,0.7,0,1.4,0,2.1c7.2,0,14.4-0.1,21.6,0c55.9,1.3,55.3,1.2,65.9-53.3
			c2.8-14.4-1.3-17.4-14.3-17c-27.9,0.9-55.9,1.3-83.8,1.4c-48.9,0.2-48.6,0.2-62.1,47.7c-3.8,13.3-3.4,20.1,13.2,19.3
			C2596.6,1600.4,2616.5,1601.1,2636.3,1601.1z M2669.9,1218.6c0,0.4,0,0.9,0,1.3c-19.9,0-39.9-1-59.6,0.5
			c-9.3,0.7-29.7-7.2-24.5,12.5c4.2,16.1-8.8,46.2,26.4,45.7c39.8-0.6,79.6-2.4,119.3-0.8c25.1,1,22-13.8,21.8-29.3
			c-0.1-16.4,3.1-33.4-23.8-30.2C2709.9,1220.5,2689.8,1218.6,2669.9,1218.6z M2323.9,1081.7c-9.1-17.9-22.8-29.8-36.9-41.1
			c-9.7-7.8-21.9-22.1-32-17.2c-21.9,10.7-37.6,31.3-50.5,51.6c-8.5,13.4,10.6,20.6,17.8,29.3c36.1,44.5,36.6,44,76.4,4.6
			c5.2-5.1,10.5-10.1,15.4-15.3C2317.7,1089.8,2320.8,1085.5,2323.9,1081.7z M1852.3,995.5c-6.7-0.4-10.4-0.9-14-0.8
			c-9.2,0.4-21.1-7.5-26.3,5.7c-4.2,10.7,7.4,15.3,12.9,21.6c19.8,22.3,40.2,44.2,60.6,65.9c29,30.9,29.2,30.9,56.8-3.3
			c4.5-5.6,16.9-11.6,7.5-19.6C1918.7,1038.5,1905.4,985.5,1852.3,995.5z M2137,1077.7c-11.4-12.7-21.6-24.1-31.9-35.4
			c-31.3-34.3-31.3-34.3-61-0.4c-25.3,28.9-25.3,28.9,0.3,58.3c34.6,39.7,34.7,39.8,70,2.3C2121.7,1094.8,2128.7,1086.8,2137,1077.7
			z M1975.3,1253.6c-4.8-5.6-8.1-9.9-11.7-13.8c-12.3-13.2-26.2-25.3-36.8-39.8c-10.9-15-17.1-11.7-28.1,0
			c-43.1,45.9-43.7,45.7,2.7,88.5c7.3,6.7,15.1,22.9,24.7,15.7C1944.3,1290.3,1958.7,1271.2,1975.3,1253.6z M2228.5,1182.3
			c-5.9-7.6-8.9-11.9-12.4-15.8c-10.1-11.5-21.6-22.1-30.4-34.5c-12.2-17.2-20.9-18.7-36-1.5c-37.6,42.8-37.3,41.1-2.3,84.6
			c15.8,19.6,25.9,22,42.3,2.1C2200.6,1204.3,2215,1194.3,2228.5,1182.3z M1468.5,577.9c-45.8,0-88.9-0.1-132.1,0
			c-18.1,0-36.2,0.5-54.4,0.6c-17.7,0.2-20.7,14.4-21.3,26.3c-0.7,14.6,12.9,8.1,20,8.1c46.2,0.1,92.4-1.9,138.6-0.7
			C1443.7,612.9,1459.1,604.7,1468.5,577.9z M2254.6,1332.5c5.8-5.6,10.5-9.8,14.9-14.3c13.8-14.3,38-28.3,38.3-43
			c0.4-14.8-22.5-30.5-35.8-45.3c-5.9-6.5-12.1-21.1-22.6-7.4c-14.4,18.9-43.5,26.4-44.2,55.9c0,1.4,2,2.9,3.3,4.2
			C2223.8,1299.1,2239.1,1315.7,2254.6,1332.5z M2376.6,1373.4c2-16.9-5.6-35.9-22.2-52.2c-7.6-7.4-11.5-10.1-21.2-1.5
			c-50.8,45-51.2,44.7-5.9,94c0.6,0.7,1.2,1.3,1.8,2c16.4,17.8,40.2,13.5,47.1-9.3C2378.7,1398.2,2376.6,1388.6,2376.6,1373.4z
			 M1856.3,686.8c58.2,0,114.9,0,171.6,0c14.8,0,10.9-10.9,11.9-19.3c1.4-12.2-4.3-15.5-15.7-15.3c-39,0.5-78.1,2.2-116.9-0.2
			C1879.3,650.1,1866.4,663.8,1856.3,686.8z M1398.2,736c-42.1,0-79.7,0-117.3,0c-11.6,0-17.6,3.2-10.7,16
			c12.6,23.3,28.6,43.6,49.4,60.2c8.8,7,14.5,8.2,20.9-3.2C1354.9,782.8,1374.9,760.6,1398.2,736z M2048.5,1173.1
			c-12.3-13.4-23.4-25-34.1-37.1c-27.7-31.4-26.8-30.7-55.3-2c-13.5,13.6-13,22.4,0.7,34.5c10.7,9.4,18.9,21.8,29.4,31.5
			c6.3,5.8,10.8,21.6,21.9,13.1C2025.1,1202.6,2035.6,1187.4,2048.5,1173.1z M2013.7,1393.5c14.7-15.7,29.5-29,40.9-44.8
			c8.1-11.2-6.4-16.9-12.3-23.4c-36-39.9-36.3-39.7-72.7,1.7c-4,4.5-13.2,10.6-9.6,14.5C1975.6,1358.6,1993.2,1373.9,2013.7,1393.5z
			 M2147.9,1440.7c-11.1-12.6-20.9-24.1-31-35.2c-25.4-27.9-24.5-26.8-51.9-2.4c-16.4,14.6-19.8,24.7,0,38c8.9,6,15.6,15,24,21.8
			c6.5,5.2,12.5,18.4,20.4,13.3C2123.6,1467.1,2134.7,1453.4,2147.9,1440.7z M1878.2,576c-45,0-87.5,1.5-129.8-0.6
			c-24.8-1.2-35.4,10.3-42.7,32.8c42.4,0,83-1.5,123.3,0.5C1853.7,610.1,1868.2,600.9,1878.2,576z M2222.2,1365.6
			c-11.1-12.4-21.2-23.8-31.4-35c-24.8-27.1-23.9-26-50-2.5c-15.4,13.9-16,23.6-0.2,36.3c7.7,6.2,13.5,14.8,20.9,21.4
			c6.9,6.2,11.2,22.4,21.4,16.5C2197.2,1394,2207.9,1379.4,2222.2,1365.6z M1412.6,658c-49.5,0-96.1,0.2-142.7-0.2
			c-12.5-0.1-19.9,1.3-19.9,17.2c0,17.6,10.6,15.5,21.3,15.4c32.5-0.3,65.1-2.1,97.5-0.6C1392,690.9,1402.8,679.5,1412.6,658z
			 M2255.1,1403c-2.7,1-4.8,1.1-5.9,2.2c-11.4,11.4-25.8,21.4-32.8,35.1c-4.4,8.6,11.6,16.2,17.7,24.8c6.2,8.7,15.2,15.4,21.6,24
			c9.2,12.4,16.3,11.2,27.8,1.7c30-25.1,30.5-24.4,4.2-53c-7.9-8.6-15.5-17.5-23.4-26.1C2261.4,1408.5,2258,1405.7,2255.1,1403z
			 M2080.2,1208.1c-10.7,11.3-20,22.2-30.6,31.9c-10.3,9.4-10.8,17.1,0,26.3c6.8,5.8,12.5,13.1,18.6,19.7
			c24.8,26.4,24.1,25.6,49.7,2.1c14.1-12.9,18-22,1.7-36.3C2105.5,1239.4,2094.2,1223.8,2080.2,1208.1z M1664.3,576.5
			c-38.2,0-73.6,1.5-108.7-0.5c-25.4-1.5-38.2,9.1-44.7,31.9c2.8,1,4.5,2,6.2,2c34.4-0.3,68.9-2.5,103.2-0.5
			C1644.4,610.7,1657,601.2,1664.3,576.5z M1647.2,950c12-2.4,24.7-3.8,33.1-15c6.7-8.9,12.5-19.1,9.3-29.9
			c-3.9-13.3-16.7-7-25.6-7.5c-14.3-0.9-28.8-0.8-43.1,0c-11.2,0.6-28.8-5.7-32.1,3.9c-4.9,14.3,10.3,25,20.8,34.6
			C1620,945.7,1633.3,948.2,1647.2,950z M2344.1,1131.7c-3.5,2.1-6.1,3.1-8,4.8c-50,44.8-50.1,47.3-2.1,93.9
			c4.1,4,7.4,12.4,14.9,7.7c6.5-4.1,13.6-9.5,12.2-19.3C2356.9,1189.7,2355.9,1160,2344.1,1131.7z M1920.8,606.5
			c38.4,0,73.6-0.7,108.6,0.3c17,0.5,19.5-10.7,20.5-22.2c1.4-15.5-11.7-10.3-19.2-10.5c-21.6-0.5-43.3,1.6-64.8-0.1
			C1942.1,572.3,1929.8,583.7,1920.8,606.5z M1511.5,518.2c-90.6-6.7-192.3-0.2-203.4,12.7C1401.1,539,1497.7,533.9,1511.5,518.2z
			 M1758.7,517.3c0.6,3.7,1.2,7.4,1.8,11.1c50.2,0,100.4,0.2,150.6-0.2c9.5-0.1,16.9-4.3,16.2-17.6
			C1870.8,514.1,1814.1,507.9,1758.7,517.3z M2202.4,1001.8c-24.5-9.2-50-13.6-77.9-11.5c37.9,58.2,45.6,59.6,77.9,15.6
			C2202.8,1005.3,2202.4,1004.2,2202.4,1001.8z M1566,530.9c41.5,0,82,0.1,122.5-0.1c8.8,0,15.1-3.6,14.6-14
			C1628.3,510,1576.5,514.8,1566,530.9z M1953.5,995.6c35.7,48.2,29.9,52.3,71.1-6.3C2000.2,991.4,1977.6,993.4,1953.5,995.6z
			 M1984.2,527c25.7,0,50,0,74.3,0c6.8,0,14-1.1,14-9.1c0-12-10.2-6.6-15.8-6.9c-15.3-0.8-30.8-0.3-46.2-0.3
			C1999.9,510.8,1988,508.3,1984.2,527z M1752.9,654.5c37.7,29.4,47.2,29.5,61.6,0C1794,654.5,1774.2,654.5,1752.9,654.5z
			 M1454.1,690.3c24.7-11.2,43.9-19.9,63-28.6C1492.3,658.3,1465.1,649,1454.1,690.3z"/>
		<path class="st0" d="M1764.1,2215.1c-137.2,3.6-297,1.7-455.7,21.7c-56.8,7.2-112.9,17.4-165.6,40.8
			c-87.7,39-116.6,103.5-86.5,194.6c11.4,34.5,26.9,67.6,48.1,97.1c12.3,17,8.6,24-7.3,35.7c-20.2,14.7-24.6,0.1-31.9-11.9
			c-27.4-45-51.9-91.2-61.2-144.2c-15.6-88.6,18.1-159.2,97.8-201.6c71.9-38.2,150.7-52,230.2-58.9
			c262.4-22.7,525.4-23.1,788.4-15.7c89.7,2.5,179.1,11.9,264.8,42.2c146.9,51.9,212.7,162.2,187.4,315.8
			c-5.3,32.2-14.9,63.4-25.4,94.3c-4.6,13.4-9.8,21.2-24.6,12.4c-10.5-6.2-29.3-3.9-19.3-27.6c17-40.2,26.2-82.7,28.4-126.7
			c5-102-39.8-174.1-134.1-214.3c-75.3-32.1-155.3-41.8-235.9-48.4C2036.8,2210.2,1911.6,2215.6,1764.1,2215.1z"/>
		<path class="st0" d="M1935.8,2369c0.1-54.8,43.2-98.8,97-99.2c54.6-0.4,99.8,45,99.9,100.3c0.1,55.4-45,101-99.7,100.7
			C1978.2,2470.5,1935.7,2426,1935.8,2369z M1980.1,2370.5c0.1,30.4,22.5,53.4,52.3,53.8c30.2,0.4,55.6-24.5,55.5-54.3
			c-0.2-28.9-24.2-53.2-53.2-53.8C2003.7,2315.5,1980,2339,1980.1,2370.5z"/>
		<path class="st0" d="M1790.3,2552.9c-46.4,0.1-82.7-35.8-82.9-82.2c-0.3-46.5,35.4-83,81.7-83.7c47.2-0.7,84.9,36.7,84.4,84
			C1873.1,2517.4,1837.2,2552.8,1790.3,2552.9z M1789.1,2508.2c20.8,0.7,37.8-15.5,38.5-36.8c0.7-21.9-14.2-38-35.9-38.5
			c-21.4-0.5-38.7,15.2-39.5,35.8C1751.4,2488.3,1769.4,2507.5,1789.1,2508.2z"/>
		<path class="st0" d="M1200.5,952.4c-48.4,0.1-87-37.9-86.2-85c0.6-39.7,34.1-79.7,66.5-79.6c48.5,0.3,97.5,48.1,96.9,94.7
			C1277.2,922.3,1244.1,952.4,1200.5,952.4z M1201.6,907.6c14.5-2.4,29.4-6.5,30.6-26.1c1.1-18.2-30.4-50.9-48-47.8
			c-17.8,3.1-22.3,20.1-23.8,35.1C1158.2,889.2,1178.9,908,1201.6,907.6z"/>
		<path class="st0" d="M2742.9,663.2c0.3,61.3-46.6,108.8-107.6,108.9c-60.9,0.1-109.4-47.2-109.9-107.3
			c-0.5-59.6,48.4-109.3,108.2-109.9C2693.3,554.3,2742.6,603.1,2742.9,663.2z M2571.4,665.2c0.7,35,30.6,63.6,65,62.3
			c33.9-1.3,61.6-29.6,61.8-63.3c0.2-34.4-29.4-63.6-64.2-63.4C2598.4,601.2,2570.7,629.6,2571.4,665.2z"/>
		<path class="st0" d="M2241,543.8c-0.2-60.1,49.3-109.8,108.4-109.1c58.9,0.7,106.6,49,106.9,108.1
			c0.3,60.1-49.1,109.8-108.6,109.3C2289.5,651.5,2241.2,602.6,2241,543.8z M2410.3,543.6c0.1-35.3-26.5-62.5-61.3-62.6
			c-33.8-0.1-63,28.6-63.2,62c-0.2,33.3,28.9,62.3,62.6,62.6C2383.2,605.9,2410.2,578.8,2410.3,543.6z"/>
		<path class="st0" d="M2404.1,894.2c-46.2,0.6-83.2-35.8-83.4-81.9c-0.2-45.3,38-83.8,82.7-83.4c43.6,0.4,81.3,37.5,82.7,81.4
			C2487.5,854.8,2449.6,893.6,2404.1,894.2z M2366.8,808.3c-1.8,20.8,11.7,37.9,31.7,40c21.8,2.3,39.6-12.4,41.1-33.7
			c1.4-20.6-13.1-37.4-33.4-38.6C2384.9,774.6,2368.6,788.1,2366.8,808.3z"/>
	</g>
</g>
</svg>
