<?xml version="1.0" encoding="utf-8"?>
<!-- Generator: Adobe Illustrator 23.0.0, SVG Export Plug-In . SVG Version: 6.00 Build 0)  -->
<svg version="1.0" xmlns="http://www.w3.org/2000/svg" xmlns:xlink="http://www.w3.org/1999/xlink" x="0px" y="0px"
	 viewBox="0 0 3000 3000" style="enable-background:new 0 0 3000 3000;" xml:space="preserve">
<style type="text/css">
	.st0{opacity:0.32;}
	.st1{stroke:#000000;stroke-width:10;stroke-miterlimit:10;}
</style>
<g id="Layer_1" class="st0">
</g>
<g id="Layer_2">
	<g>
		<path class="st1" d="M2145.7,1553.4c7.3,11.6,17.3,10.2,25.7,11.4c48.8,7.2,124.6-26,135.5-96.1c6.7-42.8,18.5-84.7,26.8-127.3
			c10.2-52.8-17.7-85.3-71.9-85.8c-39.3-0.4-76.3,7.5-111.2,26.1c-31.5,16.8-48.2,42.4-48.4,77.7c-0.2,41.1-24.2,61.9-59.6,74.2
			c-6,2.1-12.3,6.4-15.4-2.9c-2.7-8,4.4-9.3,9.4-10.9c34.2-10.6,50.9-32.2,52.2-69.4c1.3-35.6,19.6-64.4,52.1-81.2
			c42.5-21.9,87.7-33.6,135.9-27.7c32.7,4,58.5,19.1,69.8,52.2c3.3,9.6,7.3,9.6,14.9,4.5c15.9-10.6,29.6-23.5,41.7-38.2
			c3.8-4.6,7.4-12.2,14.8-6.4c5.6,4.4,1.5,10-1.2,15c-11.2,20.2-12.1,41-5,62.9c4.5,13.8,9.7,13.8,19.8,4.7
			c55-50,120.1-79.3,193-91.2c103.5-16.8,203.8-1.4,301.4,34.2c38.5,14,56,44.9,53.9,84c-3.2,60.8-8.9,121.6-27.1,180.3
			c-23.2,74.9-67.6,131.4-142.7,163.3c23,2.5,46,6.2,69.1,7.2c22,0.9,40.1,7.3,50.1,27.8c10.5,21.5,4.6,41.6-9.8,58.7
			c-26.6,31.6-63,48.3-101,61.7c-60.1,21.2-123,27.2-185.9,31.4c-70.8,4.7-141.6,3.6-211.9-7.1c-23.6-3.6-45.7-17.8-67.9-19.8
			c-21.9-1.9-37.4,25.4-60.2,33c-35.8,12-70.1,9.1-104.7-4c-37-14-42.8-11.9-67.1,19.8c-17.6,22.9-35.3,28.1-56,16.3
			c-19.4-11.1-26.7-38-16.7-61.3c6.2-14.6,18-24.7,32.5-38.4c-21.1,3.4-22.8-4.7-20-20.3c5.8-31.8,15.2-62.6,24.4-93.4
			c4.9-16.3-2.1-16.7-14.2-14.8c-38.5,6.3-42.4,1.4-30.3-37.1c12.9-40.9,21.6-48,65.1-50.1c9.6-0.5,15-4.4,14.9-13.4
			c-0.1-11.1-9.1-5.5-14.1-5.7c-27.3-1-37.5-9.9-37.5-34c0-31.7,11.6-46,38-47.3c29.2-1.4,29.2-1.4,25-31.2
			c-0.6-4.2-1.2-8.3-1.9-12.5c-3.7-23.4-12.1-28.1-34.8-19.4c-6.2,2.4-13.8,9.1-17.9-0.5c-4.1-9.6,6.5-10.6,12-13.2
			c30.2-14.7,52.7-2.2,56.1,34.4c2,21.2,9.3,18.4,23,11.7c35.5-17.3,64.1-42.4,86.7-74.7c4.7-6.8,9.4-16.2,19.5-11.4
			c10.7,5,5.1,15.2,3,22.4c-16.6,57.2-51.9,98.3-107.3,121.4C2162.9,1546.5,2155.2,1549.5,2145.7,1553.4z M2319.8,1630.2
			c8.7,0,12.2,0.2,15.7,0c63.1-5,125.8-3.2,188.1,8.5c25.7,4.8,51.5,5.4,77.5,3.2c12.5-1,17.7-5.1,16.1-19.7
			c-7.4-66.3,38.2-126.7,103.9-139.6c71.2-14,111.6,22.6,105.2,94.6c-2.3,25.8-7.7,51.4-6.2,77.5c1.4,24.5,5.3,26.7,25.4,14
			c52.2-33,80.2-82.9,96.3-140.6c15.5-55.7,19.8-113,22.5-170.5c1.3-27.3-11.2-47.1-35-59.9c-19.9-10.7-41.9-15.4-63.3-22
			c-15.1-4.6-28.8-3.7-42.6,3.4c-55.9,28.8-87.5,73.8-87.6,137.3c0,17.6-5.5,20.8-21,21.5c-24.6,1.1-48.4,7.5-71.3,16.6
			c-9.5,3.8-15.5,9.3-18.9,20.1c-21.8,69.2-81.1,94.4-148,63.8c-7.1-3.2-13.6-7.5-21.3-1.2c-9.9,8.1-22.7,10.7-33.7,16.6
			C2385.4,1573.2,2350.1,1594.2,2319.8,1630.2z M2290.3,1535.3c-41.2,39.4-86.4,52.4-138.1,40.9c-7.4-1.6-10.2,2.3-11.7,8.4
			c-1.6,6.8-3.2,13.6-4.8,20.4c-15.8,65.3-42.2,127.4-56.8,193c-3.9,17.6,1.9,18.4,15.9,16.7c41.7-5.3,83.4-9.9,125.2-14.6
			c5.7-0.6,13.9-4.7,15.3,4.9c1.5,10.4-7.3,9.7-14.3,10.5c-26.5,2.8-53,4.8-79.3,8.7c-28.6,4.3-52.1,19.6-71.8,40.1
			c-5.1,5.3-8.6,13.1-10.2,20.3c-3.4,15,0.6,28.4,15.7,35.1c13.9,6.2,23.4-0.7,32.1-11.9c30.8-39.9,41.7-42.7,89.4-25.1
			c5.9,2.2,11.9,4.2,18,5.6c35.9,8.4,69.5,3.6,100.2-17.9c12.5-8.8,24.8-15.4,14.6-35.9c-6.8-13.7,2.5-28.7,15.1-38.4
			c7.2-5.5,15.4-9.7,23.4-14.1c48.3-26.5,98-49.7,155.7-67c-20.2-7.8-35.7-13.2-50.8-19.7c-15.4-6.7-30.9-13.6-45.3-22.1
			c-13.4-7.9-20.6-4.3-28.8,7.9c-16.5,24.4-38.2,42.9-68.5,48.4c-42.8,7.8-75.4-24-67.2-66.8C2271,1621.8,2280.6,1581,2290.3,1535.3
			z M2815.4,1265.1c-35.8-9.5-69.2-10.8-102.5-11.5c-82.5-1.8-160,16.3-229.8,61.6c-49.9,32.4-89.1,74.7-112,130.2
			c-12.1,29.3-14.5,58.9,10,84.3c15.6,16.3,59.4,10.3,70.3-9.4c1.2-2.1,0.8-5.2,0.8-7.9c1.9-64.8,37.5-109.4,98.8-123.8
			c39.6-9.3,63.8,3.9,74.9,43.1c3.2,11.3,7.1,11.1,15.6,7.7c20.2-8.2,41.2-14.2,63-15.4c11.8-0.6,14.8-5.3,15.7-16.5
			c4.8-59.3,32.5-104.8,84-135.2C2807.1,1270.6,2809.8,1268.7,2815.4,1265.1z M2399.8,1642.6c112.8,63.2,199.6,80.1,319.8,64.7
			c26.5-3.4,52.6-7.4,77.9-16.3c8-2.8,14.1-5.6,10.7-16.1c-6.2-19.2-3.4-38.7-1.3-58.3c2.3-21.5,6.9-42.9,5.1-64.8
			c-2.8-34.2-22.2-53.9-56.1-56.3c-61-4.4-112.7,35.9-123.3,96.4c-2.3,13-6.8,30.2,2.2,38.2c8.2,7.3,21.1-5.6,31.4-10.8
			c0.6-0.3,1.2-0.7,1.8-1.1c5-3.2,9.4-2.9,12.3,2.6c2.6,4.9-0.6,7.9-4.5,10.2c-4.8,2.9-9.5,5.8-14.5,8.3
			c-46.1,23.6-94.8,20.5-144,14.3C2479.9,1648.9,2442.9,1640.5,2399.8,1642.6z M2873.1,1818.8c14.5-6.7,26.3-16.1,35.5-28.5
			c21.7-29.3,9.7-57.6-26.5-62c-17.4-2.1-34.9-3.2-52.4-3.7c-36.9-1-73.5-7.8-110.9-2.1c-44.4,6.8-89.3,6.5-134.1,0.9
			c-17.6-2.2-34.8,0.9-51.9,5.5c-59.3,15.7-113.6,43.2-167.3,71.8c-2.5,1.3-4.8,2.9-7,4.7c-20,15.4-19.7,31.6,1.2,45.1
			c11.6,7.5,24.4,11.8,38.8,15.1c-14.3-49.2,1.7-75.8,50.6-87.3c2-0.5,4.2-0.6,6.2-1.1c112.8-25.1,227.4-30.1,342.4-29.3
			C2853.9,1748.4,2870.7,1763.8,2873.1,1818.8z M2390.2,1295.2c-15.1,15.5-37.4,17.5-40.6,39.2c-8.4,57.5-23.8,113.5-36.1,170.2
			c-9.2,42.9-19.1,85.6-28.8,129c3.7-0.2,5.6,0.3,6.4-0.4c29.7-25.4,55.8-55.1,90.4-74.7c7.6-4.3,1.4-8.1-2.2-10.9
			c-37.6-29-36.7-66.5-22.8-106.3c9.6-27.4,25.8-51.3,44.2-73.5c4.7-5.7,8.8-10.2,3.5-18.1
			C2394.3,1334.7,2392.1,1317.2,2390.2,1295.2z M2642.8,1877.4c14-1.2,27.1-1.9,40-3.3c50.9-5.5,101.6-12.6,148.9-33.7
			c18.6-8.3,27.2-24.3,26-44.1c-1.1-18.1-14.6-27.7-30.5-30.1c-46-6.7-92.4-2.1-138.6-1.2c-7.2,0.1-7.3,4.4-7.1,9.8
			c0.2,6.6,1.8,10.7,9.9,9.2c6.9-1.3,13.9-1.9,20.9-2.2c12.5-0.6,24.2,2,30.5,14.2c5.8,11.3,2.9,21.6-5.5,30.8c-1.8,1.9-3.6,4.5-4,7
			c-5.6,31.2-6.1,31.8-37.5,31.3c-9.8-0.1-19.6-1.1-29.4-2C2655.6,1862.1,2647,1864.3,2642.8,1877.4z M2572.4,1880.3
			c15.2-4.6,35.3,6.8,47.9-5.4c26.5-25.7,46.4-56,44.8-95.9c-0.5-12-5.4-14-15.6-12.9c-16.7,1.8-33.5,3.8-50.3,3.8
			c-21.5-0.1-34.7,7.2-39.7,29.8c-2.8,12.6-11.5,23.9-16.9,36c-6.1,13.8-23,29.5-15.1,41C2534.6,1887.2,2556.2,1878.9,2572.4,1880.3
			z M2521.8,1837.7c-5-0.4-9.3,0.1-13-1.2c-6.8-2.4-20,6.6-19.7-6.9c0.2-10.3,12.6-7.4,20.3-7.7c21-1,38.5-17.3,40.7-37.7
			c0.9-8.8-4.7-7.2-9.1-6.6c-36.7,5-73.7,9.3-108.6,22.5c-16.3,6.1-25.8,19.1-24.8,37.6c1,18.7,12.3,29.1,29.2,34.1
			c21.8,6.5,44,7.8,68.6,6.2c-6.9-6.5-19.7,1.1-19.1-11.4c0.6-11.9,11-8.6,17.9-8.8C2517.4,1857.4,2519.7,1848.6,2521.8,1837.7z
			 M2523.6,1513.3c7.9,0.2,15.2-2.1,21.9-6c24.3-14.3,42.5-36,62.7-55c11.6-10.9,2.7-26.4-6.3-37.6c-9-11.1-22.8-18.8-34.6-9.2
			c-27.2,22.2-48.9,49.9-61.7,83C2499.7,1503.6,2507.8,1513,2523.6,1513.3z M2283.8,1640.2c-2.3,8.8-4,14.1-5.1,19.6
			c-8,39.9,18.5,64.7,57.6,53.2c27.2-8,43-29.7,59.8-53c-28.1-11-55.2-18.7-84.6-13.9C2301.9,1647.6,2292.1,1650.5,2283.8,1640.2z
			 M2541.9,1406.8c-37.9,14.6-58.6,37.6-69.5,69.8c-11.6,34.5-6.4,44.6,28.1,55.8c45.5,14.8,94-9.6,104.4-53.1
			c-9.5,2.7-14.1,11-20.6,16.8c-12.5,11.2-24.7,22.5-40.7,28.6c-16.8,6.5-33.7,8.3-46.7-6.1c-12.1-13.5-10.1-29.4-2.1-45.1
			C2506.3,1450.9,2521.9,1431.2,2541.9,1406.8z M2050.4,1694.5c12.8-6,23.2-5.7,33.6-5.5c5.8,0.1,10.9,0.2,13-7.2
			c3.9-13.4,8.5-26.6,12.9-39.8c1.8-5.5,1.9-9.7-5.2-10.5c-15-1.6-29.4-2.3-38.3,13.9C2058.5,1659.5,2053.1,1674.3,2050.4,1694.5z
			 M2247,1450.1c-25.4,23.8-53.5,42.5-86,54.8c-7.7,2.9-12.1,9.3-13.1,17.6c-0.9,7.7,0.8,13.2,10.1,9.6
			C2198.5,1516.7,2230,1491.4,2247,1450.1z M2084.2,1561.8c0,16.5,5.6,21.6,23.1,21.2c18.7-0.4,24.3-10.4,24.3-39.3
			c0-14.3-8.9-13.3-18.2-13.1C2091.6,1531,2084.1,1538.9,2084.2,1561.8z M2698,1820.1c7.9-0.6,15.7-0.1,23-2
			c7.3-1.9,12.7-7,7.4-15.4c-5.2-8.2-46.8-6.1-49.6,2.8C2671.7,1828,2690.7,1816.3,2698,1820.1z M2693.6,1836c0-0.1,0-0.3,0-0.4
			c-6.2,0-12.4-0.3-18.6,0.1c-5,0.3-10.2,2-9.7,8.2c0.4,5.5,5.8,4.9,9.7,5c9,0.3,18,0.7,26.9,0c6-0.4,16.4,4,16.4-6.3
			c0-9.6-10.1-6.5-16.5-7C2699.2,1835.5,2696.4,1835.9,2693.6,1836z"/>
		<path class="st1" d="M1312.1,1299.5c46.3-4.6,87.3-9.7,128.6-2.7c31.2,5.3,57.9,18,73.5,46.7c7.8,14.4,13,3.8,18.7,0
			c103-67.2,214.5-90.1,335-63c41,9.2,56.6,27.6,60.8,69.5c5.6,55.8,8.9,111.7,0.3,167.6c-12.7,82-57.6,139.5-131.7,175.3
			c-5.6,2.7-11.2,5.5-16.7,8.4c-0.4,0.2-0.3,1.2-0.9,4.6c23.2,0,46-0.2,68.7,0.1c21.2,0.3,41.9,3.7,60.8,13.8
			c21.9,11.7,35.9,29.1,36.8,54.7c0.8,25.1-14.1,40.3-35,50.2c-47.9,22.8-99.2,34.1-151.5,40.2c-82.7,9.6-165.1,6.1-247.2-7.2
			c-19.4-3.1-38.4-9-53-23.3c-4.1-4-6.4-6-11.8-1.9c-67.8,51.6-146.4,56.1-226.4,48.2c-85.1-8.4-103.1-27.6-115-112.8
			c-8-56.7-2.1-113.3,2.6-169.9c3.4-41.2,7.4-82.3,18.9-122.3c23.3-81.2,68.9-141.7,153-167.1c5.2-1.6,10.4-2.9,13.6-8.7
			c12.7-22.7,33.3-34.9,57.4-42.7c5.5-1.8,11.6-8.8,15.7,0.1c4.1,8.7-4.3,9.9-10,12.3C1342.2,1276.3,1326.7,1282.4,1312.1,1299.5z
			 M1748.1,1692.3c2.4,0.3,4.6,1.3,6.3,0.8c80.5-24.2,135.8-74,156.4-157.3c15.6-63,8.6-126.9,3.2-190.4
			c-2.6-29.9-22-45.3-50.3-51.4c-108.5-23.4-210.1-4.6-305.7,50.1c-21.1,12.1-38.1,28.5-48.7,50.8c-32.1,67.7-38.9,139.8-35.9,213.3
			c0.9,21.9,13.6,37.6,32.8,48.1c22.3,12.2,46.8,18.3,70.7,25.9c4.7,1.5,10.8,6.8,14.3-1c2.7-6.3,6-14,4.6-20
			c-1.5-6.1-9.8-1.9-15-2.1c-32.7-1.4-64.3-6.5-90.1-28.9c-3.4-3-10.9-6.3-5.3-12.8c4.8-5.6,9.5-2.7,14.2,1.6
			c12.3,11.1,27.2,16.9,43.1,20.7c43.4,10.2,83.3,2,120.1-22.8c5.1-3.4,11-12.8,17.1-2.9c5.8,9.2-5,11.4-9.8,15.1
			c-11.2,8.5-23.6,15.1-37,19.6c-9.9,3.2-17.6,8.9-21.1,18.9c-2.9,8.4-12.5,19.9,1.5,24.5c10.1,3.3,24.3,14.9,34-4.9
			c9.6-19.4,26.1-32.8,46.8-40.2c5.8-2.1,13.7-8.7,17.6,2c3.6,10-6.4,8.8-11.4,10.8c-15.5,6.1-28,15.8-37.4,29.4
			c-2.5,3.6-7.6,10.4-0.3,11.5c19.4,2.9,39.1,2.1,58.7-0.2c11.8-1.4,10-11.8,13.5-18.7c4.4-8.5,11.4-14,20.2-17.4
			c7.2-2.8,14.8-4.8,21.3-8.7c7.9-4.7,16.2-11.2,11.3-21.9c-4.7-10.3-12.7-5.3-19.4-1.2c-4.3,2.6-8.2,2.3-11-1.8
			c-4.4-6.2,1.1-8.9,5-11.4c10.8-6.9,22.4-10,32.8-0.2c11.4,10.7,11,23.6,2.9,36.2c-7.2,11.3-19,16.2-31,20.3
			C1758.6,1678.4,1749.2,1680.3,1748.1,1692.3z M1132.7,1519c45.7-36.9,93.3-58.1,145.2-69.6c59.5-13.2,119.6-13.2,179.8-7.1
			c14.5,1.5,19.5-3.1,23.5-15.6c4.6-14.6,9.6-29.8,18-42.3c12.6-18.8,6.1-32.6-6.5-46.7c-13.2-14.8-30.5-23.3-49.4-25.8
			c-65.6-8.5-130.5-5.1-191.1,23.9C1177.9,1371.3,1149.1,1438.2,1132.7,1519z M1242,1865.7c11.6,5.4,21.6,2.8,31.1,4
			c14.2,1.8,20.4-2.9,19.3-18.3c-1.3-17.5,2.2-34.9,7-51.8c22.4-78.7,73-130.5,150-157.2c6-2.1,19,0.9,13.8-14.3
			c-8.9-25.8-7.2-52.4-3.7-79c3.8-28.6,3.2-29-24.8-31.7c-4.9-0.5-9.9,0-14.7-0.9c-13.8-2.3-18.9,3.3-22.1,17.1
			c-18.4,81.4-90.9,133.4-174,126c-28.6-2.5-37.5-19.8-22.3-44.4c12.9-20.9,26.6-41.4,42.4-66.1c-38.9,16.5-69.1,37.4-98.3,60.3
			c-17.5,13.7-28.1,28.9-27.3,52.7c0.9,25.3-3.6,50.8,0,79.2c28.8-22.3,58.6-28,90-28c61.9-0.1,92.4,47.5,67,104.4
			C1267.6,1835.3,1254.6,1849.1,1242,1865.7z M1625.9,1853.6c43.4,4.2,84.2,1.2,125-2.4c7.5-0.7,10.1-6.3,13.1-12
			c7.8-15,17.9-28.4,31-39.3c4.2-3.5,8.8-11.3,15.3-3.1c5.4,6.8-1.8,9.5-5.3,13.3c-10,10.8-21.9,20.3-26.8,37.2
			c43.4-6,83.1-16.6,121.1-32.9c13.7-5.9,26.2-13.7,31-29.3c4.1-13.4,3-23.1-14.5-25c-22.2-2.4-44.2-7.5-66.4-9.7
			c-109.5-10.8-215.3,0.8-313.8,54.1c-8.6,4.6-16.5,10.5-24.2,16.5c-5,3.8-10.1,9.1-8.6,15.8c1.8,7.4,9.7,6.9,15.5,7.7
			c23.6,3,47.3,5.3,70.9,8.4c11.4,1.5,19.4-1.1,26.4-11.3c8.2-11.9,21.7-17.2,35.2-21.6c5.6-1.8,9.9-0.1,11.5,5.6
			c1.6,5.8-3.4,6.3-7.1,8.1C1645.7,1838.6,1634.2,1840.7,1625.9,1853.6z M1490.3,1696.6c-0.5-4.2-1.4-13.9-2.6-23.7
			c-2-17.3-9.3-24.6-28.2-18.4c-82.6,26.8-133.8,81.8-150,167.3c-9.3,49.1-7.6,49.8,42,39.4
			C1439.6,1842.7,1492,1782.7,1490.3,1696.6z M1122.6,1609.8c9.4-7.5,14.2-11.3,18.9-15.1c84.5-68,180.8-98.8,289.2-91.4
			c32.4,2.2,32,2.1,37.9-30.8c1.9-10.6,0.1-14.5-11.5-15.9c-35.7-4.3-71.5-4.6-107.1-2.4c-76.4,4.6-147.5,25.2-207.2,75.9
			c-6.2,5.2-13.7,9.5-14.4,19.5C1127.1,1567.7,1125,1585.7,1122.6,1609.8z M1205,1727.4c-23.6,2.1-50.3,3.7-72,22
			c-7.7,6.5-14.6,13.4-11.8,24.8c3.1,12.9,5.2,26,9.4,38.5c14.3,42.9,42.6,48.9,83.7,53c4.5,0.4,8.2-1.3,11.1-4.7
			c14.2-16.3,29.7-31.5,38-52.2C1281.9,1762.6,1257.7,1726.8,1205,1727.4z M1240.7,1645.6c62.8-0.2,117.2-38.6,138.5-97.6
			c11.5-32.1,9.8-34.1-24.6-28.9c-5.5,0.8-11.1,1.5-16.7,2c-41.6,4.3-77,18.1-96.8,59c-7,14.4-17.6,27-25.9,40.7
			c-10.7,17.5-8,22.4,13,24.7C1232.3,1646,1236.5,1645.6,1240.7,1645.6z M1918.1,1744.9c-15.9-15.6-30.9-19.8-46.9-21.9
			c-45.4-6.1-91.1-5.1-136.5-3c-57.3,2.6-114.9,5.1-169.6,26c-36.1,13.8-67.1,34.6-90.5,65.9c-4.6,6.1-8,11.5,0.8,17.4
			c8.3,5.6,11.9,2.5,15.8-5.4c7.9-16,23-24.2,37.8-32.2c80.2-43.5,166.9-60.1,257.3-59.9C1828.7,1731.9,1870.8,1737.8,1918.1,1744.9
			z M1493.7,1769.6c42.8-32.9,88.3-47,135.7-57.3c-42.8-10-83.6-25.1-126.8-39.3C1506,1706,1504.6,1735.8,1493.7,1769.6z"/>
		<path class="st1" d="M468.7,1669.7c-41.9-4.5-50.7-22.3-29.7-55.6c-10.9,1.1-16.7-5.7-21.6-13.4c-1.8,1.3-3.1,1.8-3.6,2.8
			c-3.7,7.4,0.2,23.2-10.9,21.1c-15-2.8-4.4-16.3-2.9-24.4c14.4-77.6,35.6-152.9,82.2-218.3c72.1-101.1,172.6-137.9,293.1-127.9
			c51.8,4.3,102.6,12.7,147.1,42.6c62.5,42.1,87.9,101.4,71.5,167.7c-7.6,30.7-23.5,54.8-52.9,69.2c-31.9,15.6-62.9,33-94.9,48.3
			c-60.3,28.9-86.8,80.6-95.6,143c-3.5,24.8-3.1,50.4,3.8,75.2c5.7,20.6,15.8,37.3,37.5,44.5c8.6,2.8,18.5,5.7,18.2,17.3
			c-0.2,10.9-9.8,14.5-17.9,18.6c-38.5,19.5-80.1,18.8-121.4,17.7c-14.3-0.4-25.9-8.2-21.2-28.2c-23.1,14.7-45.3,20.1-67.8,9.1
			c-17.3-8.5-12.9-25.5-9.1-41.2c-65.7,20.2-100.2,0.7-97.5-56c-27.7,26.7-56.1,27.9-86.1,6.5c-9.5-6.8-11.7,4.5-15.3,8.9
			c-22.4,27.3-48.4,48.7-84.5,54.5c-29.4,4.7-60.8-11.2-71.9-36.4c-2.8-6.2-7.6-14.4,0.5-18.7c11.3-6,9.3,6.2,11.8,11.3
			c12.4,25,40.4,36.1,70.1,26.7c37-11.7,59.8-40.3,80.3-70.8c3.4-5.1,9.6-14.9-1.1-19.8c-9.2-4.2-16.1-18-30.3-4.8
			c-21.1,19.6-48,28.2-76.6,30c-5.3,0.3-14.1,4.2-15.3-5.4c-1.3-10.3,7.7-7.6,13.3-8.2c31-3.3,58.5-14.1,80.2-37.1
			c5.9-6.3,9.4-6.7,16.8-0.8c25.3,20.1,25.7,19.5,49.9-2.3C433.4,1700.9,449.7,1686.6,468.7,1669.7z M791.1,1602.6
			c-40-23.6-39.9-55.5-2-78.8c3.6-2.2,7.2-4.2,10.9-6.3c34.8-19.5,51.3-48.8,44.9-79.8c-7.4-35.8-34.5-57.8-75.8-60.6
			c-58.9-4-112.3,12-160.8,45.2c-4.4,3-8.3,8.1-13.8,0.9c-4.8-6.1-0.7-8.6,3.4-11.3c59.3-39.8,123.5-60,195.1-45.8
			c35.1,7,61.7,37.4,66.2,70.9c5,37-10.8,68.9-43.7,88.5c-10.2,6.1-20.9,11.7-30.1,19c-8.7,6.9-12.7,16.7-7.8,28.1
			c4.6,10.7,13.6,13.5,24.2,12.5c6.9-0.7,13.6-1.7,20.1-5.2c38.8-21,77.7-41.8,116.8-62c17.9-9.2,29.8-23.3,36.5-41.6
			c16.1-43.7,12.6-85.8-14.6-124c-31.8-44.8-78-66.2-130.5-76.3c-28-5.4-36.8-1.5-50.8,23.6c-1.7,3-3.3,6.2-4.5,9.4
			c-2.4,5.9-7,6.9-11.9,4.7c-5.6-2.5-2.2-7-1.2-10.8c3.2-12.3,12.5-21.2,18.7-32.4c-137.8-23.2-302.5,73.5-320,188.2
			c9.5-6,17.9-12.1,26.9-17c21-11.4,43.1-19.5,65.5-5.1c21,13.5,18.7,35.6,17.6,56.9c-1.5,29.9-10.1,58.5-17,88.1
			c16.5-2.1,30.9-5.1,45.5-5.7c51.4-2.1,83.6,28.9,84.3,80c0.4,29.2-6.8,56.8-15.7,84.3c-4,12.3-8.6,25.4,10,33
			c27.3,11.2,34.9,35.4,21.4,61.7c-6.5,12.8-17.1,22-27.2,31.8c-3.4,3.3-7.9,7-6,12.5c2.1,6.1,8.2,4.3,12.7,4.3
			c18.2-0.1,36.5,0.2,54.7-1.3c20.7-1.8,40.8-7,59.3-18.7c-46.1-31.6-57.7-53-57.9-108.2C734.1,1697.8,750.6,1646.1,791.1,1602.6z
			 M653.4,1670c1.1-47.2-26.3-70.9-65-64c-16.1,2.8-31,9.3-43.8,19.3c-48.2,37.3-92.4,79.2-137.7,119.8c-2.5,2.3-4.4,5.4-6.2,8.4
			c-8.9,15.6-4.5,26.7,12.8,32.1c23.3,7.4,39.7,1.1,52.5-21.5c11-19.4,24.2-36.4,46.3-43.3c20-6.2,39.3-4.2,53.9,12.6
			c10.8,12.4,14.6,27.1,6.9,42.9c-9.4,19.3-27,22.3-46,22.5c-13.7,0.1-24.1-0.9-11.2-17.6c3.4-4.4,7.1-10.5,1.8-14.9
			c-6-5-11.9,0-16.6,4.1c-17.5,14.8-15.8,41.1,3.3,53.9c18.7,12.5,43.8,11.9,64.7-4.2C620.7,1780.1,645.2,1725.1,653.4,1670z
			 M432.6,1592.7c7.7-16.1,15.7-29.8,33.3-17.4c12,8.4,9,26.5-6,41.9c-3.9,4-8.1,7.7-12.1,11.7c-4.8,4.8-7.2,10.7-4.2,17.2
			c3.6,7.8,11.3,7.8,18.2,7c12.5-1.5,19.6-11.1,24.4-21.1c18.2-37.8,34.7-76.4,47.1-116.5c4.5-14.6,3.2-30.5-11.6-39.3
			c-15.7-9.3-30.1-2.4-41.4,9.7c-18,19.1-29.8,42.2-40.5,65.8C434.4,1563.4,428.4,1575.3,432.6,1592.7z M493.4,1457.1
			c44,1.4,61,20.2,54.3,58.9c-2,11.5-6.3,22.8-10.6,33.7c-11.5,29.2-23.6,58.1-37.8,92.8c19.7-16.7,34.6-29.1,49.5-42
			c-5.9,0.5-11.9,1-17.8,1.5c-2.1-8.5,3.2-14.1,5.4-20.5c12.3-35.2,20.7-71,19.6-108.6c-0.7-21.3-11.1-30.1-32.3-28.6
			C513.2,1445.4,503.1,1447.5,493.4,1457.1z M614.9,1797.7c8.3-1.6,15.1-3,21.9-4.2c6.3-1,13.1-1.7,17.7,3.6
			c5.4,6.3,1.4,11.6-3.4,16.3c-2.5,2.4-5.9,5.9-0.6,7.7c16.5,5.8,11.3,19.9,11.8,33.4c12-9.9,21.2-19.5,25.8-32.3
			c5.5-15.1,2.8-29.4-13.3-34.6c-20.6-6.7-27.9-20.3-26.2-44.8C635.9,1763.6,625.8,1780,614.9,1797.7z M647.3,1837.4
			c-10,10-20.9,19.2-31.2,8.5c-12.1-12.7,3.1-22.4,9.6-33c-8.8-1-14.1,4.3-19.2,8.3c-12.3,9.7-22.6,21.2-21.5,38.4
			c0.4,6.4,6.2,9.1,12,9.9c17.6,2.6,33.4-1.3,45.3-15.3C645.3,1850.6,648.5,1846.4,647.3,1837.4z M486,1760.8c8-4,13.8-7.5,20-9.9
			c15.1-5.9,23.6,1,28.9,15.1c2.1,5.6-6.8,17.7,8,16.1c13.4-1.4,19.3-10.3,18.7-23.4c-0.9-17.6-18.7-29.9-38.3-26
			C507.4,1735.7,495.7,1745,486,1760.8z"/>
		<path class="st1" d="M221.8,1579.3c-43.3-15.1-82.2-28.3-120.8-42.2c-31.3-11.2-37.8-26.2-23.1-56.5
			c24.5-50.4,50.9-99.9,75.3-150.3c25.2-52.2,71.5-69.9,123.9-78.6c48-7.9,96.1-9.7,144.3-0.7c24.7,4.6,33.8,15.6,28.6,39.1
			c-14.6,66.9-28.6,134.1-53.6,198.2c-12.1,31.1-28.9,59.2-54.1,81.5c-26,22.9-55.2,32.6-89.2,19.7c-10.5-4-18.5-3.5-27.9,5.1
			c-16.2,14.8-37.6,17.4-58.9,18.9c-18.9,1.3-37.9,2.2-55.7,9.4c-7.8,3.1-15,7.8-20.2,14.7c-5.8,7.8-9.4,16.6-2.1,24.9
			c8.2,9.2,16.6,3.3,24-2.3c2.8-2.1,5-4.9,7.3-7.5c3.5-4.2,7-3.7,10.6-0.3c2.8,2.7,3.9,5.6,1.1,9c-8.6,10.6-18.3,19.3-33,19.9
			c-10.9,0.4-19.4-3.8-24.4-13.3c-6.9-13.1-4.9-26.4,3.8-37.6c16.8-21.7,41.3-27.4,67.1-29.5
			C170.3,1598.7,196.5,1599.2,221.8,1579.3z M127.9,1411.5c-13.6,27.8-26.5,54.2-39.3,80.6c-7.4,15.4-2.8,24.5,13.8,30.1
			c51,17.1,101.7,35,152.4,52.9c30.3,10.7,56.3,3.5,79.3-17.7c23.3-21.4,38.7-47.9,49.7-77c23.3-61.8,37-126.1,50.9-190.4
			c4.1-18.8-4.3-23.3-19.9-25.9c-30-4.9-60.1-5.1-90.2-3.9c-83.1,3.3-150.8,30.5-179.7,117.1c-0.7,2-1.4,4.1-2.7,5.7
			c-8.5,10.9-4,18.9,5,26.7c32.5,28.2,70,40.1,112.8,35.4c63.6-6.9,119.4-74,114.4-137.6c-0.8-10.6-2-23-16.6-22.1
			c-35.6,2.1-71.2,5.6-106.1,13.2c-10,2.2-18.2,9.6-16.4,21.1c1.7,11,12.2,13.2,21.1,14c16,1.4,30.4-4,42.8-14.2
			c5.1-4.2,8.7-2.6,12.2,1.9c4.1,5.3-0.6,7.6-3.6,9.8c-20.2,14.8-41.8,22.6-66.7,12.9c-24.7-9.6-29-33.7-9.2-51.1
			c7.7-6.7,16.9-10.4,26.6-11.6c31.3-4,62.6-7.8,93.9-10.5c22.8-2,33.6,8.4,35.6,31.4c8,91.6-76.8,170.9-167.3,157
			C185,1453.8,154.8,1437.8,127.9,1411.5z"/>
		<path class="st1" d="M1016,1694.7c-8.2,102.4-96.6,164.1-195.2,137.8c-36.8-9.8-60.3-44.9-59.5-88.8
			c1.4-73.2,80.9-165.6,153.1-178c51.6-8.8,93.8,21.8,99.9,74.1C1016.5,1658.4,1019.5,1677.4,1016,1694.7z M1001.9,1679.8
			c0-7,0.3-14,0-21c-3.2-68.1-50.9-99.6-112.6-70.2c-60.7,28.9-98.9,79.5-112.8,145.6c-8.3,39.4,16.9,78,50.8,85.1
			C927.1,1840.2,1002.3,1780.3,1001.9,1679.8z"/>
		<path class="st1" d="M1306.4,1218.9c6,0.7,14.6-3.2,15.8,5.8c1.5,11.2-8.2,8.8-14.6,9.3c-74.5,5.4-133,39-176.4,99.5
			c-3.8,5.3-6.4,14.6-15.4,6.8c-7.9-6.8,1.2-11.4,4-15.3C1165.3,1260.4,1228.3,1226.1,1306.4,1218.9z"/>
		<path class="st1" d="M283,1717.1c-9.8,1.7-25.4-9.8-27.2,12.1c-0.2,2.9-7.4,3.2-9,0.8c-5.2-8.2-8-18.5-6-27.4
			c1.7-8.1,10.5-1.5,16-1.5c15.3-0.1,30.6,0.4,45.8,0.9c5.2,0.2,11.9-1.5,12.6,6.9c0.9,10.8-7.8,7.5-13.1,8.1
			C296,1717.7,289.7,1717.1,283,1717.1z"/>
		<path class="st1" d="M383.2,1859.6c-0.4,0.9-1,2.9-2,4.7c-11.8,21.3-28.1,38.4-48.8,51.1c-3.5,2.2-8,4.6-11-0.2
			c-2.9-4.5-3-8.7,2.9-12.1c19.3-11.1,33.8-27.1,44.7-46.4c2.2-3.8,4.2-7.3,9.6-4.3C381.1,1853.9,383.5,1855.1,383.2,1859.6z"/>
		<path class="st1" d="M58.1,1803.1c-2.3-1.9-4.6-3.3-6.1-5.3c-2.6-3.2-1.5-6.3,1-9.3c11-13.6,20.3-28.3,27.9-44
			c2.3-4.7,4.8-8,11.2-5.5c8,3.1,3.6,7.6,1.8,11.6c-7.4,16.7-17.3,31.8-28.8,45.9C63.3,1798.5,61.1,1800.2,58.1,1803.1z"/>
		<path class="st1" d="M1519.7,1260.5c-0.1,5.2-3.2,7.2-7.9,7.8c-15.5,1.8-30,6.6-41.7,17.5c-4.5,4.1-8.6,4.3-12.7,0.1
			c-5.8-5.8,0.9-8.8,3.7-11.5c14.1-13.8,32.5-17.9,51.2-21.1C1517.6,1252.3,1519.6,1255.5,1519.7,1260.5z"/>
		<path class="st1" d="M98.7,1914.3c-6.1,0.6-11.6-0.1-11.4-8.1c0.1-7.4,5.9-6.7,10.6-6.5c14.4,0.6,27.4-4.9,40.4-9.7
			c5.7-2.1,10.7-4.7,13.8,2.9c3.6,8.8-5,8.5-9,10.6C129.3,1910.5,114.2,1913.4,98.7,1914.3z"/>
		<path class="st1" d="M101.7,1839.7c-2.5,2.9-4.1,5.2-6.1,7c-12,10.5-24.2,20.7-36.2,31.2c-4.8,4.2-8.6,6.1-13.5-0.4
			c-5.2-6.8,0.9-8,4.1-10.8c11.5-10,23.2-19.8,34.8-29.7c3.2-2.7,6.3-6,10.8-2.8C97.7,1835.6,99.4,1837.5,101.7,1839.7z"/>
		<path class="st1" d="M241.1,1936.1c-1-0.9-3.2-2.4-4.7-4.4c-2.4-3.3-1.7-6.7,1.6-8.8c14.1-9,27-19.4,38-32.1
			c2.9-3.3,5.9-3.2,8.5,0.1c1.6,2.1,3.8,4.5,3.8,6.9C288.4,1903.3,248.8,1936.1,241.1,1936.1z"/>
		<path class="st1" d="M224.9,1897.5c-0.5,12.6-34.4,38.3-45.8,35.1c-2.2-0.6-4.5-3.1-5.3-5.3c-1.3-3.5,0-7.3,3.8-8.3
			c14.7-4,26.1-12.3,34.4-25.1c2-3.1,5.8-3.5,9.4-2.2C224.2,1892.8,225.6,1894.9,224.9,1897.5z"/>
		<path class="st1" d="M282.4,1662.5c-0.7-11.7,1.2-21.9,7.5-30.6c3-4.1,5.8-11.5,12.2-8.4c7.3,3.6,5,9.6,0.8,15.4
			c-6,8.1-6.8,17.8-6.5,27.7c0.1,5.3,5,13.2-6,13.9c-10.6,0.7-7.2-7.5-8-13C282.2,1665.7,282.4,1663.5,282.4,1662.5z"/>
		<path class="st1" d="M2883.9,1524.1c-3.6,1-4.9-1.8-6.4-4c-2.3-3.3-2.4-6.8,0.9-9.2c15.4-11.1,24.1-26.6,29.5-44.4
			c1.2-4,4.7-4.7,8.4-4.4c3.1,0.2,4.6,1.9,5.4,5C2925.1,1480,2896.5,1523.3,2883.9,1524.1z"/>
		<path class="st1" d="M2859.4,1340c-0.6,6-3,8.8-7.9,9.5c-15.8,2.2-25.5,13.2-35.4,24.1c-3.4,3.7-6.6,10-13.5,4.6
			c-7.3-5.7-1.5-9.9,1.8-13.7c11.8-13.8,23.8-27.6,43.9-28.8C2852.9,1335.3,2858.3,1334.4,2859.4,1340z"/>
		<path class="st1" d="M2896,1360.5c-0.3,3.2-30.9,30.2-33.4,29.7c-5.1-1-10.4-3.1-6.2-9.4c7.4-11,16.7-20.5,28.3-27
			C2890.9,1350.3,2895,1354.4,2896,1360.5z"/>
		<path class="st1" d="M2829.4,1402.9c5.8,0.5,12.7-1.7,11.9,7.3c-0.9,9.8-9.6,8-15.7,9.4c-5.1,1.1-9.7-0.4-9.9-6.9
			C2815.5,1402,2823.5,1403.5,2829.4,1402.9z"/>
		<path class="st1" d="M2584.8,1600.8c0,7.1-1.5,11.7-8.1,11c-7.5-0.8-7.9-6.7-7.7-12.6c0.1-5.4,1.9-10.5,8.2-9.5
			C2583.7,1590.7,2585.9,1595.9,2584.8,1600.8z"/>
		<path class="st1" d="M1596.3,1607.4c-0.2,17.9-17.9,29-33.7,19.9c-9.8-5.7-18.6-10-30.6-9.8c-13.5,0.2-21.5-15-14.8-27.3
			c9.2-17,25.7-20.6,43.1-18.3C1578.6,1574.3,1596.5,1593.1,1596.3,1607.4z"/>
		<path class="st1" d="M1731.6,1421.5c-0.3,8-3.7,14.8-8.4,21.1c-16.7,22.1-39.4,35.3-65.2,43.6c-7.7,2.5-15.6,1.5-21.1-5.3
			c-4.9-6-5.8-14.4-1.6-19.7c19.6-24.4,38.1-50.8,69.9-60.9C1719.5,1395.6,1731.9,1406.6,1731.6,1421.5z M1648.6,1470.8
			c27.1-5.2,49.5-17.2,64.9-40.5c2.6-3.9,6.4-8.8,2.2-13.2c-4.6-4.8-10.8-2.6-15.6,0.3C1678.4,1430.6,1663,1450,1648.6,1470.8z"/>
		<path class="st1" d="M1569.4,1475.7c-9.1-0.8-14.4-5.6-9.3-17.5c7.2-16.5,21-26.2,36.7-31.9c13.4-4.9,16.9,5.3,15.7,16.6
			C1610.8,1458.7,1588.9,1476.1,1569.4,1475.7z"/>
		<path class="st1" d="M1781.8,1439.9c-0.2,7.3-5.1,13.3-13.3,17.3c-8.6,4.1-16.6,10-27,6.7c-0.6-0.2-1.2-0.7-1.7-1.1
			c-5-3.9-4-8.7-1.1-12.9c8.4-12.2,18.4-22.9,34.2-23.8C1779.6,1425.7,1781.3,1432.1,1781.8,1439.9z"/>
		<path class="st1" d="M1784.6,1588.2c-6.8,1.1-12.1-0.4-12.4-9.1c-0.2-7.9,23.1-28.3,33.1-28.5c7.4-0.2,12.1,3.9,12.8,10.9
			C1819.2,1572.6,1799.4,1588.3,1784.6,1588.2z"/>
		<path class="st1" d="M1815.1,1463.4c0.3,10.2-21.5,34.8-30.6,36c-8.5,1.1-12.8-4.7-11.4-11c3.6-15.6,14.2-27.2,28.2-34.1
			C1808.4,1450.7,1814.5,1455.8,1815.1,1463.4z"/>
		<path class="st1" d="M1813.1,1515.5c-3,13.6-13.6,19.8-26.1,22.8c-6.4,1.6-12.7-0.8-14.1-8.6c-1.2-6.5,18.9-25.2,27.3-25.8
			C1808,1503.4,1811.4,1508.1,1813.1,1515.5z"/>
		<path class="st1" d="M1511.8,1493.2c4.9,2.7,10.1,5,6.6,11.2c-5.9,10.5-9.6,21.6-11.1,33.5c-0.6,4.5-4.5,4.7-8,4.6
			c-3.4-0.1-4.8-2.3-5-5.4c-1.1-15.3,3.7-28.9,12.8-41C1508.2,1494.7,1510.4,1494.1,1511.8,1493.2z"/>
		<path class="st1" d="M700.5,1513.2c-22.5,0.3-30.1-10.9-19.3-30.1c10-17.9,24-32.6,41.9-42.7c10.8-6.1,22.9-7.4,32.9,1.9
			c9.7,9,7.7,20,3.2,30.9C749.5,1496.6,725.7,1512.9,700.5,1513.2z M690.3,1498.4c27.7,0.5,47.1-10.2,54.7-29.3
			c1.9-4.8,6-10.3,0.9-15.4c-5.4-5.5-11.7-3.6-17,0.1C713,1465,698.7,1477.8,690.3,1498.4z"/>
		<path class="st1" d="M720.6,1616.1c-1.2,5.9,3.1,13.8-6.1,13.8c-12.3,0.1-7.2-11.1-9.3-17.3c-1.9-5.3-2-11.9,6.7-11.4
			C723.1,1601.8,718,1611.6,720.6,1616.1z"/>
		<path class="st1" d="M640.2,1529.1c-0.8,6.5-0.9,13-10,12.7c-7.5-0.3-7.2-5.1-5.9-10c1.5-6-1.2-15.2,9.7-14.9
			C643.2,1517.2,639.1,1524.7,640.2,1529.1z"/>
		<path class="st1" d="M724.1,1413.3c-5.9,5-7.9,14.8-17.6,15.5c-4.8,0.4-8.4-2.1-6-7.6c3.3-7.7,7.1-15.9,16.5-17.2
			C721.9,1403.3,722.7,1408.8,724.1,1413.3z"/>
		<path class="st1" d="M697.6,1566.7c3.4-5.3-3-15.4,8.5-14.1c7.9,0.9,6.9,7.2,6.2,12.9c-0.7,6,1.2,14.2-8.4,13.6
			C695,1578.7,700.6,1570.3,697.6,1566.7z"/>
		<path class="st1" d="M841.2,1748.1c-21.4-0.1-29.8-11.9-20.9-31.1c16.6-35.8,47.4-56.4,82.8-69.1c22.1-7.9,38.7,9.3,32.6,30.4
			C926.3,1710.6,875.4,1748.2,841.2,1748.1z M841.9,1733.8c25.1,0.6,72.2-34,79.4-58.5c3-10-1.1-14.5-11.4-14.1
			c-20.1,0.8-70,41.1-76.4,61.1C830.7,1731.1,833.6,1734,841.9,1733.8z"/>
	</g>
</g>
</svg>
