<?xml version="1.0" encoding="utf-8"?>
<!-- Generator: Adobe Illustrator 23.0.0, SVG Export Plug-In . SVG Version: 6.00 Build 0)  -->
<svg version="1.0" xmlns="http://www.w3.org/2000/svg" xmlns:xlink="http://www.w3.org/1999/xlink" x="0px" y="0px"
	 viewBox="0 0 3000 3000" style="enable-background:new 0 0 3000 3000;" xml:space="preserve">
<style type="text/css">
	.st0{stroke:#000000;stroke-width:10;stroke-miterlimit:10;}
</style>
<g id="Layer_1">
</g>
<g id="Layer_2">
	<g>
		<path class="st0" d="M437,969.7c13-17.4,26.3-32.6,42-45.5c71.1-58.5,171.3-51.1,225.8,14.5c5.4,6.4,9.4,6.9,16.4,3.8
			c88.4-39.8,182.7-51.3,278-56.9c61.8-3.6,123.6-6.7,185.5-4c44.4,1.9,87.2,11.3,127,32.1c68.3,35.8,98.5,95.6,105.3,169.3
			c6.4,68.8,3.4,137.9,3.5,206.9c0.1,70.8,0.3,141.7-1,212.5c-1.5,81.6-21.4,155.7-92.9,206.5c106.4,53.4,87.6,239.9,7.3,305.8
			c-50.9,41.8-125.5,49.3-180.3,11.8c-5.9-4-11.5-5.3-18.2-5.3c-132.2,0.5-264.3,0.8-396.5,1.2c-6.5,0-12.8-0.5-16.8,6.9
			c-14.2,25.8-38.2,37.1-65.8,40.4c-38,4.6-76.1,3.9-113.3-6.6c-34.2-9.6-59.6-31.4-77.9-61.1c-6.4,1.8-6.6,7.4-8.8,11.3
			c-29.1,53.8-84.7,79-144.7,65.6c-6.7-1.5-12.5-3.6-20,1.4c-35.2,23.6-70.2,18.2-103.1-4.8c-36.3-25.3-54.9-62.6-61.7-104.9
			c-12.7-79.7-15.8-159.8-2.4-239.8c2.9-17.6,8.2-34.9,16.6-50.7c4.7-8.9,3.3-14.8-3.5-21.7c-46-47.4-52.3-92.1-21.4-152
			c3.2-6.3,2.4-9.2-2.8-13c-16.3-12.1-23.8-29.1-26.2-48.8c-4.1-34.4-7.2-68.8,6.9-101.9c2.5-6-0.2-10.2-3.1-14.8
			c-23-36.8-29-77.8-27.9-119.9c1.3-52.9,3-106,7.2-158.7c8.7-109.8,106.3-135.6,176.4-100.3c12.4,6.2,20.1,6.8,32.4-2.3
			C330.6,908.6,400.1,918.9,437,969.7z M985.7,1460.4c3.4,0,6.8-0.1,10.3,0c48.3,1.1,82.4,24.1,102.6,67.5
			c12.2,26.4,15.8,54.7,14.1,83.6c-2.6,45-11.3,88.2-41.4,126.7c30,2.7,57.2,1.5,84.3,0.4c53.2-2.1,103.6-15.5,149.2-43.2
			c63.6-38.7,86.5-100.3,90.6-170.7c5.5-94.6,2.1-189.3,2.5-284c0-5.1,2.8-12-2.5-14.8c-5.2-2.7-9.4,3.5-13.8,6.1
			c-57.4,34.8-119.3,55.5-186.4,61.2c-29.4,2.5-58.2,1.3-86.9-5.6c-7.5-1.8-68.4,36.1-70.3,43.9c-3.4,13.6-6.5,27.3-10.4,43.5
			c6-6.9,10.2-11.9,14.5-16.7c25.9-28.6,58.1-42.7,96.7-41.6c5.3,0.1,14.6-3.4,13.2,8.4c-1,8-2.1,14.3-13.5,14
			c-39.6-0.8-69.3,17.4-91.3,49.8C1029.8,1414.8,1012.2,1440.3,985.7,1460.4z M618.5,2049.6c12.6,1.2,27.4-0.5,42-3.6
			c18-3.9,33.7-11.6,42.4-29.4c11.2-23.1,3.9-40.9-20.2-48.9c-10.2-3.4-20.6-5.9-30.6-9.6c-24.7-9.1-38-25.4-37.3-44.7
			c0.8-22,17.2-40,42.4-46.8c18.2-4.9,36.7-3.2,55-1.7c102.7,8.2,204.5,2.6,305.6-17.2c47.2-9.3,94-21,142.4-22.7
			c27.1-0.9,53.9,1,76.5,18.5c19.1,14.7,27.3,34.8,22.5,58.3c-4.4,21.8-20.8,32.5-41.7,35.9c-15.8,2.5-32,2.8-47.8,5.3
			c-18,2.8-25.5,13-24.1,31.2c1.4,18.7,14,29.7,28.2,38.9c38.3,24.6,96.5,21.4,136-9.4c59.8-46.6,74-110.9,65.4-182.3
			c-4.6-37.7-19.9-69.7-56-87.9c-11.9-6-23.2-7.4-35.7-1c-15.9,8.2-33,13.3-50.4,17.6c-57.9,14-116.8,14-175.8,11.8
			c-5.8-0.2-11-0.8-16.9,2.6c-39.4,22.5-84.1,31-126.1,46.6c-13.1,4.9-28,6.1-42.2,6.3c-56.6,0.7-113.1,0.9-169.7,0.1
			c-45.8-0.7-90.2-8.5-128.3-36.6c-6.6-4.9-11.4-3.7-17.6-0.1c-37.4,21.3-65.9,50.7-81.9,91c-29.4,74.2,13,157.3,88.5,172.9
			C580.3,2048.4,598.2,2050,618.5,2049.6z M1396.9,1138.4c-0.5,0-0.9,0-1.4,0c0-13.7,0.8-27.4-0.1-41
			c-4.8-75-32.3-135.9-105.2-168.8c-30.8-13.9-63.6-18.2-96.5-23.6c-29.6-4.8-53.8,3.3-76.9,19.6c-75.6,53.4-107.9,126.4-95.7,217.8
			c11.9,89.1,65.6,132.2,155.5,129c63.7-2.2,123.5-18.6,178.2-50.6c53.6-31.3,43-17.2,42.1-75.4
			C1396.8,1143.2,1396.9,1140.8,1396.9,1138.4z M1101.8,906.6c-4-1.2-5.5-2.2-7-2.1c-86.2,3.3-172.5,5.3-257.2,24.2
			c-91.7,20.5-175.9,56-239.5,128.4c-57,65-80.9,140.5-62.6,226.6c7.1,33.7,8.1,33.5,41.7,33c6-0.1,11.9-0.6,17.8-0.2
			c10.2,0.8,12.9-2.6,11.8-13.3c-4.6-44.5,7.8-84.9,33.7-120.9c35.1-48.8,84.7-75.4,141.6-89.8c61.6-15.6,123.9-13,186.2-5.5
			c26.6,3.2,26.3,3.7,30.9-22c7.3-40.6,23.9-76.9,49.7-109.2C1063.8,937.3,1081.6,922,1101.8,906.6z M905.6,1489.2
			c-4.3,0.8-7.2,1.5-10.1,1.8c-46.4,5-91.7,3.4-131.7-25.1c-37.2-26.5-59.5-62.1-66.1-107.7c-1.2-8.4,2.7-20.9-14.6-20.4
			c-49.9,1.4-99.9,1.4-149.9,1.5c-8.1,0-13.2,3.1-17.9,9.3c-39.5,52.5-55.7,110.9-45,176.2c1.8,10.7,5.5,20.7,12.8,29
			c10.4,11.7,23.5,16,36.5,6.8c32.2-22.7,62.4-16.1,92.8,3.2c24.1,15.2,49,28.6,77,36.3c53.1,14.6,107,12.5,161.1,10.6
			c13.8-0.5,17.9-4.2,14.1-17.8c-1.8-6.6-1-14.2-0.3-21.3c2.9-26.7,3.1-26.4-23.5-24.1c-61.4,5.3-120-1-170.2-41.9
			c-7.7-6.2-17.4-10.2-26.6-14.2c-29.8-13.1-58.5-10.6-83.4,10.8c-9.9,8.5-14.4,2.7-20.4-2.9c-9-8.5,1.8-11,5.4-14.5
			c10.9-10.5,24.4-16.7,39-20.7c39.4-10.8,73.1,3.5,103.4,26c29.9,22.1,62.5,33.7,99.1,35c17.8,0.6,35.7-0.8,53.5-0.1
			C868.8,1525.9,891.5,1517.3,905.6,1489.2z M229.2,1485.6c0-0.1,0-0.2,0-0.3c18.4,0,36.9,0.8,55.3-0.2
			c45.9-2.3,90.9-9.9,134.2-26.1c18.7-7,33.9-15.2,35.3-38.6c0.6-10.3,5.9-20.5,10.5-30.1c4-8.4,4.4-12.5-5.5-17.5
			c-36.1-18-55.3-47.9-55.8-88.5c-0.1-9.8-4.4-12-12.5-13.1c-68-9.5-134.2-2.5-197.8,23.6c-78.7,32.3-93.5,58-83.8,142.6
			c3.6,31.8,17.5,46.2,49.1,47.9C181.7,1486.6,205.5,1485.6,229.2,1485.6z M298.2,1871.3c-0.2,0-0.5,0-0.7,0
			c0-51.1-0.2-102.2,0.2-153.4c0.1-10.5-2.1-14.7-14-13.3c-37.4,4.3-73.6-1.4-107.4-18.2c-9.9-4.9-13.1-1.9-16.7,6.8
			c-13.4,32.4-18.7,66.4-19.5,100.9c-1.5,62.4-2.8,125,12.2,186.1c8.8,35.7,26.8,66,60.8,84c33.4,17.7,86.1,8.8,85.3-50.3
			C297.7,1966.4,298.2,1918.9,298.2,1871.3z M269.1,1682.8c17.9,0.6,39.6-2.9,60.8-8.9c53.7-15.2,99.2-42.5,130-90.7
			c2.9-4.6,9-9.5,4.3-15.9c-18.5-25.1-20-54.1-19.6-83.4c0.2-11.4-4.8-9.1-11.9-6.3c-88.6,35.1-181.3,34.7-274.2,30.5
			c-12.1-0.5-18.6,2.7-24.7,12.1c-25.5,40.2-16,92.6,23.5,126.7C188.2,1673.6,224.8,1683.2,269.1,1682.8z M110.8,1316.7
			c37.7-32.2,81.7-49.2,128.3-60.5c9.6-2.3,11.5-7.4,11.4-16.4c-1.3-64.2-2.1-128.4-3.1-192.6c-0.3-20.8-1.6-41.6,3.5-62.1
			c1.5-5.9-0.7-8.7-5.4-11.4c-62.6-36.6-133.3-11-148.1,51.5c-3.3,14-5.4,27.9-5.9,42.2c-1.7,46.9-3.8,93.8-5,140.7
			C85.5,1246,89.6,1282.8,110.8,1316.7z M1090.4,1606.2c-0.8-11.3-1-22.6-2.5-33.7c-8.8-65.3-58-100.4-120.2-86.2
			c-53,12-99.3,69.5-73.1,126.1c11.6,25.1,32.5,46,60.3,47.5c28.2,1.6,50-10.7,62.4-36c5.4-11,11.8-12.6,20.8-8.3
			c10.7,5.1,2.6,12.6,0.1,17.9c-26.9,58.3-108.3,66.8-149.9,14.3c-11-13.9-21.5-16.4-37.2-15.6c-14.5,0.7-17.5,6.4-16.8,19.5
			c2.4,47.7,40.8,96.7,87.9,110.8c48.6,14.5,108.6-6.1,136.7-46.3C1082.1,1683.1,1088.4,1645.5,1090.4,1606.2z M900.9,1103.6
			c-23.9-1.3-47.7,0.5-71.3,3.4c-59.9,7.4-114.9,26.4-157,72.1c-31.2,33.8-46.8,73.7-43.3,120.6c1,13.4,6.5,17,19.1,16
			c16-1.3,32.2-2,48.2-0.7c25.6,2.1,39.5-4.6,52.5-31.2c28.3-57.9,79.8-85,144.9-80.7c61.4,4,111.8,26.9,137.5,87.8
			c1.8,4.3,2,12.2,10.2,7.7c11.4-6.3,25.9-11.4,30.9-22.7c2.9-6.5-12.5-11.4-19-17.8c-10.2-10.2-19.3-20.9-26.9-33.1
			c-19-30.5-28-64.2-30.6-99.6c-0.7-9.9-4.2-13.4-13.5-14.2C955.4,1108.8,928.1,1106.1,900.9,1103.6z M463.8,1810.1
			c0.7-58.4-11.9-101-36.7-140.4c-5.5-8.7-9.8-11.2-19.5-4.9c-22,14.3-46.1,25-71.7,30.8c-13.1,2.9-16.4,8.7-16.3,21.5
			c0.9,91.1,1.1,182.1,1.2,273.2c0,19.5,1.7,39.4-5.2,58.3c-2.4,6.5,0.3,7.6,5.9,9.3c61.4,18.7,134.1-44,123.9-107.3
			c-4.4-27.5-3.8-54.5,5.8-80.9C459.7,1846.6,464.1,1822.8,463.8,1810.1z M1125.7,1995.8c-9.2-47.3,4.6-69.8,46.6-76.8
			c14.7-2.4,29.8-0.1,44.3-4.3c18.8-5.4,25.8-18.6,18.3-36.7c-7.8-18.6-23.8-25.8-42.4-28.2c-55-7-107.4,8.9-160.5,18.3
			c-7.2,1.3-7.8,6-7.3,11.8c4.6,53.1-40.3,69.4-79.4,60.4c-6.3-1.5-12.4-3.3-19,0.4c-21.1,11.8-42.3,8.7-63.3-0.7
			c-6.3-2.8-11.9-7.2-20-3.1c-17.4,8.8-35.8,6.5-54.2,2.6c-22.7-4.8-31.9-14.4-32.6-37.4c-0.3-9.3-3.2-12.3-12.3-12.6
			c-20.2-0.7-40.4-2.3-60.6-3.5c-10.4-0.6-20.4,1.3-29.5,5.9c-8.7,4.4-15.4,11.1-15.8,22c-0.4,11,7.1,16.2,15.4,19.6
			c12.1,4.9,24.7,8.4,37.1,12.4c20,6.5,35.7,18.3,38.7,39.9c1.8,12.9,7.2,14.3,18.2,14.2c120.3-1,240.6-1.5,360.9-2.3
			C1114.1,1997.9,1120.2,1999.2,1125.7,1995.8z M269.9,1121.7c1.2,0,2.4,0,3.6,0c0,38.1,0.2,76.2-0.2,114.2
			c-0.1,9.8,1.5,13.2,12.8,11.6c31.3-4.3,63.2-5.4,94.3-0.1c20.2,3.4,33,1.5,42.2-18.8c4-8.8,5.7-13.3-0.5-21.3
			c-5.3-6.8-8.7-15.6-11-24.1c-15.4-55.9-15.8-111.6,3.4-166.8c9.7-27.9-0.7-51.8-28.3-62.9c-23.8-9.6-47.9-7.2-71.6,0.3
			c-31.3,9.8-44.3,27.6-44.6,60.7C269.7,1050.2,269.9,1086,269.9,1121.7z M422.8,1102.3c-0.2,28.3,3.1,56.1,12.9,82.6
			c8.1,22.1,25.1,27.9,58.3,25.7c22.1-1.4,12.5-19.1,17.3-29.3c2.2-4.7,2.3-10.4,3.6-15.6c23.6-90.8,81.6-154.4,161-200.2
			c14.2-8.2,12.4-12.9,2.4-22.5c-45.9-44.5-122.8-47.9-177.3-7C445.6,977.6,424.1,1035.3,422.8,1102.3z M914.7,1787.5
			c-1.1-1.8-1.4-3.4-2.3-3.7c-45.3-16.5-75.6-48-92.6-92.8c-1-2.7-2.8-7-4.7-7.2c-18.2-2.1-38.5-9.4-54.2-3.9
			c-27.8,9.8-52.1,6.2-77.5-3.9c-3.7-1.5-7-4.7-11.7-2.7c-20.6,9.2-40.8,4.4-61-1.5c-4-1.2-8.2-2.7-11.9,0.4
			c-10.1,8.4-22.4,7.8-34.1,7.1c-16.4-1-18.5,6.5-16.8,20.5c3.8,31,24.1,50.6,46.7,67.4c22.4,16.6,49.5,23.1,77,25.4
			c63.5,5.1,127.3,1.5,190.9,2.5C880,1795.3,897.6,1793.6,914.7,1787.5z M761.3,1311.1c-14.7,55.2,8,105.7,53.9,119.6
			c65.1,19.8,122.2,3.6,171-42.4c19.3-18.2,29.9-41.1,28.4-68.7c-0.7-12.2-3.9-13.6-14.7-7.8c-42.5,22.8-88.2,30.7-136.2,27.9
			C827.4,1337.6,793.8,1326.7,761.3,1311.1z M881.7,1317.5c38.4-0.1,74.8-9.5,106.8-24.8c15.4-7.3,13.3-13.5,4.1-24.2
			c-53.7-62.1-168.2-56.9-215.4,9.8c-6.3,8.9-4.7,12.8,4.5,17C813.4,1309.9,846.6,1317.8,881.7,1317.5z M426.3,1279.5
			c-0.1,36,15,57.6,41.2,72.5c8.1,4.6,14.2,5.9,20.4-4.1c8.2-13.3,24.5-23,30.1-34.8c5.6-11.6-5.4-31.2-9-47.3
			c-0.4-1.7-0.4-3.5-0.7-5.3c-3.4-26.2-3.4-26.2-29.3-26.1c-3.5,0-7.4,0.4-10.6-0.8c-18.5-6.8-27.3,3.7-34.2,18.4
			C429.4,1262.4,426.2,1273,426.3,1279.5z M488.5,1804.9c18-17.3,34.8-32.2,54.7-42.8c6.4-3.4,4.4-7.1,1.4-11.3
			c-13.4-19-19.9-40.4-20.7-63.5c-0.2-5.9-2.6-7.8-8.2-9.2c-24.7-6-33.5-24.5-35.1-47.7c-0.7-10.3-0.1-20.7-0.1-35.5
			c-11.8,16.3-20.6,29.1-32.5,38.6c-9.3,7.5-9.9,13.1-2.9,23c18.3,26,29.6,55.2,36.4,86.4C485.7,1762.4,486.3,1782.4,488.5,1804.9z
			 M586.5,1614.3c0-9.5-0.2-19.1,0.1-28.6c0.2-6.6-1.6-11.3-8.3-14.1c-10.8-4.5-66.1,10-72.5,19.6c-0.3,0.5-0.3,1.1-0.6,1.6
			c-15.9,34,2.4,64,39,64C586.3,1657,586.3,1657,586.5,1614.3z M1004.7,1404.9c-44.4,38.6-94,60-154.2,55.9
			c-68.9-4.7-109.4-41.7-116.5-110.8c-0.6-5.8,0.4-13.1-8.7-12.1c-9.8,1.1-5.5,9-5.2,14.1c3.1,52.2,48.3,104.6,99.8,114.7
			c56.9,11,109.9,0.8,157.8-32.6C988.8,1426.4,999,1417.8,1004.7,1404.9z M609.4,1590.7c0,17.1,0,32.4,0,47.8c0,4.3,0,8.6,5,10.3
			c14.2,4.7,28.7,9.3,43.6,4.8c12.1-3.6,14.2-14.7,15.7-25.6c1.5-10.6-7.2-10.6-13.2-13.4C644.4,1607,628.3,1599.5,609.4,1590.7z
			 M895.8,1924.9c21,0.3,31.8-10.4,30.8-29.9c-0.4-6.6-2.5-9.9-9.5-9.3c-14.7,1.3-29.5,2.5-44.2,3.6c-4.4,0.3-5.3,2.8-6.2,6.8
			C862.4,1915.7,871.3,1924.6,895.8,1924.9z M951.2,1905.5c1.2,1.3-11,10.8,2.6,13.1c12,2,24,2,34.5-4.2
			c12.8-7.5,16.9-21.3,13.1-33.9c-3.7-12.3-14.9-1.4-22.6-2.3c-2.9-0.3-5.9,0.5-8.8,0.8C956.4,1880.4,942.5,1881.7,951.2,1905.5z
			 M723.2,1663.7c14.4,0.7,23.8,0,24.2-13.6c0.4-11.3-1.8-19.5-16.3-18.8c-8.1,0.4-16.4-2-24.6-3.2c-3.4-0.5-6.9-2.1-9.8,1.3
			c-8.5,10.2-3.2,27.4,9.8,30.9C713.4,1662.1,720.4,1663.1,723.2,1663.7z M813,1891.5c0,0.1,0,0.2,0,0.4c-7.7,0-15.3,0-23,0
			c-4.9,0-9.7,0-10.8,6.3c-1.1,6.1-1,11.7,4.6,16c8.5,6.5,42.8,7.4,51.3,0.9c6-4.5,10.1-11,8.5-18.3c-2.1-9.3-10.6-4.6-16.4-5.2
			C822.5,1891.1,817.7,1891.5,813,1891.5z M792.3,1635c-7.3,2.5-16.4-4-21.3,4.2c-2,3.4-1.8,10.7,0.6,13.6c5.7,7,15.4,4.7,23.3,6.1
			c17.2,3.1,20.6-1.1,16.3-17.5C807.8,1628.8,797.9,1638.9,792.3,1635z"/>
		<path class="st0" d="M1929.5,1022.7c78.4-88.2,183-117.1,290.3-141.1c86.3-19.3,173.3-21.3,261-15.6
			c57.6,3.7,115.5,4.7,172.5,13.5c125.5,19.4,203.7,97.7,253.7,209.1c14.8,32.9,22,67.8,22.2,104c0.4,98.9,1.7,198.2-26.4,294.2
			c-25.6,87.7-59.8,172-119.3,243.3c-7.3,8.7-3,13.1,1.4,19.7c34.3,51.9,47.2,108.7,36.9,170.2c-16.1,95.5-79.7,151.5-176.4,154.9
			c-44,1.6-88.1,1.7-132.2,1.9c-132.2,0.6-264.4,1.2-396.6,1.2c-30.3,0-60.7-2.1-90.7-7.7c-53.9-10.1-102.4-30.9-139.6-74.4
			c-31,32.3-67.9,52.9-111.2,61.2c-94.5,18-187.8-26.5-240.3-114.3c-37.6-62.8-45.8-132.2-42-203.3c6.6-124.8,15.2-249.5,23.1-374.2
			c0.4-6.2-0.6-11.8-2.9-17.4c-11.9-29.7-8.5-58.6,5.9-86.1c4.8-9.1,4.4-15.4-0.3-24.3c-10.1-19.3-13.5-40.6-11.8-62.3
			c2.3-30.3,4.5-60.6,1.4-91c-4.8-46.8,9.9-84.8,50.9-109.8c42.4-25.9,85-21.3,127,2c1.6,0.9,3.3,1.7,4.5,2.9
			c10.4,10.7,16.5,7.5,25.2-4c44-58.5,118.4-63.7,171.4-13.2C1904.7,978.8,1917.5,998.8,1929.5,1022.7z M2353.1,1780.1
			c6.5,4.2,12.5,2.8,18.2,2.9c52.7,1.3,105.4,2,158,3.8c12.5,0.4,19.2-3.8,25.2-14.6c40.8-73.6,64.3-152,67.6-236.2
			c0.4-10.1,1.6-16.9,14.9-15.8c14,1.2,8.6,10.8,8.3,16.9c-4.2,81.4-24.5,158.4-62.5,230.7c-2.8,5.4-8.3,10.2-6.8,17.3
			c16.8,5,26.2-1.6,34-16.7c37.6-72.4,59.6-148.8,62.6-230.5c0.3-7.2-3.5-17.2,11.1-17.2c14.6,0,12.5,8.8,12,17.7
			c-3.7,78.9-22.5,154-57.6,224.8c-2.8,5.6-7.5,10.6-7,18.4c4.9-0.2,9.7,0.1,14.3-0.8c54.1-10.3,100.1-34.8,132.9-79.9
			c48.7-67.2,80.9-142.6,103.4-222c24.9-88,24.5-178.8,25.6-269.3c0.5-42.3-6.6-83.1-24.8-121.3c-44.8-93.8-111.4-162.6-217.2-184
			c-50.9-10.3-103-10.2-154.6-14.2c-100.1-7.9-199.6-7.8-298.1,16.1c-69.6,16.9-139,33.8-199.5,74.1
			c-109.6,73-152,181.8-159.8,307.7c-6.6,106.4,15.9,209.5,38.1,312.5c9.5,43.9,25.3,85.4,55.3,120.3c8.7,10.1,14,10.2,23.3,0.2
			c52.7-56.6,85.4-122.6,95.2-199.6c1.2-9.5,2.6-17.2,15.6-15.1c13.4,2.2,8,11.6,7.2,17.9c-8.6,65-32.1,124.1-71.7,176.5
			c-11.6,15.4-24.7,29.7-37.1,44.6c26.8,18.6,28.9,18.5,49-4c22.8-25.6,39.6-54.9,52.8-86.4c16.7-39.7,25.9-81.5,35.6-123.1
			c1.9-8.2,3.9-9.8,12.7-8.9c17.6,1.8,10,12.6,8.3,20.3c-18.4,81-40.6,160.4-100.4,222.1c3.5,5.6,8,5,12,5.6
			c69.8,10.9,140.3,5.2,210.3,9.9c9.5,0.6,13.8-5.6,18.3-11.9c16.4-23.2,26.7-49.1,32.4-76.7c9.7-47.1,18.9-94.3,26.8-141.8
			c2.5-14.9,9.8-11.7,18.4-8.7c10.9,3.8,4.7,12.1,3.4,17.9c-16,74.4-18.4,152.4-59.2,220.1c19.2,5.7,29-0.7,37-17.8
			c30.1-64.7,51.9-131.6,59.6-202.7c1.1-10.2,4.3-14.9,15.4-13.7c13.3,1.5,8.4,9.9,7.6,17c-4.9,40.3-13.8,79.6-26,118.3
			C2382.3,1715.4,2367.9,1747.9,2353.1,1780.1z M1538.3,1381.7c-1.1,9.9-2.1,16.9-2.6,24c-4.9,74.2-10.5,148.4-14.3,222.7
			c-3.5,68.8-11.8,137.8-0.7,206.7c12.2,75.7,47.9,136.4,114.6,176.4c72.5,43.6,166.9,33.9,225.2-21.9c8.8-8.4,11.9-14.8,5.2-27.1
			c-15.7-28.8-22.7-60.2-18.4-93c6.9-52.6,34-91.6,80.8-117c3.8-2.1,14.4-2.2,6.1-11.6c-8.2-9.2-16.2-18.6-25.3-29.1
			c-11.4,25.1-23.5,48.1-41.3,67.5c-51.3,55.8-123.2,59.5-175.1,8.7c-18.6-18.2-31.3-40.1-40.1-64.6
			c-11.9-33.2-13.7-67.9-13.1-102.1c1.2-69,5.1-138,9-206.9c0.8-15-3.9-17.8-17.6-17.6C1600.1,1397.3,1568.6,1400.6,1538.3,1381.7z
			 M2535.9,2053.6c42.8-0.5,85.7,1.5,128.4-3.6c39.9-4.8,75-19.4,100.2-51.9c53.5-69.1,48-167.3,1.7-235.9
			c-4.8-7.1-8.3-7.7-15.2-2.3c-18.9,14.7-40,25.6-62.7,33.3c-49.4,16.7-100.6,17.4-151.8,17.1c-26.8-0.2-53.5-1.8-80.3-2.4
			c-13.2-0.3-24.1,11.6-21.9,25.7c1.8,11.6,12.3,5.2,18.5,5.3c23.8,0.4,47.6-0.1,71.4-1.2c10.1-0.5,11.8,3.6,12.1,12.3
			c0.4,9.1-3.1,11-11.4,10.9c-16.7-0.3-33.3,0.2-50,0.7c-48.4,1.4-47.9,1.5-50.2,49.2c-0.6,12.7,4,15,14.9,14.4
			c24.4-1.3,48.8-2.4,73.2-2.3c6.7,0,18.3-8.6,19.6,8.6c1.2,17.3-10.4,14-19.7,14.4c-24.4,0.9-48.8,1.8-73.2,1.7
			c-12,0-17.1,3.9-16.5,16.4c1.1,26.2,1.6,52.4,1.5,78.5c-0.1,10.4,5,11.3,13.2,11.2C2470.4,2053.4,2503.1,2053.6,2535.9,2053.6z
			 M2154.9,2055.2c26.2,0,52.4,0.1,78.5,0c22.8-0.1,23.2-0.2,20.6-22.9c-1.9-16.9,6.6-40.6-4.7-49c-11.9-8.8-34.2-3.6-52-4.4
			c-31.7-1.3-43.6-15.7-36.6-46c2-8.6,1.4-14.8-2.8-23.1c-16.6-33,2.7-66.7,39.2-69.3c20.7-1.5,41.8-2.8,62.4-0.6
			c17.1,1.8,23.8-4.2,29.3-19.4c5.3-14.4,2.2-16.7-11.9-16.8c-55.9-0.6-111.8-2-167.7-3.6c-49.1-1.5-97.4-7-140.9-32.7
			c-6.1-3.6-11.2-2.3-16.8,0c-45.5,18.6-74.3,51.7-80.5,100.6c-9.4,74.2,38.3,142.6,112.9,168
			C2039.7,2054.8,2097.4,2054.4,2154.9,2055.2z M1751.9,1396.1c0,0.2,0,0.3,0,0.5c-22.6,0-45.2,0.4-67.8-0.2
			c-10-0.2-13.6,3.2-13.6,13.2c0.1,15.4-1.4,30.9-1.8,46.3c-2,69.5-9,138.9-4.7,208.6c2.4,38.9,14,74.6,41.3,103.8
			c33.1,35.2,76.2,42.4,116.3,19c30.2-17.5,47.7-45.3,62.3-75.9c8-16.9,11.8-32.5,1.7-50.4c-6-10.6-8.4-23.4-11.5-35.5
			c-18.2-70.8-31.2-142.6-39.9-215.1c-1.3-10.9-4.8-15.2-16.5-14.6C1795.9,1396.8,1773.9,1396.1,1751.9,1396.1z M1702,1374.6
			c0-0.4,0-0.9,0-1.3c38.1,0,76.1,0.1,114.2-0.1c6.7,0,15.2,2,14.3-9.9c-3.9-54.9-0.4-109.3,11.6-163c1.6-7.4-0.4-10.7-8.5-11.5
			c-74.1-7.5-147.3-4.8-218.2,20c-31.6,11.1-57.4,30.5-74.6,60.4c-25,43.3-11.9,107.6,57.8,105.7
			C1633.1,1373.8,1667.6,1374.6,1702,1374.6z M2416,1805.5c-27.3,0-54.1,0.8-80.7-0.4c-12.4-0.5-17.7,3.7-22.3,14.7
			c-29.6,71.2-41.1,144.9-35,221.7c0.9,11.6,5.9,13.5,15.8,13.3c28.6-0.5,57.2-0.4,85.7-0.6c23.4-0.1,23.4-0.1,22.2-22.9
			C2397.5,1957,2400.9,1882.9,2416,1805.5z M1703.3,1102.8c0,7.7-0.3,15.5,0.1,23.2c2,38.8,2,38.1,40,37.6
			c15.2-0.2,19.5-3.5,18.6-20.1c-3-56.7,36.7-88.3,87.3-72.1c12.1,3.9,23.8,18.9,34.5,12.9c10.5-5.9,15.1-22,23.1-33.1
			c4.7-6.5,5.9-11.9,2-19.3c-10.7-20-22-39.4-39-54.9c-43-39.3-99.8-34.8-135.5,11.3C1708.1,1022.1,1702.1,1061.6,1703.3,1102.8z
			 M1625,980.5c-54.6-1.2-94.9,37.1-94.5,85.1c0.1,10.5,2,13.2,12.9,9.2c25.9-9.6,47.8-0.9,66.2,18c14.5,15,21.8,33.8,24.9,54.2
			c4.5,28.8,4.2,28.1,32.7,24.5c13.3-1.7,17.3-5.1,15.9-19.9c-4.3-43.8-6.8-87.8,8.5-130.4c3-8.2,0.6-13.2-6.1-17.9
			C1666,989.4,1645,980.7,1625,980.5z M1540.6,1230c17.5-17,35.1-30.6,56-37.8c15.8-5.4,18.7-14.9,16.9-29.4
			c-3.1-24.1-7.8-47.5-29.6-62.2c-24.2-16.3-50.2-3.3-51.5,25.3c-0.7,14.9-1,29.7-1.8,44.6C1529.5,1190.3,1529.9,1209.7,1540.6,1230
			z M1831.8,1090.6c-37-0.3-59.8,40.7-45.6,67.7c2.5,4.7,6.4,4.6,10.5,4.9c16.5,1.3,35.2,7.9,49.1,2.5c14.5-5.7,12.7-28.4,20.6-42.5
			c1.2-2.1,1.7-4.5,2.8-6.5c3-5.3,1.2-8.7-3.7-11.7C1852.7,1097.2,1839.5,1090.8,1831.8,1090.6z M2225.4,1862.4
			c-9.2,0.5-21.7,1.1-34.1,1.9c-14.8,1-13.4,12.6-14,22.4c-0.7,10,2,15.8,14.3,17.3c20.1,2.3,40.2,2.9,60.4,3.2
			c8,0.1,10.8-2.6,12.9-10.5c8.9-33.9,9.2-33.8-25.6-34.3C2235.7,1862.3,2232.2,1862.4,2225.4,1862.4z M2222.8,1956.5
			c0,0.2,0,0.4,0,0.5c8.3,0,16.7,0.3,25-0.1c12.9-0.5,7.6-11.1,9.1-17.6c1.9-7.9-3.6-8.4-9.5-8.6c-16-0.7-32.3-0.5-48-3.1
			c-12.6-2.1-15.4,3.6-17.4,13.6c-2.4,12.2,5.5,14.4,14.2,15.1C2205,1957,2213.9,1956.5,2222.8,1956.5z"/>
		<path class="st0" d="M1119.3,1480.7c-18.7-12.5-12.5-22.3,2.8-30.7c10.4-5.7,9.7-11.6,1.6-18.8c-6.2-5.6-10.2-10.5-0.7-18.3
			c9.2-7.6,12.9-2.6,18.2,3.6c8.4,9.8,27.1,6.2,33.2-5.7c2.4-4.7-1.4-6.4-3.5-8.5c-7.2-6.9-6-11.7,1.1-18.7
			c8.6-8.4,12.7-2.2,16.5,3.4c8.3,12.2,14.6,3.3,21.6-1.2c6.4-4.1,11.6-11.9,19.7,0.3c7.7,11.6-0.3,13.6-6.6,18.6
			c-4.2,3.3-14.9,5.7-6.4,14c6.5,6.4,8.8,22.4,24,13.4c9.5-5.6,16.2-5.6,20.4,6.5c2,5.8,1.8,9.2-4,11.1c-11.1,3.6-10,9.1-3.4,16.4
			c3.6,3.9,6.1,8.8,9.7,12.8c5.8,6.4,0.8,9.6-3.6,12.5c-4.5,2.9-9.1,9.3-14.7,1.2c-2.7-3.9-5.6-7.6-8.5-11.5
			c-9.9-13.5-30.7-12.4-39.6,1.8c-3.2,5.1,1,7.7,3,10.9c8.2,13.1,16.1,26.5,25.2,38.9c6.7,9.1,0.6,11.9-5.3,16.3
			c-7.5,5.6-10.7,2.1-14.6-4.6c-7.5-12.8-16.3-24.8-23.9-37.6c-4.9-8.2-9.7-9-16.8-3c-5.4,4.6-11.8,8.1-17.1,12.8
			c-6.6,5.7-11.1,6.5-17.2-1.5c-6.2-8.1-3.8-12.2,3.3-16.8c5.5-3.6,10.5-7.8,15.9-11.5c6.6-4.5,12.7-7.3,5.4-17.6
			c-7.6-10.6-12.7-6.4-19.5-0.8C1129.9,1472.9,1124.2,1477,1119.3,1480.7z M1212.3,1446.5c-10.5-5.3-11.8-19.5-21.6-17.3
			c-8.9,2-20.5,8.3-22.3,18.1c-1.1,5.8,6.2,17.9,15,16.1C1192.8,1461.4,1201,1453.4,1212.3,1446.5z"/>
		<path class="st0" d="M1164.7,1196.1c-24.7,0.1-50-23.2-50.1-46.1c0-22.5,25.5-46.3,50.2-46.8c19.8-0.4,41.7,26.4,41.3,50.5
			C1205.6,1177.3,1187.4,1196,1164.7,1196.1z M1182.6,1151.4c-2.5-10.8-5-23.3-19.7-24.3c-12-0.8-24.9,12.8-24.6,23.4
			c0.3,10,14.6,23.5,25.5,23C1176.7,1172.9,1182,1164.5,1182.6,1151.4z"/>
		<path class="st0" d="M1253.9,1024.2c26.7,0,47.7,20.9,47.2,47.1c-0.5,23.5-17.1,39.3-41.2,39.2c-28.5-0.1-50.6-19.7-50.1-44.5
			C1210.3,1042.7,1229.7,1024.3,1253.9,1024.2z M1277.6,1069.5c-0.4-13.1-11.2-24.2-24.1-23.3c-12.3,0.8-20.3,7.8-19.8,20.6
			c0.7,15.7,12.6,20.5,25.9,21.5C1272.1,1089.2,1277.8,1081.7,1277.6,1069.5z"/>
		<path class="st0" d="M1098.5,1034.7c-0.3-24.2,17.9-42.4,42.6-42.6c25.1-0.2,43.6,17.4,43.9,41.4c0.2,23.7-18.6,43.6-42,44.4
			C1118.5,1078.8,1098.8,1059.7,1098.5,1034.7z M1140.5,1054.9c11.6,0,19.8-6.4,21.6-18.4c1.9-13.1-6.7-20.4-18.5-21.6
			c-12-1.2-21.3,5.1-22.5,17.8C1119.8,1045.3,1127.2,1052.5,1140.5,1054.9z"/>
		<path class="st0" d="M2389.6,1376.8c-58.1-1.4-111.5-16.4-156-55.5c-65.2-57.3-66.4-146.2-3.1-205.5
			c79.5-74.4,228.4-77.6,311.3-6.6c75.1,64.3,72.2,161.6-6.7,221.6C2496.4,1360.1,2443.3,1376.9,2389.6,1376.8z M2388.8,1353.4
			c53.3-0.2,97.2-13.8,133.7-41.7c67-51.3,68-134.8,2.4-187c-75.8-60.3-198.8-58.8-273.4,3.4c-59.5,49.6-60.1,127.3-1.1,177.5
			C2290.3,1339.5,2337.3,1353.1,2388.8,1353.4z"/>
		<path class="st0" d="M2154.3,1392.5c-24.4-0.3-44.3-20.5-44-44.6c0.4-24.6,20.1-42.5,46.7-42.3c23.3,0.1,42.7,20.1,42.3,43.5
			C2198.9,1373.3,2178.8,1392.8,2154.3,1392.5z M2176.1,1348.5c-1.8-12.7-7.7-21.1-21.7-20.6c-12.6,0.5-20.1,7.7-20.4,19.9
			c-0.3,13,6.7,21.1,20.5,21.4C2168.3,1369.5,2174.3,1361.2,2176.1,1348.5z"/>
		<path class="st0" d="M2417.2,1433.7c0-25.5,18.1-44.6,42.3-44.6c24.4,0,43.8,19.6,43.8,44.4c0,24.8-19.2,44.5-43.6,44.6
			C2435.5,1478.2,2417.2,1459.2,2417.2,1433.7z M2481.1,1434.1c-1.1-13.2-8.1-21.2-21.3-21.3c-12.1-0.1-20,6.5-20.7,19.5
			c-0.7,13.7,6.7,21.6,19.8,22.2C2471.9,1455,2479.4,1447.2,2481.1,1434.1z"/>
		<path class="st0" d="M2706.9,1110.2c-0.5,24.5-20.3,43.3-45.1,42.9c-24.4-0.4-44.1-20.6-43.5-44.7c0.6-24.1,21.4-44,45.3-43.4
			C2687.7,1065.6,2707.3,1086.1,2706.9,1110.2z M2663.2,1130.7c12.4-1.4,20.8-8.5,20.6-21.5c-0.2-13-8.3-20.4-21.8-20.3
			c-13,0.1-19.7,7.6-20,19.9C2641.6,1122.2,2649.5,1129.1,2663.2,1130.7z"/>
		<path class="st0" d="M2056.5,1157.4c0.4-24.3,20.8-44.2,44.8-43.6c24,0.6,44.2,21.5,43.6,45.3c-0.6,23.8-22,44.4-45.3,43.7
			C2075.4,1202.1,2056.1,1181.9,2056.5,1157.4z M2121.7,1158.5c-1.2-13-7.5-20.7-21.3-20.9c-14.1-0.1-21.1,8.4-21,21
			c0.1,12,8.1,19.8,20.4,20.3C2113.2,1179.5,2120.3,1171.8,2121.7,1158.5z"/>
		<path class="st0" d="M2549.1,1368.4c0-24.2,18.1-43.1,41.7-43.6c25-0.5,45.1,20,44.7,45.5c-0.4,24.5-20.6,44.2-44.8,43.6
			C2566.4,1413.2,2549,1394.2,2549.1,1368.4z M2612.9,1369.5c-1.1-13.3-8.4-21.1-21.5-21.1c-12.2,0-20,7-20.4,19.7
			c-0.5,13.5,7,21.5,20.1,21.9C2604,1390.5,2611.5,1382.8,2612.9,1369.5z"/>
		<path class="st0" d="M2714.6,1258.4c0.2,24.6-19.3,44.6-43.5,44.7c-24.1,0.2-44.2-19.8-44.4-44.1c-0.2-24.3,19.5-44.5,43.7-44.7
			C2694.7,1214.2,2714.4,1233.8,2714.6,1258.4z M2649.6,1259.8c1.4,13.3,9.4,20.4,22.4,19.9c12.3-0.5,20-8.7,19.9-20.8
			c-0.1-13.1-8.2-21.1-21.5-20.9C2657,1238.2,2650.1,1246.1,2649.6,1259.8z"/>
		<path class="st0" d="M2067.2,1257.2c0.1-24.6,19.4-43.5,44.3-43.4c25,0.1,44.3,19.4,44.2,43.9c-0.2,24.1-20.6,44.2-44.7,43.9
			C2086.8,1301.3,2067.1,1281.4,2067.2,1257.2z M2132.4,1257.3c-1.3-13.3-8.6-21.3-21.8-20.9c-13.2,0.4-21.1,9.1-20.5,22
			c0.6,11.7,7.8,19.7,20.8,19.7C2124.8,1278.1,2131.2,1270.3,2132.4,1257.3z"/>
		<path class="st0" d="M2329.4,1415.4c0.1,24.5-19.5,44.4-43.7,44.5c-24.3,0.1-44-19.6-44-44.2c-0.1-24.6,19.4-44.5,43.7-44.6
			C2309.5,1371.1,2329.3,1390.9,2329.4,1415.4z M2286.2,1436.7c12.1-1.4,20.5-7.9,20.3-21.5c-0.2-13.6-8.7-20.8-21.7-20.7
			c-12.4,0.2-20,8.2-20.3,20.3C2264.1,1428.1,2272.1,1435.3,2286.2,1436.7z"/>
		<path class="st0" d="M2395.6,1117.5c40.7,2.3,79,10.9,109.4,40.5c36,35,36,83.3,0.1,118.4c-54.2,53.1-166.6,53.1-220.8,0
			c-38.3-37.5-35-91.2,8.1-125.6C2322.5,1126.8,2358.1,1119,2395.6,1117.5z M2371.4,1142.4c-20.3,1.8-46.5,10.4-68.5,29.4
			c-28.8,24.9-29.9,61.2-3.6,87.8c7.6,7.7,13,9.2,22,1c31.3-28.6,55.4-62,71.1-101.4C2399.7,1141.1,2399.2,1140.5,2371.4,1142.4z
			 M2332.4,1281.1c15.7,4.4,28.1,15.4,41.2,5.7c43-31.8,68.2-74.9,77.3-127.4c2.2-12.4-8.2-11.1-14.7-12.9c-5.9-1.7-13.1-6.5-16.8,5
			C2403.3,1201.7,2374.5,1243.9,2332.4,1281.1z M2405.8,1291.2c33.6,1.9,73.8-16.3,91.3-40.1c22.3-30.3,11.6-70.8-23.9-85.7
			C2464.7,1214.2,2441.2,1255.3,2405.8,1291.2z"/>
	</g>
</g>
</svg>
