<?xml version="1.0" encoding="utf-8"?>
<!-- Generator: Adobe Illustrator 23.0.0, SVG Export Plug-In . SVG Version: 6.00 Build 0)  -->
<svg version="1.0" xmlns="http://www.w3.org/2000/svg" xmlns:xlink="http://www.w3.org/1999/xlink" x="0px" y="0px"
	 viewBox="0 0 3000 3000" style="enable-background:new 0 0 3000 3000;" xml:space="preserve">
<style type="text/css">
	.st0{stroke:#000000;stroke-width:10;stroke-miterlimit:10;}
</style>
<g id="Layer_1">
</g>
<g id="Layer_2">
	<g>
		<path class="st0" d="M1510.6,2809.6c-63.5,48.2-131.2,83.2-205.5,104.9c-89.6,26.2-180.6,35.5-272.4,15.2
			c-77.9-17.2-137.5-59.5-166.5-137c-5.8-15.5-12.4-7-19-3.3c-55.9,31.5-112.3,62-173.8,81.7c-74.9,23.9-151.3,38.4-227.6,10.3
			c-104.3-38.5-176.9-108.5-201.2-220.9c-8.3-38.3,3.2-72.2,26.6-102.5c18.1-23.4,41.1-41.4,65-58.3
			c89.8-63.6,182.8-121.4,283.9-165.9c103.1-45.4,180.1-122.9,249.1-209.2c24.4-30.5,47.9-61.7,69.2-99.2
			c-43.7,9.5-83.9,13.9-125,10.7c-135.8-10.6-263.2-117.2-293-245.8c-15.6-67.3-1.2-130.3,26.3-191.5
			c16.8-37.3,36.3-73.4,58.7-107.5c69.2-105.2,98.8-221.8,100.7-346.2c1.3-84.7,0-169.4-0.2-254.1c-0.2-92.9,3.4-185.5,28.8-275.7
			c44.2-157.4,140.6-276.9,271.2-370.9c134.6-96.8,287-147.9,449.4-172.2c160.5-24,321.9-21.6,483.2-12
			c114.2,6.8,225.2,31.3,331.6,74.9c198.6,81.4,329.6,225.5,400.2,427c43,122.9,65.9,249.5,74.2,379
			c20.7,321.7-2.9,640.7-61.8,957.1c-47.7,256.4-126.1,503.5-235.8,740.4c-26.4,57.1-57.3,111.8-98.6,159.8
			c-56.5,65.8-123.2,115.1-213.2,120.1c-88.8,5-166.4-19.9-218.8-97.6c-8.3-12.3-12.4-6.6-19.3-0.5
			c-63.5,56.3-138.6,88.2-221.3,102.9c-70.3,12.4-126.3-14.4-151.7-71.4C1518.3,2839.4,1515.5,2825.6,1510.6,2809.6z M1881.5,112.4
			c-9.3-0.8-13.6-1.3-18-1.6c-119.8-6.6-239.4-4.6-358.7,9.3c-151.8,17.7-296.2,58.1-426.5,140.4
			c-126.1,79.7-224.9,183.1-277.9,325.3C764.8,681.2,759.8,781,759,881.4c-0.7,92.7,4.3,185.4,0.5,278.2
			c-5.4,131.2-37,253.6-111.9,363c-9.1,13.3-3.3,16.9,9.8,21c106.6,33.8,166.7,107.8,185.1,217c11.8,70.1,0.7,138.2-20.4,205
			c-3.8,12.2-4.2,17.5,12,17.9c53.1,1.3,103.2-9.5,150.2-33.4c118.4-60.2,193.1-157.6,234.6-281.7c43.8-131,42.4-265.7,28.5-401
			c-1.7-16.7,3.6-20.6,17.6-20.7c5.8-0.1,11.9,0.3,17.4-1.3c14.2-4,17.9,3,19.1,15.3c11.7,119.7,14.1,239.3-12.9,357.5
			c-35.5,155.3-113.4,282-253.1,365.4c-8.6,5.1-13.7,12.6-18.7,20.8c-36.4,59.9-75.4,118.1-120.3,172.1
			c-69.8,83.9-147.4,159-248.7,203.5c-99.4,43.6-190.7,100.2-278.9,162.6c-19.1,13.5-37.3,28.1-53,45.6
			c-15,16.7-21.4,36.1-19.8,58.4c1.1,15.6,4.4,23.3,23.5,15.2c52.7-22.2,107.7-37.1,165-41c120.5-8.2,223.8,25.3,296.2,128.3
			c8.1,11.6,13.9,8.5,22.9,3.6c42.9-23.2,85.1-47.6,127.1-72.2c296.1-173.4,464.8-432.4,511.2-771.6c4.9-36,4.2-35.4,40.2-32.3
			c13.7,1.2,16.6,5,15.1,18.6c-5.7,51.6-13.2,102.9-26.2,153.1c-80,309.2-260.1,540.9-540.3,694c-17.9,9.8-20.2,19-13.2,35.8
			c23.3,55.4,67.4,85,123.3,98.5c67.2,16.2,134.9,12.4,202-1.8c119.1-25.1,218-84.3,303.5-171.4c158-160.8,257.5-350.3,294.2-572.6
			c2.1-12.7,4.9-17.6,18.8-15.4c37,5.7,37.1,5.1,30.8,43.7c-0.8,5-1.7,10.1-2.7,15.1c-44.1,223.7-148,415-311.4,574
			c-6.4,6.2-12.9,12-13,21.8c-0.9,61.7,22.7,114.1,102.1,100.3c89.8-15.6,166.2-54.8,229.3-124.7c149-165.2,255.4-352.6,312.6-567.7
			c7.9-29.6,7.7-28.3,38.5-22.4c18.4,3.5,20.7,10.8,16.3,27.6c-54.4,205.9-149.7,390.3-287.7,552.6c-28.9,34-29.1,42.8,2.1,76
			c7.4,7.9,15.9,15.2,25,21.1c78,49.9,172.4,43.4,251.2-16c51.5-38.8,86.6-90.5,117.3-145.6c49.6-88.8,85.8-183.6,120.8-278.7
			c141.9-385.1,201.2-784.6,206.7-1193.4c0.1-4.9,1.5-10.2-2.3-14.8c-7.2-1-12.1,4.2-17.7,7.2c-153.8,82.8-317.1,113-489.2,81.2
			c-207.7-38.4-367.3-147.8-455.3-342.5c-111.4-246.5-80.7-484.9,62.6-711.1C1819.2,181.4,1848.4,148,1881.5,112.4z M1723.3,635.4
			c0,18.2-0.5,36.5,0.2,54.7c0.5,13.1,2.2,26.2,4.2,39.2c29,187,116.8,337.5,287.2,426.1c228,118.5,453.4,95.3,672-31.7
			c10.3-6,10.5-14.3,10.4-24.1c-0.6-64.3-4.1-128.4-9.7-192.5c-10.5-119-32.6-235.5-76-347.2c-42.7-109.9-102.4-208.1-198.2-280.7
			c-131.5-99.6-282.6-145.4-444.3-163c-10.9-1.2-17.7,3.5-24.9,10.3C1798.8,265.1,1725.2,435,1723.3,635.4z M793.9,1814.8
			c0.9-12.9-1.9-30.2-4.4-47.5c-13.2-89.3-75.1-157.1-160.5-175.8c-7.4-1.6-15.3-6.4-20.9,4c-25.1,46.9-43.8,96-40.4,150.1
			c6.8,109.9,97.6,191.6,185.4,222.5c10.2,3.6,12.5-1.4,15.1-9.4C782.7,1913.4,793,1867.4,793.9,1814.8z M508.3,2842.5
			c93.7-0.8,157.4-23,219.8-50.9c14.8-6.6,8.6-13.5,2.7-21.4c-32.5-44.1-76.8-71.1-128.7-85.8c-93.4-26.4-181.8-4.1-269,28.9
			c-11.5,4.4-7.5,9.9-2.7,16.2C381.2,2796.8,444.8,2841.2,508.3,2842.5z"/>
		<path class="st0" d="M2117.6,708.4c0.4-93.6,75.1-167.5,169.1-167.4c94.8,0.1,169,75.1,168.5,170.2
			c-0.4,94.3-76.2,168.3-171.4,167.5C2190.7,877.9,2117.2,802.6,2117.6,708.4z M2285.1,825.4c63.5,0.8,116.1-50.7,116.9-114.3
			c0.7-63.5-50.7-116.2-114.3-116.9c-63.5-0.7-116.1,50.7-116.9,114.3C2170,772,2221.5,824.6,2285.1,825.4z"/>
	</g>
</g>
</svg>
