<?xml version="1.0" encoding="utf-8"?>
<!-- Generator: Adobe Illustrator 23.0.0, SVG Export Plug-In . SVG Version: 6.00 Build 0)  -->
<svg version="1.0" xmlns="http://www.w3.org/2000/svg" xmlns:xlink="http://www.w3.org/1999/xlink" x="0px" y="0px"
	 viewBox="0 0 3000 3000" style="enable-background:new 0 0 3000 3000;" xml:space="preserve">
<style type="text/css">
	.st0{stroke:#000000;stroke-width:10;stroke-miterlimit:10;}
</style>
<g id="Layer_1">
</g>
<g id="Layer_2">
	<g>
		<path class="st0" d="M1485.7,2044c5.6,14,15.7,20.7,22.7,29.8c81,105.4,96.3,220.2,48.8,343.6c-5.7,14.8-5.5,26.7,0.1,41.3
			c70.3,182.3,193.1,319.8,357.8,421.9c8.3,5.2,16.5,8.2,26.5,7.8c108.9-4.3,217.9-5.3,327-4.6c12.9,0.1,25.2-5,38.5-4.7
			c12.9,0.3,17.4,3.4,17.9,17.1c1.4,36.7,2.1,37-33.4,37.7c-270.2,5-540.4,9.9-810.5,14.5c-118.7,2-237.4,4.8-356.1,4.4
			c-90.5-0.3-180.6-8.1-265.7-42.5c-100.9-40.8-182.8-103.7-221.6-209.5c-36.6-99.9-13.1-189,58.2-266.1
			c8.7-9.4,12.2-18.1,12.1-30.6c-0.4-142.8-0.2-285.6-0.2-428.3c0-10.2,0.1-19.3-8.7-27.7c-62-58.7-87.7-133.6-96-216.5
			c-8.8-88.3,0.4-176.1,5.8-264c7.6-125,17.5-249.9,38-373.6c32.7-197.7,86.4-388.5,200.2-556.4
			c182.3-269.2,435.2-429.5,758.1-471.3c229.7-29.8,447.6,15.1,651.3,126.5c15.4,8.4,16,15.5,6.5,27.7c-3.5,4.6-6.4,9.8-8.6,15.2
			c-4.6,11.2-10.4,12.8-21.4,6.5c-106.6-61.2-221.1-100.2-342.4-118.3c-223.9-33.5-436.7,0.6-635.7,110.1
			C986.9,381.1,823.9,609.4,743.5,900.7c-43.8,158.6-63.2,321-75.1,484.5c-1.8,25.4-3.3,50.9-5.6,76.3c-1,10.7,2.2,14.5,13.2,13.2
			c21.9-2.5,43.8-0.9,65.2,3.4c73.4,14.7,113.5,69.1,124.3,142.3c9.4,64.1-2.6,127.8-5.3,191.7c-1.7,40-4,80.1-8.8,119.8
			c-2.6,21.7,6.4,22.8,22.7,19.7c72.8-13.9,128.9-52.2,166.5-116c41.1-69.7,50.4-146.5,45.4-225.5c-2.4-38.4-8.1-76.7-11.3-115.1
			c-1.9-23.4,1.5-46.3,8.5-68.9c15.5-50.3,70.7-76.4,122.3-40.9c41.3,28.5,64.1,69.3,58.8,119.6c-16.2,153-18.1,306.7-26,460.1
			c-0.9,18.5,2.4,29.2,20.2,37.1c22,9.8,40,26.3,57.1,43.2c5.5,5.4,9.2,9.9,17,1.2c68.5-75.7,183.5-78.1,270.5-1.7
			c3.8,3.4,7.5,6.9,11.1,10.5c10.7,10.7,21,29.8,31.9,30c11.5,0.3,23.1-17.8,35.3-26.9c72.1-54.1,150.2-78.9,239.5-49
			c47.4,15.9,81.2,47.5,104,91.1c6.2,11.9,10.5,12.4,22.7,7.2c70.1-30.1,140.3-25.6,210,2.9c10.3,4.2,10.3,8.4,6,17.5
			c-15.9,33.8-15.5,33.9-49.9,23.3c-44.4-13.8-88.9-14.8-133.1,0c-28.6,9.6-32.1,17-28.3,46.5c5.8,45.1,0.7,90.1-3.2,135
			c-4.7,52.9-13.2,105.8-2.4,158.8c3,14.7-5.6,14.7-15.3,17.1c-34.7,8.7-35,9-40.1-26.1c-7.6-51.7-0.7-103.3,4.1-154.6
			c5.1-53.8,10.6-107.2-2.5-160.7c-14.4-58.7-47.9-98.5-108.1-113.4c-16.5-4.1-23-0.6-22.8,18.4c0.8,79.4,0.7,158.8-0.4,238.2
			c-0.5,37.1-2.2,74.6-26,106.3c-2.6,3.5-4.6,8.3-8.1,10.2c-29.2,15.2-15.9,33.1-4.6,52.2c43,72.4,93,139.3,153.7,197.8
			c10.1,9.7,9.1,14.4,0,23.7c-26.4,27.1-26.1,27.7-51.9,0.8c-103.4-107.6-179.9-231.7-229.3-372.6c-19.4-55.5-36.3-112.2-65.3-163.8
			c-30.4-54.1-69.2-99.1-131.3-118C1495.6,2046,1492.1,2045.4,1485.7,2044z M1070.6,2486.7c39.4,32.3,75.8,62.5,110.1,95.1
			c98.4,93.6,185.8,197.1,272.5,301.2c8.2,9.9,16.1,15.2,29.2,14.1c25.9-2.1,51.9-4.1,77.8-4.4c64.1-0.6,128.2,0.6,192.3-0.6
			c23.8-0.4,47.6-5,76-4.3c-5.8-5.1-7.4-6.7-9.1-7.9c-148-105.3-251.1-244.5-316.7-413.3c-44.7-115-101.7-223.9-174.4-324
			c-28.8-39.8-60.6-76.5-105.4-99.4c-49-25.1-96.3-18.7-151.2,9.2c18,15.2,33.9,26,46.6,39.8c45.4,49.7,81,105.6,90.1,173.7
			c9.9,74-4.7,140.8-67.1,189.9C1121.4,2471.3,1097.2,2477.6,1070.6,2486.7z M900.2,2385.3c-1.5-5.2-2-7.3-2.6-9.3
			c-59.5-205.7,62.4-383.5,275.7-401.4c10.6-0.9,11.2-5.3,11.5-13.4c1.1-29.8,2.9-59.6,4.1-89.4c5-115.5,6.4-231.3,20.9-346.3
			c3.8-30.1,2.8-60.2-20.5-83.8c-10.1-10.2-20.9-22-37.5-17.9c-17.3,4.3-18.9,20.6-22.3,34.5c-1.7,7-1.6,14.4-1.9,21.7
			c-1.6,38.1,8.6,75,11.1,112.8c6.5,96.2-3.9,188.9-54.1,273.8c-56.3,95.4-186.2,170.7-310.4,127.9c-18.2-6.3-13.4,6.5-13.5,14.6
			c-0.2,123-0.1,246-0.1,369.1c0,3.4,0.6,6.8,1,10.9c23-5.3,44.3-12.3,67.2-12.4C852.5,2376.3,875.1,2381.6,900.2,2385.3z
			 M1394.8,2899.2c-6.7-9.8-8.7-13.5-11.4-16.7c-80.6-94.9-160.9-190.3-253.1-274.3c-61.9-56.4-125.3-111.3-199.9-150.9
			c-33.8-18-69.5-30.2-108.7-26.6c-110.3,10-184.4,160.6-127.9,262.2c26.2-48.3,63.1-83.8,115.2-102c98.8-34.4,210.7,2.5,283.6,93.3
			c46.9,58.5,70.2,126.7,82.1,199.5c1.9,11.6,5.3,15.8,17.5,15.7C1257.6,2898.9,1323.1,2899.2,1394.8,2899.2z M1077.1,2898.4
			c8.7,0,17.6-1,26.1,0.2c16.6,2.4,19.5-3.7,16.5-19.2c-9.1-47.6-23.2-93.3-49.5-134.1c-40.5-62.9-95.1-105.1-172.1-113.1
			c-72.1-7.5-142.2,36.4-162.6,101.8c-4.8,15.3-3.2,26.7,9,38.9c34.5,34.3,73.6,61.4,118.1,80.8
			C930.9,2883.5,1003.3,2894.1,1077.1,2898.4z M1038.4,2433.6c55.4,0.2,94.3-27.2,111.1-79.1c12.5-38.5,10.7-77.1-2.4-115.6
			c-19.8-58.3-59.5-102.5-100.9-145.7c-11.7-12.2-19-12.2-31.3-0.7c-95.1,89.8-99.6,218.3-43,320.1c3.6,6.5,8.2,10.7,16.4,12.7
			C1005.3,2429.4,1022,2434.6,1038.4,2433.6z M657.6,1637.8c-6.9,47.5-3.6,94.7,7.2,140.9c16,68.4,48.3,125.9,113.5,159.9
			c13,6.8,19,5.6,20-10.8c2.8-47.2,7.3-94.3,9.8-141.5c2.8-51.5,10.1-102.8,5-154.6c-6.4-65-44.8-101.7-109.6-103.7
			c-9.4-0.3-19,1.3-28.3,0.4c-14.1-1.4-17.6,5.7-17.6,17.8C657.8,1576.7,657.6,1607.3,657.6,1637.8z M1809.6,2191
			c0-33.5-0.6-77.1,0.3-120.7c0.3-14.3-4.9-15.5-16.2-12c-42.6,13.3-78.1,38-110,68.5c-5.3,5.1-7.6,10-3.8,17.2
			c37.5,70.2,56.7,147.5,86.7,220.6c4.2,10.2,6.1,28.8,15.8,27.9c14.3-1.3,17.2-19.3,21.2-32.4c1.5-4.8,1.4-10,1.9-15.1
			C1810.6,2297.1,1807.6,2249,1809.6,2191z M1517.4,2365.5c35.8-112.5-8.6-236.7-99.1-305.3c-2.7-2.1-7.1-5-9.5-4.1
			c-17.5,6.4-31.4,17.8-41.8,33.3c-9.1,13.5,5.2,19.2,9.6,28c4.5,9,11.2,17,16.9,25.4C1440.6,2211.9,1481,2284.8,1517.4,2365.5z"/>
		<path class="st0" d="M1969.8,1549.2c95.6-1.7,186.2-26.2,265-86.5c10.8-8.3,18.3-10.3,26.5,2.2c3.5,5.4,7.9,10.6,12.7,15
			c10.4,9.6,7.3,15.7-3,23.4c-101.9,76.4-217.5,109-342.9,96.9c-255.5-24.6-414.6-175.8-506.4-404.5
			c-70.2-175-62.8-354.9-11.4-533.7c38-132.3,95.4-254.7,191.5-356c40.5-42.7,87-77,139.7-103.4c16.2-8.1,23.1-5.2,27.3,11.3
			c1.6,6.3,4.4,12.4,7.6,18c4.9,8.4,2.6,12.8-6,16.8c-103.8,48-173.9,130.6-226.8,228.4c-89,164.5-134.7,340-113,527.5
			c24.6,213.4,121.7,383.6,314.5,490.3C1813.9,1532.9,1889.2,1547.9,1969.8,1549.2z"/>
		<path class="st0" d="M1957,1441.9c-142.6-5.2-259.7-75-336.5-208.2c-104.4-181.2-104.7-367.2-20.9-556.9
			c57-129,127.3-248.4,229.5-347.2c38.8-37.5,80.3-71.8,123.6-103.9c10.9-8,15.5-7.6,23.2,3.8c20.6,30.6,21.1,30-9.2,52.8
			c-124.5,93.5-221.3,209.5-287.6,350.9c-35.9,76.6-70.9,153.5-81.5,238.3c-18.7,150,18.8,285.6,117.1,400.3
			c94.1,109.8,244,144.4,380.3,95.3c46.7-16.8,91.5-37.6,131.7-66.6c12.7-9.1,17.9-6.2,26,3.9c22.2,27.3,22.4,26.9-6,46.3
			C2162.9,1407.8,2071.1,1440.3,1957,1441.9z"/>
		<path class="st0" d="M1933.1,969.5c-65.4,0-122-46.4-135.3-111c-12-58.4,21.1-118.5,80.5-144.1c55.4-23.9,110.9-21.9,163.9,6.5
			c49.9,26.6,68.5,74.9,53,129.5C2075.7,919.3,2007.4,969.5,1933.1,969.5z M1951.6,752c-13.5,1.3-27.9,2.4-41.8,7.2
			c-38.5,13.1-62.1,43.5-60.7,78.4c1.4,34.5,29.9,67.4,66.6,76.8c43.1,11,96.9-16.3,121.3-61.6c21.6-40.3,7.7-77-35.3-92.2
			C1985.8,755,1969.3,752.6,1951.6,752z"/>
	</g>
</g>
</svg>
