<?xml version="1.0" encoding="utf-8"?>
<!-- Generator: Adobe Illustrator 23.0.0, SVG Export Plug-In . SVG Version: 6.00 Build 0)  -->
<svg version="1.0" xmlns="http://www.w3.org/2000/svg" xmlns:xlink="http://www.w3.org/1999/xlink" x="0px" y="0px"
	 viewBox="0 0 3000 3000" style="enable-background:new 0 0 3000 3000;" xml:space="preserve">
<style type="text/css">
	.st0{stroke:#000000;stroke-width:10;stroke-miterlimit:10;}
</style>
<g id="Layer_2">
</g>
<g id="Layer_3">
	<g>
		<path class="st0" d="M955.4,901.1c34.2-62.1,65.5-118.1,96-174.4c149.1-275.3,386.9-423.6,688.3-480.6
			c171.7-32.5,345.1-32,518.6-22.5c88.7,4.9,177.2,12.7,265.7,19.8c186.3,14.9,292.3,123.7,338,296.8
			c30.2,114.5,59,229.9,63.6,349.3c3.3,86.5-12.5,166.6-83.7,228.3c99.1,30.8,108,111.8,105.3,192.6
			c-5.2,157.3-16.1,314.3-25.9,471.4c-4.7,75.7,2.8,152.3-15.4,227c-23.2,95.4-45.2,191.2-70,286.2
			c-69.6,265.7-246.2,426.6-500.3,515.1c-163,56.7-330.9,65-500.3,64.1c-206.6-1-413.3-2.1-619.4-19.5
			c-128.9-10.9-257.2-27.1-383.9-55.7c-117.9-26.5-203.5-91.3-257.9-197.8c-9.5-18.5-18.6-20.2-37-14.5
			c-88.2,27.2-171.3,14.3-248.2-36.5c-12.7-8.4-21.6-11.8-37.2-4.7c-80.1,36.5-156.3,0.2-181.1-84.8c-19.8-67.8-4.4-133.9,11-199.6
			c45-192.4,142.2-359.2,259.3-515.2c26.1-34.8,38.1-66.3,29-110.6c-9.5-45.8-5.7-93.8,0.2-140.8c5.8-45.8,17.6-90.2,33.9-137.6
			c-25.1,5.3-47.4,10.5-69.9,14.8c-53.3,10.2-106.6,8.6-159.6-1.1c-57.4-10.6-78.1-57.6-39.5-101.2c73-82.8,76.3-175.5,48.6-274.1
			c-19.7-69.9-46.8-138-63.4-208.5C78.6,611.2,108,449,233.6,314.5c114.9-123.2,258.2-171,423.2-125.1
			C819,234.6,904.4,352.1,938.5,511.7c16.2,75.9,18.9,152.8,17.1,230.1C954.4,792.7,955.4,843.7,955.4,901.1z M1517.1,2816.2
			c159.6,1.7,308.3,4,457.2,2c119-1.6,233.7-22.3,346-60.2c143.4-48.3,267-125.1,358.7-247.8c54.7-73.2,87.4-157.1,109.5-244.5
			c26.2-103.5,62.5-206.1,70.4-312.4c14.4-194.2,19.6-389,32.7-583.4c2.9-43.5,6.9-87.6-3.9-131.1c-13.4-54.3-35.8-71.2-90.9-68.7
			c-26,1.1-50.6,7.9-75.3,14.9c-9.2,2.6-18.5,5.8-27.9,6.9c-15.8,1.9-31.1-0.2-35.6-18.8c-4.3-17.6,5.8-28.5,21.1-34.8
			c13.8-5.7,28-10.5,42.1-15.5c108.1-38.7,151.6-100.3,152.1-214.8c0.3-65.8-12.6-129.9-26.4-193.6
			c-20.1-92.7-33.7-187.4-82.3-271.9c-44.7-77.7-110.9-123.3-198.2-138.1c-118.4-20.1-238.5-22.9-358.1-29.4
			c-162.8-8.9-325.5-4.7-485.9,29.3c-272.6,57.8-487.6,196.1-622.8,446.3c-48.7,90.1-95.6,181.3-144.4,271.2
			C880.1,1160,785,1285.1,684.9,1406.8c-114.2,138.8-234.7,272.6-337.5,420.5c-102.1,147-186.2,302.2-221.3,480
			c-9.3,47.2-18.8,95-2.6,142.6c19.2,56.7,67.1,73,116.3,40.1c14.2-9.5,27.8-20.2,40.3-31.7C595.7,2167.8,968,2021.6,1396.8,2020
			c17.9-0.1,26.8-5.6,34.1-21.1c12.8-27.2,29.9-52.1,49.8-74.6c78.3-88.1,168.8-152.5,294.2-142.7c110.4,8.7,211.8,135,121,257.6
			c-11.4,15.5-22.3,31.4-33.8,46.8c-23.8,32-35.4,68.2-36.1,107.7c-0.5,27.8-1.3,55.9,1.6,83.5c15.5,148-37.2,272.7-128.8,384.7
			C1649.8,2721.9,1590,2769.5,1517.1,2816.2z M423.7,1637.9c70.1-84.8,134.2-162.1,198-239.7c97.3-118.2,194.9-236.2,267.4-372.2
			c7.1-13.3,13.4-26.1,12.7-42.2c-4.1-94.2-1.2-188.4-0.1-282.6c0.8-68.7-4.8-136.7-21.3-203.7c-61.1-248.8-330.4-350.5-541-203.9
			C197.1,392.6,128.9,571,165,745.9c14.7,71.6,43,138.7,63.1,208.5c13.7,47.5,24.4,95.2,24.4,145c0,71-17.1,135.5-66.2,189.1
			c-6.2,6.8-15.6,14.1-11.5,24.7c3.9,10.1,15.1,4.5,22.9,6.2c42.5,9.3,84.9,6.4,127.7,0.1c82.4-12,138.6-48.3,166.7-134.6
			c52.5-161.6,58.4-320.8,2.3-481.1c-9.3-26.4,6.9-27,21.9-34.6c18.7-9.4,23.9,0.5,29.1,15.3c25.9,74.3,40.4,150.6,42.5,229.3
			c3.3,127.5-20.2,249.5-80,362.6c-20.9,39.5-46.1,76.5-60,119.5C423.3,1472,411.9,1549.2,423.7,1637.9z M1374.2,2813.8
			c33,4.7,85.6-24.5,134-57.1c171.8-115.2,285.6-264.8,265.4-484.9c-9.3-101.3,11.9-190.9,80.9-267.3c2.8-3.2,5.2-6.8,7.4-10.5
			c24.6-40.8,20.5-82.5-11.8-118c-37.9-41.5-86.3-50.2-138.2-39.1c-91.7,19.6-158.5,76.1-212,150.5
			c-44.4,61.8-59.9,133.6-72.6,206.7c-18.3,105-65.3,155.9-159.5,176.3c-26.3,5.7-53.1,5.8-79.6,4.8
			c-141.6-5.5-255.2-58.9-319.8-192.2c-7.7-16-14.9-16-29.4-10.5c-95.4,35.8-185.9,81.3-273.4,133.4c-15.5,9.2-19.6,19.5-17.4,36.4
			c11.5,87.9,36.4,171.1,80.8,248.3c43.7,75.9,105,127.1,191.3,149.5C992.2,2784.6,1168.2,2796.1,1374.2,2813.8z M1196,2321.9
			c6.4,0,12.8,0,19.2,0c93.3-0.7,136.5-35.9,156.2-127.4c6.1-28.2,11.5-56.5,17.3-84.7c7.9-38.2,7.9-38.6-32.6-37.5
			c-140.6,3.7-278.2,26.1-413.6,64.6c-29.4,8.4-31.6,18.6-17,43C987.3,2282.3,1082.8,2318.6,1196,2321.9z M494.5,2353.8
			c-62.3,42.2-117.5,87.4-169.7,136.4c-10.4,9.7-7.9,15.3,2.7,21.6c62.3,36.8,127.8,45.7,197.1,23.4c9.9-3.2,14.6-7.3,10.4-18.3
			C515.3,2465.2,505.2,2410.9,494.5,2353.8z"/>
		<path class="st0" d="M1046.4,1216.1c0.6-146.1,99-280.8,253.8-342.4c126.7-50.4,256.5-58.4,385.3-9.9
			c115.3,43.4,194.1,123.3,220.8,247c27,125.5-53.4,261.9-167.1,287.6c-28.2,6.4-55.5,5.8-81.3-7.1c-11.9-5.9-16.2-4.1-24,7
			c-84.5,119.9-232.3,129.8-332.9,22.9c-7.2-7.7-10.8-15.5-25.5-7.7c-55.3,29.6-118.3,19-164.9-25.1
			C1068,1348.3,1046,1289.3,1046.4,1216.1z M1517.1,886.4c-100.7-1-201.2,22.3-287.6,88.2c-85.8,65.4-133.9,151.7-129.3,262.4
			c2.8,68.3,37.1,119.4,89.2,135.8c45.8,14.4,64.1,2.7,67.8-44.8c2.6-34.5,7.3-67.6,27.6-97.4c83.1-122,266.7-114.1,341,15.7
			c11.6,20.2,18.7,42.9,27.6,64.7c10.5,25.8,28.6,38.1,57.2,36.7c41.9-2.1,72.7-23.8,98.3-53.9c64.7-76,64.9-187.1,0.8-273.2
			C1738.4,924.8,1637.7,891.4,1517.1,886.4z M1457.1,1197.3c-83.1-0.6-147.1,58.2-145.7,125.4c0.4,20.3,8.1,28.3,27.9,30
			c66.7,5.6,119.1-17.5,154.5-75.1c11.7-19,27.1-42.9,17.1-61.8C1500.7,1196.3,1472.1,1198,1457.1,1197.3z M1368.1,1409.6
			c36,25.9,70.2,36.2,107.3,31c56.9-8,102.5-37.4,123.3-90.8c13.7-35.2-14.4-65.4-33.9-101.2
			C1533.2,1345.8,1468.4,1396.2,1368.1,1409.6z"/>
	</g>
</g>
</svg>
