<?xml version="1.0" encoding="utf-8"?>
<!-- Generator: Adobe Illustrator 23.0.0, SVG Export Plug-In . SVG Version: 6.00 Build 0)  -->
<svg version="1.0" xmlns="http://www.w3.org/2000/svg" xmlns:xlink="http://www.w3.org/1999/xlink" x="0px" y="0px"
	 viewBox="0 0 3000 3000" style="enable-background:new 0 0 3000 3000;" xml:space="preserve">
<style type="text/css">
	.st0{stroke:#000000;stroke-width:10;stroke-miterlimit:10;}
</style>
<g id="Layer_1">
</g>
<g id="Layer_2">
	<g>
		<path class="st0" d="M170.9,1913c-7.7-310.2,11.7-619.5,34.7-928.4C226.4,705.7,318,457,546.8,277.9
			C720.1,142.3,923,81.2,1139.2,79.3c216.2-1.8,431.2-23.8,647-24.3c260-0.5,518.2,19.3,765.8,108.1
			c136.5,49,224.1,143.5,260.4,285.9c55.7,218.8,68.2,442.2,68,666.1c-0.2,253.5-1.5,507.5-16.5,760.4
			c-11.3,189.9-28.5,380.8-87.4,564.8c-89.4,279.4-388,530.6-708.6,529.8c-341.6-0.8-681.8-12.5-1009.9-123.3
			c-22-7.4-40.1-1.1-59.6,6.9c-144,58.5-291.1,100.7-449.2,89c-174.2-12.9-325.4-139.6-350.8-308c-16.9-111.9-22.6-225.9-26.5-339.2
			C167.6,2168.1,170.9,2040.5,170.9,1913z M1451.1,132.1c56.7,57.8,86.7,120.4,95.7,190.8c7.4,58.6,12.3,117.7,10.3,177.3
			c-13.1,376.9-92.9,738.4-235.3,1088c-85.9,210.8-176.7,420.5-231.6,642.6c-42.6,172.5-64.5,346.4-34.7,524
			c4.3,25.4,14.4,37.8,39,45.5c161.8,50.6,327.4,80.9,496.1,96.3c21.5,2,36.7-6.3,52.5-18.1c142.4-105.9,238.8-241.9,268.9-419.2
			c21.2-124.5,19.4-247.9-34.6-365.7c-24-52.4-65.4-85.4-121.8-93c-127.1-17.1-242.5,10.3-333.4,106.1
			c-106.8,112.5-97.1,259,23.2,356.3c25.1,20.3,6.3,33.1-0.2,48.5c-9.8,23.2-22.5,4.3-31.2-0.8c-84.4-49.8-135.5-164-119.4-264.5
			c29.2-182.3,199.7-312.8,404.6-309.5c134.2,2.2,219.1,62.6,253.4,193.3c63.3,240.9,25,463.3-133.7,660.5
			c-31.2,38.8-68.5,71.8-108.8,112.4c129.7,7.5,251.8,18.4,374.3,10.4c295.6-19.5,549.5-216.7,639.7-498.8
			c62.8-196.4,76.4-401.4,86.7-605.2c10.7-213.1,9.1-426.8,12.1-640.2c2.9-209.3-7.7-417.7-46-624c-22.4-121-59.9-233.2-177.2-297.8
			c-43-23.7-88.2-42-135.4-55c-176.5-48.5-356.8-72.5-539.2-78.6C1769.4,108.6,1613.8,110.2,1451.1,132.1z M232.6,1478.4
			c25.9-25.1,45.6-46.9,68.1-65.2c24.1-19.5,49.5-38.3,76.7-52.8c309.5-165.4,615.5-157.9,917.2,21.3c17.7,10.5,34.5,31.8,47.2-6.8
			c109.1-330.6,170.5-668.3,152.2-1017.7c-3.2-60.2-22.9-116.5-63.5-162.9c-27.7-31.7-59.4-51.9-105.6-56.8
			c-108.9-11.6-216.5-6.1-323.4,11.5c-359.1,59.3-608.9,261.2-705.1,626.1c-28.9,109.5-37.1,221.9-43,334.5
			C247.3,1230.3,239.9,1351,232.6,1478.4z M228.5,1748.1c-1.3,4.2-3.5,8.1-3.6,11.9c-3.6,197.2-4.4,394.4,5.8,591.6
			c1.5,29.3,16.5,29,37,29.5c114.1,2.9,228.3,7.8,342.3-0.6c39.9-2.9,80.8-4.1,120.3-19c-131.4-212.1-57-425,128.1-548
			c103-68.4,211.7-120.9,345.7-129.3c-36.8-28.8-71.2-40.4-106.5-50.6c-66.2-19.3-134.9-17.2-202.6-23.5
			c-137.5-12.8-257.9,18.7-364.6,114.8C418.6,1825.7,352.2,1825.3,228.5,1748.1z M419,2444.6c-51.8-2.7-103.6-5.6-155.4-7.9
			c-14.5-0.7-36.1-2.1-30,19.8c13.6,48.9,5.9,99.1,14.8,148.6c26,145.2,129.5,252.9,275.5,276.2c163.4,26.1,313.2-25.1,461.7-83.3
			c19.2-7.5,15.8-20.6,13.4-36.1c-8.6-55.7-13.2-111.8-12.9-168.3c0.3-68.7-5.5-73.1-76.9-65.2c-75.2,8.3-145.8,33.6-216.4,58.6
			c-63.1,22.3-127.3,39.1-195.2,35.2c-15.2-0.9-30.6,0.8-26.8-23c2.6-16.3,0.5-34,25.3-32.7c83.7,4.3,159.5-27.5,236.5-53
			c70.5-23.4,141.2-49.2,216.3-41.7c43.2,4.3,45.5-17.8,47.3-47.8c2.5-42.8-30-22.3-46.7-23.7c-26.3-2.1-53.2,1.2-79.6,4.6
			C720.1,2424.2,570.9,2450,419,2444.6z M808.5,1299.3c-171,7-320,49.7-452.5,142.3c-46.9,32.8-84.1,74.7-101.2,131.2
			c-17.4,57.5-2.9,117,38.4,150c46.3,37,94.2,25.2,141.6,1.6c40.2-20.1,73-50.5,106.8-79.1c72-60.8,154.7-91.3,248.8-91.6
			c43-0.1,86-1.4,128.9,0.7c103.8,5.1,207.7,11.8,299,69.6c22.2,14,27.2,2.2,33.5-14.9c14.9-40.2,28.9-81,46.6-119.9
			c11.4-25,2-36.7-17.7-49.5C1134,1343.9,973,1297.5,808.5,1299.3z M934.6,2342.7c10.8,0,28.6-1.3,46.2,0.3
			c20.9,2,29.1-7.6,32.6-26.7c34.2-185.7,101.3-361,171.1-535.4c13.6-33.9,7.8-41.3-27.9-34.7c-141.6,26.2-262.6,91.6-358.9,197
			c-91.2,99.8-101.6,241.7-37.7,355.1c23.5,41.7,48.6,68.3,101.4,49.8C881.6,2341.2,905.4,2344.5,934.6,2342.7z"/>
		<path class="st0" d="M1973.8,1395.1c-84.9,2.4-167.7-23.2-242.8-70.9c-123.4-78.4-173.2-228.3-130.8-383.9
			c59.1-216.7,296-350.5,503.1-288.3C2256.8,698,2397,870,2358.1,1095.1C2326.8,1275.5,2178.6,1394.7,1973.8,1395.1z M1951.3,1039.3
			c135.9-2.9,229.6-18.2,313.7-73c26.2-17.1,36-33.7,22.7-65.4c-24.6-58.6-57-110.3-109.1-148.2C2036.4,649.4,1819.5,677,1698.2,860
			c-12.9,19.5,0,29.8,8.9,42.7C1775.3,1002,1870.8,1044.3,1951.3,1039.3z M1660.9,936.8c-40,136-6.8,260.4,82.2,327.2
			c120,90,307.7,100.6,426.7,24.1c91-58.5,149.7-181.9,129.8-276.3c-42.8,28-88,49.7-137.1,61c-19.8,4.6-23.9,17.7-29.8,33.6
			c-28.3,75.6-93.2,120.5-165.9,116.6c-80.7-4.4-139.8-54.1-160.1-135.4c-2.9-11.4-2.2-24.6-14.2-30.9
			C1740.7,1029.5,1701.2,988.1,1660.9,936.8z M2078.1,1090c-74.3,6.1-141,4.6-212-3.8c18.3,50.3,49.9,74.6,97.1,78.1
			C2014.2,1168,2051.3,1146.7,2078.1,1090z"/>
		<path class="st0" d="M756.1,437.6c70.9,4.4,101.7,27.8,97.5,74.2c-3.9,43-54.5,83-102.6,81.1c-51.8-2-89.1-43.6-84.7-94.4
			C670.1,453.1,698.3,434,756.1,437.6z"/>
	</g>
</g>
</svg>
