<?xml version="1.0" encoding="utf-8"?>
<!-- Generator: Adobe Illustrator 23.0.0, SVG Export Plug-In . SVG Version: 6.00 Build 0)  -->
<svg version="1.0" xmlns="http://www.w3.org/2000/svg" xmlns:xlink="http://www.w3.org/1999/xlink" x="0px" y="0px"
	 viewBox="0 0 3000 3000" style="enable-background:new 0 0 3000 3000;" xml:space="preserve">
<style type="text/css">
	.st0{stroke:#000000;stroke-width:10;stroke-miterlimit:10;}
</style>
<g id="Layer_1">
</g>
<g id="Layer_2">
	<g>
		<path class="st0" d="M229.9,968.6c-76-85-25.3-271,123.1-299.7c16.7-3.2,22.2-5.7,17.4-25c-19.3-76.2,9.5-151.3,71.7-194
			c63.6-43.6,138.3-42.7,205.8,3.8c9.5,6.5,12.5,6.4,19.5-3.2c70.7-96.9,232.1-88.7,293.2,15.7c10.5,17.9,19.2,19.9,37.3,15.2
			c47.1-12.1,94.8-15,141.8,1c56.1,19.1,95.5,54.8,107.5,114.7c12.5,62.5-4.9,117-54.7,156.5c-21.1,16.8-25.9,30.1-13.7,52.1
			c1.8,3.3,2,7.6,3.8,15.5c10.5-12,19.2-22,28-32C1275.8,714.6,1341,640,1411.3,570c51.8-51.6,114.5-76.1,187-80
			c80.8-4.4,161.5-1.6,242.2-1.4c219.8,0.4,439.7,1,659.5,2.3c86.3,0.5,172.7,2.8,256,30.4c121.1,40.3,189,124.5,208.8,249.9
			c11.8,74.7,7.2,149.4,3.2,224c-9.7,179.5-20.3,359-32.5,538.3c-10.7,157-14.6,314.5-33.6,470.8c-16.5,136-71.3,251.2-189.8,329.2
			c-92.4,60.8-195.7,88.5-304.1,99.9c-135.4,14.2-271.5,9.5-407.3,12.3c-197.4,4-394.8,5.3-592.3,7.8c-42.4,0.5-84.9-0.5-126.7-7.3
			c-75.7-12.4-142.5-41.8-189.7-108.3c-57.7,69.2-130.3,112.3-214.3,136c-72,20.3-146,27-220.7,24.7c-88-2.8-175.8-9-259.7-38
			c-151.4-52.4-244.4-163.3-301.2-308.3C55,2048,43.7,1938.4,45,1827.5c2.4-203.7,43.2-399.6,122.4-587.3c4.1-9.7,7.1-17.3-1.5-28
			c-43.6-54.1-44.3-117.2-4.1-177C179.9,1008.2,203.1,986.6,229.9,968.6z M1531.7,544.3c-33.8,8.5-62.3,25.1-86.4,49.1
			c-124.1,123.8-237.3,257.3-347.2,393.6c-17.5,21.7-32.5,45.5-39.4,73.3c-11.3,45.4,13.7,80,60.4,82.7c45,2.6,78.4-17.4,102.9-54
			c25-37.4,35.4-80.2,43.5-123.4c3.3-17.5,10.9-17.1,24.4-14.8c13.5,2.3,19.4,6.1,15.7,21.6c-9.5,40.4-18.6,80.9-37.8,118.2
			c-3.1,6-9,11.3-3.3,19.5c18.7,26.6,32.6,60.5,76.1,47.6c3.7-1.1,8-0.7,11.9-0.1c17.7,2.8,25.9-3.3,31.8-21.8
			c21.3-66.9,66.8-110,136.1-124.5c47.7-10,94.3-4.4,135.3,23.9c39.7,27.5,80,31.9,124.4,12.4c24-10.5,49.2-18.8,74.5-26
			c67.4-19.1,120.9-0.6,162.1,55.6c6.8,9.3,13.8,13.4,25.1,14.5c52.2,5.1,104,1.3,155.1-8c19.6-3.6,20.1,5.6,23.4,18.5
			c4.4,17.2-4.8,20.1-18.6,22c-39.6,5.6-79.3,9.8-119.4,9.3c-35.1-0.4-34.3-0.1-34,33.4c0.8,94.9-49.5,160.9-129.8,199.4
			c-130.2,62.3-268,64.8-403.7,20c-79.4-26.2-131.4-83.9-140-171.6c-1.8-18.8-12.7-16.5-24.6-16.6c-36.1-0.3-35.9-0.4-28.7,33.9
			c17.1,82.2,7.5,157.9-56.5,218.9c-40.5,38.6-90.7,55.2-145.6,59.2c-29.9,2.2-56-6.1-77.3-29.9c-16.9,30.7-42.3,43.5-73.8,45
			c-8.1,0.4-13.2,4.1-17.7,10.3c-53.3,74.9-106.6,149.8-138.7,237.1c-29.1,79.2-37.9,159.6-14.7,242
			c36.4,129.2,186.5,207.7,305.2,135.2c76.1-46.5,162.7-64.2,253.1-58c88.9,6.1,175.5-6.1,258.2-39.9c20.3-8.3,21.5,4.4,28,16.3
			c9.8,18-5,17.9-14.2,21.6c-79.7,31.6-162.5,46.8-248.2,41.9c-83.7-4.8-164,5.6-239.7,43.6c-44.8,22.5-52.5,37.8-39.6,86.9
			c3.8,14.7,10.2,28.5,18,41.6c31.6,52.6,79.9,81.4,137.8,95.8c50,12.4,101.1,14.8,152.3,14.2c274.2-3.4,548.3-7.1,822.5-10.9
			c23.6-0.3,47.1-2,70.4-3.1c0.8-8.2-4-10.7-6.9-14.1c-80.1-95.3-115.7-204.2-102.8-328.8c4.9-47.1,17.1-92.5,27.4-138.4
			c17.6-78.5,42.3-156,36.6-238.1c-5.8-83.6-35.3-153.8-114.1-194.7c-19.1-9.9-0.8-20.2-0.2-29.9c0.7-10.7,8.3-10.6,17.3-6.3
			c26.3,12.6,49.5,29.2,68.6,51.3c68.9,79.6,78,173.9,63.9,272.4c-11.5,80.6-36.4,158.6-52.2,238.3
			c-28.3,142.4,4.5,267.7,108.9,371.7c8.2,8.2,16.3,13.7,29.2,12.7c81.7-6.6,161.5-21.3,236.9-54.4
			c107.3-47.1,187-120.9,224.9-234.8c23.7-71.3,29.9-145.4,34.7-219.5c11.5-175.4,22.2-350.8,32.9-526.3c1.2-20.1,0.2-40.4,0.2-60.4
			c-1.8-0.2-2.8-0.6-3.3-0.3c-3.5,1.8-7.1,3.7-10.4,5.8c-82.4,50.5-171.4,67.6-266.7,52.7c-148-23.1-280.5-157.6-300.6-304.3
			c-1.8-13.1,1-16.2,13.6-17.7c17.1-2.2,24.1,0.5,28,20.3c46.8,238.7,327.5,346.6,523.8,202.4c15.3-11.2,23.8-23.3,24.6-43
			c2.2-53.5,6.9-106.8,9.4-160.3c4.3-90.9,14.6-181.7,2-272.8c-15.5-111.6-73-188.5-181.9-224.1c-49-16-99.5-23.3-150.7-25.5
			c-158.2-7-316.5-2.6-474.8-5.2c-20.7-0.3-24.1,6.2-24.4,25.3c-3.2,247.1-244.5,410.7-472.7,321.1
			c-89.6-35.2-140.2-102.7-141.5-188.9C1479.4,632.7,1499.1,586.7,1531.7,544.3z M85.3,1832.5c-1,107,10.2,212.3,50.7,312.3
			c56.9,140.4,149.3,246.3,300.8,285.4c133.7,34.5,270,40.5,405.8,11.3c84-18,157.2-57.4,213.5-124.1c6.8-8.1,15.8-15,10.1-29.1
			c-8-20-11.9-41.5-11-63.3c0.4-9.6-2.7-12.3-12.6-10.4c-42.7,8.3-84.3,2.9-124.5-12.9c-10-3.9-15.2-3.1-21.4,6.2
			c-27.8,41.8-69.1,64.2-117.1,71.9c-100.3,16-200.7,14.6-299.7-9.3c-106.1-25.6-173.6-93.7-206.3-196.9
			c-16.1-50.7-20.8-103.1-19.8-156.1c3.2-173.8,35-342.6,89.8-507.3c11.1-33.4,30-65.9,11.6-103c-2.3-4.6-1.5-11.2-0.7-16.6
			c2.1-14.4-4.7-17.8-17.6-17.4c-35.4,1-71.4-1.2-103.1-16.7c-25-12.3-30-1.5-37.8,18C124.4,1453.7,86.4,1639.4,85.3,1832.5z
			 M1688.5,1373.3c28.5,1.6,59.6-1.2,90.5-5.3c75.6-10,144.8-33.6,194.2-96.5c25-31.9,40-68,35-108.9
			c-10.7-87.2-81.7-129.3-164-95.2c-74.4,30.7-144.8,49.3-219.9-2.1c-54.5-37.3-132.9-18.8-175.1,32.3
			c-73.6,89.4-29.1,218.4,87.8,256.1C1585.5,1369.2,1635.1,1374.4,1688.5,1373.3z M548.1,755.7c0,4.5-0.5,6.3,0.1,7.6
			c40.4,91.6-4.3,183.2-78.9,220.4c-12.3,6.2-9.8,10.2-2.7,18.6c29.9,35.5,43.3,77.3,35.9,122.6c-4.1,24.8,2.1,34.1,22.5,49
			c26.6,19.4,42.4,20.8,71.9,4.8c44.7-24.3,96.1-19.6,145.3-9.2c10.5,2.2,15.4,2.3,20-8.4c24.2-56.8,65.1-100.5,113.8-136.4
			c22.7-16.7,41.6-30.1,22.1-60.4c-1.9-3-1.1-7.8-1.3-11.8c-2.6-58.1,3.3-116.5,27.1-168.7c15.4-33.8,9-52.7-13.7-74.9
			c-6.6-6.4-10.4-9.7-19.8-5.2c-61.8,29.4-121,22.1-177-15.5c-8.7-5.8-12.9-5.5-18.5,3.6c-9.2,15.1-21.5,27.4-36.3,37.7
			C625.7,752.7,587.9,756.1,548.1,755.7z M1234.2,1139c-46.5,42-99.2,55.7-159.2,33.7c-8.6-3.2-15.3-1-22.3,3.7
			c-58.1,37.9-105.8,85-132.8,150.2c-13.4,32.4-27,65.1-23.3,101.6c3.5,34.5,30,56.7,68.2,56.6c31.3,0,43.6-13.5,47.3-53.2
			c1.3-13.5,1.1-27.1,1.8-40.7c0.8-14,2.5-29.2,20.1-30.3c17.6-1.1,21.3,12.8,23.3,27.4c2.4,17.3,1.7,35.2,8.5,51.8
			c6.7,16.6,17,29.5,36.5,29.8c62.6,1.2,114.6-20.1,154.8-70C1313.1,1330.2,1286.6,1194.4,1234.2,1139z M294.5,1890.1
			c-4.2,44.7-1,91,8.4,136.5c22.4,109.1,83.8,183.3,195.8,207.7c84.1,18.3,169.5,18.1,254.7,9.9c40.6-3.9,77.9-18.1,105-51
			c4.1-5,13.4-12.2,6.7-17.8c-12.5-10.4-22.6-25.1-45.3-17.1c-96.5,34-193.1,30.4-287.9-7.4c-90.5-36.2-156.6-96.1-175.7-195.8
			c-13-67.6-2.6-135.5,5.9-202.7c13.9-110.4,39.9-218.2,76-323.4c4.1-11.9,4.7-19.7-9.9-23.1c-5.2-1.2-10.7-4.2-14.6-7.9
			c-16.4-15.3-21.4-7.2-27.3,10.1C333.2,1563.7,301.5,1723.6,294.5,1890.1z M522.8,835.3c0.2-58.5-36.8-108.3-92.9-124.9
			c-82.8-24.4-169.7,30-190.1,119c-7.1,31.1-8.4,62,6.5,91.2c8,15.6,17.8,31.1,40.4,25.5c40.9-10.2,80.8-5.9,119.3,10.7
			c6.9,3,13,3.9,20.5,1.8C481.1,943.6,522.6,890.9,522.8,835.3z M338.8,1234.5c16.8,4.7,30.9-3,42.6-23.7
			c12.7-22.3,32.9-39.3,57.9-48c12.4-4.3,17.5-12.5,20.8-23.6c16.5-55.1-11-116.5-64.2-142.8c-83.5-41.4-189.9,6-218.2,97.2
			c-14.1,45.4-0.7,83.5,38.9,110.5C251.9,1228,292.3,1231.9,338.8,1234.5z M548.1,716c73.4,1.1,113-24.2,128.4-79.1
			c15.8-56.5-8.7-121.7-58.6-155.9c-47.4-32.5-110.4-30.7-156.9,4.6c-49.6,37.6-68.5,99.3-49.5,158.4c4.8,14.9,11.4,25,28.2,28
			c19,3.5,37.3,11.6,51.4,24.4C509.2,712.9,529.6,717.4,548.1,716z M1711.3,851.5c5,6.9,9.9,7,14.6,7.3
			c206.1,11.8,331.9-151.1,328.3-310.6c-0.4-16-6.1-20.3-21.1-19.4c-19.1,1.2-38.3,1.3-57.4,0c-15.1-1.1-24.9,4.2-34.4,15.8
			c-49.6,60.5-98.2,121.7-144,185C1767.9,770.2,1739.5,811.4,1711.3,851.5z M721.1,599.3c-1.2,48.8,1.4,52.4,40.5,70
			c23.2,10.4,47.1,15,72.2,11.1c69.2-10.8,115.2-68.6,111.1-139c-3.6-62.2-58.1-113.8-124.2-117.6c-46.9-2.7-89.3,6.5-119,46.8
			c-9.8,13.3-14.3,26-3.3,43.4C715.7,541.3,722.1,572.9,721.1,599.3z M985.2,548.3c0.8,44.8-13.2,81.2-40,112.8
			c-6.5,7.7-12.1,13.3-3.5,24.1c41.2,52.1,93,79.5,160.5,68.8c64-10.2,108.3-61.8,108.3-123.8c0-58.5-39.2-103.2-101.6-114.6
			c-32.6-6-65-3-97.4,3.2C992.7,522.4,975.8,525.8,985.2,548.3z M1798.9,529.8c-49.8-2.1-93.6,0.7-137.3-3.8
			c-13.8-1.4-29.9-0.5-42.1,5.4c-110.1,52.9-130.5,188.3-53.2,263.7c12.2,11.9,17,7.4,24.5-4.3c28.8-45.1,60.5-88.1,93.6-130.1
			C1719.4,616.4,1757.2,574.6,1798.9,529.8z M791.6,1204.7c-1.8,48,64.7,92.7,104.2,73.4c3.3-1.6,5.9-5.2,7.9-8.5
			c30.1-49.2,70.1-88.7,118-120.4c9.3-6.1,11.1-11,5.4-21c-11.6-20.2-14.3-43-9.2-65c4.4-19-3-21.5-18.6-20.6
			c-14.5,0.9-28.9-2.3-41.7-8.8c-11.5-5.9-20.2-4-30.5,2.7c-44.1,28.6-81.4,64.2-111,107.5C802.9,1163.4,793.3,1184.4,791.6,1204.7z
			 M935.8,925.6c-1.2,59.1,49.5,95,98.7,76.3c5.5-2.1,9.2-5.9,12.2-10.8c21.6-34.8,47.5-66.5,75.3-96.1c26-27.7,23.7-56.9,14.8-88.8
			c-3.5-12.7-9.5-17.3-23.9-13.8c-42.9,10.4-84.6,4-123.2-16.5c-16.4-8.8-20.6-1.5-25.6,10.9C945.2,833.2,940.8,882.6,935.8,925.6z
			 M876.7,1328.1c2-5.8-1.7-6.8-5.7-8.6c-22.3-10.1-45.4-5.3-62.4,11.9c-10,10.2-20.4,20.9-32.5,28
			c-51.6,30.4-89.5,76.6-134.6,114.5c-9.3,7.8-9.9,14.2-2.5,23.8c15.1,19.6,29.9,39.4,43.2,60.2c8.8,13.8,14.3,11.8,24.3,1.3
			c40.7-42.8,79.9-87.6,124.3-126.2C864.5,1403.5,856.4,1360.5,876.7,1328.1z M685.1,1203.6c-32.2,0.8-59.5,0.8-83.6,16.1
			c-12.5,8-20,16.3-12,33.2c11.3,23.5,13.6,49.2,9.6,74.9c-2,12.9,1.1,18.3,14,21.7c63.3,16.8,117.9,2.7,164.6-43.4
			c9.5-9.4,12.9-16.5,0.8-26.9c-12.9-11.1-21.4-26.6-23.8-43.3c-3.1-20.9-16.4-27.9-34.2-30.1
			C707.2,1204.1,693.6,1204.1,685.1,1203.6z M483.4,1378.2c45.1,0.4,77.8-28.9,77.7-69.7c-0.1-54-46.3-112.6-88.6-112.5
			c-37.7,0.1-78.6,49.4-78.8,94.9C393.5,1338.1,434.2,1377.7,483.4,1378.2z M865.9,1465.9c-46.9,43.6-93.6,87.2-140.5,130.6
			c-6.4,5.9-7.2,10.9-1.7,18.4c23.1,31.3,45.6,63.1,69.9,96.8c32.6-68.6,73.8-128.2,115.8-187.4c3.5-5,8.9-9.1-1.5-13.8
			C885.8,1500.5,873.7,1480.7,865.9,1465.9z M806.3,2119.8c-23.6-31.8-43.6-65.5-49.4-103.6c-5.6-36.8-28-61.3-49.4-87.9
			c-6.9-8.5-10.7-8.1-18.1,0c-20.5,22.4-41.7,44.2-63.4,65.4c-8.9,8.7-8.2,15-0.8,24.2c29.7,36.6,58.8,73.6,87.9,110.7
			c5.3,6.7,10.6,10.9,20.1,9.6C757.8,2134.6,781.9,2130.1,806.3,2119.8z M701,1856.5c3-2.4,5.6-4,7.6-6.1
			c16.6-17.2,34.1-33.6,49.3-52c18.4-22.2,17.7-42.4,0.7-66.2c-20.4-28.5-41.3-56.5-61.2-85.3c-6.5-9.4-10.7-11.5-19.4-2.3
			c-24.1,25.5-48.6,50.5-73.6,75c-8,7.8-8,13.2-1,21.5c30,35.1,59.4,70.7,89.1,106C694.9,1850.2,697.6,1852.9,701,1856.5z
			 M671.6,1887.4c-2.4-3.6-3.9-6.4-5.9-8.8c-30.5-36.7-61.4-73.2-91.6-110.2c-8.5-10.4-13.1-3.2-18.6,2.4
			c-19.6,19.9-38.7,40.2-58.8,59.5c-8.8,8.4-9,14.7-1.4,24c28.7,35.1,57.1,70.5,84.7,106.5c8,10.4,12.7,11.3,21.5,1.5
			c19.7-21.9,40.5-42.8,60.7-64.2C665.5,1894.6,668.4,1891,671.6,1887.4z M394.7,1944.7c9.5,54.3,38.1,97.9,83,131.3
			c9.5,7.1,14.5-0.3,19.9-6c18.2-19,36-38.6,54.8-57c8.1-7.9,8.2-13,0.8-21.7c-17-20.1-32.4-41.6-49.2-61.8
			c-15.6-18.8-29.3-54.1-47-52.3c-19.8,2-36.7,32.1-54.9,50.1C397.5,1931.7,392.5,1936,394.7,1944.7z M1902.6,527.8
			c-22.4,4.2-39.7-5.2-54.2,9.1c-85.2,84.9-160.6,177.7-226.2,278.4c-2.5,3.9-7.9,9.5-4.2,12.6c11,9.4,25.5,12.7,39,17.3
			c11.8,4,15-6.3,19.6-13.2c48.4-72.4,99.3-143,152.7-211.8C1852.2,591,1875.6,562,1902.6,527.8z M598.5,1515.1
			c-1.9,1.3-4.6,2.9-6.9,4.9c-29.9,27.7-59.4,55.8-89.7,82.9c-8.8,7.9-3,11.8,1.4,17.1c18.8,22.8,38.2,45.1,56.2,68.5
			c8.2,10.7,13,7,20.1-0.3c24.4-25.3,48.7-50.8,74.1-75c10.2-9.7,7.9-16.8,0.8-26.2c-15.4-20.4-30.1-41.3-45.1-61.9
			C606.6,1521.4,605.1,1516.4,598.5,1515.1z M404.6,1732.7c0.9,3,0.9,6.6,2.7,8.9c16.1,20.8,32.4,41.5,48.9,62
			c5.7,7.2,9.7,1.1,13.4-2.7c20.8-21,41.3-42.3,62.2-63.2c5.8-5.8,8.3-10.7,1.9-18.2c-20.8-24.3-40.9-49-61.4-73.5
			c-3.6-4.3-7-9.2-13.5-3.5C431.5,1666.9,399.7,1688.5,404.6,1732.7z M445.3,1538c-1.2,17.5,10.1,27,19.8,35.1
			c9.2,7.7,14.8-5.3,20.6-10.3c15.1-13,29.1-27.2,43.8-40.7c50.2-46,50.2-46,5.6-99.8c-10.3-12.4-49.2-9.2-54.4,5.7
			C467.9,1464.9,456.7,1502.3,445.3,1538z M671.6,2140.9c-28.1-35.4-53.3-67-78.2-98.9c-6.1-7.9-9.8-4.3-14.7,0.9
			c-15.9,16.9-31.8,33.6-47.9,50.3c-4.8,5-9.6,9.7,0.5,14.1C574.5,2126.2,619.3,2137.9,671.6,2140.9z M662.7,1398.7
			c-29.3-4.2-55.2-6.8-79.1-17.4c-6.6-2.9-10.3,0.2-14.5,4.1c-5.3,5-3.4,9.8,0.1,14.7c10.2,14.1,20.7,28.1,30.5,42.5
			c4.6,6.8,8.2,8.3,14.5,2C629.3,1430,644.8,1415.6,662.7,1398.7z M397.5,1799.8c-5,25.6-5,49.5-3.9,76.9
			C437.5,1837.2,437.5,1836.2,397.5,1799.8z"/>
		<path class="st0" d="M2430.3,1653.7c-1.2,76.2-17,150.8-24.8,226.2c-3.7,35.9-4.5,71.9-1.3,107.7c1.7,18.9,6.8,37.1,21.8,51.8
			c12.8,12.5-1.5,25.1-6.9,34.9c-5.3,9.7-14-1.5-19.3-5.7c-24.2-19.2-32.3-46.4-35.2-75.8c-6.9-68.2,2.5-135.5,11.8-202.7
			c9.8-70.5,19.5-141,7.5-212.2c-9.3-55-30.2-104.4-73.7-141.3c-18.4-15.6,2.3-21.3,6.3-30.6c5.7-13.4,13.5-5.7,20.2,0.2
			c56.5,49.9,81.5,115.1,90.3,187.7C2429.4,1613.6,2429.3,1633.7,2430.3,1653.7z"/>
		<path class="st0" d="M1873.2,1971.1c-1.1,59.6-34.7,101.3-77.5,137.1c-12.1,10.1-14.6-7.1-20.9-12.2c-5.4-4.4-13.7-9.7-3.8-19.1
			c12.8-12,25.4-24.4,36.2-38.1c42.1-53.4,33.1-107-23.7-144.7c-9.9-6.6-20.1-13.5-31.2-17.6c-15.6-5.8-15.2-12.9-8.9-26.6
			c7.1-15.6,13.8-17.6,28.5-9.4c38,21.3,75.1,43.2,92.9,86.1C1870.6,1940.8,1873.1,1955.8,1873.2,1971.1z"/>
		<path class="st0" d="M747.1,801.7c43.4,1.3,78.7,34.3,77.3,72.3c-1.4,38.2-36.2,71.5-74,70.7c-42.3-0.9-80-39.2-79.2-80.5
			C672,827.6,705,800.4,747.1,801.7z M783.3,872.9c0.2-16.8-17.1-32-37.8-31.5c-16.6,0.4-32.6,4.9-34.2,25.2
			c-1.3,17.6,20.9,37.5,39.6,37.4C768.6,903.9,783.2,889.9,783.3,872.9z"/>
	</g>
</g>
</svg>
