<?xml version="1.0" encoding="utf-8"?>
<!-- Generator: Adobe Illustrator 23.0.0, SVG Export Plug-In . SVG Version: 6.00 Build 0)  -->
<svg version="1.0" xmlns="http://www.w3.org/2000/svg" xmlns:xlink="http://www.w3.org/1999/xlink" x="0px" y="0px"
	 viewBox="0 0 3000 3000" style="enable-background:new 0 0 3000 3000;" xml:space="preserve">
<style type="text/css">
	.st0{stroke:#000000;stroke-width:10;stroke-miterlimit:10;}
</style>
<g id="Layer_1">
</g>
<g id="Layer_2">
	<g>
		<path class="st0" d="M1982,2560.8c-34.7,37.9-71.4,69.5-111,97.7c-242.8,172.5-552.3,164.7-791.6-5.9c-19-13.6-19-14-32.6,5.8
			c-52.5,76.4-129.2,115.2-216,136.9c-89,22.2-179.9,25.6-271.1,20.6c-62-3.4-124.1-6.7-185.2-18.1
			c-145.9-27.1-235.7-115.6-272-257.5c-23.4-91.3-27.8-184.9-10.5-278c16.4-88.6,66.9-154.5,144.5-199.2c14.5-8.4,14.2-12.3,3.3-24
			c-69.2-73.4-104.8-163.6-126.8-260.2C90.4,1680,86,1579.2,83.8,1478.4c-4.1-184.5,0.4-369,7.9-553.3
			c4.7-115.6,18.2-230.4,58.3-340.3c40.4-110.7,105.4-202.4,208.2-263.7c64.6-38.5,136.4-55.2,209.9-64.4
			c101.5-12.7,203.5-14,305.6-13c169.1,1.8,338.2,2.7,507.2,9.2c116.1,4.5,232.1,10,345.3,40c57.1,15.1,110,38.8,156.8,75.1
			c7.6,5.9,14,6.4,23.4,3.8c145.1-40,292.4-64.5,443.5-59.7c83.3,2.6,165.2,14.6,243.4,45.4c134.5,52.9,217.9,148.2,246.2,291.4
			c22,111.4,40,223.4,56.1,335.8c13.8,96.2,21.6,192.9,28,289.8c4.5,67.4,6.3,135.1,8,202.7c2,78.1,3.3,156.2,3.7,234.2
			c0.4,75-7.4,149.7-12.1,224.5c-6.3,100-13.5,199.9-21.1,299.8c-4.7,62.4-6.9,125.3-23.4,186.2
			c-40.3,148.9-140.3,239.9-282.7,288.3c-85.3,29-172.9,27.8-260.7,13.6c-64.8-10.5-129.2-23.9-193-39.4
			C2072.3,2667.2,2012.1,2636.2,1982,2560.8z M1373.8,2116.2c19.2,0,35.4-1.9,51,0.4c28.9,4.4,44.8-8.3,60.8-31.6
			c100.4-146.2,161.5-306.8,184-482.5c0.6-4.5-1.8-12.7,3.7-12.9c12.8-0.4,26.4-0.4,38.1,3.9c7.9,2.9,2.9,14.5,1.9,21.8
			c-23.3,175.3-83.4,336.8-182.9,483.2c-3.3,4.8-8.6,8.9-8.5,16.6c18.5,0,36.9-1.8,54.8,0.4c39.2,4.7,63.2-15,85.4-44.2
			c64.8-85.4,104.6-179.9,112.5-287.4c2.3-30.7,2.8-29.8,30.6-29.6c14.6,0.1,17.2,6.2,16.3,19c-7.7,115.9-45.5,220.7-115,313.9
			c-3.9,5.3-9.5,9.6-11.2,18.6c35.3-3,67.7-12.5,99.3-26.2c10.3-4.5,16.2-11.2,20.1-22c29.4-80.2,47-162.6,49-248.3
			c0.7-29.7,1.8-29.1,32.1-29.2c11.2,0,15.4,2.8,14.4,14.4c-2.5,28.8-3.6,57.7-6.2,86.4c-4.2,45.6-15.8,89.8-27.6,138.2
			c40.1-40.5,64.3-85.4,81.6-134.5c30.7-87.2,39.7-178.4,48-269.6c9.5-103.5,14.3-207.3,19.9-311c8.4-155.9,18.6-311.9,9.3-468.2
			c-4.6-78.1-14.2-155.5-40.5-229.8c-49-138.1-138-234.8-284.3-270.8c-9.1-2.2-18.2-7.4-29.3-3.9c1.9,3.8,3.3,7.1,5.1,10.2
			c51.5,87.4,79.3,182.2,85.6,283.1c13,208-75.7,402-300.2,488.8c-140,54.1-284.9,79-435.4,62c-88.2-10-171.5-35.1-243.3-88.1
			C629.3,966.8,576.1,798.4,590.8,603.7c8-106.5,43.5-205,99-296.3c2.4-4,7.9-8,4.8-12.9c-3-4.7-9-2-13.7-1.8
			c-51,1.8-101.7,7-152.1,15.7C416.6,327.8,324.5,380,257.7,473.7c-61.2,85.8-88.3,184-104.4,286.4
			c-14.6,93.2-18.2,187.1-20.2,281.2c-4,189.4-11.5,378.7,2,568c6.2,87.3,19.1,173.4,50.7,255.7c7.3,18.9,7.3,19,23,5
			c121.1-107.8,231.4-225.8,331-353.8c18.7-24.1,18.3-23.7,42.6-6.1c9.6,7,10.7,11.5,3.1,21.3c-35.5,45.6-72.1,90.4-110.2,133.8
			c-77.6,88.4-160.1,171.9-248.9,249.1c-10.4,9-12.4,15.6-4.4,27.3c12.8,18.8,25.6,37.5,39.9,55.3c6.8,8.5,11.2,7.8,18.8,1
			c34.4-30.8,67.7-62.6,99.8-95.8c75.1-77.4,143.5-160.3,203.6-249.9c6.2-9.2,10.9-12.3,19.8-4.2c3.1,2.9,6.8,5.4,10.7,7.1
			c15,6.5,13.3,14.1,4.9,26.3c-50,72.5-104.4,141.4-163.7,206.5c-45.2,49.6-92.6,96.9-142.7,141.6c-3.1,2.8-9.7,4.2-6.9,11.1
			c5.4,13.6,26.5,19.3,38.7,10.2c118-87.3,216.4-193,293.6-317.7c15.3-24.6,24.2-3.4,35.7,0.6c16.4,5.6,8.7,14.9,3,24
			c-67.4,107-149.6,201.1-246,282.8c-15.8,13.4-32.2,26.1-49.8,40.3c20,7.4,39,7.7,57.2,11.7c21.9,4.9,36.9-1,52.4-18.7
			c139-159.8,267.8-327.3,381.7-505.9c13.2-20.7,21.8-6.4,33.2-1.1c14.1,6.6,13.9,13.4,5.6,26.3c-111.1,170.9-233.3,333.4-367,487.3
			c-4.9,5.7-11.4,10.6-13.8,20.6c45.2,1.4,88.7,2.4,132.1,4.4c11.4,0.5,19.7-3.1,27.8-10.6c38.6-36.2,75.7-73.9,109.8-114.4
			c57.6-68.4,108.5-141.4,150.5-220.3c6.4-12,12.2-15.8,23.5-7.2c1.9,1.5,4.3,2.6,6.6,3.3c15.7,4.9,17.8,12.3,9.4,27.5
			c-62.9,113-138.7,216.1-230.5,307.3c-4.4,4.4-10.6,7.8-12.9,17.6c18.2,0,34.8-1,51.1,0.3c14.9,1.2,25-4.1,35.5-14.4
			c74.5-73.2,133.6-157.1,177.5-251.8c4.6-9.9,8.7-14,18.9-7.5c4.1,2.6,8.9,4.3,13.6,5.6c13.4,3.8,14.3,10.2,8.3,22.5
			c-33.1,69.1-73.1,133.6-121.9,192.7c-14.3,17.3-29.3,33.9-47.6,54.9c23.7,0,42.6-0.9,61.4,0.3c13.1,0.8,21.6-3.9,30-13.5
			c66.2-75.9,122.4-158.5,167.7-248.4c36.7-72.6,65.5-148.2,86.3-226.9c1.3-5,1.3-14.5,6-14c12.7,1.3,26,3.7,37.2,9.4
			c9.3,4.7,0.7,14.5-1.1,21.1c-45.9,168.4-123.7,320.3-234.4,455.4c-3.9,4.8-10.7,8.5-9.1,19c54.1,0,108.1-0.6,162.1,0.4
			c14.8,0.3,23.1-4.2,30.8-16.9c67.8-112.6,122.3-231.2,161.2-356.7c5.1-16.3,11.6-17.4,24.6-11.6c10.9,4.8,27,1.8,19.6,24.8
			c-38.3,119.3-88.8,232.9-151.6,341.2c-2.5,4.3-5,8.5-7.3,12.8c-1.7,3.1-1.5,5.3,2.3,7.1c15,7.3,51.4-1.7,60.9-15.3
			c68.8-98.9,117.8-206.6,146.1-323.8c6.1-25.5,6-24.6,31.7-19.9c15.2,2.8,18.1,8.4,14.5,23.2c-24.1,97.2-59.1,189.9-110.7,276
			C1398.8,2074.3,1387.2,2093.7,1373.8,2116.2z M2056.5,652.6c15.1-10,28.7-19.4,42.7-28.1c83-51.5,171.4-85.9,270.8-83.4
			c103.6,2.6,178,58.1,212.2,155.9c16.4,46.9,21.7,95.6,25.2,144.8c7.2,101.4,2.1,202.9-0.6,304.2c-1.4,50.6-9.9,100.4-35.5,145.5
			c-41.1,72.3-104.9,116-181.9,141.5c-100.9,33.5-204.9,37.9-309.8,27.2c-13.9-1.4-18.7,1.5-18.6,15.7c0.2,15.9-1,32-3.2,47.8
			c-1.6,11.7,4.2,15.6,13.6,16.9c86.2,12.1,172.1,14.3,258.7,0.7c186-29.3,318.1-159.8,343.1-346.8c20.3-151.8,16.4-304.5,2.9-456.5
			c-10.7-120.4-79.2-200.5-192.7-241.9c-40.2-14.7-81.8-21.5-124.2-25.4c-59-5.4-117.7-0.4-176,8c-9.7,1.4-10.5-1.2-12.5-8.9
			c-7.8-30.7-8.1-30.6,23.2-36.5c85.2-16.1,170.5-14.8,254.3,5.4c149.9,36.3,247.5,125.4,272.1,283.1c9.3,59.7,8.3,120.1,9.2,180.3
			c1.5,100.2,3.4,200.5-11.4,300.1c-1.4,9.4,2.2,16.3,6.9,23.9c88.2,140.5,129.8,292.4,107.3,458.5
			c-18.6,137.3-68.4,262-157.5,369.6c-48.3,58.3-109.4,93.4-185,103.8c-52.2,7.2-104.4,3.7-156.5,1.5c-110-4.5-220-6.2-330.1-3.3
			c-10.1,0.3-12.2,3-10.4,12.9c6.4,36.3,10,73,13.4,109.7c6.3,68.7,2.8,137.7,6.9,206.4c4.6,78.6,38.8,123.6,113.7,147.1
			c45.2,14.2,91.6,23.1,138,32.4c87,17.4,174.4,34.2,263.1,15.8c152.3-31.6,262-113.4,307-268.3c13.3-45.8,16-93.2,19.5-140.3
			c8.7-114,16.2-228,24-342c4.5-66.8,13-133.8,12-200.6c-3.5-237.2-4-474.7-35.7-710.6c-16.1-119.9-36.1-239.2-58.7-358.1
			c-27.4-144.3-115.9-229.5-251.7-272.6c-68.6-21.8-139.2-30.2-210.7-31.4c-131-2.2-259.2,18.5-386,50.2c-15,3.8-15.5,6.5-5.8,17.3
			c40.8,45.4,70.3,97.5,90.7,154.9C2040.9,602.7,2048.1,626.8,2056.5,652.6z M1181.1,292.7c-135.7-2.3-271.3-4.3-407-3.7
			c-14.2,0.1-22,5-29.5,16.4c-84.3,128.9-125.1,269-107.6,423.3c13.4,118.5,60.7,221.1,152.7,299.7
			c85.1,72.7,187.1,100.8,296.3,106.1c127.1,6.2,249.7-16.8,367.9-62.6c128-49.5,218.3-137.2,254.8-271.5
			c42.1-155.1,14.2-301.5-63.9-440.4c-17.7-31.4-38.4-52.6-76.9-49.6c-7.8,0.6-15.9-1.7-23.8-2.4
			C1423.3,297.4,1302.2,295,1181.1,292.7z M2079.1,1024.1c0,46.1,1.6,92.2-0.3,138.2c-3.2,78-8.5,155.9-13.2,233.8
			c-0.8,12.3-0.8,18.7,15.9,20.1c46.5,3.8,92.9,5.3,139.3,2.3c74.7-4.7,147.7-17.7,214.2-54.7c67.3-37.4,109.7-92.7,121.6-170.3
			c7.7-50.1,6.2-100.6,7.5-150.9c2.5-94.1,3.5-188-12-281.4c-20.8-125.7-98.6-186.3-225.2-173.2c-95.3,9.9-177,51.9-252.4,108.4
			c-6.9,5.2-8.1,10.4-6.8,18.7C2082.8,817.6,2086,920.7,2079.1,1024.1z M199.1,2151.1c-30.2,30.3-50.9,65.8-60.4,107.3
			c-18.5,80.6-13.4,161.8,1,241.9c24,133.1,100.7,229.2,242.7,252.4c109.3,17.9,219.8,25.4,330.7,16c69-5.9,136.3-19.5,198.6-51.3
			c70.3-35.9,117.1-90.7,131.4-169.7c22.1-122.6,32.9-246,21.8-370.6c-0.9-10.2,1.1-20.3-15.8-20.5c-15.8-0.1-15.9,8.3-17.3,19.2
			c-15.2,117.5-61.3,220.9-143.4,306.9c-73.6,77.1-162.6,125.5-270.3,131.3c-168.9,9.1-328.4-93.8-392.4-250.3
			C197.7,2295.5,192.4,2224.4,199.1,2151.1z M1918.3,2041.2c-19.5,20-37.3,36.9-57.3,51.3c-23.8,17.2-23.9,17.2-15.7,45.3
			c47.6,163.9-2.5,328.8-154.1,406.2c-123.9,63.2-248.2,62.9-363.7-15.2c-120.3-81.3-165-204.4-166.1-345.6
			c-0.2-24.4,0.7-24.5-24.3-24.9c-1.8,0-3.7-0.1-5.5-0.1c-23.6-0.3-23.2-0.4-21.4,22.5c10.7,135.8,0.1,270.1-29.4,403
			c-2,9.2-0.7,14.1,7.1,19.9c20.8,15.2,42,29.8,64.3,42.9c272.9,160.2,600.5,108.1,808.5-128.6c5-5.7,8.9-11,8.3-19.4
			c-6.9-94.4-0.4-189.4-14.8-283.4C1945.3,2157.4,1936.4,2100,1918.3,2041.2z M2180.1,1810.1c14-1.5,28.1-2.2,42-4.5
			c40.6-6.6,69.9-27.4,84.6-67.3c16.7-45.5,34.3-90.6,46.5-137.6c3.7-14.3,3.9-19.2-13.6-16c-92.1,16.4-184.3,15.9-276.1-1.8
			c-8.1-1.6-9.3,0.4-10,7.3c-5.2,56.8-10,113.7-18.6,170.2c-1.2,8.1,0.9,12.5,8.6,15.5C2087.5,1792.9,2131.7,1809.5,2180.1,1810.1z
			 M274.3,2095.3c-13,1.8-18.8,9.7-21.3,21.7c-11.8,55.2-14.1,110.3-4.1,166.3c40.5,226.6,316.9,367.8,525.2,234.3
			c120-76.9,185.6-189.8,209.9-328.4c5.6-32.1,5.2-32.2-26.9-32.2c-26,0-25.4,0.1-28.4,25.8c-15.3,129.6-77.3,230.7-188.8,298.9
			c-107.9,66-224.7,62.5-319.2-11.3c-113.2-88.5-157.3-208.2-147.5-349.6C273.7,2112.4,276.7,2104.1,274.3,2095.3z M1526.3,2541.8
			c20.1,0.4,45.2-2.1,69.6-8.7c114.3-31.2,191.4-99.8,216.1-219.1c11.9-57.8,5.1-114.9-12.6-170.8c-1.7-5.4-0.2-13.3-9.9-12
			c-10.3,1.4-7.9,8.8-7.4,15.5c6.6,85.5-14,163.8-66.5,231.9c-99.2,128.8-249.3,149.7-374.4,33.4
			c-67.6-62.8-101.1-142.3-103.9-234.5c-0.3-10.8-0.5-18.1-15.3-18.3c-15.6-0.2-14.6,8.6-15.1,18.6c-1.8,35.2,1.8,70.1,9.7,104.3
			C1248.1,2419.8,1350.4,2542.6,1526.3,2541.8z M2620.2,1430.7c-57.4,66.6-125.8,109.4-204.9,135.3c-6.2,2-8.9,5.9-10.2,11.6
			c-8.2,35.9-17.8,71.4-29.8,106.2c-2.3,6.7-2.7,10.9,6.8,12.1c42,5.6,83.8,11.8,126.2,13.5c35,1.4,64.4-9.7,84-39.7
			C2640.3,1596.2,2649,1517.6,2620.2,1430.7z M773.5,2151.8c-26.7,0-51.8,0.2-76.8-0.1c-7.2-0.1-10.9,2.6-13.5,9.5
			c-42,111.3-107.4,206.5-196.3,285.5c-7.1,6.3-7.4,9.4,1.7,13.7c23.5,11.2,48,18.1,73.8,21.7c20.7,2.9,36.9-1.9,49.6-19.4
			c7.9-10.9,17.9-20.2,26.6-30.5C706.8,2351.1,750.9,2258.6,773.5,2151.8z M636.3,2157c1.7-8.2-4.4-7.1-9-7.3
			c-33.1-1.4-66.2-2.3-99.3-4.2c-9.6-0.6-12.3,3.7-15,11.7c-25.3,74.9-71.3,133.5-139.2,174.2c-9.6,5.7-8.9,10.2-3.5,18.5
			c16.3,24.7,34.9,47.3,56.3,67.8c9.8,9.4,15.9,8.4,25.6-0.2c79.6-70.2,140.1-153.9,180.8-251.9
			C634.1,2162.7,635.2,2159.9,636.3,2157z M1500.5,2439.7c27.7,7.7,76.7-1.4,90.9-18c59-68.7,87.4-148.5,84.2-239
			c-0.9-26.9-1.9-25.7-28.5-26.2c-16.3-0.3-21.5,6.5-25.4,20.8c-16.1,59.3-38.5,116.2-66.9,170.8
			C1538.6,2379.6,1519,2409.3,1500.5,2439.7z M671.5,2463.8c6.2-1.6,8-1.9,9.6-2.6c5.6-2.5,11.3-4.8,16.7-7.7
			c108-58.2,168.6-149.4,185.5-269.9c4.5-32.5,6-27.7-26.1-29.2c-8.6-0.4-17.2,0-25.8-0.7c-9.1-0.8-12.5,2.8-14.6,11.9
			c-5.8,25.1-12.1,50.2-20.2,74.6C769.9,2321.7,728.6,2395.2,671.5,2463.8z M1576.9,2170.9c2.3-12.2-4.8-10.2-9.8-10.2
			c-17.2,0-34.5,1.5-51.5,0.1c-15.1-1.2-19.8,4.6-22,18.6c-10.6,68.2-35.8,130.8-73.1,189c-7,11-25,20.4-18.3,33.8
			c5.6,11.1,22.8,15.2,35.2,21.9c10.5,5.6,15.7,3.3,22-5.8c43.9-63.4,78.7-131.4,103.7-204.4
			C1568.3,2198.8,1572.9,2183.6,1576.9,2170.9z M320.4,2108.4c-9.9,65.7-1.6,127.5,22.8,189.3c61.2-36.8,104.4-86.4,126.6-154.8
			c-25.5-3.9-50.3-7.5-75-11.4C369.3,2127.4,345.2,2118.3,320.4,2108.4z M1422.7,2161c-25.2-0.1-25.5-0.2-28.9,24.1
			c-5.5,39.2-22.2,73.5-45.5,105c-7.7,10.4-24.6,18-21.9,31c2.6,12.6,15.1,23.2,23.2,34.7c0.4,0.5,0.8,0.9,1.2,1.4
			c7.7,12,14.1,11.9,22.5-0.4c35-51.1,60.7-106,72.3-167.3C1451.1,2161.1,1451.6,2161.2,1422.7,2161z M2701.7,1275.9
			c-10.1,30.8-18.4,59.4-34.5,84c-12.9,19.8-14.8,37-4.6,58.7c6.2,13,11.6,18.6,26.3,18.1c32.5-0.9,32.5-0.1,43.5-29.7
			c3.4-9.2,7.2-18.2,10.4-27.4c2.1-6.2,4.9-11.8,1.7-19.2C2732.9,1332.3,2719.8,1304.8,2701.7,1275.9z M2463.4,2115.7
			c12-31.6,22.7-60,33.7-88.3c2.1-5.5,1.1-9-3.4-12.6c-19.1-15.3-38.1-30.8-56.9-46.4c-6.2-5.1-9.8-4.6-14.2,2.5
			c-8.7,14-18.4,27.4-27.6,41.2c-2.7,4.1-5.4,7.8-1.4,13.1C2416.4,2054.3,2438.9,2083.7,2463.4,2115.7z M1301.9,2273.8
			c29.8-31.2,43.5-67,49.3-106.4c1-6.9-3.6-6.6-7.8-6.6c-17.1-0.1-34.3,0-51.4-0.1c-5.5,0-9.3,0.9-9.4,7.8
			C1281.8,2204.2,1287.6,2238.6,1301.9,2273.8z M2131.8,2099.8c15.7-21.9,29.7-41.2,43.5-60.6c20.3-28.6,19.9-28.4,0.6-57.1
			c-5.7-8.4-8.8-9.8-15.6-1.5c-15.5,18.9-31.8,37.2-47.7,55.7c-4,4.6-7.5,8.6-3.6,15.9C2116.7,2066.7,2123.2,2081.8,2131.8,2099.8z
			 M2516.7,1974.7c4.4-11,8-20,11.5-29c17.5-45.8,17.5-45.8-25.7-69.7c-1.1-0.6-2.2-1.2-3.2-1.9c-5.4-3.9-9.5-3.7-13.4,2.5
			c-8.5,13.5-17.5,26.7-26.5,39.9c-3.2,4.6-4.5,8.3,0.7,12.5C2478.6,1943.8,2497,1958.8,2516.7,1974.7z M2602.3,2042.5
			c5.9-18.3,11.5-35.7,17.1-53.1c13.1-40.7,13-40.4-24.8-60.1c-8.7-4.6-11.5-2.6-13.9,5.9c-2.2,7.6-5.9,14.8-8.6,22.2
			c-18.6,50.4-18.6,50.4,24.8,82.6C2597.7,2040.8,2598.9,2041.1,2602.3,2042.5z M2287.2,1960.8c-11.5,15.9-22,30.9-33,45.5
			c-4.2,5.5-3,9.9,0.3,14.9c11.1,17,22.1,33.9,32.8,51.1c5,8,8.5,6.6,13-0.4c9.3-14.4,19-28.6,28.7-42.8c3.4-5,4.2-9.1-0.1-14.6
			C2315.1,1997.5,2301.9,1979.8,2287.2,1960.8z M2043.4,1916.7c14.8-16.4,28.3-31.2,41.6-46.2c11.6-13.1,8.7-26.9-7.9-34
			c-14.6-6.2-29.9-11-44.8-16.4c-3.3-1.2-7.6-3.9-8.8,1.6c-2.9,13.5-12,26.7-6.3,40.7C2024.6,1880.3,2034,1897.4,2043.4,1916.7z
			 M2049.7,2034.2c-3.9-8.1-8.7-17.3-12.9-26.8c-3.3-7.5-6.9-7.3-11.8-1.6c-10.4,12.1-19.4,26-31.7,35.7
			c-21.2,16.6-20.7,36.1-13.2,58.2c1.3,3.9,0.5,9.3,6,10.1c4.1,0.6,6.1-3.3,8.5-6.1c16.8-19.6,33.6-39,50.4-58.6
			C2047.3,2042.4,2050.4,2040,2049.7,2034.2z M2394.9,1813.3c-2.1,1.6-4.1,2.8-5.8,4.3c-24.9,21.8-24.6,33.9,0.9,54.1
			c29.1,23,28.1,22.3,49.8-6.9c10.7-14.4,10.5-21.9-6.2-29.5C2420.3,1829.4,2408.1,1821,2394.9,1813.3z M2360.5,1980.4
			c2.5-2.9,4.4-5,6.2-7.2c30.3-36.9,30.3-36.9-6.9-67.6c-21.6-17.8-21.2-17.5-36.9,4.2c-6.3,8.7-7.3,15,0.4,23.6
			c10.6,11.8,19.5,25.2,29.2,37.8C2354.6,1974.1,2357.2,1976.6,2360.5,1980.4z M2083.3,1999.2c3.5-3.2,4.9-4.4,6.1-5.8
			c12.1-13.8,24.2-27.6,36.2-41.6c18.8-21.9,18.4-21.7,1.7-45.4c-5.2-7.4-8.2-6.8-13.4-0.8c-14,16.2-28.1,32.4-42.5,48.2
			c-4.8,5.3-6.2,9.7-2.6,16.1C2073.7,1978.9,2077.9,1988.4,2083.3,1999.2z M2629.6,1819.4c-4.7-1.1-5.9,1.9-6.9,4.7
			c-6.3,16.5-12.6,33-18.8,49.6c-1.6,4.4-1.5,8.3,3.4,10.9c12.3,6.6,24.6,18.7,36.7,18.4c8.4-0.2,8.6-20.3,13.2-31.2
			c0.9-2.2,1.4-4.7,1.8-7.1c1.7-9.4,13.5-19.4-2-28C2647.4,1831.4,2638.4,1825,2629.6,1819.4z M2764.3,1482.1
			c-10.2-4-13.6,3.4-16.8,12.4c-8.4,23.7-17.5,47.1-26.1,70.7c-2,5.5-9.5,14.2,2.5,15.2c9,0.8,22.2,14.7,28.2-5.7
			c7.8-26.4,16.1-52.7,25.7-78.5C2783.1,1481.8,2777,1480.4,2764.3,1482.1z M2512.5,1755.5c-23.2-1.8-43.9-2.6-64.4-5.2
			c-16.3-2.1-20,11.2-24.7,20.2c-5.7,11,8.4,10.4,13.8,14.3c9.9,7.2,20.9,12.6,31.4,19c4.6,2.8,8.6,4.5,12.4-1.3
			C2491,1787.4,2501.2,1772.4,2512.5,1755.5z M2585.9,1793.7c-7-8.1-16.9-13.1-26.2-18.1c-7.5-4-8.7,4.9-11.3,8.6
			c-9.3,12.9-17.6,26.5-26.6,39.6c-3.2,4.7-4.9,8.3,1.4,11.8c10.7,5.9,21.1,12.4,31.7,18.4c2.4,1.4,5.9,3.8,7.6-0.4
			C2570.3,1834.3,2577.7,1814.9,2585.9,1793.7z M2709,1624.6c-8.8-3.4-11.2,1-13.3,6.8c-3.6,10.4-7.7,20.6-11.6,31
			c-9,24.4-8.8,23.8,15.1,31.9c11,3.7,15.5,1,18.3-9.6c3.7-14.2,7.7-28.4,13.2-42c4.9-12-0.1-15.4-10.5-16.6
			C2715.9,1625.6,2711.7,1624.9,2709,1624.6z M2696.9,1747.2c0.9-3.5,0.1-6.1-3.5-7.2c-11-3.4-22.3-9.7-33-8.9
			c-7.3,0.5-6.8,14.4-10.6,21.9c-1.9,3.8-3.3,7.9-4.8,11.9c-1.8,5-2.2,9.7,3.4,12.7c10.7,5.6,19.2,15.1,31.5,17.6
			c0.7,0.1,2.5-2.6,3.1-4.2C2687.7,1776.4,2692.3,1761.8,2696.9,1747.2z M2747.6,1839.2c6.9-21.9,12.9-42.3,19.9-62.4
			c3.3-9.5,0.1-12.1-8.5-15.6c-13.5-5.5-20-2.8-22.6,11.7c-1.5,8.3-4.9,16.3-7.5,24.3C2720.2,1824.5,2720.1,1824.5,2747.6,1839.2z
			 M2363.1,2059.7c-12.3,18.7-23.1,35.1-36.1,54.8c28.2,0,52.1,0,77.9,0C2390.9,2096.1,2377.9,2079.2,2363.1,2059.7z M2231.3,1895.7
			c0,0-0.9,3.2-2.8,5.6c-6.5,8-12.9,16.3-20.3,23.5c-7.6,7.4-8.1,14-1.7,22.1c3.8,4.8,6.9,10.1,10,15.3c3.9,6.5,7.5,9.2,12.9,1.2
			c7.8-11.6,16.3-22.7,24.1-34.4C2257.4,1923,2242.4,1895.9,2231.3,1895.7z M2180.6,2110c27.8,0,51.1,0,77,0
			c-12.5-19.6-23.8-37.4-36.3-56.9C2208,2071.8,2195.6,2089,2180.6,2110z M1709.3,2300.3c23.1-44.8,31.1-92.5,28.1-142.3
			c-0.3-4.5,2.4-12.3-7.3-11.2c-7.9,0.9-11.8,4-10.6,13.2C1725.5,2207.3,1718.6,2253.9,1709.3,2300.3z M1992.9,1920.8
			c-10.5,24.3-21.1,47-35,67.8c-5.2,7.8-4.1,14.5,2.2,21.9c10.5-11.6,20.6-22.9,30.8-34.1C2013,1951.8,2013,1951.8,1992.9,1920.8z
			 M2792,1649.6c-0.4-4.5,0.2-8.9-5.9-10c-4.2-0.8-7.3,0.5-8.6,4.6c-6.4,20.5-13,40.9-19.1,61.4c-3.3,11,7.2,9.1,12.3,11.7
			c5.9,3,10.2,1.8,11.4-6C2785.2,1690.8,2788.7,1670.2,2792,1649.6z M2575.1,2081.3c-10.7-8.7-20.7-16.6-30.3-24.8
			c-4.5-3.8-8.2-6-10.9,1.3c-5.6,15.2-11.2,30.4-17.6,47.9C2539,2101.3,2556.7,2092.5,2575.1,2081.3z M2699,1936.8
			c1.1-0.8,3.1-1.4,3.8-2.8c8.3-15.7,17.9-31,23.9-47.6c3.5-9.6-9.5-10.9-15.4-14.7c-7.3-4.7-7,3.3-8.4,7.4
			c-4.7,13.9-9.2,27.9-14,41.7C2685.7,1930.1,2689.7,1934.7,2699,1936.8z M2173.5,1894.6c11.9-12.1,22.8-23.9,33.7-40.2
			c-12.6,0-22.1,0-31.6,0c-3.7,0-7.4-0.4-11,0.2c-9.2,1.4-13.6,5.6-7.5,14.9C2162,1877.1,2167.1,1884.8,2173.5,1894.6z
			 M2301.6,1860.5c-5.1-8.1-12.4-15.3-20.7-16.5c-5.9-0.8-14.2,8-12.2,15.2c2.5,8.7,8.5,20.3,17.6,20.7
			C2293.2,1880.2,2296.9,1868,2301.6,1860.5z M2351.5,1790c-1.8-4.3-8.6-9.2-11.4-7.8c-11.1,5.5-16.9,17-22.8,27.2
			c-2.4,4.1,5.8,8.3,10.5,10.9C2330,1821.5,2351.1,1795.5,2351.5,1790z M2704.8,1479.3c-9.9,6.6-23-6.4-23.9,10.8
			c-0.7,13.4,0.9,27,1.5,40.5c1,0.1,1.9,0.2,2.9,0.3C2691.3,1515.1,2697.3,1499.2,2704.8,1479.3z M2084.8,2107.8
			c-4.1-8.2-5.8-21.4-12-20.9c-9.4,0.6-14.3,12.4-20.3,21.5C2063.7,2110.7,2073.1,2109.2,2084.8,2107.8z M2586.9,1737
			c17.6,13.8,19.9,12,25.1-19.5C2603.4,1724.2,2595.2,1730.5,2586.9,1737z"/>
		<path class="st0" d="M761.6,1326.6c-35.4-2.1-60.4-26.3-61.8-62.8c-1.3-34,30-63.6,63.8-62.6c33.4,1,61.9,30.7,61.2,63.7
			C824.2,1298.4,794.7,1327,761.6,1326.6z"/>
		<path class="st0" d="M549,459.6c-34.4,0.1-62.2-27-62.6-61.3c-0.4-33.6,27.6-62.3,61.5-62.9c34.7-0.7,63.3,27.8,63.1,62.8
			C610.9,432.7,583.8,459.5,549,459.6z"/>
		<path class="st0" d="M425.7,537.7c-0.3-34.2,27-62.5,60.8-63.3c34.2-0.8,63.2,28.2,63.1,63c-0.2,34.3-27.7,62.1-61.8,62.2
			C454,599.8,425.9,571.8,425.7,537.7z"/>
		<path class="st0" d="M1887.5,650.9c34.3,0,62.1,27.5,62.4,61.6c0.2,33.8-27.6,62-61.7,62.5c-34.9,0.5-63.4-27.9-63.1-62.7
			C1825.3,678.2,1853.1,650.9,1887.5,650.9z"/>
		<path class="st0" d="M1622.5,1219.1c0.3,34.3-26.9,62.5-60.8,63.2c-34.5,0.7-63.5-28.1-63.3-62.8c0.2-33.7,28.4-62.2,61.9-62.4
			C1594.1,1156.9,1622.3,1185.1,1622.5,1219.1z"/>
		<path class="st0" d="M1795.3,569.8c0-34.1,27.7-62,61.7-62.3c33.8-0.3,62.2,27.6,62.8,61.6c0.6,34.2-28.8,63.7-63,63.3
			C1822.8,632.1,1795.3,604.1,1795.3,569.8z"/>
		<path class="st0" d="M611.1,1158.6c-0.1,34.4-27.3,61.5-61.9,61.7c-34.4,0.1-62.2-27-62.7-61.1c-0.5-34.4,28.4-63.2,63.1-62.8
			C584,1096.7,611.1,1124.2,611.1,1158.6z"/>
		<path class="st0" d="M1795.3,946.3c0.1-34.1,28.1-62.3,61.9-62.3c33.6,0,62.1,28.2,62.6,62c0.5,34.1-29.1,63.7-63.2,63.3
			C1822.8,1008.8,1795.2,980.5,1795.3,946.3z"/>
		<path class="st0" d="M454,614.5c34.8,0.1,61.5,26.9,61.6,61.7c0.1,34.4-27,62.1-61.2,62.6c-34.4,0.5-63.2-28.5-62.8-63.2
			C392.1,641,419.2,614.4,454,614.5z"/>
		<path class="st0" d="M1738.3,1201.8c-35.9,0.2-61.9-24.8-62.3-59.7c-0.4-34.9,26.2-62.3,60.8-62.7c36-0.4,63.2,26.4,63.1,62.1
			C1799.8,1176.8,1774.6,1201.6,1738.3,1201.8z"/>
		<path class="st0" d="M487.2,1068.8c-35.6-0.2-61.5-25.7-61.5-60.7c-0.1-35.7,26.8-62,63.2-61.7c34.6,0.2,61.1,27.5,60.7,62.4
			C549.1,1043.8,522.9,1069,487.2,1068.8z"/>
		<path class="st0" d="M1036.7,1386.2c-35.6-0.1-61.4-25.7-61.4-60.8c0-35.7,27-62,63.4-61.6c34.6,0.3,61,27.7,60.5,62.7
			C1098.6,1361.2,1072.4,1386.4,1036.7,1386.2z"/>
		<path class="st0" d="M1313,1386.3c-35,0-61.3-26.3-61.1-61.3c0.1-34.9,26.8-61.2,61.9-61.2c35.3,0,61.8,26.1,62,61.1
			C1375.9,1360.8,1349.8,1386.3,1313,1386.3z"/>
		<path class="st0" d="M392.6,814.4c0.1-34.7,25.4-60.1,59.9-60.1c37,0,62.6,25.2,62.6,61.6c-0.1,36.2-26.1,61.4-63.1,61.1
			C417,876.8,392.5,851,392.6,814.4z"/>
		<path class="st0" d="M1583.4,641.8c-5.8,103.5-40.5,195.6-123.7,264c-63.9,52.5-138.7,78.2-221.2,85.7
			c-81,7.4-158.2-4.3-231.3-38.2c-117.5-54.5-183.4-148.9-195.2-276.7c-11.7-126.7,43.5-223.1,155-282.2
			c134.1-71.2,275.9-81.3,419.1-30.1c106.8,38.2,175,113.1,193.9,228c0.9,5.4,1.5,11,1.8,16.5
			C1582.3,619.2,1582.8,629.6,1583.4,641.8z M1476.8,824.4c46.2-69.1,69-143,58-224.4c-12.3-91.8-66.6-153.2-150.3-187.6
			c-113.6-46.7-228.8-43.8-343.5-2.4c-55.3,20-105.4,48.8-139.8,97.7c-64.4,91.6-56.9,186.4-9.2,282.3c7,14,11.2,16.5,23.1,3.5
			c60.6-66,134.7-107.3,223.8-121.7c17-2.8,41.1,6.2,49.3-7.9c8-13.9,1.7-35.9,2.1-54.3c0.6-29.8-6.2-26.4,27.7-26.8
			c0.6,0,1.2,0.1,1.8,0c11.8-1.6,16.4,3.1,15.8,15.4c-0.9,20.2-0.2,40.6-0.3,60.8c0,7-0.1,12.9,9.5,14.7
			c64.2,11.8,116.6,46.5,166.1,86.7C1434.3,779.4,1454.8,801.4,1476.8,824.4z M1194.4,950.4c16.3,2.4,31.9-2.3,47.7-4.1
			c70.9-8.1,135.9-31.8,192.1-77.1c8.6-6.9,11.1-11.4,2.3-21.4c-35-39.4-75.1-72.3-120.3-99.1c-36-21.4-74.6-33.7-116.8-34.6
			c-102.5-2.2-185.5,39.3-254.2,113c-16.3,17.5-16.4,18,1.7,33.9C1017.7,923.2,1103.1,945.3,1194.4,950.4z"/>
		<path class="st0" d="M2300.1,1156.2c-81-0.8-146.8-67.3-146.1-147.7c0.6-80.8,67.3-146.8,147.7-146.1
			c80.8,0.6,146.9,67.4,146.1,147.7C2447,1091.1,2380.4,1157,2300.1,1156.2z M2402.1,1009.4c0.1-55.9-44.2-100.8-100.2-101.5
			c-56.1-0.8-102.4,45-102.5,101.3c-0.1,56.3,46,102,102.3,101.4C2357.8,1110,2402.1,1065.4,2402.1,1009.4z"/>
		<path class="st0" d="M2463,754.8c-0.1,50.1-41.9,91.7-91.9,91.3c-50.1-0.4-91.6-42.7-90.8-92.5c0.8-49.7,41.6-90.2,91-90.4
			C2421.3,663,2463.1,704.7,2463,754.8z"/>
		<path class="st0" d="M2208.9,1323.7c-41.4,0.2-73.9-31.9-74.1-73c-0.2-40.9,32.5-74.1,73.2-74.5c40.2-0.4,74.1,33.2,74.5,73.6
			C2282.8,1290.3,2249.7,1323.6,2208.9,1323.7z"/>
		<path class="st0" d="M1409.8,547.6c7.4,0,14.7,0,22.1,0c27.2,0,35.8,12.3,28.2,38.9c-2,7.1-6.8,5.9-11.3,5.9
			c-27,0.1-53.9-0.2-80.9,0.2c-8.5,0.1-11.4-2.3-11.8-11.3c-1.7-33.7-2-33.7,31.7-33.7C1395.1,547.6,1402.5,547.6,1409.8,547.6z"/>
		<path class="st0" d="M1049.1,546.9c0,7.4,0.1,14.8,0,22.1c-0.3,26.8,2.6,21.9-23.8,23.7c-17.7,1.2-24-3.8-22.3-22
			c1.7-18.9,0.9-38.1,0.2-57.1c-0.4-11.2,3.5-16,14.8-14.8c4.9,0.5,9.9,0.6,14.7,0c13-1.6,17.7,3.9,16.6,16.8
			C1048.4,525.9,1049.1,536.4,1049.1,546.9z"/>
		<path class="st0" d="M1187.7,822.1c7.9,0,16.1,1,23.8-0.2c19.9-3.2,23.9,5.6,23.8,24c-0.1,17.3-3.8,24-22.1,22.3
			c-18.8-1.7-37.9-1-56.8-0.2c-12.1,0.5-15.9-3.9-15.7-15.8c0.7-36.3-1.8-29.5,28.6-30.1C1175.5,822,1181.6,822.1,1187.7,822.1z"/>
	</g>
</g>
</svg>
