<?xml version="1.0" encoding="utf-8"?>
<!-- Generator: Adobe Illustrator 23.0.0, SVG Export Plug-In . SVG Version: 6.00 Build 0)  -->
<svg version="1.0" xmlns="http://www.w3.org/2000/svg" xmlns:xlink="http://www.w3.org/1999/xlink" x="0px" y="0px"
	 viewBox="0 0 3000 3000" style="enable-background:new 0 0 3000 3000;" xml:space="preserve">
<style type="text/css">
	.st0{stroke:#000000;stroke-width:10;stroke-miterlimit:10;}
</style>
<g id="Layer_1">
</g>
<g id="Layer_2">
	<g>
		<path class="st0" d="M1451.4,2905.9c-136.3,2.6-272.6,9.8-409,6.7c-157.9-3.5-294.1-64.5-411.7-166
			c-77.3-66.6-116.5-152.5-111.4-258.4c8.1-168.4,10.4-337,7.1-505.7c-1.4-69.6,24-134.2,51.4-197.1
			c39.4-90.5,94.7-169.9,169.8-234.6c10.2-8.8,7.5-13.9,1.1-22.7c-58.4-80.5-100.3-168.3-114.3-267.6
			c-15.9-113.2,7.9-215.2,90.3-298.6c11.9-12,3.5-16.3-3-23.5C624.4,832.6,578,707.7,587.4,564.5c13.5-205.9,156.1-380,354.3-438.3
			c80.1-23.6,162.4-28.9,244.9-31.7c212.8-7.3,425.6-14.7,638.5-19.9c75.8-1.8,151.4-7,227.6-1.8c139.2,9.5,231.3,80,277,209.4
			c68,192.3,43.4,375.3-65.4,547c-9.9,15.6-9.3,20.9,7.3,29.9c77.8,42.1,119,111.7,134.2,195.7c29.4,162.6-14.7,307-117.2,434.3
			c-11.6,14.4-12.3,21.9-0.3,36c25.5,30,40.6,66.3,52.8,103.4c44.7,135.9,74.7,274.8,72.5,418.6c-1.8,119.5-5.5,239.2-24.4,357.4
			c-18.4,115.2-73.4,213.4-147.8,301.8c-38.4,45.6-83.3,83.5-131.9,117.7c-67.6,47.6-143.5,68-224.8,72.2
			C1740.3,2903.6,1595.8,2903.1,1451.4,2905.9z M1453,2856.3c139-2.8,278.1-2.2,417.1-8.9c55.7-2.7,111.8-8.1,161.7-35.7
			c160.8-88.9,264.4-222.5,305.7-402.1c16.6-72.2,15.5-146.7,21.5-220.3c15.2-185.7-4.1-366.8-64.1-544
			c-36.5-107.7-108.8-169-218.9-189.2c-69.6-12.7-140.2-15.2-210.5-18.6c-74.2-3.6-148.6-6.4-221.3,15.3
			c-56.2,16.8-88.3,53.1-95.2,111.8c-8.9,76.3,34.8,132.6,110.3,142.9c40.2,5.5,80.5,1.6,120.8,3.4c45.6,2,91.7,2.7,133.6,24.3
			c76.6,39.5,104.1,108.3,109.6,189.1c4.4,64.3-5,127.2-20.2,189.4c-16.9,68.9-30.5,138.9-67.7,201c-38,63.4-90.1,106.7-164.1,122.7
			c-76.1,16.5-153,20.2-230.3,18.1c-105.4-2.9-211-2.1-315.5-19c-130-21-216.9-91.9-252.4-220.1c-27.1-97.8-23.6-197.2-4.3-295.4
			c12.9-65.7,53.1-111.5,118.7-133c40.8-13.4,81.9-25.6,123.3-37.1c73.6-20.4,149.1-33.3,222-56.2c33.5-10.5,48.8-31.9,50.5-66.7
			c4.9-100.4-62.5-177.8-162.3-187.9c-52.6-5.3-104.6,0.1-156.8,4.7c-70.3,6.3-140.5,14.2-207.1,38.8
			c-173.4,64-284.2,189.6-349.2,359.1c-17,44.4-32.6,89.6-32.1,138c1.1,95.4,2.7,190.8,0.6,286.2c-1.9,89.3-2.8,178.7-4.6,268
			c-0.4,20.5,2.3,40.3,10.2,59.1c17.1,40.6,39.5,78.4,72.8,107.6c114.8,100.7,246.7,160.4,401.5,162
			C1188.4,2865.2,1320.7,2859.6,1453,2856.3z M1020.1,157.9c-20.7,4.9-38.4,8.5-55.8,13.3C648.8,258.4,518.7,645.7,759.4,907
			c9.7,10.5,16.8,13.4,29.8,4.2c23-16.3,48.6-28.8,75.2-38.3c152.7-54.8,306.4-56.3,460.1-4.7c48.8,16.4,93.8,40.9,125.4,83.4
			c10.5,14.2,14.9,11.9,25,0.1c67.2-79.1,150.5-130.6,254.8-144.9c83.4-11.5,167.3-12.9,251.3-12.4c69.5,0.4,138,9.6,204.5,30.2
			c15.5,4.8,22.9,0.8,31-11.6c102.3-155.4,128.9-322.1,72.2-499.8c-34.2-107.2-102.7-178-220.6-189c-37-3.5-74.1-7.7-114.5-2.1
			c8.2,6.8,13.9,11.3,19.4,16.2c77.9,68.8,112.8,154.8,103.5,258.5c-0.4,4.1,1.6,11.5-5.2,11c-13.3-0.9-27.6-1.2-39.4-6.4
			c-9.8-4.3-3.4-17-3.2-25.9c1.9-83.5-28.8-152.4-94.1-204c-32.1-25.4-68.1-47.9-110.9-46.8c-210.2,5.4-420.3,12.3-630.4,18.6
			c-71.8,2.1-128.8,32.7-172.9,88.9c-47.4,60.5-73.1,130.5-89.4,204.5c-7.7,35.1-7.1,34.8-41.1,28.1c-10.5-2.1-13.2-6.9-11.3-16.6
			c16.8-86.5,43-169.1,98.2-239.8C989.5,191.7,1004,176.4,1020.1,157.9z M1522.5,1674.3c-17.5,45.6-51.5,63.6-91.6,73.3
			c-10.4,2.5-20.7,5.3-31.1,7.8c-99.5,24.2-199.5,46.1-296.6,79.5c-50.7,17.4-78.6,52.6-88.1,102.8c-14.7,77.8-17,156.5-2.2,234.3
			c24.3,128.5,95.4,195.4,223.8,216.3c53.2,8.6,106.7,12.1,160.4,13.7c110,3.3,219.9,8.9,329.8-5.6
			c92.9-12.3,152.5-63.4,186.4-148.3c13.2-33,23.6-67,31.5-101.7c15.5-68.7,33.6-137.1,30-208.5c-4.8-96.4-41.7-172.3-163.7-176
			c-43.6-1.3-87.3-1.3-130.9-3.1C1616.4,1756.4,1559.8,1738.3,1522.5,1674.3z M1315.1,917.9c-1.8,164.9-118.2,257.6-213.7,268.7
			c-54,6.3-104.1-5.9-149.5-35.7c-73.6-48.3-112.3-118.2-122.4-206.5C740.5,994.9,689,1067.8,681,1167.7
			c-10.1,125.7,37.8,233.6,108.7,333.5c5.2,7.3,9.3,9.3,17.7,3.5c88.2-61.2,187.5-92,293.2-102.5c107.6-10.6,216.1-32.9,321.1,15.9
			c0.9-3,2-4.9,2-6.8c4.2-128.9,6.3-257.9,1.8-386.8c-0.5-13.9-2.6-28.1-11.5-40C1389,950.8,1353.4,933.4,1315.1,917.9z
			 M1508.9,1511.7c27.7-50.2,27.5-50.5,73.1-85.1c8.1-6.2,7-11.9,4.3-19c-10.1-25.9-14.4-53-16.8-80.4
			c-9.4-111.7,26.6-206.1,114.6-276.1c83.7-66.7,181.3-88,286.1-68.4c76.4,14.3,145,47,194,109.7c76.5,97.9,78.4,204.6,31.3,315.4
			c-12.4,29.1-12.6,28.9,14.7,46.2c28.8,18.2,29.8,19,49.9-7.8c85.3-113.8,123.4-240.7,97.1-382.2c-15.7-84.5-61.1-148-145.1-178.7
			c-53.2-19.4-107.9-32.4-164.3-37.3c-92.7-8.2-185.1-2.7-277.7,3.7c-124.8,8.7-217.1,70.1-287.6,169.8c-4.8,6.8-7.5,13.7-7.1,22.3
			c5.8,133.7,0.2,267.3-3,401c-0.2,6.6-1.4,13.4,3,19.4C1486.7,1480,1497.8,1495.9,1508.9,1511.7z M1905.3,1024
			c-18.4,1.1-36.2,2.4-54.1,5.5c-166.8,28.9-262.8,171-226.3,335.6c8.3,37.5,8.1,36.2,46,30.6c20.4-3,23.2-8.8,17.6-28.6
			c-30.1-106.2,24.4-205,130-237c40.2-12.2,81.6-14.6,123.4-8.2c78.9,12.1,135.2,52.9,162.4,129.2c17.1,47.8,15,96.2,0.2,144.4
			c-1.5,5-9.7,14.4,2.1,15.8c10.2,1.3,22.3,16.3,31.3,0.4c50-87.6,58.3-197.8-6.9-282.6C2074.5,1055.9,1993.2,1031.6,1905.3,1024z
			 M1827.1,1386.4c61.7,1.6,123.3,5.8,184.8,11.2c42,3.7,41.9,4.5,50.7-36.8c19.6-92.3-28.9-170.6-117.2-188.4
			c-26.4-5.3-53.2-4.4-80.1-1.9c-103.6,9.6-162.6,105.1-124.4,201.4c4.3,10.8,9.3,15.8,21.9,15
			C1784.1,1385.4,1805.7,1386.4,1827.1,1386.4z M1074.9,1138.5c55.7,0.5,99.1-25.2,134.7-65.4c40.2-45.3,57.5-99,54.4-159.4
			c-1.2-22.9-21.2-16.7-33.5-20.2c-13.8-3.9-8.9,9.9-10.1,16.3c-8.7,47.5-27.8,89.4-63.3,122.9c-68.7,64.8-154.7,56.2-208.9-21
			c-18.8-26.8-29.7-56.8-36-88.8c-0.8-4,3.4-13.3-8.3-11.9c-18.8,2.2-26.3,10-24.6,28.4c0.7,8,1.9,16,3.1,23.9
			C896.9,1058.9,984.2,1138.3,1074.9,1138.5z M1102.3,879.5c-43.1,0.7-85.7,5.2-128,13c-9.2,1.7-17,2.9-14.7,15.8
			c6.6,38,20.9,72,50,98.4c22.3,20.2,47.5,26.1,76.1,14.5c46.1-18.6,81-71,86.8-126.7c1-9.9-4.7-10.8-12-11.3
			C1141.1,882.1,1121.7,880.8,1102.3,879.5z"/>
		<path class="st0" d="M1475.7,2560.5c89.9-1.9,185.4-11.5,279.3-32.4c149.2-33.2,252.9-123.2,311.8-263
			c32.9-78,55.4-159.9,65.9-244.1c24.8-198.8-70.8-338.7-265.6-390.5c-76.9-20.5-154.9-24.4-233.7-13.5c-8.1,1.1-20.3,7.1-24-0.8
			c-5.7-12.3-6.6-27.1-8.1-41c-0.5-4.5,5.8-4.5,9.7-5c135.8-19.5,267.1-7.4,388.3,62c124.9,71.6,189.4,181.4,186.7,325.1
			c-2.6,138.8-40.3,269.9-106.4,392.1c-28.8,53.2-68.9,97.7-116.7,134.6c-12,9.3-14.8,17.2-11,31.4c12.4,46.5,10.7,92.8-4.9,138.5
			c-13.6,39.7-40.3,64.3-82.5,70c-41.6,5.6-83,7.2-121.6-13.8c-6.3-3.4-8.8-1.4-13.3,2.6c-57.7,51.3-137.9,59-202.6,19.8
			c-4.3-2.6-7.8-7.8-14.1-3.2c-16.4,12.1-35.6,10.1-54.4,10.2c-24.2,0-48.4,0.3-72.6-0.2c-61.7-1.2-107.9-42.4-116.6-103.8
			c-0.8-5.3-2.5-10.9-1.5-16c5.3-27.1-10.7-32.3-32.7-37c-92.8-19.5-179.5-54.7-259-106.7c-77-50.3-138.2-115-150.9-209.1
			c-23.2-172.7-10.1-339.9,101.4-485c79.3-103.1,187.7-159.6,311.2-191.8c43-11.2,86.9-16,130.9-20.3c15-1.5,21.1,3.5,19.2,18.6
			c-0.7,5.9,0,12.1,0.5,18.1c0.8,8.5-2.3,11.7-11.2,12c-54.5,1.9-107.6,12.9-159.5,28.8c-148.7,45.5-261,132.6-317.5,281.8
			c-35.7,94.4-37.7,192.9-32.1,292.1c5.2,91.2,52.3,157,125.5,207.1c91.3,62.5,193.4,97.4,301.3,117.1
			C1352.7,2555.8,1410.9,2559.2,1475.7,2560.5z M1910.4,2573c0.7-10.2-2-23.3-4-36.5c-1.5-9.9-5.3-10.6-13.3-6.4
			c-33.8,18-69.7,30.9-106.6,40.8c-9.3,2.5-13,6.7-12.4,16.7c0.8,16.1-1.3,32.1-4.7,47.9c-7.1,32.6-3.3,37.7,30.4,41
			c7.3,0.7,14.7,0.9,22.1,1.2c57.7,1.9,73.8-11.1,85.4-67.3C1909.6,2599,1910.4,2587.8,1910.4,2573z M1624.6,2706.7
			c14.1,0.4,27.7-0.3,40.9-7.2c41.5-21.8,55.7-58.9,59.5-102.4c1-11-4.3-12.1-13.3-10.5c-40.2,7.1-80.6,12.6-121.3,15.9
			c-9.5,0.8-13.9,4.4-15.1,14.5c-2.4,20.1-8.5,39.4-19.2,56.6c-8.5,13.6-2.2,19.8,9.3,24C1584.5,2704.4,1604.6,2706,1624.6,2706.7z
			 M1428.4,2690.3c0,0.1,0,0.1,0,0.2c15.4,0,30.9,0.1,46.3-0.1c4.4-0.1,9.2,1.6,12.7-3.4c14.8-20.7,31.3-40.2,36.8-66.2
			c1.8-8.4,1.5-12.6-8.7-12.1c-63.2,3.1-126-1.1-188.7-8.4c-7.2-0.8-9.1,1.6-10,8.3c-5.7,40.8,26.4,80.2,67.3,81.6
			C1398.9,2690.8,1413.7,2690.3,1428.4,2690.3z"/>
		<path class="st0" d="M1539.5,775.4c-115.6,0-216.9-0.4-318.3-7.2c-237.5-15.9-425.6-162.2-497.1-389c-3.6-11.5-0.9-15,9.2-18.5
			c32.3-11.2,31.9-11.4,44,20.1c49.1,128.3,128,230.6,254.9,290.5c16.9,8,35.4,12.7,52.4,20.4c19.1,8.6,22.3,0.1,23.7-16.9
			c2.3-29.4,7.3-58.5,10.3-87.9c5.2-51.8,49.5-72.2,84.8-73.1c42.8-1.2,86.7-4.2,121.8,28.6c6.1,5.7,8-0.9,10.8-3.7
			c52.1-52.3,95.6-55,155.5-8.5c7.4,5.7,9.1,2.8,13.6-2.5c40.3-48.4,127.1-66.1,183.5-37.7c27.8,14,45.5,36.8,56.6,65.4
			c17.6,45.6,21.1,92.9,16.1,140.8c-2.2,21.1,4.9,24.4,23.8,22.5c50.1-5.3,100.2-10.2,148.8-24.4c112.6-32.9,182.2-111,226.1-215.9
			c23.8-57,34.7-116.9,39.6-178.1c1.1-14.1,6.1-16.1,18.4-15c33.8,2.9,33.2,2.3,29.7,35.7c-9.7,90.6-32.7,176.7-82.1,254.4
			c-70.5,110.9-173.9,167.7-302.2,184.2C1751.1,774.1,1638.1,771.8,1539.5,775.4z M1622.2,725.1c0-0.8,0-1.6,0-2.4
			c24.1,0,48.3-0.4,72.4,0.2c10.8,0.3,16.2-3.5,16.9-14.4c2.8-44.2,4.8-88.3-11-131c-13.1-35.3-33.3-50.3-70.9-50.8
			c-8.7-0.1-17.4,0.9-26.1,1.7c-54.1,5.5-76.9,35.7-66.6,89.2c5.9,31.1,9.3,62.4,4.6,93.9c-1.7,11.3,1.9,14.1,12.4,13.9
			C1576.6,724.7,1599.4,725.1,1622.2,725.1z M1419.2,725.9c0,0,0,0.1,0,0.1c19.5,0,38.9,0,58.4,0c7.2,0,12.7-0.9,13.9-10.2
			c6.6-51.4,1.8-100.3-29.2-144c-14.6-20.6-36.2-28.2-59.9-21.8c-25.9,7-35.4,28.9-45.4,50.1c-17.8,37.6-9.1,77.8-10.8,117
			c-0.4,9.2,6.8,8.6,12.7,8.6C1378.9,726,1399.1,725.9,1419.2,725.9z M1296.1,657.3c-2.9-22,1.7-44.1-2.1-66.2
			c-1.9-11.1-6-19.4-17.2-22.1c-28.2-6.6-56.7-10.9-85.4-3c-11.6,3.2-20.5,9.5-22.8,22.6c-6.2,36.3-9.9,73-13,109.7
			c-0.6,7.1,1.1,11.3,8.9,12.6c39.7,6.7,79.8,9.4,119.9,12.1c8.8,0.6,11.9-2.9,11.8-11.5C1295.9,693.5,1296.1,675.4,1296.1,657.3z"
			/>
		<path class="st0" d="M1466.5,2158.7c-65.9,0-119.5-53.3-119.6-118.9c0-65.3,54-119.3,119.5-119.4c65.8-0.1,119,53.2,119.1,119.2
			C1585.6,2105.9,1532.8,2158.7,1466.5,2158.7z M1535.5,2039.7c0-38.8-29.8-69.4-68.1-70c-38.5-0.6-70.5,31.2-70.5,70.2
			c0,38.1,30.8,69.4,68.7,69.9C1504.6,2110.3,1535.5,2079.3,1535.5,2039.7z"/>
		<path class="st0" d="M1717.7,1917.7c-0.1,44.2-35.8,79.8-79.4,79.3c-43-0.5-79.3-37.8-78.6-80.9c0.7-43,35.9-76.6,79.2-77.6
			C1681,1837.5,1719.9,1876.3,1717.7,1917.7z"/>
		<path class="st0" d="M1293.7,2085.2c43.9-0.1,79.8,35.6,79.4,79.1c-0.3,42.7-35.6,78.2-78.3,78.7c-43.7,0.6-79.9-34.9-80-78.7
			C1214.7,2119.8,1249.8,2085.9,1293.7,2085.2z"/>
	</g>
</g>
</svg>
