<?xml version="1.0" encoding="utf-8"?>
<!-- Generator: Adobe Illustrator 23.0.0, SVG Export Plug-In . SVG Version: 6.00 Build 0)  -->
<svg version="1.0" xmlns="http://www.w3.org/2000/svg" xmlns:xlink="http://www.w3.org/1999/xlink" x="0px" y="0px"
	 viewBox="0 0 3000 3000" style="enable-background:new 0 0 3000 3000;" xml:space="preserve">
<style type="text/css">
	.st0{stroke:#000000;stroke-width:10;stroke-miterlimit:10;}
</style>
<g id="Layer_1">
</g>
<g id="Layer_2">
	<g>
		<path class="st0" d="M1063.6,1289.9c17.3-38.7,36.5-73.1,62.4-103.3c95.5-111.2,217.9-157.7,361.9-144.4
			c176.2,16.3,305,110.6,401.2,254.6c4.5,6.7,8.7,13.5,13,20.3c0.3,0.5,1.1,0.8,2,1.4c8-2.7,6-10.9,7.8-16.5
			c47-148,144.2-239.4,300-260.4c115.9-15.6,218.2,21,308.4,93.6c52.5,42.2,93.2,94.1,125.1,153.1c17.2,31.8,35,63.4,50.3,96.1
			c31.4,67.2,79,120.2,136.7,165.9c45.1,35.7,79.1,79.5,88.3,139.1c21.4,139.5-99.3,259.4-238.6,237.6
			c-72.8-11.4-127.6-49-169-108.6c-19.5-28-38.8-56.3-59.5-83.4c-23.6-30.8-53.2-54.2-94.5-42.4c-41.4,11.8-61.3,45.4-70.8,85.4
			c-8.3,34.9-2.6,69.3,6,103.3c4,15.6,8.2,31.1,13.3,46.3c4.1,12.2,2.9,18.1-11.6,22c-31.4,8.5-30.6,9.4-40.2-22.5
			c-15.6-51.7-26.3-103.6-16.3-158.1c12.3-66.7,64.2-120.4,127.1-127.6c38.3-4.4,70.8,9.8,99.3,34.8c33.2,29.2,55.2,67.1,79.9,102.8
			c26.4,38.2,56.2,71.4,101.1,88.4c110.6,42,216.2-22.2,226.4-138.5c4.7-53.4-20.3-94.2-58.2-128.6c-11.9-10.8-24.4-21-36.9-31.1
			c-53.6-43.3-93.7-96.9-124.5-158.3c-21.3-42.5-41.7-85.5-67.2-125.7c-65.5-103.3-154.5-174.7-277.8-193.5
			c-171.5-26-316.2,74.8-354.2,244c-16.7,74.2-21.7,149.3-18.7,225.5c3.6,90.3,12.2,180.8,2.3,271.2c-3.1,28.6-8.5,57-12.1,85.5
			c-1.6,12.1-5.7,14.8-18.1,11.6c-31.8-8.3-32.7-7.7-26.3-41.1c18.6-96.6,10.1-193.8,6.6-290.8c-2.1-59.7-3.9-119.2,2.3-178.8
			c0.8-8.1,1-16-2.7-23.6c-69-140.1-170-246.1-324-289.4c-134.2-37.7-259.4-17.9-366.4,77.5c-52.4,46.7-86.9,104.7-101.8,174
			c-3.2,15-1.5,29.1,1.5,43.6c17.3,84.8,15.8,170.6,12,256.4c-4.4,99.8-11.2,199.6,11.6,298.3c1.9,8.4-0.9,11.8-9.3,13.8
			c-46.2,11.3-35.1,14.5-44.2-25.5c-11.7-51.4-12-103.9-11.8-156.1c0.3-69.7,4.3-139.3,6.5-209c2.2-71.4-3.8-142.1-22.5-211.2
			c-61.6-227.7-293.7-283.4-462.9-193.8c-76.2,40.3-134.1,99.6-175.9,174.5c-21.2,38-41.7,76.4-60.9,115.4
			c-30.7,62.6-74.3,114.2-128.2,157.8c-19.3,15.6-38.3,31.4-54.1,50.9c-40.2,49.6-43.5,103.9-18.9,160.4c25,57.4,70.5,88.3,133,91.8
			c66.2,3.7,120.7-20.7,160.8-74c19.7-26.2,38.1-53.4,57-80.3c10.4-14.8,21.7-28.9,34.8-41.5c69.5-66.4,163.1-52.8,212.1,30.4
			c31.4,53.3,29.7,110.1,17.7,167.7c-4.6,22.2-12.6,43.7-17.9,65.7c-2.4,9.9-6.8,12-15.4,8.4c-0.6-0.2-1.3-0.2-2-0.3
			c-33.6-8.6-33.9-8.7-24.2-41.6c11.7-40.1,21.6-80.3,16.9-122.6c-3.8-34.2-18.6-62.9-45.6-84.3c-28.2-22.5-61.8-22.5-91.1-1.4
			c-17.7,12.7-31.1,29.2-43.9,46.6c-31.2,42.6-56.6,89.7-98,124.3c-90.6,75.7-241.6,72.7-315.7-27.6
			c-59.9-81.1-55.9-186.7,10.6-262.6c18.2-20.8,39.7-37.9,61-55.3c43.6-35.8,77.9-78.6,104.2-128.7
			c33.2-63.4,61.8-129.7,106.6-186.4c84-106.1,191-173.7,328.8-176.4c145.2-2.9,257.2,58.9,327.6,189.2
			C1057.5,1278.4,1059.7,1282.5,1063.6,1289.9z"/>
		<path class="st0" d="M1401.3,1862.5c0,27.9,0.5,50.3,6.8,71.5c4.1,14-0.2,18.6-12.7,22.1c-31.7,8.8-32.2,9.3-37.7-23.4
			c-17.8-105.9,7-204,60.7-294.5c35-59,106.5-57.5,146-0.4c22.8,32.9,28.8,71.6,36.7,109.5c13.1,63,20.5,126.8,23.7,191.1
			c0.8,15.2-3.3,21.1-18.4,19.1c-4.6-0.6-9.5-0.4-14,0.4c-13.6,2.4-16.5-3.7-17-16.4c-3.1-76.5-13.9-151.9-31.4-226.4
			c-3.9-16.4-9.2-32.2-18.4-46.4c-20.9-32.2-50.4-32.7-69,0.5C1422,1730.8,1402.7,1797.1,1401.3,1862.5z"/>
	</g>
</g>
</svg>
