<?xml version="1.0" encoding="utf-8"?>
<!-- Generator: Adobe Illustrator 23.0.0, SVG Export Plug-In . SVG Version: 6.00 Build 0)  -->
<svg version="1.0" xmlns="http://www.w3.org/2000/svg" xmlns:xlink="http://www.w3.org/1999/xlink" x="0px" y="0px"
	 viewBox="0 0 3000 3000" style="enable-background:new 0 0 3000 3000;" xml:space="preserve">
<style type="text/css">
	.st0{stroke:#000000;stroke-width:10;stroke-miterlimit:10;}
</style>
<g id="Layer_1">
</g>
<g id="Layer_2">
	<g>
		<path class="st0" d="M1089.4,392.1c397,1.9,780.9,67.9,1144,234.9c186.3,85.7,356.3,196.2,507.9,334.7c21.6,19.8,43,39.7,59.7,64
			c37.1,53.7,25.7,116.4-28.3,153.2c-46.5,31.6-97,29.8-148.9,17.5c-8.4-2-19.4-11.4-26.2-1.3c-5.6,8.4,2,18.7,6.5,27.2
			c13.8,26,37.8,38.7,64.3,47c26.9,8.4,54.6,14.5,81.3,23.5c85.1,28.6,132,91.2,147.9,176.6c15.5,83.3-10.7,154.5-76.5,208.5
			c-19,15.6-24,22.8-2.8,42.1c47.1,43,77.2,97.4,89.9,160.5c10.4,51.6-6.4,87.1-54.1,110.3c-17.6,8.6-20.3,15.9-14.8,35.2
			c31.6,111.9-0.1,210.3-72.7,296.1c-97.7,115.6-228.4,175.8-372.1,211.4c-153.2,37.9-309.1,35.6-465.1,26.9
			c-99.2-5.6-198.2-13.9-295.2-37.5c-66.5-16.2-130.6-38.5-190.1-73.1c-8.2-4.8-17-15.9-24,3c-48.2,129.4-148.9,186.9-279.8,200.2
			c-148.8,15.2-298.1,16.9-446.1-5.1c-225.3-33.5-385.1-160.6-496.5-355.8c-62.6-109.7-94.9-227-106.3-352
			c-11.4-125.1-23.6-249.9-29.7-375.5c-9.1-185.2,17.4-365.1,68.3-542.3c24.7-86.1,51.1-171.4,91.2-252.1
			C323.4,563.9,487.7,446.2,716.3,416C840.3,399.6,964.5,391.9,1089.4,392.1z M1099,440.1c-130,1.6-249.5,8.1-368.7,23
			c-215.4,26.8-374.1,134-465.7,331.1c-92.5,198.8-144.1,409.3-154.3,628.6c-7.5,162,11.9,323,26.3,484.2
			c12,133.8,42.2,260.1,112.5,376.8c99.2,164.7,235.7,277.2,427.3,311.5c160.3,28.7,322.7,26.5,483.6,5.4
			c132.6-17.4,211.3-97.6,229.4-221.6c17.3-118.9-21.5-219.1-110.3-299.3c-74.3-67.2-162.5-106.4-261.2-120.7
			c-25.7-3.7-30.9-13.3-25.4-37.3c6.2-27.3,25.1-14.4,36.8-12c55.3,11.7,110.7,22.3,166.6,30c156.7,21.7,309.6,14.7,450.6-67.4
			c124.6-72.6,257.8-108.3,402.4-98.7c32,2.1,61.5-5.2,90.2-19.4c54.8-27.1,113.4-39.5,174-46.1c74.2-8.1,148,1.2,222,0.5
			c79.4-0.8,158.1-7.1,228.6-49c92.6-55,116.1-161.7,58.3-252.8c-32.8-51.7-83.7-69.7-138.8-82.7c-41.2-9.7-80.4-23.9-108.7-58.2
			c-28-34-34.6-79.1-16.8-111.7c9.1-16.5,19.2-23.5,39.6-16.5c33,11.4,66.9,20.6,102.9,16.8c31.4-3.4,57.2-16.2,69.9-45.4
			c12.1-28-3.6-50.9-21.4-71.3c-8.3-9.5-17.4-18.4-26.6-27.1C2572.7,870.7,2404,759.9,2218.8,674
			C1860.5,507.7,1481.1,443.3,1099,440.1z M1253.8,1995.4c10.7,9.1,14.8,12.9,19.2,16.3c119.4,90.9,182.9,207.5,165.7,360.9
			c-1.7,15.1,6.2,20.6,16.5,27c45.8,28.5,95,49.2,146.7,64.1c143.7,41.4,291.6,48.1,439.6,52.3c129,3.7,257.2-3.5,381.8-40.8
			c118.6-35.4,226.5-89.5,307.5-186.5c60.2-72,86.1-153.8,63-247.5c-4-16.3-10.3-24.9-30.3-19.6c-35.7,9.4-70,1.4-100.4-18.8
			c-13.4-8.9-22.9-8.1-36.7-1.1c-57.2,29.2-119.1,27.5-180.1,19.7c-20.2-2.6-33.6-0.8-49.9,10.6c-66.6,46.6-140.6,65.2-221.5,51.9
			c-60-9.8-90.9-40.6-99.8-101.2c-6.5-44.3-13-88.7-16.1-133.3c-1.5-22.1-10.2-26.3-30-27.5c-124.7-7.6-238.8,25.7-346.4,86.2
			c-75.2,42.3-154.2,73.8-240.8,84.2C1382,1999.8,1322.1,1999.3,1253.8,1995.4z M2217.2,2039c59.6-0.3,106.6-16.7,150.1-44.8
			c12.6-8.1,15.9-14.7,7.6-30.1c-31-57.4-47.1-119.5-45.2-184.9c0.6-21.1-4.8-24-23.7-22.3c-68.1,6-129.2,33.9-191.3,58.9
			c-9.6,3.9-9.5,10.6-8.5,18.9c5.8,48.3,10.4,96.7,17.3,144.8c5,34.5,22.8,50.9,57.6,56.3C2195.5,2038.1,2210.2,2038.5,2217.2,2039z
			 M2625.8,1822.3c0.8,19.9,3.7,43.9,11,67.3c22.4,72.2,74.6,100,146.3,77c15.7-5,31-11.3,46.2-17.5c26.4-10.7,36.5-30,31.1-58.1
			c-9.7-50.2-35.2-91.8-68.2-129.8c-24-27.6-49.3-46.9-87.1-24.2c-5.6,3.4-13,3.8-19.6,5.3C2626.7,1756,2626.7,1756,2625.8,1822.3z
			 M2480.2,1756.3c0-0.9,0-1.8,0-2.6c-26.3,0-52.5,0.8-78.7-0.3c-15.6-0.7-22.6,3.1-23.1,20.4c-1.6,61.9,12.9,119.4,42.7,173.3
			c6.8,12.4,16.3,22.9,30.3,25.5c49.6,9.4,98.6,5.1,146.4-10.9c8.4-2.8,16.3-6.5,9.3-18.6c-30-52.2-32.3-109.2-27.1-167
			c1.4-15.1-1.7-20.9-18.1-20.1C2534.8,1757.3,2507.5,1756.3,2480.2,1756.3z"/>
		<path class="st0" d="M2298,993.6c69.9,11.3,138.3,15.3,206.4-4.2c32.3-9.2,63.5-22.2,86.2-47.1c20.6-22.7,31.4-4.9,44.1,6.5
			c17.7,15.9-2.9,22-9.9,28.5c-66.9,61.5-149.7,75.9-236.2,74.6c-72.3-1.1-143-17-213.9-29.8c-3.8-0.7-7.6-1.7-11.5-2.2
			c-36.2-5.3-36.2-5.3-30.5,31.6c11.6,74.7-14.3,128.3-81,165.3c20.1,12.5,40.7,23.4,58.9,37.3c25.1,19.1,46,42.5,53,74.7
			c1.6,7.5,12.9,20.9-3.3,22.8c-13.5,1.5-34.1,14.1-41.4-6.5c-15.6-44.3-51.3-63.8-89.8-81.9c-36-16.9-74.2-29.6-105.6-55.5
			c-83.1-68.5-70.4-176.2,26.8-223.3c60.9-29.5,125.4-23,189.5-16.6c25.2,2.5,50.8,5,74.9,12c29.1,8.5,39.7-5.6,45.3-29.5
			c1.8-7.5,3.3-15.8,2-23.1c-4.4-24.6,9.4-25.4,28.3-26.4c25.3-1.4,19.4,15,20,28.6C2311.5,951.2,2305.7,971.8,2298,993.6z
			 M1985.5,1177c40-0.1,71.3-10,89.3-44.4c19.7-37.6,12.5-75.3-1.9-112.6c-1.9-4.9-6.1-6.7-11.2-8c-39.5-10.2-111.8,19.5-133.7,55.1
			c-13.8,22.5-16.3,46.4-2.8,69C1939.3,1159.8,1955.7,1182.6,1985.5,1177z"/>
		<path class="st0" d="M2115.1,730.4c35.8-0.5,65.7,30.5,65.3,67.6c-0.4,37.3-36.6,67-83.6,68.6c-35.4,1.3-62.8-25.3-63.2-61.3
			C2033.1,766.8,2072.2,730.9,2115.1,730.4z M2099.7,816.7c10.2-6.5,31-0.3,30.1-22.1c-0.4-8.8-5.9-17.3-16.9-15.1
			c-14.6,3-28.1,9.8-30.3,26C2081.4,814.5,2090.2,817.5,2099.7,816.7z"/>
		<path class="st0" d="M1641.7,957.8c-0.6-38.5,38.2-74.6,81-75.3c36-0.6,65.9,30,65.8,67.2c-0.2,38-39.1,69.3-86.1,69
			C1668,1018.5,1642.2,992.6,1641.7,957.8z M1706.8,968.8c10.8-5.6,29.2-0.8,31.2-19.5c0.9-8.4-3.3-18.5-14.8-17.7
			c-15.7,1.1-28.6,9.1-32.6,24.5C1688,966,1698.4,967.5,1706.8,968.8z"/>
		<path class="st0" d="M1606.5,1167.7c0-44.4,34.7-85.1,72-84.3c33.2,0.7,66.4,33,66.9,65.1c0.6,37.8-43.2,82.6-80,81.9
			C1631.8,1229.7,1606.5,1202.7,1606.5,1167.7z M1695.1,1152.4c-0.3-11.4-6.8-17.7-16.3-17.3c-17.6,0.7-19.9,16.3-23.7,28.9
			c-2.6,8.7,2.9,17.7,11,16.9C1682.6,1179.5,1688.5,1164.7,1695.1,1152.4z"/>
		<path class="st0" d="M1901.5,1533.9c-33.5-0.5-60.3-28-60.1-61.8c0.2-43.2,36.5-85.4,72.8-84.5c34.9,0.9,68.5,34.7,67.4,67.8
			C1980.3,1492.3,1937.4,1534.4,1901.5,1533.9z M1910.8,1438.4c-13,5.2-17.7,17.7-19.6,31.4c-1.1,8.5,3.7,17.9,12.5,15.4
			c14.6-4.3,24.8-16.5,27-31.5C1932.2,1443.5,1922.3,1439.7,1910.8,1438.4z"/>
		<path class="st0" d="M1747.6,1281.2c36.5,0.2,65.6,28.9,65.3,64.3c-0.4,37.3-43.6,81.6-78.8,80.8c-33-0.8-59.4-28.8-59.8-63.5
			C1673.8,1317.6,1706.7,1280.9,1747.6,1281.2z M1764.3,1346.4c-1-10.3-7.4-16.9-16.7-16.6c-17.3,0.5-20.9,14.9-23.4,28.4
			c-1.4,7.7-0.3,17.8,10.1,17.1C1751.3,1374.2,1756.7,1358.8,1764.3,1346.4z"/>
		<path class="st0" d="M1923.8,815.1c0,39.8-36.4,69.4-84.9,69.1c-33.8-0.2-61.2-27.3-61.8-60.9c-0.6-38.6,41.6-76.2,84.9-75.6
			C1896.5,748.2,1923.8,778,1923.8,815.1z M1845,834c10.3-4.4,27.6-1.7,29.7-19.2c1.2-9.9-5.1-19.7-17.3-17.8
			c-14.7,2.3-28.1,9.3-29.9,26C1826.5,832.6,1835,835.1,1845,834z"/>
	</g>
</g>
</svg>
