<?xml version="1.0" encoding="utf-8"?>
<!-- Generator: Adobe Illustrator 23.0.0, SVG Export Plug-In . SVG Version: 6.00 Build 0)  -->
<svg version="1.0" xmlns="http://www.w3.org/2000/svg" xmlns:xlink="http://www.w3.org/1999/xlink" x="0px" y="0px"
	 viewBox="0 0 3000 3000" style="enable-background:new 0 0 3000 3000;" xml:space="preserve">
<style type="text/css">
	.st0{stroke:#000000;stroke-width:10;stroke-miterlimit:10;}
</style>
<g id="Layer_1">
</g>
<g id="Layer_2">
	<g>
		<path class="st0" d="M1749.2,166.5c94-117.1,217.4-123.1,349-88.8c216.6,56.5,373.1,260.2,371.6,484.9
			c-0.7,105.4-7,210.7-12.1,316c-5.1,105.4-4.9,210.8-3.8,316.2c1.1,109.1-9.9,217.3-23.3,325.3c-8.6,69.7-15.6,139.5-31.7,208.1
			c-34.8,147.7-124,253.8-251.6,331c-35,21.2-35,21.3-6.8,52.1c58.6,64,108.3,134.1,141.7,214.4c49.4,118.9,55.3,235.5-26.3,344.6
			c-38.2,51-87.4,89.7-142.2,121.2c-106.2,61.1-221.8,96.4-340.8,121.1c-239.4,49.8-481,57.8-723.8,33.8
			c-108.8-10.8-215.2-32.4-314.7-79.9c-81.7-39-149.6-93.4-186.7-179c-38.3-88.4-31-177.6-1.7-266.4c31.5-95.4,83.4-179.5,146.5-257
			c16.7-20.6,16.8-20.1-4.9-34c-114.1-73.2-180-179.1-210.6-309.4c-18.3-78.1-25.2-157.7-31.5-237.3c-5.9-75.5-9.6-151.3-13.6-227
			c-12.7-244.9,33.8-479.4,121.7-707.2c37.4-96.8,78.3-191.1,141.6-274.2c98.6-129.3,231.4-202.3,388-237.4
			c110.2-24.7,221.4-34.4,334.1-34c73.1,0.2,146,2.2,218.6,8.5C1696.2,117.3,1708.6,125.4,1749.2,166.5z M2219.3,186.3
			c-8.2,72.3-36,104.6-103.7,122.1c-104,26.8-210.1,25.8-316.2,22.1c-31.9-1.1-38.8,4.7-40,36.7c-0.2,4.6,1.7,9.4,3,14
			c13.5,45.3,44.2,75.1,85.7,95.2c30.3,14.7,61.4,28.2,88,49.5c93.8,75.2,122.1,220.4,65.6,335c-43.6,88.4-114.4,147.8-203.4,185
			c-149.9,62.6-298.5,62-439.3-25.4c-156.5-97.1-211-297.2-126.3-451.3c13.4-24.3,13.4-24.3,38.3-12.9
			c168.8,77.2,368.4-6.1,431.1-179.8c2.4-6.7,3-13.2,3.1-20.1c0.2-15.1-5.4-19.3-21.3-18c-68.1,5.6-136.2,7.9-203.8-6.1
			c-16.1-3.3-32.2-7.4-47.9-12.7c-69-23.2-97.4-66.9-92.1-139.6c0.8-11.1,8.9-26.6-15.8-24.8c-78.4,5.6-156.1,15-232.9,32.5
			C949.1,220,827.5,285.8,737.3,403.2c-55.5,72.2-93.3,153.6-126.4,237.9c-87.3,222.2-140,450.7-129.1,691.1
			c3.6,78.4,7.4,156.9,13.2,235.2c6.1,81.7,12.8,163.4,31.7,243.5c29.8,126.1,95.5,225.9,210.9,289.4c5,2.8,10.9,9.5,16.4,4.7
			c2.9-2.5,1.9-10.3,1.6-15.6c-3.7-62.8,0.9-125.3,5-187.9c6-93.5,21.5-185.9,35.4-278.4c10.6-70.3,28.8-139.1,66.9-200.5
			c64.4-103.7,159.9-164.4,275.5-197.1c94.6-26.7,191.6-29.6,288.8-30.6c68.3-0.7,136.2,3.7,202.4,22.3
			c151.8,42.8,251.3,137.2,289.1,292.7c9.6,39.6,13.8,80,20.1,120c20.1,127.1,28,254.6,15.3,382.9c-2.8,27.9-6.4,55.7-9.9,86.1
			c80.6-32.4,157.4-65.5,225.6-116c89.5-66.3,151.2-151,178-260.3c14.8-60.4,22-121.8,29.6-183.3c13.3-108,27.5-216.2,25.4-325.2
			c-4-202.1,4.8-403.8,16.5-605.2c7.8-134.5-35-248.7-118.7-350.5C2277.9,230.8,2252.1,206.3,2219.3,186.3z M623.7,2364
			c35.6,0,66-1.5,96.1,0.4c30.9,1.9,61.8,5.7,92.2,11.2c43.4,7.8,86.5,18,120.4,49.4c44.7,41.4,46.3,96.5,4.7,140.5
			c-33,34.9-74,53.7-120.6,62c-71.5,12.8-143.6,12.1-215.7,7.7c-17.8-1.1-18,4.1-12.6,18c12.8,33.3,30.8,62.9,55.6,88.6
			c58.9,61,133.6,93.6,213,116.9c119.9,35.1,243.3,44.7,367.5,48.4c225.8,6.6,448.6-12.7,666.1-76.7
			c94.3-27.7,184.5-64.9,262.2-127.1c50.5-40.4,90.2-88.6,107.2-152.9c19.3-73.2,2.3-142.2-25.9-209
			c-37-87.5-95.2-160.7-160.9-228.5c-8-8.2-14.7-7.1-23.7-3.1c-24.5,10.9-49.3,21.2-74,31.6c-179.1,75.3-364.8,122.8-559.3,134.1
			c-208.5,12.1-410.5-19.4-606.8-89.4c-18-6.4-38.9-21-53.4-16.2c-15.9,5.2-26.5,28-38.5,43.8C682.7,2259.3,651.7,2306.9,623.7,2364
			z M945.3,2095.2c0.5,0,0.9,0,1.4,0c1.6,22.7,3.5,45.3,4.6,68c0.5,10.5,4.4,15.1,15.2,17.9c51.3,13.7,103.2,23.6,155.6,32.1
			c11.1,1.8,19.3-1,27.8-8.9c53.8-50.3,108.5-99.7,162.1-150.2c9.2-8.6,13.6-8.2,22.7-0.2c57.9,50.9,116.7,100.8,174.7,151.6
			c8.1,7.1,15.8,9.6,26.1,7.9c57.1-9.2,113.8-19.9,170.1-33.3c8.9-2.1,14.2-6.2,16.1-15.9c11.3-56.7,20.2-113.8,25.3-171.4
			c1.2-13-2.8-21.7-12.3-30.6c-50.4-46.9-99.6-95.1-150.5-141.5c-13.8-12.5-12.2-19.9-2.1-33c43.3-56.1,85.2-113.3,128.4-169.6
			c8.5-11.1,10.6-19.9,4.4-33.1c-33.2-70.3-86.3-119.8-155.6-153.4c-9.9-4.8-14.9-0.6-21.4,5.1c-53.6,46.4-107.6,92.3-160.8,139.2
			c-11.2,9.9-17.6,10-28.7-0.5c-48.5-45.9-98.2-90.6-147.1-136c-7.2-6.7-12.9-10.5-23.1-4.8c-83.9,46.4-149.4,109.5-185.1,200.5
			c-5.1,13.1-3.7,22.5,5,33.7c44.8,57.5,88.6,115.9,133.3,173.5c7.2,9.3,8.8,14.5-0.7,23.5c-49.1,46.2-97.5,93.4-146.2,140
			c-12.4,11.9-30.4,21.5-37.2,34.7C939.5,2055,945.3,2076.6,945.3,2095.2z M1775.2,2159.5c36-9.7,68.8-21.6,101.5-33.9
			c7.5-2.8,13.1-6.3,14.2-15.5c6.3-51.9,14.3-103.6,17.1-156c7.2-131.6-9-261.3-29.9-390.6c-27-167.3-121.8-267.2-286.8-303.7
			c-87.6-19.4-176.7-16-265.5-11.6c-59.8,3-119.2,10.2-177.2,27c-158.8,46.1-260,146.1-293.9,310.3
			c-10.4,50.6-16.4,101.9-24.2,152.9c-19.2,125.6-29.5,251.7-23.1,378.8c0.5,10.2,2.4,16.3,13.4,19.3c21.1,5.9,42.1,12.7,62.6,20.6
			c13.9,5.3,16.3,1.1,15.7-12.2c-2-43.3-4-86.7-4.2-130.1c-0.3-91.1,11.3-181.3,21.8-271.5c9.2-78.9,30-154,79.2-218.6
			c133.7-175.3,357.6-238.4,571.8-144.4c117.9,51.7,194.1,139.5,218.5,268.6c9.6,51.1,9.8,102.8,12.6,154.3
			c4.7,88.2,3.4,176.3-9.6,263.9C1784.8,2097.5,1780,2127.9,1775.2,2159.5z M1466.7,1013.8c10.1,7.7,21.4,8.4,31.7,11.2
			c92.2,25,173.1,12.8,233.7-69.7c25-34,45.6-70.4,63.5-108.4c5.6-11.7,10.2-13.1,21.3-7.4c10.8,5.6,21.1,14.3,34,13.9
			c38-1.3,69.8-17.3,99.1-40.9c25.6-20.6,30.6-47.5,29.4-77.4c-0.4-8.9-0.5-17.9-1.1-26.8c-7.9-106.6-96.1-188-202.9-190.3
			c-101.4-2.2-170,59.4-242.9,117.6c87.2,34.5,112.6,113.8,94.4,192c-14.1,60.8-52.3,105.2-99.5,142.8
			C1508.2,985.6,1487.5,998.9,1466.7,1013.8z M1889.6,278.7c73.6,1.2,147.4-0.1,218.8-21c47.9-14,63.1-37.9,59-87.3
			c-1-11.6-5-18.8-16.3-22.9c-55.9-20.2-112.6-36.4-172.6-36.6c-63.4-0.2-121.9,14.9-167.3,62.4c-23.4,24.5-44.7,50.6-39.5,88.9
			c1.6,11.8,4,17.1,16.7,16.8C1822.1,278.3,1855.9,278.7,1889.6,278.7z M679.5,2587.1c53.9,1,107.3-2.4,159.4-17.7
			c28.8-8.4,52-24.6,69.3-49.1c11.3-16.1,10.6-31.5-0.9-47.6c-17-23.7-42.6-32.1-68.5-39.1c-73.9-19.8-149.6-21.5-225.5-21.5
			c-8.6,0-12.2,3.9-14.8,10.8c-17.6,46.9-27,95.2-26.6,145.4c0.1,11.3,5.2,13.1,14.7,14.4C617.6,2587,648.6,2586,679.5,2587.1z
			 M1581.4,784.1c0-57.4-32.8-98.6-81.2-101.8c-10.5-0.7-19.9,0.3-28.2,8.8c-61,62.2-113,131.1-155.7,207.1
			c-5.3,9.5-4.3,15.8,2.8,23.6c22.3,24.7,48,45.1,76.3,62.5c6.4,3.9,11.6,4.9,18.6,0.6c34-20.8,68.7-40.7,98.1-67.9
			C1551.1,881.1,1580.7,840,1581.4,784.1z M1511.6,155.1c0-0.5,0-1,0-1.5c-33.7,0-67.5,0.1-101.2-0.1c-9.9-0.1-16.4,1.8-18.8,13.5
			c-11.6,56.6,8.1,90.1,63.4,106.7c79.5,23.9,160.6,19,241.7,12.8c3.3-0.3,7.8,0.1,8.1-4.4c1.3-22.4,16.7-42.3,10-66.2
			c-10.8-38.5-41.1-49.8-75.5-53C1596.9,159.1,1554.2,157.6,1511.6,155.1z M1460.6,631.3c-72.1,7.5-113,3.6-178.6-16.4
			c-7.3-2.2-14.1-5.9-18.5,4.8c-33.2,81.7-24,160.5,15,242C1329.2,775.6,1388.1,700.8,1460.6,631.3z M1242.1,1407.9
			c39.7,36.6,76.7,70.6,113.4,104.8c5.2,4.8,8.9,7,15.4,1.2c39.7-34.9,79.8-69.5,122.2-106.3
			C1408.6,1381.8,1327.4,1379.6,1242.1,1407.9z M949.6,1968.2c37.6-38.7,79.5-71.7,116.8-109.7c8.1-8.2,3.4-12.8-1.2-18.8
			c-19.6-25.6-38.8-51.6-58.9-76.7c-10.8-13.4-18.9-29.3-35.5-42.1C961.5,1804.9,949.5,1885.5,949.6,1968.2z M1451.4,2222.3
			c-33.9-29.1-62.8-54.3-92.1-79.1c-36-30.5-36-30.2-70.8,2.2c-26.4,24.6-53,48.9-82.8,76.4
			C1288.8,2229.5,1366.9,2227.5,1451.4,2222.3z M1751.3,1908.5c-1.8-83.1-3.7-160.4-13.2-243.1c-34.2,45.5-64.6,86-95.2,126.5
			c-3.9,5.1-5.1,9,0.2,14C1677.9,1838.6,1712.5,1871.6,1751.3,1908.5z M1919.8,892.6c-28,8-56.1,12.9-84.9,12.2
			c-7.6-0.2-13,1.8-16.7,9c-16.6,32.4-36.8,62.4-59.3,91.5C1822.8,982.6,1877.5,947,1919.8,892.6z M1710.1,473.3
			c16.3-2.6,27.8-4.4,41.4-6.5c-7.6-10.4-13.7-18.7-20.9-28.5C1723.6,450.3,1717.8,460.1,1710.1,473.3z"/>
		<path class="st0" d="M1930.2,2474.5c-2.9-21.5-14.8-37.3-28.4-51.6c-53.9-56.9-121.5-86.4-198.1-97.4c-27.3-3.9-55-6.1-82.4-3
			c-13.2,1.5-17.5-3.2-17.8-15.1c-0.2-7.5-0.9-15.1-1.9-22.6c-1.1-8.9,2.8-12.6,11.4-12.9c128.1-4.8,243.8,24.4,332.4,124.1
			c33.5,37.7,53.2,82.4,47.4,134.4c-5.9,52.3-30.5,96.6-65.4,134.7c-71.3,77.8-161.7,117.1-265.6,127.5c-7.5,0.8-15.1,1-22.7,1.5
			c-41.2,2.8-31.3,3.8-33.3-30.7c-0.9-15.4,3.6-19.8,19.4-19.7c72.7,0.2,139.6-20.4,201.6-58.4c17.1-10.5,16.2-18.4,5.5-33
			c-51.3-69.7-137.2-101-223.4-80.5c-6,1.4-14.5,7.8-18.1-1.3c-5.2-13.1-12.7-26.1-12.2-40.6c0.1-2.2,9.2-4.7,14.4-6.1
			c102.6-28.6,212.7,8.7,277.2,96.1c13.4,18.2,19.2,14,29.7-0.4c11.9-16.2,21.6-33.4,31-51.1c7.6-14.3,3.8-23.1-7.8-33.3
			c-85.3-74.8-184-110.9-297.6-106.5c-7.6,0.3-19.1,5.7-22.1-4.2c-4-12.8-5-27.1-4.2-40.6c0.4-7.5,10.3-4.3,16-4.7
			c113.2-7.6,215.1,23.4,306.7,89.6C1924.7,2470.7,1927.5,2472.6,1930.2,2474.5z"/>
		<path class="st0" d="M1281.4,2536.2c18.9,0.5,48.1,8.7,71.5,31.7c33.7,33.2,31,84.1-5.8,114.1c-41,33.4-109.3,35.4-152.4,4.5
			c-48-34.4-47.3-96.3,1.6-129.6C1217.9,2542.1,1242.2,2535.8,1281.4,2536.2z M1268.8,2657.5c17.7-0.2,34.4-3.8,47.5-16.5
			c12.8-12.4,12.6-25.8,0.1-37.7c-23.4-22.4-74.1-22.2-97.2,0.3c-13.4,13-13.1,26.5,1.4,38.9
			C1234.4,2654.1,1251.1,2657.7,1268.8,2657.5z"/>
		<path class="st0" d="M1284.2,2292c16.6-0.3,37.8,4.7,57.4,15.8c27.6,15.6,45.3,38.3,45.2,71.1c-0.2,32-17.4,55.2-44.7,69.2
			c-44.4,22.8-89.9,23.8-133.2-3.2c-52.5-32.8-52.6-98.6-1-133C1229.2,2297.8,1253,2292,1284.2,2292z M1279.1,2413.4
			c14.1,0.2,27.4-2.7,39.5-10c23-14,23.8-33.8,2-48.9c-24-16.7-64.8-15.8-87.7,1.9c-16,12.5-16.9,28.3-1.8,41.8
			C1244.7,2410.3,1261.5,2413.6,1279.1,2413.4z"/>
	</g>
</g>
</svg>
