<?xml version="1.0" encoding="utf-8"?>
<!-- Generator: Adobe Illustrator 23.0.0, SVG Export Plug-In . SVG Version: 6.00 Build 0)  -->
<svg version="1.0" xmlns="http://www.w3.org/2000/svg" xmlns:xlink="http://www.w3.org/1999/xlink" x="0px" y="0px"
	 viewBox="0 0 3000 3000" style="enable-background:new 0 0 3000 3000;" xml:space="preserve">
<style type="text/css">
	.st0{stroke:#000000;stroke-width:10;stroke-miterlimit:10;}
</style>
<g id="Layer_1">
</g>
<g id="Layer_2">
	<g>
		<path class="st0" d="M2199.5,1593c5.3,31.7,11.9,62.9,15.2,94.9c12.2,118-27.5,218.1-102.3,307
			c-77.9,92.6-178.4,134.5-297.9,138.7c-209.6,7.3-419.1,16.8-628.7,24.8c-189,7.3-377.9,16.5-567.1,18.7
			c-128.9,1.5-238.9-42.1-337-121.9c-159.3-129.7-245.1-295.9-232.5-502.7c13.6-221.2,110.4-402.3,291.2-533.2
			c63.5-46,141-63.3,216.4-81.6c138-33.4,278-54.8,418.8-72.3c276.8-34.2,554.7-41.8,833.2-32.2c187.9,6.5,375.7,16.9,562.4,41.2
			c88.4,11.5,175.2,29.8,254.3,72.7c124.1,67.2,206.9,171.6,258.4,300.7c53.9,135.3,75.5,277.6,73,422.6
			c-4.4,252.7-165.6,384.8-348.3,437.8c-70.6,20.5-142.5,28.8-215.4,12c-86.3-19.9-121.5-72.9-106.4-160
			c6.4-37.1,15.4-73.8,15.9-111.9C2304.1,1748.9,2266,1665.5,2199.5,1593z M2906.4,1618c-6.4-94.9-19.6-211.3-59.5-323
			c-44.9-125.6-118.4-229.4-236-297.3c-77.8-44.9-164.3-61.1-251.9-73.1c-98.4-13.5-197.5-20.1-296.5-26.9
			c-164-11.2-328.2-17.7-492.7-16.7c-16.2,0.1-19.5,5.3-19.4,20.5c0.6,125.9,0.6,251.8,0,377.7c-0.1,15.8,4.5,22.3,19.7,28
			c167.5,62.9,280.8,177.8,326.9,352.4c35.2,133.2,19.3,264.9-22.3,394.4c-7.3,22.6-6.8,22.6,17.5,18.3
			c80.2-14.2,139.8-60.4,189.6-121.6c58.8-72.2,89.4-153.5,82.8-248.1c-3.1-45.1-17.6-87.5-25.6-131.4c-3.3-18.3-4.8-37.2,14.2-48.8
			c18-11.1,34.9-4.6,50.9,5.8c4.7,3,9.6,6,13.6,9.7c91.5,85.9,138,191.1,136.2,317.3c-0.7,48.6-16.4,94.9-19.2,143.2
			c-1.5,26.2,9.3,44.3,31.5,56.7c12.9,7.2,26.7,12.1,41.1,15.3c60.3,13.5,119.8,6.8,178.3-9.3c103.3-28.4,192.1-79.3,254.5-169.5
			C2892.4,1816.2,2906.7,1730.3,2906.4,1618z M972.3,2121.7c0-3.1,0-6.3,0-9.4c28.6,0,57.3,0.5,85.9-0.2c28.6-0.7,57.2-3,85.9-3.8
			c8.4-0.2,14.5-2.7,20.2-8.7c21.9-23.2,39.3-49,48.8-79.7c19.6-63.4-6.3-141.8-79.4-161.4c-14.7-4-29.3-9.6-43-16.3
			c-33.2-16.3-58.3-40.1-57.9-80c0.4-41.3,22.8-69.7,59.3-86.6c89.3-41.2,250.5-11.5,282.8,135.9c19.6,89.2,19.7,178.8,5.7,268.7
			c-1.5,9.5-6.3,19.5,11.3,18.6c75.4-3.9,150.8-7.2,226.2-10c11.9-0.4,16.9-6.7,21.9-15.8c48.7-88.1,75.3-182,69.7-283.1
			c-6.1-108.3-46-201.2-133.6-268.9c-72.5-56-157.9-75.1-247.3-80.1c-94.7-5.3-188.5,5.1-281.4,22.6
			c-100.1,18.9-196.7,49.2-280.9,109.2c-90.1,64.2-139.6,149.5-127.4,263.2c11.9,110.8,71.6,197.7,143,278.3
			c7.8,8.8,17.1,7.5,26.8,7.5C863.3,2121.6,917.8,2121.7,972.3,2121.7z M553.6,2120.6c-5.4-10.3-9-17-12.5-23.7
			c-47.2-89.1-81.2-182.6-87.9-284c-10.2-154,38.7-284.5,157.3-386.2c81-69.5,177-108.5,279.4-132.2c23.3-5.4,28.8-14.5,28.4-37.1
			c-1.7-99.9-1.3-199.9-1.6-299.9c-0.1-31.9-0.2-32.7-30.2-28.4c-124.4,18-248.4,38.3-369.6,72.3c-68.1,19.1-135.8,41.2-189.3,90.1
			C198.8,1209,120.4,1353.5,101.8,1528c-30.5,286.1,165.6,500,367,576.7C495,2114.6,522.2,2120.5,553.6,2120.6z M722.5,2124.9
			c-8.6-10.9-13.8-17.3-19-23.8c-40.5-51.4-73.5-107.1-95.6-168.9c-51-142.6-15.8-278.5,98.2-377.8c41.5-36.1,88.6-63.8,139.5-83.9
			c184-72.6,374.6-99.6,570.8-70.7c171.3,25.2,296.1,142,333.4,308.7c27.5,122.7,6.6,240.1-46.2,352.9c-3.4,7.4-9.3,14-9.1,21.4
			c32.3,0,64.2-0.7,96.1,0.3c14.4,0.5,20.7-5.1,25.6-18.2c28.2-75.9,45.2-154.2,47.6-235.1c4.2-143.4-36.2-271-142.1-372
			c-88-83.9-197.6-122.2-315.3-138.2c-141.4-19.2-282.9-13.1-423.6,8.4c-103.6,15.8-203,45.4-292.3,102.6
			c-112.3,71.9-175.1,174.5-185.7,307.2c-11.1,139,36.9,262.1,107.5,378.4c3.6,6,8,8.8,15.2,8.8
			C657.4,2124.7,687.2,2124.9,722.5,2124.9z M1338,1074.6c0.7,0,1.5,0,2.2,0c0-55.9-0.5-111.9,0.3-167.8
			c0.2-14.9-2.4-21.2-19.3-19.8c-46,3.8-92.1,6.3-138.1,8.6c-12.9,0.6-16.3,6.1-16.4,18.2c-0.4,109.8-1,219.6-2.2,329.3
			c-0.2,14.8,5.3,17.3,18.4,16.4c45.4-3.3,90.9-3.4,136.2,0.7c14.6,1.3,19.4-2.6,19.2-17.7C1337.5,1186.5,1338,1130.5,1338,1074.6z
			 M1113.9,1083.1c0.4,0,0.7,0,1.1,0c0-54.4-0.3-108.9,0.2-163.3c0.1-12.4-2.6-17.8-16.1-16.3c-40.8,4.7-81.7,8.9-122.6,12.6
			c-9.6,0.9-8.9,6.8-8.9,13.1c0.7,111.7,1.5,223.4,2,335.1c0,10,2.9,13.5,13.5,11.7c37.1-6.4,74.6-11.1,112.3-11.6
			c14.1-0.2,19-5.4,18.8-20C1113.4,1190.6,1113.9,1136.9,1113.9,1083.1z M1229.4,2101.9c27,0,51.4-0.6,75.8,0.2
			c16,0.6,20.9-6.4,23.5-21.6c12.5-75.1,12.8-150.2,2.7-225.5c-10.5-78.7-45.9-122.4-113.2-139.2c-37.6-9.3-75.3-9.9-110,9.7
			c-32.8,18.5-32.3,50.4,0.7,67.8c14.1,7.4,29.6,12.3,44.7,17.5c68.8,23.5,112.1,80.6,116.6,153.6
			C1273.2,2014.5,1257.8,2059.2,1229.4,2101.9z M1499.8,1283.6c0-130.5-0.1-260.4,0.1-390.3c0-10.3-5.5-11-13.3-10.8
			c-26.5,0.7-53.1,1.5-79.6,1.3c-13.1-0.1-16.1,5.2-16.1,17.6c0,116-0.4,231.9-1.1,347.9c-0.1,11,2.8,16.2,14.3,18
			C1435.1,1272,1465.9,1277.8,1499.8,1283.6z"/>
	</g>
</g>
</svg>
