<?xml version="1.0" encoding="utf-8"?>
<!-- Generator: Adobe Illustrator 23.0.0, SVG Export Plug-In . SVG Version: 6.00 Build 0)  -->
<svg version="1.0" xmlns="http://www.w3.org/2000/svg" xmlns:xlink="http://www.w3.org/1999/xlink" x="0px" y="0px"
	 viewBox="0 0 3000 3000" style="enable-background:new 0 0 3000 3000;" xml:space="preserve">
<style type="text/css">
	.st0{stroke:#000000;stroke-width:10;stroke-miterlimit:10;}
</style>
<g id="Layer_1">
</g>
<g id="Layer_2">
	<g>
		<path class="st0" d="M2748,2043c110.1,86.6,137.6,182,91.5,313.4c-87.4,249.2-381,372.8-620.3,261.1
			c-82.3-38.4-139.2-97.9-156.7-193.4c-37.5,94.4-100.8,159.1-198.5,185.7c-94.1,25.7-185.8,18.8-273.5-24.6
			c-84.5-41.8-124.2-116.5-148.2-203.5c-23.6-85.5-32.2-168.9,23.6-247.1c-18.1-5.2-16.9,6.9-19.3,12.9
			c-5.8,14.5-13.5,30.6-27.2,34.5c-47.9,13.9-41.3,45-35.3,83c10.1,64.2,9.2,129.7-5.1,193.3c-33.2,147.9-140.5,215.4-277.2,248.7
			c-42,10.2-85.1,12.2-127.6,4.6c-155.2-27.5-234.7-164-184.8-315.1c19.9-60.2,43.1-92,133.8-182.7c-20.1-19.2-37.1-20.8-60.9-1.8
			c-36.8,29.4-82.9,26.6-126.7,22.4c-26.8-2.5-33.2,2.3-33.6,31.1C699.6,2449,623.3,2592,458,2678.3c-87.3,45.5-179,48.1-263-11.3
			c-86.7-61.4-122-149.9-114-253.5c13.1-167.1,106.6-277.7,256.1-350.3c-11.9-19.5-23.8-42.5-28.2-68.2c-2.2-12.5-10.8-15-21.4-18.7
			c-118.8-40.6-165.2-124.2-138-248.3c2.2-9.9,2.3-16.1-4.9-24.5c-74.1-86.1-83.4-167.6-28.6-266.3c12.6-22.6,13.9-36.9-1.9-60.3
			c-35.5-52.6-33.1-111.4-11.8-169.6c14.9-40.8,39.6-75.6,67.6-108.3c8.5-9.9,16.7-17.8,3.6-31.8c-80.2-85.7-77.4-184.1-37.8-284.9
			c52.6-134,138.8-242.7,261.2-319.7c179.1-112.8,372.3-166.6,585-130.5c27.4,4.7,53.7,13.8,78.9,25.7
			c82.9,39.3,124.5,110.7,117.4,201.8c-0.9,11.4-2.2,22.8-3.3,34.4c8.1,0.1,10.8-5.4,14.6-9.6c187.2-212.2,424.6-298.8,703.7-280
			c32.4,2.2,63.8,11,94.3,22c81.6,29.5,111.6,66.4,146.8,181.6c42.3-49.7,86.5-94.3,136.2-133.3c157.5-123.4,331.9-115,480,10.7
			c90.3,76.7,134.4,174.4,145.3,289.5c28.7,302.2,41.3,604.7,6.7,907.4c-9.9,86.1-23,171.8-43.4,256.2
			C2840.2,1916.6,2804.1,1985.2,2748,2043z M2877.7,1133.9c-4.1-159.7-9.4-319.1-29.7-477.8c-19.2-150.5-105.7-246.4-240.4-305.4
			c-53-23.2-108.9-28.6-162.9-12.7c-203.3,59.9-345.8,236.6-373.5,443.9c-42.3,316.2-45.3,633.9-16.9,952.2
			c16,179.6,138.4,311.7,285.4,355.7c230.9,69.1,426.6-42.4,479.3-276.6C2869.1,1589.5,2881.6,1362.3,2877.7,1133.9z M860,364.9
			c-99.9,0.4-209.8,23.6-306.6,64.3C372.8,505,238.9,627.3,170.9,814.6c-14.7,40.5-23.4,82.6-14.7,125.9
			c19.2,96.4,88.5,142.8,175,167.7c98.1,28.2,197.6,21,294.5-5.8c260.2-72,448.2-217.9,502.4-499c23-119.4-19.9-191.5-137.6-223.8
			C947.7,367.9,904.1,364.7,860,364.9z M1820.1,344c-106.3,0-198.7,19.7-287.9,53.7c-191.2,72.7-335.7,195.1-407.9,391.5
			c-51.1,139.1,2.6,247.1,143.9,293.7c77.7,25.6,156.8,23.7,236.6,13.4c297.4-38.4,508.5-228.5,575.6-519
			c23.8-103.1-17.5-177.6-117-212.1C1913.6,348.1,1862,343.5,1820.1,344z M1811.4,1261.2c-0.8-67.3-7.9-128-20.8-188.2
			c-3.9-18.3-10.3-22.3-27.8-12.8c-35.6,19.3-73,35.6-112,46c-23.4,6.3-27.8,18.2-25.5,39.7c6.4,57.6,6.1,115.1,0.1,173
			c-21.7,210.8-151.7,366.5-355.2,423.2c-72.1,20.1-145.8,22.7-219.7,22.9c-202.3,0.5-344.7-108.7-398.4-304.3
			c-26.2-95.5-26.7-192.1-10.7-288.9c3.5-21.2,5-29.5-21.5-22.4c-44.7,11.9-90.8,18.3-137.2,18.7c-22.9,0.2-30.7,7.7-33.3,31.4
			c-15,135.5,5.7,267.1,35.7,398.7c43.7,191.4,166,300.6,353.9,335.5c183.4,34.1,367.1,21.7,546.1-28.4
			c205.5-57.5,338.2-191.7,394.4-399.3C1801.8,1423.9,1805.8,1339.6,1811.4,1261.2z M2404.8,2613.3
			c193.3,2.8,365.7-131.3,404.8-314.9c18-84.3-7.8-163.4-65.2-202.4c-21-14.3-39.7-19.6-62.6-1.6c-21.7,17.1-47.1,30.6-74.3,36.3
			c-26,5.5-27.2,17.5-22.9,40.6c18.6,100.6-52.4,170.5-153,152.5c-41.1-7.4-62.9-29.1-70.6-70.1c-5.6-29.9-5.8-59.7-0.1-89.7
			c2.3-11.8,3.6-22.1-13-26.5c-23.4-6.1-46.4-14.2-68.9-23c-9.3-3.6-14.7-2-21.1,4.6c-51.9,53.1-102.1,107.4-130.3,177.8
			c-48.5,121.3-6.7,226.2,112.3,281.1C2292.1,2602.2,2347.5,2612.4,2404.8,2613.3z M2034.7,2261.4c0.4-40.5-1.2-77.5-7.4-114.1
			c-11-64.8-41.6-95.1-106.6-104.1c-28.7-4-60.6-7.9-80.2,18.8c-19.6,26.7-1.7,53.3,11.5,77.3c15.7,28.5,30.3,57.2,35.4,89.6
			c8,50.4-19.4,104.6-61.4,116.1c-53.1,14.5-106.7,15.1-149.4-25.2c-43.5-41-47.1-94-27.8-147.5c8.7-24.3-0.4-32.8-20.4-36.3
			c-71-12.2-142.7,8.7-156.7,93.8c-4.8,29.1-4.6,57.8,1,86.2c29.9,151.3,81.5,253.7,280,263.6c140.4,7,242.2-69.6,272.1-201.2
			C2033.7,2338.9,2037,2298.5,2034.7,2261.4z M125.1,2433.1c0,8.1-0.3,16.2,0,24.3c6.6,151.9,148.7,246.2,290.3,192.2
			c30.3-11.6,59.2-26.7,84.3-47.4c104.4-86.2,157.2-197.6,159.6-332.6c0.4-25.1,1.4-56-30.4-62.5c-29.8-6.1-40.1,22.7-51.1,43.5
			c-11.3,21.3-19.9,44.2-28.4,66.9c-16.8,44.6-35.5,88-72.8,120c-38.1,32.8-90.5,40.2-132.1,18.7c-41.3-21.3-64.5-64.3-59.6-112.3
			c3.6-35.4,23.3-61.9,49.4-84.7c26.1-22.7,56.9-40.1,77.8-68.6c20.9-28.4,14.9-54-14.2-72.1c-27.8-17.4-54-10.3-78.6,3.9
			C199.8,2191.5,130.4,2292.4,125.1,2433.1z M1340.2,2324.4c0-21.9,0-43.9,0-65.8c0-15.2-6-27.1-19.8-34
			c-49.6-24.8-104.7,4.2-111.9,59.1c-3.3,25.2-4.1,50.7-7.1,76c-7.2,61.9-46.8,107.8-103.2,120.5c-47,10.6-97.2-12.5-116.8-53.9
			c-21-44.3-7.5-90.4,35.6-121.5c9.4-6.8,19.9-12.1,28.3-19.9c16.5-15.4,18.1-30.4-6.8-38.2c-33.4-10.5-66.8-11.1-95.7,11.9
			c-52.6,41.8-93.8,92.6-113.8,157.9c-34.6,113.1,19.3,216.4,127.8,246c42,11.5,84.3,10.3,127,3c134.1-22.8,229-105.6,252.7-223.8
			C1344.5,2403.3,1346.8,2363.9,1340.2,2324.4z M2004.7,1711.5c-5.6,2.5-8.5,4-11.6,5.2c-41.2,16.4-59.8,38.4-59.2,90.9
			c1.1,92.6-87.5,167.5-181.9,170.4c-14,0.4-29.9-5.5-33.5,18c-5.2,34.1-22.7,62.8-47,87c-8.7,8.7-13.1,14.4,0.3,23.7
			c31.2,21.5,30.1,50,18.7,82.9c-26.1,75.5,20,129.3,99.6,118.4c36.3-5,55.3-27.3,53.5-63.9c-1-21.1-7.8-40.7-17.6-59.4
			c-10.7-20.4-22.8-40.4-30.5-61.9c-21.3-59.1,5.6-111.7,65.2-121.2c93.5-14.9,188.6,13.2,209.9,137.3c8,46.4,3.4,93.5,12.2,150.1
			c32.1-78.1,78.4-134.9,130.5-187.3c13.6-13.7,4.4-18.7-6-25.6C2078.6,1989.7,2018.6,1865.2,2004.7,1711.5z M271.3,1701.8
			c53.8,0.2,126.2-30.3,163.3-66.7c10.3-10.1,8.8-19.3,6.3-31.1c-9.3-44-20.2-87.8-25.6-132.3c-3.8-31.3-17.9-36.7-45.4-33.2
			c-51.5,6.5-103.2,13.4-155.2,4.3c-52.1-9-52.5-9.1-72.5,40.7c-6,14.9-10.5,30.6-13.5,46.4C110.1,1627.7,171.5,1701.5,271.3,1701.8
			z M400.8,1293.2c-0.3,0-0.6,0-0.9-0.1c2.1-34.5,2.6-69.2,6.8-103.5c2.3-19.3-4.3-23-21.4-25.1c-51.8-6.5-101.8-20.2-147.1-47.3
			c-11.7-7-19.7-7.8-29.3,3.8c-31.7,38.5-61.3,77.9-73.2,127.7c-21,88.2,28.2,152,118.4,152.7c18.4,0.1,37,0.3,55.3-1
			c29.7-2.2,68,4.6,86.8-11.2c20.1-17,2-56.3,4.6-85.7C401,1300.1,400.8,1296.6,400.8,1293.2z M356.4,1939.1
			c64.2-2.8,115.1-41.3,150-104.5c13.1-23.8,16.8-45-2-69.7c-15.1-19.8-25.1-44.3-33.7-68c-7.9-21.7-15.2-22.7-33.4-9.6
			c-65.2,46.7-136.6,74.2-217.6,52.3c-28.9-7.8-31.2,5.1-33.7,25.8C174.2,1863.6,244.8,1940.3,356.4,1939.1z M495.9,2100.5
			c86.6,0.4,170.6-69.8,186.1-153.7c2.8-15.1-2.9-20.5-14.3-26.4c-35-18.4-66.9-41.4-94.8-69.5c-10.7-10.8-17-16.6-26.9,2.4
			c-36.6,71.1-93.6,116.6-174.1,128.8c-18.3,2.8-19.6,9.5-14,25.1C375.9,2057.2,438.6,2100.2,495.9,2100.5z M753,2192.7
			c83.2,0.4,115.2-25,119.3-91.5c2.1-34.4-3.1-69.1-4.1-103.7c-0.5-15.7-12.7-14.1-21.8-16.6c-32.3-8.7-65.3-15.1-96.9-25.7
			c-18.2-6.1-23.4-2.2-28.8,15.2c-17.3,55.5-48.3,102.2-97.3,135c-14.8,9.9-14,17.8-3.3,29.9C658.3,2178.7,709.1,2189.9,753,2192.7z
			 M1034.4,1991.7c0,0.1,0,0.1,0,0.2c-32.3,0-64.6,1.2-96.8-0.5c-20.2-1.1-26.5,5-24.5,25.2c4,40.1,8.4,80.5-1.7,120.5
			c-4.3,17.1,7.1,22.4,19.2,27.5c58.3,24.5,117.5,17.4,176.5,3.9c33.9-7.7,50.4-32.4,51.9-65.1c1.4-31-2-62.2-3-93.3
			c-0.4-14.3-5.9-19.6-21.3-18.9C1101.4,1992.7,1067.9,1991.7,1034.4,1991.7z M1521.1,2095.9c37.9-9.6,83.4-7,117.6-42
			c54.8-56,48.2-151.7-14.9-203.9c-10.3-8.5-15.9-3.5-23.8,1.5c-21.4,13.7-42.5,28.1-64.8,40.2c-28.2,15.4-70.1,21.8-83,44.9
			c-13.9,24.9-0.9,64.8,0,98.1C1453.6,2088.6,1462.2,2096.8,1521.1,2095.9z M1745.1,1933.3c66.3-0.4,123.9-44.2,142.4-104.1
			c16.2-52.5-4.5-99.4-61-137.4c-11.4-7.7-24.2-13.3-35.8-20.8c-15.3-9.9-25.2-9.5-35.3,8.8c-24.3,43.5-54.7,83-91.2,117.1
			c-13.8,12.9-11.6,21.4-0.2,34c20.2,22.3,38,47.3,46,76.4C1716.3,1930.3,1729.6,1936.2,1745.1,1933.3z M1409.3,2054.6
			c0.4,0,0.8-0.1,1.1-0.1c-2.1-28.8-4.7-57.5-6.2-86.3c-0.8-14.6-4.8-21-20.9-16c-51.9,16.3-105.5,24.8-159.3,30.2
			c-19.9,2-23.7,10-23.1,28.2c1.5,44.7,10.4,89.8-5.7,133.9c-5.5,15.1,7.2,16.9,16.7,20.2c33.6,11.5,68.5,9.6,103,7.4
			c75.8-4.7,94.3-25.3,94.4-100.3C1409.4,2066.1,1409.3,2060.4,1409.3,2054.6z M1998.7,1568.1c-0.9-12.4-2.6-34.3-3.9-56.2
			c-0.7-12.1-4.6-21.2-15.3-28.9c-35-25.4-74.2-36.1-116.7-37.4c-15.5-0.5-26,4-29,22.1c-7.5,45.7-21.8,89.7-39.1,132.5
			c-6.2,15.5-2.6,22.9,11.7,29.4c35,15.9,66.8,36.9,91.9,66.5c8.4,9.9,16.3,8.4,27.4,5.2C1985.8,1684,2002.4,1656.5,1998.7,1568.1z
			 M329.1,2353.1c0.1,31.2,12,50.4,35.6,62.8c30,15.7,62.4,8.7,90.9-19.4c31.6-31.2,42.6-73.2,58.8-112.4
			c14.4-35.2,27.9-70.7,55-99.1c6.3-6.6,24.4-9.4,13-25.7c-9.1-13.1-16.5-28.4-37.7-20c-16.3,6.4-34.1,6.7-51.3,5.4
			c-16.7-1.3-25,2.4-26.1,21.4c-2,34.4-22,59.7-47.6,81.1c-22.1,18.5-44.7,36.4-66.1,55.7C337.9,2317.1,327,2334.6,329.1,2353.1z
			 M2001.1,1065.9c-5.5-21.1,9.9-43-4.9-61.5c-34.3-42.8-143.5-28.7-166.8,21.2c-1.7,3.7-1.4,9.1-0.4,13.3
			c12.5,50.5,19.5,101.8,24.1,153.6c1,11.4,4.4,18,16.7,13.7c38.6-13.4,91.7,1.3,115.7-21.8
			C2011.6,1159,1993.9,1105.5,2001.1,1065.9z M1124.2,1702.6c43.2-64.4,81.6-121.7,120.3-178.9c6.7-9.9,5.8-18.7,1.4-29.1
			c-14-32.8-27.7-65.7-40.3-99c-6.4-16.8-12.9-18.7-26.3-6.2c-32,29.9-64.9,58.9-97.6,88.1c-8.2,7.3-13.7,14.2-10.3,26.7
			C1088.7,1567.2,1105.1,1630.4,1124.2,1702.6z M1406.3,1362.3c-33.7,50.4-63.6,95.3-93.8,140.2c-5.4,8.1-9,15.9-5,25.7
			c15.8,38.2,31.7,76.4,47.2,114.8c5.1,12.6,11.5,14.6,23.1,7.2c41.1-26.2,78.2-56.8,108.8-95.1c7.6-9.5,7.6-17.7,2.2-28.3
			C1461.6,1473.6,1435.2,1420.1,1406.3,1362.3z M893.9,1585.3c40.4-35.9,76.2-68.1,112.6-99.7c10.9-9.5,9.5-20.2,6.6-31.5
			c-11.2-43.5-23.5-86.6-33.9-130.3c-4.5-19.1-11.8-18-25.8-9.2c-29.3,18.3-59.1,36-89.5,52.4c-14.8,8-19,17.3-15,33.4
			C863.8,1459.4,877.8,1518.8,893.9,1585.3z M1993.1,1436.4c0-64.6-0.3-125.3,0.2-186c0.1-15.7-9.3-15.6-20.3-15.6
			c-34.9,0.2-68.7,7.3-102,17c-9.1,2.7-16.2,6.4-16.7,18.4c-1.7,38-4.2,75.9-7.3,113.8c-1,11.4,0.8,17.9,13.6,17.4
			C1906.5,1399.5,1948.6,1413.9,1993.1,1436.4z M1104.1,2263.7c-0.9,25.5-16,45.6-61,77.2c-23.2,16.3-31.5,36.7-22.3,62.6
			c8.8,24.8,29.5,34.2,54.7,34.2c21.9,0,40.2-8.3,55.2-24.4c21.8-23.5,28.7-52,29-82.9c0.3-33.7,4.6-66.5,17.3-98.2
			c3.7-9.2,21.3-17.9,7.4-28.9c-10-8-23.2-12.1-38.4-3.5c-14.7,8.4-35.6,7.7-47.9,18C1080.3,2233,1108.8,2248.7,1104.1,2263.7z
			 M1082.2,1719.1c-17.4-66.1-33.9-128.6-51.5-195.3c-40.2,35.7-75.9,66.7-110.8,98.7c-20.6,18.9-8.1,77.9,18.2,83.8
			C984.3,1716.6,1030.9,1725.2,1082.2,1719.1z M1055.8,1440.7c39.5-35.3,74.3-67.1,109.9-97.9c11-9.6,10.2-19.3,5.5-30.7
			c-11.4-27.7-22.7-55.4-34-83.1c-4.2-10.1-7.4-18.4-21.8-9.2c-29.1,18.5-59.5,35.1-89.6,52.1c-9.5,5.4-12.1,11.9-9.1,22.7
			C1029.6,1340.9,1041.7,1387.5,1055.8,1440.7z M803.9,1403.1c-31.7,18.6-60.1,36.1-89.4,52.1c-13.3,7.3-13.9,15.3-9.1,28.3
			c21.3,57.2,50.6,109.1,96.4,150.3c6.8,6.2,13.8,20.2,25.2,10.6c11.5-9.6,30.9-16.3,26.1-36.8
			C837.5,1540.3,820.9,1473.3,803.9,1403.1z M1495.7,1229.9c-19.2,28.3-35.8,53-52.6,77.5c-4.9,7.2-6.4,14-2.1,22.5
			c27.4,54.1,54.5,108.4,83.1,165.3c21.6-36.2,34-71.9,43.9-108.5c3-11,4.2-22.2-2.3-33.4
			C1542.7,1313.7,1520.5,1273.8,1495.7,1229.9z M928.1,1133.2c-38.9,25.8-75.1,50-111.5,74c-7.6,5-11.2,10.5-8.7,20
			c8.9,34.3,17.2,68.7,26.4,105.5c39-22.8,74.4-44.2,110.5-64.5c12-6.8,16.4-14.7,12.6-28C947.8,1206.1,938.6,1171.7,928.1,1133.2z
			 M1282.9,1466c32.9-49.2,62.8-94,92.9-138.7c4.8-7.1,7-13.4,2.2-22.1c-11-20-20.9-40.6-32.4-63.3c-34.7,30.8-67.2,59.9-100,88.6
			c-8.7,7.6-13.1,15.5-8.2,27.1C1252.1,1391.9,1266.4,1426.4,1282.9,1466z M2471,2152.5c-71.2-0.6-73.7,2.2-68,74.7
			c0.6,8,1.7,16.1,3.3,24c1.8,9.3,6,17.3,14.5,22.6c29.7,18.7,94.4,3.3,111.9-27.4c15.3-26.9,16.2-56.8,4.3-83.6
			c-11.1-25-37-5.5-55.6-10.2C2478.1,2151.8,2474.4,2152.5,2471,2152.5z M1061.1,1045.6c-26.7,17.6-50.2,34-74.7,48.7
			c-12.8,7.7-17.6,16.6-13.6,31c9.7,35.3,19,70.7,29.1,108.8c34.1-19.9,65.6-38.6,97.4-56.8c9.5-5.4,12.4-11.2,7.6-22.2
			C1091.2,1119.4,1076.7,1083.3,1061.1,1045.6z M1218.5,1294c3.6-3,8.2-6.4,12.5-10.1c19-16.8,38.1-33.6,56.8-50.7
			c40.7-37.1,40.3-36.9,12.4-83.4c-10.8-18.1-24.6-23.7-42.9-13.5c-25.2,14-49.5,29.5-74.7,43.4c-12.1,6.7-12.3,14.8-7.7,25.7
			c10.8,25.4,21.2,51,31.9,76.4C1209,1286.8,1209.7,1293.2,1218.5,1294z M674.6,1321.3c1,10.6,1.5,17.6,2.3,24.4
			c8.2,73.6,7,71.3,72.9,38.1c34.9-17.6,45.2-35.8,33.8-74.3c-20.2-68-18-68.8-77.9-28.5C690,1291.5,668,1298.4,674.6,1321.3z
			 M1170.9,1714.3c51.2-2.2,93.6-15.9,135.8-30.7c7.7-2.7,14.5-6.6,9.6-17.8c-14.2-32.8-27.6-66.1-43.4-104.3
			C1237.3,1614.8,1205.7,1662.3,1170.9,1714.3z M798,1164.6c5-2.8,11.1-5.8,16.8-9.5c29.7-19.6,59.7-38.9,88.9-59.3
			c25.2-17.7,5.4-39-1.2-54.6c-8.1-18.9-19.7,1.9-28.8,6c-15.6,7.1-29.9,17.2-45.1,25.4c-54.6,29.6-54.7,29.5-34.7,89.2
			C794.2,1162.4,795.5,1162.8,798,1164.6z M1040.7,993.9c-7.2-16.4-10.8-41.3-25.1-52.2c-13.1-9.9-22.7,16.4-35.4,24.7
			c-10.5,6.8-19.8,15.7-28.5,24.8c-19.9,20.8-4.7,43.2,4.2,59.8c7.1,13.3,20.7-5.4,30.5-10.6c15.1-8,29-18.3,43-28.3
			C1034.7,1008.4,1042.1,1005.5,1040.7,993.9z M680,1240.8c76.7-40.1,77-40.1,62.4-97.2c-2.5-9.6,0.8-27.3-16.1-24.4
			c-13.2,2.2-30.2,4-34,23.6C686.2,1174.3,678.2,1205.4,680,1240.8z M1581.4,1290.7c8.4-54.5,1.6-98.9,0.7-143.4
			c-0.1-6.7-0.5-14.5-9.2-16.3c-7.7-1.7-12.1,3.6-17,8.9c-32.8,35.5-33.9,45.7-9,89C1557.1,1246.5,1566.8,1264.5,1581.4,1290.7z
			 M1414,1270c16.4-24.4,31.7-48.5,48.5-71.4c12.5-17.1-1.7-27.7-7.7-40.3c-2.9-5.9-7.9-7.8-13.7-2.5
			c-18.7,17.1-42.7,31.2-54.7,52.1c-9.2,16.1,13.4,34,19.8,51.9C1407.3,1262.9,1410.3,1265.3,1414,1270z M1207,1107.4
			c-36.5-20.4-70.7-44.5-99.8-76.2c6.3,22.5,14.5,43.5,23.4,64.3c23.4,54.9,23.5,54.9,72.4,19.9
			C1204.5,1114.3,1205,1111.6,1207,1107.4z M2012.5,858.6c-24.2,27.5-43.6,49.6-64.4,73.3c20.4,7.7,38,14.4,57.4,21.7
			C2008.2,922.8,2016.4,894.5,2012.5,858.6z"/>
		<path class="st0" d="M2669,1542.3c0.7,28.8-6.3,55.7-24.5,77.8c-50.4,61.1-108.6,114.4-180.3,148.7
			c-80.5,38.4-164.9-6.6-183.5-93.3c-6.2-28.8-1.8-56.1,16.2-78.8c47.3-60,99.4-115.9,162.3-159.9c45.3-31.8,94.6-35.3,143.8-8.3
			C2647.4,1452.9,2668,1492.2,2669,1542.3z M2410,1737.5c7-1.3,18.4-0.9,27.2-5.4c69.1-34.7,129-81.6,174.5-144.2
			c24.6-33.9,16.7-79.9-12.3-107.9c-28.4-27.5-74.3-33-108.8-10.5c-56.8,36.9-101.1,87.4-145.9,137.4c-22.9,25.5-26.9,52.7-12.8,83
			C2346.5,1721.5,2372.7,1735.6,2410,1737.5z"/>
		<path class="st0" d="M2234.6,1064.1c-0.7-18.5,5.2-38.2,18.8-55c45.3-55.7,94.1-108.1,151.8-151.2
			c63.5-47.4,140.1-41.4,187.5,12.9c47.5,54.4,42.8,129.4-12.6,187.4c-45.6,47.7-94.4,92.4-153.7,122.5
			C2334.7,1227.2,2234,1166.8,2234.6,1064.1z M2366.9,1151.6c22.7,2,43.8-10.7,63.9-24.2c42.2-28.5,81.4-61.1,116.5-98.1
			c40.3-42.5,44-93.4,10.5-130.8c-31.2-34.8-83.6-37.1-128.5-3.2c-48.2,36.3-88.6,80.8-128.7,125.9c-24.2,27.2-29,54.5-13,85.5
			C2303.2,1137,2328.8,1152.5,2366.9,1151.6z"/>
	</g>
</g>
</svg>
