<?xml version="1.0" encoding="utf-8"?>
<!-- Generator: Adobe Illustrator 23.0.0, SVG Export Plug-In . SVG Version: 6.00 Build 0)  -->
<svg version="1.0" xmlns="http://www.w3.org/2000/svg" xmlns:xlink="http://www.w3.org/1999/xlink" x="0px" y="0px"
	 viewBox="0 0 3000 3000" style="enable-background:new 0 0 3000 3000;" xml:space="preserve">
<style type="text/css">
	.st0{stroke:#000000;stroke-width:10;stroke-miterlimit:10;}
</style>
<g id="Layer_1">
</g>
<g id="Layer_2">
	<g>
		<path class="st0" d="M1511.9,2217.2c-278.5,0-556.9,0.6-835.4-0.2c-266.4-0.7-500.2-175.5-577.3-430.2
			c-14.3-47.4-23.8-95.8-24.2-145.2c-1.1-107.2-9.4-214.8,13.5-321c53.3-247.4,271.7-442.4,523.2-467.7c24.6-2.5,49.1-3.6,73.7-3.6
			c551.4,0,1102.9-0.1,1654.3,0.1c296.5,0.1,540.9,199.7,599.9,489.9c4.9,24.1,9.2,48.7,9.5,73.1c1.4,88.9,5.9,177.9-2.5,266.6
			c-24,254.4-226.1,476.5-477.1,525.6c-45.2,8.8-90.6,12.6-136.6,12.6C2059.2,2217,1785.6,2217.2,1511.9,2217.2z M313.2,2028.5
			c2-6.3,3.9-10.6,4.8-15.1c36-179.4,185-311.7,367.1-321c230-11.7,427.3,205.6,364.5,452.1c-5.1,20-1.7,23.2,17.8,23.2
			c420.1-0.5,840.2-0.4,1260.3-0.3c36.3,0,72.4-2.6,108.3-7.8c226.5-32.8,424.6-230,456.5-456.6c14.4-102.1,13.3-205.1,3.6-307.2
			c-15.8-165.1-96.8-295-229.3-393.6c-11.9-8.9-14.7-6.1-16.5,8c-27,203.8-179.8,370.4-380,414.5c-88.1,19.4-176.9,17-265.2,3.4
			c-128.1-19.9-233.7-78.3-306.2-189c-62-94.7-77.7-199.9-67.9-310.4c2.6-29.6,3.5-29.5-26.4-29.5c-309.3,0-618.5,0-927.8,0.2
			c-71.9,0.1-141.9,12.4-207.7,41.6c-193.1,85.6-308.7,232.2-339.7,442.1c-11.8,80.1-4.8,161.2-4.6,241.9
			c0.3,94.3,26.4,182.1,73.4,263.6C228.5,1941.2,266.1,1987.6,313.2,2028.5z M2038.3,899.2c-110.8,0-221.6,0.4-332.4-0.4
			c-17-0.1-22.1,6-23.9,21.4c-5.9,50-5.2,99.6,4,149.1c23.7,127.1,92.2,219.9,210.3,274.7c87.4,40.5,180.8,46.2,274.9,43.1
			c81.2-2.7,158-23.4,226.9-67.9c124.4-80.4,188.3-197.6,206.6-342.4c1.7-13.5-6.6-16.1-15.1-20.3c-76.6-38.1-158-56.5-243.3-56.9
			C2243.5,898.9,2140.9,899.3,2038.3,899.2z M802.2,2167.3c64.4,0,117.8-0.4,171.1,0.3c12.9,0.2,19-3.1,22.9-16.3
			c13.8-46.5,18.3-93.4,12.3-141.7c-21.1-168.6-192.5-294.4-359.3-263c-155.7,29.3-267,148.4-287.4,306.9c-1.3,10,1.5,14.8,9.2,19.9
			c66.5,43.8,138.5,73.1,217.2,86.2C662.9,2172,738.3,2165.3,802.2,2167.3z"/>
		<path class="st0" d="M1234.3,1820c0.2,36.6-29.3,66.8-65.8,67.1c-37,0.3-73.7-37.2-74.3-76c-0.6-37.4,27.7-66.8,64.7-67.5
			C1197.1,1743,1234.1,1780.5,1234.3,1820z"/>
		<path class="st0" d="M293.5,1723.9c36.4,0.3,66.3,31,65.3,67.1c-1,36.4-31.2,65.1-68.1,64.6c-36.4-0.5-66.2-31.2-65.2-67.4
			C226.4,1751.5,256,1723.6,293.5,1723.9z"/>
		<path class="st0" d="M441,1534.9c37.1,0.1,66.4,29.9,65.5,66.5c-0.8,36.3-31.5,65.8-67.9,65.2c-36.3-0.6-66.2-31.4-65.5-67.5
			C374.1,1561.9,402.7,1534.8,441,1534.9z"/>
		<path class="st0" d="M790.9,1551.3c-0.1,36.8-29.8,66.3-66.5,66.1c-37-0.2-65-29.6-66-66.8c-0.9-33.1,31.1-67,66.6-65.9
			C762.2,1485.9,791,1514.1,790.9,1551.3z"/>
		<path class="st0" d="M1012.4,1546.6c37.3-0.1,66.1,28.5,66.3,65.7c0.1,37.2-28.8,66.6-65.8,66.7c-36.9,0.1-66.3-29.2-66.4-66.2
			C946.4,1575.6,975.2,1546.7,1012.4,1546.6z"/>
		<path class="st0" d="M1246.4,1940.7c37.2-0.1,66.2,28.6,66.3,65.7c0.1,37.2-28.9,66.6-65.8,66.7c-36.9,0.1-66.3-29.2-66.4-66.2
			C1180.4,1969.8,1209.2,1940.8,1246.4,1940.7z"/>
		<path class="st0" d="M1835.2,1502.3c35.2-0.1,62.9,26.9,63.2,61.4c0.2,34.4-27.5,61.9-62.5,62c-35.2,0.1-62.9-26.9-63.1-61.4
			C1772.5,1530,1800.2,1502.4,1835.2,1502.3z"/>
		<path class="st0" d="M2174.5,1607.2c0,35.1-27.3,62.8-61.7,62.8c-34.5,0-61.7-27.7-61.7-62.9c0-35.1,27.2-62.8,61.7-62.9
			C2147.2,1544.3,2174.5,1572.1,2174.5,1607.2z"/>
		<path class="st0" d="M1451.5,1267.7c-0.4-34.9,26.8-62.9,61.4-63.5c34.4-0.6,62.7,27.2,63,62c0.3,34.5-27.3,63.2-61.4,63.8
			C1480.6,1330.5,1451.8,1302.1,1451.5,1267.7z"/>
		<path class="st0" d="M1554.8,1040.2c0.1,35.6-26.2,63-60.7,63.2c-34.1,0.2-62.7-28.1-62.9-62.5c-0.2-34.4,27.9-62.9,62.1-63.2
			C1527.8,977.5,1554.7,1004.9,1554.8,1040.2z"/>
		<path class="st0" d="M2778.4,1326.6c-34,0.1-61.4-26.6-62-60.2c-0.6-34.8,28.8-64,63.9-63.6c33.3,0.4,61.1,28.1,61.8,61.5
			C2842.9,1299.5,2815.3,1326.5,2778.4,1326.6z"/>
		<path class="st0" d="M2675.7,1523.1c-34.7-0.1-62.3-27.9-62-62.6c0.2-34.7,28-61.9,62.9-61.8c35,0.2,62.2,27.6,61.9,62.7
			C2738.3,1496.5,2711.1,1523.2,2675.7,1523.1z"/>
		<path class="st0" d="M2437.2,1634c-35.4,0.4-62.9-26.1-63.5-61.1c-0.6-35,26.4-62.8,61.3-63.3c35-0.5,63.1,26.5,63.6,61.1
			C2499.2,1605.2,2471.7,1633.6,2437.2,1634z"/>
		<path class="st0" d="M1612.6,1386.5c35.2,0.1,62,27.1,62,62.4c-0.1,35-27.4,62.2-62.4,62.1c-34.8-0.1-62.2-27.7-62.1-62.5
			C1550.1,1413.4,1577.4,1386.3,1612.6,1386.5z"/>
	</g>
</g>
</svg>
