<?xml version="1.0" encoding="utf-8"?>
<!-- Generator: Adobe Illustrator 23.0.0, SVG Export Plug-In . SVG Version: 6.00 Build 0)  -->
<svg version="1.0" xmlns="http://www.w3.org/2000/svg" xmlns:xlink="http://www.w3.org/1999/xlink" x="0px" y="0px"
	 viewBox="0 0 3000 3000" style="enable-background:new 0 0 3000 3000;" xml:space="preserve">
<style type="text/css">
	.st0{stroke:#000000;stroke-width:10;stroke-miterlimit:10;}
</style>
<g id="Layer_1">
</g>
<g id="Layer_2">
	<g>
		<path class="st0" d="M1250.3,2951.6c-157.2,0-314.3,1.2-471.5-0.4c-109.8-1.1-216.8-18.5-313.3-75.2
			c-161.2-94.7-258.2-236.1-299.4-417.3c-22-96.9-29.7-195.5-36.5-294.2c-11.6-167.2-18.9-334.6-13.1-502.2
			c8.2-236.5,42.1-468.1,130.1-689.8c133.1-335.3,370.1-569,696.5-715.7c175.4-78.8,359.5-126.5,550.1-151
			c163.3-21,327-25.1,491-11.4c130,10.8,258.1,31.1,380.4,79.4c235.4,92.9,386.7,262.3,460.4,503.2c36.9,120.4,55.4,244,65.2,369.1
			c10.5,134.6,14.9,269.4,10.9,404.6c-6.8,230.6-39.5,457.3-94.9,681c-21.6,87.2-42.4,174.7-72.7,259.5
			c-72.4,202.5-207.4,345.7-407.2,425.4c-116.9,46.6-236.7,85.5-360.8,108.1c-94.8,17.2-191.3,19.2-287.4,23.3
			C1535.5,2953.9,1392.9,2951.1,1250.3,2951.6z M1248.3,2901.6c136.4,0.4,272.8,1.1,409.1-3.9c100.2-3.7,200.7-6.1,299.8-23.3
			c108.6-18.9,212.5-54.9,316-91.6c210.2-74.5,350.5-217.8,419.8-430.3c30.5-93.4,53.1-188.8,75.7-284.3
			c48.4-204.6,75.8-411.9,81.4-622.2c3.7-137.9-0.6-275.3-12.5-412.7c-10.9-125.8-30.3-249.7-70.8-369.8
			c-66.8-198.2-193.4-342.1-385.4-427.3c-104.7-46.5-215-71.1-328.3-83.8c-183.1-20.6-366-20.1-548.8,3.2
			c-195.4,25-383.8,74.6-562.7,158c-310.1,144.6-531.2,372.9-654.2,694.3c-86.6,226.1-117.1,461.7-121,701.7
			c-3.5,217.5,6.3,434.6,33.5,650.5c10.7,84.6,30.2,167.6,71.8,243.3c70,127.2,168.7,221.6,308.9,267.7
			c74.5,24.5,151.9,29.8,229.5,30.3C956.2,2902.3,1102.3,2901.6,1248.3,2901.6z"/>
		<path class="st0" d="M1314.5,2611c-108,0-216,0.9-323.9-0.3c-92.6-1-179.8-21.6-254.2-80.7c-94.4-75-150-173.5-175.7-290.3
			c-18-81.5-21.8-164.5-27.8-247.1c-8.3-114.6-12-229.5-9.4-344.5c4.4-191.1,26.9-379.3,92.8-560.3
			C728,780.9,944.1,582.7,1251,481.2c211.8-70,429.1-84.5,649.8-51.9c105.5,15.6,203.8,49.6,290.8,112.1
			c112.6,80.8,176.4,194.1,213.5,324.7c32,112.5,43.2,228.1,49.7,344.2c8.3,147.4,6.2,294.7-8.3,441.7
			c-12.2,124.7-34.4,247.7-63.7,369.5c-15.5,64.5-28.6,129.4-52.4,191.7c-54.8,143.3-151.1,246.6-294.3,303.3
			c-88.6,35.1-177.7,69.8-273.6,80.6c-83.3,9.3-167,12.2-250.7,13.8c-65.7,1.3-131.5,0.3-197.3,0.3
			C1314.5,2611.2,1314.5,2611.1,1314.5,2611z M984,1648.3c36-18.8,72-37.6,110.9-57.9c-20.9-9-6.2-26.4-12.8-40.5
			c-13.6-28.8-17.9-60.8-18.9-92.9c-7.4-238.2,234.8-435.4,476.2-384.5c102.3,21.6,177.5,80,222.8,175.3
			c58-45.1,78.5-55.7,131.8-64.8c32-5.5,64.4-8.4,96.4-13.7c36.6-6.1,70.6-18.4,98.2-47.3c-5.9-2.6-10.1-4.7-14.5-6.3
			c-90-33.5-149.2-96.9-175.6-188.3c-40.1-139-7.6-263.7,81.5-375.2c11.5-14.4,24.9-27.4,38.1-41.8c-24.7-10.5-49.5-16.9-74.6-21.7
			c-202.9-39-404.6-32.5-604.5,19.7c-175,45.7-332.1,125-461.5,253.9c-121.8,121.3-196.2,269.4-242.3,433.1
			c-60.6,215.2-67.1,435.2-58.7,656.5c0.5,12.8,6.4,12.9,15.7,11.2c29.9-5.6,59.7-11.7,88.5-21.8c56.5-19.8,109.4-46.2,155.5-85.1
			c46.9-39.6,99-72.1,148.3-108.5L984,1648.3z M675.4,2387.4c34.2-40,66.9-79.2,100.7-117.6c55.8-63.3,106.4-131.1,168.2-189.2
			c69.8-65.6,150.8-82,242.2-57.1c57,15.5,110.2,40.5,164.5,62.7c85.1,34.8,166.4,29.9,245.6-16.9c29.9-17.6,57.6-38.2,85-59.3
			c40.5-31.3,75.8-68.9,119.3-96.6c82.7-52.7,171.5-29.4,213.7,59c27.5,57.6,39.4,119.7,37,183.3c-2.6,70.9-70.9,107.7-133,73.9
			c-21.2-11.5-37-28.7-51.7-47.3c-12.9-16.3-24.5-33.7-38.8-48.6c-30.5-31.5-58.7-28.6-84.2,6.9c-14.9,20.7-26.8,43.9-45.1,61.9
			c-9.6,9.4-13.4,18.8-13.6,32.5c-1.4,85.6-34.3,122.6-118.9,132c-44,4.9-88.2,7.9-132.4,9.7c-49.2,2-84.7-24.4-100.1-71.1
			c-4.4-13.3-6.2-27.1-6.3-40.9c0-12.5-3.7-16.9-16.9-15.3c-62,7.1-115.8,30.4-159.3,76.2c-38.3,40.3-70.1,85.6-104.1,129.2
			c-25.8,33.2-51.3,66.6-78.3,101.7c18.1,4.4,34,4.2,49.7,4.2c148.8,0.3,297.7,1.3,446.5,0.2c92.7-0.7,185.4-4.1,277.8-12.6
			c90.7-8.4,174.3-41.7,258.6-72.7c148.1-54.5,242.4-159.7,291.1-308c2.6-7.9,8.2-15.5-2.6-23.7c-23.2-17.7-36.1-43.1-47.6-69.3
			c-22.2-50.7-37.8-103.8-57.5-155.4c-18.7-48.9-41.7-95.1-80.4-131.7c-58.3-55.1-125.8-61.3-192.9-17.7
			c-16.8,10.9-33.5,22.1-49.5,34.2c-71,53.6-146.7,99.1-227.6,135.9c-36.9,16.8-26.7,15.5-43-17c-6.6-13.2-3.7-18.4,9.7-24.1
			c50.3-21.4,98.2-47.8,144.8-76.4c46.1-28.3,88-62.4,132.7-92.6c87.4-58.8,180.4-52,258.2,18.9c44.2,40.3,71.2,91.3,92.9,145.6
			c21.2,53.2,36.5,108.6,59.6,161.1c5.8,13.1,11.1,26.7,23.9,38.9c12.6-55.1,24.7-108.2,36.9-161.2c1.6-7.1-2-11.8-6.4-16.5
			c-23.9-25.9-38.8-57.1-50.9-89.7c-14.9-40.2-27-81.4-43.1-121.1c-40.5-99.4-119.3-140-225-118.4c-71.7,14.6-131.4,53.3-190.4,93.4
			c-32.1,21.8-31.7,21.7-52.1-10.9c-4.6-7.4-5.1-11.5,2.4-16.7c63.2-43.7,126.5-87.7,201.7-108.8c123.9-34.7,258.8-3.4,314.2,149.6
			c18.1,49.9,30.8,101.9,55.3,149.5c2.2,4.2,2.2,11.4,10.7,10.5c20.1-116.7,34.5-234,39.4-352.4c0.8-19.2-6.3-28.8-21.2-37.7
			c-79.8-47.9-165.8-58.4-255.9-42.3c-106.2,19-196.3,72.4-281.7,135.1c-28.7,21.1-28.3,21.2-49.6-7.4c-6.4-8.5-8.2-13.3,2.2-21.1
			c65-48.7,132.5-93,208-123.8c92.5-37.8,187.6-51.5,286.4-31c39.3,8.2,76.1,23.5,113,43.8c0.6-5.8,1.2-9,1.3-12.2
			c1.2-100.5-4.8-200.6-12.3-300.7c-1.1-15-6.4-14.9-18.1-9.3c-70.8,34-145.5,47.9-223.8,39.4c-8.2-0.9-12.7,1.2-17.1,7.7
			c-23.4,34-57,53.5-95.2,66.6c-33,11.3-67.4,14.6-101.6,19.2c-42.6,5.7-85.3,11.2-120.9,38.5c-23.8,18.3-38.8,40.4-33.6,72.9
			c4.5,28.2,3.4,56.9-2,84.8c-30.6,158.1-126.3,261.5-276.5,310.3c-140.9,45.7-269.5,20.9-373.3-92.4c-8.5-9.3-14.7-6.6-23.1-2.5
			c-65.4,32-128.1,68.4-186,112.7c-62.6,47.9-123.1,98.6-198.6,126.5c-42.3,15.7-85.4,27.9-129.9,34.8c-9.4,1.4-17.4,2.3-16.5,15.6
			c6.9,102.1,9.9,204.6,31.5,305.2C623.4,2288.7,643.2,2339.8,675.4,2387.4z M1115.9,2063.1c-24.8-0.1-41.6,2.7-58.4,7.7
			c-56.8,17-94.1,59.5-130.9,101.6c-62.9,71.8-124.1,145.1-186.2,217.5c-37.4,43.6-37.2,43.1,5.7,82.7c12.1,11.1,18.2,12.9,29.4-2
			c80-106.5,176.6-196.4,282.6-276.3c51.9-39.1,110-64.4,177-59.9c38.8,2.6,38.9,4.2,27.5,40.9c-3.2,10.5-7.3,14.3-18.7,12
			c-37.6-7.4-72.8,2.2-106.5,18.2c-41.6,19.9-76.5,49.6-111.3,79.1c-77.3,65.5-149.3,136.1-211.1,216.7c-9.1,11.8-6.8,16.2,5.4,21.9
			c22,10.3,44.4,19.1,68,24.9c13,3.2,22.3,1.2,31.6-11.4c45.4-61,94.6-119.2,138.3-181.4c80.1-114,187.8-166.7,326.6-160.3
			c63.5,3,127.1,8,190.9,5c45-2.1,82-16.6,105.6-57.7c11.3-19.7,24.5-38.5,41.2-54.4c31.1-29.7,73.3-35.2,110.8-13.8
			c17.7,10.1,32.6,23.3,45,39.4c13.1,17,25.7,34.4,39.6,50.7c19.7,23.2,45.2,34.1,61.1,25c23.5-13.4,24.8-37.2,22.4-60.3
			c-3.8-35.7-10.4-71.2-20.6-105.7c-5.5-18.6-14-36-26.3-51.4c-28.5-35.8-65.6-45-107.1-25.6c-25.3,11.8-47,29-67.9,47.3
			c-45.8,40.1-91.8,80-144,112c-73.4,45.1-151.5,66.8-237.7,48.3c-49.7-10.7-95.6-31.9-142.1-51.5
			C1208.5,2082.3,1160.7,2064.7,1115.9,2063.1z M1453.5,1114.7c-120,6.3-222,61.3-291.8,170.5c-44.5,69.8-60.1,146.4-38.9,228.3
			c6.2,24,10.6,25.7,34.9,18.9c36.7-10.2,69-28.8,97.9-52.5c40.6-33.3,79.6-68.5,119.3-103c49.9-43.4,107.1-70.3,173.3-77
			c20.6-2.1,41.3-3.3,61.9-5.8c29.9-3.5,58-11.8,81.3-32.5c11.5-10.2,12-18.8,3.1-31.4C1637.7,1150.4,1558,1117.4,1453.5,1114.7z
			 M1682.6,1328.3c-40.5,15.4-79.4,18.7-118.7,21.3c-56.3,3.7-105.1,25-149.2,60.3c-71.6,57.3-131.1,130.6-224.8,165.9
			c45.6,16.5,87.1,26.3,129.3,32.4c105.2,15.1,197.6-8.2,268.9-92.6C1633.6,1461.8,1661.1,1399.1,1682.6,1328.3z M1198.6,1632.4
			c67.8,69.6,208.4,98.4,336.2,38.4c133.6-62.7,219.4-203.3,198.9-333.4C1650.6,1610.2,1481.2,1722.5,1198.6,1632.4z M1491.6,2251
			c-32.4-1.6-64.8-3.4-97.2-4.7c-5.5-0.2-12.3-3-15.6,5.6c-10.3,26.4,13.6,72,41.2,72.6c57.3,1.3,114.6-1.5,170.9-13.2
			c27.7-5.8,42.1-28.3,42.7-56.4c0.2-10-2.8-11.4-11.9-9.6C1578.6,2253.6,1535.1,2252.7,1491.6,2251z M2232.8,878.4
			c1.3-0.5,2.6-1,3.9-1.5c31.3-12.8,62.5-25.9,94-38.2c8.8-3.4,10.1-8.1,6.9-15.7c-9.2-21.6-18.7-43-27.7-64.7
			c-3.8-9.1-9-10.4-17.8-6.4c-29.6,13.3-59.3,26.2-89.2,38.7c-8.6,3.6-12.1,7-7.4,16.7c9.9,20.5,18.5,41.6,28,62.3
			C2225.1,873.6,2225.9,879.6,2232.8,878.4z M2276.8,703c-13.9-23.4-31-42.3-47.6-61.5c-5.4-6.2-10.2-7.1-17.7-3.5
			c-21.8,10.3-43.8,19.9-66,29.3c-7.9,3.3-10.1,6.9-6.1,15.3c9,18.5,17,37.6,25.3,56.5c2.7,6.1,5.2,10.8,13.6,7.1
			C2210.7,731.5,2243.4,717.5,2276.8,703z M1987.8,977.5c19.2-7.8,41.5-16.7,63.7-25.9c7.4-3.1,4.7-8.6,2.6-13.9
			c-7.9-19.7-15.9-39.5-23.7-59.2c-3-7.6-7-10.6-15.5-6.7c-19.9,9.3-40.1,18-60.5,26.4c-7.9,3.2-10.4,6.8-7.3,15.5
			c7,19.4,14.2,38.7,25.1,56.4C1975.1,974.6,1977.2,980.3,1987.8,977.5z M2230.4,1010.5c-8.4-18.7-17.2-38.8-26.6-58.7
			c-2.8-6-8.3-3.3-12.7-1.5c-18.5,7.5-36.7,15.5-55.3,22.6c-8.5,3.2-10,7.4-6.5,15.5c8.9,20.9,17.4,42,25.5,63.2
			c3.1,8.2,6.1,11.4,14.6,5.7c17.7-11.8,36-22.9,54-34.3C2227.3,1020.4,2232.3,1018.3,2230.4,1010.5z M2178.5,894.3
			c-11-24.3-21.8-48.9-33.3-73.1c-3.1-6.5-8.6-1.6-12.6,0c-16.5,6.8-32.8,14.5-49.4,21.1c-7.9,3.2-10.3,6.4-6.4,15.1
			c9,20.1,17.2,40.5,24.7,61.2c3.1,8.5,5.8,10.6,14.7,6.7c17.5-7.9,35.7-14.3,53.6-21.5C2174,902.2,2179.5,901.3,2178.5,894.3z
			 M2367.7,924.5c-0.4-33.9-10.6-40.7-41.7-28.4c-9.6,3.8-19.2,7.7-28.8,11.6c-50.6,20.4-50.3,20.3-25.8,69.7
			c4.5,9.2,7.9,10.8,16.6,5.1c23.6-15.6,47.8-30.3,71.8-45.4C2364.3,934.1,2369.5,931.3,2367.7,924.5z M2057.1,797.9
			c9.7-4,19.3-7.8,28.7-11.9c36.6-16,36.6-16,20.3-53.2c-17.3-39.6-17.3-39.6-55.9-23.3c-5.7,2.4-11.2,5.6-17.1,7.5
			c-10,3.2-10,8.6-6.3,17.2c7.8,17.7,14.3,35.9,21.8,53.7C2050.4,791.7,2050.5,797.8,2057.1,797.9z M1932.6,810.3
			c-0.2,42.1,0,42.6,31.5,27.9c13.9-6.5,36.9-7.2,39.3-21.4c2.4-13.8-10.4-30.3-16.6-45.5c-12.6-31.1-13.2-31.1-40.6-15.8
			c-6.9,3.8-9.8,8.9-10.3,16.4C1934.8,786.9,1933.3,802,1932.6,810.3z M2033.1,570.2c-14.8,13.4-25.2,27.8-35.4,42.3
			c-11.3,16.2-11.1,41,3.8,55.4c11.3,10.9,21.5-4.4,32.3-7.3c7.9-2.1,15-6.7,22.7-9.6c8.3-3.1,9.9-7.5,5.9-15.7
			C2052.5,614.4,2043.4,593.1,2033.1,570.2z M2072.2,531.9c13.8,30.9,25.4,56.7,36.8,82.5c2.7,6.1,4.7,11.4,13.4,7.3
			c17.9-8.5,36.1-16.3,57-25.7C2146.1,569.8,2113.2,549.4,2072.2,531.9z M2378.4,985.8c-22,13.7-41.8,27.4-62.8,38.8
			c-14.4,7.8-17.1,15.2-10.1,30.6c7.9,17.2,17.3,7.7,26.7,4.7c6.5-2.1,12.8-5.1,19-8C2391.3,1033.4,2391.6,1032.7,2378.4,985.8z
			 M2016.5,1023.5c25.7,22.8,54.5,39,89.9,48.3c-24.9-79.7-28-81.4-88-50.9C2018,1021.2,2017.8,1021.9,2016.5,1023.5z M2228,1080.6
			c0.5,1.2,1,2.5,1.4,3.7c8-0.9,16-1.6,24-2.7c5-0.7,7.3-3.7,4.9-8.5c-1.9-3.8-3.3-9.7-10-5.2
			C2241.6,1072.4,2234.7,1076.4,2228,1080.6z"/>
		<path class="st0" d="M980.9,1940.4c-11.3-0.9-24.3-0.1-36-3.5c-14.9-4.3-18.4,1.9-22,14.4c-21.3,75-65.7,128.9-142.9,150.2
			c-78.7,21.8-160.3-19.2-186.3-91.4c-4.5-12.6-3.7-19.1,10.8-20.8c7.5-0.9,14.9-3,22.2-4.8c8.1-2.1,11.6,0.8,15.3,8.7
			c24.9,53.6,76.4,75.5,132.5,57.3c57.9-18.8,101.5-78.7,106.1-145.6c2.7-39.2,2.7-39.2,38.5-26.4c78.3,27.9,175.2,0.7,226.4-65.4
			c10.9-14.1,17.4-16.1,31.9-5.7c25.1,17.9,25.9,17.1,5.4,41C1130.1,1909.9,1062.2,1938.4,980.9,1940.4z"/>
		<path class="st0" d="M984.7,1647.7c-23.1,8.4-44.2,21.7-69.3,25c-98.1,13-183.9-48.8-212.8-154.2c-14.7-53.4-13-107.4,0.9-160.1
			c30.4-115.4,78.9-222.8,150.8-318.6c60.5-80.6,138.8-136,236.9-162.1c16.7-4.4,32.9-11,49.8-14.3c87.3-17,153.8-65.3,208.1-133.9
			c21-26.6,44.8-50.9,71.9-71.6c86.1-65.7,180.3-76.5,277.4-32.3c98.2,44.7,146.1,127.2,154.4,233.3c3.1,39.9-3.8,78.8-19.6,115.5
			c-29.5,68.8-83.4,98.6-156.6,85c-66.8-12.4-133.6-22.2-201.9-18.5c-80.5,4.4-157.5,23-228.9,60.1
			c-124.3,64.7-180.5,173.9-193.9,308.7c-3.7,37.1-3.4,74.7-4.2,112c-1,47.9-19.9,86.9-56.6,117.5c-3,2.5-7.6,3.9-7.1,9.2
			C984,1648.3,984.7,1647.7,984.7,1647.7z M1275.3,868c-1.8,0.4-3.9,0.5-5.6,1.4c-30.4,16.8-62.9,28.4-96.1,38.2
			c-12.1,3.6-3.8,9.5-0.8,13.5c11.5,15.5,24.7,29.9,35.1,46.2c8.9,14.1,20.9,18,36.2,19.7c39.1,4.4,78,9.9,116.9,15.3
			c3.4,0.5,7.1,2.4,9.8,0c4-3.6,0.3-7.7-1.3-11c-13.9-29.3-29.8-57.8-41.5-87.9C1318.1,877.9,1295.2,876.7,1275.3,868z
			 M1024.5,1285.2c-5.4-2.6-10.5-5.6-16-7.8c-36.9-15.4-74-30.3-110.6-46.3c-12.5-5.5-24.6-7.7-38-6.9c-59.5,3.5-59.3,3.4-79.9,59.9
			c-4,10.8-3.3,15.2,8.6,19.3c81.1,27.9,81,28.2,163.6,6.3c19.3-5.1,38.6-10.3,57.9-15.5C1015.2,1292.6,1021,1292.5,1024.5,1285.2z
			 M1003.7,1423c-45.5-13.9-85.5-26.4-125.6-38.2c-4.9-1.4-11,0-16.2,1.3c-34.7,9-69.2,18.9-104.1,27.3
			c-11.3,2.7-13.6,8.7-14.2,18.9c-0.6,10.4,3.4,14.2,13.1,17c41,12.2,81.7,25.3,122.5,38.2c6.3,2,11.8,2.4,17.8-1.2
			C930.5,1466.3,964.4,1446.3,1003.7,1423z M1511.4,778.5c14.9,46.6,28.7,89.1,41.8,131.7c2.2,7.1,6.4,10.1,12.4,12.4
			c22.6,8.5,45.2,17,67.8,25.6c9.3,3.6,15.3,4.6,14.5-9.3c-1.9-31.7-2.8-63.6-3.5-95.4c-0.2-9.4-2.9-15-12.4-18.5
			C1593.2,810.6,1554.8,795.3,1511.4,778.5z M1641.8,774c-1.8-38.4-3.7-73.4-5-108.4c-0.4-10.1-7.3-10-14.1-11.1
			c-42.7-7.4-83.9-2.5-123.4,14.9c-6.7,2.9-19.1,3.4-16.1,14.9c3.1,12,1.3,28.3,15.4,34C1544.8,737.2,1591.8,754.7,1641.8,774z
			 M1494.8,895.7c-14.6-46.7-27.3-88.9-41.2-130.8c-7.2-21.6-42.8-27.8-58.1-11.1c-14,15.3-27.8,30.8-41.8,46.2
			c-14.1,15.4-10.3,38.1,9.3,45.9C1405.2,862.7,1448,878.1,1494.8,895.7z M1101,1157.4c-29.6-23.3-51.6-43.7-87.8-41.7
			c-44.8,2.4-89.8-1-134.8-1.7c-11.9-0.2-35,23.8-34.6,35.2c0.1,3.7,2.8,4.7,5,5.6c14,5.8,27.2,16.1,42.5,15.3
			C959.3,1166.8,1027.2,1162,1101,1157.4z M1696.8,850.5c-0.7,3.6-1.5,5.5-1.4,7.4c1,23.4,5.6,47.4,2.5,70.2
			c-5.2,38.1,12.2,54.2,46.2,62.4c12.3,3,19,1.6,26.2-7.8c18.5-24.5,25.6-53,30.6-82.5c1.1-6.7-1.3-10.3-7.4-12.6
			C1761.3,875.3,1729.3,863,1696.8,850.5z M1690.9,678c0,22.7-0.3,42.4,0.1,62.1c1,53.3,1.1,53.2,51.9,72.8
			c9,3.5,17.7,7.8,26.8,10.8c9.1,3,17.6,9.5,29.3,7.8C1783.9,765.1,1751.4,713.4,1690.9,678z M988.1,1005.8
			c-0.8,1.1-1.5,2.3-2.3,3.4c13.8,10,28.4,19,41.2,30.1c23.9,20.8,50.3,31.5,82.7,29.3c24.7-1.6,49.7,0.4,74.5,1.4
			c8.8,0.3,16.1-1.9,23.2-6.7c4.2-2.8,5.9-5.3,2.4-9.7c-8.4-10.6-14.4-22.6-31-24.5C1115.2,1022.1,1051.6,1013.7,988.1,1005.8z
			 M885.3,1623.5c37.7-0.1,66.2-13.1,89.1-38.9c7.2-8.1,5.9-12.3-4.4-15.4c-21.8-6.4-43.5-13.4-65.2-20.2c-6.4-2-11.9-0.8-17.7,2.7
			c-21.8,13.2-43.8,26.3-66,39c-9.6,5.5-7.7,9.6,0.4,14C842.4,1616.3,864.1,1624.5,885.3,1623.5z M1387.5,910.3
			c13.4,28.1,24.5,50.9,35.1,74c3.5,7.6,8.3,9.2,16.3,8.6c24.8-1.7,49.6-2.3,74.4-3.4c3.7-0.2,10.7,1.8,9.1-4
			c-3.2-11.2-1.8-25.5-16.5-31C1468.1,940.5,1430.4,926.3,1387.5,910.3z M1025,958.6c43.6,5.6,81.6,10.5,123.9,16
			c-12.7-16.8-22.5-29.8-32.4-42.8c-3-3.9-6-7.1-12-5.1C1079.1,934.7,1053.5,942.1,1025,958.6z M751.5,1501.6
			c4,19.2,10.9,33.4,18.3,47.3c2.2,4.1,4.8,9.8,10.7,6.2c15.2-9.3,31.9-16.4,47.1-30C801,1516.9,777.7,1509.7,751.5,1501.6z
			 M970.3,1063.5c-39.4-36.5-50-36.5-64.4,0C926.9,1063.5,947.4,1063.5,970.3,1063.5z M1059.4,1211.1c-11.7,0.7-21.2,1-30.7,1.9
			c-8.9,0.8-17.6,2.3-29.6,3.8C1056.4,1243.2,1044.7,1240.6,1059.4,1211.1z M994.9,1490.6c-19.2,7-25.4,11-33.5,22.1
			C1000.5,1526.8,1000.5,1526.8,994.9,1490.6z M1006,1347.8c-12.1,4.5-23.7,4.1-34,11.2C1004.2,1370.8,1004.2,1370.8,1006,1347.8z"
			/>
	</g>
</g>
</svg>
