<?xml version="1.0" encoding="utf-8"?>
<!-- Generator: Adobe Illustrator 23.0.0, SVG Export Plug-In . SVG Version: 6.00 Build 0)  -->
<svg version="1.0" id="Layer_1" xmlns="http://www.w3.org/2000/svg" xmlns:xlink="http://www.w3.org/1999/xlink" x="0px" y="0px"
	 viewBox="0 0 3000 3000" style="enable-background:new 0 0 3000 3000;" xml:space="preserve">
<style type="text/css">
	.st0{stroke:#000000;stroke-width:10;stroke-miterlimit:10;}
</style>
<g>
	<path class="st0" d="M934.7,878.1c-52.6-33.2-99.4-68.1-150.3-96.5c-49.5-27.6-103.7-34.5-159.3-35.3c-32.5-0.5-65-1.2-96.8-8.8
		c-89.8-21.4-132-97.2-103.6-185.3c26.8-83.3,86.8-125.1,170.3-138c26.8-4.1,53.8-7.5,80.6-11.5c38-5.6,68.3-23.9,90.6-55.3
		C802,297.1,837.7,246.9,887.8,209c91.6-69.4,196.8-105.2,308.2-124.9c151.8-26.9,305.2-22.7,458.3-20.2
		c97.6,1.6,194.4,11,288.8,38.5c99.2,28.9,180.5,84.3,246.6,163.2c14.9,17.8,30.6,34.9,46.5,51.8c45.8,48.3,104.8,64.4,168.7,69
		c44.5,3.3,88.1,10.8,128.2,32.2c82.2,43.8,100,129.2,42.2,202.2c-21.4,26.9-47,48.7-78.1,63.3c-29.9,14.1-60,28.1-90.9,40
		c-52.8,20.3-96.4,51.9-130.2,97.4c-21.8,29.4-48,54.8-79.4,77c36.5,20.2,72.8,40.2,106.7,63.8c55.1,38.3,108.8,78.5,151.9,130.4
		c61.8,74.5,90.7,162.5,99.8,257.4c10.3,107.7,12.6,215.8,12.9,323.9c0.9,293.2-0.4,586.3-5.5,879.4
		c-1.8,104.7-34.3,199.2-104.1,278.8c-59.7,68.2-137.3,103.3-224.7,121.5c-88.2,18.4-177.5,21.9-267,23.2
		c-132,1.9-264,3.2-395.9-3.8c-143.1-7.6-285.8-20.8-423.9-60.6c-236.2-68-394-217.3-462.4-456.9c-31.9-111.7-51.6-225.6-67.8-340.4
		c-13.2-93.1-23.8-186.5-33.8-280c-21-196.7-21-392,42.4-582.4c40-120.3,101.7-227.2,201.8-308.6
		C859.2,918.2,894.3,897.1,934.7,878.1z M1039.3,1927c-1,58.4,1.1,116.7,4.3,175c5.5,99.7,27.9,194.7,88.3,276.2
		c83.7,113.1,197.9,184.7,329.5,228.8c145.1,48.5,291.2,40.6,436.5-0.9c243.9-69.6,395-252.3,418-504.1
		c10.7-117.9,10.5-235.7,0.2-353.6c-8.4-95.4-28.2-187.6-78.1-270.7c-84.4-140.6-211-228.9-362.3-283
		c-148-52.9-296.9-43.5-445.3,2.1c-222.6,68.3-346.4,218.4-376.2,448.6C1041.9,1738.8,1041.9,1832.9,1039.3,1927z M1405.5,103.8
		c-79.3,4.8-164.1,8.2-246.9,28.4c-139.9,34.3-265.6,90.3-345.2,220.3c-28.2,46.1-69.2,78.6-124.2,88.7
		c-29.9,5.5-60.2,9.2-90.4,13.1c-69.9,8.9-121.7,53.3-138.3,119.2c-16.1,63.7,18.4,116.2,83.2,126.3c28.9,4.5,57.9,6.5,87.1,6.4
		c77.6-0.1,149.2,20.2,213.7,63.9c22.5,15.2,45.1,30.3,67.6,45.4c29.3,19.8,29.4,19.9,54.8-3.6c204.9-189.6,361.4-413,468.8-670.8
		C1451.2,103.7,1451.1,103.6,1405.5,103.8z M1407.1,805.3c7.2,0,10.5,0,13.8,0c14.7,0.2,26.4,0.7,27.3-21.2
		c1-22.6,22.1-36.4,45-35.9c22.3,0.5,39.5,14.8,42.3,39.5c1.5,13.3,8.1,13.5,16.8,11.7c8.2-1.6,20.2,5.8,22.4-11.4
		c3.9-30.2,18.3-43.3,44-43.6c26.3-0.3,39.9,12.4,45.2,42.3c0.6,3.6-1,8.5,4.8,9.1c4.5,0.5,9.4,1.2,12.1-4.2
		c2.3-4.8,4.7-9.5,7.1-14.2c43.5-85.4,108.9-144.5,203.5-167.3c81.7-19.7,163.3-13,244.4,4.7c70.6,15.4,138.7,36.1,189.3,92.7
		c4.8,5.4,11.1,6.9,17.9,2.9c43.6-25.5,92.6-39.2,137.1-62.6c33.6-17.7,61.3-41.9,78.5-76.4c19.1-38.4,10.3-76.4-23.3-102.8
		c-19.1-15-40.4-24.8-64-30.5c-34.2-8.2-69.2-11.7-104-15.7c-59.2-6.8-111.1-29.1-154-71.1c-23.2-22.8-44.4-47.5-65.6-72.1
		c-27.4-31.8-58.1-60-93.7-82.6c-76-48.4-161-69.1-248.9-81.6c-39.5-5.6-32.2-3.6-41.9,26.6c-65.5,203.9-158.7,393.8-284.1,567.6
		C1456.5,740.5,1432.7,771.2,1407.1,805.3z M1118.8,900.1c-7.7,0-18.3-0.8-28.9,0.1c-45.1,3.8-87.4,12.8-117.3,52.4
		c-95,125.7-12.9,323.9,143.3,344.2c30.3,3.9,57.6-2.6,81-23.9c45.1-40.9,96.9-71.4,153.3-94.2c23.4-9.5,28.3-18.2,23.4-43
		c-11.4-58.1-35.8-110.7-69.4-159c-20.2-29.1-48.2-48.8-81.2-61.5C1190.4,902.7,1156.6,898,1118.8,900.1z M2275.9,1085.9
		c0,0.5-0.1,0.9-0.1,1.4c-8,0-15.9-0.5-23.9,0.1c-78,5.1-139.5,35.1-168.5,113.2c-11.8,31.8-8.5,44,19.2,64.8
		c62.5,47,117.9,100.7,159.6,167.5c10.5,16.8,25.2,30.4,45.6,32.1c56.7,4.8,106.6-9.4,142.6-57.1c50.9-67.4,49.7-172.9-2.4-246.1
		c-26.5-37.3-61.1-62.4-106.9-69.7C2319.7,1088.8,2297.7,1088,2275.9,1085.9z M1120.4,2778.1c17.9-1.4,35.2-1.8,52.2-4.2
		c55.6-7.9,99.9-33.7,128.2-83.6c28.7-50.6,20.1-90.9-28.7-123.3c-53.3-35.4-102.8-74.9-145-123.1c-9.3-10.6-21.1-17.3-35.1-14.8
		c-89.6,16.2-160,57.9-193.6,147.7c-32.3,86.2,3.2,158.2,90.9,185.6C1032.3,2775.9,1077.1,2773.5,1120.4,2778.1z M2301.5,2464.2
		c-16.9-1.2-35.4,1.6-53.6,4.6c-40.6,6.8-73.3,25.9-93.5,63.3c-46.2,85.5-28.8,185.3,43.6,249.9c78.1,69.7,175.4,69,238.9-1.9
		c26.1-29.2,44-62.9,53.4-100.9c23.3-93.7-23.4-179.1-112.4-205.6C2353.6,2466.5,2328.6,2463.6,2301.5,2464.2z M829.6,2645.2
		c2-1.7,2.9-2.1,3-2.5c11.1-79.2,43.7-146.4,108.6-195.9c9.2-7,6.9-13.6-2.4-20.3c-45.1-32.5-89.8-65.7-134.8-98.4
		c-10.8-7.8-22.5-9.9-35.6-4.4c-33.1,13.8-52.1,52.8-40.9,86.7c13,39.6,26.4,79.1,40.4,118.3
		C782.8,2569.9,803.2,2608.4,829.6,2645.2z M926.8,931.9c-4.6,1.5-8.4,2.2-11.5,4c-82.7,47.9-140.9,118.5-187,200.6
		c-6.9,12.3-2.3,21.8,6.7,29.9c16.7,15.1,33.7,29.8,50.9,44.3c10.1,8.5,20.5,6.8,31,0c20-12.9,39.9-26,60.4-38
		c14.8-8.6,19.3-19.1,14.6-36.2c-17.6-64-5.7-124.4,24.9-182C920.4,947.8,926.2,942,926.8,931.9z M2511.1,1403.4
		c-14.2,16.4-24.8,28-34.6,40.3c-21.2,26.8-47.7,45.2-80.9,54.3c-21.3,5.8-42.8,8.1-64.8,6.9c-7.8-0.4-16.8-2-20.9,7.1
		c-3.6,7.8-0.8,15.4,3.6,22.5c5.6,9.1,11.6,18.3,20.5,24c44,28.2,90.2,52.3,137.6,74c10.7,4.9,21.4,2.9,28.7-6.5
		c12.3-15.9,22.2-33.5,21-54.3C2518.4,1517.6,2514.8,1463.5,2511.1,1403.4z M1001.6,2407.5c16-4,32.6-8.1,49.3-12.4
		c27.9-7.2,27.6-7.2,14.8-32.1c-7-13.5-12.9-27.5-19.5-41.2c-6.1-12.8-14.3-24.2-25.9-32.2c-30.9-21.6-62.2-42.6-93.5-63.6
		c-11.6-7.8-23.2-8.2-34.7,1.1c-18,14.5-36.2,28.9-54.5,43.1c-13,10.1-11.7,18.8,1.2,28.1c45.1,32.5,89.9,65.3,134.8,98
		C981.8,2402.1,990.9,2405.6,1001.6,2407.5z M915.3,1380.3c-0.3-5.1-3.6-8.5-7.2-11.4c-33.3-27.3-66.5-54.7-100-81.7
		c-8.3-6.7-17.8-7.7-27.6-1.4c-21.2,13.6-42.5,26.9-63.9,40.1c-8.7,5.4-10.7,10.3-2.3,18.3c32.3,30.5,64.2,61.3,96.1,92.2
		c10.3,9.9,20.3,10.5,31.9,2.3c20.5-14.6,41.4-28.5,62-43C909.7,1391.9,915.7,1388.3,915.3,1380.3z M984.3,1856.6
		c-1.5-1.9-3.1-4.9-5.6-6.9c-26.2-21.4-52.5-42.5-78.8-63.8c-8.2-6.6-15.8-4.7-23.6,0.6c-29.6,20-59.2,40.2-89,59.9
		c-9.4,6.2-11.7,11.1-1.5,19c26.6,20.8,52.8,42.1,79,63.5c9.6,7.8,18.6,8.4,28.8,0.9c27.2-20.1,54.6-39.8,81.9-59.7
		C979.8,1867,984.3,1863.9,984.3,1856.6z M644.9,1959.4c-0.4,13.8,3.4,24.1,14.7,31.6c21.5,14.2,42.8,28.7,63.8,43.7
		c9.6,6.9,18,6.6,27.1-0.1c25.1-18.4,50.1-36.7,75.3-54.8c12.1-8.7,10.4-16.7-0.3-25.1c-26.4-20.9-52.8-41.9-79-63.1
		c-7.2-5.8-13.6-6.2-21.6-1.4c-23.3,13.9-46.5,27.9-67.6,45C649,1941.7,643.4,1949.3,644.9,1959.4z M1224.9,678
		c-20.8-1-36.7-1.7-52.5-2.4c-14.5-0.7-25.7,5.2-34.1,16.7c-3.9,5.2-5.4,10.3,0.2,15.8c62.2,61.7,138.3,84.2,224,79.5
		c11.6-0.6,16.5-10.5,20.1-19.7c3.5-9.3-6.6-9.8-11-13.5c-23.3-19.7-47-38.7-70.3-58.3c-11.5-9.7-23.8-15.8-39.5-15.5
		C1247.7,680.7,1233.8,678.7,1224.9,678z M873.4,2002.6c-0.6,0.2-4.1,0.8-6.6,2.6c-26.3,18.8-52.7,37.6-78.6,57
		c-9.4,7-4.6,14,2.8,19c34,22.9,68.2,45.3,102.1,68.2c10.7,7.3,19.4,4.9,28.7-2.6c18.5-15,37.1-29.7,56.1-44.2
		c12.1-9.2,12.1-17.6,0.2-26.8c-28.7-22.2-57.3-44.7-85.9-67.1C887.3,2005.1,882.6,2001.5,873.4,2002.6z M625.1,1474.8
		c-1,27.2,36.4,69.4,55.7,70.4c5.7,0.3,10.3-2,14.7-5c25.1-17.2,50.1-34.6,75.4-51.6c11-7.4,11.9-15.7,3-24.5
		c-32.7-31.9-65.3-64-99.1-94.9c-13.8-12.6-29.6-7.1-33.2,10.9C634.8,1413.9,629.7,1447.9,625.1,1474.8z M675.6,2156.2
		c0.3,16.6,5.8,25.3,14.7,31.9c25.9,19.4,52,38.6,77.8,58.1c10,7.6,18.8,7.3,28.6-0.7c19.5-15.9,39-31.7,59.2-46.6
		c10.7-7.9,10.7-13.6-0.1-20.7c-35.2-23.3-70.2-47-105.4-70.4c-7.6-5-15.4-7.4-23.8-0.9c-12,9.2-24.6,17.8-36.5,27.3
		C681.7,2141,675.7,2149.7,675.6,2156.2z M738.2,1820.6c5.6,0.5,10.2-1.5,14.7-4.6c27.8-19.1,55.6-38.1,83.6-56.8
		c8.3-5.6,8.5-10.4,1.3-17c-19-17.5-37.7-35.2-56.5-52.9c-8.1-7.6-16.6-7.1-25.1-0.9c-28.9,20.9-57.8,41.9-86.8,62.7
		c-8.8,6.3-11.6,12.3-1.7,20.1c19.2,15.1,38.3,30.4,57.5,45.6C729.1,1819.7,733.4,1820.9,738.2,1820.6z M1646.4,1022.2
		c-1-1.7-2.2-4.8-4.2-7.4c-21-27.2-41.9-54.4-63.2-81.2c-9.9-12.4-22.1-10.7-33.3-2.1c-16.8,12.8-32.8,26.6-49.3,39.8
		c-8.9,7-8.1,14-1.2,21.7c23.6,26.7,47.4,53.3,70.6,80.4c7.3,8.5,13.3,8.3,21.5,1.7c16.4-13.3,33.3-26,50.1-38.9
		C1641.6,1032.9,1645.7,1029.5,1646.4,1022.2z M1462.8,647.2c-30.9-26.7-60.4-52.2-90-77.5c-2.9-2.4-6.9-4.6-10.5-4.9
		c-35-2.6-70-5.2-105-6.7c-14.1-0.6-20.5,10.9-25.4,22c-5.3,11.8,7.8,11.5,12.4,16.7c5.7,6.4,12.4,11.9,18.8,17.7
		c22.5,20.2,47.8,32.4,79.1,30.8c15.1-0.8,30.4,1.6,45.6,1.8C1411.9,647.4,1436.1,647.2,1462.8,647.2z M1531.1,531.9
		c-28.4-25.7-54.4-45.5-75.7-69.5c-31.6-35.6-73.9-26.3-112.5-31c-13.8-1.7-21.8,12.9-26.6,26c-4.7,12.8,7.1,15.7,13.2,21.4
		c13.5,12.6,27.9,24.4,41.9,36.5c6,5.2,12.1,9.9,20.8,10.2C1436.5,527.3,1480.7,529.5,1531.1,531.9z M1040.5,2819.5
		c44.5,25.2,91.7,42.7,139.5,57.9c43.2,13.8,82.3,0.3,116-29c3.9-3.4,10.9-5.9,7-14.2c-10.3-21.9-53.4-41.8-74.9-32
		c-34.9,15.9-71.7,16.8-108.8,17.1C1093,2819.7,1066.7,2819.5,1040.5,2819.5z M1020,1310.5c-39.5-26.6-72.6-57.8-97.1-97.3
		c-5.1-8.3-11.9-9.7-20.2-4.5c-17.5,10.8-34.9,21.6-52.6,32.1c-12.5,7.5-10.8,14.9-0.8,23c33.5,27,67,54.1,100.5,81.1
		c7.8,6.3,15.3,6.6,23.5,0.6C988.2,1334.4,1004.7,1325.6,1020,1310.5z M1584,410.8c-37.9-34.9-71-65.9-104.7-96.2
		c-34.1-30.6-69-23.2-89.7,17.4c-4.9,9.6-2.9,14.4,4.2,21.9c29.7,31.3,62.3,55,108.5,50.2c1.3-0.1,2.6,0.4,3.9,0.5
		C1530.1,406.5,1554.1,408.4,1584,410.8z M891.6,1710.8c12.2-1.4,24.2-5.4,34.8-12.3c13.3-8.6,25.8-18.6,39.2-27.1
		c11.1-7,10.6-13.1,1.5-21.5c-18-16.6-35.7-33.6-53-51c-10.3-10.4-20.3-10.8-31.6-2.4c-13.2,9.9-26.5,19.8-39.8,29.6
		c-35.5,26.5-35.6,26.5-2.8,56.5C854.7,1696,869.7,1709.1,891.6,1710.8z M1489.6,2921.6c0.9-0.3,3.8-0.6,5.8-2.1
		c20.3-14.9,40.5-29.9,60.6-45.1c9.1-6.9,1.9-11.3-3.1-15.3c-22.8-18.2-45.8-36.1-68.6-54.3c-9.4-7.5-18.7-8.4-29.2-1.8
		c-17.4,10.8-34.6,22.2-53,31.2c-14.1,7-12.5,12.2-2.1,20.6c24.7,20,49.1,40.4,73.8,60.5C1477.8,2918.6,1482,2922.3,1489.6,2921.6z
		 M1755.7,939.5c-1.7-2.5-3.5-6.1-6.2-8.8c-25.9-25.5-52-50.9-78-76.3c-4.5-4.3-8.9-7.9-15.5-3.3c-14.1,9.7-30,17.1-41.4,30.3
		c-7.1,8.2-11.6,17.8-2.1,26.3c22.8,20.5,39.2,46.4,60,68.5c6.4,6.8,13.3,13.2,23.5,13.1c10-0.1,56-35.4,58.9-44.9
		C1755.2,943.2,1755.3,941.9,1755.7,939.5z M1672.8,2771.3c-1.1-2.4-2-6.6-4.5-9.3c-16.3-17.4-33.6-33.7-53.1-47.7
		c-6.2-4.4-11.8-3.4-18.3,0.4c-21,12.5-42.6,24.2-63.6,36.7c-18.3,10.9-19.1,21.6-2.2,35.1c18.6,14.8,38.1,28.6,57,43
		c7.9,6,15.4,6.9,23.4,0.5c17.1-13.6,34.5-26.8,51.4-40.7C1668.1,2785.4,1672.5,2780.1,1672.8,2771.3z M2339,1045.3
		c-37.5-34-76.7-64.4-122.8-84.7c-9.4-4.2-18.3,1.3-25.5,7.4c-16.5,14.2-32.7,28.9-48.9,43.4c-3.6,3.2-6.1,6.4-3.9,12
		c7.7,19,34,32.9,55,29.4c16.3-2.7,32.8-4.2,49.1-6.4C2274,1042.2,2306.1,1045.9,2339,1045.3z M1438.2,1147.5
		c27.5-6.7,56.1-9.8,82.2-21.8c16.2-7.5,17.3-14.6,5-28.9c-19.5-22.6-39.3-44.9-59.1-67.1c-11.1-12.4-24-15.5-39-6.8
		c-21.5,12.5-30.1,25.7-24.1,42.4c8,22.5,14.1,45.4,18.5,68.7C1423.3,1143.1,1428.1,1148.5,1438.2,1147.5z M1712.9,2817
		c-1,0.2-4.6,0.1-7.5,1.4c-23,9.7-41.2,26.2-59.2,42.7c-7,6.5-2.5,13.3,3.9,18.4c22.4,17.6,45,35,67.1,52.8c8.4,6.7,15.5,6,22.8-0.9
		c14.9-14.2,29.9-28.2,44.5-42.6c9.1-9,9.9-18.5-0.6-27.1c-15.9-12.9-31.9-25.8-48.3-38.2C1729.8,2819,1722.7,2816.7,1712.9,2817z
		 M2332.5,2257c-0.6,21.9,29.9,65,48.6,70.4c3.9,1.1,7.6,1.7,11.2-1.2c23-18.9,44.2-39.8,63.8-62.2c4.5-5.1,4.2-9.5-1.4-13.1
		c-30.4-19.8-60.9-39.4-91.4-59.2c-6.4-4.2-11.7-3.4-13.9,4.1C2343.3,2216.7,2337.8,2237.8,2332.5,2257z M2525.6,1984.4
		c1.6-13.4-4.7-22.4-14.1-29.5c-9.5-7.1-19.9-13.1-29.4-20.2c-56.9-42.4-44.8-36.5-97.7,7c-12.4,10.2-11,17.9,2.8,25.3
		c29.1,15.6,57.7,31.9,86.9,47.3C2512.8,2034.6,2524,2027.8,2525.6,1984.4z M2522.8,2131c-0.6-9.5-0.3-19.6-2.1-29.2
		c-2.8-15.2-12.4-20.6-26-12.2c-30.3,18.9-60.1,38.5-90,58c-6.4,4.2-9.9,10.2-1.6,15.5c28.9,18.5,56.1,39.7,87.5,54.2
		c13.3,6.2,21.5,1.1,24.7-13C2520.8,2180.3,2520.4,2155.8,2522.8,2131z M1566.8,2680.7c-64.8-18.6-126.5-33.6-185.7-56.7
		c-12.9-5-18.3,0.9-16.5,14.8c1.2,9.2,4.7,16.6,11.6,22.2c28.4,22.8,57.1,45.3,85.5,68c7.6,6.1,15,7.5,23.6,2.1
		C1511.1,2715,1537,2699.1,1566.8,2680.7z M2523.4,1748.2c-1.3-9.8-1.6-19.9-4-29.5c-4.6-18.5-27.4-24.6-40.2-10.9
		c-27.9,30-55.5,60.4-83.2,90.7c-4,4.4-8.6,8.4-6.8,15.4c5.3,20.5,40.2,32.7,56.4,19.5c20.5-16.8,40.6-33.9,60.8-51
		C2516.9,1773.5,2524.5,1763,2523.4,1748.2z M2003.9,970.8c-12.3-0.4-21.4,6.7-30,13.5c-12.4,9.8-24.1,20.6-35.8,31.2
		c-16.4,14.8-16.7,22.8-0.5,38.6c10.8,10.6,23.3,19.5,33.6,30.6c9.2,9.9,16.3,8.5,25,0.3c13.8-13.2,28-26.1,42-39.1
		c26-24.2,26.2-24.4,2.5-51C2030.6,983.7,2021.3,971.1,2003.9,970.8z M1373.3,853c22.7,26.8,42.5,51.2,65.4,72.9
		c12.4,11.7,25.7,12.3,39.4,2.6c15.6-11.1,31.2-22.2,46.5-33.6c5.4-4,9-9.1,6.8-17c-6.2-21.8-23.9-34.8-47.3-33.2
		C1448.6,847,1413.1,849.9,1373.3,853z M1791.1,981.3c-2,0.5-5.5,0.7-8.3,2.1c-21.6,10.5-39.9,25.6-56.7,42.4
		c-7.8,7.8-5.2,17.2,1.2,25.1c11.2,13.8,22.7,27.4,34.2,41c7.7,9,15.5,8.1,23.8,0.4c19.4-17.9,38.7-35.9,58.4-53.4
		c9-8,10.2-13.9-1.2-20.9c-11.3-6.9-21.1-15.8-29.7-25.9C1807.5,985.9,1800.7,982,1791.1,981.3z M1521.8,103.3
		c14.2,16.2,28.6,32.4,42.8,48.8c6.5,7.5,14.7,7.6,23.6,6.7c27.6-2.9,55.2-5.6,82.8-8.6c13.1-1.4,26.5-2,39.3-5
		c15.2-3.6,15.7-18,17.9-30.1c1.5-8.3-5.9-7.4-10.7-7.8C1651.4,102.3,1585.4,102.8,1521.8,103.3z M1219.9,867.4
		c65.6,21.5,113.1,63.4,148.5,120.5c11.5,18.6,24,6,35-1.5c12.7-8.6,9.5-18.4,0.7-28.3c-25.9-29.2-51.6-58.6-77.3-88
		c-5.8-6.7-12.3-12.2-21.9-11.6C1276.8,860.1,1248.4,858,1219.9,867.4z M1893.1,2779.5c-1.2-2-2.2-4.6-4-6.4
		c-15.4-15.3-30.7-30.9-46.7-45.6c-7-6.5-16.2-6.3-23.7-0.3c-16.1,12.7-31.8,25.8-47.4,38.9c-8.9,7.4-9.1,15.7-0.5,23.5
		c10.7,9.8,21.5,19.6,32.9,28.5c10.6,8.3,21.3,22.3,36.2,13.4c20.9-12.5,38.7-29.5,52.7-49.8
		C1892.9,2781.3,1892.9,2780.5,1893.1,2779.5z M1630,270.6c-39.2-42.5-74.2-84.7-138-63.2c-10.4,3.5-22.2,3-33.4,3.7
		c-11.3,0.8-18.4,9.2-12.1,16.5c11.6,13.6,22.6,32.2,42,34.1C1534.4,266.2,1580.7,267.7,1630,270.6z M1927.6,2822.4
		c-0.5,0.2-4,0.5-6.7,2.1c-17.7,10.7-32.3,25-45.3,40.9c-5.2,6.4-3.9,14.1,2.1,19.7c13.4,12.7,26.8,25.4,41,37.2
		c9,7.5,19,7.7,28.5-1c10.7-9.8,21.8-19.2,33-28.3c14.3-11.6,12.8-23.4,0.7-35.1c-10-9.6-20.4-18.7-31.1-27.6
		C1944.4,2825.6,1938.3,2821.4,1927.6,2822.4z M819,1515.2c-8.2-1.3-13.9,3.7-19.8,7.8c-18.4,12.9-36.8,25.8-55.1,38.8
		c-20.7,14.7-21.6,20.4-1.9,37.3c11.8,10.1,23.7,26.2,42.7,13.7c23.2-15.2,45.7-31.4,68.5-47.1c6.9-4.7,10.2-10.9,6.1-18.6
		C850.8,1530.6,837.6,1519.4,819,1515.2z M908.5,1520.6c2-0.7,6.8-1.5,10.4-4c24.9-17.5,49.5-35.3,74.1-53.2c4.5-3.3,7-7.9,6.2-13.8
		c-2.8-22.1-36.8-39.6-55.5-27.5c-23.3,15.1-45.7,31.6-68.4,47.6c-4.4,3.1-8.3,6.6-8.3,12.7C867,1494.6,893.2,1520.5,908.5,1520.6z
		 M1957.9,932.4c-7-18-22-30.4-39-41.3c-12.7-8.1-19.4,1.8-27.5,7.9c-6.4,4.7-12.8,9.5-19.2,14.2c-44.7,33.1-44,44.1,3.4,76.6
		c10,6.8,17.7,7.2,26.5-0.6c16.3-14.6,32.9-28.8,49.3-43.3C1954.9,942.8,1958.2,939.5,1957.9,932.4z M2207.1,2911.2
		c-20.1-21.5-39.8-42.7-59.8-63.8c-21.6-22.8-28.5-23-51.6-1c-4.8,4.6-9.1,9.6-13.6,14.5c-10.1,11-10.1,21,0,33
		C2110.9,2928,2161.5,2935.8,2207.1,2911.2z M1350.7,2807c2.5-0.4,6.5-0.6,10.2-1.9c23.1-8,41.9-23.7,62.3-36.4
		c8.3-5.1,2.9-9.7-2-13.6c-19.6-15.7-39.4-31-58.6-47.1c-7.4-6.2-11.6-5.3-17.3,2.2c-12.4,16.2-25.9,31.6-38.6,47.6
		c-3,3.8-7.3,7.5-5.2,13.9C1305.6,2784.5,1335.4,2806.8,1350.7,2807z M2509.7,2434.9c9.1-47.2,6.1-91.6,5.7-135.9
		c0-5-1-9.7-5.6-11.9c-6.3-3-11.8,0.7-16.1,4.8c-20.5,19.8-40.7,40-60.9,60.1c-7.1,7-6.8,13.8,1.1,20.2
		C2458.4,2392.4,2482.8,2412.6,2509.7,2434.9z M2085.1,2789.9c-1.2-7.1-5.8-10.9-10.2-14.9c-9.8-8.8-19.9-17.3-29.3-26.5
		c-22.6-22-23.2-22.9-46.2-1.4c-43.2,40.4-40.9,27.6,0.3,66.5c10.7,10.1,19.6,33.2,40.9,21.3c14.6-8.1,29.3-18.1,38.7-33.2
		C2081.7,2797.9,2083.3,2793.6,2085.1,2789.9z M619.3,1731.1c35.7-25.5,68.5-48.8,101.2-72.3c5.5-4,11.7-9,3.8-15.7
		c-16.4-14.1-31.4-31.6-56.8-26.2c-25.6,5.5-45,25-47.8,51.9C617.6,1688.1,619.3,1707.9,619.3,1731.1z M1807.7,1128
		c29.9,10.2,56.1,19.3,82.5,27.9c16.9,5.5,42.1-4.4,52.8-19.4c3.6-5,4.1-9.6-0.3-14.2c-13.6-14.5-26.5-29.6-41-43.1
		c-11.2-10.4-25.2-13.5-37.3-1.2C1847.3,1095.3,1829.6,1112,1807.7,1128z M2366.3,1756.8c27.1-26.5,52.1-50.8,76.9-75.2
		c4-3.9,4.5-8.7-0.8-11.5c-32-17.5-64.1-34.8-101-54.7C2354.8,1664.3,2357.6,1709,2366.3,1756.8z M2050.1,656.8
		c-2.4,1.4-5.5,2.7-8.1,4.5c-19.8,14.4-39.4,29.2-59.4,43.2c-11.3,7.9-4.4,12.2,2,17.7c42.8,36.4,42.8,36.4,87.8,2.9
		c32.4-24.2,32.5-24.3,0.2-51.2C2065.7,668.1,2060.4,659.9,2050.1,656.8z M1931.9,2646.1c-12.7-0.3-50.7,28.4-51.5,42.4
		c-1.4,24.8,24.7,32,36.2,48.8c5.2,7.6,13.5,7.3,21.3,2.7c17.4-10.2,31.6-23.8,43.7-39.8c1.9-2.6,3.5-5,2.7-9
		C1981.3,2677.5,1945.5,2646.4,1931.9,2646.1z M1720.4,840.4c25.2,23.8,46.7,45,69.2,65c7.3,6.5,16.1,3.2,23.6-2.7
		c17.2-13.5,34.6-26.6,51.8-40.1c3.9-3.1,10.3-5.4,7.6-12.2c-2.2-5.6-7.9-6.4-13.2-7.4c-23.5-4.4-47.4-5.3-71.2-5.9
		C1767.3,836.5,1746.2,835.9,1720.4,840.4z M1782.5,714.9c16.2,14.2,31.7,27.4,46.9,41.1c5.7,5.2,10.1,3.9,15.6-0.3
		c17.5-13.1,35.2-25.9,52.9-38.7c5.8-4.2,7.8-6.9,1.5-13.5c-38.3-40.7-52.8-42-96.6-6.7C1796,702.2,1789.8,708.3,1782.5,714.9z
		 M2180.4,768.6c-1.7-1.8-3.8-4.3-6.2-6.4c-8.9-7.9-18.2-15.4-26.9-23.6c-8.2-7.7-15.5-7.9-24.4-0.7c-16.5,13.3-33.4,26.1-50.8,38.3
		c-8.5,6-11.1,10-1.4,17.2c12.2,9.1,24,18.9,35.2,29.1c6.9,6.3,11.8,5.9,18.5-0.2c15.7-14.3,32-27.8,48-41.8
		C2175.9,777.5,2180.5,775.3,2180.4,768.6z M1042.8,1483.8c-34.4,24.4-63.3,45-92.3,65.4c-7.9,5.6-10.8,11.3-2.5,19.1
		c19.2,18.1,38.3,36.3,59.7,56.7C1017.8,1577.8,1028,1533.1,1042.8,1483.8z M1087.8,1336.7c-23.6-0.3-44.2,7.5-61.4,23.7
		c-9,8.5-20.4,16.7-16.3,31.3c4,14.3,16.7,19.8,29.7,23.8c12.4,3.8,23.3,0.3,33.2-8c12.8-10.8,23.3-23.7,32.6-37.3
		c5.8-8.5,19-17.8,14-26.3C1114.4,1335.2,1099.1,1336.9,1087.8,1336.7z M2081.1,902.1c-17.1,0.3-29.9,6-39.4,18.4
		c-3.8,5-7.7,12.1-2.8,16.1c18.3,14.8,33.9,33.3,56.4,42.3c6.4,2.6,13.2-0.4,18.4-4.8c13.2-11,25.9-22.5,39.1-33.4
		c6.4-5.3,3.9-9.4-1.6-11.9C2128,918.3,2105.6,905,2081.1,902.1z M1993.8,783.5c-52.1-49.4-52.3-49.5-107.2-7.7
		c-5.6,4.2-17.8,6.1-14.1,15.9c3.2,8.3,12.5,13.6,21.9,15.4c16.2,3.1,32.6,5.3,48.9,8.2c5.9,1.1,10.3-1.3,14.6-4.5
		C1969.4,802.1,1981,793.3,1993.8,783.5z M2458.8,2058.1c-30.1-16.9-57.4-32.2-87.1-48.9c-3,36.9-9.1,71-4.3,108.5
		C2398.6,2097.4,2427.1,2078.8,2458.8,2058.1z M1536.9,306.2c-0.5,1.4-1.1,2.9-1.6,4.3c25.5,23.7,51.2,47.2,76.6,71.1
		c7.9,7.4,11.9,4.9,15.7-3.7c7.7-17.5,15.7-34.8,23.8-52.1c4-8.6,2.7-13.7-8-14.2C1607.7,309.9,1572.3,308,1536.9,306.2z
		 M1651.9,2683.3c22.7,20.5,41.3,37.8,60.5,54.4c7,6.1,14.6,3.9,21.7-1.6c17.1-13.5,34.4-26.8,51.6-40.1c4.5-3.5,8-7.1,5.6-13.3
		c-2.1-5.4-7.1-5.5-11.7-5.3C1738.9,2679.2,1698.2,2681.1,1651.9,2683.3z M2267.7,2424c27.8-0.1,70.4-30.8,79-55.3
		c2.3-6.5,0.1-11.7-3.2-16.7c-5.6-8.5-14.4-13.3-22.5-19c-10-6.9-15.5-4.9-21.3,6c-12.4,23.2-25.7,46.1-40,68.2
		C2250.1,2421.7,2254,2425.5,2267.7,2424z M665,1281.5c-1.5,15.3,4.3,20,15.7,13.3c21-12.4,41.3-26,61.5-39.7
		c10.3-7,11.4-16.4,1.3-24.4c-11.9-9.4-24.7-17.6-37.1-26.3c-5.7-4-10-2.5-12.9,3.3C681.5,1232,671.8,1257.2,665,1281.5z
		 M988.1,1917.1c-22.4,16.2-41.9,30.6-61.7,44.7c-7.1,5.1-8.3,9.8-1,15.4c20.1,15.4,40.2,30.8,62.7,48.1
		C988.1,1988.3,988.1,1955,988.1,1917.1z M2124.3,1077.4c-1.7-6.9-6.7-11-12.6-14.3c-7.2-4.1-15-7.1-22.2-1.3
		c-22.6,18.3-44.3,38-62.6,60.6c-12,14.8,4.5,22.2,12.8,30.1c9.8,9.5,14.5,0.4,19.4-7.1c14.5-22.5,32.8-41.4,54.8-56.6
		C2118.2,1085.7,2123.2,1083.4,2124.3,1077.4z M2087.4,2572.4c-1.2,0-2.7-0.4-3.7,0.1c-26.5,13.5-53.1,26.8-79.3,40.7
		c-7.4,3.9-19.6,5-14.3,18.9c5.5,14.5,22,25.6,33.7,22.4C2051.7,2646.6,2084.6,2604.3,2087.4,2572.4z M1194.1,821.6
		c-40.5,0.2-81,0.7-120.6-6.2c-41.1-7.1-70.2,7.4-95.7,45C1050.7,836.3,1122.3,828.5,1194.1,821.6z M1722.8,1117.8
		c-13.4-17.3-24.5-31.2-35.3-45.4c-4.2-5.5-9-8.4-15.2-4.2c-21,14.2-41.9,28.5-61.3,49.6C1649.3,1117.8,1684.1,1117.8,1722.8,1117.8
		z M1613,196.6c23.6,22.1,43.9,41.1,66,61.8c8.9-24.1,17.1-46.1,26.2-70.7C1674.6,190.6,1646.7,193.3,1613,196.6z M2204.5,678.7
		c-12.4,2-23.2,12.5-30.2,22.9c-6.5,9.6,9.3,12.9,14.7,19.4c5,6,11.9,10.3,17.8,15.6c4.5,4,8.6,5.5,13.8,1
		c10.4-9.1,21.1-17.8,31.4-27c3.1-2.8,8-6.2,1.3-10.7C2239.1,690.3,2225,680.7,2204.5,678.7z M630.4,1800.9
		c-4.1,29,2.7,53.4,4.3,78.2c0.7,10.9,6.6,11.5,14.6,6.1c12-8.1,24-16.4,36.1-24.4c8.3-5.5,8.5-11,0.7-17
		C668.5,1830.1,650.8,1816.6,630.4,1800.9z M991.5,1803c2.7-29.1,5.6-53.8,7.1-78.6c0.7-12.1-8.1-15.6-17.2-10.2
		c-13.5,8-25.8,18.1-38.4,27.5c-4,3-3.3,6.9-0.1,10.2C958.2,1768,973.5,1784,991.5,1803z M2514.9,2518.1
		c4.4-13.5-3.5-20.8-11.5-27.8c-21-18.1-42.3-36-63.5-53.9c-12.6-10.6-25.5-21-38.2-31.6c-8.4-7.1-15.9-4-23.3,1.5
		c-4.6,3.5-11.1,6.1-10.3,13.3c1.1,10.3,10.8,8.1,17.1,10.2c46.7,15.5,88.8,37.6,117.6,79.7
		C2505.3,2513.1,2508.1,2517.2,2514.9,2518.1z M1656.2,2947.5c-39.5-51.8-76.9-53.7-105.3-7.6
		C1584.8,2946,1619.1,2945.5,1656.2,2947.5z M1498.2,446.4c12.1,11.2,21.5,19.9,30.9,28.7c35.7,33,35.6,32.9,55.1-11.5
		c2.8-6.5,5-11.6-4.6-12C1553.7,450.6,1528.1,444.6,1498.2,446.4z M2523,1826.8c-20.7,10.7-34,25-46.8,40c-4.1,4.8-4.7,10.4,1.8,13
		c10.7,4.3,18.5,12.6,28,18.3c11.1,6.7,17.3,3.8,17.1-10.2C2522.8,1868.7,2523,1849.6,2523,1826.8z M1006.5,2222.6
		c1.4-13.8-1.1-25.8-3-38c-1.7-11.5,0.8-29.3-8.7-32c-11.4-3.3-22.2,11-32.5,18.6c-10.1,7.5-10.7,16.4-0.3,24.2
		C975.6,2205.5,989.2,2215.7,1006.5,2222.6z M1995.8,644.6c-32.3-5.6-63.3-4.6-95.9,6.3c11.1,9.5,20.4,16.9,28.9,25
		c8.3,7.9,15.5,7.5,24.3,0.6C1967,665.5,1981.5,655.2,1995.8,644.6z M1726.1,796.6c20.2,0,38.5-0.1,56.8,0.1
		c6.6,0.1,12.4-2.5,15.1-7.7c4-7.5-4.6-9.6-8.3-13.2c-8-7.8-16.8-14.9-25.2-22.3c-4.9-4.3-9.9-7.7-14.7-0.4
		C1741.4,766.1,1731.5,778.4,1726.1,796.6z M1305.3,2902.6c26.2,5,49.9,9.7,73.7,14.1c6.9,1.3,13.9,1.9,21.8,3
		C1364.1,2870.1,1333.5,2864.1,1305.3,2902.6z M2228,813.9c0.2-6.1-4.6-8.2-7.9-11.1c-5.2-4.5-9.7-1.8-14,1.9
		c-15.4,13.5-31,26.7-46.1,40.6c-4.4,4.1-14.7,7.1-5.5,16.6c7.6,7.7,13.8,10,23.3,1.9c14.6-12.5,29-25,41.8-39.3
		C2222.7,820.9,2225.4,817.2,2228,813.9z M1435.2,569.2c10.4,9.3,16.6,15,23.1,20.5c36.9,31.1,36.9,31,59.9-12.5
		c0.3-0.5,0-1.3,0-3.6C1492.8,568.1,1466.7,569.9,1435.2,569.2z M1357.8,689.4c8.9,7.6,17.2,14.8,25.6,21.8
		c29.7,25,30.2,24.8,50.3-7.8c5.6-9,6.5-14.2-6.7-14C1404.7,689.6,1382.4,689.4,1357.8,689.4z M1151.2,775.1
		c-14.2-13.1-26.7-24.5-39-36.1c-5.1-4.9-9.4-6.3-14.8-0.4c-9.9,11.1-20.2,21.9-33.8,36.5C1094.6,775.1,1121.1,775.1,1151.2,775.1z
		 M1791.4,2944.2c27.5,9.3,52.6,0.4,77.6,0.5c8.4,0,6.1-7.2,1.5-12.7c-21.7-25.6-36.1-26.8-60.7-4.6
		C1804.4,2932.1,1799.1,2937,1791.4,2944.2z M706.1,2312.1c42.9-20.6,43.4-25.5,6.8-50.5c-4.7-3.2-8.7-8.1-16.4-7.6
		C694.3,2274,700.3,2292.6,706.1,2312.1z M2304.1,2875.2c-11.6-2.9-22.8-6.6-34.3-8.4c-11.2-1.8-21.9-7.3-34.1-5.7
		C2264.4,2904.5,2284.3,2908.7,2304.1,2875.2z M2023.5,1211.4c-6.8-21.9-20.1-33.4-35.3-43c-8.5-5.4-14.7-1.5-19.8,6.1
		c-6.4,9.5,2.3,11.9,7.3,14.4C1990.1,1196.4,2005.1,1202.9,2023.5,1211.4z M2091.9,2728.1c4-15.2-2.3-25.9-4.3-37.2
		c-1-6,0-14.5-8.7-15.9c-9.7-1.6-13.2,7.1-17.9,13.1c-5.9,7.6,0.9,12,5.4,16.4C2074.1,2712.3,2082.3,2719.4,2091.9,2728.1z
		 M1483.2,131c-4.3,10.9-7.6,18.8-10.6,26.8c-2.7,7-2,12,7.3,10.4c11.4-2,23.6,1.1,36.3-5.8C1505.2,152,1495.4,142.6,1483.2,131z
		 M661.6,2049.3c-0.4,15.4-4.6,31.1,8.7,39c6.2,3.7,20.8-4.1,21.1-13C692,2057.8,674.2,2057,661.6,2049.3z M2005.8,828.1
		c19.7,5.6,38.4,11,61.2,17.5C2029.1,806,2028.6,805.8,2005.8,828.1z M1965,867.6c7.7,12.6,18.2,19.3,28,26.3
		c7.6,5.4,13.5-0.9,18.2-6.6c3.5-4.3,3.7-9.2-2.4-10.8C1995.2,872.8,1982.4,865.5,1965,867.6z M2255.4,777.4
		c5.4-0.2,41.9-35.3,41.3-39.2c-0.7-4.7-5.3-7.8-8.4-5.3c-13.1,10.8-26,22-37.8,34.2C2245.1,772.7,2250.5,776.1,2255.4,777.4z
		 M2001.6,2931.5c14.4,4,25.4,1.8,36.5,1.8c4.5,0,9.9,0.3,10.7-5.9c0.7-5.3-3.3-8.4-7.3-10.5
		C2024,2907.5,2014.2,2919.3,2001.6,2931.5z M2116.5,652.8c16.3,24.9,21.7,26.1,35.3,8C2141.2,656.4,2130.5,654,2116.5,652.8z
		 M1310.5,520.1c-19.7-24.1-21.8-24.2-30.8-3.5C1289.1,520.1,1298.7,520.5,1310.5,520.1z M1222.6,637c-2.3-8.2-7.2-10.7-11.2-13.7
		c-4.6-3.4-9.7-4.1-14.1,0.5c-2.7,2.8-6.2,6.5-4.1,10.2c2.5,4.5,8.2,2.6,12.5,2.9C1210.7,637.3,1216,637,1222.6,637z"/>
	<path class="st0" d="M1158.2,1928c-2.2-87-0.5-173.8,21.6-258.6c46.8-179.2,162.7-288.8,340.9-332.9
		c220.6-54.7,410.7,0.6,566.5,166.1c67.8,72,98.4,162.4,109.5,259.3c14.1,123.1,15.3,246.8-4.9,368.8
		c-23.9,144.3-98.3,259.5-225.7,335.4c-93.9,55.9-195.8,87.3-306.6,81.9c-94.6-4.6-177.1-41.8-252.3-96.9
		c-118.9-87.2-204.3-197.6-235.2-344.9C1159.8,2047.3,1159.7,1987.6,1158.2,1928z M2157.4,1948.4c3-74.1-2.3-159-24.1-242.6
		c-22.7-87.1-58.4-165-132.2-222.6c-135.1-105.4-283-151.8-453.6-109.9c-171.2,42-283.6,143.3-323.8,317.7
		c-23.9,103.8-19.1,209.4-15.4,314.8c0.9,25.2,3.2,50.2,7.6,75.1c26.6,150.1,112.4,260.2,233.9,346.2
		c109.7,77.6,228.4,99.1,358.3,60.5c160.4-47.7,273.7-143.8,323.8-307C2153.9,2108.7,2157,2034.5,2157.4,1948.4z"/>
	<path class="st0" d="M1197.9,382.3c24.3,0.8,44.9,22.8,43.8,47c-1.1,23.7-21.9,43.4-45.6,43.2c-24.8-0.2-45.2-21.3-44.5-46
		C1152.1,401.6,1173.2,381.5,1197.9,382.3z"/>
	<path class="st0" d="M1367.8,228.2c0.6,24.5-20.7,46.6-44.9,46.5c-23.6-0.1-44.6-20.6-45.2-44.3c-0.7-24.3,18.4-44.7,42.9-45.9
		C1345.7,183.3,1367.2,203.2,1367.8,228.2z"/>
	<path class="st0" d="M1044.2,572c25.1,0.5,43.9,19.4,43.9,44.3c0,25.6-19.8,45-45.5,44.8c-25.5-0.3-44.5-20.4-43.7-46.4
		C999.7,589.7,1019,571.5,1044.2,572z"/>
	<path class="st0" d="M1170.7,524.4c0.1,25.2-18.2,43.5-43.9,44.1c-25.7,0.6-45.9-19.2-45.6-44.8c0.3-23.7,20.7-44.5,44.2-45
		C1149.9,478.3,1170.6,499.2,1170.7,524.4z"/>
	<path class="st0" d="M1265.5,378.4c-25.2,0.2-44.1-18.1-44.7-43.3c-0.6-25.7,18.8-46.3,44-46.6c24.7-0.2,45.3,20.6,45.1,45.8
		C1309.6,358.9,1290.3,378.2,1265.5,378.4z"/>
	<path class="st0" d="M992.8,702.7c-0.1,25.3-18.2,43-44.4,43.3c-26.4,0.3-45.6-18.8-45.1-44.6c0.5-24,20.7-44,44.6-44.3
		C972.8,656.7,992.9,677.2,992.8,702.7z"/>
	<path class="st0" d="M2292.7,579.6c-0.3,24.6-19.5,44.2-43.8,44.6c-24.9,0.4-44.8-20.2-44.7-45.9c0.2-24.9,19.4-44.3,44-44.4
		C2273.7,533.7,2293,553.6,2292.7,579.6z"/>
	<path class="st0" d="M2132.5,593.7c-25,0.4-46.1-19.6-46.6-44.1c-0.5-23.7,19.4-44,43.5-44.6c27.1-0.6,47.3,18.5,47.2,44.5
		C2176.4,573.8,2156.9,593.3,2132.5,593.7z"/>
	<path class="st0" d="M1697.3,509.5c-23.8,0.1-44.6-19.9-45.3-43.5c-0.7-23.8,20.4-45.8,44.6-46.5c24.3-0.7,45.5,20,46,44.7
		C1743.1,488.1,1721.8,509.4,1697.3,509.5z"/>
	<path class="st0" d="M1750.4,310.4c25.1,0.4,44.2,19.6,44,44c-0.3,24.7-21.4,44.8-46.5,44.3c-24.4-0.5-43.8-20.5-43.7-44.9
		C1704.2,328,1723.5,310,1750.4,310.4z"/>
	<path class="st0" d="M1559.3,736.4c-24.7,0.5-45.8-20.5-45.7-45.4c0.1-24.3,20-44.3,44.3-44.6c24.3-0.3,44.9,19.2,45.9,43.2
		C1604.8,714.1,1584,736,1559.3,736.4z"/>
	<path class="st0" d="M1676.6,721c-25.3,0-44-18.4-44.4-43.5c-0.4-24.9,20.4-45.4,45.7-45c24,0.3,44.3,20.6,44.6,44.4
		C1722.8,701.7,1702.7,721,1676.6,721z"/>
	<path class="st0" d="M1761.8,637.5c-25.2,0.1-45.5-20.1-45.2-45c0.3-24.3,19.7-44,43.9-44.5c24.9-0.5,45.9,19.5,46.4,44.3
		C1807.5,616.7,1786.9,637.3,1761.8,637.5z"/>
	<path class="st0" d="M1795.5,194.3c25.9-0.1,45.8,19.6,45.4,45c-0.4,24.6-19.7,43.4-44.6,43.7c-25.7,0.2-45.1-19.2-45-44.9
		C1751.5,212.9,1770.2,194.4,1795.5,194.3z"/>
	<path class="st0" d="M1629.6,533.3c25.9,0.4,44.7,20,43.9,45.7c-0.8,24.9-19.9,42.4-45.7,42.1c-25.4-0.3-44.1-19-44-43.9
		C1584,551.8,1603.6,532.9,1629.6,533.3z"/>
	<path class="st0" d="M2011.2,573.9c-25.6,0.2-44.3-17.5-45-42.5c-0.7-24.9,19.9-45.7,45.1-45.6c24.4,0.1,44.5,19.5,45.2,43.7
		C2057.3,554.5,2037.8,573.6,2011.2,573.9z"/>
	<path class="st0" d="M1833.8,546.2c0-25.4,20.1-45.3,45.6-45c24.7,0.3,43.5,19.6,43.7,44.7c0.1,25.2-18.5,44.3-43.4,44.7
		C1854,591.1,1833.8,571.5,1833.8,546.2z"/>
	<path class="st0" d="M1717.3,1974.3c91.6,0.8,166.2,76.8,165.3,168.5c-0.9,90.7-76.2,165-166.9,164.8
		c-91.6-0.2-167.1-76.2-166.4-167.6C1549.9,2048.3,1625.7,1973.6,1717.3,1974.3z M1715.3,2281.6c78.5,0.3,142-62.9,141.8-141
		c-0.3-77.2-63.2-140.3-140.5-140.8c-77.2-0.6-140.6,62-141.3,139.5C1574.6,2218.5,1636.5,2281.3,1715.3,2281.6z"/>
	<path class="st0" d="M1892.9,1659.5c51.8,0.3,90.5,38.9,90.7,90.2c0.1,51.3-41.5,92.9-92.3,92.2c-49.9-0.6-91.1-42.1-91.2-91.8
		C1799.9,1698.8,1840.4,1659.2,1892.9,1659.5z M1892.7,1815.9c36.3-0.3,65.4-29.4,65.6-65.6c0.2-37.2-29.6-66.8-66.7-66.5
		c-37,0.2-66.1,30.4-65.4,67.8C1826.8,1788.1,1855.8,1816.2,1892.7,1815.9z"/>
	<path class="st0" d="M1425.7,1659.4c48,0.2,83.3,35.1,83.2,82c-0.2,46.5-36.6,82.1-83.7,81.9c-45.6-0.2-81.4-36.6-81.3-82.6
		C1344.1,1694.3,1379.4,1659.2,1425.7,1659.4z M1425.7,1798.4c31.8,0.4,58.6-26,58.4-57.6c-0.1-30.7-26-56.6-56.9-57
		c-31.6-0.4-57.2,24.1-58,55.4C1368.4,1771.3,1393.9,1798,1425.7,1798.4z"/>
</g>
</svg>
