<?xml version="1.0" encoding="utf-8"?>
<!-- Generator: Adobe Illustrator 23.0.0, SVG Export Plug-In . SVG Version: 6.00 Build 0)  -->
<svg version="1.0" xmlns="http://www.w3.org/2000/svg" xmlns:xlink="http://www.w3.org/1999/xlink" x="0px" y="0px"
	 viewBox="0 0 3000 3000" style="enable-background:new 0 0 3000 3000;" xml:space="preserve">
<style type="text/css">
	.st0{stroke:#000000;stroke-width:10;stroke-miterlimit:10;}
</style>
<g id="Layer_1">
</g>
<g id="Layer_2">
	<g>
		<path class="st0" d="M431.5,1291.8c-33.4-9.1-60.5-19.3-85.4-35.6c-69.7-45.6-100.4-112.8-115.1-192.4
			c-26.8-144.9,24.7-271.2,86.6-396.1c101.6-205.3,266.6-324.9,491.1-363.6c41.8-7.2,84-9.1,126,0.9c59.2,14.2,94,51.4,102.9,111.3
			c13.3,90.2,40.7,116.7,131.3,123.7c150.2,11.5,295.1-7,431.9-74.7c140.7-69.6,291.1-87.1,445.6-78.8
			c119.7,6.4,237.3,26.2,352.9,57.5c16.5,4.5,31,3,47.3-3.6c138.5-55.6,298.6-25.3,389.2,76c58.6,65.5,90.5,142.4,78.3,232.6
			c-3.9,29.1-15.7,56.2-40.2,73c-40.4,27.7-51.8,73.3-32.9,128.1c13.6,39.5,34.3,75.2,57,109.7c19.8,30.2,30.9,63.4,31.1,98.6
			c1,159.3-6,318-48.5,472.8c-7.7,28.2-18.5,55.9-30.9,82.4c-7,15-6.5,26.8-0.8,41.4c57,147.5,82.8,299.3,53.5,456.5
			c-39.8,213.8-159.8,358.8-371.8,421.6c-10.5,3.1-21.2,5.2-29.5,13.6c-78.7,79.2-178.2,109.1-285.5,122
			c-111.5,13.3-222.1,9-332.2-11c-42.5-7.7-82,7.2-122.5,13.3c-239.2,36.1-476,31-703.6-57.7c-260.6-101.6-527.5-181.4-798.8-247.4
			c-17.1-4.2-33.7-9.5-48.7-18.6c-29.7-17.9-29.7-47.2,0.3-65.3c27.2-16.5,58.2-22.3,88.9-27.9c155.1-28,312.2-34.3,469.1-43.8
			c164.3-9.9,329.2,0.7,493.3-15.5c43.4-4.3,86.2,3.4,129.3,6.2c27.9,1.8,55.1-0.4,80.9-12.2c24-11,43.1-39.2,39.9-60.8
			c-4-27.3-27.1-32.9-48.4-38.1c-127.1-31-255.8-51.1-387.1-51c-16.5,0-33-2.3-49.4-3.8c-34.9-3.2-59.7-21.6-68.1-55.1
			c-12.4-49.4-45.3-77.6-90.5-91.4c-88.7-27.1-178-53.7-272.9-37.4c-85.3,14.6-132.5,71.4-131.4,156.6c0.5,38.7,1.2,76.7,22.2,111.7
			c14.4,24-1.3,40.2-20,52.1c-22.2,14-48.1,18.5-73.7,20.9c-67.4,6.4-134.1,1-199.3-17.8c-90.6-26.1-137.5-91.1-146.7-180.5
			c-15.8-154-7.5-307,44.3-454.6c54.8-156,163.6-262.8,310.8-333.2C409.4,1302.5,417.6,1298.5,431.5,1291.8z M2362.8,486.2
			c-5.3-7.9-12.2-7.4-18.3-8.9c-113.8-27.4-229.1-44.5-346.3-46.4c-131.1-2.1-258.6,16.4-377.4,75.6
			c-138.9,69.1-286.3,89.7-439.3,81c-18.3-1-36.7-2.9-54.8-6.3c-79.3-14.8-123.2-63.1-133.5-146.1c-7.3-58.3-33.4-85.2-89.4-89.2
			c-35.8-2.6-71.5-0.1-107.1,6c-20.6,3.5-27.5,12.1-23.4,32.9c9.9,49.8,23.5,98.2,47.5,143.1c51.6,96.5,129.2,157.6,240.4,166.3
			c162.9,12.7,322.9-4.9,478.5-56.3c18.5-6.1,30.8-10,39.4,14.5c9.4,26.5-10.7,24.6-23.1,28.8c-157.2,53-319.3,68.4-484,60.8
			c-66.3-3.1-128.1-23.1-182.2-63.4c-95.9-71.4-141-171.5-161-285.4c-2.8-16.2-4.3-22-23.2-16.2c-83.2,25.7-153.7,71.9-216.8,130.5
			C395,594.8,345.4,708.4,299.2,824.1c-29.7,74.4-35.3,151.4-23.2,230.3c14.3,93,58.5,162,153.1,188.9c46.5,13.3,94,14,141.9,4
			c104.5-21.7,209.5-26.2,315.1-7.8c118.9,20.7,202.1,82.5,236.3,202.5c12.2,42.9,17.8,86.1,15.9,130.6
			c-4.7,109-29.4,214.6-55.9,319.7c-5,19.6-1.8,34.5,9.3,50.9c21.9,32.4,56.2,35.6,89.6,41c104.1,17,208.7,31.6,312.5,50.7
			c58.8,10.8,111.8,36.5,131.3,99.4c8,25.7,24.9,14.3,38.9,17.1c15.4,3.1,20.5-5.7,23.3-19.2c15.1-74.5,50-139.7,95.5-199.6
			c17.7-23.3,37.6-44.8,56.7-67.4c-8.7-4.3-14.8,1.9-21.2,4.3c-83.3,30.4-168.6,41.9-257.3,32.9
			c-224.7-22.7-396.8-236.5-370.7-461.2c4.9-42,17.4-81.8,30.9-123.8c-10.3,0-17.6,0.3-24.9,0c-79.9-3.2-143.4-69.3-143.5-149.3
			c0-29,6-32.6,34-24.4c10.7,3.1,12.6,8.2,11.9,17.5c-1,13,1.1,25.5,5.3,37.9c13.7,40.4,42.1,64.2,83.3,71.6
			c37.8,6.7,64.8-7.3,89.1-39.2c65.6-85.9,154-137.6,260.4-157.6c25.3-4.8,49.6-11,73.8-20.7c164.7-66.3,358.7-23.1,470.4,103.7
			c10.7,12.1,20.4,25.2,33.9,41.9c7.9-52.5,24.5-97.1,54.7-135.1c12.1-15.3,8.6-26.1-2.6-37.4c-50.2-50.3-103-97.1-168.4-127.3
			c-93.7-43.4-186.5-42.9-278,6.4c-34.4,18.6-34.4,18.7-56.8-14.4c-0.4-0.7-0.5-1.6-1.1-3.6c106.6-73.2,220-86.1,339.8-36.8
			c82.5,34,148.8,90.1,208.9,157.9c25.4-31.2,50.9-61.1,75-92.1c57.1-73.5,61.6-150.7,13.5-230.5c-26.5-44-23-87.3,2.6-130.2
			C2318,528.6,2339.9,506.6,2362.8,486.2z M2112.9,2730.3c27.5,0.9,78.6-5.2,129.7-11.5c141.6-17.6,241.3-93.6,310.4-215.7
			c70.8-125.3,96-259,77.9-401.2c-4.6-36.4-9.3-73.1-17.9-108.7c-31.6-130.5-126.9-193.2-248-223c-244-60.2-469.4,39.5-590.8,259.7
			c-44.8,81.3-64.2,167.8-41.1,260.5c29.6,118.8,111.5,193.7,229.9,204.5c61.3,5.6,123.2,1.2,183.5-13.2c37.7-9,67.5-29.8,83.4-66.1
			c23.2-53.1,29.8-107.7,9.3-163.5c-25.5-69.3-54.9-83.5-124.7-58.6c-25.9,9.3-50.7,21.5-76.3,31.5c-32.9,12.7-61.2-3.5-57.9-34.3
			c9.4-89.1,73.6-161.2,144.8-180c71.3-18.8,138.8-6.1,205.1,16.7c69,23.8,106.4,75.7,114.5,148.2c3.1,27.4,5.1,54.9,6.8,82.4
			c10.2,164.5-98.6,317.5-256.7,361.9c-72.7,20.4-146.3,27.5-221,15.6c-82.7-13.2-161.7-35.7-224.3-96
			c-72.3-69.5-102.5-156.8-108.8-254.7c-1-15.6,7.9-14.3,16.6-13.3c19.6,2.3,27.2-4.5,21.8-24.4c-1.6-6.1,0.1-13-1.4-19.2
			c-2.3-9.7,7.1-26.5-7.6-27.9c-18.7-1.8-41-10.8-56.8,7.7c-26.8,31.3-67.8,50.1-81.8,92.7c-0.5,1.6-2.2,3-3.7,4
			c-18,11.7-19.4,29.5-18.5,48.6c7.4,151.7,83.9,256.2,221.7,314C1844.8,2714.8,1965.8,2729.8,2112.9,2730.3z M995.8,2038.6
			c8.7-30.7,15.5-58,24.2-84.6c6-18.4,0.3-27.5-16.6-36.5c-126.6-67.9-260.3-88.4-400.3-58.6c-150.6,32-288.7,139.2-284.5,318.4
			c0.6,24.6-16.7,15.9-28.4,18c-17.9,3.2-19.1-8.5-18.8-21.7c2.2-98.2,34.6-183.7,108.1-250.7c122.2-111.4,269.8-133.9,427.1-117.4
			c75.5,7.9,145.9,34,213,69.1c9.1,4.7,18,12.1,21.9-5.1c25.3-111.9,59.6-223.9,49.6-339.4c-13.3-153.3-75.3-217.5-201.3-242.1
			c-174.9-34.1-341.6-6.5-499.4,75.9c-111.2,58.1-194.5,142.7-243.6,258.7c-62.6,148-67.2,303.8-55.7,460.5
			c6.1,83.1,52,137.1,136.8,153.5c65.4,12.6,130.7,21.1,196.4,2.7c8.4-2.4,20.3-2.6,12.1-17c-22.6-39.9-16.6-83.9-17.9-126.8
			c-2.4-76.2,34.8-129.2,99.6-164.9c66.5-36.6,138.1-37,209.3-22.8C826.6,1927.6,934.4,1932.3,995.8,2038.6z M2371.7,855.1
			c-19.8,49.1-47.8,89.6-79.7,128c-34,40.9-70.7,79.9-98.2,125.9c-28.8,48.2-41.9,99.7-30.6,155.7c12,59.1,57.7,90.4,117.3,81.2
			c32.7-5.1,60.5-20.5,87.4-38.6c13.5-9.2,21.7-19.6,24.9-36.9c7-38.5,35.5-62.6,71.8-65c37.6-2.5,69.8,17.8,82.3,51.9
			c11.9,32.7,0.8,71-26.7,91.6c-30.8,23-67.2,23.5-99.1-1.8c-12.2-9.6-18.8-7.9-30.3-0.1c-48.1,33-99.8,55.5-160.2,43.6
			c-14.1-2.8-14.8,6-17.4,14.9c-19.5,66.1-11.9,130.8,10.4,194.7c12.1,34.9,35.9,56.8,71.2,66.8c27.8,7.9,55.9,8.8,84.7,6.3
			c16.1-1.4,22.4-7,21.5-23.6c-1.7-28.8,12.9-48.9,37.8-61.9c68.4-35.7,121.9-12.8,142.3,61.8c13.8,50.3,47.1,82.5,93.1,101.9
			c52.5,22.2,98.4,5.8,127.2-43.6c16.2-27.9,26.6-58.3,35.4-89.4c40.1-141.2,41.3-286.8,48.1-431.7c1.9-39.8-7.6-77.7-31.7-111.9
			c-24.4-34.5-43.1-72.6-56.5-113c-23.7-71.7-9.6-125.5,46.1-173.1c17.2-14.7,25.7-32.9,27.5-54.9c4.7-57.6-13.3-109-44.5-156
			c-60-90.6-185.1-138-299.4-113.4c-69.8,15-133,42.9-176.7,102.7c-32.4,44.4-30.4,74.3,5.5,117.3
			c58.6-110.9,136.8-156.8,236.6-138.9c91.7,16.5,158.7,89.7,169.6,185.5c9.9,86.4-40.8,173.4-122.2,209.6
			C2546.4,981.8,2458.3,954.3,2371.7,855.1z M258.3,2418.2c16.6,4.5,33.2,9.4,49.9,13.4c232.2,55.4,462.3,118.7,683.4,209.4
			c204.7,84,415.9,118.1,635.9,99.4c37.6-3.2,75.5-5.6,118.9-15.8c-14-5.8-21.4-8.9-28.8-12.1c-86-36.8-157.7-91-203.3-174.3
			c-11.6-21.2-24.9-26.4-47.5-26.5c-292.9-0.7-583.8-25-872.7-73.7c-18.4-3.1-21.9-9.5-20.4-26.7c2.9-32.5,24.7-19.8,40-17.2
			c229.5,39.2,460.8,60.7,693.3,69.2c56.8,2.1,113.8,0.3,172.1,0.3c-2.6-12.9-5.2-24.5-7.3-36.1c-2.1-11.8-3.7-23.6-5.3-35.4
			c-2.1-15.4,1.1-35.1-7.3-45.1c-9.8-11.6-28.7,2.8-44,1.4c-3.6-0.3-7.4,0.8-11,0.3c-86.2-11.9-172.3-2.3-258.6-0.7
			c-240.9,4.5-481.6,8.3-721.4,34.3C368.4,2388.3,312.1,2394.3,258.3,2418.2z M1967.7,1595.9c141.7-74.8,186.5-250.9,101.5-378.3
			c-86.1-129.2-268.5-184.6-428.2-126.9c-107.6,38.8-183.5,109.3-208.7,226c-4.6,21.4,2.9,23.5,20.6,20.4
			c53.8-9.3,96.9-35.5,124.1-82.9c14.5-25.2,25.3-4.2,36.9-0.5c17.8,5.6,8.4,16.4,2.5,25.5c-39.2,60.9-94.2,97.2-166.8,103.5
			c-18.9,1.6-20,7.8-16.7,23.9c7.9,38.5,23.9,72.9,45.6,105.5c10.7,16.1,20.5,16.3,36.2,8.1c69-35.9,122.6-87.2,157.9-156.5
			c13.4-26.3,25.2-2.3,37.2-0.2c17.6,3.1,8,13.9,3.8,21.9c-38.4,72.7-92.9,129.9-165.6,168.4c-19.7,10.4-16.8,16-1.5,26.8
			c29.5,20.7,61.1,37.1,94.7,50.1c13.1,5.1,23.7,4.1,35.8-3.9c77.9-51.3,116.9-123.2,111.9-216.4c-1.2-23.3,9.1-25,25.9-27.6
			c22.2-3.4,21.2,11.7,21.6,25.3c2.1,71.4-16.4,136.4-61.8,192.4c-13.1,16.1-28.1,30.6-45.1,48.8c56.1,6.9,107.3-0.3,157.9-14.8
			c10.8-3.1,14.7-13.4,19.6-22.1c29.2-51.3,44.7-106.8,45-165.6c0.1-20.9,5.9-25.4,26-26.3c23.1-0.9,19.9,12,20.1,25.8
			C1998.5,1496.5,1986.4,1544.2,1967.7,1595.9z M2568.9,2567.1c3,0.8,4.9,2.1,6.3,1.6c6.9-2.4,13.8-5,20.4-8.1
			c103.6-48.3,178.4-124.9,223.7-229.6c53.6-123.8,59.6-252.7,36.7-384c-10.2-58.4-24.9-115.7-48.9-171.6
			c-32.9,23.8-67.4,35.6-105.5,29.5c-87.8-14.2-144-65.4-166.7-150.9c-7-26.2-19.1-37.7-46-34.8c-29.4,3.2-39.3,12.6-41.9,42.8
			c-2.8,32-16.3,47.7-48.3,54.8c-10.3,2.3-20.9,3.1-36.5,5.3c14.2,4,23.7,6.7,33.2,9.4c131.2,36.7,225.9,111.6,262.4,248.4
			c8.8,33,12,66.8,16.8,100.4c17.7,124.3,7.9,245.5-41.4,362.3C2614.9,2485.6,2592.7,2526.5,2568.9,2567.1z M1696,2337.6
			c19,106.6,73.7,186.7,177.7,225.5c85.8,32,174.6,40,265.6,23.2c134.2-24.9,232.6-115.4,260-241.3c13-59.6,5.6-118.7-3.4-178
			c-5.8-38.4-24.8-67.8-58.4-85.1c-59.5-30.7-123.7-41.3-189.6-29.9c-60.3,10.4-114.7,72-113.7,124c34.8-14.6,69.2-29.3,106.1-38
			c50-11.7,86.5,6.2,113.9,46.4c57.7,84.4,54.8,172.8,11.7,261.2c-20.8,42.6-58.8,67.9-104.2,79.8c-65.4,17-132.4,19.5-199.4,16.1
			c-84.4-4.2-153.7-39.3-207.2-105.2C1730.6,2406,1712.9,2372,1696,2337.6z M2393.5,746.5c-2,90.4,69.3,164.6,159.7,166.1
			c87.2,1.5,161-69.6,163-157.1c2.1-90.2-66.9-164.4-155.4-167C2470.1,585.7,2395.5,656.2,2393.5,746.5z M2051.8,1597.8
			c-6,2.9-8.5,3.6-10.4,5.2c-95.4,76.5-204.4,105.5-325,90.9c-18.1-2.2-19,8.4-22.8,19.7c-18.1,53.3-49.6,95.6-99.8,123.3
			c-9.2,5.1-22.3,6.3-28,19.1C1771.9,1879.3,1968.3,1775.8,2051.8,1597.8z M1258.1,1604.3c1.4-1,3.8-1.7,4.2-2.9
			c17.2-66.6,60.2-107.6,125.6-125.7c13.3-3.7,14.1-9.2,10.1-21.6c-16.9-51.6-19.3-104.2-8.2-157.6c12.2-58.8,42.2-108,83.9-154.6
			C1287.7,1207.2,1183.2,1427.4,1258.1,1604.3z M1061.1,1979.2c-8.4,29.6-14,56.7-23.8,82.2c-10.1,26.2-0.1,30.1,23.5,30.4
			c138.2,1.7,274.6,18.6,408.8,52.4c34.8,8.8,66.9,20.4,83.1,56.1c38-26.6,40.5-53.3,8.8-83.8c-22.7-21.9-50.9-32.7-81.2-37.7
			c-104-17-208.2-33.3-312.3-50C1129.6,2022.6,1091.8,2014.8,1061.1,1979.2z M1495.5,1819c66,0.1,138-57.3,155.1-121.3
			c3.9-14.6-3-17.4-13.4-20.5c-38-11.5-73.6-28.4-105.8-51.6c-14.1-10.1-19-5.5-25.9,7.5c-14.7,27.6-33.3,52.7-55.9,74.5
			c-24.6,23.8-15.2,51.2-6.4,76.7C1451.5,1807.8,1469.6,1821.4,1495.5,1819z M2257,1705.8c-49.9-27.4-74.7-70.6-87.3-123
			c-16.1-66.4-19.4-132.4,1.9-198.3c3.7-11.6,5.5-21.4-9-24.8c-26.6,139.7-50.3,279.6-153.8,388.9
			C2089.7,1717.2,2171.6,1704.9,2257,1705.8z M1356.5,1703.2c10.6,1.3,22.2-1.3,32.6-7.6c40.9-24.6,65.3-63,86.4-104.1
			c2.3-4.5,3.2-8.4-0.6-12.3c-17.1-17.9-32.6-37.2-46-58c-4.4-6.9-11-5-17.3-4.3c-70.8,8.1-121.9,82.1-104.1,150
			C1314.2,1691.7,1328.9,1704.3,1356.5,1703.2z M2505.3,1280.4c-2.5-16.4-13.2-28.6-33.7-29.5c-19.6-0.9-35.4,15.4-34.1,35.1
			c1.3,20.6,13.2,31.9,33.6,32.9C2490.7,1319.7,2506,1303.4,2505.3,1280.4z M1393.3,1791.3c-4.1-44.2-4.1-44.2-44.6-39.7
			C1359.8,1769.6,1376.2,1779.7,1393.3,1791.3z"/>
		<path class="st0" d="M1156.7,901.2c-221.3-6.1-420.8-109.4-571-308.6c-8.2-10.8-10.3-18.4,3.7-25.8c12-6.4,20.2-20.5,35-0.2
			c84,114.9,192.3,199.1,326.7,247.2c181.8,65,360.7,50.9,536.4-24.4c14.1-6,25.1-13.1,34.6,7.8c7.9,17.3,6.1,24.4-11.7,32.4
			C1406.9,876,1298.5,899.9,1156.7,901.2z"/>
		<path class="st0" d="M1044.1,1024.4c-242.1-8-427.2-115.1-546.9-330.9c-6-10.9-18.2-22.8,4.2-32.3c16.4-6.9,25.8-10.4,36.6,9.9
			c71.5,134.8,178.8,229.2,324.3,277.3c87.5,28.9,177.6,35.8,269,22.2c23.6-3.5,36.3,9.9,33.3,33.9c-1.2,9.7-7.7,8.5-13.6,9.7
			C1116.6,1021.1,1081.8,1022.8,1044.1,1024.4z"/>
		<path class="st0" d="M891.8,1135.2c-217.7-4.9-390.7-94.9-517.7-272.4c-7.6-10.6-17.4-20.3,1.2-30.6c13.6-7.5,22.4-17.1,37,3
			c154.5,212.3,362.5,288.6,618.1,236.6c23.6-4.8,24.7,5.2,30.3,21.2c7.3,20.5-6.8,21.1-18.5,23.7
			C992.8,1127.7,943,1135.6,891.8,1135.2z"/>
		<path class="st0" d="M785.4,1582c-68.9,0.4-123-52.8-123.3-121.2c-0.2-67.5,53.1-122.2,119.4-122.6
			c71.7-0.4,125.5,51.5,125.9,121.5C907.9,1528.5,854.9,1581.6,785.4,1582z M860.9,1460.5c0.1-43.3-33.1-77.1-75.8-77.3
			c-41.7-0.1-77.3,35.1-77.5,76.8c-0.2,41.5,35.4,77.2,77,77.3C827.3,1537.4,860.8,1503.6,860.9,1460.5z"/>
		<path class="st0" d="M2765.4,1118.6c0.4,60.8-46.7,109.2-106.9,109.9c-61.8,0.7-110.4-47.3-110.4-109c0-60,46.6-107.5,105.5-107.5
			C2717.9,1011.9,2765.1,1056.9,2765.4,1118.6z"/>
		<path class="st0" d="M2674.3,1305.2c47.2-0.1,82.5,34.4,82.4,80.5c-0.1,46.1-35.5,80.7-82.7,80.6c-47.6-0.1-82.1-34.2-82-80.9
			C2592,1338.7,2626.3,1305.2,2674.3,1305.2z"/>
		<path class="st0" d="M1684.5,1212.8c-30.8-0.3-51.6-21-51.5-51.4c0.1-29.9,25.5-55,54.6-53.9c28.3,1,51.5,25.5,51.5,54.3
			C1739,1193.1,1717.5,1213.1,1684.5,1212.8z"/>
		<path class="st0" d="M1726.3,1251c0-29.1,23-52.8,51.9-53.4c29.7-0.7,54.5,24.1,54.3,54.1c-0.3,28.5-24.2,53.2-52.2,53.9
			C1750.8,1306.1,1726.2,1281.3,1726.3,1251z"/>
		<path class="st0" d="M2008.9,1289.3c29.6-0.4,55.3,24.8,54.8,53.8c-0.5,28.8-24,52-53.2,52.5c-30.3,0.5-54.9-23.7-54.5-53.6
			C1956.4,1313,1979.8,1289.7,2008.9,1289.3z"/>
		<path class="st0" d="M1890.7,1372.4c-30.2-0.1-52.5-21.4-53.1-50.6c-0.6-30,23.5-54.6,53.5-54.6c30.5,0.1,53.3,23.9,52.7,54.9
			C1943.2,1352,1921.6,1372.5,1890.7,1372.4z"/>
	</g>
</g>
</svg>
