<?xml version="1.0" encoding="utf-8"?>
<!-- Generator: Adobe Illustrator 23.0.0, SVG Export Plug-In . SVG Version: 6.00 Build 0)  -->
<svg version="1.0" xmlns="http://www.w3.org/2000/svg" xmlns:xlink="http://www.w3.org/1999/xlink" x="0px" y="0px"
	 viewBox="0 0 3000 3000" style="enable-background:new 0 0 3000 3000;" xml:space="preserve">
<style type="text/css">
	.st0{stroke:#000000;stroke-width:10;stroke-miterlimit:10;}
</style>
<g id="Layer_1">
</g>
<g id="Layer_2">
	<g>
		<path class="st0" d="M2033.4,2001.3c-5.4,16-9.2,32.7-16.4,47.9c-34.7,73.1-95.4,114.1-172.4,129.5
			c-108.2,21.6-203.6-2.7-276.8-90.2c-26.6-31.8-31.3-50.7-41.5-128.1c-10.2,25.7-26.6,43.4-51,52.6c-7.1,2.7-7.9,6.3-5.6,12.9
			c24.9,72.1-34.6,131-118.4,106.9c-55.7-16-86.3-64.5-71.1-115.2c3.1-10.2-1.3-11.5-10.2-12.4c-14-1.4-28.5-2.7-41.4-7.7
			c-14.9-5.8-15.6,0.8-17.2,12.3c-24.5,176.1-205.7,254.7-353.9,189.3c-36.7-16.2-70.7-36.4-97.1-67.6
			c-25.2-29.7-39.3-63.9-42.9-102.6c-0.7-7.4,1.4-15.7-6.1-23.3c-1.7,7.8-3.5,14.3-4.4,20.9c-10.6,74.6-55.4,120.4-126.3,135.7
			c-109.1,23.5-219.9,29.8-330.3,6.7c-44.4-9.3-84.5-28.6-118.2-60.4c-38.8-36.7-53.6-82.9-55.1-134.4
			c-2.6-94.7,5.3-189.2,5.1-283.8c-0.3-116-1.8-232-0.5-347.9c1-86.8,11.1-173,22.7-259c6.9-51.4,14.4-102.6,23.6-153.7
			c19.4-107.1,83.2-172.1,185.5-200.4c112-31,222.3-31.5,325.5,31.3c49.9,30.4,73.7,59.4,120.5,139.4c38.2-52.4,91.7-69.3,153.4-67
			c4.8,0.2,10-1,14.3-3c73.6-34.5,153.2-42.8,232.4-48.4c154.3-10.9,308.7-4,462.7,8.3c81.7,6.5,161.8,22.8,237.5,56.1
			c86.5,38.1,159.3,91.1,196,182.7c9.9-3,13.3-11.5,18.6-17.8c159.4-194.7,402-237.4,603.3-167.7c127,44,200.1,134.8,231.8,264.8
			c22.3,91.5,21.4,183.1,18.7,275.5c-3.4,117.3-5.3,234.8-11.9,352c-4.6,82.2-17.1,164-39.7,243.5
			c-18.9,66.6-65.2,110.3-126.1,139.6c-73.6,35.4-153.2,42.7-232.8,45.5c-83.2,3-166.4,3.8-249.7,1.2
			c-111-3.5-190.4-50.2-229.5-157.3c-0.7-2-1.7-3.8-2.7-5.7C2035.4,2001.8,2034.6,2001.8,2033.4,2001.3z M1366.9,805.7
			c-122.6-5-244.5-0.3-365,26.1c-51.2,11.2-94.3,34.1-119.3,81.2c-28.5,53.9-45.6,111.8-45.5,173.6c0.1,37,10.9,44.3,43.7,27.6
			c54.2-27.6,110.8-37.7,171.4-30.5c72.4,8.6,127.2,54.1,138.3,121.7c9.2,55.7,9.7,112-3.2,167.6c-22.6,97.8-90.6,150.3-190.7,146.7
			c-44.2-1.6-84.7-16.7-123.5-37.2c-22.2-11.7-31.5-5.9-31.7,19.3c-0.2,36.3-1.1,72.6,0.7,108.8c4.4,87.2,60.3,149,146.3,162.5
			c26.6,4.2,53.6,6.3,80.5,9c69.9,7.2,138.7,24.2,209.5,23.7c176.5-1.3,349.5-30.5,521.5-65.7c64.3-13.2,123.2-38.8,165.5-93.3
			c24.7-31.8,45.5-65.7,58.3-103.6c51.9-154.6,65.2-310.7,18.8-469.6c-22.3-76.5-68-133-135.8-173.3
			c-71.5-42.5-149.6-64.8-231.1-76.7C1573.2,808.6,1470.1,806.8,1366.9,805.7z M2900.5,1470.4c0-32-0.7-64,0.1-96
			c2.3-86.8,3.3-172.7-17.5-258.6c-28.1-115.6-90.5-198.4-202.6-242.8c-213.7-84.7-473.6-7.8-604.8,179.7c-6.8,9.8-5.5,18-3.4,27.8
			c7.1,33.3,15,66.5,20.1,100.1c5.7,37.4,4.7,36.6,41,46.1c19.1,5,23.5,0.2,24.7-19.1c5.7-96,43.6-175.9,129.2-224.8
			c93-53.1,192.2-63.4,294-26.6c81.9,29.6,133.7,87.1,150.9,173.1c18.9,94.5,19,189.2,2.2,284.3c-17,96-71.9,156.6-166.7,177.4
			c-122.7,26.9-247.5,34.2-372.9,34.6c-10.3,0-15.9-2.7-15.9-14.3c0-13.9,8.7-13.8,18.6-13.7c112.6,1.2,224.4-8.5,335.6-26.4
			c103.1-16.6,156.6-66.8,175.3-168.9c15.6-84.9,13.9-169.7-0.4-254.7c-14.6-86.6-63.8-142.6-146.1-169.3
			c-80.6-26.1-160.3-19.8-237,15.6c-94,43.5-135.1,121.3-140.1,221.5c-0.6,12.1,3.1,15,14.8,11.2c21.2-6.8,39.3-17.4,49.3-37.8
			c7.2-14.6,12.8-30,18.5-45.3c10.8-28.8,23.2-56.9,45.8-78.6c60.7-58.4,133.1-71.4,211.5-48.2c79.8,23.6,120.8,82.3,135.6,162.2
			c11.7,63.1,8.9,126.5,2.2,189.3c-10,93.3-39.9,120.8-132.6,139.1c-90.7,17.8-182.5,17.9-274.2,20.9
			c-50.1,1.7-94.7,17.7-135.1,46.1c-26.8,18.9-46,43.6-54.3,76.6c-8.3,33.2-13.2,66.9-18.9,100.5c-14.7,87.1-11.3,173,20.4,256.2
			c25.9,68,73.4,112.2,147.2,124.4c28.8,4.8,57.8,7.4,87,7.3c84.7-0.4,169.4,2.3,254-4.4c61.8-4.9,123.1-13,180.3-39.3
			c63.4-29.1,105.3-76.2,120.3-145.4c13.4-61.9,23.4-124.4,30-187.3C2896.8,1665.4,2893.4,1567.7,2900.5,1470.4z M107.6,1618.4
			c0.3,0,0.7,0,1,0c0,39.1,0.6,78.2-0.1,117.3c-1.4,74.7-5.5,149.3-4.9,224c0.8,95.1,42.3,148.2,133,177.3c6.1,2,12.2,4.1,18.4,5.4
			c107.7,21.8,215.2,15.5,321.6-7.5c51.2-11.1,89.2-41.7,99.4-96.5c14.6-78.2,27.4-156.6,40.9-235c3.2-18.9-11.1-10.7-17.3-9.2
			c-44.1,10.5-88.5,13.2-133.3,7.2c-97.8-13-166.9-63.4-203.3-156.6c-17.9-45.8-23.7-93.8-24.6-142.2
			c-1.3-74.7,3.4-149.3,12.9-223.4c14.3-111.8,84.8-182.5,195.6-200.2c54.7-8.8,109.1-5.5,162.9,5.7c12.4,2.6,14.9-0.1,14.9-10.8
			c0-34.2,6.9-67.8,10.1-101.7c1.4-15.1,11.4-29,4.8-45.4c-22.9-56.7-56.2-105.6-108.5-138.7c-105.9-67-218.1-63.3-332-25.1
			c-77.7,26.1-125.5,79.6-141.5,161.2c-6.9,34.9-13.8,69.6-18.6,104.8c-19.7,143.1-35,286.5-31.4,431.4
			C108.7,1513.1,107.6,1565.7,107.6,1618.4z M2012.9,1885.4c-5.4-67.9,8.3-128.4,15.2-189.6c11.4-101.6,70-159.3,164.8-185.6
			c44.3-12.3,90-11.8,135.4-12c82.1-0.4,163.3-7.2,242.5-30.1c33.5-9.7,52.9-33.3,59.1-66.4c12-63.3,12.4-127.3,7.5-191.3
			c-0.6-7.9-2.9-15.7-5.1-27.4c-21.2,30.5-48.1,42.8-80.6,43c16.5,91.3-27.4,142.8-118.7,139.5c-17-0.6-10.2,8.8-9.7,15.9
			c4,52.3-29.4,98.8-80.1,111.1c-49.8,12.1-102.7-15.6-121.6-63.5c-19-48-0.2-100,44-127.6c25.9-16.2,52.9-18.3,82.3-12.5
			c0.3-3.7,1.2-6.5,0.8-9.1c-11-72.6,50.7-128.8,114.1-121c13,1.6,9.6-6.6,9.3-13.1c-1.8-32.4,9.9-58.6,36.7-77.1
			c9.4-6.5,20.3-10.7,31.4-16.3c-81.2-38.8-177.4-15.8-224.6,52.6c-16.4,23.8-21.9,52.2-33.1,78.2c-23,53.2-68.5,80.2-126.2,74.1
			c-14.1-1.5-28.5-3-41.9-7.2c-14.5-4.5-16.5,0-16.2,13.3c1.2,42.7-2.4,85.2-9.6,127.4c-11.7,68.7-23.9,137.2-55.4,200.5
			c-40.6,81.4-99.9,141-189.8,165.9c-6.5,1.8-14.5,1.4-18.8,8.6C1914.1,1784.6,1950.5,1807.3,2012.9,1885.4z M412,1429.1
			c3.1,34.7,1.4,69.6,6.3,104.3c11.9,83.4,72.5,152.9,148.8,167.4c55.1,10.5,104.9-8.3,153.7-31.2c7.6-3.5,5.5-9,5.2-14.2
			c-1.8-36.9-4.1-73.9-5.5-110.8c-0.5-12.2-4.5-15.5-16.9-13.9c-26.9,3.5-53.9,2.7-80.7-2.6c-55-10.9-95-51.2-99.7-102.7
			c-2.6-28.9,6.9-53.9,32.4-69.7c23.6-14.6,47.8-11.1,70.4,3.3c5.8,3.7,19.1,6.1,11.1,18.1c-6.1,9.2-12.7,13.9-25.9,5.4
			c-26.6-17.2-53-6.4-59.5,22.5c-4.4,19.7,0.3,38.1,11.7,54.7c28.3,41.1,71.3,46.1,115.6,45.3c38.3-0.7,38.3-1.8,39.5-38.8
			c0.3-8.5,0.5-17.1,1.2-25.6c5.1-57.8,18.5-114.5,15.2-173.4c-3-52.2-0.4-52.4-49.1-72.7c-41.8-17.4-84.8-30.9-130.5-23.5
			c-75.7,12.2-110,67.9-131.6,133.4C410.6,1344.5,410.3,1387,412,1429.1z M920.8,1842.8c-0.2,0-0.4,0-0.6,0
			c0-14.9,0.2-29.9-0.1-44.8c-0.1-5.4,0.8-12.6-8-11.9c-16.3,1.2-34.1-1-48.4,5c-64.5,26.9-108.5,73-118.7,144.2
			c-4.9,34.4-4.3,69.4,1.5,104.2c7.3,43.2,30.2,76,64.2,101.9c22.2,16.9,47.1,29.1,73.1,39c89,33.8,192.2,7.8,252.4-63.1
			c59.2-69.7,66.1-173.2,20-255.5c-19.8-35.3-46.5-52.5-86.8-52.2c-14.5,0.1-18.4,3.4-18.1,17.3c0.6,29.5-4,58.1-19.2,84.2
			c-14.5,24.8-34.9,34.1-62.9,28.4c-28.5-5.8-45.8-23.8-48.1-51.8C919.8,1872.7,920.8,1857.7,920.8,1842.8z M1844.9,1800.2
			c0,10.1,0,20,0,29.8c0,41.4-11,57.4-49.7,72c-32.5,12.3-61.9-3.5-70.1-37.3c-4.1-16.9-4.1-33.9-1.1-50.9
			c2.8-15.8-2.4-18.1-17-13.6c-36,10.9-68.5,27.8-96.2,53.3c-75,69-74.2,175.8,1.8,244.3c85.7,77.2,230.7,82.3,322,11.3
			c58.8-45.7,83.5-110.9,66-174.5C1982.7,1869.2,1912.9,1808.5,1844.9,1800.2z M884.2,862.4c-62.9,1.6-108,39.4-119.1,99.2
			c-5.6,30-10.5,60.4-12.4,90.8c-2.8,46-6,92.5,15.7,136c11.4,22.9,29.7,35.5,54.2,40.4c8.4,1.7,14.6,0.3,18.9-8.7
			c33.3-70.3,108.6-100.8,188.4-88.8c71.9,10.9,120.1,56.1,125.2,121.8c2.8,35.4-0.4,71.3-11.3,105.5c-13.9,43.8-44.2,70.7-89.8,78
			c-36,5.8-72.5,5.7-108.5,0.7c-40-5.6-74.9-22.2-98.6-56.9c-16.3-23.9-32.3-29.6-60.2-20.9c-27.5,8.6-38,26.7-39.2,68
			c-2.5,82.6,0.4,164.9,8.6,247.2c5.5,55.8,70.9,98.4,127.1,80.8c-35.4-32.4-62-70-66.1-118.5c-3.9-46.7-7.1-93.7-2.7-140.6
			c4.1-43.5,32.5-58.5,71.7-37.6c23.4,12.5,47.8,21.6,73.3,28.3c100.1,26.3,181.2-24.3,202.6-125c10.4-48.9,8.9-97.7,2.7-146.4
			c-5.9-46-31.6-78.5-76.2-94.1c-66.2-23.1-130.9-16.6-191.7,16.3c-60.7,32.8-88-2.5-87.9-57.5c0-4.3,0.4-8.5,0.9-12.8
			C818.7,994.2,836.1,923.9,884.2,862.4z M735.1,1188.2c-3.5-20-8.4-35.9-8.6-51.9c-0.3-17.4-8.6-23.2-23.8-25.9
			c-50.7-9-101.3-12.3-152.7-4.9c-89.3,12.9-156.1,73.4-168.8,162.3c-14.3,100.7-22.3,202.1-9.7,304
			c12.7,102.2,76.4,176.5,172.8,198.3c43.6,9.9,87.6,8.1,131.5,1.4c48.3-7.4,48.3-7.3,55.7-55.3c0.1-0.7,0.3-1.4,0.5-2.1
			c1.6-5.7,2.7-12.4-1.4-16.3c-5.4-5.2-10.2,1.8-14.7,3.9c-43.1,20.6-88.1,31.4-136.1,28.2c-89.3-5.8-171.9-86.7-186.9-183.6
			c-8.9-57.2-10.4-114.8-7.8-172.4c2.9-64.1,21-122.7,63.9-172.6c28.9-33.6,64-53.6,107.9-57.8
			C620.1,1137.6,677.1,1157.5,735.1,1188.2z M2529.2,1263.5c0.3-43.5-33.3-77.6-76.6-77.8c-43.3-0.2-77.7,33.5-78,76.5
			c-0.3,42.5,34.3,77.7,76.9,78.1C2494.5,1340.7,2528.8,1306.7,2529.2,1263.5z M2395.8,1389.9c-0.1-43.7-33.6-77-77.2-76.7
			c-43.4,0.3-76.7,34-76.5,77.6c0.1,42.7,35,77.5,77.5,77.2C2362.1,1467.7,2396,1433.1,2395.8,1389.9z M1269.3,1977.5
			c65.7,1.6,110.3-60.7,85.1-118.5c-6.9-15.7-17.2-25.2-35.7-24.3c-21.3,1-42.6,0.9-63.9,1c-13.7,0.1-22.4,5.6-29.1,18.3
			c-9.6,18.1-14.4,37.1-16.5,56.8C1204.3,1957.8,1221.6,1976.3,1269.3,1977.5z M1385.7,2110.5c47.4,0.6,74.5-35.4,57.9-76.8
			c-3.1-7.6-6.4-13.6-16.2-14.1c-28-1.5-49.6-15-66.5-36.8c-3-3.8-5.1-8.2-11.8-6.4c-28.5,7.9-51.4,48.5-44.1,78.6
			C1313.1,2087.9,1345.2,2110,1385.7,2110.5z M1429,1993.1c39.9,1.5,67-19.7,72.5-50c5.1-27.8-11.7-50.6-44.6-60.6
			c-8.9-2.7-17.9-4.3-27.3-4.1c-26.9,0.6-37.4,9.2-43.3,35.5c-1.4,6.2-2.5,12.9-5.6,18.3c-11,19-1.9,32.2,11.4,44.6
			C1404.8,1988.4,1420.3,1992.5,1429,1993.1z M1635.8,1798.2c-88.1,12.9-174.6,25.9-261.8,33.3c3.8,22.7,10.5,30.3,35.8,22.8
			c57.3-17,110.9,20.9,120.9,80.3C1555.1,1869.2,1555.1,1869.2,1635.8,1798.2z M2556.9,1197.9c31.6,0.6,59.6-26.3,59.7-57.3
			c0.1-28.7-29.9-60-58-60.5c-32.8-0.7-60.1,26.1-60.1,59C2498.5,1170.2,2525.5,1197.3,2556.9,1197.9z M948.1,1795.1
			c0,30.7,0.3,59-0.1,87.4c-0.3,17.4,9.6,26.2,24.7,29.7c15,3.5,27.5,0.1,35.8-15.2c14.1-26,16-53.9,16.3-82.5
			c0.1-11-8-10.1-14.6-11C990.1,1800.5,969.9,1798,948.1,1795.1z M761.8,1338.2c20-7,45.1-2.7,57.7-12.5c12.8-10,1-36.9,5.3-56.1
			c0.5-2.1,0.8-4.2,1-6.3c0.4-4.1-1.4-7.2-5.5-7.5c-21.7-1.7-39.2-13.5-58.6-26.7C761.8,1266.8,761.8,1301.1,761.8,1338.2z
			 M1749.6,1828.6c0.7,9.9,0.5,19.9,2.3,29.6c1.9,10.2,7.6,18.6,18.9,20.6c19.6,3.4,45.1-17.1,46.2-36.9c0.5-9.2-1-18.6,0.3-27.6
			c2.5-17.8-5.5-22.9-22.3-23.9C1753.5,1787.7,1752.7,1787.7,1749.6,1828.6z M820.9,1781c-22.6-9.3-42-16.4-57.6-30.2
			c-4.7-4.2-9.2-4.9-10.5,2.7c-6.4,37.2-12.5,74.4-18.7,111.6C756.4,1830.9,784.7,1804.6,820.9,1781z M1090.9,1260.4
			c3.2,0.1,5.1-1.6,6.4-4.3c6.1-12,13-23.7,18-36.1c3.1-7.6-16.5-34.9-25.9-35.7c-13.2-1.2-10.2,12.7-15,19.3
			c-3.3,4.4-4.6,10.2-6.9,15.4C1062.2,1231,1078.2,1259.5,1090.9,1260.4z M1055.2,1331.2c1.1-0.6,2.8-0.8,3.3-1.7
			c6.7-13.1,17.7-25.9,18.6-39.4c0.7-11.6-15.1-20.4-25.9-25.1c-8.2-3.6-7.9,10.4-11.9,16.2c-3.5,5.1-5.4,11.4-7.5,17.4
			C1029.2,1306,1047.7,1331.4,1055.2,1331.2z M1099.1,1385.4c8-13,12.9-18.4,14.8-24.8c3.6-12.1,14.7-24.5,4.5-37.2
			c-4.1-5.1-8.6-16.9-19.4-10.3c-8.3,5-21,41.3-17.4,46.5C1086.6,1367.2,1091.8,1374.7,1099.1,1385.4z M886.3,1383.4
			c8.9-7.7,11.5-18.3,16.3-27.5c13.3-25.6,13.1-25.7-12-44.4C861.9,1358.8,861.9,1358.8,886.3,1383.4z M993.4,1315.8
			c1.6-1.7,3.3-3.3,4.9-5c-8.2-6.3-16.4-12.7-24.7-18.9c-2.2-1.7-5.3-3.8-7.1-0.3c-6.1,11.2-15.1,22.2-16.4,34
			c-1.2,11.1,13.2,17,20.6,25.3c1.9,2.1,5.2,3,6.8-0.5C983,1338.9,988.1,1327.3,993.4,1315.8z M1042.1,1362.6
			c-5.5-10.7-14.8-18.1-24.1-25.3c-2.3-1.8-4.5,1.5-5.7,4.3c-4.5,10.3-10.6,20.1-13.7,30.8c-3.4,11.8,10.2,15.2,14.8,23.3
			c1.6,2.8,6,6.5,8.4,2.7C1029,1387.2,1035,1375.3,1042.1,1362.6z M927.1,1303.6c6.9-5.7,8.4-16,13.9-23.6
			c13.5-18.5-3.8-27.1-13.5-32.8c-12.1-7.1-10.2,9.8-15,15.4c-3.1,3.6-4.8,8.6-6.2,13.3C904.4,1282.3,919.1,1303.1,927.1,1303.6z
			 M979.7,1203.1c-4.1-10.7-13.3-18.6-22.7-23c-9.5-4.4-7.5,9-11.7,13.7c-3.6,4.1-6.1,9.9-7.2,15.3c-2.5,13.1,11.1,16.1,16.6,24.3
			c1.9,2.8,5.9,5.7,8.5,1.2C969,1224.8,973.9,1214.5,979.7,1203.1z M1007.4,1283.7c5.2-11,10.3-21.8,15.3-32.6
			c7.3-15.4-7-20.5-14.8-26c-11.4-8-11.1,6.2-13.9,11.4C980.1,1261.9,980.5,1262,1007.4,1283.7z M938.8,1408.4
			c11.3,0.9,21.7-10.2,22.1-21.6c0.2-5.4-22-31.3-25.1-29c-11.7,8.8-18,23.2-20.1,35.8C913.1,1409.5,932.3,1402.9,938.8,1408.4z
			 M1036.3,1211.4c4.8,0.7,5.7-3.2,7.1-6.2c3.9-8.3,7.9-16.5,11.3-25c2-5.1,8.6-11.7-2.4-14.9c-7.6-2.2-15.8-9.1-22.5,1
			c-3.9,5.8-6.7,12.4-9.5,18.8C1016.6,1193.4,1027.3,1210.7,1036.3,1211.4z M883.1,1259.1c5-10.3,9.5-20.7,15.1-30.4
			c6.5-11.3-3.2-15.5-8.9-20.5c-8.3-7.2-10.4,2.8-13.5,7C858.5,1238.5,858.8,1239.9,883.1,1259.1z M1190.4,1866.5
			c3.1-14.8,19.6-25.7,12.3-35.8c-5.2-7.1-23-6.8-36.9-3.7C1174.1,1840.4,1181.2,1851.8,1190.4,1866.5z M851.8,1321.7
			c20.5-34,20.5-34,1-47.8C848.5,1288.8,849.6,1302.8,851.8,1321.7z M1079.9,1398.6c-4.7-6.6-9.9-16.4-16.7-13.2
			c-6.3,3-8.9,13.6-14.6,23.2C1061.9,1408.3,1069.9,1404.7,1079.9,1398.6z"/>
		<path class="st0" d="M1509.7,1323.3c-71.1-0.5-142-3.9-213-8.5c-9.2-0.6-17-0.6-15.1-14c1.7-11.8,6.6-14.8,18.4-13.8
			c136.2,10.5,272.5,12.8,408.9,1.9c78.2-6.3,154.3-22.4,227.5-51.2c6.5-2.6,13.8-9.8,20.3,0.6c6.8,10.8,7.4,18-7.2,23.8
			c-59.7,23.5-121.1,40.3-184.6,48.2C1680.2,1320.7,1595.1,1324.2,1509.7,1323.3z"/>
		<path class="st0" d="M2523.6,1921.1c-29.7-11.7-64.4-4.5-99.7,8.2c-22.4,8.1-46.7,4.1-69.3-3.2c-10.7-3.4-18.5-1.2-27.6,4.3
			c-30.5,18.2-61.5,17.7-89.8-3.7c-26.6-20.2-30-48.3-21-78.9c1.7-5.9,1.7-10.2-1.9-16.9c-8.9-16.2-1.6-25.3,16.3-23.8
			c165.6,14.2,327.1-5.2,484-60.6c9.7-3.4,16.1-5.6,20.4,7.8c3.3,10.2,1.8,15.8-7.8,16.9c-27.8,3.1-36.2,22.2-45,45.5
			C2657.4,1882,2597.6,1921.8,2523.6,1921.1z M2500.1,1889.7c79.2,13,150.6-31,158.6-96.3c-37.3,9.9-74.3,19.6-112,25.8
			c-6.2,1-10.9,3.5-12.7,9.7C2527.5,1850.9,2514.7,1869.6,2500.1,1889.7z M2306.5,1839.3c0-0.1,0-0.2,0-0.4
			c-13.5-0.6-27.1-0.4-40.3-2.2c-12.5-1.8-18.1,3.7-22.1,14.3c-6.9,18.5-9.1,37.1,6.5,51.4c15.7,14.3,35.2,18,55.3,8.5
			c26.5-12.5,41.5-35.5,53.7-60.9c4.6-9.5-0.8-10.8-8.5-10.7C2336.3,1839.4,2321.4,1839.3,2306.5,1839.3z M2503.8,1827.2
			c-18.8,2-35.7,5.9-52.3,5c-40.1-2.2-68.7,10.7-79.4,52.2c-0.5,2-2,3.7-3.3,5.4c-6.8,8.6-3,11.8,6.2,13.8
			C2428.6,1915.3,2484.8,1883,2503.8,1827.2z"/>
		<path class="st0" d="M1117.4,2021c-0.1,22-19.5,40.8-41.3,40c-21.3-0.7-38.6-18.9-38.5-40.3c0.1-22.8,18.1-40.3,40.9-39.7
			C1099.8,1981.5,1117.5,1999.7,1117.4,2021z"/>
		<path class="st0" d="M902.4,1971.8c22,0.5,38.5,17.5,38.4,39.7c-0.1,23.1-17.5,40-40.6,39.5c-22.6-0.5-39.4-18.8-38.4-41.8
			C862.7,1987.2,880.1,1971.2,902.4,1971.8z"/>
		<path class="st0" d="M1693.5,1946.8c24.3,0.4,44.6,21.7,43.6,45.7c-1,23.3-21.6,42.8-44.8,42.5c-24.1-0.4-44.6-21.9-43.6-45.7
			C1649.8,1965.8,1670.1,1946.5,1693.5,1946.8z"/>
		<path class="st0" d="M1856.8,2026.4c-23.9,0-44.4-21-43.9-45.1c0.4-23.7,20-42.9,43.7-43c24.5-0.1,44.4,20.3,43.9,45
			C1900.1,2007.2,1880.5,2026.4,1856.8,2026.4z"/>
	</g>
</g>
</svg>
