<?xml version="1.0" encoding="utf-8"?>
<!-- Generator: Adobe Illustrator 23.0.0, SVG Export Plug-In . SVG Version: 6.00 Build 0)  -->
<svg version="1.0" xmlns="http://www.w3.org/2000/svg" xmlns:xlink="http://www.w3.org/1999/xlink" x="0px" y="0px"
	 viewBox="0 0 3000 3000" style="enable-background:new 0 0 3000 3000;" xml:space="preserve">
<style type="text/css">
	.st0{stroke:#000000;stroke-width:10;stroke-miterlimit:10;}
</style>
<g id="Layer_1">
</g>
<g id="Layer_2">
	<g>
		<path class="st0" d="M802.1,2115.4c-113-25.9-218.7-43.6-325.5-54.9c-30.1-3.2-60.3-5.3-90.5-6.9c-54.6-2.8-100.8,13-143.7,46.9
			c-52.5,41.4-100.5,40.4-133.3,2.4c-36.1-41.9-32.8-114.5,7.3-155.6c41.5-42.5,96.4-53.7,151.5-62.8
			c114.3-19,228.9-36.3,347.6-62.3c-43.8-33.9-64.5-75.8-67.8-127.1c-4-61.9,7.6-120.6,31.8-177.1c30.3-70.6,51.1-143.3,53.5-220.7
			c1.3-42.3-0.8-84.2-16.2-124.1c-16.4-42.5-47-60.1-92.2-54.6c-62.9,7.6-100.2,43.4-110.9,106.1c-11.6,68.4-9.9,138.4-23.9,206.5
			c-26.4,128.4-146.2,205.4-267.2,171.3c-26.4-7.4-51.5-18.2-54.9-49.4c-3.4-31.9,14.8-53.4,40.9-68.9
			c20.8-12.3,44.2-14.4,67.5-17.2c55.9-6.6,76.6-37,62.6-91.3c-5.4-20.9-11.4-41.8-23.8-59.5c-44.4-63.4-45.6-133-30.2-204.8
			C248.4,816,591.5,693.9,823,883.4c48.8,39.9,73.9,89.4,77.3,151.3c0.5,9.4-1.5,19.5,5.4,29.6c12.2-5.2,18.9-16.2,27.3-24.8
			c177.4-181.9,385.7-310.3,635.4-366.9c86.1-19.5,173.8-27,261.6-30.8c139.5-6,279.1-13,418.8-7c149.3,6.5,291.6,42.6,426.5,105.5
			c129.1,60.3,208.6,160.7,219.8,305.3c14,180.7,19.2,362.9-29,539c-103,376.3-348.5,618.9-717.4,739.8
			c-108,35.4-218.3,47-331.9,43.6c-288.2-8.7-576.5-14-864.9-14.8c-89.1-0.3-176.7,16.3-265.3,21.8c-118.1,7.3-236.2,12.2-354.4,3.9
			c-6.8-0.5-13.8-0.7-20.4-2.3c-19.2-4.5-39.5-9.1-45-31.8c-5.1-21.2,8.9-35.4,23.4-47.3c34.3-28.1,73.7-47.5,114.9-63.4
			c119.4-46.2,243.1-77.8,366.7-109.9C779.4,2122.3,786.7,2119.9,802.1,2115.4z M308,2333.2c8.2,7.5,15.2,7.7,22,8.2
			c112.3,9.1,224.5,4.8,336.7-3.2c127.5-9.1,254.4-23.2,382.9-22c267.8,2.5,535.5,8.8,803.2,14.5c98.1,2.1,192.5-12.2,285.1-42.2
			c349.4-113.2,583.9-342.3,687.8-695.9c51-173.6,44.5-353.8,33.8-532.6c-7.5-126.6-70.7-220.7-183.3-277
			c-120.5-60.3-248.9-95.7-383.8-107.4c-143.7-12.4-287.2-2.8-430.7,2.5c-112.2,4.2-224.3,12.7-333.3,42.8
			c-238.5,65.9-435.3,198.1-601.4,379.1c-15.7,17.1-21.6,34.1-21.7,57.2c-0.4,127.9,9.2,256.2-11.6,383.4
			c-14.6,89.3-40.1,175-92.4,250.6c-18.6,26.9-44.1,46.9-75.9,51c-77.4,10.1-152.9,29.2-229.7,42.2c-89.4,15.2-178.9,30.1-268.1,47
			c-31.6,6-62.1,17.7-85.2,42.4c-26.5,28.3-28.8,77.6-4.9,105c19.6,22.5,43.4,20.1,83.2-8.3c7.1-5.1,14.4-10,21.4-15.4
			c37.2-28.9,80.1-38.4,126.3-38.3c103.9,0.2,205.8,17.5,307.7,34.6c84.3,14.1,167.3,35,250.2,54.8c1.1-3.6,2.4-5.4,2.1-7
			c-10.5-68.6,33.1-106.7,101.3-88.8c36.9,9.7,74.4,16.6,112.6,17.9c100.9,3.3,181.1-31.9,230.2-125c18.2-34.5,38.8-67.8,59.5-100.9
			c16.2-26,37.5-47.7,63.5-64.1c44.3-27.9,91.6-35.8,139-10.9c46.1,24.2,60.4,68.2,57.3,116.8c-8.1,128.2-47.1,245.3-135,341.9
			c-47,51.6-103.9,92.3-173.8,102.3c-168.2,24.1-310.9-32.2-430.8-149.8c-9-8.8-15.3-16.3-29.2-12.8c-175.9,44-353,83.8-522.3,150.8
			C367.3,2289.8,335.8,2306.9,308,2333.2z M870,1253.5c1.5-56.2-1.3-127.5-5.3-198.7c-3.3-57.7-19.5-106.7-68.1-145.3
			c-213.3-169.3-523.6-53.8-576.8,216.3c-11.9,60.3-10.8,118.2,27.2,170.9c15.5,21.5,23,47.5,29.3,73.1
			c17.7,71.9-18.1,123.7-91.2,133.7c-18.3,2.5-37.3,2.7-54.2,11.2c-13.4,6.7-27,16.4-25.6,32.5c1.3,14.9,17.6,16.5,29.6,19.8
			c100.3,27.5,199.7-40,219.4-148c10-54.9,12.8-110.5,17.3-165.9c8.1-98.2,49.8-151.6,135.7-169.6c69.2-14.5,124.6,16.7,147.2,83.6
			c13.6,40.2,17.6,81.9,16.6,124.2c-2.1,84.1-23.8,163.5-56.6,240.5c-25.2,59.4-38.8,120.7-25.8,185.6c9.8,48.9,41.6,76,87.5,88
			c39.7,10.4,74.8-5.4,101.7-46c30-45.2,48.2-95.8,62.6-147.6C871.6,1499.3,869.6,1383.9,870,1253.5z M1299.4,2259.8
			c85-0.4,144.5-24.8,196.4-67.9c94.9-78.8,134.6-186.1,154.9-303.2c4.5-26,7.8-52,1-78.4c-11.4-44.2-44.8-66.5-89.8-58.9
			c-41.3,7-69.9,32.6-94,64.7c-24.7,32.9-43.4,69.5-62.7,105.5c-52.9,98.5-136.9,142.8-246.3,144.3c-49.2,0.7-97-8.4-144.3-21
			c-19.1-5.1-36.1-1.1-47.3,13.9c-10.7,14.3-3.2,29.8,5,43.7c8.5,14.5,20,26.5,32.7,37.3C1094.7,2216.2,1201.3,2248.6,1299.4,2259.8
			z"/>
		<path class="st0" d="M2542.4,896.2c-67.3,5.6-133,16.9-196.9,37.6c-105.1,34.1-193.7,91.6-259.6,181.5
			c-27.5,37.5-50.7,77.2-44.8,126.4c8.1,67,60.8,120.1,143.1,135c116,20.9,230.1,12,337.1-41.8c93.9-47.2,155.5-121.4,180.6-225.7
			c-4.3,51.4-8.5,102.9-12.8,154.3c-11.3,134.6-31.8,267.5-77,395.4c-52.1,147.2-129.9,277.9-255.6,374.7
			c-139.4,107.4-301.1,142.3-473.4,139.9c-22.3-0.3-44.6,0-67-3.4c61.2-6.1,122.1-13,180.9-30c126.7-36.7,219.6-110.6,247-246
			c40.5-200.4-118.9-382.7-323-372.8c-22.2,1.1-41.3,10.8-60.5,20.5c-16.3,8.2-32.3,16.9-49.1,25.8c-2.6-8,2.8-10,5.6-12.8
			c183.4-182.9,138.5-438.3-97.8-543.8c-100.5-44.9-204.5-33.5-305.6,2c-117,41-213.2,113.1-293.6,206.8
			c-17.1,19.9-34.8,39.3-65.4,56.4c21.7-42.6,44.6-75.8,68.7-108.1C1251.5,997.3,1423.1,899.3,1633,864
			c300.6-50.6,599.3-39.2,896.8,23.6C2534.5,888.6,2539.5,889,2542.4,896.2z M2255.8,1988c97.6-91.2,129.8-236.1,78.9-354.7
			c-55.3-128.7-181.1-195.8-323.1-141c110.2,28.9,194.2,88.2,241.9,189.8C2300.8,1782.7,2299.7,1885.4,2255.8,1988z"/>
		<path class="st0" d="M1107,1784.8c-21.6-0.2-59.2-13.4-87.2-47.4c-6.9-8.4-13.7-11.3-24.5-11.7c-65.9-2.3-107.5-51.8-98.6-117.3
			c9.6-70.2,46.7-126.2,98.4-171.6c99.7-87.5,214-125.4,343.8-79.8c103.8,36.5,130.5,163.5,52.6,234.6c-21.3,19.4-46.5,32.2-75.6,35
			c-12.9,1.3-20.4,3.8-22.6,19.8C1281.5,1729.8,1215.1,1784.9,1107,1784.8z M992.1,1663c-3-86.9,73.9-160.4,166.4-162.5
			c52.7-1.2,95.5,16.2,117.3,64.9c13.7,30.7,32,28.2,55.5,19.3c29.8-11.2,51.5-30.9,61.8-61.8c17.8-53.3-7.9-109.8-64.4-130.1
			c-109.6-39.5-207.2-9.3-295.1,59.7c-45.3,35.6-79.4,80.9-94.9,137.4c-8.8,32-10.3,64.4,20.3,88c8.5,6.6,19.1,14,29.3,9.9
			C1000.1,1683,990.1,1670.6,992.1,1663z M1031,1649.2c-4.1,59,35.4,98.7,97.5,99c71.9,0.4,132.6-56.1,128.8-119.8
			c-3.7-62.4-46.6-96.1-112.8-87.9c18,35,7.5,64.3-18.6,89.7C1098.7,1656.8,1067.9,1668.5,1031,1649.2z"/>
		<path class="st0" d="M1853.8,1868.1c40.7-53.5,86.3-98.4,140-134.7c11.5-7.8,20.2-13.7,30.1,3c7.5,12.8,6.3,18.9-6.4,27
			c-46.6,29.6-86.4,66.9-120.3,110.4c-11.1,14.2-23.8,28.8-13.1,52.7c16.2-20.2,30.4-39.2,45.9-57c31-35.5,66.3-66.3,105.6-92.2
			c9-6,17.4-16.7,27.7,1.2c8,13.9,8.1,20.6-6.2,29.8c-47.2,30.4-87.6,68.5-121.6,113.2c-9.4,12.3-19.2,25-12.1,45.4
			c41.1-61.2,91.7-110.1,150.7-151c16.4-11.4,23-5.7,31.4,8.3c9.2,15.3-3.7,19.1-11.7,24.3c-46.1,30.4-86,67.6-119.2,111.5
			c-12.5,16.5-28.4,34-5.3,56.3c6.2,6,6.7,22.8-1.6,29.9c-9.7,8.3-23.1,0.7-27.9-7.7c-14-24.9-43.2-36.1-54.2-62.8
			c-3.1-7.4-8.5-10.1-14.6-13.1c-9-4.4-19.8-10.5-20.5-19.6c-3.1-36.3-40.4-56.2-42.5-92.5c-0.5-9.5-9.4-11.7-14.9-16.8
			c-25.8-23.8-32.2-51.4-20.3-85c9.5-26.7,27.1-47.3,48.1-65.2c25.2-21.5,52.2-41.1,76.4-63.7c12.6-11.8,19.1-6.3,28.9,1.7
			c13.5,11,5.3,18.5-3.1,25.6c-21.6,18.3-43.6,36.1-65.4,54.1c-19.6,16.2-39.2,32.5-48.6,57.3c-3.8,10.1-7.7,20.4-2.9,31.2
			c5.6,12.6,10,19.6,24,4.9c39-41,80.5-79.8,119.9-120.4c11.6-12,17.8-11.6,29.5,0c11.9,11.8,8.3,17.8-1.7,27.3
			c-37.5,35.6-75.1,71.3-111.2,108.4C1853,1824.3,1835.6,1840.7,1853.8,1868.1z"/>
		<path class="st0" d="M2294.5,1362.2c-46.8-3.1-98.4-6.9-143.2-37.6c-55.7-38-68.2-88.4-29.9-143.3c70.9-101.5,162-178.9,280.9-220
			c29.8-10.3,60.6-16.3,92-13.5c119.9,10.6,179.5,111,132.4,224c-38.6,92.7-113.7,143.5-205.9,172.5
			C2381.5,1356.6,2340.7,1361.3,2294.5,1362.2z M2297.9,1323.9c72.9-0.2,141.4-16.6,202.6-57.5c46.9-31.3,82-72.1,97.9-127.3
			c24.5-84.9-24.8-151.7-112.9-153.6c-23.7-0.5-46.7,2.8-69.1,10.5c-112.6,38.5-197.9,112-265.1,208c-24.7,35.4-17.8,61.5,18,87.4
			C2208,1319.3,2252.9,1321.6,2297.9,1323.9z"/>
		<path class="st0" d="M1494.7,1091.7c-137.8,6.1-233.9,75.7-295.6,196.6c-7.4,14.6-12.2,26-31.4,14.7c-9.6-5.6-12.4-10.2-7.8-20.5
			c99.1-222.5,346-284,512.2-178.4c164.6,104.6,189.7,327.5,51.7,455.3c-10.7,9.9-22.8,18.3-34.7,26.9c-8.1,5.9-16.7,12-23-2.9
			c-4.2-10-14.3-17.2,1.8-28.4c84.4-58.4,121.2-140.8,103.9-241c-17.7-102.4-81.3-170.9-178.9-206.6
			C1561.7,1096,1528.9,1090.3,1494.7,1091.7z"/>
		<path class="st0" d="M828.5,1872.9c0.3-32.4,25.2-57.4,57.3-57.7c35.6-0.3,66.4,28.7,65.1,61.2c-1.2,32.3-30.9,60.5-63.6,60.4
			C855.4,1936.8,828.2,1907.2,828.5,1872.9z"/>
		<path class="st0" d="M753.7,1259c0-50.8,1.8-101.7-0.4-152.4c-3.9-90.7-43.3-136.2-132.2-157.4
			c-118.3-28.2-237.2,41.9-263.3,155.7c-7.9,34.6-4.1,70.1-5,105.2c-1.1,41.3-4.8,82.1-28.2,118c-4.6,7.1-9.6,17.5-19.8,7.2
			c-6.4-6.5-23.3-9.8-13.9-23.9c28.7-43.1,23.1-91.6,23.3-139.1c0.3-63.2,12.9-121.7,53.7-172.5c79.5-98.8,236.2-124.3,342.3-54.7
			c43.6,28.6,72,69.7,75.8,120c15.2,201.1,20.3,402.1-42.3,598c-4.5,13.9-10,27.5-14.9,41.3c-4,11-7.7,19.5-22.7,11.5
			c-11.4-6.1-19.5-8.8-12.6-25.1C751.5,1552.3,755.4,1405.7,753.7,1259z"/>
		<path class="st0" d="M988.2,2100.6c14.1-25.6,24.5-29.6,48.2-12.4c186.2,135.8,451.3,23.3,486.6-204.7c1.5-9.6-2.5-22.6,10.2-28.1
			c18.2-7.8,31.8,3.8,28.2,25c-22.4,132.3-92.2,230.5-218.1,279.6C1215.3,2209.9,1096.3,2183.8,988.2,2100.6z"/>
		<path class="st0" d="M2246.3,1262.9c-16.6-4.2-43.8,1.5-49.7-27.9c-3.6-17.6,29.3-40.9,53.1-40.3c18.3,0.4,46.7,26.4,46.1,42.2
			C2295.1,1253.5,2277.6,1263.5,2246.3,1262.9z"/>
		<path class="st0" d="M2375.4,1190.2c-20.1-6.9-49.9,2.5-56-29.4c-3.4-17.6,29.8-40.5,53.7-39.7c19.1,0.7,47.1,25.1,45.3,42.3
			C2415.7,1188.3,2393.9,1186.7,2375.4,1190.2z"/>
		<path class="st0" d="M2489.1,1117.4c-19.4-4.9-48.5,2.7-52.7-30.1c-2.2-17.4,28.5-37.9,52.1-37.9c18.8,0,48.1,24,46.5,40.8
			C2532.3,1116.6,2510.6,1116.1,2489.1,1117.4z"/>
	</g>
</g>
</svg>
