<?xml version="1.0" encoding="utf-8"?>
<!-- Generator: Adobe Illustrator 23.0.0, SVG Export Plug-In . SVG Version: 6.00 Build 0)  -->
<svg version="1.0" xmlns="http://www.w3.org/2000/svg" xmlns:xlink="http://www.w3.org/1999/xlink" x="0px" y="0px"
	 viewBox="0 0 3000 3000" style="enable-background:new 0 0 3000 3000;" xml:space="preserve">
<style type="text/css">
	.st0{stroke:#000000;stroke-width:10;stroke-miterlimit:10;}
</style>
<g id="Layer_1">
</g>
<g id="Layer_2">
	<g>
		<path class="st0" d="M2623.1,1491.4c3.9,4.2,5.5,5.8,6.9,7.6c13.6,17.5,23.2,18.8,41.3,0.7c41.4-41.4,112.1-38,153.4,3
			c39.6,39.4,41.6,102.7,4.5,145.2c-37.3,42.7-105.4,49.3-151.6,14.4c-5.6-4.2-10.8-9.1-16.9-14.3c-11.7,12.3-19.8,28-34.3,36.1
			c0.2,7.2,4.7,7.3,8.2,7.9c158.5,28.4,247.1,130.9,281.8,280.2c34.3,147.4,1.1,286.8-76.6,415.3c-35.3,58.3-88.4,96.8-155.1,110
			c-113.7,22.5-228.7,32.8-343.8,10.4c-92.2-17.9-166.4-63.7-211.5-149.3c-5.7-10.8-8.9-11.9-17.7-2.9
			c-100.1,102.6-222.4,145.1-365.1,144.3c-399.7-2.2-799.4-0.5-1199.1-0.8c-227.6-0.2-414.2-153.8-459-376.9
			c-5.9-29.3-7.8-59-7.8-89c0.1-283.5-0.3-567,0.2-850.5c0.4-260.5,204.4-465.1,464.5-465.4c409.9-0.5,819.8-0.5,1229.7,0
			c249.9,0.3,449.5,190,464.1,439.7c0.6,9.5-1.1,19.2,14.2,17.3c57.5-6.9,114.3,4.9,171.5,7c32.4,1.2,64.3-0.8,95.2-11.4
			c25.2-8.7,46.1-23.3,61.9-44.8c27.4-37.2,20.8-85.8-15.3-113.1c-33.9-25.6-83.2-17.5-110.6,18.9c-8.9,11.9-16.1,25.1-24.7,37.2
			c-35.6,50.4-82.4,59.6-134.9,26.7c-125.4-78.7-127.4-274.5-4-361.8c42.9-30.3,91.5-44.6,142.3-51.8c72-10.1,144-10.5,215.6,4.5
			c124.7,26.2,209.8,99.4,252,219.4c39.6,112.6,43.4,227.7,12.1,342.9c-36.8,135.3-128.1,211.3-263.9,237.2
			C2642.3,1487,2634,1489,2623.1,1491.4z M1158.5,2460.6c204.9,0,409.9,0.4,614.8-0.1c238.8-0.5,427.3-189.1,427.7-428.1
			c0.5-282.7,0.5-565.4,0-848.1c-0.4-239.2-188.6-427.9-427.6-428.2c-409.1-0.5-818.2-0.6-1227.3,0
			c-237.5,0.3-426,189.2-426.5,426.9c-0.6,283.5-0.2,566.9-0.1,850.4c0,40.2,5.3,79.8,16.4,118.5
			c52.3,182.1,217.4,307.8,407.6,308.5C748.6,2461.2,953.5,2460.6,1158.5,2460.6z M2239.8,2001.3c101.3-46.7,154-45.1,220.4-34.4
			c66.3,10.7,118,42.6,138.8,110.9c18.6,61-6,123.7-58.2,152.3c-54.6,29.9-111.8,18.4-155.9-33.2c-18.3-21.4-34-45-50.7-67.8
			c-11.8-16-25.2-30.4-43.5-38.7c-32.7-14.8-51.3-5.2-58,29.1c-1.4,6.9-1.7,14.3-4.3,20.7c-8.3,20.3-2.8,37.2,8.2,55.2
			c62.3,102,177.1,147.1,293.2,114.1c111.5-31.6,178.7-136.7,161-251.6c-16.4-106.6-111.9-184.8-221.7-181
			c-52.3,1.8-95.1,25-130.1,62.5c-15.8,17-20.8-1.5-29.7-6.6c-11.7-6.7-5.7-13.3,0.8-20.1c41-43.2,89.8-71.4,150.2-74
			c106-4.6,189.6,38.1,240.4,130.9c51.5,94,43.2,189.6-17.2,278.1c-94.2,137.9-337.4,160.9-461.4-4.5c-5.8-7.7-11.5-15.6-17.8-24.1
			c-12.8,22.9-21.8,45.3-36.3,63.4c-17.7,22-13.8,41.2-1.8,62.4c40.9,72.1,105.8,109.9,184.6,125c103.2,19.8,206.2,9.3,308.8-7.5
			c65.1-10.6,116.2-43.5,149.3-100c72.5-123.8,101.1-256.1,65.9-397.7c-40.1-161-176.4-254.1-339.8-235.1
			c-107,12.5-197.2,64.1-285.6,120.4c-6.5,4.1-9.9,9.1-9.9,17.2C2239.9,1911.1,2239.8,1955,2239.8,2001.3z M2337.3,1476.7
			c100.7-0.2,200.4-10.8,299.5-28.4c124.5-22.1,208.9-89.3,241.3-214.1c25.9-100.2,23.6-200.6-7-299.5
			c-34.8-112.8-108.8-184.5-225.7-209.3c-86-18.3-171.4-15.2-256.4,6.3c-39.7,10.1-74.4,29.1-101.9,59.8
			c-68.3,76-61.1,192.2,15.9,259.4c42,36.6,71.8,32.5,102.1-13.8c8.6-13.1,17.5-26.1,27.4-38.3c31.5-39,93.2-51.7,139.4-29.3
			c47.3,22.9,74.9,77.1,64.7,126.8c-12,58.4-51.2,92.2-104.3,111.2c-42.7,15.3-87.5,16.9-132.5,12.3c-46.1-4.8-92.1-8.7-138.6-7.2
			c-15.5,0.5-22.4,5.1-21.7,22.1c1.3,31.3,0.8,62.8,0.2,94.2c-0.3,14.3,1,20.9,19.1,17.4c43-8.4,86.7-13.5,130-20.8
			c69.2-11.7,139.4-18.2,207.3-37.5c42.4-12,78.7-34.1,98.7-74.1c41.7-83.1,43.7-168.6-0.6-250.7
			c-60.4-111.7-188.1-131.5-282.1-46.8c-16.4,14.8-32.3,30.3-43.6,49.2c-10.4,17.4-18,5.3-27.5,0.3c-12-6.2-13.5-12.6-5.1-23.7
			c19.1-25.1,40.3-48.2,64.9-67.9c97.1-77.4,225.7-63.2,303.6,33.5c54.9,68.1,68.5,147.3,55.8,231
			c-17.5,114.7-73.3,173.3-188.6,195.7c-97.6,18.9-196.3,32.6-294.5,48.1c-36.9,5.8-37,5.2-37,41.9c0,11.8,0.9,23.6-0.2,35.3
			c-1.3,14,5,17.5,17.6,17.2C2283.9,1476.2,2310.6,1476.7,2337.3,1476.7z M2253.7,2043.8c57.1-1.7,91.4,32,121,73.7
			c15.8,22.3,30.4,45.7,50.2,65c27.3,26.6,61.5,31.6,95,13.9c30.8-16.2,44.8-42.6,45.3-76.7c0.6-42.4-18.8-73.7-54.7-94.8
			c-26.2-15.4-55.6-20.3-85.5-23.2C2363.2,1995.8,2306.3,2009.8,2253.7,2043.8z M2280.7,1623.6c0,44.3,25,82.8,62.4,96.3
			c35.2,12.7,70.5,2.4,97.1-28.2c28.4-32.8,30.5-77.4,12.7-116.9c-18-40-60.6-60.1-101-50.4
			C2310.8,1534.2,2280.6,1576.2,2280.7,1623.6z M2634.5,1590c-0.1-40.2-30.3-72.6-67.5-72.4c-35.2,0.2-65.7,30.5-66.3,65.8
			c-0.8,46.7,27.4,80.6,66.8,80.4C2604.3,1663.5,2634.5,1630.2,2634.5,1590z M2815.8,1581.1c1.3-39.5-28-70.2-68.1-71.3
			c-38.7-1.1-71.7,28.2-72.8,64.8c-1.1,39.1,28.7,70.2,68.5,71.4C2782.5,1647,2814.5,1618.3,2815.8,1581.1z M2241.6,1647.3
			c0,55.8,0,106.7,0,160.1c29.9-17.5,57.3-33.5,86.4-50.5C2280.3,1735.7,2254.2,1699.1,2241.6,1647.3z M2239.8,1593.9
			c9.7-27.3,22.7-52.1,43.1-74.4c-43.1-7.2-43.1-7.2-43.1,30.2C2239.8,1564.5,2239.8,1579.2,2239.8,1593.9z M2458,1513.3
			c4.4,7.6,8.4,17.5,16.9,16c6.7-1.2,11.5-10.4,12.7-19.7C2477.1,1509.8,2467.8,1508.2,2458,1513.3z"/>
		<path class="st0" d="M1148.7,933.9c71.7,0.9,146.8,19.8,210.1,72c100.4,82.7,100.6,205.1,1.8,289.4
			c-113.9,97.2-328,97.5-442.3,0.7c-103-87.3-98.4-217.9,11.3-298.3C992,951.9,1063.3,934.1,1148.7,933.9z M1146.9,1329.9
			c10.8-1,28.9-1.7,46.7-4.6c66.7-11.2,127.2-35.3,170.7-90c39.1-49.1,41.2-107.3,8-157.5c-6.7-10.1-13.7-15.6-26.7-14.5
			c-153.2,12.9-272,83.1-356.4,211.9c-7.9,12.1-7.4,17.5,6.6,23.8C1041.6,1319.5,1089.6,1329,1146.9,1329.9z M947.4,1267.1
			c84.3-137.6,207.4-217.4,368.6-241.7c-33.4-27.2-81.1-45.2-144.8-50.8c-85.8-7.5-165.7,9.9-233,66.9
			C861.5,1106.3,865.8,1208.1,947.4,1267.1z"/>
		<path class="st0" d="M893.2,1945.3c-0.1-67.6-24.7-169.8-98.7-256.4c-92.3-108.1-199.7-140.1-335.3-97.3
			c-44.2,14-87,31.5-127.8,53.6c-14.8,8-19.5,2.6-26.2-9.9c-7.1-13.3-6.2-19.6,8.3-26.2c71.4-32.8,142.5-65,222.3-72.9
			c103.6-10.3,190.1,24.3,261.6,97.3c65.1,66.5,109.2,145,125.5,237.8c25.9,147,4.2,286.4-70.3,415.8c-50,87-130.3,131-227.7,145.5
			c-26.3,3.9-53,6.5-79.8,4.6c-10.3-0.7-23.3,2.1-19.8-16.8c2.5-13.4,1-25.5,22-23.9c48.2,3.7,95.4-3.4,140.8-20.5
			c61.4-23.1,107.7-63.3,138-121.6C869.4,2171,894.8,2082.9,893.2,1945.3z"/>
		<path class="st0" d="M1397.7,1977.7c0.5,97,27.6,191.4,79.7,277.5c46,76,119.3,110.6,205.3,120.8c21.8,2.6,43.8,5.3,65.8,1.9
			c18-2.8,15.4,10.1,17.2,20.5c2.1,12.3-0.6,19.5-14.8,20c-123.8,4.4-257.2-37-324.6-173.1c-75.4-152.2-93.4-310.2-34.4-469.7
			c46.6-125.9,129.9-221.8,268.7-253.8c63-14.5,124.9-4.6,185.6,14.3c45.8,14.2,89.2,34.3,132.7,54.4c14.6,6.8,14.9,13,8.1,26
			c-6.5,12.3-10.8,17.9-25.9,10.1c-54.5-28-110.6-52.6-171-64.8c-131.3-26.5-230.3,24-308.5,128
			C1417.6,1774.5,1399.6,1871.3,1397.7,1977.7z"/>
		<path class="st0" d="M1481.6,1939.6c1.3,111.3,37,223.6,142.5,304.5c45.8,35.1,98.1,55,156,60c8.8,0.7,23.8-5.3,21,15.2
			c-2.3,16.8-5.4,26.3-26.5,24c-110.9-12.3-198.2-64.9-258.5-157.2c-81-124.1-95.8-259.3-47.3-398.7
			c44.4-127.5,157.9-181.6,287.5-172.9c77.2,5.2,147.7,33.7,216.5,67.2c14.3,7,10.8,13.8,5.1,23.4c-5.3,8.9-6.6,20.9-23.3,12.4
			c-53.1-27.3-108.1-50.5-167.7-59.4c-96.1-14.2-184.2-0.2-248.1,81.6C1497,1793.1,1485.2,1857.2,1481.6,1939.6z"/>
		<path class="st0" d="M849.5,1952.5c-3.6,121.2-36.6,228.3-124.3,313c-57.8,55.8-126.8,88.5-207.1,96c-21.1,2-33.2-11.4-28.8-31.7
			c2.2-10.2,11.3-6,17.1-6.5c69-5,129.5-30.5,180.8-76.4c88.5-79.1,122-181.5,121.8-297.1c0-37.7-5-74.9-16-111.3
			c-37.5-124.3-137.2-172.2-250.1-166c-71.9,3.9-137.6,29.2-200.7,61.4c-17.1,8.7-21.9,2.3-29.6-11.2c-9.7-17,1.9-19.7,12.4-24.9
			c71.5-35.4,145.7-62.2,226.2-65.7c148.3-6.5,258.3,81.6,288.4,229.6C845.9,1892.5,848.6,1923.7,849.5,1952.5z"/>
	</g>
</g>
</svg>
