<?xml version="1.0" encoding="utf-8"?>
<!-- Generator: Adobe Illustrator 23.0.0, SVG Export Plug-In . SVG Version: 6.00 Build 0)  -->
<svg version="1.0" xmlns="http://www.w3.org/2000/svg" xmlns:xlink="http://www.w3.org/1999/xlink" x="0px" y="0px"
	 viewBox="0 0 3000 3000" style="enable-background:new 0 0 3000 3000;" xml:space="preserve">
<style type="text/css">
	.st0{stroke:#000000;stroke-width:10;stroke-miterlimit:10;}
</style>
<g id="Layer_1">
</g>
<g id="Layer_2">
	<g>
		<path class="st0" d="M997.7,1975c-15.8,29.8-28.8,61.5-49.5,88.9c-61.2,80.8-144.1,123.5-243.5,126.3
			c-145.6,4.1-289.4-14.5-427-64.2C170.7,2087.4,93.5,2017,70,1900.3c-18.4-91.3,4.6-176.2,45.7-256.9c10.2-19.9,10.7-33-3.7-51.1
			c-56.8-71.1-77.9-154.6-77.1-244.1c0.7-88.7-2.7-177.4,2.9-266.2c10.6-169.6,166.2-325.7,335.4-336.3c40.2-2.5,80.3-3,120.4-3
			c413.7,0,827.5,0.4,1241.2-0.3c100.2-0.2,192.6,20.7,271.8,85.7c30.6,25.1,31,24.7,58.9-4.4c45.8-47.9,96.7-87.4,162.7-104.2
			c46.1-11.7,91.7-5.1,136.8,3c78,14.1,154.9,9.4,231.6-7.9c53.3-12.1,106.4-11.3,159.2,2.2c103.9,26.6,171,126.6,162.6,233.2
			c-3.9,49.7,1.5,100.3,3.4,150.4c2.8,71.9,5.9,143.8,9.4,215.7c7.6,154.7,12.2,309.5,10.1,464.4c-0.6,42-4.2,83.7-12.9,124.7
			c-28.8,135.9-116.9,223.9-237.5,280.7c-185.8,87.6-372.5,81.7-557.5-5.6c-59.3-28-115.1-61.7-166.5-102.4
			c-11.9-9.4-19.5-12.4-29.5,3c-46.9,72.7-117,114.3-197.5,138.1c-91.8,27.2-185.9,43.6-282,41.8c-101.9-1.9-198.8-26.6-290-71.9
			c-78.3-38.9-129.2-102-156.4-184.6c-3.1-9.5-6.7-18.9-10.1-28.3C1001.1,1975.7,999.8,1975.6,997.7,1975z M1633.3,864.9
			c1.4,12,2.2,19.5,3,26.9c8.7,76.9,3.2,152.8-24.2,225.2c-59,155.9-179.7,234.1-338.8,259.9c-83.8,13.6-168.3,10.9-252.9,6.4
			c-84.2-4.5-166.7-16.5-245.3-47.3c-116.9-45.9-201.1-123.7-227.9-250.6c-20.4-96.7-1.7-189.9,38.2-279c9-20.1,4.5-24.2-15.8-23.9
			c-55.3,0.9-110.6-0.1-165.8,0.6c-181.6,2.2-326.5,146.5-328.6,327.9c-1,86.3-0.1,172.5-0.4,258.8c-0.2,38.9,5.9,76.7,19.1,113.3
			c13.1,36.1,14.2,36.6,45.9,16c91.9-59.6,168.3-134.8,228.1-226.8c11.4-17.5,24-18.9,35.3-5c9.8,12.2-0.8,20.5-6.3,28.9
			c-64.7,99-147.8,179.3-248.2,241.5c-16.3,10.1-18.4,17.9-6.7,33c43.4,56,98.2,95.3,165.9,116.4c65.3,20.4,134.2,17,200.7,29.2
			c25.5,4.7,46.9-2.8,68.7-15.7c97.5-57.5,170.4-136.8,217.6-239.8c5.4-11.8,8.8-24.1,26.7-16.2c16.8,7.4,13.6,18.3,8.1,30.8
			c-31.2,69.7-75.4,130.1-131,182.3c-25.8,24.2-54.5,44.7-88.6,68.2c147.9,14.5,289,22.2,430.5,21.8c13.4,0,24-5.6,34.4-13.2
			c88.4-64.9,159.5-145,214.1-240.1c6.9-12,10.6-32,32.2-20.8c24.3,12.6,6.6,27.5-0.1,39.5c-44.2,77.8-99.1,147.1-167.1,205.6
			c-9.2,7.9-18,16.3-31.8,28.9c16.1,0,25.1,0,34.1,0c119.8,0.2,239.2-7,358.6-15.8c21.9-1.6,37.9-9.5,52.3-25
			c74.4-79.9,113.4-174.5,119-283.2c0.7-12.9,1.5-23.7,18.5-23.3c15.7,0.4,19.8,9.8,19.5,23.3c-0.1,4.2,0.1,8.4-0.3,12.6
			c-8.1,99.4-41.2,189.1-103.7,267.5c-3.7,4.7-11.5,7.8-8.5,17.5c4,0,8.1,0.4,12.2-0.1c69.8-7.9,139.5-16.7,209.4-23.4
			c34.5-3.3,55.2-21.3,72.1-50.2c58.9-100.7,95.1-208.2,103.4-324.8c1-13.5,0.4-28.3,20.5-27.6c21.2,0.7,17.8,16.4,17.1,29.2
			c-5.1,84.4-25.7,165.1-58.4,242.9c-11.4,27.1-24,53.6-41.9,84.4c87.9-49.8,155-156.4,157.6-251.3c2.7-97.1,2.1-194.3,1.1-291.4
			c-1.6-156.1-114.4-289.9-268.3-320.2c-54.8-10.8-110.2-4.8-165.4-5.7c-56.4-0.9-56.4-0.2-42.5,55.5c0.3,1.4,1.1,2.6,1.8,4
			c9.8-37.6,24.9-52,54.3-51.9c26.1,0.1,44.9,14.3,51.6,39.3c5.8,21.6-4.7,45.7-25.3,57.8C1686.9,901.9,1662.9,895.5,1633.3,864.9z
			 M2903.5,1645.3c0.5-136.4-10.1-294.3-15.4-452.4c-3.1-92.8-5.6-185.7-9.7-278.5c-3.4-77.3-54.9-140.6-129.6-160.5
			c-48.5-12.9-97.6-12.9-146.7-2c-80,17.7-160.3,23-241.6,8.2c-51.1-9.3-102.7-16-153.2,5.5c-51.4,21.9-91.2,58.3-128.4,98.7
			c-12.7,13.8-14.3,24.1-2.4,40.6c39.7,54.7,61.5,116.3,66,184.2c5.8,88.7,2.5,177.4,2.3,266.2c-0.3,134.8-53.5,243.3-164.9,321.3
			c-13.5,9.5-9,18.9-5.6,30.4c29.4,101.1,36.3,202.4,0,303.3c-6.2,17.2,0.4,26.4,12.7,36.1c63.6,50.2,132.8,90.8,208.4,119.6
			c191.8,73,376.3,59.5,548.9-55c75.7-50.2,128.2-119.6,146.7-211C2906.6,1823,2903.6,1745,2903.5,1645.3z M1959.7,1853
			c1.6-35.5-6.8-80.6-18.4-125.4c-4.5-17.6-11.7-23.7-29.9-14.8c-15.7,7.6-32.8,12.5-49.7,17.1c-33.4,9-31.9,8.4-29.1,44
			c8.5,110.4-33,225.9-168.4,249.8c-97.1,17.1-195.6,27.2-294.8,17c-103.6-10.7-179.1-75.1-204.5-176.1c-4.3-17-7.4-34.5-8.6-51.9
			c-1.3-19.6-10.6-25.7-29.1-24.8c-23.4,1.1-46.9,1.2-70.3,0c-19.5-1-26,7-27.4,26.1c-2.2,30.1-2.9,59.8,0.2,90.1
			c19.6,191.3,121.5,251.1,261.4,293.6c118.2,36,238,30.4,357.6,5.3c38.5-8.1,77-16.5,113.6-31.3
			C1894.9,2117.8,1961.2,2014.5,1959.7,1853z M639.5,2153.9c95,0.9,165-11.2,224.7-58.4c94.5-74.8,120.3-178.9,123.6-292.4
			c0.4-14.7-7.1-18.5-20.2-18.5c-31.8,0-63.7,0.7-95.4-1.7c-20.3-1.5-26.6,3.8-28.7,24.8c-10.1,101.9-69.5,171.1-162,189.2
			c-55.1,10.8-109.8,1.4-164.5-7.8c-131.2-22.2-239.1-102.4-238-258.2c0.1-8.4-3.3-14.3-11.4-17.6c-35.9-14.8-68.6-34.9-98.5-59.7
			c-9.1-7.6-14.2-5.4-19.1,4.4c-38.4,77.5-60.7,157.6-40.7,244.8c22.6,98.1,90.9,153.3,179.6,187.4
			C408.5,2136.2,535,2143.9,639.5,2153.9z M1389.5,1201.7c44.7-29.3,72.4-67.1,90.5-111.9c36.8-91.3,32.2-184.7,12.1-278.8
			c-4.5-21.1-13.6-28.9-35.5-28.6c-79.5,1.1-159,0.4-238.5,0.4c-145.6,0-291.3,0.1-436.9-0.1c-15.8,0-29,1.4-37,18.7
			c-36.2,78.6-59.5,159.4-50.8,247.3c9.7,98.4,60.8,158.3,156,180.8c31.8,7.5,33.1,6.6,32.8-25.4c-0.9-79.8,22-149.1,90.4-196.3
			c54.7-37.7,82-90.9,95-153.8c4.2-20.2,5.4-46,32.9-46.1c25.9-0.1,28.5,24.9,32.9,44c17.1,75.2,58.9,124.3,136.8,143.3
			c65.8,16,102.2,62.5,114.4,129.1C1389,1148.3,1386.2,1172.5,1389.5,1201.7z M1137.6,1286.3c-79.4-1.7-158.9-2.8-238.1-10.1
			c-43.5-4-86.3-12.7-125.3-33.4c-93.2-49.5-126.7-147.5-120.3-252.1c4-65.8,21.9-128.4,48.4-188.6c2.5-5.6,8.6-11.8,0.7-17.7
			c-13.9-10.5-65.5,1.7-73.9,17.4c-17.6,32.6-29.9,67.5-38.4,103.3c-23.4,98.9-21.1,194.8,40.7,281.2c48,67,116.7,105,193.8,127
			c150.4,42.9,303.9,46.5,457.5,23.2c95.3-14.4,178-56.2,239.5-134.2c48.9-62.1,72.5-133.3,78.5-210.8c4.9-63.9-2.1-127-19.8-188.7
			c-5.3-18.4-22.9-25.8-44.4-19.2c-19.1,5.8-7.4,19.7-5.4,28.9c15.8,70.3,18.3,140.9,7.2,211.9c-20.4,130.9-105,224.6-228.2,250
			C1253.4,1285.9,1195.6,1288.8,1137.6,1286.3z M1368.8,2001.2c18.1,2.5,30.5,5.2,42.9,5.8c32.8,1.6,64.9,3.1,90-26
			c29.2-33.8,50.5-70.9,58.4-114.9c2.6-14.5,4.5-26.9,23.8-23.9c21.4,3.3,15.3,18.8,13.1,31.1c-7.3,39.2-22.5,75.2-46.5,107.4
			c-3.3,4.4-9.7,9.5-5,15.1c2.3,2.8,9.3,2.7,14.1,2.3c19.2-1.4,38.3-4.7,57.5-4.8c19.7-0.1,30.3-10.2,38.7-26.4
			c20-38.6,31.4-79.1,31.5-122.8c0-14.3-4.8-32.7,19.6-32.3c25.2,0.4,17.4,20.2,17.9,33.5c1.7,44.1-11.5,85.4-29.6,129.9
			c21.6-7.9,36.1-18.3,49.2-31.3c37.4-37.3,48.4-85.1,52.2-135.2c4.8-62.9-5.3-70.7-67.3-62.3c-95.3,13-191.2,21-287.2,28
			c-76.8,5.6-153.7,10.5-230.7,10c-14-0.1-20.5,5.2-18.4,19.5c4.1,27.3,8.2,54.5,18,80.7c6.9,18.5,14.3,16.7,26.5,5.2
			c23.4-22.1,43.2-46.9,56.8-76c6.1-13.1,13.1-18.1,27.1-11.2c13.6,6.7,12.3,16.1,7,27.1c-14.4,29.6-32.6,56.6-56.4,79.4
			c-32.5,31.1-32.4,34.3,5.9,60.8c5.5,3.8,11.7,6.5,17.2,10.3c15.1,10.3,27.6,9.6,42.3-3.4c39.1-34.6,68.6-75.6,87.8-123.8
			c7-17.7,17.3-22,32.6-12c12.7,8.4,5.2,19.5,1.3,29.2C1439.2,1919,1408.5,1960.4,1368.8,2001.2z M1101.4,885.4
			c-7,3.7-6,10.5-7.4,15.6c-15,53.7-44.5,97.8-90.2,129.1c-62.2,42.6-85.6,102.1-83.6,174.8c1,35,1.8,36.8,36.8,38.2
			c46,1.9,92,3.2,138,4.5c75.4,2.2,150.6,1.8,224.8-14.3c13.6-3,26.9-7.3,28.4-23.8c7.6-82.4-1.5-158.3-103.2-183.9
			c-49-12.3-89.3-38.1-115.2-82.5C1119.1,924.8,1110.9,904.9,1101.4,885.4z M719.3,1941.4c51.2-22.7,95.5-101.9,87.6-149.2
			c-1.9-11.3-8.9-12.5-17.7-13.3c-60.8-4.8-121.8-8.9-182.5-14.9c-85.7-8.5-171.3-17.6-256.7-28c-34.5-4.2-36.2-4.5-31.8,29.6
			c0.8,5.8,2.8,11.4,3.4,17.2c1.7,15,8.2,19.7,23.8,15.9c22.5-5.6,42.6-14.9,59.2-31.1c13.5-13.1,22.7-3.1,31.7,5.8
			c10.6,10.4,0.4,16.6-5.9,22.3c-20.1,18.4-43.5,31.1-69.7,38.4c-6,1.7-14.3,0.3-14.4,10.3c-0.2,21.3,32.6,42.2,51.7,33.2
			c30.1-14.2,55-35.4,75.8-60.8c10.8-13.2,19.3-12.5,31.1-2.7c12.9,10.8,5,19.2-2.4,27.3c-20.8,23-42.5,45.2-70.1,60.3
			c-13.3,7.3-15.9,13.1-0.3,21.8c36.8,20.6,72.1,24.1,107.3-3.5c21.3-16.7,41.1-34.5,53.8-58.7c6.9-13.1,15.4-19.3,30.2-12
			c16.7,8.2,8.3,19,3.3,29.3c-15.3,31.4-42.3,52.7-68.2,76c85,25.7,125.4-0.8,147.1-80.5c0.9-3.2,1-6.6,1.4-9.9
			c1.4-14,10.1-17.8,22.8-17.1c14.6,0.8,15.3,11,14.3,21.4C741.4,1892.7,733.8,1915.6,719.3,1941.4z"/>
		<path class="st0" d="M724.3,1372.6c0.2,28-24.5,53.1-52.6,53.4c-27.8,0.3-52.9-24.9-52.9-53.2c0.1-28.8,24.4-53.3,52.7-53.2
			C700.1,1319.8,724.1,1343.9,724.3,1372.6z"/>
		<path class="st0" d="M523.9,970.2c0.4,30.4-21,53.4-50.4,54.3c-28.1,0.9-52.7-23.3-53.3-52.2c-0.6-28.9,22.8-53.8,51.1-54.3
			C500.3,917.5,523.4,940.4,523.9,970.2z"/>
		<path class="st0" d="M1721.8,1083.3c29.1-0.1,53,23.2,53.3,52c0.3,28.5-23.8,53.6-51.7,53.9c-29,0.3-52.5-22.9-52.9-52.3
			C1670,1107.5,1693,1083.5,1721.8,1083.3z"/>
		<path class="st0" d="M535.5,1293.4c-30.6-1.1-53.5-23.7-53-52.1c0.5-28.5,25.3-52.8,53.5-52.4c29.6,0.4,53.9,26.2,52.5,55.6
			C587,1272.4,563.2,1294.4,535.5,1293.4z"/>
		<path class="st0" d="M1002.7,1498.8c-30.2-0.5-52.6-22.8-52.5-52.2c0.1-28,25-52.2,53.6-52c28.7,0.2,52.2,24.1,52.2,53.1
			C1056,1476.7,1032.5,1499.2,1002.7,1498.8z"/>
		<path class="st0" d="M1580.3,1287.8c0.1-28.4,24.7-53.1,52.4-52.9c28,0.2,52.2,25.3,51.9,53.8c-0.4,28.8-24.7,53.2-52.8,52.7
			C1602.6,1340.8,1580.1,1317.5,1580.3,1287.8z"/>
		<path class="st0" d="M1434.1,1469.2c-30.1-1.4-54-25.4-52.5-52.7c1.6-28.8,26.4-52.5,54.3-51.8c29.1,0.7,53.9,27.6,52,56.3
			C1486,1448.9,1461.9,1470.5,1434.1,1469.2z"/>
		<path class="st0" d="M1712.7,1015.6c-30.3,0.3-53.5-21.2-54.5-50.4c-0.9-29.2,24-53.6,54.4-53.3c28.1,0.3,50.8,22.6,51.6,50.8
			C1765.1,991.6,1742,1015.4,1712.7,1015.6z"/>
		<path class="st0" d="M482.4,1156.3c-29.6,0-52.2-22.6-52.1-52.2c0.1-29.6,22.6-51.8,52.4-51.6c29.9,0.2,52.4,22.6,52.3,51.9
			C534.9,1133.8,512,1156.3,482.4,1156.3z"/>
		<path class="st0" d="M1190.9,1508.2c-30.1,0.3-52.9-21.6-53.2-50.9c-0.2-29.6,22.1-52.5,51.5-52.9c29.7-0.4,52.7,21.7,53.1,51.2
			C1242.8,1485.3,1220.6,1507.9,1190.9,1508.2z"/>
		<path class="st0" d="M2760.3,1143.3c-4.2,30.9-14.1,65-46.9,90.8c-88.2,69.1-175,139.9-262.1,210.4
			c-35.9,29.1-77.4,42.9-122.9,43.2c-40.2,0.3-65.2-24.6-63-64.9c2.4-42.9,12.4-82.7,47.7-114.1c86.3-76.6,170.6-155.3,255.3-233.7
			c14.8-13.7,32.5-14.9,50.7-17.9c30.3-5,60-3.8,89.2,5.6C2744.1,1074.3,2760.8,1098.3,2760.3,1143.3z M2340,1450.1
			c26.9-3.6,58.1-11.6,84.5-32.8c88.6-71.3,177.3-142.6,266-213.8c22.6-18.2,30.7-42.9,32-70.7c0.5-10.6-2.8-19.5-11.4-26.5
			c-24-19.6-100.4-18.3-123.7,2.9c-82.2,75-163.5,150.9-246.5,225c-25.4,22.7-33.5,51.3-37.6,82C2300,1441,2309.5,1450,2340,1450.1z
			"/>
		<path class="st0" d="M2631.5,1573.3c4.3,0,6.8,0,9.3,0c53.6,1.2,86.9,19.7,98.2,54.6c11.8,36.4-8.4,94.7-41.7,121.5
			c-89.4,71.9-178.7,143.8-268.1,215.8c-31.8,25.6-68.8,38.2-108.9,40.2c-53.6,2.7-80.8-26.3-73.4-78.8
			c5.7-40.1,18.9-76.2,51.9-105.1c80.6-70.6,159.6-143.1,237.3-216.9C2564.9,1577.4,2598.4,1575.8,2631.5,1573.3z M2325,1967.8
			c25.1-3,54.8-11.4,79.7-31.3c88.7-71.1,176.8-142.9,265.9-213.6c22.5-17.9,30.2-41.1,32.7-67.5c1.9-20.5-7.8-35.5-27.6-38.8
			c-45.8-7.7-88.9-10.3-127.7,28.1c-68.3,67.6-139.7,132.1-212.3,195.1c-28.5,24.7-45,52.5-51,88.5
			C2279.6,1957.7,2288.8,1968.7,2325,1967.8z"/>
		<path class="st0" d="M736.6,968.5c0.5-43.8,34.4-77,78.5-76.8c43.6,0.2,78.7,34.5,79.2,77.2c0.5,44.6-35.8,79.7-82.1,79.4
			C769.4,1048.2,736.1,1013,736.6,968.5z M814.6,1011.6c20.9,0.5,42-20.5,41.8-41.6c-0.1-20.8-18.7-39.5-39.9-40.1
			c-24.6-0.7-41.4,15-42,39.1C774.1,991.3,792.8,1011.1,814.6,1011.6z"/>
		<path class="st0" d="M1399,1023.6c-45.8,0-77.7-32.4-77.5-78.8c0.2-44.1,33-73.7,77.6-76.9c39.2-2.8,81.4,40.6,78.3,79.6
			C1474,991.4,1443.9,1023.6,1399,1023.6z M1440,946.6c0.3-22.1-19-41.4-41-41.4c-21.1,0.1-39.8,18.1-40.7,39.2
			c-0.9,22,17.7,42,39.7,42.6C1420,987.6,1439.7,968.7,1440,946.6z"/>
		<path class="st0" d="M1114.6,1221.9c-44.7-0.1-78.5-33.3-78.6-77.1c-0.1-43.7,34.1-77.7,78.2-77.5c46.8,0.2,79.8,32.8,79.2,78.4
			C1192.9,1190.3,1160.1,1222,1114.6,1221.9z M1154.9,1144.5c-0.1-23.5-15.4-39.2-38.7-39.6c-24.6-0.5-40.9,15.5-40.8,39.9
			c0.1,23.4,15.4,39.1,38.7,39.6C1138.6,1184.9,1155,1168.9,1154.9,1144.5z"/>
	</g>
</g>
</svg>
