<?xml version="1.0" encoding="utf-8"?>
<!-- Generator: Adobe Illustrator 23.0.0, SVG Export Plug-In . SVG Version: 6.00 Build 0)  -->
<svg version="1.0" xmlns="http://www.w3.org/2000/svg" xmlns:xlink="http://www.w3.org/1999/xlink" x="0px" y="0px"
	 viewBox="0 0 3000 3000" style="enable-background:new 0 0 3000 3000;" xml:space="preserve">
<style type="text/css">
	.st0{stroke:#000000;stroke-width:10;stroke-miterlimit:10;}
</style>
<g id="Layer_1">
</g>
<g id="Layer_2">
	<g>
		<path class="st0" d="M2682.7,1515.2c-0.2,103.9-5.6,259.1-12,414.3c-3.6,88.4-11.9,176.6-15.8,265c-3.3,73.5-10.6,146-33,216.4
			c-68.5,215.4-211.8,358.6-422,437.5c-103,38.6-210.1,56.8-319.2,61c-253.1,9.8-506.2,19.7-759.6,19.3
			c-71.1-0.1-142.4,1.7-213.3-1.7c-246.3-12-419.4-138.3-533.6-350.8c-58.2-108.2-86.7-226.1-94.3-348.2
			c-10.6-170.3-9.8-340.9-7.7-511.5c2.6-205.4,9-410.7,21-615.7c6.1-104.2,8.3-208.9,25.1-312.1c18.1-110.9,61.1-212.7,120.5-307.8
			c136.4-218.3,337.3-342,584.1-397.9c88.8-20.1,179.3-29.2,270.1-28.8c242.9,1.2,485.7,2.8,728.5,12.3c23.2,0.9,46.4,2.2,69.5,4.2
			c87.8,7.4,161.2,50.5,230.7,99c168.5,117.5,265.9,283.6,318.8,478.8c22.7,83.7,35.4,169.3,38,255.6
			C2683.9,1090.7,2686.4,1277.2,2682.7,1515.2z M1358.6,109c8.3,9.8,13.3,15.9,18.5,21.9c75.3,85.7,145.1,175.6,206.6,271.8
			c66.4,104,120,213.7,145.5,335.2c4.1,19.7,12.3,21.8,29.1,19.5c74.5-10.5,148.2-4.3,218.7,20.9
			c121.1,43.4,200.4,129.9,244.7,249.2c33.4,89.9,39.6,184.3,38.2,278.8c-2.6,174.2-7.2,348.3-13.2,522.4
			c-3.7,107.2-3.7,214.8-24.4,320.8c-42.5,218.3-175.9,350.1-387.4,406.4c-89.7,23.9-181.8,28.2-274.4,23.6
			c-37-1.8-37.2-0.5-44.6,34.3c-18.3,86.4-53,164.2-122,222.7c-13.9,11.8-29.3,21.7-48.7,35.9c13.5,0,21.2,0.2,29,0
			c153.1-4.8,306.1-9.8,459.2-14.4c115.1-3.5,228.2-17.2,337.5-56.2c227.3-81.1,366.5-239.2,417-474.9
			c15.1-70.5,13.2-142.9,18.4-214.4c11.2-151.3,16.4-303,20.3-454.6c6.1-235.1,5.8-470.4,0.1-705.5c-2.8-119.4-18-237.1-56.5-351
			c-61.2-181.2-167.2-327-335.2-423.3c-52.5-30.1-107.7-53.1-169.6-55.8c-212.5-9.2-425.1-12.9-637.8-13.3
			C1406.2,108.9,1384.7,109,1358.6,109z M393.2,706c-12.8,39.3-23.3,75.5-26.4,113.1c-12.4,147.5-21,295.2-28,443.1
			c-14,296-16.9,592-11,888.2c0.3,13.9,2.1,27.8,3.2,41.6c6-4.3,7.9-8.7,9.8-13.2c31.3-74.2,74.1-140.9,128-200.9
			c209.9-234,573.9-286.5,840.3-120c13.7,8.5,19.6,4.3,28.4-5.3c87.8-95.8,161.6-201.4,218.2-318.4
			c76.3-157.5,121.4-324.3,138.2-498.3c12-124,1-246.3-37.7-365.5c-4.8-14.9-7-21.3-22.2-6.5c-215.4,209.3-473.7,307.5-773.6,294.1
			c-130.7-5.9-248.5-48-348.6-134.4C470.5,788,433.4,748.1,393.2,706z M1479,2411.4c0.7-60.4-2-126.2-10.1-191.9
			c-20.5-166.4-104.3-286.4-258.1-354.8c-286.9-127.6-668-16-819.1,328.8c-37.5,85.6-35.4,166.1,3.1,249.4
			c38.9,84.2,93.3,158.6,144.9,234.7c10.2,15,24.2,27.1,38.9,37.7c32.1,23.4,62,16.2,81.5-18.5c13.3-23.6,19.9-49.7,28.5-75
			c40.3-119.5,101.7-226,195.3-311.9c33.2-30.4,72.6-48.3,118.9-44.4c41.4,3.6,75.4,20.4,94.7,59.6c18.8,38.1,10.3,74-12.2,106.8
			c-23.8,34.5-57.5,56.9-97.5,69.4c-31.8,9.9-64.3,18-95.7,29c-75,26.2-108.2,95.7-82.5,170.7c20.2,58.9,62.8,97.7,118.1,120.8
			c108.5,45.4,221.6,50.7,334.8,23.1c107.2-26.1,162.1-105.4,192.2-205.7C1476.6,2566.7,1476,2491.7,1479,2411.4z M2199.2,1636.7
			c2.5-113.9,5.9-227.8,7.3-341.8c0.9-71.9-3.2-144-23.5-213.4C2140,934.9,2048.4,839.1,1893.3,812c-47-8.2-93.8-6.5-140.9-1.8
			c-12.2,1.2-9.3,8.8-8.4,15.5c6.9,55.6,9.8,111.4,6,167.3c-0.9,12.9,4.5,13.9,15,13.7c29.9-0.6,59.6,3,88.2,11.5
			c108.2,32.3,168.8,109.4,199.4,214.3c21.6,74.1,22.8,150.3,22.9,226.5c0.2,153.1,6.6,306.3-6,459.1
			c-14.7,178.6-112.3,298.3-281.3,347.3c-77.7,22.5-157.2,34.4-238.3,33.9c-11.5-0.1-21.4-1.8-19.5,16.1
			c6.7,62.3,0.8,124.8-1.5,187.1c-0.7,19.3,5.6,23.4,22.5,23.7c76.3,1.7,152.3,2.1,227.7-12.5c115.8-22.4,218.1-69.6,295.5-161.5
			c73.9-87.7,98.9-194,107.9-304.5C2193.8,1911,2195,1773.7,2199.2,1636.7z M446.4,575.3c-10.2,22.3-18.3,40.9-27.2,59
			c-4.8,9.8-3.9,16.8,4,24.8c27,27.4,53.1,55.6,79.7,83.4c99.8,104.2,222.8,157.1,366,162.7c276.3,10.8,515.5-79,716.9-268.4
			c44-41.4,42.9-41.9,16-96.4c-8.1-16.3-12.7-17.9-25.4-3.5c-63.8,71.7-131.5,139.4-211.2,193.8c-237.5,162-528.4,164.8-755.2,7.4
			C546.9,694.3,493.2,640.8,446.4,575.3z M2021.8,1593.8c0.4-42.5,0.5-42.5-18.5-73.6c-12.4-20.4-25.7-40.4-37.4-61.1
			c-6.3-11.2-10.8-13.8-23-5.7c-43.3,29.1-87.3,57.1-131.8,84.3c-12.2,7.5-11.2,13.5-5.1,24.1c25,43.2,49.7,86.7,73.6,130.5
			c6.1,11.2,11.5,11.7,21.5,5.4c28.9-17.9,57.6-36.4,87.7-52.1C2013.1,1633.1,2030.5,1619.3,2021.8,1593.8z M1749.9,1578.2
			c-1.7,0.9-3.7,1.7-5.5,2.9c-45.7,29.3-91.3,58.8-137.2,87.9c-7.5,4.8-6.8,8.9-2.6,15.5c26.4,42.4,52.6,84.9,78.4,127.8
			c5.5,9.1,10.4,9.6,19,4.4c42.1-25.6,84.4-50.8,126.8-75.8c9-5.3,12.5-9.5,6.3-20.1c-25.8-44.4-50.7-89.4-76.1-134.1
			C1757,1583,1755.7,1578.3,1749.9,1578.2z M1773.8,1497.7c1.9-1,3.9-1.8,5.7-3c46.9-30.1,93.8-60.3,140.9-90.2
			c8.2-5.2,5.4-10,1.6-16.1c-24.1-38.8-48-77.6-71.7-116.5c-4.9-8.1-9.3-8.9-17.2-3.6c-42.8,28.5-85.7,56.8-128.9,84.7
			c-8.3,5.4-10.7,9.5-5.3,18.8c22.6,38.8,44.3,78,66.5,117C1767.4,1492.3,1768.3,1497.2,1773.8,1497.7z M1950.6,1926.3
			c-1.1-2.2-2-4.2-3-6.1c-24.5-43.4-49.3-86.7-73.5-130.4c-4.8-8.7-9.3-8.7-17.1-4c-42.1,25.5-84.3,50.8-126.7,75.6
			c-10,5.8-10.7,10.9-4.7,20.4c23.2,36.7,45.7,73.7,68.2,110.8c4.7,7.8,8.7,11.2,18.5,6.2c43.1-22.1,86.6-43.2,129.9-64.7
			C1945.9,1932.4,1950.8,1931.9,1950.6,1926.3z M1488.6,1943.1c4.3-2.2,7.7-3.7,10.7-5.6c44.8-26.8,89.3-53.9,134.4-80.1
			c10.4-6,8-10.9,3.2-18.6c-24.9-40-49.9-79.9-73.8-120.4c-7.2-12.2-11.9-12.1-24.4-6c-50.5,24.7-73,75.3-108.4,113.8
			c-5.1,5.6-2.4,10.6,0.4,15.7c16.8,30.4,33.6,60.9,50.5,91.3C1483.3,1936.7,1486.1,1939.8,1488.6,1943.1z M1750.3,2025.2
			c-0.7-1.5-1.2-2.9-2-4.1c-23.8-38.9-47.7-77.8-71.4-116.8c-4.2-6.9-8.8-5.5-14.5-2.1c-46.6,27.9-93.2,55.8-139.9,83.4
			c-7.5,4.4-7.7,8.8-3.8,15.8c18.8,33.5,37.5,67,55.7,100.8c4.6,8.4,9.5,8.6,17.3,4.8c49.9-24.8,100-49.2,149.9-73.9
			C1745,2031.5,1750.5,2031,1750.3,2025.2z M947.5,653.1c0-1.3,0-2.6,0-3.9c21.7,0,43.4-0.4,65.1,0.2c10.9,0.3,15.3-3,16-14.5
			c2.4-41.2,5.1-82.4,9.2-123.4c1.5-15.3-2-20.6-17.8-19.3c-42.6,3.5-85.2,6.3-127.9,8.7c-10.3,0.6-11.1,5.7-11.7,13.8
			c-3.3,41.1-6.5,82.3-11.2,123.2c-1.6,13.9,3.7,15.7,15.3,15.3C905.5,652.6,926.5,653.1,947.5,653.1z M729.8,657.9
			c0-1.1,0-2.2,0-3.3c21.7,0,43.5-0.4,65.2,0.2c13.6,0.4,20.3-2.6,21.1-18.7c1.8-37.6,5.4-75.1,9.9-112.4c1.8-14.6-1-19.2-16.2-18
			c-43.3,3.6-86.7,6.4-130,8.6c-12.3,0.6-15.9,6-16.9,17.2c-3.5,37.5-7.3,74.9-12.1,112.2c-1.6,12.5,2.9,14.7,13.8,14.4
			C686.4,657.5,708.1,657.9,729.8,657.9z M781.5,2540.7c34.9-37.5,77.7-59.7,127-71.5c23.2-5.5,45.9-13.2,68.6-20.6
			c27-8.9,48.6-25.4,65.2-48.3c23.1-31.8,12.8-64.6-24.3-77.8c-30.2-10.8-58.1-2.9-82.1,15C865.3,2390.2,820.6,2463.4,781.5,2540.7z
			 M688.9,460.4c41.6-2.6,85.7-5.4,129.9-7.8c9.9-0.5,13.4-4.1,14.1-14.4c2.7-39,6.1-78.1,10.4-117c1.5-13.4-4.2-14.2-14.7-13.6
			c-42.7,2.4-85.5,4.4-128.3,5.9c-9.5,0.3-14.5,2.4-15.5,13c-3.8,40.4-8.2,80.8-13,121.1C670.3,460.1,675.2,463.4,688.9,460.4z
			 M1657.6,2238.7c62.4-10.7,123.6-21.4,180.3-49c9.3-4.5,8.8-9.1,4.2-16.5c-18.3-29.5-36.6-58.9-54.3-88.7
			c-5.1-8.6-9.5-10.1-18.7-5.5c-49.7,24.9-99.6,49.4-149.6,73.5c-9.5,4.6-13.5,8.7-7,19.3c11.3,18.5,21.1,37.8,31.8,56.7
			C1647.4,2234,1649.9,2241,1657.6,2238.7z M1053.2,319.3c2.1-13.7,4-23.2-13-22c-41.9,3-83.9,5.1-125.9,6.4
			c-13.4,0.4-16.6,5.8-17.4,18c-2.6,37.6-6.2,75-9.9,112.5c-0.9,8.9,0.1,13.7,10.9,12.9c44.1-3.2,88.2-6.1,132.3-8.7
			c10.8-0.6,14.9-5.4,15.6-16.1C1047.8,386.9,1050.8,351.5,1053.2,319.3z M1142.8,647.7c0-1,0-1.9,0-2.9c17.4,0,34.8-0.1,52.2,0.1
			c7.3,0.1,11.7-0.9,12.5-10.2c3.7-47,8-94,12.7-140.9c1.2-11.9-3-15.2-14.4-14.2c-31.8,2.8-63.6,5.4-95.5,6.8
			c-13.1,0.6-17.1,6.2-18,18.3c-3,41.2-6,82.5-10.7,123.6c-2,17.6,4,21.4,20,19.8C1115.1,646.6,1129,647.7,1142.8,647.7z
			 M626.5,2782.6c99,66.7,211.5,96.3,279,89.5c-102.5-53.6-167.7-129.8-157.1-253.8C721.3,2683,715.5,2761.3,626.5,2782.6z
			 M1313.7,640.5c12.3,0,24.7-1,36.9,0.3c14.1,1.5,18.8-4.3,19.8-17.6c3.3-45.5,6.8-91,11.4-136.4c1.6-15.7-3.8-18.1-17.9-16.5
			c-23.7,2.7-47.7,4.5-71.6,4.3c-14.6-0.1-18.6,5.4-19.4,18.7c-2,32.5-5.2,65-8.1,97.5C1260.1,643.7,1260,643.7,1313.7,640.5z
			 M1177.2,292.5c0-0.3,0-0.7-0.1-1c-18.1,0.9-36.1,2-54.2,2.7c-9,0.4-14.8,2.5-15.5,13.4c-2.4,36.8-5.5,73.5-8.8,110.3
			c-1,10.8,1,15.8,13.7,14.7c32.4-2.7,64.9-4.6,97.5-5.7c12.2-0.4,16.2-5.5,17.1-16.8c2.7-36,5.7-72.1,9.4-108
			c1.2-11.8-3.9-13.5-13.7-12.6C1207.6,290.8,1192.4,291.5,1177.2,292.5z M1168.6,239.2c24.3-1.6,42.4-2.8,60.4-3.8
			c6.7-0.4,12.5,0.3,13.2-9.6c2.3-33.9,5.3-67.8,8.7-101.6c1.3-13-3.9-16.1-15.9-14.9c-32.4,3.3-64.8,6.3-97.3,8.5
			c-12.5,0.8-15.8,7.3-16.4,18c-1.1,18-2.5,36.1-4.3,54.1c-5,51.2-5.1,51.2,47,49.4C1167.6,239.1,1171.2,239.2,1168.6,239.2z
			 M980.8,249.6c0-0.7,0-1.5,0-2.2c21.7-1.1,43.3-2.9,65-3c10.4-0.1,13.8-3.8,14.5-13.6c2-28.1,4.2-56.2,7.5-84.2
			c2-16.9-5.7-17.8-18.6-14.5c-28.6,7.4-57.4,14.1-86,21.7c-51.7,13.7-51.7,13.9-57.3,66.8c-0.5,4.3-0.7,8.7-1.8,12.9
			c-3.6,14.4,3,17.1,16,16.5C940.3,248.8,960.5,249.6,980.8,249.6z M1895.9,2153c1.9-1,4-1.8,5.6-3.1
			c45.7-36.2,76.2-82.9,93.3-138.1c3.6-11.7-6.8-22.1-13.8-30.5c-6.7-8.1-14.4,1.6-20.8,4.7c-39.1,18.7-77.8,38.3-117.1,56.6
			c-11.3,5.3-13.2,9.8-6.3,20.4c16.9,26.1,32.7,52.9,49.1,79.3C1888.4,2146.3,1890.1,2151.6,1895.9,2153z M944.2,702.7
			c0,1.1,0,2.3,0,3.4c-22.5,0-45,0.1-67.4-0.1c-8.2-0.1-13.5,1.4-13.9,11.7c-0.7,18.8-2,37.7-4.7,56.3c-1.7,11.8,3.5,15.3,13.5,17
			c43,7.2,86.3,11.2,130,9.7c8-0.3,13.5-1.7,14.1-12c1.3-24.6,3.4-49.2,5.8-73.7c1-9.9-2.8-12.7-12.2-12.5
			C987.7,703,965.9,702.7,944.2,702.7z M1342.8,283.7c-9.7,0.6-24.9,1.6-40.1,2.7c-5.8,0.4-11.9,0.2-12.5,8.5
			c-2.9,39-5.9,78-9.1,117c-0.8,10.5,5.7,9.6,12.6,9.1c26-1.9,52-4.2,78.1-5.4c12.5-0.6,18-4.9,18.3-18.1
			c0.6-22.4,3.4-44.8,4.4-67.2c0.7-15.5,11.8-36.1,0.2-45.1C1384.7,277.7,1364.2,283.7,1342.8,283.7z M2017.3,1328.3
			c-6.9-46.7-16-94.8-38.4-139.4c-5.2-10.2-9.7-9.9-18-4.2c-19.6,13.5-39.1,27.3-59.7,39.2c-11.4,6.6-11,12.1-4.7,21.9
			c21.8,34,42.7,68.7,64.5,102.7c4.5,7,4.5,20.2,17.9,17.9C1993.2,1364.1,2017.4,1340.6,2017.3,1328.3z M2022.1,1688
			c-35.9,21.4-68.6,40.7-101.1,60.3c-10.2,6.2-1.8,12.8,1.2,18.2c23.2,41.6,46.6,83.1,70.4,124.5c3.1,5.4,4,15.2,14.9,11.7
			c9.1-2.9,11.5-9.7,12.1-18.3C2024.2,1820.3,2020.8,1756.2,2022.1,1688z M1568.9,1623.5c1.2,1.4,2.5,2.7,3.7,4.1
			c48.9-31.4,97.9-62.9,146.8-94.3c4.1-2.6,6.5-5.3,3.5-10.5c-19.6-34.2-39-68.5-60.2-105.8
			C1636.2,1491.1,1605.9,1558.9,1568.9,1623.5z M1424.6,614.6c49.8-44,90.7-87.8,130-133.2c4.4-5,8.7-9.8,4.3-17.2
			c-3.5-5.8-8.4-7-14.7-6.6c-31.7,2.3-63.5,4.5-95.3,6.4c-7.9,0.5-11.6,4.1-12.3,11.9C1432.9,520.4,1429,564.8,1424.6,614.6z
			 M595.6,659.6c5-44.5,9.6-84.6,14-124.7c0.9-7.9,2.9-16.3-10.6-15.2c-38.6,3.2-77.3,5.8-119.3,8.8
			C512.1,578.6,549.2,620.2,595.6,659.6z M1200.8,714.9c3.8-14.6-2.3-17.2-13.3-16.7c-32.6,1.5-65.3,2.9-97.9,3
			c-11.2,0-13.2,4.7-13.8,14c-1.5,21.7-3.2,43.4-5.9,65c-1.5,11.8,3.2,14.1,13.3,12.1c35-6.7,69.4-15.3,102.9-27.4
			c7.5-2.7,12.3-6.5,12.4-15.4C1198.7,737.2,1200.1,724.9,1200.8,714.9z M1783.3,1061.7c25.5,41.4,48.6,78.8,71.5,116.2
			c3.6,5.9,7.1,8.2,13.8,3.7c21-14.1,42.2-27.9,63.5-41.5c7.1-4.5,8.5-8.5,1.8-14.9C1893.2,1086.3,1845.5,1063.6,1783.3,1061.7z
			 M1702.2,1290c38.1-24.9,71.3-46.5,104.5-68.2c4.4-2.9,8.6-6,4.8-12.1c-22.2-35.9-44.5-71.8-69.9-112.8
			C1731.9,1164.3,1717.5,1224.2,1702.2,1290z M629.4,341.6c-48.1,36.4-85.1,79.5-120.1,130.4c35.4-2.2,65.6-4.3,95.9-5.8
			c7.8-0.4,12.1-3.1,12.9-11.1C621.8,417.3,625.6,379.5,629.4,341.6z M675.3,708.6c-0.3,2.3-0.6,4.6-0.9,6.9
			c29.1,19.5,61,33.7,93.6,46.4c35.5,13.9,35.5,13.6,38.7-23.4c0.5-6.5,1.5-12.9,2.5-19.3c1.2-7.5-2.2-10.6-9.5-10.6
			C758.2,708.6,716.8,708.6,675.3,708.6z M1304.5,129.1c-3.1,34.6-5.6,63.8-8.4,93c-0.6,6.3,1.3,10.3,7.8,9.8
			c27-2.3,54.5,1.3,85.1-5.3C1360.6,193.7,1334.2,163.2,1304.5,129.1z M1451.2,307.6c-3.1,34.2-5.8,63.4-8.4,92.6
			c-0.6,6,1.1,9.5,8.1,9.5c22.7-0.1,45.2-1,69.9-5.8C1498.3,370.6,1478,340.1,1451.2,307.6z M734,256c39.6,2.5,72.5-1,105.5-3.2
			c5.6-0.4,9.9-1.3,10.3-8.1c1.1-16.2,2.4-32.4,3.9-51.2C812,210.5,775,229.7,734,256z M1559.1,2245.3c32.7-0.2,32.7-0.2,17.5-28
			c-2.8-5.1-4.7-10.8-8.4-15c-5.2-5.9-4.2-22.3-18-14.8c-12.1,6.5-33,5.3-28.5,30.1C1526.9,2245.3,1525.7,2245.5,1559.1,2245.3z
			 M1435,1975.1c1.8-1.3,3.7-2.6,5.5-3.9c-16.9-31.1-33.9-62.3-51.8-95.3c-7.2,10.4-25.7,17.7-17.3,27.3
			C1392.4,1927,1414.9,1950,1435,1975.1z M1468.5,2021.3c14.2,38.5,29.7,76.2,39.7,115.9c2.2,8.6,7.4,7.1,13.2,4.3
			c5.4-2.7,10.6-5.3,6.4-12.9C1507.9,2092.8,1488.2,2057,1468.5,2021.3z M1255.5,733c21.7-10,40.8-19.6,60.4-35.9
			c-12.6,0-21.1-0.2-29.5,0C1255,697.8,1255,697.8,1255.5,733z M2020.9,1441.4c0-11.8,0-22.7,0-33.9
			C1999.2,1415.4,1999.2,1417.2,2020.9,1441.4z"/>
		<path class="st0" d="M770.6,1346.1c0-73.1,45.7-126.3,115.7-134.6c82-9.8,150.8,35.7,167.9,111.1c20.4,90.5-30.4,178-114.2,194.9
			c-57.2,11.5-100.3-12.1-133.1-57.4C782.4,1426.3,770.5,1388,770.6,1346.1z M823.9,1346.5c-0.1,33.3,12,66.3,33.6,91.7
			c29.6,34.8,74.8,38.7,109.9,9.3c40.1-33.5,50.1-100.8,21.4-144.4c-21.6-32.9-67.8-47.8-110.3-35.5
			C842.6,1278.1,823.9,1305,823.9,1346.5z"/>
		<path class="st0" d="M1261.7,2360.1c0.1-60.8-12.6-118.6-47.3-169.2c-56.2-81.9-139.5-103.5-231.8-92.9
			c-169.2,19.4-292.7,107-368.9,259.7c-6.7,13.5-13.1,10.7-23.4,6.4c-33.7-14.1-34.9-14.3-17.4-45.4
			c97.5-173.8,244.2-270.8,445.2-275c160-3.3,272.6,97.2,292.8,257.4c15.9,126.3-14.2,239.7-108,330.3
			c-45.6,44.1-101,69.6-165.1,75.4c-14,1.3-20.8-1.3-18.9-16.5c0.5-4.3,0.5-8.8-0.2-13c-2.7-17.3,3.9-22.3,21.8-25
			c94.6-14.3,155.8-71.5,193.3-156.7C1252.8,2452.6,1261.2,2407.1,1261.7,2360.1z"/>
	</g>
</g>
</svg>
