<?xml version="1.0" encoding="utf-8"?>
<!-- Generator: Adobe Illustrator 23.0.0, SVG Export Plug-In . SVG Version: 6.00 Build 0)  -->
<svg version="1.0" xmlns="http://www.w3.org/2000/svg" xmlns:xlink="http://www.w3.org/1999/xlink" x="0px" y="0px"
	 viewBox="0 0 3000 3000" style="enable-background:new 0 0 3000 3000;" xml:space="preserve">
<style type="text/css">
	.st0{stroke:#000000;stroke-width:10;stroke-miterlimit:10;}
</style>
<g id="Layer_1">
</g>
<g id="Layer_2">
	<g>
		<path class="st0" d="M417.5,1499.8c0-262-0.5-524.1,0.1-786.1C418.3,399,632.2,130.6,938.9,58.9c49.7-11.6,100.2-16.8,151.3-16.7
			c290.1,0.2,580.3-0.3,870.4,0.2c337.2,0.6,618.2,244.6,666.6,578.4c4.7,32.3,6.2,64.9,6.2,97.7c-0.2,521.8,0.1,1043.6-0.2,1565.4
			c-0.2,327.1-222.7,598.5-543.7,664c-43.3,8.8-87.1,12.2-131.3,12.2c-290.1-0.1-580.3,0.5-870.4-0.2
			c-335.3-0.8-617.1-246.5-664.3-578.4c-4.8-33.8-6.1-68-6.1-102.2C417.6,2019.4,417.5,1759.6,417.5,1499.8z M2577.9,1255.2
			c0-178.5-0.1-357,0-535.5c0-39.6-3.1-79-10.5-117.8C2510.5,307,2258.2,98.1,1958.1,97.7c-288.6-0.4-577.3-0.3-865.9,0.1
			c-28,0-56.3,1.5-84,5.4c-309.5,43.5-534.9,302.2-535.3,614.6c-0.4,351.7,0.1,703.3-0.6,1055c0,22,6.4,26.1,26.7,24.5
			c132.1-10.6,263.8-6,395.5,8.3c97.6,10.6,160.1,60.8,189.7,154.1c11.3,35.5,18.3,72,26.6,108.1c26.4,115.6,88.1,205.8,192.4,263.9
			c107.2,59.6,221.9,79,343,57.9c116.6-20.3,202.9-80.5,250.3-191.5c12.8-30,24.4-60.5,33.9-91.7c10.7-35,25-68.4,42.2-100.6
			c37.6-70.4,95.9-115.8,172.7-133.9c134.5-31.7,270.9-44.4,408.8-29.7c19,2,24.3-2,24.2-21.9
			C2577.6,1632,2577.9,1443.6,2577.9,1255.2z M617.7,1847.5c-37.2-1.6-79.5,4.1-122,4.8c-19.1,0.3-23.6,8-23.4,26.1
			c1,70.6-0.2,141.2,0.6,211.8c1,85-4.5,170.1,3.3,254.9c28.5,312.2,290.9,554.8,603.6,559.9c21.9,0.4,27.8-7.4,31-26.8
			c8.7-52.3,19.5-104.2,29.5-156.3c23.3-122,46.7-243.9,70-365.9c1.8-9.7,3-18.3-6.8-26.4c-81.1-67.2-126.2-155.4-149-256.8
			c-9.1-40.6-16.1-81.9-32.8-120.4c-20.8-48-55.6-78.6-108.3-86.9C817.3,1850.4,720.4,1846.4,617.7,1847.5z M2577.9,2133.5
			c0-78.9-0.9-144.3,0.5-209.5c0.4-20.1-6.1-25.1-25.2-26.9c-125-11.9-248.3-1.1-371.1,23.2c-72.8,14.4-129.2,50.2-163.6,117.5
			c-15.2,29.8-26.7,61-37.2,92.7c-26.4,79.6-55.3,158-120.5,215.9c-8.7,7.8-6.1,15.3-3.9,24.5c41.5,171.4,83.1,342.8,123.5,514.4
			c3.7,15.9,9.4,18.8,24.2,17.6c73.3-5.9,144.2-21.7,210.4-53.9c209.9-102.3,331.4-268.8,359-501.6
			C2583.1,2271.8,2575.6,2195.7,2577.9,2133.5z M1429.7,2692.6c-2.5,54-5.4,123.8-9.5,193.5c-0.9,16,4.8,18.8,19,18.7
			c57-0.6,113.9-0.8,170.9,0.1c15.7,0.3,19-5.5,19-19.7c-0.4-139-0.5-278,0.1-417c0.1-17.3-5.8-19.9-21.3-17.7
			c-47.8,6.7-95.5,3.2-142.8-5c-15.7-2.7-22.9-1.3-23.6,17.6C1438.7,2534.4,1434.3,2605.6,1429.7,2692.6z M1684.9,2671.1
			c0,69.9,0.6,139.7-0.4,209.6c-0.3,18.3,3.5,24.9,23.3,24.3c51.6-1.5,103.3,0,154.9-0.8c20.8-0.3,47.9,9.3,60.4-4.7
			c7.7-8.6-6.1-36.3-10.2-55.4c-0.2-0.7-0.1-1.5-0.3-2.3c-34.9-145-70-289.9-104.4-435c-3.4-14.2-7.9-15-19.4-8.1
			c-26.8,16-55.4,28.9-85.9,35.6c-15.8,3.4-18.3,10.8-18.2,24.9C1685.2,2529.9,1684.9,2600.5,1684.9,2671.1z M1376.1,2644.7
			c2.8-53.3,6.6-125.3,10.5-197.2c0.5-9.9,2.7-18.7-11.2-23c-34.8-10.9-67.9-26.2-99.8-43.8c-9.2-5.1-12.9-4-14.7,7.2
			c-4.5,27.6-10.2,55.1-15.4,82.6c-26.5,138.3-53,276.6-79.8,414.8c-2.8,14.3,0.2,19.9,16.4,19.6c53.9-1,107.8-1.1,161.7,0.1
			c16.9,0.4,20.2-6.5,20.8-21C1367.8,2810.5,1371.6,2737,1376.1,2644.7z"/>
		<path class="st0" d="M1568.4,189.9c135.6,2.9,261,46.7,362.4,148.1c162.4,162.3,163.7,404.6,4.1,570
			c-194.5,201.5-551.3,201.3-745.3-0.3c-182.1-189.3-150-473.9,70.6-625.5C1351.3,219.7,1452.8,191.5,1568.4,189.9z M1303.2,927.1
			c8.5-142.9,51.5-271.5,133.5-386.2c82.2-115.1,190.9-197,324.2-251.8c-6.7-3.7-9.1-5.3-11.7-6.5c-163-73.1-378.4-37.1-507.9,86.9
			C1057.7,545.5,1109.1,805,1303.2,927.1z M1997.8,629.8c-2.3-57.6-11.5-98.7-27.9-138.4c-5.5-13.2-10.5-16.5-24.4-9.6
			c-211.8,106-347.9,273-408,502.3c-4.1,15.5-1,19.9,14.9,19.9c115.4,0.1,220.5-30.8,309.9-105.4
			C1950.4,825.1,1998.2,731.4,1997.8,629.8z M1360.1,922.3c-1.7,41.5-9.6,35.3,33.1,51.3c18.4,6.9,38,10.6,56.5,17.3
			c20.9,7.5,30.3,3.3,34.8-20.5c10-53.1,29.1-103.6,52.6-152.2c82.5-170.5,207.3-299.5,378-382.8c15.5-7.6,16.5-12.6,5.7-25.5
			c-22.1-26.3-46.7-49.6-73.2-71.5c-13.5-11.2-25.4-11.3-41.3-5.8C1550.2,420.3,1377.1,648.7,1360.1,922.3z"/>
		<path class="st0" d="M919.6,1205.1c-40.2,0-72.2-31.7-72.5-71.7c-0.3-40,33.9-74.1,73.9-73.6c39.8,0.5,71.6,32.7,71.8,72.7
			C992.9,1174.2,961.7,1205.1,919.6,1205.1z"/>
		<path class="st0" d="M1526.6,1341.7c-40.5,0.2-72.5-30.6-73.3-70.7c-0.9-39.9,32.9-74.4,73-74.5c39.6-0.1,72.2,32,72.7,71.8
			C1599.5,1310.2,1568.6,1341.5,1526.6,1341.7z"/>
		<path class="st0" d="M812.6,1542.2c-41.9-0.3-72.6-31.8-71.9-73.7c0.7-39.8,33.4-71.8,73-71.4c39.2,0.4,72.2,33.3,72.6,72.6
			C886.8,1510.4,854.1,1542.5,812.6,1542.2z"/>
		<path class="st0" d="M2029.8,1035.9c40.5,0.7,70.9,32,70.6,72.8c-0.3,40.8-34.3,73.7-74.5,72.3c-39.4-1.3-71.8-34.9-71.2-74
			C1955.2,1066.2,1987.8,1035.3,2029.8,1035.9z"/>
		<path class="st0" d="M2174.3,1510.3c-40.7-0.6-71-31.7-70.8-72.6c0.2-40.9,33.8-73.8,74.2-72.5c39.4,1.2,71.9,34.7,71.5,73.7
			C2248.8,1479.9,2216.2,1511,2174.3,1510.3z"/>
		<path class="st0" d="M1538.9,1605.6c40,0.1,72.1,32.1,72.2,72c0.1,40-34.3,74-74.2,73.3c-39.8-0.7-71.4-32.9-71.5-73
			C1465.4,1636.2,1496.7,1605.4,1538.9,1605.6z"/>
		<path class="st0" d="M1535.5,2143.9c-40.2,0.1-72.3-31.1-73.1-71c-0.8-39.8,33.3-74.3,73.2-74.3c39.7,0,72,32.1,72.4,72.1
			C1608.5,2112.5,1577.6,2143.8,1535.5,2143.9z"/>
	</g>
</g>
</svg>
