<?xml version="1.0" encoding="utf-8"?>
<!-- Generator: Adobe Illustrator 23.0.0, SVG Export Plug-In . SVG Version: 6.00 Build 0)  -->
<svg version="1.0" xmlns="http://www.w3.org/2000/svg" xmlns:xlink="http://www.w3.org/1999/xlink" x="0px" y="0px"
	 viewBox="0 0 3000 3000" style="enable-background:new 0 0 3000 3000;" xml:space="preserve">
<style type="text/css">
	.st0{stroke:#000000;stroke-width:10;stroke-miterlimit:10;}
</style>
<g id="Layer_1">
</g>
<g id="Layer_2">
	<g>
		<path class="st0" d="M1639.2,2274.7c-32,80.1-78.3,143.6-147.4,189.4c-204.7,135.6-491.7,39.7-578.3-195.1
			c-46.4-125.9-28.3-248.2,31-365.9c42.7-84.7,105-153.5,178.4-212.7c9.3-7.5,15.5-11.1,3-24c-168.2-171.8-214.4-372.7-131.1-598.1
			c68.5-185.3,200-314.1,377.6-399c117.9-56.3,241.8-84.2,371.1-93.5c136.9-9.8,273.7-17.2,411-9c183.4,11,361.3,44.4,531,118.3
			c205.8,89.6,271.6,277.4,265.1,444.1c-6.1,155.7-83.1,275.2-196.5,373.5c-108.2,93.7-229.3,166.2-369.4,202.7
			c-15.2,4-19.1,11.5-19.1,26.3c0.4,67.7,52,119.3,124.9,124.4c54.9,3.9,107-11.5,159.9-21.7c40-7.7,80-14.6,121.2-7.8
			c66.2,10.9,105,46.5,107.9,112.9c4.9,116.4-10.7,229.9-68.9,333.8c-58.9,105-153,156.1-269,170.4
			c-147.4,18.1-295.6,16.2-443.7,11.7c-67.3-2-134.7-3.8-201.4-15C1788.4,2422.2,1695.5,2380.2,1639.2,2274.7z M2744.4,1458.6
			c-29.5-13.8-57.9-24.6-82.2-43.3c-31.6-24.4-46.9-55-43.2-95.7c3.5-39.9,19.9-75.4,34-111.7c18.5-47.5,21.2-94.7-2.3-141
			c-25.8-50.9-66.2-86.5-118.2-109.4c-56.3-24.8-115.9-31.9-176.6-33.1c-128.7-2.6-257,3.5-384.6,19.3
			c-103.3,12.8-206.3,27.4-306.8,56.3c-105.9,30.4-183,92.6-223.2,197.4c-10.1,26.2-22.9,51.4-35.7,76.5
			c-41.5,81.6-106,131.6-198,145c-56.4,8.3-112.5,6.1-168.7-0.5c-16.9-2-23,0.7-15.9,19.2c12,31.5,25.3,62.4,42.5,91.4
			c63.6,106.6,149.6,181.5,278.2,197.5c70.9,8.8,142,11.9,213.3,13.9c225.6,6.3,450.5,10.1,673.5-39
			c140.3-30.9,276.5-67.2,396.1-150.8C2667,1522.3,2706.9,1493.8,2744.4,1458.6z M2273.5,883.8c15.7,0,31.4-0.3,47,0.1
			c79.3,1.9,158,6,232.2,39.7c133,60.5,182.7,180,130.2,315.3c-8.5,21.8-16.8,43.9-22.5,66.6c-9.9,39.9,0.7,63.5,35.7,85.6
			c18.6,11.8,39.1,19.4,59,28.5c17.3,7.9,26.4,2.9,37.6-9.9c95-109,137.1-234.2,113.5-378.2c-20.8-126.4-80-228.2-197-289.8
			c-131.3-69.2-273-103.3-418.9-123c-125.5-16.9-251.6-19.1-377.8-13.6c-124.4,5.4-249.7,7.6-370.4,42.4
			c-219.4,63.2-396.2,181.4-495.2,395.9c-45.7,99.2-63.9,202.5-45.6,311.3c2.5,14.8,7.4,21,22.8,22.9c47.6,5.9,95.2,9.9,143,7
			c98.4-5.9,171-50.3,210.6-143.3c11-25.9,24.4-50.8,35.6-76.7c41.5-96.7,113.6-159.6,212.4-192.9c27.4-9.2,55.2-17.7,83.4-23.9
			C1895.1,906.7,2083.4,887.5,2273.5,883.8z M1292.6,1757.6c-41.7-12-80.8-25.6-114.9-50c-9-6.5-14.5,0.9-20.4,5.5
			c-41.7,32.3-80,68.2-112.9,109.4c-89.9,112.9-137.5,238.4-108.2,384.6c30.2,150.7,163.9,266.7,318.3,278.3
			c159.1,12,293.3-75.2,348.6-227.1c8.3-22.7,15.7-45.4,10.4-70.8c-13.5-64.5-8.3-129.4-2.8-194.3c5.4-63.2,11.2-126.5,6.8-190.1
			c-1.1-15.2-5.1-22.9-23.5-23.1c-79.9-0.8-159.9-2.7-239.3-13c-9.3-1.2-16.3,0.9-23,7.8c-30.2,31.3-54.7,66-71.4,106.6
			c-34.6,83.8-6.9,186.7,64.7,226.3c17.5,9.7-0.5,19.6-2.4,29.2c-2.5,12.5-10.6,8.3-17.7,4c-24.4-14.7-45.7-32.9-61.1-57
			c-50.4-78.6-48.4-159.4-9.3-241.5C1248.9,1811.8,1269.9,1785.4,1292.6,1757.6z M2241.8,2416.2c1.8,1.1,3,2.5,4.2,2.5
			c111.1-2.5,222.7,1.4,332.5-21.8c73.3-15.5,134.7-50.9,178.2-113c73.8-105.4,87.3-226,83.1-349.9c-1.1-31.2-20.5-53.2-51.7-63.1
			c-42-13.3-83.8-7.3-125.5,0.9c-52.7,10.4-104.7,23.2-159.2,24.2c-93.2,1.8-172.9-65.2-175.3-153.5c-0.6-22.2-8.6-21.7-24.8-18.3
			c-59.7,12.5-119.4,25.1-179.5,35.7c-16.5,2.9-21.6,7.4-21.7,24.5c-1.1,189,162.1,344,354.4,336.3c57.5-2.3,111-17.2,160.5-46.3
			c10.1-5.9,18.6-7.4,22.7,7.4c3,11,12.9,19.5-5.5,29.3c-73.5,39-150.7,57-233.3,45.8c-23.3-3.2-32.7,3.7-38.9,25.7
			c-23.8,83.7-59.8,161.4-118,227.5C2242.7,2411.8,2242.5,2414.3,2241.8,2416.2z M1816.3,1781.7c-47,0-93.9,0.8-140.9-0.4
			c-17-0.4-21.7,4.6-19.7,21.1c6.5,54,0.4,107.8-3.5,161.6c-4.3,59.3-11.2,118.6-5.9,178.2c7.7,86.4,36.6,161.5,114.6,209.7
			c56.7,35,119.5,49.2,184.9,55c9.6,0.8,16.2-3.3,23-9.1c98.6-84.8,176.7-185.6,235.7-301.4c5.2-10.1,4.1-15.5-4.8-23.2
			c-85.9-74.8-131.7-169.4-136.8-283.2c-0.7-16.9-5.5-20.9-21.8-18.8C1966.7,1781.3,1891.5,1782.5,1816.3,1781.7z M2018,2407.1
			c0.3,3.4,0.6,6.7,0.9,10.1c40.5,0,81.2-2.4,121.4,0.8c29.8,2.4,51.5-6,69.3-28.7c5.8-7.4,12.5-14,18.4-21.3
			c48.8-60,76.1-130.4,99.9-202.9c5.7-17.3,1.3-22.7-14.7-27.5c-17.1-5.1-34-12.3-49.3-21.5c-15.5-9.4-22.4-8.2-30.9,9.1
			c-28.8,58.4-64.8,112.4-105.2,163.6C2094.5,2331.2,2057.1,2369.9,2018,2407.1z"/>
		<path class="st0" d="M249.8,1143.3c-97-56.4-156-139.3-179-246.5c-28-130.6,8.7-245.8,95.1-344.4
			c106.9-122,245.4-168.6,404.9-156.6c87.9,6.6,171.1,30.7,244.8,80.7c59.2,40.2,83.9,99.7,68.7,159.5
			c-7.3,28.8-24.4,48.1-52.4,58.5c-36.7,13.7-75.5,12.6-113.4,17.7c-31.5,4.2-58.8,16.4-80,40.3c-25.4,28.7-24,59.2,5.1,84.4
			c14.1,12.2,30.2,22.3,45.9,32.7c96.5,64.2,103,180.1,14.1,255.6c-18,15.3-37.9,28.1-60,36.4c-13.7,5.1-13.2,10.6-6.7,21.9
			c33.6,58.2,52.6,120.3,46.6,188.5c-5.9,67.2-33.3,123.3-87.1,167.2c13.6,10.5,27.6,19.3,39.1,30.5
			c86.2,83.3,100.5,183.6,67.1,294.1c-20.5,67.8-59.1,125.8-102.2,181.1c-16.4,21.1-31.3,43-37.7,69.7c-11,45.8,9.6,79.1,56.3,88.1
			c24.6,4.7,49.7,6.7,74.4,10.7c67.7,10.7,125.8,38.6,165.3,96.8c51.6,76.2,40.6,201.4-75.6,238.2
			c-190.3,60.3-374.7,44.5-547.7-58.3c-90.5-53.8-130.3-141.6-141.4-242.7c-25.8-235.3,45.3-442,188.9-626.6
			c3.8-4.9,7.7-9.8,11.4-14.8c0.4-0.5,0.1-1.5,0.2-3.4c-21.5-5.4-44-8.1-64.5-18.3c-71.1-35.5-112.4-120.2-101.3-205.8
			c9.9-76.6,46.3-140.4,92.7-199.8C230.6,1166.7,240,1155.4,249.8,1143.3z M582.9,2542.7c30.4,1.7,70.2-2.9,109.5-10.4
			c24.5-4.7,49.1-10.4,72.7-18.7c86.3-30.2,111.3-122.5,52.8-193.3c-35.5-42.8-83.2-62.2-137-69.5c-21.7-2.9-43.7-4.7-65.1-9.2
			c-81.7-16.9-116.2-84.8-83-161.9c15.4-35.8,41.4-64.4,63.6-95.6c44.6-62.8,79.5-130,82.7-208.8c3.5-85.5-27.9-154.4-102.8-200.2
			c-10.7-6.5-21.8-11.1-35.4-5.2c-54.2,23.3-111.8,29.7-169.9,31.2c-14.7,0.4-24.7,4.8-34.1,15.9
			c-150.7,178.7-226.9,382.1-205,617.8c10.9,117.1,67,203.2,176.8,251.4C393.1,2523.6,480.9,2543.2,582.9,2542.7z M473.2,1149.7
			c13.3,0,26.7,0.9,40-0.2c60.7-4.9,119.8-14.8,168.1-57c63.4-55.4,58.5-142.1-11-188.7c-16.9-11.3-34.2-22.3-49.7-35.4
			c-48.4-40.8-52.3-97.6-9.5-144.1c20.2-22,45.3-37.6,74.8-45.5c31.3-8.3,63.4-10.9,95.3-12.8c72-4.4,77.1-51.4,60.2-101.7
			c-5.8-17.3-18-31.2-31.8-43.1c-18.5-16-39.1-28.8-61.3-38.9c-97.3-44.5-198.7-60-304.7-42.7c-206.9,33.9-339.1,210.3-343,369.6
			c-2.9,118.8,67.5,247.9,174.1,301.5C337.3,1142.3,404.5,1149.8,473.2,1149.7z M346.9,1562.3c44,0.8,87.6-3.1,130.5-12.9
			c77.6-17.8,136.6-58,159.1-138.6c22.7-81.2,0.2-154.3-42.7-223.4c-6.6-10.6-14.3-6.2-22.4-5.1c-78.2,11-157.5,14.6-232.9-8.9
			c-43.7-13.6-65.3-2.1-88.9,31.5c-40.5,57.6-77.8,115.9-82.2,188.7c-4.5,74,32,161.5,137.3,168.6
			C318.7,1563.2,332.8,1562.3,346.9,1562.3z"/>
		<path class="st0" d="M2048.9,964.3c0,30.6,0.3,54.6-0.1,78.7c-1.5,103.5-3,206.9-5.2,310.4c-0.3,14.1,2.9,20.1,18,23.6
			c94.3,21.6,174.7,67.9,238.4,141.3c5.7,6.6,23.5,13.2,5.5,26.9c-12.5,9.5-19.6,17-34.6-0.3c-200.8-229.7-565.9-165.4-676.1,118.9
			c-6.9,17.9-13.9,16.7-28.8,12.6c-19.1-5.2-13-15.2-8.6-26.4c44.4-112.4,122.3-193.6,231-245.2c14.4-6.8,23.8-15.7,31.4-29.3
			C1894.9,1240,1970.5,1104.9,2048.9,964.3z M1863.4,1377.7c46.2-11.4,88.1-13,130.2-11.3c13.2,0.5,9.9-9.2,10.1-16.3
			c1.5-61.7,2.9-123.4,4.2-185.1c0.3-12.6,0-25.3,0-37.9c-1.5-0.2-3-0.3-4.4-0.5C1958,1208.2,1912.5,1289.8,1863.4,1377.7z"/>
		<path class="st0" d="M2385.2,1162.1c0.1,42.4-36.3,77.1-80.9,77c-43.9-0.1-79.5-36.4-79.7-81.2c-0.2-46,34.7-82.1,78.9-81.6
			C2347.8,1076.9,2385,1116,2385.2,1162.1z M2346.1,1162.5c0.6-22.6-19.8-45.3-41.3-46.1c-23.2-0.8-41.5,17.4-41.5,41.2
			c0,22.6,16.9,40.3,39.5,41.3C2326.3,1200.1,2345.6,1183.9,2346.1,1162.5z"/>
		<path class="st0" d="M1640.2,1194.6c0.1-39.3,28.8-68.8,67.3-69c44.3-0.3,80.6,33.2,80.4,74.3c-0.1,37.9-34,71.5-72.5,72.1
			C1675.1,1272.6,1640.1,1236.6,1640.2,1194.6z M1707.9,1164.4c-16.9,0.5-29.4,15-28.6,33c0.8,18.9,18.5,35.2,37.2,34.2
			c17.6-0.9,33.3-17,32.6-33.3C1748.2,1180.8,1727.6,1163.7,1707.9,1164.4z"/>
		<path class="st0" d="M1922.3,1697.7c-40.4,0.3-60.8-19.4-61.5-59.5c-0.8-45.2,22.5-74.8,58.9-74.8c39.2,0,69.6,30,70.2,69.4
			C1990.6,1675.2,1967.6,1697.3,1922.3,1697.7z M1922.4,1658.1c22-0.2,29-6.4,28.7-23.7c-0.2-17.3-15-33.8-30.6-32
			c-20.4,2.3-19,19.1-20.3,33.8C1898.6,1654.3,1907.7,1660.3,1922.4,1658.1z"/>
	</g>
</g>
</svg>
