<?xml version="1.0" encoding="utf-8"?>
<!-- Generator: Adobe Illustrator 23.0.0, SVG Export Plug-In . SVG Version: 6.00 Build 0)  -->
<svg version="1.0" xmlns="http://www.w3.org/2000/svg" xmlns:xlink="http://www.w3.org/1999/xlink" x="0px" y="0px"
	 viewBox="0 0 3000 3000" style="enable-background:new 0 0 3000 3000;" xml:space="preserve">
<style type="text/css">
	.st0{stroke:#000000;stroke-width:10;stroke-miterlimit:10;}
</style>
<g id="Layer_1">
</g>
<g id="Layer_2">
	<g>
		<path class="st0" d="M56.5,1655.4c4.3-167.4,13.9-334.4,27.4-501.3c8-98.2,19.4-195.7,37.7-292.6
			C157.2,673.6,272.9,546,433.1,455.8c235.7-132.7,507.1-86,710.1,91.3c31.3,27.3,30.6,28.1,60.5-2.5
			c97.1-99.4,214.9-151.3,354-151.6c274.2-0.6,548.3-1.8,822.5,0.4c251.7,2,451.7,182.6,482.5,431.1c2.5,20.3,2.5,41,2.6,61.5
			c0.2,154.3-0.2,308.6,0.2,463c0.4,139.3-48.5,258-147.8,355.5c-13.6,13.3-9.8,19.2,1.7,30.1c104.5,99.6,179.7,216.6,210.9,359.4
			c40.4,185.2-26.4,356-182.9,464.7c-63.8,44.3-131.9,79.2-211.4,83.2c-83,4.2-125.9-35.4-130.3-118.2c-2.5-47.7,4.1-95,7.7-142.4
			c3.8-49.9,8.3-99.9-2.6-149.5c-11.8-54.3-54.5-95.2-108.4-104.5c-27.3-4.7-39.9,3.9-45.7,31c-6.6,30.5,1.9,58.2,29.5,71.7
			c70.4,34.7,80.2,96.5,63,165.2c-28.2,112.2-100.9,182.8-207.3,222.1c-88.1,32.6-179.8,43.6-272.8,46.1
			c-163.8,4.3-326.6-1.5-484.9-50.2c-83.3-25.6-160.5-62.7-222.3-126.1c-10.4-10.7-16.1-4.6-24.3,1.4
			C1044.5,2556.2,943,2607,831,2633.7c-252.7,60.4-466.8-7.5-640.8-200c-62.2-68.8-87.9-154.5-104.3-243.4
			C53.2,2013.3,54.7,1834.3,56.5,1655.4z M1967.9,1799.6c0,0.4,0,0.8,0,1.2c139.5,0,279.1,0.8,418.6-0.2
			c235.1-1.6,432.8-194.2,437.3-429.4c3.2-169.1,3.2-338.3,0-507.3c-4.5-237.3-204.3-429.4-442.1-429.4c-276.7-0.1-553.3,0-830,0
			c-13.1,0-26.4-0.1-39.3,1.5c-236,28.7-400.9,214.7-401.3,452.6c-0.2,146.9,0,293.9-0.1,440.8c0,26.3,1.1,52.4,3.7,78.6
			c20.3,206.1,200.2,382.4,407.6,390.3C1670.6,1804.1,1819.4,1799.6,1967.9,1799.6z M1070.6,1056.8c1.7-66.3-3.1-147.5,2.6-228.7
			c0.8-11.5-3.8-13-13.4-14.8c-26-4.9-52.2-5.7-78.4-6.6c-186.8-6.5-329,84.8-398.4,257.8c-42.2,105-63.7,215.9-71.9,327.8
			c-11.6,159-3.5,318.6,19,476.3c35.5,248.9,293.6,377.2,517,261.5c11.1-5.7,15.4-12.1,15.8-24.3c2.8-78.9,17.3-153.5,47.7-228.8
			c45.7-112.8,39.2-231.1-7.1-345.6c-4.7-11.7-11.8-16.2-23.5-17.5c-44.3-5-84.6,28.6-87.3,73.9c-1.3,22.9,0.6,46-4.4,68.7
			c-8.7,39.8-53.4,77-102.2,84.7c-36.4,5.8-67.8-13.3-90.9-53.6c-23.4-41-27.1-85.6-24.4-131.1c4.1-70.5,26.3-132.7,90.3-170.8
			c57.1-34.1,118.6-55,186.7-51.4c15.2,0.8,23.9-4.1,23.6-23.8C1069.7,1231,1070.6,1151.4,1070.6,1056.8z M2740.2,2509.4
			c54.2-34.7,69.7-56.9,80.1-113.9c2.8-15.3,5.1-30.8,6.1-46.3c14.4-219.8-65.1-399-234.3-539.1c-9.3-7.7-17.1-9.2-28.7-4.2
			c-63.5,27.4-130.6,37.1-199.3,37.4c-74.7,0.3-149.4,0.6-224.1-0.4c-16.2-0.2-25.1,5.1-33.2,18.7c-28.7,48.7-53,99.4-69,153.7
			c-58.6,199.1-21.6,374.2,130.6,520.7c13.1,12.6,22.7,13.5,37.9,3.2c60.3-40.8,90.9-100.1,105.6-168.5
			c11.3-52.3,0.4-78.6-45.4-104.4c-45.9-25.9-62.4-73.9-48.3-125c10.8-39.2,40.3-59.7,80.9-56.2c63.9,5.4,127.1,55.3,145.7,116.6
			c11.7,38.7,15.9,78.4,12.8,119.1c-5,65.4-10.8,130.9-11.4,196.5c-0.6,63,29.2,87.3,91,84.7c20.4-0.9,25.6-9.1,26.6-28.4
			c5.5-103.7-2.7-206.8-16.7-309.3c-16.2-118.9-62.2-222.6-231.6-238.4c-19.1-1.8-11.2-14-11.5-23.1c-0.4-11.9,2-19.2,18-18.4
			c112.3,5.4,204.7,72.7,242.7,178.3c27.9,77.5,31,159,37.6,239.7c4.9,60.4,8.6,121.1,0.4,183.8c33.5-9.3,64.5-20.6,87.5-42
			c15.3-14.4,4-40.9,8.5-61.5c0.4-1.6,0.5-3.3,0.5-4.9c4.3-91.6,13.9-183-2.7-274.8c-22.7-126.1-83.3-219.7-210.8-259.2
			c-52.3-16.2-106.5-21-160.6-14.6c-22.5,2.7-19.3-10.8-22.1-22.2c-4.4-17.3,7.1-19,19.7-19c28.7,0,57.5-1.5,86.1,0.2
			c155.7,9.3,270.9,100.1,314.7,249.8c16.8,57.5,25.8,116.8,23.7,177.2C2745.1,2378.9,2742.6,2442.6,2740.2,2509.4z M2143.5,2571.6
			c-220.4-223.2-213.7-468.4-76-728.2c-58.3,0-113.2,0.6-168.1-0.4c-17.2-0.3-19,4.8-17.2,20.9c20.2,183-106.2,340.2-288.1,360.2
			c-65.5,7.2-127-6.7-187-34.7c-1.8,7.6-3.9,13.8-4.8,20.2c-16.1,107.6-61.6,201.8-132.7,283.2c-15.4,17.7-8.8,22.1,6.6,30.6
			c66.7,36.9,138.3,59.5,212.7,73.8c157.5,30.2,316.3,32.7,475.5,18.3C2025.4,2609.9,2085.5,2596.5,2143.5,2571.6z M1064.7,2269.6
			c-7.3-1-11.6,3.4-16.4,6.2c-56.3,32.2-115.3,58.3-178.7,72.9c-158,36.3-292.6-0.1-395.3-130.9c-64.8-82.5-98.7-178.8-122.1-279.3
			c-3.6-15.3-8.6-21.7-25.6-20.8c-68.8,3.5-137.7,6-206.6,7.6c-16.5,0.4-20.6,6-19.6,21.6c5.3,88.5,12.3,176.8,31.3,263.5
			c11.2,51.2,24.7,102.4,54.1,146.8c75.7,114.5,180.3,192.5,311.3,231.3c230.8,68.4,431.9-7.2,621-134.9c7.9-5.3,7.2-11,2.3-18.5
			C1087.6,2384.8,1071.9,2328.4,1064.7,2269.6z M1057.7,2170.8c-7.6,3.1-15.1,6.2-22.5,9.2c-78.6,32.4-159.6,43.6-243.3,25.1
			c-166-36.6-286.6-175.3-307-352.5c-11-95.4-12.6-191.5-18.2-287.3c-9.4-162.6,15-320.9,63-475.5C572,954,652.8,849.2,789.8,797
			c87.7-33.5,179-39.1,271.4-24.7c15.3,2.4,21.7,0,25.3-16c4.7-20.7,11.1-41.4,20.2-60.5c8.2-17.1,1.2-20.3-13-23.3
			c-95.5-20.1-191.3-28.2-288.2-10.8c-156.7,28.2-270.5,111.7-335,259.1c-20.5,46.7-35.4,95.2-47.1,144.8
			c-63.6,269.8-93.3,541.5-41.4,817c19.4,102.9,50,202.4,109.9,290c77.7,113.6,184.9,162.5,322,144.7
			c73.5-9.5,139.9-38.5,205.4-71.5C1051.3,2229.6,1072,2211.4,1057.7,2170.8z M745.4,421.8c-134-7.6-272.8,40.4-384.1,131.3
			c-80.6,65.8-148.3,141.5-180,243.7c-20.2,65.2-30.3,132.4-40.8,199.6c-2.6,16.5,2.5,21.2,18.9,20.9c56.6-0.8,113.3-0.2,169.9-0.4
			c20.4-0.1,44.8,5.7,60.3-3.4c15.7-9.3,15.1-36.2,21.7-55.4c71-204.2,213.4-318.5,428.5-342.3c90.7-10,180.1-2.3,268.4,19.1
			c15.1,3.6,26.4,5.7,36.3-12.1c10.6-19.1-5-23.8-13-31.1C1019.8,490.8,891.2,428,745.4,421.8z M1102.8,2139.4
			c-4.2,41.1-1.6,84.5,3.3,127.7c9.3,81.7,38.9,153.5,102.7,208.7c10.2,8.8,15.7,10,24.8-1.7c20.2-25.9,40.4-51.6,57.5-79.6
			c109.9-180,100.1-390.6-26.3-560.2c-5.5-7.3-8.5-17.9-22.5-10.8c-66.4,34.1-111.6,84.7-127,159.3
			C1105,2033.6,1105.7,2085.4,1102.8,2139.4z M1484,2045.3c108,0.1,197.1-72.3,216.4-171.8c5.6-29,4.9-30.1-22.1-30.1
			c-33.6-0.1-67.3-0.1-100.9,0c-77.2,0.2-152-11.8-222.3-45c-12.1-5.7-23.5-5.4-35.8-2.3c-26.4,6.8-26.7,6.8-10.8,28.4
			c34.5,46.7,63.6,97.7,74.8,153.7c10,50,39.4,62.2,81.1,65.9C1472.5,2044.9,1480.8,2045.1,1484,2045.3z M1566.8,2184
			c159-0.2,286.7-134.5,276.4-298.2c-2.7-42.5-2.7-42.5-43.9-42.5c-9,0-18.2,1.1-27-0.2c-20.3-3.1-27.6,4.2-30.5,25.3
			c-20.1,145.4-158.9,241.9-303.5,212.5c-32.6-6.6-30-6.5-32,27.2c-1.7,29.4,11.5,42.5,36.3,52.2
			C1480.4,2175.1,1518.8,2185.3,1566.8,2184z M1032.3,1374.6c-44.5,0.6-88.6,14.9-131.1,35.5c-46.7,22.8-76.2,59-84.3,110.5
			c-8.2,51.5-12.5,103,16.5,150.6c19.3,31.7,36.4,35.8,69.8,21.3c33.5-14.5,49.6-38.2,47.8-74.8c-0.6-11.4,0.7-22.9,1.4-34.4
			c2.8-47.2,34.5-86.9,78.1-104.1c17.1-6.8,43.9,5.5,50-15.1c5.1-17-4.8-38.3-7.5-57.8C1068.3,1373.1,1068.5,1373.1,1032.3,1374.6z
			 M2868.6,2342.1c8.8-3.8,8.9-10,10.7-15.1c22-61.7,25.8-125.3,16.6-189.4c-20.9-144.7-92.8-262.7-195.1-364.2
			c-28.2-28-27.7-26.8-60.9-7.4c-18.4,10.7-17.5,16.3-2,29.7c122.9,105.7,197.7,238.8,224,399
			C2869.9,2243,2870.4,2291.8,2868.6,2342.1z M247.1,1129.1c22.9,0,45.9,0,68.8,0c51.3,0,50.5-0.2,62.4-50.9
			c3.8-16.2,0.6-19.8-15.2-19.7c-59,0.7-117.9,0.3-176.9,0.3c-54.9,0-54.4,0-57.8,53.8c-0.8,13.2,2.5,17,15.5,16.8
			C178.3,1128.6,212.8,1129.1,247.1,1129.1z M212.8,1744.4c9.8-29.6,18.5-56,27.4-82.3c1.9-5.7,3.9-10.9-1.1-15.8
			c-20.4-19.9-40.7-39.7-62.3-60.8c-11.7,27.1-22.3,52.7-33.9,77.8c-3.9,8.6-1.3,13.6,4.7,19.2C168.4,1702,189,1721.8,212.8,1744.4z
			 M217.2,1883.9c0-2,0-4.1,0-6.1c33.6,0,67.2,0.1,100.8-0.1c9.3-0.1,20.7,2.7,19-13.9c-1.3-12.8-3.6-21-19.9-20.7
			c-67.3,0.9-134.6,0.7-201.9,0.1c-13.8-0.1-19.4,3.7-17.9,18.1c1.3,12.5-0.7,24.1,19,23.2C149.9,1882.7,183.5,1883.9,217.2,1883.9z
			 M1171.5,1818.2c37.8-25.3,73.6-43.5,116.4-56.8c-41.3-28-74.9-59-109.6-99.3C1181.6,1717.9,1179.4,1765.6,1171.5,1818.2z
			 M232.9,1455.8c-12,27.3-22.2,50.3-32.2,73.4c-3.3,7.6-5.4,14.6,2.4,21.9c15.5,14.5,30.1,30,44.8,45.3c6.9,7.2,11.7,8,15.2-3
			c7.4-23.3,15.2-46.5,23.1-69.6c2.2-6.5-0.5-11-4.6-15.4C266.3,1491.9,250.9,1475.2,232.9,1455.8z M288.7,1325.6
			c-11.6,26.7-22.6,52.1-33.6,77.6c-2,4.7-3.9,9.9-0.2,13.9c15.8,16.9,28.4,37,48.6,50.6C338.3,1370.3,338.2,1353.7,288.7,1325.6z
			 M164.4,1506.8c3.1-6.3,6.6-12.6,9.5-19.2c7.9-18,15.7-36,23.4-54.1c3-7.1,3.7-13.7-2.6-20.2c-12.8-13.3-24.8-27.3-39.5-43.5
			c-6.7,16.2-11.9,29-17.3,41.7c-23.2,54.5-23.3,54.5,23.2,94.4C161.6,1506.3,162.5,1506.3,164.4,1506.8z M275,1688.7
			c-6.7,19.9-13.3,39.3-19.8,58.7c-1.6,4.7-2.9,9.4-4.6,14c-2.9,7.9-4.4,15,2.2,22.7c11.9,14,51.5,24,67.9,16.4
			c4.7-2.2,5.5-5.2,5.1-9.5C322.6,1750.9,321.2,1709.9,275,1688.7z M220.3,1379.5c11.2-26,20.3-47.8,30-69.4
			c3.4-7.5,3.9-12.7-2.5-19.6c-36.4-38.9-43.9-38-63.5,9.1c-2.5,6-4.3,12.4-7.4,18.1c-3.7,6.9-2.5,12.2,2.6,17.7
			C192.4,1349,204.9,1362.8,220.3,1379.5z M120.7,1714.1c-8.5,25.3-22.2,44.2-24.4,67.7c-1.2,12.5,1.5,20.3,16.8,19.7
			c22.1-0.9,44.2-0.1,66.3-0.3c6.3,0,13.7,1.5,16.4-7c2.6-8.1-3.9-11.9-8.4-16.2C166.3,1757.5,144.9,1737.2,120.7,1714.1z
			 M273.1,1170.7c-5.7,0-11.5,0.7-17.1-0.1c-25.9-3.8-23.3,19.7-31.5,32.7c-8.3,13.2,3,18.6,11,25.1c37.6,30.3,37.7,30.3,56-13.6
			c1.2-3,2.4-6,3.7-9C310.7,1170.7,310.7,1170.7,273.1,1170.7z M101.8,1511.9c0,43.2-4.9,84.7,0,131.8c14.9-17.1,18.5-33,24.9-47.5
			c21.2-48.2,21.1-48.3-17.9-82.7C108.2,1513.1,107.2,1513.1,101.8,1511.9z M125.6,1195.5c-16.5,47.2-11.3,75.4,17.4,94
			C173.3,1225.4,173.3,1225.4,125.6,1195.5z M334.5,1303.6c7.3-42.4,14.3-83.1,21.3-123.9c-15.2,25.7-25,53.4-38.8,79
			C304.7,1281.3,309,1294.4,334.5,1303.6z M313.3,1660.6c0-26.5,0-49.6,0-75.3C288.1,1627.3,287.9,1638.6,313.3,1660.6z"/>
		<path class="st0" d="M2474.8,877c-3.7,111.7-61.8,200.5-156.4,268.2c-47.9,34.2-101.1,57.5-157.9,72.1
			c-13.9,3.6-22.7,9.7-29.5,22.5c-33.8,63.8-77.8,119.8-134.2,164.9c-17.3,13.9-21.7,27.5-18.6,48c7.4,50.4,8.6,101.2,10.3,152.1
			c0.7,21.7-12.4,18.1-24.8,20.2c-17.2,2.8-16-8.2-16.2-19.3c-1.7-122-18.6-241.8-49.5-359.8c-4.4-16.7-11.5-25.2-29.5-30.1
			c-78-21-148-57.5-206.2-114.8c-141.9-139.8-135.9-344.1,13.9-475.3c186-162.9,496.2-162.8,682,0.2
			C2431.3,690,2474.5,780.1,2474.8,877z M2005.1,1194.7c118.3-0.5,216.2-27.8,302.1-92.1c163.3-122.2,168.6-325.2,12.2-455.8
			c-169.2-141.2-457-135.3-620.1,12.8c-131.1,119-131.7,300.5-0.5,419.4C1788.9,1160.6,1897.4,1193.5,2005.1,1194.7z M1969.5,1374
			c48.3-40,86.6-85.5,118.3-142.6c-49.1,6.1-93.9,5.5-138.6,0.7c-8.7-0.9-12.2,2.4-10.2,11.2C1949,1286,1959,1328.8,1969.5,1374z"/>
		<path class="st0" d="M1780.2,1417.8c-0.7,59.7-50.7,109.3-110.4,109.4c-60.5,0.1-111.8-51.6-110.8-111.6
			c1.1-61.1,52.1-110.4,113-109C1732,1307.9,1780.8,1358.1,1780.2,1417.8z M1667.9,1484.7c40.3,0.6,70.9-28.8,70.9-68.1
			c-0.1-38.1-30.1-67.9-68.6-68.1c-39-0.2-68.7,28.4-69.4,67C1600.1,1454.2,1629.1,1484.1,1667.9,1484.7z"/>
		<path class="st0" d="M2306.7,1435.4c0.4-60.8,48.7-109,109.3-109.2c61.4-0.2,110.8,49.5,110.2,111
			c-0.5,60.5-49.3,109.2-109.5,109.5C2355.5,1547,2306.3,1497.2,2306.7,1435.4z M2484.7,1436.6c0.1-38.5-29.1-68.5-67.5-69.3
			c-38.2-0.8-70.6,31.5-70.1,69.8c0.5,37.8,31.3,67.8,69.5,67.7C2455.3,1504.7,2484.6,1475.4,2484.7,1436.6z"/>
		<path class="st0" d="M2019.1,907.9c-61.9,0.4-109.8-45.6-110.7-106.4c-0.9-60.8,47-110.6,107.1-111.2c63.9-0.6,114,48,113.5,110
			C2128.5,861,2081,907.5,2019.1,907.9z M2018.8,868c38.8-0.1,68.1-29.4,68.3-68.1c0.2-38.2-29.7-68.9-67.6-69.4
			c-38.2-0.5-70.9,31.9-70.3,69.9C1949.8,837.8,1981,868.1,2018.8,868z"/>
	</g>
</g>
</svg>
