<?xml version="1.0" encoding="utf-8"?>
<!-- Generator: Adobe Illustrator 23.0.0, SVG Export Plug-In . SVG Version: 6.00 Build 0)  -->
<svg version="1.0" xmlns="http://www.w3.org/2000/svg" xmlns:xlink="http://www.w3.org/1999/xlink" x="0px" y="0px"
	 viewBox="0 0 3000 3000" style="enable-background:new 0 0 3000 3000;" xml:space="preserve">
<style type="text/css">
	.st0{stroke:#000000;stroke-width:10;stroke-miterlimit:10;}
</style>
<g id="Layer_1">
</g>
<g id="Layer_2">
	<g>
		<path class="st0" d="M974.5,1028.2c58.6-34.8,98.4-82.7,130-138.3c25.2-44.3,39.4-93.2,58.8-140c28.5-68.8,55.5-138.4,93.2-202.8
			C1378.7,337.8,1667,266,1864.7,394.7c28.2,18.4,53.3,40.5,76.8,63.2c5.9-0.9,5-4.9,5.9-7.6c20-60.3,68.3-87.2,130.8-72.2
			c33,7.9,64.2,20.5,89.1,44.4c16.9,16.2,28.5,16.6,45.9-2.1c57.9-62.5,180.4-70.1,244.6-16.4c9.8,8.2,15.3,4.8,23.1-0.4
			c36.4-24.1,75.3-42.6,118.6-50.3c47.6-8.5,89.3,3.9,124.7,36.7c10.2,9.5,20.3,19.2,29.6,29.5c36.4,40.8,82.1,58.2,136.2,55.2
			c6.5-0.4,13.1-0.6,19.6,0c40.7,3.5,58.1,28.3,47.3,67.7c-10.8,39.2-36.6,69.1-62.6,98.7c-25.6,29.1-57.3,50.8-90.6,69.7
			c2.3,6.4,7,5.5,10.5,5.9c109.7,14.5,153.8,132.8,91.7,226.2c-10.1,15.2-10.9,26.2-3.3,41.5c24.3,49,38.2,101.9,21.5,154.6
			c-11.5,36.3-9.4,68.3-4.1,104.7c12,81.8-11.7,152.8-84.8,200.1c-12.8,8.3-9,18-7,27.7c18.2,92.8,28.4,186.6,27.1,281
			c-1.8,121.1-1.8,242.8-32.6,361.4c-19,73.3-49.1,140.8-103.4,195.2c-9.8,9.8-9.1,19.7-7.9,31.3c5.6,57.5-2,113-27.7,165
			c-37.7,76-104.3,109.1-184.2,123.3c-111.6,19.8-218.6,5.1-322.4-38.2c-14.7-6.1-25.6-6.8-40.5,2.4
			c-54.3,33.8-113.9,31.4-173.7,19.2c-47.2-9.6-90.3-28.9-128.5-58.5c-7.1-5.5-12.8-11.8-23.3-4.3c-53.1,37.9-114.4,52-177.8,58.2
			c-82.4,8.1-165.1,11.3-248,13.3c-192.2,4.5-270.3-120.1-299.6-242.6c-7.7-32.1-10.5-64.6-11.8-97.4c-0.2-5.8,1.9-15.4-7.1-15.8
			c-9.3-0.4-7.3,9.8-8.3,15.2c-13.7,71.1-40.4,136.4-84.8,194c-70.9,92.1-167.3,138-280.5,148.5c-106.9,9.9-214.2,16.3-321.7,5.9
			c-69.7-6.8-135.7-24-190-71.3c-68.9-60-92-138.7-91.7-227c0.2-50.5,10.6-99.1,24.7-147.1c3.2-11,2.5-19.8-2.4-30.3
			c-23.3-50.5-34.8-102.4-12.8-156.7c3.1-7.7,1.7-13.9-1.5-21c-38.4-85.2-10.1-193.9,81-250.9c-74.3-31.7-76.6-99.6-81.5-163.7
			c-7.1-92.3,4.1-183.2,32.4-271.8c2.6-8.1,6.2-16,2.6-25.9c-16.3-45.5-5.4-87.7,20.4-126c42.8-63.6,106.3-94.6,180.2-101.3
			c44.7-4,74.5-6.4,86.7-64.3c17.3-82.3,98.1-130,177.8-124c27.2,2.1,51.4,12.2,71.6,29.4c11,9.3,17.5,8.2,28.9,2.3
			c88.7-45.9,188.9-24.9,242.1,49.9C956.5,952.1,965.1,976.4,974.5,1028.2z M135.6,1517.6c1.7,22.9,2.9,49.9,6.1,76.8
			c8.4,70.5,22.1,87.8,92.1,100.9c116.5,21.7,234.4,23.9,352.6,19.9c56.8-1.9,106.9-19.4,151.9-54.6c27.9-21.8,60.5-36.1,94.8-45.3
			c124.6-33.7,247.3-22.5,366.6,21.7c119.1,44.1,240.4,79.9,364,108.8c107.4,25.1,207.6,15.3,299.4-50.9
			c107.9-78,132-199.5,62.5-313.6c-27.2-44.7-67.5-72.1-111.8-96.6c-42.7-23.5-77.3-55.4-90.5-104.9c-12.9-48.4,3.7-95.7,49-113.1
			c35.2-13.5,45.7-38.6,53.8-69c4.4-16.6,8.5-33.5,10.1-50.5c7.9-84.2-10.5-160.2-75.7-218.6c-102.2-91.7-324-27.6-350.4,122.8
			c-19.7,112.4-64.7,216.1-124.1,313.3c-39.9,65.3-96.1,109-173,122.2c-94.1,16.1-189.4,15-284.3,18.2c-185.2,6.1-370.6-1.4-555.8,5
			c-30.1,1-60.9,4.5-90.4-4.9c-15-4.8-15.9,4.7-18.8,14.5C145.1,1382.8,136.8,1447.6,135.6,1517.6z M1863.7,1017.8
			c4-1.6,6.5-2.1,8.4-3.4c6-4.3,12.1-8.5,17.6-13.3c79.2-68.5,122.7-155.6,124.7-259.9c4.3-228.7-215.7-408.5-442.3-363.1
			c-142.8,28.6-246.8,106-308,241c-42.3,93.2-73.2,191.4-120.4,282.1c-66.3,127.4-168.5,207.6-325.6,191.3
			c-137.5-14.3-276.5-15.4-414.9-20.7c-41.7-1.6-83.6,2.6-123.4,17.5c-45.3,17-82.6,44.1-103.4,89.1c-28.3,61.3-6.9,94.2,59.8,91.5
			c114.7-4.8,229.5-4.3,344.3-3.6c150.9,0.9,301.6-4.3,452.3-10c112.5-4.2,192.3-50.7,242.1-153.7c38.3-79.2,75-158.5,91.4-245.3
			c18.1-95.9,73.6-158.2,163.6-192c146-54.8,295.9,2,338.7,167.3C1884.6,894.2,1880.5,955.6,1863.7,1017.8z M1920.5,2269.7
			c11.9,38.3,17.9,74.4,9.7,109.8c-5.1,22.3,5.1,24.4,20.8,27.4c83.9,16.2,168.3,26.5,253.8,27.4c111.4,1.1,220.7-11.3,325.6-51.3
			c141.3-53.9,228.8-152.6,258-302.8c12.2-63,18.3-126.3,21.8-190.1c7.3-134.6,5.3-268.7-21-401.5c-1.6-8.1,2.2-20.8-9-23.2
			c-10.3-2.2-14.2,9.5-19.3,16.4c-34.5,46.7-74.7,87.8-127.4,113c-19.3,9.2-19.1,16.8-14,33.9c32.4,108.4,40,218,3.4,326.5
			c-49.9,148.2-157.6,237.9-303.4,284.2C2190.7,2280.4,2059,2293.3,1920.5,2269.7z M2164.6,1365.6c52-24.3,104-28.9,150.7,3.9
			c30.3,21.3,57.9,35,94.1,19.9c4.2-1.8,9.7-0.6,14.6-0.5c31.8,0.8,55.9-7.2,80.6-25.1c35-25.4,74.2-32.6,116.5-26.1
			c8.1,1.3,18.3,6.6,18.7-9.5c1.2-47.8,21.7-86.5,56.7-118.3c4.7-4.2,10.8-7.6,5.3-16c-34.9-52.9-32.3-111.8-26.4-171
			c0.9-9.5,0.1-16.7-7.2-24.3c-35.9-37.4-51.8-83-48.6-134.3c1.1-17.1-4.2-24.3-19-30.9c-46.6-20.7-91.9-44.1-119.4-90.2
			c-6.6-11.1-14.2-4.7-21-2.5c-32.8,10.4-66.1,12.6-99.2,3.8c-14.6-3.9-21.6,0-28.6,12.9c-22.2,40.7-57,65-103.1,69.7
			c-17.5,1.8-22.2,5.9-22.9,24.2c-2.6,65.4-27.4,119.8-89,150.1c-16.7,8.2-21.6,13.8-16.1,33.5c12.6,44.6,13.7,89.5-21.3,126.8
			c-5.9,6.3-4.7,10.6-0.5,16.8c15.4,22.6,18.1,48.7,19.4,75.1c0.4,7.8-1.8,16.1,7.2,21.8C2138.7,1296.5,2157,1327.4,2164.6,1365.6z
			 M2056.6,2239.7c30.8,2.3,63.5-0.9,95.9-5.7c35.6-5.2,71.2-11.2,106.1-19.6c204.8-49.8,326.1-177.9,344.9-365.6
			c8-80.4-4.5-158.4-32.2-233.9c-8.6-23.4-24.1-24.7-40.4-5c-19.7,23.8-42.7,44.5-73.1,51.3c-21.9,4.9-23.5,15.1-21.4,34
			c5.9,52.1-2.6,103.2-20.7,152c-55.5,149.6-215.3,239.1-380,214c-10.6-1.6-19.2-5.4-26.1,8.6c-25.2,51.5-65.3,90-113.9,119
			c-18.3,10.9-12,18.6-2.6,29.1c5.3,6,12.8,6.5,20.1,7.9C1959.8,2235.1,2006.7,2241.8,2056.6,2239.7z M531.6,2590.2
			c40.4-0.9,108.3-1.6,175.9-10.5c178.1-23.6,277.4-149.5,308.9-299.4c2.8-13.5-0.1-19.2-15-19.6c-27-0.8-54-3-80.9-5.5
			c-10.1-0.9-16.7,2.6-23.4,9.8c-83.4,89.5-189.8,123.4-308.7,127.6c-147.1,5.2-292.9-6.4-437.7-31.2c-19.3-3.3-20.1,2-17.6,18
			c16.3,106.6,73.1,171,178.1,197.4C374.5,2592.8,439.2,2593.7,531.6,2590.2z M136.8,2100.8c16.7,59.6,46.1,89.8,101.7,97.4
			c86.8,11.9,174.4,23.2,261.9,11.6c87.6-11.6,158.7-56.2,212.1-125.6c35.5-46.2,32.2-103.7,32.9-158.3
			c1.4-100.1-72.8-171.3-172.6-168.5c-95.2,2.7-190.2-0.5-284.7-11.9c-32.6-3.9-62.1,0.9-89.9,16.5c-42.3,23.7-65.1,60.6-73.6,113.8
			c46.8-28.3,91.7-45.5,138.9-56.6c74.7-17.6,148.1-15.6,218.8,16.3c63.5,28.6,97,83.7,92.3,148.4c-4.4,61-46,109.1-111.8,128.4
			c-57.6,16.9-116.4,16.5-175.5,12.3C237.5,2121,188.8,2110.4,136.8,2100.8z M1639.9,2180.4c38.5,0,77-0.2,115.4,0
			c97.5,0.7,169.1-42.6,216.8-127c12.7-22.4,17.6-46.2,11.9-70.9c-3.2-13.9-9.5-33-24.8-32.9c-15.6,0.2-12.7,19.8-15.1,32.1
			c-1.3,6.4-1.8,13-3.1,19.4c-10.9,52.4-39.2,91.6-89.2,112.4c-21.8,9.1-44.7,16.1-67.7,21.3c-104.1,23.5-200.7,2.8-287.1-57.8
			c-53.3-37.4-63.6-99.3-31.6-155c29.5-51.3,72.3-86.1,130.6-100.2c92.2-22.3,183.5-17.2,274.3,8.4c12.3,3.5,24.2,4.6,17.4,23.4
			c-5.4,15.1-9.5,22.8-28.6,16.7c-63.2-20.2-128.4-24.8-194.3-18.8c-64,5.9-122,22.9-158.9,82.3c-28.3,45.5-23.1,85.6,21.7,114.5
			c100.5,64.8,206.9,71.8,315.9,23.8c31.8-14,49.2-42.2,56.8-76c1-4.3,3.4-12.9-2.9-11.5c-18,3.7-41.8-3.5-53.2,11.2
			c-42.6,55.1-99.9,63.7-162.9,58c-37.6-3.4-62-24.3-68.3-56.5c-6-31.1,8-59,40.2-76.9c37-20.5,76.8-32,119-36.3
			c49.5-5,68.9,6.3,84.5,52.9c2.6,7.7,4.7,11,12.8,9.4c27.2-5.2,53.8-12.7,66.6-40c13-27.6,3.3-52.8-14.2-75.3
			c-23.1-29.8-56.7-43.4-90.2-57.1c-22.9-9.4-41.1,5.5-60.7,11.9c-56,18.3-113.2,13.2-170.5,10.7c-112.2-4.9-197.6,53.2-237.4,157.9
			c-41.4,108.9,37.2,227.2,137.1,228.2C1546.5,2183.4,1593.2,2184.6,1639.9,2180.4z M1884.1,2396.3c-14.1,5.8-23.2,9.6-32.3,13.3
			c-121.6,50.3-248.6,70.8-379.5,66.3c-80.4-2.7-137.3-44.5-158.1-113.8c-9.3-30.7-14-62.5-8.8-94.7c2.3-14.4-2.6-19.4-16.9-17.4
			c-52.8,7.6-106,10.4-159.3,12.3c-14,0.5-16.3,7-15,18.6c2.1,19.5,2.8,39.3,5.9,58.6c20.7,126.8,91.1,245.9,265.4,240.5
			c88.5-2.7,176.9-6.2,264.9-15.9c76.1-8.4,141.6-39,192.9-97.2C1860.7,2447.3,1874.9,2426,1884.1,2396.3z M1138.2,2068.9
			c50.9,1.3,103.1-2.8,155.3-8.1c10.7-1.1,20.5-1.6,18.7-18.1c-6.1-55.8,9-107.1,37.5-154.6c7.4-12.3,5.8-16-9.1-17.1
			c-180.1-13-360-12.1-539.8,4.6c-13.4,1.2-16.6,5.6-15,18c4.4,33.6,2.2,67.3-3.4,100.3c-3.5,20.4,1.3,28.7,21.6,33.6
			C913.4,2053.6,1023.9,2070.3,1138.2,2068.9z M1493.8,2436.6c141-3.2,262.9-26.7,378.6-80c17.7-8.2,22.2-18,18.9-35.7
			c-6.6-35.4-22.5-66.1-43.2-95.2c-7.2-10.1-14.2-12.5-26.4-11.1c-98.6,10.9-197.9,16.1-296.7,9.4c-55.1-3.7-106.9,5.5-159.7,15.1
			c-12.8,2.3-17.9,6.5-19.2,19.7C1334.1,2379.6,1386.9,2437.8,1493.8,2436.6z M1398,2191.5c-15.8-15.8-28.4-27.4-39.7-40.1
			c-12-13.5-21.5-28.9-28.6-45.6c-3.9-9.2-11.1-7.3-18.6-6.3c-166.8,21.9-331.8,11.2-495.2-27.2c-40.7-9.6-40.6-9.6-61.6,25.1
			c-4.2,7-8.6,14.2-14.4,19.9c-18.6,18.1-37.9,35.5-60.5,56.4C920.9,2231.4,1156.2,2236.6,1398,2191.5z M854.1,2248.5
			c-75.5-10.6-144.3-24-212.2-42.1c-6.1-1.6-11.1,1.1-16.1,4c-68.5,39.3-143,50.7-220.1,43.5c-85.9-8-175.7,3.9-254.9-46.5
			c-9.4,30.1-14.5,59.8-19.1,89.7c-2.4,15.8,3.2,20.6,18.8,23.2c67.8,11.3,135.9,20.3,204.5,25.7c103,8.2,205.9,12.6,308.8-2.5
			C735.6,2332.9,797.4,2303.1,854.1,2248.5z M2920.1,525.5c-2.7-12.5-12.9-9.5-21-9c-73.5,4-134.9-20.4-183.2-76.5
			c-6.4-7.4-13.7-14.1-20.9-20.8c-23.7-21.8-51.6-30.6-83.7-26c-43.2,6.2-80.4,26.2-116.2,49.8c-9.8,6.5-9.3,14.4-7.3,23.3
			c4.1,18.5,9.2,38.3,2.4,55.8c-13.1,33.7-4.6,56.3,25.5,75.4c9.5,6,14.6,9.7,25,4.2c23.4-12.3,48.9-18.3,74.9-22.5
			c75.1-12.2,133,13.8,171.8,78.9c6.7,11.3,11.7,7.5,19.1,3c47.5-29,80.9-70.8,107.5-118.7C2916.9,537.4,2918,531.6,2920.1,525.5z
			 M2398.5,552.3c46.2,1.4,47.1,0.8,51.1-35.7c2.7-24-0.7-47.3-11-69.4c-7.8-16.8-20.9-29.1-38.6-31.2
			c-61.5-7.4-122.8-14.4-168.7,43.8c-19.8,25.1-48.4,25-74.8,6.2c-9.3-6.7-17.8-14.5-27.1-21.2c-25-18.3-53-29-84.1-29.5
			c-29.2-0.5-49.1,15.4-57.7,44.1c-7,23.5,0.5,41,26.2,57.3c11.7,7.4,24.3,13.7,37.2,18.8c67.2,26.9,137.2,35.9,209.3,34.1
			C2310.5,568.3,2359,554.3,2398.5,552.3z M682,1740.3c10.1,14.2,22.5,13.1,34.8,12.7c194.8-5.8,389.7-11.6,584.5-17.4
			c12.7-0.4,25.3-1.3,37.9-2c-47.2-20.2-95-36.1-141.9-54.4c-88.6-34.7-180.4-46.1-274.7-39.4c-52.1,3.7-102.1,16.6-146.4,44.8
			C746,1704,716.9,1725.1,682,1740.3z M2667.4,2355.9c-32.8,22.7-66.1,43.5-102.9,56.8c-24,8.7-41.7,19.4-40.9,48.1
			c0.1,5.4-3,11-5.2,16.2c-37.4,88.2-148.2,98.6-209.9,19.9c-6-7.6-9.7-20.7-19.1-21.3c-23.5-1.6-48-2.7-70.8,2
			c-13.7,2.8-10.2,23.4-16.4,35.2c-4.2,7.9-7.1,16.6-11.9,24.2c-5.8,9.2-4.3,13.9,6,17.9c118.1,46.7,238.1,58.4,359.5,15.7
			C2635.2,2542.5,2687.8,2439.6,2667.4,2355.9z M314.3,2084.9c37.2,3.2,69.1,0.4,100.7-3.8c21.1-2.8,41.8-8,61-17.8
			c69.9-35.6,79.2-124.1,17.8-172.9c-35.5-28.2-77.9-37.5-121.8-39.8c-85.5-4.6-163,20.8-235.1,65.4c-12,7.4-11.4,15.6-7.6,27
			c3.1,9.4,7.7,14.3,17.7,11.4c29.8-8.6,60.3-4.1,90.4-4.7c13.2-0.3,22.4-2.6,30.8-14.2c13.6-18.8,34.7-26.5,57.1-30.3
			c36.1-6.2,71.7-2.7,107.1,4.7c37,7.7,60.2,29,63.8,58.5c4,33.2-14.8,65.8-47.7,81.2c-37.9,17.6-78.1,17.9-117.9,10.5
			c-35.9-6.6-66.9-22.6-78.8-61.5c-1.5-4.9-4.2-8.8-10.3-8.7c-28.6,0.3-57.9-3.3-85.6,5c-23.8,7.2-25.7,30.3-25.9,50.9
			c-0.2,19.9,18.5,14.6,29.3,17.1C212.1,2074.7,265.3,2083.6,314.3,2084.9z M2659.7,872.2c-0.5,27.2,6.6,49.7,17.9,70.9
			c17.3,32.3,42.9,50.1,81.4,47.5c54.6-3.8,119.2-57.7,131-111c12.7-57.2-17.2-108.9-69.8-119.6c-8.5-1.7-19.7-7.6-25.4,6.1
			c-20.3,49-65.3,64.3-110.3,77.2C2665.9,848.6,2654.9,853.9,2659.7,872.2z M2758.2,729.2c-0.4-68.5-28.1-100.4-91.8-109.6
			c-29.9-4.3-58.5,1.3-86.8,10.3c-23,7.4-45.4,15-45.7,45.6c-0.1,5.2-4,10.6-6.9,15.5c-16,28.1-14.6,35.6,11.1,57.6
			c17.5,15,37.6,25.8,57,38c44.1,27.7,86.2,23.1,129.1-2.5C2747.2,770.4,2763.5,754.4,2758.2,729.2z M2794.4,1222.2
			c-18.3,2-37.4-5.3-54.9,6.6c-34.5,23.5-55.7,55.2-59.1,97.1c-5.9,73.3,46.4,115.4,113.6,92.3c67.8-23.4,111.8-130.9,80.7-196.2
			c-4.3-9-9.1-8.9-17.3-6.4C2837,1221.8,2815.8,1223.6,2794.4,1222.2z M576.5,1032.7c0,1.7,0,3.4,0,5.1c28.6,1.4,57.3,2.3,85.8,4.4
			c49.2,3.5,49.2,3.7,39.2-44.5c-13.2-63-67-111.3-123.4-110.7c-58.6,0.6-114.2,53-129,119.4c-4.2,18.9-1.9,27.2,19.5,26.6
			C504.5,1032,540.5,1032.7,576.5,1032.7z M2020.8,2579.2c76.9,0.4,124-28.8,143.6-82.2c6-16.3,3.9-23.2-15.1-24
			c-69.6-2.8-138.5-11.6-206.4-26.9c-23.6-5.3-37.8-2.4-48.2,20.9c-5.4,12.2-15.5,23.6-26,32.2c-17.4,14.3-10.9,21.8,4,31.8
			C1920.4,2563.1,1973.6,2576,2020.8,2579.2z M1473.9,1771.5c-241.2,7.5-482.5,14.9-724.7,22.4c19.5,43.6,19.5,43.2,62.9,39.3
			c31-2.8,62.1-4.6,93.2-6.4c156.6-9.5,313-6.3,469.3,5.7c8.2,0.6,16.2,1.7,23-5C1420,1805.6,1446.6,1789.9,1473.9,1771.5z
			 M2597.5,1377.2c-66.6-2-108.4,43-94.1,102.6c7.8,32.4,27.2,57.3,56.1,74.5c21.7,12.9,43.7,13.1,65,0c34.4-21.2,63.9-48.2,90.1-79
			c9.6-11.3,5.9-15.5-6.3-20.1c-20.6-7.8-38.7-21.6-46.1-41.8C2650.3,1381,2625.2,1378.1,2597.5,1377.2z M2790.6,1182
			c13.2,0.6,30.1,0,47.1-4c30.9-7.3,43.2-19.5,48.1-50.3c6.8-42.5-0.2-82.7-17.8-121.8c-5.2-11.6-9-14.5-20.6-6.6
			c-35.5,24.1-74.4,37.4-118,30.8c-11.1-1.7-15.1,2.9-15,13.1c0.1,27.7-3.6,55.4,3.4,83C2730.3,1175.8,2735.7,1180.7,2790.6,1182z
			 M830,1049.4c27.5,3.2,56.8,5.9,86-0.9c10.3-2.4,17.2-5,16.1-18.9c-9.7-123.2-123.8-157.5-209.5-118c-9.6,4.4-11.8,8.6-5.5,17.9
			c12.2,17.7,17.2,38.5,24.4,58.4c6.9,19.1-6.9,47,13.9,56.8c17.8,8.4,41.7,3.6,62.9,4.6C821.7,1049.5,825,1049.4,830,1049.4z
			 M2250.3,1572.3c5-0.3,13.2-1.7,21.3-1.2c16,1,17.2-6.7,13.9-19.5c-11.1-43,0.6-80.9,28.2-114.1c8.4-10.1,7.8-15.6-2.3-23.2
			c-35.4-26.4-73.5-34.8-115-17.5c-40.6,16.9-60.9,50.4-68,91.9c-5.2,30.2,4.7,47.6,31.9,62.2
			C2187.2,1565.6,2216.3,1572.6,2250.3,1572.3z M2414.8,1626.6c38.3,0.2,63.1-18.1,84.8-43.2c8.5-9.9,8.4-16.8-0.6-27
			c-26.5-29.7-40.9-64.8-39.4-105.1c0.4-11.1-2.5-16.3-13.8-18.4c-38.8-7.3-73.6-0.5-100.3,30.2c-23.8,27.5-31.3,60.1-15.1,93.5
			C2348.1,1593.1,2374.5,1621.3,2414.8,1626.6z M2019.3,934c-3.6,49.6,20.4,48.4,52.2,41c58.6-13.7,98.3-69.2,94.3-129.1
			c-0.9-13.6-4.9-21.9-19.7-25.9c-22.8-6.2-39.8-21.6-52.6-41.5c-12.2-19.1-20-19.8-29.5,1.6C2042.4,829.3,2026.5,880.5,2019.3,934z
			 M2207.2,788.6c36.4,1.7,69.5-14.6,90.8-52.9c4.7-8.4,7.9-14.7-1.9-22.8c-19.8-16.5-29.9-38.6-29.5-64.6
			c0.2-10.4-3.6-13-12.9-11.2c-34.4,6.7-69.1,12.7-100.4,29.4c-23.4,12.5-36,32.3-34.8,59.8C2120.3,764.5,2152.1,788.8,2207.2,788.6
			z M1978.8,968.8c-48.7,47-73.6,98.3-44.3,164.1c11.9,26.7,33.5,40.3,60.8,32.7c74.2-20.8,85.3-71.7,60.8-138.1
			c-2-5.4-5.5-7.5-11-7.7C2011.6,1018.2,1989.6,1000.7,1978.8,968.8z M1882.3,1059.8c-27.4,12.5-50.9,23.8-74.9,34.1
			c-51.8,22.3-62.6,61.9-29.4,108c26.5,36.9,68,51.7,108.3,77.6c-7.4-39.7-1.4-73,14.7-104.3c3.4-6.6,2.1-12.3-0.8-18.6
			C1886.4,1126.6,1878.6,1095.2,1882.3,1059.8z M2401.6,594.3c-29.3,0.5-56.8,6.2-79,27c-20,18.7-19.9,40.6-0.6,59.9
			c37.2,37,123.1,37.1,160.5,0.3c20.6-20.3,20.4-41.8-1.4-61.3C2458.5,599.7,2431.1,594,2401.6,594.3z M2057.5,1265
			c-0.1-17.2-0.7-34.4-6-50.9c-4.6-14.6-11.5-22.2-28.7-13.9c-18,8.7-38.2,9.2-57.9,6.2c-34.3-5.2-37.8-2.8-40.3,32.5
			c-1.1,15.6,0.6,31,5.7,46c14.5,43.1,40.6,57.1,93.3,49.7c24.6-3.4,32.6-18.7,33.8-64.5C2057.6,1268.3,2057.5,1266.7,2057.5,1265z
			 M2362.2,1865.6c-1.6-3.1-2.3-5.7-3.9-7.4c-25.1-27-50.3-53.8-75.4-80.8c-7.9-8.6-11-1.4-14.1,4.2c-12.8,22.8-25,46-38.3,68.5
			c-4.5,7.7-3.8,13.3,1.2,19.9c17.8,23.5,35.8,46.8,52.8,70.8c6.5,9.2,10.9,9.6,18.8,2c18.4-17.7,34.9-36.9,48.2-58.6
			C2355.4,1878,2358.8,1871.6,2362.2,1865.6z M378.9,1944.1c-32.8-1.6-54.5,1.4-67.6,8.2c-22.8,11.9-26.6,36.3-8.2,52.1
			c27.4,23.6,107,25.6,135.5,3c10.6-8.4,19.2-18.5,16.9-33.4c-2.4-15.6-15.4-20.4-28-23.9C410,1945.5,392,1944.2,378.9,1944.1z
			 M1708.2,2013.6c10,0,17.3,0.4,24.6-0.1c31.9-2.2,58.2-15.4,76.5-41.9c13.7-19.8,6.7-46-12.4-46.6c-47.5-1.3-92.2,10.9-131.9,36.9
			c-20.1,13.2-15.1,37.7,7.3,47.9C1685,2015.7,1698,2012.5,1708.2,2013.6z M2381.1,1821.6c13.9-48.6,18.5-92.2,13.3-136.7
			c-1.5-13-32.1-40.7-44.5-39.9c-5.3,0.4-6.5,4.6-8.3,7.8c-13.1,22.6-25.8,45.4-38.7,68.1c-3.4,6.1-4.9,11.4,1,17.6
			C2329,1765.1,2353.7,1792,2381.1,1821.6z M2122.1,1957.9c17.3-30.6,32.4-57.5,47.7-84.3c3-5.3,5.3-10.7,1.4-16
			c-18.9-25.8-38-51.3-58.5-78.9c-15.9,27.7-29.1,51.1-42.9,74.2c-5.6,9.4-6.7,17.2,0,26.8C2087,1904.4,2103.3,1929.7,2122.1,1957.9
			z M2017.3,566.6c23.1,52.7,35.7,104,39.3,158.1c19.2-9.4,19.9-9.2,22.1-19.8c9.2-44.8,38.3-70.6,79.4-85.9
			c6.3-2.3,15.2-1.3,18.4-11C2122.9,602.1,2071.6,589.4,2017.3,566.6z M2245,1740.3c-1.2-2.8-1.6-5.4-3.1-7.1
			c-19.3-21-38.5-42.1-58.4-62.7c-7.1-7.3-9.6,1.1-12.2,5.5c-10.3,17.6-19.9,35.5-30.4,53c-4.5,7.4-4,13.2,1.2,19.9
			c16.3,21.4,32,43.2,48.1,64.8c2.8,3.7,6.9,9.5,11,2.7C2216.2,1791.3,2230.5,1765.7,2245,1740.3z M2095.5,1320.2
			c-21.1,37.1-35.8,49.5-61.1,54.3c-9.2,1.7-24.2-4-24.7,12.5c-0.6,18.4-3.2,39.1,16.2,50.7c32.5,19.5,95.5-15.2,97.4-53.4
			C2124.5,1359.2,2116,1337.8,2095.5,1320.2z M2043.5,1686.4c-15.5,24.3-29.5,46.3-43.5,68.2c-3.1,4.9-6.2,9.8-2,15.7
			c13,18.2,22.7,38.9,39.6,55.9c14.4-24.9,27.8-48.3,41.3-71.6c3.8-6.5,7.4-12.4,1.4-20C2068.1,1719.4,2056.6,1703.7,2043.5,1686.4z
			 M2202.6,1900c-17.3,30.3-32.4,57.3-48,83.9c-4.9,8.4-6.9,15.4-0.1,24.2c6.7,8.6,14.3,6.5,22,4.3c24.4-6.9,47.7-16.7,70.2-28.4
			c11.4-5.9,10.8-11.6,3.8-20.6C2234.9,1943.6,2220,1923.3,2202.6,1900z M2267.9,1699.6c15.1-27.3,28.9-52,42.6-76.8
			c2.2-4,7.1-8.2,3-13.1c-3.7-4.5-8.9-1.7-13.7-1c-26.6,3.8-53.2,8.5-80.1,2.9c-7.4-1.6-12.6,0.6-15.9,7.5c-2.9,6-1.7,10.8,2.7,15.5
			C2226.6,1655.6,2246.4,1676.9,2267.9,1699.6z M2039.4,1908.5c-16.6,22.8-28.9,42.2-14.9,67.6c3.3,6,2.8,14.4,3,21.7
			c0.2,10.3-3.9,22.3,13.3,22.3c17.4,0,36.8,13.4,50.9-7.9c4.7-7.1,7.8-13.5,1.9-22.2C2075.6,1963.9,2058.4,1937.2,2039.4,1908.5z
			 M2485.2,2441.9c-44.9,11.3-87.7,20.5-131.3,25.5c-16.2,1.9-8.2,10.1-2.6,16c22.4,23.1,49.5,31.2,80.5,22
			C2461.8,2496.4,2478.8,2475.6,2485.2,2441.9z M2042.9,1608.9c9.1-14.2,18.4-29.2,28.3-43.9c4.4-6.5,4.1-11.5-1.4-17.2
			c-20.6-21.4-40.9-43.1-64.2-67.7C2004.5,1530,1993.4,1577.6,2042.9,1608.9z M2106.4,1699.7c2.6-2,5.2-3,6.3-4.9
			c9.1-15.4,18-30.9,26.8-46.5c7.3-13-17.6-57.5-32.3-57.4c-2.4,0-5.1,3.2-7.1,5.4c-33,36.2-33.8,51-4.5,90.2
			C2099,1691,2102.7,1695.2,2106.4,1699.7z M1987.7,1612.1c-10,16.3-16.4,33.6-28.5,44.9c-21.7,20.4-15.4,37.2,0.5,55.5
			c3.1,3.5,5.9,7.2,10.1,12.5c8.7-13.8,16.5-26.1,24.3-38.4C2018.6,1648.5,2018.6,1648.5,1987.7,1612.1z M1868.4,1742.9
			c18.4,10.8,34.9,20.7,51.7,30.2c4.9,2.7,8.9,11.8,16,4.7c6.1-6.1,7.6-13,3-22c-22.8-45.2-27.9-46.6-67.9-16.5
			C1870.6,1739.8,1870.2,1740.6,1868.4,1742.9z M1968.9,1801.8c-9.6,24.4,10,38.1,10.8,55.6c0.8,17.8,2.3,35.6,3.5,53.3
			c11-17,34.6-28.5,23.9-50.5C1997.6,1840.7,1983.4,1823.5,1968.9,1801.8z"/>
		<path class="st0" d="M1628.8,1620.1c-70-0.6-119.9-71.8-89-130.9c22.8-43.6,17.3-89.1-9.7-130.8c-15.7-24.4-36.1-30.7-63.6-20.9
			c-26.9,9.7-46.7,27.2-56.2,54.5c-13.6,39.1-40.7,56-81.3,50.9c-20.3-2.5-32.9,5.3-44,22.8c-25.8,40.5-59.7,72.2-108.5,82.6
			c-39.3,8.3-75,0.1-104.3-28.7c-4.4-4.3-15.1-10.9-5.7-17.1c9.5-6.2,16.8-23,32.5-13.3c49.1,30.1,86,26.3,126.5-14.6
			c9.2-9.3,18.6-19.1,24.7-30.4c18-32.8,44.6-46.7,81.4-41.5c20,2.8,32.7-4.7,39.7-24c9.4-26,25.1-47.8,48.9-62.7
			c8.3-5.2,10.3-10.8,7.2-20.3c-11.9-36.1-4.5-66,29.4-87.1c6.8-4.3,12.7-10.5,17.8-16.9c15.2-18.7,36.2-35.6,24.2-64.5
			c-12.7-30.6-37-44.6-69-47c-9.1-0.7-18.3,3.4-21.8-11.9c-6.1-26.9-5.5-29.4,22.5-28.7c33.5,0.8,62.3,12.8,85,37.8
			c35.6,39.1,37.2,86,3.1,126.6c-12.6,15-26.3,29.8-42.1,41c-14.8,10.6-13.4,22.3-10.7,36.4c3.2,16.9,15.7,9.5,25.2,10.1
			c48.3,3.4,77.4,32.9,88.7,76c9.1,34.5,20,47.8,59.8,45.8c54.9-2.8,92.3,45.9,89,101.9C1725.2,1574.6,1681.3,1620.7,1628.8,1620.1z
			 M1687,1510c-0.2-30.8-17.3-53.2-43.5-56.9c-36.2-5.1-47.9,2.5-59.7,38.4c-2.3,7-4.8,14-7.9,20.6c-8.5,18.1-4.1,33.7,9.3,47
			c17.5,17.3,38.2,25.5,62.6,16.4C1671.1,1566.7,1687.2,1539.3,1687,1510z"/>
		<path class="st0" d="M1606.7,1030c-59.5-0.1-107.8-48.9-107.3-108.4c0.6-59.2,49.6-107.9,108.7-107.8
			c59.5,0.1,107.6,48.3,107.8,108.1C1716.2,983.8,1669.3,1030.2,1606.7,1030z M1610.9,856.1c-38.7-1.3-68.3,25.7-69.7,63.6
			c-1.4,37.3,27.2,68.6,64.2,70.2c36.8,1.6,68.4-27.6,70.1-64.6C1677.2,888.3,1648.2,857.3,1610.9,856.1z"/>
		<path class="st0" d="M451.4,1475.2c57,0.6,102.7,46.6,102.6,103.4c-0.1,56.8-46.2,103-103,103.4c-57.7,0.4-104.2-46.8-103.6-105
			C348,1519.8,394.2,1474.6,451.4,1475.2z M450.8,1639.8c36-0.1,61.6-25.8,61.4-61.6c-0.2-35.7-26.2-61.4-62-61.3
			c-35.1,0.1-62,27-61.9,61.9C388.5,1613.6,415.4,1639.9,450.8,1639.8z"/>
		<path class="st0" d="M782.9,1467.3c31.2,0.5,56.1,25.1,56.2,55.5c0.1,30.4-27.9,57.7-58.5,57c-31.4-0.7-56.2-27.5-55.2-59.5
			C726.4,1488.9,750.3,1466.8,782.9,1467.3z"/>
		<path class="st0" d="M954.1,1551.8c-31.7,0.2-56.1-23.2-56.9-54.7c-0.8-32.3,24.2-58.7,55.7-59c30.7-0.3,58.1,27.1,57.7,57.8
			C1010.2,1526.5,984.9,1551.5,954.1,1551.8z"/>
		<path class="st0" d="M2401.4,1172.7c-76.2-0.6-135.7-60.4-135.2-135.8c0.6-74.7,62.4-135.5,137.3-135.1
			c74.9,0.4,135,61.8,134.6,137.3C2537.7,1115.4,2478.4,1173.3,2401.4,1172.7z M2497.4,1037.1c-0.4-52-42.1-93.5-94-93.5
			c-53.5,0-95.9,41.6-96.1,94.4c-0.2,52.2,43.2,95.3,95.7,95.1C2455.9,1132.8,2497.8,1090.1,2497.4,1037.1z"/>
	</g>
</g>
</svg>
