<?xml version="1.0" encoding="utf-8"?>
<!-- Generator: Adobe Illustrator 23.0.0, SVG Export Plug-In . SVG Version: 6.00 Build 0)  -->
<svg version="1.0" xmlns="http://www.w3.org/2000/svg" xmlns:xlink="http://www.w3.org/1999/xlink" x="0px" y="0px"
	 viewBox="0 0 3000 3000" style="enable-background:new 0 0 3000 3000;" xml:space="preserve">
<style type="text/css">
	.st0{stroke:#000000;stroke-width:10;stroke-miterlimit:10;}
</style>
<g id="Layer_1">
</g>
<g id="Layer_2">
	<g>
		<path class="st0" d="M2929.4,1460.3c-6.3,186.7-20.9,383.7-89.4,572.1c-46.2,126.9-100.3,249.9-179.6,360.5
			c-103.8,144.7-238,248.3-407,306.4c-75.4,25.9-148.6,58.4-227,74.7c-47.2,9.8-94.9,18.1-141.4-3.9c-6.3-3-11.9-0.3-17.7,1
			c-264.8,57.2-532.8,78.5-803.3,69.2c-137.4-4.7-274.9-7.9-410.9-31.7c-77-13.5-151.8-33.6-222.2-68.7
			c-155.5-77.6-230.4-216.3-219-390.4c2.9-44.3,2-83.9-16.5-127.9c-45.4-108.4-65.1-224.3-75.6-341.6
			c-15.9-177.2-14.2-354.7-7-532.1c6.3-154.6,19.1-309.5,75-455.1c131.3-341.9,373.7-561.3,731.7-650.1
			c205.7-51,415-69.7,626.1-72.5c132.1-1.8,264.2-3,396.1,7.7c140.4,11.3,278,35.1,408.4,90.7c207.7,88.5,346.5,245.1,438.6,447.4
			c61.7,135.6,93.1,279.5,116.4,425.5C2921.3,1243.1,2927.6,1345.8,2929.4,1460.3z M2068.7,2438.8c-69,8.3-132.4,5.9-193.5-14.7
			c-200.6-67.7-288.3-269.7-251.8-453.3c31.6-159.3,134-266.2,278.3-332.6c114.7-52.8,236.8-59.2,360.2-40.8
			c19.9,3,20.1-3.7,20.6-18.4c3.3-91.7-2.7-182.7-15.7-273.4c-22-154.2-94.8-277.4-222.5-367.6c-68.5-48.4-143.3-83.9-222.3-111.7
			c-116.1-40.8-234.6-59.1-356.9-38.8c-139.9,23.2-276.1,60.1-406.9,115.4c-80.4,34-151.4,82.3-205.8,151.2
			c-102.4,129.8-186.7,270.6-248.5,424.2c-76.2,189.5-91.7,381.5-21.9,576.9c12.2,34.3,22.6,69.4,28.9,105.5
			c13.4,77.1-14.2,134.5-80.9,154.5c-72,21.6-145.9,28.4-220.6,10.9c-15-3.5-32.3-21.2-42.9-10.8c-8.8,8.7-4.7,30.8-5.5,47
			c-7.9,154.3,62.4,271.6,201.9,337.6c35,16.5,71.2,29.6,108.6,39.3c135.3,35.2,273.8,42.9,412.5,48.8
			c179.6,7.6,358.9,5.8,537.9-12.4c105.8-10.8,210.6-28.3,314.8-49.2c6.2-1.2,11.3-2.7,11.6-11.1c1.3-41.2,25.3-70.4,52.7-97.4
			c28-27.6,57.6-53.5,84.4-82.2C2013.5,2505.8,2039.1,2473.5,2068.7,2438.8z M2175.4,2671.6c197.8-54.1,352.5-164.3,462.1-333.9
			c146.2-226.3,220.5-476,235.6-744.4c7.7-137.7,7-275-12.7-411.6c-22.4-155.1-53.7-308-120-451.4
			c-81.2-175.7-200-316.3-377.6-401.4c-120-57.5-248.2-84.8-379.6-97.3c-232.7-22.2-465.7-15.2-698.4,0.6
			c-120.4,8.2-238.7,31.5-356,59.7c-320.2,77-542.8,271.4-676,569.2c-61.4,137.2-78.9,285.3-87.1,433.8
			c-9.7,175.3-12.8,350.7-0.8,526.1c8.5,124.1,29.6,245.5,67.8,364.3c25.6,79.7,80.2,98.5,152.5,100.7c12.2,0.4,13.5-4.6,9.4-14.9
			c-5.9-15.1-10.9-30.6-15.9-46c-78.4-240-102.4-484.9-39.8-730.7c106.8-419,365.8-715.6,755.1-897.6
			c209.2-97.8,429.8-126.7,657.2-76.1c134.4,29.9,260.7,82.2,375.4,159c250.4,167.7,390.5,399.9,405.6,703.7
			c6.2,123.6-4.4,246.5-18.3,368.9c-30.4,267.6-113.8,518.7-241.9,755.2C2242,2562.7,2210,2616.8,2175.4,2671.6z M2482.1,1499.7
			c3.7-61.7,1-110.3-3-159c-14.1-167.8-74-317.6-183-445.4c-165.8-194.5-382.3-299.3-631.2-339.3c-145.4-23.4-289.3-6.4-429.2,39
			c-265.9,86.2-478,247.2-643.4,470.7c-154.1,208.2-234.6,441.9-237,701.7c-1.5,159.3,26.1,313.8,77.9,464.2
			c18.8,54.5,18.6,54.5,74,39.2c40.2-11.1,58.1-35.8,56.9-77.4c-1-35.1-12.9-67.7-22.9-100.6c-22.5-73.8-44.7-147.6-51.3-225.2
			c-10.6-125.1,10.6-245.5,51.1-363.3c53.4-155.1,138.2-293.5,230-427.8c67.8-99.2,157.6-172.1,268-220.1
			c99.8-43.4,204.5-70.7,309.5-97.1c115.3-29,231.4-39.6,349.6-16.8c131.2,25.3,253.8,71.1,363.8,147.3
			c128.3,88.8,213.7,207.4,245.3,362.3c28.6,140,31.1,281.2,19.6,422.8c-12.1,149.7-33.5,298.5-56.4,446.9
			c-17.5,112.9-47.3,219.8-128.8,307.7c-66.2,71.4-123,151.5-197.2,215.8c-13.3,11.5-24.7,25-35,39.5c-20.3,28.7-14.5,42.9,20.2,47
			c50.4,5.9,97.9-8.7,145.5-22c12.3-3.5,21.1-10,28.4-20.8c73-107.9,136.8-220.9,191.3-339.2C2421.4,2075.9,2478,1787,2482.1,1499.7
			z M2155,1735.1c-23.6-1.5-48.6,1.3-73.3,4.7c-20.1,2.7-40,6.7-59.7,11.8c-157.9,40.6-246.4,152.4-242.7,306.6
			c2.3,97.2,67.8,191,165.9,215.7c80.3,20.3,158.2,12.7,234.7-17.2c8.9-3.5,11.7-9.6,14.1-17.9c15.9-55.3,26.7-111.8,34.3-168.7
			c13.8-103.2,30.8-206,40.3-309.8c1-11.4-1.6-15.8-12.9-17.3C2222.7,1738.7,2189.9,1733.9,2155,1735.1z M2162.6,2316.8
			c-4.5,0.6-7.1,0.6-9.5,1.3c-62.8,18.3-126.3,22.2-190.8,10.6c-97.1-17.5-166.8-71-207.9-160.5c-55.4-120.5-27.1-336.1,160.4-428.9
			c107.8-53.4,221.2-63.3,338.4-46.8c10.7,1.5,23.3,8,23.4-12.5c0-15,10-33.1-17.2-34.7c-25.7-1.5-51.2-5.2-76.9-6.2
			c-171.2-6.3-320.2,40.3-433.5,177.4c-101.6,122.8-113.7,309.8-20.8,438.6c84.8,117.7,203.5,152.8,343.9,133
			C2118.1,2381.7,2142.5,2355.8,2162.6,2316.8z"/>
		<path class="st0" d="M987.8,1412.2c68.1,2.5,135.4,32.5,182.3,101.3c5.8,8.5,10.6,9.8,19.8,6.4c24.5-9.2,45.9-23.1,64.7-41
			c26.6-25.2,50.5-52.9,75.5-79.6c41.7-44.6,87.3-83.5,150.7-93.3c7.3-1.1,14.8-1.9,22.2-2c39.9-0.5,41.5,2.1,29.4,39.3
			c-2.8,8.6-4.3,14-16.1,11.8c-30.4-5.7-57.1,5.8-82.6,21c-44.1,26.1-75.1,66-108.8,102.8c-33.7,36.8-69.6,70.4-117.8,87.4
			c-9.9,3.5-9.1,8.7-7.7,17c17.3,102.4-19.3,182.8-100.5,245.1c-11.1,8.5-16.9,6.3-22.2-4.9c-0.3-0.6-0.7-1.2-1-1.8
			c-15.7-25.3-15.7-25.3,7.5-44.6c78.2-65.2,94.6-175.9,36.9-248.7c-52.4-66.1-154.8-85.8-234.8-45.6c-6,3-13.1,12.5-19.3,5.3
			c-9-10.6-16.1-23.4-21.7-36.2c-1.9-4.3,7.1-7,11.7-9.6C891.2,1422.6,934.1,1411.8,987.8,1412.2z"/>
		<path class="st0" d="M1925,1471.5c-0.2,30.9-27.1,56.9-57.9,56c-30.1-0.8-55.5-27-55.2-56.7c0.4-30.8,27.4-57.1,58-56.1
			C1900.1,1415.6,1925.2,1441.5,1925,1471.5z"/>
		<path class="st0" d="M2117.2,1389.4c31,0.3,56.9,26.7,56.1,57.2c-0.8,30-26.2,55.2-56.1,55.5c-30.5,0.3-57.1-26-57.2-56.6
			C2059.9,1414.9,2086.2,1389.1,2117.2,1389.4z"/>
		<path class="st0" d="M1534.5,2422.1c-31.2,0.1-56.5-25.3-56.2-56.6c0.2-30.4,24.7-55.3,55.1-56c30.6-0.7,57.1,25.1,57.4,55.9
			C1591,2396.4,1565.6,2422,1534.5,2422.1z"/>
		<path class="st0" d="M1475.8,2168.4c-31.2,0.4-57.1-25.4-56.9-56.6c0.2-30.7,24.9-55.4,55.6-55.7c31.1-0.3,55.9,23.5,56.7,54.3
			C1532,2142,1507.2,2168,1475.8,2168.4z"/>
		<path class="st0" d="M1832.5,2544.3c0.1,31.7-25.2,57-56.6,56.6c-30.5-0.4-55-25.4-55.1-56.2c-0.1-31.5,25.6-57.2,56.7-56.7
			C1808,2488.6,1832.4,2513.5,1832.5,2544.3z"/>
		<path class="st0" d="M1545.6,1869.6c-33.5-0.2-56.2-22.7-55.8-55.3c0.4-31,24.8-55,55.9-55c31.8,0,56.3,25.2,55.8,57.2
			C1601,1847.8,1577.8,1869.8,1545.6,1869.6z"/>
		<path class="st0" d="M1751.1,1604.7c-0.4,30.8-25.1,55.3-55.9,55.3c-31.4,0-56.6-25.7-56-57.3c0.6-31.8,25.8-55.7,58-54.9
			C1728,1548.7,1751.5,1573.4,1751.1,1604.7z"/>
	</g>
</g>
</svg>
