<?xml version="1.0" encoding="utf-8"?>
<!-- Generator: Adobe Illustrator 23.0.0, SVG Export Plug-In . SVG Version: 6.00 Build 0)  -->
<svg version="1.0" xmlns="http://www.w3.org/2000/svg" xmlns:xlink="http://www.w3.org/1999/xlink" x="0px" y="0px"
	 viewBox="0 0 3000 3000" style="enable-background:new 0 0 3000 3000;" xml:space="preserve">
<style type="text/css">
	.st0{stroke:#000000;stroke-width:10;stroke-miterlimit:10;}
</style>
<g id="Layer_1">
</g>
<g id="Layer_2">
	<g>
		<path class="st0" d="M1503.9,2954.7c-267.5,0-535,2.9-802.4-0.8c-265.8-3.6-455.9-130.9-570.7-369.8
			c-38.1-79.2-52.3-164.6-52.7-252.1c-0.5-110.2-0.5-220.3,0-330.5c0.7-163.5,55.6-306.3,166.6-426.8c11.1-12,12.5-21.7,7.7-36.6
			c-48.6-152.7-77.6-308.9-74.2-469.7c4.5-213.1,63.2-408,200.2-575.3c112.3-137.2,257.2-227.7,420.5-291
			c146-56.6,298.1-89.2,453.2-108.5c283.2-35.1,567.9-39.2,852.6-40.4c127.4-0.5,254.9,6.8,379.1,40.3
			c258.6,69.8,401.5,243.3,445.2,502.4c34.3,203-3.9,398.3-72.3,589.2c-39.1,109.2-90.6,212.6-150.8,311.6
			c-7.2,11.8-7.9,18.1,3.9,28.4c145.9,127.1,218,288.2,218.6,481.3c0.4,108.1,0.3,216.2,0,324.3c-0.9,301.8-205,551.8-500.3,612.8
			c-44.3,9.1-89.2,11.5-134.3,11.4c-131.7-0.2-263.3-0.1-395-0.1C1767.2,2954.7,1635.6,2954.7,1503.9,2954.7z M1502.8,2903.9
			c264.6,0,529.3,0,793.9,0c24.3,0,48.4-1,72.6-3.4c236.9-23,441.8-205.2,493.7-438c18.5-82.9,12.6-166.7,14.5-250.4
			c0.4-16.4-4.5-21-20.9-20.9c-144.8,0.6-289.6,0.6-434.4,0.1c-17.6-0.1-20.2,2.8-10.9,18.7c69.8,119.3,61.2,262.1-22.2,372.5
			c-24.6,32.6-17.6,28.8-46.2,4.8c-12-10.1-10.9-15.6-1.3-27.2c85.5-103.1,87-250.9,4.9-357.3c-5.5-7.2-11.1-11.3-20.5-11.2
			c-85.9,0.2-171.8,0.3-257.7,0c-11,0-14.1,3.9-13.9,14.6c1,44.3-0.9,88.6-6.8,132.5c-14.3,105.3-48.4,204.1-99.9,296.9
			c-1.9,3.3-4,9.9-7.7,8.1c-13.6-6.6-28.1-12.9-39-22.9c-5.5-5,4.6-14.3,8.2-21.2c65.1-121.5,97.4-250.8,94.4-388.9
			c-0.3-15.6-5.2-19.5-20.4-19.4c-110.8,0.6-221.7,0.8-332.5-0.1c-19.9-0.2-23.5,5.4-21.9,24.4c13.1,148.5-18.8,287.2-92.1,416.8
			c-6,10.6-10.8,15.1-21.5,6.3c-4.8-3.9-10.3-7.3-16-9.6c-12.8-5.2-13.4-11.7-6.6-23.5c68.6-120,96.9-249,86-387
			c-1.7-21.1-6.7-27.6-28.7-27.5c-273,0.8-545.9,0.5-818.9,0.5c-192.6,0-385.2,0.2-577.8-0.4c-18.1-0.1-25.7,3.4-24.7,23.5
			c1.7,33.9,0.8,67.9,0.4,101.8c-1.1,85.6,12.9,168.1,47.7,246.7c38.9,87.9,96.4,161.2,171.6,220.8c6.7,5.3,11.3,9.3,16.6-2.3
			c33.6-73.3,83.1-134.8,138.7-192.8c114.7-119.7,252.9-188.1,418.8-199c67-4.4,133,1.7,195.9,26.7c39,15.6,57.9,48.6,56.2,90.5
			c-1.8,43.6-23.5,74.5-62.5,89.4c-25.7,9.8-52.5,12.2-79.6,12c-31.2-0.3-62.3,1.2-93,7.3c-159.3,31.9-267.6,131.2-349.9,265
			c-6.2,10.1-2.3,13,7.5,14.4c32.9,4.8,65.8,8.6,99.2,8.6C965.2,2903.9,1234,2903.9,1502.8,2903.9z M2137.5,103.1
			c-28.4,0-56.8,0.5-85.2-0.2c-11.4-0.3-17.4,3.9-21.9,14.3c-15,34.2-30.9,67.9-46.5,101.8c-46.2,100.5-92.1,201-138.8,301.3
			c-6.4,13.7-4,17.1,10.7,19c19.1,2.4,38.1,7.1,56.8,12.1c102.3,27.3,191.6,75.5,255.9,162.5c56.1,76,81.7,163.5,97.7,255.2
			c22,127,31.6,253.9,10.2,382c-4.3,25.8-3.8,26.3,22.7,25.9c123.1-1.6,236.8,30.1,340.6,96.2c12.5,8,17.5,6.5,24.8-5.9
			c62.4-105,116-214.2,154.9-330.1c57.7-172,88.7-347.3,60.1-529C2845,389,2722.1,202,2454.9,138.5
			C2350.4,113.7,2244.2,107.9,2137.5,103.1z M2156.4,793.4c0.6-7.5-4.7-12.6-8.1-18.3c-41.6-69.6-100.8-118.4-175.3-149.6
			c-91.2-38.2-187.3-47.9-284.6-49.4c-95.6-1.6-191.1,4-286.3,12.1c-108.7,9.2-215.4,27.8-317.9,66.3
			C974.2,695.7,877.6,756,810.9,855.3c-107.3,159.8-105.9,332.8-58,510.7c2.5,9.4,8.2,11.1,16.8,11.1c79-0.2,158-0.4,236.9,0.2
			c13.5,0.1,17-5.5,16-17.4c-1.5-19.3-1.8-38.8-4.2-58c-6.9-56.4-17-112.9-7.8-169.6c17.7-108.7,82.7-184.2,176.2-235.9
			c102.5-56.6,214.6-70.9,329.7-66c36.8,1.6,70.5,14.5,96.4,42.6c53.8,58.4,32.1,136.2-44,158.1c-15.4,4.4-31.1,6.1-47.1,6.8
			c-52.7,2.1-105,6-153.4,30.7c-27.2,13.9-46.1,33.5-57.1,62.5c-27,71.2-42,144.6-47.4,220.4c-1.4,19.7,1.9,26.1,23.2,26
			c180.1-0.9,360.2-0.5,540.4-0.4c41.1,0,41.7-0.1,37.2-40.1c-12-104.7-4.4-209,9.6-312.7c17-125.6,89.2-199.8,212.2-222.5
			C2109.4,797.5,2132.9,796.1,2156.4,793.4z M1265.7,144.7c-5.5,0-9.6-0.6-13.5,0.1c-56,9.2-112.3,16.7-167.7,28.2
			C934.9,204.1,790,249,656.4,325.7C444.3,447.3,307.7,626,253.6,864.4c-49.5,217.9-21.4,431.9,42.1,643.1c4,13.3,8.2,10.7,16.3,4.3
			c109.7-86.3,234.1-132,373.9-134.5c13.1-0.2,16.8-3.4,13.1-17c-12.9-47.5-21.7-95.8-25.4-144.9
			c-11.1-148.6,17.4-286.6,108.9-407.6c69.3-91.5,161-152.8,266.6-194.5c13.3-5.2,21.1-12.8,26.6-26
			c31.9-75.7,64.7-151.1,97.2-226.6C1203.8,289.1,1234.5,217.4,1265.7,144.7z M2496.9,2140.1c119.9,0,239.7-0.3,359.6,0.3
			c16,0.1,21.8-3.9,21.1-20.7c-1.3-33.2-0.8-66.5-0.3-99.7c1.4-86.9-10.9-171.5-48-250.8c-90.9-194.4-242.5-308.9-455.8-336.8
			c-90.8-11.9-182.7-2.3-274.1-4.6c-13.7-0.4-11.7,7.6-11.3,16.1c1.9,39.4,3.8,78.9,5.5,118.3c8,185.4,16.1,370.8,23.3,556.3
			c0.7,18.8,7.5,22.1,24.5,22C2259.9,2139.7,2378.4,2140.1,2496.9,2140.1z M821.6,1778.9c-0.1,0-0.1,0-0.2,0
			c4.8-110.7,9.7-221.3,14.6-332c0.4-9.3,4.5-19.6-12.3-19.1c-63,2.1-126-2.7-188.9,3.6c-235.7,23.8-439.8,206.1-491.3,438
			c-18.4,82.9-12.5,166.7-14.5,250.4c-0.4,16.9,5.3,20.6,21.2,20.6c212-0.5,423.9-0.5,635.9,0c14.7,0,20.4-3.1,21-19
			C811.3,2007.2,816.6,1893.1,821.6,1778.9z M1143.8,2139.1c10.4,0.5,16.5,1,22.5,1c113.6,0,227.2-0.3,340.7,0.4
			c15.7,0.1,24.9-5.3,34.2-17.5c135.7-178.4,271.9-356.4,407.9-534.5c26.9-35.2,53.4-70.6,80.8-105.4c12.7-16.1,8.8-33.9,4.1-49.5
			c-3.6-12.2-19.3-5.2-29.4-5.3c-74.1-0.6-148.2,0.3-222.3-0.8c-17.7-0.3-29,5.2-40.4,18.4c-152.6,177.3-305.7,354.1-458.7,531.1
			C1237.8,2029.9,1192.3,2082.8,1143.8,2139.1z M1690.5,1428c-43.9,0-82.6,0.6-121.3-0.3c-13-0.3-21.7,3.8-30.3,13.3
			c-51.4,56.2-103.4,111.8-155.3,167.6c-158.4,170.3-316.9,340.6-475.3,510.9c-5.3,5.7-11.8,10.7-13.9,20.6
			c54.1,0,106.7-0.7,159.3,0.4c16.3,0.3,26.6-5.4,36.9-17.4c147.2-171,294.8-341.6,442.2-512.4
			C1584.3,1551.1,1635.7,1491.5,1690.5,1428z M1142.8,1377c16.6,0,33.3-0.9,49.9,0.3c14.9,1.1,20-3.1,20.6-19.1
			c3.2-83.6,20.5-164.6,49.3-243.1c16.1-43.9,45.5-75.1,88.1-94.3c42.2-19.1,86.1-30,132.4-31.5c25.6-0.8,51.3-1.3,76.2-8.5
			c31.7-9.2,41.1-34.9,23.9-63.1c-13.5-22.2-35.2-32.3-59-34.1c-125.8-9.3-246.8,7.2-351.9,82.9c-77.2,55.6-119.3,131.4-113.7,229.5
			c3.3,57.4,15.4,113.9,15.6,171.6c0,9,6,9.5,12.6,9.5C1105.4,1377,1124.1,1377,1142.8,1377z M953.8,2439c-21.4,1.6-42.9,2-64.1,5.1
			c-227.6,32.3-375.9,169.9-481.7,363.7c-5.8,10.5-3.3,15.6,6.4,21c32.8,18.1,66.8,33.1,101.9,46.2c12.5,4.7,17.8,1.4,24-9.6
			c26.3-46.6,56.7-90.2,93.6-129.2c90.3-95.6,197-160.7,330.2-175.1c35.7-3.9,71.9-3.4,107.7-6.5c20.3-1.8,39.7-7.5,48.1-30
			c12.3-33.1-2.4-58.7-40.9-68.7C1038,2445.2,996.3,2439.3,953.8,2439z M1276.4,1428c-128.6,0-251.2,0.2-373.8-0.2
			c-12.1,0-14.5,4.1-15,15.4c-5,119.7-10.9,239.4-16,359.1c-1.1,24.9-0.2,49.8-0.2,77.2C1006,1729.4,1139.4,1580.7,1276.4,1428z
			 M1481.4,1428c-42.1,0-79.2,0.7-116.2-0.3c-14.5-0.4-24.3,3.8-33.8,14.9c-27.4,32.1-56,63.2-84.2,94.7
			C1122.8,1675.9,998.4,1814.4,874,1953c-4.1,4.6-9.6,9-9.6,15.6c-0.3,41.2-0.2,82.3-0.2,123.3
			C1067.7,1873,1272.8,1652.4,1481.4,1428z M2085.7,1112.3c0,82.4,0.3,164.8-0.3,247.2c-0.1,13.4,3.4,18.3,17.3,17.9
			c33.2-0.9,66.5-0.9,99.7,0c13.8,0.4,18.4-4,21-18c17.2-95.5,19.3-191.5,6.5-287.4c-9.4-70.5-18-141.4-41.4-209.2
			c-4.2-12.1-9.4-17.7-23.3-17.1c-20.8,0.8-41.4,2.1-62.1,4.3c-14.3,1.6-17.8,7.8-17.7,21.4C2086,951.6,2085.7,1031.9,2085.7,1112.3
			z M2042,1559.4c-1.7-0.5-3.5-1-5.2-1.5c-147.4,193-294.7,386-444.5,582.2c47.4,0,89.6-0.3,131.8,0.2c10.3,0.1,14.6-6.4,19.5-13
			c98.8-134.3,197.5-268.5,296.3-402.8c3.6-5,8.3-9.3,8-16.3C2045.8,1658.6,2043.9,1609,2042,1559.4z M1773.6,530.1
			c8.8,3.9,13.7-3.5,17.6-13.7c3.4-9,7.8-17.7,11.8-26.5c56.2-122.3,112.4-244.7,169-366.8c6.5-14,6-19.1-11.4-18.4
			c-40.8,1.7-81.6,2.1-122.5,2.4c-12.4,0.1-19.6,3.4-24.8,16.2C1760,252,1706.1,380.6,1651.8,509c-5.3,12.5-5,16.7,10.1,16.4
			C1697.9,524.9,1733.9,524.9,1773.6,530.1z M1132.9,583.6c41.6-11.5,79-22.1,117.3-26.2c24.8-2.7,36.3-13.6,45.2-36.2
			c50.4-127,102.4-253.5,154.3-379.9c5.2-12.8,7.1-18.6-10.8-16.2c-32.2,4.2-64.7,7.1-97.1,9c-13.3,0.8-18.9,6.5-23.7,18
			c-22.9,54.8-46.6,109.2-70.1,163.8C1210.1,403.8,1172.3,491.9,1132.9,583.6z M2035.2,869.7c-55.6,27.6-91,68-102.6,124.8
			c-24.7,121.5-30,244-13.4,367.2c1.7,12.5,7.2,15.9,19,15.6c25.6-0.7,51.3-1.2,76.8,0.2c16.7,0.9,20.7-4.7,20.6-20.9
			c-0.6-153.6-0.4-307.2-0.4-460.9C2035.2,888.2,2035.2,880.7,2035.2,869.7z M1797.6,2140.1c89.2,0,172.9-0.2,256.6,0.2
			c12.8,0.1,12.3-6.8,11.9-16c-4.8-102.3-9.2-204.6-14.1-307c-0.3-5.4,3.3-12.2-4.3-17.1C1965.3,1912.2,1883,2024,1797.6,2140.1z
			 M1457.4,257.8c84.3-6.6,164.1-12.9,244.1-18.8c9.2-0.7,10.9-6.9,13.5-13.2c13.8-33.1,27.1-66.5,41.8-99.2
			c6.7-14.7,2.4-17.4-11.8-16.7c-72.6,3.3-145.2,6.1-217.8,9.1c-7,0.3-13.6,0.6-16.9,8.9C1493.4,170.1,1476.1,212.1,1457.4,257.8z
			 M1687.4,291.5c-83.1,6.3-162.9,12.5-242.8,18.3c-9.1,0.7-11,6.7-13.6,13.2c-12.2,30-23.9,60.3-36.9,90c-6,13.6-0.4,15.2,11,15.2
			c70.5-0.2,141.1-0.1,211.6-0.1c6.9,0,13.6,0.2,17.1-8.2C1651.1,378,1668.7,336.2,1687.4,291.5z M1341.5,542.7
			c81.6-9.3,160.2-12.4,238.8-16.4c5.1-0.3,9.3-1,11.5-6.6c5-12.7,10.3-25.2,16.6-40.3c-79.5,0-156,0.1-232.6-0.1
			c-7.9,0-10.9,4.4-13.3,10.5C1356,506.4,1349.4,523,1341.5,542.7z"/>
	</g>
</g>
</svg>
