<?xml version="1.0" encoding="utf-8"?>
<!-- Generator: Adobe Illustrator 23.0.0, SVG Export Plug-In . SVG Version: 6.00 Build 0)  -->
<svg version="1.0" xmlns="http://www.w3.org/2000/svg" xmlns:xlink="http://www.w3.org/1999/xlink" x="0px" y="0px"
	 viewBox="0 0 3000 3000" style="enable-background:new 0 0 3000 3000;" xml:space="preserve">
<style type="text/css">
	.st0{stroke:#000000;stroke-width:10;stroke-miterlimit:10;}
</style>
<g id="Layer_1">
</g>
<g id="Layer_2">
	<g>
		<path class="st0" d="M138.4,2006.9c7.6-87-3-184.8,16.9-280.7c26.4-127.4,113.5-197.5,244.3-198.5c44.3-0.3,88.5-0.3,132.8-5.1
			c89.9-9.9,146.9-60.1,175.6-142.8c29.8-85.8,40.1-176.4,62-264.3c40.8-164,90.4-324.4,162.6-477.9
			c105.2-223.6,278.4-364.3,510.6-442.1c198.2-66.4,399.5-92.9,607.7-76.6c141.9,11.2,284.2,17.3,426,32.3
			c263.3,27.8,367.5,203.1,403.6,413.8c21,122.8,7.9,246.4-1.9,369.5c-11.5,145.1-23.8,290.1-35.7,435.2
			c-11.7,143-23.4,285.9-35,428.9c-9.5,116.7-18.7,233.4-28.5,350.1c-7.9,94.5-14.1,189.5-33.7,282.4
			c-26.8,126.9-105.5,218.5-208.9,291c-109.3,76.6-234,114.3-363.3,139.6c-214.9,42.1-430.5,54.7-647.2,15.9
			c-172.6-31-329-96.8-459.5-217.8c-72.2-66.9-153.2-119.8-253.3-134.2c-75-10.8-149.4,1.6-223.4,13
			c-68.1,10.5-136.4,17.5-204.7,5.8c-146.5-25-224.9-111-242-258.9C133,2195.8,139.3,2106.2,138.4,2006.9z M194.2,2071.8
			c-3.8,65.4-6.6,130.7-0.2,196.2c14.6,148.6,97.7,226,246.8,229.4c59.5,1.3,117.8-7.8,176.2-16.4c98.9-14.6,197-21.8,293.5,15.4
			c73.1,28.2,135.4,72.6,192.1,125c134.7,124.4,297.3,185.8,475.4,210.9c176.6,24.9,352.8,19.7,528.5-11.8
			c133.5-23.9,264.6-54.7,380.7-128.9c102-65.2,180.2-149.9,206.7-272c16.1-74.3,22.1-150.3,28.3-226
			c11.2-137.7,22.4-275.5,33.6-413.2c12-147.2,24.2-294.4,36.2-441.6c11.3-138.8,18.7-278,35.3-416.2c9.1-76-11-138.8-52.5-198.5
			c-70-100.7-173.5-144.7-288.7-165.2c-163.5-29.1-328.3-17-492.8-9.8c-95,4.1-189.3,15.3-281.2,41.6
			c-229.1,65.6-379,206.4-419.3,447.8c-20.2,121-16.5,244.1-27.7,366c-16.1,175.5-85.2,321-239.6,416.9
			c-112.4,69.8-237.5,96.3-367.3,105.5c-147.3,10.4-293.2-4-438.4-26.8c-22.7-3.6-26.6,2.5-26.1,22.9
			C195,1972.6,194.2,2022.2,194.2,2071.8z M2835.6,718.3c4.2-52.4,1.4-96.4-6.2-139.6c-37.8-215.2-136.3-354.7-370.9-376.4
			c-117.7-10.9-235.6-17.4-353.3-27.5c-222.3-19.2-440-3.6-651.8,73.3c-154,55.9-291.4,133.5-388.5,270
			c-71.5,100.6-120.4,212.4-160.8,328.3c-58,166.6-96.1,338.4-133.5,510.4C740.1,1497,640.9,1575.8,498,1578.6
			c-44.3,0.9-88.6,0.7-132.8,5.9c-73.1,8.5-123.1,45.7-148.4,115.1c-14.6,40.2-16.9,82.4-19.6,124.6c-1,15.2,4.9,20.2,19,21.9
			c51.3,6.4,102.3,15.5,153.7,20.5c148.6,14.7,297.2,18.8,444-16c220.7-52.4,369.9-185.5,395.9-430.3
			c11.8-111.2,14.3-223.3,24-334.7C1244.2,968,1277.6,858,1351.3,763c109.6-141.4,259.6-212.6,431-242.4
			c211.2-36.7,424.5-40.9,637.6-23.9C2585.5,509.8,2733.6,563.5,2835.6,718.3z"/>
		<path class="st0" d="M2171.4,2625.7c86.6,1.4,165.7-11.2,242.5-35.2c25.6-8,22.6,8.9,27.3,21.2c5.1,13.3,9.2,24.8-11.3,30.5
			c-178.5,49.5-356.6,57.5-530.7-14.7c-209.8-87.1-315.1-250.3-315.4-474.5c-0.3-221.4,50.6-432.2,181.3-615.3
			c209-292.7,499.1-412.6,853.8-386c20.9,1.6,41.6,5.9,62.5,8.4c36.2,4.3,37,6.2,28.7,40.2c-3.9,15.9-9.9,14.7-24.2,12.7
			c-307.3-44.9-578.5,27.2-797.5,255.2c-136,141.5-206.7,315.4-237,507.8c-14.9,94.5-23.8,188.7-4,283.1
			c37.6,179.4,154.9,284.2,323.7,338.4C2037.9,2619,2106.9,2627.6,2171.4,2625.7z"/>
		<path class="st0" d="M2266.2,2037.3c-86.9,0.1-157.2-69.4-158-156.1c-0.8-85.8,69.7-156.8,156.3-157.1
			c89.3-0.3,159.8,69.2,159.3,157C2423.2,1967.5,2352.8,2037.3,2266.2,2037.3z M2265.4,1984c58.9,0.2,104.4-44.4,104.7-102.9
			c0.3-57.7-46-105-103.4-105.4c-57.2-0.4-104.6,46.6-105,104.1C2161.3,1937.8,2207,1983.7,2265.4,1984z"/>
	</g>
</g>
</svg>
