<?xml version="1.0" encoding="utf-8"?>
<!-- Generator: Adobe Illustrator 23.0.0, SVG Export Plug-In . SVG Version: 6.00 Build 0)  -->
<svg version="1.0" xmlns="http://www.w3.org/2000/svg" xmlns:xlink="http://www.w3.org/1999/xlink" x="0px" y="0px"
	 viewBox="0 0 3000 3000" style="enable-background:new 0 0 3000 3000;" xml:space="preserve">
<style type="text/css">
	.st0{stroke:#000000;stroke-width:10;stroke-miterlimit:10;}
</style>
<g id="Layer_1">
</g>
<g id="Layer_2">
	<g>
		<path class="st0" d="M1581.7,415.7c187.2-6,374.1-21.5,561.5-21c95.3,0.3,190,6.8,280.3,39.7c137.2,50,265.9,114.6,363.9,227.6
			c75.7,87.3,113.1,190.1,119.7,304.6c7.6,132.8-21.6,257.5-81.9,375.9c-30.3,59.6-55.9,121.6-83.3,182.7
			c-3.1,6.9-11.2,13.6,2.2,21.7c80.2,48.8,121.3,125.6,148.7,211.8c50.6,159.5,34,316.5-19.6,471.5c-17,49-43.6,93.1-76.7,133.2
			c-68.5,82.9-156.9,126.4-263.6,132.7c-78.7,4.7-157-0.9-234.6-14.1c-93.5-15.9-132.9-67-123.9-160.4c1.5-15.4,4-30.8,5.2-46.3
			c0.9-12.2,1.4-24.6,0.7-36.8c-2-34.1-16.7-57.2-38.6-62c-22.2-4.9-43.7,9.3-61.3,39.7c-13.7,23.6-14.4,49.9-17.4,75.8
			c-2.3,20.3-3,40.9-6.7,60.9c-15.2,82.8-74.4,130.3-172.5,138.4c-119.1,9.9-238.6,10.2-357.9,12.8c-292,6.3-584.1,9.4-875.6-13.8
			c-110-8.7-220-18.2-325.9-53c-117.6-38.6-200-111.8-232.1-234.5c-12.3-47-15.1-95.2-12.7-143.7c4-82.5,8.3-165.1,24.8-246.1
			c22.4-109.8,74-202.2,169.3-265.8c14.1-9.4,10.5-16,4.2-27.1c-55.5-98.4-95-202.8-112.3-314.6c-27.8-179.6,6.5-343.3,129-483
			c36.9-42.1,79.8-78,127.4-107C553.1,535.9,691,471.9,844.2,446.5C907.2,436,971,432,1034.7,430
			C1217,424.3,1399.4,420.3,1581.7,415.7z M490.4,1508.7c-37.6,6.9-70,17.7-102.3,28.4c-101.7,34-176.3,98.2-216.7,198.7
			c-48.7,121.1-50.6,249.4-50.3,376.7c0.2,101.6,39.6,188,128.5,245.7c48.1,31.2,102.1,47.6,157.3,59.3
			c146.2,31.1,295.2,37.1,443.8,43.6c323.9,14.2,647.8,2.9,971.6-6c42.4-1.2,84.8-4.5,125.1-20.9c36.2-14.8,59.2-40.8,66.3-78.9
			c5-26.4,7.4-53.4,9.6-80.2c3.4-41.1,14.4-78.8,43.5-109.3c51.7-54.1,126.1-36.4,147.7,35.1c9.7,32.1,8.3,64.8,3,97.3
			c-16.1,97.9,6.3,129.8,103.9,146.9c4,0.7,8.1,1.1,12.1,1.8c14.1,2.4,21.7-1,19-17.8c-2.7-16.9-3-34.2-5.4-51.2
			c-15-105.3-44.1-203.4-138.3-267.9c-18.2-12.5,2.3-20.1,4.6-29.8c2.8-11.7,10.3-9.5,18.5-4c23.8,16.2,45.7,34.5,63.9,56.9
			c65.2,80.5,87.2,176,95.7,275.9c3.9,45.8,2.8,45.9,49.5,47.2c1.6,0,3.3,0,4.9,0.2c11.5,1.7,16.1-2.6,15.6-14.8
			c-3.7-85.2-8.8-170.4-43.1-249.9c-37.3-86.4-94.3-152.5-192.5-172c-19-3.8-5.1-18.4-6.4-27.9c-1.4-9.7,2.2-14.5,14.1-12.5
			c35.3,6,67.6,18.9,97.1,38.8c76.4,51.5,119.6,125.6,144.5,212.3c19.6,68.2,23.2,138.5,27.4,208.6c0.8,13.1,3.9,19.3,18.4,17.5
			c26-3.2,51.9-5.8,77.5-11.7c11.7-2.7,16.6-7.7,13.7-20.3c-24.5-106.8-48.2-214.1-105.9-309.2c-59.3-97.8-137.4-172.5-255.4-193.5
			c-17.8-3.2-10.8-15.4-10.6-24.6c0.2-10.2,2.4-18.7,17.5-16.2c51,8.3,97.3,27.9,139.7,56.7c91.3,62,149.2,149.6,189.8,250.3
			c27.9,69.2,45.4,141.5,61,214.2c3.9,18,8,23.5,26.1,12.4c33.2-20.3,62.1-45,87.8-74c8.9-10.1,8.9-18.9,4.2-31.1
			c-21-55-44.5-108.9-71-161.4c-38.5-76.5-85.6-147.2-149.8-204.6c-74.4-66.6-158.6-112.5-261.3-114.9
			c-21.5-0.5-13.9-15.1-15.4-25.7c-1.9-13.5,4.9-16.4,17.1-15.9c83.5,3,157.9,31.9,226.3,78.2c104.8,71,174.5,170.8,228.6,282.7
			c21.2,43.9,40.1,88.9,61,135.4c25.3-41.8,41.8-84.9,52.9-130.4c1.3-5.3-0.3-9.2-1.7-13.9c-71.6-235.9-289.3-401.4-538.1-407.7
			c-18.9-0.5-22.7-6.1-23-23.6c-0.4-20.3,11.5-17.6,23.7-17.2c177.3,6.5,326.1,74.7,445.8,205.7c45.5,49.8,80.3,106.8,110.5,174
			c7.8-45.5,9.9-85.1,10.6-124.9c0.4-22.3-5.8-41.3-17.9-59.8c-37-56.9-82.2-106-137.1-145.7c-120.5-87.1-255.2-118-401.6-96.7
			c-22.4,3.3-18.7-11.2-22-21.9c-4.5-14.9,4.8-17.5,17-19.1c187-23.9,351.1,23.2,489,154.9c17.3,16.5,32.3,35.4,52.2,51.7
			c-5.1-41.3-13.1-58.2-37.2-78.6c-137.4-116.2-296.1-173.4-476-171.2c-17.5,0.2-31.9,2-31.6-23.5c0.3-25.4,18-16.5,29.1-16.8
			c153.2-4.1,293.8,37.1,423.1,118.6c5.7,3.6,10.5,10.1,21.2,8.4c-8.1-15.7-19.9-26.5-31.8-37.1c-46.4-41.1-101.6-64.5-160.9-79.7
			c-76.6-19.6-155.2-21.5-233.5-26.7c-146.3-9.7-292.7-7.1-439.2-7.8c-15.4-0.1-15,6-12.8,17.7c13.1,70.6,13.7,141.5,2.3,212.4
			c-24.6,151.9-102.9,266.2-239.3,339.3c-88,47.2-183.5,69.4-281.6,78c-194.3,17.1-388.9,16.8-583.3,0.4
			c-81-6.8-160-24.8-232.2-64.9c-84.9-47.2-138.5-117.7-157.3-213.7c-15.4-78.4-3.9-154.5,18.5-229.8
			C452.5,1591.9,469,1551.4,490.4,1508.7z M1594.7,455.3c-191.7,5.9-394.3,14.1-597.1,17.9c-213.3,4.1-403.2,76.5-577,193.8
			c-129.6,87.4-204.4,211.6-219.7,368.6c-16.6,170.2,35.2,324.1,115.8,470.7c5.7,10.3,11.7,11,21.6,6.4
			c29.7-13.8,60.9-24.1,92.7-31.3c20.8-4.7,23.1-12.2,17-31.4c-34.3-107.5-54.1-217.4-44.5-330.8C419,937.1,503.1,804.3,679.4,738
			c132.2-49.7,270.9-67.1,409.8-82.3c159.3-17.4,319-30.9,478.9-41.4c201.8-13.3,403.6-21.6,605.1,2c81.3,9.5,161.7,23.8,236.7,59.3
			c47.4,22.4,83.9,55.4,107.5,103c23.9,48.2,38.6,99.3,45.1,152.1c21.6,175.2,28.1,350.4-7.8,524.8c-3.2,15.4-1.5,23.1,17,26
			c37.9,6,75.2,16,110,32.4c13.9,6.6,19.2,3.1,25-10.3c21.8-50.1,43.9-100.2,67.7-149.4c46-95.3,84.9-192.3,91.6-299.9
			c9.8-158.6-30.2-298.6-150.7-407.9c-101.7-92.3-222.2-152-354-187.4c-109.5-29.3-222-26.3-334.1-22
			C1886.7,442.5,1746.3,448.9,1594.7,455.3z M1339.3,808.1c152-2.2,258.4-3.2,364.5,4.6c97.9,7.2,195.4,18,289.5,48.3
			c69.1,22.3,131.4,53.8,167.6,122.3c23.1,43.6,34.5,90,37.7,138.4c1,15.8,7.2,20.1,21.2,22.5c24.9,4.3,49.8,9.5,74,16.8
			c51.8,15.6,64.4,33.9,68.7,87.9c5.1,64.6,7.3,129,0.2,193.5c-1.1,10.4-1.9,18.6,13.4,19.4c39.2,1.9,78.3,5,117.4,8.8
			c14.3,1.4,18.2-4.7,20.6-17c36.4-187,31.8-374.1-0.6-560.8c-16.8-96.9-64.5-170.5-165.5-198.4c-16.5-4.6-32.7-10.5-49.4-14.4
			c-151.7-35.9-306.2-40.5-460.9-36.6c-296.1,7.5-591,31.4-884.6,71.3c-98.8,13.4-196.3,33.8-288.7,73.7
			C559,834,492.3,913,462.1,1022.9c-40,145.3-15.7,286.7,28.2,426.7c4.4,13.9,12.4,12.7,22.4,10.3c46.2-11.1,93-18.7,140.4-21.3
			c19.8-1.1,21.3-7.9,17.5-25.8c-22.7-105.9-28.7-212.5-1.2-318.3c30.7-118.4,94.3-209.7,218.3-246.3c33-9.7,66.6-16.6,100.6-21.2
			C1119.9,809.4,1252.6,810.9,1339.3,808.1z M1881.4,1614.5c1.5-26.5-3.7-62.9-9.1-99.3c-2.3-15.1-6.9-20.7-22.8-20.4
			c-72.8,1.5-145.6,2.1-218.4,2.4c-13.4,0.1-22.7,4-31.2,14.9c-135,174.7-239.5,365.9-313.6,574c-7,19.7-2.8,23.6,16.7,22.6
			c91.8-4.7,182.4-16.4,269.9-45.4c76.2-25.2,145.4-62.9,199.7-124C1852.3,1849.5,1882.1,1742.6,1881.4,1614.5z M971.6,1483.5
			c-67.9-2.8-129.9-5.8-191.9-7.8c-71.3-2.3-142.2,2.6-212.5,14.6c-10,1.7-21.1,1.2-27.3,12.9c-50.9,95.7-88.3,195.3-83.4,305.9
			c5,114.4,60.4,195.4,164.1,244.4c18.4,8.7,25.7,6.5,33.4-13c46.7-117.1,103.5-229.3,168.8-337.1
			C867.5,1629.4,916,1557.8,971.6,1483.5z M1251,850.5c-116.9,4.4-226.9,6.8-335.1,32.1c-89,20.8-148,75.4-184.9,157
			c-15.3,33.8-23.3,69.4-30.7,105.5c-3.4,16.8-2.1,22.8,17.9,21.4c111.6-7.6,223.3-14.5,335.1-19.7c22.5-1,33.8-7.1,39.1-29.4
			c4.5-18.8,13.5-36.7,21.3-54.6C1146.9,986.7,1191.8,918.1,1251,850.5z M1013.7,1442c3.9,1.4,5.9,2.7,8,2.8
			c80.1,2.1,160.3,3.5,240.3,6.3c19.4,0.7,18.5-10,18.5-22.9c0.4-76.9,0.4-153.8,2.2-230.6c0.5-19.8-6.4-22.9-23.8-21.7
			c-60.4,4-120.9,6.2-181.3,9.9c-121.6,7.4-243.1,15.4-364.7,22.6c-15.3,0.9-20.3,5.9-20.3,21.8c0.1,46.7,2.5,93.1,10.7,139.2
			c11.5,65,11.5,65,76.5,66c7.4,0.1,14.7-0.1,22.1,0.4c8.6,0.6,12.6-2.3,15.4-11.2c21.7-67.2,70.9-106.5,135.6-127.4
			c52.4-16.9,106.3-27.9,161.4-13.7c26.5,6.8,44.3,30,45.8,54.6c1.7,28.1-12.9,46.2-36.5,58.5c-20.5,10.7-43.4,13.9-65,21.2
			C1043,1423.1,1026.1,1426.6,1013.7,1442z M1159.1,1493.9c-0.8-2.7-1.5-5.5-2.3-8.2c-39.2,0-78.4,0.5-117.5-0.3
			c-11.9-0.3-19.6,3.1-26.8,12.5c-133.1,173.3-240.8,361.1-323.7,563.2c-4.8,11.8-3.6,16.6,10,19.9c40.6,9.7,81.7,15.8,122.8,22.3
			c19.9,3.2,28-2.6,33.6-22.8c49.8-182.2,130.8-349.8,241.1-503.1C1116.6,1549.1,1138.1,1521.7,1159.1,1493.9z M1667,1119.4
			c3.9,1.5,4.7,2,5.5,2c157.7,0.6,315.6-2.5,472.9,13.2c8.2,0.8,12.8-1.2,12-10.2c-6-75.2-26.3-143.6-94-187.4
			c-45.9-29.6-97.8-45.2-150.9-55.1c-89.8-16.7-62.3-27.8-124.1,43.8C1738.6,983.5,1699,1048.1,1667,1119.4z M1559,1496.3
			c-33.4,0-61.2,1.4-88.7-0.5c-19.5-1.3-31.4,5.6-42.6,21c-76.4,104.5-142.8,215-197.9,332.2c-37.2,79.2-68,160.9-95.2,244
			c-5.6,17.2-1.5,21.2,15.3,20.1c19.6-1.3,39.3-1.9,58.8-0.6c19.5,1.3,28.3-5.8,34.7-24.8c57.2-168.8,135.6-327.4,234.7-475.5
			C1503.1,1575,1529.4,1538.7,1559,1496.3z M1789.8,861.1c-47-3.4-88.4-6.4-129.7-9.5c-7.9-0.6-14.1,2.3-19.9,7.3
			c-79.1,68.4-135.7,151.8-168.8,251.2c-4.6,13.8-1.3,17.3,12.4,16.8c41.7-1.6,83.4-2.8,125.1-3.7c8.6-0.2,13.4-3.7,16.7-11.3
			C1665.1,1021.3,1719.1,939.9,1789.8,861.1z M1012.9,1790.9c65.3,2.5,127,5,188.6,7.3c8.3,0.3,10.5-6.5,13.4-12.3
			c26.1-51.8,54-102.5,84.6-151.7c6.4-10.3,6.9-15.7-7.7-16.2c-52.2-2-104.3-6.7-156.6-5.4c-7.4,0.2-14.1-0.1-19.3,7.3
			C1078.8,1673.6,1044.8,1729,1012.9,1790.9z M1415.6,848.6c-34.4,0-63.8,0.1-93.1-0.1c-9.8-0.1-17,4.2-23.5,11
			c-74,77-129.5,165.5-166.6,265.8c-5.5,14.8,0.2,16.9,12.8,16c28.5-1.9,57.1-4.3,85.6-4.5c14.6-0.1,21.7-4.9,26.5-18.7
			c20-57.2,47.7-110.8,79.8-162.2C1360,919.5,1386.2,885.3,1415.6,848.6z M2070.4,1313.2c0.8,0,1.6,0,2.5,0
			c0,40.9,0.3,81.8-0.2,122.7c-0.1,11.9,2.6,18.2,16.1,18.1c30.3-0.2,60.5,0.3,90.8,1.4c12.5,0.4,15-5.2,14.7-16.2
			c-2.2-80.1-4.5-160.2-5.7-240.4c-0.2-15.2-6.6-19.9-20-20.9c-26.9-2.1-53.8-4.2-80.6-7.3c-14.5-1.7-18.1,3.7-17.8,17.6
			C2070.9,1229.8,2070.4,1271.5,2070.4,1313.2z M1783.1,1308.4c-1.4,0-2.7,0-4.1,0c0,43.3,0.4,86.6-0.2,130
			c-0.2,12.5,3.3,17.6,16.5,17.1c26.9-1,54-1.2,80.9-0.6c13.5,0.3,16.4-5.9,16.5-17.8c0.6-85.8,1.4-171.7,2.7-257.5
			c0.2-12.8-4.4-17.5-16.9-17.3c-25.3,0.4-50.7,0.5-76-0.7c-15-0.7-19.9,4.2-19.6,19.3C1783.6,1223.4,1783.1,1265.9,1783.1,1308.4z
			 M1187.3,1838.7c-61.8-2.2-122.1-4.1-182.3-6.6c-11.2-0.5-15.9,5.1-20,14c-19.3,41.5-36.8,83.7-52.9,126.5
			c-6,16.1-2.1,19.8,14.1,19.1c54-2.2,107.8,1.7,161.5,7.2c7,0.7,14.3,3.4,18.3-6.6C1146,1941.6,1166.4,1891.1,1187.3,1838.7z
			 M1935.4,1310.8c-0.1,0-0.1,0-0.2,0c0,22.9-1,45.9,0.3,68.7c1.4,24.1-12.5,55.7,4.3,70.3c16,14,47,1.7,71.4,3.3
			c17.4,1.2,22.1-5.8,21.7-22.6c-1.8-64.6-1.7-129.2-3.6-193.8c-0.7-22.6,9-51.9-5.3-66c-14.4-14.2-43.7-2.5-66.2-5.8
			c-16.6-2.5-23.1,2.9-22.6,20.8C1936.2,1227.3,1935.4,1269.1,1935.4,1310.8z M1414.3,1310.8c0-24.5,0-49.1,0-73.6
			c0-69.9,0-69.3-69.8-64.5c-17.2,1.2-21.6,7.5-21.6,23.7c0.2,62.1-1.3,124.3-1.1,186.4c0.1,22.6-10.3,54.1,4.4,65.5
			c15.3,12,45.4,4.5,69,6.6c15.2,1.4,19.8-4.1,19.5-19.1C1413.7,1394.2,1414.3,1352.5,1414.3,1310.8z M2229.7,1319.7
			c1.6,0,3.2,0,4.9,0c0,24.5-0.7,49,0.2,73.4c0.7,20.1-9.2,47.2,4.3,58.4c12.6,10.5,38.9,3.7,58.9,6.6c18.6,2.8,24-4,25.1-22
			c3.4-53.1,3.5-105.9,0.2-159c-4.1-65.8-9-72.3-72.8-86.3c-18-4-21.8,1.3-21.2,18.6C2230.6,1246.2,2229.7,1283,2229.7,1319.7z
			 M1632.6,1309.1c-0.6,0-1.2,0-1.8,0c0-31.1,0-62.2,0-93.3c0-52.6,0-51.7-52.9-50.5c-17.7,0.4-21.5,6-21.1,22.5
			c2,72,2.6,144,3.9,216c0.9,49.9,1.1,48.6,50.4,53.2c18.7,1.7,22-4,21.8-20.3C1632.2,1394.2,1632.6,1351.7,1632.6,1309.1z
			 M1738.7,1306.9c1.2,0,2.3,0,3.5,0c0-32.7-0.3-65.3,0.1-98c0.6-47.8,0.9-46.7-47.6-46.9c-20.7-0.1-24,8.1-23.6,26.1
			c1.6,75.1,2.1,150.3,2.9,225.4c0.5,42.6,0.5,41.8,43,42.5c17.1,0.3,22.4-4.5,22-21.7C1737.9,1391.9,1738.7,1349.4,1738.7,1306.9z
			 M1519.6,1313.3c-1,0-2,0-3.1,0c0-41.6-0.5-83.2,0.3-124.7c0.3-16.4-3.9-24.8-21.9-21.6c-6.4,1.1-13.1,1.5-19.5,1
			c-17.4-1.3-21.4,6.8-21.2,23.2c0.8,72.6,0.4,145.1,0.4,217.7c0,48.4,0,47.8,47.4,47.1c13.7-0.2,18.2-4,17.9-18
			C1519,1396.4,1519.6,1354.9,1519.6,1313.3z M916.9,1440.8c13.2-5.8,33.6,10.4,47.1-8.1c22.4-30.8,54-46.1,89.3-56.2
			c17.2-4.9,34.4-10,51.2-16.2c7.6-2.8,15-8.4,15-17.6c0-10.1-7.5-15.4-16-19.6c-8.4-4.1-17.1-4.9-26.2-4.9
			c-38.7,0-76.5,5.9-113.1,18.2c-43.3,14.5-78.5,39.3-100.4,80.9c-6.9,13.2-7.8,21,10.9,20.8
			C887.7,1437.9,900.8,1439.6,916.9,1440.8z M987.8,2112.4c0,0.1,0,0.3,0,0.4c13.9,0,27.8-0.1,41.7,0c56.5,0.4,56.5,0.4,73.1-53.3
			c0.5-1.6,1.1-3.1,1.8-4.6c4.9-11.1,1.6-15.2-10.8-16.6c-41.5-4.7-83.2-5.5-124.8-5.7c-61.9-0.3-61.9,0.1-75.3,60.8
			c-0.2,0.8-0.3,1.6-0.7,2.4c-4.4,9.8-0.6,12.6,9.4,12.8C930.7,2109.5,959.2,2111.1,987.8,2112.4z M1389.4,1499.2
			c-0.6-2.7-1.3-5.5-1.9-8.2c-52.2,0-104.4,0-156.6,0c-6.6,0-13.4-0.7-18.2,5c-19.5,23.5-38.9,47.1-61.2,74.2
			c62,3.3,118.1,6.3,174.1,9.4c6.6,0.4,10.6-3,14-8C1356.2,1547.4,1372.8,1523.3,1389.4,1499.2z M1416,913.3
			c26.1,4.9,47.6,6.7,67.5,13.2c23.4,7.7,38.4,3.9,52.5-17.9c13.5-21,32.6-38.4,52.9-61.6c-38.9,0-71.4,0.1-103.8-0.1
			c-7.8-0.1-14.2,1.6-19.5,7.8C1450.1,873.2,1434.3,891.6,1416,913.3z M1344.9,1027.8c21.6,3.2,41.5,6.1,61.4,9.2
			c44.5,7,44.5,7,66.3-33.6c3.5-6.4,6.6-13.1,10.7-19.1c6.8-9.9,6-16.1-6.9-18.1c-24.8-3.9-49.6-8-74.5-11.7
			c-7.3-1.1-14.5-1.3-19.2,6.5C1369.8,982.4,1354.6,1002.4,1344.9,1027.8z M1362.3,1130.9c5.7,0,17.4-1.6,28.5,0.3
			c27.9,4.7,36.9-11.2,42.4-34.1c2.5-10.4,1.2-15-9.9-16.3c-18.6-2.3-37.1-6-55.7-8c-50.5-5.3-50-4.9-67.4,44.1
			c-5.2,14.5-0.9,17.3,12.4,16.3C1327.1,1132.1,1341.8,1131.8,1362.3,1130.9z"/>
	</g>
</g>
</svg>
