<?xml version="1.0" encoding="utf-8"?>
<!-- Generator: Adobe Illustrator 23.0.0, SVG Export Plug-In . SVG Version: 6.00 Build 0)  -->
<svg version="1.0" xmlns="http://www.w3.org/2000/svg" xmlns:xlink="http://www.w3.org/1999/xlink" x="0px" y="0px"
	 viewBox="0 0 3000 3000" style="enable-background:new 0 0 3000 3000;" xml:space="preserve">
<style type="text/css">
	.st0{stroke:#000000;stroke-width:10;stroke-miterlimit:10;}
</style>
<g id="Layer_1">
</g>
<g id="Layer_2">
	<g>
		<path class="st0" d="M756.5,434.1c39.1-52.6,80.2-98.6,131.2-134.9c114.9-81.7,246-117.4,383.3-134
			c153.1-18.5,305.2,3.1,457.5,15.3c78.3,6.3,151.8,25.7,209.9,83c11.1,11,20.1,3.2,29.7-0.7c101.8-42,205.9-76.2,314.7-94.6
			c93.2-15.8,186.7-20.6,280.1-0.8c189.1,40,304.4,164.3,340.3,364.1c27,150.1,20.5,300.8,8.4,451.4
			c-20.2,249.8-50.4,498.6-80.9,747.3c-25.9,211-49,422.5-107.5,628c-24.8,86.8-56.7,170.6-105.2,247.2
			c-108.5,171.4-267.3,245.4-466.7,238.3c-133-4.8-256.9-45.6-376.5-100.9c-17.8-8.2-28.9-7.5-45.3,4.1
			c-90.3,64-193.9,99-299.4,125.8c-308.4,78.2-619.1,96.3-931.4,22.3c-207-49-406.3-253-379-520c12-117,61.3-218.4,137.7-306.7
			c13.9-16.1,18.6-24.9,1-43.1c-56.5-58.5-50.1-127.7-15.6-191.5c22.6-41.8,31.7-67.7-13.2-99.9c-31.2-22.4-40.7-63.6-44-102
			c-10.8-128.8-8.7-257.6,5.7-386.2c3.5-31.7,16.7-59.7,38.8-82.7c13.2-13.7,15.8-26.9,11.5-45.8c-39.5-172-64.5-345.7-56.3-522.8
			c3.7-80.3,17-158.7,45.8-234.2c41-107.3,129.6-171,239.4-171.6c125-0.8,217.1,58.7,260.5,169.2
			C740.4,381.5,747.3,406.3,756.5,434.1z M223,1491.1c-1.5,47.9-3.7,95.7,4.3,143.5c10.4,62,52.9,106.9,114.3,119.9
			c47.9,10.2,95.5,6.8,142.7-2.6c133.9-26.7,252.7-3,353.9,95.6c64.1,62.4,143.5,100.7,230.6,121.5c138,33,277.2,34.2,416.6,11.9
			c95.8-15.3,190.3-36.3,274.2-89.2c80.1-50.6,133.9-118.9,144.2-216.1c4.9-45.7,10.7-91.3,14.5-137.1
			c20.2-239.8,39.9-479.6,59.7-719.4c4-47.8,11.4-95.6,11-143.3c-0.9-87.2-68-164.2-166.6-198.1c-64.3-22.1-130.9-24.8-198-25.4
			c-119-1.1-237.8-2.5-354.8,25c-189.4,44.5-294.3,154.5-311.5,341.7c-6.9,75.6-9.3,151.6-17,227c-9.7,93.7-46.1,175.2-120.7,236.4
			c-85.9,70.4-187.6,95-295.3,100.2c-91,4.5-181.8,0.3-271.7-16.8c-22.3-4.2-31.3,3.6-30.7,26.4C223.7,1425.1,223,1458.1,223,1491.1
			z M1792,2693.6c114,66.7,313.9,112.1,440.8,98.1c144-15.9,259.8-79.8,338.3-205.1c39.5-63.1,69.1-130.6,91-201.4
			c64-206.1,90-419.3,114.8-632.6c23.5-202.4,47.6-404.7,69.4-607.3c18-167.9,34-336.1,20.9-505.5c-4.8-61.9-14.5-122.9-34.2-182
			c-31.5-94.8-91.7-164.8-181.7-208.8c-96.1-46.9-284.2-59.7-377.1-24.6c87.9,7.8,169.6,27.8,241.8,77.3
			c115.1,78.8,155.8,195.1,165,327.3c10.3,148,3.1,295.9-7.2,443.4c-7.6,108.8-39.9,210.2-122.2,288.5c-11.3,10.8-10.6,22-9.9,35.3
			c3.7,74.9,10.6,151.2-20.2,221.8c-18.5,42.5-20.1,83.3-16.1,127.8c7.9,88.4-3.3,173.9-54.1,249.8
			c-53.3,79.8-135.4,103.8-224.6,113.2c-114.8,12.1-229.5,11.6-343.7-6c-22.6-3.5-28.3,1.6-20.5,24.6
			c15.3,45.5,24.6,92.7,30.3,140.3C1911.2,2421.1,1899.4,2567.6,1792,2693.6z M984.7,2572.4c-48.8,1-102.6-2.8-156.3-8.1
			c-108.4-10.8-200-52.4-264.9-143.5c-67.8-95.2-76.3-201.5-56.8-312.3c4.5-25.4-2.2-33.3-26.6-29.1c-31.7,5.4-64.1,9.2-95.1-0.9
			c-46.3-15.1-77.9,1.4-105.7,38.3c-115.1,152.4-152,315.9-65.6,493.4c70,143.8,192.2,218.1,346.3,249
			c169.1,33.9,338.2,38.7,509.9,24.1c185.6-15.8,365.5-50.8,537.5-123.5c119.9-50.7,203.7-134.1,230.1-264.2
			c38-187.7-12-362.1-89.2-531.2c-5.5-12-13.1-11.5-24.2-6.2c-29.8,14.1-60.5,26.3-92.6,34.2c-56.7,13.9-55.1,6.8-39.3,65.6
			c55.5,205.6-31.5,407.2-256.2,467.5C1222.3,2556,1107.7,2573.8,984.7,2572.4z M1989.9,547c8-29.4,5-60.7-11.2-124.7
			c-30.3-119.2-107-186.2-229.8-198c-78.5-7.5-157.4-11.3-235.9-18.8c-125.5-11.9-249.6-7.1-371.7,25.7
			c-131.7,35.3-252.8,89.3-334.6,205.7C744.4,525.3,706,625,677.9,728.5c-25.9,95.2-47.1,191.7-73,287
			c-20.7,76.2-71.3,119.4-151.3,128.6c-28.9,3.3-57.7,4.6-86.6,5.4c-94.3,2.5-144.5,57.3-140.1,151.8c0.7,14.8,5,19.9,20.3,22.3
			c125.1,19.5,250,27,375.7,5.1c159-27.7,257.3-132.2,277.1-291.1c9.1-73.6,9.1-147.5,16.1-221.1c18.2-193,133.6-330.3,321.8-374.3
			c157.9-37,318.6-39.6,479.7-27c73.7,5.8,143.4,24.9,204.9,68.5C1947.6,501.4,1967.2,525.1,1989.9,547z M713.1,2481.6
			c2.9-16.1-5-27.4-8.8-39.3c-30.2-95.3-36.8-191.8-16.6-290c1.8-8.6,0.9-19.3,12.5-21.4c11.1-2,22.1,0.8,30.8,8.3
			c9.9,8.6,7,20.2,4.7,30.8c-19.9,91.4-9.7,180,18.2,268.7c16.2,51.6,41.6,83.5,99.9,80.2c20.8-1.2,41.8,3.3,62.7,3.7
			c36,0.8,36.2,0.1,18-32.3c-52.7-93.9-76.7-194.5-71.5-302.1c0.5-10.4,0-21.7,14.1-21.5c11.1,0.2,24.1-2.2,30.4,12.5
			c4.5,10.7,3.7,21.6,3.7,32.4c0,88.7,21.6,172,63.7,250c32.4,60,36.5,62.1,105.5,55.6c6-0.6,12-0.3,18-0.5
			c32.6-0.7,32.7-1.1,16.8-28.2c-7.5-12.9-14.6-26.2-21.5-39.5c-45.9-89.5-62.9-184.8-55.7-284.6c0.9-12.5-2.4-28.9,18-32.8
			c24.8-4.7,34.4,4.2,31.7,34.7c-8,91.9,5.9,180.3,50.7,261c53.4,96.3,34.8,86.7,144.8,62.9c23.5-5.1,25.8-12.7,11.8-32.8
			c-60.6-87.6-91.7-185.5-97.6-291.7c-0.8-14.2,1-23.7,16.2-26.4c14.6-2.5,26.1,2,30.8,16.8c2.3,7.5,2.5,15.7,3.2,23.6
			c6.7,73.5,24.5,144.2,62.1,208c55.3,93.9,41.8,89.3,133.2,31.4c33-20.9,32.3-23.8,11.1-56.2c-48.9-74.6-75.2-156.1-76.1-245.5
			c-0.1-12.6-0.5-25.3,17.3-24.9c15.7,0.4,30.9,2.3,31.7,23.2c0.3,7,0,14,0.6,21c7.1,77.9,29.5,150,79.1,214.2
			c4.1-4.8,7.1-7.3,8.9-10.5c4.5-7.8,8.8-15.7,12.7-23.8c42.1-88.1,36-178,11.5-269.3c-7.1-26.5-20.1-32.1-45.1-27.5
			c-75.9,14.1-152.8,19.5-229.9,16.6c-150.1-5.7-293.9-33.5-416.7-127.9c-17.8-13.7-29.1-9.6-42.6,6.2
			c-57.8,67.7-129.3,115.8-214.1,142.9c-19.9,6.4-29.4,17.8-33.4,37.2c-11.3,55.3-16.2,110.6-6.6,166.7
			C568.3,2361.8,618.7,2436.6,713.1,2481.6z M2634.5,840.1c0-37.1,0.2-79.1-0.1-121.1c-0.3-43-3.2-85.8-7.5-128.6
			c-14.5-145.4-97.9-249.8-236.7-293.4c-129.3-40.6-256.6-24.1-382.6,15.8c-8,2.6-25.2-0.6-20.2,17.9c4.3,15.8,14.4,18.7,29.5,14.2
			c31.8-9.4,64.6-13.2,97.5-15c186.7-10.3,368.9,82,413.8,294.9c20,94.9,15,191.1,2,286.5c-22.5,164.5-135.9,291.2-289.9,325.7
			c-77.1,17.3-154.3,18-231.2-2.4c-14.4-3.8-23.9-3.9-24.8,16.6c-1.9,41.9-6.1,83.7-11,125.3c-2,17,3,25.6,19.6,29.1
			c103.1,22,206.7,34.9,312.1,18.7c173.6-26.7,278.3-127.9,311-301.5C2633.5,1031,2628.6,937.6,2634.5,840.1z M541.1,1044.4
			c26.6-28.2,32.7-64.6,39.9-100.3c25.6-126.4,54.8-252.2,107.4-370.4c28.8-64.8,23.2-126.4,1.2-188.8
			c-32.4-92.4-105.8-144.8-201.4-147.3c-102.8-2.7-166.5,38.6-208.2,134.5c-23.8,54.7-34.3,112.6-40.4,171.3
			c-19.6,188.3,8.6,372.6,47.9,555.9c2.3,10.6,5.8,17.3,17.2,15c45.4-9.1,91.7-5.5,137.4-9.6c12.9-1.1,25.8-3.9,30.4-19.6
			c18.5-62.4,32.2-125.7,37.7-190.6c1.4-16.4-5.7-21.1-20.8-20.7c-20.9,0.6-42,0.9-62.9-0.9c-47-4-80.6-38.5-84.9-85.5
			c-2.4-26.5,3.3-51.8,12.7-76.2c3.7-9.6,7-17.5,0.4-27.9c-21.7-34-21.6-72-15.7-109.9c8.4-53.6,41.9-84.6,93.6-96.5
			c14.5-3.3,29.7-6.1,44.4-5.6c23.4,0.8,22-8.9,13.9-24.9c-16.8-33-40.4-59.9-73-77.2c-20.6-10.9-20.6-24.6-11.3-41.9
			c10.6-19.7,23.8-8,35.2-1.4c61.4,35.4,101.2,88,115,157.2C580.3,601,572.8,720,566,838.8C562,907.5,550.1,975.4,541.1,1044.4z
			 M2488.6,768.8c0-23,1.1-46-0.2-68.9c-9.2-161.9-100-274.3-251.4-310c-66.2-15.6-132.7-13.8-199,1.3c-12.8,2.9-25.1,2.4-19.3,23.6
			c6,22.1,16.8,12.7,28.8,9.5c67.6-17.9,128.2,12.5,156.1,77c13.3,30.7,12.9,62.3,9,94.1c-1.8,14.5-1.1,21.7,15.4,28.3
			c86.2,34.3,119,126.8,73.4,207.4c-9.4,16.7-5.2,20.4,9,27.5c34.4,17.4,58.1,45.2,70.1,82.1c20.4,62.8-3.3,130.3-57.8,165.7
			c-55.5,36.2-128.4,29.8-177.3-15.4c-47-43.6-58.5-114.6-28.3-173.4c5.5-10.6,20.1-19.4-3-31.7c-66.9-35.7-91.4-95.4-74.4-168.7
			c1.7-7.3,12.6-19.1-2.2-21.8c-14.5-2.7-9.1,12.5-9.8,19.7c-6,67.6-11.3,135.3-16.8,202.9c-6.4,79.6-13,159.2-19.1,238.8
			c-0.9,12.2-5.2,25.2,15.6,28.7c39.4,6.6,78.7,12.8,118.7,13.7c176.3,4,306-93.8,348-263.9C2487.8,880.8,2490.8,824.9,2488.6,768.8
			z M444.1,2031.7c134.2-3.6,242.4-53.4,327.1-149.3c13.7-15.5,16.8-24.6-2.8-39.8c-74-57.4-157-68.3-246.3-54.5
			c-48.2,7.4-96.3,17.5-145.5,13c-61.5-5.6-63.4-5.3-89.8,51.1c-6.3,13.5-12,27.5-15.4,42c-16.2,69.6,16.3,118,86.3,130.3
			C386.4,2029.4,415.1,2032.5,444.1,2031.7z M1968.7,1449.6c-6.8,69.3-13.7,134.8-19.5,200.4c-3.5,39,8.4,59.8,45.1,72.9
			c52.2,18.7,105.9,19.9,158.9,3.4c37.6-11.7,53.8-36.8,53.8-76.6c-0.1-49-1.1-98-0.3-146.9c0.3-15.8-4.9-21.2-20.2-21.4
			C2113.4,1480.2,2041.7,1468.1,1968.7,1449.6z M2256.6,1576.9c0.1,0,0.1,0,0.2,0c0,22.9-0.2,45.8,0.1,68.8c0.1,7.9,2.9,16,2,23.7
			c-6.4,54.2,32.6,66.1,75.8,59.6c63.5-9.6,105.4-49,131.6-105.7c28.3-61.5,32-126.7,26-193.1c-1.4-15.6-5.7-18.6-19.7-10.1
			c-40.4,24.6-85.1,37.5-131,48.1c-28.3,6.5-68.6-2.7-82.1,20.7C2246.4,1511.3,2256.6,1547,2256.6,1576.9z M2176,851.3
			c53.7,0.1,96.5-41.6,96.3-93.7c-0.3-50.6-43-93.3-93.8-93.7c-51.2-0.4-93.2,41.1-94.1,92.7C2083.6,808.6,2124.8,851.2,2176,851.3z
			 M2338.2,984.9c-0.7-50.6-45.2-94.4-94.4-93.1c-53.9,1.5-94.8,43.8-93.3,96.6c1.4,52.1,43.2,92,95.3,91
			C2297.3,1078.4,2338.9,1035.8,2338.2,984.9z M2165,570.1c0.6-74.5-52.9-118.8-110.6-95.2c-14.4,5.9-23.3,13.3-20.8,30.9
			c4.8,34.5,1.1,69.3,0,103.9c-1.1,33.2,23.8,49.1,54.5,34.5c12.5-6,23.8-17.1,36.7-19.3C2160,619.3,2165.8,596,2165,570.1z
			 M2259.1,1965.6c1.1-8.4-2.2-12.1-5.7-15.7c-32.1-32.6-64.4-65.2-96.4-98c-11.6-11.8-14.3-1.5-18.1,6.7
			c-11.7,25.2-22.8,50.8-35.4,75.6c-5,9.9-3.3,16.1,3.7,23.6c29.1,31.4,57.8,63.2,86.7,94.7c7.6,8.3,19.3,13.8,25,2.7
			C2234.2,2025.5,2246.6,1994,2259.1,1965.6z M458,661.9c63.4,3.2,63.4,3.2,63.3-58.8c0-6,0-12-0.2-18c-2.3-69.5-19.5-80.9-86-56.7
			c-1.9,0.7-3.7,1.5-5.5,2.3c-41.6,17.5-50.7,42.5-40.6,105.7c6.3,39.1,37,19.1,57.1,24.6C449.8,661.9,454,661.6,458,661.9z
			 M456.2,711c-15.3,3.4-37.9-9-50.4,10.4c-14.7,22.9-23.2,49.7-11.7,76.4c10.5,24.5,34,28,58,27.1c6-0.2,11.9,0,17.9,0
			c45.1-0.1,49.7-4.4,51-48.6C522.9,711.2,522.7,711,456.2,711z M1944.8,1856.5c-6.5,12.8-9.7,22.5-15.5,30.2
			c-28.5,37.9-24.5,70.7,11,102.4c19.5,17.4,28.7,44.7,52.4,58.8c11.8-23.8,23.6-47.6,35.5-71.5c0.9-1.8,1.8-3.6,2.8-5.3
			c5.8-10.2,3.1-18.3-4.8-26.6C1999.6,1916.3,1973.5,1887.6,1944.8,1856.5z M2283.6,1900.9c43.1-76.9,43.1-76.9-26.7-131.6
			c-4.7-3.7-9-8.1-14.2-10.8c-8-4.3-13.2-21.2-23.5-12.3c-15.3,13.3-39.3,16.6-46.5,39.4c-1.7,5.6,0.1,9.6,3.9,13.3
			C2212.5,1833,2248.3,1867.2,2283.6,1900.9z M2060.5,1907.1c14.3-30.9,27.5-58.6,40.1-86.5c10.1-22.3,3.3-34.4-21.1-34.8
			c-27.9-0.4-55.6-1-82.6-8.6c-9.2-2.6-15.5-1.9-18.6,8c-3.1,9.5-14.7,17.9-4.1,29.3C2002.4,1844.7,2030.6,1875,2060.5,1907.1z
			 M2360,1853.2c-12.2,29.3-22.9,55.7-34.3,81.9c-3.1,7.1-3.1,12,1.5,18.9c40.1,59.3,58.2,58.7,92.2-4c3.8-7,7.3-14.1,11.4-20.8
			c5.5-9.1,4.7-16.2-4.1-23C2405,1889.3,2383.6,1871.9,2360,1853.2z M2451,1860c6.9-46.5,11-87.5,2.1-130.9
			c-18.1,11.4-34.6,20.4-49.7,31.5c-17.8,13.1-24,42.4-11.8,52.6C2409.7,1828.3,2428.6,1842.4,2451,1860z M2046.6,2064.6
			c28.9,0,57.1,0,89.4,0c-21.7-23.4-35.9-52.2-61.5-59c-9.6-2.5-20.1,34.4-28.7,54C2045.4,2060.4,2046,2061.5,2046.6,2064.6z
			 M1817.8,2000c14.2-28.9,36.9-51,6.9-76.3c-6.6-5.6-9.2-20.4-22.8-10.9c-10.8,7.5-16.2,16.6-9.4,30.3
			C1800.8,1959.9,1807.7,1977.2,1817.8,2000z M1927,2053.1c-15.4-19.3-30.9-38.7-47.9-59.9c-11.1,19-19.6,35.1-25,54.7
			c18.9,2.8,36.4,5.6,54,7.8C1913.5,2056.4,1919.4,2059.9,1927,2053.1z M1906.6,1816.9c-52.1,41.3-58.9,56.6-36.8,76.5
			C1882.2,1867.6,1894.4,1842.2,1906.6,1816.9z M2298.8,1999c-7.1,17.7-13,32.3-21.8,54.4c21.4-12.5,44.5-6.3,50-23.1
			C2330.4,2019.8,2312.1,2009.9,2298.8,1999z"/>
		<path class="st0" d="M1801.1,853.3c21.9-0.6,54.8,1.3,87.5,6.7c14.7,2.4,29.2,4.4,26.8,24c-2.6,21.7-18.1,19.2-34,17
			c-200-28.2-374.6,25-517.7,168.7c-99.9,100.3-144,228-164.5,365.2c-9.7,64.8-10.9,129.5,8,193.1c37.5,126.2,132,184.8,253,210.2
			c81.9,17.2,163,10.3,242.9-12.9c14.7-4.3,25.4-4.8,30.1,12.4c4.5,16.4-3.8,24.2-18.5,28.1c-150.7,40.5-295.4,31.8-428.4-56.6
			c-96.7-64.3-133.4-160.1-134.2-272.9c-1.8-238.3,83.2-434.6,278.8-577.3C1537.9,880.8,1660.4,854.9,1801.1,853.3z"/>
		<path class="st0" d="M1613.2,1455.4c-60.6,0.5-108.4-46.9-108.4-107.4c0-59.4,49.3-108.3,108.9-107.8
			c59.6,0.5,107.5,46.9,108.4,105.1C1723.1,1407.3,1676.1,1454.9,1613.2,1455.4z M1614.7,1412.9c39.1-0.6,65.6-27.6,65.3-66.5
			c-0.3-36.8-30.5-66-67.7-65.3c-36.5,0.6-65.4,30.8-65.2,67.9C1547.4,1387.4,1575,1413.5,1614.7,1412.9z"/>
		<path class="st0" d="M862.8,2726.1c-92.3-2.1-191.2-2.4-286.6-34.8c-175.4-59.6-265.8-206.5-238.9-389.7
			c6.8-46.5,17-92.2,32.6-136.7c5.6-15.9,8.7-32.3,31.8-23.4c21.3,8.1,21.8,23.3,14.8,41.4c-14.5,37.4-23.5,76.1-29.2,115.9
			c-27.3,191.2,72,327.1,263.4,362c117.2,21.4,234.8,17.7,352.5,10.2c117.7-7.5,234.9-19.8,348.9-52.2
			c71.5-20.3,139.8-47.6,201.2-90.3c120.8-83.9,164-207.6,121.6-349.3c-5.7-19.1-13.1-37.8-18.3-57c-4.5-16.6-4-31.4,17-38
			c20.7-6.5,23.8,8.5,28.7,21.2c52.2,133.5,57.3,263.1-34.4,383.4c-40.2,52.7-93.9,89-152.5,118.7c-118.6,60-246.4,85.9-376.9,101.1
			C1049.2,2718.7,959.3,2723,862.8,2726.1z"/>
	</g>
</g>
</svg>
