<?xml version="1.0" encoding="utf-8"?>
<!-- Generator: Adobe Illustrator 23.0.0, SVG Export Plug-In . SVG Version: 6.00 Build 0)  -->
<svg version="1.0" xmlns="http://www.w3.org/2000/svg" xmlns:xlink="http://www.w3.org/1999/xlink" x="0px" y="0px"
	 viewBox="0 0 3000 3000" style="enable-background:new 0 0 3000 3000;" xml:space="preserve">
<style type="text/css">
	.st0{stroke:#000000;stroke-width:10;stroke-miterlimit:10;}
</style>
<g id="Layer_1">
</g>
<g id="Layer_2">
	<g>
		<path class="st0" d="M771.6,2217.3c-41.9-19-78.7-37.7-109-67c-71-68.5-104.2-155.3-120-250c-20.2-121.1-19.2-243.5-16.2-365.7
			c7.7-322.1,57.1-637.8,149.8-946.4c32.3-107.6,72.4-211.8,138.1-304.7c84.7-119.8,198.7-190.6,343.8-211
			c240.9-33.9,482.3-41,724.4-14.2c103.4,11.4,206.8,23.6,309.7,39.4c94.9,14.6,169.1,63.2,226.7,137
			c104.3,133.5,147.3,287.1,141.2,455.3c-2.8,77.6-5.9,155.1-11.4,232.5c-9.5,133.4-22.7,266.3-52,397
			c-34.5,153.6-82.2,303.3-138.7,450c-63.3,164.3-177.4,286.7-325.5,379.1c-8.3,5.2-16.6,10.2-28.7,17.6
			c84.6,23.5,154.5,64.4,217.7,117.5c80.5,67.6,132.9,151.2,136.9,258.6c4.8,130-59.3,224.7-189.3,269
			c-170.7,58.2-344.4,107.4-524.5,126.2c-221.2,23.1-440.3,7.5-656.1-47.4c-92.3-23.5-172.9-72.7-254.2-120.1
			c-57.1-33.3-115.1-64.9-182.7-72.6c-34.3-3.9-67.1,4-100.4,8.6c-22.2,3-44.3,4.3-66.4-0.6c-59.6-13.2-88.8-55.8-77.5-116.1
			c13.6-72.1,51.7-129.8,106.7-177.3c93.9-80.9,204.4-132.4,317.8-178.7C743.4,2228.4,755.5,2223.7,771.6,2217.3z M1373.2,101.6
			c-49.3,4.8-98.6,9-147.8,14.5c-62.8,7-126.7,15.3-184,41c-64.1,28.7-118.8,73.4-163.4,129.6C807.4,375.6,765.4,478.3,732.6,585
			c-76.3,248-124,501.5-143.3,760.2c-12.9,172.2-17.5,344.5,1.1,516.7c6.3,58.2,22,114,47.2,167.1c6.9,14.6,13.4,19.5,25.4,5.5
			c11.7-13.6,24.4-26.4,35-40.9c114.8-157.5,189.8-332.1,224.8-523.9c5.4-29.7,5.3-29,35-25.8c16.9,1.8,23.1,7,19.7,25.7
			c-28.5,154.7-80.3,300.9-159.7,436.8c-37.3,63.8-74.3,128.4-131.6,177.4c-9.7,8.3-1.9,11.9,2.5,16.8c26,29,58.1,49,94,63
			c67.2,26.3,137.7,40,208.5,52.2c10,1.7,17.8-1.4,25.7-7.6c30.6-24.2,58.6-50.9,83-81.3c70.6-88.1,111.1-190.1,137.7-298.6
			c23-93.9,29.6-190,41-285.5c2.4-20.3,9.7-22.8,26.5-20.4c30.4,4.3,30.4,3.8,25.9,33.8c-1.2,7.8-2,15.7-3,23.5
			c-10.7,86.9-17.8,174.2-38.7,259.7c-35.8,146.5-95.1,279.9-208.2,384.5c-0.8,0.8-0.7,2.5-1.3,5c106.7,15.2,213.2,30.5,320.9,34.8
			c10,0.4,15.7-4,21.8-10.5c46.7-49.9,90.9-101.9,132.4-156.1c101.4-132.6,181.2-275.9,215.7-441.3c7.6-36.6,7.5-36,43.6-30.9
			c13,1.8,15.3,7,12.6,18.5c-5,20.9-8.6,42.2-14,63.1c-43.8,172-133,319.9-242.8,456.8c-26.3,32.8-53.9,64.6-82.8,99.2
			c6.9,0,10.3,0.2,13.7,0c115-7,225-36.3,332.6-75.7c10.8-4,18.1-11.2,24.9-19.6c127.1-156.1,183.2-334.1,164.8-535.1
			c-0.6-6.7-3.9-14.1,5.6-18.4c30.9-13.9,46.8-4.9,49,28.7c11.5,169.3-26.2,326.6-115.3,471.3c-2.9,4.7-8.8,9-6.3,18.2
			c148.8-81.8,266-191.9,337.7-346.6c31.5-68,51.8-139.9,75.8-210.6c53.6-158.2,93.6-319.5,110.9-486
			c14.6-140.1,23.9-280.6,26.6-421.5c2.6-134.7-34.2-257.5-107.4-370.5c-74.1-114.4-184.1-155.3-314.9-158.6c1.5,3.6,2.4,7,4.1,10
			c106,191.4,31.5,424.8-119.3,543.2c-115.7,90.9-250.8,120.6-394.9,114.5c-87.9-3.8-170.4-27.7-240.2-83.7
			c-151.1-121.4-178.2-354.9-61.3-517.6C1301.3,165.6,1335.7,133.5,1373.2,101.6z M1439.3,2894.3c143.3,4.8,283.8-14.7,422.2-50
			c104.1-26.6,209.3-50.2,309.5-90.1c76.9-30.6,122.6-87.6,132.7-171.1c10.1-83.4-17.6-155.4-72.1-215.8
			c-75.2-83.3-169-136.8-279.5-159.8c-13.9-2.9-25.9-1.6-39.2,4.1c-166.6,70.3-338.7,112.9-521.2,104.4
			c-132.9-6.2-264-27.6-395.5-45.4c-50.1-6.8-99.1-30.8-149.1-22.7c-50.4,8.1-97,33.7-144,54.7c-94,41.9-185.4,88.2-263.7,156.7
			c-42.2,36.9-67.8,83.1-79.7,137.2c-7.5,34.1,3.2,50,37.2,57.7c14.9,3.4,30.1,2.9,44.9-0.5c73.6-16.9,145.5-12.5,215.2,17.5
			c39.6,17,78.1,36.2,114.8,59c80.8,50.2,164.3,94.3,257.8,116.6C1164.1,2879,1301.3,2890.2,1439.3,2894.3z M1623.8,93.5
			c-39.2,1.6-71.7-0.7-103.5,6.8c-168.3,39.9-276.6,186.2-265.6,358.8c8.3,130.6,90.1,234.6,214.1,274.1
			c88.9,28.3,178.6,26.8,268.1,7.2c140.4-30.8,252.5-100.8,312.7-237.7c54.1-123.1,49.8-242.6-23.9-357.4
			c-8.7-13.6-17.9-22.4-36-21.8c-16.3,0.5-32.7-3.8-49.1-5.7C1833.2,104.8,1725.2,96,1623.8,93.5z"/>
		<path class="st0" d="M1395.2,1090.3c-0.3,36.8-33.1,67.6-72.3,67.7c-39.1,0.1-72.4-30.8-72.8-67.4c-0.4-37.2,34.1-69.6,73.6-69
			C1362.8,1022.1,1395.5,1053.5,1395.2,1090.3z"/>
		<path class="st0" d="M2095.8,1077.4c-38.9-0.1-71.9-31.4-72.1-68.2c-0.2-36.6,32.5-67.8,71.6-68.3c39.7-0.5,73.9,31.6,73.4,69
			C2168.3,1046.2,2134.3,1077.6,2095.8,1077.4z"/>
		<path class="st0" d="M1050.2,974.2c-41.3,0.2-71.8-27.6-72.1-65.8c-0.4-39.9,29.5-68.4,71.7-68.3c41.1,0.1,71,28.1,71.1,66.8
			C1120.9,945.6,1091,974,1050.2,974.2z"/>
		<path class="st0" d="M1683.2,1172.7c-41.1-0.1-71.4-28.3-71.4-66.6c0-37.9,31-67.3,71.2-67.5c41.4-0.2,72.9,29.5,72.5,68.4
			C1755,1145.1,1724.5,1172.8,1683.2,1172.7z"/>
		<path class="st0" d="M1424.9,2422.1c95.5,0,191.1,0.4,286.6-0.1c103-0.5,205.3,5.1,304.5,35.8c17.8,5.5,35.3,12,52.9,18.3
			c8,2.8,10.1,6.7,6.5,16.1c-14.1,37-13.6,37.2-49.7,24.3c-74.4-26.6-151.9-36-230.2-41c-12.7-0.8-16.4,2.7-13.9,15.5
			c6.5,33.2,4.4,65-13.3,95.6c-16.4,28.4-39.7,44.6-71.7,48.4c-38.5,4.7-76-1.2-112.3-13.9c-12.1-4.2-20.9-3.2-31.7,4
			c-36.7,24.4-78.6,24-120.4,22c-13.6-0.6-27.2-2.4-40.7-4.4c-60.5-9.2-93.5-52.6-89.3-116.3c1.1-16.3,11.4-37.5,0.8-47.4
			c-9.5-8.9-31-5.9-47.3-6.6c-116.4-5.3-232.7-9.3-347.1,20.3c-35.5,9.2-70.3,20.6-102.7,37.8c-11.1,5.9-16.6,5.2-22.9-7.1
			c-17.3-33.6-18.1-33.2,16.7-48.8c94.1-42.1,193.8-56.1,295.6-58.8C1205.4,2413.1,1315,2425,1424.9,2422.1z M1456,2479.6
			c0-0.3,0-0.7,0-1c-26.6,0-53.1,0-79.7,0c-7.6,0-16.9-2.7-17.5,9.7c-1,19.3-2.6,38.7-2.3,58c0.4,24,13.2,39,37.2,42.8
			c28.4,4.5,57,8.7,85.7,5.7c45.3-4.7,62.7-19.8,73-60c3.2-12.4,0.5-25,1.4-37.4c1-13.3-3.4-18.8-18-18.1
			C1509.2,2480.5,1482.5,2479.6,1456,2479.6z M1668.2,2475.2c0,0.1,0,0.2,0,0.3c-7.2,0-14.3-0.1-21.5,0
			c-36.9,0.4-36.9,0.4-39.5,37.5c-0.4,5-2.3,10.1-1.5,14.9c2.4,14.9-14.8,32.9-0.5,43.3c12.2,8.8,31.2,8.3,47.3,11.5
			c4.8,1,10,0.4,15,0.4c48.6,0.2,70.1-24.2,64.2-72.7c-4.3-35.1-4.3-35.1-39.9-35.1C1684,2475.2,1676.1,2475.2,1668.2,2475.2z"/>
	</g>
</g>
</svg>
