<?xml version="1.0" encoding="utf-8"?>
<!-- Generator: Adobe Illustrator 23.0.0, SVG Export Plug-In . SVG Version: 6.00 Build 0)  -->
<svg version="1.0" xmlns="http://www.w3.org/2000/svg" xmlns:xlink="http://www.w3.org/1999/xlink" x="0px" y="0px"
	 viewBox="0 0 3000 3000" style="enable-background:new 0 0 3000 3000;" xml:space="preserve">
<style type="text/css">
	.st0{stroke:#000000;stroke-width:10;stroke-miterlimit:10;}
</style>
<g id="Layer_1">
</g>
<g id="Layer_2">
	<g>
		<path class="st0" d="M1946.6,385.5c4.4-54.5,9.7-107.6,27.6-158.5c41.6-118.1,122.1-176.9,247.3-173.3
			c121.6,3.5,240.8,26.6,356,64.3c134.9,44.2,212.5,156.9,217,300.3c6.9,218.4-8,435.6-30.8,652.6c-24.6,234.2-45.3,468.7-69.3,703
			c-14.6,142.3-6.5,287-39.5,427c-62.3,264.7-186.3,488.8-432.5,627.3c-99.5,56-209.4,79-320.6,96.2
			c-321,49.6-644.3,58.5-968.3,52.2c-97.1-1.9-193.1-14.7-286.3-43.6c-235.7-73.1-372.5-231.7-410.9-475.3
			c-22.4-141.9-20.2-285.4-23.7-428.3c-6.7-278.5-16.2-557.1-8.5-835.7c5-179.8,33.4-357,88.8-528.8c71-220,224.7-362.8,429.8-457.1
			c123.4-56.7,252.5-89.2,388.6-94.2c148.5-5.5,296.9-11.8,445.4-0.4C1712.5,125.3,1826,205.5,1910,333c6.1,9.2,11.6,18.7,17.9,27.7
			C1933.3,368.6,1934.9,379.1,1946.6,385.5z M1000.7,2923.8c112.9,1,220.8,0.5,328.6-4.5c15.2-0.7,21.2-6.5,23.1-21.1
			c13.2-101.3,49.8-195.7,85.5-290.5c31-82.3,66.7-163.1,89.8-248.1c43.2-159,54.2-315.2-52.5-457.3c-5.4-7.2-5.9-11.8,0.5-19.6
			c24.7-29.9,32.4-30.4,55,1.8c86.3,122.8,94.5,259.7,70.7,401.7c-20.4,121.4-71.9,232.7-114.5,346.9
			c-31.1,83.5-62.2,166.9-78.3,255.1c-3.8,20.6-2.4,30.8,22.9,28.1c38.3-4,76.9-5.6,115.3-7c17.1-0.6,25.2-8.2,29.4-24.3
			c13.7-52.7,39.4-100,67-146.5c47.1-79.6,105.4-151.7,150.7-232.7c74.6-133.4,64.8-265.7-33.1-382.7c-10.6-12.7-7.5-17.8,0.9-29.4
			c18.6-25.5,33.2-22.1,49.2,1.5c11.7,17.3,25.9,33.1,36.3,51.1c75.8,131.2,61.4,261.1-7.2,389.8c-42.6,79.9-99.6,150.4-147.1,227.2
			c-23.1,37.5-45.4,75.4-59.3,117.6c-4.5,13.8-3.4,21.1,13.9,19c71-8.5,142.1-16.4,213.1-24.9c9.6-1.2,19.3-2.7,21.2-16.2
			c12.6-90.4,61.9-163.6,111.3-236.7c64.2-95.2,119.2-195.2,157.8-303.6c43.4-121.9,75.9-246.4,74.3-376.8
			c-0.9-74.7-23.7-142.5-93.5-181.8c-21.4-12-26.2-21.8-16.6-42.1c3.2-6.9,5.2-14.3,8.3-22.9c83.8,31,130.1,93.1,148.1,176.8
			c22.9,106.3,0.8,210.3-22.8,313.5c-42.9,187.4-129.1,354.6-238.3,511.3c-29.7,42.6-52.9,88.7-68.3,138.6
			c-6.6,21.5-0.5,27.3,21.5,23.1c115.9-22.4,225.7-59.6,319.1-134.4c220.8-176.7,320.1-415.3,338.4-689.7
			c14.9-223,35.4-445.3,56.2-667.7c20.5-218,51.1-435.2,59.5-654.3c2.2-56.1,2.8-56.1-54-61.3c-171.8-15.8-275.9-122.9-281.1-291
			c-1.9-62.2,9-123,30.1-181.3c10.2-28.2,11.3-42.6-25.4-45.7c-42.6-3.6-84.4-14.8-126.8-21.1C2132.9,90,2047,144.8,2016,280.6
			c-14.6,63.7-17.8,128.4-10.8,193.7c9.9,91.9,18.3,184,17.4,276.6c-0.2,19.5-5.8,37.1-27.7,37.7c-22.6,0.6-27.9-17-28.3-36.6
			c-1-49.6-5.4-98.9-12-148.1c-9.5-71.3-32.8-137.6-67.8-201.9c-9.2,9.8-5.7,18.8-6,26.9c-7.4,167.2-69.7,310.4-190.6,426
			c-145.8,139.4-323.3,205-522.7,213.9c-186,8.3-363.6-28.3-531.6-107.8c-71.5-33.9-117-90.4-130.8-171
			c-7.9-45.9-9.5-91.6-7.4-137.9c3.5-80.1,12.6-159.6,24.2-239.7c-5,0.8-7.7,0.4-9,1.6c-6.5,5.9-12.9,12-19,18.3
			c-71.5,73-120.7,159.4-150.7,256.6c-53,171.4-79.8,347.3-84.3,526.2c-8.2,324.9,7,649.7,13,974.5c1.8,95.5,5.2,191.3,23.6,286
			c37.7,193.9,147.6,324.9,332.8,393.1c15.1,5.6,26.4,9.8,38.6-8.4c104.2-155.8,157-327,149.4-514.3c-5.9-146.6-77.5-228-218-258.2
			c-11.8-2.5-24-5.4-35.9-4.8c-29.7,1.3-29.8-15.8-28-38.1c2.4-28.9,22.1-17.5,36.5-17.2c10.9,0.2,21.8,2.7,32.6,5
			c130.9,27.7,226.4,95.4,258,232.5c15,64.9,13.2,131.3,6.7,197.2c-14.7,148.3-62.6,285.3-144,410.2c-11.7,18-8.9,21.9,11.7,26.5
			c61.6,13.5,124,18.3,186.6,22.1c11.1,0.7,18.5-2,23.5-13c50-109.3,119.9-207.8,172.5-315.5c70.1-143.6,78.5-289.6,5-435
			c-15-29.7,10.5-29.4,22.5-39.1c17.3-13.9,22.1,2.5,27.6,13.6c53.8,109.5,68.7,224.1,43.7,343.7
			c-21.5,103.1-75.1,191.7-126.7,281.4C1059.8,2810.2,1025.3,2861.2,1000.7,2923.8z M552.8,669.1c-7.7,162.7,32.9,222.3,183.1,275.7
			c76.9,27.3,155.4,48.4,236.2,59.7c187.8,26.1,370.3,10.3,537.9-85.2c211.8-120.7,326.6-299.6,311.9-549.7
			c-1.9-32-1.6-66.8-28.4-92.2c-47.9-45.4-101.8-80.2-166.6-96.7c-55.9-14.2-112.8-18.3-170.2-18.9c-110.2-1.3-220.2,3.1-330.3,6.4
			c-187.6,5.6-358.3,62.5-514.9,164.6c-15,9.8-22.5,21.4-25.9,39.3C566.7,471.6,554.1,571.9,552.8,669.1z M2741.3,494.9
			c-0.2,0-0.4,0-0.6,0c0-22,0.7-44-0.1-66c-5.1-143.6-80.6-236.6-219.7-271.4c-12.2-3.1-23.2-6.9-28.9,10.2
			c-24.2,72.5-42.7,146-33.6,223.1c14.6,123.8,107,199.9,245.9,207.5c30.5,1.7,40.9-7.3,37.5-37.5
			C2739.3,539.1,2741.3,516.9,2741.3,494.9z"/>
		<path class="st0" d="M1405.9,1344.3c61.5,0.1,111.1,49.5,111.3,110.9c0.2,61.4-52.8,114-114.1,113c-61.3-1-110.3-50.8-110.4-112.4
			C1292.7,1391.4,1340.5,1344.2,1405.9,1344.3z"/>
		<path class="st0" d="M1722.4,1265.3c-0.5-64.5,47.1-112.3,111.9-112.5c61.8-0.2,111.4,48.2,112.5,109.6
			c1.1,61.2-51.5,114.4-112.9,114.2C1772.7,1376.4,1722.9,1326.7,1722.4,1265.3z"/>
		<path class="st0" d="M565.2,1543.4c-64.6-0.2-112.5-48.5-111.9-112.8c0.6-61.4,50.5-111,111.7-111.1
			c61.5-0.1,113.8,53,112.8,114.2C676.7,1495.3,627.1,1543.6,565.2,1543.4z"/>
		<path class="st0" d="M1010,1629.4c-61.4,0-111.1-49.4-111.5-110.7c-0.4-61.3,52.6-114,113.8-113.2
			c61.2,0.8,110.4,50.6,110.6,112.1C1123.1,1581.6,1074.8,1629.5,1010,1629.4z"/>
		<path class="st0" d="M1192.5,379.8c34.3-2.3,68.2,1.1,101.4,9.4c113,28.2,150.1,145.7,73.8,234.2
			c-42.9,49.8-100.3,73.4-162.3,88.1c-70.6,16.8-141.6,21.5-211.7-1.2c-116.3-37.6-145.8-155.6-62.3-245.2
			c59.1-63.4,135.9-81.2,218.1-85.2C1163.8,379.2,1178.2,379.8,1192.5,379.8z M1140.4,613.5c0.4,6,1,20.3,2.3,34.5
			c1,11.5,6.3,18.7,19.3,16.3c63.5-12.1,125.4-28.7,167.9-82.3c43.5-54.9,23.4-116.1-43.4-137.3c-22.2-7-45.1-9.4-68.1-11.7
			c-16.7-1.7-26.6,5.2-34.7,18.9C1155.8,499.2,1138.6,549.5,1140.4,613.5z M1125.5,439.9c-43.4-1.1-78.6,9.3-111.2,29.2
			c-55.4,33.9-83.5,80.4-73.5,121.7c10.4,43.1,53.4,71.5,118.7,78.2c2.2,0.2,4.4,0.2,6.6,0.5c16.2,2.4,25.1-1.6,22-20.8
			C1076.4,576.7,1092.5,509,1125.5,439.9z"/>
	</g>
</g>
</svg>
