<?xml version="1.0" encoding="utf-8"?>
<!-- Generator: Adobe Illustrator 23.0.0, SVG Export Plug-In . SVG Version: 6.00 Build 0)  -->
<svg version="1.0" xmlns="http://www.w3.org/2000/svg" xmlns:xlink="http://www.w3.org/1999/xlink" x="0px" y="0px"
	 viewBox="0 0 3000 3000" style="enable-background:new 0 0 3000 3000;" xml:space="preserve">
<style type="text/css">
	.st0{stroke:#000000;stroke-width:10;stroke-miterlimit:10;}
</style>
<g id="Layer_1">
</g>
<g id="Layer_2">
	<g>
		<path class="st0" d="M285.7,1917c-30.8-17.8-57.4-36.6-79.8-61c-50.7-55.3-63.2-132.9-30.5-191c8.1-14.5,19.3-26.8,27-41.9
			c8.8-17.1,8.4-24.7-11.2-32.4c-35.9-14.1-65.3-37.6-86.2-70.8c-31.5-50.3-28.5-107.4,10.6-151.7c47.5-53.8,107.2-94,161.6-140.2
			c53.7-45.6,108.4-89.9,162.9-135c-12.2-10.9-21.6-25.7-33.6-28.3c-11.8-2.5-18.7,15.9-28.6,24.3c-60.5,51.5-146.6,50.1-204.4-3.9
			c-60.4-56.4-68.1-148.4-15.8-214.7c12.1-15.3,9.5-22.8-0.4-37.4c-44.8-66.1-52.5-138.7-29.9-214.2c9-30.1,30.5-52.5,57.5-67.8
			c86-49,225.1-52.7,297.2,45c7,9.5,11.8,8.5,20,2.4c90.4-68.3,195.4-91,305.5-94.5c149.9-4.8,299,9.2,448,22.5
			c110.4,9.9,219.9,28.3,330,39c77.2,7.5,156.2,1.7,234.3,3.8c187.4,5.2,374.7,11.5,562,17.4c109.2,3.4,218.4,6.8,327.6,10.3
			c28.6,0.9,57.2,2.6,85.1,8.8c92,20.6,136.9,104,107.2,198.8c-19.1,60.7-62.3,102.4-111.8,139c-28.9,21.3-28.7,21.3-5.5,49.4
			c61,74.1,89.4,161.8,97.7,255.1c12.7,143.3,15.8,287.2-8.3,429.9c-22.9,135.3-78,216.3-193.3,291.2c12.9,14,26.8,26.8,38.1,41.7
			c41.6,54.7,55.6,118.2,52.8,185.3c-2.9,70.6-13,140.5-31.7,208.8c-27.7,101-86.4,151.8-200.3,160.5
			c-242.2,18.5-483.8,16-722.3-38.9c-68.5-15.8-133.8-39.2-188.4-86c-20.5-17.5-36.4-39.1-53.7-61.1
			c-46.1,89.5-113.2,153.5-206.1,189.4c-46.6,18-95.3,26.8-144.7,27.9c-227,5-454,0.4-681-0.9c-56.3-0.3-112.2-6.7-166.8-22.8
			c-150.7-44.3-244.5-176.8-238.6-333.9c4.1-110.1,47.4-203,116.1-286.2C263.8,1941.4,274.1,1930.3,285.7,1917z M2053.7,1393.9
			C2054.8,1394.9,2054.2,1393.9,2053.7,1393.9c-3.3,0-6.7-0.1-9.9,0.2c-77.5,7.5-128.5,53.7-166.9,116.5
			c-41.7,68.2-99.9,114.3-176,138.8c-31.1,10-62,21.3-91.9,34.5c-45.7,20.3-86,48.1-98.7,100.3c-5.5,22.6-19.7,15.6-32.5,14.3
			c-18.8-1.9-10.9-15.7-8.6-25c11.8-47.7,42.6-81,82.6-107c42.8-27.8,91.4-41.9,138.9-58.2c63.7-21.9,114-59.5,148.6-117.9
			c14.6-24.6,32.4-47.2,52.6-67.5c57.3-57.4,126.8-81.2,206.7-68.5c22.3,3.5,35.7-5.5,48.4-18.3c14.2-14.3,9.4-27-10.5-28.6
			c-39.3-3.1-78.7-6.2-118.3-5.1c-107.7,3-188.2,45.5-232.8,149.1c-24.4,56.7-70.4,93.5-130.3,110.8
			c-37.9,10.9-76.4,19.7-114.3,30.2c-57,15.8-107.5,38.6-120.9,105.8c-3.4,16.9-23.1,9.2-35,9.4c-11.6,0.2-6.2-11.4-5.4-17.9
			c6.8-53.2,39.7-87.3,84-112.6c38.5-22,81.5-31.6,124.2-39.4c81.6-15,141.5-53.8,176.4-132.8c34.3-77.8,99.7-119.7,182.3-136.3
			c66.9-13.4,133.9-8.7,200.9-2.4c22.1,2.1,39.6,13.1,47.2,36c7.8,23.4-0.3,43.1-14.4,60.8c-12.9,16.2-31.8,24.3-49.6,33.8
			c-76.1,40.5-110,115.4-90.5,198.9c5.3,22.9,11.7,45.7,14.9,68.9c6.3,46-6.5,84.4-48.2,110.4c-37.3,23.3-38.6,26-28,69.5
			c13,53.1-1.1,96.2-44.3,129.5c-13.3,10.2-27.5,19.2-41.4,28.6c-16.7,11.2-33.6,22.2-50.4,33.4c-6.3,4.2-9,10.2-7.2,17.4
			c2.4,10,10.7,6,16.7,5.6c95.6-5.9,191.2-12.1,286.8-18.3c10.3-0.7,19.4-2.9,26.4-12c71.1-92.7,142.6-185,191.1-292.5
			c42.3-93.7,65.1-191.2,51.2-294c-20.3-150.5-111.3-248.1-243.2-311.6c-101.3-48.8-210.3-61.7-321.4-60.6
			c-124.7,1.3-247.3,23.5-370.5,39.6c-8.8,1.2-15.4,4-19,13.5c-19.3,50.1-54.6,88.4-94.4,122.5c-85.6,73.5-181.9,102.9-292.3,65.2
			c-46.8-16-85.8-42.6-105.5-90.7c-5.3-12.9-5.9-33.7-14.6-37.7c-11.6-5.2-29,3-43.9,4.7c-62.6,7.1-123.7,3.1-174.1-39.5
			c-16.7-14.1-32.4-15-50.7-12.8c-59.8,7.4-118.9,4.7-176.1-15c-16-5.5-26.1-2.7-37.9,7.6c-25.3,22.1-51.7,42.9-77.5,64.4
			c-75.5,63-152.5,124.1-225.7,189.7c-52.5,47.1-45.4,107.4,11.4,150c29.6,22.2,64,33.2,99.3,40.9c125.3,27.3,250.8,54,376.2,80.8
			c47,10,94,19.8,141.8,29.9c3-30.9-1.6-58.5-4.3-85.9c-6.9-71.5-22.4-141-54.9-205.7c-18.3-36.4-41.7-69-78-90.3
			c-15.7-9.2-29.3-16.3-38.8,7.8c-3.9,9.9-13.4,19.6-23.7,21.5c-33.1,6-51.7,29-69.3,54c-1.4,2-3.4,3.7-5.4,5.3
			c-18.2,14.1-29.5,30.6-27.4,55.7c1.7,21-18.2,11.4-28.1,15c-13.3,4.8-12-6.8-12.7-14.8c-2.9-30.3,4.8-56.4,28.7-76.9
			c8.9-7.6,17-16.3,25.1-24.8c6.5-6.9,8.5-14.7,0.8-22c-7.3-7-13.7-5.7-21.2,1.3c-13.2,12.4-30,19.6-47.7,20.8
			c-17.2,1.1-30.3,3.5-34.3,23.7c-1.2,6-11.4,19.5-17.2,8.8c-7-13.1-23.2-24.5-15.7-44.2c6.8-17.9,18.6-29.2,37.2-28.2
			c41.7,2.2,64.2-20.5,81.2-54.9c15.2-30.8,43.2-43.3,76.3-45.2c29.3-1.7,49.8,11.5,62.4,37.8c1.8,3.8,1.2,8.6,9.2,8.8
			c26.5,0.7,47.3,15.8,66.8,31.7c45.9,37.4,72.5,87.6,91.9,142.1c34.9,98.6,45,200.8,42.3,304.7c-0.4,14.1-0.1,28.2-0.1,42.2
			c4.8-5.5,7-10.9,8.4-16.5c42.5-165.6,28.9-326.5-41.9-482c-8.7-19.1-9.4-28,11.7-37.4c24.9-11.1,22.2,10.9,26.6,20.4
			c66.2,143,83.9,292.8,58.4,447.8c-17.6,107.3-61.2,204.4-119.3,300.9c4.8-89.2,9.3-173.5,13.9-260.3
			c-58.7,14.3-115,26.5-172.9,30.8c-136.6,10.3-268-10.4-394.3-62.9c-18.8-7.8-23.1-2.8-23.5,15.5c-1.3,54.8,25.6,94.3,66.8,126.2
			c29.5,22.8,63.3,37.9,97.7,51.6c198.9,79.1,406.3,121.8,618.2,145.5c7.4,0.8,14.3,1.4,21.8-2.8c84.3-48,148.1-113.1,173-209.7
			c22.8-88.4-15-206.4-113.7-246.7c-14.3-5.8-27.6-14-44.3-22.6c19.1-7.7,35.3-6,50.9-8c111.9-14.9,216.7,46.2,255.4,153.1
			c44.3,122.3,10.9,229.2-72.7,323.7c-8,9-16.7,17.3-28,29c182,9.1,358.4,3.6,534.7-3.8c10.9-0.5,16-5.8,20.6-14.8
			c12.9-25.3,32.5-44.5,56.5-59.7c24.8-15.8,49.8-31.3,73.4-48.6c24.9-18.3,36-43.4,30.4-75c-5.4-30.6-4.9-30.4-33.3-18.8
			c-13.2,5.4-26.7,10-40.3,14.1c-73.7,21.6-127.3,67.1-158.4,137c-9.5,21.4-21.1,12.3-34.1,8.4c-17.7-5.3-9.5-16.1-5.1-25.4
			c35.7-76,92.3-129.6,172.5-155.9c43.4-14.2,86.2-27.8,115.5-66.4c5.8-7.6,15.7-12.6,24.6-17.2c25.1-12.8,35.6-34.5,31.9-60.4
			c-5.8-39.9-15.3-79.2-24.1-123.6c-21.7,30.4-40.6,56.1-58.6,82.2c-37.5,54.2-86.8,92.9-148.5,116c-30.6,11.5-61.3,22.9-91.1,36.3
			c-45.1,20.4-86.2,46.2-106.4,94.8c-8.6,20.7-22.6,7.3-33.8,4.8c-15.4-3.3-7.2-14.1-4.2-21.8c15.7-41.1,46.3-69.3,82.4-92.4
			c41.4-26.5,88-41.2,133.2-59c45.3-17.8,88.7-39.9,116.4-80.7C1934.7,1554.8,2008.5,1484.9,2053.7,1393.9z M2614.5,1951.2
			c5.7-1.4,8.9-1.8,11.7-3.1c86.6-37.8,148.5-99.4,182-188.5c26-69.3,35.2-141.5,37.9-214.9c4.2-112.6,6.7-225.3-12.5-337
			c-14.1-81.9-45.5-156.1-106.4-215.4c-14-13.7-28.9-19.8-49.1-19.4c-169,2.8-337.9,4.3-506.9,6.7c-15.1,0.2-25.2,0.1-24.9-20.3
			c0.2-17.7,5-22.3,22.6-22.4c163.9-1,328-7.4,491.7-2.8c75.4,2.1,123.1-31.5,167.5-82c3.4-3.9,9.9-7.5,5.5-15.2
			c-191.4-7.5-383.1-5.8-574.7-3.2c-18.7,0.3-29.4-1.4-29.3-24.8c0.1-26,17.3-17.7,29.3-17.7c194.2-0.2,388.4-3.9,582.5,3.5
			c16.3,0.6,21.8-5.5,25.1-20.3c14.6-65.3-20.4-117.9-90.1-128.8c-70.7-11-142.5-8.9-213.8-11.1c-173.1-5.4-346.2-10-519.2-16.2
			c-159.6-5.7-319.3-12.1-479-8.5c-118.6,2.7-236.4,14.9-351.6,45c-158.7,41.4-302.7,110.1-418.7,229.5
			c-31.4,32.3-56.8,68.6-69.9,112.3c-20.1,67.2,8,120.6,74.9,142.3c43.9,14.3,87.8,8.8,132.1,1.3c15.1-2.6,19.8-7.9,23.2-22.9
			c24.9-109.5,91.4-179.9,202.2-203.3c82.9-17.5,160.5,1,231.1,46.8c33.7,21.8,61.9,49.8,71.2,91c3.5,15.4,10.5,16.9,24.3,14.8
			c100.5-15.3,201-31,302.6-36.7c124.4-7,247.4,0.7,364.1,48.7c147.8,60.7,256.4,159.5,293.1,321.5c26.7,117.6,4.6,230.3-41.7,339.4
			c-40.7,96-100.1,180.5-162.4,263.2c-6.5,8.7-15.8,16.2-18.7,30.1c112.3-14.6,222.1-28.6,329.5-57.3c14.5-3.9,19.7-12.1,22-26.2
			c10.2-62.2,19.1-124.5,21.1-187.7c4.1-130.2,12.9-260.8-1.4-390.6c-11.5-104.1-50.5-192.3-167.2-219.3
			c-19.6-4.5-7.8-22.8-8.4-34.5c-0.7-13.1,10.4-7.3,16.7-6.4c44.9,6.4,82.5,27.5,114.5,59c60.6,59.4,84.5,135.4,89.5,216.4
			c8.2,132.6,3.4,265.5-2.5,398.2C2631.2,1839.9,2622.2,1894.5,2614.5,1951.2z M2388.3,2264.8c-66,0-143.3-0.3-220.6,0.3
			c-14.5,0.1-20.4-2.6-20.6-19.1c-0.3-20.3,8.4-23,25.8-22.8c168.1,1.8,336.1-4.1,503.8-15.7c62.8-4.4,55.1,8.8,50.5-58
			c-4-59.1-27.3-110.6-77-146.8c-8.6-6.2-16.7-11.3-29.7-6.8c-174,59.9-355.7,75.7-537.3,91.5c-154.9,13.4-310.3,18.6-465.7,23.5
			c-17.3,0.5-23.7,3.3-18.5,22.6c14.3,53.6,14.9,108.5,2.6,162.3c-5.7,25,0.4,44.5,12.8,64c34,53.7,84.6,85.6,143.1,105.7
			c91.8,31.6,187.3,46,283.3,55.7c153.3,15.5,307,14.7,460.8,5.9c25.3-1.5,50.1-4.7,74.8-9.9c61.8-12.8,100.7-50.3,119.4-109.9
			c13.9-44.3,18.6-90.3,27-135.6c4-21.9-4.1-24.5-23.6-23.4C2599.5,2254.2,2499.6,2258.9,2388.3,2264.8z M334.7,1939.5
			c-10.6-2.2-13.5,2.7-16.7,6c-62.7,64.3-111.7,137.1-129.4,226.5c-23.9,120.6,0.9,228,98.3,309.7c62,52.1,138.8,65.3,216.9,69.8
			c142.8,8.2,285.8,4.8,428.7,4.8c109.2,0,218.4,4.3,327.7-4.3c205.9-16.1,348.9-215.6,297.3-416.1c-4.4-17.2-11-24-30.3-23.7
			c-140.4,2.4-280.8,1.6-420.9-8.8c-15.8-1.2-34.7-5.8-46.8,0.9c-12.2,6.8-3.7,28.1-8.4,42.3c-0.3,0.8-0.5,1.6-0.7,2.4
			c-19.7,86.1-75.5,142.7-151.5,181.2c-89.9,45.5-186.2,68.6-286.6,69.3c-106.4,0.8-202.2-30.7-278-109.7
			c-84.6-88.1-97.5-217.7-31.1-312.2C312.2,1964.9,323.1,1953.4,334.7,1939.5z M1363.7,578.4c-85.2-7.5-170.3-16.7-255.6-22
			c-109.7-6.8-219.3-18.2-329.5-9c-15.5,1.3-24.1,5.1-28.1,21c-5.5,22.1-17.6,41.5-29.7,60.8c-26.6,42.4-62.6,76.6-96.7,112.5
			c-37,39-74.5,77.9-94,129.5c-18.6,49.2-19,97.3,14.4,140.9c28.9,37.7,70.1,59.4,111.8,79.6c8.4,4.1,18,3.1,27.7-1
			c-6.2-25.3-11.3-50.3-6.9-76.8c10.9-66.1,46.5-118,92-164.2c97.4-98.9,215.2-164.7,345.6-209.5
			C1195.6,612.4,1279,594.7,1363.7,578.4z M1216.1,950.9c-112.1-1.4-200.1,68.1-221.3,174.6c-13.6,68.5,10.5,114.4,74.6,141.3
			c26.5,11.1,54.1,18.7,83,18.4c112.9-1.2,189.8-63.5,248.9-151.7c33-49.3,23.3-91.2-23.8-127.4
			C1330.1,969.6,1276,951.5,1216.1,950.9z M614.8,2357c103.5-0.5,230.8-36.2,301.2-85.7c53.8-37.8,90.4-86.8,96.6-154.8
			c1.3-14.4-2.5-21.8-18.2-22.6c-17.6-0.8-35.1-3.6-52.6-5.6c-8.7-1-16-1.5-19.4,9.9c-20.8,71.3-74.4,107.3-141.3,126.5
			c-65.7,18.8-133.4,27.3-201.5,26.8c-97.4-0.7-162.9-46.1-186.7-124.2c-12.8-41.9-11.7-84.4-6.1-127.2c1.7-12.6,13.5-31.1,1.5-36.9
			c-16.1-7.7-27.5,11.6-37.8,22.8c-61.1,66.4-64.3,173.2-5.4,250.9C412.7,2325.8,507.1,2357.1,614.8,2357z M591.6,2209.1
			c56.4-1,112.1-8.9,166.9-21.5c49.9-11.5,92.4-35,117.6-82.8c8.9-16.9,7.1-24.9-14.3-27.5c-37.4-4.6-74.6-11.7-111.8-18.4
			c-100.1-17.9-198.5-42.9-294.7-75.9c-17.5-6-22.6-1.9-25.1,15.6c-4,28.5-6.1,56.8-3.2,85.3c6.3,62.6,41.5,103.6,102.1,119.5
			C549.7,2208.9,570.5,2209.7,591.6,2209.1z M158.4,696.9c0.4,6.4,0.7,16.4,1.7,26.5c8.9,92,75.3,147.9,163.6,139
			c21.5-2.2,33.8-9.4,38-33.4c11.4-66.7,39.8-126.3,84.7-177.1c11.8-13.3,10.3-22.2,0.1-33.8c-53.1-60.4-119.3-69.1-192.8-49.3
			C183,587.8,157.1,621.6,158.4,696.9z M710.3,557.5c-8,0.7-12.2,0.7-16.2,1.6c-184.6,37.6-287.5,165.7-298.3,329
			c-7.7,116.4,50.8,187.8,167.8,203.2c-3.3-9.6-12.4-13.2-19.2-18.8c-63.4-53.3-83.7-124.9-57.9-204c10.5-32.3,27.1-61.2,47.6-88.2
			c31.1-40.9,68.3-76.3,103.5-113.5C667.2,635.6,692.7,601.6,710.3,557.5z M1168.3,1614.6c51.4,73.6,69.7,152.7,47.8,239.7
			c-21.4,85-75,147.9-143.8,201.6c67.3,17.4,91.2,11.7,136.8-33.6c74-73.5,109.3-160.5,85.7-265
			C1278.9,1687.5,1235.9,1639.3,1168.3,1614.6z M165,968.3c-0.3,50.3,31.7,95,79.4,111c43.9,14.7,95.1-2.2,122.9-40.8
			c5.9-8.1,11.9-15.4,6.1-27.2c-14.5-29-19.2-60.8-20.5-92.7c-0.6-15-5.4-18.8-19.6-15.7c-32.2,7-63.5,1.7-94-9.1
			c-40.7-14.4-44.4-13.3-63.1,25.9C169.1,935,164.6,951.1,165,968.3z M492.3,1666.5c-47.5-20.2-52.2-19.2-76.7,21
			c-6.2,10.2-21.8,22.4-15.2,31.3c8.2,11.2,27.7,7.1,42.1,10.2c7,1.5,10.7-3.2,14-8.2C468.5,1702.8,480.3,1684.8,492.3,1666.5z
			 M358.8,1634.6c-4.9-0.7-11.4-2.6-14,2.1c-10.4,18.9-19.8,38.3-29.5,57.6c-2.1,4.2,1,7.3,3.7,7.8c14.7,2.7,31.5,17.3,41.9-7.4
			c3.5-8.3,9.6-15.5,14.6-23.1C398.9,1635.6,395.8,1645.1,358.8,1634.6z M300.9,1628c-1.5-2-2.6-4.1-4.2-5.5
			c-15.2-13-43.5-7-52.5,11.1c-3,6-6.3,11.8-8.8,17.9c-2.8,6.8-12.8,15.5,0.1,20.4c11.8,4.5,26.5,19,36.1,8.8
			C284.8,1666.8,291.3,1646.3,300.9,1628z M500.4,1731.9c53.5,7.5,53.7,7.6,70.5-29.1c2.9-6.4,14.1-16.8,3.1-20.5
			c-11.6-3.9-27.1-16.3-38.8-2.3C522.1,1695.6,512.3,1713.8,500.4,1731.9z M553.1,1300.2c17.6-3.7,30.5-11.7,30.8-32.7
			c0.2-16.8-10.1-21.7-24.1-21.8c-18.5-0.2-43.1,17.7-40.8,30.3C522.2,1294,537,1298.2,553.1,1300.2z M603.7,1731.9
			c13,3.6,23.5,0.2,34.1-0.9c15.8-1.6,17.6-16.4,18.7-25.9c1.3-10.8-12.6-10.2-20.5-10.7C608.9,1692.8,616,1719.5,603.7,1731.9z"/>
		<path class="st0" d="M1152.4,1073.3c41.5,0.6,74.8,31,75.1,68.8c0.3,39-36.6,71.9-79.1,70.7c-42.3-1.2-76.4-34-75.1-72.3
			C1074.7,1101.5,1108.6,1072.7,1152.4,1073.3z"/>
	</g>
</g>
</svg>
