<?xml version="1.0" encoding="utf-8"?>
<!-- Generator: Adobe Illustrator 23.0.0, SVG Export Plug-In . SVG Version: 6.00 Build 0)  -->
<svg version="1.0" xmlns="http://www.w3.org/2000/svg" xmlns:xlink="http://www.w3.org/1999/xlink" x="0px" y="0px"
	 viewBox="0 0 3000 3000" style="enable-background:new 0 0 3000 3000;" xml:space="preserve">
<style type="text/css">
	.st0{stroke:#000000;stroke-width:10;stroke-miterlimit:10;}
</style>
<g id="Layer_1">
</g>
<g id="Layer_2">
	<g>
		<path class="st0" d="M698.4,824.7C589.4,670.2,580.8,501,607.4,328c20-130.2,168.2-249.9,301.7-251.4c120-1.3,240-0.2,360-0.3
			c118.7-0.1,201,61.4,263.7,156c3.6,5.4,6.3,11.3,9.4,16.9c3.1,5.5,6.1,11,11,19.7c13.9-11.4,26.2-21.7,38.8-31.8
			c201.8-161.4,424.5-189.4,661.4-95.4c126.6,50.3,192,150,198.5,288.1c5.1,108.8,3.8,216.7-23.8,322.9c-2.4,9.3-6.1,18.2-0.1,29.5
			c42.8,80.2,31.3,176.8-29.8,244.9c-12.9,14.4-11.5,27.6-6.6,42.6c5.8,17.9,9.7,37.2-1.9,52.3c-22.9,30-24.8,63.2-23.9,98.5
			c0.8,28.9-6.7,57.9-23.4,80.7c-22.1,30.1-23.1,60.1-16.8,94.7c5.4,30,10.3,62.2-16.3,87.3c-1.8,1.7-4,4.6-3.7,6.5
			c15.6,93-56.4,164.3-60.4,255.1c-6.5,145.9,26.8,214.2,160.8,274.9c56.2,25.5,112,51.8,167.9,77.9c21.1,9.9,41.4,21.2,58.9,36.8
			c50.6,44.8,52.7,96.8,3.6,143c-76.1,71.6-153.5,141.9-230,213.1c-38.7,36-71.3,82.8-116.3,106.9c-55.9,30-67.5,71.8-69.1,125.9
			c-0.6,19.1-6.6,38-9,57.2c-8.2,64.5-46.1,107.1-104.4,127.7c-108.9,38.6-222.1,44.3-335.8,27.6c-52.9-7.8-70-22.6-138-91.7
			c-119.3,125.6-342.1,110.5-464.7-33.9c-69.4,101.6-172.7,125.9-286.7,126.7c-85.2,0.6-170.4,4.1-255-9.4
			c-180.5-28.9-265.8-166.4-207.2-340c50.2-148.8,153.1-238,311.5-258.4c10.1-1.3,20-3.4,36.1-6.1C728,2284.2,682.6,2274,636,2269
			c-45-4.8-90-0.1-135,5.4c-35.2,4.2-75,12.7-100.3-22.4c-26.7-37-15.1-77.2,2.9-114c44.1-90.6,117.8-138.6,218.5-140.1
			c57.9-0.9,115.9,6.6,173.9,6.1c62.9-0.5,97.9-46.3,85.7-105.3c-5.6-26.9-20.5-43.2-47.5-49.7c-25.6-6.2-51.2-5.4-76.9-2.4
			c-42.4,4.9-85,6.9-127.5,3.9c-74.6-5.2-126.7-45-146.3-117.1c-32.2-118.5-10.3-227.9,66.9-323.8c15.8-19.6,17.9-27.3-3.5-43.2
			c-39.6-29.5-53.7-75-61.9-121.3c-18.4-104.1-1.1-203.3,48.8-295.9C568.4,885.1,622.4,843,698.4,824.7z M2005.8,2315.8
			c-11.2-9.3-17-14.3-23-19.1c-103.4-83.4-221.3-118.8-353.4-106.2c-20.9,2-34.5-0.3-37.8-24.9c-3.9-29.5,18.9-23.2,32.7-24.7
			c99.9-10.8,196.6,4.6,285.5,50.6c105,54.3,193.6,127.2,235.9,243.4c12.8,35.1,22.7,71.3,37.7,105.4c20.2,45.8,44.1,51.5,79.7,18.3
			c73.5-68.5,145.2-139,216.9-208c-3.2-10.8-11.6-12.5-18.2-15.9c-187.2-95.1-383.3-164.3-589.3-205.6
			c-83.5-16.7-167.6-29.6-252.3-37.4c-18.4-1.7-24.1-7.4-22.8-25.8c1.2-17.8,6.3-26.2,25.3-23.1c11.4,1.8,23.2,1.2,34.7,2.5
			c278,31.1,544.6,103.3,793.9,230.9c55.7,28.5,91,28.3,134.6-17.4c46-48.2,48.8-72.6-11.4-104.3c-91.1-47.9-185.1-91.2-282.5-124.1
			c-239.9-81-484.7-92.7-732.2-38.5c-21.4,4.7-28.4,2.6-33.4-20.1c-4.5-20,1.9-24.4,18.1-28c144.6-32.1,290.6-40,438.1-28.1
			c84.7,6.8,167.7,23.4,255.3,44.6c-18-38.3-37.3-71.1-37.8-108.7c-0.4-32.1-17-36.1-44.1-35.8c-121.3,1.1-242.7,0.4-364,0.6
			c-19.2,0-35.1,1.1-35.5-26.9c-0.4-30.5,19-24.5,36.1-24.5c117.5-0.1,235-2.5,352.3,1.2c42.4,1.3,53.6-12.1,57-51.6
			c6.6-76.9,8.8-74.8-68.9-81.6c-131.9-11.5-262.8-8.2-393.2,15c-18.4,3.3-35.1,6.3-39.9-20.9c-5-27.9,13.7-24.5,29.4-27.4
			c150.9-28.3,302.7-27.8,454.6-10.9c54.9,6.1,83.1-25,71.4-81.7c-3.1-15.2-8.9-21.2-25.2-21.6c-33.9-0.7-66.4,5.2-99.3,12.4
			c-95.1,20.8-189.8,33.5-285.4-2.6c-51.9-19.6-107.4-28.1-163.5-22.8c-91.5,8.6-183,9.3-274.3-0.5c-26.3-2.8-37.4,4-47.1,29.5
			c-26.3,69-78.3,112.1-151.5,123.1c-78.7,11.8-144.5-13.8-193.8-78.6c-33-43.4-39.4-93.6-37.5-146.2c-63,13.7-89.8,13-174.6-3.8
			c-159.7-31.7-242.8,20.6-276.9,176.7c-12.3,56.2-12.1,113,12.5,167c19.8,43.4,103.4,86.9,127.8,60.6c33.6-36.4,70-15.3,104.1-22.8
			c12.4-2.7,25.7-1,38.6-1.2c283.9-3.8,567.8-7.5,851.7-11.6c16-0.2,26.6,0.8,27.5,21.6c0.9,22-8.7,25.4-27.5,25.2
			c-86.1-0.7-171.7,12.6-257.9,7.6c-5.8-0.3-13.2-2.3-15.9,6.3c62,66,80.6,119.6,74.4,210.9c-3.2,48.1-16.3,93.9-30,139.5
			c-22.5,75-77.5,116.2-149.3,138.4c-61.4,19-124.5,19.9-187.6,15.2c-169-12.7-275.1-98-324.2-260.2c-3-9.9-5.7-16.6-16.8-17
			c-62.9-2.4-126-15.7-188.4,3.3c-62.8,19.1-103.5,61.9-124.7,122.5c-14.6,41.6-2.1,54.2,42.3,48.8c28.2-3.5,56.3-7.5,84.6-9.3
			c110.4-7,206.6,22.4,280,110.2c15.7,18.8,33.4,36,51.1,52.8c57.2,54.4,124.1,84.1,204.1,89.8c178,12.6,356.1,5.2,534.1,5.7
			c105.7,0.3,200.4-30.8,280.7-101.6C1942.4,2352.8,1969.4,2333.1,2005.8,2315.8z M1022.6,1294.6c4.8-2.1,9-2.6,11.3-5
			c118-119.8,319.8-47.2,339.4,113.2c2.6,21,15.3,20.4,29.6,21c83.8,3.4,167.4,9.3,251.4,1.3c75.3-7.2,149.3,0.9,220.7,27.6
			c46.9,17.6,95,18.7,144.8,14.3c68.2-6.1,133.1-32.5,202-31.9c57.1,0.5,55.4,1.3,52-53.2c-1.4-22.7-8.7-28.2-29.6-27.4
			c-45.1,1.7-90.3,1.3-135.5,2c-130.3,1.9-260.6,3.1-390.9,6.6c-31.3,0.8-35.9-14.4-30-37.4c4.9-19,23.7-11.3,36.4-11.5
			c175.5-3,351-5.3,526.4-7.9c36-0.5,70.3-39.1,64-79.5c-5-32.1-35.1-11.8-53.6-15.5c-14.9-2.9-30.9-0.4-46.3-0.3
			c-178.1,0.9-356.2,1.6-534.3,2.8c-20.9,0.1-37.5,1.3-35.7-29.1c1.7-28.6,20.4-21.4,35.3-21.5c193.6-1.1,387.2-4.3,580.7-0.5
			c47.7,0.9,65.8-20.3,80.6-55.3c11-25.9-4.4-50.8-10.8-74.1c-3.4-12.5-27.5,1.2-41.8,4c-136.1,27.3-272.9,37.4-411.7,24.6
			c-36.2-3.3-27.9-21.5-22.5-40.3c5.3-18.1,22-8.9,33.2-8.2c139.7,8.2,278.1,2.1,415-30.4c98.8-23.5,102.2-26.5,101.3-130.3
			c-0.3-30.3-11.3-38.1-36.5-23.3c-137.1,80.1-287.3,81-439.2,75.1c-170.1-6.6-340-17.5-510.4-14.3
			c-100.4,1.9-193.4,27.5-278.6,80.8c-62.9,39.4-115.1,87.8-133,163.6C993.4,1189.3,1009.6,1241.1,1022.6,1294.6z M961.6,131.1
			c-143.1-29.9-281.5,94.3-307.7,205.8c-14.5,61.5-8.1,123.2-5.6,184.9c3.9,98.6,28.4,190.9,89.3,271c11.6,15.2,22.9,24.3,44.4,23.9
			c108.4-1.9,217.6-1.4,324.1,18.1c117.6,21.5,221.9-2.2,320.3-65.2c61.6-39.4,98.7-90,93-169.2c-5.7-79.6-2.5-159.9-3.6-239.9
			c-1.4-99.5-82.9-203.4-178.5-227.5c-10.7-2.7-22.1-5.6-33.4-0.2c132.4,164.9,134,317.3,4.9,429c-109.7,95-277.4,85.7-378.5-18.9
			C842.6,452.1,805.8,270,961.6,131.1z M1869.8,156.7c-2.3-0.7-4.6-2.2-6.8-2c-5.1,0.6-10.1,1.8-15.1,3.1
			c-91.7,23.9-170.3,70.4-242.3,131.8c-31,26.4-40.5,53.3-39.9,92.8c1.7,102.9,8,206-4.3,308.9c-9.3,77.6,57.1,149.3,135.8,152.1
			c65.7,2.4,131.4,5.7,197.1,9c153.7,7.7,307.1,15.7,448.7-64.7c20.2-11.5,31.4-23,36.7-44.2c29.6-120.6,33.1-242.5,16-364.8
			c-14.8-106.1-128.6-208.3-232.2-212.5c170.1,129.9,140.5,326.1,45.8,423c-109.6,112.1-291.3,112.7-398.3-0.3
			C1691,462.1,1714,292.6,1869.8,156.7z M1132,2772.4c-37.5,1.3-67.4-4.5-96.4-15.5c-42.8-16.3-61.4-51-57.2-106.3
			c4-51.5,21.1-70.4,70.5-82c30.6-7.2,61.5-6,92.3-8c8.4-0.5,23.6,5.7,21-12.8c-1.5-10.9-1.3-24.3-18.5-24.1
			c-7.7,0.1-15.4-1-23.2-1.3c-94.6-4.1-183.2-29.5-248-100.4c-41.7-45.6-86.4-53.8-141.2-44.3c-70.8,12.3-134.9,37.1-191.2,99.5
			c86.1,0,162.8,0.1,239.5,0c15.7,0,29.9-2.5,30.4,22.3c0.4,24.8-11.3,26.5-30.6,26.4c-76.1-0.7-152.4,3.1-228.2-1.6
			c-44.1-2.7-62.3,16.2-75.9,52.7c-8.9,23.8-6.8,31.4,20.6,31c89-1.3,178-0.3,267-0.6c17.9-0.1,31.9-0.9,31.9,25.2
			c0,27.5-16.4,23.6-32.9,23.6c-92.9,0-185.8,0.7-278.6-0.5c-23-0.3-34.1,5.5-30.9,30.1c1.8,14,1.1,28.3,2.7,42.4
			c3.7,30.4,15.4,46.5,52,44.7c75.9-3.6,152.2-0.7,228.3-1.4c18.2-0.2,28.2,2.3,28.1,24.7c0,22.9-11.4,24.4-28.8,24.2
			c-46.4-0.6-92.9-1-139.3,0.1c-26.9,0.7-54.5-5.2-85.2,5.1c31.7,27.6,65.4,40.6,100.7,47.4c122.7,23.6,246.4,22.3,369.5,4.9
			C1043.4,2868.7,1095.3,2836.2,1132,2772.4z M923.5,1975.4c-21.8,41.5-49,65.7-88,73.2c-18.5,3.6-17.4,13.4-13.9,27.9
			c13.4,56.4,42.9,103,90.1,135.2c119.4,81.3,248.7,91.8,383.3,45c39-13.5,70-40.1,83.8-80.5c20.8-61,39.4-123.1,33.9-188.8
			c-5.6-66.1-32-121.6-98.8-143.7c-88.3-29.2-175.8-20.5-258.4,22.7c-39.5,20.6-65.6,54.2-75.3,98.2
			c-17.6,79.5,80.3,174.7,160.5,157.2c19.6-4.3,30.5-18,39-34.5c9.8-19.2,10.9-40.1,8-60.5c-4.3-30.2,14.6-30.5,35.2-30.5
			c5.7,0,10.6,1.8,11.4,7.7c5.4,41.5,6.2,82.6-18,119.5c-23.1,35.3-56.2,53.1-98.3,49.4C1014.8,2164.1,936.7,2087.6,923.5,1975.4z
			 M862.7,867.4c-43.8,1.6-79.4-11.5-110,28.2c-49.8,64.5-83.9,134.6-97.7,214.1c-4.2,24.3-15.3,24.1-34.4,22.3
			c-24.6-2.4-16.6-17.2-14.4-30.3c10.4-62.9,32.1-121.6,65.7-175.9c9.5-15.3,18.6-30.9,29.9-49.6c-36,7.7-60.8,23.6-83.1,43.6
			c-86.6,77.6-119.9,281.3-62.7,382.6c21,37.1,48.4,51.3,94.3,42.7c49.1-9.2,97.4-7,146.1,0.7c38.1,6,76.4,13.4,114.8,15.3
			c48,2.3,65.7-19.3,59.6-66.9c-2.1-16.5-7.5-32.6-11-48.9c-20.1-95.1,1.8-177.1,69.9-248.8c41.4-43.6,92.7-71.2,147.7-104.2
			c-17.6-2.7-29-3.6-40-6.4c-42.4-10.7-74.9,0.3-106.6,33c-72.5,74.9-125.6,159.8-152.9,260.3c-5.5,20.1-13,26.1-34.4,21.7
			c-25.7-5.3-18-19-13.9-34.2c18.2-66.5,47.3-127.8,85.4-185.2c24.8-37.3,55.8-69.7,84.7-104.2c-42.2-15.8-71.8-3.4-101.7,27
			c-67.1,68.2-112.2,147.5-131.6,240.5c-6.4,30.5-22.2,26.4-41.1,18.4c-19.4-8.2-8.6-24.3-5.9-36.6
			C741.1,1028.7,790,945.3,862.7,867.4z M2153,2803.1c-76.1,0-147.9,0.1-219.7-0.1c-15.6-0.1-33.4,5.9-34-22.4
			c-0.6-28.1,14.7-27.4,34.1-27.3c64.5,0.4,129.1,0.5,193.6-0.1c17.8-0.2,43.2,8,43.5-22.7c0.3-32-26.2-17-40.1-17.3
			c-72.2-1.6-144.5-1.2-216.8-0.5c-19.9,0.2-30.7-3.1-30.4-27.1c0.3-24.9,15.2-22,30.7-22c77.4,0.1,154.9-0.1,232.3,0.1
			c18.6,0.1,35.3,2.6,35-26.2c-0.3-31.8-20.9-23.1-37.2-22.7c-65.8,1.6-131.6,3.3-197.3,6.3c-22.1,1-37.9,0.1-38.2-28.4
			c-0.3-28.7,19.4-21.4,34.7-22c56.7-2.1,113.5-4.2,170.2-5.4c28.2-0.6,20-15.2,13.1-30c-6.7-14.2-19.9-9.5-30.7-9.6
			c-50.3-0.5-100.7-0.6-151,0c-17.2,0.2-29-0.6-29-23.9c0-22.1,9.4-25.3,27.9-24.9c45.2,0.9,90.4-0.9,135.5,0.7
			c25.2,0.9,27.4-7.4,20.3-29.1c-30.5-92.5-65.4-103.7-140.6-43.7c-5,4-10.2,7.9-15.1,12.1c-78.5,66.4-168.6,103.1-271.7,107.2
			c-13.8,0.5-31.9-6.4-31.2,20.9c0.6,21.7,10.8,28.5,29.3,31.7c63.9,10.9,91.2,36,98.5,89.5c6.6,47.9-23.4,99.5-71.1,122.3
			c-8.5,4.1-17.2,7.8-26.6,12.1c22.6,44.2,54.9,76.3,99.5,84.3c113.4,20.3,225.9,13,334.2-29.8
			C2126,2846.6,2143.3,2831.2,2153,2803.1z M1130.8,130.2C1002,130.3,903,226.9,903.1,352.6c0.1,124,103.3,226.5,227.7,226
			c124.3-0.5,227.3-104.5,225.7-228C1354.9,225.6,1257.1,130,1130.8,130.2z M1784.8,399.1c0.3,124.8,102.2,226.5,226.3,225.5
			c125.2-0.9,225-101.9,224.6-227.2c-0.4-125.2-102-226.6-226.3-225.9C1884.9,172.2,1784.6,273.8,1784.8,399.1z M1599.9,2666.7
			c-0.5,0-1,0-1.5,0c-2.4-38.6-5.8-77.2-6.7-115.8c-0.4-18.2-5.7-24.2-24.5-24.4c-25.1-0.3-41.7,3.9-43.3,33.9
			c-0.9,17.6-5.9,35.8-12.7,52.2c-21.2,51.1-68.2,75-122.3,64.2c-54-10.8-82-41.6-77.9-101.8c3-43.7-12.8-54.3-50.8-49.1
			c-6.3,0.9-13,0.7-19.3-0.2c-24.7-3.4-32.1,6-27,30.6c10.1,48.7,5.9,97.5-3,146.1c-12.7,69.6,19.5,135.8,86.1,157
			c84.2,26.8,170.4,25.6,253.4-9.2c33.9-14.2,51.7-40.2,50-78.9C1598.7,2736.4,1599.9,2701.5,1599.9,2666.7z M1249.7,1556.8
			c63.9-40.2,87.6-98,71-164.7c-18.1-73-88.8-121.1-163.3-111.1c-76.8,10.3-133.5,76.1-131.2,152.2c2.2,74.4,62.1,137.9,135.2,145.6
			c27.6,2.9,37.4-7.1,36.3-33.8c-1.6-40.7-27-66.7-74-65c-28.7,1.1-29.3-17.9-31-33.7c-2.2-20.7,17.3-13.8,28.2-15
			c27.6-2.9,53.7,2,77,18.4C1233.6,1474.8,1246.9,1511.2,1249.7,1556.8z M1116.1,2723.1c34,1,36,0.1,42.8-16.9
			c30.7-77.1,9.5-105.3-70.9-94.6c-6.3,0.8-12.6,3.6-18.9,3.6c-34.6-0.1-42,22-43.1,50.7c-1.2,30.3,16.8,44.5,42.7,50.7
			C1086.1,2720.6,1104.2,2721.5,1116.1,2723.1z M1420.4,2528.1c-63.5-1.1-63.5-1.1-61.6,49.4c1.4,36.8,16.5,51.5,52.6,51.2
			c37.6-0.3,63.6-30.7,63.6-77c0-42.2-34.2-14.8-50.8-23.4C1423.2,2527.7,1421.7,2528.1,1420.4,2528.1z M1718.7,2677.7
			c0.1-31-22.6-54.2-53.8-52.7c-37.8,1.8-13.3,30.5-17.6,46.3c-3.3,11.8-0.8,25.8,1.4,38.3c2.2,12.9-6,32.8,11.1,36.8
			c16.5,3.8,31.2-9,42.6-22C1714,2711,1716.7,2694.5,1718.7,2677.7z M1518.3,757.9c-32.2,33.3-68.8,54.4-110,83.6
			c56.9-1.4,105.3,3.6,160-3.8C1543.4,812.6,1534.3,785.4,1518.3,757.9z M936.7,1927.8c19-44,51.2-76.2,93.6-106.1
			c-49.3,0-89.7,0-135.2,0C923.5,1854,933.9,1888.5,936.7,1927.8z"/>
		<path class="st0" d="M897.1,636.6c35.1,1.4,60.6,30.2,59.2,66.7c-1.4,33.9-28.7,60.1-62.2,59.7c-35-0.5-62.8-29.4-62-64.7
			C832.9,663.3,862.5,635.2,897.1,636.6z"/>
		<path class="st0" d="M1283.8,716.7c-0.8,35.2-30.1,62.5-65.2,60.7c-33.3-1.6-60.9-30-60.9-62.6c0-33.5,31-64,64.6-63.5
			C1256.5,651.8,1284.7,681.8,1283.8,716.7z"/>
		<path class="st0" d="M2229.1,761.9c-0.3,35.3-28.9,62.8-64.1,61.7c-33.3-1.1-61.2-28.6-62.2-61.5c-1-32.7,30.3-64.3,63.7-64.5
			C2200.4,697.4,2229.4,727.1,2229.1,761.9z"/>
		<path class="st0" d="M1891.8,742.4c-0.1,34.9-29.9,63.2-65.4,62.1c-34.7-1-60.5-27.7-60.4-62.5c0.1-34.8,25.9-60.9,60.8-61.5
			C1862.9,679.8,1892,707.5,1891.8,742.4z"/>
		<path class="st0" d="M1147.9,433.4c-38.3,0.4-74.5-7.7-106.7-28.9c-56.9-37.4-57.6-105.4-2-144c58.1-40.3,162.2-40.4,220.6-0.2
			c56,38.6,55.5,106.2-1.4,143.9C1225,426.4,1187.5,434.3,1147.9,433.4z M1150.5,385.5c29.7-1.8,58.7-7.2,83.4-25.1
			c23.8-17.3,23.5-38.7,0.5-56.8c-40.8-32-124.8-32.6-167.6-1.3c-25.6,18.7-26.1,40.8-0.2,58.9
			C1091.5,378.8,1120.4,384.1,1150.5,385.5z"/>
		<path class="st0" d="M2044.6,512.4c-43.9,4.3-83.9-7-118.8-33.7c-55.4-42.2-54.5-111.5,0.3-154.6c59.4-46.7,175.5-46.8,235.3-0.8
			c56.7,43.7,56.7,114-0.6,157.1C2130.1,503.5,2099.5,511.7,2044.6,512.4z M2044.4,334.5c-30.1,7-61.8,8.6-87.3,28.5
			c-31.1,24.3-32.3,53.7-0.5,76.5c51.7,37.2,125.7,36.4,176.2-0.6c31.2-22.9,29.3-52.6-2.1-76.6
			C2105,342.8,2073.3,341.5,2044.4,334.5z"/>
	</g>
</g>
</svg>
