<?xml version="1.0" encoding="utf-8"?>
<!-- Generator: Adobe Illustrator 23.0.0, SVG Export Plug-In . SVG Version: 6.00 Build 0)  -->
<svg version="1.0" xmlns="http://www.w3.org/2000/svg" xmlns:xlink="http://www.w3.org/1999/xlink" x="0px" y="0px"
	 viewBox="0 0 3000 3000" style="enable-background:new 0 0 3000 3000;" xml:space="preserve">
<style type="text/css">
	.st0{stroke:#000000;stroke-width:10;stroke-miterlimit:10;}
</style>
<g id="Layer_1">
</g>
<g id="Layer_2">
	<g>
		<path class="st0" d="M2231.9,2060.4c38.2,22.9,71.1,47.2,98.7,78.2c50.3,56.4,68.8,124.6,70.4,197.7c1.5,67,4.2,133.9,1.5,201
			c-6.5,161.3-88.8,274.5-226.9,347.5c-116.5,61.6-238.5,59.8-360,10c-9.7-4-18.1-10.4-29.5-1.9c-65.8,49-141.6,49.2-218.1,42
			c-43.6-4.1-86.3-14.1-127.9-28.2c-10.2-3.4-19.3-5.1-30.4,0.9c-75.6,40.6-157,59-242.3,56c-94.8-3.4-189.4-1.2-284.1,0.5
			c-72.8,1.3-144.3-9-214-28c-59.1-16.1-97.8-56.9-118.3-114.6c-13-36.5-19.6-74.8-20.1-113c-1.5-106.3-7.1-212.4-3.3-318.9
			c5.5-153.2,86.2-252.1,215.8-319.7c7.9-4.1,16-7.8,23.9-11.8c0.7-0.4,1.1-1.4,2.5-3.3c-36.8-22-70.3-47.9-96.5-82.2
			c-64.3-84.3-74.7-181.2-66.1-282.5c0.4-4.4,0.9-8.9,2.1-13.2c6.6-25.2,3.8-45.4-16.2-66.6c-24.9-26.5-30.5-63.8-36.6-99.2
			c-19.7-113.7-14.6-228.2-8.4-342.3c11.4-211.3,30-421.9,66.4-630.8c23.1-132.4,95.2-230,205-300.4
			c123.4-79.2,257.5-129.3,406.7-134.2c213.4-7,426.7-19.3,640.1-23.8c110.2-2.3,218.8,18.2,322.5,57.5
			c139.2,52.8,212.2,156.7,229,302.8c18.4,160.6,33.3,321.5,36.9,483.3c3.2,142.1,0,284.1-7.2,426c-5.5,107.9-7.1,216.2-29.3,322.4
			c-19.3,92.1-52.7,179.6-92.4,264.6C2303.6,1982.6,2272.9,2023.2,2231.9,2060.4z M1559.2,1006.2c0-97.6,1.5-227.2-0.4-356.8
			c-2.4-168.1-37.1-331.3-80.7-492.8c-3.8-13.9-10.6-17.6-24.8-16.8c-61.6,3.1-123.3,7.8-184.8,6.3c-118.2-2.9-228,28.4-333.5,77
			c-156.2,72.1-262.8,182.7-285,362.8c-15.4,125.9-32.5,251.5-43.5,377.9c-12.3,140.7-21.2,281.7-17.5,423
			c1.5,59.8,5.7,119.7,27.5,176.5c11.4,29.8,31.4,45.2,65.4,44c85.7-2.9,171.7,4.4,257.2-5.9c22.1-2.6,21,11,23.8,25.3
			c3.4,17.1-5.3,19.1-18.7,20c-75.8,5.2-151.8,6.2-227.7,5c-60.4-1-62.2-1.1-66.3,60.4c-11,163.5,50.2,284.4,219.8,333.8
			c180.5,52.6,365.1,65.3,551.7,61.9c13.8-0.3,20.8-4.5,24.4-18.2c43-162.4,78.3-326.4,90.8-494.3
			C1550.7,1409.9,1553.3,1224,1559.2,1006.2z M2410.7,1117.9c2.5-234.5-10.3-463.5-41.1-691.5c-15.5-114.8-75.2-197.2-182.9-241.4
			c-110.5-45.4-226.9-62.8-345.7-60.7c-99.1,1.8-198.1,9.5-297.2,12.3c-24.2,0.7-22.9,8-17.9,26.3c30.1,109.2,52.1,220.1,67.2,332.4
			c9.2,68.4,8.9,137.2,12,205.9c0.5,9.9-3.2,22.7,15.8,19c103.6-20.3,192.2,43.1,205.6,157.4c9.1,77.6,2.9,150.9-54.5,209.7
			c-16.6,17-14.6,24.4-1.1,41.9c62.5,81,86.7,170.6,43.8,268.2c-40.2,91.4-116.6,128.4-213.3,128.1c-14.7-0.1-14.7,7.1-15.6,18
			c-3.7,48.1-6.6,96.3-12.9,144.1c-17.6,134.5-44.2,267.4-79.9,398.3c-5,18.3-0.6,21.2,16.3,20.9c171.5-3,343.1-3.2,514.5-11.7
			c103.1-5.1,185-49,237.2-137.9c65.6-111.8,108.2-233,123.8-362.1C2404.2,1435,2404.6,1273.9,2410.7,1117.9z M1023.5,2919
			c50,0,100-0.3,150,0.1c73.5,0.5,143.6-14.3,209.2-47.5c50.1-25.4,76-66.1,80.7-123.3c10.1-122.3,7.6-244.5,3.8-366.8
			c-2.5-80.1-32.8-148.7-88.5-206.7c-14-14.6-27.7-21.5-48.4-21.8c-144.9-2.4-290.1-10.1-428.9-54.2
			c-61.7-19.6-111.1-6.7-161.4,23.8c-18.3,11.1-36.5,22.7-53,36.2c-60,49.2-102.2,109.1-110.1,189c-12,122.2-4.8,244.5-0.2,366.7
			c1,26.9,5.1,53.3,12.1,79.2c14.5,53.5,47.2,88.5,102,102.3c38.2,9.6,77,14.8,115.9,19.7C879,2924.7,951.2,2914.6,1023.5,2919z
			 M1462.4,2867.2c68.3,18.9,133.5,33.5,201,24.5c100.1-13.4,139-50.5,148.2-148.1c18.3-195.3-0.8-388.5-36.8-580.6
			c-2.9-15.6-11-15-22.4-14.8c-101.8,1.7-203.6,3-305.4,4.7c-7.2,0.1-15.9-3.6-21.8,4.5c63.1,89.5,81.7,137.3,86,212.3
			c6.6,116.9,5.5,233.9-0.5,350.7C1508.1,2771.5,1502.3,2822.4,1462.4,2867.2z M1597.4,1317.9c-3.4,74.4-6,127.9-7.6,142.4
			c-0.3,2.6-1.2,10.2,3.3,15.3c2.4,2.7,6.6,4.3,13.4,4.7c69.8,4.5,135.2-33,165.6-96.6c41.4-86.5,7.7-182.4-48.7-242
			c-8.8-9.3-16.7-6.7-26.3-2.7c-24.9,10.5-51.2,16.3-78,16.9c-7.6,0.2-12.6,1.7-15.6,4.9c-4.9,5.1-4.3,13-4.2,15.6
			C1600.2,1191.6,1599.2,1244.2,1597.4,1317.9z M2101.3,2350.5c76.8,0,153.5,0.1,230.3-0.2c8.1,0,18.5,4.4,23.5-7
			c8.5-19.5-6.8-58.8-26.2-67.2c-148.8-64.5-298.8-66.2-449.6-7.6c-40.7,15.8-40,16.6-33.6,60.6c2.4,16.7,8.7,21.9,25.4,21.7
			C1947.8,2350,2024.5,2350.5,2101.3,2350.5z M2110.3,2593.9c-75.8,0-151.6,0.4-227.4-0.3c-15.7-0.1-19.5,5.4-19.4,20.1
			c0.3,27.6-0.6,55.3-2.7,82.9c-1.2,15.6,3.7,19.7,19.1,19.5c80.9-0.9,161.7-0.8,242.6-1c81.5-0.2,150.4-32.1,211.2-84.2
			c6-5.1,11.9-10.1,15-18.3c4.4-11.6,5.9-18.5,3.1-22.5c-4.7-6.9-18-5.5-22.2-5.1C2304.7,2587.5,2223.9,2590.4,2110.3,2593.9z
			 M1606.1,939.9c-1.2,0-2.5,0-3.7,0c0,50.9,0.6,101.8-0.3,152.7c-0.3,17.2,4.7,21.2,21.6,18.6c39.6-6,76.5-16.6,106.8-44.7
			c58.9-54.6,62.5-123.5,49.2-195.5c-15.3-82.8-70.2-119.3-152.8-107.3c-18.3,2.7-21.1,10.5-20.9,26.1
			C1606.4,839.8,1606.1,889.9,1606.1,939.9z M2298.1,2714.7c-74.9,43.4-156.1,47.7-239,45.8c-58-1.4-116.1,0.6-174.1-0.7
			c-20.9-0.5-33.5,3.2-35,27c-1.1,16.9-6.9,33.5-15.7,48c-8.8,14.5-3.4,19.1,10.4,23.9c44.9,15.9,90.6,26.7,138.4,26.5
			C2118.3,2884.8,2222.9,2827.2,2298.1,2714.7z M2332.4,2228c-3.8-17-11.3-27.8-18.8-38.3c-26.4-37-60.2-65.4-100-87.4
			c-15-8.3-27-8.9-41.9,0.1c-21.5,13-45.6,20.2-70.1,25.5c-73.9,16.2-149.1,15.2-224,17.2c-58.6,1.6-58.7,1.5-49.9,57.9
			c1.8,11.4,4.1,22.7,6.6,35.8C1998.4,2165.9,2163.3,2162.3,2332.4,2228z M2109.9,2481.5c-70.6,0-141.2,0-211.8,0
			c-39,0-39,0-37.1,37.9c0.1,2.7,0.6,5.4,0.4,8c-1.2,16.1,5.4,21.4,22,21.1c151.9-3.2,303.8-6.1,455.7-7.8
			c29.4-0.3,17.5-20.1,19.4-33.3c2-14.8,2.3-26.9-20.5-26.5C2261.9,2482.5,2185.9,2481.5,2109.9,2481.5z M2109.2,2395.5
			c-76.8,0-153.7-0.1-230.5,0.1c-11.3,0-25.4-5.3-24.7,16.6c0.5,19.5,6.3,25.8,26.5,25.7c151-0.8,302-0.5,453-0.4
			c13.3,0,26.4,3.2,25.8-19.1c-0.5-19.2-6.7-23.6-24.9-23.3C2259.3,2396,2184.3,2395.5,2109.2,2395.5z"/>
		<path class="st0" d="M901.7,834.5c119.5,0.7,216.2,97.5,216.4,216.7c0.2,121.1-98.9,218.8-221,217.8
			c-119-1-214.9-98.7-214.2-218.4C683.6,929.5,780.4,833.9,901.7,834.5z M1072.6,1051.6c0-96-78.2-173.9-173.8-173.2
			c-94.7,0.7-170.8,77.9-170.8,173.2c0,95.3,75.8,172.2,170.8,173.3C993.9,1226.1,1072.6,1147.6,1072.6,1051.6z"/>
		<path class="st0" d="M1058.2,2626.7c-80.2-0.3-139.5-59-139-137.7c0.4-79.5,61.1-137.9,143.1-137.6
			c74.4,0.2,135.1,61.9,135.5,137.7C1198.2,2567.1,1137.4,2627,1058.2,2626.7z M1151.8,2491.1c0.3-54.8-39.5-95.6-93.5-95.6
			c-52.8,0-93.7,40.3-94.3,92.7c-0.6,54.7,39.3,95,94,95C1112,2583.3,1151.5,2544.5,1151.8,2491.1z"/>
		<path class="st0" d="M1672.5,2497.3c-2,89.9-20.4,182.7-59.4,271.2c-6.1,13.8-11.1,23.1-28.9,13.7c-14.6-7.7-21.5-12.9-13.3-31.6
			c69.1-157.4,75.1-317.8,17-479.7c-8.1-22.4,4-24.7,18.2-31.4c18-8.5,20.4,2.7,24.7,15.3
			C1657.3,2331.2,1671.9,2409.7,1672.5,2497.3z"/>
	</g>
</g>
</svg>
