<?xml version="1.0" encoding="utf-8"?>
<!-- Generator: Adobe Illustrator 23.0.0, SVG Export Plug-In . SVG Version: 6.00 Build 0)  -->
<svg version="1.0" xmlns="http://www.w3.org/2000/svg" xmlns:xlink="http://www.w3.org/1999/xlink" x="0px" y="0px"
	 viewBox="0 0 3000 3000" style="enable-background:new 0 0 3000 3000;" xml:space="preserve">
<style type="text/css">
	.st0{stroke:#000000;stroke-width:10;stroke-miterlimit:10;}
</style>
<g id="Layer_1">
</g>
<g id="Layer_2">
	<g>
		<path class="st0" d="M1225.3,2896.9c-223.3-8.9-420.8-8.4-616.4-40.6c-186.8-30.7-326.4-118.1-383.3-308.7
			c-24.5-81.9-27.5-166.1-21.8-250.7c1.6-22.9-3.8-37.8-25-52.7c-73.8-51.9-96.6-125.5-68.3-211c5-15.1,4.6-26.4-1.8-40.3
			c-72.8-157.1-31.8-337.4,106-421.7c13.7-8.4,14.4-19.4,15-32.5c2.4-54.3,6.3-108.5,7.3-162.9c0.5-27,5.8-52.6,23.8-71.1
			c19.9-20.4,15.5-38,7.1-61c-58-158.4-84.4-321.3-52.5-488.7C254.5,551.2,376.2,404.7,550,298.8
			c163.9-99.9,345.4-149.9,533.3-177.7c252-37.4,503.8-44,754.7,11.9c106.3,23.7,210.3,54.5,310.1,97.6
			c35.3,15.3,65.2,15.4,101.8,4.4c135-40.7,271.7-50.3,396.3,28.6c142.3,90.2,218.8,227.9,244.4,391.6
			c15.9,101.5,16.6,205,20.6,307.9c4.1,108.1-20.7,207-78,297.8c-12.3,19.5-13.4,34-0.9,53.9c44.4,70.5,64.6,148.9,69.8,231.5
			c9.7,154.5,11.7,309-12.8,462.3C2850,2254,2716.6,2438.1,2510,2570c-229.5,146.5-473.7,258.7-745.9,299.5
			C1576.7,2897.6,1388.1,2902.1,1225.3,2896.9z M914.9,1622.1c47.7,94.3,77.3,181.2,61.4,277.9c-3.7,22.2-23.8,47.7-11.6,64.4
			c12.6,17.3,42.5,21,62.7,33.9c80.8,51.6,163.9,51.1,250.1,15.9c75.3-30.7,150.5-61.9,227.1-89.1c97.3-34.5,186.3-89.4,295.9-92.9
			c303-9.6,518.8,248,446.1,541.4c-19.3,77.8-57.6,146.4-119.4,199.4c-21,18-45.7,31.7-74.7,21.9c-31.1-10.6-41-37.4-45.4-67.1
			c-3.1-21.2-6.9-42.3-9.7-63.5c-24.8-189.3-228.7-283.3-360.1-241.3c-81.6,26-164.5,48.7-241.6,86.6
			c-111.5,54.8-229.5,69.7-350.8,54.5c-32.3-4-40,6.1-50.6,31.6c-31.9,77-94.6,120.2-168,116.8c-69.1-3.2-109.6-49.1-143.3-102.8
			c-9.2-14.6-12.5-26.4-37.6-20.1c-99,25.1-153.2-1.7-199.4-92.9c-14.3-28.2-24.9-57.8-27.5-89.6c-0.8-10,0.7-19.5-14.3-20.8
			c-58.5-5.2-144.6,45.1-146.5,99.9c-2.3,64.6-4.2,128.8,7.9,192.4c29.9,157.1,115.6,264.7,274.9,305.9
			c49.9,12.9,100.4,22.5,151.6,28.4c217.9,25,436.9,27,655.7,29.1c133.1,1.3,265.9-6,397.9-25.2c270.1-39.4,511.7-150.4,738.8-295.7
			c194.2-124.3,317-299.2,352.3-529.6c20.9-136.3,14.8-274,12.4-411.4c-2.9-161.7-70.9-289.8-196.2-387.7
			c-150.3-117.3-365-87-471.8,63.7c-48,67.6-61.1,144-53.2,224.6c2.6,26-10,32.4-30.8,35.4c-26.1,3.7-22-15.9-23.7-30.4
			c-8.9-74.2-1.5-147.7,36-212.1c22.7-39.1,11.6-54.5-19.4-77.1c-81.5-59.6-135.6-138.6-151.4-240.1
			c-15.4-98.5-13.4-197.3,9.9-294.1c8-33.4-3.6-44.7-28.8-59c-187.3-106.5-389.6-163.2-603.3-175.6
			c-177.3-10.3-348.3,15.9-499.7,119.2c-223.1,152.3-307.2,399.2-216,636.9c5.7,15,6.8,34.5,27.1,40.8c37.9,11.9,75.6,24.2,117,37.5
			c-0.3-135.8,35.4-258.1,124.1-361.6c88.7-103.4,201-162.3,335.9-180.4c217.2-29.2,440.8,98.3,532.7,304.9
			c92.1,207,35.2,454.6-135.4,602.3C1439.5,1768.6,1155.4,1815.7,914.9,1622.1z M2854.9,899.7c-5.2-72.7-9.8-145.4-15.6-218.1
			c-20.3-256.6-214-431.5-468.3-418c-103.1,5.5-200,41.6-256,132.4c-82.5,133.8-131.3,280.7-131,441.3
			c0.2,135.1,38,250.4,155.3,329.7c16.7,11.3,27.6,19,47.1,1.2c103.2-94,225.5-118.5,358.9-88.1c29,6.6,37-2.9,46.3-25.5
			c83.7-203.2,24.2-405.8-157.4-526.9c-22.6-15.1-28.6-26.1-13.2-49.5c18.7-28.4,32.5-3.5,44.2,4.1
			c201,129.2,270.9,365.8,175.3,595.3c-10,24.1-11.6,36.4,13.6,49.9c39.4,20.9,73.3,50.4,101.7,84.6c20.2,24.4,29.8,25.2,46.2-4.6
			C2855.5,1110.5,2864.7,1007,2854.9,899.7z M548.9,1215.4c-2.8-12.6-4.2-22.2-7-31.4c-81.2-275.6,5.8-520.2,243.9-681.4
			c205.2-138.9,433.7-148.5,668.3-115c182.8,26.1,354.8,85.6,515.7,181.9c7.1-16.4,13.4-30.5,19.4-44.9
			c31.5-75.5,67.8-148.8,124.5-208.4c25.6-26.9,21.8-33.6-10.5-45.9c-229.6-87.4-465.7-131.8-712.3-122.1
			c-203.9,8-404.5,33.1-598.2,99.2C629.3,303.1,478.5,382.6,374.8,526c-160.6,222.2-138,461.4-53.7,704c5.5,15.7,11.7,18.8,28,13.3
			C412.9,1221.7,478.8,1212,548.9,1215.4z M552.1,1989c-92.9-9.7-185.4-22.6-278.5-17.3c-58.7,3.4-98.5,36.4-116,92.1
			c-14.4,45.9,2.6,94.4,43.9,130.1c16.7,14.4,29,17.6,46.4-0.6c39.5-41.2,89.7-59.1,146.6-60.5c68.6-1.7,137.2-4.8,205.8-6.4
			c53.5-1.2,106,6.9,153.9,31.1c72.5,36.7,146.7,71.3,214.7,115.3c70.7,45.7,145.4,46.8,222.7,39.4c57-5.5,112.2-20.4,164.4-45.1
			c78.9-37.4,161.4-64.7,244.8-89.9c138-41.7,256.1-5.2,358.6,90.5c66.6,62.2,86.9,145.6,99.3,231.6c2,13.8-1,33.2,13.3,38.2
			c16.6,5.7,28.2-11.6,38.1-22.9c64.4-74,97.5-159.2,95.1-258.6c-7.9-317.8-326.9-422.6-511.5-348.6
			c-127.1,50.9-254.5,101-381.3,152.6c-108,44-211.9,47.2-315.8-15.1c-55.1-33-117.1-54.3-182.8-55.5
			C726.5,1987.8,639.3,1989,552.1,1989z M1199.8,1597.4c0,21.4,3.2,43.5-0.8,64.2c-5.4,28.2,5.5,35.5,30.8,35.2
			c40-0.5,79.7,0.1,119.6-7.1c200.4-36.4,360.7-210.9,374.7-409.6c15.7-222.2-109.7-416.4-312.4-483.9
			c-199.7-66.4-422.4,11.1-535,185.1c-16.8,26-19,37.3,12.7,56.7C1097.2,1165.5,1201.4,1353,1199.8,1597.4z M157.6,1960.4
			c55.5-42.5,119.8-48.3,186.6-45.1c104.2,5,208.4,8.5,312.6,13.7c72.7,3.7,146.3-2.1,217.8,13.5c27.2,5.9,35.4-3.4,41.5-26.3
			c25-93.6-2.4-177.6-46.4-258.5c-29.1-53.4-72.6-79.7-135.5-80.2c-123-1-245.8,4.7-368.6,9.6c-51.3,2-101.4,11.6-144.1,46.3
			C128,1709.4,100.1,1845.1,157.6,1960.4z M1148.4,1584.7c2.5-198.1-101-384-275.5-494.5c-41.9-26.5-41.9-26.5-55.4,23.2
			c-56.5,207.8,34.5,425.5,228.1,528.4C1159.4,1702.2,1140.6,1692.8,1148.4,1584.7z M841.5,1541.2c-36.7-59.3-66.7-120.3-81-188.2
			c-2.9-13.6-11.2-22.2-23.3-28.6c-124.6-66.1-253-73.1-384-22.9c-41.6,16-66.6,45.3-63.1,95.3c2.8,39.6-0.6,79.8-2.7,119.7
			c-1,19,3.8,24.2,24,21.8c134.9-16.1,270.6-13.5,406.1-14.1C758.9,1524,799.7,1526.6,841.5,1541.2z M746.9,2213.9
			c-2.5,43.7-6.3,80.5-25.1,113.5c-6.2,10.9-3.6,22.4-0.8,33.2c12.2,48.4,74.7,100.1,117.1,97.4c54.1-3.5,111.2-58.9,117.8-113.4
			c1.2-9.5,0.6-16.7-8.3-21.6C881.8,2287.3,816.1,2251.5,746.9,2213.9z M591.1,2343.2c69.2-0.7,119.6-72.2,98.2-138.1
			c-5.1-15.8-16.2-17.6-29.4-19.2c-54.1-6.3-108.2-1.6-162.4-1c-9.8,0.1-19.3,0.6-22.8,13.9C460.9,2251.6,534.8,2343.8,591.1,2343.2
			z"/>
		<path class="st0" d="M2653.1,1489c-3.5,61.3-7.6,122.6-10,184c-0.8,22.2-5.5,35-31.6,32.8c-24.4-2.1-26.4-15.6-24.8-35.2
			c3.9-47,7.1-94,9.5-141.1c1.6-32.8,4.8-66.1,1.3-98.5c-16.4-151.8-107.5-163.8-231.5-136.4c-26,5.7-37.4,29-41.3,54.9
			c-6.9,45.9-2,90.8,8.4,135.9c8.7,37.5,33.4,45.8,66.6,45c34.6-0.8,57-15.7,62.8-51.4c2.1-12.7,5.7-25.4,5.9-38.1
			c0.3-24.5,16.8-21.4,32.7-21.9c16.9-0.5,22.1,7.3,21.7,23.4c-1.1,45.8-8.7,90.6-48,118.6c-43.5,31-93.2,32.1-142.6,12.7
			c-26.2-10.3-39.9-33.8-47.1-58.1c-17.4-59.2-27.1-119.4-13.3-181.7c11.4-51.6,42.2-82.7,91.8-96.9c8.2-2.3,16.8-3.4,25.3-4.2
			C2578.7,1213.5,2657.3,1289.9,2653.1,1489z"/>
		<path class="st0" d="M2654.8,1920.9c0-40,0.8-80-0.3-119.9c-0.6-23.6,10.5-28,31.5-27.8c21.4,0.1,26,8.6,25.7,28.2
			c-1.2,71.4,1,142.5,7.3,213.8c9.1,103.1-58.1,174.5-161.9,180.3c-132.4,7.5-194.4-42.7-213.9-175.5c-4.7-32.3-4.1-65.5-4.8-98.2
			c-0.3-14.1-0.6-30.2,22.7-25c16.3,3.6,34.6,1.2,33.1,27.9c-3,53.1,0.8,105.1,24.8,154.6c31.9,65.7,71.7,80,166.8,56.3
			c53.4-13.3,81.4-55.1,77.6-116.2c-2-32.8-4.4-65.5-6.7-98.3C2656,1920.9,2655.4,1920.9,2654.8,1920.9z"/>
		<path class="st0" d="M1155.4,1007c-37.8,1.2-72.2-31.9-72.6-69.8c-0.4-36.3,30.2-68.9,66.8-71.2c37.1-2.3,73.2,30.1,75.3,67.7
			C1226.8,970,1193,1005.8,1155.4,1007z"/>
		<path class="st0" d="M1415.4,1540.5c-38.4,0.1-70.3-32.7-69.8-71.7c0.5-39.2,33-70.6,71.8-69.5c37.3,1.1,66.8,31.4,67.3,69.3
			C1485.3,1507.9,1453.8,1540.5,1415.4,1540.5z"/>
		<path class="st0" d="M1333.4,992.3c41,0.5,70.7,30.6,69.2,70.1c-1.4,37.5-31.7,67.1-69.3,67.6c-39,0.5-71.7-31.3-71.7-69.7
			C1261.5,1021.7,1293,991.8,1333.4,992.3z"/>
		<path class="st0" d="M1391.2,1152.7c40.1,0.8,69.2,31.7,67.9,72.1c-1.2,37.1-32,67.6-68.8,68.2c-37.7,0.6-70.5-32.7-70.4-71.2
			C1320.2,1182,1351.2,1151.9,1391.2,1152.7z"/>
	</g>
</g>
</svg>
