<?xml version="1.0" encoding="utf-8"?>
<!-- Generator: Adobe Illustrator 23.0.0, SVG Export Plug-In . SVG Version: 6.00 Build 0)  -->
<svg version="1.0" xmlns="http://www.w3.org/2000/svg" xmlns:xlink="http://www.w3.org/1999/xlink" x="0px" y="0px"
	 viewBox="0 0 3000 3000" style="enable-background:new 0 0 3000 3000;" xml:space="preserve">
<style type="text/css">
	.st0{stroke:#000000;stroke-width:10;stroke-miterlimit:10;}
</style>
<g id="Layer_1">
</g>
<g id="Layer_2">
	<g>
		<path class="st0" d="M2745.6,1972.7c56.4,35.3,99.4,81.8,114.9,148c20.9,89.5,8.3,170.9-65.2,234.1c-11.4,9.8-9,17.2-4.9,27.6
			c20.6,52.5,27.3,107,17.3,162.3c-19.3,106.8-98.3,176.3-212.2,194c-137.4,21.3-249.6-28.7-347.8-119.2
			c-14.6-13.4-20.8-15.3-35,0.4c-86.1,95.5-199.6,133.9-323,145.1c-207.4,18.7-415.3,16.5-622.5-0.6
			c-202.6-16.7-358.7-108.8-447-298.6c-9.1-19.5-17.5-11-28.4-5.2c-128.2,69.2-266,96.4-410.3,87.7c-108.1-6.5-184-61.6-222.7-164.6
			c-24.4-64.9-30.1-133.6-40.8-201.1c-15.2-95.7-21.8-191.8-9-288.6c17-127.8,68.7-233.1,190.7-295.8
			c-73.8-44.4-104.7-106.6-81-189.5c18.8-65.7,72.4-101.4,155.3-108.1c0.5-6.2-5.1-6.5-8.5-8c-95.7-42.1-149.2-113.4-169.8-217.7
			c-39.3-200-33-395.7,27.9-590.7C258.2,373.5,325.9,299.7,437.9,268c73-20.6,147-36.9,222.6-43c129.3-10.5,241.8,28.1,333.8,121.5
			c9.3,9.5,14.7,17.9,29,2.7c95.3-101.5,215.1-152.3,352.4-163.5c84.8-6.9,170-9,253.9,7.4c123.5,24.1,224.1,87.4,303.7,184.6
			c5.1,6.2,10.3,12.4,16.7,20.1c10.6-13.6,20-26.4,30.1-38.6c68-82,156.4-127.8,261.1-138.8c121-12.8,242-9.3,360.1,23.2
			c178.5,49.1,279.6,173.7,296.1,357.8c15.5,172.9-31.3,330.6-113.9,479.8c-10.9,19.7-8.8,28.3,7.9,43.5
			c74.5,68.2,112.2,157.1,124.8,254.8c14.1,108.9,5.7,218.7-11.7,326.5C2887,1813.4,2839.4,1885.8,2745.6,1972.7z M1399.6,2726.5
			c9.1,0.7,14.2,1.3,19.3,1.4c130,3,260.1,4.8,390.1-1.3c38.7-1.8,77.2-7.3,115.8-11.1c15.1-1.5,23.8-6.9,23.6-25.2
			c-0.3-27,3.1-54,4.8-81c11.8-187.6,12.7-375.2,6.2-563.1c-5.7-163.2,0.6-326.7-32.9-488c-18.5-89.2-55.4-129.1-144.7-143.1
			c-90.9-14.3-181.9-5.6-272.8,0.5c-165.7,11.1-274.5,100.7-335.1,250.3c-35.4,87.5-35.1,181.6-34.8,274.8
			c0.1,18.7,3.5,23.8,24.4,19.8c101.4-19,198.2-10.9,281,59.1c11.4,9.7,14.3,5.4,21.3-4.6c49.1-69.8,96.5-87.5,179.4-69.5
			c33.3,7.3,54.5,27.3,63.9,59.3c12.3,41.7,7.9,82.4-13.1,120.5c-6.1,11.1-6,16.8,5.8,22.8c55.9,28.5,63.1,78.6,59,133.9
			c-2.4,31.4-13.1,59.1-40,76.2c-15.5,9.9-14.2,19.9-9.5,33.5c16.5,48,8.4,94.5-9.5,140.1c-8.9,22.8-25.4,39-48.6,48
			c-41.2,16-83.4,22.6-127.3,14.9c-7.9-1.4-16.2-5.7-21.8,3.8C1476.4,2645.1,1439.8,2684.6,1399.6,2726.5z M1920.8,737.6
			c-1.1,30.5,0.5,68.5,5.4,106.1c15.4,119.2,75.1,207,185.9,257.1c78.6,35.5,161.5,42.3,246.4,33c9.8-1.1,16.5-6.1,23.7-11.6
			c101-77.1,211.6-90.3,329.7-47.4c14.9,5.4,21.9,4.5,29.7-9.7c77.6-140.3,122.7-288.2,111.8-450.6
			c-10.9-163.9-97.9-279-253.2-324.3c-122.2-35.6-247.7-39.8-373-21.3c-119,17.6-205.5,83.2-258.1,192
			C1928,546,1920.1,637.3,1920.8,737.6z M2175.6,2591.9c13.6-9.8,22.4-22.3,31.4-34.6c62.6-85.1,81.8-184.6,86.7-286.1
			c9.5-194.9,12.2-390,5.9-585.1c-2.5-79.4-9.7-158.3-29.3-235.8c-41.5-164.1-149.6-268.2-300.3-332.4
			c-156.2-66.5-320-81.7-486-53.9c-241.7,40.6-450.3,136-581.4,360.1c-35.2,60.1-63.4,121-82.5,186.7
			c-46.8,161.7-39.3,326.9-29.4,492.1c2.1,34.7,5.9,69.4,8.9,103.2c7.2,1.6,8.7-2.1,10.6-5c40.9-65.1,91.8-120.6,156.6-162.6
			c9.1-5.9,10.9-12.2,8.9-22.5c-13.2-67.8-14.5-136.3-8.6-205c16.3-189.8,93.1-349.3,242.1-470.2
			c135.3-109.9,288.7-167.2,466.1-153.6c110.2,8.5,213.2,36.8,305.2,98.3c81.6,54.6,144.5,125.1,170.8,222.8
			c18.4,68.5,22.9,138.7,24.8,209.2c6.5,244.7-0.8,489.5-0.2,734.2C2175.7,2497.7,2175.6,2543.6,2175.6,2591.9z M938.2,901
			c-53.3,39.3-111.4,58.7-177.5,54.1c-91.8-6.3-158.1-58.9-174.8-142c-12.9-64.4,2.2-124,35.1-179.1
			c58.8-98.3,168.8-140.7,288.9-111.5c17,4.1,23.9,2.8,27.6-15.3c6.7-32.9,19.9-63.8,37.8-92.2c7.4-11.8,4.5-19-3.9-28
			C909.1,321,834.1,280,742.6,271.2c-101.9-9.8-199,15.5-295.6,41.7c-88.6,24-145.2,81.6-174.8,169
			c-68.8,203.3-73.4,408.3-24.3,616.2c13.6,57.6,44.8,100.3,93.6,130c97.9,59.6,204.1,69.2,313.4,42.9
			c162.5-39.2,252.2-154.3,308-303.1c2.6-7,1.8-11.4-1.1-17.2C954,934.7,946.4,918.4,938.2,901z M700.2,1572.6
			c-106.9,1.3-212,16.9-315.5,43.4c-95.1,24.4-164.7,79.2-202.4,171.5c-22.5,55-31.6,112.8-34.1,171.7
			c-5.1,123.7,15.4,244.9,40,365.1c22,107.5,78.8,165.9,181.3,176.8c146.2,15.5,285.2-15.6,414.3-87.5c10.3-5.7,11.1-12.5,7.9-22.3
			c-16.2-49-27.4-99.1-32.5-150.5c-1.6-15.8-7.1-19-22.4-13c-47.1,18.6-96.3,22.2-146.5,17.3c-101.6-9.9-155.4-66.2-162.5-156.3
			c-3.7-47.3-3.1-94.1,3.8-140.4c12.6-84.6,67-136.9,151.2-150.2c46.5-7.4,91.8,0.2,136.7,11c15.6,3.8,23.2,2.5,24.3-15.9
			c4-69.6,15.3-138.1,35.5-204.9c3.6-12.1,1.7-16.4-11.1-16.1C745.3,1572.9,722.8,1572.6,700.2,1572.6z M1531.6,2350.8
			c2.8-95.8-21-172.8-68.4-242.9c-55.9-82.6-135.9-118.2-232.7-110.3c-169.3,13.7-300.8,91.6-389.3,239.4
			c-22.4,37.4-28.3,71.8-15.6,114.7c50.9,172,150.3,296.2,328.4,346.3c49.6,14,100.5,21.1,152,25c20.2,1.5,34.6-4.4,48.5-17.2
			C1461.4,2607,1533.4,2491.5,1531.6,2350.8z M2132.1,1787.6c0.8-38.6-2.4-93.6-5.4-148.6c-6.3-114.7-41.1-215.8-135.2-289.4
			c-103.5-81-222.4-116.5-352.1-119c-189.1-3.6-344.7,74.2-469.9,209.3c-133.2,143.8-172,321.3-157.6,512.6
			c4.1,55,5.5,54.9,57.8,33.7c3.3-1.4,6.8-2.4,10.3-3.3c10.1-2.8,14.2-8.7,13.6-19.7c-3.7-74.2,5.3-147.6,13.3-221.2
			c17.7-162.3,153.5-322.1,312.6-357.9c118.8-26.7,240.4-29.5,361-15.7c88.2,10.1,158.4,51.3,181.8,145.3
			c17.9,71.9,28.3,145.2,34.6,219c10.9,128.8,3.6,258.1,9.9,387.2c9.1,186.9,0.8,373.8-13.2,560.4c-1.4,19.2,5.2,18.9,19.1,14.2
			c34.3-11.6,67.1-26.1,97.9-45.5c12.2-7.7,16.3-16.6,16.6-30.8C2131.3,2346.9,2134.1,2075.5,2132.1,1787.6z M2678.4,2392.7
			c-31.1,0.4-60.2-7.5-89.4-17.5c-23-7.8-24.6-17.8-12.2-36.1c5.1-7.6,8.4-11,18.3-7.8c18.7,6,37.9,11.1,57.3,14.5
			c69.3,12.2,128.8-19.4,156.8-82.1c37.6-84.3,7.1-186.5-71.6-241.9c-23.1-16.3-45.3-27.6-74-12.2c-10.6,5.7-24.3,6.3-36.8,7.8
			c-80.5,10-161.1,15.1-242.2,6.2c-38-4.2-38.2-3.2-39.4,34c-2.3,76.7-2.5,153.5-7.4,230.1c-5.4,84.2-22.1,166.3-60.9,242.4
			c-19.7,38.7-20.3,38.9,13.3,67.6c83.7,71.2,177,114.1,290.4,97.3c84.6-12.6,150.8-49.2,177.5-136.4c13.8-45.3,10.3-90.7-1.7-136.2
			c-6.6-24.8-12.7-45.3-45.8-31.6C2701.1,2394.6,2689.2,2392.2,2678.4,2392.7z M2318.5,1392.4c18.7-44.5,47.9-78.4,92.8-97
			c68.4-28.3,137.3-28.9,205.3,0.5c52.1,22.5,85.4,62.7,89.4,119.6c5.7,80.1,9.3,160.4,1.2,240.8c-13.5,134.1-155.6,269.2-289.4,273
			c-5.7,0.2-11.8,2.9-14.7-6.7c-7.2-23.6,0.7-37.3,25-40.4c112.3-14.6,213.1-110,231.4-220.9c13.1-79,5.2-158.7,1.9-237.9
			c-1.9-44.8-29.2-73.8-71.5-89.6c-50.5-18.8-100.8-18.3-151-0.8c-34.6,12.1-60.5,34.1-73.1,69.6c23,0,44.3,0.6,65.6-0.1
			c124.7-3.9,200.1,108.4,148.6,221.5c-42.8,93.8-113.6,157.2-210.1,191.4c-18.3,6.5-22.5,15.3-21.8,33.1
			c1.4,32.4,2.1,65.2-0.9,97.4c-2.3,25.1,9,30.5,30,32.4c68.6,6.3,137.1,4.2,205.7-0.4c67.4-4.5,127.3-26.6,174.1-76.5
			c58.5-62.3,93.1-137.1,106-221.1c11.8-76.9,12.1-154.8,13-232.4c1-86.5-24.4-165.2-70-238.1c-26.8-42.8-63.3-74.4-109.9-92.8
			C2530.9,1051.9,2317.4,1132.4,2318.5,1392.4z M1410.8,642.5c160.8,0.7,307.9-18.1,452.9-54.8c15.1-3.8,22.8-9.3,25.5-25.8
			c5.9-35.6,16.1-70.3,31.1-103.3c3.9-8.5,6.1-15.8-0.5-24.9c-69.5-95.1-159.2-160.9-274-191.3c-14.4-3.8-17.7-0.5-15.4,13.6
			c5.6,35,4,70.3,2.6,105.4c-1.5,38.5-22,64.8-54.5,71.7c-11.3,2.4-23.3,2.1-35,2.2c-49.2,0.2-74.5-19.5-82.6-67
			c-4.2-24.8-5.9-50.2-6.9-75.4c-2.9-71.8-6.6-74.7-79.5-62.2c-13.5,2.3-18.4,7-17.1,20.7c3.3,34.2,1.8,68.6-0.6,102.8
			c-2.5,36.2-13.9,68.8-40.6,94.7c-24.2,23.5-55.8,26.8-84.2,8.7c-23.1-14.7-38.1-35.4-43.6-62.5c-5.8-28.3-9.8-56.9-10.7-85.8
			c-0.5-15-4.2-19.7-19.1-11.2C1057.1,355.9,993.1,440.4,972,556.5c-4,22.2,4,29.3,24,34.1C1136.1,624,1277.8,643.2,1410.8,642.5z
			 M967,629.7c-3.6,78.3-9.9,155.3,8.6,230.3c30,122.1,116.8,190.1,230.9,228.8c7.9,2.7,15.7,1.8,23.7-1.4
			c21.7-8.8,43.6-17.2,65.7-24.9c10.5-3.7,16.2-8.6,16.1-21.1c-1.6-113.7-2.8-227.3-3.5-341c-0.1-13-4.7-16.6-17.1-17.3
			c-26.1-1.5-52.1-4.6-78.1-7.5C1130.8,666.4,1049.6,650.1,967,629.7z M739.6,1996.3c-0.4,0-0.9,0-1.3,0c0-37-1.1-74,0.5-110.9
			c0.7-17.5-4.3-26-21.5-30.4c-41.4-10.6-83.1-16.3-125.7-11.9c-58.1,6-96.9,38.6-111.1,94.8c-14.1,55.9-12.4,112.9-4,169.3
			c6.7,45.7,34.8,73.5,79.5,85.2c59.5,15.5,117.4,11.9,174.9-9.9c15.4-5.9,20.1-13.5,18.8-29.7
			C745.5,2100.7,742.8,2048.5,739.6,1996.3z M918.5,687.5c1.4-31.5,1.8-63.2,4.6-94.6c1.5-16.3-5.1-21.6-19.4-25.9
			c-122.4-36.1-244,34.6-271.9,158.7c-17.7,78.7,7.9,141.7,70.6,168.7c77.4,33.3,147.7,15.6,213.2-32.4c10.4-7.6,10-17.3,8.9-28.8
			C919.7,784.8,916.1,736.3,918.5,687.5z M1874.9,633.3c-52.6,10.3-105.5,20.9-158.6,30.9c-12.4,2.3-12.5,10.2-12.5,19.8
			c0.1,103,0.3,206-0.2,309c-0.1,12.9,4.1,16.8,16.6,18.1c29.6,3.1,59.1,7.5,88.5,12.1c60.5,9.5,118.3,28.9,176.9,48.8
			c-84.3-85.4-109.8-191.2-110.6-305.7C1874.6,722.2,1874.9,678.1,1874.9,633.3z M2423.3,1447.1c-29.3-0.9-57.2,6.4-85.1,14
			c-12.2,3.3-18.2,8.6-14.2,23c4.5,16.4,6.4,33.6,8.9,50.6c10.7,72.5,10.6,145.7,14.5,218.7c0.5,8.7-5.3,25,15.7,16.7
			c86-33.7,148.4-91.8,180.9-178.8c23.5-63-5.6-117.9-69.9-138.1C2457.4,1447.9,2440.4,1446.9,2423.3,1447.1z M1657.7,840.8
			c0-49.6-0.2-99.2,0.1-148.7c0.1-13.3-2.7-19.5-18.4-17.3c-32.1,4.3-64.5,6.9-96.8,9c-12.5,0.8-17.3,5-17.2,17.8
			c0.3,98.3,0.4,196.5,0,294.8c-0.1,14.9,7,15,18.6,14.4c28.8-1.5,57.6-2.4,86.4-1.9c20,0.4,28.7-5.1,27.9-27.4
			C1656.5,934.6,1657.7,887.7,1657.7,840.8z M1355.1,866c0.6,0,1.3,0,1.9,0c0,52.2,0.4,104.5-0.2,156.7
			c-0.2,14.8,1.7,21.2,19.3,16.3c27.7-7.6,56.1-13.6,84.5-17.6c15.8-2.3,20.9-7.6,20.8-23.6c-0.7-96.4-0.7-192.8,0-289.2
			c0.1-17.3-6.1-21.3-22-20.7c-27,1.1-54.1,1.5-81-0.4c-20-1.4-24,6.3-23.7,24.5C1355.8,763.2,1355.1,814.6,1355.1,866z
			 M997.1,1004.4c-37.5,96.8-93.4,175.7-175,240c46.9,10.2,74.9,35,94,74.3c34.1-41.2,70.3-77.4,110.1-110
			c40.5-33.2,84.8-60.8,132.3-88.3C1096.2,1092.9,1042.3,1057.9,997.1,1004.4z M256.5,1455.1c-0.4,62.3,46.2,109.4,108.9,110.1
			c58.7,0.7,108-49.1,107.9-109.1c-0.1-61-48.7-108.7-110.9-108.9C304.8,1347.1,256.9,1395.9,256.5,1455.1z M1593,1985.6
			c-2.8,0.3-12.7,0.9-22.5,2.1c-38.2,4.5-54.8,33.2-72.2,62.5c-15.1,25.4,10.9,36.2,16,54.2c13.7,47.9,47.4,41.3,86.2,39.3
			c37.5-1.9,72-51.4,70.4-97.9C1669.3,2000.9,1652.2,1986.4,1593,1985.6z M609.4,1524.8c47.5-0.2,83.9-37.1,83-84.2
			c-0.8-45.8-37.2-82.4-82.4-83.1c-46.2-0.7-84.6,37.5-84.3,83.7C526.1,1489.2,561.8,1525,609.4,1524.8z M1624.9,2337.2
			c75.6,0.2,93.9-19.2,89.9-95.4c-0.2-4.5-0.1-9.1-0.9-13.5c-4.2-24.4-47.1-57.8-67-50.5c-23.3,8.7-47.5,10.1-71.5,12.6
			c-13.7,1.4-19.6,3.3-14.4,19.2c9,27.5,11.8,56.3,14.9,85C1580.4,2337.1,1580.7,2337.1,1624.9,2337.2z M1622.3,2382.3
			c-7.5-0.3-13,0.1-18.3-1c-21.3-4.1-29.4,2.9-31.5,26c-3.7,42.3-15,83.7-33.3,122.2c-9.3,19.5-2.5,23.4,15.2,23.5
			c26.5,0.2,52-4.5,76.9-13.5c13.4-4.8,23.7-12.7,29-26.4c7.9-20.3,13.7-41.3,14.5-63.1c0.7-21.8-2.1-44.5-14-62.5
			C1652,2374.2,1633.6,2387.3,1622.3,2382.3z M806.3,1433c32.8-0.3,72.1-41.4,71.5-74.8c-0.6-37.3-34.1-68.9-72.8-68.7
			c-40.4,0.2-71.7,31.9-71.4,72.4C733.9,1402.2,765.7,1433.4,806.3,1433z M1589.4,316.5c0.2,0,0.4,0,0.7-0.1
			c-1.8-22.4-4.2-44.7-5.3-67.2c-0.6-11.8-4.5-18.9-16.9-19.5c-18.8-0.9-37.7-1.5-56.5-2.6c-11.1-0.7-13.3,5.2-13.5,14.8
			c-0.9,40.5,1.9,80.8,8.3,120.8c3,18.6,13.5,27.6,33.1,28.3c39.5,1.3,49.1-7.2,50.1-47.6C1589.6,334.5,1589.4,325.5,1589.4,316.5z
			 M1313.2,299.9c0-15.3-0.1-30.6,0.1-45.9c0.1-9.8-2.1-15.7-13.9-11.8c-22.2,7.3-44.6,13.9-66.8,21c-7.4,2.3-11.9,6.3-11.5,15.5
			c1.8,37.8,4,75.6,13.4,112.3c4.1,15.9,14.8,30.2,32.8,32c17.2,1.8,24.1-13.4,31.1-25.7C1315.9,366.8,1313.3,333,1313.2,299.9z
			 M2328.6,1182.5c-66.3,1.8-128.1-4.7-189.5-19.6c53.7,45.9,98.4,98.5,135.5,167.3C2284.4,1272.3,2304.6,1228.5,2328.6,1182.5z
			 M711.8,1524.1c22.6,1.3,43.1,2.6,63.5,3.7c19.4,1.1,41.9-23.1,39.5-41.8c-0.8-6.4-4.9-6.5-9.3-6.7c-22.7-1.3-44-7.6-64.1-18.2
			C732.1,1480.9,722.8,1500.7,711.8,1524.1z M543.9,1328.7c-39.2,0.9-70.2-6.4-102.5-8.4c22,14.7,39.5,33.4,55.8,54.6
			C509.6,1358.5,522,1344.5,543.9,1328.7z M654.1,1319.1c14.2,8,24,13.5,34.9,19.6c3.3-10.4,6.2-19.4,10.1-31.6
			C683.7,1311.2,671.1,1314.5,654.1,1319.1z"/>
		<path class="st0" d="M2671.9,455.8c-7.9,7.3-12.3,11.5-17,15.5c-31.9,27.4-69.2,47.8-90.8,87.3c-36.9,67.2-36.9,133.7-6.8,202.5
			c9.8,22.4,33.6,25.8,49.4,39.9c6.7,6,26.7,7.1,11.9,24.5c-10,11.8-14.5,27.8-37.2,13.8c-144.1-88.8-286.6-84.2-424.8,13.3
			c-21.7,15.3-27.2,0.1-37.5-11c-14.3-15.3,3.1-19.1,9.7-26.7c1.1-1.3,3-2.1,4.6-2.8c64.1-24.8,66.8-80.3,66.7-136
			c-0.1-32.5-8.6-63.9-17.3-95.4c-13.3-47.8-46.6-77.4-84.8-104.2c-8.7-6.1-28.4-10.5-11-29.6c13.5-14.8,22.3-20.3,41-4.9
			c151.3,123.7,339.7,122.6,493.7-1.4c6.4-5.1,11.9-16.1,22.6-8.3C2653.5,439.2,2662,447.4,2671.9,455.8z M2237.6,755.9
			c79.1-25.5,153.7-31.4,229.5-14c34.4,7.9,35,7.6,27.7-28.3c-11-53.6-2.8-105.1,19.2-159.1c-99.8,33.5-195.1,31.3-293.5-3.5
			C2244.3,618.8,2252.5,684,2237.6,755.9z"/>
		<path class="st0" d="M810.7,407.1c12.6,0,25.3-0.4,37.9,0.1c12.9,0.6,29-2.9,25.6,20c-2.7,17.7-5.9,27.5-29.7,25.3
			c-78.8-7.4-154.8,8.3-226.7,40.5c-82.4,36.8-134.2,98.6-146,190.3c-7.9,61.8-15.3,123.7-14.7,186.1c1,93.9,62.6,163,155.4,174.2
			c61.5,7.4,120.7-4.2,178.1-24.7c20.5-7.3,25.7,0.1,32.6,17c8.9,21.6-6.6,22.5-18.7,26.5c-52.5,17.5-106.1,28.5-161.9,28.1
			c-139.7-1-231.7-91.7-230.9-231.1c0.3-63.2,6.5-126.1,16.2-188.7c17-109.5,81.4-180.6,179.9-223.1
			C672.3,420,740.2,406,810.7,407.1z"/>
		<path class="st0" d="M343.5,2054.9c-0.4,40.5-0.7,81.1,3.3,121.6c9.5,95.8,76.6,154.2,171.9,170.8c38.4,6.7,77.2,9.4,115.9,2.7
			c12.2-2.1,20.3-0.6,17.8,13.6c-1.8,10.7,16.7,28.9-8.9,31.2c-88.8,8.1-175.3,2.8-251.4-51.5c-54.9-39.2-84.2-94.6-90-160.2
			c-7.7-88-13.3-176.5,1.2-264.7c19.6-119.3,95.3-195.2,214.3-215.6c50.3-8.6,100.3-9.1,150.7-0.3c9.9,1.7,19.7,2.4,16.1,15
			c-3.2,11.1,2.4,29.9-19.4,28.6c-9-0.5-17.9-1.8-26.8-2.6c-79.1-7.1-155.3-0.7-220.4,51.5c-51.8,41.5-70.2,99-73.9,162.4
			C341.9,1989.8,343.5,2022.4,343.5,2054.9z"/>
		<path class="st0" d="M1352.6,2353c0.8,85.9-69.1,156.2-155.8,157c-87.2,0.8-159.1-70.1-159.7-157.3
			c-0.6-89.3,70.3-161.2,158.7-161C1284.3,2191.8,1351.8,2261.1,1352.6,2353z M1308.2,2352.2c0.3-64.3-47.8-113.8-111.3-114.6
			c-63.3-0.8-113.8,48.6-114.6,111.8c-0.8,63.4,48.7,113.9,111.8,114.1C1259.3,2463.7,1307.9,2416.2,1308.2,2352.2z"/>
	</g>
</g>
</svg>
