<?xml version="1.0" encoding="utf-8"?>
<!-- Generator: Adobe Illustrator 23.0.0, SVG Export Plug-In . SVG Version: 6.00 Build 0)  -->
<svg version="1.0" xmlns="http://www.w3.org/2000/svg" xmlns:xlink="http://www.w3.org/1999/xlink" x="0px" y="0px"
	 viewBox="0 0 3000 3000" style="enable-background:new 0 0 3000 3000;" xml:space="preserve">
<style type="text/css">
	.st0{stroke:#000000;stroke-width:10;stroke-miterlimit:10;}
</style>
<g id="Layer_1">
</g>
<g id="Layer_2">
	<g>
		<path class="st0" d="M1887,62.3c139.7,0.1,249.5,8.2,356,43c162.4,53,280.2,154.4,345.8,314.1c63.4,154.1,115.1,311.2,133.8,477.9
			c17.5,156.3,13.6,311.7-10.9,466.8c-12.5,78.9-20.2,158.6-44.3,235.6c-23.4,74.8-59.7,142-113.3,199
			c-13.9,14.8-14.1,24.1-3.1,40.7c114.8,172.4,156.4,362.9,136.7,567.7c-16.8,174.7-107.4,280.1-279.8,312.3
			c-146.6,27.4-295,41.8-444.8,31.5c-162.1-11.1-311.5-60.9-450-144.5c-17.3-10.4-23.4-10.6-30.6,10.6
			c-59.1,173.6-187.1,261.1-363.7,283.8c-79.3,10.2-159.3,9.4-239.5,8.2c-60.7-0.9-121.5,1.3-181.7-6.8
			c-185.1-24.9-310.7-155.1-333.8-341.3c-31.5-254.4,45.2-467.7,238.5-637.7c8.9-7.8,21.8-13.3,2.1-25.5
			C436.1,1793,343.8,1638,300,1447.4c-45.8-199.2-52.8-397.5-0.6-595.7C379.7,546.8,578,348.2,867,234.8
			c146.9-57.6,300.1-91.1,456.1-112.9C1519.9,94.4,1716.7,67.1,1887,62.3z M2312.7,1897.8c6.2-0.5,9.3-0.1,11.8-1.1
			c135.6-56.4,238.8-147.4,285.4-289.2c51.9-158.1,67.2-323.3,72.8-488.5c8.3-244.7-50.3-476.2-149.2-698.6
			c-52-116.9-138-197.8-255.4-247.6c-105.7-44.8-216.9-57.6-329.9-59.8c-152.6-3-303.4,19-454.4,37
			c-184.2,22-367.6,49.2-544.3,109.2C780.5,316.5,628.2,400,512.8,539.9C376,705.7,319.4,900.1,314.6,1111.7
			c-3.8,170.2,20.3,336.4,91.9,491.8c86.1,187,242.5,287.6,435.8,339.4c14.4,3.8,23.3-2.9,33.2-9.6c97.4-65.7,176.1-148.8,234-251.5
			c53.6-95.2,83.1-197.5,92.5-305.8c1.2-13.8,1.2-23.2,21.3-24.3c31.7-1.7,31.3,14.7,28.9,37c-24.2,225.8-121.4,411.6-301.5,552.4
			c-7,5.5-18.3,8.9-19.4,21.9c113.9,22.8,229.1,31.9,344,44c30.5,3.2,48.1-6.7,66.1-29.6c140.8-179,237.5-378.6,283.3-602.1
			c3.9-19.1,7.9-29.1,33.1-23.5c25.3,5.7,21.1,16.4,17.4,34c-46.6,220.9-139.1,420.4-276.1,599.6c-6.2,8.2-15.3,15.2-17,27
			c4.6,1.5,7.4,3,10.3,3.2c132.8,9.2,265.4,9.9,398.1-2.6c14.6-1.4,21.3-9.6,28.3-19.4c43.3-60.3,80-124.5,108.6-193
			c65.5-156.7,88.2-319.7,68.3-488.2c-3.2-27.2,8.5-30.3,30.2-34.3c27.3-5.1,19.2,14.9,20.4,25.4c26.9,240.4-23.3,463.5-151.5,668.8
			c-5.2,8.3-13.5,15.2-13.1,27.3c9.2,0,18.5,1.4,27.1-0.2c93.4-18,186.8-35.7,279.5-57.1c36.5-8.4,57.2-27.2,74.1-58.5
			c124.6-230.8,151.5-471.8,77.1-723.3c-7.1-24,1.8-29,20.5-35.9c23.6-8.7,25.3,7.7,29.4,21.9c12.7,44.8,24,89.8,30.5,136
			c19.7,140.2,14.6,278.7-26.2,415.2C2373.2,1766.3,2346.8,1832.4,2312.7,1897.8z M900.4,2859.9c65.9-0.7,131.9,0.4,197.5-7.4
			c113.6-13.5,214.7-51.3,284.6-148.4c42.4-58.9,60.8-126.7,75-196.9c27.9-138.4,28.9-275.6-8.2-412.5c-4.4-16.4-9.1-26.3-29.1-27.2
			c-118.5-5.4-236.6-16.9-354.3-31.4c-128-15.8-254.5-39-373.1-92.5c-19-8.6-30.2-6.2-45.2,6.7
			c-184.7,157.6-263.7,356.3-234.5,597.7c20,165.1,121.4,276.6,277.7,302.8C760.3,2862.3,830.5,2859.3,900.4,2859.9z M1528.5,2285.7
			c39.7-29.2,74.8-53.2,112-73.9c180-100.1,375.5-115.5,575.4-104.4c83.3,4.6,157.1,37.5,223.6,87c8.5,6.3,24.6,11.8,8.8,26.9
			c-11.3,10.8-17.5,32-40.3,13.5c-25.9-21-54.5-38.3-88.8-49.7c-4.2,28.3-11.4,55.2-11.5,82c-0.1,81.6-153.1,158.7-214.2,99
			c-6.2-6-11.4-9.6-20-0.9c-46.8,47.6-101.1,43.8-157.1,20.3c-15.5-6.5-25.3-6.6-39.3,6.2c-57.5,52.8-129,45.7-177-15.4
			c-20.7-26.3-40.6-53.2-56.1-82.9c-6.7-13-13-19.5-27.3-8.3c-25.5,20-51.7,39.1-77.7,58.5c-9,6.7-11.7,15.5-12,26.4
			c-1.4,49.8-10.5,98.8-20.8,147.3c-4,19,1.9,27.1,16.4,36.3c88.2,55.4,182.6,97,283.7,121.4c212.1,51.3,423.5,28.2,632.9-15.6
			c101.7-21.3,165.4-93,185.8-192.7c43.9-214.3,3.3-414.6-115.4-599c-10-15.5-16.1-11.5-27.3-2.7c-48.2,38-102.1,66.5-159.6,86.9
			c-184.5,65.6-376.1,97.2-570.3,115c-77.8,7.1-156,7.4-234.2,6.1c-9.5-0.2-23.9-5.8-18.4,15.5
			C1516.2,2151.2,1526.5,2215,1528.5,2285.7z M2100.3,2228.2c5.7,19.8-6.1,44.8,3.3,67.9c10.2,25.1,27.2,42.1,57.5,39.9
			c36.8-2.7,87.9-36.8,93.6-66c5.4-27.6,7-56,11.5-83.9c2.6-16-4-21.9-18.8-23.4c-27.1-2.7-54-7.6-81.2-8.9
			c-69.2-3.2-69.2-2.5-66.2,67.4C2100.1,2222.3,2100.1,2223.3,2100.3,2228.2z M1904.6,2243.3c0,9.1,0.1,18.2,0,27.3
			c-0.5,59.9,33.2,87.4,94.5,79.1c25.7-3.5,39.3-16.6,45.8-41c6.9-26,5.9-52.1,5.4-78.4c-1.6-74.6-1.8-74.6-75.6-66.6
			C1904.5,2171.3,1904.5,2171.3,1904.6,2243.3z M1854.2,2260.6c0.4,0,0.9,0,1.3,0c-1-20.2-2-40.4-2.8-60.6c-0.5-11.6-4.3-15.2-17-12
			c-50.3,12.5-98,31.3-144.1,54.4c-10,5-14,9.4-7.2,20.6c20.6,33.6,41.3,67.1,68.1,96.4c21.7,23.7,47.2,18.8,72.4,7.5
			c23.3-10.4,36.7-25.9,30.1-54.8C1851.1,2295.7,1854.2,2277.8,1854.2,2260.6z"/>
		<path class="st0" d="M1401,905.2c-114.4,3.2-206.1-30.2-257.5-136.3c-63.3-130.6-18.8-313.3,95.8-402.4
			c85.1-66.1,184.9-89.1,288.6-101.5c51.4-6.2,102.7-9.4,154.5-0.9c209.9,34.2,312.7,289,187.8,461.2
			c-71.4,98.4-170.3,143.5-285.6,160.2C1522.5,894.4,1460.5,906.6,1401,905.2z M1778.9,361.8c-33.8-29.3-70.1-44-110.1-48.1
			c-105.6-11-208.3,4.5-307.1,42.1c-138.5,52.6-209.3,168.5-193.5,315.5c7.6,70.2,38.2,127.3,103.5,161.9
			c23.3,12.3,34.2,11.9,43.5-17.9c57.3-183.1,172.2-318.5,343.4-405.9C1696.5,390.1,1736.7,376.8,1778.9,361.8z M1405.3,855.3
			c30.6,7.8,45.2-10.2,58.7-42c67.1-158.5,185.1-262.7,348.8-314.9c55.8-17.8,56.2-16.7,26.2-68.6c-1-1.8-2-3.5-3-5.3
			c-7.7-15.4-16.6-20.9-36-15.2c-212,62.5-357.2,195.8-431.2,404.8C1354.1,855.7,1354.9,856,1405.3,855.3z M1504.3,844.5
			c84.2-9.3,162.3-18.1,229.8-60.7c81.9-51.7,135.8-123.4,139.9-224.9c0.6-13.9-0.4-24.4-19.1-19.5
			C1690.6,582.8,1575.3,682.6,1504.3,844.5z"/>
		<path class="st0" d="M1901.1,1081.2c-75,0.8-134.2-56.1-135.4-130.3c-1.2-72.8,58.7-133.9,132.4-134.9
			c73.9-1.1,134,57.8,134.6,131.9C2033.3,1023.2,1977,1080.4,1901.1,1081.2z M1900.9,1032.1c45.6-0.7,83.1-39.4,81.9-84.5
			c-1.3-46.1-38.3-80.6-85.6-79.8c-45.5,0.8-79.9,36.2-79.8,82C1817.6,995.8,1855,1032.8,1900.9,1032.1z"/>
		<path class="st0" d="M1285.9,934.4c75.5,0.9,132.3,58.6,131.6,133.8c-0.8,73.7-61.7,133.2-135.1,131.9
			c-73.4-1.4-134-63.2-132.6-135.3C1151.2,991.2,1211.4,933.5,1285.9,934.4z M1284.4,1147.8c46.8,0,83.7-36.6,83-82.3
			c-0.7-44.2-37.5-81-81.8-81.8c-45.6-0.8-83.5,36.3-83.9,82.2C1201.4,1113.1,1236.5,1147.9,1284.4,1147.8z"/>
		<path class="st0" d="M1576.3,1209.3c-73.2-0.1-130.8-57.4-131.6-130.9c-0.8-73.2,57.6-133.4,129.3-133.3
			c80.3,0.1,138,56.5,137.1,134C1710.2,1154.2,1653,1209.4,1576.3,1209.3z M1496.5,1078.5c0.4,46.6,37.3,82.5,83.7,81.4
			c44.7-1,80.4-37.4,80.7-82.2c0.3-46.3-36-82.2-83-82.1C1530.2,995.7,1496.1,1030.4,1496.5,1078.5z"/>
		<path class="st0" d="M823.8,1150.5c25.2-3.4,27.4,10.9,23,37.6c-35.7,215.8-139.8,390-312.4,524c-18.8,14.6-29.8,17.5-44.5-5.8
			c-11.9-18.9-1.6-23.8,10.2-32.6c113-84.3,195.9-192.1,249.5-322.5c23.6-57.4,38.7-117,47.5-178.3
			C800.6,1148.5,800.5,1148.5,823.8,1150.5z"/>
		<path class="st0" d="M1125.8,958.6c-0.1,56.5-45.6,102.4-101.7,102.8c-55.6,0.3-102.5-45.9-103.2-101.9
			c-0.8-57.5,46.2-104.5,103.8-103.9C1081.1,856.1,1125.9,901.8,1125.8,958.6z M972.9,958.1c-0.1,30.3,21.4,51.9,51.3,51.6
			c27.4-0.3,50.5-22.6,51.5-49.7c1-27.4-22.9-52.2-51.3-52.9C994.8,906.2,973,927.8,972.9,958.1z"/>
		<path class="st0" d="M2095.2,771.5c-43,0.6-75.8-30.8-76.7-73.4c-0.9-43.7,32.6-78.5,75.5-78.4c41,0.1,75.6,34.5,76,75.7
			C2170.5,736.9,2137.1,770.9,2095.2,771.5z"/>
		<path class="st0" d="M961.4,695.5c-0.4,33.8-23.4,57-56.5,57c-32.7,0-60.4-27.9-59.5-59.8c0.9-31,27.8-56.9,59.3-57
			C939.1,635.7,961.8,659.6,961.4,695.5z"/>
		<path class="st0" d="M2208.9,490.5c0.4,30.2-22.2,53.7-52.5,54.6c-31.3,0.9-56.6-23.6-56.2-54.4c0.3-27.9,26.6-53.9,54.5-54
			C2183.9,436.6,2208.5,461.1,2208.9,490.5z"/>
		<path class="st0" d="M958.5,477.1c32.4,0.4,53.1,20.4,53.3,51.3c0.2,31.8-22.9,54-55.8,53.6c-30.8-0.4-53.6-23-53.7-53.1
			C902.3,497.6,925,476.7,958.5,477.1z"/>
		<path class="st0" d="M1120.5,2438.6c0,106.2-85,191.9-190.9,192.4c-105.2,0.5-192.4-85.6-193.3-190.9
			c-1-106.2,86.9-194.4,193.3-193.9C1035.5,2246.8,1120.5,2332.4,1120.5,2438.6z M928.1,2578.7c79.4,0.1,141.8-61,142.2-139.2
			c0.3-78.3-62-140.7-140.6-140.8c-79.9-0.1-141.3,60.2-141.7,139.3C787.4,2517,848.7,2578.6,928.1,2578.7z"/>
	</g>
</g>
</svg>
