<?xml version="1.0" encoding="utf-8"?>
<!-- Generator: Adobe Illustrator 23.0.0, SVG Export Plug-In . SVG Version: 6.00 Build 0)  -->
<svg version="1.0" xmlns="http://www.w3.org/2000/svg" xmlns:xlink="http://www.w3.org/1999/xlink" x="0px" y="0px"
	 viewBox="0 0 3000 3000" style="enable-background:new 0 0 3000 3000;" xml:space="preserve">
<style type="text/css">
	.st0{stroke:#000000;stroke-width:10;stroke-miterlimit:10;}
</style>
<g id="Layer_1">
</g>
<g id="Layer_2">
	<g>
		<path class="st0" d="M1985.9,313.8c2.3-31.3,4-55.6,5.9-79.9c3.6-47.3,24.4-69.7,70.8-79.3c34.7-7.2,69.1,1,103.7-0.3
			c132.5-5,265-5.9,397.6-0.8c96,3.7,173.6,45,231.7,118.6c95.4,120.7,138.8,254.7,84.9,407.4c-22.7,64.4-63.3,116.2-118,156.4
			c-17.3,12.7-17.3,19.8-2.6,35c138.1,142.5,192.9,312.8,171.7,509.8c-7.4,68.3-8.6,137.3-17.3,205.6
			c-14.7,116.6-71.6,207.7-166.6,274.5c-24.7,17.3-26.9,28.2-9.9,53.5c108.3,160.8,146.8,337.2,104,527.3
			c-36.6,162.5-182.9,284.6-348.6,301.4c-135.5,13.7-269.8,38.7-406.6,38.8c-70.8,0-103.1-30.8-102.2-102.1
			c0.6-51.9,6.7-103.7,9.6-155.5c2.9-50.6,4.9-101.2,7.6-159.1c-30.4,19.6-56.2,35-80.5,52.5c-13.8,10,1.6,18.2,5.9,25.4
			c39,65.4,52.3,135.8,38,210c-23.9,123.6-115.6,200.9-249.2,214.2c-94.9,9.4-186.5-3.7-275.6-36.5c-16.5-6.1-28.6-8.3-45.2,5.5
			c-91.3,75.9-190.1,74.4-282.4-3.6c-18.1-15.3-29.2-20.6-50.8-3.8c-43.3,33.6-96.4,45.1-149.9,48.9c-140.1,9.9-280.3,17.8-418.5-18
			c-41.6-10.8-81-27.1-118.8-47.1c-74-39.1-110.7-104.7-121.9-184.5c-12.9-91.8-3.7-181.7,39.7-265.4c7.3-14.1,7-22.7-4.5-33.6
			c-109.6-104.6-149.3-239.9-169.2-384.3c-24.7-178.4-16.5-358.2-21.3-537.3c-5.6-210.4-5.1-421.1,13.8-631.3
			C138.7,470.9,300,273.4,590.8,193.9c85.2-23.3,172.7-35.9,260.8-41c193.4-11.4,387-14.6,580.5-8.3c123.7,4,245.9,18.9,363.5,61.7
			C1863,230.7,1924.6,265.2,1985.9,313.8z M2085.3,1328.3c-10.1-245.6,7-491.2-7.6-736.8c-3.8-63.9-21-122.6-61.6-173.1
			c-53.1-66-118.6-115.6-196.7-149.1c-100.3-43-205.7-63-313.8-70.5c-233.9-16.3-467.6-8.4-701.1,8.4
			c-75.1,5.4-149.4,18.9-221.7,40.6c-263.1,78.9-405.7,269.3-424.8,556.3c-21.6,324.9-8.4,649.6-3.1,974.4
			c1.1,66.2,9.3,132,18.7,197.7c35.2,244.1,174,395.4,409.4,461.6c91.9,25.9,186.3,36.1,281.1,38.3c232.7,5.4,465.3,1.2,697.4-16.4
			c96.1-7.3,191.3-22,280.6-60.1c115-49.1,204.7-123.6,232-253.3c9.1-43.2,11.5-87.4,11.4-131.8
			C2085.1,1785.8,2085.3,1557.1,2085.3,1328.3z M2437,1445.7c0.1,0,0.2,0,0.3,0c5.7,271.6,11.3,543.2,17.2,814.8
			c2.9,135.2,6.5,270.3,9.8,405.4c0.4,15.5-2.1,33.1,23.5,28.6c120.5-21.2,244.2-84.7,290.3-219.3c62.2-181.3,29.6-353.3-69.2-514.4
			c-31.9-52-33.2-52.6-90.4-30.4c-22.8,8.9-30.4,4.3-37.5-19c-8.1-26.5,11.1-24.5,23.8-29.3c170.6-65.7,262.8-187.1,268-372.2
			c1.6-58.4,6.1-116.8,10.4-175.1c12.7-171.6-46.4-315.4-166.2-436.7c-14.8-15-26.6-20.5-46.8-9.7c-22.7,12.2-48.6,16.7-73.5,23.6
			c-19.6,5.4-22.1-2.6-26-16.4c-9.4-33.5,19.2-31.3,36.2-36.7c97-30.7,176.7-82.7,218.9-179c57.9-132.2,21.5-252.1-56.8-362.1
			c-41.5-58.3-98.6-101-172.5-110.6c-45-5.9-90.8-5.5-136.2-7.2c-50.7-1.9-50.5-1.5-49.4,48.8
			C2419.8,647.8,2428.4,1046.7,2437,1445.7z M2230.8,1462c0,401.5,0,803.1,0,1204.6c0,10.4,0.8,20.9-0.1,31.2
			c-1.9,21.8,7.7,26,27.8,22.9c38.5-5.8,77.3-10.7,116.1-12.8c30.7-1.7,40-12.8,39.2-44.7c-9.1-346.8-16.6-693.6-24.1-1040.4
			c-9.8-449.4-19.2-898.9-29-1348.4c-1.7-80.1-2.2-78.4-83.6-74.8c-35.9,1.6-47.4,11.9-47.2,49.8
			C2231.4,653.7,2230.8,1057.8,2230.8,1462z M1652.8,2819.8c13,0,26,0.6,39-0.1c190.5-9.6,290-190.7,192.9-350
			c-10.7-17.6-19-26.4-42.2-17.1c-86.4,34.7-177.7,48.1-269.9,55.8c-130.9,11-262.1,15.2-393.4,16.1c-26.6,0.2-40.1,3.8-38,35.8
			c4.2,62.6-6.4,124.2-21,185.1c-2.5,10.5-2.6,19.3,4.1,29.2c44.8,66.2,150.4,87,215.9,41.5c65.2-45.3,93.1-110,93.4-187.3
			c0.1-24.4,11.9-26.9,31.4-27.7c24.4-1,19.4,15.2,19.3,28.5c-0.5,42.1-6.5,83.9-26.9,120.6c-15.3,27.4-5,33.8,19.3,40.9
			C1534.3,2808.1,1592.3,2821.2,1652.8,2819.8z M2179,1466.4c0-395.2,0-790.4,0-1185.6c0-75.4,0-75.4-74-77.2
			c-56.9-1.4-61.8,2.9-65.5,59.6c-0.9,14.3,0.8,28.8-1.3,42.8c-5.5,38,3.3,69.7,29.3,99.8c27.4,31.7,40.8,71.8,49.9,113
			c17.6,79.5,15.5,160.2,15.5,240.7c-0.1,245.7,0.9,491.4-1.2,737.1c-1.7,195,11.1,389.9,0.5,584.9c-4.1,75.1-20.1,146.8-66.7,208.3
			c-11.1,14.6-12.8,30.2-13.6,47.4c-4.6,98.6-8.9,197.3-15.2,295.8c-6.4,100.9-1.8,105.3,100.7,100.2c32.7-1.6,42.4-11.7,42.3-45.8
			C2178.5,2280.3,2179,1873.4,2179,1466.4z M734.6,2835.7c91.9,0.3,169.8-0.2,245.7-22c41.7-12,78.3-32.1,90.3-77.2
			c15.8-59.1,23.6-119.7,22.4-181.1c-0.2-10,1.3-20.9-11.3-26.3c-24.7-10.7-60.8,3.8-72.7,29.2c-45.8,98.6-119.9,161.2-228.8,179.5
			c-86.7,14.6-167.7-5.7-245.5-41.4c-88.2-40.5-131.5-106.8-116.6-202.5c8.5-54.5-7-81.1-52.1-100.2c-2.3-1-4.6-2.6-6.4-4.4
			c-16-15.9-22.5-6.2-29.6,9.3c-28.6,61.9-34.8,127.1-30.9,194.2c5.4,93,47,159,136.1,194.6C536.3,2827.6,641,2839.1,734.6,2835.7z
			 M725.8,2693.1c96.7-1.4,175.2-42.7,226.7-131.8c11.1-19.2,16.1-32.8-15.8-32.5c-35,0.3-70.1-2.3-105-5
			c-17.6-1.3-27.6,2.9-35.9,20.6c-14.8,31.7-41.1,53.2-74.8,63.9c-70.7,22.6-141.2-19.5-160.1-95.3c-6.2-24.8-57-60.3-80.5-56.7
			c-8.7,1.3-8.5,7.8-10.6,13.7c-21.1,60.5,7.1,136.7,63.1,169.3C591,2673.3,654.2,2689.7,725.8,2693.1z M749.8,2520.6
			c-41.2-6.9-79.1-13.5-117.1-19.5c-6.9-1.1-16.6-5.7-20,3.9c-1.7,4.9,1.8,12.3,4.5,17.9C643.1,2576.5,711,2576.9,749.8,2520.6z"/>
		<path class="st0" d="M1165.8,1650.8c-76.6-0.5-153.5,2.7-229-14.1c-165.5-36.9-260.4-159.2-242.5-328.3c7-66.3-7.8-108-54.3-156.5
			c-162.6-169.8-164-418.7-11.8-598.5c234.1-276.6,717.6-264.5,932.3,23.4c117.2,157.2,124.4,353.4,16.5,517
			c-15.2,23-16.2,39.7-4.1,63.3c27.5,53.6,42,111.4,49.4,171.2c21.6,175.5-82.4,301.8-258.4,315.9
			C1297.8,1649.3,1231.9,1650.2,1165.8,1650.8z M1107.8,1291.6c75.6,2,165.9-21.9,251.8-66.4c278.3-144,326-482.8,96.6-688.1
			C1247.4,350.3,893.8,358.6,694.6,555c-168.9,166.5-171.2,414-3.3,581.1C800,1244.2,933.9,1292.1,1107.8,1291.6z M1521.2,1172.8
			c-7.1,66.5-3.6,132.1,1.5,197.9c7.1,89.8-48.5,139.3-137.8,125.2c-14-2.2-27.8-6.2-41.4-10.2c-9.3-2.7-16.1-3.6-23.6,5.7
			c-49,60.6-118.3,59.2-185.8,55.1c-40.2-2.4-75-12.4-120.6-2.6c-131.7,28.4-180.1-17.8-190-152.9c-0.9-12.9-0.4-26,0.5-38.9
			c4.8-64.9,4.6-64.3-52.7-92.4c-15.2-7.4-24.3-9.1-26.2,10.7c-13.2,136.8,16.4,282.8,200.8,316.4c153,27.8,308,22.9,461.4-0.9
			c86.6-13.5,142-68.2,159.8-154.7C1585.8,1339.9,1564.8,1254.1,1521.2,1172.8z M1301.2,1308.7c-39.8,9-75.1,16.5-110.1,25.1
			c-28.9,7.1-66.3-5.6-85.8,14.7c-20.2,21.1-10.6,59.9-20.7,88.6c-12.1,34.1,7.6,46,31.2,54.8c37.9,14.1,76.7,4.9,114.9-1.5
			c36.5-6.2,57.6-28.1,61.2-65C1295.7,1387.1,1298.1,1348.7,1301.2,1308.7z M965.7,1498c53.8,1.6,53.9,1.6,65.8-50.9
			c2.9-12.6,5.6-25.3,7.7-38.1c10.4-63.3,10.3-63.3-52-73.6c-10.2-1.7-20.4-5.2-30.6-5.4c-27.1-0.6-60.6-31.5-77-9
			c-14.3,19.6-5.9,57.6-3.6,87.2C881.9,1484.7,894.1,1495.9,965.7,1498z M1472,1216c-43.7,25.3-74.9,43.4-106.1,61.5
			c-6.6,3.9-13.2,7.3-13.8,16.9c-2.3,40.1-5.4,80.1-7.6,120.2c-0.3,5.8,1.2,14.8,5.1,17.4c27.7,18.1,58.9,19,89.7,11.7
			c25.7-6.1,32.2-28.3,32.5-51.6C1472.4,1336.8,1472,1281.4,1472,1216z"/>
		<path class="st0" d="M1078.4,1191.1c-116.1-3-214.8-45.8-292.5-132.7c-94.3-105.5-105.1-255.1-23.6-370.8
			c93.6-133,225-194.3,385.1-164.9c152.7,28,261.9,117.3,300.9,274.3c31.9,128.5-35.5,265.2-161.9,337.7
			C1222.1,1171.5,1153.8,1193.9,1078.4,1191.1z M1082.4,564c-117,5.6-211.1,53.4-277.6,149.6c-72.4,104.6-60.9,228.7,26.7,321.1
			c131.8,139,356.9,142.7,493.5,8.1c96.7-95.3,109.5-225.7,29.8-335.8C1288.1,614.7,1195.3,569.4,1082.4,564z"/>
		<path class="st0" d="M1079,835.7c-0.4,62.1-50.5,111.3-111.6,109.8c-61.9-1.5-108.4-51-107.3-114.3c1-60.1,49.9-108.2,109.9-107.9
			C1031.5,723.7,1079.5,773.1,1079,835.7z M971.5,774.5c-33.9-0.9-62.4,26.4-62.4,60c0,32,26.5,59.1,58.6,60c34,1,62.4-26.3,62.4-60
			C1030,802.3,1003.8,775.4,971.5,774.5z"/>
		<path class="st0" d="M1338.3,839.9c0.1,62.5-48.1,110.7-110.5,110.4c-60.2-0.3-108.9-48.1-109.9-107.7
			c-1-61.1,48.5-112.5,109.2-113.3C1288.1,728.5,1338.1,778.3,1338.3,839.9z M1289.3,840.6c0.1-32.4-26.1-59.8-58.4-61
			c-32.8-1.2-63.1,27.6-63.4,60.5c-0.3,33.3,28.6,61.4,62.7,60.6C1262.1,900,1289.2,872.4,1289.3,840.6z"/>
	</g>
</g>
</svg>
