<?xml version="1.0" encoding="utf-8"?>
<!-- Generator: Adobe Illustrator 23.0.0, SVG Export Plug-In . SVG Version: 6.00 Build 0)  -->
<svg version="1.0" xmlns="http://www.w3.org/2000/svg" xmlns:xlink="http://www.w3.org/1999/xlink" x="0px" y="0px"
	 viewBox="0 0 3000 3000" style="enable-background:new 0 0 3000 3000;" xml:space="preserve">
<style type="text/css">
	.st0{stroke:#000000;stroke-width:10;stroke-miterlimit:10;}
</style>
<g id="Layer_1">
</g>
<g id="Layer_2">
	<g>
		<path class="st0" d="M2069.1,820.5c1.6,196.6-19.9,391.4-42.4,586.3c-26.6,229.8-65.7,457.4-111.2,684.1
			c-2.6,13-0.4,24.8,5.2,37.2c100.2,222.6,54.6,436.6-128.1,599.9c-122.9,109.8-266.4,173.1-431.1,187.4
			c-243.9,21.1-447.6-147.6-483.6-399.3c-18.6-130.1-3-254.2,57.2-371.7c8.1-15.8,7.2-29.7,2.4-46
			c-71.6-243.7-113.8-492.6-122.4-746.5c-4.8-141.3-15-283.6,12.1-423.6c56-289.2,180.5-540.7,424.1-718.1
			c134.7-98,287.7-152.1,457.3-143.4c132.1,6.8,228.6,71.3,287,190.5c46.7,95.4,57,199.1,65.7,302.7
			C2068.6,646.8,2071,733.6,2069.1,820.5z M2008.8,874c-4.6,1.7-12.6,4.3-20.3,7.5c-95.1,38.6-190.2,77.3-285.2,116.1
			c-14.2,5.8-24.3,11.6-33.8-9.7c-11.7-26.2-3.1-34.8,20.4-44.1c102.4-40.4,204.2-82.6,306.2-124.1c9.7-3.9,20.8-5.3,20.7-20.1
			c-0.4-61.5,0.1-123-8-186.7c-10,4.2-16.9,6.8-23.6,9.9c-94.2,43.5-188.2,87.3-282.6,130.3c-7.7,3.5-15.6,13.9-25.9,5
			c-20.1-17.4-16.2-44.7,8.2-56c99.1-45.7,198-91.7,297.4-136.7c17-7.7,23.9-16.3,22.3-35.9c-4.1-50.3-13.2-99.7-22.3-149.2
			c-4.5-24.6-13.9-24.5-33.9-14.9c-67.5,32.4-136.3,62.1-203.8,94.5c-21.3,10.2-27.4,1.4-35.2-16.1c-7.4-16.7-8.3-24.8,11.6-33.4
			c69.7-30.2,137.8-63.9,207.5-94.1c25.5-11.1,26.6-22.3,14.4-45.3c-52.6-99.9-137.5-148.7-247.2-151.7
			c-150.9-4.2-285.2,48.7-410,129.9c-15.9,10.4-12.1,18.1-2.8,29.6c29.8,36.5,58.6,73.9,88.7,110.2c12.4,15,18.4,25.4-1.9,40.4
			c-17.9,13.2-27,13.1-40.5-5.4c-27.8-38-58.9-73.6-87.4-111.1c-11.3-14.9-19.1-14.7-32.4-2.6c-47.1,42.7-87.8,90.8-126.1,141.4
			c-12.5,16.5-11.8,25.6,4.3,38.7c55,44.4,108.2,91,163.5,135.1c15.9,12.7,19.3,19.5,4.6,36.1c-14.5,16.3-22.2,22.6-42,4.8
			c-50.9-45.8-105.1-88-157-132.8c-15.1-13-21.7-10.5-30.7,5.8c-26.4,47.8-51.1,96.4-73.2,146.4c-8.6,19.5-4.5,29.8,10.9,43.2
			c67.9,59.1,134.1,120.2,202.1,179.2c17.6,15.3,9.5,23.8-1.7,35.6c-10.6,11.3-18,23.2-34.8,5.3c-20.5-21.8-44.3-40.4-66.8-60.3
			c-45.4-40.2-90.8-80.4-138.6-122.8c-19.3,50.9-31.3,99.4-40.8,148.7c-2.9,15.3,6.2,20.5,16.4,27.4
			c84.8,58.1,169.2,116.8,254.1,174.6c17,11.6,27.2,19.2,11,41.6c-14.9,20.6-24.2,15.8-40.5,4.2c-55.9-39.6-112.7-78.1-169.2-116.8
			c-26.2-17.9-52.6-35.5-81.9-55.3c-12.9,96.5-6.3,188.5-7.7,280.3c-0.3,21.8,7.5,32,27.3,40.2c87,35.7,173.3,73.3,260.1,109.6
			c14.6,6.1,25.4,10.5,14.3,28.9c-8.3,13.7-8.6,34.4-35.2,21.4c-38.4-18.7-78.5-34.1-117.9-50.6c-46.9-19.7-93.8-39.2-143.8-60.1
			c-0.4,77.5,9.2,149.7,16.2,222.1c1.4,14.2,12.2,18.6,22.8,24.1c78.8,41.1,157.2,82.8,236.2,123.4c19.5,10,34.2,15.6,18.6,43.7
			c-15.3,27.6-27.5,12.7-42.7,4.8c-26.6-13.9-53.1-27.9-79.7-41.7c-46.9-24.4-93.8-48.6-144.5-74.9
			c19.4,137.3,47.3,267.1,85.6,397.5c236.6-325.8,660.8-306.6,884.4-22.2c1.5-1.4,4.1-2.6,4.4-4.3c15.7-83.1,31.1-166.2,46.8-249.3
			c2.9-15.6-5.1-14.9-16.5-13.3c-55.1,7.9-110.6,13.5-165.3,23.4c-27.7,5-22.7-13.9-26.6-27.6c-5.1-17.7,1.6-24.4,20.1-26.4
			c51.1-5.7,101.7-15.5,152.8-20c34.8-3.1,54.3-14.6,54.6-52.7c0.2-23.3,4.7-47.1,10.6-69.8c7-26.8-4.8-25.4-24.3-21.2
			c-93,20.1-186.4,38.6-279.2,59.3c-21.1,4.7-27.6-2.3-33.1-20.9c-7.8-26.1,7.3-30.3,26.5-34.2c97.5-19.7,194.8-40.2,292.4-59.5
			c21.6-4.3,33-13.3,34.2-36.8c1.7-32.1,4.1-64.4,10.4-95.8c5.6-27.7-3.4-30.9-27.4-25.8c-82.6,17.5-165.8,32.7-248.2,51.3
			c-24.3,5.5-27.2-2.4-32.1-22.9c-5.5-22.8,2.3-27,21.7-30.7c88.2-16.8,176.1-35.5,264.3-52.3c23-4.4,34.3-13.7,35.4-38.5
			c1.7-35.3,5.4-70.6,11.2-105.4c4.5-27.3-1.8-31.4-27.2-21.9c-101.1,37.9-202.8,73.9-304,111.4c-16.4,6.1-28.3,12.7-36-11.5
			c-6.4-20-9.5-30.6,16-39.4c111.1-38.5,221.2-79.8,331.9-119.7c16.2-5.8,28.7-11.9,28.4-32.6C2008.3,992.1,2008.8,934.3,2008.8,874
			z M1372.2,2861.2c140.9-6,294.1-77.9,419.9-208.3c154.9-160.6,170.9-381.5,43-564.3c-131.4-187.7-377.4-266.1-576.2-183.4
			c-247.2,102.7-385.2,384.8-317.9,649.4C990.4,2748.9,1139.6,2866.6,1372.2,2861.2z"/>
		<path class="st0" d="M1311.4,1362.9c-1-52.9,43.9-98.6,97.1-99c53.1-0.4,98.5,44.7,98.4,97.7c-0.1,51.5-41.7,94.8-92.3,96.1
			C1357,1459.2,1312.4,1418.2,1311.4,1362.9z"/>
		<path class="st0" d="M1484.5,1656.3c0.3,55.3-41.6,97.6-96.9,97.6c-54.2,0-98.1-44.1-97.5-97.8c0.6-52.1,43.7-95.3,96-96.2
			C1440.7,1559,1484.2,1601.6,1484.5,1656.3z"/>
		<path class="st0" d="M1599.6,688.4c0.5,54.2-42.7,98.7-96.3,99.1c-53.4,0.4-97.8-44-97.7-97.9c0.1-53.5,41.6-95.7,94.9-96.6
			C1555.9,592,1599.1,633.6,1599.6,688.4z"/>
		<path class="st0" d="M1538.7,272.1c54.2,0,96.2,40.6,97.1,93.7c0.9,52-44.8,101.4-96.8,99c-55.6-2.5-95.2-36.3-98.2-97.3
			C1438.1,313.4,1482.4,272.1,1538.7,272.1z"/>
		<path class="st0" d="M1439.5,1135.1c-54.2-1.2-96.6-46.2-94.5-100.5c2-54.9,45-94.3,101.4-93.1c52.1,1.1,94.8,46,93.5,98.4
			C1538.6,1093.8,1493.8,1136.3,1439.5,1135.1z"/>
		<path class="st0" d="M1566.9,2366.2c0.4,90.4-69.6,161.6-159.3,162.2c-88.8,0.6-162.6-72.6-162.4-161
			c0.2-87.6,71.2-159,159.7-160.3C1494.7,2205.7,1566.5,2276.2,1566.9,2366.2z M1406.1,2473.6c61,0.3,108.5-46.7,108.1-106.8
			c-0.4-58.9-47.1-105.3-106.3-105.6c-62.1-0.3-106.8,44.6-106.7,107C1301.4,2429,1345.5,2473.3,1406.1,2473.6z"/>
		<path class="st0" d="M1056.5,2596c-39.7-0.7-70.3-33-69.2-73.1c1.1-38.5,32-68.5,70.6-68.5c39.4,0,71.6,32.3,71.2,71.5
			C1128.7,2565.1,1096,2596.6,1056.5,2596z"/>
		<path class="st0" d="M1262.3,2763.3c-40.8-0.1-70.7-30.4-70.2-71.2c0.5-39.8,33-71.5,72.3-70.4c37.2,1,69.1,33.7,69.5,71
			C1334.2,2732.1,1302.5,2763.4,1262.3,2763.3z"/>
		<path class="st0" d="M1088.8,2300.8c-40.2-0.6-70.3-32-69.5-72.4c0.8-38,32.6-69.6,70-69.8c38.2-0.1,72.2,33.8,71.9,72
			C1161,2270,1128.5,2301.4,1088.8,2300.8z"/>
		<path class="st0" d="M1343.1,2025.4c0.2,40.2-30.9,71.4-70.9,71.1c-38.5-0.3-69.6-30.5-70.8-68.7c-1.2-38.6,31.2-72.3,70.2-73
			C1311.2,1954,1342.9,1985.4,1343.1,2025.4z"/>
		<path class="st0" d="M1572.7,2076.6c0.4-40.7,31.3-70.8,71.4-69.6c37.9,1.2,69,32.9,69.1,70.6c0.2,38.8-32.8,71.6-71.8,71.3
			C1601.6,2148.6,1572.3,2117.8,1572.7,2076.6z"/>
		<path class="st0" d="M1668.8,2387.3c-0.5-39.5,31.4-72.3,70.3-72.4c38.5-0.1,72.2,33.6,71.9,71.9c-0.3,37.6-31.9,69.2-70,69.9
			C1701,2457.5,1669.3,2427,1668.8,2387.3z"/>
		<path class="st0" d="M1670.6,2646.6c-0.7,39.7-33.5,71.3-72.5,69.9c-37.5-1.4-69.3-33.8-69.6-71c-0.3-38.9,32.4-70.9,72.2-70.7
			C1641.3,2575,1671.3,2605.8,1670.6,2646.6z"/>
	</g>
</g>
</svg>
