<?xml version="1.0" encoding="utf-8"?>
<!-- Generator: Adobe Illustrator 23.0.0, SVG Export Plug-In . SVG Version: 6.00 Build 0)  -->
<svg version="1.0" xmlns="http://www.w3.org/2000/svg" xmlns:xlink="http://www.w3.org/1999/xlink" x="0px" y="0px"
	 viewBox="0 0 3000 3000" style="enable-background:new 0 0 3000 3000;" xml:space="preserve">
<style type="text/css">
	.st0{stroke:#000000;stroke-width:10;stroke-miterlimit:10;}
</style>
<g id="Layer_1">
	<g>
		<path class="st0" d="M1506.9,2532.4c-297.9,3.1-595.8-1.9-893.7,3.2c-104.6,1.8-209.7,1.2-313.8-12.9
			c-123.8-16.8-188.6-82.4-202.2-208.6c-18.7-173.8,1.1-342.5,74.4-503c6-13.2,11-24.1,1-39.9c-96.1-151.8-99-311.7-38.2-476.3
			c8-21.7,16.6-44.2,29.9-62.8c19-26.7,17.9-50.5,7.2-80.4c-45-125.4-55.6-254.9-42-387.1c4.6-45.3,6.1-90.9,18.1-135.2
			c34.5-127.7,113.3-199.2,244.1-215.7c118.8-14.9,238.1-12,357.3-2.9c13.5,1,27.1,1.6,40.7,1.6c473.6,0.1,947.1-1.5,1420.7,1
			c144.5,0.8,289.1,7.5,433.7,5c110.3-1.9,183.4,50.6,223.2,148.9c63.4,156.7,53.6,314.8-1.4,471.8
			c-19.4,55.3-48.9,105.5-83.9,152.3c-10.1,13.4-12.4,22.1-0.7,36.9c139.7,178.4,130.3,394.8-24.7,560.6
			c-15.1,16.1-7.9,23.5,1.8,35.5c127.6,156.2,154.1,331.8,98.5,522.4c-6.4,22.1-16.7,43.5-28,63.7
			c-44.5,79.7-111.7,123.8-204.2,128.1c-103.9,4.8-207.6,0.7-311.4-2.1C2044.5,2529.1,1775.7,2535.7,1506.9,2532.4z M1937.2,1472.9
			c0,326,0.2,652-0.5,978c0,22.2,4.8,30.2,28.6,29.4c59.1-1.8,118.3-0.4,177.5-0.7c42.5-0.2,37.7,5.2,37.7-36.6
			c0.1-528.8,0.1-1057.5,0.1-1586.3c0-122.2-0.5-244.5,0.5-366.7c0.2-22.1-4.7-30.4-28.6-29.8c-61.1,1.7-122.3,1.8-183.3,0
			c-25.2-0.8-32.6,5.4-32.6,31.8C1937.6,819,1937.2,1146,1937.2,1472.9z M981.2,1475.7c0-327-0.2-653.9,0.5-980.9
			c0-22.5-5.3-30-28.8-29.4c-62,1.7-124.2,1.5-186.3,0.1c-22.4-0.5-29.6,5.1-29.4,28.7c1.1,147.5,0.6,294.9,0.6,442.4
			c0,504.5,0.2,1009-0.5,1513.5c0,24.1,5.9,31.2,30.3,30.5c60.1-1.8,120.3-1.8,180.4,0c25.7,0.8,34-5.2,33.9-32.8
			C980.8,2123.8,981.2,1799.7,981.2,1475.7z M1460.9,1315.5c-134.8,0-269.6,0.4-404.5-0.5c-20.9-0.1-28.3,3.9-28.1,26.8
			c1.2,116.4,1,232.8,0.1,349.2c-0.2,20.4,5.6,26.1,26,26.1c269.6-0.6,539.3-0.6,808.9,0c19.8,0,26.7-4.6,26.5-25.6
			c-1-116.4-1.1-232.8,0.1-349.2c0.2-22-6-27.4-27.6-27.3C1728.6,1316,1594.7,1315.5,1460.9,1315.5z M2478.5,1187.4
			c73.7,0,147.4-0.7,221.1,0.5c18.7,0.3,29.9-5.9,40.9-20.6c90.2-121,126.1-258,120-406.9c-2.9-70.1-15.7-138.5-51-200.9
			c-32.5-57.5-77.9-90.7-147.2-90.8c-137.7-0.3-275.3-3.4-413-6.3c-17.2-0.4-21.5,5.3-21.2,21.4c0.8,52.4,0.9,104.7-0.1,157.1
			c-0.3,17.8,5.5,20.4,21.8,17.8c40.3-6.3,80.7-7,121.6-1.4c139.9,19,214.4,89,226.7,225.1c9.7,107.3-39.2,195.4-132.6,228.1
			c-67.5,23.6-137.7,31.2-209.2,20.8c-11.3-1.6-30.1-11.2-27.6,14c1.7,17.4-13.7,44.1,25.8,42.9
			C2329.1,1185.8,2403.8,1187.4,2478.5,1187.4z M1456.3,721.6c135.8,0,271.6-0.4,407.4,0.4c19.9,0.1,26.7-4.6,26.3-25.5
			c-1.3-70.8-1.1-141.6-0.1-212.4c0.3-19.5-6.2-24.3-24.9-24.3c-270.6,0.5-541.2,0.5-811.8,0c-18.9,0-25,5.1-24.7,24.4
			c1,70.8,1.2,141.6-0.1,212.4c-0.4,21,6.6,25.6,26.3,25.5C1188.6,721.2,1322.5,721.6,1456.3,721.6z M2461.8,1816.7c0,0,0,0.1,0,0.1
			c-70.8,0-141.6,0.3-212.4-0.1c-36.5-0.2-17.5,26.9-20.4,42c-4.2,21.9,12.7,16.6,24.3,14.4c33.7-6.3,67.6-6.5,101.5-4.3
			c150.2,10,235.9,85,249.1,225.4c10.7,114.2-44.6,213.1-163.8,239.9c-63.8,14.3-128,21.6-192.7,8.4c-17.8-3.6-19.3,4-19.1,18
			c0.5,33.9,1.3,68-0.3,101.8c-0.9,19.8,6.7,23.5,24.8,24.2c117.3,4.5,234.7,6.3,352,4.6c23-0.3,46.7-3.5,68.8-9.7
			c75-21,114.8-78,135.9-147.2c56.9-187,23.1-355.9-108.3-503.3c-10-11.3-21.1-14.7-35.7-14.5
			C2597.6,1817,2529.7,1816.7,2461.8,1816.7z M458.9,1180.9c31,0,62.1,0,93.1,0c39.8,0,79.5-0.9,119.3,0.2
			c25.5,0.7,17.5-17,18.6-29.9c1.6-18-9.4-13.9-20.6-12.5c-57.3,7.1-114,4.4-170.4-8.7c-102.8-23.8-156.7-78.1-172.1-182.4
			c-17-115.2,29.6-235.7,173.7-272.2c55.3-14,111-17.9,167-9.7c19.3,2.8,23.1-1.4,22.8-19.5c-0.9-56.2-0.8-112.5,0-168.7
			c0.2-16.8-3.6-24.5-22.3-24.1c-86.2,1.9-172.5-2.9-258.7,6.4c-118,12.7-186.4,71.2-216.1,186.5c-7.1,27.4-9.1,55.4-12.5,83.2
			c-17.6,145.5-8.8,288.1,42.4,426.9c6.8,18.3,14.9,25.4,35.1,24.9C325.1,1180.1,392,1181,458.9,1180.9z M457.2,1810.5
			c-67.9,0-135.8,1-203.7-0.6c-21.8-0.5-31.9,6.7-40.9,26.3c-60.3,131.9-75.4,271.7-73.6,414.3c0.4,35.8,6.2,71.6,17.3,105.8
			c19.6,60.9,53.8,106.5,123.4,115.4c131.3,16.8,263.1,14.9,394.9,14.6c16.6,0,15.4-10.3,15.4-21.3c-0.1-40.7-1-81.5,0.4-122.2
			c0.7-19.7-6.9-23.4-23.9-20.1c-44.3,8.6-88.7,5.7-133.2,0.2c-126.3-15.6-194.5-74.4-212.3-190c-17.9-115.7,32.1-235.3,167.6-270.6
			c58-15.1,116-21.6,175.5-11.9c9.8,1.6,26.1,11.5,26.2-12.7c0-17.4-0.1-28.5-23.7-27.9C596.9,1811.5,527.1,1810.5,457.2,1810.5z
			 M1458,2485.2c134.7,0,269.5-0.5,404.2,0.5c21.5,0.2,28.8-5.2,27.8-27.4c-1.8-40.6-2.1-81.5,0.1-122.1
			c1.3-24.3-8.1-28.6-29.8-28.5c-174.5,0.7-349,0.4-523.5,0.4c-94,0-188.1,0.5-282.1-0.4c-20-0.2-27,5.3-26.3,26
			c1.5,41.6,1.8,83.4-0.1,125c-1,22.9,7.5,27,28.3,26.9C1190.4,2484.8,1324.2,2485.3,1458,2485.2z M2479,1236.4c0,0.1,0,0.2,0,0.3
			c-76.6,0-153.3,0.2-229.9-0.2c-13.7-0.1-21.8,2.4-21,19.1c0.9,19.1,13.1,13,22.5,11.4c32.8-5.8,65.7-5.9,98.6-3.7
			c150.2,10.2,235.9,85.3,248.8,225.8c10.5,114.1-44.8,212.7-164.3,239.6c-60,13.5-120.4,18.7-181.6,11.3
			c-10-1.2-23.2-11.5-24.1,10.8c-0.6,17.2,8.1,18.4,21.4,18.4c147.5-0.3,295-0.3,442.4-0.1c11.3,0,19.6-3.1,28.1-11.2
			c136.3-131.3,147.2-356.1,24.3-499.9c-13.1-15.3-26.4-22.4-47-22.1C2624.6,1237.1,2551.8,1236.4,2479,1236.4z M456.2,1760.8
			c0-0.1,0-0.3,0-0.4c68.9,0,137.8-0.1,206.7,0.1c15.1,0,29.2,1.8,27.5-21.5c-1.9-25-17.4-11.3-27.1-10.6c-54.5,4-108.4,2.7-162-9.7
			c-106.7-24.7-161-79.5-175.1-186.4c-15-114,30.6-231.1,172.3-268.2c56.1-14.7,112.7-17.3,170-10.8c8.2,0.9,19.7,9.6,21.5-8.3
			c1.6-16.2-8.1-16.5-19.8-16.5c-143.6,0.2-287.2,0.3-430.8,0c-12,0-20,3.4-25.8,14.3c-88.3,165.1-101.8,330.6-4.4,497.5
			c8.9,15.2,19.6,21.2,37.4,21C316.5,1760.3,386.3,1760.8,456.2,1760.8z M2228.4,2107.3c0,52.4,0.6,104.8-0.3,157.1
			c-0.3,18.3,3.3,27,24.3,30.2c55.4,8.5,110,6.8,164.4-5.3c91.7-20.5,134.3-70.5,139.4-163.5c4.5-81.2-31.4-151.9-93.5-179.6
			c-67.3-30-137.7-37.6-210.4-24.3c-18.7,3.4-24.8,12-24.3,31.2C2229.3,2004.4,2228.4,2055.9,2228.4,2107.3z M690,2089.9
			c0-54.3-0.7-108.6,0.4-162.8c0.4-17.3-5.7-24.1-22-26.6c-40.5-6.4-80.9-8.3-121.5-1.6c-121.9,20-183.9,87-181,198.7
			c1.8,69.3,25.5,128.9,94.5,156.6c65.9,26.5,135.4,30.5,205.8,20.4c19.1-2.7,24.8-11.3,24.3-30.6
			C689.1,2192.6,690,2141.2,690,2089.9z M2228.4,1502.3c0,54.3,0.4,108.6-0.3,162.9c-0.2,15.3,4.1,21.3,20.5,24
			c63.4,10.4,125.4,5.5,186.8-11.6c61.2-17,96.3-57.9,110-119c25.7-114.6-27.5-206.7-136.8-235.6c-51.2-13.5-102.9-16.8-155.5-7.9
			c-18.9,3.2-25.7,10.4-25.2,30C2229.2,1397.5,2228.4,1449.9,2228.4,1502.3z M2228.4,893.1c0,53.3,1,106.7-0.5,160
			c-0.6,20.4,7.6,26.5,25.8,29.3c43.6,6.5,86.9,5.8,130.2-1.3c98.7-16.3,146.1-55.2,162.1-133.1c18.8-90.9-15.3-179.9-85.1-213.7
			c-67.4-32.6-139-39.1-212.8-26.2c-16.1,2.8-20.2,9.9-20,25.1C2228.8,786.5,2228.4,839.8,2228.4,893.1z M690,1489.6
			c0-52.3-1.1-104.7,0.5-156.9c0.6-21.3-6.6-28-27.1-30.8c-60.8-8.6-118.9-0.9-177.2,17.8c-135.3,43.5-141.7,236.4-66.8,307.5
			c14.2,13.5,29.7,25.3,48.3,31.5c63.2,21.4,127.8,28.7,194.6,20.5c24.8-3,28.9-13.6,28.2-35.5C689,1592.3,690,1540.9,690,1489.6z
			 M690,905.2c0-55.2-0.4-110.4,0.3-165.7c0.2-15.3-4.2-22.1-20.4-24.7c-29.9-4.8-60-7.4-89.7-3.9c-55.9,6.6-112.7,15.1-154.6,57.7
			c-58.3,59.4-64.4,131.8-43,208.1c12.8,45.6,42.4,78.8,87.3,94.4c64.9,22.6,131.6,29.9,200.2,18.3c16.8-2.8,20.3-9.4,20.1-24.3
			C689.7,1011.7,690,958.4,690,905.2z M1668.1,1852.2c-15.8-10.2-28-16.4-38.1-25c-62.3-53.2-133.6-74.4-214.8-62.9
			c-16.1,2.3-34-5-48.6,3.9c-41.6,25.5-82.2,52.6-126.3,81c70.8,43.5,137.6,84.3,204.2,125.5c8.4,5.2,15.4,5.7,24.1,0.3
			C1533.5,1934.8,1598.7,1894.9,1668.1,1852.2z M1503.6,2010.8c59.1,36.1,113.6,69.2,167.9,102.8c9.8,6,17.6,9.5,28.8,2.3
			c52.9-33.9,106.5-66.8,159.4-100.7c19-12.2,18.8-27.9-0.3-40.4c-43.7-28.5-88-56.2-131.8-84.6c-7.9-5.1-14.4-8.6-23.5-2.9
			C1638.4,1928,1572.5,1968.4,1503.6,2010.8z M1047.3,1975.8c61.4,45.2,120.4,88.7,179.4,132.2c6.7,4.9,12.9,7.4,21.1,2.4
			c53-32.8,106.2-65.3,162.3-99.7c-70.4-43-137.3-83.6-203.8-124.7c-9-5.5-15.4-4.7-23.5,0.8
			C1138.6,1916.1,1094.1,1945,1047.3,1975.8z M1641.1,2152.4c-59-36.2-113.5-69.2-167.5-103.1c-12.4-7.8-22.2-7.4-34.4,0.4
			c-46.5,29.5-93.3,58.5-140.7,86.6c-14.3,8.5-15.9,13.6-1.8,23.7c41.7,29.8,82.6,60.6,124.1,90.7c18.3,13.3,40.1,13.3,57.4,3.2
			C1532.3,2222.3,1584.7,2187.9,1641.1,2152.4z M1839.3,1031.4c-3.6-4.1-5.7-7.3-8.5-9.6c-44.6-37.2-89.5-74.1-133.9-111.6
			c-9.3-7.8-15.2-2.8-22.8,1.9c-39.5,24.4-79.1,48.8-119.1,72.3c-12.8,7.5-14,12.8-2.5,23c42,37.3,83.5,75.2,124.8,113.4
			c9.3,8.6,16.6,10.4,27.7,2.7c40.6-28,81.9-55.2,122.8-82.7C1831.5,1038.3,1834.8,1035.1,1839.3,1031.4z M1363.6,834.9
			c44.6,40.7,86.1,78.5,127.5,116.4c6.2,5.7,11.3,8.9,20.1,3.4c44.7-28.2,89.8-55.8,137-85c-34.3-28.6-66.3-55.2-98.2-81.8
			c-21.9-18.3-70.4-24.9-95.3-10.4C1424.7,794.9,1395.8,814.5,1363.6,834.9z M1648.7,1160.5c-49.2-44.8-95.1-86.2-140.4-128.2
			c-9.7-9-17.4-8.7-28-2c-29.2,18.7-58.9,36.5-79.4,49.2c43.3,47.9,87.5,96.5,131.4,145.2c8.1,9,15,4.6,22.6-0.6
			C1585.3,1203.3,1615.7,1182.9,1648.7,1160.5z M1174.8,954.8c-4.3,2.5-9.4,5.2-14.3,8.3c-27,17.1-53.4,35.1-81.1,51
			c-16.5,9.5-13.6,15.7-1.6,26.6c34.4,31.4,68.2,63.4,101.4,96c10.2,10,17.9,11.1,29.9,3.2c27.5-18,55.5-35.4,84.2-51.5
			c15.5-8.7,13.2-14.7,2.1-25.1c-35.4-33.1-70.1-67-105.2-100.5C1186.1,959.1,1182.5,953.9,1174.8,954.8z M1230,1184.5
			c27.2,25.8,52.9,50.2,78.7,74.7c7,6.6,15.8,6.5,24.5,6.5c47.4,0.1,94.8,0.2,142.2-0.1c7,0,15.9,2.6,13-1
			c-45.3-44.9-87.9-92.4-130.3-140.2c-7.5-8.5-14.8-10.2-25-3.8C1299.7,1141.9,1265.9,1162.4,1230,1184.5z M1454.8,980.3
			c-2.3-1.5-7.9-3.9-12.2-7.8c-21.6-19.3-42.9-39-64.4-58.3c-18.7-16.7-35.7-42.9-57-47c-21.8-4.2-42.3,22.7-63.8,35.2
			c-7.5,4.4-14.7,9.3-22.3,13.4c-12.5,6.7-10.4,13.2-1.3,21.7c35.8,33.8,71.4,67.8,106.6,102.4c9.3,9.1,16.7,9.8,27.6,2.6
			c24.1-15.9,49.2-30.5,73.8-45.7C1446.3,993.9,1452.4,992.3,1454.8,980.3z M1193,2143.9c-52.6-38.6-102.5-75.2-157.5-115.5
			c0,68.9,0.1,130.5-0.1,192.1c-0.1,14,4.1,17.8,16.8,9.9C1098,2202.1,1143.9,2174.1,1193,2143.9z M1728.2,1166.5
			c34.7,31.7,66.8,62.4,100.4,91.3c17.7,15.3,42.6,10.5,42.9-6.7c0.9-58.5,0.4-116.9,0.4-181.2
			C1821.2,1104,1775.8,1134.5,1728.2,1166.5z M1079.5,771.5c30.4,34.6,64,72.8,97.7,111.1c7,8,13.7,3.8,20.5-0.5
			c23.7-15,47.5-29.8,70.9-45.2c4.5-3,15.9-6.5,7.2-14.4c-19.9-17.9-35-47-62.2-49.7C1166,768.2,1117.6,771.5,1079.5,771.5z
			 M1732.3,875.9c46.3,38.4,90.5,75.1,138,114.5c0-68.6,0-131.8,0-199C1823,820.4,1778.8,847.5,1732.3,875.9z M1872.1,2065.3
			c-47.7,30.1-91.1,57.4-137.9,86.9c47.8,29.1,91.4,55.7,137.9,84.1C1872.1,2177.4,1872.1,2124.2,1872.1,2065.3z M1035.7,1246
			c36.6-22.5,69.3-42.6,102.1-62.5c6.7-4.1,11.2-8.4,3.6-15.5c-33.9-32-67.9-63.9-105.7-99.5
			C1035.7,1130.3,1035.7,1185.2,1035.7,1246z M1103.4,2256.5c84,0,160.5,0,242.4,0c-35.7-26.3-66.9-49-97.6-72.3
			c-9.1-6.9-16.2-7-25.9-0.9C1184.9,2206.9,1146.9,2229.8,1103.4,2256.5z M1567.2,2257c84.5,0,160.4,0,244.1,0
			c-42.4-26-78.4-48-114.2-70.3c-6.7-4.2-12.3-4-18.8,0.1C1643.4,2209,1608.4,2231,1567.2,2257z M1035.3,984.5
			c35.1-22.1,65.9-41.4,96.7-60.8c5.2-3.3,9.9-7.2,3.5-13.3c-31.9-30.8-64-61.4-100.2-96C1035.3,874.5,1035.3,926.5,1035.3,984.5z
			 M1037,1923.5c35.5-23,66.4-42.7,96.9-62.9c5.2-3.4,17.5-7.9,4.4-16.1c-32.7-20.6-65.8-40.5-101.3-62.1
			C1037,1831.7,1037,1874.8,1037,1923.5z M1870.3,1923.1c0-47.6,0-91,0-137.6c-37.9,23.4-72.6,44.9-109.7,67.8
			C1799,1877.8,1833.6,1899.8,1870.3,1923.1z M1608.8,772.9c28.6,23.9,51.5,43,74.3,62.3c5.7,4.8,11.1,6.9,18.2,2.5
			c32.5-20.3,65.1-40.3,104.6-64.8C1737.1,772.9,1676.8,772.9,1608.8,772.9z M1585.7,1262.4c61.3,0,115.5,0,174.8,0
			c-23.6-21.7-42.8-39.3-61.9-57c-6.8-6.3-12.7-10.9-22.5-4.1C1648,1221,1619.4,1239.8,1585.7,1262.4z M1625.5,1766
			c31.5,20.4,56.2,36.3,80.8,52.4c5.5,3.6,10.6,4,16.1,0.6c26.5-16.5,53-33,85.1-53C1744.7,1766,1689.4,1766,1625.5,1766z
			 M1277.8,1766.1c-60.4,0-112.8,0-172.2,0c30,18.7,54.4,33.7,78.5,49c7.6,4.9,14,4,21.1-0.8
			C1227.3,1799.4,1249.7,1784.7,1277.8,1766.1z M1237.8,1263.6c-15.5-16.2-28.9-29.7-41.7-43.7c-6.3-6.9-12.4-7.7-20.2-2.7
			c-22.3,14.2-44.9,28.1-74.2,46.4C1152,1263.6,1193.5,1263.6,1237.8,1263.6z M1298.9,772.9c28,32.2,28.4,32.2,63.9,0
			C1341.5,772.9,1322.2,772.9,1298.9,772.9z"/>
	</g>
</g>
<g id="Layer_2">
</g>
</svg>
