<?xml version="1.0" encoding="utf-8"?>
<!-- Generator: Adobe Illustrator 23.0.0, SVG Export Plug-In . SVG Version: 6.00 Build 0)  -->
<svg version="1.0" xmlns="http://www.w3.org/2000/svg" xmlns:xlink="http://www.w3.org/1999/xlink" x="0px" y="0px"
	 viewBox="0 0 3000 3000" style="enable-background:new 0 0 3000 3000;" xml:space="preserve">
<style type="text/css">
	.st0{stroke:#000000;stroke-width:10;stroke-miterlimit:10;}
</style>
<g id="Layer_1">
</g>
<g id="Layer_2">
	<g>
		<path class="st0" d="M644.3,2242c-65.3,0.7-122.3,17.3-179.1,33.3c-53,14.9-105.5,31.8-158,48.4c-44.9,14.1-63.2,6.1-79.9-38.4
			c-21.3-56.4-26.5-115.9-30.7-175.1c-19.7-273.5-12.1-547,2.4-820.5c12.9-245.4,110-458,254.9-651.5
			C608.9,431,799,269.2,1047.9,184.5c89.2-30.4,182.5-34.7,274.8-42.7c165.9-14.4,332-26.3,498.3-36c136.1-8,273.4-17,406.8,19.2
			c181.9,49.4,316.6,165.8,430.9,311.8c119.4,152.4,148.7,326.3,140.8,513.2c-10.6,250.7-25.6,501.2-39.9,751.7
			c-6,104.7-16.6,209.1-25.7,313.5c-4,45.9-23.1,87.6-39.5,129.6c-89.6,229.8-220.5,430.9-417,584.2
			c-209.2,163.1-448.3,227.8-711.2,208.4c-157.9-11.6-312.3-44.2-465.8-81.2c-49.5-12-97.4-29.1-142.3-53.2
			c-126.5-67.8-262.3-110.7-399.5-149.7c-7.3-2.1-14.6-3.8-21.8-6.1c-116.4-37.7-142.7-127-66.1-223.1c38-47.6,83-88.2,127-129.8
			C613.3,2279.5,630.6,2266.4,644.3,2242z M343.4,2254c24.8-7.3,44.2-13.1,63.6-18.7c72.6-21.3,145.3-42.8,221.3-47.9
			c27.5-1.9,56.9,0.3,70.6,28.8c12.7,26.5-1.5,49.4-18.8,70.6c-31,38-69.6,67.9-103.9,102.3c-31.4,31.5-63.2,62.6-84.3,102.2
			c-21.4,40.2-12.8,67.6,27.4,88.4c30.8,16,64.2,25.4,97.5,34.8c102,28.9,202.8,61,298.6,107.1c62.1,29.9,122.6,64.5,190.5,80.3
			c156.9,36.6,314,71.3,475.4,81.7c282.5,18.2,528.9-65.9,735.9-260.1c172.9-162.2,285.3-362.2,357.4-586.1
			c11.2-34.8,13.5-71.8,14-117.7c-12.4,19.2-19.3,30-26.3,40.7c-102.9,159.2-225,301.2-371.3,422.5
			c-138.8,115-297.2,168.5-476.9,153.9c-117-9.5-183.5-75.4-190.2-182.6c-4-63.7-9.1-127.3-11.9-191
			c-7.2-160.7,27.7-309.7,127.8-438.9c164.5-212.4,378.6-351.7,635.3-426.9c106.1-31.1,214.2-52,324.6-60.2c17.1-1.3,34-0.3,34.4-27
			c0.9-63.8,4.1-127.6,7.4-191.3c1-18.4-3.6-24-23.2-22c-88.3,9.1-175.6,24.1-262.5,41.4c-153.2,30.5-294.8,84.8-407.3,198.8
			c-6.3,6.4-11.5,16-24.7,15.7c11.2-143.8,49.5-279.5,117-411.2c-83.5,11.8-162,12.4-243.8,5.3c22.4-68.6,44.2-135.5,67.2-206.1
			c-10.8,1.6-16,2-21.1,3.1c-273.3,58.6-543.1,131.9-815.2,195.6c-44,10.3-88,20-133.4,19.6c-45.1-0.4-70.1-33.2-56.1-76.3
			c8-24.5,20.5-47.6,31.8-70.9c24.8-51.3,48-103.1,60.6-163.2c-48.9,7.1-95.1,10-141.5,8c-74.3-3.4-144.5-17.5-194.4-79.8
			c-11.9-14.8-18.8-7-28,1.6C613.5,528.9,563.9,583.3,519.4,642c-118.2,155.4-215.1,321.1-249.6,517.3
			c-18.3,103.8-22.7,208.7-25.4,313.4c-5.9,228.2-13,456.6,11.6,684.2c3.7,33.9,5.7,68.7,20.7,102.7c4-4.8,5.8-6.2,6.7-8.1
			c3.2-6.9,6.2-13.8,8.9-20.8c66.9-168.6,168.7-311,316.1-418.8c12.7-9.3,24.1-26.6,41.2-1.8c13.6,19.9,14.1,29.6-7.2,45
			C503.8,1955.6,405.9,2087.5,343.4,2254z M2714,1540.2c4.5-71.2,9.3-142.5,13.2-213.7c2.1-39.1,1.4-39.5-38.4-34.8
			c-27.9,3.3-55.7,7.5-83.4,11.6c-269.6,39.6-512.1,137.4-711.1,329.6c-104.6,101-191,212.8-217.1,360.3
			c-21.5,121.7-10.7,244,2.1,365.5c8,75.6,40.8,109.1,117.5,120.3c156.2,22.8,298.8-15.6,424.2-110.9
			c198.8-151,349.7-342.8,468.8-560.8c6.9-12.6,10.1-26,10.9-40.3C2705.1,1691.4,2709.6,1615.8,2714,1540.2z M2047.6,796.8
			c216.5-8,417.3-104.6,596.6-253.9c13.1-10.9,8.5-18.9,1.2-29.8c-92.1-137.8-208.8-247-362.5-313.9c-21.4-9.3-33.9-10.5-44.5,14.8
			c-9.6,22.9-19.8,45.1-26.3,69.2c-27.5,101.7-56.4,204.9-133.1,280.9c-40,39.7-60.5,84.1-76.1,134.4c-4.8,15.4-9.9,30.8-14.9,46.1
			C1970.8,797,1970.8,797,2047.6,796.8z M1229.7,475.6c96.7,39,193.2,52.9,292.3,38.1c114.2-17,226.4-44.7,339.5-67.3
			c150-30.1,253.6-117.5,325.5-248.6c11.3-20.7,7.6-27.6-15.2-30.6c-51.4-6.8-102.9-12.2-154.8-13c-144-2.2-287.1,13.4-430.6,20.8
			c-18.7,1-28.9,10.6-39.1,24.1c-47.2,62.3-101,118.2-161.2,168.2C1338,407.2,1286,441.6,1229.7,475.6z M2097.1,1125.9
			c112.5-84.4,238.7-117.7,367.1-144.4c84.6-17.7,170.2-30.1,256.1-39.6c13.5-1.5,25-2.9,24.6-21.7c-2.4-105.8,1.4-212.2-46-311.6
			c-11.3-23.8-19.3-26.4-40.4-8.8c-126.3,105.1-267.7,181.9-427.5,223.3c-9.4,2.4-18.7,4.2-24.4,13.8
			C2154.9,924.9,2119.1,1019,2097.1,1125.9z M2122,377.5c-55.3,48.2-116.7,85.1-188,104.8c-87.5,24.2-177,39.6-265.1,60.8
			c-167.2,40.2-331.5,44.8-491.7-29.3c-20.8-9.6-82.4,13.7-87.2,32.3c-21.6,84.2-54.8,163.6-95.7,240c-10,18.6-0.6,22.1,15.5,19.3
			c35.1-5.9,70.6-10.4,105.2-18.6c271.9-64.3,541.7-137.2,815-195.5c43.1-9.2,79.4-27.5,108.4-60.2
			C2077.4,487.1,2104.5,436,2122,377.5z M1489.8,183.3c-121.3,11.3-233.9,13.6-344.6,33.2c-139,24.7-260,90.8-372.4,173.8
			c-54.9,40.6-54.5,51.4,5.2,86.6c11,6.5,23.3,11.7,35.7,14.4c50.9,11,102.3,14.4,154.5,10.3c128.6-10.3,237.7-67,339.1-141.6
			C1373.4,311.4,1433.8,256.5,1489.8,183.3z"/>
		<path class="st0" d="M934.5,2293.2c4.7-120.4,101.8-265.7,276.1-234.7c75.4,13.4,141.4,46.8,193.5,103.9
			c48,52.7,46.8,101.1-8.8,144.7c-72.2,56.5-145.6,113.3-242.3,122.1c-48,4.4-94.7-1.8-139.2-20.7
			C960.1,2385.9,933.9,2345,934.5,2293.2z"/>
		<path class="st0" d="M868.5,1228.8c58.3,0,116.8-3.4,174.8,0.8c77.1,5.7,146.9,41,219.7,63.7c78.6,24.5,157.2,48.5,240.8,43.4
			c26.2-1.6,19.1,17,21.8,30c3.1,14.7,0.8,25.1-18.2,25.4c-96.5,1.6-186.4,33.5-276.9,61.9c-157.3,49.3-297.8-10.4-369.8-158.9
			c-7.6-15.8-16.8-19.6-32.2-19.8c-37.8-0.7-75.7-3.8-113.5-3.4c-22.9,0.2-19.4-13.6-19.8-27.6c-0.4-15.1-0.9-27.1,21-26.5
			c50.8,1.4,101.6,0.4,152.4,0.4C868.5,1221.8,868.5,1225.3,868.5,1228.8z M1318.2,1368.6c-72.9-24.1-136.8-43.6-199.4-66.5
			c-60.4-22-122.8-22.8-185.5-24.6c-19.4-0.5-19.6,6.3-11.2,20.5c32.3,54.6,78.7,90.6,139.3,109.4
			C1150.1,1434.8,1228.3,1396.2,1318.2,1368.6z"/>
		<path class="st0" d="M1124.3,1613.2c79.5-0.1,131.1,25.2,170.1,74.6c31.5,39.8,28.1,89.7-5.8,127.3
			c-55,60.9-151.6,82.9-228.8,53.7c-29-11-47-29.6-52.4-59.9c-5.2-29.7-8.2-59.8-14.9-89.2c-7.4-32.8,7.4-54.1,31.8-71.6
			C1058.8,1623.2,1097.6,1612.5,1124.3,1613.2z"/>
		<path class="st0" d="M1955.2,2045.7c5-139.6,62.6-250,186.7-318.9c69.3-38.5,142-70.9,212.8-106.8c13.8-7,23.7-5.9,26.8,9
			c2.6,12.2,28.8,25.9,0.1,38.1c-16.3,7-14.9,22-17.3,35.6c-21.4,120.3-47.3,238.3-115.9,343.5c-57.1,87.6-137.3,112.9-234.7,100
			c-52.8-7-54.5-10.5-58.4-64.8C1954.5,2069.5,1955.2,2057.6,1955.2,2045.7z M2308.6,1703c-63.8,34.1-127.1,55.4-179.3,96
			c-86.3,67.1-124,158.2-121.5,266.7c0.3,13.8,2.4,26.2,19.8,28.1c57.4,6.3,112.3-0.7,151.5-47
			C2261.3,1949.8,2285.9,1830.3,2308.6,1703z"/>
	</g>
</g>
</svg>
