<?xml version="1.0" encoding="utf-8"?>
<!-- Generator: Adobe Illustrator 23.0.0, SVG Export Plug-In . SVG Version: 6.00 Build 0)  -->
<svg version="1.0" xmlns="http://www.w3.org/2000/svg" xmlns:xlink="http://www.w3.org/1999/xlink" x="0px" y="0px"
	 viewBox="0 0 3000 3000" style="enable-background:new 0 0 3000 3000;" xml:space="preserve">
<style type="text/css">
	.st0{stroke:#000000;stroke-width:10;stroke-miterlimit:10;}
</style>
<g id="Layer_1">
</g>
<g id="Layer_2">
	<g>
		<path class="st0" d="M1821.4,748.1c51-57.3,108.7-96.1,179.8-111.5c192.3-41.6,354.2,72.3,386.6,270.5
			c7.9,48.8,7.7,97.6,3.5,149.6c55.7-12.6,110-18.1,165.7-11c151,19.2,293.1,174.1,299.5,326c2.6,61.6,5.1,123,5.5,184.7
			c0.4,65.5-19.3,121.1-75.1,162.7c25.9,18.3,50.5,35.8,72.8,56.4c105.8,98.1,140.8,238.6,89.4,360
			c-55.9,131.8-184.9,213.9-327.9,204.9c-90.9-5.7-159.8-51.5-207.4-128.5c-10.1-16.3-15.1-22.4-31.1-4.6
			c-47,52.1-110.6,75.3-176,93.3c-132.5,36.4-268.6,48.7-405.1,57.4c-211.6,13.5-423.4,17.3-635.1,5.3
			c-140.3-8-280.3-20.5-414.3-68.4c-60.2-21.5-112.9-54.2-152.1-105.4c-14.2-18.5-22.5-16.1-37-0.9c-32.8,34.3-71.1,61.7-113.1,84
			c-91.6,48.5-180.5,36.5-253.9-36.1c-80.5-79.5-119.8-180-141.9-288.2c-14.2-69.4-16.9-139.2-1.7-209.2
			c20.7-95.5,72.6-161.8,171.4-187.5c-4.2-13.4-15.9-19.4-24.1-28.1C85.1,1401.6,50.7,1258.9,94.7,1099.1
			C124.1,992.5,216.6,924.5,327.4,919c69.6-3.5,136,9.7,198.8,38.5c23,10.5,26,5.4,26.7-17.4c2-72.9,18.6-142.7,48.8-209.4
			c37.3-82.6,98.9-129,190.6-136.6c55-4.6,109.6-5.9,164.2,1.8c69.8,10,127.2,42.4,169.7,99.3c12.5,16.8,23.2,35,36.4,55.1
			c30-40.2,62.7-76.4,101.6-106.4c99.5-76.8,212.1-109.9,335.9-87.3C1707.1,576,1781.1,640.7,1821.4,748.1z M1407.4,2321.8
			c240.1-3,404.6-8.1,568.3-27.5c91.7-10.9,182.6-26,270.3-56.8c74.9-26.3,125.2-76.1,154.7-148.9c32.1-79.1,31.3-161,26.1-244.3
			c-2.7-42-22.8-63.4-57.9-82.8c-195.2-108.1-419.9-57.4-545.3,126.6c-15.2,22.3-20.3,18.7-34.7-0.4
			c-82.8-109.7-190.8-170.7-331.3-165.5c-99,3.7-180.8,47.5-254.7,109.6c-16.1,13.6-32.1,27.4-47.5,41.8c-12.2,11.4-20,8.5-30-3.8
			c-23.1-28.4-49.7-53.8-79.1-75.7c-166-123-365.5-108.6-534.6,0.3c-11.5,7.4-14.6,15.9-13.2,28.7c3.6,33.5,8.9,66.7,17.1,99.4
			c13.5,53.5,34.7,103.7,60.3,152.5c66.1,126.2,176.6,183.8,311.4,208.1C1084.6,2318.5,1283.5,2321.9,1407.4,2321.8z M1427.1,1058.8
			c-1.8,9.4,4,16.5,7.5,24.2c93.9,207.3,188.3,414.3,281.8,621.8c17.9,39.6,36.5,77.1,70.8,106.5c16.4,14.1,21.6,15.6,36.4-1.2
			c129.9-146.7,325.5-191.6,507.3-117.9c22.3,9,44.2,18.8,68.2,29.1C2291,1347.4,1797.5,1074.4,1427.1,1058.8z M497.4,1741.6
			c16.2-1.8,26.7-10.8,38.4-17c204-109.6,424-82.2,591.2,76c18.5,17.5,25.5,12.6,40-1c30.3-28.3,63.6-53.4,101.1-71.3
			c18.8-9,22.1-16.3,13.1-36.2c-86.9-190.4-173-381.2-258.1-572.4c-9.6-21.5-19.3-22.7-39-14.9c-225.5,89-377.9,248.6-459.9,475.8
			C505.6,1631.8,496.2,1685.6,497.4,1741.6z M2210.4,1344.4c3.1,3.9,5.7,7.9,9,11.2c112.6,109,199.2,233.9,237.2,388.4
			c4,16.2,13.6,15.6,25.7,14.9c89.5-4.7,174.2-28.1,254.8-66.4c42.7-20.3,68.7-54.2,73.9-102.7c7.6-71.2,2.5-142.4-3.1-213.1
			c-16.1-202.3-216.7-334.2-409-271c-11.6,3.8-21.4,8.5-26.1,23C2343.9,1218.8,2287.8,1289.2,2210.4,1344.4z M2347.6,982.8
			c-1.6-15.4-2.4-38.6-6.6-61.2c-13.1-71-34.2-138.5-93.9-186c-126.8-101-320.2-68.1-407.3,68.6c-6.9,10.8-7,21.3-6.7,32.8
			c2.4,79.9,1.3,159.7-12.4,238.7c-3.5,19.9,1.1,28,19.9,35.9c111.6,46.4,215.3,106.8,308.4,183.9c20,16.6,31.1,12.4,48-0.7
			C2296.5,1217.5,2344.4,1115.2,2347.6,982.8z M123.9,1210.9c3.7,132.8,49.8,240,155.6,317.8c13.8,10.1,27.5,15.7,44.7,16.8
			c43.3,2.6,86.1,9.2,127.2,23.4c17.9,6.2,24.9,2.8,31.1-15.4c42.7-123.2,113.4-228.7,207.9-318c14.8-14,15.8-24.6,7.2-41.8
			c-58.9-118-149.1-196.2-280.8-220.8c-70.8-13.2-140-10.7-201.6,34C144.1,1058.4,128,1134.2,123.9,1210.9z M1326.8,1000
			c144.3,4.6,284.8,28.7,421.1,75.8c19.3,6.7,25.2,3,27.2-16.5c8.6-82.3,15.9-164.6,7.1-247.5c-12-112.3-91.2-195.1-203.1-210.6
			c-148.3-20.6-314.9,63-387.8,194.2c-5.1,9.1-7.4,17.6-4.6,27.3c15.5,53,19.4,107.7,22.5,162.4c0.9,15.8,5.8,21.9,22.5,20.4
			C1263.4,1002.7,1295.2,1001.8,1326.8,1000z M317.4,1593.3c-128.4-4.5-195.5,48-219.5,162.5c-9.3,44.7-9.5,89.9-3.9,135
			c13.5,108.8,47,210.1,119.6,294.6c43.8,51,97.3,82.4,167.9,62.5c66-18.6,116.4-61.8,164-108.8c8.5-8.4,4-15.1-0.6-22.9
			c-86.7-147.6-116.1-305.7-86-474.4c2.9-16.2-1.7-22.1-16.4-26.2C397.9,1603.1,352.9,1593.7,317.4,1593.3z M601.2,943
			c-0.9,52.7-1,52.8,37.4,88.6c40.6,37.9,73.1,81.9,97,131.7c8.9,18.7,15.2,18.9,30.5,6.9c57.9-45.4,122-80.3,190.8-106.3
			c58.6-22.2,118.5-39.4,180.6-48.4c10.3-1.5,27.1,2.6,25.3-18.5c-6.3-73.8-10-148.1-41.6-216.9c-33.8-73.6-87-124.1-169.9-136.4
			c-57.5-8.5-115.2-6.3-172.7,0.6c-58.3,7-98.8,39.2-125.1,90.8C620.3,800.5,602.7,869.7,601.2,943z M2925.1,2020.4
			c0.8-101-77.3-217.4-179.3-267.1c-10.8-5.3-20-1-30.2,2.5c-72.7,25-146.2,47.4-223.7,51.2c-17.5,0.9-21.5,4.8-19.2,23.8
			c12.4,100.5,9.1,199.6-35.4,293.4c-6.2,13-3.5,23.3,2.3,35.2c49.7,102.6,137.4,148.1,250.2,129.2
			C2820.7,2266.8,2924.5,2148.4,2925.1,2020.4z M1663,1716c4.5-8.4-0.4-13-2.6-17.8c-85-187.8-169.6-375.8-255.9-563
			c-13.2-28.6-14.8-70.2-46.2-81.3c-29-10.3-64.6-2.2-97.2-2.1c-2.8,0-5.6,1.1-8.3,1.6c-0.2,2.1-1.1,4.2-0.5,5.8
			c80.5,200.1,161.1,400.2,241.8,600.2c2.9,7.1,6.3,14.3,15.7,14.9C1563.7,1677.9,1614.2,1694.8,1663,1716z M1182.8,1056.6
			c-36.8,6.9-73.5,14-110.3,20.8c-14.5,2.7-11.7,10.5-7.3,20.4c87.2,193.2,174.4,386.4,261.1,579.8c7,15.6,14.9,18.2,31,13.1
			c21.8-6.9,44.8-12,67.5-13.8c19.8-1.6,21.7-7.2,14.8-24.3c-78.3-192.7-156.2-385.7-233.9-578.7
			C1201.4,1062.9,1196.7,1054.6,1182.8,1056.6z"/>
	</g>
</g>
</svg>
