<?xml version="1.0" encoding="utf-8"?>
<!-- Generator: Adobe Illustrator 23.0.0, SVG Export Plug-In . SVG Version: 6.00 Build 0)  -->
<svg version="1.0" xmlns="http://www.w3.org/2000/svg" xmlns:xlink="http://www.w3.org/1999/xlink" x="0px" y="0px"
	 viewBox="0 0 3000 3000" style="enable-background:new 0 0 3000 3000;" xml:space="preserve">
<style type="text/css">
	.st0{stroke:#000000;stroke-width:10;stroke-miterlimit:10;}
</style>
<g id="Layer_1">
</g>
<g id="Layer_2">
	<g>
		<path class="st0" d="M2545.8,1576.9c11.9,257.2-5.4,512.7-45.8,766.9c-17.2,108.1-29.5,216.7-63,321.6
			c-56.5,177.2-180.9,266.6-362.1,286c-145.7,15.6-289.9-0.7-433.3-21.1c-252.9-35.9-505.5-73.9-755.4-127.6
			c-98.7-21.2-195.6-48.4-290.5-83.5c-187.2-69.2-272-209.6-283.4-401.8c-6.7-113.1,9.5-225,21.2-337.1
			c23.8-229.9,77.9-452.3,163.1-667c6.8-17.2,1.6-23.8-12.9-32.4c-22.9-13.7-43.7-31-65.7-46.4c-144.1-100.6-89.8-317.7,34.4-386.3
			c23.2-12.8,24.8-24.9,20.3-47.5c-19.7-98.7-2.2-192.6,45.5-280.1c40.3-74.1,104.6-112.6,189.7-110.7c23.7,0.5,28.3-7.3,28.5-28.7
			c0.6-82.3,33-152.5,87.9-212.1c60.9-66.1,136.2-90.5,224.8-70.6c3.1,0.7,6.2,1.8,9.4,2.1c87.1,8.2,141.3,52.7,162.3,139.6
			c9.6,39.9,13.5,38.7,50,21.6c219.9-103,450-155.1,693.6-134.6c129,10.9,250.9,44.3,359.2,119.8c66.6,46.4,109.3,107.1,130,185.4
			c29.9,112.7,40.2,228.2,50.3,343.6c17.7,203.2,35.4,406.5,41.7,610.5C2547.5,1450.1,2545.8,1513.5,2545.8,1576.9z M2047.3,2899.9
			c159.3-13.4,280-74.8,335.2-242.6c49.4-150.3,59-307.3,83.6-461.8c3.5-22.1-11.5-17.8-23.7-18.4c-79.4-3.7-158.9-6.3-238.2-11.7
			c-22-1.5-30.1,4.7-33.7,25.5c-40.4,230.1-88.8,458.6-139.9,686.5C2026,2898.1,2030.9,2903.2,2047.3,2899.9z M639.2,1797.7
			c-1.7,1.9-2.8,2.6-2.9,3.4c-45.6,260.5-91,521.1-136.8,781.6c-3.1,17.4,2.6,27.7,17.4,36.8c54.3,33.4,113.1,56,173.1,76.3
			c18,6.1,19.1-3.3,22.4-16.1c65.3-258.7,103.3-521.4,119.7-787.5c0.7-12.2-1.3-19.9-14-24.8
			C758.1,1844.6,698.5,1820.9,639.2,1797.7z M1679,2877.3c4.2,2,6.7,4.1,9.6,4.5c87.2,13.2,175,18.4,263.1,22.1
			c17.9,0.8,20.9-9.8,23.7-23.6c9.4-45.2,19.1-90.3,29.3-135.2c41.9-184.1,76.6-369.7,112.5-555.1c4.5-23.2,0.8-31.5-25.3-32.9
			c-52.5-2.7-104.9-8.3-156.9-16.3c-28.2-4.3-36.3,1.3-37.3,31.2c-7.8,221.5-65.6,429.6-172.2,624.1
			C1710.7,2823.2,1694.8,2849.8,1679,2877.3z M887.8,1894.9c-1.4,9.2-3.4,17.5-3.9,25.8c-7.2,126.5-21.6,252.2-40.2,377.4
			c-19.5,131.4-44.9,261.8-78.7,390.3c-5.6,21.5,0.2,31,21.4,35.5c42.9,9.2,85.7,18.9,128,30.5c18.5,5.1,24.6-0.9,28.8-17.7
			c62.6-248.7,113.6-499.8,153.7-753.1c2.3-14.2-1-21.2-15.5-25.8C1017.2,1937.8,953.2,1916.4,887.8,1894.9z M1316.3,2130.5
			c0-25.8-0.6-51.6,0.2-77.3c0.7-21.5-7.4-32.7-29.8-37.2c-32.5-6.5-64.3-16.7-96.4-25.6c-39.7-11-39.8-11.1-45.8,30.7
			c-17.4,120.9-40.5,240.8-64.9,360.4c-24.5,119.7-50.1,239.1-82.7,356.9c-7.6,27.6,1.1,35.2,26.3,38.4c32.9,4.2,65.9,9.9,98.1,17.9
			c24.6,6.1,36.1-2.2,46.8-24.2C1266.1,2568.3,1315.5,2355,1316.3,2130.5z M1209.3,2808.8c58.1,9.4,112.3,16.8,165.9,27.3
			c20.7,4.1,28.2-3.5,36.1-20.3c105.2-224.3,163.7-460,174.1-707.6c0.8-18-5.2-24.3-22.1-27.6c-51.6-10.1-102.9-21.6-154.1-33.1
			c-39.8-8.9-40.2-9.2-38.9,32.8c5.8,185.3-21.9,365.3-82.6,540.6C1265.9,2683.8,1239.6,2744.6,1209.3,2808.8z M1845.3,2167.4
			c2-37,1.9-36.5-35.5-42.5c-46.6-7.4-93.2-14.7-139.4-24.2c-23.3-4.8-31.2,0.1-32.2,25.3c-3.9,96.5-16.3,192.1-35.9,286.7
			c-29.7,143.1-74.5,281.2-136.9,413.4c-8.8,18.7-4.3,24.4,14,26.7c35.1,4.5,70.6,7.4,104.9,15.4c25.7,6,38-2.5,51.1-23.6
			C1764.5,2637.2,1835.2,2411.8,1845.3,2167.4z M896.7,636.8c-11.7,3.3-14.3,13.5-18.8,21.5C817.3,764.3,762.3,873.3,707,982
			c-9,17.7-2.3,26.9,8.8,38.3c72.2,74.2,157.1,128.5,254,164.8c17.9,6.7,25.7,3.3,34.6-13.5c52.5-98.6,112.7-192.3,181.3-280.5
			c11.5-14.8,10.9-21.3-6.6-30.1c-104.4-53.1-194.9-124.4-271.8-212.7C903.8,644.3,900.1,640.5,896.7,636.8z M2459.7,897.8
			c-3.3-40.2-6.9-76.5-9.1-113c-1.1-18.4-7.6-28.1-27.3-32.2c-95.8-19.8-189.1-48.6-279.9-85c-16.8-6.7-29.1-6.8-44.1,4.6
			c-72.9,55.2-141.4,115.4-208,178c-17,16-18.1,22.8,4.3,34.8c123.3,65.7,249.5,124.6,380,174.6c16.4,6.3,26.7,4.3,39.6-7.8
			c40.8-38.1,82.4-75.5,125.3-111.2C2456.4,927.3,2464.4,914.2,2459.7,897.8z M1556.9,1167.6c-137.7-26-252.4-87-345.8-186.3
			c-13.7-14.6-19.2-9.7-28.2,3.2c-62.6,88.7-117,182.3-166.6,278.8c-5.4,10.5-7.8,18.1,3.9,27.1c107.5,83.4,227.9,135.3,363.3,152.4
			c16.3,2.1,22.9-4.7,29.1-17.6c15.4-31.9,30.7-63.8,48.2-94.6C1491.4,1276.8,1523.6,1223.9,1556.9,1167.6z M1783.8,883
			c-109.4-65.7-213.6-135.4-312.9-212.2c-11.2-8.7-17.3-1.8-24.4,5.1c-73.9,72.1-142.2,149.2-205.7,230.6c-7.5,9.6-10.5,17-0.8,27.6
			c91.1,99.4,202.4,160.6,335.9,181.2c12.2,1.9,20.2-0.9,27.4-11C1657.9,1027.2,1718.4,954.9,1783.8,883z M2254.9,1109.3
			c-143.5-55.5-278.7-118.2-408.9-191.1c-12.9-7.2-19.2-2.3-27.1,6.3c-49.4,53.8-95.9,110-140.6,167.8c-10.1,13-8.6,21.8,0.7,33.5
			c98.7,125.6,227.6,184.8,387.3,176.7c12.2-0.6,22.3-3.2,30.7-13.9C2145.5,1227.1,2197.7,1168.8,2254.9,1109.3z M1787.5,406.5
			c98.6,73.9,202.3,133.3,311.2,183.9c14.8,6.9,24.3-1.7,34.8-9c65.9-46.3,135-87.1,204.5-127.6c18.6-10.8,53.9-9.1,51.2-41.4
			c-2-23.9-16.8-46.1-33.1-65.1c-7.6-8.9-16.2-17.1-25-25c-46.1-41.3-98.9-71.1-156.1-94.2c-19.3-7.8-35.4-8.2-54.5,0.3
			c-58.9,25.9-117,53.3-173.8,83.4C1892.8,340.3,1839.9,370.5,1787.5,406.5z M790.7,1519c12.9,0,25.8-0.4,38.6,0.1
			c16.5,0.6,24.8-7.6,30-22.9c27.7-80.1,59.9-158.4,98.1-234c8.7-17.2,5-23.6-12.3-29.8c-97.2-35.2-182.4-89.9-255.7-162.7
			c-12.4-12.3-18.2-13.5-26.7,3.8c-51.6,104.8-100.5,210.8-139.9,321c-7,19.6-1.7,29.4,13.1,40C612.2,1489,696.7,1518.5,790.7,1519z
			 M2038.1,1361.2c-5.2-1.3-8.1-2.6-11-2.7c-154.3-6.7-282.5-66.7-380.3-187.6c-13.9-17.1-19.1-8.3-27.2,3.8
			c-45.9,67.6-87.1,137.8-127.3,208.9c-17,30-16,46.5,13.7,69.5c124.4,96.4,259.6,121.3,409,73.5c12-3.8,20.7-9.7,27.5-20.2
			C1973.5,1458.7,2004.9,1411.4,2038.1,1361.2z M2479.8,1540.8c-5.9-2.8-7.8-4.5-9.6-4.5c-142.4,4.2-279.9-19.7-411.5-74.3
			c-18.1-7.5-24.2,0.2-32.6,13c-49.7,75.2-94.8,153.1-137,232.7c-10.7,20.2-5,26.6,13.3,33.7c108.1,41.8,219.3,57.5,334.6,42.4
			c11.5-1.5,20-5.5,26.4-15.4C2320.9,1680.4,2392.1,1605.2,2479.8,1540.8z M1415.1,628.7c-5.2-4.8-9-8.6-13-11.9
			c-81.2-68.5-161-138.6-235.5-214.5c-8.8-8.9-15.4-11.8-27.1-3.9c-74.4,49.9-141.8,107.6-200.9,174.9c-10,11.4-8,18.9,1.2,29.9
			c77,91.8,169.5,163.5,276.4,217.1c12.2,6.1,20.1,6.2,29.9-5.7c49.1-59.7,101.5-116.6,156.4-171
			C1406.9,639.2,1410.5,634.1,1415.1,628.7z M2062.3,632.5c-112.2-52.3-214.2-113.2-309.7-184.8c-12.1-9.1-20.3-6.1-31.1,1.4
			c-71.4,49.8-139,104.3-204.7,161.3c-12.4,10.8-15.1,17.2,0.3,28.7c92.8,69.4,188.8,134,288.1,193.8c11.2,6.8,18.9,9,30.2-2.2
			C1905.4,761,1979.4,695.8,2062.3,632.5z M1449.2,1474c-39.2,83.1-71.4,164.7-99.2,248.1c-5,15.1-3.1,22.6,12.4,29.1
			c125.3,51.7,255.4,78.8,391.2,77.9c9.3-0.1,19,1.8,24.2-10.3c32.8-76.7,71-150.8,113-227.9
			C1722.4,1625.6,1576.5,1589.1,1449.2,1474z M449.9,2556.4c9.7-56.6,17.6-104.1,25.9-151.4c35.2-202.5,70.4-405.1,106-607.6
			c3.1-17.6-1.5-26.9-19-33.9c-34.8-13.8-69.3-29.2-102.4-46.6c-21.7-11.4-29.2-10.7-34.7,16.2c-27.4,133.7-40.5,269.3-54.7,404.7
			c-9.1,86.6-12.4,173.5,5.9,259.6C388.6,2453.3,409.4,2504.8,449.9,2556.4z M2219.5,1840.8c-125,7.6-240.8-7.2-350.8-55.9
			c-12.3-5.5-17.2,0.3-21.7,10.4c-35.9,80.1-67.7,161.9-95.5,245.2c-5,14.8-1.2,20.2,14.6,22.9c114.1,19.4,229.1,31.6,344.3,42.6
			c11.3,1.1,21.3,1.3,23.9-13.7C2149.1,2006.4,2178.6,1925.2,2219.5,1840.8z M2493.2,1386.7c-0.3,0-0.6,0-0.9,0
			c-2.8-57.8-6.3-115.6-8.1-173.5c-0.6-20-6.9-30.3-27.4-35.9c-40.2-11-80.2-23.8-119-39c-20.8-8.1-33.1-3.2-47.5,11.7
			c-73,75.7-140.6,156-204.6,239.4c-13.8,17.9-9.3,23.1,9.6,30.1c110.4,41.4,224.2,63.8,342.3,62.9c58.4-0.4,58.3-0.4,55.7-57.2
			C2492.7,1412.5,2493.2,1399.6,2493.2,1386.7z M984.2,1330.5c-33.6,73.1-60.8,144-86.2,215.6c-4.5,12.6-1.4,19.4,9,26.6
			c114.3,78.2,240.9,114.6,379,113.5c13.6-0.1,21-4.9,26-18.3c19.1-51.2,39.1-102.1,59.6-152.8c5.4-13.3,4.5-18.7-11.3-21.1
			C1221.8,1473.3,1097.4,1419.2,984.2,1330.5z M518.3,723.8c-1.1,23.9,3.6,47.1,7,70.4c2.4,16.6,9,23.3,27.4,21.3
			c47.3-5.2,92.4,5.6,132.2,30.9c21.2,13.5,27.7,6.2,37-12.5c39.3-78.5,80.1-156.4,126.9-230.8c32.7-51.9,32.9-55.4-16.1-95.3
			c-5.8-4.7-11.9-9.2-18.1-13.4c-85.3-57-198.3-36.3-245.8,45.5C536.1,596.7,520,658.3,518.3,723.8z M1201.5,360.3
			c77.4,81.2,160.2,152.3,243.7,222.6c9.8,8.2,15.7,6.2,24.1-1.4c66.1-59.8,135.6-115.5,208.5-166.8c13.5-9.5,13.6-14.2,1-25.3
			c-54-47.4-107.8-95.3-156.5-148.3c-7-7.6-14-12.7-25.1-9.2C1394.8,263.7,1295.8,303.6,1201.5,360.3z M992.6,146.2
			c-14,0.4-27.5,1.7-41.3,4.7c-83.5,18.4-172.6,137.1-162,258.5c1.2,14,10.3,17.1,20.1,21.3c35.2,14.9,66,37.1,89.1,66.8
			c15.9,20.5,23.8,14.5,38-0.4c52-54.4,111.6-99.8,172.5-144c25-18.2,70.6-22,70.2-59.4c-0.3-31.1-20.7-62.1-32.6-92.9
			c-6.2-16.1-18.9-25.8-34.9-30.9C1072.9,157.6,1033.6,147.5,992.6,146.2z M2331.7,2120.6c0,0.5,0,1.1,0.1,1.6
			c23.6,0,47.2-0.8,70.8,0.1c70.7,2.7,71.4,3,79.3-65.8c9.7-84.2,13.2-168.9,15.7-253.6c0.4-14.6,0.8-24.9-19.9-18.3
			c-44.3,14-86.7,6.8-124.6-19.6c-14.7-10.3-20-3.4-27.5,7.2c-67.9,95.8-112.3,201.8-136.5,316.5c-3.9,18.6,2,24.3,20.7,24.8
			C2250.4,2114.7,2291.1,2118.1,2331.7,2120.6z M874.3,1616.4c-15.5,61.5-29.8,119.5-44.8,177.3c-3.7,14.4,1.2,21.2,14.6,26.3
			c122.2,46.3,246.3,86.6,372.1,122.3c15.9,4.5,20.5-0.4,24-14.8c13.3-55.1,27.2-110.2,42-165c4.1-15.2,5.7-23.5-14.9-23.4
			C1126,1739.2,997.4,1697.2,874.3,1616.4z M1675.9,2049.6c12.1,1.5,17.8-4.1,21.6-15c15.3-44.6,30.4-89.2,47.2-133.2
			c7-18.5-1.6-19-15.6-19.4c-28.9-0.8-57.9-1.9-86.7-4.6c-100.9-9.5-198.1-34.5-291.6-73.5c-16.4-6.8-24-7.6-28.3,12.8
			c-8.4,39.8-19,79.1-30,118.3c-6.2,22.1,2.7,30.1,23.1,34.4c34.6,7.3,68.5,17.5,103,25.1
			C1504.3,2013.2,1590.1,2031.3,1675.9,2049.6z M386,1061.6c0.8,73.2,59.4,149.5,127.1,174.5c15.5,5.7,15.5-4.4,19.3-12.4
			c47.2-98.6,94.1-197.5,142-295.8c7.6-15.5,7.9-22.7-9.1-32.3c-59.9-33.7-120.3-39.5-180.7-4.9C417,929.6,389.4,992.4,386,1061.6z
			 M830.2,1572.9c-37.4-0.6-72.7,1.2-107.7-4.3c-75.3-11.8-144.1-39.6-206.9-82.9c-8.4-5.8-18.5-19-24.8,3.5
			c-13.5,48.4-28.3,96.5-42.4,144.8c-3,10.4-0.9,17.9,10.3,23.3c98.6,47.1,199,90.1,300.7,130.1c9.4,3.7,15.3,4.8,18.5-7.8
			C794.8,1711.2,812.4,1643.1,830.2,1572.9z M1570.6,212.6c51,55.7,103.6,101.2,155.7,147.3c14.6,12.9,24.6,5.3,36.5-2.4
			c86.6-56,176.7-105.4,270.3-148.8c6.5-3,18-2.6,17.5-16C1890.8,164.7,1732.7,174.3,1570.6,212.6z M2171.6,620.7
			c85.7,34.7,169.9,58.3,255.1,78.6c16.5,3.9,13.8-7.5,13.1-17.2c-4.2-62.2-15.1-123.5-26.3-184.8c-2.6-14.1-7.6-18.3-21.5-10.8
			C2317.7,526.9,2244.7,569.3,2171.6,620.7z M2497.8,1595.8c-36.7,27-66.4,52.6-92.9,81.5c-10.2,11.1-31.6,20.3-25.8,36.4
			c7,19.3,30.9,20.2,49.6,24.1c11.8,2.5,23-2.1,34.5-4.8c25.5-6,37.8-18.9,35.1-47.1C2495.7,1658.3,2497.8,1630.3,2497.8,1595.8z
			 M2467.2,986c-40.7,36.5-74.9,67.2-113.5,101.9c40.8,13.3,74.4,23.7,107.7,35.2c13.8,4.7,17.2,0.1,16.1-12.9
			C2474.2,1072,2471.1,1033.7,2467.2,986z"/>
	</g>
</g>
</svg>
