<?xml version="1.0" encoding="utf-8"?>
<!-- Generator: Adobe Illustrator 23.0.0, SVG Export Plug-In . SVG Version: 6.00 Build 0)  -->
<svg version="1.0" xmlns="http://www.w3.org/2000/svg" xmlns:xlink="http://www.w3.org/1999/xlink" x="0px" y="0px"
	 viewBox="0 0 3000 3000" style="enable-background:new 0 0 3000 3000;" xml:space="preserve">
<style type="text/css">
	.st0{stroke:#000000;stroke-width:10;stroke-miterlimit:10;}
</style>
<g id="Layer_1">
</g>
<g id="Layer_2">
	<g>
		<path class="st0" d="M2715,840.7c-4.7,159.7-10.9,319.4-21.4,478.8c-2.4,37.3-0.9,73,12,109.8c28.1,80.1,34.2,164.8,37.5,248.9
			c7.8,199.3,17.1,398.5,14.1,598c-1,69.9-5.3,139.6-18.2,208.4c-21.4,114-89.2,197.3-182.1,259.9
			c-136.5,92-289.9,142.2-451.6,166.8c-163.7,24.9-328.5,25.8-493.3,12.8c-81.8-6.5-162.1-23.7-243.1-36
			c-135.3-20.6-271-20.4-407-8.5c-102.7,9-202.6,35.1-304.1,51.1c-34.8,5.5-70.2,7.7-104.4-5.2c-70.1-26.5-99.9-83.4-112.1-152
			c-14.8-83.7-2.3-166.4,14.5-248.5c33.4-163.6,92.7-318.8,156.2-472.4c6.4-15.5,3.8-23.1-8.8-33.5
			c-62.5-51.1-112-111.6-133.9-191.3c-11.6-42.4-9.9-85.7-6.5-128.8c9-114.7,18.8-229.5,51.8-340.6c12.2-40.9,27.3-80.6,54.2-114.3
			c9.1-11.3,2.7-15.4-4.8-21.9c-83.8-73-141.1-163-168.7-270.6c-19.7-76.6-22.5-155-18-233.8c5.8-100.6,10.9-201.2,42.3-298.3
			C469,267.1,566.7,162,722.6,118.1c119.3-33.6,238-21.4,354.6,17.3c11.4,3.8,21.8,7.9,35,3.2c106.8-38,218.3-50.8,330.6-57.3
			c241.9-14.1,480.1,10,715,68.7c7.2,1.8,14.4,5.6,22.4-0.8c41.3-33.3,90.8-45.4,141.8-52.4c68.7-9.4,137.5-14.1,206.1,1.3
			c80.9,18.1,132,69.2,160.4,145.1c20.2,54.1,22.5,111.2,25.4,168C2721.3,554.2,2719.3,697.5,2715,840.7z M2293.5,2810.4
			c-9.3-3.9-16.4-7-23.5-10c-159.7-66.9-263.9-181.7-300.6-352.8c-19.4-90.7-34.3-182.4-40.5-275c-7.4-111.1,3-220.2,48.9-323.4
			c80.4-181,220.4-296.8,402.8-365.1c43.4-16.3,31.9-21.2,48.4,25.6c3.3,9.5,1,13.1-9.2,16.4c-22.5,7.2-44.6,16-66.2,25.7
			c-219.2,98.2-378,291.4-373.7,565.8c1.7,109.1,19.3,216.5,42.8,322.6c41.4,187.1,167.7,289.5,346.6,336.6c6.3,1.7,12.6,1.8,19-0.8
			c103.3-41.9,194.6-99.7,257.7-194.7c5.6-8.5,12.3-16.9,14.2-29.5c-7.8,1.8-13.3,3-18.7,4.3c-86.8,21.7-174.1,30.3-263.1,14.6
			c-138.2-24.3-231-108-254.8-241.1c-19.8-110.7-27.2-222.9-6.5-335c26.9-145.3,109-248.2,241.3-311.1
			c97.8-46.5,201.9-60.9,309.2-52.7c14.3,1.1,19-0.9,17.5-16.4c-4.9-51.7-11.5-103-24.1-153.4c-8.6-34.3-20-67.9-44.2-95
			c-38.9-43.7-85.4-76.9-139.3-99.7c-68.9-29.1-141-45.7-215.2-51.6c-170.5-13.7-340.9-14.2-510.5,12.3
			c-48.9,7.6-97.4,17.2-146.2,31.1c2.3,4.5,3.9,7.7,5.6,10.8c52.7,95.2,50.6,193,3,287.2c-55.5,109.9-155.5,158.3-272.8,171.3
			c-103.3,11.5-193.9-24.2-273.9-88.7c-14-11.3-26.1-30.7-41.2-33.2c-16.4-2.8-28.8,20.7-46.2,27c-17.6,6.3-14.3,15.3-5.5,27.1
			c16.8,22.4,38.4,42.7,46.5,69.7c9.2,30.8,30.9,44.6,57.3,55.1c15.3,6.1,30.7,12.6,46.6,16.8c101.8,26.6,203.7,25.2,305-2.6
			c110.3-30.2,187.9-96.6,224-207.5c12.3-37.7,26.9-74.4,44.7-109.8c46-91.3,125.8-128,222.3-137.5c5.7-0.6,10.4-0.8,13.2,7
			c10.6,30.1,2.9,44.5-28.1,48.5c-84.4,11-144.2,52.8-173,135.3c-11.6,33.2-26,65.5-38.9,98.3c-39.4,100.8-111.7,167.5-212.4,204.4
			c-93,34.1-189.1,41.3-286.8,31.3c-49.4-5-97.3-17-144-37.7c-0.4,5.2-1,8-0.7,10.8c7.4,69.8,4.7,139.5,0.5,209.3
			c-3.6,58.4-33.4,88.1-91.5,84.6c-96.6-5.9-191.6-21.4-279.4-65.6c-12.7-6.4-17.1-3.6-21.6,8.4c-20.5,53.8-41.7,107.2-62.3,160.9
			c-11.2,29.2-10.9,29.4,19.9,29.6c75.6,0.7,151.2,1.5,226.8,2.1c28.7,0.2,51.8,10.9,67.4,35.5c3.3,5.1,6.6,8.2,13.1,9.5
			c75.5,15.6,142.6,52,210.1,87c7.4,3.8,11.8,5,19,0.6c49.5-30.7,105-38.2,161.6-39.4c45-1,69.2,16,86.7,57.5
			c8.1,19.3,13.4,39.4,17.5,59.9c5,24.6,7.4,50,17.3,73.4c13.7,32.2,33.6,53.4,73.3,50.8c38.3-2.6,72.4,11,97.6,41.7
			c50,60.9,66.4,129.8,45.3,206.1c-4.8,17.3-1.8,23.3,15.6,22.5c3.6-0.2,7.2,0.5,10.8,0.6c141.1,4.8,281.9,3.7,421.9-17.1
			C2165.2,2849.6,2229.6,2835.6,2293.5,2810.4z M2148,372.1c-21.5-55.8-31.6-109.4-11.3-164.7c2.7-7.3-1.5-8.5-7-9.8
			c-14.7-3.3-29.4-6.9-44.1-10.3c-67.4-15.3-135.3-27.6-203.8-37c-13.3-1.8-21.6-0.2-22,16.3c-0.6,19.3-2.4,38.8-5.7,57.9
			c-23.3,134.8-74.6,257.1-168.4,358.2c-195.2,210.1-505,263.2-767.6,133.7c-17.9-8.8-36.4-29.4-52.7-24.5
			c-16,4.8-26.2,28.7-39.1,44.1c-31.9,38.2-62.3,77.1-79.2,125.1c-33.6,95.2-20.7,188.3,9.7,281.3c6.1,18.6,12.6,30.4,35.5,24.3
			c12.9-3.4,27.2-2.3,40.9-2.3c65.1-0.4,128.1,7.4,181.4,49.8c7.4,5.9,12,4.6,18.5-0.7c88.1-70.8,190.2-96,300.9-90.3
			c82.3,4.2,158.9,26.6,222.8,81.7c9.7,8.3,18,6.2,27.6,3.6c71-18.9,142.9-33.4,215.8-42c14.4-1.7,16.7-7.4,14.1-19.4
			c-4.5-20.6-3.9-41.6-3.3-62.4c3.1-107.4,74.5-191.5,180-213c33.7-6.9,67.2-4.6,100.9-0.5c14.3,1.7,27.8,1.3,27.9-19.4
			c0.3-53.3,2.1-106.6,1.7-159.8c-0.4-47.5-19.6-83.2-65-105c-45.3-21.8-90.7-43.4-136.1-65.1c-41.8-20-44.9-57.2-8.9-87.1
			c17.9-14.9,38.3-25.4,59.6-34.3C2026.5,377,2084.1,367.4,2148,372.1z M2640,1311.9c1-8.3,2-13.2,2.2-18.1
			c9.1-162.4,17.8-324.8,20.2-487.5c1.2-79.9,5.5-159.8,2.9-239.7c-0.3-8.8,2.4-18-12.9-19.1c-80.2-5.4-142.6-47.4-195.3-103.5
			c-47.9-51-40-108.4,16.5-149.5c39.5-28.8,81.8-53.1,125.5-74.9c11.4-5.7,13.3-10,4.4-20c-21.3-23.8-46.9-40.8-78-47.5
			c-94.3-20.2-187.6-14.1-278.2,18.5c-53.4,19.2-76.7,64.5-67.6,120.5c15.8,97,89.9,175.7,186,195.3c14.9,3,17.5,9.1,15.3,21.5
			c-0.8,4.3-2.4,8.6-2,12.8c2,22.7-11.2,21.2-26.7,17.6c-62.3-14.3-114.6-45.6-156.5-93.8c-8.2-9.4-17.2-14.4-29-16.3
			c-52.1-8.6-103.5-5-153.3,12.4c-23,8-46.7,16.3-66.9,35c8.4,3.8,14.2,6.3,20,9c47.4,22.3,95.4,43.4,140.1,71
			c34.5,21.3,56.9,51.8,62.4,91.5c10.3,74.5,6.3,149.4,1.1,224c-1.5,21.6-14.1,36.6-36.7,45.5c-23,9.1-45,7.7-67.6,4.6
			c-48.7-6.6-93.1,3.9-133.1,32c-65.8,46.3-75.7,112.7-66.4,186.2c1.8,14.5,6.7,19.2,21.6,18.4c51-2.9,102.1-6.8,153.2-4.6
			c15.3,0.6,24.2-4,33.4-16.6c55.8-75.9,164.2-76.5,203.6,16.3c4.2,10,11.8,11,20.5,12.4c26.3,4.2,52.7,7.9,78.5,13.8
			c13.8,3.1,22.8,1.8,34-8.7c32-29.8,70.1-40.5,111-21c39.8,19,50.8,54.3,45.7,95.8c-0.8,6.7,1.6,10.8,6.9,14.3
			C2597.3,1274.1,2616.8,1292.1,2640,1311.9z M513.5,1735c0,21-0.6,41.8,3.1,62.5c11.8,66.3,50.7,116.4,97.7,161.3
			c98,93.9,221.9,114.5,349.9,122.9c24.6,1.6,32.8-6.4,33.7-31.2c2.5-66.1,7.5-132.3,0.1-198.4c-6.1-55.1-18.2-107.8-58.1-150
			c-6.3-6.7-11.4-14.9-15.8-23.1c-22.1-40.1-13.6-70.1,27.1-91.1c27.4-14.2,47.1-34.7,59.5-62.8c12.2-27.5,21.9-55.7,25.4-85.7
			c5.6-49.1,6.5-97.9-19.1-142.7c-33-57.6-87.9-75.1-149.4-78.9c-62.3-3.8-123,8.1-184,19c-45.1,8.1-75.3,32.6-93.9,73.7
			c-8.6,19-16.7,38.2-22.7,58.1C530.8,1488.2,523.5,1611.8,513.5,1735z M712.5,1176.8c-2.4-7.2-4.5-13.9-6.8-20.5
			c-17.2-49.9-27.9-101.2-31.1-153.9c-6.9-115.7,33.3-214.1,109.6-299.5c89.7-100.4,136.3-218,141-352.9
			c2.4-67.3,33.2-120.9,87.4-161.1c4.8-3.5,11.9-4.9,13.8-14.1c-103.8-26.8-207.5-34.3-310.3,0.5c-131.9,44.7-212,139.6-248.6,271.3
			c-38,136.6-45.5,276.7-33.4,417.2c11.3,131.5,71.4,239.6,172.2,324.8c6.1,5.2,11.1,14.5,21.8,9.9
			C654.7,1187,683.7,1184.4,712.5,1176.8z M586.9,2703.7c25.4-15.9,41.3-45,67.1-64.7c70.8-54.2,130.1-119.8,182.1-192
			c15.8-21.9,29-44.5,23.5-73.5c-1.1-6,0.7-12.9,2.2-19.2c6-24.7,2.8-29.8-22.5-30.1c-74.2-1-148.3-1.5-222.5-2.2
			c-51-0.5-51.8-0.7-66.1,48c-33.1,112.6-64.4,225.7-62.3,344.7c0.7,39.3,6.3,77.6,26.3,112.3c20.6,35.8,50.5,55.5,93.3,55
			c31.2-0.4,61.7-4.8,91.9-11.5c148-33.3,297.4-53.9,449.4-51.2c18.7,0.3,17.4-5.3,12.1-19.3c-42.1-110.2-39.2-219.4,8.1-327.5
			c2.4-5.4,8-10.5,2.2-23.9c-48.9,115.8-135.2,190.2-244.4,234.2C818.1,2726.6,704,2749.6,586.9,2703.7z M1318.3,1676.1
			c41.9,2,86.6-13.2,130-32.7c168-75.3,179-273,102.7-367.9c-70.7-87.8-170-102.9-274.8-99.7c-11.4,0.3-10.2,6.3-6.6,14.5
			c11.9,27.3,18.7,55.9,21.1,85.5c8.3,101.1-45.5,207.6-165,210c-37.6,0.8-52.2,11.7-62.1,46.2c-5.9,20.8-4.1,30.6,11.5,44.2
			C1143,1635.6,1218,1677.4,1318.3,1676.1z M2704.8,2128.3c-1.3,0-2.5,0-3.8,0c0-46.8-0.4-93.5,0.2-140.3
			c0.2-12.2-3.7-17.6-15.8-20.7c-163.4-41.3-327-42.6-491.2-5.1c-12.2,2.8-18.6,7.9-21.8,21.7c-20,87.7-14.1,175.8-8,264.2
			c1.1,16.2,9.8,12.3,18.6,10.3c170.2-37.8,338.4-30.5,504.8,21.3c13.9,4.3,17.4,0.6,17.2-13.3
			C2704.4,2220.4,2704.8,2174.3,2704.8,2128.3z M1184.9,2656.3c1.3,45.2,13.6,99.4,37.2,151.2c5.1,11.2,12,13.7,23.1,14.4
			c45.9,3,91.8,7.6,137.3,14.9c63.1,10.2,126.3,20.3,189.5,30.2c9.6,1.5,18.6,4.5,23.8-10.1c21.2-59.4,14.3-114.3-22.1-165.9
			c-16.3-23.2-37.6-34.5-66.1-32.9c-27.2,1.5-53-3.5-75.4-20.4c-28.4-21.4-43.8-51.2-53-84.3c-6.5-23.5-10-47.8-15.3-71.6
			c-14.1-64.2-18.8-67.2-83.4-63.3c-13.8,0.8-22.5,6-29.9,17.2C1208.4,2499.1,1186.2,2568.6,1184.9,2656.3z M1224.6,733.7
			c10.8-0.8,29.5-1.7,48.1-3.6c292.1-28.5,500.2-246.3,533.5-551.8c4-36.8,2.4-36.8-35.5-39.8c-10.1-0.8-14.3,0.2-16.3,12.5
			c-17.4,108.9-60.5,206.9-131.8,291.1c-151.8,179.3-405.8,240.5-628.6,152.6c-19.9-7.9-42.5-27.2-58.4-22.5
			c-18,5.3-19.1,37.5-32.2,55.4c-9.7,13.2-4.5,18.7,7.9,25.5C1006.2,706,1108.1,732.2,1224.6,733.7z M2411.5,2288.2
			c-84.7-0.6-153.1,7.6-220.9,22.4c-14,3.1-16.7,7.4-13.3,21.6c22.7,93.8,82.4,151.3,173.3,177.3c109.4,31.2,216.7,15,322.9-18.1
			c10.2-3.2,12.7-10.3,14.2-19.1c6.5-36.9,9.9-74.1,13.4-111.4c1.5-15.4-2.9-22.7-18.5-27.6
			C2589.5,2303.3,2494.1,2287.8,2411.5,2288.2z M1353.7,555.6c9.6,1.8,16.6-2.7,23.7-5.4c184.5-71.3,284.5-211.1,324.2-399.9
			c3-14.2-2.4-16.8-15.3-17.4c-69.1-2.9-138.1-4.1-207.2-0.6c-15,0.7-20.8,6.4-26.1,19.2c-31,75.3-54.4,153-73.2,232.1
			C1366.5,440,1357.3,497.4,1353.7,555.6z M2202.1,1902.6c6.2,3.3,11,1.6,16,0.6c154-30.6,307.5-27.9,460.2,8.3
			c18.5,4.4,20.3-1.3,19.6-17.1c-2.4-55.4-4-110.8-5.2-166.2c-1-42.7-0.5-44.1-43.7-46c-125.6-5.4-243.5,18.6-346,96.2
			C2259.4,1811.5,2225.1,1852.6,2202.1,1902.6z M1402,136.3c-44.3,5.5-84.1,10.5-124,15.3c-9.9,1.2-14.4,6.9-18.1,15.7
			c-52.5,127.2-83.6,259.5-96.8,396.3c-1.4,14.5,4.7,16.8,16.6,17.5c31.8,1.6,63.2-2.3,94.7-4.5c20.5-1.4,25.4-11.3,26.7-29.9
			c5-68.2,17-135.3,33.7-201.7C1352.4,275.4,1373.8,207.2,1402,136.3z M1202.6,167.5c-59.9,13.6-114.2,31.5-161.1,66.2
			c-33.5,24.8-56.1,57.9-61,100.3c-6.6,58.4-7.3,117.7-26.7,174.1c-2.7,7.8,1.6,10.5,6.8,13.2c42.9,22.5,87.9,38.6,135.3,48.8
			c11.7,2.5,14.1-0.9,15.3-12.4c4.1-39.3,8.4-78.6,15.1-117.4C1142.3,348.2,1167.1,258.5,1202.6,167.5z M718.7,2659.8
			c102.8,7.2,192.6-18.8,273.3-76.9c10.7-7.7,19.2-17.2,26.5-28.1c22.8-34.1,43.1-70,71.5-100c10-10.5,6.3-14.1-4.5-19.1
			c-46.3-21.4-92.3-43-140.2-60.9c-16-6-23.6-4.8-24.9,14.5c-5.8,84.7-47.6,148.5-114.7,198.4
			C776.4,2609.5,749.3,2634.2,718.7,2659.8z M1238.4,1298.6c0-34.3-7.8-66.8-21.8-98.1c-5-11.2-10.5-14.7-23-11.1
			c-45.5,13.1-86.7,33.9-124.5,62.4c-9.7,7.3-9.6,13-4,22.8c21.2,37.3,27.4,78.5,27.6,120.6c0.2,43.3,1.7,45.1,45.5,37.9
			c2.1-0.3,4.2-0.9,6.3-1.4C1202.8,1417.9,1236.8,1369.8,1238.4,1298.6z M2662.9,439.8c-4.3-53.7-4.6-109.2-18.9-163.3
			c-3.7-13.8-8.7-16.8-22.1-9.6c-41.1,22.3-82.3,44.3-119.9,72.3c-26,19.4-29.8,39.2-9.7,63.8c36.6,44.7,84,74,139.6,88.9
			c31.3,8.4,32.3,6.2,31-26.9C2662.6,457.1,2662.9,449.2,2662.9,439.8z M2219.5,1157.9c-27.1-29.4-63.7-29.8-81.7-4.4
			C2163.8,1154.9,2189.4,1156.3,2219.5,1157.9z M2514.6,1223.9c-6-29.9-24.8-37.1-54-21.9
			C2478.6,1209.3,2495.4,1216.1,2514.6,1223.9z"/>
		<path class="st0" d="M2468.7,793.9c68.7,0.3,124.8,57.3,123.8,125.8c-1,67.8-56.8,122.8-124.7,122.8
			c-68.8,0-125.3-56.4-125.1-124.8C2342.9,849.2,2399.5,793.6,2468.7,793.9z M2467.5,988.7c40.2,0,71.4-30.3,71.8-69.9
			c0.4-39.8-32.8-73-72.5-72.4c-38.7,0.5-71,33.4-70.8,72.1C2396.1,957.9,2427.5,988.7,2467.5,988.7z"/>
	</g>
</g>
</svg>
