<?xml version="1.0" encoding="utf-8"?>
<!-- Generator: Adobe Illustrator 23.0.0, SVG Export Plug-In . SVG Version: 6.00 Build 0)  -->
<svg version="1.0" xmlns="http://www.w3.org/2000/svg" xmlns:xlink="http://www.w3.org/1999/xlink" x="0px" y="0px"
	 viewBox="0 0 3000 3000" style="enable-background:new 0 0 3000 3000;" xml:space="preserve">
<style type="text/css">
	.st0{stroke:#000000;stroke-width:10;stroke-miterlimit:10;}
</style>
<g id="Layer_1">
</g>
<g id="Layer_2">
	<g>
		<path class="st0" d="M929,1093.1c-42.3-19-77.2-40.3-106.8-69.5c-59.6-58.7-88-132.2-94.9-213.4c-4.9-58.5-10.3-117.4-2.8-176.5
			c3.9-30.7,8.9-60.5,28.9-85.1c7.7-9.4,5.3-17.2,2.1-26.9c-62-186.1,32.5-354.1,225.4-399.3c76.7-18,151.7-19,217.8,34.3
			c4.2,3.4,10.7,4.3,16.3,5.3c44.8,7.9,90,6.5,135.2,5c56.4-1.9,100.8-29.6,132.6-72.3c47.9-64.3,111.4-71.6,181.6-59.2
			C1771,54.2,1858.6,112,1942.1,177c31.8,24.8,60.4,53.2,89.1,81.5c11.8,11.7,12.8,19.6-0.6,30.5c-11.6,9.4-19.5,21.6-35.5,4.1
			c-38.5-42.3-82.2-78.8-129-111.6c-7.1-5-13.1-12-24.6-12.4c17.8,73.6,7.6,142.3-36.8,204.2c-6.5,9-10,30.2-29.7,13.6
			c-14-11.8-30.1-19.7-10.8-42.8c25.9-30.9,38.5-69.2,35.6-109.7c-5.5-77.1-17.6-120.2-97.9-139.6c-23.9-5.8-47.4-12.5-71.9-14.8
			c-42.6-4-78.7,5.4-106,42.7c-19.7,26.9-46.5,47.6-74.7,66.1c-46,30.3-47,93.6,0.6,121.9c25.7,15.2,11.1,30.5,5.2,43.9
			c-8.6,19.5-22,4.3-31.2-1.3c-42.6-26.1-61.8-65-56-114.5c2.3-20.1-3.1-24.9-22.8-23.7c-32.3,1.9-64.7,0.5-100.9,0.5
			c13.6,39.5,21.7,78.2,18,118.4c-0.8,8.8,0.2,18.3-3,26.2c-3.9,9.8,4.3,31.6-21.7,23.2c-17.4-5.6-33.1-5.7-27.3-33.2
			c10.5-49.7,3.8-98.2-29-139.5c-39.8-50.2-95.5-54.5-152.8-47.8c-63.7,7.5-121.5,31.1-168.7,75.8c-71.9,68.1-89.6,151.1-65.7,245.4
			c4.2,16.5,8.7,23.2,27.7,16.7c29.1-9.9,59.7-10.9,90.2-4.5c10.5,2.2,24.6,1.9,18.2,18.2c-4.8,12.3,1.3,35.3-25.3,30.7
			c-19.4-3.4-39-4.2-58.6-0.1c-36.1,7.6-63,28-67.7,64.8c-13.3,104-15.5,208.2,27.7,306.8c29.1,66.4,82.5,108.3,150.2,132.9
			c13.2,4.8,24,3.6,35.8-4.4c44.2-29.6,91.6-53.6,141.4-71.9c18.7-6.8,20.6-14.1,13.1-31.6c-26-60.7-39.3-123.9-23.4-189.6
			c24.4-101.1,98.5-152.7,190.9-181.6c27.1-8.5,38.6-18.5,42.8-47.8c14.1-99.8,105.8-177.7,204.6-178.4
			c96.6-0.7,184,73.1,201.1,173.6c4.9,28.9,14.6,43.7,44,54.2c107.2,38.4,168.6,146.3,160.5,274.5c-2,31.3-3.5,62.9-13.1,93.1
			c-4.7,14.7-0.2,20.5,14.2,25.3c31.6,10.6,62,24.6,93.6,35.3c19.7,6.7,16.1,16.8,9.5,30.8c-6,12.8-7.9,24.8-28.3,15.8
			c-97.4-43.1-199-73.8-304.9-85.5c-224.6-24.9-445.6-14.6-653.4,87c-183,89.4-280.6,237.5-301,439.9
			c-16.9,167.6-10.4,335.7-17.3,503.5c-0.8,18.4,5.5,19.2,20.2,12.8c63-27.5,127.5-51,193.7-69.4c18.2-5.1,24.4-12.7,22.3-32.5
			c-11.2-105-3.1-208.2,37.8-306.6c71.8-172.8,206.8-267.9,386.2-301.4c144.4-27,282.5-6,404.9,80.1c136,95.7,184,234.4,182.5,394.4
			c-0.3,36.3-2.3,72.9-11.9,108.1c-4.7,17.6,0.8,23,16.9,25c10.6,1.3,20.8,6.4,31.4,7.3c25.1,2.2,26.9,13.6,19.9,35.4
			c-5.9,18.2-15.3,16.7-28.8,13.2c-84.7-21.8-170.5-37.3-257.4-47.2c-237.6-27-472.2-11.8-704.1,47.2c-100,25.4-197.5,58-292.3,98.8
			c-12,5.2-21.8,9.1-21.7,26.3c1.1,163.1-0.4,326.2,23.9,488.1c7,46.7,18.4,92.5,36.5,136.2c55.3,133.6,159.5,201,299.8,212.8
			c293.4,24.6,582.8,6,863.5-90.8c23.3-8,25.4,4.7,32.3,19.8c8.9,19.2-1.6,22.4-16.1,27.2c-196.1,65.8-397.6,99.4-604.4,101.8
			c-107,1.3-214.3,4.8-320.3-14.3c-180.1-32.4-283-144.8-326.6-318.1c-27.3-108.6-31.8-219.5-34.4-330.4
			c-5.7-242.7-2.6-485.4,5.6-727.9c3.2-94.3,16.6-187.8,48.1-277.6C804.3,1225.1,856.4,1154.7,929,1093.1z M1562.9,587.2
			c-87.1,2.8-171.7,6.3-251.9,36.6c-52.3,19.7-99.9,46.5-125.5,100.2c-34.9,73.2-17.3,143.4,12.1,213c5.5,13.1,15,8.9,24.7,6.5
			c218.9-54.8,438.1-58.3,657.6-3.9c16.6,4.1,25.1,2.1,28.6-16.3c9.6-49.6,14-99.4,4.4-149.2c-18.6-96.5-74.9-151.3-171.1-170.2
			C1681.8,592.1,1620.7,593.8,1562.9,587.2z M1427,1801.7c0,3.9-0.1,7.8,0,11.8c0.9,44-7.5,41.4,40.9,38
			c91.3-6.5,182.4-2.8,273.2,6.5c87.6,9,88,9.9,102.1-79.5c23.3-147.8-63.5-275-206.9-304.2c-12.5-2.5-22.5-2-33,5.4
			C1491.9,1558.3,1431.5,1664.7,1427,1801.7z M1049.8,1826.8c0,13.7-0.4,27.5,0.1,41.2c1.6,49.1,1.5,48.3,49,35.4
			c15-4.1,18.5-9.9,16.1-24.3c-2.5-15.4-3-31.3-3.3-47c-2.3-121.4,31.1-228.6,124.4-312c80.4-72,178.8-94.8,282.4-101.6
			c81.6-5.4,161.2,3,232.9,46.8c115.8,70.8,168.3,212.8,133.6,358.6c-11.9,50.2-11.7,48.9,38.3,59.3c24.1,5,30.6-4.7,33.9-25.2
			c8.2-50.7,10.4-101.7,5.7-152.7c-7.6-82.8-32.2-159.7-87.5-223.9c-91-105.7-209.6-146.4-345.8-146.2
			C1243,1335.7,1041.7,1540.9,1049.8,1826.8z M1529.3,1467.4c-18.6,1.6-36.8,2.7-54.8,4.8c-211.7,24.8-333.5,177-312.6,389.7
			c2,20.1,7.6,26.6,29,22.2c55.7-11.3,111.9-20.3,168.7-24.1c18.6-1.2,19.1-10.5,18.4-25.1c-6.7-136.3,39.7-251.8,137.1-347
			C1520.5,1482.7,1528.7,1479.3,1529.3,1467.4z M1546.9,537.9c49,3.1,98.1,4.2,146.6,10c26.1,3.1,25.3-7.7,21.4-25.7
			c-15.4-71.8-82.5-128.8-152.1-129c-71.6-0.2-143.8,61.8-158.1,134.6c-3.6,18.1,1.3,21.2,19.2,19.2
			C1464.8,542.5,1505.9,540.8,1546.9,537.9z"/>
		<path class="st0" d="M1651,2379.1c-0.4,100.1-81.9,181.7-181.9,182c-100.6,0.4-183.9-83.1-183.5-183.9
			c0.4-100.1,82.2-181.3,182.4-181.1C1570.7,2196.2,1651.4,2276.9,1651,2379.1z M1470,2511.3c73.7-0.9,133-60.9,132.4-133.8
			c-0.6-72.9-60.9-132.9-133.7-133.1c-73.9-0.2-135.3,62.2-133.7,135.8C1336.7,2454.2,1396.4,2512.2,1470,2511.3z"/>
		<path class="st0" d="M1502.3,739.7c0.2,48.8-50,120-94.3,135.4c-23.3,8.1-39.7-2.7-52.3-21.5c-25.1-37.3-21.9-86.4,7.9-123
			c23.2-28.4,81.4-44.1,116-32C1501.4,706.2,1498.9,725.4,1502.3,739.7z"/>
		<path class="st0" d="M1732,680.3c40.9,0.2,53.5,12.4,49.7,53.2c-5.7,60.6-44.7,98.5-94.2,126.4c-20.7,11.7-37.8-1.9-49.5-19.5
			c-22.6-34-23.8-70.1-5.8-106.1C1652.7,693.7,1689.4,681.1,1732,680.3z"/>
	</g>
</g>
</svg>
