<?xml version="1.0" encoding="utf-8"?>
<!-- Generator: Adobe Illustrator 23.0.0, SVG Export Plug-In . SVG Version: 6.00 Build 0)  -->
<svg version="1.0" xmlns="http://www.w3.org/2000/svg" xmlns:xlink="http://www.w3.org/1999/xlink" x="0px" y="0px"
	 viewBox="0 0 3000 3000" style="enable-background:new 0 0 3000 3000;" xml:space="preserve">
<style type="text/css">
	.st0{stroke:#000000;stroke-width:10;stroke-miterlimit:10;}
</style>
<g id="Layer_1">
</g>
<g id="Layer_2">
	<g>
		<path class="st0" d="M230.8,664.4c-36.2-15-65.8-37-87.9-68.9c-43.6-62.8-37.3-129.7,21.2-178.3c65.8-54.7,145-81.2,227.9-95.4
			c145-24.9,288.5-7.1,431.4,18.7c86.6,15.6,171.1,39,254.3,67.6c9.3,3.2,18.2,6.7,28.7,0.9c81-45,169.3-64.2,260.7-68.3
			c179.6-8,358.9,1.3,537.9,16.7c117.7,10.1,201.2,67.1,241.8,181.8c11.1-9.5,11.6-21.9,15.6-32.4
			c109.1-281.6,444.1-305.4,611.5-153.5c59.3,53.8,92.8,122.7,112.1,198c22.9,89.4,42.3,179.8,52.4,271.8
			c10.7,97.8,6.3,195.9,4,293.8c-3.5,146.6-5.4,293.1-3.7,439.7c1.7,144.8,3.5,289.6-12.5,433.7c-14.2,127-18.2,257.4-71.5,375.8
			c-100.9,224.1-277.6,354-519.7,391.7c-141.5,22-276.8-5.8-405.1-68.3c-8.7-4.2-14.2-7.3-23.5,0.4
			c-98.1,80.4-215,114.6-337.4,133.7c-138.3,21.6-277.7,19.8-416.8,14.7c-151-5.6-302-11.3-452.1-31.1
			c-131.9-17.4-262.1-41.7-385.9-93c-42.5-17.6-82.8-39.1-119.8-66.3c-120.3-88.6-158.5-206.2-112.3-348.4
			c32.2-99.4,90.1-183.7,158.6-261c14.3-16.2,16.4-23.7-2-39.3c-64.7-54.6-92.8-127.1-95-210.7c-2.7-103.6,0.8-207.1,12.1-310.1
			c15.2-138.8,9.6-275.5-21.9-412c-28.4-122.7,3-236.9,62.3-344.9C206.7,702.3,218.8,684,230.8,664.4z M2091.1,1503.9
			c2.5-6.8,4-9.1,4.1-11.5c14.6-187.1,35.8-373.7,43-561.4c3.9-101.7,5-203.6-15.1-303.9c-31.9-158.9-97-213-230.9-224.5
			c-184.4-15.9-369.2-27.1-554.2-13.4c-140.2,10.4-260.3,65-348.1,179.1c-116,150.7-131.9,318.4-83.7,497.1
			c4.9,18.2,13.1,12.5,23.3,8.7c62.1-22.8,124-20.7,184.8,3.8c17.8,7.2,18.8,1.4,20-13.6c3.7-45,15.5-88.4,33.7-129.6
			c32.4-73.4,86.2-121.5,166.4-137.6c56.8-11.4,114.1-17.2,172-14.2c121.7,6.3,199.9,68.7,231.1,186.3c4.2,15.7,10.2,20.8,25.7,20.5
			c41.2-0.8,82.5,0.5,123.7-0.6c20.1-0.5,21.5,9.9,21.8,25.7c0.4,16.2-3.7,23-21.3,22.2c-30.2-1.4-60.4-0.4-90.7-0.4
			c-47.9,0-47.8,0-53.2,46.3c-1.2,10-2.7,20-5,29.8c-41.4,173.9-101.1,237.3-240,257.1c-46.3,6.6-92.9,9.2-139.7,9.4
			c-42.8,0.1-78.2-20.1-116.6-46.6c9.4,62.2-12.7,103.1-57.7,140.1c-47.5,39.1-26.8,104.8,32.4,119.1c12.4,3,25,5.7,37.7,7
			c90.7,9.8,181,3.1,271.2-7.7c12.7-1.5,15.6-10.1,19.9-19.5c9.7-21.7,19.2-43.6,30.7-64.3c36.6-65.7,91.6-105.3,167-115.3
			c53-7.1,106-4.1,159,0.2c69.6,5.7,124.9,38.3,170.4,89.6C2078.1,1487.9,2083.1,1494.3,2091.1,1503.9z M1046,446.3
			c-11.7-4-19.9-6.9-28.2-9.6c-77.6-25.3-156.8-44.3-237.3-57.3c-134.2-21.7-268.9-37.3-404-7.9c-70.4,15.3-137,40.1-192.3,88.8
			c-20.4,18-27.6,40.5-22.4,66.8c10.6,54,63.1,96.5,118.1,96.9c32.7,0.2,63.2-9.3,93.3-20.3c146.8-53.6,297.6-82.9,454.4-77.1
			c16.3,0.6,27.6,1.2,26.3,23.4c-1.2,21.2-9.4,24.7-28.8,23.9c-125.6-5.4-248.3,11.4-367.9,50.6c-53.8,17.6-106,41-163.6,45
			c-7.9,0.6-13.3,5.6-17.6,11.9c-80.3,116.3-129,240.7-95.2,384.8c31.6,134.4,35.9,270,22,406.7c-10.5,104-17.1,208.3-13.7,312.8
			c4.7,145.2,109.8,247,254.7,239.6c125-6.4,223.9-73.1,312.3-156.6c5.4-5.1,6.4-10.7,3.4-17.3c-19.8-44.2-15.2-89.5-4.7-134.6
			c2.6-11.1,1.4-18.5-6.3-27c-20.8-23-33.8-51-37.8-81.1c-19.8-147.1-10.9-289.4,80.1-414.9c16.8-23.2,11.3-30.6-11.7-42.8
			c-56.8-29.9-117-35.8-178.8-30.9c-43.3,3.4-69.3,30.3-75.8,74.2c-3.2,21.7-5.2,43.8-5.2,65.7c-0.4,108.2-5.5,216.2-13.5,324
			c-3,41-2,82.7-14.2,122.6c-16,52.2-71.4,66.1-110.7,28.2c-17.2-16.6-26.4-37.3-27.8-61c-2.4-42-4.5-84.1-6.2-126.2
			c-4.4-103.7,4.6-206.9,14.6-309.9c7.4-76.4,13.4-153.1,34.2-227.7c10.3-36.7,31.6-63.3,64.7-81.3c34.1-18.5,70.1-30.7,108.7-36
			c73.1-9.9,144.1,3.9,215.3,17c16.1,3,37.3,14,47,7.6c13.2-8.7,1.2-31.9,4.8-48.5c4.9-22.2-6.3-30.2-25.9-35.4
			c-119.7-31.5-232.2-15.3-337.4,49.9c-33.2,20.6-33.1,20.8-56.8-11.8c-0.5-0.7-0.8-1.7-1.2-2.5c105.2-87.2,258.4-118.5,401.6-80.3
			c20.9,5.6,27.5,2.1,31.4-19.1c15.4-84.4,52-159.6,104-227.6C978.3,507,1010.8,477.7,1046,446.3z M2345.4,800.3
			c-8.9-4.2-13.8-6.6-18.7-8.8c-68.8-31.4-96.2-90.1-72.6-162.3c19.8-60.7,55.1-111.8,108-148.6c66.8-46.5,137.8-51.8,210-13.3
			c55.4,29.6,97.8,73,128.5,128.2c32.5,58.5,46.2,123.2,60.4,187.2c29.1,131.2,26,263.3,9.6,396.2
			c-13.7,111.1-29.1,221.4-70.4,326.3c-3.8,9.7-0.6,18.1,2.2,26.5c65.1,198.5,64.9,400.1,25.3,602.5
			c-36.5,186.3-146,311.7-327,372.5c-115,38.7-233.4,44-353,33.8c-17.5-1.5-26.2,1.4-34.3,17c-14.3,27.6-30.4,54.4-51.8,77.4
			c-10.3,11-9.4,16.9,5,22.9c186.4,78.7,373.1,88.3,556.3-6.1c172.9-89.1,289.1-225.8,324.5-421.5c29.4-162.5,45.5-326.5,46.1-491.8
			c0.7-205.3-5.1-410.6,2.7-615.8c6.1-161.7,4.2-322.3-36-480.4c-8.6-33.7-14.6-67.9-24.7-101.3c-61.3-203.4-233.3-250.5-369-230.2
			c-218.2,32.6-313.7,244.9-278.4,412.4C2203,794.1,2271.4,827.2,2345.4,800.3z M1356,1651.2c0-0.3-0.1-0.7-0.1-1
			c-8.2,0-16.5,0.3-24.7,0c-51.3-2-102.8-3.5-151.6-21.6c-28.3-10.5-55.2-25.8-60.9-58c-10.3-57.5-0.3-110.3,50.6-146.9
			c20.8-15,29.3-34.1,29.5-58.4c0.3-43.2-2.8-86.2-12.1-128.3c-19.9-91-102.2-148.3-192-134c-62.8,10-110.8,43.8-150.4,93
			c-89.5,111.4-104.1,240.9-93.4,376.6c1.8,22.6,6.9,45.3,18,65.9c14.7,27.2,34.2,44.6,68,47.8c59.2,5.6,118,16,173.9,37.6
			c107.9,41.7,219,59.2,334,42.9c23.3-3.3,22.6,10.4,25.2,24.9c3.1,16.9-5.8,19.2-19.9,20.8c-111.9,13.4-221.3,3.8-327.1-36.3
			c-64.6-24.5-131.6-38.6-200.1-45.5c-8.4-0.8-19.1-8.2-25.7,6.3c-15.1,33.2-4.2,93.1,23,117.1c56.4,49.9,120.2,87.5,193.4,105.7
			c119.8,29.9,241.6,50.5,364,66.4c70.9,9.2,70.6,7.9,65.9-60.6c-1-14-5.1-17.6-18.2-14c-21.6,5.9-43.8,3.6-65.7,2.7
			c-11.1-0.4-28,4.4-23.9-18.7c3-17,1.9-29.8,28.3-26.6c89.1,11,156.9-41.8,169.6-129.9c5.8-40.3,1.4-80.2-13.6-118.8
			c-5.9-15.1-12.7-21.3-29.9-19.5C1445.6,1645.4,1400.8,1647.9,1356,1651.2z M350.6,2061.6c-12.5-5.2-23.5-8-32.5-13.8
			c-12.9-8.3-21.3-4.9-30.5,5.5c-61.1,68.9-115.2,142.4-150.4,228.3C76,2430.9,113,2544.7,250.1,2630c57.2,35.6,119.6,59.5,184,77.8
			c156.7,44.7,317.4,63.5,479.5,72.3c198.5,10.8,396.9,26.4,595.6,4.9c100.7-10.9,198.1-33.1,289.9-78.3
			c214.2-105.4,323.6-418.3,96.8-625.2c-30.3-27.6-57.5-39.7-96.6-22.4c-14.5,6.4-18.5,9.5-9.9,23.9c26.6,45.1,47.3,92.9,62.6,143
			c53.4,175-11.9,310.8-182,377.8c-75.7,29.8-155.2,44.6-235.6,48.4c-277.6,13.2-554.9,11.2-829-43.2
			c-93.8-18.6-185-46.9-262.4-106.4c-83.7-64.2-116.7-147.5-90.8-251.9C269.5,2180.9,306.7,2121.5,350.6,2061.6z M2739.1,1002.7
			c-5.1-61.7-4.7-118.5-15.8-174.6c-9.8-49.4-21-98.4-35.9-146.4c-18.8-60.7-50.5-113.5-102.8-152.1c-37.1-27.3-76.7-47-124.5-40.1
			c-77,11-157.1,94.4-166.7,173c-5.4,44,12.8,71.8,56.2,88.8c16.8,6.5,24.4,5.6,30.7-14.5c30.8-97.4,123.4-117.4,193.7-43.2
			c41.5,43.9,60.8,97.9,65.6,156.5c16.2,200.9-15.3,392.1-119,568.3c-30,51-64.6,97.6-112.6,133.3c-73.3,54.5-156.6,78.4-246.8,78.1
			c-26.1-0.1-39.2,3.1-39.3,33.9c-0.1,29.8-7.7,59.8-13.6,89.4c-3,15.1,0.4,22.4,16.2,23.3c21.9,1.3,43.8,3.5,65.7,4.7
			c232.3,12.6,409.1-108.5,480.6-328.9C2718.8,1304.4,2728.1,1150.9,2739.1,1002.7z M1640.7,2084.3c29.1,63.6,51.3,125.2,57.3,191.9
			c9.2,101-41.1,175.9-138.6,201.4c-61.5,16-124.8,18.6-187.8,23.3c-193,14.6-386,23.8-579.2,3.7c-109.9-11.4-217.4-32.1-314.3-89.7
			c-41.8-24.9-83.1-50.7-115.6-87.5c-38.3-43.2-28.3-86.5,24.1-109.3c20.9-9.1,42.7-16.6,62.9-27.3c55.4-29.3,87.9-76,104.8-140.3
			c-49.2,17-95.1,23.9-142.2,20.5c-10.1-0.7-14.5,5.9-19.7,12.3c-29.3,36.6-54.5,75.7-74.3,118.3c-58.5,125.4-28.2,221.5,91.6,290.5
			c7.1,4.1,14.4,8.1,21.8,11.7c76.3,37.6,157.8,57.7,241,72.2c140.3,24.6,282,30.4,424,34.3c135.6,3.8,271.2,8.3,406-12.1
			c80-12.1,158.3-30.4,226.9-76.7c56-37.7,87.5-90.3,92.8-157.5c8.1-103.8-34.6-192.7-84.3-279.3c-4.8-8.4-11.6-10.2-20.7-9
			C1692.8,2078.8,1668.4,2081.2,1640.7,2084.3z M2418.8,1188c0.4,1.8,0.4,3.7,1.1,5.3c39,89.6,4.3,158.2-91.2,177.4
			c-17,3.4-11.9,10.9-10.2,20.7c11.2,63.1-34,114.8-97.8,112.8c-30.7-1-52.8-17.5-76.4-41.9c-4,39.2-7.6,74.3-11.1,109.3
			c-1.2,12.4,7.8,12.7,16.3,12.7c106.1,0.4,200.4-29.1,274.3-109.2c62.3-67.5,94.7-152.1,127.5-235.2
			c52.4-132.9,51.3-272.2,38.6-411.8c-2.8-30.3-16.3-58.1-32.6-83.9c-21.1-33.2-60.3-55.7-86.1-48.2c-31,9-44.6,34.4-50,63.4
			c-12.7,68.5-43.2,94.3-113.4,95.8c-44.2,1-83.7-12.4-122.9-39.5c2.5,178.5-16.5,351.1-30.5,530.6c22-17.9,41.5-26.9,62.8-31.6
			c-30.8-93-3.9-147.9,87-177.7c-1.9-4.2-3.7-8.3-5.7-12.3c-46.2-90.4-13.7-209.3,72.3-263.8c81.4-51.6,173.2-14.9,198.9,78
			C2591.9,1020,2550,1159.9,2418.8,1188z M2666.8,1574.7c-20.4,37.7-41.6,67.4-66.3,94.4c-8,8.7-7,17.7-5.6,28.1
			c16.9,123.7,16.8,248.2,19.3,372.8c3,148-69.4,238.8-199.7,293.4c-42.3,17.8-85.7,31.8-130.4,42.1
			c-64.3,14.8-129.3,25.2-195.4,28.7c-27.9,1.5-44.2,17.8-41.9,50.1c1.5,20.5,24,12.9,36.8,13.6c78.9,4.4,157.4-0.2,235.1-15.6
			c200.2-39.8,328.3-167.2,365.9-367.8c20.5-109.2,29.1-219.7,21.1-330.9C2700.8,1715,2687.9,1647.8,2666.8,1574.7z M612.2,935.3
			c-35-2-80,7.8-122.5,29.4c-25.6,13-42.7,31.7-50.8,60.7c-18.6,67.5-23.1,136.9-30.8,205.9c-15.5,138.5-20.5,277.3-11.4,416.5
			c1,14.8,1.8,29.4,8.1,42.8c5.4,11.5,14.5,19.5,28.1,17.9c12.5-1.5,14.2-13,17-22.5c1.5-5.2,1.5-10.8,2-16.3
			c9.1-87.5,13.1-175.3,18-263c4.1-73.1-1.2-146.7,9.3-219.5c9.3-64.5,51.6-105.7,116.3-112.6c80.5-8.6,156.7,4.6,226.3,48
			c10,6.2,18.7,11.7,28.5,0c8-9.6,23.1-12.8,16.3-32.6c-11.7-34.5-20.9-70.1-24.4-106.7c-1.1-11.4-7.3-15.5-17.2-17.8
			C759.1,950.4,692.9,936.9,612.2,935.3z M1441.8,1058.1c78.7,0,157.4,0.1,236.1-0.1c10.5,0,21,3,22.7-14.8
			c9.4-99.6-62.3-194.1-161-210.7c-66.1-11.1-131.2-2.9-196,9.8c-25.3,5-49.1,13.6-70.1,29.4c-57.8,43.3-77.7,106.2-90,172.9
			c-3.2,17.6,10.8,13.3,19.7,13.3C1282.6,1058.2,1362.2,1058.1,1441.8,1058.1z M1754.8,1813.4c-88.6-5.4-130.9-41.2-135.7-114.6
			c-3.7-55.9,10.3-109.4,39.1-157.6c18.3-30.5,47.4-48.2,82.5-54.1c55.5-9.4,111.4-9.4,166.7,1c74.1,14,116.2,62.5,123.4,137.7
			c2.6,27.6,1.9,54.9-1,82.3c-12.6,120.4-76.4,192.4-193.5,218.8c-16,3.6-32.1,7.1-48.3,10c-94.3,17.3-188.5,31.6-280.5-11
			c-15.5-7.2-17.2,3.7-17.4,14.7c-0.3,25.7,0.6,51.3-0.4,77c-0.7,15.5,4.8,20.2,20.1,20.9c47.7,1.9,95.4,2,142.9-1.8
			c99.5-8,196.1-27.4,281.3-83.1c54.9-35.9,98.3-81.4,116.2-147.5c18.7-69,25.3-139.7,33.6-210.3c0.5-4.3-0.3-9.3-2-13.3
			c-33.5-74.3-85.5-128.6-168.5-142.7c-44-7.5-89.3-8.4-134.3-6.3c-74.4,3.5-131.2,35.3-166.6,102.6c-22.8,43.4-44.3,88-38.5,137.8
			c4.4,38.4,10.7,76.1,5,114.6c-1.3,8.6-1.4,15.9,9.1,19.7C1640.4,1827.1,1693.1,1837.7,1754.8,1813.4z M1538,1888.4
			c24.7,9.7,47.5,15.6,71.4,17.4c86.3,6.7,169.4-11.3,251.7-33.5c51-13.8,84.1-48.4,104.3-97.4c19.8-48,24.4-97.6,19.7-148.2
			c-4.9-52.7-31.1-80.7-82.8-92c-49.7-10.8-99.8-12.2-150.1-3.4c-30.2,5.3-51.9,21.4-63.9,50c-13.5,32.4-22.2,65.9-23.8,101
			c-1,20.5,2.3,40.6,15.2,57.3c16.5,21.3,38.8,30.2,65.5,24.7c25.3-5.2,38.8-22.4,44.8-46.6c3.2-13.1-2.7-25.2-3.9-37.9
			c-3.7-37.5,19.2-74.6,52-84.3c21-6.2,38.7,0.3,44.9,20.1c17.5,55.4,24.6,111.1-12.3,163c-59.4,83.6-172.6,118.5-272,79.9
			c-28.8-11.2-45-8.3-56,19.9C1541.6,1881.1,1540.3,1883.5,1538,1888.4z M516,2382.7c47.1,27,93.6,41.8,141.3,53.4
			c6.7,1.6,12.3-2.1,17.8-5.5c128.6-79.7,205.8-194.3,233.3-343c3-16.2-2.4-21.1-18.4-20.2c-32.9,1.8-65.9,2.5-98.8,2.7
			c-13.1,0-18,3.5-21.1,17.7c-11.7,53.2-33.8,102.3-65.6,146.8C657.2,2300.7,595.5,2349.1,516,2382.7z M1404,1332.1
			c26.6-1.9,45.9-2.3,65-4.7c66.3-8.5,131.3-20.4,170.9-83.6c23.6-37.6,37.7-79,49.5-121.5c3.9-14,1.2-20.2-14.9-19.4
			c-21.9,1.1-44.1,1.8-65.9-0.2c-19.2-1.7-26.6,6.1-33.2,23.3c-27.2,71.2-92.3,115.1-167.6,115.4c-73.3,0.2-140.1-43.2-166.5-112.8
			c-8.2-21.6-18.6-28.9-39.4-25.4c-7.5,1.3-17.8-4.2-21.9,5.5c-3.9,9.4,2.5,17.5,8.5,24.7c23.8,28.9,36.2,63.1,44.2,98.9
			c3.5,15.7,10.1,28.9,19.9,41.4C1293.5,1326,1347.7,1341.8,1404,1332.1z M938.2,2462.2c0.6,2.7,1.3,5.4,1.9,8.1
			c40.1,0,80.1,0,120.2,0c10.4,0,16.5-6.7,22.5-13.8c95-110.5,162.5-235.6,201.5-376.1c4.3-15.4,0.9-19.8-14.3-19.2
			c-39.3,1.5-78.7,3.9-117.9,2.8c-23.5-0.7-29.1,8.1-29.3,29.7c-0.8,76.5-23.4,147.4-58.9,214.6
			C1032.6,2368.1,989.3,2418.3,938.2,2462.2z M733.3,2449.2c41,9.3,79.1,11.9,117.1,14c5.7,0.3,12.4-3.4,17.5-6.9
			c130.2-89,200.4-212.3,211-369.6c1.1-15.7-2.1-23.5-20.4-22.2c-26.4,1.9-53.1,2.2-79.6,0.8c-18.2-0.9-23.6,7-25.7,23.2
			c-12.9,99.8-54.7,186.9-117.8,264.6C806.5,2388.8,771.3,2417.8,733.3,2449.2z M1136.8,2466.5c48.5,0.8,88.7,1.3,126.4-32.7
			c98.7-89.1,157.9-197.1,177.3-328c2.7-18,0.1-27.3-20.3-28.1c-19.1-0.7-38.4-2.9-57.1-6.8c-21.2-4.4-30.3,2.2-35.9,23.6
			c-26.8,102.5-70.8,197.6-129.2,285.9C1179.4,2408.4,1159.1,2435.1,1136.8,2466.5z M1304.7,2459.6c34.7-2.4,64.4-4.1,94-6.5
			c9.4-0.8,16.8-6.5,23.8-12.7c84.8-75.6,149.3-165.3,191.1-271.2c4.8-12.1,3.5-22.1-0.3-34.1c-11.4-36.5-31.3-57.7-72.9-49.5
			c-9.6,1.9-20.3,0.7-30.1-1c-18.6-3.3-22.9,5.1-24.9,22.2c-13.5,118.1-60.9,221.4-140.3,309.8
			C1333.1,2429.9,1320.5,2442.8,1304.7,2459.6z M727.3,2071.3c-36.2,0-69.9,1-103.5-0.4c-19.3-0.8-28.7,5.6-35.6,24.4
			c-27,73.6-78.1,124.3-151.8,151.9c-12.8,4.8-25,10.8-37.7,15.8c-13.5,5.3-16.4,13.6-7.8,25.3c18.7,25.4,41.5,48.2,70.3,59.5
			c19.5,7.7,40-8.7,58.4-17.5C629.3,2277.6,697.9,2191.7,727.3,2071.3z M2321.3,1036.3c3,40.5,11.4,75.8,47.6,95.8
			c31.6,17.5,62.1,9.4,90.3-9.2c52.6-34.9,81.2-109.7,66-171c-15.4-62.4-72.2-86.9-126.8-53.4
			C2346.4,930.4,2326.3,980.6,2321.3,1036.3z M1039.6,2022.7c0.3-2.4,0.7-4.8,1-7.2c-86.9-20.5-166.2-56.6-235.2-113.4
			c-9.9-8.2-15.8-2.7-22.6,4.3c-27.8,28.1-57.8,53.6-91.5,74.4c-22.9,14.1-46.2,27.4-71,42C761.9,2022.7,900.7,2022.7,1039.6,2022.7
			z M1533.8,1103.2c-81,0-159.2,0.1-237.5-0.1c-23.2,0-11.7,13.2-7.2,20.9c27.8,48.4,69.5,73.6,125.9,71.7
			C1467.1,1193.9,1513.2,1158.8,1533.8,1103.2z M2250.1,1255.4c0.2,40.7,30.5,70.1,71.8,69.5c37.9-0.5,69.4-32.8,68.9-70.8
			c-0.4-38.5-31.4-69-70.2-69.2C2279.6,1184.7,2249.9,1214.4,2250.1,1255.4z M1487.7,2442.4c134.4-7.2,199.5-100.7,152.1-217
			C1601.8,2306.9,1551.1,2377.5,1487.7,2442.4z M2477.1,1860.4c-7.6,20.3-14.2,37.2-20.4,54.4c-23.3,64.6-23,64.3,30.8,107.8
			c11.4,9.2,16.9,11,22.8-4.7c8-21.3,16.1-43,27.4-62.7c13.9-24.3,15.5-42.1-12.5-57.4C2508.7,1888.8,2494.9,1874.5,2477.1,1860.4z
			 M2418.8,2026.8c-41.7,76.6-41,87.9,7.6,131.9c1.4,1.2,2.7,2.5,4,3.8c7,7.7,11.5,8.7,17.9-2.2c42-70.8,40.8-79.3-22.6-129.6
			C2423.7,2029.1,2421.1,2028.1,2418.8,2026.8z M2375.7,2160.8c-3.7,2.5-7.3,5.1-11,7.6c-11.2,30.5-22.3,61-33.7,91.4
			c-2.3,6-1,10.6,2.7,15.1c13.2,15.8,26.6,31.5,42.1,49.9c14.9-33.8,28.2-64.5,42-95c3.5-7.8,1.7-13.1-3.7-19.5
			C2400.7,2194.3,2388.4,2177.3,2375.7,2160.8z M2215.4,2205.2c-11.5,22.8-21.1,42.4-31.2,61.6c-3.9,7.3-3.7,13.1,1.4,19.9
			c18.7,24.6,36.9,49.6,57.9,77.9c10.4-28.1,19.5-52.7,28.5-77.2c2.3-6.4,1.8-12.5-2.8-18
			C2251.7,2248.7,2234.4,2227.9,2215.4,2205.2z M2226.9,1362c-27.3-0.3-48.3,20.9-48.3,48.6c0.1,27.8,21.1,48.8,48.4,48.4
			c25.7-0.4,46.7-21.3,47.3-47.2C2275.1,1384.7,2253.7,1362.2,2226.9,1362z M2293.8,2226.1c11.4-30.8,21.5-57.9,31.6-85
			c2.9-7.8,0.2-13.3-5-19.6c-38.6-46.4-40.3-46.3-66.6,6.3c-3.7,7.4-7,14.9-11.1,22c-3.6,6.4-3.5,11.8,1.3,17.5
			C2259.9,2185.7,2275.5,2204.4,2293.8,2226.1z M2561.2,2151c-1.6-18.7-21.6-27.7-36.5-35.5c-11.4-6-11.9,14-16.3,22.4
			c-9.7,18.4-17.8,37.8-25.3,57.2c-8.8,23,15.5,27.4,24.6,40.2c5.3,7.5,10.8,3.2,15.3-2.4C2541.5,2210,2554.9,2184.5,2561.2,2151z
			 M2563.6,1869.2c1-53.1-7.5-100-13-148.8c-40.8,16.5-44,54.5-52.6,86.2c-5.9,21.9,23.7,25.7,35.6,39.4
			C2540.6,1854,2550.6,1859.3,2563.6,1869.2z M2347.1,2080.7c8.3-22.9,16.1-44.3,23.7-65.7c6.8-19.2-8-47.4-26.9-52.5
			c-6-1.6-7.7,1.8-10.5,5.5C2293.6,2018.6,2295.6,2039.6,2347.1,2080.7z M2397.1,1943c12.7-34.3,25.2-68.5,37.9-102.6
			c5.6-15.1-6.7-19.5-15.4-24.9c-12.9-8-12.5,6.2-15.5,11.8c-9.8,17.5-18.3,35.8-27.3,53.8C2357.9,1919.1,2357.9,1919.1,2397.1,1943
			z M2069.8,2387.5c3.6-4,5.1-5.2,5.9-6.7c10.4-20.4,20.7-40.7,31-61.2c21.5-43,21.5-43.1-14.3-77.2
			C2061.5,2287.3,2060.1,2296.1,2069.8,2387.5z M2233.8,1877.9c-0.5-3.1-0.2-5.6-1.2-6.5c-12.3-10.7-23.3-25.7-37.6-30.3
			c-12.5-4-12.6,16.2-19.6,24.6c-2.8,3.4-4.3,8-6.4,12c-10.6,20.5,2.8,52.1,25.2,59c2.2,0.7,6.3,0.7,7-0.5
			C2212.4,1916.6,2223.3,1896.8,2233.8,1877.9z M2021,2061.4c8.6-16.4,16-29,22-42.3c13.3-29.6-17.2-38.7-28.8-55.6
			c-11.1-16.3-18.8,4.7-27.7,9c-17.7,8.4-20.7,19.3-5.9,35.3C1994.8,2023.1,2005.9,2041,2021,2061.4z M2087.3,2146.9
			c38.9-68.6,42.1-47.7-4.1-98.2C2046.5,2096.3,2047,2109.4,2087.3,2146.9z M2143.7,2044.9c9.1-16.8,17.2-31,24.5-45.5
			c6.4-12.6-17.6-51.3-31.5-50.6c-2.8,0.1-5.8,3.7-7.9,6.3c-24.1,29.2-23.8,44.8,1.3,74.2
			C2133.8,2033.4,2137.3,2037.5,2143.7,2044.9z M2148.6,2232.5c38.9-74.3,44.2-63.3,2.3-99.5
			C2112.2,2192.1,2112.2,2192.1,2148.6,2232.5z M2203.5,2116c5.4-0.6,7.1-4.8,9.1-8.9c7.2-14.7,13.6-30,22.2-43.8
			c13.7-22-5.1-31.4-17.1-38.5c-15.2-8.9-14.5,10.9-20,18.1c-7.1,9.3-11.9,20.4-16.8,31.1C2177.1,2082.3,2195.6,2115.4,2203.5,2116z
			 M2265.6,2000.9c10.2-20.4,20-40.8,30.6-60.8c10.2-19.3-7.5-24.6-17.1-30.9c-13.3-8.8-12.5,8.1-17,13.9c-5.5,7-8.3,16-12.7,23.9
			C2232.5,1978.1,2232.5,1978.1,2265.6,2000.9z M2071.5,1958.4c13.1-12,20.8-27.2,24-42c3.2-15-14.8-29-23.4-28.7
			c-15.3,0.4-25.4,20.4-27.1,32.7C2043.1,1934.3,2060.6,1945.2,2071.5,1958.4z M2358.8,1813.8c-30.4-1.9-46.7,10.1-57.9,34.6
			c-8.5,18.6,5.5,22.5,14.3,29.3c14,10.9,13.9-5.5,17.2-11.4C2341.8,1849.9,2349.6,1832.5,2358.8,1813.8z M1995.3,2108.3
			c-0.4-5.4-64.6-92.6-68.3-93.3c-8-1.5-14.7,2.9-19.9,7.4c-6.4,5.5,1,9.4,4.5,12.5c25.9,23.3,50.7,47.6,72,75.3
			c2,2.6,3.9,7,8.3,3.7C1993.7,2112.5,1994.5,2109.6,1995.3,2108.3z M2193.9,2376.5c-14.7-18.6-21.6-45-38.3-44.3
			c-12.5,0.5-17.6,28.7-25.5,44.7c-0.7,1.4,0.2,3.5,0.5,6.1C2150.7,2385.8,2169.7,2378.5,2193.9,2376.5z M2142.2,1821.3
			c-17.9,7.6-39.5-12.5-48.7,5c-11,20.9,17.4,26.5,27.5,41.9c6.8-12.1,12.7-22.2,18.1-32.5
			C2140.7,1832.6,2140.7,1828.8,2142.2,1821.3z M2569.2,2009.1c-33.1,46.4-33.6,56.8-3.7,72.3
			C2566.7,2058.4,2567.8,2036.7,2569.2,2009.1z M2025.2,2149.6c-7.7,31.2,14.9,47.7,20,71.7
			C2065.3,2195.6,2065.3,2195.6,2025.2,2149.6z M1841.8,1649.8c-15.9,33,8.2,70.7-13.3,102.9
			C1859.6,1721.6,1848.4,1685.4,1841.8,1649.8z M2443.9,2294.8c11.9-6.9,28.5-7.9,31.5-24c0.8-4.6-9.7-15.4-14.7-12.8
			C2447.3,2264.8,2446.5,2280.2,2443.9,2294.8z M2300.3,2353.5c10.6-3.3,23.5-0.7,26-9.8c2.7-10-8.9-14.9-16.4-21.6
			C2304.5,2332.3,2300.1,2340.1,2300.3,2353.5z"/>
		<path class="st0" d="M1629.4,581.9c0,62-45.6,108.4-106.2,108.2c-58.5-0.2-106.6-48-107.2-106.6c-0.6-59.3,48.5-108.3,108.3-108.1
			C1583.7,475.6,1629.4,521.9,1629.4,581.9z M1462.7,583.7c0.5,33.3,28.5,61.1,61.5,60.9c34.2-0.2,61.5-29.3,60.5-64.4
			c-0.9-33.3-29.6-60.6-62.6-59.6C1489.2,521.7,1462.2,550.4,1462.7,583.7z"/>
		<path class="st0" d="M1688.9,603.8c0.3-36.3,26.1-62.2,62.2-62.3c36-0.1,65.1,28.9,64.5,64.3c-0.6,34.4-28.9,62.1-63.7,62.4
			C1714.8,668.3,1688.6,641.6,1688.9,603.8z"/>
		<path class="st0" d="M1188.6,604.4c0.1-37.3,26.5-63.4,63.6-62.9c34.5,0.5,62.4,28.1,63,62.3c0.6,35.1-28.2,64.1-63.8,64.4
			C1214.6,668.3,1188.4,641.8,1188.6,604.4z"/>
		<path class="st0" d="M1941,731.2c-0.7,34.3-32,64.3-66,63.2c-34.7-1.1-63.4-32-62.1-66.8c1.3-34.7,29.2-61.2,64.3-61
			C1912.6,666.8,1941.7,696.2,1941,731.2z"/>
		<path class="st0" d="M915.4,1278.3c44.6-0.1,80.6,35.8,79.8,79.6c-0.7,42.6-36.8,78.3-79.3,78.5c-43.5,0.2-79.7-36.6-79.2-80.6
			C837.3,1312.1,871.5,1278.4,915.4,1278.3z"/>
	</g>
</g>
</svg>
