<?xml version="1.0" encoding="utf-8"?>
<!-- Generator: Adobe Illustrator 23.0.0, SVG Export Plug-In . SVG Version: 6.00 Build 0)  -->
<svg version="1.0" xmlns="http://www.w3.org/2000/svg" xmlns:xlink="http://www.w3.org/1999/xlink" x="0px" y="0px"
	 viewBox="0 0 3000 3000" style="enable-background:new 0 0 3000 3000;" xml:space="preserve">
<style type="text/css">
	.st0{stroke:#000000;stroke-width:10;stroke-miterlimit:10;}
</style>
<g id="Layer_1">
</g>
<g id="Layer_2">
	<g>
		<path class="st0" d="M628.4,2233.8c-20.8-24.1-41-45.5-59-68.7c-70.9-91.7-102.5-196.8-102.9-311.7c-0.6-186.2-0.6-372.5,0-558.7
			c0.4-135.6,43.8-255.1,138.4-353.6c15.7-16.3,14.3-26,2.8-43.3c-86.4-130.2-126-272.4-99.7-428.4
			c30-177.6,133.1-299.6,299.9-362.2c184.1-69.1,370.7-64.8,554.7,5c63,23.9,119.1,60.1,158.3,116.6c14.5,20.9,23,6.7,33.5-1.1
			C1736,91.7,1939.6,53.5,2158.7,99.3c241,50.4,324.9,230.6,300.6,440.9C2442,690,2376.2,819.3,2279.1,933
			c-17.5,20.5-22.8,32.7-3.5,57.7c61.6,79.9,94.5,172.2,95.2,273.4c1.5,205.7,2.2,411.4-0.1,617.1
			c-1.5,131.9-54.4,243.8-147.2,337.1c-4.3,4.4-8.7,8.6-13.3,12.7c-4.6,4-9.5,7.7-15,12c10.2,12,23,12.6,33.6,16.7
			c147.3,57.1,211.5,199.2,156.4,347c-51.8,139-156,208.4-298,239c-225,48.6-438.8,16.9-647.1-72c-20.7-8.8-28-7.4-37.5,14.1
			c-37.6,85.5-101.9,140.5-196.1,152.9c-130,17.1-260.4,28.6-391.4,9.4c-228.9-33.7-346-173.4-373.5-390.9
			c-5.4-42.9-5.1-85.8,1.9-128.5C461.1,2325,520,2257.3,628.4,2233.8z M1379.3,2310.4c161.6,0,317.2,0,472.7,0
			c15.4,0,30.7,0.2,46-0.6c233.5-11.9,421-206.1,422.8-440.3c1.5-197.5,1.6-395.1,0-592.6c-2-237.7-194.9-436.2-432.8-439
			c-312.1-3.7-624.4-3.4-936.5-0.1c-227.1,2.4-419.2,185.2-429.7,411.7c-10,215.6-10,432,0,647.6
			c10.6,228.9,203.3,408.7,431.8,412.9c113.6,2.1,227.2,0.2,340.8,0.8c14.6,0.1,24.3-3.7,33-16.4c45.5-66,73.7-138.3,84.9-217.8
			c9.9-70.9-3.8-140.8-5.6-211.2c-0.6-21.8-4.7-29.9-28.2-30.4c-82.8-1.8-165.7-5.9-248.4-9.7c-7.9-0.4-18.8,5.5-23.7-7.1
			c-9.2-23.8,4.8-43.6,30.7-42.8c79.8,2.5,159.6,4.5,239.3,8.2c20.4,1,29.3-2.1,28.9-25.4c-1.1-67.5-0.9-135.1,1.3-202.6
			c0.8-24.2-7.4-28.8-29.4-28.5c-97.2,1-194.5-0.1-291.7,0.8c-21.8,0.2-27.7-7.3-28-28.4c-0.4-22,9.2-24.6,27.5-24.5
			c98.3,0.7,196.5-0.5,294.8,0.9c23,0.3,29.3-6.3,29.9-28.7c2.2-87.9,5.5-175.9,10-263.8c3.5-68.7,4.6-68.3-65.4-65.7
			c-107.2,4-211.8,19.6-309.2,67.8C938.1,1238.3,865,1321.6,836,1436.8c-45.4,180.7-43.4,362.6,4.4,543c6.7,25.4-2.8,29.8-22.5,36.7
			c-24.8,8.7-23.4-8.1-27.4-22.1c-43.9-153.3-46.6-310.1-26.1-465.8c32.9-249.2,165.8-389.6,410.6-440.7
			c187.8-39.2,377.4-31.9,564,5.7c238.1,47.9,363.4,187.3,392.1,428.8c19.9,167.9,23.8,336.5,0.2,504.9c-2.3,16.5-8.1,22.5-23,18.6
			c-12.8-3.4-34.2,2.2-28.3-24.2c2.2-9.9,1.9-20.4,3.1-30.5c21-166.6,15.6-333.2-8.4-498.7c-21.3-146.6-96.8-256.6-236.9-315.8
			c-110.6-46.7-227.6-55.4-345.7-57.9c-15.5-0.3-18.2,6.4-18.8,20.1c-3.4,85.9-6.6,171.8-12.3,257.5c-1.8,27.9,5.1,33.1,32.6,29.5
			c94.5-12.4,165.4,27.5,213.3,107.5c25.3,42.3,34.6,89.1,6.4,133.8c-13,20.6-9.9,35-1.4,55.4c45.2,109.3-2.1,231.9-126.6,266.7
			c-38.3,10.7-76.8,8.6-117.7-2.3C1471.5,2103.5,1442.8,2209.2,1379.3,2310.4z M1197.2,786.2c92.1,0,184.1-0.1,276.2,0.1
			c14.3,0,24.8,0.6,25.2-20c2.8-137,6.6-274,10.7-411c1.7-56.8-22.8-100.5-64.8-136c-25.1-21.2-52.7-39-83-51.6
			c-179.9-74.6-362.3-78.7-543.7-9.6C688.4,207.4,601.5,301.3,567,436.4c-40.1,156.9-3.4,301.3,83.5,435.2
			c10.7,16.5,18.5,11.9,31.2,3c87.5-60.9,184.9-89.5,291.4-88.6C1047.8,786.7,1122.5,786.2,1197.2,786.2z M2285,2352.2
			c-39.4-32.9-80.1-47.5-122.3-60.3c-17.4-5.2-30.1-3.1-45.3,5.6c-74.3,42.5-154.4,63.4-240.4,62.8c-73.7-0.6-147.3,1.2-221,0.3
			c-25.7-0.3-48.2,5.8-69.6,19.2c-36.9,23-69.2,51.3-94.9,86c-17.5,23.6-38.8,47-41.7,77.3c-4.8,50.9-9.6,101.7-18.2,152
			c-2.4,13.9,2.4,20.3,14.4,25.6c229.6,101.6,464.2,130.6,707.6,52.9c84.7-27.1,136.5-85.9,174.4-161.8c8.4-16.9,3.7-21.2-13.9-20.6
			c-52.1,1.9-104.3,2.8-156.5,4.1c-27.7,0.7-55.5-0.1-82-8.8c-37.5-12.4-65.2-36.7-72.6-76.1c-7.4-39.6,10.1-72,40.7-96.9
			c17.6-14.3,37.8-23.8,59.8-29.9C2160.9,2367.5,2220,2362,2285,2352.2z M1333.7,2440c-0.8,10.5-1.3,17.5-1.9,24.5
			c-10.2,110-52.4,203.2-143.9,269.4c-146.1,105.7-311.7,99.2-432.4-21.2c-82.4-82.2-132.6-182.8-148.3-299.5
			c-5.1-37.9-5.6-76-5.2-117.8c-45.9,18.2-74.7,46.3-91.7,86.8c-21.2,50.4-24.4,103.5-18.9,156.7c12.1,115.3,47.2,220.5,146.6,291.6
			c73,52.2,157.7,70.4,245.6,75.6c96.2,5.7,191.9-2.9,287.7-11.7c95.5-8.8,159.8-55.6,192.7-145.7c25.3-69.2,30.5-141.7,33.2-214.1
			C1398.7,2492.6,1375.6,2461.5,1333.7,2440z M1749.3,178.2C1678.7,202.8,1619,241,1563,285.7c-6.2,5-7.4,10.8-6.4,18.9
			c5.7,44.8,4.7,89.9,1,134.7c-2.3,27.7,5.7,36.5,33.8,37.4c158.4,5,316.7,11.7,475,17.9c107.2,4.2,214.5,8.4,321.7,12.4
			c10.6,0.4,21.6,4.3,24.7-13.6c17.2-99.2-46.7-238.7-134-293c-19.8-12.3-23.4-5.8-24.7,13.6c-2.7,41.8-18.8,79.4-40.8,114.2
			c-40,63.1-95.5,62-133.8-2.3c-30-50.5-44.7-106-39.6-164.2c3.7-42.4-27.5-26.2-44.5-29.8c-25-5.3-19.3,14.3-19,29.6
			c1.5,73-18.7,139.6-66.1,195.6c-36.2,42.8-78.6,39.3-111.9-5.6C1761.1,300.6,1748.4,242.7,1749.3,178.2z M981,2756.4
			c20-1.7,44.4-3.4,68.3-9.7c136.1-36.4,231.6-159.8,232.9-300.2c0.2-21.2-8.2-22.4-23.9-15.1c-14.7,6.8-24.1,18.8-30.9,32.8
			c-12.9,26.6-24.4,53.9-37.9,80.2c-24.3,47.3-60.1,81.8-112,98.5c-133.4,43-249.2-24.4-285.2-166.8c-11-43.5-15.3-88.6-32.2-130.6
			c-13.9-34.4-40.2-52.3-75.2-60.7c-20.3-4.9-28.7-0.5-30.3,22.6c-9.7,138.6,36.4,257.4,127,359.7
			C832.9,2724.8,898.6,2755.1,981,2756.4z M1520.7,2361c-123.3,0-238.8,1.8-354.2-0.5c-112.1-2.2-225.2,13.2-335.8-17.7
			c-10-2.8-16.6-1.3-13.1,11.4c14.4,51,19.6,104.3,38.5,154.2c23.1,60.8,70.5,88.4,132,93.3c60.5,4.8,114.7-10.1,147.1-67
			c19.2-33.6,33.4-70.1,52.5-103.8c24.8-43.7,64.2-60.8,113.8-54.7c45.9,5.6,82.5,28,112.6,62.4c5.8,6.6,8.6,16.6,20.1,18.5
			C1456,2422.5,1485.4,2394.3,1520.7,2361z M2116.7,698.2c0,43,0.2,85.9-0.1,128.9c-0.1,13,1.8,23,14.9,30.4
			c27.6,15.6,53,34.8,76.2,56.5c8.4,7.9,13.7,8.7,22-0.8c84-96.6,144-205.5,171.6-331.3c4-18.1-1.9-22.7-18.9-23.3
			c-80.7-2.9-161.5-6.2-242.2-10.6c-19.9-1.1-24.2,6.4-23.8,24.3C2117.4,614.3,2116.7,656.3,2116.7,698.2z M2064.5,686.4
			c0-37.9-0.7-75.7,0.3-113.6c0.5-18.2-2.9-27.6-24.3-28c-63.4-1.3-126.8-4.2-190-8c-20.2-1.2-20.9,8.6-20.8,23.7
			c0.4,66.5,1.2,133-0.3,199.5c-0.5,22.6,7.6,27.4,28.2,26.6c63.9-2.4,126.6,6.3,186.6,29c17.7,6.7,21,0.7,20.7-15.7
			C2064,762.1,2064.5,724.3,2064.5,686.4z M1779,662.1c0-34.7-0.8-69.5,0.3-104.1c0.6-17.2-5.4-22.8-22.5-23.2
			c-60.2-1.6-120.4-4.4-180.5-7.4c-15.3-0.8-22.2,3.4-22.4,20c-1,72.5-2.6,144.9-4.7,217.4c-0.4,15.4,4.1,22,20.7,21.8
			c62.3-0.7,124.6-0.8,186.9,0.1c17.9,0.2,22.9-6.7,22.5-23.4C1778.4,729.5,1779,695.8,1779,662.1z M1458.8,1592.4
			c-1.2,0-2.4,0-3.5,0c0,29.6,0,59.2,0,88.8c0,10.3-0.9,19.5,13.9,22.2c62.7,11.4,122.3,6.8,175.2-32.3c32.6-24.1,41.2-54.9,27.9-92
			c-27.9-78.1-117.5-122.8-196.7-99.2c-12.3,3.6-16.9,8.8-16.8,20.6C1458.9,1531.1,1458.8,1561.7,1458.8,1592.4z M1507.4,1759.2
			c-8.2-0.5-16.7,0.4-24.4-1.9c-24.6-7.4-29.4,3.2-27.7,25.6c3.1,42.7,4.6,85.6,5.8,128.4c0.4,13.1,5.3,19.9,17.5,24.7
			c50.7,20,119.8,5.8,159.4-33.8c39.5-39.6,50.7-103.1,28.9-156.5c-6.4-15.7-12.5-19.8-28.7-11.3
			C1597.4,1755.9,1552.9,1760.8,1507.4,1759.2z M2211.1,2543.9c33.3-1.5,57.7-2.7,82.2-3.8c64.6-3.1,68.8-8.4,57.8-73.5
			c-10.5-62.1-17.8-67.6-78.8-59.9c-8.1,1-16.3,1.1-24.4,2.4c-52.1,8.7-105.7,11.1-154.6,33.8c-23.2,10.7-43.1,27.8-39.5,55.9
			c3.7,28.4,28,38,53.1,43.2c8.9,1.8,18.2,1.8,27.4,1.9C2162.8,2544,2191.4,2543.9,2211.1,2543.9z M1924.6,177.8
			c-8.6-10.4,14.3-41.2-20.2-39.1c-28.2,1.7-56,10.3-84.1,15c-13.6,2.3-19.2,9.4-19.4,22.6c-0.9,49.8,7.1,97,35.3,139.8
			c14.9,22.7,27.3,20.7,41.2,1.1C1906.3,276.5,1923.2,231.2,1924.6,177.8z M2204.9,194.3c-2.3-13.4,5.4-28.5-14.2-34
			c-26.6-7.4-52.8-15.4-80.5-18.3c-11-1.1-17.2,0.3-18.3,13.1c-4.9,55.9,7.1,107.6,38.5,154.2c12,17.8,23.8,14.6,35.4-2.2
			C2189.4,272.5,2202.6,234.7,2204.9,194.3z"/>
		<path class="st0" d="M1066.3,627.3c-65.3,1.1-120,29-170.6,67.5c-7.3,5.6-14.2,11.6-21.2,17.6c-12,10.2-24.5,11-35.5-0.4
			c-11.8-12.3-10.8-26,1.1-38c15.1-15.3,29.2-31.3,41.3-49.2c34.5-51.3,36.8-105,11.8-160.2c-13-28.8-28.5-56.5-42.5-84.9
			c-8.6-17.4-13-35.4,4.4-50.3c17.9-15.3,34.8-6.3,49.7,5.4c22.5,17.7,43.7,36.9,66,54.8c74,59.2,133.5,56.2,200.1-10.5
			c20.9-20.9,39.6-44.1,60.4-65.2c13.3-13.4,29.2-23.9,49.2-13.1c19.6,10.7,20.9,28.6,16.2,47.9c-7.8,31.7-18.1,62.9-23.3,95
			c-9.1,56.1-6.6,111.9,11.3,166.6c5.7,17.4,8.9,35.6,13.6,53.4c4.7,17.8-0.3,32.7-14.5,43.5c-14.8,11.2-31.7,8.8-46.1-0.5
			c-19.7-12.7-37.8-27.9-57-41.4C1146.5,641.4,1108.9,627,1066.3,627.3z M950.7,601c106.3-41.7,200.4-29.5,291.3,46.4
			c-28.3-87.6-33.3-165.8-14.3-248c-88.1,96-183.2,113.6-290.5,32.5C960.3,486.4,969.7,539.6,950.7,601z"/>
	</g>
</g>
</svg>
