<?xml version="1.0" encoding="utf-8"?>
<!-- Generator: Adobe Illustrator 23.0.0, SVG Export Plug-In . SVG Version: 6.00 Build 0)  -->
<svg version="1.0" xmlns="http://www.w3.org/2000/svg" xmlns:xlink="http://www.w3.org/1999/xlink" x="0px" y="0px"
	 viewBox="0 0 3000 3000" style="enable-background:new 0 0 3000 3000;" xml:space="preserve">
<style type="text/css">
	.st0{stroke:#000000;stroke-width:10;stroke-miterlimit:10;}
</style>
<g id="Layer_1">
</g>
<g id="Layer_2">
	<g>
		<path class="st0" d="M1607.3,1287.6c9.2-32.2,15.9-59.6,24.7-86.3c28.4-86.3,75.1-157.6,163.4-193.4c52-21.1,106-23.7,160.7-15.7
			c16,2.3,29.7,1.5,44.3-7.3c31.8-19.2,67.6-26.2,104.5-26.2c213-0.1,426-0.5,639,0.1c123.9,0.3,212.3,89.4,213,213.2
			c0.3,57.1-0.4,114.3,0.2,171.4c0.7,59.3-19.3,110-60.7,152.4c-6,6.1-16.9,10.6-4.1,21.9c65,57.4,76.5,132.3,67.9,213.3
			c-4.3,40.3-8.9,80.6-17.9,120.4c-11.8,52.3-42.6,89.8-87.3,117.4c-66.2,40.8-140.1,59.1-215.7,69.2
			c-183.5,24.6-367.7,22.5-551.7,5.3c-57.5-5.4-112.1-22.4-158-59.7c-9.5-7.7-19-6.2-29.3-5.3c-55,4.7-109.2,0-160.9-19.9
			c-111.8-43.1-159-131.9-170.5-245.2c-9.7-95.7,5.5-189.8,17.7-284.2c1.2-9,5.1-18,0.1-30.4c-13.8,36.5-30.8,68.2-58.4,92.8
			c-10,8.9-2.5,17.9-0.5,26.3c21,85.1,35.1,171.1,30.7,259.2c-1.6,32.9-5.2,65.7-15.1,97.2c-41.8,132.3-101.6,160.2-204.4,169.7
			c-178.8,16.4-357.8,19.3-536.8,4.5c-61.1-5.1-122-14.8-180.3-35.4c-17.9-6.3-38.2-11.1-51.8-23c-34.3-30.1-65.3-26.2-103.6-6.3
			c-42.9,22.3-90.8,32.3-139.8,35.5c-125.6,8.1-216.9-51.8-259.6-171.2c-22.1-61.9-30.2-126.4-29.9-191.4
			c0.5-106.5,4.5-213,40.9-314.9c26.7-75,66.6-143.2,120.7-201.2c114.8-122.8,255.4-149.6,413.2-103.3c10.2,3,19.1,5.8,29.8,1.1
			c97.5-43.2,199.8-67.7,306.3-72.3c131.5-5.7,263.1-7,392.6,23.2c51.8,12.1,99.9,34.2,144.5,62.8
			C1564.7,1102.7,1597.4,1165.8,1607.3,1287.6z M595.3,1059.4c-3.3-2.4-5-4.6-7.2-5.1c-122-31.9-235.9-17.2-334.4,65.4
			c-78,65.5-129.4,150.8-159.4,247.5c-36,116.5-37.9,236.8-30.1,357.2c3.2,49.2,14.4,97.5,35.7,142.6
			c40.5,85.8,108.1,129.7,203.5,129.8c64.5,0.1,123.9-19.7,182-45.3c16-7,18.8-11.8,5.8-26.3c-40.6-45-68.4-97.3-81.4-156.9
			c-23.7-108.1-5.2-211.3,36.7-311.6c6.5-15.4,8.7-27.4-2-42.6c-15.7-22.4-20.8-49.4-21.4-76.5c-1.4-71.8,24.1-134.8,65.6-192
			C516.2,1107.8,554.9,1083.2,595.3,1059.4z M2789,1527.3c84.5-16.4,144.3-90.7,145.6-178.3c0.9-56.2,0.2-112.5,0.2-168.7
			c-0.1-120.5-77.3-197.7-198-197.8c-176.5-0.2-353.1-0.1-529.6,0c-41.5,0-83.2-1.2-124.6,1.2c-83.6,4.8-160.2,76.6-164.7,159.6
			c-4.2,75.9-3,152.3-0.1,228.3c1.7,45,23.8,82.7,62.4,116.4c-2.3-41.4,0.6-76.6,3.8-111.8c13.5-146.9,108-256.7,252.6-284.1
			c114.1-21.6,230.4-29,346.3-18.6c177.8,16.1,264.5,123.4,249,301.9C2827.3,1427.6,2810.3,1476.5,2789,1527.3z M1956.4,1016.6
			c-9.9-2-14.9-3.4-19.9-3.9c-116-11.5-221.4,34.2-273.6,170.3c-19.5,51.1-31.3,104.1-39.3,158.1c-16.6,112.8-38.2,225.2-33.9,340.1
			c2.1,56.4,11.6,111.1,44,163.8c4.7-22.8,15.6-32.7,35.4-30.3c14.2,1.7,21.7,12.1,23.2,24.2c3.2,24.5-17.8,29.1-37.4,35.8
			c14.5,13.9,25.1,27.6,44,34.6c-0.8-22.3,6.5-39.3,30.1-40.7c12.9-0.8,23.3,6.9,26.6,20.5c5,20.4-6.5,31.6-26.2,38.8
			c15.3,8.7,29.1,14.2,45.6,16.7c-14.4-27.3-12.5-43.7,5.5-52.2c17.3-8.2,30.6-1.9,38.6,14.4c8.9,18-0.8,32.5-27.3,41.9
			c34.1,8.9,67.9,8.9,106,5.8c-61.8-78.9-72.7-166.4-61.9-258.3c8.6-72.9,32.1-141.6,67.2-205.8c12.4-22.7,18.9-41.8,4-66
			c-7.3-11.9-9.6-27.7-11.5-42.2c-8-60.3-1.5-121-4-181.4C1889.1,1132.4,1902.9,1070,1956.4,1016.6z M957.4,2033.1
			c35,0,62.7-0.7,90.3,0.3c15,0.5,20.6-3.9,16.4-19c-12.9-46.6-10.3-94.3-9.6-141.8c1.5-97.6,41.8-157.2,132.6-193
			c21.6-8.5,44.1-15.5,66.9-20.2c82.5-17,166.2-22.2,250.3-19.4c21.4,0.7,25.3-5,20.3-24.5c-7.2-28.4-12.9-57.3-17.8-86.2
			c-2.7-15.7-8.3-15.5-20.4-8.7c-29.5,16.7-61.5,27.5-94.6,34.7c-80.1,17.6-161.3,19-242.8,16c-16.8-0.6-25.3,3.2-33,19.7
			c-24.9,53.1-66.9,84.2-126.7,90.1c-38.1,3.7-75.9,2.6-114,0c-86.3-5.9-141.1-49.6-164.1-133.2c-3.3-11.9-66.8-30-75.8-21.9
			c-1.1,1-1.3,3-1.7,4.6c-4.1,16.5-16.3,28.2-24.8,42.2c-11.5,19-12.3,40.4-2.8,59.7c8.7,17.6,27.8,14,44.1,14.4
			c9.5,0.3,19,1,28.4,1.2c20.6,0.4,32.1,11,34.5,31.3c2,17.1,4.1,34.3,4.9,51.6c0.8,16.5,7,25.1,24.1,30.5
			c65.6,20.8,90.1,56.7,89.1,125.4c-0.6,40.8-7.5,80.9-16.3,120.5c-3.4,15.2-0.7,19.9,14.7,20.3
			C874.8,2028.7,919.5,2035.3,957.4,2033.1z M1444.9,1510.3c2.2,1.4,3,2.3,3.5,2.2c3.3-1,6.6-2,9.7-3.3
			c72.7-29.9,102.2-90.6,118.3-162.4c24.8-111-12-215.9-100.8-273.9c-51.7-33.8-108.2-58.6-169.6-68.4
			c-142.6-22.8-286.1-26.4-429.3-8.8c-110,13.5-215.1,46.1-308.1,108.4c-85.9,57.5-124.2,141.5-121.4,243.9
			c1.5,56.3,49,109.4,107,122.8c-0.6-3.7-1-7-1.7-10.1c-14.2-61.3-19.5-122.8-7-185.2c21.2-106.2,103.7-184.2,226.4-202.6
			c160.3-24,321.8-19.6,480.8,8.1c159.2,27.8,231.1,127.7,223.2,289.5C1473.6,1419,1459.3,1465,1444.9,1510.3z M2048.2,1249.3
			c-5.1,10.1-9,17.6-12.6,25.2c-23.4,49.4-30.5,102.4-33.4,156.2c-4.2,79.4,16.6,101.7,97.1,102.7c76.1,0.9,152.3-0.1,228.5,0.7
			c15.7,0.2,21.9-4.6,26.7-20.1c49.9-161.5,157.5-260.2,323.8-293.5c33.4-6.7,67.7-7.8,104.6-8.9c-19.6-36.6-45.3-62.2-78.7-80.3
			c-58.1-31.5-121.3-38.2-185.9-38.5c-34.7-0.2-34.8,0-34.9,35.4c-0.3,137.3-103.6,251.5-221.3,253.9c-3.8,0.1-8.9,0-9.8,7.4
			c16.5,12.8,40,28.2,26.5,51.1c-12.7,21.4-18.5,38.8-8.6,61.6c3.7,8.6-3.7,11.5-10.9,13.7c-9.7,2.9-9.3-4.5-11.1-9.8
			c-8.2-23.9-18.2-48,6.8-68.7c6.2-5.1,4.9-11.9-0.3-15.6c-24.7-17.6-34.5-54.8-73-54.7c-7.1,0-14.3-5.7-21.2-9.2
			C2112.7,1334,2077.3,1297,2048.2,1249.3z M1190.6,2033.1c0-0.3,0-0.7,0-1c45.7-3.2,91.4-6,137-9.8
			c116.3-9.8,175.8-61.1,198.4-171.7c10.9-53.6,13.4-107.7,8.4-162.5c-1.7-18.4-6.6-24.8-25.6-25.1c-62.3-1-124.5,0.5-186.3,8
			c-54.9,6.6-108.9,18-158.4,44.7c-44.6,24-75.1,60-82,110.1c-8.7,62.6-10.1,125.7,4.6,188.2c3.2,13.6,7.6,20.6,23.6,19.6
			C1137,2031.9,1163.8,2033.1,1190.6,2033.1z M2545,2026.7c-15.1-39.3-32.2-75.6-31.3-116.2c0.3-15.2-5.7-25.8-15.9-36.3
			c-45.2-46.5-89.7-93.7-134.4-140.7c-5.3-5.6-9.8-12.2-18.9-11.9c-43.3,1.5-85-15.3-128.8-10.8c-17.7,1.8-33.9-6-47.7-17.4
			c-19.3-16-22.8-39.2-2.9-53.1c21.4-15,21.1-34.3,25-55.3c4.7-25.3-4.5-30.6-27.9-29.7c-32.7,1.3-65.8,3.2-98.4-2.2
			c-51.5-8.6-92.8-35.7-127.9-75.6c-37.7,65.5-62.1,133.2-75.1,205.1c-1.4,7.7-3,16.8,9.4,16.4c40.5-1.3,81.2,3.3,121.6-3.8
			c27.8-4.9,42.9-18,36.3-48.5c-1.4-6.6-0.1-13.8,0-20.7c0.2-9.1,6-11.4,13.8-11.5c8.2-0.1,10.1,4.8,10,11.7
			c-0.1,13.8,0.4,27.7-0.1,41.5c-0.4,10.3,2.9,14.7,14,17c62.9,12.8,85.3,37.2,94.9,101.6c0.8,5.2,0,10.9,5.8,13.1
			c6.7,2.5,8.3-4,11.2-8c21.1-29.4,50.7-24.2,80.2-19.7c26.9,4.1,32.2,26.1,38,46.8c6.4,22.7,11.2,45.8,17.1,70.2
			c20.2-12.7,37.2-24,58-28.8c71.7-16.4,98.1,6,91.3,79.1c-0.9,9.4-4,18.5-5.8,27.8c-4.7,25.5-23.2,42.7-42.5,65.7
			C2460.7,2030.5,2501.6,2028.7,2545,2026.7z M894.7,1449.4c0-14.3,0.1-28-0.1-41.7c-0.1-9.1,2.2-15.3,13-14.7
			c9.5,0.5,10.8,6.6,10.8,14.3c-0.1,13,0.9,26-0.2,38.9c-1.2,14.2,7.5,18.2,18.4,19.8c15.4,2.3,10.5-10.6,11.3-17.6
			c1.7-13.7,1.6-27.6,2.3-41.4c0.4-6.9-0.3-14.1,10.2-14.1c11.3-0.1,12.2,6.6,11.9,15.3c-0.5,18.2-0.6,36.3-1,54.5
			c-0.1,7.5,1.2,13.4,10.6,14.5c11.5,1.3,9.6-6.6,10.2-13.2c1.2-14.7,2.4-29.3,3.7-44c0.6-7.1,1.1-14,11.3-13.5
			c9.3,0.5,11.5,5.7,11.1,13.7c-0.7,14.7,0,29.5-2.1,44c-2.4,16,5.3,18.3,18.5,19.6c15.8,1.5,17-6.9,16.6-18.6
			c-0.4-11.2,0.1-22.5-0.1-33.7c-0.1-9.4,0.4-16.9,13.4-16.8c12.8,0.2,10.5,8.6,10.7,16c0.2,10.4-0.3,20.8,0.2,31.1
			c0.5,11-5,24.3,15.9,24.7c21.5,0.4,21.2-11.2,20.5-26.1c-0.6-11.2,0-22.5-0.1-33.7c-0.1-6.8,1.4-11.5,9.8-11.8
			c8.7-0.2,12.8,2.9,12.7,11.9c-0.2,14.7,0.2,29.4,0.2,44.1c0,8.7,3.7,12.1,12.7,11.9c8.8-0.2,12.5-3.4,12.3-12.2
			c-0.2-10.4,0.1-20.8,0.3-31.1c0.2-8.5,6.2-9.1,12.7-9c5.8,0.1,10.2,2,10.5,8.6c0.3,6,0.8,12.2,0.2,18.1c-1.6,16.5,5.1,21,19,12.7
			c62.9-37.6,132.7-33.8,201.7-33.1c42.7,0.4,41.9,1.4,46.5-40.5c1.6-14.8-2.4-20.3-16.8-21.6c-37-3.4-73.9-7.6-110.9-11.5
			c-119.4-12.7-238.8-25.5-358.3-38.3c-126.3-13.5-252.6-26.7-378.8-40.9c-15.1-1.7-18.9,2.7-21.4,16.6
			c-8.6,48.7-9.2,48.6,38.5,44.2c9.5-0.9,19-1,28.5-1.8c66.9-5.7,127.1,8.7,176.5,57.3c4.2,4.1,8.6,11.3,17.5,8.4
			c0.2-3.5,0.5-6.9,0.6-10.3c0.1-2.6-0.2-5.2,0.1-7.8c0.7-7.9-3.3-18.3,11.2-18.2c13.9,0.1,11.4,10,11.8,18.2
			C851.7,1437.4,851.6,1437.4,894.7,1449.4z M623.1,1769.1c-62.9-0.4-114.2,6.1-164.6,20c-10.9,3-19.2,5.2-12.4,20.4
			c34.2,76.6,81.7,139.9,162.1,173.4c52.5,21.9,108,29.8,163.5,39c16.8,2.8,18.7-7.8,21.3-18.8c9.8-41.4,13.9-83.7,15.9-126
			c2.1-43.7-19.5-73-61-89.5C704.2,1770.2,658.1,1771.1,623.1,1769.1z M1122.1,1548.6c104,2.9,175.3-1.4,246.7-10.9
			c39.2-5.2,53.6-27,62.6-60c3.7-13.3,0.4-17.2-12.4-17.1c-71.3,0.5-143.9-8.7-209.7,31c-10,6.1-22.7,9.4-34.5,10.7
			c-142.5,16.6-278.6,4.2-393.4-93.6c-35.7-30.4-75.3-44.1-121.3-42.6c-20.7,0.7-41.5,1.2-62.2,1.9c-46.9,1.7-37.9,5.5-31.7,39.9
			c1.5,8.5,4.3,16.9,4.5,25.5c1.3,40.9,22.1,58.3,62.7,65.7C805.7,1530.6,980.3,1536.6,1122.1,1548.6z M2781.2,1747.2
			c-59.9,1.1-119,6.1-173.3,35.1c-52.2,27.8-74.6,72.5-72,130.2c1.5,34.1,13.2,65.8,27.9,96.4c5.3,10.9,12.2,15.2,24.4,13.6
			c76.3-10.4,151.4-23.9,222.7-55.3c77.6-34.1,112.9-94.7,119-176.3c1-13.3-2.3-20-16.1-24.1
			C2870.6,1753.8,2826.7,1745.7,2781.2,1747.2z M2291,2030c0,0.6,0,1.3,0,1.9c10.4,0,20.8,0.5,31.1-0.1c19.6-1.1,40.7,6.3,58.7-2.9
			c41.1-21,67-80.8,58.7-126.5c-3.1-16.9-11.7-23.1-28.1-23.3c-31.5-0.4-59.1,8.5-83.6,29c-20.4,17.1-31.2,13-37.8-13
			c-5.9-23.4-10.3-47.2-16.3-70.6c-7.7-29.7-19.3-36.1-54-32.3c-27.1,3-30.5,23.6-29.2,43.9c3.8,58.6-0.4,117.5,6.7,176.1
			c1.6,13.2,5.6,18.2,18.6,18C2240.8,2029.6,2265.9,2030,2291,2030z M629.9,1747.7c8.1,0,24.2-2.5,39.1,0.6
			c24.3,5.1,30.3-2.8,26.6-25.9c-9.5-59.8,4.3-52.2-56.4-52.9c-44.2-0.5-66.7-27.8-62.1-72.7c2.3-22.8,14.7-40,27.5-57.5
			c9.8-13.4,9.7-22.3-10-27c-26.9-6.3-52-18.1-77.3-29.5c-16-7.2-29.6-32.6-45.8-21.4c-12.9,9-14.3,33.9-22,51.2
			c-9.2,20.5,0,22.3,17.8,21.7c71-2.5,77.3,4,79.2,76.1c0.1,3.5,0.2,6.9,0.1,10.4c-0.4,32.6-15.5,43.5-46.9,32.6
			c-13-4.5-24.8-12.3-37.7-17.1c-28.3-10.5-38.6-3.7-39.7,25.7c-1.2,30.4,2.8,60.2,7.6,90.2c2.6,16.5,8.2,19.7,23.5,15.1
			C508.4,1750.6,565,1744.7,629.9,1747.7z M1437.1,1352.4c6.5-0.8,17.8,4.3,17.6-12.3c-0.1-12.6-3.4-17.7-17.2-19.2
			c-84.2-9.5-168.2-20.3-252.2-30.7c-134.7-16.6-269.3-33.3-404-49.9c-58.3-7.2-116.7-14-175-21.8c-25.5-3.4-25.4,17.6-28.9,31.4
			c-3.8,15,12.5,10.7,19.7,11.5c72.1,8.4,144.4,15.8,216.6,23.6c119.5,12.9,238.9,25.8,358.4,38.7
			C1259.8,1333.1,1347.5,1342.6,1437.1,1352.4z M2002.8,1799.2c-34.6-1.8-79.4,2.3-124,8.1c-6.4,0.8-16.5-2.2-18.2,9.7
			c-3.1,21.9,10.3,36.4,32,32.7c39.2-6.7,77.5-2.9,115.6,6.9c35,8.9,56.7,30,65.4,65.8c6.4,26,11.4,52.2,16.4,78.5
			c1.6,8.1-0.3,20.4,13.5,21.7c18.9,1.8,37.9,3.6,56.8,5.3c10.6,1,15-1.8,14.2-14.4c-3.1-50.9-4.9-101.9-7.1-152.9
			c-1.6-36.8-13.5-49.3-50.7-56.3C2082.5,1797.9,2047.9,1799.8,2002.8,1799.2z M734.5,1539.9c10.1,49.8,12.3,51.6,58,51.6
			c15.6,0,31.1,0,46.7,0c45.5,0,46.2,0,46.3,45.6c0,16.3,4.2,23.7,21.5,22.9c25.9-1.1,51.9,0.3,77.8-1.4
			c47.7-3.1,82.5-27.4,106.7-68.1c8.3-13.9,8.6-20-11-21.4c-75-5.3-149.9-12.3-224.8-18.7C815.5,1547.1,775.3,1543.5,734.5,1539.9z
			 M2805.8,1276.3c-6.9-11.9,3.3-36.6-26.4-39.3c-174.8-15.9-349.9,101.6-399,269.2c-2.3,8-10,18.2-4,24.4c7.2,7.4,19.7,3,29.9,2.8
			c12.2-0.2,11.1-11.7,13.9-19c66.2-170.1,194.6-247.9,373.9-226C2801.9,1289.4,2808.5,1291,2805.8,1276.3z M1932.9,1869.5
			c-10.8,0.8-19.4,1.3-28,2c-28.5,2.3-29,3.3-15.8,28c32.7,61.4,85.5,95.5,151.3,112.1c29.5,7.4,29.6,7.4,23.6-23.9
			c-2.7-14.4-6.2-28.7-8.2-43.3c-6.3-45.9-35-66.9-78.5-71.4C1961.9,1871.4,1946.4,1870.5,1932.9,1869.5z M1311.9,1201.7
			c0,21.6,0.3,43.2-0.1,64.7c-0.2,11.7,4.6,16.9,16.5,18.2c35.2,3.6,70.3,7.2,105.3,12.4c16.4,2.4,17.7-4.1,14.7-16.8
			c-16.2-68.6-53.7-120.4-118.1-151.6c-13.2-6.4-18.9-4.8-18.5,10.9C1312.3,1160.3,1311.9,1181,1311.9,1201.7z M2284.1,1689.1
			c5.1,6.2,11.3,5.5,17.1,6.2c42.1,5,84.2,4.5,126.5,0.9c73.8-6.3,108.4-56.6,86.9-127.7c-7.1-23.5-26-8.9-39.2-12.2
			c-9.4-2.3-16.7-0.5-19.6,13.1c-15.5,71-44.4,95.9-116.8,105.8C2320.7,1677.6,2301.4,1677.6,2284.1,1689.1z M2255,1642
			c-20.7-1.4-41.7-5-61.4,4.1c-7.7,3.5-16.3,8.8-16.3,18.5c0,9.7,8.5,14.6,16.5,18c15.7,6.7,30.8,7.3,46.9-1.5
			c29-15.8,60-25,93.5-28c37-3.4,71.3-15.2,90.2-51.4c17.8-34.2,10.8-45.8-26.6-45.8c-4.3,0-8.7,0.5-13-0.1
			c-17.6-2.6-24.7,3.3-28.4,22.3c-10.1,51.2-30.8,65.6-83.2,63.9C2267.1,1641.8,2261,1642,2255,1642z M1935.4,1776.3
			c32.7,0,63.6-0.9,94.5,0.3c31.9,1.2,64-1.4,95.5,5.8c14.3,3.3,10.6-8.1,9.5-14.5c-4.9-28.4-24-45.1-49.4-55.2
			C2032.5,1691.5,1965.1,1719.9,1935.4,1776.3z M1000.5,1088c-1.2-1.9-2.3-3.8-3.5-5.7c-18.1,4.9-40.1-8.9-54.4,6.5
			c-39.2,42.1-75.9,86.6-115.7,132.5c24.6,3.5,49.5,17.5,64.9,0.6C930.5,1179.5,964.5,1132.9,1000.5,1088z M2904.4,1686.2
			c38.5,2.1,38.1,1.6,33.9-33.2c-5.5-45.9-26.4-83.5-58.1-115.9c-5.2-5.3-11.4-13.1-19.6-8.7c-6.4,3.4-5.2,12.4-5.1,19
			c0.2,34.7,6.6,68.7,11.6,102.9C2870.9,1676.2,2878.6,1692.7,2904.4,1686.2z M2699.7,1618.3c0-5.2,0.1-10.4,0-15.6
			c-1.5-54.4,10.5-45.4-48.6-47.2c-16.5-0.5-20.9,5.7-20.4,21c0.9,25.1,1.4,50.3-0.1,75.3c-1.1,18.2,5.5,23.9,23.1,24.2
			c52.9,1.1,45.2,11,46-42.2C2699.7,1628.7,2699.7,1623.5,2699.7,1618.3z M2608,1616.9c0-64,0-64-54.2-61c-0.9,0-1.7,0.1-2.6,0
			c-11.8-1.1-14.1,3.7-12.4,15.3c4.1,28.3,4.7,57-5.9,84.3c-4.5,11.5-1.8,14.4,9.9,16.2C2608,1681.8,2608,1682.1,2608,1616.9z
			 M916.7,1233.5c50.4,6.4,98.1,12.1,145.8,18.6c33.2,4.5,37,2.6,50.5-32.8c-40.6-7.6-80.9-15.3-121.3-22.6
			C945.5,1188.4,945.5,1188.6,916.7,1233.5z M914.9,1084c-37.7-3.1-69.2,3.2-100.8,4.7c-7.2,0.3-13.8,2.2-13.8,11.7
			c0.1,36.5,0,73,0,115.7C840.6,1169.7,876,1128.8,914.9,1084z M2646.1,1698.9c8.3,29.2,21.9,37.4,50.1,32.7
			c73.9-12.3,148-11,220.5,11.9c5.4,1.7,13.4,7.5,16.1,1.9c3.9-8.1,4.4-18.3,4.3-27.7c-0.1-9.2-8.5-6.4-13.9-6.7
			C2831.7,1707,2740.3,1703,2646.1,1698.9z M2261.3,1617.5c56.4,0.2,62.5-3.7,72.3-40.5c4.1-15.5,2.1-22.2-15.8-21.4
			c-26.7,1.2-53.7,1.6-80.3-0.1c-20.4-1.3-24.7,7-24.6,25.3c0.1,36.7-0.9,36.7,35.6,36.7C2252.7,1617.5,2257,1617.5,2261.3,1617.5z
			 M2778.1,1619.2c0-15.6-1-31.2,0.2-46.6c1.8-22.6-14.3-17.8-25.7-16.6c-11.9,1.2-31.8-9.3-30.6,17.6c1.2,26.7,1.4,53.6-0.1,80.3
			c-1.1,19.5,3.9,26.4,25.1,26.8c23.9,0.5,35.8-4.1,31.4-30.5C2776.8,1640.2,2778.2,1629.6,2778.1,1619.2z M969.7,1168.1
			c18,3.6,34.6,6.9,51.3,10.1c31.4,6.1,62.7,12.4,94.1,17.9c12.9,2.3,36.3-16.7,35-30.1c-1.3-14.1-15.4-9.3-24.4-10.9
			c-33.1-6-67.1-8.8-99.4-17.8C996,1129,981.8,1142.1,969.7,1168.1z M1193.6,1094.3c-46.2-7.9-91.3-5.1-135.9-9.7
			c-22.9-2.4-34.9,7.2-42.8,27.7c38,6.4,74.6,12,111,18.7C1172.2,1139.6,1172.2,1140,1193.6,1094.3z M2716.3,1533.8
			c5.2,0,10.4-0.7,15.5,0.1c21.3,3.6,34.9-4.8,39.8-25.8c3.1-13.2,21.4-27.2,7.7-39c-15-12.9-36.5-14.1-56.5-7
			c-12.4,4.4-23.1,11.4-30.8,22.3c-9.5,13.5-21.5,29.1-14,44.5c5.7,11.6,23.6,2.8,35.8,4.8
			C2714.5,1533.9,2715.4,1533.8,2716.3,1533.8z M606.3,1194.8c13.3,2.2,22.6,3.8,32,5.3c76.7,11.6,77.6,10.7,71.3-67.2
			c-0.1-1.7-0.2-3.4-0.2-5.2c-0.2-10.4-6.1-11.2-13.7-7.6C660.2,1136.7,629,1158.3,606.3,1194.8z M478,1555.2c-3.6,0-5.4,0-7.1,0
			c-32.9,0-43.9,12-43,45.7c0.2,6.8,1.8,9.6,8.5,9.1c25.4-2.2,46.1,10.9,67.9,20.7c6.3,2.8,17.6,7.2,19.1-3.3
			c3.1-21.4,1.7-44.1-7.1-63.6C508.8,1546.9,489.6,1558.5,478,1555.2z M2830.1,1541.3c-11.3,6.1-29.1,0.5-29.4,19.8
			c-0.6,36.3-2.2,72.8,0.5,108.9c1.8,24.3,24.4,11.5,37.4,13.7c15.9,2.6,9.4-11.1,8-17.8C2838.3,1625.3,2834.4,1584.1,2830.1,1541.3
			z M777.7,1156.1c0-10.3,0-20.6,0-31c-0.1-31.1-5-33.8-34.2-22.9c-9.6,3.6-11.1,8.9-11,17.2c0.2,25.8,0.3,51.6-0.1,77.4
			c-0.2,10.3,2.4,14.5,14,16c31.4,4.2,31.3,5.1,31.3-25.8C777.8,1176.7,777.7,1166.4,777.7,1156.1z M1288.4,1197.5
			c0-24.1-0.5-48.2,0.2-72.3c0.4-12.9-6.8-16.4-17.3-17.3c-12.2-1.1-14.6,7.3-14.7,16.5c-0.3,45.6,0.1,91.2-0.5,136.8
			c-0.2,17.7,12.9,15.7,23,16.9c13.7,1.7,8.9-9.8,9-16.1C1288.8,1240.5,1288.4,1219,1288.4,1197.5z M1232.3,1161.2
			c-2-0.4-3.9-0.8-5.9-1.2c-22.8,33.6-45.5,67.2-69.8,103.1c23.5,2.7,42.4,4.6,61.1,7.2c9.5,1.3,14.7-0.9,14.7-11.7
			C1232.1,1226.1,1232.3,1193.7,1232.3,1161.2z M1944,1721.6c-20.5,0-33.9,0-47.4,0c-45,0.1-44.7,0.1-41.7,45.8
			c0.8,12.6,3.6,17.1,18,17.4C1915.4,1785.7,1917.9,1746.6,1944,1721.6z M2310.6,1338.7c7.7-19.2,15.1-36.4,21.4-54
			c3.6-10.1-31.1-46.6-41.5-43.8c-2.4,0.7-4.1,4.7-5.8,7.4c-23.5,37.8-22.8,44.4,8.8,75.2
			C2298.5,1328.2,2303.7,1332.5,2310.6,1338.7z M2594.3,1459.4c-9.1-24.6-14.8-44.5-23.7-62.8c-6.4-13.1-18.8-25.1-34.5-16.4
			c-13.7,7.6-23.3,17.5-12.9,39.1C2537.9,1450,2564.3,1450.6,2594.3,1459.4z M2235.5,1303c-7.3-16.5-21.7-26.2-34.3-37.6
			c-0.7-0.7-3.9-0.2-4.5,0.7c-8.6,13.9-21.1,28.7-18.7,44.1c2.5,15.9,11.6,32.5,28.2,41.1c3.2,1.7,7.3,0.8,8.9-2.8
			C2222,1333.7,2228.6,1318.6,2235.5,1303z M2453.7,1189.7c-8.3-17.3-26.1-28.1-41-29.9c-13.5-1.6-13.9,21-18.9,33.5
			c-2.2,5.5,34.4,37.6,40.2,34.8C2448.9,1220.8,2446,1203.5,2453.7,1189.7z M2246.8,1275.6c6.6-14.6,12.1-26.2,17.2-38.1
			c5.2-12.2-18.6-44.4-31.8-43c-1.9,0.2-3.7,2.7-5.3,4.4c-18.2,20-17.9,40.5,0.9,59.1C2233.2,1263.4,2239,1268.4,2246.8,1275.6z
			 M2544.8,1515.6c-11.6-25.9-15-57.8-51.7-60.9c-6.5-0.6-13.1-6.2-18.9,0.2c-6.6,7.2-1.6,14.3,1.6,21.3
			C2489.3,1505.5,2521.3,1503,2544.8,1515.6z M2711.1,1312.4c15,34.1,4.2,78.1,39.7,109.1
			C2760.3,1374.9,2756.1,1336.9,2711.1,1312.4z M2345.1,1249.9c4.3-10,7.9-17.7,10.8-25.7c5.8-15.8-10.5-40.8-32.5-45.2
			c-17.1-3.4-13,16-19.3,24.4c-5.5,7.3-2.7,14.1,5.2,19.5C2321.1,1231.1,2332.4,1240.3,2345.1,1249.9z M1118.3,1261.1
			c9.3-3.4,12.5-3.5,13.6-5.1c33.2-48,66.3-96.2,99.2-144.5c2.5-3.6,8.3-8.6,0.4-12.3c-6.5-3-11.2,0.5-14.8,6.3
			C1185.1,1155.6,1153.5,1205.5,1118.3,1261.1z M2385.4,1148.6c-0.1-7.7-31.8-34.5-38.5-31.8c-13.1,5.2-13.7,20-18.2,31.2
			c-2,5,35.5,35.3,40.3,32.3C2380.9,1173,2379.2,1158,2385.4,1148.6z M2382.7,1222.1c-3.6,8.2-5.5,15.1-9.3,20.6
			c-15.4,22.6,1.4,32.8,16.7,42.2c19.4,12,18.6-11.1,26.8-17.9c10.5-8.5,7.9-17.2-4.2-24C2403,1237.7,2394.4,1230.4,2382.7,1222.1z
			 M774.9,1615.9c23.7,23.9,46.5,33,71.2,38.1c6.4,1.3,18,6.4,15.7-7.5c-1.7-10.4,11.1-28.8-11.3-30.3
			C827.6,1614.7,804.6,1615.9,774.9,1615.9z M2552.6,1472.8c11.1,21.4,18.9,36.4,26.7,51.5c8.1,15.5,23.4,11.3,34,8.1
			c11.7-3.5,1.2-13.9-0.1-21.3C2607.9,1479.2,2580.4,1482.4,2552.6,1472.8z M2636.5,1399.6c-4.1-19.2-6.2-31.8-9.6-44
			c-2.7-9.5-4.5-23.6-17.2-21.8c-10.8,1.5-25.9,5.7-28.5,18.3c-2.2,10.6,4.9,21.2,16.4,26.7
			C2608.9,1384.3,2620,1390.7,2636.5,1399.6z M2189.7,1220.8c6.3-12.7,11.9-22.2,16-32.4c9.1-22.6-13.5-25.1-24-32.8
			c-11.6-8.6-11.6,7.5-15.5,13.2C2146.3,1198.2,2179.3,1202.4,2189.7,1220.8z M2516.4,1694.3c-8.8-0.2-14.8,2-18.4,7
			c-5.4,7.4,2.7,10.5,6.4,14.2c19,18.7,38.5,37.1,57.9,55.5c3.5,3.3,6.9,8.8,12.7,3.6c4.4-4,1.5-7.7-1.1-11.2
			c-16.2-21.2-32.3-42.6-48.8-63.6C2522.7,1696.6,2518.1,1695.3,2516.4,1694.3z M2260.9,1132.5c-10.1,9.9-17.7,22.3-16.8,33.4
			c1.3,16.6,19.9,26.9,31.8,28.5c14.4,1.9,18.6-20.5,18.3-30.6C2293.6,1147.6,2272.8,1144.7,2260.9,1132.5z M2457.9,1157.4
			c1.2-13,2.4-21.4,2.6-29.8c0.2-6.8-0.8-13.6-1.2-20.4c-1-18.2-14-15.6-23.9-11.6c-16.6,6.6-17.7,36.8-2.5,46.8
			C2439.9,1147,2447.2,1151.1,2457.9,1157.4z M2653.4,1476.3c-7.4-48.2-12.9-54.9-52.1-63.4C2615.9,1437,2609,1475.4,2653.4,1476.3z
			 M2701.7,1378.1c-5.2-23.1-8.7-39.7-12.7-56.2c-1.8-7.3-5.9-12.7-14.5-10.3c-9.7,2.7-22.2,1.1-28.2,9.7c-6.1,8.7,4.9,13,10.1,17.7
			C2669.5,1351,2683.3,1362.3,2701.7,1378.1z M2159.6,1283.9c10.5-21.1,31.1-38.7,2.8-58.4c-6-4.2-9.7-18.9-19.1-9.6
			c-6.6,6.5-15.5,16.9-7.7,29.4C2143.3,1257.3,2150.7,1269.5,2159.6,1283.9z M2656.2,1371.9c7.7,46.1,21,60.5,58.1,65.2
			C2709.1,1412.2,2707.8,1410.7,2656.2,1371.9z M2806.6,1374.1c7.2-16.5,2.7-32,3.9-46.8c1.3-15.2-8.7-15.7-20.1-16.5
			c-14.8-1-11.1,9.1-12.1,17.1C2775.8,1349.7,2792.3,1359.5,2806.6,1374.1z M2081.6,1203.6c-19.7,20.7-19.3,34.2-0.1,54.5
			c5.7,6,8.1,6.5,13.2-0.7C2111.7,1233.8,2092.5,1220.2,2081.6,1203.6z M2778.1,1384.1c0,17.1,0,30.7,0,44.3
			c0,7.1,0.2,14.6,8.7,16.7c10.8,2.6,9.5-7.7,11.7-13.2C2806.3,1412.4,2800.5,1397.3,2778.1,1384.1z M2290.9,1356.8
			c-11.7-16.4-21.2-33.2-34.7-33.3c-9.6-0.1-14.5,19.4-15.7,33.3C2256.6,1356.8,2271,1356.8,2290.9,1356.8z M2148.2,1320.8
			c-6-24.6-17-40.2-30.3-55.6C2103,1291.2,2106.3,1297.6,2148.2,1320.8z M2189.9,1129.1c11.1,10.3,19.7,19.1,32.4,24.7
			c4.9-13.4,13-23.3,13.8-37.4C2219.7,1117.2,2206.3,1121.4,2189.9,1129.1z M2387.9,1722.8c26.6,21.4,49.5,18.8,67.3-6.4
			C2433.2,1718.5,2412.2,1720.5,2387.9,1722.8z M2380.1,1308.7c-7.8-7.3-19-20.6-23.7-15.6c-10,10.6-15.2,26.5-16.6,44.4
			C2355.9,1329.1,2368.1,1319.9,2380.1,1308.7z M2318.7,1105.2c-24.9-1.2-28.1-0.6-43.5,8.6C2309,1140.3,2309,1140.3,2318.7,1105.2z
			 M2476,1533.3c-3-15.3-8.4-28.3-23.6-27.7c-8.5,0.3-12.6,14.7-9.9,20.5C2449.4,1541.4,2463.7,1531.1,2476,1533.3z M2466.9,1797
			c31.8,10.8,37.8-13.7,53.7-27.2C2492.8,1761.2,2485.7,1784.5,2466.9,1797z M2516.2,1857.9c1.8-9.7,16.9-18.6,5.2-28.3
			c-6.1-5-21.1-8.3-25,0.9C2490.6,1844.2,2508.6,1847.7,2516.2,1857.9z M2115.3,1212.2c11.2-12.6,13.5-21.9,1.8-31.1
			c-4.4-3.5-9.2-7.1-12.7-1.4C2095.6,1193.9,2111.8,1199.1,2115.3,1212.2z"/>
		<path class="st0" d="M355.5,1097c2.4-12.1,9.1-20.3,20.9-19.1c10.8,1.1,19,8.2,18.2,20.7c-0.9,12.2-8.8,18.8-20.4,18.2
			C362.2,1116.3,356.6,1107.9,355.5,1097z"/>
		<path class="st0" d="M203.2,1711c-11.6-1.5-20.1-7.5-20.6-19.2c-0.5-11.7,7.3-19.8,18.9-20.4c11.8-0.6,19.8,6.9,20.4,18.6
			C222.5,1702,214.4,1708.4,203.2,1711z"/>
		<path class="st0" d="M129.7,1798c-1.7,11.9-8.2,19.7-19.9,19.9c-11.8,0.2-19.7-7.4-19.7-19.2c0-11.5,7.2-19.7,19.2-19.6
			C120.9,1779.1,127.8,1786.5,129.7,1798z"/>
		<path class="st0" d="M318.3,1505.4c11.6,2.4,19.6,9,18.7,20.9c-0.8,11.5-8.5,18.8-20.8,18.1c-12.2-0.7-18.9-8.6-18.3-20.3
			C298.6,1512.3,306.7,1506.2,318.3,1505.4z"/>
		<path class="st0" d="M409.4,1231.9c-12.1-2.4-20-8.2-19.5-20.6c0.5-12.2,8.6-19.1,19.9-19c11.8,0.1,19,8.3,18.8,20.1
			C428.4,1224.4,420.1,1230.2,409.4,1231.9z"/>
		<path class="st0" d="M222.6,1924.3c-2.7,12.1-8.9,20.5-20.8,20c-11.4-0.5-19.6-8.1-19.1-20c0.5-11.6,8.4-19.4,20.2-19.1
			C214.8,1905.3,220.6,1913.8,222.6,1924.3z"/>
		<path class="st0" d="M222.5,1256.7c-1.9,12.7-8.2,20.3-20.2,20.2c-11.9-0.1-19.7-7.7-19.6-19.4c0.1-11.6,7.6-18.9,19.8-19
			C215.1,1238.2,220.1,1246.6,222.5,1256.7z"/>
		<path class="st0" d="M335.6,1695c-2.2,12.6-9.4,19.9-21,18.8c-11.2-1-19.2-8.3-18.1-20.6c1-11.9,9.4-18.4,20.8-18.1
			C329.4,1675.6,334.5,1684.4,335.6,1695z"/>
		<path class="st0" d="M250.4,1162.8c10.5,1.1,18.7,6.1,19.5,18.3c0.8,12.5-7.4,18.9-18.3,20.3c-12.3,1.5-19.4-6.7-20.3-18
			C230.5,1171.8,237.4,1164.5,250.4,1162.8z"/>
		<path class="st0" d="M147.3,1637.5c-0.8,12.7-7.7,20.5-19.4,20c-10.7-0.4-19.3-6.3-19.2-19.4c0.1-13.1,8.9-19.1,19.3-19.6
			C139.5,1617.9,146.3,1626.1,147.3,1637.5z"/>
		<path class="st0" d="M147.2,1569.6c-0.3,12.3-6.8,20-18.5,20.4c-11.6,0.4-19-6.4-19.9-18.7c-0.9-13.1,8-19.3,18.4-20.2
			C138.9,1549.8,145.8,1557.8,147.2,1569.6z"/>
		<path class="st0" d="M126.3,1690.3c12.8,2,20.5,7.8,20.7,20c0.3,12.3-7.1,19.7-18.7,19.9c-11.5,0.2-18.7-6.8-19.5-19.1
			C107.9,1697.5,118.4,1694.8,126.3,1690.3z"/>
		<path class="st0" d="M287.6,1945.4c-1.1,12.1-8,20.1-19.6,19.3c-10.3-0.7-19.4-6.7-18.9-19.8c0.5-12.5,8.3-19.2,19.5-19.2
			C280.3,1925.7,287,1933.4,287.6,1945.4z"/>
		<path class="st0" d="M147.3,1464.3c11.1,1.8,19,7.4,18.7,19.8c-0.3,12-7.4,18.9-19.5,18.9c-12.5,0-18.9-7.9-19-19.4
			C127.4,1471.6,135,1465.2,147.3,1464.3z"/>
		<path class="st0" d="M376.8,1877.3c-13.8-0.1-20.5-7.6-20.8-19c-0.3-11.7,6.8-19.4,19.1-19.3c11.8,0.1,19.5,6.6,19.5,18.9
			C394.5,1869.8,387.9,1876.7,376.8,1877.3z"/>
		<path class="st0" d="M280.8,1856.2c-1.3,12.7-6.3,20.5-19,21.1c-12.7,0.5-19.5-7-20.1-18.3c-0.7-11.6,6.1-19.5,18.5-19.9
			C272.3,1838.7,278.6,1845.9,280.8,1856.2z"/>
		<path class="st0" d="M301.6,1155c-9.6-1.1-16-8.6-15.4-20.3c0.6-12.1,8.8-18.4,20.7-17.9c12.3,0.5,19,8.8,18.2,20.4
			C324.2,1148.9,316.8,1155.6,301.6,1155z"/>
		<path class="st0" d="M202.2,1806.5c-12.3-1.1-19.9-8.2-19.6-19.7c0.3-11.3,7.7-18.9,20.1-18.7c12.4,0.2,19.3,7.8,19.2,19.4
			C221.8,1799.3,214.1,1805.8,202.2,1806.5z"/>
		<path class="st0" d="M356.8,1385c11.4,2,19,7.9,18.8,20.2c-0.3,12.1-7.8,20-19.3,19.2c-10.3-0.7-19.4-6.7-18.9-19.8
			C337.9,1392.2,345.4,1386.7,356.8,1385z"/>
		<path class="st0" d="M217.2,1487.5c15.6,0.1,22.4,6.7,22.7,18.9c0.3,10.7-4.3,17.9-16.6,18.2c-12,0.3-20.3-3.6-21.2-16.7
			C201.3,1495.3,208.4,1489.2,217.2,1487.5z"/>
		<path class="st0" d="M335.7,1619.9c-2.3,11-6.5,19.3-19.9,18.5c-12.5-0.7-19.2-7.4-19.2-19.2c-0.1-12.2,7.8-18.5,19.7-18.7
			C329,1600.4,333.7,1609,335.7,1619.9z"/>
		<path class="st0" d="M461.8,1081c13-0.4,19.5,8.6,20.2,18.8c0.7,10.9-6.4,19-19.1,19.4c-12.7,0.4-20.3-7.5-20.2-18.4
			C442.8,1090.7,448.9,1081.4,461.8,1081z"/>
		<path class="st0" d="M203.1,1332.1c-0.5,12.8-8.7,18.6-19.9,18.3c-11.6-0.3-18.9-7.8-18.3-20.1c0.6-12,7.9-19.7,19.7-18.5
			C195.2,1312.9,203.6,1319.2,203.1,1332.1z"/>
		<path class="st0" d="M203.5,1569.5c12.5,0.9,19,9.7,18.6,20.2c-0.3,10.8-7.9,18.7-20.6,18c-12.4-0.7-19.7-8.5-18.6-19.8
			C184,1577.6,190.4,1568.7,203.5,1569.5z"/>
		<path class="st0" d="M286.3,1368.5c-13.5,0.4-18.8-8.2-18.4-19.3c0.4-11.2,6.2-18.7,19.7-17.8c12.6,0.8,19,7,18.7,19
			C306,1362.7,298,1368,286.3,1368.5z"/>
		<path class="st0" d="M185,1407.6c-1.6,11.8-7.6,19.5-20.2,19.2c-12.9-0.3-18.6-9.4-18.7-20.4c-0.1-10.6,6.9-17.2,18.4-17.6
			C177.6,1388.5,183.1,1396,185,1407.6z"/>
		<path class="st0" d="M355.3,1275.5c-0.8,11.4-5.8,19.5-18.6,19.8c-12.5,0.3-19.6-6.5-19.8-18.7c-0.1-10.7,5.1-17.1,17.2-18.1
			C347.2,1257.4,353.5,1262.7,355.3,1275.5z"/>
		<path class="st0" d="M270.3,1422.9c-3.1,9.6-6.5,19.6-19.5,19.6c-12.6,0-19.6-7.4-19.4-19.4c0.2-11.9,7.3-18.9,20.1-18.5
			C263,1404.9,268.2,1411.7,270.3,1422.9z"/>
		<path class="st0" d="M166.3,1868.9c-0.8,12.2-6.9,18.6-19.5,19.1c-11.8,0.4-17.4-4.6-17.6-16.6c-0.3-11.8,2.1-20.4,16.4-20.4
			C157.7,1851,164.8,1856.5,166.3,1868.9z"/>
		<path class="st0" d="M432.3,1945.9c-0.8,11.9-7.9,19.2-19.4,18.9c-11.4-0.3-18.8-7.5-18.7-20c0.1-12.7,8-19.3,19.3-19.1
			C424.9,1925.8,432.2,1933,432.3,1945.9z"/>
		<path class="st0" d="M337.1,1949.1c12.4,0,20.1,6.7,20.6,18.2c0.5,11.6-6.4,19.1-18.7,19.8c-12.5,0.7-19.8-6.7-20.3-18.1
			C318.1,1957.6,324.8,1950,337.1,1949.1z"/>
		<path class="st0" d="M338.6,1780.5c-0.7,12.9-9.5,18.9-20.3,18.1c-10.6-0.8-18.7-7.7-17.7-20.6c1.1-13.8,10-15.9,21.5-15.6
			C334.3,1762.6,338.3,1769.7,338.6,1780.5z"/>
		<path class="st0" d="M1819.7,1254.4c-16.5-0.6-27-9.2-28.3-26.3c-1.4-18.6,9.1-29.9,26.8-30.8c16.7-0.9,28,9.9,29.2,26.3
			C1848.6,1241.3,1839,1252.6,1819.7,1254.4z"/>
		<path class="st0" d="M1635.8,1549c1.8-18.5,12.4-28.2,30.5-27.1c16.9,1,27.2,12.5,26.6,28.8c-0.5,16.2-11.4,27.5-28.3,27.3
			C1647.2,1577.7,1636,1568.2,1635.8,1549z"/>
		<path class="st0" d="M1674.6,1401.5c-19.6-2.8-29.8-12.4-28.1-31.3c1.6-17.5,13-26.1,29.5-25.3c16.8,0.8,27.6,12.2,27.2,28.4
			C1702.8,1390.7,1691.2,1400.8,1674.6,1401.5z"/>
		<path class="st0" d="M1636.1,1614.4c1.3-13.6,10.2-24.3,27.7-24.1c16.8,0.2,28.5,10.3,28.8,27c0.4,18.2-11.9,29.5-29.6,28.9
			C1647.1,1645.7,1635.6,1636.4,1636.1,1614.4z"/>
		<path class="st0" d="M1793.1,1436.3c-16.2-1-26.6-9.6-27.6-26.8c-1.1-18.7,9.7-29.7,27.3-30.3c16.6-0.6,28,10.3,28.8,26.8
			C1822.5,1423.7,1812.7,1434.8,1793.1,1436.3z"/>
		<path class="st0" d="M1687.5,1218c0.8-18.3,10.5-28.7,27.4-29c18.3-0.3,29.6,10.9,29,29.3c-0.6,16.8-11.3,27.4-28.7,26.8
			C1698.3,1244.5,1688.2,1235.1,1687.5,1218z"/>
		<path class="st0" d="M1730.6,1288.4c-1.5,16.3-8.4,27.4-26.4,28.4c-18.9,1.1-29.8-8.5-30.8-26.5c-1.1-18.9,12.4-28.3,28.9-29.1
			C1718.9,1260.4,1728.6,1271.2,1730.6,1288.4z"/>
		<path class="st0" d="M1646.3,1455.4c0.9-16.1,10.1-26.9,27.5-26.5c17.8,0.4,30.2,11.2,29.3,29.3c-0.8,16.4-12.5,27.3-29.5,26.6
			C1657.1,1484.2,1646.4,1474.9,1646.3,1455.4z"/>
		<path class="st0" d="M1739.4,1797.6c1.4-17.6,11.5-27.8,28.1-27.6c17.8,0.2,29.2,11.5,28.6,29.5c-0.6,16.3-10.5,27.1-28.2,26.9
			C1749.3,1826.2,1740,1815.8,1739.4,1797.6z"/>
		<path class="st0" d="M1793.9,1524.6c-17.1-1.2-27.5-9.8-28.4-27.1c-0.9-18.6,9.7-29.5,27.6-30.2c17.2-0.7,27.6,10.8,28.5,26.9
			C1822.7,1512,1812.3,1522.8,1793.9,1524.6z"/>
		<path class="st0" d="M1661.9,1722.6c-14.9-1.8-25.7-9.9-25.8-27.5c-0.1-18.6,11.2-29.4,28.7-29c17.6,0.4,29.2,12.7,27.9,30.3
			C1691.7,1712,1681.4,1722.7,1661.9,1722.6z"/>
		<path class="st0" d="M1841.7,1108.8c-18.6-0.7-27.8-12-27.7-28c0-17.8,11.8-29.3,29.7-28.6c16.3,0.6,27.1,11,26.9,28.5
			C1870.3,1099.4,1859.5,1108.4,1841.7,1108.8z"/>
		<path class="st0" d="M1766.2,1302.8c1.1-9,10.7-19,29.3-18.3c18.2,0.7,25.9,13.7,25.9,28.9c0.1,16.3-11.3,28.7-27.6,27.5
			C1778.7,1339.8,1763.8,1332.3,1766.2,1302.8z"/>
		<path class="st0" d="M1635.7,1774.6c1.1-15.9,9.1-26.4,26.5-27.8c19.7-1.6,29,11.8,30,27.6c1.1,17.4-11.2,29.5-28.9,29.2
			C1647.3,1803.2,1636.8,1793,1635.7,1774.6z"/>
		<path class="st0" d="M1794,1719.7c-1.1,17.2-9.1,28.3-27.1,28.6c-17.2,0.3-28.6-9-29.3-26.2c-0.7-18.2,10.1-30.1,28.4-30.1
			C1782.7,1692.1,1793,1702.2,1794,1719.7z"/>
		<path class="st0" d="M1739.2,1145.9c1.3-18.7,10.5-28.8,28-28.8c17.4,0,28.1,10.4,28.3,27.3c0.2,18.3-11.2,29.4-29.5,29
			C1748.9,1172.9,1739.7,1162.1,1739.2,1145.9z"/>
		<path class="st0" d="M1767,1681.6c-16.5-1.1-27-9.4-27.6-27.3c-0.7-19.4,10.7-29.4,28.6-29.3c17.1,0.1,27.2,12.4,27.4,28.6
			C1795.6,1670.2,1785.5,1680.7,1767,1681.6z"/>
		<path class="st0" d="M1765.9,1598.7c-16.5-1.8-26.6-10.9-26.4-28.5c0.1-17.5,10.1-28.1,27.3-28c18.3,0,29.5,11.2,28.7,29.6
			C1794.7,1588.6,1784.1,1598.2,1765.9,1598.7z"/>
		<path class="st0" d="M1279.4,1920.3c-89.2,1.4-143.4-60.6-121.9-136.7c13-46,70.2-68.1,110.7-43c16.6,10.3,20,24.7,14.9,42.5
			c-2.3,8.2-10.9,19.3,6,21.4c14.3,1.8,30.2,4.7,36.6-14.6c0.5-1.6,0.4-3.4,0.6-5.1c5.2-58.2,10.3-63,58.4-54.8
			c45.8,7.8,64,36.3,52.5,82.1c-14.9,59.1-67.3,100.9-134.3,106.8C1294.2,1919.7,1285.5,1919.9,1279.4,1920.3z M1279.3,1897.6
			c5.2,0,10.4,0.5,15.5-0.1c63.1-6.9,114.7-41.7,121.5-102.9c3.2-28.8-9.8-39.8-46.9-43.3c-32.3-3.1-17,19.1-18.8,32.5
			c-0.3,2.6-0.6,5.1-1,7.7c-4.6,26.9-30.4,42.5-61.1,37c-28.5-5.1-35.8-17.4-27.8-50.1c2.6-10.5,0.2-15.9-9.4-20.3
			c-31.7-14.3-66.5,3.7-72.8,38.1C1167.1,1857.8,1207.6,1898.5,1279.3,1897.6z"/>
		<path class="st0" d="M2701.5,1767.6c44.5,0.1,75.3,9.6,100.4,33.6c34.1,32.7,34,79.9,0.4,112.9c-46,45.2-136.3,45.4-182.6,0.4
			c-33.9-33-34.3-79.8-0.3-112.8C2645,1776.9,2676.6,1767.1,2701.5,1767.6z M2712.3,1924.9c27.7,0,52.9-7.4,73.3-26.9
			c25.9-24.8,25.3-57.5-0.9-81.7c-36.9-34-108-34.8-145.8-1.6c-30.2,26.6-28.9,63.5,3.2,88.5
			C2662.8,1919.3,2686.5,1925.4,2712.3,1924.9z"/>
		<path class="st0" d="M2694.8,1897.9c-22.9-0.2-42.4-20.2-42.4-43.4c0-23.4,19.5-42.8,42.9-42.5c23.4,0.3,42.4,19.4,42.5,43
			C2738,1877.7,2717.5,1898.1,2694.8,1897.9z M2694.9,1874c13.3-1.5,20.1-8.8,19.1-20.8c-1-12.2-9.7-18-21.6-17.2
			c-11.2,0.8-16.9,8.1-16.7,19.1C2676.1,1867.8,2684.1,1873.1,2694.9,1874z"/>
	</g>
</g>
</svg>
