<?xml version="1.0" encoding="utf-8"?>
<!-- Generator: Adobe Illustrator 23.0.0, SVG Export Plug-In . SVG Version: 6.00 Build 0)  -->
<svg version="1.0" xmlns="http://www.w3.org/2000/svg" xmlns:xlink="http://www.w3.org/1999/xlink" x="0px" y="0px"
	 viewBox="0 0 3000 3000" style="enable-background:new 0 0 3000 3000;" xml:space="preserve">
<style type="text/css">
	.st0{stroke:#000000;stroke-width:10;stroke-miterlimit:10;}
</style>
<g id="Layer_1">
</g>
<g id="Layer_2">
	<g>
		<path class="st0" d="M1501.1,2611c-235.4,0-470.7,2.1-706.1-0.6c-274.4-3.1-486.3-122.3-631.9-355.2
			C92,2141.5,59.9,2015.4,59.5,1881.9c-0.8-291.8-1.6-583.7,0.1-875.5c2.1-360.5,257.9-659.6,611.9-718.9
			c40.9-6.9,82.3-8.8,123.8-8.8c477.3,0.2,954.5-0.1,1431.8,0.5c279.9,0.3,547.9,182.2,655.2,441.1c34.3,82.7,56.9,167.8,57.1,257.1
			c0.9,316.3,5.5,632.7-1.7,948.9c-7.7,336.5-284.8,632.6-618.6,676.4c-47.6,6.3-95.3,8-143.1,8.1
			C1951.1,2611.2,1726.1,2611,1501.1,2611z M2310.2,2555.6c332.8-48.8,582.9-336.9,583.3-665.1c0.3-297.5,0-595,0.2-892.4
			c0-32.2-2.6-64.1-7.8-95.6c-56.8-339.3-337.4-576.9-681.4-577c-471.6-0.2-943.3-0.4-1414.9,0.1C418.8,325.9,115.3,617.7,108.7,988
			c-5.4,304.9-4.7,610-0.1,915c4.5,296.5,205.4,551.2,490.2,633.9c38.3,11.1,77.2,21,119.7,21.1c-205.9-244.5-89.8-587.1,196.1-671
			c-14.9-9-28.8-16.7-42-25.4c-63-41.7-119.1-89.3-140.2-166.3c-17.1-62.3-8.3-123.8,9.6-183.7c61.2-205.3,183.8-350.7,403-391.7
			c119.9-22.4,227.4,6.8,293.7,138.9c43.3,86.1,80.4,173.9,102.9,267.8c3.4,14.1,3.7,29.1,12.2,43.3c9.3-5.1,17-10.7,25.6-13.8
			c24.3-8.7,25.2-20.9,13.6-43.3c-47-90.9-65.2-188.4-54.4-289.9c15.6-146.3,80.7-264.8,212.5-336.5
			c128.9-70.2,265.3-70.4,402.1-24.2c199.8,67.5,303.1,228,284,436.7c-9.2,100.6-44.9,191.7-99.3,275.9c-9.4,14.5-9.2,21,6.3,29.9
			c45.8,26.3,87.7,58.3,128.2,92.1c5,4.2,8.8,13,18.4,8.8c0.1-3,0.5-5.8,0.4-8.6c-9.9-171.9-22.5-343.6-32.2-515.5
			c-7.1-125.9-56.2-223.9-158.2-296.5c-53.9-38.4-112-68.7-174.2-91.4c-124.5-45.5-254.1-66.3-384.6-84.8
			c-229.7-32.7-457.7-23.2-684.8,21.7c-191,37.8-374.2,99-550.5,180.8c-21.1,9.8-22.8-2.2-29.4-14.4c-7.2-13.3-9.9-22.5,8.9-29.5
			c29-10.7,56.7-25.1,85.4-36.9c250.5-103.5,509.6-169.3,781.2-185.3c212.3-12.5,420.6,13.1,627.3,56.8
			c125.1,26.5,245.5,66.9,348.6,145.6c86.5,66,157,144.1,168.4,259.5c6.3,63.6,13.4,127.2,17.6,191
			c14.2,216.9,25.9,433.9,33.6,651.1c5.8,163.8-29.1,315.3-119.1,453.3C2394.8,2455.4,2356.9,2505.4,2310.2,2555.6z M1871.1,2562.3
			c80,0,160,0.2,240-0.1c42.2-0.2,89.7,10.8,125.3-5c42-18.6,69.2-64.8,98.5-102.8c82.3-106.5,145.2-222.7,160.3-358.4
			c11.1-99.3,3.2-199.3,1.3-299c-0.2-11.3-6-19.1-13.9-26.5c-169.9-159.9-367.6-253-604.7-248c-263.4,5.6-488.6,182.8-554.1,438.8
			c-58.8,229.7,10.9,424.1,172.4,590.8c10.2,10.5,21,10.3,33.2,10.3C1643.3,2562.3,1757.2,2562.3,1871.1,2562.3z M1235.2,1507.7
			c7.1-52,13.2-96.5,19.3-141c1.2-8.6,1.1-16.3-6.5-22.9c-33.8-29.2-67.2-58.9-102.7-90.1c-9.3,47-6.8,91.1-12.5,134.5
			c-0.8,5.8-0.1,11.4,4.1,15.8C1168.2,1437.2,1199.7,1470.3,1235.2,1507.7z M1807.6,1125.1c-7.9,6.2-12.3,9.5-16.6,13
			c-29.7,24.3-58.4,50-89.3,72.6c-21.5,15.6-25.5,27-3.2,45.4c18.6,15.4,32.1,45.5,51.5,49.1c22.4,4.1,40.7-25.3,59.7-41.2
			c22.1-18.6,63-32.1,60.6-57.9c-2.2-24.2-35.5-45.6-55-68.4C1812.3,1134,1810.4,1129.6,1807.6,1125.1z M1694.7,994.2
			c-12.2,1.7-15.2,8.2-19.2,12.9c-25.4,29.4-44.8,62.5-59.7,98.3c-18.2,43.6-18,43.1,14.4,76.9c10.4,10.9,16.8,13.2,29.3,2.4
			c33.3-28.9,67.7-56.7,102.5-83.9c11.6-9.1,9.9-15.1,1.3-24.6c-21.4-23.7-42-48.1-62.8-72.4
			C1697.5,1000.3,1695.6,995.8,1694.7,994.2z M1238.9,2174.2c21.7-58.2,16.3-116.5,27.2-172.3c2.5-12.8-8.3-12.9-16.1-14.4
			c-24.8-5-49.8-9.4-74.7-13.9c-5.9-1.1-14.4-6.6-16.6,3c-8.3,35.5-15.6,71.3-22.7,107.1c-0.6,2.8,2.2,7.4,4.8,9.5
			C1173,2120,1205.3,2146.5,1238.9,2174.2z M1054,1843c5-68.9,9.5-129.4,13.5-189.9c0.3-4.1-2.1-9.5-5.1-12.5
			c-27-26.4-54.4-52.5-83.8-80.7c-2.4,60.3-4.7,118.2-7,176.1c-0.3,7.7,1,14.6,6.5,20.7C1001.6,1783.3,1024.9,1810,1054,1843z
			 M2238.6,1386.4c-2.1,1.3-4.8,2.4-6.9,4.2c-23.4,20.2-46.5,40.6-70.1,60.6c-9.1,7.7-2.6,13,1.9,18.3c19.4,22.8,38,46.5,59.1,67.6
			c38.8,39,63.1,35.4,90.4-11.2c3.8-6.5,6.8-13.5,11.1-19.5c8.9-12.3,8.7-22.2-2.6-33.9c-24-25-46.4-51.4-69.6-77.1
			C2248.5,1391.5,2245.9,1385.6,2238.6,1386.4z M1299,1388.9c-7.4,55.9-14.2,105.8-20.4,155.8c-0.5,4,1.6,9.5,4.4,12.6
			c23.4,25.2,47.3,50,74.8,79c13.6-53.8,26-102.5,38.2-151.2c1.9-7.4-2-12.5-7.2-17C1360.7,1443.3,1332.6,1418.5,1299,1388.9z
			 M1207.8,1715.9c6.2-45.3,12.2-88,17.9-130.7c1-7.3,3.2-15.1-2.9-21.4c-30.1-31.6-60.3-63.1-94.9-99.2
			c-3.8,56-7.4,105.3-10.3,154.5c-0.3,5,2.2,11.7,5.7,15.2C1150.5,1661.1,1178.2,1687.4,1207.8,1715.9z M990.5,1319.5
			c-6,44-4.1,82.6-6.8,120.9c-2.2,30.3-1.2,56.5,24.9,78c21.6,17.9,40,39.7,63.7,63.8c3.9-56.1,7-103.8,10.6-151.6
			c0.7-9.2-2.3-16.2-8.6-22.8C1047.8,1380.1,1021.4,1352.1,990.5,1319.5z M1009.7,2441.5c3.5-7.1-1.4-11.9-8.2-16.6
			c-27.6-19.4-55.4-38.6-82.3-58.9c-12.5-9.4-15.7-2.7-18.4,7.8c-7.4,28-14.9,56.1-22.3,84.1c-2.2,8.5-2.2,16.2,5.3,23
			c28,25,55.5,50.5,83.4,75.6c9.4,8.5,16.2,8,19.1-6.1C993.7,2514.7,1001.6,2479,1009.7,2441.5z M1114.6,1698.5
			c-7.4,13.2-4.9,27.6-5.9,41.4c-2.9,39.3-4.6,78.7-8.2,117.9c-3.7,41.5,31.5,73.9,72.9,66.4c9.7-1.8,7.9-8.7,8.7-14.8
			c5.3-38,10.8-76.1,15.9-114.2c0.9-6.3,2.4-13.1-3.2-18.5C1168.2,1750.7,1141.6,1724.8,1114.6,1698.5z M1908.8,1247.2
			c-5.4,3.7-10.1,6.6-14.4,10c-19.1,15.2-38.1,30.6-57.2,45.8c-54.5,43.3-53.7,42.6-6.2,95.2c15.8,17.5,25.7,18.5,42.1,2
			c15.8-15.9,34.8-28.5,52.3-42.7c47.4-38.5,47.4-38.5,6.4-84.9C1924.4,1264.2,1916.7,1255.9,1908.8,1247.2z M1324.9,1194.5
			c-6,42.7-11.5,82.4-17,122.2c-1,7.4-2.5,14.7,4.5,20.8c32.3,28.1,64.4,56.3,96.2,84.1c25-48.2,22.7-91.9-8-133.7
			c-7.2-9.7-11.6-21.4-18.1-31.8C1368,1233.2,1354,1209.7,1324.9,1194.5z M2042.7,1487.7c9.2,0.3,15.4-12.2,25.3-18.3
			c18-11.1,18.2-20.9,2.9-36c-19.9-19.7-37.7-41.7-55.1-63.8c-9.3-11.8-16.5-11.6-27.3-2.6c-28.7,24.1-58,47.5-86.9,71.4
			c-5.8,4.8-17.9,7.5-13.2,17.9c4.1,8.9,11,17.1,23.3,17.7C1954,1476.2,1996.1,1478.5,2042.7,1487.7z M2205.9,1346.4
			c-1.7-2.7-2.8-5.3-4.6-7.3c-22.6-25.2-45.4-50.2-67.9-75.4c-7.7-8.7-12.8-2.6-18.7,2.1c-21.2,17.1-42.3,34.3-63.9,50.9
			c-8.8,6.8-9,11.7-1.4,20.1c22,24.4,42.9,49.8,64.4,74.7c3.9,4.5,7.4,12,15.5,4.9c24-21,48.1-42,72.1-63.1
			C2203.5,1351.6,2204.4,1348.8,2205.9,1346.4z M1122.1,2140.5c-6.6,39.4-29.6,78.2-17.3,109.1c10.7,27.1,49.5,43.2,75.9,64.1
			c2.9,2.3,5.9,4.6,8.9,6.9c10.5,8.3,18.3,13.3,21.2-6.9c3.3-23.1,10.3-45.6,15.1-68.5c1.7-8,4.5-16.5-3.4-23.6
			C1191.1,2193.5,1158.5,2166.8,1122.1,2140.5z M1811.3,1448.3c-1.8-3.1-2.7-5.8-4.4-7.7c-17.8-19.2-35.8-38.3-53.6-57.5
			c-6.2-6.7-11-3.5-16.7,1.1c-33.5,27-67.4,53.5-100.8,80.8c-18.3,14.9,1.3,26.5,5.1,39.2c3.2,10.7,9.8,17.6,23.2,12.2
			c30.4-12.3,62.6-18.6,93.9-28.1C1779.6,1481.7,1794.9,1463.8,1811.3,1448.3z M1021.8,2380.7c3-12.6,3.8-22.3,7.6-30.7
			c27.5-60.6,7-102.2-49.9-130.3c-5.8-2.9-10.7-7.6-15.8-11.8c-10.1-8.4-16.8-10.6-20.5,6.2c-5.9,26.5-13.7,52.6-21,78.8
			c-2.9,10.3-0.9,17.7,8.4,24C960.1,2336.9,989.1,2357.7,1021.8,2380.7z M1087.6,2302.5c-7.1,34.9-12.9,65.2-19.7,95.3
			c-1.9,8.2-2.5,14.3,5.1,19.6c29.2,20.4,58.3,41,87.3,61.6c8.2,5.8,13.3,5.7,15.6-5.4c5.4-25.7,11.2-51.2,16.8-76.8
			c1.8-8-0.4-14.4-7.2-19.6C1154.2,2353.4,1123.1,2329.5,1087.6,2302.5z M1890.3,993.4c-10.4-12.1-19.9-23.6-29.9-34.6
			c-53-58.6-57.4-58.7-120.6-11.1c-11,8.3-15.1,13.8-3.8,25.5c16.2,16.9,30.8,35.3,45.9,53.3c28.8,34.1,28.7,34.1,62.1,6
			c11.5-9.6,23.2-19,34.7-28.6C1882.2,1000.9,1885.5,997.7,1890.3,993.4z M992,2031.1c-9.5,36.1-17.5,67.9-26.5,99.3
			c-2.9,10.1-3.5,17.3,6,24.3c27.9,20.4,55.2,41.5,85.3,64.3c8.1-36.6,15.7-70.2,22.8-103.9c1.1-5,2.4-10.8-3.1-15.3
			C1049.2,2077.9,1022.1,2055.6,992,2031.1z M873.9,1443.9c-2.4,1.3-4.7,2.6-7.1,4c0,48.3,3.3,96.9-0.9,144.8
			c-4.3,48.6,30.3,69,59.3,104c2.9-64.9,5.4-121.7,7.9-178.6c0.3-5.7-0.3-11-4.6-15.6C910.3,1483.1,892.1,1463.5,873.9,1443.9z
			 M1923.5,1031.4c-3.5,1.7-5.3,2.3-6.7,3.4c-23.2,18.9-46.5,37.8-69.5,56.9c-6.9,5.8-0.4,10,2.9,13.8c18.2,21.4,37,42.3,55.1,63.8
			c6.7,7.9,11.2,8.4,20.5,2.3c80.2-52.6,80.4-52.4,16.5-121.4c-3.8-4.1-7.6-8.3-11.5-12.3
			C1928.2,1035.5,1925.6,1033.3,1923.5,1031.4z M1269.2,1616.9c-6.4,46.9-12.6,91.1-18.6,135.5c-0.8,5.6-1.4,11.2,3.1,16
			c17.5,18.8,35,37.7,56.3,60.5c11.6-47,21.2-86.2,31-125.3c1.7-6.7,3-13.1-2.4-18.5C1316.2,1662.9,1293.7,1640.9,1269.2,1616.9z
			 M2319.4,1257.1c-7.6-9.3-10.9-13.8-14.6-17.9c-11.9-13.3-24.2-26.3-35.9-39.7c-29.7-34-29.6-34.1-65.6-5.3
			c-40.2,32-40.2,32-5.9,69.2c52.9,57.5,52.9,57.5,109.2,0.1C2309.6,1260.3,2314.8,1259.3,2319.4,1257.1z M1608.8,1425.2
			c16.8-13.2,32.6-24.7,47.4-37.5c18.2-15.8,51.7-27.7,51.4-47.3c-0.3-18.4-28.2-37-45.4-54.1c-7.7-7.7-14.2-27-26.6-18.5
			c-19.7,13.6-49.6,24.4-49.7,51.8C1585.9,1354.4,1593.7,1389.7,1608.8,1425.2z M774.6,2205.6c10.9-33.3,19.4-63.1,30.6-91.8
			c6.3-16.2,2.8-25.2-10.5-35.4c-48.6-37.3-48.4-37.8-80.6,14.8c-7.3,12-12.9,25-20.1,37.1c-6.1,10.4-3.1,17.2,6.2,23.5
			C724.1,2170.2,747.8,2186.9,774.6,2205.6z M1089.1,1341.7c3.2-48.2,6.8-100.2,10.2-152.3c0.6-9.1-2.6-11-11.8-8
			c-29.2,9.4-57.7,19.7-82.8,38.2c-17.8,13.1-19.3,27.6-4.1,42.1C1029.2,1288.6,1058.9,1314.4,1089.1,1341.7z M2107.7,1024.4
			c-3.4-4.6-5.8-8.5-8.9-11.8c-11.9-13.2-23.9-26.3-36-39.3c-31.5-33.9-31.5-33.9-66.8-4.4c-36.5,30.4-36.5,30.4-3.5,66.4
			c44.4,48.4,44.4,48.4,95.8,5.8C2094.7,1035.7,2100.9,1030.2,2107.7,1024.4z M2009.6,1287.6c5.4-3.6,10.2-6.4,14.6-9.8
			c12.5-9.8,24.8-19.9,37.1-29.9c33.6-27.4,33.6-27.4,4.2-60.8c-34.4-38.9-34.4-38.9-75.7-6.5c-43.9,34.5-43.9,34.4-8.5,76.3
			c6,7.1,11.8,14.5,18,21.5C2002.2,1281.8,2006,1284.5,2009.6,1287.6z M1263.4,1294c5.4-39.4,9.7-72.6,14.4-105.6
			c2-13.8-3.4-19.5-17.4-22.3c-30.7-6.2-61.4-5.4-92.1-2.6c-7.4,0.7-18.3-1.1-19.7,11c-1.1,9.3-1,18.1,7.4,25.4
			C1190.5,1229.6,1224.7,1260,1263.4,1294z M1438.7,1509.6c-14,56.1-25.9,105.4-39,154.4c-3,11.2-0.1,18.5,8.3,24.2
			c11.4,7.8,14.5-4.7,19.4-9.7c22.3-22.9,44.4-46.2,69.8-65.8c9.7-7.4,11.4-15,8.7-26.7C1497.5,1549.6,1462.4,1539.3,1438.7,1509.6z
			 M2325,1036.2c-4.9-6.5-7.4-10.5-10.5-13.9c-12.3-12.8-25.4-25-37.2-38.3c-14.1-16-25.9-14.2-42-1c-63.5,52.3-63.8,51.7-2,107.6
			c8,7.3,12.7,8,20.8,1c20-17,40.7-33.1,61.2-49.5C2318.1,1039.8,2321.5,1038.2,2325,1036.2z M2133.9,1189.1
			c23.2-19,45.9-37.2,68-56.1c4.9-4.2-1.6-8-4-11.5c-46.4-65.9-55.3-66.9-116.2-14.3c-2.1,1.8-4.4,3.6-6.7,5.1
			c-6,4.1-6.3,8.2-1.3,13.6c17.1,18.7,33.9,37.7,51,56.5C2127,1185.1,2130.4,1186.7,2133.9,1189.1z M1308.9,2493.5
			c2.7-13.9,2.4-20.1-3.7-24.8c-19.3-14.9-38.6-29.9-58-44.6c-7.6-5.8-11.8-2.5-13.6,5.9c-5.6,25.6-11.3,51.2-16.8,76.8
			c-1.5,7,0.4,12.7,6.8,17c17,11.7,33,25.2,50.9,35.1c15.6,8.5,29,6.1,30.1-16.5C1305.5,2523.7,1307.9,2505,1308.9,2493.5z
			 M2387,1184.2c-4-29-11.8-54-21.7-78.4c-13.2-32.4-13.4-32.3-39.4-11.1c-11.6,9.5-22.8,19.8-35.2,28c-13.6,9-14.7,16.2-2.7,28
			c16.7,16.4,31.2,35.1,47.8,51.7c6.3,6.3,10.8,22.7,22.9,14.1C2370.3,1208,2388.2,1201.8,2387,1184.2z M2354.5,1438.5
			c13.1-29.4,18.4-58,27.5-85.3c10.3-30.6-11.3-44.5-28.2-57.6c-13.9-10.8-21.9,10.8-32.3,17.9c-12.3,8.4-22.6,19.6-34.4,28.8
			c-8.6,6.8-8.9,12.2-1.3,20.3C2308.7,1387.1,2330.8,1412.2,2354.5,1438.5z M835.7,2435.6c5.3-20.4,9.6-37.5,14.1-54.6
			c15.4-58.2,15.2-57.7-35.6-89.3c-12.8-8-16.3-4.7-21,7.6c-28.7,74.4-28.9,74.3,30.7,127.1C826.6,2428.9,829.6,2430.9,835.7,2435.6
			z M729.7,2340.8c9.3-27.7,17.4-52.3,26-76.7c2.6-7.3,1.9-12.2-4.7-16.8c-22.3-15.5-44.3-31.3-66.5-46.9c-4.5-3.1-8.9-7-14.1-0.4
			c-9.4,11.9-11.4,76.6-1.1,86.5C688,2304.4,707.7,2321.2,729.7,2340.8z M904.8,2174.8c1-10.2-41.5-50.6-51.6-47.1
			c-2.6,0.9-4.6,5.2-5.6,8.3c-9.7,29.2-18.8,58.7-28.9,87.8c-2.6,7.5-2.1,12,4.6,16.6c14.7,10,29.1,20.4,43.6,30.8
			c7.9,5.6,12.1,2.2,14.1-5.6C888.9,2235.8,896.6,2205.9,904.8,2174.8z M1054.1,2462.2c-6.6,29.2-11.8,53.8-17.8,78.3
			c-4.1,16.8,0.2,23.3,18.8,22.2c28-1.6,56.2-0.3,84.3-0.5c8.2,0,17.2,1.6,19.5-10.5c1.8-9.3,0.1-16.1-8.1-21.7
			C1119.5,2508.3,1088.3,2486.2,1054.1,2462.2z M1110.3,1969.6c5.7-11.1-4.2-13.1-12.2-15.6c-17.8-5.6-35.6-11.4-53.8-15.5
			c-8.5-1.9-21-14.7-25.9-1.2c-5.7,15.9-21.8,34.6-4.4,51.4c20.8,20,44.5,37,66.6,55.8c8.5,7.2,13.2,5.2,15.3-4.9
			C1100.8,2016.7,1105.4,1993.9,1110.3,1969.6z M938.3,1272.5c-27,20.6-48,46.7-67.1,74.3c-6.3,9.2-7.8,20.1,0.3,28.8
			c19.5,20.8,39.8,40.8,59.8,61.1c2.4-0.8,4.7-1.5,7.1-2.3C938.3,1381.2,938.3,1328.1,938.3,1272.5z M920.1,2111.1
			c4.1-0.3,3.7-8.4,5.2-13.4c6-20.5,8.6-42.4,17.1-61.7c12.8-29,2.7-47.2-20.2-64.6c-13-9.9-18.3-9.7-23,6.3
			c-7.1,24.1-15.6,47.9-23.4,71.8C868.9,2071,892.5,2107.6,920.1,2111.1z M2209.9,938c-34.2-19.1-70-32.2-106.9-42.6
			c-11.5-3.2-19.8,0.5-27.6,8.6c-4.1,4.3-3.9,7.9-0.2,11.8c23.5,25.3,47.1,50.5,70.7,75.7c23.2-12.5,42.2-30.6,61.8-47.8
			C2208.3,943.4,2208.4,942.2,2209.9,938z M756.9,2430.5c-2.4,0.7-4.3,0.9-5.7,1.7c-6.6,4.1-20.1,61.5-15.4,67.9
			c15.4,21.3,33.6,40.2,53.7,57.2c5.4,4.6,9.4,6.8,14.5-2.8c21.7-40.8,17.2-68-18.1-98.3C776,2447.8,766.4,2439,756.9,2430.5z
			 M1868.4,891.8c1.4,10,8.1,14.3,13.1,19.6c15.2,16.4,28.9,42.7,46.7,45.9c18.5,3.3,35-23.7,52.4-37.4c6.2-4.9,20.7-8.1,13.9-20.1
			c-5.5-9.8-11.9-21.1-27.2-21C1933.6,879.1,1900.7,882.6,1868.4,891.8z M1242.2,1822.7c-5.4,38.5-9.6,68-13.7,97.5
			c-0.9,6.3-3.1,14.4,6,16.1c14.9,2.8,30.5,13,45,2c9.9-7.5,16.1-58.2,9.5-65.7C1275.4,1857.4,1261.1,1842.8,1242.2,1822.7z
			 M1316.4,2413.3c2.8-25.6-21.9-104.7-44.7-144.6c-31.6,88.8-29.4,96.9,39.5,143.9C1311.9,2413,1312.9,2412.8,1316.4,2413.3z
			 M771.5,1603.3c-3.6,56.9,5.7,106.4,48.7,153.2C818.6,1696.9,836.6,1639.2,771.5,1603.3z M867.2,1707.6c0,22.7,2.4,40.6-0.5,57.5
			c-5.6,32.5,12.9,47.9,37.3,61.2c11,6,14.6,5.9,17.6-8.6C931.7,1768.9,904.2,1739.7,867.2,1707.6z M819.3,1437.4
			c-43.1,84.2-42.6,104.6,0,133.7C819.3,1528.6,819.3,1486.9,819.3,1437.4z M849,1968.8c-22.9,7.5-43.1,18.9-54.7,35.2
			c-16,22.5,16.4,20.6,23.8,32.5c4.2,6.8,11.2,4.9,13.4-4.5C836.3,2011.6,847.8,1992.8,849,1968.8z M1359.4,2510.1
			c-17.7,47.1-14.5,52.5,30.7,52.1c9.8-0.1,20.2,2.8,29.6-2.3c-0.5-7.5-6.6-9.4-10.6-12.6
			C1392.9,2534.7,1376.3,2522.6,1359.4,2510.1z M698,2435.5c18.5-50.8,18.4-51.1-28.5-80.3C675.1,2383,682.5,2408.4,698,2435.5z
			 M970,1819.8c-4.5,42,3.5,50.5,44.7,50.7C1000,1853.9,986.5,1838.7,970,1819.8z M900.9,2560.9c-15-13.6-25.6-23.3-36.8-33.4
			C846.6,2563.9,846.6,2563.9,900.9,2560.9z M1461.4,1429.8c-16.1,24.1-6.9,39.1,18.9,51.8
			C1474.6,1462.2,1470.7,1445.3,1461.4,1429.8z"/>
		<path class="st0" d="M2015.3,2223.7c-98.7,0.3-176.5-76.9-175.8-174.5c0.7-95.8,79-174.1,174.6-174.7
			c96.8-0.5,175.8,78.9,175.3,176.3C2188.8,2148.3,2113.2,2223.4,2015.3,2223.7z M1887.6,2049.8c-0.3,71,55.6,127.8,126.2,128.3
			c70.7,0.5,127.8-55.7,128.5-126.3c0.7-72.9-54.7-128.5-127.9-128.5C1942.1,1923.3,1887.9,1977.4,1887.6,2049.8z"/>
	</g>
</g>
</svg>
