<?xml version="1.0" encoding="utf-8"?>
<!-- Generator: Adobe Illustrator 23.0.0, SVG Export Plug-In . SVG Version: 6.00 Build 0)  -->
<svg version="1.0" xmlns="http://www.w3.org/2000/svg" xmlns:xlink="http://www.w3.org/1999/xlink" x="0px" y="0px"
	 viewBox="0 0 3000 3000" style="enable-background:new 0 0 3000 3000;" xml:space="preserve">
<style type="text/css">
	.st0{opacity:0.49;}
	.st1{stroke:#000000;stroke-width:10;stroke-miterlimit:10;}
</style>
<g id="Layer_1" class="st0">
</g>
<g id="Layer_2">
	<g>
		<path class="st1" d="M1013.6,2006c-15.9,27.8-30.7,55.6-47.2,82.4c-44,71.7-96.8,135.8-168.6,181.3
			c-132.8,84.1-269.5,75.9-406.8,12.5c-174.2-80.5-264.6-223.5-300.2-406.9c-21.4-110-23.2-221.5-21.4-332.5
			c2.1-131.6,1.7-263.7,29.3-393.8c50.1-236.2,191.3-401,399.4-513.5c97.2-52.6,200.1-87,311.7-92.7c192.1-9.8,329.8,91.7,375.5,279
			c6.4,26.1,10.5,52.8,15.8,79.9c9-0.8,10-8,12.8-13.1c98-174.7,248-274.8,443.6-310.6c118-21.6,237.4-29.3,356.7-38.5
			c130.5-10,261.1-18.6,391.8-25.5c108.4-5.8,216.7-6.5,324.5,12.4c85.9,15,146.4,60.9,185,138.6c43.8,88.2,56,182.1,48.7,278.4
			c-13.4,174.4-73.9,331.1-185.6,466.7c-60.5,73.5-136.1,127.5-223.1,165.8c-8.4,3.7-16.9,7.3-32,13.9c20.1,4.4,33.7,7.3,47.3,10.4
			c146.4,34.1,232.5,149.6,223.5,299.5c-5.5,91.2-17.1,180.7-67.3,260.3c-49.7,78.8-122.8,118.7-214.3,124.4
			c-62.2,3.9-107.7-25.3-136.4-80.3c-15.1-28.9-25.8-59.6-34.5-95c-28.1,34.9-56.9,63.8-89.5,88.7c-92.1,70.4-199,101.4-311.9,114.7
			c-149.4,17.7-298.6,10.6-447.6-7.4c-68.6-8.3-137.8-12.1-204.9-30.5C1147,2236.2,1052.4,2151,1013.6,2006z M2494.9,546.5
			c-123.5,2.2-246.6,11-369.6,21.1c-151.7,12.4-304.1,18.3-454.6,44.3c-215.9,37.4-368,155.5-455.9,356.2c-4.1,9.4-8,18.7-7.8,29.5
			c2.8,151-20.2,299.9-39.8,448.9c-3.2,24.1,3.4,34.9,21.5,47.2c247.6,168.8,520.3,216.2,813,170.8c129-20,257.8-41,384.9-71.2
			c128.4-30.4,247.7-79.3,339.3-178.9c137.2-149.2,202.3-327.3,204-528.4c0.7-82.3-17.8-161.1-62.2-232.6
			c-28.3-45.5-67.7-73.3-119.2-86.1C2665,546.6,2580,546.4,2494.9,546.5z M1172,1042.5c-0.3-62-4.5-123.4-14.9-184.5
			c-30.4-179.3-148.6-280.1-329.6-279.7c-113.3,0.3-216.7,37-314.7,90C321.1,772,187.1,922.7,137.7,1139.8
			c-35.4,155.5-31.4,314-31.5,471.8c0,83.1,2.6,166.3,18.1,248.6c33,175.6,117.2,311.7,284.2,391.2
			c169.5,80.7,341.6,47.6,463.8-94.9c79.3-92.5,129.5-200.6,167.4-314.7C1126,1582.4,1154.4,1313.3,1172,1042.5z M1186,2192
			c41.3,28.5,86.3,44.6,133.2,53.2c127.9,23.4,257,35.2,386.9,40c74.6,2.7,72.5,2.9,75.5-70.2c1.4-35-7.8-53.5-42.5-64
			c-36.2-11-47-35.8-37.6-72.6c11.8-46.2,46.4-68.5,89.3-79.4c44-11.1,89.2-8,133.9-6.8c24.9,0.7,41.4,15.4,48.3,39.7
			c11.5,40.4,1.9,78.4-25.7,106.9c-34.9,35.9-40.8,75.1-31.8,120.9c3,15.4,8.3,20.1,24,17.7c49-7.3,97.4-17.4,144.7-32.4
			c83-26.3,153.7-71.6,211.4-136.9c54.8-61.8,49.7-122.3-13.9-174.2c-52.8-43.1-113.4-63.5-181.1-64.5c-50.5-0.8-101,0.1-151.2,5.7
			c-175.3,19.7-344.9,60.7-502.8,141.6C1353.2,2064.5,1266.2,2122.2,1186,2192z M2365.5,2059.1c49.1-20.7,96.8-24.6,146-16.4
			c14.3,2.4,25.2,3.4,21.8,23c-3.4,19.7-15,13.6-27,12.1c-35-4.5-69.8-3.9-104.2,5.5c-19.5,5.3-25.4,17.5-20.5,35.8
			c6.8,25.3,16.2,49.7,28.9,72.7c20.8,37.7,52.4,57.6,95.9,56c78.9-2.8,143-34.4,186.4-101.5c53.4-82.5,63.8-175.9,65.1-271.3
			c0.9-68.8-19.3-128.1-72.3-174.9c-73-64.4-160-85.5-253.1-74.3c-85.9,10.4-170.6,31.1-256,46.1c-13,2.3-14.1,8.4-14.5,18.6
			c-1.6,43.9-3.2,87.8-6,131.6c-0.9,13.8,5.1,17.2,17,19.8c36.8,7.9,71.5,21.7,102.6,43.2
			C2335.4,1926.6,2382.5,1974.8,2365.5,2059.1z M1990.5,1771.2c0-15-0.6-30,0.2-44.9c0.9-17-1.5-24.3-22.9-21.4
			c-133.4,17.7-266.2,15.2-399-9.6c-176.9-33.1-328.9,21-457.1,143c-71.2,67.8-80.1,155-32.3,240.8c13.3,23.8,30,45.1,48.6,64.9
			c25.3,27,25.6,27.1,54.6,3.1c215.9-178.6,466.4-273.4,742.4-305.3C1990.3,1834.2,1990.5,1836,1990.5,1771.2z M1157.4,1515.4
			c-18.3,98.2-39,192.3-67,290.1c96.1-80.5,197.2-138.8,320.4-153.6C1321.5,1616.3,1238.6,1571,1157.4,1515.4z M2122.6,1759.8
			c2.1-79.8,2.1-79.8-70.7-66.4c-2.8,0.5-5.5,1.3-8.3,1.3c-11.5-0.1-16.4,4.8-16.2,16.9c0.6,35.5,0.5,71,0,106.4
			c-0.2,12.1,4.1,15.5,16.3,15.9c76.6,2.7,76.5,3.1,78.9-74.6C2122.6,1757.4,2122.6,1755.5,2122.6,1759.8z M1817.1,2231
			c0,57.4-0.1,56.8,45.3,53c15.8-1.3,21.6-6.4,18.1-22.3c-5.8-26.5-6.4-53.4-2.8-80.3c1.1-8.3-0.5-11.1-9.2-12.6
			c-40.5-6.9-51.4,1.8-51.4,42.6C1817.1,2218,1817.1,2224.5,1817.1,2231z"/>
		<path class="st1" d="M2307.9,797.3c54.1-1,108.2-4.1,162.3,4.1c80.6,12.2,131.6,60.3,150.8,135.7
			c33.7,132.9,10.5,259.3-69.9,370.4c-90.5,125.2-286.7,143.5-398.2,39.7c-61.9-57.6-84.7-130.3-68.5-214.3
			c21.6-111.9,127.3-211.8,240-226.5c112.7-14.7,228,111.3,203.6,222.1c-8.1,36.9-30,63.4-60.1,84.6c-54.2,38-142.1,39.4-193.6,2.8
			c-40.2-28.6-53.5-81.7-30.4-121.6c20.4-35.3,79.7-51.4,120.5-34.7c13.4,5.5,5.8,13.1,5.9,20.2c0.1,10.1-4,16.2-15.3,14.6
			c-10.2-1.4-20.3-3.8-30.5-4.1c-21.7-0.8-41.4,3.7-51,26.3c-9.9,23.1-5.2,44,12,61.8c34.9,36.1,109.7,38.3,162.2,5.1
			c42.8-27,58.5-76.9,40.3-128.2c-35.5-100.1-132-141-226-92.6c-85.1,43.8-140.2,111.8-145.5,210.8c-5.6,103.8,72,189.9,177.4,201.9
			c129.1,14.6,231-50.4,274.3-173.1c28.8-81.7,42.8-164.4,20.5-250.2c-17-65.5-61.6-106.4-128.4-115.9c-90.6-13-181.2-2.6-271.7,2.3
			c-150.9,8.1-292.9,49.5-432.3,108.1c-176.2,74.1-271.1,206.4-306.9,388.4c-7.4,37.7-11.3,75.9-11.2,114.3
			c0.1,17.2-5.8,22.6-22.9,22c-19.7-0.7-13.4-13-13.2-23.4c1.9-86.8,17.6-170.8,51.1-251.2c52-124.8,139.9-213.2,262.5-271.2
			C1903.5,836.6,2101,796.6,2307.9,797.3z"/>
		<path class="st1" d="M2101.3,1503.6c0.3,30.2-24.4,56.1-53.9,56.8c-30.5,0.7-57.6-26.5-57-57.2c0.5-30.4,25.5-54.8,56-54.8
			C2076.5,1448.4,2101,1473,2101.3,1503.6z"/>
		<path class="st1" d="M1936.6,1302.9c-30.4-0.4-55-25.3-54.8-55.5c0.1-30.2,25.2-55.4,55.3-55.6c30.5-0.3,57.6,27.2,56.7,57.6
			C1992.8,1278.9,1966.9,1303.3,1936.6,1302.9z"/>
		<path class="st1" d="M2000.8,1383.8c-1.1,30.8-26.2,54.4-56.8,53.2c-30.3-1.2-54-26.3-53.5-56.9c0.4-29.9,26.4-55.7,55.5-55.2
			C1976.7,1325.5,2001.9,1352.6,2000.8,1383.8z"/>
		<path class="st1" d="M2117.6,952.2c-0.2,31.1-24.2,55.2-54.4,54.7c-30.6-0.5-55.4-24.5-56-54.3c-0.6-31.3,24.3-55.2,57-54.8
			C2096.6,898.2,2117.8,919.8,2117.6,952.2z"/>
		<path class="st1" d="M1992.8,1060.2c31.4,0.1,54.9,23.2,54.6,54.1c-0.2,30.6-23.7,53.4-55.2,53.8c-32.2,0.3-55-21.5-55.5-53.1
			C1936.2,1082.3,1958.9,1060.1,1992.8,1060.2z"/>
		<path class="st1" d="M384.3,1595.5c0.9,19.6,2.1,49.4,3.6,79.3c1.4,27.8,14.6,36.8,41.4,27.7c30.4-10.3,46.2-34.6,53.6-63.7
			c9.7-38.2,14-77.2,8.3-116.7c-14-96.7,12-179.8,86.2-245.3c87.9-77.7,214.9-82.2,297.9-11.6c49.6,42.1,44.5,82.7-14.7,108.2
			c-55.7,24-111.3,48.9-168.4,69c-87.3,30.6-119.3,157.6-43.6,231.8c42,41.2,92.4,43.5,138.4,5.5c43-35.6,74.3-79.1,83.3-135.4
			c2.2-13.7,6-16.5,19.3-14.7c14.7,2,18.5,7.6,15.7,21.8c-16.1,81.3-60,143-134.2,179.2c-49,23.9-97.4,13.2-138.4-22.5
			c-110.7-96.5-61.4-256,35.1-292.8c60-22.8,118.9-48.5,177.8-74c33.7-14.6,34.3-23,6.5-48.2c-65.8-59.5-177.4-55.6-251.3,10.8
			c-57.8,51.9-85.8,116.6-75.3,195.6c6.3,47.7,5.7,95.2-6.2,142c-16,63.4-46.6,90.6-111.6,98.7c-9.6,1.2-12.7,3-10.8,13.3
			c11.1,61.1,27.1,120.4,62,172.9c41.3,62,101.3,75.3,170,63.9c45.5-7.6,88.2-24.5,129.2-45.1c12.9-6.4,18.6-5.3,25.6,8
			c7.4,14.2,3.1,18.9-9.6,24.6c-51.2,23.1-102.9,44-159.5,50.4c-89.3,10.1-154.1-26.2-198.2-102.4c-36.7-63.6-52.9-133.8-60.3-205.7
			c-20.8-202.7,5.6-399.1,82.9-588.1c23.5-57.4,54.1-110.8,95-157.9c78.1-90.2,175.3-116.3,287.9-76.1c21,7.5,41.3,17.5,61.3,27.4
			c9.4,4.7,24.9,6.1,14.7,25.2c-8.9,16.6-17.1,14.5-30.8,7c-17.9-9.9-36.8-18.4-56.1-25.4c-99.6-36-180.5-14.6-249.7,65.3
			c-49.7,57.4-82.2,124.3-107.8,195.1C407.8,1319.3,388,1450.8,384.3,1595.5z"/>
	</g>
</g>
</svg>
