<?xml version="1.0" encoding="utf-8"?>
<!-- Generator: Adobe Illustrator 23.0.0, SVG Export Plug-In . SVG Version: 6.00 Build 0)  -->
<svg version="1.0" xmlns="http://www.w3.org/2000/svg" xmlns:xlink="http://www.w3.org/1999/xlink" x="0px" y="0px"
	 viewBox="0 0 3000 3000" style="enable-background:new 0 0 3000 3000;" xml:space="preserve">
<style type="text/css">
	.st0{stroke:#000000;stroke-width:10;stroke-miterlimit:10;}
</style>
<g id="Layer_1">
</g>
<g id="Layer_2">
	<g>
		<path class="st0" d="M2055.7,2134.2c5.5,257.6,9.7,472.1,15.1,686.6c0.5,21.2-5.2,26.1-25.5,25.3c-129.5-5-258,10.4-387,18.5
			c-101.7,6.3-197.5,37.2-295.3,59.8c-120.9,27.9-241.8,31.4-363.3,8.1c-104.3-19.9-157.8-80.9-179.5-199.2
			c-11.8-64.6-14.3-129.9-15.9-195.2c-3.3-134.9-8.8-270,3.9-404.7c13.4-141.5,44.2-279.7,85.5-415.7
			c16.3-53.6,38.4-105.2,55.2-158.5c12.5-39.6,15.2-78.4-11-116.9c-54.3-80-74.7-171-74.9-266.7c-0.4-203.2-0.5-406.5,0-609.7
			c0.5-236.2,151.3-428.1,375-478c31.2-7,63-10.8,95.1-10.8c117.2,0,234.5-0.6,351.7,0.1c274.1,1.7,480.9,207.4,482.7,481.9
			c1.4,207.5,0.6,415,0.1,622.5c-0.3,119.4-37.1,226.1-115.8,317c-9.6,11-10.3,22.2-10,35.3c2.5,107.2,4.6,214.5,7,321.7
			C2051.5,1962.8,2054.2,2070,2055.7,2134.2z M931.7,1300c2.5,9.4,3.9,15.5,5.7,21.3c54.1,167.4,213.2,287.5,389.6,290.5
			c125.8,2.1,251.6,2.5,377.4-0.1c224.6-4.6,409-191.7,410.6-416.2c1.5-213.2,1.5-426.4,0.3-639.6
			c-1.3-236.2-184.8-423.4-417.9-426.8c-121.5-1.8-243.1-1.7-364.6,0c-185.3,2.7-347,126.7-399.1,303.9c-8.5,28.8-15.4,58-12.1,90.1
			c6-3.5,9-9.3,13.4-13.7c159.7-161.9,352-244.5,580.7-231.2c151,8.8,282.8,65.4,387.5,177.2c102.2,109,154.7,240.6,165.5,388.2
			c10,136.8-17.8,264.7-105.6,374.3c-78.6,98.2-182.1,159.4-301.2,194.6c-210.4,62.1-414.4,37.7-612.9-49.8
			C1009.4,1345.3,972,1323.7,931.7,1300z M917.8,1067.7c0,53.3,0.2,101.5-0.2,149.6c-0.1,10.5,6.4,14.8,13.6,19.6
			c71.8,47.9,147.8,87.6,230.2,113.8c176.4,56.2,353,63.3,528.4-3c125.1-47.2,227.8-122.9,284.9-247.9
			c54.5-119.4,54.7-243.3,22.3-368.7c-59.6-231.5-253.2-392-490.1-401.5c-238.5-9.6-429.9,86-580.1,268.7
			c-4.5,5.5-10.1,11-10.2,18.3c-0.4,32.4-0.2,64.9-0.2,97.9c10.1-1.3,13.4-8.2,18.3-12.8c42.4-40.2,86.5-78.1,135.3-110.3
			c151.1-99.7,314-159.3,498.2-138.5c140,15.8,246.6,82.6,304,215.4c46.5,107.6,56.9,219.2,27.6,333.4
			c-29.5,114.8-97.1,197.7-208.3,241.9c-64.3,25.6-132.1,37.7-200.7,45.4c-157.6,17.8-305.4-8.6-439.1-98
			C1001.8,1157.7,957.9,1117.6,917.8,1067.7z M965.6,745.1c58.7,13.4,114.8,22.1,169,39c6.3,2,12.2,1.7,17.5-3.9
			c23.3-24.9,48.4-48.2,70-74.4c27.7-33.5,61.8-56.3,102.5-69.5c99.5-32.3,198.7-29.5,296.7,5.8c66,23.7,106.1,71.7,121,139.9
			c10.4,47.5,8.7,96.1,7.8,144.3c-1.5,79.6-41.3,136-112.4,166.1c-123.6,52.3-247.2,48.3-368.4-11.4
			c-93.8-46.2-139.5-123.5-145.9-225.7c-1-16.1-6.1-24.5-22.1-27.7c-57.5-11.4-115-23.1-172.3-35.6c-15-3.3-13,5.6-13,14
			c-0.1,51.2,0.1,102.3-0.1,153.5c0,10.3,2.8,19.3,8.5,28c70.1,107,164.4,184.2,286.1,224.2c150,49.3,299.6,36.3,447.5-11.8
			c81.6-26.5,140.1-80,173.2-159c43.1-102.8,41.5-207.6,8.1-312.5c-40.8-128.3-129.1-201.3-261.8-221.9
			c-94.1-14.6-185.4-1.8-274.8,27.4C1174.1,576,1064.2,648.3,965.6,745.1z M1698.7,881.7c1.2-20.9-1.1-47.1-4.6-73.1
			c-7.5-55.6-35-96.6-89.3-116.7c-66.6-24.6-135.1-32.4-205.1-20.7c-43.6,7.3-87.3,17.8-120.3,49.4c-34.8,33.3-66.3,69.9-99.6,104.7
			c-3.7,3.9-5.8,7.2-5.6,12.7c2.9,66.2,19.5,127.2,75.6,168.6c94.7,70,201.2,83,313.5,56.9c49.8-11.6,96.4-30.8,121.7-80.5
			C1700.4,952.6,1698.7,919.7,1698.7,881.7z M1994.4,1564.5c-2.5-0.4-5.1-0.9-7.6-1.3c-17.6,11.7-34.4,25-53.1,34.6
			c-14.4,7.4-17.6,16.6-17.6,31.8c0.4,380.1,0.3,760.3,0.3,1140.4c0,3.6,0.4,7.1-0.1,10.6c-1.2,10.3,3.2,13.6,13.3,13.3
			c22-0.6,44.2-1.8,66,0.3c20.4,2,22.9-6.4,22.3-24.1c-3.3-93.7-5.6-187.4-7.7-281.2c-5.5-247.2-10.9-494.3-15.7-741.5
			C1993.3,1686.5,1994.4,1625.5,1994.4,1564.5z M1366.3,2264.9c0,184.8,0,369.5,0.1,554.3c0,15.6-5.2,37.9,2.8,45
			c10.7,9.4,29.7-5.2,45.7-6.6c21.9-1.9,27.3-12.8,27.2-34.8c-0.8-368.8-0.6-737.6-0.6-1106.4c0-52.2,0-51.3-52-52.5
			c-18.6-0.4-23.7,4.2-23.6,23.3C1366.7,1879.7,1366.3,2072.3,1366.3,2264.9z M956.3,1704.4c-59.5,180.4-99.9,363.4-101.7,553.3
			c-1.4,145.6-3.1,291.3,13,436.3c5.2,46.7,15.4,92.6,43.1,132.3c11.3,16.2,25,29.9,45.6,37.4C956.3,2475.5,956.3,2090,956.3,1704.4
			z M1494.2,2249.7c0,185.4,0,370.8,0,556.2c0,32.8-0.2,31.5,32.8,25c18.1-3.6,24-11.3,24.1-29.4c0.4-55.4,2.5-110.7,4-166.1
			c4.2-159,8.4-318,12.6-477c4.2-159.7,8.3-319.5,12.8-479.2c0.3-10.8-2.6-15.6-14.2-15.1c-16.3,0.7-32.8,1.5-49-0.2
			c-18.8-1.9-23.6,4.2-23.5,23.2C1494.5,1874.6,1494.2,2062.2,1494.2,2249.7z M1778,2584.2c-2.5,1.6-4.5,2.6-6,4
			c-23.9,22.1-47.7,44.3-71.8,66.2c-7.4,6.7-1.9,10.8,1.5,15.9c15,22.3,30.1,44.4,44.5,67.1c5.7,9,10.1,11.5,20,4.9
			c27.1-18,54.7-35.2,82.4-52.1c9.3-5.7,11.2-9.9,3.3-19.1c-22.7-26.2-44.3-53.3-66.4-80C1783.3,2588.6,1780.5,2586.5,1778,2584.2z
			 M1180.6,2472c-4.5-1.6-6.1,0.9-7.7,3.2c-14.5,21.8-28.9,43.6-43.4,65.4c-5.7,8.5,1.5,11.2,6.6,14.4
			c26.8,17.1,53.9,33.9,80.7,51.2c7.2,4.6,11.8,4.8,17.8-2.4c14.4-17.5,29.6-34.4,45.1-50.9c7.1-7.6,7.2-12.3-1.9-18
			c-30.5-19.3-60.7-39.1-91-58.7C1184.4,2474.6,1182.1,2473,1180.6,2472z M1188.7,2654.6c0.7-4.9-3.1-6.4-5.9-8.1
			c-25.7-16.3-51.7-32.3-77.1-49c-8.3-5.5-12.2-2.7-16.8,4.4c-14.2,22-28.5,44-43.5,65.6c-5.6,8.1-5.6,12.9,3,18.7
			c20.5,13.9,40.6,28.5,60.5,43.3c6.3,4.7,10.6,5.1,16-1.2c19.9-23.1,40.3-45.8,60.4-68.7C1186.7,2657.9,1187.7,2656,1188.7,2654.6z
			 M1160.9,2766.5c22.4,15.9,43.9,30.8,64.9,46.4c7.1,5.3,10.8,3.2,15.7-2.6c21-24.9,42.2-49.7,63.7-74.1c6-6.8,4.2-10.1-2.8-14.3
			c-18.7-11.4-37.2-23.2-55.6-35.1c-6-3.9-10.9-5.8-16.5,0.8C1207.6,2713.6,1184.7,2739.5,1160.9,2766.5z M1314.5,2496.3
			c0-37.8,0-71.4,0-105.1c0-16.3-31.4-50.1-47.6-51.7c-5.7-0.6-6.9,3.9-9,7.1c-15.4,22.9-30.4,46-45.8,68.8
			c-4.1,6.1-5.7,10.6,2,15.6C1246.6,2451.8,1278.8,2473.1,1314.5,2496.3z M1142.4,2193c10.8-7.5,16.7-19,24-29.1
			c13.5-18.6,41.7-38.6,37-55.3c-5.1-18.5-35.2-29.7-53.6-45.2c-9-7.6-13.8-5.3-20.2,2.8c-17.2,21.6-34.4,43.2-52.8,63.8
			c-8.7,9.8-9.5,15,2.7,22.1c17.7,10.4,34.4,22.5,51.5,33.8C1134.6,2188.2,1138.2,2190.3,1142.4,2193z M1665,2614.3
			c9.4-8.2,18.3-15.1,26.1-23c16.9-17,48.2-30.8,47.8-50.5c-0.4-19.1-26.9-37.7-41.9-56.4c-0.9-1.1-2-2.1-2.7-3.3
			c-4.7-7.6-9.4-5.8-15.3-0.9c-19.3,15.6-38.9,30.9-58.7,45.9c-7.8,5.9-8.7,11.3-3,19.5c13.9,19.7,27,40,40.5,60
			C1659.7,2608.5,1662.1,2610.9,1665,2614.3z M1129.6,1981.8c2-1.7,4.5-3.1,6.2-5.2c19.1-22.7,38.1-45.6,57.2-68.3
			c6.3-7.5,0.8-10.9-4.5-15c-16.9-12.9-33.7-25.8-50.2-39.1c-7.4-6-12.1-6.8-18.7,1.9c-16.2,21.4-33.4,42.1-50.6,62.7
			c-6.8,8.1-7.6,13.4,2.1,20.1c16.9,11.6,32.9,24.5,49.3,36.8C1123.1,1977.7,1126.2,1979.6,1129.6,1981.8z M1781.5,2506.5
			c5.3-4.4,8-6.5,10.6-8.8c9-8,18.1-15.9,26.9-24.2c13.8-13.1,37.8-26,38.4-39.9c0.7-15.9-19.3-32.7-30.4-49.1
			c-0.8-1.2-1.8-2.2-2.5-3.5c-4.6-8.9-9.5-7.5-16.3-1.7c-13.6,11.4-27.9,21.9-42,32.7c-36.6,28.1-36.7,28.1-8.1,63.6
			c5.8,7.2,11.8,14.2,17.5,21.4C1777.8,2499.6,1779.3,2502.8,1781.5,2506.5z M1240.2,2065.1c2.7-3.1,5.1-5.5,7.2-8.2
			c7.8-10.1,15.7-20.2,23.2-30.5c10.4-14.3,28.8-29,28.5-43.1c-0.3-15-24.9-22.1-37.9-33.8c-3.2-2.8-6.9-5.1-9.9-8.1
			c-8.2-8.1-14-5.4-20.5,2.9c-12.2,15.7-25.1,30.8-37.9,46c-20.4,24.2-20.5,24.2,4.1,42.8c11.3,8.6,22.7,17.1,34,25.6
			C1233.8,2060.7,1236.7,2062.7,1240.2,2065.1z M1788,2329.8c-3.8-6-5.5-9.1-7.5-12c-8.9-12.8-18.6-25.1-26.6-38.5
			c-6.4-10.7-11.9-8.9-19.7-2.2c-13.5,11.5-27.5,22.4-41.4,33.4c-47.4,37.4-47.3,38.2-4.3,81.6c6.9,7,10.9,5.9,17.4,0.7
			c23.8-19,47.9-37.7,72-56.4C1781.1,2333.8,1784.9,2331.8,1788,2329.8z M1009.5,2254.3c-1.8,24.3-4.1,47.8,25.1,60.2
			c10.2,4.4,15.2,6.2,22.2-3.6c15.5-21.9,31.6-43.4,48.3-64.4c7-8.8,4.5-12.5-3.7-17.7c-19.7-12.4-39-25.5-58.1-38.9
			c-8.2-5.8-12.3-3.2-19.2,3.1C1004.7,2210.6,1009.9,2233,1009.5,2254.3z M1218.6,2309.4c-1.7-1.9-3.1-4.5-5.3-6
			c-16.4-11.1-33-22-49.4-33.1c-6.2-4.2-10-2.3-14,3.2c-16.9,22.8-34,45.3-51,68c-4.1,5.5-7,10.3,1.3,15.4
			c18.1,11.2,35.7,23,53.4,34.8c6.2,4.1,9.8,2.7,13.7-3.3c15.8-24.4,32.1-48.5,48.1-72.7C1216.5,2314,1217.3,2312,1218.6,2309.4z
			 M1059.2,2392.9c-2,3.2-4.1,6.8-6.5,10.2c-6.2,8.6-12.5,17-18.8,25.5c-31,41.9-31,41.9,13.1,70.1c33.2,21.2,33.5,21.4,55.1-11.8
			c9.8-15.2,30.2-31.6,26.1-45.5c-4.1-13.6-27.6-21.5-42.8-31.8C1077.7,2404.4,1069.9,2399.7,1059.2,2392.9z M1655.2,2696.3
			c-14.8,13.4-28.3,25.8-42.1,38c-5,4.4-8.2,9.1-8.2,16.3c0,17-0.6,34.1-1.4,51.1c-0.4,9.2,1.3,12.7,12.5,13.9
			c35.5,3.8,60.2-17.2,87.1-34c5.9-3.7,4.4-7.9,1.3-12.5C1688.2,2745.2,1672,2721.2,1655.2,2696.3z M1054,2887.8
			c34.9,5.6,66.4,8,98.2,8.1c13,0,43.8-22.1,43.8-34.1c0-12.5-14.5-15.1-22.8-21.7c-12.1-9.8-25.5-18-38-27.4
			c-5.9-4.5-10-6.2-15.8,0.6C1098.7,2837.4,1077.5,2861.1,1054,2887.8z M1302.8,2182.2c-2.1-7.2-8.3-9.8-13.3-13.6
			c-38.3-29.1-38.6-29.3-67.3,9.4c-10.9,14.6-32.3,29.4-29.2,44.4c3.3,16.1,29,21.8,43.8,33.6c0.6,0.4,1.3,0.7,1.8,1.1
			c7.8,6.6,12.5,4.8,18-4c13-21.1,27.2-41.3,40.9-61.9C1299.5,2188.2,1301.1,2185.1,1302.8,2182.2z M1009.2,2048.6
			c0,14.2,0.2,28.4-0.1,42.6c-0.2,8.3,0.7,16.2,9.5,19.4c8.4,3,10.4-5.7,14.3-9.9c7.7-8.3,14.7-17.2,21.8-26.1
			c13.3-16.5,37.2-33.4,36.9-49.6c-0.4-16.4-29.4-26.7-46-39.4c-6.2-4.7-12-15.7-20.6-10.1c-9.2,5.9-16.2,15.7-15.9,28.5
			C1009.5,2018.8,1009.2,2033.7,1009.2,2048.6z M1209.3,1749.1c-2.1,1.4-4.7,2.5-6.3,4.5c-12.6,15.3-24.8,30.7-37.4,46
			c-5.8,7.1,0.3,9.9,4.5,13.2c17.8,13.9,36,27.2,53.4,41.6c7.7,6.4,11.8,4.4,16.5-2.9c3.1-4.7,7.3-8.6,11-12.9
			c32.5-38.6,32.5-38.6-9.4-67.5C1231.1,1763.9,1220.6,1756.8,1209.3,1749.1z M1811.4,1912.9c-2.4,1.5-4.4,2.4-6.1,3.7
			c-17.6,13.1-35,26.4-52.7,39.3c-5.6,4.1-4.5,8-1.4,12.5c11.1,16.4,22.2,32.8,33.3,49.2c3,4.5,6.2,7.8,11.7,3.2
			c19.6-16.2,46.3-29,56.5-49.8c6.9-14-21-31.6-31.5-48.8c-1.4-2.4-3.5-4.5-5.5-6.5C1814.5,1914.4,1812.7,1913.7,1811.4,1912.9z
			 M1618.5,2302.7c23.5-18.7,44.5-35.2,65.2-52c34.1-27.7,33.8-27.6,6.7-62.1c-5.7-7.3-8.9-7.7-16.5-2.2
			c-54.8,39.2-55,39-56.7,105.8C1617.3,2294.2,1617.8,2296.3,1618.5,2302.7z M1701.7,1995c-1.3,0.6-2.6,1.1-3.7,2
			c-16.2,12.5-37.6,22.1-46.6,38.6c-5.8,10.5,15.7,25.5,23.4,39.5c1.7,3.1,4.4,5.6,5.9,8.8c7.8,15.7,16.6,20.8,30.8,5.6
			c8.1-8.7,18.2-15.6,28-22.6c8.3-5.9,8.3-11.3,2.6-19.1c-10.8-14.9-20.7-30.4-31.2-45.5C1708.7,1999,1707.3,1994.1,1701.7,1995z
			 M1009.2,1835.8c0,14.8,0,29.7,0,44.5c0,5.8-0.1,12.2,5.7,14.9c7.4,3.5,9.4-4.4,12.6-8.2c11.9-14,23-28.6,34.7-42.7
			c24-29.1,24.1-29.1-6.1-53c-6.1-4.8-12-10-18.6-14c-5.3-3.3-8.6-13.2-17.1-7.5c-7.2,4.9-11.6,11.9-11.3,21.5
			C1009.5,1806.1,1009.2,1821,1009.2,1835.8z M1010.6,2723.8c0,46.2,0,87.5,0,133.6c23.9-27.2,44.6-51.1,65.7-74.6
			c5.2-5.8,4.3-9.2-1.6-13.3C1054.1,2755,1033.7,2740.3,1010.6,2723.8z M1110.1,1679.5c-2.8,1.2-5.1,1.5-6.4,2.9
			c-12.9,13.1-25.6,26.4-38.4,39.7c-5.1,5.4-1.5,8.6,2.8,11.8c16.9,12.5,32.1,35.3,51,34.5c15.2-0.7,24.4-26.8,37.1-40.9
			c1.4-1.6,2.4-3.5,3.7-5.2c1.8-2.5,2.8-5.6,0.2-7.5C1143.5,1702.8,1126.7,1691.1,1110.1,1679.5z M1863.1,2247.7
			c4.5-20.5-8.8-33.4-18.5-48c-4-6-7.1-4.3-12-1.4c-47.5,28.1-48.9,33.8-17.5,77.5c3.3,4.6,6.6,9.1,9.7,13.9
			c2.9,4.3,5.8,5.7,10.2,1.8C1848.7,2279.4,1870.2,2272.4,1863.1,2247.7z M1778.6,1866.8c-0.7-1.2-1.4-2.5-2.2-3.6
			c-9.6-12.3-16.9-29-29.5-35.4c-10-5.1-20.1,12.4-30.8,18.8c-6.1,3.6-11,9.1-17.1,12.6c-12.6,7.2-13.2,14.2-4.5,26.4
			c22.3,31.4,21.7,31.9,52.9,8.6c8-5.9,16.1-11.7,23.9-17.7C1774.6,1874,1779,1872.1,1778.6,1866.8z M1314.5,1757.8
			c0-30.4-0.4-55.8,0.2-81.3c0.3-10.5-4.2-12.8-13.7-13.7c-19.4-1.8-52.9,21.2-57.2,39.9c-1.3,5.7,2.5,7.6,5.8,10
			C1269.8,1726.9,1290.2,1740.9,1314.5,1757.8z M1811.5,1706.9c-1.3-2.9-2.2-4.8-3-6.6c-19.1-39.8-31.3-42.5-64.4-14.3
			c-2.2,1.8-4,4.3-6.4,5.5c-16.6,8.3-12.4,17.7-3.1,29.5c22.4,28.4,22,28.7,50.9,6.9c5.7-4.3,11.4-8.5,16.9-12.9
			C1805.5,1712.5,1808.4,1709.6,1811.5,1706.9z M1807.9,2144.2c-8.9-12.2-16.8-28.4-29.5-38.3c-6-4.6-15.8,10.7-24.1,16.6
			c-5.7,4.1-10.7,9.3-16.7,12.8c-11.9,6.9-11.6,13.9-3.9,24.7c22.6,31.9,22.2,32.2,53.4,7.7c5.5-4.4,10.8-9.1,16.2-13.5
			C1805.9,2152.1,1809.3,2150.6,1807.9,2144.2z M1863.6,1786.6c2.7-14.2-4.4-28-16.6-34.5c-9.2-4.9-17.4,8.4-25.3,14.4
			c-36.7,27.5-36.7,30.1-4.8,62.9c2.8,2.9,4.7,6.6,10.2,5.1C1842.3,1830.5,1863.7,1803.8,1863.6,1786.6z M1713.6,1782.9
			c-1.5-3.3-1.8-4.8-2.6-5.9c-9.5-12.1-17.1-27.7-29.5-34.9c-8.5-4.9-16.7,12-26.2,17.6c-5.4,3.1-9.5,8.4-14.7,12.1
			c-11.7,8.3-11.8,16.4-3.6,28.3c18.4,26.6,17.8,27,43.5,7.7c8.4-6.4,16.8-12.8,25.3-19.2
			C1708.6,1786.4,1711.4,1784.4,1713.6,1782.9z M1009.2,1647.7c0,11,0.1,20.2,0,29.4c-0.1,5.8-0.3,12,5.4,15c6.9,3.6,9.9-3.4,13.6-7
			c6-5.9,11.4-12.5,17.3-18.6c18.3-19.2,18.6-19.5-4-34.3c-9.7-6.3-19.7-21.5-29.2-16.3C1003.4,1620.7,1010.8,1637.9,1009.2,1647.7z
			 M1862.1,2743.9c-17.8,11-34.1,19.3-48.3,30.4c-9.1,7.1-29.9,8.7-25.2,22.5c4,11.7,21.5,2.6,32.7,1.6
			C1866.4,2794.3,1866.4,2793.9,1862.1,2743.9z M1861.6,2600.5c0-33.5,0-62.2,0-94.7c-14.4,13.1-25.6,23.8-37.3,33.9
			c-6.3,5.4-6,9.9-0.7,15.9C1835.6,2569.2,1847.2,2583.3,1861.6,2600.5z M1626.5,1981.5c7.8,0,11.2-5.1,15.5-8.3
			c34.2-25.2,34.3-25.3,9.1-58.9c-2.8-3.8-3.9-12.4-11.8-8.7c-6.2,2.9-12.8,6.6-12.8,15.3C1626.5,1941,1626.5,1961.1,1626.5,1981.5z
			 M1863.5,2034.5c-7.4,5.6-10.2,7.6-12.9,9.8c-32,25.8-32.1,25.9-7.3,59.4c3,4,4,12.1,12.1,8.6c5.7-2.5,8.1-7.8,8.1-13.9
			C1863.6,2078.6,1863.5,2059,1863.5,2034.5z M1010.2,2618.5c1.3,0.3,2.6,0.7,4,1c5.1-7.5,10.2-14.9,15.2-22.5
			c23.7-35.6,23.7-35.7-14.5-55.7c-1-0.5-2.6,0.2-4.7,0.4C1010.2,2567.3,1010.2,2592.9,1010.2,2618.5z M1313.7,1845.6
			c-13.8,16.3-23.6,28.2-33.7,39.9c-3.9,4.5-4.9,8.7,0.5,12.3c10.7,7.3,19.2,18.1,33.3,22.3
			C1313.7,1896.2,1313.7,1873.9,1313.7,1845.6z M1314.5,2662.9c0-11.1,0-21.7,0-32.3c0-10.8,0-21.6,0-35
			c-46.4,40.8-46.6,48.1-4.4,68.2C1310.6,2664,1311.4,2663.5,1314.5,2662.9z M1614.4,2461.8c42.8-25.5,42.8-25.6,13.3-60.7
			c-3.3-3.9-4.8-10.4-13.3-10.2C1614.4,2414.2,1614.4,2437.2,1614.4,2461.8z M1157.3,1629.3c-3.4-0.4-6.4,2.6-8.9,6.1
			c-3.9,5.5,1.2,7.5,4.3,9.8c12.6,9,25.1,18.4,38.3,26.5c12.9,7.9,13.8-7.4,19.8-12.3c2.6-2.1,9.7-8.4,2-11.5
			C1195.2,1640.8,1176.8,1635.7,1157.3,1629.3z M1314.5,2807.2c-15.1,15.8-32.1,26.9-33,42.3c-0.6,9.5,18.5,17.6,33,24.5
			c0-6.8,0-10.9,0-15C1314.5,2843.5,1314.5,2828,1314.5,2807.2z M1313.7,2059.2c-35,40.7-38.7,38.4,0,57.9
			C1313.7,2098.6,1313.7,2080.5,1313.7,2059.2z M1622.7,2158.1c35.8-22.3,35.8-25.2,0-61.2
			C1622.7,2117.9,1622.7,2137.2,1622.7,2158.1z M1010.2,1537.8c25.7,28.7,58.7,47.7,91.3,67.4
			C1071.1,1582.7,1040.7,1560.3,1010.2,1537.8z M1830.7,1642.9c11.4,11.2,14,30.7,28.6,26.5c9.5-2.7,7.7-22.9,2.7-30.2
			C1855.2,1629.2,1844.3,1641.8,1830.7,1642.9z M1314,2266.2c-24.2,27.2-24.1,29.4,0,36.4C1314,2291.5,1314,2280.5,1314,2266.2z
			 M1606.8,2666.1c21.1-15.8,21.1-17.4,1.6-32.8C1607.9,2643.6,1607.4,2653.1,1606.8,2666.1z M1632.9,1706.7
			c19.3-11.6,19.3-11.6,1.8-26.2C1631.1,1688.5,1632,1696.6,1632.9,1706.7z"/>
	</g>
</g>
</svg>
