<?xml version="1.0" encoding="utf-8"?>
<!-- Generator: Adobe Illustrator 23.0.0, SVG Export Plug-In . SVG Version: 6.00 Build 0)  -->
<svg version="1.0" xmlns="http://www.w3.org/2000/svg" xmlns:xlink="http://www.w3.org/1999/xlink" x="0px" y="0px"
	 viewBox="0 0 3000 3000" style="enable-background:new 0 0 3000 3000;" xml:space="preserve">
<style type="text/css">
	.st0{stroke:#000000;stroke-width:10;stroke-miterlimit:10;}
</style>
<g id="Layer_1">
</g>
<g id="Layer_2">
	<g>
		<path class="st0" d="M2944.5,1598.6c-2.6,239.2,14.2,546.1,8.1,853.1c-1.5,78-8.5,155.8-35.1,230.2
			c-51.8,144.9-163.3,209.5-308.8,222.5c-159.7,14.3-308.4-32.3-453.7-92.1c-30.1-12.4-59.8-25.6-89.1-39.9
			c-12.5-6.1-21.3-5.1-31.9,3.7c-91.7,76.5-196.9,109.7-316.8,109.9c-275.4,0.5-550.8,9.3-826.2,7c-22.8-0.2-46-0.1-66.9-9
			c-14.2-6-25.1,1.6-37.2,3.4c-310.3,45.3-572.6-141.5-630.8-449.7c-2-10.7-4.6-21.3-5.6-32.1c-3.9-44.2-8.1-84.6-40.5-123.4
			c-40.2-48.2-48.1-114-53.1-176.1c-22-271.7,36.2-521.6,206.7-739.7c45.2-57.9,97.8-108.5,154.9-154.3
			c18.3-14.6,22.7-19.9-2.5-33.7c-124.1-67.9-218-162.7-254.3-304.1c-32.3-126-4.2-243.8,50.9-358.1
			C309.9,315,473,210.1,691.2,179.3c253.1-35.8,507.5-37.7,762.2-36.7c107.5,0.4,215,0.4,322.5,1.3c222.1,1.8,444.3,3.2,666,18.2
			c83.5,5.6,166.7,15.7,248.2,36.2c129.7,32.5,216.5,135.2,239.2,281.9c17.3,111.8,14.9,224.6,15.1,336.9
			C2944.7,1054.9,2939.5,1292.8,2944.5,1598.6z M2897.2,2532.4c-20.3,7.5-36.8,13.7-53.4,19.7c-92.6,33-186.9,58.2-286.2,50.5
			c-107.9-8.4-177.3-54.1-197.7-167.7c-35.9-200.2-28.9-400.8-8.3-601.7c1.9-18.2,10.4-20.6,25.3-17.3c13.2,2.9,28.2,1.5,24.7,23.4
			c-4.1,25.3-6.3,50.9-8.4,76.5c-12.9,161.8-14.2,323.3,9.6,484.4c10.6,72.1,36.4,131.8,117.4,147.7c21.3,4.2,42.7,7.7,64.6,7.4
			c106.5-1.3,205.5-33.8,302.9-73c13.6-5.5,16.3-15.4,16.4-28c0.3-41.5,0.4-82.9,1.6-124.4c0.5-15-5-19.1-19-16.8
			c-25.4,4.1-50.9,6.1-76.7,4.7c-152.9-8.3-234.7-83.2-254.9-235.1c-4.9-37.1-6.8-74.6-9.3-112c-8.6-128.3-6.3-256.3,9.7-384
			c1.4-11.1,4.2-15.6,15.8-15c22,1.2,36.5,4.6,32.6,34c-20.8,156.4-15.8,313.2-0.2,469.7c10.9,109.1,62.5,168.2,161.5,187.6
			c40.1,7.9,80.5,4.9,121,1.4c17.8-1.5,19.4-11.8,18.9-26.3c-1.8-51.3-4.1-102.7-3.3-154c0.4-27.5-4.2-38.1-36.5-37.9
			c-108.9,0.9-161.1-52.9-168-162.7c-6.5-102.9,2.5-204.9,13.2-307c2.5-23.4,12.8-25.3,32.9-23.1c23.7,2.6,19.6,15.7,17.3,31.2
			c-14.7,100.9-20.6,202.3-12.8,304.1c6,78.4,39.7,107.5,117.2,110.5c29.6,1.1,35.6-8.4,35-36.3c-6.7-330.7-8.5-661.4-5.9-992.2
			c0.2-28.2-7-26.9-28.7-16.9c-268.7,123.5-551.5,174.4-846.3,160.9c-16.7-0.8-33.3-2-57-3.5c14.6,11.8,23,18.5,31.3,25.2
			c105.2,85.7,175.1,191.6,188.5,329.7c9.3,95.6,7.5,191.3,2.9,287c-3.3,68.3-10.4,135.9-43.1,197.8c-6,11.3-0.9,21,2.4,31.1
			c28.5,88.1,34.8,177.2,16.3,268.4c-4.3,21-16.7,41.2-12,63.1c11.3,52.6,10.7,105.9,12,159.1c2.1,86.7-11.8,169.4-66.1,240.5
			c-13.6,17.9,1.6,19.5,11.1,23.8c70.8,32.5,142.9,61.8,217.9,83.4c103.2,29.8,207.7,49,315.3,30.9c101.3-17,181.5-65.2,224-163.2
			C2883.4,2639.7,2892.8,2588.5,2897.2,2532.4z M2113.7,1067.7c261.3,0.3,525-59.4,755.7-169.8c18.7-9,26.1-18.9,25.6-39.9
			c-1.8-71-2.7-142.2-1.7-213.2c0.4-27.3-4.8-32.7-32.2-23.7c-177.5,58.1-359.4,97.4-545.4,114.6c-201.8,18.6-404,22.1-606.3,6.1
			c-108.9-8.6-214.8-30.5-314.5-76.7c-100.2-46.4-176.6-117.7-225.5-217.5c-35.1-71.5-47-148-48.7-226.7
			c-0.3-12.4,3.4-26.6-17.9-25.4c-69.9,4-139.9,7.7-209.9,10.5c-16.6,0.6-22,9.7-25,23c-9.2,41.3-18.5,82.6-21.9,125
			c-19.1,241.4,64.2,436.8,260.5,581.7c11.5,8.5,23,13.5,38.1,12.2c186.9-15.3,369.8,10.6,551.5,52.1c56.8,13,109.6,39.7,166.7,49
			C1945.8,1062.6,2029.7,1067.4,2113.7,1067.7z M1839.8,2106c51.6-5.2,92.2-27.1,131.5-51.1c82.8-50.6,143.2-118.9,155.8-218.7
			c15.7-124.7,14.3-250.1,4.2-375.3c-4.4-54.8-22.6-105.8-51.4-152.9c-73.9-121.2-183.8-196.2-316.3-238
			c-114.8-36.2-233.4-57.7-353.4-68.6c-244.6-22.2-484.5-2.8-711.5,98.1c-230.5,102.4-410.4,260-515.2,494.6
			c-4,9-11.7,17.7-7.4,30.5c16.8-11.2,31.9-22.3,48.1-31.6c136.6-78.8,281-123.6,440.7-98.9c16.4,2.5,22.8-5.2,30.5-16.3
			c168-241.6,404.2-343.7,692.3-331.8c165.7,6.8,303.6,77.4,402.9,211.7c121,163.6,145.4,350.2,116.1,546.5
			C1896.3,1973.5,1871.8,2039.1,1839.8,2106z M751.1,2085.9c133.6-4.1,249.8,20.1,342.9,112.2c7.6,7.6,12.8,5.9,19.7-0.3
			c24-21.3,52.9-24.8,83.3-21.5c92.7,10,137.1,75.9,111.2,165.3c-5.7,19.8-12,39.5-18,59.3c-19.5,64.1-41.4,127.5-57.8,192.3
			c-18.3,72.1,16.8,114,91.6,116.2c24.8,0.7,49.1-2.8,73.7-5.1c16.2-1.6,19.7-5.3,15.4-21.1c-14.2-52-16.9-105.3-12.4-158.7
			c10.6-124.7,51.2-236.9,143.7-325.2c14.4-13.7,19.7-26.7,19.2-46c-1.9-75.4,14.2-144.6,69.8-200.8c21-21.2,32.3-49.6,39.1-78.7
			c28.7-123.7,10.7-241.5-50.4-351.6c-29.1-52.3-76.6-84-137.4-92.6c-15.6-2.2-31-5.2-46.6-7.9c-226.1-39.6-411.5,30.3-558.1,206.2
			c-12.8,15.3-14.1,28-7.3,47.3c41.5,117.6,35.2,230.7-38.6,335.3C813.6,2039.4,784.9,2060.2,751.1,2085.9z M1043.3,955.2
			c-0.4-3.4-0.2-4.7-0.8-5.3c-6.6-5.9-13.3-11.7-20-17.6c-74.3-65.5-132.9-142.7-172.5-233.8c-65-149.5-70.5-303.7-33.9-460.6
			c4.1-17.6,4.8-25.9-16.9-23.2c-100,12.1-200.4,24.9-292.7,67.6c-168.3,78-254.2,222.3-298,393.8c-31.3,122.8-3.5,236.4,77.8,335.5
			c47.8,58.3,107.7,100.4,173.6,135.6c18.9,10.1,32.7,10.1,50.8-1.9c119.3-78.7,249.2-132.9,388.7-163.7
			C947.2,971.3,995.5,964,1043.3,955.2z M354.2,2709.4c4.7,6.4,6,9,8.1,10.8c5.8,5.3,11.7,10.6,17.9,15.5
			c102.5,82.6,220.8,114.8,350.6,107.7c24.2-1.3,52.3,3.5,71.9-11.1c36.1-26.9,78.5-45.4,109-80.2c28.6-32.7,58.7-64,87.3-96.6
			c45.4-51.6,80.6-109.6,103.4-174.5c48.9-139.2-7.7-264.1-146.2-315.7c-152.9-57-303.1-34.4-448.9,26.8
			c-100.5,42.2-191.8,105.2-298.7,133c-12.5,3.3-13.6,10.7-13.1,22.1c5.4,106.9,37.1,204.8,96.8,293.9c9.3,13.9,21,21.3,36.6,20.4
			c64.7-3.5,127.1-13.8,180.9-54.8c54.2-41.4,88.4-94.9,102-161.1c6-29.2,25.9-13.7,39.6-13.8c18.3,0,11.3,13.6,9.1,23.8
			c-12.3,59.4-39.2,111.1-80.9,155.1C519.6,2674.3,444,2703.5,354.2,2709.4z M522.6,2131c-10.3-3.2-16.7-5.7-23.3-7.3
			c-70.7-17.4-101.4-70.9-74.6-144.3c17.2-47.1,47.6-85.8,77.8-124.9c12.3-15.9,20-12.5,32.6-1.3c12,10.7,21.9,16.7,6.1,34
			c-30.6,33.6-56.8,70.9-71.8,114.5c-13.5,39.3-3.3,60.2,36,72.5c28.1,8.8,57,10.3,86.7,7.9c143.4-11.7,235.5-97.4,254.8-238.5
			c22.8-167.2-86-307.4-244.5-307.4c-170-0.1-321.1,54.8-447.1,172.1c-12.8,11.9-20.1,25.5-24.2,42.6
			c-26.4,108.3-35.3,218.1-27,328.9c4.4,58.9,13.4,117.6,42.5,170.9c14.3,26.2,31.4,34.2,62.5,24.4
			C318.7,2240.7,413.2,2174.4,522.6,2131z M1654,2838.6c76.5-8.1,136.6,2.9,194.1-16.9c125.6-43.3,226.5-112.4,255.5-252.8
			c13.9-67.4,7.2-135.5,2.9-203.6c-3.5-54.7-26.8-95.6-71.8-125.6c-60.5-40.3-128.4-58.9-199-70.1c-108.8-17.2-205.7,2.1-281.4,89.5
			c-129.3,149.3-141.2,402.5-26.5,563.1c8.3,11.6,17.1,17,31.7,16.7C1596.8,2838,1634.3,2838.6,1654,2838.6z M1614.3,2148.4
			c44.8-23,90-32.3,136.7-31.9c22,0.2,32.9-8.9,42.4-28.1c84.1-168.7,97.9-344,45.3-523.6c-51.8-176.8-162.6-299.9-343.3-351.7
			c-106.7-30.6-214.5-24.5-322.3-2c-180.2,37.6-321.6,133.4-428.9,281.8c-10.7,14.8-13.3,23.1,6.4,32.7
			c27.7,13.6,50.8,34.5,69.6,58.9c11.7,15.2,18,17.6,31.5,0.5c55.2-70.2,124.5-123.2,204.7-162.3c137.9-67.2,280.9-75.8,429.8-44.4
			c83,17.5,145.6,57.7,186.2,131.6c24.4,44.4,40.6,92.2,49.6,141.8c23.7,130.3,22.4,255.4-74,362.1
			C1615.4,2050.1,1612.6,2097.3,1614.3,2148.4z M2562.3,230.2c-5.2-8.1-11.4-8-17.2-8.6c-144.3-15.9-289.3-20.6-434.3-24.3
			c-10.5-0.3-18.4,2-26,10.3c-139.4,153.3-279.1,306.2-418.6,459.4c-4.2,4.7-13,8.6-9.2,16.5c3.5,7.2,12.3,4.4,18.8,5.2
			c108.6,12.7,217.5,15.1,326.7,12.4c14.8-0.4,25.7-4.6,36.8-14.3c120.8-106,242.1-211.6,363.3-317.3
			C2456.1,323,2509.4,276.5,2562.3,230.2z M2101.4,699.1c19.4,0,29.3,0.3,39.1-0.1c233.7-9.4,462.3-48.3,685.7-117.8
			c64.8-20.1,65-20.2,55.3-87.2c-16.9-117.3-80.7-225.4-221.3-252.2c-20.5-3.9-34.5-1.6-50.4,12.4c-119.1,105-239,209-358.6,313.4
			C2203.2,609.5,2155.5,651.6,2101.4,699.1z M1730.1,194.9c-7.9-1.8-10.6-2.9-13.3-2.9c-174.6,0.1-349.1,0.5-523.7,0
			c-20.6-0.1-25.6,8.5-23.8,26.5c2.4,24.5,3.1,49.2,6.1,73.6C1189,402.7,1238,494,1324.3,565.3c17.3,14.3,28.3,17.3,44.9-1.6
			c27.3-31.1,57.8-59.3,86.8-88.9C1546.2,382.7,1636.5,290.5,1730.1,194.9z M1388.3,598.1c2.9,4.5,5.9,8.9,8.8,13.4
			c56.7,28,116.2,47.6,177.9,61.3c14.5,3.2,21.9-2.8,30.2-11.9c122.7-134.8,245.8-269.2,368.1-404.4c16.5-18.2,36.6-34,50.8-63
			c-68.9,0-132.9,0.7-196.9-0.4c-18.4-0.3-31.4,5-44.1,18.1c-78.8,81.4-157.4,163.2-238,242.8
			C1494.7,503.8,1440.7,550.2,1388.3,598.1z M1481.3,2843.8c-15.9-30.1-29.3-51.8-38.9-75c-6.8-16.4-16.4-20.1-31.8-16.8
			c-30.2,6.3-60.8,7-91.4,6c-105.4-3.5-159.4-74.8-135.1-177.6c2-8.6,4.5-17.1,7.1-25.5c23.6-76.2,48.2-152.1,70.6-228.6
			c17.8-60.8-26.8-110.1-90.2-101.6c-29.2,3.9-38.5,19.8-26.9,46.1c22.1,50,29,101.7,21,156.1c-13,87.5-53.1,162.2-105.1,231.8
			c-8.7,11.7-19.9,21.8-19.8,38.5c0.4,42.5,0.5,84.9-0.1,127.4c-0.2,15.5,5.6,20.8,20.9,20.4c36.5-1,73.1-0.9,109.6-0.9
			C1272.4,2843.7,1373.7,2843.8,1481.3,2843.8z M2101.3,2011c-51.6,56.6-110.1,93.8-179.7,125.9c73.6,21.4,136.8,49.1,189.2,102.9
			C2128,2162.1,2123,2089.7,2101.3,2011z M884.8,2837.9c0.9,2.3,1.8,4.5,2.7,6.8c30,0,60-0.3,89.9,0.2c9.6,0.1,14.5-2.3,14.3-13
			c-0.4-28.8-0.1-57.6-0.1-93.9C954.8,2777.7,924.7,2813,884.8,2837.9z"/>
		<path class="st0" d="M2746.7,1405.9c-46-0.4-82.7-37.7-82-83.3c0.7-44.9,39.6-83.1,84.1-82.5c45.3,0.6,81.8,38.5,81.3,84.4
			C2829.6,1371.1,2793.6,1406.3,2746.7,1405.9z"/>
		<path class="st0" d="M2592.3,1357.5c-0.6,45.7-38.3,82.6-83.7,81.7c-45.1-0.9-82.7-39.6-81.9-84.3c0.8-45.6,38.4-81.7,84.4-81.2
			C2557.4,1274.3,2592.8,1310.8,2592.3,1357.5z"/>
		<path class="st0" d="M2340.5,1352c32.2,0.6,56.4,25,55.3,55.9c-1.1,30.3-28.1,55.6-58.5,54.7c-31.1-0.9-55.2-26.6-54.4-57.9
			C2283.7,1372.5,2306.8,1351.4,2340.5,1352z"/>
		<path class="st0" d="M1254.3,1654.1c88.9,1.2,158.2,70.6,157.2,157.3c-1,87-73.2,158.1-159.5,157.1
			c-87.4-1-157.7-72.4-156.8-159.4C1096,1720.8,1165.8,1652.9,1254.3,1654.1z M1145.7,1808.8c-0.3,62,46.1,109.7,106.7,109.5
			c61.5-0.2,108.9-47.3,108.9-108.1c0-59.8-46.5-107.1-106-108C1193.7,1701.2,1146,1747.7,1145.7,1808.8z"/>
		<path class="st0" d="M865,2447.3c-1.7,135.4-94.3,267.4-219,313.4c-14.2,5.2-20.7,1.2-22.7-12.2c-1.6-10.8-20.2-22.4,2.8-32.7
			c45.4-20.2,85.8-48.2,118.9-85.7c51.6-58.4,73.7-127.5,68.7-204.5c-5.3-81.5-80.2-135.1-175.4-127.9
			c-87.4,6.6-146.7,56.8-193.1,126c-11.4,17.1-20.3,36-29.2,54.6c-12.8,26.8-26.6,30.1-51.2,13.2c-7.8-5.3-4-8.8-2.5-14.1
			c32.5-114.4,148.4-218.1,266-228.5C755.5,2237.8,864.2,2307.7,865,2447.3z"/>
		<path class="st0" d="M574.9,1653.8c19.9,0,35.8-0.8,51.5,0.1c83,5.1,117.5,36.8,128.1,118.1c5.4,41.1,6.8,82.5,6.2,124
			c-0.5,38.4-17.7,65.4-52.1,82.3c-33.2,16.3-67.9,27.2-105.1,25.3c-8.3-0.4-28.4,10.8-24.2-12.1c2.5-13.8-8.1-38.1,23.6-36.7
			c29.8,1.3,58.2-7.4,84.9-21.8c14.7-7.9,21.9-18.2,22.7-34.7c2.3-47.5-0.5-94.6-9-141.4c-4.8-26.7-19-46.1-47.4-49.6
			c-152.6-18.7-229.7-0.9-302.4,133.3c-45.3,83.5-72.1,172.5-76.5,267.4c-1.1,23.9-15.1,19.8-29.7,20.7c-17.2,1.1-22.2-5.8-21-22.6
			c8.1-113.1,40.1-218.7,98.7-315.8C381.1,1694.5,464.4,1644,574.9,1653.8z"/>
		<path class="st0" d="M1804.4,2609.7c-66,0.5-118.8-51.3-119.3-117c-0.5-65.6,54.7-120.9,120.6-121c66-0.1,121.1,55.1,120.3,120.9
			C1925.2,2559.7,1864.5,2617.9,1804.4,2609.7z M1804,2561.2c41.1,0.6,71.7-28.9,71.7-69.2c0-39.5-28.7-68.7-68.3-69.6
			c-40.6-0.9-71.7,29-71.8,69.2C1735.4,2530.9,1764.6,2560.6,1804,2561.2z"/>
	</g>
</g>
</svg>
