<?xml version="1.0" encoding="utf-8"?>
<!-- Generator: Adobe Illustrator 23.0.0, SVG Export Plug-In . SVG Version: 6.00 Build 0)  -->
<svg version="1.0" xmlns="http://www.w3.org/2000/svg" xmlns:xlink="http://www.w3.org/1999/xlink" x="0px" y="0px"
	 viewBox="0 0 3000 3000" style="enable-background:new 0 0 3000 3000;" xml:space="preserve">
<style type="text/css">
	.st0{opacity:0.31;}
	.st1{stroke:#000000;stroke-width:10;stroke-miterlimit:10;}
</style>
<g id="Layer_1" class="st0">
</g>
<g id="Layer_2">
	<g>
		<path class="st1" d="M2308.2,1585.7c46,14.2,85,25.5,119.4,47.4c91.8,58.5,148.6,138.4,157.9,250c6.5,78.3,25.1,95.4,102.5,111.1
			c64.9,13.2,130.3,21.2,195.9,9.5c28-5,25,12.3,29.7,27.9c6.4,20.9-7.6,21.9-20.9,23.1c-87,7.7-173.1,3.7-257.2-21.5
			c-63.7-19.1-94.4-65.7-98.1-128.9c-5.9-101.7-52-177.4-138.8-229.2c-22.7-13.6-46.9-23.4-72.4-30.6c-41-11.4-77.2-9.1-115.2,16.9
			c-107.2,73.6-231.3,105.2-356,133.8c-11.5,2.6-22.8,6.4-34.4,8c-15,2.1-16.6,8.8-10.8,21.4c22.2,48,26.1,99,21.2,150.7
			c-2.4,25.6,7.6,29.1,29.4,23.4c79.3-20.6,160.4-27,241.9-33.1c171.7-12.8,200.9,111.9,183.5,246.7c-5.3,40.6-43.1,54.5-77.9,64
			c-80.4,22.1-162,15.5-243.2,5.4c-36.5-4.5-72.6-12.1-108.7-19.3c-19-3.8-29.9-1.4-30.4,21.7c-0.4,18.3-1.3,38-8.4,54.3
			c-20.5,47.1,3,70,40.2,93.6c136.7,86.6,281.2,148.7,445.6,153.3c45,1.3,89.1-7.5,132-20.5c54.8-16.6,95.1-48.9,111.8-106.6
			c5.1-17.5,12-35.4,22.1-50.4c44.5-65.5,103.1-112.7,186.2-104.5c93,9.3,147.8,72.9,187.6,152c9,17.9-4.7,20.6-15,24.3
			c-10.1,3.6-22.2,18.4-31.2-2.7c-12-28.1-29.1-52.9-50.9-74.5c-94.1-93.5-193.6-42.7-235.2,38.4c-31.5,61.4-52.7,126.5-121.8,157.4
			c-84.4,37.8-173.6,43.8-263.1,31.7c-151.3-20.5-288-80.4-412-168.7c-24-17.1-32.6-13.6-44.9,11.9c-21.1,43.7-45.8,85.6-72.7,126.4
			c-73.7,111.6-174.9,155-305.8,126.9c-101.6-21.8-201.7-49-299.4-84.4c-34.7-12.6-68.9-27.6-90.7-59.9
			c-16.5-24.5-27.3-1.8-37.7,4.9c-168.4,108.5-347.7,132.7-535.5,62.9C47.8,2509-75.9,2033.1,185.3,1724
			c18.5-21.8,24.1-31.1-3.9-51.9c-51-37.8-69.5-98.1-84.7-156.8c-42.3-164-40.5-331.1-29.5-498.4c4.6-69.6,14.1-138.7,30.9-206.6
			c46.4-187,163.8-315.9,328.1-409.4c195-111,405.8-161.1,627.5-180.2c219.4-18.9,438.9-23.7,658.8-21.4
			c231.8,2.4,463-17.3,694.6-18c50.2-0.1,100,2.4,149.4,11.5c141.5,26.1,239.2,132.8,274.1,291.4c49.7,225.6-2.4,429.5-114.2,627.1
			c-97.7,172.7-233.7,310.3-373.8,445.8C2333.3,1566.3,2322.6,1573.9,2308.2,1585.7z M1607.6,1792.3c85.1-6.4,158-29.1,232.1-45.4
			c136.7-30.1,273.9-64.1,384-155.6c158.2-131.5,306.1-273.9,416.2-450.6c121.8-195.5,194.3-400.4,144-636.5
			c-30.6-143.5-118.9-244.7-250.6-264.5c-53.5-8-107.4-10.6-161.5-8.7c-142.1,5.1-284.2,10.9-426.3,15.4
			c-292.1,9.2-584.6-3-876.5,23.1c-223,19.9-435.4,68.2-630.8,182.7c-162.9,95.4-268,229.8-301.5,417.2
			c-24.9,139.4-30.5,280-22.7,421c4.8,86.7,15.2,173.1,45.2,255.6c11.8,32.4,26,63.8,52.3,87.1c15.8,13.9,33.4,27.2,56,10.3
			c31.6-23.6,65.9-44.2,95-70.5c108-97.3,233.7-157.7,376.9-175.9c154.2-19.6,291.7-3.1,388.3,149.5
			c74.1,117,194.8,185.7,328.4,226.8c20.5,6.3,32.4,4.2,46.6-13.7c79.6-101.4,142.1-212,178.4-335.9
			c48.1-163.9,32.4-321.6-63.6-464.9c-59.3-88.5-151-116.8-252.7-100c-99.9,16.5-158,82.6-182.3,179.5c-7.2,28.6-4,57.7-3.6,86.5
			c0.3,21.8-14.6,20.8-28.9,23.4c-17.2,3.2-20.1-6.8-20.8-20c-0.8-15.8-3.4-31.6-2.6-47.2c6.6-125.5,82.9-230.1,191.9-264
			c120-37.4,261.6,7.7,336.8,105.9c44.3,57.8,67.6,124.6,84.7,193.7c40.9,165.8,4.4,321.1-69,470.1c-24,48.8-52.9,95.3-79.7,143
			c2.4,0.9,3.7,1.9,4.3,1.5c3.4-1.9,7-3.7,9.8-6.3c197.8-176.1,292.5-392.1,251-658.8c-16.5-105.8-54.6-203.3-130.8-282
			c-140.7-145.3-376.1-179.1-579-83.5c-65.3,30.7-111.8,79.5-128.1,150.2c-9.1,39.6-28,42.4-59.1,31.9c5.3-44,20-82.7,42.4-119.2
			c55.7-90.6,145-125.1,241.8-148.5c318.8-77,588.4,88.8,655.1,408.9c57.3,274.9-24.3,509.3-223,704.8
			C1655.4,1748.7,1634.1,1767.6,1607.6,1792.3z M633.6,2637.8c294.6-0.6,535.6-241.6,535.8-535.8c0.2-296.1-241.5-535.8-539.1-535.9
			c-280.2-0.1-536.5,241.7-534,537C98.8,2397.3,339.7,2638.4,633.6,2637.8z M1575.9,2021c-2.9-56-3.4-101.9-9.8-147.7
			c-3.1-21.9-10.2-31.7-33.2-34.1c-74-7.7-144-30.3-209.2-65.8c-22.9-12.5-31.6-4.8-41.7,14.6c-42,79.8-63.5,162.6-52.1,254.1
			c17.6,140.2-4.3,272.5-91.3,388.8c-23.8,31.8-53.9,57.5-83.2,83.9c-24.5,22.1-20.5,39.8,5.1,56.1c9.9,6.3,20.4,12,31.2,16.7
			c67.7,29.3,139.8,44.8,209.9,66.6c16.2,5,24.4-3.8,33.3-13.9C1494.1,2460.7,1575,2251.2,1575.9,2021z M1380.9,2669.3
			c107.1,36.7,192,11.3,260.6-81.4c88-118.9,145-248.8,139.8-401.1c-3.2-95.8,1.1-191.9-3-287.7c-3-69.6-20.9-80.2-86.5-66.5
			c-5.1,1.1-10.4,1.8-15.6,2.6c-59.3,9.5-59.2,9.5-55.5,66.5c1.2,18.4,0.9,36.8,2.1,55.2c16.6,248.5-56.5,469.1-206.9,665.8
			C1404.3,2638,1387.9,2650.1,1380.9,2669.3z M2077.2,2237.8c21,0,42.2,1.2,63.1-0.2c93.6-6.1,109.1-25.1,96.7-117.9
			c-1.2-9.1-3.1-18.1-5.3-27c-14.2-57.3-35.1-74.1-93.5-75.9c-94.1-2.8-186,12.1-277.4,32.5c-24.2,5.4-31.2,17.5-29.1,41.2
			c2.5,28.7,3.8,58.1,0.8,86.6c-2.6,25.2,9.2,32.3,29.6,36.2C1933.2,2227,2004.4,2239.8,2077.2,2237.8z M1185.2,1897.8
			c15.7-55.8,33.1-102.5,59.7-145c9.8-15.7,3.5-23.1-8.9-31.7c-78.9-54.7-142.6-124-195.4-203.8c-18.7-28.3-44.9-45.7-78-56.3
			c-85.4-27.4-170.9-25.7-257.2-7.4c-63.5,13.5-124,34.8-179.6,68.3C816.8,1478.7,1071.8,1625.9,1185.2,1897.8z"/>
		<path class="st1" d="M717.8,1834.7c103.9,0.1,184.9,81.6,184.6,185.8c-0.3,102.4-84.5,186.2-186.5,185.7
			c-101.8-0.5-185.9-85.6-185.3-187.5C531.1,1916.2,614.1,1834.6,717.8,1834.7z M712.3,2153.6c77.4,1.8,140.2-57.7,140.7-133.4
			c0.4-71.7-59.4-133.6-131.6-136.2c-75.7-2.7-139.7,58.9-140.3,134.9C580.7,2092.2,638.8,2151.9,712.3,2153.6z"/>
	</g>
</g>
</svg>
