<?xml version="1.0" encoding="utf-8"?>
<!-- Generator: Adobe Illustrator 23.0.0, SVG Export Plug-In . SVG Version: 6.00 Build 0)  -->
<svg version="1.0" xmlns="http://www.w3.org/2000/svg" xmlns:xlink="http://www.w3.org/1999/xlink" x="0px" y="0px"
	 viewBox="0 0 3000 3000" style="enable-background:new 0 0 3000 3000;" xml:space="preserve">
<style type="text/css">
	.st0{stroke:#000000;stroke-width:10;stroke-miterlimit:10;}
</style>
<g id="Layer_1">
</g>
<g id="Layer_2">
	<g>
		<path class="st0" d="M1460.8,2531.1c-369.7,0.6-648.5-31.7-920.6-113c-85-25.4-166.4-58.9-236.3-115.5
			c-77.8-63.1-129.1-141.7-140.8-243.2c-7.8-67.9,11.1-128.9,48.6-184.5c16.9-25.1,36.4-48.4,55.7-71.8
			c36.6-44.5,45.5-93.8,26.6-147.8c-25.7-73.6-73.3-125.2-150.1-146.9c-13.7-3.9-27.1-8.6-40.4-13.7c-15.1-5.7-26.6-15.9-28.1-32.7
			c-1.5-16.8,7.8-28.6,21.8-37c35-21.2,73.3-36.7,105.5-62.7c27.9-22.6,53-47.8,73.2-77.5c26.5-39.1,24.4-71.2-7.7-106.1
			c-43.6-47.4-94.3-87-143.8-127.8c-44.6-36.8-45.8-76.7-1.7-114c17.7-14.9,36.9-28,55.4-42c55.8-42.3,70.6-98.8,53.4-164.2
			c-9.3-35.2-23.1-69.1-34.8-103.6c-3.7-10.9-7.2-21.9-10.8-32.9c-6.2-19.3-5.6-37.5,11.9-50.7c17.8-13.4,37.9-8.7,52.3,3.2
			c98.1,81.4,216.2,96,336.9,110.9c188.3,23.3,371.2,8.1,551.4-50.8c66-21.6,133.9-37,203.1-45.5c88.8-10.9,173.4,5.5,257.6,32.5
			c175.7,56.4,354.6,100.8,537.6,124.1c167.9,21.4,334.6,9.1,496.3-45.2c78.5-26.4,143.2-75,201.5-132.6c14-13.8,27.1-28.5,42.2-41
			c29.5-24.5,60-13.4,67,24.4c11.1,59.7-2.7,117.4-18.7,173.9c-26.6,94.2-71.6,177.6-146.1,244.3c-43.1,38.6-46.2,68.4-10.8,115.6
			c136.8,182.4,146.3,404,28,601c-5.6,9.3-8.5,14.7,0.5,24.7c103.1,113.8,114.2,242.7,56.5,379.8
			c-43.2,102.4-121.2,174.8-214.7,231.4c-108.2,65.5-228.3,99.1-350,127.6C1987.7,2491.9,1683.3,2530.5,1460.8,2531.1z
			 M827.6,1371.7c-43.4-43.7-59.1-95.5-52.6-154.9c6.8-63.3,22.8-124.2,47.6-182.5c10-23.4,4-28.1-19.1-29.3
			c-55.2-2.9-109.7-12.7-163.8-24c-121.7-25.4-237.8-67.2-349.7-121c-9.4-4.5-18.7-15.3-27.2,2.8c-18.1,38.5-50.7,63.8-84.5,87.5
			c-54.5,38.2-54.3,43.1-3.3,84.9c46.1,37.8,92.6,75.5,132.3,120.4c37.8,42.9,39.4,89.8,14.5,139c-15,29.8-37.5,53.9-61.7,76.7
			c-37,34.9-79.5,61.7-128.6,85.7c17.8,5.9,30.6,9.7,43,14.4c98.9,37.9,154.6,111.3,171.6,214.2c11,66.3-19.2,119.3-61.4,167.3
			c-32.1,36.4-60.3,75.6-71.2,123.9c-24.4,107.7,17.5,194.1,91.5,267.7c64.2,63.8,145.4,99,230.3,125.5
			c258.2,80.5,523.6,113.9,793.1,117c319.7,3.7,635-34.8,946.1-107.7c116.3-27.3,231.5-58.6,335.6-120.4
			c96.1-57.1,172.9-131.7,212.7-238.7c43.2-116,13.3-259.5-84.6-328.5c-14.9-10.5-8.3-17.4-1-27.5c130.4-182.9,129.4-403-6.2-581
			c-50.9-66.8-38.5-124.6,15.4-172.2c82.5-72.8,122.9-166.5,146.5-269.9c7.2-31.5,13.5-63.9,2.5-100.1c-9.7,6.7-15.7,16.5-23.6,24.5
			c-28.1,28.7-58,55.4-90.7,78.9c-91.2,65.7-194.8,97.3-304.8,111.9c-132.4,17.6-264.7,22.6-396.9-0.4
			c-183.5-31.9-364-75.7-541.2-133c-42.7-13.8-86.6-22.2-130.6-21.3c-94.1,1.8-184.7,25.6-274.1,53c-147,45.1-296.4,70.1-450.5,56.3
			c-62.1-5.6-123.9-14.7-186.1-19.7c-89.4-7.2-170.6-34.6-242.6-88.8c-5.1-3.8-9.8-10.6-18.2-8.3c-0.5,1.8-1.6,3.6-1.2,5
			c1.9,6.8,4,13.6,6.4,20.3c21,56.8,45.1,112.9,40.9,175.4c-0.8,11.9,7.2,15.1,15.3,18.8c37.3,16.9,74,35.4,112.1,50.2
			c239.7,93.2,484.4,135.4,739.9,73c249.3-60.9,499.7-60.9,749.1-1.8c178.9,42.4,356.1,43.7,533.7-4.6
			c100.9-27.4,197.9-64.5,289-115.9c21.9-12.4,24.7,3.3,33,14.9c10.5,14.5,0.9,19.2-10.2,25.1C2624,918,2498.1,965.8,2364,990.9
			c-41.5,7.7-83.4,13.6-124.9,20.2c0.2,2.8,0,3.9,0.4,4.6c81.9,120.9,90.3,246.4,22.6,376.1c-6.1,11.7-2.7,17.7,5.4,24.8
			c17.8,15.8,29.4,35.8,36.7,58.1c20.2,62.6,29.3,126.8,22.9,192.5c-8.8,90.6-59.7,149.8-148.4,173c-12.7,3.3-13,9.9-11.7,19.1
			c3.6,25.6,8.1,51,11.2,76.6c1.8,15.2,8.2,22.6,24.1,26.2c73,16.6,125.7,60.5,161.7,125.3c5,8.9,14,20-3.3,25.2
			c-11.9,3.6-24.5,20.5-36.4-3.8c-22.9-46.7-60.6-78.9-109.3-97.1c-46.5-17.4-94.9-13.2-142.8-8.5c-62.4,6.1-100.7,40.5-115.3,101.5
			c-1.9,7.8-4.8,15.3-7.7,22.7c-5.3,13.4-14,23.7-29.7,22.1c-15.3-1.6-23.2-12.4-25.6-26.8c-2.4-14-3.9-28.2-5.7-42.3
			c-7.2-54.4-29.6-80.1-79.9-83.9c-64.8-4.8-130.1-8.3-194,9.4c-56.6,15.7-102.1,42.8-105.4,109.9c-0.5,9.5-4.2,18-12.4,22.4
			c-7.9,4.2-18,5.5-26,1.6c-11.4-5.6-6-17.2-5.5-26.2c4.5-80.4-20.8-110.1-100.2-120c-51-6.3-101.7-2.5-152.1,2.7
			c-50.2,5.1-71.1,25.9-83.9,75.4c-2.2,8.6-4.2,17.3-6.7,25.9c-4.4,15.1-10.1,30.4-29.5,28.5c-19.1-1.8-23.1-16.7-23.7-33.2
			c-0.3-8.9-1.5-17.8-2-26.7c-3-54.6-31.1-87.5-83.2-104.8c-135.6-45.1-280.6-8.6-374.5,99.5c-17.7,20.4-25.3,6.1-37.7-1.8
			c-20.1-12.9-2.1-21.1,4.2-28.5c47.6-55.6,106.7-96.5,177.3-113.7c36.4-8.9,45.7-29,52.2-59.1c2.8-12.9-0.8-15.1-12.1-16.1
			c-66-6-102.7-46.5-117.8-107C642.7,1604.8,710.5,1443.4,827.6,1371.7z M1997.8,1978.1c39.7-18.7,78.8-21.9,118-22.7
			c18.3-0.4,20.1-7.9,17.7-23c-15.2-93.9-30-187.9-44.7-281.8c-31.3-200.3-62.7-400.5-93.5-600.9c-7.9-51.1-6.9-51.2-58-61.6
			c-15.7-3.2-31.5-5.9-46.8-10.3c-14.3-4.1-19.1-1-17,14.5c8,59,15.2,118.2,22.6,177.3c17.2,136.8,34.4,273.5,51.6,410.3
			C1964.2,1711.3,1980.8,1842.8,1997.8,1978.1z M840.3,1897.6c34,1.8,65.6-2.3,95.9,6.5c19,5.5,26.1-1,31.1-19.3
			c22.1-81.4,45.6-162.4,68.6-243.5c61.7-217.9,123.2-435.9,185.5-653.6c5.2-18.3,2.7-22.3-15.9-17.8c-31.9,7.8-64.1,14.9-96.5,20.5
			c-17.2,3-24.5,10.6-29.1,27.8c-40.8,152.7-82.8,305.1-124.5,457.6C917.2,1615.4,879.2,1755,840.3,1897.6z M2262.9,1224.4
			c-1.8-75.6-24.7-140.5-71.6-196.6c-6.9-8.3-13.2-15.8-26-15.8c-39.2,0-78.4,0.3-117.2-6.3c-12.5-2.1-15,2.8-13.1,14.8
			c19.2,119.3,38.4,238.6,56.4,358.1c2.5,16.4,8.1,15.3,20.6,12.1c28.6-7.2,57.8-11.5,87.3-6c13.7,2.5,19.2-5,24.5-14.9
			C2248.8,1323.6,2261.7,1274.2,2262.9,1224.4z M1037.6,1003.3c-51.1,6.6-99,8.3-146.9,7.3c-12.2-0.3-14,9.6-17.4,17.3
			c-27.3,61.3-45.8,125.2-54.2,191.8c-5,39.6,3.8,75.3,28.4,108c19.2,25.5,44.3,31.5,73.8,34.2c15.9,1.5,20.1-3.4,23.4-16.2
			c10.1-38.7,20.8-77.2,31.3-115.8C996.2,1155.7,1016.3,1081.4,1037.6,1003.3z M712.4,1674.1c0.5,21.2,2.7,44.2,11,66.1
			c13.1,34.7,42,56.1,73.2,57.2c18.3,0.6,27-6.6,31.7-24.3c30.4-114,60.8-228,93.1-341.5c6.8-23.9-1.9-28-21.3-27.8
			c-53.5,0.4-93.2,26.4-123.5,68.1C733.4,1531.4,716.3,1599.7,712.4,1674.1z M2284.9,1631c-0.6-46.8-6.9-88.1-18.6-128.3
			c-17.3-59.2-46.6-78.7-108.4-74.5c-10.6,0.7-21,4-31.6,4.9c-20.8,1.7-25.4,11.3-21.9,31.7c16.4,98,31.7,196.2,46.6,294.5
			c6.4,42.5,14.9,47.5,53.9,27.5c5.5-2.8,10.8-6.2,15.8-9.9C2271.7,1739.3,2284.7,1685.5,2284.9,1631z M1481.8,1674.6
			c3.5-2.1,8.2-4.6,12.7-7.5c39.2-24.5,78.1-49.7,117.8-73.4c14.4-8.6,13.6-14.1,2.3-24.9c-40.5-38.9-80.7-78.1-119.8-118.5
			c-12.1-12.5-20.7-11.4-33.7-2.8c-41.5,27.6-83.3,54.8-125.7,80.9c-13.7,8.5-15.7,13.4-2.6,24.4c44.2,37.3,87.7,75.6,131.5,113.5
			C1469,1670.4,1473.4,1675.2,1481.8,1674.6z M1788.7,1179.1c-1.6-1.8-3.2-4-5.2-5.7c-45.9-39.6-91.9-78.9-137.6-118.7
			c-7.7-6.7-12.4-3.1-18.1,1.9c-33.3,29.6-66.5,59.3-100.3,88.3c-9.9,8.5-6.8,13.8,1,21c35.4,32.6,70.6,65.4,105.5,98.6
			c8.5,8.1,15.1,9.6,25.4,2.8c39.3-26,79.3-51.1,118.9-76.8C1782.6,1187.8,1788.4,1186,1788.7,1179.1z M1640.6,1333.4
			c-3.5,1.9-5.9,3-8.2,4.4c-34.5,22.1-68.8,44.4-103.4,66.2c-11.3,7.1-5.7,12.3,0.5,18.4c42.6,41.8,85.3,83.6,127.7,125.7
			c8.6,8.5,15.6,7.9,25.4,1.5c32.7-21.4,65.9-42.3,99.4-62.4c13.2-7.9,12.3-12.6,1.4-22.5c-43.5-39.6-86-80.2-129-120.4
			C1650,1340.1,1644.9,1336.8,1640.6,1333.4z M1779.5,1737.2c-37.3-39-74.2-77.3-110.9-115.8c-5.6-5.8-10.3-4.4-16.2-0.6
			c-45.7,28.9-91.4,57.6-139.2,87.7c40.7,34.9,79.9,68.1,118.4,102.1c7.9,6.9,13.5,5.6,21,1.1
			C1695.4,1786.4,1738.2,1761.4,1779.5,1737.2z M1680.2,1307.3c49.6,46,97.2,90.1,144.6,134.3c7,6.6,14.2,12.4,22.8,4
			c11.7-11.4,36.8-10.8,34-35.1c-6.2-53.8-12.7-107.7-20.6-161.3c-3.9-26.4-32.4-37.9-54.4-23.7
			C1765.7,1252,1724.7,1278.5,1680.2,1307.3z M1437.7,1702.2c-52-44.7-102-87.4-151.6-130.5c-8.6-7.5-14.4-2.1-21.1,2.2
			c-24.7,15.9-49.2,32.2-74.3,47.4c-11.8,7.2-14.7,12-3.3,23.1c41,39.7,81.3,80.2,121.5,120.7c7,7,12.5,10.9,22.5,4.4
			C1365.5,1747.3,1400.2,1725.9,1437.7,1702.2z M1280.4,1801.1c-36.7-37-71.7-72.5-106.9-107.7c-36.3-36.4-36.4-36.3-79.9-8.7
			c-41.9,26.6-43.5,33.6-17.5,72.2c23.8,35.4,47.1,71.1,71.2,106.3c4.2,6.1,6.4,17.9,19.5,9.5
			C1204,1848.6,1241.7,1825.3,1280.4,1801.1z M1701.9,1589.9c24.8,24.9,47.1,47.8,70,70.2c17.1,16.7,33.8,44.3,52.6,46
			c20.5,1.8,43.4-20.2,64.7-32.7c7.4-4.3,20.8-6.8,20.4-15.2c-1.1-31.3,4-65.1-17.4-91.7c-14.4-17.8-33.7-31.5-50.2-47.7
			c-7.7-7.5-13.5-8.2-22.9-2.1C1780.9,1541.2,1742.2,1564.8,1701.9,1589.9z M1444,1405.4c-30-31.1-59-61-87.8-91.2
			c-6.6-6.9-11.2-8.2-19.4-0.8c-45.6,40.8-91.8,80.9-138.9,122.2c25.7,22.3,50,43.1,73.8,64.4c7.8,7,14.4,7.3,23.3,1.5
			C1344.7,1469.1,1394.8,1437.1,1444,1405.4z M1599.4,1842.3c-40-34.8-77.7-67.3-115-100.1c-7.7-6.7-13.6-7.9-23.1-1.6
			c-31.1,20.5-63,40-94.8,59.4c-9.3,5.6-13.4,9.6-3.3,19.3c31.4,30.2,62.4,61,92.7,92.3c8.5,8.8,15,5.9,23.1,1.2
			C1517.9,1889.9,1557,1867.1,1599.4,1842.3z M1605.1,1300.6c-3.3-4-5.2-6.9-7.7-9.3c-35.1-32.9-70.4-65.4-105.2-98.6
			c-8.2-7.8-13.3-4.5-20,1.5c-26.6,23.7-53.1,47.4-80.4,70.2c-10.3,8.6-9.1,13.7-0.1,22.3c27.7,26.4,54.8,53.4,81.8,80.6
			c7.9,7.9,13.8,11,24.7,3.6c31.6-21.5,64.2-41.5,96.3-62.1C1597.9,1306.6,1601,1303.8,1605.1,1300.6z M1677,1849.3
			c34.8,30.2,67.6,58.6,100.2,87.3c6.6,5.8,11.2,1.9,16.3-1.6c33.7-23.3,67.3-46.6,101.1-69.7c7.9-5.4,11.9-9.8,3-18.3
			c-24.5-23.5-48.4-47.4-72.4-71.3c-6.1-6.1-11.8-6.3-19-2C1764.3,1798.4,1722.2,1822.9,1677,1849.3z M1846.1,1130.3
			c-6.2-50.3-12.4-100.5-18.4-150.8c-1.4-11.6-8-14.9-18.8-18.2c-40.7-12.3-76.3-10.1-103.8,27.2c-5.1,7-12.9,12.2-20.1,17.5
			c-11.6,8.5-10.9,14.2,0.5,23.7c45.1,37.7,89,76.7,133.5,115.1c5.6,4.8,10.2,13,20.3,6.7C1848.1,1146,1846.8,1138.3,1846.1,1130.3z
			 M1483.9,1122.5c3.1-2.1,5.4-3.4,7.4-5.1c34.6-30.5,69.1-61.1,103.8-91.6c10.2-9,1.4-13.7-4.2-18.6c-22.1-19.2-45-37.5-66.4-57.5
			c-10.4-9.7-16.4-4.7-24.5,2c-31.4,26.1-62.9,51.9-94.8,77.5c-8.4,6.7-11.8,11.7-2,20.5c23.8,21.3,46.9,43.4,70.4,65.1
			C1476.9,1117.8,1480.6,1120.1,1483.9,1122.5z M1357.9,1070.1c-3.4,2.2-5.8,3.4-7.8,5.1c-28.8,23.7-57.4,47.6-86.4,70.9
			c-9,7.2-3.5,11.5,1.6,16.6c24,23.7,48.3,47.1,71.9,71.2c8.4,8.6,14.5,6.9,22.4-0.3c26.3-23.9,52.5-47.8,79.6-70.7
			c10.3-8.7,6.9-13.3-1-20.3c-23.1-20.8-45.6-42.2-68.4-63.3C1366.1,1075.9,1361.7,1073.1,1357.9,1070.1z M1389.6,1951.7
			c15.5,2.7,26.1,1.8,30.4-6.1c4.7-8.7-6.5-13.1-11.7-18.4c-26.9-27.4-54.7-53.7-81.1-81.5c-10-10.5-17.5-10.8-29.2-3.1
			c-31.2,20.6-63.3,39.9-94.6,60.3c-6.9,4.5-22.4,6.7-15.8,18.7c6.9,12.5,9.8,32,32.2,29.6
			C1278.4,1944.8,1337.1,1943.7,1389.6,1951.7z M1310.3,1272c-1.3-1.8-2.6-4.2-4.5-6c-25.9-25.8-51.5-51.9-78-76.9
			c-11.6-10.9-16.6-1.7-19.6,9.2c-17.4,61.6-35.1,123.1-52.2,184.7c-1.7,6.1-5.6,14.1,3.6,18.8c9,4.6,12.9-3.6,17.6-7.6
			c41.6-36.3,82.8-73.1,124-109.8C1304.9,1281,1311,1279.3,1310.3,1272z M1720.7,1947.4c-28.6-25-51.9-45.4-75.1-65.7
			c-5.8-5.1-11.6-7.6-19.2-3.1c-42,24.8-84.1,49.4-131.2,77c12,9.9,21.2,17.1,29.8,24.7c6.1,5.4,10.4,10.8,20.5,5.4
			C1597.8,1957.8,1655.1,1950.5,1720.7,1947.4z M1239.1,1530.7c-2.4-2.1-5.7-5-9.1-7.8c-10.8-9.2-21.7-18.3-32.3-27.7
			c-35.1-30.8-35.1-30.9-68.8-1.1c-12.2,10.8-9.6,27.9-16.4,40.8c-15.3,28.9,6.7,42.1,23.1,56.9c16.3,14.7,24.7-5.6,35.4-11.2
			c20.3-10.6,39.1-24.3,58.4-36.9C1233.5,1540.9,1239.3,1539.2,1239.1,1530.7z M1041.1,1786.1c-11.5,41.1-21.4,76.7-31.3,112.3
			c-2.4,8.8-11.3,20.9,2.3,25.1c16.1,4.9,27.9,25.9,47.6,15.7c17.3-9,33.3-20.6,49.9-31c5.8-3.7,9.1-7.1,3.9-14.7
			C1090,1859.4,1067.1,1824.9,1041.1,1786.1z M1842,1955.9c48,15.2,72.7,48.1,85.8,94.9c10.4-17,26.6-31.3,26.4-45.4
			c-0.6-38-8.1-76-13.3-117.4C1906.1,1911.8,1875.6,1932.8,1842,1955.9z M1300.5,953.6c19,17.4,35.1,32,51.1,46.9
			c5,4.6,9.7,7.4,16,2.1c23.3-19.5,46.8-38.8,75-62.2C1391.6,939.6,1348.4,944.5,1300.5,953.6z M1232.6,1112.4
			c18.2-14.4,30-23.4,41.5-32.9c53.1-44.2,53.1-44.2,0.4-88.6c-1.1-1-3.2-0.8-6.8-1.6C1256.6,1027.9,1245.7,1066.4,1232.6,1112.4z
			 M1924.3,1815.7c2.4-1.8,4.7-3.5,7.1-5.3c-3.7-30.3-7.5-60.7-11.2-91c-0.6-5.3-3.5-9.1-8.5-6.4c-16.2,8.9-32.2,18.3-47.8,28.3
			c-5.1,3.3-1.6,7.7,1.5,11C1885.1,1773.5,1904.7,1794.6,1924.3,1815.7z M1687,943.5c-38.1-2.5-69.8-4.6-109.2-7.2
			c21.2,18.6,36.4,31.8,51.5,45.2c5.6,4.9,10.7,5.2,16.3-0.1C1657.7,970.1,1669.9,959.1,1687,943.5z M1101.7,2013
			c15.9-18.7,28.2-35.2,47-44.8c6.3-3.2,10.4-7.6,4.3-14.4c-3.8-4.3-5.6-14.5-12.9-10.6c-17.9,9.6-37.4,18.8-50.9,33.1
			C1081.2,1985,1097.4,1997.2,1101.7,2013z"/>
	</g>
</g>
</svg>
