<?xml version="1.0" encoding="utf-8"?>
<!-- Generator: Adobe Illustrator 23.0.0, SVG Export Plug-In . SVG Version: 6.00 Build 0)  -->
<svg version="1.0" xmlns="http://www.w3.org/2000/svg" xmlns:xlink="http://www.w3.org/1999/xlink" x="0px" y="0px"
	 viewBox="0 0 3000 3000" style="enable-background:new 0 0 3000 3000;" xml:space="preserve">
<style type="text/css">
	.st0{stroke:#000000;stroke-width:10;stroke-miterlimit:10;}
</style>
<g id="Layer_1">
</g>
<g id="Layer_2">
	<g>
		<path class="st0" d="M2107.7,1017.2c11.1,12.9,21.6,24.7,31.6,36.9c67.3,82,96.5,179.2,111.7,281.7
			c28.4,192.2,33.2,385.9,31.9,579.6c-0.9,131.4,0.1,263-13.6,394c-7,66.9-17.1,133.1-35.3,198.1c-57.5,206.3-190.2,334.3-398,384.5
			c-159.4,38.6-322.2,39.9-484.7,41.3c-135.1,1.2-268.1-16.2-397.6-57c-229.6-72.3-353.3-240.1-360-480.7
			c-4.2-149.6,20.9-291.4,91.7-424.1c4.7-8.9,14.7-18.1,0.1-28.1c-60.8-41.8-83.3-104.8-88.3-173.7
			c-13.6-185.4,1.3-367.1,82.3-538.2c33.2-70.2,75.3-134.6,132.9-191.7C704,1005.4,663,922.8,647.8,821.8
			c-20-133.8-27.2-267.6,5.9-400.6c31.1-125,105.4-214.2,222.9-267C961,116.3,1051.3,102.4,1142,92c215.9-24.7,432.4-31,649.2-12.9
			c78.1,6.5,155,19.2,229.1,46.9c135.3,50.6,221.6,145,255.5,285.3c30,124.1,37.1,250.3,17.3,376.4
			C2275.8,897.1,2219.6,979.1,2107.7,1017.2z M1018.9,1524.8c-3.9,23.4-1.5,46.2,0.8,69c6.1,61.9,12.2,123.5,2.9,186
			c-21.2,141.5-117.7,230.4-262,196.9c-19.5-4.5-23.8,6.5-30.7,19.3c-73.2,137.1-94.8,283-82.6,436.9
			c15.3,192.8,126.9,335.7,311.3,392.7c87.6,27,176.7,45.3,268,51.4c174.7,11.7,348.9,6.1,522.5-18.3c16.8-2.4,26.2-8.7,32.4-25
			c47.7-124.6,87.9-251.5,119.3-381.2c4.8-19.8,0-27.2-20.5-32.5c-52.8-13.6-97.3-42-132.1-84.6c-75.8-92.8-63-223.7,28.9-287.4
			c49-33.9,104.7-38.1,161.7-31c18.2,2.3,24.6-1.8,25.4-21c5.9-145,0.5-289.2-33.5-430.8c-34.5-144.1-113.1-254.9-256.4-307.7
			c-151-55.7-306.2-62.2-461.2-18.6c-100.8,28.3-175.6,86.7-194.8,198.2c-4,22.9,0.9,31.4,24.4,36.1
			c197.4,39.3,376.5-1.4,536.6-122.5c21.3-16.1,29.4-11.3,44.5,5.6c18.8,21.2-2,26.1-11.7,32.9c-15.4,10.7-18.5,22.1-15.8,40.5
			c5.8,39,3.1,79.2,24.6,115.4c8.7,14.7,5.8,33.5,1.8,50.2c-2.1,8.9-4.7,17.2-2.3,26.4c8,30.8-0.6,57.7-21.3,80.6
			c-8.4,9.3-9.8,17.1-7.3,29.4c10.2,48.9-5.9,78.6-52.3,97.3c-13.7,5.5-20.6,11.2-20.7,27.5c-0.2,27.8-15.3,47.8-42,56
			c-41.6,12.8-84.4,17.8-127.8,13.5c-26.5-2.6-44.8-16.8-50.3-43.9c-3.2-15.7-10.3-23.3-27.9-24c-38.8-1.6-63.2-24.3-73.5-60.3
			c-5.4-18.9-15.1-24.9-33.7-25.8c-25.5-1.2-47.8-13.2-58.8-36.4c-14.3-30.1-33-59.9-42.7-89.6
			C1048.9,1605.2,1018,1570.5,1018.9,1524.8z M1834.4,2839.2c49.6-11.3,93-28.1,133.8-51.1c132.3-74.6,196.4-195.6,228.7-338
			c27.3-120.2,30-242.5,33.2-365c6.4-245,3.5-489.5-26.8-733.3c-26.6-214.1-138.9-353.8-344.9-422.1
			c-222.7-73.7-447.3-88.8-675.9-36.2c-178.5,41.1-322.9,133.2-419.8,291.7c-114.1,186.7-135.1,392-111.6,603.7
			c10.1,91,73.6,142.9,160.5,145.2c80,2.1,135.5-47.3,156.2-138.1c14.1-61.8,7.9-123.6,2.9-185.7c-5.2-63.9-14-128.1-0.4-191.9
			c27.2-127.6,115.4-195.5,233.6-229.9c120.8-35.2,244.2-33.6,367-12.3c207.8,36.1,347.1,151.4,403.9,358.8
			c28.3,103.4,37.8,209.2,40.6,315.6c7.5,279.6-38.2,551.5-122.8,817.3C1874.9,2724.1,1854.9,2779.4,1834.4,2839.2z M1501,119.9
			c-94.5-0.7-188.6,5.4-282.5,14.4c-98.8,9.5-197.8,19.4-292,53.8c-117.8,43-194,123.8-224.6,246.8c-25.1,100.9-23,202.8-13.8,305.1
			c5,54.9,10.1,110,33.9,161c21.1,45,53.7,76.7,103.5,88.5c19.4,4.6,24.8,0.9,19.1-20.5c-34-127.3-5.3-242.5,72.8-345.9
			c76.9-101.8,181.7-162.4,303.6-193.9c167.7-43.3,336.4-39,503.5,1.5c147.5,35.8,265.4,112.9,325.3,259.6
			c32,78.3,41.4,160.7,38.9,244.9c-1,34.2,3.2,37.2,34.4,21.9c72-35.4,109-98.1,120.1-173.6c18.8-128.2,13.8-256.5-22-381.6
			c-41.6-145.2-149-217.9-289-250.4C1790.2,118.7,1645.4,120.6,1501,119.9z M2034.6,955.2c1.5-11.7,3.7-21.5,3.8-31.3
			c3.4-229.3-90.8-379.3-311.1-440.5c-118.4-32.8-239.5-39.3-361.1-29c-117.6,10-229.3,41.1-324.3,115.1
			c-116.8,91-177.2,207.8-155.6,358.9c5.7,39.6,6.1,36.7,41.7,18.2c30.3-15.8,39.6-35.5,40.9-69.5
			c5.9-154.8,125.4-302.5,278.5-345.5c107.6-30.2,217.7-31.9,328.2-20.3c96.4,10.1,186.2,39.1,263.8,98.8
			c90.6,69.7,147.2,159.7,145.9,276.6C1984.9,925.1,1997.7,943.7,2034.6,955.2z M1318.1,692.1c0,36.1,0.7,72.2-0.3,108.3
			c-0.4,16.5,5.3,20.4,21.1,18.5c99.9-11.7,199.6-10.8,298.9,6.2c17.3,3,22.9-1.8,22.7-19.6c-0.7-69.2-0.3-138.3,0.4-207.5
			c0.1-14-3.1-21.5-18.4-25c-101.1-23.2-202.8-21.6-304.9-9.4c-14.5,1.7-20.3,7.9-19.8,23.2C1318.8,621.9,1318,657,1318.1,692.1z
			 M1906.3,2065.1c-104.5-2.2-167.6,60.1-155.2,155.8c10.4,80.3,77.4,135.4,150.5,153.3c16.7,4.1,17.2-7.1,19.6-18.4
			c16.4-78.5,28-157.8,34.5-237.7C1959.9,2066.3,1959,2066.3,1906.3,2065.1z M1016,895.3c47.8-18.4,89.8-34.8,133.7-45.1
			c14.4-3.3,15.8-12.9,16.2-24.6c2.1-53.1,5-106.2,6.6-159.4c0.4-13.9,5.5-28.7-1.7-45.5C1077.3,689.6,1026,777.8,1016,895.3z
			 M1934.9,903.3c10.3-87.3-51-210.5-121.1-243.3c-4.8,62-9.6,123.6-14.3,185.2c-0.6,8-0.8,14.9,10.1,18.2
			C1851.5,876,1893.1,889.8,1934.9,903.3z M1268.6,578.9c-19.1,6.4-40.8,1.5-41.9,30.7c-2.5,67.1-7.3,134.2-10.3,201.3
			c-0.3,7.6-8.6,24.2,9.2,21.8c15.2-2.1,41.7,7.4,42.3-19.9C1269.7,735.6,1268.6,658.5,1268.6,578.9z M1710.1,715.6
			c-0.2,0-0.4,0-0.6,0c0,35.1,1,70.2-0.4,105.2c-0.8,21.4,14.1,20.9,27.3,23.3c16.8,3,13.8-10.4,14.4-19.5
			c4.2-56.9,6.2-114.1,12.8-170.7c3.7-31.3-12.2-42.4-36.3-51.9c-13.5-5.4-17.8-3-17.6,11.5C1710.4,647.5,1710.1,681.6,1710.1,715.6
			z M1544.7,1439.8c-35.4,16.4-70.8,32.2-105.5,49.4c-14.2,7.1-5.3,21.5-6.3,32.6c-0.7,8.2,4.1,11.7,12.4,13.5
			C1513.7,1549.8,1558.3,1507.8,1544.7,1439.8z M1305.5,1578.7c14.8-2.7,31.5-5,47.9-9.1c20.1-5.1,28.5-19.9,29.9-39.8
			c1-14.1-3.7-20.9-19-16.7c-30.7,8.4-61.8,15.7-93.6,18.2c-17.7,1.4-16,13.8-17.9,25.5c-2.5,15.4,8.2,15.5,18.1,17
			C1281.7,1575.4,1292.5,1576.9,1305.5,1578.7z M1490.7,1743.3c0-0.5,0-1,0-1.5c-14,0-28-0.7-41.9,0.2c-13.7,0.9-28.8,0.6-28.7,21.5
			c0.2,19.4,2.3,36.3,27.4,36.5c30.8,0.4,58.8-10,85.6-23.6c10.5-5.3,13.7-17.1,10.3-28.6c-3.9-13.4-14.9-5.7-22.8-5.9
			C1510.6,1741.8,1500.6,1742.8,1490.7,1743.3z M1294.4,1807.5c21.2,0.6,41.9-2.3,62.1-9c11-3.7,15.7-11.5,15-23.1
			c-0.5-8-3.3-14.8-12.2-13.4c-31.7,5.2-64.3-15.5-95.7,3.7c-6.8,4.2-20.4,0.2-19.4,13.1c1,13.8,9.6,24.6,23.2,28.2
			C1275.9,1809.3,1285.4,1807.5,1294.4,1807.5z M1142.1,1573.2c15-1,30-1.3,44.8-3.4c11.8-1.6,16.4-10.2,15.9-21.8
			c-0.6-15.2-12.4-10-20-10.3c-28-1-56.1-0.3-84-4.4c-8.2-1.2-22.2-9.9-24.6,5.3c-1.8,11.3,3.6,23.9,17.4,28.5
			C1107.9,1572.7,1125,1572.1,1142.1,1573.2z M1496.8,1615.4c19.5-4.4,41.5-6.2,61.5-16.7c13.1-6.9,19.5-17,16.9-31.7
			c-1.6-9-4.5-15.1-15.9-8.1c-25.2,15.5-53.6,21.5-82.5,25.5c-7.8,1.1-12.8,3.2-13.6,12.4c-0.9,10.7,5.5,14.3,13.7,16.2
			C1482.7,1614.5,1488.7,1614.6,1496.8,1615.4z M1199.9,1723.9c14.1,1.2,32.9-1.8,51.2-7.1c15.4-4.4,17.7-17.5,16.6-31.3
			c-0.6-7.7-4.8-10.3-12.2-7.1c-31.9,14.2-65.8,16-100,15.3c-15.4-0.3-14.1,7.4-7.6,16.6C1159.9,1727.1,1178,1723.1,1199.9,1723.9z
			 M1470.7,1852.2c-22.6-2.6-42.3-0.9-59.3-9.9c-24-12.6-41.4,7.6-61.6,12.3c-9,2.1-4.8,15.5,4.9,20.3
			C1373.2,1884.1,1450.8,1870.4,1470.7,1852.2z M1242.5,1623c-3.4-2.3-6.5-6.4-9.5-6.2c-39.7,1.7-79.2,7.3-119.1,5.1
			c-2-0.1-6.1,3.5-5.8,4.5c0.9,3.5,2.5,7.6,5.2,9.6C1135.7,1652.5,1217.1,1644.6,1242.5,1623z M1572,1650.4
			c-33.2,7.3-61.7,17-91.9,13.4c-8.4-1-13.1,2.4-11.9,11.9c1,7.6-0.9,15,10.7,17.7C1509.6,1700.6,1550.9,1683.9,1572,1650.4z
			 M1345.6,1711.6c21.2,0.7,41.5-3.4,61.3-10.9c8.7-3.3,12.5-10,10.9-18.7c-1.2-6.6-6.8-6.2-11.7-4c-23.4,10.4-48.3,10.6-73.2,11.1
			c-9.1,0.2-15.8,2.7-14.9,13.6c0.9,10.5,9.2,8.4,15.7,8.9C1337.6,1711.9,1341.6,1711.6,1345.6,1711.6z M1412.9,1591.2
			c-34.2,32-74.5,33-116.7,39.1C1345.2,1653.1,1403,1634.5,1412.9,1591.2z"/>
		<path class="st0" d="M1592.4,1960.5c0.4-45.9,28.7-79.8,65.5-78.6c38.2,1.3,74,44.5,73.9,89.2c-0.1,39.8-24.6,64.3-64,63.9
			C1619.8,2034.5,1591.9,2006.9,1592.4,1960.5z M1658.5,1934c-13.2,1.9-14.7,11.8-15.6,22c-1.3,14.4,0.7,26.4,19,27.3
			c9.7,0.5,18.7,0.5,18.4-12.9C1679.9,1954.2,1674,1941.3,1658.5,1934z"/>
		<path class="st0" d="M1661.5,2200.3c0,39.6-24.7,64.9-62.7,64.4c-46.3-0.6-76.9-30.1-76.5-73.9c0.4-45.5,27.7-79.6,64.2-80
			C1626.2,2110.4,1661.5,2152.5,1661.5,2200.3z M1611.3,2193.5c-3.6-11.9-6.6-29.5-24.8-29.5c-11.7,0-14.5,14.5-14.4,25.4
			c0.2,15.6,9.3,23.1,24.8,23.4C1608.5,2212.9,1613.2,2207.2,1611.3,2193.5z"/>
		<path class="st0" d="M1874,1894.2c-48-0.3-75.5-26.9-75.3-73c0.2-45.6,27.6-79.4,64.1-79.3c39.2,0.2,75.3,43.4,75.1,89.9
			C1937.7,1871.5,1914.3,1894.4,1874,1894.2z M1848.3,1817.8c-1.3,18.2,7.1,25.3,22.6,26.3c11,0.7,18-3.3,16.2-14.9
			c-2.3-14.7-4.9-31.9-23.2-33.5C1849.4,1794.4,1850.1,1809.3,1848.3,1817.8z"/>
		<path class="st0" d="M1694.9,2525.3c-48.5,0.4-76.7-25.8-76.9-71.5c-0.2-47.3,24.6-79,62.4-79.7c40.2-0.7,75.9,39.9,76.8,87.2
			C1757.9,2501.2,1734.7,2525,1694.9,2525.3z M1667.7,2449.6c-4.1,20.6,10.6,23.4,24.5,25.8c9.7,1.7,15.5-3.9,14.5-13.5
			c-1.8-16-5.8-34-23.9-36.4C1669.8,2423.9,1669.8,2439.8,1667.7,2449.6z"/>
	</g>
</g>
</svg>
