<?xml version="1.0" encoding="utf-8"?>
<!-- Generator: Adobe Illustrator 23.0.0, SVG Export Plug-In . SVG Version: 6.00 Build 0)  -->
<svg version="1.0" xmlns="http://www.w3.org/2000/svg" xmlns:xlink="http://www.w3.org/1999/xlink" x="0px" y="0px"
	 viewBox="0 0 3000 3000" style="enable-background:new 0 0 3000 3000;" xml:space="preserve">
<style type="text/css">
	.st0{stroke:#000000;stroke-width:10;stroke-miterlimit:10;}
</style>
<g id="Layer_1">
</g>
<g id="Layer_2">
	<g>
		<path class="st0" d="M271.5,1185.8c-15.2-10.5-28.6-17.6-39.4-27.5c-42.1-38.2-53.1-86.8-38-139.4c14.7-51.5,52.1-83.6,105-91.3
			c25.2-3.7,29.8-9.8,20.8-32.8c-10.6-27-7.6-55.3,3.2-81.6c6.2-15.1,1.8-19.1-11.6-25c-46.4-20.5-57.9-43.3-45.1-90.1
			c4-14.5-3.7-13-11.9-15.4c-103.2-30.1-150-61-215.5-142.6c9-9.1,19.7-4,29.5-3.5c54.5,2.8,108.8,6.8,163.5,1.2
			c48.8-5,94-19.5,137-42.1c95.8-50.2,186.4-48.4,269.2,27c13.1,11.9,17.4,2.5,24.9-5.1c70.6-72.3,163.9-92.7,255-46
			c89.1,45.7,181.2,61,279.3,52.6c23.2-2,46.7-0.3,74.7-0.3c-60.6,79.2-134.7,131.3-232.3,147.7c29.9,51.7-6.8,86.8-64.5,123.3
			c49.1,53.6,60.6,112.8,22,180c29.8,10.2,57.2,23.2,79.5,47.4c11.3-15.8,10.6-33.4,14.9-49.3c42.8-158.3,118.8-291,277.5-359.7
			c72.5-31.4,149.4-45.2,227.3-52.1c233.1-20.7,466.2-8.3,699.3,0.6c24.4,0.9,49.1,4.7,73,9.8c58.1,12.4,106.4,37.8,120.3,103.4
			c11.8-6.4,11.4-17.2,15.3-25.2c22.9-48.2,53.9-89.7,97.3-121.4c83.2-60.9,175.9-52.3,243.9,25.3c81.6,93,108.1,204.3,101.8,325
			c-6.2,117.7-7.1,235.2-2.3,353c5,120-9.9,239.3-19.2,358.7c-4.2,54.3-10.9,108.5-16.8,162.6c-9.8,90.7-58.6,161.3-117.3,226.8
			c-5.7,6.4-11.8,12.3-17.7,18.5c-0.7,0.7-0.9,1.9-2.2,5.1c18.1,7.4,36.7,14,54.4,22.3c63.6,29.8,113.6,73.2,133.2,143.2
			c19.2,68.8-2.1,130.5-53.1,175c-108,94.1-235.6,136.8-379.5,118.6c-58.2-7.4-105.6-38.3-143.8-87.4
			c-16.1,25.3-28.1,50.4-48.3,69.7c-48.1,45.9-105,73.6-171.1,79.8c-106.1,10-211.8,4.9-316.6-13.4c-35.8-6.3-70.9-17.4-96.9-45.9
			c-6.8-7.5-11.6-10.5-19.3,0.5c-59.4,84.9-145.6,107.6-242.5,99.3c-82-7.1-165.3-15.1-240.8-49c-40.2-18-71-16.4-110-1.1
			c-91.5,36-188.4,38.7-284.8,29.8c-147-13.6-294-30.7-433.4-82.5c-122.5-45.5-210.2-126.1-237-260.1c-11.2-56-11.4-112.7-8.3-169.5
			c11.9-217.9,31.5-435.1,57.9-651.6c1.2-9.7,2.9-19.2-0.9-28.4C204.2,1288.8,219.1,1234,271.5,1185.8z M2093,2242.1
			c109.3-14.7,212.1-38.6,310.9-77.2c115.8-45.2,229.4-95.5,323.1-180.2c71.2-64.3,129.9-137.6,141.4-237.1
			c15.3-132.8,29.1-266,33.3-399.7c5.4-170-3.7-340.2,3.7-510.4c3.8-86.1-22-164.9-72.9-234.5c-35.1-47.9-77.9-84.3-143.2-71.3
			c-70.5,14.1-150.1,101.6-158.4,173.5c-4,35-5.8,70.4-7.3,105.6c-2.6,59.9-4.1,119.8-6,179.7c-0.4,13.9-2.8,26-20.5,26.5
			c-15.8,0.5-19.9-9.9-21.3-22.6c-1.5-13.8-3.1-27.6-3.7-41.5c-3.6-82.3-10.3-164.4-20.6-246.2c-7.7-61.4-29.4-82.2-90-94.6
			c-60.2-12.3-121.2-11.9-182.1-13.7c-204.3-5.9-408.4-13.2-612.6,7c-230.1,22.7-372.1,140.9-431.9,365.4
			c-22.4,84.3-30.5,169.9-31.9,256.9c-2.9,176.5-17,352.7-12.4,529.4c2.7,102.5,28.9,193.9,108.4,264.4
			c146.8,130.1,322.1,194.2,513,222.4c12.2,1.8,22,1,30.2-11.4c65.2-98.2,129.7-197,154.1-314.8c24.1-116.4,12.3-226.8-70.9-318.7
			c-20.9-23.1-23.1-36.5,2.6-54.9c74.3,61.5,108,143.5,117.3,237.2c13.8,137.9-36.7,258.2-104.5,373.3
			c-18.3,31.1-38.5,61.2-59.1,93.8c40.1,10.8,72,11.5,104.9-18.4c196-177.9,230.1-482.4,76.6-701.6c-8.1-11.5-29.2-22.3-3.3-40.4
			c27-18.8,29.2,7.8,36.6,18.2c157.3,222.1,135,521.1-52.7,724.1c-6.7,7.2-18.2,11.7-17.6,26.9c26.1-1.8,51.7-5.4,77.1-4.8
			c27,0.7,42.7-11.5,56.1-33.5c40.2-65.8,77.5-132.9,105.1-205.2c55.8-146.1,79.2-297,69.4-452.9c-1.2-18.6,3.4-26.9,23.3-28.7
			c24-2.2,16.2,14.9,16.9,25.1c15.6,218.5-33.5,422.5-138.6,613.8C2123.1,2194.3,2108.6,2216.4,2093,2242.1z M274.5,1406.2
			c-2.2,2.5-3.3,3.1-3.4,3.9c-30.8,228.1-49.9,457.3-57.8,687.3c-5.2,151.1,60.9,261.4,203.6,320.9c30.6,12.7,61.7,23.9,94.1,31.4
			c114.6,26.6,230.6,46.5,347.8,55.7c93.2,7.3,186.1,2.8,275.3-30.8c17.2-6.5,26.5-11.4,9.6-29.7c-19.9-21.6-32.3-48.3-35.6-77.6
			c-2.4-20.8-12-23.8-29.8-19.3c-38.6,9.7-78.1,13.5-117.6,14.9c-125.9,4.4-250.7-3.6-368.5-52.8
			c-88.8-37.1-146.1-103.3-162.8-199.8c-8.6-49.4-14.4-99.4-18.7-149.4c-12.1-140.9-16-282.1-6.5-423.3c2.4-35.3-11.5-67-13.1-101
			c-0.4-8.8-5.2-10.5-12.7-9.3C340.9,1433.1,306.2,1424.9,274.5,1406.2z M1740.2,2289.3c-159.3-18-306.9-64.6-443.5-144.4
			c-10.3-6-17.4-3.4-25.9,3.1c-35,26.7-67.9,55.4-92.7,92.3c-54.7,81.3-38.1,168.6,42.8,218.9c18,11.2,37.8,20.2,57.9,26.9
			c53.9,18,110.4,24.1,166.1,33.7c67.9,11.8,133.9,10.7,196.2-23.8c37.8-20.9,64.4-51.7,71-93.8
			C1718.1,2364.4,1723.7,2326.9,1740.2,2289.3z M443.8,1540.9c-6.5,179.9-2.8,357,19.7,533.7c14.2,111.6,76.5,182,181.8,212.3
			c145,41.8,292.5,48.2,441,18.5c15-3,23.8-9,28.3-24.9c11.8-42,36.7-76.3,65.7-108.6c19.4-21.5,61.3-36.6,56.9-60.5
			c-4.2-22.6-42.5-38.1-63.9-58.7c-12.7-12.2-19.9-9.3-30.8,1.5c-22.2,21.8-47.1,40.2-73.3,57c-208.6,133.8-507.9,68.1-576.4-232
			c-20.8-91-16.9-182.6-7.5-274.2C490.6,1554.3,492.1,1554.5,443.8,1540.9z M2585.7,2428.7c25.1-0.5,54.8-4.3,83.7-12.2
			c74.4-20.3,148.3-42.4,205.8-98c57.4-55.4,64.6-126.1,20-187.8c-38-52.6-94.6-74.2-153.7-91.5c-9.3-2.7-16.5,1.1-23.5,6.6
			c-80.1,62-170.9,104.4-263.9,142.6c-24.4,10-40,27.3-49.4,51.4c-20.9,53.8,0.6,116.3,52.2,151.4
			C2494.4,2416.7,2536.1,2427.5,2585.7,2428.7z M643.6,1326c106.6,0.1,195.9-86,195.3-188.3c-0.7-111.1-85-197.4-193.1-197.7
			c-107.3-0.3-194.4,85.5-195.4,192.3C449.5,1238.6,536.5,1325.9,643.6,1326z M2363.4,2228c-4.2-1.1-6.3-2.5-7.9-2
			c-180.3,55.5-364.5,79.9-553,68.8c-12.7-0.7-19.5,4.1-24.9,14.9c-31.9,63-35.3,138.2,65.1,158.6c112.8,22.9,227,28.5,341,11.7
			c92.3-13.6,158.8-81.6,169.4-167.6C2356.4,2284.3,2355.8,2255.6,2363.4,2228z M809.7,786.7c31.8-20.8,65-22.4,99.6-21.7
			c35.3,0.7,66.7-12.7,90.7-40.7c11.5-13.4,10.4-21.9-6.6-27.9c-25.2-8.9-51-15.3-77.4-20c-15.8-2.8-39.2-0.6-36.6-25.6
			c2.9-27.2,27-20,43.4-18c35.5,4.4,70.7,3.1,105.6-1.7c50.6-7,97.6-23.4,135.3-61.6c-99,5.5-189-20.8-274.4-66.5
			c-7.4-4-15.7-6.4-23.8-9c-59.7-19.1-144.6,9.8-180.6,61.2c-5.5,7.9-11.7,14.9-6.4,26c10.6,22.4,16.7,46.2,19.2,70.9
			c0.9,8.5,5,13.6,13.1,16.1C768.3,685.5,797.7,727.2,809.7,786.7z M541.7,760.1c6.7-12.7,10.2-28.7,20.1-36.1
			c43.8-33.1,50.9-81,60.2-129.9c3.6-18.8,0.3-29.9-12-42.1c-53.1-52.9-129.8-64.9-204.5-27.9c-53.1,26.3-106.7,49.8-166.3,54.2
			c-31.2,2.3-62.6,0.4-102.5,0.4c25.9,26.8,48.8,37.9,72.4,47.4c61.1,24.6,124.4,28.6,189.1,20.4c14.7-1.9,28.9-1.4,31.6,17.3
			c2.7,18.6-10.1,23.9-25.3,25.6c-26.7,3-52.5,9.6-77.7,18.6c-9.5,3.4-24.5,2.2-25,15.5c-0.6,14.3,12,22,24.4,26.5
			c13.9,5.1,28.3,11,42.9,1.4C428.3,712.2,485.7,718.4,541.7,760.1z M976.8,1017c-52.5-1.4-95.8,38.5-97.4,89.7
			c-1.6,51.4,39.5,94.9,91.1,96.4c50.1,1.4,93.1-38.8,94.9-88.8C1067.3,1060.6,1028.9,1018.5,976.8,1017z M707.9,1550.1
			c52.3,0.1,94.3-41.3,93.9-92.6c-0.4-51.2-43.9-93.6-94.9-92.8c-50.6,0.9-90.7,41.6-91,92.4
			C615.5,1511.3,653.8,1550.1,707.9,1550.1z M977.5,896.7c-0.5-53.1-41.3-92.7-94.3-91.6c-51.3,1.1-89.5,40.7-89.5,93
			c-0.1,53.5,39.8,93.7,92.5,93.3C938.9,990.9,978.1,950.3,977.5,896.7z M672.3,889.8c52.4,0.6,94.5-40.5,94.7-92.4
			c0.2-51.6-42.5-94.4-93.8-94.1c-50.3,0.3-91.6,41-93.1,91.6C578.7,846.4,620.3,889.2,672.3,889.8z M540.7,858.7
			c-0.4-53.3-40.8-93-93.7-92.1c-52.5,0.8-91.3,41.9-90.4,95.6c0.9,51.4,40.8,90.6,92.3,90.6C501.7,952.7,541.1,912.3,540.7,858.7z
			 M229.9,1059.2c0.2,53.5,40.2,93.2,93.4,92.7c51.8-0.6,93.1-43.3,92-95.2c-1-50.5-42.3-90.9-93-91
			C269.2,965.5,229.7,1005.6,229.9,1059.2z M352,1202c-52.1,0.2-93.8,42.4-93,93.9c0.8,51.5,44.2,93.8,95.2,92.6
			c47.4-1.1,91.6-46.1,91.7-93.5C446,1243.3,404.2,1201.8,352,1202z M1003.9,1330.4c-0.5-52-42.9-93.2-94.7-92.1
			c-50.6,1.1-91.4,42-92,92.2c-0.6,50.9,42.3,93.8,93.7,93.8C962.9,1424.4,1004.4,1382.6,1003.9,1330.4z M573.1,1433.5
			c0.9-42-30.2-75.8-69.7-76c-35.5-0.2-71.2,37.5-72.1,75.9c-0.9,41.6,29.8,76.7,68.3,78.2C542.8,1513.1,572.1,1482.1,573.1,1433.5z
			 M626.4,1820.9c31.9-29.6,61.3-57.1,90.9-84.5c6-5.6,8.5-11.5,5.5-19.9c-10.1-27.7-19.8-55.6-33.8-95.3
			c-15.2,19.6-24.4,34.2-36.1,46.3C588.9,1733,588.7,1732.8,626.4,1820.9z M678.8,1592c-36.3-14.5-61.7-28.5-77.8-53.2
			c-10.2-15.7-16.2-21.4-34.6-6.9c-37,29.2-38.3,27.5-21.8,71.7c8.1,21.9,16.5,43.8,24.1,65.9c3.8,11.1,7.1,17.7,18.9,6.5
			C616,1649,645.2,1622.8,678.8,1592z M781.6,1891.2c-18.2,17.3-33.2,32.1-48.8,46.4c-50,45.6-49.7,45.3-24.5,107.9
			c5.8,14.3,9.9,19.6,22.9,6.4c22.5-22.8,45.9-44.6,69.1-66.6c6.7-6.3,10.8-12.8,7.2-22.4C799.2,1940.3,791.1,1917.6,781.6,1891.2z
			 M669.3,1938.8c22.8-20.9,42.9-39.6,63.5-57.9c34.3-30.5,37.6-60.6,12.4-98.8c-7.9-12.1-12-3.6-16.6,0.6
			c-25.9,23.7-51.4,47.9-77.2,71.8c-6.8,6.3-10,12.2-5.6,22.2C654.2,1895.9,660.8,1915.9,669.3,1938.8z M996.9,1981.3
			c80.5-59.8,83.1-67.2,51.7-143.9c-0.4-1-1-1.9-1.2-3c-4.3-18.8-11.8-14.9-23.4-4.8c-62.1,53.4-62.4,53.2-35,131.7
			C991.1,1967.3,993.7,1973.1,996.9,1981.3z M846,1453.1c-21.6,50.6-1,95,18.8,143.2c22.2-20.3,42.1-37.7,61-56.1
			c14.3-13.9-2.1-68.5-22.1-73.8C884.4,1461.2,864.7,1457.4,846,1453.1z M893,2083.1c18.9-17.8,32.2-33.8,48.7-45.1
			c21.1-14.5,20.9-29.8,13-51.6c-24.9-69-24.2-69.3-77.6-16.7c-8.7,8.6-20.5,14.8-13.3,31.8C874.6,2026.8,882.5,2053.3,893,2083.1z
			 M1021,1761.6c-8.2-18.5-8.2-49.2-27.3-60.9c-11.9-7.3-27.4,21.1-42,32.5c-6.7,5.2-12.2,11.9-18.7,17.2
			c-9.6,7.8-10.3,16.7-7.3,28.3c18.3,71.2,18.1,71.3,70.8,20.9c6.1-5.9,12.2-11.8,18.4-17.6
			C1019.7,1777.5,1023.5,1772.6,1021,1761.6z M801,1552.4c-17.1,30.6-65.9,22.5-70.9,50.3c-4.8,26.2,17.7,57.4,28.3,86.4
			c0.3,0.8,1.2,1.5,1.8,2.1C833.3,1641.3,837.6,1628.1,801,1552.4z M843.7,1940c71.6-50.2,76.3-61.9,51.4-125.3c-0.4-1-1-1.9-1.2-3
			c-3.3-15.6-9-15.6-21.1-5.9c-60.1,48.2-60.4,47.8-34.5,120.1C839.8,1930,841.4,1933.9,843.7,1940z M826.4,2018.5
			c-29.6,27.8-55.9,52.5-82.2,77.3c-8.1,7.6-18,16.9-0.2,23c28.2,9.8,57.4,18.6,87.5,15c17.8-2.2,31.4-12.1,22.4-35.2
			C844.3,2073.9,836.6,2048.5,826.4,2018.5z M907.2,1714.5c75.9-53.4,82.1-73.2,42.3-136.9C873.6,1636.3,871.2,1644,907.2,1714.5z
			 M972.1,1495.9c19.3-17.8,37.4-34.3,55.2-51.1c10.7-10.2,28.1-18.3,28.5-33.3c1.7-64.2,0.7-128.5,0.7-193
			c-39.7,19.6-39.7,19.6-22.6,59c26.8,61.5,6.3,134-52.6,167.3C954.8,1459.8,955.7,1472.5,972.1,1495.9z M1127.4,2005.2
			c-10.7-15.5-19.5-35.6-34.6-47.3c-8.3-6.3-19,13.1-28.3,21.1c-14.5,12.4-28.6,25.4-42.1,39c-9.4,9.5-0.5,58.2,10.6,62.8
			C1044,2085.5,1128.6,2019,1127.4,2005.2z M844.3,1674.3c-15,13.8-28.2,26.2-41.7,38.2c-24.6,22-27.2,71.3-5.2,94.9
			c7.1,7.7,10.7,1.2,15.5-2.2C874.6,1761.4,878,1748.3,844.3,1674.3z M541.9,1899c17.7-18.9,48.4-27.1,45.9-56.3
			c-1.9-22.4-15.6-43.7-23.5-65.7c-3.9-10.8-8.9-10.1-16-3.4c-15.5,14.6-30.9,27.4-23.9,54C530.4,1850,532.5,1873.5,541.9,1899z
			 M1053.3,1477.7c-13.4,12.5-19.5,18.4-25.8,24.1c-47.2,42.6-46.6,42.4-21.3,98.9c6.5,14.5,11.6,16.1,21.9,4.9
			c7.8-8.5,19.2-14.5,20-27.8C1049.9,1547.2,1051.3,1516.7,1053.3,1477.7z M607.1,1899.2c-64.5,52.6-51.9,39.3-28,86.8
			c3.7,7.3,7.1,26.8,20.3,16.6c13.8-10.6,38.5-19.2,32.8-42C626.9,1939.7,621.1,1917.4,607.1,1899.2z M908.2,2126.3
			c21.4,3.5,35-3.3,48.9-7.6c42-12.9,42.3-14.3,19.2-56.2C954.6,2082.9,933.3,2102.8,908.2,2126.3z M678.7,2084.1
			c-8.8-23.7-17-46-25.4-68.8c-37.7,26.7-37.9,26.9-4.3,52.7C657.1,2074.1,663.7,2083.3,678.7,2084.1z M521.1,1737.4
			c25.7-19.8,25.5-29.3,0-60.4C521.1,1696.8,521.1,1716.5,521.1,1737.4z"/>
		<path class="st0" d="M1845.2,1069c-109,0.4-194.4-82.9-195.4-190.7c-1-106.9,83.9-196.3,187.1-197c115-0.8,203.3,83,204,193.3
			C2041.6,982.8,1955.2,1068.6,1845.2,1069z M1700.3,821.6c5.9,14.9,14.1,34.7,28.9,33.1c14.4-1.6,28-17.8,35.7-33.5
			c1.9-3.8-33.7-43.2-36.7-41.4C1712.7,789.3,1707.7,805.8,1700.3,821.6z M1797,728.1c-12.3,7.6-28.6,7.1-33.5,22.5
			c-1.6,5,34.1,42.5,37.3,40.1c11.3-8.5,30.6-15.4,26.8-30.7C1824.4,747.1,1814.1,731.6,1797,728.1z M1982.4,943.8
			c-8.3-9.1-12-27.3-26.1-24.1c-12.1,2.8-28.1,15-27.1,27.9c1.1,12.9,13,31.7,27.1,30.5C1970.1,976.8,1976.3,957.9,1982.4,943.8z
			 M1815.4,883.5c-5.3-11.2-15.1-27.2-21.9-24.2c-14.6,6.6-29.1,19.3-36.9,33.3c-4.5,8.1,12.8,26.9,18.5,25.2
			C1792.1,912.9,1803.4,897.3,1815.4,883.5z M1826.3,979.2c13.3-11.3,30.8-20.3,36.4-37.2c2.7-8-8.2-19-18.4-23
			c-5.9-2.3-41.8,32-39.4,37.6C1808.8,966.2,1814.8,975.1,1826.3,979.2z M1920,1006.5c-10.2-11.1-14.9-24.3-28.4-27.8
			c-6-1.5-40.1,33.8-38.4,39c3.9,12,13.1,12.4,23.2,9.2C1891.6,1022.1,1908.8,1021.1,1920,1006.5z M1852.1,851.8
			c9-10.6,27.4-15.1,26.6-31.8c-0.4-8.6-10.7-23.3-20.6-20c-12.7,4.3-28.6,13.7-27.9,30.1C1830.5,838.3,1838.8,849.1,1852.1,851.8z
			 M1929.8,881.1c-6-9.4-13.2-24.2-20.9-21.6c-12.8,4.3-27.9,14.3-29.4,29.6c-0.9,8.8,10.5,23.4,19,21.3
			C1912.1,906.8,1922.8,894.6,1929.8,881.1z M1916.7,792.5c10.1-9.6,26.9-15.6,27.9-30.8c0.7-9.9-14.3-18.4-23-17.7
			c-13.5,1-26.3,11.9-26.3,26.1C1895.2,778.8,1905.2,788,1916.7,792.5z M1990.9,821.7c-7.7-5.5-4.4-24-17.5-21.2
			c-12.5,2.6-25.7,14.2-28,27.7c-1.3,7.7,7.7,22.8,19,20.6C1975.9,846.6,1986.7,837.4,1990.9,821.7z M1724.7,965.9
			c7.8-4.2,17.5-8.6,15.6-17.5c-2.1-9.6-8.2-21.1-18.8-22.6c-8.3-1.2-16.2,7-14,16.6C1709.6,951.8,1713.7,961.9,1724.7,965.9z"/>
		<path class="st0" d="M2147.3,1061.8c107.6,0.5,193.8,86.2,194.6,193.4c0.8,106.9-87.9,196.4-195.3,196.9
			c-107.8,0.5-195.6-87.6-195.5-196.2C1951.2,1146.7,2037.5,1061.3,2147.3,1061.8z M2029.7,1239.2c13-13.1,35.5-21.6,33.8-36.9
			c-1.9-16.7-18-40-34.9-39.5c-15,0.5-26.1,24.4-25.1,42.4C2004.4,1219.1,2017.2,1229.8,2029.7,1239.2z M2099.5,1108.6
			c-14.4,6.4-29,8.5-35.4,22.1c-2.2,4.6,34,42.9,37.5,40.5c11.8-8.1,30.5-15.6,27.6-30.5C2126.5,1127.3,2113.8,1114.1,2099.5,1108.6
			z M2079.3,1299.7c12.5-12.2,30.7-20.6,35.6-37.7c2-6.8-11.1-25.8-21.1-21.8c-15.5,6.3-32.8,18-35.3,36.7
			C2057.5,1283.6,2067.4,1295.3,2079.3,1299.7z M2256.2,1369.9c13.4-26.3,40.4-39.1,12.7-64.5c-17.8-16.3-23.1,2.9-29.8,9.6
			C2212.9,1340.8,2250.6,1345.4,2256.2,1369.9z M2142.8,1299.4c-13,12.2-32.6,19.3-35.4,38.3c-1.1,7.5,9.2,24.4,19.5,20.1
			c15.9-6.6,32.1-19,36.4-36.9C2165.1,1313.9,2154.5,1303,2142.8,1299.4z M2174.8,1408.3c13.7-6.1,37.1-2.6,42.7-21.7
			c2.4-8.1-12.4-29.8-25.3-26c-15.8,4.7-31.1,19.2-37.2,36.1C2151.6,1405.9,2163.3,1409.2,2174.8,1408.3z M2185.5,1200.2
			c-8.5-7.3-18.7-21.8-25.1-20.3c-13.3,3.1-27.3,14.3-30.2,28.6c-1.9,9.1,10.4,23,18.4,22.7
			C2163.5,1230.6,2171.9,1215.5,2185.5,1200.2z M2198.8,1293.1c12.4-8.4,26.8-16.5,30.7-30.3c2.6-9.2-10.8-23.9-17.9-22.8
			c-14.1,2.3-27.6,14.1-31,28.4C2178.5,1277.5,2190.7,1285.6,2198.8,1293.1z M2221.1,1123.4c-11.3,5.6-24.2,12.8-24.8,25.7
			c-0.4,9.2,10.3,23.1,19.6,21.5c14.1-2.4,28.4-14,29.8-28.8C2246.6,1132.7,2232.1,1127.2,2221.1,1123.4z M2275.6,1176.9
			c-7.4,15.2-38.1,14.5-25,41.5c4.4,9,10.9,17.3,24.6,7.1C2296.5,1209.6,2292.6,1195,2275.6,1176.9z M2042.3,1329.4
			c-3.4-9.9-9.3-20-18.9-22.8c-8.7-2.5-16.6,6-15.2,15.2c1.5,10.1,5.9,22.5,17.1,24.2C2032.6,1347.2,2039,1338.3,2042.3,1329.4z"/>
		<path class="st0" d="M1418,1292.2c0.9-108.7,87.9-192.9,198.4-191.9c106.6,0.9,193.4,89.1,192.5,195.6
			c-1,107.7-90.8,196.3-197.7,194.8C1502.7,1489.2,1417.1,1401.2,1418,1292.2z M1535.9,1242c-15.3-15.9-22.5-40.7-40.4-40.9
			c-14.5-0.2-24.4,23.3-24.9,39.6c-0.5,15.3,12.2,34.9,26.3,32.9C1510.6,1271.7,1522.1,1253.9,1535.9,1242z M1568.3,1147.1
			c-16.1,5-29.3,9.8-38.2,21c-2.3,2.9,33.4,43.1,37.1,41.5c13.5-6.1,30.3-15.8,29.1-29.3C1595.1,1166.5,1580.4,1154.6,1568.3,1147.1
			z M1725.2,1334.3c-9.9,12.8-30,18-28.1,33.3c1.4,11.4,16.1,29.4,25.4,29.7c14.1,0.5,23.2-18,25.5-31.9
			C1750.2,1352.1,1735.7,1345.2,1725.2,1334.3z M1584.3,1301.9c-7.3-9.4-12.9-26.2-23.2-23.3c-15.7,4.3-30.3,18-36,33.3
			c-3.4,9.3,11.4,26.5,18.8,24.5C1560.8,1331.6,1571.9,1315.4,1584.3,1301.9z M1632.4,1361.2c-5.8-9.5-12.3-24.3-20.9-21.3
			c-16.5,5.6-32.7,17.8-37.4,35.6c-1.9,7.1,8.6,24.1,18.8,21C1610,1391.3,1621.5,1375.7,1632.4,1361.2z M1687.7,1425.1
			c-10.3-10.1-14-23.9-27.5-27.6c-5.7-1.6-40.4,33.4-39.1,38.8c2.5,10.4,10.8,12.7,19.6,10.4
			C1657,1442.3,1675.1,1440.9,1687.7,1425.1z M1619.9,1272.2c8.3-11.8,26.6-16.4,26.8-32.2c0.1-7.7-14.5-23.1-18.9-21.9
			c-13.7,3.8-27.7,14.6-30.6,28.4C1595.2,1255.9,1606.8,1266,1619.9,1272.2z M1697.9,1302.2c-3.7-11.2-12.3-24.9-19.4-23.7
			c-14.1,2.3-27.6,14.1-30.9,28.4c-2.1,8.9,10.6,23.7,17.8,22.6C1679.5,1327.4,1688.5,1313.2,1697.9,1302.2z M1682.9,1211.1
			c12.7-6.7,26.5-15.2,29.3-27.7c2.9-12.9-13.1-20.2-23.5-20c-12.8,0.3-24.5,11.8-25.6,24.2
			C1662.3,1196.8,1673,1205.4,1682.9,1211.1z M1742.4,1215.3c-7.1,15.5-38.4,14.5-24.8,41.7c4.6,9.2,11.1,17,24.7,6.9
			C1763.6,1248,1759.4,1233.4,1742.4,1215.3z M1491.3,1385.5c8.4-2.8,16.2-8.2,16.8-16.4c0.8-11.3-8.5-20.2-17.3-23.8
			c-8.8-3.6-16.7,5.7-16,14.4C1475.7,1369.9,1481.2,1379.6,1491.3,1385.5z"/>
	</g>
</g>
</svg>
