<?xml version="1.0" encoding="utf-8"?>
<!-- Generator: Adobe Illustrator 23.0.0, SVG Export Plug-In . SVG Version: 6.00 Build 0)  -->
<svg version="1.0" xmlns="http://www.w3.org/2000/svg" xmlns:xlink="http://www.w3.org/1999/xlink" x="0px" y="0px"
	 viewBox="0 0 3000 3000" style="enable-background:new 0 0 3000 3000;" xml:space="preserve">
<style type="text/css">
	.st0{stroke:#000000;stroke-width:10;stroke-miterlimit:10;}
</style>
<g id="Layer_1">
</g>
<g id="Layer_2">
	<g>
		<path class="st0" d="M1605.6,456.9c3-16.5,5.7-33.1,9-49.6c17-85.6,69.9-135.6,153.7-155.3c59.8-14,120.5-15.5,181.2-12
			c144,8.4,288.5,15.4,429.5,49c291.4,69.4,467,257.6,549.1,540.2c17.4,59.7,24.2,120.8,24.7,182.8c2.4,280.8,2.1,561.6-12.7,842.2
			c-5,95.4-14.8,190.6-24.7,285.6c-14.1,134.3-87.7,232.2-195.3,307.3c-127.9,89.3-273.5,136-423.3,171.4
			c-141.7,33.5-285.8,54.3-431,58.3c-137.2,3.7-274.7-4.3-412.1-6.9c-287.7-5.3-575.9-2.9-863-18.4c-167.6-9.1-328-62.5-465.2-167.7
			c-19-14.6-35-32.5-49.7-51.5c-27.8-35.8-40.9-75.8-41.2-121.7c-1.6-285.8,3.1-571.6,13.9-857.2c5.9-156.1,2.3-312.8,22.5-468.2
			c46.1-353.2,240.2-585.2,576.3-698.5c222.5-75,450.1-99,682.9-59.1c56.9,9.7,113,22.6,168.6,38.4c14.5,4.2,23.8,12.2,31.8,24.4
			C1564.1,341.9,1590.4,396.1,1605.6,456.9z M1255.7,2615.7c0,2.9,0,5.8,0,8.7c145.4,0,290.9-3.4,436.1,0.8
			c208.2,6.1,413.4-11.3,615.7-60.7c141.9-34.7,279.1-80.8,398.2-168.8c80.2-59.2,141.3-133.2,156-234.9
			c11.5-79.7,19.4-160.2,24-240.6c17.6-311.3,24.2-622.9,15.2-934.7c-1.1-38.9-4-77.3-13.8-115.2
			C2815.7,593,2652.6,405.3,2367,337.5c-116.7-27.7-236-35.3-355.1-43.8c-65.6-4.7-131.2-10.3-196.7,0.2
			c-63.2,10.1-122.7,28.3-144.4,97.6c-21.7,69.6-24.3,140.3-3.6,211.6c6.4,22,15.8,31.9,38.8,36.1c97.3,17.5,187.1,54.1,267.5,112.3
			c84.4,61.1,151,136.3,178,239.6c39.9,153.2-50,341.6-198.8,420.7c-93.1,49.5-192.4,74.5-297.6,77.2
			c-151.5,3.9-302.6-5.2-453.3-18.8c-75.1-6.8-146.5-24.8-203.2-81.8c-132.4-133.2-202.5-387.5,10-580.8
			c126.7-115.2,280.2-158.1,447.9-159.3c55.2-0.4,62-3.9,83.4-54.8c8.5-20.3,14-41.3,15.5-63.5c5-70.6-18.9-132.7-53.7-192.2
			c-9.8-16.9-22.6-26-41.1-30.8c-113.2-29.4-227.9-47.6-345-48.3c-171.1-1.1-337,30.7-496.3,91c-232.4,88-393.2,248-467,488.4
			c-35.9,117.1-41.6,238.5-45.5,360.2C95.1,1569.3,82.1,1940.5,84,2312.1c0.1,12,1.3,23.6,4.3,35.3c14.2,56.5,54.4,93,100.2,121.3
			c130.9,80.9,275,128.1,428.1,134.7C829.4,2612.5,1042.6,2612.1,1255.7,2615.7z M1604.4,559.3c-8.9,34.2-22,65.2-40.4,93.9
			c-20.9,32.5-45.9,49.7-89.7,47.2c-143.3-8.3-276.4,26.2-393.7,111.8c-135,98.5-187,234.8-140,383.4
			c36,113.9,100.3,204.5,231.7,220.1c161.2,19.2,323.1,27.6,485.5,23.1c94.8-2.6,185.4-24.1,268.7-70.1
			c105.8-58.4,165.8-150.5,182.5-268.5c15.6-109.8-37.1-194.6-113.6-266.2c-91.5-85.6-202.4-132.2-325.1-151.1
			c-23.4-3.6-34.8-13.2-41.5-34.7C1619.8,618.8,1610.9,589.4,1604.4,559.3z"/>
		<path class="st0" d="M1285,2364.1c-172.8-2-390.6-9.7-607.2-38.4c-70.4-9.3-138.9-26.2-203.8-55.3
			c-161.3-72.4-239.3-206.8-270-373c-35.7-193.3-26.3-389-23.1-583.9c1.9-113.6,18.2-226,48.9-335.9
			c94.9-340.3,325.6-534.1,662.3-612c142.8-33,287.5-40.7,433.1-19.4c33.4,4.9,66.2,12.9,95.8,30.1c55.8,32.4,87.4,80.8,91.1,145.1
			c3.8,65-42.4,112.8-107.6,112.7c-53.6-0.1-105.6-18.2-160.1-12.5c-85.7,9-169,24.7-245.9,66.1
			c-102.2,55.2-159.5,140.6-173.9,255.5c-15,119.5-14.8,238.6,17.8,355.3c45.2,161.6,149.4,245.8,316.4,262.5
			c132.1,13.2,264.8,2.5,397,11.3c93.5,6.2,186.9,7.9,280.1-5.6c210.9-30.6,385.9-195.3,425.6-401.6
			c40.6-211.4-98.4-433.4-306.3-489.3c-54.6-14.7-111.3-22.3-162.8-47.8c-47.2-23.4-83.8-57.1-102.6-107.3
			c-24.3-64.9-1-126.6,59.2-160.6c32.9-18.6,68.9-27.2,105.7-29c207.3-10,402.4,29.4,574.7,151.4c140.2,99.2,215.2,240.3,247,405.3
			c54.2,281.6,77.9,565.8,60.1,852.6c-5,80.7-21.5,159.4-51.2,235.2c-53.7,136.9-151.4,225.9-289.7,272.7
			c-103.4,35-211,49.1-318.2,64.5C1829.8,2348.5,1580.6,2365.4,1285,2364.1z M876.8,2295.5c22.6,2.8,37.1,4.7,49.8-13.5
			c99.7-143.6,200.6-286.5,301.5-429.3c7.5-10.6,10.1-20.5,7.8-33.2c-10.4-57.6-19.5-115.5-30.8-172.9c-2.1-10.8,3.4-29.3-15.4-31
			c-17-1.5-33.9-5.5-49.8,10.2c-48.9,48.1-98.6,95.5-150.3,140.5c-29.9,26-47,55.4-55,94.5c-28.1,138-59,275.4-89.5,413
			c-3.5,15.8,0.2,22.7,16.6,21.9C868.6,2295.2,875.5,2295.5,876.8,2295.5z M1924.7,1753.5c-2.5,4.5-4.1,6.1-4.1,7.7
			c-0.7,111.5-1.1,223.1-2,334.6c-0.1,11,4.3,18.7,11.1,26.4c38.7,44.1,77.4,88.3,115.4,133.1c6.6,7.8,12.3,11,22.4,9.3
			c71.5-12.4,143-24.4,214.6-36.4c16-2.7,20.2-8.4,13.8-25.7c-28.9-78.3-57.6-156.7-82.8-236.1c-12.2-38.4-30.3-66.8-68.4-83.3
			c-25.3-11-47.9-28.1-71.8-42.3C2023.6,1811.7,1974.2,1782.7,1924.7,1753.5z M2140.5,1599.9c0,7.1-0.8,10.2,0.1,12.6
			c29.7,84.2,59.8,168.3,88.9,252.7c4.5,13.1,14.3,18.6,24.3,24.5c99.1,58.9,198.5,117.3,297.2,176.8c16,9.6,23.8,5.8,33.6-8
			c23.4-32.6,40.3-68.4,56.4-104.9c7-15.8,4.4-27.3-5.5-40.6c-47.4-63.9-94.2-128.2-140.4-192.9c-9.8-13.7-21.4-22.3-37.5-27
			c-78.1-22.8-156-46.2-234-69.3C2196.5,1615.8,2169.3,1608.2,2140.5,1599.9z M1399.6,2313.3c16.6,0.6,30.4,3.9,37.5-18.6
			c48.8-155.1,99.2-309.7,149.7-464.2c4.7-14.2,2.4-23.9-7.4-34.9c-41.6-46.8-82.7-94-123.4-141.6c-10.3-12-16.4-16.9-27.9,0.1
			c-41.8,61.6-85.1,122.2-128.3,182.9c-6.2,8.7-8.5,16.6-6.6,27.5c25,140.6,50.1,281.3,73.3,422.2
			C1370.4,2309.9,1378.4,2318.4,1399.6,2313.3z M950.1,1558.4c1.2-17.4-36.3-52.3-49.2-44.4c-39.8,24.5-85.5,38.2-114,82
			c-120.1,184.8-243.1,367.6-364.7,551.4c-6.5,9.8-24.1,20.6-3.6,33.7c16.2,10.3,28.2,28.6,52.4,5.5
			c137.9-132,277.6-262.1,416.7-392.7c5.8-5.4,12.8-9.8,14.6-18.2C918.4,1703.1,934.3,1630.4,950.1,1558.4z M1631.1,1855.8
			c-48.6,150.4-95.1,294.6-142,438.6c-7.6,23.4,8,18.9,20.1,18.2c96.3-5.6,192.6-11.3,288.9-17.4c70.1-4.5,68.7-4.9,71.2-74.6
			c2-54.5-0.9-102.3-44.7-146C1757.1,2007.4,1697.8,1932.2,1631.1,1855.8z M235.9,1759.8c1,7.9,2,14.8,2.7,21.8
			c3.7,40.4,3.8,40.5,39.9,20.3c140.5-78.1,279.6-159.1,422.3-233.1c58.9-30.6,99-73.5,130.9-128.5c6.2-10.7,7.3-19,1.4-30.2
			c-27.4-51.8-11.1-45.1-66.8-31.3c-8.7,2.1-17.2,5-25.7,7.6c-32.1,9.7-67.8,10.9-95.1,32.2c-132.2,103.6-263.6,208.3-395.5,312.4
			C240,1738.8,232,1746.8,235.9,1759.8z M369,2136.4c113.1-170.5,225.4-339.7,337.6-508.9c-150.3,77.3-296,158.2-441.7,239
			c-8.2,4.6-15.4,8.8-12.8,20.3C272.4,1977.8,300.2,2065.1,369,2136.4z M228.2,1442c-5.9,27.5,3.2,32,29.5,24.4
			c115.2-33.1,231-64.5,346.8-95.4c19.7-5.3,37.2-12.7,52.9-25.5c29.4-23.7,57.9-48.7,89.1-69.9c26.5-18,36.5-38.1,27-69.6
			c-6.5-21.5,5-52.5-10.8-65.3c-17.2-13.9-45.8,0.6-69.1,3.3c-29.8,3.5-60.6,1.3-88.6,20.1c-117,78.7-234.9,155.9-353.2,232.7
			C233.9,1408.4,222.8,1420.2,228.2,1442z M771,964.4c-1.7-8.2,8.4-22.8-7-24.2c-44.4-4-88.9-18.6-133.1-10.2
			c-111.1,21.1-221.4,46.2-332.2,68.9c-17.8,3.7-28,10.4-30.8,29.7c-4.5,30.4-10.4,60.7-18,90.5c-5.2,20.4,0.7,23.4,19.8,21.1
			c69-8.4,138.1-15.7,207.3-22.6c128.6-12.8,128.6-12.6,235.5-83.3c9.9-6.6,19.5-13.8,30-19.4C763,1004,775.1,989.1,771,964.4z
			 M972,2303.4c120.7,5.8,233.7,13.2,348.6,9.3c-23.2-133.6-46-265.3-70.2-405.1C1155.8,2042.1,1065.9,2169.9,972,2303.4z
			 M2343.6,1423.7c0-0.2-0.2,3.1,1.3,5.2c53.2,73.1,106.6,146.1,159.6,219.3c5.7,7.9,13.2,11.3,22,13.8
			c47.5,13.9,95.2,27.3,142.3,42.7c18.4,6.1,20.8,0.7,21.8-16.2c4.6-76.6,0.8-153.1,0.1-229.7c-0.2-23.1-8.7-28.3-29.4-28.7
			c-57.6-1.2-115.2-4.9-172.9-6.3C2440.3,1422.8,2392,1423.7,2343.6,1423.7z M501.4,2225.8c4.9,3,7.1,4.8,9.7,5.9
			c84.5,35.2,174.2,45.8,263.9,56.7c15.5,1.9,17.7-6.8,20.2-18.7c17.5-82.4,35.6-164.6,53.5-246.9c10.5-48.1,20.9-96.2,31.3-144.4
			c-1.8-1-3.6-2-5.4-3C750.6,1991.9,626.4,2108.4,501.4,2225.8z M630.7,875c49.6-3.4,103.3-18.1,157.1-30.9c22.6-5.4,26-32.4,8-47.8
			c-27.9-23.9-56.8-46.7-84.4-70.9c-14.3-12.5-29.8-17.7-48.6-18.5c-72.4-3.1-144.9-6.7-217.2-11.3c-16.1-1-25.7,4.1-34.8,16.5
			c-25.2,34.6-46.9,71.2-67.9,108.5c-11.3,20.2-4.3,24.9,14.9,26.8C446.7,856,535.5,865.3,630.7,875z M1863.6,2045.7
			c2.4-1,4.9-2,7.3-3c0-97.3-0.7-194.6,0.5-291.9c0.3-21.5-6.2-33.4-24.7-44.8c-40.8-25.1-86.3-43-121.8-77.2
			c-8.1-7.8-20.5-3.4-24.7,10.9c-6.1,20.9-13.3,41.5-19.9,62.2c-10,31.1-29.9,63.2-27.2,93.2c2.9,32,38.7,52.9,60.3,78.4
			C1762.6,1931.6,1813.5,1988.4,1863.6,2045.7z M795.7,663.7c34.4,2.4,58.2,3.1,81.9,5.9c15.5,1.8,21.1-5.1,24.3-18.6
			c6.9-28.8,14.1-57.6,22.3-86.1c4.2-14.5,2-23.6-11.9-31.9c-39.9-24-79.4-48.8-118.1-74.7c-11.8-7.9-21.5-6.9-33.1-2.2
			c-40.5,16.3-80.2,34.4-118.3,55.7c-65.3,36.5-65.3,36.4-7.5,84.7c0.8,0.6,1.5,1.3,2.2,2C683.4,647.2,736,678.5,795.7,663.7z
			 M2333.5,1108.3c23.7,13,52.6,27.9,80.6,44.4c16.5,9.7,32.2,11.4,50.6,6.7c58.6-15,117.3-29,176.2-42.6
			c15.2-3.5,21.7-9.9,19.1-26.2c-6.2-38.2-12.2-76.5-16.6-114.9c-1.8-15.8-9-18.9-23.2-19.1c-38.7-0.5-77.5-2-116.2-4.1
			c-13.8-0.8-25.1,1.6-34.8,12C2424.3,1012.3,2379.2,1059.9,2333.5,1108.3z M2307.5,896.2c24.3,1.1,45.7-0.9,65.8,3.5
			c64.4,14.1,108.9-11.3,152.4-58.4c73.7-79.9,76.2-77.1,16.4-169.1c-9.3-14.3-17-18.2-33.2-10.8c-40.6,18.4-82,35.1-123.2,52.1
			c-10.8,4.5-17.7,11.1-21.6,22.5C2346,788.4,2327.2,840.5,2307.5,896.2z M2489.3,1372c111.8,0.7,154.5,4.5,167.2,8.9
			c2.5,0.8,16,5.3,23.7-0.1c2-1.4,3.6-3.6,4.7-7c5.3-16.8-7.4-24-20.6-30.9c-49.2-25.8-100.4-48.7-146.1-79.6
			c-59.2-40.1-117.2-46.1-184.1-22.7c-29.3,10.2-50,19.1-60.3,50.8c-11.3,34.8,11.6,75.8,49.3,76.5c17.2,0.3,29.5,2.7,44.1,0.5
			C2394.8,1364.1,2435.6,1361.8,2489.3,1372z M2174.7,533.9c11.1,64.9,21.2,126.6,32.3,188c2.7,14.8,13.1,7.4,20.9,4.1
			c29.2-12.4,58.1-25.7,87.7-37c11.9-4.5,16.9-12.4,20.7-23c15.5-43.9,31-87.7,47.2-131.4c4.8-12.8,4.4-21.5-8.7-29.6
			c-40.6-25.2-82.6-47.5-127.1-65.1c-6.3-2.5-14.8-8.1-19.2-1.4C2207.9,469.7,2187.4,501.1,2174.7,533.9z M1088.6,387.9
			c-68.7,4.2-69.4,4.1-77.8,41.3c-6.9,30.7-30.4,65.5-18.4,90.3c11.9,24.5,49.3,36.9,76.1,53.7c12.3,7.7,24,21.9,39.2,19
			c45-8.6,96.2-5.1,119.2-60.3c6.5-15.5,10.6-24.4-2.8-37.8c-23.8-23.8-47.1-48.6-67.7-75.2C1137.3,393.8,1117,377.2,1088.6,387.9z
			 M2166.8,1838.2c-26.9-76.4-52.6-144.8-74.7-214.3c-10.3-32.3-25.5-51.2-60.7-58.6c-21.2-4.4-33.9,5.5-49.2,11.8
			c-64.2,26.8-63.6,27.2-61.8,96.9c0.4,13.7,4.8,21.7,16.4,28.5C2011.3,1746,2085.4,1790.1,2166.8,1838.2z M2431.4,1633.6
			c-53.2-73.3-100.7-139.3-148.8-204.7c-15.1-20.5-77-22.7-93.8-3.7c-21.7,24.7-45.2,47.4-70.4,68.4c-18.4,15.4-15.4,41.2,6.9,48.1
			C2224.4,1572.3,2323.9,1601.5,2431.4,1633.6z M2048.2,647c23.8-41.2,45.6-79,67.4-116.6c4.1-7.1,5.4-14.1,4.3-22.6
			c-15.1-117.6-15-117.6-134.5-125.8c-3-0.2-6-0.2-8.9-0.8c-14.3-2.7-21.1,1-22.8,17.6c-3.3,31.5-9.6,62.7-15.3,93.9
			c-1.8,10.1,2.7,17.2,8.2,24.3C1979.6,559.2,2012.6,601.4,2048.2,647z M2533,2113.3c-89.7-53-177.3-104.9-272.5-161.1
			c30.8,87.2,59,166.4,86.8,245.7c3.7,10.6,10.8,10.2,18.9,7.6C2427.2,2186.2,2484.2,2159.5,2533,2113.3z M521.9,1452.3
			c-0.9-1.9-1.7-3.8-2.6-5.7c-91.5,24.9-183.1,49.6-274.4,74.9c-6.6,1.8-16.6,2.2-16.5,13.7c0.1,46.8,0.1,93.5,0.1,140.3
			c3.1,0.5,6.3,0.9,9.4,1.4C332.5,1602,427.2,1527.2,521.9,1452.3z M230.4,1351.2c94.4-62.1,183.9-120.9,273.3-179.7
			c-2-3.4-2.5-4.7-2.8-4.7c-82.8,8.1-165.6,16.3-248.4,24.4c-7.8,0.8-12.5,4.1-13.6,12.7C232.6,1250.9,231.7,1298.1,230.4,1351.2z
			 M1883.1,532.5c3-12.4-3.7-20.8-10.7-29.7c-20.3-25.6-40-51.7-60.3-77.3c-25.4-32.2-41.9-31.7-66.9,1.9
			c-13,17.5-18.6,37-13.5,58.8c11.3,48.4,43.5,78.8,86.7,99c50.3,23.6,50.4,23.2,59.7-29.6C1879.5,547.9,1881.4,540.2,1883.1,532.5z
			 M1394.1,585.8c50.2,0.2,76.4-31.7,67.2-76.3c-5.7-27.9-18.7-52.2-39.3-71.8c-36.9-35.2-50.2-33.6-78.1,8c-1.7,2.5-3.2,5-4.9,7.5
			c-35.8,53.4-35.5,53.2,6.2,102.6C1359.6,572.8,1373.3,589.2,1394.1,585.8z M2678,1293.4c2.5-42-5.6-79.1-7.7-116.5
			c-0.5-8.5-2.8-15.3-14.7-12.3c-47.3,11.7-94.8,22.7-150.7,36C2567.2,1233.9,2621.5,1263.1,2678,1293.4z M1278.9,1779.7
			c37.4-53.2,70.1-100,103.1-146.7c7.3-10.3,3.7-14.2-7.4-14.2c-36.7,0-73.4,0.1-110.1,0.2c-8.9,0-11.9,3.6-10.3,12.9
			C1262.4,1678.6,1269.9,1725.3,1278.9,1779.7z M1610.4,1755.5c13.1-40.4,24.6-75.2,35.6-110.2c2.4-7.5,10.2-18.6-6.9-18.7
			c-46.2-0.3-92.4-0.1-140.9-0.1C1534.2,1667.9,1570.4,1709.4,1610.4,1755.5z M1090.1,1603.7c-28.5-9.9-53.7-17.9-78.2-27.7
			c-10.9-4.3-14.3-0.5-16.3,8.6c-9.2,42.2-18.3,84.5-29.5,136C1011.2,1678,1049.7,1641.8,1090.1,1603.7z M2664.8,1868.7
			c12.1-34.4,14-65,18.4-95.1c0.9-5.9,0.1-12.2-7.2-14.4c-36.1-10.7-72.1-21.3-116-34.3C2597.4,1776.1,2629.4,1820,2664.8,1868.7z
			 M472.2,646.4c49.6,6.6,97.5,5.4,153.2,7.8c-14.9-12.3-22.5-18.5-30-24.9c-64.2-53.9-64.2-53.9-120.5,9.8
			C474.3,639.8,474.2,640.9,472.2,646.4z M2315.8,1036.3c28.6-29.1,56.6-57.5,83.3-84.7c-26.1-1.3-55.8-2.6-85.4-4.3
			c-12-0.7-18.7,0.2-14.2,16C2306.6,987.7,2310.8,1013,2315.8,1036.3z M941.8,492.6c7.2-26.7,13.8-50.2,20-73.9
			c2.8-10.8,1.2-17.1-13-14.1c-33.4,7-67.1,12.4-105.2,25.8C879,452.7,909.4,472,941.8,492.6z M463.2,913.6
			c-0.2-1.8-0.4-3.7-0.5-5.5c-40.2-4.1-80.7-5.9-120.3-13c-25-4.5-37.8,1.4-42,25.7c-1.4,8.3-9.2,15.5-3.7,27.5
			C351.9,936.8,407.5,925.2,463.2,913.6z M1193.4,384.7c25,28.3,44.9,50.2,64.1,72.6c8.5,9.9,13.9,7.6,20.1-2.2
			c12.1-19.1,24.7-37.8,38.2-58.5c-10.3-2.4-17.8-5.1-25.4-5.7C1260.8,388.6,1231.1,387,1193.4,384.7z M2393.6,655.6
			c19.1-7.7,31-12.5,42.8-17.3c67.5-27.6,68.1-32.9,10.2-78.8c-9.3-7.4-15.5-12.4-20.7,3.7C2416.5,592,2406,620.4,2393.6,655.6z
			 M2306.2,749.6c-96.6,32-96.6,32-47,111.5c0.8,1.3,2.8,1.8,5.8,3.6C2278.3,827.6,2291.5,790.8,2306.2,749.6z M2540,903.5
			c24,1.2,47.7,2.3,71.5,3.6c11.6,0.7,19.8-0.1,15-16c-6-19.6-10.3-39.7-16.3-63.8C2585.4,854.2,2563.6,878,2540,903.5z
			 M2134.5,598.7c-15.6,26.9-26.8,46.4-38.3,65.9c-4.4,7.6-6.5,13.8,2.7,20.1c18.4,12.5,36.2,25.9,58,41.7
			C2149.3,683.1,2142.6,644.8,2134.5,598.7z M1918.8,2186c0,33.1-0.2,56.9,0.2,80.7c0.1,6.1-2.2,17,8.6,14.8
			c20.5-4.1,42.9,0.4,64.4-11.9C1968.4,2242.7,1946.4,2217.6,1918.8,2186z M953.5,654.6c31-15.3,55.9-27.6,83.6-41.4
			c-18.8-12.2-34.6-22.1-50.1-32.5c-8.3-5.6-14.5-6.4-17.2,5.1C964.8,606.7,959.9,627.6,953.5,654.6z M782.7,714
			c43.2,57.5,55.4,58.2,86.3,5.3C840.2,717.6,812.2,715.8,782.7,714z M1895.7,450.8c1.7-29.2,16.4-53.2,3.1-69.1
			c-8.9-10.7-34-3-54.5,3.3C1861.3,406.8,1875.6,425.2,1895.7,450.8z M1867.7,1660.9c7.9-54.2,4.3-56.3-59.5-35.2
			C1828.7,1637.8,1847.7,1649.1,1867.7,1660.9z M2362.4,1182.7c-17.7-10-30.4-24.4-47.1-21c-5.3,1.1-8.2,20.2-6.3,34.7
			C2326.7,1191.9,2342.6,1187.8,2362.4,1182.7z M1927.9,574.3c-8.9,45.9-5.1,50.4,34,44.3C1951.3,604.8,1941.4,591.8,1927.9,574.3z"
			/>
		<path class="st0" d="M1444,998.7c69.8,0.1,125.4,55,126.3,124.5c0.9,70-56.1,126.9-127.1,126.8c-69.6-0.1-125.6-55.3-126.4-124.6
			C1316,1055.3,1373,998.6,1444,998.7z M1519.5,1125.5c0.5-42.1-32.4-76.7-74-77.9c-43.3-1.2-78,32.9-77.9,76.7
			c0,42.1,33.6,76.1,75.4,76.4C1484.8,1201.1,1518.9,1167.5,1519.5,1125.5z"/>
		<path class="st0" d="M1853.9,955.7c-0.1,60.3-48,107.9-107.7,107.1c-58.8-0.8-108.3-50.8-108.1-109.1
			c0.2-58.4,50.1-108.3,108.8-108.6C1808.4,844.6,1854,891.8,1853.9,955.7z M1805.2,955.1c0.5-34-23.7-59-57.3-59.3
			c-32.2-0.3-56.9,23.4-57.9,55.5c-1.1,34.2,22.5,59.9,55.6,60.7C1779.4,1012.8,1804.7,988.7,1805.2,955.1z"/>
		<path class="st0" d="M1159,1153.4c60.3,0,107.9,48,107.1,108c-0.8,58.3-51,107.9-109.2,107.8c-59-0.1-108.2-49.2-108.5-108.4
			C1048.2,1199.9,1095.9,1153.4,1159,1153.4z M1158.4,1317.6c33.7-0.5,57.9-25.8,56.8-59.4c-1-32.1-25.7-56.1-57.8-56.1
			c-32.7-0.1-58.7,26-58.4,58.7C1099.3,1294.3,1124.2,1318.2,1158.4,1317.6z"/>
	</g>
</g>
</svg>
