<?xml version="1.0" encoding="utf-8"?>
<!-- Generator: Adobe Illustrator 23.0.0, SVG Export Plug-In . SVG Version: 6.00 Build 0)  -->
<svg version="1.0" xmlns="http://www.w3.org/2000/svg" xmlns:xlink="http://www.w3.org/1999/xlink" x="0px" y="0px"
	 viewBox="0 0 3000 3000" style="enable-background:new 0 0 3000 3000;" xml:space="preserve">
<style type="text/css">
	.st0{stroke:#000000;stroke-width:10;stroke-miterlimit:10;}
</style>
<g id="Layer_1">
</g>
<g id="Layer_2">
	<g>
		<path class="st0" d="M903.7,2587c-1.6,19.3-2.1,37.6-4.7,55.5c-11.8,80.5-65.8,122.8-137,148.8c-72.6,26.5-148.2,32.8-224.6,33.7
			c-81.5,1-163.4,4.4-243.8-12.6c-135.3-28.6-217.2-108.3-235-244.7c-27.9-213.6-7.1-422.9,79.3-622.8c8.1-18.6,25.7-36.5,25.4-54.5
			c-0.3-18.7-27.2-26.6-40.6-41.4c-41.6-46-60.9-101.1-65.4-161.3c-6.8-91.3-1-182,23.4-270.7c12.4-45,32.6-86.5,66.1-120.1
			c6.6-6.6,8-13.3,7.3-21.9c-4.9-63-9.5-125.9-14.4-188.9c-8.7-111.7-18.2-223.4-26.3-335.1c-6-82.6-15-165-17.5-247.9
			c-1-34.9,1-69.5,9.9-103.1c19.8-74.5,69.9-118.4,144.1-133.1c58.9-11.7,118.7-12.9,178.5-5.2c30.3,3.9,58.4,12.3,81.5,33.4
			c4.6,4.2,8,8.3,14.6,1.1c48.7-53.4,112.3-74.5,181.7-80.9c66.4-6,132.9-9.5,198.8,5.7c61.7,14.2,103.3,64.4,105.7,127.9
			c5.1,135.2-2.3,270.4-0.2,405.7c0.1,8.1,0,16.3,0,25.9c9-2,12.1-9.1,16.5-14.3c233-271.8,524.2-444.4,876.3-510.9
			c189.4-35.8,378-24,562.8,28.7c218.1,62.2,354.8,208.7,429.8,420.8c50.4,142.6,54.7,288.1,50.6,436.1
			c-4.4,160.3-10.4,320.6-19.7,480.6c-8.7,150.3-16.2,301-53.6,448.3c-69.6,274.3-239.5,463.7-489.8,586.1
			c-152.6,74.6-315.5,111.6-483.8,127c-157.9,14.5-314.9,0.8-471.9-15c-92.6-9.3-185.2-19.1-275.5-42.7c-92.1-24-177-61.6-242-134.7
			C909.1,2589.3,907,2588.8,903.7,2587z M999.3,1168.2c-8.4,58.5-20.4,113.5-44.3,165.1c-3.6,7.8-1.7,14.2,2.2,21.1
			c18.5,33.5,31.8,69.1,39.4,106.5c2.5,12.4,7.9,14.6,19.3,13.7c34.1-2.6,58.9,13.2,75.6,41.9c43.8,75.1-3.5,159.7-90.4,160.5
			c-15.9,0.1-21.9,6-27.4,19.5c-23.4,57.6-58.1,107.9-106.2,147.3c-16.5,13.5-20.6,26.1-15.2,44.7c6.6,22.6,2.4,48.3,16.2,68.5
			c91.5,134.2,221.2,206.5,380.1,225.2c159.9,18.9,306.8-23.7,442.5-107.8c51.4-31.8,101.5-65.7,153.6-96.3
			c72.1-42.3,148.7-69.4,234.5-60.4c87.8,9.2,162.6,68.4,181.6,147.1c17,70.6-4.9,132.8-45.3,189.9c-25.8,36.4-60.5,63.8-98.6,91
			c69.1,25.8,109.4,74.3,121.1,145c11.6,69.5-10.3,130.4-57.3,188.9c13-3.4,19.5-4.8,25.8-6.8c70.9-22.1,139.1-50.6,204-86.7
			c191.8-106.6,330.5-258.2,397.5-470.2c37.7-119.3,54-242.4,61.8-366.6c14.4-231.3,24.1-462.8,28.6-694.5c2-103-7.3-204.2-40-303.3
			C2818,629,2761,518.7,2658.2,436.6c-54.7-43.8-115.5-75.5-183.4-97.3c0,5.1-0.2,8.3,0,11.6c8.2,104,5.3,207.8-8.2,311.2
			c-17.2,131.9-47.7,260.4-99.4,383.2c-39.4,93.7-108,157.9-202,195.9c-91.4,37-187.1,56-284.2,68.6c-21.3,2.8-26.4,8.5-23.7,29.8
			c3.8,29.5,7.2,59.3,5.7,89.4c-3.7,72.1-41.2,119.8-106.4,133.5c-39.4,8.3-79.4,11-119.6,8.6c-73.7-4.4-114.4-41.6-126.3-113.8
			c-6.6-40.3,1.6-79.9,4.3-119.8c1-15-0.1-22.7-18.7-24.8c-92.6-10.2-183.6-29.4-272.8-56.5C1147.5,1233,1073.7,1203.8,999.3,1168.2
			z M903.2,2386.2c0,34.2-0.1,68.3,0.2,102.5c0,3.8,2.2,7.9,4.3,11.3c12,19.7,24,39.4,39.4,56.8c57.8,65.5,134,97.9,215.9,119.6
			c90.3,23.9,182.9,33,275.4,42.4c152.9,15.6,306,27.9,459.7,14.3c51.2-4.5,103.3-7.2,152.1-25.6c93.8-35.4,147.4-114,139.3-202.4
			c-8.1-88.1-92.2-138.3-173.2-103.4c-3.6,1.6-8.3,5.7-11.1,2.5c-9.7-11.3-19.4-23.9-22-38.1c-1.5-8.1,12.5-10.3,19.9-14.1
			c53.9-27.7,106.8-56.7,149.9-100.6c30.7-31.3,52.3-68,60.3-111.2c16.7-90.2-48.5-166.8-144.6-173.5c-61.2-4.3-116.9,12.4-170.5,39
			c-53.1,26.3-101.7,60-150.8,92.8c-90.3,60.2-187.7,103.5-294.4,123.8c-21.9,4.2-24.4,12-20.4,30.8c5.4,24.5,8,49.6,6.3,74.9
			c-3.4,50.9-31.5,87.4-79.8,98.2c-41.4,9.2-83.6,8.4-125.6,3.3c-17-2.1-34.8-5.6-47.7-16.3c-19.4-16-34.5-14.8-56.3-2.7
			c-45.5,25.4-95.8,19.2-145.4,14.6C952.7,2422.1,923.6,2416.1,903.2,2386.2z M802.1,1890.8c-53.8,26.7-107.2,44.1-163.9,49
			c-15.8,1.4-19.3,7.9-19.5,22.8c-0.7,48.4,9.2,95.9,9.7,144.2c0.6,54.2-9.9,104.5-49.7,144c-30.6,30.3-67.7,44.5-109.7,27.6
			c-39.6-15.9-49.3-51.3-50.1-90c-1.5-74.7-3.2-149.5-3.6-224.2c-0.1-16.1-5.2-20.8-20.6-21.3c-51-1.9-101.6-7.3-150.7-22.4
			c-33.2-10.2-33.9-10.7-49.2,21.6c-93,195.8-113.1,403-87.3,614.8c14.8,120.9,89.3,190.9,204.4,208.3
			c96.5,14.5,193.8,12.2,290.9,6.8c57.4-3.2,113-14.2,165.9-37.6c54.8-24.1,83.3-65.4,83.2-125.8c-0.2-55.7-1.2-111.5-0.1-167.2
			c2.2-117,0.7-233.6-16.3-349.7C825.7,2025.3,814.7,1959.2,802.1,1890.8z M917.8,1291.2c10.8-25.5,17-49.1,22.4-72.9
			c8-34.5,10.9-69.7,13.1-104.9c7.7-122.8,5.2-245.8,7-368.7c1.9-126.3,2.7-252.7,1.6-379c-0.5-63.3-25.7-90.3-87.6-99.8
			c-68.9-10.7-137.8-6.6-206.1,6.1c-37.2,6.9-70.8,23-98.8,49.5c-14.9,14.1-26.3,28.5-18.7,51.5c3.5,10.6,2.9,22.9,2.9,34.4
			c0.2,233.7,0.4,467.4-0.1,701.1c0,17.7,3,23.8,22.8,23.3c116.1-2.7,216.8,35.9,300.6,117C890.5,1261.8,903.1,1275.8,917.8,1291.2z
			 M2157.6,286.5c10.2,43.7,15.1,85.4,11.4,127.7c-3.7,42.8-16.2,82.7-44,116.3c-80.2,97.2-229.5,92-308.2-9.9
			c-34.3-44.4-50-95.8-59.9-149.7c-5.2-28.1-5.2-28.3-33.1-18.9c-49.5,16.8-97.8,36.5-146,56.7c-16,6.7-20.8,16.2-20.5,32.4
			c1.3,61.2,14.1,119.4,39.6,175.4c102,223.9,313.9,285.8,507.5,251.2c127.7-22.8,225-100.3,299.1-206.2c8.1-11.6,16-23.2,17.6-38.2
			c9.9-94.9,12-189.7,1.5-284.8c-1.3-12.1-6.6-16.5-16.7-18.5c-25.3-5.1-50.4-10.8-75.8-15.2C2274,295.1,2217.5,287.7,2157.6,286.5z
			 M1630.3,762c-40.3,215.8-158.2,366.1-358.7,455.5c11.3,3.2,17.6,5.2,23.9,6.9c190.8,49.7,384.1,62.2,579.4,36.3
			c95-12.6,188.8-31.1,277.9-68.6c78.2-32.9,134.2-87.8,168.3-165.7c23.8-54.3,40.5-110.7,55.9-167.7c9.7-35.8,19-71.6,25.5-114.2
			c-105,116.2-230.2,179.2-382.3,181.6C1868.2,928.4,1736.2,879.3,1630.3,762z M203.4,1252c6.1-3,9.6-4.8,13.1-6.5
			c84.5-40.7,171.2-75.6,261.7-100.1c21.6-5.8,26.7-13.4,26.7-34.5c-0.6-227.6-0.2-455.2,0-682.7c0-10.9,0.2-21.8-0.8-32.6
			c-5-53.5-27.9-77.2-81.4-84.6c-51.6-7.1-103-5-154.2,3.6c-67.2,11.3-103.4,45.3-117,110c-3.6,17.2-5.7,34.8-5.6,52.6
			c1.2,111.5,15,222.1,22.6,333.1c6.6,96.8,14.9,193.5,22.6,290.3C194.9,1150.3,199.1,1200.1,203.4,1252z M133,1775.2
			c5.4,13.9,12.7,23.4,20.4,32.6c36.4,43.8,85.9,63.9,139.6,73.2c108.3,18.7,217.7,21.4,327,11.1c100.9-9.5,188.7-46.3,255.5-126.9
			c103.9-125.2,106.5-312,4.3-438.9c-5.2-6.5-10-12.1-19.7-12.2c-20.4-0.3-40.8-1.1-61,2.2c-103.4,17-175,75.7-219.7,169
			c-17,35.5-33.1,71.4-49.8,107c-20.4,43.6-47.1,82.6-84.5,113.3c-57,46.7-124.5,64.6-196.3,69.7C211,1778,173.1,1775.8,133,1775.2z
			 M816.7,1259.2c-2.5-1.2-5.2-2-7.4-3.6c-71.8-53.9-152.4-78.6-242.1-73.6c-63.2,3.5-122.6,21.7-180.5,46.2
			c-53.6,22.7-109.9,39.2-160.4,69.3c-34.2,20.4-61.9,46.7-78,83.4c-46.2,106-49,217.2-37.7,329.8c1.2,11.6,8.8,13.5,18.5,13.9
			c50.9,2.2,101.9,4.6,152.6-3.1c89-13.4,157.5-56.3,197-139.9c12.7-27,25.7-53.9,38.2-81c17.6-38.3,36.1-76.3,62-109.7
			C638.4,1314.5,718,1274.2,816.7,1259.2z M1507.5,444.6c-68.7,33.7-129.6,74.2-189.2,116.8c-6.1,4.4-6.6,9.7-4.5,16
			c22,66.4,16.7,132.9-1.8,198.6c-22.4,79.6-68.8,137.4-152.4,159.8c-43.7,11.7-87.5,10.3-131.4,4.1c-14.7-2.1-20.3,0.5-20.3,17
			c0.1,46.9-0.9,93.8-3.1,140.6c-0.7,14.2,4.4,20.2,16.4,25.9c47.4,22.2,95.4,42.7,144.4,60.9c14.3,5.3,26.9,6,42.1,1.3
			c214.4-67,359.4-247.9,376.9-471.2c0.6-7.7-0.3-14.6-4.4-21.4C1534.8,617.6,1509.7,536.1,1507.5,444.6z M2120.2,385.2
			c0.6-28.8-4.8-56.7-10.7-84.7c-2.2-10.6-6.4-14.4-17.4-14.1c-94.8,2-187.8,16.2-279.4,39.9c-7.8,2-12.3,4.5-10.7,13.4
			c9.9,54.9,20.5,109.5,57.5,154.5c49.3,59.9,135.3,74.1,197.8,31.4C2106.7,491.9,2119.7,441.2,2120.2,385.2z M1671.1,1320.3
			c-30.5,0-61-0.1-91.5,0.1c-5.4,0-13.9-4.1-13.9,6c-0.3,44.6-12.8,88.9-4.1,133.7c6.4,33.3,27.1,52,59.8,58.2
			c37.9,7.3,75.9,3.9,113.2-3.2c57.8-10.9,79.5-37.8,78.6-97.2c-0.4-27.7-5.3-55.3-6.3-83.1c-0.5-13.5-4.5-17.3-17.8-15.6
			C1749.8,1324.1,1710.4,1322.7,1671.1,1320.3z M951.7,2117.7c0,82.8,0,160,0,237.2c0,12.2,7.9,16.2,18.2,17.7
			c32.3,4.7,64.7,9,97.3,5.2c49.3-5.8,77.9-29.2,88.3-71.5c6.6-26.9,3.5-54-0.4-81c-1-6.7-3.9-11-10.8-12.9
			C1076.5,2193.4,1014.2,2162.6,951.7,2117.7z M1081.5,894.4c69.7,1.2,125.3-17.8,158.7-76.9c34.9-61.8,44.2-128.8,33-199
			c-2.7-17.1-7.4-16.7-19.3-6.7c-50.5,42.5-99.3,86.7-143.8,135.6c-33,36.2-64.6,73.5-93.8,112.8c-13.7,18.5-9.4,27.5,13.3,30.1
			C1048.6,892.4,1067.4,895.4,1081.5,894.4z M464.3,2076.2c1.5,0,3,0,4.5,0c0,40-1.5,80.1,0.4,120c1.8,37.4,28.5,49.9,60.6,30.2
			c6.2-3.8,11.9-9,16.9-14.5c21.6-23.7,29.8-52.7,31.4-83.9c2.9-57.8-12.1-114.6-8.8-172.5c0.5-9.4-5.8-8.9-12.1-8.9
			c-25.8,0-51.6,0.6-77.3-0.3c-12.5-0.4-16.2,3.2-15.9,15.9C464.9,2000.2,464.3,2038.2,464.3,2076.2z M1287.1,2383.5
			c14.9-1.2,29.8-1.6,44.6-3.6c41.9-5.5,56.3-21.6,57.8-64c0.8-21.8-5.7-43-7.3-64.5c-1-14.2-5.1-17.9-19.6-16.8
			c-46.8,3.5-93.6,2.9-139.9-5.5c-15.2-2.7-17.4,2.5-15.3,15.5c5.4,34.3,1.8,67.8-12.4,99.5c-5,11.1-0.4,16.2,7.7,21.4
			C1228.7,2382.1,1257.7,2383.5,1287.1,2383.5z M882.9,2060.2c5.3,46.5,10.4,90.8,15.5,135.1c3.4-37.9,3.7-75.7,3.3-113.4
			C901.6,2071.4,894,2065.6,882.9,2060.2z"/>
	</g>
</g>
</svg>
