<?xml version="1.0" encoding="utf-8"?>
<!-- Generator: Adobe Illustrator 23.0.0, SVG Export Plug-In . SVG Version: 6.00 Build 0)  -->
<svg version="1.0" xmlns="http://www.w3.org/2000/svg" xmlns:xlink="http://www.w3.org/1999/xlink" x="0px" y="0px"
	 viewBox="0 0 3000 3000" style="enable-background:new 0 0 3000 3000;" xml:space="preserve">
<style type="text/css">
	.st0{stroke:#000000;stroke-width:10;stroke-miterlimit:10;}
</style>
<g id="Layer_1">
</g>
<g id="Layer_2">
	<g>
		<path class="st0" d="M2828.9,1516.6c0,238,0.3,475.9-0.1,713.9c-0.6,324.4-220.6,600.6-536.6,674.2c-48,11.2-96.7,16.8-146.1,16.8
			c-429.9,0-859.8,1.1-1289.6-0.2c-340.7-1-631.2-257.7-676.8-594.9c-4.4-32.5-6.1-65.2-6.1-98c0.2-474.4-0.1-948.7,0.2-1423.1
			c0.2-336.2,231.8-617.1,561.6-681.8c41.4-8.1,83.3-11.6,125.6-11.6c426.8,0.1,853.5-0.5,1280.3,0.3c344,0.6,634.2,254.7,681.5,595
			c4.7,34,6.2,68.3,6.2,102.7C2828.8,1045.4,2828.9,1281,2828.9,1516.6z M2066.6,2864.1c54.9,1.5,104.9,1.9,154.5-4.9
			c316.8-43.1,550.6-310.3,550.9-630.6c0.5-474.4,0.2-948.7-0.1-1423.1c0-28.8-1.6-57.8-5.5-86.3c-44-317.6-310.3-550.1-630.8-550.4
			c-422.9-0.4-845.7-0.1-1268.6-0.1c-48.5,0-96.6,5-143.8,16.1C433.9,252.2,231,506.4,230.7,803.4c-0.5,467.3-0.1,934.7-0.2,1402
			c0,3.9,0.4,7.8,0,11.7c-1.1,10.1,4.6,13.7,13.4,15.3c44.5,8.4,88.9,16.4,134.5,14.3c96.1-4.3,157.3-53.6,181-146.8
			c17.9-70.1,8.2-139.7-8.6-208.2c-34.4-140.3-53.5-281.3-35.8-426.1c30.9-252.3,131.4-471.9,309.9-653.2
			c174-176.7,387.9-273.6,632.9-302.8c219.6-26.1,428.5,9.7,625.9,110.8c171.8,87.9,282.1,222.3,317.1,414.7
			c17.7,97.5,25.6,196.1,35.7,294.5c16.5,159.7,34.7,319.3,38.7,480c4.2,168.4-7.1,335.1-49.4,498.8
			c-48.4,187.5-135.6,353-279,485.9C2121.9,2817.4,2095.6,2838.9,2066.6,2864.1z M918.1,802.9c-77.1,67.8-139.3,140.4-189.7,222.8
			c-158.6,259.2-202,535.9-126.6,831.1c20.1,78.9,32.8,158.8,17,240.7c-22.1,115.1-92.7,185.1-208.3,203.2
			c-52.2,8.2-104.5,3.1-155.7-8.2c-21.3-4.7-21.6,3.2-19.4,19.2c8.5,59.7,22.4,118.1,48.4,172.7c110,231,292.6,358,547.9,379.7
			c10.6,0.9,18.8,0.9,23.3-12.5c27.9-82.8,82.5-146.3,149.9-198.9c78.6-61.4,158.8-121,239-180.3
			c126.2-93.2,213.6-211.7,248.4-367.2c28.7-128.3,29.5-258.3,31.5-388.5c0.2-14.6-8.1-14-18.1-13.7c-51.5,1.4-102.9,2.5-154.4,3.9
			c-86.5,2.3-172.9,6.8-258.8-11.3c-87.1-18.3-152.4-84.5-164.7-172.4c-10.7-76.6-12.5-153.9-14.1-231
			c-3.2-152.9,2.2-305.8,4.2-458.7C918.2,825,918.1,816.7,918.1,802.9z M1901.6,2863.6c30.5,2.2,58.7,2.8,86.2-16.8
			c40.7-29,81.1-58.1,117.8-92.1c126.4-117.2,207-261.6,254.9-425.9c45-154.2,58.6-312.1,57.9-471.8c-0.6-131.2-11.5-261.7-25.9-392
			c-15.1-136.3-22.8-273.4-46.3-408.8c-26.7-153.9-102.7-274-237.6-355.2c-9.4-5.6-16.8-12.7-27.6-0.2
			c-102.1,117.9-209.5,231.1-309.4,351c-105.5,126.6-167.7,270.5-180.8,435.3c-1.2,14.8,0.4,18.9,16.3,17.1
			c50.4-5.6,100.9-10.3,151.4-13.9c74.6-5.4,149-15.5,224.2-11.1c105.9,6.1,178.6,60.5,202.5,153.1c5.6,21.8,9.2,44.3,11.4,66.7
			c14.3,149-2.7,296.1-31,441.9c-47.7,245.2-137.1,475.5-253.2,696C1908.1,2845,1901.5,2852.2,1901.6,2863.6z M1263.5,2864.7
			c106.1,0,212.2-0.9,318.3,0.7c24.1,0.4,35.3-7.9,45.9-28.3c116.3-223.7,202-458.7,257.7-704.4c20.7-91.1,40.5-182.9,43.7-276.7
			c3-88.6-41.1-137.7-128.3-152.4c-64.5-10.8-129.3-1.9-193.8-4.5c-21.4-0.8-25.6,6.9-25.9,26.6c-1.5,102.1-2.8,204.2-16.4,305.8
			c-25.4,190.2-106.9,348.8-260.8,466.8c-85.3,65.4-172,129.1-257.4,194.5c-53.1,40.7-98.1,88.9-127.2,150.3
			c-8.2,17.3-5.9,22.1,14.2,21.9C1043.5,2864.3,1153.5,2864.7,1263.5,2864.7z M2038.7,662.5c-7.7-3.9-12.5-6.5-17.4-8.8
			c-203.4-94.4-415.3-115.5-634.9-76.2c-27.5,4.9-40.6,17.2-50.4,42.3c-67.3,172.4-109.9,350.2-128,534.5
			c-15.6,159.1-12.2,317.7,2.8,476.5c1.6,16.5,6,22.3,23.7,21.7c89.6-3.4,179.3-5.7,269-7.3c16.9-0.3,23.2-4.9,22.7-22.7
			c-1.1-40.6,1.8-81,5.3-121.5c11.3-130.6,42.7-254.8,111.9-367.8c61.6-100.4,141.2-186.2,218.9-273.6
			C1920.5,794.4,1978.8,729.5,2038.7,662.5z M2144.3,1811.6c0.3-44.1,0.7-101.8-13.2-158.4c-16-65-56.2-102.3-121.5-113
			c-41.2-6.8-82.4-5.8-123.6-2.3c-83.9,7-167.7,14.6-251.7,21.1c-51,4-51,3.3-51,53.8c0,30.5,0,30.9,31.5,29.7
			c74-2.7,148-6.2,221.3,9.7c74.5,16.1,132.3,74.9,146,149.7c6.3,34.2,6,68.5,1.7,102.5c-22.1,174.4-62.2,344.8-117.3,511.7
			c-48.6,147.4-106.7,290.9-179,428.4c-7.6,14.4-9,21.3,11.7,20.6c38.2-1.4,76.4-0.9,114.6-0.1c13.4,0.3,20.8-3.8,27.3-16
			c48.4-90.8,93.9-183,133-278.2C2072.4,2331.8,2136.4,2084.9,2144.3,1811.6z M1279.7,607.9c-5.3,0-7.6-0.5-9.6,0.1
			c-103,31.5-197.9,79.2-285.5,141.9c-9.3,6.7-9.4,14.9-9.6,24.5c-1.6,134.9-4.1,269.9-4.7,404.8c-0.5,110,1.7,219.9,13.5,329.4
			c6.6,61.6,39.7,101.9,96.6,123.1c18.1,6.7,37.8,9,56.6,14c14.1,3.8,17.2-0.4,16-14.8c-5.9-69.1-9.9-138.3-12-207.7
			c-4.6-147.9,7.1-294.5,32.7-440.1C1196.1,855.4,1231.3,731.2,1279.7,607.9z"/>
	</g>
</g>
</svg>
