<?xml version="1.0" encoding="utf-8"?>
<!-- Generator: Adobe Illustrator 23.0.0, SVG Export Plug-In . SVG Version: 6.00 Build 0)  -->
<svg version="1.0" xmlns="http://www.w3.org/2000/svg" xmlns:xlink="http://www.w3.org/1999/xlink" x="0px" y="0px"
	 viewBox="0 0 3000 3000" style="enable-background:new 0 0 3000 3000;" xml:space="preserve">
<style type="text/css">
	.st0{stroke:#000000;stroke-width:10;stroke-miterlimit:10;}
</style>
<g id="Layer_1">
</g>
<g id="Layer_2">
	<g>
		<path class="st0" d="M1500.2,452.4c222.6,0,445.4-6.1,667.7,1.4c357.6,12.1,672.7,284.1,747,633.8c12,56.7,18.9,113.9,18.8,171.8
			c-0.2,98.7,5.6,197.7-2.4,296.1c-25.6,314.8-165.9,565.1-425.9,746.7c-12.7,8.9-25.4,13.2-41.4,12.2
			c-212.9-12.8-425.9-21.3-639.2-25.4c-334.3-6.3-668.6-6.4-1002.8,6.2c-95.8,3.6-191.6,8-287.4,13.1c-14,0.7-22.6-5.8-32-13.4
			C283,2117.5,144.7,1889.7,81.4,1615.4C69,1561.6,62,1507.6,63.8,1452.2c3-92.1-6.2-184.6,5.5-276.3
			c38.3-299.5,195.9-514.9,464.8-649c111-55.4,230.5-76.8,354.3-76.7c204,0.2,407.9,0.1,611.9,0.1
			C1500.2,451,1500.2,451.7,1500.2,452.4z M464,2199.8c1.8-6.1,2.7-7.8,2.8-9.5c0.4-8.4,0.5-16.8,0.9-25.1
			c8.2-176.1,50-340.4,169.5-476.9c7.6-8.7,9.4-17.4,7.2-28.2c-18.5-91.2-20.2-183-9.8-275.1c18.4-162.9,80.1-305,202.8-417.1
			c112.9-103.2,251.5-144.5,399.1-162.4c142.6-17.3,286.2-18.3,429.5-19.5c97.7-0.8,195.5,5.2,290.8,30.5
			c215.1,57.1,350.5,191.9,396.5,411.5c25,119.5,18.7,238.9-11.3,356.8c-5.5,21.8-1.2,36.1,13.5,52.2
			c38.6,42.3,67.3,91.2,87.9,144.6c48.2,124.8,53.5,254,37.8,385c-3.9,32.9-10.3,65.5-15.7,99.4c5.7-0.7,8.8-0.2,11-1.4
			c7.2-4.2,14.2-8.8,21-13.7c192.2-138.9,313.7-324.5,367.3-555.3c22.8-98,23.6-197.4,21.8-297.1c-1.6-89.2,3.8-178.5-10.5-267.5
			c-56.7-351.4-384.9-632.9-740.5-633c-417.2-0.1-834.5,0.1-1251.7-0.2c-47.7,0-94.7,3.7-141.7,11.3
			c-310.9,50.2-577.9,322.4-622.1,633.5c-17.6,124.3-7.5,249.2-9.8,373.8c-0.1,4.6,1.5,9.2,2.3,13.7c18.1,112.7,51,220.9,99.6,324.2
			C273.5,1984.4,356.7,2098.6,464,2199.8z M1866.7,2237.7c221.2,10,378.7,17.6,399,20.1c2.9,0.4,13.5,2,21.2-4.1
			c4.6-3.6,7.2-9.8,9.1-20.1c15-84.2,18.7-168.1,3.8-252.6c-24.3-137.8-90.6-245-223-302.7c-69-30.1-142.8-40.6-217.3-46
			c-174.4-12.5-349.1-5.8-523.6-4.6c-92.9,0.7-186,4.3-278,21c-114.5,20.8-217.3,62.8-295.4,154.1
			c-107.5,125.7-137.2,274.9-135.3,434.4c0.3,21.6,12.8,17.6,25.9,17.1c273.2-11.6,546.5-16.4,819.8-16.7
			C1604.2,2237.6,1735.5,2237.7,1866.7,2237.7z M1587.7,1514.9c-53,0-106.1-1.5-159.1,0.3c-145.1,4.9-290.2,9-433.9,33.1
			c-180.7,30.4-317.5,122.1-401.6,286.8c-45.9,89.8-68.7,186.3-75.6,286.6c-2.6,37.1-5.9,74.3-1.8,111.6c3.3,30.6,26,24.8,46.3,25.6
			c24,1,17.9-15.2,17.9-28.2c-0.2-70,4.8-139.7,22-207.6c49.8-197,161.9-338.6,361.8-399.9c69.8-21.4,141.8-30.6,214.3-35.5
			c159.9-10.6,320.2-9.5,480.3-8.8c103.2,0.5,206.6,2.1,309,19.6c204.5,34.9,332.9,155.2,374.4,354.3
			c17.4,83.5,20.5,167.7,4.6,252.2c-11,58.6-10.5,57.7,49.1,59.2c18.5,0.5,23.4-7.1,26.6-22.8c20.6-103,26.9-206.5,12.1-310.9
			c-18.1-127.2-68.1-237.7-171.5-318.3c-83.9-65.4-183.8-86.7-286.7-97.2C1846.5,1501.8,1717.1,1506,1587.7,1514.9z M685.4,1636.5
			c21.8-16,37.4-29.2,54.6-39.6c14.6-8.8,18.9-18.8,18.1-36.1c-4-93.6,3.9-186.3,32.8-275.8c59.2-183.4,174-309.3,369.1-349.4
			c80.6-16.6,162.7-19.1,244.6-21c157.2-3.7,314.8-14.6,471.4,8.3c171.5,25.1,295.6,112.8,353.5,280.6
			c33.1,95.9,35.7,195.4,22,295.2c-4,29.1-6.7,53,26.6,68.3c16,7.4,18.8,7.6,22.7-9.7c19.5-86.1,25-172.6,16.5-260.7
			c-20.8-216.3-147.5-370.2-356-430.7c-63.9-18.5-129.5-28.3-195.4-30c-205.8-5.3-411.8-7-615.2,31.3
			c-129.7,24.4-243.5,80.9-329.6,184.1C679.1,1221.6,659.2,1420.6,685.4,1636.5z M1526.3,1030.3c78.2-3,156.4-2.4,234.4,4.2
			c130,11.1,240.5,55.9,307.5,176.8c37.4,67.6,50.8,140.9,52.7,217c1.6,64.7,1.3,64.2,61.2,86.4c15,5.6,21,5.2,23-12.9
			c7.7-68.7,10.9-137.3-0.7-205.9c-25-146.9-99.2-254.7-244.5-305.3c-45.9-16-93.6-25-141.9-28.1c-200.1-13.1-400.1-6.8-599.6,11.2
			c-85.4,7.7-165.4,34.7-232.7,91.3c-47.7,40.1-85.6,87.7-113.6,143.3c-51.5,102.1-68.8,211.4-67.9,324.5c0.1,7.5-4.3,23.7,10,20.4
			c17.3-4,37.9-6.9,38.8-34.8c1.9-55.1,14.2-108.9,33.2-160.6c60.8-164.9,167.6-279.7,347.8-310.8
			C1330.5,1030.5,1428.7,1034.5,1526.3,1030.3z M1353.9,1155c-3.8-1.4-5.5-2.4-7.2-2.5c-38.1-1.9-76.2-4-114.3-5.5
			c-68.4-2.7-68.4-2.6-85.3,63.9c-0.2,0.9-0.6,1.8-0.9,2.6c-5.6,12.7,0,16,12.3,16.3c52.1,1.2,104.2,2.9,156.3,4.8
			c10.4,0.4,17.6-1.3,20.5-13.1C1340.8,1199.1,1347.6,1177.1,1353.9,1155z M1347,1357.1c47.5,6,95.6,5.9,143.5,7.4
			c55.9,1.7,54.7,2.3,68.8-51.3c6.1-23.2-1.9-27-22.2-26.8c-34.3,0.4-68.6-0.4-102.9-1.9c-70.9-3.1-70.9-3.4-87.3,65.9
			C1346.6,1352,1347,1353.9,1347,1357.1z M1594.1,1164.3c-25-1.6-49.1-3.2-73.1-4.5c-20.4-1.1-40.9-2.1-61.3-2.4
			c-60.4-0.9-60.4-0.8-74.4,58.3c-0.2,0.9-0.5,1.8-0.7,2.7c-4.2,13-0.5,17.5,14,17.6c34.4,0.2,68.7,2.9,103.1,4
			C1578,1242.4,1578,1242.2,1594.1,1164.3z M1684.5,1373.8c0,0.4,0,0.8,0,1.1c10.2,0,20.5-0.2,30.7,0c60.5,1.4,60.5,1.4,73.9-58
			c0.2-0.9,0.6-1.8,0.8-2.7c4.7-14.2,0.1-20.4-15.4-20.5c-35.4-0.3-70.7-2-106.1-2.3c-56.9-0.4-56.9-0.2-69.8,55.7
			c-0.2,0.9-0.5,1.8-0.8,2.7c-4.3,13.1-2.9,20.4,14.2,20.2C1636.2,1369.8,1660.3,1372.4,1684.5,1373.8z M1221.9,1280.2
			c0-0.7,0-1.4,0-2.2c-13-0.6-25.9-1.3-38.9-1.8c-58.1-2.2-57.4-2-73.4,53.1c-5,17.2,0.5,20.6,15.8,20.9c37,0.8,74.1,1.9,111.1,4.1
			c63.3,3.8,62.7,4.1,77.2-56.9c3.5-14.9-0.8-17.7-14.1-17.4C1273.8,1280.6,1247.9,1280.2,1221.9,1280.2z M1924.9,1298.8
			c-84.6-3.1-84.3-3-98.4,58c-3.7,15.9-2.6,23.8,17,24c41.8,0.5,83.7,1.9,125.4,5.5c20.1,1.7,25-7.2,28.4-23.8
			c12.5-61.3,12.8-61.3-50-63.7C1939.8,1298.5,1932.3,1298.8,1924.9,1298.8z M1822.9,1174.8c-41.9-4.7-84.3-5.9-126.7-6.5
			c-55.7-0.8-55.7-1.2-67,53.4c-0.4,1.8-0.5,3.8-1.2,5.4c-5.6,13.3,1.7,15.9,12.9,16.2c32.4,0.9,64.9,2.5,97.3,3.1
			c70,1.3,70,1.1,85.1-67C1823.6,1178.6,1823.2,1177.7,1822.9,1174.8z M1417.6,1471.3c0-0.7,0-1.4,0-2.1c30.6-1.4,61.3-1.8,91.7-4.6
			c25.9-2.3,17.8-26.9,21.7-41.4c4.1-15.3-12.7-8.5-19.4-9c-46.3-3-92.6-4.7-138.9-6.6c-50.4-2.1-37.3-11.1-54.1,40.3
			c-5.6,17.3,0.4,24,18.4,23.5C1363.8,1470.7,1390.7,1471.3,1417.6,1471.3z M1939.2,1251c0,0.4,0,0.9,0,1.3
			c10.2,0,20.4-0.2,30.7,0.1c11.1,0.3,22.5-0.3,33.3,1.7c16.7,3,18.8-10.1,21.1-19.6c3.2-13.2-30.7-53.6-44.6-54.5
			c-30.6-2-61.2-2.7-91.8-4.7c-14-0.9-17.5,6.8-18.7,18.3c-1.9,18.5-17.3,35.4-7.2,54.9c1.5,2.8,10.4,2.4,15.9,2.4
			C1898.4,1251.2,1918.8,1251,1939.2,1251z M1283.1,1396.5c-61.2,0-118.7,0.6-176.2-0.2c-31-0.4-25.2,26.3-29,41.7
			c-4.4,18.1,15.5,10.4,23.9,11.3c36.9,4,74,6.9,111.1,8.1C1275.3,1459.3,1264.3,1471.9,1283.1,1396.5z M943.5,1341.5
			c34,1.9,65.3,3.6,96.7,5.3c8.6,0.5,16.5,0.4,19-11c4.3-19.7,15.1-37.8,15.3-58.5c0-0.9-4.6-1.9-7.1-2.7
			c-58.3-18.6-93.8-3.1-118.5,51.8C947.3,1329.7,946.4,1333.3,943.5,1341.5z M1661.2,1463.1c0-1.3,0-2.7,0-4c26,0,52-0.3,78,0.1
			c16.2,0.3,16.2-11.6,18.5-22.4c2.1-9.8-2.1-13.7-11.3-14.1c-51-2.2-102.1-6-153.1-6.1c-22.5,0-17.2,23.5-19.2,36.9
			c-2.4,15.4,12.6,9,20.3,9.3C1616.6,1463.6,1638.9,1463.1,1661.2,1463.1z M1751.8,1124c0-0.4,0-0.8,0.1-1.1
			c23.2,1.1,46.4,1.5,69.4,3.6c15.3,1.4,18.6-6.7,21.1-19.1c3.1-15.1-8.1-14.6-16.3-16.4c-48.3-10.2-97.4-12.4-146.5-14.5
			c-24.1-1-18.9,19-21.6,31.3c-3.6,16,11.4,10.8,18.9,11.5C1701.7,1121.6,1726.8,1122.5,1751.8,1124z M1516.2,1113.3
			c0-0.4,0-0.8,0.1-1.2c24.1,1.5,48.3,2.2,72.3,4.9c23.6,2.6,22.1-14.4,23.8-28.5c2.3-18.7-12.5-11.7-20.9-11.9
			c-15.8-0.5-31.6,0.6-47.4,0.9c-34.4,0.6-68.8,2-103.1,1.2c-15-0.3-19.8,7.1-21.5,19.1c-2.5,17.2,11.8,10.9,18.8,11.5
			C1464.2,1111.5,1490.3,1112.1,1516.2,1113.3z M990,1392c-23-1.4-37.8-3.9-52.5-2.9c-24.2,1.6-18.6,24.2-22.6,38.2
			c-4.3,15.3,11.2,11.2,18.7,12c22.1,2.1,44.3,2.5,66.5,3.9c23.9,1.4,39.9-14,37.2-40.7c-2-19.7-20-7.4-30.6-10
			C998.8,1390.4,990.1,1392,990,1392z M1889.9,1459.5c0,1,0,1.9,0,2.9c22.2,1.2,44.7,0.7,66.5,4.2c19.8,3.1,21.2-9.3,23.4-22.1
			c3.3-19-11.9-12.3-20-12.8c-29.6-2-59.2-2.9-88.8-4.1c-16.7-0.7-33.3-1.1-50-1.9c-17.3-0.8-15,14-17,23.3
			c-3.3,14.7,9.7,10.1,16.6,10.3C1843.6,1459.9,1866.8,1459.5,1889.9,1459.5z M1014.4,1222.8c80.3,8.3,80.3,8.3,98.7-60
			c0.5-1.8,1.4-3.6,1.4-5.4c0-4.4,1.4-10.4-0.9-12.9c-4.6-4.9-10.6-0.7-14.8,2.2C1068.3,1167.6,1039.6,1190.4,1014.4,1222.8z
			 M1218.8,1099.4c40.1,2.2,73,4,105.9,5.7c11.1,0.6,22.3,0.8,33.4,1.3c9.7,0.4,12.7-5.9,14-13.9c1.5-9.6-4.4-10.9-11.8-10.3
			C1315.3,1085.6,1269.8,1084.7,1218.8,1099.4z M1014.5,1495.5c-37.7-11-69.4-7.5-100.4-9.6c-17.9-1.2-10.9,15.8-14,24.8
			c-2.4,6.9,2.2,10.8,9,9.3C942,1512.6,974.8,1504.8,1014.5,1495.5z M2071.6,1460.2c9.1-26.8-7.6-21.3-19.9-24.1
			c-23.9-5.4-27.9,9.9-27.1,26c1.2,24.3,23.9,13.7,36.1,16.7C2080.5,1483.8,2068.7,1463.6,2071.6,1460.2z M2055.5,1309.1
			c-5.1,25.2-8.4,44.2-13,62.9c-3.1,12.6,1.7,16,13.5,17c13.1,1.1,16.5-4.2,14.5-15.8C2067,1353.3,2065.6,1333.1,2055.5,1309.1z"/>
		<path class="st0" d="M1426.9,1831.6c77,0.8,135.1,14.5,186,51.2c70.3,50.5,80.2,140.9,21.6,191.7c-18.1,15.7-39.5,24.4-62.8,28.4
			c-96,16.4-184.3-3.3-259.2-65.7c-75.2-62.7-54.2-160.2,38.7-192.1C1380.6,1835,1411,1831.2,1426.9,1831.6z M1441.3,1878
			c-29.3-0.9-57.7,3.5-84.4,15.5c-47.4,21.3-56.3,62.9-22.5,101c49.5,55.6,181,85.3,249.5,56.4c39.1-16.5,52.2-50,34.9-89
			c-8.6-19.3-21.8-34.3-39.6-45.7C1537.1,1889.1,1490.4,1879.1,1441.3,1878z"/>
	</g>
</g>
</svg>
