<?xml version="1.0" encoding="utf-8"?>
<!-- Generator: Adobe Illustrator 23.0.0, SVG Export Plug-In . SVG Version: 6.00 Build 0)  -->
<svg version="1.0" xmlns="http://www.w3.org/2000/svg" xmlns:xlink="http://www.w3.org/1999/xlink" x="0px" y="0px"
	 viewBox="0 0 3000 3000" style="enable-background:new 0 0 3000 3000;" xml:space="preserve">
<style type="text/css">
	.st0{stroke:#000000;stroke-width:10;stroke-miterlimit:10;}
</style>
<g id="Layer_1">
</g>
<g id="Layer_2">
	<g>
		<path class="st0" d="M280.8,1158.6c-103.5-33.5-111.8-136.1-46.3-192.3c-5.4-3.7-10.7-7.1-15.9-10.8
			c-61.7-44-62.7-127.7-0.8-171.6c13.6-9.6,14.3-15.8,8.5-30.3c-25.6-63.8,10-128.4,77.8-141.3c17.4-3.3,21.6-7,15.4-25.2
			c-13.3-39.1-2.6-74.8,26.6-102.9c29.7-28.5,66.2-38.8,105.8-23.6c14.3,5.5,17.8,2.6,19.1-10.4c7.4-77.5,102.9-122.3,175.8-63
			c15.6-34.4,38.2-61.4,76.5-70.7c39-9.5,72.1,1.5,100.5,28.8c6,5.7,8.6,14.9,20.9,4.1c65.1-57.2,124.3-48.1,176.7,26.9
			c14.4-14,28.2-28.7,47.1-36.6c56.9-23.8,123,7.9,139.9,67.8c3.7,13.2,5,21.4,23.8,19.8c87.6-7.8,137,52.2,115.3,138.1
			c-2.3,9-3.1,13.6,7.4,18.4c47,21.2,54.3,29.9,75.3,82.4c35-33.6,71.3-65.3,103.9-100.3C1617.9,476,1724.8,430,1840.3,399
			c49.4-13.3,99.1-24.9,149.5-33.5c15.3-2.6,29.6-7.4,43-16.3c110.9-73.5,234.8-96.1,365.2-90.2c116.8,5.3,225.2,37.7,318.6,110.1
			c126.3,97.9,191.8,228,205.1,387.1c9.8,116.3-2.1,227.9-51,334.5c-32.6,71-78.8,131.8-140.2,180.1c-17.1,13.4-18,23.5-8.4,42.4
			c68.3,135.6,93.1,279.1,80.8,430.6c-6.9,85.4-22.6,166.5-73.4,237.3c-8.8,12.2-0.9,20.4,3.6,29.8
			c58.8,123.1,62.7,247.9,11.4,374.3c-17.4,42.9-41.6,81.3-78.6,110.5c-38.5,30.4-56.9,71.4-57.3,119.3
			c-0.9,90.5-41.1,137.4-130.4,165.3c-38.5,12-78.5,17.1-118.8,19c-80.3,3.9-160.5,12.8-241,3.5c-42.9-4.9-85.1-12.7-118.2-43.9
			c-9.1-8.5-17.9-6.4-27.8-3.4c-245.3,74-488.2,67.5-728.5-21.8c-9.9-3.7-19-4.9-29.1-0.4c-67.3,29.8-136,29.9-205.9,9.9
			c-25.2-7.2-51-1.2-76.3,0.7c-139.2,10.1-277.7,4.3-415.7-14.7c-14.2-2-26.6-0.9-39.8,4c-79.5,29.5-160.4,33-242.4,11.2
			c-94.2-25-148.2-90.4-156.5-187.7c-6.9-81.2,8.4-157.9,41.7-232c37.5-83.3,85.8-161.1,122-245.1c41.7-97,70.2-197.6,87.8-301.6
			c2.3-13.3,0-20.8-14.1-27.4c-126.3-59-182.3-165.2-162.7-303.4C168.2,1339.9,207.5,1243.2,280.8,1158.6z M1813.2,1216.3
			c5.9,6.9,10.3,11.5,14.2,16.5c47.6,61.6,29.3,141.6-41,174.6c-43.6,20.5-88.7,19.1-133.4,3c-17-6.1-35.7-23.2-49.1-19.3
			c-14.5,4.2-13.5,31.1-21.5,47.3c-29.7,60.5-79.8,68.4-126.8,19.5c-19.8-20.6-34.8-44.7-49.6-68.8c-7.8-12.6-13.4-13.2-25.4-4.8
			c-34.2,24.1-73.1,32.9-114.5,29.4c-93.3-8.1-140.1-81.6-96.6-163.7c25-47.2,24.7-83.6-3.5-125.6c-8-11.9-11.7-12.7-22.3-6
			c-89.9,56.4-176.4,117.1-255.9,187.9c-109.1,97.1-143.6,221-134.1,360.7c5.3,77.2,52.2,125,127.1,135.8c39,5.6,78.3,6.4,117.7,4
			c29.1-1.8,55.1-9.7,79-27.1c29.9-21.9,64.3-30.2,101.2-26.1c22.7,2.5,45.1,6.7,67.7,9.9c26.9,3.8,51-2,70.2-22.3
			c59-62.5,45.4-188.3-25.5-236.4c-47.2-31.9-98.9-51.6-156.2-52.8c-27-0.6-17.9-18.9-19.3-32.6c-1.8-18.4,11.1-15,21.8-14.2
			c69,5.1,132,27.1,188.2,68c24.9,18.1,49.5,39.7,55.8,69.1c9.7,45.9,41.4,72.9,71.6,102.5c3.2,3.1,7.9,5.2,10,8.9
			c27.7,46.6,69.2,65.6,122.6,68.7c65.3,3.8,113.8,36.6,141.6,97.1c12.3,26.8,19.6,54.8,19.6,84.6c0,78.9-11.8,156.7-26.7,233.7
			c-28,144.1-125.9,241-269.2,267.8c-44.8,8.4-90.5,13-135.9,17c-80.3,7.1-148.8-20.8-208.2-73.8c-9.6-8.6-18.3-16.4-3-27.5
			c10.3-7.5,15.6-24.8,34.1-7.1c43.8,42,96.8,66.4,158.4,63.1c46.4-2.4,92.8-8.7,138.9-14.9c131.1-17.7,231.9-130.6,242.3-244.6
			c5.5-59.9,17-119.3,22.6-179.4c9.7-103.2-36.3-162.4-138.4-172.5c-47.8-4.7-87.6-23.1-117.8-61.6c-13.2-16.8-25.6-35-46.3-47.8
			c-2.9,13.8-5.3,25.9-8,37.9c-18.9,83.6-79.7,128.7-159.6,112.1c-55.8-11.6-105.1-9-153,26.1c-29.5,21.7-32.2,20.8-2.1,45.4
			c4.2,3.5,8.7,6.7,13.4,9.5c61.5,37.8,123.1,42.5,184.8,0.5c44.3-30.1,88.7-35.9,138.9-10.3c107.9,55,96,255.3,12.2,311.6
			c-47.2,31.7-127.8,27.5-150-45.4c-6.9-22.7-22.8-32-45-32.9c-30.2-1.1-60.6-1.4-90,6c-115,28.9-205.2,86.8-235.2,210.3
			c-10.1,41.6-17.9,84.1-22.9,126.6c-8.4,71.5,10.1,136.6,58.8,190.4c69,76.4,188.5,89.5,284.2,32.7c56.7-33.6,113.6-66.8,179.8-78
			c161-27,323.4-33,486.3-33.3c18.8,0,37.6,0,58.9,0c-12.8-43.8-37.8-75.7-67.2-104.9c-30.9-30.6-56.8-64.2-70.1-106.5
			c-31.4-99,2.5-210.6,84.2-276.6c7.4-6,21.2-8.9,9-24.3c-44.5-56-55.1-122.4-54-191.2c1.5-100.8,11.7-200.7,37.3-298.5
			c5-19.2,0.5-26.1-18.7-27.2c-58.3-3.4-111.9,10.4-154.4,50.6c-22.9,21.6-38.2,23.7-56.6-1.1c-1.4-1.8-2.6-3.7-4.3-6
			c64.7-68.5,142.3-99.3,235.2-86.2c16.3,2.3,20.4-3.4,24.8-16.2c15.5-44.9,33-89.2,55.6-131c8.1-15,4.5-21.7-8.2-30.5
			c-34.2-23.6-62.1-53.8-86.9-86.9C1851.2,1198,1851.3,1197.9,1813.2,1216.3z M704.5,1594.5c-68.1,36.8-126,79.7-181,126.2
			c-37.8,31.9-78.8,53.1-129.4,49.1c-14.7-1.1-18.3,4.8-20.4,18.1c-5,31.5-11.8,62.8-18.4,94.1c-29.8,140.1-93.8,266.1-159.6,391.5
			c-43.2,82.3-79,166.3-73.7,262.8c4.5,81.9,40.9,138.7,109.7,159.9c57.7,17.8,116.5,21.5,176,9.4c108.9-22.1,194.9-83.2,264.2-166
			c160.4-191.8,245.2-416.5,279.7-662.1c2.7-19.1-1-24.4-20.9-24.9c-52.2-1.4-104.4-7.1-147.4-40.8c-14.9-11.6-24.8-7.9-38.5,0.3
			C631,1879.7,554,1974.5,523.3,2104.9c-38.7,164.2-123.6,300.9-248.4,413.8c-15.9,14.4-23.4,14.4-38.3-1.4
			c-15.8-16.8-4-22.9,6-31.9c114-102.9,194.7-226,231.8-376.7c9.1-36.9,19.6-74,35.8-109c45.2-98,117.5-170.5,208.9-225.8
			c6.2-3.8,20.7-4.2,13.7-18.1C707.7,1706.3,703.3,1653,704.5,1594.5z M1197,857.5c-2.7-1.5-4.1-3-5.6-3.1c-8.2-0.6-16.4-1-24.6-1.1
			c-182-3.2-355.3,33.8-521.2,108.7c-121.8,55-236,120.3-326,221.7c-42,47.4-74.9,99.9-92.4,161.6
			c48.3-54.5,102.7-101.4,162.8-141.8c14.1-9.5,22.2-8.6,29.5,6.9c5.6,11.9,15.7,20.2-3.6,32.3c-80,50.2-145.6,115.7-197.2,195.2
			c-30.7,47.3-29.7,117.1,3.4,167c9.5-4.9,12.7-14.9,18.2-22.9c60.4-88.4,133.5-164.5,219.9-227.8c11.1-8.2,20.3-18.5,32.8,0.7
			c10.2,15.6,13.3,23.2-4.9,36.3c-90.9,65.2-165.3,146.3-225.9,240.3c-10,15.4-9.3,25.1,5,36.6c25.2,20.2,52.4,36.2,82.6,47.7
			c18.6,7.1,26.2,3.1,33.1-16.5c40.9-115.6,106.2-215.8,194.5-301.2c11-10.7,18.9-17.8,32.3-1.4c10.9,13.3,15.6,20.4,0.3,34.6
			c-65.5,61.1-116.9,133-155.4,213.8c-11.5,24.1-22.9,48.3-30,76c22.4-0.8,37.6-10.6,51.7-22.2c66.5-54.5,134.6-106.7,210.6-147.4
			c18.5-9.9,28.9-21.4,33-42.4c18.4-94.8,65.3-173.2,137.4-237.4c83.6-74.4,174.4-138.7,270.1-196.3c16.3-9.8,22.3-20.1,20.7-39
			c-3.5-41.7,4.2-81.9,21.7-120.1C1178.6,896.7,1187.9,877.1,1197,857.5z M2200.1,2115.2c109.2-4.7,194.4-6.8,277.5-26.2
			c124.7-29.2,217.2-96.6,258.7-222.9c15.6-47.4,17.8-96.5,21.8-145.7c10.4-126.8-13.3-247-64.8-362.5
			c-18.4-41.3-18.7-41.2-60.7-22.8c-1.7,0.7-3.4,1.3-5,2.1c-106.1,51.7-220.6,60.9-335.8,65.1c-89.3,3.2-176.8-6.4-259.2-44
			c-12.6-5.8-18-2.4-22.8,8.7c-11.6,26.8-24.5,53-35.4,80.1c-60.7,151.6-85.4,309.3-74,471.9c6.2,87.9,60.6,150.1,145.3,176.2
			C2104.1,2113.2,2164.1,2115.8,2200.1,2115.2z M2005.8,2635.1c-10.9,75.6,25.9,109.3,103.2,120.8c36,5.3,72.2,5.7,108.7,4.1
			c74.8-3.2,149.8-2.7,223.7-17.8c90.8-18.6,116.5-48.1,122.5-139.8c3.6-55.5,26.2-101.8,68.3-138.5c14.4-12.6,30.2-24.1,40.4-40.7
			c74-121.1,80.8-247.1,27.1-377.5c-6.8-16.4-13.2-14.8-24.8-4.1c-27,25-56.9,46.7-91.6,58.9c-21.7,7.7-25.9,19.9-24.3,40.8
			c4.6,60.4-6.1,118.3-33.5,172.6c-51.7,102.5-176.2,170.3-277.9,151.5c-133.4-24.7-223.7-154.8-200.6-291
			c3.7-21.5,1.8-33.3-22.3-38.1c-15.7-3.1-30.5-11.9-45.1-19.4c-37.1-19.3-40.8-19.1-71.4,10.4c-4.6,4.4-8.9,9.2-12.9,14.1
			c-70.8,85.1-65.9,201.9,13.1,280.4C1967.7,2480.9,2007.1,2548.1,2005.8,2635.1z M414.8,664.1c15.6,46.8,13.1,76.8-6.1,107.2
			c-10.7,16.9-34.3,24-40.2,39c-6.3,16.2,12.1,35.8,12.2,56.6c0.2,37.4-18.2,64.9-44.7,90c41,16.1,56.8,49.3,66.9,88.4
			c35.8-24.4,69.7-47.5,106.1-66.6c10.4-5.5,12.5-14.3,14-24.8c5.2-37.1,12.7-73.8,26.4-108.9c30.8-79,87.2-132.5,167.4-157.8
			c92.7-29.2,192.4,13.2,251,106c13.4,21.2,27,24.3,48.9,21.5c56.3-7.2,113.3-12.9,169.5-6.4c37,4.2,63.1-6.7,85.2-33.7
			c-50.4-46.7-54.7-58.6-41.6-132.1c2.4-13.7-6.3-12.9-13.2-15.4c-24.1-8.9-47.6-22.5-54.9-46.4c-10.5-34.2-25.9-45.2-63.1-42.7
			c-40,2.7-68-26.2-87.3-60.8C947.5,534.4,914,535.7,843,483c-9.6-7.1-12.1-1.4-17.4,3.4c-46,41.6-82.8,45.4-139,14.1
			c-6.4-3.5-9.6-8.7-16.6,1.9c-42.4,64.5-71.7,75.1-145.6,54.6C517.6,621.8,480.8,656.9,414.8,664.1z M1936.9,421.9
			c-29,7.4-58.4,13.7-87.1,22.3c-84,25.1-168.5,50-235.6,110.8c-54.2,49.1-107,99.5-157.9,152.1c-27.1,27.9-55.6,57.9-92.4,71.4
			c-90.6,33-138.3,102.2-163.6,188.8c-35.3,120.7,28,227.6,151.6,250.4c159.5,29.5,314.4,3.5,464.8-53.8
			c27.9-10.6,4.1-24.9,2.7-37.2c-1.5-13.6-8.4-17.9-22.7-10.3c-16.8,9-35,15.7-53.1,21.8c-133.3,44.6-284,18.6-360.4-86.3
			c-58.5-80.3-61.1-176.1,4.9-250.3c42.4-47.6,96.1-78,154.8-100.4c79.4-30.3,162-43.4,246.7-44.7c12.3-0.2,22.6-0.3,27.1-15.7
			C1840.6,559.6,1881.7,488.1,1936.9,421.9z M1498.5,775.8c-13.2,1.5-21.5,9.2-29.9,15.6c-40.7,30.7-79,63.6-84.2,119
			c-6.6,69.7,41,146.2,112.9,178.1c99.4,44.1,195.9,27.1,290.4-18.2c11.1-5.3,10.7-12.4,8.8-22.2c-20.8-109-15-218.1-0.4-327.2
			c0.8-6,9.1-15.8-1.9-18.4c-10.2-2.4-22.5-2.1-32.2,1.5c-9.4,3.5-1.1,12.7,0.4,19c12.5,54.4,12.3,107.7-21.2,155.1
			c-33.5,47.4-79.8,73.7-138.7,64c-52.8-8.7-78.9-48.5-94.6-96.2C1500.6,823.3,1500,799.8,1498.5,775.8z M999.8,1860.8
			c-13.1,112-38.5,214.1-74.2,321.7c10.6-8.8,14.8-12.1,18.8-15.6c69.9-62.8,151.5-97.1,245.5-101.9c59.5-3,111.8,5.1,131.6,73.6
			c4,13.9,16.5,21,31.5,23c28.8,3.9,53.4-8.5,69.7-38c22.1-40,26.7-83.2,19.1-127.6c-13.2-77.6-87.2-113.6-150.6-66.6
			c-70,51.8-147.9,43.3-221.9,0.4C1042.7,1914.4,1022.1,1892.6,999.8,1860.8z M1285.4,2695.7c5.3,9.7,14.5,9.9,21.9,12.2
			c203.7,64.3,408.8,68.9,615.7,15.2c29.2-7.6,48.1-16,37.7-51.1c-3-10.1-1.4-21.9,0-32.7c3-23-6.1-29-28.8-29
			c-164.6-0.3-328.7,6.4-491.9,28.2C1384.5,2645.9,1332.6,2664.5,1285.4,2695.7z M2219,831.1c-41.4-27.3-75.5-58.6-97.8-100.6
			c-28.7-53.9-8.8-102.5,48.9-121.6c79.4-26.3,160.8,5.5,201.4,78.7c2.2,3.9,3.7,8.3,8.9,8.8c57.1-66,124.6-103.4,215.6-77.9
			c-78.2-111.8-269.1-169.8-421.3-60.2c-176.2,126.9-168.7,359.7-88.6,466.9C2100.3,940.3,2144.4,876,2219,831.1z M2504.6,850.5
			c41.2,30.7,72.8,67,89.6,113.8c23.3,64.8-8,109.3-76.5,110.2c-69.3,0.9-128.8-22.1-176.1-74.1c-5.1-5.6-10.2-22.3-21.6-5.4
			c-37.6,55.6-88.4,95.8-148.9,125.3c109.9,95.2,291.7,81.9,403.8-27.5c132.9-129.6,122.3-330.3,56.6-421.3
			C2614.1,747.7,2570.2,805.9,2504.6,850.5z M2279.9,2336.5c66.9,0.4,132.6-15.8,194.7-47.4c11.2-5.7,19.6-12.6,23.1-25.1
			c11-38.9,18.7-78.1,16.8-118.8c-0.6-12.3-1.9-17.1-17.1-14c-125.9,25.7-253.1,35.4-381.4,24.6c-15.1-1.3-21.4,3.2-23.8,18
			c-6.1,36.8-3.8,72.7,7.4,108.3c4.2,13.3,11.4,21.4,24.8,26.3C2173.8,2326.3,2224.4,2336.6,2279.9,2336.5z M927.8,2698
			c-48-45.2-74.7-95.8-88.1-154.1c-13.2-57.5-1.5-114.3,4.3-171.9c-70.5,121.6-151.1,233.7-273.5,318.1
			C692.7,2702.7,807.1,2708.6,927.8,2698z M931.9,825.3c-39.4-76.6-127.6-118.1-201.6-94.5c-94.1,29.9-150.8,111.4-155,213.2
			C689.5,890.9,805.5,845.7,931.9,825.3z M1724.6,780.5c0.4-18.6-4.3-36.1-9.2-53.7c-4.1-14.8-10.2-19.9-27.1-17.1
			c-41.5,6.9-81.8,17.5-121.3,31.3c-9.6,3.4-17.5,7.1-19.4,19.7c-5.6,38.5-1.1,74.7,21.3,107.2c21.3,31,52.2,39,86.3,23.6
			C1703,869.9,1723.6,831.3,1724.6,780.5z M2132.4,1084c86.5-25.8,173.4-119.7,191.1-204.6c1.2-5.8,6.6-14.7-2.6-15.9
			c-19.2-2.6-37.3-12.6-58.3-3.3C2174.4,899.2,2122.9,986,2132.4,1084z M2224.2,646.3c-17.6-0.6-34.3,3.2-50.2,10.8
			c-20.1,9.7-26.5,24.5-15.9,44.5c34.7,65.7,89.2,103.9,162.8,114.5c7.7,1.1,14.6,2.4,18.5-9.5
			C2366.3,725.4,2309.6,645.9,2224.2,646.3z M2393.3,878.3c-2.5,1.1-11.9-7.9-20.1-1.5c-12.2,9.6-17.9,65.9-8.4,79
			c36.7,50.2,87.6,72.9,148.5,73.4c41.8,0.3,54-18.3,34.9-55.4C2517.4,914.1,2479.7,862.2,2393.3,878.3z M1715.1,1375.8
			c25.1,2.2,48.4-4.4,68.7-19.9c24.2-18.4,30.7-52.2,16.3-81.3c-14.8-29.9-40.3-41.5-71.8-33.7c-29.1,7.1-58.4,13.6-87.8,19.7
			c-7.4,1.5-12.9,2.3-16.2,11.1c-20.1,52.5-11.6,73.1,40,94.2C1680.3,1372.4,1696.8,1377.3,1715.1,1375.8z M2537.4,656.1
			c-11.6-0.4-25.8,2.9-39.5,8c-65.8,24.3-97.1,75.9-112.4,140.8c-4.9,20.7-0.5,27.9,22,26c81.1-7,129.5-56.6,164.5-123.8
			C2592,668.7,2583.5,655.7,2537.4,656.1z M1280.1,1368.8c55.8-0.5,100.2-30.2,120.4-78.1c5.2-12.3,6.8-18.6-10.8-20.3
			c-36.2-3.4-71.9-10.2-106.1-23.9c-17.3-6.9-35.5-28.6-49.7-20.2c-14.6,8.5-20.4,33-28.7,51.1c-16.8,36.3-2.9,68.9,34.5,83.6
			C1253.5,1366.5,1267.9,1367.8,1280.1,1368.8z M1507.7,1274.4c-35-9.5-63.5,4.8-73,49.7c-0.4,1.7-1.5,3.4-2.5,4.8
			c-4.4,6-3.5,11.6,0.6,17.6c18.4,27.1,33.9,56.3,56.8,80.3c23.6,24.8,38.7,21.9,52.3-10.2c11.4-26.9,19.6-54.8,25.2-83.6
			C1579.5,1269,1579.7,1269.1,1507.7,1274.4z M2525.5,480.9c-3.8,25.5,21.4,25.6,33.1,37.5c10.5,10.7,17.5,6.9,25.2-4.9
			c24-36.6,48.9-72.7,74.2-108.5c7.9-11.1,8.1-17.6-4.6-25.2c-29.2-17.3-60-30.6-91.5-43.1c-13.5-5.3-16,0.8-17.5,11.2
			C2538.1,392.3,2531.8,436.6,2525.5,480.9z M2050.4,617.7c2.3-1.8,5.1-3.6,7.6-5.8c39.8-35.2,40.3-46.1,3.9-85
			c-6.2-6.7-12.7-13.2-18.7-20.1c-64.4-73.6-65.3-73.4-119.7,11.5c-8,12.5-9.2,19.5,5.4,27.7c37.3,21,73.9,43.5,110.7,65.4
			C2042.8,613.3,2045.9,615.1,2050.4,617.7z M2775.3,492.9c-0.9-1.9-1.3-3.8-2.4-5.2c-17.8-23.1-37.7-44.3-60.1-63.1
			c-7.3-6.1-11.3-1.7-15.1,3.9c-27.7,40.4-56.7,80.1-82.5,121.7c-13.1,21.1,15,26.7,21.8,40.8c6.2,12.7,15,4.2,22-1.4
			c35.5-28.3,71-56.7,106.3-85.2C2769.3,501.3,2775.2,499.3,2775.3,492.9z M2302,381.8c0,5.5,0,11,0,16.5c0,56,0,56,55.2,56
			c3.7,0,7.4-0.4,11,0.2c14.9,2.2,19-4.9,18.6-18.7c-0.7-27.4-0.2-54.8-0.2-82.3c0-51.6,0-50.2-51.8-49.3
			c-25.1,0.4-37.2,6.5-33.1,33.9C2303.7,352.2,2302,367.1,2302,381.8z M2196.4,1353.8c10.3,4.1,12.6-6,15.2-14.9
			c7.7-27.1,15.2-54.3,22.6-81.5c11.7-43.1,11.1-42.1-28.4-61.3c-16-7.8-21.7-3.2-28.4,10.6c-10.3,21.3-22.4,41.7-34.1,62.2
			c-41.1,72.1-41.2,72.1,41.9,83.3C2187.8,1352.6,2190.5,1353,2196.4,1353.8z M2698.3,674.1c25.1-7.2,51.2-15,77.6-22.1
			c84.6-22.9,84.6-22.8,40.6-100c-1.8-3.2-3.7-6.3-5.4-9.5c-4.7-9-9.6-8.1-17-2.1c-37.5,30.5-75.4,60.6-113.4,90.4
			c-8.1,6.3-10.1,12.7-4,20.8C2682.8,659.5,2682,673.9,2698.3,674.1z M2105.7,359.6c-3.2,1.5-7.5,3.2-11.3,5.6
			c-20,12.7-39.7,25.8-59.9,38.2c-11.1,6.8-12.6,12.6-2.9,22.8c29.5,31.1,58.4,62.8,87.1,94.6c7.5,8.3,14.9,14.9,24.2,3.7
			c8.6-10.3,32.9-9.2,23.1-33c-16.7-40.4-32.4-81.1-49-121.5C2115.2,365.6,2114.8,358.4,2105.7,359.6z M2256.7,312.1
			c-29.6,3.2-55.3,12.2-81.6,19c-19.2,4.9-19.4,13.5-12.6,29.3c14.7,34.2,27.5,69.1,41.8,103.4c3,7.2,3.6,22.4,16.3,16
			c12.8-6.5,36-0.2,36-25.1C2256.8,407.5,2256.7,360.3,2256.7,312.1z M2801.9,808.9c-18.3,0-36.6-0.8-54.8,0.3
			c-8.4,0.5-23.4-6.5-23.1,10c0.3,13.8-8,31.4,13.1,39.9c40.6,16.3,80.8,33.4,120.7,51.2c13,5.8,18.2,4.6,18.8-10.3
			c0.8-22.8,1.9-45.6,3.8-68.4c1.3-15.9-3.2-24-20.9-22.9C2840.4,809.8,2821.1,808.9,2801.9,808.9z M2462.1,1227.8
			c3.1,31.7,6.6,63.4,9,95.2c1.1,14.8,8.9,16.3,20.2,13c25.3-7.5,50.5-15.4,75.8-22.9c12.6-3.7,15.7-9.5,8.4-21.6
			c-11.7-19.5-22.3-39.7-33.1-59.7c-25.4-46.7-25.7-46.5-72.4-21.2C2461.6,1215.1,2460.3,1220.1,2462.1,1227.8z M2077.5,1103.8
			c0.7-8-3.9-11.8-7.8-15.2c-6.9-5.9-11.9,1.3-16.6,4.4c-32.8,21.5-65.2,43.5-97.8,65.2c-57.6,38.5-57.3,38.1-5.8,88.2
			c11.7,11.4,17.2,10.9,26.4-2.2c30-42.4,61.1-84,91.7-125.9C2071.4,1113.3,2074.7,1108,2077.5,1103.8z M2056.5,1319.1
			c5.4,0.9,7.6-1.9,9.4-5.2c26.3-48,54.1-95.2,78-144.3c7.3-15-15.8-18.6-24-28.2c-7.6-9-12.2,0.2-16.3,5.9
			c-31.2,42.7-62.4,85.4-93.6,128.2c-3,4.2-9.5,9.2-4.4,14C2020.4,1303.4,2039.2,1311.1,2056.5,1319.1z M574.5,520
			c32.6-0.2,57.4-24.3,57.9-56.1c0.5-32.5-25.9-59.1-58.6-59.1c-32.8,0-58.2,26.5-57.4,59.7C517.2,496.8,541.7,520.3,574.5,520z
			 M477.1,557.2c-0.7-31.9-29.5-59.2-60.9-57.6c-31.1,1.6-56.7,28.7-56.1,59.5c0.6,31.9,29.1,58.8,60.8,57.4
			C452.1,615.1,477.8,587.9,477.1,557.2z M354,1053.3c0.4-33.2-25.6-59.8-58.2-59.4c-30.8,0.4-57.4,26.9-57.9,57.6
			c-0.5,32.1,26.1,58.5,58.9,58.6C328.8,1110.3,353.6,1085.7,354,1053.3z M277.6,926.1c32.3-0.3,57.3-24.9,57.5-56.6
			c0.2-31.4-26.8-57.9-59.8-58.5c-30-0.6-56.9,26.6-57.2,57.8C217.8,900.9,244.1,926.4,277.6,926.1z M981.4,415.9
			c-0.7-32.9-27.6-57.8-61-56.5c-31.5,1.2-56.8,27.8-56,59c0.8,30.7,27.8,57.1,58.5,57.2C954.9,475.7,982.1,448,981.4,415.9z
			 M322.3,656.1c-32-0.2-57.4,24.2-58.2,56c-0.9,34.2,25.4,60.5,60.2,60c30.2-0.4,56.3-28,55.8-59.2
			C379.7,681.5,354.1,656.3,322.3,656.1z M1108.6,493.8c32.2,0,57.3-24.5,57.8-56.5c0.5-33-25.4-59.8-57.8-59.7
			c-30.6,0.1-57.8,26.6-58.5,57.1C1049.4,467.1,1075.8,493.8,1108.6,493.8z M1249.7,470.7c-32.8,0.4-58.3,27.2-57.3,60.1
			c1,31.7,26.2,55.3,58.8,55.1c33.8-0.2,57.7-25.1,56.8-59.4C1307.1,494.5,1281.8,470.3,1249.7,470.7z M748.8,359.3
			c-32.3,0-57.4,24.3-58.2,56.3c-0.8,32.5,25.8,59.9,57.9,59.9c30.6,0,57.8-26.4,58.7-57C808.2,386.3,781.6,359.4,748.8,359.3z
			 M2796.3,761.5c8.2,0,16.4,0,24.6,0c62.4,0,62,0.1,48.7-62.9c-3.5-16.8-8.9-22.7-27.1-16.9c-36.3,11.5-73.6,20-110,31.1
			c-9.1,2.8-27.5-1.8-23.6,17.6c3.2,15.8,2.8,35.7,30.1,31.7C2757.7,759.2,2777.1,761.5,2796.3,761.5z M1325.5,624.6
			c-32.3-0.3-58.6,26.5-58.2,59.4c0.4,29.4,25,56.1,52.1,56.4c30.6,0.4,64.8-30.7,64.3-58.4C1383.1,651.5,1356,624.8,1325.5,624.6z
			 M1884.5,1149.6c2.8-1.5,6.1-3.1,9.1-5.1c45.4-30.3,90.6-60.8,136.1-90.8c10.7-7.1,8-13.8,3.3-22.9c-5.1-9.7-9.9-13.2-21.2-8.2
			c-37.4,16.3-75.3,31.6-113.1,47.1c-48.6,19.8-50.5,25.1-23.3,70.8C1877.4,1144,1877.7,1149.7,1884.5,1149.6z M2479.8,474.1
			c2.5-17,5-33.9,7.5-50.8c2.6-18,4.9-36.1,8-54c9.4-53.8,8.7-53.9-45.5-59.6c-16.8-1.8-17.8,4.8-17.6,17.7c0.5,31,0.2,62,0.2,93.1
			C2432.3,464.4,2432.4,464.4,2479.8,474.1z M2599.2,1133.9c-11.4,9.2-24.8,17.6-35.1,28.8c-8.9,9.7,3.5,18,7.4,26.1
			c9.1,18.7,19.9,36.6,30.1,54.9c27.2,49,28.8,49.3,72.5,13.9c0.7-0.6,1.5-1.1,2.2-1.6c7.9-4.6,8.8-9.7,3.2-17.5
			c-23.3-32.4-46.1-65.2-69.2-97.8C2607.8,1137.1,2605.7,1132.7,2599.2,1133.9z M2862.7,975.8c5.7-12.9-4.7-14.6-13.1-18.3
			c-35.1-15.2-70.8-29.2-105-46.3c-22.3-11.2-27.2-3.2-30.4,17.4c-1.9,12,3.8,16.6,11.2,22c25.1,18.3,50.3,36.4,75.3,54.7
			c47.8,35,47.8,35.1,60.4-23.8C2861.4,979.7,2862,978,2862.7,975.8z M2787.2,1146.5c12-20.4,21.5-36.9,31.4-53.2
			c5.2-8.5,4.3-14.8-4.1-20.9c-38.4-27.6-76.5-55.5-116.4-84.5c-5.3,17.4-23.3,29.7-6.6,48.5
			C2722.8,1071.9,2753.6,1107.9,2787.2,1146.5z M1828.8,914.4c0,37.3,0.1,37.6,36.2,32.9c36.9-4.8,73.8-10.5,110.7-15.6
			c8.9-1.2,19.2,0.4,17.7-14c-1.2-11-4-18-17.5-19.5c-37.9-4.3-75.6-10.8-113.5-15.4C1828.8,878.7,1828.7,879.3,1828.8,914.4z
			 M1833.5,804.6c-2.2,27.2-2.2,27.7,24.8,31.6c34.3,4.9,68.6,9.4,103,12.8c8.5,0.8,22.2,12.2,25.3-8.1c2.5-16-2.9-25-18.8-30.2
			c-31.1-10.2-61.8-21.9-92.5-33.2C1836.7,763.4,1836.7,763.3,1833.5,804.6z M2158.7,2367.8c66,75.6,200.4,69.9,274-10.3
			C2342,2386.2,2253.1,2389.3,2158.7,2367.8z M1995.9,755c2.6-14.7-4.2-17-9.5-20.2c-38-23-76.1-45.9-114.3-68.6
			c-3.7-2.2-11.3-5-11.9-4.1c-9.2,13.8-10.5,30.4-14,46c-2.7,11.7,8.6,11.9,15.7,14.5c37.3,14,75.2,26.6,111.8,42.1
			C1993.2,773,1994.8,762.3,1995.9,755z M2426.3,1329.6c-1.8-18.7-3.5-37.6-5.5-56.6c-1-9-3.6-18-3.5-26.9
			c0.1-16.6-6.3-21.3-23-19.1c-13.9,1.8-21.3,5.1-22.5,20.5c-1.4,18-5.2,35.8-8.3,53.7c-9.9,55.9-10,55.5,47.2,47.6
			C2423.3,1347,2428.8,1342.7,2426.3,1329.6z M2657.3,1068c-5.2,5.9-9.4,11.4-14.3,16.2c-8.6,8.4-5,15.7,0.8,23.8
			c22.1,31.1,43.6,62.6,65.9,93.5c4.7,6.6,9.8,23,20.9,8c8.2-11.2,36.5-16.2,16.2-39.5c-25.6-29.5-51.1-59.1-76.7-88.6
			C2666.5,1077.3,2662.6,1073.6,2657.3,1068z M1896.6,580.1c-12.9-0.3-11.8,11.8-16.2,18.6c-7.3,11.2-1.7,18,8.5,23.9
			c35.3,20.8,70.1,42.4,105.5,62.9c6.5,3.8,16,18.1,22.8-0.2c4.4-11.9,19.3-23.9-2.8-35.9c-35.9-19.5-70.5-41.6-105.6-62.6
			C1904.8,584.5,1900.8,582.4,1896.6,580.1z M2283.2,1355.7c21.2,5.6,28.1-5.3,29.6-27.5c1.8-26.2,8.4-52.1,12.2-78.3
			c1.2-8.5,9.7-20.8-8.6-22.3c-13-1.1-26.7-7.3-31.2,14.1c-6.4,30.2-14.2,60.4-24.3,89.6C2253.3,1353.5,2259,1360.3,2283.2,1355.7z
			 M1993.2,980.7c-0.7-1.5-1.5-3.1-2.2-4.6c-47.7,6.7-95.4,12.9-142.9,20.3c-24.9,3.9-7,21.1-8,32c-0.9,10.4,3.6,14.5,15.2,9.6
			C1901.1,1018.4,1947.2,999.7,1993.2,980.7z M1463,1666.8c2.3-14.4-4.5-18.8-18.3-18.9c-14.1-0.1-18.9,4.9-18.9,18.9
			c0,14.1,4.9,19,19,18.9C1458.6,1685.6,1465.3,1681.2,1463,1666.8z"/>
		<path class="st0" d="M2380.2,1474c146.4,0.3,260.3,113.5,259.1,257.4c-1.2,142.4-117.6,258.1-259.4,257.9
			c-142.9-0.2-260.5-118.7-259.1-261.1C2122.1,1584.5,2235.2,1473.7,2380.2,1474z M2380.2,1942c118.8-0.1,212.2-93.1,212.5-211.4
			c0.2-119.5-93.8-212.8-214.2-212.6c-117.8,0.1-211.8,94.9-211.3,213C2167.7,1849.3,2261.4,1942.1,2380.2,1942z"/>
		<path class="st0" d="M2399.7,2495.4c40.4-0.5,73.6,31.4,74.7,71.7c1.1,40.3-33.5,75.6-74,75.5c-40-0.1-72.7-33.1-72.9-73.4
			C2327.3,2528.4,2359.2,2495.9,2399.7,2495.4z"/>
		<path class="st0" d="M2137.1,2495.4c40.4-0.4,74.6,31.6,74.5,71.8c-0.2,42.2-27.6,72.2-73.9,74.9c-39.7,2.3-72.9-32.8-73.1-73
			C2064.5,2528.5,2096.7,2495.8,2137.1,2495.4z"/>
		<path class="st0" d="M2369.8,1804.7c-66.9,0.1-117.4-48.1-118.4-113.1c-1-65.4,52-118.4,118.2-118.2
			c64.8,0.2,116.9,52.1,116.9,116.6C2486.6,1754.9,2436,1804.6,2369.8,1804.7z M2369.2,1760.5c40.3,0,71.2-30.7,71-70.7
			c-0.2-39.8-31.7-71.2-71.4-71.1c-39.5,0.1-71.4,32.1-71.3,71.4C2297.6,1729.6,2329.2,1760.5,2369.2,1760.5z"/>
	</g>
</g>
</svg>
