<?xml version="1.0" encoding="utf-8"?>
<!-- Generator: Adobe Illustrator 23.0.0, SVG Export Plug-In . SVG Version: 6.00 Build 0)  -->
<svg version="1.0" xmlns="http://www.w3.org/2000/svg" xmlns:xlink="http://www.w3.org/1999/xlink" x="0px" y="0px"
	 viewBox="0 0 3000 3000" style="enable-background:new 0 0 3000 3000;" xml:space="preserve">
<style type="text/css">
	.st0{stroke:#000000;stroke-width:10;stroke-miterlimit:10;}
</style>
<g id="Layer_1">
</g>
<g id="Layer_2">
	<g>
		<path class="st0" d="M885.6,1596.6c-37.2-3.1-69.9-7-101.2-19.1c-9.1-3.5-12.3-7.3-12.9-17c-17.4-300.6-22.3-601.4-10.2-902.3
			c3.9-96,6.3-192.2,21.9-287.2c22.9-139.7,101.4-230,240.4-265.6c49-12.6,98.9-17.9,149.1-19.3c86.6-2.4,173.3-7.8,259.5,5.4
			c23,3.5,45.4,9.4,65.8,21.5c18.9,11.3,34.2,25.5,39.7,47.9c1.6,6.7,2.9,12.4,11.9,5.9c70.3-51.2,151.8-67.3,236-73.3
			c93.1-6.6,185.9-5.3,275.9,24.5c57.3,19,109.5,47.4,153.4,89.2c80.3,76.3,111.9,170.1,93.5,278.7c-7.4,43.7-10.2,87.3-12.1,131
			c-7.6,175.2-9.6,350.5,5.5,525.4c16.3,189.2-79.8,307.4-230,378.8c-8.8,4.2-17.8,8.1-29.4,13.4c26.2,13.3,49.7,26.2,71.2,42.4
			c80.6,60.7,119.3,145,136.2,241.5c9.1,52.1,12.3,104.9,11.6,157.6c-2.1,164,4.2,327.9,7.6,491.8c2.4,116-22,226.7-72.1,331.7
			c-42.4,89-115.5,129.5-210.3,139.6c-54.1,5.8-106.9,3.1-159.3-11.4c-14.1-3.9-28.8-0.9-43.1,0.4c-182.7,17-365.8,25.9-549.4,25.7
			c-68.4-0.1-136.8-1.3-204.8-6.4c-155.4-11.7-272.1-114-305.4-265.8c-25.7-116.9,4.5-223.8,63.2-324.7c16.6-28.5,17-28.4-6.5-50.6
			c-49.2-46.5-72.8-105.7-76.4-171.3c-8-145.5,19.4-284.9,83.5-416.3C810.9,1672.6,843.3,1633.4,885.6,1596.6z M1100,2904.4
			c13.1,1,22.2,2.1,31.4,2.3c91.7,1.9,183.4,1.5,275.1-1.3c117.4-3.6,234.6-11.3,351.6-20.4c20.6-1.6,35.8-8.7,50.1-24.3
			c89.2-97.1,157.4-206.6,196.5-332.9c38.9-125.4,47.1-254,29.8-383.8c-16.7-125-72.4-229.2-176.7-303.4
			c-103.2-73.4-221.1-91.1-344.2-84.5c-71.4,3.8-140.6,19.4-209.8,37.7c-54.6,14.4-92.9,44.6-120,92
			c-45.4,79.2-64.8,166.8-79.8,255.4c-8.5,50.4-18.7,99.9-47.2,143.7c-45.8,70.4-116,95.8-196,69.9c-11.1-3.6-16.4-1.7-22.5,8
			c-43,68-72.1,140.6-76.1,221.8c-6,122.3,54.6,283.5,248.9,311.7c11.4,1.7,20.5-1.1,29.9-7.4c101.5-68.1,167-161.2,195.2-280.4
			c5.9-24.9,5.6-23.7,31.4-20.6c17.3,2.1,19.1,9.2,15.7,24.3c-16.8,74.7-48.2,142.4-95,202.9
			C1163.4,2847.4,1134.2,2875.5,1100,2904.4z M1244,960.5c7,2.7,12.8,4.8,18.5,7.2c163.1,66.2,221.6,265.1,119.6,408.3
			c-24.8,34.8-18,27.7-45.7,4.2c-8-6.7-8.8-11.3-1.3-19.1c11.4-11.8,19.7-26,26.7-40.9c27-57.2,32.6-115.7,10.9-179.8
			c-1.8,6-2.8,8.3-3.2,10.7c-15.9,104.1-77.4,165.4-178.4,189.1c-10.9,2.6-13.5,9-15.8,17.8c-12.8,48.7-35.5,92.4-67.7,131.1
			c-2.8,3.4-8.6,5.7-5.9,13c9.2-1.5,18.4-3,27.7-4.4c120.3-17.8,241.6-19.1,362.7-21.4c14.8-0.3,24.3-5,33-16.5
			c77.5-102.2,110.7-216.7,96.2-344.5c-0.5-4.2-3.4-10.9,1-12.1c12.6-3.5,25.9-7.4,38.5-6.4c9.1,0.7,6.7,13.3,7.5,20.6
			c10.4,104-8.6,202.5-57.6,294.9c-11.1,20.9-24.1,40.7-37,62.2c4.1,0.6,7,1.4,9.9,1.5c59,2.2,118,4,177,6.6
			c12.4,0.5,21.2-2.9,29.5-12.2c84.5-94.5,120.5-204,102.1-330c-2.1-14.7-0.3-22.6,15.5-23.4c2.5-0.1,5.2-0.2,7.4-1.1
			c14.6-6.1,20.4-2.1,22.9,14.4c19,125.3-11.6,237.6-86.3,338.9c-3.9,5.3-10.1,9.3-11.1,18.2c20.6,2.8,41.9,2.7,61.1,9
			c38.5,12.8,67.8,0.1,97.3-23.7c49.2-39.7,88.9-85,102.1-148.9c11.9-57.4,7.7-115.2,0.2-172.4c-2.6-20.2,4.5-23.1,20.9-23.6
			c24.2-0.8,24.1-1.5,25.9,22.8c2,27.5,5.1,55,6.1,82.6c2.8,82.8-13.1,159.9-70.6,223.7c-1.2,1.4-4.4,3.2-1.2,5.8
			c119.1-63.5,184.7-166.2,173.7-305.5c-13.2-166.8-14-333.8-7.4-500.9c0.2-5.2,2-10.8-3.8-20.2c-1.8,4.3-2.3,6.9-3.8,8.9
			c-69.4,90.5-162.1,143.9-271.5,171.1c-92.7,23-186.5,24.5-280.7,13.7c-81.8-9.4-160.9-27.5-228.2-79.4c-0.7-0.5-2.2,0.1-3.4,0.2
			c-0.4,0.5-1,0.9-1.1,1.4c-0.4,3.7-0.9,7.5-1.1,11.2c-3.3,72.5-39.4,122.8-104.7,152.4c-23.4,10.6-47.8,18.8-71.6,28.6
			C1267.3,949,1254.7,951.3,1244,960.5z M968.8,1530.9c19.8-5.6,37-14.8,52.6-26.2c99.3-72.9,130.5-173.9,117.7-291.8
			c-4-36.7-13.5-72.8-18.7-109.4c-12.3-86.9,20.3-147.7,99.7-184.5c34.1-15.8,70.2-27.1,104.5-42.4
			c79.6-35.5,112.8-127.4,69.7-203.5c-67.4-119.1-55.5-297.6,47.1-405.1c16.8-17.6,34.2-35.2,45-57.8c15.8-33.1,9.3-49.7-24.6-63.1
			c-26.6-10.5-54.6-14.2-82.9-15.3c-106.1-4-212.4-6.7-317.4,12.7c-72.7,13.4-138.1,42-183,105.1c-39,54.8-50.5,118.3-57.4,182.9
			c-8,75-10.1,150.3-13.5,225.6c-5.7,128.1-7.1,256.2-6.5,384.4c0,9.8,1.5,14.5,13.1,14.5c37.2-0.2,68.1,15.5,94.1,41.1
			c37.8,37.3,55.6,84.4,63.3,135.8c8.7,58.3,3.1,116.5-1.6,174.7C966.8,1449,962.1,1489.5,968.8,1530.9z M1814.8,790.1
			c33,0.7,84.8-4.6,135.6-16.7c113.5-26.9,209-81.7,271.8-183.3c67.3-108.8,59.3-240.6-19.5-329.5
			c-50.8-57.3-116.2-91.2-189.8-108.5c-85.3-20-171.8-19.8-258.3-9.3c-63.4,7.7-124.2,22.9-177.8,60.8
			c-49,34.6-88.4,78.3-122.4,126.6c-36.5,51.9-57.8,109.8-52.2,174.8c3.6,41.5,19.5,80.2,28.8,120.4c9.4,40.8,33.8,69.1,65.3,93.3
			c26.7,20.4,56.7,34.5,88.9,43.9C1653.8,782.8,1724.2,789.2,1814.8,790.1z M1960.9,2896.6c11.8-1.8,19.7-3.2,27.7-4.1
			c79.7-9.3,138.2-46.4,171.4-122.4c43.3-98.8,66.2-201.5,62.9-309.1c-5-165.2-8.8-330.4-7.6-495.6c0.4-52.7-3.9-105.4-14.6-157.3
			c-25.9-126.2-98.4-210-223.1-247.4c-55.7-16.7-112.7-24.6-170.4-28.9c-95.2-7.1-190.7-9.7-286.2-9c-135,1-270.1,2.1-403.9,24
			c-166.7,27.3-276.3,120-325.5,282.6c-21,69.3-35.1,140-41.3,212c-4.6,53.4-2.9,106.7,15.8,158.1c16.7,45.9,33.4,55.6,81.1,45.1
			c7.9-1.7,15.7-4.4,23.2-7.5c51.3-21.5,76.4-64.7,93.3-114.4c17.9-52.7,23.2-107.9,30.1-162.6c15.3-120.9,72.1-215,175.2-280.8
			c71.5-45.6,150.3-69.3,234.1-75.8c156.4-12.2,308,14.5,455.4,64.4c157,53.2,256.9,161,296.2,323.5c15.7,65.1,22.2,131,23.8,197.8
			c5.6,241.5-59.7,462.6-189.5,665.3C1980.7,2867.8,1971.7,2880.6,1960.9,2896.6z M843,2293.9c61.4,44.9,138.4,28,176.9-36.8
			c22.7-38.1,31.2-80.2,38.5-123.2c15.3-90.6,35.6-179.7,79.7-261.7c35.2-65.4,87.1-105.7,160.3-125.1
			c119.6-31.7,239.5-49.8,362.6-30.6c191.4,30,326.4,131.6,393.9,316.1c40.9,111.5,38.2,227.2,27.6,342.7
			c-14.9,162.4-76.7,307-174.1,436.9c-18.4,24.5-38.6,47.6-58,71.5c7.6,6.7,17.1,5.2,25.3,7.7c18.5,5.5,31.6,0.9,44-16.6
			c59.7-83.9,108.4-173.5,143.6-270.1c69.1-189.9,90.1-384.4,50.5-583.5c-29.1-146.6-111.9-249.6-253.3-303.2
			c-105.4-39.9-215.1-59.7-326.8-68.9c-88.4-7.2-176.1-2.5-259.8,29.9c-114.1,44.2-198.4,118-225.6,242.8
			c-10.8,49.6-14.7,100.6-24.4,150.4C1003.6,2177.2,964.1,2267.8,843,2293.9z M930.3,1318.4c0.3-62.7-5.2-111-29.8-155.2
			c-17.2-31-41.7-53.2-77.6-60c-13.9-2.6-22-0.1-21.3,17.8c2.6,70.9,3,141.8,5.5,212.7c2.2,64,6.3,127.8,9.1,191.8
			c0.5,11.4,4.7,16,16,18.3c26.2,5.2,52.3,5.3,78.7,3.2c10.2-0.9,12.3-5.1,11-14.6c-3.6-26.2-3.5-52.5-1.5-78.9
			C924.1,1404,927.6,1354.6,930.3,1318.4z M1188.9,1268.5c0.1-1.7,0,1.5-0.2,4.6c-1.3,22.2-1.3,22.2,19.2,14.8
			c71.9-25.9,113.6-80.2,116-157c1.4-45.8-5.9-89.3-56.6-110.2c-19.1-7.9-38.1-15.5-57.9-21.7c-18.1-5.6-26.5,1.2-33.6,16.3
			c-16.3,35-12.4,71-6.1,107.1C1177.9,1169.3,1189.9,1215.6,1188.9,1268.5z"/>
		<path class="st0" d="M1685.3,2092.8c-0.1,59.3-47.1,106.4-106.4,106.5c-59.4,0.1-106.5-46.8-106.8-106.1
			c-0.3-59.7,48.2-108.5,107.4-107.8C1638.3,1986,1685.3,2033.7,1685.3,2092.8z M1639,2092.4c-0.1-34.2-26.8-60.6-61-60.3
			c-33.4,0.3-59.4,26.3-59.7,59.6c-0.2,33.7,26.8,61.5,59.9,61.7C1611.5,2153.7,1639.1,2125.9,1639,2092.4z"/>
		<path class="st0" d="M1327.1,2119.8c59.2,0.2,106.7,47.3,107,106.3c0.3,59-49.4,108.3-108.2,107.4
			c-59.1-0.9-105.8-48.5-105.6-107.7C1220.4,2166.5,1267.7,2119.6,1327.1,2119.8z M1387.4,2227.2c0.4-34.1-26.2-61.4-60.1-61.7
			c-33.2-0.2-61.3,27.7-61.3,60.9c0,33,26.5,59.7,59.6,60.3C1359.9,2287.4,1387,2261.2,1387.4,2227.2z"/>
		<path class="st0" d="M1797.1,2090c-58.9,0-105.7-47.7-105.4-107.3c0.3-58.9,48.2-106.2,107.2-105.9
			c58.9,0.3,106.7,48.1,106.8,106.7C1905.8,2042.9,1857.7,2090,1797.1,2090z M1799.3,1923.3c-33.4-0.6-61.6,26.9-61.8,60.1
			c-0.2,32.3,26.9,60.2,59.3,61c33.8,0.9,61.6-25.7,62.2-59.5C1859.6,1950.7,1833.6,1923.9,1799.3,1923.3z"/>
		<path class="st0" d="M1840.8,364.4c57,3.3,100.8,14.8,140.6,39.6c76.8,47.7,88.9,141.9,26.7,207.7
			c-78.2,82.6-228.3,72.3-288.1-20.9c-32.8-51.1-35.6-105.4-4.5-158.5C1745.6,380.8,1794.2,363.5,1840.8,364.4z M1855.2,411.1
			c-51.5-0.9-87,13.2-105.3,54.5c-18,40.6-10.5,79.3,18.2,112.4c50.4,58.2,158.6,57.1,209.1-1.1c39.3-45.4,31.1-102.1-19.8-133.1
			C1923.6,423.1,1886.6,411.9,1855.2,411.1z"/>
	</g>
</g>
</svg>
