<?xml version="1.0" encoding="utf-8"?>
<!-- Generator: Adobe Illustrator 23.0.0, SVG Export Plug-In . SVG Version: 6.00 Build 0)  -->
<svg version="1.0" xmlns="http://www.w3.org/2000/svg" xmlns:xlink="http://www.w3.org/1999/xlink" x="0px" y="0px"
	 viewBox="0 0 3000 3000" style="enable-background:new 0 0 3000 3000;" xml:space="preserve">
<style type="text/css">
	.st0{stroke:#000000;stroke-width:10;stroke-miterlimit:10;}
</style>
<g id="Layer_1">
</g>
<g id="Layer_2">
	<g>
		<path class="st0" d="M611.8,1258.7c-29.3-4.9-58.2-7.8-86.2-14.6c-103.3-25.1-156-95.6-149.7-200.7c1-17.2-9.1-20.6-19.2-27.3
			c-66.4-43.6-109.4-100.7-105.9-184.4c0.2-5.2-0.8-11.1,1.3-15.4c22.3-44.3,5.1-84.9-6.6-128.4c-18.4-68.5,7.5-132.7,34.6-194.8
			c4.9-11.3,14.9-21.8,27.3-24.1c28.4-5.3,29.5-25.9,32.2-48.2c8.1-67.8,29.6-129,87.4-172c35-26,72.9-39.7,116.2-28.6
			c19.1,4.9,26-2.4,34.9-18.2c30.8-54.4,72-99.6,132.2-121.6c50.7-18.5,100-9.7,139.7,26.1c22.6,20.4,32.7,14.5,50.5-3.9
			c48.5-50,108.1-72.4,177.9-60c31.3,5.6,60,19.3,79.8,44.7c13.2,16.9,24.1,15.6,41.6,7.7c89.4-40.4,178.3-22.5,228.1,43.2
			c16.1,21.2,16.2,54.2,34.6,67.7c18.5,13.5,49.9,6.6,74.4,16.4c65.8,26.3,109.8,87.5,109.5,159.1c-0.1,23.7,4.5,39.3,27.7,47.8
			c7.4,2.7,15.5,8.5,19.4,15.1c19.6,33,39.9,33.2,68,8.3c11.6-10.2,17.4-14.3,12.1-30.9c-38.9-122.7,66.7-306.1,249.6-264.7
			c9.6,2.2,16.9,3.2,24.6-6c63.9-75.6,146.8-75.4,233.7-56.6c26.5,5.7,52,15.7,74.2,31.1c17.4,12.1,32,10.7,50.8,3.4
			c131.1-51,260.5,19.3,290.5,156.8c2.5,11.4-0.4,24.8,17.1,29c97.8,23.6,141.3,110.6,119.5,223.2c-4.3,22.1-2.3,36.3,13.7,54.8
			c49.2,56.9,27.3,189.4-35.6,232.8c-8.9,6.2-18.2,8.8-16.6,25.1c12.1,129.3-64.8,211.8-195.3,211.6c-5.1,0-10.2,0-16.6,0
			c147.6,312.8,96.3,598.2-116.6,864.3c79.9,11.8,143.4,43.8,157.2,130.3c10.3,64.7-25.2,105.9-79.8,133.9
			c91.5,121.8,98.6,255.7,61.3,396.3c-4.6,17.5,1.5,99.4,10.1,115.8c54,103.8-4.5,227.5-123.6,257.8
			c-122.3,31.2-238.5,3.1-351.9-42.3c-68.8-27.5-130.8-66.7-186.9-115.1c-9.5-8.1-16.8-12.3-29.6-4.2
			c-60.1,38.2-127.1,54.9-197.5,58.9c-115.2,6.6-231.8,12.8-341.1-29.9c-51-20-81.7-17-119.6,23.2c-49.2,52.1-118.5,67.2-187.9,70.9
			c-181,9.5-361.2-0.7-538.5-38.5c-164.1-35-257.6-174.6-239.8-345.1c8.6-82.9,35.6-159.6,72.9-233c10.5-20.6,8.5-27.1-15.1-31.5
			c-45.3-8.5-86.6-28.2-123-57c-91.1-72-110.8-192.2-33.8-276.9c80.1-88.3,120.7-190.9,146.9-303.4c17.4-74.8,41.5-147.6,91.8-208.8
			c34.4-41.8,77.3-69.8,130.3-78.4c25.4-4.1,35.4-13.3,35.2-38.8C603.9,1293.4,609,1276,611.8,1258.7z M1740.1,729.3
			c-34.6-10.1-51.5-0.7-64.6,30.5c-45.8,109.3-111.3,208-172.6,308.8c-56.6,93-139.7,120.4-243,99.6
			c-75.8-15.3-113.9-67.9-101.5-144.3c13.1-80.3,51-150.5,91.9-219.4c6.4-10.8,16.9-20,17.9-34.2c-4-0.6-6.1-1.5-7.9-1.1
			C1069,811,899.1,890.7,773.9,1047.5c-63.1,79-106,167.6-119,269.5c-2.6,20.6,3.5,26,22.1,25c25.9-1.3,51.8-1.5,77.7-2.5
			c192-7.5,347.7,102.1,403.5,285.9c7,22.9,12.4,24.1,31.9,12.1c77.5-47.9,161.9-72.6,253.7-72c18.1,0.1,22.1,4.6,21.2,22.4
			c-1.1,22-7.7,29.1-31.2,29.5c-77.1,1.2-149.2,22.5-215.1,63c-22.2,13.7-43.4,28.9-43.7,59.5c-1.2,104-40.7,193.6-104.7,273.4
			c-11,13.7-8.1,20.4,2,32.5c61.1,72.4,140.4,115.6,229,142.7c157.7,48.3,318.8,47.4,480.6,28.4c46.6-5.5,93.3-12.3,140.3-28.3
			c-25.2-20.2-48.9-37-70-56.6c-203-188.3-216.9-508-29.1-728.8c163.8-192.6,377.8-259.9,624.2-238.2c42.6,3.7,84.7,12.9,130.7,20.2
			c-7.5-18.8-12.9-34.4-19.9-49.3c-89.7-192.5-249.7-298-445-360.4c-18.4-5.9-23.8,3.8-31.5,15.2c-44.7,66.1-88.3,133-134.9,197.7
			c-41.4,57.4-92.5,103.8-164.3,120.7c-74.4,17.5-137.2-14.4-156.6-80.6c-11.5-39.1-6-78,5.7-116.3
			C1652.7,843.6,1688.7,783.8,1740.1,729.3z M924.2,2872.7c41.5,0,83,0.9,124.5-0.2c107.5-2.9,198-39.7,250.3-139.3
			c87.1-165.5,79-328.2-22.1-486.1c-8.5-13.3-20.9-19.1-34.6-24.4c-78.6-30.3-148.9-73.2-203.7-138.2c-13.4-15.9-20.7-13.2-33.5-0.3
			c-32.2,32.5-68.7,60-107.4,84.5c-130.5,82.8-273.2,122.4-427.8,120c-13.2-0.2-28.7-6.5-38.1,11.8
			c-49.6,96.9-90.5,195.7-80.1,308.3c10.4,113.4,77.8,194.5,186.9,221C665.3,2860.8,794.9,2866.3,924.2,2872.7z M261.9,2171.3
			c24.1,21.8,47,33.4,71.5,41.8c76.2,26.1,154.8,29.3,233.5,18.9c216.3-28.5,391.5-126.3,506.3-316.1
			c122-201.5,13-461.4-214.6-514.3c-83.7-19.4-169.3-10.3-254.1-5.5c-68.1,3.9-115.6,40.4-149.5,97.7c-25,42.4-39.7,88.7-53,135.6
			c-16.3,57.7-31.6,115.8-50,172.8c-20.5,63.7-65.2,112.3-107,162.5c-27.3,32.8-46.6,68.6-38.2,113.7c8.2,43.6,13.4,47.8,57.9,39
			c175.1-34.3,305-129.9,385.1-289.8c14.1-28.2,26.9-9.5,40.8-6.1c21.9,5.3,11.8,18.1,6.2,29.8c-37.7,79.2-92.1,145-160.6,199.4
			C456.8,2113.9,366.6,2153.1,261.9,2171.3z M2615,1426.3c-1.2-65.4-4.6-110.7-13.4-155.7c-3.5-18.2-11.6-25.6-29-30.2
			c-133.9-35.9-267.9-39.5-402.1-2.6c-244.9,67.3-416.1,267.5-425.3,507.2c-6.9,179.8,70.8,317.6,227.2,409.3
			c18.3,10.7,35.2,12.1,55.8,4.4c102.7-38.2,198.8-88.3,283.5-158.2C2498.4,1846.5,2610.2,1653.8,2615,1426.3z M1344.8,2255.4
			c6.2,13.6,10,21.9,13.9,30.2c65.7,137.9,67.1,278,12.8,419.4c-23.2,60.5-24.9,63.2,39.6,79.4c132.5,33.3,267.5,39,400.3,6.4
			c119.7-29.4,195.5-111.5,224.3-230.7c27.9-115.4-9.3-214.3-91.5-297.9c-13.6-13.8-26.5-17.1-46.7-12.8
			c-126.4,26.8-254.1,37.1-383.4,28.7C1459.3,2274.5,1405.3,2265.9,1344.8,2255.4z M1095.2,761.8c111.4-38.3,225.3-62.9,342.2-73.5
			c20.9-1.9,12.2-16,9.8-25.1c-18.9-69.1-56-127.6-112-171.6c-142.5-111.8-303.9-136.6-475.8-90.7
			c-165.1,44.1-274.2,170.6-292.5,329.9c-12.1,105.4,50.7,227.7,142.8,278.1c9.3,5.1,17.4,13.8,28.8-0.2
			c78.7-96.8,176.6-168.4,290.3-218.9c11.5-5.1,15.3-11.4,13.8-23.7c-4.6-36-7.4-72.2-12.3-108.1c-6.1-44.6-40.1-74-85.1-75.4
			c-51.4-1.6-96.1,27.4-114.7,82.9c-10.5,31.1-28,19.9-44.7,15c-25-7.4-7.5-23.5-3.9-34.9c6.6-20.9,18.7-39.3,33.2-55.7
			c45.1-51.1,101-71.8,167.6-53.4c63.9,17.7,92.5,65.1,101.3,127.9C1088.3,696.1,1085.7,728.7,1095.2,761.8z M2339.7,2674.4
			c27.7,0.3,59.6-0.8,91.5-6.1c72.1-12,117.6-51.2,132.7-124.3c15-72.2,14.7-143.8-5.4-215c-11.5-40.6-29.7-77.1-60.5-106.6
			c-8.3-8-16-13.6-29.7-11.9c-145.9,18.3-268.3,80.4-364,193.1c-8.8,10.4-15.5,19.8-12.8,35.8c9.6,56.1,5.8,111.8-14.8,165
			c-8.1,21.1,0.1,26.7,17.3,32.1C2172.7,2660.9,2252.6,2676.2,2339.7,2674.4z M2283.3,427.2c-151.6,1.2-255.5,129-275.3,247.2
			c-2.8,16.7,2.2,23.7,19.7,27c90.1,16.9,176.3,45.8,257.8,88.1c8.6,4.4,15.7,7.6,25.6,1c55.6-37.3,54.2-149.7-2.6-185.6
			c-22.8-14.4-45-13.2-60.3,8.6c-15.5,22.1-39.2,16.7-51.6,9.3c-13.5-8.1,1.3-27.2,8.6-40.1c7.3-13,19.2-21.7,32.4-28.2
			c45.4-22.2,97.6-7.6,132.1,36.9c48.3,62.3,47.4,149.3-4.5,216.1c-12.2,15.7-12,22.1,5,32.3c19.4,11.7,38.2,25.4,54.5,41.1
			c15.2,14.7,25.8,11.1,39.2-1c66.5-60.7,98.3-136.4,88.3-225.4C2537.6,523.5,2421.2,427.2,2283.3,427.2z M1562.8,730.4
			c-65.3,2.4-130.2,9.4-194.9,18.9c-13.4,2-22.8,6.6-30.5,17.7c-47.3,68.4-90.1,139.1-116.7,218.5c-8.3,24.8-13.8,49.8-11,76.2
			c2.1,20.1,11.7,35,29.2,44.9c61.6,34.8,155.5,19,197.7-37.6c67.6-90.7,122.4-189.5,173.7-290.2c27.1-53.2,26.2-53.7-31.8-49.6
			C1573.1,729.6,1568,730,1562.8,730.4z M2394.2,2922.3c35.9-0.9,76.1-4.6,113.3-22.6c75.5-36.3,98.7-125.9,50.4-191.4
			c-13.5-18.3-26.3-26.8-48.3-11.2c-11.4,8.1-26.5,12-40.5,15c-114.7,25.1-228.4,16.5-341.2-12.4c-26.9-6.9-57-27-79.2-20.1
			c-22.1,6.8-34.7,41.3-54.2,60.9c-15,15.1-10.6,22.1,3.4,33.3C2112.7,2865.6,2242.9,2915.1,2394.2,2922.3z M2071.5,2360
			c6.5-6.1,9.7-8.7,12.5-11.7c97.9-104.3,217.7-166.1,359.5-186c34.7-4.9,69.9-10.2,99.6-31.7c29.6-21.4,38.4-50.9,25.2-84.8
			c-25-64.3-127.9-89.9-178.7-43.6c-95.4,86.9-204.2,151.5-324.3,197.7c-25.6,9.9-51.8,18.5-80.9,28.8
			C2023.3,2267.3,2049.9,2310,2071.5,2360z M1858.4,731c-14.3,0.9-30.9-8.3-44.5,2.8c-79.1,64.6-133,144.9-141.2,248.8
			c-4.5,57.5,35,88.3,91.8,77.3c44.4-8.6,79.9-32.9,109.8-65.8c60.1-66.2,102.3-145.2,154.4-217.1c15.3-21.2,3.2-22.7-12.7-25.7
			C1964.1,741.5,1911.9,734.4,1858.4,731z M2020.5,260.4c0.4-55.9-0.6-56.9-42-57.5c-71.8-1-129.1,42.1-151.9,114.1
			c-21.2,67.1-4.1,122.8,48,155.6c43.9,27.7,93.9,31.6,143.3,33.1c22.1,0.7,28.3-27.7,45.1-39.2c4.2-2.9,7.2-7.8,11.5-10.3
			c17.8-10.4,16.9-20.4,4.7-36.5C2040.6,368.8,2022,310.3,2020.5,260.4z M2327.7,324.2c-0.5,45.4,4.6,52.2,47,64.6
			c14.8,4.4,30.5,8.1,43.6,15.8c17.4,10.3,28.3,7.1,42.5-6.5c45.5-43.7,97.7-78.3,161.1-87.5c28-4.1,25.3-15.7,19.5-34.3
			c-24.2-77.3-96.7-122.2-179-110.7C2385.7,176.3,2328.7,243.5,2327.7,324.2z M888.2,321.9c-5.9-65.2-13.5-125.9-63.6-170.4
			c-29.3-26-62.9-37.2-100.3-21.1c-46.6,20-78.5,56.4-102.5,100c-4.7,8.6-9.6,19.3,0.8,28.4c42,36.8,65.6,84.7,81.3,137
			c5,16.6,12.9,11,22.4,5.3c44.7-26.8,92.5-46.3,143.5-57.2C884.8,340.7,891.6,333.8,888.2,321.9z M2199.3,135.4
			c-11.2,1.6-28.9,2.6-45.9,6.6c-48.3,11.4-75.2,39.1-79.7,86.9c-6,63.7,15.3,119.9,54.1,170c7.6,9.9,15.3,10.8,26.7,5.5
			c34.9-16.4,71.4-27.1,110.3-27.9c11.2-0.2,16.8-2.9,14.5-16.5c-10.7-63.7,5.3-121,44.9-171.5c9.7-12.4,8.7-17.9-5.3-24.9
			C2283.1,146,2245.6,136.6,2199.3,135.4z M1411,251.6c-1-43.8-13-86.7-58.6-111.2c-48.3-25.9-96.1-15.3-142.8,6.7
			c-8.4,4-13.4,9.6-11.2,19.4c12.5,56.9,0.1,113.2-4.7,169.6c-1,12.3-0.5,21.3,14.1,25.9c39.6,12.5,76.8,30.5,111.6,53.1
			c7.5,4.8,14.3,8.5,21.3-0.7C1376.7,367.1,1409.4,318.4,1411,251.6z M1151.4,231.9c0,0.1,0-4,0-8.1c0.9-72.8-26.3-116.3-81.4-130
			c-53-13.2-130.8,22.9-157.6,72.2c-4.1,7.6-3,13.4-0.1,20.2c16.7,39.6,25.1,80.9,26.2,123.8c0.3,10.7,1.4,21.1,17.1,19.7
			c57.1-5.2,113.8-0.7,170,10c11.4,2.2,16.7-0.7,17.5-13.8C1144.8,296,1148.3,266.1,1151.4,231.9z M546.3,950
			c-54.6,0.1-98.1,30.5-114.4,78.1c-17.2,49.9-0.7,103.4,41.9,135.8c40.7,30.9,88.5,37.5,137.5,40.7c14.7,0.9,19.3-7.3,23.8-19
			c14-36.8,31.1-72.2,52.7-105.2c8.8-13.4,8-20.5-6.9-28.6c-35.8-19.6-66.3-46.2-90.3-79.3C578.3,955.7,564.4,946.5,546.3,950z
			 M515,269.8c-23.7-1.5-44.5,8.9-63.1,24.9c-44.1,38-56.1,89.6-62.1,144.2c-2.1,18.7,3.5,24.6,22.8,26.1
			c58.3,4.5,114.2,18.1,162.5,53.6c4.5,3.3,9.8,11.1,15.7,4.8c24.1-25.5,47.6-51.6,70.8-77.9c2-2.3,1.4-8.1,0.2-11.8
			c-14.2-45.5-28.5-91.2-63.4-126C576.2,285.2,550.4,268.4,515,269.8z M2611.2,1010.9c26-0.1,51-6.5,73.7-19.7
			c50.1-29,74.7-97.7,54.6-151.4c-18.4-49.1-73.6-81.3-124.1-72.6c-12.6,2.2-23.2,4.7-28.3,19.6c-18.5,54-49.3,99.9-94,136.1
			c-5.8,4.7-11,8.5-4.5,17.4C2519.2,981.8,2555.1,1013.5,2611.2,1010.9z M2786.3,486.9c0.2-71.2-29.1-111-95-124.5
			c-79.7-16.3-139,24.7-195.1,73.1c-13,11.2-0.4,15.5,5.7,20.7c26.2,22.4,48.4,48.2,65.1,78.3c7,12.7,14.2,17.5,29.2,14.9
			c45.1-7.8,90.7-5,136.1-3.7c52.1,1.5,53.5,1,54.1-52.5C2786.3,491,2786.3,488.9,2786.3,486.9z M449.4,727.6
			c-102.2,0-153,46.3-146.7,125.8c4.3,54.1,37.8,89.8,80.8,118.3c12.2,8.1,18.5,1.3,25.2-7.8c27.9-37.9,66.1-58.9,112.2-64.1
			c20.2-2.3,21-10.2,14.4-26.2c-10.7-25.9-13.6-54-20.2-81c-4.9-19.8,12.7-47.3-12.2-58.3C484.1,726,460.3,728.7,449.4,727.6z
			 M1596.2,388.5c0.2-64.5-46.6-119.1-107.3-124.6c-12-1.1-25.7-4.7-27.9,14.7c-7.1,61.9-36.8,113.6-74.8,161.2
			c-8.2,10.3-11.3,17.7,0.6,28.2c22,19.1,40.3,41.7,56.3,66.1c6.9,10.4,14.8,12,26.4,9.3C1539.6,527.4,1595.9,458.9,1596.2,388.5z
			 M291.1,648.3c1.1,17,3.4,34.3,10.1,50.9c3.6,8.9,7.5,14.6,18,7.8c56.1-35.9,117.8-35.7,180.4-25.9c17.7,2.8,23.1-4,27.2-19.9
			c5.6-22,12.6-44.1,23.1-64.1c10.8-20.7,4.9-31.1-13.1-42.2c-59.2-36.3-125.5-39.8-191.8-43.2c-12.7-0.7-21.6,6-25.8,18.3
			C306.1,568.3,293.7,606.7,291.1,648.3z M1753.2,602.7c-0.1,0-0.2,0-0.3,0c0,14.5,1.7,29.2-0.4,43.3c-3.5,23.9,6.3,29.9,28.8,29.5
			c50.7-0.9,101.2,3.5,151.3,10.6c15.9,2.3,22.9-1.3,24.6-17.5c3.2-31.1,12.2-61,26.3-88.6c10.2-20,3.4-24.2-15.6-25.9
			c-48-4.3-93.4-16.9-133.1-45.7c-37.5-27.2-77.3-8.8-81.4,38.4C1751.8,565.3,1753.2,584.1,1753.2,602.7z M1600.2,675.2
			c112.4-0.3,117.1-6.3,96.7-120.9c-0.4-2-0.2-4.2-0.7-6.2c-7.9-29.8-22.5-55.5-47.7-74.1c-7.8-5.8-14.9-10.5-21.6,3.3
			c-28,56.8-74.8,91.9-133.5,112.7c-6.3,2.2-14.9,3.2-11.3,14.3c7.3,22.6,14.6,45.2,20.9,68.1c3.4,12.2,12.1,9.1,19.8,8.6
			C1548.6,679.3,1574.4,677.1,1600.2,675.2z M2668.2,596.4c-3.2,0-15.7-0.6-28.1,0.1c-42.6,2.5-42.1,2.6-36.4,45.5
			c2.2,16.3,2.9,33.2,1.7,49.6c-1.2,17.3,3.3,22.8,21.9,22.5c51.1-0.7,96.3,17.1,129.2,56.8c17.3,20.9,28.9,13.9,40.8-1.7
			c23.4-30.6,26.9-66.9,23.7-103.6c-3.5-39.4-20.9-57.2-60-63.8C2733.3,597.3,2705.4,594.3,2668.2,596.4z"/>
		<path class="st0" d="M879.1,2593.7c-67.3,0.3-121.2-49.5-120.6-111.5c0.6-58.5,53.6-110.1,112.8-109.7
			c74,0.5,126.7,46.8,126.4,110.9C997.4,2544.4,944.7,2593.4,879.1,2593.7z M876.8,2424.7c-38.3,0.4-66.3,26-65.4,59.6
			c0.9,32.8,31.4,58.8,68,58.1c37-0.7,66-27.6,65.3-60.7C944.1,2448.2,915.6,2424.3,876.8,2424.7z"/>
		<path class="st0" d="M2113.8,1640.8c67.1-0.2,122.8,52.8,124.1,117.9c1.3,67.1-66.8,131-140.1,131.2c-63,0.2-114-51.9-113.9-119.3
			C1984.1,1702.8,2037.2,1640.2,2113.8,1640.8z M2036.5,1768.7c-0.2,40,24,67.4,60.1,68.2c46,0.9,88.1-36.2,88.1-77.7
			c0-36.1-33.3-67.8-71.1-67.5C2071.3,1692,2036.7,1726.5,2036.5,1768.7z"/>
		<path class="st0" d="M2323.9,1385.3c67,0.1,121.7,54,121.2,119.4c-0.6,69.4-66.5,130.5-140,129.9
			c-63.8-0.5-111.3-51.8-111.6-120.4C2193.3,1441.3,2250.1,1385.2,2323.9,1385.3z M2244.8,1512.5c-0.6,40.3,26.3,70.6,62.6,70.3
			c42.9-0.3,86.2-39.4,86.5-78.1c0.3-35.9-33.3-68.1-70.8-68C2280.4,1436.9,2245.4,1470.7,2244.8,1512.5z"/>
	</g>
</g>
</svg>
