<?xml version="1.0" encoding="utf-8"?>
<!-- Generator: Adobe Illustrator 23.0.0, SVG Export Plug-In . SVG Version: 6.00 Build 0)  -->
<svg version="1.0" xmlns="http://www.w3.org/2000/svg" xmlns:xlink="http://www.w3.org/1999/xlink" x="0px" y="0px"
	 viewBox="0 0 3000 3000" style="enable-background:new 0 0 3000 3000;" xml:space="preserve">
<style type="text/css">
	.st0{stroke:#000000;stroke-width:10;stroke-miterlimit:10;}
</style>
<g id="Layer_1">
</g>
<g id="Layer_2">
	<g>
		<path class="st0" d="M1574.5,892.3c90.2-0.8,202.3,1,313.8,13.7c151.3,17.1,296.2,53.2,419.6,149.2
			c45.8,35.6,84.1,78.7,121.9,122.3c12.6,14.5,26.1,28.3,38.9,42.7c56.6,64.2,129.7,91.4,213.1,98.6c56,4.9,112.4,10.5,164.9,33.4
			c60.2,26.3,107.4,65.1,119.9,133.5c11.1,60.4-13.5,110.4-51.7,154.8c-25.8,30-57,53.6-92.5,71.3c-39.3,19.7-79.7,37.1-120.8,52.8
			c-65.7,25.1-122.6,63.3-164.6,119.8c-93.6,126-221.8,189.1-373.6,210.6c-205.6,29.1-411.9,50.4-619.6,54.9
			c-202.9,4.4-402-18-594-88c-108.1-39.4-204.7-99.3-298.7-164.5c-58.8-40.8-119.4-78.9-191.2-93.4c-38.5-7.8-77.7-9.8-116.9-10.1
			c-35.8-0.2-71.3-2.8-106.8-8.5c-123.1-19.7-188.6-120.9-153-240.8c31.3-105.2,104.8-164.9,211.3-184.6
			c39.1-7.3,79-10.5,118.3-16.8c50.2-8,92.3-30,122.1-72.8c9.8-14.1,21.5-26.9,30.8-41.3c91.5-141.2,226.9-219.9,382.6-270.1
			c117.3-37.8,238.2-54.2,360.7-61C1390.3,893.4,1471.4,891.4,1574.5,892.3z M1198.7,2076.3c37.7,4.9,71.5,10.1,105.5,13.6
			c122,12.5,244.3,11.1,366.6,5.2c18.6-0.9,22.6-7,23.2-23.9c2.5-70.7,18-138.9,46.3-203.7c61.4-140.5,163.2-233,317.6-258.6
			c110.9-18.4,220.3-3.9,328.4,23c69.3,17.3,134.6,43.3,188.9,91.8c10.7,9.5,19.6,26.4,31.1,28.2c11.6,1.8,25.5-10.9,38.4-17.2
			c51.8-25.5,107.2-42.3,158.2-69.7c42.8-23,78-54,101-97c29.4-55.2,15.2-110.8-35.9-146.6c-25.6-17.9-53.9-30.2-84.3-37.1
			c-44.2-10-89.3-14.1-134.2-19.3c-76.4-8.8-142.8-37.6-198.3-91.2c-26.2-25.4-50.7-52.2-74.1-80.3
			c-44.7-53.7-94.9-101.2-155.5-136.9c-105.9-62.3-223-87-343.1-101.5c-14.9-1.8-16.4,7.2-19.6,17.4
			c-110.3,357.3-286.7,678.3-531.1,961.5C1286.9,1981.4,1243.8,2026.7,1198.7,2076.3z M1367.8,943.2c0,0.7,0,1.4,0,2
			c-30.9,2-61.7,4-92.6,5.9c-120.6,7.4-238.9,27.7-352.3,70.1c-125.9,47-238,113.6-311,232.3c-10.4,16.9-23.8,32-36,47.7
			c-35.5,45.4-80.4,75.7-137.6,88c-44.4,9.6-89.7,12.9-134.4,20.1c-89,14.3-155.5,74.7-175.2,161.2
			c-18.7,82.3,27.5,151.1,110.5,164.1c36.7,5.8,73.6,9.4,110.8,8.8c103.2-1.6,198.4,24.1,284.4,82.1c37,25,75.1,48.4,111.1,74.7
			c16.1,11.7,25.5,9.9,39.5-2.8c219.5-199.2,399.1-429.4,537.4-691.6c42.3-80.2,80.1-162.5,113.6-246.8c4.9-12.3,4.4-17-10.6-16.1
			C1406.3,944.1,1387,943.2,1367.8,943.2z M992.7,1892.3c0-1.3,0-2.5,0-3.8c-19.2-1.2-38.6-1-57.5-3.9
			c-40.6-6.2-75.7,0.7-101.3,35.9c-2.4,3.3-5.7,6-9.1,8.3c-14,9.6-9.7,14.7,3.2,21.8c92.7,50.8,191.2,85.7,293.9,109.4
			c10.2,2.4,18,1.3,25.7-7c18.2-19.6,36.9-38.8,56.3-57.2c9.3-8.9,9-14.2-0.7-22.6c-27.5-23.8-54.3-48.4-81.1-72.9
			c-5.9-5.4-12.2-8.3-20.3-8.2C1065.4,1892.4,1029,1892.3,992.7,1892.3z M1235.4,1842.2c-0.7,2.9-1.4,5.8-2.1,8.6
			c28.8,0,57.7-0.9,86.5,0.3c20.1,0.9,25.2-15.6,32.4-27.1c6.2-9.8-8.2-13.2-14.3-18.2c-33.7-28.2-68.2-55.5-101.7-83.9
			c-12.2-10.4-25.1-15-41-15.6c-41.9-1.5-83.7-4.2-125.5-6.7c-18.6-1.1-41.9,12-48.8,32.5c-4.9,14.5,13.6,17.2,20,26.5
			c3.4,5,9.2,8.2,13.4,12.7C1103,1822.5,1154.9,1866.1,1235.4,1842.2z M1459.1,1670.7c0.6-1.6,1.2-3.1,1.8-4.7
			c-42.5-36.5-84.9-73-127.4-109.4c-5.1-4.4-11.7-3.7-17.7-4.1c-41.7-2.5-83.7-3.3-125.2-7.6c-25.7-2.7-34.2,15.6-42.2,31.4
			c-7.2,14.1,13.1,15.4,19.1,24.2c2.6,3.8,7.5,5.9,10.9,9.4c35.9,37.2,77.6,59.4,131.1,52.7c2-0.3,4.1,0.4,6.1,0.5
			C1363.4,1665.6,1411.2,1668.1,1459.1,1670.7z M1543.8,1513.3c0.6-1.5,1.3-3,1.9-4.5c-37.5-33.8-75.5-67.2-112.4-101.8
			c-15.1-14.1-29.9-24.3-52-23.5c-18.3,0.7-37.3-1.3-55.1-5.5c-30.4-7.2-50.7,0.8-63.6,30.3c-4.5,10.4-6.4,15.8,3.4,23.7
			c25,20.3,48.9,41.9,73.4,62.9c5.2,4.4,10.3,8.7,17.9,9C1419.5,1506.9,1481.6,1510.1,1543.8,1513.3z M1614.6,1353.3
			c0.5-1.4,1-2.7,1.6-4.1c-50.1-45.8-100.2-91.6-150.2-137.5c-4.3-3.9-9-5.9-14.5-6.9c-58.9-11.6-68.7-6.9-95,45.7
			c-0.3,0.6-0.5,1.3-0.9,1.8c-5.6,7.3-4.7,13.2,2.5,19.4c22.3,19.4,44.1,39.2,66.1,59c4.7,4.3,10,7.1,16.5,7.6
			C1498.5,1343.3,1556.5,1348.3,1614.6,1353.3z M1518.6,943.4c27.8,26.3,52.3,49.1,76.4,72.4c6.5,6.3,13.6,4.9,21.1,4.2
			c48.4-5,96.9-10.1,145.3-14.8c36.1-3.5,35.5-3.5,46.3-37.7c4.3-13.6,1.7-18.2-12.5-19.1C1704.8,942.8,1614.4,942,1518.6,943.4z
			 M1684.1,1168.1c-34.6-32.3-64.8-60.2-94.6-88.5c-7.2-6.9-15.4-4.9-23.3-4.2c-32.8,2.8-65.8,5-98.4,10c-12.5,1.9-31.4-6-36.8,14
			c-4.8,17.8,13.5,21.8,22.2,30.8c10.6,11,19.9,25.6,37.6,26.6C1553.2,1160.6,1615.6,1164.1,1684.1,1168.1z M2202,1878.3
			c-2.6,1.5-5.1,2.5-7.2,4.1c-28,20.8-55.8,41.9-83.9,62.6c-7.7,5.7-4.5,9.1,0.9,13.8c21.9,18.7,43.6,37.5,65.1,56.6
			c6.2,5.5,10.8,6.4,17.4,0.4c25-22.4,50.3-44.4,75.8-66.2c6.3-5.4,8.5-9.2,0.6-15.5c-20.8-16.7-41.1-34.1-61.6-51.1
			C2207.1,1881.2,2204.7,1880,2202,1878.3z M2304.7,1736.1c-2.7-3.1-4.6-5.9-7.1-8c-19-16.7-38.4-33.1-57.1-50.1
			c-6.3-5.7-10.5-3.1-15.9,0.9c-28.6,21.2-57.2,42.4-86.2,63c-8.1,5.8-9.6,9.4-1,16.2c18.8,14.8,37.2,30.2,55.3,45.9
			c7.5,6.5,13.3,7.1,21.3,0.8c27.1-20.9,54.6-41.2,81.9-61.7C2298.6,1741,2301.1,1738.9,2304.7,1736.1z M2161.4,1843.7
			c-23.6-19.7-45.5-37.3-66.6-55.8c-7.4-6.5-12.5-5.1-19.4,0.1c-25.3,18.9-50.7,37.6-76.4,56c-8.7,6.2-8.1,9.9,0,16.5
			c19.1,15.6,37.5,32.3,55.8,48.9c5.9,5.3,10.2,7,17.4,1.4C2101,1888.6,2130.3,1867,2161.4,1843.7z M1876.1,1754
			c22.6,19.5,44.6,38,66.1,57.3c6,5.4,9.9,4.7,15.8,0.3c25.8-19.3,51.9-38.3,78-57.2c6-4.3,9-7.7,1.3-13.8
			c-19.4-15.3-38.3-31.1-57.2-47.1c-5.5-4.7-10.7-5.5-16.9-2.3C1931.4,1707.5,1901.9,1727.2,1876.1,1754z M2244.1,1845.5
			c23.6,19.7,46.1,38.5,68.6,57.3c5.9,4.9,9.9,1.2,14.2-2.6c24.8-21.8,49.2-43.9,74.6-64.9c9.1-7.5,6.3-11.3-0.6-17.1
			c-15.2-12.9-30.2-26-45-39.4c-6.9-6.3-12.6-8.3-21.2-1.6C2305.6,1800,2275.7,1821.9,2244.1,1845.5z M2021.9,1947.9
			c-22.8-19.9-43.4-38-64.1-56c-5.6-4.9-10.6-10.2-19.2-3.5c-24,18.3-48.4,36-72.9,53.7c-7.4,5.3-7.7,9.5-1,15.9
			c18.5,17.4,36.7,35.2,54.5,53.3c6.2,6.3,10.8,6,17.4,0.9C1964.4,1990.9,1992.5,1970.1,2021.9,1947.9z M1755.4,2089
			c27.2-2.4,55.4-3.2,83-8c17.6-3.1,33.9-16.1,42.3-30.1c5.8-9.7-14.2-18.3-21.9-27.9c-5.6-6.9-12.5-12.6-18.9-18.9
			c-24.8-24.5-23.7-22.7-53.4-4.7c-30.4,18.4-46.9,41.7-42.9,78C1744.4,2085.2,1744.4,2091.4,1755.4,2089z M1547.1,1211
			c-0.7,1.3-1.4,2.7-2.1,4c37.8,34.7,75.6,69.4,113.2,104.3c7.1,6.6,10.3,3.2,13.4-3.7c12.4-27.5,25-55,37.6-82.5
			c3.9-8.5,2-12.6-7.9-13.1C1649.9,1217.1,1598.5,1214,1547.1,1211z M2137.3,2047.8c-24-20.8-45.1-38.1-65-56.7
			c-8.3-7.7-14-7.4-22.5-0.8c-24.3,18.9-49.3,36.9-73.8,55.6c-3.8,2.9-11.7,4.6-8.4,11.7c3,6.4,8.8,10.2,16.8,9.3
			C2034,2061.7,2083.8,2057.6,2137.3,2047.8z M1905.8,1849.5c-1.9-2.8-2.7-4.8-4.2-6.1c-16-14-32.6-27.4-48-41.9
			c-8.6-8.1-13.6-8.2-20.3,2.2c-12.6,19.6-25.2,39.2-35.6,60.1c-8,16.2,2.5,40.8,19.7,46.8c4.2,1.5,6.5-0.7,9-2.6
			C1852.9,1888.5,1879.3,1869,1905.8,1849.5z M1650.8,1067.3c32.1,30,60.7,56.9,91.5,85.7c12.5-33.6,24-64.6,36.4-98.2
			C1735.5,1059.1,1695.6,1063,1650.8,1067.3z M2509.1,1738c-1-0.9-2.7-2.9-4.8-4.2c-20.4-12.6-41.1-27.8-64.4-30.1
			c-15.9-1.6-27.7,18-42.2,26.7c-10.4,6.2-8.8,11.3-0.4,18.1c14.9,12.1,29.1,24.9,43.6,37.4c2.1,1.8,4,4.1,6.4,5
			C2451.7,1792.5,2508.9,1744.6,2509.1,1738z M1494.2,1393.6c31.5,28.5,58.8,53.2,86.1,78c4.6,4.2,8.2,4.5,11.3-1.3
			c11.3-20.9,22.5-41.8,34.7-64.5C1582.3,1401.7,1541.4,1398,1494.2,1393.6z M2173.7,1653.2c-52-3-97.2,1.1-145.2,14.1
			c18.7,15.6,34.6,28.5,50,42c7.1,6.2,12.3,5.2,19.5-0.4C2121.3,1691,2145.3,1674,2173.7,1653.2z M2359.8,1939.1
			c31.2,31.2,22.2,26.1,49.8,5.4c20.4-15.2,37.5-34.2,54.6-53c6.1-6.7,8.5-12-0.3-18.1c-7.3-5.1-12.1-15.6-23.7-4.9
			C2413.9,1892.5,2386.7,1915.6,2359.8,1939.1z M1412.8,1557.5c27.8,24,50.6,43.6,73.3,63.3c5.8,5,10.2,8.1,15.5-1.2
			c8.8-15.4,18.7-30.2,28.4-45.1c4.8-7.3,3.8-11.2-5.5-11.7C1489.3,1561.2,1454.1,1559.5,1412.8,1557.5z M1052.2,1837.7
			c-22.8-20.6-42-38.1-61.3-55.5c-3.8-3.5-7.7-9.3-13.6-3.2c-16.8,17.2-33.4,34.6-52.8,54.7C968.8,1835,1007.9,1840.1,1052.2,1837.7
			z M1313.2,1713.9c-0.5,1.5-0.9,3-1.4,4.4c22.2,18.3,44.4,36.6,66.8,54.7c3.8,3,8.1,9.1,13.3,1.6c12.2-17.6,27.7-33.1,37.9-54.5
			C1389.3,1717.9,1351.2,1715.9,1313.2,1713.9z M1285.8,1901.1c-29.4-1.5-57.7-2.9-87.2-4.4c38.3,54.7,50.7,55.7,86.8,8.5
			C1285.6,1904.7,1285.4,1903.9,1285.8,1901.1z M1533.7,1027.6c-19.3-18.1-34.5-32.5-51.2-48.2c-7.2,19.5-16.6,35-20.3,55.1
			C1485.6,1032.3,1507,1030.2,1533.7,1027.6z M2561.6,1782.7c-1.6-1.9-3.4-4.8-5.9-7c-5.5-4.9-8.9,0.6-12.1,3.3
			c-15.7,13.3-31.1,27-46.7,40.5c-5.4,4.6-8.7,8.6-1.4,14.6c6.3,5.2,10.7,8.4,18.1,0c12.7-14.4,27.1-27.2,40.8-40.7
			C2557.2,1790.6,2561.5,1788.8,2561.6,1782.7z M2310.1,1668.6c40,41.9,37.1,40.7,63.6,13C2353.7,1675.4,2334,1670.5,2310.1,1668.6z
			 M1092.3,1649.3c19.1,3.4,35.9,3.8,55.2,2.7C1112,1617.4,1112,1617.4,1092.3,1649.3z M1208.5,1495.2c10,0.6,18.2,1.1,26.4,1.7
			c8.4,0.6,16.7,1.2,27.8,1.9C1219.9,1455.5,1226.9,1461.7,1208.5,1495.2z M2277.7,2011.1c22.9-2.5,44.1-11.3,58.4-23.6
			c-8-2.3-10.4-17.5-21.7-8.9C2302.2,1987.9,2291.3,1999,2277.7,2011.1z"/>
		<path class="st0" d="M1792.9,1592.1c0.1-32,25.1-57.7,57-58.3c31.9-0.6,59.1,26.3,59.2,58.6c0,32.3-26.9,58.6-59.4,58
			C1817.6,1649.7,1792.9,1624.3,1792.9,1592.1z"/>
		<path class="st0" d="M2181,1451.2c32,0,58.7,27.3,58.2,59.5c-0.5,31.5-26.6,57.1-58.3,57c-32.9,0-58.3-26-57.8-59.2
			C2123.5,1476.7,2149.2,1451.2,2181,1451.2z"/>
		<path class="st0" d="M1739.9,1645.2c32.1,0.3,58.5,27.7,57.8,60c-0.7,31.5-27,56.9-58.7,56.6c-32.9-0.3-58-26.4-57.4-59.6
			C1682.2,1670.3,1708.2,1644.9,1739.9,1645.2z"/>
		<path class="st0" d="M1662.3,1792.7c33.5-0.3,58.9,24.8,58.7,57.9c-0.2,31.8-25.6,57.3-57.4,57.8c-31.9,0.5-59.4-26.8-59.1-58.7
			C1604.8,1817.9,1630.1,1793,1662.3,1792.7z"/>
		<path class="st0" d="M1390.2,1933.1c33.6-0.1,58.9,25.1,58.5,58.1c-0.3,31.7-26.1,57.5-57.7,57.6c-32.2,0.1-59.3-26.9-58.9-58.9
			C1332.6,1958,1357.9,1933.1,1390.2,1933.1z"/>
		<path class="st0" d="M1895.7,1066.1c33-0.2,59,25.7,58.7,58.4c-0.3,31.6-26.2,57.4-57.8,57.7c-32.7,0.3-58.6-25.8-58.4-58.8
			C1838.5,1091.1,1863.4,1066.3,1895.7,1066.1z"/>
		<path class="st0" d="M1776.4,1276.3c0.2-32.4,24.9-57.2,57.3-57.5c33-0.2,59.1,25.6,58.8,58.3c-0.2,31.6-26.1,57.5-57.6,57.8
			C1802.2,1335.2,1776.3,1309.3,1776.4,1276.3z"/>
		<path class="st0" d="M2494.1,1515.9c32.7-0.3,58.9,25.7,58.7,58.4c-0.2,31.5-26.1,57.3-57.8,57.7c-32.6,0.4-58.4-25.6-58.3-58.8
			C2436.7,1541.1,2461.7,1516.2,2494.1,1515.9z"/>
		<path class="st0" d="M1581.8,1664.4c33-0.3,59.2,25.4,59.1,58c-0.1,31.6-25.8,57.6-57.4,58.1c-32.7,0.5-58.8-25.4-58.7-58.4
			C1524.8,1689.8,1549.5,1664.8,1581.8,1664.4z"/>
		<path class="st0" d="M1557.7,1994.2c0.2-32.4,24.9-57.2,57.3-57.5c33-0.2,59.1,25.6,58.9,58.3c-0.2,31.5-26.1,57.5-57.6,57.8
			C1583.5,2053.2,1557.6,2027.2,1557.7,1994.2z"/>
		<path class="st0" d="M2339.2,1592.6c-31.7-0.3-57.7-26.2-58-57.7c-0.3-31.8,27.3-59.3,59.1-59c32.4,0.4,58.3,27.5,57.5,60.1
			C2397,1568.1,2371.2,1592.9,2339.2,1592.6z"/>
		<path class="st0" d="M1491.9,1913.5c-31.7-0.2-57.2-26.3-56.6-58c0.6-31.1,27.2-57.5,58.3-57.6c32.3-0.2,58.7,26.8,58.2,59.4
			C1551.4,1890.6,1526.8,1913.7,1491.9,1913.5z"/>
		<path class="st0" d="M1674.9,1628.5c-32.4,0.1-57.7-24.4-58-56.3c-0.4-31.8,27.1-59.3,58.9-59.1c31.5,0.3,57.3,26.2,57.7,57.9
			C1733.8,1604.4,1709.4,1628.4,1674.9,1628.5z"/>
		<path class="st0" d="M2005.9,1588.5c-32.5,0.2-59.4-26.5-58.9-58.8c0.4-31.2,26.9-57.6,58-57.9c32.2-0.3,58.8,26.5,58.6,59.1
			C2063.4,1562.9,2037.9,1588.3,2005.9,1588.5z"/>
		<path class="st0" d="M1764.5,1480.2c-31.8-0.1-57.3-26-56.8-57.7c0.4-31.2,26.8-57.5,58-57.8c32.3-0.3,58.8,26.5,58.5,59.1
			C1823.9,1457.1,1799.4,1480.3,1764.5,1480.2z"/>
		<path class="st0" d="M1269.8,1054.1c33.7-0.3,59.2,24.4,59.3,57.4c0.1,31.8-25.3,57.8-56.9,58.4c-32.2,0.6-59.5-26.1-59.6-58.1
			C1212.4,1080,1237.8,1054.4,1269.8,1054.1z"/>
		<path class="st0" d="M1136.9,1249.2c0.2-32,25.6-57.6,57.4-57.9c32-0.3,59,26.8,58.8,59c-0.2,31.6-26,57.2-57.8,57.5
			C1162.3,1308.1,1136.6,1282.3,1136.9,1249.2z"/>
		<path class="st0" d="M1046.1,1373.4c0.1-32,25.2-57.7,57-58.3c31.9-0.6,59.1,26.5,59.1,58.6c0,32.3-27,58.6-59.5,57.9
			C1070.7,1431,1046,1405.6,1046.1,1373.4z"/>
		<path class="st0" d="M900.9,1565.4c33-0.3,59.2,25.4,59.1,58c-0.1,31.5-25.9,57.6-57.4,58.1c-32.7,0.5-58.8-25.5-58.7-58.4
			C843.9,1590.7,868.6,1565.7,900.9,1565.4z"/>
		<path class="st0" d="M1010.2,1558.4c-32.2,0.1-57.6-24.8-57.7-56.7c-0.1-31.9,27.5-59.2,59.3-58.7c31.6,0.5,57.2,26.5,57.3,58.3
			C1069.3,1534.6,1044.8,1558.3,1010.2,1558.4z"/>
		<path class="st0" d="M774.7,1793.7c-32.1,0-57.4-25.2-57.3-57.1c0.1-31.1,26.3-57.7,57.5-58.3c32.2-0.7,59,25.9,59,58.6
			C833.8,1770.2,809.5,1793.7,774.7,1793.7z"/>
	</g>
</g>
</svg>
