<?xml version="1.0" encoding="utf-8"?>
<!-- Generator: Adobe Illustrator 23.0.0, SVG Export Plug-In . SVG Version: 6.00 Build 0)  -->
<svg version="1.0" xmlns="http://www.w3.org/2000/svg" xmlns:xlink="http://www.w3.org/1999/xlink" x="0px" y="0px"
	 viewBox="0 0 3000 3000" style="enable-background:new 0 0 3000 3000;" xml:space="preserve">
<style type="text/css">
	.st0{stroke:#000000;stroke-width:10;stroke-miterlimit:10;}
</style>
<g id="Layer_1">
</g>
<g id="Layer_2">
	<g>
		<path class="st0" d="M1954.3,950.1c93-91.1,202.9-127.3,328.8-117.5c91.7,7.2,173.7,41.1,243.1,100.4
			c38.7,33.1,67.2,76.3,91,121.9c16.1,30.9,33.2,61.4,47.9,93c31.6,67.9,79.8,121.6,138.3,167.2c29.6,23.1,57.6,48.4,80.9,77.9
			c38.3,48.5,60.1,102.9,47.6,165.8c-9.7,48.9-40.5,81-86.6,99c-39.5,15.4-81.7,18.8-122.9,26.6c-49.5,9.3-87.7,33-111.2,78.4
			c-9.8,18.9-21,37.2-29.6,56.6c-44.7,100.8-122.5,160.5-228,187.3c-63.7,16.2-128.7,22.1-194,23.2c-254.1,4.2-508.3,8.2-762.4,10.7
			c-189.5,1.9-378.9,8.2-568.4,4.9c-55-1-109.5-7-163.3-19.7c-96.7-22.8-173.3-75-232.2-154.5c-16.5-22.3-35.3-42.9-52.8-64.5
			c-32.3-39.7-74.7-60.4-124.6-67.6c-16.6-2.4-33.1-5.6-49.5-9.3c-119.3-26.4-142.6-123.4-134.4-200.2
			c6.6-61.5,34.4-112.8,74.9-158.5c29.3-33.1,62.3-62,96.7-89.4c71.2-56.8,131.8-123.7,187.2-195.7c26-33.8,55-65.4,86.5-94.2
			c83.6-76.2,185.9-106.5,295.3-118.3c129.4-13.9,259.6-10.5,389.5-15.3c117.6-4.4,235.3-5.6,353-8.1c33.1-0.7,66,2.4,98.2,9.5
			c64.8,14.4,110.9,53.5,140,112.5c13.1,26.6,24.1,54.2,36.1,81.4c13.9,31.3,27.4,62.9,52.8,87.3c33,31.7,79.3,38.9,122.1,19.1
			c40.4-18.6,62.5-53.2,60.7-95.1c-2-45.9-32.1-87.7-73.7-102.1C1979.9,959,1968.4,955,1954.3,950.1z M2045.5,936.1
			c7.7,7,13.6,12.1,19.1,17.5c60.4,60.1,64.3,157.1,8.7,215.4c-60,62.9-157.8,66.4-221.9,7.9c-31.5-28.7-48.9-66.3-65.2-104.4
			c-13.2-30.9-25.4-62.2-42.1-91.4c-21.7-37.8-53-62.9-95.5-73.4c-32.9-8.1-66.3-10.9-100-10.2c-91.2,2.1-182.3,4-273.5,7.1
			c-149.9,5.1-300.1,2.5-449.7,15.5c-132.9,11.6-248.9,57.8-332.8,166.9c-78,101.4-166.5,192.2-266.2,272.7
			c-49.6,40-90.5,89.2-103.5,155.1c-14.2,72,1,157,110,171.6c3.8,0.5,7.6,1.7,11.4,2.1c81,8.8,145.5,46.2,194.3,111.3
			c11.6,15.5,24.5,30.1,35.7,45.9C546.4,1948,651.9,1984,770.2,1995c9.2,0.8,13.1-2.3,13.3-11.3c0.6-18.8,4.6-37.2,9.2-55.4
			c35.4-138.9,116-235.5,259.6-268.7c98.3-22.7,192.9-7.3,275.7,51.1c90.7,63.9,120.5,156.3,106.6,264.1c-1.7,13.6-0.6,18,14.2,17.7
			c102.2-2.1,204.3-3.6,306.5-4.5c12.6-0.1,16.7-4.2,17.7-15.9c3.1-34.8,8.9-69.2,17-103.2c38.5-163.3,122.3-296.3,263.7-390
			c44.7-29.6,90.6-57.4,135.4-86.9c61.7-40.6,106.5-95.3,134.2-163.9c43.7-108.1,37.4-218.8,17.1-330.2c-1.5-8.5-7.8-9.7-14.1-10.7
			c-19.2-2.9-38.3-6.5-57.6-7.7C2189.2,874.6,2115.1,891.8,2045.5,936.1z M2537.1,1017.6c-0.5,41.2-1,76.7-5.8,111.9
			c-16.5,122.2-68.3,225.1-164.1,304.8c-53.4,44.5-114.1,78.1-171.3,116.9c-149.3,101.5-234.1,244.3-271.1,418.4
			c-3.3,15.4,1.2,16.9,14.5,16.6c71.1-1.5,142.3-1.6,213.4-3.2c52.4-1.2,104.6-5.4,156.2-14.9c108.9-20,192.3-72.6,234.7-179.7
			c7.6-19.1,18.9-36.8,29.4-54.6c31.7-54.2,79.2-84.9,140.7-96.3c37.4-6.9,75.7-10,111.8-23c45.9-16.5,69.2-55.5,61.6-103.7
			c-4.4-27.9-14.5-53.6-31.1-76.5c-21-29-46.7-53.7-74.9-75.5c-66.9-51.8-122.4-112.9-159.3-189.9c-13.1-27.3-27-54.3-41-81.2
			C2569.1,1064.8,2556.3,1042.5,2537.1,1017.6z M1104.8,1999.1c0-1.8,0-3.6,0-5.4c86.6,0,173.3-0.3,259.9,0.3
			c14.5,0.1,20.2-4.6,22.3-19.2c3.1-21.3,4.2-42.6,2.8-63.8c-4.2-65.6-31.2-120.7-85-158.5c-83.7-58.8-176.9-69.7-273.1-38.2
			C908.4,1754.8,848.4,1861,831.1,1981c-2.1,14.9,3.2,18.5,17.6,18.4C934.1,1998.8,1019.4,1999.1,1104.8,1999.1z M2393.6,908.3
			c-3.4,6-1.5,11-0.6,16c8.4,50.5,12.4,101.4,9.9,152.6c-4.3,90.2-26.9,174.5-79.5,249.5c-46.2,65.8-109.9,110.3-177.7,150.3
			c-76.7,45.3-148.6,95.9-202.7,168.7c-71.5,96-107.1,205.1-122.2,322.3c-2.2,16.7,2.4,20.8,18.9,20.1c33-1.5,32.8-0.6,39.7-32.8
			c25.7-119.5,74.2-228,153.9-321.8c59.9-70.5,134.2-122.6,211.7-171.2c53.2-33.3,105.7-67.8,146-117.2
			c89.9-110.2,106.7-238.9,94.5-374.9c-0.5-5.4-2.3-9.7-6.8-13.2C2452.6,936.5,2424.7,919.5,2393.6,908.3z"/>
		<path class="st0" d="M888.4,1091.8c25.8,0,51.7-0.2,77.5,0.1c15.2,0.1,27-5.3,37.3-16.9c39.7-44.8,91.2-41.7,143.6-34.3
			c8.3,1.2,8.3,7.9,6.6,13.4c-11.5,37.4-3.2,75.4-3.6,113.2c-0.6,47.1-23.7,74.6-70,82.9c-33.2,6-33.2,6-33.8,40.1
			c-0.3,20.1-2,40-11,58.5c-12.6,26.3-33.1,43-61.8,47.8c-26.1,4.3-52.7,6-79.2,4.7c-30.9-1.5-51.8-18.4-58.5-49.6
			c-5.6-25.8-8.4-52.1-12-78.3c-0.9-6.6-1.3-11.7-8.9-15.2c-44.8-20.3-58.1-43.3-52.6-93c1.7-15.8,4.3-28.8-18.6-25.3
			c-6.4,1-8.5-2.7-9.4-9c-4.7-32.7-2-35.1,30.7-36.3C805.9,1092.9,847.2,1091.3,888.4,1091.8z M972.2,1170.6
			c-0.8,35.4,2.3,39.2,38,38.5c21.9-0.4,43.9-1.5,65.5-6.7c18.1-4.4,28.1-14.9,26.9-34.4c-1.5-23.9-3-47.8-4.1-71.6
			c-0.5-10-4.6-13.7-14.7-12.1c-17.1,2.7-32.5,7.7-44.2,21.5c-11.9,14-26.1,28.4-44.2,29.4c-23.9,1.4-26.7,12.8-23.2,31.5
			C972.4,1168,972.2,1169.3,972.2,1170.6z M998.1,1287.1c0-28.6-0.1-28.2-27.5-35.5c-8.8-2.3-16-2.6-23.2,3.6
			c-7.6,6.6-17.3,8.3-26.7,10.1c-16.4,3.1-40-8.9-47.8,5.7c-6.7,12.4,2.8,33.4,5.1,50.6c0.3,2.5,0.6,5.1,1.1,7.6
			c4.5,22.8,8.6,25.9,32.8,24.5c14.8-0.9,29.5-2,44.3-2.9c21.4-1.3,34-12.5,39.5-33.1C998.5,1307.5,997.7,1297.4,998.1,1287.1z
			 M869.3,1140.1c-6.4,0-12.9,0-19.3,0c-41.5,0-41.5,0-41.4,41.9c0.1,21.3,6.5,29.6,27.4,32.4c24.3,3.2,48.7,4.8,73.3,4
			c5.6-0.2,11-0.5,12.4-6.5c4.9-22.3,6.9-46.2,0.4-66.8c-3.8-12.2-25.7-2.7-39.2-4.8C878.4,1139.6,873.8,1140.1,869.3,1140.1z"/>
		<path class="st0" d="M717.5,1913.9c-24.9,0.3-44.8-18.7-44.7-42.9c0-23.4,19.2-42.5,42.9-42.8c24.9-0.3,44.8,18.8,44.7,42.9
			C760.4,1894.5,741.3,1913.6,717.5,1913.9z"/>
		<path class="st0" d="M827.8,1724.7c0.1,26-17.5,44.7-42.2,44.7c-23.2-0.1-43.2-19.7-43.6-43c-0.5-24,20-44.8,43.9-44.7
			C809.9,1681.7,827.7,1700,827.8,1724.7z"/>
		<path class="st0" d="M2264.4,1106.5c-23.5,0-43.2-19.1-43.6-42.5c-0.4-24.4,19.1-44,43.9-44.1c23.8,0,43,18.7,43.5,42.5
			C2308.7,1087,2289.3,1106.5,2264.4,1106.5z"/>
		<path class="st0" d="M1074.4,1542.1c0.2-23.9,19.3-43.3,42.7-43.5c23.8-0.3,44.2,20.3,44.1,44.4c-0.2,23.6-19.4,43-42.9,43.3
			C1094,1586.7,1074.2,1566.7,1074.4,1542.1z"/>
		<path class="st0" d="M1422.9,1723.8c-24.4-0.1-43.1-18.2-43.4-42c-0.3-24.1,19.8-43.9,44.3-43.7c23.5,0.2,43.1,19.4,43.4,42.7
			C1467.5,1705.2,1448.2,1723.9,1422.9,1723.8z"/>
		<path class="st0" d="M1681.9,1828.6c23.1-0.4,43.2,18.9,44.1,42.4c0.9,24.2-18.9,45-43.1,45.3c-23.4,0.3-43.4-18.9-44.2-42.3
			C1637.8,1850.1,1658,1829,1681.9,1828.6z"/>
		<path class="st0" d="M1996.3,1433.7c0,26.2-17.4,44.7-41.9,44.6c-23-0.1-43.4-20.1-43.9-43.1c-0.5-23.4,20.8-44.8,44.4-44.6
			C1978.8,1390.7,1996.3,1408.9,1996.3,1433.7z"/>
		<path class="st0" d="M1716.7,1731.7c-23.9-0.7-42.2-20.1-41.5-43.8c0.8-24.5,21-43,45.8-42c22.5,0.9,42.4,22.1,41.6,44.5
			C1761.9,1714.9,1742.4,1732.4,1716.7,1731.7z"/>
		<path class="st0" d="M1508.1,1875.2c-25.3,0.3-44.5-18.4-44.2-43c0.3-22.7,20.4-42.5,43.3-42.7c24.8-0.2,44.4,19.3,44.1,43.7
			C1551,1857.1,1532.7,1875,1508.1,1875.2z"/>
		<path class="st0" d="M2210.3,1164.8c23.7-0.3,44.7,20.7,44.3,44.5c-0.3,23.3-20.1,43-43.4,43.3c-23,0.3-43.6-19.3-44.5-42.4
			C2165.8,1186.9,2186.6,1165.1,2210.3,1164.8z"/>
		<path class="st0" d="M1845,1547c0.4,24.9-18.7,44.5-43.3,44.5c-23.7,0-42.8-18.9-43.2-42.7c-0.4-25,18.5-44.4,43.3-44.3
			C1825.8,1504.5,1844.6,1523.1,1845,1547z"/>
		<path class="st0" d="M922.8,1548.4c24.8-0.1,43.5,17.3,44,40.9c0.5,22.9-21.3,45-44.4,44.9c-23-0.1-43.2-20.2-43.7-43.3
			C878.2,1566.2,896.6,1548.5,922.8,1548.4z"/>
		<path class="st0" d="M2140.5,1332.1c-0.4,24-19,42.2-43.3,42.2c-24.8,0.1-43.9-19.4-43.5-44.2c0.4-24.7,20.1-43,45.4-42.2
			C2123.1,1288.7,2140.9,1307.6,2140.5,1332.1z"/>
		<path class="st0" d="M1331.9,1573.5c-0.5,24.7-20.3,43.2-45.3,42.3c-24-0.8-41.9-19.9-41.5-44.1c0.5-24.8,20-43.2,45.2-42.3
			C1313.9,1530.2,1332.4,1549.8,1331.9,1573.5z"/>
		<path class="st0" d="M2030.5,1869.4c-0.2-24.1,18.6-42.8,44.5-43.3c23.5-0.5,42.4,20,42.2,43.7c-0.1,24.5-20.5,44.6-44.5,43.8
			C2049.8,1912.9,2030.4,1892.7,2030.5,1869.4z"/>
		<path class="st0" d="M2325,1586.1c23.7,0.3,43.1,19.6,43.2,43c0.1,23.9-20.6,44.3-44.5,44c-23.5-0.4-42.9-19.8-43.1-43.3
			C2280.5,1605.4,2300.4,1585.8,2325,1586.1z"/>
		<path class="st0" d="M2398.9,1501.7c-0.2-24.8,19.2-44.1,43.9-43.8c24,0.3,42.4,18.9,42.6,43.1c0.2,24.9-19.2,44.3-43.8,43.9
			C2417.8,1544.6,2399.1,1525.7,2398.9,1501.7z"/>
		<path class="st0" d="M2172.2,1771.9c-23.6,0.4-43.5-18.2-44.5-41.7c-1-23.9,18.8-44.9,42.9-45.4c24.3-0.5,44.6,19.4,44.5,43.8
			C2215.1,1752.2,2196,1771.5,2172.2,1771.9z"/>
		<path class="st0" d="M2597.6,1334.6c0.4,25.1-18.4,44.1-43.4,44.1c-24.2,0-42.8-18.3-43.2-42.4c-0.4-25.1,18.3-44.1,43.4-44.1
			C2578.6,1292.2,2597.2,1310.5,2597.6,1334.6z"/>
	</g>
</g>
</svg>
