<?xml version="1.0" encoding="utf-8"?>
<!-- Generator: Adobe Illustrator 23.0.0, SVG Export Plug-In . SVG Version: 6.00 Build 0)  -->
<svg version="1.0" xmlns="http://www.w3.org/2000/svg" xmlns:xlink="http://www.w3.org/1999/xlink" x="0px" y="0px"
	 viewBox="0 0 3000 3000" style="enable-background:new 0 0 3000 3000;" xml:space="preserve">
<style type="text/css">
	.st0{stroke:#000000;stroke-width:10;stroke-miterlimit:10;}
</style>
<g id="Layer_1">
</g>
<g id="Layer_2">
	<g>
		<path class="st0" d="M568.5,784.7c63.7-103.6,155.2-158.6,272.1-173.1c81-10.1,120.4,6.1,172.2,71.1
			c45.1-52.2,100.1-88.5,167.9-103.1c113.6-24.4,219.4,20.4,287,121c6.2,9.2,10.4,13.7,22.7,8.6c109.3-45.7,224.5-68.6,340.6-88.1
			c96.9-16.3,194.1-28.7,292.8-27.1c157.6,2.5,304.6,45.5,445.2,113.8c101.3,49.2,193.2,111.2,265.4,198.8
			c99.6,120.8,141,260.9,130,415.9c-14.7,208.3-106.5,382.3-244.3,534.7c-9.1,10.1-12.5,18.9-10.6,33.1
			c10.3,74.1-19.4,131.8-77.3,176.1c-65,49.8-141.5,73.5-219.4,93c-116.4,29.1-235.2,43.4-354.4,55.2
			c-159.4,15.8-319.3,23.8-479.2,31.9c-215.7,10.9-431.6,13.6-647.5,6.9c-144.1-4.5-288-11-431.7-22.9
			c-74.9-6.2-150.1-11.4-222.5-33.6c-61.2-18.8-109.7-51.9-125.7-118.4c-10-41.8-7.2-83,11.7-122.2c4.2-8.8,5.3-16,1.9-25.4
			c-56.8-155.1-55.7-310.4,0.3-465.3c4.7-12.9,3.6-20.7-5.5-31.2c-82.3-95-81.5-222.3,2.3-317.1c10-11.4,3.6-16.6-2.2-24.1
			c-43.9-56.7-79.2-117.7-96.4-188.1c-4.8-19.7-7.5-39.6-7.5-59.9c-0.1-74.9,36-122.7,109.3-135.7c86.1-15.3,173.4-15.2,260.2-6.4
			C483.8,709,532.8,733.5,568.5,784.7z M2406.3,2125.1c32.5-7.4,61.5-16.9,90.5-26.9c9.4-3.2,14.8-9.4,19.6-17.4
			c36.8-61.8,25.9-133.9-27.7-181.9c-6.2-5.5-13.8-9.6-19.6-15.5c-11.4-11.5,3.6-18.2,6.4-26.9c3.2-10,9.8-3.6,14.8-0.7
			c61.7,36.5,95.4,117.9,78.2,188.1c-1.8,7.4-3.5,14.9-6,25.7c60.1-33,109.6-70.1,113.7-140.8c3.9-68.7-19-122.5-93.1-140.1
			c-22.3-5.3-44.8-10.4-67.5-13.1c-148.1-17.6-297.1-23.8-446-29c-242.4-8.5-484.7-4.7-726.9,11c-238.4,15.4-477.3,21.9-714.7,51.1
			c-93.3,11.5-186.3,24.9-276,54.3c-43.2,14.1-83.9,32.8-120.4,60.9c-71.5,55.1-72.7,198.5,37.8,233.5
			c43.4,13.8,87.6,21.7,132.3,28.8c18.4,2.9,24.8-1.9,31-18.4c66.3-174.7,185.5-286.7,374.5-318.9c110.2-18.7,220.8-28.7,332.2-33.2
			c227.8-9.1,455.5-12.9,682.7,10c65.1,6.6,129.7,16.8,191.3,40.6c54.5,21.1,84.8,60.1,93.3,117.8c8.7,59.6-7.1,114.5-28.8,168.6
			c-3.1,7.8-9.1,15.1-7.8,26.8c48.7-6,96.2-12.3,143.9-17.4c12.9-1.4,17.3-8.8,21.1-19.3c30-81.3,19.9-157.6-30.1-227.9
			c-11.5-16.1,0.2-19.4,8.4-27.1c11.3-10.7,15.4-0.8,20.4,6.4c31.4,44.9,50.4,94,52.2,149.5c1.2,36.4-4.5,71.6-16.4,108.2
			c28.8-1.7,54.2-9.1,80.1-12.8c12.2-1.8,17.4-7.7,20.5-19.5c19.1-72.2,10.7-141-26.5-205.4c-9.2-15.8,0.9-18.5,9.3-25
			c11.8-9.2,16.5-1.5,21.8,7.8c26.2,46.3,39.1,96.1,40.4,149.1C2415.7,2071.7,2409.9,2096.8,2406.3,2125.1z M2766.3,888.5
			c-0.5-2.2-0.3-3.9-1.1-4.7c-3.8-4.1-7.7-8.1-11.8-11.8c-60.7-56.4-130.2-99.6-204.8-135c-104.2-49.4-211.7-87.7-327.3-100.8
			c-99.6-11.3-198.8-8.8-297.7,6.1c-120.4,18.1-240.8,36.2-356.6,75.6c-304.8,103.8-478.4,317-526.8,633.9
			c-5.5,35.9-4.9,35.9,32.1,34.4c6.3-0.3,12.6-1,18.8-0.6c27.7,1.5,48.2-6.6,54.6-37c1.5-7.3,6.3-13.9,9.7-20.7
			c160.2-316.7,411.1-506.8,768.6-541.8c193.5-19,379.5,18.2,557.1,96.6c12.7,5.6,24.6,6.8,38.1,4.4c55.1-9.7,110.5-14,166.4-8
			C2712.5,882,2739.2,885.3,2766.3,888.5z M1450.8,1356.9c34.5,0,65.8-1,97,0.3c25.8,1.1,53.8,2.8,73.2,20.3
			c23.2,20.9,43.1,23,73.5,15.2c60.3-15.4,101.5,22.2,100.7,84.3c-0.2,16-0.8,32-1,48c-0.2,14.6-0.8,29.3,0.2,43.8
			c1.6,23.6,20.8,22.9,37.1,24.5c18.1,1.8,16.7-13.3,18.5-24.2c3.5-20.6,5.3-41.4,8.7-62c10.9-65.2,15.5-69.3,81.8-75.9
			c40.3-4,40.2-4.1,49.4-42.6c2.6-10.8,4.7-21.9,8.5-32.3c3.3-9.1,1.1-13.6-7-18.4c-89.7-52.5-168.2-118.6-235.6-197.8
			c-5.5-6.4-10.7-9.4-19.6-8c-33.6,5.3-67.5,9-101,14.9c-47.5,8.4-90.1,1.7-124.4-35.4c-38.3-41.5-31.4-87.5,18.3-113.6
			c33.4-17.6,69.3-29.2,106.7-34.5c63.2-9,126.5,1.5,189.8,0.9c13.3-0.1,24.1-2.7,35.2-9.4c48.9-29.6,101.8-47.7,158.7-54
			c94.2-10.5,180.9,10.7,260.6,61.8c5.5,3.6,10.8,9.5,18.8,4.8c45-26.6,93-46.6,147.3-64.4c-262.3-98.7-521.8-125.1-783.5-19.3
			c-161.8,65.4-290.8,173-394.1,319.3c12.3-1.4,19.2-2.4,26-3c38.8-3.6,77.6-8.8,116.6-2.3c31.9,5.3,47.7,21.7,52.1,53.4
			C1468.1,1286.9,1468.3,1321.9,1450.8,1356.9z M1156.3,963c-51.8,0-102.5-1.4-153.2,0.3c-181.7,6-362.6,19.7-541.2,55.4
			c-73.8,14.7-146.5,33.5-212.1,72.4c-70.3,41.7-113.3,100.4-115,185.3c-1.2,63.1,25,113.3,71,153.8c26.6,23.5,48.7,19.8,68.1-8.7
			c7-10.3,12.6-21.5,18.6-32.5c42.8-78.2,100.7-139.6,187.1-169.8c113-39.5,228.9-63.9,348.9-67.2c68.3-1.8,136.5-0.1,204.2,9
			c14.9,2,20.6-2.9,25.4-16.3c14-38.6,31.4-75.9,52.9-111C1125.8,1009.5,1141.5,986,1156.3,963z M1291.4,1920.5
			c8.3-0.4,16.7-1.1,25-1.3c116.9-2.3,233.9-8.9,350.4,6.2c94,12.2,148.7,55.6,169.6,134.3c10.7,40.4,10.2,81.4,3.9,122.3
			c-2,13,1,15.6,13.2,14.6c53.4-4.5,106.9-8.5,160.3-12.4c7.8-0.6,12.9-3.7,16.2-10.8c23.3-49.3,43-99.7,44.2-155.3
			c1.4-65.1-23.5-101.3-84.7-123.3c-11.8-4.2-23.7-8-35.8-11.1c-88.9-22.4-179.6-29.9-270.8-33.6c-266-10.8-531.8-10.2-796.7,21.2
			c-59.5,7-118,19.2-174.4,40c-111.9,41.1-181,125.4-230.5,229.1c-26.1,54.7-25.7,54.2,35.2,57.2c18.1,0.9,24.4-2.7,26.1-22.4
			c8.5-96.3,55.7-164.1,149.9-195.5c55.1-18.4,112.2-26.8,169.6-33.4C1004.8,1930.1,1148.2,1927,1291.4,1920.5z M2912.2,1132.4
			c-13-51.7-32.9-95.8-57.7-137.9c-3.3-5.6-6.7-9.2-14.3-9.9c-59.3-5.9-118.6-7.3-177.9-0.2c-204.3,24.5-363.4,120.9-470.4,298
			c-76.5,126.7-98.1,266.1-89.1,411.7c0.9,13.9,6.1,19.1,20,19.3c25.7,0.4,51.6,1.3,77.1,4.1c17.2,1.9,21.8-2.1,18.1-19.5
			c-12.2-57.8-12.1-116-4.4-174.5c33.5-254.5,256.2-441.8,512.4-431.5C2789.4,1094.6,2850,1107.9,2912.2,1132.4z M427.4,989.9
			c-29.2-43-56.9-85.4-86.5-126.4c-10.5-14.6-1-17.6,7.5-25.1c10.6-9.4,15.1-5.4,21.6,4.4c28.1,42.2,57.1,83.9,85.4,126
			c5.9,8.8,11.6,14,23.6,11.5c24.5-5.2,49.2-9.1,74-13c9.6-1.5,13.9-5.3,14.9-15.9c2.3-25.1,3-49.9-0.8-74.9
			c-10.8-71.8-55.4-121.4-126.2-134.5c-83.6-15.5-167.8-9.9-251.7-1.4c-68.2,6.9-109.8,43-95.2,135.2c12,75.7,50.2,139.2,95.8,199
			c6.3,8.3,11.1,7.4,18.7,1.9c30.1-21.7,62.8-38.7,98-50.5c13.8-4.6,12.6-9.8,6.2-20.2c-23.5-37.7-45.7-76.3-69.7-113.7
			c-8.2-12.7-5.9-17.8,6.1-25.6c13.5-8.8,17.9-3.6,24.6,7.7c23.9,40.8,49.2,80.7,73.2,121.4c5.9,10,11.6,13.4,23.2,9.7
			C388.1,999.5,406.8,995.3,427.4,989.9z M1311.7,1511.7c34.1,0,68.3-0.9,102.4,0.3c24.3,0.8,48.6,3.9,70.8,15.8
			c24.9,13.3,35.3,31.5,32.4,59.6c-3.8,36.7-7.9,73.3-12.6,109.8c-1.5,11.4-0.1,16.2,13.3,15.5c26.4-1.6,52.9-1.5,79.4-1.5
			c10.8,0,16.6-3,17.5-14.9c6-77.8,15.5-155.3,18-233.3c1.1-34.9-14.2-53.8-47.9-64.4c-32.6-10.2-66.1-9.8-99.5-7.4
			c-146.5,10.5-293,21.8-439.5,32.4c-11.1,0.8-14.4,5.1-14.4,15.2c-0.1,25.1,0,50.2-1.3,75.2c-0.8,15.1,3.8,18,19,16.4
			C1136.4,1520.9,1224,1515.6,1311.7,1511.7z M997.5,822.3c1.3-32.8,0-64.7-7.8-96.1c-11.9-48-43.2-75.1-92.1-80.5
			C780.7,633,643.7,707.9,592.8,812.4c-2.5,5.1-4.2,9.5-2.1,15.7c12.7,38.9,17.1,78.8,12.6,119.5c-1.1,9.6,2.2,12.1,11.6,10.9
			c39.4-4.9,78.8-9.9,118.3-13.3c15.7-1.4,19.8-3.9,12.8-20.5c-26.3-62.6-20-123.7,13.7-182c3.2-5.6,4.2-21.6,17.8-10.8
			c8.8,6.9,25.1,9.2,12.6,28.9c-25.2,39.9-31.9,83.7-19.1,130.1c13.4,48.6,17.1,51,67.2,45.7c14.5-1.5,14.3-5.8,10.8-17.9
			c-17.1-59.4-14.6-118.1,9.5-175.5c4-9.4,6.7-15.1,19.2-9.1c14.3,6.8,17.4,13.4,11.2,28.7c-20.9,51-20.8,102.9-3.7,155.2
			c3.6,11,8.7,15.4,21,14.2c21.5-2.1,43.1-2.5,64.7-2.9c11.5-0.2,16.9-4,19.4-16.3C996.4,882.8,998.9,852.4,997.5,822.3z
			 M2891,1510.3c-7.1,1.1-10.6,1.3-13.8,2.2c-202.3,57.5-404.5,114.9-606.7,172.7c-7.1,2-20.4-0.6-17.2,14.8
			c2.5,11.9,4.4,22.4,21.1,21.6c14.5-0.7,29.1,2.1,43.7,2.9c77.8,4.1,155.8,7.2,232.6,21.4c55.3,10.2,109.9,23,139.1,79.6
			c5.8,11.3,10.2,2.5,13.5-1.4c18.4-21.8,37.2-43.3,54.4-66.1C2814.2,1683.2,2859.2,1602.1,2891,1510.3z M2819.1,943
			c-2.2-1.6-4.2-3.6-6.6-4.6c-4.5-1.8-9.2-3.2-13.8-4.5c-118.6-32.3-236.8-29.8-353.8,7c-241.1,75.7-413.4,290.8-434.6,542.3
			c-5.9,70.6,0.2,140.3,16.5,209.4c4.8,20.3,17.5,17.8,31.1,17.8c18.4,0,9.9-14.3,9.6-21.5c-2.6-60.7-1.1-121,8.1-181.2
			c48.1-314.5,297.9-542.5,614.4-561.3C2732.9,943.9,2775.6,945.5,2819.1,943z M1241.6,709.6c4.2,1.2,7.5,2.6,10.9,3.1
			c16.8,2.4,22.8,9.6,17.3,27.6c-8.7,28.3-7.2,57.8-4,87c1.2,11.1,4.1,15.6,14.9,6.4c46.4-39.5,97.9-71.2,152.3-98.3
			c11-5.5,10.2-10.4,4.1-18.6c-13.3-18-27.4-35.2-44.1-50c-111.2-98.8-273-66.6-360.5,47.7c-4,5.2-6.3,10.4-5.4,17.3
			c8.3,64.4,9.6,128.7-3,192.5c32.2,0,63.4-0.8,94.6,0.3c17.7,0.6,18.9-6.5,15.3-21c-16.8-67.8-13.9-135.3,6.3-202
			c2.5-8.4,1.3-22.8,19.3-15.7c13.5,5.3,19.9,8.8,14.4,26.1c-20.6,64.5-20.8,130.1-3.5,195.6c5,18.9,13.2,20.7,26.9,6.6
			c10.2-10.5,19.3-22.2,30.3-31.7c9.9-8.5,11.1-17,8.1-29.1C1223.8,805.1,1225.6,757.1,1241.6,709.6z M511,1786.9
			c-22.3-9.9-44.2-18.8-64.4-31.1c-20.3-12.4-39-26.8-55.7-43.8c-62-63.2-99.3-138.5-108.6-226.9c-1.3-12.7-3.5-17.5-17.1-10.8
			c-14.9,7.3-32.2,8-46.7,1.6c-18.1-7.9-20.6,1.9-24.9,14.6c-31.1,91.6-42.8,185.6-31.2,281.7c5.6,46,14.8,91.6,32.5,136.5
			C286.3,1829.4,400,1812.6,511,1786.9z M1819.2,1708.1c0,0.3,0,0.6,0,0.8c52.2,0,104.4-0.8,156.6,0.4c17.4,0.4,19.3-4.5,15.6-19.9
			c-15.7-64.7-21.8-130.3-16.3-196.8c2.4-28.8,2.1-28.9-25.7-27.1c-9.7,0.6-19.4,2.4-29.1,2.2c-14.9-0.2-20,8.1-22.6,21.3
			c-5.8,29.4-10,58.9-13.6,88.6c-2.7,22.4-10.2,42.7-34.8,49.5c-47.1,13.1-88.6-16.3-90.2-64.9c-1-29.2-0.2-58.5,1.3-87.7
			c1.6-30.5-7.4-43.6-37-49c-14.9-2.7-28.8,0.6-42.6,6.4c-10.4,4.4-14.4,10.5-13.8,22.2c1.2,26.4-0.4,52.8-2.9,79.2
			c-4.9,50.5-8.8,101.2-13.7,151.7c-1.6,16.2-0.2,24.4,20.7,23.5C1720.2,1706.7,1769.7,1708.1,1819.2,1708.1z M1252.7,2222.3
			c0-0.7,0-1.5,0-2.2c25.8,0,51.5-0.3,77.3,0.2c10.1,0.2,14.7-3.6,16.9-13.5c18.6-80.5,37.4-160.9,56.7-241.1
			c2.7-11.3,0.8-14.8-11.2-14.3c-57,2.6-114.1,4.7-171.1,6.5c-10.7,0.3-16.2,4-17.9,15.2c-12.3,78.2-24.9,156.4-37.9,234.5
			c-2.1,12.9,2.7,15.3,14.2,14.9C1204,2221.9,1228.3,2222.3,1252.7,2222.3z M995.9,1554.7c-2.5,0.6-3.4,0.6-3.7,1
			c-4.7,6-9.4,11.9-14,18c-42,54.6-94.2,96.1-157.5,123.7c-176.1,76.7-351.2,4.5-415.4-171.7c-17.1-46.9-24.7-95.5-22.6-145.5
			c0.2-5.7,4.5-16.3-7.9-14.2c-13.5,2.2-27.7,3.8-36.5,17.1c-13.2,20.1-21.4,41.3-22.3,66c-1.5,44.8,7.6,87.3,25.6,127.8
			c44.3,99.5,113.4,169.8,226.7,183.8c55.8,6.9,111.1,0.7,165.4-14.1c89.6-24.4,176.4-55.2,253.9-108c8-5.5,16-9.8,14.1-22.6
			C998.5,1596,997.7,1575.8,995.9,1554.7z M376.7,1330c17.2-1.9,30.3-3.3,43.3-4.7c102.4-10.9,204.4-24.4,306.2-39.5
			c96.3-14.2,192.5-28.2,288.8-42.4c5.5-0.8,9.9-2.2,13-8.4c15.1-30.1,11.2-38.1-21.3-41.5c-0.7-0.1-1.4-0.2-2.1-0.3
			c-164.2-18.7-325-2.8-482.2,48.1C468.3,1258.8,417.2,1281.1,376.7,1330z M1915.2,965.4c3.1,2.7,3.9,4.1,5.1,4.4
			c58.9,17.6,71.6,44.1,46.7,100.7c-4.2,9.6,1.1,12.6,5.8,17.1c29.6,28.8,63.6,51.7,98.5,73.5c10.5,6.6,15.8,5.6,23.1-4.9
			c33.1-47.7,72.3-90.1,117.2-126.9c15.5-12.7,31.4-24.8,48.5-38.3C2148.4,924.2,2035,915.3,1915.2,965.4z M1366.7,1545
			c-110.1,3.3-217,9.7-323.6,20.7c-11.6,1.2-11.4,7.1-10.6,15.4c4.7,47.8,11,95.3,19.5,142.6c1.8,9.8,5.1,14.6,16,13.9
			c45.1-2.9,90.3-5.2,135.5-7.4c9-0.4,11.2-3.9,11.2-12.8c0.1-65,18.3-89.4,82.1-101.9C1336.2,1607.7,1353.8,1582.6,1366.7,1545z
			 M2918.4,1403.6c-7.4-2.6-12.9,1-18.7,2.8c-212.1,63.8-424.1,127.9-636.4,190.8c-19.1,5.7-20.9,15.3-19.8,31.3
			c1.8,27.6,1.4,27.6,27,20.3c88.1-25.1,176.3-50.1,264.5-75.2c117.6-33.4,235.1-66.7,352.6-100.3c7.6-2.2,16.8-2.8,19-13.4
			C2910.8,1441.3,2917.2,1423,2918.4,1403.6z M682.2,2208.5c0-0.1,0-0.1,0-0.2c25,1.4,50,2.8,75.1,4.3c7.2,0.4,13.5,1.2,14.8-9.3
			c8-65.5,16.4-131.1,25-196.5c1.9-14.5-4.3-16.5-16.4-13.7c-25.7,6-51.6,11-76.7,19.7c-79.6,27.5-124.4,87.7-128.6,171.9
			c-0.6,12.1,1.8,17.2,15.1,17.8C621.1,2203.6,651.7,2206.4,682.2,2208.5z M2290.4,1392.4c3.7,2.6,6.8,0.5,10.1-0.5
			c117.1-35.1,234.2-70.1,351.3-105.1c85.8-25.6,171.5-51.4,257.4-76.5c12.7-3.7,18.9-8.9,15.5-23.1c-4.1-17.3-20.7-24.9-43.2-18.2
			c-172.3,51.2-344.2,104.1-517.4,152.6C2322.9,1333,2302.3,1355.6,2290.4,1392.4z M1645.7,1053.8c-0.3,0-0.6,0-0.9,0
			c0,12.5,0.8,25.1-0.2,37.5c-1.1,14,1.2,19.1,17.9,16.7c72.1-10.6,144.3-20.9,216.9-27.5c18.8-1.7,37.2-6.3,51.4-20.2
			c9.8-9.7,16.4-21.1,12.9-35.4c-3.6-14.8-16.2-17.7-28.8-19.9c-6.1-1.1-12.3-2.4-18.5-2.6c-72.9-2.3-145.8-4.8-218.8-6.6
			c-31.8-0.7-31.8,0-31.9,31C1645.7,1035.8,1645.7,1044.8,1645.7,1053.8z M1483.1,1584.9c4.1-16.2-7.9-25.5-24.9-30.6
			c-9.9-3-20.5-3.7-30.5-6.6c-17-5-25.8-0.6-31.5,17.8c-14.9,47.5-45.7,78.8-97.7,84.5c-4.8,0.5-9.5,2.1-14,3.8
			c-27.6,10.4-39.8,31.7-35.7,60.7c1.3,9.3,4.7,13.3,14.7,12.7c63.9-3.9,127.8-7.5,191.7-10.7c9.5-0.5,13.6-4,14.6-13.4
			C1473.7,1665.1,1478.3,1627.2,1483.1,1584.9z M2836,1146c-142.3-58.7-408.8,20.8-474.9,140.8
			C2519.5,1239.8,2676.4,1193.3,2836,1146z M1359.9,1230.4c-34.3-0.5-68,4.9-101.6,10.4c-7.9,1.3-16.3,1.7-21.6,10.3
			c-22.9,37.4-43.2,76.2-61.3,116.1c-1.6,3.5-4.4,7.2,1.5,10.2c13.3,6.5,39.9-3.4,44.9-17.3c17-47.8,49-81.8,94.8-102.9
			c7.3-3.4,16.8-12.1,21.7,2.8c3.6,10.7,13.2,22.1-6.8,29.5c-32.7,12.2-55.1,36.4-70.7,67.5c-5.8,11.5-5.4,16.1,9.4,14.7
			c31.9-2.9,63.8-4.6,95.7-6.7c45.6-3,67.5-30.2,65.2-81.3c-2.3-50.7-7.3-54.9-64.9-53.3C1364,1230.5,1362,1230.4,1359.9,1230.4z
			 M1659.4,2205.3c11.8,0,23.6-0.5,35.4,0.1c12.7,0.7,17.7-3.5,18.8-17.3c4.4-56,11.1-111.8,15.3-167.9c3.5-46.1-0.8-49.6-47.5-57.3
			c-12.6-2.1-16.7,1.6-19.2,13.8c-13.1,62.4-27.5,124.4-40.9,186.7C1611.2,2210,1611.6,2210.1,1659.4,2205.3z M1098.4,2222.2
			c9.8-4.5,28.7,10.8,32.6-14.3c12-77.5,24.9-155,37.3-232.5c0.7-4.6,3.2-11.8-1.4-13.5c-13.4-5-27.4,0-41.1,0.6
			c-9.5,0.4-9.2,9.2-10.6,15.6c-15.5,70.5-30.9,141.1-46,211.7C1062.4,2221.9,1062.7,2222,1098.4,2222.2z M1524.5,2211.8
			c9.2,3.7,17.6,0.9,25.7,1.7c18.2,1.8,26-4.8,29.9-24.3c14.3-72.2,31.4-143.8,47.1-215.7c1.3-6.2,7.7-18.1-5-17.5
			c-12.1,0.6-30.6-13.9-36.4,9.3C1565,2047.3,1544.9,2129.6,1524.5,2211.8z M1790.6,1125.6c62.5,73.5,132.9,130.6,211.4,178.3
			c6.9,4.2,13.6,6.7,14.9-3.8c1.2-9.5,18.7-19.8-1-29.1c-67.4-31.7-120.2-79.8-159.5-142.8c-3.5-5.5-6.7-10.3-14.5-9.1
			C1826.1,1121.4,1810.4,1123.1,1790.6,1125.6z M1891.2,1116.1c28.8,48.1,68.1,83.4,115.1,110.6c35.4,20.5,35.3,19.8,54-17.1
			c4.6-9.1,3.2-12.7-5.2-17.7c-39.5-23.4-76.7-50.1-110-81.9c-4.2-4-8.1-10-15.9-7.1C1917,1107.4,1904.7,1111.5,1891.2,1116.1z
			 M1767.5,2005.3c-1.5,5.9-3.1,9.7-3.5,13.6c-4.6,49.9-9.5,99.7-13.4,149.6c-2.7,34.7-2.1,34.2,34,32.3c13.5-0.7,19.3-5,21.1-19.2
			c3.3-26.4,5.3-52.7,2.9-79.1C1805.4,2066.7,1794.8,2033.5,1767.5,2005.3z M914.7,1364.4c-6.4,20.8-11.8,37.1-16.2,53.6
			c-2.8,10.6-9.6,21.4-4.8,32.4c15.7,36.1,32.4,71.8,49.5,109.6c17.1-17.6,27.2-36.4,38.1-54.7c2.8-4.7,2.2-8.8-0.3-13.6
			C959.4,1450.8,938.2,1409.7,914.7,1364.4z M2537.9,1419.6c0-16,0.1-32-0.1-48c0-4,1-8.7-3.2-11.3c-4.7-2.9-67.6,17.9-69.5,23
			c-0.7,1.9-0.6,4.1-0.7,6.2c0,32.7,0.1,65.4-0.1,98.1c-0.1,9,2,11.9,12.1,9.8c61.4-12.9,61.4-12.6,61.4-75.7
			C2537.9,1421,2537.9,1420.3,2537.9,1419.6z M992.4,1437.7c8.2-48,12-94.4,21.8-140c3.6-17-0.5-20.5-17-16.3
			c-15.4,3.9-31.5,4.7-47.2,7.6c-15.9,2.9-25.3,16.8-18.3,31.2C951,1359.8,972.1,1398.6,992.4,1437.7z M2636.5,1329.1
			c-7.6,1.8-13.6,3-19.6,4.6c-43.1,12.2-43.1,12.2-43.1,57.2c0,9.1,0,18.1,0,27.2c0,55.9,0,55.8,52.8,34c6.5-2.7,10.1-5.7,10-13.4
			C2636.3,1402.5,2636.5,1366.4,2636.5,1329.1z M1609.3,1059c0.7,0,1.4,0,2.1,0c0-13.9,0.1-27.9,0-41.8c0-5.3,1.3-12.8-7.9-10
			c-25.3,7.6-51,14.5-72.2,31.4c-10.8,8.6-12.8,19.6-6.3,31.7c12.5,23.3,31,39.3,57.5,44.1c23.8,4.3,26.4,1.9,26.9-21.9
			C1609.5,1081.3,1609.3,1070.2,1609.3,1059z M727.5,1560.2c1.4-0.3,2.9-0.6,4.3-0.9c10-33.7,20.1-67.4,30-101.2
			c0.9-3.2,1.7-7.2,0.6-10.1c-10.3-26.9-21-53.7-33.4-85.2c-11.5,36.5-21.6,67.9-31.2,99.4c-1.3,4.3-1,9.9,0.5,14.2
			C707.7,1504.5,717.7,1532.4,727.5,1560.2z M787,1511.9c-1.5,0.3-3,0.6-4.5,1c-7.4,24.4-13.3,49.4-22.7,73.1
			c-10.4,26.4-9.3,51.1,2.9,75.9c2.8,5.7,0.8,15.8,10.3,15.5c9.6-0.3,16-6.3,18.8-16.3c6.4-23.4,13.3-46.6,20.2-69.9
			c1.4-4.8,2.5-9.5,0.7-14.3C804.1,1555.2,795.5,1533.6,787,1511.9z M850.5,1747.2c0.3,1.3,0.7,2.5,1,3.8
			c39.3-2.5,78.6-4.8,117.9-7.4c15.9-1.1,38.3,3.1,45.9-5.5c9.5-10.8-3.2-31-4.7-47.4c-0.2-2.1-0.5-4.2-0.4-6.2
			c0.3-15.5-5.9-15.8-17.3-8.2c-36.7,24.3-75.8,43.8-116.6,60.3C867.6,1739.9,859.1,1743.6,850.5,1747.2z M678.2,1526.1
			c-7.9,24.7-14.4,44.9-20.8,65.2c-2.3,7.2-5.4,14.6-2.5,22.2c9.2,23.9,18.7,47.7,28.3,71.4c2,4.9,7.3,10.3,9.8,2.9
			c7.4-22,21.4-44.5,16.8-67.3C703.5,1589.7,690.1,1560.4,678.2,1526.1z M584.5,1534.2c-7.2,19.7-10.5,34.9-17.9,47.8
			c-16.2,28.4-7.3,54.3,4.6,80.5c4.4,9.7,17.9,18.4,21.6,10.5c10.5-22.5,24.3-46.6,18-72.6C605.6,1579.1,594.8,1559.3,584.5,1534.2z
			 M424.6,1361.5c-2,0.7-4,1.3-6,2c-6,59.6,4.5,116.5,29.6,174.8c8.6-20.2,23.8-37.9,18.8-56
			C455.8,1441.2,439.1,1401.7,424.6,1361.5z M632,1552.1c29-75.5,29.1-101.3,1-149.4C599.6,1466.2,599.2,1494.5,632,1552.1z
			 M875.8,1497.2c-8.8,29.9-15.9,54.2-23.3,78.4c-1.6,5.4,1.3,9.3,2.8,13.8c15,44.6,15.2,44.7,49,12.5c4.9-4.6,15.3-7.7,11-17.6
			C903.3,1556.7,890.6,1529.5,875.8,1497.2z M536.4,1420.4c-35.5,44.8-29,92.3-0.7,138.2C563.7,1512.7,572.1,1465.2,536.4,1420.4z
			 M927.9,2103.4c-11.1,13.8-22.4,27.7-33.7,41.7c-3.2,3.9-5.5,7.4-2.3,12.9c7.4,12.5,14.3,25.3,21.3,38.1c2.9,5.2,5.7,7.8,10.6,1.7
			c13-16.2,33.3-30.7,37.2-48.7c3.3-15.1-18.6-30-30.4-44.1C930.2,2104.4,929.4,2104.2,927.9,2103.4z M821.2,1384.5
			c-23.4,63.5-21.8,85.1,9,133.7C855.8,1472.5,857.1,1427.8,821.2,1384.5z M1061.1,1965.9c-25.9-7.1-37.3,14.2-47.6,31.9
			c-8.4,14.5,11.2,22.4,16.2,34.3c1.5,3.7,4.9,6.7,7,10.2c5,8.3,8.8,7.3,15.4,0.6c16.6-16.7,21.3-37.5,26.3-59.3
			C1082.1,1967.6,1080.7,1960.8,1061.1,1965.9z M985.9,2033.5c-2.5,2.2-4.9,3.6-6.5,5.6c-8,9.6-15.6,19.6-23.7,29.1
			c-3.6,4.3-2,7.4,0.7,10.9c9,11.5,18.1,22.9,27,34.5c3.3,4.3,5.6,4,9.9,0.7c24.6-18.8,27.4-34.5,9.7-59
			c-3.6-5.1-7.3-10.2-11.1-15.2C990.3,2038,988.3,2036.1,985.9,2033.5z M581.4,1430.9c2.8-3.9,4-4.9,4.4-6.1
			c6.3-17.5,12.7-35,18.8-52.6c13.2-37.7,13.2-37.7-26.4-30.6c-18.1,3.3-25.9,15.5-19.7,32.4
			C565.5,1392.8,573.4,1411.1,581.4,1430.9z M868.3,1395c7.5-25,12.9-44.1,19.1-62.9c3.9-11.9,2.5-23.8-7.2-30.1
			c-10.2-6.5-24.3-1.9-33.3,3.4c-9.3,5.4-11.1,18.8-6.1,30C848.8,1353.7,857.5,1371.7,868.3,1395z M489.3,1436
			c9.4-23.8,17.6-44.1,25.5-64.5c3.5-9,0.9-16.7-8.1-20.1c-9.9-3.7-43.4,4.1-44.2,9.3c-0.3,1.9,0.5,4.1,1.2,6.1
			C471.8,1388.7,479.9,1410.7,489.3,1436z M2794.2,1387.9c40.2,8.7,41.6,8,54.6-29.2c8.2-23.4,6.3-25.6-17.7-26.3
			c-7.5-0.2-11.4,2.3-14.4,8.8C2809.7,1356.2,2802.3,1371.1,2794.2,1387.9z M1430.8,2003.7c-2.9,12.4-5.1,21.7-7.3,31
			c-5.2,21.9,1.2,35.6,19.9,45.4c5.6,2.9,6.8,0.3,9.3-3.3c21.3-30.7,20.3-39.1-8.2-62.5C1440.8,2011.3,1437,2008.5,1430.8,2003.7z
			 M673.8,1406.4c1.5-0.1,3.1-0.2,4.6-0.2c5-16.2,10.3-32.2,14.8-48.5c2.8-10.3,13.8-23.9,5.9-30c-6.6-5.2-22.2,0.9-33.8,2.3
			c-11.1,1.4-13.7,9-10.9,18.2C660.4,1367.7,667.3,1387,673.8,1406.4z M870,2116.3c45.7-52.4,42.1-37.6,12.9-72.1
			C839.7,2087.4,843.9,2069.8,870,2116.3z M777.6,1389.7c1.5-0.2,3-0.5,4.5-0.7c3.6-12.5,6.9-25.1,10.9-37.5
			c11.1-34.1,4.9-43.2-32-35.8c-7.7,1.5-11.2,3.8-7.7,12.4C761.6,1348.5,769.5,1369.1,777.6,1389.7z M2782.5,1329.7
			c-43.8-4.5-32.4-9.9-51.8,24.5c-0.7,1.2-1.5,2.4-1.8,3.7c-1.5,6.4-12.6,11.7-4.5,18.9c9.1,8.1,33.5,4.9,38.1-4.1
			C2769.4,1358.7,2775.7,1344.3,2782.5,1329.7z M2369.3,1523.4c17.9,3.2,30.8-5,44.8-7.4c18.6-3.2,14.4-16.6,14.8-28.5
			c0.4-13.8-10.2-11.7-18.6-13.5c-12.4-2.6-20.6-0.4-24.7,13.5C2382.1,1499.1,2375.6,1509.9,2369.3,1523.4z M1485.5,2003.5
			c7.1-15.2,22.2-28.9,15.7-44.1c-7.4-17.2-27.5-6.1-41.8-8.8c-1.3-0.2-2.8-0.1-4.2,0c-5.3,0.5-11.6-1.4-13.6,6.3
			c-1.4,5.6,1.5,9.2,5.4,12.6C1459.5,1980.5,1471.9,1991.5,1485.5,2003.5z M2355.8,1467.5c-34.8-9.1-34.8-9.1-50,20
			c-11.4,21.8-11.3,21.3,12.2,26.7c11.3,2.6,18.2,1.1,22.3-10.9C2344.4,1491.1,2350.5,1479.5,2355.8,1467.5z M1485.5,2213.8
			c14.8-35,14.8-36.8-9.4-57.6c-4.7-4.1-11.3-16.5-16.9-7.5c-5.7,9.2-20.8,20.4-7.5,34.3C1462.1,2193.9,1473.9,2203.3,1485.5,2213.8
			z M490,1542.2c-6,15.6-24.5,27.3-13.9,44.1c7.6,12.2,18.1,22.6,27.6,33.5c2.4,2.8,5.2,7.7,10,4.6c3.9-2.5,3.9-7.3,2.5-11.3
			C507.5,1589.4,498.7,1565.8,490,1542.2z M1506.9,2135.1c4.3-16.3,8.2-30.9,11.9-45.6c3-11.9-8.6-14.4-14-20.9
			c-1.8-2.2-5.9-6.2-8.4-1.5c-6.5,12.2-13.5,24.5-17.4,37.7c-3.1,10.7,9.6,13.7,15.2,20.2
			C1497.4,2128.5,1501.7,2130.9,1506.9,2135.1z M929,2042.8c11.3-7.9,16.7-20.7,26.2-29.4c13.2-12.1,3.4-21.3-4.2-29.4
			c-10.6-11.2-12.8,4.3-18.5,7.6c-5.2,3.1-8.5,9.1-13.3,13c-10.3,8.2-11.5,16.1-1.4,25.4C921.9,2033.7,925.1,2038.3,929,2042.8z
			 M808.6,2193c41.7-43.9,43.1-58.3,10.8-83.3C815.9,2136.4,812.5,2162.3,808.6,2193z M987.4,2176.2c-11.9,14.7-21.7,26.8-33.5,41.3
			c23.3,2.5,43.2,4.7,66.6,2.4C1008.7,2204.3,998.7,2191.2,987.4,2176.2z M1030.9,2178.8c1.7-0.8,3.5-1.7,5.2-2.5
			c3.8-17.3,7.9-34.6,11.3-52.1c0.6-3-0.8-6.8-2.5-9.6c-1.6-2.8-4.8-2.4-6.9,0.2c-8.8,10.8-20.1,20.5-25.1,32.8
			c-3.3,8.1,9.7,15.2,14.5,23.3C1029,2173.4,1029.8,2176.2,1030.9,2178.8z M2670.7,1342.5c3.7,8.5-5.6,22.8,6.6,25.2
			c10.2,2.1,11.5-13.2,17.1-20.5c1.2-1.6,2.3-3.5,3-5.4c2.2-6.3,10.3-12.4,6.5-18.3c-4.3-6.6-14-4-21.4-4
			C2663.4,1319.4,2675,1334.7,2670.7,1342.5z M2839.8,1296.5c31.8,7.8,36,3.8,41.9-39.1C2854,1259.6,2852.1,1261.4,2839.8,1296.5z
			 M2881.9,1374.4c13.7-3.8,24.8-7,36-10.1c8.5-2.3,9.9-9.1,9.6-16.3c-0.3-8.1-7.3-6.3-12.4-7.6
			C2888.4,1333.9,2886.5,1353.4,2881.9,1374.4z M1409.2,2099.8c-12.2,36-12.2,36,9.1,49.5
			C1435.6,2115.1,1435.6,2115.1,1409.2,2099.8z M829.7,2045.5c36-32,36.1-33.1,6.3-59.5C831.7,2004.8,828.9,2023.2,829.7,2045.5z
			 M2927.9,1242.4c-7.2,19.5-13,34.7-18.6,50.1c-2.3,6.2-3.6,12.6,6.2,13.5c7.5,0.7,16,2.9,15.5-9.5
			C2930.4,1280.1,2932.9,1263.5,2927.9,1242.4z M866.4,2183.4c-11.4,8.4-18.7,18.3-25.7,31.8c15,0.7,27.6,1.3,43.5,2.1
			C877.7,2205.1,872.7,2195.6,866.4,2183.4z M2383,1404c-13.2,4.1-24.2,7.4-35.2,11c-4.1,1.3-7.6,4-7.8,8.6
			c-0.2,6.2,5.5,4.4,8.8,5.7C2370.3,1437.8,2379,1426.8,2383,1404z M1540.8,2001c0-3.6-2.1-7.4-6.3-8.5c-4.2-1.2-5.6,2.9-7,6
			c-3.7,8.1-7.7,16.2-10.9,24.5c-3.4,8.7,3.1,13.9,9.3,15.8c8.6,2.6,6.4-6.4,7.7-10.8C1536.3,2019.5,1538.2,2010.7,1540.8,2001z
			 M2259.4,1500.2c6.1-11.5,12.3-23,18.1-34.7c2-3.9,6.6-9-1.3-11.5c-5.4-1.7-11-1.9-13,5.8
			C2259.9,1472.8,2254.6,1485.4,2259.4,1500.2z M2691.3,1432.2c15.9-4.9,30.4-9.3,46.2-14.1
			C2706,1404.7,2699.1,1406.6,2691.3,1432.2z M2428.8,1404.3c-1.5-0.2-3-0.3-4.4-0.5c-4,8.5-8.2,16.9-11.9,25.5
			c-2.2,5.1-1.9,9.5,5,10.5c5.8,0.9,11.3,1.2,11.4-7.1C2428.8,1423.3,2428.8,1413.8,2428.8,1404.3z M1384.2,2219
			c8.6-9.3,10.9-18.7,14.9-27.2c3.1-6.6,0.4-11.2-5.4-12.9c-5.7-1.6-6,4.6-6.4,8.1C1386.3,2196.9,1379.7,2206.2,1384.2,2219z
			 M2771.7,1287.5c13.2,4.8,28.9,14.9,35.2-10.1C2793.5,1281.2,2782.6,1284.4,2771.7,1287.5z"/>
	</g>
</g>
</svg>
