<?xml version="1.0" encoding="utf-8"?>
<!-- Generator: Adobe Illustrator 23.0.0, SVG Export Plug-In . SVG Version: 6.00 Build 0)  -->
<svg version="1.0" xmlns="http://www.w3.org/2000/svg" xmlns:xlink="http://www.w3.org/1999/xlink" x="0px" y="0px"
	 viewBox="0 0 3000 3000" style="enable-background:new 0 0 3000 3000;" xml:space="preserve">
<style type="text/css">
	.st0{stroke:#000000;stroke-width:10;stroke-miterlimit:10;}
</style>
<g id="Layer_1">
</g>
<g id="Layer_2">
	<g>
		<path class="st0" d="M2331.4,2098.5c62.9,30.9,115.2,70,156.3,122.4c64,81.8,90.3,174.9,82.9,278.8
			c-11.2,156.5-78.7,282.1-206.2,372.4c-101.5,71.9-217.3,102.8-341.5,100.4c-103.8-2-205-17.3-297.2-69.2
			c-10.2-5.8-18.1-2.8-27.1,0.4c-142.2,50.4-284.2,45.4-422.5-10.8c-42.9-17.4-78.9-19.5-123.1-8.4c-187.7,47.4-367.7,18.6-537-71.4
			c-116.5-62-192.7-158.1-212.2-291.8c-17.1-117.8,14.4-225.7,75.5-326c36.7-60.1,83-111.9,138.1-155.7c10.2-8.1,12.3-12.2,1.2-22.6
			c-132.5-123-199.8-275.1-199.9-456.2c-0.3-287.3-3.4-574.7,0.9-861.9c3.8-250.2,123.7-432.8,345.7-547.1
			c80.3-41.4,167.4-59.7,257.8-59.7c337-0.3,674.1-0.8,1011.1,0.1c301.3,0.8,554.8,219.8,600.9,517.2c5.4,34.9,6.6,70.1,6.6,105.3
			c-0.1,278.3,0,556.7-0.1,835c-0.1,235.3-100.1,415.3-298.8,540.9C2339.8,2092.4,2337.2,2094.4,2331.4,2098.5z M1529.2,2125
			c165,0,330.1,0.3,495.1-0.1c166.9-0.4,308.6-60.5,421.3-184c106.4-116.6,151.1-255.8,144.9-412.6c-0.4-9-4.3-15.8-8.5-22.8
			c-108.1-177.2-264.5-272.6-473.4-279.1c-92.5-2.9-184.9-6.7-277.4-9.5c-175.6-5.4-351.2-12.5-526.9-5.6
			c-102,4-203.9,11.1-305.9,17.6c-169.5,10.8-339.2,16.9-508.9,23.1c-15.2,0.6-21.4,3-21.2,20.3c0.9,98.7-0.4,197.5,0.7,296.2
			c1.2,108,28.4,209.2,88.9,299.3c114.9,171.2,276.5,256.4,482.5,257.1C1203.3,2125.4,1366.2,2125,1529.2,2125z M2590.3,1424.7
			c0-10.6,0-14.7,0-18.9c0-240.3,0-480.7-0.1-721c0-31.2-4.1-62-10.4-92.5c-55.1-265.1-280.3-449.1-552.3-449.8
			c-332.2-0.8-664.4-0.3-996.6-0.2c-33.9,0-67.7,2.9-101,9.1C668.2,200.5,478.6,415.7,470.1,682c-5.4,168.3-1.2,337-1.7,505.5
			c0,12.1,4,15.2,15.6,14.7c82.1-3.8,164.2-7.2,246.3-10.2c12.3-0.5,17.1-3.2,14.7-16.9c-8.3-46.4-9.2-93.3-7.6-140.4
			C743.8,846,847.2,705.4,1025,642.8c106.4-37.5,217.2-45.3,328.3-49c166.4-5.4,332.8,0.3,499.2,5.1c96.6,2.8,193.3,6.8,288.1,28.1
			c83.6,18.8,158.3,53.2,209,126.6c53.4,77.3,69.5,164.1,64.6,256c-3.8,71.6-19.5,140.6-45.3,207.3c-4.9,12.6-4,18.6,9.3,25
			c41.2,19.9,78.5,46,113.2,75.9C2526.9,1348.4,2557.7,1383.4,2590.3,1424.7z M1919.5,2176.6c-32.5,0-65.4,3.7-97.3-0.8
			c-55.3-7.9-94,17.6-129,54.5c-17.7,18.7-31.6,40.2-43,62.9c-56.2,111.8-69.6,229.5-47.4,352.1c20.7,114.1,85.8,191.6,192.3,235.5
			c58.1,24,119.2,33.4,181.3,38.8c112.1,9.7,218.4-9,317.6-63.5c164.1-90.1,255.7-276.3,220.1-459.6
			c-25.9-133.5-114.2-216.2-236.9-266c-7.5-3-13.3-0.7-19.6,1.9c-28.8,11.8-58.5,20.7-88.7,27.8
			C2086.7,2179.5,2003,2176.7,1919.5,2176.6z M1316,858.8c4.6-3.6,8.9-6.9,13-10.4c40.8-34.9,85.3-64.2,136.5-80.6
			c124.9-40,242.5-27.9,348.3,54.7c10.5,8.2,17.1,9.5,27.8,0.7c23.5-19.3,50.3-33.5,78.5-44.7c64.8-25.8,130.6-32.5,194.6-0.3
			c88.5,44.6,127.5,122.3,135.5,217.5c5.1,59.9-4.9,118.4-24,175.2c-4.3,12.7-3.3,17.5,11.5,20.1c21,3.6,41.9,9.4,61.7,17.2
			c14.6,5.7,18.5,0.9,23.3-11.8c25.6-67.2,40.7-136.6,41.3-208.5c1.3-150.7-59.3-278.4-241.7-313.2
			c-82.4-15.7-165.5-21.6-249.1-23.9c-193.7-5.3-387.3-14.4-581.1-3.4c-91.2,5.2-181.4,16.4-267.6,49.4
			c-98.5,37.8-170.2,102.8-208.5,202.6c-34.7,90.6-33.5,183.6-20.2,277.6c1.2,8.5,4.7,12,13.4,11.5c27.6-1.6,55.2-3.1,82.8-4
			c12-0.4,15.2-3.9,11.4-16.1c-34.2-111.2-13.7-215.4,41.2-314.9c21-38.1,51.2-64.7,95.1-73.1c36-6.9,72.4-12.5,108.9-12.3
			C1219.6,768.6,1281.2,788.7,1316,858.8z M1583,1160.2c66.9,0.4,133.9,0.8,200.7,5c13.8,0.9,22.5-2.3,29.6-15.6
			c14.5-26.9,26.8-54.5,34.4-83.9c16-62,10.7-121-32.8-171.5c-58.3-67.6-134.6-96.4-222-97.4c-89.9-1-165.8,34.7-233.3,92
			c-19.1,16.2-26.8,30.3-18.5,57.4c20,65.1,38.1,131.4,22.9,201c-2.9,13.1,7,10.9,14,10.6C1446.5,1155.4,1514.7,1159.5,1583,1160.2z
			 M1672.3,2178.7c-3.9-1.2-5.2-1.9-6.4-1.9c-113.2-0.1-226.4,0-339.6-0.3c-8.3,0-14.3,2.4-19.9,8.4
			c-100.1,106.5-173.9,226.7-189.1,375.4c-11.9,116.8,26.2,211.8,132.9,266.4c99.7,51,205.7,68.6,316.8,56.5
			c32.6-3.5,64.6-10.4,102.7-24.4c-10.5-7.6-18.5-10.8-22.6-16.7c-11.8-16.9-24.4-17.4-43.7-11.6c-72.3,21.8-144.6,20-214.4-10.5
			c-185.5-81-221.3-324.2-68.1-462.1c77.7-69.9,170.7-101.5,273.8-107.1c9.1-0.5,19.6,3.2,25.9-7.9
			C1634.1,2219.5,1653.1,2200.3,1672.3,2178.7z M460.9,2370.5c-14.3,60.8-14,119.8-0.5,179.1c4.1,18.2,13.3,29.5,30,38.5
			c179.5,96.4,370.5,134.1,573.1,114.9c11.5-1.1,16.1-3.5,12.5-16.2c-10.7-37.5-13.1-76.1-10.4-114.8c1-14.4-3.5-18.3-17.3-20
			c-124.9-15.7-246.8-44.1-365.6-85.7C607.1,2439.9,534.2,2407.3,460.9,2370.5z M1000.4,1177.8c99.8-5.7,199.6-11.6,299.5-16.7
			c9.9-0.5,11.4-5.8,12.7-12.4c6.3-32,8.4-64.3,2.5-96.6c-9.5-52.2-25.1-102.9-39.1-154c-12.9-47.1-46.5-69.9-92.6-76.5
			c-46.4-6.6-92.1,1.2-137.5,9.8c-20.6,3.9-37.1,15.8-47.9,33.5c-51.8,85-75.3,175.4-49.7,274.6
			C958.5,1179.3,958.7,1179.3,1000.4,1177.8z M1276.2,2571.3c0.4,6,0.5,17.8,2.2,29.3c23.4,155.3,172.5,219.9,305.8,183.4
			c13.4-3.7,11.9-8.9,6.5-18.4c-15.4-27.1-26.1-56.1-32.9-86.6c-27.5-123.2-19.3-243.8,25.3-361.9c2.9-7.7,9-16-7.7-14.3
			c-76.5,8-146.8,32.2-206.8,81.2C1311.4,2430.7,1276.1,2489.3,1276.2,2571.3z M2200.9,1018.3c0.9-11.7-1.7-29.5-4.6-47.2
			c-13.5-82.3-71.6-148.5-144-160.3c-63.4-10.3-119.5,11.2-171.6,46.1c-13.3,8.9-20.3,16.2-7.4,31.7c10.5,12.7,16,28.8,21.2,44.6
			c24.7,75.1,9,146-23.4,214.5c-8.1,17-5,20.3,12.6,20.8c91.1,2.8,182.1,6.2,273.1,10.2c12.1,0.5,15.6-5.1,18.5-14.2
			C2190,1119,2200.3,1072.8,2200.9,1018.3z M1124.5,2354c-53.7,7.2-104.2,5.3-154.2-0.1c-151.2-16.1-288.8-68.7-411.3-159.1
			c-11.4-8.4-15.6-5.4-22.1,4.4c-20.6,31.1-38,63.8-53.4,97.9c-7.9,17.5-6.1,25.5,12,34.3c78.8,38.3,159,72.9,242.5,99.9
			c104.6,33.8,211.4,57.2,320.4,71.3c9,1.2,15.9,1.9,18.2-9.8C1085.8,2445.9,1103.4,2401.8,1124.5,2354z M1244.9,2176.6
			c-65.6,0-126.2-0.7-186.8,0.1c-136.1,1.8-262.3-30-375.1-108.3c-9.5-6.6-15.4-4.5-23.3,1.7c-25,19.7-48.1,41.3-70.5,63.9
			c-8.9,9-9.7,13.6,1.5,21.7c38.7,27.9,79.3,52.5,122.3,73.2c133.7,64.5,274.7,88.3,422.3,73.9c8.4-0.8,17.5,0.2,23.4-9.7
			C1182.5,2252.8,1211.3,2215.9,1244.9,2176.6z M514.1,2657.3c1.4,11,8.3,16.2,13.5,22c31.4,35.4,67.4,65.4,109.2,87.7
			c133.7,71.5,276,100.6,427,84.2c33.1-3.6,65.9-9.9,99.5-21.6c-21.3-21-41.1-40.3-54.5-64.6c-6.2-11.3-12.9-14.6-26-13.1
			c-137.3,15.1-272.7,5.3-405.7-32.8C621.5,2703.2,567.7,2682.4,514.1,2657.3z"/>
		<path class="st0" d="M1659.4,1643.3c0.2,101.8-82.1,184.7-183.7,184.8c-101.6,0.2-184.2-82.3-184.5-184.1
			c-0.2-102.1,81.6-184.2,183.8-184.3C1577.5,1459.5,1659.2,1540.9,1659.4,1643.3z M1608.1,1644.2c0.1-74.3-57.9-133.5-131.5-134.3
			c-73.3-0.8-133.5,58.7-133.7,132.1c-0.2,75.8,58,135.2,132.5,135.3C1548.9,1777.4,1608,1718.2,1608.1,1644.2z"/>
		<path class="st0" d="M2251.3,2454.8c0.2,102.1-81.6,184.8-183.4,185.2c-101.1,0.4-184.5-82.4-185.1-184.1
			c-0.6-102.4,81.9-184.1,186-184.3C2169.7,2271.5,2251.1,2353.2,2251.3,2454.8z M2200.7,2456.1c0.3-74.3-59.5-134.4-133.6-134.3
			c-73.3,0.2-132.5,59.3-132.9,132.9c-0.4,74.7,59,134.3,133.5,134.1C2141.4,2588.5,2200.4,2529.6,2200.7,2456.1z"/>
	</g>
</g>
</svg>
