<?xml version="1.0" encoding="utf-8"?>
<!-- Generator: Adobe Illustrator 23.0.0, SVG Export Plug-In . SVG Version: 6.00 Build 0)  -->
<svg version="1.0" xmlns="http://www.w3.org/2000/svg" xmlns:xlink="http://www.w3.org/1999/xlink" x="0px" y="0px"
	 viewBox="0 0 3000 3000" style="enable-background:new 0 0 3000 3000;" xml:space="preserve">
<style type="text/css">
	.st0{stroke:#000000;stroke-width:10;stroke-miterlimit:10;}
</style>
<g id="Layer_1">
</g>
<g id="Layer_2">
	<g>
		<path class="st0" d="M1576.1,2767.5c-175,3.3-304.8-1.6-433.2-31.7c-150.4-35.3-276.5-110.6-383.2-220.4c-14.6-15-26-19-46.5-12.3
			c-44.2,14.4-87.5,8.2-124.2-21.7c-35.3-28.8-71-26.9-109.1-8.4c-37.6,18.2-73.5,39.9-116.2,45.8c-59.8,8.2-97.6-13-118.6-68.8
			c-2-5.3-3.8-10.8-5.8-16.1c-11.7-30.2-18.4-32.5-46.1-15.9c-9.8,5.9-19.2,12.5-29.4,17.6c-44.9,22.5-85.5,4.6-101.9-42.8
			c-15.4-44.5-4.4-88.7-1.9-133.1c5.4-93.2,40.6-176.1,91.9-252c56.7-83.7,74.7-175.6,68.3-274.5c-4.9-75.1-9.8-150.2-13.3-225.4
			c-3.9-83.9,21-153.1,99.9-196.5c41.5-22.8,58.1-61.7,61.3-109.4c6.7-100.7,3.8-202.9,25.4-301.7
			c40.6-185.1,135.3-333.1,308.1-424.8c132.2-70.2,264.2-140.1,411-175.5c79.5-19.2,159.5-28.4,240-4.8c11.6,3.4,22.4,0.3,33.6-2.6
			c214.6-54.1,432.5-81.5,653.9-75c128.6,3.7,257.1,12.9,381.3,50.4c44.9,13.5,89.1,29.8,116.6,71.8c8.4,12.8,20.3,7.8,30.9,8.3
			c90.6,4.3,172.8,28.3,233.3,101.3c44.8,54.2,60.5,119.8,71,187.3c18.4,118,27.3,236.1,18.2,355.9c-2.9,37.9,11.5,76.8,16.1,115.5
			c20.2,171.1,13.8,342.7,7.8,514.2c-6.2,179-15.4,358-25.4,536.9c-5.1,90.4-17.3,180-39.8,268.1c-27.1,106.1-91.8,176.9-193.8,216
			c-84.3,32.3-172.1,49.8-260.9,60.8C2108.7,2739.3,1820.3,2753.5,1576.1,2767.5z M2844.1,898c6-7.5,3.8-16.5,3.7-24.7
			c-0.9-92.7-11.4-184.7-30.8-275.1c-27.8-129.4-96.7-187.4-228.3-201.1c-25-2.6-40.8,0.4-48.9,27.6c-4.4,14.8-16.3,27.7-26,40.6
			c-67,89.1-117.9,186.6-149.5,293.6c-6.2,20.9-15.9,17.5-31.1,13.2c-15.5-4.4-21.5-8.9-15.7-27c24.1-74.7,53.7-146.8,95.3-213.3
			c24.7-39.5,52-77.5,77.8-116.4c21.1-31.9,17.3-50.4-14.9-71.3c-25.8-16.8-54.2-27.7-83.8-35.6c-92.5-24.8-187.3-33.6-282.3-40.2
			c-148-10.4-295.3-1.1-442.1,17.9c-79.2,10.2-157.7,25-238.7,46.1c36.8,32.8,65.2,68.1,82.4,111.4c35.6,89.6,13.1,158.3-70.3,206.2
			c-59.4,34.1-119.9,66.6-185.5,87.8c-94.9,30.5-175.6,82.7-238.4,160.1c-17.8,21.9-31.2,28.3-50.6,4.9c-2.4-2.9-5.7-4.9-9.2-7.8
			c70.4-91.9,157.7-159.7,267.7-196.9c75.2-25.5,146.1-59.8,212.9-102.7c31.2-20.1,43.3-48.7,40.8-85.3
			c-5.4-79.3-71.1-153.4-156-172.9c-66.7-15.3-132.9-7.1-198.1,9c-140.9,34.8-268,101.6-395.5,168.6
			c-159.4,83.8-246.5,218.9-287.7,388.5c-16.1,66.1-10,134.9-20.3,201.6c-7.6,48.9,13.1,80.1,47.5,107.7
			c16.4,13.2,34.5,23.3,54.3,31.1c23.3,9.2,3.4,24,2.6,35.8c-0.8,13.2-9.5,12.6-20.5,8.5c-33.6-12.4-62-32.8-90.4-57.8
			c-11.9,63.5-49.3,105.6-101.9,135.8c-30,17.3-46.9,43.9-53.2,77.4c-4.9,26.3-7.1,52.8-4.8,79.7c5,59.8,9.6,119.7,13.8,179.6
			c8.5,122.9-9.8,238.8-83.1,342.5c-64.6,91.5-84.9,196.6-81.9,306.5c1.3,49.2,16,55.5,57.8,30c63.6-38.8,99.4-26.8,125.4,42.1
			c18.1,47.9,38.5,58.1,87.8,44.5c30.5-8.5,57.2-25.4,85.7-38.4c54-24.9,105.8-27.9,154.8,12.1c28.6,23.2,60.8,24.4,94.6,13.3
			c24.8-8.1,46-22.6,67.7-36.4c59.6-38,92.9-85.3,94.7-162.6c3.3-141.6,68.2-258,178.3-347.2c88.2-71.5,190.5-106.1,304-106.9
			c7.9-0.1,19.6-6.4,23.1,8.7c5.8,25.2-4.2,38.4-30.2,38.5c-185.1,0.7-358.1,130.3-411.4,307.8c-4.1,13.6-4.5,24.5,6.1,36.5
			c100.9,115.2,227.2,175.6,380.6,180.6c130.4,4.2,252.7-27.9,369.8-81.6c22.5-10.3,24.4,2,32.9,15.1c11.8,18.4-0.4,21.8-13.1,27.8
			c-113.3,53.7-232.1,85.6-357.7,87.2c-158.4,2.1-297.7-47.1-412.3-159.4c-6.4-6.3-11-15.5-21.6-17.2c-6,6.8-4,14.9-3.3,21.9
			c7.4,72.1-23.5,125.2-80.8,165.6c-10.1,7.1-19,16.3-29.6,22.4c-19.1,11-20.8,19-3.8,36.4c145.6,147.9,326.5,211.2,529.1,225.2
			c129.8,9,259.1,2.2,388.5-5.7c230.2-13.9,460.5-26.1,689.1-58.2c84.9-11.9,169-28.1,248.6-62.2c72.1-30.9,119.1-83.1,140.8-158.7
			c22.2-77.3,32.1-156.6,40-236.3c11.9-118.6,14.6-237.8,19.6-356.8c9.2-219,23-438.1,8.5-657.4c-4.7-71.3-12.3-142.4-39.3-209.7
			c-20.8-52-57.6-83.8-113.2-93.6c-72.5-12.7-140,5.8-204.2,36.2c-84.8,40.2-141.2,108.3-175.3,194.8c-9.5,24-22.2,9.1-35.1,7.1
			c-18.7-3-13.9-13.5-9.5-24.7c28.8-72.3,71.9-134.1,134.7-181C2565.9,806,2719.4,801.3,2844.1,898z"/>
		<path class="st0" d="M1433.5,931.4c75.1-1.3,148.1,5.8,213.7,48c125.4,80.8,159.3,201.5,89.3,333.2
			c-73.2,137.8-191,208.5-345.5,218.3c-91.7,5.8-183-1.9-272.8-20.8c-97.7-20.6-161.9-76.9-178.7-179.2c-1.6-9.9-3.5-12.6-15.9-11.4
			c-68.2,6.6-136.8,9.6-205,16.9c-22.1,2.4-22.8-7.9-25-23c-2.6-18.1,3.7-25.5,22.4-26.5c62.7-3.5,125.4-9.1,188.2-12.3
			c23.1-1.2,34.4-6.8,38.8-32.9c10.4-61.2,44.9-111.2,87.9-154.1C1134.9,983.6,1251.4,927.1,1433.5,931.4z M1714.5,1124.9
			c-14.3,11.5-25,20.6-36.2,29.2c-83.9,64.6-176.2,109.7-283.5,116.5c-128.3,8.2-256.7,15.3-385.2,20.8c-23.3,1-26.9,8.3-24,28.3
			c10.4,71.8,50.8,118.3,119.8,137.5c86.9,24.2,176.5,29.3,266.2,26.6c152.2-4.6,265.5-72.6,331.9-212.2
			C1725.1,1226.3,1730.3,1178.9,1714.5,1124.9z M1172.9,1235.3c0,0.1,0,0.2,0,0.3c56.1-2.6,112.2-6.1,168.3-7.6
			c125.9-3.5,235.2-47.9,330.6-129.5c17-14.6,16.5-24.1,1.6-37.8c-33.2-30.7-68.7-60.2-113.5-68.8c-135.8-26.1-269.4-22.9-393.1,49
			c-73,42.4-132.6,98.8-168.4,177.3c-8.9,19.4-9.1,28.3,17.7,25.9C1068.2,1239.2,1120.6,1238,1172.9,1235.3z"/>
		<path class="st0" d="M1997.2,2586.4c-65.5,1.7-134-9.1-202-24.9c-16.3-3.8-25.5-9.4-19.4-28.9c5.4-17.2,10.5-23.6,31.6-18.2
			c146.3,37.3,292.6,33.6,437.2-8.8c120.2-35.3,214.1-108.1,276.8-216.3c58.7-101.3,97.8-210.5,106.1-328.5
			c9.7-136.6-30.2-258-119.4-361.7c-18.7-21.8-3-28,7.9-39.9c17.3-18.9,22.2,1.7,28.9,9.7c124.5,149.2,159.1,319,112.3,505.8
			c-27.6,110.5-67.1,216.6-141.2,305.7c-101.8,122.5-236.2,181.7-391.8,198.9C2083.5,2583.9,2042.7,2587.1,1997.2,2586.4z"/>
		<path class="st0" d="M1717.5,1541.8c141.7,7.1,283,43.8,404.1,137.5c126.8,98.2,165.5,229.1,125,382
			c-41.1,154.8-140.9,264.9-275.7,346.3c-15.1,9.1-21.7,3.9-28.4-9.6c-6.5-13.1-14-22,5.6-33.4c106-61.5,186.8-146.6,234.2-260.9
			c31.5-76,42.5-154.1,19.2-234.5c-25.2-86.9-85.1-145.5-161.6-187.7c-123.4-68.1-254.8-104.3-397.1-87.2
			c-25.1,3-15.3-15.5-19.2-25.3c-4.9-12.4-3.6-22.4,13.3-23.2C1660.8,1544.8,1684.5,1543.4,1717.5,1541.8z"/>
		<path class="st0" d="M887.4,1681.6c4.3,17.7-3,21.9-20.4,23.5c-200.3,19-280.1,182.7-287.6,304.1
			c-7.5,121.8-69.1,206.5-172.6,264.7c-11.9,6.7-23.8,14.6-30.9-6.5c-4.8-14.2-14-24.8,7.6-36.1c97-50.8,143.9-131.9,150.3-241.7
			c10-174,160-322,329.4-332.2C883.7,1656.1,892.1,1660.9,887.4,1681.6z"/>
		<path class="st0" d="M1042.2,1733.3c5.7,0,12-1.6,17,0.3c9.3,3.6,28.8-3.7,23.8,16.9c-3.6,14.8,0.3,35.9-30.8,31.1
			c-46.9-7.2-87.2,16-123.7,42.8c-97.2,71.2-165.7,164.2-205.8,277.9c-14.2,40.3-25.9,81.6-46.2,119.6
			c-20.1,37.7-47.9,68.3-82.2,93.7c-11.5,8.5-19.6,6.5-24.2-6.1c-3.7-10.2-24.3-18.7-4.3-32.4c50.6-34.6,77.8-85.2,94.9-142
			c41.5-138,114.5-254.6,230.2-342.4C935.7,1758.8,984.1,1733.4,1042.2,1733.3z"/>
		<path class="st0" d="M603.8,1279.9c6.6,0,13.3,0.8,19.8-0.1c19.3-2.7,26.1,4.1,26,24.6c-0.1,19.7-7.7,24.1-25,22.7
			c-15-1.1-30.3-1.3-45.2,0c-18,1.6-24.7-4-24.2-23.2c0.5-17.3,3.5-26.9,23.2-24.2C586.7,1280.9,595.4,1279.9,603.8,1279.9z"/>
	</g>
</g>
</svg>
