<?xml version="1.0" encoding="utf-8"?>
<!-- Generator: Adobe Illustrator 23.0.0, SVG Export Plug-In . SVG Version: 6.00 Build 0)  -->
<svg version="1.0" xmlns="http://www.w3.org/2000/svg" xmlns:xlink="http://www.w3.org/1999/xlink" x="0px" y="0px"
	 viewBox="0 0 3000 3000" style="enable-background:new 0 0 3000 3000;" xml:space="preserve">
<style type="text/css">
	.st0{stroke:#000000;stroke-width:10;stroke-miterlimit:10;}
</style>
<g id="Layer_1">
</g>
<g id="Layer_2">
	<g>
		<path class="st0" d="M2380.6,1354.2c135.7,88.6,236.9,201.8,298.3,346.9c158.3,374.2,54.9,888.4-416.6,1088.9
			c-90.5,38.5-185.3,58.4-283.4,58.6c-376.8,0.8-753.6,2-1130.4-0.1c-393.6-2.1-725.2-308.4-763.9-701.5
			c-21.5-218.1,16.6-421.5,151.7-599.5c121.9-160.5,282.1-261.6,480.9-298.7c26.8-5,34.5-10,26.2-40.2
			c-39.1-143.2-49.7-288.8-11.3-433.5c56.3-212.3,202.3-341.1,404.3-408.8c256.2-85.9,505.7-51.5,748.4,56
			c40.8,18.1,79.8,40.3,124.7,63.2c-10.3-24.3-18.2-44.3-27.2-63.9c-11.8-26-20.1-53.4-16.6-81.4c2.6-20.9-4.2-30.1-21.4-39.5
			c-253.4-138.6-523.6-185.6-809.7-154.2C993.3,162.1,855.5,189.1,730,259.3C504.7,385.1,394.6,580.9,386.7,836.4
			c-4.9,159.4,34.6,309.5,100.5,453.2c10.6,23.1,3.2,29.6-15.5,40.3c-23.9,13.6-25.2-5.9-30.4-17.4
			c-89.2-199.1-134.1-405.9-88.3-622.7c57.5-272.1,230-444.5,488.7-533.8c189.6-65.4,386.4-76.6,584.5-63.4
			c190.5,12.7,368.7,70.7,536.2,161.8c13,7.1,20.4,9.8,31-5.4c42.5-61.2,103.1-79.1,174-65.3c19.2,3.7,36.8,4,55.6-1.4
			c54.5-15.6,110.5-21.3,166.6-13.3c104.8,14.8,175.6,73,210,173.4c6.5,18.8,13.4,23.4,33.9,19.2c50.7-10.5,101.5-23.9,154.4-15.1
			c43.9,7.3,78.4,29.1,104.4,64.6c65.2,89.4,66.6,251,3.7,341.7c-45.1,65.1-110.1,89.6-186,92.6c-12,0.5-24.3,1.3-36-0.5
			c-20.5-3.3-27.1,2.4-26.9,24.5c0.7,76.2-3.3,152.4-25.2,226.1c-5,16.9,2.8,19.6,14.8,20.5c94.5,7.3,186.1-5,244.7-126.4
			c9.7-20,35.4-25.3,50.8-10c9.9,9.8,0.2,19.2-3.2,27.2c-44.7,106.9-148.3,173-266.3,159.8c-50-5.6-79.9,2.4-104.2,47.6
			c-17.8,33.2-49,58-79.4,81.2C2449.7,1317.8,2418,1337,2380.6,1354.2z M1391.2,2799.6c189.4,0,378.8,1.9,568.1-0.5
			c253.5-3.1,456.8-107.8,604.5-314.1c117.2-163.7,146.4-349.4,127-546.1c-35.9-365.2-352.1-653.3-718.6-653.4
			c-372.7-0.1-745.5-0.4-1118.2,0.1c-162.8,0.2-310.5,50.1-437.4,151.2c-259.9,207.2-332.5,483.2-265.8,796.7
			c71,334.1,367.8,563.7,711.3,565.8C1038.5,2800.5,1214.9,2799.6,1391.2,2799.6z M2252.2,229.3c30.1,35.3,39.2,76.1,43,118.3
			c7.8,86.7,15.2,173.4,21.6,260.1c4.8,64.8,14.6,130.2,10.4,194.6c-9.1,140.9-34.1,279.9-71.2,416.4c-5.5,20.2-19.4,43.1-14.2,60
			c6,19.4,37.1,18,54.9,30.3c20.5,14.1,39.5,11,61.3,0.7c148.4-70,229.8-184.1,236-350c5.3-144.3-4.3-288.2-11.5-432.1
			c-2.4-48.2-8.8-95.7-21.5-142.1C2522.7,245.5,2395.1,179.8,2252.2,229.3z M2275.6,721.8c-11-134.1-20.4-255.9-31.4-377.6
			c-3.5-38.5-13.3-75.5-49.8-97.9c-41.5-25.4-103.1-22.2-138.7,7c-37.6,30.9-55.1,90.8-30.9,136.7c60,114.1,60.3,237.5,60.4,360.5
			c0.1,156.4-18.3,311.7-41,466.3c-2.7,18.4,2.9,23.1,18.6,24.6c37,3.5,73.3,11,108.9,21.3c13.5,3.9,19.9,2.4,23.7-11.8
			C2242.5,1073.4,2283,895.1,2275.6,721.8z M2722.1,794.5c51.6,0,115.9-23.5,148.3-99c34.4-80.1,28.8-160.3-8.6-238
			c-21.1-43.8-58.1-64.2-106.9-63.5c-38.9,0.6-76.8,9.3-115,14.8c-11.3,1.6-19.7,7.3-17.1,24.3c15.8,103,15.2,207.3,20.5,311.1
			C2645.8,794.8,2645.7,794.9,2722.1,794.5z M1339.3,1037.6c-5-2.9-8.8-4.5-12-7c-41.8-32.7-83.8-65.1-124.9-98.6
			c-11.9-9.7-17.5-2.1-24.9,4.5c-54.9,49.7-109.6,99.8-165.1,148.9c-11.9,10.5-9.7,16.4,0.7,25.5c38.2,33.9,76.2,68,113.5,102.8
			c10.3,9.6,16.3,9.3,26.6-0.4c56.6-53.8,114-106.8,171.1-160.1C1328.6,1049.5,1332.3,1045.1,1339.3,1037.6z M1019,721
			c4.4-2.8,7.9-4.7,11-7.1c57.5-44.7,114.9-89.7,172.6-134.1c12.2-9.4,8-14.5-1.6-22.3c-40.3-32.8-80.3-65.8-119.7-99.6
			c-10.4-8.9-18.5-8-29.3-2c-63.5,34.9-121.2,77-168.8,132.3c-11.5,13.3-10.2,20.4,3.2,30.6c38.1,29,75.3,59.2,113,88.8
			C1005.6,712.4,1012.4,716.5,1019,721z M1151.2,891.7c-40.9-32.2-80.3-62.9-119.3-94.2c-8.8-7.1-15-10-25.7-1.7
			c-56.5,44.7-113.6,88.6-170.8,132.4c-9.8,7.5-9.7,12.3-0.6,20.4c38.8,34.7,77.2,69.9,115.5,105.1c7.5,6.9,13.5,9.1,22.5,0.8
			C1031.6,1000.3,1090.9,946.6,1151.2,891.7z M1375.1,1003.8c4.2-3,8.5-5.3,12-8.5c49.8-46.2,99.3-92.7,149.4-138.5
			c10.6-9.7,7.7-15.3-1.9-23.1c-38-30.8-75.5-62.2-113.1-93.5c-9.4-7.8-16.7-10.9-27.9-0.5c-49.6,46.4-99.9,92-150.5,137.3
			c-11.5,10.3-10.3,15.6,1.6,24.6c39.7,30.2,78.5,61.6,117.7,92.5C1366.2,997.1,1370.1,1000,1375.1,1003.8z M1586.7,879.8
			c-3.9,3.1-7.2,5.4-10.1,8c-49.1,45.6-97.9,91.6-147.5,136.7c-12.7,11.5-7.2,17.3,2.9,25.2c37.1,28.9,74.4,57.5,110.5,87.6
			c12.6,10.5,19.3,7.6,29.3-2.6c43.6-44.2,87.5-88.1,132-131.3c11.8-11.4,14.3-18.5-0.2-29.9c-33.8-26.5-66.4-54.6-99.7-81.9
			C1598.7,887.2,1592.7,883.8,1586.7,879.8z M1059.6,754.7c40.7,32.3,79.8,63.1,118.5,94.3c9.1,7.3,15.1,4.8,22.9-2.3
			c50.9-46.5,101.9-92.8,153.4-138.5c11.9-10.5,9.3-16.5-1.7-25.3c-28.2-22.2-56.1-45-83.2-68.6c-10.3-9-17.6-9.4-28.2-1.1
			C1181.8,660,1121.8,706.3,1059.6,754.7z M1444.7,693.7c44.7,37.2,88.4,73.4,131.7,110c9,7.6,13.7,2.1,19.7-3.6
			c41-38.2,81.9-76.3,123.3-114c10-9.1,9.2-15.2-0.4-23.8c-36.3-32.9-72.3-66.2-108-99.7c-8.3-7.8-14-7.6-22.5,0.2
			C1541.6,606.1,1494,648.9,1444.7,693.7z M2034.8,658c-2.5-23.9-7.2-41.1-5.5-57.7c3.7-36.2-15.6-54.6-44.7-69.2
			c-11.5-5.8-18.6-7.2-28.6,2.3c-45.6,43.6-91.5,86.7-138,129.3c-9.9,9.1-9.8,14.1,0.1,22.9c31.4,27.9,62.6,56.1,92.6,85.5
			c12.4,12.2,19.3,7.5,29-2.4c25.8-26.6,51.9-52.8,78.8-78.3C2030.4,679.2,2037.2,667.5,2034.8,658z M1624.8,843.2
			c40.3,33.5,79.8,65.5,118.3,98.7c12.7,10.9,18.8,3.7,27-4.5c34.7-34.7,69.2-69.6,104.5-103.7c10.7-10.3,13.3-16.9,0.7-28
			c-31.6-27.7-62.4-56.4-92.8-85.5c-10.4-9.9-16.9-9.4-27.1,0.4C1712.7,761.5,1669.4,801.5,1624.8,843.2z M1637.7,518.8
			c40.3,37.3,79.6,72.9,117.9,109.5c11.4,10.9,17.9,6.6,27.1-2.1c41.5-39.1,83.3-77.9,125.6-116.2c12-10.9,10.2-16.2-3.6-23
			c-46.7-23-94.4-43.5-143.5-60.7c-10.1-3.5-18.7-3.7-27.5,4.5C1702.5,460.1,1670.5,488.8,1637.7,518.8z M1690.6,1235.6
			c18.8-1.9,33.1,2.6,44.7-9.6c36.7-38.4,73.9-76.3,111.1-114.2c6.8-6.9,9.1-12.1,0.2-19.3c-25.7-20.8-51.1-41.9-76.3-63.2
			c-8.2-6.9-14.3-7.8-22.7,0.7c-45.8,46.3-92.3,92-138.2,138.1c-4.3,4.3-14.3,10.3-4.9,16.6
			C1633.4,1204.2,1653.5,1240.1,1690.6,1235.6z M1213.4,1234.9c73.2,0,143.3-1.9,213.3,0.8c33.5,1.3,56.2-10.2,78.2-33.7
			c14.9-15.9,11.6-22.9-3.3-34.1c-35.2-26.5-70.4-53.1-103.5-81.9c-15.6-13.6-24.9-9.7-37.3,2.2c-42.8,40.7-86.3,80.7-129.2,121.4
			C1224.9,1215.9,1214.8,1220.2,1213.4,1234.9z M1562.3,522c-4.8-6.4-6.7-9.9-9.5-12.5c-24.1-22.4-48.6-44.4-72.5-67
			c-9.9-9.4-16.4-1.7-23.1,3.4c-49,37.7-97.6,75.9-146.7,113.5c-12.4,9.5-11,15.1,0.9,24.3c26.8,20.8,53,42.3,78.1,65.2
			c12.6,11.5,20.2,9.6,31.8-1.3c40.7-38.2,82.4-75.4,123.9-112.8C1550.3,530.1,1556.4,526.4,1562.3,522z M1120.1,425.1
			c44.6,36.9,84.8,69.7,124.5,103.1c8.4,7.1,15,7.7,23.6,0.9c51.1-40.2,102.5-80.1,153.8-120.1c5.3-4.1,13.5-7.9,4.4-15.7
			c-11.1-9.4-18.9-23.4-36.8-22.9C1298.9,373.1,1211.3,390.4,1120.1,425.1z M765.2,869.3c-3.2,11.7,3.1,21,13.9,28.3
			c12.4,8.3,18.1-3.8,25.2-9.2c52.3-40,103.8-81.1,156.6-120.5c15.2-11.4,13.3-17.2-0.4-27.5c-35.8-27-71.3-54.7-105.8-83.3
			c-13.3-11.1-17.5-4.6-23.9,6.4C794.1,726.6,774.6,795.2,765.2,869.3z M1891.9,1062.8c4.8-4.6,9.2-8.5,13.4-12.7
			c14-14.2,28.5-28,41.7-42.9c21.6-24.4,64.4-45.6,61.2-72.1c-3.1-25.1-43.1-45.7-66.9-68.3c-0.7-0.7-1.6-1.3-2.2-2
			c-8.1-9.5-15.4-9.8-24.7-0.4c-35.7,36.2-71.9,72-108.1,107.7c-7.4,7.3-11.4,12.7-0.7,21.2c25.7,20.4,50.7,41.9,76,62.9
			C1884.4,1058.6,1888,1060.3,1891.9,1062.8z M797,1213.2c40.3-36.4,77.9-70.6,115.8-104.4c8.7-7.8,9.3-13,0.1-21.2
			c-39.5-35.2-78-71.5-117.7-106.5c-15-13.3-35.5-4.9-34.7,15.3C763.4,1069,774.4,1140.4,797,1213.2z M851.9,1232.4
			c77,0,145.9,0,220.7,0c-36.9-33.4-69.4-62.5-101.5-92c-8-7.4-13.6-4.7-20.3,1.5C919.5,1170.8,887.9,1199.5,851.9,1232.4z
			 M1796.8,1235.1c66,0,121.6,0.1,177.3-0.1c6.6,0,14.9,2.2,17.4-7.1c2.2-8.3,0.1-15.4-7.1-21.2c-26.3-21.4-52.4-42.9-78.4-64.7
			c-7.6-6.3-13.1-6.3-20.1,1.1C1858.6,1171.9,1830.8,1200.1,1796.8,1235.1z M1686.3,405.4c-44.8-14.3-86.7-20.5-128.6-27.1
			c-18.4-2.9-31.2,10.1-39.1,22.5c-7.5,11.6,9.8,16.7,16.5,23.6c16.7,17.1,35,32.5,52.4,48.8c7.1,6.6,13,11.7,22.5,2.7
			C1634.3,452.8,1659.1,430.4,1686.3,405.4z M2017.3,1015.4c-26.4,24.4-52.5,48.5-78.6,72.8c-4.7,4.4-8.3,9.3-1.2,14.5
			c21.3,15.5,38.5,36.6,64.8,48.9C2007.1,1103.9,2017.7,1059.4,2017.3,1015.4z M2031.4,752.3c-77.4,57.5-77.7,62.9-8.6,120
			c1.1,0.9,3.5,0.3,8.6,0.7C2031.4,833.2,2031.4,793.6,2031.4,752.3z"/>
		<path class="st0" d="M1531.1,1598c125.3-1.2,250.7-2,374.8,18.5c172.2,28.5,309.1,107.2,378,276.9
			c37.1,91.4,41.7,187.3,31.4,283.9c-10.4,98.1-36.8,192.4-76.2,282.9c-5.5,12.6-7.7,28.4-28.3,16c-14.1-8.5-30.2-10.1-19-35.5
			c51.9-117.6,80.4-240.4,77.7-370c-0.6-29.4-9.8-36.8-36.4-30.6c-10.6,2.5-21.9,2.4-32.9,3c-53.4,2.8-52.6,2.8-57.7,54.8
			c-11.6,117-14.9,234-0.8,350.9c3.3,27.3-14.6,21.7-28.4,25.9c-19.5,5.9-21.6-6-23-20.3c-12.5-126.1-11.3-252.1,4.7-377.7
			c3.2-25.1-4.3-28.1-26-25.7c-31.8,3.5-64,4.9-96,5.2c-18.1,0.2-23.3,6.9-24.8,24.6c-10.7,124-13.5,248.1-6.2,372.3
			c0.9,16-0.3,32.3,2.5,48c4.9,27.5-14.1,24.3-30.5,27c-22.1,3.7-18.5-11.7-19.4-24c-9.5-138.2-8.1-276.3,2.5-414.3
			c1.7-21.9-1.1-31.2-25.4-28.7c-27.9,2.8-56.1,3.3-84.1,2.8c-20-0.4-24.7,7.7-24.4,26.6c1.4,118.2,1.3,236.5,2.7,354.7
			c0.2,19.2-2.5,29.5-25.4,29.3c-19.3-0.2-25.6-5-25.5-25.2c0.4-117.2-1.5-234.5-0.6-351.7c0.2-25.5-7.5-32.4-32.1-31
			c-39,2.2-78.2,2.8-117.2,0.6c-26.4-1.5-30.7,8.2-30.5,32.1c1.1,142.3,0.4,284.6,0.7,426.9c0,17.8,2.2,32.3-25,31.8
			c-25.3-0.5-26.7-11.9-26.6-31.4c0.5-143.3-0.3-286.6,0.8-429.9c0.2-24-7.1-30.8-30.4-29.6c-34,1.7-68.1,0.7-102.2-0.7
			c-18.3-0.8-26.5,3.1-27.5,24c-6.9,137.8,10.5,271.7,60.3,400.9c8.7,22.6-8.1,45.9-31.2,43.7c-10.6-1-9.8-11.2-12.4-18
			c-49.7-126.4-73-257.5-67.3-393.3c2.5-60.1,3.8-60.1-56.6-61.6c-47.2-1.2-46.2-1.3-41.2,46.1c15.1,142.9,44.8,282.6,93,418
			c8,22.5-3.1,26.2-19.6,33c-19.4,7.9-23.3-1.2-28.6-16.7c-49.3-143.5-82-290.4-95.1-441.6c-3.7-43.1-3.8-42.9-47.4-44.8
			c-27-1.1-54.3-1.2-80.9-5c-24.7-3.6-28.5,6-26.7,27.7c9.1,110.9,23.3,221,50.5,329.1c10.5,41.7,21.3,83.4,35,124.1
			c9,26.9-13.5,20.9-24,27c-13.7,7.9-20.4,1.5-25-12.8c-47.6-151.5-77.1-306.4-84.8-465c-1.4-29.2-10.5-37.5-38.1-37.6
			c-36-0.2-72.1-3.4-107.8-7.6c-20.9-2.5-28.1,0.7-26,24.2c13.1,149.8,46.6,294.4,108.6,431.7c10.9,24.2,0.6,29.4-17,38.8
			c-23.6,12.6-24.1-6.2-29.6-18.6c-65.4-146.8-100.2-301.1-112.6-460.7c-1.2-15.2-3-23.8-20.7-25.1c-39.9-2.9-79.8-7.2-119.5-12.2
			c-18.7-2.3-26.3,3-29.3,22.7c-17.3,113.1,7.6,219.3,53,321.4c12.1,27.1,2.5,34.5-19.7,42.1c-10.5,3.6-15.9,3.8-20.9-7.4
			c-50.7-113.5-80.8-231-62.5-356c17.6-120.1,83.2-210.5,182.7-277.4c102.7-69,218.7-102.1,338.5-124.5
			C1176.4,1601.8,1353.8,1601,1531.1,1598z M1705.3,1872.1c79-3.8,135.9-7.5,192.9-8.8c18-0.4,25.3-6.3,26.6-23.4
			c3.3-45,13.2-88.9,23.3-132.7c5.7-24.7-1.6-33.1-25.7-37.3c-121.8-21.2-244.7-23.4-367.8-22.6c-16.7,0.1-19.7,7.3-19.6,21.8
			c0.6,59,1.3,118.1-0.3,177.1c-0.6,22.3,8.1,26.5,27.7,26.2C1617.3,1871.5,1672.3,1872.1,1705.3,1872.1z M1367.8,1649.3
			c-53.2,0.9-106.1,6.8-159.1,9.3c-13.7,0.6-26.1,1.3-27.5,19.7c-4,50.9-8.1,101.8-13.2,152.5c-2,19.3,7.2,23.9,23.8,24.9
			c90,5.4,179.8,12.7,270,14.2c17.6,0.3,22.4-5.6,22.2-22.2c-0.7-59.1-0.7-118.2,0-177.3c0.2-17.5-6.5-22.2-23.2-21.5
			C1430,1650.2,1398.9,1649.3,1367.8,1649.3z M1074.9,1844.1c42.4,2.6,41.8,2.5,44.3-30.1c3.3-42.7,7.4-85.3,11.7-127.9
			c1.3-13,1.2-21.1-16.2-18c-34.3,6-68.9,10.8-103.5,15.1c-15.2,1.9-19.7,11-21.3,24c-4.2,34.6-8,69.3-13.2,103.8
			c-2.6,17,3.6,22.5,20,23.9C1026.5,1837.1,1056.1,1841.7,1074.9,1844.1z M921.2,1932.1c0-8-1.4-16.3,0.3-24
			c6.1-28-8.5-35.3-32.9-38.1c-37.7-4.3-75.3-10.7-112.7-17.6c-15.8-2.9-24.7-1.3-25,17.5c-0.5,32-2,64-3.6,96
			c-0.7,13,4.5,16.9,17.3,17.5c29,1.5,57.9,4.2,86.7,7.4C918.4,1998.4,918.4,1998.6,921.2,1932.1z M1996.9,1856.6
			c42.4-4.2,81-8.7,119.7-11.6c14.3-1.1,25.5-3,27.5-20.1c2.1-18.1,19.2-35.2-2.8-53.8c-36.3-30.6-76.3-53.7-119.9-71.9
			c-18-7.5-21.8-1.8-24.4,15c-6,38.4-13.3,76.6-21.3,114.6C1971,1851.1,1976.1,1861.9,1996.9,1856.6z M1626.6,1922.4
			c0,0.2,0,0.4,0,0.5c-7,0-14,0-21,0c-74.1,0-74.1,0-70.4,74.4c0,1,0.1,2,0,3c-1.2,12.4,3.5,18.2,16.9,17.9
			c48.1-1.1,96.1-1.7,144.2-2.1c12.6-0.1,16.6-5.6,17.9-18.1c7.8-76.8,7.7-77.2-69.5-75.7
			C1638.6,1922.5,1632.6,1922.4,1626.6,1922.4z M1043.8,2004.1c0,1,0,2,0,3c18.9,0,37.9,0,56.8,0c9.1,0,18.9,1,17.9-13
			c-2-30.7,3.7-65-8.5-90.8c-8.1-17-44-8.8-67.4-12.1c-17.8-2.5-35.7-4.2-53.5-6.5c-8.1-1-17.5-3.2-17.8,8.9
			c-0.6,33.9-7.8,70.4,2.7,100.6c6,17.4,43.8,4.6,66.7,9.7C1041.8,2004,1042.8,2004,1043.8,2004.1z M2029.6,2003.7
			c23.4-5.2,57,8.4,72.8-9.4c15.1-16.9,13.3-48.9,18.9-74.2c0.4-2,1.1-3.9,1.6-5.8c3.5-13.8,0.8-20.5-16-18
			c-25.7,3.8-51.7,5.7-77.7,8c-66.8,5.8-65.7,5.8-73.5,72.7c-3.1,26.5,5,33.9,29.9,29.7C1999.5,2004.4,2013.7,2004.7,2029.6,2003.7z
			 M680,1976.5c16.3,0.8,16.8,0.8,17.6-20.5c1.1-28.9,1.7-57.8,1.9-86.7c0.1-10,9.7-24.7-4.2-29c-16.9-5.2-36-16.2-53.8-1.2
			c-35.7,30-62.3,66.9-82.6,108.6c-5.4,11.1-3.9,16,9.3,17.2C604,1968.2,639.6,1972.3,680,1976.5z M928,1701.2
			c-54.6,14.2-107,30.4-156.4,54.6c-13.9,6.8-11.2,22.2-11.8,34.8c-0.4,9.4,7.4,10.4,14.5,11.5c45.3,6.9,90.6,13.5,135.8,21
			c11.7,1.9,16.2-1.5,17.4-13.2c3.2-31.7,7.3-63.3,11.2-95C940,1705.2,938.5,1698.7,928,1701.2z M1828.8,2012.9
			c70.5-1.3,70.5-1.3,81.6-70.8c0.5-3,1-5.9,1.7-8.8c3.6-14.9,0.3-22-17.5-20.5c-33.8,2.9-67.8,5.1-101.7,4.6
			c-24-0.4-29.9,8.5-29.6,31.4C1763.9,2014.1,1762.9,2014.2,1828.8,2012.9z M1407.8,2017.2c81.2,1.5,80.8,1.5,76.4-75.8
			c-0.9-15.4-6-20.9-21-21.1c-28.9-0.4-57.9-1.3-86.7-3.6c-17.2-1.4-24.1,4.5-28.4,21.5C1328.3,2016,1327.7,2015.8,1407.8,2017.2z
			 M1226.8,2012.7c54.4,1.2,54.4,1.3,65.5-50.7c2.1-9.8,3-19.8,6.1-29.3c5.6-17.1-2.2-21-17.4-21.4c-21-0.6-42-2.2-62.9-4.3
			c-52.6-5.2-52.5-5.4-50.8,46C1169.2,2011.4,1169.2,2011.4,1226.8,2012.7z M2178.2,1994.4c85.6-2.2,90-8.8,58.3-85.1
			c-5.6-13.6-8.9-26.6-30.8-24.5c-21.4,2.1-29.3,10.8-32.4,29.9c-3.2,19.7-7.8,39.2-12.2,58.7
			C2157.3,1990.2,2161.3,1999,2178.2,1994.4z"/>
	</g>
</g>
</svg>
