<?xml version="1.0" encoding="utf-8"?>
<!-- Generator: Adobe Illustrator 23.0.0, SVG Export Plug-In . SVG Version: 6.00 Build 0)  -->
<svg version="1.0" xmlns="http://www.w3.org/2000/svg" xmlns:xlink="http://www.w3.org/1999/xlink" x="0px" y="0px"
	 viewBox="0 0 3000 3000" style="enable-background:new 0 0 3000 3000;" xml:space="preserve">
<style type="text/css">
	.st0{stroke:#000000;stroke-width:10;stroke-miterlimit:10;}
</style>
<g id="Layer_1">
</g>
<g id="Layer_2">
	<g>
		<path class="st0" d="M245.2,813.1C124.1,753.2,93.3,662.7,107.3,511.6c13.9-150,91.9-223.1,255.7-257.8
			c109.2-23.1,214.2-14.4,314.1,38.5c23.1,12.3,42.1,40.9,63.1,41.7c18.2,0.7,32.6-33.7,53.5-47.8c37.1-25.2,78.1-38.7,122.4-41.6
			c64.3-4.2,128.3,0.2,191.6,11.7c86.6,15.8,154,62.3,205.3,133c7,9.6,10.5,18.4,24.5,6.4c126.5-108.5,277.1-162.4,439.2-182.3
			c226.7-27.7,453.3-17.7,677.4,25.8c144.5,28.1,270,93.5,363.3,211.1c114.7,144.6,155.1,311.2,136.1,492.3
			c-20.2,192.2-111.8,345.9-263.4,462.9c-1.6,6.1,2.3,7.9,5,9.8c96.5,68.2,147.1,161.6,167.9,277.9c28.1,158,28.8,316,22.8,475.1
			c-3,80.6-18.8,158.4-40.7,235.5c-38.6,135.8-124.1,231.9-247.4,297.7c-105.8,56.4-219.8,77.3-337.7,82.5
			c-162.7,7.2-325.4,11.3-487.9-4.8c-158.3-15.7-314.6-43.5-469.2-80.6c-15.5-3.7-28.3-3.9-42.7,3
			c-224.1,107.8-460.2,135.6-704,99.6c-139-20.5-249.2-93.2-332.2-206.3c-80.6-109.9-121.9-235.8-140.9-368.7
			c-28.2-198-30.6-396.8,4.2-594.4c18.2-103.3,59.7-197.2,131.1-275.9c11-12.1,15-18.4-0.9-31.8c-155.2-130.1-152.8-363.1,4.1-491.5
			C228.8,826.9,235.7,821,245.2,813.1z M1151.4,2108.8c-2.6,112.4-11.1,224.8,1.6,337.3c13.8,122,55,179,161,206.9
			c153.9,40.6,310.9,66.3,469.3,80.5c190.3,17.1,381.1,15.1,571.1-5.3c139-15,261.8-68.3,358.3-173.4c72.5-79,101.2-178,114.3-279.6
			c26.3-204.8,25.3-409.6-18.4-613.1c-17.5-81.6-57.7-147.6-123.8-195.5c-157.4-114.2-335.7-149.1-526.2-126.4
			c-54.7,6.5-93.1,40.4-113.5,92c-13.9,35.1-5.5,59.6,27.1,77.5c21.1,11.6,43.7,20.5,65.8,30c63.4,27.3,119,63.5,153.9,126
			c100.8,181-6.8,412.2-212.9,454.1c-89.2,18.1-179.7,15-269.4,3.4c-77.9-10.1-139.1-49.9-181.9-116.1
			c-41.8-64.6-59.9-136.2-53.9-212.5c11.8-149.5,123.3-250.3,260.8-238c67.7,6.1,128.8-31.6,153.5-94.6
			c11.9-30.2,5.4-51.4-21.6-69.8c-24.3-16.5-51.9-25.1-80.2-30.6c-243.4-48-442.9,33.2-606.4,211.5
			c-72.8,79.4-115.7,173.5-118,284.7C1159.9,1941.5,1152.6,2025.1,1151.4,2108.8z M2912,888.8c-1.6-260.3-120.1-533.1-469.3-605.4
			c-148.4-30.8-299-35.4-449.5-37.7c-126.9-1.9-252.6,11.3-374.3,49.9c-212.7,67.5-364.2,200-437.5,414.5
			c-47.8,139.9-58.1,285.3-60.4,431.6c-0.4,28.7,5,57.5,14.6,84.8c37.6,106.9,122,150.5,226.4,168.6c33.9,5.9,62-0.9,92.3-16.9
			c120.6-63.9,249.1-91,385.4-72.2c61.8,8.6,123.5,19.7,172.4,63.6c11.2,10,14.1,0,18.7-5.8c39.2-49.5,92.9-70.2,153.3-74.6
			c152.4-11.2,298.4,13.9,435.8,82c17.5,8.7,29.3,7.4,44.6-4.6C2827.5,1238.8,2908.2,1070.9,2912,888.8z M511.3,1690.8
			c-11.9,3.3-21.6,5.7-31.2,8.6c-109.8,32.9-213.6,79.7-315.1,132.7c-40.9,21.4-64.6,45.6-55.5,93.7c2.2,11.7,0.1,24.1,0.2,36.2
			c2.2,155.8,15.2,309.8,72.2,457c67.1,173.1,181.3,294.3,368.4,334.9c76.9,16.7,155.2,14.9,233.3,14
			c146.8-1.8,287.2-33.2,421.5-92.1c4.5-2,11.6-2.1,12-10.8c-63.5-42.5-91.3-106.5-104.5-179.3c-8.6-47.7-11.7-96-13.1-144.2
			c-0.6-21.7-3.8-28.3-27.9-21.7c-91,24.6-183.6,39.4-278.3,29.7c-132.5-13.6-217.6-69-254.6-206.4c-33-122.5-45.4-246.3-34.3-372.6
			C506.5,1744.7,508.8,1719,511.3,1690.8z M114.6,1803.1c10.8,1.9,16.4-4,22.6-7.5c323.9-180.3,669.2-244.1,1036-189.9
			c14.4,2.1,23.7-0.3,32.5-13.3c35.2-51.9,78.3-96.7,126.9-136.4c5-4.1,13.9-6,13-15.5c-7.5-1.8-14.7-3.7-22-5.4
			c-110.1-25.7-194-83-232.4-194.3c-5.4-15.5-17.5-16.9-30.4-19.8c-181.6-40.7-362.5-30-541.5,13.4c-169.3,41-295,137.3-357.6,305
			C130.1,1624.4,115.6,1712.6,114.6,1803.1z M148.1,1083.3c1.5,87.3,37.3,156.4,104.1,210.6c11.9,9.6,19.5,11.1,32.7,0.5
			c66.3-53.5,143.1-86.6,225.2-105.7c179.3-41.7,359.8-54.5,541.8-17.1c11.2,2.3,25.1,11.1,23.8-14c-6.1-122.3,12-242.7,32.8-362.7
			c2.4-13.9,2-21.9-14.8-25.5c-57.3-12.2-114.9-21.9-173.2-28c-117.4-12.2-234.1-3.4-350.2,12.6c-102.5,14.1-203.1,36.6-291.7,94.5
			C193.9,903.9,152.4,983.7,148.1,1083.3z M1169.1,1653.8c-10.4-2.6-17.3-5.1-24.4-6c-188.7-24.3-376-18.6-561.9,24.5
			c-17.5,4.1-23.2,11.8-24.6,27c-3.6,38.8-8.6,77.6-10.4,116.5c-5.3,116.1,8.3,229.8,43.9,340.8c24,74.7,74.4,119.9,150.7,137
			c111.2,24.9,219.3,7,327.2-21c22.5-5.8,31.5-14.9,31.9-38.9c1.2-84.5,2.5-169.2,7.8-253.5
			C1116.2,1869.7,1105.9,1755.8,1169.1,1653.8z M2010.2,1520.4c-14.4,14.5-27,29.6-42,41.8c-37.1,30.3-79,51-128.1,42.3
			c-71-12.7-127.3,13.9-170.4,65.9c-66.4,80.2-61.6,171.6-27.5,263.2c26.5,71.1,75.2,123.6,151.4,138.7
			c92.4,18.2,186.8,19.8,279.2,1c112.9-23,199.3-120.6,208-226.5c10.6-129.9-40-211.9-162.5-264.1
			C2080.1,1566.2,2039.9,1553.2,2010.2,1520.4z M565.7,707c48-4.9,93-10.4,138.2-13.6c17.3-1.2,21.3-7.7,21.6-23.7
			c1.3-72.5,4-145,5.4-217.5c0.3-12.8-1.8-26-5-38.5c-13.8-54.5-58.3-77.3-104.4-96c-118.1-47.9-235.8-36-349.4,13.7
			c-60.8,26.6-97.6,77.9-112.9,143.9c-12.5,53.7-9.2,107.2-1,160.6c11.5,75.3,57.6,119.7,129.3,141.1c11.3,3.4,19.5,2.1,28.8-2.5
			c47-23.3,97.2-36.9,147.9-48.8c46.3-10.9,75.7-48.3,76.5-98.6c0.8-47.6-26.6-83.7-73.7-95.1c-19.1-4.6-38.7-4.2-58,0.7
			c-23.9,6.1-16.4-16.6-22.9-26c-7.7-11-0.3-15.5,10.3-19.1C476.9,460.2,569.1,514,585,597.1C592.3,635.3,583.8,670.4,565.7,707z
			 M772.6,557.5c0,37.2,0.6,74.4-0.3,111.5c-0.4,15.4,3.8,21.2,20.1,21.3c39.9,0.2,79.8,1.8,119.7,4c14.6,0.8,15.4-6.8,13.9-17
			c-3.5-24.3,1.4-48.2,4.1-72.1c10.2-90.7,68.1-145.6,148.6-141c11.7,0.7,28.8-3,24.6,19.2c-2.8,14.7-0.2,30.2-25.9,28.7
			c-52.8-3-83.8,22.4-96.1,73.4c-7.7,31.8-9.7,64.1-7.6,96.8c0.8,13.3,5.4,18.8,19.5,21c36.7,5.7,73.2,12.6,109.2,21.4
			c18.8,4.6,25.1-0.6,30.7-18.6c29.6-94.3,77.2-178.9,144.3-251.7c11.6-12.6,9.9-21,1.2-33.3c-35.8-50.9-81.3-90.3-140.9-108.6
			c-73.5-22.5-149.8-27.9-226.1-20.7c-55.9,5.3-103.5,28.7-133.8,79.2c-4.2,7-10.9,13.8-8.2,22.8C786,448.1,773.9,502.9,772.6,557.5
			z"/>
		<path class="st0" d="M1442.1,1079.8c-2.2-240.9,134.5-434.4,355.2-505.6c165-53.1,331.3-60.6,492.1,14.3
			c169,78.6,254.8,218.1,276.2,400.2c6.8,57.6,5.4,115-4.9,172.2c-1.3,7.2-1.8,19.4-10.2,15.9c-15.7-6.5-27.9,22.7-44.3,1
			c-17.9-23.6-40.5-43.7-58.5-67.2c-15.1-19.7-24.8-23.5-43.2-2.3c-36.5,42.1-76.8,80.9-113.9,122.6c-13.6,15.3-20.7,8.3-30.4-1.9
			c-8.5-8.9-23.3-16.4-5-29.5c14.8-10.6,10.4-19.5,0-31.1c-35.9-39.9-35.5-40.3-70.5-1.8c-8.1,8.9-17.7,17.1-23.9,27.2
			c-13.1,21.3-24.4,14.4-38.7,1.2c-10.5-9.7-12-16-1.7-26.8c18.6-19.4,35.4-40.7,54-60.1c9.5-10,11.1-17,0.5-27.2
			c-14.6-14.2-28.4-29.5-41.3-45.3c-10-12.3-16.6-10.1-25.8,0.8c-28.2,33.4-56.1,67.1-86.4,98.5c-10.5,10.9,0.9,21.9-7.4,32.4
			c-15.3,19.6-42.3,20.4-58.1,40.3c-5.1,6.5-18.1-11.5-27.7-17.9c-9-6-5-13.3,1.2-18.3c23.5-18.7,13.6-33.2-4.6-48.1
			c-19.2-15.6-33.1-49-54.2-46.6c-17.6,2-32,33.1-47.8,51.4c-7.3,8.4-14.4,17-21.4,25.7c-3.5,4.2-8.3,8.8-2.3,14.2
			c8.7,7.8,14.2,15.8,1.6,24c-9.8,6.3-12.5,25.2-33.6,13.6c-8.4-4.6-25.2,3.5-35.6-9.8c-6-7.7-17.7-12.3-6.7-24.5
			c5.3-5.9-0.1-10.2-3.9-14c-19.2-19-38.9-37.4-57.5-56.9c-9.8-10.3-15-5.2-21.7,3.1c-19.8,24.6-40.4,48.6-60,73.4
			c-8.1,10.3-15.5,13.1-23.4,1.4c-6.3-9.3-30-11.4-13.3-31.1c21-24.8,40.9-50.6,62.3-75.1c9.1-10.3,10.9-17.1-0.4-27.2
			c-20.8-18.5-40.2-38.6-60.5-57.7c-4.1-3.8-8.9-12.7-15.3-4.1c-17.7,23.7-47.4,40.3-43.1,77.1c2.9,23.9,0.5,48.5,4.3,72.2
			c3.6,21.9-11.4,19.2-22.9,21.8c-13.4,3-24,0.9-24.6-16.4C1444,1115.4,1442.7,1093.1,1442.1,1079.8z M1872,751.2
			c-3.5-4.2-6.4-7.8-9.4-11.1c-16.8-18.6-34.4-36.5-50.3-55.8c-11.2-13.6-18.1-10-27.5,1.7c-18,22.4-37.4,43.7-55.8,65.8
			c-15.4,18.4-41.1,36.3-42.6,56c-1.6,20.7,29.3,34.9,44.9,52.9c4.2,4.9,9.6,8.9,13.5,14c9.4,12.2,16.1,13.2,26.9-0.4
			c29.3-37.1,60.3-72.9,90.5-109.2C1865.6,760.8,1868.5,756.1,1872,751.2z M1860.4,996.2c13.8,0.8,16.2-5.2,19.5-9.2
			c15.6-18.3,30.8-37,46.2-55.5c17.6-21.2,50.3-41.6,47.8-64.3c-2.4-22.5-33.6-41.8-52.1-62.5c-1.9-2.1-4-3.9-5.6-6.1
			c-8.5-11.8-14.8-8.8-22.8,1.5c-15.9,20.5-33.6,39.6-49.3,60.2c-16.1,21.2-48.2,39.6-45.4,62.9c2.5,20.6,32.5,37.8,50,56.9
			C1854.2,986.3,1858.5,993.6,1860.4,996.2z M2014,906.6c-7.9-0.5-9.9,5.7-13.2,9.6c-14.5,16.9-28.6,34-42.7,51.3
			c-18.1,22.2-52,46.3-49.8,66.4c2.6,23.4,36.9,43.2,57.4,64.6c0.6,0.7,1.4,1.2,1.9,2c8.4,11.5,15.3,9.1,23.8-0.9
			c28.1-33.3,56.6-66.3,85.8-98.6c9.8-10.8,8.7-18.1-0.9-28c-18.8-19.2-36.5-39.5-54.7-59.2C2019.1,911,2016.2,908.7,2014,906.6z
			 M2207.7,848.2c0.6-7.7-4.8-10.8-8.2-14.8c-10.3-11.9-21.2-23.3-31.5-35.2c-33.9-39.6-34.3-40-67.8,0.1
			c-18.9,22.6-54.5,44.8-51.5,68.5c3.2,25,36.5,46.2,56.7,69.1c0.6,0.7,1.3,1.3,1.9,2c7.8,10.9,14.6,11.1,23.6,0.3
			c23.1-27.8,47.1-54.8,70.7-82.1C2204,853.4,2206,850.3,2207.7,848.2z M2010.1,831.7c28-33.1,54.8-65.1,82-96.8
			c6.3-7.4,8.3-13.1,0.6-21.3c-22-23.6-43.3-47.9-65.9-73c-28,33.4-54.6,65.6-81.7,97.4c-7.3,8.5-7.8,14.5,0.4,23.1
			C1967.2,783.8,1988,807.4,2010.1,831.7z M1727.7,925.1c-3.2-3.8-5.9-7.3-9-10.5c-19.5-19.9-39.4-39.5-58.6-59.6
			c-7.5-7.9-12.6-8.3-19.8,0.4c-21.3,25.7-43,51.2-65.3,76.2c-6.4,7.2-6.3,11.7,0.5,18.2c21.6,20.4,42.9,41.2,63.9,62.1
			c6.3,6.2,10.8,9.1,17.6,0.6c21-26,42.5-51.6,63.8-77.4C1723.1,932.3,1724.9,929.1,1727.7,925.1z M2220.6,1059.8
			c3.6-5.6,6.1-10.8,9.8-15c17.1-19.6,34.4-38.9,51.9-58.2c27.4-30.4,27.5-30.3,0.6-59.9c-41.4-45.5-41.4-45.5-82.2,2.1
			c-53.9,62.8-53.9,62.8,6.6,118.8C2210.4,1050.6,2213.7,1053.6,2220.6,1059.8z M1835.8,1037.9c-1-2.9-1.1-5-2.3-6.2
			c-22-22.5-43.9-45.2-66.3-67.3c-5.7-5.6-9.9,0-13.4,4.2c-20.6,25-40.9,50.3-62,74.8c-6.9,8-7.4,13.3,0.5,20.7
			c19.5,18.4,38.6,37.4,57.5,56.4c6.3,6.3,11.4,8.3,18.1,0.3c20.6-25,41.6-49.7,62.4-74.5
			C1832.6,1043.6,1834.3,1040.3,1835.8,1037.9z M1969.4,583.7c-41.2,5.2-75.3,9.6-107.8,20.1c-28,9.1-32,30.9-12.1,52.6
			c13.7,15,27.9,29.6,40.8,45.3c9.1,11.1,15.3,12.1,24.8-0.1c21.1-26.9,43.8-52.5,65.3-79.1c5.2-6.5,16.2-12,9.1-23.1
			C1983.4,589.8,1975.3,582.2,1969.4,583.7z M2230.2,648.4c-11.9,11.1-23.3,20.6-33.4,31.3c-36.9,39.2-36.7,39.3-0.6,79.5
			c11.1,12.4,21.9,25.1,33.2,37.4c3.6,3.9,6.1,9.7,12.6,9.6c5.8,0,57.4-60.9,56.1-66.6c-0.7-3.4-3.2-6.6-5.4-9.5
			C2271.6,702.4,2250.3,674.7,2230.2,648.4z M2300.2,1148.8c3.1-2.1,5.8-3.2,7.7-5.1c26.8-28.4,53.6-56.8,80.3-85.3
			c9.5-10.1-1.1-15.5-6.3-20.2c-15.1-13.7-23.1-35.3-44.6-41.6c-2.5-0.7-7.7,7.2-11.4,11.4c-19.3,21.4-39,42.5-57.4,64.7
			c-6.3,7.6-22.7,13.7-13.3,26.6C2268.4,1117,2285,1132.3,2300.2,1148.8z M2330,780.1c-17.1,19.6-32.1,37.3-47.7,54.4
			c-6.8,7.5-7.9,13.2-0.4,21.2c17.2,18.3,33.9,37,50.2,56c6.5,7.6,10.4,6.6,17.4,0c47.4-44.1,47.6-44,8.4-96
			C2349.6,804.7,2340.9,794,2330,780.1z M2200.7,604.2c-41.5-12.3-78.8-18.5-117.1-19.3c-11.3-0.2-17.1,5.9-22.1,13.8
			c-5.7,9,3.2,13.6,7.5,18.6c16.8,19.8,34.8,38.6,51.6,58.4c8,9.4,13.5,9.6,21.4-0.3C2160.3,652.2,2179.5,629.9,2200.7,604.2z
			 M2427,1014.5c2.5-1.8,4.3-2.6,5.5-3.9c12.5-13.5,29.5-25.2,36.1-41.1c5.5-13.3-13.6-23.8-21.4-35.8c-5-7.7-11.1-14.7-16.5-22.1
			c-4.9-6.7-8.4-9.8-17.1-2.6c-42.5,34.8-43.8,45.4-7.9,85.4c4.3,4.8,8.5,9.7,13.1,14.2C2421.3,1011,2424.5,1012.7,2427,1014.5z
			 M1758.2,645.5c-51.7,19.1-96.1,47.8-134.7,85.3c-15.6,15.2,2.1,20.8,8.8,27.7c5.2,5.3,9.9,22.2,22.4,7.7
			C1689.4,726.1,1723.7,685.8,1758.2,645.5z M1618.3,806.4c-9-7.3-18.9-15.5-28.9-23.5c-6.4-5.1-10-0.1-13.3,4.4
			c-22.3,29.9-39.6,62.6-53.7,97.1c-2.8,6.8-1.2,12.7,4.6,17.3c7.7,6.1,11.5,0,15.8-4.9c21.8-25.3,43.6-50.6,65.3-75.9
			C1610.5,818.1,1612.4,814.8,1618.3,806.4z M2453.7,793.5c-3.8-6.3-6.3-11.3-9.7-15.6c-12.5-16-26.4-31.1-37.8-47.9
			c-12.9-19-21.6-16.6-34,0.8c-7.3,10.2-8.6,16.5-0.7,26.2c13.5,16.4,25.6,34,39.1,50.5c4.7,5.7,7.6,19.3,16.8,13.8
			C2437.9,815,2444.9,803.1,2453.7,793.5z M2515.6,1116.8c2.3-0.7,4.5-1.5,6.8-2.2c0-22.8-0.3-45.5,0.1-68.3
			c0.3-15.3-6.1-29.4-18.5-34.8c-11.4-4.9-16.3,11.6-24.5,18.1c-5,4-8.9,9.4-13.5,14c-5.3,5.2-7.3,10.1-1.4,16.6
			C2481.8,1078.9,2498.7,1097.9,2515.6,1116.8z M2508.7,935.9c-4.9-34.2-15.2-58-24.1-82.3c-5.1-13.8-10.5-12-19-2.9
			c-7.8,8.3-12.3,15.1-3.2,25.8C2476.7,893.5,2489.8,911.5,2508.7,935.9z M2281.8,637.9c16.3,21.7,27.6,37.1,39.4,52.1
			c3.6,4.5,5.8,14,13.6,10.1c6.1-3.1,11.6-9.6,14.6-16c3.7-7.9-5.3-10.5-10-13.8C2323.9,659.3,2308.9,647.2,2281.8,637.9z"/>
		<path class="st0" d="M2033.5,435c115.5-4.4,230.7-1.5,342.2,33.5c178.4,55.9,273.1,177.9,292,364c11.8,116.6,12.9,231.5-14.7,346
			c-4.7,19.7-11,26-31.6,19.4c-16.5-5.3-19.4-12.8-15.4-28.2c33.5-130.3,30-261.1,4.8-392.3c-21.2-110-80.9-189.6-182.2-237.8
			c-72.4-34.5-149.4-50.5-228.6-56.4c-133.4-10-267.4-13.3-399.5,8.8c-214.7,35.8-342.3,169.6-400.2,374.8
			c-23.4,83.1-30.2,168.2-23.3,254.1c1.8,22.1-7.8,27-26.3,28.4c-13.8,1-20.1-2.5-20.8-17.5c-10.6-213.7,30.7-409.5,195.4-561.7
			c99.8-92.2,222.8-127.1,354.9-134.6C1931.1,432.6,1982.4,435,2033.5,435z"/>
	</g>
</g>
</svg>
