<?xml version="1.0" encoding="utf-8"?>
<!-- Generator: Adobe Illustrator 23.0.0, SVG Export Plug-In . SVG Version: 6.00 Build 0)  -->
<svg version="1.0" xmlns="http://www.w3.org/2000/svg" xmlns:xlink="http://www.w3.org/1999/xlink" x="0px" y="0px"
	 viewBox="0 0 3000 3000" style="enable-background:new 0 0 3000 3000;" xml:space="preserve">
<style type="text/css">
	.st0{stroke:#000000;stroke-width:10;stroke-miterlimit:10;}
</style>
<g id="Layer_1">
</g>
<g id="Layer_2">
	<g>
		<path class="st0" d="M319.7,1294.6c-30.4-11.8-58.1-20.6-84.1-33C85.2,1189.9,24.1,1042.4,78.9,885.1
			c93-266.8,389.5-383,642.7-250.8c21.5,11.3,33.1,9.3,51.1-6.7c136.1-120.9,297.9-189.5,473.9-228.6
			c152.8-33.9,308.1-41.9,463.7-45.2c164.4-3.5,328.9-6.8,492.9,8.5c115.2,10.7,227.3,35.1,333.9,81.5
			c217.4,94.5,350,257.8,399.2,489.9c19,89.9,27.8,180.7,30.5,272.1c4.4,153.8,6.2,307.8-4.5,461.4
			c-17.1,243.5-94.6,461.7-270.9,638.1c-268.8,269-674.9,339-1018,174.1c-19.2-9.2-33.8-8.9-53.5-1
			c-369.1,147.1-708.2,94.8-1016.7-155.4c-10.6-8.6-16.7-15.7-32.8-5.5c-198.8,125.3-442.1,17.8-483.8-213.4
			c-27.8-153.8,17.2-290.1,104.1-415.2c10.6-15.2,12.3-27.6,8-45.8c-30.4-127.9,1.8-237.9,98.3-328.2
			C303.9,1308.5,311.1,1302.3,319.7,1294.6z M2560,1889.8c-58.7,30.8-106.5,30.2-156.2-1.3c-35.5-22.4-59.5-53.3-55.9-97.5
			c3.9-48.8,54.5-83.1,111.2-76.6c59.4,6.8,104.2,35,128.1,97c20.2-66.7,33.4-129.5,41.7-196.6c-15,6.9-26.7,12.6-38.7,17.9
			c-43.2,19.1-88,29.9-135.6,27.5c-131.6-6.5-205.4-118.5-158.9-241.4c13.8-36.5,34-69.3,58.7-99.4c73.9-90,166.1-153.2,277.3-188.3
			c11-3.5,21.7-5.3,19-22c-9.1-57.5-20.1-114.3-50.3-165.3c-84.4-142-212.9-224.5-369.2-264.2c-131.5-33.3-267-41.7-402.1-50.9
			c-37.2-2.5-37.5-2.8-45.3,33.5c-9.4,44.1-31.2,83.7-45.1,126.2c-14,42.5-16.4,82.1,22.7,115.1c13.9,11.7-0.8,26.3-6.4,37
			c-6,11.7-15.4,0.1-21.4-4c-22.9-15.3-36.2-37.5-43.4-64c-13.1-48.2,2.8-91.8,20.4-135.2c12.5-30.9,26.8-61.3,31.2-94.8
			c0.7-5.4,4.5-14.3-4.1-15.5c-12-1.8-24.8-2.2-36.7-0.1c-9.3,1.6-2.8,9.9-1.9,15.2c12,69.4-8.8,125-70,162.6
			c-9.9,6.1-12,12.2-10.9,23.2c7.8,78-22.5,138.8-85.9,183.4c-28.7,20.2-58.9,38.3-87.6,58.6c-31.1,22-56,49.3-58.2,89.6
			c-1.4,24.3-20.3,18-32.4,19.7c-18.8,2.6-11.6-14.2-11.2-22.4c2.7-52.5,31.9-90.2,72.3-119.9c30.4-22.3,63-41.7,93.9-63.3
			c42.3-29.5,66.3-69.8,66-122.2c-0.1-8.9,8-23.9-12.2-25.5c-19.9-1.6-18.2,11.8-18.5,23.8c-0.9,31.5-8.1,60.9-27.7,86.2
			c-32.6,42.1-86.1,59-136.8,43.4c-54.4-16.8-90-62.8-93.4-124.2c-0.8-14.7-5.3-23.8-16.4-32.9c-33.6-27.5-46.5-65.2-47.7-107.3
			c-1-32.3-0.3-32.4-32.6-24.6c-4.3,1-8.4,3.4-12.6,3.6c-19.2,0.6-23.7,11.6-25.8,29.1c-4.4,36.9-2.1,73.8-4.3,110.6
			c-2.9,48.4-13.2,94.2-50.6,128.9c-5.9,5.5-14.2,19.6-22.5,5.6c-6-10-28-18.5-8.6-36.4c21.5-19.9,30.6-46,35-74.7
			c6.2-40.3,0.9-81,5.5-121c3-25.6-5.7-22.7-23.2-17.4c-63.9,19.3-127.5,39.5-189.2,65.1c-17.8,7.4-21.2-0.6-26.9-14
			c-6.2-14.7-6.1-21.9,11.3-28.5c249.3-95.1,506.9-148.6,773.7-157.8c123.1-4.2,245.6,2.9,367.7,17.3
			c98.5,11.7,198.2,19.6,291.4,56.6c234.6,93.3,391.2,254.4,389.4,536.5c-0.4,73-3,145.9-6.9,218.7
			c-8.1,151.2-25.9,300.9-73.9,445.5c-51.7,155.7-137.2,284.3-289.3,359.4c-13.4,6.6-26.1,14.4-38.7,22.4
			c-92.5,58.6-127.4,145.6-124.5,251.6c0.5,19.3,6.2,26.2,26.6,22.3c335.4-64.7,559.9-258.5,673.9-579.7
			c40.1-112.9,51.6-231.3,55-350.2c5.5-194.2,10.8-388.7-18.3-581.8c-18.1-120.5-55.5-234.2-133.1-331.1
			c-92.5-115.7-216.2-182.7-355.5-224.3c-125.8-37.5-255.3-48.4-385.7-49.6c-228.6-2.1-457.4-6.4-684.3,28.4
			c-193.1,29.7-372.3,93.3-526.1,218.9c-208.7,170.3-289.8,458.4-183.3,670.7c10,20-8.3,18.5-16.4,24.9c-10.2,8.1-19.7,8.6-23.5-6.1
			c-6.7-25.6-23.9-33.8-48.7-34c-11.1-0.1-23.5-2.6-33.1-8c-43.9-24.8-82.4-9.3-122.9,10.6c-120,58.9-185.7,198.4-151.8,327.5
			c2.5,9.4,4.9,17.9,16.9,20.7c27.4,6.4,54.6,14,83,14c62.4-0.1,95.8-29.2,105.3-90.4c9-58.3,38-105.1,83.8-141.7
			c15.2-12.1,36.6-28.1,50.8-12.8c14.9,16.1-3.2,34.5-17.6,48.5c-44.3,43.4-61.4,96.8-56.3,158.1c1.7,20.1,11.5,33,30.6,37.9
			c41.8,10.6,83.9,20.8,127.2,20.2c100.2-1.2,151.8-74.9,120.5-170.2c-13.5-41.1-36.2-76.6-69.3-103.8c-19.9-16.4-6.4-27,2.1-38.9
			c12.1-16.9,19.2,0.3,27,5.7c7.8,5.5,15.6,12.1,20.8,20c10.8,16.5,25.4,21.4,44.4,21.6c59.8,0.6,119.6,2.2,179.3,4.1
			c17.8,0.5,31.2,1.1,22.8-24.3c-4.5-13.7-4.3-29.7-3.3-44.5c1.4-20.7-5.8-23.8-25.6-21.8c-84.4,8.8-158.6-13.3-215.8-79.4
			c-86.3-99.8-61.7-250.4,49.9-307.3c7.7-3.9,18.9-16.6,24.1,2.5c3.3,12.3,20.8,24.6-4.4,37.3c-55.8,28.1-86,92.5-76.3,152.3
			c17.6,108.4,128.7,178.3,249.9,145.2c8.1-2.2,13.2-7.7,18.7-13.6c23.7-25.1,47-27.5,74.7-6.5c13.2,10,24.6,22.5,36.2,34.4
			c14.1,14.4,25.4,31.4,42.4,43.1c100,68.9,205.5,78.8,317.6,32.1c66-27.5,110.2-79.8,156-130.8c105.6-117.8,268-139.3,401.6-53.9
			c29.5,18.9,57.8,40.1,90.1,54.3c10.5,4.6,16.8,7.3,20-10.1c11-59.3,49.5-96,105.8-112.9c53.4-16,102.4,9,114.4,55.5
			c12,46.7-14.9,101.9-65.1,133.2c-48.6,30.3-96.1,28.7-135.8-5.3c-5.6-4.8-11.3-8.2-18.3-9.3c-37.5-5.9-68.9-25.3-99.9-45.5
			c-19.1-12.4-38.1-25.3-58.1-36.1c-148.7-79.8-329.9-2.2-375.1,160c-4.9,17.7-10.6,35.3-17.4,52.3
			c-60.4,152.2-196.2,236.7-354.8,220.6c-46.2-4.7-88.8-20.4-128.2-45c-4.8-3-14.4-15.1-16.8,0.5c-3.1,20-6.2,39.1,17,55.1
			c180.3,124.6,429.2,49.3,508.5-155c7.9-20.5,15.5-41.1,24-61.3c39.5-93.3,113.4-140.3,210.8-153.5c87.8-11.9,168.7,13.6,247,50.2
			c9.5,4.5,17.9,7.5,29.6,5c38.5-8.2,72.6,10,91.5,46c26.8,51.1,16.5,122.8-23.5,164.5c-45.8,47.8-113.2,37.9-141.2-21.9
			c-22.6-48.2-17.2-95.9,9.8-141c7-11.7,8-17.1-6.1-22.8c-50.8-20.6-102.2-37.1-157.7-38.5c-100.2-2.5-194.7,42.7-228.1,150.5
			c-3.6,11.7-8.9,22.9-13.3,34.4c-66.8,177.7-251.6,278.8-436.7,239.2c-48.3-10.3-92.5-30.3-137.5-57.3c-3,53.7-5.6,103.4-8.6,153.1
			c-0.8,12.8,9,15.6,17.2,20.4c75.2,43.9,156.7,65.2,243.4,68.2c102.9,3.6,202.6-17.1,302.3-38.8c24-5.2,43-13,54.8-37.9
			c10.2-21.6,31.2-35.3,53.1-45.7c48.6-23.2,100-27.7,151.9-17.3c98.4,19.8,150,116.1,114.4,210.2
			c-24.9,65.9-81.8,104.9-157.2,107.9c-7.9,0.3-19.8-5-18.9,10c2,32.4-1.6,65.1,5.2,97.3c3.9,18.3,14.8,29,31.8,35.3
			c44.7,16.4,89,3.9,117.8-33.8c8-10.5,15.3-21.5,23.6-31.7c67.2-82.7,163.4-89,240.8-15.5c7.2,6.8,11.9,10.1,22.2,5.2
			C2430.9,2120.9,2510.3,2021.4,2560,1889.8z M1204,2515.1c177.1,0.3,307.4-30.3,439.7-94.5c8.4-4.1,9.4-8.6,10-15.7
			c7.7-85.7,15.2-171.4,23.5-257c1.3-13.2-2.5-15.7-14-12.2c-70.1,21.2-141.5,34.4-214.8,37.5c-6.5,0.3-14.2-0.8-14.9,10.1
			c-3.5,52-39.5,69.8-83.6,79.4c-51.1,11.2-103,12-154.7,8.8c-74.5-4.6-105.9-31.5-120.7-100c-2-9.1-5.7-11.3-13.4-12.2
			c-34.6-4.3-65.1-20.3-96.6-33.6c-131.9-56-275.8,39.3-277,182.3c-0.2,21,6.8,33.5,23.8,45.1
			C870.2,2460.9,1046.1,2512.4,1204,2515.1z M464.5,1653.2c-24.3,28.3-53.7,45-88.4,51.7c-36,6.9-72.1,4.6-106.8-6.2
			c-21.4-6.7-32.8-0.3-45.1,17.3c-37.6,53.9-65.6,112-83.6,175c-23.3,82.1-27.1,164.7-0.8,246.6c28.1,87.3,87.2,145.1,175.7,177.5
			c-0.8-46.7,0.2-89.7,8.3-132c36.5-190.6,136.8-331.2,322.5-400.2c134.8-50.1,266.1-35.4,390.1,37.3c20.6,12.1,24.3,6.5,25.2-14.2
			c2.9-63.2,6.4-126.3,11-189.4c2.9-39.9,4.2-78.6-26.3-110.2c-3.5-3.7-6.2-8.9-7.4-13.8c-5.1-21.4-19.8-25.1-39.4-25.1
			c-54.5-0.1-109-0.7-163.4-3.2c-20.7-0.9-26,3.5-16.1,22.3c2.8,5.4,4.4,11.5,6.3,17.3c38.8,119.9-33.7,222.1-159.7,225.1
			c-43.5,1-85.4-9.4-127.5-17.9C506.1,1704.2,478.4,1688.8,464.5,1653.2z M1817.8,2100.4c0.2,0,0.5,0,0.7,0
			c-1.7-35.1-2.7-70.3-5.4-105.3c-1-13.2,1-20.6,15.8-18.7c11.4,1.5,28.5-8.1,29.2,14.7c0.6,19.3,1.7,38.6,1.7,58
			c0,11.4,3.2,17.3,15.6,19.2c53.5,8.4,111.8-31.7,127.3-88.7c15.9-58.2-11.4-117.2-65.6-135.6c-51.3-17.4-102.5-13.3-150.5,12.6
			c-25.1,13.6-40.9,34.4-43.5,64.7c-5.3,62.1-12.2,124.1-18,186.1c-9.7,104.1-18.9,208.2-28.9,312.2c-1.6,16.6,3.5,25.2,19.1,31.8
			c122.4,52.2,249.7,76.1,382.7,71.3c22.2-0.8,27-7.8,26.1-29.1c-5-110.1,28.5-204.4,119-273c13-9.8,9.8-15.6,0-23.7
			c-25.5-21.3-54.2-31.4-87.8-27c-42.3,5.6-68.5,32.7-91,65.5c-21.4,31-47.2,56-85.3,66.2c-91.1,24.4-153.6-21-156.7-114.4
			C1821.3,2158.3,1819.3,2129.4,1817.8,2100.4z M434.1,1259.8c-7.2-4.8-14.5-9.6-21.7-14.5c-124.1-84.9-174.2-244.3-120.9-384.6
			c52.4-137.9,225-212.4,381.8-163.3c20.5,6.4,33.2,5.5,41-16.2c-2.6-1.9-5.2-4.4-8.2-5.9C461.6,550.7,196.7,658.7,114,921.1
			c-24.9,79.1-14.2,156.4,39.1,221.8C225,1230.9,325.5,1257.1,434.1,1259.8z M565.6,1257.6c-10.7-42.8-18.4-83.2-19.6-124.4
			C542.2,997,580,872.9,655.6,760.1c9.9-14.7,11.5-21-8.9-25.4c-41.9-8.9-83.5-11.6-125.5-3C431,750.2,361,794.7,329.7,885.5
			C271.5,1054.4,381.7,1230.5,565.6,1257.6z M1400.1,2130c7,0,14.1,0,21.1,0c84.2-0.6,166-15.5,245.8-41.7
			c14.5-4.8,27.4-38.4,18.8-53c-8.4-14.2-20.7-1.7-30.1,0.7c-227.4,57.5-447.8,38.7-661.1-59.4c-42.2-19.4-84-40-128.1-55.2
			c-99.4-34.4-186.6-12.8-264.2,55.4c-101,88.7-133.3,211.5-165.5,334.4c-1.3,4.8-3,9.9,5.3,11.5c24,4.5,67.5-21.4,74.2-44.7
			c16.4-57,38.3-111.6,74.7-158.9c73.6-95.7,167.1-149.1,291.7-131.8c46.8,6.5,87.8,29.4,129.2,50.6
			C1133.8,2100.3,1263.3,2130.5,1400.1,2130z M1693.5,1935.5c-36.8,7.8-73.5,16.1-110.3,23.3c-109.4,21.2-219,30.7-329.7,7.9
			c-87.9-18.1-162.8-64.4-238.5-108.4c-120-69.8-243.8-78.8-371.8-27.5c-203,81.5-294.5,292.8-282.7,480.6
			c0.6,9.6,3.4,13.9,13.7,14.6c11.8,0.8,15-5.5,17.6-14.9c10.4-39,20.2-78.2,32-116.8c29.5-96.3,72.8-184.8,150.6-252.1
			C663,1865.6,763,1840.9,876,1878c48.5,15.9,94,38.7,140.3,59.8c208.8,95.1,423.9,112,645,50.3
			C1697.6,1978,1697.8,1977.3,1693.5,1935.5z M1584.2,1375.7c-10.5,6.4-19.2,12.2-28.4,17.2c-135.6,74.1-268.3,71.6-397.7-15.2
			c-27.5-18.4-45.1-46.6-68.5-69c-6.5-6.2-13-16.7-24.2-11.9c-10,4.3-11.3,15.7-12.1,24.9c-9.9,114.6,36.9,223.9,157,265.7
			c154.7,53.9,316.4-28.8,373.9-199.8C1585.1,1384.4,1584.2,1380.8,1584.2,1375.7z M2638.3,1527.5c-8.4,3.9-16.2,7.5-24,11.1
			c-43.7,20.6-89.6,30-138,26.9c-56.3-3.6-93.4-43.2-94.8-99.6c-1.5-59.3,32.1-98.5,75.2-131.5c51.8-39.8,108.7-71.4,169.7-94.2
			c25.4-9.5,32-22.4,30.7-47.8c-1.1-21.7-7.8-21.8-24.7-15.8c-88.6,31.5-164.9,81.4-227.6,151.5c-27.7,30.9-51.4,64.4-66.8,103.3
			c-36.1,91.3,6.3,166.6,103.1,182.6c65.7,10.9,121.8-15.4,177.6-44.5C2636.3,1560.2,2642.7,1547.8,2638.3,1527.5z M2652,1369.4
			c-0.3,0-0.6,0-1-0.1c1.6-24.5,2.8-49.1,4.9-73.6c1.3-14.8-1.2-21.3-18-13.9c-54,23.8-106.2,50.8-153.3,86.5
			c-24.5,18.6-47.2,39.5-56.3,70.9c-13.6,46.8,9.9,81.3,58.5,83.1c47.8,1.8,91.5-12.5,132.8-36.4c18.2-10.5,28.7-23,28.1-45.6
			C2647.2,1416.8,2650.4,1393.1,2652,1369.4z M1068.4,2114.2c-50-24.3-93-45.7-136.6-66.1c-19.8-9.3-40.8-15.5-62.7-18.8
			c-120.6-18.2-255.4,74-297.8,229.1c38.2-17.9,43,31.4,71.3,35.3c0.8-2,2-4.2,2.3-6.5c23.5-175.3,182.1-266.1,346.1-198.2
			C1014.1,2098.5,1035.8,2112.6,1068.4,2114.2z M1659.6,673.3c-1.4-7.1-3.5-18.3-5.9-29.4c-2.6-12-9.2-17.5-22.4-16.4
			c-45.4,3.9-90.9,7.2-136.4,10.4c-12.8,0.9-19.2,5.7-16.9,19.8c3.6,22.8,1.4,45.6-3.1,68c-2.7,13.6,1.2,23.5,12.4,31.8
			c34.6,25.8,72,32.1,111.2,13.9C1637.7,753.4,1657.4,720.9,1659.6,673.3z M1435.2,684.4c-0.1-40.4-0.1-40.3-39.9-33.6
			c-28.5,4.8-57.2,8.7-85.6,14c-40.5,7.5-43.6,11.9-42.4,53.3c0.2,7,0.7,14.1,2,20.9c7.2,35.9,36.1,64.3,70.4,69.6
			c30.7,4.8,59.4-12.6,78.2-46.6C1431.5,737.4,1433.6,710.3,1435.2,684.4z M1259.1,2228.2c28.9-1.8,58-2.4,86.4-9.1
			c15.5-3.6,31.1-8.1,40-22.8c7.2-11.9,8.2-21.7-10.7-22.1c-75-1.6-148.6-13.1-220.9-33.2c-19.2-5.3-30.1,3.1-33.5,22.4
			c-4.4,24.3,8,45.5,34.5,55C1188.7,2230.6,1223.9,2229.7,1259.1,2228.2z M1501.2,838.5c4.2-15.4-6.6-23.7-21.8-34.5
			c-20.8-14.9-30.1-11-44,8.2c-18.7,25.9-47.3,37.9-79.1,40.6c-28,2.4-30,5.2-19.4,32.3c4.2,10.7,10.1,20.3,18.1,28.6
			c25.1,26.2,61.4,34.8,93.6,21C1489.2,917.5,1499.7,882.6,1501.2,838.5z M2345.1,1198.1c-0.2-23.6-13.1-37.3-36.8-39
			c-43.5-3.1-94.1,39-99,82.2c-2.5,22.1,10.8,39.9,32.4,43.8C2287.8,1293.2,2345.5,1244.7,2345.1,1198.1z M2112.5,1466.4
			c-1,19,2.3,36.9,13.3,52.7c13.7,19.7,35.5,23.4,55.2,9.8c36.3-25,47.7-93.2,21.6-128.4c-15.8-21.3-36-24.7-56.9-8.2
			C2122.1,1411,2113,1437,2112.5,1466.4z M2479.5,1867.6c24.6-0.2,47.3-2.1,58.9-24.7c8.3-16.1,3.3-32.6-8.5-46.4
			c-27.6-32.3-63.2-43.6-103.9-35.1c-34.2,7.2-44.8,38.5-23.9,66.6C2421.7,1854.4,2449.2,1866.2,2479.5,1867.6z"/>
		<path class="st0" d="M2483.2,1140.2c-37.7,1.5-67.4-8.4-93.6-29.6c-41.7-33.7-41-95.3-0.6-130c46.8-40.2,136.4-40.8,183.8,2.2
			c36.6,33.2,37.7,92.3,0.2,124.9C2546.2,1130.9,2515.2,1142.5,2483.2,1140.2z M2479.4,1096.3c22.8,1.7,44.3-4.8,62.4-20.1
			c20.7-17.4,20.4-43.6,0.1-61.5c-30.9-27.4-93.7-27.4-124.6,0c-20.2,17.9-20.6,44.1,0.1,61.5
			C2434.8,1090.9,2455.3,1097.6,2479.4,1096.3z"/>
		<path class="st0" d="M2357.2,1722.1c-0.5,66.4-55.5,104.1-117.9,80.8c-60.2-22.5-101.8-93.3-90.2-153.7
			c9.4-49.4,53-77.3,102.2-65.3C2310.9,1598.4,2357.6,1659.3,2357.2,1722.1z M2313.4,1719c-0.6-38.5-32.2-80.6-68.7-91.2
			c-30-8.8-50.5,5.3-52.7,36.3c-2.8,39,23.4,81,60.3,96.6C2287.7,1775.6,2314,1757.6,2313.4,1719z"/>
	</g>
</g>
</svg>
