<?xml version="1.0" encoding="utf-8"?>
<!-- Generator: Adobe Illustrator 23.0.0, SVG Export Plug-In . SVG Version: 6.00 Build 0)  -->
<svg version="1.0" xmlns="http://www.w3.org/2000/svg" xmlns:xlink="http://www.w3.org/1999/xlink" x="0px" y="0px"
	 viewBox="0 0 3000 3000" style="enable-background:new 0 0 3000 3000;" xml:space="preserve">
<style type="text/css">
	.st0{stroke:#000000;stroke-width:10;stroke-miterlimit:10;}
</style>
<g id="Layer_1">
</g>
<g id="Layer_2">
	<g>
		<path class="st0" d="M213.4,1490.3c0-267.9-0.4-535.9,0.1-803.8C214,376.1,423.7,121.2,728,60.2c40-8,80.6-10.7,121.4-10.6
			c438.4,0.2,876.7-0.3,1315.1,0.3c357.1,0.5,635.4,279.4,636,636.9c0.5,358,0.1,716,0.1,1073.9c0,177.9,0.3,355.8-0.1,533.6
			c-0.7,359.4-278.7,638-637.8,638.4c-437.3,0.5-874.6,0.5-1311.9,0.1c-358.9-0.4-636.9-279.2-637.4-638.6
			C213,2026.2,213.4,1758.3,213.4,1490.3z M1503.7,2880c221.8,0,443.7,1,665.5-0.2c324.1-1.8,581.9-265.6,579.3-589.6
			c-0.2-25.5-7.9-30.1-31.4-28c-108.1,9.5-216.2,4.4-324.2-4.1c-56.9-4.5-112.8-12.2-166.6-31.6c-91.3-33-149.4-96.3-174.3-190.5
			c-12.5-47.3-14.6-95.5-10.3-143.5c2.4-27-4.5-34.1-31.8-34.2c-301.1-1.2-602.3-3.8-903.4-6c-45.3-0.3-45.3-0.3-34.2,41.6
			c2.5,9.3,4.4,18.7,6.3,28.2c33.5,165.4-38.2,290.2-198.1,343.1c-80.1,26.5-163.7,32.5-247.1,36.3
			c-117.1,5.3-230.5-14.7-339.8-56.8c-22.9-8.8-28.7-4.9-28.2,19.8c0.9,45.1,1.2,90.1,9.5,134.5c53.5,284.7,289.4,480.7,579.2,481.1
			C1070.7,2880.4,1287.2,2880.1,1503.7,2880z M2747.9,1218.5c0-180.1,1.2-360.2-0.3-540.3c-2.6-314.6-256.3-573.1-570.1-575
			c-447-2.8-894.1-2.7-1341.1-0.1c-308.5,1.8-565,253.7-569,562.2c-4.8,367.6-1.1,735.4-1.8,1103.1c0,20.1,6.2,25.6,25.6,25.3
			c55.7-1,111.6-1.9,167.2,0.6c28,1.3,34-8.1,32.4-34.1c-9.7-166.1-4.9-331.8,11.7-497.4c15.7-156.7,35.9-312.7,66.4-467
			c26.7-135.5,81.8-256.6,195.4-344.3c94.2-72.7,203.4-103.2,318.4-118c131-16.9,263-17.6,394.8-18.8c164.9-1.5,330.3-6.5,494.1,19
			c152.2,23.7,284.5,85.3,382.1,209.3c70.7,89.9,105,194.9,127.5,305.1c36.7,179.7,66.4,360.2,67.6,544.2
			c0.9,127.8-8.6,254.8-30.5,380.8c-4.5,26.1-2.6,39.1,29.6,37.8c55.6-2.2,111.5-1.2,167.2,1.5c27.8,1.3,33.5-8.2,33.3-34.2
			C2747.4,1591.6,2747.9,1405,2747.9,1218.5z M1510.9,368.3c-135.6,3.6-295.5-0.6-454.1,22.9c-237.2,35.2-374.1,159.9-430.6,392.9
			c-20.5,84.5-29.2,170.8-42.5,256.5c-37.5,241-51.7,483.3-40.3,727.1c0.8,17.9,4.2,27.4,25.3,26.4c28.8-1.4,57.9-0.3,86.7,1.4
			c19.6,1.2,25.5-4.2,23.8-25.1c-16.1-198.8-0.7-395.8,36.8-591.4c19.7-102.9,35.1-207.1,81.6-302.6
			c84.5-173.8,227.9-276,410.4-323.1c196.8-50.8,397.3-53.4,595.8-12c242,50.5,432,200.9,476.5,493.8
			c23.8,156.8,37.6,314.7,37.2,473.5c-0.2,87.8-4.1,175.6-17.9,262.6c-4,25.3-1,40.1,31.2,37.2c32.9-2.9,66.5-1.5,99.6,0.6
			c21.3,1.4,30.7-5.5,33.8-26.8c11.7-80.6,22.2-161.2,27.4-242.5c13.8-215.5-11.3-427.5-54-638.4c-17.7-87.3-36.2-174.2-78.7-253.3
			c-87.1-162-230.9-238.4-406.7-263.3C1813.5,365.2,1674.1,366.1,1510.9,368.3z M1385.9,1187.6c8.8,330.9,14,562.9,11.7,584.8
			c-0.3,2.6-1.9,14.9,5.1,22.4c3.7,3.9,10,5.8,20.5,5.8c114.6,0.2,229.2,1.9,343.8,4.3c21.8,0.5,29.4-4.9,29.5-28.1
			c1.6-384.6,4-769.1,6.8-1153.7c0.1-20.5-4.6-29.4-26.6-33.8c-120.9-24.6-242.9-19.2-364.9-16.2c-24,0.6-26.3,12.8-26.2,32.8
			C1386.2,799.8,1385.9,993.7,1385.9,1187.6z M635.4,1846.1c-112.4,0-224.9,0.7-337.3-0.5c-24.5-0.3-33.2,5.1-32.7,31.5
			c1.7,89.9,1.5,179.9,0.1,269.8c-0.4,23.2,7.6,33.4,28.7,41.7c137.4,54.2,279.2,71.1,425.4,53.2c68-8.3,135.8-17.5,198.1-49.3
			c51.2-26.2,86.5-65.7,103.2-121c21.3-70.7,10.3-139.1-13.7-207.1c-2.1-5.8-4.8-9.1-7.9-11c-8.2-4.8-18.3-2-20.2-1.6
			C965.8,1855.1,869.3,1854.2,635.4,1846.1z M2425,1861.8c-71,0.7-128.4-1.5-128.4-1.5c-42.8-1.7-85.6,0-128.4-0.2
			c-74.5-0.4-74.5-0.8-75.3,76c-1.3,129.5,59.5,219.6,179,248c150.1,35.7,303.3,33.7,456.4,23.4c21.1-1.4,19.8-13.7,19.8-28.3
			c-0.2-95.3-1.1-190.5,0.5-285.8c0.2-12-1.7-19.3-6.1-23.6c-7.9-7.7-21-6.3-25.3-5.8C2620.3,1874.1,2522.4,1860.8,2425,1861.8z
			 M831.3,952.7c-27,51.3-36.9,105.8-48.2,160.1c-42.5,204.1-65.6,409.7-53.4,618.5c3.8,64.7,3.8,62.8,67.1,66.3
			c32.8,1.8,38.3-9.7,38.1-39.5c-2.1-256.9-2.6-513.8-3.5-770.7C831.3,975.8,831.3,964.3,831.3,952.7z M1334.9,737.1
			c-0.5,0-1.1,0-1.6,0c0-20.3,0-40.7,0-61c0-103.7,0.2-103.1-102.6-74.3c-17.1,4.8-22,12.2-22.1,28.5c-0.2,53.5-2.5,107-2,160.5
			c0.3,32.6-15.7,75.7,6.2,95.1c21.2,18.8,63.5,2.7,96.4,4.8c22.3,1.5,26.7-8.7,26.1-28.5C1334,820.5,1334.9,778.8,1334.9,737.1z
			 M2225.6,1029.2c-11.3,14.6-8.3,26.8-8.5,38c-1.5,65.3-2,130.5-3.4,195.8c-3.8,172.3-8,344.5-11.8,516.8
			c-0.5,24.6,11.7,34.4,31.9,26c15.2-6.4,10.7-21.7,12.2-33.4c18.9-142.6,23.1-285.9,12.6-429.1
			C2251,1240,2243.1,1136.5,2225.6,1029.2z M1152.8,757.9c0.2,0,0.3,0,0.5,0c0-36.4-0.6-72.9,0.3-109.3c0.4-15.4-0.9-22.4-18.8-14.7
			c-34.4,15-67.7,32-99.7,51.5c-11,6.7-16.7,14.7-16.4,28.4c1.3,52.5,2.2,105,2.2,157.5c0,16.9,6.4,22.3,22.9,21.5
			c27.8-1.2,55.8-1.6,83.6-0.4c19.3,0.8,26.7-5.2,25.9-25.3C1151.8,830.8,1152.8,794.3,1152.8,757.9z M1341.5,1449.1
			c-0.6,0-1.2,0-1.8,0c0-25.7-1-51.4,0.3-77.1c0.9-18.4-2.9-27.8-24.1-26.9c-31,1.3-62.1,0.5-93.1-0.7c-16.8-0.7-22.7,5.8-22.7,22.2
			c0,54.6-0.4,109.2-1.7,163.8c-0.4,17.2,6.2,22.4,22.4,22.1c33.2-0.7,66.4-0.9,99.5,0c17.5,0.5,21.9-7.3,21.3-23.2
			C1340.9,1502.6,1341.5,1475.8,1341.5,1449.1z M1345.1,1704.6c-0.7,0-1.3,0-2,0c0-25.6-0.3-51.2,0.1-76.9
			c0.3-14.1-3.3-21.5-19.7-21c-35.2,1-70.5,1-105.7,0c-15.6-0.4-19.9,5.4-19.8,20.3c0.4,51.2-0.2,102.5-1,153.7
			c-0.2,12.9,3.1,19.6,17.7,19.4c37.4-0.7,74.7-0.6,112.1,0c13.8,0.2,19-4.8,18.5-18.7C1344.5,1755.9,1345.1,1730.3,1345.1,1704.6z
			 M1146,1447.1c0.2,0,0.4,0,0.6,0c0-3.2,0.1-6.4,0-9.6c-1.2-29.8,12.8-69.6-4.9-86.7c-20.6-20-61-4.3-92.6-7.4
			c-19-1.8-23.9,6.5-23.1,24.1c1.6,33.1,1.5,66.4,2.1,99.5c1.7,87.2,1.7,86.6,88.5,85.8c21.4-0.2,31.4-5.2,29.8-28.6
			C1144.7,1498.6,1146,1472.8,1146,1447.1z M1142.3,1700.8c-1.5-30.5,16.5-70.1-4.3-88.9c-16.2-14.6-55-3.4-83.7-5.2
			c-17.9-1.1-24.7,4.4-23.7,23c1.4,28.8,0.4,57.7,0.4,86.6c0,91.8,0,91.5,92.7,83.6c13.6-1.2,19-5.5,18.8-18.9
			C1142,1754.3,1142.3,1727.6,1142.3,1700.8z M1339.2,1221.9c0-7.5,0-15,0-22.5c-0.4-54.9-0.4-54.9-56.9-54.7
			c-78.5,0.2-78.5,0.2-79.5,78.1c-0.9,69-0.9,69,67.3,69C1339.8,1291.8,1339.8,1291.8,1339.2,1221.9z M1336.4,1019.1
			c0-17.1-0.8-34.2,0.2-51.2c1-17.3-4.3-24.9-23.2-23.9c-28.7,1.5-57.6,1.5-86.3,0c-19.5-1-23.4,7.5-22.6,24.4
			c1.1,21.3,0.1,42.6,0.1,64c0,59.7,0,59.7,60.1,59.5C1338.4,1091.8,1338.4,1091.8,1336.4,1019.1z M1151.9,1018.3
			c0-17.1-0.8-34.3,0.2-51.3c1-16.5-4.5-23.1-21.7-22.4c-28.8,1.3-57.8,1.4-86.6,0.6c-17.7-0.5-22,7.6-21.2,23.3
			c1.2,24.5,1.6,49.1,1.8,73.7c0.5,50.2,0.4,50.2,50.4,50.2C1150.4,1092.4,1150.4,1092.4,1151.9,1018.3z M1148.2,1217.9
			c0.8-72.7,0.8-72.7-73.3-72.4c-10.7,0.1-21.4,0.6-32,0.1c-13.8-0.7-18.8,5.3-18.5,18.9c0.8,35.2,1.1,70.5,0.7,105.7
			c-0.2,15.1,5.5,21.5,20.6,20.5c9.6-0.6,19.2,0.1,28.8,0.1C1147.4,1291.4,1147.4,1291.4,1148.2,1217.9z M974.5,1449.2
			c-0.5,0-1,0-1.4,0c0-15,0-29.9,0-44.9c0-64.8,0-64.1-65.3-61.5c-17.2,0.7-21.9,6.7-21.5,22.7c1,41.7,0.8,83.4,1,125.1
			c0.4,66.5,0.4,66.5,66.1,61.7c1.1-0.1,2.1-0.1,3.2,0c14.4,1.1,18.2-6.5,18-19.6C974.1,1504.8,974.5,1477,974.5,1449.2z
			 M978.4,1702.3c-0.5,0-0.9,0-1.4,0c0-10.7,0.2-21.4,0-32.1c-1.1-66.9-1.1-66.2-67.9-63.6c-17.4,0.7-21.8,6.7-21.3,22.7
			c1.2,35.3,1.4,70.6,1.6,105.9c0.3,67.2,0.2,67.2,67.5,63.3c1.1-0.1,2.1-0.1,3.2,0c14.1,1.3,18.7-5.7,18.4-19.1
			C978,1753.7,978.4,1728,978.4,1702.3z M2056.1,1001.9c0,0-0.1,0-0.1,0c0.6-11.7,1.3-23.5,1.9-35.2c3.2-68.4,3.2-68.4-64.7-66.4
			c-1.1,0-2.2,0.1-3.2-0.1c-14.3-1.8-18.6,5.4-18.6,18.7c-0.1,53.5-0.8,106.9-1.1,160.4c-0.1,8.5-0.9,18.4,11.8,18.4
			c22.3,0,47.1,5.1,66.2-3c13.9-5.9,3.9-31.3,5.5-47.9C2055.1,1031.8,2055.4,1016.9,2056.1,1001.9z M972.2,1221
			c-0.9-78.3-0.8-77.6-63.6-74.8c-17.9,0.8-24.7,6.4-23.8,24.5c1.3,27.7,2.5,55.7,0.3,83.3c-2.3,28.3,7.2,37,35.7,36.2
			c52-1.5,52,0.2,51.5-53.1C972.2,1231.7,972.2,1226.3,972.2,1221z M1854.8,996.6c-0.2,0-0.3,0-0.5,0c0,24.6,1.8,49.4-0.5,73.8
			c-2.4,26.2,12.2,26,31,26.8c20.7,0.9,31.5-3.1,31.2-27.2c-0.6-49.2,0-98.6,2.8-147.7c2.1-37.1-25.2-22-41.4-25.9
			c-23.1-5.7-23.3,9.9-22.9,26.3C1855.3,947.3,1854.8,972,1854.8,996.6z M884.3,1018.4c0.3,78.8,0.3,78.1,66.2,74.4
			c15.9-0.9,20.1-6.3,19.5-21c-1.3-34.2-1.9-68.5-1.7-102.8c0.1-15.6-4-22.4-21.6-23.2c-62.8-2.6-62.8-3.4-62.5,59.7
			C884.3,1009.8,884.3,1014.1,884.3,1018.4z M2048.8,1224.1c4.5-78.7,2.9-80.3-63.8-73.6c-12.1,1.2-17,5-17.3,17
			c-0.7,38.3-1.9,76.7-2.9,115c-0.2,8,0.6,15.7,11.1,15.5c22.2-0.4,47,4.4,65.9-3.8c13.8-6.1,3.5-31.2,5.5-47.7
			C2048.2,1239,2048.3,1231.5,2048.8,1224.1z M2038.9,1565.5c3-71,3-70.2-52.1-70.1c-19.1,0-26.8,5.3-26.2,25
			c0.7,23.4-1.5,46.8-1.6,70.2c-0.4,55.3-8.2,45.6,45.9,48.5c26,1.4,33.8-8.2,32.1-32.2C2036.1,1593.2,2038.2,1579.3,2038.9,1565.5z
			 M2163.1,1002.6c1.2,0,2.5,0,3.7,0c0-24.5-1.4-49.2,0.4-73.6c1.7-23.3-12.2-22.2-28.1-23.1c-17.3-1-27.7,0.6-27.6,22.9
			c0.2,48-1.5,96.1-4.7,144c-1.5,21.9,6,26.3,26.5,26.9c23.6,0.8,32.7-5.2,30.2-29.9C2161.4,1047.6,2163.1,1025,2163.1,1002.6z
			 M966.6,740.8c-33.5,26.8-57.1,54-76.9,84.1c-12.5,19-9.9,43.3-3.2,62c5,13.8,27.1,4,41.4,5.9c6.3,0.8,12.9-0.5,19.2,0.2
			c15.8,1.8,19.9-5.5,19.7-20.3C966.1,831.2,966.6,789.5,966.6,740.8z M2062.7,795.4c0.4-6.4-0.1-12.9,1.2-19.1
			c5.3-25.4-4.7-34.9-30.2-31.5c-12.6,1.6-25.6,1.2-38.3,0.1c-16.2-1.5-22.4,7.1-19.6,20.6c5.6,27-21.2,66,12.2,79.8
			C2038.8,866.2,2060.1,847.9,2062.7,795.4z M1957.3,1749.2c0,58.4,0,57.6,49.7,57.4c17.7-0.1,25-5,24.8-23.1
			c-0.2-24.5,1.5-49,2.1-73.5c0.2-8.4,1.1-15.9-11.3-18.8c-48.3-11.5-65.4,0.7-65.4,48.5C1957.3,1742.8,1957.3,1746,1957.3,1749.2z
			 M1912.1,1221.5c0.1,0,0.2,0,0.2,0c0-17.1-1.6-34.4,0.4-51.3c2.8-23.2-12.2-20.9-25.8-19.7c-13.6,1.2-33.8-9.2-32.9,19.7
			c1.2,37.4-0.4,74.8-0.6,112.2c0,7.2-0.6,14.1,9.4,17.4c29.6,9.7,48.9-2.8,49.2-33.5C1912.2,1251.4,1912.1,1236.5,1912.1,1221.5z
			 M2103.5,1223.7c0,0,0.1,0,0.1,0c-0.9,17.1-1.5,34.2-2.7,51.2c-1,13.6,1.4,24.9,18.2,21.5c14.1-2.9,37.8,11.6,39.2-17.9
			c1.8-36.3,2.4-72.7,3.6-109c0.3-8.2-1.9-13.7-11-16.6c-30.3-9.5-45,0.6-45.7,32.3C2104.9,1198,2104.1,1210.9,2103.5,1223.7z
			 M2093,1571.1c-0.5,0-1,0-1.5,0c0,12.8,0.3,25.5-0.1,38.3c-0.4,14.7-4.9,31.6,20,29.2c18.1-1.7,42.2,8.7,39.6-26.6
			c-1.9-26.4-0.4-53.4,3.1-79.7c3.8-28.5-5.1-37-33.9-35.6c-20.6,1-29.2,5.3-27.5,26.5C2094,1539.1,2093,1555.1,2093,1571.1z
			 M1905.7,1567.3c0,0,0.1,0,0.1,0c0-17-1.5-34.2,0.4-51c2.5-21.6-10.2-21.7-25.2-21.4c-14.8,0.3-30.7-3.2-30.2,20.7
			c0.6,34-0.1,68.1-1,102.1c-0.4,14.4,4,20.3,19.7,21.3c25.4,1.6,41.7-2.3,36.6-33.5C1904,1593.2,1905.7,1580.1,1905.7,1567.3z
			 M2086.4,1749.1c-1.2,60.9-1.2,60.3,42.6,57.6c13-0.8,19.7-3.9,19.6-18c-0.1-26.7,0.6-53.3,1.4-80c0.4-11.7-3.4-16.4-16-17.8
			c-43-4.6-46.7-1.9-47.6,42.2C2086.3,1738.5,2086.4,1743.8,2086.4,1749.1z M2043.8,1393.2c-7.3-12,19.2-45-19.4-40.7
			c-19.9,2.2-59-23-58.5,20.9c0.2,21.1-29.3,62.2,21.2,67.2C2040.9,1445.9,2041.2,1443.6,2043.8,1393.2z M1849.1,1747
			c-0.1,0-0.2,0-0.3,0c0,7.5-0.3,15,0.1,22.5c0.9,16.6-7.5,35.9,24,37c30.5,1,29.8-15.1,29.7-35.5c-0.1-16.1,0.4-32.1,1.5-48.2
			c1.2-18.3,2.3-32.7-24.8-32.4c-24.2,0.2-33.5,7.1-30.2,31C1850.1,1729.8,1849.1,1738.5,1849.1,1747z M1919.9,792.7
			c1.6-52,1.5-51.5-45.7-48c-13.6,1-20.8,5.3-18.3,18.8c4.7,25.7-16.1,60.3,10.4,76c32,19,52,2.7,53.6-34
			C1920.1,801.3,1919.9,797,1919.9,792.7z M2097.8,1393.6c4.1,16.5-9.7,35,5.9,46.5c21,15.6,52-1.6,52.7-27.5
			c0.2-8.6,0.3-17.1,0.3-25.7c0.2-41.3-0.2-41.7-40.8-37.2C2081,1353.8,2108.4,1381.4,2097.8,1393.6z M1852.2,1395.1
			c0,5.6,0.1,8.8,0,11.9c-1,18.8-2.6,34,26.3,33.9c26.8-0.1,33.1-10.2,31.1-33.1c-0.5-5.3,0.2-10.6,0.4-15.9
			c1-38.9-2.9-42.3-40.6-37.1C1838,1359.1,1860,1384.1,1852.2,1395.1z M1884.2,690.3c39,0.5,39.2,0.3,39.6-30
			c0.3-22.6-29.5-48.6-55.9-45.4c-21.9,2.7-9.6,22-10.5,33.1C1855.8,668.5,1847.5,697.1,1884.2,690.3z M2121.4,786.4
			c-11.9,67.1-6.5,74.6,41,61.8C2152.9,826.4,2139.4,807.5,2121.4,786.4z"/>
		<path class="st0" d="M1631,2108.6c83.7,0,148.7,64.5,148.9,147.8c0.2,83.1-64.8,148.2-148.3,148.4
			c-82.6,0.2-149.3-65.8-149.5-147.8C1481.9,2175,1548.5,2108.6,1631,2108.6z M1725.7,2256.9c0.1-53.5-42-95.8-95-95.6
			c-52.9,0.2-95.2,43.5-94.4,96.7c0.8,52,42.2,93.4,93.9,94C1683.2,2352.6,1725.6,2310.3,1725.7,2256.9z"/>
	</g>
</g>
</svg>
