<?xml version="1.0" encoding="utf-8"?>
<!-- Generator: Adobe Illustrator 23.0.0, SVG Export Plug-In . SVG Version: 6.00 Build 0)  -->
<svg version="1.0" xmlns="http://www.w3.org/2000/svg" xmlns:xlink="http://www.w3.org/1999/xlink" x="0px" y="0px"
	 viewBox="0 0 3000 3000" style="enable-background:new 0 0 3000 3000;" xml:space="preserve">
<style type="text/css">
	.st0{stroke:#000000;stroke-width:10;stroke-miterlimit:10;}
</style>
<g id="Layer_1">
</g>
<g id="Layer_2">
	<g>
		<path class="st0" d="M259.8,1852.4c-121.5,5.2-183-80.1-149-203.6c15.1-54.8,39-107.2,44.7-164.7c5.4-54.8-2.9-107.9-16.3-160.7
			c-19-74.9-45.7-148-55.8-224.9c-28.7-217.8,45.2-393.2,221.7-524.2c16.3-12.1,22.9-23.7,24.6-44.2
			c12-146.9,79.6-261.4,213.5-325.7c134.9-64.9,267.6-47,390,37.8c19.9,13.8,26.6,9.5,39.7-6.5c52.9-64.8,114.7-118.7,198.5-139
			c80.7-19.6,153.4-5,209.6,60.8c11.3,13.2,18.7,7.5,29.1,1.9c51-27.3,104.3-40.9,162.1-25.9c29.6,7.7,56.8,20.8,76.7,44.3
			c11.1,13.1,17.1,10.7,29.1,1.1c58.6-47.4,125-62.2,198.1-42.4c34,9.2,59.4,30.5,77.3,63.6c6.1-6.6,10.6-11.4,15-16.2
			c82.5-88.9,207.3-91.3,293.8-6c7.7,7.6,11.6,22,29.4,9.6c123.1-85.8,254.3-83.5,382.1-18.8c177.2,89.8,277,236,267.2,438.7
			c-9.1,189.9-111.2,322.8-281.5,404.4c-5.2,2.5-10.5,4.9-19,8.9c178.8,169.8,270.5,375.6,255.9,622.7
			c-14.7,247.7-131.3,440.5-329.7,589.4c19,8.8,36.4,16,52.9,24.8c148.3,78.9,182.4,232,87.8,377.2
			c-73.4,112.6-181.8,160-308.7,176.9c-98.1,13.1-196.9,13.9-295.6,13.5c-236.2-0.9-472.4-5.9-708.2-20.1
			c-126.5-7.6-253.2-15.8-376.9-45.7c-56.9-13.7-112.1-32.2-146.3-85.7c-9.4-14.7-22.7-6.5-34.1-4.5c-82.9,14.3-166,27.4-250.3,29.2
			c-141.6,3.1-275.7-22.3-391.7-109.8C70.2,2493.6,16.3,2337,60.4,2203.1c15.8-48.1,44.2-88,77.9-124.4
			c52.6-56.9,93.9-120.3,115.4-195.5c1.9-6.5,3.6-13,5-19.6C259.5,1859.9,259.5,1856.2,259.8,1852.4z M380.1,529.2
			c11.3-4.4,20.1-8,29-11.3c116.9-44.3,235.4-50.6,355.7-15.5c12.6,3.7,25.5,6,16.6,24.6c-6.3,13.1-5.7,30.5-30.4,22.4
			c-71.1-23.3-144-25.6-218-15.3c-226.3,31.4-406.1,238.1-408.5,466.1c-1,92.9,26,179.2,49.8,266.7c21.7,79.7,40.7,159.3,26.8,242.9
			c-8.5,50.8-29.3,98-41.9,147.6c-10,39.4-12.9,78.6,8.4,115.4c14.2,24.5,44.6,38.3,69.2,31.6c25.8-7,39.9-21.1,42.4-51.6
			c8.2-99.9,1.5-199-6.1-298.5c-9.9-130.1-24.5-260.1-3-390.7c24.6-149.5,91.7-271.8,221-355.8c52.5-34.1,111-48.9,173.3-50.1
			c15.2-0.3,21.4,6.2,18.6,21.1c-2.2,11.7,6,28.7-17.6,28.5c-115.7-1.1-195.9,61.1-261.3,148.7c-84,112.6-100.6,243.3-95.7,377.7
			c4.8,132.4,19.5,264.4,23.2,396.8c5,180.8-30.7,348.8-161.8,487.2c-103.2,109-100.1,265-1.3,379
			c77.2,88.9,178.7,129.7,291.7,146.1c120.3,17.5,239,0,357.7-18.9c25.8-4.1,28.8-13,25-37.4c-22.1-141.2,45.1-332.5,248.6-377.6
			c10.8-2.4,23.5,1,33.2-10.1c-7.4-6.6-14.5-13-21.6-19.3c-154-137.4-245.9-307.8-262.7-514c-20.8-255.8,67.4-470.8,256.3-644.2
			c15-13.8,14.5-18.7-2.6-30.1c-228.6-153-301-427.7-176.8-671.1c9-17.5,7.1-25.5-8.2-37.2c-172.6-132-421.8-65.7-504.6,134.9
			C390.3,452.6,378.3,488,380.1,529.2z M1867.2,876.3c0-0.8,0-1.6,0-2.4c-82.3,0-164.6,0-246.9,0c-56.3,0-112.2,4.9-167.1,17.2
			c-363.5,81.6-604.7,421.8-562.2,792.3c39.4,343.9,329.6,618.9,675.7,634.2c146.7,6.5,294,2.3,441,2.5c82.2,0.1,164.7,4.6,246-11.1
			c382.8-73.9,632.6-412.6,590.7-800.6c-36.3-336.1-331.1-615.8-669.5-631.4C2072.5,872.3,1969.8,876.3,1867.2,876.3z
			 M1580.8,2370.2c-7.7-1.2-11.4-2.1-15.2-2.3c-129.8-8.1-250.3-45.6-361-114.1c-6.7-4.2-13.5-5.8-21.7-5.9
			c-147-3.2-257.9,77.5-287,219.1c-28.4,138,2.4,221.2,147,248.8c143,27.2,287.4,36.8,432.2,44.7c15.5,0.8,17.2-5.1,15.7-18.5
			c-2.1-19.2-3.4-38.8-1.9-57.9c1.7-21.7-6-29.1-27.5-28.5c-38.3,1-75.1-6.3-107.2-29.1c-37.1-26.4-56.9-70.8-48.2-107.7
			c9.7-40.9,47.6-72.1,93.5-80c37.1-6.4,72.9,0.2,109.3,4.8c12.1,1.5,27.1,9.4,36.2-7.2C1556.4,2415.2,1567.9,2394.1,1580.8,2370.2z
			 M2021.9,2773.6c99,13.9,359.1-2.1,451.1-26.5c113.7-30.2,188.4-102.1,228-211.5c26.8-74,7.9-145-50.2-197.8
			c-35.9-32.6-79.2-50.9-124.2-66.8c-10.8-3.8-19-3.4-29.1,2.2c-122.7,69-255.5,97.2-395.3,96.8c-18.3-0.1-43.5-6.1-53.1,3.4
			c-10.4,10.2,7.9,33,7.6,50.7c-0.4,30.6,16.4,30.6,38.8,25.8c42.7-9.1,84.6-7.1,124.7,11.8c49.5,23.4,77.1,72,68.4,119.2
			c-8.9,48.6-49.8,80.9-106.2,86.2c-36.9,3.5-73.3-1.7-110-2.6c-13.1-0.3-24.7-0.7-28.4,16.4
			C2037.5,2711.9,2029.4,2742.6,2021.9,2773.6z M1264.7,140.5c-80.2-12.1-141.3,18.3-195.7,65.2C967.9,292.9,916.4,405,905.7,537.3
			c-13.2,162.4,93.2,355.1,236.3,427c9.5,4.8,16.9,6.9,26.5,0.1c71.5-50.6,150.2-86.4,236-112.2c-4.7-4-7.3-6.9-10.4-8.8
			c-173.4-106.9-233.1-264.5-207.8-461.3C1197.1,297.8,1221.7,218.4,1264.7,140.5z M2576.9,314.7c-0.4-105.5-67.3-158.8-166.3-132.8
			c-121.4,32-194,140.7-171.8,248.6c8.9,43.5,15.7,87.4,21.8,131.4c6.5,47.4,2.7,95.5-30.8,131.2c-22.8,24.4-26.8,48.9-25.2,78.3
			c0.7,12.5,1.1,25.2-0.1,37.7c-1.5,15.8,4.3,20.9,20.3,22.9c107.9,13.4,208.5,48.7,301,105.8c15,9.2,21.8,4.6,30.6-6.7
			c23.3-30,41-62.8,54-98.6c26.2-72.1,7.1-160.3-84.2-176.8c-2.8-0.5-5.3-2.2-8-3.3c-69-28.6-86.8-89.6-42.7-149.9
			c14.2-19.4,31.7-36.4,48.2-54C2559.1,410.8,2576,365.9,2576.9,314.7z M1756.7,2775.6c60.9,0,121.8-1,182.6,0.5
			c24,0.6,36.8-3.6,39.7-31c3-27.5,13.6-54.2,19.7-81.4c20.2-89.6,27.8-179.3,1.1-269.2c-5.5-18.5-14.1-25.4-34.5-25.1
			c-100.5,1.3-201.1,0.6-301.6,0.6c-10.3,0-20.3-1.7-28.2,9.4c-78.2,110.4-110.4,232.4-95.4,366.9c0.8,7.1,2.7,11.7,5.9,14.6
			c5.8,5.1,14.2,4.4,16.4,4.2C1577.8,2764,1652,2768.5,1756.7,2775.6z M1388.8,439.3c-19.3,98.4,6.2,157.8,87,208.3
			c31.4,19.6,65.4,33.9,100.9,43.4c144.6,38.4,291.8,47.1,440.5,37.2c38.7-2.6,77.1-6.4,113.9-19.8c55-20,84.8-61.7,82.7-119.6
			c-0.9-24.1-6.2-47.9-8.4-72c-1.5-16.4-7.7-17.4-22.8-13.5c-81,20.8-157.1,8.3-225.8-39.7c-14.9-10.4-20.3-8.8-31.2,4.7
			c-41.6,51.5-98,66.2-161.3,45c-28.1-9.4-51.6-26.1-74.9-43.4c-5.2-3.8-10.4-15.2-18.3-3.8c-28.5,41.1-70.3,38-112.5,34.8
			C1497.6,496.4,1442.7,473.8,1388.8,439.3z M2582.9,184.9c38,54.9,53.3,111.1,38.6,169.4c-10.3,40.9-11.1,64.8,27.7,95.8
			c53.7,42.8,56.7,111.8,37.1,174.2c-15.6,49.8-24,96.3-18.6,149.5c7,69-29.8,128-69,183.2c-4.5,6.4-17.5,11.1-10.4,20.8
			c6.9,9.4,17.6,2.7,26.6-0.5c166.3-57.6,284.2-226.4,280.3-401.2C2891.2,400.4,2762.6,236.2,2582.9,184.9z M1915.5,780
			c-85.4,1.2-170.1-6.3-254.2-20.3c-80.5-13.5-158.9-33.6-227.2-81.4c-79.9-56-113.6-132-96.5-228.7c7.7-43.7,19.3-86.7,27.4-130.3
			c9.4-50.8,10.5-100.7-29.3-141.5c-21.2-21.7-24.5-20.8-38.5,5c-40.2,74.5-58.6,154.9-66.6,238.4c-16.7,174.7,62.3,319,216,395.3
			c25,12.4,49.1,19.7,77.6,14.5c23.6-4.3,48.1-5.3,72.3-5.4c170.3-0.6,340.6-0.7,510.8-0.8c53.8,0,53.2,0.1,49.3-53.8
			c-1.1-15-5.6-18.1-19.6-13.7C2064.7,780.2,1989.9,778.4,1915.5,780z M2117.1,464.7c15.4,0.9,36-3.9,56.7-9.1
			c13.1-3.3,19.5-8.4,17-24c-11.1-68,3.6-130.5,43.8-186.5c6.3-8.8,8.7-14.9,1-25.1c-35.8-47.2-108.2-68.5-167.3-47.7
			c-61.1,21.5-100.5,78.1-97.5,140.4c1.2,24.3-0.9,48.6-6.6,71.9c-3.9,15.8-0.5,24.8,12.2,34.1
			C2016.6,448.1,2060.8,464.8,2117.1,464.7z M1688,315.2c-15.4,62.5,4.1,106.8,62.1,138.7c72.1,39.6,138.6,16.7,162.4-61.9
			c16.2-53.5,9.4-107.5-1.1-160.8c-3.8-19.6-16.4-34.3-35.8-42.7c-57.3-24.7-109.6-11.7-159,21c-20.7,13.7-37.2,29.7-29.3,59.5
			C1691.1,283.4,1688,299.7,1688,315.2z M1639,347c0.8,0,1.5,0,2.3,0c0-19.3,0.1-38.7,0-58c-0.4-41.2-13.2-75.6-51.4-97.2
			c-45.9-25.9-124.5-18.5-167.8,15.8c-7.4,5.8-9.1,11.7-7.4,19.9c9.8,46.8,1,92.2-10.1,137.5c-3.2,13-2.9,23.3,10.4,32.4
			c55.9,38.4,116.8,58.8,185.2,56.1c22.9-0.9,33.4-12.8,34.9-34.1C1636.7,395.3,1637.7,371.2,1639,347z M2143,2620.5
			c0-0.3,0-0.6,0.1-0.8c9.6,0,19.3,0.3,28.9,0c36.1-1.2,64.7-20.4,68.8-46.1c4.7-29.8-13.6-56.9-47.5-70.9
			c-38.8-16-77.5-8.8-116.4-0.1c-10.4,2.3-11.3,8.7-11.1,16.8c0.6,26.1-0.9,52-5.9,77.7c-2.7,13.9,3.1,18.3,16.9,18.7
			C2098.8,2616.1,2120.8,2618.7,2143,2620.5z M2626.2,652.1c16.9-33.6,23.8-67.1,18.9-102.3c-4.6-33.2-15.1-64-47.2-81.7
			c-7.2-4-16-11.2-23.4-2.7c-22.6,26.1-51.7,46.8-67.3,78.7c-14,28.7-7,47.6,23.2,60C2563.2,617.6,2596.7,629.1,2626.2,652.1z
			 M1468.4,2609.1c17,4.7,29.2-4.1,29.9-31.5c0.4-15,6.2-30,10.2-44.9c10.3-38.4,10.5-39.1-29.3-44.6c-30.4-4.2-61.5-8.7-91.1,4.1
			c-37.8,16.3-45.6,49.7-19.5,81.2C1392.5,2602.2,1426.1,2605.5,1468.4,2609.1z"/>
		<path class="st0" d="M498.9,1460.6c3.7-54.8,4.7-109.7,15.6-163.4c21.6-105.5,64.6-199.2,156.4-262.2
			c71.2-48.8,149.7-66.4,234.4-40.4c9.2,2.8,30.4,1.4,20.3,22.1c-6.3,13-4.6,34.2-34,24.8c-94.1-29.9-196.3,10.3-261,99.7
			c-46.5,64.4-67.4,137.9-75.8,216.2c-11,102.7,10.2,204.7,6,307.1c-4.2,101.4-8.4,202.8-35.9,301.5
			c-34.8,125-101.9,222.6-228.4,269.5c-31.4,11.6-36.2,7.2-39.4-25.7c-1-9.9,1-12.7,10.3-15.8c133.7-45,194.8-147.6,217.8-278.8
			c19-108.5,3.6-215.8-14.6-322.8c-19.3-113.4-40.8-226.8-31.5-342.6c8.9-111.8,41.7-214.7,125-294.9
			c73.8-71.1,163.5-100.4,265.1-93.8c14.1,0.9,32.3-1.3,28.1,24.4c-3.5,21.1-10.8,27.6-33.8,24.9c-129.3-15.6-253.3,67-304.4,199.1
			c-40.4,104.4-38.7,211.8-25.3,320.3C495,1440.1,497.2,1450.3,498.9,1460.6z"/>
		<path class="st0" d="M1865.1,2207.2c-79.7-3-176.5,4.6-273.1-5.3c-230.1-23.7-433.5-227.5-456.5-458.1
			c-8.2-82.1-11.1-164.6,3.4-245.9c43.9-245.4,237.2-424,487.5-437.4c181.3-9.7,363.9-12.5,545.3,2.8
			c244.8,20.6,453.1,243,462.3,488.9c3.4,91.6,7.6,183.7-19.1,273.7c-67.7,228.2-272.1,379.2-518,381.3
			C2025.3,2207.7,1953.7,2207.2,1865.1,2207.2z M1883,2157.7c73.6,0,147.2,0.8,220.7-0.1c239.6-3,431.5-162.9,475.9-396.4
			c12.2-64.2,10.2-129.4,7.1-194c-11.9-249.6-204.3-447.4-453.3-458c-164.3-7-329.3-7.2-493.5-0.5c-235.7,9.5-415,173.7-454.5,405.8
			c-9.3,54.6-6.9,110.1-5.6,165.2c6.7,272.1,213.4,475.5,485.4,478.1C1737.8,2158.4,1810.4,2157.8,1883,2157.7z"/>
		<path class="st0" d="M1886,1206c82.2,0,164.3-0.5,246.5,0.1c169.4,1.3,326.7,138.1,350.4,306.7c11.2,79.8,13,160.3-4.3,239.6
			c-36.5,166.7-184.2,285.5-355.3,286.4c-155.8,0.9-311.5,0.7-467.3,0.4c-209-0.3-366.5-149.4-376.8-357.7
			c-2.8-56.9-5.5-114.4,5-170.9c33.4-180.6,180.4-302.7,366.8-305.3c78.4-1.1,156.7-0.2,235.1-0.2
			C1886,1205.4,1886,1205.7,1886,1206z M2433.7,1513.1c-9.6-52.8-33-97.7-64.2-139.3c-13.7-18.3-25.2-22.1-47.8-11.4
			c-201.8,94.9-404.4,188.1-606.8,282c-111.2,51.6-222.1,103.9-333.8,154.6c-19.6,8.9-20.6,15.6-9.9,33.4
			c23.8,39.8,54.8,71.9,91.2,100c19,14.7,35.3,16,57.7,5.6c117.2-54.6,235.2-107.6,353.1-160.9c181.2-82,362.5-163.7,543.7-245.6
			C2425.1,1527.6,2437,1526.1,2433.7,1513.1z M1857.9,1837.8c89.7,51.2,175.1,100,260.6,148.5c4.8,2.7,11,4.8,16.4,4.4
			c84.3-5.6,156.1-37.8,216.4-100.2c-79.6-53.2-157.5-105.1-235-157.4c-8.4-5.6-15-6.1-23.8-2.1
			C2016.4,1766,1940,1800.6,1857.9,1837.8z M1644.5,1260.5c69,47.4,138.4,94.1,206.6,142.6c17.1,12.2,30.4,13.8,49.7,5
			c76.3-34.9,153.8-67.3,230.3-101.7c26.4-11.8,54.6-20.3,78.1-41.7C2021.8,1247.1,1834.3,1258.9,1644.5,1260.5z M1696.3,1497
			c-88.4-51-172.6-99.2-256.5-148.1c-12.6-7.4-19-1.7-26.6,6.7c-37,40.8-62.8,87.4-77.3,140.8c-4.5,16.7,0.1,24.2,15.1,30.8
			c39.6,17.6,78.7,36.4,117.9,55c8.1,3.8,15.9,7.2,24.8,3.3C1559.9,1556.6,1626,1527.7,1696.3,1497z M2305,1316.7
			c-16.2-18.8-29.7-20.4-50.2-11.4c-301,132.7-602.6,264.3-904,396.2c-21.1,9.2-25.9,26.9-12.7,51.5c10.2,19.1,21.9,2.1,30.3-1.8
			c215.6-99.3,430.9-199.4,646.1-299.4C2110.8,1407.2,2206.9,1362.4,2305,1316.7z M2015.8,1992.9c0.8-2.4,1.6-4.7,2.4-7.1
			c-69.1-39.6-138.3-79.3-207.5-118.8c-11.2-6.4-20.6,1.3-30,5.5c-51.9,23.3-103.6,47-155.3,70.8c-22.2,10.2-46.2,17.4-65.6,36
			C1711.7,2001.9,1864.1,1985.9,2015.8,1992.9z M1822,1441.6c-85.9-58.9-167-114.4-248-170.2c-7.1-4.9-13.9-6.3-21.7-3.5
			c-28.8,10.1-57.1,20.9-82.4,42.7c90.6,52,179.4,102.6,267.8,153.8c9.1,5.3,17.2,7.5,27.1,2.9
			C1782.1,1459.1,1799.7,1451.6,1822,1441.6z M2158.5,1702.6c68.9,46.3,135.2,89,199.2,134.9c23.1,16.6,32.5,10,41.7-11.5
			c3-7.1,6.5-14.1,10.6-20.6c7.5-11.9,3.1-18.8-7.9-25.7c-53.1-33.3-105.9-67.1-158.7-101c-8.7-5.6-16.7-8.8-26.9-3.7
			C2198.7,1683.9,2180.6,1692.2,2158.5,1702.6z M2282.7,1645.9c46.5,29.6,89.8,56.5,132.2,84.6c15.9,10.5,19.7,3.6,21.4-10.9
			c5-42.2,3.4-84.6,3.6-127c0.1-11.3-3.5-16.8-15.4-11.4C2378.5,1602.2,2332.4,1623.3,2282.7,1645.9z M1420.9,1617.7
			c-11-12.4-23.5-15.2-34.4-20.4c-62.6-29.6-62.1-29.5-59.3,41.1c0.7,18.4,6.2,18.4,20.2,11.7
			C1370.6,1638.9,1394.5,1629.2,1420.9,1617.7z"/>
	</g>
</g>
</svg>
