<?xml version="1.0" encoding="utf-8"?>
<!-- Generator: Adobe Illustrator 23.0.0, SVG Export Plug-In . SVG Version: 6.00 Build 0)  -->
<svg version="1.0" xmlns="http://www.w3.org/2000/svg" xmlns:xlink="http://www.w3.org/1999/xlink" x="0px" y="0px"
	 viewBox="0 0 3000 3000" style="enable-background:new 0 0 3000 3000;" xml:space="preserve">
<style type="text/css">
	.st0{stroke:#000000;stroke-width:10;stroke-miterlimit:10;}
</style>
<g id="Layer_1">
</g>
<g id="Layer_2">
	<g>
		<path class="st0" d="M2888.7,1102.2c8.8,189.4,6.2,378.3-40.4,563.6c-19.7,78.5-48,154-98.9,218.2c-15.2,19.2-8.2,34.3-2.5,51.7
			c52.5,162,71.5,327,45.4,496.1c-11.6,74.7-33,146.6-68.2,213.6c-109.1,208-278.4,278.2-497.4,245.8c-33.7-5-64.8-5.6-98.2,4
			c-85.1,24.4-167.6,7.6-247-26c-20-8.4-35.3-10.1-55.8-0.6c-68.7,31.7-141.3,50.6-216.9,55.2c-140.7,8.6-281.5,15.6-420.4-18
			c-100.6-24.4-182-78.2-239.9-164.2c-16.4-24.3-28.5-22.1-51.1-10.2c-154.2,80.9-318.2,114.6-490.3,83.1
			c-116.2-21.3-205.6-90-266.9-191c-45.6-75.1-41.2-151.1,24.9-199.1c133.1-96.5,109.1-250.9,46.3-356.9
			C154.7,1972,108,1874.2,81.8,1766.1c-19.1-78.7-30.8-157.4-26.5-238.5c10-187.5,23.3-375,26.6-562.7
			c2.2-126.4,50.8-228.5,132.9-318.3c18.8-20.6,21.6-38.2,14.9-63.8C183,402.9,247.5,275.1,420.9,207.3c153.7-60,312.4-55.6,472-30
			c65,10.4,128.3,27.7,191.1,46.8c12.2,3.7,21.9,6.5,33.8-1.1c127.3-80.6,271.1-98.1,416.5-104.1c241.4-9.9,483-11.1,724.2,7.1
			c100.3,7.6,199,25.1,295.3,56.6c119.1,38.9,198.9,118.2,247,231.5c56.1,132.3,84.4,271,87.6,414.4
			C2890.3,919.7,2888.7,1010.9,2888.7,1102.2z M2832.4,770.8c-2-46.7,2.5-95.6-21.7-133.7c-60-94.2-143.5-161-258.8-171.8
			c-125.6-11.7-250.8-9.8-376.2,13.9c-161.4,30.5-286,98.8-323.2,273.3c-33.9,159-59.6,318.9-51.8,482.4
			c6.4,134.8-41.8,246.2-144.4,334.2c-45.1,38.7-94.2,71.6-149,94.2c-29,12-41.1,25.4-36.1,59.1c8,53.7-1.8,106.3-20.6,157.9
			c-8.7,24-41.5,47.7-26.2,68.8c12.7,17.5,48,19,73.5,26.7c349.5,106.3,698.4,112.9,1047-5.4c90.3-30.6,153.7-88.6,198.5-171.3
			c56.9-105.1,75.3-220.7,87.7-336.2c21.2-197.8,6.6-396.7,7.8-595.1c0.1-14.7-6-25.8-17.6-34.2c-207-150.7-431.8-188.8-672.6-97.8
			c-107.2,40.5-168.7,121.1-179.9,239.7c-13.6,143-20.3,286.1-22.5,429.6c-2.1,136.5,48.8,245.7,163.2,321.6
			c24.2,16.1,16,28,6.3,44.8c-13.2,22.7-25.3,5-35.5-2c-110.3-76.1-176.1-178.8-182.5-314.7c-7.5-159.8,4.9-319,18.4-478
			c13.6-159.9,105.2-258.5,252.5-304.3c214.5-66.8,420.7-40.7,615.4,72.4C2798.7,753.5,2810.5,767.4,2832.4,770.8z M683.6,212.1
			c-80-0.9-174.8,11.8-264.9,52c-124.2,55.3-175.7,156.4-146.3,287.3c5.6,24.7,12.2,26.8,32.7,11.3c76.6-58,161.2-101,254.2-126.1
			c69.8-18.8,140.2-22.7,209.9,1.1c12.1,4.1,32.9,3,23.5,27c-7.3,18.8-14.4,32.4-40.4,21.9c-43.2-17.5-88.9-18.4-134.6-9.8
			c-135.9,25.8-252.7,88.7-349,186.9C198.3,735.4,141.6,817.2,136,922.7c-9.4,178.1-17.5,356.4-24.8,534.6
			c-3,73.5-10.4,147.3,3.9,220.7c24.6,125.9,67,243.9,135.3,354.3c101.6,164.4,82.3,297-52.1,428.4c-35,34.2-42.8,71.7-24.2,117
			c11.9,29,29.7,54.8,52.4,75.6c67.2,61.7,105.5,52.5,147.8-8.7c64.6-93.4,93.8-198.1,98.1-309.9c4.5-117-9.9-233-27.5-348.5
			c-29.5-193.7-57.6-387.5-44-584.3c5.3-76.5,12.4-153.2,56.1-219.5c13.3-20.2,15.7-34.7,4.3-57.4c-32.7-65.1-16.6-125.7,41-171.3
			c26.6-21.1,56.6-35.7,88.5-46.8c62.9-21.9,128.3-29.3,194.2-27.6c28.4,0.7,37.8-9,39.7-35c2.4-33.4,6.3-66.7,10.8-99.9
			c23.2-169.5,75.4-326.7,198.8-451.8c25.3-25.6,9.5-27.3-11.7-33.2C917.2,230.2,810.6,212,683.6,212.1z M1446,2879
			c80,2.5,155-2,228.8-16.4c167.3-32.5,294.1-117.3,342.5-288.7c44.7-158.2,10.8-307.5-66.9-449c-7.3-13.3-16.7-18.2-31.8-19.2
			c-176.2-11.7-346.9-50.2-513.9-106.2c-18.7-6.3-31.3-5.1-47.1,7.6c-113.5,91-236.9,105.2-368.3,43c-19.2-9.1-26.9-8.5-33.8,13.2
			c-49.3,154.1-73,310-39.9,471.1c39.4,191.8,152.2,303.2,342.6,333.8C1321.7,2878.3,1386.2,2881.5,1446,2879z M871.5,1218.4
			c9.2,96.8,28.1,185.9,59.4,270.8c223.1-125.1,397.3-76.9,531.6,149.9c-2.8-20.3-3.9-28-4.9-35.8c-21-157.2,62.1-303.4,204.6-359.7
			c26.2-10.4,41.6-0.8,41.5,25.3c-0.1,21.8-20.6,18.4-31.7,24c-108.7,54.6-176.5,165.4-165.9,276c1.4,14.2-4.1,42.4,27.3,23.8
			c127-75.3,218.8-173.7,214.2-333.1c-4.8-163.1,15.5-323.4,46.5-483.1c34.3-176.7,129.7-291.9,310.3-332.9
			c109.2-24.7,218.5-38.5,330.6-37.1c124.9,1.6,243.5,18.1,340.4,106.6c3,2.8,4.8,2.4,5.9-4.3c-40.1-134.6-113-240.8-259.6-283
			c-173.5-50-351.1-58-529.7-60.3c-28.1-0.4-19.8,18.9-19.5,33.3c2.2,107.6-32.6,202.6-96.5,288c-32.7,43.7-75.7,70.5-128.8,83.2
			c-61.4,14.7-119.7-2.6-178.7-14.3c-112.5-22.5-177.5,11.4-227.5,115c-24.8,51.4-27.1,105.4-30.5,160.4
			c-4.6,75.1,11.6,150.1,0.5,224.8c-25.4,171.6-128.5,248-294.4,219.9C965.9,1267.4,920.7,1244.2,871.5,1218.4z M351.4,2742
			c22.9,14.2,48.5,20.9,75,24.8c161,23.7,311.3-10.2,454.6-83.8c20.2-10.4,22.4-20.5,14-40.9c-11.7-28.3-20.7-58.2-27.2-88.2
			c-38.1-175.6-14.6-346.5,42.1-514.3c7.6-22.4,8.3-37.2-9.8-56.6c-112.4-121.2-122.6-286.7-27-424.5c12.1-17.5,15.1-32.3,8.5-51.7
			c-41.7-121.2-64.1-246.1-69.9-373.9c-1-21.9-10.3-27.7-28.6-28.8c-170.1-10-308.5,43.3-327.8,254.6
			c-18.6,204.1,8.5,404,38.5,604.2c19.9,132.8,37.2,266.1,27.5,400.3C510.7,2508.3,466.2,2640.5,351.4,2742z M1772.6,165.7
			c4,18.3,7.5,32.6,10.1,47c21.7,119.7-50.6,223-168,240.3c-77.4,11.4-134.9-32.5-143.3-110.1c-5.3-49.5-4.8-99,5.2-148.1
			c1.8-8.9,6.1-20.1-9.7-19.7c-11.2,0.3-26.5-3.8-27.6,14.6c-0.6,10.6,1.3,21.4,3.1,32c8.3,48.4,5.1,96.5-5.9,143.9
			c-19.8,85.2-82.5,128.6-169.4,119.1c-76.1-8.3-115.3-56.5-118-145.7c-0.7-23-0.1-46-0.1-75.7c-118.5,82.5-185,190-224.6,315.9
			C878,726.5,868.9,879.4,860.8,1032c-6.4,121.5,21.4,156.1,140.3,187.7c10.4,2.8,20.9,5.1,31.4,6.8
			c104.9,17.1,168.1-12.5,204.9-98.3c18.1-42.1,27.4-86.3,25.3-133c-4.2-92.4-11-185.5,7.5-276.7
			c25.2-123.8,102.7-204.4,206.6-219.7c51.4-7.6,101.1,7.1,151,17.2c68.2,13.8,136.3,16.2,187.9-39.2
			C1889.2,397.9,1923,302,1922,194c-0.2-19.4-5.2-29.5-27.5-28.7C1855.7,166.8,1816.9,165.7,1772.6,165.7z M1134.7,2035.1
			c57.3,0.5,105-12.7,150.4-39.5c104.6-61.8,157.1-181.2,130.6-303.3c-26.1-120.3-127.9-207.1-256.7-219
			c-112.7-10.4-229.5,61.6-276.3,170.4c-47.4,110.3-17.8,242.4,69.8,320.5c21.6,19.2,32.5,17.8,48.8-6.1
			c73.9-108.8,100.4-226.9,72.5-355.6c-5-23.3-3.3-32.7,21.9-39.2c31.5-8.1,25,16.3,28.9,29.4c5.3,17.8,7,36.8,8.7,55.4
			c11.4,123.6-17.6,236.9-90,337.9c-16.3,22.8-10.8,31.2,13.4,37.6C1083.9,2030.8,1111.5,2035.4,1134.7,2035.1z M1913.3,2822.9
			c109.8,56.2,284.3,54.7,355.4-117.8c22.2-53.8,32.8-110.2,45.7-166.2c32.6-141.8,33.2-284.1,4.2-426.6c-3.3-16.2-3-31-28.7-26.1
			c-85.7,16.3-172.5,23.6-259.8,22.6c-25.8-0.3-25.4,8.3-15.9,28c13.9,28.9,27.6,58.3,37,88.9c68.3,222.6,53.6,426.6-135.8,590.2
			C1913.8,2817.2,1913.9,2820.5,1913.3,2822.9z M2693.9,1944.8c-60.7,55.9-134.3,75.9-207.6,96.5c-33.4,9.4-67.2,17.6-100.9,26
			c-12.9,3.2-25.2,8.3-18.4,23.7c6,13.8-4.2,37.7,23.2,39.6c110.8,7.6,221.5,15.6,332.2,23.2c10.7,0.7,23,2.1,19.9-15.4
			C2731,2074.2,2720,2009.9,2693.9,1944.8z M1634.7,165.7c0,0.8,0,1.7,0,2.5c-24.1,0-48.2,0.4-72.3-0.1c-19-0.4-29.5,7.5-33.6,26.5
			c-10.8,50.3-13.7,100.9-4.5,151.5c7.2,40.1,29.1,56,70.5,55.8c83-0.4,147.1-72.1,140.4-157.1c-5.9-75.4-10.4-79.5-84.4-79.1
			C1645.4,165.7,1640.1,165.7,1634.7,165.7z M2572,2356.2c-32.2,0-64.3,0-96.5,0c-80.6,0-79.7,0.1-92.2,79.9
			c-4.3,27.6,0.6,38.4,31.2,37.7c77.7-1.9,155.5-0.6,233.2-0.6c92.6,0,91.8-0.1,100.1-91.9c1.9-20.8-4.1-25.6-23-25.3
			C2673.9,2356.8,2623,2356.3,2572,2356.2z M2631.3,2688.9c-94.7-3.7-184.3-7.2-273.9-10.8c-12.3-0.5-23.5-0.6-28.8,14.6
			c-18.4,53.6-47.2,101.4-86.1,144.3C2392.9,2874.5,2561.5,2810,2631.3,2688.9z M2574.6,2305.8c45.6,0,91.3-2.3,136.7,0.8
			c34.9,2.4,45.6-10.9,40.7-43.1c-1.2-7.9-1.1-16.2-0.1-24.1c3.2-26.3-8.8-34.6-34.2-35.9c-86.9-4.3-173.7-11.5-260.7-16
			c-70.2-3.6-70.3-2.5-67.5,65.9c0.2,4,0.8,8.1,0.3,12c-3.5,30.2,7,43.1,40.1,41.1C2478,2303.6,2526.4,2305.8,2574.6,2305.8z
			 M1394.7,272.8c-1.2-15.6-3.9-34.3-3.7-53c0.3-29.9-13.7-36-40.5-30c-41.9,9.3-83.3,19.7-123.6,34.5
			c-12.9,4.8-24.4,10.2-24.5,27.4c-0.1,32.1-4.7,64.6-1.3,96.3c7.8,73.4,38.7,95.2,111.5,82.7c31.1-5.3,53.6-21.7,65.6-52.2
			C1391.4,345.3,1393.6,310.8,1394.7,272.8z M2546.5,2525.1c-34.8,0-69.6,0-104.4,0c-73.1,0-71.5,0.4-88.2,69.9
			c-6.6,27.2,1.6,32.2,25.7,32.9c70.8,2.1,141.6,5.9,212.5,8.7c85.6,3.3,85.6,3.2,114.4-79.3c0.9-2.5,2.1-4.9,3.1-7.4
			c8.3-19.2,2.3-25.7-18.6-25.2C2642.9,2525.9,2594.7,2525.1,2546.5,2525.1z M743.8,1051.5c13.4,0,26.9-1.2,40.1,0.3
			c18.9,2.1,27-4.5,26.6-24c-0.4-25.4,0.7-50.8,1.8-76.2c0.5-12.2-1.3-20.6-16.4-20.9c-95.1-2.2-187.4,7.5-266.4,67.5
			c-34.3,26-41.3,58.4-26.5,96.2c6.4,16.4,11.6,24.9,30.7,11.7C596.7,1062.4,669.4,1053.2,743.8,1051.5z"/>
		<path class="st0" d="M2469.8,996.3c-0.6,52-47.5,97-99.3,95.3c-50.7-1.7-94.1-46.6-93.6-96.8c0.5-51.9,47.3-96.9,99.2-95.2
			C2426.7,901.3,2470.3,946.3,2469.8,996.3z M2416.7,996.3c-1.2-26.8-15.7-42.9-42.5-43.4c-26.6-0.5-43.4,14.4-44,41.8
			c-0.6,27.3,15.8,43.3,42.1,44.1C2398.9,1039.6,2414.1,1023.8,2416.7,996.3z"/>
		<path class="st0" d="M2343.1,1351c-53.5,0.7-98.7-43.2-98.2-95.3c0.5-50.6,44.1-93.6,95.5-94.2c52.5-0.6,95.4,39.8,97.2,91.5
			C2439.4,1305.9,2396.6,1350.3,2343.1,1351z M2340.8,1212.3c-26.2,2.8-41.7,17.4-42,43.8c-0.2,26.6,15.4,43.3,41.7,43.7
			c28.4,0.5,45.2-17.3,44.5-45.2C2384.3,1228.9,2367.7,1214.2,2340.8,1212.3z"/>
		<path class="st0" d="M2320.1,1421.9c52.9-0.6,94.5,39.2,96,91.8c1.5,54-40.3,98.4-93.5,99.2c-51.4,0.8-94.5-40.9-95.9-92.8
			C2225.2,1464.9,2265.5,1422.6,2320.1,1421.9z M2321.1,1560.7c24.5-1.8,42-14.3,43.5-41c1.5-26.4-13-43.6-39.6-45.4
			c-28.5-2-46.3,13.8-47.3,42C2276.9,1542.6,2293.2,1557.4,2321.1,1560.7z"/>
		<path class="st0" d="M1538.1,2533.3c-94.2-1.1-170.8-78.9-169.9-172.7c0.8-95.1,81.8-174.2,176.1-172
			c94.3,2.2,169.5,79.7,169,174.1C1712.8,2459.9,1636.3,2534.5,1538.1,2533.3z M1420.9,2359.9c-0.8,67.3,50.5,120.9,117.6,122.7
			c67.5,1.8,124.5-53.7,124.4-121c-0.1-65.9-54.3-119.8-120.8-120.2C1474.1,2241,1421.7,2292.3,1420.9,2359.9z"/>
	</g>
</g>
</svg>
