<?xml version="1.0" encoding="utf-8"?>
<!-- Generator: Adobe Illustrator 23.0.0, SVG Export Plug-In . SVG Version: 6.00 Build 0)  -->
<svg version="1.0" id="Layer_2" xmlns="http://www.w3.org/2000/svg" xmlns:xlink="http://www.w3.org/1999/xlink" x="0px" y="0px"
	 viewBox="0 0 3000 3000" style="enable-background:new 0 0 3000 3000;" xml:space="preserve">
<style type="text/css">
	.st0{stroke:#000000;stroke-width:10;stroke-miterlimit:10;}
</style>
<g>
	<path class="st0" d="M1688.1,2470.9c-12.6,11.1-21.5,18.9-30.4,26.7c-205,177.9-491.3,195.6-715.5,43.4
		c-15.7-10.7-21.8-10.7-32.9,5.9c-33.6,50-85.7,66-142.6,69.6c-17,1.1-34.5-0.2-51.3-3.1c-43.9-7.5-82.6-16.6-124.1,21
		c-37,33.6-91.6,28.5-140.9,16.5c-10-2.4-20.8-3.7-29.6-8.6c-35.6-20-61.2-16.8-94.3,14.2c-56.8,53.2-151.2,33.4-204.6-33.6
		c-50.4-63.3-59.3-138.1-57.7-214.4c2.2-106.4,5.4-213.1,13.9-319.1c7.5-92.9-16.3-182.8-16.9-275c-1.1-176.8,2-352.2,64-520.8
		c99.5-270.4,288.3-450.3,557.4-547.7c150.8-54.6,307.5-85,465.5-108.7c206.2-30.9,413.6-42.4,621.8-30.7
		c225.9,12.7,450.2,37.8,665.3,113.5c168.9,59.4,307.9,158.1,398.1,317c56.4,99.3,87.2,207.3,99.3,320
		c24,223.4,28.2,447.8,9.8,671.5c-20.2,245.6-157.1,408.4-378.7,506.2c-115.6,51-236,76-362.2,78.5c-94.5,1.8-188.9,5.7-283.4,3.4
		c-26.6-0.6-53.1-3.4-79.6-6.1C1756.1,2602.1,1704.3,2558.8,1688.1,2470.9z M2462.7,2525.4c35.7-8,64.9-22,94.1-35.1
		c208.6-93.3,328.9-251.2,344.8-481.5c13.6-196.5,9.1-393.3-5.1-589.6c-7.7-106.6-29.4-210.7-74-308.9
		c-75.7-166.6-205.4-274.2-373.1-338.9c-200.9-77.5-412.2-103-624.9-118.5c-195-14.2-389.8-9-583.9,15.3
		c-174.8,21.8-347.7,53-515.5,108.3c-383.6,126.4-584.7,425.5-616.3,800.8c-9.5,113.2-4.6,226.7,0.5,340
		c1.9,42.9,10.1,85.1,22.5,126.5c40,132.8,134.6,204.4,273.3,207.2c106.3,2.2,210.4-14.7,314.2-34.7c60.2-11.6,118-29.1,169.9-63.6
		c64.4-43,114.7-138.5,85.9-206.4c-3.8-8.9-0.5-13.2,8.2-17.6c26.2-13.4,30-12.9,36.3,14.9c19.8,86.7-12.5,156.6-72.6,216.4
		c-12,11.9-17.2,22.3-15.1,39.9c10.8,91.3,20,182.8,6.7,274.8c-1.8,12.5,6.8,16.7,14.1,22c65.6,47.7,138.4,79,217.9,94.4
		c32,6.2,31.5,5.8,34.7-28c21.6-227.6,139-384.4,350.3-470.2c83.1-33.7,167.7-43.4,251.6-1.1c43.5,21.9,82.5,49.9,108.4,92.3
		c29.7,48.5,13.9,89.4-40.3,105.9c-22.1,6.7-45,11.2-67,18c-39.1,12.2-63.6,39.2-75,78.3c-27.4,93.5,17.8,167.2,113.2,181.6
		c55.3,8.4,111.3,8.2,167.1,7.4c9.7-0.1,15.6-4.7,21.8-11.2c36.2-38.3,65.7-81.5,91.9-126.9c70.9-122.7,95.7-251.7,54.3-390.9
		c-35-117.8-125.6-195.8-247.3-209.2c-72-7.9-142.2,4.8-212.7,14.4c-69,9.4-137.9,19-207.8,12.8c-5.8-0.5-14.1,3.6-17-6.2
		c-5.7-19.1,7-36,26.8-35.5c7.7,0.2,15.5,0.1,23.2,0.3c94.2,3.1,185.8-20.3,278.8-28.5c95.3-8.4,187.9-2.1,268.6,56.4
		c119,86.3,152.5,211.6,149.6,349.3c-2.9,132.2-61,244.7-139.3,348c-5,6.6-12.5,11.8-13.6,23.8c84.4-1.3,167.7-4.1,251.3-13.2
		c48.8-5.3,71.5-26.9,89.5-70.4c105-253.4,164.7-514.4,140.5-790.5c-19.7-224.4-99.3-424.8-244.5-597.9
		c-13.7-16.4-10.2-23.2,3.3-35.6c15.9-14.7,21.6-2.6,29.7,7.1c186.2,224.4,265.3,484.9,259.9,773.5c-3.9,212-52.8,414.7-129.9,611.2
		C2482.8,2478.2,2473.3,2499.9,2462.7,2525.4z M1294.4,2601.2c140.2-7,266.3-63,370-169.4c13.6-14,22-29.3,26.1-48.6
		c11.7-54.1,43.5-92,95.5-112.8c20.9-8.3,42.7-12.7,64.3-18.1c41.9-10.5,48.3-24.8,20.6-57.1c-55.5-64.7-125.9-99.1-212.1-85.7
		c-222.3,34.6-395.9,226.6-410.7,452.5C1245.1,2606.9,1240.7,2600.6,1294.4,2601.2z M120,2132c-1.7,28.1-3.3,49.2-4.1,70.4
		c-3.2,83.2-11.6,166.3-7.5,249.7c2.5,52.1,13.5,101.9,47.5,144.1c53.1,66,135.3,61.4,180.1-10.5c13.8-22.2,21.2-46.5,25-72.4
		c10-69.3-0.6-139.1,5.5-208.5c1.2-14.1-7.4-15.5-17-16.8c-25.5-3.5-50.3-10.2-74.2-19.3C209.2,2243.6,160.3,2198.1,120,2132z
		 M903.1,2374.8c-1-51.7-6-102.9-11.1-154.2c-1.3-12.8-3.8-17.2-16.6-10.3c-60.6,32.6-127.2,45.7-194.1,56.5
		c-16.8,2.7-22.4,8.9-21.9,26.3c1.9,65.3,1.9,130.6,3.3,195.8c0.5,23.7-15.3,53.8,2.4,69.2c16.8,14.6,47,12.7,71.9,14.5
		c1.7,0.1,3.4,0.5,5.1,0.5c77.5,2.8,147.7-23.2,157.5-123.9C901.9,2424.6,902,2399.7,903.1,2374.8z M618.5,2407.4
		c-0.6,0-1.2,0-1.8,0c0-36.1-0.4-72.2,0.2-108.2c0.3-15.3-3.3-21-20.5-18.6c-39.1,5.3-78.4,9.5-117.8,11.6
		c-71.7,3.8-71.5,3.1-71.5,76.9c0,68.5,7.9,137.7-17,204c-3.6,9.5,0.9,11.9,7.9,14.8c36.6,15.4,74,27.8,114.3,26.9
		c66.3-1.4,105.4-40.9,106.2-106.9C618.8,2474.4,618.5,2440.9,618.5,2407.4z"/>
	<path class="st0" d="M1555.5,1152.4c-24.9-1.2-49.8-1.3-74.5-4c-17-1.9-23.4,3.5-27.7,20.2c-19.3,74.1-54.9,138.6-118.3,184.7
		c-91.7,66.6-208.4,59.7-276-16.1c-47.1-52.8-54.6-112.9-30-177.5c12.2-32,26.8-63,41.1-94.1c7.6-16.5,7.8-28.9-12.2-35.3
		c-4-1.3-7.9-3.6-11.3-6c-8.8-6.3-26.7-6.6-13.5-26.4c9.6-14.3,14-22.8,34.4-11.9c247.4,132.5,505.9,157.4,774.1,75
		c24.3-7.5,24,6.8,30.2,20.6c8.2,18.2-6,16.9-15.4,20.1C1758.7,1134.3,1658.2,1149.3,1555.5,1152.4z M1199.5,1355
		c16.4,0.5,32.4-1.6,48.2-6.2c78.4-22.7,154.6-111.9,164.9-192.1c1.6-12.7-3.9-13.8-13.5-15.3c-92.9-13.8-182.9-37.7-268.9-75.9
		c-10.3-4.6-14.1-2.3-18.4,8.5c-11.9,30.3-25.6,59.8-38.6,89.6C1030.4,1261.5,1092.2,1355.1,1199.5,1355z"/>
	<path class="st0" d="M612.7,1612.3c-62.9-0.2-113.1-50.2-113.1-112.5c0-60.6,53.1-110.6,116.4-109.7c59.2,0.8,108.5,51,107.5,109.4
		C722.6,1561,672,1612.5,612.7,1612.3z M680.4,1499.3c0.5-36.5-27.2-63.8-65.2-64.3c-40.2-0.5-71.8,27-73.1,63.8
		c-1.3,35.3,32,70.4,67.5,71.2C646,1570.8,679.8,1537.1,680.4,1499.3z"/>
</g>
</svg>
