<?xml version="1.0" encoding="utf-8"?>
<!-- Generator: Adobe Illustrator 23.0.0, SVG Export Plug-In . SVG Version: 6.00 Build 0)  -->
<svg version="1.0" xmlns="http://www.w3.org/2000/svg" xmlns:xlink="http://www.w3.org/1999/xlink" x="0px" y="0px"
	 viewBox="0 0 3000 3000" style="enable-background:new 0 0 3000 3000;" xml:space="preserve">
<style type="text/css">
	.st0{stroke:#000000;stroke-width:10;stroke-miterlimit:10;}
</style>
<g id="Layer_1">
</g>
<g id="Layer_2">
	<g>
		<path class="st0" d="M642.8,1126.9c-89.1-25.6-137-86.4-175.5-156.7c-39.3-71.8-44.4-150.2-35.5-229.1
			c14.8-130.9,51.1-256.8,101.9-378C581.4,248.9,652,152.2,762.4,89.9c68.3-38.6,141.4-56.9,220-44.7c35.3,5.5,63.8,22.5,76.9,58
			c4.7,12.8,11.8,6.6,18.7,4.5c39.2-11.8,78.6-23.2,119.2-29c36.4-5.2,67.4,4.2,88.5,36c6.1,9.2,10.9,9.7,20.8,5.4
			c109.7-48.1,214.9-12.4,271.7,92.4c5.6,10.4,11.1,12.7,21.9,10.5c185.5-37.8,373-43.7,561.2-33.5c139,7.5,261.8,54.5,354.7,163.1
			c73.1,85.5,113.5,186.2,130.9,296.4c22.9,145.2,1,286.9-36.3,427.2c-17.5,66.1-36.1,131.8-58.1,196.6c-1.9,5.6-3.8,9,2.1,14.3
			c96.9,85.5,134,199,146.5,322.2c14.7,146.3,9.9,292.2-24.4,435.9c-20,83.5-54,161.2-111,226.7c-10.9,12.5,1.1,17.6,3.1,25.8
			c8,33.5,17.4,66.7,25.3,100.2c23.5,99.9,34.5,200.1,1.8,300.4c-44.1,135.4-137.2,208.5-279,214.2c-295.2,12-590.5,15.1-885.9,16.9
			c-180.1,1.1-360.2,0.7-540.3-0.1c-64.8-0.3-129.8-2.5-193-18.9c-157.3-40.7-243.6-150.1-285.3-300.4
			c-28.1-101.1-24-203.9-11.1-306.7c3.9-31.4,9.8-62.5,14.4-93.8c1.7-11.3,1.7-22.2-2.4-33.9c-53.5-152.1-22-289,76.9-412.5
			c12.3-15.3,12.5-22.8,1.1-38.8c-63.6-88.9-75.8-187.8-50.2-292.2c27-109.9,92.5-196.9,168.7-277.1
			C618.7,1145.7,629.4,1138.2,642.8,1126.9z M2077.7,1241.6c-24.7-21-38.3-45.8-44.8-74.7c-13.5-59.7,8.9-109.5,45.8-153.3
			c32.4-38.5,69.9-72.7,102.2-111.4c54-64.6,52-133.1-2.5-197.4c-52.9-62.4-125-82.5-202.2-87.6c-141.1-9.4-282.3-3.2-423.4-0.8
			c-17.9,0.3-36.2,1.4-53.6,5.2c-56.8,12.3-105.7,35.2-119.4,99.5c-1.4,6.4-4.9,8.1-10.6,8c-9.4-0.3-18.7-1-28.1-0.7
			c-13.5,0.5-15.2-6.2-13.3-17.7c4.1-24.7,13.4-46.9,29-66.5c40.9-51.5,97.2-75.2,160-78.5c159-8.4,318.3-10.1,477.3,0
			c71.6,4.5,138.7,26.4,194.4,74.3c90.2,77.6,123.2,200.5,24.1,307.7c-18.6,20.1-37.9,39.5-56.9,59.2
			c-25.1,25.9-50.2,51.8-64.6,85.7c-13.8,32.7-13.9,65.3,7.9,94.2c10.3,13.7,24.3,31.4,44.2,24.8c120-40.1,235.4-31.3,346.3,29.6
			c14.5,8,17.1,3.9,21.2-9.2c18.8-60.5,36.4-121.2,52.1-182.5c32.8-127.8,52.9-256.7,32.4-388.8c-16.1-103.8-53.7-198.6-123.5-278.4
			c-84.8-96.9-197.3-134-321.3-140.8c-160-8.7-319.6-1.7-478.3,21.2c-164.4,23.7-302.5,96.2-412.6,222.4
			c-72.7,83.4-134.3,174.6-196.8,265.1c-80.3,116.2-171,222.6-278.3,314.6c-50.3,43.1-99.1,88.1-144.7,136.2
			c-66,69.7-121.9,146-146.4,241c-22.9,88.7-13.1,172.6,38.8,249.9c7.5,11.2,12.4,15.4,25.8,4.6c104.9-84.5,226.8-125.7,359.6-137.1
			c117.4-10.1,231.2,7.4,341.5,48c13.8,5.1,19.7,3.3,20.6-11.4c0.4-5.7,1.4-11.5,1.5-17.2c3.1-100-34.9-179.1-120.1-233.6
			c-7.8-5-10.2-8.6-5.3-16.6c3.4-5.5,6.5-11.3,8.7-17.3c6.5-18.4,16-17.1,30.8-7.8c100.3,62.8,157.8,192.4,134.7,308.1
			c-3.6,17.9,0.7,25.8,17,34.1c158.4,79.8,286,194.1,361.2,355.7c136.1,292.6,106.9,574.4-72.1,841.8c-6.6,9.8-16.1,17.8-19,27
			c100.6,0,200.7-0.2,300.7,0.2c13.9,0,12.5-7.9,11.7-16.9c-2.9-31.5-6.4-63.1-8.3-94.7c-9.5-158.4,3.1-315.1,38-469.9
			c2.3-10.4,1.4-18.6-6.5-27.4c-60.8-68.2-97.9-148.5-118.5-236.9c-31.7-136.1-23.6-272,6.5-406.9
			C1874.6,1465.1,1935.3,1328.5,2077.7,1241.6z M2655.3,1781.8c0-33.1,0.8-56.9-0.2-80.6c-3.4-81.5-11.8-162.1-42.1-239
			c-62.4-158.6-226.3-248.5-393.7-216c-132.8,25.8-222.5,105.9-275.2,226.2c-74,169-97.2,346.1-60.9,527.8
			c29.5,147.6,107.4,262.7,246.7,329.4c128.4,61.4,256.9,42.3,357.7-51c53.2-49.3,90.8-109.2,116.3-177
			C2643.8,1995.3,2651.5,1884.2,2655.3,1781.8z M461.6,2259.7c-17,103-25.2,202.5-5.8,302.1c18.4,94.1,57.1,178,134.4,239.5
			c65,51.7,141.8,67,222.1,72c108.7,6.8,217.4,3.5,326.2,4.1c102.3,0.6,204.5-0.3,306.8-0.6c9.7,0,19.5,2.3,23.9-11.8
			c20.1-65.8,41.2-131.3,62.7-199.5c-74.5,4.5-142.7-9.1-202.4-52.2c-59.4-42.8-103-98.8-116.2-171.1
			c-31.2-170.8,55.1-273.4,204.6-337c-27.8-26.9-56.5-51.8-87.8-73.9c-10.3-7.3-17.2-8.4-27.5,1.1c-28.1,25.9-59.8,47.2-91.3,68.8
			c-45.6,31.4-92.4,61.3-133.2,99.2c-54.3,50.5-94.7,108.4-95.2,186.4c-0.1,10.5,5.3,25.3,0.3,30.4c-6.8,7-21.4,5.9-32.3,9.4
			c-13.5,4.5-18.6-1.1-19.5-13.8c-1.7-23-2.3-46,1.9-68.9c15-83.2,63.9-144.9,126.2-197.8c48.9-41.6,103.5-75.3,155.8-112.3
			c17.3-12.3,35.2-24,50.3-40.8c-32.4-19.8-66.1-32-99.8-44.6c-19.5-7.3-22.6-2.6-23.8,17.4c-5.5,85.1-44.7,150.4-124.3,184.8
			c-79.8,34.4-156.2,25.2-224.6-30.8c-28.4-23.2-47.5-53.6-62.7-88.5c-17.9,30.3-17.7,60.7-13.1,91.8c3.7,24.9,9.4,49.6,4.4,75
			c-20.5,103-153.1,149.1-236.2,82C478.1,2274.4,471.3,2268.1,461.6,2259.7z M1609.2,2788.2c3.6-5.3,7.4-10.5,10.7-16.1
			c126.9-212.8,155.4-438,73.3-671.9c-104-296.4-413.6-500.2-733.8-490.2c-126.7,3.9-245.1,36.2-348.1,111.8
			c-117.8,86.4-179.6,202.1-168.7,351c4.2,57.4,24.8,109.8,62.8,153.5c30.1,34.7,71,41.9,111.6,22.9c43.4-20.2,57.2-47,50.5-97.8
			c-0.8-6.4-1.9-12.8-2.9-19.2c-9.5-59.2,0.4-113.9,40.9-159.6c41.5-47,93-78.9,154.5-93.7c77-18.6,154.3-15.3,231.6-2.2
			c158.4,26.9,286.6,107.5,395.5,222.2c12.7,13.3,26,26.3,36.6,43.6c-39.8,7-78.7,10.1-115,25.4c-98.7,41.5-157.2,132.8-149.3,234.7
			c7.4,95.3,86.3,182.3,186.4,205c51.2,11.6,101,4.6,150.7-10.2c16.6-4.9,20-11.7,15.4-27.6c-8.3,3.5-15.4,6.7-22.7,9.6
			c-82,32.9-173.3,15.3-230.7-46.9c-58-62.9-71.4-137.5-44.2-216.9c27.7-81.1,89.9-123.6,172.8-138.3c35.1-6.2,69.6-1.1,106.8,6.1
			c-7.2-20.8-12.6-38.7-19.6-55.9c-7.1-17.2-14.9-34.2-24-50.5c-90.2-160.7-226.1-263.3-401.9-314.8c-101.3-29.6-203.2-37.6-303,2.5
			c-163.8,65.8-237.9,200-268.4,364.6c-6.6,35.4-4.1,35.3-42.9,31.7c-11.4-1.1-14.5-4.2-12.8-15.7c7.6-52,19.3-102.9,37.8-152.3
			c69.8-187.2,233.6-306,427.7-308c93.6-1,181.9,23.5,267.8,59.3c159.7,66.6,280.9,177.3,354.5,331.8c76,159.4,88.7,330.8,59,504.8
			C1655.9,2651.9,1634.7,2720.3,1609.2,2788.2z M481.2,794.8c-2.4,87.4,27,162.4,85.8,226.3c18.7,20.3,39.9,37.7,66.3,47
			c53,18.8,95.2-15.7,88.1-71.1c-3.5-27.4-11.4-53.3-21.6-78.8c-14.9-37.3-32.5-73.8-41.3-113.4c-27.8-125.2,1.7-239.7,65.4-347.6
			c58.8-99.5,141.5-177.5,227.9-252.1c16.9-14.6,34.2-28.8,46.5-47.8c21.5-33.2,13.3-52.2-25.9-60.3c-20.7-4.3-41.5-3.9-62.3-1.3
			c-98.4,12.3-174.6,63.6-237.2,137.1c-61.8,72.5-98.8,158.4-126.7,248.3C514.4,583.6,485.6,686.8,481.2,794.8z M700.7,727.6
			c-4.2,59.9,30.4,123.6,55.7,189.8c3.4,8.9,9.9,7.2,15.9,5.9c74.6-15.5,97.1-37.7,111.2-99.8c10.7-47.3,11.1-95.7,12.5-143.9
			c2.7-89.1,33.7-163.8,104.4-220.6c29.3-23.5,60.1-44.5,91.6-64.7c38.1-24.5,76.4-48.9,108.2-81.8c38.2-39.5,57.1-85.6,50.6-141
			c-3.9-32.8-16.6-43.8-48.3-39.6c-48.7,6.4-95.1,22-141.2,38.1c-7.3,2.6-11.9,7.3-16.1,13.4c-13.9,20.3-30.9,37.9-49.7,53.8
			C930.8,292.3,868,349.5,815.6,416.9C747.8,504.1,702.3,600.2,700.7,727.6z M2009.4,2317c-1.5,2.6-2.9,4.2-3.5,6.1
			c-1.1,3.4-1.9,6.9-2.6,10.4c-34.3,171.4-40.6,343.9-21.7,517.5c1.7,15.3,7.8,18.4,21.9,18c74.8-2.3,149.6-4.3,224.5-5
			c17.8-0.2,23-6.1,24-23.2c8-136.7,6.3-273.3-2.8-409.9c-0.8-12-5.7-15.1-17-16.5c-69.9-8.7-133-35.2-191-74.5
			C2030.4,2332.6,2020.2,2324.8,2009.4,2317z M2519.7,2323.4c-4.7,3.2-7.2,4.6-9.3,6.3c-57.5,47.2-121.9,78.6-196.8,85.6
			c-11,1-12.8,6.2-12.1,15.5c1.6,20.1,2.9,40.2,4.1,60.3c6.6,116.6,5.9,233.2-0.9,349.8c-1,17.4,4.2,21.1,20.1,18.9
			c32.8-4.6,66-7.9,95.9-23.5c90.8-47.2,128-128.6,139.8-224.5C2572.5,2513.1,2546.3,2419.2,2519.7,2323.4z M943.2,823.7
			c10.2-13.5,20.7-26.9,30.7-40.6c64-87.8,122.6-179.4,189.3-265.3c95.4-122.8,207.2-224,358.5-273.2c14.2-4.6,8.5-11.2,4.1-18.9
			c-39.3-68.3-125-93.2-197.4-57.8c-15.2,7.4-25.6,15.9-24.1,35.5c1.3,17.9-2.8,35.7-8.4,53c-20,61.2-62.6,104.3-113.1,140.5
			c-44.5,31.8-91,60.7-135.3,92.8c-50.2,36.3-85.8,83.5-93.9,146.7C945.7,697.7,947.9,760,943.2,823.7z M1627.3,2418.2
			c0.9-33.1-0.7-66.2-5-99.1c-2.4-17.8-6.4-35.4-8.1-53.3c-1.4-14.4-9.1-20.9-21.9-25.6c-29.7-11-60-14.3-91.3-11.4
			c-66.7,6.2-123.6,52.1-140.6,113.7c-17.7,63.9,5,134.1,55,170.3c53.5,38.8,129.6,38.7,186.8,0.6c16.8-11.2,27.6-23.7,25.6-45.6
			C1626.1,2451.5,1627.3,2434.8,1627.3,2418.2z M961.3,1918.5c-34.3,1.1-83,3.9-127.1,25.2c-71.6,34.5-79.3,36.6-29,111.3
			c39.2,58.2,114.3,76.6,183.2,50.9c63.8-23.8,106.4-90.2,101.5-157.7c-0.8-10.7-2-19.8-15.9-21
			C1041.1,1924.1,1008.5,1918.3,961.3,1918.5z M1597.6,2634.5c-9.2,29.3-18.3,58.6-27.5,87.9
			C1584.8,2700,1598.6,2654.5,1597.6,2634.5z M807.7,971.5c-36.4,5.6-36.4,5.6-30.2,28.1C786.8,990.8,795.5,982.7,807.7,971.5z"/>
		<path class="st0" d="M1515,1256.7c-69.2-0.9-135.6-14.2-197.2-47c-31.3-16.7-56.8-39.6-68-74.5c-10.4-32.3-6-63,17.2-88.7
			c22.4-24.8,50.7-27.4,81.3-18.5c4.8,1.4,10.1,2,14.4,4.5c50.6,29.2,105.7,28.1,161.3,25.2c27.5-1.4,54.6,1.2,81.2,8.6
			c50.4,14,81,49.6,79.3,91.9c-1.8,42.3-37.5,79.6-86.1,89.8C1570.8,1253.7,1543.2,1257.6,1515,1256.7z M1522.4,1204.2
			c11.1-1,30.6-1.8,49.6-4.9c19.1-3.1,38.2-7.9,51.2-24.5c11.7-14.8,11.5-28.9-2.8-41.8c-9.8-8.9-21.6-14-34.4-17
			c-26.1-6.2-52.7-8-79.2-5.3c-54.9,5.6-107.4-0.6-156.9-26.4c-5.6-2.9-12.2-4.4-18.4-5.9c-22.1-5.4-33.1,3-33.1,25.8
			c0,29.4,19.9,45.1,42.4,57.4C1394.7,1191.3,1453.1,1203.1,1522.4,1204.2z"/>
		<path class="st0" d="M2282.4,1619.6c79.3,0.4,127.5,41.1,137.1,119.9c8.4,68.7-7.1,130.8-63.8,176c-70.2,56-163.1,35.8-205.2-43.3
			c-25.2-47.4-29.7-97.3-15.8-148.5C2152.9,1656.3,2206.5,1619.2,2282.4,1619.6z M2180.3,1778.1c-0.9,19,2.8,37.3,10.1,54.6
			c13.5,32,33.4,58.1,71.4,60.3c38.8,2.3,68-16.1,87.2-48.9c22.3-37.9,24.4-78.8,13.4-120.8c-6.7-25.4-23.6-40.8-48.4-47
			C2252.4,1661.1,2180.1,1681.6,2180.3,1778.1z"/>
	</g>
</g>
</svg>
