<?xml version="1.0" encoding="utf-8"?>
<!-- Generator: Adobe Illustrator 23.0.0, SVG Export Plug-In . SVG Version: 6.00 Build 0)  -->
<svg version="1.0" id="Layer_1" xmlns="http://www.w3.org/2000/svg" xmlns:xlink="http://www.w3.org/1999/xlink" x="0px" y="0px"
	 viewBox="0 0 3000 3000" style="enable-background:new 0 0 3000 3000;" xml:space="preserve">
<style type="text/css">
	.st0{stroke:#000000;stroke-width:10;stroke-miterlimit:10;}
</style>
<g>
	<path class="st0" d="M929.3,2650.7c-149.1,0-303.6,0.2-458-0.1c-101-0.2-195.9-23.5-281.3-78.9c-77.3-50.2-128.3-115.9-133.8-213.4
		C49.8,2245,32,2132.1,30,2018.8c-1.1-61.2,13.8-125.1,34.2-183.4c17.1-48.8,28-96.2,28.6-147.2c2.1-191.5,0.8-383.1,8.6-574.3
		c4.6-113,15-227.4,38.6-337.8c43.1-201.2,157-356.8,334.5-464c78.8-47.6,166.5-60.2,255.8-64.9c154.1-8.1,308.3-15.7,462.5-20.6
		c67.6-2.1,130.8,19.3,192.4,47.2c70.5,32,142.5,60.7,214.8,88.6c55.7,21.5,112.9,18.3,170.9,6.1c44.2-9.3,89.4-15.9,134.5-18.6
		c240.6-14.4,481.3-22.6,722-4.4c36.8,2.8,73.9,7.9,109.8,16.3c136,31.8,211.8,126.6,209.1,279.4c-3.6,201-12.9,402.2-26.4,602.8
		c-21.8,323.9-48.6,647.5-74.5,971.1c-4.1,51.4-9.7,103.6-23.4,153c-27.7,99.3-92.7,166-198.5,172.3c-132.7,8-266.1,10.6-399,6.7
		c-78.1-2.3-117.5-48.1-113.8-127c5.5-116.8,18.5-233.3,31.7-349.5c8.2-72.2,19.3-144.4,35.3-215.2c13.2-58.6,35.1-115.4,54-172.7
		c16.7-50.7,6.8-82.5-34.1-103.9c-37-19.4-70.1-12-93.7,22.8c-40.7,59.9-60,126.6-60.2,198.9c-0.3,129.7,1.1,259.5-1.5,389.2
		c-1.1,52.8-6.7,106.3-17.3,158c-35.2,171.6-119.3,246.5-298.3,258.3C1462.9,2623.5,1198.8,2635.9,929.3,2650.7z M2176.6,2357.6
		c0,16.5-0.2,28.8,0,41.1c1.5,66.8,9.6,81.5,75.7,82.9c113.4,2.5,227.4,3,340.2-6.5c109-9.2,149.6-53.2,172.9-160.3
		c5.5-25.2,9.1-51.2,10.7-76.9c10.4-170.1,17-340.4,30.5-510.2c18.4-231.3,46.1-461.9,61.5-693.4c9.7-145.1,7.5-291.2,4-436.7
		c-2-81.7-49.2-139.3-129.4-161.7c-43.7-12.2-89.7-22.4-134.6-22.4c-253.1,0.5-506.2,3.8-759.3,8c-20.5,0.3-44.9,9.8-60.5,23.2
		c-85.4,72.8-172,144.7-251.4,223.7c-66,65.7-116.2,144.8-134.7,238.8c-8.1,41-8.1,83.6-15.2,124.9
		c-20.6,121.2-80.4,170.3-202.7,168.9c-7.4-0.1-14.8-0.4-22.2-0.6c-157.6-3.8-270,65.8-335.3,209.2
		c-29.6,65.1-54.3,132.4-84.2,197.3c-46.6,101.1-120.5,173.1-234.3,188.3c-111,14.9-223,23.2-334.8,31.1
		c-24.9,1.8-40.7,6.2-45.4,30.9c-10.5,55.2-29.6,110.9-28,165.9c3.2,112.1,19.8,223.7,26.7,335.8c3.5,56.8,27.2,99.9,70.8,131.8
		c30.6,22.3,64,41.7,98.5,57.5c110.7,50.6,227.6,25.6,344,28.4c-4-29.6-7.8-55.2-10.9-80.8c-19.7-166.8-23.1-333.4,27.4-495.6
		c77.7-249.7,233.6-420.8,498.7-473.3c145-28.7,292.2-30.4,439.3-20.7c60,3.9,119.7,10.8,181.7,16.5c-1.9-9.4-2.9-16.5-4.7-23.4
		c-43.2-166.1,22.3-293.4,182.8-354.2c18.4-7,37.2-13.5,56.2-18.6c199.9-53.7,372.2,13.4,464.2,180.4c49.6,90.1,66.8,187.9,65,289.4
		c-3.6,205.5-46.3,404.2-112.5,597.7c-38.8,113.6-104.4,157.7-225,162.1C2195.4,2356.1,2188.3,2356.8,2176.6,2357.6z M1992.6,1639.7
		c2.2,1-1.9-1.7-6.5-2.8c-250.3-61.7-503.4-84.6-760.1-52.1c-156.5,19.8-291.3,81.1-389.3,210.1c-94.3,124-137.2,265.4-147.6,419.3
		c-8.2,121.3,1.5,240.8,22.7,362.4c16.6,0,31.2,0.4,45.8-0.1c249.2-7.4,498.5-13.2,747.7-23.3c95.9-3.9,191.6-16.7,287.1-27.7
		c70.8-8.2,118.2-51.2,140.3-116.3c17.2-50.9,32.1-104.7,34.7-157.9c6.6-138,4.5-276.4,8.8-414.5
		C1977.9,1773.1,1986.5,1709.8,1992.6,1639.7z M457.3,1731.9c93.9-5.1,163.6-43.6,205.4-123.4c27.4-52.3,49.7-107.3,72.3-161.9
		c33.3-80.3,69.1-158.3,137-216.8c93.8-80.8,204-104.2,324.4-99.1c75,3.2,107.8-26.5,120.8-100.9c14.6-83.2,28.4-166.5,42.6-249.8
		c-2.9-8.3-16.8-15.8-31.1-22.5c-198.5-92.4-400.9-109.6-606.1-25.1C626.1,772.2,577.2,848.3,567,952.7
		c-13.8,142.4-28.6,284.8-48.2,426.4C502.5,1496,478.5,1611.7,457.3,1731.9z M2180.4,2284c89.6,9.6,145.6-22.1,174.3-96.1
		c15.6-40.2,29.8-81.2,40.9-122.8c48.9-184.3,90-370,69.6-562.7c-10.3-97.4-46.4-184.8-120.7-251.4
		c-114.3-102.6-349-96.1-458.2,13.1c-21,21-37.7,49.6-47.7,77.7c-21.6,61.1-7.9,122.2,13.3,181c3.1,8.6,17.2,16.1,27.5,18.8
		c43,11,86.9,18.5,129.6,30.4c20.5,5.7,30.3,0.7,42.5-15.9c40.4-54.8,101.6-70.3,164.9-44.7c83.6,33.9,110.4,110,77,206.4
		c-20.9,60.3-41.6,121.5-53.1,184C2217.2,2027.9,2200.3,2155,2180.4,2284z M1403.8,710.2c83.5-86.8,167.7-174.4,252.1-262.1
		c-120.8-22.3-231.7-82.1-347.3-130.2c-40.6-16.9-87.3-19.1-130-27.8c-16.1,115.5-30.9,222.4-45,324
		C1227,647.2,1318.2,679.7,1403.8,710.2z M634.5,331.7C522,333,333.5,479.9,287.5,600C373,665.3,458,730.2,535.8,789.7
		c53.7-44.7,107-89.1,161.4-134.4C677.2,551.9,656.1,443.1,634.5,331.7z M763,633.1c104.5-10.5,200.3-20.1,302-30.3
		c13.8-98.8,28.1-201.6,43.3-311.2c-139.7,8.8-269.2,17-405.7,25.6C723.7,427.7,743.8,532.4,763,633.1z M179.4,986.3
		c86.4-4.5,167.3-9.4,248.3-12.7c63.7-2.6,63.7-1.7,74.6-62.9c1.7-9.7,6.1-19.3,5.7-28.9c-0.3-8.8-2.7-20.7-8.8-25.6
		c-80.5-65.9-161.9-130.9-247-199.3C199.1,767.2,191,876.1,179.4,986.3z M469.9,1253.5c7.4-69.9,14.8-138.8,23.1-216.6
		c-105.1,7.5-203.8,14.1-302.4,22.2c-6.8,0.6-18.2,11.2-18.3,17.4c-1.4,58.6-0.8,117.2-0.8,177
		C269.7,1253.5,366.7,1253.5,469.9,1253.5z M168.7,1550.8c-3.4,72.4-6.5,137.9-10,211.8c73.2-5.3,140.4-9.7,207.5-15.7
		c7.1-0.6,17.9-9.7,19.3-16.4c12.7-62.4,23.7-125.1,36.5-194.9C335.5,1540.8,253.8,1545.7,168.7,1550.8z M170.8,1480.3
		c90.2-4.9,175.7-9.4,265-14.2c7.1-44,14.5-90.4,22.6-140.8c-99.5,0-193.4,0-287.5,0C170.8,1379.6,170.8,1428.5,170.8,1480.3z"/>
	<path d="M1383.2,2328.2c-76.5-6-150.4-10.1-223.9-18.2c-90.4-10-141.5-56.4-157.9-145.5c-16.1-87-1.7-169.8,50.3-243.3
		c41-58,109.5-80.3,176.6-59.4c65.4,20.4,101.1,71.2,103,145.7c0.6,23.4,0.2,47.1,4.5,69.9c6.7,35.7,27.5,52.3,60.6,39
		c30.2-12.1,57.9-35.2,81-59c23.7-24.5,38.4-57.6,61.1-83.3c20.1-22.7,43.3-44.8,69.4-59.5c84.5-47.6,175.8-8.3,194,86.6
		c16,83.6-0.7,164.8-49.2,236.5c-32.1,47.3-82.8,65.5-136.2,71.7C1538.2,2318.3,1459.5,2322.3,1383.2,2328.2z M1386.3,2257.9
		c71.6-5.1,143.2-8.5,214.4-15.7c46.8-4.7,92.4-19.6,109.7-69c13.7-39.1,22-80.7,27.4-121.9c4.3-32.8-4.3-65.8-37.5-82.3
		c-34.7-17.2-61.3,5.8-87.2,24.6c-8.8,6.3-15.6,15.8-22.1,24.7c-17.5,23.9-34.3,48.3-51.3,72.6c-27.4,39-59,72.6-105.7,89.2
		c-83.9,29.8-167.2-14.1-170.1-113.9c-0.8-25.9-1.8-51.8-3.9-77.6c-2.5-30.7-21.5-48.8-48.8-59.4c-42.1-16.3-83.9-1.1-110.7,42.9
		c-32.7,53.7-43.7,112.7-32.9,174.5c11.1,63.1,40.1,90.1,104.3,96C1243.2,2249.1,1314.8,2252.9,1386.3,2257.9z"/>
</g>
</svg>
