<?xml version="1.0" encoding="utf-8"?>
<!-- Generator: Adobe Illustrator 23.0.0, SVG Export Plug-In . SVG Version: 6.00 Build 0)  -->
<svg version="1.0" xmlns="http://www.w3.org/2000/svg" xmlns:xlink="http://www.w3.org/1999/xlink" x="0px" y="0px"
	 viewBox="0 0 3000 3000" style="enable-background:new 0 0 3000 3000;" xml:space="preserve">
<style type="text/css">
	.st0{stroke:#000000;stroke-width:10;stroke-miterlimit:10;}
</style>
<g id="Layer_1">
</g>
<g id="Layer_2">
	<g>
		<path class="st0" d="M1275.4,589.3c25.2-42.6,51.3-84.9,82.8-123.6c104.4-128.5,242.2-199.2,402.1-229
			c264.5-49.3,523.5-19.1,778.2,60.6c83.1,26,162.2,61,233.2,112.6c109.8,79.8,165.8,188.8,179.5,322.4
			c12.3,120.2-6.4,237.7-26,355.3c-21.1,126.1-42.5,252.1-89,372.2c-56.5,145.9-139.6,270-280.7,347.5c-2.8,1.5-4.9,4.2-10.2,8.8
			c13.8,2.6,24.5,4.3,35.1,6.8c71.3,16.8,126.4,57.9,172,113.9c131.2,161.2,148.3,394,34.8,553.5c-92.5,130.1-218.2,196.8-382,177.9
			c-100.3-11.6-138.4-48.2-151.2-147.5c-9.9,3.7-13.8,13-19.5,20.2c-56.6,71.7-131.7,107-221.5,116
			c-150.4,15.2-301.1,15.6-451.9,15.5c-14.7,0-29.8-2.7-44.2-6.3c-44.4-11.1-62.7-41-64.5-103.2c-174.6,100.6-277.8,99.4-404-5.1
			c-62.7,74.3-137.9,132.5-228.6,167.6c-183.3,71-351,38.6-502.9-82.7C184.3,2537.1,122,2391.5,88.3,2230.8
			c-36.9-176.1-44.7-354.7-41.8-533.8c4-240.1,31.8-477.3,93.7-709.8c44.7-168,114.9-323.3,229.5-456.2
			C458,428.6,560.6,346.6,695.5,316.2c166.7-37.5,311.3,12,439.3,119.8c48.6,41,90,88.4,127.2,139.7
			C1265.5,580.6,1267.5,586.9,1275.4,589.3z M89,1743.1c3.6,169.9,8.9,336.3,46.8,499.6c29.6,127.4,78.1,245.4,175.9,337.3
			c114,107,246.5,158.3,403.9,130.6c122-21.5,216.3-90.6,299.7-177.8c9.3-9.7,4.9-16.3,0.5-25.2c-27.8-55.6-32.6-113.8-18.9-174
			c19.6-86.3,67.7-156.8,123.8-222.8c7.3-8.6,14.3-16,14.9-29.2c5.8-120.8,12.5-241.6,19.3-362.3c0.6-10.2-1.8-18.8-7.4-27.2
			c-44.6-67.2-60.4-143.3-64.7-221.9c-6.3-115.3,12-228.6,30.9-341.9c27.1-162.7,60.4-323.5,130-474.5c5.6-12.1,3.5-20.5-3.2-31
			c-22.1-35-47.8-67.2-76-97.1c-97-102.9-210-175-356.6-178c-130.1-2.6-237.8,51.9-331.7,137C342.7,605.5,257.3,756.6,204.1,926.9
			C120.8,1193.7,93.4,1468.5,89,1743.1z M2818.6,2245.7c-0.2-94.2-34.9-194.5-90.9-269.4c-60.5-81-139.5-121.9-241.5-119.5
			c-51,1.2-99.7,14.7-149.6,21.2c-182,23.9-364.5,35.2-548.1,19.3c-49.6-4.3-99.8-10-149.6-5c-164,16.7-306.3,83.7-429.2,191.8
			c-75.4,66.3-136.3,144.3-165.6,242.2c-39.6,132.3,38,257.4,168.3,264.2c84.5,4.4,165.9-13.6,227.7-80.7
			c37-40.2,82.1-68.1,134.9-82.8c13.9-3.9,27.8-1.7,33.2,13.1c5.3,14.7-3.3,25-17,31.1c-10.4,4.7-20.8,9.3-30.8,14.7
			c-25.3,13.9-45,33.4-55.9,60.6c-19.3,48.6-5.1,73.6,45.8,81.2c7.8,1.2,15.7,2.4,23.5,2.1c141.1-3.9,282.2-2.9,423.1-14.4
			c106.2-8.7,182-60,237-147.7c11.2-17.8,21.6-36.1,33.3-53.5c10.9-16.3,17.2-44.9,44.9-32.4c26.2,11.9,10.2,35.1,4.8,53.2
			c-8.6,28.7-14.6,57.7-16.7,87.5c-3.3,47.3,10.2,70,54.3,87.5c52.7,21,107.5,23.8,162.7,12.6
			C2693.3,2587,2819,2429.3,2818.6,2245.7z M1374.5,1260.8c0,0.1,0,0.2,0,0.3c-72.7,3.6-145.3,7.4-218,10.6
			c-14.2,0.6-21.5,3.8-22.9,20.4c-6.6,73.4-13.7,146.6-3.2,220.3c11.4,80.1,38.3,152.8,98.4,209.9c58.8,55.8,131.8,81.5,209,97.8
			c149.3,31.5,301.8,26.1,452.8,35.1c149,8.9,297.5-5.5,445.6-24.9c157-20.6,283.9-90.1,374.2-221.7
			c83.5-121.8,122.4-260.5,149.7-403.3c3.7-19.1-9.4-14.3-19.2-13.9c-97.2,4.5-194.3,9.9-291.6,13.1c-21.8,0.7-25.8,8.5-25.1,27.9
			c2.8,77.1,4.1,154.2,6.4,231.4c0.5,15.1,1.8,25.9-20.3,26.2c-22.3,0.3-23-9.6-23.3-26.5c-1.5-74.5-4.8-149-5.7-223.5
			c-0.3-23.1-6.2-31.8-30.9-30.3c-94.5,5.7-189.1,10.1-283.7,13.6c-20.8,0.8-26.1,7.7-25.4,28c2.8,78.9,3.4,157.8,5.7,236.7
			c0.5,16-2.3,23.2-20.8,23.6c-19,0.4-23.1-5.7-23.3-23.6c-0.7-77.1-4.5-154.3-3.9-231.4c0.2-27.4-8.7-30.4-32.9-29
			c-130.4,7.5-260.8,13.6-391.3,18.9c-19.2,0.8-25.6,5.1-24.3,25.1c4.6,75.2,7.3,150.6,11.4,225.8c0.9,16.1-2,24-20.8,23.8
			c-16.4-0.2-22.5-3.8-23.1-21.4c-2.6-72.7-7.6-145.3-10.4-218c-0.8-21.7-4.7-32.3-30.9-30.3
			C1509.4,1256.4,1441.9,1257.9,1374.5,1260.8z M2005,1187.4c0-0.2,0-0.4,0-0.6c143.6-6.6,287.2-13,430.7-19.7
			c139.2-6.6,278.3-13.6,417.5-20.1c10.5-0.5,17.5-1.4,19.8-14.7c22.8-128.6,46.2-257.2,35.3-388.8
			c-11.1-134.2-70.6-239.8-184.6-314.2c-19.6-12.8-30.9-10.9-45,6.1c-14.5,17.5-31.2,33.2-47.2,49.4
			c-209.3,212.3-418.6,424.6-627.8,636.9c-11.1,11.2-21.8,22.8-32.7,34.2c-8,8.3-13.1,7.6-15.2-4.6c-1-6-3.2-11.8-4.6-17.7
			c-67.4-282.4-202.3-528.2-399.5-740.7c-17.2-18.6-28.1-20.1-48.8-4.9c-108.2,79.4-178.5,187-230,308
			c-69.5,163.3-102.9,335.8-128.1,510.4c-2.9,20.2,3.1,21.2,19.7,20.4C1444.7,1213.3,1724.8,1200.4,2005,1187.4z M1986,1084.4
			c8.9-12.3,13.7-21,20.4-27.8c206.5-210.1,413.1-420.1,619.7-630c34.1-34.6,33.3-32.7-10-54.4c-31.1-15.6-53.2-13-81.4,10
			c-163.5,133.6-314.5,279.4-448.5,442.7c-29.7,36.2-58.9,72.8-89.3,110.3c-23.1-68.6-44.2-134.4-67.3-199.4
			c-47.6-134.4-103.9-265-201.7-371.4c-67.4-73.3-41.6-65.9-134.4-29c-22.1,8.8-22.7,15.2-6.4,32.7
			c173.2,185.3,298.9,398.7,375.2,640.8C1969.5,1031.1,1976.4,1053.5,1986,1084.4z M1181.6,2049.8c94-82.1,195.7-135.9,314.3-175.2
			c-113.2-16.7-213.7-44.7-299.3-121.2C1191.6,1853.5,1186.8,1947.6,1181.6,2049.8z M2375.7,297c-45-7.9-83.6-14.6-122.1-21.7
			c-8-1.5-13.4,1-18.5,6.7c-17.9,20.2-36,40.3-56,62.7c34.7,16.1,67,30.8,99.1,46.2c7.3,3.5,11.4,1,15.8-3.9
			C2319.8,358.5,2345.6,330.1,2375.7,297z M2157.8,544.7c-3.4-2.9-6.1-6.1-9.5-7.9c-28.7-14.8-57.8-28.8-86.2-44
			c-9.1-4.9-14.4-2.4-20.2,4.2c-16.2,18.3-32.4,36.7-49.1,54.6c-8,8.6-8.3,13.9,3.4,19c15.2,6.7,29.9,14.4,44.7,21.9
			c17.9,9,37,27.2,53.3,24.9c18.2-2.5,27.5-29.1,41.2-44.7C2142.8,564.2,2149.5,555,2157.8,544.7z M2251.8,434.1
			c2.3-8-3.6-8.2-6.9-9.9c-8.5-4.4-17-9-25.9-12.4c-24.1-9.4-48.9-34.1-70.7-27.4c-21.6,6.6-36.1,35.9-54.4,54.6
			c-9.5,9.8-11.5,16.2,3.4,22.4c13.6,5.6,26.6,13,39.8,19.7c52.5,26.6,52.4,26.6,90.3-18.3C2235.7,452.8,2244.2,442.9,2251.8,434.1z
			 M2519,338.4c-27.9-12.3-56.2-17.7-83.5-26.1c-8-2.5-13.3-0.1-18.5,5.6c-28.9,31.4-58,62.6-88.6,95.8c19.7,9.3,37,17.4,54.3,25.6
			c8,3.8,14.6,2.4,21.4-3.5C2441.8,403.4,2479.9,371.4,2519,338.4z M2105.7,359.4c-19-8.5-35.6-16.3-52.5-23.5
			c-21.4-9.1-43.5-31.9-63.6-24.2c-19.3,7.4-30.7,34.3-46.6,51.6c-9,9.9-8.1,15.1,3.7,20.9c27.5,13.5,54.7,27.5,81.8,41.9
			c8,4.3,13.9,5,20.4-2.7C2067.1,402.4,2085.9,381.8,2105.7,359.4z M1934.1,542.2c4.7,0.9,8.5-0.9,11.6-4.3
			c19.3-21.4,38.6-42.8,57.9-64.2c8.5-9.5-1.1-11.7-6.6-14.5c-20.9-11-43.1-19.8-62.6-32.7c-23.3-15.4-39.4-12.1-52.5,11.8
			c-6.2,11.4-21,18.1-21.7,31.9C1858.8,494.2,1907.9,540.9,1934.1,542.2z M1986.5,764.9c26.3-34.6,49.8-66,74-96.7
			c8.4-10.7,3.1-14.9-6-19.4c-29.8-14.7-59.5-29.6-89.1-44.4c-7.2-3.6-13.8-7.1-20.9,1.1c-6.5,7.6-11.9,13.9-7.5,25.4
			C1953.4,674,1969,717.4,1986.5,764.9z M1758.5,280.4c-0.3,2.3-0.5,4.6-0.8,6.9c25.5,13.1,51,26.2,76.6,39.2
			c62.1,31.6,61.8,31.4,103.4-25.2c8.1-11,7.9-15.2-5-22.5C1872.8,245,1816.3,277.5,1758.5,280.4z M2184.3,266.9
			c-49.6-5.2-98-9.9-146.8-9.5c-7,0.1-12.3,3-14.3,9.2c-2.9,9,6.3,8.9,10.9,11.2c13.9,7.1,28.3,13.3,42.5,20
			c62.1,29.1,62.1,29.1,105.8-24C2182.8,273.2,2182.8,272.2,2184.3,266.9z M2357.4,476.3c-17.3-8.2-32.2-14.7-46.7-22.2
			c-9.5-4.9-16-2.8-22.6,5.1c-18.9,22.7-38.4,45-59.1,69c13.5,7,25,12.6,36.2,18.9c6.7,3.7,12.1,5.1,18.5-1.2
			C2307.5,523,2331.7,500.6,2357.4,476.3z M2015.5,841.4c36.7-43.7,72.2-85.6,107-128.1c4.5-5.5,20.6-10.7,5.4-21.6
			c-10.4-7.4-19.9-16.5-32,0.8c-25.9,37.2-53.4,73.5-81.5,109.1C2004,814.9,2003.9,825.8,2015.5,841.4z M2131.2,648.2
			c19.6-3.1,26.1,24.4,43.3,8.1c23.3-22,44.6-46.2,68.1-70.8c-11.3-6.1-20.4-11-29.5-16c-7.2-4-13.4-6.6-20.2,2.2
			C2174.2,595.8,2154.7,619.2,2131.2,648.2z M1780,348.4c-0.9,0.9-1.7,1.9-2.6,2.8c15.9,21.7,31.6,43.5,47.7,65
			c2.6,3.5,5.1,12.2,10.8,7.2c9-8,16.7-17.8,23.4-27.9c4.5-6.7-3.9-8.4-7.6-10.4C1828,372.6,1803.9,360.5,1780,348.4z"/>
		<path class="st0" d="M549.6,1204.9c2.5-47.8,17.2-92.6,44.2-132.4c57.2-84.3,125.5-159.7,194.7-234c25.9-27.8,58.7-44.9,99-36.1
			c36,7.9,56.7,33.8,58.5,71c1.2,24.1-4.5,46.9-13.1,69.1c-40.6,104.2-113.9,183.7-195.3,256.9c-23.4,21.1-47,42-70.9,62.5
			c-23.5,20.2-48.7,35.6-80.7,19.3C555,1265.3,549.2,1236.8,549.6,1204.9z M592.7,1203.9c0.9,16-0.9,30,11.9,36.6
			c13.3,6.9,23.4-2.9,32.4-11.2c51.8-47.2,106.9-91,153.4-143.8c47.3-53.6,88.5-111,108.3-181c5.6-19.7,10.9-42-10.4-54.7
			c-20.3-12.1-40.5-2.7-58.2,10.6c-4.2,3.1-8.5,6.4-12,10.2c-66.3,73.5-134,146.1-189.2,228.7
			C607.4,1131.7,596.9,1168.9,592.7,1203.9z"/>
		<path class="st0" d="M545.4,1957.2c3.5-48.5,18.2-94.8,46.5-136.1c56.5-82.6,123.7-156.5,191.2-230c23.8-26,53.6-42.1,90.8-39.3
			c35.7,2.6,62.2,26.9,67.4,62.2c4.2,28.6-2.2,55.6-12.7,82c-40.3,101.2-111.1,179.2-190.5,250.7c-25.4,22.8-50.9,45.5-76.7,67.8
			c-23.1,19.9-48.4,32.9-79,17.3C552.6,2016.6,546,1989,545.4,1957.2z M898.4,1632c-0.1-29.9-17.7-43.1-46.2-34.8
			c-14.7,4.3-27.1,12.7-37.1,23.8c-66.8,74-135,147-190.4,230.3c-21,31.6-32.1,67.9-35.2,105.9c-1.1,12.9-1,28.1,12.7,34.9
			c13.4,6.6,23-4.7,31.9-12.6c35.5-31.2,71.3-62.1,105.5-94.7c61.2-58.3,114.9-122.5,146.8-202.2
			C893,1666.5,899.4,1650.1,898.4,1632z"/>
		<path class="st0" d="M1576.2,2213.8c-60.3,41.3-111.2,88.1-162.5,134.3c-24.1,21.7-47.7,44-70.3,67.3
			c-13.2,13.6-19.9,3.1-26.3-5.4c-5.6-7.4-20.5-12.4-5.3-26.7c105.3-99.4,211-197.8,338.6-269.3c131.8-73.8,273.1-95.8,421.6-80.9
			c78.5,7.9,156.5,19.8,231.5,45.6c71.2,24.4,133,62.7,177.6,125.1c56.6,79.1,58.1,180.2,3.9,250.2c-11.3,14.6-24.7,27.3-40.3,37.4
			c-25.9,16.8-28.8,15.5-38.5-14.5c-2.6-8.1-2.6-12.4,5.4-16.8c75.2-41,92.3-150.6,34-230.5c-51.7-70.8-125.7-103.7-207.1-124.5
			c-38.6-9.9-38.6-9.8-35.5,28.2c6.7,82.1-31.3,140.4-102.9,158c-28.7,7.1-55.5,0.7-81.7-10.8c-6.6-2.9-12.4-9.9-21-1.9
			c-48,44.6-103.2,38.4-157.2,16.9c-24.9-9.9-34.8-8.2-49.5,15.7c-38.5,62.5-124,62.5-174.8,2.8
			C1592.2,2286.3,1581.4,2253.3,1576.2,2213.8z M1984.7,2152.5c-1.1-20-2.3-40.1-3.5-60.2c-0.7-13.1-5.2-20.1-20.7-19.6
			c-41.2,1.4-81.7,6.6-122.1,15.2c-12.9,2.8-15.6,8.5-13.4,19.8c7.3,38.3,6.2,76.7-0.8,114.8c-2.2,12.1,0.6,19.5,12.3,24.9
			c25.8,11.7,52.3,20.4,80.8,19.6c36.2-1,55.3-16.2,62-51.8C1983.2,2194.8,1983.1,2173.6,1984.7,2152.5z M1786.5,2159.1
			c-1-10-3.4-22.3-3.2-34.4c0.3-18.3-6.8-19.9-22.1-13.9c-45.9,17.8-89.3,40.2-130.9,66.3c-7.4,4.6-11.5,9.6-11.1,18.8
			c1.4,34.1,8.8,66.3,32.3,92.2c37.1,41,86.1,34.4,111.1-14.7C1780.6,2238.2,1784.3,2199.9,1786.5,2159.1z M2027.4,2170.9
			c-0.9,13.7,0.1,26.4-2.9,38c-6.1,23.5,7.5,31.5,25.8,37c45.3,13.6,92-12.2,104.9-57.8c8.4-29.6,3-58.9-1.7-88.3
			c-1.7-10.9-8.9-14.1-18.2-15.2c-31.2-3.5-62.6-6.6-93.7-10.6c-14.4-1.9-18.5,3.3-16.9,17.3
			C2027.7,2118.3,2031,2145.3,2027.4,2170.9z"/>
		<path class="st0" d="M2544.9,831.4c-62,0.3-104.4-61-81.2-125.1c24.4-67.4,73.5-113,145.4-126.3c69.9-13,128.1,58.6,105.5,126.4
			C2696.1,762.3,2602.5,831.1,2544.9,831.4z M2502.3,740.1c0.3,32.2,23.8,55.8,51.5,47.1c46-14.4,86-40.6,113.1-81.1
			c22.9-34.2-0.3-80.1-39.1-83.2C2576.1,618.8,2501.9,688.2,2502.3,740.1z"/>
		<path class="st0" d="M1572.8,710.1c-56.9,0-91.9-24.8-103.7-73.6c-11.8-49.1,9.8-99,52.2-120.1c64.9-32.3,172.4,33.5,171.4,105.8
			c-0.4,32.7-19.6,55.4-46.5,71.1C1623.8,706.5,1598.6,710.2,1572.8,710.1z M1575.4,666.7c17.3-1.7,38.3-3,56.1-16.1
			c12-8.9,19.1-20.2,15.9-35.9c-7.1-36.1-65.8-71.5-100.9-60.8c-24.5,7.5-39.5,35.1-35.5,65.4
			C1515.4,651.8,1534.3,666.6,1575.4,666.7z"/>
		<path class="st0" d="M1666.4,864.3c0.3-28.4,5.5-55.6,20.2-80.3c17-28.7,45.1-38.6,76.4-27.6c53.1,18.7,86,82.5,70.2,136.3
			c-11.7,40.1-44.5,63.4-82,58.2C1692.6,942.9,1666.1,915.9,1666.4,864.3z M1792.9,857.6c-1.7-19-11.7-39.5-32.3-53.8
			c-19.7-13.7-31.5-10.3-40.9,11.4c-6.3,14.5-8.8,30.1-9.8,45.7c-2,30.4,13.7,44.8,49.2,45.7C1780.8,907.1,1793.4,891,1792.9,857.6z
			"/>
		<path class="st0" d="M2345.5,845.5c16.1-0.2,33.1,3.2,48.6,12.2c27.2,15.6,38.2,40.8,31.2,70.9c-14.1,60.7-90.5,95.4-143.8,64.8
			c-26.9-15.5-42.2-38.9-41.5-70.8c0.7-31.5,18.6-51.8,45.6-64.8C2303.9,849,2323.4,844.7,2345.5,845.5z M2326.4,962.1
			c23.4-3.6,41.5-14.5,52.7-35.3c4.8-9,7.2-19-1.7-26.5c-17.1-14.5-37.3-12.8-57.5-8.7c-2.6,0.5-5.1,1.4-7.5,2.5
			c-15.8,6.7-32.4,14.5-28.1,35.4C2288.8,951.1,2305.6,960.2,2326.4,962.1z"/>
		<path class="st0" d="M1848.4,1173.6c-42.3-0.1-60.7-17.2-60.6-56.3c0.2-54.3,28.7-91.7,69.8-91.3c36.2,0.4,67.2,34.3,67.2,73.6
			C1924.7,1143.7,1893.7,1173.7,1848.4,1173.6z M1832,1110.7c-2.8,12.7,0.4,20.8,14.8,21c19.7,0.3,31.7-10,33.6-28.7
			c1.6-15.8-5.1-31.4-23.3-30.9C1833.1,1072.8,1836.1,1095.1,1832,1110.7z"/>
		<path class="st0" d="M2091.8,1099.6c0.7-42.5,24.4-75.2,53.8-74.4c32.8,0.9,63.3,32.8,63.1,65.7c-0.3,34.9-29.7,62.9-64.9,61.8
			C2111.5,1151.9,2091.2,1131.1,2091.8,1099.6z M2147,1109.4c11.2-1.8,16.5-9.3,16.5-19.7c0-9.5-6.4-18.8-15.6-16.7
			c-11.8,2.7-9.6,16.7-12,26C2134.1,1106.3,2139.8,1109.6,2147,1109.4z"/>
	</g>
</g>
</svg>
