<?xml version="1.0" encoding="utf-8"?>
<!-- Generator: Adobe Illustrator 23.0.0, SVG Export Plug-In . SVG Version: 6.00 Build 0)  -->
<svg version="1.0" xmlns="http://www.w3.org/2000/svg" xmlns:xlink="http://www.w3.org/1999/xlink" x="0px" y="0px"
	 viewBox="0 0 3000 3000" style="enable-background:new 0 0 3000 3000;" xml:space="preserve">
<style type="text/css">
	.st0{stroke:#000000;stroke-width:10;stroke-miterlimit:10;}
</style>
<g id="Layer_2">
</g>
<g id="Layer_1">
	<g>
		<path class="st0" d="M1662.1,1331.3c58.7-95.8,188.2-93.4,240.3,11.4c61.1-113.4,166.5-149.2,283.6-159.5
			c92.6-8.1,173.1,17.6,224.3,103.2c11.2,18.8,18.2,38.9,20.4,60.9c4.1,40.6-11.2,70.1-48,86.8c-27.6,12.6-52.7,28-73.5,50.2
			c-10.9,11.7-19.8,24.6-25.6,39.4c-21.4,54.2,6.3,95.5,64.2,95.9c60,0.4,119.5-6.1,178.6-15.4c29.8-4.7,62-12.3,68.4-47.9
			c6.1-34-22.7-48.6-46.2-64c-14.3-9.4-29.8-17-43.7-27c-77.5-55.3-70.3-170.6,14.4-227.6c52.4-35.3,111.4-40.6,172.3-35.4
			c12.4,1,24.8,2.7,37,5c119.3,22.8,181.9,87.1,199.3,207.4c14.1,97.6,11.2,194.3-27.7,286.7c-57.6,136.9-160.3,217.6-307.8,237.4
			c-121.1,16.2-242.6,14.9-361.5-15.3c-155.6-39.5-259.3-139-316.1-288.4c-2-5.4-4.2-10.7-7.9-20.4c-8.1,34-16.2,63-39.4,86.5
			c-23.6,24-51.1,35.8-85.8,40.6c28.7,48.2,36.5,97.2,8.8,146.8c-17.8,31.9-45.1,52.5-81,61.6c-81.4,20.7-143.5-26.9-165.8-129.2
			c-41.7,27.5-86.1,47.2-135.2,55.3c-23.1,3.8-46.3,5.1-69.5,5.1c-315.1,0.1-630.3,0.4-945.4,0c-171.8-0.2-311.1-107.4-340.3-270.9
			c-20-112.2-21.6-226.2,45.4-327.8c67.7-102.7,164.7-155.9,287.1-156.5c319.3-1.4,638.6-1.6,957.9,0
			c141.2,0.7,245.5,66.6,311.5,192.1C1656.9,1321.8,1658.9,1325.4,1662.1,1331.3z M1612.5,1673.6c12.3-13.6,14.7-25.9,18.9-37.4
			c19.8-53.8,14.1-109.9,14.2-165.4c0.4-170.1-124.6-300.9-294.9-302.1c-322.5-2.2-645.1-2-967.7-0.2
			c-148.2,0.8-266.7,101.3-291.2,244.6c-11.2,65.6-11,132.8,2.9,198.5c22.2,104.5,116.4,199.5,212,216.3c3.4-12.4,0.3-24.7-0.8-36.9
			c-5-54.2-3.4-108.3,9.9-161c28.6-113.8,109.4-173.6,216.9-204.7c94.1-27.2,189.8-25.9,286-18c136.2,11.1,220.8,84,260.6,213.2
			c22,71.2,29.1,142.8,14.1,218.6c39.6,0,77.7-0.6,115.8,0.3c14.3,0.3,20.1-4.3,23.4-18.5c16.1-69.2,9.5-135.9-23.3-198.5
			c-11.5-21.9,4.8-21.8,14.4-29.4c14.2-11.1,18.2,0,23.2,9.9c28,55.6,37.7,114.4,34.7,176.3c-1,19.8-18.1,46.3-1.4,57.4
			c14.9,10,41.8,2.2,63.4,2.3c0.8,0,1.7-0.1,2.5,0c9.9,1,13.2-4.6,13.6-13.3c3.7-74.9,2.6-148.8-52.5-208.7
			c-14.8-16.1,3.6-20.9,8.7-29.8c7-12,14.6-6.3,21.7,1.2c26.8,28.4,43.8,61.9,53.9,99.5c11.4,42.4,10.9,85.5,10,128.7
			c-0.1,6.7-5.5,17.4,9.9,16.9c39.5-1.5,56.1-17.2,58.8-57.2c4.9-72.1-15-136.6-61.6-191.8c-17-20,5.3-22.9,11.6-32.2
			c9.3-13.8,14.6-1.1,19.8,4.9c33.9,39.1,54.7,84.6,66.2,135c7.2,31.5,4.8,63.4,5.8,97.4c39.9-24,70.6-49.4,58.9-100
			c-2-8.7-0.1-18.3-1-27.4c-6.2-62.5-20-121.7-72.3-163.8c-17.5-14.1,2.7-20.9,6-30.4c3.9-11.1,12-8.1,19.7-2.1
			c31.9,24.5,53.2,56.7,67.2,93.9C1604.2,1594.9,1610.5,1631.4,1612.5,1673.6z M2456.2,1903.6c29.1,0,58.2,1.3,87.2-0.2
			c161.6-8.4,280.9-96.9,328.4-245.4c27.7-86.5,28.7-175.1,9.6-263.5c-14.7-68.4-53.3-117-122.9-137.1
			c-36.2-10.5-73.1-16.3-110.6-15.1c-42.1,1.3-82.6,9.3-116.1,38.1c-57.3,49.2-51.4,122.4,12.8,161.1c21.3,12.8,43.6,24.1,61.6,41.9
			c51.5,51.2,38.4,120.5-28.5,149.3c-9.1,3.9-18.6,7.6-28.3,9.4c-72,13.1-144.7,21.5-217.9,18c-64.3-3-104.3-53.9-95-117.6
			c10.3-70.7,58.6-110.8,117.6-141.1c36-18.4,45.1-41.2,28-78.2c-22.2-48-57.7-81.8-110.4-92.2c-101.5-19.9-195,1.9-278,62.8
			c-35.8,26.3-56.6,63.8-64.2,108.8c-8.6,51-4.9,101.5,6,150.9c37.9,171.2,138.2,285.4,310.4,331.4
			C2314.9,1903.3,2385.6,1904.1,2456.2,1903.6z M727.8,1444.5c-76.9-2.9-143.1,6.8-207.4,28.5c-95.3,32.2-155.9,95.1-170.2,197.5
			c-6,43.1-4.3,86.2-1.8,129.3c2.3,40.4,1.9,40.4,42.5,39.3c1.7,0,3.3-0.2,5,0c12,1.2,14.3-4,10.7-14.7c-7.8-23.1-9.1-47.2-9.6-71.3
			c-2.8-137.3,79.8-241.9,209.8-261.4c59.9-9,120.7-8.9,181.5-3.8c105.9,8.8,171.8,66.3,206.5,163.9c19.2,54,27.4,109.6,21.6,166.6
			c-2.1,19.9,6.4,21.6,22.1,20.8c21.7-1.1,15.8-19.3,17.5-29.8c12.7-78.7-2.2-154.2-35.1-225.5c-33.5-72.5-89.9-117.5-170.5-130.2
			C806.7,1447,762.9,1444.4,727.8,1444.5z M731.3,1839c77.8,0,151.6-0.5,225.5,0.4c16.3,0.2,16.9-9,18.1-20
			c7.5-68.9-5.7-134.2-37.6-195c-26.5-50.5-68.9-81.3-126-92c-17.4-3.2-19.6,1.8-18.5,16.9c2.6,35.6,1.8,71.3-2.9,106.8
			C781.6,1719.3,761.9,1778.6,731.3,1839z M645,1585.3c0-13.3-0.5-26.6,0.1-39.8c0.6-11.8-3.3-16.6-15.7-14.9
			c-33.9,4.5-66.8,11.2-96.6,29.7c-86,53.4-113.5,179.4-81.8,268.4c2,5.6,4,9.9,11.6,10.5c47,3.6,91.3,1.5,120-44.9
			c10-16.2,21.4-31.6,29.4-49C635,1694.5,642,1640.4,645,1585.3z M1780.4,1479.8c49.1-0.3,89-40.6,88.3-89.1
			c-0.8-49.1-41.1-88.4-90.1-87.8c-49.3,0.6-88.4,40.5-88,89.6C1691.1,1442.1,1730.3,1480.1,1780.4,1479.8z M1765.4,1825.6
			c0.5-49.8-37.6-89.5-86.7-90.5c-49-1-89.1,38-90.1,87.4c-1,49.2,37.9,89.6,87,90.5C1724.6,1913.9,1765,1874.6,1765.4,1825.6z
			 M1773.1,1524.2c-49.7-0.4-86.9,35.9-87.4,85.2c-0.5,50.8,36.4,89.4,86.1,90c51.3,0.6,90.8-38.1,90.5-88.6
			C1862,1561,1824.4,1524.5,1773.1,1524.2z M598.7,1839.1c23.8,0,42.1-1.3,60,0.4c18.4,1.7,28-5.3,36.5-21.6
			c42.3-81.4,61.4-167.6,57.3-259.1c-1.5-32.4-1.4-30.5-34.3-32.4c-25.5-1.5-34.3,7.5-31.2,31.7c0.9,7.3-0.1,14.9-0.4,22.4
			C682.4,1673,667.4,1762,598.7,1839.1z M1890.4,1542.9c-2.4-22-4.8-44.1-7.7-70.2c-12.9,12.3-22.5,21.5-33,31.5
			C1864.3,1516.6,1876.2,1529,1890.4,1542.9z"/>
		<path class="st0" d="M2421.4,1829.2c-89-1.4-172.5-24-247.8-71.4c-78.8-49.6-109.4-125.5-102.1-215.6
			c7.5-92.1,59.6-154.1,142.3-191.9c9.2-4.2,20.3-11.6,25,6c3.4,12.4,9.4,22.1-8.8,31.7c-100.4,52.8-136.8,131.3-109.8,234
			c11,41.7,34.4,76.3,71.7,98.3c151.1,89.3,303.7,92,454.4,0.5c85-51.6,107.6-171.8,50.7-249c-21.9-29.7-52.7-47.5-86.1-61.4
			c-18-7.5-22.7-23.9-12.3-40.3c6.1-9.6,11.7-1.7,16.9-0.2c141.9,41.6,197.8,192.6,118.6,319c-20.8,33.2-48.3,59.3-82.3,78
			C2580.2,1806.3,2504.1,1830.2,2421.4,1829.2z"/>
	</g>
</g>
</svg>
