<?xml version="1.0" encoding="utf-8"?>
<!-- Generator: Adobe Illustrator 23.0.0, SVG Export Plug-In . SVG Version: 6.00 Build 0)  -->
<svg version="1.0" xmlns="http://www.w3.org/2000/svg" xmlns:xlink="http://www.w3.org/1999/xlink" x="0px" y="0px"
	 viewBox="0 0 3000 3000" style="enable-background:new 0 0 3000 3000;" xml:space="preserve">
<style type="text/css">
	.st0{stroke:#000000;stroke-width:10;stroke-miterlimit:10;}
</style>
<g id="Layer_1">
</g>
<g id="Layer_2">
	<g>
		<path class="st0" d="M541.1,2660.4c0.7,47.9-9.2,86.4-34.6,120.1c-37.8,50.5-98.3,71.9-150.8,53.1
			c-54.6-19.5-90.8-77.7-85.2-140.8c1.7-19,2.8-26.4-21.8-24.5c-70.2,5.4-128.8-56.7-129.7-135.4c-0.9-84.6,64-180,174.3-165
			C10.8,1859.9,14.8,1348.2,271.6,831c-84.7-2.8-157.9-28.5-169.3-128.2c-7.7-67.7,35-110.5,128.7-141.2
			c-30.4-95.8,7.3-170.6,97.8-190.5c95-20.9,185.9,31.8,194.8,123.8c2.6-0.7,5.8-0.6,7.6-2.2C620,416.2,727,389.6,840.1,381.5
			c203.3-14.5,406.9-18.3,610.4-6.1c158.3,9.5,307.8,52.5,446.4,130.1c19.5,10.9,25.2,5.6,34.4-11.1
			c87.4-159.4,221.5-254,401.5-277.9c268.1-35.6,521.6,142.9,583.7,406.6c21.5,91.5,21.1,184.6,22.4,277.5
			c3.1,219.3,4.6,438.7-0.8,658c-4.2,168.5-19.8,336.1-46,502.8c-18,114.5-41.6,227.6-67.3,340.7
			c-47.1,207.3-186.3,317.6-380.6,373.2c-189.5,54.2-370,23.5-545.1-57.7c-41.8-19.4-82.5-41-121.1-66.2c-10.8-7.1-18-6.7-28.9,0.5
			c-135,90.1-280.1,155.9-443.6,170.3c-196.1,17.3-392.2,26.7-579.8-52.9C661.3,2741.9,601.4,2706.4,541.1,2660.4z M1187.5,418.6
			c-55.3,0-110.6-0.9-165.8,0.2c-102.2,2-205.2,2.4-304.5,29.5C564.2,490,469.6,599.7,400.4,735.3c-11.1,21.7-22.7,42.1-41.5,57.6
			c-9.4,7.7-16.9,16.7-23,27.2c-187,318.9-243,661.8-186.3,1024.6c36.8,235.4,136.3,443.9,279.2,632.6
			C536.3,2619.2,674.4,2717,848,2761.8c109.3,28.2,220.8,25.4,332.3,24c213.2-2.8,406.1-66.2,575.3-195.9
			c124.1-95.2,199.2-214.4,175.8-380.2c-21.6-153,6.9-295.5,92-427.6c94-146,131.5-310.5,140.9-482.2c9.2-168.7-20.2-332-73.8-491.2
			c-40.7-121.1-116.1-213.8-231.6-272.6c-76.7-39-156.5-69-240-89C1476.9,413.1,1332.2,413.7,1187.5,418.6z M1803.3,2614
			c26.9,15.1,51.3,29.8,76.6,42.7c180.9,92.4,368.1,131.3,568.2,69.4c170.4-52.7,291-152.3,331.8-334.5
			c20.1-89.8,40.9-179.4,56.2-270.1c34.4-202.9,54.6-407.2,57-612.9c2.4-200.9,2.2-401.9-0.1-602.7c-1-90,0.1-180.6-20.7-269.5
			c-47.2-202.2-214.4-350.8-424.6-375.8c-192.8-22.9-388.8,83.7-479.5,260.6c-6.7,13.1-13.9,24.6,4.3,33.9
			c20,10.2,18.1-10,22.2-17.6c82-153.4,245.6-236.7,416.4-206.2c167.2,29.9,269,135.9,321.9,292.5c43.1,127.6,56.5,260.8,66.1,394
			c19.5,271.6-7.1,539.2-76.5,802.3c-25.5,96.6-58.7,190.1-121.4,270.2c-79.2,101.2-184.7,142-310.8,134.6
			c-104.6-6.2-197.9-47.2-289.2-94.5c-9.1-4.7-17.5-13-30.2-11.1c-0.9,25-0.2,48.9,4.5,72.5c1,5.1-2.3,16.2,8.4,13
			c13.6-4.1,15.5,6.4,20.3,13.3c34.3,49.4,80.6,83.1,136.7,103.2c125.5,44.9,241,21.2,348.3-53.1c77.2-53.6,135.6-124.4,180.7-205.9
			c11.2-20.3,20-12.3,34-6.5c18,7.5,14.7,16.2,7.1,29.3c-44.6,76.2-97.8,145.2-167.5,200.2c-112.7,88.9-238,126.4-380.3,91.6
			c-69.4-17-128.8-52.3-178.1-106.4C1958.6,2441.2,1938.1,2480,1803.3,2614z M2052.3,635.3c6.4-11.3,11.4-21.1,17.2-30.4
			c66-105.5,158.7-168,285.7-159.5c151.1,10.1,250,111.9,268.2,264c15.1,126,2.1,250.3-24.3,373.2
			c-25.5,118.3-62.6,233.1-125.3,337.6c-70.9,118-166,201.7-312.6,205.4c-12.5,0.3-15.2,7.7-18.2,16.5
			c-24.4,72-61.6,137.6-101.7,201.7c-38.4,61.3-57.9,128.7-65.9,200.1c-1.4,12.2-0.4,20.8,11.9,27.2
			c70.9,37.3,141.8,75.1,220.2,94.2c106.1,25.8,208.9,23.6,300.4-45.8c59.7-45.3,98-107.5,124.6-176c79.4-204.7,111-419.2,123.2-637
			c9.6-170.7-0.4-340.7-28.3-509.4c-16-96.6-37.7-191.7-94.7-274.4c-147.8-213.9-466.1-198.5-592.4,28.6
			C2015.9,595.2,2015.9,595.2,2052.3,635.3z M2124,761.7c5.5-11.4,10.3-21.2,15.1-31.1c18.3-37.7,41.3-71.9,73.5-99.1
			c72.3-61.1,162-57.1,228.5,10c32.8,33.1,51.2,73.7,60.8,118.6c11.7,54.7,9.9,109.9,5.4,165.1c-6.9,84-22.3,166.5-59.6,242.7
			c-52.6,107.5-118.8,202.6-242.3,239.1c-4.9,1.4-5.9,6.7-6.5,11.4c-6.1,54.1-20.1,106.5-34,159.3c3.6,1,6.2,2.3,8.7,2.2
			c6.4-0.2,12.9-0.8,19.2-1.8c102.3-15.6,173.9-76.3,227.8-159.9c70.8-109.8,110.2-232.3,136-359.3
			c24.8-122.4,39.2-245.6,16.6-370.3c-21.7-120.1-117.5-199.2-239.7-198.3c-107.8,0.8-204.8,75.9-248.4,185.3
			c-2.6,6.4,0,10.5,2.5,15.3C2099.4,713.7,2111.1,736.5,2124,761.7z M2455.8,768.1c-11.9,12.9-20.3,28.8-36.1,34
			c-18.4,6.1-16.5,15.4-13.4,31c11.3,58.1,8.8,119.3-46,150.5c-37.4,21.3-45.4,42.7-41.5,78.8c0.9,8.8-2.5,18.1-4.2,27.2
			c-5.1,28-17.3,52.4-39.9,70.1c-20.1,15.8-42.8,7.1-66.3,1.9c5.8,62.1,3.8,121.9-0.6,181.6c-1.4,19.4,6.1,17.3,18.4,10.2
			c38.8-22.1,73.5-49.2,102.3-83.4C2452,1123.7,2472.6,951,2455.8,768.1z M344.7,2506.9c0.3-42-22.5-79.1-55.3-90.2
			c-34-11.4-73.1,3.1-98.6,37.5c-23.2,31.3-30.3,66.7-21.7,104.4c13,56.9,73.6,83,119.7,50.5C323.4,2584.7,344,2550.8,344.7,2506.9z
			 M316.6,2713.9c0.4,23.5,11.4,56.8,48.9,73.5c34.2,15.3,64.7,4,91.1-19.6c33.5-30,47.3-87.1,31.9-129.2
			c-19.1-52-74.5-71.3-118.3-39.6C336.7,2623.2,316.3,2656.1,316.6,2713.9z M369.2,586.1c19.8,1.4,38.6-2.5,56.1-11.7
			c29.5-15.5,50.3-38.4,50.9-73.2c0.6-36.2-20.3-60.1-50.9-75.9c-45-23.2-105.5-14-138.6,20.1c-35.5,36.7-30.4,91.6,12.6,119.3
			C320.1,578,343.1,588.3,369.2,586.1z M253.8,783.5c43.9,0,97.9-44.3,105.8-88.4c2.9-15.9-4.6-30.8-14.5-43.2
			c-23.2-29.3-54.7-42.5-91.2-43c-58.3-0.9-108.3,41-107.3,88.5C147.7,744.3,196.5,783.6,253.8,783.5z M2181.3,956.6
			c40.2-25.3,44.9-62.8,45.7-106.4c1.2-59.2,33.1-91,90.2-104.2c7.8-1.8,10.7-3.8,9.9-12.3c-2.9-34.6,6.9-65.1,32.7-89.8
			c-41.8-19.2-89.9-6.2-129.8,34.1c-30.4,30.7-48.2,68.9-65.5,107.6c-3.3,7.4-4.3,19.1-12.3,20.4c-13.5,2.3-10.9,9.8-8.8,17.4
			C2156,868.4,2168.9,913.2,2181.3,956.6z M2364.7,876.4c-0.1-30-5.8-49.9-17.8-66.4c-18.1-24.8-39.6-25-58.2-0.3
			c-26.7,35.2-24.3,98.4,5,131.1c17,19.1,34.7,19,50.7-1.1C2359.9,920.2,2365.3,897.2,2364.7,876.4z M2274.4,1041.2
			c-1.9-22.9-3.5-46.8-17.1-67.7c-8.4-13-16.3-16.1-26.4-0.8c-20.5,31.1-20.6,107,0.1,138c11.2,16.8,20,12.5,27.9-2.2
			C2270.2,1087.9,2273.1,1065.2,2274.4,1041.2z M2413.6,723.7c-1.4-16.9-1.5-40.1-19.9-40.5c-19.6-0.5-19.9,23.1-20,39.3
			c-0.1,16.2,0.4,38.9,20.5,38.7C2411.2,760.9,2411.9,738.9,2413.6,723.7z"/>
		<path class="st0" d="M1149.2,1765.8c-54-96.1-106.7-187.7-157-280.7c-13.9-25.6-29-36.7-59.3-36.4c-78.3,0.8-156.3-4.6-232.4-26.7
			c-165.2-48.1-263.3-172.8-273-345.1c-5.2-93.8,9.1-185.3,26.4-276.9c3-15.7,10.1-17.9,22.3-14.5c12,3.4,28.3,1.8,23.8,24.1
			c-10.5,51.4-20.1,103-25,155.3c-5.5,60-4.5,119.7,9.7,178.5c34,140.7,127.9,217,265.9,243.4c135,25.8,271.6,17.9,407.9,14.1
			c92.4-2.6,183.4-15.1,272.2-41.3c330.3-97.6,441.3-437.3,360.5-675.3c-7.8-23,5.6-23,18.7-29.3c18.8-9.1,22.1,2.9,26.1,16
			c44.3,143.7,33.1,284.1-29,420c-84.2,184.3-232.6,288.4-427.2,327.9c-48.4,9.8-75.4,29.7-95.5,74.1
			C1243.3,1584,1196.1,1672.2,1149.2,1765.8z M1146.8,1666.5c38.7-77.5,74.7-149.5,112.9-226c-75.7,7.5-145.4,8.5-215.1,9.3
			c-14.6,0.2-18.1,3.9-10.4,17.4C1071,1531.7,1107.2,1596.4,1146.8,1666.5z"/>
		<path class="st0" d="M1357.1,801.2c-18.4,35.1,12.2,49.1,39.3,65.5c45.9,27.9,91.7,54.4,148.7,51c25.4-1.5,16.6,22.9,19.7,35.3
			c3.6,14.6-12.8,9.6-19.9,10c-42.2,2.5-81.5-7.7-119.5-26.5c-51.3-25.5-96-61.5-146.5-88.3c-60.8-32.3-119.1-32.3-178,3.6
			c-47.7,29-84.8,70.5-126.9,106.2c-46.4,39.2-95.7,71.7-158.5,77.7c-18.7,1.8-37.5,1.6-54.7-4.2c-10-3.4-33.1,1.9-26.9-20.3
			c4.5-16.1,9-33.3,37.7-24.9c40.3,11.7,80.2-1,116.1-22.3c14.2-8.4,26.9-19.4,40.9-28.2c27.6-17.4,36.1-38.2,24.1-71.2
			c-14.9-41.2-16.6-84.6-0.9-127.2c28.2-76.8,94.8-104.5,166.6-67.6c13,6.7,18.3,6.6,29-3.9c56.2-55.4,130-47.1,174.3,18.2
			C1344.5,717.7,1358.1,754.2,1357.1,801.2z M1000.9,869.6c39.2-32.9,76.7-62.2,121.6-79.6c4.8-1.8,6.1-6.1,7.1-10.9
			c4.8-23.6-15.3-60.7-40.2-73.5c-27.1-14-54.2-9.1-74.4,14.9C976.8,765.5,985.7,815.2,1000.9,869.6z M1311.5,792
			c0.6-36.4-23.6-86.4-51.1-105.8c-26.5-18.7-61.2-11.7-85.3,17.2c-7.2,8.6-5.6,64.3,2.6,71.7c2.3,2.1,6.7,3,10.1,2.9
			c37.7-1.1,72.6,9.6,106,26C1308.1,811.1,1312,805.5,1311.5,792z"/>
		<path class="st0" d="M1518,2268.6c-87.5-1-146-54.8-144.2-132.6c2-85.9,71.5-152.4,157.9-151c83,1.3,151.8,65.5,151.5,141.4
			C1682.9,2211.8,1615.7,2269.6,1518,2268.6z M1520.7,2222.4c70.4-0.2,116.4-37.6,115.9-94.2c-0.6-55.4-47.8-97.1-109.3-96.3
			c-60.2,0.7-106.6,45.7-106.8,103.4C1420.3,2191.3,1456.3,2222.6,1520.7,2222.4z"/>
		<path class="st0" d="M747.4,2060c65.3,1,113.6,25.1,142.1,79.9c26.1,50.2,19.7,100.2-13.5,145.4c-53.3,72.6-192.8,79.8-247.7,12.6
			c-38.1-46.7-41.9-99.6-16.6-152.8C639.2,2087.3,688.4,2061.6,747.4,2060z M740.9,2296.3c71.9,0.3,118.6-37.4,117.9-95.2
			c-0.6-54.1-46.6-94.7-107.4-94.8c-62.8-0.1-107.9,43.2-107.8,103.5C643.7,2265.8,677.8,2296.1,740.9,2296.3z"/>
	</g>
</g>
</svg>
