<?xml version="1.0" encoding="utf-8"?>
<!-- Generator: Adobe Illustrator 23.0.0, SVG Export Plug-In . SVG Version: 6.00 Build 0)  -->
<svg version="1.0" xmlns="http://www.w3.org/2000/svg" xmlns:xlink="http://www.w3.org/1999/xlink" x="0px" y="0px"
	 viewBox="0 0 3000 3000" style="enable-background:new 0 0 3000 3000;" xml:space="preserve">
<style type="text/css">
	.st0{stroke:#000000;stroke-width:10;stroke-miterlimit:10;}
</style>
<g id="Layer_1">
</g>
<g id="Layer_2">
	<g>
		<path class="st0" d="M1926.9,2754.4c-45.5,168.8-199.9,223.4-336.8,216c-176.2-9.5-313.5-94.2-422.9-228.9
			c-3.8-4.7-7.6-9.4-15.3-18.9c1,17.5,1.5,29.4,2.4,41.3c4,54.2-23,92-76,105.3c-45.9,11.6-93.3,12.1-140.1,15.8
			c-179.5,14.4-359.4,19.6-539.5,17.5c-34.7-0.4-69.2-3.1-103.3-9c-84.3-14.6-136.7-71.1-148.2-161.6c-11.3-89.4-17.5-179.1-8-269.2
			c0.9-9,1.3-17.2-4.7-25.6c-55.8-78.2-57.5-163.2-30.9-251.6c7.2-23.9,17.8-46.4,29.2-68.6c2.8-5.4,6.6-10,0.7-16.5
			c-50.8-55.4-49.1-120.7-33.3-187.6c18.9-79.8,49.4-155.4,88.2-227.6c12.9-24.1,11.2-27.4-12.5-38.7c-58.2-27.8-85-77.3-90.9-138.9
			c-5.7-60.4,12.7-115,47.6-163.9c8.8-12.3,12-23.7,9.8-38.4c-21.8-146.2-31.8-293.2-24.1-440.9c8.1-155.8,27.5-309.9,78-458.8
			c55.3-163,173.7-242.9,339.5-262.7c66.7-8,133.6-14.5,200.7-15.4c91.9-1.3,180.7,12.3,260.3,63.2
			c79.4,50.7,132.8,121.9,168.1,208.1c2.2,5.5,4.3,11.1,6.5,16.9c8.4-3.7,9.6-11.2,13.1-16.8c121.6-196.4,296.9-301.7,528.7-304.9
			c209.1-2.9,418.2-1.3,627.3-0.4c303.5,1.3,561.6,228.6,602,528.9c3.9,28.8,5.4,57.8,5.4,87c-0.2,204.3,0.1,408.5-0.2,612.8
			c-0.3,298.2-202.8,545.6-495.4,605.4c-14.9,3-30,5.9-45.1,6.6c-16,0.7-17.5,7.1-14.3,21.1c14.2,63.5,101.9,136.2,188.1,83.2
			c23.6-14.5,46.5-30,70.8-43.1c71-38.2,141.3-20.8,187.4,45.5c26.1,37.5,35.8,80.4,40.9,124.7c10.1,86.6,17.9,173.5,16.5,260.8
			c-1,63.1-8.8,125.4-26.9,186.3c-45.5,153-144.7,252.6-297.2,297c-134.7,39.3-271.8,42-408.7,12.1
			C2059.3,2899.2,2003.1,2857.2,1926.9,2754.4z M1135.1,1061.1c0.1,0,0.2,0,0.4,0c-2,38-5.3,76-5.9,114
			c-1.8,119.5-25.7,239.8,10.6,358.3c8.1,26.4,3.9,55.3,15.5,81.1c80.8,179.4,223.4,267.9,416,282.4c53.2,4,106-7.4,158.9-7.8
			c200.1-1.7,400.2-0.7,600.3-0.7c55,0,109-7.1,161.8-22.7c239.4-70.9,403.7-289.3,404.4-538.9c0.6-200.8,0-401.6,0.2-602.4
			c0-37.5-2.6-74.6-8.1-111.7c-33.5-228.1-233-427.3-461.2-460.8c-96.5-14.2-193.6-5.2-290.3-8.1c-12.2-0.4-13.4,6-13.7,15.1
			c-1.1,34.6-1.6,69.2-3.7,103.8c-0.9,14.6,3.6,19.8,18.3,23.1c88.8,19.9,171.2,55.3,244.3,109.8
			c154.9,115.5,242.5,267.3,240.1,463.8c-1.8,142.1-57.3,263.4-154.5,365.8c-13.4,14.1-16.7,22.9-5.5,41
			c36.9,59.8,53.3,125.6,48.6,196.2c-5.9,88.5-62.9,148.9-150.5,161c-54.5,7.5-105.8-4.9-157-20.4c-9.3-2.8-16.7-5.1-25.4,4.6
			c-84,93.1-222.5,93.6-314.5,22.8c-23.4-18-36.4-19.3-62-4.2c-110.2,64.9-248.5,4.5-274.3-117.1c-8.3-39.3-4.7-78.4,1.1-117.6
			c4.2-28.8,6.3-58.7,26.6-81.5c12.1-13.6,12.7-22.2-3.6-30.9c-3-1.6-5.5-4.2-8.1-6.5c-175-155.3-246.5-346-182.1-574.5
			c51.2-181.6,177.2-301.3,347.8-375.3c108.1-46.9,221.8-63,339-50.9c17.9,1.9,22.6-3.1,22.2-20.4c-0.8-29-0.2-58.2,2-87.1
			c1.3-16.8-3.8-20.8-20.2-20.7c-110.1,0.7-220.2,0.4-330.3,0.3c-41,0-81.5,4.1-121.7,12c-236.2,46.3-425.5,254.9-444,494.8
			C1146.2,787.1,1142.1,924.2,1135.1,1061.1z M1081.7,1110.5c5.7-115.3,11-227.9,17-340.4c4.1-76.6,0.2-154.8,26.5-227.9
			c15.3-42.8,10.2-79.7-5.8-119.3c-58.8-145.5-162.8-230.9-321.7-242c-104.1-7.3-207.5,2.4-309.6,22.4
			c-79.2,15.5-146.6,53-194.3,120.6c-39.8,56.5-60,121.2-75.7,187.3c-51.9,218.2-62,439.1-40.7,661.9c3.3,34.6,8.1,69,12.5,106.3
			c39.2-29.4,77.1-53.5,119.3-69.7c133.5-51.3,271.9-84,412.9-106.3c98.4-15.6,197.4-11,296.2-7.9
			C1039,1096,1059.5,1099.6,1081.7,1110.5z M1919.8,2373.6c0-20.8,1.8-41.7-0.3-62.2c-14.7-143.1-79.5-261.5-179.6-362.5
			c-8.9-9-17.9-11.1-29.7-9.1c-105.8,17.8-209.5,10.1-310.5-26.8c-10.2-3.7-18-3.1-27,2.6c-130.9,82.4-219,196.9-259.7,346.8
			c-2.3,8.6-4.9,18-3.6,26.5c3.7,22.5,0.7,44-5.2,65.6c-9,33.3-8.6,67.4-3.8,101c24.2,169.8,113.1,298,256.5,388.5
			c103.8,65.6,216.9,94.1,339.1,66.1c95.3-21.9,162.1-76.9,182.5-176.4C1902.7,2614.9,1916.2,2494.7,1919.8,2373.6z M2828.5,2188
			c-1.6,3.7-3.4,7.3-4.8,11c-69.2,177.3-230.3,271.3-417.8,241.6c-109.6-17.3-186.8-75.9-220.8-184.6
			c-12.5-39.9-17.1-81.1-16.4-122.9c1-59.2,11.9-116.9,29-173.3c5.5-18,1.3-21.9-16.9-21.4c-42.9,1.3-85.8,0.4-128.7,0.4
			c-8.3,0-15.2,0.1-21.8,8c-45.1,53.8-77.7,114.1-96.8,181.6c-2.1,7.4-3.2,14.2-0.1,22c48.9,122.5,43.5,248.7,28.3,376.3
			c-5.7,47.7-22,94.9-8.5,144.5c8.5,31.2,19.1,60.4,38.3,86.5c42.9,58.4,101.6,93.7,170.4,111c127.3,32,255.2,29.2,381.8-3.6
			c147.3-38.1,241.2-131.5,280.5-279.1C2859.5,2454.1,2843.7,2321.4,2828.5,2188z M2065.2,389.4c0.7,0,1.4,0,2.1,0
			c0-16.6-0.6-33.2,0.2-49.8c0.5-10.9-2-16.2-14.1-17.3c-164.3-15.7-315.8,19.4-448.9,118.5c-130.8,97.4-208.9,227.1-213.8,392.4
			c-5.1,171.4,69,308.5,202.1,412.7c240.2,188,590.5,173,815.7-32.2c156-142.1,208.4-364.3,126.1-552
			C2457.3,485.5,2316.7,384.2,2134,336c-12.9-3.4-15.7,1.6-15.8,13c-0.3,31.8-0.2,63.7-2.1,95.5c-0.8,14.3,4.9,18.2,17.4,21.5
			c111.7,29.8,188.6,99.4,228.6,207.4c37.4,100.9,38.4,205,15.5,308.9c-58.2,264.2-368.7,387.4-586.6,233.7
			c-125.1-88.3-187.4-237.8-158.4-375.8c41-194.9,231.6-378.5,418.5-383.7c11.2-0.3,14.3-5.3,14.1-15.2
			C2065,424,2065.2,406.7,2065.2,389.4z M442.9,2416.7c51.3-13,99-25,146.8-37.3c10.6-2.7,4.3-9.5,3-14.8
			c-13.8-56.3-16.9-113.1-10-170.8c30.7-258.6,310.9-422.8,566.5-315.4c4.3,1.8,12.5,3.7,11.2,7.7c-4.3,13.6-9.5,27.4-17.2,39.3
			c-5.5,8.4-13.6-0.6-19.8-3.1c-150.2-57.7-312.8-18.7-412.9,101c-78.7,94.1-94.5,202.8-70.9,320.3c3.8,18.7,9.5,21.8,26.9,16.6
			c60.2-17.8,121-33.4,181.2-51.4c56.1-16.8,113-32.3,161.7-67.4c12.5-9,27.8-13.8,43.3-11.7c14.7,2.1,18.3-5.2,22.1-17
			c23.6-72.4,59.9-138.1,107.9-197.3c41.7-51.4,90.6-94.9,146.7-132.7c-5.8-4-10.1-7.3-14.7-10.1c-64.9-39.4-118.7-90.7-160.3-154.1
			c-10.1-15.4-19.8-19.3-36.9-15.9c-63.5,12.3-127.9,13.5-192.3,11c-20.7-0.8-41.7-4-57.8-19.3c-5.8-5.5-10.8-3.7-16.8-1.3
			c-65.4,26.3-133.2,36.4-203.3,29.3c-9.8-1-16.2,1-22.1,10.2c-38.3,59.4-92.7,96-161.9,109.5c-14.1,2.7-12.6,7.8-8.8,17.8
			c7,18.7,14.3,37.5,19.2,56.9c17.3,68.7,15.1,135.1-31.6,192.8c-10.9,13.5-11.8,23.4-6.5,38.5
			C465.5,2235.2,485.3,2322.9,442.9,2416.7z M1061.3,2542.1c-3.3,0.5-4.1,0.4-4.7,0.8c-3,1.8-5.9,3.7-8.8,5.5
			c-197.1,125.6-411.4,171.9-642.6,137.4c-49.4-7.4-38.8-1-32.4-42.1c1.9-12.2,5.9-14.4,18.6-12c102.3,19.1,204.8,19.4,307.4,0.9
			c122.2-22,234.7-67.4,337.2-137.4c7.7-5.2,13.4-9.8,11.9-21.3c-7.5-57.4-2.8-114.6,4.6-171.7c0.9-6.7,7.7-15.8-1.6-20.6
			c-7.3-3.8-14.8,2.2-20.7,6.5c-37.6,27.3-80.7,42.3-124.1,56.3c-164.4,53.1-333.4,89.3-500.1,134c-6.5,1.8-13.1,1.7-19.2,6.1
			c-58.2,42.2-119.4,40.9-182.4,12.2c-4.7-2.1-8.7-7.3-16.6-4c-4.7,82.5-0.6,165,12.9,247.2c9,55.1,40.9,87.4,93.6,100.9
			c33.7,8.6,68.3,10.6,102.9,11.1c176.6,2.6,353-3.2,529-16.8c47.4-3.7,95.6-3.4,142-16.1c28.2-7.7,36.3-19.1,35.1-48.1
			C1100.4,2692.7,1079.8,2618.1,1061.3,2542.1z M907.6,1145.1c-53.3-2.7-106.5-0.5-159.4,6.2c-107.9,13.6-213.1,39.6-317.3,70
			c-73.2,21.3-145.6,45.6-205.2,95.7c-55.8,46.9-93.2,104.6-90.5,180.5c1.5,43.7,18.4,82,60.2,101.8c40.1,19,73.9-0.6,104.6-25.1
			c34.1-27.1,65.7-57.5,101.2-82.6c132.9-93.9,283.3-113.9,441-99.6c69.7,6.3,138,20.9,205.5,39c12.7,3.4,18.2,2.5,17.5-13.2
			c-0.9-21.3,0.5-42.9,2.2-64.2c4.6-56.6,2.7-113.4,2.8-170.1c0-18.4-10.6-29.4-28.1-33.6c-14.2-3.4-28.5-5-43.2-4.9
			C968.5,1145.3,938.1,1145.1,907.6,1145.1z M2341,854.1c0.9-46-5.6-91-17.2-135.4c-46.1-176.5-232.7-261.2-395-178.4
			c-104.5,53.3-178.6,135.7-225.3,242.9c-21.3,48.9-32,100.2-26.5,153.7c13,127.6,110.8,245.1,234.3,282.7
			c121.1,36.9,266-8,348.7-107.8C2322,1036.8,2339.6,948,2341,854.1z M2220.6,2139c0,11.8-0.7,23.6,0.1,35.3
			c7.4,107.3,62.5,180.2,157.3,208.3c194.8,57.8,394.6-75.3,416-277.2c4.5-42.6-16.4-71.2-58.1-78.6c-22.3-4-42.4,3-61.3,14.2
			c-25,14.8-49.8,29.8-74.8,44.5c-101.8,60.1-217.5-10.4-250.5-97.5c-6.1-16.1,0.2-40.4-16.7-47.4c-16-6.6-36.8-1.6-55.4-1.7
			c-3.5,0-6.9,0.3-10.4,0c-8.2-0.7-12.1,2.7-14.3,11C2235.8,2011.8,2218.8,2073.8,2220.6,2139z M222.2,1729.2
			c-37.6,81.4-73,160-79.7,247.6c-4.7,61.6,21.3,98.9,79.5,120.7c27.4,10.3,55.8,15.5,85.1,15.5c78.4,0.1,118.7-36.6,124.5-115.5
			c3.8-52.7-17.6-100-35.5-147.8c-2-5.3-6.8-6.1-11.7-7.1C315.7,1829.1,263.6,1790.9,222.2,1729.2z M416.9,2314.3
			c-0.5-58.3-14.7-104.6-29.6-150.7c-2.6-8.1-6.7-10.7-15.4-8.2c-60.5,17.3-119.3,8.8-176.6-13.9c-11.6-4.6-17.1-3.3-22.3,8.1
			c-15.1,32.8-28.6,66.2-32.8,102.3c-7.6,66.1,3.2,127.4,53.8,175.6c54.3,51.8,154.6,61.7,202.1-32.2
			C410.5,2367,416.9,2336.8,416.9,2314.3z M424.9,1795.4c47-0.4,91.6-19.9,129.1-55.8c22.3-21.4,37-41.6,26.7-78.8
			c-15.3-54.9-20.5-112.7-28.5-169.4c-2.5-17.7-7.7-19-23.1-12.9c-64.3,25.3-117.9,66-168.3,112c-30.3,27.6-62.5,52.8-103.8,62
			c-13.6,3-9,10.3-6.2,18.3C275.9,1741.2,345,1792.2,424.9,1795.4z M1707.1,1601.8c85.5,0.4,165.7-85.6,160.5-171.1
			c-0.8-13.4-8.8-13.6-17.5-15.2c-77.7-14.1-150.9-40.8-218.2-81.9c-19-11.6-28.1-7.3-37.7,9c-4.3,7.2-7.9,14.5-9.4,22.8
			c-5.9,30.6-10.1,61.5-10.8,92.7C1572,1540.5,1628.7,1601.4,1707.1,1601.8z M1979.7,1426.5c-15.2,0-30.6,1.1-45.6-0.3
			c-12.7-1.2-16.5,2-16.8,15.1c-1.1,41.7-12.3,80.8-37.1,114.7c-8.7,11.8-6.3,17.9,4,26.7c57.9,49.9,149,61,213.9,25.2
			c64.7-35.7,104.7-119.8,93-194.5c-1.9-11.8-4.9-16-18.5-12C2109.5,1419.5,2045.2,1428.2,1979.7,1426.5z M840,1542.9
			c0.7,0,1.4,0,2,0c0-26.3-1.1-52.6,0.4-78.8c0.9-15.7-3-22.4-19.4-23.2c-69.3-3.6-138.2-3-206.6,11.5c-15.1,3.2-18.5,9.4-16,23.8
			c9.1,53.1,17.1,106.3,25.6,159.5c4.6,28.8,11.6,35.2,40.6,37.1c56.1,3.7,110.1-5.8,162.7-25.7c11.9-4.5,15.4-11,14.4-23.3
			C841.8,1596.9,841.2,1569.9,840,1542.9z M2244.2,1446.5c-2.1,33-9,64.5-22.3,94.6c-2.7,6.1-7.2,12.2,4.4,15.5
			c43.3,12.4,86.7,23.2,132.3,15.7c55.9-9.1,89.9-40.7,99.6-96.3c11.2-64-5.3-123.3-35.4-179.6c-7.2-13.6-12.8-17.7-27.1-6.2
			c-43.3,34.8-91.6,62.1-143.1,82.8c-14,5.6-16.9,11.7-13.3,26.1C2243.1,1414.4,2242.8,1430.7,2244.2,1446.5z M893.5,1552.1
			c0.5,0,1,0,1.5,0c0,27.6,0.7,55.2-0.3,82.8c-0.6,17.5,6.5,25,23.6,26.6c52.6,4.9,104.8,0.8,157.2-3.3
			c23.5-1.9,27.2-11.9,24.2-31.4c-6.7-44.3-25.6-85.9-29.4-130.9c-0.6-7.1-6.3-8.3-11.6-9.8c-49.2-13.5-99-24.7-149.2-33.8
			c-11-2-16.5-0.1-16.2,12.7C893.9,1494.1,893.5,1523.1,893.5,1552.1z M1897.6,2074.1c19-50.7,43.3-92.8,71.8-133.4
			c-56.8,0-110.5,0-167.3,0C1839.5,1982.2,1870.9,2023.8,1897.6,2074.1z"/>
		<path class="st0" d="M925.5,790.6c-0.4,5,0,15.5-2.1,25.6c-4.9,23.7-27.4,35.2-55.6,28c-45.8-11.8-92.1-17.2-139.4-18.2
			c-37.6-0.8-72,11.8-107.2,21.1c-23.4,6.2-46.8,12.2-71.3,11.7c-51.9-1.1-86.5-38.2-84-89.9c5.8-123.6,131.8-225.6,257.3-208.4
			C838.9,576.3,922.4,669.1,925.5,790.6z M516.9,767.6c-0.7,30,11.2,42.6,41.2,40.3c16.4-1.3,33.2-4,48.6-9.7
			c82.8-30.8,166.7-27.6,250.9-8.6c15.5,3.5,18.2-1.1,16.6-14.2c-0.5-4.1-0.5-8.3-1.2-12.4C855.5,660.1,766,596.2,663.2,613.2
			C588.2,625.7,518.5,699.1,516.9,767.6z"/>
		<path class="st0" d="M1611.1,2388.2c0.6,25.9-9.1,57.9-26.6,87.8c-5.3,9.1-11.9,14.1-22.8,15c-77.1,6.6-154.2,13.5-231.2,20.7
			c-10.9,1-15.6-0.9-16.3-13.7c-2-38-2.7-37.3,35.2-40.3c62-5,123.9-11.3,185.9-16.2c12.1-0.9,14.5-8.2,17.6-16.7
			c17.9-48.3,5.1-107.6-33.3-141c-41.8-36.3-89.7-42.7-141.4-22.6c-6.5,2.5-13.7,12.6-20,5.2c-9.2-10.8-19.7-22.3-22.5-36.5
			c-1.4-6.8,9.4-8.9,15.2-11.7C1460.7,2164.7,1609.5,2229.5,1611.1,2388.2z"/>
		<path class="st0" d="M2132.8,980.2c-8-0.9-20.8-0.6-32.6-4c-17-5-20.3,0.4-20.8,16.9c-2.2,65.6-45.3,119.8-110.1,140.9
			c-62.5,20.4-129.6,3.1-167-46.3c-40.6-53.7-42.6-113.3-14-172.4c29.3-60.5,81.1-88.9,147.6-89.3c14.1-0.1,18.3-1.3,17.7-16.9
			c-3-80,49.8-153.4,127.7-180.1c74.1-25.5,153.9,0,200.7,64.2c45.8,62.8,46,155-0.6,217.8C2245.7,958.9,2195.9,978.9,2132.8,980.2z
			 M2128,928.8c52.3,0.1,89.4-17,112.1-47.5c45.6-61.5,28.5-151.1-36.8-192.8c-60.8-38.9-146.8-13.7-183.3,53.8
			c-26.6,49.2-21.4,88.7,16.8,129.1c3.8,4,7.9,8.1,10.4,12.9C2066.2,921.2,2100.4,927,2128,928.8z M1821.5,990.8
			c-0.2,64.1,42.9,105.3,107.6,99.6c42.8-3.8,76.6-25.1,92.3-66.7c14.2-37.7,14.6-74.5-20.5-103.7c-6.3-5.2-11.5-12.2-15.6-19.3
			c-8.5-14.9-22.1-20-37.7-22.3C1879.4,868,1821.7,919.4,1821.5,990.8z"/>
	</g>
</g>
</svg>
