<?xml version="1.0" encoding="utf-8"?>
<!-- Generator: Adobe Illustrator 23.0.0, SVG Export Plug-In . SVG Version: 6.00 Build 0)  -->
<svg version="1.0" id="Layer_2" xmlns="http://www.w3.org/2000/svg" xmlns:xlink="http://www.w3.org/1999/xlink" x="0px" y="0px"
	 viewBox="0 0 3000 3000" style="enable-background:new 0 0 3000 3000;" xml:space="preserve">
<style type="text/css">
	.st0{stroke:#000000;stroke-width:10;stroke-miterlimit:10;}
</style>
<g>
	<path class="st0" d="M519,1792.4c0-35.9,1.2-71.8-0.2-107.6c-7.1-178,17.3-354.6,23.4-532c4.9-142.5,19.6-284,48.7-423.8
		c62.9-301.8,242.4-507.2,528.5-613.1c317.5-117.5,635.8-109.9,943.9,35.4c261.6,123.4,410.8,335,457.3,619.7
		c31.6,194,23,389.1,16,584.2c-3,84.3-5.5,168.7-9.8,253c-11.6,226.3-19.5,453.2-81.5,673.4c-106.2,376.9-358.3,594.5-739.1,661.9
		c-267.9,47.4-530.5,23.2-776.9-101.5c-244.5-123.7-376.6-325.3-405-597.6C508.6,2093.8,510.8,1943.3,519,1792.4z M1491.6,1697.3
		c-134.1,0-268.1,0.5-402.2-0.5c-21-0.1-28.8,6.1-25.6,26.6c1.1,7.3,0.8,14.7,1,22.1c5.5,243.2-188.7,436.4-427.3,425.7
		c-21.7-1-49.2-16.3-63.2-1.3c-13.6,14.6,0.2,42.2,2.5,63.9c18.4,178,79.9,335.4,219.2,455.6c66.2,57.1,139,103.5,220,135.2
		c280.7,109.6,565.7,119,850.9,22.4c196.1-66.4,348.1-190.7,446.8-375.6c58.2-109.1,91.1-226.3,113.3-347.3
		c4.7-25.5,1.9-29.8-24.8-24.5c-250.5,49.5-467.4-119-481.3-373.7c-1.3-23.7-7.2-29.5-30.4-29.3
		C1757.6,1697.9,1624.6,1697.3,1491.6,1697.3z M2109.9,1431.2c119.5,0,236.6-0.2,353.7,0.3c16.4,0.1,18.8-7.7,19-21.3
		c0.7-44.3,2.1-88.6,3.7-132.9c6-163.6,8.5-327.1-16.5-489.6c-40.3-261.7-172.2-460.8-411-579.4
		c-294.9-146.5-601.4-156.5-908.9-47.4c-264.7,93.9-438.2,277.8-502.1,556.6c-52.4,228.8-53.2,462.5-66,695.1
		c-0.9,16.6,6.7,18.9,20.5,18.8c80.2-0.4,160.5-0.8,240.7,0.3c20.7,0.3,20.5-8,18.8-24.4c-9.5-91.5-11.5-183.1-0.7-274.8
		c23.7-202.1,100.3-377.6,253.3-516.3c106.9-96.8,227.1-164.7,374-172.7c204-11.1,362.6,79.8,491.7,229.1
		c123.9,143.2,164.4,315,162.9,499.9C2142.3,1259.2,2129.6,1344.3,2109.9,1431.2z M1519.8,1643.3c301.8,0,603.6,0,905.4,0
		c8.4,0,16.9-0.6,25.3,0c15.3,1.2,20.1-5.7,19.7-20.4c-0.8-32.7,0.1-65.4-0.3-98.1c-0.5-43.2,7.4-39.7-41.1-39.7
		c-602.5-0.1-1205-0.1-1807.5-0.1c-5.3,0-10.6,0.6-15.8-0.1c-21.4-2.8-30.4,5-29.4,27.8c1.3,31.6,1.9,63.5-1.2,94.9
		c-3.1,30.2,8.4,36.3,36.5,36.2C914.1,1642.9,1217,1643.3,1519.8,1643.3z M1234.2,588.3c-48.5,32.3-86.2,66.1-120.6,102.8
		c-193.9,206.7-227.3,457.3-196.8,725.3c2.1,18.5,14,14.8,24.9,14.8c85.5,0.2,171-1,256.5,0.7c28,0.6,37-5.8,36.9-35.8
		c-1.3-257.5-0.8-515.1-0.8-772.6C1234.2,614.2,1234.2,604.9,1234.2,588.3z M1497.8,964.4c0.5,0,0.9,0,1.4,0
		c0,146.7,0.3,293.5-0.4,440.2c-0.1,19.9,4.3,27.8,26,27.2c50.6-1.6,101.3-1.3,152-0.1c19.8,0.5,27.2-4.1,27.1-25.8
		c-1.4-284-2-567.9-2-851.9c0-20-8.3-27.8-25.2-33.5c-47.4-16-96.1-22.7-145.8-26.5c-26.8-2-33.9,7.2-33.7,33.4
		C1498.3,673,1497.8,818.7,1497.8,964.4z M791.3,1697.3c-65.3,0-130.7,0.3-196-0.2c-15.7-0.1-25.3,1.4-25.4,21.4
		c-0.3,118-9.1,235.9-6.2,354c0.7,29.9,11.8,39.3,39.4,42.7c235.5,28.4,428.3-156.1,409.1-391.9c-1.6-19.6-7.1-27-28.1-26.5
		C919.9,1698.2,855.6,1697.3,791.3,1697.3z M2222.7,1697.3c-72.8,0-145.6,1.1-218.4-0.6c-25.4-0.6-31.8,7-30.7,31.9
		c10.4,222.1,219.3,373,437.6,315.9c21.9-5.7,31.6-14,34.6-38.8c11.2-94.4,14.7-189.2,21.8-283.8c1.5-20.1-3.9-25.2-23.4-25
		C2370.4,1697.9,2296.6,1697.3,2222.7,1697.3z M1443.8,502.2c-47.4,5.8-88.1,22.7-129.1,39.2c-21.6,8.7-29.3,20.9-29.2,44.8
		c1,200.4,0.6,400.7,0.6,601.1c0,72.8,0.8,145.5-0.5,218.3c-0.4,21.2,6.6,27.1,26.9,26.2c33.7-1.5,67.6-2.5,101.2,0.2
		c28,2.2,32.3-8.8,32.2-33.8c-1.3-288.9-1.5-577.9-2.1-866.8C1443.8,522,1443.8,512.7,1443.8,502.2z M1906.8,671.9
		c0,232.7-0.2,455.3,0.3,677.9c0.1,26-11.5,59.6,5,76.2c16.6,16.6,50.1,4.8,76.2,5.1c66.8,0.8,67,0.3,80.1-64.9
		c35.2-175.2,33.6-347.9-37.8-515.2C2002.8,785.8,1964,728,1906.8,671.9z M1755.3,555.9c0,271.1,0,536.8,0,802.4
		c0,76.6,0.1,75.8,77.5,73.5c18.9-0.6,22.4-7.5,22.3-24.3c-0.4-255.1-0.3-510.2-0.3-765.3c0-9.4,1.4-19-7.6-26
		C1819.1,594.6,1790.6,573.5,1755.3,555.9z"/>
	<path class="st0" d="M1514.5,2413.2c-80.1,0-145.4-65.3-144.9-144.9c0.5-79.6,66.7-145.4,145.9-144.9
		c80.1,0.5,144.3,65.5,144.1,145.9C1659.4,2350.5,1596.2,2413.2,1514.5,2413.2z M1423.4,2270c0.5,51.1,43.1,92.5,93.7,91.2
		c49.7-1.3,90.3-42.4,90.6-91.8c0.4-50.3-42-92.3-93-92.2C1462.5,2177.3,1422.9,2217.6,1423.4,2270z"/>
	<path class="st0" d="M1863.3,1944.1c53.5,0.1,94.1,40.5,94.1,93.6c0,52.3-42.2,94.7-94.1,94.7c-51.1,0-94.6-43.4-94.7-94.5
		C1768.5,1986,1810.9,1944,1863.3,1944.1z M1855.9,2078.1c26.5,2.3,49-15.6,49-38.1c0-24.3-13.1-39.8-37.4-43.5
		c-22.7-3.5-44,15.2-44.8,38.6C1822,2060.1,1835.5,2073.9,1855.9,2078.1z"/>
	<path class="st0" d="M1989.1,2527.2c-0.1,51.9-42.7,94.8-94.3,94.8c-50.6,0-94.7-44.4-94.5-95.3c0.2-51.1,43.9-94.7,94.8-94.6
		C1946.9,2432.3,1989.1,2475,1989.1,2527.2z M1936.9,2526.2c-0.5-22.9-20.6-41.7-44.3-39.8c-24.9,2-38.5,16.6-38.2,41.6
		c0.4,25.3,15.8,38.6,40,40.3C1917,2569.8,1937.4,2548.6,1936.9,2526.2z"/>
	<path class="st0" d="M1235.3,2054.6c0.1,55.8-36.4,92.7-91.9,92.9c-55.9,0.2-92.7-36.3-92.8-91.9c-0.1-55.9,36.3-92.7,91.8-92.8
		C1198.4,1962.7,1235.2,1999.1,1235.3,2054.6z M1184.1,2054.7c-0.2-23.3-18.9-41.8-42.3-40.5c-24.5,1.4-38.3,15.3-39.7,39.7
		c-1.4,23.3,17.3,42.1,40.5,42.3C1165.8,2096.5,1184.3,2078,1184.1,2054.7z"/>
	<path class="st0" d="M1255.8,2579.1c0.1,53.3-40.5,93.8-93.9,93.8c-53.4,0-93.9-40.6-93.8-93.9c0.1-50.3,40.2-92.4,88-92.7
		C1214.9,2486,1255.7,2524,1255.8,2579.1z M1203.1,2579.4c0-24-17.9-41.2-42.8-40.3c-25.6,0.9-38.7,15.7-39.1,40.3
		c-0.4,25.3,15.1,38.7,39.2,40.9C1183.7,2622.5,1203,2602.9,1203.1,2579.4z"/>
</g>
</svg>
