<?xml version="1.0" encoding="utf-8"?>
<!-- Generator: Adobe Illustrator 23.0.0, SVG Export Plug-In . SVG Version: 6.00 Build 0)  -->
<svg version="1.0" xmlns="http://www.w3.org/2000/svg" xmlns:xlink="http://www.w3.org/1999/xlink" x="0px" y="0px"
	 viewBox="0 0 3000 3000" style="enable-background:new 0 0 3000 3000;" xml:space="preserve">
<style type="text/css">
	.st0{fill:none;stroke:#000000;stroke-miterlimit:10;}
	.st1{stroke:#000000;stroke-width:10;stroke-miterlimit:10;}
</style>
<g id="Layer_1">
</g>
<g id="Layer_2">
	<path class="st0" d="M911.6,1229"/>
	<g>
		<path class="st1" d="M611.2,1875.4c-97.5-18.7-172.3-68.6-217-158.7c-23.1-46.5-35.7-96.4-41.5-147.9
			c-26.6-235.4-28.7-471.6-23.5-708c1.8-81.8,5.6-163.5,11.5-245.2c7.3-101,53.7-184.2,116.2-259.4
			c158.4-190.8,364.6-274.9,610-263.7c129.2,5.9,248.3,46.6,355,121c7.2,5,12.9,11.9,23.7,3c81.3-66.8,177.3-93.2,280.2-100.9
			c113.2-8.5,226.5-16.7,340.2-12c112.8,4.7,224.9,12.7,335.1,41.3c142.3,36.9,202,131.7,209.8,268.8c4.2,74-1.1,147.8-4.5,221.7
			c-7.3,159.6-15.3,319.1-23.2,478.6c-5.9,118.7-12.1,237.3-18.2,355.9c-3.1,60.6-8.1,121.3-8.4,181.9
			c-0.3,50.6-23.9,80.9-68.3,100.5c-72,31.8-145.6,58.4-221.9,77.7c-75,19-151.4,29.5-228.4,36.6c-5.8,0.5-11.5,1.4-22,2.7
			c41.6,37,37.9,83.9,38.1,129.8c0.1,17.2,2.3,34.4,11.5,49.6c10.9,18.1,25.6,19.6,40.5,5c14.8-14.7,20.1-33.6,24.6-53
			c4.4-18.6,7.6-37.5,15.6-55.1c24.7-54.5,79.7-79.5,136.2-59.8c67.8,23.7,99.9,77.1,105.9,144.5c10,111.8-44.8,190.2-138,245.4
			c-24.2,14.3-24.5,13.7-4.8,33.1c138.6,136.2,107.1,362.5-66.8,457.4c-121.5,66.4-252.8,92.6-390.3,66.3
			c-119.7-22.9-213.1-85.4-268.6-197.4c-18.5-37.2-25.9-77.3-27-119.6c-11.3,3.1-21.7,6.9-32.4,8.5c-8.5,1.3-6.8,6.5-6.5,11.3
			c2.6,54.1-21.5,94-66.2,122.2c-8.9,5.6-9.1,10.2-5.6,18.9c43.5,111-40.9,226.2-157.6,230.2c-43.5,1.5-83.5-10.9-118.7-36.9
			c-6.8-5-11.4-8.1-19.7-0.8c-107.7,94.8-232.5,108.2-365.5,72.6c-97.1-25.9-182.9-72.9-244.3-155.4
			c-92.1-123.8-65.1-311.7,55.9-398.5c16.1-11.5,33.6-20.2,52.3-28.5c-1.7-2.3-2.5-4.4-4-5.2c-80.6-44.5-109.3-129.9-94.9-215.2
			c16.1-94.7,66.4-174,119.6-251.5C607.7,1884.5,611.7,1882.5,611.2,1875.4z M1688.8,1823.8c33.1-2.7,62.3-5.5,90.5,0.7
			c26.3,5.8,52.3,6.1,78.6,5.1c89.7-3.4,179.2-9.2,268.2-22c15.2-2.2,18.4-4.8,14.4-20.3c-24.2-92.3-47.6-184.8-70.6-277.5
			c-10.6-42.8-19.5-86.1-29.7-129c-6.7-28.4-17.9-38.8-40.8-36.3c-37.6,4.1-75.2,2.8-112.8,2.9c-42.3,0-33.7,2.3-33.2-36.9
			c0.1-11.1,4.8-12.9,14.5-12.4c42.9,2.2,85.7,1.1,128.6-1.7c45.6-3,75.7,19.3,87.7,63.4c10.4,38.1,17.9,77,27.5,115.4
			c25.5,102.2,51.5,204.4,77.3,306.5c2,7.8,2.8,15.6,14.8,13c97.1-20.9,191-51,280.2-94.9c15.8-7.8,22.7-21,23.4-38.3
			c2.6-58,5.4-116,8.2-174c7.2-149,14.5-297.9,21.7-446.9c4.6-94.3,9-188.5,14.1-282.8c0.9-15.9-1.7-21.2-19.9-19
			c-94.5,11.6-178.3-33.6-214.1-121.5c-45.9-112.5-39.9-225.5,11.6-335.7c15.1-32.3,36-61.1,60.1-89.6
			c-59.9-16-118.4-24.5-177.4-30.6c-14.7-1.5-17.8,2.6-18.2,16.1c-4.6,142.5-9.6,285-14.6,427.4c-2.4,66.6-5.2,133.2-7.5,199.8
			c-0.3,9.1-2.8,13.5-12.5,12.3c-5.9-0.7-12-1.1-17.8-0.4c-15,2-18.9-3.8-18.2-18.7c2.4-50.1,3-100.3,4.7-150.4
			c5.6-159,11.4-317.9,17.6-476.9c0.5-12.5-3.6-15.4-15.4-16.1c-152.7-9.2-304.8-2.1-456.4,16.3
			c-157.6,19.1-315.1,155.1-356.3,305.7c-11.3,41.5-16.8,84-21.7,126.6c-9.6,83.3-13.5,167-17.4,250.7c-6.7,145-14.8,290-18.2,435.2
			c-0.3,11,0,21.9,0,32.7c6.9,1.3,10.3-2.5,14-4.7c91.7-54.8,189.9-85.6,297.7-87.2c91.9-1.3,165.9,45.8,202.3,130.6
			c37.1,86.3,36.1,172.9,10.6,261.1C1764.2,1692.6,1730.8,1757.4,1688.8,1823.8z M1223,917.1c-10.7,3.1-16.8,21.2-27.4,17.3
			c-10.4-3.9-17.3-17.3-25.7-26.6c-4-4.4-8.1-8.8-11.6-13.5c-5.2-7.1-9.9-8.9-17.5-2.2c-29.2,25.7-58.8,51.1-88.6,76.2
			c-7.6,6.4-6.9,10.7-0.4,17.3c14.9,15,29.1,30.6,43.6,46c26,27.6,25.8,27.3-3.5,52.2c-6.7,5.7-9.7,5.3-15.5-1.1
			c-19.5-21.5-40.2-41.9-59.7-63.5c-7.6-8.4-12.5-10.5-22-1.8c-27.4,24.8-55,49.4-84.2,72.1c-16.1,12.5-14.2,19.8-0.3,32.2
			c21.1,18.8,20.4,19.8,3.3,36.7c-20.4,20-15.4,19.6-35.8-0.6c-3.8-3.7-7.9-7.1-11.1-11.3c-6.6-8.6-12-8.8-20.5-1.2
			c-24.5,22.1-50.9,42.1-74.7,64.9c-14.2,13.6-24,16-34.5-2.1c-1.3-2.2-3.3-4.2-5.2-5.9c-10.8-9.2-8.7-16.2,1.8-24.7
			c26.6-21.7,52.1-44.7,78.5-66.6c8-6.7,8.7-11.1,0.7-18.5c-14.1-12.9-28-26.2-40.5-40.7c-8.9-10.4-15.2-8-24.1-0.7
			c-36.1,29.8-72.1,59.9-109.3,88.2c-14.1,10.7-19.8,21.3-14,38.2c3.4,9.9,1.3,16.6-11.4,16.1c-5.1-0.2-10.4,1.7-15.5,2.8
			c-12.7,2.8-20.4,0.7-22.2-15.1c-7.9-68.3-15.1-136.4-8.9-205.3c13-143.6,90.2-236,229.6-269.6c141.4-34.1,284.3-52,429.7-29.2
			c9.7,1.5,14.5,0,14.7-11.3c0.3-15.1,1.4-30.4,4.1-45.3c2.5-13.5-2.5-18.5-15.1-21.3c-192.7-42.8-378.6-23.7-557.7,59.9
			c-48.5,22.7-94,50.6-137.7,81.4c-4.9,3.5-9.2,12.2-18.4,4.7c-25.3-20.8-25.2-33.3,1.3-52c5.4-3.8,10.5-8,16.1-11.5
			C750,541.4,984.4,496.7,1237,551.6c14.2,3.1,17.3-0.6,18.4-12.6c10.3-106.7,61.5-193.5,133.1-269.9c9.7-10.3,8.2-14.3-2.6-21.5
			c-78.5-52.7-164.5-87.5-258-99.6c-259.4-33.5-476.7,45.2-642.7,251c-46.6,57.8-84.8,121.1-93,197.9
			c-11.1,103.9-13.9,208.2-15.1,312.4c-1.7,150.5-5.5,301.1,7.4,451.3c7.5,88,6.8,176.8,27.8,263.4c14.2,58.7,39.2,109.5,81.5,146.1
			c23.5,20.4,46.3,30.5,64.3,38.7c57.2,26.1,110.6,30.7,168.3,35.2c31.7,2.5,55.7,2.7,63.9,2.7c321.5,2.1,395.7,0.5,512.5-8.6
			c19.5-1.5,38.9-3.9,62.5-6.3c-67.3-56-92.5-130.2-111.9-206.9c-8.4-33.2-13.4-67.2-19.7-100.9c-15.7-84.5-25.4-169.3-22-255.6
			c3.5-90.4,7-180.7,11.1-271C1224,970.8,1223,944.1,1223,917.1z M1882.5,2793.8c31.2,0.6,62.1-2.6,92.6-8.3
			c75.7-14.2,149.2-35.2,212.1-81.8c128.9-95.5,127.6-289.5-2.1-382.5c-7.2-5.1-13.4-11.2-24.7-8.2c-45.5,11.8-92,17.5-139,17.7
			c-10.5,0-15,4.3-18,14c-6.3,20.6,1.4,37.6,11.7,54.1c14.1,22.7,25.8,46.4,24.5,73.9c-3.6,72.8-65.6,128.9-138.4,119.3
			c-70.2-9.2-133.1-81.9-116.1-152.1c5.8-23.9,18.4-45.2,22.4-69.4c2.6-15.8,1.4-30.4-10.8-42.1c-18.1-17.3-66.1-21.6-87.1-7.8
			c-28.5,18.8-59.3,31.8-93,37.1c-9.8,1.6-16.9,6-23.3,13.3c-27,30.7-40.1,68.7-47.4,107c-15.4,81.2,12.1,151.4,68.3,209.8
			C1687.2,2763.5,1779.4,2793.2,1882.5,2793.8z M837.1,2911.1c96.4-1,177.5-28.6,238.6-100.3c56.1-65.8,81.1-139.9,50.2-225.6
			c-20.8-57.7-97.4-100.2-154.8-30c-7.9,9.7-15.5,19.7-23.6,29.2c-13.7,16.1-26.4,33.1-41.7,47.5c-24.1,22.7-52.5,40-87.1,33.6
			c-62.8-11.7-104.8-51.2-128.6-108.7c-14.6-35.4,1.2-60.4,38.9-68.9c19.9-4.5,40.5-6.4,60-12.1c25.1-7.3,37-26.9,34.4-51.1
			c-2.5-23.4-14.8-36.3-42-39.5c-51.7-6-102.6,0.7-153,12c-44.2,9.9-80.1,33.4-108,68.7c-79.8,100.7-63,252.9,38,338.2
			C639.8,2872.9,735,2907.4,837.1,2911.1z M1552.4,1824.6c0,0.7,0,1.4,0,2.1c19.8,0,39.6-0.5,59.3,0.2c10.1,0.4,16.8-2,23-10.9
			c46.6-67.1,84.1-138.5,106-217.6c23.3-84.1,20.5-165.7-24.3-243c-26.7-46.1-66.2-72-120.1-75.3c-119.7-7.5-225.7,31-324.2,95.4
			c-9.7,6.3-10,13.8-8.6,23.6c9.9,67.2,18.8,134.6,33.8,200.8c13.5,59.3,30.8,117.4,70.1,166.1c25.8,32,58.7,50.4,99.9,53.1
			C1495.8,1821.1,1524.1,1822.8,1552.4,1824.6z M2005,1977.2c0-4.3,0.4-12.9-0.1-21.4c-2.7-45.7-28.8-65-73.2-54.6
			c-18.9,4.4-35.6,13.5-52.6,22.3c-9,4.7-12.7,9.9-13.5,21c-6.4,95.5-23.6,188.5-68.8,274.2c-4.3,8.2-2.3,11.9,2.8,18.1
			c30.1,35.6,86.3,38.6,86.3,38.6c37.1,4.7,78.8,9.6,139.6,4.5c46.6-3.9,94.5-12.9,131.7-19.9c15.1-2.8,22.6-4.3,25.3-4.9
			c80.6-21.4,121.9-87.4,128.8-98.6c10.2-16.4,18.3-34.8,23.8-55.5c15.4-57.8,7.9-111.6-39.6-153.9c-31-27.7-95.5-30.5-109.7,33.1
			c-2,9-4.9,17.8-6.7,26.8c-5.5,27.5-14.6,53.1-32.9,75.2c-38,45.8-100.6,38.2-126.2-15.7C2007.4,2039.5,2004,2010.9,2005,1977.2z
			 M531,2159.1c-0.6,101.3,48.2,158.3,130.3,171.6c67.6,10.9,125.5-11.4,176.1-53.3c94.4-78.2,145.8-181.9,172.9-299.4
			c3.4-14.9,4.9-30,3.7-45.2c-2-23.7-12.6-32.7-36.1-31.7c-26.5,1.1-41,19.9-54.2,38.7c-28.5,40.7-50.2,85.1-67.5,131.7
			c-8,21.7-16.5,43.3-31.1,61.5c-24.9,31.2-66.6,42.8-99.3,28c-29.4-13.3-46-48.6-40.4-87.1c3.2-21.7,13.7-39.5,29.6-54.6
			c21.6-20.5,42.4-42,53.7-70.2c12.9-32.1-0.2-53.9-33.7-57.4c-7.9-0.8-16.2,0.1-23.6-2c-32.5-9.3-52.4,8.5-70.3,31.3
			c-5.7,7.3-11.4,14.6-16.3,22.4c-25.6,40.1-47.9,82-67.8,125.2C541.3,2103,531.3,2139.2,531,2159.1z M1497.6,2003.2
			c0-15.2,0.9-30.4-0.2-45.5c-1.9-27.7-10-53-31.9-72.1c-17.1-15-36.4-14.4-55.6-6.9c-12.6,4.8-19.6,12.7-6.4,26.3
			c11.9,12.3,20,27.8,26.5,43.7c38.9,94.2,34.9,186.5-12.8,276.6c-4.3,8-10.5,14.5-0.2,23.7c43.2,38.9,92.6,62.3,151.3,64.7
			c4.7,0.2,7.9-0.8,14.3-1.9c14.5-2.3,35.9-5.7,60-15.6c24.4-10,40.9-22.3,49.9-29.1c2.5-1.9,29.3-18.6,47.9-47.8
			c40.5-63.7,58.7-135,69.8-208.4c4.9-32.5,9.9-65.4,4.8-98.5c-4-25.7-13.8-33.8-39.2-34c-20.5-0.2-41,0.4-61.4-0.7
			c-43.1-2.3-49.8,0.2-45.3,51.6c0.2,2.6,1,5.2,1.2,7.8c4.3,42.2,5.3,84.3-6.1,125.7c-7.8,28.4-18.6,55.1-43.2,73.6
			c-35.3,26.5-78.4,18.4-103.2-17.4C1493.1,2083.2,1493.6,2043.7,1497.6,2003.2z M1025.9,2093.7c-21.4,50-44.8,93.5-74.5,133.3
			c-7.8,10.5-0.6,15.3,5,21.5c84.6,93.3,221.8,112,330.2,45c104.5-64.5,148.6-196,104.6-311.6c-8.3-21.7-18.3-42.3-36.5-57.9
			c-20.1-17.3-39.9-15-55.8,6.1c-12.4,16.4-17.5,35-19.1,55.1c-2.9,36-2.1,72.5-15.4,107.2c-23.9,62-99.3,96.8-161.5,74
			C1068.3,2153.7,1044.2,2129.6,1025.9,2093.7z M2562.6,527.1c0.2-44.1,5.4-106.2-7.5-167.5c-13.2-62.8-43.4-114-102.8-144.2
			c-9-4.6-14.9-4.3-21.8,3.9c-18.4,21.7-35.5,43.9-49.7,68.7c-46.4,81.5-52.8,168.8-35.5,258.4c20.2,104.9,86.5,153,192.2,143.5
			c12.9-1.2,18-4.8,18.4-18.8C2556.9,629.1,2559.7,587,2562.6,527.1z M824.1,2346c3.8,3,5.6,4.6,7.6,6
			c33.6,23.4,44.7,56.5,38.6,95.2c-6.1,38.7-29.6,64.2-67.4,74.9c-16.4,4.7-33.4,7.4-50.3,10.1c-20.1,3.2-21.2,4.9-10.4,23
			c11.1,18.4,25.6,33.5,43.2,45.7c36.8,25.4,61.8,23.3,92.2-9.9c22.2-24.3,42-50.9,64.1-75.4c49.7-55.1,122.9-60.5,181.3-14.6
			c14.1,11.1,24.1,25.7,36.8,40.4c-8.8-80.9,25.6-129.7,101.3-146c12.1-2.6,29.5-0.1,35.2-7.3c5.8-7.3,0.3-23.7-0.4-36.1
			c-0.1-1.7-1.1-3.3-2-6.1c-37.9,19.3-77.3,32.5-119.1,35.3c-98.7,6.6-182.4-26.5-251.6-97c-4.3-4.4-7.3-14-16.4-4.3
			C882.8,2305.4,855.8,2327.3,824.1,2346z M1268.2,1889.8c-70,4.1-135,8.2-200.2,8.9c-7.3,0.1-11.6,2.1-9.5,10.3
			c10,38.6,0.9,75.7-8.7,112.9c-4.5,17.4-3.3,14.8-3.3,19.1c0.3,35.1,35.8,77.8,82.6,82.8c34.8,3.7,70.1-13,84.8-38.7
			c11.1-19.4,13.2-41,14.4-62.9C1230.7,1976.6,1232.3,1930.8,1268.2,1889.8z M1216.2,2858.1c43.3,1,77.9-16.5,104.5-49.9
			c31.6-39.6,32.8-98,3.4-138c-26.9-36.5-78-51.1-122.4-35.2c-8.8,3.2-13.6,6.6-13.8,17.8c-1.2,58.8-18.4,112.8-52.7,160.7
			c-7.6,10.6-5,15.5,4.6,21.5C1163.3,2849.4,1188.5,2857.8,1216.2,2858.1z M1849.8,2318.7c13.7,36.7,6.1,69-6.7,100.8
			c-3.2,7.9-6.4,15.9-8.7,24.1c-10.8,38.4,12.4,79,54.2,95.4c38.2,14.9,76.5-0.2,94.9-37.5c12.7-25.7,8.4-49.8-6.9-72.9
			c-17.7-26.7-28.7-55.2-21.5-87.8c2.3-10.2-2.1-10.6-9.8-10.9C1914.3,2328.7,1883.5,2325.9,1849.8,2318.7z M1295.8,2441.1
			c-20.3-1.7-39.7,3.9-57.8,14.2c-24.7,14-36.1,39.2-31,67c6.3,33.7,25.1,54.5,53.8,59.1c29.3,4.6,55.8,15.3,78.3,34.9
			c4.9,4.3,9,8,17.2,4.4c30.3-13.2,53.1-51.1,49.6-83.3C1401.3,2496.1,1350.2,2435.3,1295.8,2441.1z M1443.5,2478.7
			c23.4,0.3,52.5-21.8,62.4-47.8c7.7-20.3,14.5-40.9,26.8-59c5-7.4,6.8-12-5.3-14.1c-44.3-7.6-83.9-26-119.4-53.4
			c-4.2-3.2-8-6.3-14.1-5.5c-18.5,2.4-41.3,24.6-47,46.3c-6.2,23.8,1,52.1,18.3,62.3c27.2,16,47.7,38.4,66.1,63.2
			C1434.5,2475.1,1436.9,2480,1443.5,2478.7z M1520.9,1874.8c26.4,40.5,27.1,86.1,24.5,132.5c-1.1,19-3.2,38.4,0.7,57.1
			c3.6,17.1,11,34.4,30.6,37.1c19.4,2.6,26.7-14.3,32.8-28.6c12-28.2,15.8-58.1,15.5-88.7c-0.4-34-10.8-67.8-2.8-102.1
			c2.2-9.5-5.6-7.2-9.9-7.2C1582.8,1874.7,1553.2,1874.8,1520.9,1874.8z M884,878.8c-21.1-22.3-41.1-43.2-60.8-64.4
			c-5.6-6-9.4-9.1-17.2-1.7c-32.5,30.7-65.6,60.9-99,90.7c-6.2,5.6-5.8,8.7-0.5,13.9c17.4,17.1,34.6,34.3,51.7,51.7
			c4.5,4.6,8.1,5,13.3,0.7C808.7,939.5,846.1,909.4,884,878.8z M992.3,720.2c-31.2,4.8-62.6,8.8-93.6,14.6
			c-20,3.8-30.2,22.3-44.3,34.8c-5,4.4,1.5,8.1,4.3,11.1c18.4,19.8,37.4,39.1,55.3,59.2c6.7,7.5,11,6.2,17.7,0.6
			c31.5-25.9,63.4-51.4,95.1-77.2c3.2-2.6,8.4-4.3,6.7-10.6C1030.7,742.2,1002.9,720.6,992.3,720.2z M971.1,973.1
			c-1.4-2.4-2.2-4.3-3.5-5.7c-14.9-15.9-29.9-31.6-44.7-47.7c-5.2-5.7-8.8-2.7-13.2,0.8c-33.8,27.4-67.6,54.9-101.6,82
			c-6.7,5.3-7.8,9.1-1.1,15.4c15.3,14.6,30.3,29.5,44.8,44.8c6.4,6.8,10.6,4.6,16.4-0.4c31.8-27.7,63.9-55.2,95.8-82.8
			C966.5,977.5,968.8,975.3,971.1,973.1z M1011.6,938.3c1.4-1.1,3.6-2.5,5.5-4.2c31.1-26.5,62-53.1,93.2-79.4
			c6.1-5.1,5.5-8.9,0.3-14.4c-12.1-13-24.2-26.1-35.2-40.1c-5.8-7.3-9.8-5.9-15.6-1c-31.6,25.8-63.4,51.5-95,77.3
			c-2.4,2-5.2,4.4-6.2,7.2C957.3,887.5,1006.4,938.5,1011.6,938.3z M894,1897.5c-25.2,0-44.9,0.5-64.5-0.2
			c-9.7-0.3-10.8,3.4-9.3,11.7c6.4,34.7-5.6,64.8-24.6,92.9c-14.1,20.9-33.2,37.5-49.9,56.1c-10,11.1-14.4,23.5-12.2,38.1
			c3,19.5,15.4,26.8,34.2,20.6c19.1-6.3,27.1-22.9,33.5-39.2C825.4,2016,851.5,1955.8,894,1897.5z M615.8,1095.5
			c36.2-29.1,68.8-55.6,101.8-81.6c8.4-6.6,6.3-10.8-0.2-16.8c-10.2-9.4-19.7-19.4-29.4-29.2c-24.8-24.8-25-25.1-50.9-0.3
			c-8.3,7.9-21.4,13.2-22.6,26C611.4,1026.2,612.8,1058.9,615.8,1095.5z M1169.4,719c-2,0-4.2-0.7-5.9,0.1
			c-20.6,9.5-36,26.1-53,40.3c-4.3,3.6,0.3,7.1,2.7,9.9c11.7,13.4,23.5,26.7,35.3,40c3,3.4,5.8,7.3,11,2.7
			c24.3-21.2,49.5-41.5,72.7-63.8c9.9-9.6,4.1-20.8-9.9-22.8C1204.8,723.1,1187.1,721.1,1169.4,719z M664.7,874.2
			c2.4-1.5,4.8-2.5,6.7-4.2c34.6-31.5,69-63.1,103.5-94.8c2.4-2.2,5.3-4.7,2.5-8.2c-2.4-3-5.9-2.5-9.1-1.4
			c-47.5,16.6-86.4,44.5-113.1,87.9C648.3,864.8,658.4,868.2,664.7,874.2z M1227,898.4c1.5-29.9,2.8-54.3,4.3-83.1
			c-14.6,12.3-26.3,22.3-38.2,32.1c-5.5,4.5-4.6,8.2-0.3,12.9C1203.4,871.7,1213.6,883.4,1227,898.4z"/>
		<path class="st1" d="M1947.5,806.6c-24.5,23.1-47.3,45-70.6,66.2c-8.6,7.8-3.4,12.6,2.1,17.4c10.9,9.6,11.4,17.9-1.7,25.9
			c-3.9,2.4-7.3,5.8-10.3,9.2c-7.7,8.9-15.1,12.3-22.5-0.2c-7.6-12.8-14.8-8-23-0.1c-37.6,36.1-75.8,71.6-113,108
			c-8.7,8.5-15.3,10.1-20.8-0.8c-5.8-11.3-29.8-15.2-15.1-35.5c0.6-0.8-2-4.5-3.5-6.4c-15.1-18.2-30.3-36.3-47.1-56.4
			c-6.9,7.9-13.2,13.9-18.1,20.8c-11.5,16.2-20.8,15.6-33.8,0.3c-16.4-19.3-17.6-18.3,0.6-36.4c21.2-21.2,21.6-21.5,1.3-43.9
			c-12.2-13.5-22-38.8-36.7-37.9c-14,0.9-26.9,22.9-39.8,36.1c-19.7,20.3-38.1,41.5-70.4,41.7c-11.3,0.1-17-0.1-18.3-12.9
			c-20.3-207.6,80.2-375.6,263.5-458.7c96.8-43.9,195-16.9,255.4,70.6c73.6,106.5,90.8,225.4,62.3,351.2c-1.9,8.3-4.6,11.5-14.9,8.6
			c-34.7-9.8-34.8-9.1-27.5-43.1C1947.3,823.7,1950.8,816.9,1947.5,806.6z M1537.7,760.5c4.3-3.5,6.5-5,8.3-6.8
			c24.3-24.2,48.5-48.5,73-72.5c5.5-5.3,3.1-8.5-0.7-12.9c-21-23.6-42.1-47.3-62.7-71.2c-6.1-7.1-10.2-6.2-15.1,0.8
			c-18.9,26.9-38.6,53.4-52.8,83.4c-3.9,8.2-3.9,14.1,2.4,21.1c14.1,15.7,27.4,32.1,40.9,48.3
			C1533.5,753.7,1535.4,757.1,1537.7,760.5z M1733.1,566.5c-2.1-2.9-3.4-5.1-5.2-7c-17.3-19-34.9-37.7-51.9-57
			c-6.2-7.1-11.2-3.8-17.1-0.5c-23.2,12.8-44,28.8-64.7,45.2c-9.8,7.7-7.9,12.3-1,19.9c19.5,21.5,38.8,43.1,57.5,65.2
			c6.5,7.7,10.7,6.8,17.2,0.2c18.9-19.3,38.5-37.9,57.7-56.9C1728.3,572.9,1730.5,569.7,1733.1,566.5z M1628.2,860.9
			c2.5-2.3,5.4-4.9,8.2-7.7c15.4-15.4,30.8-30.7,46.2-46.1c30.2-30.2,30.2-30.2,2.8-62c-6.9-8-14.1-15.7-20.7-23.9
			c-5-6.3-9-8-15.6-1.3c-23.5,24.1-47.4,47.7-71.4,71.2c-5.6,5.5-4.8,9.4-0.1,14.9c13.8,15.9,27.2,32.2,40.9,48.3
			C1620.9,857,1622.7,861,1628.2,860.9z M1800.5,877.7c-1.1-2.3-1.6-4.3-2.9-5.7c-15.6-17.8-31.4-35.4-47-53.2
			c-5.4-6.2-8.8-2-12.5,1.8c-24.1,24.2-48.2,48.5-72.6,72.4c-5.9,5.7-6.5,10-0.8,16.4c13.1,14.7,25.9,29.7,38,45.2
			c6.1,7.9,10.2,7.4,17,0.9c24.5-23.8,49.5-47.1,74.3-70.6C1796.3,882.6,1798.3,880.1,1800.5,877.7z M1917.3,767.4
			c-18-19.9-35.6-38.7-52.5-58.1c-5.8-6.6-9.4-6.6-15.5-0.3c-19.7,20.4-39.8,40.6-60.3,60.2c-7.5,7.2-7.1,12-0.2,19.3
			c13.6,14.4,26.7,29.3,39,44.7c7.5,9.3,12.8,8,20.5,0.4C1870.4,811.8,1893.1,790.6,1917.3,767.4z M1822.3,664
			c-0.7-1.1-1.2-2.4-2.1-3.3c-15.9-17.5-32-35-47.9-52.6c-5.6-6.1-9.2-1.5-12.9,2.2c-20.1,20-40,40.2-60.3,59.8
			c-6.2,6-5.9,10-0.2,16.2c13.9,15,27.4,30.2,40.2,46.1c7,8.6,11.5,7.1,18.4,0c18.7-19.5,38.1-38.3,57.1-57.5
			C1817.7,671.8,1822,669.2,1822.3,664z M1909,576.7c-6.8-10.7-13.5-22.7-21.4-33.9c-24.9-35.3-25.1-35.2-54.9-5.6
			c-2.8,2.8-5.6,5.6-8.4,8.3c-22.8,22.7-23.2,23.1-0.3,46.8c11.7,12.1,21.3,35,35.3,33.9c13.1-1,24.8-21.1,36.8-33.2
			C1900.7,588.7,1906.7,585.2,1909,576.7z M1719.9,479.1c17,17.8,33.1,34.7,49.3,51.6c14.2-13.7,28.4-27.4,42.5-41.2
			c1.2-1.2,1.6-3.2,2.4-4.9C1785.4,470.5,1755,468.4,1719.9,479.1z M1929.5,628.4c-12.2,12.5-22.1,22.7-32.1,32.9
			c-2.9,3-5,6.1-1.4,10.1c17,18.4,33.9,36.9,54.6,59.4C1947.5,692.9,1941.2,662,1929.5,628.4z M1464.6,751.9
			c-6.1,30.1-12.4,58.9-10.4,90.2c54.1-40.3,55.1-46.6,15.2-88.7C1469,753,1468.2,753,1464.6,751.9z"/>
	</g>
</g>
</svg>
