<?xml version="1.0" encoding="utf-8"?>
<!-- Generator: Adobe Illustrator 23.0.0, SVG Export Plug-In . SVG Version: 6.00 Build 0)  -->
<svg version="1.0" xmlns="http://www.w3.org/2000/svg" xmlns:xlink="http://www.w3.org/1999/xlink" x="0px" y="0px"
	 viewBox="0 0 3000 3000" style="enable-background:new 0 0 3000 3000;" xml:space="preserve">
<style type="text/css">
	.st0{stroke:#000000;stroke-width:10;stroke-miterlimit:10;}
</style>
<g id="Layer_1">
</g>
<g id="Layer_2">
	<g>
		<path class="st0" d="M1498.7,2934.7c-170.2-10.7-376.1,13.2-581.9-1.5c-99.5-7.1-198.4-18.5-295-45.1
			c-84.5-23.3-158.1-65.4-221.6-125.4c-116.1-109.7-142-277.1-69-435.4c23.3-50.5,58.7-91.7,95.2-132.6
			c22.9-25.7,21.7-38.6-9.9-50.1c-133.6-48.8-144.8-148.7-119.1-270.5c19-90.2,72-161.6,126.4-232.1c15.2-19.8,18.3-31.3-1-52.5
			c-96.9-106.4-153.1-229.3-140-377c6.3-72,30.2-140.1,49.1-209.2c41.3-150.6,35.5-300.6-1.3-451.1
			c-45.8-187.6,55.1-363.8,234.9-407.8c134.3-32.9,244.7,12.8,333.8,114c15,17.1,22.1,21.1,41.9,5.7
			c114.4-88.6,246.4-128.4,389.1-144.3c224.4-25,449.3-26.8,674.5-24.3c105.1,1.2,210,5.7,313,30.4
			c259.2,62.3,443.9,285.5,454.8,551.8c6,146-7.1,291.5-15.8,436.9c-12.6,211.9-27.6,423.7-29.9,636.1c-0.1,9.6-1.1,19.3,4.9,27.9
			c58,82.3,55.5,178.3,59.9,272.1c5.1,109.3,3.2,218.7-5.6,327.9c-1.1,14.2-4.2,27.4-9.7,40.3c-70.9,168-180.5,305.1-327.6,412.8
			c-85.9,62.9-184.7,82.4-287.5,88.5C1952.5,2932.6,1743.4,2933.6,1498.7,2934.7z M2538.4,300.5c-71.3-60.2-142.7-101-225.4-121
			c-73.2-17.7-147.7-25-222.9-27.6c-280.1-9.6-560-9.1-837.5,34.2c-154.6,24.1-286.1,95.3-379,226c-58.1,81.7-76.7,177.1-92.9,274.1
			c-43.6,261.4-26.4,521.3,11.9,781.2c3.1,20.8,12.5,24.7,31.5,24.7c79.4-0.2,158.7,1.7,238.1,1.8c20.8,0,30.8,4.4,30.3,28.7
			c-0.5,23.8-9.5,27.8-30.6,27.3c-117.9-2.6-235.9-4.5-353.9-5.7c-81.4-0.8-150.5,28.7-206.5,88c-41.4,43.9-75.2,93.5-107.1,144.4
			c-38.1,60.7-53.8,127.7-54.2,198.9c-0.2,47.6,20.7,81.9,63.5,103c18.2,9,37.2,17,54.3,27.7c39.7,25,48.9,66.7,22.6,105.2
			c-12.6,18.5-28.6,34.7-43.1,51.9c-84.7,100.6-116,215.5-77.2,341.7c35.4,115.2,129.1,176.3,234.8,217
			c114.1,43.9,235.6,57,356.6,58.6c249.8,3.2,499.7,0.1,749.6,0c19.1,0,35.4-5.3,51.3-15.3c104.3-65.1,184-153.1,243.2-260.2
			c14-25.4,26.1-52.7,29.2-80.6c15.1-136.9-11.3-264.5-94-377.4c-13.2-18-24.1-38.2-44-50.5c-79.4-48.6-163.5-77.5-258.8-71.2
			c-173.6,11.4-284.3,220.1-194.7,369.8c15.9,26.6,31.1,53.7,47.5,80.1c11,17.7-4.8,21.4-13.9,24.5c-9.5,3.2-17,24.6-30.9,5.5
			c-62.8-85.8-100.1-177.3-78-287.4c22-109.8,78-191.2,185.4-227.1c156.4-52.2,292.3,0.2,417.8,93.1c3.4,2.5,7,5.9,8.3,9.7
			c14.9,46.3,48.3,82.9,66.1,127.8c49.5,125.2,72.3,253.3,19.3,381.5c-41.5,100.3-111.4,182.4-195.3,251.8
			c-6.6,5.5-18,7.8-17.3,22.1c116.1-2.4,231.6-2.3,346.9-13.1c75.6-7.1,148.6-21.5,212.5-65.4c147-101.1,254.6-234.3,324-398.5
			c4.9-11.5,6.4-24.9,7.4-37.6c10.8-129.6,6-259.2,1.5-389c-4.4-126.3-64.9-213.7-170.6-275.6c-57.7-33.8-118.7-59.8-183-76.9
			c-28.2-7.4-16.2-22.6-14.2-38.4c2.8-21.3,14.1-18.6,29.3-13.9c94.8,29.3,185.7,66.2,262.9,130.8c4.1,3.4,8.1,7.4,13.6,3.1
			c4.3-104.1,7-208.1,13.9-311.8c2.1-31.2-3.1-39.9-35.6-39.3c-187.7,3.5-375.3,4.6-563,6.5c-25.7,0.3-51.4-0.4-77,0.4
			c-13.8,0.4-21.7,5.5-24.1,22.7c-5.4,38.4-25.1,53.4-63.3,53.1c-37.6-0.2-75,2.3-112.4,4.2c-24.8,1.3-30.4,8.5-30.6,33.7
			c-1.4,138.2-61.5,244.8-184.7,308.6c-121.7,63-242,51.9-356.1-24.7c-8.5-5.7-15-15.2-29.9-16.5c0,23.8,1.2,47-0.3,70.1
			c-1.3,20.7,7,24.2,26.2,24c133-1,266-1.7,399,0c52,0.7,93.8-17.2,130.1-52.2c27.2-26.1,51.3-54.9,71.8-86.4
			c12.7-19.6,22.4-7.7,33.2,0.3c9.4,6.9,25.7,10.1,13.1,28.3c-67.3,97.3-144.4,172.5-277.2,165.6c-120.9-6.3-242.3-0.6-363.5-1
			c-20.6-0.1-33.9,1-34,28c-0.2,31.5-19.4,55.5-42.3,76.4c-20.4,18.6-43.8,33.3-61.1,56.4c-12.2,16.3-32.4,2.6-45.9-4.2
			c-13.1-6.5-1.1-18.9,3.5-27.1c12.9-22.9,33.4-38.9,54.1-53.9c29.4-21.3,42.6-48,41.3-85c-2.1-61.1-1.1-122.3-0.7-183.4
			c0.1-15.6-3.9-28.9-11.8-42.4c-55.8-96-62.6-196.5-24.6-300.1c6-16.3,4.5-27.1-6-40.7c-40.2-52-72.6-108.7-96.4-170.1
			c-104.2-269-33.1-555.6,246-686.1c203-94.9,443.8-70.7,608.4,73c266.4,232.6,264.2,609.9-7.8,835.1c-5.1,4.2-13.7,6.5-13.3,17.2
			c21.7,0,42.9-0.3,64.1,0.1c11.2,0.3,16.7-3.3,20.3-15c15.8-51.3,29.7-60.9,82.2-61.4c215.6-2,431.1-4.6,646.7-5.9
			c20.5-0.1,28.5-5.8,29.1-26.4c0.9-33.2,2.7-66.5,6.4-99.4c2-18.3-4.5-27.1-20.7-34c-70.7-30.1-141.1-31.9-212.1-1.4
			c-98.1,42.2-197.9,40.9-298.3,9.6c-11.3-3.5-34.4-0.1-23.9-26.6c7.5-19,10.8-34.6,39.5-25c92.9,31.1,184.9,26.9,275.7-12.4
			c68.8-29.8,140.1-30.3,210-3.9c29,10.9,39,5,36.9-25c-0.5-6.4-0.3-13,0.8-19.3c4.8-26.7-4.7-34.8-32.4-32.4
			c-65.7,5.6-128.6-7-183.8-44.8c-80.7-55.2-167.2-63-257.2-31.8c-30.1,10.4-31.4-9.5-39.1-25.4c-10.7-22.2,9.8-23,20.9-26.4
			c102-32.1,200.9-28.9,292.7,31.6c54.2,35.7,113.1,49.5,177.2,44c12.7-1.1,27.1-0.5,27.1-19.6c0-64,0-128.1,0-192.6
			c3,0.2,0.6-0.6-1.2,0c-10.1,3.4-20.2,7.1-30.3,10.7c-88.1,31-176.8,39.2-268,11.8c-79.7-24-161.5-34.7-244.3-19.7
			c-28.4,5.1-25-12.7-28.8-29.2c-4.6-20.1,5-22.4,21.7-24.9c92-14,181.7-3.2,270.1,23c92.3,27.4,180,10.8,266.2-25
			c13.8-5.7,19.5-12.6,18-28.8c-6.2-67.9-21.4-132.9-51.9-194.4c-10.6-21.4-19.2-28.1-42-13.5c-39.1,25.1-82.3,40.3-129.8,42
			c-48.2,1.7-85.7-23-124.3-46.2c-82.8-49.8-169.4-45.5-241,16c-26.2,22.6-32.6-1.9-45-12c-18.3-14.9,1.3-22.3,9.1-29
			c89.6-78.1,199.2-83.1,315.6-15.1c78.9,46.1,134.4,41.9,208.7-15.8c-13-28.3-32.4-40.1-65.7-35.4c-46.9,6.7-94.2,0.4-140.5-10
			c-71.9-16.2-143.1-36.6-215.7-48.4c-85.1-13.8-170.9-20.9-210.6,85.1c-5.9,15.8-27.3,5.9-41.4,5.7c-15-0.2-8.7-13.6-10.9-22
			c-9.1-34.6,26.9-41.3,38.3-63.3c17-32.7,46.4-48.9,81.5-56.8c82.1-18.5,161.8-3.5,241.4,15.6
			C2370.9,276.9,2447.2,303.6,2538.4,300.5z M1095.7,1176.4c94.4-134.9,242.2-170.6,359.8-162.7c112.5,7.5,214.7,46.9,314.6,94.4
			c54.3,25.8,107,54.8,145.3,103.5c15.4,19.5,19.3-1.2,23.8-8.3c148.5-235.1,84.5-521.5-169.2-682.6
			c-133-84.5-281.1-88.5-429.5-37.8C1051.2,581.8,931.4,919.6,1095.7,1176.4z M1151.2,1476.6c-0.2,161.4,127.4,288.7,289.9,289
			c156.4,0.3,285.4-128.9,286.3-287c0.9-158.4-128.9-289.1-287.4-289.4C1280.3,1188.8,1151.4,1317.1,1151.2,1476.6z M627.2,1498.2
			c-116.9-118-131-255.4-93.2-403.3c47-184,67.8-370.2,58-560.3C587.7,453,558.4,389.7,484.2,351c-15.2-7.9-30.7-15.4-45.3-24.2
			c-16.7-10-28.1-8.8-39.1,9.4c-33,54.4-39.8,111.6-23.8,172.6c30.5,116.6,44.9,234.7,35.5,355.5c-7.2,92.6-34.8,180.5-59.8,268.9
			c-47,166.9,5.5,305.2,116.8,428.2c7.7,8.5,14,15,26.1,4.3C531.2,1533.4,574.7,1513.2,627.2,1498.2z M453.2,273
			c22.6,12.3,45.4,23.7,67.3,36.8c70.6,42.2,114.5,102.7,121.3,186c4.2,51.2,6.6,102.7,6.7,154c0.3,161.7-28.8,319.3-65.8,476
			c-32.1,135.9-9.8,256.7,102.1,352.6c17.1,14.6,33.4,16.1,48.1,11c16.5-5.7,6-24.6,3.7-36.6c-16.7-89.6-21.5-180.5-29.4-271
			c-14.5-166.2-5.1-331.5,19.1-496.4c16.8-114.5,42.9-225,114.4-319.8c41.5-54.9,41.2-55.2-10.3-102.7c-3.1-2.9-6.4-5.7-9.6-8.5
			C707.7,158.9,542.9,166.8,453.2,273z M1885.3,1264.4c-8.7-18.9-22.5-35.3-40.1-47.7c-113.9-80.4-239.8-132.6-378.3-148
			c-108.8-12.2-208.5,14.4-289.7,93.1c-18.6,18.1-34,38.8-44.5,62.5c-10.1,23,8.9,37.6,21.9,48.6c11.2,9.5,17.3-9.9,23.9-17.5
			c34.4-39.4,75.2-70.1,122.9-91.1c171.3-75.5,371.5,0.6,448.2,172.3c12.8,28.6,22.8,28.8,45,12.5c27.6-20.4,55.4-40.3,79.4-65
			C1879.1,1278.8,1885.9,1274.5,1885.3,1264.4z"/>
		<path class="st0" d="M2524.8,2137.7c-2,152.8-47.6,283.5-139.7,397.9c-11,13.7-19.5,17.3-32.4,2.9c-10.5-11.7-26.9-16.6-9.1-39.2
			c122-155.3,159.8-329,100.3-518.9c-32.2-102.8-97.8-184.8-181.8-251.3c-19.4-15.4-17.8-25.1-4.8-43.3c15.6-21.9,26.1-9.1,38.4,1
			c119.5,97.9,199.5,219.4,223,374.3C2523,2088.4,2523.2,2116.4,2524.8,2137.7z"/>
		<path class="st0" d="M2278.9,2236.6c3.7,80.1-3.6,158.3-36.7,232.4c-8.7,19.5-18.4,38.5-29.1,57c-17,29.4-32,29.5-54.5,3.8
			c-9-10.2-1.2-15.4,2.8-21.9c83.9-137.8,77.2-286.3,46-435.1c-18.6-88.8-75.7-157-145.4-213.9c-20.5-16.7-19.1-40.2,3.2-55
			c12.1-8.1,17.7,3.2,24.3,8.5c124.5,99.7,192.5,227,189.4,388.9C2278.7,2213,2278.9,2224.8,2278.9,2236.6z"/>
		<path class="st0" d="M720.2,2129.5c-0.4,49.5-32.4,109.4-85.2,159.2c-36.8,34.7-79.9,60.7-123.1,86.6c-20,12-24.1-1.6-30.5-13.6
			c-6.3-12-18.7-22.2,4-34.7c60.2-32.9,119.4-68.5,155.3-130.5c20.9-36.1,31.7-74.7,23.4-116.8c-10.6-53.6-47.2-88.8-101.9-89.3
			c-31.6-0.3-27.8-20.2-29.2-37.6c-2-23.8,17.8-16.9,29.7-16.8C652.1,1936.7,720.1,2010,720.2,2129.5z"/>
		<path class="st0" d="M1542.6,1506.9c-1.1,6.5-2.3,16-4.2,25.4c-10.4,51-43.8,83.4-84,81.6c-38.9-1.8-72.2-39-78.3-88.4
			c-4.3-34.9-0.8-68.4,19.9-98.2c34.6-49.9,94-48.2,126.2,3.3C1536.2,1453.1,1541.2,1477.9,1542.6,1506.9z"/>
	</g>
</g>
</svg>
