<?xml version="1.0" encoding="utf-8"?>
<!-- Generator: Adobe Illustrator 23.0.0, SVG Export Plug-In . SVG Version: 6.00 Build 0)  -->
<svg version="1.0" xmlns="http://www.w3.org/2000/svg" xmlns:xlink="http://www.w3.org/1999/xlink" x="0px" y="0px"
	 viewBox="0 0 3000 3000" style="enable-background:new 0 0 3000 3000;" xml:space="preserve">
<style type="text/css">
	.st0{fill:none;stroke:#000000;stroke-miterlimit:10;}
	.st1{stroke:#000000;stroke-width:9;stroke-miterlimit:10;}
</style>
<g id="Layer_1">
</g>
<g id="Layer_2">
	<path class="st0" d="M1024.2,1866.9"/>
	<g>
		<path class="st1" d="M791.5,2130.9c-82.5-37-155.3-86-235-121.9c-68-30.6-136.4-39.8-207.6-12c-10.9,4.3-22.8,10.1-38.1,6.4
			c33.9-60.9,66.6-121.1,101-180.3c9.1-15.7,9.2-23.5-8.1-32.3c-21.5-10.9-40.4-26.2-56.2-44.9c-38-44.9-29.1-101.8,20.6-133.1
			c22.1-13.9,47.3-20.8,70.7-31.7c30.6-14.2,39.3-30.8,34.4-64.2c-2.9-19.7-10.8-37.7-18.2-55.8c-15.6-38.2-28.8-76.9-23.2-121.6
			c-21.7,6-36.6,18.9-52.2,29.4c-39.3,26.3-77.6,54.1-116.4,81.2c-8,5.6-16,11.6-24.7,15.9c-16.3,8.2-39.2,15.9-49.3,2.5
			c-9.5-12.5-7-35.9,4.7-52.9c30.6-44.2,67.1-83.5,101.8-124.2c21-24.6,19.1-32.1-12-44.7c-31.4-12.8-63.3-7.6-95-1.4
			c-25.4,5-50.5,11.1-75.8,16.5c-20.8,4.4-40.5,1.5-51.8-17.9c-12-20.6-4.3-40.1,11-56c30.3-31.6,62.2-61.4,98.6-86.1
			c35.4-24,71.2-47.4,105.3-76.5c-30.3-11.6-56.4-26.1-75.5-51.1c-45.9-60-29.1-133.6,39.5-165.4c44.3-20.6,91.5-22.3,139.1-14.3
			c9.1,1.5,16.5,6,19.8-8c16.5-69,68.1-95.6,131.6-107c24.6-4.4,49.4-7.1,74.6-3.1c29.2,4.6,47.9,22,60,49.2
			c24.7-18.3,47.8-36.1,71.7-53c82.3-58.4,173-95.4,273.7-106.7c108.9-12.2,204.6,65.3,211.5,159.6c1.6,21.5,14.2,10.1,22.3,7
			c83.2-32.2,165.5-66.9,251-92.6c66.8-20.1,134.6-28.2,203.1-8c43.7,12.9,82.6,34.7,111.7,70.2c10.6,13,18.6,11.2,31.4,5.5
			c57.5-25.8,117.4-42.3,180.8-44.8c148-5.7,260.9,55.5,339.1,180c11.8,18.8,18.7,18.7,35.3,7.1c82.3-57.6,171-99.6,273-108
			c101.1-8.4,173.7,31.3,215.7,124c46.1,101.9,60.7,209.8,55.5,321.2c-7.4,157.9-12.2,315.9-20,473.8
			c-5.3,106.9-11.3,213.9-47.1,316.7c-61.2,175.9-183.6,275.6-368,299.8c-77.3,10.2-154.7,16.7-231.9,0
			c-83-18-148.7-59.9-183.7-140.6c-6.4-14.7-13.2-11.4-24.2-8c-210.8,66-424.5,118.3-646.3,128.5c-128.4,5.9-255.1-8.7-379.6-39.9
			c-20.3-5.1-38.1-3.7-57.3,2.9c-108,37-215.1,76.7-321.4,118.3c-18.2,7.1-36.9,13.9-56,17.5c-41.1,7.8-80.3,1.7-105.9-34.4
			c-22.8-32.1-50-57.6-83.8-76.8c-15.5-8.8-21.1-15.6-0.2-28.2c46.1-27.7,97.2-35.1,148.5-40.5c73-7.8,144.2-23.7,215.7-39
			C782.7,2136.7,785.5,2134.2,791.5,2130.9z M436.7,1913.4c86.3,3.6,158.8,37.7,229.4,77.1c70.9,39.6,141.8,79.2,217.7,108.7
			c12.5,4.9,24.6,8.9,38.8,5.6c226.4-53.8,449.9-118.7,674.9-177.9c20.1-5.3,30.5-15.5,37-35.9c14.7-45.7,30.6-91.4,62.5-129.1
			c45.3-53.4,114.5-62.8,164.1-22c24.2,20,34.5,18.4,51.8-8c8.2-12.4,12.1-26,10.5-40.7c-2.6-24.8-6.4-49.6-8.7-74.4
			c-4.3-45.1,19.7-76.1,64-83.9c54.7-9.6,95.2,11.5,106.7,55.7c18.9,72.6-27.7,158-102.9,188.3c-9,3.6-18.4,5.8-26.1,13
			c-24,22.3-50.8,19-76.8,5c-14-7.5-26.3-18.2-39.1-27.9c-33.9-25.5-66.9-25.4-100.3,1.3c-20.6,16.5-33.4,38.7-46.4,61.5
			c-35.8,62.7-28.9,131.9-33.2,199.4c-0.7,11.1,5.5,19.2,12.7,25.5c54.9,48.7,115.9,78.8,192.3,63.2
			c50.7-10.4,100.8-23.5,149.6-40.3c105.1-36.2,195.3-91.1,245.2-197.2c44.6-94.9,58.8-194.2,47.9-297.5
			c-6.5-61.4-35.8-113.2-72.1-161.7c-5.8-7.8-10.8-13.1-21.5-6.1c-69.4,45.1-148.5,58.3-228.4,69.4c-39.8,5.5-74.8,20.8-102.8,51.8
			c-72.9,80.5-167.9,88.4-252.6,20.5c-70.2-56.3-103.2-135-125.4-219.2c-5.2-19.7-2.2-45.9-14.2-58.5c-13.6-14.3-40.7-4.9-61.8-5.7
			c-15.4-0.6-22.4-4.3-21.4-21.5c2.4-42-0.3-84-8.9-125.3c-3.4-16.4,3.6-19.1,16.8-15.4c20.1,5.6,24.7-3.7,24.1-21.9
			c-0.7-25,0.6-50,0.7-75c0.1-12.7,3.8-26.4,16.6-27c24-1,23.4-18.1,25.7-33c2.4-14.9,3-30.3,2.6-45.4c-0.3-14.5,5.4-19,19.3-17.2
			c21.2,2.7,42.8,3.2,63.9,6.9c18.7,3.3,31.2-0.7,43.5-16.5c30.3-39,67.7-70.9,105.5-102.4c13.8-11.5,44.9-14.1,37.6-37.7
			c-5.4-17.4-28.9-27.8-48.1-36.1c-3.3-1.4-6.5-2.8-9.8-4.2c-63.3-26.2-126.5-17-188.6,3.1c-129.1,41.6-254.5,93.1-379,146.7
			c-172.1,74.1-336.8,161-477.3,287.4c-53.1,47.7-105.5,96.4-139.8,160.9c-19.3,36.4-21.3,72.9-6.7,111
			c8.6,22.4,18.3,44.6,25.4,67.5c24.6,78.8-0.8,134.2-75.7,167.4c-12.2,5.4-24.6,10.3-36.9,15.5c-35.9,15.3-38.5,29.6-8.3,54.4
			c47,38.7,102.2,57.7,162.2,62.8c43,3.7,42.4,3,44.9,47.1c0.8,14.2-2.8,18.8-17,18.9c-33.3,0.3-65.9-3-98.2-11.1
			c-7.6-1.9-16.9-9-23.4,3.1C465.6,1861.3,451.8,1886,436.7,1913.4z M2256.3,1298.4c-14.3-3.6-24.5,0-34.9,1.3
			c-44.8,5.6-89,3.9-131.7-12.8c-56.8-22.2-84.8-70.2-74.5-129.8c5.6-32.3,21.5-60.3,42.8-85.2c66.7-78.1,150.6-124,253.2-133.3
			c17.2-1.6,23.7-3.2,15.3-22.7c-55.7-130.1-193.1-206.9-332.9-185.2c-123.4,19.2-224.5,79.9-309.2,168.7
			c-140.9,147.5-168.6,355.5-72.7,532c20.8,38.3,47,71.9,87.1,91.7c46.8,23.2,91.8,18.4,124.6-19.5c49.6-57.3,112.8-82,185.5-89.3
			C2103.5,1404.8,2186.6,1370.3,2256.3,1298.4z M2429.3,1541.6c209.9-16,360.9-116.7,446.3-310.9c15.4-35.1,28.8-71.9,30.1-110.3
			c2.7-75.9-15.8-148.7-42.5-219.1c-41.9-110.4-111.3-136.9-220.1-121.6c-87.6,12.3-163.4,54-235.6,103.1
			c-14.6,10-16,18.4-10.5,34.5c56.2,164.6,20.9,309.1-99.6,433c-13.6,14-14.5,23.3-3.7,37.9c25.7,34.5,46.4,71.9,62.1,112
			c16.6,42.1,16.5,42.1,62.7,41.3C2422.1,1541.6,2425.7,1541.6,2429.3,1541.6z M2893,1454.6c-4.1,3-6.5,4.1-7.8,5.9
			c-41,54.7-87.7,103.7-145.1,141.5c-11.6,7.7-9.4,17.2-8.5,28.1c5.7,67.7,10,135.6-3.7,202.8c-38.8,189.2-183.9,243.4-327.7,239.7
			c-14.9-0.4-17-7.7-16.6-20.6c0.4-13.9,6.7-15.5,18.5-14.8c16.9,1,34,0.5,50.9-0.5c124.6-7.7,208.1-77.4,238.6-198.1
			c14.5-57.2,10.8-115.3,8.9-173.3c-1.2-36.2-1.1-33.6-34.9-22.3c-29.5,9.8-35,24.8-32.5,54.5c5.8,69.8-9.1,136.8-43.8,198.4
			c-26.9,47.9-67.4,77.3-121.5,88.2c-54.2,11-106.7,2.3-158.3-13.7c-13.3-4.1-20.6-2.7-29.4,8.2c-40.5,49.7-88.8,90.7-146.5,119.1
			c-18.4,9-16.8,18.2-9.4,33c33.6,67.3,91.2,100.7,162,114.5c67.4,13.1,135.2,7.9,202.8,0.3c190.3-21.5,311.4-126.4,362.4-310.9
			c30.3-109.7,31.7-222.3,37.1-334.6C2890.8,1552.5,2896.7,1504.8,2893,1454.6z M336.2,1197c31.3,32.4,31.2,32.4,63.3,6.6
			c58.4-47,116.8-94,175.4-140.9c8.2-6.6,14.3-17.3,26.9-1.6c12.6,15.6,3.7,21-6.3,29.1c-66.7,53.8-133.1,108-200.2,161.3
			c-13,10.3-20.6,20.8-17.7,40.7c34-26.4,77.7-35.3,103.8-68c65.2-81.7,140.9-152,224.9-213.4c130.5-95.3,273.2-168.7,422.4-229.7
			c22-9,29.4-22.4,28.5-44.8c-2.1-52.4-53.8-101.5-110.9-104.6c-71.2-3.9-134.9,21.8-197.5,50.6c-68.9,31.7-124.7,82.7-183.5,129.1
			c-19.1,15.1-40.5,27.7-58.9,49.5c74.1,10.7,135.9-5.7,188.2-55c18.8-17.8,37.1-36.6,64.5-40.7c7.4-1.1,17.9-4.5,18.8,7.6
			c0.6,8.8,3.9,21.8-9.4,24.7c-22.5,4.9-36.8,21.1-52.6,35.3c-65.1,58.3-140.5,78.6-225.6,59.2c-15.4-3.5-26.5-2.2-39.4,7.1
			c-120.2,86.8-232.5,184.1-356.2,266.2c-4.2,2.8-9.8,5.1-9.7,13.6c31-5.2,62-9.3,92.8-1.5c17.2,4.4,29.5,0,42.7-12.6
			c60.1-57.3,121.5-113.3,182.3-169.9c9.5-8.9,16.2-17.7,29.5-2.6c12.9,14.7,1.9,20-6.1,27.5C462.9,1079,399.5,1138,336.2,1197z
			 M2599.3,1720.8c0-8.9-0.6-17.9,0.1-26.8c1.5-18.1-3.4-23.6-22.3-16.5c-56.1,21.1-113.9,36.3-172.7,47.8
			c-12.1,2.4-18.3,6.4-20.2,19.8c-8.8,61.7-29.6,119.4-61.9,172.8c-7.7,12.7-8.9,19,8.6,23.5c29.6,7.5,59.1,14.5,89.7,14.1
			c67.4-1,118.5-28.9,147.5-92.1C2588.8,1818.1,2600.3,1770.8,2599.3,1720.8z M2899.2,1265.1c-4.8,8.9-8.9,16.6-13,24.3
			c-66.5,124.2-165.4,210.8-298.9,257.1c-60.4,20.9-122.8,31-186.7,28.6c-18.8-0.7-21.7,4-18.3,22.2c4.9,26.2,6.3,53.1,7.4,79.8
			c0.6,13.4,3.5,16,17.1,13c64.6-13.9,127.1-34.1,189.6-55.1c127.8-43.1,220.9-127.3,291.4-239.6c6.2-9.9,11.6-19.8,11.5-32.2
			C2898.9,1331.3,2899.2,1299.2,2899.2,1265.1z M1149.9,2170.7c201.4,38,399.7,23.4,601.5-27.9c-52.5-21.5-97.3-44.9-122.7-93
			c-6-11.4-14.7-6.5-23.2-4.4c-55.4,13.3-111,25.9-166.2,40C1342,2110.4,1245.1,2137.2,1149.9,2170.7z M2325.4,1195.1
			c-33.9,0.4-65.9,0.2-97.5-6.2c-38.5-7.7-64.6-29.5-69.2-58c-5.4-33,11.2-61.3,47.5-81.7c38.8-21.8,81.3-30.7,124.6-37.3
			c9.1-1.4,24.2,3,20.9-15.6c-2.6-14.2-4.3-28.6-25.7-25.2c-27.3,4.3-54.9,6.2-81.4,14.6c-72,23-130.4,65.2-173.8,126.7
			c-49.3,70-20.1,137.4,63.8,152.1c40.4,7.1,79.6,0.8,119.5-4.6C2292.4,1254.6,2315.2,1235.6,2325.4,1195.1z M953.9,2194.9
			c-25.8-9.4-45.6-14.9-64-23.6c-27.3-12.9-53.8-12.9-82.8-5.8c-79.6,19.4-159.6,36.8-241.5,45.1c-34.1,3.5-69.1,7.2-103.9,23
			c22.4,13.9,36.8,30.7,50.3,48.6c35,46.4,54.5,53.3,110,33.7C731.2,2277.3,838.2,2232.8,953.9,2194.9z M969.3,2129.2
			c54.3,17.3,99,31.2,152.4,12.1c101.5-36.4,206.4-63.2,311.2-89.2c55.4-13.8,110.9-27.3,166.4-40.7c28.7-6.9,12.8-30.2,13.2-44.2
			c0.4-14.5-14.8-4.3-22.5-2.2c-142.8,38.1-285.4,76.9-428.2,115C1099.8,2096.5,1037.7,2111.8,969.3,2129.2z M334.5,824.8
			c-35.7,0-67.3,6.9-87.9,19.1c-40.4,23.9-49.2,66.2-22,105.5c29.4,42.5,80.1,54.9,114.7,28c16.9-13.1,33.5-26.7,50.9-39.1
			c10.9-7.8,16.7-17.7,19.4-30.5C421.4,851.4,397.5,824.8,334.5,824.8z M510.8,832.2c13.4,2.5,27.2-3.9,40.2-14.8
			c20.5-17.1,41.7-33.4,62.8-49.7c10.7-8.3,22.1-15.9,16.5-32.3c-5.2-15.2-16.2-23.1-31.8-24.4c-40.6-3.3-80.1,0.5-116.9,19.3
			c-18.7,9.5-33.1,24-42.7,42.8c-13.1,25.8-7.9,39.6,18.6,50.1C473.4,829.6,490,832.3,510.8,832.2z M2293.6,1161.7
			c50.4,0.2,52.2-1.3,59.1-46.3c0.7-4.4,1.2-8.8,1.7-13.3c8.8-75.6,4.6-60.3-54.3-50.1c-30.5,5.3-60.8,14.2-87,32.3
			c-13.8,9.5-23.7,22.4-20.8,40.5c2.7,16.5,16.7,22.4,30.3,26.8C2247.5,1159.5,2273.5,1160.2,2293.6,1161.7z M1441,1186.3
			c0.4,0,0.8,0,1.3,0c0,11.6-0.3,23.2,0.1,34.8c0.2,5.8-2,14.3,6.3,15.6c13.6,2.2,28.7,7.7,40.3-3.2c6.9-6.5,0.5-79.3-5.3-81.5
			c-0.8-0.3-1.8,0.1-2.7-0.2c-39.1-12.8-42-10.7-40,29.1C1441.1,1182.7,1441,1184.5,1441,1186.3z M1473.8,1067.2c-0.2,0-0.3,0-0.5,0
			c0,11.6,0.5,23.2-0.1,34.8c-0.5,10,3.2,14.7,13.3,15.7c8.9,0.9,12.4-2.3,14.6-11c5.9-23.3,13.1-46.3,19.6-69.4
			c1.8-6.2,2.8-11.2-6.4-13.9c-30.8-9.3-40.1-3.3-40.5,27.7C1473.7,1056.5,1473.8,1061.9,1473.8,1067.2z M1571.5,934.3
			c-50.5-8.9-50.6-8.9-56.1,38c-0.7,6.1-7.2,14.8,4.1,17.2c9,1.9,19.1,5.2,25.2-6.9C1552.7,967,1561.6,952,1571.5,934.3z
			 M447.1,893.4c13.1-8.8,24.7-14.4,32.8-25.6C441.9,853.1,441.9,853.1,447.1,893.4z"/>
		<path class="st1" d="M1314.4,1104.7c23.9,17.4,19.7,29.8-3.2,45.4c-50.9,34.6-100,72.1-154.2,101.7c-10.5,5.7-14.9,12.5-17,24.5
			c-16.7,98.4-112.4,150.4-206.3,113.1c-22.4-8.9-38.6-24.5-43.4-47.4c-3.4-16.2-11-18.7-25-20.2c-34.8-3.8-68.5-12.3-100.2-27.6
			c-8.2-3.9-17.5-7.3-9.6-19.2c5.4-8.2,6.7-20.4,23.2-13c113,50.6,221.4,27.7,327.7-22.5C1181.9,1203.7,1247.7,1152.8,1314.4,1104.7
			z M1103.4,1278.7c-54,24.2-107.3,39.3-163.2,44.3c-5.9,0.5-13.9-2.4-17.1,3.6c-3.8,7.3,2.7,13.7,7.1,18.7
			c4.5,5.2,10.4,10.8,16.7,12.5c44.9,11.8,88.4,7.1,127.5-18.5C1093.8,1326.7,1101.7,1305.8,1103.4,1278.7z"/>
		<path class="st1" d="M1901.9,2075.5c-26.5-0.3-51.5-5.3-71.8-24c-13.2-12.1-18.1-25.9-7.9-42.7c10-16.5,23.1-15.8,39.2-10.1
			c46.2,16.2,78.7,6,110.2-33.2c32.8-40.9,39.8-90.7,48.5-139.8c2.8-15.8,4.7-31.9,15.1-45.1c8.3-10.6,19.1-16.3,32.7-13.5
			c14.5,3,21.9,14.5,21.3,27.3c-4.6,94.3-17.7,185.7-97.8,250.4C1965.4,2065.7,1935.3,2075.7,1901.9,2075.5z"/>
		<path class="st1" d="M848.7,1552.5c15,1.4,30.4,1.3,45.1,4.4c60.7,12.8,82.8,72.8,42.6,120.3c-35.7,42.3-84.5,57.9-138.9,53.9
			c-20.6-1.5-35.5-15.5-35.9-36.8c-0.4-21.9,15.6-34.3,35.5-37.2c19.2-2.8,39.1-1.1,58.7-1.1c15.3-0.1,31.8-3,31.6-20.6
			c-0.2-17.9-17.9-20.4-32.4-19.8c-21.3,0.8-42.5,5.9-63.8-0.1c-10.5-2.9-21.4-6.4-23.7-18.7c-2.4-12.8,4.9-22.1,14.4-29.5
			C801.8,1551.7,825.4,1553.5,848.7,1552.5z"/>
		<path class="st1" d="M1176,980.6c51.7,2.6,100.9,20,140,61.1c6.1,6.4,17.2,12.7,3.4,23c-9.3,6.9-14.7,14.3-27.7,1.8
			c-71.4-68.7-163.7-68.8-237.1-1.4c-29.6,27.2-58.4,55.1-86.7,83.6c-10.2,10.2-16.4,12.3-27.8,1c-12.1-12.1-4.5-17.9,3.5-25.5
			c33-31.4,64.8-64,99-93.9C1081.2,996.5,1127.5,980.3,1176,980.6z"/>
		<path class="st1" d="M1241.5,1804.7c-33.9-5.2-69.7-4.7-105.4-5.3c-14.8-0.3-18.3-5.1-15-19.5c8.9-39.1,16.4-78.4,24.6-117.7
			c1.8-8.5-1.5-22.7,13.4-20.3c14.5,2.3,27.7,9.3,24.1,28.7c-2.9,15.8-4.5,31.9-8.5,47.4c-6,23.3-0.7,35.5,26,33.9
			c16-0.9,32.1,1.6,48.1,1.7c17.3,0.2,25.6,5.4,16.2,23.7C1259.5,1788.1,1267.7,1809.6,1241.5,1804.7z"/>
		<path class="st1" d="M986,1803.8c19.4-43.2,37.8-85.6,50.5-130.3c2.2-7.6,5.6-15,13.3-19.3c8.4-4.8,18-6,25.7-2
			c8,4.1,2.1,13.5,0.5,19.2c-11.3,41.1-24,81.9-35.8,122.9c-4.4,15.1-13.8,19.8-28.4,16.2C1004.1,1808.6,996.4,1806.5,986,1803.8z"
			/>
		<path class="st1" d="M668.5,1613.3c-26.3-0.4-33.9-12.2-25.9-31.5c11-26.7,73.1-60.3,100.6-54.4c17.6,3.8,24.3,24.5,10.2,39.8
			C729.3,1593.2,697.2,1605.9,668.5,1613.3z"/>
		<path class="st1" d="M2465.6,1426.9c-15.4-2.5-28.5-5.2-41.7-6.8c-11.3-1.3-13.3-6.8-9.8-16.4c6.2-16.7,11-34,18.7-49.9
			c22.1-45.7,22.2-45,62-13.2c11.1,8.8,15.1,15,5.6,27.7c-10.2,13.5-16.6,29.4-20.4,46.1C2478,1422.8,2474.5,1430.1,2465.6,1426.9z"
			/>
		<path class="st1" d="M2669.6,1092.2c2.1,9.4-2.5,11.2-5.6,14.2c-6.5,6-12.8,12.3-19.1,18.6c-8.1,8-8.2,26.2-19.8,26.2
			c-16.3,0-32.6-7.2-48.8-11.7c-9.9-2.7-8.3-8.9-5.1-16.6c12.2-29.8,31.3-53.9,57.9-72c4-2.7,9.9-9.1,13.8-3.3
			C2653.2,1062.9,2662,1079.4,2669.6,1092.2z"/>
		<path class="st1" d="M2783.1,1019.2c3,8-2.2,11-8,14.2c-7.7,4.2-18.1,7.3-22.1,14c-14,23.4-28.3,14.2-45.2,4.3
			c-32.2-18.8-32.8-19.4-7.2-46.2c6.1-6.4,12.9-12.3,20.3-17.1c14.6-9.6,29.1-20.4,47.9-19.7
			C2772.1,968.7,2782.9,1008.4,2783.1,1019.2z"/>
		<path class="st1" d="M2545.8,1182.7c14.7,12.4,30.4,22.9,42.5,36.6c8.9,10-6.6,15.7-10,23.9c-2.4,5.7-7.3,10.4-9.2,16.2
			c-6.9,21-17.6,23.6-37.6,13.7c-36.8-18.3-37.7-17.2-16.3-52.7C2523.4,1207,2530.7,1192.6,2545.8,1182.7z"/>
	</g>
</g>
</svg>
