<?xml version="1.0" encoding="utf-8"?>
<!-- Generator: Adobe Illustrator 23.0.0, SVG Export Plug-In . SVG Version: 6.00 Build 0)  -->
<svg version="1.0" xmlns="http://www.w3.org/2000/svg" xmlns:xlink="http://www.w3.org/1999/xlink" x="0px" y="0px"
	 viewBox="0 0 3000 3000" style="enable-background:new 0 0 3000 3000;" xml:space="preserve">
<style type="text/css">
	.st0{stroke:#000000;stroke-width:10;stroke-miterlimit:10;}
</style>
<g id="Layer_1">
</g>
<g id="Layer_2">
	<g>
		<path class="st0" d="M566.3,1668.3c-41.7-24.9-74.4-53.2-100.1-89.1c-103.5-144.6-59.6-343.6,96.6-433.6
			c16.3-9.4,19.3-18.3,16.1-35.7c-31.3-168.7-32.4-337.8-4.5-507.1c13.3-80.3,21.4-161.5,46.7-239.4
			c18.5-56.8,42.9-110.4,78.9-158.7c62.2-83.6,146.3-125.4,248.3-136c110.2-11.4,220.5-6.2,330.7-2.3
			c217.6,7.6,435.2,15.4,652.9,19.1c134.1,2.3,268.2,2.7,402,12.6c41.3,3,82.2,9.2,122.7,18.8c120.7,28.7,186.3,109.8,213.9,225.6
			c20.3,85.2,15,171.5,4.7,257.7c-11.8,98.8-25.2,197.1-54.2,292.7c-30.5,100.2-72.9,195.2-126.2,285.2c-7.9,13.3-6,18.6,6.4,27.2
			c90.4,62.7,131.7,150.7,118.6,259c-12.2,100.8-69.6,172.6-162.9,213.6c-14.8,6.5-15.7,12.4-10.5,25.9
			c55.3,143.1,81.2,291.7,70.2,444.7c-15.3,212.3-70.4,412.2-204.7,583.2c-96.7,123.2-221.4,195.5-379.1,213
			c-152.4,16.9-304.8,17.7-457.6,13.5c-143.7-4-287.3-10.2-430.9-18.7c-138-8.2-275.9-17.1-410.2-53.6
			c-39.4-10.7-77.8-24.2-113.9-43.4c-122.1-64.7-189.3-172.3-216.2-301.7c-60.7-291.9-4.8-559.6,185.3-794.5
			c11.3-13.9,23.5-27.2,36.1-40C537.6,1693.9,550.7,1682.7,566.3,1668.3z M1357.2,2903.4c61,1.9,117.6,3.6,174.1,5.6
			c11.3,0.4,15.1-8.1,20.3-15.2c119.2-165.8,158.9-349.4,123.1-549.9c-5.9-33-6-31.8,26.8-40.3c14.9-3.8,17.1,1.2,19.7,13.6
			c10.5,50.2,16.3,100.7,16.9,152c1.4,125.3-25,244-84.1,354.9c-15.1,28.3-31.6,55.9-47.8,84.3c40.6,0,79.8-0.4,118.9,0.2
			c13.4,0.2,21.2-5.5,28.6-16.1c31.3-44.9,58.1-92.4,79.7-142.6c55.8-130,72.9-265.4,54.5-405.5c-0.8-5.9-4.6-15.4,1.3-17.2
			c13.7-4.2,28.6-7.7,42.5-6.2c9.8,1,6.8,15,7.8,23.1c22,193.3-15.3,373.7-119,539.3c-3.8,6.1-10.3,11.2-9.1,21.8
			c35.2-3.6,70.1-7.7,105.1-10.4c11.6-0.9,18.9-5.5,25.5-14.5c110.3-152.2,154.6-321.9,134-508.5c-4-36.3-5-35.9,31.8-41.3
			c10.5-1.5,14.2,0.6,15.8,12c22.7,163.5-0.4,319.3-77.6,466.1c-11.9,22.7-25,44.8-38.8,69.4c6.8-1.4,10.7-2,14.7-3
			c103.1-24.9,180.5-88.9,244.6-168.7c137.6-171.2,190.1-373.1,200.4-587.8c6.7-139.1-20.3-273.4-70-403.4
			c-5.8-15.2-12.4-20.6-29.3-20.6c-305.6-0.8-611.1-2.4-916.7-3.8c-271-1.3-542-2.6-813-4.3c-14.1-0.1-24.7,3.3-34.9,13.4
			c-30.9,30.8-61.4,61.8-88.6,95.8c-140.4,175.5-190.3,379-181.8,599.1c3.7,96,24.6,189,76.5,272.3c4.2,6.8,6.6,15.4,15.9,19.1
			c4.1-8.2,8.3-16.1,12.1-24.2c66.5-140.9,98.4-289.7,99.8-445.1c0.1-16.6,4.8-22.5,20.8-20.1c4,0.6,8.4,0.5,12.4-0.1
			c14.6-2.4,18.8,3.4,18.4,18c-1.2,47-3.4,94-9.6,140.5c-16.9,127.5-53.3,249.2-113.6,363.2c-6.3,11.9-5.4,19.1,4.6,28.2
			c46.5,42.6,101.8,67.7,161.5,85.3c12.7,3.8,13.8-4.8,17-11.9c32.1-72,57.5-146.4,77.2-222.7c32.2-124.4,47.6-250.9,46.6-379.4
			c-0.1-13.9,4.4-18.7,17.7-17.1c4.8,0.6,9.8,0.6,14.5-0.2c15.7-2.6,20,3.9,19.8,19.3c-1.5,97.5-8.5,194.6-26.9,290.5
			c-21.4,111.4-53.5,219.5-99.4,323.4c-3.8,8.6-5.9,14.1,7,16.6c51.6,10,103.4,18.1,155.6,23.6c10.2,1.1,14.7-3.3,19.2-11.3
			c57.4-102.2,95.5-211.1,110.9-327.4c12.3-92.2,12.8-184.7-2.7-276.7c-2-11.9,0.9-16.7,13-16.7c5.4,0,10.9-1.8,16.2-3.3
			c14.6-4.2,20.7,0.8,22.6,16.2c5.1,42.5,9.3,85,10.2,127.9c3.2,150.9-25.1,295.2-89.1,432.2c-10.1,21.6-20.5,43-31.4,65.8
			c45.1,3.1,87.8,5.9,130.5,9.1c9.7,0.7,16.7-1.3,22.9-9.8c83.3-112.6,132.1-238.2,144.7-378c7.4-82.1,0.4-162.8-18.9-242.6
			c-2.8-11.4-1-16.8,10.9-18.6c6.1-0.9,12.2-2.6,17.8-5c14.5-6.2,19.9,0.9,22.2,14c5.7,33.3,13.7,66.3,17.1,99.9
			c17.9,180.4-17.7,348.9-114.4,503.4c-7.9,12.7-15.9,25.3-25.6,40.8c49.3,2.4,95.4,4.1,141.3,7.2c14.1,0.9,22.2-2.9,29.9-15.3
			c104.5-167.7,153.2-350.4,148.7-547.6c-0.7-28.6-0.8-27.5,28.5-30.2c17.4-1.7,22.5,3.5,22.9,20.8c2.9,134.7-16.3,265.6-62.6,392.4
			C1422.3,2783.3,1391.9,2842,1357.2,2903.4z M1657.2,130.7c-160.3-5.8-297.7-11.8-435.1-15.5c-87-2.4-174-4.2-261.1,3
			c-102.9,8.6-182.5,53.9-237.8,141.4c-15.6,24.6-28.2,50.6-39,77.6c-29.2,73.1-39.5,150.5-53.1,227.3
			c-32.1,181.4-35.7,362.5-1.4,544c2.2,11.5,6.9,14,17.7,14.3c30.4,0.7,60.7,2.7,91.1,4.3c255.4,13.4,510.9,21.7,766.6,27.7
			c304.9,7.2,609.9,12.3,915,9.8c19.4-0.2,29-6.8,38.2-22.8c85.2-148.8,137.9-308,157.9-478.2c10.3-87.1,24.1-173.9,13.1-262.1
			c-16-127.9-75.2-221.9-220.7-242.7c-103.6-14.8-207.8-17.2-312.1-19.3C1942.4,136.2,1788.4,133.2,1657.2,130.7z M2402.8,1233.2
			c2.9,4,4.7,6.7,6.8,9.3c66.8,82.3,56.1,194.6-25.5,262.6c-34.8,29-73.3,46.5-120.9,45.1c-116.8-3.4-233.6-3.9-350.4-5.6
			c-334.6-5.1-669.1-9.8-1003.7-15.8c-83.1-1.5-144.3-42.5-177-118.6c-32.5-75.7-17.6-146,37-207.8c3.3-3.8,9.6-6,8-18.1
			c-56.9,0-114.2,0.2-171.5-0.2c-8.3-0.1-14.7,3-21.1,7c-79.1,49.8-123.2,121.4-123.1,214.8c0.1,96.1,46.4,168.4,129.2,217.3
			c12.9,7.6,26.4,10.7,41.4,10.8c586.3,2.5,1172.6,5.2,1758.9,7.9c9.7,0,19.2-0.3,28.6-3.6c77.7-27.5,128.8-80.5,146.6-160.9
			c18.3-83-6.9-154.3-69-212.1C2471.4,1241.5,2442.6,1224.7,2402.8,1233.2z M2127.1,1227.2c-2.9-4-7.2-3.5-11.2-3.6
			c-62.2-1.7-124.4-3.2-186.6-5.3c-10.6-0.4-16.4,5.2-22.8,11.6c-81.6,81.7-163.3,163.3-244.8,245c-3.5,3.5-9.4,6-8.7,14
			c7.5,0.4,14.9,1.1,22.4,1.2c58.8,0.6,117.5,0.5,176.3,1.9c13.6,0.3,23-3,32.5-12.8c76.9-79.5,154.4-158.4,231.6-237.6
			C2120,1237.3,2125.6,1233.9,2127.1,1227.2z M1842.4,1220.8c-0.5-2.9-1-5.9-1.5-8.8c-57.9,0-115.9,0.4-173.8-0.3
			c-12.8-0.2-22,3.1-31.2,12c-69.1,66.8-138.9,132.8-207.8,199.7c-20.1,19.5-38,41.1-56.6,61.3c4.6,2.8,12.4,1.1,19.8,1.2
			c56,0.7,112,0.7,167.9,2c13.1,0.3,21.6-4.3,30.5-13.2c79.4-79.9,159.2-159.5,238.8-239.2
			C1833.4,1230.7,1837.8,1225.7,1842.4,1220.8z M1343.2,1205c-2-0.7-3.8-1.8-5.6-1.9c-53.1-1.5-106.2-2.8-159.3-4.6
			c-8.7-0.3-14.1,4.1-19.4,9.8c-81.3,85.5-162.7,171-243.9,256.5c-3.4,3.6-9.6,6.4-5.4,15.7c50.2,0,101.2-0.3,152.2,0.3
			c11.2,0.1,17.6-5.6,24.5-12.6c82.1-82.9,164.3-165.6,246.3-248.6C1336.6,1215.6,1342.8,1212.6,1343.2,1205z M1097.5,1198.1
			c-66-4.1-128.1-5.8-190.1-5.3c-62.4,0.5-116.2,41.9-134.3,101.4c-18.1,59.2,4.6,123,55.9,158.9c10.9,7.6,18.1,9.9,29.2-1.9
			c66.3-70.9,133.7-140.8,200.6-211.2C1071,1227,1083,1213.8,1097.5,1198.1z M1144.8,1483.4c44.6,0,83.1-0.9,121.5,0.4
			c18,0.6,30.8-5.1,43.6-17.5c75.9-73.6,152.5-146.4,228.7-219.6c11.6-11.2,22.5-23.1,33.7-34.7c-0.3-2.1-0.6-4.2-1-6.4
			c-44.7,0-89.4,0.5-134.1-0.3c-13.6-0.3-23,3.7-32.5,13.4c-81.3,82.8-163.1,165.2-244.7,247.8
			C1156.3,1470.3,1152.8,1474.5,1144.8,1483.4z M1945.7,1489.2c0.5,2.2,0.9,4.4,1.4,6.5c43.2,0,86.5,0,129.7,0
			c7.1,0,10.8-5.6,15.3-9.7c76.3-71,152.5-142,228.7-213.1c26.6-24.8,26.6-26-8.2-38.8c-29.8-11-61.5-5.3-92.3-7.9
			c-12.8-1.1-21.8,2.9-30.8,12.3c-37.5,39.5-75.9,78.3-113.9,117.4C2032.2,1400.3,1989,1444.8,1945.7,1489.2z M2157.5,1499.1
			c40.7,0,76.5-0.4,112.2,0.1c93.5,1.1,163.3-115,119.1-197.8c-6.2-11.6-9.9-13.3-20.3-3.5c-59.1,56-119,111.1-178.3,166.8
			C2180.4,1474,2168.5,1481.4,2157.5,1499.1z"/>
		<path class="st0" d="M965.1,1998.9c-47.6-0.3-85.4-38.6-84.8-85.8c0.6-46.8,39.8-85.5,86.3-85.2c46.1,0.3,85.4,40.3,84.9,86.6
			C1051,1961.7,1012.7,1999.2,965.1,1998.9z"/>
		<path class="st0" d="M1268.4,2057.4c0.1-45.8,35.7-80.8,81.6-80.4c44.4,0.4,80.1,36.2,80.3,80.5c0.2,45.4-35.8,81.3-81.4,81.4
			C1302.8,2138.9,1268.2,2103.9,1268.4,2057.4z"/>
		<path class="st0" d="M2076,1978.3c-33.5-0.4-60.4-27.5-60.1-60.7c0.3-33.1,29.9-61.9,62.6-60.8c33.1,1.1,59.5,29,58.9,62.3
			C2136.8,1952.6,2109.7,1978.7,2076,1978.3z"/>
		<path class="st0" d="M1753,2059c32.4-0.1,55.7,22.8,55.8,55.1c0.1,32.3-25.4,58.1-57.3,57.9c-31.1-0.2-56.2-25.1-56.7-56.4
			C1694.2,2081.7,1717.4,2059.1,1753,2059z"/>
		<path class="st0" d="M1495.9,321.3c134,4.1,268.1,5.1,401.8,17.2c80.7,7.3,160.3,21.5,234.4,55.3
			c125.1,56.9,196.3,156.9,222.9,290.2c17.6,88.1,12.4,175.8-4.6,263.4c-1.9,9.9-4.8,12.9-16.2,10.4c-36.3-7.8-36.5-7-29.9-43.4
			c12.2-67,12.2-67-36.6-115.8c-8.3-8.3-17.6-15.8-24.7-25.1c-10.7-14-17.9-10.1-28.4,0.8c-57.1,59.2-114.4,118.1-172.9,175.9
			c-9.5,9.4-7,22.9-17.6,30.9c-30.3,22.7-60.1,46.1-85,75.1c-4.8,5.6-8.7,3.6-13.9-0.5c-31.4-24.7-31.6-26.2-3.3-55
			c35.4-36,35.4-36,0.2-71.2c-21.5-21.5-43.4-42.6-64.3-64.7c-8.2-8.7-13.2-8.1-21.2,0.2c-46.5,48.3-93.6,96-140.3,144.1
			c-4.3,4.4-12.1,7.9-4,16.6c7.1,7.6-3.4,10.4-6.6,13.9c-24.4,26.9-24.5,26.6-51.5,1c-50.1-47.5-100.7-94.7-150.3-142.8
			c-10.5-10.2-16.2-9.3-26.1,0.5c-34.5,33.8-69.9,66.8-105.4,99.7c-8.9,8.2-14.5,14.5-0.5,23.3c8.1,5.1,15.2,12.2,21.4,19.4
			c5.4,6.3,20.1,9.4,15.2,18.8c-6.5,12.4-18.3,22.2-28.4,32.4c-2.8,2.8-6.2-1.2-8.8-3.3c-5.3-4.4-10.6-8.8-15.8-13.3
			c-10.4-9-19.8-23.6-31.5-25.7c-12.8-2.3-20.3,16-31.1,24.2c-6.1,4.7-10.1,6.5-15.2-0.1c-1.3-1.6-2.8-3-4.3-4.5
			c-23.6-23.8-24.3-24.5-0.1-46.7c10.9-10,6.9-14.5-1.7-21.9c-37.6-32.6-75.1-65.3-111.8-98.8c-9.2-8.4-13.8-6.2-21.4,1.5
			c-42.2,42.9-85.2,84.9-127,128.1c-11,11.4-18.9,14.1-28.8,0.2c-3.2-4.4-7.3-8.4-11.7-11.7c-10-7.6-7.3-13.3,0.6-21.1
			c42.8-42.2,84.8-85.3,127.9-127.2c9.9-9.7,9.4-14.6-0.8-23.4c-40.3-34.7-80.1-70-119.7-105.5c-8.4-7.6-13.5-8.1-21.6,0.7
			c-38.9,42.2-78,84.1-117.9,125.3c-11.6,12-7.7,24.5-5,36.7c2.7,12.2-1.6,15.8-12.3,17.8c-35.3,6.6-35.3,6.8-40.5-29.3
			c-12.5-86.4-11.1-172.6,11.3-257.1c44.4-167.7,153.7-266.9,324.2-298.2c92.2-16.9,185.5-17.7,278.8-17.3
			C1415.7,321.4,1455.8,321.3,1495.9,321.3z M1923.2,458.7c-1.8,1.6-4.5,3.6-7,6c-63.3,59.8-126.4,119.7-190,179.1
			c-8,7.5-6,11.5,0.5,18c37.3,36.9,74.5,74,111.3,111.5c7,7.1,11,6.7,17.8-0.3c60.1-62,120.5-123.8,181.2-185.3
			c7.5-7.6,8.1-12.1,0.2-19.9c-34.6-33.8-68.6-68.3-102.8-102.4C1931.6,462.6,1929.4,458.6,1923.2,458.7z M1328.2,373
			c-30.3-8.2-50.1,6.3-69.1,28.4c-30.1,35-62.4,68.2-94.7,101.3c-9.4,9.6-9.7,14.7,0.4,24c40.6,37.4,80.5,75.5,120.1,114
			c9.4,9.1,15,10.2,24.8,0.1c49.6-51,99.7-101.4,150.2-151.3c9.5-9.4,8.2-14.4-0.6-22.8c-24-22.9-48.1-45.7-70.1-70.4
			C1372.4,377.1,1354.5,365.2,1328.2,373z M1641.6,649.9c-1.4-1.7-3-3.9-5-5.8c-40.5-40.6-81.3-81-121.5-121.9
			c-8.3-8.4-12.5-3.6-18.2,2.1c-50.7,51-101.4,101.9-152.4,152.5c-7.5,7.4-8.6,11.9-0.2,19.7c39.6,36.6,78.8,73.6,117.6,111
			c7.4,7.1,11.4,6.5,18.3-0.1c51.4-49.2,103.2-98,154.8-147C1637.8,657.7,1641.8,655.5,1641.6,649.9z M1746.4,379.3
			c0-1.1,0-2.1,0-3.2c-29,0-57.9,0.2-86.9-0.1c-8.6-0.1-15.7,0.9-22.3,7.7c-27.9,28.7-56.3,56.9-84.8,85c-6.7,6.5-8.2,10.8-0.7,18.2
			c40.8,40.2,81.3,80.7,121.5,121.5c6,6,9.9,7.1,16.4,0.9c63.4-60.4,127.1-120.6,190.6-181c3.1-3,9.9-6.8,4.8-11.5
			c-13.7-12.6-22.4-31.8-45.5-32.4C1808.3,383.5,1777.4,381.1,1746.4,379.3z M1680.6,689.3c-4.9,3.9-9.5,6.9-13.4,10.7
			c-50.1,47.6-99.8,95.7-150.5,142.6c-10.3,9.6-4.3,13,1.8,18.7c39.7,37.5,79.6,74.8,118.9,112.6c8.1,7.8,13,9,21.5,0.2
			c46.9-48.9,94.2-97.4,141.9-145.4c8.5-8.6,7.7-13.4-0.5-21.4c-36.5-35.8-72.5-72.2-108.7-108.3
			C1688.3,695.8,1684.6,692.9,1680.6,689.3z M1993.1,927.3c3.3-3,6-5.2,8.4-7.6c60.9-62.1,121.6-124.3,182.8-186
			c8.4-8.5,5.5-13.2-1.4-20c-30-29.5-59.9-59.2-89.2-89.4c-8.1-8.3-13-8.7-21.3-0.1c-60,62-120.3,123.6-181,184.9
			c-7.2,7.3-6.3,11.3,0.3,17.9c31,30.5,61.6,61.4,92.3,92.1C1986.9,921.7,1989.9,924.3,1993.1,927.3z M1260.7,688.3
			c-2.8-3.1-4.9-5.8-7.4-8.1c-42.6-40.3-85.3-80.4-127.7-120.9c-7.3-7-11.2-4-16.6,1.8c-39.1,41.8-78.2,83.6-117.8,124.9
			c-7.9,8.2-6.6,12.6,1.4,19.5c41.7,36.1,83.1,72.5,124.2,109.3c8.3,7.4,12.9,6.2,20.1-1.1c38.2-38.9,76.9-77.2,115.4-115.8
			C1255.1,695,1257.6,691.8,1260.7,688.3z M1298.7,724.4c-2.8,2.3-5.6,4.3-8,6.7c-39,39-77.9,78.3-117.2,117.1
			c-7.7,7.6-5.4,11.5,1.8,17.8c38.6,33.4,76.9,67.1,114.7,101.4c8.7,7.9,13.7,7.4,21.8-0.5c36.6-35.6,73.7-70.7,111.1-105.5
			c8.6-8,9-12.5,0.1-20.7c-38-35.2-75.2-71.1-112.8-106.6C1306.9,730.8,1303,727.9,1298.7,724.4z M986,428.8
			c-3.6,1.9-6.6,3.4-9.6,5.1c-55.1,31.5-94.4,77.8-124,133.2c-4.1,7.7-2.9,12.4,3.3,17.8c26.7,23,53.3,46.1,79.5,69.6
			c6.5,5.9,10.5,6.4,16.7-0.2c40-43,80.3-85.7,120.7-128.3c5.6-5.9,7.6-10,0.2-16.8c-25.5-23.4-50.2-47.5-75.3-71.3
			C994.2,434.7,990.2,432,986,428.8z M2196.8,498c-2.5,2.3-5.6,4.9-8.5,7.8c-20.2,20.8-40,42-60.7,62.3c-7.9,7.7-7.3,12,0.2,19.3
			c26.3,25.5,51.9,51.6,77.8,77.5c22.9,22.9,22.9,22.9,44.8,0.5c9.2-9.4,18.2-18.9,27.8-27.9c6.1-5.8,8.7-11.3,4.9-19.9
			c-18.4-42.2-42.5-80.5-75.4-112.9C2204.9,501.7,2202.7,497.6,2196.8,498z M1989.4,403.2c-12-2.2-17.8,7.2-23.1,14.4
			c-5.9,8,4.2,11.8,8.4,16.1c31.9,32.5,64.3,64.5,96.4,96.7c6,6.1,10.6,12.3,19.7,2.5c19.2-20.8,39.2-40.7,59.3-60.6
			c5.9-5.9,6.2-9.1-1.5-13.5C2099.2,429.8,2045,414.8,1989.4,403.2z M805.5,808.8c34.9-37,66.3-70.5,97.8-103.7
			c6-6.3,1.3-9.6-2.9-13.3c-21.2-18.7-42.6-37.1-63.7-56c-8.6-7.7-11-4-12.8,5.1c-3.1,15.5-7.7,30.8-10.2,46.4
			C807.8,725.7,802.1,764.3,805.5,808.8z M1038.7,406.5c25,23.9,48,45.7,70.8,67.6c4.3,4.1,7.7,4.5,12.1-0.2
			c29.4-31.6,59-63,91.9-98C1151.8,380.4,1095.9,386.7,1038.7,406.5z M1505.5,433.9c18.3-18.4,39.2-39.3,59.4-59.7
			c-38.6,0-80.1,0-119.1,0C1465.9,394.4,1487,415.5,1505.5,433.9z M2303.2,685.4c-12.5,12.4-22,22.2-31.8,31.6
			c-5.2,5-4.6,9,0.3,13.8c12.9,12.9,25.5,26.1,38.2,39.3C2313.4,741.3,2309.2,715.4,2303.2,685.4z"/>
	</g>
</g>
</svg>
