<?xml version="1.0" encoding="utf-8"?>
<!-- Generator: Adobe Illustrator 23.0.0, SVG Export Plug-In . SVG Version: 6.00 Build 0)  -->
<svg version="1.0" xmlns="http://www.w3.org/2000/svg" xmlns:xlink="http://www.w3.org/1999/xlink" x="0px" y="0px"
	 viewBox="0 0 3000 3000" style="enable-background:new 0 0 3000 3000;" xml:space="preserve">
<style type="text/css">
	.st0{stroke:#000000;stroke-width:10;stroke-miterlimit:10;}
</style>
<g id="Layer_1">
</g>
<g id="Layer_2">
	<g>
		<path class="st0" d="M2131.2,2665.7c-28.2-17.8-53.4-32.7-75.6-51.7c-151.5-129-215-293.1-178-488
			c36.9-194.4,157.1-322.5,344.1-386.8c14.1-4.9,17.6-10.6,16.5-24.4c-5-64.6-5.8-129.2,3.9-193.5c7.6-50.7,38.7-83.1,86.6-91.7
			c35.5-6.4,61.5,12.7,65.6,48.2c1.2,9.9,2,19.8,3,29.8c1.7,16.9,10,28,26.8,33.2c31.5,9.7,45-0.9,40.9-33.7
			c-2.7-22.1-6.9-44.1-9.4-66.2c-6.7-58.7,26.3-98.9,85.3-104.7c97.3-9.6,175.1,57.3,180.9,155c2.7,45.8-7.2,88.5-26.8,129.6
			c-5.4,11.2-10.7,14.3-20.8,6.5c-2.8-2.1-6-3.8-9.2-5.1c-11.8-4.9-14.1-10.6-7.9-23.5c24.9-52.6,33-106.5,5.4-161
			c-23.5-46.2-85.3-71.1-134.2-54.9c-22.3,7.4-32,21.3-29.8,47.6c2,23.9,6.5,47.7,9.7,71.5c6.3,47.4-11.6,76.4-51.5,83.8
			c-44.8,8.4-89.5-17.7-99-58.7c-3.2-13.6-4.5-27.8-5.5-41.9c-0.8-12.3-6.9-15.3-17.5-12.6c-23.8,6-41.7,18.7-47.4,44.1
			c-9.6,43.4-8.6,87.6-9.2,131.6c-0.3,21.1,2.3,42.3,2.5,63.4c0.1,10.7,3.5,12,13.5,10.6c180.2-24,335.3,27.8,455.5,164.5
			c129.4,147.2,162.9,319.6,97.3,503.5c-65.6,183.9-201.1,293.1-394,328.7c-67.4,12.4-134.6,8.2-201.1-7.7
			c-9.8-2.4-19.6-3.6-29.6-3.3c-118.1,3.4-236.2,6.7-354.2,10c-90.5,2.6-180.9,5.1-271.4,7.6c-4.1,0.1-8.5-0.8-12.3,0.4
			c-93.3,27.8-190.4,24.3-285.9,33.8c-95.3,9.5-191.3,10.2-287.2,7.8c-53.5-1.4-106.9-4.1-159-17.7c-41.6-10.8-73.6-31.7-77.8-81.2
			c-115.6,93.7-244.3,123-385.8,80.7C279.7,2717,198.9,2647.3,147.8,2546c-105.5-209.2-13.3-472.8,224.3-564.7c-5.2,0-10.5,0-15.7,0
			c-31.7,0.1-63.4,2.6-95.2,1.3c-73.5-2.9-120.9-42.2-151.3-105.9c-22.6-47.2-28.9-98.1-28.6-149.4c0.4-72.4,8.7-144.3,27.5-214.4
			c24.7-91.8,75.8-162.2,168.5-196.1c19.7-7.2,40.4-10.7,61.2-13.8c0.9-6.8-4.8-7.9-8.2-10.5c-111-84.2-171.4-195.7-179.1-335
			c-11.6-208.9,148.3-409.2,355-443.1c169.9-27.9,310,26.5,420.4,158.2c4.9,5.9,7.8,14.8,17.4,3c99-121.9,229.7-193,378.2-235.5
			c120.9-34.5,245-43.1,369.8-45c21.3-0.3,38.4-3.9,55.5-18.9c38.2-33.5,86.1-44.9,135.4-48.5c76.8-5.6,153.9-7.4,230.7-0.3
			c46.9,4.4,91.4,16.6,126.6,50.7c5.4,5.3,10.9,5.9,17.6,4.8c139.3-23.2,278.6-20,417.7,0.9c55.3,8.3,109.5,20.6,159.9,46.3
			c39,19.9,65.7,49.8,80,91.6c16.9,49.1,27.7,99.4,30.5,151.2c1.9,35.1-7.1,68.6-18.1,101.7c-21.5,65-54.5,124.7-87.5,184.2
			c-4.2,7.6-6.2,12.1,1.9,18.9c60.3,50.9,89.7,119.3,100.4,194.6c23.6,165.7,13.1,328.2-57.5,483.2
			c-29.8,65.5-66.6,126.7-109.7,184.3c-7,9.4-11.2,11.5-21.2,3.1c-21.7-18-22.1-17.2-5.7-39.6c80.6-110.3,138.1-230.9,154.5-367.6
			c12.1-100.7,13.6-202.1-13.4-301.1c-48.3-177.4-218.8-206.9-333.2-173.2c-112.9,33.2-179.5,110.2-209.1,222.1
			c-1.7,6.6,1,18.3-8.5,18.9c-11.4,0.8-23.6-1.5-34.4-5.4c-5.7-2-1.9-10.6-0.6-16.1c17.7-75.9,52.6-141.7,112.5-192.9
			c1.7-1.5,3.1-3.3,7-7.7c-37.1-6.3-71.9-12.7-106.8-17.9c-146.8-21.7-294.5-27.1-442.8-29.3c-254.2-3.7-473.5,81.7-664.4,246.9
			c-78.9,68.2-154.5,139.2-215,224.9c-81.2,114.8-124.4,243.8-145.4,381.4c-10.6,69.4-14.8,139-7.1,209c3.3,30.4,9.4,60.4,19.5,89.3
			c33.8,96.4,105.7,142.7,203.7,154.3c89.3,10.6,176.8-2.2,264.2-19.2c58.2-11.3,115.5-26.8,174.2-35.6c14.6-2.2,29.3-3.1,43.9-1.6
			c14.2,1.5,26.5,7.5,31.2,22c4.5,13.9,0.6,26.8-9.6,37.3c-18.6,19-41.2,33-61.9,49.4c-21.4,16.9-41.1,35.6-55.5,58.5
			c-18.7,29.6-32.5,61.5-31.2,97.9c2.5,67.5,4.3,135.2,17.4,201.7c8,40.8,26.2,53.9,67.8,51.1c10.5-0.7,21.5-1.5,31.2-5.2
			c41.6-16.1,85.2-14,128.3-15.3c148.6-4.4,297.3-8.2,445.9-12.3C2116.1,2667.5,2121.6,2666.7,2131.2,2665.7z M2372.5,1759.2
			c-254.7,0-462.2,207.5-462,462c0.2,254.4,208.4,462.2,462.6,461.7c253.6-0.5,460.8-207.8,461.2-461.4
			C2834.7,1967.3,2626.9,1759.3,2372.5,1759.2z M954.8,1385.6c-0.5-2.4-1.1-4.9-1.6-7.3c-42.7,0-85.5,1.1-128.1-0.2
			c-83.9-2.6-167.7-6.2-251.7-2.7c-52.8,2.2-102.4-18-153.7-26.7c-109.1-18.4-211.9,22.6-256.9,138.8c-7.3,18.9-7.6,19.1,12.3,19.5
			c182.2,3.1,364.3,6,546.5,8.9c29.1,0.5,28.7,0,27.4,29.8c-0.5,10.6-3.7,14.2-14.6,14c-45.2-1-90.5-0.9-135.7-1.7
			c-146.9-2.5-293.8-5-440.7-7.9c-10.1-0.2-14.9,2.5-16.3,12.9c-3.4,25-6.9,50-11.7,74.8c-3.1,16.2,1.3,22.7,18.3,20.4
			c8.7-1.2,17.6-0.3,26.4-0.3c186.3-0.4,372.6-0.7,558.9-1c5.7,0,14.2-2.9,16.5,2.3c5.1,11.4,3.7,24.4,1.2,36.2
			c-1.6,7.8-11.2,4-17.1,4.1c-195.1,0.9-390.3,1.5-585.4,2.2c-4.7,0-9.4,0.3-14.1,0.1c-6.6-0.3-9.4,2.6-9.6,9.3
			c-1.5,57.7,3.5,114.3,33.4,165.3c24,40.9,59.7,64,108.6,63.2c29.4-0.4,58.8,0.3,88.1-1.5c139-8.4,278.1-15.9,417.3-16
			c17.6,0,22.3-4.4,22.8-22.1c4.1-130.4,30.9-256.1,82.2-376.3C898.3,1474.9,925.9,1429.8,954.8,1385.6z M551.6,1323.1
			c87.5,16.3,167.6-3.2,241.7-50.7c73.5-47.1,127-111.1,158.3-192.6c63.2-164.7,7-349.2-136.6-455
			c-127.1-93.6-291.7-89.5-377.5-42.6c167.1,48.9,283.9,151.5,313.5,328.5C781.3,1091.3,699.8,1225.1,551.6,1323.1z M530.6,2007.1
			c31.6,24.7,56.3,50.5,77.5,79.6c89.4,122.5,92.4,276.9,3.1,387.9c-89,110.7-207.6,152.3-347.5,136.7c-5.3-0.6-10.6-2.9-17-0.8
			c99.6,111.3,274.8,150.1,421.2,76.7c155.4-77.9,233-251.1,187.2-418.4C809.3,2101.7,657.1,2009.6,530.6,2007.1z M1939.9,891.2
			c76.9-1.1,168.9,4.3,260.6,14c13.4,1.4,16.6-2.1,17.1-15.4c2.1-57.5,5.7-114.9,8.7-172.4c4-74.4,7.8-148.9,12.3-223.3
			c0.8-14-2.5-18.3-17.1-14.7c-223.7,54.8-380,188.6-470.4,400.1c-6.1,14.3-2.6,16.7,11.3,15.4
			C1816.4,889.9,1870.4,891.1,1939.9,891.2z M194.2,939.6c1.1,86,25.4,161.9,74.3,229.8c5.5,7.7,11,12.1,21.4,12
			c81.3-0.7,148.4-32.3,200.5-94c42.1-49.9,62.8-107.6,48.9-173.3c-23.7-112.9-149.9-198.1-268.4-183.2
			c-11.9,1.5-18.7,6.4-24.5,16.3C211.5,807.5,195,872.7,194.2,939.6z M781.5,1330.1c1.7,1.5,2.4,2.7,3.2,2.8
			c65.2,2.3,130.3,4.4,195.5,6.8c6.6,0.2,10.7-2.2,14.8-7.3c56.4-70.6,122.8-131,191.4-189.3c124.9-106,263.7-185.4,424-224.5
			c38.7-9.4,38.2-9.6,33.2-50.2c-1.2-9.9-4.5-12.2-13.9-12.3c-43.6-0.6-87,2.6-130,8.3c-176.1,23.2-336.6,86.6-481.7,189.2
			c-10.1,7.1-16.5,15.4-20.6,27.1c-34.7,100.5-98.4,177.8-188.7,233.5C799.8,1319.6,790.8,1324.6,781.5,1330.1z M316.1,1223.9
			c43.1,40.1,89,68.6,141.1,87c6.3,2.2,12.6,0.6,18.9-1.5c135.5-46.8,237.1-188.4,238.5-331.7c1.8-187.4-151.7-344.2-339-359.6
			c-4.3-0.4-8.3-0.1-11.8,2.3c-26.7,18.1-50.6,39.2-71.6,63.9c4.8,4.2,9,2.7,12.9,2.8c58.2,2.7,111.8,19.6,160.3,52.2
			c130.6,87.9,159.2,245.6,65.7,366.6C477.9,1174.8,406.8,1213.2,316.1,1223.9z M1691.6,903.9c7.9-6.2,8.4-12.4,10.6-17.5
			c10.5-24.2,19.6-49.1,31.6-72.6c101.5-199.3,261.3-324.9,479.1-376.1c18-4.2,14.4-9.4,6.2-19.4c-23.5-28.7-55.9-40.2-90.9-44.9
			c-89-12.1-178.3-9.8-267,1c-74.8,9.1-124.9,51-144.3,125.3c-27.1,104-39.4,209.8-33.6,317.4
			C1684.8,845.1,1686.1,873.1,1691.6,903.9z M1377.2,2428.8c-6.3,3.8-9.8,5.7-13.2,8c-73.1,49.1-152,85.6-235.6,112.9
			c-87.8,28.7-178.1,40.9-270,44.8c-6.6,0.3-13.9-2.1-18.2,6.7c-9.1,18.5-18.6,36.7-21.7,57.3c-2.9,19.6,4.1,33.3,22.1,41.5
			c7.4,3.4,15.3,5.9,23.2,8.1c53.2,14.3,107.9,15.4,162.4,17c88.7,2.5,177.3-1.9,265.8-7.3c39.5-2.4,78.8-6.6,120.1-10.2
			c-22.6-45-23.8-91.8-28.8-137.7C1378.4,2523.9,1376.2,2477.7,1377.2,2428.8z M295.2,2430.9c49,0.2,99.2-13.8,143.9-45
			c54.1-37.8,74-86.3,56.6-146.4c-25.5-88.3-87-143.6-170.1-177.8c-7.5-3.1-12.2-0.4-17.5,3.4c-106.2,74.6-159.4,177-160.4,306.6
			c-0.1,17,0.8,29,23.7,35.5C210.6,2418.4,248.8,2431,295.2,2430.9z M1516.6,2228.9c-59.8,5.3-117.1,20.5-174.9,32.8
			c-44.5,9.5-90.5,11-134,26.6c-73.1,26.1-140.5,62.2-202,109.2c-50.7,38.7-96.8,82.1-129.7,137.7c-2.3,3.8-7.3,7.7-5,12.3
			c2.5,5,8.5,2.4,12.8,2c30.4-2.5,61-3.9,91.1-8.5c149.7-22.5,285.2-79.4,407-169.3c7-5.2,13.5-10.5,17.7-19
			c17.2-35.5,42.7-64.4,73-89.3C1487,2251.6,1501.9,2240.4,1516.6,2228.9z M158,2447.6c8.5,38.4,22.4,71,41,101.7
			c2,3.2,4.6,4.3,8.2,5.3c88.5,26.2,175.6,24.9,258.8-17.5c101.6-51.7,167.6-131.4,166.1-249.7c-1.5-123.5-66.7-211.9-170.6-274
			c-5.9-3.5-11.9-4.6-18.5-3.2c-24.7,5.2-49.2,11.1-72.4,21.7c0.8,1.2,1.2,2.6,2,3.1c4.5,2.7,9.2,5.2,13.7,7.8
			c68.7,39.3,120.4,93.6,146.4,169.5c27.9,81.3,6.6,151.6-61.5,203.3c-60.3,45.8-129.4,62.1-204,57.7
			C230.7,2471.3,195.7,2461.7,158,2447.6z M1015.4,870.9c6.5-4.3,11.8-7.7,17-11.4c58.4-41.8,120.5-77.2,186.2-106.1
			c130-57.2,266.1-87.1,408.2-88.6c13.7-0.1,17.8-4.7,19.1-17.9c2.7-26.8,6-53.8,12-80c4-17.7-1.6-19.1-16.8-18.3
			c-122.6,7.1-241.7,31.4-357.4,72.6c-100.6,35.8-194.7,84.3-283.3,143.6c-5.9,3.9-14.8,6.5-10.2,17.2
			C1002.1,810.2,1008.7,839.9,1015.4,870.9z M2266.3,774.4c4.3-0.5,6.6-0.6,8.9-1c115.1-20.7,230.9-25.4,347.3-13.5
			c79,8,156.7,23,232.6,46.4c10.1,3.1,14.9,1,18.1-9c6-18.4,12.2-36.8,19.6-54.6c5.8-13.8,0.8-19.1-12.1-24.1
			c-117.6-45.6-239.1-71.3-365.4-74.6c-77.2-2-153.7,3.4-229.5,17.9c-6.4,1.2-13.1,1.1-13.6,10.2
			C2270.4,706,2268.4,739.8,2266.3,774.4z M2482.8,796.5c-58.8,0.4-132.4,7-205.4,20.6c-8.2,1.5-14.2,2.8-14.3,13.4
			c-0.3,22.3-1.6,44.6-3.1,66.9c-0.7,9.8,1.2,14.3,12.6,15.7c62.4,7.7,124.3,17.9,185.9,30.6c11.2,2.3,21.3,1.2,32.2-3.7
			c98.6-44.4,197.6-47,296,0.3c10.6,5.1,14.2,1.9,18.5-6.7c12.1-23.5,23.8-47.2,37.2-69.9c7.8-13,3.4-15.6-8.9-19.2
			C2723.9,812.7,2612.1,797.2,2482.8,796.5z M1020.8,998.8c5.6-3.5,11.4-7.1,17.2-10.9c100-64.4,207.6-111.2,322.7-140.9
			c86.2-22.3,173.9-33.6,263-33.9c12.3,0,15.9-3.6,15.5-16c-0.8-24.6-0.8-49.4,0.7-74c0.8-13.1-3.7-15.5-15.6-15.3
			c-58.9,0.9-117.2,6.7-174.9,18c-153.9,30.4-293.2,93.3-418.2,188c-5,3.8-10.7,7-10.6,15C1021,951.7,1020.8,974.5,1020.8,998.8z
			 M1638.6,438.2c-66.3,3.8-132.5,8.4-198,19.5c-126.5,21.6-245.3,62.7-350.5,138.3c-46.6,33.5-87.6,72.7-122.1,118.6
			c-3,4-8.1,7.5-3.5,13.7c1.8,2.4,3.4,5.4,6.8,3.7c3.7-1.8,7-4.3,10.4-6.6c133.2-88.8,277.9-151.2,433.8-187.9
			c79.7-18.8,160.6-28.4,242.2-32.9c9.7-0.5,14.5-3.1,17-13.1c3.7-14.7,9.1-29.1,15-43.1c3.5-8.5,1-10.3-7-10.2
			C1667.9,438.4,1653.2,438.2,1638.6,438.2z M2902.2,680.6c-0.2-30.4-5.9-57.3-10.2-84.5c-2.2-14.1-9.1-19.1-22-22.2
			c-105.9-25.5-213.1-40.3-322.1-43c-85.3-2.1-170.1,2.1-254.6,14c-10.2,1.4-14.2,4.6-14.3,15c-0.2,16.4-1.5,32.8-2.8,49.2
			c-0.6,7.9,1.7,10.4,9.9,8.6c13.7-2.9,27.7-4.8,41.6-6.8c126.1-18,251.7-14.2,376.6,10.7C2771.2,635,2836.2,654.6,2902.2,680.6z
			 M2464.4,409.4c-63.8,0.6-121.8,5.1-179.5,12.9c-7,1-13.2,1.3-10,11.3c5.9,18.7,7,38.1,6.4,57.5c-0.3,9.9,2.8,11.7,12.3,10.2
			c17.9-3,36.1-4.5,54.2-6.4c115.6-12.1,231.1-10.5,346.5,3.3c54.8,6.6,109.1,15.9,162.9,28.5c3.9,0.9,8.8,3.5,11.7,0.1
			c3.6-4.3-0.7-8.4-2.9-12.4c-6.9-12.6-16.3-23.1-27.8-31.5c-26.5-19.3-56.5-31.2-87.9-39.5C2654.8,418.1,2556.8,413.1,2464.4,409.4
			z M909.4,2420.8c29.4-26.1,59.2-49.7,89.9-72.3c30.8-22.7,64.4-41.2,101.3-62.9c-86.6-5.6-162.3-25.5-222.5-86.2
			C907,2270.8,917.6,2344.1,909.4,2420.8z M822.6,2109.3c-15.7-44.1-23.3-89-26.4-134.8c-0.7-10.7-6.5-10.5-14-10.3
			c-37.6,0.9-75.1,1.9-112.7,2.5c-22.3,0.4-44.7,0.1-67,0.1c-0.2,1.7-0.4,3.4-0.7,5.1C690.3,1993.9,763.1,2040.6,822.6,2109.3z"/>
		<path class="st0" d="M1623,2023.1c-82.4-1.4-163.2,17.5-244.6,31c-69,11.5-138.6,19.6-204.6-9.8
			c-86.3-38.4-147.3-100.2-153.2-199.9c-4.3-72.4,31-129.8,81.9-178.3c39-37.1,84.9-63.1,136.4-77.8c16.4-4.7,20.2-13.3,22.3-27.7
			c15.4-106.9,62.3-197.6,143.2-269.5c73.8-65.5,161.7-100.6,258.8-114.1c67.3-9.4,134.5-12,201.7-0.6
			c156.6,26.4,272.2,139.3,302.9,295.2c1.4,6.9,2.7,13.8,3.8,20.8c4.6,28.7-3.7,36.5-33,32.2c-9.4-1.4-6.6-8.7-7.4-13.5
			c-6.6-42.6-18-83.6-37.9-122.1c-48.4-93.5-125.4-150.1-228-168.4c-100.4-17.9-200.4-11.1-296.8,24.2
			c-149.9,54.8-236.8,163-264.8,319.5c-2.4,13.6-0.5,19.3,15.1,20.8c44.4,4.2,88.6,10.3,132.9,15.6c31.2,3.8,58.4,17.4,84,34.4
			c15.5,10.3,23.9,8.3,34.5-8c34.1-52.5,83-79.9,146.4-79.6c26.4,0.1,52.9-0.7,79.3,0.2c29,1.1,52.3,13.5,65.3,40.5
			c4,8.3,9.5,8.6,16.8,8.3c65.2-2.9,130.3-5.7,195.5-8.5c9.9-0.4,22.3-3.5,20.1,12.9c-1.6,11.8,10.6,30.4-16.6,31
			c-63.4,1.4-126.8,5.2-190.2,7.1c-11.5,0.3-15.9,3.3-18.4,14.8c-10.1,46.8-37.8,78.6-84.4,92.2c-40.9,12-82.6,18.5-125.2,10.4
			c-37-7-66.1-26.7-88.1-56.9c-5.2-7.2-10.6-11.6-19.6-12.6c-14.2-1.6-26.9-8.1-38.7-15.7c-26.1-16.8-53.8-27.3-85.3-30
			c-43.3-3.6-86.3-10.2-129.4-15.4c-22-2.7-42.9,0.9-63.7,9c-57.3,22.4-105.8,56.1-140.1,107.8c-49.5,74.6-38.7,154.7,26.3,216.5
			c57.2,54.4,125.5,68.9,200.5,58.9c66.2-8.8,131.8-21.9,198-31.1c57.1-7.9,114.7-13,172.2-5.2c43.4,5.9,72.7,32.2,88.2,72.2
			c19.8,51,19.7,104.6,16.2,158.2c-6.5,99.4-85.8,163.4-185.2,171.6c-17.5,1.4-22.7-3.7-23.8-21.1c-1-16.2,1.1-20.8,19-22.3
			c50.1-4.1,94.9-21.1,125-65.2c16.2-23.8,22.2-50.6,22.9-78.4c1-37.6,0.2-75.2-9.1-112.1c-9.7-38.8-33.2-58.4-73.3-61.6
			C1655.4,2021.9,1639.6,2020.4,1623,2023.1z M1749.4,1589.9c0,0.2,0,0.5,0,0.7c-13.5,0-27-0.4-40.5,0.1
			c-46,1.7-79.5,24.4-104.7,61.8c-5,7.4-5.3,12.8,0,20.2c15.4,21.7,36.3,34.8,61.8,40.6c37.3,8.5,73.5,0.7,109.1-9.9
			c32.1-9.6,48.3-33.6,52.6-65.7c4-30-11.1-47-41.3-47.8C1774.1,1589.7,1761.7,1589.9,1749.4,1589.9z"/>
		<path class="st0" d="M2372.3,2547c-167.3-0.1-302.9-135.4-303.1-302.5c-0.1-166.7,135.7-302.2,303-302.3
			c167.3-0.1,303,135.3,303,302.3C2675.3,2411.6,2539.6,2547.1,2372.3,2547z M2604.6,2129c-32,21.8-65,30.8-101.6,20.5
			c-58.4-16.5-89.7-80.3-68.4-141.4c4.4-12.7,1.5-15.5-10.4-17.8c-31.6-5.9-62.9-6.4-94.7-1.8c-12,1.7-13,5.8-10.3,17.1
			c12,51.5,1.3,97.6-40,132.4c-40.8,34.4-87.4,37.3-135.5,16.6c-9.7-4.2-14.2-4.1-17.5,7c-9.8,33-14.9,66.3-12.6,100.8
			c0.8,12.6,2.5,16.9,16.9,12.1c54.1-18.2,111.8-1.1,142.7,40.6c33.7,45.5,34.3,104.8,1.6,153.3c-2.7,4-7.8,7.1-7.2,13.8
			c54.1,23.2,109.7,27.8,168,13.9c-3.1-6.2-5.8-11.4-8.3-16.6c-25-51.3-17.3-112.2,19.2-153.4c41-46.2,105.9-57.8,165.9-28.9
			c9.7,4.7,13.3,5.8,15.3-6.9C2636.7,2234.6,2629.8,2181.6,2604.6,2129z M2456.3,2416.1c-0.7,19.5,5.3,36.9,14.9,53.5
			c4.9,8.5,9.7,11.2,19.6,5.9c50.9-27,88.8-66.2,115-117.3c4.5-8.7,3.3-13.6-5.1-18.4c-31.8-18.1-64.4-21.6-97.1-4.3
			C2471.6,2352.4,2457.1,2380.6,2456.3,2416.1z M2179,2310.3c-18.9-0.3-32.4,3.2-45.4,9.1c-6.8,3.1-7.9,6.6-5.3,13.6
			c18.1,48.6,47.9,88.3,89.1,119.7c6.1,4.7,10.6,5.8,16-1.1c21.8-28,29.6-58.6,15.8-92.2C2235.7,2326.4,2208.6,2312.5,2179,2310.3z
			 M2199.9,2123.5c55.1-0.4,92.8-52,78.3-106.2c-3.1-11.5-7.3-12.2-16.9-7.4c-32.4,16.1-61.1,37.1-84.5,64.7
			c-9.2,10.9-27.1,24.2-21.7,35C2162,2123.3,2183.2,2123.4,2199.9,2123.5z M2471.3,2046.4c0.5,24.7,9.9,45.1,32.2,56.6
			c23.2,11.9,46.4,8.7,68.6-4.5c8.2-4.8,8.5-9.3,2.5-16.5c-19.5-23-41.2-43.5-67.4-58.7c-8.4-4.9-18.1-16-25.9-11
			c-9.4,6-10.3,20.3-10.1,32.3C2471.3,2045.3,2471.3,2045.9,2471.3,2046.4z"/>
	</g>
</g>
</svg>
