<?xml version="1.0" encoding="utf-8"?>
<!-- Generator: Adobe Illustrator 23.0.0, SVG Export Plug-In . SVG Version: 6.00 Build 0)  -->
<svg version="1.0" xmlns="http://www.w3.org/2000/svg" xmlns:xlink="http://www.w3.org/1999/xlink" x="0px" y="0px"
	 viewBox="0 0 3000 3000" style="enable-background:new 0 0 3000 3000;" xml:space="preserve">
<style type="text/css">
	.st0{stroke:#000000;stroke-width:10;stroke-miterlimit:10;}
</style>
<g id="Layer_1">
</g>
<g id="Layer_2">
	<g>
		<path class="st0" d="M2701.9,2028.3c127.6,49.5,171.5,155.5,193.7,275.2c12.5,67.4,8.1,134.9-9.5,201.4
			c-40.9,154.4-162.1,259.5-320.8,278.8c-113.5,13.8-218.6-4.6-310.1-77.8c-1.3-1.1-2.9-2-3.9-3.3c-19.5-27.2-38.5-27.9-72.5-16.5
			c-49,16.4-103.4,9-153.4-11.1c-7.6-3-13.1-8-22.2,1c-39.3,38.5-79.5,43.8-126.9,14.9c-18.8-11.4-30.3-11.3-48.7,1.8
			c-54.2,38.5-129.7,32.6-183.7-12.2c-10.9-9.1-17.4-9.9-30.5-3.5c-49.1,24-97.9,21.2-143.5-10c-10.5-7.2-15.9-8.3-24.8,2.2
			c-85.3,101.8-198.5,127.6-324.4,117c-40.2-3.4-79.8-9.6-118.1-23.3c-55.7-20-102.7-51.3-135.4-101.4c-8.5-13-13.4-12.6-24.7-2.9
			c-97.1,83.7-213.3,86.6-314.2,7.7c-12.1-9.5-18.1-10.7-28,2.1c-14.7,19-32.6,35-51.7,49.8c-54.5,42.2-112.2,33.6-149.9-24.4
			c-35.2-54.1-49.4-116.4-63.6-178.2c-58.4-253.8-80-511.1-69.8-771.2c0.8-19.4,0.1-33.2-20.5-46.4c-41.4-26.5-55.2-67.3-51.7-117.7
			c5.4-77.3,32.9-145.2,77.6-206.3c52.2-71.3,81.9-153.4,116.5-233.2c9.5-22,26.1-44.5,25.5-66.3c-0.7-24.9-34.6-26.5-52-41.3
			c-57-48.3-86.7-109.3-92.6-182.9c-8.2-102,21.7-196.6,57.8-289.8c24.1-62.3,49.4-124.1,88.2-179.3
			c59.1-84.1,136.2-139.3,241.1-148.7c71.2-6.4,137.8,11.5,200.6,43.8c14,7.2,26.1,9,41.1,4.3c54.3-16.8,110.6-23.8,166.9-28.5
			c130.8-11,261.7-21,393.2-12.3c54.8,3.6,110,6.7,163.4,18.5c65.7,14.5,130.8,11.6,196.7,6.4c226-17.9,452.2-20.1,678.6-5.2
			c75.3,5,150.4,10.3,224.5,25.4c140.8,28.7,224.9,115.5,261.5,252.2c24.3,91,33.1,184.1,34.1,277.5c2.8,246.2-2.2,492.2-20.3,737.8
			c-4.6,62.4-12.8,124.6-26.8,185.6C2842.5,1851.5,2804,1957.7,2701.9,2028.3z M1841,2445.8c-0.3,0-0.6,0-0.9,0
			c0-47.2,0.4-94.3-0.2-141.5c-0.2-16.4,0.6-26.4,22.6-26.1c21.6,0.3,20,11,20.1,25.6c0.2,84.1,1.2,168.1,1.6,252.1
			c0.1,17.1-2.3,34.3-1.9,51.4c0.3,13.2-15.6,27.9,2.8,39.6c13,8.3,26.4,16.2,42.1,18.1c28.3,3.4,44.4-7.7,49.2-35.9
			c2.6-15.1,3.1-30.7,2.7-46.1c-2-84-4.3-168-7.3-252c-0.6-16,1.1-25.3,20.8-26.7c21.7-1.5,23.2,9.5,23.5,25.9
			c1.5,91.7,3.8,183.5,5.1,275.2c0.2,12.6,2.9,21.7,14.5,26.9c42.1,18.9,86.4,20.9,131,14.6c20-2.8,25.6-15.1,15.1-35.5
			c-30.1-58.5-40-121.4-37.1-186.9c6.5-144.3,101.3-241.7,245.2-251.3c81.2-5.4,155,35.8,185.7,103.9
			c34.6,76.7,17.8,173.1-39.9,228.8c-37.9,36.6-88.1,40.1-131.2,9.3c-40-28.6-60.8-68.8-69.1-116.1c-5.3-30.1-10.9-33.4-37.5-17.1
			c-46.2,28.2-64.2,73.2-73.8,123.8c-13.9,73.8,7.1,132.3,69.4,176.4c57.2,40.5,120.9,60.9,189.9,62.6
			c116.8,2.8,220.9-29.3,297.6-122.9c105.8-128.9,104.6-360.8-2-489.4c-44.6-53.9-102.2-78.7-173-66.9c-13.7,2.3-27.4,1.7-41-0.5
			c-59.2-9.2-118.1-21.5-177.6-27.1c-78.5-7.3-157.4-10-236.2-13.7c-91.6-4.2-183.1-11.1-275-8.1c-85.6,2.7-171.3,12-257,0.6
			c-24.6-3.3-49.3-10.4-73.7-9.3c-113.9,5.1-228,9-340.9,25.3c-64.7,9.3-129.6,21.9-180.2,67.9c-129.4,117.6-182,265.3-159.6,437.4
			c12.6,97.3,70.8,160.7,166.1,189c44.1,13.1,89.2,16.6,134.6,18.5c193.1,8.4,337.7-147.6,314.8-339.5
			c-8.8-74.2-82.2-135.9-156.9-132c-44.8,2.4-62.3,30.8-43.7,71.1c2.9,6.2,5.9,12.4,8.3,18.8c40.5,105.4-22.5,190.6-134.9,182.6
			c-103.8-7.4-157.6-83.3-128.1-182.4c24.2-81.3,75.4-141.6,150.2-180.9c38.6-20.3,80.5-29.9,124.3-24.3
			c97.4,12.3,158.7,72.4,198,156.9c44.1,94.9,35.9,190.4-8.1,283.1c-9.7,20.5-4.4,29,12.2,37.9c30.9,16.5,62.3,19.3,93.1,1.7
			c28.7-16.5,30.9-45,29.6-74.4c-3.8-89.1-6.3-178.2-2.2-267.4c0.6-13.8,0-24.7,20.1-23.3c18.3,1.3,25.1,6.2,24,25.7
			c-4.9,87.4-1.8,174.9,0.3,262.3c0.5,20.6,1,41.3-6.1,61c-2.5,6.9-2.9,12.2,2.5,18.6c25.9,30.3,76.7,41.7,121.2,26.3
			c38.9-13.5,56.4-40.2,56.6-87.8C1841.2,2535,1841,2490.4,1841,2445.8z M136.6,1585.6c-5.3,40.5,9.6,68.1,41.5,84.7
			c100.2,52,203.9,53.2,307.3,12.7c87.3-34.2,117-121.5,74.5-205.5c-21.4-42.3-57.5-57.8-102.9-44.2c-30.4,9.1-56.1,26-77.2,49.1
			c-17.9,19.6-21.8-5.4-31.7-9.2c-10.6-4.1-8-12-0.4-19.7c28.9-29.1,61.6-52,101.6-62.7c62.5-16.6,117.1,6.8,147.2,64.2
			c21.3,40.6,28.7,84.2,20.8,129.6c-2.6,14.7-0.6,19.5,16.3,17.2c53.6-7.5,107.7-9.9,161.7-7.5c59.9,2.7,119.8,6.7,179.5,11.9
			c15.4,1.3,20.8-2.3,24.6-16.7c8-30.1,21.8-57.6,42.5-81.3c58.1-66.7,143.7-85.8,232.1-52.2c7.7,2.9,16.3,13.6,24.7,1.6
			c31.1-43.9,68.1-84.4,86-136.4c14.6-42.3,9.8-82-26.3-112.3c-44.8-37.6-75.4-84-92.2-139.5c-4.1-13.6-10.2-14.5-22.3-12.3
			c-26.1,4.8-52.5,8.1-78.8,11.8c-266.1,36.8-533.4,59.6-802,64.1c-20.4,0.3-30,7-37.4,25.9c-36.7,93.3-78.6,183.9-136.9,266.4
			C154.6,1473.8,136.9,1529.3,136.6,1585.6z M2477.8,1998.4c49.6,4.9,94.8,8.8,139.7,14.3c14.6,1.8,26.7-1.2,39.2-7.9
			c67.8-36.4,108.8-94.9,136.5-164.5c33.3-83.7,47.4-171.7,56-260.4c22.7-235,22.4-471,24.6-706.7c1-102.8-5.6-205.7-29.2-306.5
			c-24-102.2-73-185.1-177.4-222.6c-93.2-33.5-191.4-35.5-288.8-41.9c-15.7-1-15.6,8.9-17.6,19.2c-21,109.4-40.7,219-54.8,329.4
			c-12.7,99.5-25.2,199.1-17.1,299.9c4.7,58.9,12.5,66,69.2,70c17.7,1.3,20-4.1,17.2-19.8c-37.9-214.4,68.1-399.8,270.4-473.4
			c9.8-3.6,22.4-14.4,27.6,5.7c3.6,14,11.7,25.4-12.4,34.2c-175.4,64.7-267.3,214.9-248.2,400.8c5.7,55.3,8.6,58,64.9,59.9
			c8.6,0.3,17.5-1.1,25.6,0.9c16.7,4.1,20.8-0.8,23-18.3c15.5-122.3,123-222,244.4-230.2c14.8-1,20.1,1.5,20.4,16.3
			c0.3,13.8,1.7,24.2-18.1,26.1c-96,9-175.6,77.7-199.9,170.5c-10.8,41.2-10.7,41.3,24.3,65.3c6.3,4.4,13.1,8.6,18.3,14.1
			c9.8,10.5,17,9.4,27.1-0.8c30.8-31,63.5-60.2,94-91.5c14.6-14.9,19.8-1.7,27.9,5.7c8.3,7.6,16.3,13.5,2.9,25.6
			c-32.4,29.3-63,60.6-95.1,90.3c-10.1,9.4-10.7,15.6,0.4,23.6c16.5,12,23.1,28.9,23,49.1c-0.1,28.2,8.1,53.5,24.6,76.9
			c25,35.4,31.6,75.3,22.8,117.6c-3.6,17.5-2.1,33.5,6.5,49.7c7.5,14.2,17.6,30,11.7,46.1c-15.9,43.2-23.2,89.9-45.6,130.3
			c-32.3,58.4-67.9,115-101.9,172.4C2569.2,1843.7,2524.4,1919.5,2477.8,1998.4z M2707.9,1437.2c-3.9,6.3-7.1,11.3-10.2,16.4
			c-71.8,121.6-144.1,243-214.7,365.3c-10.7,18.6-18,15.1-32.9,7.5c-17.9-9.1-12.1-17.7-4.8-29.9c79-133.3,157.5-266.9,236.4-400.3
			c33-55.9,29.6-92.8-15.2-144.8c-52.3,96.7-104.3,193-156.4,289.2c-39.5,73-79.3,145.9-118.5,219.1c-6.1,11.4-10.7,16.2-25.2,9.6
			c-20.1-9.1-20.4-17.6-10.4-35.9c95.6-175.1,190.2-350.6,285-526.1c20.3-37.5,19.7-38.8-16.7-64.5c-4.6,7.2-9.3,14.3-13.6,21.6
			c-109.2,185.1-218.5,370.1-327.4,555.4c-8.9,15.2-14.7,23.2-34.7,11.6c-22.3-12.9-8.8-22.7-2.2-33.9
			c82.9-140.9,166-281.8,248.9-422.7c20.6-34.9,41-70,61.5-105c-109.3,88.8-199.7,193.4-276.2,310c-41.3,63-75.9,130.4-121.5,190.6
			c-48.3,63.8-110,103.8-191.6,111.3c-80.6,7.4-161.1,4.7-241.6,0c-47.5-2.8-94.3-10.1-136.4,23.4c-14.6,11.6-36,15.3-54.8,21.1
			c-52.6,16.1-106.9,20.7-165.9,21.3c22.9,25.5,47.6,41.9,72.2,58.1c57.4,37.8,117.2,66.6,189.9,56.6c30-4.1,61.1,0,91.6,0.2
			c106.3,0.7,212.4,9.3,318.9,7.8c123.6-1.7,246.8,6.4,369.1,25c14.8,2.2,21.5-3.9,28.2-15.4c32.8-56.2,67.9-111.1,99.1-168.2
			c60.1-109.9,141.4-208.7,174.8-332.8C2716.4,1464.6,2723.3,1451.5,2707.9,1437.2z M2261,1023.4c-17.8-57.4-19.4-112.1-17.5-167.1
			c1.1-30.2,1.2-30.1-29-20.8c-226.9,69.5-456.8,127.2-689.7,172.7c-66.4,13-133.1,24.6-199.8,35.7c-17.4,2.9-21.2,8.4-14.3,24.8
			c14.3,34.4,31.1,66.6,59.3,92c14,12.6,28.3,25.4,39.3,40.5c9.1,12.5,16.5,12.9,29.8,7.9c47.7-18,96.9-28.6,148.3-25.8
			c93,5.1,150.4,57.2,160.2,145.8c2.3,20.4,3.6,41,4.3,61.6c2.2,61.1,2,60.4,63,60.2c17.5,0,21.2-5.9,21-22.1
			c-0.6-89.2,0-178.3-0.1-267.5c0-14.1-2.3-26,19.8-25.8c20.3,0.2,23.8,7,23.6,25.3c-1.2,88.3-0.5,176.6-1.7,264.9
			c-0.2,18.6,6.4,21.9,22.6,18.5c39.4-8.4,77.9-19,114.1-37.8c16.4-8.5,23.6-17.9,23-37.2c-2.3-84-2.6-168-4.3-252
			c-0.3-15.4,1.8-23.4,20.3-23.3c17.3,0.2,24,4.1,24,22.6c-0.1,71.1,1.1,142.3,2.3,213.4c0.1,8.8-3.1,18.8,5.7,27.9
			c26.3-21.2,48-46.1,68.3-72.7c13.1-17.3,18.4-35.3,16.8-57.1c-3.1-41-3.3-82.2-6-123.3c-1.4-20.5,13.1-15.3,23.8-17.2
			c12.2-2.2,19,0.2,19.1,15.2c0.1,15.2-3.1,31.5,6.8,48.2c11.6-33.8,14.1-66.2,14.7-98.7C2228.9,1031.4,2233.4,1017.3,2261,1023.4z
			 M545.5,1701.6c8.9,0.8,13,1.2,17.1,1.4c88.3,5,176.6,0.2,264.9-0.9c48.2-0.6,66.5,25.3,52.2,71.5c-8.5,27.3-23.2,51.5-39.2,74.9
			c-58.5,85-126.8,161.9-196.1,238c-115.5,126.8-239,246-359.1,368.3c-9.4,9.6-17,18.2-13.1,33.3c10.9,43.2,20.4,86.7,36.2,128.5
			c8.8,23.2,17.8,46.5,34.8,65.3c20.3,22.5,40.2,25.7,66.4,10.5c21.8-12.6,39.7-29.8,55.8-48.9c122.1-145,234-297.8,347.5-449.3
			c81.6-109,160.5-220.1,219.3-343.9c16.6-35,30.2-71,35.4-109.6c6.7-49.8-9.9-75.9-59-84.4c-131.7-22.7-264-27.1-396.7-8.9
			c-9.3,1.3-18.2,3.5-24.1,12.6C577.8,1675.3,563.6,1686.6,545.5,1701.6z M1821.4,300.1c-70.7,5.3-137,10.3-203.3,15.5
			c-9.4,0.7-14.7,8.4-20.8,14.2c-76.9,71.9-143.5,152.2-193.7,244.9c-66.2,122.2-105.4,252.3-109.3,391.9c-1.1,40,0.4,39.9,39,33
			c43-7.7,86-14.9,129-22.7c100.2-18.2,199.6-40.6,298.9-63.1c12.3-2.8,19-5.5,13.7-21.5c-11.8-35.7-19.3-72.6-24.5-109.9
			c-13.4-96.6-13.1-192.6,7.1-288.5C1771.1,428.5,1792.2,365.7,1821.4,300.1z M257.8,2418.7c6.4-5,9.9-7.3,12.7-10.1
			c147.2-149.9,299.2-295.3,435-456.1c47.5-56.3,96.1-112.1,128.1-179.4c13.5-28.4,12.4-30.4-17.7-28.5
			c-103.8,6.5-207.4,4.6-311.1-0.7c-22.9-1.2-45.5-5.7-69-0.6c-69.9,15-139.9,12.6-208.8-5.8c-16-4.3-18.2-0.3-18.8,14.4
			C198.5,1974.6,216.1,2195.4,257.8,2418.7z M1684.8,1736.7c93.4,4.9,180.1,10.1,267.4,4.1c77.1-5.4,134.5-41.6,177.6-103.3
			c19.1-27.3,37.9-55.1,54.5-83.9c88.8-154.2,197.4-292.2,330.4-410.7c18.4-16.4,36.9-32.6,55.9-49.3c-13.1-10.3-24-18.4-40-19.2
			c-64.9-3.3-129.7-7.9-194.6-12c-21.3-1.3-42.9-1.5-62.1-21c-1.8,16.7-3.5,29.1-4.4,41.6c-6,82.3-32.4,157.9-80.3,224.5
			c-95.7,132.8-228.6,190.5-390.1,185.9c-47.9-1.4-48.5-2.7-49.8,46.2C1747.4,1609.4,1735.6,1675.9,1684.8,1736.7z M1352.7,1832.9
			c-5.5-27.8,7.2-28.7,25.1-28.7c69.1,0,136.5-9.8,199.6-40.1c65.9-31.6,111.1-81.7,121.7-155c13.7-95.2,15-191.3,3.2-286.9
			c-6.8-54.8-41.8-85.6-96.7-93.7c-55.1-8.2-107.1,4-158.3,22.7c-7.3,2.7-13.9,5.5-13.1,15.9c5.1,64.6-27.3,114.8-62.9,164
			c-26,36-53.1,71.2-76.4,109.4C1232.3,1643.4,1259,1744.9,1352.7,1832.9z M718.9,308.4c-132.7-70.4-283.5-30-369,97.1
			c-61.4,91.3-96.4,194.2-125.6,299.1c-11.8,42.3-17.2,85.7-14.9,129.7c4,75.4,32.4,137.3,98.4,179.2c18.1,11.5,26.6,13.2,36.3-10.9
			c51.1-127.1,94.3-256.8,137.7-386.6c13.3-39.7,28-78.9,45.5-117C566.8,412.7,631.9,352,718.9,308.4z M1459,1968.2
			c-11.6-7.9-17.6-12.3-24-16.3c-66.7-41.7-131.7-87.4-169.8-157.4c-22.6-41.5-49.7-54.5-92.9-48.3c-19.3,2.8-42.5-4.5-57.9,3.9
			c-15.2,8.3-10.7,34.1-16.7,51.7c-30.6,90.2-79.3,170.8-131.8,249.2c-127.8,191-270.3,371.1-411.8,551.9
			c-10.8,13.8-11.6,20.7,3.2,32.3c84.6,66.6,196.6,58.7,269.4-20c6.9-7.5,9.6-13.6,6.3-24.7c-26.4-89.9-22.2-180.1,4.9-268.6
			c56.6-185,165.3-312.9,371.1-333.9C1289.9,1979.9,1371,1974.2,1459,1968.2z M355.1,1089.8c22,0,39.9,0.5,57.8-0.1
			c120.9-3.6,241.6-10.5,362.1-20.5c152.9-12.7,305.2-30.9,457-53.2c16.2-2.4,24.5-6.7,20.4-25.6c-4.4-20.1-2.6-41-0.5-61.5
			c20.8-204.5,95.4-386.2,230.9-541.8c22.9-26.3,47.1-51.4,72.7-79.1c-51.4-10.3-100.6-15.7-149.9-21.4
			c-18.9-2.2-22.3,4.6-23.3,22.1c-2.8,51.3-7,102.5-19.8,152.6c-70.6,276.4-236.8,463.5-514,542.5c-144.3,41.1-290.1,32.8-434-8
			c-10.5-3-19.1-8.1-24.7,6.5C379.1,1030.3,367.8,1057.9,355.1,1089.8z M575.7,497c49.7-8.1,93.6-11.2,138-4.3
			c109.9,17.1,175.7,91.9,174.8,202.9c-0.7,92-24,177.8-74.9,255.3c-3.8,5.8-10.8,10.6-9.6,20.5c32.4-6.6,63.1-16.9,94.1-26.7
			c16.1-5.1,18.3-13.7,15.5-28.6c-35.2-190.5,133.8-356.3,330.9-308.3c17,4.1,22.4-0.7,28.5-14.2c42.2-94.3,63.6-193.2,67.7-296.1
			c0.3-8.1,1.2-15.1-10.7-15.7c-12.8-0.7-14.1,6.2-13.4,15.9c0.3,4.3,0.2,8.6,0.2,12.9c0.4,64.4-2.1,128.6-16.7,191.6
			c-17.4,74.9-79.4,104.1-146.9,68.1c-15.4-8.2-23.2-8.2-36.2,4.3c-28.2,26.9-63.1,35.3-99.9,20.3c-35.3-14.3-47-45.1-48-81.1
			c-0.2-8.6-0.1-17.1,0.1-25.7c1.7-65.7,8-130.7,30.5-195.4C831.7,305.8,674,332.2,575.7,497z M658.8,532.2
			c-20.6-0.3-40.8,3.3-61.2,4.7c-34.9,2.4-51.1,20.5-61.7,52.8c-38.2,116-75.8,232.3-120.2,346.1c-5.4,13.7-0.4,17.5,11.7,20.5
			c54.1,13.2,108.5,23.6,164.1,28.4c17,1.5,29.2-2.2,41.2-14.3c107.7-109.1,142-237.4,97.5-384.2C712.1,526.8,721,534,658.8,532.2z
			 M2190.4,2455.8c3.7-8.5,7.1-17.2,11.1-25.6c21.1-43.9,50.6-80,98.2-96.2c44.6-15.2,85.8,13.1,83.6,57.7
			c-2.2,44.6,21.8,72.1,55.5,93.8c20,12.9,42.1,11.4,59.6-4.7c42.9-39.4,59.8-89.1,50-146.4c-9.4-55.3-40.1-95.3-95-110.5
			c-66.6-18.5-129.6-5.9-185,35.4C2202.9,2308.1,2188.6,2379.3,2190.4,2455.8z M2143.8,639.4c-0.8,41.4,4.1,82.2,12.1,122.6
			c8.6,43.6,8.8,43.6,50.6,30.6c7.4-2.3,14.7-4.9,22.2-6.3c14.6-2.7,21.2-10.6,22.4-25.9c2.2-30.8,5.8-61.4,9.6-92.1
			c14.5-117.4,35-233.9,57.1-350.1c1.2-6.2,5.2-13.5-1.4-19c-11.5-9.5-66.5-0.3-74.8,12.5C2177.2,411.5,2143.3,520.4,2143.8,639.4z
			 M1912.4,296.8c-42.9,1.3-43,1.2-58.8,37.1c-71.6,162.7-88.8,330.8-48.8,504.3c14.2,61.6,14.1,60.7,75.6,46.6
			c19.9-4.6,22.8-10.8,17.1-30.5c-51.6-178.8-39.3-353.3,38.2-522.8C1952.2,295.4,1952.6,295.6,1912.4,296.8z M2083.1,292.8
			c-19.2,0-35.3,1.4-51.1-0.3c-22.3-2.5-33.6,7.4-43.3,26.7c-79.5,158.8-100.4,324-57.5,496.7c13.1,52.5,13.2,51.5,66.1,38.2
			c17.6-4.4,21.1-10.7,17.1-27.9c-28.7-124.1-27.7-247.7,5.7-371.1C2035.3,399.9,2056.8,347.2,2083.1,292.8z M1382.8,2238.8
			c-33.9-30-70.7-40.6-107.6-39.2c-103.4,3.9-205.2,104.6-215.6,208.8c-3.4,34.1,9.4,60.1,39.6,77.1c24.5,13.8,50.8,20.7,78.8,19.1
			c54.7-3.1,83.9-38.7,77.7-92.8c-1.9-16.4-6.5-32-14.1-46.4c-34.6-64.8,1.8-129.3,75.3-133.3
			C1337.4,2230.9,1357.4,2234,1382.8,2238.8z M2036.6,656.5c0.7,45.5,4.9,90.6,14.3,135.2c11.4,53.7,4.1,44,52,32.8
			c19.6-4.6,20.9-12.2,16.6-29.9c-28-114.7-25.4-228.9,9.2-342.1c15.1-49.4,36.2-95.9,61.5-140.8c2.8-4.9,11.9-10.4,3.1-17.1
			c-13.6-10.2-61.8,1.8-70,16.9C2064.8,419,2038,534.5,2036.6,656.5z M1164.3,1702.6c14.6,0,29.2-0.3,43.7,0.1
			c10.3,0.3,15.5-1.3,13.1-14.2c-11.3-61.4,5.7-117.3,36.9-169.4c9.4-15.7,6.2-21.1-9.9-27c-88.6-32.3-184.3,17.8-208.2,109
			c-3.4,13,0.1,18.4,11.5,23.2c22.9,9.7,43.2,24.8,49,49.5c6.3,27.2,22.1,32.3,45.8,28.9C1152.2,1701.9,1158.3,1702.6,1164.3,1702.6
			z M951.2,874.4c0.3,3.2,2,12.5,2.3,21.9c0.6,20.3,8.4,21.9,25,12.4c34.3-19.6,66.9-41.4,98.8-64.7c14.1-10.3,13.4-18.1,2.7-30.3
			c-20.9-23.8-39.9-49.2-61-72.8c-13-14.6-1.8-20.4,7-28.5c8.9-8.1,15.9-13.8,26.2-0.1c19.1,25.2,40.9,48.4,60,73.6
			c9.6,12.6,15.5,14.3,27.3,2.3c35.5-36.3,66.2-76.2,93.1-119.2c9.3-14.9,6-19.2-10.7-23C1085.1,615.2,950.5,725.2,951.2,874.4z
			 M1012.3,482.7c0,11.1-0.5,22.3,0.1,33.4c1.9,35.4,25.6,51,58,38.1c22.1-8.8,35.1-26.7,44.4-47.6c29.9-67,45.6-137.7,54-210.4
			c1.4-12.3-2.8-15-13.7-14.2c-26.5,1.9-53.1,5.2-79.5,4.4c-21.3-0.7-30.5,8.8-37.1,27C1019,368.3,1015.3,425.4,1012.3,482.7z
			 M767.2,554.9c50.1,162,23,303.7-87.4,430c34.9,2,59.4-3.5,80.5-32c57.8-78.2,84.7-165.5,85.6-261.2
			C846.3,634.6,826.7,586.3,767.2,554.9z M1274.3,362.2c0-22.3-0.3-44.6,0.1-66.9c0.2-11-4.3-15.7-15.2-15.3
			c-8.6,0.3-17.2,0.6-25.7-0.1c-14.7-1.3-20.4,3.5-22.1,19.5c-7.6,71.8-23.3,142-50.5,209.1c-4.9,12-0.5,16.7,8.4,22.2
			c38.3,24,76,10.1,87.5-33.6C1268.5,453,1271.3,407.6,1274.3,362.2z"/>
		<path class="st0" d="M913.1,1178.9c-55.5,92.7-115,181.7-232.8,201.9c-53.1,9.1-100.1-6.6-138.4-45c-8.2-8.2-21.4-17.1-16.9-29.5
			c4.7-12.7,20.6-10.1,32-10c59.7,0.6,117.7-9.8,174.3-27.6C796.3,1248.5,856.2,1217.4,913.1,1178.9z"/>
		<path class="st0" d="M452.7,2021.6c26.4,0.2,45.4,19.2,45.2,45.3c-0.2,25.5-20.6,46-45.8,45.7c-24.4-0.2-46.1-22.2-45.9-46.4
			C406.5,2040.8,426.7,2021.4,452.7,2021.6z"/>
		<path class="st0" d="M384.2,1938.2c0.3,24.9-20,46.1-44.7,46.8c-24.1,0.7-48-23-47.6-47c0.4-24.6,21.6-45,46.7-44.8
			C364,1893.2,383.9,1912.8,384.2,1938.2z"/>
		<path class="st0" d="M555.4,1893.1c25.6,0.4,45,20.1,45.1,45.6c0,25-20.4,45.9-45.1,46.2c-24.7,0.4-47.6-22.9-46.8-47.5
			C509.4,1912.4,530.2,1892.7,555.4,1893.1z"/>
		<path class="st0" d="M1620.4,1470.6c0,60.4-47.2,108.1-107.3,108.5c-61.4,0.4-109.9-47.6-109.8-108.8
			c0.1-60.5,47.5-108,107.5-107.9C1573.7,1362.5,1620.5,1408.7,1620.4,1470.6z M1515.1,1536.4c37-2.2,65.5-34,62.9-70.3
			c-2.6-35.6-33.8-63.4-69.1-61.7c-35.5,1.8-64.4,32.8-63.2,67.9C1447,1508.9,1478.9,1538.5,1515.1,1536.4z"/>
	</g>
</g>
</svg>
