<?xml version="1.0" encoding="utf-8"?>
<!-- Generator: Adobe Illustrator 23.0.0, SVG Export Plug-In . SVG Version: 6.00 Build 0)  -->
<svg version="1.0" xmlns="http://www.w3.org/2000/svg" xmlns:xlink="http://www.w3.org/1999/xlink" x="0px" y="0px"
	 viewBox="0 0 3000 3000" style="enable-background:new 0 0 3000 3000;" xml:space="preserve">
<style type="text/css">
	.st0{stroke:#000000;stroke-width:10;stroke-miterlimit:10;}
</style>
<g id="Layer_1">
</g>
<g id="Layer_2">
	<g>
		<path class="st0" d="M673,176c0.5-77.2,59.9-117.9,137.5-95.4c45.9,13.3,77.6,43.6,99.4,84.9c25.6,48.4,32.3,101.3,33.4,155
			c0.2,12.9,2.5,16.6,15.8,13.8c10.9-2.4,27.1,2.9,32.5-3c5.9-6.3,0.8-21.9,2.5-33.1c5.9-41,28-71.2,65.9-87.2
			c39-16.5,77.1-12.2,111.9,13c5.9,4.3,11.1,9.4,17.7,15c18.9-32.6,45.7-54.3,83.6-60.6c10.3-1.7,21-3.4,30.7-0.4
			c19.8,6.1,37.8,1.2,56.6-4.2c223.2-63.8,450.6-85.7,682.1-67.3c82.2,6.5,164.5,11,245.1,30.3c141,33.7,237.6,115.7,280.7,256.2
			c23.3,75.9,27.6,153.7,21.2,232.3c-13,159.5-64.1,307.7-134.9,449.8c-5.6,11.3-6.3,20.3-0.8,32c32,68.4,43.4,141.9,53.9,215.8
			c20.8,146.6,15.4,293.8,12.4,441.1c-3,142.5-10,284.9-20.2,427c-9.4,130-18,260.1-54.1,386.4c-17.3,60.6-41.9,117.4-81.8,166.9
			c-58.2,72.1-136.6,107.7-225.2,125.7c-77.6,15.7-156.3,20.6-234.9,24.3c-130.8,6.2-261.7,13.5-392.7,12
			c-82.5-0.9-164.7-5.8-245.2-25.4c-26-6.3-50.9-15.6-74.7-27.9c-11.9-6.2-25.8-12-32.2-23c-16.9-29.3-41-25.3-68.2-21.2
			c-153.3,23.4-307,44-462.4,48.3c-22.5,0.6-44.9,0-67.2-2.2c-69.1-6.9-109.5-47.4-117.2-117c-9.5-86.2-4.1-171.8,27.1-252.7
			c43.7-113.2,49.7-229,43.6-348.5c-7.7-151.6-3.3-303.1,28.2-452.7c37.8-180,113.2-338.5,263.8-458.2
			c-48.7-7.3-85.7-43.2-136.3-35.4c-20.6,3.2-42.3-1.2-63.5-2.2c-17.7-0.8-35-3.8-51.2-11.1c-39-17.5-45.1-60.7-12.5-88.3
			c2.8-2.3,5.6-4.8,8.9-6.3c58.2-27.9,65-77.9,57.5-133.9c-4.7-34.8-14.5-68.7-18.3-103.8c-4.3-39.8,1.8-77.4,22.1-111.8
			c5.7-9.7,3.3-12.4-4.7-17.6c-64.6-41.8-85-99.8-59.8-172.7c9.3-26.9,21-52.9,31.7-79.3c8-19.9,13.2-40.3,9.8-62
			c-5-32-21.7-46.6-53.7-47c-15.2-0.2-30.4-0.9-44.3-7.9c-40.2-20.1-53.2-76.2-27.4-116.7c25.1-39.4,65-52.1,107.6-60.3
			C606.1,163.1,638.9,167.9,673,176z M1177.3,2582.7c-0.5-1-1-1.9-1.5-2.9c29.2-20.5,58-41.5,87.6-61.4
			c12.9-8.6,16.8-19.9,15.5-34.2c-2.2-22.7-19.8-38.2-44.5-39.9c-37.9-2.6-64.5,17-87.1,44.1c-19.9,23.9-34.6,51.2-47.6,79.3
			c-21.8,47.1-36.2,96.3-41.2,148.1c-1.1,11.5-3.8,16.7-17.4,14.6c-28.8-4.5-29-3.6-25.4-33.4c0.9-7.8,2.2-15.6,3.7-23.3
			c16-80.2,45.4-154.5,97.8-218.3c21.7-26.3,48.8-45.2,82.7-53c53.8-12.3,104.7,13.4,120.4,59.2c4.2,12.4-3.5,31.3,10.5,36.1
			c11.8,4,27.2-2.5,41-4.4c0.6-0.1,1.2-0.2,1.8-0.2c61.8-5.4,118.3,5.6,163.1,52.9c3.7,3.9,8,7.4,12.4,10.7
			c14.4,11.1,24.3,10.1,35.8-4.2c15.4-19.1,16.3-41.4,11.1-63.9c-13.8-60.6-69.5-97.3-134.4-90c-30.6,3.4-61.2,8.3-92.3,1.8
			c-34.9-7.3-58.7-30.2-81.3-55c-19-20.9-42-34.4-69.8-39.6c-69.7-13.1-139.4,21.1-181.5,87.9c-32.6,51.7-45.3,109-50.2,168.9
			c-3.6,44.9,0,89.7,1,134.5c0.2,11.9-3.3,16.9-15,16.3c-6-0.3-12.2-0.2-18.2,0.5c-8.7,1-11.5-2.3-11.5-11.1
			c-0.3-51.5-5.3-102.8,0-154.5c6.4-61.7,20-120.9,53.4-173.8c48.6-76.8,116.2-120.9,210-115.2c15.1,0.9,15.4-6.8,16.4-16.9
			c4.7-51.4,5.7-102.9,4.1-154.5c-0.2-6.9-1-12.6-7.3-17.4c-26.5-20.2-52.1-41.6-78.9-61.5c-31-22.9-65.6-35.7-105-34.4
			c-69.2,2.3-127.7,31.5-180.3,73.4c-62.7,49.9-103.2,112.2-97.9,196.5c0.5,8.8-3,12-11,12.5c-6.6,0.5-13.4,0.7-19.8,2.1
			c-10.5,2.3-13.1-2-14.2-11.9c-2.7-25.4-2.3-50.9-2.9-76.3c-3.2-140.4,19.4-276.5,69.9-407.6c18.4-47.8,49.5-85.6,98.9-105.9
			c28.8-11.8,28.1-12.5,38.2,17.3c3.6,10.6,2.4,15.6-9.2,19.4c-37.9,12.2-63.9,37.7-81,73.4c-10.7,22.5-18.2,46.1-26.2,69.6
			c-4.5,13.3-2.5,18.9,11.6,23.3c87,27.1,175.3,47.5,265.8,58.6c40.7,5,71.8-11,94.7-43.8c60.7-87,146.1-115,247.5-102.7
			c63,7.7,119.6,34.3,174.2,65c7,3.9,12.6,5.2,20.2,2.3c29.2-11.3,59.8-15.7,91-14.3c93.4,4.3,186.7,3.7,280.1-0.2
			c4.2-0.2,9.6,2.6,13.1-3.3c-11.9-9.6-23.7-19.2-33.6-30.7c-22.3-26.2-33-55.8-29-90.6c2-16.9,5.6-33.4,9.8-49.9
			c10.2-40.4,23.8-80.1,27.7-122c7.7-82.4-2.9-162.1-34.2-238.8c-24.4-59.7-15.2-114.9,19.9-167.3c16.7-24.9,37-46.3,60-65.5
			c20.7-17.4,44-30.9,66.8-47.2c-55.3-2.5-110.2-2.9-165.1-2.4c-43.2,0.4-43.2,0.8-41.8,43.5c5.9,179-89.1,336-252.1,409.8
			c-112.2,50.8-230.6,63.4-351.7,40.9c-141-26.2-238.1-105.3-283.4-243.6c-9.2-28.1-14-57.2-17-86.5c-2.4,0.1-3.7-0.2-4.7,0.3
			c-78,41.8-149.7,92.2-209.7,157.7c-84,91.5-133.6,200.8-163.3,320.3c-39.4,158.8-43.2,320.2-38.1,482.4
			c2.1,67.8,8,135.6-1.3,203.4c-7.8,57.5-27.5,111.6-45.5,166.1c-24.5,74.3-31,150.4-24,227.9c4.6,50.5,27.6,74.8,76.9,80.8
			c22.5,2.8,45.5,4.3,68,2.9c80.3-4.9,160.7-9.1,240.5-20c79.2-10.7,158.4-21.7,237.6-32.3c7.5-1,11.9-1.9,12-11.5
			c1-64.1,25.2-118.9,67.8-166.1c0.5-0.6,0.2-1.9,0.3-3.1C1186.4,2581.4,1181.8,2582,1177.3,2582.7z M2052.1,2838.9
			c0.7-1.6,1.3-3.2,2-4.8c-1.7-0.8-3.5-1.4-4.9-2.4c-126.3-89-185.9-213.2-193-365.1c-3.4-72.5,6.1-143.9,18.9-215
			c29.4-162.5,111.9-288.4,257.4-370.4c4.2-2.4,10.7-2.7,11.8-10.8c-14.7-1.7-29-5.5-43.2-4.8c-133.9,6.2-267.7,10.3-401.8,4.7
			c-53.3-2.2-100,16.7-136.4,57c-14.6,16.2-28.4,33.2-41.5,50.6c-23.8,31.5-47.3,63.1-77.4,88.9c-46.8,40-99,58.1-159.8,38.2
			c-12.5-4.1-12.8,0.7-12.4,10.4c1.7,49.2-1.3,98.2-6.6,147c-0.7,6.8-0.4,11.5,6.6,14.7c26.1,11.8,44.9,32.9,63.7,53.3
			c20.7,22.4,45.7,30.3,75.3,28.2c26.6-1.8,53-6,79.8-5.5c89.3,1.6,165,89.7,151,177.6c-5.3,33.2-20.5,61.4-54.6,73.6
			c-33.3,12-58.8-3.3-81.1-26.4c-23.8-24.7-52.9-37.9-86.9-40.7c-47.4-3.9-92.5,7.7-137.7,19.5c-4.5,1.2-6.7,2.9-4,7.3
			c6.1,10.2-2.6,12.1-8.5,15.6c-53.8,31.9-85.5,79.2-98.3,139.9c-9.7,46,1.5,70.5,42,93.8c12.7,7.3,26.1,12.8,39.9,17.2
			c57.6,18.4,117.2,25.3,177.1,28.4c174.1,8.9,347.8-3.7,521.6-11.7C1984.7,2845.6,2018.4,2841.7,2052.1,2838.9z M2472.8,1941.7
			c0-26.1-0.8-52.2,0.4-78.2c0.6-12.7-2.5-16.4-15.5-16.4c-76.5-0.2-151.1,11.5-223,37.1c-133.6,47.6-233.3,133.4-284.6,267.4
			c-44,114.8-58.9,235.2-45.1,357.4c15.6,138.5,87.1,241.6,208.3,310.3c7.4,4.2,14.2,7.6,23.8,5.7
			c124.8-24.4,209.5-95.1,251.9-215.8c29.3-83.5,43.6-170.1,52.9-257.6C2456.2,2215.4,2464,2078.6,2472.8,1941.7z M1402.6,275
			c57.5-29.2,106.7-29.9,140.5,8.4c24.1,27.4,47.9,30.8,78.7,25.4c7.7-1.3,15.7-0.6,23.6-0.9c94.1-3.4,187.9,1.6,281.4,11.7
			c68,7.3,136.2,13.2,202.6,31.6c105.8,29.4,174.3,93.8,195.5,204c11.6,60.4,8.7,120.7-1,180.9c-12.3,76.8-35.3,150.6-63.3,222.9
			c-5,12.9-3.3,17,11.4,19.2c49.9,7.5,96.3,24.8,133.7,59.9c11.8,11.1,14.4,8,20.2-4.1c42.4-88.8,76.8-180.5,98.5-276.6
			c24.2-107.4,34.7-215.5,8.8-324.2c-30-125.9-104.5-210.2-231.2-246c-56.9-16.1-114.9-23.5-173.5-29.2
			c-182.9-17.8-365.4-19.5-547.3,11.8c-64.5,11.1-128.2,25.3-191.4,42.1c-10.9,2.9-12.6,6.1-5.7,15.3
			C1394.4,240.7,1398.8,257.3,1402.6,275z M1568.9,422.1c105.1,24.4,135.9,118.7,64.6,196.8c-6.4,7.1-3.1,9.8,1.4,14.2
			c14.7,14.4,25.3,31.6,28,51.8c2,14.9,7.2,13.5,18.8,9.8c78.3-25,153.1-20.8,220.7,30.8c8.1,6.2,11.5,1.3,16.7-2.6
			c36.1-27.2,76.5-43.3,121.5-49c97.6-12.5,178.6,29.5,223.1,116.7c0.4,0.8,1.9,0.9,3.1,1.5c16.2-64.6,25.2-129.8,18.9-196.3
			c-7.9-83.3-41.6-150.1-122.4-185.4c-28.4-12.4-58.3-20.4-88.7-26.2c-78.7-15.1-158.5-21.3-238.2-27.8c-80.5-6.6-161.1-7-241.7-1.2
			c-6.1,0.4-12.3-0.2-12.2,9.1C1582.6,384.6,1576.4,403.5,1568.9,422.1z M1367.2,1467.3c75-0.7,133.8-8.5,191.3-27.3
			c183.3-60.1,290.5-221,275-413.4c-1.1-14.1-4.5-20.8-20.1-19.5c-16.9,1.4-34,0.9-50.9,0.2c-10.8-0.4-14.4,3.4-15.6,14.3
			c-8.3,76.2-36.9,144.3-87.5,201.9c-78.7,89.6-177,135.7-297.3,118.4c-128.1-18.5-214.6-94.8-268.5-209.8
			c-7.9-16.8-12.8-19.4-29.1-10.8c-48.2,25.4-50.2,25-41.1,78.3c16.3,95.1,63.1,170.6,148.5,219.4
			C1237.1,1456.3,1308.6,1466.2,1367.2,1467.3z M2476.3,1484.6c0.1-49.6-8.2-120-20.1-189.9c-11-64-27.3-126.7-61.3-183.2
			c-23.6-39.2-54.5-69.5-99.7-82.2c-109.2-30.6-257.1,34-309.7,135c-17.4,33.4-21.5,67-7.2,103.1c38.1,95.9,52.6,195.2,34.2,297.4
			c-7.5,41.5-20.3,82.1-30.3,123.2c-9.2,37.7,2.6,68.1,33.5,91c8.7,6.5,17.9,12.8,27.8,17c115,49.3,228.6,45.8,339.6-12
			c36.1-18.8,59.2-50.2,69.3-89.5C2468.4,1632.9,2478.6,1570.2,2476.3,1484.6z M1247.9,401.1c-117.1,0.6-210.7,95.2-210.4,212.5
			c0.3,115.5,95.5,210.4,211.1,210.4c118,0.1,213.5-95.6,210.6-215.6C1456.3,487.6,1362.5,401.5,1247.9,401.1z M1747.1,966.1
			c0-1,0-2.1,0-3.1c25.4,0,50.9,0,76.3,0c25.4,0,50.9-0.9,76.3,0.4c13.1,0.6,18.2-4.5,21.1-16.2c5.3-21.3,8.6-42.5,8.5-64.6
			c-0.5-69.3-35.7-123.1-96.3-146.1c-66.9-25.4-151.5-8.8-192.9,38c-6.5,7.3-13.2,14.4-21.7,19.1c-11.2,6.1-18.3,15.5-23.8,26.6
			c-21.9,43.4-24.6,89.2-17.6,136.3c1.7,11.7,9.9,9.7,17.7,9.7C1645.4,966.1,1696.2,966.1,1747.1,966.1z M899.1,329.3
			c0.9-35.8-4-67.6-11.6-98.8c-8-32.8-22.3-63.1-49-85.2c-28.3-23.4-60.2-33.9-96.2-19.4c-23.2,9.4-29.8,24.9-20.1,47.7
			c11.2,26.3,14.7,53.3,13.7,81.6c-1.7,45.5-18.4,87.4-30.9,130.2c-8.5,29.3-14.8,58.8-13,89.4c1.8,30.7,11.9,59,43.7,69.1
			c32,10.1,65.9,17.9,93.4-13.1c7.7-8.7,17.3-15.8,28.3-19.3c14.4-4.6,17.6-9.4,11-25.2c-15.9-37.8-12-76.2,14.5-107.7
			C897,361.9,899.8,345.3,899.1,329.3z M1558.3,1869.8c-24.8-15.2-50.1-26.4-76.2-35.7c-45.6-16.4-92.4-24.5-140.9-17.1
			c-48.7,7.4-89.5,28.7-120.1,68.1c-21.7,27.9-43.2,56-79.6,71.4c24.5,14.3,42.5,29.5,61,44.2c23.6,18.9,46.7,38.5,73.8,52.7
			c46,24.1,88.6,18.7,128.8-12.8c20.6-16.2,38.9-34.7,54.7-55.6C1490,1945.1,1518.9,1903.9,1558.3,1869.8z M2229.2,868.7
			c0.2-48.1-10.8-91.2-53.1-120.7c-63.9-44.4-168.2-39.9-228.5,9.3c-6.5,5.3-7.8,8.6-3.4,16c32.5,54.6,36.3,113.1,22.2,173.6
			c-2.7,11.6-3.1,16.8,11.9,16.8c72.7-0.1,145.4,0.7,217.9,6c8.7,0.6,13.2-1.7,15.7-10.3C2220.3,929.7,2228.6,900,2229.2,868.7z
			 M699,1026.3c-0.2,91.6,36.4,139.2,105.8,153.5c40.4,8.3,54.7-2.8,54.2-43.3c-1-87,14.7-170,57.3-246.8c4.2-7.7,4.8-12-4-17.2
			c-19.4-11.2-33.9-27.7-42.3-48.5c-3.9-9.7-9-10.2-18.1-8.1c-25.9,6.2-49.2,17.3-69.5,34.1C722.1,899.8,702,967.2,699,1026.3z
			 M723.5,699.2c27.3-1.3,54.2-3.9,80.7-11.7c12.1-3.6,12.5-7.4,6-17c-10.4-15.3-17.5-33.4-15.6-51.3c2.4-23.3-8.2-24-26.4-24
			c-63.2,0-106-36.5-118.4-98.7c-2.6-13.2-2.7-26.5-2.5-39.8c0.6-44.3,15.4-85.5,28.1-127.2c8.6-28.4,16.9-56.9,16.3-87.1
			c-0.1-6.2,0-11.7-7.4-14.7c-55.2-22-109.7-24-162.4,6.5c-21,12.2-29.1,32.4-23.8,52.2c5,18.9,11.3,22.2,42.8,23.2
			c45.2,1.3,74.9,23.4,89.3,66.5c12.5,37.3,4.5,72.9-9.5,107.9c-10.5,26.4-22.1,52.4-31.3,79.3c-16,46.5-1.9,84.6,38.9,111.9
			C657.2,694.5,689.8,699.2,723.5,699.2z M1405,1116.9c1.3-24.3-3.4-50.6-7.9-76.9c-2-11.4-6-15.7-19.2-13.5
			c-25.7,4.2-50.8,11.8-76.4,15.4c-56.3,8-109.1,27-162.1,46c-10.7,3.9-13.8,8-8.8,19.6c33.7,77,87.3,134.6,164.1,170
			c5.4,2.5,10.6,5.9,17.2,4.6c33.1-6.7,60.9-20.9,74.5-54.1C1400.5,1193.2,1405.8,1156.8,1405,1116.9z M1448.7,1119.5
			c0,12.1,0.3,24.2-0.1,36.3c-0.3,7.2,1.5,12.4,7.1,17.5c37.2,33.5,80.8,50,130.6,51.6c7.2,0.2,12.5-1.9,17.7-7
			c55.4-54.7,88.4-120.5,99-197.7c1.5-10.7-3.1-12.3-12.1-11.9c-15.7,0.8-31.5,1.1-47.3,1.2c-62.5,0.5-124.8,3.6-187.1,8.2
			c-13.1,1-19.7,2.5-15.3,18.9C1448.6,1063.6,1449.8,1091.6,1448.7,1119.5z M1208.2,1017.2c-6-7.2-12-12.6-15.8-19.3
			c-6.2-10.6-11-11.7-21.5-3.7c-29.2,22.5-62.7,26.8-97.7,17.3c-48.8-13.3-79.6-56.1-80.3-108.6c-0.1-4.6,4.2-13.3-3.3-13.5
			c-10.5-0.2-22.1-2.7-29.4,11.4c-19.5,37.8-36.8,76.4-45.8,118.1c-9.7,44.9-11.2,90.4-10.9,139
			C1002.7,1101.2,1100,1048.5,1208.2,1017.2z M656.6,982.8c7.1-8.6,6.9-18.7,9.5-27.8c24.3-84.1,71.9-148.4,157.5-176.6
			c24-7.9,43.2-14,44.4-42.7c0.2-5.6,9.2-10.6,3.4-15.9c-6-5.4-13.8-5-22.1-1.6c-54.8,22.8-111.9,30.6-170.8,22.5
			c-11.4-1.6-18.4,2.3-24.4,11.2c-17.5,26-21.3,54.7-18.7,85.1C639.8,885.8,657.5,932.6,656.6,982.8z M1172.1,313.8
			c0.2-37-29.5-67.3-66.5-67.7c-37.2-0.5-67.5,28.9-68.1,66c-0.6,38.1,29.3,68.6,67.2,68.6C1141.7,380.6,1171.8,350.7,1172.1,313.8z
			 M1386.5,867.5c0.1,38.8,29.4,67.6,68,67.1c36.8-0.5,66.9-31.2,66.4-67.8c-0.6-36.5-31.3-66.6-68-66.5
			C1415.9,800.4,1386.4,830.2,1386.5,867.5z M1357.7,288c-0.2-37.4-29.8-66.7-67.2-66.4c-37.3,0.3-67,30-67.2,67
			c-0.1,37.5,30.8,67.8,68.7,67.2C1329.6,355.3,1357.9,326,1357.7,288z M903.6,679.1c38.6,0.5,68.8-28.5,69-66.4
			c0.2-37.1-29.3-67.3-66.1-67.9c-36.6-0.6-67.3,29.1-68.5,66C836.9,647.4,867,678.6,903.6,679.1z M972,511.7
			c37.8,0,66.8-28.8,66.9-66.4c0.1-36.8-29.9-67.3-66.6-67.7c-37-0.4-68.5,31.3-68,68.3C904.9,483.3,934.1,511.7,972,511.7z
			 M1103.8,971c37.7,0.2,67.6-28.4,68.3-65.2c0.7-38.1-28.8-67.9-67.4-67.9c-37.9,0-67,28.5-67.2,66.1
			C1037.2,941.4,1066.3,970.8,1103.8,971z M1537.4,366.7c0.3-37.3-28.9-67.1-66.2-67.7c-37.6-0.6-68.7,30.1-68.4,67.6
			c0.3,36.9,30.5,66.9,67.4,66.9C1507.3,433.6,1537.1,403.9,1537.4,366.7z M972.2,710.9c-37.4,0-67.3,29.2-67.8,66.3
			c-0.5,37.3,30.3,68.3,67.9,68.2c36.7-0.1,66.6-30.3,66.7-67.3C1039,741,1009.1,710.9,972.2,710.9z M1559.8,600.3
			c37.3,1,66.3-26.2,67.2-62.9c1-37.7-27.3-68.4-63.9-69.4c-36.9-1-71.4,27.2-69.8,61.2C1495.1,566.4,1510.4,601.3,1559.8,600.3z
			 M757.9,2082.4c50.1-65.2,115.2-108.5,194.1-138.7c-56.4-12.3-107.8-25.9-158.4-42.5c-7.7-2.5-10.4-1.4-12.2,6.6
			C768.2,1965,758.7,2022.8,757.9,2082.4z M1351.1,937.2c-0.3-32.9-30.5-60.4-66.7-60.6c-36.8-0.2-68.2,28.4-68,61.6
			c0.2,30.6,31,60.8,61.5,60.4C1321.9,998.1,1351.4,973.3,1351.1,937.2z M1557.8,646.5c-37.1-0.2-65.3,25.9-65.2,60.3
			c0.1,34.8,30.5,61.1,67.5,60.9c21.9-0.1,30.2-18.1,43.7-29.1c18.2-14.8,21.5-30.8,13-52.7C1607.1,660.8,1585.9,646.6,1557.8,646.5
			z M1539.9,1265c-39.8-9.7-71.8-24.7-101.7-47.5c-9.9,32.6-24.7,60.2-53.8,83.5C1441.4,1303.3,1490.1,1292.6,1539.9,1265z
			 M653.7,1024.1c-9.7,44.5-37.5,73.8-75.5,94.9c-4.6,2.5-10.9,4.8-9.8,11.5c1,6.3,7.7,7.3,12.7,8.6c31.3,8,63.2,5.1,98.1,7.6
			C659.2,1106,651.4,1066.4,653.7,1024.1z M2474.2,1756.8c-11.9,18.3-24.3,30.7-37.9,45.2c39.6,0.8,39.6,0.8,39.1-34.6
			C2475.4,1765.3,2474.9,1763.1,2474.2,1756.8z M1507.4,966.5c10.1-0.2,29.3,9.8,23.1-16.2C1521.7,956.5,1514.6,961.5,1507.4,966.5z
			 M1389.2,980.4c9.8-1.3,19.3-2.5,30.9-4C1392.9,962.3,1392.9,962.3,1389.2,980.4z"/>
		<path class="st0" d="M2134.6,2201.5c40.4,2.1,80.2,4.1,120,6.2c20,1,39.9,2.5,59.9,3.1c8.1,0.3,12,1.8,10.8,11.4
			c-5,39.9,5.8,33.5-37.1,32c-53.3-1.8-106.5-5.2-159.7-8.4c-9-0.5-12.6,1.9-14.6,11.1c-11.4,50.9-12.4,102-7,153.6
			c1.3,12.7,9.5,10.3,16.8,10.5c61.8,1.5,123.6,2.7,185.4,4.3c5.9,0.2,15.6-3.7,16.9,5.2c1.7,12.3,2.9,25.4-2.2,37.2
			c-1,2.2-8.9,1.9-13.6,1.8c-59.4-1.1-118.8-1.9-178.2-3.9c-15.2-0.5-16.7,3.7-12.4,17c29.1,90.8,89.2,152.4,177,187.4
			c12.1,4.8,15.7,8.6,10.9,21.6c-10.3,28.1-9.6,28.5-37.8,15.9c-133.3-59.8-200-165-209.1-308.6c-4.1-65-2.9-129.8,21.6-191.7
			c48.7-123.2,143-187.7,270.5-209.3c7.1-1.2,10.2,0.3,10.3,7.7c0,3,0.9,6,1.4,9c3.9,25.3,3.9,25.2-20.4,30.1
			c-86.1,17.4-155.2,60-200.7,136.9c-2.5,4.2-4.8,8.4-7,12.8C2135.5,2195.9,2135.4,2197.8,2134.6,2201.5z"/>
		<path class="st0" d="M2411.3,1328.1c-2.3,94.2-15.2,193.7-29.2,293.4c-15.5,109.9-89.7,144.8-173,160.2c-40.6,7.5-81,5-120.5-7.3
			c-10.3-3.2-20.6-7.4-30-12.8c-44.8-25.7-57.1-65.2-33.8-111.1c10.1-19.9,22.7-38.6,34.5-57.6c49.4-80.3,57.6-164.1,22.1-252
			c-11.1-27.5-23.2-54.6-29.7-83.8c-11.3-50,3.6-87.7,46.2-116.1c70.2-46.8,202.9-37.4,267.3,17.4c27.4,23.3,39.5,53,43.2,87
			C2411.3,1270.6,2413.3,1296.1,2411.3,1328.1z M2365.7,1323.1c0-20,0.3-40-0.1-60c-0.9-46.5-23.7-76.6-67.3-93.2
			c-45.3-17.3-91.1-18.8-137.3-7.1c-65.8,16.7-82.2,50.5-56.8,113c9.1,22.4,18.1,45,25.7,67.9c26.1,78.5,24.3,155.9-10.8,231.8
			c-14,30.4-33,57.8-49.5,86.7c-19.8,34.5-14.9,50.8,22.8,65.4c58.8,22.7,116.7,15.5,173-9.1c37.3-16.3,60.6-43.5,68.3-85.1
			C2352.8,1530.8,2363.3,1427.3,2365.7,1323.1z"/>
		<path class="st0" d="M1356.9,612.1c0.6,61.4-50.1,112.5-112,112.7c-61,0.2-111.2-49.1-112.4-110.4c-1.2-61.4,49.2-113,111-113.6
			C1305.4,500.1,1356.3,550.1,1356.9,612.1z M1243.8,679.9c37.7,0.4,67.2-28.1,68-65.7c0.8-37.6-29.7-69-67.1-68.9
			c-36.7,0.1-67,30.3-67.4,67.1C1176.9,649.3,1206.6,679.5,1243.8,679.9z"/>
	</g>
</g>
</svg>
