<?xml version="1.0" encoding="utf-8"?>
<!-- Generator: Adobe Illustrator 23.0.0, SVG Export Plug-In . SVG Version: 6.00 Build 0)  -->
<svg version="1.0" xmlns="http://www.w3.org/2000/svg" xmlns:xlink="http://www.w3.org/1999/xlink" x="0px" y="0px"
	 viewBox="0 0 3000 3000" style="enable-background:new 0 0 3000 3000;" xml:space="preserve">
<style type="text/css">
	.st0{stroke:#000000;stroke-width:10;stroke-miterlimit:10;}
</style>
<g id="Layer_1">
</g>
<g id="Layer_2">
	<g>
		<path class="st0" d="M266.8,1882.9c-37.9-28.4-71.3-54.7-106-79.3c-43.6-31-65.7-73.2-65-125.8c1.1-96.6,4-193.2,6.7-289.8
			c0.7-25.2-1.9-48.7-11.4-73.1c-26.2-67.1-17.8-135.4,2-202.4c24.2-81.7,65.5-153.7,129.2-211.3c12.3-11.1,14.1-16.7,1.5-29.8
			c-92.2-96-102.2-200.6-32.1-314.3c29-47.1,66.6-87.1,104.2-126.9c65.6-69.4,127.5-143,206.5-198.6
			c54.5-38.4,113.4-64.3,181.7-58.4c83.3,7.1,143.2,53.8,188.5,119.9c16.5,24.1,27.4,24.7,50.7,9.1
			c175-116.7,370.7-145.9,575.7-130.5c155.3,11.7,303.1,52.8,443.8,119.5c9.4,4.5,18,7,29,2.8c103.1-39,211.3-49.7,320.2-52.2
			c107.6-2.5,215.7-7.8,322.1,16.2c29,6.5,57.3,15.3,85.2,25.6c136.8,50.4,201.6,154.6,225.3,293.2
			c21.6,126.2,24.8,253.3,26.6,380.5c1.8,129.2,9.3,258.2,5.9,387.5c-3.6,137.6-9.2,274.9-49.6,408.1
			c-11.6,38.3-25.7,75.5-43.5,111.4c-17.7,35.7-38.4,69.6-65.9,105.7c42.3-4.9,79.4-9.4,116.8-7.7c41.8,1.9,56.6,21.9,35.8,57.1
			c-72.4,122.5-115.4,256.6-161.4,390c-37.8,109.8-96.7,207-198.3,271.7c-74.2,47.2-155.9,73.3-242.3,84.9
			c-86.9,11.6-174.3,18.2-260.3-4.4c-144.7-38.1-236.5-133.7-285.2-272.3c-8.3-23.7-14.8-35.9-42.8-28.7c-22.2,5.8-46,1.4-69.6-2.6
			c54.7,111.8,47.8,189.8-21.3,251.3c-59.1,52.5-151.5,58.4-217.5,13.9c-67.5-45.5-95.7-129.4-69.3-206.2
			c27.3-79.7,100.4-125,198.3-119.1c-25.2-27.5-44.3-54.8-56.9-88.9c-12.3,16.9-21.2,30.9-31.9,43.5
			c-69.5,81.9-158,102.2-259.3,77.5c-17.5-4.3-25.7-6.2-26.1,17.6c-2.6,146.9-73.9,251.4-206.3,310.2
			c-132.1,58.7-270,66.7-406.9,17.4c-147.3-53-231-184.2-222-340.6c1.3-23-3.1-28.5-26.8-29.7c-135.9-7.1-254.1-85.5-267.3-243.1
			C68,2046.8,117.4,1925.8,266.8,1882.9z M2497,2121c21.9-7.3,42.6-12.5,61.9-20.9c146.1-63.5,237.9-176.7,291.7-323.2
			c39.2-106.6,50.8-218.2,56.8-330.7c7.8-147.8,1.2-295.5-1.9-443.1c-2.9-137.4-3.2-274.8-25.6-411.3
			c-20-121.8-70.2-218.6-193.6-262.9c-20.9-7.5-41.9-15.1-63.5-20.5c-126.4-31.4-254.6-22.9-382.7-17.2c-9.4,0.4-15,6.1-21.1,11.8
			c-204,186-306.9,416.3-296.3,693c6.3,165.5,42.9,325.3,112.7,476.5c37.2,80.5,65.4,163.3,74.9,252.3c14,130.3,0.8,257.7-35.9,383
			c-5.7,19.5-1,22.6,17.7,25c101,13.2,202.1,10.5,303.3,4.1c50.3-3.2,52.4-3.5,57-54.2c5.2-57,14.3-115-9.2-170.5
			c-21.9-51.8-84.2-72.6-144.7-49.1c-48.2,18.7-73.3,73.6-52.1,124.3c10.9,26.2-7.8,28.2-20.4,35.4c-18.9,10.8-19.1-8.3-23-17.6
			c-25.4-61-2.2-136.4,52.4-172.7c57.2-38,152.6-31.5,197.6,13.1c42.8,42.6,53,96.4,51.8,153.3
			C2503.9,2038.8,2499.8,2078.4,2497,2121z M1357.6,1306.1c47,4.1,86.9,6,126.2,11.5c27.4,3.8,36.2-5.9,39.7-32.3
			c13.8-103,28.1-205.9,45.6-308.3c23.1-135.5,49.6-270.4,104.7-397.6c36-83.2,85-156.7,159.1-211.2c20.6-15.2,42.8-28.3,65-42.9
			c-8.8-10.1-20.1-12.1-29.9-16.2c-127.8-54.1-261.1-85.2-399.5-93.1c-210.8-12-405.6,32.4-576.5,163.5
			c-103.3,79.2-190.4,172.8-264.3,279.4c-71.2,102.6-162.9,180-281.6,222.7c-20.1,7.3-40.8,13.6-57.9,26.6
			c-114.6,87.4-171.1,203.2-163.7,347.3c3,59.5,35.1,103.1,92.1,124.8c70.5,26.8,141.7,27.6,212.5,1.2
			c52.9-19.7,61.9-52.9,29.2-99.4c-16.6-23.5-40.7-34.3-67-41.9c-7.1-2-14.7-2.9-21.1-6.3c-15.8-8.5-4.7-23.1-6.4-34.8
			c-1.3-9.1,5.6-9.8,13-8.7c56,8.1,103.1,30.7,130.2,83.3c6.9,13.3,12.4,13.5,25.1,7.8c36.9-16.5,75.7-19.3,113.9-5.5
			c16.9,6.1,31.6,5.2,48.2,0.2c46.7-14,94.7-18.4,143.4-14.2c85.4,7.5,140.3,57.5,150,138.1c2.9,23.9,2.4,48.2,3.3,72.3
			c3.3,94.1-13.9,186.8-21.7,280c-8.6,103.2-42.7,201-106.8,285.4c-8,10.5-17.3,20-27.5,31.6c210.9,12.4,459.3-48.6,647.2-157.8
			c17.7-10.3,35.1-20.9,52.3-31.9c3.9-2.5,11.9-3.7,8-11.7c-2.9-5.9-6.3-11.6-14.8-9.6c-6.1,1.4-11.9,2.7-18,5.2
			c-81.9,34.7-167.2,50-255.9,38.8c-102.6-13-170.6-73.6-186.1-164.7c-8.4-49.7-8.8-100-5.6-150.1c7.1-109.7,52-196.3,153.6-247.5
			c0.9-0.5,1-2.6,1.6-4.3c-4.4-1.9-8.6-3.8-12.9-5.4c-72.5-28.1-90.3-80.6-52.4-148.2c26.4-47.2,68.4-69.4,118.3-79.6
			c61.4-12.6,94.6-47.4,101.6-111.2c8-73.1,17.7-145-4.3-217.9c-31.2-103.4-110.9-165.4-218-163.1c-92.9,2-185.8,4.7-278.8,2.6
			c-22.3-0.5-22-11-22.5-27.6c-0.6-18.6,7.2-20.7,23.1-20.5c66.9,0.8,133.8-0.3,200.7,0.2c47.4,0.4,95.6-7.3,141.9,2.3
			c106.8,22.2,165.1,97.6,197.8,195.3c31.2,93.3,17.8,187.6-4.1,280.5c-10.6,45.3-42.4,75.6-86.2,91.6
			c-22.6,8.3-46.1,14.1-69.1,21.3c-37.8,11.8-60.3,38.1-71.2,75.4c-4.9,16.9-2.1,32,12.4,42.1c26,18.1,57,22.6,87.3,25.8
			c19.8,2.1,31.5-17.2,45.7-28.4c22.7-17.9,42.9-38.8,60.5-61.6c113.5-146.6,164.6-306.5,99.6-489.3
			c-48.9-137.3-147.5-206.2-291.6-211.6c-97.7-3.7-195.1-3.5-292.4,6c-12.3,1.2-19.5,0-22.2-16c-3.8-22.5,1.3-30.9,25-32.5
			c114.2-7.7,228.4-10.9,342.6-0.9c37,3.3,73,11.5,106.5,29.8c90.5,49.5,145.7,127.8,180.6,221.7c48.5,130.5,28.8,257.5-24.6,381.8
			C1476.8,1177.3,1426.4,1244.3,1357.6,1306.1z M906.6,1834.1c-23.9,0.7-45,5.8-65.9,0.6c-43.2-10.7-68.4-43.2-69.3-89.3
			c-1-49.2,28.7-91.8,73-103.5c21.6-5.8,44-9.8,66.2-7.2c18.2,2.2,24.3-4.2,26-21.4c6.5-63.9,10-127.9,6.8-191.9
			c-3.3-66.4-33.1-98.9-98.9-111.4c-28.6-5.4-57.3-4.7-85.9,0.2c-14.6,2.5-31.6,2-43,9.6c-15.4,10.2,1.5,26.4,0.4,40.6
			c-3.8,50.9-6.3,101.9-6.7,152.9c-0.2,19.8-7.7,22.1-24.4,22.6c-18.4,0.6-24.9-5.3-23.7-23.5c2.9-46.3,4.4-92.7,7.5-139
			c1.2-17.9-0.7-34.3-17-44c-34.6-20.5-71.3-21.8-106-2.2c-28.8,16.2-33.7,44.5-25.8,75c2.8,11-2.4,16.2-11.3,18.3
			c-9.6,2.3-20.3,18-28.6,4.8c-8.9-14.3-15.4-6.6-24.4-3.4c-101,35.6-199.9,36.5-295.2-18.7c-3.2-1.9-6.6-3.4-14.6,4.3
			c0,38.1,1.1,80.7-0.5,123.3c-0.7,18.2,5.2,21.9,21.7,21.5c52.9-1.3,105.9-0.5,158.8-2.1c17.5-0.5,22.4,5,21.9,22
			c-0.5,15.6-0.5,25.5-21.5,25c-46.4-1.1-92.9,0.2-139.3,1.9c-51.6,1.9-43.3-7-46.2,47.2c-3,56.3,14.5,100,63.9,132.4
			c52.7,34.6,100.6,76.3,152.7,111.7c117.2,79.7,239.6,148.7,383.1,170.2c16.7,2.5,28.1-1.9,40.8-10.7
			C856,1997.7,879.8,1916.6,906.6,1834.1z M1556.2,1378.8c4.2,0.2,5.6,0.7,6,0.3c86.3-104.3,197.9-146.5,331.2-134.3
			c19.2,1.8,16.7-8.8,13.8-20.2c-22.3-87.8-32.8-177-31.8-267.5c0.2-15.8-6.7-18.4-20.1-18.1c-27.9,0.7-55.8-0.8-83.6,0.5
			c-17.1,0.8-20.4-6.8-19.3-21.4c1-12.6-3.3-26.4,18.5-25c26.8,1.7,54-1.1,80.8,0.9c21,1.6,26.8-6.5,28.6-26.1
			c18.5-210.8,106.1-390.1,249.6-543.8c6.5-7,16.5-11.8,18.2-25.8c-28.5,5.5-55.9,9.9-82.8,16.2c-164.1,38-286.8,126.5-350.8,287.2
			c-19.9,50.1-36.9,101-50.8,153.1c-43.6,163.7-65.3,331.3-89.5,498.4C1568.2,1295,1562.2,1336.8,1556.2,1378.8z M800,2758.9
			c40.3,1.8,103.3-12.2,164.4-35.7c127.8-49.1,199.6-155.1,197-290.4c-0.4-22.7-34.5-60.3-56.3-62c-2.5-0.2-5.9,0.5-7.5,2.1
			c-17.7,17.3-41.7,25.4-49.5,55.8c-30.9,119.6-143.8,196.9-268.7,188.8c-108.3-7-204.9-103.1-221.4-220.6
			c-2.2-15.6-1.7-31.6-4.7-47c-2.6-13.2-6.8-27-24.4-9.9c-26.3,25.7-57.6,43.6-93,53.9c-9.8,2.9-15,6.8-16.7,18.4
			c-19.4,136.6,53.1,263.8,180.7,316.2C655.9,2751.6,714.6,2758.2,800,2758.9z M2063.2,1748.6c-10.3,4.1-20.3,8.5-30.5,12.1
			c-65.8,23.5-131.3,27.1-192.6-11c-80.1-49.8-80.6-182.6-1.7-246.1c32.7-26.3,68.8-47.1,110-57.8c14.5-3.8,22.5-9.6,13.5-26.8
			c-7.6-14.7-10.5-31.7-17.4-46.9c-11.6-25.5-4.6-61.9-31.2-76.5c-24.8-13.7-56.7-6.8-85.2-5c-109.7,6.8-197.3,54.7-249.6,152.5
			c-74,138.3-55,275.6,16.6,409.3c5.4,10.1,14.2,17,23.4,23.5c56.3,40.4,161.8,53.7,227.5,28.8c-40.9-18.9-54.1-45-37.9-74.7
			c13.6-25.1,45.5-32.9,69.4-17.1c27,17.9,27.8,47.9,0.6,85.9c37.3-8.9,69.9-23,102.4-41.9c-16.6-6.4-29.8-14.3-25-32.7
			c2.9-11.1,11.2-20.3,24.2-19.4c21.6,1.4,24.8,18.1,25.8,35.6C2069.5,1807.2,2073.6,1800.8,2063.2,1748.6z M1927.4,2363.2
			c-25.4,30.2-51,54.2-82.2,71.4c-8.5,4.7-7.9,10.1-5.4,18.4c39,127.1,115.3,219,245.4,259.5c76.2,23.7,154.3,19.5,232.1,10.7
			c103-11.6,200.3-39.5,282.7-106.1c75.8-61.2,117.8-144.8,150.1-233.7c34.6-94.9,57.6-194.1,106-283.9c11.5-21.3,22-43.2,33-64.8
			c-76.6,52.4-133.3,119.8-164.5,206.2c-35.7,98.8-90.7,183.9-168.1,255.6c-107.6,99.9-231.3,151.6-379.8,138.2
			c-126-11.4-205.3-78.5-235.1-201.1C1936.5,2412,1932.8,2390.1,1927.4,2363.2z M198.8,666.3c5.8-5.5,10.7-9.5,15-14.1
			c60.7-65.3,121.6-130.4,181.7-196.3c12.1-13.2,19.6-17.7,35-3c15.2,14.4,12,22.1-0.4,35.3c-71.3,75.7-141.1,152.9-213.1,228
			c-18.6,19.4-21.8,35.5-3.2,60c7.4-8.8,13.6-17,20.6-24.2c76.4-78.6,153.1-157,229.4-235.7c10.7-11,17.4-17.7,33.2-3.4
			c18.7,17,11.1,25.6-2.3,39.2C413.1,634.7,332.3,718,251.3,801.3c-7.3,7.5-19.4,14.6-5.1,26.6c14.1,11.9,17.2-3.8,23.1-9.7
			c82.6-83,165.3-165.9,246.9-249.8c13.9-14.3,20.7-13,34.7-0.1c16.1,14.9,10.1,22.3-2.1,34.5c-67.8,67.6-134.9,135.8-202.1,204
			c-9,9.2-17.5,18.8-26.3,28.3c35.4-6.2,65.8-19.1,94.5-36.3c79.6-47.9,140.6-114.6,193.2-189.9c64.6-92.5,139.9-175.1,228.6-245.2
			c5.8-4.6,15.2-7.2,15.3-17.9c-10.8-2.8-14.2,7-20.3,11.4c-37.7,27.1-77.9,47.2-125.8,46c-47.9-1.2-74.8-26.5-81.5-73.9
			c-5.4-38,8.7-72,20.2-107.3C525.2,231.7,206.7,548.9,198.8,666.3z M2132.8,2185.4c-37.6-5.5-71.8-8.8-105.2-16.2
			c-17.4-3.8-22.7,1.8-27.8,16.3c-25,70.7-32.2,142.6-18,216.5c15.2,79.3,49.2,145.9,131.5,171.5c101,31.4,201,22.3,294.2-27.6
			c124.8-66.8,215-166.5,264.5-300.2c31.6-85.3,78.7-159.4,146.9-219.9c2.6-2.3,4.4-5.5,7-8.7c-3.1-0.8-4.9-1.8-6.6-1.7
			c-3.7,0.2-7.4,0.7-11,1.5c-79.4,18.8-137.5,63.7-167.2,140.8c-51.1,132.8-136.8,234.3-264,300c-32.8,16.9-67.3,26.4-103.7,29.6
			c-114.4,10.2-210.6-99-186.6-211.2C2094,2242.8,2111.9,2215,2132.8,2185.4z M1108.1,1610.3c-2.7,38.6-0.2,68.1,2.9,97.8
			c8.4,81.3,50.2,129.2,130.4,144.9c85.8,16.8,168,0.3,248.3-30c11.2-4.2,25.7-7.7,15.3-24.5c-8.4-13.6,0-44-33.5-34.1
			c-28,8.2-57.1,7.2-85.8,5.2c-76.4-5.3-137.6-65.2-138.7-134.6c-1.1-69.2,58.7-129.8,135.5-137.1c30.6-2.9,61.3-2.7,91.8,1.3
			c12.8,1.7,19.2-1.4,20.7-14.8c4-35,8-70,13.4-104.9c1.8-12,0.1-16.9-13-17.2c-51-1.4-102.1-6.1-153.1-5
			c-112.8,2.4-196.4,67.4-224.2,170.6C1110,1557.9,1110,1588.6,1108.1,1610.3z M1560.8,2241.6c-0.1,31.4,6.5,61.1,24.7,87
			c44,62.6,103,97,180.8,85.1c75.2-11.4,143.8-81.9,159.9-156.9c5.3-24.6,6.6-49.5-7.4-70.2c-43.7-64.8-106.7-106-182.7-114.1
			C1647.9,2063.2,1562.2,2151.5,1560.8,2241.6z M2597.6,2136.9c-27.3,9-49.7,17.3-72.5,23.9c-97.6,28.2-197.9,27.1-298.1,27.7
			c-9.9,0.1-20.4-2.9-29.7,3.8c-77.2,55-95.9,159-17.5,219.3c45.7,35.2,96.8,38.8,147.4,17.2
			C2458.2,2372.6,2547.5,2275.9,2597.6,2136.9z M563.7,2065.7c-4.7,13.9-7.5,22.5-10.6,31.1c-28,76.6-82.9,123.9-161,143.8
			c-67.7,17.2-129.1-11.1-156.7-69.5c-33.8-71.6-17.2-161.6,40.1-215.6c10.3-9.7,22-18.1,35.1-28.8
			c-80.9,0.9-151.2,55.2-176.5,133.7c-29.6,91.9-1.1,198.3,66.3,247.9c85,62.5,199.9,68.6,276.4,14.7
			C551.7,2270.3,591.4,2157.2,563.7,2065.7z M623.5,2080.9c-9.6,8.5-4.1,17.1-3.8,24.7c1.7,50-2.6,100.2-27.6,143.3
			c-21.4,36.9-8,62.4,12.9,89.8c22.1,28.9,52.8,44.3,87.6,49.3c102.1,14.7,204.2,11.9,304.2-12.8c69.4-17.1,108.9-67,126-135.5
			c9.6-38.5,8.9-77.5,3.9-116.3c-1.3-9.8,4.4-30.8-18.2-25.9c-17.3,3.8-41.1-4.9-42.6,29.3c-4,93.1-78.8,179.5-169.7,201.3
			c-126.2,30.2-253.3-64.2-265-196.3C629.7,2115.2,632.5,2097.6,623.5,2080.9z M1277.5,2287.3c59.1-2.5,110.5-26.1,139.4-84.2
			c30.1-60.5,19.6-118.7-18.1-173.1c-8.2-11.8-16.2-17.3-32.1-10.3c-57.7,25.3-117.5,44.8-178.8,59.4c-14.3,3.4-21.2,6.7-17.3,25.4
			c6.8,32.5,9.7,65.9,5.2,99.5c-7.3,53.5-3.9,58.3,48.9,75C1240.6,2284.1,1256.9,2286.9,1277.5,2287.3z M1552.3,2443.8
			c-73.9-0.3-133.6,58.7-133.3,131.7c0.3,72.1,59.1,130.9,131.3,131.2c73.7,0.4,133.4-58.8,133-132
			C1683,2502,1625,2444.1,1552.3,2443.8z M846.9,2287.6c86.3,0.2,168.8-77.1,173.3-161.4c0.7-13.3-3.5-15.8-15.5-14.5
			c-104.8,11.3-209.1,9.3-312.6-12.6c-12.4-2.6-15.6,1.5-15.8,14C675,2204.3,755.9,2287.5,846.9,2287.6z M2068.2,1857.1
			c-116.4,80-237.7,122.1-382.7,99.5c99.9,81.9,204.8,134.3,322.6,161.2c10.4,2.4,15,0.4,18.1-10
			C2049.8,2027.5,2066.3,1946.2,2068.2,1857.1z M341.6,2199c84.5,0.9,157-61.6,173.9-138.9c3.4-15.5,0.4-22.7-14-30.1
			c-40.3-20.7-79.8-43-118.9-65.9c-11.7-6.9-21.2-7.8-33.5-2.5c-70.5,30.4-104.8,117-73,186.7C290.9,2180.6,316.4,2197.9,341.6,2199
			z M1937.1,1730.6c40.6,1.1,73-9.2,104.3-24.5c13.6-6.6,17.8-14,14.8-30.3c-11.4-62.8-35.4-120.8-61.2-178.6
			c-6.3-14.1-14.3-14.6-26.2-10.8c-31.2,9.9-60.4,24.1-87.2,42.7c-46.3,32-65.9,85.2-50.6,136.3
			C1843.5,1707.4,1883.2,1730.6,1937.1,1730.6z M1000,2424.1c-67.7,15.1-133.4,16.3-198.9,18.7c-65.7,2.4-130.3-4.2-191.4-35.6
			c9,82.3,91.8,157.6,177.9,164.8C878.6,2579.6,972.2,2516,1000,2424.1z M1518.5,2140.9c-0.6-53.1-13.6-102.8-34.2-151.3
			c-11.5-27.2-24.3-10.8-38.3-5.6c-21.4,7.8-10.2,17.7-3.1,28.4c60.6,91.9,47.3,209-34.7,274.1c-72.4,57.5-152.7,61.7-235.2,21.5
			c-12.8-6.2-20.1-11.9-30.2,5.7c-9.9,17.3-4.4,23.3,9.4,31.8c31.1,19.1,64.1,33.8,99.6,41.9c102.4,23.3,185.9-16.2,234.2-109.8
			C1508.1,2234.4,1517,2188.4,1518.5,2140.9z M1483.6,1621.5c1.1-22.7,0.4-38.7,3.1-54.1c2.8-15.8-1.3-21.3-17.6-22.1
			c-30.6-1.6-61-3.3-91.5,0.7c-41.9,5.5-78.9,39.4-82.9,77.5c-4.3,40.5,24.3,81.8,66.3,94.7c36.6,11.3,73.3,6.5,110-0.6
			c13.7-2.6,14.5-11.5,13-22.6C1480.2,1668.2,1482,1641.4,1483.6,1621.5z M1697.2,2026.4c-37.1-30.5-73.2-54.8-97.9-89.7
			c-17.2-24.2-29.4-25.4-54.5-9.9c-25.3,15.6-31.7,28.7-14.9,53.4c6.1,9,8.2,20.6,12.5,30.8c12.3,29.4,14,61.6,23.6,95.1
			C1601.9,2065.1,1644,2041.2,1697.2,2026.4z M670.1,301.4c-1.3,47.1,15.7,61.1,56.7,53.7c21.2-3.8,40.7-11.7,58.8-23.2
			c42.3-26.9,42.5-30,3.9-63.1c-4.9-4.2-9.5-8.8-14.8-12.5c-22.7-15.5-49.7-40.8-73.5-28.1C676.5,241.5,672.5,277.6,670.1,301.4z
			 M926.5,1724.7c0.8-45.6-3.4-49.3-44.2-42.9c-7.3,1.1-14.6,2.6-21.7,4.4c-32.2,8.1-48.1,38.2-39.4,74.1
			c5.8,24,28.4,33.2,60.4,29.2c29.5-3.6,45-16.7,43.9-47.3C925.2,1734.9,926.3,1727.5,926.5,1724.7z"/>
		<path class="st0" d="M2692,1018.6c-39.5-12.2-61.6,7.8-82.6,54.3c-57.4,126.8-196.4,188-332.7,155.8
			c-129.4-30.6-222.8-150.1-222.8-285.2c0-137.3,93.7-254.8,228.3-286.3c182.7-42.7,358,96.2,357.9,285.3c0,25.3,6,31.9,30.2,30.1
			c28.6-2.1,57.6,0.5,86.4-0.8c19.6-0.9,17.5,11,17.3,23.2c-0.1,12,2.5,24.9-17,23.8C2738.5,1017.8,2719.9,1018.6,2692,1018.6z
			 M2198.6,888.8c0-23.2,1-46.5-0.3-69.7c-1-17.8,8.2-19.2,22.2-19.1c14.5,0,25.4,0.5,24.2,20.1c-1.4,23.2-1.1,46.5-0.1,69.7
			c1.1,26.6-12.1,62.2,5.3,77.5c18.2,16,53.3,2.8,80.9,5c16.4,1.3,20.4-5.5,20.1-20.7c-0.8-43.7,0.3-87.4-0.5-131
			c-0.4-19.2,10.4-20.3,25-20.5c14.3-0.1,23.1,2.9,22.7,19.8c-0.7,29.7-0.2,59.5-0.2,89.2c0,64.1,0,63,63.9,63.6
			c20.7,0.2,24.8-8,25.4-25.6c1.6-41.8,4.9-83.5,6.6-125.2c0.6-14.4,0.7-25.5,20.6-22.8c16.2,2.2,27.9,3.6,25.8,25.7
			c-3.9,40.7-4.1,81.6-7.1,122.4c-1.4,18.4,2.5,28.2,23.4,25.1c17-2.6,38.7,9.2,38.9-25.4c1-136.2-108.9-249.2-246.3-250.4
			c-136.7-1.2-249.8,111.1-249.6,247c0,19.8,3.3,32.1,27.6,29c17.4-2.2,35.3-1.3,52.9-0.2c15.2,1,19.2-5.3,18.6-19.4
			C2197.9,931.6,2198.5,910.2,2198.6,888.8z M2313.7,1189.6c133.9,0,223.6-58.4,260.5-147.4c2.9-6.9,11.1-19.3,1.5-21.1
			c-20.6-3.8-42.4-2.5-63.6-1.8c-13.3,0.4-12.9,14.1-17.3,22.6c-30.8,59.5-79.8,93.3-146.2,95.1c-64.9,1.8-118.8-25.7-148.9-84.1
			c-15-29.2-31.7-36.3-61.7-35.2c-26.3,0.9-24.9,10-15.9,27.8C2168.9,1138.3,2243.7,1187.2,2313.7,1189.6z M2344.4,1018.7
			c-30.6,0-61.1,0.2-91.7-0.1c-13.3-0.1-21,2.5-10.9,16.9c24.5,34.7,56.9,54.8,100.4,54.7c44.2,0,78.2-18.7,102.8-55.2
			c8.1-12,4.5-16.4-9-16.3C2405.5,1018.8,2375,1018.7,2344.4,1018.7z"/>
		<path class="st0" d="M970.7,1022.8c4.5,21.6-6.7,28-19.5,21.8c-43.3-21.1-74.8-2.7-109.8,22.1c-33.1,23.4-74.3,21.5-113.1,10.3
			c-36.4-10.6-61.8-47.6-62.7-93c-0.4-19.5-2.4-27.3-25.5-24.5c-34.9,4.3-41.4-8.1-26.3-39.8c3-6.4,5.7-8,12-7.3
			c32.8,3.7,61.6-10.6,91.4-20.6c30-10.1,59.9-19,92.4-10.9c28.9,7.1,50.8,22.3,63.8,49.1c17.9,37,42.6,65,86.3,70.2
			C977.5,1002.2,968.3,1017.5,970.7,1022.8z M775.6,1037.2c27.8-1.3,52.5-9.9,72.1-30.6c5-5.3,11.3-9.8,5.7-18.8
			c-9.3-14.9-16.8-30.9-27-45.1c-17.4-24-95.8-21.7-111.9,2.7c-1.4,2.2-1.8,5.1-2.5,7.8C700.2,1000.4,728.3,1037.5,775.6,1037.2z"/>
		<path class="st0" d="M817,708.7c68.2-1.1,132.4,14.9,192.5,46.5c8.5,4.5,30.1,4.1,17.7,24.9c-8.8,14.8-13.6,31.2-39,17
			c-55.1-30.9-115.7-43.9-179.1-42.4c-54.4,1.3-107.1,12.4-155.1,38.2c-24.6,13.2-25.1-7.7-33.2-18.5c-12.6-16.9,3.2-20.2,13.3-24.8
			C692.2,723,752.7,707.1,817,708.7z"/>
		<path class="st0" d="M592.9,1705.9c0.4,61-22.4,113.7-58.6,161.4c-6.4,8.4-12.6,21.8-24.9,6.8c-8.4-10.2-28.7-14.3-11.8-36.6
			c62.1-82,65.6-165.5,13-241.9c-5.8-8.4-11.9-16.9-19.5-23.4c-10.7-9.1-7.5-14.6-0.1-24.5c15.6-20.7,26.3-18.6,42.2,0.5
			C571.8,1594.5,592.8,1646.8,592.9,1705.9z"/>
		<path class="st0" d="M1772.5,1452.6c-0.1,25.3-22.4,48.3-47.4,49c-25.9,0.7-50.1-22.8-50.2-48.7c-0.1-26.7,23.6-49.8,50.2-49
			C1750.7,1404.5,1772.6,1427,1772.5,1452.6z"/>
		<path class="st0" d="M1675.3,1771c25.7-0.7,48.3,20.4,49.6,46.3c1.4,27.3-20,50.8-47.1,51.6c-25.8,0.8-48.1-20.2-49.4-46.3
			C1627.1,1794.9,1648.1,1771.8,1675.3,1771z"/>
		<path class="st0" d="M1708,1573.7c0.7,26.7-22.2,50.6-48.6,50.6c-25.3,0-47.6-22-48.5-47.8c-0.9-26.9,21.6-50.3,48.4-50.4
			C1684.9,1526.2,1707.3,1548.1,1708,1573.7z"/>
		<path class="st0" d="M1883.7,1452.1c-28-0.4-47.3-19.2-47.6-46.3c-0.3-27.8,21.1-49.2,49-48.9c27.8,0.3,48.5,22.2,47.4,50.3
			C1931.5,1434.8,1912.3,1452.4,1883.7,1452.1z"/>
		<path class="st0" d="M1644.9,1747c-25.4,0.4-47.8-21.4-48.7-47.4c-1-27.6,20.5-50.6,47.7-51c25.8-0.4,47.9,21,48.7,47.1
			C1693.4,1723.1,1671.6,1746.6,1644.9,1747z"/>
	</g>
</g>
</svg>
