<?xml version="1.0" encoding="utf-8"?>
<!-- Generator: Adobe Illustrator 23.0.0, SVG Export Plug-In . SVG Version: 6.00 Build 0)  -->
<svg version="1.0" xmlns="http://www.w3.org/2000/svg" xmlns:xlink="http://www.w3.org/1999/xlink" x="0px" y="0px"
	 viewBox="0 0 3000 3000" style="enable-background:new 0 0 3000 3000;" xml:space="preserve">
<g id="Layer_1">
</g>
<g id="Layer_2">
	<g>
		<path d="M1564.1,2417.2c-170.7-2.1-341.3-5.4-511.1-25.3c-93.4-10.9-182.8-34.8-266.8-77.5c-162.3-82.4-323.9-166.1-482.3-255.7
			c-30.4-17.2-59.2-37.2-88.8-55.6c-87.3-54.3-127.1-134.1-123.7-235.3c7.6-227.9,35-453.8,107.5-670.2
			c69-206,216.5-340.1,428.2-391.8c132.4-32.3,269.2-43.7,405-57.8c248-25.8,496.7-33.1,745.9-25.3c212.4,6.7,423.6,26.4,633.7,57.7
			c41,6.1,82.7,6.2,123.4,16.1c203.8,49.4,345.8,217,362.5,425.8c10,125.4,20,250.7,8.4,376.5c-17.8,192.6-56,380.1-165.4,543.4
			c-110.6,165.1-256.9,287.6-454.8,336.2c-102.2,25.1-207.3,29.2-312.1,34.1C1837.1,2418.9,1700.6,2416.7,1564.1,2417.2z
			 M1680.2,2251.8c153-0.7,327.8-4.9,501.7-25.3c235.8-27.7,434.9-211.7,488.1-443.3c48.8-212.6,47.9-426,15.4-640
			c-19.3-127.5-86.8-222.8-201.4-283.9c-94.3-50.3-196.2-64.2-301.4-66.9c-307.4-7.8-614.4-6.4-920.6,25.2
			c-127.5,13.2-254.6,30.1-378.2,65.3c-322.9,92-534.1,364.2-542.7,697.2c-1.5,56,7.2,111.2,10.8,166.8
			c12.1,190.2,151,365.4,333.6,419.3c51.2,15.1,104,19.4,156.6,26.8C1112.8,2231.6,1384.8,2251.4,1680.2,2251.8z"/>
		<path d="M1389.7,1868.2c124.2,6.1,247.9,2.6,370.2-22.8c206.1-42.9,338.4-173.5,427.7-356.9c63.1-129.4,88.4-265.8,84.8-408.7
			c-0.9-35.8-1-71.5,3.2-107.2c6.3-54.1,42.2-76.1,91.6-53.4c42.7,19.6,73.9,53.6,102.6,89.5c122.6,153.6,151.4,328.9,109.9,516.1
			c-51.2,231-175,412.8-381.4,534.5c-96.3,56.8-200.4,88.3-311.6,96.3c-156.9,11.3-313.8,20.7-471.3,22
			c-131.5,1.1-235.6-54.4-326.2-143.2c-15.5-15.2-29.1-32.1-38.4-51.9c-24.8-52.6-4-96.7,52.6-110.7c45.7-11.3,92.4-10.1,139.1-9.7
			c49.1,0.4,98.2,0.1,147.2,0.1C1389.7,1864.1,1389.7,1866.1,1389.7,1868.2z M2267.7,1962.2c-45.9-7.4-85-13.7-124.2-20.1
			c-11.3-1.8-16.1,2.4-18.2,13.9c-3.6,19.5-9.9,38.5-13.7,58c-1.4,7.2-10.3,16.4-0.7,22.4c9.4,5.9,20.3,11.4,32.6,5.1
			C2185.4,2019.9,2224.9,1994.6,2267.7,1962.2z M2013.9,1921.7c-7.5,0.3-14.6-3-18.7,5.3c-8.9,17.8-18.2,35.5-27.1,53.3
			c-2.5,5.1-2,9.2,4.6,11.3c30,9.6,59.8,19.4,89.7,29.2c14.7-21.1,13-47.2,21.2-70.3c0.6-1.6,0.9-3.2,1.4-4.8
			c2.9-9.7-1.1-13.1-10.8-14.3C2053.6,1928.8,2033.2,1924.9,2013.9,1921.7z M1902.8,2111.5c15.7-1.9,28.8-3.3,41.9-5.3
			c32-4.9,63.8-10.9,94.8-20.7c7.4-2.3,13.7-5.8,15.2-14.6c0.8-4.9-0.9-7.7-5.7-9.2c-33.9-11-67.8-22.1-101.6-33.2
			C1927.3,2052,1916.9,2080.8,1902.8,2111.5z M1434.5,2052.1c-1.1-2.3-1.4-4.2-2.5-5c-19-13.3-38-26.6-57.2-39.6
			c-4-2.7-8-0.4-11,2.8c-15.8,16.8-41.2,32.1-44.6,51.2c-3,16.9,27.8,28.9,41.7,45c6.9,7.9,12.3,4.8,18.6-1.2
			c15.5-15,31.5-29.5,47.2-44.3C1429.6,2058.2,1432,2054.9,1434.5,2052.1z M2260.5,1893.1c7.7-28.8-8.2-36.7-34.5-36.7
			c-13.1,0-26.4-2.7-39.3-5.3c-41.6-8.4-32.5-8.2-44,30.9c-4.1,14,0.5,18.7,15,20.3c27.1,3,54,8.2,80.8,13.1
			C2256.1,1918.6,2269.4,1918.5,2260.5,1893.1z M2472.5,1631.9c-9.2-25.7-17.3-47.2-24.6-69.1c-2.9-8.7-7.5-11.7-16.3-10.3
			c-16.4,2.5-32.9,4.1-49.2,6.7c-6.7,1.1-13.8,0.8-13.4,12.9c1.6,54,6.8,59.8,59.9,59.8C2442.1,1631.9,2455.4,1631.9,2472.5,1631.9z
			 M1900.8,2019.4c0.9-6.4-2.6-6.9-5.3-8.6c-32.1-20.6-52.1-17-73.4,13.3c-6.7,9.5-12.6,19.6-20.1,28.4c-10,11.6-6,17,6.1,23.6
			c50.2,27.6,50,27.9,75.9-22.9C1889.8,2041.4,1895.7,2029.6,1900.8,2019.4z M2445.3,1052.8c-10.6,8.5-22.3,17.8-33.8,27.2
			c-4.3,3.5-12.9,6.2-9.7,12.7c11.3,23,20.6,48.5,37.5,66.7c10.3,11.1,27.4-8.9,42.3-11.9c3.2-0.6,5.9-3.1,9.1-3.9
			c11.4-3.2,11.8-9.5,6.1-18.5c-13.7-21.7-27.1-43.7-40.7-65.5C2453.9,1056.2,2452,1052.3,2445.3,1052.8z M1658,2128
			c44.2-3,46.9-5.1,64.5-35.3c5.1-8.7,3.7-11.6-4.3-17.1c-53.5-36.3-54.6-36.4-94.8,13.6c-4.2,5.2-7.6,11-12.2,15.7
			c-8.9,9.2-3.1,13.9,4.5,19.3C1629.6,2134.3,1644.6,2127.8,1658,2128z M1617.7,2028.2c1.2-6.5-3.1-6.9-5.4-8.7
			c-36.4-29.1-50.4-28.4-84.6,4c-3,2.9-5.7,6.2-9.2,8.4c-16.2,10.3-12.5,18.4,2.3,25.9c3.7,1.9,6.7,4.9,10.1,7.3
			c37.9,26.3,38,26.3,66.6-10.6C1604.7,2045.3,1611.7,2036.1,1617.7,2028.2z M1687.2,2008.9c58,44,70,42,105.6-16.7
			c0.4-0.7,1-1.3,1.6-1.9c7.1-8.4,3.9-11.2-5.5-15.2c-56.9-23.9-56.8-24.2-94.5,23.7C1691.9,2002.1,1689.6,2005.6,1687.2,2008.9z
			 M1333.3,1979.2c-3.9-3.1-6.9-5.8-10.2-8.1c-13.5-9.6-27.4-18.6-40.4-28.8c-9.9-7.8-17.3-6.8-25.2,2.6
			c-5.8,6.9-12.1,13.8-19.3,19.2c-14.9,11.2-11.3,19.1,1,30.5c46.3,42.8,46.1,43.2,86.2-5.1C1328,1986.3,1330.4,1983,1333.3,1979.2z
			 M1445,1930.8c-15.4,8.3-24.3,22.9-36.7,33.6c-8.6,7.4-4.7,12,2.6,17c15.8,10.7,31.4,21.7,47,32.7c5.6,3.9,10.4,7.9,17.1,1.2
			c11.8-11.7,24.3-22.6,36.3-34.1c3.3-3.1,9.7-8.3,3.7-11.9C1492.4,1955.7,1468.8,1943.6,1445,1930.8z M2489.8,1503.5
			c15.2-2.2,25.9-4.4,36.6-5.1c29.7-2,21.2-26.3,21.2-41.2c0-15.8-9.5-30.2-31.2-24.4c-9.6,2.6-19.6,3.5-29.4,5.1
			c-36.7,6-36.7,6-23.6,41.3C2468.7,1493.7,2470.4,1512.8,2489.8,1503.5z M2509.6,1277.8c28.5,0.5,36.8-9.4,30.4-36.4
			c-1.3-5.6-2.9-11.2-4.4-16.8c-14-51.8-15.1-52.3-63.1-27.3c-2.2,1.1-4.6,1.8-6.8,3c-3.4,1.9-4.3,4.9-2.4,8.3
			c11.8,21.8,23.7,43.6,35.8,65.2C2501.2,1277.7,2505.3,1278.9,2509.6,1277.8z M2435.8,1674.3c0-0.2,0-0.4,0-0.5
			c-3.3,0-6.6,0.1-9.9,0c-39.9-1.1-39.9-1.1-31.3,39.6c3.9,18.5,44.8,34.1,60.7,23.2c4.8-3.3,30.8-55.2,28.1-57
			c-12.3-8.7-26.8-3-40.2-5.2C2440.8,1673.9,2438.3,1674.3,2435.8,1674.3z M2197.2,1756.4c-23-1.5-32.7,8.4-33.6,40
			c-0.2,6.4,1.4,9.1,7.4,10c24.5,3.4,49,7,73.5,10.3c6,0.8,10.3,0.1,11.6-8.3c5.4-33.6-5.6-48.3-39.5-50.9
			C2212.4,1757.1,2208.2,1756.9,2197.2,1756.4z M2511.8,1391c-21.9-59.8-26.4-61.9-68.9-52.9c-23.8,5-24.9,13.4-18,34.7
			c8.2,25.4,19.4,35.2,45.8,26C2483.6,1394.4,2497.9,1393.6,2511.8,1391z M1410.1,2134.5c42.7,0,79.8,0.1,116.8-0.1
			c5,0,10.3-2.1,12.2-7.3c2.4-6.4-4.2-8.2-7.8-10.8c-16.2-11.7-32.7-22.9-49-34.4c-4.9-3.4-9.5-7.1-15.3-1.5
			C1449.3,2097.3,1431.5,2114.1,1410.1,2134.5z M2297.1,1792.7c-5.3,24.7,5.2,36.5,30.8,36.3c9.8-0.1,19.8,1.7,29.4,3.8
			c11,2.5,14.5-0.1,13.9-12c-2.3-43.2-6.3-47.4-48.4-52.9C2302.8,1765.2,2289.3,1766.8,2297.1,1792.7z M2459.3,1289.1
			c-11.5-20.7-22.7-39.1-31.9-58.3c-8-16.7-17.8-6.6-26.4-2.8c-8.6,3.8-22.4,2.6-19.4,19.8C2391.6,1304,2404.5,1311.5,2459.3,1289.1
			z M2367.5,1519c22.8-4.6,47.2,2.2,58.3-15.8c7-11.4-18.4-53-25.5-49.9c-16,7-43.8-6.4-47.3,18.4
			C2351.1,1485.7,2348.3,1509.7,2367.5,1519z M2060.3,1832c-6.8,0.8-14.7-3.1-18.6,4.3c-7.2,13.7-19.2,26.6-17.6,42.1
			c0.4,3.9,21.8,5.7,33.6,8.2c7.2,1.5,14.7,2.2,21.9,3.8c12.7,3,18.9,0,22.1-14.5c7.8-35,8.9-34.7-25-40.8
			C2071.1,1834.1,2065.4,1833,2060.3,1832z M1094,1921.4c-11.7,5.2-13.7,15.7-11.5,26.6c3.3,16.6,13.3,30,23.7,42.9
			c21,26,20.3,25.1,43.9,2.7c11.6-11.1,10.4-17.2-1.1-26.6c-14-11.5-26.7-24.6-40-37C1104.8,1926.2,1101,1921.6,1094,1921.4z
			 M1759.4,1920.1c66.4,28.6,78.6,25.7,95.8-23.3C1821.3,1897.1,1781.2,1864.9,1759.4,1920.1z M1953.8,1914.1
			c-49.5-11.5-56.4-8.2-77.9,33.4c-4.1,7.8-3.6,10.4,4.9,14.3c38,17.3,41.1,16.6,60.3-21.4
			C1945.1,1932.3,1948.9,1924.2,1953.8,1914.1z M1251,2064c-1-1.6-1.9-4-3.5-5.6c-15.7-14.6-31.5-29.1-47.3-43.7
			c-4.4-4.1-8-3.1-12.9,0.1c-28.1,18-28.6,28.2-1.5,46.5c10.9,7.4,21.9,14.8,33.3,21.4C1227.5,2087.6,1250.4,2074.1,1251,2064z
			 M1636.2,1926.2c-15.6,1.5-28,18-36.4,31.4c-6.9,10.9,13.4,14,22.1,19c8.6,4.9,18.7,17.4,28.3,8.9c12.7-11.2,28.7-26.2,29.9-40.7
			c1-12.7-24.1-10.3-36.4-17.5C1643,1927,1642.1,1927.1,1636.2,1926.2z M2314.2,1672c-7.1,5.7-27.1-12-26.8,13.7
			c0.4,37.3,4.7,41,50.7,41.9c7,0.1,14.3,3.7,14.3-9.7C2352.4,1682.8,2345,1672.3,2314.2,1672z M2313.6,1630.9
			c4.2-6.6,25.2,9.6,20.7-10.3c-4-17.8,6.7-45.2-19.5-51.5c-8.7-2.1-34.1-9.3-34.2,17.9C2280.5,1630.3,2280.4,1630.3,2313.6,1630.9z
			 M2378,1051c5.5-3.8,10.4-6.7,14.9-10.2c32.6-25.6,32.8-25.9-0.1-53.9c-7.5-6.4-13.2-19.3-28.2-6.4c-13.4,11.6-16.2,20.4-6.2,34.9
			C2365.8,1026.3,2371.2,1038.5,2378,1051z M2348.5,1419.9c16.9-6.3,40.5,1.3,41.7-15.9c1.1-14.6-2.3-39.1-21.6-44.3
			c-7.4-2-33.1-4.4-33.2,18.1C2335.4,1392.5,2336,1409.2,2348.5,1419.9z M2218.8,1671.8c-26.9-8.6-32.2,11.2-31.3,28.1
			c1.4,25,24.9,12.8,38.5,16.2c8.3,2.1,22.4,6.9,21.1-13.1C2245.9,1683.6,2247.6,1664.2,2218.8,1671.8z M2067.6,1789.5
			c54.1,12.2,53.6,12.1,61.3-26.3c2.3-11.2-0.1-14.5-11.1-16C2088.1,1743.1,2081.1,1748.5,2067.6,1789.5z M2360.6,1118.9
			c-3.9,8.4-21.4,8.9-14.7,25.9c4,10,7.4,20.3,10.4,30.6c3.9,13.8,6.9,24.1,26.3,15.3c17.8-8,16.4-15.7,7.7-29
			c-7.3-11.1-12.8-23.3-19.1-34.9C2369.3,1123.4,2367.9,1119.2,2360.6,1118.9z M2273.7,1496.6c9.2,5.7-11.8,31.1,14.2,31.4
			c8.4,0.1,32.9,8.6,27-15.1c-3.5-13.9,9.1-39.2-19.5-41.1C2282.4,1470.9,2266.7,1470.7,2273.7,1496.6z M1147.5,1906.5
			c53.9,53.7,37.2,51.3,82.9,5.1c0.4-0.4,0.1-1.6,0.1-5.4C1204.3,1899.6,1177.8,1903.8,1147.5,1906.5z M2316,1275.2
			c1.7,8.9,3.6,17.8,5.1,26.7c1.3,8.1,0.4,20.3,8,21.8c8.7,1.7,20.5-1.9,27.9-7.4c8.2-6.1-1.6-14.7-3.2-22.1
			c-1.9-8.8-5.7-17.1-8.8-25.6c-2.6-7.1-5-14.5-15.4-10.7C2321.5,1260.9,2313.8,1264,2316,1275.2z M1396.5,1912.2
			c-28.7-3.3-56.3-5.7-87.4-4.4C1372.9,1956.4,1361.1,1957.2,1396.5,1912.2z M1936,1863.9c35.7,13.8,38.6,13,53.7-19.1
			c3-6.4,13.8-15.6,3.2-20.7c-8.9-4.2-22.6-9-31.6,3.2C1952.5,1839.1,1944.5,1851.5,1936,1863.9z M2508.6,1606.4
			c1.8,0.1,3.7,0.2,5.5,0.3c4.1-13.1,8.5-26.1,12.3-39.3c7.9-26.9,5.2-29.1-23.1-24.5c-13.8,2.2-16.1,7.7-11.1,19.7
			C2498.1,1577.1,2503.2,1591.9,2508.6,1606.4z M2307,1925.1c20.6-13,34.7-29.2,48-46.9c-48.5-18.2-52.3-15.7-48.9,31.3
			C2306.4,1913.6,2306.6,1917.7,2307,1925.1z M2239.8,1607.8c-5.9-7,8.7-28.9-13.1-27.8c-22,1.2-15.9,24.3-19.3,37.9
			c-3.9,15.2,11.2,9.2,18.7,10.5C2241.1,1631,2242.3,1621.7,2239.8,1607.8z M2265.8,1413.9c2.1,8-1.6,20.1,12,17.1
			c7.9-1.7,24.5,2.3,20.7-12.9c-3.1-12.5,5.1-34.9-14.3-36C2266.4,1381.1,2270.4,1402.4,2265.8,1413.9z M1504.1,1911.7
			c52,34,50.8,35.9,74.2,0C1555.3,1911.7,1532.4,1911.7,1504.1,1911.7z M2128.7,1706.9c22,1.1,15.8-17.6,19.9-28.2
			c4-10.5-5.5-10-11.7-9.7c-18.9,0.7-20.7,18-24,29.9C2109.9,1710,2123.4,1704.3,2128.7,1706.9z M2550.3,1368.1
			c1.7-0.6,3.4-1.1,5.1-1.7c-0.9-13.6-1.4-27.1-2.8-40.7c-0.5-5,1.4-13.2-7.5-12.8c-5.6,0.2-11.8,1.8-16.3,4.9
			c-7.2,4.9-0.4,10.2,1.9,14.6C2536.8,1344.6,2543.7,1356.3,2550.3,1368.1z M2317.7,1029.5c-6.4,19.3-0.9,33.7,4.4,47.7
			c1.7,4.4,0.4,15,11,10.2c7.3-3.3,12.3-8.5,7.3-17.4C2333.4,1057.4,2326.3,1044.9,2317.7,1029.5z M1313.8,2120.4
			c-9.3-8.8-16.3-15.4-23.3-21.9c-9-8.4-13.8,0.5-17.3,5.6c-5.8,8.5,4.2,9,8.2,10.6C1290.2,2118.1,1299,2123.3,1313.8,2120.4z
			 M1795.3,2118.6c-28.4-19-28.4-19-37.1,2.5C1769.7,2121.8,1780.9,2122.8,1795.3,2118.6z"/>
		<path d="M1328.4,1747.4c-76.4,3.1-173.2,7.2-268.7-10.9c-165.4-31.3-285.9-125.5-355.3-277.1c-54.2-118.3-23.8-230.3,61-323.7
			c123.4-135.9,276.8-219.8,461.6-238.2c183.2-18.2,366.9-27.4,551-25.5c46.7,0.5,93,6.4,138.7,15.6
			c213.8,43.2,362.1,301.7,289.4,504.6c-25.9,72.3-73.5,128.5-134.8,172.6c-141.4,101.6-296.9,165.5-473.2,173
			C1515,1741.3,1431.9,1746.7,1328.4,1747.4z M1970.7,1577.9c36.1-12.5,64.8-37,93.4-60.6c63.7-52.4,109.3-116.7,117.4-201.5
			c11.7-122.7-37.5-222.1-121.6-306.9c-20.8-21-43.7-39.9-73.1-51c-1.4,12.6-2.6,23.3-3.8,34c-0.4,4.1-0.7,8.3-1.2,12.4
			c-10.4,98.6-50.6,181.7-126.7,246.6c-50.8,43.3-110.9,66.4-174.8,81c-14.5,3.3-22.1,7.5-24.2,24.8
			c-16.3,139.3-94.1,230.3-223.2,280.6c-22.1,8.6-24.4,0.2-24.2-18.9c0.7-80.8-0.3-161.6,0.7-242.3c0.3-21-3.2-30.9-27.7-30.6
			c-28.1,0.3-56.5-3.8-84.3-8.7c-129.5-22.9-215-103.5-239.1-223.1c-8.6-42.5-7.3-85.5-5.1-129.3
			c-90.7,33.5-242.9,132.3-300.4,240.4c-37.9,71.3-45.2,145.9-10.3,218.6c67,139.2,177.2,225.8,330.6,253.7
			c83.3,15.2,167.7,11.5,251.6,9c138.8-4.1,278.4-0.3,415.2-29.9c83.3-18,160.4-52,231.6-99.2L1970.7,1577.9z M1431.7,923.1
			c-99.3,6.8-193.2,9.7-285.4,29.6c-46.8,10.1-46.8,10.2-51.7,58.1c-15.7,153.5,67.8,263.8,219.4,286.2
			c99.3,14.7,199.3,12.9,299,3.6c66.1-6.2,129.9-23.1,185.7-60c102.9-68,142.9-168.8,144.8-288.2c0.3-16.6-10.7-18-22.3-20.8
			c-124.7-29.7-250.5-18.2-379.7-13.6c81.9,49.7,111,106.3,93.5,177.1c-15.5,62.6-72.2,107.8-138.3,110.3
			c-61.1,2.2-119.4-37.7-140.6-96.3C1331.3,1040.6,1354.4,980.6,1431.7,923.1z M1596.5,1060.1c0.2-60.2-43-103.9-103.1-104.3
			c-58.4-0.4-105,45.6-104.8,103.6c0.2,57.5,47.4,103.9,105.5,103.7C1551.8,1162.9,1596.3,1118.1,1596.5,1060.1z M1451.7,1581.3
			c86.1-33.4,160.2-137.8,164-226.1c0.4-10.5-2.9-13.4-12.4-12.2c-45.6,5.6-91.4,4.9-137.1,4.7c-10.8,0-14.6,3.8-14.5,14.5
			C1451.8,1434.5,1451.7,1506.8,1451.7,1581.3z"/>
		<path d="M1971.5,1577c-30.4,13.4-60.8,24.7-95.4,21c-60.9-6.6-112.2-54.8-120.2-115.1c-8.9-67.4,26.9-128.3,88.5-150.4
			c61.3-22,128.4,1.2,163.3,56.4c33.5,52.9,25.9,123.5-17.7,167.5c-6.8,6.9-13,14.3-19.5,21.5
			C1970.7,1577.9,1971.5,1577,1971.5,1577z M1892.2,1367.1c-54.6-0.2-95.4,39.6-95.8,93.2c-0.4,55.1,40.8,96.9,95.3,96.7
			c53.4-0.1,94.5-41.4,94.6-95C1986.4,1407.7,1946.3,1367.2,1892.2,1367.1z"/>
		<path d="M1102.3,1618.7c-76,0.3-136.5-59.3-137.6-135.3c-1.1-76.4,60.3-138.9,136.8-139.2c76.3-0.3,138.2,61.9,137.6,138.4
			C1238.4,1558.5,1178.2,1618.4,1102.3,1618.7z M1101.3,1387.1c-54.2,0.1-94.4,40.4-94.4,94.6c0,53.7,40.9,95.1,94.2,95.3
			c54.5,0.3,96-41.5,95.7-96.4C1196.5,1426.7,1155.8,1386.9,1101.3,1387.1z"/>
	</g>
</g>
</svg>
