<?xml version="1.0" encoding="utf-8"?>
<!-- Generator: Adobe Illustrator 23.0.0, SVG Export Plug-In . SVG Version: 6.00 Build 0)  -->
<svg version="1.0" xmlns="http://www.w3.org/2000/svg" xmlns:xlink="http://www.w3.org/1999/xlink" x="0px" y="0px"
	 viewBox="0 0 3000 3000" style="enable-background:new 0 0 3000 3000;" xml:space="preserve">
<style type="text/css">
	.st0{stroke:#000000;stroke-width:10;stroke-miterlimit:10;}
</style>
<g id="Layer_1">
</g>
<g id="Layer_2">
	<g>
		<path class="st0" d="M661,1226.7c-75.5,0-150.1-4.6-223.9,0.9c-193.8,14.5-295.3-85.1-349.1-239.3
			c-46.7-134.1-40.7-265.9,33.6-390.6c32.2-54.1,76.7-95,136-116.2c97.3-34.7,161.1-102.4,200.9-195.6c6.6-15.4,15.1-30.1,20.6-45.9
			C515,138.7,589.3,92.8,692.8,75.3c206.6-35,356.8,47.4,470.9,212.1c13.8,20,23.8,23.9,47.3,16.2c268-87.4,528.4-74.2,777.9,63.9
			c28.2,15.6,54.1,35.5,81.1,53.4c104.1-185,330.1-203,506.7-147c176,55.8,270.3,181.9,308.2,356.9c26.7,123.4,34.6,249,44.3,374.4
			c12,154.9,13.7,310.1,17.1,465.3c3.6,163.7-4.8,327.2-14.3,490.6c-4,68.1-9.4,136-14.7,204c-1,13.2,2.7,24.7,6.8,36.6
			c87,255.2-54.4,516.8-314.6,589.5c-86.5,24.2-169,62.1-256,86.2c-240.1,66.6-485.2,77.6-732.3,66.5c-95.3-4.3-191-4.3-284.4-27.9
			c-14.2-3.6-28.4-7.4-42.3-11.9c-105.4-33.9-169.4-102.2-185.4-214.7c-16.7-117.8-91.6-205.3-191.5-228.7
			c-119.8-28-236.4,51.8-251.5,146.6c-13.7,85.7-87,135.1-186.5,144.7c-209.7,20.1-381-106.2-419.8-318.3
			c-35.4-193.9,27.9-356.8,181.3-479.8c86.6-69.4,132.4-153.8,133.8-264.2c1.7-135.7,51.5-246.2,170.1-321
			C599.9,1334.2,635.1,1282.2,661,1226.7z M1555.5,1561.1c14.4-3.1,26.3-5.6,38.3-8.3c47.5-10.6,95.5-14.8,143.7-7.1
			c115.4,18.5,176.1,97.7,214.6,198.9c30.1,79.2,39.3,162.5,41.6,246.8c7.2,256.3-172.1,450.9-423.7,459c-16.5,0.5-32.2,4.6-33-22.8
			c-0.7-24.9,7.6-28.4,29.9-29c173.5-4.8,315.6-110.9,357.4-274.2c36-140.8,19.8-279.7-44.6-410.2
			c-47.4-96.2-124.1-131.9-230.9-117.8c-79.1,10.5-151.6,37.9-219.4,79.4c-66.4,40.6-134.6,42.5-202.7,3.9
			c-23.7-13.4-47.3-27.4-69.1-43.6c-178.1-132.1-437.2-46-520.5,117.9c-13.5,26.6-26.4,7.9-40.4,4.1c-19.4-5.3-13.3-16-7.1-28.1
			c102.1-197.7,387.7-273.1,575.1-151.8c31.6,20.5,63.4,40.8,96,59.6c41.4,24,83.9,22.8,126.1,0.9c33.4-17.3,66.6-35.4,100.4-51.8
			c10.6-5.1,12-12.3,13.1-22.2c6.9-64.2,46.7-101,104.3-121.1c43.3-15.1,88.3-16.9,133.6-11.1c37.5,4.8,74.4,1.4,113.1-6.4
			c-2.3-5.3-3.2-9.4-5.6-12.5c-55.5-73.3-126.4-124.4-215.4-149.2c-7.8-2.2-16.6-2.6-24.7-1.9c-90.6,8.1-180.4,1.8-269.2-16.3
			c-152-31.1-289.5-91.7-398.7-205.8c-55.4-57.9-93.9-125.9-114.4-212.8c-32,94.1-56.7,180.7-71.4,269.5
			c-23.8,143.5-83.9,262.4-212.1,340.3c-26.3,16-44.9,40.5-61.4,66.5c-35.7,56.8-49.7,118.7-50.5,185.4
			c-1.4,119.9-44.8,221.1-142.1,294.8c-125.5,95-184.1,222-183,377.7c1.5,201.2,161.7,351.4,361.4,338.9
			c43.2-2.7,84.2-14.4,119-45.9c-14.7-8.4-27.4-15.4-39.9-22.8c-140.9-84.4-153.1-210.1-27.9-316.6c74.6-63.4,157.7-114.7,253.3-142
			c112.3-32.1,227.2-48.7,343.5-57.9c101.3-8,203.1-10.7,303.1-31.3c108.4-22.3,202.3-67.9,263.8-165.1c27.1-42.8,21.3-58-29.2-68.5
			c-79.2-16.4-149.2,4-210.8,55.9c-35.5,29.9-74.5,53.9-119.7,67.3c-104.6,30.9-205.5,9.3-306-20.2c-22.1-6.5-5.8-20.6-3.9-30.5
			c2.2-11.6,3.6-24.5,23.9-18.5c36.1,10.6,73,18.9,110.1,25.7c116.1,21.2,221-11.6,288.5-89.8c-19.3,6.1-37.1,11.8-55,17.4
			c-93.2,28.9-181.6,23.7-263.7-34.5c-30.1-21.4-64.2-35.3-100-44.5c-104.7-26.8-184.9,12.6-225.3,110.5
			c-10.6,25.8-28.7,5.1-42.9,6.1c-16.8,1.2-9.5-12.6-7.4-20.3c22.3-82.1,78.6-130,158.5-149.3c90.5-21.9,173,4.9,247.5,54.8
			c65.4,43.7,133.8,50.4,207,30c26.2-7.3,51.9-16.5,77.5-25.8c59-21.3,117.3-44.4,180.6-51.1c136.9-14.6,242.2,74.7,232.8,198.5
			c-2.6,34.8-7.8,37.7-40.2,25.4c-10.8-4.1-13.8-9.6-12.7-21.1c1.7-16.6,2.2-33.3-2.4-49.9c-21.5-77.8-102.4-117.8-199.8-91.4
			c37.3-2.5,65.4-0.3,92.6,8.6c67.1,21.7,87.1,75.5,49.6,135.3c-51.3,82-122.5,139-214.1,171.3c-121.6,42.8-248.8,46.4-375.1,55.6
			c-126.7,9.3-252.5,24.3-373.8,64c-94.1,30.8-176.8,82.2-245,154.2c-57.6,60.8-53,118,9.9,173.7c19,16.8,41.1,28.8,62.4,42.1
			c15.5,9.6,21.9,6.2,25.3-10.7c6.6-33.3,19-64.1,40.7-90.9c77.4-95.5,227-125.3,333.9-64.6c19.5,11.1,29.7,11,46.9-5.4
			c158.5-151.4,346.3-203.9,561.5-164.3c27.2,5,28,15.2,21.8,37.7c-6.9,25.2-23,15.8-37,13.2c-117.5-22.1-231.6-12.3-341.4,36.2
			c-11.1,4.9-28.1,5.9-18.1,27.6c61,132.2,156.9,224.9,303.9,246c199.3,28.7,367.4-43.3,512-177.9c9.6-8.9,11.9-18.2,10.1-30.7
			c-15.6-106.8,5-206.4,61.2-298.4c9-14.8,11.8-26.1,2.5-42.7c-150.1-269.2-185.1-552.6-102.3-849.9c10.4-37.5,22.9-74.4,36.7-118.8
			c-98.8,72.2-203.3,112.6-319.5,139.8c14.6,9.1,23.4,14.4,32,20c55.2,35.8,102.8,79.7,137.5,135.9c25.7,41.6,11.1,70.4-36.8,77.4
			c-52.1,7.6-104.3,8.3-156.8,4.6c-33.8-2.4-67.3-0.1-98.6,14.2C1582.6,1510.4,1560.9,1527,1555.5,1561.1z M2871.3,2095.4
			c5-83.3,10-157.3,13.8-231.3c14-272.6,10.6-545.1-6.6-817.5c-8.5-133.8-14.9-268-44.2-399.5c-21.5-96.7-54.9-188.5-137.7-250.9
			c-119-89.7-253.5-117.2-398.5-85.2c-77.9,17.2-139.6,60.2-178.6,132.3c-6.6,12.2-6.3,19.7,3.3,29.9c9.4,10,16.7,9.1,27,2.8
			c10.7-6.6,22.1-11.9,33.6-17.2c99.1-45.3,190.5-22.6,257,63.7c22.5,29.2,41.2,60.8,54.6,95.1c88.8,225.8,120.6,461,115.8,702.2
			c-3.7,188.3-29.5,373.9-73.2,556.9c-5.1,21.4-0.2,27.1,19.8,29.3c67.8,7.5,129.9,31.3,187.2,68.3
			C2791.9,2004.9,2830.8,2044.1,2871.3,2095.4z M2163.6,2050c83-87.6,182.2-136.9,300-147c16.2-1.4,16.6-11.4,19.5-23.1
			c30.2-123.3,51.4-248,63.9-374.4c25.3-256,12.1-508.6-61.2-756.6c-20-67.6-42.2-134.1-84.6-191.4c-50.9-68.8-117.4-86-194-52
			c-42.1,18.7-43.1,24.6-14.9,60.4c11.2,14.1,26.4,11,40.2,12.8c98.5,12.3,164.6,71.6,187.5,168.3c19.7,83,16.4,167,8.9,250.4
			c-23.8,263.9-59.7,526.4-89.3,789.6c-2.8,25-9.6,26.9-32.2,23.9c-32.8-4.5-20.7-26.2-19-41.7c27.6-240.5,57-480.8,83.7-721.4
			c9.5-85.3,16.1-171.2,3.6-257.3c-14.1-96.8-67.7-154-148.9-156.7c28.1,185.8,19.9,214-63.6,367.1
			c-146.8,269.3-182,552.3-89.5,847.4C2095.4,1917.9,2123.5,1985.5,2163.6,2050z M2897.8,2353.4c0.2-218.1-178-398.6-394.4-399.6
			c-222.8-1-404.6,179-403.8,399.9c0.8,219.1,180.4,398,399.5,397.9C2718.4,2751.6,2897.6,2572.6,2897.8,2353.4z M1988.8,840
			c-5.9,8.4-10.7,15-15.4,21.7c-60.3,87-141.1,145.1-243.3,173c-6.9,1.9-14.8,10-21.8-1.5c-13.8-22.5-6.6-43.4,18.3-51.5
			c97-31.2,171.7-90,221.5-179.5c6-10.8,11.8-20.8,8.5-35.2c-11.6-50.9,7.7-92.4,42.9-128c32.1-32.4,71.7-51.1,116-58.5
			c19.8-3.3,20.5-9.9,9.3-23.1c-17.6-20.8-35.9-41-53.2-62c-15.2-18.6-23.3-17.8-37.4,4c-79,121.9-192.9,185.2-337.6,193.4
			c-12.7,0.7-28.7,5.2-26.9-18.1c1.3-17.3-4.2-33.3,24.9-34.6c111.6-4.8,205.5-49.3,274-138.7c53.1-69.3,46-54.5-15.6-94.4
			c-10.5-6.8-22-12.2-33.2-17.8c-139.4-70-288.2-93.3-442.5-86c-78.6,3.7-155.7,16.6-233.6,45c180.4,74.4,293.4,201.2,311.1,394.5
			c17.8,194.9-72.2,340.6-236.6,445.5c62.8,16.6,123.2,23,184,24.2c188.3,3.9,364.4-35.9,518.6-149.9c48-35.5,89.9-77.2,119.7-132.6
			C2078.1,917.1,2028.1,888.6,1988.8,840z M505.5,1165.4c50.3,0,100.6-0.9,150.8,0.4c20.5,0.5,28.6-5.4,32.6-26.6
			c24.9-132.9,59.1-263.4,105.7-390.4c19.1-52,37.3-104.7,60.8-154.7c53.1-112.9,143.5-189.5,252.2-245.7
			c22.6-11.7,23.1-20.1,9.3-38.8c-100.7-136.6-226.5-212-404.4-184c-91.4,14.4-158.3,49.2-187.7,141.1c-6,18.8-16.1,36.3-24.5,54.4
			c-43.6,94.2-109.9,165-208.4,202.8c-22.6,8.7-44.7,18.5-64.1,32.9c-47.5,35.2-74.2,84.3-97.5,143.2
			c185.3-73.7,338.5-4.9,406.6,82.5C617.1,885.5,607.2,1002.6,505.5,1165.4z M2069.3,2496.2c-6.1,4.7-11.2,8.1-15.7,12.2
			c-81.1,74.7-176.7,123.4-282,152.3c-160.5,44-313.4,34.1-450-72.4c-60.6-47.3-105.7-107.4-137.4-177.2c-8.2-18.1-15.4-21-31.8-8.7
			c-27,20.1-52.8,41.3-77.1,64.4c-7.6,7.3-16.4,14-4.3,25.5c63.4,59.5,83.9,137.5,96.8,219.8c7.3,46.4,33.6,82.9,72.7,109.6
			c33.5,22.9,71.6,34.5,110.4,43.4c108.1,24.9,218.4,24.6,328.3,28.4c237.7,8.2,472.9-7.8,701.6-79.3c12.7-4,27.7-4.1,38.2-16.2
			C2247.6,2760.4,2132.8,2659.3,2069.3,2496.2z M537.8,942.9c1.4-66.8-25.4-120.1-76.1-161.9c-88.2-72.6-234.3-81.3-331-20.5
			c-10.8,6.8-16,14.4-16.9,27.3c-7.7,105.2,16.4,201.8,77.6,288.1c33.1,46.7,75.9,82.4,133.7,92.1c35,5.8,73.8,20,105.7-6.8
			C498.2,1104.6,535.1,1031.8,537.8,942.9z M1172.6,1140.6c31.7,9.7,53,30.4,84.9,16.9c264.9-112.2,332.1-457.7,127.4-659.4
			c-34.2-33.7-72.4-61.9-124.9-84C1508.9,634.6,1467.3,989.3,1172.6,1140.6z M2192.7,762.1c-0.1-42.2-7.6-80-20.5-116.9
			c-3.5-10.1-6.9-18.1-21.5-16.9c-50.4,4-93.5,22.4-126,61.7c-17.6,21.3-23.2,45.8-15.2,73.6c16.4,57.6,85.5,112.3,144.6,114.8
			c14.8,0.6,17.4-7.3,20.9-17.6C2186.2,827.8,2191.8,793.9,2192.7,762.1z M1217.3,801.5c-13.6,34.9-26.4,68-39.2,101
			c-2.7,6.8-4.9,13.9-8.1,20.4c-3.8,7.6-2.4,13.8,2.4,20.4c19.8,26.8,39.4,53.8,62.1,84.8c8-23.5,11.3-45,21.8-62.1
			c39.8-64.6,17.6-115-32.6-160.4C1222.8,804.9,1221.9,804.5,1217.3,801.5z M1128.5,882.1c17.4-43.8,32.8-83.3,48.6-122.6
			c3.3-8.3-0.4-14.1-5-19.9c-18.7-23.6-37.5-47.2-58.6-73.7c-17.7,39.4-33.5,75.3-50.3,110.9c-4,8.4-1.1,13.7,3.4,19.8
			C1086.2,823.5,1105.6,850.5,1128.5,882.1z M1074.5,1021.8c9.4-23.7,17.1-43.8,25.4-63.6c3.8-9.2,5.8-17.4-0.9-26.4
			c-20.9-28.2-41.3-56.8-64.9-89.4c-13.3,28.9-24.5,53.1-35.6,77.4c-3.3,7.3-2.5,13.8,3.2,20.1
			C1025.3,966.1,1048.6,992.6,1074.5,1021.8z M1023.5,736.1c17.5-38.6,32.7-72.5,48.1-106.3c3.9-8.6,2.4-15.7-3.8-23
			c-14.1-16.7-27.7-33.8-43.2-52.9c-16.6,34.7-31.8,66.7-47.1,98.6c-3.1,6.5-7.2,12.2-1.2,20C991.6,692.1,1006,712.3,1023.5,736.1z
			 M956,883.9c47.9-94.9,46.6-110.9-11.9-157.8c-53.7,89.2-53.4,98.6,4.5,154.4C950.1,881.8,952.4,882.3,956,883.9z M1303.5,820.2
			c35.1-75,30.8-90.6-35.5-142.3c-31.3,58.1-31.3,58.1,8.3,108C1284.6,796.5,1293.1,807,1303.5,820.2z M1166.5,555.3
			c-27.8,47.1-30.2,52-20.1,65.7c17.1,23.3,35.8,45.5,56,70.9c6-15,11.1-26.3,15.2-37.9c4.3-12.1,14.6-24,2.6-37.5
			C1202.4,596.4,1184.8,576.1,1166.5,555.3z M1213.1,450.4c-30.5,50.2-24.5,68.7,37.1,113.8C1281.6,502.2,1277.9,490.9,1213.1,450.4
			z M1100.9,560.8c31.3-55.8,29.1-63.9-26.3-107.2C1047.1,502.1,1047.1,502.1,1100.9,560.8z M1143.1,993.9
			c-9.2,23-15.8,41.7-24.1,59.6c-7.4,15.9,5,22.6,12.2,32.2c7.6,10.2,15.9,6.3,25,2.5c41.4-17.4,42.3-20,16.1-55.6
			C1163.6,1020.9,1154.7,1009.4,1143.1,993.9z M1356,689.8c6.4-53.8-21.3-89.7-40.7-130.5C1284.2,621.8,1276.1,604.1,1356,689.8z
			 M938,613.8c16.9-36.6,32.6-70.4,48.3-104.3C923.8,560.2,912.5,585.4,938,613.8z M1149.2,452.8c20.9-36.4,19.5-39.5-13-51.3
			c-9.4-3.4-17.1-3-22,3.9c-5.4,7.8,4.2,12.2,8.3,17.2C1130.7,432.9,1139.9,442.5,1149.2,452.8z M889.9,648.9
			c-10.8,29.6-19.6,58.4-18.1,91.5C909,692.2,913.1,672.5,889.9,648.9z"/>
		<path class="st0" d="M1437.7,1475.1c-0.4,37.8-10.3,72.6-34.6,102c-51.5,62.1-126.2,48.4-165.8-5.6c-39.2-53.4-40.7-134-4.1-189.4
			c46.6-70.6,136.1-69.1,180.4,3.3C1430.4,1412.9,1438.3,1442.9,1437.7,1475.1z M1260,1472.4c-0.7,23.6,4.6,45.4,18,65
			c24.4,35.7,61.8,37,87.4,2.5c14.8-20,20.5-43.3,20.3-67.7c-0.3-47.9-28.8-88.4-61.8-89C1288.2,1382.6,1260.4,1421.4,1260,1472.4z"
			/>
		<path class="st0" d="M975,1435.5c-11.5-8.5-14.5-23.3-21.3-35.4c-6.2-11.1,3.3-14.3,10.6-18c65-33,130.3-65.5,194.9-99.3
			c20-10.4,23.4,4,29,15.9c4.6,9.9,17.7,20-2.1,29.9c-67.1,33.5-133.7,68-200.4,102.1C982.9,1432.1,980,1433.2,975,1435.5z"/>
		<path class="st0" d="M541.7,466.5c-0.9-52.7,41-92,93.5-92.8c50.2-0.7,91,42.3,91.1,92.7c0.1,51.6-43,94.3-94,93.2
			C582.1,558.5,541.7,517,541.7,466.5z"/>
		<path class="st0" d="M329.4,831.3c51,0.2,91.2,40.5,91.2,91.5c0,52.2-41.3,92.3-94.2,91.7c-51.3-0.7-91.4-40.8-91.4-91.5
			C235,870.7,275.8,831.1,329.4,831.3z"/>
	</g>
</g>
</svg>
