<?xml version="1.0" encoding="utf-8"?>
<!-- Generator: Adobe Illustrator 23.0.0, SVG Export Plug-In . SVG Version: 6.00 Build 0)  -->
<svg version="1.0" xmlns="http://www.w3.org/2000/svg" xmlns:xlink="http://www.w3.org/1999/xlink" x="0px" y="0px"
	 viewBox="0 0 3000 3000" style="enable-background:new 0 0 3000 3000;" xml:space="preserve">
<style type="text/css">
	.st0{stroke:#000000;stroke-width:10;stroke-miterlimit:10;}
</style>
<g id="Layer_1">
</g>
<g id="Layer_2">
	<g>
		<path class="st0" d="M1605.2,55.3c187.9,3.1,367.3,42.6,535.9,127.2c95.3,47.8,179.4,110.5,243.8,196.4
			c111.5,148.5,136.3,314.4,91.9,491.8c-41.8,167-135.9,302.2-262.5,416.3c-5.7,5.1-11.2,10.6-17.5,15c-9,6.2-8.5,11.3-2.1,19.9
			c114.3,152.2,170.2,325.7,185.5,513.6c16,196.9-13.9,386.2-108.9,560.5c-162,297-407.3,488.5-741.1,553.7
			c-269.4,52.6-508.6-20.8-712.3-203.9C666.1,2609.2,567.7,2440.5,532,2238c-27-153.3-0.9-299.7,63-440.1
			c77.6-170.5,196.5-308.3,341.3-424.8c14.7-11.8,14.4-17.1,2-31c-111.8-124.8-198.1-264.5-236.5-429.4
			c-62.2-267,36.8-515.3,264.6-670.9c138.5-94.6,293.1-146.7,457.6-172.3C1483.9,60.2,1544.3,54.9,1605.2,55.3z M1187.6,1268.5
			c-95.2,50.7-178.1,108-254.8,174.3c-120,103.7-219.7,223.4-287.6,367.9c-62.9,134-88.2,273.8-62.5,421
			c27.8,159,99.4,296.8,208,414.5c196.8,213.4,440.1,308.3,727.4,253.5c328.3-62.6,566.5-253.7,719-549.4
			c80.8-156.7,105.8-326,93.1-501.2c-11.4-156.8-53.1-304.2-136.4-438.4c-62.3-100.5-143.3-181-252.5-230.4
			c-12.3-5.6-17.9-6.5-23,9.4c-11.8,37.1-25.4,73.7-40.6,109.6c-92.3,217.4-247.5,376.3-455.1,485.8c-14.7,7.7-18.8,16.2-18.7,32
			c0.5,246.1,0.4,492.3,0.4,738.4c0,5.6,0.1,11.2-0.1,16.7c-0.1,4.1,0.1,9.5-5.4,9.7c-13.9,0.4-28.7,2.7-41.3-1.3
			c-10.5-3.4-5-17.4-5-26.5c-0.3-236.4-0.2-472.8-0.2-709.1c0-25.3-0.1-25.5-22.8-16.6c-35.2,13.8-71.6,22.7-109.2,26.8
			c-78.1,8.7-134.4-31.5-151.6-108.3c-6.6-29.5-7.9-59.2-5.6-89.4c5.1-65.8,21.1-129.1,41.8-191.4
			C1126.9,1400.1,1154.9,1336.5,1187.6,1268.5z M1916.6,1114.8c90.4,32.5,165.2,83.6,229.5,150.2c7.5,7.8,12,2.9,17.3-1.7
			c128.4-110.4,223.7-242.9,264.8-409.1c38-153.4,19.4-299.4-73.3-430.9c-66.9-94.8-158.9-159.7-263-207.4
			c-211.8-97.1-433.3-131.7-664.3-95.3c-153,24.1-297,73.1-426.8,159.9C785.6,424.6,692.3,654.2,752,903.1
			c38.3,159.6,123.8,294,232.7,414.7c10.9,12.1,17.3,4.9,25.8-1.1c116-81.3,240.8-145.2,376-187.7c117.2-36.8,236.8-57.3,360.3-48
			c6.5,0.5,15.2,3.3,15.6-7.8c1.4-40.3,24.3-72,41.8-105.8c6.9-13.3,11.2-27.2,10.4-42.1c-2.9-55.7-37.5-90.9-84.4-109.5
			c-79.3-31.6-155.3-20.1-219.6,38.4c-42.1,38.3-84.6,75-138,96.2c-102.5,40.7-200.6,36.9-290.1-33.2
			c-88.6-69.4-110.5-182.3-55-274.5c39.9-66.2,105.6-97,178.8-83.6c73.6,13.4,127.3,66.9,141.1,141.4c3.8,20.5,5.2,41.5,9.1,62
			c5.9,31.3,23,38.5,48.9,20.3c36-25.2,52.2-60.9,50-104.3c-1.3-26.4-5.1-52.6-8-78.9c-6.2-55.6,6.1-106.1,53.5-139
			c86-59.9,181.1-69.3,278.8-34.8c54.9,19.4,77.4,58.9,76.5,116.8c-0.3,17.4-1.6,34.8-2.4,52.2c-2,43.9-4.5,87.7-5.8,131.6
			c-0.6,21,9.6,29,30.2,25.8c14.8-2.3,25.2-10.8,32.1-24c6.5-12.5,9.4-26.1,13.1-39.5c8-29.2,25.3-51.2,52.4-64.5
			c46.8-23,94.3-27.1,139,3.4c43,29.3,56.2,72.1,48.2,122.8c-5.8,36.6-15.9,72-25,107.7c-18.5,72.2-28,78.8-101.1,70.5
			c-32.3-3.7-55.7,11.4-64.2,43.2c-5.2,19.4-8.4,39.4-11.8,59.3C1955.5,1062.6,1946.9,1092.3,1916.6,1114.8z M1113.2,1678.8
			c0.8,23,1.6,46,8.1,68.3c9.5,32.7,30,52.5,64.8,56.3c40,4.4,78.1-4.6,114.3-19.2c285.6-114.9,477.6-317.4,570.5-612.2
			c3.8-12.2,1.9-17.1-11-20.4c-37.9-9.6-76.2-16.7-115.2-19.3c-163.9-11.2-317.8,28.1-466.9,92.1c-9.8,4.2-15.3,11-20,20
			c-27.4,52.5-53.6,105.5-75.5,160.6C1147.5,1493.2,1117.2,1582.7,1113.2,1678.8z"/>
		<path class="st0" d="M1533.9,2099c-0.2-64.8,52-117.3,116.6-117.2c63.3,0.1,115.5,52.3,115.9,116c0.4,64.3-52.8,117.6-116.8,117.2
			C1585.9,2214.5,1534.1,2162.5,1533.9,2099z"/>
		<path class="st0" d="M1203.8,2267.1c-0.2,64-51.8,116-115.5,116.3c-64.4,0.3-116.8-52.5-116.5-117.3
			c0.3-63.8,51.8-115.6,115.3-116C1151.5,2149.5,1204,2202.2,1203.8,2267.1z"/>
	</g>
</g>
</svg>
