<?xml version="1.0" encoding="utf-8"?>
<!-- Generator: Adobe Illustrator 23.0.0, SVG Export Plug-In . SVG Version: 6.00 Build 0)  -->
<svg version="1.0" xmlns="http://www.w3.org/2000/svg" xmlns:xlink="http://www.w3.org/1999/xlink" x="0px" y="0px"
	 viewBox="0 0 3000 3000" style="enable-background:new 0 0 3000 3000;" xml:space="preserve">
<style type="text/css">
	.st0{stroke:#000000;stroke-width:10;stroke-miterlimit:10;}
</style>
<g id="Layer_1">
</g>
<g id="Layer_2">
	<g>
		<path class="st0" d="M848.5,1213c-31.5-14.9-59.9-26.3-86.1-42.4c-162.6-99.8-247.8-245.2-254.1-435.3
			c-2.6-77.7-3.1-155.5,1.9-233.3C524.6,276.5,713.7,72.6,937.5,41.5c34.8-4.8,69.7-7.2,104.7-7.2c302.1,0.1,604.2,0.9,906.3-0.2
			c157.5-0.6,292.3,50.5,399.8,166.9c87.2,94.4,133,206.8,134.5,335.4c1,83.3,6.6,167-3.4,250c-22.4,184.7-121.1,316.9-284,403.2
			c-4.3,2.3-8.8,4.2-12.9,6.2c-0.5,7.6,6,7.6,9.7,10c63.7,41.5,88.3,105.4,97.1,176.2c10,80.7,9.3,162.1,7.3,243.4
			c-6.1,241.7-11.8,483.4-16.4,725.1c-1.8,91.8,0.8,183.5,17,274.4c6.1,34,20.6,63.1,39.7,91.4c47.8,71.1,8.2,159.1-76.3,171.9
			c-63.8,9.6-125.8-33.4-140.1-96.3c-8.4-37-4.7-74-2.3-110.9c5.4-83.9,13.3-167.7,14-251.8c0.9-100.3-1.6-200.3-32-297.5
			c-23.6-75.4-59.3-142.3-126.5-187.9c-74.3-50.4-158.5-44.1-226.2,15.1c-62.4,54.6-87.3,126.4-97.3,205.8
			c-10.2,81.6,1.4,162.2,11,242.9c12.6,105.4,20.8,210.7-6.7,315.2c-17.6,66.7-47.7,125.5-107.6,165
			c-82.9,54.6-206.4,44.6-279.5-22.4c-41.4-38-55.3-88.2-62.7-140.9c-18.6-132.7-24.6-266.3-28.5-400.1
			c-2.3-78.5-11-156.4-35.1-231.8c-9.4-29.5-21.7-57.7-38.3-83.8c-59.1-92.9-162.6-114.2-255.4-54.3
			c-78.7,50.8-114.5,125.8-126.5,215.2c-12.4,92.6,3.9,182.7,23.4,272.6c17.7,82,39.3,163.3,45.9,247.4c3.9,49.2,4.7,98.4-2.8,146.8
			c-14.7,94.6-126.9,158.3-207.1,103c-49.7-34.3-68-85.4-67.3-144c0.4-29.1,7.2-57.2,21.3-82.6c34-61.6,38.8-127.9,33.4-195.9
			c-9.9-126.4-22.1-252.6-30.4-379c-7.9-121.6-15.5-243.5-9.6-365.4c7.1-146.4,52.2-281.8,127.7-406.4
			C699.2,1293.3,758.8,1236.2,848.5,1213z M2239.8,1968.9c0-36.4-0.6-72.8,0.1-109.3c2.6-140.8,9.3-281.6,3.3-422.5
			c-2-46.4-9.6-92-30.2-134.3c-19.7-40.4-50.7-63.2-97.9-62.8c-100.9,0.9-201.8,0.4-302.7,0.6c-83.1,0.1-160.8,17.2-228.7,69
			c-42,32.1-68.7,73-80.5,124.1c-4.1,17.7-8.2,35.4-13.4,52.8c-4.2,14-14.4,22.8-29.4,22.6c-16.1-0.2-25.7-10.2-29.8-25.1
			c-3.2-11.4-5.3-23.2-7.6-34.8c-8.1-40.5-21.8-79.1-51.5-108.6c-55.7-55.4-119.3-93.5-202.7-87.6c-93.7,6.6-187.5,10.8-281.4,9.7
			c-28.2-0.3-53.9,6.5-78.6,19.3c-32.5,16.8-58.6,41.4-79.8,70.3c-98.7,134.6-148.3,286.3-150.9,452.5c-3.7,230.2,21,459,39.4,688
			c6.8,84.7,5,167.9-38.5,245.2c-14.3,25.4-17.3,54.5-13.7,83.8c4.8,39.3,33.1,76.9,63.3,84.1c47,11.1,101.9-27.5,107.9-78.8
			c4.6-39.6,6.1-79.5,3.4-119.6c-5.4-80.8-25.2-158.8-42.8-237.3c-23.3-104.3-42.2-209-26.7-316.3
			c16.9-116.1,72.2-207.1,180.1-259.6c110.3-53.6,227.4-19,293.7,84c21,32.6,36.6,67.6,47.7,104.8c27.5,91.4,35.2,185.5,37.4,280.2
			c2.9,124.8,10.4,249.1,29.6,372.6c4.7,29.9,13.2,58.9,34,82.4c69.4,78.3,212.7,69.4,271.1-17.1c18.1-26.9,31.2-56.2,39.5-87.6
			c26.3-98.3,18.5-197.2,6.4-296.3c-9.1-74.4-18.2-148.9-14.3-224.1c4.2-82,23.5-159.1,74-226.1c89.7-119,230.9-142.6,345.5-57
			c50,37.4,85.5,86.4,110.5,143.2c51.2,116.3,59.2,239.7,58.3,364.3c-0.7,103.8-11.7,207-17,310.6c-1,20.3-0.7,40.7,5.1,60.5
			c8,27.6,29,39.9,54.8,46.3c25.1,6.3,47.2,1,64.9-18.7c20.7-23,20.5-49.2-4-82c-21.2-28.3-32.9-59.9-40.4-93.6
			c-11.6-52.2-14.5-105.4-16.6-158.6C2224.1,2310.7,2233.3,2139.8,2239.8,1968.9z M1492.2,1189.5c80.6,0,161.2-0.3,241.8,0.2
			c16,0.1,30.2-3.6,44.3-10.4c120.1-58.5,205.3-206.5,195.3-339.8c-9.1-122-80.7-214.8-189.9-246.1c-46.2-13.2-94.1-17.3-141.3-15.6
			c-98.1,3.4-196,2.3-294,0.1c-71.1-1.6-143,0.4-206,37.8c-198.7,117.9-228,379.8-25.2,522.4c49,34.5,102.5,54.8,164.8,52.1
			C1351.9,1187.2,1422.1,1189.5,1492.2,1189.5z M1097.4,1188.4c-9.9-7.4-16.6-12.1-23.1-17.3c-109.4-86.8-166-198.2-141.6-338.4
			c24.3-139.5,106.2-236.4,240.7-286c10.5-3.9,15.9-7.6,15.9-20.1c0.3-140.9,1.1-281.8,2.3-422.6c0.1-14-4.3-17.9-17.9-17.7
			c-54,0.7-108-0.8-161.9,0.6c-233.4,6.2-418.5,174.3-449.7,406.9c-2,14.9,1,19.9,16.6,18.8c29.3-2,58.8-3.7,88.2-3.1
			c53.6,1.2,106.3,7.4,151.8,40.3c47.5,34.3,69.2,90,54.5,141.6c-13.7,48.1-54.6,76.9-114.9,82.3c-58.8,5.3-117.5,5.3-176.3,1.5
			c-15.4-1-21,0.4-18.1,18.3c25.2,156.2,109,270.4,247.1,345.2C899.3,1186.4,995.2,1193.9,1097.4,1188.4z M1867.3,1184.6
			c59.6,0,115.7,6.3,169.9-1.2c143.8-19.9,252.9-96.2,329.4-219.4c53.8-86.6,68.8-182.1,66.2-282c-0.4-16.7-4.1-20.7-21.1-19.9
			c-56.6,2.7-113.3,8.6-170.1,6.1c-72.8-3.2-119-65.8-99.1-136c17.3-61,63.9-91.2,121.6-107.3c41.7-11.6,84.7-10.4,127.4-10.4
			c18.8,0,20.3-5.8,14.3-21.6c-40.9-108.5-111.5-191.3-212-249.1c-91.2-52.5-190.7-60.9-292.8-57.2c-12.2,0.4-10.7,7.8-10.9,15.5
			c-3.9,154.1-7.8,308.2-12.1,462.3c-0.3,10.2,2.6,16.7,11.2,22.4c112,74.8,160.2,230.8,124.9,364.4
			C1989.8,1042.9,1943.6,1121.2,1867.3,1184.6z M646.7,726.6c40.6,0.6,81.1-0.7,121.3-6.9c26.4-4.1,49-14.6,56-43.2
			c7.3-29.8-2.4-55.3-24.6-75.8c-19.5-18-42.9-28.1-68.8-33.6c-52.9-11.1-106-2.5-159-3.8c-11.2-0.3-12.1,6.2-12.1,14.8
			c0.1,43.4,0.5,86.8-0.2,130.1c-0.2,12.7,5.3,15,16.1,15.2C599.2,724,623,725.5,646.7,726.6z M1494.9,308.7c-0.4,0-0.7,0-1.1,0
			c0,52.5-0.5,105,0.2,157.4c0.3,20.6-9.7,48,4.3,60.1c13.5,11.7,40.2,1.7,61.1,2.7c12.3,0.6,17.3-3.3,17.5-16.5
			c1.5-137.1,3.5-274.3,5.6-411.4c0.2-11-3.7-14.9-14.5-14.6c-18.2,0.5-36.4,1-54.6-0.1c-14.7-0.9-19,4.1-18.8,18.8
			C1495.3,172.9,1494.9,240.8,1494.9,308.7z M2331.1,617.6c0-1,0-2,0.1-2.9c29.3-1.6,58.7-3.2,88-4.8c7.4-0.4,13.4-0.9,13.4-11.3
			c0-39.9,0.2-79.8-5.4-119.4c-1.4-9.7-5-14.4-16.1-14c-28.7,1.2-57.5-0.5-86,1.9c-43,3.6-85.1,11.9-115.5,46.7
			c-18.2,20.8-25.8,44.8-14.6,71.9c10.8,26.4,34.1,31.1,58.8,31.7C2279.4,618.1,2305.2,617.6,2331.1,617.6z M1336.6,1241.3
			c54.8,37.7,98.7,83.8,124.8,150.8c13.3-35.6,29.6-63,51.1-87.2c21.7-24.4,48.8-42.4,79.3-63.6
			C1503.1,1241.3,1419.8,1241.3,1336.6,1241.3z M1645.1,229.6c25.6,17.3,49.2,33.2,72.7,49.2c4.4,3,8.8,4.3,13.7,1.8
			c24.1-12.1,48.2-24.2,75.2-37.8c-27.8-19.3-52.9-36.5-77.8-54c-4.8-3.4-8.6-2.9-13.3-0.2C1693.1,202,1670.3,215.1,1645.1,229.6z
			 M1809.6,404.5c-22.8-15.7-43.3-27.9-61.4-42.9c-18.5-15.4-34.2-17.2-55.7-4.5c-31,18.4-32.5,17.3-3.7,39.4
			c18,13.8,32.5,39.7,54.9,38.4C1764.9,433.7,1785.2,416.5,1809.6,404.5z M1402.7,244.6c-19.7-14.4-37.3-26.9-54.4-39.9
			c-6.1-4.7-11-4.4-16.7,0.3c-14.6,11.8-29.5,23.4-44.3,35c-6.2,4.8-8.5,8.8-0.2,14c15.3,9.6,30.5,19.5,45.5,29.7
			c6.3,4.3,11.4,3.1,17-1C1366.4,270.4,1383.5,258.4,1402.7,244.6z M1288.8,390.2c8.8,5.8,15.7,10.5,22.7,14.9
			c43.6,27.8,43.5,27.6,84.9-2.3c8-5.8,11-8.4,0.9-15.8C1343.9,347.6,1344.1,347.3,1288.8,390.2z M1442.8,117.6
			c-22,17.4-40.4,31.9-60,47.3c19.9,15.5,37.8,30,60,42.8C1442.8,177.1,1442.8,149.7,1442.8,117.6z M1276.6,88
			c21.5,15.8,38.8,28.4,55.9,41.2c4.9,3.7,8.8,2.6,13.1-0.8c15.5-12.5,31.1-25,50.4-40.4C1355,88,1319,88,1276.6,88z M1304.9,462.9
			c-22-14.5-40.8-26.9-62.3-41.1c0,28.7,0,53.4,0,81.7C1263.8,489.7,1282.8,477.3,1304.9,462.9z M1772.8,156.3
			c22,15.1,40.7,28,63.6,43.6c-3.2-28.7,2.9-52.9-1.6-79.7C1813.4,132.7,1794.4,143.8,1772.8,156.3z M1688.9,464.7
			c-19.2-16.6-37-32.5-59.6-47.2c0,23.6,0.2,44.3-0.1,65c-0.1,8.6,2.2,11.7,10.7,7.3C1655.8,481.6,1671.8,473.5,1688.9,464.7z
			 M1243.1,208.8c16.9-13.2,30.7-23.7,44.1-34.6c3.8-3.1,11-6.8,2.4-12.4c-15.3-9.9-28.3-23.5-46.4-31.3
			C1243.1,156.5,1243.1,180.6,1243.1,208.8z M1441.4,354.4c0-25.8,0-48,0-73.1c-16.5,11.5-30.5,21.4-44.6,31.2
			c-5.3,3.7-8.9,7.2-1.1,12.2C1410.1,333.9,1424.4,343.3,1441.4,354.4z M1675.1,88c17.2,12.1,30.2,21,43,30.1
			c5.1,3.7,9.8,4,15.4,0.7c15.8-9.4,31.8-18.5,53.1-30.9C1747.2,88,1714.3,88,1675.1,88z M1832,356.3c-2.2-25.5,4.6-45.4-1.6-65.3
			c-18.7,5.7-35.4,15.7-52.4,25.1c-0.4,0.2-0.6,1-1.5,2.9C1793.5,330.3,1810.5,341.8,1832,356.3z M1294.9,321.4
			c-17.8-12.1-32.7-24.1-51.5-31.7c0,22.9,0,44,0,68C1261.2,345.1,1276.8,334.1,1294.9,321.4z M1775.4,537.1
			c-38.3-40.2-50-41.5-87.4-10.1C1717.1,530.4,1745.2,533.6,1775.4,537.1z M1395.9,525.6c-40.3-34.9-51.7-34.9-86.4,0
			C1338.7,525.6,1366.5,525.6,1395.9,525.6z M1827.5,506.7c0.5-9.1,0.9-16.1,1.2-23.1c1.3-32.2,1.7-31.2-26.7-18.1
			c-16.8,7.7-16.5,13.3-1.8,22.4C1808.9,493.3,1814.9,502.7,1827.5,506.7z M1675.5,152c-14.9-10.6-25.8-20.7-40.3-26.2
			c0,16.9,0,32.2,0,49.5C1649.2,167.2,1661.1,160.3,1675.5,152z M1399.1,463c15,9,25.5,19.7,41.3,24.6c1.3-17.4,3.5-33.3-1.2-51.2
			C1425.2,445.7,1413.4,453.6,1399.1,463z M1631.5,286.2c-0.6,14.4-7,32,2.2,39.8c7.2,6,21.8-7.6,32.7-13.4c0.9-0.5,1.1-2.4,2-4.5
			c-9.7-6.6-19.4-13.3-29.3-19.8C1637.6,287.2,1635.4,287.2,1631.5,286.2z"/>
		<path class="st0" d="M1687.5,2344.4c1.3-69.3-3.9-141.9,13.7-212.7c24.9-100.2,94.5-158.4,196.3-166
			c61.8-4.6,107.8,22.4,132.2,79.1c26,60.3,37.7,124.6,47.5,188.8c20.3,132.9,31.6,266.9,35.4,401.3c1.1,39.4-5.5,78.1-20.2,115.1
			c-27.7,69.7-77.8,112.8-152.9,121c-74.8,8.1-131.4-24.8-172.4-86.4c-31.4-47.2-44.4-100.7-53.7-155.5
			C1697.6,2535.8,1689.4,2441.8,1687.5,2344.4z M2061.9,2604.3c-11.3-131.3-16.3-265.1-41.5-396.8c-9.3-48.7-18.6-97.6-38.3-143.6
			c-9.2-21.4-22.9-40.1-47.3-43.9c-46.7-7.3-90.7-0.3-128.2,31.5c-43.1,36.6-59.1,86.1-63.3,139.6c-11.8,147.4-1.8,293.9,22.4,439.5
			c8.7,52,23.3,102.3,58.3,144.3c52.6,63.2,149.4,61.3,198.8-4.3C2059.6,2721.5,2061.2,2664,2061.9,2604.3z"/>
		<path class="st0" d="M782.5,2326.6c2-46.1-3.6-112.6,14.1-176.9c20.9-76.1,62.1-134.8,144.1-154c79.5-18.7,133.2,10.1,159.1,87.2
			c25.1,74.6,37.1,152.3,45.6,230.3c11.8,108.6,20.7,217.5,24.6,326.7c1.9,54.8-4,109.2-28.6,159.7
			c-36.2,74.6-110.5,112.4-184.8,93.5c-44.6-11.4-76.2-40.1-99.9-78.3c-34.9-56.2-46.9-119.6-55.3-183.6
			C789,2536.6,781.6,2441.6,782.5,2326.6z M1118.5,2626c-10.3-132.5-14.2-273.4-40.3-412.2c-8.6-45.9-15.5-92.5-35.8-135.5
			c-11.9-25.1-31.1-35.9-58.6-35.8c-59.5,0.2-99,29.9-123.5,81.9c-19.8,42-24.6,87.3-25.6,133c-2.6,120.6,0.5,241,17.1,360.7
			c8.1,58.3,16.6,116.6,48.1,168.3c16.1,26.5,36.8,47.8,67.8,56.3c49.9,13.7,100.3-11.6,126.2-63.2
			C1116.8,2733.5,1118.2,2683.8,1118.5,2626z"/>
		<path class="st0" d="M1430.4,1996.4c12.2-107.7,36.9-209.8,98.6-299.5c4.1-6,6.5-19.2,16.9-13.9c12.8,6.6,23.6,17.3,34.8,26.7
			c0.6,0.5-2.7,6-4.6,8.8c-71,102.4-92,219.3-98.2,340.4c-6,117,2.2,234.1-4.2,351c-1.5,27.9-2.2,56-7.9,83.5
			c-3.9,19.1-15.7,32-35.3,33.7c-19.8,1.7-36.2-7.2-43.7-26.2c-16.6-41.8-17.6-86.2-17.2-130.3c0.7-82.1,16.2-163.1,17.7-245.2
			c1.3-71.8-7.4-141.2-48.6-202.9c-14.6-21.9-31.9-41.2-54.5-54.6c-12.1-7.2-14.6-13-7.6-25.9c16.9-31.3,16.2-31.8,44.9-11.1
			c51.7,37.3,81.2,89.7,100.6,148.9c1.5,4.6,3.1,9.2,4.8,13.8C1427,1994,1427.8,1994.3,1430.4,1996.4z"/>
		<path class="st0" d="M1801.3,2398.2c0.9-36.8,6.6-72.6,25.6-104.9c36.1-61.3,107.1-63.5,140.7-1c39.1,72.5,39.5,148.5-3.9,220.1
			c-32.8,54.2-97.5,53.1-132.7,0.1C1808.2,2478.1,1801.9,2438.8,1801.3,2398.2z M1852.3,2399.7c2.5,29.2,5.1,57.8,21.2,82.9
			c15.9,24.7,31.2,24.8,48.2,0.8c28.3-39.8,27.3-131.4-1.8-170.2c-15.1-20.1-28.2-20.5-43.3-0.6
			C1857,2338.4,1855.1,2369.4,1852.3,2399.7z"/>
		<path class="st0" d="M1063.3,2428c-1.6,36.6-8.1,72-29.5,103.2c-32.7,47.6-89.4,49.5-124.4,3.4c-24.4-32-31.1-70.1-32.4-108.8
			c-1.2-36.7,5.2-72.5,22.9-105.4c15.2-28.3,38.2-48.5,70.9-48.5c31.8,0,54.4,19.8,69.5,47.2
			C1058.9,2352.9,1064.7,2389.7,1063.3,2428z M1012,2419.6c-0.6-28.2-3.9-55.9-20.1-80c-14.7-21.7-30.9-22-43.2,1
			c-27.8,52.2-27.8,105.8-0.5,158.1c12.6,24.2,29.3,23.9,44.3,1C1008.3,2475.5,1011.6,2447.8,1012,2419.6z"/>
	</g>
</g>
</svg>
