<?xml version="1.0" encoding="utf-8"?>
<!-- Generator: Adobe Illustrator 23.0.0, SVG Export Plug-In . SVG Version: 6.00 Build 0)  -->
<svg version="1.0" xmlns="http://www.w3.org/2000/svg" xmlns:xlink="http://www.w3.org/1999/xlink" x="0px" y="0px"
	 viewBox="0 0 3000 3000" style="enable-background:new 0 0 3000 3000;" xml:space="preserve">
<style type="text/css">
	.st0{stroke:#000000;stroke-width:10;stroke-miterlimit:10;}
</style>
<g id="Layer_1">
</g>
<g id="Layer_2">
	<g>
		<path class="st0" d="M278.6,2416c-42.9,0-80.6-1-118.2,0.4c-18.6,0.7-23.2-5.5-23.1-23.5c0.8-116.6,0.6-233.2,0.1-349.8
			c-0.1-15,3.4-20.7,19.4-19.9c28.9,1.3,57.9,0.4,87,0.4c1.4-9.4-6.1-12.6-10.2-17.2c-81.4-91.6-118.8-197.5-111.5-320.9
			c5.4-91.7,11.1-182.9,33.9-272.4c18.5-72.6,49.8-138.7,95.6-197.7c8.1-10.4,9.6-19.5,7-32.1c-28-136.2-32.2-273.6-20.1-411.8
			c7.5-85.9,15.6-171.7,40-254.9c62.8-215.1,205.2-351.6,419-409.1c298.6-80.4,591.2-63.4,872.5,73.2c15.7,7.6,27.2,8.1,43.3-0.6
			c114.1-61.7,237.4-89.5,366.1-88.4c164.7,1.3,327.1,26.2,486.7,65.8c126.6,31.4,224.2,103.8,281.3,224.4
			c25,52.8,37.4,109.2,46.9,166.5c17.3,105.3,35.8,210.5,43.9,317.1c16.7,219.7-37,415.7-193.6,577.2c-0.9,0.9-1.4,2.3-2,3.5
			c0.5,4.5,4.3,4.8,7.3,5.8c125,36.9,206.9,144.1,211.5,275.9c3.8,106.8-33.9,198.3-100.7,279.4c-3.5,4.2-6.7,8.6-13,16.6
			c32.5,0,61.7-0.2,90.8,0.1c16.4,0.1,38.1-5.3,48,3c11.7,9.9,3.8,32.3,3.9,49.3c0.4,106.3-0.2,212.5,0.6,318.8
			c0.1,17.4-4.8,22.8-22,21.5c-19.8-1.5-39.9-0.3-60.9-0.3c1.2,12.4,9.2,19.7,14.2,28.2c76.2,128.5,54.5,292.9-51.8,390.7
			c-46,42.3-103.3,63-161,81.7c-137.1,44.4-275.6,42.4-413.7,5.4c-43.3-11.6-84.6-29.8-119.5-59.4c-6.1-5.1-12-5-19.1-4.2
			c-291.9,32.7-584.8,42.3-878.2,34.2c-89.6-2.5-179.3-6.8-268.6-14.8c-11.3-1-21.7,0.6-32.3,4.4c-137,49.1-278,69.3-423,56.1
			c-60-5.5-118.4-19.1-170.4-52.2c-103.9-66.1-146.2-195.4-104.1-318.6c9.6-28.2,22.6-54.7,38.8-79.7
			C234.8,2463.3,254.3,2441.9,278.6,2416z M1904.7,1605.6c123.7-0.8,218.3-1.8,312.6-8.7c54.9-4,109.8-8.9,161.4-31.3
			c277.4-120.7,432.5-378.9,409.9-680.3c-7.7-102.6-24.1-204-40.9-305.3c-5.7-34.6-11.8-69.4-20.5-103.4
			c-37.1-144.5-131.1-234.2-273.7-270c-154.7-38.8-312.3-62.2-472.2-64.3c-124.9-1.6-245.2,24.3-353.7,86.6
			c-200.9,115.2-341.1,281.2-403.3,507.4c-29.3,106.6-41.3,216.4-56.7,325.5c-11.1,78.2-12.4,156.9,5.6,234.6
			c28.2,122,106.6,201.4,218.3,250.3c88.2,38.6,181.6,56.4,277.4,58.6C1757.3,1607.2,1845.6,1605.6,1904.7,1605.6z M1515.6,2364.7
			c17.9,0,35.9,0,53.8,0c415.4,0,830.8-0.1,1246.2,0.5c19.8,0,25.4-4.7,25.1-24.9c-1.2-80-0.4-160.1-0.6-240.1
			c-0.1-30.2,3.5-26.2-26.5-26.2c-661.7-0.1-1323.5-0.1-1985.2-0.1c-206.3,0-412.6,0.2-618.9-0.4c-16.1,0-21,4.1-20.9,20.5
			c0.8,83.5,0.8,167,0,250.5c-0.2,16.6,5,20.8,21,20.5c59.3-0.9,118.6-0.3,177.9-0.3C763.5,2364.7,1139.6,2364.7,1515.6,2364.7z
			 M1212.9,2023.6c-3.3-4.5-3.9-5.8-4.9-6.6c-56.6-46.6-101.5-101.3-117.9-174.9c-3-13.5-12-9-19.1-8c-36,5.3-71.7,3-106.9-5.1
			c-71.4-16.4-133.3-49.3-176-110.8c-38.3-55.3-25.1-119.4,30.8-156.9c22.8-15.3,48.5-22.8,75.5-26c91-11,178.8,2.8,263.6,35.8
			c15.6,6.1,24.6,4.3,35.1-8.2c11-13.1,23.8-25.1,37.3-35.7c12.1-9.5,13.2-15.1,1.2-26.5c-54.4-51.7-89.1-115.1-106.5-188
			c-13.2-55.4-18.2-111.6-14.8-168.3c1.1-17.5-4.3-23.7-20.8-27.1c-71.5-14.6-142.9-30.1-215.3-39.6
			c-107.3-14-214.4-16.5-320.5,10.6c-182.5,46.6-303.2,156.3-349.8,341.9c-21.8,86.8-26.5,175.4-31.3,264.3
			c-6.9,129,43.1,231.6,137.3,316c11,9.8,22.4,13.6,37.2,13.6c280.8-0.4,561.5-0.3,842.3-0.3
			C1196.1,2023.6,1202.8,2023.6,1212.9,2023.6z M1990.4,2023.6c221.5,0,443,0,664.5,0.1c11.3,0,21-0.8,30-9.7
			c39.7-39.1,73.7-82.3,96.1-133.5c37.7-86.3,43.8-173.8,0.8-259.9c-35.6-71.3-94.2-113.7-173.8-125.5c-29-4.3-57.7,22.9-54.8,51.1
			c2.3,22.9-0.2,45.5-5.2,67.8c-19.6,87.9-74,149.3-149.8,193.7c-81.8,47.9-172.7,63.3-265.3,71.2c-147.5,12.6-295,10.8-442.3-4.3
			c-55.7-5.7-111.1-14-161.5-40.5c-84.8-44.7-132.8-115.4-147.1-209.9c-1.6-10.7,3.3-24.5-11.1-30.9c-26.6-11.7-51.8-25.9-76.3-41.3
			c-5.9-3.7-10.2-4.9-16.3,0.2c-53.5,44.7-100.7,94.6-126.5,160.8c-27,69.2-20.3,134.7,23.1,196.2c29.6,42,69.1,72.6,110.8,101.3
			c13.6,9.4,27.5,13.4,44.2,13.3C1550.1,2023.4,1770.2,2023.6,1990.4,2023.6z M2121.9,2417.4c-370.7,0-738.3,0-1109.1,0
			c48.2,65.1,78.6,133.7,76.7,213.8c-1.9,82.7-36.6,148.3-108.2,201.3c355.2,20.7,703,15.1,1049-22.3
			C1984.3,2661.8,2027.9,2535,2121.9,2417.4z M562.4,2891.2c31.7-0.2,86.7-4.2,141.1-14.6c79.5-15.1,157.4-35.2,228.9-74.6
			c74.2-40.8,110.2-104.1,106.3-188.6c-3.5-75.4-39.6-136.4-88.6-191.1c-5.9-6.6-13.3-6.3-20.9-6.3c-184.9,0-369.7,0-554.6,0
			c-8.4,0-16.2,0.6-23.4,6.1c-57.1,43.7-102.5,96.2-124.4,166.1c-40.8,130.1,22,246.6,152.4,284.3
			C431.6,2887.6,485,2891.2,562.4,2891.2z M2403.7,2897.7c39.7,1.4,85.9-1.8,130.9-12.9c64.3-15.9,128.6-34,183.2-72.9
			c118.9-84.7,134-274.4,26.2-388.1c-5.9-6.2-12.4-7.8-20.3-7.8c-171.7,0.1-343.5,0.1-515.2,0c-7.8,0-14.7,0.9-20.7,7
			c-82.3,82.1-130.4,179.1-125.2,297.5c2.5,57,28.9,100,81.8,126.9C2224.2,2888,2309.6,2896.9,2403.7,2897.7z M438.2,322.3
			c2.1-2.3,4.2-4.6,6.4-6.8c-2.5,2.3-5.3,4.5-7.5,7c-5.4,6.2-10.7,12.6-15.9,19.1c-52.2,65.4-83.7,140.6-102.5,221.4
			c-28,120.9-34.8,244.1-36.2,367.6c-0.8,70.4,7.5,140.3,19.2,209.8c2.3,13.9,5.1,17.1,16.9,6.8c17.6-15.5,37.1-28.6,57.3-40.6
			c99-58.8,206.9-85.7,321.2-88.6c17.9-0.5,22.6-4.8,22.9-23.1c1.5-100.7,35.4-190.2,99.4-267.8c10.5-12.7,8.9-19-1.7-29.7
			c-83.2-84.6-165-170.5-248.8-254.4C527.1,400.9,481.9,362.3,438.2,322.3z M898.9,120.9c3.3,6.5,5.2,10.8,7.6,14.9
			c74.5,129.5,150.6,258.1,222.6,389c19.3,35.1,41.2,51.5,80.5,50.6c14.3-0.3,21.6-2.1,28.4-15.4c62-120.2,147.6-220.8,254.8-303.1
			c14.6-11.2,29.4-22,46.6-34.9C1334.2,126.3,1123,91,898.9,120.9z M1096.9,573.9c-0.1-2.5,0.3-4.1-0.3-5.2
			C1013.9,424.8,931.1,281,848.4,137.1c-2.8-4.9-5.3-9.5-12.5-8.4c-64.7,10.2-128.6,23.1-189,49.3c0.4,1.7,0.4,2.5,0.8,3
			c111.9,137.3,223.9,274.6,335.8,411.9c4.3,5.3,8.7,8.8,15.8,6C1030.9,586.6,1064,580.1,1096.9,573.9z M1964.3,1658.1
			c-66.2,0-132.4,0.3-198.5-0.2c-13.4-0.1-18,3.9-17.5,17.7c1.4,44.8,2.3,89.6,2,134.4c-0.1,15,3.9,19.5,19.2,20.6
			c131,9.6,261.7,7.2,392.3-5.2c13.4-1.3,17.8-5.5,16.2-19c-5.7-46.6-7.4-93.5-4.3-140.3c0.9-14.6-5.9-15.3-17.1-14.8
			C2092.5,1654.6,2028.4,1656.5,1964.3,1658.1z M593,201.4c-2.6,1.2-5.7,2.6-8.8,4.2c-33.8,17.5-64.8,39.2-93.8,63.8
			c-7.6,6.4-8,10.8-0.7,17.8c17.8,17.3,35,35.2,52.3,53C647,448.6,752.2,557,857,665.6c7.6,7.8,13,9.9,21.9,2
			c16-14.2,33.7-26.3,52.6-36.4c10.2-5.5,10.2-9.6,3-18.3c-39.1-47.2-77.6-94.9-116.4-142.4C748,384.7,677.8,298.8,607.5,213
			C603.7,208.4,600.9,202.2,593,201.4z M1150.9,621.3c-27.7,0.9-59.1,4.1-90.1,11.5c-168.6,40.3-292.2,196.5-291.1,366.8
			c0.1,14.3,3.8,18.7,18.2,19c23.4,0.5,46.8,2.7,69.9,6.3c15.2,2.3,18.2-2.4,18.9-16.8c7.6-158.7,111.1-274.9,268.4-298
			c27.3-4,38.8-12.4,46.1-38.7C1205.3,620.9,1207.3,621.5,1150.9,621.3z M953.2,1582c-25.4,1-56.6,0.3-86.2,11.7
			c-51.7,19.8-63.7,60.4-30.6,104.4c6.2,8.2,13.2,16,21,22.7c61.2,52.1,132.2,71.3,211.5,62.7c11.1-1.2,16.8-5,18.1-17.3
			c5.1-48.9,23-93.4,49.9-134.2c6.7-10.2,5.4-14.1-6.3-18.2C1074.9,1594.4,1017.7,1583.6,953.2,1582z M927.4,1006.9
			c1.6,11.4-6.7,26.6,15.5,30.3c52.9,9,105.6,19.6,158.1,31c13.8,3,14.8-2.9,16.1-12.9c12.6-94.2,26.6-188.1,45.6-281.3
			c2.9-14.1-1-15.9-14.4-14.2C1027.4,774.8,928.1,885.2,927.4,1006.9z M2502.7,1555.5c-83.9,56.7-171.5,86.6-267.2,91
			c-11,0.5-11.7,6.5-11.8,14.9c-0.3,46.2-1,92.4,3.9,138.5c1.1,10.5,4,15.1,15.2,12.5c74.4-17,143.5-44.6,197.5-101.1
			C2480.3,1669.5,2502.8,1620.1,2502.7,1555.5z M1699.3,1739.8c-0.6,0-1.1,0-1.7,0c0-20.7-1-41.4,0.3-62.1
			c1-15.6-3.4-21.7-20.1-21.7c-78.4-0.4-155.1-13.3-230.3-35.2c-12.4-3.6-16.3-2.9-13.1,11.2c15.4,68.3,51.5,121.2,113.7,154.9
			c43.3,23.4,91.2,29.9,139.1,36.5c12.1,1.7,12.1-5,12-13.2C1699.2,1786.7,1699.3,1763.3,1699.3,1739.8z"/>
		<path class="st0" d="M2178.2,961.6c0,104.8-82.4,188.1-185,187.2c-102.2-1-183.9-83.9-183.9-186.9c0-103.8,83.5-188,185.8-187.1
			C2097.6,775.5,2178.3,857.8,2178.2,961.6z M1993.9,1096.9c74.7,0.2,133.9-58.6,134.3-133.4c0.5-77-57.7-136.9-132.9-137
			c-75.8-0.1-135.4,59-135.8,134.6C1859.2,1036.7,1918.6,1096.7,1993.9,1096.9z"/>
		<path class="st0" d="M1719.4,1348.2c0.1,72-56.5,129-128.3,129.1c-72.3,0.1-129.3-56.1-129.7-127.7
			c-0.4-71.1,56.1-129.7,125.3-129.9C1662.4,1219.5,1719.2,1274.5,1719.4,1348.2z M1590.8,1270.3c-44.1-0.1-79.2,34.6-79.1,78.3
			c0.1,42.9,36.7,79.1,79.5,78.7c42.9-0.4,77.2-35,77.5-77.9C1668.9,1304.6,1635.2,1270.4,1590.8,1270.3z"/>
		<path class="st0" d="M1563.9,647.1c-0.3-67.6,53.1-122.7,119.1-123c71.7-0.3,126.3,52.2,126.6,121.8
			c0.3,68.1-53.4,122.8-121.3,123.3C1618.7,769.8,1564.3,716.3,1563.9,647.1z M1614.8,645c-0.5,40.8,30.1,73.1,70.3,74
			c39.4,0.9,73.2-31.4,74.2-71c1-39.8-31.1-72.9-71.1-73.4C1647.1,574.1,1615.3,604.5,1614.8,645z"/>
		<path class="st0" d="M2219.3,1358.9c0.1-65.9,51.9-117.7,117.9-117.7c66.9,0,118.6,52.3,118.3,119.5
			c-0.4,65.5-52.8,116.9-119,116.7C2270.7,1477.1,2219.2,1425,2219.3,1358.9z M2405.1,1358.3c-0.6-36.8-31-66.8-67.7-66.8
			c-37.6,0-68.3,31.2-67.8,68.8c0.5,37.6,32.3,68,69.8,66.8C2376.1,1426,2405.7,1395,2405.1,1358.3z"/>
		<path class="st0" d="M2272,608.1c1.3-57.8,49.3-104.5,106.8-103.8c57.8,0.6,106.5,50.6,105.3,108.1
			c-1.2,58.7-49.4,105-108.5,104.1C2316.4,715.5,2270.7,667.7,2272,608.1z M2376.9,665.7c30.9,0.3,55.7-23.5,56.3-54.1
			c0.6-30.1-23.9-55-54.7-55.6c-31.1-0.6-55.2,22.8-55.6,54C2322.6,641.4,2345.9,665.4,2376.9,665.7z"/>
		<path class="st0" d="M708.9,1598c-0.3,38.3-32.5,70.5-69.9,69.6c-35.9-0.8-67.3-34.4-66.6-71.1c0.7-37.5,32.2-69.6,68.2-69.5
			C678,1527.1,709.2,1559.5,708.9,1598z M641.5,1616.2c10.4-1.8,17-7.8,16.5-19.2c-0.5-11.1-7.7-18.5-18.2-18.4
			c-9.9,0.1-15.6,8.1-15.7,18.2C623.9,1607.9,629.5,1614.8,641.5,1616.2z"/>
		<path class="st0" d="M870.4,1432.8c-0.4,38.3-32.9,70.3-70.3,69.2c-36-1.1-67.2-34.8-66.2-71.5c1-37.6,32.6-69.4,68.6-69.1
			C839.9,1361.7,870.9,1394.3,870.4,1432.8z M801.4,1412.2c-10.2,2.9-16.4,9.4-15.8,20.6c0.5,10,5.9,17.4,16.4,17.5
			c11.3,0.1,17.6-7.1,17.6-18.4C819.5,1420.5,812,1415.1,801.4,1412.2z"/>
		<path class="st0" d="M1038.3,1282.1c37.7-0.5,67.5,29.1,68.2,67.7c0.7,38.3-28.8,69.8-65.8,70.4c-38.9,0.6-69.9-29.3-70.7-68
			C969.2,1313.7,999.5,1282.6,1038.3,1282.1z M1037.8,1369.8c10.3-1.8,17.9-6.9,17.8-18.4c-0.1-11.1-7-17.9-17.7-18.6
			c-11-0.7-15.7,7.4-16.2,17.1C1021.1,1360.4,1025.8,1368.1,1037.8,1369.8z"/>
		<path class="st0" d="M619.2,1766.9c37.5-1.6,67.9,27.7,69.1,66.4c1.1,37.5-27.2,69.7-62.8,71.3c-40.1,1.8-72.1-27.3-73.7-67
			C550.3,1799.3,579.6,1768.6,619.2,1766.9z M637.6,1837.5c-0.4-11.8-6.4-19.1-16.9-20.2c-12.2-1.4-17,7.6-17.3,18
			c-0.2,9.5,3.9,17.9,14.9,18.5C629.3,1854.3,635.6,1847.7,637.6,1837.5z"/>
		<path class="st0" d="M1861,2810.8c-39.9,0.2-71.4-30.9-70.9-70.2c0.4-37.9,32.2-69.6,70.1-70c38.1-0.3,69.8,30.8,70.4,69.1
			C1931.1,2780.2,1901.4,2810.6,1861,2810.8z M1860.1,2761c11.5-1.4,19.3-7,19.6-19.4c0.2-11.3-5.6-18-17.2-18.7
			c-12.3-0.7-19.9,4.8-20.6,17.4C1841,2752.7,1848.4,2758.8,1860.1,2761z"/>
		<path class="st0" d="M1151.6,2815.2c-39.6,0.2-71.1-31-71-70.4c0.2-38.3,31.4-69.7,69.7-70.1c38.8-0.4,71.2,31.9,71.1,71
			C1221.3,2783.8,1190.1,2814.9,1151.6,2815.2z M1170.8,2745.8c-1.4-11.7-7.4-19.5-19.7-19.8c-11.2-0.2-18.7,6.7-19.4,17.5
			c-0.7,11.6,5.9,20.3,18.1,21C1161.8,2765.1,1168.3,2757.3,1170.8,2745.8z"/>
		<path class="st0" d="M1356.9,2824.4c-39.7-0.3-70.2-31.7-69.5-71.7c0.7-38.4,32.3-69.1,70.8-68.7c38.1,0.4,69.8,32,70.1,69.8
			C1428.6,2792.6,1396,2824.7,1356.9,2824.4z M1377.1,2754.8c-1.4-11.4-6.9-19.2-19.5-19.3c-11.4-0.1-18.5,6.7-19.3,17.4
			c-0.9,11.8,5.6,19.5,18.1,20.4C1369.2,2774.2,1374.7,2766.4,1377.1,2754.8z"/>
		<path class="st0" d="M1652.1,2757.2c-0.4,38.2-32.2,69.5-70.4,69.5c-38.8-0.1-71.1-33.1-70.4-71.7c0.7-39.2,33-69.8,72.7-68.9
			C1622.4,2686.9,1652.5,2718.4,1652.1,2757.2z M1582,2736.3c-11.4,1.7-19.6,8-19.5,19.9c0.1,11.9,7.8,19.3,20,19
			c11.1-0.3,18.5-7.4,18.6-18.3C1601.3,2745.3,1594.5,2737.8,1582,2736.3z"/>
	</g>
</g>
</svg>
