<?xml version="1.0" encoding="utf-8"?>
<!-- Generator: Adobe Illustrator 23.0.0, SVG Export Plug-In . SVG Version: 6.00 Build 0)  -->
<svg version="1.0" xmlns="http://www.w3.org/2000/svg" xmlns:xlink="http://www.w3.org/1999/xlink" x="0px" y="0px"
	 viewBox="0 0 3000 3000" style="enable-background:new 0 0 3000 3000;" xml:space="preserve">
<style type="text/css">
	.st0{stroke:#000000;stroke-width:10;stroke-miterlimit:10;}
</style>
<g id="Layer_1">
</g>
<g id="Layer_2">
	<g>
		<path class="st0" d="M2194.9,1483.3c41.5,19.9,78.6,41,112.1,67.7c95.2,76.1,152.6,173.5,149.6,297.3
			c-4.3,176.1-21.7,351.3-73.6,520.5c-71.4,233-231.4,382.7-455.4,468.8c-152.5,58.6-310.4,89.4-473.8,95.8
			c-88.9,3.4-177.5,11-266.6,12.2c-155.8,2.2-307.7-24.4-457.2-64.6c-179.4-48.2-275.9-171.5-307-351.2
			c-16.2-93.3-13.4-186.7-8.6-280.5c5.2-103.9,21.3-205.5,54.5-304.2c49.8-147.9,131-275.7,246.5-381.2
			c12.2-11.1,25.4-21.3,39.1-30.5c10.4-7,10.5-11.3,0.9-19.3c-34-28.5-63-61.6-88.2-98.2c-52.9-77-75.3-163.1-78.3-255.3
			c-2.3-71.9,3.9-143.3,12.3-214.6c9.9-83.4,17.3-167.1,30.1-250.2c40.7-265.2,198.9-433.1,439.9-532.5
			c112.3-46.3,230-72.5,350.2-86.4c167.3-19.3,335.3-30.2,503.8-25.4c112.7,3.2,224.1,16.2,330.2,58.2
			c171.9,68.1,271.1,195.1,303.8,375.3c29.7,163.5,1.9,321.3-52,475.6c-64.6,185.2-166.1,349.2-292,498.6
			C2208.9,1466.6,2202.7,1474,2194.9,1483.3z M575.2,2738c0.5-8.6,0.8-12,0.9-15.4c1.4-233.3,52.7-458.1,121.4-679
			c73-234.8,235.1-368.7,479.5-399c152.2-18.8,305.3-22.9,458.5-15.1c101,5.1,200.3,20.7,293,64.2c116.9,55,195.5,140.5,218,271.9
			c12.9,75.2,13.7,150.9,16.9,226.7c5.6,129,6.2,257.8-8.8,386.3c-2.5,21.7-8.2,43.6-5,68c49.5-44.6,89.8-93.3,122.1-148.3
			c49.8-84.8,78.8-177.2,94.6-273.8c19.9-121.1,37.2-242.5,39.8-365.5c2.5-119.8-48.9-212.7-145.9-278.5
			c-132.1-89.6-279.4-126.7-439.1-116c-97,6.5-194.2,9.9-291.3,15c-170.1,8.8-340.7,3.6-510.7,16.2
			c-125.4,9.3-231.7,56.4-316.4,150.4c-95.2,105.8-163.1,226.5-201.2,363.9c-31.8,114.7-38,232.2-41.1,350.2
			c-1.8,67.9,5.4,134.9,20.7,201C496.4,2626.8,525.4,2685.1,575.2,2738z M1800,806.6c6.3-150.8,10.4-252.7,14.8-354.7
			c4.8-110.9,9.7-221.8,15.3-332.6c0.7-14.6-3-19.2-17.9-18.3c-35.1,2.2-70.3,2.2-105.4,4.2c-107.3,6.2-214.7,11.3-321.2,27.6
			c-14.6,2.2-17.8,8.2-18.2,21.2c-1.8,48.2-4.3,96.4-6.7,144.6c-6.1,123.2-12.4,246.5-18.5,369.7c-7.6,152.8-15.2,305.7-22.9,458.5
			c-4.8,95.7-9.4,191.4-14.6,287.1c-0.8,15.2,1.8,20.9,19.7,20.6c142.8-1.9,285.3-8.5,427.8-16.6c16.7-1,22.3-4.7,22.8-21.6
			c3-90.3,7-180.5,10.9-270.7C1791.2,1003,1796.7,880.4,1800,806.6z M1285.1,789.4c0.1,0,0.1,0,0.2,0c4.2-86.1,8.3-172.2,12.7-258.2
			c6.2-122.6,12.4-245.1,19.1-367.7c0.8-15-2.2-18.7-17.9-15.4c-68.8,14.7-136.3,33.8-201.8,59.7c-147.8,58.6-271.1,146.8-349.6,289
			c-39.6,71.7-57.1,150.2-69.9,230.1c-3.8,23.9-4.1,23.8,19.8,23c64-2.2,128-3.6,191.6,5.3c44.4,6.2,75.7,31,85.8,75.6
			c19.2,84.5,0.5,199.4-112.9,254.8c-65,31.7-132,55.3-204.1,63.7c-10,1.2-19.6,0.7-18.9,17.3c5.4,131.3,60.3,237.2,161.4,320
			c8.8,7.2,15.8,9.6,27.3,4.2c55.5-26.1,114.8-38.2,175.4-44.5c76.9-8,154.2-8.4,231.4-10.2c13.8-0.3,19.1-4.2,19.8-18.6
			c3.8-89.5,8.5-179.1,12.9-268.6C1273.3,1029.1,1279.2,909.3,1285.1,789.4z M1853.1,756.3c-0.1,0-0.3,0-0.4,0
			c-8.9,213.5-17.6,427.1-27,640.6c-0.6,14.7,4.1,17.4,17.1,16.5c99.9-6.4,196.4,10,289.6,46c11.2,4.3,16.2,0.1,22.3-7.5
			c27.7-34.4,56.7-67.7,83.3-102.9c106.8-141.4,190.2-295.1,241-465.5c7.8-26.1,7.9-26.5-20.2-26c-26.9,0.5-53.8,1.4-80.6,3.3
			c-48.5,3.5-96.4,1.3-143.7-10.7c-85.2-21.7-138-90.2-140-182.1c-1.9-86.4,36.2-136.4,127.9-163c84.6-24.6,169.6-48.4,257.7-57.4
			c14.8-1.5,17.7-5.6,13-20.3c-37.3-117.5-110.7-203.4-222.4-255.7c-119.5-55.9-247.6-67.1-377.1-70.9c-9.7-0.3-13.2,2.9-13.5,12.8
			c-0.8,30.3-2.5,60.6-3.8,90.9C1868.6,388.4,1860.9,572.3,1853.1,756.3z M2016.6,2739.6c26.2-12.4,47.3-26.4,68.4-40.5
			c5.4-3.6,5.7-8.6,6.3-14.2c5.6-52.8,12.5-105.4,17-158.3c15.1-178.6,9.2-357.1-9.3-535c-11.6-111.9-73-191.1-171.7-242.1
			c-52.3-27.1-108.3-44.5-166.3-54.6c-98.7-17.1-198.2-19.9-298.1-16.8c-110.3,3.4-220.8,3.5-329.6,25.2
			c-174.7,34.7-297.6,133.4-366.5,298.5c-24.5,58.8-39.1,120.4-56.1,181.4c-50.3,180.1-82.1,362.8-84.4,550.2
			c-0.6,53.3-0.4,52.8,47.7,74.3c15,6.7,19.6,4.6,20.9-12.2c4.3-54.3,9.1-108.6,15.5-162.7c20.4-170.8,62.4-337,105.8-503
			c50-191.2,168-317,357.6-371.1c160.2-45.8,324.8-52.7,487.6-20.3c178.9,35.6,292.8,144.8,331.5,327
			c13.2,62.2,17.5,125.5,25.6,188.3c14.9,114.6,18.9,229.4,12.3,344.8C2028.2,2644.4,2021.3,2690.1,2016.6,2739.6z M842.2,2856
			c66.2,12.5,126.9,25.2,188.7,31.5c12.2,1.2,20.6-2,29.4-10.3c63.9-59.9,128.3-119.2,192.5-178.8c115.7-107.5,231.4-215,347-322.5
			c109.6-101.9,219-203.9,328.7-305.8c7-6.5,11-12.1,7.9-23c-13.8-48.2-32.4-94-65.1-132.6c-23.4-27.6-16.7-26.1-40.6-3.3
			c-159.3,151.7-318.2,303.9-477.2,456c-150,143.5-299.9,287.2-449.8,430.7C884.3,2816.4,864.8,2834.6,842.2,2856z M743.6,2818.7
			c0.8,3.2-2.9,8.8,2.1,13.6c9.8,9.4,38.4,8.9,48.8-1c140.6-134.3,281.3-268.7,421.9-403.1c155.1-148.2,310.1-296.4,465.2-444.7
			c39.9-38.1,79.4-76.6,119.8-114.3c10.1-9.5,9.1-14.1-1.9-21.1c-16.9-10.7-34.2-20.5-52-29.7c-13.9-7.2-23.2-6.5-35.7,5.3
			c-79.6,75.4-160.2,149.8-240.6,224.3c-235.6,218.5-471.2,437-707,655.4c-8.6,8-13.3,16.6-14,28.5
			C748.6,2760.4,745.9,2788.5,743.6,2818.7z M2400.3,806.6c16.5,0,33.1-0.5,49.6,0.1c48.4,1.9,48.7,2.1,57-44
			c14.8-82,17.4-164.3,6.6-247c-1.9-14.4-4.9-21.5-22.8-18.9c-34.1,4.9-68.1,10.2-101.7,17.8c-59.7,13.5-119.3,27.6-177.3,47.5
			c-27,9.3-48.4,25.7-58.9,53.9c-29.2,78.3,13.4,161.9,93.6,184.8C2297.2,815.3,2348.7,812.1,2400.3,806.6z M1745.5,2841.5
			c2.1-0.3,3.5-0.3,4.9-0.6c69-19.3,137.3-40.3,203.3-68.7c14-6,7.2-10.8,1.2-17.1c-104.6-108.9-209.3-217.7-313.6-326.9
			c-8.6-9-13.5-9.8-22.9-0.8c-47.5,45.1-95.5,89.7-143.9,133.8c-8.7,7.9-7,11.9,0.2,19c85.5,84.2,170.7,168.7,256.1,253.1
			C1735,2837.5,1738.8,2843,1745.5,2841.5z M1951.2,2118.9c-6.7,5.9-10.4,8.9-13.8,12.1c-83.3,77.4-166.5,154.9-249.7,232.3
			c-20.5,19-20.5,19.2-0.5,39.9c82.1,85.5,164.2,171,246.5,256.3c11.2,11.6,23.3,22.5,36.1,34.8
			C1998.6,2501.4,1977.1,2312.3,1951.2,2118.9z M1668.8,1794.5c-0.6-2.2-1.3-4.4-1.9-6.7c-174.1-25.7-346.6-23.9-519.3,30.8
			c4.9,6,6.9,8.8,9.2,11.2c68.3,73.8,136.8,147.4,204.5,221.7c11.2,12.3,16.9,13.9,29.8,1.6c66.4-63,134-124.9,201.2-187.2
			C1617.9,1842.3,1643.3,1818.3,1668.8,1794.5z M1094.6,1843.7c-1.9,0.9-4.4,2.1-6.8,3.4c-54.3,29.9-101.6,68.1-140.5,116.7
			c-6.3,7.9-4.7,12.2,1.8,18.5c81.3,78.4,162.5,156.9,243.5,235.7c7.5,7.3,12.1,8,20.1,0.5c38.5-36.5,77.4-72.5,116.6-108.2
			c7.3-6.7,7.7-10.7,0.9-18c-74.6-80.1-148.9-160.6-223.3-240.9C1103.6,1847.9,1101,1843.4,1094.6,1843.7z M769.1,800.8
			c-28.3,0-56.6,0.4-84.8-0.2c-11.9-0.2-16.5,3.6-17.8,16.3c-8.8,86.4-20.9,172.5-26.1,259.3c-1.5,25.2-1.6,25.6,24.2,21.6
			c59-9.2,114.7-28.4,168.6-54.2c74.6-35.7,106-95.8,94.9-189.7c-3.7-31.3-18.4-44.2-49.5-49.1C842.2,798.9,805.6,800.9,769.1,800.8
			z M762,2630.9c6.9,1.3,9.1-3.1,11.9-5.7c89.5-82.8,178.8-165.9,268.5-248.6c8.9-8.2,6.2-12.3-1.2-18.9
			c-45.3-40.3-90-81.3-135.6-121.3c-16.7-14.7-31.6-31.8-52-44.5C812.1,2337.2,780.7,2482.7,762,2630.9z M1675.4,2858
			c-80.3-82.2-160.3-164-240-246.1c-7.3-7.5-11.2-3.5-16.6,1.5c-23.2,21.6-46.3,43.4-70.1,64.4c-9.2,8.1-5.8,12.8,1.1,19.6
			c56.8,56.4,113.3,113,169.8,169.7c5.5,5.5,10.8,9.9,19.6,9.2C1585.9,2872.3,1632.4,2867.2,1675.4,2858z M913.4,2018.7
			c-18.9,35.1-30.6,70.4-42.5,105.5c-3.1,9,1.5,13.9,7.5,19.3c67.2,60.2,134.5,120.3,201.3,181c8.8,8,13.3,5.2,20.1-1.3
			c17.4-16.7,34.7-33.5,53.1-49.1c10.6-9,10.1-14.4,0.2-23.8c-43.1-40.7-85.3-82.3-127.9-123.5C988.7,2091.4,952,2056,913.4,2018.7z
			 M1457.9,2881.9c-1.1-3.6-1.1-5.2-1.9-6c-48.6-48.8-97.5-97.3-145.8-146.4c-9.5-9.7-14-2.4-19.7,2.9c-39.9,37-79.7,74-119.5,111.1
			c-16.8,15.6-33.4,31.4-53.8,50.7C1234.5,2898,1345.5,2889.2,1457.9,2881.9z"/>
	</g>
</g>
</svg>
