<?xml version="1.0" encoding="utf-8"?>
<!-- Generator: Adobe Illustrator 23.0.0, SVG Export Plug-In . SVG Version: 6.00 Build 0)  -->
<svg version="1.0" xmlns="http://www.w3.org/2000/svg" xmlns:xlink="http://www.w3.org/1999/xlink" x="0px" y="0px"
	 viewBox="0 0 3000 3000" style="enable-background:new 0 0 3000 3000;" xml:space="preserve">
<style type="text/css">
	.st0{stroke:#000000;stroke-width:10;stroke-miterlimit:10;}
</style>
<g id="Layer_1">
</g>
<g id="Layer_2">
	<g>
		<path class="st0" d="M1537.3,2952.8c-152.6-5.7-297.6-10.5-442.2-22.1c-66.9-5.4-133.4-14.3-199-28.9
			c-114.9-25.7-196.6-95-255.5-193.8c-88.1-147.9-117.4-309-107.5-479.4c7.4-127.7,56.2-242.2,110.1-355.1
			c26.3-55.1,53.1-110,84-162.7c5.8-9.9,3.4-13.7-5.6-19.9c-153.2-106-235.4-249.9-231.5-438.8c2.3-111.5,13-222.6,15-334.1
			c0.8-43.7,3.1-87.4-0.6-130.9c-9.7-113.2,29.4-209.4,99.8-295.2c83-101.1,189-172.6,303.5-232.2
			c195.3-101.8,403.5-163.6,621.1-194.8c115.4-16.6,231.3-22.2,347.5-11.6c133.4,12.1,258.5,47.1,363.3,135.5
			c78.5,66.2,120.8,150.7,125.5,253.9c4.4,97.5-2,194.7-6,291.9c-3.6,88.5-10.6,176.9-14,265.5c-6.7,172.8-39.2,340.8-89.4,505.8
			c-13.1,43.1-30.8,84.6-59.5,120.2c-8,9.9-3.3,16.9,1.2,25.3c60.6,113.3,102.9,233,124.9,359.7c16.2,93.8,18.4,188,12.3,283
			c-6,92.7-16,184.6-42.5,273.8c-35.8,120.9-94.2,227.8-194,308.8c-49.3,40-106.9,57.8-168.1,66.6
			C1797,2962.3,1663.3,2955.5,1537.3,2952.8z M1750.6,99.1c-80.5-1.4-159.9,6.1-238.9,18.3c-206.5,32-403.8,92.6-589,190
			c-103.4,54.4-198.9,119.9-275.4,210C591,583.7,550.3,657.9,553.6,747c5.7,155.4-2.5,310.3-13.9,464.9
			c-9.1,123.5,19.4,233.8,94.1,332.2c52.7,69.4,117,121.8,204.7,139.9c47.5,9.8,95.7,13.6,144.1,13.7
			c253.9,0.5,507.7-10.9,761.6-8.2c73.2,0.8,146.3,0.1,219.5-3.5c121-6.1,194.8-58,236.7-172.1c31.1-84.6,49.9-172.8,67.1-260.8
			c27.8-142.1,29.7-286.9,37.4-431c0.1-2.8-0.3-5.3-4.3-5.9c-46,35.4-94.7,67.6-147.7,92.7c-13.9,6.6-24.4,15.7-33.3,27.9
			c-95.3,129.5-164.8,271.4-207,426.6c-8.7,31.9-8.5,31-40.3,24.7c-15.1-3-15.4-8.9-12-21.9c32.9-124.8,82.2-242.5,148.9-352.9
			c12-19.9,24.5-39.4,36.9-59.3c-1.6-0.6-2.4-1.2-2.9-1.1c-6.5,1.7-12.9,3.4-19.4,5.2c-85.1,23.6-171.4,33-259.1,18
			c-154.4-26.4-264.8-107.9-305.2-263.3c-48.1-184.8-9.7-351.2,124-491.7C1631.8,170.6,1688.5,131.6,1750.6,99.1z M2169,197.5
			c-6.2-4.3-10.8-7.9-15.8-10.8c-61.6-37.1-128.2-60.8-199-72.8c-24.3-4.1-48.7-12.9-73.6-6.6c-118.7,30.2-219.4,90-295.4,187.3
			c-96.5,123.5-116.4,262.8-76.4,411.2c28.1,104.3,97.2,172,199.8,206.1c51.7,17.2,104.7,23.6,158.7,21.2
			c166.5-7.4,308.3-74.5,433.7-180.9c7.3-6.2,8.3-12.9,8.7-21.1c3.9-80.5,7.5-161,7.6-241.6c0-18.8-1.5-37.6-2.2-56.3
			c-0.6-14.9-3.5-20.6-19.2-9.5c-45.4,32.1-91.5,63.5-138.3,93.6c-49.6,31.9-102.8,53.2-163.6,39.6c-50.1-11.2-84.2-40.7-96.4-91.7
			c-11.4-47.8-2.1-91.2,34.9-125.3c44.2-40.8,96.3-69.8,150.3-95.6C2111.9,230.5,2140.5,215.9,2169,197.5z M1532.8,2905.1
			c22.2,0,44.3-0.5,66.5,0.1c107.5,2.6,214.9,4.7,321.8-10.3c68.4-9.6,128.6-34.2,178.4-84.4c50.5-51,88-109.7,116.1-175.1
			c53.3-123.7,66.7-255.1,72.5-387.6c8.5-192.5-33.9-374.3-120.2-546.3c-14.5-28.8-13.7-27.8-41.9-11.7
			c-14.2,8.1-13.6,14.9-7.4,27.7c21.5,44,39.7,89.5,54.8,136.2c52.2,161.8,74.1,326,34.3,493.8c-47.7,201.4-168.9,334.2-370.8,389.5
			c-91.5,25.1-185.4,30.3-279.4,31.8c-98.7,1.5-197.4-3.6-296-8.8c-87.1-4.6-174.4-7.7-260.2-26.3
			c-153.1-33.4-244.1-126.8-273.5-280.5c-19.4-101.7-8.6-202,15-301.4c32.9-139,91.2-267.7,163.8-390.1c8.3-14,8.5-18.9-9.6-19.7
			c-34.3-1.5-68.1-7.7-100.6-18.8c-13.5-4.6-19.6-2.2-26.4,10.4c-32.6,60.2-63.9,121-92.8,183c-49.2,105.5-92,212.8-96.2,332
			c-5.4,153.8,22.1,299.2,101.2,432.7c51.8,87.3,122.8,149.9,224.9,172.2c51.9,11.4,104.2,19.5,156.9,24.5
			C1220,2892.8,1376.5,2896.6,1532.8,2905.1z M1366.3,1739.7c-38.9-4.7-96.6-7.4-165.1,6c-16.8,3.3-31.3,3.9-48,12.2
			c-102.2,51-175.1,127.4-215.7,235.9c-22.3,59.5-1.3,90.3,36.1,116.2c67,46.4,142.4,65.4,222,48.5c110.9-23.6,196.2-88.4,256.9-183
			c42.8-66.7,70.4-141.4,98.7-215.3c7.2-18.8,1.2-20.9-15.8-20.6C1479.1,1740.2,1422.7,1739.7,1366.3,1739.7z M1779,1737.3
			c0,0.6,0,1.2,0,1.8c-48.3,0-96.7,0.9-145-0.5c-17.7-0.5-25.8,4.5-31.4,21.7c-10.8,33.1-23.6,65.6-37.3,97.6
			c-34.1,80.3-68.7,160.6-133.6,222.5c-6.5,6.2-4.2,9.7,1.3,14.2c13.1,10.5,25.4,22,39.1,31.7c57.1,40.2,118.6,65.4,190.4,51.9
			c60.6-11.4,109.2-44.2,150-88.4c88.2-95.4,127.3-210.9,134.5-338.8c0.7-12.6-4.4-14-15.1-13.9
			C1881,1737.6,1830,1737.3,1779,1737.3z M2026.8,511.4c34.7,0.1,66.1-11.4,94.5-29.9c57.2-37.4,113.4-76.4,170.4-114
			c9.4-6.2,8.1-11.5,4.9-19.9c-15.7-40.8-41.5-74.7-71.4-106c-9.2-9.6-16.3-9.1-27.4-2.9c-38.7,21.5-77.9,41.9-117.3,62.1
			c-36.5,18.7-71.5,39.7-103.6,65.3c-31.2,24.9-41.8,59.3-29.2,94.8C1959.1,493.1,1987.4,511.2,2026.8,511.4z M1953.3,2378.7
			c-31,73.2-60.1,142-89.6,210.7c-2.3,5.3-0.4,8.9,1.5,13.1c7.9,17.7,16.2,35.3,23.6,53.2c3.4,8.3,7.2,9.1,15.1,5.7
			c23.4-10.2,45.7-22.4,67.1-36.4c6.7-4.4,9.8-10.4,12.4-17.6c11.5-31.4,23.5-62.7,35.2-94.1c2.3-6.2,6.6-12.5,2.6-19.2
			C1999.4,2456.8,1977.3,2419.6,1953.3,2378.7z M1531.9,2411c-41,54-79.3,104.6-117.9,155.1c-4.8,6.3-3.6,12-1.8,18.8
			c10.6,39.4,20.5,78.9,31.3,118.2c1.4,5.1,0.3,13.1,8.3,14.5c9.1,1.6,10.6-6.5,13.7-12c21.7-38.5,40.2-79.2,65.6-115
			c33.3-46.9,41.9-92.6,12.8-143.8C1538.5,2437.2,1536.7,2425.6,1531.9,2411z M2046.5,2438.5c23.4-62.4,45.2-120.4,66.7-178.4
			c1.1-2.9,1.6-7.1,0.3-9.5c-19.2-34.9-38.9-69.7-60.1-107.5c-25.2,59.6-48.7,115.5-72.6,171.3c-2.4,5.6-2.4,9.8,0.6,14.9
			C2002.5,2364.3,2023.2,2399.3,2046.5,2438.5z M1474.5,2239.8c-37.8,49.9-73,96.4-108.3,142.9c-2.9,3.8-5.4,7.7-4,12.9
			c10,37.2,20,74.5,29.9,111.5c2.7-0.4,3.5-0.3,3.8-0.7c37.2-48.3,74.4-96.7,111.7-145c3.7-4.8,4.4-9.8,2.7-15.1
			C1498.8,2312.1,1487.3,2278,1474.5,2239.8z M1322.9,2440.7c-38,50.1-73.4,96.9-108.8,143.8c-4,5.3-3.4,10.9-2.2,17.2
			c5.8,30.9,11.1,61.9,16.7,92.8c1,5.5-0.9,12.8,7.3,14.7c7.5,1.7,10.6-4.3,14.2-9c32.4-42.7,64.7-85.5,97.3-128
			c5.5-7.1,7.1-13.8,4.8-22.3C1342.6,2515.1,1333.4,2480.2,1322.9,2440.7z M1876.6,2249.9c-29.1,61.4-56.3,118.7-83.5,176.2
			c-1.4,2.9-3.7,7-2.7,9.3c13.5,31.4,27.6,62.5,43.3,97.6c29.5-69.3,56.8-133.3,84.1-197.3c2.1-4.9,4.6-9.4,1.1-15.1
			C1905.4,2298.4,1892.2,2276,1876.6,2249.9z M1276.3,2263.7c-34.1,46.4-65,88.5-96,130.5c-2.9,4-4.9,8.1-4,13
			c6.8,37.6,13.8,75.2,21.3,116.6c36.3-48,69.7-92.4,103.3-136.6c3.5-4.6,5.4-9.3,3.9-14.9
			C1295.8,2337.4,1286.5,2302.5,1276.3,2263.7z M1761.3,2493.5c-29.3,62.1-57.8,120.3-84.2,179.5c-9,20.1,9.1,40.1,30.7,37.4
			c13.3-1.7,26.5-3.9,39.9-4.8c9.1-0.7,14.5-4,18.1-12.8c11.9-29.1,24.5-58,37.1-86.9c2.9-6.6,3.4-12.7,0.4-19.3
			C1789.8,2556.9,1776.5,2527.2,1761.3,2493.5z M1344.9,2328.8c37.3-49.4,71.9-95.1,106.4-140.9c6.9-9.1,0.5-14.4-6.2-19.8
			c-15.6-12.6-31.9-24.6-46.1-38.7c-11-10.8-18.1-7.7-25.5,2.3c-18,24.1-35.7,48.4-53.8,72.5c-4.5,6-4.7,11.9-2.8,18.8
			C1325.9,2256.5,1334.6,2290,1344.9,2328.8z M1134.6,2456.7c-32,43.4-61.3,83.3-90.7,123c-4.2,5.6-2.7,11.1-1.4,17.2
			c5.6,27.6,10.6,55.2,16.1,82.8c1,4.9-0.8,12,5.9,13.7c6.4,1.6,8.9-4.9,12-9c24.8-32.6,49.2-65.3,74.1-97.8
			c4.4-5.8,6.2-11.6,4.8-18.7C1148.7,2532.5,1142.1,2496.9,1134.6,2456.7z M2138.4,2192.7c9.2-24.1,16.1-44.3,24.5-63.9
			c9-20.9,13-41.7,8.6-64.4c-6.1-30.9-11.2-62-16.4-93.1c-1.6-9.6-6.5-17.6-15.7-18.5c-9.6-1-8.8,10.3-11.4,16.2
			c-15.5,34.9-29.9,70.3-45.1,105.3c-3.2,7.3-4,13.2,0.3,20.6C2101.3,2126.1,2118.8,2157.7,2138.4,2192.7z M1984.9,2020.9
			c-27.1,57.1-52.6,110.7-78,164.5c-1.9,4-5.4,8.3-2.5,13.1c13.2,22.5,26.5,44.9,41.7,70.6c25.8-60.8,49.5-116.7,73.4-172.5
			c2.3-5.4,3-9.7-0.1-15C2008.3,2062.7,1997.7,2043.5,1984.9,2020.9z M1652.5,2252.7c-27.6,36.2-53.3,70.1-79.3,103.8
			c-4.5,5.8-3.2,11.5-1.3,17c9.4,28.2,19.1,56.4,30,88.1c26.8-48.1,52.1-93.4,77-138.9c1.7-3,1.6-8.2,0.2-11.5
			C1670.9,2292.5,1662.3,2274,1652.5,2252.7z M1707.3,2374.3c-28,50.3-53.7,96.4-79.4,142.5c-2.2,4-5.5,7.9-3.7,13.1
			c8.5,24.9,17,49.8,27.2,79.6c28.2-59.7,54.2-114.4,80-169.2c2.1-4.4,1.9-9.1-0.1-13.7C1723.9,2410.4,1716.4,2394.2,1707.3,2374.3z
			 M941.9,2342.1c-21.6,18.8-40.4,37.1-61.2,52.6c-18.1,13.5-25.1,28.3-19.1,50.8c6.9,25.8,5.7,53.4,14.1,81.7
			c27.3-32,52.4-61.7,77.7-91.1c3.7-4.4,5.6-8.9,4.5-14.7C952.7,2395.9,947.6,2370.4,941.9,2342.1z M912.1,2188.2
			c-25.2,18.9-47.7,35.7-70.1,52.7c-3.6,2.8-8.1,5.4-7.2,11.1c4.9,33.8,9.9,67.6,15.3,104.3c26.4-23,49.4-43.4,72.8-63.3
			c6.5-5.5,8.1-11.5,6.5-19.5C923.6,2246.1,918.2,2218.6,912.1,2188.2z M971,2491.8c-26.3,31-48.3,59.8-73.3,85.6
			c-15.4,15.9-13.7,32.2-9.7,49.8c3.8,16.8,20.2,20.8,33.1,26.3c11,4.7,13-8.9,17.8-14.9c14.2-17.8,27.1-36.6,40.7-54.9
			c4.1-5.5,8-10.5,6.4-18.1C981.2,2542.8,976.7,2519.9,971,2491.8z M1027.2,2518.8c26.6-36.1,47.8-70.7,74.7-100
			c27-29.4,16.6-57.6,8-90.3c-31.5,37-61.4,72.1-91.3,107.2c-3.1,3.7-5.9,7.4-4.9,12.6C1017.8,2470.3,1022.1,2492.3,1027.2,2518.8z
			 M999.6,2376.5c8.2-0.6,10.7-7.9,14.7-12.6c21.5-24.8,40.4-52.3,64.3-74.4c26-24,19.1-48.1,10.6-76.7c-24.3,21.2-45.5,43-70,60.2
			c-28.6,20.1-39.2,42.7-25,75.8C997.8,2357.2,997.9,2367,999.6,2376.5z M1762.5,2374.7c25-52.8,49-102.7,72.5-153
			c12.7-27.2,11.5-31.9-11.5-55.4c-27.2,48.7-54.1,97.1-81.3,145.4c-3.4,6-3.1,11.5-0.6,17.2
			C1748,2343.4,1754.7,2357.7,1762.5,2374.7z M1590.2,2584.4c-24.4,43.6-46.5,83.4-68.9,123c-5,8.8-2.7,12.2,6.9,12.1
			c16.8-0.2,33.6-0.3,50.3-0.7c22.7-0.6,45.7-30.5,39.2-52.3C1609.9,2640.3,1600.4,2614.5,1590.2,2584.4z M2047.6,2030.3
			c11-25.8,20.2-47.3,29.5-68.9c16.4-38.2,16.4-38.2-20.1-59c-1.7-1-3.6-1.9-5.2-3.1c-6.2-4.8-9.2-1.4-11.8,4.3
			c-8.4,18.2-17,36.4-25.6,54.5c-2.1,4.4-2.9,8.6-0.2,13.3C2024.9,1989.8,2035.2,2008.4,2047.6,2030.3z M1163.3,2333.6
			c33-44.9,62.8-85.2,92.3-125.7c3.3-4.6,8.3-13.9-2.9-11.3c-15.1,3.5-32.8,3.2-44.3,16.1c-17,19-33.1,38.7-49.6,58.1
			c-3.6,4.3-5.8,8.5-4.5,14.6C1157.2,2299.5,1159.6,2313.9,1163.3,2333.6z M1993.1,1795.6c-2.6,17,13.7,17,22,24.1
			c4.3,3.7,8.4,3.6,11.2-2.3c13.3-28.4,27.2-56.6,39.9-85.3c3.4-7.8,1.4-13.6-10.8-11.6c-56.8,9.2-56.9,8.8-61.5,67.2
			C1993.7,1790.2,1993.4,1792.9,1993.1,1795.6z M826.8,2190c24-18,46.4-34.5,68.5-51.4c6.6-5.1,2.6-43.9-4.5-47.7
			c-3.6-1.9-6.4,0.4-9.2,1.9c-18.9,9.8-37.6,20-56.6,29.5c-6.7,3.4-7.7,8-6.6,14.7C821.2,2153.9,823.7,2170.7,826.8,2190z
			 M2146.5,2313.5c-22.4,59.5-44.2,117.5-66,175.4c-2.4,6.3,0.8,11.6,5.3,13.7c7.4,3.5,8.1-5.1,10.4-8.9c28-44.7,46.8-93.2,60.6-144
			C2160.7,2335.7,2158.2,2325.5,2146.5,2313.5z M1370.8,2622.8c-23.7,31.5-44.7,59.3-67.4,89.3c28.7,1.5,53.2,2.5,77.8,4.3
			c11.7,0.9,14-3.5,11.1-14C1385.3,2677.6,1378.8,2652.5,1370.8,2622.8z M1549.3,2306.4c20.3-26.9,37.9-50.2,57.4-76.1
			c-32.1-1.9-59.5-11.1-89.6-19.8C1528.1,2243.5,1538.1,2273.2,1549.3,2306.4z M788.8,2282.5c-9.2,4.8-18.5,8.4-19.1,16.5
			c-2.9,40.4-3.7,80.8,3.7,125c11.5-14.3,31.8-17.9,30.5-34.3C801.1,2354.3,794.2,2319,788.8,2282.5z M894.7,1967.1
			c-18.1,9.3-39.1,9.8-47.3,24.7c-12.6,22.9-21.3,48.3-28.1,77.1c18.5-9.5,34.3-17.5,50.1-25.7c3.4-1.8,7.9-3.1,8-8
			C877.9,2012.4,886.8,1991.6,894.7,1967.1z M957.5,2160.8c5.9,29.7,11.1,56.3,17,86.1c20.7-18.1,39.1-34.2,59.2-51.8
			C1006.2,2186.1,983,2174.8,957.5,2160.8z M2096,1786.7c-7.1,14.4-11.8,23.8-16.3,33.3c-14.3,30.1-14.4,30.3,14.4,46.8
			c6,3.4,13,12.1,19.1,6.6c7.2-6.6,9.6-17.3,5.5-27.8C2111.6,1827.6,2104.8,1809.6,2096,1786.7z M813.4,2454.1
			c-11,12.6-29.6,16.7-26.6,30c7,30.9,20,60,42.9,84.1C824.5,2531.9,819.3,2495.7,813.4,2454.1z M1955.3,1967.1
			c-1.7-0.6-3.4-1.2-5-1.8c-20.8,47.3-44.4,93.2-78.6,132c-14.6,16.6-16.1,28.7,1.3,44.2C1900.4,2083.3,1927.8,2025.2,1955.3,1967.1
			z M1127.2,2699.9c15.7,4.7,29.7,4.9,43.6,5.5c5.1,0.2,9.4-0.3,7.9-7.5c-3.3-16.1-6.3-32.3-10.2-52.7
			C1153.2,2665.5,1140.6,2682.2,1127.2,2699.9z M999.6,1805.1c-0.8-0.7-1.6-1.5-2.5-2.2c-13.8,6.2-27.2,13.8-41.6,18.4
			c-18.6,6-22.6,15.3-11.5,31.3c1.8,2.6,3,5.5,5.1,9.4c15.2-17.1,29.7-33.3,44.2-49.6C995.5,1810.1,997.5,1807.5,999.6,1805.1z
			 M1746,2203c-17.8,6.4-30.9,11.1-44,15.8c-5.1,1.8-8.4,4.9-5.3,10.4c5.5,9.9,7.2,22.2,17.2,31.4
			C1724.4,2241.8,1734.1,2224.4,1746,2203z M975.5,2675.8c11.2,1.2,24.2,12.2,29.7,3.9c6.1-9.2-1.9-23.2-6-36.7
			C989.1,2653.8,981.4,2663.3,975.5,2675.8z M1982.4,1859.3c-0.9,17.7-14.8,32.3-2.8,49.3
			C2003.4,1879.5,2004.1,1871.2,1982.4,1859.3z M899.6,1877.9c-7.6,13.3-14.5,24.8-18.5,39.4
			C914.5,1905.4,914.5,1905.4,899.6,1877.9z M1823,2687.6c26.1-3.9,26.1-3.9,11.6-27.3C1829.8,2669.1,1824.9,2677.5,1823,2687.6z"/>
		<path class="st0" d="M1399.5,1330.4c27.5-4.5,52.3-14.6,77.4-23.6c10.5-3.7,9.5-11.3,9.5-19.4c-0.1-60.5,0.6-120.9-0.4-181.4
			c-0.3-16.8,2.5-24,21.5-22.7c32.8,2.2,28.3-3.3,28.4,29.7c0.3,51.6,0.1,103.2,0.1,154.4c8.2,3.4,11.2-2.4,14.8-5.5
			c26.7-23.2,47.9-50.7,64-82.1c11.4-22.1,22.2-44.4,33.4-66.5c6.6-13.1,16.7-21.6,31.9-20c15.6,1.7,22.1,13.7,25.6,27.4
			c5.7,22.9,1.2,45.6-2.7,68c-14.6,83.6-47.9,159.4-100.2,225.9c-54.2,69-125.2,110.2-213.8,118.6c-79.2,7.5-158.5,9.4-237.2-2.5
			c-142.9-21.5-233.5-107.1-282.2-239.8c-47.6-129.8-33.5-257.4,18.5-382.6c24.7-59.3,58.5-113.2,100.2-162.2
			c15.7-18.5,32.4-36,53.2-48.9c13.2-8.2,27.7-12,41.4-1.4c12.5,9.8,14.7,23.5,10.6,38.2c-13.5,49.1-29.5,97.5-39.7,147.6
			c-8.5,41.6-11.6,83.6-13.6,129.5c13.1-17.6,19-35.3,27.1-51.8c13.9-28.2,27.9-56.5,40.5-85.3c5.6-12.7,11.3-13.1,22.6-7.5
			c29.3,14.4,29.5,13.8,15.2,43.8c-30.1,62.9-59.8,125.9-90.3,188.6c-5.9,12.1-7.6,23.2-4.5,36.5c10.8,46.4,33.2,85.8,70.1,121.9
			c7.8-34.3,15.1-65.7,22-97.2c13.9-63.5,28-126.9,41-190.5c2.9-14.3,7.9-19.8,22.1-13.9c4.3,1.8,9,3.1,13.6,3.2
			c14.7,0.3,16.7,6.4,13.5,20.3c-21.9,96.7-42.5,193.7-64.3,290.4c-3.5,15.5-2,25.2,14.1,31.2c18.8,7,37.2,15.2,55.6,23.4
			c10.8,4.8,13.2,1.3,14.3-9.8c9-90.1,18.9-180.1,27.8-270.2c1.6-16.1,6.6-22.1,23.7-19c27.4,5.1,28,4.2,25.2,31.1
			c-9,86.7-18.5,173.4-27,260.2c-0.7,7.6-9.9,20.8,8.8,22.5c32.5,3,35.6,1.4,38-19.1c10.5-88.6,21.5-177.1,31.9-265.7
			c1-8.2,3.9-10.5,11.3-9.2c1.3,0.2,2.6,0.5,4,0.7c35.9,4.5,35.3,4.5,30.8,40.7c-9.9,78.5-19.2,157.1-28.6,235.6
			C1398.5,1324.6,1399.2,1327.2,1399.5,1330.4z M1027.7,777.4c-7.6,8.8-12.2,13.6-16.2,18.8c-32.5,41.4-59.6,86.1-79.3,134.9
			c-51.9,128.7-61.4,257.6,2.3,385.6c44,88.3,112.5,145.2,211.4,162.6c72,12.7,144.4,10.6,216.9,7.4c44.7-2,87.2-12.8,126.3-36.2
			c76.4-45.9,115.7-118.9,146.5-198.3c1.3-3.5,4.5-7.4,1.2-13.2c-14.8,20-28.8,38.8-46.7,54.2c-103.8,89.9-285.4,133.5-434.3,49.4
			c-84.7-47.8-139-116.3-156.4-212.7c-14-77.5-10-155,1.4-232.5C1006.6,858.6,1018.6,821,1027.7,777.4z"/>
		<path class="st0" d="M1077,503.6c-3.6,69.9-28.6,132.1-85.1,178C908.9,749,809,710.8,794.5,605c-11.6-85,16.8-158.1,82.2-214.1
			c36.1-30.9,79.1-44.6,125.5-25.3c47.9,19.9,66.8,61.4,73.1,110C1076.5,484.2,1076.4,493,1077,503.6z M1027.2,500.9
			c0.4-13-1-25.6-4.2-38.1c-14.2-54.7-60-71.9-106.7-40c-53.6,36.6-85.9,117.8-71.9,181c14,63.5,65.8,81.4,115.9,39.9
			C1005,606.7,1024.3,557.5,1027.2,500.9z"/>
		<path class="st0" d="M1107.2,2036.4c-38.1-0.1-68.7-31.1-68.1-69.3c0.5-37.1,31.4-67.4,68.4-67.4c36.7,0.1,68,31,68.5,67.6
			C1176.6,2005,1145.1,2036.5,1107.2,2036.4z"/>
		<path class="st0" d="M1313.5,1968.3c-37.8-0.1-67.6-30.3-67.1-68c0.5-37.1,29.9-66.5,66.5-66.4c40.5,0.1,69.5,27.9,69.6,66.8
			C1382.7,1940,1353.7,1968.4,1313.5,1968.3z"/>
		<path class="st0" d="M1617.2,1890.3c37.7,0.5,67.2,30.9,66.8,68.7c-0.4,37.5-31,67.7-68.4,67.5c-37.7-0.2-69.7-33-68.4-70.1
			C1548.5,1919.2,1579.6,1889.8,1617.2,1890.3z"/>
		<path class="st0" d="M1778.6,1766.2c38.5-0.1,68,28.6,68.6,66.6c0.6,37.9-31.1,69.9-68.8,69.4c-37.4-0.4-67.3-30.9-67.2-68.6
			C1711.1,1795.2,1740,1766.3,1778.6,1766.2z"/>
	</g>
</g>
</svg>
