<?xml version="1.0" encoding="utf-8"?>
<!-- Generator: Adobe Illustrator 23.0.0, SVG Export Plug-In . SVG Version: 6.00 Build 0)  -->
<svg version="1.0" xmlns="http://www.w3.org/2000/svg" xmlns:xlink="http://www.w3.org/1999/xlink" x="0px" y="0px"
	 viewBox="0 0 3000 3000" style="enable-background:new 0 0 3000 3000;" xml:space="preserve">
<style type="text/css">
	.st0{stroke:#000000;stroke-width:10;stroke-miterlimit:10;}
</style>
<g id="Layer_1">
</g>
<g id="Layer_2">
	<g>
		<path class="st0" d="M1599.1,742.9c226.2,5.4,443.7-0.9,661.1,1.8c97.3,1.2,194.4,7.4,286.5,44c107.7,42.7,188.2,118.9,255,210.7
			c71.6,98.2,122.4,206.2,144,326.6c8.9,49.8,12.4,100.1,12.1,150.8c-0.9,121.2-11.7,241.7-30.1,361.2
			c-29.9,194.2-149,316.2-326.5,387.4c-72.4,29.1-148.4,44.1-225.8,48.1c-144,7.6-287.9,3.7-430.8-17.1
			c-72.2-10.5-139.7-34.2-194.4-85.6c-7.4-7-14.1-6.2-22.9-3.3c-118.9,38.8-240.3,51.2-364.4,33.9c-55.4-7.7-109.6-20.6-162.1-40.4
			c-8-3-15.3-8.7-23.1,3.4c-61.6,96.8-153.6,142.5-264.4,158.4c-99.1,14.2-197.6,32.2-297.5,40.9c-226.8,19.8-393-98.1-489.5-277.9
			c-46.9-87.4-71.5-179.1-70-279.2c3.5-231.2,3.7-462.5,9-693.8c2.6-113.1,58.9-191.9,153.2-247.1c74.4-43.6,157.5-62.4,240.7-79.7
			c254.8-52.9,512.3-69.6,772.1-57.2C1356.7,735,1482.3,738.6,1599.1,742.9z M116.9,1591.2c22.6-12.7,41.8-25.1,62.4-34.7
			c17.6-8.2,23.1-20.5,25.1-39.1c8.9-82.9,16.4-166.1,32.4-248c32-163.5,120.7-246.3,285-268.5c76.2-10.3,152.8-8.2,229.3-9.8
			c36.7-0.8,73.3,0.9,109.4,8.8c151,33.3,252.1,216.9,239,347.2c-6.8,67.3-45.7,95.5-110.8,79.1c-92.4-23.3-185.9-29.1-280.4-24.1
			c-80,4.2-156.8,21.4-229.2,58.1c-118.7,60.2-235.8,123.4-351.2,189.6c-10.6,6.1-15.1,12.9-15,25.3c0.5,45.2,1.3,90.4-0.3,135.6
			c-3.4,93.3,23,178.4,68.7,258.3c93.1,162.7,228.4,251.9,421.2,238.9c110.1-7.4,218.6-27.1,327.1-45.6
			c65.1-11.1,123.1-35.9,168.2-86.1c71.9-79.8,93.2-176.8,95.6-280.3c0.2-6.9-3-11.4-7.8-15.6c-28.3-24.7-56.7-49.1-91.4-64.8
			c-56.3-25.5-70-19.9-80.7,40.7c-20.3,114.3-80.5,198.9-183.6,251.4c-125.6,63.9-256.8,72.4-389.7,27.3
			c-89.8-30.5-161.6-87-187-181.5c-34.2-127.6-13.4-249.6,65.1-357.8c52.2-72,128.8-109.5,211.8-133.6
			c117.8-34.2,238.3-38.4,359.7-25.7c87.8,9.2,174,26,255.5,61.8c67.7,29.7,110.3,80.1,126.5,152.8c13.7,61.4,7.8,121.8-8.4,181.6
			c-7.2,26.7-13.5,53-14.3,80.9c-1.9,59.2-9.7,117.6-32.8,172.7c-6.2,14.9-3.4,20.6,11.9,25.8c151.8,51.5,304.5,54.1,458.3,10.1
			c13.7-3.9,14.4-9,7-20.2c-19-29-32.2-60.8-41.6-94.1c-31-109.2-26.7-218,4.1-326.3c23.7-83.1,61.7-158.6,126.3-217.6
			c19.4-17.7,31.2-36.4,39.2-61.5c32.5-101.9,105.3-167.8,201.3-207.1c139.9-57.2,286.5-70.4,435-47
			c144.6,22.7,235.7,110.2,275.1,250.1c31.1,110.8,23.9,223.5,3.4,334.7c-25.9,140.9-108.3,240.9-237.6,301.3
			c-98.8,46.1-203.6,59.3-311.5,50.1c-77.9-6.7-152.5-25-219.7-67c-61.7-38.6-105.5-91.4-121.3-163.2
			c-17.4-78.4-1.3-153.4,30.2-225.9c5.6-12.9,12.6-10.4,21.6-5.6c33.6,17.8,69.7,26.7,107.4,30.4c86,8.4,163.4-31.7,194.2-101.3
			c17.1-38.8,9.4-63.7-26.9-85.1c-38.5-22.7-80.9-32.2-124.9-34.8c-115.5-6.8-210.9,30.1-275.9,130.2c-70,107.7-96.4,227-81,353.1
			c23.3,189.8,118,268.3,276.6,288.6c133.2,17,267.2,21.8,401.2,14.1c96.9-5.6,190.1-27.6,276.8-74.6
			c123.4-67.1,202.2-166.3,225.1-306.2c14.9-91.5,21.9-183.8,28.2-276.3c5-74.4,4.8-148.5-8.1-222.1
			c-23.4-133.8-84.8-249.7-171.5-352.5c-75.9-89.9-169.3-152.1-287.8-171c-82.7-13.2-166.2-14.9-249.7-14.7
			c-144.8,0.4-289.5,1.9-434.3,1.5c-193-0.6-385.8-11.6-578.7-18.4c-212.7-7.5-423.8,7.6-633.3,45.7
			c-82.8,15.1-165.6,31.1-243.8,63.5c-107.9,44.7-171.2,119.3-171.5,243c-0.3,122.5-3.5,245.1-3.4,367.6
			C117,1531.2,116.9,1559.5,116.9,1591.2z M2354.7,1383c28.9,1.5,53.1-2.3,77.5-4.1c5.7-0.4,10.4-2.1,14.3-5.8
			c39.5-37.3,78.9-74.8,118.5-112c5.6-5.2,7.2-9.3-0.5-13.9c-10.3-6.2-19.4-14.6-33.3-11c-30.3,8-60.7,15.7-91.1,23
			c-5.2,1.2-8.1,4.1-10.5,7.8C2405.2,1304.5,2380.9,1342.3,2354.7,1383z M2664.8,1575.7c-16.6-4-29.5-5.6-41.1-10.2
			c-42.4-16.8-78-12.7-107.9,25.9c-15.1,19.4-37.7,32.4-53.3,52c19.2,16.2,38.4,32.5,57.6,48.7c1.2,1,2.3,2,3.4,3
			c4.6,4.4,8.7,4.6,13.7-0.1C2578.5,1656.2,2620.2,1617.4,2664.8,1575.7z M2089.6,1797.2c-1.7-1-3.4-2.1-5.2-3.1
			c-18.7,17.6-36,37-56.3,52.5c-31.4,23.9-43.7,56-51.4,93c-3.8,18.5,9,19.9,17.3,27.1c8.2,7.1,15.4,6.9,23.8-1.2
			c18.7-18,38.2-35.2,57.6-52.5c5.4-4.8,8.7-9.7,9-17.4C2085.9,1862.8,2087.9,1830,2089.6,1797.2z M2215.3,1863.6
			c-39.9,37.3-88.3,62.1-78.4,127c4.8,31.2-0.8,31.9,31.1,35.4c8.8,1,15.9,0,22.7-6.9c11.7-11.9,24.2-23.2,37-34.1
			c7.4-6.3,9.1-13.4,7.3-22.4C2228.7,1931,2222.4,1899.2,2215.3,1863.6z M712.6,1900.3c10.1-34.7,19-65.3,28.1-95.8
			c1.6-5.6,0.5-10.3-2.2-15.2c-19.4-35.3-38.6-70.7-60.5-110.9c-10.8,33.9-20.4,63.3-29.4,92.9c-1,3.2-0.1,7.8,1.5,10.8
			C670.1,1820.4,690.5,1858.6,712.6,1900.3z M781.1,1868.1c-10.1,34.8-18.5,64.9-27.6,94.8c-2.2,7.3-1.2,13.1,2.3,19.5
			c12,22.1,23.8,44.4,35.5,66.7c3.5,6.7,5.9,11,15.4,7c25.4-10.6,45.2-55.7,32.6-80.3C821.7,1941.3,802.5,1907.5,781.1,1868.1z
			 M2588,1823.4c-1.6-1.7-3.6-3.8-5.6-6c-44.2-46.2-44.5-46.2-90.9-1.9c-3.3,3.2-6.5,6.4-9.9,9.5c-41.4,38.1-41.2,37.9-10.4,85.3
			c5.4,8.3,8.7,10.4,17,3.2c30.3-26.6,61.2-52.6,91.7-78.9C2583.1,1831.8,2587.9,1829.8,2588,1823.4z M2353.6,1279.9
			c-28.9,7.7-51.6,18.3-74.7,19c-54.7,1.6-72.7,34.1-77.7,81.2c-0.1,0.7-0.5,1.4-0.7,2.2c-3.8,11.2,0.1,15.2,11.9,13.9
			c18.9-2,38-3.3,57-4.3c8.3-0.5,14.4-3.4,18.9-10.5C2308.8,1349.4,2329.4,1317.5,2353.6,1279.9z M1895.5,1795.3
			c-0.9,13.9,1.9,32.9,6.9,51.3c2.6,9.6,2.6,26.8,13,25.9c11.2-1,21.7-13.1,26.1-26.3c1-2.9,1.8-5.8,2.5-8.8
			c6.7-27.4,13.7-54.7,20-82.2c11.3-49.3,10.9-48.6-38.1-60.6c-13.2-3.2-15.7,1.6-18.2,11.9
			C1901,1733.9,1895.7,1761.5,1895.5,1795.3z M2265.9,1824.6c5.9,31.4,11.5,62.9,17.8,94.2c2.1,10.4,7.7,6.4,12.8,1.7
			c16.7-15.6,33.5-31.2,50.2-46.8c25.9-24.2,26.3-24.5,7.4-55.4c-10.2-16.6-15.3-44.7-31.2-47.1c-16.3-2.4-29.1,23.5-44.8,35.4
			C2272.4,1810.9,2265.1,1815.2,2265.9,1824.6z M609.5,1705.6c11.1-33.7,20.2-61.6,29.5-89.5c1.3-3.9,1.3-7.3-0.7-10.9
			c-16.4-30.2-32.7-60.5-49.2-90.7c-1.7-3-3.5-7.3-8.4-6.6c-5.7,0.9-6.4,6.1-7.6,10.3c-4.9,16.9-10,33.7-14,50.7
			c-2.4,10.2-10,20.7-4.8,31.1C571.1,1633.8,589.2,1667,609.5,1705.6z M764.8,1719.1c6.1-21.2,10.8-36.3,14.7-51.7
			c3.6-13.9,14.4-28.7,8.9-41.7c-15.9-37.3-35.1-73.2-56-115.8c-10.6,33.3-18.8,59.4-27.1,85.4c-2,6.1-1.7,11.9,1.5,17.6
			C725.1,1646.3,743.3,1679.8,764.8,1719.1z M2690.8,1628.6c-14.8,13.8-25.9,24.2-36.9,34.6c-11.1,10.5-21.9,21.4-33.3,31.6
			c-51.5,46.1-51.5,46,5.4,85.1c1.9,1.3,3.4,3.3,5.4,4.2c1.8,0.8,5,1.3,6.1,0.3c13.4-12.2,32.9-19.7,38.3-38.1
			C2686.4,1709.7,2693.2,1672.2,2690.8,1628.6z M2323,2025.6c26.3,0.4,51.8-12.6,75.4-34.8c38.2-36,39.3-34.8,8.9-79.1
			c-0.9-1.2-1.4-2.7-2.2-4c-2.9-5-6.3-5.9-10.8-1.6c-30,28.2-60.3,56.2-90,84.7c-8.6,8.2-3.1,18.6-1.1,28.1
			C2304.8,2027.2,2310.8,2027.1,2323,2025.6z M624.1,1854.5c-24,42-29.9,79.6,1,117c8.6,10.4,12.9,24.1,19.5,36.2
			c7.3,13.4,14.9,26.7,24.5,43.8c5.3-17.7,9.7-29.8,12.6-42.3c2.8-12.3,11.1-24.5,4.3-37.6C665.9,1933.1,645.5,1894.9,624.1,1854.5z
			 M2417,1806.4c1.5-1,3.6-2.1,5.2-3.6c20.1-18.7,40.1-37.6,60.3-56.2c7.3-6.7,2.1-10.1-2.7-14.1c-17.7-14.6-35.6-28.8-52.8-43.9
			c-7.3-6.4-11.6-5.8-19,0.3c-42.6,34.8-42.8,34.6-15.4,82.6c5.3,9.3,10.5,18.6,15.9,27.8C2410.4,1802.4,2411.8,1806.3,2417,1806.4z
			 M864.7,1903.5c8.5-31.8,25-61.1,17.9-87.2c-10.4-37.8-33.3-72.1-53.8-114c-8.9,31.3-15.7,55.2-22.6,79c-1.8,6.3-0.9,12.2,2,17.7
			C826.2,1832.5,844.4,1865.9,864.7,1903.5z M2044.3,1300.6c40.1-10,76.1-19,112.1-28c1.5-0.4,3-0.6,4.5-1
			c6.2-1.8,11.1-4.9,12.9-11.6c3.6-13.9,7.5-27.8,10.9-41.8c2.9-12-5.6-10.2-12.2-8.9c-32.9,6.4-65.6,13.3-97.2,24.5
			c-8.7,3.1-14.2,7.7-16.6,16.8C2054.5,1266,2049.9,1281.2,2044.3,1300.6z M670.8,1347.9c17.2,0.2,33.6,0.9,38.6-21.8
			c4.1-18.4,20.2-38.9,15.4-53.3c-5.4-16.3-32.2-19.8-49.1-29.9c-2-1.2-4.4-1.6-6.2-3c-11.3-8.8-15.4-2.2-18.3,8.1
			c-4.9,17.6-10.1,35.1-15.2,52.7C628.6,1325.9,645,1348.1,670.8,1347.9z M2493.8,1535.8c-35.2-8.4-66.1-16-97.2-23.1
			c-10.3-2.3-45.3,22-48.5,32.4c-1.5,5,2.1,6.8,4.8,8.9c18.2,15.1,36.6,29.8,54.6,45c6.6,5.6,11.3,5.1,17.5-0.6
			C2446.6,1578.3,2468.7,1558.6,2493.8,1535.8z M904.3,1727.3c8.6-28.7,27.8-56.5,19.7-84c-10-33.9-30.4-64.7-49.1-102.5
			c-7.3,26.2-12.7,45.8-18.4,65.3c-2.1,7.2-6.2,14-2.2,21.9C871.2,1661.1,887.7,1694.2,904.3,1727.3z M2435.9,1464
			c34.5,8,65.7,15.2,96.8,22.5c6,1.4,11.5,3.7,17.1-1.4c21.6-19.6,43.5-39,70.3-63c-49.2,3.5-91,7.5-132.8,9.2
			C2463.8,1432.2,2450.2,1445.1,2435.9,1464z M938.5,1105c-1.9-2.6-3.2-5.4-5.4-7.3c-17.6-14.7-37.1-26.4-58.5-34.9
			c-4.8-1.9-9.4-1.5-11.4,3.8c-7.7,20.6-15.6,41.2-22.3,62.1c-3,9.2,6.7,11.2,12.1,13.7c17.5,8.1,37.5,32.2,50.4,23.1
			C920.6,1153.4,927.1,1126.2,938.5,1105z M529.3,1675.3c-5.4,19.4-9.3,33.1-12.9,46.9c-2.8,10.8-11.1,21.6-5.6,32.7
			c15.6,31.5,32.6,62.3,51.2,97.7c7.6-23.3,13.3-41.3,19.5-59.3c2.6-7.5,3.4-14.1-0.8-21.7C564.2,1741.6,548.4,1711.2,529.3,1675.3z
			 M1015.6,1534.8c-31,84.9-29.4,125.8,6.2,166.2c11.7-25.3,22.9-50.2,34.8-74.9c3.7-7.7,3.4-14.2-0.9-21.5
			C1042.6,1582.4,1029.9,1559.9,1015.6,1534.8z M515.8,1997.8c6.7-29,25.4-51.3,18-73.5c-10.5-31.4-29.9-59.8-48.3-94.7
			c-6.2,23.2-10.3,40.2-15.2,56.9c-2.6,8.8-6,16.7-0.6,26.1C484.6,1939.1,498.7,1966.1,515.8,1997.8z M2403.5,1201
			c-0.9-8.9-8.9-5.7-13.7-5.7c-35.1-0.2-70.3-0.8-105.3,0.8c-38.8,1.8-40.5,4.8-47.3,42.3c-2.3,12.5,3.2,13.2,12,11
			c46.4-11.7,92.7-23.8,139.1-35.3C2395.6,1212.2,2400.8,1209,2403.5,1201z M2185.1,1704.3c-2-1.4-4-2.8-6-4.1
			c-10,11.3-26.6,21.5-28.6,34.1c-5.9,36.8-7.3,74.5-6,116.1c19.5-17.3,35.3-31.4,51.2-45.4c4.9-4.3,7.6-8.7,6.2-15.8
			C2196,1760.9,2190.7,1732.6,2185.1,1704.3z M385.6,1974.3c7.3-24.2,21.5-46,15-65.7c-10-30.1-29-57.2-45.9-89
			c-7.5,23-13.4,41-19.3,59c-2.4,7.3-5,14.5-0.1,21.8C351.4,1924.1,367.5,1947.7,385.6,1974.3z M694.6,1117.2
			c-5.1,1.5-5.9,5.9-7.5,10.1c-18.5,47.7-18.6,47.6,25.9,71.5c35.4,19,34.7,18.7,49.1-18.6c5.9-15.3,5.4-24.2-11.4-31.3
			c-15.3-6.5-29.1-16.4-43.6-24.8C703.1,1121.8,699.1,1119.6,694.6,1117.2z M425.7,1831.7c5.2-17.2,9.9-29,12.2-41.3
			c2.3-12.4,12.7-24.4,6.4-37.3c-12.5-25.6-26.5-50.3-42.2-79.6c-6.9,20-12.7,34.8-16.8,49.9c-2.2,8.4-9.4,16.3-4.1,26.1
			C395.5,1775.5,409.4,1801.4,425.7,1831.7z M2614.2,1291.8c-26.4,25.1-52.4,49.9-83.3,79.4c43.2-2.8,78.8-5.2,114.4-7.3
			c11.3-0.7,15.4-4.2,9-15.3C2643.1,1328.8,2632,1308.9,2614.2,1291.8z M1149.3,1564.1c-27.7,50.6-25.8,64.2,16.7,113.8
			c10.6-15.3,20.6-30.4,31.3-45.1c5.4-7.4,4.9-13.4,0.1-20.8C1184.7,1592.6,1169.2,1576.4,1149.3,1564.1z M469.2,1678.2
			c6.4-22.6,10.1-40.6,16.6-57.6c10.8-28.4-13.5-44.8-21-66.8c-1.4-4.1-6.2-2-10-0.7c-17.6,5.7-32.6,35.6-24.5,52.1
			C441.6,1628.4,454.5,1650.8,469.2,1678.2z M603.6,1211.7c-0.4-7.5-36.4-29.6-42.1-26.1c-2.1,1.3-3,4.9-3.8,7.7
			c-6.5,21-13.1,41.9-19,63.1c-2.1,7.6,31.8,36.4,39.2,33.8c1.1-0.4,2.4-1.8,2.7-3C588.4,1261.9,596.1,1236.5,603.6,1211.7z
			 M632.5,2105.8c-20.2-38.1-37.9-71.4-57.5-108.3c-6.4,19.1-11.4,33.4-16,47.8c-11,34.1,7.3,60.2,42.2,60.4
			C610.2,2105.8,619.3,2105.8,632.5,2105.8z M507.4,1162.3c-0.2-1.8,0.5-5-0.7-6.1c-12.1-10.6-26.8-17.1-41.3-23.5c-4.5-2-6,3.7-7,7
			c-5.3,17.5-10.7,34.9-15.2,52.6c-2.3,9.1,33.6,40,42.1,36.7c1.6-0.6,2.9-3.2,3.5-5.1C495.1,1203.5,501.2,1183.1,507.4,1162.3z
			 M2152.5,1343.1c2.2-13.1-7-11.3-12.9-9.9c-35.5,8.6-70.8,18.1-106.3,27c-5,1.2-8.8,2.6-8.8,8.2c0,7,5.9,5.7,9.9,5.9
			c31.3,1.8,62.4,5.4,92.9,12.9c5.9,1.5,12.7,3.2,15.1-5.2C2146.2,1368.9,2149.4,1355.5,2152.5,1343.1z M354.6,1282.6
			c2.5-6.8,4.5-11.7,6.1-16.6c12.9-39.9,11.8-38.5-22.1-63.8c-18.7-14-24.6-6.3-28,10.5c-2.3,11.4-16.3,23.1-2.2,34.8
			C322.8,1259.6,338.3,1270.3,354.6,1282.6z M2612.6,1505.1c26.7,6.1,48.8,10.9,70.8,16.3c8.5,2.1,12.6,0.8,12.2-9.2
			c-0.9-23.5-3.4-46.7-10.3-72.3C2661.1,1461.6,2638.7,1481.6,2612.6,1505.1z M2251.9,1751.3c45.4-33,45.3-33,20.5-77.1
			c-3.4-6-5.9-12.7-10.1-17.9c-4.6-5.7-4.8-18.9-15.6-15c-9.7,3.5-13.7,12.8-11.2,24.6C2241.4,1693.4,2246.1,1721.1,2251.9,1751.3z
			 M825.4,1191.4c-6-0.6-7.4,1.8-9.3,4.4c-20.5,29-16.1,48.9,14.4,64.9c1.3,0.7,2.6,1.8,4,2.2c6.6,1.5,14,12.5,19.6,2.7
			c8-14,25.6-31.8,17.9-43.5C862.4,1207.1,840.2,1200.4,825.4,1191.4z M466.8,1298.5c0.9-4.6,2.1-9.4-2.6-12.5
			c-13.2-8.8-25.3-23.5-40.4-23.4c-7.6,0.1-8.3,20.5-12.4,31.6c-1.5,4.3-2.6,8.7-4.1,12.9c-3.3,9.1-0.2,15,7.3,21.3
			c35,29.4,34.8,29.6,47.7-14.7C463.8,1308.7,465.3,1303.6,466.8,1298.5z M981.2,1288.5c0-6.5-42.7-36-50.7-36.3
			c-3.5-0.1-26.8,37.3-26.5,42.6c0.2,3.9,50.7,35.2,55,32.5C973.6,1318.4,972.5,1300,981.2,1288.5z M759.9,1047.8
			c-9.9,0-19.9-0.6-29.7,0.2c-6.9,0.6-16.8-4.8-20,5c-3.2,9.9,7.4,11.8,13.4,15.4c15.6,9.4,32.2,17.3,47.4,27.5
			c13.8,9.2,19.8,6.8,25.2-9c13.6-39.4,14.3-39.1-27.2-39.1C766,1047.8,762.9,1047.8,759.9,1047.8z M596.6,1062.7
			c-3.5,10.8-7.2,21.3-10.4,32c-10.3,34.3-10.3,34.4,23.6,49.2c1.4,0.6,2.9,1.1,4.1,2c5.4,3.8,7.3,1,10-3.8
			C647.5,1099.9,642.2,1083.6,596.6,1062.7z M443.6,1983.7c-3.5,11.2-4.4,17.3-7.2,22.4c-17.3,31.2,4.4,51.6,20.9,72.3
			c5.9,7.5,18.6,14.3,27.9,6.8c8.5-6.8,4.2-17.9-0.9-27.1C471.3,2035,458.8,2011.7,443.6,1983.7z M321.4,1390
			c21.6-50.1,18.4-57.9-33.2-83.2C275.4,1371.7,273.2,1357.7,321.4,1390z M1097.2,1678.4c-3.4,4-4.7,5-5.3,6.3
			c-4.8,10.4-9.4,20.8-14.3,31.2c-13,27.6-13.1,27.7,15.1,36.7c7.8,2.5,16.2,11.2,23.9-1.1c6.3-10.2,15.3-18.6,4.5-32.2
			C1111.9,1707.6,1105.8,1693.4,1097.2,1678.4z M2304.5,1588.5c-9.7,3.5-10.8,9-6,17.3c8.9,15.2,17.5,30.4,26.1,45.8
			c13.8,24.7,12.9,23.7,35.3,5.6c13.6-11,10.5-16.4-1.3-25.1c-14.2-10.4-27.2-22.3-40.8-33.5
			C2313.8,1595.2,2309.5,1592.1,2304.5,1588.5z M980.2,1149.7c-3.1,4.9-5.3,7.9-7.1,11.2c-22.2,38.9-22.3,39,17.5,60.1
			c5.3,2.8,11.2,10.7,17.5,4c6.4-6.8,9.1-15.9,4-25.3C1003,1183.1,994.7,1166,980.2,1149.7z M386,1377.8
			c-4.4,14.5-6.9,26.5-11.8,37.6c-5.6,12.9,2.2,18.4,10.9,23.5c6.7,3.9,42.7-13,45.2-20.4c2.4-6.9-2.8-9.7-6.9-12.8
			C412,1397,400.3,1388.5,386,1377.8z M2086.4,1705.3c-52.2-1.1-68.6,15-63.8,72.4C2046,1751.1,2067.3,1727,2086.4,1705.3z
			 M519.4,1322.6c-7.5,22-14.8,41.9-17.7,64.8c17-6,32.2-10.6,46.8-16.6c14.3-5.8,16-17.8,4-26.5
			C542.4,1336.9,531.4,1330.4,519.4,1322.6z M262,1506.5c31.4-3.9,34.6-26.9,40.2-48.1c4-15.2-10.9-16-17.7-22.8
			c-8.7-8.7-14.1-6.7-15.4,6.1C267.1,1462.7,264.5,1483.8,262,1506.5z M409.3,1106.9c-2.2-4.1-4.1-10.5-12.2-5.6
			c-7.8,4.7-15.2,10.2-22.3,16.1c-28.2,23.2-26.8,31.4,7.4,45.9c4,1.7,8,5.7,10.3-2C397.8,1143.9,403.3,1126.5,409.3,1106.9z
			 M966.3,1733.8c-2.2,32-29.3,61.4-8.2,100.7c6.1-17.1,7.7-32,15.6-41.8C991.6,1770.5,983.5,1752.6,966.3,1733.8z M786.9,1343.1
			c21.3,6.8,36.5-2.5,34.7-17.5c-1.8-15.9-24.1-22.8-37.5-23.5c-14.9-0.7-15.6,20.8-17.1,32.2
			C764.8,1352.2,783.1,1339.6,786.9,1343.1z M947.2,1557.8c21.3-53.8,17.5-61.3-28.6-58.3C927.9,1518.4,936.8,1536.6,947.2,1557.8z
			 M535.7,1056.3c-15.6,2.6-31.1,4.9-46.5,8c-7.6,1.6-14.7,6.8-4.8,13.1c12.5,7.9,26.1,20.8,39.9,17.9c9.2-1.9,8.5-20.9,12.1-32.3
			C536.7,1061.8,536.1,1060.3,535.7,1056.3z M784.7,1488.6c10,19.8,18.8,37.1,28,55.3c5.5-7.3,6.2-14.1,8-20.7
			C831.6,1483.7,831.8,1483.8,784.7,1488.6z M1930.8,1326.7c48.5-4.5,57.5-12.4,56.7-49.5
			C1966.4,1291.1,1946.9,1305.9,1930.8,1326.7z M1219.7,1774.8c0.1-27.5,6.2-48.8,1.8-73.6
			C1192.6,1735.4,1192.6,1735.4,1219.7,1774.8z M1045.1,1334c-0.8-8.5,2.6-18.3-8.3-19.6c-9.2-1.2-8.3,8.9-11.2,14.2
			c-3.3,5.9-5.3,12.5-8.7,18.4c-7.1,12.5,4.2,13.7,10.6,17.2c9.8,5.3,11.4-2.7,13.1-9.3C1042.4,1347.6,1043.8,1340.1,1045.1,1334z
			 M908.8,1964.6c26.5-27.4,30.8-44.5,15.2-61.7C919,1923.4,914.2,1942.8,908.8,1964.6z M645,1495.2c5.2,13.6,9.1,26,21.9,35.7
			c3.6-13.4,11.7-26.9,8.2-35.8C672,1487.1,656.5,1494.4,645,1495.2z M717.7,2089.9c30-7.8,30-7.8,9.9-33.8
			C724.3,2067.2,721.5,2076.9,717.7,2089.9z M2317.7,1493.8c-13.5-0.2-23.4-10.9-32.5-0.9c-4.2,4.7,4.3,8.2,7.9,11.4
			C2304.1,1514.2,2308.3,1503.3,2317.7,1493.8z"/>
		<path class="st0" d="M1536,992c88.4,0.8,158.4,71.7,157.4,159.6c-1,87.4-73.8,158.9-160.7,157.9c-88.1-0.9-158.2-72-157.9-160.1
			C1375,1059.6,1445,991.2,1536,992z M1431.5,1148.7c-0.2,59,44.2,104.2,102.2,103.9c56.9-0.3,102.3-44.9,103.4-101.4
			c1.1-57.1-45-103.4-103.2-103.4C1475.8,1047.7,1431.7,1091.2,1431.5,1148.7z"/>
		<path class="st0" d="M1356.7,1613.3c-0.5-55.3,42.6-100,97.5-101.2c54.2-1.1,100.4,43.3,101.4,97.6c1,56.3-42.8,101.5-98.9,102
			C1401.6,1712.1,1357.2,1668.5,1356.7,1613.3z"/>
	</g>
</g>
</svg>
