<?xml version="1.0" encoding="utf-8"?>
<!-- Generator: Adobe Illustrator 23.0.0, SVG Export Plug-In . SVG Version: 6.00 Build 0)  -->
<svg version="1.0" xmlns="http://www.w3.org/2000/svg" xmlns:xlink="http://www.w3.org/1999/xlink" x="0px" y="0px"
	 viewBox="0 0 3000 3000" style="enable-background:new 0 0 3000 3000;" xml:space="preserve">
<style type="text/css">
	.st0{stroke:#000000;stroke-width:10;stroke-miterlimit:10;}
</style>
<g id="Layer_1">
</g>
<g id="Layer_2">
	<g>
		<path class="st0" d="M1895.2,2393.1c-32.3,71.4-81.3,127-143.5,170.5c-142.2,99.3-291.9,100.6-445.6,30.5
			c-68.7-31.4-127.8-76.8-179.3-132c-6.9-7.4-13.5-14.9-22-24.4c-79.7,131.7-211.6,163-345.9,189.5
			c-163.5,32.3-319.7,15.4-462.8-75.2c-147.5-93.3-235.7-227.5-254.7-400.9c-15.4-140.6,42.8-254.9,148.5-346.3
			c8.1-7,17.8-9,27.4-12.4c80.9-28.9,151.8-70.8,194.5-149.7c28.7-53,32.9-110.5,32-169c-1.5-110.6-11.2-221-1.4-331.7
			c8.5-95.6,20.8-190.4,45.1-283.4c34.1-130.5,112.5-228.4,222.2-303c131.7-89.6,280.3-138.1,433.8-173
			c208.6-47.5,420.6-64.7,634.1-64.5c113.9,0.1,227.9,0.9,341.5,13.2c354.9,38.7,577.6,236.6,679.6,571.8
			c73.7,242,98.7,490.9,68.5,743.5c-4.1,34.1,7.2,60,22.7,87.7c151.3,270.9,56.7,628.9-207.9,781c-158.8,91.3-326.7,91.6-497.6,39.4
			c-98.1-30-186-79.6-266.1-143.4C1911.2,2405.5,1904,2400,1895.2,2393.1z M1437.6,1102.8c55.2,48.1,87.9,102.3,99.5,168.4
			c7.6,43.1,6.5,86.3,1.7,129.6c-1.8,15.9,2.9,21,19.6,19.2c44.2-4.9,88.4-2,132.5,2.7c34.6,3.7,65.9,14.7,84.4,45.5
			c35.2,58.5,46.4,124.2,16.8,184.7c-17.1,35-17.7,60.2-7.9,95c25.1,89.1-13.1,162.2-91.2,181.9c-47.9,12.1-96.7,13.7-145.6,6.4
			c-34.6-5.2-35.7-6-35.4,30.4c2,202.9,5.1,405.7,6.7,608.6c0.2,23.7,12.3,22.1,27.9,20.1c112.2-14.1,200.7-69,269-157.7
			c31.5-40.9,52.8-86.7,54.7-139.3c3.1-83.9,2.8-167.8-4-251.6c-4.6-57-8.5-114-14.1-170.9c-2.4-24.7,16.4-16.8,27.4-20.1
			c12.4-3.8,17.5,1.5,18.8,15.2c11.7,123.1,19.9,246.2,21.2,369.9c0.4,38.2-22.2,80.6,5,114c24.7,30.3,60.7,50.5,94.2,71.9
			c3.1,2,6.2,4,9.4,5.9c163.3,97.2,336.6,140.7,524.1,88.2c297.7-83.4,454.4-453.2,309.9-736c-31.3-61.2-43.6-117-36.7-186.6
			c22.8-230.7-5-458.3-70.4-680.5c-45.1-153.3-122.3-288-249.1-390.1c-141-113.5-307.4-149.1-482.7-157.6
			c-14.5-0.7-19.1,7.8-24.3,17.8c-103.4,197-150.2,406.5-139.9,628.8c0.7,15.6,5.1,20.6,20.6,20.5c38.7,0,77.5,0.5,116.1,2.8
			c127,7.4,205,72,240.1,195c20.4,71.3,18.3,144.3,18.8,216.9c0.9,161.4,19.9,319.8,70.6,473.7c23.2,70.3,71.2,113.3,143.3,127
			c66,12.5,126-4.6,179.4-45.2c37.4-28.5,65.3-65.1,85.8-106.8c12.1-24.5,26.8-6.9,39.3-4.1c19.2,4.2,4.6,16,1.6,22.6
			c-38.4,82.4-99.3,140.9-185.9,170.8c-124,42.7-259.2-18.3-302.5-136.8c-8.9-24.2-16.3-48.9-23.2-73.8
			c-41.7-150.4-56.3-304.1-54.9-459.7c0.6-64.6-1-129.1-22.7-191.2c-32.6-93.6-98.5-142.2-197.6-143c-88.5-0.7-177.1-1.4-265.6,0.5
			C1629.3,1088,1536.4,1092.8,1437.6,1102.8z M192.1,1868c-6.8,5.9-10.5,8.4-13.4,11.6c-77.9,87.6-111.4,189.7-86.4,304.5
			c40.5,186.2,152.7,315.1,332.3,378.8c186.6,66.1,367.2,31.2,540.5-51c70.8-33.6,109.3-96.4,125.2-172.9
			c19.8-96.1,25.9-193.5,27.6-291.3c1-53.6-1.8-107-6.2-160.2c-2-23.5,15.4-17.7,27.3-20.9c13.1-3.5,17.4,2,18.5,15.3
			c12.4,157.9,9.8,315.2-23.7,470.4c-6.5,30.1-3.5,51.1,19.1,70.2c4.2,3.5,7.4,8.2,11.3,12.2c79.3,81.2,172.2,137.7,285.7,156.9
			c15.8,2.7,22.9,1.8,22.7-17.8c-1.5-144.8,1.9-289.6-4.7-434.4c-5.7-124.5,0-248.9,5.6-373.3c6.3-140,15.5-279.8,21.9-419.8
			c4.4-95.5-29.5-173.1-113.1-225c-10.2-6.4-20.1-11.8-33.3-10.7c-140.1,11.6-262.7,61.8-361.4,164.2c-47.2,49-81.8,104.9-85.3,175
			c-5.9,118.8-5.8,237.8-16.6,356.3c-8,87.6-19.3,172.5-70.2,249.3C703,2224.7,470.6,2262.2,315,2132.6
			C234,2065.2,198.1,1976.3,192.1,1868z M1346.3,391.6c-47.8,8.4-92.1,15.5-136.2,24.1c-143.4,27.9-282.9,68.1-411.5,139.4
			c-121.3,67.2-219,156.2-260.3,294.4c-19.6,65.5-31,132.6-40.3,200.2c-18.6,136-13.7,272.3-8.2,408.7c2.8,68.7-2.2,136.4-34,199.4
			c-41.7,82.7-111.1,133.4-194.8,167.1c-12.5,5.1-23,8.9-22.9,26c0.5,95.8,28.6,180.2,103.3,243.7c177.2,150.5,434.6,45.3,482-175.1
			c27.1-126.4,28.3-256.4,28.2-385.5c-0.1-102.5,14.9-199.1,88.8-276.7c78.3-82.2,168.9-145.9,281.6-170.9c27.2-6,29.7-17.4,27.5-41
			c-13.7-143.2-4.1-285.1,26.4-425.6C1292.6,543.5,1316.1,469,1346.3,391.6z M1506,377.5c-33.7-3-64.4,5.4-95.5,6.8
			c-11.3,0.5-14.6,9.3-18.2,18.1c-84.9,208.6-117.3,424.9-97.2,649.2c1.3,15.1,7.4,18.6,21.1,16.7c26.5-3.7,53-8,79.6-8.9
			c19.7-0.7,21.7-9.1,20-25.7c-16-164.6-3-326.9,37.6-487.3C1467.8,489.6,1487.8,434.5,1506,377.5z M1956.7,364.8
			c-35.2,0-66.4,0.9-97.5-0.4c-15.7-0.7-22.4,5.4-28.2,19.3c-29.2,69.8-53.9,141-74.7,213.6c-39.1,136.3-58.5,275.4-63.5,416.9
			c-0.8,23.1,6.6,28.4,27.7,26.3c22.9-2.3,46.1-2.8,69.1-2.2c18.8,0.5,24.4-4.7,23.5-25.2c-7.9-172.3,18.7-339.2,79.3-500.9
			C1910.6,463.4,1933.7,416.6,1956.7,364.8z M1529.2,1579.5c0,0-0.1,0-0.1,0c-1.7,30.3-2.9,60.6-5.2,90.8
			c-0.9,12.4,1.3,18.6,15.7,18.4c57.1-1.1,113.8-5.7,169.5-18.8c30.7-7.3,47-28.5,50-58.6c3.1-31.2,0.9-62.4-9.3-92.6
			c-8.9-26.3-24.4-44.8-53.7-48.6c-49.4-6.4-98.8-6-148.4-3.1c-13.7,0.8-13.5,9.5-13.9,18.9
			C1532.2,1517.1,1530.7,1548.3,1529.2,1579.5z M1559.2,827.6c-28.5,0-57.1,0.3-85.6-0.1c-12.7-0.2-17.9,4.4-18,17.7
			c-0.2,63.5-1.3,127,5.5,190.3c1.4,12.6,5.3,18,18.6,17c50.5-3.6,101-6.8,151.5-9.5c12.4-0.7,15.4-6.9,15.6-17.6
			c1-59.8,4.8-119.4,13.1-178.7c2.1-14.5-3.3-19.7-18-19.3C1614.5,828.1,1586.8,827.5,1559.2,827.6z M1516.4,1812.2
			c0,13.8,1.4,28.7-0.3,43.2c-2.6,20.7,5.8,29,25.6,32.6c39.4,7.1,78.6,8.2,117.8,1.1c69.8-12.6,95.2-49,83.3-118.9
			c-2.1-12.6-7.2-24.6-10.2-37.1c-3.9-16.3-13.1-18.9-28.5-15.2c-35.8,8.4-72.3,12.3-109,14.9c-23.6,1.7-56-9.1-68.5,6.6
			C1513.5,1755.5,1519,1786.6,1516.4,1812.2z M1787,365.8c-46.7,0-91.7-0.5-136.6,0.1c-95.7,1.4-97.8,3.3-123.7,95.5
			c-0.2,0.9-0.5,1.8-0.9,2.6c-6.5,13.4-1.7,17.5,12.4,17.4c63.5-0.5,127.1-0.3,190.6-0.1c8.9,0,15.9-1.2,19.5-11.1
			C1760.7,435.8,1773.7,401.6,1787,365.8z M1563.4,780.8c28.6,0,57.2-0.5,85.7,0.2c13,0.3,20.2-2.7,22.2-17.3
			c3.4-24.6,8.8-48.9,13.7-73.3c1.6-7.8,3.8-14.2-8.2-14.8c-62.5-3.4-125.1-7.1-187.6-11c-10.7-0.7-14.9,4.6-16.2,14.1
			c-3.8,28.3-7.3,56.6-11.6,84.8c-2,13.5,2.6,17.9,16.2,17.5C1506.3,780.2,1534.9,780.8,1563.4,780.8z M1618.7,526.6
			c-14.7,0-29.4,0-44.1,0c-70.7,0-70.7,0-85.8,69.6c-0.4,1.8-0.4,3.7-1.1,5.4c-5.5,13.7,0.4,17.7,13.7,18.2
			c40.4,1.6,80.7,5.7,121.1,5.4c25.9-0.2,58.1,17.6,75.8-1.9c16-17.6,15-49.8,24-74.7c7.4-20.3-0.5-22.9-18-22.3
			C1675.7,527.3,1647.2,526.6,1618.7,526.6z"/>
	</g>
</g>
</svg>
