<?xml version="1.0" encoding="utf-8"?>
<!-- Generator: Adobe Illustrator 23.0.0, SVG Export Plug-In . SVG Version: 6.00 Build 0)  -->
<svg version="1.0" xmlns="http://www.w3.org/2000/svg" xmlns:xlink="http://www.w3.org/1999/xlink" x="0px" y="0px"
	 viewBox="0 0 3000 3000" style="enable-background:new 0 0 3000 3000;" xml:space="preserve">
<style type="text/css">
	.st0{opacity:0.82;}
	.st1{stroke:#000000;stroke-width:10;stroke-miterlimit:10;}
</style>
<g id="Layer_1" class="st0">
</g>
<g id="Layer_2">
	<g>
		<path class="st1" d="M802.1,1058.4c19.8-36.3,40.7-69.1,64.9-99.8c67-85.2,156.4-132,261.6-149.7c98.1-16.5,196.9-28.5,296.7-26.2
			c62.9,1.4,123.9,12.5,181.3,40.1c68.8,33,109.7,90.3,142.3,156.4c46.7,94.6,69.2,194.7,71.8,299.6c2.9,117.6-10.6,234.2-26,350.4
			c-17.8,134.5-95.4,228.3-210.8,292c-123,67.8-254.7,92.7-395,73.7c-80.1-10.8-157.8-27.4-230.6-63.3
			c-39-19.2-75.5-42.1-107.9-71.1c-23.7-21.2-42.3-45.5-36.1-80.4c1-5.7-0.9-9.2-5.4-11.9c-18.1-10.9-29.6-28-42.1-46.4
			c-6.5,9.8-5.9,20.3-7.7,29.7c-33.9,175.5-173,300.1-351.2,316.4c-61.8,5.6-121.6,0.1-180.2-19.8
			c-103.2-35-158.6-109.3-177.9-214.5C30.4,1727,33.4,1619,30,1511.5c-3.6-116,0.4-231.8,24.2-346.2
			c24.8-119.4,82.7-218.8,179-293.9c179.8-140.2,492.2-73.4,564.5,175.1C798.7,1049.6,800,1052.6,802.1,1058.4z M940.7,919.4
			c-46.3,40.9-80.9,86.5-107.3,137.9c-88.1,171.5-119.9,354.5-106.8,546c1.7,25.2,6.2,50.5,16.9,73.8c8.8,19.3,16.1,21,32.7,7.3
			c24.1-19.9,41.5-45.6,57.8-71.8c18.8-30.3,36.7-61.1,54.2-92.1c5.1-9,9.9-9.8,17.8-4.8c5.8,3.6,12.7,5.5,7,15.1
			c-34,57-63.1,117.4-110.5,165.3c-9.7,9.7-12,16.9-2.7,27c4.6,5,9.1,10.2,13.6,15.3c8,8.9,14.6,9.7,22.8-1
			c14.9-19.3,35-32.6,56.5-43.7c6.8-3.5,13.7-10.6,19.6,2.5c4.6,10.2,4.2,15.8-6.8,20.7c-17.7,7.9-33.2,19.4-46.3,33.6
			c-26.4,28.5-27,53.4-0.1,81.2c30.8,31.9,68,55.5,107.8,74.5c129.2,61.8,265.8,81.3,406.3,60.4c107.3-16,205.7-57.2,286.9-132.4
			c29.6-27.4,54.6-58.7,76.2-100.1c-7.5,5.5-10.3,7.1-12.6,9.2c-66.2,60.6-143.9,94.2-233.6,99.6c-50.7,3.1-100.9,1.7-143-31.8
			c-44.5-35.4-51.9-85.4-43.4-136.4c22.2-133.3,86.8-241.6,199.9-318c74.4-50.3,158.7-72.9,247-83.5c14.2-1.7,34.6,7.6,41.3-6.9
			c5.8-12.6-0.8-30.8-1.2-46.5c-0.3-13.3-6.9-18.7-19.7-21c-79.6-14.5-152.3,0.9-218.6,47.8c-24.6,17.4-44.3,40.2-69.8,58
			c23.4-68.8,46.8-137.5,71.4-209.7c-13.7,4.6-23.7,8.2-34,11.3c-22.3,6.7-44.5,14.6-68.2,14c-23.9-0.6-33.6-17.7-20.8-37.6
			c8.5-13.2,19.6-24.7,28.8-37.5c15.6-21.8,31.3-43.8,39.1-72.4c-8.4,2.2-14.3,3.7-20.1,5.3c-99.6,28.1-197.4,61.3-295.4,94.5
			c-36.7,12.5-72.8,27.9-112.1,30.9c-38.9,2.9-59.5-20.2-52.1-58.6c3.1-15.9,9.1-31.2,13.7-46.8
			C959.2,997.6,943.8,985.3,940.7,919.4z M337.8,1490.4c65.7-45.8,127.9-89.2,190.1-132.6c4.1-2.9,6.3-7,7.9-11.7
			c33.7-98.8,107.1-154.3,202.6-185.7c23.4-7.7,47.6-45.9,42.7-70.2c-25.3-126.4-100.1-208.5-222.1-248.9
			c-14.7-4.9-22.1-0.1-29.9,11.8c-49.1,75.5-65.1,157.4-48.8,245.6c2.2,11.9,1.4,16.4-11.3,19.3c-15.7,3.6-13.1-7.8-15-15.2
			c-2.2-8.6-3-17.6-4.1-26.4c-2-14.8,4.9-34.3-6-43.2c-10.6-8.7-28.9,1.6-43.9,0.1c-10.9-1.1-14.5,4.4-14.9,14.3
			c-0.6,15.8-2.3,31.5-2.6,47.2c-0.3,13-7.7,13.1-17.8,12.9c-12.9-0.3-9.8-8.8-9.4-15.8c5.5-79.3,10.7-158.7,17.1-238
			c1.3-16.3-0.7-20.2-17.9-15.1c-112.1,33.4-181.9,113.6-234.2,212c-32.3,60.7-43.7,128.1-52.9,195.5c-3.8,27.7-5.7,55.7-8.9,88.4
			c10.2-8.9,15.8-13.8,21.5-18.7c63.5-55.6,137.3-89.7,219.9-105.1c13.4-2.5,23.2-2.8,24.5,16.1c1.7,25.9,7.1,51.5,10.3,77.3
			C341.7,1364.7,339.2,1425.1,337.8,1490.4z M1793.3,1362c0.7-15.8,0.9-31.6,2.3-47.2c1.2-13.5-3.3-17.9-17.2-16.9
			c-55.6,4.1-110.1,13.2-162.6,32.5c-164.5,60.4-256.7,181.1-286.4,350.7c-14.1,80.4,28.2,129.9,109.3,135.3
			c116.3,7.8,213.6-32.5,292.6-117.6c18.2-19.6,33.6-39.9,37.1-68.9C1779.3,1540.9,1789,1451.7,1793.3,1362z M523.6,1394.1
			c-6.6,4.1-10.1,6-13.4,8.2c-55.1,38.4-110,77-165.4,114.9c-9.6,6.5-10.5,14.3-10.9,24.3c-6.6,163.5-82.4,263.1-237.6,311.6
			c-11.2,3.5-12.9,7-9.8,18.4c26.9,100.6,109.7,145.7,194.6,164.5c11.7,2.6,12.5-5.6,15-12.1c16.1-41.3,33.2-82.4,45.4-125.1
			c2.5-8.7,6.1-16.7,11.1-24.2c15.1-22.4,43.5-32.3,68.8-24.1c22.6,7.3,31.7,23.1,32.2,53.4c0.5,26.1-5.5,50-19.9,72
			c-9.7,14.7-12.8,31.4-14.5,48.7c-1.3,13.2,4.1,15.3,15.3,13.1c70.6-13.9,134.6-41.6,188.4-90.4c34.7-31.5,63-67.8,81.9-114.9
			c-17.6,0-32.6,0.9-47.5-0.1c-74.2-5.1-129-49.5-141.1-115.7c-2.8-15.2-6-16.2-18.6-8.8c-46.6,27.5-94.3,33.8-144.3,6.9
			c-17.2-9.3-24.4-21-20.9-39.6c6.8-35.9,24.3-65.3,54.1-86.7c32.3-23.2,68.6-36.7,107.4-44.3c10.8-2.1,20.8-3.4,20.9-19.2
			C515.2,1482.4,518.4,1440.1,523.6,1394.1z M58.4,1560.7c0,2.7-0.1,5.5,0,8.2c4,82.1,0.5,164.6,15.1,246.1
			c2.3,12.7,6.1,16.3,18.5,12.6c106.6-32,182.8-96,204-208.7c23-122,23.9-245.3,4.9-368.4c-2.3-14.8-10.6-10.6-19.3-8.6
			c-82.3,19.1-152.6,59.3-211.9,119.4c-9.4,9.5-13.2,19.6-13.8,32.7C53.4,1449.7,57.9,1505.2,58.4,1560.7z M750.7,1182.9
			c-91.8,32.9-161.6,81.4-190.8,174.9c-13.9,44.5-15.7,90.3-17.6,136.1c-2.7,68.4-10.6,136.8-2.7,205.3
			c4.2,36.1,19.1,65.4,50.8,84.8c36.1,22.1,76.1,24.7,116.9,23.6c7.8-0.2,10.8-4.8,12.9-10.9c7.9-23.4,12.6-47.6,17-71.8
			c1-5.4,0.9-10.6-3.6-15.3c-15.9-16.5-21.7-37.8-26-59.4c-17.6-89.2-12.4-178.7-1.1-268.1C715,1316.3,729.9,1251.8,750.7,1182.9z
			 M1567.4,835.1c-7.5-2.7-14.3-5.4-21.2-7.6c-44.1-14.1-89.9-16.6-135.7-19.4c-56.4-3.5-108.6,6.1-153.4,43.4
			c-9.4,7.8-20.7,13.3-30.7,20.5c-27.1,19.2-54.7,37.8-79.6,60.9C1245.9,992.7,1474,939.7,1567.4,835.1z M1457.6,1091.5
			c2.5,1.5,3.1,2.3,3.6,2.2c89.7-20.4,173.7-56.9,258.2-92c6.8-2.8,7.3-6.5,4.1-12.8c-22.6-44.8-46.6-88.3-89.1-118.3
			c-34.3-24.2-33.1-23.8-66.5,0c-17.1,12.2-24.8,26.1-27.2,46.6c-6.1,53.5-27.4,101.2-60.1,143.9
			C1472.9,1071.2,1465.3,1081.3,1457.6,1091.5z M1539.4,1219.3c4.4-0.7,5.9-0.5,6.9-1.1c69.5-44.2,144.4-61.4,226-45.2
			c10.2,2,11.8-2,10.1-11c-8.2-43.9-20.8-86.5-37.5-128c-4.3-10.8-9.5-10.6-18.5-6.9c-43.7,17.8-87.5,35.2-131.3,52.8
			c-4.5,1.8-9,3.7-10.8,8.8C1569.5,1131.7,1554.7,1174.8,1539.4,1219.3z M1514.5,908.9c-39.8,21.4-79.5,40.7-121.4,54.7
			c-87.5,29.2-174.5,32.9-260.4-6.3c-8.7-4-15-2.9-24.1,0.6c-42.5,16.4-53.9,53.5-63.4,91.7c-5.2,20.9,3.9,30.1,25.1,27.7
			c19.8-2.2,38.9-7.5,57.8-13.9c118.5-40.4,236.7-81.9,357.8-114.2C1508.6,943.1,1515.8,931.8,1514.5,908.9z M1255.8,820.7
			c-19.8-2.9-35,1.4-50.2,3.2c-73.6,8.9-146.2,21.8-212,59c-22.4,12.6-32.7,46.5-21.6,71.2c8.9,19.9,26.2,24.1,56.8,13.7
			c5.2-1.7,10.4-3.5,15.3-5.7c35.6-16.2,69.2-35.6,99.3-61.1C1177.6,872,1215.2,847.4,1255.8,820.7z M511.7,831
			c-36.4-6.1-69.1-5.4-101.9-3c-6.7,0.5-9.3,3.6-9.8,10.4c-3.7,52.6-7.6,105.3-11.6,157.9c-0.7,9.2,2.6,11.5,11.6,11.3
			c45.2-0.6,45.2-0.4,54.4-44.7c0.6-2.7,1.8-5.2,2.4-7.9C466.4,911,485.8,871.2,511.7,831z M316.9,2043.5c21.9,0,40.4-0.4,58.8,0.2
			c11.8,0.4,16.8-3,17.1-16c0.7-25.7,7.7-49.7,22.4-71.5c11.9-17.7,13.7-38.5,11.9-59.4c-1.5-17.6-14.2-26.1-31.5-21.9
			c-13.1,3.2-22.2,11.9-26.1,24.1C354.4,1946.4,336.4,1992.9,316.9,2043.5z"/>
		<path class="st1" d="M2359,1909.9c56.5,2,106.9-2.5,157-11.4c11.7-2.1,17.5-9.3,23.3-18c79.4-118.4,158.9-236.8,238.7-355
			c4-5.9,5.3-17.3,17.5-12.1c13.2,5.5,14.5,12,6.1,24.5c-72.6,107.3-144.6,215-216.7,322.6c-4.4,6.6-8.7,13.3-15.1,23.2
			c31.4-7.4,57.3-17.8,82.9-28.9c76.1-33.1,144.5-78.2,207-132.6c8.1-7.1,14.3-16.6,25.8-2.4c11.5,14.1-2.7,16.5-8.2,21.4
			c-94.7,82.8-200.9,144.3-323.7,175.2c-1.9,0.5-3.4,2-6.6,4c25.7,30.8,58,49.8,95.5,60.4c19.1,5.4,38.9,8.6,57.6,14.8
			c29.2,9.7,40.6,30.1,31.8,59.3c-19.7,65.3-61.4,115.6-113.3,158c-60.5,49.5-132.5,69.6-208,80.1c-109.4,15.2-219,11.2-328.3,0.6
			c-44.4-4.3-82.1-26.3-114.4-56.2c-37.2-34.5-43.2-81.3-18.6-130c25.1-49.6,66.1-85.2,107.4-120.5c34-29.1,71.7-52.3,116.8-72.6
			c-17.2-6.1-30.3-10.4-43.1-15.3c-85.6-32.9-149.1-86.8-167.5-181.2c-10.9-56.1-1-110.6,19.7-163.2
			c21.9-55.5,54.6-104.3,94.9-148.1c6-6.5,10.4-14.3,20.9-3.8c9.4,9.3,5.3,14.1-1.4,21.5c-55.4,61.1-96.4,129.6-109.6,212.5
			c-7.1,44.5-5.9,46,36.6,37.4c61-12.3,122.9-20.2,183.4-35.2c52.7-13.1,91.8-41.5,109.5-95c3.4-10.4,8.7-20.1,13.1-30.1
			c15.3-35,40.9-58.1,78.7-65.6c40.6-8.1,81.9-10.1,122.9-4.7c74.3,9.7,102.4,50.4,86.1,123.7c-18.9,84.7-64.1,155.2-121.1,218.9
			c-35.3,39.5-74.5,74.9-116.7,106.9C2374.2,1897.5,2368.6,1902.2,2359,1909.9z M2294.4,1906.7c15,3.7,26.9-1.7,38.1-10.9
			c10.6-8.6,22.1-16.2,32.9-24.7c80.7-63.1,152.2-134.4,197.7-228c17.1-35.2,31.8-71.4,31.8-111.7c0-33.2-11.8-48.6-44.2-57.4
			c-42-11.5-84.5-6.4-126.6-2c-35.1,3.7-59.2,23.1-71.7,56.5c-3.1,8.3-7.6,16.1-10.5,24.5c-21.5,62.2-66.7,96.6-129.1,111.7
			c-69.3,16.7-139.9,26.6-209.8,39.7c-13.7,2.6-15.4,7.9-12.4,19.2c11,41.7,31.6,77,65.8,104.1
			C2126.2,1883,2209.6,1897,2294.4,1906.7z M2286.7,2053.6c-2-43.5-9.7-79.3-25.8-113.2c-3-6.3-6-11.9-14.3-12.9
			c-15-2-29.1-3.6-44.1,3c-34,14.9-67.7,30-97.4,52.4c-51.6,38.9-102.1,79.2-132.8,138c-21.7,41.5-13.3,76.1,22.9,105.7
			c45,36.8,97.9,46.8,154,46.5c4.2,0,7.7-1.2,11.4-3.5c57.4-35.9,97.7-85,116.5-150.8c3-10.6,0.9-15.1-11.7-12.9
			c-31.3,5.5-58.9,18.4-81.5,40.5c-9.9,9.7-13.6,1-19.7-3.5c-8.6-6.4-3.9-10.9,1.5-16c26.2-24.7,56.9-42.4,92.4-45.5
			C2283.1,2079.3,2290.5,2070.2,2286.7,2053.6z M2457.7,2030.6c29.8-18.3,58.9-26.4,90.5-16.6c20,6.2,33.3,19.2,34.9,41
			c2.2,30.5-11.2,54.2-33.7,73.7c-6.7,5.8-11.1,5.2-16.6-2.3c-8.1-10.9-2.1-16.2,5.4-23.5c17.3-16.9,25-41.8,16.2-53.4
			c-13.5-17.7-33.1-14.5-51.1-10.7c-30.1,6.4-46.5,27.1-53,56.3c-12.3,55.2-35.6,105-72.4,148.1c-7.8,9.2-15.8,18.2-27.2,31.4
			c34.7-5.2,64.4-9.1,93.9-14.2c113.4-19.6,197.7-79.8,250.7-182.4c23.8-46,19.9-54.4-30.3-64.6c-55.6-11.2-103.6-35.1-140.9-78.5
			c-5.4-6.2-10.8-9.6-19.5-8.2c-15.5,2.6-31.2,4.4-46.9,6.2c-8,0.9-13.4,3.4-10.5,12.7C2455.3,1972.3,2454.9,1999.9,2457.7,2030.6z
			 M2206.3,2270.1c0.7,1.9,1.4,3.8,2.1,5.7c28.8,0,57.5,0,86.3,0c7.9,0,14.5-2.7,20.8-7.4c91.3-68.5,138.7-212.7,105.4-320
			c-2.9-9.4-7.1-12.7-17.1-12.6c-31.5,0.3-63.3,1.2-94.6-1.7c-20.6-2-20.4,2.9-14.7,19.7c33,97.2,20.6,187.7-42.3,270.1
			C2239,2241.1,2222.6,2255.5,2206.3,2270.1z"/>
		<path class="st1" d="M2297,1210.6c-22,0.4-43.5-3.7-65.3-6.8c-17.2-2.5-21.1-13.2-22-27c-1.8-26.6,9.7-47.9,29.9-63.8
			c33.9-26.7,68.9-51.9,103-78.4c8.2-6.4,11.8-2.6,16.1,3.4c4.6,6.3,8.8,11.8-0.6,18.5c-26.7,19.1-53,38.9-79.2,58.7
			c-14.1,10.7-29.4,20.4-38.1,36.8c-9.9,18.7-6.3,26.2,13.9,29.3c120.7,18.6,238.8-43.8,291.8-153.9c3.4-7.2,3.7-18.3,17.9-13
			c10.9,4.1,13.6,8.1,8.5,19c-17.6,37-40.9,69.6-70.9,97.5c-5.8,5.4-8.1,9.5-7.5,20.3c1.9,35.3-2,71-4.7,106.5
			c-0.6,8.2-6.3,15.5-14.1,19.3c-29.3,14.3-48.3,39.7-69.9,62.7c-20.3,21.6-42.3,41.4-73.9,44.8c-25.3,2.7-36.2-8.8-31.1-33.7
			c8.2-39.5,16.8-78.9,25.4-118.3c4.9-22.6,5.1-22.5-19-22C2303.8,1210.6,2300.4,1210.6,2297,1210.6z M2465.8,1160.1
			c-18.4,11.1-34.9,25.1-54,27.4c-49.1,6.1-62,38-67.2,80.3c-3.7,30.1-11.9,59.7-18.4,91.4c27.5-4.6,44.1-20.6,60.2-37.4
			c22.2-23.1,40.9-50,71.3-64.1c5.6-2.6,8-7.6,8-13.3C2465.9,1217.1,2465.8,1189.9,2465.8,1160.1z"/>
		<path class="st1" d="M1931,1348.5c6-242.5,109.6-426.8,326.2-542.9c55.2-29.6,114.5-48.4,176.2-59.3c7.2-1.3,20.1-9.2,21.8,8.3
			c0.9,9.3,0.3,13.9-11.6,16.1c-94.9,17.5-182.6,52.5-259.7,111.3c-123.6,94.2-196.7,218.5-219.3,372.5
			c-10,68.4-10.2,136.6,3.5,204.5c2,9.9,1.7,16.9-10.8,19.5c-14.2,2.9-13.8-6.9-15.5-15.2C1934.4,1425.6,1930.7,1387.4,1931,1348.5z
			"/>
		<path class="st1" d="M2743.5,762.2c52.9,1.9,94.5,26.6,126.4,67.1c35.6,45.3,66.7,93.7,83.1,149.7c2.3,7.8,16.5,18.7-2.9,26.2
			c-21.4,8.3-18.3-9.8-21.5-19.1c-17.8-52.5-45.3-99.7-80.5-142c-49.3-59.2-109.5-70.2-177.9-34.7c-7.4,3.8-13.2,8.7-20-2.3
			c-6.3-10.1-5-14.6,5.2-20.2C2682.9,771.9,2712.3,764.1,2743.5,762.2z"/>
		<path class="st1" d="M1116.4,1801.7c-26-0.8-50.1-7.7-70.7-24.1c-41.7-33-40.6-86.5,2.3-118.9c39.6-29.9,102.5-29.9,142.5,0
			c43.8,32.8,44.2,86.4,1.1,119.9C1172,1793.8,1143.2,1802.7,1116.4,1801.7z"/>
		<path class="st1" d="M1009.7,1267.2c47.2-1.6,95.4,12.8,142.7,32.3c36,14.9,71.8,31.2,111.4,34.2c11,0.8,8.9,7.7,9.3,14.3
			c0.5,7.3-1.4,12.2-10,11.5c-3.4-0.3-7.1,0.5-10.2-0.6c-50.7-17.7-98.5,0.9-146.9,11.7c-16.8,3.7-33.8,7.2-50.9,4.1
			c-36.6-6.7-63.4-26.7-74.4-62.8c-4.6-15-11.3-18.1-24.7-14.6c-6.6,1.7-13.6,2.1-20.1,4.3c-10.8,3.7-14.7-1.2-17.1-10.8
			c-2.5-10,1.6-12.9,10.7-15C954.5,1269.9,979.6,1267,1009.7,1267.2z M1003.2,1293.3c9.3,36.9,35,58,68.4,55.8
			c27.5-1.8,53.6-10.8,85.7-18.3C1105,1307.4,1057.1,1291.8,1003.2,1293.3z"/>
		<path class="st1" d="M1094.6,1556.9c-37.8-0.2-65-25-64.9-59.2c0.1-33.1,29.9-60.6,65.3-60.3c35.5,0.2,65.3,28,65.3,60.7
			C1160.2,1531.4,1131.5,1557.1,1094.6,1556.9z"/>
		<path class="st1" d="M1628.2,1515.1c-1.6,47.8-17.3,90.9-43.5,130.4c-8.8,13.2-20.5,23.9-34.6,31.4c-27.2,14.6-56,9.2-75.1-15.3
			c-24.9-31.8-28.2-66.3-12.9-104c20.8-51.3,61.9-82.4,106.3-110.2c21.6-13.6,41.1-6.1,51.6,17.4
			C1625.6,1477.6,1628.2,1493.3,1628.2,1515.1z M1602.3,1513.6c0.9-12.6-2.1-24.6-5.6-36.4c-2.2-7.4-7.5-12.1-15.6-7
			c-43.2,27.6-83.2,58.2-99.8,109.9c-8.7,27.2,4.9,65.8,26.7,75.7c18.4,8.4,43-4.2,59.6-32.1
			C1587.8,1589.9,1601.2,1553.6,1602.3,1513.6z"/>
	</g>
</g>
</svg>
