<?xml version="1.0" encoding="utf-8"?>
<!-- Generator: Adobe Illustrator 23.0.0, SVG Export Plug-In . SVG Version: 6.00 Build 0)  -->
<svg version="1.0" xmlns="http://www.w3.org/2000/svg" xmlns:xlink="http://www.w3.org/1999/xlink" x="0px" y="0px"
	 viewBox="0 0 3000 3000" style="enable-background:new 0 0 3000 3000;" xml:space="preserve">
<style type="text/css">
	.st0{stroke:#000000;stroke-width:10;stroke-miterlimit:10;}
</style>
<g id="Layer_1">
</g>
<g id="Layer_2">
	<g>
		<path class="st0" d="M529.5,1507c0-233.2-3.4-466.4,0.8-699.4c5.8-318.2,156.2-547.7,441.3-688c96.6-47.6,200.9-66.7,308.2-67.2
			c174.4-0.8,348.7-2.4,523.1,0.6c358.1,6.1,657.5,259.4,725.9,611.1c9.8,50.5,13.6,101.7,13.6,153.2c0,460.2,3.1,920.5-1,1380.7
			c-2.9,326.3-157.6,561.2-453,700.9c-95.3,45.1-197.7,62.1-303.1,61.8c-179.1-0.5-358.3,3-537.2-1.4
			c-334.1-8.2-631.5-259.1-700.8-585.8c-12.3-57.8-17.7-116-17.7-175C529.6,1967.9,529.5,1737.5,529.5,1507z M2492.5,1506.4
			c0-230.4,0.1-460.8-0.1-691.2c0-48-3.5-95.9-13-143c-68.4-336.7-352.4-569.3-696.1-570.1c-165.5-0.4-331.1-0.4-496.6,0
			c-94.1,0.2-185,17.4-272.6,52.9c-259.9,105.6-434.4,364.3-434.4,645c0,473,0.1,946-0.1,1419c0,36.6,3.2,72.9,9.3,108.9
			c58,337.6,349.7,583.1,692.5,583.1c171,0,341.9,1.7,512.9-0.4c223.8-2.7,406.7-93.4,546.6-267.3
			c103.3-128.2,151.4-277.2,151.6-441.5C2492.7,1969.9,2492.5,1738.1,2492.5,1506.4z"/>
		<path class="st0" d="M1389.5,2537.7c-91.6-5.6-183.7-6.5-272.8-32.6c-108-31.7-186.6-95.5-222.3-205.1
			c-12.4-38.1-16.5-77.8-15.4-118c0.2-7.2,2.2-14.6-3.8-21.1c-44.9-48.7-55.9-109.5-60.2-172.2c-7-101.4,23.1-190.5,91.2-266.3
			c5.3-5.9,8.1-9.5-0.5-15.3c-76.1-50.7-101.3-128-111-213.3c-11.9-104.8,5-207.2,23.8-309.7c21.9-119.7,60.8-232.8,132-332.2
			C1051.6,710.7,1184,613.7,1356.5,577c72.8-15.5,139.6-1.2,199.3,43.1c11.2,8.3,20.6,9.2,33.4,6.1c117.1-29,232.2-25.3,342.2,27.4
			c133.4,64,195.9,176,209.2,319.3c4.9,52.7,2.9,105.2-7,157.4c-6,31.5-19.4,59.2-42,81.5c-10.3,10.2-11.4,18.4-6.8,31.6
			c50.2,141.4,76.5,287.4,70.8,437.3c-5.8,152.8-21.9,305-80.3,448.2c-93.5,229.7-266.3,361.1-510,399.9
			C1507.4,2538,1448.4,2540.2,1389.5,2537.7z M2107.1,1672.2c-1.4-78.3-5.2-139.5-15-200.4c-11.6-72.1-29.8-142.5-53.4-211.6
			c-2.1-6.2-3.3-13.1-13.5-10.5c-42,10.9-84.6,4.9-127.1,3.4c-98.2-3.5-181,30-248.9,101.1c-10.8,11.3-14.2,21.3-11.2,37.3
			c27.9,148.6-84.5,279.8-235.7,275c-14.9-0.5-19.6,4.9-23.9,17.3c-23.2,66.6-39.7,134.7-47.5,204.7c-4.1,37.4-9.9,75.3,2.9,112.5
			c11,32,31.2,53.7,66.5,56.8c83.8,7.4,158.4-10.3,215.1-78.3c16-19.2,33.6-37.1,51.7-54.3c30.8-29.3,65.5-51.9,108.6-59.1
			c63-10.6,109.4,23.1,113.2,84.3c4.3,69.1-2.5,137.7-10.7,206.2c-0.5,4.3,1,11.8-5.1,11.6c-14.1-0.4-29.1-0.2-41.7-5.3
			c-7.7-3.1-2.2-16-1.3-24.4c6.1-58.5,11.2-117,10.5-175.9c-0.5-37.7-20.6-53.9-57.8-47.3c-26.8,4.8-50,17.5-69.4,35.7
			c-25.1,23.5-48.6,48.8-72.4,73.6c-37.9,39.5-82.1,67.4-136.7,77.6c-30.1,5.6-60.3,6.6-90.8,6.1c-71.3-1.3-119.4-42.4-132.4-112.5
			c-7.8-42-3.2-83.5,2-125.1c8.6-68.6,24.6-135.5,48-200.5c4.4-12.1,1.3-15.9-9.5-20.8c-11.7-5.3-20.2-2.7-29.7,3.7
			c-36.5,24.6-76.4,42.4-117.4,57.9c-64.1,24.4-129.7,37.4-198.3,23.8c-10.5-2.1-16.2,2.9-22.6,9.5c-50.3,51.5-82,112.1-88.5,184.3
			c-5.7,62.2-0.3,123.1,31.6,178.7c23.4,40.8,59.9,50.3,101.7,28.2c24-12.7,45.8-28.8,65.2-47.7c8.3-8.1,12.9-10.3,22.5-1.3
			c24.6,23.1,25.2,22.6,0.6,46.3c-6.3,6.1-12.6,12.4-19.6,17.6c-38.5,29-79.4,51.7-130.3,44.3c-13.1-1.9-8.4,8.1-8.1,13.1
			c3.1,54.2,16.7,105,49.2,149.8c45.9,63,112,90.4,184.4,108.3c15.8,3.9,22.2,2.1,26.2-15c7.9-34.2,20.8-66.9,38-97.8
			c102.7-183.7,301.3-228.3,471.6-214.6c31.9,2.6,31.3,5.5,24.1,37.3c-2.4,10.5-6.8,14.8-17.8,13.1c-52-7.9-103.9-3.6-155.4,4.5
			c-152.2,24-268.1,112.1-311.7,264c-4.3,15-2.4,21,14.4,22.2c95.7,7.1,191.3,14.6,287.2,2.1c233.3-30.4,399.4-150.2,489.1-369.7
			C2087.9,1965.8,2099.8,1810.9,2107.1,1672.2z M1608.9,672.7c44.2,68.6,52.4,139.2,29.5,213.9c-1.5,5-2,13.5-8,12.1
			c-13-2.9-26.5-6.8-37.6-13.8c-9.7-6.1-0.5-16.3,1.7-23.9c22.1-79.8-8.3-161.9-76.9-207.7c-59.6-39.8-123.1-38.9-188.3-18.7
			c-212.6,65.8-350.1,209.8-424.2,415.7c-41.6,115.5-59.9,236.6-64.8,359.2c-2.3,57,4.5,113.3,23.7,167.5
			c25.6,72,84.4,112.4,160.5,113.6c74.9,1.1,141.1-26.4,206.1-58.7c9.8-4.8,19.2-10.4,28.8-15.6c-33.5-3.3-65.6-2.5-97.7-6.8
			c-119.6-15.7-202-91-221.3-208.7c-19.6-119.3,9.9-228.9,80.8-325.3c111.5-151.6,341.4-225.7,521.4-170.7
			c107.5,32.9,173.4,105.1,195.8,215.6c7,34.4,10.6,69.4,9,107.2c55-21.4,110.5-25.5,166.7-24c27,0.7,53.8,4.1,80.9,1
			c48.2-5.5,78.9-32.7,88.9-80.3c12.4-58.9,12.6-118.3,3.7-177.3c-14.3-95-56.5-174-139.2-227.6c-53.8-34.8-113.4-53.2-176.8-59.1
			C1717.4,655.4,1663.8,658.6,1608.9,672.7z M1411.7,1617.3c100.5-0.1,181.6-81.3,181.6-181.8c0.1-100.8-82.7-183.4-183.4-182.9
			c-99.9,0.5-181.5,82.6-181.5,182.6C1228.4,1536.8,1309.5,1617.4,1411.7,1617.3z M1055.3,1258.3c24-5.4,50.8-11.5,77.8-17.4
			c10.5-2.3,5.6-8.5,3.5-13.6c-8.6-20.5-18.4-40.5-25.9-61.3c-5.4-15-11.8-22.3-29.3-16.6c-12.6,4.1-26.5,4.2-39.8,6.3
			c-6.6,1.1-13.2,1.7-16.9,9c-9.8,19.5-20.1,38.2-1.1,58.7c7.2,7.7,11.3,18.3,16.8,27.5C1043.1,1255.5,1045.2,1261.1,1055.3,1258.3z
			 M1589,996.2c0.9-10,1.2-17.1-8.2-22.1c-33.1-17.6-68.4-28-105.2-33.8c-8.4-1.3-12.8,0.6-11.8,10.3c2.5,24.8,4.9,49.6,6.8,74.4
			c0.8,10.2,5.1,11.3,14.4,9.5c26.4-5.1,52.9-10.7,79.6-12.7C1584.1,1020.5,1591.6,1013.1,1589,996.2z M1609.1,1315.7
			c1.5,0.8,2.9,1.5,4.4,2.3c17.6-15,33.5-33.3,53.4-44.3c26.6-14.7,34-35.2,31.4-62.7c-0.5-4.7,0-9.4-0.2-14.1
			c-1.1-29.3-1.1-29.3-30.5-22.5c-11.8,2.7-23.6,5.4-35.4,7.7c-6.7,1.3-10.5,4-11.2,11.5C1617.2,1234.2,1613.1,1274.9,1609.1,1315.7
			z M1397.9,936.3c-17.4,2.2-34.7,4.9-52.1,6.3c-12.6,1-13.5,7.2-11,17.5c6.8,27.4,13.1,54.9,19.6,82.3c1.1,4.6,1.6,11.3,7.1,10.6
			c19.3-2.2,38.5-5.3,57.6-9.2c4.1-0.8,2.3-7,2-11c-2.2-27.5-4.9-55-6.5-82.5C1413.9,938.7,1408.8,934.8,1397.9,936.3z
			 M1580.9,1086.1c2.5-12-0.1-18.4-16.6-14c-17.5,4.6-35.8,6.1-53.8,9.1c-35.4,5.9-35.4,6-31.5,42.9c4.2,39.4,4.2,39.4,44.2,30.8
			C1577.3,1143.3,1577.3,1143.3,1580.9,1086.1z M984.8,1352.2c-0.7,18.2,2.4,34.1,5.6,49.9c2,9.9,5.5,19.4,8.2,29.1
			c2.4,8.6,6,12.2,15.4,6.6c16.8-9.9,34-19.1,51.5-27.7c8.6-4.2,8.1-8.3,3.7-15.3c-13.9-22.3-27.5-44.7-40.7-67.4
			c-4.7-8.1-9.6-9.6-19.4-8.6C985.8,1321.3,979.6,1333.1,984.8,1352.2z M1160.1,1286.2c-29.6,6.6-53.8,12-78.1,17.3
			c-8.5,1.8-6.5,6.1-3.3,11.3c11.6,18.9,23.2,37.8,34.4,57c4.3,7.4,8.8,8.7,16.2,4.5c15.8-9,31.8-17.5,47.8-26.1
			c4.8-2.5,10.5-4.1,7.2-11.6c-6.7-15.4-13.5-30.8-20-46.2C1162.3,1287.8,1159.3,1286.4,1160.1,1286.2z M1209.4,1129.4
			c-14.2,2.1-28.2,4.2-42.2,6.1c-9.6,1.4-15.1,3.9-9.1,15.5c7.1,13.7,12.1,28.5,18.2,42.7c16.1,37.8,16,37.4,55.1,26
			c8.9-2.6,10.5-6.8,8.6-14.5c-5.7-22.2-11.2-44.5-16.9-66.7C1221.2,1131.4,1218.6,1125.3,1209.4,1129.4z M1262.8,1070.5
			c11.5-2.1,18.8-4.4,26.1-4.5c15.7-0.1,19.9-6.4,15.5-21.3c-5.1-17.3-8.5-35.1-12.7-52.7c-8.9-37.9-8.7-37.6-45.9-22.6
			c-10,4-12.8,8.2-9.5,19.1c6.8,23.1,11.7,46.7,17.5,70.1C1255.4,1065.3,1257.7,1071.8,1262.8,1070.5z M1138,1509.8
			c-1.1-2.1-2.3-4.5-3.7-6.9c-9.4-15.5-19-30.9-28.1-46.6c-3.9-6.8-8.2-7.5-14.7-3.9c-17.7,9.7-35.5,19.2-53.4,28.4
			c-7.1,3.7-8.5,7.1-2.6,13.4c14.3,15.5,30.3,28.7,48.7,39c4.4,2.5,8.4,3.3,13.2,0.7c11.3-6,22.8-11.5,34.2-17.2
			C1134.5,1515.3,1137.9,1514.3,1138,1509.8z M1137.4,1090c22.2-3.4,41.4-6.4,60.6-9.3c8-1.2,8.8-5.3,6.7-12.8
			c-5.6-19.9-10.2-40.1-15-60.3c-1.7-7.1-4.3-10.4-12-5.6c-19.5,11.9-38.5,24.5-56.3,38.7c-5.5,4.4-8.4,9.1-3.7,15.3
			c8,10.7,4.4,28.5,20.9,33.8C1139,1090.1,1139.7,1089.9,1137.4,1090z M1300,1204.3c6.5-1.5,13-3.9,19.6-4.4
			c15.8-1.2,21-7.1,15.4-23.4c-5.8-17.1-8.6-35.1-12.7-52.8c-1-4.4-0.8-11.3-6.8-10.7c-14.6,1.6-30.2,2.3-42.9,8.4
			c-5.4,2.6,1.8,16.9,4,25.7c3.9,15.6,8,31.2,11.7,46.9C1289.9,1200.4,1291.3,1206.1,1300,1204.3z M1431.2,1152.2
			c-0.4-5.3-0.6-10-1-14.7c-4.3-46.4-4.2-45.9-49.7-35.7c-9.2,2.1-11.2,5.2-9.3,13.2c4.8,19.6,9.5,39.3,14.4,58.9
			c0.9,3.5,0.5,9.8,5.9,8.9c12.6-2,25.8-3.4,37-8.7C1436.8,1170.2,1429.1,1159.2,1431.2,1152.2z M1635.6,1130.4
			c50.2-2.4,56.8-13.3,36.3-58c-5.3-11.6-11.3-16.3-24.5-14c-13,2.2-15.9,9.7-16.5,20.8c-0.8,13.4-2.2,26.8-3.6,40.1
			C1626.6,1126,1626.1,1130.8,1635.6,1130.4z M1492,1212.8c25.2,13.7,48.4,28.8,72.5,47.3c0.4-23.4,7.4-42.9,3.1-63.9
			C1541.8,1201.9,1516.9,1207.4,1492,1212.8z M1179.2,1406.1c-10.7,5.6-18.4,9.6-26.1,13.6c-4.7,2.4-8,5.7-4.3,11.1
			c11.5,16.6,19.1,35.9,36,54.7C1177.1,1457.3,1179.9,1433,1179.2,1406.1z M1248.3,1267.8c-14.6,2-27.1,1.2-34,9.5
			c-3.7,4.5,3.5,13.5,8.7,20.5C1231.4,1288,1238.5,1279.5,1248.3,1267.8z"/>
	</g>
</g>
</svg>
