<?xml version="1.0" encoding="utf-8"?>
<!-- Generator: Adobe Illustrator 23.0.0, SVG Export Plug-In . SVG Version: 6.00 Build 0)  -->
<svg version="1.0" xmlns="http://www.w3.org/2000/svg" xmlns:xlink="http://www.w3.org/1999/xlink" x="0px" y="0px"
	 viewBox="0 0 3000 3000" style="enable-background:new 0 0 3000 3000;" xml:space="preserve">
<style type="text/css">
	.st0{stroke:#000000;stroke-width:10;stroke-miterlimit:10;}
</style>
<g id="Layer_1">
</g>
<g id="Layer_2">
	<g>
		<path class="st0" d="M1995.8,516.9c-80.4,34.2-147,80.3-209.3,133.8c-117.8,101-172.3,236.3-210,381.3
			c-46.3,177.9-74.8,358.4-84.6,542.1c-2.7,50.5-7,101.4-22.3,150.1c-31.5,100.5-100.2,169.7-190.2,219.1
			c-102,56-213.5,79.4-328.2,90.6c-17.2,1.7-34.7,1.7-51.5,5c-25.2,4.9-34.1-3.8-34.5-29.4c-0.3-18.1,4.3-24.7,22.3-25.4
			c59.3-2.6,118.4-8.9,176.4-21.6c82.5-18,161.8-43.6,232.1-93.4c89.6-63.4,132.2-149.6,138.4-257.7
			c12.3-215.8,45.3-428.1,101.5-637.5c65.9-245.6,219.2-410.4,447.4-511.2c22.7-10,30.5-22.3,30.3-45.5
			c-0.5-69.7-16.5-134.9-56.2-192.6c-43-62.6-106.1-93-179.7-93.2c-172.3-0.3-326.6,49.7-449.8,176.6
			c-81.3,83.8-117.6,187.6-140.3,299.8c-44.8,220.7-36.1,444.5-45.2,667.4c-3.7,89.4,1.3,179.4-13.4,268
			c-12.5,75.4-46.3,139.7-118.5,175.2c-53.9,26.5-107.6,26.1-158.5-9.9c14.4-27.5,27-44.7,64.4-30.1c40.3,15.7,78.1-5.3,107.6-35.4
			c43.5-44.4,56.5-101.4,58.4-160.4c6-187.7,9.7-375.4,15.1-563.1c3.9-135.1,19.5-269.4,55.2-399.6
			c66.7-243.3,234.8-378,476.8-428.9c60.7-12.8,121.8-19.8,183.1-10.4c138,21.1,210.7,109.7,244.1,239.1
			c23.5,90.9,4.6,177.3-21.6,263.6c-26.6,87.4-75.4,163.9-119.9,242.5c-10.5,18.5-15,29.2,9.1,41.3c48.3,24.3,83.9,63.6,113.9,108
			c58.3,86.2,39.4,178.2-49.1,233.6c-16.3,10.2-19.7,15.8-9.6,33.8c54.9,98.6,44.9,200-28.2,284.9c-11.9,13.8-9.3,23.7-3.7,37.1
			c33.2,78.9,47.4,160.4,38,246.4c-14.3,130.4-84.6,202.3-215.6,216.4c-15.6,1.7-31.9-0.1-49.8,9.9c50,33.9,93.7,71.6,131.6,116
			c146.3,171.4,161.1,453.7,29.6,636.5c-108.8,151.2-263.8,196.5-441.4,179.5c-77.8-7.4-152.3-27.6-213.7-81.3
			c-41.3-36.1-50.5-78.7-24.8-126.8c3.5-6.6,7.5-13.1,11.4-19.5c44.7-74.4,35.8-128.9-34.2-182.8c-114.3-87.9-242-112.5-381.4-74.5
			c-26.9,7.3-41.4-4.2-42.9-32.4c-0.7-12.7,8.2-14,16-16.2c168.9-48.4,323.4-20.3,457.2,94.4c79,67.7,86.4,147.2,32.3,237.4
			c-27.3,45.7-25.3,58.4,10.3,88.2c15.1,12.7,28.8,14.1,47.1,6.6c129.2-53.6,207.9-185.1,194.6-326.8
			c-12.1-128.5-122.9-247-254.5-272.8c-17.7-3.5-34.2,2.1-51.3,3.1c-104.6,6.6-209,5.3-312.6-12.9c-11.2-2-33.8,3.5-24.6-24.2
			c6-18.1,2.3-35.2,34.5-29.7c129.4,22,259.5,25.2,389.1-1.7c172.8-35.9,288.9-136.3,349.7-302.1c37.2-101.5,50.9-206.9,57.1-313.7
			c6.8-117.4,12.1-234.8,17.4-352.2c6.7-148.6,63.2-279.7,137.2-406c50.5-86.2,105.6-170.7,132.8-268.6
			C1989.8,543.9,1992.1,532.6,1995.8,516.9z M1355.4,2238.3c132.6,73.7,209.4,179.9,211.8,327.2c2.5,148.1-71.5,257.2-198.8,334
			c34.2,13.2,66.5,16.9,98.7,18.5c151.1,7.6,282.9-32.8,372.6-163.1c161.2-234.3,59.6-588.5-199-701.1c-12.6-5.5-18.6-3.5-26.3,6.9
			C1549.8,2147.6,1463.4,2203.6,1355.4,2238.3z M1934.9,1754.6c0.3-55.9-13.4-108.6-33.3-160.3c-5.5-14.2-9.9-22.2-27.1-13
			c-31,16.5-65.5,21-100,22.6c-17.6,0.8-23,6.5-24.5,24.3c-9.3,113.1-27,224.4-75.1,328.7c-8.6,18.6-1.4,23,15.5,21.6
			c28.9-2.3,58.2-2.7,86.8-7.6c100.2-16.9,143.4-63.6,154.5-164.7C1933.8,1789.1,1934,1771.8,1934.9,1754.6z M1760.3,1411.4
			c-1.3,0-2.6,0-3.9,0c0,37.6,1.5,75.4-0.5,112.9c-1.2,23.3,8,26.2,28.1,24.9c147.7-10.1,225.1-165.6,143.8-289.4
			c-8.9-13.6-17.8-19.6-34-15.4c-32.5,8.4-66.1,10.2-99.3,9.5c-20.3-0.4-26.8,7.4-27.6,25.4
			C1764.9,1323.3,1762.5,1367.4,1760.3,1411.4z M1818.5,1199.2c43.6-0.5,85.4-9.7,125.2-27.2c63.5-27.8,91.6-90.6,63.1-143.9
			c-26.3-49.3-63.5-88.8-112.4-117.4c-16.3-9.5-22.9-6.3-31.7,9.1c-42.2,73.6-71.5,151.3-83,235.7
			C1773.8,1199.5,1774.1,1200.6,1818.5,1199.2z"/>
	</g>
</g>
</svg>
