<?xml version="1.0" encoding="utf-8"?>
<!-- Generator: Adobe Illustrator 23.0.0, SVG Export Plug-In . SVG Version: 6.00 Build 0)  -->
<svg version="1.0" xmlns="http://www.w3.org/2000/svg" xmlns:xlink="http://www.w3.org/1999/xlink" x="0px" y="0px"
	 viewBox="0 0 3000 3000" style="enable-background:new 0 0 3000 3000;" xml:space="preserve">
<style type="text/css">
	.st0{stroke:#000000;stroke-width:10;stroke-miterlimit:10;}
</style>
<g id="Layer_1">
</g>
<g id="Layer_2">
	<g>
		<path class="st0" d="M410.4,1085.2c-34.8-6-58.6-26.7-72.9-57.9c-6.1-13.3-13-12.4-24.8-8.7c-38.8,12.3-77.9,15.1-117.6,2.3
			c-71.4-23-119.1-86.8-126.2-169.6c-5.8-68,9.5-131.1,43.8-189.6c45.4-77.5,113.8-94.4,190.7-48.1c6.2,3.8,12.3,7.7,19.8,12.5
			c7.2-10.5,3.9-22.4,6.3-32.8c13.5-57.5,48.6-97.1,101.3-120.7c39.8-17.8,79.9-35.8,125.5-35.5c84,0.6,137.2,36.1,169.7,117.2
			C825,447.7,943.4,381,1090.7,378.6c149.5-2.4,267.8,62.5,363.7,178.7c19.2-65.8,65.2-101.7,126.7-120.2
			c57.3-17.3,115.1-18.5,173.5-4.6c74.3,17.7,116,65.1,128.8,139c2.8,16,5.5,25,26.4,22.6c39.5-4.6,75.7,9.2,107.3,32.4
			c16.2,11.9,22.6,13,30.7-8.2c91.1-240.3,382.3-318.6,575.7-234.7c60.5,26.2,109,67.7,149.8,118.5
			c96.3,119.9,148.4,257.6,157.3,410.5c8.6,146.5,8.1,293.1-17.3,438.3c-8.6,49.1-24,96.3-45.8,141.2c-6,12.3-7.6,23.6-5.5,37.3
			c40.7,268.1,33.9,533.9-41.7,795.9c-14,48.6-33.1,95.4-58.6,139.2c-45.9,78.7-117.1,125.7-201.5,153c-130.2,42-264.7,42-399,30.9
			c-70.1-5.8-121.9-46.6-162-102.6c-33.3-46.5-49.9-99.8-60.4-155.9c-12,2-15.8,12.1-21.9,18.9c-119.4,132.5-267.6,207-446.3,209.3
			c-255.7,3.3-511.6,4.4-767.2,0.1c-334.4-5.7-598.5-277.5-600.7-611.8c-0.8-127.1-1.6-254.1,0.2-381.2
			c3.2-227.6,102.8-402.5,292.7-526.9C400.8,1095,408.1,1093.9,410.4,1085.2z M141.6,1845.3c9.9-7.1,14.5-10.3,18.8-13.7
			c65.6-51.2,138.4-88.5,218.3-111.1c14.8-4.2,20.4-10.6,23.4-25.7c31.6-155.6,113-272.2,265.7-330c70.9-26.9,144.5-44.8,219.4-56.4
			c71.8-11.1,144.1-9.9,216.5-11.2c141.3-2.5,281.2,1,418.6,40.2c121.1,34.5,223.3,91.7,272.1,215.7c35.5,90.2,33.8,183.1,11.5,276
			c-4.3,18-2.3,25.1,17.3,26c62,2.9,122.9,14.2,182.6,30.7c18.4,5.1,23.4,2.9,23.1-17.3c-1.1-84.7-0.5-169.4-0.5-254.1
			c0-27.8-2.7-55.4-7.6-82.6c-51.7-287.8-284.3-483.1-576.4-483.7c-238.6-0.5-477.3-0.2-715.9-0.2c-40,0-79.6,2.3-118.8,11.1
			c-234.6,52.4-384.4,195.3-449,425.8C128.2,1601.2,147.6,1721.2,141.6,1845.3z M2129.6,890.9c0-17.8,0.9-35.5-0.2-53
			c-2.2-36.7-0.9-73.3,1.8-109.8c5.2-72.1,34.9-107.9,104-126.1c44.2-11.6,89.2-18.7,134.9-20.4c112.9-4.3,199.2,48.1,240.5,148.3
			c40,97,64.8,197.7,67.1,303.2c2.5,113.6-19.5,223.6-56.1,330.1c-50.7,147.2-155.3,239.4-304.5,280.5
			c-73.7,20.3-149.2,25-225.2,16.4c-18.8-2.1-23.7,3.5-23.2,21.8c1.2,46.4,0.9,92.8,0.1,139.2c-0.3,15.6,3,22.1,20.4,18.9
			c128-23.1,255.8-47.3,381.6-80.8c225.6-60.1,364.4-204.2,405.3-434.6c24.4-137.4,22.3-277.2,12.8-416.4
			c-8.9-129.8-51.5-247-126.6-353.5c-86.4-122.6-203.3-177.8-351.2-159.5c-165.9,20.6-283.7,107.1-336.5,266.6
			c-2.3,6.9-5.7,14.1-3.1,21.4c17.3,48.2,9.6,98.4,12,147.7C2085.1,863,2096.7,879.3,2129.6,890.9z M897.3,2579.1
			c14.2,0,23,0,31.7,0c170.2,0,340.5-0.2,510.7,0.1c39.2,0.1,78-3.3,116.6-9.7c248.4-41.3,455.3-268.2,470.2-515.7
			c0.5-9.1-0.8-15.5-9.1-20.4c-36.9-21.4-74.9-39.2-118.6-41c-78.3-3.1-156.1,3.4-234.1,8.8c-35.8,2.4-66.6,14.8-93.9,36.4
			c-45.2,35.9-76.7,80.8-89.8,138c-6.6,28.8-8.3,57.9-10.6,87.1c-1.3,16.6-5.7,34.7-25.7,36.6c-17.2,1.7-27.4-11.4-33.8-26.8
			c-6.9-16.5-14.7-32.6-21.8-49c-23.6-55.3-45.7-111.3-75.7-163.7c-15.7-27.4-37.9-47.6-68.3-55.7c-66.8-17.9-127-6.9-177.6,43.9
			c-14.1,14.2-18,28.7-14.9,48.3c11.6,73.2,7.3,146-9.3,218.1C1020.2,2414.4,970.8,2500.1,897.3,2579.1z M214.9,2280.4
			c6.4-24.3,10.2-44.9,17.3-64.4c48.8-135,154.2-200.6,287.6-228.1c74.6-15.4,144.5-0.1,203.5,50.5c86.5,74.3,91.1,195.7,10.9,265.7
			c-53.1,46.4-135.1,57.7-183.6,25.3c-43.9-29.3-42.4-71.9,3.3-97.3c6.1-3.4,14.8-5.3,12.7-15.2c-1.7-7.8-7.5-11.8-14.7-14.9
			c-52.9-22.8-117.4,8.7-130.3,63.9c-15.5,66.1-22.3,133-20.7,201c0.3,13.5,5.3,20.3,16,26.8c38.5,23.2,79,41.7,121.4,56.6
			c87.1,30.5,177.4,29.2,267.9,29.6c25.3,0.1,42.2-8.4,59-25.9c103.1-107.4,152.8-235,153.1-383.9
			c0.3-189.4-104.1-351.5-278.8-405.1c-216-66.2-413-21-586.1,125.2c-7.3,6.1-10.9,13.1-10.8,23.1c0.5,64.3-2.2,128.7,9.6,192.4
			C163.3,2165.8,182.7,2223,214.9,2280.4z M2830.7,2068.5c-3-0.6-4.1-1.1-4.6-0.8c-5.5,3.5-10.8,7.1-16.2,10.7
			c-112.7,74.5-236.4,110.8-371.6,104.6c-152.7-7-258-103.6-278.4-253.9c-2.6-19.1-4.9-38.3-7.4-57.5c-20,2.9-40.1,5.8-60.1,8.7
			c-2.4,0.3-4.8,0.7-7.3,0.9c-11.8,1.1-16.5,6.9-16.2,19.2c0.7,29.3-0.2,58.6,0.3,87.9c2.1,118.4-26.2,228.8-87.2,330.6
			c-5.8,9.7-7.8,19.2-6.7,30.1c5.8,60.7,20.7,118.7,54.9,170c33.1,49.7,78,83.4,138.8,89.4c110.8,11,221.3,7,330.2-16
			c133.8-28.2,226-104.6,268.6-237.9c19.4-60.5,35.7-121.6,47.5-184C2821.8,2136.7,2828.8,2102.8,2830.7,2068.5z M1141,1339.3
			c-140.9-8.2-277.1,7.6-411.5,46.9c-144.6,42.2-237.1,133-278.4,276.9c-11.9,41.5-11.1,41.7,32.1,37c5.7-0.6,11.4-1.1,17.1-0.8
			c16.5,0.8,25.8-5.8,33.2-21.7c42.9-92.4,112.3-157.9,204.8-200.4c86.5-39.8,177.4-57.8,272-60.8c75.9-2.4,151.3,4.6,226.8,9.5
			c100,6.5,199,18.6,294.1,53.1c81.3,29.5,145.2,76.8,173.7,161.9c20.5,61.3,26.3,123.8,11.5,187.6c-1.6,6.8-12,16.7,1.1,22.4
			c15.6,6.7,43.6-1.2,46.2-12.8c19.5-86,26.9-172.2-2.2-257.5c-35.5-103.9-114.5-160.9-214.7-192.9
			C1414.2,1345.3,1278.2,1330.3,1141,1339.3z M1435.1,2039c12.7-27.1,22.4-49.3,33.3-71c28.3-55.8,73-90.5,134.6-102.9
			c15.9-3.2,31.9-6.7,48.1-8.3c10.3-1,15.6-4.6,19.2-14.5c49-134.6-16-275.1-149.7-323.3c-8.4-3-16.6-6.7-25.2-9.1
			c-46.7-13.3-33-19.1-63.4,19c-73.9,92.6-116.7,198.6-130.3,316.1c-1.4,11.9-9.8,27,9.5,35.8c44.5,20.1,72,56.9,93.4,99.2
			C1413.7,1997.9,1423.1,2015.7,1435.1,2039z M2256.9,917c-54.5,33.5-108.6,36.8-162.6,3.8c-14.9-9.1-13.9,2.1-16.2,9.8
			c-11.2,38-37.2,60.3-74.7,69.7c-55.5,13.9-110.5,21.5-159.2-23.8c-19.8,52.8-55.6,83.4-110.5,97c11.1,6.6,17.1,10.4,23.3,13.9
			c118.9,68.5,205.9,165.6,261.6,291c20.9,47,20.6,47.1,71.6,37.5c2.4-0.5,4.8-0.9,7.2-1.3c16.1-2.8,22-10.1,19.8-28.3
			c-6.4-53.2,12-97.9,53.9-131.6c12.8-10.3,27.9-17.7,42.2-26.5c-75.5-75.7-58.3-224.7,69.9-258.7
			C2270.9,954.3,2263.7,937.2,2256.9,917z M1291,1006.4c-48.2-3.9-95.5-9.5-141.1-25.7c-105.5-37.5-142.1-154.2-73.8-238.9
			c27.7-34.3,60.7-63.5,100.6-83.8c5.1-2.6,13.4-2.6,13.6-12.7c-8.5-2.1-17-4.6-25.6-6.2c-59.4-11.1-118.4-0.6-177.4,4.5
			c-57,5-71.5,16.9-86.8,71.6c-14.7,52.7-46.9,90-94,115.9c-22.9,12.6-47.1,22.6-72.7,27.7c-21,4.2-20.9,11.8-11.2,28.4
			c22.4,38.2,49.7,72.2,80.7,103.6c11.9,12,24.7,16,41.2,16c136.7-0.5,273.5-0.3,410.3-0.3C1267,1006.4,1279,1006.4,1291,1006.4z
			 M2173.9,808.3c1.6-3.6,3.4-7.2,4.9-10.9c25.9-65.7,71.6-109.7,142.7-118.5c73-9,134.6,16,180,75.8
			c36.6,48.2,52.6,104.3,59.5,163.2c21.6,184.2-23.5,355.3-104.1,519c-37.5,76.1-98.3,125.2-179,150.8c-44.1,14-89,24.4-134.6,32.2
			c35.3,4.4,70,1.4,104.7-3.7c109.7-16.1,203.4-61.7,273.2-150.2c47.5-60.2,68.8-131.5,87.7-204.6c46.2-178.2,34.2-351.3-37.5-520.7
			c-26.3-62.1-72.6-99-137.7-112.2c-73.2-14.8-144.1-0.7-213.7,21.2c-25.3,7.9-38,29-43.9,54.4
			C2167.8,738.7,2171.2,773.6,2173.9,808.3z M534.1,824.3c32.6,2.3,64.4-4.6,96.5-9.8c17.2-2.8,22.1-10.2,20.2-27.6
			c-5.7-53.6,2.3-105.3,25.9-154.2c26-53.9,2.2-117.3-53.1-141.5c-75.9-33.1-140.8-1.7-203.9,35.8c-30.4,18-46.3,47.9-51.1,82.3
			c-5.8,41.9-6.2,83.9,1.8,126.1c6.7,35.6,26.6,58.1,58.8,71.7C462.6,821.3,497.7,826.5,534.1,824.3z M1653.4,770.8
			c8.7,0,16.1,0.8,23.3-0.1c94.8-11.7,160.6-54.2,169.4-146.7c5.9-62.3-22.7-123-72.5-142.1c-72.5-27.9-145.2-26-215.1,8.6
			c-59.4,29.4-78.9,83.2-56.1,145.4c7,19,18.4,37.8,19.7,57.2c3.6,53.1,41.8,63.2,81.9,72.9C1620.7,770.1,1637.7,771.9,1653.4,770.8
			z M2843.6,1882c-43.9,69.2-57.7,74.8-136.5,55.6c-11.7-2.8-11.9,5.6-15.4,10.6c-41.1,57.5-98.3,78-166.8,58.8
			c-8.1-2.3-14.6-2.8-23,1c-71.2,32.7-143.7,7.8-179.9-61.2c-11.7-22.4-20.7-45.9-27.3-70.3c-8.5-31.7-8.5-31.7-40.4-25.6
			c-62.7,12.1-62.7,12.1-54.2,75.5c14.1,105.4,75.4,182.4,176,204.3c170.7,37.1,321-13.2,454.7-120.8c5.2-4.2,8.7-9.3,9-16.5
			C2841.3,1957.8,2847,1922.4,2843.6,1882z M1419.2,1004.1c8.7,2.1,11-2.6,13.7-6.6c50.4-75.1,75.9-157.6,60.2-247.3
			c-24.4-139.2-106.5-236.6-232.9-296.1c-172.5-81.2-377.2-17.4-499.9,125.3C724,621.6,699.3,669.3,691,725
			c-2.2,14.7,1.1,19.1,16.3,15.2c53.3-13.4,95.4-38.7,115-94.2c19.9-56.5,57.4-97.5,115.5-117.6c60.7-21,122.5-31.2,187.1-23
			c53.4,6.8,105.5,18.9,157.6,31.8c71.1,17.6,116.2,62.7,136,132.6c17.8,63.2,20.5,128.2,20,193.4
			C1438,910.9,1429.1,957.7,1419.2,1004.1z M2048.6,1462c8.2,34.1,15.2,67.6,17.7,101.6c1.1,15.3,6.6,18.9,20.9,18.2
			c66.3-3.3,130.5-15.6,192.9-38.4c57.2-20.9,101.6-56.4,132.1-109.7c29.7-51.9,49.4-107.9,69.2-163.8
			c39.7-112.3,51.4-228.2,39.2-346.4c-5-48-17.7-94.4-45.2-135.2c-39.8-58.9-110-84.7-172.4-63.9c-58.8,19.6-100.5,85.9-98.3,154.3
			c0.5,16.1,4.9,18.1,18.5,10.5c24.2-13.5,36-36.4,49.2-59c27.3-46.7,81.4-67.9,134.6-54c48.9,12.8,84.5,57.3,86.9,108.8
			c2.5,54.6-28.4,101.4-79,119.4c-6,2.2-12.1,4.1-20.5,7c33.2,38.4,45.8,82,38.4,130.2c-7.6,49.2-34.6,86.2-82.3,112.7
			c8.8,7,16.1,11.3,21.4,17.3c49,54.7,49.7,135.1,2.3,192.2c-45.3,54.5-127.3,67.8-188.2,30.4c-43.6-26.8-79.4-36.2-129.8-34
			C2054.6,1460.4,2053.1,1461,2048.6,1462z M107.8,816.1c0.6,12.7,0.6,19.2,1.2,25.7c10,113.2,94.1,171.4,196.7,136.9
			c12.4-4.2,16.4-9.6,16.5-22.1c0.2-45.9,18.4-83.8,54.6-111.9c12.8-9.9,9.6-14.1-1.1-22.3c-30.2-23.2-43.8-55.9-47.8-92.7
			c-6.1-56.2-26.2-79.6-81.5-96.4c-30.7-9.3-56.1-3.1-77.1,20.7C127.1,702.1,111.5,759.9,107.8,816.1z M1431.6,2216.7
			c7.8-53.9,20.6-99.6,48.6-139.9c42.9-61.8,96.1-108.3,174.8-115.4c75.4-6.8,150.9-10.9,226.6-10.9c43.8,0,85.9,9.7,124.3,30.7
			c19.4,10.6,26.2,8,22.4-13.7c-2.2-12.8,9.9-31.2-11.8-37.1c-129.3-35.3-260-49.8-393.5-28.1c-64,10.4-105.4,47-128.7,106.2
			c-3.6,9-7.7,17.8-11.8,26.7c-9.3,20.4-19.1,40.2-46.1,40.6c-26.6,0.5-38-18.1-48.5-38.1c-11.3-21.6-21.8-43.6-34.5-64.4
			c-28.6-47-70.7-70.5-126.1-68.5c-60.5,2.1-119.7,11.5-176.7,32.4c-38.4,14.1-38.6,14.3-24.1,51.5c3.7,9.5,4.3,20.5,13.4,29.1
			c30.2-30.2,65.9-50.3,107.7-58c72.6-13.4,160.8,1,206,88.3c12.3,23.8,24.1,47.9,35.3,72.3
			C1402.9,2150.4,1415.8,2180.8,1431.6,2216.7z M1814.3,901.9c1.2-38.2-11.1-73.5-22.4-109.1c-3.4-10.6-7.9-11.4-17.3-7
			c-62.8,29.3-127.8,33.9-194.6,16.2c-7.4-2-13.7-4.1-17.2,6.3c-19.4,58.5-45.1,114.5-68.1,171.6c-3.7,9.1-3.6,15.8,8.5,16.7
			c52.2,3.9,100,26.7,150.7,35.7c81.6,14.5,141.8-9.2,157.9-94C1814,926.4,1813.5,914.1,1814.3,901.9z M2043.3,822.6
			c-0.6,0-1.2,0-1.8,0c0-26,1.6-52.1-0.3-78c-5-66.4-67.3-117.2-133.7-110.5c-14.2,1.4-23.2,5.9-26.1,22.6
			c-5.8,33.4-19.9,64-45.3,87.1c-11.9,10.9-12.1,20.5-7,33.8c17.8,45.9,28.5,93.2,25.4,142.8c-0.6,9.8,4.7,14.5,10.4,20.5
			c33.1,34.8,73.4,33,115.4,23.2c47.3-11,62.3-29.3,62.9-78.1C2043.5,864.9,2043.3,843.8,2043.3,822.6z M362.2,960.2
			c0.3,60.1,30.4,89.2,90.3,84.1c64.9-5.6,128.2-20.1,190.5-38.7c24.2-7.2,43.2-21.5,56.5-43.6c7.4-12.3,9.3-22.3,0.2-35.2
			c-13.5-19.3-25.7-39.9-32.4-62.6c-4.2-14.1-10.3-14.4-22.8-11.5c-64.9,14.8-130.2,19.9-195.8,4.1c-6-1.4-10.5-0.4-16.1,1.8
			C389,875.8,362,914.4,362.2,960.2z M1343.8,1003.3c31.3,6,31.8,6,38.1-21.1c22.9-97.6,21.7-195.4-0.2-292.8
			c-11.6-51.4-40.2-91.4-92.8-107.2c-66.2-19.9-133.6-38.6-203.1-38c-102.8,1-196.6,20-235.6,136.6c-15.1,45.2-53.4,72.8-98.8,88.1
			c-15.4,5.2-31.1,9.7-46.9,13.3c-22.1,5.1-9.5,20.3-9.1,31.2c0.5,13.7,10.3,11.4,19.6,8.9c73.9-19.4,133.8-52.4,151.9-136.2
			c10.3-47.8,46.7-74,94.1-80.6c59.6-8.4,120-15.6,180.1-10.2c143.3,12.9,247.4,104.9,235.1,266.1
			C1372.4,910.4,1362.5,957.7,1343.8,1003.3z M571.1,1694c8.9,0.9,15.3,1.7,21.8,2.1c63.6,4.2,126.6,12.5,185.1,39
			c19.4,8.8,21.3,1.4,22.8-14.3c5.7-61.3,21.8-119.7,48.4-175.3c12.2-25.4,27.8-48.9,45.4-77.5
			C754.1,1502.2,634.8,1556.3,571.1,1694z M2262.3,1263.5c-58.6,0.2-105.8,46.8-106.3,104.9c-0.4,58.9,47.7,106.6,107.4,106.2
			c58.6-0.4,105.1-47.5,104.7-106.1C2367.8,1309.8,2321,1263.3,2262.3,1263.5z M639.6,2304.2c90.3-17.9,133.8-99.6,98.3-178.6
			c-15.8-35.1-40.6-62.3-75.7-79.7c-67.1-33.3-133.4-25.1-200.7,0.1c-94.5,35.4-163.8,95.2-194,193.9c-10.2,33.4-15.9,68-8.7,103.3
			c5.2-7,8.1-14.3,10.8-21.8c29.6-80.5,69.4-154.3,138.4-208.7c70.4-55.5,173.8-66.6,245.8-26c38.6,21.8,56.4,54.8,51.7,99.4
			C700.6,2233.3,674,2268.8,639.6,2304.2z M2209.5,1117c0,68.8,55.8,118.5,114.5,101.9c40.1-11.3,69.9-54.2,70.3-101.2
			c0.5-48-29.5-91.5-71-102.9C2264.4,998.5,2209.5,1047.8,2209.5,1117z M358.4,2450.5c1.4-26,2-47.1,3.8-68
			c4.5-51.9,11.5-103.4,28.4-153.1c11-32.3,32.7-54.3,65.3-63.8c30.8-8.9,62.8-9.7,94.5-6.3c29.2,3.1,51.6,24.5,56.2,50.1
			c4.7,25.9-3.5,40.4-33.3,58.4c-6.9,4.2-16.6,6.8-9.9,17.7c5.5,8.8,12.5,15,24,7c34.9-24.4,62.9-54.4,75.2-96.1
			c10.7-36-1.3-62.7-36.3-77.3c-62.6-26.1-124.3-22.5-180.2,16.7c-84.5,59.3-124.1,147.9-151.9,243.3c-2,6.7-0.5,12.6,4.5,17.9
			C316.1,2415,333.7,2432.7,358.4,2450.5z M1410.6,1489.9c-23-9-45.4-7.8-66.2-13.5c-15.5-4.2-23.2,1.4-30.7,14.9
			c-55.4,99.6-93.7,205.3-116.4,316.9c-11.9,58.3-12.4,57.6,45.6,56.6c13.2-0.2,16.6-4.8,17.8-16.4c2.1-20.2,4.5-40.4,8.4-60.4
			C1290.4,1678.1,1337,1579.9,1410.6,1489.9z M2674.5,1831c-0.5-13.8-0.6-39.1-16.1-61c-15.4-21.9-29.4-25.4-52.9-14.5
			c-17.6,8.2-35.4,16.6-53.9,22.3c-17.2,5.2-22.6,11.6-17.3,30.8c11.8,42.5,14.2,86.3,8.5,130.4c-4.4,34.4-3.5,35.1,32.6,34.1
			c6.4-0.2,13-0.9,19.1-2.6C2650.1,1955.8,2678.2,1910.7,2674.5,1831z M2504.1,1894c0.3-27-3.4-53.3-9.7-79.6
			c-3-12.7-6.6-17.3-21.2-13.5c-43.2,11.3-86.7,21-130.4,30.1c-13,2.7-15.2,7.7-12.3,19.9c7.3,30.2,18.4,58.6,32.7,86.1
			c21.7,41.6,62.6,49.3,107.8,39.2c38.2-8.5,30.8-44.2,33-72.6C2504.3,1900.6,2504.1,1897.3,2504.1,1894z M2666.5,1720.8
			c50.1,38.7,50.3,92.3,49.3,145.6c-0.3,15.5-6.1,29.9,14.3,37.7c20.2,7.8,37.9,7.8,54-7.9c11.9-11.7,20.2-26,23.9-41.9
			c17-73-2.5-139.1-39.2-201.9c-5.3-9-9.8-8.5-16.7-1.8C2726.6,1675.9,2698.3,1697.7,2666.5,1720.8z M1336.2,843.5
			c0.5-39-5.1-78-26.6-113.3c-4.4-7.3-7.7-17.2-20.1-11.2c-36.4,17.8-69.1,40.2-88.9,76.7c-14.9,27.5-10.5,53.3,11.5,75.7
			c20.6,21.1,46.3,32.8,75.4,36.2c43,5,45,2.9,47.3-40.9C1335.2,859.6,1335.7,852.3,1336.2,843.5z M2296.5,893.1
			c0.4,43,34.9,77.4,78,77.7c43.2,0.3,79.4-35.9,79.3-79.3c-0.1-44.1-35.4-78.8-79.6-78.4C2329.8,813.5,2296.1,848.2,2296.5,893.1z
			 M1323.6,950.1c-33.7,0.8-59.8-3.5-84.7-13.3c-97-38.2-116-129.8-42-203c17.4-17.3,37.3-31.3,58.7-43.1c3.6-2,10.8-3.1,7.5-9.8
			c-2.1-4.2-6.8-7.3-12.2-6.6c-4.8,0.7-9.5,2.2-14.1,3.6c-54.3,15.9-97,49-131.2,92.6c-30.9,39.4-29.9,97.8-0.8,131.2
			C1145.9,948.8,1256.4,975.5,1323.6,950.1z M883.3,1789.8c10.5-118.7,50-227.2,113.2-329.2c-26.8-3.5-45.8-0.6-61.7,21.7
			c-52.3,73.8-86.2,154.2-93.7,244.8C837.7,1769.5,838.4,1770,883.3,1789.8z M1125.8,1874.9c12.5-0.3,21.9-4.4,22.9-20.6
			c0.9-15.3,2.2-31,6.9-45.4c6.2-19,0.9-31.4-12.9-44.7c-34.3-33-31.1-32.1-54.3,9c-19.2,34.1-19.4,60.4,11.8,85.5
			C1108,1865,1111.2,1877.5,1125.8,1874.9z M985.4,1902.5c10.1-22.3,19.3-42.9,29-63.4c3.4-7.2,4.7-13.6-1-20.2
			c-15.2-17.7-30.3-35.5-46.9-54.9c-11.9,20.4-22.2,38.6-33.1,56.4c-4.9,8-5.2,13.9,1.6,21.5
			C951.5,1860.7,967.1,1880.3,985.4,1902.5z M1210.5,1615.7c19.8-51.4,42.3-97.6,67-144.7c-7.2-0.7-12.1-0.6-16.5-1.8
			c-23.4-6.4-37.1,1.2-45.1,25.1c-7.9,23.6-19.6,46.1-31.1,68.3c-6.7,12.9-5.9,22.2,5.2,31.6
			C1196.5,1599.9,1202.1,1606.9,1210.5,1615.7z M1038.7,1785.4c12.7-27.7,23.3-51.3,34.3-74.6c3.4-7.2,4.6-13.4-1.9-19.7
			c-10.5-10.1-20.6-20.6-30.7-31.1c-5.8-6.1-10.2-6.8-14.8,1.4c-10.7,19-21.7,37.8-32.8,56.6c-3.4,5.8-2.3,10.1,2,15.1
			C1008.8,1749.4,1022.6,1766.2,1038.7,1785.4z M1092,1547.1c-11.7,20.1-21.8,37.6-32.2,55c-4,6.7-7,13.1,0.3,19.5
			c12.1,10.6,20.7,25,35.5,32.5c0.7,0.4,3.8-2.4,4.7-4.3c9.2-19.9,23.6-39.3,25.5-59.9C1127.2,1573.7,1104.9,1563,1092,1547.1z
			 M1171.3,1732.6c2.3-6.3,4.6-11.9,6.4-17.7c4.7-14.6,9.7-29.1,13.8-43.9c2.6-9.2-21.5-45.2-30.1-45.9c-3.7-0.3-5,2.5-7,5.2
			c-30.4,41.7-28.5,62.5,9.5,97.6C1165.6,1729.4,1167.9,1730.4,1171.3,1732.6z M1062.4,1515.9c-7.2-8.8-14.4-17.3-21.4-26
			c-5.6-7-10.3-6.6-14.7,1.2c-9.9,17.7-20.7,35-29.6,53.3c-8.4,17.2,11.6,20.2,17.6,30.4c2.1,3.5,7.6,9.4,11.5,3.3
			C1038.4,1558.2,1049.8,1537.6,1062.4,1515.9z M1147.8,1544.9c9.7-20.7,19.1-39.4,27-58.8c2.8-6.8,14.8-16.9,2.6-21.8
			c-11.4-4.6-26.9-10.4-38.5,1.7c-26.8,27.7-26.3,44.4,0.8,72.3C1141.3,1540,1143.4,1541.3,1147.8,1544.9z M2826.7,1565.2
			c-13.1,16.4-21.5,27.1-30.2,37.6c-3.9,4.8-5.7,8.9-1.5,14.9c17.2,24.8,29.7,52.4,45.9,78.8
			C2836.4,1655,2831.9,1613.5,2826.7,1565.2z M975.5,1596.2c-28.8,45-33.8,77.3-14.3,92.6c0.5-0.6,1.2-1.2,1.6-1.8
			c7.8-13.1,15.7-26.2,23.5-39.4C1003.1,1619.1,1003.1,1619.1,975.5,1596.2z M1034,1895.1c13-2,28.2,0.2,31.7-10.1
			c2.4-7-8-15.8-18-20.2C1043,1875.3,1038.5,1885.2,1034,1895.1z M721.1,1004.7c13.3,2.3,23.9,2.6,35.8,0
			c-5.5-10.4-11.6-17.4-21.2-23.2C731.1,989,726.6,996.1,721.1,1004.7z"/>
		<path class="st0" d="M1682.9,2261.6c-39.1-0.2-69.8-31.4-68.8-69.9c1-37.8,31.3-67.2,69.4-67.2c39.1-0.1,71.4,30.7,69.6,69.1
			C1751.1,2238.3,1716.6,2264.6,1682.9,2261.6z"/>
		<path class="st0" d="M1216.9,2262.1c-38.9-0.4-68.8-31.4-68.1-70.5c0.7-38.6,32.1-68.4,71.2-67.4c37.8,0.9,66.9,31.1,66.8,69.3
			C1286.7,2232.8,1256.3,2262.6,1216.9,2262.1z"/>
	</g>
</g>
</svg>
