<?xml version="1.0" encoding="utf-8"?>
<!-- Generator: Adobe Illustrator 23.0.0, SVG Export Plug-In . SVG Version: 6.00 Build 0)  -->
<svg version="1.0" xmlns="http://www.w3.org/2000/svg" xmlns:xlink="http://www.w3.org/1999/xlink" x="0px" y="0px"
	 viewBox="0 0 3000 3000" style="enable-background:new 0 0 3000 3000;" xml:space="preserve">
<style type="text/css">
	.st0{stroke:#000000;stroke-width:10;stroke-miterlimit:10;}
</style>
<g id="Layer_1">
</g>
<g id="Layer_2">
	<g>
		<path class="st0" d="M2364.7,1251.2c-19.7-49.8-40.6-99.3-58.7-149.8c-6.8-19.1-15.5-21.9-33.3-16.9
			c-168,47.3-266.4,157.8-300.6,327.9c-13.3,66.3-16.3,133.4-20.8,200.5c-0.8,11.6,4.6,17,13.1,22.6c55.4,36.7,110.4,74,166,110.4
			c13.5,8.8,14.2,12.6-0.3,21.2c-56,32.9-111.4,67-167.1,100.4c-8.4,5-15.7,9.2-15.4,21.2c2.2,111.1,0.9,222.5,29.2,331.2
			c20.7,79.4,57.1,148.6,130.3,192.8c26.5,16,55,26.7,84.8,34.7c14.6,3.9,21.9,0.4,27.3-14.8c26.4-73.4,54.1-146.4,81.2-219.5
			c1.5-4.1,2.2-8.5,8.1-12.1c19.5,36.4,39.1,72.7,58.5,109.1c18.6,34.8,37.6,69.4,55.2,104.6c6.7,13.4,12.9,17.7,28.6,12.6
			c64.8-20.7,126.5-48,186.1-80.4c11.2-6.1,15.5-4.8,21.6,6c22,38.5,23.8,30-13.2,49.7c-121.5,64.6-248.5,110.2-388.7,106.7
			c-11.7-0.3-14.2,6.8-18.8,14.3c-24.1,39.7-54.2,71.4-101.7,84c-45.9,12.2-87.1,1.4-125.8-21.3c-91.9-54.1-147.8-134.1-170.5-238.7
			c-23.9-109.8-33.3-221.1-38.8-332.8c-6.9-141.8-7.8-283.7,0-425.5c6.3-113.9,15-227.5,47.7-337.8
			c51.9-175.4,168.4-282.8,343.1-330.2c6.2-1.7,13-1.9,19.1-7.8c-28.4-32.3-56.8-64.6-85.1-97c-5.1-5.9-9.6-7.3-16.8-2.6
			c-89.3,58.1-190.5,64.9-292.7,67.4c-18,0.4-42.4-7.9-52,4.4c-7.5,9.8,2.5,33.1,5,50.4c17.2,119.6,15.3,239-2,358.5
			c-3.9,26.7-6.2,53.7-11.9,80.1c-26.4,120.8-102.4,195.8-219.9,224.6c-115.3,28.3-232.8,26.3-347.2-5.9
			c-119.4-33.6-187.3-118.7-216.9-236.7c-17.4-69.1-20.1-140.2-26.3-210.7c-7.6-86.3-5.1-172.4,12.5-257.6
			c2.4-11.4-0.8-16.7-13.1-19.3c-55.5-11.7-55.4-12-66.5,46.4c-33.9,178.6-17.4,354.6,36.9,526.1c54,170.4,178.9,259.4,353.2,282.1
			c163.3,21.3,302.3-30.6,420-143.5c8.1-7.7,12.6-8.6,20.5-0.4c31.9,33.2,36.2,21.7-0.7,55.4c-90.1,82.4-195.7,134.3-317.6,143.9
			c-186.9,14.7-349.3-36.5-464.9-194c-49.9-67.9-72.2-147.6-89.2-229c-28-134.2-38.3-269.1-18.6-405.4c4.1-28.2,9.2-56.3,15.4-84
			c3-13.5,1.4-18.8-13.4-22.4c-54.1-13.1-108-27.5-150.1-67.4c-6.5-6.2-12.2-2.5-18,0C388.5,894,213,1085,153.4,1372
			c-15.5,74.8-19.3,151,1.9,226c21.9,77.4,117.3,114.6,187.1,73.4c8.1-4.8,15.7-10.7,23.2-16.5c39-29.8,75.8-32.4,117.7-5.6
			c34.8,22.3,69.7,41.7,112.2,45.9c131.7,13.1,237.4-114.1,199.4-241.1c-11.8-39.5-34.8-57.5-76.4-60.3
			c-38.2-2.5-75.8,5.5-113.8,6.1c-38.1,0.6-46.5-11.2-33-47.3c2-5.4,5.2-6.5,9.7-6.3c51.2,2.4,101.7-11.6,153.1-5.3
			c56.4,7,92.2,38.3,109.6,90.7c20.2,61.1,15.6,121.7-12.4,179.2c-41.7,85.7-14.2,229.8,92.9,290.6c81.6,46.3,170.2,68.2,262,81
			c50.6,7,101.8,10.1,151.6,22.5c177.1,43.9,206.4,182.3,156.2,312c-23.2,59.9-62.8,108.5-113.2,148.2c-5.1,4-10.2,8.1-15.3,12.3
			c-0.4,0.3-0.3,1.3-0.7,3.6c12,3.7,24.3,7.1,36.4,11.3c70.3,24.4,115.2,106.4,92.9,169.4c-17.1,48.2-58.5,60.9-98.7,29.6
			c-23.6-18.3-49.4-30.8-79.1-34.3c-15.2-1.8-29.5,0.4-39.1,14.2c-72.7,104.2-259.2,120.7-347.1-40.5
			c-32.3-59.3-34.9-123.1-22.4-187.7c3.9-20.3-0.1-23.3-19.6-19.7c-69.2,12.8-136.9,5.3-202.6-19.3c-10.7-4-17.5-7.5-22.5,7.9
			c-10.5,32.3-36.7,43.7-68.3,44.8c-16.8,0.6-33.6-0.3-50.4-0.7c-34-0.7-48,11.3-47.1,45.2c1.8,65,21.8,125.2,56.9,179.6
			c84.7,131.3,205.5,201.8,361.7,210.8c98,5.6,195.9-1.6,293.8-4.1c166-4.3,331.9-8.6,497.9-13.8c176.2-5.5,352.4-9.8,528.3-21.2
			c68.6-4.4,137.5-5.7,204.9-20.1c168.4-35.8,264.1-145.5,307.6-307c2.1-7.8,3.7-15.6,5.5-23.5c7.4-33.3,17-37.7,50-25.8
			c10.8,3.9,7.9,10.5,6.6,17.3c-18.4,96.5-54.1,184.9-120.6,258.9c-72.8,80.9-165.5,124.1-271.6,138.5
			c-135.6,18.5-272.5,21.3-409.1,26.5c-173.9,6.6-347.9,12-521.9,17c-179.1,5.1-358.2,11.1-537.3,12.6
			c-98.4,0.8-193.6-20.2-278-74.6c-119.8-77.2-199.2-183.1-224.7-325.5c-6.6-37.1-8.9-74.4,13.5-108.1c4.1-6.1,1.8-8.5-3.8-11.3
			c-24.5-12.1-49.2-4.9-63.3,18.5c-16.9,28.1-37.3,52.6-68.7,65.1c-37.2,14.8-70.3,0.2-85.3-37c-26.7-66.1-21.9-133.1-3.8-200
			c5.9-21.8,19.7-43,19.6-64.5c-0.1-22.2-25.9-34.6-37.6-53.6c-22.9-37.2-35.4-76.8-32.8-120.7c1.9-33.6,15.3-59.4,49.6-69.5
			c8-2.4,12.1-7.9,16.6-13.4c66.3-80.8,132.3-161.8,199-242.3c9.2-11.1,5.5-14.9-4.8-20.5c-23.1-12.5-39.1,1.1-55.2,13.9
			c-40.1,32.1-86,43-135.9,35.7c-97.4-14.2-149.1-68.7-161.2-170.6c-20.9-175.7,24.3-336.6,115.2-485.5
			c96.3-157.7,233.1-269.8,400.4-346c4.7-2.1,9.4-4.1,14-6.2c6-2.7,12.3-4.9,10.2-14c-2.1-9.1-8.8-8.4-15.3-8.3
			c-43.2,0.5-86.3-1.4-129.1-7.6c-26-3.7-52.2-7.4-77.6-14c-74.2-19.3-106.5-71.2-92.5-146.8c3.7-20.1,9.2-39.8,13.6-59.7
			c12.4-56,4.6-72.4-45.9-98c-61.1-31-93.7-96.4-79.8-160.3c6.9-31.8,21.1-45.7,53.9-47.1c49.1-2.1,98,2.6,145.4,15.8
			c42.7,11.9,75.6,37.8,97.3,76.6c8.6,15.4,17.5,15.4,29.4,5.6c6.2-5.1,12.3-10.3,18-16c23.6-23.6,50.5-42.8,81.9-53.7
			c70.4-24.3,141.5-47.2,216.3-53.3c65.1-5.3,128.2,7.1,189.3,28.7c15.5,5.5,28.1,5.1,43.4-2.2c74.6-35.9,151.1-66.9,234.7-74.9
			c66.6-6.3,133.1-0.2,199.4,3.6c168.2,9.4,336.3,4.4,504.5-0.4c76.6-2.2,153.4-3.6,228.7,16.4c41,10.9,74.7,32.4,103.1,63.1
			c6.1,6.5,9.7,16.4,20.9,3.5c7.3-8.5,35.1,6.8,32.9,18.2c-2.7,13.8,12,32.5-10.5,41.4c-0.6,0.3,0.1,5.5,1.1,8.1
			c48.4,131.2-0.8,240-78.7,341.9c-45.3,59.2-90.4,118.7-146.6,168.5c-7.5,6.7-9.3,11.1-1.9,19.3c32.8,36.4,65.3,73,97.3,110.1
			c8,9.3,16.9,9.3,27.5,8.6c62.6-4,124.2,1.2,184.1,20.9c58.4,19.2,110.8,49.1,154.5,92.3c17,16.8,34.7,30.5,58.2,34.7
			c12.6,2.3,15.3,6.3,11.2,19c-10.9,34-10.2,34.1-45.3,25.4c-64.5-16.1-129.8-27.1-196.4-30.9c-17.5-1-25.8,3.9-31.6,20.8
			c-18.8,55.1-39.3,109.7-59.2,164.5C2368.2,1250.9,2366.4,1251,2364.7,1251.2z M1498.1,828.7c130.1-2.7,260.4,2.9,390.5-4.6
			c86.9-5,167.1-27.5,233.5-86.9c80.7-72.2,148.4-155.1,202.9-248.7c18.9-32.4,31.7-67.4,36-105c9.2-80.1-26.1-196.1-149.3-216.4
			c-20.2-3.3-40.6-5.1-61-7c-30.4-2.8-30.2-2.5-33,28.1c-8.1,88.7-33.2,172.1-80.9,247.7c-59.1,93.5-141,155.8-251.9,173.5
			c-126,20.2-253.2,24.5-380.5,22.7c-70.3-1-139.9-10.1-207.8-29.9c-126-36.7-235.4-102-330.3-192.1c-7.3-7-12.3-13.4-22.3-2.3
			c-54.6,60.3-106.6,122.4-141.7,196.6c-41.9,88.7-21.1,140,71.5,170.7c112.5,37.2,229,52.5,346.9,57.5
			C1246.6,838,1372.4,830.8,1498.1,828.7z M1439,579.3c111.2-1.7,199.5-6.6,287.5-15.1c63.1-6.1,123.8-20.8,176-60.2
			c104.5-78.9,144.8-190.8,161.2-314.4c4.4-32.9,9.8-32.4-28.9-31c-192.9,6.7-386,13.3-578.5-2.9c-122.1-10.3-235,11.6-343.6,65.3
			c-70.9,35-137.2,77.2-200.3,124.9c-13.6,10.3-18.9,19.6-1.5,32.7c24.5,18.5,46.4,40.2,71.1,58.4
			C1124.6,542.1,1285.9,585.3,1439,579.3z M759.6,1706.5c-3.1-0.2-3.9-0.5-4.4-0.3c-4.4,2.5-8.8,5.1-13.2,7.7
			c-64.8,37.6-133.6,47.8-204.4,22.8c-25.7-9.1-37.8-3.6-53.5,16.3c-54.3,68.8-110.6,136-166.4,203.7c-8,9.7-11,14.7,4.8,20.2
			c55,18.9,104.4,48.8,151.2,82.8c35,25.3,73.8,41,115.5,50.4c130.5,29.5,263.7,32.9,396.4,39c87.4,4,171.1,16.7,246.2,65.8
			c56.1,36.7,94.3,84.2,102.9,152.7c2.6,20.8-3.4,41.3-2.5,63c79.1-37.7,141.1-159.6,128.5-246.4c-6.1-42.2-27.1-73.1-62-96
			c-28-18.4-59-28.9-91.5-34.7c-68.3-12.1-137.8-16.4-205.8-30.5c-48.8-10.1-96-24.9-142.1-43.7C837,1929.2,765,1842.6,759.6,1706.5
			z M1575.6,881.4c0,0.7,0,1.4,0,2.1c-38,0-76,0.6-114-0.3c-15.8-0.4-18.8,4-16.6,19.9c14,100.4,1.2,198.6-35,292.5
			c-32.8,85.1-90.1,119.4-181.2,115c-58.4-2.8-116.4-10-173.9-20.7c-44.3-8.3-44.1-8-35,36.9c22.5,110.9,82.1,190.9,195.1,218.8
			c95.2,23.5,193,25.3,289.3,6.3c104-20.6,176.7-79.4,198.1-187.9c30.6-155.5,34.7-311.8,6.6-468.4c-2.3-12.9-8.6-14.5-19.3-14.4
			C1651.6,881.6,1613.6,881.4,1575.6,881.4z M995.4,223.1c-58.7-22.3-136.8-25.3-201.9-9.6c-84.1,20.2-168.5,36.9-232.5,104.7
			c-26.8,28.4-76.7,23.3-98.7-17.2c-20.6-37.9-53.4-56.6-94.2-64.3c-28.8-5.4-58-6.4-87.2-8.3c-21.1-1.4-25,9.1-23.4,26.1
			c4,42,26.8,68.7,64.7,86.3c54.8,25.4,73.3,62.3,67.4,121.9c-3.1,30.8-13.6,59.8-18.3,90.1c-7.3,47,6.3,70.3,51.2,81.7
			c63.4,16.1,128.2,21,193.5,20c10.5-0.2,15.6-3.6,17.5-14.6c4-23.9,12.7-46.5,24.2-67.8c48.7-90.3,110.7-170.1,187.5-238.2
			C891,293.1,940.7,257.3,995.4,223.1z M1272.9,2440.2c16.5-61.2,10.3-112-37.7-154.6c-54.2-48.1-118.9-74-191.1-78.7
			c-124-8.1-248.3-11.6-371.8-26.7c-92.6-11.3-179.9-35.6-255.8-94c-37.6-28.9-80.4-50.8-126.6-63.5c-47.1-12.9-58.1-8.4-49,46.1
			c9.7,58.1,48.3,97,96.4,127c58,36.2,124.6,49,189.1,67.4c38.6,11,79,18.8,108.9,48.1c17.8,17.4,37.9,30.2,60.5,38.4
			c96.4,35.2,190.7,43.1,278.8-23.9c36-27.3,78.9-31.8,122.5-34.6c78.6-5.1,129.9,27.8,153.4,103.9
			C1255.2,2410.7,1260.6,2427,1272.9,2440.2z M2543.2,1018.8c-8.4-12-17.5-15-25.7-19.1c-76-38.5-156.7-51.4-240.7-39.5
			c-179,25.4-311.8,110.2-370.8,290c-39.5,120.4-46.2,245.1-52.2,369.9c-8.8,185-5.1,369.9,13.1,554.4c7.4,75,17.7,149.6,43.9,220.8
			c26.4,71.8,78.2,121.1,145.4,153.7c52.5,25.5,109.1,3.1,128.7-47.7c-105.2-25.1-183.3-84.8-229.9-183.1
			c-26.9-56.6-42-116.9-48.8-178.9c-15.9-144.3-13.6-289.1-10.6-433.9c2-93.5,2.5-187.2,19.2-279.8
			c18.3-101.1,53.1-194.1,127.2-269.1c95.4-96.5,214.4-135.4,346.1-143.5C2438.7,1009.9,2489.1,1012.3,2543.2,1018.8z
			 M1018.8,2360.8c-16.6,12.9-35.7,18-42.1,35.4c-20.9,56.5-30.5,114.8-13,173.8c18.1,61,56.5,107.9,119.3,122.4
			c60.5,14,115.5-3.1,154.5-56.8c13.4-18.4,32.8-28.6,55.7-31.4c47.9-6,88.2,13.2,127.2,37.7c6.1,3.8,11,14.5,19.8,8.8
			c7-4.6,6.1-14.4,6.1-22.4c0-42.4-34.7-81.1-83-91.8c-27-6-55.2-8-80.3-20.4c-13.1-6.4-23.6-6.3-37-1.2
			c-73.9,28.6-144,9.2-189.5-51.2C1034.3,2434.2,1024.3,2400.2,1018.8,2360.8z M997.4,1044c0,23.3,0.4,46.7-0.2,70
			c-0.3,10.1,4.7,13.9,13.1,16.9c49.4,17.3,99.9,27.6,152.5,22.3c45.5-4.6,82-23.4,96.8-69.6c18.9-58.9,25.5-119.7,23-181.5
			c-0.5-11.6-5.1-15.1-16.1-14.5c-79,4.3-157.7-1.3-236.3-7c-13-0.9-17.6,2.1-19.9,15.4C1001.8,945,996,994.2,997.4,1044z
			 M1336.3,936.8c0.2,47.8-7.3,94.7-18.4,141c-18.4,76.3-69,120.3-147.3,128.7c-51.5,5.5-101.5-1.3-150.9-15.9
			c-5-1.5-12.5-8.5-16.2,1.8c-4.9,13.4,6.3,32.9,20.3,36.2c69.3,15.9,139.6,24.9,210.4,28.7c65.6,3.5,103.5-19.6,126.5-82.4
			c32.1-87.6,44.1-178.4,31.1-271.7c-1.8-12.8-6.1-18.3-20.5-18c-35.1,0.8-35.1-0.1-34.8,34.2
			C1336.3,925.1,1336.3,930.9,1336.3,936.8z M560.9,2403.5c10.9,0,21.9,0.6,32.8-0.1c18.5-1.2,25.4-11.9,20.1-29.9
			c-3.7-12.6-12.2-21.4-22.5-28.7c-17-12-36.6-17.7-56.3-23.4c-63.6-18.4-129-31.1-189.3-60.2c-44.4-21.4-44.9-21.3-57.4,26.2
			c-14.3,54.4-19.8,108.8,0.2,163.4c5,13.6,11,14.5,22.3,7.6c18.1-11.1,31.2-26.5,39.9-45.3c14-30.1,39.2-42,70.3-43.8
			c26.8-1.5,53.1,3.3,75.9,17.1C517.2,2398.8,537.6,2405.1,560.9,2403.5z M1122.5,2346.8c-54.8-2.4-56.7,0.2-41.4,47.6
			c19.5,60.1,73.8,91.9,128.5,76.1c10.4-3,13-5.7,7.8-16.1c-8.4-16.9-15.9-34.3-22.5-52C1181.1,2365.6,1160.7,2338.9,1122.5,2346.8z
			 M2266.7,2456.5c36,0.5,67.7-3.5,99.4-8.3c9-1.4,11.2-4.5,6.7-12.8c-18.6-34.4-36.8-69.1-58.1-109
			C2297.8,2372.1,2282.7,2412.9,2266.7,2456.5z M1950.9,1691.4c0,42.3,0,80.1,0,120.2c29.3-17.6,56.1-33.5,82.7-49.6
			c5.5-3.4,12.9-6.9,2.7-13.7C2008.6,1729.9,1981.1,1711.5,1950.9,1691.4z M2364.5,1103.8c5.6-12.6,14.4-22.2,9.5-33.3
			c-2.1-4.8-15.3-3.1-17.4,0.3C2349.6,1082.4,2361.2,1090.9,2364.5,1103.8z"/>
		<path class="st0" d="M2415.6,1716.9c0.1,59.5-46.1,105.8-105.2,105.4c-57.3-0.4-105-47.6-105.4-104.5
			c-0.4-57.5,48.5-105.8,106.7-105.4C2370,1612.8,2415.5,1658.5,2415.6,1716.9z M2312,1666.8c-30.2-0.3-51.2,20.2-51.3,50.2
			c-0.2,29.9,20.8,51.1,50.7,51.1c27.8,0,50.4-21.8,51.2-49.4C2363.3,1690.2,2340.8,1667.1,2312,1666.8z"/>
		<path class="st0" d="M2814.1,2301.9c0,37.3,0,36.7-36.7,36.8c-12.9,0-18.9-2.8-17.7-16.8c1-12.3,1.2-24.8-0.1-37
			c-1.7-17.1,4.4-22.4,21.7-21.8C2814,2264.3,2814.1,2263.3,2814.1,2301.9z"/>
		<path class="st0" d="M2768.6,1557c0-1.5,0-2.9,0-4.4c0-30.3,18.3-44.5,46.1-30.8c18.8,9.3,5.4,31.5,7.7,47.8
			c1.1,7.9,6,21.2-7.8,23.7c-12,2.2-24.7,0.7-37.1,0.5c-6.5-0.1-8.5-4.8-8.6-10.5c-0.1-8.8,0-17.5,0-26.3
			C2768.7,1557,2768.7,1557,2768.6,1557z"/>
		<path class="st0" d="M2764.2,2042.3c0-29.8,18.5-42.4,46.4-31.7c5.6,2.1,7.8,6,7.8,11.7c0,8.7,0.1,17.5,0.1,26.2
			c0,30.1,0,30.1-29.3,30C2764.2,2078.4,2764.2,2078.4,2764.2,2042.3z"/>
		<path class="st0" d="M2814.1,1219.5c0,35.3-10.6,45.6-44.9,33.4c-20.4-7.3-6-31.7-9-48.1c-1.5-8.4-1.7-18.6,12.2-17.7
			c2.9,0.2,5.8-0.1,8.8,0C2819.9,1187.4,2813.5,1184.3,2814.1,1219.5z"/>
		<path class="st0" d="M2775.3,1788.3c0-34.1,11.8-42.8,45.4-34.6c8.4,2,7.8,7.2,7.9,12.9c0.1,13.9-0.8,27.8,0.3,41.6
			c1.1,13.6-3.9,17.2-17.2,17.2C2775.3,1825.4,2775.3,1826,2775.3,1788.3z"/>
		<path class="st0" d="M2785,1624.3c28,2.3,41,19.4,34.5,53.7c-3.6,19.1-32.4,21.5-40.7,17.6c-24.4-11.7-14.6-39.6-16.3-61.1
			C2760.9,1613.5,2778,1627.5,2785,1624.3z"/>
		<path class="st0" d="M2822.9,2159.9c-1.8,8.4,5.1,24-3.8,27c-13.7,4.6-30,1.9-45.1,1.4c-5.6-0.2-5.1-6.2-5.2-10.4
			c-0.2-9.4,0.9-19-0.4-28.3c-2.6-18.8,5.6-23.1,23.1-22.3C2822.8,2128.6,2822.8,2127.6,2822.9,2159.9z"/>
		<path class="st0" d="M2551.1,225.5c-4.6,12.2-9.1,25.3-14.6,38c-2,4.7-7.2,4.2-11.6,2.6c-6.9-2.4-13.7-5.1-20.6-7.5
			c-28.8-10.3-27.8-9.9-18.7-39.6c5.4-17.5,13-22.3,29.5-13.9c8.4,4.3,18,6,26.7,9.7C2546,216.6,2552.5,217.3,2551.1,225.5z"/>
		<path class="st0" d="M2793.7,1364c-29.3,0-33.6-3.2-29.9-47.2c1.6-19.7,28.2-19.2,39.8-17c24.3,4.5,12.5,29.6,15.9,45.9
			C2824.6,1369.9,2805.9,1362.9,2793.7,1364z"/>
		<path class="st0" d="M2718,315.4c-9.2,11.4-17.9,24-28.5,34.8c-8.4,8.6-14-3.1-19.9-6.3c-29.1-16.2-31.3-26.2-14.3-56.8
			c1.6-3,2-7.7,7.1-5.8c19.3,6.9,37.1,16.5,53.2,29.4C2716.6,311.4,2716.8,313,2718,315.4z"/>
		<path class="st0" d="M2822.9,2428.3c-0.4,32.5,3.7,28.7-27.2,28.7c-29.1-0.1-26.8,5.3-27-29c-0.2-29.2,0-29.2,27.3-29.2
			C2822.8,2398.8,2822.8,2398.8,2822.9,2428.3z"/>
		<path class="st0" d="M2792.3,1009.7c-1.2,3.8,7.8,19.4-3.4,23.4c-12.8,4.6-28.6,1.5-43.1,1.1c-6-0.2-5.4-5.7-5.5-9.9
			c-0.2-7.2-0.1-14.5-0.1-21.8c0-29.3,0.2-27,28.1-29.9C2795.9,969.7,2795.9,984.4,2792.3,1009.7z"/>
		<path class="st0" d="M2767.2,1916.8c-5.5-21.4,1.4-30.9,26-28.8c31.6,2.6,24.1-2.5,27.3,34.3c2.2,25.1-9.6,24.5-28.5,26.3
			C2764.4,1951.2,2764.3,1936.8,2767.2,1916.8z"/>
		<path class="st0" d="M2780.7,793.4c0,29.6-16.6,40.5-46.7,31.1c-5.4-1.7-6.7-4.7-6.7-9.3c0-14.6,0.1-29.2,0-43.9
			c-0.1-6.3,2.7-9.4,9.1-9.2c4.4,0.1,8.8-0.1,13.2-0.1C2785.8,762.8,2779.9,757.1,2780.7,793.4z"/>
		<path class="st0" d="M2780.7,691.4c-3,9.8,9.1,31.7-18,26.9c-13.1-2.4-36.2,13.3-36-18.6c0.3-40.2-0.6-40.2,38.8-41.9
			C2780,657.2,2780,657.2,2780.7,691.4z"/>
		<path class="st0" d="M2727.8,359.8c6.4-0.4,31.3,38.6,27.4,48.5c-7,17.7-28.4,12-42.1,19.7c-2.9,1.6-24.7-33.6-24.7-39.6
			C2688.4,384.4,2721.8,360.2,2727.8,359.8z"/>
		<path class="st0" d="M2816.5,1437.2c-3.9,11.2,7.4,31.7-16.5,27.1c-14-2.7-39.4,11.8-38.1-21.6c1.2-30.9-0.1-30.9,40-32.6
			C2828.1,1408.9,2808.2,1430.2,2816.5,1437.2z"/>
		<path class="st0" d="M2735.9,525.3c-33.9,3.4-24.5-24.3-23.6-35.8c2-24.9,29.1-18.4,42.3-17.5c18.1,1.2,11.5,23.4,12.3,36.5
			C2768.7,536.9,2743.5,517,2735.9,525.3z"/>
		<path class="st0" d="M2752.7,919.7c-23.3,7-25.1-4.9-26.5-24.4c-1.8-25.7,12.6-21.9,28.8-23.4c21.2-2,25.9,5.2,26.5,26
			C2782.3,922.9,2770.4,923.7,2752.7,919.7z"/>
		<path class="st0" d="M2784.7,599.3c-5.2,5.5,8.7,23.1-12.5,21.7c-36.1-2.4-40.8-5.9-40.9-26.7c-0.1-33.5,25.4-17.3,39.8-19.9
			C2785.2,571.8,2785.6,574.2,2784.7,599.3z"/>
		<path class="st0" d="M2602,235.2c9.6,4.8,30.3-1.7,27.5,14.2c-2.5,14.2-5.5,35.3-25.4,40.3c-9.4,2.4-28.3-29.2-25.6-43.9
			C2580.8,233.3,2593.3,238.1,2602,235.2z"/>
		<path class="st0" d="M2784,1101.4c6.8,1.3,15.4-2.9,22.2,3.1c5.1,4.4,3.6,10.8,3.1,16.5c-0.7,7.2-5.7,9.5-12.3,9.4
			c-7.3,0-14.6-0.3-21.9,0.1c-11.1,0.6-20.1,0.2-19.8-15.3c0.3-14.5,9-14.3,19-13.8C2777.2,1101.5,2780.1,1101.4,2784,1101.4z"/>
		<path class="st0" d="M1357,375.3c-0.3-81.1,64.4-146.7,145.3-147.3c80.4-0.6,146.2,64.8,146.8,146c0.5,81-64.5,146.8-145.4,147.1
			C1422.6,521.4,1357.3,456.5,1357,375.3z M1594.6,374.5c-0.1-51.7-39.4-91.6-90.8-92.2c-51.7-0.6-93.6,40.9-93.5,92.5
			c0.1,50.3,41.4,92,91.6,92.5C1553.3,467.9,1594.7,426.4,1594.6,374.5z"/>
	</g>
</g>
</svg>
