<?xml version="1.0" encoding="utf-8"?>
<!-- Generator: Adobe Illustrator 23.0.0, SVG Export Plug-In . SVG Version: 6.00 Build 0)  -->
<svg version="1.0" xmlns="http://www.w3.org/2000/svg" xmlns:xlink="http://www.w3.org/1999/xlink" x="0px" y="0px"
	 viewBox="0 0 3000 3000" style="enable-background:new 0 0 3000 3000;" xml:space="preserve">
<style type="text/css">
	.st0{stroke:#000000;stroke-width:10;stroke-miterlimit:10;}
</style>
<g id="Layer_1">
</g>
<g id="Layer_2">
	<g>
		<path class="st0" d="M2432.2,1062.9c100.1,84.2,175.7,185.5,227.1,304.9c39.9,92.5,62.1,189.4,63.1,289.8
			c1.7,175.9,11.8,352.5-3.6,527.7c-28.8,326.6-201.6,553.8-501,684.8c-97.1,42.5-200.5,58-305.9,58.2
			c-304.7,0.5-609.4,1.4-914.1-0.1c-392.8-1.9-718.4-273.6-792.4-658.9c-9.3-48.5-13.8-97.7-14-146.9
			c-0.6-151.8-2.8-303.8,1.3-455.5c6.8-246.9,107.4-450.1,297.1-608.7c12.9-10.8,25.1-16.9-0.8-28.6
			c-167.9-75.6-244.2-211.6-248-390.6C235.9,391.9,381.5,179.9,612.2,92c38.8-14.8,79.2-24.1,120.2-26.5
			c159.1-9.2,317.8-2.5,474.2,29.2c128.3,26.1,216.8,104.1,269.5,223.5c2.4,5.5,5,10.8,8.8,19c28.3-40.2,57.1-77.1,93.6-107.4
			c115.5-95.9,253-137.6,397.7-159.5c105.1-16,210.1-13.7,313.3,16.6c65.7,19.3,125.8,49.4,176,95.4
			c99.2,90.9,181.3,194.8,213.8,328.5c30.1,123.7,22.5,246-35,361.6c-41.3,83-105.1,143.7-192.4,178.2
			C2445.7,1053.1,2437.7,1052.6,2432.2,1062.9z M1456.3,1407.7c0,0.1,0,0.1,0,0.2c377.1,0,754.2,0,1131.3,0c34.2,0,34.3-0.2,20.9-30
			c-43.3-96.7-103.4-181.5-182.2-252.4c-146.9-132.3-320.1-197-517.2-197.2c-305.7-0.3-611.4-4.6-917,1.8
			c-316.5,6.6-544,160.3-683.3,444.4c-16,32.6-14.8,33.2,22.1,33.2C706.1,1407.7,1081.2,1407.7,1456.3,1407.7z M353.7,2507.5
			c-2.3,12.1,4.7,17.8,8.9,24c158.2,231.6,377.1,347.7,658.3,346c21.8-0.1,21.1-11,21.1-26.2c-0.2-456.5-0.3-913,0.3-1369.5
			c0-20.5-6.7-24.6-25.6-24.6c-239.3,0.6-478.6,0.6-717.9-0.1c-17.7-0.1-24.5,6-28.7,22c-17.4,66.5-25.8,133.9-27.6,202.6
			c-0.6,24.1,6.9,30,30.3,29.8c132.7-1.1,265.5-0.2,398.2-0.9c19.6-0.1,28,2.9,28.2,25.5c0.1,23.6-10.1,25.3-28.9,25.2
			c-131.7-0.6-263.5,0.3-395.2-0.8c-24.4-0.2-33.2,5.6-32.7,31.4c1.6,82.4,1.4,164.9,0.1,247.3c-0.4,24.5,6,32.7,31.7,32.4
			c145.8-1.2,291.6-0.2,437.4-1c21.1-0.1,29.6,3.5,29.7,27.5c0.1,25.9-13.8,23.2-30.3,23.2c-146.8-0.2-293.6,0.2-440.4-0.5
			c-19.8-0.1-28.3,3-27.5,25.9c3.5,98.7,24.9,192.8,64,283.4c8.5,19.7,19.7,26,40.8,25.9c120.7-1,241.3-0.3,362-0.7
			c18.6-0.1,31.6-0.6,31.5,25.8c0,25-10,26.9-30.1,26.7c-71.4-1-142.8-0.4-214.2-0.4C449.1,2507.5,401.2,2507.5,353.7,2507.5z
			 M1956.7,2166.5c-0.3,0-0.6,0-0.9,0c-3.4,228.1-6.2,456.3-10.7,684.4c-0.7,34.1,20,25.7,36.9,23.8
			c292.8-33,501.5-183.7,628.1-449.3c10.4-21.8,5.3-26.7-17.9-26c-109.5,3.6-219,5.3-328.5,8.9c-19.9,0.7-28.7-2.5-28.8-25.1
			c-0.1-21.7,7.2-26.8,27.8-27c115.6-1.3,231.1-4.6,346.7-5.6c23.7-0.2,32.3-8.6,38.2-30.8c22.4-84.5,25.8-170.5,25.4-257.1
			c-0.1-22-7.5-26.3-27.7-26.1c-126.7,0.9-253.3,0.3-380,0.5c-16.4,0-30.5,2.8-30.6-23.1c-0.1-24.8,9.8-27.1,30.2-27
			c125.7,0.8,251.3-0.1,377,0.8c22.6,0.2,31.7-4.4,31.1-29.5c-1.7-74.4-1.5-148.8-0.1-223.1c0.5-23.2-7.1-28.6-29.1-28.5
			c-125.7,0.9-251.3,0.4-377,0.6c-17.7,0-32.1,2.1-32.2-25.1c-0.2-26.5,12.5-25.8,31.2-25.7c126.7,0.4,253.3-0.3,380,0.7
			c21.7,0.2,27.5-6.2,25.5-27.1c-4.6-49.1-13-97.4-24.2-145.4c-5-21.4-14.7-27.7-36.7-27.6c-203.1,0.9-406.1,1.1-609.2-0.1
			c-26.8-0.1-35.4,6-35.6,34.2C1963.6,1716.3,1959.9,1941.4,1956.7,2166.5z M1046,877.1c11.6,0.5,19.3,1.1,27,1.1
			c109.6,0.1,219.2-0.8,328.8,0.7c25.2,0.3,29.7-8.8,29.3-30.9c-1.3-88.5-1.7-177-1.3-265.5c0.2-55.3,1.4-110.7,18.9-164
			c3-9.2,2.3-17.2-0.3-26.3C1410,258.1,1327.2,169,1187.5,142.1c-142.7-27.5-287.3-34.2-432.3-28.1c-37.9,1.6-75.7,7.5-111.9,20.5
			c-231.4,82.8-365,287.2-350,536c9.2,152.9,99.5,273.1,243.1,324.8c18.2,6.6,32.5,6.5,50.1-4.1c101.3-60.8,210.6-103.2,328.9-106.2
			c65-1.7,93.1-33.1,112.8-85c6-15.9,11.1-32.3,15.8-48.7c43-152.8-59.2-274.7-216-256c-27.7,3.3-18-17.1-23.8-28
			c-7.8-14.5-0.1-20.7,13.1-22.3c64.1-7.7,126.6-6.2,181.5,34.3c87.8,64.7,125,176.5,95.5,281.9
			C1082.9,800.9,1067.1,838.4,1046,877.1z M1482.3,671.6c0,65.5,0.8,123.8-0.5,182.1c-0.4,19.9,5.5,26.6,25.2,25
			c20-1.6,40.2-0.8,60.3-0.3c161.6,4.5,323.7-11.2,484.8,11.6c13,1.8,17.6-4.8,22.1-14.8c22.3-49.3,56.2-89.8,94.4-127.6
			c55.2-54.4,67.4-143.3,30.8-211.7c-16.7-31.4-43.1-49.6-77.7-56.3c-37.4-7.3-72.1,0.5-103.7,20.8c-22.8,14.6-23.3-9.4-32.7-17.5
			c-9.3-8-9.9-15.4,2.3-23.3c101.6-65.8,222.8-29.5,263,66.8c34.3,82,25,192.7-47.8,258.9c-30,27.2-54.7,58.6-74.8,93.8
			c-9.5,16.5-10.1,24.5,12,30.5c76.9,20.9,148.7,54.1,215.3,97.9c13.9,9.1,26.8,10.6,42.5,7.1c60-13.6,109.7-44.6,150-90
			c94.7-106.6,109.3-234.4,89.2-367.8c-21.4-141.3-107.3-246.4-208.7-339.7c-42.6-39.1-93.8-66-150.1-80.4
			c-219.1-56-425-17-616.8,95.7c-96.4,56.6-161.2,142.1-176.6,256.8C1476.5,551.8,1481.1,615.4,1482.3,671.6z M1905.9,2169.8
			c0.6,0,1.3,0,1.9,0c0-43.2-0.5-86.4,0.1-129.6c2.8-184.9,5.5-369.9,9.3-554.8c0.5-22.5-5.2-30.3-28.1-28.3
			c-23.9,2.1-48.5,2.7-72.3-0.1c-29.7-3.5-36.5,7.7-36.8,36c-2.1,196-5.7,392-9.3,587.9c-4.7,257.3-9.5,514.6-14.9,771.9
			c-0.4,18.1,4.2,25.4,23.3,24.5c29.1-1.3,58.4-2,87.4,0.2c23.8,1.8,27.9-8,28.2-29.2C1898,2622.1,1902,2396,1905.9,2169.8z
			 M1228.9,2166.4c0-204,0.1-408.1-0.1-612.1c0-31,10.6-72.5-5.1-90.2c-18-20.3-60.4-5.8-92.1-6.2c-41.1-0.6-37.7-7.2-37.7,39
			c-0.1,447.3-0.1,894.5-0.1,1341.8c0,6,0.6,12.1,0,18.1c-1.7,16.1,5.8,21,21.1,20.5c27.1-0.9,54.4-2,81.4,0.3
			c26.2,2.2,33.5-5.5,33.4-32.7C1228.4,2618.7,1228.9,2392.6,1228.9,2166.4z M1723.7,1686.4c-8.1,0.8-10.1,8.6-13.7,13.8
			c-140.2,203.2-280.1,406.7-420.3,609.9c-8.5,12.3-11.2,24.9-11.2,39.5c0.3,115.6,0.1,231.2,0.3,346.8c0,6.5-2.7,13.8,3.5,20.8
			c7.3-2.2,9.6-9.2,13.3-14.7c137.1-200.5,274.1-401.1,411.4-601.4c8.9-13,13.3-26.3,13.4-42c0.8-80.4,2.3-160.8,3.2-241.2
			C1724.1,1774.3,1723.7,1730.5,1723.7,1686.4z M1280.3,2231c7.7-9.2,11.7-13.3,14.9-18c91.8-133,183.1-266.3,275.5-398.8
			c11.6-16.6,4.1-24-7.2-34.2c-78-71-155.6-142.5-233.4-213.7c-15.1-13.8-30.8-27-49.8-43.6
			C1280.3,1760.1,1280.3,1991.7,1280.3,2231z M1717.2,2877c-82-120.3-159.6-234.1-238.3-349.6c-5.8,7.1-9.9,11.4-13.2,16.2
			c-56.6,82.8-112.6,166-170,248.3c-13.6,19.4-17.4,39.1-17.6,61.9c-0.1,19.2,7.3,23.7,24.8,23.4c59.3-0.8,118.5-0.3,177.8-0.3
			C1557.1,2877,1633.3,2877,1717.2,2877z M1293.3,1457.6c1.8,5.3,1.8,7.6,3,8.7c100.4,92.4,201.1,184.5,301.2,277.2
			c12.7,11.8,17.6,5.8,24.8-4.8c32.6-48.1,65.7-95.9,98.7-143.8c5.2-7.6,8.8-15.3,8.7-25c-0.4-31.1-0.5-62.3,0.3-93.3
			c0.4-14-3.7-19.3-18.5-19.2C1573,1457.8,1434.5,1457.6,1293.3,1457.6z M1718.2,2184.4c-5.3,2.2-7.6,2.4-8.4,3.6
			c-64.3,93.4-128.2,187-192.8,280.1c-8.2,11.8-4.1,20.7,2.1,30.1c20.1,30.3,40.2,60.6,60.7,90.7c40.2,59,80.7,117.8,121.1,176.7
			c2.2-0.5,4.5-1,6.7-1.5C1711.2,2571.4,1714.7,2378.8,1718.2,2184.4z"/>
		<path class="st0" d="M935,2448c-32.4-0.4-55-23.1-54-54.1c0.9-29.5,28-55.1,57.1-54.1c29.2,1,55.1,28.5,54.1,57.3
			C991.1,2427.8,968,2448.4,935,2448z"/>
		<path class="st0" d="M951.9,1791c-31.3,0.2-55.2-23.3-55.3-54.5c-0.1-31,23.8-55.4,54.4-55.7c31-0.2,54.9,23.5,55.2,54.7
			C1006.6,1767,983.3,1790.8,951.9,1791z"/>
		<path class="st0" d="M992.2,2067c-0.7,29.8-26.9,54.7-56.8,54.2c-30-0.6-55.1-26.6-54.5-56.4c0.6-30.8,24.5-52.9,56.7-52.6
			C969.1,2012.6,993,2036.5,992.2,2067z"/>
		<path class="st0" d="M2090.2,2356.4c31.4,0.1,55.3,23.8,55.1,54.5c-0.2,30.3-25.2,54.6-55.9,54.4c-30.7-0.1-55-24.7-54.9-55.2
			C2034.7,2379.2,2058.4,2356.3,2090.2,2356.4z"/>
		<path class="st0" d="M2102.4,1789.9c-32.6,0-55.4-21.9-55.6-53.3c-0.2-30.5,24.4-55.5,54.7-55.7c29.6-0.2,55.8,25.4,56.2,55
			C2158.2,1766.2,2133.9,1789.9,2102.4,1789.9z"/>
		<path class="st0" d="M2103.5,1982c31,0.4,55.3,25.2,54.2,55.4c-1.1,30.1-26.8,54.3-57.1,53.7c-30.4-0.7-54.4-25.9-53.7-56.5
			C2047.7,2003.5,2071.3,1981.6,2103.5,1982z"/>
		<path class="st0" d="M1267.8,618.9c-31.2,0.2-55.7-23.5-56-53.9c-0.3-30.3,24.3-54.7,55.2-54.9c30.9-0.2,55.6,23.7,55.9,54.1
			C1323.1,594.6,1298.8,618.7,1267.8,618.9z"/>
		<path class="st0" d="M934.7,366.5c-32.2-0.5-54.9-23.5-53.7-54.4c1.1-29.2,28.7-55,57.4-53.8c29.3,1.2,55,28.8,53.7,57.7
			C990.9,346.6,967.8,366.9,934.7,366.5z"/>
		<path class="st0" d="M661.5,368.8c-0.5,29.9-26.6,55-56.4,54.5c-30.6-0.6-54.3-25.5-53.8-56.5c0.5-30.9,25.4-55.3,55.7-54.6
			C636.4,312.9,662,339.5,661.5,368.8z"/>
		<path class="st0" d="M1201.3,312.1c30.4,0.7,54.2,25.9,53.6,56.8c-0.6,30.8-25.6,55-56,54.2c-30.1-0.8-55-26.7-54.3-56.6
			C1145.3,337.4,1172.3,311.5,1201.3,312.1z"/>
		<path class="st0" d="M787.7,718.6c30.7-0.1,55.2,24.4,55.2,55c0,30.2-25,55.4-55,55.6c-30.5,0.2-54.7-24.3-54.9-55.3
			C732.9,742.8,756.7,718.7,787.7,718.6z"/>
		<path class="st0" d="M607.3,629.9c0.1,30.5-24.4,55.1-55,55.2c-30.9,0.1-54.8-23.8-54.9-54.9c-0.1-31.4,23.3-54.9,54.7-54.9
			C583.3,575.3,607.2,598.9,607.3,629.9z"/>
		<path class="st0" d="M1199.5,850.5c-30.5-0.3-55.3-25.4-54.8-55.6c0.4-29.1,27-55.4,56-55.2c29.9,0.2,54.5,25.7,54.3,56.3
			C1254.7,827.1,1230.5,850.9,1199.5,850.5z"/>
		<path class="st0" d="M2428.2,624.7c30.7,0.6,55.1,25.9,54.1,55.9c-1,30.3-26.2,53.6-57.2,52.9c-30.6-0.7-55-26-54-56.1
			C2372,647,2396.9,624,2428.2,624.7z"/>
		<path class="st0" d="M2116.3,312.7c0.4,32.1-21.8,56.1-52.5,56.9c-29.7,0.7-55.7-24.4-56.4-54.4c-0.7-30,24.1-56,53.9-56.9
			C2091.9,257.4,2115.9,281.2,2116.3,312.7z"/>
		<path class="st0" d="M2427,564.7c-31.5,0.2-55.9-23.1-56-53.6c-0.2-29.9,24.9-55,55.2-55.2c30.4-0.2,55.7,24.4,56,54.4
			C2482.6,540.5,2458.3,564.5,2427,564.7z"/>
		<path class="st0" d="M1857.7,366.9c0.5,31-23.3,55.8-53.9,56.3c-30,0.5-55.6-24.4-56-54.6c-0.4-30.1,24.4-55.9,54.3-56.5
			C1832.5,311.6,1857.3,336,1857.7,366.9z"/>
		<path class="st0" d="M2354,880.3c0.7,30.2-23.9,56.2-53.9,56.9c-28.2,0.7-56.3-26.2-57.1-54.5c-0.7-28.7,25.5-55.9,54.7-56.7
			C2327.7,825.1,2353.3,849.8,2354,880.3z"/>
		<path class="st0" d="M2319.8,390.2c-32.7,0.1-55.8-21.4-56.4-52.6c-0.5-29.9,24.6-56.1,54.4-56.6c29.5-0.5,55.9,25.1,56.6,54.7
			C2375.1,366.5,2351.4,390.1,2319.8,390.2z"/>
		<path class="st0" d="M1748.6,647.6c-29.4-0.4-55.2-26.7-55-56.2c0.3-29.9,26.1-55.3,55.9-55.1c30.4,0.3,54.6,25.2,54.4,56.1
			C1803.7,623.2,1778.9,648,1748.6,647.6z"/>
		<path class="st0" d="M1941.6,630.2c32.6-0.1,55.5,21.6,55.9,53c0.4,30.7-23.7,55.7-54.2,56.2c-29.7,0.5-55.8-24.8-56.4-54.6
			C1886.3,654.2,1910.1,630.3,1941.6,630.2z"/>
	</g>
</g>
</svg>
