<?xml version="1.0" encoding="utf-8"?>
<!-- Generator: Adobe Illustrator 23.0.0, SVG Export Plug-In . SVG Version: 6.00 Build 0)  -->
<svg version="1.0" xmlns="http://www.w3.org/2000/svg" xmlns:xlink="http://www.w3.org/1999/xlink" x="0px" y="0px"
	 viewBox="0 0 3000 3000" style="enable-background:new 0 0 3000 3000;" xml:space="preserve">
<style type="text/css">
	.st0{opacity:0.6;}
	.st1{stroke:#000000;stroke-width:10;stroke-miterlimit:10;}
</style>
<g id="Layer_1" class="st0">
</g>
<g id="Layer_2">
	<g>
		<path class="st1" d="M1847.3,530.8c210.3-2.3,367.8-9.9,523.5,16.6c166.5,28.3,316.5,95,440.5,211.8
			c98.4,92.7,143.6,208.6,142.7,344.8c-2.1,316.4-73,617.4-198.2,906.5c-41.8,96.6-86.9,191.7-130.6,287.5
			c-67.7,148.6-182.7,232.4-344.5,254.7c-221.1,30.5-442.6,54.8-666.2,51.9c-226.6-2.9-423.4-92.2-608.6-213.2
			c-74.5-48.6-143.2-104.9-205.6-168.3c-16.9-17.2-31.1-20.3-53.2-12.8c-155.6,52.2-288.7,138.5-400.2,258.7
			c-27.2,29.3-39.2,28.7-61.3-5.6c-173.4-268.9-245.9-562-206.6-880.5c26.4-214.3,96.3-412.1,235.4-580.9
			c103.8-125.9,237.9-210.6,384.9-276.6c202-90.8,415.9-136.5,634.2-163.8C1521.7,538.1,1711,530.5,1847.3,530.8z M1947.6,1156.7
			c-31,55-60.7,109.2-91.9,162.5c-10.9,18.6-15.4,36.8-11.6,58.1c13.2,75,7.9,150.7,7.4,226.1c-0.2,35.8-15,65.5-41.8,88.1
			c-30.6,25.9-67.6,39.9-105.8,51.5c-24.7,7.5-49.1,10.6-74,3.3c-49.1-14.4-56.9-57.5-64.5-98.5c-3.9-20.7-10.3-26.3-30.1-20.3
			c-72.2,21.6-146.4,23.4-220.9,21.4c-99.5-2.6-199-4.3-298.5-8.6c-27.8-1.2-38.3,6.4-37.2,34.6c0.9,22.6-2.5,45.5-4.6,68.1
			c-2.3,24.8-16.1,40.8-41.2,41.7c-40.7,1.5-81.6,2.5-122.1-0.2c-35.9-2.4-58.3-28-60.5-64.3c-3-48.5,2-96.4,26.8-139.2
			c9.3-16,7-24.2-5.2-36.2c-33.5-32.9-60.6-71-86.5-110c-91.2-137.5-198.1-261.5-317.8-375c-21.6-20.4-29.8-15.9-45.1,5.4
			c-147.5,205.3-206.4,436.9-208,686.4c-0.2,24.7,11.5,26.2,30.8,26.1c100.7-0.6,201.5-0.3,302.2-0.3c24,0,48,0.2,71.4,6.3
			c50,13,94.1,79.7,88.5,133.8c-4,39.3-33.1,57.1-99.3,62.4c-113.4,9-226.8,19.3-340.3,27.4c-24.4,1.8-23.1,12.2-18.7,30.1
			c32.1,131.4,84.7,254.1,154.6,369.8c12.4,20.4,19.4,20.2,36.1,3.8c217.8-214.3,477.9-313.8,783.8-280.7
			c175.1,18.9,332.9,84.4,475.1,188.4c-24.5,36.4-24.4,36.1-57.8,14.2c-156.9-102.6-328.2-160.9-516.6-163.8
			c-62.7-0.9-125.4,3.4-187,20.5c2.1,5.2,2.5,7.8,3.9,9.3c5.8,6,11.9,11.9,18,17.6c124.5,115,264.1,206.4,421.5,269.8
			c77.9,31.4,157.5,61.4,241.4,67.1c219.8,15,438.2-4.9,656.1-33.8c19.3-2.6,26.7-7.1,26.3-27.5c-2.9-125.7-22.5-248.1-70.5-364.8
			c-28.6-69.4-81.8-110.4-154.6-126.9c-50.6-11.5-101.8-16-153.5-14.3c-167.8,5.5-335.5,11.3-503.3,16.7
			c-80.5,2.6-117-20.2-148.5-92.8c-4.6-10.7-20.7-23.7,3.9-34.3c20.1-8.7,30.4-5.6,37.7,15.2c18.1,51.4,55,69.2,109,67
			c174.8-7.2,349.7-13,524.7-16.3c104.9-2,206.3,11.1,282.4,96.6c37.9,42.5,56.7,94.1,72.1,147c28,95.9,43.9,193.8,46.1,293.9
			c0.2,11.4-8.6,32,18.6,28.4c111.5-15.1,207.1-57.5,272.3-154.5c35.7-53.1,57.1-113.1,86.6-169.2c11.8-22.4,4.3-30.3-15.5-39.8
			c-75.4-36.3-141.1-86.2-196.5-148.9c-112.2-126.9-174.2-274.4-157.7-444.5c23.4-241,159.2-404.6,374.2-506.6
			c82.3-39,170.6-53.6,262.4-59c-2-8.2-3.1-14-4.9-19.6c-40.2-122-126.5-203-233.9-266.5c-154.4-91.3-322.9-123.2-499.6-123.5
			c-213.5-0.3-426.9-1.5-640,14.5c-216.8,16.3-430.8,47.9-638.2,115.9C698.2,764.8,532,847.1,394.8,980.7
			c-18.1,17.6-18.7,26.6,0.6,43.8c66.2,59.3,127.1,123.8,183.5,192.6c39.3,47.9,77.4,96.8,116.7,146
			c33.3-77.1,72.3-148.6,113.8-218.6c95.3-160.6,231.9-264.8,416.5-304.7c85.2-18.4,170.6-25.4,257.1-19.4
			c74.4,5.2,148.1,13.8,198.7,79.4c15.2-19.5,27.9-36.9,41.6-53.6c145.6-176.6,414.1-154.5,528.2,44.2c46.7,81.4,47.7,164.7-1,245.9
			C2178.4,1256.2,2026.5,1267.4,1947.6,1156.7z M796.8,1503.7c42.6,46.9,88.6,80.3,143.7,85.1c155.1,13.5,311.1,18.8,466.8,13.3
			c158.4-5.6,283.6-71.7,358.1-218.5c17.9-35.2,39.4-68.5,59.1-102.8c49.3-86.2,98.2-172.7,147.7-258.8
			c38.6-67.1,93.5-104.7,174.3-94.8c12.2,1.5,24.6,0.2,21.8,19.1c-2,13.3-1.2,28.7-21,25.8c-77-11.1-116.3,35.9-148.9,94.7
			c-29.8,53.8,6.5,120.5,67.6,122.8c126,4.9,211.4-131.9,158-253c-52.3-118.7-188.4-186.5-315.2-157.9
			c-69.2,15.6-118.4,58.1-163.1,110.8c-34.5,40.7-34,84.2-31.8,133.5c7.4,165.4-114,324.7-286,380.6
			c-104.1,33.8-212.4,47.4-319.9,64.4C1007,1484,905.9,1500.7,796.8,1503.7z M1153.2,1012.3c0-26.4-0.6-52.8,0.2-79.1
			c0.6-19.4-6.4-22.3-23.6-15.5c-64.2,25.4-121.3,61.3-170.9,109.6c-91.3,88.6-146.4,200.7-202,312.2
			c-44.2,88.7-24.8,117,74.3,115.8c87.9-1.1,173.9-18.1,260.2-31.2c116.9-17.8,236.1-28.9,346.6-73.6
			c129.3-52.3,213.7-148.6,229.4-289c14.4-128.8-37.5-174.3-126.9-188.7c-21.3-3.4-42.9-4.4-64.2-8c-22.7-3.9-32.7,3.8-33.7,27.4
			c-2,47.9-5.5,95.7-8.7,143.5c-4.8,71.3-49.5,120.3-119.2,132.3c-31.2,5.4-62,4.2-92.9-1.3c-43.6-7.8-66.8-34.2-68.4-78.8
			C1152.6,1062.7,1153.3,1037.5,1153.2,1012.3z M2300.6,1613.1c9.2,201.2,116.7,365.8,308.6,478.3c47.1,27.6,47.6,26.6,69.5-21.6
			c6.4-14.2,12-28.9,20-42.1c16.2-27,13.1-38.9-20.6-51.2c-307.5-112-379.9-498.6-132.8-705.8c95.9-80.4,208.1-109.8,332-97.5
			c13.4,1.3,30.4,8.4,30.1-16.4c-0.4-33.5-0.4-67.1-0.7-100.6c-0.1-18.2-8.7-25.6-27.3-23.1c-30.8,4.1-62.1,5.3-92.7,10.5
			C2515.5,1089.6,2308.8,1322.1,2300.6,1613.1z M2833.8,1625.9c4.1-3.7,6.9-4.9,7.4-6.8c32.1-121.9,50.7-246,61.2-371.5
			c1.8-21.8-9.5-25.9-26.7-28.1c-117.3-14.5-219.9,18.3-310.2,93.6c-15.8,13.2-12.2,21.3,0.1,33.4c25.6,25.2,50.1,51.6,75,77.5
			C2705,1491.4,2769.4,1558.7,2833.8,1625.9z M2829.8,1663c-122-3.6-241.3-7-360.7-10.9c-19.1-0.6-18.4,8.7-14.3,22.4
			c40.1,133.9,127.4,221.8,258.9,267c14.4,5,21.7-0.4,27-14.1C2773.7,1841.5,2805.9,1755.4,2829.8,1663z M307.6,1826.2
			c0-0.4,0-0.9,0-1.3c-41.9,0-83.8,0-125.7,0c-65.5,0-65.6,0-58.3,66.5c1.7,15.4,6.9,30.8,6.5,46c-0.7,26.8,13.8,27.6,34.4,25.6
			c56-5.4,112.1-9.3,168.1-13.9c64.4-5.4,128.8-10.1,193-17c14.8-1.6,36.1-0.5,36.3-25.5c0.2-38.5-32.3-78-72.1-79.8
			C429.2,1824.1,368.3,1826.2,307.6,1826.2z M1198.2,996.3c0.7,0,1.4,0,2.1,0c0,10.8,0.2,21.6,0,32.4
			c-2.2,97.2,7.4,105.8,105.2,94.5c40.4-4.7,68.4-28.3,78.1-68.3c13-54,4.5-110.1,14.3-164.4c4.3-23.9-7-28.3-28.1-26.3
			c-49,4.8-97.3,12.8-145.5,22.7c-22.6,4.7-28.3,16.2-26.5,37.6C1199.7,948.2,1198.2,972.3,1198.2,996.3z M2755.3,1611
			c-78.5-82.1-152.7-159.4-226.6-237c-11-11.6-16.4-2.7-21.8,4.9c-43.9,61.3-65.2,129.9-65.3,205.2c0,12.1,1.7,20.3,17.2,20.7
			C2555.1,1607.5,2651.4,1614.6,2755.3,1611z M1799.9,1423.2c-46.5,74.4-102.8,135.1-180.3,173.6c-12.5,6.2-14.3,15.4-12.2,26.5
			c3.1,16.4,7,32.7,11.2,48.9c7.5,28.9,27.4,38.5,54.7,31.5c32.4-8.4,64.4-18.6,93-36.7c16.4-10.4,31.2-22.9,34.8-43.6
			C1812.4,1556.9,1808.5,1490.4,1799.9,1423.2z M869,1741.2c14.4,0,28.7-0.1,43.1,0c9,0.1,17.3-1,17.6-12.5
			c0.8-28.7,6.4-58.5,0.2-85.7c-4.6-20-35.1-14-51.7-24.9c-5-3.2-10.8-5-16.2-7.7c-43.6-21.1-47.1-19.5-59.2,28.3
			c-1.5,5.8-2.1,11.8-3.1,17.7C785.9,1736.3,790.2,1741.6,869,1741.2z"/>
		<path class="st1" d="M1078.5,1915.1c-31.7-1.5-55.6-27-54.7-58.6c0.9-32,30-59.3,60.9-57.3c30.4,2,55.3,29.3,54.5,59.8
			C1138.4,1892.5,1112.2,1916.7,1078.5,1915.1z"/>
	</g>
</g>
</svg>
