<?xml version="1.0" encoding="utf-8"?>
<!-- Generator: Adobe Illustrator 23.0.0, SVG Export Plug-In . SVG Version: 6.00 Build 0)  -->
<svg version="1.0" xmlns="http://www.w3.org/2000/svg" xmlns:xlink="http://www.w3.org/1999/xlink" x="0px" y="0px"
	 viewBox="0 0 3000 3000" style="enable-background:new 0 0 3000 3000;" xml:space="preserve">
<style type="text/css">
	.st0{stroke:#000000;stroke-width:10;stroke-miterlimit:10;}
</style>
<g id="Layer_1">
</g>
<g id="Layer_2">
	<g>
		<path class="st0" d="M1740.6,2751.9c-215.4-3.5-441.8-6.3-666.8-34c-81-10-161.9-20.4-241.7-38.4c-93.9-21.1-175-62.9-233.3-141
			c-36.9-49.4-85.2-76.7-144.2-90.1c-39.2-8.8-77.9-20.5-116-33.4c-161.3-54.6-246.1-171.2-266.2-336.8
			c-12-98.9-15.3-198.4-0.7-297.6c12.4-84.5,37.3-165.2,86.2-235.9c47.5-68.7,60.2-142.4,51.3-224.5
			c-29.6-273.3,57.1-508.9,242.1-709C637,410.5,873.1,307,1139.6,266.6c161.2-24.4,324-20.8,486.4-20.2
			c213.2,0.8,426.2,8.5,637.9,37.4c91.2,12.4,181,31.1,269.8,55.9c145,40.5,238.2,128.6,296.9,270
			c85.4,205.7,106.9,418.5,104.9,636.6c-2.3,250.8-19.8,500.7-44,750.2c-7.5,77.6-15.4,155.1-32.4,231
			c-31.3,140-116.6,246-223.3,336.3c-139.5,118-299.7,181-484.2,184.2C2018.1,2750.3,1884.8,2752.3,1740.6,2751.9z M2825.8,730.2
			c-29.4-72.2-53.2-139.5-88.8-201.4c-9.3-16.1-22.4-30-33.8-44.9c-10.2-13.4-23.1-16.9-39.6-13.2
			c-96.5,21.7-189.9,51.7-276.7,100.4c-179.7,101-302.2,246.7-352.3,449.4c-24,97.1-34,196-37.8,295.5
			c-8.5,222.3-23.5,444.5-3.7,667.1c25.9,292.5,172.9,503.4,427.8,643.1c12.7,7,23.1,7.7,36.5,0.7c78.8-41.5,149.4-93.7,211.3-157.6
			c22-22.6,43.2-46.2,60.5-76.6c-70.5,7.6-137.9,9.4-205-1.5c-155.1-25.2-270.8-101.2-325.9-254.3c-18.5-51.4-30.2-104.7-35.7-159
			c-16.2-161.6-27.6-323.4-35.7-485.7c-8.3-167.1,26.8-322.4,108.1-467.9c85.3-152.7,211.6-251.2,383.9-287.1
			C2685.3,723.5,2752.6,718.6,2825.8,730.2z M409.6,1246.6c-43.7-2.7-79.6,0-115.2,8.8c-45.3,11.2-44.7,11.1-39,57.2
			c11,88.2,0.6,171.8-51.7,247.2c-25.1,36.2-45.3,75.3-59,117.7c-48.4,149.9-44.3,302-14,453.5c23.9,119.2,101.2,196.7,214.6,236.7
			c60.9,21.5,123.7,37.3,185.5,56.3c10.6,3.3,15.2-1,20.5-8.7c59-87.1,102.1-181.2,123.3-284.5c21.1-102.8,16-207.5,18.3-311.5
			c0.9-41.8,4.9-83.9,0-125.9c-4.7,0.5-6.7,0.2-8.3,0.9c-4.2,2-8.4,4.3-12.2,6.9c-57.3,37.9-90.9,91.5-100.7,158.9
			c-3.8,26.1-21.1,18.3-35.2,18.1c-21-0.4-13.8-16-11.8-26.8c16.3-90.4,63-160,145.2-202.4c18.8-9.7,23.4-20.4,21.4-39.1
			c-7.5-68.8-29.4-133.4-56.2-196.7c-6.5-15.3-13.2-14-24.7-5.3c-98.9,74.3-154.6,172.6-159.8,296.4c-1.2,28.8-17,26.1-33.7,27.4
			c-25.4,2-13.1-17.2-13.3-27.4c-0.3-16.8,0.9-33.8,3.8-50.4c20.9-119.3,79.6-215.3,178.7-285.6c13.6-9.6,13.7-15.6,3.7-27.9
			c-27.3-33.6-62-56.6-100.4-75.2c-17.2-8.3-28.2-5.2-41.1,9c-73.7,80.8-129.4,172.2-165.7,275.4c-4.2,11.9-5.9,22.5-24.3,17.7
			c-21.9-5.7-28.3-12.1-19.5-36.2C276.1,1427.4,332,1335.1,409.6,1246.6z M287,982.7c65.9-6.4,129.4-8.5,193-0.4
			c168.8,21.6,298.6,100.8,376.6,255.3c40.1,79.6,60.4,165.3,67.8,253.9c19.4,231,13.6,461.4-21.5,690.6
			c-21.6,141.2-58,279-107.4,413.1c-7.2,19.4-3,26.8,16.1,30.5c19.3,3.7,38.1,9.6,57.4,13.7c45.8,9.8,46.1,9.7,63.6-34.2
			c85.4-214.7,140.5-437,163.6-666.9c18.2-181.8,11.2-363.9-5.7-545.4c-8-85.4-27-168-76.6-241.3c-56.4-83.3-135.4-139.4-219-190.6
			c-126.4-77.4-263.4-125.9-409.8-147.6c-10.3-1.5-22-7.4-29.6,7C328.1,871.7,303.4,924,287,982.7z M887,1747.7
			c2.7-120.2,0.2-240.3-26.7-358.2c-25.9-113.7-75-214.3-174.3-282.9c-121.9-84.2-258.6-92-399.7-76c-12.9,1.5-16,9.2-18.5,20.5
			c-10.8,48.7-16,98-18.1,147.8c-0.8,18.6,5.9,20.2,20.8,15c26.8-9.4,54.8-12.9,82.9-14.8c107.9-7.3,201.4,25.1,270.1,110.2
			c72.1,89.4,104.3,195.7,113.9,308.9c10.5,123.8,1.2,247.6-0.6,371.5c-2,138-37.8,266.6-106,386.4c-14.7,25.9-44,52.8-41.5,76.6
			c2.5,24.1,37,44.3,56,67.3c21.7,26.3,45.5,49.6,74.8,67.4c16.4,9.9,26.6,13.1,33.3-10.9c13.5-47.8,31.1-94.4,45-142
			C863.8,2210.3,889.3,1980.8,887,1747.7z M2629.5,430.4c-57.4-31.1-112.1-47.7-167.5-61.4c-155.4-38.5-313.9-54.9-473.3-63.7
			c-262.6-14.6-525.4-21.4-787.7,1.6c-213.3,18.8-409.3,89.7-583.1,217c-83.2,60.9-154.6,133.6-214.1,218.1
			c-11.5,16.4-16.9,25.1,10.5,28.7c34.3,4.5,68.8,11.1,101.5,22.1c26,8.7,39.8,1.1,56.4-18.2c207.1-241.2,470.7-366.4,787.7-377.5
			c340.5-11.9,676.9,15.3,1004.7,115.3c9.9,3,20,6.1,30.1,1.1C2467,477.4,2542.9,451,2629.5,430.4z M2799.5,2262.2
			c-42.1,6-82,3.6-122-0.1c-248.3-23-418.5-209.3-412.7-456.9c3.2-139.8,6.5-279.8,22.6-418.8c26.1-225.2,144.4-381.7,357-463.7
			c63.6-24.6,130.8-33.5,199.1-30.4c18.2,0.8,24-4.2,18.5-21.7c-1.7-5.3-1.9-11.1-3.2-16.6c-22.2-89.7-0.1-78.3-98.1-81.3
			c-172.3-5.3-319.9,53.6-427.5,191.5c-111.8,143.2-164.3,308.1-159.6,490.3c2.8,107.9,7.9,215.8,18.3,323.3
			c9.1,94.2,12.6,189,32.8,282.2c29.9,137.5,107.1,231.2,244.1,271.2c93.8,27.3,188.8,26.6,284.4,10.2c9.5-1.6,15.4-5.6,19.6-13.6
			C2782.9,2307.8,2793.6,2288.1,2799.5,2262.2z M2050.2,842.8c-3.8-11.1-14.6-13.9-23-18.8c-124.4-72.1-257.6-116.2-401.6-124.8
			c-274.9-16.5-506.6,80.5-703.3,269.1c-12.3,11.8-8.7,16.5,2.6,24.6c30.6,21.9,61.7,44.9,82.4,76.1c27.2,40.9,58.5,62.9,109.9,54.3
			c16.5-2.7,28.3-3.1,39-18.4c56.2-80.1,129.2-140.7,219.4-179.1c193.1-82.1,414.8-32.9,571.2,125.5c6.6,6.7,10.9,20.4,23.8,15.3
			c9.9-3.9,9-15.7,10.8-24.5c13.4-63.6,33.4-124.9,61.6-183.5C2045.6,853.4,2047.8,848.2,2050.2,842.8z M598.1,816.2
			c21.1,8.1,41.4,11.9,56.9,22.6c55.1,38.4,93.4,18.3,142.3-20.4c278.6-220.6,596.7-308,949.5-262.2
			c137.7,17.8,268.7,60.1,393.1,122.4c8.2,4.1,16.3,14.2,27.1,2.7c46.5-49.2,99-91.4,156.9-128c-3-2.7-3.9-4.4-5.3-4.8
			c-7.1-2.3-14.4-4.3-21.6-6.3c-315.1-88.9-636.9-111.1-962.3-96c-217.6,10.1-412.5,81.9-582.8,218.4
			C696.1,709.3,645.4,759,598.1,816.2z M2591.9,1465.6c0.2,248.9-18,438.2-52.3,625.9c-16.4,89.6-17.1,89.4,72.9,111.5
			c1.8,0.4,3.6,0.9,5.4,1.5c17.9,5.5,25.5,0.2,30.1-19.6c54.4-232.3,81.2-467.6,78.3-706.2c-2-163.7-18.2-326-46.2-487.3
			c-4.4-25.2-12.2-32.3-35.4-19.9c-24,12.8-48.5,24.5-73,36.3c-14.5,7-18.9,15.8-16.2,33.3C2579.9,1201,2592.3,1361.8,2591.9,1465.6
			z M2888.5,1277.9c2-106.1-1.4-212-13.1-317.5c-1.9-17-7.3-23.9-25.7-23.4c-37.6,0.9-74.8,4.4-112,10.2
			c-15.2,2.4-17.9,8.1-15.1,22.3c33.9,174.5,49.7,350.7,50.9,528.3c0.7,108-4,215.8-15.6,323c-13.6,125.7-33.7,250.5-64.5,373.3
			c-3.7,14.9-3.9,25,16.8,23.7c28-1.7,56.2-1.2,84.4-1.6c14.3-0.2,21.7-6.2,23.7-21.4c6-44.6,15.3-88.8,19.7-133.5
			C2863.7,1800.8,2884.6,1539.9,2888.5,1277.9z M2481,2142.4c73.1-362.8,84.5-722.8,28.4-1088.5c-8.9,6.9-14.4,10.3-19,14.7
			c-41.8,39.8-74.1,86.3-103.3,136.1c-13,22.1-10.7,38.1-3,58.3c31.2,82.7,50.7,168.3,60.7,256.1c19.8,172.7-2,340.3-62.9,502.8
			c-6.2,16.5-4.7,27,6.6,40.2C2414.4,2092.2,2443.4,2118.4,2481,2142.4z M1920.7,1094.2c-109.3-133.5-311.3-192.3-482.5-141.3
			c-99,29.5-176.2,89.9-238.2,171c-4.5,5.9-17.7,13.5-5.5,23c25.9,20.1,36.8,48.7,48.2,77.7c9,22.9,30.6,11.2,46.6,13
			c17.1,1.9,11.8-13.5,11.9-22.4c0.5-44.1,0.4-88.3,0.1-132.4c-0.1-16.6-2-30.9,23.3-30.9c23.8,0,25.3,11.3,24.8,29.6
			c-0.9,35.7-0.3,71.3-0.3,107c0,50.6,0,49.5,50.7,48.6c20.8-0.4,27.5-6.5,26.9-27.6c-1.5-51.6,0-103.3-0.7-154.9
			c-0.3-17.2,3.6-25.5,23.2-25.6c20.2-0.1,25.7,7.3,25.3,26.5c-1.1,49.7-0.9,99.5,0.1,149.3c0.2,8.6-7.7,28.3,11.7,23.4
			c15.8-4,45.7,11.6,45.4-24.7c-0.5-49.8,0.4-99.5-0.4-149.3c-0.3-16.6,1.9-25.7,22.3-25.3c19.4,0.3,26.5,5.8,26,25.7
			c-1.2,46-0.5,92-0.2,138c0,6.9-3.5,15.9,5.8,19.8c16.6,7,43-11.9,41.5-30.1c-2.8-33.6-5.3-67.4-10-100.8
			c-2.9-20.3,3.1-26.8,23.7-30.1c22.4-3.6,22.7,8.1,24,22.8c2.7,30.8,7.2,61.6,7.6,92.5c0.3,21.5,6.1,23.4,25.9,19.1
			c28.1-6.1,39.4-17.1,31.1-47c-7.2-26-7.9-53.9-14.8-80.1c-5.2-20,1.5-25.2,19.7-29.7c22.2-5.5,25.7,6.4,28.2,22.5
			c4.4,28.7,8.3,57.4,13.5,86c1.3,7.1-1.4,21.7,15.1,15.6C1835.1,1136.5,1878.2,1116.7,1920.7,1094.2z M776,894.6
			c23.3,14.3,45.8,24.9,64.4,40.2c23.2,19,36.9,13.7,57.3-6.3C1206,627.4,1648.2,564.4,2022.1,767c17.3,9.4,35.5,28.3,51.2,26.3
			c18.1-2.3,23.2-31.4,37.8-45.5c19.2-18.6,11.5-26.2-9.4-36.1c-247.6-116.3-505.4-150.1-773.6-94.8
			C1120.6,659.7,938.4,754.1,776,894.6z M1081.6,2297.7c-5.4,19.3-10.5,37.2-15.5,55.2c-12,43.2-12,43.3,29,60.5
			c311.7,130.4,624.8,134.9,939.3,10.1c54.7-21.7,53.5-21.1,25.2-72c-11.6-20.8-21.3-23.9-43.6-15
			c-207.4,82.5-420.9,104.2-640.6,61.5C1273.6,2378.2,1176.7,2344.5,1081.6,2297.7z M964,2654.9c104.6,17.7,208,28.1,311.7,34.7
			c235.4,15.2,471.1,16.4,706.9,13.8c105.1-1.1,210.5,2.2,314.3-18.9c28.2-5.7,57.5-8.7,85.5-25.9c-46.2-26.6-88.9-52.4-126.4-85.2
			c-16.6-14.6-30.4-15-50.2-8.2c-310.3,105.7-626.7,129.2-949.2,69.2c-80.3-14.9-159.3-34.6-236.8-60.5c-8.5-2.8-20.7-13-27.1,5.5
			C984.1,2604.1,974.1,2628.4,964,2654.9z M2191.6,2520c-21.5-23.9-41.6-43.7-58.7-65.9c-11.3-14.7-20.5-13.1-35.5-6.5
			c-333,146.8-668.5,150.9-1006,15.6c-50.7-20.3-49.2-20.7-68.2,30.1c-8.4,22.5-5.7,31.3,18.8,39c284.3,90.5,573.5,109.9,867.4,61
			C2004.6,2577.5,2098.2,2554.3,2191.6,2520z M1579.6,2371c-44.4-76-69.9-153.9-63.3-236.8c3.4-42.6-11.4-59-45.8-73.8
			c-34.9-15-68.9-22.1-102.2-1.8c-86,52.6-133.2,128.7-135.5,231.1c-0.4,17.8,7.4,24.9,23,28.9c39.9,10.1,79.3,22.7,119.5,31.4
			C1442,2364.3,1509.6,2371.8,1579.6,2371z M1221.3,1724.1c70.5,36.3,141.6,60.8,217.1,74.5c168.1,30.5,328.2,7.8,481.2-67.4
			c7.1-3.5,17.3-4.9,17.3-16c0.1-51.1,0.1-102.2,0.1-153.5c-8.1,0.1-11.5,6.5-16.4,10.4c-78.6,61.7-165.9,105.3-263.9,126.7
			c-127.3,27.7-251.7,17.4-373-29.6c-16-6.2-25.2-5.5-33.4,11.2C1243,1695.4,1231.9,1708.5,1221.3,1724.1z M1538.2,1992.7
			c-1.2-120.3-105.6-184.8-207.1-127.4c-121,68.3-201.4,168.8-222.6,310.2c-3.7,24.8-21.7,53.3-10.8,72.7
			c11.6,20.5,44,25.6,67.8,36.5c0.9,0.4,1.8,0.5,2.6,1c15.3,8.8,18.8,2.1,19.3-13c2.8-87.5,41.7-158.3,104.4-216.8
			c58.1-54.2,132-80.5,212.3-29.5c23,14.6,29.6,10.1,33.2-17.5C1538,2002.3,1538,1995.7,1538.2,1992.7z M1926.2,2071.3
			c-53.5,3.6-105,7.4-156.5,10.4c-43.5,2.6-62.7,21.6-63.3,65.5c-0.2,14,1.1,28.2,3.5,42c8.9,50.2,12.6,101,6.3,151.4
			c-2.7,21.7,0,25.4,20.2,22.4c92.2-13.6,181.5-37.2,268.2-71.4c16.1-6.3,16.1-13,9.9-26.6c-24.1-53.2-41.7-108.8-51.4-166.1
			C1958.7,2072.4,1947.9,2065.2,1926.2,2071.3z M1672.1,2288.3c0.5,0,0.9-0.1,1.4-0.1c-1.8-18.6-3.3-37.3-5.6-55.9
			c-3.9-32.5-10-64.8-7.7-97.8c4.2-58.5,40.7-94.7,98.8-98.4c40.2-2.6,80.5-4.8,120.5-9.6c22.5-2.7,54.3,9.2,65.3-10.2
			c9.6-17-1.5-45.3-2.1-68.6c-0.3-14.6-5.3-20.4-20.2-17.8c-60.4,10.7-121.6,4.6-182.4,10.1c-87.6,7.9-147,53.7-170,138.8
			c-23.1,85.6,0.6,165.1,34.8,242.4c10.2,23.2,34.1,22.1,54.3,18.8c20.3-3.3,9.9-22.6,12.6-34.8
			C1673.1,2299.8,1672.1,2293.9,1672.1,2288.3z M1965.2,1128.7c-35.1,3.8-45.5,28.9-56.4,55.8c-74.6,184.5-241,290.9-439.8,283.8
			c-65.4-2.3-127.5-18.7-195.2-42c14,25.6-8.8,56.3,26.9,71.1c221.2,91.5,466.4,26.9,610.8-161.7c15.3-20,34.6-39.7,38.7-64.5
			C1957.9,1224.2,1960.5,1176.4,1965.2,1128.7z M1942.7,1373.7c-4.5,4.9-8.2,9-11.9,13.1c-164,181.3-363.8,237.5-598.6,171.5
			c-14.3-4-32.2-15.7-42-10.8c-13.9,6.9-3.9,28.7-8.2,43.5c-0.5,1.8-0.5,3.8-1.2,5.5c-6.5,15.9,0.2,23,15.6,28.5
			c234.9,82.9,446,44,632.4-122.6c6.1-5.4,13.8-10.3,13.9-20.1C1942.7,1446.9,1942.7,1411.6,1942.7,1373.7z M1155.2,1714.6
			c37.6-22.2,71.3-69.6,76.9-116.1c14.9-124-7.5-245-37.4-364.4c-13.9-55.4-53.4-73.9-113.8-61.8c41.8,84.3,54.6,175.2,61,267
			C1148.3,1530.8,1151,1622.5,1155.2,1714.6z M2352.3,1313.9c-8.8,4.7-8.2,9.8-9.1,14.2c-12.5,67.4-15.6,135.7-19.7,204
			c-7,117.9-13.5,235.8-8.1,354c1.6,34.5,7.6,68.3,27.6,104.5C2423.6,1762.9,2423.5,1539.9,2352.3,1313.9z M1862.2,1175.4
			c-78,31.7-147.8,61.1-221.8,71.5c-57.3,8.1-79.1,41.7-91.5,89.8c-4,15.4-7,31.1-9.1,46.8c-4.8,35.8-2.1,38.2,32.4,31.5
			c79.7-15.4,147.7-53,204.2-110.6C1811.1,1269,1838.7,1228.4,1862.2,1175.4z M1521.8,1272.9c-85.3,8.4-166.4,16.7-248,12.9
			c-6.2-0.3-15-1.2-13.8,8.8c3.1,25.1,4.8,50.7,12,74.7c5,16.8,26.4,14.1,40.5,19.5c51.1,19.4,104.1,30.7,158.8,32.9
			c9.9,0.4,21.3,3.4,20.6-13.8C1490.1,1362.3,1503.1,1319.5,1521.8,1272.9z M1937.4,1775.5c-127.9,61.8-257.8,87.4-399.3,83.7
			c25.3,31.6,37.8,63,46.4,98.9c53.9-50.8,117.7-65.3,185.8-67.7c47.7-1.6,95.5-0.1,143.2-5.7c19.2-2.3,25.6-8.8,24.3-28
			C1936.1,1831.6,1937.4,1806.2,1937.4,1775.5z M1315.7,1817.7c-43.3-18.1-83.9-34.5-122.8-54.9c-12.9-6.7-38.4,9.1-39.6,24.8
			c-4.3,57.5-7.4,115.1-11.3,179.6C1194.1,1905.6,1248.2,1856.3,1315.7,1817.7z"/>
		<path class="st0" d="M488.8,1978.6c48.9-0.1,83.3,28.2,94.9,72.6c16.7,64-16.3,144.2-73.2,177.9c-65.7,38.9-136.8,5.4-146.2-70.3
			c-8.5-68.2,17.1-122.7,73-162.5C454.4,1984,474.2,1978.4,488.8,1978.6z M409.5,2136.7c-0.1,23.8,4.8,45.2,27.4,57.5
			c20.1,10.9,38.7,3,54.7-9.3c38.9-30,54.9-70.5,46.9-118.7c-6.2-37.4-39.6-52.2-72.1-32.5C428.4,2056.8,411,2092.6,409.5,2136.7z"
			/>
	</g>
</g>
</svg>
