<?xml version="1.0" encoding="utf-8"?>
<!-- Generator: Adobe Illustrator 23.0.0, SVG Export Plug-In . SVG Version: 6.00 Build 0)  -->
<svg version="1.0" xmlns="http://www.w3.org/2000/svg" xmlns:xlink="http://www.w3.org/1999/xlink" x="0px" y="0px"
	 viewBox="0 0 3000 3000" style="enable-background:new 0 0 3000 3000;" xml:space="preserve">
<style type="text/css">
	.st0{stroke:#000000;stroke-width:10;stroke-miterlimit:10;}
</style>
<g id="Layer_1">
</g>
<g id="Layer_2">
	<g>
		<path class="st0" d="M1944.5,252.6c13.2-63.2,55.2-94,109.8-111c76.8-23.9,155.5-34.7,235.6-24.1c82.4,10.9,151,50.3,203.8,113.6
			c90.4,108.3,148,232,156.8,374.3c12.8,206.9-94.9,384.8-282.9,473.6c-36,17-73.5,29.8-115.7,44.3c32.5,27.4,61.8,53.5,87.4,83.4
			c102.2,119.2,157.3,256.7,158.1,414c1.2,221.5,2.2,443-0.2,664.5c-3.7,349.5-287.8,630.1-636.9,631.2
			c-275.6,0.8-551.2,0.9-826.8,0.4c-327.2-0.6-592.1-228.4-641.4-551.6c-5.2-34.2-6.6-69.2-6.7-103.8
			c-0.6-202.1,0.5-404.2-0.5-606.3c-1.1-213.1,76-389.8,241.2-525.8c18.3-15.1,9-21.4-1.8-32.2c-93-92.5-160.2-200.3-193.5-328
			c-11.4-43.7-15.2-88.7-15.1-133.5c0.2-91.8,1.6-183.7,10.5-275.1C442,200.7,539.5,100.4,698.7,85.6C801.1,76,903,86,999.4,124.4
			c109,43.5,154.9,126.4,141,242.8c-4.5,37.4-7.2,75.1-15.5,112c-18.3,81.6-64.3,117.9-147.6,115.7c-26.5-0.7-52.8-4.6-79.3-5.6
			c-36.2-1.4-65.3,14.5-88.2,41.4c-19.6,22.9-30.1,49.1-17.6,79c12.4,29.8,38.7,40.8,68.2,44.3c40.7,4.9,79.3-3.6,115.1-23.2
			c118.2-64.5,183.5-164.4,197.6-297.9c3.3-31.4,3.7-63.2,7.3-94.6c9.8-86.6,57.2-150,129.5-193.5c125.7-75.7,260.9-87.5,401.3-50.2
			C1814.4,122,1873.1,162,1944.5,252.6z M622,1199.9c-112.8,113-179.3,241.3-182.4,393.7c-4.8,236.7-6.3,473.6-0.4,710.2
			c7.7,306.6,265.6,558.2,572.8,562c285.7,3.5,571.5,3.2,857.2,0.1c279.1-3,520.8-207.6,566.3-484c28.2-171.1,11.2-345.1,8.7-520.5
			c-9.7,7.8-18.5,14.2-26.6,21.4c-54.6,48-114,89.2-175.8,127.3c-163.5,100.7-343.1,153.4-532.2,176.3c-18,2.2-23.6,9.6-28.5,24.6
			c-13.2,40.6-27.9,80.8-42,121.1c-24.9,71.5-49.8,142.9-76.3,218.9c-4.8-11.1-7.8-17.4-10.3-23.8c-37.9-97.7-77.1-195-112.6-293.6
			c-12.1-33.5-27-53.9-65.2-53c-16.8,0.4-33.9-4.9-50.5-9c-353.6-86.6-569.6-312.2-664.7-659.4C632.3,1412.4,625.3,1310,622,1199.9z
			 M1725.2,780.3c0.4,0,0.8,0,1.1,0c0,22.4-0.5,44.9,0.1,67.3c0.6,23.5,2.5,46.9,3.5,70.3c2.9,68.7,2.9,70.3,72,68.4
			c135.4-3.6,264,19.6,381.4,90.7c7.9,4.8,14.7,5,24.9,2.9c45.3-9.2,88.4-24.3,129.6-44.2c168.4-81.3,265-212.2,262.3-402.9
			c-2.2-155.7-65.4-288.4-175.1-398.4c-30-30.2-67.5-49.8-109-59.3c-92.3-21.2-182.1-9-269.7,24.3c-33,12.6-49.1,38.5-52.1,72.7
			c-4,46.1,0,92,10.3,136.7c11.2,49.2,42.9,67.9,93.1,61.4c30.4-3.9,51.4-22.9,73.7-40.7c35.5-28.3,71.4-26.4,104.1,4.6
			c61.6,58.5,66.1,154.6,9.9,218.3c-38.7,43.8-90.1,65.9-144.3,82.1c-71.3,21.3-126.3-3.6-158.5-71.7
			c-42.6-90.1-58.9-186.4-60.8-285c-1.3-70.6-26.7-129.1-84.8-167.7c-155.7-103.6-319.6-114.7-486.7-29.9
			c-79.9,40.5-120.6,108-121.8,200.3c-1.2,88.7-18.4,174.7-69.9,249.7c-64.8,94.5-146.7,165-266.4,175.2
			c-55.3,4.7-106.2-9.2-138.7-59.8c-27.3-42.4-22.1-86.2,2.3-127.3c29.7-49.9,74.8-76.9,133.3-79.4c24.4-1,48.8,1.2,73.2,4.3
			c69.4,8.7,100-14.6,113.9-83.1c7.9-39.1,11.2-78.6,15.1-118.2c6.7-68.2-24.4-127.7-86.6-158.1c-103.4-50.5-214.3-59.1-325.5-44.5
			c-111.8,14.7-178.4,87.1-197.9,199.1c-3.3,19-5.8,38.4-6.7,57.6c-5,101.9-15.3,204.3-3.1,305.8c18.1,150.4,96.8,270.2,203.5,373.8
			c11.9,11.5,19.4,4.8,28.9-0.7c105.7-61.9,220.1-89.3,342.2-88.5c95.9,0.7,191.9-0.2,287.8,0.5c17.3,0.1,25.4-2.4,24.6-22.9
			c-1.1-29.7,11-56.2,32.9-76.5c29.6-27.4,40.3-62.2,46.5-100.4c12.1-75.5-1.3-150.8-0.7-226.2c0.4-41.6,17.6-72.6,52.5-94.1
			c48.9-30.2,99.7-34.2,151.2-7.3c57.4,30,81.7,81.3,84,143.1C1726.9,661.9,1725.2,721.1,1725.2,780.3z M1217.8,1037.8
			c-60.2,0-120.4-0.4-180.6,0.1c-53.2,0.4-105.5,7.4-157.6,18.6c-28.7,6.2-39.5,19.7-42.2,48.4c-10.4,108.8-5.8,216.5,25.7,321.2
			c71.5,237.9,218.5,402.1,465.6,463.8c103.2,25.7,207.5,24.1,312.9,10.5c320.8-41.5,567.3-201.6,752-463.2
			c10.9-15.4,12.1-27.8,4.3-44.6c-78.5-168.9-206.3-280.3-385.2-332.9c-92.7-27.3-187.9-20.3-282.6-22.4c-25.2-0.6-30.9,7.8-29,31.3
			c5.3,65.6,2.2,130.5-23.7,192.4c-18.5,44.2-44,83-87,107.1c-55.2,31-115.3,9.5-132.2-50.9c-21.9-78.3-29.9-156.9,23.6-228.3
			c3.6-4.8,6.5-10.5,8.5-16.2c9.5-26.5,3.7-34.9-24.7-35C1383.1,1037.7,1300.5,1037.8,1217.8,1037.8z M788.4,1090.7
			c-37.2,14.4-66.1,33.3-95.3,51.8c-11.7,7.4-15.2,16.5-15.9,30.1c-6,110.9,3.2,220.4,32.2,327.5c86,318,281.5,530.8,603.9,616
			c162.7,43,327.3,33.6,491.6,4.1c242-43.3,449.8-152.7,628.5-319.8c10.5-9.8,14.8-20.2,14.6-34.7c-0.9-50,0.5-100-0.8-150
			c-1.1-44.3-5.8-88.4-19.2-130.9c-9.5,1.3-10.9,8.3-14.4,12.9c-176.6,234.2-403.8,387.9-695.2,442.3
			c-151.7,28.3-303.5,35.8-450.8-13.7c-274.8-92.2-420-296-473.1-573C778.1,1267.5,778.2,1180.8,788.4,1090.7z M1680.4,787.7
			c-7-66.3-0.9-132.7-8.6-198.9c-3.6-30.9-15.7-57.1-41.2-75.5c-33.8-24.4-69.8-25.7-106.8-7.5c-34.2,16.8-38.8,46.3-35.3,80.3
			c5.6,54.9,5.8,110.1,3.8,165.2c-2.5,65.6-15.2,127.9-67.1,174.9c-8.7,7.8-12.1,18.7-14.9,29.7c-5.3,21.2-0.9,31.9,24.8,31.5
			c73.5-1.4,147-1.4,220.5,0c22.9,0.4,26-7.8,25.5-28.3C1679.3,901.9,1680.4,844.8,1680.4,787.7z M1980.9,485.4
			c14.6,60.8,25.1,117,54,167.1c19.7,34.3,43.4,43.4,82.3,35.6c41.8-8.4,78.9-27.1,112.1-52.8c51.3-39.7,59.4-100.2,21.8-151.5
			c-20.1-27.5-31-28.9-56.4-7.6C2125.6,534.2,2059.1,538.1,1980.9,485.4z M1651.8,1108.3c0.2-70.6,0.2-70.6-71.1-70.4
			c-2,0-4.1,0.2-6.1,0c-19.3-2.6-30.7,2.2-30.3,25.2c0.3,16.3-4.6,33.1-15,45.9c-38.4,46.9-41.2,100.2-30.8,156.3
			c4.5,24.6,3.8,54.6,33.1,63.4c29.7,8.9,49.8-12.7,66.8-33.5c10.9-13.2,20-28.4,27.5-43.8C1647.7,1206.2,1652,1157.6,1651.8,1108.3
			z M1478.8,2194.1c27,69.7,52.4,135.2,81.2,209.2c26.2-75.1,49-140.9,72.8-209.2c-44,0-84.6,0-125.2,0
			C1499.4,2194.1,1491.3,2194.1,1478.8,2194.1z"/>
		<path class="st0" d="M2021.7,2174.7c92.9-0.4,165.6,70.6,166.7,162.7c1,90.4-73.2,165.8-164.2,166.9c-90.6,1.1-165.3-73-166-164.5
			C1857.4,2246.8,1928.6,2175,2021.7,2174.7z M2022.1,2451.4c65.7,0.3,114-47.5,114.1-112.9c0.1-63.8-50.7-114.8-114.1-114.4
			c-62.1,0.4-112.4,50.6-113.1,112.7C1908.3,2401.4,1957.3,2451.1,2022.1,2451.4z"/>
		<path class="st0" d="M1001.8,2235.5c90.3-0.4,162.8,71.1,164.3,162.1c1.5,90.1-72.5,165.6-163.9,167.2
			c-90.7,1.6-165.6-72.1-166.4-163.8C834.9,2306.9,906,2236,1001.8,2235.5z M1000.5,2512.9c64.7-0.3,114.1-50,113.7-114.4
			c-0.4-63.9-51.4-114-115.3-113.3c-62.1,0.7-112.2,51.1-112.6,113.3C885.8,2462.1,936.9,2513.2,1000.5,2512.9z"/>
	</g>
</g>
</svg>
