<?xml version="1.0" encoding="utf-8"?>
<!-- Generator: Adobe Illustrator 23.0.0, SVG Export Plug-In . SVG Version: 6.00 Build 0)  -->
<svg version="1.0" xmlns="http://www.w3.org/2000/svg" xmlns:xlink="http://www.w3.org/1999/xlink" x="0px" y="0px"
	 viewBox="0 0 3000 3000" style="enable-background:new 0 0 3000 3000;" xml:space="preserve">
<style type="text/css">
	.st0{opacity:0.57;}
	.st1{stroke:#000000;stroke-width:10;stroke-miterlimit:10;}
</style>
<g id="Layer_1" class="st0">
</g>
<g id="Layer_2">
	<g>
		<path class="st1" d="M1147.5,849.9c54-20.2,103.3-38,154.5-49.5c17.5-4,17.5-15.6,17.6-28.9c0.7-100.8-38.5-182.5-117.4-244.8
			c-12.9-10.2-20.4-17-8.3-34.9c12.9-19.1,21.2-19.9,38.7-5.6c86.1,70.6,134.3,159.6,135.5,271.8c0.2,21.1,4.6,29.2,26.7,22
			c13-4.2,27.2-5.3,40.8-7.5c47.3-7.8,47.7-7.8,48.6-54.6c1.1-56.4,2.1-112.9,1.8-169.4c-0.1-21,5.8-28.9,28.8-28.7
			c25.2,0.2,23.1,13.4,22.6,30.2c-1.6,61.4-1.8,122.8-3.9,184.2c-0.7,20,3.5,27.4,25.7,26.2c80.2-4.4,160.4-1.1,240.2,9.1
			c7.7,1,15.7,0.1,26.2,0.1c-7.8-19-15.9-36.7-22.5-54.9c-32-89-33.9-176.9,15.6-260.4c53.1-89.6,157.3-132.5,258.2-109
			c100.6,23.4,170.3,105.7,182.8,209.6c12.5,103.9-1.1,201.4-59.1,290.2c-7.3,11.2-4.9,14.7,6,21.9c29.1,19.3,52.2,18.1,82-3.6
			c114.7-83.2,194.3-190.9,235.3-326.1c7.9-26,19.5-19.4,36.3-16.2c22.4,4.2,15.9,17.6,12,30.8c-41.7,142.4-123.2,251.3-272.1,363.7
			c-1.2,4.6,1.6,7.1,4.8,9.5c143.4,106.4,224.7,252.1,269,421.9c52.8,202,32,398.7-30.2,595.9c-61.7,195.7-190.3,320.9-378.3,392.2
			c-71.4,27.1-144.6,47.3-218.9,64.3c-6.6,1.5-13.6,1.5-20.2,9.8c84,10.5,165.6,22.8,245.4,44.2c60.4,16.2,119.2,36.4,169.9,75.1
			c149.1,113.8,129.1,307-40.6,389.8c-31.5,15.4-65,23.5-99.6,27.9c-16.2,2.1-25.4-0.2-29.3-21.2c-4.1-21.9-0.2-25.1,20.7-27.5
			c86.8-9.8,152.4-51.5,188.4-133.8c22.6-51.8,17.4-100.3-17.5-145c-39.1-50.2-91.1-81.2-150.7-100.9
			c-110.6-36.7-225-55.1-340.6-62.9c-232.7-15.6-463,0.9-688.5,64c-196.4,54.9-341.6,166.6-399.3,371.4c-7,24.9-22,13-36.8,11.3
			c-22.7-2.7-14.6-14.9-11-27.1c61.9-211.2,209.2-334,413-397.6c37.4-11.7,75.7-20.7,113.3-32.7c-154.5-13.7-305.2-44.6-454.2-85.5
			c-141.9-39-263.5-107.6-361.9-219.6c-114-129.7-110.7-281.8,15.7-400.7c21.6-20.3,45.3-38.4,68.6-56.7c7.5-5.8,14.9-8,6.3-19.7
			c-52.1-71.2-48.7-150.4-28.7-230.2c23.6-94.2,83-167.7,145.9-238.2c48.8-54.8,102-105.4,160.5-149.9c14.3-10.9,18.2-18.9,6.7-35.3
			c-18.8-26.8-32.8-56.9-41.1-88.5c-5-19-13.3-24.7-32.5-24.4c-69.3,1.2-138.7,0-208,0.8c-19.1,0.2-30.7-0.3-30.1-25.8
			c0.6-23.6,11-24.6,29-24.4c65.4,0.7,130.8-0.4,196.1,0.6c19.8,0.3,27-3.9,26.6-26c-3.5-191.6,102-317.7,291.9-350.8
			c11.4-2,25.2-6.5,26.1,12.7c0.6,13.7,12.1,30.8-15.3,35.1c-35.9,5.7-70.7,16.5-103.8,33c-122.1,60.9-178.5,197.7-138.1,338.2
			c9.6,33.4,23.2,65.1,41.3,94.9c7.2,11.8,12.7,14.5,25.1,5.7c61.5-43.6,127-80.6,195.8-111.4c10.5-4.7,15.1-10.3,13.4-22.5
			c-4.3-32.4-6.9-64.9-11.2-97.3c-3.6-27-18.4-45.1-45.7-52.1c-23-6-46.2-13.6-69.9-11.6c-28.1,2.4-23-16.5-24.5-32.4
			c-2.2-22.8,15.2-16.4,26.1-16.6c32-0.8,62.9,6.1,93,16.6c60.5,21,69.6,72.7,75.3,126.3C1143.5,807.7,1145.3,827.3,1147.5,849.9z
			 M1448.3,2402.1c33.7,0,67.4-1.1,101,0.3c32.3,1.3,59.1-10,85.5-27.5c165.6-109.8,291.2-252,360-440.6
			c51.1-139.9,76-282.5,44.2-431c-10.1-47.4-36.3-78.3-81.9-96.2c-101.3-39.8-206-63-314.5-69.4c-104.8-6.2-209.8,2.7-306.1,42.3
			c-122,50.1-221.6,134-292.4,247.1c-16,25.6-26.5,15.4-43.6,5.9c-25.3-14-3.7-25,2.4-34c125.8-185.5,297.9-293.6,524-308.6
			c22.2-1.5,29.6-9.8,34.5-30.2c33.3-138,68.1-275.7,102.2-413.6c9.6-38.7,9.4-38.9-29.6-38.8c-241.4,0.6-465.7,62.7-670.2,191.4
			c-146.6,92.3-273.8,205.8-367.7,353c-38.3,60-55.5,126.8-48.6,198.2c4,41.4,14.5,80.9,55.6,102c32.8,16.9,67.9,27.8,105.2,27.6
			c61.7-0.2,122,8.7,182.1,22.6c16.3,3.8,23.5,8.8,17.9,25.1c-4.5,13-4.7,30.8-27.8,24.1c-18.9-5.5-38.6-8.3-57.9-12.5
			c-58.3-12.5-121.9,1.6-176-20.6c-57.2-23.4-90.3,1.8-126.5,34.4c-9.6,8.6-19.1,17.3-28.4,26.2c-97.4,93.8-103.9,208.6-18.5,312.9
			c84.1,102.8,190.4,170.4,317.3,208.8C1005,2366.2,1224.4,2398.7,1448.3,2402.1z M1702,2391.2c23.8-1.4,44.5-0.5,64.4-4.2
			c102.7-19.2,205.1-40.6,304.8-71.9c124.1-38.9,240.3-91.6,326.2-195.4c55-66.5,83-145.3,108.6-225.7
			c56.1-175.6,67.6-352.7,20.4-532.2c-25.9-98.5-63.8-191.2-125.5-273.1c-7.3-9.7-12.2-20.6-26-5.1c-99.2,111.8-199,223-298.8,334.2
			c-7.3,8.2-10.1,15.1-5.3,26.3c26.9,63.2,35.1,130.5,32.1,197.7c-12,268.5-112.1,497.2-314.7,677.6
			C1761,2343.5,1732.4,2365.9,1702,2391.2z M2054.3,811.6c25.8,8,48,13.3,68.8,21.9c18,7.5,26,0.9,35.5-13.6
			c53.2-81.5,65.1-171.1,50.4-264.7c-14.4-92-73.3-151.9-155.8-164.1c-84.8-12.5-165.8,28.2-201.1,104.9
			c-34.5,74.9-26.4,149.8,6.1,223.9c17.5,39.9,37.5,74,88.8,71.1c8.6-0.5,17.9,1.8,26.1,4.7c15.3,5.5,25.5,0.2,36.5-10.6
			c58.9-58,79.7-161.5,47.2-236.9c-8.8-20.4-23.1-31.6-45.2-31.7c-24.7-0.1-49.7-1.5-74.1,1.4c-26.9,3.2-28.2-11.6-29.7-31.4
			c-1.9-24,14.2-18.5,27-18.7c21.8-0.4,43.5-0.6,65.3-0.5c63,0.3,93.9,23.9,110.3,85.6C2135.5,647,2118.7,732.9,2054.3,811.6z
			 M2152.2,897.4c-2.5,17.1-3.4,31-6.7,44.3c-35.2,138.4-88.5,270-153.8,396.7c-10.1,19.6-7.9,24.7,10.4,36.5
			c24.4,15.7,39.1,13.9,55-9.2c9.4-13.8,21.9-25.4,33.1-38c83.1-92.9,166.1-185.9,249.5-278.5c9.1-10.1,14-16.8,1.5-28.6
			C2286,968.7,2225.5,925.2,2152.2,897.4z M1890.3,830.8c-50.1-6.1-97.9-11.3-145.5-17.9c-17.9-2.5-24.2,4.7-27.5,21.3
			c-5.6,28.1-13.8,55.6-20.6,83.4c-30.2,122.4-60.4,244.7-90.7,367.8c35.2,2.9,68.5,5.6,101.9,8.3c8.2,0.7,13.9,0.5,17.4-10.2
			c18.2-55.3,40.8-109.3,56-165.4C1808.1,1019.9,1841.4,924.4,1890.3,830.8z"/>
		<path class="st1" d="M1535.9,2807.3c20.7,1.1,41.5,1.4,62.1,3.3c31.4,2.9,37.3,10.7,31.4,42.4c-8.5,45.5-37.3,75.7-78,93.7
			c-58.8,25.9-119.2,25.8-178,0.3c-44.8-19.4-49.5-54.5-14.7-88.6c33.7-32.9,76.5-43.3,121.1-48.4c18.5-2.1,37.4-0.4,56.2-0.4
			C1535.9,2808.9,1535.9,2808.1,1535.9,2807.3z"/>
		<path class="st1" d="M806.9,136.4c41.8,0.5,77.3,36.1,77.8,77.9c0.5,42.8-36.6,79.7-79.4,79.1c-41.9-0.6-77.9-36-77.2-78
			C728.8,169.2,760,140.9,806.9,136.4z"/>
		<path class="st1" d="M2275.2,57.3c42.9,0.3,77.1,34.1,77.4,76.6c0.3,43.2-35.8,78.7-79.5,78.2c-42.6-0.5-77-35-77.3-77.4
			C2195.5,91.1,2230.5,57,2275.2,57.3z"/>
		<path class="st1" d="M1082.8,259.9c-42.6-0.9-76.7-36-76.1-78.3c0.7-43.6,36.4-77.5,80.9-76.5c42.4,0.9,76.7,36.2,76.1,78.4
			C1163.1,226.9,1127.3,260.8,1082.8,259.9z"/>
		<path class="st1" d="M1575.5,383.9c-0.9,42.5-36.2,76.6-78.5,75.9c-43.6-0.7-77.4-36.5-76.4-81c0.9-42.4,36.4-76.6,78.5-75.9
			C1542.7,303.6,1576.5,339.4,1575.5,383.9z"/>
		<path class="st1" d="M2022.6,212.2c-43.5,0.2-79.4-35.9-78.6-79c0.7-42.6,35.1-76.3,78-76.4c44.8-0.1,78.4,33.9,77.9,78.8
			C2099.3,178.8,2065.9,212,2022.6,212.2z"/>
		<path class="st1" d="M1703.5,174.9c0.3-45.2,30.4-76.9,78.1-79.3c41.7-2.1,77.8,34.9,78.8,76.7c0.9,42.3-36.5,81.8-79.1,79.3
			C1735.3,249,1705.2,219.6,1703.5,174.9z"/>
		<path class="st1" d="M1398.8,240.4c0.5,44.6-33.4,78.9-78,78.8c-42.2-0.1-77.5-34.7-78.2-76.5c-0.7-41.6,34.3-77.7,76-78.5
			C1364.1,163.4,1398.3,195.9,1398.8,240.4z"/>
		<path class="st1" d="M1590.9,164.4c43.2,0.5,76.7,34.1,76.7,77.1c0,43.9-35.2,78.3-79.6,77.7c-42.3-0.6-77-35.5-77.1-77.6
			C1511,198.2,1546.5,163.9,1590.9,164.4z"/>
		<path class="st1" d="M2675,363.4c0.3,43.5-35.7,79.7-78.7,79.2c-42.3-0.5-76.6-35.2-76.9-77.8c-0.3-44.1,34.8-79.6,78.4-79
			C2640.2,286.2,2674.7,320.9,2675,363.4z"/>
		<path class="st1" d="M589.9,522.1c-0.1,44.6-34.5,78.1-79.3,77.4c-42.7-0.7-76.6-35.2-76.4-77.9c0.1-43.4,36.2-78.4,80-77.6
			C557.3,444.8,590.1,478.6,589.9,522.1z"/>
		<path class="st1" d="M651.6,432c-44-0.7-77.6-36.2-76.5-80.8c1.1-43.2,34.9-75.5,78.6-75.1c43.3,0.4,79,37.3,77.4,80.1
			C729.7,398.1,693.4,432.7,651.6,432z"/>
		<path class="st1" d="M2582.2,203.8c-0.7,42.6-35.2,76.6-77.8,76.7c-43.3,0-79.7-36.8-78.6-79.5c1.1-41.4,37.4-77.3,78.6-77.5
			C2547.1,123.1,2582.9,160.1,2582.2,203.8z"/>
		<path class="st1" d="M477.2,783.3c-37.4-1-64.3-29.5-63.1-66.9c1.1-36.5,31.1-65.1,67.3-64.3c35.3,0.7,65.7,32,65.4,67.2
			C546.5,756.7,516.4,784.3,477.2,783.3z"/>
		<path class="st1" d="M1482.3,1865.3c-29.2-0.2-54.9-0.7-80.2-6.4c-44.1-10-67.2-34.4-71.6-78.9c-8.4-85.7,29.6-151.6,92.1-204.8
			c68.3-58.1,147.8-82,237.3-67c59.4,9.9,96.7,47.1,106.2,104.2c21,125.4-34.2,205-167,239
			C1559.8,1861.4,1519.7,1868.6,1482.3,1865.3z M1481.6,1818.1c54.4,0.1,106.1-12.4,156-32.2c71.5-28.4,105.4-114.6,74-185.4
			c-8.8-19.9-23.1-33.2-44.8-39.7c-85.1-25.7-193.5,14.3-251.5,93.5c-24.8,33.8-38.6,70.6-36.4,113.1c1.4,27.1,13,42.2,40.9,44.3
			C1440.5,1813.2,1461,1815.9,1481.6,1818.1z"/>
		<path class="st1" d="M1100.3,2008.8c0.4,41.3-26.9,69.7-67,69.9c-38.8,0.2-70.2-30.5-70.2-68.6c0-38,31.5-68.7,70.4-68.4
			C1072.4,1941.9,1100,1969.6,1100.3,2008.8z"/>
		<path class="st1" d="M1189.4,1954.9c-39.2-0.4-68.9-31.2-68.1-70.4c0.9-38.9,32.3-68.7,71.3-67.5c36.2,1.1,67.5,33.2,67.5,69.1
			C1260,1923.9,1227.7,1955.3,1189.4,1954.9z"/>
	</g>
</g>
</svg>
