<?xml version="1.0" encoding="utf-8"?>
<!-- Generator: Adobe Illustrator 23.0.0, SVG Export Plug-In . SVG Version: 6.00 Build 0)  -->
<svg version="1.0" xmlns="http://www.w3.org/2000/svg" xmlns:xlink="http://www.w3.org/1999/xlink" x="0px" y="0px"
	 viewBox="0 0 3000 3000" style="enable-background:new 0 0 3000 3000;" xml:space="preserve">
<style type="text/css">
	.st0{stroke:#000000;stroke-width:10;stroke-miterlimit:10;}
</style>
<g id="Layer_1">
</g>
<g id="Layer_2">
	<g>
		<path class="st0" d="M1401.2,1492c1.4-75.2-4.8-151.1,15.5-225c12.8-46.6,31.6-90.7,57.5-131.8c57.7-91.3,143.5-137.6,247.4-153.8
			c132.7-20.8,265.8-35.5,400.1-15.7c78.2,11.5,155,27.4,222.7,71.5c7.5,4.9,10.7,4.7,17.2-2.3c79.5-85.4,174.8-79,242.4,16.5
			c7.8,11,11.2,9.4,18.9,0.9c77.4-84.2,165.6-82.3,269.8-48.2c38.6,12.6,62.3,43.9,76.2,81.9c6.8,18.6,7.2,36.8-8,51.3
			c-9.2,8.8-5.9,16.6-2.8,26c14,43,21.9,87.1,22.4,132.4c0.2,20.9,0.3,41.9-9.2,61.3c-4.2,8.6-2.8,17.4-1.5,26
			c8,52.9,7.3,105.5-3.1,158c-1.1,5.6-2.1,10.6,0.1,16.4c33.9,87.3,15.5,170.3-22.5,251c-6.5,13.8-10,21.6,5.6,32.8
			c21,15,22.6,40.4,7.8,62.2c-14,20.5-33.4,36.3-56.4,43.4c-77.9,23.9-157.2,38.3-239.4,27.9c-56.2-7.1-101.8-32.6-137.2-76.5
			c-5.8-7.2-9-14.2-19.7-4.2c-59.6,55.9-134.7,75.7-212.4,78c-129.1,3.8-258.4,6.5-387.7,3.1c-78.7-2.1-157.3-4.6-236-6.8
			c-110.8-3.2-175.8-52.9-219.7-155.3C1404.7,1709.4,1399.6,1601.6,1401.2,1492z M2492.5,1000.3c-48.9-6.8-93.8,13.8-116,50.5
			c-2.9,4.8-7,9.2-2.7,15.2c22.1,31,16.7,65.2,12.7,99.8c-6.2,53.4-10.4,107-15.8,160.5c-0.8,7.6-0.8,16.7-13.6,14.4
			c-10.3-1.9-9.7-7.9-8.9-15.9c6.8-63,12.7-126.1,20.2-189.1c4-33.8-7.4-59.4-34.2-79.4c-32.2-24-69.4-36.8-107.3-47.3
			c-117.6-32.4-237.3-37.2-358.1-24.3c-71.8,7.6-144.2,12.2-213.3,35.1c-134.2,44.6-195.3,150.2-223.2,278.8
			c-19.3,89.2-8.9,180.9-10,271.6c-0.2,14.3,8.3,17.2,18.8,20.1c174.3,48.7,351.3,65.5,531.6,47.6c88.1-8.8,174.4-26.1,259.5-49.7
			c6.3-1.8,15.7-11.4,20.8,4.3c5.1,15.8-6.9,13.3-14.1,15.3c-28.6,7.9-56.9,17.6-86.1,22c-20.6,3.2-27.5,13.5-32.3,31.3
			c-22,81.8-55.7,158.7-98.2,231.9c-11.5,19.8-24.3,38.9-37,59c51.2,0,99.9-1.3,148.5,0.6c20.8,0.8,31.8-7.6,42.6-23.6
			c68.5-101.2,103.7-212.6,105.7-334.8c0.2-9.1-5.4-23.9,11.8-23.3c18,0.7,9.5,16,9.4,24.2c-2.5,122.5-36,235.7-104.2,338
			c-3.7,5.6-10.3,10.4-8.6,19.9c62.7,3.3,124.7,0.2,185.9-15.2c92.9-23.4,153.6-78.5,176.9-173.5c39.5-161.4,58.2-325.2,63.5-491
			c0.5-16.6-4.4-16.9-19.1-14.9c-54.2,7.2-105.9,0.8-140.1-48c-34.2-48.9-29.3-101.4-5.9-153.5
			C2460.9,1036.2,2475.6,1019.4,2492.5,1000.3z M2640.5,1660.8c0.8-13.6,1.3-27.2,2.3-40.8c7.8-102.4,22.2-203.9,37.7-305.3
			c6.8-44.3,15-88.6,32.7-130.3c14.6-34.5,38.4-52.9,78-51.8c41.6,1.1,83.4-1.8,125.1-3c35.1-1,42.9-13.2,28.8-45.6
			c-19.6-45.2-57.2-62.9-103.1-72.6c-81.7-17.4-152.9-5.3-209,61.7c-7.7,9.2-11.6,17-7.5,30c8.4,26.9,10.3,55,11.1,83.2
			c4.6,160.3-9.4,319.1-39.5,476.4c-13,68.2-23.1,138-62.5,198.1c-6.4,9.7-0.2,14.7,4.4,20.9c31.6,41.9,73.9,65,125.7,72.2
			c59.8,8.3,118.1-1.8,176.6-12.7c34.4-6.4,67.3-14.9,92.1-41.9c19-20.7,15-39.7-10.8-50.8c-18.1-7.8-36.7-5.7-54.3-0.1
			c-53.5,16.8-105.5,10.2-158.5-3.8c-37.4-9.9-57.3-31.9-64.6-68.6C2637.6,1737.7,2638.1,1699.4,2640.5,1660.8z M1426.1,1629.8
			c4.4,62,20.6,117.5,42.4,172.3c34.9,87.6,92,142.4,191.3,144.9c19.6,0.5,31.1-4.8,42.2-19.4c53.6-70.1,88-147.9,102-235.4
			c3.9-24.2-2.6-27.4-24.1-27.8c-111.9-2.1-221.5-20.5-329.4-49.4C1431.6,1609.9,1420.7,1608.1,1426.1,1629.8z M2782.2,1837.4
			c19.7,1.6,37.9,0.5,56-4c18.6-4.6,37.1-11.5,56.5-9.7c14.8,1.4,21.2-6.1,27.4-17.7c27.5-51.3,39.5-106.1,40.5-163.9
			c1.2-68.9-26.6-112.2-91.4-137.1c-46.7-17.9-95.4-27.2-145.5-29.1c-46.6-1.8-46.6-1.6-51.4,45.7c-0.9,8.8-1.9,17.6-3.7,26.2
			c-4.2,20.5-0.8,28.1,24.2,25.5c69.5-7.4,128.6,28.2,151.2,86.2c22.7,58.3,0.6,124.4-56.1,167.5
			C2787,1829.1,2782.7,1830.3,2782.2,1837.4z M1826.2,1953.8c45.1,0,83.5-0.1,121.8,0.1c7.3,0,11.5-3,15.6-8.9
			c61.3-89.1,107.2-185.5,136.5-289.7c2.8-10,2-14.9-10.9-12.5c-44.9,8.5-90,15.2-135.7,17.5c-11.9,0.6-16.3,5-17.2,17.2
			c-2.1,26.3-5.3,52.5-11.5,78.4C1907.8,1827,1876.4,1891.1,1826.2,1953.8z M2876.8,1153.5c0,0,0,0.1,0,0.1
			c-9.6,0-19.5,1.3-28.8-0.3c-25.1-4.2-38.3,9.2-48.6,29.3c-17.5,34.3-17.7,70.4-15.6,107.8c4.2,74.4,54.3,103.5,128.2,85.9
			c32.1-7.6,44.6-25.6,47-58.6c2.7-38-2.9-75.2-10.9-112.1c-12-55.1-12.3-55-68.8-52.2C2878.4,1153.6,2877.6,1153.5,2876.8,1153.5z
			 M2944.7,1524.2c12.2-29.8,13.2-91.4,1.9-138.3c-5.9,2.7-11.4,6-17.4,7.9c-82.2,25.6-164.5-0.7-167.7-111.9
			c-1.3-44.8,2.2-87.8,30.1-127.2c-26-3-41.8,6.6-52.7,26c-9.5,16.9-15.2,35.3-20.1,53.9c-16.6,63.7-22.3,129.4-33.8,194.1
			c-3.5,19.5,1.5,24.6,22.5,25.4C2792.3,1457.2,2875.4,1468.1,2944.7,1524.2z M2660.8,1677.2c-0.3,36.8-3.2,73.9,9.5,109.6
			c9.7,27.1,47.1,46.6,73.7,39.1c62.1-17.6,102.2-88.2,85.1-149.7c-16.5-59-86.2-96.6-147.7-80.2c-10.8,2.9-16.5,6.6-16.7,18.9
			C2664.3,1635.6,2662.2,1656.4,2660.8,1677.2z M2614.1,1175.2c-0.4-5.7-0.2-18.6-2.1-31.2c-7.9-53-23.9-101.3-75.1-129.6
			c-12.6-7-21.2-5.8-31.6,4.3c-23,22.5-38.7,49.2-46.1,80c-19.7,81.5,27.8,142.1,109.9,141.4c47.3-0.4,49.7-3,46.2-50.6
			C2615.1,1187.1,2614.9,1184.7,2614.1,1175.2z M1710.6,1950.7c27.9,0,49.5-0.9,71,0.3c13.6,0.8,22-4.3,30.4-14.5
			c56.2-67.9,88.7-145.9,100.4-232.8c5.3-39.4,4.8-39.5-33.8-38.8c-12,0.2-24.1,0.7-36.1,0.5c-9.5-0.2-14.6,2.7-15.8,13.2
			C1815.5,1778.1,1777.6,1866.7,1710.6,1950.7z"/>
		<path class="st0" d="M1355,1484.9c0,53.8,0.3,107.6,0,161.4c-1.1,182.4-139.9,321.5-322,322.5c-69.1,0.4-138.1-0.7-207.2-0.2
			c-61.2,0.5-117.4-15.7-168.7-48.3c-11.5-7.3-20.7-7.3-33.2-3.2c-84.1,27.9-168.8,38.8-254,4.5c-12.3-5-19.8,1.4-28.4,6.9
			c-32.4,20.6-67,35.8-106.2,33c-49.3-3.5-82.1-33.4-107.3-72.9c-36.5-57.2-52.5-122-64.2-187.6c-24.7-138.2-30.6-277.5-16.3-417.2
			C64.4,1121.1,174,1011,336.2,989.3c108.1-14.5,210.9,4.4,310.3,46.3c12.1,5.1,21.4,5.2,33.3-1.1c45.4-24.1,94-35.8,145.7-35.5
			c69.9,0.4,139.7-0.5,209.6-0.1c179,1.1,318.2,140.3,319.9,319.7C1355.4,1374.1,1355,1429.5,1355,1484.9z M1010.1,1020
			c-69.6,0-134.3,0.4-199-0.2c-24.9-0.2-41.8,11.3-56.2,30.5c-29.7,39.7-47,83.6-49.3,133.3c-0.4,9-3,15.7-13.9,15.1
			c-12.6-0.8-7.6-10.4-7.4-16.3c0.7-28.4,7.4-55.4,17.7-81.9c8.9-22.9,22.8-43.1,36.5-65.8c-111.5,31-200.8,137.8-208.3,251.5
			c-7.2,108.2-1.3,216.8-2.9,325.2c-0.3,18.4,7.3,15.2,18.5,9.1c63.7-34.7,130.7-61.3,201-78.6c17.1-4.2,22.8-9.4,21.3-28.5
			c-5.7-72.6,44.4-129.9,116.8-135.3c29.7-2.2,58.7,1.7,76.1,30.4c7.3,12,11.6,5.7,17.8,0.1c24-21.6,51.3-28.5,82.5-18.8
			c55.2,17.2,88.5,61.1,86.8,118.9c-0.5,16.8,4.9,22.2,19.8,24.9c34.8,6.3,68.5,16.8,102,27.9c20.4,6.7,46.3,27.3,59.3,18.1
			c15.5-10.9,5.2-41.5,4.9-63.3c-1.1-81,6.2-162.4-4.1-243.1c-7.8-61.2-34.9-114.1-78.7-159.9c-30.4,41.2-43.4,85.9-44.8,134.3
			c-0.3,9.1-1.8,15.9-12.9,15.9c-13,0-7.8-10.1-7.9-15.7c-0.5-48.5,12.3-93.7,39.4-133.9c9.6-14.2,7.2-21-5.5-30.6
			c-47.4-35.5-100.1-56.5-159.1-62.7c-15.6-1.6-25.2,2.7-34.5,15.2c-31.5,42.7-44.2,90.1-39.1,142.7c0.8,8.1,5.5,18.3-8.8,20.2
			c-15.1,2-11.6-10.7-12.7-17.6c-2.9-17.4-2.3-35.1,0.2-52.7C970.8,1090,985.6,1055.1,1010.1,1020z M928,1948.7
			c55.3-2.2,111,4.7,165.8-6.6c149.1-30.7,249.5-164.2,241.1-318.4c-0.7-13.6-7.7-17.7-17.8-21.7c-264.3-104.5-522-90.4-773.1,43
			c-12.6,6.7-16.2,14.5-15.4,28.6c7.7,124.2,103.1,236.2,226.6,265.9C812.4,1953.3,870.4,1946.4,928,1948.7z M502.2,1608.5
			c-2.6,4.7-5,9.6-7.9,14.1c-28.4,44-100.4,51.5-137.3,14.4c-36.1-36.4-40-124.6-7.2-164c12.7-15.3,27.3-15.9,40.9-1.6
			c11.3,12,16.6,27.1,22.2,42.2c1.7,4.5-0.1,12.7,8.8,11.5c6.6-0.8,9.1-6.3,10.3-11.9c3-14.1,4.2-28.7,13.4-40.6
			c7.6-10,17.3-18.4,30.5-15.5c12.7,2.8,18.6,13.3,20.7,26.2c1.3,7.9,4,15.6,6,23.4c3.3-40.1,3.7-79.4,3.2-118.6
			c-0.9-69.2-2-138.3,29.5-202.8c5.3-10.9-0.7-11.7-9.3-12.1c-27.4-1.3-54.5,1.4-81.6,4.5c-121.5,13.8-211.8,95.6-226.7,216.8
			c-15,121.9-6.2,243.6,33.6,361.1c16.2,47.7,41.7,90.7,83.7,120.8c90,64.6,185.6,49.3,287.2,19.9
			C533.7,1817.9,499,1721.8,502.2,1608.5z M640.4,1055.7c-99.8-40.7-198.6-61.2-302.2-45.2C184,1034.2,92.5,1125.7,69,1279.3
			c-11.1,72.5-8,145.9-5.3,218.9c3.8,102.8,14.4,205,47.1,303.4c13.5,40.6,31.3,79.3,62.8,109.7c18.3,17.7,39.4,29.3,68.9,28.1
			c-5.4-10.1-9.4-17.7-13.6-25.3c-28.1-50.9-50.9-104.1-60.6-161.4c-21.1-124.4-30.3-249.6-31-376
			c-0.6-117.2,55.2-196.1,152.5-250.9c90.3-50.8,186.4-53.4,284.9-29.8c7.3,1.7,14.4,7.5,22.3-0.3
			C610.1,1082.8,623.9,1070.8,640.4,1055.7z M192.3,1485.9c0-24.9-2.4-50,0.4-74.5c10.4-91.1,58.6-199.3,183.6-239.3
			c48.8-15.6,98.7-22.5,149.5-18.5c21.1,1.7,32.3-6.1,42-22.8c5.7-9.9,5.3-13.2-6.3-15.9c-32.2-7.7-64.8-11.4-97.8-11.4
			c-91.7-0.1-170.3,31.8-236.8,95.5c-59.4,56.9-68.6,128.5-68.6,205.3c0,81.3,8.3,161.7,16,242.4c8.3,86.9,25.9,171,68.5,248.5
			c26.8,48.7,30.3,49.7,79.2,20.6c12.3-7.3,14.8-11.5,1.8-21c-49.8-36.7-78.5-87.9-97.7-145.3
			C197.5,1663.9,192.5,1575.1,192.3,1485.9z M953.8,1473.1c-1.4-11.9-2.4-23.9-4.3-35.7c-3.4-21.7-16.9-33.7-38.1-37.2
			c-70.2-11.7-128.8,43.7-122.1,114.5c1.2,12.9,5,16.2,17.6,13.5c36-7.6,72.5-12.3,109.3-13.8C954.9,1512.9,954.9,1513,953.8,1473.1
			z M471.7,1477.3c-16.2,12.7-16.1,28.4-19.1,43.1c-3.5,17.3-15.9,26-32.3,27.6c-16.6,1.6-23.7-9.5-27.6-24.3
			c-2.6-9.9-7.2-19.5-11.6-28.8c-7-14.9-13.9-13.3-20.2,0.7c-14.1,31.3-15.9,63.3-5.4,96.1c11.2,34.8,36.7,51.5,73.5,47.5
			c32.6-3.5,53.7-25.8,57.8-60.7C490.8,1544.3,482.3,1512.1,471.7,1477.3z M1127.6,1505.9c-0.4-47.5-35.2-88.9-79.9-97.2
			c-23.3-4.4-41.6,3.5-58.8,19.2c-20.6,18.8-13.3,42.5-15.2,65c-1.2,14.6,2.8,19,17.8,19.7c38.3,1.8,76.7,4.4,114.6,9.4
			C1123.3,1524.2,1130.8,1522.2,1127.6,1505.9z"/>
		<path class="st0" d="M1941.2,1293.6c-25.8,0.5-51.5-0.9-76.9-5.1c-53.5-8.9-86.1-46.2-88.5-100.9c-2.4-54.5,26.6-97,80.9-106.3
			c69.4-11.9,139.9-23.9,210.1-6.8c44.2,10.8,69.3,47,72.7,96.2c3.1,44.9-20.5,85-61,103C2034.6,1293.2,1987.6,1291.1,1941.2,1293.6
			z M1981.4,1270.2c24.3-0.3,55.4-2.4,85-14.6c58.6-24.2,70.7-110.5,20.1-149.2c-22.1-16.9-49.3-24.2-74.9-12.3
			c-51.3,23.9-83.2,64.8-88.7,122.5C1917.6,1272.7,1918.4,1272.8,1981.4,1270.2z M1971.1,1091.7c-14,0-22.7-0.7-31.2,0.1
			c-24.7,2.5-49.7,4.1-74,8.7c-50.1,9.6-75.2,47.3-67.7,98.8c6.3,43.5,45.4,73.1,92.2,70.6c9.6-0.5,12.5-3.2,11.3-12.8
			C1893.5,1191.3,1917.8,1138.2,1971.1,1091.7z"/>
		<path class="st0" d="M1802.1,1438.8c-0.5-30.2,22.7-53.8,52.6-53.7c28.2,0.1,52.2,23.6,52.8,51.8c0.6,28.8-24.3,54.1-53.3,54
			C1825.7,1490.8,1802.6,1467.6,1802.1,1438.8z M1855,1468.8c18.2-0.3,31.7-14.4,30.2-32.7c-1.5-18.7-12-29.1-31.1-28.8
			c-19.1,0.3-29.2,11.9-30.9,29.9C1821.5,1453.7,1837.9,1469,1855,1468.8z"/>
		<path class="st0" d="M2304.2,1239.4c0.2,30.1-23.4,53.9-53.1,53.4c-27.5-0.5-51.9-24.9-52.2-52.4c-0.3-29.2,24.2-53.4,53.7-53
			C2281.7,1187.7,2303.9,1210.2,2304.2,1239.4z M2252.4,1271c18.4-1.7,29.1-12.2,30.8-30.3c1.6-16.7-14.4-31.7-31.8-31.7
			c-18,0-31.5,14.1-30.3,32.5C2222.2,1260.6,2233.7,1269.5,2252.4,1271z"/>
		<path class="st0" d="M1641.1,1172.9c-29.8-0.3-52.5-24.1-51.8-54.4c0.7-28.8,24.2-51.7,52.7-51.4c29.2,0.3,53.2,25.5,52.2,54.7
			C1693.3,1150.3,1669.6,1173.1,1641.1,1172.9z M1648.7,1090c-24.6-0.4-39.7,13.3-38.4,30.7c1.3,18.2,11,29.4,30.5,29.9
			c19.1,0.4,32-11.9,31.5-30.8C1671.7,1100.5,1661.2,1091,1648.7,1090z"/>
		<path class="st0" d="M2018.9,1459.2c-29.9-0.1-53.3-24.1-52.5-53.8c0.8-28.8,23.8-51,52.9-50.8c29.9,0.1,53.7,24.4,52.8,53.7
			C2071.3,1436.8,2047.7,1459.3,2018.9,1459.2z M2049.4,1406.2c-0.5-19.2-11.2-29.3-29.7-30.5c-18.2-1.2-31.2,12.7-30.9,31.7
			c0.3,19.4,10.9,29.4,29.6,30.4C2037.2,1438.8,2049.5,1425.6,2049.4,1406.2z"/>
		<path class="st0" d="M1704.7,1430.2c-30-0.4-52.6-24.3-51.6-54.4c1-28.9,24.1-50.6,53.3-50.2c28.7,0.4,52.2,23.8,52.5,51.9
			C1759.1,1406.4,1734.2,1430.6,1704.7,1430.2z M1736.1,1377.8c-0.8-18.9-11.1-29.4-29.5-31c-18-1.6-31.6,12.5-31.6,31.1
			c0,18.7,13.3,32.5,31.5,31.1C1724.9,1407.4,1735.3,1397.1,1736.1,1377.8z"/>
		<path class="st0" d="M2229.7,1051.7c30.4,0,51.4,20.2,51.8,49.5c0.4,30.3-22.3,52.8-53,52.6c-29.6-0.2-51.5-22-51.7-51.4
			C2176.6,1071.9,2197.8,1051.6,2229.7,1051.7z M2260.3,1101c-0.5-17.9-14.9-31-33.4-29.6c-19.2,1.5-29.2,13.2-28.8,31.5
			c0.5,18.6,12,29.2,30.7,30C2246.8,1133.7,2260.8,1118.9,2260.3,1101z"/>
		<path class="st0" d="M2222.1,1377.9c0,32.1-19.7,51.3-52.4,51.1c-30.9-0.2-49.5-19.5-49.5-51.2c0-31.7,18.7-50.9,49.6-51.1
			C2202.6,1326.4,2222.1,1345.5,2222.1,1377.9z M2202.5,1379.4c-0.7-20-16.2-34.6-33.6-32.6c-18.5,2.1-28.8,13-28.8,32
			c0,17.8,15.4,31.8,33.1,30C2192.1,1407,2200.9,1395.1,2202.5,1379.4z"/>
		<path class="st0" d="M1626.1,1211c31.8-0.1,53.2,20.7,52.8,51.5c-0.4,29.6-21.6,50.4-51.9,50.5c-31.3,0.1-53.3-21.5-52.9-51.9
			C1574.6,1231.7,1595.9,1211.1,1626.1,1211z M1627.1,1230.4c-18.8,1.6-30,11.2-31.6,29.9c-1.5,17.5,13.2,32.7,30.8,32.9
			c17.5,0.2,32.5-14.6,31.4-32.3C1656.5,1242.1,1645.4,1232.5,1627.1,1230.4z"/>
		<path class="st0" d="M922.2,1703.1c41.1,0.4,74.8,31.7,74.6,69.3c-0.2,37.3-34.5,69-75.1,69.2c-41.7,0.3-75.9-32-75.1-71
			C847.2,1732.3,880.3,1702.7,922.2,1703.1z M922,1819.5c30.1-0.4,52.7-21,52.5-47.7c-0.2-27.5-24.4-48.2-55.5-47.4
			c-28.9,0.8-52.6,23.3-51.6,49.2C868.4,1799.9,892.2,1820,922,1819.5z"/>
	</g>
</g>
</svg>
