<?xml version="1.0" encoding="utf-8"?>
<!-- Generator: Adobe Illustrator 23.0.0, SVG Export Plug-In . SVG Version: 6.00 Build 0)  -->
<svg version="1.0" xmlns="http://www.w3.org/2000/svg" xmlns:xlink="http://www.w3.org/1999/xlink" x="0px" y="0px"
	 viewBox="0 0 3000 3000" style="enable-background:new 0 0 3000 3000;" xml:space="preserve">
<style type="text/css">
	.st0{opacity:0.65;}
	.st1{stroke:#000000;stroke-width:10;stroke-miterlimit:10;}
</style>
<g id="Layer_1" class="st0">
</g>
<g id="Layer_2">
	<g>
		<path class="st1" d="M1854.5,143.2c-167.2-7.5-334.1-8.3-497.7,34.9c-135.1,35.7-250.5,103.5-342.4,210
			c-73.2,84.9-95.2,187.3-101.9,294.8c-2.6,40.9,2.4,82-3.8,122.9c-5.8,37.7-20.1,71.2-45.1,99.8c-38.6,44.2-37.2,93.2-16.1,143.2
			c21.5,51,59.3,82.2,116.7,84.7c40,1.7,80.1,2.8,119.5-6.7c37.3-8.9,50.8-23.9,51.4-62.4c0.7-45,15.9-82,52.7-109
			c16.6-12.2,24.6-29.5,25.6-48.9c1.6-31.3,23.6-19.7,39.4-20c23-0.4,11,16.3,10.4,25.6c-2.4,34.8-18.7,62.6-46,84.3
			c-16,12.7-27.9,27.2-29.6,49.7c-3,40,28.5,72.2,67.8,61.2c40.6-11.4,82.7-20.6,113.8-55.6c29.3-32.9,83.6-16.8,108.9,29.1
			c49.1,88.9,6.7,219.5-85.5,263.3c-91.8,43.6-186.6,29.6-261.7-38.4c-4.9-4.5-8.1-11.6-18.7-12.1c-1.3,45.9-12.9,88.1-49.4,119.6
			c-26.5,22.8-56.1,39.2-91.9,37.8c-16.7-0.7-21.4,7.2-26.6,20.6c-31.6,80.9-110.6,116.3-192.6,88.9c-24.5-8.2-42.3-22.4-53.6-44.5
			c-6.8-13.3-12.4-14.2-24.9-6.9c-111,65.5-189.4,155.5-218,284.1c-16.3,73.2,1,136.7,53.3,190.5c45.7,47,127.5,87.1,186.2,91.1
			c-3.5-19.6-7.7-38.7-10.2-58.1c-11.2-88,18.4-158.7,89.5-212.8c65.4-49.7,137.6-84.7,216.5-106.8c68.2-19.1,123.4,3.5,165.2,56
			c23.2,29.2,50.2,38.8,84.6,40.3c92.3,4.2,183.9,6.9,271.9-29.8c39.9-16.6,68.7-47.2,102.6-71.6c69.8-50.3,148.6-73,234.6-52.1
			c42.1,10.2,67.7,57.7,57,102.8c-20.3,86-77.9,140.1-157.4,172c-21.1,8.5-31.4,17.7-33.6,41.7c-2.7,29.5-11.5,58.7-19.2,87.5
			c-4.5,16.9-3.9,25.1,16.8,20c214-53.4,344.4-238,262.3-466.6c-40.3-112-139.1-150.2-247.5-100.6c-30.2,13.8-58.1,31.4-84.6,51
			c-20.1,14.9-22.9-6.4-32.6-12.7c-9.6-6.3-9.4-14.1-0.2-21.8c72.6-60.4,152.8-100.9,250.2-82.7c78.4,14.7,128.8,67,157.5,138.8
			c63.1,157.8,40.9,357.6-142.8,478.3c-55.1,36.2-115.2,60.1-180.3,70.4c-16.9,2.7-25.9,9.6-32.2,25.7
			c-34.1,87.1-81.1,165.1-162.9,217.5c9.2,10.8,19.8,6.4,28.7,6.2c105.1-2.2,210.2-4.3,315.2-7.9c51.3-1.8,102.2,0.2,152.4,10.1
			c22.5,4.4,33.3-0.7,41.7-23.1c15-40.1,45.2-67.7,84.4-85c9.9-4.4,22.4-12.6,25.8,4.9c2.5,12.9,21.5,29.2-4.5,40.2
			c-26.8,11.3-46.1,30.9-59.4,56.9c-7.7,15.1-6.2,21.7,12.5,26.1c82,19.6,159.8,51.2,234.9,89.2c13.1,6.6,28.6,10.3,14.8,31.8
			c-10.4,16.2-15.9,24.9-38,13.5c-130.3-67.4-268-110.2-415.7-113.5c-59-1.3-118.1,1.7-177.1,3.9c-126.1,4.5-252.1,4-378.3,1.2
			c-156.2-3.5-312.3,1.5-466.1,33.1c-99.2,20.4-178.3,73.9-239.6,153.8c-25.9,33.7-37.6,72.9-36.9,115.1
			c0.9,57.6,23.7,102.1,78.9,126.9c44.6,20,89.2,39.2,141.6,41.2c-22.9-53.6-36.9-106.4-25.7-162.7c21.4-107.4,92.8-162.9,218-172.3
			c72.1-5.4,144.2-1.7,216.1,0.6c251.2,8.2,502.5,8.8,753.7,9.5c72.5,0.2,141.1,14.1,204.3,50.3c48.4,27.6,85.7,65.7,104.7,119.1
			c2.5,7.1,13.7,21.8-3.3,23.6c-13.6,1.4-32.2,22-43.1-5.4c-32.8-82.2-104-112.1-182-130.3c-56-13.1-113.6-5.9-170.6-7.2
			c-8.9-0.2-15.2,2-18.7,11.1c-34.3,90.9-141.2,130.3-245.1,99.5c-7.7-2.3-15.7-3.6-22.9-6.9c-14.1-6.4-24.8-5.7-37.3,5.8
			c-18.1,16.6-41.4,23.5-66.4,23.3c-21-0.1-42,1-63,0.3c-77.9-2.6-128.3-39.6-153.2-115.7c-6.1-18.8-14-24.8-32.9-25.5
			c-90-3-179.9-8.7-269.9,1.8c-141.2,16.5-174.4,161.2-111.4,269c3.8,6.4,8.3,9.8,16.6,10.3c57.9,3,109.4-34.5,125.9-92
			c3.5-12.3,2.1-26.7,24.3-26.1c26.2,0.8,37,8.7,25.2,33.2c-14.8,31,0.3,40.1,27.2,48.8c300.2,95.9,581.9,59.4,844.7-115.8
			c28.4-18.9,32.8-18.1,49.1,11c4.1,7.3,5.8,12.9-2.2,17.3c-22.7,12.4-11.2,20.8,2.1,31.5c128.9,103.3,290.2,70,377.9-78
			c26.9-45.3,45.9-93.5,50.7-146.1c2.1-23.1,13.9-23.5,32-22.5c23.5,1.3,20.7,13.7,18.2,30.4c-17.3,112.9-66.4,207.4-161.1,274
			c-112.7,79.2-245,69.8-355.6-25.1c-19.4-16.7-31.3-19.6-55.2-6.2c-269.9,150.6-551.2,170-841.8,67.5c-16.4-5.8-28.1-7.5-42.3,6.2
			c-30.4,29.1-70.7,36.3-110.5,41.7c-99.5,13.7-191.2-10.5-274.5-64.5c-65.4-42.4-89.9-135.4-62-224.4c27-86.5,91.2-141.1,164-188.2
			c52.6-34.1,110.8-53.1,172.3-63.5c-0.2-3.5-0.3-7.1-0.5-10.6c-43.2,0-86.4,0.2-129.6,0c-57.1-0.3-79.4-16.9-96-71.1
			c-17.3-56.3-14.3-111.2,16.5-162c11.9-19.7,3.8-21.7-12.9-25.8c-68-16.5-130.6-44.6-182.9-92.2c-74.4-67.8-101.6-151.3-79.6-249.8
			c31.4-140.4,115.1-241.8,238-312.3c21.9-12.6,31.1-24.8,28-50.9c-5.8-47.8,7.8-93,30.1-138.4c-19.2-2.6-36.4-6.3-53.7-7.1
			c-61.2-2.8-96.1-38-117-91.8c-21.3-54.8-27.5-112.4-33.4-170.2c-22.2-216.9,21.2-423.9,96.4-625.7c18.2-48.9,41.1-95.8,77.1-134.6
			c55.2-59.7,120.4-67.4,188.7-23c26.3,17.1,47.1,40.2,68.4,62.8c9.1,9.7,13,18.4-1.2,25.8c-11.1,5.8-18.9,28.3-36.2,8
			c-18.2-21.4-37.9-41.3-61.8-56.5c-45.8-29.2-84.6-24.2-120.1,16.2c-51.6,58.8-74.6,131.5-97.9,203.9
			c-58.1,180.3-82.5,364.4-59.9,553.5c5.5,45.8,12.7,91.1,31.8,133.7c13.5,30.1,35.6,46.2,69.6,48.4c35.9,2.3,71.4,9.7,107.3-0.3
			c25.8-7.2,47.9-19.8,65.9-39.5c26.7-29.2,26.9-37.4,2-68.1c-57.9-71.4-60.8-168.3-4.3-240.4c29-37.1,39.5-77.7,37.5-123.1
			c-2.9-65.4,3.4-129.8,16.8-193.8C912.4,395.8,1018,289.5,1153.7,208c124.7-74.8,263.6-102.8,406.4-113.4c83.8-6.2,167.9-9.8,252-4
			c50.5,3.5,50.6,2.6,41.4,53.5L1854.5,143.2z M1226.8,1841.7c13.7,31.3,27.3,58.1,37.2,86.1c24.8,70.6,42.1,143.7,20.9,217.3
			c-10,34.9-10.8,65.3,0,98.4c6.8,20.8,11.9,42.2,17.4,63.4c13.4,52,24.3,58.8,78,48.7c90.3-17,152.6-72.2,196.8-148.9
			c49.3-85.8,78.6-179.1,91.9-277.1c8.8-64.3,18.8-128.8,7.2-194c-4-22.5-11.1-25.3-27.5-7.9c-69.4,73.7-157.2,106.5-256.4,115.4
			C1338.4,1848.2,1284.6,1847.9,1226.8,1841.7z M1242.2,2080.4c2.4-21.5-1.6-42.2-5.4-62.8c-17.3-93-59.4-173.3-126.1-240.2
			c-24.6-24.7-52.4-43.3-90.6-35.4c-14.6,3-21.9,6.6-18.2,25.1c25.4,125.4,1.7,239.8-80.3,340.2c-6.6,8.1-12.4,14.8-4.3,25.9
			c16.5,22.4,20.2,49.6,25.2,76c7.6,40.9,21.6,52.6,63.9,48.3c54.2-5.5,104.6-24.9,154.2-45.8
			C1218.4,2187.4,1248.5,2144.7,1242.2,2080.4z M1061.8,1289.2c-1.3-25.8-9.3-55.4-20.3-84.6c-5.9-15.7-14.9-20.9-31.6-19.7
			c-34,2.5-68.2,0.4-100.6-11c-13.6-4.8-16.6,1.8-22.2,11.1c-25.7,42.7-61.6,73-110.4,86.3c-6.8,1.9-13.9,2.9-17.8,9.6
			c-38.4,66.6-52.8,135.4-18.5,208.5c7.5,15.9,20.5,24.5,36.8,27.7c38.8,7.5,73.8-0.3,101.1-30.5c27.4-30.3,31-66.3,19.2-103.7
			c-8-25.3-23.4-43.8-53.9-43.3c-28.6,0.5-17.7-24.4-20.2-37.4c-3.2-16.9,13.9-12.8,23.8-12.6c50.1,1,86.6,30.6,100.1,87
			c6.5,27.3,20.5,27.4,40.9,21.8C1034.3,1386.1,1061.9,1347.1,1061.8,1289.2z M961.3,1857.4c-0.1-25-2.4-49.7-6.6-74.5
			c-2.9-16.9-9.2-19.2-23.9-12.7c-39.5,17.4-77.1,37.9-112.2,63.1c-91.9,66.1-101.9,131.8-70.7,239.8c3,10.5,6.5,14.2,18.6,10.9
			c27.4-7.7,55.8-8.3,82.8,1.4c16.5,5.9,25.5,0.6,35.4-11.9C935,2010.1,962,1938.8,961.3,1857.4z M1445.8,1168.8
			c-2.7-18.7-3.2-38.1-8.6-56c-8.6-28.4-23.7-30-46.7-12.1c-51.9,40.4-112.1,71-176.6,50.6c-38.6-12.2-61.5-7.9-90.3,14.3
			c-12.7,9.8-10.3,16.4-6.7,26.7c23.2,66.7,69.8,108.3,137.8,124.9C1353.6,1341.3,1447.9,1267.2,1445.8,1168.8z M1009.1,2376.2
			c47.7-2.8,88.4-5.3,129.2-7.5c41.5-2.2,83-3.9,126.3-5.9c-11.7-44.4-23-87.2-34.9-132.1c-55,34.4-112.4,53.5-171.5,68.5
			c-8.5,2.2-18.7,3.3-18.2,15.7C1040.9,2338.5,1029.1,2356.4,1009.1,2376.2z M1729.9,1868.2c23.6-7.1,40.1-18,55.7-30
			c30.6-23.4,55.1-52.2,68.1-88.9c11.3-31.9,1.2-57.9-24.9-63c-32.6-6.4-65.4-3.6-97.6,4.7c-6.8,1.8-14.7,3-11.3,13.2
			C1737.1,1756.7,1729.1,1810.8,1729.9,1868.2z M1329.9,2609c10.8,52.2,43.6,81.7,98,85.4c19.9,1.3,40,0.9,59.9,0.1
			c41.9-1.7,68.1-26.7,74.6-67.6c2.2-13.9-1.7-17.9-14.7-17.9C1475,2609.1,1402.3,2609,1329.9,2609z M1816.1,2610
			c-61.6,0-119.5,0-177.4,0c-2,0-4,0-6-0.1c-9.7-0.5-15.3,1.2-18.7,13.1c-12.2,42.5-13,42.4,28.9,51.9c10.7,2.4,21.5,4.5,32.4,6
			C1734.8,2688.9,1790,2662.5,1816.1,2610z"/>
		<path class="st1" d="M1853.5,144.1c77.8-62.3,167.7-93,265.4-107.4c142.8-20.9,287.3,50.9,353.7,179.5c3.9,7.6,12.4,17.7-2.2,20.7
			c-13.2,2.8-25.5,26.1-41,4.1c-12.6-18-23.2-37.6-37.4-54.2c-66.8-77.4-151.3-111.8-253.6-101.3c-93.3,9.6-181.2,34-251.3,100.1
			c-63.7,60-89.1,136-80.5,222.5c5.3,52.6,34.2,90.6,81.7,114.4c30,15,61.8,23.3,95,25.1c73.6,4,120.6-41.1,123.6-119.3
			c0.8-21.9-1.6-44-4.5-65.8c-2.5-18.5,6.4-22.5,22-22.9c14-0.4,27.9-4.8,29.3,17.7c2.1,33,5.5,66,0.9,98.9
			c-15.7,109.8-107,163.3-227.4,133.9c-135.3-33.1-197.5-139.7-165.1-278.9c15.2-65.3,48.5-119.3,92.6-168.1
			C1854.5,143.2,1853.5,144.1,1853.5,144.1z"/>
		<path class="st1" d="M2174.4,1714.9c3.5,224-128.9,381.4-307.4,458.6c-14.7,6.4-22.4,4.2-26-11.4c-2.9-12.6-18.6-24.8,6.2-35.2
			c68.9-29.1,129.1-70.9,178.8-127.7c64.7-74.1,96.8-160.9,98.5-257.8c1.3-68.9-4.4-138.1-19-205.8c-26.4-123-109-188.1-240.5-191.1
			c-49.4-1.1-98,5.3-144.9,20.3c-24.4,7.8-22.6-9.7-28.4-22.6c-6.5-14.5-3.4-21.2,12.3-25.6c85.4-23.8,171.3-31.9,257.6-7.2
			c124.1,35.6,182.5,125.6,198.9,247.7C2167.9,1612.5,2174.8,1668.2,2174.4,1714.9z"/>
		<path class="st1" d="M2513.3,542.2c8.2,131.7-1.1,261.8-46,387.1c-44.6,124.3-126.6,208.4-260,229.9
			c-119.5,19.3-217.8-24-295.2-116.1c-7.6-9-17.9-19.6,0.4-28.1c12.2-5.7,21.4-26.7,39-4.1c127.5,164.1,383.2,128.7,462.5-82.3
			c44.8-119.1,57.5-242.5,55.2-368.2c-1.1-59-3.2-118-7-176.9c-1.5-22.4,9.8-23.8,26.3-25.4c17.7-1.8,25.4,3.2,25.1,22.2
			C2512.7,434.2,2513.3,488.2,2513.3,542.2z"/>
		<path class="st1" d="M2375.1,1434.1c-82.1,0-145.4-62.2-145.1-142.8c0.2-79.2,66.9-146.1,145.5-145.9
			c78.7,0.2,145.7,67.5,145,146.4C2519.7,1378.7,2442.8,1442.8,2375.1,1434.1z M2469.6,1290.8c-0.3-53.6-41.4-93.3-95.9-92.8
			c-52.6,0.5-92.8,40.7-92.8,92.9c0,54.3,40.2,94.5,94.4,94.5C2429.4,1385.4,2469.9,1344.7,2469.6,1290.8z"/>
		<path class="st1" d="M2288.9,1638.8c2.2-38.2,11.2-73.6,35.9-103.4c43.7-52.7,114.2-53.3,158.8-1.7c47.1,54.5,48,152.7,3.4,209.1
			c-42.2,53.4-122.2,59-168.1-5.6C2298,1707.5,2290.2,1673.9,2288.9,1638.8z M2469.6,1641c0.7-25.7-5.4-49.6-20.8-70.3
			c-24.9-33.5-62.3-33.3-87.8-0.2c-28.3,36.8-27.9,104.3,0.8,140.5c25.6,32.4,63.3,31.3,87.6-2.5
			C2463.9,1688.3,2470.1,1665.6,2469.6,1641z"/>
		<path class="st1" d="M2347.4,2016.3c-61.4-0.5-112.1-51.2-112.4-112.6c-0.3-62.2,52.7-114.8,114.8-113.8
			c61.3,1,112.1,52.3,112.2,113.4C2462.1,1964.8,2409.4,2016.7,2347.4,2016.3z M2411.5,1903.6c0.2-34.9-27.4-62.5-62.6-62.7
			c-35.2-0.2-62.7,27.1-62.9,62.3c-0.2,34.7,28,63.4,62.3,63.5C2382.1,1966.8,2411.3,1937.7,2411.5,1903.6z"/>
		<path class="st1" d="M2300.4,2125.9c-0.3,50.1-39.5,88.7-89.8,88.6c-49.4-0.2-89.7-40.7-89.3-89.8c0.4-48.5,42.3-89.8,90.5-89.4
			C2260.9,2035.8,2300.7,2076.5,2300.4,2125.9z"/>
		<path class="st1" d="M640.9,784.8c0-16.9,0.9-33.9-0.2-50.8c-1.2-18.4,1.1-28.9,24.6-28.7c22.5,0.2,26.6,8.6,25.2,28
			c-1.5,19.8,0.8,39.9-0.6,59.7c-1.4,18.7,5.8,25.3,23.7,23.3c7.9-0.9,16,0.6,23.9-0.3c19.6-2.1,28.7,3.6,28.8,25.8
			c0.1,22.8-10.2,26.5-29.2,25.5c-23.8-1.1-47.9-1.5-71.7,0.1c-20.5,1.4-26.1-7.1-24.8-26C641.9,822.7,640.9,803.7,640.9,784.8z"/>
		<path class="st1" d="M667.3,1033.6c-20.7-2.1-52.3,10.5-68.5-4.8c-16.5-15.5-3.8-47.4-5.5-72.1c-0.8-12,0.3-24-0.2-36
			c-0.8-16.9-1.7-29.9,23.5-30.2c25.7-0.4,26.3,11.4,26.2,30.7c-0.5,61.7,0.1,60.9,62.4,62.4c14.1,0.4,36-13,42.2,12.5
			c7.1,29.4-0.2,37.2-30.9,37.5C701.4,1033.6,686.4,1033.6,667.3,1033.6z"/>
		<path class="st1" d="M777.2,1696.4c-0.1,31.6-25.3,56.7-57.1,56.9c-31.8,0.2-57.6-24.6-58.3-55.9c-0.6-31.7,27.5-60.1,58.8-59.3
			C751.7,1639,777.3,1665.4,777.2,1696.4z"/>
		<path class="st1" d="M534.6,1845.6c1.4-31,28.3-56.3,59.3-55.5c32.5,0.8,57.3,28.3,55.4,61.5c-1.7,31.4-28.7,55.6-59.9,53.8
			C558,1903.6,533.2,1876.5,534.6,1845.6z"/>
		<path class="st1" d="M986,1641.4c-0.5,31.9-25.6,56.5-57.5,56.3c-30.5-0.2-57.7-27-58-57.1c-0.3-31.4,27.7-57.9,60.3-57.2
			C963,1584,986.5,1608.7,986,1641.4z"/>
		<path class="st1" d="M752.4,700.5c-57.3,0-57.3,0-57.3-57.6c0-13.9,0.9-28-0.2-41.8c-1.6-19.8,1.6-30.7,26.4-30.5
			c25.3,0.2,23.9,13.9,23.1,30.5c-0.3,5,0.7,10.1-0.2,14.9c-4.7,27.6,6.8,37.4,34.1,34.2c16.1-1.9,33.3-5.2,32.8,23.2
			c-0.4,23-7.1,30.2-28.8,27.2C772.5,699.4,762.4,700.5,752.4,700.5z"/>
		<path class="st1" d="M765,460.7c-15.9,0-31.8-0.5-47.7,0.1c-16.9,0.6-29.7,1.5-30-23.4c-0.3-25.1,10.8-26.9,30.4-26.3
			c34.8,1.1,69.6,1.3,104.3,0c21.2-0.8,18,12.4,18.2,25.2c0.2,13.2,2.2,26.3-18.6,24.7C802.9,459.6,783.9,460.7,765,460.7z"/>
		<path class="st1" d="M1448.6,2124.4c-35.6,0.4-65.3-28-66.1-63.3c-0.8-34.9,28.2-65.4,63.3-66.7c36.2-1.3,67.3,29,67.2,65.5
			C1512.9,2096,1485,2124,1448.6,2124.4z"/>
		<path class="st1" d="M1480.4,1895.1c21,0.3,31.8,11.5,32.6,31.3c0.9,22.1-13.2,34.8-33.2,34.5c-19.8-0.3-33.9-13.4-32.7-35.3
			C1448.4,1905.8,1460.1,1895.2,1480.4,1895.1z"/>
		<path class="st1" d="M1044.2,1982.6c0.3-33.1,23.6-56.6,56.2-56.5c31.2,0.1,57.5,25.7,57.9,56.5c0.5,32-26.6,58.2-59.5,57.7
			C1066.6,2039.8,1043.9,2015.9,1044.2,1982.6z"/>
		<path class="st1" d="M1087.8,2126.6c-2.4,32.9-29.6,56.3-62.4,53.7c-31.2-2.5-55.4-30.9-52.5-61.5c2.9-30.7,31.8-55.5,61.8-53.2
			C1066.2,2068,1090.1,2095.4,1087.8,2126.6z"/>
	</g>
</g>
</svg>
