<?xml version="1.0" encoding="utf-8"?>
<!-- Generator: Adobe Illustrator 23.0.0, SVG Export Plug-In . SVG Version: 6.00 Build 0)  -->
<svg version="1.0" xmlns="http://www.w3.org/2000/svg" xmlns:xlink="http://www.w3.org/1999/xlink" x="0px" y="0px"
	 viewBox="0 0 3000 3000" style="enable-background:new 0 0 3000 3000;" xml:space="preserve">
<style type="text/css">
	.st0{stroke:#000000;stroke-width:10;stroke-miterlimit:10;}
</style>
<g id="Layer_1">
</g>
<g id="Layer_2">
	<g>
		<path class="st0" d="M703.4,2587.6c-5,7.4-10,14.1-14.2,21.3c-32.8,55.9-97.6,66-147.2,49.9c-35.3-11.5-56.6-47-52.1-84.9
			c3.9-33,15.5-64,36.4-88.7c41.3-48.9,53.3-107.2,61.3-167.5c2.7-20.6,2.5-41.6,4.1-62.4c0.9-11.9-2.9-18.4-15.8-20.4
			c-42.3-6.5-65.4-33.3-74.4-73.6c-11-49.4-17.6-99.3-11.6-149.9c6.1-51.2,33.7-90.9,72.6-123.9c-77.6-46.5-105.7-119.5-112.9-202.9
			c-6.8-78.1,8.3-154.8,19.1-231.6c5.8-41.3,11.9-82.5,22.1-123c31.5-126,96.9-232.8,184.7-326.9c6.1-6.6,15.4-11.4,0.7-20.2
			c-104.6-62.6-157.3-160.1-177-276c-29.4-173.5,0.3-336.2,108-478.4C701.6,103.7,831.3,56.2,985.4,72.3
			c70,7.3,136.6,26.9,199.9,57.6c7,3.4,13.7,6.8,22.4,3.3c82.3-33.6,169.4-38,256.5-39.6c201.6-3.7,402.9,2.3,603.1,29.5
			c7.9,1.1,21.6-1.1,22.2,7.7c1.1,14.5-2.9,29.7-6.6,44.2c-1.4,5.5-8.8,2.7-13.6,2c-211.6-30.2-424.3-31.7-637.5-29.9
			c-226.5,1.9-387.2,111.5-501.7,298.4c-72.6,118.6-115.3,248.3-127.2,387.2c-4.5,51.9,6.4,101.7,35.1,146.4c1.8,2.8,3,6.6,8.9,6.5
			c2.7-46.4,3.9-93,13.1-138.6c53.5-263.2,193.6-457.6,451-552.9c157.1-58.2,314-41.6,467.5,20.4c77.2,31.2,147.8,73.5,212.9,125.2
			c7.7,6.1,10.4,11.3,2,18.6c-1.6,1.4-2.6,3.4-4,5c-21.4,24.9-21,24.3-46.4,5.4C1846.7,397,1741,344.5,1622.3,323
			c-186.8-33.8-353.6,12.1-494.1,139.4c-168.4,152.5-237,346.7-225,571.6c0.5,10,4.5,15.8,12.7,20.4c39.9,22.4,82.5,37,127.8,43.9
			c9.9,1.5,15.5-0.8,20-10.6c65.6-141.8,179.2-219.5,331.4-241.9c92.3-13.6,181.5-1.9,259.8,53.5c70.1,49.6,111,119.5,129,202.5
			c4.3,19.7,11.2,25.4,30.7,24.5c35.8-1.7,71.8-0.5,111.1-0.5c-9.4-11.9-20.8-14.1-30.3-18.2c-12.7-5.4-13-11.4-4.2-20.1
			c4.1-4,8.5-7.8,13.4-10.7c12.8-7.8,21.4-9.9,23.3,10.7c3.5,38.3,4.6,38.2,43.2,38.2c100.8,0,201.5,0.8,302.3-0.6
			c23-0.3,27.1,7.1,27.1,28c0,20.4-5,26.7-26.2,26.6c-153.3-0.9-306.6-0.3-459.9-0.8c-15.5-0.1-23,2.7-23.6,20.4
			c-0.6,17.7-5.4,35.4-9.4,52.9c-8.8,38.5-31.2,67.4-65,87.4c-7.7,4.6-12.6,8-11.9,19.4c8.7,128-62.2,225.1-187.9,254
			c-80.7,18.5-163.5,19.4-244.6,5.2c-91.4-16-149.9-78.1-191-157.6c-33.8-65.5-51.8-135.3-51.8-209.4c0-8.7,0.1-15.5-12.1-14.9
			c-10,0.5-16.3,1.8-15.9,14.2c3.9,116.1,23.1,228.8,74.8,334.1c41.5,84.7,111.6,127.5,204,134c84.3,5.9,168.3,4.2,250.2-21
			c120-36.9,192.1-115.2,211.5-241.1c8.5-55.5,21.1-110.3,57-156.4c50.3-64.4,119.4-92.6,197.6-102.2c74-9.1,147.3-0.3,220.2,12.7
			c10.6,1.9,14.4,6,12.7,17.3c-5.7,37.8-5.2,37.4-43.3,31.2c-73.5-12-147.3-19.2-220.8-1.9c-83.2,19.5-140.2,67.4-159.5,153.6
			c-6.9,30.8-13.3,61.8-20.2,92.6c-27,120.6-104.8,196.2-217.3,236.8c-109.8,39.7-223.9,42.6-338.2,23.6
			c-87.2-14.5-150.6-64.9-193.4-141.4c-47.5-85-68.2-178.1-80.8-273.4c-4.1-31.3-5.8-63-7.4-94.6c-0.6-11.7-4.5-15-15.6-13.5
			c-31.3,4.2-63,5.6-93.8,13.5c-34.7,8.9-63.4,26.5-83.9,56.5c-19.5,28.5-40.2,56.1-58.9,85.1c-8.3,12.9-15.2,15.6-26.3,4.5
			c-2.5-2.5-5.7-4.5-9-6c-16.9-8-19.1-17.7-6.9-32.9c14.3-17.9,27.5-37,39.3-56.7c42.8-71.5,107.6-105.1,188.5-112.1
			c45.2-3.9,90.3-10,135.6-8.3c19.2,0.7,20.2-10.2,22.8-23.1c3.5-17.6-11.3-12-18-13.3c-79-15.3-148.3-47.4-204.3-107.6
			c-18.8-20.3-50.4-17.8-76.2-25.3c-6.3-1.8-11.4,7.8-16.4,12.8C610,1144,542,1282.5,523.2,1445.1c-8.3,72.1-23.3,143.3-22,216.5
			c0.7,38.1,7.9,74.1,23.8,108.5c31,67,84.1,91.8,155.6,71.8c13.8-3.8,26.9-9.9,40.5-14.5c30.5-10.2,57.5-5.2,76.8,21.7
			c19.3,27,46,34.9,76.9,35c34.6,0.1,69.1-1.4,102.3-12.6c30.4-10.3,41.1-25.4,43.1-57.1c1.7-27.5-1.1-54.6-6.5-81.5
			c-14-69.9-68.9-113.5-151.2-121c-25.2-2.3-50.4-2.7-75.4,0.9c-13,1.9-18.8-1.2-18.9-14.8c-0.1-7.1-1.9-14.3-3.8-21.1
			c-3.2-11.6,2-15,12.7-16.5c49.2-6.5,97.7-4.3,145.3,10.2c90.8,27.7,140.7,89.7,149.2,185.2c1.8,20.7,2.3,41.5,1.5,62.5
			c-1.2,32.3-12.9,58.7-36.7,79.7c-8.2,7.2-9.5,11.9-1.6,20.4c47.7,51.1,97.7,99.4,155.8,139.1c76.8,52.4,161.2,64.9,251.3,54
			c32.9-4,66-4.4,99,0.1c75.3,10.3,124.4,52.6,149.6,123c26.2,73.1,27.9,146.9-2.5,219.1c-23.1,54.8-64.3,91.9-124.5,97.5
			c-60,5.6-120.5,8.7-181.1,5.6c-79-4-144.1-37.8-197.6-93.9c-19.4-20.3-40.6-28.5-67.9-29.8c-95.7-4.7-191.3-5.4-286.8,4.2
			c-19.9,2-39.7,6-56.7,18.2c-32,23.1-41.2,52.7-27.3,89.1c69.4,182.6,202.8,284.4,394.7,311.3c148.1,20.8,296.5,26,445.4,8.3
			c88.8-10.6,175.5-30.4,261-56.1c7.5-2.3,17.7-10.4,23.1-0.1c6.5,12.5,9.9,26.9,12.7,40.9c0.8,3.9-7.3,5.7-12.1,7.2
			c-197.3,61.8-399,83.8-605.1,66.4c-77.4-6.5-154.7-13-229.7-35.4C888,2842.7,783,2749.4,716.8,2610.7
			C713.2,2603.2,711.6,2594.4,703.4,2587.6z M1377,1572.6c14.4,0,28.8,0.8,43.2-0.1c47.4-3.2,94.9-6.8,137.8-30.3
			c64-35.1,93.8-90.5,95.2-162.5c0.3-16.2-4.2-23.5-23.2-22.7c-47.8,2-94.3-7.7-140-21.4c-10-3-15.4-6.9-9.6-18.1
			c2.6-5,4.4-10.7,5.5-16.3c3.2-16,10.2-19.9,26.9-14.5c41.3,13.3,84,19.5,127.5,18.2c50.9-1.5,78.4-22.7,91.5-69.4
			c27.9-99.3-19.6-232.7-104.5-291.6c-71.7-49.8-152-58.1-235.4-44.3c-104.6,17.3-192.5,65.2-250,156.3
			c-87.3,138.4-77.1,277.7,6.5,414.1c30.4,49.6,73.5,84.8,132.1,96.5C1312,1572.9,1344.6,1573,1377,1572.6z M544.8,2007.5
			c13.1-3.7,22-5.9,30.8-8.7c104.6-33,202.7-19.7,294.9,39.8c36.3,23.4,72,47.5,105.7,74.5c106.4,85.2,224.1,132.9,363.5,112.6
			c31.9-4.6,64.3-5.6,96.8-0.9c76.2,11.1,123.5,61.2,124.9,135.6c0.4,22.2-1,44.5-4.7,66.6c-4.5,27.2-18.2,47.9-40.3,63.7
			c-4,2.8-9.7,4.1-11.4,10.3c9.6,0,18.3,0.3,26.9,0c62.7-2.6,98-29.8,115.8-90.1c13.2-44.6,11.6-89.8,0.7-134.3
			c-19.6-79.7-66.4-115.8-149.1-115.1c-31.6,0.2-63.2,3.1-94.7,5.6c-74.5,5.8-144.1-9.7-209.7-45.6
			c-77-42.1-139.7-101.3-196.7-166.4c-18.8-21.4-35.6-24.4-62.2-21.6c-66,6.8-133.8,13-179.9-52c-5-7-11.5-7.4-19-3.9
			c-26.9,12.8-56.2,16.7-84.6,24.1C599,1915.7,561.8,1949,544.8,2007.5z M1134.4,166.8c-5.3-5.9-13.3-7.5-20.6-10
			c-46.9-16.7-94.8-29.6-144.6-33.1c-133.7-9.4-246.6,32.4-325.1,144.1c-106.6,151.6-129.1,318.7-75.9,495.1
			c25.1,83.2,76.5,147.5,156.4,186.1c13.8,6.6,27.8,13.2,44.1,16c-7.3-36.2-15.8-68.8-44.3-92.5c-9.8-8.1-17.3-19.3-24.5-30
			c-99-146.8-117.4-301.9-28.7-457.4c88.6-155.2,231.8-216.5,407.4-205.7C1099.4,180.8,1118.6,184.2,1134.4,166.8z M673.2,2033.9
			c-32-0.6-75.9,13.2-119.9,26.9c-10.5,3.3-13.3,8.7-11.7,18.9c3.1,19.1,4.7,38.5,8.1,57.6c7.2,39.9,23.3,50.6,64.7,47.1
			c31.4-2.7,62.8-7.1,94.7-4c44.8,4.4,87,18.3,129.5,31.7c90.5,28.5,181.2,56.8,261.1,110.3c12,8.1,21,8.9,34.5,2.5
			c123.2-58.5,269.2-12.8,337.4,104.4c3.7,6.4,5.5,17.6,13.8,16.7c9.5-1,14.6-11,17.5-20.2c7.6-23.8,5.3-48.5,5.3-72.8
			c0-28.5-14.2-48.9-39.2-62.2c-28.4-15.2-59.1-17.2-90.2-14.8c-63.1,4.9-126,11-189.2-0.5C1099,2259.2,1023,2214,951,2160.2
			c-40.9-30.6-81.9-61-125.9-87C782.8,2048.2,737.5,2033.8,673.2,2033.9z M747.6,815.5c38-225.4,115.4-429.1,294.9-584.4
			C902.7,224.2,764.4,309,704,433.5C641.8,561.8,669.3,720.6,747.6,815.5z M1087.2,2378.5c-26.1-19.9-48.4-32.9-71.7-43.7
			c-93.3-43.6-190.9-75-290.9-98.8c-16.8-4-34.2-4.2-51.5-2.8c-28.9,2.2-27.9,2.3-29.2,31.7c-4.1,92-15.2,181.9-78.4,256.3
			c-13.4,15.8-20.3,36.3-22.7,57.5c-1.9,16.6,4.3,27.1,21.7,31.5c33.7,8.5,63.4-1.7,82.2-31.3c17.8-28,27.2-60,40.2-90.3
			c24-55.9,61.9-94.6,125-102.3c19.2-2.4,38.6-4,57.9-5.4C940,2375.5,1010.3,2375.5,1087.2,2378.5z M1429.2,2464.9
			c-55.3-108.6-185.8-135.9-264.2-92.7c37.9,33.7,71.3,71.5,113.7,99.2c8.4,5.5,17,11,27.7,10.3
			C1347.1,2479,1387.7,2474.8,1429.2,2464.9z"/>
		<path class="st0" d="M1961.2,2817.6c-4.6-15.9,2.4-23.5,22.3-24.9c19.4-1.4,37.6-10.2,52.1-23.5c9.1-8.4,14-7.2,22.4,1
			c29.9,29.4,30,31-7.1,53.3c-18.6,11.2-38.7,18.6-60,22.5C1961.2,2851.4,1961.2,2851.3,1961.2,2817.6z"/>
		<path class="st0" d="M2486.1,1933.7c0,9.3-1.2,18.9,0.3,28c3.8,22.8-6.3,26.4-27.1,26.9c-22.9,0.5-29.5-6.4-27.5-28.5
			c2-22.1,1-44.5,0.2-66.8c-0.4-12,3.3-16.4,15.7-16.2c46.9,0.7,37.4-3.3,38.5,37.2C2486.2,1920.8,2486,1927.3,2486.1,1933.7z"/>
		<path class="st0" d="M2385.8,2511.5c-8.7,30.6-24.8,60.6-48.8,86.3c-3.5,3.7-7.6,3.8-11.5,0.8c-2.8-2.2-5.2-4.9-7.9-7.3
			c-22.8-21.5-22.8-21.5-5.5-46.9c9-13.1,16.5-27,20.8-42.3c2.8-10,6.7-14.4,17.8-9.8c8.5,3.5,18.1,4.1,26.9,6.9
			C2381.7,2500.5,2388.7,2500.5,2385.8,2511.5z"/>
		<path class="st0" d="M2389.9,2244.6c0-7.9,1.1-16-0.2-23.7c-4.1-23,6.6-26.4,27.2-26.8c22-0.5,29.2,5.6,26.9,27.4
			c-1.9,18.5-0.9,37.3-0.2,56c0.5,12.2-2.3,18.3-16.5,18c-46.3-1.1-36,3.6-37.2-35.8C2389.8,2254.7,2389.9,2249.7,2389.9,2244.6z"/>
		<path class="st0" d="M2322.5,2632.7c-0.4,24.4-32.5,68.7-54.3,77c-5.1,1.9-7.8,1.5-10.3-3.2c-5.8-10.7-11.8-21.2-17.7-31.8
			c-1.8-3.2-3.6-7.6,0.3-9.4c16.3-7.8,20.2-29.1,38.7-34.7c11-3.3,8.3-14.3,8.6-22.1c0.8-17.2,8.9-14.8,19-8.3
			C2319.1,2608,2321.5,2620.6,2322.5,2632.7z"/>
		<path class="st0" d="M2490.3,1488.9c0.6,9.3,0.7,18.7,2,27.9c1.7,12-1,17.3-14.9,19c-36.5,4.4-36.6,5.3-39.4-31.1
			c-1.1-14.3-0.5-28.7-1.7-42.9c-1.5-17.2,4.2-25.9,22.7-22.5c14.5,2.6,36.2-4.7,31,24c-1.5,8.3-0.2,17.1-0.2,25.7
			C2489.9,1489,2490.1,1488.9,2490.3,1488.9z"/>
		<path class="st0" d="M2436.4,1774c0-5.7-0.1-11.5,0-17.2c0.6-32.7-4.9-27.2,28-29.4c20.5-1.3,28.5,4.3,26.3,25.7
			c-1.9,18.5-0.8,37.3-0.3,55.9c0.3,10.9-3.3,14.6-14.7,15.1c-39.4,1.5-39.3,1.9-39.3-37.2C2436.4,1782.6,2436.4,1778.3,2436.4,1774
			z"/>
		<path class="st0" d="M2432,1123.2c1.3,8.7-4.2,11.1-9.2,14c-12.6,7.1-23.9,16-32.9,27.2c-20.7,25.9-31.9-2.8-45.2-9.1
			c-17.7-8.4-0.6-17.7,4.4-24.4c12.1-16.1,28.4-27.8,45.4-38.8c14-9,23-9.5,28,8.8C2424.8,1109,2429.2,1116.6,2432,1123.2z"/>
		<path class="st0" d="M2466.7,691.1c0-5-0.1-10,0-15c0.7-32.2-6.1-27.9,29.8-29.7c18.6-0.9,26.6,4.3,24,23.7
			c-1.3,9.8-0.2,20-0.2,30c0,35.6-9.7,42.8-45.5,35.4c-8.4-1.7-8-6.5-8-12.2C2466.6,712.5,2466.7,701.8,2466.7,691.1z"/>
		<path class="st0" d="M2445.1,856.2c0-5.7,0.9-11.7-0.2-17.2c-4.2-22.6,5.7-28,26.8-26.4c29.3,2.2,26.8-4.5,27.1,28.4
			c0.1,8.6,0,17.2,0,25.9c0,36-8.2,42.2-44.6,35.3c-7.6-1.4-9.3-5-9.2-11.5C2445.2,879.2,2445.1,867.7,2445.1,856.2z"/>
		<path class="st0" d="M1982.4,632c1.3-45-5.1-33.5,40.9-31.2c9.3,0.5,12.6,3.8,11.8,12.9c-1.6,18,0.6,35.9,5.2,53.1
			c3,11.3,0.1,14.2-10.4,17.5c-39,12.1-39,12.6-45.2-26.7C1983.2,647.8,1982.9,637.7,1982.4,632z"/>
		<path class="st0" d="M2141.4,2787.7c-13.4-4.1-13.3-16.1-18.7-23.9c-9.5-13.9-11-24.5,8.5-32.2c12.3-4.9,23.8-13.6,33.5-22.9
			c10.4-10,15.6-6.5,23.7,2.5c25.9,28.7,26.4,28.6-6.2,51.1C2168.8,2771.5,2154.5,2779.6,2141.4,2787.7z"/>
		<path class="st0" d="M2505.5,578.1c0.2,23.4-1.4,24.1-38.1,26.4c-17.8,1.1-12-12.4-13.6-20.7c-2.7-14.1-2.2-28.9-6.1-42.5
			c-5.4-18.8,2.6-21.5,18.7-22.6c32.7-2.3,33.1-3.1,34.5,31.3C2501.4,560.1,2508.5,568.9,2505.5,578.1z"/>
		<path class="st0" d="M2417.6,1181.1c4.4-0.2,49.3,52.8,47.6,55.2c-8.8,12.1-17.1,24.8-29.5,33.5c-5.1,3.6-9.2-2-12.7-5.3
			c-15.1-14.3-27.8-30.6-39.6-47.8c-6.5-9.5-4.9-14.7,5.3-19.4C2399,1192.4,2408.7,1186.1,2417.6,1181.1z"/>
		<path class="st0" d="M2488.4,1295.7c8.4-2.7,9.6,3.8,10.7,9.3c4,18.8,7.3,37.9,11.6,56.7c2.1,9.3-0.7,11.6-9.9,13.6
			c-40.1,8.7-40,9.2-47.3-30.2c-0.4-2.1-0.7-4.2-1.2-6.3C2444.4,1302.4,2450.5,1295.1,2488.4,1295.7z"/>
		<path class="st0" d="M2465.6,477.6c1.4,5.1-1.2,6.4-5.2,7.5c-12.4,3.4-24.9,6.7-37.1,10.9c-9,3.1-10.8-4-11.1-8.7
			c-1.3-18.9-32.5-31.5-17.1-50.5c27.4-33.9,34.6-31.5,55.3,7.6C2456,455.2,2460.5,466.5,2465.6,477.6z"/>
		<path class="st0" d="M2328.6,340.7c26.1,1,50.6,25.3,52.1,51.5c0.2,3.9-29.1,39.6-32.3,38.6c-3.1-0.9-5.8-3.7-8.1-6.2
			c-19.3-21.8-25.4-47.4-20.8-75.8C2320.4,343.4,2321.2,338.4,2328.6,340.7z"/>
		<path class="st0" d="M2427.5,2381.6c-6.2,20.5-10.7,40.1-18.3,58.4c-3.5,8.5-12.8,1.1-18.9-0.6c-33.2-8.9-33.1-9.1-23.3-41
			c11.5-37.3,19.9-40.8,54.6-22.7C2424.9,2377.7,2427.9,2378.6,2427.5,2381.6z"/>
		<path class="st0" d="M2048.2,789.8c-1.7,8.2,5.5,22.6-3.6,28.2c-11.9,7.4-30.9,7.3-41.2,1.2c-17.9-10.6-4.2-32.1-7.2-48.7
			c-1.1-5.9-3.8-15.8,7.4-16.6c12.1-0.8,24.3-0.3,36.4-0.2c6.6,0.1,8.1,4.7,8.1,10.2C2048.3,771.9,2048.2,779.8,2048.2,789.8z"/>
		<path class="st0" d="M2498.8,1631.5c0,4.3-0.5,8.7,0.1,12.9c2.1,15.5-3.1,21.4-19.9,21c-33.9-0.9-33.9,0.1-33.9-34.3
			c0-37.8,0-37.3,37.6-36.7c11.8,0.2,17.5,3,16.2,15.6C2498.2,1617.1,2498.8,1624.3,2498.8,1631.5z"/>
		<path class="st0" d="M2287.8,270.3c3.2-0.2,34.2,32.6,34.5,36.5c0.3,3.9-28.8,34.4-33.4,34.9c-5.6,0.6-38.7-34.4-38.7-41.1
			C2250.2,297.1,2283,270.6,2287.8,270.3z"/>
		<path class="st0" d="M2436.3,2111.5c-6.7-5.3-27,10.2-24.3-13.2c1.9-16.8-0.4-37,15.8-48c6.7-4.6,42.8,18.6,42.5,24.4
			C2468.2,2108.5,2465.2,2111.9,2436.3,2111.5z"/>
		<path class="st0" d="M1972.6,1007.5c10.9,9.1,33.1-3.6,39.9,16.6c3.4,10-15.9,50.9-21.1,51.1c-5.6,0.3-42.4-21.9-42.7-25.8
			C1948.1,1040.9,1965.7,1007.5,1972.6,1007.5z"/>
		<path class="st0" d="M1996.7,920.1c-7.2-24.2,6.8-24.3,26-25.9c26.1-2.2,24.9,10.7,26.5,29.9c2.1,25.5-10.9,24.1-29,25.6
			C1995,951.9,1992.5,939.8,1996.7,920.1z"/>
		<path class="st0" d="M2476.5,994.2c24.4-7.2,23,10.5,22.5,29.4c-0.8,28.1-0.2,28.4-29.7,28c-28.6-0.4-24.1,4.4-24.1-32.7
			C2445.2,990.7,2440.7,994.7,2476.5,994.2z"/>
		<path class="st0" d="M2225,302.1c-34.1-4.9-53.7-26.5-52-55.5c0.8-13.4,5-21,19.8-12.3c6.1,3.6,12.5,7.1,19.2,9.4
			c10,3.4,14.6,8.7,13.4,20.1C2224,276.3,2225,289.2,2225,302.1z"/>
		<path class="st0" d="M2127.2,229.1c-11.4-0.3-45-24.3-45.2-30.6c-0.2-4.6,33.5-36.4,36.2-33.9c8.8,8.4,28.3,9.1,26.8,23
			C2143.4,202.2,2138.5,218.6,2127.2,229.1z"/>
		<path class="st0" d="M1960.6,532.4c3.3-7.7-5.9-20.3,11.8-20.1c37.1,0.4,44.7,3.6,43,30.4c-1.4,22.7-25.4,17.4-38.5,19
			C1954.8,564.5,1966.9,542,1960.6,532.4z"/>
	</g>
</g>
</svg>
