<?xml version="1.0" encoding="utf-8"?>
<!-- Generator: Adobe Illustrator 23.0.0, SVG Export Plug-In . SVG Version: 6.00 Build 0)  -->
<svg version="1.0" xmlns="http://www.w3.org/2000/svg" xmlns:xlink="http://www.w3.org/1999/xlink" x="0px" y="0px"
	 viewBox="0 0 3000 3000" style="enable-background:new 0 0 3000 3000;" xml:space="preserve">
<style type="text/css">
	.st0{stroke:#000000;stroke-width:10;stroke-miterlimit:10;}
</style>
<g id="Layer_1">
</g>
<g id="Layer_2">
	<g>
		<path class="st0" d="M1969.4,2366.5c-216.1-4.3-402.8-17.4-588.4-44.4c-9.9-1.4-17.7,0.2-26.5,6.5c-57,40.8-118.7,48.3-183.6,21.6
			c-16.5-6.8-31.5-9.7-49.5-5.6c-196.1,44.1-395,65.6-595.8,67.1c-79.8,0.6-159.7-2.8-238.1-21.4
			c-112.7-26.8-174.3-101.9-197.9-211.3c-16.7-77.3-25.9-155.9-34.1-234.6c-23.9-229.7,6.7-454,75.3-672.5
			c82.7-263.6,253.8-456.7,494.7-588.7c136.6-74.8,280.2-131.4,434.5-157.7c112.3-19.1,225.4-29.2,339.4-19.8
			c20.7,1.7,36.7-2.3,54.3-15.5c71.8-53.9,151.1-61,234-29c25.5,9.8,46.5,27.2,61.4,50.3c6,9.3,11.8,12.3,23,12
			c163.2-5.7,324.5,8,483.1,48.9c190.2,49.1,362.5,133.5,511.8,261.9c103.6,89.1,162.4,202.4,169.6,339.4
			c9.6,182.5,6.8,365-20.4,546c-25.1,166.8-85.4,317.8-212.6,434.6c-114.2,104.8-250.5,165.4-402.4,191.4
			C2182,2366.2,2061.3,2366.3,1969.4,2366.5z M1391.1,1030.7c-5.6,2.4-9.4,3.7-12.9,5.5c-160,86.3-285.8,207.2-369.8,369.3
			C902.4,1610.3,888,1825.7,937.2,2048c1,4.6,4.3,12.1,2.6,13.5c-12.1,9.7-27.7,11.7-42.3,13.5c-9.8,1.2-8-11.3-9.4-17.5
			c-26.9-114.9-35-230.7-22.5-348.4c19.8-186.3,89.9-350.9,210-494c80.7-96.1,178.1-172,290-228.7c17.2-8.7,23.9-18.5,21.9-37.6
			c-2.6-23.9-2.9-48.1-3.3-72.2c-0.3-13.2-3.8-15.9-17.1-11.4c-209,71.4-384,190.9-515.7,369.2
			c-175.9,238.3-231.5,506.8-192.8,797.4c4.7,35.5,5.4,35-29.1,41.1c-12.4,2.2-17-1.8-19-14c-23.6-145.1-21.9-290.2,10.7-433.1
			c90-394.4,331-657.5,706.8-800.7c17.8-6.8,43.5-6,51.5-21.4c8.2-15.9,2-39,3.1-58.9c0.6-11.8-2.4-15.1-15-13.5
			c-139,17.5-272.1,54.9-397.3,118.5c-213.3,108.2-376,267.9-479.8,483.8c-116.5,242.3-139.6,498-99.9,761.4
			c5,33.1,5.5,33-27.9,39.4c-1.4,0.3-2.7,0.6-4.1,0.8c-7.6,1.1-12.4,0.6-13.7-9.6c-3.1-24.4-8.8-48.5-11.9-72.8
			c-19.8-153-13.8-305.4,16.5-456.3c61-302.9,217.1-544.8,473.2-719.1c164.1-111.7,347.4-173.5,544.1-196.6c8.8-1,18.3,0.4,19-13
			c1.8-37.2,8.1-73.7,18.3-110.3c-4.5-0.7-7.8-1.4-11.2-1.6c-116.2-8.4-231.3,2-345.3,23.6C898.3,607.6,759.1,664.8,627.6,740
			C438.2,848.1,296.4,1000.8,210,1202c-68.1,158.7-92.2,327.6-108.4,497.8c-11.1,116.7,0.3,232.5,17.4,347.8
			c7.5,51,12.5,102.5,28.4,152c24.6,76.8,75.4,124.5,154.4,142c42.5,9.4,85.4,14.5,128.8,16.6c138.7,6.6,276.7-1.7,414.4-17.4
			c82.1-9.4,163.4-23.7,244.3-40.8c5.8-1.2,17.5,1.5,12.6-12.1c-22.2-62-13.9-125.4-6.1-188.1c13.2-105.1,28.4-209.9,43.5-314.7
			c12.6-87.1,20.4-175,41.3-260.7c29.1-119.3,84.4-223.6,186.2-295.6c33.6-23.7,45.9-44.9,37.3-84.5
			C1396.3,1107.8,1395.4,1069.6,1391.1,1030.7z M1949.9,2314.9c56.4,1.9,119.7,0.2,183-2.8c121.6-5.7,240.2-23.7,352.9-75
			c167.4-76.3,284.2-197.1,343.5-372.2c30.9-91.3,47.5-185.7,52-281.3c6.6-142.9,17.3-286,2.5-429.2
			c-11-106.4-56.4-195.2-133.9-266.9c-81.3-75.2-173.5-135.6-273.9-182.4c-186.8-87-384.4-127.2-589.7-132c-33-0.8-66.1,0-99.2,0.3
			c-7.3,0.1-16.3-1.3-14.4,11.2c5.1,33.1-0.1,66-1.7,99c-0.7,13.7,3,17.5,16.6,17.6c144.3,0.5,282.4,32.8,416.8,82.8
			c96.9,36,180.8,90.7,242.6,175.2c47.9,65.5,91.1,134.3,124.5,208.5c33.2,73.8,50,151.5,48.7,232.5
			c-1.6,99.5-17.1,197.4-39.6,294.1c-12.8,54.8-36.6,105.1-73.5,148.5c-54.2,63.8-124.3,100.4-203.6,122.7
			c-88.3,24.8-178.7,31.3-269.6,35.1c-202.8,8.4-404.8,4.3-604.5-37c-16.2-3.4-18,1.6-18.6,15.5c-2.5,57.2-3.2,114.3-0.8,171.4
			c1.6,36.6-0.6,73-10,108.6c-3.1,11.9,0,15.1,11.9,16.6C1588.1,2299.1,1765.1,2312.5,1949.9,2314.9z M1892.4,1953.1
			c56.3,1.8,117.5-1.9,178.7-4.8c79.2-3.8,157.4-13.6,233.9-36.2c128.4-37.9,205.3-121.6,232-252.9c11.7-57.4,20.2-115.2,27.3-173.2
			c5.7-46.5,7.7-93.3,2.8-140.1c-7.9-75.7-32.1-145.9-69.2-212.2c-24.9-44.4-51.7-87.7-80.7-129.6c-55-79.5-129.8-133.3-219.5-168
			c-132.7-51.2-269.1-83-411.9-85c-13.1-0.2-21.6,0.3-22.8,17.5c-4.1,60.4-9.5,120.7-15.5,181c-1.7,16.5,2.4,20.5,19.2,20.3
			c58.1-0.8,115.6,5.7,170.8,24.8c116.9,40.6,209.7,110.6,257.7,227.8c62,151.3,10.5,298.3-128.2,375.7
			c-47.1,26.3-97.1,45.9-149.9,57.1c-147.9,31.5-296.6,26.9-445.3,6.8c-10.3-1.4-14.6-1.1-17.4,9.4
			c-19.5,72.6-31.2,146.5-38.6,221.3c-1.3,13,2.5,17.2,15.8,19.9C1582.1,1943.5,1734.1,1955.4,1892.4,1953.1z M1676.1,1626.7
			c23.7,0,40.2,0.6,56.7-0.1c89.7-3.8,178.4-13.4,262-49.3c47.7-20.5,93.1-45.3,126-87c64.5-81.6,65.7-210.7-0.9-302.9
			c-88.9-123.2-215.4-169.1-362.9-167.3c-10.1,0.1-14.2,3.8-14.8,14.5c-2.5,46.7-6,93.4-9.2,140.1c-0.4,6.4-0.5,12.2,4.8,17
			c50.5,46.4,55.5,104.2,42.8,167.1c-3.4,16.6-9,23.2-27.5,23.8c-143.1,4.4-233.9,81.8-276.7,217.8c-3.3,10.3-0.8,13.2,9.5,14.2
			C1551.5,1620.8,1617.1,1628.8,1676.1,1626.7z M1139.9,2194.3c0,11.7-0.9,23.5,0.2,35.1c4.7,50.6,26.4,74.1,76.1,82.9
			c17.8,3.2,35.9,4.1,53.4-0.1c46.6-11.2,76.6-28.7,85.7-84.3c3.7-22.6,4.2-45.2,3.8-67.9c-1-55.8-1.5-111.5,0.1-167.2
			c4.1-144.6,26.5-286,74.1-423c15.2-43.8,35.7-85.1,65.4-121c56.8-68.7,131.3-104.6,218.8-115.5c6.8-0.8,15.5,2,17.1-9.8
			c7.6-58.5-20.7-102.8-68.3-114.1c-58.7-13.9-117.4-13.9-174.7,7.4c-112.2,41.5-184.7,123.2-232.4,229.9
			c-29.2,65.5-39.5,135.7-49.6,205.8c-15.3,106.1-30.4,212.2-44.8,318.5C1154.7,2045.3,1141,2119.1,1139.9,2194.3z M1458.9,1174.6
			c70.4-27.9,141.5-31.4,213.8-15.8c10.7,2.3,11-4.5,11.5-11.8c2.9-43.9,5.4-87.9,8.9-131.7c7.3-92.5,15.2-185,22.9-277.5
			c4.1-50,9.8-100,6.4-150.4c-2.8-40.7-23.7-67.4-61.1-82.7c-27.6-11.3-56.7-13.5-85.2-9.9c-73.8,9.4-120.4,39.1-131.9,113.1
			c-7.2,46.4-10.6,92.9-11.4,139.7c-1.6,90.9,4.1,181.6,9.4,272.3C1445,1070.9,1450.2,1122.2,1458.9,1174.6z"/>
	</g>
</g>
</svg>
