<?xml version="1.0" encoding="utf-8"?>
<!-- Generator: Adobe Illustrator 23.0.0, SVG Export Plug-In . SVG Version: 6.00 Build 0)  -->
<svg version="1.0" xmlns="http://www.w3.org/2000/svg" xmlns:xlink="http://www.w3.org/1999/xlink" x="0px" y="0px"
	 viewBox="0 0 3000 3000" style="enable-background:new 0 0 3000 3000;" xml:space="preserve">
<style type="text/css">
	.st0{stroke:#000000;stroke-width:10;stroke-miterlimit:10;}
</style>
<g id="Layer_1">
</g>
<g id="Layer_2">
	<g>
		<path class="st0" d="M1909.8,260c42.7-75.8,103.5-124.5,187.3-141.5c75.8-15.4,145.5,4,211.1,40.8
			c58.1,32.6,118.8,40.9,183.8,27.1c40.1-8.5,80.7-15,121.3-20.3c140.5-18.3,245.1,59.8,262.3,200.7
			c22.2,182.6-50,327.6-187.1,444.1c-9.6,8.2-20.1,15.4-30.1,22.9c1.1,2.5,1.3,4.9,2.7,6c117.1,96.5,141.7,226.4,131.4,367.9
			c-6.2,85.7-16.1,171.2-23.3,256.8c-10.1,121.2,16.7,230.8,101.8,322.6c19.8,21.3,36.1,46.4,50.9,71.6
			c65.2,110.8,24.3,240.9-96.3,309.4c-9.3,5.3-19,10-30.8,16.2c102,96.6,100.4,221.5,96.2,346.5c-1.7,50.6-3.1,101.5-20.5,150.4
			c-19.6,55.3-53.2,98.9-107.5,121.5c-92.6,38.5-189.6,56.6-289.6,40.4c-78-12.6-140.9-51.2-178.1-124.4c-1.7-3.4-4.1-6.5-6.4-9.6
			c-0.5-0.7-1.7-1-3.5-2c-29.9,73.4-80.1,128.3-150.5,164.9c-32.7,17-67.9,25.2-103.8,28.6c-109.9,10.4-217.5,7.6-310.5-64.5
			c-36.7-28.4-65.2-63.9-89.7-108.1c-4.2,10.8-7.1,17.3-9.3,24.1c-30.2,93.9-96,144.7-192.5,156.2c-82.3,9.8-164.1,2.3-245-13.7
			c-40.8-8-78-25.6-109-54.1c-9.2-8.4-17.3-12.3-31-9.4c-103.2,21.5-205.9,18.4-307.7-9.4c-10.5-2.9-20.9-3.8-31.7-0.4
			c-78.1,24.8-154.7,16-229.6-12.6c-18.3-7-29.4-4.7-43.5,9c-65.5,63.8-142.3,82.9-229.2,50.9c-57.9-21.4-93.4-63.6-102.6-124.7
			C70.4,2549,67.6,2353,79.8,2156.2c10.2-164.9,25.6-329.2,48.5-492.8c2.5-17.9-0.7-32.4-12.2-48.5c-29.7-41.6-30.9-92.2-33.5-140.7
			c-11.8-215.2-3.5-430,15.8-644.5c7.5-83.7,13.7-167.6,31.4-249.8c40.7-189.3,233.6-356,426.6-364.4c202.1-8.8,404.5,0.2,606.7-0.4
			c25.5-0.1,46.4-5.4,67.7-20.3c46.1-32.2,100.1-44.7,155-48.5c109.4-7.4,218.9-10,327.1,13.8C1786.6,176.3,1852.5,208.4,1909.8,260
			z M2172.5,2154.9c23.8-16.7,47.2-34.2,71.7-49.7c13.9-8.8,14.8-17.8,7.9-31.2c-11.2-22-15.4-46.3-20.1-70.2
			c-2.6-13.2-9.7-29.5,14.8-32.6c18.5-2.3,33-3.2,32.4,21.7c-0.1,5.7,2.4,11.4,3.8,17.1c21.5,90.8,75.8,174.1,203.4,165.8
			c34.1-2.2,68.5,0.7,102.7-1.1c71.4-3.9,142.3-11.5,207-46.4c113.2-61.1,138.8-168,65.2-272.6c-11.8-16.8-23.9-33.5-37.4-48.9
			c-81-91.8-111.9-200.6-105-320.2c5.8-100.4,17.6-200.5,25.8-300.8c13.3-162.4-51.1-285.5-180.2-348.6
			c-94.5-46.2-195.2-67.2-298.8-78.8c-19.8-2.2-18.2,4.6-13.6,19.3c9,29.1,12.1,59.4,10.5,89.8c-1.2,23.1-13.7,53.1-3.5,67.3
			c10.6,14.8,42.7,13.4,65,20.6c135.2,43.5,243.3,119.4,301.1,254.3c28.9,67.4,30.1,138.7,26.9,210.5c-2.2,50.8-4.1,101.6-5.8,152.4
			c-3.3,95.1,39.4,169.3,100.1,239.2c99.8,115,7.3,242.5-96.1,264.4c-123.2,26.1-273.1-51-321.5-167.4
			c-16.2-39-21.3-79.3-13.6-120.6c1.9-10.1-3-32,21.8-23.9c16.5,5.5,35.8,7.3,26.1,34.1c-6,16.7-3.8,34.8-0.3,52.3
			c19.3,94.6,85.6,143,170.7,171.6c42.6,14.3,86.5,15.8,129.3-1.1c75.9-30.1,98.6-110.3,49.5-174.9c-13.6-17.9-27.3-35.8-42.1-52.7
			c-44.5-50.6-64.3-110.8-70.2-176.6c-6.7-74.4-0.1-148.6,4.2-222.7c7.2-123.5-32.7-226.5-129.4-305.9
			c-44.4-36.4-93.7-64.6-148.6-80.5c-202.3-58.8-402.8-47.5-598.1,27.5c-180.9,69.5-293.9,201.1-335.3,392.2
			c-17.5,80.7-22,162.6-25.1,244.7c-3.1,81.4-41.6,138.4-115.8,171.9c-23.1,10.4-46.6,20.6-68.6,33c-34,19.3-53.8,48.1-49.6,89.1
			c5,48.8,42.9,92,90.8,103.7c60.7,14.8,114.1-4.3,163.1-38.3c60.9-42.3,100.1-103.7,137.9-165.5c9.7-15.9,17.6-11.9,26.7-3.5
			c8.1,7.5,30.5,7.1,16.3,28.7c-33.8,51.5-66.5,103.8-111.8,146.6c-58.4,55.2-125.7,88.9-208.3,85c-79.5-3.7-146.1-60.5-161.2-137.7
			c-13.7-70,18.8-125.6,95.3-162.9c21.1-10.3,42.4-20.1,63.5-30.3c40-19.4,63-50.9,69-95.2c9.4-68.8,7.7-138.4,16.8-207.4
			c34.3-259.1,173.8-431.3,420.8-516.5c55.8-19.2,64.3-29.5,65.6-88.4c0.4-18.4-2.8-36.9-4.9-55.3c-2.5-22.1-10.3-30.9-36.3-24
			c-145.7,38.6-286.6,91.1-427.2,144.4c-48.3,18.3-82.3,51.1-106.4,95.7c-21.6,40-34.5,82.9-40.3,127.8c-10.8,83.7-4.8,168-9.5,252
			c-4.8,86.3-29.6,164.9-76.9,236.7c-29,44-58.5,87.8-88.1,131.4c-27,39.9-49.1,82-62.6,128.5c-36.8,126.2,20.6,225.5,148.8,254.3
			c95.5,21.5,189.1,3,280.9-21.3c111-29.4,206.4-79.3,237.6-204.3c4.6-18.3,25.4-1.7,38.7-3.2c13.3-1.5,8.5,9.8,7.3,16.7
			c-6.5,37.3-19.8,73-45.7,100.1c-22.7,23.7-15,39.6,2.8,58.2c3.4,3.5,6.9,7.1,9.6,11.1c10.4,15.4,20.3,18.2,33.9,2.4
			c13.3-15.5,29.2-28.9,43.3-43.8c50.7-53.4,91.3-112.3,97.5-188.8c1.9-23.7,19-13.4,30.8-14.3c15.6-1.1,19.8,7,18.3,22
			c-6.5,62.2-32.2,116.1-68.8,165.7c-24.5,33.2-54.5,61.4-83.2,90.7c-4.8,4.8-15,8.1-9.1,18.4c11,19.2,54.5,26.7,71.4,12.1
			c68.1-58.8,118.7-129.7,145.7-215.9c6.7-21.5,14.5-27,37.3-20.1c27.6,8.3,13.4,23.5,9.3,36.1c-26,79.5-69.2,148.4-128.2,207.6
			c-7.2,7.2-17.8,12.1-20.2,25.8c19.9,5.7,37.2,5.5,53.8-9.2c21.3-18.9,41.7-38.4,58.7-61.3c60.1-80.8,81.4-174.4,88.2-272.2
			c9.4-134,0.1-267.9-7.7-401.6c-3.9-67.2-7.1-134.8-21.1-201.1c-12.1-57-34.5-107.6-85.3-141.6c-10.8-7.2-21.3-9.3-33.2-6.7
			c-136.6,30.2-243.2,98.4-299.5,232.6c-25.8,61.6-42.3,125.7-57.4,190.3c-19.6,83.7-38.3,167.9-78.7,244.6
			c-40.1,76.1-93.7,139.7-175.9,173.4c-10.4,4.3-25.6,19.3-32.1-4.5c-4-14.9-16.8-31.1,12.2-40.6c41.6-13.5,73.9-42.7,102.4-76
			c48.1-56.4,75.2-122.9,95.2-192.9c23.6-82.5,39.4-167.1,64.6-249.3c54.6-178.4,173.4-286.1,354.8-324.3
			c127.5-26.8,256.9-26.5,385.5-13.7c129.8,12.9,195.7,73.4,229.6,199.3c19.7,73.2,22.7,148.6,26.6,223.8
			c3.9,75.2-1.5,150.6,7.4,225.7c10.2,86.2,45.8,153.1,134.1,180.9c25,7.9,10.6,24.7,9.5,38.2c-1.5,17.8-13,11.8-23.5,8.9
			c-90-24.8-155.4-107.4-167.2-209.4c-9.3-79.9-6.3-160.2-9.8-240.3c-3.9-87-6.5-174.1-37.8-256.9
			c-24.5-64.8-71.9-103.8-139.6-116.3c-93.1-17.3-187-13.2-280.8-8.3c-8.2,0.4-17.4-1.5-25.9,6.6c48.2,51.3,71,113.6,78.4,182.1
			c2.3,20.8,11,23.2,30.7,20.8c65.5-8.2,127.6,1.2,165.3,62.5c37.6,61.3,39.2,130.1,23.8,198.6c-3.3,14.6-4.9,22.8,4.7,35.7
			c56.1,75.8,23,197.7-62.8,236.8c-36.7,16.7-75.5,19.9-114.7,17.5c-18.2-1.1-23.2,5.4-24.6,22.7c-9.4,118.7-42.2,228.4-124.7,318.6
			c-1.7,1.8-2,4.9-3.6,9.3c77.1-1.1,136.8-28.7,175.2-97c25.8-46,44.1-94.1,42.6-147.3c-0.7-24.9,12.2-25.4,30.9-26.3
			c23-1.1,19.8,13.7,19.3,26.9C2209.5,2046.9,2194.9,2100.2,2172.5,2154.9z M171,2635c1.4-3.4,2.1-7.4,4.3-10.1
			c103.4-123.4,230.9-169,387.2-118.6c17.2,5.5,20.2-3.2,25.1-14.3c63.5-141.9,118.9-286.8,157.5-437.6
			c43.8-171.2,82.9-343.6,118.1-516.8c3.2-15.7,4.8-28.3,29.3-22.5c23.6,5.6,24,13.8,19.1,33.7c-13.7,56.9-24.4,114.4-37.3,171.5
			c-45.7,202.6-88.9,405.8-163.2,600.7c-50.9,133.6-106.6,264.4-186.8,383.5c-12.4,18.4-25.6,36.3-38.6,54.8
			c116.3,49.3,256.5,39.9,333.9-94c84.7-146.5,150.1-300.3,180.9-467.6c2-11,0.8-17.6-8.4-25c-80.9-65.1-99.4-150.1-77.6-247.6
			c17-76.2,59.1-139.5,102.1-202.6c49.4-72.5,104.2-142.6,120-232.4c13.6-77.5,10.5-156,11.9-234.1c1.9-104,18.8-202.3,86.7-285.7
			c4.6-5.6,9.4-11.3-1.2-15.7c-27.4-11.3-50.4-30.4-78.2-48.6c3.8,43.5-5.6,78.9-24.1,112c-29.5,52.8-78.6,66.1-131.1,35.6
			c-8.5-4.9-13.8-9.8-25.2-1.8c-58.3,40.8-99.5,38.7-152.2-6.3c-7.1-6.1-10.9-8.1-19.1-2.1c-62.7,45.3-129.4-10.6-134.8-76.7
			c-2.1-25.2-0.8-50.8-0.6-76.2c0.1-11-1.1-19.9-9.4-29.1C502.7,685.1,528.5,421,715.7,278.5c4.9-3.7,12.6-5.6,13.1-17.4
			c-41.3,0-82,0.5-122.7-0.1C401.6,258,212.2,405,175.4,606.3c-36.9,202.3-45.5,407.7-48.2,613.2c-0.2,15.5,5.3,18.2,19.2,14.5
			c35.3-9.3,71.4-11.2,107.7-9.2c98.7,5.4,151.1,61.9,145.1,160c-5,80.6-43.3,147-96.2,205.8c-11.4,12.7-24.7,23.9-43.4,41.8
			c64.5,1.8,116.7-11.3,169.4-25.2c73.5-19.4,112.8-66.4,129.7-138.9c28.2-120.6,29.2-242.1,18.9-364.4c-7.3-86.6-18.5-173-15-260.3
			c0.5-12.3-0.5-24.5,18-21.3c14,2.5,31.5-4.1,30.8,22.5c-1.1,41.9,0.1,84.2,3.7,126c12.3,141.1,29.3,282,7.2,423.8
			c-10.6,67.9-21.1,136.1-65.3,191.7c-13.9,17.5-19.8,33.7-20.2,55.1c-2.3,124.7-20.7,247-53.5,367.4
			c-53.5,196.2-148.9,370.8-270,532.6C193.1,2568.6,176.6,2598,171,2635z M2792.4,600.8c-12.6,5.6-17.1,7.5-21.4,9.6
			c-97.5,48.7-200.8,69.2-309.4,61.8c-11.5-0.8-33.5,8.2-30.5-18.3c2.2-18.6,0.8-34.5,32.9-31.3c109.9,10.9,213.3-15.5,309.7-69
			c50.2-27.9,72.4-92.2,51.6-148.9c-9.2,5.7-18.1,11.4-27.2,16.9c-107.6,64-223.1,92.1-348.2,75.9c-6.3-0.8-16.2,4.2-18.5-7.9
			c-5-25.8,9.1-41.6,36.1-39.1c109.8,10.3,211.3-14.5,305.6-71.1c54.3-32.7,56.4-43.3,21-96.7c-13.1-19.7-22.3-24.8-45-8.8
			c-87.6,62-186.2,88-293.4,81.1c-17.6-1.1-29.5-4.2-26.3-27.1c2.7-19.8,8.8-25.1,29.7-23.1c90.8,9,174.2-14.5,251.1-62.6
			c5.9-3.7,14.6-5.6,15.1-15.7c-12.1-7.7-25.4-10-38.9-11.8c-43.3-6.1-85.6,1.1-128,9.5c-67,13.3-133.8,28.3-202.3,8.3
			c-44.4-13-83.1-38.7-125.9-55.2c-104.5-40.3-222.1,3.2-274.1,101.1c-8,15.1-10,27.5,0.6,43.1c23.2,34.3,36.1,73.3,45.7,113.6
			c20,84.3,12.7,169.1,3.9,253.7c-2.3,22.2,2.4,23.4,22.1,21.7c196.7-17.2,388.2,0.1,568.5,88.5c8.8,4.3,15.9,5.3,24.5-0.1
			C2695.2,751.2,2750.2,687.3,2792.4,600.8z M2156.2,2796.6c8.9-0.4,12.9-6.5,17.8-11.1c64.7-61.3,89.2-138.3,86.5-225.2
			c-3.3-107.4,16.2-210,61.8-307.4c8.3-17.6,24.9-35.3,24-52.3c-1-19.2-28.6-26.2-41-42.1c-1.8-2.3-4.4-4.1-5.9-6.5
			c-9.6-15.4-18.6-13.8-32.7-3.2c-57.9,43.6-119.6,81.1-188.6,104.8c-17.2,5.9-18.6,15.2-15.5,30.8c7.1,36.6,9.8,73.5,3.8,110.7
			c-9.1,55.5-42.8,87.9-95.1,90.2c-55.5,2.5-99.3-30.6-111.5-83.9c-4.4-19.3-5.4-38.7-4.8-58.3c1.7-53.4,1.9-53.7-51.1-65.5
			c-88.3-19.6-160.1-65.5-217.7-135.8c13.5,42,31.2,81.9,40,124.7c21.7,106.3,20.4,213.8,17.5,321.4c-1,37.1,10.9,70.3,24.9,103.4
			c10.5-2.4,13-10.5,17.1-16.8c36.7-57.1,58.7-119.3,58.8-187.5c0-24.5,10.6-29.2,31.4-30.1c25.7-1.1,19.4,16.5,18.9,29.6
			c-3.1,75.8-24.5,146.2-64.7,210.5c-34.6,55.4-35,55.4,16.5,97.3c2.3,1.8,4.8,3.4,6.9,5.4c16.1,15.1,26.2,15.4,37.5-7.5
			c40.7-82.2,68.5-168.1,78.5-259.3c2.2-19.8,9.4-22.2,27.5-20.8c22.4,1.8,24.2,11.9,21.7,30.3c-12.7,93.8-38.6,183.5-82.8,267.3
			c-11.3,21.5-12.5,32.7,15.1,35.8c22.3,2.5,44.5,6,66.5,10.2c20.6,3.9,29-4.5,34.6-24.2c25.8-91.1,38.7-183.5,28.6-278.1
			c-2.8-25.7,13.9-22.6,28.6-25.5c18.6-3.6,21,7.6,21.7,21.9c3.9,86.3,0.5,171.9-21.7,256.1c-14.1,53.5-13.7,52.4,42.7,43.1
			c27.7-4.6,41.5-17.6,49.4-44.4c25.1-85.6,28.8-171.4,4.3-257.2c-6.1-21.4,3.2-24.6,18.3-29.8c16.8-5.8,25.2-1.3,29.6,16
			c14.8,59.3,22.9,119,15.3,180.1C2165.3,2741.3,2160.4,2768.8,2156.2,2796.6z M1158.5,262.2c-106,0-207.3-0.1-308.7,0.2
			c-5.5,0-11.3,2.4-16.5,4.8C722.7,317.5,642.7,394,614.7,517c-21.9,96-1,184.4,46.1,267.4c33.1,58.4,84.3,91,153.6,90.4
			c59.6-0.5,119.1-3,178.1-12c36.9-5.6,74.4-8.4,109.3-21.4C996.1,636.9,1065.2,451.2,1158.5,262.2z M1625.9,795.9
			c69-18.2,132.9-35.7,197.2-51.4c15.8-3.9,16.9-14.6,18.6-25.7c5.1-33,6.6-66.2,1.5-99.3c-20.1-129.7-88.7-222.6-213.2-267.1
			c-116.3-41.5-223-21.1-315,64.5c-135.1,125.7-112.8,346.3,44.2,441.1c25.1,15.2,48.1,21.4,76.3,7.6c24.4-11.9,50.6-21.5,77-28
			c40.9-10,71.4-27,73.1-74.8c0.4-10.2,6.9-20.2,10.3-30.4c9.6-28.6,23.7-55.8,24.1-87c0.7-48.3-33.1-86.1-79.2-88
			c-40-1.6-76.5,32.5-78.7,78.3c-1.4,30-24.9,21.7-38.1,23.4c-18.2,2.4-11.8-16.9-11.2-26.2c3.2-52.2,28.7-91.1,76.3-112.8
			c49.5-22.6,95.8-12.4,136,22.4c51.8,44.9,51.2,102,32.9,161.5C1648.8,733.9,1637.5,762.9,1625.9,795.9z M1398.9,2860.9
			c104.8-2.3,168.3-58.9,185.5-161.5c16.9-101,14.2-202.7,8.8-304.2c-3.4-64.5-12.4-128.3-36.7-189c-20.5-51.3-19.6-50-71.1-30.2
			c-22.4,8.6-26.4,20.3-22.5,41.8c7.6,41.5,7.8,83.7,4.3,125.7c-3.7,44.9-31.5,75.4-73.6,82.9c-50.5,9.1-101.7-26.5-119-82.9
			c-9.4-30.5-10.9-62.2-4.6-92.8c4.6-22.1-3-22.4-20.1-20.4c-20.3,2.5-41.2,5.3-61.3,3.2c-23.5-2.4-38.2,7.3-52.9,23.5
			c-61.7,67.8-98.8,147.3-113.1,237.3c-9.2,58.1-8,116.2,9.7,174.1c4.7-2.2,7.7-2.9,9.8-4.6c5.4-4.2,10.6-8.7,15.5-13.4
			c55-52.7,88.4-116.9,94.9-192.7c2.4-28.4,17.8-23.7,35-24c25.4-0.4,15.6,18.4,14.4,29.1c-10.1,88.9-47.8,164.3-113.2,225.6
			c-43.3,40.6-43.5,40.4-7.1,88.8c2.4,3.1,5.1,5.9,7.3,9.2c13.5,20.1,24.1,18.6,38.4-1.2c63.5-88.4,102.9-186.1,114.5-294.2
			c2.8-26.3,17-21.6,33.2-22.1c25-0.8,15.1,16.9,16,28.6c0.4,5.7-1.3,11.6-2.1,17.4c-16.1,110.2-57.6,210-122.6,300.4
			c-4.1,5.6-17.3,10.6-5.6,21.1c16.4,14.8,58.4,14.2,74.8-1.3c29.6-27.9,51-61.4,66.8-98.7c29.7-69.8,37.5-143.2,35.4-218
			c-0.6-22.1,11.4-20.4,25.5-20c12.2,0.4,25.6-3.7,25,17.6c-2.4,84.3-7.7,167.9-43.1,246.4c-15.2,33.8-36.9,63.5-59.2,93.6
			c46,13.1,51.3,11.5,73-24.4c58.3-96.4,91.1-200.6,92.1-313.7c0.2-22.1,11.9-22,27.9-22.8c18.7-0.9,23.8,7.1,22.5,24.4
			c-2.9,39-5.9,77.9-13.6,116.4C1471.9,2715,1442.1,2788.8,1398.9,2860.9z M2330.3,2676.4c17.5-22.9,26-43.6,33.7-64.6
			c16.4-44.6,24.7-90.9,18.4-138.2c-3.8-29,13.6-28.1,32.6-30.6c24.8-3.2,14.5,16,15.6,25.2c9.6,80.7-11.5,155-50.7,224.7
			c-22.7,40.2-22.9,43.2,16.3,69.2c6.5,4.3,13.8,7.5,20.2,11.8c17,11.3,28.7,8.3,40.8-9.2c57.8-84.1,83.7-175.9,67.7-277.4
			c-3.5-22.2,5.8-26.2,23.2-30.1c19.1-4.2,24,4.7,26,20.8c6.6,53.8,5.5,107.1-6.7,160.2c-13,56.6-38.2,107.6-70.9,156.8
			c23.3,6.3,43.9,2,63.9,4c29.5,2.8,40.4-12.2,48.6-37.6c29-90,38.7-181.2,21.8-274.5c-2.9-16.1-0.4-25,17.3-29.4
			c22.5-5.6,30.4,2.6,33.4,24.2c13.3,94.4,7.3,187.1-20.9,278.4c-2.3,7.4-9.7,15.3-2.4,25c15.2-3.9,30.2-8,45.4-11.5
			c23.1-5.3,36.5-16.6,39.3-42.9c3.9-36.9,9.8-73.4,10.2-110.7c0.6-51.1-3.6-101.6-13.8-151.6c-5.3-25.9,15.7-18.7,27.1-23.2
			c12.1-4.7,20.3-1.9,21.8,13.5c3.3,33.9,10.9,67.1,12.6,101.5c2.4,49.7,0.5,99.2-4.4,154.8c19.5-24,28.3-45.5,32.9-68.5
			c19.2-96.9,18.4-194.4,4.6-291.7c-6.3-44.2-26-83.8-56.1-117.4c-19.7-21.9-40.5-38.7-73.5-26.8c-14.4,5.2-30.7,5.8-46.3,6.8
			c-20.1,1.3-33.4,5.8-28.8,31c3.5,19.4-2.4,39.1-7.3,57.8c-14,53.9-61.4,93.1-108.5,91.2c-55.4-2.2-99.5-44.8-109.8-104.2
			c-3.6-21,0-40.8,3.5-61c0.8-4.7,7.2-11.2-2-14.4c-7.3-2.6-10.5,3.1-13.6,8.1c-3.1,5-5.9,10.1-8.7,15.3
			c-36.5,66.8-59.9,138.2-68.6,213.5C2305.7,2527.7,2306.8,2600.6,2330.3,2676.4z M1332.3,900c-4.8-3.8-7.7-6.4-10.9-8.6
			c-192.9-138.4-194.4-405.4-0.5-542.5c125.4-88.6,259.7-87.8,389.3-12.3c137.4,80,192,207.5,183.7,364c-0.5,9-11,21.6,4.3,26.8
			c16.8,5.7,54.5-10.3,56.1-22.6c8.2-63.1,14.7-126.4,10.9-190c-9.6-158.8-96.2-267-247.2-303c-128.1-30.6-258.1-28.4-387.3-6.6
			c-55,9.2-101.7,38-129.8,87.6c-64,112.8-109.6,232.1-102.6,364.4c5.8,109,49.7,197.9,151.3,250.9
			C1278.7,923.2,1304.9,923.6,1332.3,900z M130.4,2581.7c11.5-19.2,19-32.3,27.1-45.1c9-14,17.9-28,27.9-41.2
			c130.2-172.3,222.8-362.2,269.1-573.7c7.3-33.2,17.3-66.2,7.7-101c-12.7-46.4-30.3-90.6-55.3-131.9c-8.6-14.2-17.4-22.9-35-17.1
			c-21.3,7-7.7,21.9-5.8,31.6c16,78.6,14.9,155.5-18.7,229.8c-36.3,80.4-103.8,117.8-189.3,103.4c-19.9-3.3-23,2.8-23.7,20.3
			c-1.9,48.8-6.5,97.6-8.4,146.4C121.3,2327,118.3,2450.7,130.4,2581.7z M448.2,2534.2c-24.2,0.3-46.4,3.6-68.2,9.2
			c-100.3,25.5-161.9,95.9-211.9,180.9c-18.5,31.5-18.4,43,13.3,75.9c13,13.6,30.3,21.4,48.3,26.6c69.2,20.3,126.6-0.4,175.5-50.8
			c58.3-60.2,101.6-130.8,142.2-203.4c8.8-15.8,2.3-19.8-11.3-24.1C506.7,2539.4,476.9,2535.6,448.2,2534.2z M125.8,1389.8
			c1.3,0,2.6,0,4,0c0,20.5-1,41.1,0.2,61.6c2.4,39,4,78.2,16.3,115.7c16,48.6,49.1,58.4,85.3,25.4c15.1-13.8,30.1-28.1,43.2-43.8
			c43.5-52,75.6-109.7,76.7-179.6c0.8-52.9-24-80.9-75.8-91.9c-43.3-9.2-85.4-2.4-127.8,6.2c-18.2,3.7-23.5,12.6-22.5,30.3
			C126.8,1338.9,125.8,1364.4,125.8,1389.8z M177.8,1665.1c-15.1,100.9-25.7,200.5-35.5,300.3c-1.5,15.5,4.5,20,18.4,22.8
			c58.4,11.8,103.7-7,133.5-59.3c42.3-74.2,39.3-152.9,19.9-232.7c-2.3-9.6-6.3-15.4-17.7-14.5
			C256.1,1684.9,217.3,1676.3,177.8,1665.1z M1963.9,863.5c-0.9,0-1.8,0.1-2.7,0.1c0,14.6,1,29.3-0.3,43.9
			c-1.3,15.4,0.3,22.2,19.5,20.6c68.1-5.4,136.5-6.8,204.6,1.1c13.3,1.5,19.2-1.9,22.2-15.5c10.4-46.9,7.7-92.6-7.4-138.2
			c-5.5-16.6-14.2-22.7-31.6-22.5c-64.5,0.7-128.6,3.7-192.6,12.4c-17.9,2.4-23.1,7.4-19.8,25.5
			C1960.3,814.8,1961.4,839.3,1963.9,863.5z M2120.3,1606.7c18.6,1.4,41.5-4.6,64.7-7.7c30-4,45-20.9,43.3-51.7
			c-1-18.5-1.6-37.1-3.2-55.6c-7.7-87.9-58.8-125.9-145.8-110.5c-16.6,2.9-20.5,9.3-19.4,24.6c4.1,53.6,7.7,107.2,10.9,160.9
			C2073.3,1608.3,2072.9,1608.3,2120.3,1606.7z M784.5,2783.1c83.5,16.5,161.2,19.1,241.3,0.8c-54.3-98.4-67.3-201.1-52-308.9
			C917.1,2580.4,878.3,2695.6,784.5,2783.1z M2075.6,1742.7c0.7,0,1.4,0,2.1,0c0,12.7,0,25.4,0,38c0,58.3,0,58.3,58.2,54.1
			c86.9-6.3,133.1-69.2,111.2-151.3c-8.3-31.2-23.5-40.6-54.9-36.4c-30.9,4.1-62,8.9-93,9.3c-22.2,0.3-25.8,8.7-24,27.9
			C2077,1703.6,2075.6,1723.2,2075.6,1742.7z M2020.9,2346.7c-1.7-18.6-3.3-37-6.8-55.3c-2.3-12.1-5.2-16.8-18.5-14.3
			c-23.9,4.4-48.2,7.1-72.4,9.9c-8.2,0.9-15.6,0.7-15.6,12.1c0,30.1-7.5,60.1-0.3,90.5c7.2,30.4,26.3,45.9,58.7,46
			c29.7,0.1,45.2-12.8,51.3-45.1C2020,2376.1,2019.8,2361.3,2020.9,2346.7z M1419.4,2294.8c0.7,0,1.5-0.1,2.2-0.1
			c-2.3-24.3-4.5-48.6-7.1-72.8c-0.8-7.3,0.7-18.7-10.7-16.8c-24.9,4.1-51.3,6.6-73.6,17.3c-16.1,7.7-10.9,31.8-13.4,48.6
			c-4.9,31.8-0.1,62.6,21.7,88.2c13.7,16,31.4,22.3,52.5,16.9c21-5.4,25.7-22.6,28-40.3C1420.8,2322.3,1419.4,2308.4,1419.4,2294.8z
			 M2580.4,2250.4c3.4-18.8-5.1-29.9-32.3-26.6c-23.2,2.8-46.8,2.2-70.2,1.9c-11.4-0.2-18.7,2.6-21.8,14.2
			c-6.6,25.3-8.3,50.4,4.8,74c23.7,42.7,75.5,44.5,102.5,4.2C2575.9,2299.4,2578.1,2278.1,2580.4,2250.4z M921.4,919.5
			c-7.6,0.4-10.5,0.5-13.4,0.6c-50.1,2.6-50.1,2.6-58.4,51.3c-5.6,32.8,15.9,58.7,49.2,59.6c36,0.9,53.5-15.5,64.8-61
			c12.6-50.5,11-52.6-38.2-50.5C922.6,919.6,919.6,919.5,921.4,919.5z M1108.4,926.3c0.7-22.1-3.5-36.7-31.3-27.7
			c-17.4,5.6-40.6,1.7-53.2,12c-14.3,11.6-3.1,36.4-8.4,54.8c-1.1,3.7-0.9,7.9-2.4,11.4c-9.1,21,4.7,31,19.6,39.2
			c17.3,9.5,34.1,8,46.7-8.8C1097.5,983.1,1107.1,956,1108.4,926.3z M1913,870.1c2.3-26.6-1.8-52.7-5.9-78.8c-3.2-20-17-12.1-27-8.9
			c-9.9,3.2-30.2-2.8-23.6,19.5c12.4,42.2,13.3,84.5,5,127.4c-1.4,7.3-1.6,12.7,9.2,13.3c28.6,1.6,40.9-8.5,42.2-37.4
			C1913.5,893.6,1913.1,881.8,1913,870.1z M803.2,946.4c1.2-21.2,1.1-21.1-21.4-25.1c-11.4-2-23-3.7-34.1-6.8
			c-32.5-9.2-32.5-9.4-31.7,26.1c0.1,3.9,0,7.8,0.4,11.6c2.9,33.5,18,55.3,39.5,57c22.3,1.7,41.8-20.8,46.6-54.1
			C802.9,952.2,803,949.3,803.2,946.4z M1021.3,2326.2c1.2,0.6,2.4,1.2,3.7,1.9c10.8-17.1,21-34.7,32.6-51.3
			c12.2-17.4,25.8-33.9,39.9-52.2c-9.1-3.2-17.6-5.1-24.9-9.1c-20.2-11-26.1-2.8-29.6,17.4
			C1037.5,2264.3,1028.7,2295.1,1021.3,2326.2z M479,1718.2c2.7-0.4,5.4-0.8,8.1-1.3c0-21.6-0.1-43.2,0.1-64.8
			c0.1-8.9-3.3-11.2-12.3-9.9c-26,3.7-30.5,11.5-18.5,34.1C463.8,1690.3,471.4,1704.2,479,1718.2z"/>
		<path class="st0" d="M939.2,486.5c43,0,76.5,33.5,76.1,76c-0.5,47.3-41.5,89-87.1,88.3c-45.4-0.7-77.6-34.6-78.4-80.2
			C848.8,522.8,891.7,488,939.2,486.5z M964.9,562.8c-0.2-18.5-9.8-27.1-27.4-26.2c-21.9,1.1-38.2,10.7-38.7,34.4
			c-0.4,19.1,11.5,31.9,31,30.8C952.9,600.6,962.1,583.6,964.9,562.8z"/>
	</g>
</g>
</svg>
