<?xml version="1.0" encoding="utf-8"?>
<!-- Generator: Adobe Illustrator 23.0.0, SVG Export Plug-In . SVG Version: 6.00 Build 0)  -->
<svg version="1.0" xmlns="http://www.w3.org/2000/svg" xmlns:xlink="http://www.w3.org/1999/xlink" x="0px" y="0px"
	 viewBox="0 0 3000 3000" style="enable-background:new 0 0 3000 3000;" xml:space="preserve">
<style type="text/css">
	.st0{stroke:#000000;stroke-width:10;stroke-miterlimit:10;}
</style>
<g id="Layer_1">
</g>
<g id="Layer_2">
	<g>
		<path class="st0" d="M869.3,1076.9c-1.8-0.8-2.4-1.2-3-1.2c-28.8-2.2-60.3,6.4-84.3-16.9c-34.3-33.3-63-70.5-73.9-118.6
			c-5.2-23.1-7.1-45.9,3.2-68.4c3.7-8,4-13-7.4-17.7c-84.9-34.9-109.8-127.1-54.6-201.3c7.4-9.9,4.3-12.5-3.7-18.4
			C562.9,574,570.3,461.9,660.4,413c10.1-5.5,9.6-8.8,5-17.9c-25.4-50-22.1-98.7,13.3-142.3c36.1-44.5,84.2-56.2,138.7-40.9
			c9.2,2.6,15,4.8,17.5-7.5c22.6-108.6,159.8-137.1,226.6-52.8c1.1,1.4,3.1,2.2,4.8,3.3C1115,46.8,1242.5,45.8,1301.1,133
			c27.8-47.7,68-74.7,123.8-71.6c56.4,3.1,93.7,34.2,115.9,87.5c22.9-52.7,59.6-85.1,116.9-87.5c56.9-2.4,97.4,25.2,124.5,74.9
			c58.3-108.3,196.9-94.7,240.5,8.6c14.2-31,33.7-55.7,63.8-70.5c30.2-14.9,61.8-18.3,93.8-8.2c59.2,18.6,93.8,67.7,91.6,128.4
			c-2,55.6-41.1,104.5-94.7,118.3c-62.8,16.2-112.8-9.1-154.7-78.2c-48.1,108.4-187.9,108.7-239.9,5.9c-27,50-67.6,78.8-124.1,76.2
			c-56.8-2.6-95.3-33.9-117.5-88.4c-21.1,51.2-56.9,82.7-110.8,87.8c-52.9,5-94-17.8-123.5-62c-53.7,93.3-165.3,92.4-222.4,20.2
			c-7.4,1.7-7.2,9.2-9.8,14.1c-29.5,55.9-91.1,82.9-151.3,64.4c-13.3-4.1-18.3-4.2-21.6,10.9c-8.4,38.3-31.6,66-66.1,84.5
			c-4.7,2.5-14,1.2-9.3,13.3c28.4,73.2,25.5,95.9-17.8,158c63,45.2,77.7,85.8,58.5,162.9c-1,3.8-4.4,8.7,1.4,10.2
			c7.8,2.1,16.2,3.3,24.3,2.9c7.2-0.3,4.3-7.3,4.2-11.4c-0.9-36.4,1.4-72.5,8.1-108.4c25.5-135,102.1-227,230.6-276
			c80.3-30.6,164.6-40.8,249.2-48.7c107.1-10,214.3-18.7,322.1-17.2c147.8,2.1,293.7,19.1,438.2,50c16,3.4,20.3,8.5,15.6,25.1
			c-8.2,28.8-7,29.1-36.8,22.7c-199.6-43-401-57.1-604.7-40.9c-97,7.7-194,13.6-289.5,33.8c-32.2,6.8-63.6,16.5-93.9,29.4
			c-109.9,46.6-167.4,132.7-184.3,248c-13.8,94.2,2.2,185.5,30.2,275.3c0.6,1.8,2.1,3.4,6.7,10.8c-2.4-32.3-4.5-58.8-1.9-85.4
			c15.3-158.6,95.1-257.3,246.9-306.2c147.9-47.7,298.8-68.2,453.9-52.6c135,13.6,269.1,33,399.9,70.3c11,3.1,24.6,4.5,15.2,21.6
			c-6.6,12.1,1.3,36.2-28.9,27.7c-164.9-46.4-333.3-71.6-504.5-73.9c-120.3-1.7-236.8,24.1-349.3,65.6
			c-148.6,54.8-192.2,183.4-182.9,311c0.6,8.6,3.3,11.3,11.3,7.3c0.6-0.3,1.2-0.6,1.9-0.8c40.2-13.2,40.1-13.2,30.8-54.1
			c-13.9-60.8-1.6-117.5,31.6-168.9c39.5-61.2,97.8-74.5,161.7-39.3c8.9,4.9,13.2,7.6,19.6-4.5c37.8-71.1,126.5-89.2,188.9-37.9
			c14.3,11.8,22.2,11.4,37.2,1.4c68-45.6,137.3-38.2,196.1,20.2c10.1,10,13.3,2.8,19-2.4c37.2-33.9,79.7-46.8,129-32.3
			c24.4,7.2,43.9,22.3,60.4,40.8c7.6,8.5,12.1,10.7,23.1,4.1c68.3-41.1,133.1-28.2,182.7,34.9c33.2,42.2,50.3,87.2,30.3,141.2
			c-7.4,20.1-26.5,33.1-30.3,55.4c-1.2,7.2-12,3-18.3,2c-103.6-17.3-207.7-26.8-312.8-27.8c-156.2-1.6-310.2,19-463.8,43.5
			c-101.1,16.1-200.2,39.3-293.6,82.5c-191.7,88.7-301.5,239-333.3,447.1c-23.7,154.9-14.1,310.4-6.3,465.7
			c5.6,112.2,11.2,224.4,22.6,336.3c7.8,77.1,18.6,153.5,40.5,228.1c53.8,183.5,174.3,299.3,355.7,354.7
			c81.2,24.8,164.9,33.8,248.9,40.7c58,4.8,116.2,8.2,174.4,10.7c165.9,7,326.5-15.5,477.9-88c90.4-43.3,171.5-99.9,242.3-170.8
			c13.3-13.3,19.9-12.3,31.7,0.5c19.2,21,20.1,20.2-0.7,40.3c-102.6,99.2-221.2,172.2-356.5,217.7c-127.5,42.9-259.1,56-392.7,50.9
			c-109.6-4.2-219.1-10.7-327.5-28.2c-137.4-22.2-262.5-70.9-363.1-172.1c-85.3-85.8-129.9-191.5-155.6-307.1
			c-22.1-99.4-29.2-200.6-36-301.7c-10.2-150.4-19.9-301-20.7-451.8c-0.6-120.1,6.3-239.7,44.3-355.3
			c33.1-100.6,89.1-186,167.9-256.6c4.6-4.1,8.9-8.3,13.3-12.6C869,1079.8,868.9,1078.9,869.3,1076.9z M1308.6,871.3
			c0-44.5-10.4-72-37.8-100.4c-39.4-40.8-84.5-39.8-114.2,4.1c-31.3,46.2-38.8,96.5-21.8,150.3c3.7,11.7,7.8,15,20.2,11.2
			c40.4-12.5,81.8-21.3,123.5-28.9C1308.7,902.1,1308.7,901.8,1308.6,871.3z M1359.1,865.6c0,4.8,0.6,9.7-0.1,14.3
			c-1.8,11.3,2.2,14.2,13.4,12.4c38.5-6,77.1-11.4,115.7-16.1c11.9-1.5,16.5-6.7,16.6-18.3c0.2-38-4-75.5-20.7-109.8
			c-16-32.8-40.7-56.3-80.1-58.4c-51.5-2.7-85.1,46.6-63.1,92.4C1353.4,808.4,1358,836.7,1359.1,865.6z M875.5,1024.9
			c17.8,0,35.5,0.1,53.3,0c10.4-0.1,14.8-3.7,10.6-15.2c-17.1-47-28.3-95.5-35.5-144.9c-1.7-11.4-7-16-18-18.1
			c-37.9-7.2-73.4-1.5-106.3,18.4c-14.8,9-25.2,22.5-25.1,40c0.3,46.4,26.9,80.4,56.6,112.3c15,16.1,34.8,4.2,52.1,7.6
			C867.2,1025.6,871.4,1025,875.5,1024.9z M1610.8,690.7c-27.3-0.3-50.4,11-72.1,26.2c-6.2,4.4-8.8,8.5-5.4,17
			c15.4,38.6,22.3,79,21.9,120.4c-0.1,11.5,3.7,13,14.4,12c42.3-4,84.7-7.1,127.1-9.5c10.8-0.6,15.8-3.1,16.8-14.6
			c4.4-50.6-7.6-95.2-46.5-130.1C1651.1,697.8,1632.3,690.5,1610.8,690.7z M1839.3,855.7c0,0.8,0,1.5,0,2.3
			c19.9,0,39.8-1.1,59.6,0.4c11.8,0.9,16.2-3,17.3-13.9c3-29.7,1.9-58.9-10.2-86.7c-28.5-66-101.1-78-145.6-24.4
			c-6.1,7.4-9.2,14.1-5.9,24.2c8.8,26.2,12.9,53.5,9.8,81c-1.7,15.1,5.2,17.4,17.4,17.2C1800.9,855.4,1820.1,855.7,1839.3,855.7z
			 M1903.1,111.3c-44.2-0.3-79.3,33.1-80.1,76.1c-0.8,42.7,34.2,78.9,77,79.7c42.3,0.7,78.8-35.1,79-77.7
			C1979.2,146.9,1944.9,111.6,1903.1,111.3z M2221.7,188.6c-0.1-42.7-34.2-77.3-76.3-77.3c-44,0-79,33.9-79.4,76.9
			c-0.4,42.4,35.6,78.8,78,78.9C2187.2,267.1,2221.8,232.2,2221.7,188.6z M1037.2,230.6c0-44.2-33.5-77.7-77.6-77.5
			c-42.4,0.2-77.1,34.2-77.7,76.4c-0.6,42.6,35,78.8,77.6,79C1003.4,308.6,1037.2,274.7,1037.2,230.6z M700,332.1
			c-0.6,44.3,33.2,78.3,78.9,79.6c39.9,1.1,76.6-36,76.9-77.7c0.2-41.7-34.4-77.3-76.1-78.2C736.1,255,700.5,289.1,700,332.1z
			 M716.5,605.4c43.7,0,78.4-34.8,78-78.2c-0.4-42.6-36.1-77-80.1-77.3c-39.3-0.3-75.2,36.2-75.8,77.1
			C638,570.3,672.8,605.4,716.5,605.4z M747.8,811.5c44,0,78.9-34.8,78.3-78c-0.6-42.6-35.3-76.8-77.7-76.7
			c-44.5,0.1-77.8,33.6-77.7,78.1C670.8,778.1,704.5,811.5,747.8,811.5z M2118.8,832.2c1-37.7-37.8-89-77-102.9
			c-30.7-10.9-54.3,3.8-77.8,19.9c-4.6,3.1-4.9,7.4-3.4,12.7c8.1,28.8,8.2,58.2,5.5,87.6c-1,10.5,1.9,14.2,12.8,15.3
			c34,3.4,68.1,6.8,101.7,12.9c17.6,3.2,25.3-4.1,31.5-17.7C2116,851.1,2118.9,842,2118.8,832.2z M1741.5,188.6
			c-0.2-42.9-34.1-77.2-76.3-77.3c-43.9-0.1-78.8,33.8-79.2,76.9c-0.4,43.2,34.5,78.2,77.8,78.1
			C1707.9,266.1,1741.6,232.4,1741.5,188.6z M1188.6,276.4c42.9,0.2,78.6-35.2,78.6-77.9c0-42.6-36-78.4-78.6-78.1
			c-41.9,0.3-76.9,35.2-77.3,77.1C1110.8,240.9,1145.3,276.2,1188.6,276.4z M1417.1,111.4c-44.2,0.7-77.1,34.9-76.6,79.4
			c0.5,43.3,36,76.7,80.4,75.6c42.2-1.1,75.7-36.6,74.9-79.5C1495,144.4,1459.9,110.7,1417.1,111.4z"/>
		<path class="st0" d="M1144.9,2223.9c-8.9-2.3-16.7-4.2-24.4-6.2c-39.3-10.1-31.7-5.5-23.6-38.9c3.5-14.5,8.8-15.7,22.8-12.3
			c198.9,48.1,398.8,61.6,599,9.7c211-54.7,372.9-176,482.7-365c6.8-11.7,12.2-14.7,23.2-6.5c4.3,3.2,9.4,5.7,14.4,7.7
			c13.4,5.4,14.1,12.3,6.7,24.6c-43.2,72.2-93.7,138.4-156.1,195c-10.7,9.7-12.9,17.6-7.9,31.6c30,84,44.2,169.8,20.3,257.9
			c-15.6,57.2-44.4,105.1-104.7,124.9c-36.5,12-73.2,6.4-109-4.9c-9.3-2.9-15.6-3.1-22.9,5.8c-55.1,66.8-118.8,83.3-194.9,43.9
			c-32.3-16.7-50.5-17.4-80.1,7.9c-54.8,46.9-118.3,37.1-176,2c-27.5-16.8-45.4-26.1-75.5-1.6c-34.2,27.8-75.7,17-112.4-2.7
			c-86.6-46.4-126.4-155.7-91-247.5C1138.5,2241,1141.6,2232.8,1144.9,2223.9z M1865.4,2280.1c0.1-26.8-3.9-53.1-9.4-79.3
			c-2.9-14.2-8.2-15-20.4-10c-51.4,20.9-104.4,37-159.1,46.8c-15.5,2.8-16.8,8.5-13.3,21.6c11.1,41.8,10.9,83.9,0.5,125.9
			c-11.1,44.9-11.2,44.9,32.2,63.4c3.8,1.6,7.6,3,11.5,4.4c49.1,17.4,86.5,6.1,117.4-35.4
			C1855.2,2376.6,1864.7,2329.7,1865.4,2280.1z M1479.4,2259c-9.6,0-19.3,1-28.7-0.2c-18.1-2.2-24.9,2.7-23,22.8
			c3.7,38.4-0.4,76.5-11.8,113.6c-13.4,43.6-13.3,43.7,27.6,65.5c6,3.2,12.3,6.1,18.6,8.6c51.4,20.1,94.7,7.8,126-37.3
			c36.6-52.7,39.9-110.4,24.3-170.9c-3.2-12.4-11.2-11.4-20.4-10.4C1554.6,2255,1517.1,2258.2,1479.4,2259z M2062.9,2229.4
			c0.2-46.4-9.8-91-23.4-135c-3.1-10.1-5.8-15.6-17.4-6.7c-35.3,27.1-73.2,50.6-113.1,70.4c-8.6,4.3-10.3,9.2-7.8,17.8
			c19.6,68.9,20.7,137.7-1.6,206.2c-2.5,7.7-1.4,10.9,6.6,13.1c57.9,15.6,102.3,9,132.4-48.5
			C2057.8,2309.9,2062.7,2270.1,2062.9,2229.4z M1378.9,2301.8c-0.4-8.3-1-19.2-1.6-30.1c-0.5-10.3-4.7-15.8-16.3-16.2
			c-50.7-1.8-100.7-9.9-150.6-18.1c-9.9-1.6-14.9,0.8-19.6,9.3c-40.9,74-10.5,171.3,65.5,209.1c31.8,15.8,57.5,10.5,80.2-17.1
			C1368.7,2399.6,1378.4,2353.4,1378.9,2301.8z"/>
		<path class="st0" d="M1005.4,1539.7c10.7-198.9,120.7-361,327.3-454.3c233.7-105.6,518.8-35.1,674.5,162.2
			c181.3,229.6,140,551.3-94,732.2c-265,205-659.7,135.7-832.2-146C1031.8,1753.5,1005.7,1661.8,1005.4,1539.7z M1056.3,1542.1
			c0.7,121.2,27.8,208.7,82.3,287.7c183.1,265.4,582.7,293.4,803.2,56.2c177.5-191,168.8-478.8-19.8-656.9
			c-160.4-151.4-406.4-187-600.9-83C1153.7,1235.6,1063.5,1376,1056.3,1542.1z"/>
		<path class="st0" d="M1965,1566.8c1.2,227.5-183.8,412.7-412.6,413.8c-226.1,1.1-413.5-183.2-413.7-411.8
			c-0.2-228.6,182.6-413,411.9-414.3C1778.2,1153.3,1963.8,1338,1965,1566.8z M1912.9,1567.3c0-11,0.3-21.9-0.1-32.8
			c-0.3-6.8-1.7-13.6-2.8-20.3c-5.2-34.6-5.2-34-39.9-32.9c-14.2,0.4-22.5,4.3-26.3,19.2c-5.8,23.3-17.7,44.4-29.4,65.3
			c-97.8,174.6-324,232.9-488,125.8c-51.1-33.4-89.6-77.9-117.2-132.1c-3-5.9-5-13.8-14.4-11.2c-8.7,2.4-5,10.1-5.3,15.6
			c-1.4,22.7,1.1,45.2,5,67.5c32.6,184.5,202.6,314.5,389.3,297.9C1770.9,1912.5,1914.3,1755.4,1912.9,1567.3z M1575.1,1205.2
			c-189.6,0.1-335.1,112.9-375.1,272.8c-4.1,16.5-1.5,18.9,15.6,17.7c105.6-7.7,210.2-24.2,315.8-31.9
			c112.6-8.2,224.8-21.7,337.2-32.3c16.5-1.6,17.5-7.2,10.6-20.3C1810.4,1279.4,1701.5,1211.1,1575.1,1205.2z M1576.4,1510.7
			c3,9.1,5.9,16.6,8,24.5c9.9,37.1,0.5,69.6-26.6,95.9c-27.3,26.5-60.6,33.7-97,22.8c-45.5-13.7-72.4-57.8-66.9-107.2
			c0.8-7.1,8.2-18.9-9.7-17c-37.4,4-74.9,7.3-112.4,10.6c-11.9,1-13.8,5.5-7.5,15.5c17.7,28,38,53.8,63.7,74.7
			c136.1,110.7,342.1,74.7,434.3-76c12.3-20,24.6-40.2,31.5-65.4C1720,1496.3,1648.6,1503.5,1576.4,1510.7z M1495.8,1518.5
			c-41.7-0.9-52,17.2-52,44.7c0,24.9,22,45.1,46.8,44.9c26.5-0.2,48.6-23.3,47.2-49.4C1536.5,1534.3,1519.5,1517.9,1495.8,1518.5z"
			/>
	</g>
</g>
</svg>
