<?xml version="1.0" encoding="utf-8"?>
<!-- Generator: Adobe Illustrator 23.0.0, SVG Export Plug-In . SVG Version: 6.00 Build 0)  -->
<svg version="1.0" xmlns="http://www.w3.org/2000/svg" xmlns:xlink="http://www.w3.org/1999/xlink" x="0px" y="0px"
	 viewBox="0 0 3000 3000" style="enable-background:new 0 0 3000 3000;" xml:space="preserve">
<style type="text/css">
	.st0{stroke:#000000;stroke-width:10;stroke-miterlimit:10;}
</style>
<g id="Layer_1">
</g>
<g id="Layer_2">
	<g>
		<path class="st0" d="M1702.3,1465.8c-26.3,10.2-48.9,19.3-71.8,27.6c-8.5,3.1-12.2,8.6-14.3,16.9
			c-66.1,269.8,108.2,519.9,385.4,553.4c20.1,2.4,40.2,4.3,60.3,3.1c13.4-0.8,18.3,3.5,16.9,16.9c-0.9,8.5,0.1,17.3,0,25.9
			c0,4.2,0.2,10.5-5.4,9.8c-23.9-2.9-24.5,17.2-31.3,30.8c-45.1,90.8-89.9,181.6-134.8,272.5c-34.3,69.6-68,139.5-103.2,208.6
			c-9.5,18.7-4.4,20.9,13.6,20.3c39.6-1.3,79.2-3.1,118.3-9.2c17.9-2.8,27.3-0.5,29.2,20.7c2.5,28.4,4.4,29.2-24.3,32.4
			c-166.8,18.3-332.2,15-493.6-36.6c-118.7-38-218.3-102.9-282.4-213.7c-34.9-60.3-50.8-126.9-58.1-195.1
			c-19-176.9-29.9-354.3-21.9-532.3c3.8-85.6,11.8-170.9,24.5-255.7c2.7-18.2,0.3-29.7-17.1-40.6c-44.2-27.8-81.4-64-114.1-104.6
			c-3-3.7-4.7-9-10.9-9.9c-4.7,4.7-2.5,10.8-2.6,16.1c-1.9,282.3-16.6,564.2-24.7,846.3c-6.7,234.6,86.2,422,263.7,569.3
			c86.2,71.5,189,103.6,300.7,111c120.8,8,241.6,12.1,362.5,4.1c66.8-4.4,133.3-11.9,199.1-24c16.2-3,18.3,3.6,20.5,15
			c6.7,34.3,6.8,34.2-28.5,40.2c-159.1,26.8-319.3,30.7-480.1,22.3c-74.8-3.9-149.7-7.7-221.9-29.9
			c-123.8-38.1-223.4-111.9-302.5-212.9c-77.7-99.1-135.2-208.7-156.6-334.6c-8.6-50.5-11.5-101.7-10-152.8
			c5.6-188.5,12.8-377,18.3-565.6c3.7-128.8,5.7-257.7,8.2-386.6c0.1-7.7-1.2-16-4-23.1c-87-218.2,0.9-448.7,201.3-574.4
			c24.4-15.3,49.8-28.8,76.1-40.7c5.7-2.6,11.8-3.9,13.9-11.8c14.2-52-25.6-110.6-78.9-115.6c-23.8-2.2-47.5-0.5-71.1,2.3
			c-23.7,2.9-47.4,4.1-71.1,3.3c-82.9-2.6-138.7-53.2-149.9-135.5c-12.2-89,21.6-158.7,100.8-204.6
			c139.3-80.8,376.1-72.8,501.9,93.6c6.5,8.6,13.1,17,21.8,28.1c1.8-9.7,3.4-16.8,4.5-24.1c8.1-52.1,37-89.6,82-115.3
			c45.2-25.7,93.9-41.6,145.7-42.5c94.4-1.5,188.3,5.3,280.3,28.6c21.6,5.5,42,14.8,62,24.8c61.6,30.7,91.4,94.2,79.5,169
			c-10.5,65.9-60.2,117.5-123.9,127.7c-28.3,4.5-55.9-2.4-83.2-8.7c-19.6-4.5-38.8-10.1-59.1-11.3c-30.5-1.8-52.4,11.6-64.5,37.8
			c-25.8,55.6-35.7,114.9-35.7,176.1c0,13.3,10,16.2,18.1,21.5c100.7,66.4,176.8,153.2,209.9,270.5c52.7,186.5,2.2,347-140,475
			c-52.7,47.5-79.8,103.9-96.7,167.9c-50.4,191.1,89.7,338.4,250.9,355.3c7.3,0.8,18.7-3.2,20.6,6.7c2.8,14.6,2.5,30.1-1.5,44.7
			c-1.3,4.7-7.6,2.4-11.7,2.2c-164.7-10.5-315.4-141-321.5-319.5c-1.6-46.3,5.9-91.8,21.2-135.8
			C1694.6,1487.7,1697.9,1478.4,1702.3,1465.8z M1372.1,1471.7c186,0.5,298-36.2,393.1-108.6c209.6-159.7,230.4-440.6,46.1-624.3
			c-203.2-202.7-562.6-199.7-762.4,6.4c-154,158.8-161.2,388.7-14.9,554.3C1139.4,1419,1276.1,1470,1372.1,1471.7z M1452.2,450.6
			c0.3-32.2,10.3-65.4-2.3-96.3c-48.3-118.2-128.8-200.2-259.6-221.1c-87.2-13.9-171-3.3-246.5,46.3c-53.4,35.2-74.5,90.9-59.8,152
			c13.2,54.8,45.3,81.2,101.6,80.3c41.4-0.7,82.8-5.7,124.3-6.1c36.6-0.4,70,8.5,98.3,35.7c31.2,29.8,40.8,66.7,44.5,106.6
			c1,10.9,3.7,13.6,14.1,10.6c55.7-15.7,112.6-23.2,170.5-22c10.8,0.2,15.4-3.2,15.1-14.7C1451.7,498.1,1452.2,474.4,1452.2,450.6z
			 M1507.4,432.1c-0.7,0-1.5,0-2.2,0c0,28.8,0.7,57.6-0.3,86.3c-0.5,15.1,1.5,22.5,19.7,24.7c50.8,6.2,100.4,19.1,146.9,41
			c14.8,7,17.6,5.4,18.6-10.4c3-49.1,13.1-96.9,29.8-143.2c22.9-63.7,69.7-93.1,136.7-87.9c32.5,2.5,62.8,15.1,95.1,19.1
			c39.8,4.9,68.7-10.6,88.6-44.1c38-64.1,16.6-130.2-51-160.2c-49.4-21.9-101.9-28.6-155-33c-63.7-5.3-127.4-14.1-191.4-1.7
			c-96.4,18.7-134.6,63.9-135.5,161.4C1507,333.6,1507.4,382.8,1507.4,432.1z M1191.1,2303.9c53.3,32.7,103.5,63.4,153.4,94.4
			c7.7,4.8,12.2,3.6,18.1-2.8c29-31,58.3-61.6,87.9-92.1c6.5-6.7,6.9-10.5-1.2-16.6c-35-26.4-69.6-53.3-104.1-80.4
			c-6.7-5.3-11.9-5.7-19-0.5C1282.2,2238.2,1237.9,2270.1,1191.1,2303.9z M1187.1,2018c48,37,94.8,72.8,141.2,109
			c7.3,5.7,12.1,4,18.7-0.9c33-24.2,66.4-48.1,99.8-71.7c7.3-5.2,10.2-8.8,1.5-15.8c-41.9-33.9-83.7-68-125.1-102.6
			c-6.8-5.7-11.6-6-18.6-1C1266.1,1962.4,1227.4,1989.5,1187.1,2018z M1784.4,2552.4c1.2-7.7-3.7-10.3-7.6-13.2
			c-44.4-34.3-89-68.4-133.2-102.8c-7.8-6.1-12.8-5.9-19.3,2.2c-20.3,25.2-40.9,50.2-62.4,74.5c-8.8,10-6.9,14.3,3.8,20.7
			c46.3,27.6,92.1,56,138,84.2c36.9,22.7,36.9,22.8,56.3-16.5C1768.4,2584.7,1776.7,2568,1784.4,2552.4z M1159.9,1732.6
			c51.1,42.1,100.3,82.5,149.3,123.2c6.5,5.4,11.4,3.5,17.1-0.6c23.4-16.6,46.8-33.2,70.4-49.4c7.5-5.2,9.5-9.1,1.8-16.2
			c-40.4-37.7-80.4-75.8-120.5-113.8c-4.9-4.7-9-8-16.6-3.4C1228.6,1692.4,1195.3,1711.7,1159.9,1732.6z M1866.6,2384.9
			c-1.7-1.9-3.3-4.2-5.4-5.9c-34.3-28.4-68.9-56.5-103-85.1c-8-6.7-11.2-1-15.3,3.8c-22.6,27-45,54.2-68,80.9
			c-6.4,7.4-5.5,11.4,1.9,17c41.2,31.2,82.3,62.6,123,94.5c8.9,6.9,12.3,5.8,17-4.1c14.7-31.1,30.4-61.7,45.7-92.4
			C1863.9,2390.9,1865,2388.3,1866.6,2384.9z M1544.4,1698c-1.5-1.7-3.2-3.9-5.3-5.7c-40.2-34.6-80.6-69.1-120.7-103.9
			c-5.4-4.7-9.4-4.3-15.1-0.8c-25.1,15.3-50.2,30.6-75.7,45.2c-9.2,5.3-8.2,9.1-1.3,15.6c38.7,36.4,77.2,73,115.5,109.8
			c7,6.8,12.4,7.4,20.3,1.7c24.4-17.7,49.2-34.7,73.7-52.2C1539.1,1705.4,1544,1704.1,1544.4,1698z M1500.1,2082.6
			c-2.9,1.5-5.6,2.5-7.8,4.1c-34.4,24.7-68.8,49.5-103.2,74.3c-11.5,8.3-0.7,11.8,3.9,15.4c30.5,23.9,61.7,47.1,92,71.4
			c9.1,7.3,14.3,5.4,21.4-2.2c25-26.9,50.3-53.5,76-79.6c7.6-7.7,6.7-11.9-1.4-18.3c-24.2-19.2-47.9-39.1-71.8-58.7
			C1506.4,2086.7,1503.4,2084.9,1500.1,2082.6z M1445,1837.9c-1.3,0.6-2.7,1-3.9,1.8c-25.3,17.7-50.6,35.4-75.7,53.3
			c-7.7,5.5-0.5,8.4,2.7,11c41.5,34.3,83.4,68.2,124.7,102.7c8,6.7,13.5,4.7,20.5-0.6c17.2-12.9,34.3-26.1,52.4-37.8
			c10.6-6.9,9.7-11.2,1.3-19c-37.4-34.7-74.2-70-111.3-105C1452.6,1841.5,1449.9,1837.8,1445,1837.9z M1400.5,2432.2
			c33.3,20.5,64.6,39.4,95.5,58.9c7.7,4.8,12.5,4,18.2-2.9c22.8-27.8,45.9-55.3,69.3-82.7c6.1-7.1,5.4-11.1-2.2-16.8
			c-23.7-17.6-46.8-35.9-69.9-54.2c-6.7-5.3-11.5-6.2-18,0.7C1463.1,2367.4,1432.3,2399.1,1400.5,2432.2z M1161.7,2259.3
			c42.4-30.5,81.8-58.9,121.3-87.4c10.9-7.9,1.8-11.3-3.5-15.4c-42.1-32.5-84.1-65-126.3-97.3c-2.2-1.7-4.9-5.9-9.8-1.1
			C1148.9,2123.6,1152,2190,1161.7,2259.3z M1708.3,2255c-2.2-2.6-3.7-5-5.9-6.8c-21-17.4-42.4-34.4-63.2-52c-7.4-6.2-11.3-1.9-16,3
			c-25.3,26.6-50.4,53.2-76,79.4c-7.1,7.3-8.1,11.6,1.1,18.2c22.1,15.9,43.8,32.6,64.9,49.8c8.5,6.9,13.5,7.4,20.8-1.7
			c22.1-27.4,45-54.1,67.6-81.1C1704,2261.1,1705.9,2258.2,1708.3,2255z M1136.4,1782.3c-2.6,67,0.1,128.5,2.9,190
			c0.6,13.8,7.9,8.5,14.1,4.1c35.9-25.1,71.6-50.5,107.6-75.5c7.3-5.1,10.2-8.5,1.5-15.5C1221.6,1852.6,1181.3,1819.1,1136.4,1782.3
			z M1367,1547.6c-20.5-24.6-27.4-28.4-56-34c-44.6-8.8-87.6-22.4-129.2-40.7c-5.8-2.6-13.4-12.7-19.5-2.2
			c-4.5,7.8-5.5,17.2,3.3,25.4c34.7,32.3,69,65.1,103.3,98c5.5,5.3,9.9,6.4,16.7,2.2C1312.5,1579.7,1339.7,1563.8,1367,1547.6z
			 M1469.4,2541c-1.3-6.1-5.6-7.7-9.2-9.9c-14.6-9.1-29-18.6-44.2-26.8c-18.1-9.8-35.4-32.5-53.2-28c-17.2,4.3-29.7,27.4-44.2,42.2
			c-0.5,0.5-0.9,1.1-1.5,1.6c-8.9,6.9-7.3,12.5,1.7,17.8c20.4,12,40.4,24.8,61.2,36c14.4,7.8,31,20.1,44.8,18
			c11.4-1.7,20-21.6,29.9-33.4C1459.8,2552.4,1464.9,2546.4,1469.4,2541z M1917,2101.1c-6-0.8-9.1,0.2-11.7,3.3
			c-12.9,15.4-25.9,30.7-39.1,45.8c-4.8,5.5-2.1,8.7,1.9,12.4c21.9,20.7,43.8,41.4,65.7,62.2c4.6,4.4,8.5,7.6,12.6-1
			c15.8-32.9,32-65.6,48.1-98.3c2.3-4.7,2-8.9-3.8-9.6C1965,2112.7,1939.9,2106.9,1917,2101.1z M1639.4,1911.6
			c-1-1.9-1.7-3.9-2.9-5.7c-30.6-43.9-53.3-91.6-67.9-143.1c-2.2-7.9-6-8.7-12.3-4.2c-19.3,13.7-38.6,27.2-58,40.8
			c-5.3,3.7-5.4,7-0.5,11.7c39.1,36.9,78.1,74,117.1,111.1c4.3,4.1,8.4,5.3,13.1,1.2C1632,1919.9,1638.3,1918.4,1639.4,1911.6z
			 M1681.8,2059.9c-2.9-3.2-5.1-6-7.7-8.4c-9.3-8.9-18.6-17.9-28.3-26.6c-30.3-27.1-30.4-27-64.4-2.4c-36.5,26.4-36.5,26.4-2.8,55
			c52.7,44.6,52.7,44.6,96.3-9C1677.2,2065.9,1679.3,2063.2,1681.8,2059.9z M1891.3,2334.7c6.7-13.3,11.7-25.2,18.5-36.1
			c7.5-12.1,5.1-20.3-5.5-29.2c-14.2-11.9-27.4-25.3-40.8-38.1c-39.1-37.4-39.1-37.5-70.7,7.2c-0.4,0.6-0.8,1.2-1.4,1.6
			c-6.4,5.2-3.8,9.2,1.3,13.4C1825.3,2280.2,1857.7,2307,1891.3,2334.7z M1787.3,2160.3c-2.8-3.1-5.3-6.4-8.2-9.2
			c-15.5-15-31.7-29.4-46.6-44.9c-8.9-9.2-14.6-7.4-22,1.5c-9.7,11.6-19.9,22.9-31.1,32.9c-10,8.9-7.7,14.2,1.6,21.4
			c17.6,13.6,35,27.7,51.6,42.6c9.6,8.7,15.2,6.3,22-2.9c7.7-10.4,16.6-19.9,24.8-29.9C1781.9,2168.5,1784.2,2164.8,1787.3,2160.3z
			 M1550.6,1632.1c0.2-39.5,2.2-73.1,9.1-106.1c2.6-12.3-3.7-12-13.2-11.3c-33.3,2.6-57.9,22.9-86.2,39.8
			C1489.8,1579.9,1518,1604.1,1550.6,1632.1z M1188.7,2365.1c1.7,14.9,7.4,24,11.8,33.7c9.5,21,22,40.2,35.8,58.6
			c29.5,39.4,29.5,39.4,62.4,5.1c3-3.1,5.7-6.5,9-9.3c9.1-7.5,5.9-12.2-2.7-17.4C1266.8,2412.9,1229,2389.7,1188.7,2365.1z
			 M1229.1,1629.7c-26.5-25.3-50.9-48.7-78.1-74.7c-4.1,44.5-9.8,83.7-10.2,127.2C1171.9,1663.7,1199.4,1647.3,1229.1,1629.7z
			 M1639.4,2641.1c-28.5-17.5-56.9-35.1-85.4-52.6c-37.9-23.4-37.6-23.1-65.8,12.4c-7.7,9.7-7.6,13.1,5.1,16.6
			C1540.9,2630.7,1589.3,2639.9,1639.4,2641.1z M1779.3,2041c-8.5,1.2-12.1,8-16.7,13.1c-5.2,5.8,0.9,9,4.2,12.1
			c16,15.4,32.6,30.2,48.3,45.9c6.4,6.4,9.7,4.7,15.2-1.1c27.5-28.7,27.6-28.5-8.1-46.4c-9-4.5-17.7-9.4-26.5-14.2
			C1790.1,2047.4,1784.6,2044.1,1779.3,2041z M1674.8,1955.9c-3.4,2.3-6.5,4.1-9.2,6.4c-3.9,3.3-1.5,6.5,1.1,9
			c15.4,14.9,31,29.6,46.4,44.5c5.9,5.8,9.9,2.3,14.3-2c5.4-5.3,1.8-8.1-2.2-11.8c-14.7-13.5-29.2-27.3-43.8-40.9
			C1679.3,1959.1,1677,1957.5,1674.8,1955.9z"/>
		<path class="st0" d="M1582.6,975.1c-0.5,86.1-70,154.8-155.7,154.2c-85.6-0.6-154.8-70.8-154-156.3c0.9-85.7,71.2-155.4,156-154.6
			C1514.5,819.3,1583.1,889.2,1582.6,975.1z M1326.2,973.1c-0.4,57.7,44.5,103.1,101.8,102.9c56.6-0.2,101.5-44.7,101.9-100.9
			c0.4-57.7-43.9-102.2-102.1-102.4C1370.8,872.5,1326.6,916.2,1326.2,973.1z"/>
		<path class="st0" d="M1113.7,973.9c-8.6,0-17.3,0-25.9,0c-27.7,0-26.3-0.1-28.1-27.6c-1.4-21,5.6-27.9,26.4-26.1
			c20,1.7,40.3,1.3,60.4,0.2c15.2-0.8,21.7,2.5,21.1,19.8c-1.2,33.7-0.1,33.8-34.4,33.8C1126.7,973.9,1120.2,973.9,1113.7,973.9z"/>
		<path class="st0" d="M1530.7,1275.5c0,7.9-1.1,16,0.2,23.7c3.2,18-4,23.6-21.7,24.2c-30.8,1-30.5,2-31.4-27.9
			c-0.6-19.4-1.5-38.8-3.4-58.1c-1.1-10.6,0.8-15.2,12.6-16.7c38.4-4.8,40.5-3.5,42.6,35.4c0.3,6.4,0,12.9,0,19.4
			C1530,1275.5,1530.4,1275.5,1530.7,1275.5z"/>
		<path class="st0" d="M1164.5,1219c0.5-6.4,0.5-12.9,1.5-19.3c1.5-10.4-4.2-26.8,4.3-30.1c12.3-4.9,28-1.5,42.2-1
			c8.9,0.3,6.9,7.6,6.7,12.9c-1,25-2.7,50-3.5,75c-0.3,9.2-3.6,12.7-12.9,11.9c-45.4-3.7-41.3,10.3-38.7-40.9
			C1164,1224.7,1164.2,1221.9,1164.5,1219C1164.5,1219,1164.5,1219,1164.5,1219z"/>
		<path class="st0" d="M1472.4,649.6c7.2,0,14.3-0.1,21.5,0c28.1,0.4,26.8,0.4,27.8,28.5c0.7,19.8-5.5,26.6-25.6,24.4
			c-19.8-2.1-40-1.1-60-0.4c-11.1,0.4-14.5-3.1-15.2-14.3c-2.4-38.3-2.9-38.3,34.4-38.6c5.7,0,11.4,0,17.2,0
			C1472.4,649.4,1472.4,649.5,1472.4,649.6z"/>
		<path class="st0" d="M1726.7,836.8c0.1,1.4,0.2,2.9,0.3,4.3c2.2,34.1-9.7,44-43.8,37.8c-8.5-1.6-7.9-6.9-8.2-12.4
			c-1-19.4-1.3-38.8-2.7-58.1c-0.8-11.1,3.3-14.9,14.3-16C1723.5,788.8,1723.5,788.4,1726.7,836.8z"/>
		<path class="st0" d="M1234.1,766.9c-0.7,0-1.5,0.1-2.2,0c-9.7-1.7-24.3,4.6-28.3-3.6c-6-12.4-2.6-28-0.6-42.2
			c0.3-1.9,1.5-4.1,3-5.5c3.1-2.9,59.7-1.9,61.4,1.7c6.7,14.2,3.9,29.5,1.6,44c-1.8,11.3-12.6,6-19.8,6.3
			C1244.2,767.8,1239.2,767.1,1234.1,766.9z"/>
		<path class="st0" d="M1725.7,1102.4c0,0.7,0.1,1.5,0,2.1c-1.9,10.3,4.9,25.2-4.8,30.1c-12.4,6.3-31.3,5.9-41.5-0.9
			c-15.7-10.4-4.6-31.1-6.4-47.2c-0.7-6.7-2.8-17.5,9.1-18.3c12.1-0.8,24.4,0.1,36.5,0.3c6.8,0.1,8.1,4.4,8,10.1
			c-0.2,7.9,0,15.8,0,23.6C1726.3,1102.4,1726,1102.4,1725.7,1102.4z"/>
	</g>
</g>
</svg>
