<?xml version="1.0" encoding="utf-8"?>
<!-- Generator: Adobe Illustrator 23.0.0, SVG Export Plug-In . SVG Version: 6.00 Build 0)  -->
<svg version="1.0" xmlns="http://www.w3.org/2000/svg" xmlns:xlink="http://www.w3.org/1999/xlink" x="0px" y="0px"
	 viewBox="0 0 3000 3000" style="enable-background:new 0 0 3000 3000;" xml:space="preserve">
<style type="text/css">
	.st0{stroke:#000000;stroke-width:10;stroke-miterlimit:10;}
</style>
<g id="Layer_1">
</g>
<g id="Layer_2">
	<g>
		<path class="st0" d="M2339.9,635.6c31-102.4,107.7-162.9,207.4-167.9c63.4-3.2,124.9,5.6,182.2,35.6
			c64.6,33.9,109.2,84.7,123.7,156.4c18,88.9,15.9,179.1,4.8,268.7c-5.8,46.7-27.8,86.9-65.5,115.9c-16.1,12.4-6.9,19,1.1,28.5
			c58.3,69.1,94.2,148.5,102.8,238.5c10.3,107.8-20.5,201.8-102.2,276.4c-22.1,20.2-49.6,30.5-77.5,43.6
			c88.2,43.2,122.4,117.4,129.9,209c6,73,1.9,145.8-2.6,218.4c-6.4,104.4-92.8,190.4-209.5,214.3c-74.1,15.2-142.7,0.5-207.1-36.9
			c-38.4-22.3-67-51.9-63.5-106.1c-17.5,22.2-31.4,40.5-45.9,58.2c-29.7,36.2-64.2,67.1-102.1,94.7c-64,46.5-134.1,65.3-213.7,61
			c-174-9.5-348.1-4.5-522,5.2c-45.5,2.6-91,2.7-136.6,4.2c-76.5,2.5-145.5-21.1-208.5-62.6c-16.7-11-32.7-13.1-51.4-10.2
			c-196.6,30-394.1,43.9-593,34.9c-139.6-6.3-256-61.9-347.8-167.2c-56.7-65-86.5-141.7-86.2-227.9c0.9-217.6-0.6-435.4,7.2-652.8
			c6-167.6,18.5-336.2,67-497.9C177.6,614.1,285.5,515.3,444,479c52.5-12,108.7-8.5,163.3-10.1c51.6-1.5,103.3,0.6,154.9-0.7
			c101.6-2.6,187.8,34.4,262.1,101c14.7,13.2,23.6,14.6,40.3,2.8c120-84.8,254.7-125.9,401-127.5c176.1-1.9,352.1,2.4,528.1,10.2
			c125,5.5,224.6,59.7,312.5,142.7C2317.2,607.7,2326.3,620,2339.9,635.6z M1988.1,1386.7c82.9-7.8,158.3-15.2,233.8-21.9
			c10.7-0.9,25.8-12.2,28.4,12.4c2.3,22-8.2,25.5-25.6,27c-160.1,14.1-320.2,28.8-480.4,42.5c-15.5,1.3-22.8,6.2-26.8,21.6
			c-11.1,42.3-29.7,81.4-56.2,116.6c-4.6,6-14.6,11.4-10.3,20c4.1,8.3,14.6,4.5,22.2,5.1c69.6,5.6,139.2,10.7,208.8,16.2
			c10.7,0.8,22.2-0.1,19.6,18.2c-2.4,16.2-7.8,23.1-24.9,21.1c-32.1-3.8-64.4-6.8-96.7-9.1c-176.7-12.5-353.5-23.6-530.7-20.8
			c-42.7,0.7-84.5,7.3-121.9,31c-147.6,93.6-196.5,320.3-97.4,468.2c89.9,134.1,216.9,192.9,379.2,180.2
			c208.8-16.4,418.2-16.8,627.5-10.2c30.6,1,60.7-1.8,89-15c54.7-25.6,104.7-58.4,143.7-104.7c121.8-144.5,188.7-309.3,179-501.1
			c-2.6-52.6-6.8-105-9.3-157.6c-4.9-103-13.3-206-12.2-309c0.9-88.1-0.4-176-1.3-264c-1-92.1-21.2-178-79.6-252.6
			c-90.1-115.1-197.9-199.5-350.7-207.7c-154.7-8.3-309.6-9.6-464.4-11c-68.7-0.6-137.3,1.1-205,17.1
			C1144.6,542.1,1001,631.3,928,811.6c-52.9,130.7-56.9,259.4,13.1,385.7c5.5,9.9,9.4,21.9,22.9,27.6
			c48.9-96.4,77.1-196.7,82.6-303.1c0.8-15,3-24.6,22-24.2c21.3,0.5,17.9,12.5,17.1,26.3c-6.5,112.6-35.6,219-87.8,318.9
			c-8.1,15.6-6,25.1,5.8,36.8c41.4,41,88.9,72.9,140.4,99.7c12,6.2,19.2,4.5,28.8-4.5c46-43.4,85-92.1,115.6-147.5
			c42.3-76.5,65-158.6,71.9-245.4c0.7-9.1-2.7-20.2,13.8-21.5c20.3-1.6,26.1,5.3,24.6,25.3c-9.8,127.6-52.2,242.5-131.7,343.2
			c-19.9,25.2-42.1,48.5-64.2,73.6c5.8,2.8,10.1,5.6,14.8,7c15.5,4.5,31,9.3,46.8,12.6c122.2,25.4,243.9,5,365.8-4
			c12.2-0.9,20.3-8.5,28.6-15.7c92.9-81.3,153.3-181.6,177.6-303c9.6-47.8,14.7-96.2,9-144.8c-2.5-21.3,12-18.8,24.3-21.5
			c13.9-3,14.2,5.1,14.8,15.3c8.9,151.7-30.8,288.2-126.7,407.2c-14.2,17.7-29.4,34.6-48,56.5c72.7-6.8,139-13.3,205.4-19.1
			c11.4-1,18.2-8,25.4-14.9c73.4-69.1,122.3-152.4,145.5-250.7c13.4-56.8,15.1-114.4,9.5-171.9c-2.1-21.3,10.7-19.7,22.9-22.6
			c17.2-4.1,14.2,8.6,15.5,18c8.3,64,3.4,127.3-11.3,189.8C2101.7,1231.9,2057.2,1311.4,1988.1,1386.7z M1068.7,2243.9
			c-8.1-9.3-12.3-14.7-17.1-19.6c-88.8-90.7-123.3-199.4-107.8-324.8c5.6-45.4,5.6-45.3-40.3-44.4c-153.8,2.8-307.6,11.2-461.3-0.9
			c-99.7-7.9-153.3-58-167.6-156.3c-18.7-128.8-21.2-257.9-0.9-386.8c3.4-21.5-1.5-28.8-23.9-27.9c-37.4,1.6-75,2.4-112.3-0.2
			c-28.9-2-37.6,6.6-37.9,36.2c-2.2,193.3,1.2,386.6-5.2,579.9c-2.7,83.4,21.6,159.9,77.7,224c94.8,108.3,216.3,154.2,358,156
			c140.9,1.8,281.2-4.4,421.2-19.5C989.2,2255.6,1026.7,2249.6,1068.7,2243.9z M632.9,511.2c-39.4,0-79,1.7-118.3-0.3
			c-139.3-7-298.4,110-342.1,254.6c-45.4,150-56.2,305.5-67.6,460.8c-1.3,17.5,6.5,20.1,21.1,19.8c30.3-0.7,60.7-1.1,91,0.1
			c18.6,0.8,23.6-4.3,22.3-23.9c-5.3-78.7-8.4-157.6,5.2-236C276,805.3,363.1,712.5,538.2,698.1c125.4-10.4,249.6-12.2,373.4,13.3
			c12.4,2.6,23.2,3.3,31.1-10.4c16.2-28.2,37.5-52.7,60.3-75.8c8.8-8.9,10.6-15.1-0.1-24.3c-54.7-46.8-114.2-82.2-188-90.4
			C754.1,503.8,693.5,507.6,632.9,511.2z M877.2,1473.2c-9.9-8.1-20.1-15-28.4-23.5c-17.2-17.7-24.3-10.5-32.1,9.1
			c-15.2,38.4-30.5,77.2-58.9,108.5c-20.1,22.2-44.5,34.9-75.4,28.3c-57.1-12.3-82.4-57.1-62.7-115.2c20.1-59.3,43-117.6,64.7-176.3
			c2.4-6.4,8.1-14.9-0.1-18.7c-9.8-4.6-13.6,4.8-16.6,12.7c-6.8,17.9-13.6,35.8-20.6,53.7c-20.3,51.6-38.8,104-61.5,154.5
			c-22.1,49.4-70.5,62.9-122.6,38.2c-47.3-22.4-59.2-58.5-35.6-110.4c19.3-42.2,38.8-84.3,59.5-125.8c10.6-21.2,3.7-25.3-17.2-24.7
			c-41.4,1.1-83,1.8-124.4-0.2c-23.8-1.2-30.9,7.8-34.1,30c-17.9,126.1-16,252.1,0.9,378c11,81.4,56.6,121.2,141.1,126
			c163.8,9.3,327.7-1.8,491.5-0.2c14.4,0.1,21.7-5.1,27-18.3c22.3-55.4,55.4-103.2,101.8-141.2c14.4-11.8,8.5-17-4.6-22
			c-47.2-18-111.4-24.7-137.2,46.8c-17.2,47.6-48.2,86.4-94.3,110.5c-33.1,17.3-64.3,7.4-72.8-27c-20.9-84.6-16.2-193.1,64.8-259
			C844.2,1494.8,860.5,1484.9,877.2,1473.2z M2823.7,803.8c1.3,0,2.7,0,4-0.1c-1.9-33.3-2.8-66.7-5.9-99.8
			c-8.9-95.5-62.5-156.4-152.3-183.2c-90.2-27-178.3-28-251.1,45.6c-45.4,45.9-49.2,101.4-11.9,153.7c18.5,25.9,27.6,27.1,48.8,3.9
			c32.4-35.5,69.5-61.2,119.3-64.7c47.4-3.4,92.9,18.9,109.7,55.1c18.2,39.3,6.5,91.8-28.3,125c-18.5,17.6-40.1,30.6-64.2,39.1
			c-22.8,8.1-45.9,15.5-68.5,24.3c-59.3,23.2-68.1,80.7-17.3,120.2c48.1,37.4,105.2,39.2,162,31.1c99.1-14.1,141.9-57.3,155-156.2
			C2827.1,866.9,2823.7,835.1,2823.7,803.8z M2559.4,1265.9c0-0.5,0-0.9,0-1.4c22.2,0,44.5-0.9,66.7,0.2
			c25.6,1.3,47.5,9.9,54.7,38.1c18.9,73.7-9.6,122.1-83.3,142c-9.7,2.6-19.7,4.6-29.5,6.9c-67.6,16-83.7,42.4-70.4,111.7
			c3.6,18.8,12.3,28.4,31.1,31c37.2,5.2,74.5,5.4,111.9,5.8c104.5,1.2,172.2-60.5,203.5-158.8c38.1-119.6,3.6-226.7-65.4-325.9
			c-19-27.3-38.9-48.4-75.8-27.8c-8.3,4.7-19.6,4.6-29.6,5.8c-62,7.2-118.7,31-175.3,55.3c-19,8.2-29.3,22.9-30.2,44.7
			c-3.1,73.9-3.5,73.9,70.3,72.4C2545.2,1265.7,2552.3,1265.9,2559.4,1265.9z M2806.4,1939.7c0.5,0,1,0,1.5,0
			c0-34.4,1.8-68.9-0.4-103.1c-3-47.3-17.7-91.1-49.3-127.9c-38.8-45.1-81.1-55.1-135.5-31c-23.1,10.2-45,23.3-68.5,32.2
			c-47.7,18.2-77.3,45.8-70.6,102.6c1.7,14.4,2.6,20,16.3,20.3c26.3,0.6,52.6,1.3,78.9,1.4c70.8,0.2,112.8,52.6,98.3,122.8
			c-18.7,90.2-96.1,139.8-196,125.7c-32.2-4.6-61,12.5-74.7,44.3c-10.5,24.5-2.7,45.6,27.2,66.3c57.4,39.6,121.1,57.5,189.7,42.2
			c90.7-20.3,174.2-75.4,182.7-183.4C2808.9,2014.7,2806.4,1977.1,2806.4,1939.7z M794.7,1001.9c27.3-48.1,62.2-82.8,73-132.1
			c7.1-32.6,18.5-64.3,33.8-94c10-19.3,9.7-25.8-14.4-30.1c-133-23.5-265.6-22-398.5-0.5c-84.3,13.7-141.5,60.9-174.3,138.6
			c-47.2,111.9-45.2,228.8-34,346.4c0.5,5.6,0.3,11.7,7.6,15c23.7,10.7,52.5-2.9,59.6-28.6c35.1-126.4,70.1-252.8,106-378.9
			c2.2-7.8-0.3-24.5,15.3-20.9c8.9,2,20.3-0.1,26.5,14.6c20,47.3,63.2,74.7,97.9,113.9c14.5-43.5,27-81.9,40.3-120.1
			c3.8-10.9,2.5-26.9,24.8-19.5c20.2,6.8,18,15.6,12.5,31.3c-16.4,47-31.4,94.6-46.9,141.9c29.3-36,53.9-74.2,79.1-111.9
			c3.7-5.6,5-18.6,16.2-12.1c8.3,4.8,22.4,7.8,22.2,18.7C740.9,922.5,779.5,952.9,794.7,1001.9z M1047.3,1502.5c0-1.1,0-2.3,0-3.4
			c-27.3,0-54.8,2.5-81.8-0.5c-61.9-6.9-103.7,23.9-139,68.9c-38.5,49-32.9,106.4-29.5,162.8c2.2,36.8,9.3,39.1,39,17.9
			c30.8-22,47.7-54,63.9-86.9c13.2-26.8,24.7-53.3,58.5-64.6c54-18,103-12.4,150.4,16.7c7.7,4.7,13.1,11.3,24.1,6.3
			c36.5-16.6,75.5-22,115.2-22.1c16.9,0,23.1-6.6,22.4-23.6c-1.1-27.3-1.8-54.7,0.2-81.9c1.6-22.6-6.9-29.7-28.7-35.9
			c-148.1-42.4-271.1-119.6-345.8-260.1c-15-28.2-30.9-32.1-56.4-12.5c-14.9,11.5-25.2,27-29.4,44.9c-15.2,65-5.6,125.7,42.7,174.1
			c33.8,33.9,69.5,62.8,125.6,58.3c60.1-4.9,121.2,2.7,181.8,3.5c16.5,0.2,19.9,6.3,20.1,21.4c0.2,16.8-8.8,17.1-21.1,17
			C1122.1,1502.2,1084.7,1502.5,1047.3,1502.5z M1452.6,1596.4c0,0.8,0,1.7,0,2.5c39.3,1.9,78.7,3.6,118,5.7
			c12.6,0.7,23.2-1.4,32.7-11.3c31.8-33.4,55.4-71.4,70.9-115c7.4-20.8,3.7-26.1-18.8-23.8c-108.5,10.9-217,22.2-326.3,15.8
			c-15.7-0.9-21.8,3.2-21.2,19.6c1,27.2,1.3,54.6-0.1,81.8c-0.9,18.3,4.9,25.4,23.6,25C1371.7,1595.8,1412.1,1596.4,1452.6,1596.4z
			 M2403.1,2064.7c32.6-23.7,66.5-23.6,104-18c74.4,11.1,144.8-60,131-128.6c-4.9-24.3-15.6-44.9-44.3-45.9
			c-35.4-1.2-70.8-0.5-106.2-1.3c-10.6-0.2-16.5,2.7-19.5,13.9C2452,1946.3,2428.9,2005.1,2403.1,2064.7z M2462.7,893.2
			c34.2-26.5,73.2-36.8,111.1-49.5c25.1-8.5,48.4-21,64.4-42.9c15.8-21.7,21.1-46.8,9.9-71.4c-10.2-22.3-31.8-28.5-55.3-30.3
			c-33.1-2.5-61,7.3-86.1,28.9c-20.3,17.5-34.4,43-62.7,50.7c-6.7,1.8-6.7,6.9-4.8,11.9C2451.8,822.6,2454.6,857,2462.7,893.2z
			 M697.2,1557.9c16.8,1.2,28.2-10.4,37.6-23.8c27-38.2,43.8-81.4,59.9-124.9c3.1-8.5,1.8-15.4-2.6-22.8c-15.5-26.7-22.2-56-25-86.3
			c-0.8-8.6-1.3-16.5-12.8-16.3c-9.8,0.2-20.1-2.3-24.9,11c-25.3,70-52.4,139.3-76,209.8C644.2,1532.1,666.5,1557,697.2,1557.9z
			 M579.8,1283.6c-31.4-9.9-46.8,9.2-59.2,40.9c-16.8,43.2-38.6,84.5-58.3,126.6c-15.1,32.2-6.9,51.2,26.6,62.1
			c31,10,52.4,1.5,65.7-30.5c21.2-51.2,40.2-103.3,60.2-155.1C631.9,1283.6,631.9,1283.6,579.8,1283.6z M2470.9,1447.5
			c2.6,1.1,5.2,2.2,7.8,3.3c32-30.5,74.2-34.1,113.6-45.5c45.5-13.1,54.5-27.1,53.4-74.3c-0.5-20.7-7.7-28.9-28.9-27.8
			c-41.4,2-83.2,5.2-124.3,1.8c-21.9-1.8-22.2,4.6-21.9,21.1C2471.5,1366.7,2470.9,1407.1,2470.9,1447.5z M844.9,995.7
			c-53,82-106.1,164-161.7,250c21.8,0,37-1.1,52,0.3c20.5,1.9,31.5-2.6,37.5-25.8c10.9-42.1,36.2-74.4,81.5-85.2
			c13.5-3.2,14.3-9.7,10.9-21.7C854.4,1075.7,849.4,1037.1,844.9,995.7z M647.8,1025.5c-5.4,7.2-9,11.8-12.4,16.6
			c-43,62.2-43,62.2,6.8,117.7c28.7,31.9,29.5,32.4,52-4.6c6.4-10.5,23.8-19,12.9-36.2C687.9,1088.6,668.5,1058.2,647.8,1025.5z
			 M736.6,1092c11.7-24.9,38.3-39.6,29.7-62.5c-13.3-35.2-34.2-67.4-54-104.8c-13.5,20.2-23.8,36.1-34.5,51.6
			c-5,7.3-6.5,13.7-1.2,21.9C695.9,1027.5,714.5,1057.3,736.6,1092z M394.3,1194.5c47.9-16.5,89.1-30.6,136-46.7
			c-36.5-28.1-67.9-52.3-101.1-77.9C417.5,1111.5,406.8,1149.7,394.3,1194.5z M534.7,1245.6c32.9,0,62.1,1.3,91.2-0.5
			c17.2-1.1,26.9-12,13.8-28.5c-18.3-22.9-38.6-44.1-57.9-66.1c-8.3-9.4-13-6.4-16.4,4.1C555.6,1183.9,545.6,1213.2,534.7,1245.6z
			 M443.7,1031.1c32.2,25,60,46.8,88.1,68.1c7.4,5.6,10-0.4,12.1-6.7c9.3-28.2,18.7-56.3,29.4-88.4
			C529.7,1013.2,490.6,1021.3,443.7,1031.1z M478.9,891.2c-8.5,31.1-17.2,62.8-26.9,98.5c38.1-8.3,69.9-15.3,107.8-23.6
			C530.1,938.6,505.4,915.7,478.9,891.2z M2486.4,1702.1c40.9-20.8,76.3-38.7,118.3-60c-44.6-9-82.6-3.1-118.3-19.5
			C2486.4,1648.9,2486.4,1672.7,2486.4,1702.1z M385.7,1239c0.4,2.2,0.8,4.5,1.3,6.7c23.5,0,47.1,0,70.6,0
			c40.3,0,43.6-3.4,45.6-46.8C463.6,1212.4,424.6,1225.7,385.7,1239z M2546.7,1085.4c-32.9-8-54-23.3-77.5-38.4c0,25.4,0,47.1,0,71
			C2494,1107.6,2516.9,1098,2546.7,1085.4z"/>
	</g>
</g>
</svg>
