<?xml version="1.0" encoding="utf-8"?>
<!-- Generator: Adobe Illustrator 23.0.0, SVG Export Plug-In . SVG Version: 6.00 Build 0)  -->
<svg version="1.0" xmlns="http://www.w3.org/2000/svg" xmlns:xlink="http://www.w3.org/1999/xlink" x="0px" y="0px"
	 viewBox="0 0 3000 3000" style="enable-background:new 0 0 3000 3000;" xml:space="preserve">
<style type="text/css">
	.st0{stroke:#000000;stroke-width:10;stroke-miterlimit:10;}
</style>
<g id="Layer_1">
</g>
<g id="Layer_2">
	<g>
		<path class="st0" d="M1599.8,536.5c16.4-22.6,32.5-45.9,49.7-68.3c73.6-95.8,167.7-160.8,287.6-182.2
			c97.3-17.4,167.8-65.2,211.2-156.1c28.9-60.5,78-80.2,140.4-67c66.3,14.1,116.3,63.7,122.6,122.7c1.7,15.8,1.4,31.9,1.3,47.9
			c-0.2,44.7,17.3,76.9,59.8,96.3c78.7,35.8,145.8,87.2,201.8,153.6c38,45,58.4,96.5,61.5,154.5c10.4,196.1,13.5,392.4,5,588.4
			c-10.3,239.3-88.7,454.3-245.7,637.9c-8.7,10.2-14,31-36,11.2c-18.6-16.8-22.2-26.3-4-47.6c143.2-166.8,216.5-361.9,230.4-580.3
			c12.3-193,4.3-385.9-0.6-578.8c-1.9-76.1-29.6-138-85.9-188.7c-41.2-37.1-82.9-73.7-134.7-95c-75.8-31.1-109.1-86.3-105.6-167.8
			c2.5-56.9-27.5-91.1-83.5-102.8c-33.6-7-57.5,3.3-75.8,33c-5,8.1-10.2,16.3-14.4,24.8c-47,96.3-127.4,145.6-229.8,164.2
			c-172.8,31.3-271,149.4-344.8,295.9c-3.2,6.3-4.5,14.7-3.5,21.6c14.2,97-6.5,190.9-25,284.9c-42.2,214.6-76.7,429.8-74.4,649.6
			c1.1,102.2,21.4,200.8,48,298.6c10.9,39.9,38.3,67.2,76.2,80.3c31,10.7,20.6,27.7,13.2,46.5c-10,25.2-25.7,7.5-36.2,2.8
			c-52-23.3-89.9-60.8-105.6-116.9c-23.2-83-40.8-167.2-47.9-255.1c-9.3,7.3-9.2,17.6-11.5,26.6c-29.2,115.9-80.6,221.7-144.6,322
			c-8.2,12.9-14.2,24.1-30.9,9.9c-12.4-10.5-31.1-14.9-14.8-38.6c117.9-171.4,163.2-368.7,195.9-569.2
			c31.4-192.2,65.8-383.8,99.3-575.5c20.3-116.1,6.7-231.4-27.3-344c-16-53-53.7-82.4-106.9-94.4c-33.1-7.5-66.8-12.9-98.7-25.6
			c-53.6-21.4-78.7-62.3-83.1-118.1c-1.6-20.2-2-40.6-5.4-60.4c-7.2-40.8-32.5-54.7-72.4-41.4c-32.6,10.9-55.4,35.4-79,58.4
			c-13.7,13.3-26.6,28-37.1,43.9c-45,67.6-112.4,98.8-187.7,117.4c-43.4,10.7-87.1,20.6-128.7,37.4
			c-63.5,25.7-113.2,66.1-144.1,128.9c-78,158.5-160,315-205.4,487.6c-25.2,95.8-32.5,193-34.8,291c-5.2,218.7-0.6,437.2,9.8,655.6
			c0.8,16.7,6.8,33.2-22,33.2c-23,0-31.9-4.4-32.8-29c-6.8-196.1-12.4-392.2-9.6-588.4c1.5-107.6,1-215.5,24.6-321.5
			c26.8-120.1,68.2-235,121.8-345.7c32.5-67,65.5-133.7,97.3-201c39.3-83,104.6-136.2,189.7-165.5c45.2-15.6,91.9-26.7,138.2-39.2
			c60.7-16.3,111.1-46.2,146.8-100.1c24.9-37.5,58.7-67.6,95.7-93.3c39.1-27.2,82.3-37.4,127-17.7c44.9,19.7,55.9,61.6,59,105.8
			c7,97.7,13.1,111.1,107.7,127c117.9,19.9,179,89.1,200,201.7C1592.3,527.2,1591.8,533.1,1599.8,536.5z"/>
		<path class="st0" d="M984.2,2338.6c0,81.6-64.9,146.9-145.9,146.9c-80.7-0.1-146.4-66.1-146.3-146.9
			c0.1-81.3,65.2-146.4,146.4-146.4C919.9,2192.2,984.2,2256.7,984.2,2338.6z M836.7,2430.4c53.5,0.4,94.4-38.8,94.9-91
			c0.4-51.5-41.1-93.1-93.2-93.4c-51.5-0.2-91.4,38.8-92.1,90.1C745.6,2390.8,783.2,2430,836.7,2430.4z"/>
		<path class="st0" d="M2122.1,731.5c-0.2-89.2,55.3-166.7,131.4-187.3c68.9-18.6,129.1,31.6,118.4,101.6
			c-11.8,76.8-52.3,136.6-119.8,175.6c-56.5,32.6-104.3,12.2-123.9-49.8C2123.7,757.3,2121.2,742.7,2122.1,731.5z M2175,729.1
			c2.4,17.8,1.6,41.7,21.4,51.5c19.6,9.7,35.7-8.4,50.3-19.3c38-28.6,59.5-68.5,71.3-113.6c3.6-13.9,8.5-30.2-6.2-41.2
			c-14.7-11-30.4-16.3-50.2-9.1C2213.6,614.8,2174.8,671.2,2175,729.1z"/>
		<path class="st0" d="M880.6,724.5c-0.1-68.1,30-120.2,84.6-159.3c13.1-9.4,27.4-16.2,42.9-20.5c74.7-20.6,137.3,35.6,120.8,110.5
			c-15,68-51.1,123.4-110.6,161.4c-68.1,43.5-131.2,11.2-137.7-69.8C880.1,739.5,880.6,732,880.6,724.5z M932.6,729.4
			c0.3,3.1,0.6,10.6,2.1,17.8c7.4,36.3,23.6,43.7,55.1,24.2c43.7-27,69.5-67.6,83.5-116c5.2-17.9,13.6-37.1-7.5-51.8
			c-19.8-13.8-39.9-12.6-59.5-0.8C960.2,630.4,934.4,670.5,932.6,729.4z"/>
		<path class="st0" d="M2046.1,2325.1c-0.2,60-44.7,104.2-104.6,104c-59.5-0.2-108.1-48.9-106.9-107.3
			c1.1-57.6,48.9-104.1,107-104.2C2002.5,2217.5,2046.3,2262.6,2046.1,2325.1z"/>
		<path class="st0" d="M2482.5,2099.3c-45.8,0.8-84-35.8-85-81.5c-1.1-46.6,37.6-86.3,84.1-86.1c45.4,0.2,82.7,37.7,82.9,83.5
			C2564.7,2061.5,2528.7,2098.5,2482.5,2099.3z"/>
		<path class="st0" d="M681.7,2813.7c-46.3-0.1-82.9-37-82.4-83c0.5-44.3,36.9-80.8,81.3-81.7c45-0.8,84.1,37.1,84.6,82.1
			C765.7,2775.8,727.2,2813.8,681.7,2813.7z"/>
		<path class="st0" d="M2251.9,2813.1c-43.9-1.2-78.1-36.9-77.1-80.3c1.1-44.1,39.8-80.7,83.4-78.8c43.7,1.9,76.8,37.4,76.2,81.7
			C2333.8,2781.4,2298.5,2814.4,2251.9,2813.1z"/>
		<path class="st0" d="M1976.7,1818.5c-0.1,42.9-34.3,77.6-76.7,77.9c-41.7,0.3-77.7-34.9-78.4-76.7c-0.7-43.2,35.6-79.8,78.8-79.4
			C1943.2,1740.9,1976.8,1775.2,1976.7,1818.5z"/>
		<path class="st0" d="M2248.2,1851.3c42-0.6,75.5,31.8,75.8,73.2c0.3,40.7-34.3,75.7-74.6,75.5c-38.8-0.2-73.1-33.6-74.6-72.6
			C2173.3,1886.9,2207.1,1851.9,2248.2,1851.3z"/>
		<path class="st0" d="M715,1851.3c41.7-0.6,76,32.4,76.1,73.3c0.1,40.4-34.8,75.3-75.2,75.4c-39.5,0-72.5-32.7-73.5-72.8
			C641.3,1884.8,672.7,1851.9,715,1851.3z"/>
		<path class="st0" d="M1412.8,2725.9c-39.6,0.6-71.1-30-71.3-69.4c-0.2-39.4,31-70.7,70.4-70.6c37.7,0.2,69,30.5,70.2,68.1
			C1483.3,2692.7,1451.9,2725.3,1412.8,2725.9z"/>
		<path class="st0" d="M1031.9,2633.2c0.2-38.3,30.5-69.2,68.5-69.8c39.1-0.7,70.9,31.2,70.7,70.8c-0.2,38.3-30.6,69.2-68.4,69.9
			C1063.7,2704.7,1031.7,2672.7,1031.9,2633.2z"/>
		<path class="st0" d="M446.1,2496.6c0.1,39.2-31.5,70.3-70.9,69.8c-37.6-0.4-68.7-31.8-68.9-69.4c-0.2-39.2,31.6-70.2,71.6-69.5
			C416.4,2428.1,446.1,2458.1,446.1,2496.6z"/>
		<path class="st0" d="M2535.9,2391.6c-0.4,37.4-32.8,69.4-70,69c-37-0.3-68.8-33-68.4-70.3c0.4-37.4,32.5-69.1,69.7-68.7
			C2504.2,2322,2536.3,2354.8,2535.9,2391.6z"/>
		<path class="st0" d="M1104.5,1930.5c1.5-35.6,31.7-64.2,67-63.3c36.4,1,66,33,64.3,69.5c-1.7,35.3-32.4,64.2-67.3,63.4
			C1132.1,1999.1,1103,1967.5,1104.5,1930.5z"/>
		<path class="st0" d="M966.5,1806.7c-0.6,35.7-30.6,65.1-65.8,64.3c-34.9-0.8-65.2-32-64.5-66.5c0.7-34.9,31.7-64.7,66.6-64.1
			C938.2,1741,967.1,1771.1,966.5,1806.7z"/>
		<path class="st0" d="M1341.8,2262.3c35.6-0.2,63.3,26.2,64.1,61.1c0.8,36-28.4,65.9-63.9,65.4c-33.6-0.5-63-30.1-63-63.7
			C1278.8,2290.8,1307.1,2262.6,1341.8,2262.3z"/>
		<path class="st0" d="M471.1,2132.7c0.7,34.2-27.7,63.7-61.9,64.5c-33.5,0.7-63.7-28.4-64.4-62.2c-0.7-33.9,28.1-63.7,62.2-64.3
			C441,2070.1,470.4,2098.6,471.1,2132.7z"/>
		<path class="st0" d="M1559.5,2277c0.6,35.8-23.1,61.5-57.5,62.4c-35,0.9-64.3-26.8-64.3-60.9c0-32.8,27.6-60.3,61.1-60.8
			C1533.6,2217.1,1558.9,2241.9,1559.5,2277z"/>
		<path class="st0" d="M1827.6,2812.6c31.4,1.4,58.3,29.9,57.6,61c-0.7,32-31.1,61.3-62.9,60.5c-35-0.8-61.4-30.1-59.3-65.9
			C1764.9,2834.1,1791.8,2810.9,1827.6,2812.6z"/>
		<path class="st0" d="M2030.3,1539c32.2,0.1,54.4,21.9,54.5,53.5c0.1,30.6-23.6,55.1-53.9,55.6c-31.8,0.5-56.8-24.6-56.2-56.5
			C1975.3,1560.4,1998,1538.9,2030.3,1539z"/>
		<path class="st0" d="M947.7,1592.7c0,30.3-24.4,55-54.6,55.4c-31.4,0.3-57.7-26-56.7-56.8c1-29.9,26.3-53.7,56.7-53.4
			C924.3,1538.3,947.7,1561.8,947.7,1592.7z"/>
		<path class="st0" d="M929.9,1251c30.1,0.3,48.3,19.8,47.4,50.8c-0.9,28.8-19.7,46.3-49.2,45.9c-29.1-0.4-47.3-18.6-47.5-47.7
			C880.3,1269.4,899.2,1250.7,929.9,1251z"/>
		<path class="st0" d="M928.2,952.2c26.5-0.5,50.2,23.3,50.2,50.5c0,27.5-19.9,48.7-46.9,50c-28.1,1.4-51-20-51.8-48.4
			C878.8,976.9,901.3,952.7,928.2,952.2z"/>
		<path class="st0" d="M2038.1,1354.9c0-7.4,0.9-15-0.2-22.3c-2.9-20.1,5.8-25.4,25-24.9c18.6,0.5,29,2.4,28.3,25.5
			c-0.9,27.4,3,55.1,5.6,82.6c3,32.5-24.1,19-37.8,24.2c-19.5,7.4-12.6-10.7-14.3-18.6C2039.9,1399.6,2037.7,1377.3,2038.1,1354.9z"
			/>
		<path class="st0" d="M2096.2,1143.8c-10.6,0-21.4-1.4-31.8,0.3c-27.8,4.5-34.5-8-32.4-33.6c1.2-15.5,6.1-19.9,20.7-19.4
			c26.5,0.8,53.1,1.3,79.5-0.4c21-1.3,30,3.3,29.6,27.1c-0.3,21.6-7.6,27.9-27.5,25.9c-12.6-1.2-25.4-0.2-38.2-0.2
			C2096.2,1143.5,2096.2,1143.6,2096.2,1143.8z"/>
		<path class="st0" d="M2147.4,848.2c9.6,0,19.2,0.1,28.7,0c15.8-0.1,32.2-4,29.7,23c-2,21.9-6.7,33.5-31.9,30.3
			c-21-2.7-42.7-3.2-63.7-1.4c-24.1,2.1-26.5-8.9-27.2-29.4c-0.9-24.9,11.7-25.1,29.3-23.8c11.6,0.9,23.4,0.2,35.1,0.2
			C2147.4,847.4,2147.4,847.8,2147.4,848.2z"/>
	</g>
</g>
</svg>
