<?xml version="1.0" encoding="utf-8"?>
<!-- Generator: Adobe Illustrator 23.0.0, SVG Export Plug-In . SVG Version: 6.00 Build 0)  -->
<svg version="1.0" xmlns="http://www.w3.org/2000/svg" xmlns:xlink="http://www.w3.org/1999/xlink" x="0px" y="0px"
	 viewBox="0 0 3000 3000" style="enable-background:new 0 0 3000 3000;" xml:space="preserve">
<style type="text/css">
	.st0{stroke:#000000;stroke-width:10;stroke-miterlimit:10;}
</style>
<g id="Layer_1">
</g>
<g id="Layer_2">
	<g>
		<path class="st0" d="M516.1,1420.1c-1.3-1.6-1.9-3-3-3.5c-89.7-41.8-131.4-119-152.2-210.2c-19.4-84.8-38.3-169.7-36.4-257.9
			c4.1-192.4,63.3-365.6,177.6-520.1c73.4-99.2,153.8-191.6,256.7-262.4c88.6-60.9,185.7-91.5,293.5-94c275-6.5,550,0.8,825-3.3
			c170-2.5,335.6,24.5,494.5,87.1c165.6,65.2,260.4,187.7,286,362c34.7,235.8,48.7,473.3,44.1,711.6c-2.9,150-8.8,299.9-24.1,449.2
			c-7.2,70.3-19.5,140-38.6,208.2c-27.4,97.6-81.4,178.3-157.1,245.1c-4.5,3.9-9,7.7-13.4,11.7c-0.8,0.8-1.1,2.2-2.2,4.5
			c13.7,7.5,27.5,14.7,41,22.6c241.7,141.1,242.9,475.5,2.3,619.1c-75,44.8-157.4,64.2-243.1,70.9c-91.9,7.2-183.7,6.2-274-15.4
			c-79.3-18.9-144.4-63.5-204.8-116.2c-8.9-7.7-17.9-15.3-28-23.9c-12.5,31.5-25.5,60.3-43.9,86.3c-38.3,54.2-89.7,91.1-151.7,113.1
			c-94.3,33.6-190.9,46.8-290.4,30c-108.4-18.3-195-70.8-256-165.5c-15.6,18.7-30.1,37.9-46.5,55.4
			c-69.9,74.4-153.5,125.8-255.8,139.6c-131.6,17.8-244.6-50.7-295.2-177.3c-42.7-106.9-27.7-211.4,18.7-313.2
			c39.7-87,101.4-157.4,171.5-220.8c14.3-12.9,12.2-17.4-2.3-27.4c-76.5-52.9-141.4-117.4-186.4-199.7
			c-79.1-144.7-71.1-291.5-7.5-438.8C440.4,1526.7,475.2,1471.4,516.1,1420.1z M942.4,962.7c-29.3,64.1-36.8,128.8-19.6,196.3
			c18.8,73.6,6.8,139.5-53.8,190.6c-80.3,67.7-172.8,97.6-277.7,85.2c-18.8-2.2-31.4,3-42.7,17.5c-46.6,59.9-85.3,124.2-109.7,196.3
			c-59.1,174.6-26.8,328.9,103,461.8c76.9,78.8,167.7,134,272,168.2c108.9,35.6,221,51.5,335.1,55.6c139.4,5,278.6,15.1,418.2,8.4
			c111.6-5.4,222.6-17.4,333.8-27.6c157.1-14.5,303.7-59.5,440.4-138.5c124.1-71.7,213.4-171.3,256.4-309.7
			c21.3-68.7,26.4-140,33.9-210.9c20-189.6,27-379.7,24.4-570.3c-2.6-191.9-17.7-382.9-45.9-572.7c-19.7-133-87.1-233.6-210.1-293.3
			c-138.4-67.2-285.7-97.8-438.5-102c-106.4-2.9-212.8-2.1-319.3-1.4c-194.4,1.3-388.8,0.3-583.2,0.7
			c-99.2,0.2-191.4,26.7-271.7,85.2C626.3,319.5,505,470.1,429.1,654.6c-85,206.5-74.3,414.2,3.5,620.4
			c12.6,33.4,34.6,60.5,65.8,79.5c92.4,56.3,185.2,45,278.4,2.4c12.1-5.5,8.3-12.1,3.1-20.2c-31.4-48.5-56-100.3-75.2-154.7
			c-35.8-101.1-49.3-204-23.9-309.7C711.2,746,787.4,653.5,895,584c157-101.4,331.4-141,515.6-146.1c84.7-2.3,169.2,2.8,253.8,3.6
			c96.9,1,192,14.4,286.5,36c230.4,52.5,387.8,189.3,476.2,407.2c47,115.9,60.1,237.4,60.8,361.2c1.3,226.9-9.9,453.2-26.7,679.4
			c-0.9,12.4-1,22.5-18.1,20.4c-14.3-1.8-28.3-1.9-26.9-22.4c2-30.3,2.9-60.7,5.3-91c13-169.5,21-339.2,20.8-509.1
			c-0.1-94.3,3.1-189.2-18-282.4c-26.1-115.4-68.4-223.7-143-316.7c-88.6-110.4-207.2-171.4-343-202.9
			c-135.5-31.5-273.4-38.3-411.6-37.4c-78.6,0.5-157.4-1.8-235.8,7.7C1165.8,506.4,1050,549,940.2,609.4
			c-161.5,88.9-244.7,251.4-222.9,433.8c11.6,97.2,50.9,183.8,99.8,266.9c6.5,11,13.5,13.9,23.1,3.6c4-4.4,8.6-8.3,12.4-12.7
			c33.8-39,38.3-83.4,25.9-132c-24.8-97.7-9.1-189.3,48.3-272.1c92.4-133.2,217.3-220,375.7-256.4c120.4-27.7,242.4-28.7,364.9-18.3
			c62.9,5.4,124.5,16.7,183.2,40c157.8,62.6,261.9,179.2,327.4,332.4c52.4,122.6,72.2,252.3,75.3,384.7
			c1.8,79.8-1.2,159.4-6.3,239.2c-3.7,57.8-3.2,116.2-7.4,174.1c-7.6,104.1-17,208-25.5,312c-2.3,27.8-7.8,34.3-35,39.1
			c-72.6,13-145.9,14.3-219.4,12.4c-55.5-1.4-102.8-21.3-142.3-60.2c-19.9-19.5-20.1-19.7-40.9-0.2c-55.7,52.4-117.9,72-190,36.2
			c-45-22.3-83.9-14.8-119.4,19.4c-30.4,29.3-66.8,45.8-108.4,53.5c-58.2,10.8-112.6-9.4-168.2-18.4c-14.8-2.4-5.7-18-7.4-27.4
			c-1.5-8.3,3.1-14.9,11.9-14.9c48.2-0.3,72.4-30.7,92.3-69.4c25.4-49.3,66.1-79.7,120.8-90.9c37.8-7.8,76.2-7.1,114.5-8.4
			c62.9-2.1,87.9-26.7,92.8-88.7c4.1-52.6,3.6-105.8,15.5-157.6c27-117.4,93.8-199.4,211.8-234.4c46.1-13.7,93.8-14,141.6-13.2
			c66.1,1.2,132.2,1.5,198.3,2c17,0.2,25.2-7.3,24.6-25.4c-1.8-47.6-2.2-95.2-3.8-142.7c-4.9-146.5-47-281.7-123.8-406.5
			c-73.6-119.7-180.4-192.1-315.6-225c-23.4-5.7-24.1-5.5-21.8,18.8c13.3,142.2-23.2,271.1-104.1,387.8
			c-44.1,63.5-102.9,107.3-178.3,127.6c-37.4,10.1-75.8,10.4-114,12.4c-93.4,4.9-158.9,51.3-198,135.6c-10,21.6-20.5,43-35.5,61.6
			c-67.9,84.3-159.4,137.7-251,190.8c-14.3,8.3-21-3.2-27.1-14.2c-5.9-10.6-8.1-19.6,5.3-26.2c12.1-6,21.5-15.1,28.9-26.4
			c54-81.7,101.9-166.8,143-255.7c31.9-68.9,71.5-132.5,128.6-183.9c5.1-4.6,9.4-10,14.6-15.5
			C1035.9,1048.4,1035.9,1048.4,942.4,962.7z M2249.8,2417.3c2.1,83.7,4.1,122,5.9,128.8c0.4,1.4,2.5,8.6-0.6,11.7
			c-0.4,0.4-1,0.7-1.7,0.9c-13.3,3.9-27.8,4.8-40.9,1.3c-9.9-2.7-5.9-14.8-6.1-22.8c-2.5-74-5.1-147.9-6.4-221.9
			c-0.3-17.9-5.5-18.7-20.5-13.2c-47.7,17.7-96.8,30.7-146.8,40.3c-78,15-156.9,21.7-235.9,28.4c-19.9,1.7-25,7.9-22.1,27.4
			c10.2,68.8,19.4,138.7,5.6,207c-8.6,42.6,9.5,63.1,37.7,86.5c60.1,49.8,122.6,94.6,201,109.9c82.3,16.1,165.4,16.9,248.7,10
			c72.3-5.9,142-21.9,206.3-57.4c123.3-68,187.6-200.9,160.5-337.2c-23.5-118.2-102.6-187.9-208.6-232.8c-6.5-2.7-12.6-0.1-18.5,3.8
			c-47.3,31.6-96.8,59.3-148.8,82.4c-4.1,1.8-7,3.9-8.8,6.7c-3,4.6-2.7,9.7-2.6,11.4C2247.7,2298.4,2248.5,2348.3,2249.8,2417.3z
			 M1287.8,2386.1c-71.9-3.6-129.3-5.8-186.7-9.7c-16.9-1.1-22.9-0.6-18.1,19.5c25.1,105.7,15.5,208.6-30.3,307.5
			c-5.1,11.1-4,19.5,1.4,29.5c35.8,66.8,91.3,110.6,161.2,136.4c92,34,185.2,28.1,279,6.3c128.5-29.7,207.1-107,233-237.2
			c16.6-83.8,6.5-167.1-2-250.6c-1-9.4-6.4-10-13.8-9.3c-59.9,6.1-120,8.4-180.1,10.6c-10.5,0.4-13.5,3.6-12.8,14
			c2.1,32.4,1.6,64.7-2.8,96.9c-7.8,56-28.2,105.5-70.7,144.5c-9.5,8.7-14.7,8.9-22.7-2.5c-16.9-24.3-17.6-23.7,1.5-45
			c3.1-3.4,5.8-7.2,8.5-10.9c40.4-56.5,40.9-121,37-186.3c-0.6-9.7-6.7-9.6-13.7-9.6C1394.9,2390.7,1334.1,2389.6,1287.8,2386.1z
			 M790.3,2318.6c-39.2-15.1-76.8-31.1-112.9-50.2c-8.1-4.3-12.3,0.3-17.2,4.6c-62.6,55.6-120,115.6-160.8,189.5
			c-46.5,84.1-70.8,173.3-45.9,268.6c24.7,94.8,81.1,163.4,181.6,183.5c63.1,12.6,122.6-4.8,180-32.3
			c179.8-86.2,276.1-307.6,215.6-497.3c-3.1-9.9-7.4-14.6-18.8-16c-52.5-6.2-104.6-15.5-155.3-30.4c-11.6-3.4-18.3,0.3-25.5,8.6
			c-55.2,63.1-90.8,135.7-107.3,217.7c-6.4,31.5-6.4,31.3-39,27.1c-10.4-1.3-14.3-4-12.4-16.2c12.4-76.9,40.2-147.6,84.1-211.8
			C767,2349,778.4,2334.6,790.3,2318.6z M1287.3,2158.3c4.8,0.7,7.1,1.2,9.5,1.4c55.5,5.8,104.6-7.9,145.7-47.2
			c28.9-27.6,62.6-43.6,103.7-40.3c22.1,1.8,42.4,9.4,62,19.2c42.4,21.1,81.8,15.5,118.2-13.8c10.8-8.7,20.5-18.7,31.2-27.5
			c11.6-9.5,12.9-20,6.6-33.3c-25.3-53.1-32.8-109.5-30.3-167.8c5.4-129.8,89.7-240.2,214.3-277.5c77.7-23.3,156.5-22,235.1-5.2
			c16.2,3.5,20.5-2.4,22.3-15.4c2.6-18.2-3.1-24.1-21.2-22.9c-7.2,0.5-14.5,0.8-21.8,0.8c-74-0.3-148-1.4-222-1
			c-152.4,0.8-253.7,92.9-270.7,244.2c-5.1,45.3-3.8,91-10.8,136.2c-10.6,69.2-52.3,108.6-122.2,111.9c-31.6,1.5-63.4,1.4-95,4.5
			c-49.7,5-89.9,25-114.4,70.6C1316.3,2116.7,1304.7,2137.9,1287.3,2158.3z M965,1493.8c60.8-39,114.5-83.1,143.7-151.8
			c31.6-74.3,89-121.6,165.2-146.3c33.7-10.9,68.7-11.4,103.9-12.3c69.7-1.7,134.3-20.2,182.8-72.8
			c107.8-116.9,153.5-255,133.8-413.6c-1-8.1-3.3-15.6-8.9-21.6c-9.4-10.2-21.5-9.9-33.1-6.2c-10.8,3.4-5.8,13.3-5.5,20.6
			c1.3,26.5-0.5,52.8-3.9,79.1c-22.3,169.8-163.8,310.8-333.5,332.3c-33.2,4.2-67.4,2.2-98.9,17.6c-36.2,17.8-62.1,46.5-86.2,77.4
			C1054.4,1286.2,1022.1,1396.6,965,1493.8z M1111.4,885.6c6.4-5.5,9.4-8,12.3-10.6c14.9-14,29.9-27.9,44.7-42.1
			c9-8.7,20.8-17.7,13.8-31.9c-8.4-17.1-20.4-32.3-36.9-42.6c-4.5-2.8-10.1,0.7-14.5,4c-21.1,15.8-42.1,31.8-63.5,47.1
			c-9.7,6.9-8.7,13.1-1.4,20.9c13.9,15,27.5,30.3,41,45.7C1108.9,878.6,1109.8,882,1111.4,885.6z M1200.7,974.3c2.9-0.2,5.8-4,9-7.2
			c15.4-15.3,29.7-32,46.4-45.8c15.2-12.5,13.3-21.8,1.4-35c-39.1-43-34.3-41.1-72-5.1c-45.1,43.1-40.9,44.1,2.8,87.9
			C1191.2,971.9,1194.1,974.5,1200.7,974.3z M1306.5,868.3c3.6-2.8,7-4.9,9.8-7.6c9.5-9.2,18.8-18.6,28.2-27.9
			c34.9-34.6,34.9-34.6,8.4-75.5c-0.7-1.1-1.3-2.3-2.1-3.4c-10.4-14.2-20-15.5-32.6-2.9c-15.9,15.8-31.1,32.4-46.5,48.7
			c-6.4,6.7-10.2,15.2-5.2,23.5c9.1,15.2,19.8,29.4,33.3,41.1C1301.6,866.1,1304.1,867,1306.5,868.3z M1911.4,1811.4
			c0.4-7.4-32.1-49.9-39.4-50.6c-3.6-0.4-8.2,0.5-11.1,2.6c-20.9,15.1-43.4,27.6-65.9,40.2c-8.5,4.8-11,10.3-3.5,18.8
			c9.1,10.4,17.7,21.4,25.5,32.8c8.1,11.9,16.5,12.5,27.9,4.5c19.4-13.7,39.2-26.8,59-40C1907.1,1817.6,1910.4,1815.7,1911.4,1811.4
			z M1018.3,967.8c16.9-3.7,26-16.6,37.2-26.3c27.2-23.7,27.1-23.9,1.9-50.7c-39.1-41.8-39.1-41.9-74.1,4.2
			c-7.2,9.5-16.5,19.6-7.7,31.7C987.2,942.9,998.6,960.2,1018.3,967.8z M1979.6,2047.3c18-11,41-15.4,56.4-33.3
			c8.7-10.2,5-19.7-1.7-28.7c-7.1-9.5-15.9-17.8-22.2-27.8c-6.4-10.2-13-11.4-22.7-5.4c-14,8.6-27.9,17.7-42.8,24.7
			c-16.7,7.8-22.6,15.1-6.6,30.2c10.4,9.9,18.3,22.4,27.5,33.7C1970.3,2044.2,1972.5,2048.8,1979.6,2047.3z M2051,1776.3
			c-12.1,8-25.3,16.5-38.3,25.4c-36.3,24.9-37.2,35.2-6.5,67.5c1.4,1.4,2.9,2.7,4,4.3c4.9,6.6,10.6,6.6,17.2,2.8
			c14.7-8.7,30-16.4,44.2-25.9c23.6-15.8,23.3-17,7.7-39.7c-5.9-8.7-11.2-17.8-16.9-26.6C2060,1780.4,2058.3,1775.4,2051,1776.3z
			 M2150.3,1937.7c-3.5-13-10.7-24.1-17.7-35.2c-16.1-25.3-16-25.3-40.6-10.5c-48.5,29.1-48.5,29-16.6,76
			c3.6,5.4,6.1,12.1,13.5,13.3c8,1.4,58.3-30.2,60.6-37.8C2150,1941.5,2150,1939.5,2150.3,1937.7z M1956.8,1779.9
			c4.2-1.9,11.1-4.4,17.2-8.1c12.9-7.9,25.3-16.7,38.2-24.6c18.6-11.4,20.1-17.8,7.7-36.5c-3.6-5.5-7.1-11.1-10.4-16.8
			c-5-8.6-11-9.7-19.6-4.3c-17.3,10.9-34.3,22.7-52.7,31.2c-19.3,8.9-21.6,19.2-9.1,35.1c4,5.2,6.9,11.2,10.7,16.6
			C1942.4,1777.9,1947.6,1780.5,1956.8,1779.9z M2103.3,1751.1c3,17.6,13.6,32.7,22.4,48.8c6,10.9,12.3,11,22.4,6.7
			c51.2-21.5,53.7-28.8,25.1-76.1c-16.2-26.8-16.2-26.9-44.5-10.7C2116.6,1726.7,2104.4,1733.8,2103.3,1751.1z M1371.6,945.3
			c7.1-0.1,11.4-3.5,15.2-6.9c8.9-7.9,17.6-16,25.9-24.5c38.3-38.9,33.8-20.6,4.3-66.6c-6.2-9.7-12.1-10.2-20.2-1.7
			c-14.6,15.3-29.9,29.9-45,44.7c-6.7,6.5-15.6,13.2-10.2,23.3C1348.8,926.9,1358.9,938.3,1371.6,945.3z M1335.7,981.4
			c-5.1-7.5-11.3-15.9-16.8-24.8c-9-14.6-19-14.1-30.3-2.9c-11.2,11.1-22.5,22.1-33.7,33.3c-28.4,28.5-28.1,28.3-0.2,57.9
			c6.8,7.2,11.6,8.7,19.1,1.3c17.9-17.5,36.2-34.4,54.4-51.6C1331.6,991.5,1334.8,988.2,1335.7,981.4z M1973,1899.8
			c-8-11-17.4-22.9-25.7-35.5c-6.2-9.6-11.6-12.6-21.6-4.1c-10,8.5-21.6,15.1-32.5,22.4c-36.6,24.6-36.7,28.5-4.4,60
			c5.9,5.7,10.5,6.2,17.3,3c20.3-9.7,39.8-20.8,58.2-33.6C1968,1909.5,1972.3,1907.1,1973,1899.8z M1430.1,667.9
			c-28.6-3.2-43.4,15.4-53.7,31.8c-10.4,16.6,11.8,27.7,19.6,41c4.8,8.2,11.7,16.8,23.9,13.4c3-0.9,5.9-3,8.4-5.1
			c12.9-11.2,25.6-22.7,38.4-34c3.1-2.7,5.1-5.7,4.4-10.2C1468.1,686.2,1446.9,668.4,1430.1,667.9z M1477.7,843.2
			c3.3-1.2,6.1-1.5,8.2-2.9c17-11.4,33.2-24.7,44.6-41.3c8.7-12.7-8.1-21.1-13.5-31.2c-4.4-8.2-9.6-18.1-21.2-17.9
			c-3.1,0.1-6.3,4.3-9,7c-10.7,10.6-21.3,21.5-32,32.1c-6.3,6.2-13.2,12.4-6.8,21.9C1456.2,823.2,1463.1,837,1477.7,843.2z
			 M1127.7,1037.4c18.4-0.1,36-22,28.4-33.6c-8.9-13.7-19.2-26.7-30.6-38.4c-10.7-11-22.9-11.7-33.8,1.6
			c-7.5,9.1-15.9,17.5-23.8,26.4c-3.3,3.7-9.5,8.2-3,12.9C1084.6,1020.7,1106.4,1031.4,1127.7,1037.4z M1289.1,690.2
			c-19.1,6.6-40.9,13.7-62.4,21.6c-13.3,4.9-31.7,7.4-33.5,23.3c-1.7,15,14.3,23.7,24.8,33.4c0.5,0.4,1,0.9,1.4,1.4
			c5.1,5.4,9.9,5,15.1-0.1c21.7-21.1,43.6-41.9,65.3-62.9c3.2-3.1,7.1-6.7,4.1-11.9C1301.3,690.5,1296.8,689.4,1289.1,690.2z
			 M1891.4,2087.8c10.1,0,19.2-3.7,28.5-7.2c12.6-4.6,12.7-10.6,4.4-19.9c-8.3-9.3-15.4-19.8-23.7-29.1c-5.7-6.4-9.2-19.4-20.7-14.3
			c-15.4,6.8-30.9,14.6-42.8,27.2c-1.1,1.1,0.3,5,1.2,7.4C1845.3,2070.3,1871.2,2087.7,1891.4,2087.8z M1602.2,709.8
			c-1.1-11.8-2.5-23.5-3.1-35.3c-0.6-11.6-6.4-13.3-15.7-9.1c-14.9,6.6-25.5,18.5-34.9,31.2c-4.8,6.5-16.4,12.2-11.6,21
			c8,14.7,19,27.9,29.8,40.8c2.7,3.2,8.6-0.8,12.5-3.2C1596.4,744.7,1602.5,729,1602.2,709.8z M2110.9,2106.9
			c-1.5-4.5-2.1-7-3.2-9.2c-27.9-52.1-35-54-85-22.8c-18,11.3-17.9,21.2,0.5,32.7c6.5,4,13.5,4.7,20.8,4.2
			C2065.6,2110.2,2087.2,2108.6,2110.9,2106.9z M1892.9,1692.1c3.2-1.5,6.8-3,10.2-4.9c21.1-12,42-24.3,63.1-36.2
			c7.7-4.4,12.8-8.8,6.9-18.6c-5.1-8.5-8.6-19.3-21.5-15c-27,8.9-51.9,22-73.9,40.3c-5,4.2-8.1,9.6-3.7,15.4
			C1879.2,1680,1881.3,1690.3,1892.9,1692.1z M2076,1702.9c12.9-8.7,26.1-18.7,40.3-26.7c14-7.9,16.4-16.2,8-30.2
			c-14-23.4-16.5-24.6-39.5-11c-4.5,2.7-9,5.4-13.6,8.1c-32.8,18.8-29.7,11.7-11.4,46.2c1.8,3.4,4.4,6.6,7,9.5
			C2068.9,1701.2,2071.2,1703.8,2076,1702.9z M1495.7,954.6c-4.1-5.8-8.8-12.9-13.9-19.7c-7.9-10.3-14.8-12.6-24.9-0.7
			c-12.3,14.4-26.6,27.2-40.8,39.9c-9.1,8.1-14.1,15-4,25.9c9.3,9.9,18.3,14.5,30.5,4.5c14.7-12.1,30-23.5,44.8-35.4
			C1491.5,965.8,1495.6,962.2,1495.7,954.6z M2177.7,1986.8c-20.9,11.7-38.5,21.6-56,31.7c-3.3,1.9-7.1,4.8-4.1,9.4
			c15.2,23.1,30.7,46,46.1,69c1.7-0.7,3.3-1.5,5-2.2C2171.5,2060.2,2174.4,2025.7,2177.7,1986.8z M1812.9,2000.3
			c7.3,0.8,39.5-20.7,39.5-26.4c0-4.3-28.3-37.6-32.7-38.4c-8.1-1.6-27.4,14.2-28.6,23.2C1789.6,1970.1,1805.1,1999.5,1812.9,2000.3
			z M1529.5,917.7c1-0.6,3.1-1.1,4.2-2.4c15.8-19.7,28.2-41.4,36.7-65.1c1.4-4-1.5-7.6-4.9-10.1c-3.8-2.8-7.2-1.8-10.5,1.4
			c-13.3,12.8-27.2,25.1-39.9,38.6C1507.1,888.5,1517.7,916.2,1529.5,917.7z M2185.5,1893.4c0-20.7,6.6-37.1,3.3-56.3
			c-11.5,6.5-25.3,8.4-26.4,20.9C2161.2,1872.8,2173.7,1881.2,2185.5,1893.4z M2158.8,1608.7c12.8,30.4,17.8,31.2,38.2,8.8
			C2185.7,1611.3,2173.4,1610.5,2158.8,1608.7z M1338,1046.4c15.1,0.5,23.4-3.2,31.9-6.1c5-1.7,10.9-3.2,7.2-10.5
			c-3.6-7.1-9-9-15.6-3.5C1354.7,1032,1348,1037.8,1338,1046.4z M1814.3,1733.4c1.1,1,2.2,2,3.3,3c7.9-4.4,16.1-8.6,23.8-13.3
			c7.7-4.7,3.7-9.9-0.3-14.7c-4.9-6-8.9-3.7-12.3,1.7C1824,1717.8,1819.2,1725.6,1814.3,1733.4z"/>
	</g>
</g>
</svg>
