<?xml version="1.0" encoding="utf-8"?>
<!-- Generator: Adobe Illustrator 23.0.0, SVG Export Plug-In . SVG Version: 6.00 Build 0)  -->
<svg version="1.0" xmlns="http://www.w3.org/2000/svg" xmlns:xlink="http://www.w3.org/1999/xlink" x="0px" y="0px"
	 viewBox="0 0 3000 3000" style="enable-background:new 0 0 3000 3000;" xml:space="preserve">
<style type="text/css">
	.st0{stroke:#000000;stroke-width:10;stroke-miterlimit:10;}
</style>
<g id="Layer_1">
</g>
<g id="Layer_2">
	<g>
		<path class="st0" d="M1691.4,215c213.1,6.8,425.7,21.2,638,40c20.3,1.8,38.9-1.7,58.6-7.6c103.6-31.2,209.4-33.9,314.4-11.1
			c94,20.4,148,88,186.5,172.1c46.7,102.1,62,208.6,62.4,320.2c0.5,130,10.3,259.9,14.7,389.9c2.9,86.3-16.4,166.9-70.1,236.8
			c-7.9,10.3-9.3,21.5-9.1,33.8c3,177.1,6.2,354.2,8.6,531.3c0.6,44.7,18.2,85.8,24.7,129.3c38.1,255.4-97.6,500.1-335,604.6
			c-150.5,66.2-300.6,63.8-451.3,3.2c-15.3-6.2-29.5-8.6-46.2-6.7c-218.9,24.7-438.2,42-658.8,36c-175.3-4.8-350,9.3-524.9,17.3
			c-129.9,5.9-259.7,13.8-389.6,21c-69.7,3.9-138.8,16.3-209.4,6.4c-105-14.8-170.3-75.6-183.1-175.8c-3.9-30.8,1.9-59.7,17.1-86.7
			c26.1-46.3,48.1-94,59-146.6c12.6-61.2,4.4-121-32.3-169c-51.5-67.4-63.4-139-53.1-220.2c14.6-115.9,20.3-232.8,48.1-347
			c63.5-261.4,143.6-517.8,236.8-769.9c44.7-121,127.2-218.4,229.6-295C801.3,390.9,990.6,289,1207.2,247
			C1367.1,216,1529,210.7,1691.4,215z M2839.2,1416.1c-53.9,36.2-104.4,50.3-158.3,53c-52.2,2.6-104.1-2.6-155.8-7.7
			c-95.2-9.5-155.3-62.1-183.5-152.7c-8-25.7-15.1-51.9-30.1-74.8c-12.6-19.2-26-38-51.7-40.7c-142.3-15-284.7-30.1-428.1-22.1
			c-49.8,2.8-84.7-17.1-112.1-55.5c-6.1-8.6-9.1-20.9-23.9-18c-14.9,2.9-12.7,16.3-15.7,25.9c-32.8,104.6-87.3,194.9-173,264.9
			c-30.2,24.7-62.8,38.7-103.1,41.1c-83.1,4.9-166,4.7-249.1,4.2c-12.6-0.1-26.2-3.7-25.8,17.9c1.1,68.8-24.8,131-50.3,193.1
			c-28.1,68.3-61.1,134.6-84.5,204.9c-24.1,72.4-1.8,113.3,71.9,131.7c35.9,8.9,72.8,13.8,108.3,23.8
			c81.9,22.9,122.5,92.5,105.7,175.8c-10.9,54.3-42.7,93.9-85.8,125.7c-39.1,28.8-83.8,46.5-129,62.6
			c-42.5,15.1-68.4,43.7-75.4,88.5c-3.3,20.7-7,41.4-9.1,62.2c-1.3,12.6-3.2,18.5-19.1,18.6c-26.6,0.1-36.3-9-30.6-35.3
			c3.8-17.6,5.3-35.6,8.7-53.3c11.7-62.1,46.6-104.7,106.1-127.2c25.2-9.5,50.5-19,74.8-30.5c38.4-18.3,72.6-42.4,95-80.1
			c42.1-71.1,15.3-139.3-64.1-160.8c-27.9-7.6-56.7-11.7-85-17.8c-113.7-24.4-156.4-99.9-116.8-209.4c16.3-45,35.8-88.8,54.2-133
			c28.4-68.1,62.1-134.3,73.8-208.3c14-88.2-26.9-153.1-113.2-177.3c-60.5-17-122.6-20.2-184.5-13.7c-35,3.7-71.4,7.4-92.6,45.4
			c-8.5,15.3-30.2,8.4-43.8,2.7c-12-5.1-2.9-18.4,0.6-26.3c18-40.7,54.1-58,94.6-65.8c71.6-13.8,143.7-11.1,214.9,2.8
			c72.1,14.1,131.4,48.4,160.9,120.3c6.4,15.5,18.6,12.6,30.1,12.9c83.1,2.6,166.1-0.3,249.1-3.7c32-1.3,58.4-10.9,82.1-30.6
			c75.4-62.6,124.4-142.4,154.4-234.9c4.7-14.5,2.8-21.3-13.9-24.8c-40.3-8.4-73.9-30-103-58.6c-31.7-31.1-68.2-55.7-106.9-76.8
			c-60.7-33-124.8-44.5-190.6-18.4c-51.6,20.5-97.8,50.1-129,98.3c-21.8,33.7-49.2,62.5-89,71.8c-80.6,18.8-159.4,8.3-233.5-27.6
			c-33.9-16.4-55.7-45.9-57.2-85.6c-0.3-7.4-7.8-24.1,8.6-23c13.9,0.9,35.7-3.6,39.3,17.1c6.2,35.2,30.3,50.9,59.8,60
			c40.2,12.4,82,18.2,124.2,17.6c35-0.5,68.6-8.4,90.8-38.1c17.4-23.3,35.7-45.6,56.6-65.6c73.2-70.1,158.6-103.3,260.2-81.8
			c74.6,15.8,135.6,57.7,191.5,107.3c31.9,28.2,64.2,53.2,108.7,59.1c43.4,5.7,43,7.3,36.7-34.8c-27.4-184.6,29.7-335.8,181.3-447.1
			c83-60.9,172.5-111.7,264.5-158.1c54-27.2,102.9-62,151.1-98.9c-7.8-9-14.3-7.3-20-7.7c-197.5-15.9-395.2-29.4-593.4-34.5
			c-159.3-4.1-318.2,3.4-474.7,36.7c-188.3,40.1-354.2,130.4-509.3,240C560.4,628,472.3,743.3,423.1,888.4
			c-48.8,143.9-95.8,288.3-139.7,433.8c-65.9,217.8-115.5,438.6-123.7,667.2c-1.5,42.1,5.8,79.1,32.7,111.9
			c19.2,23.4,33.7,50,42.2,78.9c5.8,19.4,14.9,26.3,36.1,25.3c103-4.7,206.2-4.4,309.2-0.9c22.6,0.8,30.9-5.6,29.6-27.9
			c-2-35-0.9-70.1-4.1-105c-2.5-27.5,17.1-20.1,30.9-23.7c18.5-4.8,19.4,6.5,19.7,19.7c1,40,2.8,80,3.3,120
			c0.2,13,2.4,20.1,17.8,20.5c41,1,82,4.5,123,5.3c24.2,0.5,49.6-2.9,66.9-21.2c53.1-56.2,120-62.7,190.8-56.3
			c30.1,2.7,48.9,22.3,52.5,52.3c4.8,39.3-12.3,68.4-44.3,88.6c-68.4,43.2-137.3,85.7-206.5,127.6c-25.8,15.6-38.9,35.8-35.8,66.6
			c5.3,52.7,11.2,105.5,13.8,158.4c1.2,25,10.7,27.4,32.7,26.4c173.9-8,347.6-24,521.9-20.5c182.4,3.6,364.2-2.3,545.8-19
			c30.6-2.8,61.2-6.6,98.4-10.6c-142.7-106.5-226.9-241.1-244-413c-17.3-173.1,34.9-324.5,154.4-450.7
			c102.9-108.7,231-168.6,380.3-174.9c219.3-9.2,388.9,84.6,512.1,261.4C2839.2,1693.5,2839.2,1559,2839.2,1416.1z M2906.2,897.8
			c-2.1,0-4.2,0-6.2,0c0-64-1.4-128,0.3-191.9c2.5-94.7-17.8-184.1-54.3-271.1c-46.3-110.5-118.5-160.3-238.5-160.6
			c-25-0.1-50,0.1-75,0c-84.8-0.3-160.8,23.4-228.1,77c-56.3,44.8-118.1,81.2-182.1,114.8c-89.3,46.9-177.8,95.9-256.4,160.2
			c-138.7,113.5-166.5,296.5-115.8,438c16.9,47.3,36.7,59.1,86.1,56.5c135.4-7.3,269.7,8.6,404.2,18.6c62.2,4.7,104.2,36.8,127.2,94
			c9.7,24,18,48.7,26.6,73.2c21.8,61.6,64.4,97.5,129.9,103.6c44.8,4.2,89.7,8.6,134.6,9.4c92.1,1.6,163.4-35.3,212.2-116.1
			c36.9-61.1,46.8-126.8,44.5-195.8C2913.3,1037.7,2909.4,967.8,2906.2,897.8z M2342.3,1616.3c-283.8,9.7-511.7,247.9-503.8,526.3
			c8.5,297.4,247.4,520.5,546.4,510.1c278.8-9.6,500.6-254.1,490.9-540.8C2866.2,1832.2,2623.4,1606.6,2342.3,1616.3z M429,2255.3
			c0,0.1,0,0.2,0,0.3c-51,0-102.1,0-153.1,0c-12,0-23.6-1.8-23.6,17.5c0,77.3-26.9,146.6-65.7,212.1c-19.4,32.7-19.3,66.6-6.9,101
			c23.9,66.4,77.1,90.2,142,96.9c55.2,5.7,109.8-2.3,164.6-6c92.8-6.2,185.7-11.4,278.6-16.1c19.2-1,25.6-6.3,23-26.8
			c-6-47.6-8.7-95.6-13.6-143.3c-5.9-56.8,10-101.5,62.5-131.5c61.5-35.2,121.4-73.4,181.9-110.4c15.4-9.4,31.4-18.4,39.4-35.7
			c5.6-11.9,7.9-26.6-9.2-27.9c-48.3-3.7-97.5-4.9-135.3,33c-33.5,33.6-73.3,47-119.5,44.7c-39-1.9-78-3.6-116.9-5.9
			c-12.6-0.7-22.2,1-22.2,16.4c-0.2,40.5-25.2,65.8-54.2,88.7c-92.9,73.4-191.8,137.3-296.3,192.9c-18.1,9.7-26.1,7.6-36.5-11
			c-11.7-21-2.1-26.5,13.9-34.7c104.5-53.5,202-117.9,293.6-191.3c12.7-10.2,24.5-20.8,28.6-37.3c4-16,2.4-26.5-19-26
			C533.1,2256.1,481,2255.3,429,2255.3z"/>
		<path class="st0" d="M1246.5,1321.6c-50.9-1.2-108-15.8-153.5-60.5c-53.1-52.1-52.5-125.9,0.6-178.4
			c80.3-79.5,249.2-79.8,329.9-0.6c56.4,55.3,52.5,138.8-9.6,189C1368.4,1307.9,1315,1321.8,1246.5,1321.6z M1258.1,1271.6
			c52.9-0.2,96.8-14.9,127.7-42.9c35.8-32.5,36.9-76.9,2.7-110.3c-61.6-60-194-61.3-257.1-2.4c-37.6,35.1-38.1,77.2-0.4,111.8
			C1166.8,1260.9,1210.9,1271.2,1258.1,1271.6z"/>
		<path class="st0" d="M1951.6,758c-1.4,47.1,0.5,94.1,12.8,139.9c15.6,57.6,101.2,87.8,150.6,53.3c95.9-66.9,236.3-34.3,291.8,68.2
			c20.4,37.8,40.9,75.6,59,114.5c13.8,29.7,36.9,40.4,67.1,40.7c56.1,0.6,112-4,167.7-9.8c15.1-1.6,29.9-6.3,31.6,18.2
			c1.4,19.9-0.6,31.4-24.8,32.7c-61.9,3.5-123.7,9.9-185.9,8.1c-44-1.3-76.3-21.6-96.8-60.1c-21.6-40.6-42.9-81.3-62.8-122.7
			c-15.8-32.9-40.3-54.5-75.4-62.4c-51.8-11.6-100.1-19.9-150.8,16.9c-73.2,53.1-194.4,5.4-218.6-80.8
			c-21.4-76.1-22.7-153.9-15-232.3c1.9-19.5,13.9-12.2,23.5-12.1c12.6,0.2,27.1-2.5,26,18.7C1950.7,712,1951.6,735.1,1951.6,758z"/>
		<path class="st0" d="M2357.5,2475.9c-206.6-0.1-375.2-169.1-373.9-374.9c1.2-207.2,169.1-373.8,375.9-373.1
			c204.7,0.7,371.9,168.4,372.4,373.5C2732.3,2307.7,2564.1,2476,2357.5,2475.9z M2172.1,2205.4c32,0,64.1,0.7,96-0.3
			c18.4-0.6,25.8,2,22.8,24.4c-7.4,54.4-10.2,109.4-16.4,164c-1.9,16.6,1.8,23.2,18.7,26c40.9,6.8,81.3,6.3,122.3,1.3
			c24.7-3,33.4-12.8,34.4-37.9c2.4-58.9,9.1-117.6,12.1-176.5c1.3-25.1,10.9-31.5,35.1-29.5c49.8,4.1,99.9,4.2,149.8,7.6
			c18.7,1.3,26.9-4.8,29.5-23.1c6.4-44,5.9-87.4-2.8-131.2c-4-20-12.3-23.6-30.4-20.1c-45.1,8.6-90.5,15.1-135.6,23.9
			c-24.9,4.9-31.1-2.9-27.1-27.3c9.5-57.1,16.1-114.7,25.9-171.8c2.9-17.2-3.8-23.1-17.2-28.9c-45.7-19.9-93.5-27.9-143.1-27.8
			c-19.8,0-27.9,6.4-27.3,28c1.6,57-0.7,114.1,1.1,171.1c0.8,25.7-8.2,29.9-31.1,26.1c-68.9-11.5-138.3-20.7-207.2-32.1
			c-15.1-2.5-21.9,1.3-26.8,14.9c-23.5,64.9-26.1,130.6-10.9,197.7c3.8,16.9,12.1,22.6,29,22
			C2106,2204.6,2139.1,2205.4,2172.1,2205.4z M2269.4,1869.1c0-18-0.9-36.1,0.3-54c1.3-19.3-3.5-25.1-23.3-17.4
			c-57.5,22.1-105,57.1-143.8,104.7c-12.5,15.3-9.6,21.1,9.9,23.5c38.6,4.8,77.1,11.3,115.6,17.1c41.4,6.2,41.4,6.2,41.4-34.9
			C2269.4,1895.1,2269.4,1882.1,2269.4,1869.1z M2499,2393.2c66.1-34.1,111.7-79,143.4-137.8c4.1-7.6,18-20.8-5.4-22.2
			c-36.9-2.2-73.9-3.5-110.9-5.3c-9.5-0.5-15.1,2.8-15.8,13.1C2506.8,2290.2,2503,2339.4,2499,2393.2z M2074.2,2256.5
			c33.4,62,78.6,103.5,135.3,133.3c17.8,9.3,15.1-6.5,16-14.5c3.7-33.6,5.4-67.5,9.8-101c2.1-16.4-4.8-18.1-17.9-17.9
			C2171.7,2256.8,2125.9,2256.5,2074.2,2256.5z M2555.3,1846.7c-5.7,39.3-10,73.6-15.8,107.6c-3.3,19.4,5.4,22.1,21.3,19.2
			c23.5-4.3,47.1-8.3,70.8-11.9c10-1.5,15.4-5.2,9.6-15.5C2620,1908.8,2594.1,1875.6,2555.3,1846.7z"/>
	</g>
</g>
</svg>
