<?xml version="1.0" encoding="utf-8"?>
<!-- Generator: Adobe Illustrator 23.0.0, SVG Export Plug-In . SVG Version: 6.00 Build 0)  -->
<svg version="1.0" xmlns="http://www.w3.org/2000/svg" xmlns:xlink="http://www.w3.org/1999/xlink" x="0px" y="0px"
	 viewBox="0 0 3000 3000" style="enable-background:new 0 0 3000 3000;" xml:space="preserve">
<style type="text/css">
	.st0{stroke:#000000;stroke-width:10;stroke-miterlimit:10;}
</style>
<g id="Layer_1">
</g>
<g id="Layer_2">
	<g>
		<path class="st0" d="M631,2177.7c-138.6-96.5-191.1-237.1-210.7-392.7c-26.1-207.1-20.1-415.5-15.9-623.7
			c2.6-128.3,2.5-256.7,23.5-383.8c51.6-313,237.1-511.1,529.6-616.6C1079,117,1206,99.4,1334.1,89c149.2-12.1,298.4-19.5,447.8-1.4
			c130.3,15.8,256.3,46.5,372.1,110.3c213.8,117.9,329.3,299.5,352.1,542.2c13.9,147.7,3.4,294.9-7.4,441.9
			c-10.6,144.9-18.6,290.3-41.7,434.1c-21.3,132.7-55.7,260.9-136.1,371.8c-11.3,15.5-2.5,23.8,3.9,34.4
			c78.3,127.6,116.4,265.8,107.7,415.6c-6.4,111.3-38.1,215.1-107.7,303.7c-122.2,155.8-285.8,183.3-468.6,145.1
			c-49.6-10.3-97-27.9-142.4-50.4c-11.5-5.7-20.8-8-33.3,0c-112.4,72.7-237.8,83.4-366.9,74.8c-76.5-5.1-147.2-25.8-204.6-79.7
			c-12.7-11.9-17.6,0-24,6.2c-60.7,58.4-131.7,97.1-215.5,108.6c-215.3,29.4-401.2-89.4-419.4-325.7
			C436.8,2445.4,494,2296.7,631,2177.7z M1337.1,2198.6c105-3.9,237.3-7.6,369.4-14c95.8-4.7,191.2-14.6,285.1-35.9
			c190.6-43.3,304.7-167.6,368.1-346c42.3-119,54.8-243.6,69.2-368c3.9-33.8-5.5-49.5-34-65.8
			c-359.5-204.7-742.1-277.8-1149.8-200.4c-288.1,54.7-544.2,180.9-773.3,363c-8.5,6.8-17.5,12.7-17.1,26.4
			c3.5,126.4,8.2,252.7,51.8,373.3c44.7,123.8,122.6,215,256.5,246.3c55.2,12.9,111.5,17.8,168,21
			C1057.3,2205.7,1183.5,2196.8,1337.1,2198.6z M2059.3,580.3c139.8,154.8,161.7,390.8,53.9,577.8c-6.6,11.5-16.1,20.6,5.9,28.3
			c104.1,36.4,203.8,82.8,299,138.6c16.3,9.6,20.2,5.2,21-12c2.3-45.4,6.6-90.6,9.1-136c8.8-156.2,24.3-312.3,3-468.8
			c-25.6-188.4-115.8-335.2-275.9-438.4c-131.5-84.8-278.1-122.4-432-134.1c-232.9-17.6-464.5-5.7-691.9,50.1
			c-184,45.2-339.7,137.2-453.3,292.9c-94.9,130.1-127.1,280.7-134.6,436.4c-8.5,176.5-8.2,353.5-11.3,530.3
			c-0.2,10.2-4.4,21.9,5.4,31.9c3.7-2.4,7.1-4.3,10.2-6.7c119.5-92.5,247.9-170.3,386.7-230.4c19.4-8.4,15.9-19.5,12-32.9
			c-26.5-89.6-31.5-180.5-16.4-272.4c19.9-121,73.6-225.3,157.4-314.4c4-4.2,5.6-13,16.2-7.1c24.7,13.5,28.5,31.7,10.4,52.6
			c-131.7,153-171.5,327.4-120.3,522.5c2.2,8.4-0.1,26.3,19.1,17.8c12.6-5.6,30.3-4.9,24.5-29c-16.1-67.3-17.8-135.5-11.1-204.6
			C967.5,756,1109.6,588,1320.9,537c132.7-32.1,267.5-27.7,400.4-4c166.2,29.7,279.2,125.2,325.4,291.4
			c29,104.4,20.5,208-10.2,310.6c-2.4,8.1-9.7,17.8,1.7,24c13,7.1,17.7-4.5,22.9-12.8c38.9-62.8,62.7-130.7,68.6-204.5
			c9.3-116.1-25.7-219.1-94.3-311.6c-10.2-13.8-10.4-22.5,3.1-32.3C2045.9,592.6,2052.4,586.2,2059.3,580.3z M1081,2252.4
			c-16,0-28.1,0.4-40.1-0.1c-118-4-236.7-2.2-349.7-44.6c-15.6-5.9-22.6,5.5-31,12.7c-122.1,104.5-172,239.6-159.6,396.8
			c10.8,137.1,87.3,234.4,201.8,267.5c131.2,37.9,246.8,9.3,347.8-82.3c15.6-14.2,17.7-24.7,6-42.3c-15.1-22.8-23.1-49.2-30.2-75.6
			c-22.2-83.8-19.9-168-2.2-252.1c3.8-18.1,0.8-21.3-18-20.6c-133,5.6-232.4,83.3-267.2,210.9c-3.4,12.5-5.3,25.6-9.4,37.9
			c-6.7,20.1-23,8.5-35.1,9c-12.3,0.5-14.6-7.6-12.9-18.4c9.8-60.8,30.3-117.2,69.4-165.4c68.1-84.1,157.4-123.3,264.8-124
			c10.8-0.1,23.9,6,29.7-12C1055.2,2318.3,1067.8,2287.6,1081,2252.4z M1852.8,2335.1c10.2-3.1,19.6-5.8,28.9-8.9
			c90.7-30.6,181.4-60.9,271.9-92.1c17.3-6,25.9-5.7,32.7,14.8c6.8,20.6,2.6,28.1-17.2,34.6c-88.1,28.9-175.7,59.2-263.5,89
			c-50.4,17.1-49.1,17.2-53.1,68.2c-2,24.9,8,26.3,27.5,22.7c84.3-15.5,168.7-29.8,252.9-45.8c23.3-4.4,32.1,1.4,34.5,26
			c3.2,32.8-23.1,23.8-36.4,26.4c-88,16.9-176.4,32.3-265,46.1c-25.7,4-24.4,22.6-23.4,37.5c1.1,15.3,17.6,8.2,26.7,7.3
			c89.4-8.1,178.9-16.5,268.1-26.5c20.4-2.3,28.2-0.2,29.6,22.9c1.6,25.2-10.6,27.6-30,29.3c-95.5,8.4-190.8,18.5-286.4,26.4
			c-22,1.8-27.9,15.1-28.2,31.4c-0.3,20.9,18.5,11.1,27.6,11.4c111.1,3.2,222.2,5.4,333.3,7.2c20.3,0.3,32.8,1.4,32.3,28.6
			c-0.4,27.6-16.3,22.3-31.5,22.1c-110.1-1.8-220.3-2.3-330.2-6.8c-38.9-1.6-68.1,4.1-83.3,43.7c-3.5,9-11.1,17.2-18.6,23.6
			c-18.2,15.4-8.7,21.1,7.3,27.8c63.7,26.9,129.7,45.4,198.9,48.9c136.9,7,252.4-35.4,334.6-150.8c136.1-191,108.9-471.2-15.4-654.8
			c-3.9,3.1-8.1,5.8-11.5,9.3c-70.9,73.5-157.8,117.7-256.3,141.1c-50.1,11.9-100.7,21.5-151.9,26.7c-16.1,1.6-26.6,2.5-20.6,24.6
			C1844.8,2275.1,1847.6,2304.4,1852.8,2335.1z M1801.9,2406.2c2.9-52.9-4.4-105.7-16.1-158.1c-3.1-13.8-8.1-17.6-22.2-16.8
			c-72.6,4.1-145.2,7.1-217.8,10.2c-10.3,0.4-20.3,1.2-28.7,7.7c-48.1,37.3-93.9,76.7-122.8,131.8c-21.3,40.5-21,80.1,9.2,115.8
			c72.3,85.6,94.6,184.8,84,294.1c-2,20.8-19.1,49.5-1.4,60.8c16.8,10.8,44.4-4.6,66.5-11.3c124.2-37.8,205.3-116.6,230.2-246.9
			C1794.5,2532,1805.2,2470.3,1801.9,2406.2z M1433.5,2251.3c-94.6,0-187.3,0.1-280-0.1c-10.6,0-16,5.1-20.4,14.4
			c-57.8,122.2-89.4,249.2-63.2,384.5c19.7,101.9,75.3,175.5,181.2,200.9c49.3,11.9,100.1,12,150.5,13.8c14,0.5,21.7-5.1,24.8-20.1
			c23.5-111.2,17.5-215.5-57.3-309.7c-53.7-67.7-52.4-127.7-6.5-201.1C1382.1,2302.8,1408.9,2278.3,1433.5,2251.3z M1333.9,896.6
			c44.9,40.4,87.9,78.6,130.3,117.4c9.2,8.4,15.6,9.5,25.2,0.5c36.2-33.7,72.9-66.8,109.9-99.7c9.7-8.6,11-14.6,0.7-24
			c-35.1-31.9-69.5-64.6-104.1-97c-6.1-5.7-11.1-10.6-20.4-3.5C1429,825.6,1382.2,860.4,1333.9,896.6z M1235.2,1116.9
			c50.7-6.9,94.5-14.1,138.7-18.4c21.8-2.1,37.4-11.8,52.2-26.4c8.7-8.5,12.4-13.5,1.2-23.4c-40.9-36-81.1-72.9-121.4-109.6
			c-8.3-7.6-15.3-11-26.1-2.7c-36.7,28.3-74.3,55.6-111.4,83.5c-5.1,3.8-14.4,7.7-7.2,16.4c21.9,26.4,44.2,52.6,66.9,78.3
			C1230.8,1117.6,1237.2,1117.4,1235.2,1116.9z M1681.2,638.8c-4.4,2.5-8,4.1-11.1,6.4c-43.6,32.5-86.9,65.4-130.7,97.6
			c-11.8,8.7-9.3,14.4,0,22.9c32.8,29.9,65.4,60,97.2,90.9c10.8,10.5,18.2,8,27.8-0.9c35.4-33,70.9-65.9,107.3-97.8
			c11.2-9.8,10.9-15.7,0.7-25.9c-26.5-26.3-51.8-53.7-77.7-80.6C1690.7,647,1686.1,643.3,1681.2,638.8z M1687.5,903.2
			c31.7,29.4,62.2,57.4,92.1,86c8.6,8.2,14.9,10.7,25.5,2c35.1-28.8,71-56.7,106.9-84.6c9.6-7.5,13.2-13.1,2.8-23.7
			c-28.4-28.8-55.9-58.4-83.2-88.2c-8.7-9.4-15-10.3-24.8-1.2C1767.7,830.2,1728,866.1,1687.5,903.2z M2012.2,993.1
			c-3.8-19.3-25.6-31.4-39.4-49.1c-8.1-10.4-15.5-9.4-25.2-1.4c-34.2,28.1-68.4,56.4-103.9,82.9c-14.4,10.7-8.9,15.8,0.7,24.5
			c23.2,20.9,46.6,41.7,68.3,64.1c15,15.5,33.1,21.3,53.1,25.9c11.8,2.8,16-0.4,19.5-11.2C1999.1,1086.4,2008.1,1043.2,2012.2,993.1
			z M1402.4,637c24.3,22.9,48.5,44.1,70.6,67.2c12.3,12.8,20.9,9.7,32.7,0.6c39.2-29.9,79-59.1,118.5-88.6
			c22.2-16.6,22.2-26.6-1.6-40.5c-7.4-4.3-17.2-6-26-6.4c-33.2-1.3-66.5-1.5-99.7-2.4c-9.6-0.3-17.4,2.2-24.6,8.7
			C1449.9,595.8,1427,615.5,1402.4,637z M1659.5,1091.8c14.8,0.5,84.7-46,87.6-56.8c2.1-7.7-4.2-10.7-8.3-14.5
			c-25-23.6-50.7-46.3-75-70.5c-11.4-11.4-18.5-9.7-29.4,0.6c-31.5,29.8-64.4,58.1-96.1,87.8c-7.3,6.9-23.8,12.4-17.9,23.8
			c5.9,11.3,16.7,23,31.9,25.7c3.9,0.7,8.1,0.4,12.1,0.5C1596.8,1088.9,1629.2,1087,1659.5,1091.8z M1442.3,751
			c0.9-8.9-5.6-11.6-9.6-15.5c-18.1-17.5-37.1-34.2-54.7-52.2c-10.8-11-18.6-9.8-29.6,0c-36.8,32.9-73.9,65.5-112.1,96.9
			c-14.9,12.2-11.6,19.3,1.1,29.5c15,11.9,29.4,24.6,42.8,38.3c10.3,10.6,18.5,11.9,30.7,2.6c39.9-30.7,80.5-60.5,120.8-90.7
			C1435.6,756.9,1439.2,753.6,1442.3,751z M1181.9,758.9c5.4-3.8,8.9-5.7,11.9-8.3c40.4-35.1,80.7-70.3,121-105.5
			c3.5-3.1,8.7-4.9,7.1-11.7c-3.5-15.3-37.6-32.7-53.5-26.5c-45.5,17.8-86.4,43-124.1,74.3c-20,16.5-25.4,27.9-0.2,44
			C1158,734,1169.2,747.4,1181.9,758.9z M1250.1,888.5c-21.8-18.6-44.4-38.4-67.8-57.2c-1.4-1.1-9.7,5.3-14.1,9
			c-17.7,14.9-35,30.3-52.8,45.2c-49.5,41.4-49.2,41.1-7.3,90c9.4,11,15.8,15.1,29.1,4.6c33.2-26.2,67.7-50.8,101.5-76.1
			C1243.4,900.6,1249.4,897.9,1250.1,888.5z M1996.2,830c-8.9-28.9-19.8-55.9-34.6-81.3c-36.5-62.6-40.2-62.9-90.8-13.5
			c-10.2,10-11.8,16.1-1.3,26.7c28.3,28.7,55.6,58.5,83.5,87.7c5.1,5.4,10.5,15.6,19.5,7.9C1981.7,849.7,1997.2,846,1996.2,830z
			 M1169.5,1128.4c0.3-4.9-50.9-64.2-55-64.1c-2.7,0-5.9,1.1-8.1,2.7c-33,24.6-66.2,49.1-98.7,74.4c-9.4,7.3-5.8,17.2-1.7,27.2
			c4.9,12,12.3,6.7,19.4,4.7c43.6-12.2,87.1-24.5,130.6-36.8C1161.4,1134.9,1168.3,1135.3,1169.5,1128.4z M1880.1,658.7
			c-2.2-3.4-3.1-6.2-5.1-7.8c-37.9-29.8-81-48.6-127.6-59.2c-8.3-1.9-15.3,5.6-19.7,12.1c-5.7,8.4,4.1,12,8.2,16.4
			c20.5,22.2,41,44.6,62.8,65.5c8.4,8,14.3,28.2,28.9,19.2C1846.9,693,1862.3,674.8,1880.1,658.7z M1140.1,789.4
			c-15.7-13.6-32.9-28.8-50.6-43.3c-0.8-0.7-6.9,3.2-9,6.1c-24.8,33.1-44,69.3-58.3,108.1c-4,10.9,1.9,17.3,9.1,22.9
			c8.3,6.4,12.6-2.7,16.9-6.4c28.3-24,56-48.7,83.8-73.2C1135.6,800.5,1140.8,798.6,1140.1,789.4z M996.6,1084.5
			c18-13.5,31.7-23.6,45.3-33.9c39.2-29.7,39.4-29.9,7.5-65.8c-6.8-7.6-12.6-24.2-23-19.2c-14.2,6.8-30.5,16.2-31.6,36.8
			C993.3,1028.1,992.3,1053.8,996.6,1084.5z M1831.6,1110.7c-43.9-48.2-45.4-48.4-74-10.6
			C1780.8,1103.4,1803.6,1106.6,1831.6,1110.7z"/>
		<path class="st0" d="M1530.1,1980.9c-105,2.3-185,0.1-260-31.9c-103.2-43.9-172.9-117.9-191.9-231.3
			c-13.7-81.2,16.5-150.8,66.6-212.7c59.7-73.8,137.2-118.5,230.9-132.3c129.7-19.1,260.3-19,388.4,8.1
			c148.7,31.5,245.5,163.5,238.3,314.3c-2.2,45.5-18.7,86.7-45.4,123.2c-72.1,98.6-171.5,146.3-291.6,155.9
			C1612.1,1978.3,1558.7,1981.1,1530.1,1980.9z M1544.9,1412.7c-30.5-3-71.8,0.6-113.1,3.7c-89.4,6.6-170,34.4-232.2,102.3
			c-47.1,51.4-80.1,109.6-72.5,182.6c11,106.2,102.1,197,218,217.6c129.8,23,260,17.1,388.2-7.8c90.3-17.5,160.7-71.8,201.4-155.6
			c54.2-111.5-18.7-267.7-142.6-314.3C1715.6,1412.4,1635.3,1416,1544.9,1412.7z"/>
		<path class="st0" d="M1525.6,1851.2c-79.5,1.4-162.6-76.2-177.7-163.5c-2.9-16.8-8-35.3-4-50.9c10-38.6-6.4-55-41.5-61.3
			c-6.8-1.2-13.2-5-19.6-7.7c-12-5.2-29.7-5.8-17.9-27.6c8.6-15.9,10.3-31.4,37.9-19.9c155.4,64.3,312.2,63.7,467.7-0.1
			c24.3-10,28.5,1.7,36.8,17.8c10.9,21.3-3.2,25.6-18.1,30.6c-27.6,9.3-54.7,20.7-83,27.3c-18.3,4.2-21,11.4-19.6,28.5
			c6.6,81.1-20.3,148.5-85.4,199.1C1578.1,1841.4,1550.9,1848.3,1525.6,1851.2z M1638.2,1648.4c-7.4-10.3,11.8-38.7-23-35.1
			c-67.4,7-134.8,6.6-201.5-7c-13.9-2.8-16.9,1.8-18.6,14.5c-8.8,65.6,23.8,134.2,80.8,167c35,20.1,67.1,17.8,97.6-6.6
			C1615,1748.2,1636.5,1704,1638.2,1648.4z"/>
	</g>
</g>
</svg>
