<?xml version="1.0" encoding="utf-8"?>
<!-- Generator: Adobe Illustrator 23.0.0, SVG Export Plug-In . SVG Version: 6.00 Build 0)  -->
<svg version="1.0" xmlns="http://www.w3.org/2000/svg" xmlns:xlink="http://www.w3.org/1999/xlink" x="0px" y="0px"
	 viewBox="0 0 3000 3000" style="enable-background:new 0 0 3000 3000;" xml:space="preserve">
<style type="text/css">
	.st0{stroke:#000000;stroke-width:10;stroke-miterlimit:10;}
</style>
<g id="Layer_1">
</g>
<g id="Layer_2">
	<g>
		<path class="st0" d="M1090.9,1196.3c-60.8,14.4-117.6,35.4-177.3,44.6c-195.8,30.1-288.3-27.8-342.2-219.6
			c-32.1-114.2-43.6-231-13.6-347.5C607.2,481.6,718,419.2,904.7,404c62.9-5.1,120,34.3,136,82.8c2.8,8.3,14.4,21.7-2.2,26.1
			c-13.2,3.4-31.9,17.4-41.9-3.3c-31.6-65-87.5-58.6-143.2-49.4c-182.6,30.3-250.9,136.3-260.1,335.2
			c-4.5,96.5,11.8,191.9,51.5,281.4c42.5,96,107.4,133.5,210.7,121.7c81.5-9.3,160.1-30.6,236.9-59.3c14.2-5.3,25.2-11.1,30.9-26.9
			c58-160.8,141.3-308.5,232.4-452.3c3.4-5.4,5.9-11.4,9.9-19c-35.7-10.5-71.4-10.6-104.1-25.8c-44-20.4-67-53.4-72.1-100.4
			c-4-37.3,0.7-73.8,11.9-109.3c28-88.6,76-165.2,145.5-226.7c141.5-125.3,305-123.4,442.9,6.6c24.5,23.1,41,24,70.3,10.6
			c286.4-131.5,578.9-146.5,876.1-39.4c89,32.1,164.4,80.7,184,182.9c8.5,44,8.4,89.1,7.7,133.9c-3.1,209.6-11.6,419.3,4.2,628.7
			c7.9,105.1,21.6,209.7,30.5,314.7c12.7,149.7-9.3,297.3-31.8,444.5c-21.8,143-39.3,286.6-68.7,428.6
			c-27.9,134.7-100,222.7-228.4,273.5c-248.1,98.2-506.4,130.2-770.4,133c-65.9,0.7-131.7-1.8-197.5-6.8
			c-86.8-6.6-162.5-36.8-219.6-102.9c-66-76.5-148.4-104.4-246.8-97.9c-55.2,3.6-110.7,2.9-166.1,3.3c-15.1,0.1-26.4-0.3-34.2,17.7
			c-65.9,153.1-194.1,216-349.7,232.4c-117.8,12.4-234.4-1.2-347.3-38.8c-136.7-45.6-223.2-146.3-230.2-267.7
			c-3.1-54.8,9.9-105,52.5-143.4c53.3-48.1,119.2-43.7,148.6,20.7c39.5,86.5,145.8,95.8,231.4,72.1c95.9-26.5,161.3-105,163.8-190.6
			c0.8-26.3-7.3-34-34.2-31.7c-56.1,4.8-112.5,7.7-168.7,7.8c-101,0.1-171.2-49.7-217.7-138c-51.2-97.2-66.2-202.1-69.3-309.6
			c-4.2-149,5.5-297.9,10.4-446.7c5.6-171.2,5.9-342.8,20.7-513.6C234.4,471.4,454.3,224.5,739.5,168
			c81.8-16.2,162.6-13.7,240.1,20.9c55,24.6,96.3,63.8,120.8,119.5c5.4,12.2,11.4,26.4-9.9,29.8c-12.2,2-25.3,16.4-35.6-6.6
			c-38.8-86.6-114-113.3-201.6-121.7c-77.8-7.5-131.4,16.4-177.1,85.8C548.6,489.4,463.6,697.4,432.7,927.6
			c-4.4,32.8,2.1,61.9,15.8,91.5c87,187,243.2,251.7,437.8,250.2c48.8-0.4,97-6.4,145.4-10.8
			C1071,1254.9,1088.4,1237.7,1090.9,1196.3z M2601.6,1077.3c-11.1-6.4-15.4-8.8-19.6-11.3c-45.6-27.4-59.6-72.4-62.2-120.7
			c-2.1-40.6,25.7-61,62.5-69.1c14.2-3.1,12.8-10.4,8.4-19.7c-15.8-32.9-2.7-61.8,12.9-89.8c26.4-47.2,55.7-92.7,90.1-134.5
			c13-15.7,13.3-26.5,2.8-44.2c-70.1-118.5-67.4-238.4,1.2-356c16.3-27.9,7.8-33.6-16.8-42.1c-394.6-137.2-875.4-8.3-1144.7,313
			c-211.3,252-357.6,538.7-436.6,858.7c-13.9,56.5,28.6,108.7,87.2,107.1c22.6-0.6,44-7.6,65.1-15.3c52.2-19,99.5-48,149.4-71.7
			c20.2-9.6,43-22.8,60.9,0.1c17,21.7,2,42.6-11.2,61c-9.2,12.8-20,24.4-30.5,36.3c-49.1,55.4-112,91.3-177,123.9
			c-48.3,24.2-85.7,60.9-119.5,101.7c-16.5,19.9-14.6,32.1,15,33.5c36.8,1.7,73.5,6.5,110.3,8.3c53.9,2.6,106,24.1,160.2,17.8
			c126.5-14.8,252.7-11.4,378.9,1.5c25.1,2.6,45.4,0.9,65.4-16.5c33.4-29.1,74.5-44.4,116.9-54.8c72.5-17.7,126.6,6.3,147.5,63.6
			c21.5,58.8,3,125.3-46.3,163.7c-31.4,24.4-65.8,43.4-103.1,57.6c-106.1,40.3-106.9,40.7-78.3,149.5
			c23.3,88.7,10.5,170.5-44.9,243.3c-69.5,91.4-153.9,166.1-257.5,217.7c-9.8,4.9-22.4,6.4-29.4,21.1
			c44.2,21.5,90.6,27.7,137.9,30.1c183.5,9.4,366.4,4.4,548.1-24.2c152.9-24.1,301.5-63.5,439.6-135.4
			c44.5-23.2,77.7-58.1,97.1-105.4c23.1-56.3,34.7-115.4,46.4-175.9c-28-1.8-54.4-1.3-80.2-5.4c-87-14.1-164.5,5.6-233.5,60.3
			c-27.8,22.1-54.7,45.8-84.2,65.4c-67.3,44.6-148.4,41.5-208.3-11.5c-23-20.3-36.4-20.6-61.9-5.7c-56.4,32.9-126.9,13.6-151-36.9
			c-25.1-52.5,0.9-115.8,59.5-144.7c16.7-8.2,34.7-12.1,53.2-13.7c14-1.2,23.7-4.7,27-22.1c19.8-105.1,84.1-182.6,160-252.3
			c33.4-30.7,71.9-43.6,116.1-25.3c12.4,5.2,19.4,4.7,23.4-9.4c10.4-37.3,34.1-64.2,65.8-85.8c24.8-16.9,28.4-30.6-5.9-44.3
			c-57.6-23-64.1-82.7-15.5-121.7c16.7-13.4,36.9-19.9,56.5-27.6c52.8-20.8,55.1-31.1,17.1-73.3c-33.5-37.2-32.5-73.1,2.9-107.4
			c57.5-55.8,57.5-55.8-15.6-90.7c-1.2-0.6-2.5-1-3.6-1.5c-33.9-16.4-60.3-39.3-60.7-80.2c-0.3-34.3,29.2-66,72-79.9
			C2572,1082.5,2583.7,1081,2601.6,1077.3z M1354.6,1464.2c-25.1,10.9-49.8,22.7-75.3,32.6c-58.1,22.7-116.7,36.3-173.5-3.2
			c-16.7-11.6-23.7,2-32.7,10c-106.3,94.9-232,131.8-372.1,123.6c-150.2-8.8-261.6-92.7-298.2-223.4
			c-14.3-51.1-16.3-103.9-21.7-156.3c-28-270.3,17.1-527.4,134.4-772.3c36.9-77,80.9-149.8,130-220.8c-16.2-6.1-26,3-35.7,8
			C398,373,273.6,547.2,259.1,785.2c-17.9,295.9-23.8,592.7-31.2,889.2c-2.7,109.5,8.3,218.2,56.6,320.2
			c42,88.7,108,132.6,207.4,125.3c92-6.7,184-14.5,276.2-16.5c143.2-3,240.6-86.7,259.2-203.3c4.3-26.7,22.6-20.7,38.8-19.1
			c22.7,2.3,12.9,19.5,10.9,30.3c-12.6,67-45,123.1-95.8,168.7c-7.8,7-23.4,11.9-9.9,27.2c44,49.8,69.2,108.9,85.2,176.7
			c9.7-6.2,14-14.5,19.9-21.6c75.4-90.1,108.6-195.1,105.5-311c-1.7-63,21.6-106.6,78.1-133.5c6.4-3,15.4-4.4,16.5-15.6
			c-6.4-1.4-12.7-3.4-19.1-4c-43.3-4.1-86.6-7.7-129.9-11.8c-66.4-6.4-86-47.9-49-103.8c6.5-9.8,14.1-19,21.8-28
			c43-49.5,95-86.8,153.8-115.3C1292.1,1520.9,1328.8,1500.4,1354.6,1464.2z M2076.5,1815.1c0.9-56-27.8-82.6-77.4-74.8
			c-64.7,10.2-117.3,42.1-161.5,90.8c-58.8,64.8-89.7,144.3-125.2,222.2c-64.5,141.7-155,258.2-319.6,290.1
			c-88,17.1-173.2,2.3-254.6-32.9c-20.1-8.7-32-6.9-47.7,8.7c-33.1,32.9-73.4,55-117.6,70.5c-10.2,3.6-26.6,4.2-25.6,19.8
			c0.9,14.6,14,22.1,27.2,25c17.9,3.9,36.4,7.7,54.6,7.6c51.4-0.2,102.8-0.9,154-4.3c116.8-7.8,219.9,18.8,297.5,112.8
			c14.8,17.9,29.1,20.7,51.1,10.7c111.7-50.7,203.2-126,276.7-223.5c30.4-40.3,42.1-86.7,42.3-137c0.2-31.6-9.2-60.5-17.3-90.2
			c-26.2-95.8-4.9-135.5,89.2-168.3c42.5-14.9,83-33,118.8-61.1C2064.9,1862.6,2074.8,1838.2,2076.5,1815.1z M2864.2,1963.6
			c7.9-54,14.8-108.3,23.8-162.1c30.2-179.2,31.4-357.9,10.4-538.8c-7.9-68.6-35.8-93.8-96.4-107.2c-68.4-15.1-136.4-29.4-206.8-25
			c-22.5,1.4-47.7,7.1-53,33.1c-5.1,24.8,19,30.9,36.2,39.7c8.2,4.2,16.8,7.6,25,11.8c72.1,36.2,80.2,94.1,17.7,144.3
			c-29.1,23.4-34.4,39.1-5,67.3c44.3,42.6,34.4,96.8-19.6,126.3c-16.1,8.8-34.1,13.8-50.8,21.5c-14.1,6.5-31.8,11.6-32.5,30.6
			c-0.6,19.5,18.7,18.7,30.9,24.6c36.3,17.6,49.5,46.3,36.2,80.5c-8.5,21.8-25.6,37-44.4,49.1c-29.4,18.9-41.9,47.4-46,79.3
			c-3.1,23.9-12,61.9,10.9,68.6c28.4,8.4,41.1-27.6,48.6-52c34.8-114.3,125.4-145.3,216-35c5,6.1,9.9,12.4,15,18.4
			C2812.7,1876.4,2834.9,1920.6,2864.2,1963.6z M2194.9,2112c-1.5,88.6,22.4,143.8,86.2,175.7c59.9,29.9,109,5.2,154.5-34.4
			c55.9-48.7,114.4-92.6,190.4-106.3c47.3-8.5,94.1-7.6,141.2-1c69.7,9.7,87.6-10,69.2-79.2c-11.8-44.4-27.3-87.8-49.5-128.4
			c-24.2-44.2-53.4-84.9-91.8-117.7c-35.2-30.1-60.7-24.7-81.9,16.2c-9.7,18.6-16,38.9-25.1,57.8c-22.6,47.1-56.8,70.4-97.4,66.7
			c-45.7-4.3-57.5-38.9-68.6-75.5c-11.8-39.2-36-49.8-67.6-23.7C2269.4,1932.4,2201.9,2014.6,2194.9,2112z M200.1,2584.3
			c29.3,32.7,60.8,49.9,94,61.7c138,49.1,279.2,66.7,423.5,33.3c93.6-21.6,169.4-70.9,219.7-155.3c14.1-23.7,20-39.4-11.2-59.4
			c-49.4-31.6-38.7-95.3,15.8-117.5c9.7-4,19.5-8,29.7-10.5c25.3-6.3,33-22.4,28.9-46.9c-8.2-48.8-25.6-93.2-54.2-134.1
			c-17.9-25.6-34.9-31.6-65.7-21.3c-35.5,11.9-25.5,39.8-28.5,61.5c-30,213.5-177.2,369-388.5,407.6
			C376.6,2619.2,290.8,2610.2,200.1,2584.3z M1173.4,2211.4c88.3,8.4,165.9-10.5,239.8-48.5c13.4-6.9,18.2-15.5,16.8-31.3
			c-3.2-35.3-2.4-71-5.5-106.4c-2.7-31.2,5.6-45.6,40.5-42.7c36.6,3,73.6-0.5,110.5,0.1c17.4,0.3,29.3-4,38-20.8
			c21.4-40.9,38.5-83.4,54.9-126.5c7.9-20.7,3.1-27.8-19.2-28.9c-60.6-3-121,0.4-181.5,3.2c-72.6,3.4-138.8,25.6-200.7,62.8
			c-19.5,11.7-32.7,27.4-32.5,50.5C1235.6,2022.6,1219.5,2118.8,1173.4,2211.4z M354,2561.4c242.6-0.6,417.6-151.6,446.8-368.7
			c1.7-12.9,18.9-45.1-15.3-39c-23.3,4.2-69-22.3-68.8,34.9c0.3,83.9-36.3,149.9-103.3,198.6c-71.8,52.2-153.1,67.5-240.1,55.6
			c-68.4-9.4-114.3-48-145.4-108.6c-15.1-29.4-40.7-25.9-63.6-8.7c-45.3,34.1-45.3,83.1-40,132.8c3.2,29.7,18,49.1,47.8,60.8
			C237.9,2545,305.1,2560.8,354,2561.4z M430.2,1093.8c-4.8,101.4-0.1,200.8,22.2,298.2c17.1,74.7,65.7,124.7,134,155.8
			c139.4,63.5,349,24,456-85.1c6.3-6.4,18.1-13,12.4-22.2c-24.4-38.9-6.8-76.2,1.2-114.1c1.4-6.7,6.6-15.5-4.8-19.8
			c-24.6-9.3-57.4,13.6-57.7,40.4c-0.1,11.8,0.4,23.8-0.8,35.5c-6.9,69.7-70.9,112.2-136.8,88c-31.4-11.5-59.1-20.4-91.9-3.2
			c-13.5,7.1-35,6-50.4,1c-51.8-17-102.1-31.7-158.5-35.4c-64.1-4.2-111-92.3-79.2-162.8c32.7-72.5,6.6-116.2-36.1-164
			C436.2,1102.4,433.3,1098,430.2,1093.8z M1692.1,293.5c-161.6-43.3-375.6,54.8-446.8,199.9c-12.6,25.7-0.7,55.3,29.1,71.8
			c33.5,18.6,70.5,19.6,107.4,21.1c14.1,0.6,25-3.3,33.9-15.5C1492.2,465.9,1581.8,373.9,1692.1,293.5z M2874.8,676.8
			c0-103.5,2.4-203.3-0.9-302.9c-2-60-32.1-107.1-85.9-137.7c-16.3-9.3-26-10.1-38.9,6.7C2641.9,383,2703.7,607.5,2874.8,676.8z
			 M2875.6,1126.1c0-49.5-2.6-95.5,0.8-141c3.1-41.4-17.4-58.2-52.6-70.1c-80.9-27.5-158.3-4.2-236.4,12.2
			c-10.6,2.2-17.9,9.8-18.6,22.4c-2.2,38.1,32.6,77,70.6,76.7c36.8-0.3,75.9,4,98,32.3C2774.8,1106.4,2829.2,1108.8,2875.6,1126.1z
			 M1273.1,372.1c5.5-4.1,9.7-6.7,13.2-10c104.2-96.6,227.2-138.2,368.6-127.5c26.3,2,52.1,6.3,77.3,13.8c13.4,4,29,6.1,35.9-6.4
			c7.3-13.1-9.4-18.6-17.4-25.4c-35.1-30.3-73.7-55.2-118.4-68.8C1496.4,106.3,1317.3,217.4,1273.1,372.1z M1169.2,2262.3
			c47.3,30.1,136.7,43.8,198.3,35c131.9-18.7,211.8-104.8,273.3-212.5c49.2-86.1,70.3-186.7,140.3-263.3
			c-37.5-17.7-53.1-10.9-64.7,25.8c-32.7,104-81.6,200-163,275.8C1446.6,2222.8,1320.7,2272.5,1169.2,2262.3z M543.9,1224.8
			c-19.9,41.2-38,81.7-14.6,127.2c12.2,23.8,31,39.7,59.4,36.4c28.9-3.3,56-42.9,63-82.9c5.3-30.3-19.8-29-34.8-38.2
			C593.4,1253.1,569.4,1239.7,543.9,1224.8z M2730.4,851.6c46.9-0.4,85.6,5.4,122.4,20.4c13.5,5.5,19.7,3,19.9-12.1
			c0.4-36.7,1-73.4,1.5-110.1c0.3-26.1-24.9-22.6-38.4-32.6c-10.8-8-16.9-0.7-21.1,8C2793.2,768.7,2763,806.5,2730.4,851.6z
			 M2651.9,843.5c6.7-3,13.8-4.3,18.5-8.4c45.1-39.6,77.1-89,103.3-142.3c9.2-18.7-11.4-23.7-20.3-33.1c-12-12.6-18.1,1-24.2,8.3
			c-9.2,11.1-18,22.6-25.7,34.8c-21.6,34.4-43.5,68.7-63.2,104.1C2632.9,820.2,2628.9,837.4,2651.9,843.5z M892.1,1319.3
			c-61.9,0-64.1,0.1-60.9,72.1c1.6,35.5,36.6,31.3,60.1,33c35.2,2.6,50.1-22.9,53.3-71.2C948,1302.4,911.2,1324.5,892.1,1319.3z
			 M783.9,1345.3c1.6-29.7-28.1-52.4-67.7-40.6c-32.7,9.7-18.5,55-39.8,77.4c-5.8,6.1-6.8,14.1,2,19.7c4.4,2.8,8.8,5.7,13.4,8.1
			C751.4,1439.5,780,1419.4,783.9,1345.3z M2104.1,2268.9c20.5-6,56.8-7.1,53-39.4c-2.7-22.8,7.8-63.4-31.1-70.5
			c-35.4-6.4-75.9,30.9-75.3,64.6C2051.2,2255.3,2071.5,2266.3,2104.1,2268.9z M1569.6,2031.5c-31.8,0-52.6-0.2-73.3,0.1
			c-7.4,0.1-18.6-1.9-19.3,8c-1.8,23.2-9.7,52.1,7.8,67.3c12.1,10.6,26.3-14.8,38.3-25.1C1537.6,2069.3,1549.4,2053.7,1569.6,2031.5
			z"/>
		<path class="st0" d="M876,829c-49.2-1-84.6-37.2-83.8-85.6c0.8-45.3,42.1-82.5,89.9-80.9c43.5,1.4,79.4,39,79,82.7
			C960.6,793.8,923.9,830,876,829z M908.2,746.7c-0.7-20.2-8.3-33.6-30.6-31.9c-18.8,1.4-34,9.6-34.4,30.3
			c-0.4,21.8,13.3,34.2,34.5,34.5C898.7,780,907.1,765.9,908.2,746.7z"/>
		<path class="st0" d="M1024.9,882.6c-0.4,28.8-23.6,48.9-55.4,49c-29.7,0-43.5-15.3-43.9-43.8c-0.5-32.8,19.8-57.9,46.7-58.5
			C999.9,828.6,1025.3,854.3,1024.9,882.6z"/>
		<path class="st0" d="M1476.1,1187.4c-2.3-63.6-4.5-132.5,23-197.4c9.2-21.7,4.6-30.6-17.6-34.6c-16-2.9-30.2-7.2-21.5-30.5
			c7.2-19.4,14.1-26.7,36.1-18.2c28.9,11.1,84.2-22.1,93.9-52.7c2.9-9.3-3.9-14.4-7.2-21.1c-51.8-105.6-9.3-220.5,98.3-265.6
			c11.8-5,25.5-14.7,31.4,6.1c4,14.4,16.9,28.6-9.9,40.8c-53,24.1-90.8,63.6-92.4,126.6c-1.7,67.7,38.7,115,105.9,118.3
			c67.1,3.3,134.4,1.2,201.7,1c22.9-0.1,40-12.2,53.1-29.9c7.8-10.6,15.6-21.6,20.7-33.6c42.1-99.7,120.2-135.5,224.2-133.3
			c112,2.4,224.1-0.6,336.2-0.4c11.1,0,29.7-8.7,31.5,11.9c1.4,15.5,5.4,30.9-12.7,45.5c-134.1,108.7-221.4,246.9-265.6,414.9
			c-31.5,119.6-91.7,227.1-171.7,321.5c-112.2,132.4-291.7,184-442.7,129.1c-133.3-48.5-192-152.6-207.2-286.8
			C1479.5,1263.6,1478.7,1227.9,1476.1,1187.4z M1795.6,1350.9c26.7,0.5,52-5,77.1-14.4c91-34.4,158.6-97,213.3-175.2
			c82-117.3,134.2-250.2,195-378.4c30.3-63.9,28.8-64.6-40.3-67.5c-5.2-0.2-10.5-0.9-15.7-1.1c-79.6-3.2-149.7,11.5-182.9,96.5
			c-2.4,6.1-6.3,11.5-9.7,17.2c-23.6,38.8-49.3,75.3-99.8,80.5c-13.6,1.4-16.8,12-20.1,21.5c-49,144.5-152.2,215.8-302.1,221.7
			c-25.1,1-24.2,10.5-21.2,28.7C1606.4,1281.8,1690.6,1351.6,1795.6,1350.9z M2491.8,717.5c-15.2-1.2-24-2.3-32.9-2.4
			c-90.8-1.5-89.1-0.7-128.5,82.4c-62,130.7-115.9,265.7-198.3,386c-56.1,81.8-124.9,149.5-217,190.5
			c-190.1,84.5-375.3-32.5-380.3-239.8c-0.7-28,3-41.6,39-37.4c127.7,14.9,224.5-37.9,276.9-145.1c18.1-37,16.8-39.3-22.9-39.3
			c-23.7,0-47.5,1-71.2,0.3c-15.6-0.5-26.7,2.7-36.3,17.2c-28.2,43-72.9,60-120,53.5c-43.5-6-53.7,13.8-62.2,47.7
			c-23.1,93.1-9.2,186.2-1.4,279.1c4.1,48.9,19.5,95.5,48.4,136.4c5.8,8.2,9.7,21,22.9,18.5c92.1-17.2,186.2,4.8,278.5-15.2
			c42.8-9.3,88.2-13.3,111.7,39.4c7.9,17.7,17.9,3.5,24.9-1.2c36.5-24.3,68.2-53.9,93.9-89.7c67.2-93.9,120.1-194.9,149.4-307.1
			c27.4-104.9,76.7-198.7,145-282.4C2435.4,779.2,2461.7,751.5,2491.8,717.5z M1665.2,1509.2c35.8,31.9,78,40.5,120.8,47.3
			c18,2.9,26.9-4.3,26.9-23.4c0-15.9-4.5-24.5-22.4-24.2C1748.7,1509.7,1706.9,1509.2,1665.2,1509.2z M1918.6,1496.2
			c-14.7,12.5-54.5-13.4-55,31.3c-0.1,9.5-6.7,27.6,14.5,23c26.7-5.7,60.5-3.2,72.5-33.6C1957.2,1500.4,1938.4,1494.4,1918.6,1496.2
			z M1593.7,930.7c32,4.4,57.5,0.4,78.6-22.2C1628.7,880.6,1628.3,880.7,1593.7,930.7z"/>
		<path class="st0" d="M1989.3,360.9c53.2-0.1,95.1,41,95.8,93.9c0.7,54.3-42.9,97.7-97.2,96.8c-52.7-0.8-93.9-43.2-93.6-96.3
			C1894.6,402.2,1936,361,1989.3,360.9z"/>
	</g>
</g>
</svg>
