<?xml version="1.0" encoding="utf-8"?>
<!-- Generator: Adobe Illustrator 23.0.0, SVG Export Plug-In . SVG Version: 6.00 Build 0)  -->
<svg version="1.0" xmlns="http://www.w3.org/2000/svg" xmlns:xlink="http://www.w3.org/1999/xlink" x="0px" y="0px"
	 viewBox="0 0 3000 3000" style="enable-background:new 0 0 3000 3000;" xml:space="preserve">
<style type="text/css">
	.st0{stroke:#000000;stroke-width:10;stroke-miterlimit:10;}
</style>
<g id="Layer_1">
</g>
<g id="Layer_2">
	<g>
		<path class="st0" d="M1568.5,767.9c89.4-1.8,254.7-0.4,419.8,4c213,5.8,420.9,41.9,620.5,119c40.4,15.6,79.6,34,116.5,56.6
			c103.1,63.3,174.6,150.5,196.3,271.7c27.4,153.1,39.5,307.6,33.5,463.2c-3.9,101.1-53.1,171.8-146.3,210.1
			c-104,42.7-211.1,74-324.4,78.6c-19.9,0.8-40,0.2-59.8-2.2c-81.2-10-117.3-55.6-106.1-136.4c8.5-61.9-10.7-112-59.1-149.8
			c-92.8-72.4-197.1-104.9-314.4-80.2c-63.9,13.4-105.8,54-122.8,117.6c-8,29.9-14,60.4-19.2,91c-4.6,27.4-10.7,54.4-20.1,80.5
			c-24.1,66.5-68.5,107.3-142,110.9c-118.5,5.8-236.8,15.2-355.6,13.9c-71.2-0.8-110.8-37.1-116.7-108.2
			c-3.8-45.7,3.5-90.7,9.1-135.8c17.9-143-31-209.7-174.5-225.2c-104.5-11.3-200.6,13.3-277.4,91.4C679,1686.1,664,1741,683,1806.2
			c20.8,71.7,0.4,118.7-69.3,142.7c-147.9,50.9-288.8,34.1-416.3-59.7c-75.7-55.7-107-137.6-116.4-227.2
			c-10.5-100.3-15.1-201.2-12.6-302.2c4.4-172.8,84.9-302.4,226-396c159.8-106,335.1-171.6,527.2-185.7
			C1045,761.5,1268.9,768.2,1568.5,767.9z M1021.8,1105.8c0-82.1-1.1-164.2,0.6-246.2c0.5-26.7-5.1-37.9-34.2-35.3
			c-46.3,4.1-93,4.2-139.5,6.9c-185.6,11-354.9,71.8-511.3,170.1c-148.7,93.5-221.7,227.9-214.3,404.5c3.1,73.1,4.2,146.4,9.5,219.3
			c4.4,59.9,14.7,119.4,51,169.9c64.7,89.9,160,116.9,263.8,124.9c21.7,1.7,15.2-13.6,13.9-24.8c-7.4-65.3-7.7-130.4,2.5-195.6
			c25-159.9,126.1-269.9,273.9-295.2c80.7-13.9,162.3-21.4,244.1-19.8c30.9,0.6,42-5.7,40.9-39.2
			C1019.9,1265.6,1021.8,1185.7,1021.8,1105.8z M2901.7,1612.9c-1.6-116.6-12.9-216.8-22.2-317.2c-13.4-143.3-80.7-251.8-211-316.3
			c-183.4-90.8-380.6-128.8-582.5-147.3c-20.2-1.8-17.8,10.6-17.8,22.8c0,168.5,0.2,337-0.3,505.5c0,16.5,3.9,23.4,22,23.7
			c35.4,0.7,70.8,3.7,106.1,6.6c190.1,15.6,306.4,104.7,354.9,273.4c20,69.7,27.3,141.3,22.1,213.8c-1.2,16.6-1.6,29.5,21.3,23.8
			c74-18.7,148.5-36.3,216.7-72.3c45.6-24.1,74-61.2,83.8-113C2902.3,1676.8,2901.3,1637.1,2901.7,1612.9z M1852.5,1437.2
			c-137.9,0-253.2,0.1-368.6-0.2c-16.7,0-28.8-0.8-28.7,23.3c1.1,157.5,0.9,315.1,0.2,472.6c-0.1,19.6,6.5,24.6,24.9,23.1
			c55.3-4.4,110.6-8.5,165.9-11c38.1-1.7,60.8-22.7,76.9-54.2c9.7-18.9,15.2-39.2,19.4-59.9c8.9-44.5,13.8-89.8,27.9-133.2
			c24.9-76.6,76.1-127.2,153.7-147.4c118.9-30.9,228.3-1.9,330.6,60.1c91.4,55.4,135.7,134.5,117.3,243.2
			c-4.7,27.7,6.9,44.7,32.3,53.9c31.1,11.3,63.4,8.9,95.5,8.2c16.9-0.3,14.4-13,15.8-23.6c5.9-44.3,4.4-88.6-1.7-132.7
			c-22.6-162.7-101.9-291.3-301.6-311.3C2084.8,1435.4,1957.5,1438.6,1852.5,1437.2z M1400.5,1697.5c0-77.7-0.1-155.3,0.1-233
			c0-15.1,1.3-28-21.4-27.6c-194,2.9-388.4-6.1-581.9,14.4c-88.1,9.3-169.6,33.9-222.7,114.2c-68.7,104-71,218.7-56.9,336.4
			c0.8,6.8,2.2,14.7,11,13.4c34.3-4.9,67.9-13.7,95-36.3c22.6-18.9,10-43.1,3.8-64.8c-22.3-78.6-2.7-147,51-206.1
			c83.9-92.4,192.2-121.9,312.7-117.9c168,5.6,254.1,99.5,244.4,266.3c-0.6,9.9-2.3,19.8-3.2,29.7c-3.3,36.4-8.8,72.8-9,109.3
			c-0.3,48.9,21.7,68.4,70,67.4c26.6-0.6,53.2-3.2,79.8-2.7c22.1,0.4,28-8.6,27.8-29.8C1399.9,1852.8,1400.5,1775.1,1400.5,1697.5z
			 M1196.2,1103.1c0-63.1,0.2-126.2-0.1-189.3c-0.2-28.6,9.3-66.4-5.2-83.4c-17-20-56.1-3.4-85.4-6.6c-23.3-2.5-29.7,6.1-29.5,29.4
			c1,147.3,0.2,294.5,0.8,441.8c0.1,28.4-12.6,66.2,5.5,82.9c19.3,17.9,57,2.9,86.5,5.5c21.8,2,28.2-6,27.9-27.8
			C1195.4,1271.4,1196.1,1187.2,1196.2,1103.1z M2013.2,1104c0-83.1-0.9-166.1,0.4-249.2c0.6-41.9-30.3-24.1-49.2-28.5
			c-22.7-5.3-24.5,9.2-24.4,27c0.4,166.1,1.3,332.2-0.6,498.3c-0.4,38.6,23.6,27.4,43.5,30.3c26.4,3.8,31.2-8.6,30.9-32.2
			C2012.5,1268,2013.2,1186,2013.2,1104z M1883.6,879.8c0-59.6-0.3-59.4-44.5-55.5c-11.2,1-18.1,6.4-25.2,13.5
			c-20.3,20.3-39.5,41.9-61.7,59.9c-21.3,17.3-24.5,31.9-6.3,53.6c14.7,17.6,23.8,52.2,38.8,54.3c20,2.8,35.7-27.6,53-43.8
			C1862.9,938.3,1896.4,918.3,1883.6,879.8z M1267.4,824.7c38.4,55.3,73.2,105.9,108.7,156c6.2,8.8,12.8,2.6,19.4-2.5
			c63.7-49.6,64.9-56,21.5-121.5c-4.3-6.5-9.1-12.6-12.9-19.3c-4.7-8.5-10.8-13-21.1-12.8C1346.7,825,1310.5,824.7,1267.4,824.7z
			 M1766.4,1282.5c78.2-69.7,78.6-72.3,23.9-156.2c-2.4-3.7-5.5-7.1-7.3-11c-6-13-11.9-11.3-22.2-3.1c-69.9,55.6-70.8,59.3-22,131.5
			C1747.5,1256.9,1757.1,1269.6,1766.4,1282.5z M1670.7,1381.4c23.3-1.6,29.5-24.4,44.3-36.4c13.6-11,13.6-21.3,2.5-35.8
			c-18.7-24.4-35-50.7-51.3-76.9c-8.2-13.1-13.6-15.9-27-4.2c-56.9,49.4-57.3,48.8-12.8,110.8c6.2,8.7,10.8,18.6,16.5,27.7
			C1649.3,1376.6,1658.2,1382.4,1670.7,1381.4z M1740.6,1050.5c-1.2-2.5-2-4.6-3.2-6.4c-16.6-25.9-28.2-59.5-51.8-74.4
			c-12.2-7.7-34.5,30.1-53.7,45.7c-1.7,1.4-3,3.4-4.8,4.6c-20.7,14-21.6,29.1-5.1,48c15.4,17.6,22.5,52,41.7,53.8
			c20.4,1.8,35.8-28.7,53.5-44.8C1725.9,1069,1736.9,1062.5,1740.6,1050.5z M1557.9,1239.8c16.8-19.8,30.8-40.3,48.7-56.3
			c15.6-13.9,12.6-23.2,2.8-38.1c-46.5-70.5-45.5-70.2-103-8c-11.3,12.2-9.1,20.9-2.1,30.9
			C1519.9,1190.3,1536.5,1211.4,1557.9,1239.8z M1655.1,912.3c-12-19.1-23.8-36.5-34.1-54.7c-7.3-12.9-13.6-15.2-24.4-3.4
			c-17.3,18.7-34.9,37.3-54,54c-13.9,12.2-12.6,22.4-3.7,36.2c33.2,51.7,33,51.9,77.3,8.2c9.5-9.3,19-18.6,28.4-28.1
			C1648.2,920.9,1651.4,916.7,1655.1,912.3z M1261,911.4c-2.4,0.8-4.8,1.6-7.2,2.4c0,54.8-0.5,109.6,0.5,164.4
			c0.2,10,7.3,28.4,18.6,19.9c24.6-18.4,44.8-42.6,66.4-64.8c3.5-3.6,1.4-8.1-1.3-12C1312.3,984.7,1286.7,948,1261,911.4z
			 M1452.3,1328.1c2.1-1.4,4.7-3.3,7.4-4.9c50.1-30,54.3-49.6,20.7-96.7c-3.9-5.4-8.1-10.7-11-16.6c-9.9-19.7-19.7-18.6-33.3-2.5
			c-13.5,16-39.4,28.5-41.8,45.1c-2.7,18.9,22.1,34.8,36.8,50.7C1438.3,1310.9,1440.8,1322.9,1452.3,1328.1z M1534.9,1038.6
			c-5.2-10.5-7.1-14.4-9-18.3c-30.2-60.8-32-60-82.4-12.8c-23,21.5-27.8,36.6-6.5,62.6c26.7,32.6,24.2,34.1,54,5.7
			C1505.3,1062.4,1521,1050.4,1534.9,1038.6z M1421.1,1140.6c-14.2-19.9-24.4-43.6-42.3-56.2c-13.9-9.8-22.1,15.8-34,24.1
			c-7.2,4.9-11.9,13.4-19,18.4c-21.6,15.3-18.2,30.4-2.6,48.1c29.2,33.2,28.8,33.6,61.6,3.6c9-8.2,18-16.4,26.6-25
			C1415,1149.9,1417.7,1145.2,1421.1,1140.6z M1261.5,1371.7c2,3.6,4,7.1,6,10.7c36.1,0,72.1,0,108.2,0c4.4,0,9,0.5,13.2-0.4
			c17.2-3.6,26.2-9,12.4-28.5c-47.3-66.6-46.6-66.8-104-11.1C1286.2,1353.1,1273.5,1362,1261.5,1371.7z M1883.5,1325.9
			c-0.2,0-0.3,0-0.5,0c0-14.3,0-28.6,0-42.9c0-9.3-2.8-19.4-10.3-23.1c-10.2-5-14.6,6.9-20.2,12.9c-12,12.9-23.2,26.4-34.7,39.7
			c-16.8,19.2-6.1,58.1,18.4,66.7c30.1,10.5,47.1-1.6,47.3-33.5C1883.6,1339.1,1883.5,1332.5,1883.5,1325.9z M1881.3,1005.9
			c-2.9-2.6-5.9-5.1-8.8-7.7c-15.9,18-31.8,36-47.7,54c-4.3,4.8-10.1,8.5-4.9,16.6c18.6,28.9,36.9,58.1,55.3,87.1
			c2-0.9,4.1-1.7,6.1-2.6C1881.3,1104.2,1881.3,1055,1881.3,1005.9z M1253.6,1302.5c64.2-49,66.1-59.3,22.5-100.7
			c-3.7-3.6-9-8.9-12.8-8.3c-7,1.1-9.6,8.7-9.6,15.5C1253.4,1238.5,1253.6,1268,1253.6,1302.5z M1487.9,1372.9
			c18.4,14.3,34.4,9.3,49.2,8.8c14.6-0.4,36.1,8.4,42.2-5.9c5.2-12.2-14.5-24.9-21.4-38.3c-8.9-17.3-17.5-15-29.2-2.5
			C1516.7,1347.7,1503.1,1358.9,1487.9,1372.9z M1544.8,826.1c-30.6,0-54.1,0-82.4,0c12.5,17.4,16.9,43.5,33.9,43.2
			C1515.6,869,1526.6,844.7,1544.8,826.1z M1744,827c-28.3,0-50.5,0-74.3,0c8.1,17.6,16.2,31.6,27.6,43.5
			C1711.9,856.9,1726.1,843.6,1744,827z"/>
	</g>
</g>
</svg>
