<?xml version="1.0" encoding="utf-8"?>
<!-- Generator: Adobe Illustrator 23.0.0, SVG Export Plug-In . SVG Version: 6.00 Build 0)  -->
<svg version="1.0" xmlns="http://www.w3.org/2000/svg" xmlns:xlink="http://www.w3.org/1999/xlink" x="0px" y="0px"
	 viewBox="0 0 3000 3000" style="enable-background:new 0 0 3000 3000;" xml:space="preserve">
<style type="text/css">
	.st0{stroke:#000000;stroke-width:10;stroke-miterlimit:10;}
</style>
<g id="Layer_1">
</g>
<g id="Layer_2">
	<g>
		<path class="st0" d="M409.6,1021.1c-43.3,3.8-79.2,7.8-115.5,2c-117.3-18.8-189.8-94.8-202-213.5C65,546.1,233,306.8,491.7,244
			c124-30.1,249.5-53.7,378.1-52.6c51,0.5,101.5,6.3,150.1,23.1c23.7,8.2,49.2,15.9,66,34c25.9,27.8,44.9,21.6,73.6,2.3
			c168.1-112.9,353.5-151.3,554-124.2c96.6,13,188.6,35.3,265.3,99.3c12.9,10.8,21.3,1.3,30.7-3.7c101.2-52.5,207.1-92,320.1-108.2
			c141.9-20.3,283.8-20.2,421.4,25.6c113.2,37.6,170.4,120.6,176.3,240.3c3.3,66.2,1.9,132.4,1.4,198.6
			c-0.8,125.8-59.9,217-160.5,285.8c-28.6,19.5-59.3,35.2-93,49.3c1.4,3.5,2.2,7,4,9.7c70.6,103.6,101.1,221,114,343.3
			c10.2,97.2,18.2,194.8,8.9,293c-18.3,193.2-115.5,337.8-271.5,446.9c-27.4,19.2-56.5,36-85.3,54.2c3.2,11.4,14.5,10.9,22.3,14.6
			c114.2,54.1,192.4,140.5,222.2,263.4c29.3,120.8-15.5,219.5-105.5,301.2c-67.5,61.2-148.5,85.1-236.7,91.6
			c-122.8,9-245.6,3.8-368.3-2.6c-92-4.8-183.9-10-275.6-19.2c-9.5-0.9-18.5-1-27.6,4.5c-68.2,41.4-144.5,55.3-222.2,62.6
			c-92.6,8.7-185.6,18.6-277.6-4.8c-66.6-16.9-123.5-50.9-172.9-102.4c-31.6,75.3-99.6,86.5-169.8,92.3
			c-100.4,8.2-200.9,15.4-301.9,11.1c-83.4-3.6-163.4-24.1-239.9-55.5c-73.4-30.1-118.5-88.8-135.2-165
			c-36.9-168.2-2.3-319.9,115.2-449c13.9-15.3,17.2-23.3,1.4-40.8c-83.3-92.2-130-202.5-152.2-323.8
			c-44.8-244.7,31.1-451.4,198.7-628.8C347,1081,376.4,1053.8,409.6,1021.1z M297.1,1716.8c0,0.3,0,0.7,0,1
			c-36.5,0-73,1.4-109.4-0.5c-20.5-1.1-22,5.8-18.4,22.9c16.3,77.6,42.4,151.4,85.1,218.5c66.1,103.8,152.5,177.6,280.1,195.4
			c61.9,8.7,117.4,5.5,173.2-28.1c83-50.1,159.7-106.7,222.2-180.7c150.6-178.2,215.4-381,163.7-612.4
			c-37.1-166.1-134.7-295.5-266.4-398.9c-87.6-68.8-51-65-152.2-20.8c-223.3,97.7-388.9,256.1-482.7,484.3
			c-13,31.6-11.9,31,21.5,33.3c75.5,5.2,151.8,3.9,225.9,22.1c49.3,12.1,77.4,50.1,79.7,100c1.8,39.5-9.1,75.8-25.3,110.9
			c-15.5,33.5-42,52-79.1,52.8C375.8,1717.4,336.5,1716.8,297.1,1716.8z M2664.6,1549.2c-31.7-1.5-57.6-2.6-83.5-4
			c-71.4-3.8-127-55.8-132.7-123.9c-5.8-69.5,39-125.9,112-141.3c49.4-10.4,99.5-3.9,149.2-5.9c41-1.6,37.7,7.8,31.5-37.4
			c-9.4-68.5-26.2-135.3-53.6-199.2c-46-107.6-117.8-187.6-233.6-221.7c-47-13.9-94.9-23.2-143.1-31.3c-20.5-3.5-36.2,0.9-52.4,14.5
			c-145.4,121-243.9,271.3-288.3,456c-31.2,129.9-26,260.8-12.8,392c19.8,196.9,124.1,335.4,295.9,427.2c15.1,8,29,12,46,4.5
			c124-54.5,240.4-120.4,330.4-224.2c70.4-81.2,110.1-176.5,123.8-283c2.4-19-0.1-28.5-22.8-25.6
			C2707,1548.8,2682.8,1548.3,2664.6,1549.2z M248.3,447c13.2,0.6,20.6,1.3,28,1.3c154.6,0.1,309.1,0.3,463.7-0.3
			c18.3-0.1,27.4,2.3,27.4,24.3c0,21.2-7.4,24.8-26.6,24.7c-151.7-0.7-303.4-0.4-455-0.4c-78.8,0-78.8,0-108.4,73.1
			c-12.3,30.4-12.3,30.2,22,30.6c147.8,1.5,295.6,3.1,443.5,4.6c15.5,0.2,29.8-2.8,29.6,22.3c-0.2,23.6-10.1,25.7-29.4,25.4
			c-142-2.1-284.1-3.3-426.2-4.7c-74.1-0.8-73.2-0.7-78.7,74.4c-1.8,24.4,5.9,30.5,29.5,30.9c142,2,284.1,5.4,426.1,8.7
			c15.4,0.4,33.5-3.9,32.9,23.3c-0.5,21.9-8,27-29.1,26.4c-144.9-3.9-289.8-6.6-434.7-9.3c-9.1-0.2-24.1-9-21.7,14
			C148.8,890.4,200,952,273,969.9c86,21,171.6,7.3,245.6-33.1c135.2-73.9,277.6-125,425.2-164.3c48-12.8,96.7-23.4,145.7-31.8
			c28.4-4.9,26.4-27.3,26.5-43.3c0.1-19.3-18.9-7.7-28.9-7.8c-29.7-0.2-59.4,3.2-89.1,2.6c-60.4-1.3-109-47-111.4-103.1
			c-2.8-64.3,37.9-113.8,101.3-121.5c40-4.9,80.1-8.8,120.3-11c18.3-1,22.3-7.5,20.9-24.7c-8.6-107.7-61.4-164.2-168.4-183.4
			c-77.6-13.9-154.7-10.7-231.9,0.5C630,263.2,531,276.8,436.8,311.7C363.7,338.8,299.6,379.1,248.3,447z M2848.4,271.5
			c-34.2-58-85.2-82.8-140.7-95.7c-234.4-54.1-458.8-24.2-672.3,86.9c-12.1,6.3-15.2,12-6.9,23.9c10.5,15.1,16.1,32.7,20.5,50.4
			c4.8,19.2,2.2,46,14.1,56c12.4,10.4,38.3,4.2,58.3,5.8c63.4,5.4,88.3,27.6,94.2,83.1c7.1,68.1-29.2,108.3-96.7,107.2
			c-14.4-0.2-28.8,0.4-43.2-0.5c-13.7-0.9-19.4,4.6-18.5,18.1c2,30.9-3.6,61.2-8,91.5c-2.3,15.7,3.9,16.9,16.6,17.5
			c88.1,4.4,176.3,9.6,263.6,22.9c111.2,16.9,218.3,44.8,302.1,127c9.9,9.7,18.2,6.2,28.4,2c51.1-21.1,97.6-49.5,137.1-88.2
			c50.6-49.6,78.8-109.9,83.5-181.2c1.3-19.3-3-26.8-24.5-26c-120.8,4.1-241.7,6.6-362.6,9.8c-13.6,0.4-29.1,6.9-28.9-18
			c0.1-20,1.4-31.2,26.7-31.5c113.2-1.2,226.4-4.9,339.6-7c51.8-0.9,50.3-0.2,51.9-51.9c0.7-24.9-7.8-29.7-30.9-29.3
			c-136.3,1.9-272.6,1.8-408.8,3.4c-20.2,0.2-26.2-5.8-26.5-25.9c-0.3-20,7.4-23.7,25.2-23.5c63.3,0.8,126.7,0.3,190,0.1
			c73.9-0.2,147.8-1.7,221.7-0.5c24.9,0.4,30.1-8.8,24.8-30.2c-1.4-5.6-3-11.4-2.8-17c1.3-26.6-11.4-32.8-36.8-32.6
			c-162.2,1.1-324.4,0.4-486.6,0.8c-18.2,0-30.2-0.2-29.9-25c0.2-24.3,12.9-22.7,29.1-22.6c147.8,0.2,295.6,0.1,443.4,0.1
			C2810.9,271.5,2827,271.5,2848.4,271.5z M1841.7,703.4c0,3,0,5.9,0,8.9c43.1,0,86.4-2,129.3,0.8c23,1.5,29.3-5.8,31.9-26.8
			c12.5-99.5,10.6-199.2,6-298.8c-2.3-50.7-22.9-94.7-63.2-127.7c-30.8-25.2-65.4-44.2-103.3-55.5c-236.6-70.8-460.1-46.1-668,92.6
			c-18.2,12.1-28.3,22.5-16.1,45.4c7,13.1,9.1,29.2,11.5,44.2c17.1,107,19.8,213.8-5.7,319.9c-4.6,19.3,1.4,23.4,19.4,20.5
			c71.1-11.4,142.9-16.6,214.7-20.4c20.1-1.1,22.5-8,20.4-26c-4.7-40.9,4.5-80.1,21.8-117.3c18-38.8,48.6-61.3,91.1-65.9
			c38.1-4.1,74.5,3.8,109,20c27.9,13.1,41.9,35.1,41.8,66.2c-0.1,28.8,1.8,57.7,0,86.3c-1.6,25.2,5,35.9,32.7,34.4
			C1757.3,701.6,1799.5,703.4,1841.7,703.4z M1735.8,2662.3c13.1,2.2,20.5,4.2,28.1,4.7c181.9,13.2,363.9,25.2,546.5,18.5
			c42.2-1.6,84.3-6,125.3-16.9c65.1-17.2,114.8-56.6,158.3-108.3c-13.4-7.8-24.1-4.9-34.3-4.9c-119.1-0.2-238.1-0.4-357.2,0.1
			c-17.9,0.1-28-1.8-28-24.2c-0.1-22,9-24.4,27.4-24.3c122.9,0.7,245.8,0.3,368.7,0.3c66,0,68.4-2.1,78.1-67.9
			c0.8-5.7,0.4-11.6,1.4-17.2c4.2-22.9-2.9-31.1-28.2-30.8c-135.4,1.4-270.8,0.3-406.1,1c-17.9,0.1-23.6-5.2-22.6-22.8
			c0.9-15.3-0.6-28.2,21.8-27.5c42.2,1.4,84.5,0.4,126.7,0.4c91.2,0,182.4,0.2,273.6-0.3c8.1,0,20.8,6.1,23.4-8.6
			c4.9-27.7-30.9-68.3-59.6-68.3c-125.8,0-251.6-0.3-377.3,0.4c-18.6,0.1-27.2-2.7-27.3-24.4c-0.1-23.1,11.3-23.6,28.5-23.5
			c113.3,0.4,226.6,0.3,339.9,0c9,0,18.8,3.3,27.4-3.1c-29.3-47.5-127.5-110.2-182.4-116.3c-6.4-0.7-13.9-0.2-19.5,2.5
			c-114.2,56.1-238.5,61.3-361.6,72.3c-64,5.7-128.2,9.7-192.4,13.5c-19.8,1.2-29.9,5.2-24.8,28.7c4.2,19.5,4.1,40.2,3.3,60.2
			c-1,24,5.8,34.4,32.4,32.4c33.5-2.6,67,3.4,99.7,11.6c50.7,12.7,82.2,48.8,82.3,93.7c0,44.8-31.1,81.4-81.4,94.9
			c-40.1,10.8-80.1,5.9-119.4-3.6c-15.3-3.7-19.6-1.9-20.8,14.7C1782.1,2569.6,1773,2618.5,1735.8,2662.3z M1002.4,2476.9
			c-0.4,27.1,1.5,69.2,5.7,111.3c0.9,8.8,1.9,16.6,7.9,23.8c46.6,56.3,103.6,96.5,175.3,114.1c85.6,21,171.8,10.7,257.7,2.8
			c65.1-6,129.3-17.1,188.3-47.9c49.3-25.8,86.3-63.4,94.4-119.6c16.9-117.1,20.2-235,9.1-353.1c-1.4-14.5-7.2-17.2-20.1-16.2
			c-38.3,2.9-76.6,6.6-114.9,6.6c-29.3,0-43.5,9.1-40.3,40.3c1.1,11.1-2.7,22.8-5.1,34c-12.9,60.2-52.3,94.9-113.4,100.4
			c-35.7,3.2-70.9-1.8-106.1-6c-31.6-3.7-54.7-21-70-49.2c-13.9-25.5-24.3-52.1-28-81c-1.6-12.6-5-20.7-21.1-20.3
			c-60.4,1.7-120.9,2.2-181.4,2.2c-14.7,0-19,5.2-21.4,19.4C1006,2312.3,999.7,2386.7,1002.4,2476.9z M2200.7,2107.7
			c-5.5-8.6-6.1-10.7-7.5-11.6c-86.8-52.7-158.3-120.9-209.7-209c-5.8-10-13.4-11.8-23.9-11.3c-40.2,2-80.5,3.3-120.8,5
			c-266.5,11.2-533,22.5-799.5,33.2c-17,0.7-28,6.2-38.2,19.8c-66.5,88.5-147.8,160.8-242.9,217.5c-6,3.6-11.7,7.7-17.5,11.6
			C1228.5,2182,1712.2,2150.1,2200.7,2107.7z M813.4,861.9c61.1,45.2,117.9,92.4,164.5,150.1c14.3,17.7,29.2,23,51.5,22.1
			c160-7.1,320-12.8,480.1-19.1c162.9-6.4,325.8-13.1,488.7-19.1c18.9-0.7,31.3-6.6,41.6-23.6c28.9-47.7,64.3-90.6,102.2-131.5
			c20.7-22.3,39.8-46.1,57.9-67.2c3.6,0.5,0.2-0.1-3.1-0.4c-119.5-10.3-239.3-14-359.1-18.4c-229.3-8.5-458.3-10-686.2,24.2
			C1036.9,796.1,924.6,821.8,813.4,861.9z M228.9,2253.5c113.8,0,222.2,0.2,330.7-0.2c16.2-0.1,26.8,0.7,26.5,22.3
			c-0.3,20.4-6.7,25.9-26.5,25.7c-96-0.9-192-0.4-288-0.4c-68.4,0-67.4,0.1-76.7,69.3c-3.2,23.5,4.3,27,25.3,26.9
			c112.3-0.9,224.7-0.3,337-0.6c16.7-0.1,28.5-0.5,29.1,23.1c0.5,25.2-12,24.8-30,24.7c-111.4-0.4-222.8,1-334.1-1
			c-30.3-0.5-36.4,10.5-31.2,36.1c1,4.7,2,9.5,1.9,14.2c-0.5,28.9,12.2,37.8,41.8,37.2c108.5-2,217-0.3,325.5-1.3
			c20.6-0.2,25.4,6.4,25.8,26.1c0.4,22.4-11.6,21.9-27.2,21.8c-106.6-0.2-213.2,0.3-319.7-0.4c-20.9-0.1-23.7,5.6-12.8,22.2
			c21.5,32.9,47.6,60.2,85.1,74.6c90.4,34.6,183.2,55.9,280.7,52.4c100.6-3.6,201.7-1.5,300.9-22.8c49.6-10.7,69-37.9,67.7-88.4
			c-0.6-23-4.2-46-3.8-68.9c0.3-17.6-4.7-19.4-21.3-16.6c-63.4,10.7-124.6,7.3-176.5-37.7c-65.1-56.5-50.7-156.6,27.7-192.7
			c41.6-19.2,85.2-20.6,129.8-16.1c14.8,1.5,33.9,14.5,42.5,5.4c9.4-10,6.4-30.9,11-46.4c5.3-17.8,1.2-23.5-18-23
			c-93.1,2.5-186.3-0.6-279.2-5.9c-117.6-6.7-237.3-8.1-334.9-90.1c-6.9-5.8-12.5-7.1-19.5,0.3
			C282.8,2161,250.6,2200.8,228.9,2253.5z M1991.1,1043.7c-317,12.7-634.6,25.4-952.5,38.1c0.8,13.5,8.2,20.3,13.1,28.2
			c39.3,64.2,71.1,131.8,87.1,205.5c4.9,22.6,13,28.9,35.4,28.4c236-5,472-9.4,708-12.7c22.6-0.3,26.8-10.7,29.6-28.4
			c13.1-81.9,37.5-160.3,73.5-235.2C1988.5,1061.2,1994.7,1055.1,1991.1,1043.7z M1048.4,1866.4c76.5-3.6,147.3-7.2,218.2-10.1
			c212.8-8.8,425.7-17,638.6-26c45.1-1.9,45-2.9,31.5-44.7c-2.4-7.3-4.2-14.8-6.3-22.1c-16.5-55.6-22.9-112.7-25.7-170.3
			c-0.7-14.3-2.4-24.8-22.8-23.5c-231.7,14.2-463.5,27.7-695.3,40.3c-28.4,1.5-42.9,8.4-49.1,40.1
			C1122.4,1725.7,1089.3,1795.2,1048.4,1866.4z M1535.4,1386.8c-196.2,4.1-334.7,6.6-355.7,5.2c-3.1-0.2-13.9-1.2-20,5.5
			c-3.8,4.1-4.7,10.9-3.8,21.3c2.8,31.4,2.6,63.2,2.1,94.9c-0.8,50.4-1.3,51.1,49.2,48.2c225-13,450.1-26.6,675.1-39.3
			c16.8-1,18.6-8.7,17.4-21.8c-2.9-32.6-2.2-65.3,1.4-97.7c1.1-9.9,0.1-16-3.4-19.8c-6.3-6.9-18-5.7-21.6-5.4
			C1854.5,1379.6,1722,1382.7,1535.4,1386.8z M296.4,1668.8c0-0.1,0-0.2,0-0.3c27.8,0,55.6,0,83.4,0c61.8-0.1,71-7.2,86.7-67.3
			c1.5-5.6,2.8-11.2,3.9-16.8c9.8-52.6-12.3-83.9-65-90.6c-71.4-9.1-143.2-12-215-16.2c-17.5-1-23,5.4-25.5,21.7
			c-7.4,47.6-10.1,95.2-8.6,143.3c0.6,20.1,8.9,26.7,27.9,26.3C221.6,1668.3,259,1668.8,296.4,1668.8z M2661.6,1321.2
			c0-0.3,0-0.6-0.1-1c-29.7,2-59.6,2.3-88.9,6.4c-43.9,6.1-76.8,41.5-77.4,79.9c-0.6,43.3,29.9,80.6,75,88.3
			c56.7,9.7,113.9,4.8,170.9,3.4c13.4-0.3,18.6-6.4,17.9-19.8c-2.6-46-4.8-92-6.9-138c-0.6-14.2-6.4-20.3-21.4-19.6
			C2707.7,1322,2684.6,1321.2,2661.6,1321.2z M952.5,2410.5c0.3,0,0.5,0,0.8,0c0.9-17.2,1.4-34.5,2.8-51.7
			c0.9-10.9-1.5-17.3-13.5-20.8c-44.6-12.9-88.4-13.6-132.4,2.7c-56.7,21-55.3,91-14.6,119.3c33.8,23.4,70.1,27.4,109.2,24.4
			c47.1-3.7,47.2-3.1,47.6-48.1C952.6,2427.8,952.5,2419.1,952.5,2410.5z M1053.9,642.4c19.2-0.8,38.3-1.9,57.5-2.5
			c10.9-0.3,17.2-3.5,18.9-16.1c4.7-35.4,5.3-70.8,4.4-106.3c-0.2-8.3-1.4-16-12.5-14.6c-48.4,6.5-98,3.2-145.4,16.9
			c-26.6,7.7-43.9,34.8-43.3,61.4c0.6,28.2,20.3,51.7,48.9,60.1C1006.3,648.5,1030.1,643.2,1053.9,642.4z M1552.4,703
			c0-0.7,0-1.5,0-2.2c19.9,0,40-1.7,59.6,0.4c22.4,2.4,25.3-8.1,24-26.5c-1.5-21.9-0.7-44-0.9-66c-0.4-45-4.2-50.2-47.9-59.7
			c-13.9-3-28.4-5.2-42.6-5.2c-20.9,0.1-39.9,6.7-51.8,25.4c-23.1,36.1-30.3,75.7-24.8,118.1c1.6,12,6.5,16.2,18.4,15.8
			C1508.4,702.5,1530.4,703,1552.4,703z M1406.9,2324.8c68.1,3.1,92.8-10.2,105.4-58.7c3.8-14.7,4-30.3,6-45.5
			c1.7-13.4-5-16.1-17-15.5c-64.1,3.2-128.2,6.5-192.4,8.3c-18.1,0.5-20.3,7.8-18,23c9,60.5,33,83.2,93.1,87
			C1391.6,2323.8,1399.2,2324.3,1406.9,2324.8z M1792.8,2409.4c3.6,13.1-10.4,36.8,6.5,42.6c43.3,14.7,89,25.4,133.4,1.3
			c16.8-9.1,29.4-22.4,25.9-43.6c-3.4-20.5-15.3-34.8-35.9-40.3c-24.9-6.6-50-11.7-76-12.2
			C1783.1,2355.7,1796.9,2352.5,1792.8,2409.4z M2060.7,490.9c1.9,49.3,1.9,49.3,51.3,50.8c7.7,0.2,15.3,0,23,0.6
			c13.5,1,20.8-5.5,26.1-17.6c18.9-43.6,4-70.5-43.3-76.7C2058.7,440.1,2058.7,440.1,2060.7,490.9z"/>
	</g>
</g>
</svg>
