<?xml version="1.0" encoding="utf-8"?>
<!-- Generator: Adobe Illustrator 23.0.0, SVG Export Plug-In . SVG Version: 6.00 Build 0)  -->
<svg version="1.0" xmlns="http://www.w3.org/2000/svg" xmlns:xlink="http://www.w3.org/1999/xlink" x="0px" y="0px"
	 viewBox="0 0 3000 3000" style="enable-background:new 0 0 3000 3000;" xml:space="preserve">
<style type="text/css">
	.st0{stroke:#000000;stroke-width:10;stroke-miterlimit:10;}
</style>
<g id="Layer_1">
</g>
<g id="Layer_2">
	<g>
		<path class="st0" d="M1730.7,1939.8c34.8-27,74.2-37.6,117.1-29.8c80,14.7,127.9,89.4,110.2,171.7c-2.8,13-2.9,16.8,12.3,19
			c85.4,12.7,134.3,93.7,106,175.3c-4.4,12.8-2.3,18.6,8.1,26.9c70.6,55.6,67.9,159-5.5,211.8c-10.3,7.4-12.1,12.6-8.3,24.7
			c24.6,78.1-16.4,150.1-96.8,170.5c-10.3,2.6-13.9,6.2-14.4,17.5c-4.2,90.1-73.2,145-161.4,128.1c-11.9-2.3-16-0.5-20.6,10.6
			c-36.5,88.6-138.2,112.5-212,49.4c-8.2-7-11.3-3.7-15.7,1.1c-52.8,57.7-167.7,53.1-211.1-37.9c-5.5-11.5-11.2-10.4-20.7-8
			c-88.3,22.4-160.8-28.5-169.6-119.5c-1.1-11.3-4.6-14.1-15.5-15.6c-92.9-12.8-142.6-101-105.3-186.8c4.6-10.6,4.3-15.7-5.4-23.4
			c-68.3-53.8-71.5-146.1-7.2-205c8.5-7.8,8.5-12.2,3.4-21.7c-44.1-83.1-5.3-171.8,85.3-195.2c11.9-3.1,15.5-7.2,13.1-19.5
			c-17.5-89.7,66.5-174.4,161.9-149c23.1,6.2,23.4-7.3,27.6-23c-33.8-1.7-66.3-2.7-98.7-5.2c-74.9-5.8-133.1-45.6-181.8-98
			c-100.7-108.5-143.7-239.6-139.7-386.6c0.8-28.3,6.2-56.2,23.5-79.9c5.2-7.2,4.1-13,1-20.4c-35.8-85.6-43-173.2-17.2-262.7
			c3-10.3-2.4-18.8-2.8-28.3c-3-63.9-1-127.5,15.7-189.7c3.8-14.3,2.6-24.4-8.1-35.9c-19.8-21.2-29.7-48.1-31.8-76.8
			c-7.8-105.3-8.6-211.2,9.7-314.9c20.3-114.7,97-191.2,192.8-251.8c114.6-72.5,240.9-101.5,374.3-103.9c91.1-1.6,182.1-8.4,273.5-2
			c204.4,14.2,397.9,172.3,445.1,366c11.5,47.3,12.1,95.7,14,143.6c2.6,62.8,9.9,125.9-2.4,188.6c-1,5.1-1.3,10.8-3.9,15
			c-29.7,47-14.5,97.6-12.1,147c1.7,33.3,6.2,66.4,8.7,99.6c1.6,21.4-3.1,42.1-18.2,57.8c-11.8,12.2-10.8,22.9-5.1,37.5
			c21.5,55.6,19.5,111.7-2,166.8c-5.2,13.2-6.3,24.7-2.5,38.1c28.8,100.9,31.4,203.1,14.9,306.2c-11.1,69.2-45.2,125.8-99.7,168.2
			c-88.3,68.7-190.3,104-301.4,113C1718.3,1906.5,1718.2,1905.2,1730.7,1939.8z M1144,186.5c-27.8,10-52.2,24.9-75.6,41.4
			c-70,49.5-125.8,111.7-139.6,198.5c-15.1,95.3-14.8,192.1-9.5,288.5c2.8,51.7,34.6,81,83,94.9c40.8,11.7,82.1,10.2,123.6,8
			c34.1-1.8,33.7-1.1,40,33.1c2,11,0.2,15.4-11.9,17.5c-61,10.2-121.2,8.3-180.3-10.4c-10.5-3.3-15.3-3.6-18,9.1
			c-11.3,53.4-14.4,107.3-10,161.5c2.3,27.9,14,37.6,42,43.5c40.2,8.5,80.9,9.3,121.7,8.3c35.1-0.8,34.6-0.9,39.1,34
			c1.7,13.3-1.6,19-15.6,19.4c-62.3,1.9-124.6,4.2-184.8-16.2c-8.5-2.9-11.7-1.5-12.8,8c-6.8,58.7,1.3,115.2,23.5,169.9
			c3,7.3,6.4,11.9,15.9,12.3c71.6,2.9,140.3,21.7,209.1,39.6c35.1,9.1,33.9,9.4,24,44.7c-4.3,15.5-10.2,16.8-24.1,12.4
			c-58-18.2-117.3-31.1-177.5-39.8c-47-6.8-56.8,0.8-64.8,47.7c-0.9,5.1-1.3,10.3-1.4,15.5c-1.8,119.7,30.7,228.8,106.4,322.2
			c44.2,54.6,97.7,98.3,172.3,103.1c46.6,3,93.4,3,140.1,3.9c7.2,0.1,14.8-1.9,21.7-4.1c25.6-8.2,50.5-6,76.6-0.8
			c31.8,6.4,63.9,8.4,95.2-7.1c32.8-16.1,66.8-17,100.8-0.9c9,4.3,18.4,8.7,29.4,8.7c94.2,0.4,184-18.7,268.4-60.8
			c86.2-43,146.1-105.6,152-207.7c1.7-29.6,6.2-59.1,6-88.7c-0.4-47.6-4.2-95.1-18.5-143.1c-52.3,44.2-111.9,61.4-176.2,65.2
			c-41.8,2.5-41.2,2.3-40-38.2c0.4-13.3,3.1-18.2,17.5-16.9c24.5,2.2,48.9-1.2,72.8-6.6c105.9-23.9,162.2-117.2,131.3-216.5
			c-4.7-15-9.6-21.2-27.9-16c-66.7,18.9-135,27.4-204.5,24.8c-39.1-1.4-38.5-1.4-34.7-39.5c1.2-12,4.3-16.5,17.1-15.7
			c21.4,1.3,43.1,1.5,64.5,0.4c57.2-3,113.8-9.9,167.5-31.2c17.8-7.1,34.3-18.6,33-40.3c-3.1-51.8-8.2-103.5-12.3-155.2
			c-0.6-7.4-2.9-10.8-11.1-7.6c-71.2,28-143.4,23.4-216.5,5.5c3.2-13.7,6.1-27.4,9.6-40.8c1.7-6.6,3.1-9.6,13.3-8
			c40.2,6.4,80.6,11.2,121.6,6.4c72.3-8.4,106.5-43.4,108.7-115.5c2.5-80.9-2.6-161.7-10.2-242.2c-3.4-36-14.9-70.4-32.2-103
			c-7.2,6.5-8.1,15-11.1,22.5c-35.4,87.9-84.7,166.6-155.7,230.1C1793,723.6,1649.2,783.6,1486.4,794
			c-109.8,7-211.6-18.5-290.3-101.9c-83.6-88.6-106.7-197.3-98.3-315C1102.5,311.5,1120,248.9,1144,186.5z M1232.1,2394.7
			c-2.2,180.8,157,315.5,330.2,305.1c167.7-10.1,301.2-155.9,293.2-314.5c-8.9-175.4-164.4-311.8-343.7-293.9
			C1338.4,2108.7,1229.6,2254,1232.1,2394.7z M1932.5,516.5c-0.3-8.1-6.4-8.8-10.5-11.1c-19.9-11.2-39.7-23-60.2-33
			c-19.1-9.3-36.7-29.4-56.7-27.3c-20.1,2.2-32.5,26.1-49.8,38.7c-1.2,0.9-2.1,2.1-3.4,2.9c-11.1,7.3-8.9,12.4,1.9,18.3
			c26.6,14.5,52.8,29.6,78.9,44.9c46.3,27,46.3,27.1,83.1-13.8C1921.8,529.5,1927.4,522.6,1932.5,516.5z M1788.2,241.1
			c34.2,15.1,65.4,28.6,96.2,42.7c7.5,3.4,12.9,4.3,19.6-1.9c19.1-17.5,38.6-34.4,58.5-51c8.8-7.3,8.3-12.1-1-18.3
			c-21.4-14.4-42.6-29.3-63.6-44.3c-8.5-6-15.6-5.9-23.7,1C1846.8,192.7,1818.9,215.6,1788.2,241.1z M1444.1,682.8
			c-1.3-2-1.8-3.8-2.9-4.4c-25.8-14.4-52.7-27.1-77.1-43.5c-22.3-14.9-37.5-13.9-58.8,4.7c-51.1,44.6-51.8,43.6,11.9,73.1
			c41.1,19,78.9,28.6,110.6-15.4C1431.9,691.6,1438.6,687.6,1444.1,682.8z M1823.4,1988.6c-34.4-0.7-61.1,25.1-61.2,59.2
			c-0.2,32.8,25.6,59.7,58.1,60.6c32.6,0.9,61.6-27.1,61.8-59.8C1882.4,2015.9,1856.2,1989.2,1823.4,1988.6z M1637.1,173.6
			c30.3,13.6,57,25.9,84,37.7c4.4,1.9,9.6,5.9,14.5,1.9c30.4-24.9,60.6-50.1,92.9-76.8c-38.5-16.2-75.1-20.5-111.5-25.2
			c-5.5-0.7-10,1-14.1,4.7C1681.9,134.3,1660.9,152.7,1637.1,173.6z M1647,581.2c41,21.9,81.9,43.6,122.7,65.6
			c5.6,3,10,0.6,14.4-2.2c12.5-7.9,24.9-16,37.4-23.9c9.3-5.9,8.1-10.3-1-15.4c-24.6-13.6-48.8-27.8-73.3-41.4
			c-52.5-29.1-52.6-29-96.5,11.6C1649.5,576.5,1649,578,1647,581.2z M1688,466.8c12-4.1,19.4-13.8,28.2-21.2
			c38.2-32.4,38-32.6-5.4-55.7c-2.6-1.4-5.3-2.6-7.8-4.1c-55.9-31-55.6-30.7-103.3,11.1c-10.6,9.3-12.8,13.5,1.6,20.9
			c25.6,13.2,50.1,28.2,75.2,42.5C1680.1,462.4,1684,464.5,1688,466.8z M1379.8,581.8c20.3,11.1,39.5,21.8,58.9,32.3
			c53.9,29.1,53.9,29,98.9-12.5c0.5-0.5,1.1-1,1.7-1.4c8.6-6.3,7.7-11.1-1.8-15.7c-13.2-6.5-26.1-13.8-39.2-20.5
			c-20.3-10.2-40.6-32.4-60.4-28.4c-20.5,4.1-37.3,27-55.6,41.7C1381.7,577.8,1381.5,578.6,1379.8,581.8z M1849.1,402.6
			c23.7,13,45.6,24.9,67.5,36.9c55.8,30.6,55.8,30.6,82.5-28.1c0.3-0.7,0.5-1.4,0.9-2c5.4-7.9,3.8-12.9-5.4-16.9
			c-26.5-11.3-52.7-23.2-79-35.1c-6.8-3.1-12.5-3-18.3,2.2C1882,373.6,1866.5,387.2,1849.1,402.6z M1543.8,671.4
			c25.3,13.9,49.2,26.9,73.1,40c4,2.2,7.9,3.2,12.6,1.7c27.7-9,55.5-17.8,84.8-33.3c-19.1-10.4-34.7-19.7-51-27.8
			c-20.9-10.5-41.9-33-62.5-28.6c-20.3,4.3-36.5,28.2-54.4,43.5C1545.8,667.4,1545.6,668.2,1543.8,671.4z M1592.7,551.4
			c2.8-2,6-3.8,8.7-6.1c11.8-10.1,23.1-20.7,35.2-30.4c8.8-7.1,6.3-11.2-2.1-15.8c-16.2-8.8-32.1-18.2-48.2-27.2
			c-48.4-27.1-48.2-26.8-90.1,10.6c-9.8,8.7-11.3,12.8,1.8,19.3c27.7,13.8,54.7,29,82.1,43.5
			C1583.9,547.4,1587.9,549.1,1592.7,551.4z M2054.8,2406.1c-0.4-27.1-22.9-50.1-49.1-50.2c-29.8-0.2-53.1,22-53.3,50.8
			c-0.2,28.7,23.4,51.8,52.6,51.4C2032.6,2457.6,2055.2,2434.1,2054.8,2406.1z M1146.7,2553.9c-28.1,0-50.8,22.5-51.1,50.6
			c-0.3,28,22.1,51.1,50.1,51.7c28.9,0.6,52.6-22.9,52.3-51.8C1197.6,2576.4,1174.8,2553.9,1146.7,2553.9z M2003.6,2231.2
			c0-28.3-22.1-50.9-50.2-51.2c-28.9-0.3-52.5,23.3-52,52.1c0.5,26.9,23,49.8,49.4,50.2C1980.3,2282.7,2003.6,2260.2,2003.6,2231.2z
			 M1407.2,2822.3c-0.1,28.5,21.7,51.2,49.6,51.7c28.6,0.5,52.8-23.5,52.4-51.9c-0.4-27.8-23.3-50.1-51.5-50.1
			C1428.7,2771.9,1407.3,2793.2,1407.2,2822.3z M1297.1,2063.5c0.5-28-21.7-51.6-49.3-52.4c-28.6-0.9-53.1,22.8-53.1,51.4
			c0,27.9,22.7,50.4,51,50.7C1274.6,2113.4,1296.6,2092.2,1297.1,2063.5z M1654.2,2869.9c29,0.1,50.8-21.1,51.1-49.8
			c0.3-28.3-21.6-51.3-49.6-52.1c-28.7-0.7-52.9,22.9-52.7,51.6C1603.3,2847.5,1625.9,2869.8,1654.2,2869.9z M1100.4,2471
			c28.7,0.1,51.5-21.6,52.2-49.5c0.7-28.3-23.8-52.9-52-52.4c-28.6,0.6-50.5,22.7-50.5,51.1C1050.2,2449.2,1071.8,2471,1100.4,2471z
			 M1132.5,2283.1c28-0.3,51.1-23.5,50.9-51c-0.3-27.1-24.2-51.3-51.1-51.4c-28.6-0.2-52.1,23.9-51.4,52.8
			C1081.6,2262.1,1103.7,2283.4,1132.5,2283.1z M1944.5,2530.8c-28.1,0.5-49.9,23.4-49.4,51.9c0.5,27.8,23.9,50.7,51.5,50.4
			c27.2-0.3,51-24.3,51-51.3C1997.6,2553,1973.9,2530.3,1944.5,2530.8z M1879,2728.6c0.4-29.3-20.3-50.8-49.3-51.3
			c-30.3-0.5-52.9,21.2-52.8,50.5c0.1,28.5,21.8,49.8,51,50C1857.1,2778.1,1878.6,2757.5,1879,2728.6z M1278.5,2694.6
			c-29,0.2-49.5,21.2-49.3,50.8c0.1,29.5,20.7,50.1,50,50c28.3-0.1,51.3-22,51.7-49.6C1331.4,2717.8,1307.5,2694.5,1278.5,2694.6z
			 M1349.9,192.2c-30.2-16.6-58.4-32.5-86.9-47.7c-16.4-8.7-29.8-4.1-39.3,11.6c-4.6,7.6-8.1,15.8-12.9,23.2c-6,9.2-2.8,14.2,6,19
			c21.3,11.6,42.4,23.7,63.3,36.1c7.1,4.2,12.8,5.7,19.7-0.3C1315.8,220.1,1332.3,206.8,1349.9,192.2z M1558.5,1964.2
			c0.4,27.8,20.9,48.5,47.1,47.7c24.7-0.8,44.7-22.5,44.7-48.6c0-26.6-21.6-49.3-46.8-49.1C1578,1914.3,1558.1,1936.4,1558.5,1964.2
			z M1465,1976.6c-0.1-27.4-20.9-49-46.7-48.5c-25.7,0.5-46.5,23.3-45.8,49.9c0.8,26.2,21.2,47.3,46.1,47.5
			C1444.5,2025.8,1465.1,2004,1465,1976.6z M1850,328.5c-35.6-15.7-68.4-30.2-101.1-44.8c-5.2-2.3-9.5-2.7-14.1,1.3
			c-12.5,10.8-25.1,21.4-39.3,33.5c32.9,18.1,63.2,34.6,93.3,51.5c6.1,3.4,10.7,3,15.9-1.7C1818.8,355.6,1833.2,343.2,1850,328.5z
			 M1514.2,282.8c-9.5,8-19.7,16.2-29.4,25c-28.9,25.9-28.9,26,4.8,45.9c44.2,26.1,44.2,26.1,83.3-5.3c25.6-20.5,25.6-20.5-4-36.5
			c-13.6-7.4-27.1-15-40.7-22.4C1524.3,287.3,1520.2,285.6,1514.2,282.8z M1354.7,424.8c9.9,5.3,18.3,9.9,26.9,14.3
			c51.4,26.8,51.4,26.8,94.6-10.8c1.1-1,2.2-2,3.4-2.8c9.1-6.4,6.5-10.4-1.7-15.9c-62.9-42.1-65.3-42-120.1,10.1
			C1356.8,420.7,1356.3,422.2,1354.7,424.8z M1252.4,512.5c23.1,12.4,43.3,22.9,63.2,34.1c6.4,3.6,11.2,5.4,17.7-0.2
			c16.5-14.2,33.5-27.7,51.9-42.8c-23.7-12.9-45.1-24.3-66.3-36.1c-6.5-3.6-11.7-4-17.7,1.6C1286.1,483.1,1270.5,496.5,1252.4,512.5
			z M1360.7,343.4c-19-10.9-36.2-20.8-53.3-30.7c-5.3-3-10.9-5.6-16.1-0.5c-17.3,16.7-39.5,27.9-53.7,48
			c16,13.2,35.7,19.8,53.1,30.6c0.6,0.4,1.4,0.6,2,1c5.7,4.2,10.7,3.2,15.8-1.4C1325.3,375,1342.3,359.9,1360.7,343.4z M1151,440
			c0.2,17.4,2.9,19.7,37.2,37.9c8.9,4.7,14.7,5.3,23.1-1.8c48.6-41.1,48.8-40.8-7.4-69.9C1184.3,395.9,1150.7,417.4,1151,440z
			 M1345.3,268.4c53,42.6,53.8,42.7,101.5-0.7c4.6-4.2,11.5-6.7,13.2-13.8c-54.7-38.1-54.7-38.2-103.3,4.1
			C1352.7,261.4,1349.1,264.9,1345.3,268.4z M1684.8,254.9c-24.4-10.8-47.9-18-68-30.8c-22-14-34.6-3.7-49.2,10.1
			c-7.5,7.1-7.8,10.7,1.8,15.6c21.6,11.1,42.8,22.9,63.9,34.8c6.7,3.8,12,4.1,17.9-1.1C1661.6,274.4,1672.3,265.6,1684.8,254.9z
			 M1223.1,637.5c16.4-13.5,31.6-26.3,47.3-38.7c8.7-6.9,7-11-1.9-15.6c-13.8-7-28.4-13.3-40.6-22.5c-16.9-12.7-27.2-5-39,7.1
			c-10,10.3-1.8,17.9,2.5,25.5C1200.2,609,1207.6,626,1223.1,637.5z M1951.1,313.4c23.7,10.5,43.7,19.5,63.8,28.4
			c5.3,2.3,9.6,5.8,14.5-2.2c16.1-26.1,13.4-48.4-8.5-70.5c-6.6-6.7-11.2-7.6-18.1-1.4C1986.4,282.5,1969.8,296.9,1951.1,313.4z
			 M1245.5,278.7c-63.6-42.8-69.3-40.6-82,28.9c-0.1,0.7-0.3,1.4-0.5,2.2c-1.7,7.1-1,12.7,6.7,16.4c7.1,3.5,12.6,5.3,19.7-1
			C1207,309.7,1225.5,295.2,1245.5,278.7z M1524.3,120.6c46.6,33.4,64.2,31.6,97.6-9.9C1583.9,104.5,1537.9,109.1,1524.3,120.6z
			 M1450.9,182.8c63.8,39.2,54.6,37.9,82.4,4.5c-12.4-5.4-25.6-9.1-36.5-16.2C1476.2,157.8,1462.7,165.1,1450.9,182.8z
			 M1339.1,123.2c19.5,10.8,34.9,20,51,27.8c11.5,5.6,18.8-5,22.3-12c4.3-8.8-7.7-7.8-12.3-10.7
			C1382.5,117.5,1363.7,115.9,1339.1,123.2z M1538.7,733.2c-44.1-29.3-46.7-29.1-71,7.1C1491.2,739,1513.6,739.3,1538.7,733.2z"/>
		<path class="st0" d="M1499.8,1004.7c50.3,0.1,90.2,40.4,89.9,90.7c-0.3,49.9-41.5,90.5-91.2,89.9c-49.7-0.5-90.7-42-90.2-91.3
			C1408.6,1044.2,1449.2,1004.6,1499.8,1004.7z"/>
		<path class="st0" d="M1498.6,978.5c-51-0.4-90.8-39.9-90.4-89.7c0.4-50.7,41.2-89.6,93.7-89.3c48.7,0.3,88,40.8,87.8,90.4
			C1589.4,940.5,1550,978.8,1498.6,978.5z"/>
		<path class="st0" d="M1437,1329.6c-0.2-47.6,36.4-84.4,84-84.4c47.3,0,84.7,37.4,84.3,84.5c-0.3,45.5-37.7,83.4-83.2,84.4
			C1476.3,1415,1437.2,1376.2,1437,1329.6z"/>
		<path class="st0" d="M1603.1,1555.9c-0.3,45.3-36.9,81.2-82.5,81.1c-45.2-0.2-82.3-37.1-82.2-81.8c0.1-45.6,38.7-83.7,84-82.8
			C1567.3,1473.3,1603.4,1510.7,1603.1,1555.9z"/>
		<path class="st0" d="M1543.7,2510.7c-63.2-0.2-115-52.5-114.1-115.1c1-61.4,53.9-113.5,114.8-113c63.1,0.5,113.8,52.5,113.2,116
			C1657,2461.7,1606.9,2510.9,1543.7,2510.7z"/>
	</g>
</g>
</svg>
