<?xml version="1.0" encoding="utf-8"?>
<!-- Generator: Adobe Illustrator 23.0.0, SVG Export Plug-In . SVG Version: 6.00 Build 0)  -->
<svg version="1.0" xmlns="http://www.w3.org/2000/svg" xmlns:xlink="http://www.w3.org/1999/xlink" x="0px" y="0px"
	 viewBox="0 0 3000 3000" style="enable-background:new 0 0 3000 3000;" xml:space="preserve">
<style type="text/css">
	.st0{stroke:#000000;stroke-width:10;stroke-miterlimit:10;}
</style>
<g id="Layer_1">
</g>
<g id="Layer_2">
	<g>
		<path class="st0" d="M554.7,2375.4c-0.4-1.6-0.4-2.6-0.8-2.8c-62.2-34.5-75.9-91.5-73.6-156.5c1.3-35.3,0.3-70.7,5-105.7
			c8.9-66.3,38.7-117.7,125.2-121c41.7-1.6,83.2-5.1,129.4-8.1c-34.3-29.5-61.8-59.8-85.8-93.1c-75.1-104.1-115-222.3-141.2-346.6
			c-15.3-72.4-17-145.3-16.6-218.5c0.8-141.2,0.6-282.4,5.2-423.5c3.9-119.6,27.1-234.9,72.9-345.5C668,328,838.3,191,1071.6,127.5
			c106.5-29,215.4-41.9,325.3-47.7c81.1-4.3,162.3-7.9,243.5-10.3c116.1-3.5,232.1-0.9,344.7,31.6
			c211.9,61.1,348.3,201.6,422.6,406.6c37.8,104.4,52.8,212.7,59.8,322.7c10.4,164.5,1.3,328.7-6.4,493.1
			c-5,108.1-18.5,214.8-49.2,318.7c-35.8,121.2-95.1,228.2-194.6,309.6c-1.9,1.6-3.5,3.7-8.8,9.4c37.3,0,70.5-1.3,103.6,0.3
			c76.8,3.5,115.3,37,129.6,112.9c10.8,57.3,13,114.8,2.8,172.7c-6.6,37.3-25.8,65.2-56.7,85.4c-10.2,6.7-14.1,10-4.2,21.5
			c70.8,81.8,99.2,176.7,90.2,284.7c-6,71.8-19.5,140.4-52.9,205c-27.7,53.5-67.4,88.8-128.4,95.4c-103.1,11.1-206.1,8.4-308.5-8.3
			c-36.4-6-70.8-19.5-97-47.6c-8.9-9.6-17.6-3.3-25.7-1.3c-99.7,25.1-200.9,39.6-303.6,43.8c-182.2,7.6-359.7-17.8-532.5-75.6
			c-16.9-5.6-30-5.7-46.3,3.8c-52.5,30.8-111.6,39-171,41.8c-98.4,4.7-197,9-295.5,0.8c-19.8-1.7-39.8-4.2-59.1-8.9
			c-60-14.8-81.8-61.3-91.8-115.8c-10.6-57.9-0.4-114.1,18.2-168.9C412.2,2507.2,468.3,2429.3,554.7,2375.4z M1958.6,2003.4
			c46.3-5.9,88.9-15.9,129.5-32.1c101.4-40.3,170.9-115.4,222-209.1c60.7-111.5,86.3-233.4,95.9-357.9
			c14.4-187.2,24-374.9,13.1-562.7c-5.4-93.1-16.6-185.4-43.6-275.3c-44.2-147.2-122.3-269.6-254.4-353.1
			c-104.6-66.1-221.4-88.5-342.5-93.5c-145.3-6-290.2,3.2-435.1,12.9c-97.8,6.6-194.3,22.4-288.3,50.8
			c-210.8,63.8-359.2,196-440.9,401.7c-42.8,107.7-62.4,219.7-64.9,335.1c-3.4,161.1-5.6,322.3-3.9,483.4
			c0.6,58.2,12.1,115,24.4,171.6c1.4,6.7,3.5,12.6,11.9,14c62.3,10.1,124.6,14.9,185.6-6.2c55.5-19.3,78.6-58.8,71.1-117.5
			c-6-47.2-13.2-94.3-17.7-141.6c-9.5-99-9.1-198.1-3.7-297.3c5.9-109.9,25.8-216.6,72.1-317.1c60.8-131.8,152.6-233.3,290-288
			c58.5-23.3,119.9-35.4,182.6-40.1c114.8-8.6,229.6-19.7,344.9-6.5c123.3,14.1,226.3,68.1,307.6,160.7
			C2122,658,2172.4,802.7,2175.9,965.3c3.8,176.5-0.2,352.8-7.7,529.2c-6.9,161.7-59.4,307.1-154.5,437.5
			C1996.6,1955.4,1978.3,1978,1958.6,2003.4z M1448.3,2367c227.2-3,488.1-3.2,748.1-30c52.4-5.4,104.1-15.2,151.8-38.9
			c19.2-9.5,38.1-20.1,43.6-43.5c15.7-66.8,13.7-133.4-6.5-198.7c-7.7-24.7-25.3-40-53.7-43.3c-78.2-9.1-156.1-5.6-232.2,11.8
			c-98.2,22.5-196.7,39-297.2,46.1c-107.5,7.6-215.1,14.1-322.8,20.2c-124.3,7.1-248.5,14.4-373.1,7c-98.9-5.9-195.9-19.9-286-64.7
			c-6.3-3.1-12.7-3.5-19.3-3.5c-63.3-0.3-126.4,4.7-189.4,8.7c-51.4,3.3-67.1,18.9-76.2,70c-8.6,48.8-8.6,98.3-4.7,147.3
			c3.9,48.7,28.8,74.7,78.1,81.3c46.7,6.3,94,8.9,141.1,11.6C971.3,2361.1,1192.9,2366.3,1448.3,2367z M588.4,1640.7
			c21.5,70.7,49.4,134.5,87.4,193.5c56.7,88,132.8,151.4,234,182.9c11.9,3.7,20.6,2.9,30.9-4.8c61.1-45,122.6-89.4,181.3-137.5
			c93.6-76.8,189-151.6,273.5-239c59.7-61.7,83.1-135.8,81.8-219.9c-0.9-64.5-20.9-125.8-30.7-188.8c-1.7-11.2-8.9-9.2-16.3-7.6
			c-27.3,5.7-54.5,11.6-81.8,17c-62,12.4-124,25.2-187.9,17.7c-77.6-9.1-120.9-55-124.4-132.5c-0.6-13.9-0.9-28-0.2-41.9
			c6.6-145.6,23-290.4,34.5-435.6c2.7-34.6,5.9-69.2,8.9-105.2c-11.6,4.3-17.6,11.6-24.2,17.9c-111.1,106.4-162,241.6-181.7,389.9
			c-14.3,107.7-14,216.5-7.8,325c2.2,38.8,3.8,77.8,11,116.3c4.4,23.5,8.8,47.1,10.4,70.9c6.5,93.2-30.5,152.4-115.8,174.4
			c-31.1,8-62.6,11.9-94.7,12.6C648.1,1646.7,619.8,1643.2,588.4,1640.7z M1709.1,2028.9c54.7-4.7,108.9-9.5,163.2-14.1
			c8.2-0.7,13-6.1,18-11.4c135.2-141.5,219.3-306.3,228.9-504.6c8.4-174.3,12.5-348.7,7.9-523.2c-2.3-85.4-12.3-169.7-49.1-248.8
			c-40.7-87.6-91.9-166.5-171.5-224.1c-9-6.5-15.5-9.3-25.4-0.3c-102.4,92.8-198.5,191.3-275.9,306.5
			c-48.9,72.8-88.5,150-107.3,236.6c-3,13.6-5.5,21.2,15.5,18.2c98.5-13.7,197.7-15.9,296.1-1.1c59.4,9,103.4,41.3,120.2,102.4
			c6.8,24.7,5.8,50,4.7,75.4c-3.1,74.7-14.1,148.2-30.2,221.1c-19.4,87.4-33.3,176.2-59.5,262c-30.1,98.3-80.9,187.7-126.2,279.4
			C1714.7,2010.6,1708.6,2017.3,1709.1,2028.9z M1993.8,2402.4c-73.2,2.7-143.7,5.5-214.1,7.9c-222.3,7.6-444.7,7-667.1,1.7
			c-15.4-0.4-20.2,0.9-16.2,18.8c28.9,130.3,23.2,256.1-52.6,373.4c38.4,14.4,78.9,24.4,119.2,35.1c9.4,2.5,11.5-3.7,14.8-9.3
			c54.1-93,84.5-193.3,90.7-300.8c2.2-38.5-3.7-31.2,34-32.4c12.5-0.4,16.7,2.1,16.2,16.3c-4.5,115.7-33.7,224.4-89.7,325.7
			c-6.9,12.4-1.5,14.2,8.5,15.7c28.9,4.4,57.9,8.6,86.7,13.7c13,2.3,16.9-4.3,20.9-14.8c38.6-100,61.3-203.6,70.8-310.2
			c2.8-31.3,2.7-30.8,34.4-28.3c12.1,1,16.7,3.3,15.7,17.5c-3.6,47.8-10,95.1-19,142.2c-11.9,62.1-28.8,122.8-50.5,182.2
			c-1.9,5.3-9.3,11.6-0.2,17.1c16,9.6,60.7,0.9,72.3-14.1c81.8-106,121.8-226.1,120.8-359.8c-0.2-30-0.5-29.5,29.2-31.2
			c13.8-0.8,19.7,1.9,20,17.8c2.9,133-30.2,255.4-104.7,366.1c-4.9,7.2-12.6,13.4-12.5,23.8c16.2,0,31.5-0.6,46.8,0.2
			c14.5,0.8,24.6-4.3,34-15.9c36.5-45.2,64.8-94.7,82.7-150c18.3-56.3,27.7-113.7,23.4-172.9c-1.1-15.5,2.1-24.2,19.4-22.7
			c3.2,0.3,6.7-0.5,9.9-1.3c14-3.4,19.8,0.6,20.5,16.4c5,115.3-22.4,221.5-85.8,318.2c-3.9,5.9-9.7,11-10.6,20.4
			c17.6-2.5,34.5-6.1,51.5-7c15.3-0.8,23.4-8.1,30.6-20.9c53.1-95.6,80.9-197.9,80.1-307.3c-0.1-18.2,5.3-23.9,22.1-21.7
			c3.3,0.4,6.7,0.2,10-0.3c12.9-2.3,17.2,2.5,17.3,15.9c0.4,62.2-7.3,123.2-23.7,183.3c-12.5,45.6-29.8,89.2-51.3,132.9
			c18.5,1,33.8-6.3,49.9-9.1c6.9-1.2,6.9-5.6,5.7-11.9c-6.7-36.2-0.7-71.5,9-106.5c18.5-66.2,50-127.3,76.5-190.3
			C1956.1,2485.1,1974.9,2444.9,1993.8,2402.4z M660.8,2851.7c65.1-3.2,133.7-1.5,201.9-10.9c90.6-12.5,156.4-55.9,181.7-146.8
			c24.2-87.3,26.6-175.6,2.2-264c-4.6-16.9-12-20.9-28.5-21.2c-120.4-2.2-240.7-8.8-360.8-17.7c-15.3-1.1-28.6,1-42.2,7.6
			c-112.6,54.8-174.6,147.9-201.6,267.1c-9.5,42-11.4,84.5,3.6,126c9.8,27.1,26,45.5,57.3,50.6
			C535.2,2852.2,596.3,2851.1,660.8,2851.7z M993.2,2035.6c43.6,7.6,83.4,11.6,123.2,13.6c135.3,6.7,270.2-2.5,405.2-8.6
			c12-0.5,19.2-5.3,25.4-15.5c23.7-39.3,45.5-79.7,65.4-121c61.5-127.8,96.1-263.1,111.7-403.6c6.2-56.2,13.1-112.4,7.9-169.1
			c-6.4-71.2-44.6-113.9-114.4-126.1c-36.3-6.3-72.9-3.3-109.4,0.4c-12.7,1.3-15,5.1-12.9,17.3c7.9,47.2,21.4,93.3,27.1,141
			c14.3,118.7-10.1,225-97.5,311.7c-15.6,15.5-31,31.2-47,46.2c-80.6,75.7-167.2,144.4-253.4,213.4
			C1082.7,1968.9,1039.2,2000.6,993.2,2035.6z M2145.1,2896.3c43.4-0.2,80-1.1,116.5-2.4c61.5-2.2,98.6-32.9,123.4-87.4
			c27-59.4,36.3-121.6,40.6-185.6c6.7-98.5-27-181.1-93.8-251.9c-4.8-5.1-9.1-8-17.2-5.7c-80.5,23.1-163.4,29.5-246.4,34.4
			c-12,0.7-18.9,4.8-24.3,16c-36.3,75.5-71.5,151.4-103,229c-16,39.4-31.7,78.9-39.2,121.1c-10.5,58.6,11.5,95,68.3,112.7
			c5.1,1.6,10.2,2.8,15.4,4C2040.2,2892.7,2096,2894.7,2145.1,2896.3z M1286.4,937.5c0.7,82.5,1.9,164.9,9.9,247.2
			c1.5,15.8,11.5,10,18.5,8.6c37.2-7.2,74.1-15.7,111.3-22.6c11.1-2.1,14.1-6.4,13.2-17.2c-3.3-39.5,3.1-78.2,11.1-116.8
			c25.4-122.4,88.9-225.6,163.1-323.1c65.2-85.6,140.8-161.5,220.4-233.5c12.8-11.6,11.2-15.5-3.7-22c-31.9-13.8-64.6-25-98.9-30.4
			c-126.3-19.8-252.3-5.6-378.3,3.3c-9.1,0.6-10.4,6.7-11.8,13.3c-15.4,72.2-27.7,145-36.6,218.3
			C1293.4,753.9,1287.4,845.5,1286.4,937.5z M1292.1,441.1c-52.6,8.9-99.9,25-144.8,48.7c-10.7,5.7-15.3,12.7-16.2,24.5
			c-2.9,38.5-6.8,76.8-10.2,115.3c-8.8,102.7-17.7,205.4-26.3,308.1c-5.1,61-11.8,121.9-9.9,183.2c1.4,45.6,20.6,70,64.5,81.3
			c24.6,6.4,49.6,6.4,74.8,4.5c25.9-2,25.5-1.4,23.1-27.8c-8-86.8-11.7-173.8-9.4-261.1c2.6-99.1,8.6-197.9,22.6-296.2
			C1269,562,1278.4,502.5,1292.1,441.1z M1600.3,2032.9c13.9,0,25.7-0.1,37.6,0c7.4,0.1,11.4-2.6,15.1-9.8
			c73.9-145,151.5-288,178.8-452.1c19.2-115.3,51.9-228.2,54.1-346.3c1.3-70.1-22.1-102.8-91.3-114.8c-66.6-11.5-133.9-7.7-201-5.5
			c-30.6,1-60.9,5.1-91.1,10.2c-24.1,4.1-13.6,21.9-14.2,34.4c-0.7,15.8,11.9,8.2,18.8,7.9c21.9-0.9,43.8-4.2,65.7-4.2
			c75.1,0,141.4,19.5,182.3,89c24.5,41.6,28.6,88.2,28.2,135.1c-0.4,52-8.6,103.3-14.5,154.9c-17.4,153.1-61.5,297.8-132.7,434.3
			C1624.7,1988.3,1612.5,2010.2,1600.3,2032.9z"/>
	</g>
</g>
</svg>
