<?xml version="1.0" encoding="utf-8"?>
<!-- Generator: Adobe Illustrator 23.0.0, SVG Export Plug-In . SVG Version: 6.00 Build 0)  -->
<svg version="1.0" xmlns="http://www.w3.org/2000/svg" xmlns:xlink="http://www.w3.org/1999/xlink" x="0px" y="0px"
	 viewBox="0 0 3000 3000" style="enable-background:new 0 0 3000 3000;" xml:space="preserve">
<style type="text/css">
	.st0{fill:none;stroke:#000000;stroke-miterlimit:10;}
	.st1{stroke:#000000;stroke-width:10;stroke-miterlimit:10;}
</style>
<g id="Layer_1">
</g>
<g id="Layer_2">
	<path class="st0" d="M1411.5,1282.7"/>
	<g>
		<path class="st1" d="M316.3,1727.4C191.8,1673,146.5,1566,120.7,1444.6c-17.2-80.9-35.6-161.4-36.9-244.7
			C80,949.8,157.1,726.7,307.2,527.5C402.3,401.3,506.3,285,643.6,201.9c90.1-54.5,187-82.8,291.6-86.3c296.4-9.9,593,3.1,889.5-4.5
			c180.5-4.6,360.2,1.8,536.4,48c63.7,16.7,126.7,35.3,187.6,60.7c199.3,83.2,304.5,234.7,333.9,446.5
			c50.3,362.4,61.2,726.3,42.2,1090.9c-8.9,170.2-19.9,340.8-60.8,507.6c-37.9,154.8-127.3,274.4-255.2,365.3
			c-176.7,125.6-374,197.5-589.7,221.7c-254.3,28.5-508.8,51.2-764.8,36.2c-176.3-10.3-354.1-7.5-526.8-55.4
			c-152.8-42.4-291-109.6-406.2-221.3c-191.5-185.6-239.3-420.6-134.1-670.4C219.5,1864.1,263,1794.1,316.3,1727.4z M824.1,1177.1
			c-36.7,79.5-45.8,156.4-25.8,236.9c27.7,111.8,0.3,188-93.6,254.4c-92.5,65.4-195.9,91.9-308.9,77.9c-14-1.7-25.5-2.6-36.1,10.6
			c-97,120.1-163.1,253.6-173.9,409.6c-12.6,180.7,72.5,317.7,200.8,433.8c115.9,105,256.1,161.1,406,193.7
			c176,38.3,356,35.8,534.7,43.7c229.8,10.1,458.2-13.2,686.3-38c182.7-19.8,351.6-79.2,509.2-174.6
			c189.6-114.9,290.8-281.7,315.6-500.3c19.8-174.9,35-350,39.7-526c8.6-320-4.4-638.8-53.1-955.5
			c-24.9-161.9-107.7-284.7-257.4-356.1c-165.8-79.1-342.8-114.7-525.5-120.5c-248.2-7.8-496.6,2.2-744.9-0.3
			c-111-1.1-222.1-0.5-333.2,0c-123,0.5-234.4,35.9-335.3,107.3C534.5,340.2,457.1,423,385,512.3
			c-144,178.3-234.2,377.5-247.3,608.9c-8.1,143.6,19.5,281.3,65.6,415.9c16.9,49.2,46,91.9,92.5,119.2
			c110.3,64.7,220.6,48.5,330.6-1.1c20.4-9.2,6.7-19.4,0.7-29.2c-50.8-82.6-89.5-170.3-112.4-264.7
			c-58.9-243.4,19.5-468.2,219.6-610.1c153.3-108.7,328-166.5,513.5-188.2c154.4-18,309.8-7.8,464.8-4.5
			c122.8,2.6,243.5,20.7,362.2,54.3c148.7,42,280.7,111,380.9,230.9c141.7,169.5,209,369.5,217.4,587
			c11.7,302.8-6.9,605.2-29.4,907.2c-0.7,10,4,26.4-16.3,21.4c-14.8-3.7-38.2,5.7-35.5-25.5c4.3-50.1,5.7-100.4,9.3-150.5
			c17.3-243.6,26.7-487.5,20.8-731.8c-2.1-88.1-15.5-174.8-41.7-259.5c-51.6-166.9-132.3-314-278.2-418.1
			c-124.6-88.9-268.4-126.5-416.1-147.5c-181.9-25.9-365.8-22.1-549-17.9c-177.7,4-343.6,55.9-499.3,139.4
			c-125.1,67-221.2,162.1-264.1,301.6c-62,201.5-2,381.2,101,553c8.8,14.6,15.3,12.5,26.1,2.7c53-48,65.9-106.1,48.1-174.1
			c-33-125.9-6.8-242,69.3-345c117.5-159,274.8-259,469.2-296.7c139.8-27.1,281.4-26.4,422.6-13.1
			c156.6,14.7,297.5,69.6,412.8,178.9c165,156.4,233.5,359.5,261.1,577.2c22.8,180.3,6.8,362,0,543.1
			c-5.7,153.8-22.7,306.9-35.6,460.3c-4.7,55.4-3.8,54.5-57.3,63.6c-81,13.7-162.6,15.2-244.3,12.5c-69.9-2.3-131.4-26.1-179-78.5
			c-15.2-16.8-23.1-15.2-38.3-0.1c-66.8,66.2-143.1,94.4-233.3,49c-55.4-27.9-100.8-17.4-145,24.9c-56.9,54.6-127.4,71.5-205.4,65.1
			c-41-3.4-79-20.1-120-22c-17.6-0.8-12.6-14.3-11.4-23.2c1.4-10.3-7.8-28.1,14-28c54.8,0.1,84.3-31.8,106.7-77.8
			c34.3-70.4,93.6-107.2,170.7-117.8c37.6-5.2,75.2-5.4,112.9-5.7c73.4-0.6,104-28.2,112.8-101.1c7.6-63.4,4.6-127.6,17.6-190.6
			c38.6-186.6,180.4-301.7,370.9-300.1c97.4,0.8,194.9-0.2,292.3,1.5c24,0.4,30.4-6.8,29.4-30.1c-2.7-59.6-1.5-119.5-4.5-179.1
			c-9.5-183.7-62.8-354.6-165.4-507c-93.2-138.4-227.9-217.6-390.6-251.1c-1.2,3.8-2.6,5.8-2.4,7.6
			c21.8,167.8-16.3,321.2-106.4,464.1c-79.7,126.2-193.7,188.9-340.5,188.9c-129.2,0-216.4,58.4-267.8,174.6
			c-12.4,28-28.3,53.7-48.3,76.8c-81.1,93.5-185.9,155.2-291.3,216c-20,11.5-22.2-8.3-29.3-17.8c-8.3-11.2-11.6-22.5,6-29.4
			c17.4-6.9,27.3-21.5,37.5-36.5c65.8-96.3,119.7-199,169.6-304.1c32.5-68.4,70.5-133.4,123-188.7c15.4-16.3,32.2-31.3,52.3-50.7
			C977.9,1312,893.9,1259.8,824.1,1177.1z M1232.5,2616.5c75,10,136.9-1.9,187.2-51.4c60-59,126.6-67.7,200.7-29.6
			c52.6,27.1,101.3,18.2,146.5-17.2c13.1-10.3,24.3-23,37.1-33.8c13.2-11.1,14.7-21.6,6.8-37.8c-24.6-50.6-35.3-104.8-37.3-160.9
			c-6.6-188,107-341.9,284.7-381.1c81.5-18,164.3-15.6,246.5-0.7c10.3,1.9,24.1,11.8,30.6-1.5c5.1-10.4,5.8-25.4,2.5-36.7
			c-4.2-14.4-19.7-7.5-30.1-7.5c-95.3-0.7-190.6-0.4-286-0.8c-171.3-0.6-290.4,97.6-322.7,264.9c-12.4,64.1-7,129.6-17.2,193.7
			c-13.7,86.3-67,132-154.8,132.7c-38.8,0.3-77.5,0.7-115.9,6.4c-54.8,8.1-98.7,32.6-126,82.9
			C1271,2564.2,1258.7,2591.8,1232.5,2616.5z M839.5,1830c79.4-51.6,152.7-108.2,187.6-200.6c9.2-24.5,24.7-46,42.1-65.8
			c67.2-76.4,149.6-117.2,253.5-115.5c101.3,1.6,193.8-27,261.2-106.9c79.2-93.9,129.1-202.9,144.6-325.4
			c6.7-52.8,6.2-106.6-2.6-159.6c-4.5-26.9-23.6-33.1-46.5-30c-24.7,3.4-11.3,23.2-11,34.7c6.7,258.7-189.1,479.2-446.7,489.3
			c-67.5,2.6-108.8,29.6-149.2,73c-7.1,7.7-14,15.6-20.7,23.6C957.3,1561.3,917.5,1705.8,839.5,1830z M1029.2,1089.4
			c16.8-15.4,32.2-29.3,47.3-43.6c51.1-48.2,50.7-48,4.4-101.2c-10-11.5-17.7-15.4-30.8-5.2c-25.4,19.8-51.5,38.7-77.5,57.7
			c-9.9,7.2-14.3,13.3-3.6,24.6C989.6,1043.4,1008.9,1066.5,1029.2,1089.4z M1217.3,1107.6c-6-7.2-13.1-16.1-20.6-24.7
			c-37.7-43.7-37.7-43.7-79.7-2.9c-55.9,54.4-55.6,54.1,0.5,110.5c9.6,9.6,14.6,10.9,24.2,0.7c21.5-22.7,44.3-44.1,66.3-66.4
			C1212.1,1120.8,1218.6,1117.7,1217.3,1107.6z M1261.7,1070.7c3.6-3.2,7.5-6.6,11.2-10.2c20.8-20.6,40.8-42.1,62.6-61.6
			c13.3-12,13.1-21.2,1.6-33.6c-15.4-16.7-23.8-48.5-43.2-49.8c-15.1-1-32.1,26.4-48,41.4c-49.7,46.9-49.7,47-3.4,98.3
			C1247.8,1061.1,1251.1,1069.9,1261.7,1070.7z M1987.7,2199.9c-0.9-1.9-1.5-3.9-2.7-5.6c-13.8-19.5-24.3-44-42.9-56.6
			c-11.4-7.7-29.9,13.2-45,21.6c-17.3,9.7-34.4,19.6-51.5,29.6c-5.2,3.1-11.3,5.8-11.1,13.4c0.1,5.2,48.1,63.9,52.9,64.8
			C1893.5,2268.3,1987.1,2205.5,1987.7,2199.9z M994,1130.4c-11.8-13.8-19-22.5-26.5-30.9c-52.9-59.1-52.3-58.6-99.8,5.2
			c-13,17.5-12.7,28.6,1.9,45.2c45,51.1,44.1,51.6,93.7,4.3C972.3,1145.7,983,1138.9,994,1130.4z M2152.8,2155.3
			c-11.7,7.8-24.8,16.5-37.7,25.3c-55.6,37.4-56.6,46.7-10.5,95.4c3.4,3.6,6.3,10.3,12.1,6.8c28.7-16.9,61.4-30.3,83.3-53.7
			c9.5-10.1-17.5-34.1-25.8-53c-2.5-5.7-6.7-10.5-9.9-15.9C2162,2156.3,2159.3,2153.7,2152.8,2155.3z M2001.1,2412.1
			c17.7,22.1,33.2,41.8,49.3,61.1c4.2,5,7.6,15.2,16.7,10.1c25.6-14.1,60.6-23.6,73.1-45.6c12.7-22.4-23.1-43.3-34.6-66.6
			c-4.5-9.1-10.6-14.2-22.4-6.9C2056.8,2380.7,2029.5,2395.7,2001.1,2412.1z M2200.1,2406.3c10.9-6.2,22.6-12.8,34.2-19.4
			c48-27.2,48-27.2,20.3-74.9c-21.3-36.6-21.3-36.6-55.8-15.8c-57.5,34.6-57.6,34.6-18.8,90.3
			C2185.1,2393.7,2188.3,2403.4,2200.1,2406.3z M2091.3,2045.4c-33.4,19.8-65.9,38.6-97.8,58.3c-6.4,3.9,0.4,9.1,2.5,13.2
			c29.3,57.5,32.8,58.4,86.2,22.6c7.8-5.2,15-11.8,23.5-15.5c26.5-11.6,26.7-27.4,9.7-47.7
			C2107.2,2066.4,2104.7,2051.8,2091.3,2045.4z M2280,2071.2c-4,2.2-6.7,3.8-9.4,5c-64.2,28.4-69.2,43.4-34.2,101.8
			c2.1,3.6,5,6.8,6.6,10.6c5.3,12.2,12.2,12.7,24,7c69.7-33.7,69.8-33.4,30.1-99.4c-3.2-5.3-6.2-10.8-9.6-16
			C2285.3,2077,2282.6,2074.2,2280,2071.2z M2063.1,2307.6c-13.1-18.1-27.3-38.6-42.7-58c-3.7-4.7-9.5,1.6-13.5,4.3
			c-24.3,16.2-48.6,32.5-72.6,49.1c-4.6,3.2-13.6,6.5-8.6,13.5c12,17,25.1,33.3,39.2,48.6C1969.8,2370.6,2061.8,2319,2063.1,2307.6z
			 M1425.1,1086.4c-11.2-15.7-22.7-30.5-32.7-46.2c-8.1-12.8-14.4-10.5-23.4-1.1c-19.5,20.3-39,40.7-60.1,59.3
			c-14.7,12.9-12.9,21.8-0.8,35.6c31.9,36.5,31.2,37.1,65.7,4.2c12.8-12.2,25.6-24.5,38.2-36.9
			C1416.4,1097.1,1420.1,1092.1,1425.1,1086.4z M1208.7,1292.6c6-4.3,9.7-6.4,12.6-9.2c23.4-22.2,46.5-44.7,70.1-66.7
			c8-7.5,5.8-12.9,0.3-21.1c-32.1-47.7-31.9-47.9-72.3-7.8c-13.3,13.2-27.1,25.9-39.7,39.8c-5.4,5.9-19.1,10.5-9.8,22.1
			C1182.1,1264.7,1195.9,1278.5,1208.7,1292.6z M1407.3,826.6c-27-6.6-41.1,15.4-59,30.9c-11.3,9.8-13.5,16.8-3.5,30.6
			c43.3,59.7,43.1,60.5,94.4,8c7.8-8,29.2-13.7,16-30.9C1443,849.3,1439.4,821.3,1407.3,826.6z M1536.3,979.9
			c-14.2-19.5-25-41.6-42.4-55.2c-9.6-7.5-19.8,13.7-29.8,21.9c-9.7,8-17.3,18.4-27,26.2c-14.2,11.4-15.2,20.8-3.4,36.1
			c30.8,39.7,29.9,40.4,67.2,6.7c7.8-7,15.7-13.9,23.1-21.2C1528.4,990.2,1531.9,985.2,1536.3,979.9z M1048.6,1273.9
			c18.6-0.8,42.9-31.5,34.4-42.1c-17.6-21.7-32.6-52.2-57.6-58.5c-16.5-4.2-32.8,27.7-50,42.4c-2.4,2-4.5,4.3-6.6,6.7
			c-3.8,4.3-5.7,8.8,0.4,12.8C994.4,1251.7,1021.3,1265.1,1048.6,1273.9z M1240.7,853.2c-21,7-46.9,14.8-72.2,24.4
			c-59.5,22.6-60.8,30.9-14.1,73.8c6.5,6,10.7,8.8,17.8,1.9c27.1-26,54.3-51.7,81.5-77.6c4.7-4.5,8.4-9.4,4.5-16.4
			C1255.6,854.4,1251.6,851.6,1240.7,853.2z M2013.8,2512.9c-16.7-21.1-33.3-42.1-49.9-63.2c-5-6.3-10.6-9.9-18.6-5
			c-15,9.1-29.8,18.8-45.3,27.2c-9.4,5.1-7.5,9.7-2.9,17C1926.3,2535.9,1966.4,2544.9,2013.8,2512.9z M1615.5,869.5
			c-1.1-12.5-2.3-24.9-3.1-37.4c-0.6-9.5-6.6-14.1-14.4-11c-27.3,10.5-44.2,34.4-61.3,55.7c-10.3,12.8,9.4,24.9,17.2,35.6
			c7.2,9.9,11.6,32.2,25,26.1c16.3-7.4,34.1-21,35.4-44C1614.8,886.2,1615.1,877.9,1615.5,869.5z M2227.5,2555.1
			c-2.2-6.6-2.5-8.8-3.5-10.4c-42.7-70.3-43.1-70.2-112-26.5c-12.5,7.9-16.1,12.8-5.3,25.7c9.6,11.5,18.9,18.1,34.3,16.8
			C2168.9,2558.2,2197,2557,2227.5,2555.1z M2037.1,1964.1c-33.6,10.5-64.3,27.2-92.7,49.3c-14.3,11.2-7.2,18.6-0.1,27.7
			c7,9,9.9,24.1,28,12.6c26.3-16.8,54.2-31.2,81.2-46.9c6.9-4,16.6-8.5,9.2-18.9C2056,1978.7,2055.2,1962.5,2037.1,1964.1z
			 M2180.4,2073.4c19.2-13.3,36.4-27.4,55.5-37.9c16.1-8.8,16.1-16.8,7.9-31.5c-19.6-35.2-18.9-35.6-53.8-15.6
			c-10.9,6.2-21.4,13.1-32.5,18.9c-9.2,4.8-17.1,9.9-9.1,21.2C2158.8,2043.2,2163.3,2062.4,2180.4,2073.4z M1491.1,1175
			c-10.3-13.6-17.6-29-29.7-37.7c-12.4-8.8-18.3,8.8-26.1,15.3c-15.2,12.8-28.6,27.5-43.1,41.1c-9.6,9-23,15-7.1,31.6
			c12,12.6,20.5,23.2,37.9,8.6c18.4-15.5,37.8-29.6,56.5-44.8C1483.8,1185.5,1487,1180,1491.1,1175z M2306.4,2406.8
			c-27.4,15.5-48.1,27.2-68.7,39.1c-5.3,3.1-11.8,6.2-6.4,14.2c18.8,27.9,37.7,55.7,56.6,83.5c2.4-0.9,4.8-1.8,7.2-2.7
			C2298.8,2498.7,2302.3,2456.6,2306.4,2406.8z M1918.1,2397.1c0.1-7.4-40.7-53.7-44.2-51.7c-12.9,7.6-30.2,11.5-33.8,28.7
			c-3,14,20.5,57.2,27.4,54C1885.7,2419.4,1904.1,2410.3,1918.1,2397.1z M1527.3,1133c20.4-21.5,33-47.6,46.3-73.2
			c5.2-10,8.5-20.5-2.7-27.5c-11.9-7.5-15,7-21.8,11.7c-6.8,4.7-12.3,11.2-18.5,16.8C1494.1,1093.4,1494.1,1093.4,1527.3,1133z
			 M2322.5,2226.9c-50.3,23.1-50.5,27.7-7.4,74.8C2317.6,2276.7,2319.9,2253.6,2322.5,2226.9z M2333.7,1966.4
			c-18.9-6.6-35.7-11.8-54.9-10.8C2298,1996.6,2298,1996.6,2333.7,1966.4z M1865.9,2108.7c1.2,1.5,2.4,2.9,3.7,4.4
			c10.5-5.9,21.1-11.5,31.4-17.8c4.8-2.9,12.4-5.5,6.7-13.6c-3.4-4.9-7.1-10.2-11.9-13.2c-1.4-0.9-8.3,4.8-10.9,8.6
			C1877.9,2087.3,1872.1,2098.1,1865.9,2108.7z M1293.4,1284.1c23.6,1.2,34.6-5.3,46.3-9.1c8.5-2.7,12.5-6.9,5.9-15.2
			c-4.7-5.8-9.1-12.4-17.7-5.1C1318.5,1262.7,1309,1270.8,1293.4,1284.1z"/>
	</g>
</g>
</svg>
