<?xml version="1.0" encoding="utf-8"?>
<!-- Generator: Adobe Illustrator 23.0.0, SVG Export Plug-In . SVG Version: 6.00 Build 0)  -->
<svg version="1.0" xmlns="http://www.w3.org/2000/svg" xmlns:xlink="http://www.w3.org/1999/xlink" x="0px" y="0px"
	 viewBox="0 0 3000 3000" style="enable-background:new 0 0 3000 3000;" xml:space="preserve">
<style type="text/css">
	.st0{stroke:#000000;stroke-width:10;stroke-miterlimit:10;}
</style>
<g id="Layer_1">
</g>
<g id="Layer_2">
	<g>
		<path class="st0" d="M1198.4,113.9c195.8-2.4,391.6-11,587.5-6.5c64.6,1.5,129.2,5.9,191.3,25.6c99.4,31.6,160.8,96.6,171.9,203.1
			c2.1,20.6,9.4,28,31.1,29.7c182.6,13.6,306,108.3,368.9,279c46.4,125.9,67.6,257.5,78,391c13.4,171.4,2.8,342.8-1.8,514.1
			c-5.1,188.6-10.2,377.2-9.5,566c0.2,48.7,0.6,97.5-5.1,146.1c-5.3,45.3-18.8,88.2-37,129.7c-73.9,168-193.2,296.6-344.6,397.7
			c-57.4,38.3-118.4,69.7-181.6,97.2c-34.8,15.1-71.4,21.6-108.8,23.1c-336.8,12.7-672.9,44.5-1010.5,40.6
			c-119.1-1.4-237.9,10.4-356.8,15.7c-30.9,1.4-61.6-1-92-7.1c-77-15.5-124-66.7-134.9-144.5c-6.9-49.3-2.2-97.9,10.1-145.1
			c23.3-89.3,48.3-178.4,87.5-262.5c53.6-115.1,144.2-180.4,269.6-193.4c165-17.2,330.7-19.4,496.5-15.4
			c35.7,0.9,71.7,2.5,106.8-6.5c36.1-9.2,58.3-35,59.2-72.2c1.4-57.5-6.3-114.5-10.3-171.7c-8.3-119.7-7.3-239.4-2-359.1
			c5-112.5,9.7-225,19.7-337.1c1.2-13.3-4.6-13.4-14.9-12.5c-80.9,7-162,10.6-242.9,5c-117.2-8.1-235.1-12.4-348.8-46.8
			c-59.4-18-112.7-46-153.2-94.8c-57-68.8-65.4-149.2-55.2-233.6c2.8-23.4,8.7-46.5,14.3-69.4c2.8-11.3,0.8-17.6-9.3-24.7
			c-139.3-98.1-217.8-232.6-238-401.3c-4.7-39,1-77.2,12.8-114.6c24.6-78.3,83.5-112.7,159.6-124.9c59.6-9.6,119.9-12.1,180.1-13
			C856.9,117.8,1027.6,116,1198.4,113.9z M411.5,2673.6c3.6-1.9,7.4-3.5,11-5.8c122.5-77.3,256-100.8,398.1-80.3
			c146.9,21.3,255.2,134.1,269.7,281.9c2.2,22.4,10.1,27.1,31.4,26.8c176.6-2.3,352.5-15.9,528.7-25.4c28.4-1.5,28.1-1.2,22.7-29
			c-31.9-163.6-25.2-325.4,26.3-484.2c119.8-368.9,441.4-590.6,843.1-577.4c19.3,0.6,23.9-3.5,24.3-22.6c3-134.8,7-269.7,11.1-404.5
			c4.9-160.8,4.8-321.4-24.6-480.4c-16.7-90.3-34.8-180.5-77.4-263.1C2413.3,488,2310,428.3,2175.8,417.3
			c-13.2-1.1-16.4,2.4-15.8,16.5c4.2,91,8.9,182,10.1,273.1c2.3,176.5-2.3,352.9-12.3,529.2c-2.2,39-0.7,38.5-40,35
			c-12.5-1.1-15-5.2-14.2-17.2c8.8-128.9,12.6-258,13.7-387.2c1.5-175-0.2-350-19.8-524.3c-11.1-99.1-79.5-144.6-146.8-161.9
			c-69.4-17.9-140.2-21-211.2-21.3c-249-1.3-497.9,9.1-746.9,9.4c-23.3,0-29.7,7.4-32.2,29.5c-8.1,72.1-28.1,140.6-70.3,200.9
			c-43.6,62.4-102.9,96.8-180.1,95.8c-90.7-1.2-180.1-12.8-267.7-36.9c-13.3-3.7-26.2-10.4-42-9.3c24,80.4,63.4,150.4,118.1,211.7
			c60,67.1,132.7,109.8,223.9,120c57.8,6.5,115.7,9.4,173.7,11.7c124.8,4.8,249.6,3.4,374.5,4.5c39.7,0.3,78.7,5.8,111.6,32
			c45.7,36.4,56,86.1,54.3,140.6c-3,99-16.2,197.1-23.5,295.8c-9.6,130.2-15.4,260.7-20.5,391.1c-5.8,148,4.9,295.4,15.1,442.8
			c5.3,77-43.6,138.2-119,148.3c-34.2,4.6-68.6,5.2-103.1,4.4c-160.8-4.2-321.4-1.5-481.6,13.4c-110.6,10.3-189.9,66.3-236.2,168.3
			c-33.4,73.4-53.1,151.3-77.3,227.7C409.1,2664.3,408,2668.8,411.5,2673.6z M2564,2041.1c0-62.4-0.5-124.8,0.4-187.2
			c0.2-15.6-3.3-21-19.8-21.3c-55.4-1.1-110.2,1.8-165.1,9.4c-152.5,20.9-290.1,77.4-403.1,182.2
			c-243.8,226.1-307.5,508.5-247.9,826.8c2.2,12,7.1,16.5,20.1,15.3c26.4-2.4,53-2.7,79.5-4.1c45.8-2.5,91.8-3.7,137.4-8.4
			c56.7-5.8,106-33.4,154.7-60.4c176.8-98.3,319.2-230.1,403-418.2c18.5-41.4,32.4-84.1,36.3-129.7
			C2565.2,2177.3,2561.3,2109.2,2564,2041.1z M1207.9,1193.2c41.7-0.3,83.2-2.1,124.7-4.8c54.3-3.5,54.3-2.9,58.6-58.3
			c0.4-5,1.4-9.9,1.8-14.9c5.2-56.4,11.8-112.7,10.5-169.4c-1.3-56.3-30.1-87.3-85.6-94.4c-17-2.2-34.3-3.5-51.4-3.3
			c-134.8,1.4-269.6,0.1-404.4-4.8c-73-2.7-146.2-7.2-216.2-31.5c-12.2-4.2-15.2,0-17.1,10.4c-3.6,20.4-9.3,40.7-11.2,61.3
			c-5.8,62.6-1.1,123.3,37.5,176.6c36.2,49.9,88.7,73.9,145.6,89.1C934.2,1184.5,1071.2,1188.3,1207.9,1193.2z M597.9,2912.2
			c35.1-2.1,70.1-4.3,105.2-6.4c106-6.3,212.1-9.6,318.3-9.3c13.7,0,19.2-3,17.5-18.1c-12.4-115.3-89.5-207.9-189.7-230.8
			c-149.2-34.2-288.2-8.8-417,76c-32.7,21.5-42.3,44.9-36.3,81.7c9.1,56.4,36.7,89.2,92.7,101.6
			C524.7,2914.9,561.3,2913.8,597.9,2912.2z M699,442.4c60.1,2.1,110-17.9,144.8-68.5c38.2-55.6,55.7-118.7,65.4-184.6
			c2.4-16.1-3-19.2-17.9-18.9c-68.1,1.3-136.3,0.5-204.4,2.5c-63.7,1.8-127.5,3.8-190.5,16.2c-54,10.6-88.7,41.3-103.1,94.3
			c-7.4,27.2-9.3,54.9-7.7,83.2c0.8,14.3,6.1,20.8,20,25.4C500.9,423.5,599.1,437.8,699,442.4z"/>
		<path class="st0" d="M2128.5,2513.1c-71.4-0.7-130.4-59.9-130.1-130.7c0.2-71.7,61.7-132.2,132.6-130.6
			c71.6,1.6,129.9,61.4,128.8,132C2258.7,2455.5,2199.5,2513.8,2128.5,2513.1z M2128.1,2459.1c44.5,0.3,78.4-32.7,78.4-76.5
			c0-42.9-33-76.2-76.1-76.7c-45-0.5-77.7,31.7-77.7,76.5C2052.8,2426.8,2084.4,2458.9,2128.1,2459.1z"/>
	</g>
</g>
</svg>
