<?xml version="1.0" encoding="utf-8"?>
<!-- Generator: Adobe Illustrator 23.0.0, SVG Export Plug-In . SVG Version: 6.00 Build 0)  -->
<svg version="1.0" xmlns="http://www.w3.org/2000/svg" xmlns:xlink="http://www.w3.org/1999/xlink" x="0px" y="0px"
	 viewBox="0 0 3000 3000" style="enable-background:new 0 0 3000 3000;" xml:space="preserve">
<style type="text/css">
	.st0{opacity:0.47;}
	.st1{stroke:#000000;stroke-width:10;stroke-miterlimit:10;}
</style>
<g id="Layer_1" class="st0">
</g>
<g id="Layer_2">
	<g>
		<path class="st1" d="M2699.6,1389.5c23.5-6.3,43.6-19.7,64.8-30.7c38.4-20,68.4-2.6,70.1,40.6c1.3,33.8-2,43.2-28.4,80.8
			c41.1,8.9,57.9,37.9,45.1,79.4c-8.8,28.7-27.3,50.3-52.2,66.5c-8.2,5.3-14.6,10.8-14.2,21.9c1.5,49.9-9.9,95.3-50.4,130
			c3.9,1.6,5.3,2.7,6.4,2.6c28-3.8,52.2,2.9,64.4,30.2c13,28.8,7,56.2-13.7,80.2c-13.5,15.6-30.7,26.1-48.7,35.4
			c-142.2,73-293.9,107.4-452.9,111.6c-43.4,1.1-83.3-9.1-118.1-47.5c10.7,35.4,17.2,65.3,18.7,100.6
			c25.1-46.4,64.4-49.6,104.6-42.3c152.1,27.5,289.5-7.3,415.7-93.6c18.6-12.7,36.7-26,59.3-31.2c29.6-6.9,62.1,4.1,76.1,26.9
			c13.9,22.7,9.8,49.7-11.2,75.1c-15,18.1-34.9,30.5-52.6,45.2c2.1,5.2,5.2,2.4,7.5,1.8c26.7-7.4,51-5.3,69.2,18.2
			c16.4,21.2,16.7,54.1,1.6,79.2c-16.1,26.7-42.1,40.6-69,53.3c-7.6,3.6-15.2,7-28.8,13.3c32,0.2,52.4,8.9,62,34.8
			c10.3,27.8-0.1,50.5-17.2,70.9c-28.2,33.4-65.7,53.7-104.7,72.8c11.6-2.6,23-5.8,34.8-7.5c27.7-4,44.2,15.1,37.7,42.6
			c-7.2,30.4-27.9,48.9-53.7,63.9c-46.9,27.3-97.9,38.2-151.3,40.7c-85.4,4-170.9,6.5-256.1-4.2c-53.2-6.7-102.5-23.7-145.2-57.4
			c-10.1-7.9-17.6-17.4-21.8-29.5c-8.9-25.9,7.7-51.8,35.2-53c12.1-0.5,24.3,2.3,41.6,4.2c-23-14.9-38.8-30.1-46.9-52.1
			c-14-38.3-2-82.6,56.6-73.5c3.8,0.6,7.7,1.2,13.3,2.1c-11.9-12.5-27.1-19.6-35.1-34.1c-9.3-16.9-16.1-34.3-6.2-53
			c10.8-20.6,31-25.3,51.6-25.7c12.9-0.3,26,3.6,38.9,6.1c161.8,30.5,311.8,0.5,450.3-87.8c1.9-1.2,3.4-3.1,4.6-6
			c-37.9,15.7-75.8,31.2-115.1,42.7c-110.3,32.3-222.6,48.6-337.6,38.7c-42.8-3.7-84.2-14-109.1-59.9c-6.9,40-12.7,76.6-22.5,112.3
			c-30.8,111-93.3,200.4-183.4,271.2c-10.4,8.2-21.4,15.3-34.3,19.2c-10.6,3.2-18.2-1.7-24.8-8.7c-6.8-7.4-6.1-16.1-0.7-23.6
			c11.3-15.8,22.9-31.3,35.1-46.4c55.2-67.9,90.1-145.2,101.1-231.8c16.6-131.3-35.8-231.2-144.4-303.7
			c-9.7-6.4-19.8-12.2-32.4-19.9c26-17.9,46.6-39.1,64.2-63.1c93.6-127.4,33.8-308.1-115.4-347c-52.4-13.7-104.8-8.2-156.9,3.3
			c-12,2.7-23.9,6.1-36.1,8c-11.8,1.8-24.1,1.9-29.6-11.9c-4.9-12.3,2.7-20.6,11.1-28c2.9-2.6,6.2-4.7,9.6-6.6
			c152-88,336.1-59.7,440.4,70.9c72.8,91.2,76.7,227.2,8.1,334.2c-12.9,20.1-10.2,28.4,7.8,40.8c27.7,19,48.2,45.7,71.4,80.8
			c-6.9-59.2,13.8-92.5,67.7-99.8c-3.5-7.5-9.8-5.8-14.8-6.5c-37.9-5.5-60.8-31.6-59.3-68c1.4-35.2,28.2-61.3,65.3-63.1
			c10-0.5,20.6-1.2,30.1,1.4c95.2,25.7,189.8,11.2,284.3-3.9c57.5-9.2,114.1-22.2,168.1-44.8c4-1.7,7.8-4.1,11.2-7.7
			c-39.8,9.6-78.7,22.2-118.8,29.5c-94.1,17-188.5,32.2-284.7,25.5c-41-2.8-79.4-14.4-113.3-38.4c-15-10.6-28.8-23.1-23.3-44.1
			c5.5-21,23.8-25.3,42.1-26.8c15.4-1.3,31-0.8,46.5-0.2c112.1,4.4,223.8,3.3,333.3-26.1c35.3-9.5,69.6-21.7,102.4-38
			c16.6-8.2,32.5-17.9,49.1-27.2c-6.5-6.8-10.6-1.2-14.3,0.5c-114.5,52.1-236,70-360.4,74.2c-47.4,1.6-94.8,3.3-142.1,4.6
			c-19,0.5-37.1-3.2-53-14.2c-17.3-12-27.1-28-23-49.5c4.1-21.6,19.7-32.5,39.9-37.7c5.2-1.3,10.7-1.6,20-2.9
			c-51.6-15.4-101.2-28.2-123.9-80.4c-20.8-47.8-13.3-96.9-7.7-146.9c-13.4,32.8-26.8,65.6-41.1,100.6
			c-37.6-45.4-53.2-96.5-50.2-153.5c4.4-82.6,39.4-154.2,83-222.2c33.6-52.4,72.1-101.2,114.1-147.2c10.9-12,21.3-24.4,31.9-36.6
			c3-3.9,6-7.9,9-11.8c9.8-4.8,17.7-11.8,25.4-19.3c38.5-37.4,78.5-73.1,125.6-99.8c33.8-19.1,69-26.4,107.4-13.7
			c42.6,14.1,53.6,32.5,40.3,77.8c12.7-8.9,23-16.4,33.5-23.4c59.1-39.3,124.2-59.5,195-61.3c7.7-0.2,15.7,0.2,23.1,2.1
			c11.5,3,22.3,8.5,24.8,21.6c2.3,12-3.9,21.1-13.2,27.9c-8.1,6-16.2,12.3-25.1,16.8c-151.9,75.8-273.3,190.4-391.3,309
			c-45.5,45.7-89.3,93.1-129.2,143.9c-38,48.3-54.6,102.6-42.5,163.5c7.8,39.1,30.9,56.4,70.9,56.7c79.1,0.8,153.2-21.2,225.9-49.4
			c96-37.3,185.5-85.8,262.6-155.2l-0.7,0.7c15.1-2.3,29.2-9.9,45.2-7.9c22.9,2.7,42.3,11.2,51.9,33.3c9.5,21.9,4,42.4-10.6,60.5
			c-22.2,27.4-51.2,46.8-80.8,65.1c-21.5,13.3-43.8,25.4-65.7,38.1c-16.5,6.6-32.9,13.3-49.4,19.9
			c-107.5,43.1-218.6,73.9-333.4,95.9C2442.2,1520.9,2534.9,1473,2699.6,1389.5z M2722.5,707.2c-50.7,1.2-96.2,17.2-137.8,44.4
			c-43.8,28.6-82.1,63.8-120.1,99.4c-113.2,105.8-220,217.1-304.7,348c-29.9,46.2-46.8,96.1-46.9,151.2
			c-0.1,56.9,14.9,79.9,69.6,99.1c38.7,13.6,79.1,18.3,119.4,14.2c98-9.9,190.5-42.3,283.1-73.2c67.9-22.6,132.4-53.4,190.9-95.3
			c14.5-10.4,29-21.3,39.2-36.2c10.6-15.4,4.6-27-13.9-28.7c-17.1-1.6-29.7,7.7-41.6,17.8c-62.7,53.4-134,92.7-209.1,125.2
			c-84.4,36.6-171.3,64.2-264.3,69.2c-77.4,4.2-125.5-38.9-129.1-116.6c-3-64.2,16.1-120.9,56.5-170.6
			c72.2-88.8,151.5-170.9,236.4-247.4c62.3-56.1,124.4-112.6,196-157C2671.2,735.5,2697.1,721.7,2722.5,707.2z M1821.5,1425.7
			c93.5,21.4,158.7,76.4,192.7,165.3c36.4,95.3,17.5,183-44.9,262.2c-18.2,23-18.3,22.7,5,41.9c58.8,48.3,99.1,108.4,117.9,182.6
			c23,90.8,4.6,176.9-28.8,261.5c-2.8,7.1-8.9,13.4-6.3,24.8c5.2-7.1,8.9-11.9,12.4-17c41.8-61.7,62.6-130.9,75.5-203.5
			c18.7-104.6-15.5-188.4-103.6-247.5c-33.9-22.7-32.7-21.9-9.4-54.7c61.2-86.3,79.7-180.5,29.8-276.2
			C2012.4,1470.7,1926,1429.4,1821.5,1425.7z M2301.9,2000.3c32.4-3.2,65-5.6,97.3-9.8c114.7-14.9,224.8-45.9,327.6-99.8
			c17.1-9,34.4-18.4,43.2-37.4c4.6-9.9,5-20.2-1.7-28.7c-7.5-9.4-17.7-7.5-27.6-3c-7.7,3.6-15.8,6.6-23.3,10.4
			c-111.4,57.2-229.5,83.6-354.8,80.3c-43.6-1.1-85.9-14.1-129.7-11c-34.4,2.4-49,29-32.2,59.2c10.4,18.8,27.6,29.1,48,34
			C2266.1,1998.9,2283.8,2000.8,2301.9,2000.3z M2033.7,1273.3c47.3-104.6,108-199.8,174.2-292.2c68.8-96,146.3-181,252.1-236.8
			c8.1-4.3,15.3-10.6,22.6-16.4c11.1-8.9,10.6-14.7-3.8-20.4c-39.8-15.7-72.9-0.9-104.2,21.6c-92.3,66.5-168.7,148.8-236.6,239.4
			c-45.4,60.6-83.9,124.9-103.2,199.1C2025.7,1202.7,2024.1,1237.8,2033.7,1273.3z M2418.7,2413.1c82.3-0.8,138.7-6.7,194.4-18.2
			c58.1-12,115.3-26.8,159.2-71c11-11.1,24.7-24.8,14.4-40.4c-11.8-17.8-26.7-1.3-38.6,4.1c-133.4,60.8-272.5,82.5-418,63.2
			c-32.5-4.3-64.1-11.3-95.2-21.2c-7.4-2.4-16.2-6.6-22.1-0.7c-7.3,7.4,0.6,15.9,3.3,23.3c7.9,21.6,27.5,28.5,46.8,34.6
			C2321.8,2405.4,2382.4,2413.1,2418.7,2413.1z M2374.6,2136.4c117.3-3.4,239.3-25.4,354-80.4c28.9-13.9,55.2-31.7,76.8-55.7
			c7.2-8,15-17.7,7.6-29c-6.6-10-17.8-11.5-29.2-10.3c-11,1.2-20.9,5.7-30,11.9c-14.2,9.5-28.1,19.5-42.5,28.6
			c-117.4,74.3-244.8,107-383.6,91.8c-22.3-2.4-44-9.6-66.7-8.2c-11.7,0.7-26,2.5-28.5,15.6c-2.6,13.1,11.4,16.2,21.1,20.7
			C2289.5,2138,2327.8,2135.6,2374.6,2136.4z M2376.4,2271.2c92.6-3,184.2-14.5,273.8-38.3c56.3-14.9,112-32.5,160.8-65.7
			c21.2-14.4,29-38.2,17.2-51.7c-16-18.4-31.8-4.1-45.2,4.7c-156.1,103-324.9,139.1-508.9,99.5c-10.6-2.3-26.8-7.9-31.2,4.6
			c-4.2,12,8.5,21.9,20,27.6c8.3,4.1,16.9,7.7,25.7,10.6C2317.3,2272.1,2346.8,2272.6,2376.4,2271.2z M2738.6,1703.6
			c-52.1,22.5-100.8,37.7-151.2,47.3c-116.1,22.2-232.2,43.5-350.3,13.3c-7.2-1.8-15.6-1.2-23,0.2c-14.6,2.7-23.3,11.4-23.5,27.2
			c-0.2,15.3,8.7,22.9,22.4,25c12.2,1.8,24.7,2.6,37,2.4c84.4-1,168.7-2.8,252.5-15.2c60.6-9,121.3-17.1,178.7-40
			C2707.3,1753.3,2727.2,1736.2,2738.6,1703.6z M2327.9,1564.3c79.1-6.9,158.5-8.5,236.2-26.4c69.8-16.1,137.6-37.9,199.1-76
			c20.6-12.8,32.4-30.4,33.5-55.2c0.7-16.3-4.7-19.7-18.7-11.7c-66.1,37.5-136.6,66.1-204.7,99.7c-110.1,54.5-226.4,60.5-345.5,45.6
			c-12.3-1.5-24.8-4.5-35.7,3.9c-1.5,1.1-1.8,6.6-0.4,8.2c9.5,11.2,22.8,11.8,36.1,11.8C2261.1,1564.3,2294.5,1564.3,2327.9,1564.3z
			 M2219,1655.4c22.7,16.7,44.5,23.3,67.1,27.3c49.4,8.8,98.9,4.8,148.4,0c102.2-9.8,202.8-27.2,298.7-65.6
			c23.2-9.3,45.3-20.6,62.7-39.1c17.5-18.6,21.6-33.5,14.5-54.6c-36.9,27.9-74.9,52.9-117,71.3c-104.3,45.6-214.2,60.4-326.9,60.6
			C2319.1,1655.5,2271.5,1655.4,2219,1655.4z M2186.7,2450.9c25,29.9,57.2,44.8,92,52.7c98.2,22.5,197.6,15.3,296.9,11.1
			c47.5-2,91.9-12.9,132.5-38c10-6.2,20.8-12.1,24.3-27.7C2549.2,2503,2368.3,2519.4,2186.7,2450.9z M2479.3,782.4
			c-153.9,71-230.8,213.1-320.5,343.5C2252.1,999,2364.6,889.9,2479.3,782.4z M2265.5,1860.2c135.6,28,265.6,10.7,390.9-44.2
			C2528.2,1848,2396.8,1853.8,2265.5,1860.2z M2362,2313.6c125.5,12.5,246-4.9,360.1-59.7C2605.1,2291.9,2484.1,2305.7,2362,2313.6z
			 M2433.4,2455.3c46.9,1.7,93-0.7,138.4-12.4C2525.8,2447.1,2479.9,2451.2,2433.4,2455.3z M2381,2450.2
			c-37.3-2.7-73.8-12.4-110.8-18.5C2305.7,2446,2342.3,2453.4,2381,2450.2z"/>
		<path class="st1" d="M1007.1,876.6c-16.6,43.7-22.6,90-33.3,135.1c-21.8,92-41.8,184.5-63.2,276.6c-3.7,16-4.1,31.4-3.5,47.8
			c1.8,48.1,1.5,96.4,1.2,144.6c-0.2,31.7-14.1,45.9-45.6,46.4c-24.8,0.3-49.8-0.6-74.5-2.9c-24.3-2.2-39-18.8-36.7-42.5
			c3-31.9-1.1-65.5,18.2-94.9c-4.5,3.5-8.8,7.6-13.7,10.4c-19.1,11.3-35,4.7-40.8-17c-6.8-25.7-0.5-51,3.8-76.1
			c3.4-19.7,8.2-39.1,9.2-59.6c-5.4,13.6-9.8,27.8-16.5,40.7c-15.1,29.1-38.1,49-71.7,53.2c-27.7,3.5-47.5-11.7-49.6-39.6
			c-4.4-58.3,3.8-116.3,6.9-174.5c0.9-17.1,3.1-34,0-51.4c-1.6,18.9-2.1,37.7-11.1,55.3c-10.4,20.2-25.8,30.8-48.3,28.7
			c-20.4-1.9-36-18.4-35.4-42.5c1.3-56.8,10.6-112.6,29.8-166.4c4.2-11.8,13-20.2,26.2-19.4c12.7,0.8,21,9.6,25.7,21
			c7.1,17.4,9.5,35.8,11.3,54.4c1.2,12.9-0.8,26.3,7.6,43c0-62.3,7.9-120-3-177.6c-4.4-23.6-8.2-25.8-27.5-10.8
			c-51.3,40-83.5,92-89.1,157.4c-4.9,57.3,2.6,112.9,29.5,165.2c30.4,59.1,27.6,117.7-5.3,175.7c-40.4,71.3-35.5,144.7-4.9,217.5
			c15.9,37.9,45.8,61.8,86.8,70.8c15.9,3.5,32,6.7,47.2,12.2c27.7,10.1,39.7,34,34.6,63.2c-3.6,20.3-12.6,38.4-21.2,56.5
			c-15.2,31.9-24.5,65.2-29.4,100.1c-5.9,42.3,10.6,65.1,53,71.3c30.6,4.5,60.6-0.8,90.3-6.4c67.6-12.7,122.7,6.3,165.2,60.7
			c1.4,1.8,3.3,3.4,4.5,5.4c41.7,72.7,105.5,110.5,187.6,122.3c30.4,4.4,56.6,20.9,78,43.7c25.1,26.6,32.2,57.6,23.3,94.5
			c31-43.5,67.7-76.9,126.1-73.3c-4.1-10.6-11.7-16.7-17.9-16.8c-25.7-0.3-43.7-16.3-61.7-30c-18.6-14.1-42.1-13.6-61-27
			c-35.2-25-72.6-46.9-108.7-70.6c-35.3-23.1-38.9-47.8-9.6-77.2c11.8-11.9,14.5-18.8,3.8-33.9c-23.8-33.9-14.3-67.9,23.2-90.4
			c43.7-26.2,92.1-29.6,141.7-28.1c34.8,1.1,69.8,5.9,104.4-3.3c12.2-3.2,23.6-7.9,34-14.8c27.9-18.7,39.3-45,31.3-71.4
			c-8.6-28.6-37.5-48.9-69.6-48.7c-30.7,0.2-54.8,15-76.2,35.3c-18,17.1-34.2,36.2-55.3,49.8c-32.6,21-66.5,26.5-100.7,5.6
			c-32.7-19.9-50.7-65.3-43.8-103.7c10.1-56.6,47.5-93.2,92-123.3c92.9-63,196.5-87.3,304-56c77.7,22.6,151.5,23,229,8.3
			c53.7-10.2,108.4-8.5,160.3,13.8c84.4,36.3,120.9,113.9,95.7,202.2c-16.5,58-54,100.5-99.3,137.5c-9.5,7.8-19.6,14.9-32.3,24.4
			c33.1,9,62.3,20.3,87.9,39.2c56.7,41.6,88.9,98.8,103.4,166.3c21.1,98.1,14.1,193.5-34.4,282.9c-55.7,102.8-156.9,153.3-276.9,139
			c12.3-14.7,28.3-22,42.4-31.4c81-53.6,130.5-128.1,143.7-224.2c8.2-59.4-11.9-112.6-53.6-155.4c-51.5-52.9-157.8-34.6-191.4,31.2
			c-3.7,7.2-8,15.4-2.8,21.8c6.3,7.8,15.8,3.6,23.6,0.2c4.9-2.2,9.8-5,13.9-8.5c37.7-31.8,78-31.3,119.2-8.7
			c42.7,23.4,70.6,59.2,67.3,108.8c-8.9,136.5-117.5,273.6-296.3,244c-18.3-3-36.3-7.3-60.6-12.2c24.6-11.1,44.2-18.9,62.9-28.5
			c63.6-32.6,81.7-111,38.9-166.4c-1.7-2.3-3-5.7-8.8-4.4c0.7,17.8,2.6,36.1-0.2,54.3c-11.1,72.5-53,120.9-118.5,150.3
			c-52.8,23.8-108,32.3-166,26.5c-81.9-8.1-164-14.6-246-21.7c-21-1.8-34.9-23.7-31.2-50.2c5-35.7,25.2-61.1,55.4-79.3
			c9.9-5.9,20.3-10.9,30.4-17.9c-50.7,5.4-98.9-10.9-148.4-14.1c-58.7-3.7-110.1,15.7-152.6,56.7c-12.8,12.4-23.9,26.5-35.7,40
			c-48,55-118.2,44.2-147.1-22.9c-4.9-11.4-8.8-23.2-9.8-35.9c-6.5,0.3-6.9,5.5-8.6,9.1c-56.4,115.6-153,166.6-277.4,172.1
			c-41.3,1.8-81.8-4.8-121.8-15.5c-123-32.8-192.4-139.5-172.5-265.8c27.9-176.6,176.1-277.4,351.9-239.8
			c33.4,7.2,66.7,14.4,98.3,27.9c77.1,32.8,124.8,89.9,141.2,172.5c1.3,6.7,3.1,13.4,5.6,24.1c17.1-65.9-1.1-118.8-42.3-164.4
			c-62.9-69.8-143.6-94.3-235.4-88.9c-61.6,3.7-120.5,22-180.9,32.3c-8.4,1.4-17,2.6-25.4,2.7c-42,0.1-65.6-24.8-61.1-66.7
			c6.9-63.2,15.5-126.3,23-189.5c21.5-179.6,51.9-358.4,44.4-540.4c-1.3-31.8,0.9-63.6,3.1-95.5c3.6-52.5,22-98.4,57.3-137
			c39.4-43,58.6-93.6,64.9-151.1c12.9-118.8,100.9-202,221.7-208.9c70.1-4,139.4,7.3,207.3,23.7c39.6,9.6,63.8,49.6,58.6,94.7
			c-6.2,54.7-16.4,109-22.5,163.8c-5.8,52.4-8.5,105.1-8.8,158.2c9.7-54.9,19.3-109.8,29.3-164.6c10.5-57.2,20.7-114.4,32.4-171.4
			c7.5-36.5,27.3-65.6,58.7-86.3c43.7-28.8,87.4-18.3,111.1,28.6c19.1,37.9,28.7,78.6,24.1,121.6c-1.4,13.1-2,26.3-3,39.5
			C1014.4,854.1,1010.7,865.3,1007.1,876.6z M627.7,1221.4c0,21.7,0.5,43.5-0.2,65.2c-0.4,14.2,5.6,15.7,17,11
			c20.2-8.3,32.7-23.5,38.7-43.8c12.9-43.2,21.6-87.3,28.6-131.8c12.4-78.4,12.7-158,22.9-236.6c5.7-43.9,16.7-87,18.9-131.3
			c2.1-41.7-9.6-57.3-49.8-64.4c-50.5-8.9-101.3-15.9-152.7-17.5c-107.9-3.4-198.3,70.3-207.1,170.6
			c-5.9,66.5-27.2,125.5-72.8,175.1c-28.8,31.3-45.8,68.1-48.9,110.8c-1.7,24-3.6,48.2-2.7,72.2c6.2,170.9-15.2,339.7-37.6,508.5
			c-10.3,77.8-20.6,155.5-29.5,233.5c-4.7,41.1,0.2,45.5,40.7,38.7c35.1-5.9,69.8-14.7,104.8-21.5c93.6-18.3,184.9-18.3,271.6,30.3
			c109.6,61.4,153.7,162.3,121.3,283.2c-6.4,24.1-12.9,48.1-11.8,73.3c1.2,28.3,19.2,58,39.6,63.9c27.1,7.7,41.3-11.3,56.1-28.6
			c6.1-7.1,12.2-14.1,18.5-21c38.4-42.5,85.8-68.2,142.2-78.2c44.8-8,88.1,2.1,131.8,8.5c30.8,4.5,62,7.2,90.5-10.6
			c36.6-22.8,39.7-54.3,8.7-84.1c-24.9-24-56.9-31.9-88.8-37.4c-63.3-10.8-112.6-41.9-149.8-93.7c-11.8-16.4-25.1-31.6-37.5-47.6
			c-22.8-29.4-53.2-42.3-89.6-40.4c-17.8,0.9-35.5,4.1-53.1,7c-37.2,6-74,8.5-110.1-6.2c-38-15.5-57.8-43.9-56.8-84.5
			c1.4-55.5,20.8-106.1,43.7-155.7c16.9-36.4,13.4-43.7-26.7-50.7c-59.1-10.4-105.5-39.6-129.5-95.2c-36.4-84.4-41.8-170,5-253.3
			c17.5-31.1,24.7-63.4,19.3-98.5c-3-19.5-13.1-36.4-20.5-54.2c-34.7-82.8-42.2-166.8-7.3-251.2c19.1-46.1,49.7-84.4,91.4-112.4
			c37.9-25.4,69.7-12.6,80.4,31.6c2.7,11.3,4.5,22.9,5.3,34.5C649.9,999.9,634.6,1110.4,627.7,1221.4z M1642.1,2446.6
			c117.1-11.1,174.6-97.8,193.1-193.6c7.2-37.1-9.2-66.3-41.8-86.5c-31.1-19.3-59.9-17.9-87.5,6.4c-3.4,3-7.7,5.2-11.8,7.4
			c-26.9,14.5-54.6,12.7-71.4-4.5c-17-17.4-18.1-44-2.8-71.3c51.4-92.1,190.2-109.2,259.8-30.2c53.2,60.4,70.7,132.4,52.5,210.9
			c-12.4,53.4-35.8,102.5-71.6,145c-3.9,4.7-10.3,8.5-10.8,17c33.3-16.3,55.7-33.4,76.8-58.2c82.5-97.1,92.8-282.3,21.6-387.9
			c-48.8-72.3-119.2-99.2-204.3-78.4c-25.8,6.3-51.8,11.9-77.6,17.9c4.7-8.5,11.1-12.4,17.4-16.5c51-32.6,104.4-61.5,152.4-98.6
			c41.2-31.8,75.3-69.2,90.2-121.1c19.4-67.5-5.8-124.4-69.7-153.7c-43.3-19.8-89.2-22.3-134.8-14c-84.1,15.3-165.1,18.4-250-6.8
			c-110.5-32.8-213.6-2.9-302.7,70.4c-24.3,20-43.9,44.4-47.8,77.5c-3.2,26.8,4.8,50.1,28.1,64.5c22.8,14.1,44,3.4,62.3-10.8
			c15.3-11.8,28.6-26.3,42.5-39.8c32-31.1,68.9-49.7,115-46.7c43.1,2.7,82.1,32.4,95.5,73.8c12.7,39.2-0.3,80.1-34.7,108.3
			c-23.5,19.2-50.6,29.2-80.6,33.3c-41.2,5.6-82.3-2.5-123.4-0.5c-32.2,1.6-63.4,6.9-91.1,24.3c-16.2,10.2-19,22.5-6.2,38.7
			c16.9,21.3,37.1,33.3,64.9,35.5c40.2,3.1,75.7,19.1,100.3,52.2c22.1,29.6,50.8,44.8,86.7,47.7c17,1.4,34.2,1.3,51.2,2.4
			c22.6,1.4,42.3,8.3,55.3,28.7c35.9,56.4-5,139.5-71.4,143.8c-22.4,1.4-45.1,0.2-67.6,0.6c-28.3,0.5-54.3,7.2-71.2,32.3
			c-35.8,53.2-82.5,91.9-143.4,113.5c-18.6,6.6-33,20.4-41.4,39c-6.9,15.3-5.5,23.5,15,25c61.2,4.4,122.2,11,183.2,16.4
			c64.5,5.8,128.5,8.6,189.3-21.4c54.5-26.9,88.3-67.5,93.3-129.2c2.7-32.5-7-62.9-18.3-92.9c-3-8.1-10.7-15.5-6.2-25.6
			C1660.4,2213.9,1729.6,2333.7,1642.1,2446.6z M367.1,2499.4c86.1-3.1,174.7-41.9,227.1-143.7c56.3-109.6,8.9-233.7-105.8-277.9
			c-28.3-10.9-57.7-17.5-87.4-23.6c-158.3-32.3-288.1,63.2-303.6,223.7c-8.3,86.4,32.9,160.2,110.6,194.3
			C251.1,2491.1,296.9,2499.3,367.1,2499.4z M751.4,1340.4c18.2-16.8,32.8-29.3,46.4-43c16.4-16.5,35.6-29,57.9-32.5
			c18.4-2.9,23.5-12.6,27.1-28.3c30.5-136.8,62.2-273.4,92.1-410.3c9.8-45.1,5.4-89.6-18.7-130.5c-13.9-23.6-28.3-26.9-51.6-11.7
			c-30.5,19.8-42.2,50.2-48.2,84.1c-27.9,157.1-55.7,314.1-84,471.1C766.5,1271.9,759,1304.3,751.4,1340.4z M870.1,1361
			c-2.1-0.8-4.2-1.6-6.3-2.4c-19.5,17.4-39.4,34.5-58.5,52.4c-10,9.4-20.9,62.7-13.3,70.5c11.4,11.8,27.6,3.1,41.6,5.1
			c7.6,1.1,15.4,0.5,23.1,1.1c10.1,0.7,13.5-3.9,13.4-13.7C869.9,1436.4,870.1,1398.7,870.1,1361z M1425.7,2098.4
			c-25.7-3.8-30.6,20.2-42.9,33.3c-20.6,22.2-19.4,22.7,5.8,39.7c8.4,5.6,14.2,6.9,21.9-0.9c9.7-9.9,21.1-18.2,31-28
			c7.6-7.5,21.4-11.8,14.8-27.5C1450.5,2100.7,1438.2,2099.6,1425.7,2098.4z M1239.9,2014.2c-1.8,0.3-3.9,0-4.6,0.9
			c-13,15.3-30.7,29.1-37.1,46.8c-4.1,11.4,19.2,16,29.1,24.9c8.1,7.4,12.8,3.8,17.6-4.6c3.8-6.6,10.4-11.6,14.5-18.1
			c4-6.3,17.9-8.3,11.2-19.4C1262.9,2032.4,1253.9,2020.4,1239.9,2014.2z M1190.1,1997c-17.9-1.9-31.3-4.6-44.3-10
			c-17-7.1-23.9,8-30.7,17.6c-8,11.3,6,13.5,11.9,17.4c28.5,19.2,28.7,18.9,50.4-8.2C1181.1,2009.2,1184.5,2004.3,1190.1,1997z
			 M1357.6,2095.5c-7.9-2.5-17.1-3.2-23.5-7.8c-24.2-17.3-33.5,2.7-45.5,16.7c-3.8,4.4-3,7.5,0.9,11.8c20.8,22.5,37,22.6,55.6-0.9
			C1349.6,2109.4,1356.8,2104.9,1357.6,2095.5z M555.6,1017.7c-7,32.7-16.6,64.9-9.9,98.4C562.5,1084.5,557.9,1050.8,555.6,1017.7z
			 M780.7,1379.1c27.9-24,55.9-48,83.8-72C823,1315.2,804.1,1350.1,780.7,1379.1z"/>
		<path class="st1" d="M1007.1,876.6c3.6-11.3,7.3-22.5,7.2-34.5c12.2-29.6,15.8-61.4,24.1-92c5.7-21.1,11.7-41.8,23-60.7
			c17.6-29.5,42.3-42.7,71.1-37.6c26.6,4.7,48.7,28.8,55.6,59.3c8.5,37-2.5,72.5-7.5,108.4c-7.8,55.7-17.1,111.2-23.9,167.1
			c20.9-87.6,48.3-173.3,72.7-259.8c4.2-14.9,9-29.8,15.4-43.8c16.5-36.1,47.2-54.5,78.9-48.7c35.8,6.6,65.2,38.8,69.2,75.5
			c4.4,40.2-6.4,78.7-13.9,117.4c-21.6,111.1-43.6,222.1-64.9,333.3c-12.3,64.5-47.3,109.7-108,135.9c-34,14.7-66.8,31.9-103,49.3
			c-0.6-40.7,9-77.1,8.1-115.6c-14.1,31.7-37.9,54.6-68.7,78c33.1,0,39.3,17.8,39.2,42.4c-0.2,42.7,1.5,85.5,1.6,128.2
			c0.1,40.4-17,56.1-57.6,54.4c-20.2-0.9-40.4-1.1-60.5-3.2c-27.9-3-38.9-17.1-39.6-44.8c-1.4-51.2,11.6-95.2,57.1-124.9
			c6.4-4.2,11.5-10.3,21.7-19.7c-16.1,5.6-26.5,9.9-37.3,12.7c-30.2,8-47-6.9-43.1-37.8c6.4-50.9,25.3-99.2,32.3-150
			C969.9,1068.6,990.8,973,1007.1,876.6z M1148,1278.3c98.4-38.1,114.5-59.6,129.3-132.8c26.5-131.4,51.5-263,76.6-394.7
			c3.2-16.7,4.4-34.3-3.6-50.3c-7.6-15.1-18.8-27.9-37.1-27.8c-17.8,0.1-27.4,12.6-33.3,28.1c-3.3,8.7-6.7,17.4-9.4,26.2
			c-37.3,123.2-73.3,246.7-95.6,373.7C1164.7,1158.6,1157.2,1216.9,1148,1278.3z M963.3,1316.8c53.7-37,107-65.1,119.2-132.6
			c25.3-140.5,45.3-281.8,67.3-422.7c2.3-14.5,4-29.5,0-44c-3.7-13.3-10.7-25.1-25.3-27.6c-14.5-2.5-22.4,8.5-29.3,19.1
			c-9.1,13.8-13.1,29.8-17.3,45.5C1027.8,937.3,1007.8,1126.2,963.3,1316.8z M1044,1359.6c-22.9,19.9-39.9,35.4-57.7,50.1
			c-24.8,20.4-22.8,50.6-19.3,75.3c2.1,15.1,29.8,4.6,45.6,7.8c4.5,0.9,9.6-0.5,13.9,0.9c14.4,4.4,17.7-2.6,17.6-15.2
			C1043.8,1441.2,1044,1403.9,1044,1359.6z"/>
		<path class="st1" d="M1308.4,1341.2c8.3-112.1,22.7-218.9,44.3-324.7c16.2-79.7,28.6-160.1,49.2-238.9
			c14.5-55.4,39.4-104.5,87.8-138.5c57.5-40.3,128.9-33.1,169.7,17.6c21.9,27.2,26.3,57,10.9,89.2c-14.1,29.4-36.9,51.9-60,73.7
			c-41,38.5-61.9,86.3-70.4,140.8c-6,38,1.5,74,14.2,109.5c13.5,37.9,31.3,74.3,36.1,115c2.7,22.9,1.4,45.2-4.9,66.8
			c-21,72.1-62.7,132.1-117.5,181.4c-58.4,52.6-146.8,31-155.8-59.2C1310.7,1361.6,1309.3,1349.3,1308.4,1341.2z M1570.7,651.5
			c-22.6,0.6-41.2,7.8-58.1,19.4c-40.8,28.1-61.9,69.3-72.5,115.6c-33.9,149-64.7,298.6-82.8,450.5c-5.4,45.3-13.4,90.9-6.3,136.8
			c6.9,45,40.9,60.9,80.2,37.7c9.2-5.4,18.1-12.3,25.2-20.3c31.1-34.9,58.6-72.5,79.1-114.6c19.9-41,22.8-83.3,6.9-126.5
			c-8.8-24-18.6-47.7-26.6-72c-34.9-105.3-13.8-198.6,61.2-280c16.8-18.3,34.4-35.9,50.1-55.1c14.1-17.4,19.8-37.6,5.1-57.8
			C1616.9,664,1595.6,652.5,1570.7,651.5z"/>
		<path class="st1" d="M2759,1198.2c-18.4,1.2-32.9,12.4-48.8,19.6c-114.7,52.1-232.8,94.4-354.6,126.8c-25.2,6.7-50.2,9.3-75.4-0.6
			c-44.1-17.4-55.3-53.8-24.9-90.2c51.8-62,104-123.7,158.2-183.6c82.5-91.2,170.3-177,270.3-249.3c32.9-23.8,67.1-45.1,106.8-55.8
			c99.1-26.5,178.5,34,183.4,140.5c5.7,123-50.1,208.8-159.5,262.6c-19,9.3-40.6,14.7-56.1,30.7
			C2758.3,1198.9,2759,1198.2,2759,1198.2z M2935.9,925.3c0.2-18.7-2-37.2-7-55.3c-13.7-49.1-52.6-75.8-103.3-71.3
			c-37.6,3.3-70,19.8-100.3,40.8c-61.5,42.5-117.9,91.1-172.1,142.6c-96.1,91.1-180.2,193-265.5,293.9c-15.1,17.8-10.9,28,12.1,33.6
			c14.8,3.6,29.4,1.7,43.8-2.1c163.5-43.1,319.6-104.8,469.3-183.4C2893.4,1081.9,2933.6,1015.7,2935.9,925.3z"/>
		<path class="st1" d="M1714.7,1059.1c-90.3,0.1-142.9-69-118.5-157.1c16.7-60.4,51-111.2,91.7-157.8c25.1-28.8,53.6-54.1,83.3-78
			c7.8-6.3,16.4-11.9,25.6-15.9c27.8-12,53-0.8,63.7,27.7c13.8,36.6,4.2,68.4-20.1,97.3c-19,22.7-44.4,39.2-61.3,63.7
			c-9.4,13.6-17.7,27.9-9.3,45.3c3.9,8,9.1,14.8,18.8,15.3c9.4,0.6,13.9-6.5,17.4-13.4c4.5-9,8.1-18.5,11.6-27.9
			c26.3-70.4,61.4-135.8,110.5-193.1c15-17.5,33.2-30.3,56.9-33.3c43.1-5.4,72.5,22,70.5,65.2c-0.8,16.8-6.9,31.8-14,46.5
			c-49.3,102.1-115.5,191.4-202.7,264.4C1796.5,1043.4,1756.2,1059.1,1714.7,1059.1z M1713.9,1020.2c26.6,0.1,54.7-8.5,80.1-27.5
			c96.7-72.5,165.8-166.8,216.5-275.5c2-4.2,3.1-8.8,4.6-13.2c3.6-11,4.3-22.2-5.9-29.7c-9.6-7.1-20.7-5.3-30.8,0
			c-11.9,6.2-21.3,15.4-29.4,26c-30.3,39.6-56.8,81.6-76.6,127.4c-10.8,24.9-20,50.4-31.1,75.2c-9.5,21.4-26.7,35.5-50.2,36.2
			c-23.3,0.8-41.7-11.1-53.2-31.9c-18.1-32.7-10.2-63,9.9-91.6c15.8-22.4,37.4-39.4,56.5-58.6c14.8-14.8,25.4-31.2,22.6-53.6
			c-2.6-20.2-8.7-23.8-24.7-11.7c-29.9,22.4-57.5,47.6-82.4,75.4c-38.6,43.2-71.3,90.5-86.5,147.3
			C1616.5,976,1650.9,1020.1,1713.9,1020.2z"/>
		<path class="st1" d="M2225.9,801c-3,4-6,7.9-9,11.8c-64.5,47.6-116.3,107-158.7,174.6c-55.7,88.8-90.6,185-101.6,289.6
			c-2,19.3-4.7,38.6-13.4,56.4c-18.2,37-58.5,41.8-85.1,10.3c-31.3-37-31.8-78.2-13.9-120.2c46.5-109.1,93.4-218,141.5-326.4
			c25.5-57.4,52.8-113.9,74.9-172.9c17.2-46,43.8-83.3,95.2-96.9c66.6-17.6,119.1,29.5,108.3,97.6
			C2259.2,754.4,2243,777.8,2225.9,801z M1872.1,1270.7c0,5.7-0.4,8.9,0.1,11.9c2.3,17.5,7.7,39.5,25.2,40
			c18.1,0.6,16.1-22.7,17.8-37.1c22.2-188.2,101.3-347.2,241.9-475c16.1-14.6,32-29.6,46.4-45.9c17-19.4,26.1-42.2,20.7-68.8
			c-5-24.6-22.7-37-47.5-33.4c-32.6,4.7-55.9,22.3-69,52.2c-14,31.9-25.4,65-40.3,96.5c-65.5,139-122.7,281.5-185.1,421.8
			C1876.5,1245.9,1872.5,1259.1,1872.1,1270.7z"/>
		<path class="st1" d="M797.3,1925.4c-18.2-1-35.3,4.8-52.4,9.6c-25.7,7.2-51.1,10.3-71.7-11.1c-21.1-21.9-22.6-48.9-14.4-76.3
			c4.8-16.2,13-31.5,20-47c22-48.3,26.2-94.2-9.1-139.9c-26.4-34.2-24.6-69.4-0.5-98.4c25.6-30.8,68.7-40.3,105.6-23.8
			c24,10.7,42.7,28.4,60.8,46.4c18.9,18.8,41,29.2,67,26.6c70.3-7.2,115.1,27,145.6,86.3c13.1,25.5,28.4,49.9,33.9,78.7
			c3.2,16.4,4.1,32.5-1.7,48.3c-20.4,54.9-55,99.1-104.4,130.1c-31.3,19.6-64.1,13.6-95.3-3.3
			C854.6,1937.5,828.1,1924.5,797.3,1925.4z M1045.6,1797.2c-1.6-31.6-19.6-56.8-33.2-83.6c-22.4-44-55.1-69.7-108-63.8
			c-35.9,4-66.8-9.9-93.3-34.3c-13.7-12.6-27.2-25.7-42.3-36.4c-22.5-15.9-49.5-12.3-67.7,6.8c-16.1,16.9-15.7,33,4.1,58.1
			c16,20.2,25.7,42.4,28.5,67.7c4,36.4-2.7,71-18.8,103.9c-8.5,17.4-19.3,34-21.5,53.8c-2.7,25.2,10.2,36.3,34.8,30
			c20.3-5.2,40.1-11.5,61.4-12.4c39.6-1.7,74.4,11.5,108.6,29.5c34,17.8,54.2,14.2,82.1-12.1c22.2-20.9,40.1-45.3,55.7-71.4
			C1042.4,1822,1044.9,1809.8,1045.6,1797.2z"/>
		<path class="st1" d="M1908.2,1036c-43.7,113.7-89.2,219.6-163.3,310.6c-24.5,30.1-55.2,52.1-90.1,68.5
			c-12.1,5.7-25.2,7.9-38.4,8.4c-48.8,1.8-74.4-37.2-53.1-81.4c11.5-23.7,26-45.8,35.3-70.7c11-29.5,17.2-59.6,14-91.2
			c-1.6-16.4-0.3-32.6,2.3-48.8c4.1-25.6,16.8-36.7,42.6-42c36.1-7.4,72.9,0.2,108.9-6.6c23.7-4.5,47-10.2,69.6-18.6
			C1858.4,1056,1880.5,1046.9,1908.2,1036z M1838.8,1105.3c-50.6,14.6-96.7,21.9-144.4,20.3c-41.3-1.4-44.9,2.4-42.1,44.9
			c4.1,60.5-13.1,114.9-42.1,166.6c-4.5,8.1-9.2,16.2-12.9,24.7c-6.4,14.8-0.7,21.8,15.1,22.4c10.4,0.4,20-2,29.3-6.2
			c29.6-13.4,54-33.2,74.7-58c44.6-53.5,75.9-115,105.7-177.4C1827.4,1131.9,1832,1120.8,1838.8,1105.3z"/>
		<path class="st1" d="M1270.2,1271.7c21.7,61.3,19.6,119.9,0.1,178.3c-5.5,16.4-15.7,30.7-30.2,40.6
			c-24.2,16.6-52.2,26.1-77.3,41.9c-24,15.1-49.1-1.4-49.4-30.5c-0.6-46.8,10.4-92.4,18.3-138.2c1.1-6.3,6.3-8.7,10.7-11.5
			C1184.2,1325.7,1226.3,1299.3,1270.2,1271.7z M1152.1,1486c1.3,1.4,2.5,2.9,3.8,4.3c24.2-21.8,66.6-16.9,78.5-57
			c9.7-32.5,16.2-65.1,10.2-99.9c-15.5,9-29.9,15-41.3,24.6c-13.4,11.3-35.1,14.1-38.1,36.5C1161.1,1425,1156.5,1455.5,1152.1,1486z
			"/>
		<path class="st1" d="M699.5,1454.2c2.9,57-24.5,81.2-81.6,72.5c-13-2-26.3-2.5-39.1-5.1c-30.3-6.2-42.8-25-33.8-54.1
			c10-32.5,22.3-64.3,34.3-96.1c9.1-24.2,29.6-26.9,51.7-25.4c27,1.8,47.5,13.4,57.3,39.7C696.3,1407.6,698,1430.9,699.5,1454.2z
			 M660.4,1455.6c0.7-18.1-3.9-35.4-7.6-52.8c-3-14-13.7-16.8-26.1-18.7c-14.3-2.2-13.9,9-16.9,16.8c-5.2,13.7-9.7,27.7-14.5,41.6
			c-13.8,40.1-13.8,40.1,29,45C658.1,1491.4,660.7,1489.2,660.4,1455.6z"/>
		<path class="st1" d="M1348.7,1808.8c-36.8-0.3-65.5-24.2-66-54.6c-0.5-30.7,30.3-57.2,66.7-57.4c36.3-0.2,67,25.9,66.8,57
			C1416,1785.7,1387.2,1809.2,1348.7,1808.8z"/>
		<path class="st1" d="M1565.4,2008.8c-6.5,7.3,12.2,26.2-12.3,28.6c-19.3,1.9-31.9-1.7-27.5-25.2c0.8-4.5,0.6-9.3,0-13.9
			c-2-16.1,2.5-23.2,21.2-23.2c18.7,0,20.2,8.6,18.7,22.6C1565.1,2000.7,1565.4,2003.8,1565.4,2008.8z"/>
		<path class="st1" d="M1504.4,2256.5c7.4,6.2,26-11.8,28.4,12.1c1.9,18.7-1.1,32-24.8,27.6c-4.5-0.8-9.2-0.4-13.8-0.1
			c-15.1,0.9-26,0.3-26-21c0-21.5,12-18.8,25.1-18.6C1496.4,2256.5,1499.5,2256.5,1504.4,2256.5z"/>
		<path class="st1" d="M1460.3,2003.5c3.6,16.7-1.2,27.9-24.8,24.9c-10.2-1.3-16-2.7-14.8-14.3c0.7-6.9,0.6-13.9,0-20.8
			c-1.1-13.6-0.4-22.8,18.5-22.7c18.3,0.1,23.5,6.5,21.2,22.9C1460,1995.6,1460.3,1998,1460.3,2003.5z"/>
		<path class="st1" d="M1388.5,2294c-2.3,7.5,4.9,18.4-11,18.1c-19.5-0.4-30.9-5.5-30.6-28.2c0.3-22.4,18.6-17.2,27.9-17.3
			C1393.8,2266.4,1383.3,2285.2,1388.5,2294z"/>
		<path class="st1" d="M308.5,2200.7c5.4,0,11-0.6,16.3,0.1c35.2,4.9,67.6,16.2,82.8,51.6c15.1,35.2,7.1,68.8-15.5,98.6
			c-24.8,32.7-56.9,54.7-98.5,60.4c-39.3,5.4-72.6-6.8-95.7-39c-24.3-33.9-24.7-71-5.5-107.8
			C213.6,2223.8,256.6,2200.5,308.5,2200.7z M283.9,2373.1c32.9,0.1,76.7-31.2,89-67.7c7.8-23.4,1.7-43.3-16.9-55.2
			c-38.4-24.6-105.1-9-128,30.2c-12.2,20.9-13.8,42.6-1.8,64.3C237.4,2365.1,255.3,2373.7,283.9,2373.1z"/>
		<path class="st1" d="M1426.5,1314.9c-9-3.2-23,6.1-30.6-6c-9.2-14.8,2-32.4,19.2-32.5c6.2,0,12.5,0.5,18.6,0.1
			c15.2-1,25.6-0.7,25.2,21c-0.5,23.1-14.3,16.7-26.3,17.3C1431.2,1315,1429.6,1314.9,1426.5,1314.9z"/>
		<path class="st1" d="M1466,954.7c0.1,13.6,4,27.8-19.2,28.1c-25,0.2-20-15.6-20.2-29.7c-0.1-13.3-4.3-26.8,19.3-27.1
			C1471.3,925.8,1466.1,940.6,1466,954.7z"/>
		<path class="st1" d="M1426.3,1206.9c-12.5-0.8-27.4,5.7-27.4-18.4c0-21.8,11.2-21.3,26-20.7c14,0.6,28.7-4.2,28.6,20.5
			C1453.4,1212,1439,1206.2,1426.3,1206.9z"/>
		<path class="st1" d="M1422.1,1093.6c-16.4,3.7-20.1-4.4-20.7-21.4c-0.7-22.5,13.4-16.9,25.7-18.3c17.4-2,21.9,4.3,22.3,21.8
			C1450,1098.1,1436.2,1093.5,1422.1,1093.6z"/>
		<path class="st1" d="M1492.7,838.3c-11.3,2.4-16.7-1.9-17.2-16.9c-0.5-16.1,2.3-23.4,20.7-24.1c18.7-0.7,21.2,7.7,22.7,23
			C1521,841.9,1505.8,836.1,1492.7,838.3z"/>
		<path class="st1" d="M2830.8,912.9c-7,0-14-0.3-20.9,0.1c-13.1,0.7-23.4,1.6-23-18.1c0.3-17.4,6.6-20.4,21.7-19.6
			c14.6,0.8,29.3-1.7,43.9-1.8c23.7-0.2,28.3,6.8,24,30.7c-1.7,9.1-6.9,8.7-13.1,8.7C2852.5,913,2841.7,912.9,2830.8,912.9z"/>
		<path class="st1" d="M2627.9,1091.4c-13.3,0.3-26.4,3-25.9-20c0.6-28.4,19.9-16.1,32.5-18.4c14.9-2.7,21.5,1.9,21.6,19.4
			C2656.2,1095.5,2642.2,1091.9,2627.9,1091.4z"/>
		<path class="st1" d="M2498.2,1169.2c0.1-3.9,1-7.9,0.1-11.6c-5.2-22.1,8.2-27.7,25.8-28.7c11.2-0.6,24.1-3.7,24.1,15.4
			c0,15-0.9,26.4-20.7,24.1c-9.9-1.2-20.1-0.2-30.2-0.1L2498.2,1169.2z"/>
		<path class="st1" d="M2416.1,1277.9c-17-2.2-34,5.2-31.2-19.7c1.7-15.1,4.9-24.6,21.2-19.1c11,3.7,32.2-11.8,31.7,16
			C2437.6,1273.7,2431.4,1283.3,2416.1,1277.9z"/>
		<path class="st1" d="M2700.2,1020.1c-15,1.5-26.4,2.5-26.1-20c0.3-24.4,15.5-17.9,28-18.2c13.3-0.4,27.1-4.4,27.3,19.1
			C2729.6,1027.2,2713,1019,2700.2,1020.1z"/>
		<path class="st1" d="M2497.4,1168.4c0.4,5.3,0.4,10.8,1.3,16c3.1,19.2-4.5,25.5-23.9,24c-14.2-1.1-22.3-2-22.1-20
			c0.2-17.7,7.8-20.6,22.4-19.1c7.6,0.8,15.4,0,23-0.1C2498.2,1169.2,2497.4,1168.4,2497.4,1168.4z"/>
	</g>
</g>
</svg>
