<?xml version="1.0" encoding="utf-8"?>
<!-- Generator: Adobe Illustrator 23.0.0, SVG Export Plug-In . SVG Version: 6.00 Build 0)  -->
<svg version="1.0" xmlns="http://www.w3.org/2000/svg" xmlns:xlink="http://www.w3.org/1999/xlink" x="0px" y="0px"
	 viewBox="0 0 3000 3000" style="enable-background:new 0 0 3000 3000;" xml:space="preserve">
<style type="text/css">
	.st0{stroke:#000000;stroke-width:10;stroke-miterlimit:10;}
</style>
<g id="Layer_1">
</g>
<g id="Layer_2">
	<g>
		<path class="st0" d="M2673.4,2070c25.7,9.9,49.4,18.4,72.6,28.2c29.8,12.6,57.4,29,82.5,49.6c53.2,43.7,82.7,99.4,85.4,168.6
			c3.4,85.1-4.3,169.4-27.8,251.3c-43,150.4-147.2,238.6-293.7,281.1c-104.3,30.2-211.5,34.8-319.2,32.3
			c-91.5-2.2-181.1-15.7-266.4-50.8c-72.8-29.9-137.7-71.5-189.6-131.7c-5.2-6-8.2-11.9-16.2-1.2
			c-82.9,110.5-198.4,152.9-331.7,156.2c-115.6,2.9-222.9-31.9-327.4-76.7c-18.1-7.8-32.3-8.5-50.9-0.1
			c-66.7,30.3-138.2,43.1-210.2,53.4c-123.8,17.7-248,20.8-372.3,7.5c-69.3-7.4-137.2-21.3-200.7-51.9
			c-144.8-69.7-202.6-199.5-158.1-353.8c34.8-120.8,106.1-210.6,221.7-263.2c3.8-1.7,8.8-2.3,10.6-8.4
			c-50.1-24.1-96.7-54.2-138.2-91.5c-109.2-98.4-170.1-221.2-182-367.4c-11.9-146.3,15.6-285.6,83.7-415.6
			c55.5-106,139.5-182.9,249.1-231.5c2.7-1.2,5.4-2.7,9.7-4.9c-15.2-12.3-29.5-23.4-43.4-35c-209.7-175.1-196.8-482.4,0.5-651.1
			c65.8-56.2,141.5-92.7,224.4-113.6c130.3-32.9,262.7-51.2,397.4-46.6c97.1,3.3,192.3,17.2,281.3,60.2
			c49.6,24.1,93.4,55.5,128,98.6c8.8,10.9,16.8,13.6,30,10.4c142-34.7,284-69.4,426.2-103.2c125.6-29.9,250.8-62.3,378.3-83.5
			c151.6-25.2,300.8-14.2,445.6,40.3c26.7,10,51.7,23.2,75.7,38.7c73.1,47.5,99.6,114.4,83.8,199c-1.8,9.7-0.4,16.3,5.4,24.1
			c54.9,73.5,66.6,153.7,34.8,239.7c-4.5,12.1-1.1,17.1,8.3,24.2c100.5,75.8,114.3,218.5,30.2,307c-23.3,24.5-50.3,43.9-82.8,54.4
			c-10.2,3.3-13.8,6.2-9.2,18.1c38.4,100.7,28.3,199.3-14.2,296.3c-4.2,9.6-6.2,17.2-2.4,29.9c42,139.2,55.9,279.8,8.1,420.7
			c-24.1,70.9-67.3,129.6-122.9,179.4C2683.5,2061,2679.3,2064.8,2673.4,2070z M1350,2110.7c2.2-8.3-2.3-12.8-4.2-17.8
			c-17.4-44-22.5-89.1-13.3-135.6c14.3-71.9,59.9-113.4,132.8-121.9c25.4-3,50.4,0.6,75.6,2.7c6.4,0.5,12.2,1.5,18.3-1.8
			c34.3-19.3,71.6-18.8,108.9-14.4c36.2,4.3,62.5,23.2,72.5,59.6c2.9,10.4,7.6,12.3,17,12.2c44.9-0.4,89.7-0.2,134.6-0.2
			c5,0,9.9,0.4,14.5-2.9c33.2-23.8,70.8-32.2,111-31.2c9.1,0.2,13.1-1.4,13.3-12.3c1.8-78.2,40.6-133.3,110.7-164.3
			c75.2-33.2,153-35.3,230.4-5.6c113.3,43.4,191.1,153.8,169.9,284.9c-7.6,46.8-25.8,89.6-48,130.8c-10.9,20.2-23.7,39.5-38.5,64
			c83.1-49.3,163.1-93.6,227.5-160c44.9-46.2,76.3-100.5,92.9-162.7c23.6-88.3,22.3-177.4,6.3-266.7c-4-22.4-8.4-44.7-17.5-70.1
			c-3,5-3.9,6.8-5,8.3c-114.9,157.9-331.9,207.1-517.6,122.4c-4.4-2-12.2-2.8-11.5-8.1c1.7-13.3,8.6-25.3,16.6-35.4
			c5.7-7.2,13.8,1.4,20.3,4.2c69.6,29.7,141.9,41.7,216.7,29.6c162.5-26.3,275.7-136.4,305.9-299.1c21.9-117.7-7.3-251.9-163-304.3
			c-135.1-45.5-273.6-74.3-417-77.2c-121.9-2.4-241.9,13.1-361.1,35.8c-88.1,16.8-176.1,34.3-257.6,73.7
			c-67.2,32.4-126.6,73.9-177.3,130.9c-30.2,34-61.9,66.5-84.7,105.7c-91.3,156.9-128.3,329.5-138.2,508.2
			c-4.9,88.9,23,170.9,78.6,241.8C1292.6,2062.9,1318.3,2089.2,1350,2110.7z M1254.2,1046c47.8,22.2,90,47.4,125,82.9
			c7.8,7.9,11.4,3.1,16.4-2c81.2-80.8,178.8-133.1,288.4-163.5c109.1-30.3,220.4-49.7,332.7-63c106.4-12.6,213.1-13.6,319.5-0.5
			c102.9,12.7,203.5,36.7,301.8,69.3c48.3,16,92.5,40.3,128,78.3c29.7,31.8,33,32.1,71.7,10.1c6-3.4,11.4-7.9,17.4-11.5
			c14.3-8.5,16-14.9,1.1-26.8c-224.6-179.2-478.9-250.3-763.7-211c-28.2,3.9-27,4.1-33.5-25.3c-3.1-13.8,0.8-17.8,13.3-19.2
			c31.4-3.4,62.6-9.2,94-11c249.5-14.2,476,50.9,678.1,198.7c18.7,13.7,36.6,28.4,55.3,43c2.3-4.1,4-6.8,5.3-9.6
			c42-90.7-9.9-196.5-111-225.1c-228.1-64.7-460.4-90.2-697.1-75.9c-28.6,1.7-28.1,1.2-30.7-29.2c-1-11.4,1.8-15.8,13.6-16.5
			c118.8-6.8,237.4-5.9,355.9,6.1c127.8,13,253.5,36.6,376.8,72.9c11.4,3.4,15.1-0.3,18.6-10.7c24.7-75.4,11.4-143-40.2-203.3
			c-7.1-8.3-16.2-11.1-26.3-13.2c-225.2-47.4-450.1-46.2-674.7,4.3c-31.4,7-30.7,6.8-38.9-24.1c-2.8-10.6-1.1-14.6,9.4-17
			c159.7-38,321.5-51.1,485.3-40.4c77,5,153.2,15.5,228.6,32.1c10.4,2.3,14.2,0.2,15.1-11.1c2.6-34.7-3.4-66.6-25.7-94.3
			c-24.9-31.1-58.6-49.7-94.3-64.6c-120.5-50.3-246.4-62.2-375.3-51.7c-73.3,6-144.5,23.8-216,40C1868.1,311,1658.6,362,1449.1,413
			c-12.5,3.1-16.9,5.6-10,19.3c33.1,66,42.1,136.9,38.8,209.7c-5.3,117.8-53.3,218.1-126.9,307.8
			C1322.5,984.5,1289.9,1015.1,1254.2,1046z M1255.3,1317.4c6.1-3.4,7.3-10,10.2-15.4c21-40.5,45.3-78.8,74.4-114
			c15.8-19.1,15.9-19.2-3.5-36c-70.8-61.1-155.2-90.9-246-103.7c-124.3-17.6-249.4-17.1-374.5-13.7c-74.6,2-148.4,11.7-220.5,32.2
			c-161.1,46-275.4,145-337.3,301.1c-35,88.1-53.1,180.6-52.7,275.5c0.7,166,60.9,306.4,193.1,409.8
			c118.5,92.7,256.3,135.8,405.8,132.4c171.4-3.9,331.6-53.4,481.6-136.1c26.1-14.4,26-14.5,11.2-41.5c-3.4-6.1-6.5-12.3-9.5-18.5
			c-43.7-88.8-49.7-182.6-39.3-279.2c2-18.7,17.3-42.7,2-55.4c-13.9-11.5-39.2-5.5-59.1-3.5c-44.7,4.4-77.2,25.8-90.6,71
			c-5.9,20-12.9,39.7-23.7,57.6c-18.5,31-45.2,51-82,47.9c-19.5-1.6-22.6,4.2-23.1,20.8c-1,32.9-9.7,63.5-31.6,89.3
			c-27,31.8-63.3,41.6-102.9,44.9c-115.3,9.6-201.6-71.8-193-184.8c5.4-71.6,45.4-123,104.8-160.1c11.3-7,13.2-10.2,3.8-21.4
			c-59.2-70.3-49.5-176.7,22.4-235.6c70.8-57.9,148.3-60.4,228.5-20.8c10.2,5,14.6,5.4,19-5.9c5.7-14.8,15.4-27.5,26.4-38.9
			C1036.9,1225,1170.6,1225.9,1255.3,1317.4z M951,247.9c-126.6,2.2-242.7,17.5-356.6,47.4c-79.1,20.8-152,54.9-212.1,112
			c-103.5,98.3-145.4,217.9-119,358.8c21.2,113.3,90.2,193.4,184.7,254.3c9.3,6,17.4,7.2,27.9,3.9c48.3-15.4,98-24,148.2-29.7
			c103.3-11.8,207-8.6,310.5-5.9c84.7,2.2,169.2,8,250.9,32.8c14.1,4.3,23.7,1.5,34-7.2c31.9-27,62.2-55.4,89.3-87.3
			c83.5-98,131.3-208.6,122.2-340.1c-9-130.1-69.3-225.5-188-282.5C1147.8,258.8,1045.6,250.3,951,247.9z M2537,2164
			c8.5,6.9,16.1,12.6,23.2,18.8c78.6,68.4,127.7,150.7,122.1,258.9c-5.5,106.3-75.6,191.8-179.2,214.8
			c-74.9,16.7-150.4,15.4-225.6-0.5c-110.4-23.3-175.1-89.8-192.9-201c-8.5-53-2.9-105.8,8.3-158c3-14,1.2-19-15.2-21.3
			c-64.9-9.4-130-17.4-195.2-24.2c-10.7-1.1-14.5-0.2-12.8,12.4c5.8,41.9,9.6,84,10.5,126.4c1.7,81.5-6.2,161.6-40,236.9
			c-6.4,14.3-3.3,22.9,5.4,33.4c44.3,52.9,99.3,91.2,161.7,119.3c69.3,31.2,142.5,47.2,218,51.8c120.2,7.3,240.1,5.4,356.9-28.6
			c139.5-40.6,232.7-127.7,265.6-272.7c14.7-64.9,20.5-130.8,20.4-197.4c0-62.5-23.3-112.6-71.9-151.4c-48.6-38.8-106.2-57-164.6-74
			c-5.7-1.7-9.7,0.4-14,3.2C2591.6,2128.1,2565.3,2145.4,2537,2164z M506,2204.9c-27-2.3-44.4-20.1-68.7-12.1
			c-130.5,43-213.4,130.2-245.4,263.9c-17.4,72.6-14.4,142.9,32.7,205.9c30.9,41.3,72.3,68.2,118.9,87.8
			c60.6,25.4,124.3,36.4,189.5,42.5c149.7,13.9,297.8,4.3,444.4-28c70.4-15.5,137.1-40.7,189.7-92.8c66-65.5,94.5-147.2,102.3-238.2
			c10.5-122.1-55.6-223.2-171.6-260.9c-25.8-8.4-50.4-12.9-76.6-0.1c-15.1,7.4-32.1,11.5-48.7,15.2c-12.2,2.8-15,5.6-9,18.2
			c53.2,113.2,31.5,255.4-55.5,345.5c-103.8,107.6-232.3,139.2-376.6,112.6c-58.1-10.7-109-36.7-145.5-85.1
			c-54.7-72.5-55.8-180-4.1-262.3C411.5,2269.9,452.1,2234.7,506,2204.9z M1241.4,2763.1c77.6,35.4,194.8,52.8,284.1,39.9
			c148.4-21.5,256.4-102.7,293.8-258.1c23.2-96.5,14.9-193.2,2.4-290c-1.2-9.5-7.3-8.6-13.4-9.1c-48.5-3.9-97.1-5.3-145.7-7.5
			c-58-2.6-116.9,1.1-173.4-13.7c-34-8.9-60.5-0.1-87.1,17.5c-31.2,20.7-55.7,47.5-72.3,81.1c-7.8,15.7-16.8,31.9-14.7,50.2
			c3.4,30.4,3.1,60.7-2.4,90.6c-2.7,14.7,2.9,18.3,15,21.2c18.5,4.4,36.2,11.6,51.8,22.6c31.9,22.6,52.9,52.3,46.5,93
			c-6.5,41.6-36,63.8-74.8,73.4c-34,8.4-68.9,7.5-103.6,5.5c-24.5-1.4-38.4,7.7-49,32c42.9,4.1,85.8,3.8,128.3-3.4
			c88.6-15,164.2-52.5,217-128.3c14.7-21.1,13.6-19.9,37.2-10c17.3,7.3,15.4,14.5,7,27.5c-51.4,79.8-125.9,125.6-216,149
			C1329.3,2757.8,1285.3,2760.3,1241.4,2763.1z M1901.6,2049.7c0,17.7-1.3,35.4,0.2,53c3.8,44.4,16.8,84.7,59.3,107.7
			c18.7,10.1,40.4,8,60.8,10.5c58.1,7,115.7,21.6,174.8,17.4c56.8-4,112.5-11.3,159.4-50c67.8-55.8,112.4-126.4,134.7-210
			c22.2-83.2,2.3-157.4-64.1-214.1c-78.3-66.8-167.5-76.6-262.5-40.8c-30.4,11.5-54.2,31.7-70.5,60.3c-38.2,66.9-7.9,131.1,68,144.5
			c37.8,6.7,74.1-0.9,110.4-9.4c31.6-7.4,31.1-7.6,38.7,23.3c2.7,11.1,0,15.3-11.3,17.9c-25.8,5.9-51.4,13.2-77.8,15.7
			c-66.1,6.1-126.1-5.4-168.9-62.6c-3.7-5-8.1-7.4-14.3-7.5c-23.4-0.6-46.7-0.5-69.5,6.1c-35.9,10.3-58.9,32.3-65.4,70.2
			C1899.7,2004.4,1901.1,2027.1,1901.6,2049.7z M861.3,2296.4c0.2,0,0.4,0,0.6,0c0,19.6,0.4,39.2-0.2,58.7
			c-0.4,13.2-2,26.4-3.5,39.6c-6.7,58.3-40.7,96.2-97.7,108.2c-34.9,7.4-70.3,7.6-105.6,4.2c-18.2-1.7-35.6-7.9-51.4-18
			c-56.4-36-59.6-101.1-6.4-141.3c11-8.4,22.8-16,34.8-22.9c30.5-17.4,38.4-44.7,36-77.4c-0.8-11.9-5.7-15.9-17.5-16.5
			c-19.5-1-38.9-4-58.3-6.4c-5.7-0.7-11-1.2-16.7,0.9c-69.1,25.3-126.9,64.3-162.5,131.2c-56.7,106.7-9.5,223.4,106.4,256.5
			c99.4,28.4,195.6,15.6,284.9-36.5c119-69.5,171-208.2,126.2-330.7c-15.4-42-19.1-43.7-61.7-32.9c-10.2,2.6-12.4,7.1-11.4,17
			C859.4,2252.2,860.1,2274.3,861.3,2296.4z M1883.8,2204.6c-39.1-83.9-37.8-168.9-19.5-255c2.2-10.3,0.2-11.9-8.9-11.9
			c-32.8,0.2-65.7,0.4-98.5-0.1c-10.8-0.2-13.3,4.9-15.5,14.2c-7.3,31.6-26.5,53.9-56.3,66.7c-32.4,13.8-66.2,15.5-100.2,8.6
			c-37.1-7.5-59.2-31.1-68.3-67.8c-5.5-22.4-6.9-44.8-1.8-67.4c1.1-4.8,3.8-9.6-4.9-10.3c-62.3-5.1-111.6,8.6-130.3,77.5
			c-25.7,95,41.3,221.4,159,226.4c79.5,3.4,158.9,7.1,238.3,11.2C1812.2,2198.8,1847.3,2202,1883.8,2204.6z M2396.6,2621.5
			c17,0.8,39.6-1.6,62.2-4c121-12.6,195.8-110.8,174.6-230c-14.9-84.4-65.5-144.3-133.6-192c-6.8-4.8-11.6-4.1-18.6-0.3
			c-18.8,10.3-37.8,20.4-57.6,28.6c-14,5.8-14.2,14.1-8.9,25.3c7.6,16.1,21.2,26.3,35.8,35.4c21.4,13.3,43.7,25.5,61.4,44
			c22.3,23.3,33.6,50.2,26.4,82.8c-10.6,47.7-43.7,73.7-87.4,88.4c-32,10.7-65.4,14.5-99,13.5c-75.2-2.1-122.7-40.9-138.7-112.7
			c-7.7-34.5-4.7-69.1,1.1-103.5c1.7-10.4-0.6-13.1-11.1-12.5c-16.4,0.9-32.8,0.5-49.2-0.1c-8.1-0.3-12.4,1.2-14.2,10.4
			c-9,46.7-14.7,93.5-11.2,141.1c6.4,85.7,57.9,148.2,140.4,170.3C2309.1,2617.1,2349.6,2622,2396.6,2621.5z M1067.2,1499.4
			c-27.2-1.7-55.5,0.7-83.2,7.8c-74,18.9-129.4,58.9-149.9,136.3c-10.5,39.8-9.5,79.1,15.8,114.1c12.6,17.4,30.8,26.2,52.6,24.1
			c21.6-2.1,32.6-17,39.5-36c4.9-13.6,10.3-27.1,15.3-40.7c16.6-45.2,45.3-77.7,92.7-92.5c33.5-10.4,67.4-9.5,101.3-6.1
			c13.3,1.3,17.3-2.2,19.3-14.9c3.6-22.4,8.3-44.7,14.6-66.4c3.6-12.4-0.4-14.6-11.4-16.2C1138.8,1503.9,1104,1497.7,1067.2,1499.4z
			 M723.9,1936.4c6.7-0.4,15.6-0.2,24.3-1.5c24.3-3.6,47-10.7,61-33.1c19.1-30.6,19-64.5,15.3-98.8c-0.4-3.4-3-6.9-5.4-9.6
			c-27.7-31.6-37.8-69.2-36.6-110.3c0.3-10.9-1.2-15.8-14-14.8c-15.7,1.2-31.5-1.8-46.5-6.9c-7.1-2.4-13-2.4-19.8,0.6
			c-37.1,16.6-68.7,39.9-90.2,75c-27.8,45.7-30.1,92.8-4.9,140.2C631.6,1923.2,673.8,1935.6,723.9,1936.4z M803.2,1380.8
			c-59-0.2-111.6,32.8-133.1,83.5c-33.5,78.9,22.8,163.2,104.8,157.4c12.3-0.9,18.8-5.1,23.3-17.2c16.6-43.9,44.1-81,85.1-103.1
			c28.9-15.6,38.8-31.2,29.6-63.5c-4.2-14.8-8.8-24.7-21.6-31.9C863.9,1390.4,835,1380.5,803.2,1380.8z M1114.7,1294.3
			c-34.5-1.2-66.4,9.7-96.5,26.6c-54,30.3-71.7,72.1-57.2,131.9c2.1,8.8,5.6,10.6,14.3,8.9c17.2-3.5,34.7-6.6,52.2-8
			c52.4-4.2,104.5,0,156,10.3c13.4,2.7,19.4-1.1,22.4-14.3c3.4-14.7,6.9-29.9,13.8-43.1c17-32.6,3.2-57.2-18.7-79.5
			C1177.8,1303.3,1148.5,1293.3,1114.7,1294.3z M2362.3,2466.7c36.9-1.3,73.3-4.5,104.9-26.5c33.6-23.5,35.8-59.3,4.7-85.5
			c-11-9.3-23.7-16.6-36-24.3c-27-16.8-53.8-34.6-64.3-66.3c-5-14.9-11.3-15.3-22.8-9.7c-5.7,2.7-11.7,4.6-17.6,6.9
			c-11.1,4.3-20.5,10.2-34.6,9.3c-26.2-1.6-31.9,5.7-35.6,31.8c-2.2,15.6-4.2,31.3-5.1,47
			C2251.5,2425.7,2290.8,2468.8,2362.3,2466.7z M815.1,2314.1c-1.1-25.5-2.5-48.8-3.1-72.1c-0.3-12.4-3.8-17.9-18-15.5
			c-17.9,3.1-36.3,3.8-54.6,4.9c-25.2,1.5-25.5,1.3-25,26c1,46.9-17.5,82.8-58.2,107.1c-11.9,7.1-23.8,14.4-34.5,23.1
			c-21.4,17.3-21.4,37.2-1.4,56.3c8.5,8.1,19,12.6,30.2,14.6c38.4,7.1,76.6,6.3,114.1-5c23.5-7.1,38.2-23.5,44.2-47.5
			C816.5,2375,815,2343.4,815.1,2314.1z M1389.9,2194.9c-1.5-2.5-1.9-4-2.8-4.5c-53.2-29.8-101.7-65.7-141.4-112.5
			c-5.2-6.1-8.9-4.4-14.2-1.2c-30.2,18.4-61.6,34.4-93.4,49.8c-3.1,1.5-8.8,2.1-7.9,6.6c0.5,2.4,5.4,4.5,8.6,5.8
			c47.5,20,87.4,49.9,119.3,90.5c14,17.8,24.4,37.7,36.5,59.8C1319.6,2248.7,1350.9,2217.7,1389.9,2194.9z M1635.4,1866.1
			c-8.2,0.4-16.4,0.3-24.6,1.2c-30.3,3.3-52,21.6-52.3,47.6c-0.7,48.4,11.8,70.7,63.5,69.7c12.1-0.2,24-1.9,35.3-5.4
			c16.8-5.1,32.1-13.5,36.7-32.1c13.1-53.8,2.9-82.6-56.7-81C1636.6,1866.2,1636,1866.1,1635.4,1866.1z M1294.6,2633.9
			c18.3-0.6,36.6-0.4,54.1-7.2c37.1-14.5,43.2-47.2,13.4-73.8c-12.5-11.2-28-16.7-43.5-22.2c-12-4.3-18.8-4.1-22.2,11.3
			c-4.6,20.9-13.6,40.6-23,59.9C1257.6,2634.3,1257.6,2634.3,1294.6,2633.9z"/>
		<path class="st0" d="M1749.3,1415.2c-33.1,1.3-65.3,1.1-96.4-7.4c-53.1-14.6-94.6-43.2-108.1-99.9
			c-16.8-70.6,30.3-140.5,104.3-157.5c1.8-0.4,3.7-0.6,5.6-1c35.7-7.4,42.9,0.6,34.3,36.2c-2.4,10-9.5,6.3-14.8,7.1
			c-46,7-77.4,33.8-84.6,72.3c-6.1,32.6,4.9,58.4,31.3,77.7c33,24.2,71.3,26.2,110.2,26.4c27.1,0.1,46.3-7.1,64.2-31.4
			c51.3-69.6,117.2-121.7,203.1-143.6c58.9-15,118-14,175.5,5.6c62.8,21.4,108,61.5,115.9,131.1c6,52.8-16.3,97.8-50.1,136.5
			c-70.9,81.3-162.3,121.9-268.7,130c-47.6,3.6-94.6-1.2-139.8-17.3c-70-24.9-99.9-79.3-84.8-152
			C1747.2,1424.5,1748.1,1420.9,1749.3,1415.2z M1942.4,1552.3c51.3-0.4,97.6-9.3,141.6-28.5c59.7-26,111.2-62.4,143.8-120.8
			c31.3-56,17.2-111-36-144.4c-11.1-7-15.9-6.7-22,6.2c-26.1,54.7-68.1,92.3-126.5,109.2c-62.5,18-121.1,6.6-175.1-29.3
			c-4.9-3.3-9.3-11.9-17.1-3c-25,28.7-49.1,58.1-58.9,95.9c-11.9,45.8,5.2,79.1,49.7,96.9
			C1875.1,1547.8,1910.2,1551.5,1942.4,1552.3z M1990.2,1336.2c59.3-2.6,105.2-31.6,135.4-86.4c5.6-10.1,4.4-14.1-7.6-15.8
			c-81.3-11.3-153.3,10.1-217.4,60.7c-10,7.9-7.4,11.5,1.9,17C1928.6,1327.2,1956.7,1334.9,1990.2,1336.2z"/>
		<path class="st0" d="M1493.8,1476.5c15.4,59.7-16.6,112.1-68.6,114.7c-3.8,0.2-7.6,0.2-11.3-0.3c-3.5-0.5-8.4,0.5-9.5-4.1
			c-1-4.2,3.3-6.4,6-8.8c17.9-15.8,37.8-29.3,52.3-49C1474.4,1512.8,1485.3,1496.1,1493.8,1476.5z"/>
		<path class="st0" d="M1893.8,1650.7c0,3.1,0,6.3,0,9.4c0,23.8-0.1,22.7-24.6,24.1c-17.2,1-24.4-4.1-21.6-21.7
			c0.9-5.5,0.1-11.3,0.1-16.9c0-29.1,0-28.4,28.4-29.2c13.6-0.4,20.1,2.7,17.8,17.4C1893,1639.3,1893.8,1645,1893.8,1650.7z"/>
		<path class="st0" d="M2049,1643.9c0,3.1,0.1,6.3,0,9.4c-0.7,28.1,5.4,24.9-26.2,26.2c-15.2,0.6-22.2-3-20.2-19.5
			c1.3-10.5,1-21.4,0-32.1c-1.3-14,2.3-20,18.1-19.3C2048.9,1610,2049,1608.9,2049,1643.9z"/>
		<path class="st0" d="M2185.5,1609.4c0,30.4-8.4,36.7-38.8,30.3c-5.8-1.2-7.1-3.9-7.2-8.9c-0.1-7.6-0.5-15.2-0.6-22.7
			c-0.4-34-8.1-30.1,29.8-32.6c14.4-1,17.7,4.6,16.8,16.8C2185.1,1598,2185.5,1603.7,2185.5,1609.4z"/>
		<path class="st0" d="M869.2,794.2c-43.9-1.4-86.7-17.9-118.3-57.9c-34.7-44-34.3-103,0.2-147c59.7-76.1,187.7-76.7,247.4-1.1
			c41,51.8,34.2,123.2-15.8,166.6C951.9,781.5,915.8,794,869.2,794.2z M876,748.1c27.8-1.5,53.6-8.3,74.9-27.4
			c37.7-33.9,37.6-81.6-0.2-115.5c-43.2-38.8-119.2-35.2-158.3,7.5c-27.8,30.4-27.7,70.5,0.2,100.9C815,738,843.9,746.7,876,748.1z"
			/>
		<path class="st0" d="M1356.8,726c-21.5,0.2-36-13.5-36.3-34.2c-0.3-20,15.2-36.6,34.9-37.3c19.9-0.8,37.7,16.6,37.6,36.8
			C1392.8,711.6,1378.2,725.7,1356.8,726z"/>
		<path class="st0" d="M496.7,953.8c0.2,19.4-16.4,36.6-35.7,37.2c-19.8,0.5-37.7-17.3-37.4-37.4c0.3-19.7,16.7-35.6,36.7-35.6
			C480.1,918,496.6,934.2,496.7,953.8z"/>
		<path class="st0" d="M1229.1,334.6c21.1,0,35.6,14.4,35.5,35.3c-0.1,19.9-16.3,36.3-35.8,36.5c-19.3,0.1-36.2-16.5-36.6-36
			C1191.6,349.1,1206.7,334.5,1229.1,334.6z"/>
		<path class="st0" d="M1356.1,612c-20.9-0.1-35.6-14.7-35.7-35.5c-0.1-20.3,15.4-36.3,35.4-36.6c20.4-0.3,37.5,16.8,37.1,37.2
			C1392.5,597.2,1376.9,612.1,1356.1,612z"/>
		<path class="st0" d="M434.1,444.7c20.1,0.3,35.5,16.2,35.2,36.5c-0.3,20-16.5,35.9-36.4,35.8c-19.6-0.1-36.3-16.6-36.5-36
			C396.2,460.7,413,444.5,434.1,444.7z"/>
		<path class="st0" d="M538.6,357.8c19.7,0.8,35.8,17.9,35.1,37.2c-0.8,20.2-18.7,36.1-39.4,34.9c-20.3-1.2-33.6-16.6-32.8-38.3
			C502.1,370.9,517.5,357,538.6,357.8z"/>
		<path class="st0" d="M1209.6,873.4c21.1,0,35.8,14.4,36.1,35.2c0.2,20.2-15.2,36.5-35.2,36.9c-20.4,0.5-37.6-16.5-37.4-36.9
			C1173.3,888.3,1188.8,873.4,1209.6,873.4z"/>
		<path class="st0" d="M1302.6,835.8c-20.8-0.3-35.4-15.3-35.3-36.1c0.1-20.2,15.9-36.1,36-36.1c20.4,0,37.3,17.4,36.6,37.7
			C1339.2,821.4,1323.3,836,1302.6,835.8z"/>
		<path class="st0" d="M384.6,724.6c-0.3,21.3-14.7,35.4-35.8,35.2c-19.8-0.2-36.4-16.5-36.4-36c-0.1-20.1,17.5-36.8,38.2-36.2
			C371.3,688.2,384.9,702.9,384.6,724.6z"/>
		<path class="st0" d="M371.8,633.8c-19-0.1-36.4-17.5-36.6-36.3c-0.2-20.4,17.1-37.1,37.8-36.5c20.2,0.5,35.4,16.5,35.1,36.8
			C407.7,617.7,391.4,634,371.8,633.8z"/>
		<path class="st0" d="M808.2,277.7c21,0.3,35.5,14.9,35.2,35.7c-0.3,19.6-17,36.2-36.3,36.1c-20.2-0.1-36.8-17.7-36.1-38.3
			C771.7,290.7,786.5,277.4,808.2,277.7z"/>
		<path class="st0" d="M1320.8,495.9c-20-0.3-35.8-16.4-35.7-36.4c0.1-19.9,16.3-36.3,35.9-36.4c19.9-0.1,37.6,17.9,36.9,37.7
			C1357.4,480.4,1340.8,496.2,1320.8,495.9z"/>
		<path class="st0" d="M668.5,377c-20.5,0.2-36.7-14.8-37.5-34.6c-0.8-19.9,16.7-37.7,36.9-37.6c20,0.1,35.7,15.9,35.9,36
			C704,361.4,689,376.8,668.5,377z"/>
		<path class="st0" d="M1126.7,316.2c-0.3,19.7-16.7,35.6-36.7,35.6c-20,0-36-16-36.1-35.9c-0.1-20.6,17.1-37.7,37.3-36.9
			C1110.5,279.7,1127,297,1126.7,316.2z"/>
		<path class="st0" d="M947.2,346.7c-21-0.3-35.9-15.2-35.7-35.6c0.2-19.4,17-36.4,36.1-36.6c20.2-0.1,36.8,17.3,36.3,37.9
			C983.4,333.2,968.6,347,947.2,346.7z"/>
		<path class="st0" d="M387.2,886.5c-19.8-0.1-36.3-16.6-36.2-36.1c0.1-19.4,16.6-36.3,36-36.7c20.5-0.4,37.2,16.6,36.8,37.4
			C423.4,870.9,407.2,886.6,387.2,886.5z"/>
	</g>
</g>
</svg>
