<?xml version="1.0" encoding="utf-8"?>
<!-- Generator: Adobe Illustrator 23.0.0, SVG Export Plug-In . SVG Version: 6.00 Build 0)  -->
<svg version="1.0" xmlns="http://www.w3.org/2000/svg" xmlns:xlink="http://www.w3.org/1999/xlink" x="0px" y="0px"
	 viewBox="0 0 3000 3000" style="enable-background:new 0 0 3000 3000;" xml:space="preserve">
<style type="text/css">
	.st0{stroke:#000000;stroke-width:10;stroke-miterlimit:10;}
</style>
<g id="Layer_1">
</g>
<g id="Layer_2">
	<g>
		<path class="st0" d="M2218.5,1512.8c0,250.7,0.3,501.5-0.1,752.2c-0.5,318.8-215.9,596-527.6,660.8
			c-183.3,38.1-370.8,40.4-544.8-45.9c-252.6-125.3-388.2-331.9-390.3-614.7c-3.8-501.5-1.4-1003-1-1504.5
			C755,420.3,1000.9,133,1338.5,89.1c154.5-20.1,310.7-19.7,459.6,42.7c256,107.3,419.9,351.3,420.3,628.7
			C2218.8,1011.3,2218.5,1262.1,2218.5,1512.8z M1283.2,2870.9c0-7.7,0.3-11.6-0.1-15.3c-8.1-78-8.8-156.2-3.3-234.3
			c3.8-53.5,8.4-107.1,26.9-158.1c29.1-80.7,105.8-130.6,188.9-123.3c79.4,7,144,68.4,158.7,152c5,28.7,6.6,57.9,6.2,87.1
			c-1.4,90.5-5.7,180.9-12.7,271.1c-2.3,30.2-1.6,30.3,28.1,23.6c282.2-63.8,485.7-314.9,486.3-604.1c1-504.6,1-1009.3,0-1513.9
			c-0.5-261.2-168.2-494.3-414.3-582.3c-129.3-46.2-263.2-45.3-395.7-29.4c-308.8,37.1-541.2,302.8-541.7,614
			c-0.9,503.1-0.4,1006.2-0.1,1509.3c0.1,96.5,20.9,188.7,65.1,274.8C962.2,2711,1098.4,2819.1,1283.2,2870.9z M1601.9,2655.9
			c1.3-46.7,3.6-93.5-0.6-140.2c-9-100.7-108.8-152.3-190.6-99.2c-38.6,25.1-54.1,63.5-61.8,105.8c-20.6,114-18.4,228.8-9.1,343.7
			c1.3,16.2,11.1,17,23.4,18.3c67.3,6.9,134.8,3.1,202.2,3.9c17.4,0.2,24-6.1,25-23.5C1594.8,2795.2,1601.1,2725.7,1601.9,2655.9z"
			/>
		<path class="st0" d="M1677.7,532.2c-6.1,9.7-3.7,18.3-3.7,26.3c-0.2,125-0.9,250,0.5,375c0.3,25.2-11.8,24.3-29.2,24.4
			c-17.6,0-29.4,0.7-29.2-24.5c1.4-138,0.3-276.1,1.1-414.1c0.1-18.7-6.1-27-23.1-33.2c-39.9-14.7-80.9-22.8-123.2-25.9
			c-16.6-1.2-21.8,3.5-21.7,21.2c1,149.5,0.9,299.1,0.6,448.6c0,8.9,6.4,23.1-5.9,26c-14.5,3.4-30.8,2.6-45.5-0.3
			c-7.8-1.6-3.9-13.5-4-20.8c-0.6-146.5-1-293-1.4-439.4c-0.1-29.5-0.2-29.6-28.6-22.3c-40.3,10.3-77.7,27.5-114.3,47.2
			c-17.6,9.5-24.3,20.8-24,41.5c1.8,125.7,2,251.5,2.4,377.3c0,7.3,5.4,19.6-6.4,21c-15.6,1.9-32.4,4.8-47.2-2.1
			c-5.8-2.7-2.6-12.8-2.7-19.4c-0.8-108.9-1.5-217.8-2.1-326.7c-0.1-8.4,0-16.8,0-26.3c-11.1,0.3-15.3,8.6-20.6,14.1
			c-93.5,97-141.7,213-146.2,347.5c-0.3,7.6,5,19.9-5.4,21.9c-15.4,2.9-32,4.8-47.4-0.4c-5-1.7-2.8-9.7-2.8-14.9
			c0-272.4,197.6-502.8,443.2-543.6c137.8-22.9,258.8,17.9,361.3,109.5c135.4,121,194.6,275.2,186.3,456.1c-0.6,13.7-5.2,16-18,14.7
			c-38.5-3.8-37.9-3.2-37.6-42.6c1-158.7-57.5-290.9-178-395C1696.4,545.6,1687.1,539.3,1677.7,532.2z"/>
		<path class="st0" d="M1741.1,1712.4c82.2,0.3,149.6,66.9,148.7,146.6c-0.9,79.6-66.9,144-148.3,144.8
			c-82,0.7-149.3-64.8-149.4-145.5C1592.1,1777.5,1658.9,1712,1741.1,1712.4z M1737.7,1946.7c51.8,1.4,93.3-35.7,95-85.1
			c1.8-50.2-36.5-90.2-87.9-92.1c-52.3-1.9-95.1,36.2-96.8,86.1C1646.4,1904.3,1686.8,1945.3,1737.7,1946.7z"/>
		<path class="st0" d="M1228.6,2000.8c-80.4,0.2-149.3-63.4-149.3-138c-0.1-87.7,62.7-152,148.5-152.1
			c83.1-0.1,148.7,64.3,148.5,145.7C1375.9,1936.7,1310.5,2000.6,1228.6,2000.8z M1227.3,1766.6c-51.3,0.3-91,39.1-91,89.1
			c0,50.7,41.2,90.3,93.1,89.3c50.6-0.9,91.5-41.6,90.9-90.3C1319.6,1805.9,1277.7,1766.3,1227.3,1766.6z"/>
	</g>
</g>
</svg>
