<?xml version="1.0" encoding="utf-8"?>
<!-- Generator: Adobe Illustrator 23.0.0, SVG Export Plug-In . SVG Version: 6.00 Build 0)  -->
<svg version="1.0" xmlns="http://www.w3.org/2000/svg" xmlns:xlink="http://www.w3.org/1999/xlink" x="0px" y="0px"
	 viewBox="0 0 3000 3000" style="enable-background:new 0 0 3000 3000;" xml:space="preserve">
<style type="text/css">
	.st0{stroke:#000000;stroke-width:10;stroke-miterlimit:10;}
</style>
<g id="Layer_1">
</g>
<g id="Layer_2">
	<g>
		<path class="st0" d="M880.3,992.9c-95.2-18.3-177.8-53.7-249.5-113.2C506.6,776.5,459.3,617.1,507.5,463
			c23.4-74.7,60.2-141.9,109.8-202.4c34.4-41.9,79.1-68.7,128.5-88.5c89.8-35.9,184.1-54.8,279.1-69.2
			c260.5-39.5,522.7-58.7,786-63.6c101.3-1.9,202.2,2.1,302.7,19.6c192.4,33.7,347.5,224.5,361,396.8
			c8.9,113.2-26.7,213.8-92.4,304.7c-50.9,70.5-115,126.8-188.5,172.7c-5.9,3.7-13.2,5.7-17.1,13.3
			c121.2,77.5,170.4,199.9,205.1,330.7c44.2,166.4,61.2,335.9,50.2,507.8c-11.6,180.7-46.7,356.4-122.7,522.1
			c-17.6,38.4-38.3,75.3-65.2,108.2c-5.7,7-5.9,10.5,1.1,16.9c83.9,76.8,115.7,172.8,103.9,284.7c-2.5,23.9-4.6,47.7-10.6,71.1
			c-15.4,60.2-51.1,101.8-111.5,118.9c-81.2,23-162.8,44.3-247.5,49.9c-74.5,4.9-141-17.8-201.1-60.3c-13-9.2-18.7-10.9-31.2,3.1
			c-39.9,44.8-91,71.4-151.3,75.5c-86.2,5.8-172.6,9.7-258.8-2.3c-74-10.4-142.3-34.9-202.2-80.3c-10.8-8.2-15.9-10-24.9,2.8
			c-36.2,51.9-87.5,76.7-150.2,75.2c-81.8-1.9-163.8-2.2-245.3-9.7c-110.1-10.1-197.2-96.8-206.9-206.9
			c-5.4-60.6,16.9-113.5,53.8-160.5c25.8-32.9,55.3-62.3,91.8-83.4c10.5-6.1,9.8-10.3,2.9-18.7c-45.5-55.4-68.5-120-76.3-190.7
			c-0.8-7.7-1.6-15.3-7.6-21.5c-55.8-58-78.9-130.2-80.2-207.8c-3.5-214.9,5.5-429,69-636.5c45.7-149.4,121-281,240.8-384.4
			C825.4,1030,851.2,1012.6,880.3,992.9z M633.5,2324.6c4.8,41.5,23.3,86.1,48.1,121.9c48.2,69.7,118.6,105,196.9,127.3
			c73.3,20.9,148.9,28.6,224.4,36.8c126.7,13.8,252.8,9.9,378.9-6.9c96.2-12.8,189.1-38.3,280.5-70c67.8-23.6,120.5-65,153.9-129.5
			c6.6-12.7,8.6-18.6-10.4-18.4c-107.9,0.8-194.8-42.5-260.9-127.6c-109.4-140.7-46-351.4,122.7-409.7
			c68.6-23.7,137.8-22.2,207.6-8.8c15.8,3,18.7-1,18.2-15.9c-1.8-53.3-7.7-106.2-17.1-158.6c-48.2-268.3-252.6-392.6-468.7-396.5
			c-142.7-2.6-268.9,47.9-385.5,127.3c-95.2,64.8-159.1,151.2-191.4,261.4c-10.9,37.3-22.6,74.4-32.9,111.9
			c-33.9,123.1-61.4,247.1-50.2,376.2c2.3,26.7,0.9,53.2-2,79.7c-8.2,74.4-55.2,115.2-130.6,115.9
			C686.9,2341.2,660.8,2335.6,633.5,2324.6z M1990.4,2526.3c4.3,0.6,5.7,1.2,6.7,0.8c107.2-36.5,193.2-99,248.3-200.4
			c68.5-126.2,102.2-263.2,124-403.5c25.4-163.6,24.2-327.5-3.4-490.9c-18-106.4-41.7-211.2-91.8-308.2
			c-46.4-89.8-117.1-149.7-214.5-176.2c-81.3-22.1-164.9-24.2-248.5-23.7c-111.8,0.7-223.5,0.7-335.2,2.1
			c-101.3,1.3-202.7,2.7-303.2,18c-105.7,16.2-206.5,46.2-295.2,108.3c-130.3,91.2-209.7,219.3-261.2,366.5
			c-35.5,101.6-54,206.9-63.8,313.9c-9.3,103-16,206-14.4,309.4c1,67,11.3,132.2,54.6,187.2c26.6,33.9,59.6,57.8,103.5,63.4
			c21.9,2.8,22.7,1.5,17.2-19.1c-62.3-232.9-43.5-461.4,43.5-684c97.9-250.5,279.1-411.4,539.9-479.4
			c115.5-30.1,232.1-28.1,349.2-3.7c125.1,26.1,238.7,74.9,335.6,159.1c121.5,105.4,173.3,243.1,181.5,399.8
			c4.8,92.8,6.6,185.7,11,278.5c8,169.3-31.1,327-114.1,474.4C2039.3,2455.4,2016.1,2490.5,1990.4,2526.3z M542.6,644.5
			c9.2,50.3,27.8,93.4,56.7,131.8C676.4,878.8,783,929.5,907,948.2c20.9,3.1,42.3,9.1,63.4,0.4c81.3-33.2,166.5-49.7,253.3-58.6
			c14-1.4,16.8-6.9,16.6-19.5c-0.6-48.1-0.2-96.2-0.2-144.2c0-194.9-0.1-389.9,0.2-584.8c0-13.6-1.1-19.2-17.8-16.7
			c-53.2,8-107,12.6-160.2,20.7c-96.9,14.6-193.2,32.1-285.7,65.9c-57.5,21-107,52.6-142,104c-25.9,38-49.6,77.1-66.4,120.6
			c9.5,2.6,17.2,0.3,24.9-0.4c41.4-3.4,82.6-9.4,124.2-9.9c35.5-0.4,68,8.6,98.2,26.8c36.8,22.2,51.7,55.9,47.5,97.2
			c-5.4,53.1-42.1,88-102.7,98.4C688.5,660.2,616.7,659.7,542.6,644.5z M1903.5,482.6c0,125.4,0.2,250.8-0.3,376.2
			c-0.1,14.9,3.7,19.6,19.2,20.2c64.5,2.5,127.9,12.7,188.6,35.5c9,3.4,16,1.9,23.8-2.4c69-37.9,130.3-85.4,181.6-145.3
			c39.3-45.7,69.9-96.6,90.3-153.5c3.3-9.3,5.2-15.4-8.9-16.1c-66.8-3.5-133.3-10-199.5-19.5c-38.6-5.5-77-11.6-107.8-39.6
			c-45.5-41.5-36.6-103.2,19.3-128.6c11.8-5.4,24.2-9.1,37.1-11.2c80.9-12.8,162.5-19.2,244.2-23.1c9.9-0.5,18.8,0.8,11.8-14.3
			c-55.4-119.6-137.2-210.5-268.5-247.3c-69.3-19.4-140.8-22.6-212.1-26.8c-16.3-1-19.3,4.7-19.2,19.5
			C1903.7,231.8,1903.5,357.2,1903.5,482.6z M765.2,2280.5c18.2-10,24.4-26.5,28.9-43.3c6.2-23.4,7.2-47.4,6.2-71.5
			c-2.7-64.9-4.6-129.9,4.7-194.5c16.4-114.1,48.5-224.2,82-334.2c36.7-120.6,108.6-213.9,213-283.8
			c151.7-101.5,315.8-155.9,499.3-123.4c179.5,31.8,311.6,129.1,386,298.8c34.4,78.5,47.7,161.9,52.8,246.3
			c10.9,181.3-8.9,360.6-42.5,538.5c-16,84.4-49.9,159.7-120.4,214c-18.3,14.1-38.6,25.2-58.2,38.3c22.8-1.1,44.9-4.4,67.1-7.3
			c14.7-1.9,26.7-7.2,35.8-20.1c13.8-19.6,30.1-37.5,43.9-57.2c89.4-127.1,151.2-265.9,159.6-422.4c8.1-149.9,1.6-300-14.5-449.4
			c-15.5-142.8-82-257.8-199.9-339.9c-157.5-109.7-334.2-152.1-523.4-125.8c-256.5,35.6-445.4,172-558.1,405.6
			c-82.2,170.4-114.6,352.2-98.3,541.5C734.6,2154.7,747.1,2217.5,765.2,2280.5z M1773.8,2725.1c0,31.2,0.2,62.4-0.1,93.6
			c-0.1,8.2,0.8,14.7,7.8,20.5c63.1,51.5,133.6,78.5,216.3,68.5c69.7-8.5,137.6-25.8,205.4-43.1c42.9-10.9,73.8-35.6,86.6-80.7
			c8.9-31,11.1-62.6,13.2-94.2c5.6-86.9-24.1-160.3-87.2-220.4c-8.3-7.9-13.5-8.9-22-0.2c-14.6,14.8-31.2,27.4-48.8,38.6
			c-107.5,69-226.4,101.7-352.9,109.2c-14,0.8-19.3,3.6-18.6,18.6C1774.6,2665.3,1773.7,2695.2,1773.8,2725.1z M874.8,2921.7
			c25.1,0,62.1,0.4,99.1-0.1c35.8-0.5,65.2-15.4,88.2-42.7c51.6-61.5,63.8-131,43.1-207.7c-3-11-9.5-13.4-19.3-14.5
			c-42.5-5.1-85.1-9.8-127.4-16.5c-89.9-14.3-176.2-38.8-249.5-96.2c-7.2-5.6-12.4-3.9-19.2-0.3c-38.6,20.6-69.7,49.8-95.1,84.8
			c-83.2,114.5-26.6,256.2,112.8,283C758.9,2921.2,811.3,2914.9,874.8,2921.7z M1268.7,2664.1c-33.1,0-66.2,0.5-99.3-0.2
			c-12.3-0.3-16.8,0.6-13.5,15.5c11,48.5,9.3,96.9-8.2,143.8c-4.6,12.5-1,18.7,8.4,25.9c54.8,42.4,117.2,65.8,185.2,76
			c80.9,12.1,162,6.8,243.1,3.1c42.4-1.9,79-18.8,112-44.7c19.2-15.1,29.7-34.3,29.8-58.5c0.3-65.6,0.1-131.2,0.2-196.9
			c0-6.1,0-12-7.9-13.2c-14.5-2.1-27.9-6.8-43.8-2.5C1541.9,2648.6,1406.3,2665.7,1268.7,2664.1z M1658.7,486.4
			c0-10.4,0-20.8,0-31.2c0-115,0-229.9-0.1-344.9c0-9,3.6-20.2-13.3-18.9c-47.9,3.6-95.9,6.4-143.9,9c-11.1,0.6-15.7,3.8-15.7,16.1
			c0.3,248.8,0.4,497.6,0,746.3c0,14,5.7,15.7,17.3,15.5c44.8-0.6,89.7-1.3,134.4-0.1c17.1,0.4,21.8-4.3,21.7-21.5
			C1658.3,733.2,1658.7,609.8,1658.7,486.4z M1992.3,1937.1c0-11.5-0.6-22,0.2-32.3c0.8-9.5-2.5-14.3-12-16
			c-54.6-9.9-108.9-15.5-164.3-4.8c-147.4,28.4-240.9,211.3-130.3,349.2c60.1,74.9,137.6,109.1,233.4,104.3
			c17-0.9,24.1-5.5,27.6-22.9C1972.4,2189.5,1984.9,2063.1,1992.3,1937.1z M1855.4,482.9c0-126,0.1-252-0.1-378
			c0-8,4.4-18.9-11.6-18.4c-40.9,1.3-81.8,1.9-122.7,2.2c-11,0.1-13.9,4.3-13.9,15c0.3,252.7,0.3,505.3-0.1,758
			c0,13.5,4.8,16.1,16.9,15.8c37.7-0.9,75.4-1.9,113-0.8c16.2,0.5,19-5,18.9-19.6C1855.2,732.3,1855.4,607.6,1855.4,482.9z
			 M1438.2,492.8c0-122.8-0.3-245.6,0.4-368.3c0.1-16.1-5-19.7-19.6-18.2c-38.7,4-77.6,7.7-116.4,10.3c-12.4,0.9-14.5,6.2-14.5,17.1
			c0.2,244.9,0.3,489.8-0.1,734.8c0,13.4,4.5,15.9,17.1,15.2c36.9-2.3,74-4,111-4c17,0,22.8-3.8,22.6-22.3
			C1437.7,735.7,1438.2,614.2,1438.2,492.8z M669,609c10.5-0.7,29.9-1.8,49.3-3.6c22.6-2,45.2-4.9,66-15
			c21.5-10.5,31.1-28.5,31.3-51.9c0.2-22.3-9.9-38.2-29.8-48.4c-22.9-11.7-47.1-19.3-72.9-17.2c-50.4,4-100.7,9.4-151.1,13.6
			c-9.6,0.8-13.5,5.4-15.2,14c-5.3,26.1-9.4,52.2-9.4,79.1c0,11.7,4.3,15.7,14.8,17.8C587.7,604.8,623.6,608.9,669,609z
			 M2429.3,491.3c-1.6-16.8-3.8-33.5-4.5-50.4c-0.6-14.4-5.6-20-21.3-19.1c-68.1,3.9-136,8.8-203.7,17.1c-24.3,3-49.3,4.1-71.9,15.2
			c-21.8,10.6-25,27-8.5,45c12.3,13.4,28,20.8,45.6,24.2c67.6,12.9,136.1,19.1,204.6,24.1C2428.6,551.8,2428.6,552,2429.3,491.3z"/>
		<path class="st0" d="M1268.3,1792.8c33.6-37.9,67.7-71.5,105.1-101.6c29.3-23.7,60.2-45.1,92-65.4c9.7-6.2,13.6-4.5,19.2,4.9
			c16.9,28.5,17.3,28.2-10.7,46.3c-75.4,48.7-140.5,108.8-195.9,179.4c-7.3,9.3-12.7,19.2-16.5,30.5c-13,39.4-36.4,71.3-70.6,95.2
			c-9.4,6.6-16.9,9.8-21.8-4.3c-0.6-1.8-1.9-3.4-3.1-4.9c-12.1-15.3-9.6-24.8,6.6-38.1c41-33.8,57.3-78.5,48.1-132
			c-3.6-20.8-15.2-28.1-35-28c-55.2,0.5-110.5-1.1-165.6,1.1c-24.8,1-18.6-13.7-20-26.9c-1.5-14.7,1.1-22,19-21.5
			c51.9,1.2,103.9,1.6,155.7-0.2C1222.2,1725.7,1255.8,1741.2,1268.3,1792.8z"/>
		<path class="st0" d="M1902.6,1797c-30.4-0.4-55.7-26.6-54.8-56.7c0.9-29.5,26.5-54.3,55.8-53.9c30.5,0.3,55,26,54.3,56.8
			C1957.2,1773.1,1932.3,1797.3,1902.6,1797z"/>
		<path class="st0" d="M1436.6,2113.9c31.1,0.2,54.4,23.1,54.6,53.7c0.3,30.4-25.4,56-55.8,55.6c-29.6-0.4-54.5-25.3-54.8-54.8
			C1380.4,2137.5,1404.7,2113.8,1436.6,2113.9z"/>
		<path class="st0" d="M1582.8,1869.3c-31.6,0.4-55.7-23.4-55.7-54.8c0-30.3,23.7-54.6,53.9-55.1c30.6-0.5,56.1,24.6,56.1,55.2
			C1637,1844.7,1613,1868.9,1582.8,1869.3z"/>
		<path class="st0" d="M1537.5,2008c0.1,30.7-25.2,55.8-55.9,55.4c-29.5-0.4-54.4-25.5-54.5-55c-0.1-30.1,23.9-54.3,54.2-54.5
			C1513.7,1953.7,1537.4,1976.6,1537.5,2008z"/>
		<path class="st0" d="M1621.1,2481.6c0.3-30.3,24.4-54.3,54.3-54.2c30.3,0.1,55.8,26.2,55.1,56.4c-0.6,29.5-26,54.3-55.4,54.2
			C1644.6,2538.1,1620.9,2513.2,1621.1,2481.6z"/>
		<path class="st0" d="M1727.7,1833.8c-31-0.6-53.6-23.9-53.1-54.9c0.4-30.7,26.3-55.6,56.7-54.5c29.2,1.1,54.2,27.2,53.8,56.2
			C1784.6,1811.1,1759.5,1834.3,1727.7,1833.8z"/>
		<path class="st0" d="M1481.8,2299.6c30.3-0.4,54.8,23,55.7,53.4c0.9,30.5-24.1,56.9-54.3,57.3c-29.5,0.4-56.5-26.3-56.5-55.9
			C1426.8,2325.2,1452.1,2300,1481.8,2299.6z"/>
	</g>
</g>
</svg>
