<?xml version="1.0" encoding="utf-8"?>
<!-- Generator: Adobe Illustrator 23.0.0, SVG Export Plug-In . SVG Version: 6.00 Build 0)  -->
<svg version="1.0" xmlns="http://www.w3.org/2000/svg" xmlns:xlink="http://www.w3.org/1999/xlink" x="0px" y="0px"
	 viewBox="0 0 3000 3000" style="enable-background:new 0 0 3000 3000;" xml:space="preserve">
<style type="text/css">
	.st0{stroke:#000000;stroke-width:10;stroke-miterlimit:10;}
</style>
<g id="Layer_1">
</g>
<g id="Layer_2">
	<g>
		<path class="st0" d="M1929.2,1615.4c-29.7,60.4-45.2,125.8-54.9,192.6c-12.4,85.8-11.9,173.3-32.3,258.1
			c-6.5,26.9-13.3,53.6-20.9,80.2c-30,105.7-97.7,178.4-195.2,226.6c-351.3,173.6-709.1,176.8-1071.9,41.3
			c-54.3-20.3-106.1-47.1-158-73.4c-143.6-73-231.8-185.2-261.8-345.9c-27.8-149-47.6-298.7-63.5-449.2
			c-13.4-127-20.4-254.3-18.2-381.9c2.3-137.6,7.8-275.2,45.8-408.7c37-129.9,105.9-237.9,223-310.5c69.4-43,146.6-62.2,227.1-68.9
			c102.7-8.5,205.6-11.4,307,11c77.8,17.2,147,54,207.1,106.1c66.1,57.3,91.5,132.2,89.3,218.3c-2.3,87.8-17.1,174.1-27.1,261
			c-9.7,84.5-27.8,168.4-21.4,254.3c2.5,33.2,14,62.8,35.7,88.1c5.9,6.9,11.9,17.3,20.9,16.1c9.5-1.3,11.6-13.2,13.9-21.9
			c13.4-49.5,26.2-99.2,39.9-148.6c36.2-130,75-259.2,122-385.6c37.3-100.3,94-190.3,167-268.4c80.7-86.4,183.4-126.7,300.4-138.8
			c129.1-13.3,257.9-8.8,386.8-2c82.8,4.4,166,4.3,248.3,16.5c82.5,12.3,162.1,34.3,236.2,73.8c172.4,92.1,245,239.7,239.7,430.9
			c-3.5,125.5-41.8,242.8-83,359.4c-42.2,119.3-68.6,242-79.6,368c-2.9,32.9-3.2,66.2,6.2,98.4c9.8,33.8,19.7,40.3,54.9,38.4
			c13-0.7,26.2-3,39-1.8c49.5,4.8,78,34.2,81.8,94.8c6.1,96.8,2.6,193.7-20.6,288.6c-29.7,121.1-111.8,200.2-214,262.3
			c-92.6,56.3-195.3,80.3-301.8,89.3c-88.8,7.5-178.1,8-267.2,5.5c-29.2-0.8-58.3-4-86.6-11.8c-92.4-25.6-132.2-94.4-145.8-182.5
			c-23.7-154.4-25.5-309.1-2.4-463.8C1906.2,1759.3,1918,1687.4,1929.2,1615.4z M1781,2075.9c10.1-34.4,15.8-67.4,19.5-100.8
			c1.2-10.9-6.6-14.5-13.5-19.1c-52.4-34.9-104.8-69.7-157.2-104.6c-31.4-20.9-30.5-20.4-10.6-51.9c8.9-14,15-14.2,27.9-5.2
			c42.2,29.4,85.4,57.4,128.2,86c31.5,21,31.5,21,35.3-15.3c0.7-6.9,1.2-13.8,2.7-20.6c3.2-14.7-1-23.5-15.5-30.7
			c-42.5-21.2-84.1-44.3-126.1-66.8c-33-17.7-32.1-17.3-14.6-50.9c7.5-14.5,14.2-14,26.6-7c30.8,17.3,62.2,33.4,93.4,49.8
			c46.8,24.6,46.4,24.5,58.7-26.8c3.3-13.6,1.2-20.3-13.2-25.3c-45.5-15.9-90.1-34.7-135.9-49.7c-20.1-6.6-24-15.3-14.7-32.6
			c1.4-2.7,3-5.5,3.5-8.5c3.5-17.4,11.4-21.5,28.7-14.1c33.9,14.3,68.6,26.5,103.1,39.3c46.9,17.4,46.9,17.4,64.5-28.4
			c2.7-7.2,4.9-14.7,8.6-21.3c6.8-11.9,2.1-17.6-9-22.8c-25.6-12.2-50.8-25.3-76.1-38.2c-35.9-18.2-35.4-17.9-17.4-53.7
			c6.3-12.6,11.2-14.2,23.8-7.1c30.1,16.9,61.3,31.9,92.3,47.1c6.5,3.2,14.3,12.8,21.5,0.7c6-10.2,14.2-18.9,1.9-32.3
			c-23.9-26-45.5-54-68.1-81.2c-23.1-27.8-22.3-27,4.2-50.8c13.1-11.8,19.7-10.8,30.3,2.9c23.9,30.7,49.6,60,76.4,92
			c2.3-9.1,4.3-14.8,5.2-20.7c8-50.7,15.9-101.5,23.8-152.3c0.8-5.2-1.1-12.6,4.9-14.3c16.2-4.7,32.4,0.8,47.2,5.6
			c9.8,3.2,4,16.8,2.7,25.2c-6.8,45.5-14.5,90.8-21.8,136.4c7.6,0,9.8-5.4,13.4-9.2c27.8-29.8,55.5-59.6,83.4-89.3
			c22-23.4,21.3-22.4,46.4-0.9c15.4,13.2,13,21.5,0.3,34.8c-49.5,51.6-97.7,104.3-146.6,156.4c-10.4,11.1-18.1,22.7-14.6,41
			c8.4-5.9,16-10.8,23.1-16.2c51.5-38.9,103.2-77.4,154.1-117c14-10.9,23.1-12,31.3,4.9c1.6,3.4,4.4,6.4,7.1,9
			c13.5,13.4,10.6,21.5-4.9,32.9c-71.8,52.6-142.6,106.8-213.4,160.8c-6.3,4.8-16.9,7.7-15.9,21.4c57.7-14.5,114-28.7,170.3-42.9
			c35.4-8.9,35.4-8.9,45.7,26.2c0.3,1.1,1.8,1.8,3.3,3.2c82.4-116.6,191-190.5,336-205.7c-5.4-2.8-10.3-4.5-15.5-5.5
			c-63.1-12.4-116.2-43.4-160.4-89.1c-56.6-58.5-88.1-128.1-78.9-210.6c13.9-125.9,128.3-244.1,254-264.9
			c100.9-16.7,200.6-11.6,298.2,20.3c12.8,4.2,19.7,5.4,19.4-12.1c-2.3-149.2-62.2-265.2-193.5-341.3c-15.6-9-18.7-6.6-21.7,10.8
			c-22.9,132.3-79.6,246.4-184.6,333.1c-67.4,55.6-144.7,89.3-233,84c-152.9-9.1-289.5-117.5-337-263.7
			c-27.9-85.6-24.8-172.1-1.7-258.5c-2.9-0.5-5.2-1.3-7.4-1.1c-21.4,1.5-42.9,3.2-64.3,4.7c-114.1,7.6-211.1,50.8-286.5,138.2
			c-102.4,118.5-157.1,260.1-197.5,409c12.1,3,23.5,0,34.8-0.9c167.9-12.6,319.7,92.7,363.3,252.2
			c49.6,181.2-49.6,346.3-228.7,379.5c-21.3,3.9-43.3,3.6-66,5.3c41,58.3,36.2,112.7-11.4,144.1c-42,27.7-98.6,15.4-125.2-27.4
			c-16.1-25.9-18.5-53.4-7-81.6c11.1-27.3,32.7-44.1,64.6-55c-63-27.5-106.5-69.9-139.4-124.6c-0.6,70.8-10.5,137.9-39.1,201.5
			c-28.5,63.4-71.3,115.1-130.3,155.4c69.9,15.8,103.1,61,88,116.1c-13.7,49.8-67.8,78-116.4,60.7c-56.6-20-72-72.2-41.1-145.1
			c-54.3,15.3-108.2,14.5-163.3,5.6c24.5,64.9,12.1,112.7-33,134.1c-45.8,21.8-95.6,7.4-119.6-35c-15-26.6-15.8-54.1-3.5-81.9
			c12-27.1,35-42.1,65.6-52.7c-39.8-22.6-69.5-50.5-96.5-84.8c-14.4,61.7-59,93.7-109.4,82c-50.1-11.6-79.8-58.4-68.5-108.1
			c12.9-56.8,59.1-76.8,136.8-58c-6.2-28.3-12.1-55.9-11.6-84.3c3-160,112.8-312.8,263.8-366.8c61.1-21.9,124-28.5,188.4-21.5
			c10.1,1.1,19.1,3.2,20.3-12.9c2.9-39.8,7.4-79.5,11.8-119.2c1.5-13.7-0.6-18-15.5-12.1c-45.1,17.7-91.6,30.9-140.1,36.1
			c-131.7,14.1-239.5-28.2-315.9-138.1c-76.1-109.5-91.5-232.3-70.4-361.4c7.8-47.7,23.8-93,42.3-138.2c-4.5-0.6-6.8-1.3-9-1.1
			c-166.1,14.8-281,89-359.3,240.2c-8,15.5,1.6,14.4,11.6,14.4c68.4,0,136.8,1.1,205.2-0.6c24.9-0.6,22.6,13.2,22.7,29.1
			c0,15.9,2.3,29.7-22.4,29.1c-67.6-1.6-135.3-0.5-202.9-0.5c-45.3,0-44.4,0.3-56.7,44.3c-5.3,19,0.2,21.8,17.6,21.7
			c80.7-0.7,161.4,0.7,242.1-0.9c24.9-0.5,22.4,12.8,22.3,28.6c-0.1,15.3,3.7,29.2-21.8,28.7c-86.1-1.7-172.2-0.4-258.3-0.9
			c-13.1-0.1-19.5,2.8-20.5,16.9c-1.5,20.6-3.5,41.4-8,61.6c-4.7,21.4,2.5,25.7,22.9,25.4c78.4-1.1,156.8-0.2,235.2-0.7
			c14.6-0.1,21.8,3.5,19.4,19.2c-0.8,5.3-0.9,10.9,0,16.1c3.3,19.3-6.1,22.6-23.3,22.4c-70.7-0.8-141.4-0.3-212.1-0.3
			c-50,0-49.1,0-51.5,50.8c-0.9,20,5.5,24.1,24.2,23.9c80.7-1,161.4,0,242.1-0.8c15.7-0.1,23.1,3.6,20.5,20.2
			c-0.7,4.5-0.7,9.3,0,13.8c2.9,18-4.2,23.1-22.4,22.8c-80.7-1-161.4,0.3-242.1-1c-20.6-0.3-28.3,5.6-25.4,25.6
			c0.4,3,0.2,6.2-0.2,9.2c-2.7,18.9,2.5,26.8,24.4,26.2c60.7-1.8,121.4-0.1,182.2-1c15.1-0.2,21.2,4.1,19,19.2
			c-0.8,5.3-0.8,10.9,0,16.1c2.9,17.7-4.7,21.8-21.6,21.5c-49.9-1.1-99.9-0.4-149.9-0.4c-53.6,0-52.6,0-51,53.8
			c0.5,18.2,7.5,20.8,23.3,20.6c58.4-0.8,116.9,0.9,175.2-1c22.4-0.7,25.6,8,24.1,26.5c-1.3,16,5.5,33.1-23.5,31.8
			c-57.5-2.4-115.3,0-172.9-1.1c-17.7-0.3-22.9,5.1-20.9,22.2c2.8,23.6,4.7,47.4,5.5,71.2c0.6,16.3,8,19.9,23.1,19.7
			c69.2-0.7,138.4,0.9,207.5-0.9c28.4-0.8,20.2,16.8,21.6,31.4c1.7,16.9-0.5,26.4-22.3,25.9c-67.6-1.6-135.3-0.1-202.9-0.9
			c-15.7-0.2-20.2,4.4-17.5,19.6c3.2,18.1,6.3,36.6,6.4,54.9c0.1,22,7.8,24.6,27.9,19.4c57.9-14.8,116.6-26.2,174.5-41
			c20.6-5.3,30-3,33.9,19.8c5,29.5,6.6,29.4-23.6,36.5c-62,14.5-123.9,29-186,42.8c-10.4,2.3-17.3,4.5-15.3,17.3
			c6.4,41.3,12.3,82.7,18.8,126.5c70.6-39.1,138.3-76.7,206.1-114c30.6-16.9,30-16.2,47.2,13c8.7,14.8,8.3,22.1-8.2,30.9
			c-72.4,38.7-144,78.9-215.8,118.7c-8.2,4.6-19.6,6.8-16.6,21c5.3,25,8.8,50.5,18.5,77c62.8-49.6,123.6-97.5,184.2-145.7
			c27.2-21.6,26.2-21.1,49.3,5.3c12,13.7,10.5,20.6-3.6,31.5c-65.1,50.1-128.8,102.1-194,152c-16.6,12.7-18.9,23.4-10.6,42.1
			c15.3,34.2,35.5,64.2,61.2,91.3c11.5,12.1,15.5,10.3,23.7-2.7c56.3-88.8,113.4-177,170.3-265.5c17.6-27.4,17-26.2,44.6-10.5
			c17.8,10,18.7,17.8,7.5,34.8c-60.6,92.4-119.5,185.8-179.6,278.6c-7.9,12.2-8.3,19.4,5.2,26.9c26.2,14.5,52,29.5,77.5,45.2
			c12.3,7.6,17.5,5.6,22.4-8.3c35.3-100.5,71.5-200.7,107.3-301c11.4-32,10.8-30.5,43.5-21.1c19.9,5.7,19.9,13.6,13.6,30.6
			c-38.2,104.3-75,209.2-113,313.6c-5.3,14.5-3.4,20.8,11.3,27.7c24.2,11.3,49.1,20.5,73.5,31c16.6,7.1,23.1,5.7,26.6-14.6
			c18.2-104.2,39.3-207.9,57.2-312.2c6.3-36.8,28.3-13.6,43.2-14.2c20.1-0.8,14.9,14.3,12.7,26.3c-20.2,108.5-40.2,217.1-60.9,325.6
			c-2.4,12.3,1.6,16.6,12.2,19.2c26.1,6.5,52.2,12.9,78,20.2c14,3.9,17.9-0.2,19.6-14.6c11.3-96,24-191.8,35.7-287.8
			c3.8-30.8,3-30.9,34.4-26.3c2.3,0.3,4.6,1,6.9,0.8c17.4-1.4,19.4,6.4,17.3,22.3c-13.7,101.1-26,202.4-39.4,303.5
			c-1.7,13.2,3.2,18.1,15.2,19.5c25.2,3,50.4,5.5,75.3,10c22.6,4.1,30-2.6,30.6-26.4c2.6-103.7,7.2-207.3,11.3-311
			c0.3-6.6-2.5-17.7,4.5-18.6c15-1.9,31.2-2.1,45.7,1.7c12.5,3.3,5.8,17.4,5.5,26.1c-3.2,104.4-6.9,208.9-11.2,313.3
			c-0.6,14.2,1.2,21.1,17.7,20.2c24.5-1.4,49.2-1.3,73.8-0.3c16.9,0.7,22.2-4.7,22-22.2c-0.9-84.5-0.5-169.1-0.3-253.7
			c0-6.7-3.3-16.8,2.5-19.5c14.9-6.8,31.8-4.4,47.4-1.9c11,1.8,6.6,14,6.7,21.7c0.3,81.5,0.8,163-0.3,244.4
			c-0.3,20.4,6.3,25.4,25,21.9c23.4-4.4,46.9-8.1,70.6-10.8c16.3-1.9,20.6-9.3,20.5-25.5c-0.8-96.8,0.4-193.7-1-290.5
			c-0.3-23,8.4-26.4,28-26c18.8,0.4,31,0,30.5,25.9c-1.7,91.4,0.2,182.9-1.2,274.4c-0.4,23.5,7,24.2,25.8,18.3
			c42.5-13.4,84.3-28.5,126.1-43.9c21.2-7.8,24.3-14.6,12-34.5c-36.9-60.1-70.9-122.1-107.4-182.5c-9.1-15.1-8.3-23,8.1-28.8
			c2.1-0.8,4.2-2.1,5.9-3.5c17.1-14.5,27.4-12.6,39.1,8.9c35,63.9,73.1,126.1,109,189.5c7.6,13.3,14.1,14.8,26.9,7.7
			c20.8-11.6,41.3-23.6,61-37c12.1-8.2,14.2-14,2.5-25.8c-50.6-50.5-100-102.2-149.9-153.3c-22.9-23.5-21.9-22.5-0.2-46.4
			c14.1-15.5,22-13.8,35.7,0.7c50.6,53.7,102.9,105.8,153.9,159.1c10.3,10.8,15.3,10.9,23.4-2c12.7-20.3,21.9-42.1,31.5-63.9
			c6-13.6,3.8-21.3-9.2-30c-66.8-45-132.9-91.2-199.1-137.1c-5-3.5-14.3-8.4-13.7-11c3.3-16.1,14.9-28.2,25-40.3
			c7.8-9.3,15.2,1.2,21.5,5.6C1649,1985.1,1714,2029.9,1781,2075.9z M2719.2,2313c12.9-10.5,22.9-19.8,34-27.4
			c19.6-13.4,25.7-30.7,25-54.7c-2-69.9-1.4-139.9-1.2-209.8c0.1-42.7-7.1-36.9,37.6-38.4c15.2-0.5,19.6,4.4,19.3,19.5
			c-0.9,50.7-0.4,101.4-0.2,152.2c0,6.8-2.3,14.4,3.2,22.5c2.9-6.3,5-10.4,6.8-14.6c25.8-61.3,29.9-126.7,34.1-191.8
			c2.8-44.4,5.3-89.1-2.2-133.4c-1.6-9.6-1.6-23-12.5-24.5c-8.8-1.2-9.7,12.2-13.2,19.3c-46.8,96.3-113,175.7-205.6,230.6
			c-78.9,46.8-163.6,71.5-255.7,50.4c-147.6-33.8-255.6-203-231.1-358.5c5.9-37.7,17.3-73.5,35.9-110.5c-10,1.9-16,2.8-21.8,4.3
			c-56.5,14.3-112.9,28.7-169.4,43c-32.3,8.2-36.4,14.4-31.7,49.5c44.1-10,88.2-19.9,132.3-29.9c38-8.6,37.4-8.4,46.2,30.1
			c3.3,14.3-0.3,18.2-14.2,21.1c-53.3,11-106.2,23.7-159.3,35.7c-8.8,2-19.5,1.8-21.1,13.9c-3.7,28.6-6.8,57.2-10.5,88.8
			c54.8-20.9,106.2-40.6,157.7-60c43.1-16.2,30.4-16.4,48.6,22.5c6.6,14.1,2.4,19.2-11.5,24.3c-51.1,18.6-101.7,38.7-152.6,58.1
			c-50,19.1-49.7,19-50.2,72.3c-0.1,14.2,2.6,17.5,16.8,11.8c49-19.8,98.6-38.3,147.8-57.6c35.9-14.1,34.9-14,49.7,21.8
			c6,14.6,2.5,19.3-11.4,24.5c-54.6,20.3-109,41.1-162.9,63.1c-48.6,19.8-39.1,4.7-37.6,57.8c1.1,41.8,1.5,41.7,37.7,22.8
			c52.3-27.3,104.7-54.6,157.1-81.8c27.1-14.1,26.1-13.3,41.9,13.3c10.6,17.7,9,26.1-10.5,35.7c-67.4,33.1-133.9,68.2-200.7,102.7
			c-7.8,4.1-17.8,6.3-15.9,19.2c5.2,35.7,10.7,71.2,25.7,104.6c7.1,15.9,13.3,16,26.4,5.1c76-63.5,152.8-126.1,229.2-189.1
			c31.2-25.7,30.5-25.4,56,4.7c9.2,10.8,9,15.8-2.3,24.9c-50.9,40.8-101.1,82.6-151.4,124.2c-33.9,28-67.8,56.2-102.7,85.2
			c13.3,9.1,25.2,11.9,37,14.6c40.8,9.3,82.3,8.8,123.8,9.4c14.1,0.2,21.8-4,28.7-16.5c43-77.9,86.7-155.4,130.5-232.8
			c17.7-31.3,17.6-30.3,49.9-13.8c14.8,7.6,15.4,14,7.4,27.7c-28.3,48.3-55.2,97.4-82.5,146.3c-15.9,28.5-31.6,57.1-48.9,88.3
			c66.2-3.2,128.3-4.6,189.9-14.8c14.6-2.4,20-7.9,19.8-23.7c-0.9-71.5,0.9-143-1.1-214.4c-0.7-25.9,12.2-23.8,29.3-23.8
			c17.1,0,30.1-2,29.3,23.8c-2.1,66,0,132.2-1.1,198.3c-0.3,19.8,5.7,21.4,22.3,15.6c26.8-9.4,52.9-20.3,78.7-32.2
			c15.4-7.1,20.8-16.2,19.9-33.5c-3.7-70.6-6.2-141.2-8.2-211.9c-1.1-40.4-0.3-39.8,40.4-39.6c13,0.1,15.2,5.1,15.4,16.2
			c0.3,23,1.7,46.1,2.9,69.1C2714.9,2211.6,2712.9,2260.6,2719.2,2313z M642.5,914.5c6.3,7.4,11.3,14.1,17.2,19.9
			c10.9,10.7,21.7,21.6,33.7,31c36.8,28.8,37,28.5,73.9-0.8c6-4.8,11.7-9.9,18.1-14.1c8.8-5.7,9.9-11.3,4.2-20.5
			c-14.7-23.2-28.7-46.9-42.5-70.6c-5.1-8.8-9.8-9.2-18-3.5C700.9,875.5,672.2,894.4,642.5,914.5z M918.8,838.6
			c-1-1.7-2.1-3.7-3.4-5.6c-15.6-22.6-26.9-54.5-48.4-64.7c-16.3-7.7-39.3,22.9-60.2,35c-2.6,1.5-4.9,3.7-7.6,5.1
			c-9.4,4.9-11.1,10.7-5,20.2c13.6,21.3,26.4,43,39,64.9c5.5,9.5,10.3,11.2,19.3,3.6c19.2-16.4,39.4-31.7,59-47.6
			C914.8,846.8,919.6,844.7,918.8,838.6z M2298.9,541.4c2.4-8-1.7-9.7-4.8-10.8c-29.4-10.5-58.8-20.7-88.2-31
			c-14.4,21.5-28.6,43.1-43.1,64.5c-5.3,7.9-6,12.5,5,16.4c25.1,9,49.7,19.5,74.5,29.3c4.2,1.7,10.2,4.6,12.8,0.6
			C2270.7,587,2285.4,562.9,2298.9,541.4z M613,865.8c15.3-10.2,29.9-19.9,44.4-29.7c57.9-38.9,57.7-38.8,17.1-97.6
			c-5.9-8.5-9.6-9.2-17.6-3.2c-21.4,16.1-43.3,31.4-65.1,46.9c-6.8,4.8-11.4,9.8-8.1,18.9C591.8,823.2,598.5,845.8,613,865.8z
			 M2319.7,801c7.1,0.9,9.1-3.4,11.4-7.4c5.3-9.3,10.7-18.6,15.9-27.9c25.1-44.8,25.1-44.8-23.5-63.2
			c-46.3-17.5-46.3-17.5-71.4,24.3c-20.7,34.6-20.8,34.6,16.3,51.4C2285.9,786.1,2303.4,793.7,2319.7,801z M2443.8,594.6
			c2-9-3.6-9.3-7.6-10.8c-22.9-8.7-45.9-17.1-68.7-25.9c-8.2-3.2-12.7,0-16.8,6.9c-11.3,19.1-22.6,38.3-34.7,57
			c-6.3,9.8-7.3,15.1,5.9,19.6c22.4,7.6,44.1,17.3,66.3,25.8c3.9,1.5,9.6,5.9,12.6,1C2415.9,643.2,2430.2,617.9,2443.8,594.6z
			 M2171.3,735.6c7.7,1.5,10-2.1,12.6-6.3c11.5-19,23.1-37.9,35-56.6c6-9.5-0.6-11.3-7.4-14c-25-9.6-50-19-74.7-29.4
			c-8.7-3.6-13.7-3.4-18.8,5.2c-9.7,16.5-20.6,32.2-30.6,48.6c-2.4,3.9-9.4,9.9-2.1,13.5C2114.3,710.6,2143.8,723.3,2171.3,735.6z
			 M2569.4,1795.7c8.9-3.8,12.3-12.1,16.7-18.8c11.7-17.7,36-33.4,33.5-52.1c-2.5-18.7-30.7-27.4-44.9-43.2
			c-13.8-15.3-22.7-11.9-32.2,4.2c-11.4,19.5-39.5,37-35.2,55.4c4.2,17.9,31.9,30.4,49.4,45.2
			C2560.7,1789.8,2565.1,1792.6,2569.4,1795.7z M785.7,644.5c-1.9,0.9-4.2,1.6-6,2.9c-20.9,15.4-49.6,26.9-60.1,47.6
			c-7.9,15.5,18.5,37,28.6,56.4c0.7,1.4,1.5,2.7,2.2,4.1c4.5,9.8,9.9,11.5,19.4,4.6c18.6-13.5,38.1-25.7,57-38.6
			c3.5-2.4,9.9-4.9,6.4-10.3c-14-21.8-28.8-43.2-43.4-64.7C789.1,645.5,787.3,645.2,785.7,644.5z M2518,463.3
			c1.8-7.9-2.8-8.2-6.1-9.1c-7.3-2.1-14.7-3.9-22.2-5.7c-63.5-14.9-64.6-14.4-95.1,44.3c-1.7,3.3-4.4,7-4.3,10.3
			c0.3,5.5,82.8,35.6,85.6,31.1C2491,510.3,2504.9,485.7,2518,463.3z M703.4,521.6c-12.8,8-25.8,16.1-38.8,24.2
			c-29.1,18.2-29.1,18.2-12.1,46.8c6.7,11.2,14.2,22,19.8,33.7c8.4,17.7,17.1,19.5,31.7,5.7c11.6-10.9,25.7-19.3,39.2-28.1
			c9.4-6.1,12.5-11.5,4.7-21.9c-12.4-16.6-23.1-34.3-34.7-51.4C710.8,527,709,522.5,703.4,521.6z M2484,1908c7.1,1.3,9-3.8,11.6-7.1
			c5.7-7.2,10.9-14.7,16.3-22.1c25.3-34.6,25.3-34.6-7.3-61.5c-36.7-30.2-36.7-30.2-64.5,8.3c-22.5,31.2-22.5,31.2,8.5,55
			C2460.7,1889.8,2472.7,1899.2,2484,1908z M987.8,941.5c-8.7-13.1-18.6-26.6-27-41c-6.1-10.4-11.1-9.5-19.4-2.5
			c-19.3,16.2-39.4,31.6-59.1,47.3c-6,4.8-13.7,9.7-6.6,18.5c13.1,15.9,15.6,39.7,37,49.2c0.6,0.2,1.6-0.1,2.2-0.5
			c25.6-20.7,49.1-43.5,71.8-67.3C987.2,944.6,987.2,943.6,987.8,941.5z M2052.9,745.2c-2.2,1.2-5,2.2-7.2,4
			c-23.9,19.5-24.7,41.2-1.6,60.4c11.8,9.8,24.2,18.9,36.9,27.5c26.4,17.7,26.6,17.5,43.4-9.4c24.7-39.6,24.8-39.6-18-58.8
			C2088.9,761,2071.4,753.4,2052.9,745.2z M2094.9,552.2c6.5,0.8,9.2-1.6,11.4-5.1c12.8-20.1,25.7-40.1,38.4-60.1
			c1.2-1.9,3.2-5.5,2.5-6.1c-14.7-15.7-36.5-16.4-54.6-25.1c-6.3-3-14.2-8.7-19.7,2c-0.4,0.7-0.8,1.3-1.2,1.9
			c-12.4,18.5-24.8,37-37.1,55.5c-2.9,4.4-7.5,9.8,0.4,13.1C2055.4,536.9,2076.2,544.7,2094.9,552.2z M2364.8,1703.6
			c-10.3,12.2-20.3,23.6-29.9,35.4c-26.5,32.8-26.5,32.9,7.5,58.8c30.6,23.3,30.6,23.3,52.5-7.1c29.4-40.6,29.4-40.7-11-72.8
			C2378.1,1713.3,2372,1708.9,2364.8,1703.6z M2336.2,1871.6c-0.3-7.3-4.4-9.9-7.9-12.6c-15.7-12.3-31.8-24-47.1-36.8
			c-9-7.5-12.8-1.8-17.8,4.5c-10.5,13.2-21.3,26.1-32.2,39c-10.7,12.5-8.4,21.6,6.2,28.9c15.7,7.9,31,16.6,46.5,25
			c4,2.1,9.6,6.6,12.4,3.2C2310.5,1905.7,2323.6,1887.9,2336.2,1871.6z M1540.5,1458.5c-1-1.8-1.6-4.3-3.1-5.7
			c-12.8-12.1-24.1-28.9-39.3-34.2c-8.3-2.9-15.7,19.5-24,30.2c-4.7,6-8.6,12.7-12.9,19.1c-24.8,37.2-24.3,36.8,3.2,70.7
			c10.1,12.4,16.2,11,24.1-1.1c15.1-23.1,30.6-45.9,45.9-68.9C1536.6,1465.5,1538.4,1462.1,1540.5,1458.5z M987.6,612.1
			c8.7-5.7,16.4-10.5,24-15.6c49.3-33.4,49.7-34,2.4-70.6c-37.5-29-23.8-28.2-66.1,0.8c-8.4,5.8-8.5,10.6-3.6,18.3
			c12.3,19.3,24.1,38.8,36.3,58.2C982.5,606.1,985,608.7,987.6,612.1z M2510.3,1633c-0.5-6.5-45.5-44.3-50.1-43.4
			c-1.4,0.3-3,1.1-3.9,2.1c-17.5,21.3-41.4,40.4-49.8,64.9c-4.9,14.4,26.6,25,39.7,39.4c0.5,0.6,1.2,0.9,1.8,1.5
			c7.1,7.9,12,5.7,17.6-2.3c12.7-18.2,26.3-35.8,39.4-53.7C2507.2,1638.4,2509,1635,2510.3,1633z M1563.8,1205.3
			c6.8-0.8,8-5.8,10.4-9.4c12.4-18.4,24.5-36.9,36.9-55.2c4.5-6.6,8.7-12.7,0.9-20c-13.8-13-25.2-29-44.1-35.2
			c-1.4-0.5-5.6,6.5-8.1,10.3c-10.3,15.2-19.2,31.5-31,45.3c-14.4,16.9-11.6,28.3,5.9,39.9
			C1545.4,1188.1,1554.6,1197.5,1563.8,1205.3z M1400.5,1456.6c8.9-13.2,15.8-23.3,22.6-33.5c35.3-52.8,35.3-52.8-14.2-93.7
			c-0.6-0.5-1.4-0.6-3.5-1.4c-14.2,21.2-28.4,42.9-43.1,64.1c-4.7,6.8-4.5,12.1,0.8,18.4C1375.2,1425.1,1387,1440,1400.5,1456.6z
			 M2068.2,607.5c-0.5-5-4.7-6.4-8.7-8.5c-58.5-30.4-65.1-28.7-99.5,27.7c-1.2,1.9-2.5,3.8-3.9,5.6c-2.9,3.9-2.3,6.7,2.3,8.7
			c20.9,9.1,41.9,18.2,62.8,27.4c3.1,1.4,6.4,2.1,8.2-0.7C2042.3,648,2054.9,628.1,2068.2,607.5z M2616.3,1166.8
			c-0.6-2.5-0.5-4.2-1.3-5.3c-9.9-13.4-17.5-31.2-30.8-38.5c-7.7-4.2-17,16.1-25.5,25.4c-5.7,6.2-11.2,12.6-16.5,19.1
			c-26.5,32.5-26.5,32.5-4.1,68.2c0.4,0.6,0.8,1.3,1.1,2c5.3,11.7,10.7,12.5,19,1.8c16.4-21.1,33.9-41.5,50.8-62.2
			C2611.8,1173.8,2614.1,1169.9,2616.3,1166.8z M803.2,560.6c16.1-11.6,30.5-22.8,45.9-32.8c9.6-6.2,12.3-11.5,5.1-21.7
			c-10.1-14.3-19.3-29.4-27.7-44.8c-6-11-12.2-11.4-21.5-4.4c-15.8,11.8-42,17.6-46,34.2c-3,12.3,17.2,30.2,27,45.6
			c3.7,5.8,7.4,11.6,11.3,17.2C798.8,556.1,800.9,558,803.2,560.6z M2726.4,1219.7c4.5-3.9,8.1-6.7,11.2-9.8
			c14.1-14.1,27.2-29.4,42.5-42.1c14.7-12.3,11.6-20.6,0-33c-33.8-36.2-33.3-36.7-64,0.9c-26.7,32.7-26.8,32.7-2.5,67.2
			C2717.5,1208.3,2721.6,1213.5,2726.4,1219.7z M2241.4,886.3c6.4-0.4,17-1.5,27.7-1.9c17.1-0.7,21-15.1,24.4-26.5
			c3.5-11.7-11.1-9.4-17.2-13.6c-7.4-5.1-16.5-7.8-24.9-11.4c-53.8-23.1-53.8-23.1-81.1,28.7c-0.4,0.7-0.5,1.5-1,2.1
			c-7.5,9.1-3.3,13.1,6.3,15.3C2195.8,883.6,2216.3,885.8,2241.4,886.3z M937.2,641.1c-9.6-15.8-19.6-32.1-29.6-48.4
			c-15.9-25.8-16-25.8-41-7.4c-32.4,23.8-32.4,23.8-10,57.3c29.4,43.9,34.4,44.4,74.7,8.2C934.1,648.2,937.5,646.4,937.2,641.1z
			 M775.3,1700.1c-8.5-14-18.3-28.7-26.4-44.2c-5.8-11.1-10.9-12.7-20.5-4c-15.3,13.9-31.4,26.9-47.4,40c-5.9,4.8-10.7,8.7-4.2,16.6
			c13.6,16.7,26.5,37.6,46.5,42.6c13.8,3.4,23.2-19,35.5-28.9c4.2-3.3,7.8-7.4,11.5-11.3C772.9,1708.2,776.3,1705.9,775.3,1700.1z
			 M2553.8,634.3c1.6-4.8-1.3-6.3-4.9-8.6c-31-20.6-47.4-17.4-65.5,13.4c-3.5,5.9-6.7,12-10.1,18.1c-19.5,35.6-19.6,35.9,18.2,50.3
			c7,2.6,15.9,11.8,22.7,1.9C2530.1,685.8,2543.5,660.8,2553.8,634.3z M2693.8,1625c-1.2-1.5-2.8-4.1-5-6
			c-17.1-15.4-34.2-30.7-51.3-46.1c-5-4.5-8.3-3.5-13.3,1.4c-35.1,34.6-35.2,45.5,1.2,76.3c8.2,6.9,16.5,13.8,24.8,20.6
			c2.9,2.4,5.4,5.5,9.9,3.8C2663.5,1673.7,2694.3,1629.6,2693.8,1625z M2650.9,1215.7c-18.1,22.1-34,45-53.5,64.3
			c-18.2,18-16.1,32.4-1.9,50.8c7.3,9.5,10.9,12.9,19.9,2.7c11.2-12.6,23.6-24.1,35.5-36.1c36.3-36.5,36.3-36.5,5.6-77.2
			C2655.6,1219.1,2654.1,1218.3,2650.9,1215.7z M568.3,728.7c21.5-15.2,39-28.8,57.7-40.5c11.7-7.3,10.5-13.7,3.9-23.7
			c-11.4-17.2-21.4-35.4-32.4-52.8c-3.6-5.7-4.4-16.6-15.3-13.1c-8.3,2.7-14.7,8.2-15.6,18C563.3,652.5,562.8,688.3,568.3,728.7z
			 M2389.3,1261.7c15-17.7,28.1-34.7,43-50.2c12-12.5,12.6-22.6,2.8-37.5c-22.2-33.6-21.3-34.2-48.4-4.9c-37.9,41-38,44.8-2.2,88.4
			C2385.5,1258.6,2386.8,1259.5,2389.3,1261.7z M1011.8,761.7c-4.8-8-10.6-17.9-16.7-27.5c-26.4-41.6-26.1-41.2-67.5-12.6
			c-9.5,6.6-12.4,10.6-4.7,20.7c11,14.6,21.5,29.8,30.2,45.8c9.2,17,18.2,16.4,30.5,3.9c6.4-6.5,14.2-11.5,21.3-17.4
			C1008.2,771.9,1012.8,769.6,1011.8,761.7z M823.6,1268.3c-4.1-0.2-48.7,26-50.9,30.7c-6.1,13,5.9,20.8,9.9,30.8
			c4.8,12.1,11.4,23.4,17.8,34.7c2,3.5,2.7,9,8.6,9.1c4.5,0.1,51.7-35.1,50.3-38.3c-10-22.2-20.9-44-31.6-65.8
			C827.2,1268.7,825,1268.7,823.6,1268.3z M1622.4,1336.4c-1.3-2.4-2-4.8-3.5-6.2c-13.3-11.4-25.4-27.5-40.8-31.9
			c-9-2.5-15.7,19.6-23.8,30.4c-5.5,7.3-9.7,15.7-15.6,22.7c-8.8,10.4-7.1,17.3,2.7,26.8c32.7,31.7,32.2,32.2,57.3-5.3
			c6-8.9,12-17.8,17.9-26.8C1618.5,1343,1620.3,1339.7,1622.4,1336.4z M1451.5,1032.3c-8.9-1.2-13.3-1.6-17.4,1.8
			c-19.6,16.6-19.7,40.1-0.1,57.4c9.8,8.6,19.6,17.2,29.2,26.1c6.6,6.2,10.8,5.3,15.7-2.5c10.6-16.9,22-33.3,33.1-49.8
			c4.2-6.3,7.4-11.6-3.1-15.7C1488.8,1041.6,1468.3,1035.6,1451.5,1032.3z M2484.9,1147.3c15-17.7,29-33.7,42.5-50.3
			c24.8-30.4,24.3-30.2-0.2-61.9c-7.5-9.7-11.8-8.6-18.9-0.4c-15,17.3-30.5,34.1-46.1,50.9c-5.8,6.2-8.8,11.6-3.2,19.9
			C2467.8,1118.8,2475.7,1132.5,2484.9,1147.3z M1533.5,1257.6c-1.9-2.6-3.1-5.3-5.1-7.1c-14.4-12.5-27.7-32-43.9-34.8
			c-12.3-2.1-18.9,24.2-29.3,37c-3.4,4.1-5.9,8.9-9,13.3c-4.6,6.5-8.9,12.8-0.4,19.7c14.6,11.9,24.7,29,43,36.6
			c0.3,0.1,1.2-0.9,1.6-1.5C1504.6,1300.1,1518.7,1279.3,1533.5,1257.6z M2772.1,907.4c-8.9-2.4-14.4,1.9-19.5,8.5
			c-7,9-14.8,17.5-22,26.4c-23,28.2-22.4,27.8,2.3,55.2c9.3,10.4,14.8,12.6,23.8-0.1c11-15.5,24.3-29.4,35.8-44.6
			c7.6-10.1,25.1-21.3,20.5-30.1C2806.6,910,2786.1,912.7,2772.1,907.4z M1384.5,1125c-6,10.2-11.4,19.1-16.5,28.3
			c-20.3,37-19.5,36.2,9.7,66.9c14.8,15.6,22.2,16,34.1-3.2c27.5-44.3,28.4-43.7-11.7-79.2C1395.6,1133.7,1390.8,1130.1,1384.5,1125
			z M1965.2,414.2c-13.7-3.8-22,2.3-23.5,19.2c-0.7,8.1-3.6,16.2-6.5,24c-8.2,21.8-3.5,34.5,21.3,41.2c14,3.7,21,2.4,27.6-9.6
			c5.2-9.3,11.7-17.9,17.6-26.8c23-34.3,19.6-41.8-22.5-48C1975.5,413.7,1971.6,414.2,1965.2,414.2z M724.4,1343
			c-15.4,14.8-24.3,31.1-35.9,45.2c-16.1,19.7-15.9,37.3,0,57.2c6.7,8.4,9.5,10.7,19.1,4.5c55.2-35.5,55.4-35.2,24.6-93.4
			C730.2,1352.6,727.8,1348.8,724.4,1343z M2266.7,1734.7c1.4,0.1,3.4-5.8,6.6-9.6c12.8-15.2,24.6-31.2,38.1-45.8
			c9.1-9.9,7.1-15.4-2.6-23.4c-37.7-31.5-37.5-31.8-62.4,11.3c-4.2,7.3-8.2,14.7-11.9,22.3C2227.2,1704.9,2244,1732.8,2266.7,1734.7
			z M1095.4,685.1c-0.7-11-0.8-17.9-1.7-24.7c-6.4-46.9-6.4-46.9-45.3-20.5c-7.6,5.2-15.1,10.6-22.9,15.3c-6.6,4-7.6,8.4-3.4,15
			c10.7,16.8,21.1,33.8,31.6,50.7c2.9,4.7,5.9,9.9,12.3,4.4C1079.9,713.5,1101.3,706.3,1095.4,685.1z M2453.4,1958.1
			c-3-3.3-4.7-5.8-7-7.6c-18.6-14.5-37.4-28.8-56-43.4c-4.5-3.5-7.9-3.8-11.3,1.1c-9.9,14.4-25.9,27.9-27.9,43.3
			c-1.4,10.9,21.9,14.7,34,22.1c7.8,4.7,15.6,9.7,24,13.2c6.1,2.6,12.1,12.8,19.5,4.3C2437.7,1981,2445,1969.4,2453.4,1958.1z
			 M2624,1918.3c-1-2.4-1.2-4.2-2.2-5c-12.4-10.3-23.5-24.2-37.8-29.3c-10.1-3.6-14.7,14.2-21.8,22.3c-6,6.9-10.4,15.3-16.7,21.9
			c-12.6,13.1-9.9,21.3,4.8,31.6c32,22.7,31.4,23.6,53-9.3C2610.4,1939.7,2617.3,1928.7,2624,1918.3z M631.4,1586.5
			c0.8,7.6,1.1,15.3,2.6,22.7c2.4,11.9,1.6,29.6,10.8,33.5c10,4.3,18.9-11.7,28.6-18.4c3.1-2.2,5.8-5,8.7-7.4
			c28.7-24.1,28.9-24.2,9.4-56.6c-3.8-6.3-5.5-15.4-14.1-16.9C669.1,1542,631.4,1578.1,631.4,1586.5z M2414.2,1553
			c-0.7-2.2-1.1-4.3-2-6.2c-7.3-14.9-27.4-20.7-40.7-10.9c-17.2,12.6-33.4,26.4-50.4,39.4c-9.5,7.2-7.3,12.1,0.8,19.2
			c33.7,29.6,33.5,29.9,62.9-5.9C2394.5,1576.8,2404.2,1565.1,2414.2,1553z M2704.8,1795.5c-0.8-2.3-1-4.2-1.9-5.1
			c-10.4-9-19.7-21.1-31.8-25.5c-9.1-3.3-13.1,11.9-19,19c-4.9,5.9-9.1,12.2-13.7,18.4c-24.6,33.4-24.4,33.2,8.3,58.1
			c7.6,5.8,11.8,7.4,17.5-2.2c8.9-15.1,19.2-29.4,28.8-44.1C2697,1807.8,2701,1801.4,2704.8,1795.5z M1319.8,1353.9
			c7.5-11.2,13.8-20.8,20.1-30.3c27.2-41,26.7-43.8-12.2-73.6c-5.9-4.6-8.6-6-14,1.3C1278.7,1298.8,1278.8,1307.6,1319.8,1353.9z
			 M2302.4,428.8c0-0.5,0-1,0-1.4c-13.7-0.9-27.5-1.5-41.2-2.6c-13.2-1-17.5,9.5-20.6,18.1c-4.2,11.7,8.4,9.8,14.1,12.4
			c12.5,5.6,25.6,9.9,38.5,14.6c41.4,15.1,41.4,15.1,63-23.1c0.4-0.7,0.7-1.4,1.2-2c9-12.3,2.8-15.8-9.2-15.9
			C2333,428.7,2317.7,428.8,2302.4,428.8z M2656.5,1118.9c10.2-12.3,19.3-23.5,28.6-34.6c26-31.3,25.1-38-7.4-64.3
			c-5.5-4.5-8-3.6-13,0.7C2619.6,1060.1,2618.2,1072.8,2656.5,1118.9z M1084.9,1475.4c-16.4,18.2-30,35-45.5,49.8
			c-10.3,9.8-10.7,17.7-4.4,29.8c18.2,35.6,17.7,35.9,45.6,7.6C1116.8,1525.7,1116.8,1525.7,1084.9,1475.4z M2458.7,940.1
			c-20.2,15.5-38.8,31.2-55,49.6c-3.8,4.3-10.4,8-5.7,15.4c7.7,12.2,13.1,29.1,24.2,34.7c8.2,4.1,16.4-14.7,25.4-22.5
			c3.4-3,6.4-6.6,9.3-10C2490,968.6,2490.3,984,2458.7,940.1z M2584.7,1528.3c-4.1-9.5-14.5-14.1-22.1-21.3
			c-21.3-20.2-21.6-20-39.8,2.9c-26.9,33.7-27,33.8,8.2,61.4c5,3.9,8.2,11.6,16.5,9.9C2551.1,1580.4,2585,1532.9,2584.7,1528.3z
			 M864.3,1613.7c-8.7-16.2-14.2-35.8-27.1-46.9c-6.9-6-19.3,12.9-29.8,19.7c-3.2,2-5.5,5.5-8.7,7.4c-13,7.2-14,16-4.8,27.2
			c3.4,4.1,5.7,9,8.4,13.6c16.7,28.5,17,28.7,40.4,5C850.4,1631.6,861.1,1625.9,864.3,1613.7z M810.2,1507.7
			c-7.5-14-12.1-30.3-22.7-39.8c-8.9-7.9-17,8.2-25.8,12.8c-8,4.1-14.3,11.6-22.3,15.8c-13,6.8-11.6,14-5,25.2
			c20.9,35.3,20.5,35.6,52.5,8.2c5.2-4.5,10.7-8.6,15.8-13.2C805.3,1514.3,807.3,1511.1,810.2,1507.7z M965.1,1683.4
			c9.7-11.2,18.1-20.1,25.5-29.7c6.2-8.1,21-12.6,17.6-24.3c-4.3-15.1-13-29.1-20.8-43.1c-3.3-5.9-7.4-1.2-11.1,1.5
			c-40.8,30.1-42.8,38.7-19.2,82.8C958.5,1673.3,960.3,1675.8,965.1,1683.4z M2474.7,761.9c-10.7-4.1-20.4-6.5-28.6-11.4
			c-16.8-10-25.4-4.4-32.8,12.2c-7.7,17.3-18.4,33.4-27.3,50.2c-2.5,4.7-10.3,9.4-2.8,15.4c6.3,5,13.1,6.4,20.7,0.6
			C2429.4,809.6,2454,789.3,2474.7,761.9z M2477.2,1246.2c-10.1,11.7-18.7,21.4-27,31.3c-24.2,28.6-23.8,31.9,9.7,49.8
			c6.7,3.6,13.5,13.2,24.1,3.3c25.7-23.9,27.1-30.6,8.4-60.8C2488,1262.7,2483.4,1255.7,2477.2,1246.2z M1652.6,1181.7
			c-7.3,10.5-12.6,17.9-17.7,25.5c-28.1,42-28.1,42,12,72.1c1.2,0.9,2.4,2,3.5,3c2.4,2.1,5.7,4,7.7,0.8
			c7.7-12.7,22.5-22.6,17.7-40.4C1670.5,1222.8,1665.3,1202.9,1652.6,1181.7z M671.9,468.7c-10.5-12.7-15.4-31-30.9-40.5
			c-5.1-3.1-14.2-3.5-18,4.7c-9,19.4-18,38.9-25.9,58.8c-3.1,7.9,2.2,15.5,8.1,20.2c6.3,5,10.9-2.6,15.7-5.5
			c14.5-8.6,28.6-17.8,42.8-26.9C667.2,477.2,672.1,475.6,671.9,468.7z M908.9,1572.7c3.7-3,7.4-5.7,10.6-8.8
			c10.4-10.1,21-20.2,30.9-30.7c6.3-6.6-7.5-47.4-16.4-48.7c-2.5-0.4-5.6,1.7-8.1,3.2c-42.7,25.2-45.7,36.1-21.5,78.9
			C905.4,1568.5,906.9,1570.1,908.9,1572.7z M891.3,1673.7c-1.3,0.7-2.8,1.2-3.9,2.2c-11.9,11.8-27.3,21.9-34.2,36.2
			c-5.1,10.5,9.7,22,15.7,33.1c2.2,4,4.6,7.9,6.6,12c3,6,5.8,6.6,11.9,2.4c29.4-20.7,33.6-35.4,17.6-66.5c-2.4-4.7-4.9-9.5-7.5-14.1
			C896.2,1676.4,895.3,1673.1,891.3,1673.7z M1045.2,815.3c-14.4,11.6-26.5,22-39.4,31.2c-7.6,5.4-6.6,9.4-2.4,16.6
			c25.3,43.7,25.4,43.8,60.4,8.6c5-5,11-8.8,5.9-17C1061.8,842.1,1053.9,829.4,1045.2,815.3z M940.2,1234.1
			c-15.7,3.1-31.3,6.3-47,9.2c-8.4,1.5-11.3,3.8-7.8,13.6c16.9,47,19.3,48.1,58.7,19.7c3.1-2.2,6.9-3.9,9.2-6.7
			c4.1-4.9,16-5.7,9.2-17C957.2,1244.1,955.4,1231.6,940.2,1234.1z M2630.6,970.9c-0.4-1.4-0.4-3.2-1.3-4.2
			c-9.1-10.2-16.8-23.7-28.3-29.3c-7.4-3.6-13,12.3-20.3,18.5c-4.7,3.9-8.2,9.1-12.7,13.3c-7.9,7.2-10.5,14.1-2.4,23.3
			c6,6.8,10.4,15.1,15.8,22.5c2.1,2.8,3.7,6.9,8.7,5.5C2593.4,1019.6,2630.5,974.2,2630.6,970.9z M1000.5,1482.3
			c1.4-0.6,3.1-0.9,4.1-1.9c13.7-13.2,26.2-28,41.3-39.5c20.3-15.4,7.3-29.2-1.8-40c-11.3-13.5-16.1,5.5-24.2,8.9
			c-3.4,1.4-6,4.5-9,6.9C976.4,1444.3,976.4,1444.3,1000.5,1482.3z M1037.7,1688.6c-13.5,13.2-27.4,25.1-39.3,38.9
			c-14.1,16.3,3.3,28.3,9.7,39.8c5.6,10.1,14.2-1.1,20.1-5.2c36.5-25.3,36.4-25.5,15.6-64
			C1042.1,1694.8,1039.8,1691.8,1037.7,1688.6z M2592.8,485c0.5-1.2-1.9-5.6-8.9-8.6c-9-3.8-10.2,3.4-13.1,8.3
			c-11.8,20.5-23.7,41-35.2,61.7c-2.4,4.2-7.4,10.2,0.2,13.5c11.9,5.1,24.7,12.5,36.5,11.5c7.7-0.6,7.2-16.8,9.2-26.3
			C2585.4,527.2,2588.4,509.1,2592.8,485z M856,1469.4c6.3,0.1,50.2-39.4,50-43.8c-0.1-2.2-1.4-4.3-2.1-6.5
			c-10.2-30.5-14.6-32-40.7-13.1c-7.4,5.4-14.4,11.4-22.1,16.2c-8.3,5.2-6.3,11.2-2.4,17.4C844.9,1449.7,847.5,1462,856,1469.4z
			 M2843.5,980.3c-17.7,21.8-35.2,43.8-53.3,65.3c-4.7,5.6-6.2,9.7-0.7,15.5c9.8,10.2,19.1,20.8,30.8,33.6
			C2833.9,1055.4,2842.3,1019.4,2843.5,980.3z M1010.1,1338.3c-4.3-7.5-7.3-17.2-13.8-22.9c-7.6-6.6-13.1,3.7-18.9,7.4
			c-9,5.7-16.8,13.5-26.2,18.4c-24.5,12.7-10.9,28.6-2.1,40.8c11.1,15.4,16.8-3.7,23.8-7.9c11-6.6,20.2-16.1,30.1-24.5
			C1006.4,1346.8,1010.7,1344.3,1010.1,1338.3z M1306.1,1148c5.3-9.6,10.4-18.8,15.5-28.1c19.6-36.2,19.5-36.2-13.2-62.4
			c-1.1-0.9-2.9-0.8-4.3-1.1C1277.2,1139,1277,1124.5,1306.1,1148z M2774.6,1853c-3.8-9.7-12.5-14-19.5-19.2
			c-7.1-5.2-9,3.1-11.5,6.8c-12.1,17.8-23.1,36.3-35.7,53.6c-8.8,12,0.9,15.6,7.2,21.8c8.8,8.6,13.4,1.7,18.1-4.4
			c8.9-11.6,17.7-23.2,26.2-35C2764.6,1869.2,2769.3,1861.3,2774.6,1853z M1102.4,1682c20.4-30.7,34.4-63.6,44-105.9
			c-18.1,18.4-31.7,31.7-44.6,45.6C1077.2,1648.1,1077.4,1649.6,1102.4,1682z M2527.6,2051.1c10.8-0.4,14-6.8,17.9-12.3
			c4.9-6.9,0.9-10.9-4.5-14.9c-10.9-8.2-21.6-16.8-32.4-25.1c-5.1-4-10.7-7-14.9,0.8c-4.5,8.3-18.8,18.2-12.5,23.9
			C2494.7,2035.8,2513.1,2043,2527.6,2051.1z M1365.3,1508.3c-0.5-1.7-0.4-3.4-1.3-4.5c-8.3-10.9-16.9-21.6-25.3-32.5
			c-16.3-21.1-19.2-20.5-31.8,3.4c-3.8,7.1-2.5,11.2,2.8,15.4c11.9,9.5,23.8,19.1,36.1,28
			C1358.4,1527.4,1360.8,1515.4,1365.3,1508.3z M1633.1,1463.7c18.9-20.3,31.3-44.6,39.8-71.2c1.9-5.9,5.4-12.6-2.3-16
			c-8.3-3.6-9.5,5.7-12.5,9.8c-10.8,14.9-19.8,31.1-31.2,45.4C1616,1445.5,1615.7,1455.6,1633.1,1463.7z M2699.3,1548.7
			c7.3-13.7,5.3-28.7,8.4-42.6c1.7-7.7,7.8-18.4-4.1-24.2c-13-6.4-14.7,6.7-20.1,12.7c-5.1,5.6-9,12.2-13.7,18.2
			c-3.9,5-4.6,9.2,1.1,13.5C2680.3,1533.4,2686.8,1544.4,2699.3,1548.7z M2341,1130.7c48.9-45.8,47.9-38.1,18-73.9
			C2346.6,1078.9,2343.4,1102.9,2341,1130.7z M2725.9,1391.5c-24.1,7.3-48.2,14.7-72.2,22c17.9,6,36,7.2,53,12.2
			c12.4,3.6,16.6,1.1,18-10.8C2725.6,1407.5,2729.7,1400.4,2725.9,1391.5z M2315.6,2000.9c-2.1,1-4.5,1.5-5.9,2.9
			c-2.4,2.7-1.5,5.7,1.1,7.9c19.8,17.4,41.9,31.1,67,39.4c4,1.3,7.5-0.1,10-3.7c2.2-3.1,1.6-6.2-1.3-7.8
			C2363.1,2026.7,2339.4,2013.9,2315.6,2000.9z M1267.4,1430.5c20.8-27.1,20.8-27.1-5.1-56c-2.9-3.2-5.1-9.3-9.9-7.6
			c-5.7,2-6.4,8.6-5,13.8C1251.8,1397.6,1256.5,1414.4,1267.4,1430.5z M832.9,1799.4c-6.8-16.7-15.6-30.5-26.3-44.2
			c-5.8,5.4-10.5,10.5-15.9,14.8c-14.6,11.5-10,17.8,5.4,21.6C807.8,1794.4,818.8,1800,832.9,1799.4z M2642,895
			c11.8,12.9,19.7,21.4,27.9,30.4c8.1-9.6,17.1-15.7,20.2-26.2c-3.8-4.4-8.7-4-13.1-4.1C2667.3,894.8,2657.6,895,2642,895z
			 M1149.6,1420.5c-21.8,17.9-20.4,29.1,6.2,54.1C1155.3,1456.2,1156,1439,1149.6,1420.5z M802.1,1012.6c13.3,1.8,24.5,3.4,39.5,5.5
			c-6.3-10.6-10.8-18.2-15.6-26.3C817.4,997.4,809.5,1001.9,802.1,1012.6z M1982.4,739.4c6.1-5.1,14.2-13.8,10.9-18.1
			c-6.2-8-17.1-12.7-29.9-12.6C1968.8,721.1,1974.2,731,1982.4,739.4z M2644.5,1992c15.6-5.9,23.4-15.4,32.6-23
			c4.9-4,3.2-7.5-0.8-11.2c-4.6-4.2-7.7-3.1-10.8,1.8C2659.3,1969.4,2652.8,1979.2,2644.5,1992z M2545.8,905.1
			c-11.4,3.7-25.6-0.7-31.6,12.4c-0.9,2.1,4.7,10.3,7.4,10.3C2536,928.1,2539.2,914.4,2545.8,905.1z M1251.3,1237.6
			c1.2,0.8,2.4,1.5,3.7,2.3c5.9-10.4,11.9-20.8,17.8-31.3c3.7-6.6,2.1-12.5-4.8-14.6c-6.4-1.9-6.3,4.7-7.4,8.7
			C1257.4,1214.3,1254.4,1226,1251.3,1237.6z M2685.2,1338.9c17.8,2.8,26.1-5.1,35.6-8.9c5.4-2.1,8.7-5.2,4.1-12
			c-5-7.5-8.8-5.9-14.2-0.8C2704,1323.4,2696.9,1329,2685.2,1338.9z M1112.7,1372.7c0.3-3.2-15.3-21.4-18.7-21.9
			c-4.9-0.8-8.4,3.4-7.4,6.2c3.3,9.2,6.6,19.5,15.1,24.8C1105.5,1384.1,1110.2,1377.2,1112.7,1372.7z M894.2,459.1
			c12.2,28.7,12.2,28.7,29.9,11.7C914.8,465.6,905.9,460.2,894.2,459.1z"/>
		<path class="st0" d="M1258,1733c48.8-0.2,89.8,40.1,90.3,88.9c0.5,48.5-39.9,90-88.5,90.8c-49.6,0.9-91.3-40.5-91.2-90.3
			C1168.8,1773.5,1209.1,1733.2,1258,1733z"/>
		<path class="st0" d="M1564.8,954.3c0.3-49.7,39.6-88.6,89.5-88.5c49.1,0.1,89.6,40.2,89.8,88.9c0.2,49.5-42,91.2-91.3,90.3
			C1603.5,1044.2,1564.5,1003.9,1564.8,954.3z"/>
		<path class="st0" d="M574.7,1440.6c-0.5,49.6-40.5,89.2-89.8,88.8c-49-0.4-89.1-40.8-89.2-89.9c0-50.1,41-90.2,91.5-89.5
			C536.5,1350.7,575.2,1390.8,574.7,1440.6z"/>
		<path class="st0" d="M506.6,1244.3c-50.7,0.3-89.5-37.4-90-87.3c-0.4-50.5,40-91.2,90.1-90.8c49.2,0.5,89.3,40.9,89.3,89.8
			C596,1205.7,557.1,1244.1,506.6,1244.3z"/>
		<path class="st0" d="M1896.2,956.8c50-0.2,89.3,38.4,89.7,88.2c0.4,50.8-39.4,90.9-89.8,90.5c-49.4-0.4-89.3-40.3-89.3-89.5
			C1806.8,996.7,1846.6,957.1,1896.2,956.8z"/>
		<path class="st0" d="M1750.2,867.3c-49.9,0.1-89.1-38.5-89.5-88.3c-0.4-50.7,39.6-90.8,90.1-90.3c49.7,0.5,88.7,40.1,88.5,89.8
			C1839.1,828.1,1799.9,867.1,1750.2,867.3z"/>
	</g>
</g>
</svg>
