<?xml version="1.0" encoding="utf-8"?>
<!-- Generator: Adobe Illustrator 23.0.0, SVG Export Plug-In . SVG Version: 6.00 Build 0)  -->
<svg version="1.0" xmlns="http://www.w3.org/2000/svg" xmlns:xlink="http://www.w3.org/1999/xlink" x="0px" y="0px"
	 viewBox="0 0 3000 3000" style="enable-background:new 0 0 3000 3000;" xml:space="preserve">
<style type="text/css">
	.st0{stroke:#000000;stroke-width:10;stroke-miterlimit:10;}
</style>
<g id="Layer_1">
</g>
<g id="Layer_2">
	<g>
		<path class="st0" d="M333.4,1168.5c-53.9-64.4-91.4-136.6-107.6-219.5c-35.8-183.4,82.5-357.7,263-384.3
			c68.7-10.1,130.6,12.7,187.5,49.5C789.4,687.4,849,794.6,871,925.1c1.9,11,4.1,22,5.1,33.2c4.5,48.8,4.3,47.9,55.1,45.1
			c62-3.4,124-6.2,186.1-7c21.2-0.3,28.4-5.5,32.2-27.4c19.3-112.3,128.9-186.2,239.3-163.7c16.2,3.3,33.7,7.1,43.8,19.7
			c20.8,26.1,31.9,15.6,48.1-5.3c21.7-27.9,52.2-44.3,87.3-52.2c47.5-10.6,95-11.5,142.4-2.2c32.4,6.4,62.3,19.6,82.4,48
			c6,8.5,11,13,21.3,4.2c95.1-80.6,224.7,9.1,248,98.1c5.2,19.9,8.3,40.1,6.1,60.4c-1.7,16.3,4.3,21.4,20,21.5
			c23.4,0.1,50.9,10.4,69,1.1c20.8-10.6,7.2-41.7,10.5-63.6c24.9-166.4,127.8-282.9,280.5-315c121.9-25.6,256.1,36.5,322.1,149.2
			c62.1,106.1,46.7,231.8-40.6,330.2c-28.2,31.8-28.5,32.3,7.1,56.7c110.3,75.4,188.3,173.4,210.3,308
			c32.5,199.4-50.9,373.8-228.8,484.4c-55.7,34.6-114.7,61.2-180.6,69.9c-15.4,2-30.4,1.5-45.4-2c-34.5-8.2-50.6-34-41.9-68.2
			c11.5-45.3,41.3-81.2,63.1-121.2c36.4-66.5,63-134.7,42.8-212.5c-4.4-16.8-10.4-32.9-20.6-47.8c-11.5,6-11.6,18.3-15.7,27.8
			c-54.5,123.9-136,222.5-265.5,271.9c-104.1,39.7-212.4,50.5-319,12.8c-127.9-45.1-193.8-142-209.6-274.7
			c-2.7-22.8-2.7-46-4.3-74.9c-109.9,132.7-181.7,280.1-239.1,437.8c-34.9-162.7-95.7-312.4-203.5-447.4c-3,33.6-3.4,61.8-8.4,89.2
			c-31.4,174.4-152.5,292.4-334.9,326.7c-83.8,15.8-168.3,18.5-251.3-2.4c-151.8-38.1-248.9-135.2-296.9-283.1
			c-3-9.4-5.8-18.8-10.3-33.3c-32.2,48.1-42.8,97.7-42,149.7c0.6,36.5,5.1,73.1,8.7,109.5c7,70.6-36.9,106.7-102,77.6
			c-100.2-44.8-165.8-124.2-182.5-232.3C28.7,1522.2,105,1361.2,253.2,1231C278.3,1208.9,305.9,1189.8,333.4,1168.5z M1455.5,1265.3
			c0,0.2,0,0.5,0,0.7c110.9,0,221.8,1.3,332.7-0.4c100.8-1.5,201.9-6.6,301.5,11.1c148.8,26.5,289,77.3,408.9,171.4
			c117.7,92.4,144.7,214.2,85.2,351.3c-17.9,41.2-42.4,78.7-64,117.9c-8,14.5-27.4,31.8-15.8,45.6c11,13,34.9,5.3,52.5,0.9
			c74.6-18.5,139.2-56.4,197.4-105.4c142.9-120.4,190.1-311.3,117.2-473.6c-53.1-118.2-149-190.9-263.4-241.9
			c-106-47.3-219.3-67.3-333.6-80.2c-167.7-19-336.1-20.8-504.6-19.8c-194.4,1.1-388.8,0.6-583.2,2.8
			c-149.6,1.7-299.1,6.1-447.4,29.1c-162.7,25.2-313.1,80.6-441.6,185.9c-139,114-210.6,259.7-189.6,441.7
			c10.6,92.1,65.8,158.1,146.3,202.1c30.5,16.7,41.1,8.9,38.5-24.8c-1.9-25.4-3.2-50.8-6-76.1c-10.1-90.3,8.9-175,67.8-243.2
			c156.2-180.7,354.8-284,594.6-293.8C1117.4,1259.8,1286.6,1265.3,1455.5,1265.3z M1014.9,1319.5c-221.3-16.9-402,75.9-567.2,210.6
			c-19.1,15.5-27.5,32.5-22.5,57.8c29.6,148.6,112.3,250.9,260.1,292.4c89.5,25.1,180.8,21,270.7-1.7
			c264.6-67,329-337.4,216.4-537.5c-9.1-16.1-20-22.7-38.7-22.1C1094.2,1320.4,1054.6,1319.5,1014.9,1319.5z M1981.1,1316.2
			c-30.3-11.1-60.6,6.3-87.9,34.1c-11.4,11.6-23.1,23.3-36.4,32.4c-69.9,47.8-90.2,115.9-82.2,196.1c0.1,1,0,2,0,3
			c3.4,113.4,74.9,215.7,174.8,248.8c89,29.5,178.2,24,266-4.2c126.1-40.5,205.3-131.7,255.3-249.5c31.5-74.2,43.6-58.6-31.9-109.2
			C2304.2,1377.6,2154.4,1326.5,1981.1,1316.2z M271.6,880.1c-0.3,94.7,36.3,175.3,94.6,247.9c9.2,11.5,16.4,14.1,30,6.4
			c127.2-71.2,265.9-103.9,409.2-119.8c19.3-2.1,23.3-8.9,21.9-26.4c-6.7-84.4-26.4-165.2-77.2-234
			c-60.1-81.4-135.9-142.6-243.5-138.9C378.3,619.6,272,742.5,271.6,880.1z M2506.3,665.5c-158.9-0.3-302.6,156.9-289.4,315.2
			c1.8,21,10.2,25.5,29.8,27.6c132.7,14.2,264,35.4,387.2,90.4c7.9,3.5,14.4,8.3,24.3-0.5c45.2-40.1,81.4-86,93.7-146.3
			C2781.4,807.7,2659.2,665.8,2506.3,665.5z M1851.4,1319.1c-43.1,0-78.6,0.6-114-0.3c-14.7-0.4-23.4,4.3-31.9,17.1
			c-62.1,92.9-126,184.6-187.7,277.7c-16.3,24.5-21.6,19.8-32.9-3.1c-44.2-89.2-90.1-177.5-135.2-266.3
			c-5.6-10.9-9.7-21.7-25.6-21.5c-28.5,0.3-56.9-1.2-85.4-1.7c-6.5-0.1-18.8-0.4-13,9.6c19.8,34.2,22.3,76.1,50.3,106.6
			c85.5,93.2,150.2,199.4,196,317.1c6.2,16,11.9,32.3,20.1,54.4C1577.2,1617.3,1695.1,1457.6,1851.4,1319.1z M1625.5,993.2
			c0-0.6,0-1.3,0-1.9c37.6,0,75.2-0.5,112.7,0.2c15.9,0.3,24.6-3.5,24-21.8c-1.1-31.4-0.4-62.9-0.6-94.4
			c-0.2-28.1-15.2-44.7-41-53.9c-42.6-15.1-86.4-14-129.4-6.6c-77.6,13.3-121.6,85.4-102.4,161.9c3.6,14.1,11.3,16.9,24,16.8
			C1550.3,992.9,1587.9,993.2,1625.5,993.2z M1317.1,995c0-0.2,0-0.4,0-0.6c13.2,0,26.4,0.1,39.6,0c93.3-0.5,97.2-6.4,65.9-97.6
			c-5.8-17-14.6-31-31.9-38.3c-72.7-30.8-184.1,37.8-191.4,117.3c-1.4,14.9,2.7,19.8,17.5,19.5C1250.1,994.5,1283.6,995,1317.1,995z
			 M1650.7,1325.3c-81.1,0-159-0.3-236.9,0.2c-21,0.1-9.1,12.9-5.4,20.2c21.2,42.8,42.6,85.5,64.8,127.9
			c10.6,20.3,17.5,42.9,35.4,61.6C1556.6,1464.2,1603.6,1394.9,1650.7,1325.3z M1913.3,991c0,1.2,0,2.4,0,3.6
			c27.4,0,54.8-1,82.1,0.4c17.5,0.9,22.7-5.8,23.4-22.5c2.5-53.5-35.1-109.5-88.3-129.4c-54.1-20.3-112.6,16.5-117.3,74.3
			c-1.5,18.2-0.2,36.5-1.5,54.7c-1.1,15.2,5.6,19.4,19.5,19.1C1858.6,990.6,1886,991,1913.3,991z"/>
	</g>
</g>
</svg>
