<?xml version="1.0" encoding="utf-8"?>
<!-- Generator: Adobe Illustrator 23.0.0, SVG Export Plug-In . SVG Version: 6.00 Build 0)  -->
<svg version="1.0" xmlns="http://www.w3.org/2000/svg" xmlns:xlink="http://www.w3.org/1999/xlink" x="0px" y="0px"
	 viewBox="0 0 3000 3000" style="enable-background:new 0 0 3000 3000;" xml:space="preserve">
<style type="text/css">
	.st0{stroke:#000000;stroke-width:10;stroke-miterlimit:10;}
</style>
<g id="Layer_1">
</g>
<g id="Layer_2">
	<g>
		<path class="st0" d="M1470.8,2944.3c-133.2-5.1-266.6-8.4-398.6-29.8c-192.8-31.2-338.6-133.9-439.9-298.4
			c-92.5-150.1-147.2-315.2-175.6-488.8c-24.5-149.5-23.6-300.9-26-451.7c-3.2-201.5-4.4-403.1,3-604.5
			c4.3-115.9,9.3-233,53.9-341.3c139-337.4,374.5-570.7,737.8-653.9c224.7-51.5,443.7-17.8,655.4,68.6
			c215.3,87.8,376.1,236.9,488.1,439.2c90.3,163.1,144.8,339.9,193.9,518.5c27.2,99,44.7,199.9,50.9,302.6
			c3.6,60.4-0.5,120-15.5,178.7c-22.6,88.3-75.7,134.2-165.8,143.9c-29.1,3.1-28.3,3-25.1,32.2c11.2,101.8,21.8,203.7,32.7,305.6
			c2.7,25.5,6.3,50.8,8.8,76.3c16.3,167.5-46.7,301.9-178,402.3c-78.8,60.2-150.3,124.5-205.4,208
			c-47.9,72.5-121.9,112.4-202.3,140.3c-120.7,42-246.2,50-372.6,52.2C1484,2944.4,1477.4,2944.3,1470.8,2944.3z M2381.6,2043.2
			c0.3-5.7,1-10.1,0.6-14.3c-10.2-95.3-20.7-190.6-30.5-286c-1.4-13.2-9.1-12.3-18.2-12.6c-54.2-1.3-108.4-2.4-162.6-4.5
			c-43.9-1.8-88.1-3.1-130.2-17.7c-53.1-18.4-84.5-55.5-94.1-111.2c-7.7-44.7,0.8-87.4,14.2-129.6c11.6-36.4,11.5-35.6,45.8-21.9
			c12.9,5.2,16.7,10.1,11.2,23.9c-7,17.5-12.4,36-16.2,54.5c-16.4,79.5,12.2,130.7,82,139.3c117.9,14.6,236.6,16.9,355.2,9.6
			c42.4-2.6,72.3-25.1,91.7-62.4c9.2-17.7,15.2-36.5,19.4-55.8c19.3-88.3,11.1-176.5-2.7-264.3c-26.6-169.9-78.3-332.9-138.8-493.5
			c-48.9-129.9-113.2-251-204-356.5c-109.9-127.7-246.8-215.8-406.2-270c-196.5-66.9-396.1-86.7-598.6-33.6
			c-230.1,60.4-408.6,194.9-543.3,389.3c-83.3,120.1-142.9,249.1-158.1,397.2c-11.5,112.6-12.9,225.3-14.6,338
			c-3.3,225.7-1.5,451.4,8.7,677c5.4,118.6,18.9,236.4,56.5,350.1c36.7,111.3,74.9,221.9,141.9,319.8
			c94.8,138.7,222.7,226.5,389.9,253c137.1,21.8,275.5,27.2,413.9,28.8c106.4,1.2,212.2-8.5,315.1-37.9
			c89.9-25.7,171.3-64.5,223.8-147.5c49.3-78,114.6-140.5,190.8-191.9c46.3-31.2,83.7-71.4,113.4-118c47-73.9,68.6-155,58.2-242.7
			c-5.5-46.1-23.8-61.7-69.8-66.6c-28.9-3.1-57,1.4-84.8,8.6c-106.5,27.9-200,81.9-288.9,145c-32.9,23.3-32.4,23.1-55-10.8
			c-6-9-4.8-13.1,3.5-19.1c85.2-61.5,174-116.9,273.9-151.4C2241.8,2034.7,2309.9,2017,2381.6,2043.2z"/>
		<path class="st0" d="M1745.6,1000.3c-73.2-1.7-132.9-31.9-186.8-76.2c-51-41.9-96.9-89.3-145.7-133.5
			c-22.9-20.7-43.8-47.8-81.6-31.9c-3.9,1.6-30.3-31.4-30.2-37.8c0.2-12,11.2-12.2,18.8-15c37.4-13.9,70.5-2.6,100.9,19.7
			c36.2,26.5,65.4,60.8,98.3,90.9c9.3,8.5,17.9,12.9,30.7,12.8c85.9-0.5,170.9-5.6,252.4-37.2c29.5-11.4,58.5-5.5,81,17.8
			c24.9,25.7,32.4,57.3,21.4,91.4c-18,55.6-62.4,80.4-115.1,94C1774.8,999,1759.4,1001.2,1745.6,1000.3z M1594.7,882.6
			c32.7,28.2,64.5,46.7,101.1,56.5c46.5,12.4,91.5,11.2,131.8-18.8c17-12.7,29.4-28.9,27.2-51.9c-2-20.5-18.8-31.3-38.1-24.9
			c-16.6,5.5-33,11.8-49.9,16.6C1712.3,875.2,1656.4,880,1594.7,882.6z"/>
	</g>
</g>
</svg>
