<?xml version="1.0" encoding="utf-8"?>
<!-- Generator: Adobe Illustrator 23.0.0, SVG Export Plug-In . SVG Version: 6.00 Build 0)  -->
<svg version="1.0" xmlns="http://www.w3.org/2000/svg" xmlns:xlink="http://www.w3.org/1999/xlink" x="0px" y="0px"
	 viewBox="0 0 3000 3000" style="enable-background:new 0 0 3000 3000;" xml:space="preserve">
<style type="text/css">
	.st0{stroke:#000000;stroke-width:10;stroke-miterlimit:10;}
</style>
<g id="Layer_1">
</g>
<g id="Layer_2">
	<g>
		<path class="st0" d="M744.3,2453.8c-17.8,110.3-97.8,179.6-216.8,197.2c-152.8,22.6-270.2-43.3-349.4-162.9
			C37.4,2276-2.9,2048.6,119.8,1810.5c25.3-49.2,61-90,103.7-126.1c-209.1-65.8-211.5-347.7-60.3-427.8
			c-83.4-39.2-103.8-112.1-115.6-194.1c-16.3-113.8-14-226.8-0.9-340.2c13.9-120.4,79.7-206.7,182-265.1
			c108.1-61.6,224.1-91.1,347.9-57.9c81,21.7,137.7,71.6,151.8,158.8c11,68-23.4,118.7-90.9,133.6c-69.2,15.3-129.9,49.1-189.8,84.4
			c-18.9,11.2-36.3,25.2-49.6,43.4c-24.6,33.6-21.4,63.6,12.3,87.1c56.2,39.2,119.4,57,184.9,33.1c78-28.6,145.1-71.6,166.2-162.4
			c12.8-55.5,39.4-106.4,63.6-158c70-148.8,182.6-238.2,347.9-261.9c278.6-39.8,557.5-49.3,837.1-15.3
			c119.5,14.5,220,71.6,304.9,155.3c20.2,19.9,27.9,16.9,43.6-3.4c51.4-66.3,114.5-118.8,194.6-147.4
			c101.7-36.4,190.8-8.5,255.2,77.9c46.7,62.5,68.7,136.2,95.1,207.9c39.4,107,38.2,219.5,38.2,330.5c0,210.3-17.5,419.9-41.4,628.9
			c-13.1,114.4-13.2,229.6-18.8,344.4c-7,144-28.7,286.1-62.4,426.3c-2.2,9-5.2,17.8-8.2,26.6c-40.5,117-106.3,167-230.3,170.8
			c-250.9,7.7-501.7,15-752.6,20.7c-246.3,5.5-492.5,9.8-738.8,12.4c-83.9,0.9-167-9.4-244-47.7
			C805.1,2525.5,768.6,2501.8,744.3,2453.8z M1088.8,1744.1c0-1.8,0-3.6,0-5.4c70.9,0,141.8-0.8,212.7,0.6
			c16.5,0.3,43.4-12.6,44.4,21.5c0.9,34.5-25.8,22.8-42.8,23.1c-113.9,2.1-227.8,3-341.7,4.7c-34.8,0.5-69.6,2.6-104.5-1.1
			c-58.3-6.1-63.6-1.4-68.2,57.6c-1.1,13.8-0.6,27.9,0.5,41.7c5.2,65.2,35.2,96.4,100.1,102.7c24.2,2.3,48.7,2.6,73,1.5
			c123-5.2,246.1-11,369.1-16.8c16.6-0.8,27.7-0.4,29.3,22.3c1.7,24.5-11.8,23.3-27.3,23.9c-82.4,3.1-164.8,7.2-247.3,9.2
			c-74.1,1.8-148.3,15.5-222.5,1.6c-10.2-1.9-17.5,4.9-25,10.2c-59,41.1-63.8,127.1-10.3,175.5c11.6,10.5,21.6,13.4,37.1,7.2
			c38.1-15.2,78.7-21,119.3-19.4c157.9,6.1,315.5,15.8,472.8,31.3c13.1,1.3,31.9-3.8,29.5,22.3c-2.3,23.8-16.1,23.9-33.8,22.4
			c-66-5.9-131.9-12.7-198-16.7c-106.6-6.4-213.2-17.8-320.2-10.9c-76.1,4.9-131.8,56.2-147.3,130.8c-9.5,45.6,1.2,72.9,39.2,98.9
			c43.9,30,92.6,48.2,144.9,56c103.4,15.4,207.5,9.2,311.3,7.1c218.4-4.4,436.9-9,655.3-13.9c208-4.7,416-8.6,623.9-15.1
			c130.1-4.1,181.2-44.6,214.7-170.6c30.1-113.5,45.9-229.9,55.5-346.8c11.6-140,7.2-281.2,23.5-420.9
			c23.9-205.6,40.8-411.6,40.7-618.6c-0.1-105.6,0.9-211.9-35.6-313.5c-24.3-67.6-45.3-136.8-88.9-195.7
			c-32.6-44-72.9-73.8-130.8-74c-133.2-0.6-299.9,151.6-317.3,292.7c-12.1,97.9-20.8,196.2-42.1,292.7
			c-21.6,98.4-37.6,198.4-82.4,290.3c-50.3,103-127.2,170.4-244.7,182.6c-45,4.7-90.3,7.4-135.6,8.8c-275.2,8.4-550.8,4.5-825,35.5
			c-56.5,6.4-113.1,15-164.7,41.1c-54.2,27.5-77.1,86.1-61,152c12.8,52.4,42,71.4,110.9,71.5
			C949.3,1744.2,1019,1744.1,1088.8,1744.1z M792.1,1488.2c46.1-22.7,92.4-36.4,140.5-44.7c127.5-22,256.5-25.3,385.2-32
			c19.6-1,31.7-2.5,31.4-28.2c-1.4-117.4-1.2-234.8-0.1-352.1c0.2-22.2-7.2-27.4-28-26.7c-126.6,3.9-253.2,7.4-379.8,9.4
			c-26.1,0.4-32.4,10.5-34.5,34.9c-6.9,80.8,0.5,160.1,20.1,238.3c4.7,18.7,0.8,26.4-18,32.8c-23.4,8-21.3-8.1-24.5-20.3
			c-24.1-91.8-29.6-184.6-19.2-279.2c24.6-225,176.6-404.5,396.5-454.6c181.1-41.3,364.9-42.5,546.6-5.4
			c156.4,31.9,269.4,119.4,304,283.5c29.4,139.2,21.2,277.2-27.8,411.7c-4.6,12.6-5.1,31-29.6,21.5c-21.9-8.5-19-19-12.5-36.5
			c27-72.4,40-147.7,41.7-225c0.4-19.9-1.4-32.3-27.7-31.2c-99.8,4.1-199.8,6.2-299.7,8.2c-18.7,0.4-26.3,5.7-26.1,26
			c0.9,119.7,0.9,239.4,0,359.1c-0.2,21.8,9.1,24.7,27.2,23.7c55.7-3.1,111.5-4.7,167.1-7.6c116.7-6,194.5-66.7,239.7-172.3
			c6.4-14.9,13.6-29.6,18.4-45.1c41.7-134.5,68.1-272.1,85.2-411.7c7.5-60.8,5.7-123.7,33.8-180.3c10.2-20.5,6.1-32.7-9.2-48.1
			c-94.2-94.3-207.4-148.6-339.8-158.2c-252-18.2-503.4-15.2-754.4,19.6c-153.6,21.3-264.7,94.9-331.8,236.9
			c-44,93.1-77.8,188.3-94.6,289.9C741,1113,753.8,1299.3,792.1,1488.2z M477.6,1669c-24.4,0-48.8-0.9-73.2,0.2
			c-96,4.4-171,47.3-223.9,127.1c-34.2,51.6-60.6,107.4-73.9,168.1c-34.4,157.3,1.5,304.2,71.1,444.6
			c38.2,77.1,98.5,135.4,175.3,173.8c92.2,46,183.9,36.6,271.6-14c78.8-45.5,78.5-121.3,74.7-199.1c-2-40.2-20.3-66.4-56.5-79.2
			c-82.7-29.4-142.3-86.3-188.6-158c-56.6-87.5-32.2-151.9,65.8-186.1c65.6-22.9,133.2-30.1,201.8-32.3c18.5-0.6,27.3-2.5,22.3-25
			c-7.4-33.7,0.3-67.1,11.4-99.1c13.1-37.6-17.2-93.5-56.4-100.8C625.9,1675.3,552.3,1666.2,477.6,1669z M727.3,917.2
			c-17.7,12.4-28.8,20.7-40.3,28.2c-100.2,65.5-224.2,62.6-309-7c-44.7-36.7-53-83.5-23.3-133.2c12.7-21.2,29.3-39.1,49.9-52.8
			c69-45.8,140.6-85.6,222.7-103.7c43.2-9.5,57.8-29.7,57.5-74c-0.4-59.8-50-117.5-122.5-133.6c-133.4-29.6-252.3,7.1-359.1,87.9
			C141.1,576,103.6,638.8,92.6,716c-17.8,125-17.9,249.9,4.8,374.5c18.2,99.7,69.7,142.4,171,138.2c19.6-0.8,39.8-2,58.6-7.3
			c122.7-34.6,245-70.5,367.6-105.7c12-3.4,16.8-10.5,16.8-22.6C711.4,1036.1,720,979.9,727.3,917.2z M1227.1,621.8
			c-138.5,48.5-231.6,139.8-285,271.8c-31.1,76.8-30,77.3,50.4,75.9c7-0.1,13.9-0.2,20.9-0.4c333.4-9,666.8-18.3,1000.2-26.7
			c71.5-1.8,72-0.4,58.9-71.8c-17.6-96.4-63.6-173.6-151.9-221.7c-34.4-18.8-33.8-18.5-36.6,19.2c-2.2,28.8-7.1,57.5-12.2,86
			c-5.4,30.3-24.6,48.4-53.8,57.7c-57.8,18.3-121.6-15.5-143-78.4c-13.6-40.1-17.8-81.7-9-123.7c3.7-17.6-0.5-24.7-19.8-25.9
			c-55.8-3.4-111.4-1.5-167.1-0.2c-18.7,0.4-23.8,9.3-24.7,25.5c-2.3,39.4-5,78.8-7.9,118.2c-3,41-25.1,66.7-64.9,75.1
			c-22.8,4.8-45.6,6.5-69.2,2.4c-49.4-8.7-74.2-31.5-80.1-81.7C1228.5,690.8,1228.8,658.1,1227.1,621.8z M515.4,1624.8
			c61.2,2.7,111.1-15,152.3-47c41.7-32.4,70.5-80.3,68.9-133.7c-1.6-52.7-16.1-105.2-19.3-158.4c-1.3-21.7-12.1-31.5-31-40.1
			c-70.5-32.1-135.9-6.7-202,14.7c-39.8,12.8-67.9,38.8-85.7,76.2c-44,92.4-7.6,170.9,43.8,246.2
			C461.2,1610.1,483,1634.6,515.4,1624.8z M412.1,1624.2c-1.6-5.9-1.7-7.2-2.3-8.1c-60.7-89.8-101.7-183.3-54.3-293.1
			c6.4-14.8-4.6-17.6-14.5-21.7c-125.3-52.1-226.7,7.4-239.4,140.5C90.3,1561.7,189.4,1659,304,1639.4
			C339.2,1633.4,374,1625.6,412.1,1624.2z M743.4,2364.6c15.1-35.8,26.5-64.1,47.8-85.3c15.5-15.4,12.7-23.8-1.3-38.9
			c-55.4-59.7-57.9-145.5-8.7-206.4c9.3-11.5,32.9-21.7,6.8-39.6c-14-9.6-14.9-34.1-36.1-34.6c-85.2-1.9-169.9,2.4-247.3,43.1
			c-40.1,21-46.7,43-25.4,83c38.7,72.7,93.7,129.4,171.9,159.9C702.2,2265.6,737.9,2297.2,743.4,2364.6z M1684.7,1200.3
			c0-56.9,0.4-113.8-0.3-170.8c-0.2-14.3,7.3-37.6-21-32c-21.1,4.1-55.5-17.4-55.8,31.6c-0.5,104.5-5.2,209-8,313.5
			c-1.7,61.7-1.5,60.5,58.7,60.4c22.6-0.1,27-8.4,26.7-28.5C1684,1316.4,1684.7,1258.3,1684.7,1200.3z M1394.2,1207.3
			c0,56.9-0.1,113.8,0,170.7c0,15.6-4.6,34.6,22.7,31.3c20.9-2.6,46.7,9,47.9-30.3c3.2-106.7,10.2-213.3,14.7-320
			c2.5-59.6,1.7-58.3-57.3-56.8c-23.8,0.6-28.8,9.6-28.3,31C1394.9,1091.2,1394.2,1149.3,1394.2,1207.3z M1346.2,762
			c23-1.8,54-0.2,56.1-37.5c2.1-38.2,2.4-76.6,7.8-114.6c2.6-18.4-4.4-26.1-23.2-21.9c-7.9,1.8-16,2.7-24.1,3.8
			c-96.7,12.8-97.5,13.8-87.5,112.1C1280.2,751.4,1292.7,762.3,1346.2,762z M1707.6,648.7c0.7,22.8,1.5,48.3,9.8,72.7
			c11,32.1,43,52.9,75,50.5c37.3-2.8,37.3-31.9,42.1-57.8c1.3-6.8,1.6-13.8,2.3-20.7c9-96.2,20.7-75.2-68.9-96.3
			C1710.2,583.4,1708.7,585.6,1707.6,648.7z M1555.4,1202.1c-0.3-111.2,3.2-157.7,7.8-174.2c1-3.4,4.7-16.8-1.4-24.4
			c-2.5-3.1-7-5.1-15.3-5.2c-22.1-0.2-19.9,14.8-20.6,28.3c-6.1,117.1-12.2,234.3-17.8,351.4c-0.6,12.4-6.5,28.8,17.7,28.9
			c22.4,0.1,30.4-7.8,29.9-30.6C1554.6,1318.2,1555.4,1260.1,1555.4,1202.1z M709.6,1205.8c3.3-49.4,3.2-49.8-40.5-36.4
			c-13.1,4-27.9,4-40.8,15c14.5,3.2,27,5.5,39.1,8.7C680.7,1196.6,693.8,1201,709.6,1205.8z M719.4,1599.3
			c-11.5,1.2-17.7,10.3-25.1,16.4c-8.5,7-21.9,8.3-25.4,21.4C720.3,1648.3,720.3,1648.3,719.4,1599.3z"/>
		<path class="st0" d="M1929.2,1987.7c-0.4-358.9,335.4-694.8,744.4-691.1c30.1,0.3,60.2,1.1,90.3,3c14.7,0.9,30.9,1.3,26.9,25.4
			c-3.5,20.5-13.8,21.9-31.6,19.8c-358-42.9-691.3,191.4-768.2,541.9c-36.7,167-15,327.7,62.8,480.5c5.9,11.6,22.2,22.8,1.7,38.1
			c-21.5,16-29.1,5.1-38.5-12.9C1959.1,2282.3,1930.2,2165.1,1929.2,1987.7z"/>
		<path class="st0" d="M2539.3,2100.3c-120.1-0.1-216.1-96.7-216.4-217.6c-0.3-121.8,96.9-220.4,218-221
			c120.1-0.6,220.2,98.5,221,219C2762.7,2002.6,2663.6,2100.4,2539.3,2100.3z M2716.2,1881.3c-0.2-97.5-77.4-174.3-174.9-174.1
			c-96.8,0.2-175.2,78.6-175,174.9c0.2,95.6,80.2,175.1,175.8,174.8C2638.8,2056.5,2716.4,1978.2,2716.2,1881.3z"/>
		<path class="st0" d="M258.8,2096.3c-0.5-169.9,136.6-321.2,301-330.9c12.1-0.7,31.1-12,34.6,14.6c3.3,25.2-10.2,26.5-29.8,28.9
			c-150.8,18.4-262,140.4-262.4,286.1c-0.3,144.6,108.8,265.2,258.1,286.8c11.3,1.6,29.7-6.9,33.7,14.8c5.1,27.6-6.9,33-32.5,30.6
			C392.4,2411.1,259.2,2266.2,258.8,2096.3z"/>
		<path class="st0" d="M420.1,1126.3C352.2,1126,288,1111.2,234,1069c-86.5-67.6-106.6-159.1-86.8-262.6
			C181,630,335.7,514.6,509.1,536c12.3,1.5,25.5-0.9,23.5,20.2c-1.8,18-8.1,24.1-25.7,23.4c-65.9-2.8-130.3,2.6-187.1,41.3
			C229.1,682.5,184.5,770.4,185,878.1c0.6,117.2,86.5,195.7,213.8,202.9c19.7,1.1,39.6,1.7,59.2-0.1c18-1.7,24.3,3.6,25.7,22
			c1.5,18.9-7.3,21.4-21.9,21.5C448,1124.5,434,1125.6,420.1,1126.3z"/>
		<path class="st0" d="M2539.4,1764.5c64.9-0.1,114,49.2,113.8,114.4c-0.1,63.9-50.8,115.4-114.3,115.9
			c-62.2,0.6-115.5-51.8-116.6-114.6C2421.2,1816,2473.2,1764.6,2539.4,1764.5z M2537.6,1948.2c39.7,0.5,71.6-30.1,71.9-69
			c0.3-38.9-31.4-71.3-70.3-71.8c-38.7-0.5-71,31.4-71.4,70.4C2467.4,1918.2,2496.5,1947.6,2537.6,1948.2z"/>
	</g>
</g>
</svg>
