<?xml version="1.0" encoding="utf-8"?>
<!-- Generator: Adobe Illustrator 23.0.0, SVG Export Plug-In . SVG Version: 6.00 Build 0)  -->
<svg version="1.0" xmlns="http://www.w3.org/2000/svg" xmlns:xlink="http://www.w3.org/1999/xlink" x="0px" y="0px"
	 viewBox="0 0 3000 3000" style="enable-background:new 0 0 3000 3000;" xml:space="preserve">
<style type="text/css">
	.st0{stroke:#000000;stroke-width:10;stroke-miterlimit:10;}
</style>
<g id="Layer_1">
</g>
<g id="Layer_2">
	<g>
		<path class="st0" d="M1456.8,1780.1c-23.8,42.9-45.2,79.5-73.7,111.3c-74.7,83.5-169.3,127.5-280,135.7
			c-98,7.3-195.8,3.1-293.1-11.5c-10.4-1.6-20.9-4.2-30.9-7.8c-56-20.2-66.2-71.4-21.7-111.8c33.9-30.8,70-59.3,99.5-94.5
			c50.7-60.4,91.2-126.6,98.3-207.2c7.9-90.3-82.7-178.8-173.3-172.1c-33.7,2.5-41.9,13.3-36.4,55.2c12.1,92.6,11.9,184.7-8.2,276.3
			c-11.7,53.2-27.7,104.8-55.7,152.1c-65.2,110.4-160.4,151.9-281.9,111.3C200.4,1950.5,77.4,1813.3,63.6,1600
			c-13.7-211.8,21.3-417.5,159.8-587.2c192.2-235.4,444.9-317.6,739.8-252.5c226.8,50.1,393.6,185,498.4,395.9
			c24.9-33.8,47.4-68,73.4-99.1c206.1-246.9,470.2-352.5,789.5-322.1c76.4,7.3,152.3,18.5,225.2,43.2
			c229.9,77.8,362.8,241.9,410.6,475.6c63.6,311.1-95,619-382.3,751.2c-78.4,36-161.2,53.1-246.9,57.1
			c-137.3,6.5-274.6,13.2-410.8-13.5c-171.4-33.6-316.8-115-439.3-238.5C1473,1802,1466.5,1792.2,1456.8,1780.1z M1008.5,1976.6
			c20.2,0,40.5,0.7,60.7-0.1c129.2-5.2,238.9-52.2,306.8-165.5c121.7-203.3,133.2-417.3,35.1-632.6
			c-117.3-257.7-403.5-417-687.2-382.2C462.3,828.3,270.9,961.7,172.1,1211c-43.8,110.5-61.9,228.4-59,347.3
			c4.7,195.6,107.4,338.2,284.2,403.2c109.3,40.2,191.7,8.3,245-95.1c26.6-51.6,40.3-107.2,50.6-164c14.5-79.8,3.8-159.2-0.8-238.9
			c-3.4-59.2,27.8-91.5,87.1-94.1c41.7-1.8,79.7,11.2,115.4,30.1c101.2,53.6,138.3,151.1,101.8,262.8
			c-33.9,103.5-98,185.3-181.1,253.8c-11.2,9.2-31.1,17.7-27,32.2c4.6,16.1,26.5,14.3,41.9,16.3
			C889.4,1972.5,948.8,1976.3,1008.5,1976.6z M2587.4,1939.7c-172.9-14-315.7-76.4-438.3-185.1
			c-135.9-120.4-215.8-268.3-210.1-453.4c6.3-204.3,101.6-365.1,253.5-496c7.4-6.4,19.2-9.4,20.9-23.1c-9.2,0-17.6-0.5-26,0.1
			c-299.3,19-526.8,156.4-683,412.6c-12.1,19.9-13.7,37.3-7.1,59.8c43.2,148.2,41.8,296.3-9.1,442.4c-8.4,24.1-5.1,38.7,11.1,55.9
			c126.6,134.8,279.7,220.6,463,249.3c133.4,20.8,267.6,14.8,401.4,4.2C2439.1,2000.4,2512.1,1982.1,2587.4,1939.7z M2444.7,809
			c-32-11.3-62.3-10.7-91-17.4c-28.5-6.6-50.8,0.7-74.4,16.3c-109.9,72.7-190.5,170.1-241.8,290.3c-75.8,177.7-65.7,351.7,50,508.6
			c139.9,189.5,331.4,284.3,569,280.5c7.4-0.1,14.7,0.5,21.3-4.6c41.8-32.7,79.3-69.3,113.8-116.2c-65.3-0.1-125.5-5-184.1-19.5
			c-119.7-29.4-224.4-86.6-307.6-178.1c-81.5-89.5-105.6-197.8-99.4-316.8c6.7-128.1,37.9-245.6,125.6-343.1
			C2360.2,871,2399.9,839.2,2444.7,809z M2484.5,1230.8c-48.4,32.2-90.6,60.2-132.5,88.5c-4,2.7-8.4,7.8-9.1,12.3
			c-8.6,55.6-16.6,111.2-24.5,166.8c-1.3,9.2,3.3,16.9,10.6,21.8c8.3,5.7,13.6-3,19.2-6.6c21.3-13.8,41-30.6,63.4-42.4
			c36.7-19.5,55.9-46.2,57.1-89.6C2470.1,1333.6,2478.5,1285.7,2484.5,1230.8z M2684.8,1097.5c-32.6,21.6-58.7,41.6-87.3,57
			c-38.3,20.7-61,46.9-61.7,93.8c-0.7,47-9.7,94-15.9,148.1c47.1-32,88.2-59.9,129.3-87.8c6.7-4.5,9.6-11.3,10.6-18.9
			C2668,1227.9,2675.9,1166,2684.8,1097.5z M2517.6,953.8c-36.5,25.2-64.7,47.2-95.3,65c-29.2,16.9-43.1,39.2-46.2,72.9
			c-4.6,51.7-13.6,102.9-21.6,161c46.9-31.3,87.4-58.2,127.5-85.5c4.9-3.4,11.3-8.7,11.9-13.8C2502,1090,2509.2,1026.2,2517.6,953.8
			z M2647.6,1374.8c-45.2,30.7-85.4,58.2-125.8,85.5c-8.7,5.9-12.1,13.9-13.2,24.1c-5.5,48.6-11.4,97.1-17.2,145.6
			c-2.6,21.6,9.3,29.4,26.1,19.9c32.4-18.2,62.8-39.8,93.9-60.2c9-5.9,10.2-15.5,11.4-25.2
			C2630.7,1503.5,2638.8,1442.5,2647.6,1374.8z M2828.1,1252.6c-18.2,12-31.5,22.8-46.4,30.1c-56,27.2-86.9,68.1-86.7,133.4
			c0.1,41-9.3,82-15.2,128.8c39.6-25.5,72.6-46.6,105.4-68.1c6.9-4.5,15.2-8.5,16.5-18.3C2810.3,1391.5,2818.9,1324.5,2828.1,1252.6
			z M2552.4,1120.3c40.1-26.4,73.8-52.6,111-72.1c49.2-25.8,35.5-72.5,42.4-111.9c5.1-29.1-25.1-33.6-41.7-45.8
			c-28.8-21.4-82.9-0.8-88.3,34.7C2566.2,987.9,2560.5,1051.2,2552.4,1120.3z M2716.7,1262.9c36.4-25.1,64.2-44.3,92.1-63.6
			c27.4-18.9,48.6-85,34.8-114.9c-8.9-19.1-22-36.3-33.3-54.2c-2.8-4.5-7.3-10.8-12.2-7.1c-18.9,13.9-48.6,18.1-53.3,45.5
			C2734.2,1130.2,2726.7,1192.3,2716.7,1262.9z M2791.3,1537.4c-41.7,27-77.9,50.2-113.7,73.9c-4,2.6-7.2,7.8-8.7,12.4
			c-22.7,66.8-13.7,80.5,56.4,86.7c9.5,0.8,19,1.6,28.5,2c9.8,0.4,15.3-3.4,16.6-14.4C2776.7,1646.8,2783.7,1595.7,2791.3,1537.4z
			 M2823.9,1705.9c2.9,0.7,5.7,1.3,8.6,2c46.9-75.7,74.2-157.9,84.3-252.9c-25.8,20.9-61.3,25.4-66.7,53.9
			C2837.7,1573.8,2832.2,1640.1,2823.9,1705.9z M2322.7,1092.1c-36.4,17-58.2,36.8-60.6,77.2c-2.9,48.8-11.9,97.3-8.3,148.6
			c39.5-22.7,40.2-22.6,42.7-39.6C2305.3,1217.6,2313.6,1157,2322.7,1092.1z M2399.7,969.8c39.2-27.1,78.7-53.6,117.4-81.4
			c18.1-13,10.7-35,14.5-53c1.3-6.3-4.9-9.4-10.7-6.4c-39,19.7-76.4,42.1-108.8,71.7C2392.3,918.5,2403,945,2399.7,969.8z
			 M2859.6,1427.1c23.9-16,50.1-22.3,60.7-45.6c10-22-13.7-142.1-32.1-172.1C2878.6,1283,2869.4,1352.8,2859.6,1427.1z
			 M2451.8,1508.7c-26.6,18-47.1,32.6-68.4,45.9c-12.1,7.5-11.6,14.9-0.8,20.9c19,10.7,30,35.8,56.8,31.6c1.6-0.3,2.6-7.7,3.1-11.9
			C2445.4,1569.1,2448.2,1542.8,2451.8,1508.7z"/>
		<path class="st0" d="M820.4,1058.7c220.2,2.5,378.8,127.5,418.4,333.4c22.3,115.7-3.6,223.9-62.7,324.9
			c-7.8,13.3-14.8,19.9-28,6.4c-9.8-10-33.9-9.8-18-35.9c61-100.1,79.7-207.9,47.9-321.6c-41.8-149.7-175.8-249.9-331.2-252.4
			c-74.2-1.2-147.4,1.8-213.5,39.9c-105.6,60.9-153,159.4-169.6,274.8c-9.8,68.2-17.2,137.2,11.8,204.3c8.2,19-14.9,25.4-25.5,34.6
			c-13.7,12-17.1-5.9-22.1-13.1c-11.1-15.9-16.4-34.5-18.6-53.7c-14-117.6-3.7-232.1,51.4-338.7
			C531.5,1124.5,653.9,1056.8,820.4,1058.7z"/>
	</g>
</g>
</svg>
