<?xml version="1.0" encoding="utf-8"?>
<!-- Generator: Adobe Illustrator 23.0.0, SVG Export Plug-In . SVG Version: 6.00 Build 0)  -->
<svg version="1.0" xmlns="http://www.w3.org/2000/svg" xmlns:xlink="http://www.w3.org/1999/xlink" x="0px" y="0px"
	 viewBox="0 0 3000 3000" style="enable-background:new 0 0 3000 3000;" xml:space="preserve">
<style type="text/css">
	.st0{stroke:#000000;stroke-width:10;stroke-miterlimit:10;}
</style>
<g id="Layer_1">
</g>
<g id="Layer_2">
	<g>
		<path class="st0" d="M2925.8,1368.9c0,149.9,1,299.7-0.3,449.6c-0.9,100.4-11.6,199.9-41.5,296.4
			c-56.1,181-173.2,288.6-365.8,310.8c-238.7,27.6-477.6,51-718.3,42c-136.7-5.1-273.2-13.2-410-15c-49.7-0.7-99.3,0.7-148.9,3
			c-10.5,0.5-21.2,0.6-31.7-0.4c-42.9-4.2-61.7-27.1-58.2-70.3c3-36.9,0.4-40.6-36.9-40.6c-37.4,0.1-74.8,4.9-112.3,1.7
			c-7.6-0.6-11.8,3.2-16.4,8.2c-62.7,67.9-143.6,91.8-232.7,95.6c-58.9,2.5-116.9-6.3-174.7-15.8c-34.2-5.6-68.3-2.6-102.4-2.8
			c-51.3-0.3-102.6-0.3-153.4-8.9c-139.6-23.8-211.3-125.9-231.6-249.9c-15.3-93.8,0.4-186.4,12.1-279.2
			c19.7-155.7,46.3-310.4,59.7-466.9c7.9-92.5-12.8-181.2-29.6-270.7c-20.7-110.4-41-220.8-27.7-334.2
			c10.4-89.1,37.8-171.2,92-243.5c67.9-90.6,158.8-137.2,271.4-141.7c85.5-3.4,170.7,1.9,256,7.4c48.1,3.1,96,6.4,143.2,16.6
			c33.3,7.2,62.9,21.7,83.8,49.6c6.7,8.9,13.9,9,23.1,8.4c56.7-3.8,103.4,16.8,140.8,59c5.9,6.7,9.1,11.4,18.9,4.3
			c100.6-72.8,217.3-101.3,337.1-119.6c157.6-24.1,315.6-46.2,475.5-47.7c236.1-2.3,469.3,20.4,697.2,85.4
			c108.1,30.8,195.6,88.1,241.8,195.6c25.3,59,37,121.2,39.8,185.1C2932.8,1043.1,2927.8,1206,2925.8,1368.9z M1512.8,1046.1
			c2.7-7.6,5.9-15.1,7.9-22.9c50.6-198.4,159.4-357.9,321.5-482c39.1-29.9,80.7-56.1,122.4-83.5c-8.4-2.2-16.1-2.2-23.9-2.2
			c-76.5-0.2-152.6,5.3-228.5,14.8c-108.9,13.7-218,26.3-325.7,48.7c-199.9,41.6-342.8,154.5-425.8,341.2
			c-26.4,59.4-50.2,120-73.4,180.8c-105.3,274.7-119.7,557.8-75.3,845.9c1.8,11.9-0.6,25.3,8.4,38.2c31.7-42,59.9-83.8,94-121
			c78.6-85.5,168.7-150.6,288.1-164.2c8.4-1,22.8-9.1,23.3,10.2c0.4,13.9,5.6,28.9-18.3,30.8c-76.8,6.1-140.9,41.7-199.4,89.4
			c-61.9,50.5-107,115.4-154.9,178.2c-21.2,27.7-28.1,53.3-19.6,87.2c14.4,57.1,25.9,115,51.9,172.2c6.6-11.4,11.7-19.5,16.2-27.9
			c45.5-84,94.2-166,165.8-231c95.7-86.9,204.9-134.4,337.1-107.9c13.8,2.8,14.5-3.7,16.6-13.3c15-68,16.9-137.1,18.8-206.3
			c2.4-91.2,7.9-182.2,22.2-272.4c15.4-97.1,31.6-194,47.4-291C1510.7,1054.3,1511.7,1050.2,1512.8,1046.1z M1609.4,2416.5
			c51.3,3.1,97.5,6.6,143.6,8.7c194.8,9.1,389-1.4,582.9-19.9c10.5-1,21-1.3,29.3-9.8c65.3-66.5,124.2-137.8,164.7-222.6
			c15.5-32.4,12.9-64.7-4.5-96c-13.7-24.7-32.5-44.7-55.3-60.9c-125.3-89.4-297.3-53.4-374.7,79.9c-12.1,20.8-21.8,11.1-34.5,5.5
			c-19-8.4-5.6-18.6-0.8-26.8c89.8-154.9,298.8-195.9,441-86.8c84.1,64.6,100.8,146.6,48,238.4c-31.4,54.5-69.4,104.3-110.7,151.7
			c-4.2,4.8-11.8,8.3-10.2,18.5c37.1-5.4,73.2-11.1,109.4-15.8c156.6-20.2,250-114.1,300.8-257.6c26.5-75,39.4-153,42.9-232
			c11.3-254,2.1-508.2,6.8-762.3c0.3-16.1-5.9-19-19.9-18.3c-66.7,3.2-133.4,6-200.2,8.2c-12.4,0.4-16.4,5-18.2,16.7
			c-6.9,44.1-24.4,84.3-48.5,121.5c-7.6,11.7-10.1,22.6-8.4,36.5c15.4,121.1-7,236.7-53.5,348.2c-38,91.1-102.5,157.3-192.8,198.2
			c-90.5,40.9-185.8,53-283.8,46.3c-136.6-9.3-218.3-86.6-257.5-213.4c-25.5-82.6-31.5-168-26.6-253.7c3.8-68,25-129.1,83.6-171.9
			c15.1-11.1,5.4-48.9-12.3-54.1c-58.4-17.2-96.4-56-115.6-112.9c-21-62.4-12.3-123.8,10.7-183.7c37.1-96.5,104.1-168.3,190.7-222
			c109.5-67.9,231-100.4,358.2-110.2c92.1-7.1,152.1,48.1,159.3,140.2c3.5,45-8.7,87-28.8,126.9c-8,15.8-16.3,31.4-25.2,48.5
			c6.3,0.8,10.2,1.4,14.1,1.7c127.5,10,194.3,62.3,234.1,184.5c3.5,10.6,9.2,11.6,18,11.3c67.5-2.5,135.1-5.2,202.6-6.9
			c16.1-0.4,20.4-6.5,20.4-21.9c-0.1-70.1,0.3-140.3-7.3-209.9c-16-146.6-85.6-251-233.3-295.2c-159.2-47.6-322.5-67.3-487-84.8
			c-79-8.4-142.1,14.9-205.8,54.5c-168.3,104.5-296.5,242.6-366.7,430.2c-32.1,85.8-48.4,175.3-62.8,265.5
			c-20.1,126.2-40.5,252.2-43.4,380.5c-1.7,73.1-1.8,146.6-15.5,219.1c-35.1,185.3-118.5,347.2-239.7,490
			c-22,25.9-35.6,50.9-35.9,85c-0.2,25.2,2.1,30.3,27.1,32.2c55.6,4.2,104.7-6.7,138.9-56c9.2-13.3,21.4-24.6,31.2-37.5
			c84.9-111.9,125.4-241.6,149.2-377.6c22.5-128.3,30-258.6,49-387.4c16.6-113.1,40.7-224.1,89.6-328.4c5.4-11.6,10-19.8,25.1-11.5
			c12.5,6.9,21.5,10.5,12.7,28.5c-40.9,83.2-62.5,172.5-78.4,263.3c-20.3,116.3-28.7,234.1-44,351c-4.9,37.5-10.8,74.9-16.7,115.2
			c32-12.6,62.1-16.1,93-17.1c113.4-3.5,175.5,75.2,143.6,183.2c-0.9,3.1-2,6.2-2.9,9.3c-27.1,84.6-80.7,151.6-142.6,212.9
			C1648.8,2380.6,1630.7,2396.6,1609.4,2416.5z M547.4,476.3c-53.3-2.5-103.3-1.2-152.2,11.9C281.1,519,214.9,600.1,174.3,705.1
			c-40.5,104.8-38.6,213.8-21.7,322.7c13.2,85.1,31,169.5,44.9,254.6c2.9,17.7,8.7,22.9,25.7,23.3c60.2,1.5,120.4,4.3,180.6,6.9
			c115.5,5,231,10.1,346.4,15.6c12.8,0.6,18.4-1.8,20.8-16c20.7-124.1,60.4-242.6,106.5-359.3c48.4-122.6,101.7-241.7,204.9-330
			c9.8-8.4,6.6-14,0-22c-39.7-47.7-113.7-56.9-163.1-19.6C785.2,682.6,693.6,814,646.1,975.4c-5.5,18.6-12.8,19.2-29.2,15.9
			c-19.7-3.9-14.4-14.3-11-26c31.9-108.5,84.3-205.9,157-292.5c45.1-53.8,97.3-99.9,155.2-141.5c-25.3-25.2-56.7-29.7-87.5-37.3
			c-42.9-10.6-76,2.6-109.5,29.3C583.6,632.8,496.5,772.2,463.3,944.8c-2.4,12.6-4.4,16.5-19.2,16.1c-26.9-0.8-23-15.7-19.6-32.4
			C447.5,814,495.2,711,567.2,619c38.8-49.5,84-92.4,134.4-132.1c-4.1-2.1-6-3.9-8.1-4.1c-18.7-1.3-37.5-1-56-3.6
			c-21.4-3-36.5,4.8-51.8,19.5c-125.3,120-216.9,261.2-269.3,426.9C310,946,301.2,941,287,938.4c-20.4-3.8-14-14.6-10.1-26.5
			C318,786.8,379.8,673,463.4,571.4C489.5,539.6,517.8,509.6,547.4,476.3z M447.7,2389.7c2.1-7-2.3-10.4-4.7-14.5
			c-61-106.3-82.2-220-63.9-341.1c1.9-12.6,2.2-24.3,21.3-19.9c15,3.5,23.1,5.3,19.7,25.7c-19.7,119,4.5,229.6,68.9,331.5
			c5.3,8.4,8.8,19.5,22.6,19.4c28.9-0.2,58-2,90,5.7c-5.5-11.1-8.8-18.4-12.5-25.4c-48.7-92.7-66.7-191.4-57.6-295.4
			c0.9-10.2-1.9-25.3,17.6-20.8c13.3,3.1,26.4,0.3,23.8,24.7c-12,111.4,13.7,214.9,74,309.5c5.2,8.1,9.9,16.4,22,16.7
			c26.8,0.7,53.6,2.7,80.5,3.6c7,0.2,16.7,2.6,20.4-4.1c4-7.3-5.1-12.6-9-18.2c-55-80.6-76.7-169.5-67.9-266.4
			c1.4-15.9,8-20.9,23.6-17.6c13.4,2.8,20.2,5.1,18,23c-11.6,98,16.8,184.8,78.1,261.4c4.9,6.1,9,13.5,19.7,10.5
			c42.7-11.9,82.3-29.2,114.8-63.1c-45.7-21-72.7-57.1-93.4-98.8c-22.9-46.2-38.3-95.2-48.9-145.4c-30.2-142.7-48.7-287-55.7-432.8
			c-0.6-12.6,1.9-24.7-19.5-24.8c-176.7-0.4-353.5-2-530.2-3.7c-13.9-0.1-19.4,3.1-21.3,18.2c-10.2,80.6-22,161.1-33.1,241.6
			c-10.2,73.4-21.8,146.8-19.3,221.1c2.8,83.8,24.5,161,89.3,219.8c22,19.9,47.3,34.5,81.2,43c-23.4-38.2-38.9-73.7-48.8-111.8
			c-23.2-89.2-15.3-179.4-9.2-269.6c1.3-19,14.7-12.3,25.3-12.2c11.3,0.1,17.5,2,16.1,16.6c-5.1,51-9.7,102.3-6.9,153.6
			c4.3,79.2,20.2,154.9,71.9,218.6c6,7.4,11,16.9,22,18C393.5,2389.2,420.7,2392.9,447.7,2389.7z M2075.4,1370.2
			c-35-46.7-54.6-94.2-61.5-146.5c-1.4-10.3-12.2-26.4,9.4-30.6c18.4-3.5,28.9,0.1,31.2,23c6.4,61.3,34.7,112.9,78.5,155.9
			c7.4,7.3,14.6,16.2,25.5,18.2c51.1,9.1,102.3,12.3,153.9,2c-0.5-2.7-0.4-3.7-0.8-4.2c-5.4-6-11-11.9-16.4-18
			c-47.8-53.9-72.3-116.7-73.8-189.1c-0.4-19.3,5.9-23.2,23.8-21c15.8,2,17.1,10.1,17.4,23c1.9,75.1,32,136.8,89.6,184.9
			c7.8,6.5,15.3,14.7,28,10c33.6-12.3,66.5-25.7,96-49.3c-8.2-4.9-15.1-8.7-21.8-13c-64.8-41-100.3-100.1-109.8-175.9
			c-2.7-21.4,4-26.7,25-23.6c17.1,2.5,15.3,13.9,16.7,24.6c9.1,68.2,45,117.1,105.3,149.2c14.9,7.9,25.7,7.8,38.2-6.1
			c34.3-38.3,61.6-80.5,74-130.4c10.8-43.4,9.6-87.1-13.2-127.7c-28.2-50.3-70.3-82.7-126.5-95.9c-55.1-12.9-110.2-8.1-164.4,5.2
			c-102.7,25.1-205.8,49.7-294.5,111.8c-41.1,28.7-73,65.3-88,113.8c-17.7,57-12.8,110.1,36,151.3
			C1987,1340.6,2028.2,1355.3,2075.4,1370.2z M2554.2,1317.8c-38.9,36.1-78,64.7-123.2,83.9c-7.7,3.3-7.8,8.9-8.1,15.6
			c-4.5,84.8-52.7,136.4-129.5,162.1c-73.6,24.6-148.2,18.6-220.6-6.5c-39.4-13.7-64.3-43.4-73.1-85c-5.7-26.7-5.1-53.5,1.2-79.9
			c3.2-13.7,0.8-21.7-13.8-28.1c-41.6-18.3-78.4-43.5-100.2-85.4c-6.9-13.2-12.6-5.1-18.1,0.5c-21.6,22.1-37.1,48-42,78.5
			c-17.8,109.7-10,218,30.4,321.6c30.4,78.1,86.3,130.8,172.7,145.4c71.8,12.1,143,7.7,213.3-8.6c84.5-19.6,159-57.2,213.3-128
			c48.8-63.7,71.7-138.2,87.6-215.1C2555.3,1434,2561,1378.5,2554.2,1317.8z M2412.9,720.1c0-76.9-39.4-116.7-115.9-115.2
			c-21.8,0.5-43.7,3.7-65.3,7.4c-105.2,17.9-206.4,47.7-294.7,110c-91.9,64.9-157,148.4-172.2,263.7c-8.7,66,18.6,127.4,68.6,156.1
			c32.6,18.8,37.7,16.9,52.9-15.8c6.5-14,14.2-27.5,22.9-40.2c39.6-57.6,95.6-94.7,158.5-121.6c84.8-36.2,173.3-60.9,263.9-78.1
			c6.8-1.3,14.5,0.9,19.3-7.3C2380,829.5,2412.1,780.9,2412.9,720.1z M466.5,1589.4c0,1.3,0,2.6,0,3.9c86.3,0,172.6-0.2,258.9,0.2
			c14.5,0.1,21.8-2,22-19.5c0.7-61.1,3.8-122.1,12.8-182.6c2.5-16.9-2-22.1-19.4-22.8c-141.5-5.7-283-12.3-424.5-18.7
			c-31.7-1.4-63.4-3-95.1-4.7c-9.8-0.5-17.6-0.4-16.9,13.4c3.6,70.3-6,139.8-16,209c-2.9,20.4,4.7,22.2,21.7,22
			C295.5,1589,381,1589.4,466.5,1589.4z M1332.4,1873.5c-3.5,0.3-13.2,0.8-22.9,1.9c-104.3,12.5-185.1,66.3-252.7,143.4
			c-55.7,63.5-94.6,137.8-136,210.6c-11.7,20.7-5.6,32.3,8.8,45.8c29.8,28.1,66.9,31.5,104.7,30.9c39.8-0.6,79.6-7.3,119.1,2.1
			c11.3,2.7,16.4-4.4,22.2-11.1c92.2-105.8,166.1-222.7,213.1-355.6C1411.4,1877.3,1408.9,1873.7,1332.4,1873.5z M1368.3,2406.6
			c0.9,2.9,1.8,5.8,2.7,8.8c54.4,0,108.9-0.1,163.3,0.1c8.6,0,15.5-1.8,22.1-7.7c46.2-41,93.4-81,132.7-129.1
			c43.8-53.5,79-111.3,90.2-181c6.2-38.4-6.9-65.1-42-81.8c-50.8-24.2-102.1-22.1-153.3,0.1c-15.3,6.6-23.7,16.6-27.6,33.7
			c-18.9,82.9-50.7,160.9-93.2,234.6C1437.3,2329.2,1404.8,2369.4,1368.3,2406.6z M2200.4,1552.9c25.9,0.6,61.4-3.3,94.9-17.5
			c43.8-18.5,73-50,85.1-96.9c4.1-16-0.8-18.6-15.1-14.8c-34.7,9.2-70,13.9-106,14.8c-67.4,1.7-132.7-9.1-197-28.8
			c-6.1-1.9-16.9-13.3-21.1,3.4c-11.7,47.5-8.6,110.8,64.5,128.3C2133.7,1548.1,2161.8,1551.2,2200.4,1552.9z"/>
		<path class="st0" d="M1509.7,1058.3c-3.8,9.8-7.8,19.5-11.5,29.3c-48.3,126.3-180.6,201.2-308.9,174.7
			c-59.6-12.3-105.5-60.1-116-121c-11.7-67.6,17.1-138.2,67.5-169.4c11.4-7,16.9-4.4,22.8,5.4c7.1,11.8,15.6,22.9,21.8,35.2
			c32.2,63.4,84.1,71.1,144.8,61.1c58-9.5,104.4-43.5,150.4-77.4c11-8.1,21.9-16.4,36.1-27.1c4.3,28.3-6.5,52.5-4,76.9
			C1511.7,1050.2,1510.7,1054.3,1509.7,1058.3z M1143,1022.2c-30.3,40.2-39.8,82.3-25.1,128c14,43.6,46,66.3,90.8,74.4
			c102.5,18.6,224.2-57,253.2-158.6c0.2-0.7-1.7-2-3.2-3.6c-8.9,5.3-17.9,10.7-27,16C1313.8,1147,1212.6,1128.1,1143,1022.2z"/>
	</g>
</g>
</svg>
