<?xml version="1.0" encoding="utf-8"?>
<!-- Generator: Adobe Illustrator 23.0.0, SVG Export Plug-In . SVG Version: 6.00 Build 0)  -->
<svg version="1.0" xmlns="http://www.w3.org/2000/svg" xmlns:xlink="http://www.w3.org/1999/xlink" x="0px" y="0px"
	 viewBox="0 0 3000 3000" style="enable-background:new 0 0 3000 3000;" xml:space="preserve">
<style type="text/css">
	.st0{stroke:#000000;stroke-width:10;stroke-miterlimit:10;}
</style>
<g id="Layer_1">
</g>
<g id="Layer_2">
	<g>
		<path class="st0" d="M1592,793c209.8,8.8,419.8,2.9,629.6,11.4c107.1,4.4,215.2,9,315.1,52.3c154.5,67,283.4,167.7,370.7,313.8
			c75.8,126.8,67.8,255.3-12.3,377.3c-90.5,137.8-239.2,134.4-347.9,44.8c-55-45.3-78.1-105.2-83.3-174
			c-4.9-65.3-40.4-108.7-97.3-137.2c-57.6-28.9-120.2-38.5-182.9-46.9c-54.1-7.3-108.6-12.1-162.8-19c-18.7-2.4-24.8,2.2-25.2,22.4
			c-3.4,190.9-7.9,381.8-12.3,572.6c-0.2,8.1,4.4,21.2-5.4,23.5c-14.5,3.4-30.8,3.6-45.1-2.2c-6.3-2.5-3-12-2.9-18.2
			c1.3-76.5,2.8-153,4.5-229.5c2.7-117.3,5.2-234.6,8.9-351.9c0.6-18.5-5.5-23.9-22.7-23.9c-22.5-0.1-50.6-10.5-65.7,1.6
			c-14.4,11.6-5.7,41-6.1,62.5c-4,196-7.6,392-10.4,588c-0.3,18.2-4.6,22.4-22.9,22.8c-24.6,0.5-41.8-8.4-59.4-24.5
			c-68.4-62.3-138.2-123.1-206.8-185.1c-10.5-9.5-17.1-8.7-27.7-1c-93.5,68.2-188.2,134.7-280.3,204.8
			c-16.8,12.8-29.7,22.3-50.9,20.6c-11.7-0.9-16.6-3.1-16.4-16c1.7-107.1,2.7-214.3,3.9-321.4c1.3-113,2.5-225.9,4.2-338.9
			c0.2-11.9-2.5-16.2-15.5-16.3c-51.1-0.5-51.1-1-51.5,49.3c-1.6,191.7-3.1,383.3-4.9,575c-0.1,7.9,4.7,20.5-5.8,22.8
			c-14.6,3.2-30.9,4.3-45.2-1c-6.6-2.4-3-13.3-3-20.4c1.5-196.8,3.1-393.6,4.7-590.3c0.3-37.6,2.7-31.8-31-30.2
			c-99.8,4.9-198.6,15.7-296.1,39.5c-87.4,21.4-135.5,76.9-153.4,162.1c-2.8,13.3-2.5,27.6-2,41.3c2.3,65.2-23.8,116.8-72.8,158.7
			c-104.6,89.5-259.4,91.3-358.1,0.7c-88.8-81.5-111-183-73.5-295.3c55.6-166.6,165.1-289.6,318.9-372.4
			c154.6-83.2,320.5-130,495.2-146c168.8-15.4,337.9-8.1,506.9-6.5C1460.8,793.5,1526.4,793,1592,793z M2060.6,852.5
			c-59.8,0-119.5-0.5-179.3,0.3c-23.7,0.3-54.9-11.1-69,4.7c-13.7,15.3-3.1,46.1-5.1,69.9c-1.1,13.6,3.8,16.9,16.9,17.5
			c104.1,5.1,208.1,9.9,312.1,17.1c132.8,9.2,260,41,378.7,102.7c76.5,39.8,150,84,208.8,148.8c58.9,64.9,89.8,138.5,72.6,228.1
			c-10.2,53.2-55,83.9-107.6,71.7c-29.8-6.9-52.3-24.6-70.6-48.3c-16.2-21-26.7-45.1-37-69.2c-22.3-52.4-54.2-97.8-97-135.6
			c-78.8-69.5-172.6-106.9-273.9-127.7c-107.5-22.1-216.7-26.3-325.9-31.5c-361.5-17.2-722.8-14.5-1083.9,9.9
			c-108.3,7.3-210.3,36.8-303.4,94.4c-59.5,36.8-97.1,85-88.9,159.6c2,18.7,1.7,38-0.1,56.7c-5.8,62.5-59.8,102.2-128.2,95.2
			c-60.7-6.2-95.1-50.9-88.1-115.1c8.3-75.9,38.3-143.2,84.5-203c66.3-85.9,156.6-137.7,256.1-175.8
			c118.5-45.3,243.3-49.3,367.6-56.7c105.4-6.2,210.9-12,316.4-17.1c14-0.7,17.2-5.7,17.1-18.1c-0.2-22.6-0.1-45.2,1.4-67.8
			c1-15.1-3.6-19.9-19.2-19.8c-84.5,0.8-169-0.2-253.6,4.1c-191.1,9.7-372.8,53.9-541.9,144.4c-145.7,77.9-248.7,194-298,352.8
			c-50,160.9,82.9,309.7,244.7,277.2c102.7-20.6,155.8-83.5,157.9-187.3c1.6-78.7,55.3-189.8,153-222.1
			c15.9-5.2,31.7-10.9,47.8-15.2c111.3-29.3,225.5-39.5,339.8-42.2c303.1-7.3,606.3-16.2,909.3,3.6c111.2,7.3,222.5,17,331,43.6
			c110.1,27,202.6,84.3,215.1,227.5c7.6,87.5,72.9,155.1,159.5,169.6c47.8,8,91.3-1.4,128.6-33.7c94.1-81.5,122.8-230.5,67.2-341.9
			c-42-84.1-105.8-149.1-177.4-207.7c-94.3-77.2-199-130.9-321.7-145.9C2271.9,857.5,2166.2,856.1,2060.6,852.5z M1422.4,1036
			c195,0.4,361.9,5.1,528.5,14.1c109.8,5.9,219.6,13.3,326.3,43.3c115.4,32.5,217.4,86.9,294.5,181.6
			c31.1,38.3,51.4,82.6,71.5,127.1c10.6,23.5,23.9,45.1,49.3,55.9c25.4,10.8,42.9,3,49.7-23.6c12.5-48.3,5.2-94-21.2-136.3
			c-23.1-36.8-53-67.6-86.9-94.4c-150.1-118.8-322.9-176.8-512.1-189.2c-94.5-6.2-189.2-9.9-283.8-14.4
			c-208.4-9.8-416.7-5.9-625.1,3c-147.1,6.2-294,15.7-440.8,24.9c-115.3,7.3-225.5,35.2-326.2,94.5
			c-63.2,37.2-117.9,83.5-154.1,148.2c-24.2,43.3-44.5,88.6-47.1,139.4c-0.8,15.4-1.3,32.1,12.3,42.4c20.4,15.4,43,14.6,66.3,5.4
			c20.9-8.2,31.3-23.2,31.6-45c0.4-24-0.1-48.1-0.4-72.1c-0.7-55.7,20.6-101.9,60.5-140.1c22.8-21.8,48.8-39,76.1-54.6
			c105.6-60.4,220.9-84.8,340.6-92.1C1038,1041.3,1244.2,1037.3,1422.4,1036z M1231.6,1815.3c4.5-2.6,6.5-3.6,8.2-4.9
			c180.5-130.5,360.9-261.1,541.6-391.3c9.7-7,11.9-15.2,12-26.1c0.5-55.4,1.7-110.8,2.1-166.1c0.1-7.9,5.2-18.9-5.7-23
			c-9.8-3.7-19.6-0.5-28.6,6c-172.4,124.4-344.9,248.5-517.4,372.7c-5.8,4.2-12.3,7.9-12.3,16.7
			C1231.7,1670.5,1231.6,1741.6,1231.6,1815.3z M1461.9,1359.3c-44-42.7-88.7-82.4-128.6-126.3c-23.3-25.7-48-33.5-80.3-29.8
			c-11.7,1.3-16.8,4.2-16.7,16.6c0.1,31.2-0.6,62.5-1.3,93.7c-0.2,7.9,2.1,13.9,8.3,19c36.4,30.1,72.7,60.3,108.8,90.7
			c7.2,6,12.7,6.8,20.8,0.7C1400.7,1402.9,1429.2,1382.9,1461.9,1359.3z M1780.9,1807.8c2.4-0.6,4.7-1.3,7.1-1.9
			c0-46.4-0.2-92.8,0.1-139.1c0.1-9.5-5.6-14.4-11.9-19.5c-30.5-24.8-61.3-49.2-91.2-74.7c-9.2-7.9-15.5-7-24.3-0.4
			c-22.1,16.6-44.3,33.1-67.2,48.6c-11.4,7.7-9.8,12.6-0.4,20.5c20,16.9,39.1,34.9,58.7,52.3
			C1694.9,1731.7,1737.9,1769.7,1780.9,1807.8z M1523.2,942.6c0-0.7,0-1.4,0-2.2c36.4,0,72.9-0.4,109.3,0.2
			c12.4,0.2,18.7-1.8,17.9-16.4c-1-18.1-0.4-36.5,1.2-54.6c1.3-15.4-4.1-20.1-19.3-20.1c-73.6,0-147.2-0.7-220.8-2.1
			c-13.4-0.3-15.6,4.7-15.3,16.2c0.5,21.1,0.4,42.3-0.7,63.3c-0.7,12.8,4,16.1,16.3,15.8C1448.9,942.2,1486,942.6,1523.2,942.6z
			 M1678,1203.7c-101.6,0-198.3,0-294.9,0c-1.5,2.3-2.9,4.6-4.4,6.9c38.9,37.2,77.9,74.3,116.6,111.7c5.7,5.5,9.6,6.6,16.4,1.6
			C1565.7,1284.5,1620.1,1245.5,1678,1203.7z M1342.2,894.3c1.3-51.6,1.3-51.6-38.8-49.7c-0.7,0-1.5,0.1-2.2,0
			c-9.4-0.9-13,3.8-13.1,12.7c-0.2,26.1-0.5,52.2-1.2,78.3c-0.3,9.2,4.2,10.2,12,10.4c42.3,1.3,42.3,1.5,43.3-40.8
			C1342.3,901.6,1342.2,897.9,1342.2,894.3z M1234.7,1395.5c0,44.8,0,84.4,0,127.3c25.9-18.5,49.3-35.4,72.8-52
			c6.9-4.9,8.3-8.7,0.8-14.8C1284.7,1437.1,1261.5,1417.6,1234.7,1395.5z M1705.2,896.4c-0.5,0-1.1,0-1.6,0c0,10.9,0.1,21.7,0,32.6
			c-0.1,6.1,0.5,10.7,8.1,13c30.2,9,42.3,0.8,42.8-29.8c0.2-13-0.9-26.2,0.8-39.1c2.4-17.9-5.8-22-21.6-21.8
			c-34.1,0.5-26.8-1.5-28.4,27.8C1704.9,884.8,1705.2,890.6,1705.2,896.4z M1789.3,1479.7c-23,16.6-44.4,31.8-65.5,47.4
			c-3.9,2.9-2.1,6.3,1.1,8.9c20.4,16.7,40.9,33.3,64.4,52.5C1789.3,1550.5,1789.3,1517.3,1789.3,1479.7z"/>
	</g>
</g>
</svg>
