<?xml version="1.0" encoding="utf-8"?>
<!-- Generator: Adobe Illustrator 23.0.0, SVG Export Plug-In . SVG Version: 6.00 Build 0)  -->
<svg version="1.0" xmlns="http://www.w3.org/2000/svg" xmlns:xlink="http://www.w3.org/1999/xlink" x="0px" y="0px"
	 viewBox="0 0 3000 3000" style="enable-background:new 0 0 3000 3000;" xml:space="preserve">
<style type="text/css">
	.st0{stroke:#000000;stroke-width:10;stroke-miterlimit:10;}
</style>
<g id="Layer_1">
</g>
<g id="Layer_2">
	<g>
		<path class="st0" d="M1867.3,2854.9c-179.2,3.4-342.6,0.2-502.9-39.8c-91.8-22.9-180.5-55.8-270-86.2
			c-103.9-35.3-210.3-50.5-319.5-48.4c-100.5,2-201,8.6-300.9-8c-73.6-12.2-143-35.4-205.1-78.6c-88.1-61.3-132.9-146.6-137.9-252.1
			c-7.8-162.3,33.6-316.2,85.8-467.8c7.7-22.3,25.6-45.6,22.5-65.9c-3-19.7-35.4-23.1-53.5-36.1c-84.3-60.2-115.8-150.7-88.3-258.8
			c25.4-99.7,64.3-194.2,112.6-284.9c9.4-17.6,11.3-28.2-3.9-45.5c-73.7-84.1-51.1-221.3,43.7-281c46.4-29.2,98.8-37.9,151.5-45.6
			c55.9-8.1,110.3-20.3,159.4-50.1c11.3-6.8,17.7-12.2,10-27.6C507,650.8,580,508.2,708.4,459c44.9-17.2,91.3-24.9,139.2-18.2
			c19.8,2.8,35.6-0.9,52.2-12.4c104.9-72.9,224.2-104.8,349.4-115.5c147.4-12.6,295.1-14.8,443.1-8.6c172.6,7.2,344.8-1.9,516.7-19
			c29.8-3,56.5-11,83.9-22.9c157-68.1,309.1-62.7,450.6,39.9c75.3,54.6,121,132.3,147.6,219.7c49.6,163.4,66.6,330.8,36.1,499.3
			c-11.9,65.8-15.8,130.4-14.9,196.2c3.4,255.3,8.5,510.6,10.2,765.9c0.9,134.9-21.2,266.6-70.3,393.2
			c-96.4,248.4-274.4,397.3-537.7,444.2C2161.3,2848,2006.4,2847.8,1867.3,2854.9z M2165.3,341.2c-12.5,0-17.2-0.4-21.8,0.1
			c-162.2,14.4-324.8,16.2-487.5,12c-145-3.7-289.8-4.1-434.1,12.4c-155.6,17.9-292.8,74.9-398.6,195.2
			c-34,38.6-62.1,81.7-88.2,125.7c-69.6,117.2-164.4,197.3-304.1,215.6c-37,4.8-74.2,11.3-110,21.2c-98.7,27.4-140.8,137.6-85,218.3
			c40,57.7,122.5,73.3,190.2,32.9c25.8-15.4,27.5,9.1,37.7,17.8c15.2,13-2,18.2-9.4,23c-52.2,33.3-108.3,40.8-166.8,20.7
			c-17.8-6.1-25.6-2.4-33.9,13.6c-44.4,86-81.6,174.6-106.4,268.4c-32.3,122.6,20.3,215.7,142.5,249c102,27.8,204.1,10,303.8-9.4
			c117.5-22.9,233.7-44.8,348.8,1.7c88.9,35.8,180.8,52.3,275.2,62.3c61.1,6.5,120,22.8,171,60c72,52.5,97.5,130.2,66.4,210.5
			c-6.4,16.4,0.1,22.9,9.8,32c58.9,54.9,106.8,118.3,145.3,189c7.6,14.1,11.1,23.1-8,31.1c-15.8,6.5-25.8,13.5-36.7-8.3
			c-25.6-51.3-59.3-97.5-98.7-139.5c-46.4-49.5-46.3-49.6-96.1-2.9c-1.1,1-1.2,3.1-2,5.4c60.5,50,110.9,108.8,147.4,178.8
			c6.1,11.8,20.6,24.9-3.8,34.4c-16.8,6.5-28.7,14.3-40.7-11c-29.4-62.2-74.3-113.5-127-157.6c-8.1-6.8-15.5-18.5-29.8-6.5
			c-21.7,18.3-45,34.6-69.4,53.2c10.3,7.2,18.2,12.7,26.1,18.2c72.2,49.5,128.2,113.2,166.8,191.9c5,10.2,16.6,22-4.5,28.9
			c-15.4,5-28.2,19.4-41-8.2c-36.2-77.9-94.1-137.3-166.3-183.7c-18.2-11.7-31.2-11.7-49.6,0.8c-104.8,70.8-216.6,125.7-345,136.3
			c-119.6,9.9-228.1-12.3-294.8-124.9c-53.4-90.1-51.6-185.7-13.7-281.3c6.7-16.8,13.3-29-10.7-37.4c-11.1-3.9-13.9-17.9-15.8-30.1
			c-8.3-52-8.9-104,0-156c3-17.6,0.8-24.1-20.5-21.1c-52.8,7.5-106.3,9.5-159-0.6c-20.9-4-29.5,1.5-37,20.6
			c-51.2,131-85.8,266-100.3,405.9c-20.2,194.1,64.8,315.6,253.5,364.3c89.1,23,179.7,19.9,270.4,18c83.8-1.8,167.5-2,250.7,11
			c77.3,12.1,151.3,36,224.3,62.8c161.1,59.2,326,96.6,498.5,99.9c147,2.8,293.7-3.1,440.3-11.4c97.5-5.5,194.2-17.8,288-46.6
			c211.7-64.9,338.3-214.1,410.6-416.5c47.1-131.9,58.9-268.9,57.4-407.5c-2.7-235.6-6.7-471.1-10.3-706.7
			c-0.1-5.2,3.2-11.8-5.5-16.9c-25.4,36.4-54.6,69.4-91.3,94.9c-77,53.5-158.9,73.1-251.2,42.5c-40.7-13.5-67.7-42.4-98.5-67.9
			c-33.7-27.7-39.9-28.8-73.3-0.7c-39.8,33.5-83.9,53.8-136.2,57.5c-44.2,3.1-85.7-6.6-128.1-24.6c-3.1,46.1-7.8,88.9-16.5,131.1
			c-6.9,33.4-7,32.5,26.9,30.3c219.1-13.8,427,28.6,624.5,124.1c16.5,8,16.2,15.6,8.3,29.2c-7.6,13-10.4,25.8-32.1,15.2
			c-191.6-94-394.1-132.6-607.2-119.5c-31.9,2-47.5,10.7-53,43.1c-6.2,36.6-8.6,36.7,29.1,34.2c184.8-12.3,358.2,26.4,520,116.4
			c44.2,24.6,44,24.8,15.5,66.1c-177.6-104.4-332.6-143.7-529.5-134.1c-57.2,2.8-57.2,2.8-71.3,54.5c-5.4,19.9-11.2,39.8-16.7,59.7
			c-9.3,34.1-9.3,34.2,24.7,31.6c90.6-7,181.2-8.8,271.5,1.7c127.8,14.8,245.8,54.3,344.1,141.1c7.9,6.9,23.3,13.7,6.4,26.6
			c-11.2,8.5-16.5,31.4-39,10.9c-71.9-65.5-159-100.7-253.2-119.4c-105.3-20.9-211.4-20.2-318-12.3c-56.3,4.1-54.6,2.6-63.5,56.3
			c-4.6,27.9,4.6,29.4,28.3,27.8c228.3-15.4,424.4,56.4,586.5,219.2c15.4,15.4,19.1,23.9-0.4,40.7c-19.9,17-26.4,3.1-37-7.5
			c-150.9-151.6-333.6-217.6-546.4-203.9c-26.1,1.7-38.9,9.1-35.1,38.3c3,23.3,2,47.4,0.1,70.9c-1.4,17.5,2.9,22.1,20.5,19.5
			c28.2-4.2,56.8-7.3,85.2-8.2c192-5.5,357,59.5,495.6,192.1c4.7,4.5,14.9,7.1,10.7,17.4c-8.7,21.8-34.1,27-51.6,11.1
			c-156.7-142.8-339.5-196.9-548.7-160.9c-10.3,1.8-24.9,1-22.9,16.5c1.8,14.4,15.9,7.5,24.3,8.2c167.3,14.8,308.3,83.1,422.5,206.4
			c10.1,10.9,22.1,20.6,2.8,35.6c-14.8,11.5-22.8,17.5-39.2-1c-91.7-103.3-207.8-163.9-343.6-186.2c-30.9-5.1-63-12.7-96.2-2.9
			c2.5,4.3,3.1,6.8,4.4,7.3c6.5,2.3,13.2,4,19.8,5.9c98.8,29.3,172.1,89.1,216.6,182.7c4.2,8.9,16.5,22.3-4.9,26.8
			c-13.6,2.9-27.8,21.9-40.3-5.6c-38.4-84.3-105.4-134.8-194.3-158.8c-27.5-7.4-47.7-4.2-59.8,24.7c10.3,4.1,20.4,7.9,30.3,12.2
			c93.9,40.9,152.9,111.7,179.2,210.3c3.1,11.8,9.4,26.6-12.7,27.6c-14.3,0.6-29.4,12.9-36-15.4c-19.6-84.1-71.2-143.7-150.8-177.6
			c-55.7-23.7-67-20.2-108.7,27.2c6.2,3.3,12.1,6.7,18.1,9.7c72.2,35.8,131.7,86.2,175.4,154.1c6.2,9.6,26.6,20.8,2.3,35
			c-17.5,10.3-28.5,17.1-43.2-6.8c-38.6-62.7-93.8-108.2-160.4-139.7c-45.2-21.4-55.1-18.5-86,26.8c74.1,29.4,131.6,78,169.7,148.3
			c5.2,9.5,16.1,20.8-4.1,26.2c-13.4,3.5-26.9,24.2-40.1-3.2c-20.2-41.7-51.2-75.9-91.5-98.2c-85.5-47.3-77.9-50.1-122.4,35.9
			c-0.5,0.9-1,1.8-1.2,2.7c-7,28.6-25.9,12.7-39.8,9.6c-19.1-4.4-9.9-17.5-5.8-27.9c25.5-64.4,71.9-112.2,123.9-155.4
			c57.5-47.8,118.9-90.9,171.8-144.3c48.3-48.7,76.2-105.9,80.6-175.6c4.3-68.9-1.7-138,6.2-206.8c11.8-103.3,45.8-201.1,71.6-300.9
			c24.2-93.3,54.7-185.3,56.2-283.2c0.3-16.9-3.5-29.1-16.8-41c-41.8-37.5-71.2-84-90.6-136.6c-35.9-97.6-33.4-197.4-13.8-297.3
			C1944.8,637.2,2016.3,472.6,2165.3,341.2z M2887.4,836.6c0-21.7,1.3-43.4-0.2-65c-7.9-108.7-24.8-215.3-76.4-313.3
			c-43.1-81.8-107-140.4-195.9-169.5c-131-42.9-256-23.8-365.8,54.5c-231.4,165.1-310.6,402.6-299.2,675.9
			c3.3,78.7,40.9,146.9,99.8,201.9c71.6,66.8,190.3,76.2,261,11c52-48,82.7-44.6,137.7,0.1c13.8,11.2,26.7,23.3,40.1,35
			c15.1,13.2,32.1,22.1,51.7,27.2c63.6,16.5,123.1,7.4,178.8-26.8c66.5-40.8,110.7-100.5,137.5-172.4
			C2887.6,1012,2896.5,925.1,2887.4,836.6z M1255.8,1973.3c-24.7,17.2-44.1,30.4-67,37.9c-87.2,28.7-162-16-177.5-106.5
			c-3-17.5-6.5-34.9-3.9-52.8c1.6-11.3-2-18-13.7-21.9c-34.5-11.5-68.6-24.4-103-36.2c-11.2-3.8-22.2-5.4-33.7,2.3
			c-71.5,47.4-143.5,94.2-201.7,158.4c-55.2,60.9-96.1,129.4-107.4,212.9c-18.7,137.2,66.9,245.2,204.7,258.1
			c46.7,4.4,93,1.7,138-9.7c199.9-50.6,353.4-176.4,500.7-311.9c8.8-8.1,16.1-18.8,18.2-36.3c-53.9,26.1-106.2,43.9-162.2,51.9
			c-24,3.4-23.9-5.9-21.8-22.5C1230.4,2056.8,1239.6,2017.7,1255.8,1973.3z M617.1,761.4c76.7-85.4,119.7-190.7,199.2-269.6
			c-82.8-1.8-149,28.4-192.9,97.9C589.7,643.2,587.6,700.1,617.1,761.4z M780.8,1783.1c-75-0.8-146.5,16.6-217.9,34.4
			c-13.8,3.5-14.8,14.8-16.3,25c-4.8,32.1-9.4,64.3-6.8,96.9c1.1,14.1-4.3,35.5,9.3,39.6c13.2,4,28.6-11.2,38.7-22.8
			c26.6-30.4,53.9-59.9,84.3-86.7C706.6,1839.1,744.4,1812.7,780.8,1783.1z M1267.2,1881.3c-66.4-17.1-132.7-16.3-196.7-29.9
			c-6.6-1.4-10.5,0.5-12.8,7.8c-15.5,48.4,29.7,111.5,80.6,110.5C1199.1,1968.4,1234.4,1929,1267.2,1881.3z M1282.3,2062.5
			c46-10.3,85-27.6,121.8-50.5c10.3-6.4,13-13.7,8.1-24.6c-12-26.5-28.8-49.2-53.1-65.8c-6.7-4.6-12.7-9.8-19.4,0.4
			C1312.3,1964.2,1291.1,2008.8,1282.3,2062.5z"/>
		<path class="st0" d="M370.6,1608.8c7.9,2.4,15.3,5.3,22.9,6.8c18.4,3.6,21.9,12.1,17.9,31.1c-8.9,42.3-2.5,48.5,40.5,49.2
			c72.6,1.2,139-24.3,205.6-48.5c63-22.8,125.9-45.5,193.4-51.1c54.2-4.5,105.6,7.1,155.9,26.4c7.8,3,17.9,12.4,25.1-2
			c38.2-76,67-154.4,48.1-241.2c-20-91.5-91-143-201-150.6c-77.3-5.3-153.2,8.9-229.7,15c-41.6,3.3-82.6,2.2-123.8-3.6
			c-13.1-1.9-27.3-3.5-20.7-22.7c4.7-13.7,0-32.5,29.3-26.8c70.5,13.5,141.4,1.7,211.8-6.5c71-8.3,141.3-9.6,211.2,8.9
			c115.7,30.7,187.5,132.8,178.4,252.6c-4.8,62.9-21.8,122.1-50.6,177.7c-11.5,22.3-3.7,27.9,17,31.7c47.7,8.6,95.6,12.3,144.1,11.5
			c78.7-1.3,157.6-8.9,235.9,6.2c9,1.7,16.9,2.4,21.2-9.4c15.6-42.7,50-70,83.1-97.9c75.2-63.4,161.4-104.7,257-127.3
			c16.7-3.9,26.8-3.9,31,17.5c3.9,20.1-0.2,27.1-20.3,31.5c-104.5,23-194.8,72.9-271.3,147.7c-6.3,6.2-12.7,12.5-18.2,19.4
			c-22.2,27.5-20.9,33.2,9.5,48.7c41.1,20.9,40.9,20.7,73-12.7c59.4-61.8,130.2-104.4,213.8-125.1c12.4-3.1,26-10.4,27.3,11.6
			c0.8,14.5,13.6,31-14.9,37.1c-78.4,17-143.1,58.8-197.1,117.6c-5.3,5.8-9.7,12.5-15.2,18.1c-10.1,10.2-2.7,17.1,3.3,25.2
			c8.7,11.8,14.9,3.5,21.3-1.9c51.5-42.9,110.5-67.7,177.4-72.7c12.2-0.9,30.9-12.1,31.5,15.5c0.4,20.2-1.5,32.7-27.2,33.9
			c-59,2.8-110.3,26.8-155,65c-7.3,6.2-17.9,12.9-12.1,24.2c7.2,14.1,17.2,1.9,25-0.7c38.7-13,78.1-20.3,119.1-16.4
			c13.5,1.3,26,2.6,21,22.3c-3.6,14.4,0.8,31.8-25.6,28.2c-39.7-5.5-78.1,3-114.7,19.8c-12.9,5.9-19.2,14-20.8,28.9
			c-1.8,16.1,8.4,19.9,18.6,25.8c28.4,16.4,53.5,37,74.5,62.2c5.8,7,20.4,15.5,3.2,25c-12.4,6.9-23.1,29.6-41.3,6.6
			c-14.8-18.7-33.3-33.7-53.4-46.3c-9.1-5.7-18.1-16.3-30-1c-10.4,13.5-7.1,20.8,4.2,31.3c39.6,36.6,69,80.6,89.1,130.7
			c3.9,9.8,10.5,21-7.7,22.9c-13,1.4-28.6,21.9-38.5-4.5c-14.4-38.4-36.4-72.2-64.9-101.3c-12.8-13.1-22.5-31.4-47.8-28.3
			c-14.2,1.7-11.5-18-16.7-27.7c-4-7.5-1.5-13.2,6.5-19.5c72.9-57,77-143.6,10.5-208.2c-42-40.8-93.5-60.3-150.4-68.8
			c-69.7-10.4-139.8-6.7-209.6-4.5c-92.1,2.9-180.3-10-264.8-47.6c-87.1-38.7-173.3-22.8-259,7.2c-69.5,24.4-137.5,53.7-211.1,65.1
			c-52.4,8.2-103.9,5.7-154.5-11c-95.7-31.6-153.8-135.1-123.4-221.4c3.4-9.6,2.4-31.6,22-22.1c13.3,6.5,36.5,8.8,25,38.6
			c-18.7,48.5,12.1,116.4,58.6,141.9c11.8,6.5,18.3,6.7,17.8-9C360.5,1640.6,364,1624.6,370.6,1608.8z"/>
		<path class="st0" d="M1488.1,1147.9c-37-17.6-59.1-2.2-72.1,37.6c-6,18.5-24.5,30.7-42.8,39c-62.3,28.3-126.9,25.6-190.2,7.1
			c-35.7-10.4-54.5-41.2-59.2-78.1c-2.6-20.6-10.1-26.1-31.9-25.1c-89.3,4.1-162.8-48.5-180.2-125.5
			c-24.8-109.8,54.8-209.8,173.4-213c74.2-2,140.3-21,200.3-65.7c49.7-37,101.7-70.8,164.7-82.7C1584,616,1719.4,706.3,1745,838.7
			c27.8,143.7-60.4,276.3-201,301.7C1526.6,1143.5,1508.9,1145.1,1488.1,1147.9z M1700.2,891.4c-0.2-129-111.5-222.6-239.3-201.7
			c-46.1,7.5-85.3,30.1-121.5,57.5c-77.7,58.8-162.5,92.3-261.8,92.9c-73.9,0.5-124.7,61.5-120.5,132.9
			c3.6,61.6,63.3,111.3,129.1,107.6c20.7-1.2,38.4-4.6,41.6-31c1.9-15.9,13.5-28.1,25.1-39.1c26.9-25.5,61.4-30.4,95.8-33
			c79.6-6,153.3,28.6,179,97c5.2,13.7,16,16,27.6,18.2C1584.3,1117.4,1700.4,1021.8,1700.2,891.4z M1267.5,1193.7c0,0.3,0,0.5,0,0.8
			c16.7-0.9,33.6-0.4,50-3.1c31.7-5.3,59.3-18.6,67-53.4c7.8-35.1-4.1-65.1-33.5-85.4c-48.6-33.6-101.1-33.3-154.6-12.7
			c-11.7,4.5-20.4,13.6-22.8,25.6c-13.7,68.4-10.8,138,87.9,128.2C1263.5,1193.5,1265.5,1193.7,1267.5,1193.7z"/>
		<path class="st0" d="M1706,2258.6c0.8,15.4-14.6,11.9-23,15.6c-7.6,3.4-19.3,11.2-24.6-3.5c-20.6-56.5-54.6-103.6-97.8-145.1
			c-17.4-16.7,9.2-23,13.5-34.9c3.1-8.6,9.6-10.3,18-2.8c50.7,45.5,88,99.9,112,163.6C1704.7,2253.3,1705,2255.3,1706,2258.6z"/>
		<path class="st0" d="M719.3,1501.1c-33,0.7-39-7.7-27.9-38.7c8-22.4,19.6-42.5,35.5-60.1c5.2-5.8,11.3-17.8,20.3-6.1
			c8,10.4,30.5,17.1,19.9,33.5c-13.3,20.6-27.5,40-33.7,64.1C731.6,1500.9,725.4,1501.5,719.3,1501.1z"/>
		<path class="st0" d="M411.6,1582.9c-34.7-1.6-37.4-5.6-27.3-38.6c4.9-16,11.2-31.8,21.9-44.3c7.2-8.5,11.2-30.7,29.3-16.9
			c13.7,10.4,35.1,22.1,11.4,44.9c-11.3,10.9-15.3,27.2-18.6,42.4C426,1581.4,422.2,1586.3,411.6,1582.9z"/>
		<path class="st0" d="M524,1390.3c-5.9,7.5-10.8,13.4-15.3,19.6c-7.6,10.3-17,19.8-22,31.2c-10.9,24.8-24,16.8-41.3,7.3
			c-23.9-13.1-6.1-24.2,0.2-34.8c8-13.4,17.8-25.9,28-37.8c5-5.9,8.4-19.5,19.1-13.2C504,1369.3,513,1380.3,524,1390.3z"/>
		<path class="st0" d="M871.2,1292.5c7.6,8.8,17.2,18.5,25.1,29.4c7.2,9.9-5.4,12.5-9.1,18.2c-4.8,7.3-11.3,13.4-16.4,20.5
			c-12.7,17.7-37.4,19.8-50.9,4.1c-1.2-1.4-2.5-3-2.9-4.7C814.1,1349.5,858.5,1291.6,871.2,1292.5z"/>
		<path class="st0" d="M589.5,1302.2c-13,14-23,33.9-40.1,36.8c-13.9,2.4-32.8-17.4-31.1-28.5c2.6-16.6,20.1-34,36.5-37.4
			C567.9,1270.4,579.3,1289,589.5,1302.2z"/>
		<path class="st0" d="M2770.3,879.4c0.6,45.6-4,90.6-13.3,135.1c-17.5,83.5-81.4,147-151.7,151.9c-54.3,3.7-88.1-19.8-102.5-72.1
			c-14.4-52.2-21.4-105.9-31.4-159c-6.2-33.1-16.4-39-48.5-27.4c-36.9,13.3-67.7,34.9-89.8,68.4c-19,28.7-37.5,57.8-60.3,83.8
			c-43.2,49.1-95.2,77.8-161.5,61.1c-67.9-17.2-109.1-65.2-127.8-131c-15.2-53.2-11.1-107.5,5.3-160c49-156.9,136.9-287.4,270-384.8
			c72.2-52.8,153.4-79.8,244.6-63c63.9,11.7,114.6,45.4,155.2,95c69,84.3,93.5,184.9,104.2,290.1
			C2766.4,804.6,2767.8,842,2770.3,879.4z M2718.3,841.2c-2.2-69.9-11.3-156.6-43.3-239.9c-64.9-168.9-219.8-225.6-369.2-127.4
			c-145,95.3-235.6,232.4-276.5,401.2c-13,53.6-9,106.8,26.7,151.9c42.2,53.4,103.5,71.4,162.1,17.9c31.1-28.4,52.1-64.1,75.3-98.2
			c28.4-41.6,66.5-69.6,113.4-85.6c64.9-22.2,102.6,1.1,114.1,67.9c8,46.5,16,93.1,26,139.2c10.6,49.2,41.6,63.2,87.5,40
			c43.9-22.2,64.4-62.4,75-107.9C2720.2,954,2721.4,906.7,2718.3,841.2z"/>
		<path class="st0" d="M837.6,2227.8c-9.4,11.4-16.7,22-25.8,30.9c-11.2,11-23.1,21.5-35.9,30.6c-28.6,20.2-30.6,18.7-43.7-13.5
			c-4.3-10.6-3.4-16,6.4-21.2c20.3-10.9,36.7-26.7,50.3-45c5.5-7.5,10-11.5,18.6-4.9C817.1,2212.1,829.6,2216.1,837.6,2227.8z"/>
		<path class="st0" d="M954,2088.3c-8.1,23.7-19.1,46.1-37.2,62.8c-10.3,9.5-16.9-5.4-23-11.3c-5.9-5.6-20.8-9.3-11.5-22.3
			c9.8-13.7,16.6-28.8,25.2-43c8.5-14,20.9-2.8,31.5-0.4C946.9,2075.9,954.8,2077.5,954,2088.3z"/>
	</g>
</g>
</svg>
