<?xml version="1.0" encoding="utf-8"?>
<!-- Generator: Adobe Illustrator 23.0.0, SVG Export Plug-In . SVG Version: 6.00 Build 0)  -->
<svg version="1.0" xmlns="http://www.w3.org/2000/svg" xmlns:xlink="http://www.w3.org/1999/xlink" x="0px" y="0px"
	 viewBox="0 0 3000 3000" style="enable-background:new 0 0 3000 3000;" xml:space="preserve">
<style type="text/css">
	.st0{stroke:#000000;stroke-width:10;stroke-miterlimit:10;}
</style>
<g id="Layer_1">
</g>
<g id="Layer_2">
	<g>
		<path class="st0" d="M2951,1627.6c0.7,169.8-10.6,338.1-76.3,497.6c-101,245-283.4,404.2-527.3,497.9
			c-67.3,25.8-136.6,44.1-207.9,55.4c-28.3,4.5-54.7,21-83.7,19c-95.2-6.7-190.3,4.8-285.6-0.8c-223.5-13.2-445.9-38.6-668.5-61.1
			c-97.1-9.8-193.8-14.8-287.7,20.9c-51.8,19.6-103.5,38.4-159.3,45.5c-165.7,21-363.1-143.7-322.6-339.4
			c18.9-91.3-10.7-141-104.2-175.8C141,2154.5,82.3,2097,61.5,2006.8C40,1913.3,47.9,1820.5,88,1732.7
			c35.5-77.7,72.8-154.2,86.1-240c24.4-157.5,13.9-311.3-40.5-462c-42.6-117.9-46-239.7-23-361.6c16.7-88.6,85.7-146,180-150.5
			c132-6.3,244.2,34.9,322.2,148.3c37.8,55,80,106.4,128.8,152c32,29.9,43.4,28.5,65.1-10.1c13.6-24.2,25.1-49.7,36-75.3
			c57.1-133.2,154.6-226.9,281.3-294c152.6-80.8,313.9-118.8,487-118.2c175.8,0.6,345.9,21.1,506.1,97.9
			c45.5,21.8,89.2,46.6,131.2,74.5c9.7,6.5,17.9,9,29.7,4.2c205.2-84.3,391.1,34.5,452.8,216.3c26.7,78.5,60.5,153.2,92,229.3
			c81.7,197.4,124.8,402.9,128.2,616.5C2951.3,1582.6,2951,1605.1,2951,1627.6z M572.2,2099c-4.2-21.3-8.8-40.1-5.9-58.8
			c3.1-20.5-5.3-22.7-23.5-22.3c-49.3,0.9-98.8,5.6-148-4.5c-88.4-18.2-144.8-72.7-155.2-153.7c-5.2-40.9,4-80.6,17.3-119.1
			c38.8-111.6,68-225.1,72-344.1c5.6-165.9-29.8-322.9-97.6-473.6c-29.2-64.9-53.2-131.6-55.2-204.2c-1-34.7,5.7-68.4,11.5-102.6
			c-17.7,14.9-26.9,34-31.1,55.2c-22.2,111.2-19.9,222,14.9,330.2c22,68.6,43.1,136.6,51.9,208.7c21.4,173.6,5.2,340.7-74.9,498.8
			c-23.6,46.6-42.8,94.5-48.7,147.5c-12.8,114.4,2.8,241.5,158.7,295.2c101.6,35,135.5,107.3,119,216
			c-19.8,130.7,60.8,250.4,189,282.7c68.2,17.2,132.5,2.9,194.6-22.8c105.3-43.6,214-51.9,325.7-38.2c24.9,3.1,51.6,10.4,74.8,4.9
			c51.5-12.4,100.5-33.3,142.3-67.6c95.7-78.8,143.2-177.2,115.9-302.2c-21.3-97.4-80.7-162.6-173.9-200.8
			c-106.7-43.8-137.5-95.6-133.6-210.8c1.4-42.2,5.3-84.3,8.5-126.5c6.9-91.7-34-146.7-119.4-158.5c-24-3.3-48.3-4.8-72.6-5.3
			c-103.5-2.3-206.9,1.3-310.3,6.8c-16.4,0.9-24.9-1.2-25.2-20.6c-0.3-18.4,4.5-25,23.8-25.1c44.1-0.2,88.1-4.4,132.1-4.3
			c19.9,0.1,27.9-6.5,32.9-25.2c23.9-91.1,49.1-181.9,73.8-272.7c8.6-31.7,10.6-63.5,4.7-96c-14.2-77.6-56.8-139.7-110.6-193.7
			c-64.1-64.4-127.1-129.2-178.7-204.4c-64.7-94.4-160.3-124.3-269-125.2c-20.7-0.2-35.4,9.4-46.7,26.6
			c-33.4,51-39.6,107-31.2,165.7c8.9,62.1,34,119,58.7,175.7c95.3,218.4,116.5,443.6,61.5,675.1c-15.1,63.7-39.4,125.2-55.2,188.7
			c-23,92.7,23.6,159.8,117.8,176.1c29.4,5.1,58.9,5.7,88.7,5.1c45.1-0.9,89.9-7,135.4-5c136,5.9,253.1,49.3,339.1,160.6
			c15.9,20.6,34.1,39.7,53.3,57.2c34.6,31.5,72.8,56.5,122.9,51.5c24.6-2.4,17.4,16.8,20.8,29.2c5.2,19.1-9.9,15.4-19.1,16
			c-47.6,2.8-95.2,6.4-142.8,6.9c-101,1.2-196-21-282.3-76.1c-30.2-19.3-62-36.4-94.1-52.4c-40.7-20.3-83.8-25.3-128.6-15.1
			c-43.5,9.9-83.3,28.9-120.9,51.7c-20.4,12.4-22.6-0.7-31-12.4c-10.7-14.8-5.3-20.5,8.5-27.9C423.9,2123.1,491.7,2090.5,572.2,2099
			z M1266.8,2604c73.6,16.2,605.3,63.9,654.3,45.3c-1-2.4-1.6-5.1-3.1-7c-61.2-80-63.8-143.1-7.4-229.4c10.7-16.4-2.3-15.6-9.9-19.1
			c-50.4-23-84.5-60.3-99.8-113.7c-23-80.2,8.9-151.4,92.1-205.8c-71.3-51-103-119.1-76.4-204.1c25.4-81.1,87.3-119.4,171.2-123.5
			c-0.4-3.6-0.2-6.4-1.2-8.8c-31.5-82.3-0.9-161.1,54.5-204.1c58.6-45.4,146.2-52.9,213.5-2.8c12.4,9.3,14.8,5,19.1-7.6
			c29.4-85.7,94.6-130.1,185.1-125.4c16.8,0.9,28.6-3.2,40.7-14.6c53.4-50.4,98.3-107.1,133.3-171.9
			c90.4-167.6,106.9-338.9,27.8-515.4c-57.8-129-174.6-189.1-310.4-157.3c-160.8,37.6-254.4,147.5-307.7,296.6
			c-33.8,94.6-22.1,193.8-23,291.6c-0.1,13.7,7.9,10.4,16.2,8.9c24.8-4.3,49.5-9.5,74.5-11.8c65.6-6,129.8-1.5,186.7,36.7
			c38.9,26.1,65.1,61.6,73,108.8c1.6,9.3,1.9,20.1-11.7,18.3c-11-1.4-26.9,12.7-32.3-10.3c-15.3-65.9-63-95.1-125-106.3
			c-51.4-9.3-102-1.4-152.7,7.4c-20.5,3.6-31.5,10.3-31.5,33.8c0,21.3-4.6,42.9-9.2,64c-26.2,119.4-87,208.6-213.6,237.3
			c-64.9,14.7-130.5,10.8-196.1,3.7c-12.6-1.4-23.9-5.1-33.1,12.5c-70,134.7-185.2,200.2-333.6,213.4c-22.9,2-53.6-11.2-66.6,5
			c-12.2,15.2-6.9,44.7-8.4,68c-5.3,85.8,20.7,128.2,99.1,162.8c35.3,15.6,70.8,30.8,101,55.9c133,110.6,154.4,310.4,48.4,452.3
			C1368.2,2536.4,1321.7,2573.6,1266.8,2604z M864,1327c13,0,23.7,0.2,34.5,0c125.1-2.2,250.1-1.8,375.2,1.3
			c53,1.3,106.3,0.8,158.8,9.9c57.4,9.9,111.9,32.3,131.6,89.8c13.8,40.4,35.3,49.6,70.8,48.2c0.9,0,1.8,0.2,2.7,0.3
			c46.8,3.5,93.6,4.6,139.8-4.7c103.2-20.8,157.5-89.8,182.3-187.2c21.2-83.2,15.2-167.9,14.1-252.3c-1.1-87,6-172.7,41.8-253.4
			c12.3-27.7,26.9-54.3,40.7-81.8c-21.5-7.7-43.8-4.3-64.6-9.7c-17.7-4.6-24.1,0.3-29.1,18.8c-23.9,88.1-101.4,153-183.5,153.6
			c-15.8,0.1-22.5,5.3-28.4,17.5c-11.8,24.7-28.7,45.8-49,63.9c-39.8,35.4-83.6,64-139.8,59.8c-85.7-6.4-150.3-95.3-134.2-184.5
			c3.1-17.2,0.8-25.5-15.5-33.1c-32.9-15.4-54.7-42.4-72.1-74c-7.3-13.3-1.8-37.5-20.1-39.1c-14.1-1.3-30.1,10.1-44.2,17.8
			c-105.5,58-180.7,139.5-194.8,264.1c-2.5,22.5-9.9,25.5-28.7,25.5c-24,0.1-17.3-16.1-16.1-28c1.8-18.7,3.9-37.8,9.4-55.7
			c42.4-139.4,139.6-225.6,273.2-272.8c136.2-48.1,276-39.5,416-19.9c110.3,15.4,219.3,39.9,330.6,49.2c10.2,0.8,21.7,6.4,30.5-3.7
			c37.5-43.3,80.2-80.8,132.3-112.4c-13.9-8.9-24.3-15.7-34.9-22.2c-144.6-89.4-302.3-134.3-471.6-143.5
			c-200-10.9-392.4,10.6-572.3,108.1c-122.1,66.2-216.7,155-270.1,285.6c-16.7,41-31.8,84.7-70.3,112.9c-9.9,7.2-1.1,12.4,2.9,17.3
			c20.6,25.1,39.3,51.4,55,79.9c40.5,73.1,54.2,149.5,29.9,231.2C884.9,1243.6,875.2,1284.5,864,1327z M2062.2,2081.2
			c3.5,3.1,6.6,6.2,10,8.8c84,65.3,99.1,162.6,37.3,249.7c-11.3,15.9-3.2,17.8,8.5,23.2c79.9,37.2,118.9,115,101,199.2
			c-4.2,19.9-14.6,37.4-23.6,60.2c225-56,412.1-161.9,548.1-349.1c15.7-21.6,10.7-31.2-9-43.5c-60-37.4-141.2-30.5-206.8,19.4
			c-18.6,14.1-35.8,30.2-55.2,43.2c-89.6,60.3-207.8,9.8-227-96.6c-23.3-129.2,60.6-273.1,190.8-322.7
			c129.5-49.3,243.4-15.5,345.1,71.6c27.1,23.2,52.4,48.5,81.1,75.3c29.9-97.2,38.7-194.1,42.9-299.3
			c-48.1,63.9-104.7,92.7-177.5,83c-72.8-9.6-118-54.3-145.9-120.8c-80.7,78.2-166,83.2-257.2,22c-26,90.4-85.7,138-178.7,142.9
			C2176.2,1958.6,2153.5,2021.5,2062.2,2081.2z M2784.4,2208.3c6.9-12.5,12.9-25.7,21-37.4c13.8-19.9,7.1-30.1-12.3-41.5
			c-130.6-76.6-298.1-49-395.4,68.8c-17.2,20.9-25.5,7.7-38.5-0.2c-20.7-12.6-2.6-21.4,3.6-29c106.7-131.4,294.8-165.2,447.3-81.7
			c8,4.4,17,21,28.5,5.7c10.2-13.6,4.8-25.8-6.5-37.6c-31.2-32.5-63.1-64.3-98.6-91.9c-65.8-51-138.9-76.9-223.8-64.3
			c-132.8,19.6-237,149.6-221.2,278.2c7.7,63,52.7,100.3,115.1,94.7c28.4-2.5,49.4-19.8,70.1-37.4
			C2578.5,2145.7,2665.9,2138,2784.4,2208.3z M2760.4,921c-4.2,84.8-21.9,165.9-55.2,243.6c-38.3,89.3-89.6,169.8-160,237.6
			c-5.1,4.9-23.1,10.8-7.2,21.7c35.2,24,59.5,56.2,75.4,97.7c41.5-45.2,89.4-67.5,148.1-64.8c59.4,2.7,104,32.5,143.8,83.4
			C2898.3,1318.9,2850.1,1115.6,2760.4,921z M1486.9,1571c14.9-20.8,27.9-37.7,36.2-58c16.2-39.5,9.3-71.4-23.2-98.8
			c-23.5-19.7-51.3-29.9-81.4-32.6c-123.8-11.4-247.9-10.2-372-11.7c-33.5-0.4-32.5,23.8-36.1,42.8c-7,37.5,4.9,70.6,23.2,75.8
			c0.8,0.2,1.8,0.1,2.7,0.3c30.9,6.3,58,21,79.2,43.5c13.7,14.6,18.8,16.3,32.8-0.8c50.2-61.6,116.3-81.1,193.3-64.6
			C1403.8,1480.1,1450.4,1516.3,1486.9,1571z M2752.4,1760.5c72.9,0,130.5-56.8,130.7-129.1c0.2-71.9-57.6-129.9-129.9-130.4
			c-73-0.5-133.4,59.2-132.6,131C2621.4,1704,2679.2,1760.4,2752.4,1760.5z M2441.3,1700.6c74.6,0.5,133.6-56.7,133.3-129.3
			c-0.3-71-59.5-129.4-131.3-129.6c-71.8-0.2-131.2,57.9-131.9,128.9C2310.7,1642.2,2368.6,1700.1,2441.3,1700.6z M2019.2,1670.7
			c-5.6,73.7,71.3,130.2,130.5,130.8c72.3,0.7,131.3-57.7,131.9-129.3c0.5-71.8-57.6-129.7-130.7-130
			C2077.4,1541.7,2019.6,1598.2,2019.2,1670.7z M1984,2051.4c73.3,0,130.5-56.9,132-128.6c1.5-74.2-72.4-129.9-132.2-130.1
			c-71.9-0.3-131.4,59-131.3,130C1852.5,1994.5,1910.7,2051.4,1984,2051.4z M1971.2,2103.6c-73.4-0.3-131.1,56.1-131.5,128.6
			c-0.4,69.9,57.4,130.6,124.4,130.8c78.1,0.2,137-55.3,137.2-129.4C2101.5,2160.8,2044.6,2103.9,1971.2,2103.6z M2031.9,2645.7
			c101.1-5.9,150.1-49.1,145.9-128.6c-3.6-69.4-65.3-131-128-123.2c-86.4,10.8-134.9,47.7-132.9,140.1
			C1918.3,2597.3,1984.5,2656.8,2031.9,2645.7z M1019.2,2244.4c-35.4-29.6-64-59.1-89.1-91.3c-75.9-97.1-179.4-132.8-297.6-137.4
			c-6-0.2-12.2-1.9-17.3,4.2c-13.1,15.8,0.3,87.1,19.6,95.4c52.3,22.3,98.6,55.1,148.4,81.8
			C855.5,2235.7,932.9,2248.3,1019.2,2244.4z M1211.1,1698.6c85.3-1.4,161.7-27.8,228.6-81.4c9.7-7.8,14.2-13.6,6-25.9
			c-39.2-58.7-93.7-88.2-163.9-84.5c-40.1,2.1-72.5,22.2-99.7,52.4c-24.7,27.4-25.6,57.1-17.4,90c2.1,8.5,2.3,18,1.2,26.8
			c-2.1,16.8,5.6,22.9,21,22.7C1195,1698.5,1203,1698.6,1211.1,1698.6z M1765.8,814.7c71.7,0,134-48,153.2-117.3
			c3.4-12.2,4.7-20.3-11.5-22.8c-66.5-10.3-133-21.1-199.4-32.2c-14.7-2.5-22.9,1.2-27.3,16.8c-7.4,26.2-20.6,50.2-39,70.1
			c-12,13-7.6,21.2,2.1,31.2C1677.4,795,1717.2,814.8,1765.8,814.7z M1712.4,853.5c-44.8-13.9-81.7-37-109.8-72.7
			c-5.9-7.5-11.2-6.6-18.3-2.6c-29.6,16.7-61.7,24.2-95.6,24.7c-8.3,0.1-12.9,3.1-15.1,11.8c-10.6,43,1.9,79.5,30.8,111.5
			c25.6,28.4,58.4,36.9,93.3,25.8C1648.3,935.8,1686.3,902.7,1712.4,853.5z M1554.6,630c-55.9-0.3-111,6-165.7,17
			c-14.9,3-19.5,8.3-14.5,23.6c14.5,44.8,43.1,74.7,89.5,83.8c73.5,14.5,148.2-31.2,172.4-102.3c4.6-13.4,1.5-17.8-11.8-18.3
			C1601.2,632.8,1577.9,631.3,1554.6,630z M968.7,1477.6c-5.1-32-8.7-62.9,2-93.4c3.9-11.2-2.1-13.7-12.2-13.6
			c-31.4,0.6-62.7,0.8-94.1,0.8c-9.4,0-14.7,3.7-17.1,13.2c-6.7,25.9-13.8,51.7-21.2,77.5c-3.4,11.8,0.2,15.8,12.6,15.7
			C881.6,1477.3,924.5,1477.6,968.7,1477.6z"/>
	</g>
</g>
</svg>
