<?xml version="1.0" encoding="utf-8"?>
<!-- Generator: Adobe Illustrator 23.0.0, SVG Export Plug-In . SVG Version: 6.00 Build 0)  -->
<svg version="1.0" xmlns="http://www.w3.org/2000/svg" xmlns:xlink="http://www.w3.org/1999/xlink" x="0px" y="0px"
	 viewBox="0 0 3000 3000" style="enable-background:new 0 0 3000 3000;" xml:space="preserve">
<style type="text/css">
	.st0{stroke:#000000;stroke-width:10;stroke-miterlimit:10;}
</style>
<g id="Layer_1">
</g>
<g id="Layer_2">
	<g>
		<path class="st0" d="M1958,2011.6c-25.4,1.8-46.5,3.5-67.6,4.9c-149.6,9.9-298.5-1.6-447.4-13.7c-34-2.8-68-5.4-102-8.7
			c-81.6-8.1-148.6-47.2-209.2-99.4c-80.4-69.4-170.6-119.2-276.7-135.2c-219.6-33.2-394.8,43-528.9,217.9
			c-7.1,9.2-9.9,22.3-27.9,10.5c-18.4-12-18.9-19.5-6.5-36.8c194.7-271.7,576.5-323.4,837.6-113.1c41.7,33.6,81.9,69.6,132,91.6
			c47.1,20.6,97.3,24.7,147.3,28.4c144.7,10.9,289.3,23.3,434.7,18.1c47.8-1.7,95.3-6.3,143-10.5c12.8-1.1,19.7-7.7,27-16.4
			c29.4-34.8,60.8-67.3,104.3-84.5c10.6-4.2,11-10.3,9.8-19.8c-14.6-108.6,1.5-212.4,48.7-311.3c18.7-39.2,39.8-77.6,47.6-121
			c7.4-40.8,2.1-78.4-34.2-105.6c-8.4-6.3-17.8-11-28.1-11.4c-27.6-1.1-39.7-11.4-43.6-39.1c-7.6-53,32.4-95.6,94.6-100.6
			c23.8-1.9,47.7-2.5,71.4-5.1c36.8-3.9,58.9-21.2,59.9-45.1c1.1-25.8-24.5-54.6-55.4-62.5c-35.2-9.1-69.8-2.5-103.7,6
			c-15.5,3.9-23-1-31.4-12.2c-35.3-46.9-31.3-119.1,9.8-171.5c35.1-44.8,83.3-69.7,134.9-89c28.5-10.7,57.8-19.2,87.3-32.7
			c-36.5-5.4-72.9-11.1-109.5-16.3c-197.2-28.2-395.1-45.7-594.5-37.4c-269.3,11.3-524.6,72.3-756.4,215.9
			c-129.9,80.5-232.2,189-321.6,311.5c-59.9,82.1-122.2,162.5-204.9,224c-59.8,44.4-124.9,76.4-200,85.4
			c-14.4,1.7-19.1-3.1-18.5-15.7c0.4-10.2-9.8-25.2,11.2-27.2c89.4-8.5,159.8-55.2,225-112.2c25.7-22.5,48.4-47.8,71.4-76.2
			c-10-3.5-17.5,0.5-25.2,1.9c-146.6,27.8-266.7-17.6-356.9-135.3c-61.1-79.6-65.5-166.1-22.1-257.5
			C169.7,723,389.8,620,589.5,679.2c119.2,35.3,186.2,117.3,202.6,240.5c0.9,6.6,2.1,13.2,3.1,19.2c8.6,4.2,12.2-2.3,16.4-5.5
			C992.9,794,1200.1,715.3,1423,674.7c204-37.1,409.3-35.3,615-17.7c172.6,14.7,343.9,39.9,514.3,70
			c88.8,15.7,174.9,44.1,241.9,111.2c73.6,73.6,115.7,163.3,139.2,263.2c23.9,101.4,24.3,204.9,25.8,308
			c1.8,122.9,3.2,245.9-22.2,367.2c-44.2,211.4-174,352-365.4,441.6c-144.7,67.7-299,98.2-456.5,115.8
			c-241.7,27-483.9,24-726.3,11.8c-120.2-6-240.6-7.8-360.2-22c-136.1-16.1-264.1-53.3-370-146.3c-40.8-35.8-73.2-78.2-98.8-129.2
			c-48.1,66.5-94.4,130.6-140.9,194.6c-19.7,27-39.6,53.8-75.2,61.8c-31.5,7.1-60.4-9.6-69.4-40.7c-6.3-21.7-5.8-44-4.7-66.1
			c1.3-26.8-10.8-43.8-34.5-53.9c-8.6-3.7-17.1-7.6-26-10.6c-72.6-24-112.2-75.9-122.1-149.7c-8.9-66.8-13.2-134.2-0.6-201.4
			c17-90.7,73.2-140.8,165.3-151c48.4-5.3,97.4-0.5,145.5-9.3c52.1-9.5,100.9-25.9,137.9-66.5c49.1-54,42.8-134.7-14.2-177.3
			c-18-13.4,0-24.1,2.4-35.1c3.1-14.5,13.5-4.4,19.8-1.2c53.8,27.9,81.3,102.9,61.6,172.4c-21.8,76.8-80.2,114.8-151.6,138.3
			c-58.7,19.4-119.7,17-180,20c-91.5,4.7-137,45.7-147.7,137c-7.7,65.8-5.6,131.1,10.8,195.6c9.7,38.2,32.5,64.7,69.2,79.8
			c24.3,10,49.7,18.1,71.1,34.2c15.7,11.7,14.9-5.3,17.6-11.3c26-58.3,61-110.4,104.8-156.6c135-142.3,335.9-186.1,508.9-110.4
			c50.6,22.2,94.8,54.7,134,92.8c99.9,97.3,220.8,146.2,357.6,158.3c111.4,9.8,223.1,16.3,335,6.2c71.2-6.4,140.5-19.1,199.3-64.1
			c5.4-4.1,10.8-8.4,16-12.8C1951.6,2019.9,1952.9,2017.7,1958,2011.6z M2302.5,1890.5c64.8,62.3,56.6,132,30,203.8
			c-9.8,26.3-20.7,52.2-30.6,78.5c-8.8,23.3-15,47.1-12.6,72.4c1.3,13.7,6.4,18.3,21.6,14.7c83.1-19.8,164.5-44.3,242.4-80
			c229.9-105.4,345-287.2,359.4-536.8c7.4-128,6.1-256-0.8-383.9c-5.5-103-24.1-203.2-75.3-294.7
			c-52.6-94.2-128.2-158.5-235.9-180.3c-66.3-13.4-132.5-9.9-198,5.1c-59.2,13.6-117,31.7-167.7,66.7c-40.9,28.3-66.4,65.5-62,118.3
			c2,23.6,11.5,32.8,36.3,27c35.5-8.3,71.3-7.4,105.8,5.9c44.8,17.3,73.8,61.1,70.5,105.3c-2.9,39.2-35.1,69.2-85.3,79
			c-17.6,3.5-35.3,6-53.4,5.3c-17.2-0.6-34.2,1.2-50.7,5.9c-14.2,4.1-27.2,10.5-33.1,25.7c-5.1,13.2-7.8,22.5,12.4,26.8
			c42.6,9,70.3,37.4,84.6,77.8c10.7,30.3,10.7,61.9,4.3,93.4c-10.9,54.2-40.1,101-61,151.2c-33.9,81.3-45.7,165.6-35.1,252.9
			c1,8.2-1.6,20.1,14,19.1c15.2-0.9,30.4-0.2,45.3-0.2c-20.4-76.2-2.9-131.6,64.1-178.8c85.6-60.3,182.8-82.8,286.5-72.2
			c62.7,6.4,115.2,35.3,153.9,86.5c71,94,69.8,231.7-2.7,330.1c-71.9,97.6-206.3,140.6-317.4,102c-11.6-4-15.6-7.8-12.9-21.4
			c8.5-41.7,17.8-83.4,11.8-126.7C2402.6,1907.7,2366.8,1880,2302.5,1890.5z M1744.1,2146.6c10.1,0,20.2,0.1,30.3,0
			c102.4-0.7,204.9-1.2,307.3-2.3c14.5-0.1,22.7,0.8,23.4,19.7c0.9,23-9.9,23.9-27.4,24c-361.1,1.7-722.2,3.6-1083.3,6.1
			c-19.1,0.1-24.7-5-24.7-24.2c-0.1-21.3,11.4-20.4,26.1-20.4c207.9,0.2,415.8,0.1,623.7,0.1c-71.6-2-142.8-8-214-14.4
			c-132.1-11.7-254.4-49-355.8-139.1c-10.8-9.6-22.2-10.5-35.2-10.7c-127.2-1.5-254.3-3.5-381.5-4.8c-18-0.2-27.8-2.9-27.1-25.3
			c0.7-22.2,13-19.3,26.8-19c107.5,1.8,215.1,3.4,322.6,4.9c7.1,0.1,15.1,3.3,21.5-2.8c0.1-5.6-4.3-7.3-7.4-9.8
			c-93.8-73.6-200.3-97.5-315.7-73.1C502,1887.7,401,1983.7,336,2120.7c-7.6,16-12.6,31.2-36.8,19.7c7.9,18.7,12.4,34.2,12.9,50.6
			c0.5,16.2,0.1,32.4,1.2,48.5c1.8,25.4,14.4,30.9,35.7,16.6c13.8-9.2,23.6-22.1,33.1-35.2c40.9-56.7,81.6-113.5,122.6-170.2
			c21.7-30,43.8-59.7,65.7-89.5c3.4,2.6,4.4,3,4.6,3.6c2.4,6.4,5,12.7,6.9,19.2c22.7,77.7,70.3,137.3,134.1,185.1
			c85,63.8,183.1,94.1,286.4,108c172.5,23.2,346.6,23.5,520.1,31.2c153.6,6.8,307.2,5,460.6-5.1c83.5-5.5,166.5-15.1,249-28.7
			c7.8-1.3,19.4,1.5,16.5-15.2c-7.4-42.8,5.5-82.7,20.6-122c12.8-33.4,28.6-65.7,36.6-100.7c15.3-67.2-17.6-123.7-81.8-140.3
			c-27.1-7-54.1-5-80.6,4.2c-43.9,15.3-74.9,46.5-101.6,82.7c-53.5,72.5-121.4,123.7-210.6,143.9
			C1802.3,2133.7,1773.2,2139.2,1744.1,2146.6z M101.4,988.1c-8.3,50.7,1.7,94.7,30.6,138.2c84.2,126.7,241.3,170.1,389.5,108.3
			c16.1-6.7,28.4-15.8,39-30.1c54.9-75.1,112-148.5,181.2-211.3c6.9-6.3,10.1-12.9,10.3-22.1c1.7-69-15.2-131.7-62.6-183.8
			c-26.4-29-57.7-50.5-98-61.9c46.9,165.6,7.8,287.6-111.6,354.5C346.5,1154.5,226.8,1125.9,101.4,988.1z M358.3,802.9
			c-9.3,0-18.6,0.1-27.9,0c-9.4-0.1-13.6,4.7-14.3,13.8c-1.6,19.4-3.3,38.8-5.5,58.1c-1.2,10.7,2.2,14.2,13.6,15
			c56.9,3.7,57.9,3.3,63.7-52.4c0.1-0.8,0.3-1.7,0.4-2.5C392,801.8,392,801.8,358.3,802.9z M499.8,839.2
			c1.5-42.7,1.5-42.7-39.2-42.1c-4.3,0.1-8.5,0.3-12.8,0.2c-9.4-0.3-13.7,4-14.3,13.5c-1.3,19.5-3.5,38.9-4.9,58.4
			c-0.5,6.5-2.1,15,8.5,14.6c19.4-0.8,41.3,4.9,57.3-6.2C505.9,869.7,498.2,850.6,499.8,839.2z M202.9,858.8
			c-0.6,5-0.6,10.3-1.9,15.1c-5.4,19.2,2.2,22.5,20.5,21.2c44.3-3.1,44.3-2.1,48.5-46.3c1-10.1,2.5-20.2,3.8-30.3
			c0.9-7-1.2-10-9.1-11.4c-47.3-8.6-59.1-0.1-61.6,46.5C202.7,855.4,202.8,857.1,202.9,858.8z M2699.1,1877.2
			c44.4-1.4,44.4-1.5,43.1-38c-1.1-28.9-1.1-28.9-46.1-27.7c-21.5,0.6-30.8,15.9-28.5,53.6
			C2669.3,1891.3,2690.9,1870.2,2699.1,1877.2z M329,994.3c12.9-0.9,23.9-1.9,34.9-2.4c6.7-0.3,10.3-2.5,12.4-9.7
			c12.5-43.5,5-53.3-39.6-50.1c-2.5,0.2-5.1,0.4-7.6,0.6c-24.1,2.1-30.5,13.1-28.7,49.3C301.8,1008,321.2,989,329,994.3z
			 M447.5,989.4c12.1-0.9,22.3-1.8,32.5-2.3c6.8-0.4,9.9-2.9,12-10.1c12.1-42.2,4.3-52.9-38.4-51c-1.7,0.1-3.4,0.1-5.1,0.2
			c-26,1.5-31.4,10.2-29.6,51C420,1002.9,439.6,984.2,447.5,989.4z M2602.4,1816.6c-38.7,1-42.4,6.6-43.4,49.8
			c-0.4,16.7,8.1,14.9,18.9,14.6c45.2-1.2,53.7-9,52-54.5C2628.9,1802.2,2609.4,1823.1,2602.4,1816.6z M219.8,1000
			c11.8-8.2,30.8,7,37.5-13.3c13.1-40,4.1-51.3-36.7-48c-0.8,0.1-1.7,0.1-2.5,0.2c-25.2,2.2-31.2,11.5-27.9,49.5
			C192.2,1011.9,210.7,992.9,219.8,1000z M2676.1,1979.5c25.2-0.4,53.8-28.7,50.8-52.6c-2.1-16.7-18-6.9-26.9-7
			c-44.7-0.3-48.1,4-48.3,46.3C2651.6,1988.8,2668.4,1975.9,2676.1,1979.5z M2479.1,1883.3c35.9-0.4,40.2-7,41.5-51.3
			c0.5-15.4-9-11.2-16.4-11.1c-47.4,0.4-52.2,5.4-52.4,48.5C2451.7,1896.5,2471.9,1877.5,2479.1,1883.3z M2574.9,1980.6
			c33,0,38.5-7.8,39-46.8c0.2-15.9-10.5-10-17.5-9.9c-47.8,0.3-52.7,4.2-52,43.4C2545,1994.8,2567.4,1972.8,2574.9,1980.6z
			 M2569.2,2022.5c-11.1,5.5-30.2-7.6-34.1,12.1c-3,15.2-14,35.3-3.4,46c10.9,10.9,29.9-1.2,44.8-5.6c13.9-4.1,27.5-31.1,21.9-45
			C2592.7,2015.8,2579,2026.6,2569.2,2022.5z M2383.3,1784.8c11.6-7.4,28.9,4.3,36.7-10.6c15.9-30.4,5.4-45.2-28.9-43.1
			c-3.4,0.2-6.8,0.7-10.1,0.6c-33.1-0.9-23.4,26.8-24.5,42.1C2354.9,1794.9,2374.4,1778.1,2383.3,1784.8z M2493.3,1778.8
			c11.6-5.5,27.8,5,34.8-9.7c5.8-12.1,10.3-27.9,4.5-39.6c-5.1-10.4-20.1-2.6-30.7-3.4c-3.4-0.3-6.8,0.4-10.2,0.6
			c-22.2,1.9-31.8,15.4-26.9,43.1C2468.1,1788.9,2484.3,1773.7,2493.3,1778.8z M2601.7,1772.9c39.1-2.9,47.3-8.9,42.2-43
			c-3.3-22.1-24.8-7.6-37.2-7.8c-27.2-0.4-34.2,10.2-32,40.1C2576.6,1787.1,2594.9,1766.8,2601.7,1772.9z M466.9,754
			c7.1-0.5,12.3-1.7,17.3-1.2c26.5,3,22.1-16.7,23.5-31.8c2-20.8-14.4-13.8-24.6-15.6c-4.1-0.7-8.5-0.3-12.7-0.3
			c-26.4-0.1-33.1,7.8-30.8,38.1C441.3,767.9,459.9,748,466.9,754z M2509.3,1683.4c32.3-0.5,44.2-10,37.2-36.4
			c-5.2-19.5-25.4-5.5-38.6-7.7c-4.8-0.8-10,1.7-15,1.9c-10.7,0.4-14,6.2-15.2,16.1C2474.2,1683.4,2474.5,1684,2509.3,1683.4z
			 M353.9,759.7c7-0.6,12.2-0.3,17.1-1.6c8.9-2.3,22.7,4.6,25.2-10.2c1.8-10.5,4-24.8-1.3-31.6c-5.6-7.2-18.6,1.1-28.2,3.8
			c-5.7,1.6-11.4,3.4-16.9,5.6c-13,5.2-31.9,7.8-26.6,27.1C328,769.8,345,755.9,353.9,759.7z M2503.4,1946.6
			c0.8-9,7.9-23.2-10.6-19.9c-15.1,2.7-39.5-9-43.1,10c-2.2,11.6-7.2,40,18.2,45.3C2495.5,1987.7,2499.5,1982.6,2503.4,1946.6z
			 M329.5,1038c-1.5,0-6.7,0.4-11.7-0.1c-14.3-1.3-23.6,0.5-24.4,19.1c-0.9,20,12.4,16.8,23.4,17.8c10.9,1,22.1-0.1,33,0.6
			c21.4,1.4,19.4-14.7,20.2-27.4c1.2-18.3-13.2-10.1-21.7-11.2C343.3,1036.2,338.2,1037.3,329.5,1038z M573.7,841
			c-1.6-13.7-2.8-26.4-4.5-39c-0.9-6.9-5-10-12.3-9.8c-7.4,0.1-10.5,3-11,10.5c-1.3,21.2-2.8,42.4-4.7,63.6
			c-0.9,10.6,4,12.9,13.6,12.5C585.8,877.2,566.7,852.7,573.7,841z M2285.3,1786.7c24.1,5,30.3-8.8,28.6-30
			c-0.6-7.2,9.8-17.7-3.5-20.8c-10.1-2.3-22.6-3.7-30.2,7c-4.9,6.8-8.3,14.6-12.2,22.1C2258.6,1783.2,2261.9,1792.3,2285.3,1786.7z
			 M2476.1,2025.9c-21.4,0.3-28.9,12.8-28.6,46c0.2,18.3,17.4,14.9,24.1,13.6c27.9-5.6,11.6-31.9,18.8-47.9
			C2496.4,2024.1,2483.2,2026.4,2476.1,2025.9z M2407.1,1868.5c8.6-42.3,8.6-42.3-29.3-41.5c-5.1,0.1-10.2-0.1-15.3,0.1
			c-5.7,0.3-12.4-1-13.7,7.5c-1.3,8.2,4.3,10.6,10.4,11.6C2376.2,1849.2,2390.1,1859.2,2407.1,1868.5z M2394,1688.1
			c8.2,0,13.3,0.4,18.4-0.1c7.8-0.8,18.3,2.7,19.4-10.4c0.6-7.4,6.9-16,1-21.8c-6.2-6-13.9,2.5-21.3,3.2c-6.6,0.6-13.4,3.2-19.2,6.4
			c-8.8,4.8-26.6,3.5-22.6,18.3C2372.6,1694.4,2387.7,1686.3,2394,1688.1z M2725.9,1764.5c-2.7-15.4-10.4-27.7-18.3-39.6
			c-4.9-7.4-14.3-11-17.7-1.1c-4.5,13.2-8.5,29.6-4.4,41.7c3.1,9.1,19.9,1.5,30.6,1.6C2719.4,1767.2,2722.5,1765.5,2725.9,1764.5z
			 M2585.9,1677.6c19.9,0,37.6,0.1,55.4-0.1c4.9-0.1,13.4-2.4,8.5-7.6c-13.8-14.6-33.5-22.7-52.3-22.4
			C2583.3,1647.8,2591.4,1666.5,2585.9,1677.6z M471.4,1032.9c-18.3,0-31.5-0.1-44.7,0c-6,0.1-12.6,0.2-13.1,8.3
			c-0.4,6.6-1.8,14.8,1.3,19.6c4.2,6.5,10.6-0.9,15.3-2.8C443.2,1052.6,456.5,1047.1,471.4,1032.9z M535.8,963.5
			c12.2-8.4,14.2-18.7,18.3-27.5c2.1-4.4,7.9-11.6-1.1-14.4c-8.3-2.6-15,0.8-15.7,10.9C536.8,941.7,536.4,950.9,535.8,963.5z"/>
		<path class="st0" d="M1527.1,1221.5c79.5,0,153.5,0,228.2,0c2.7-6.2-4.2-7.4-7.7-9.7c-49.8-33.2-44.1-104.4-7.6-138.1
			c52.1-48.2,114.1-52,177.2-31.6c104.8,33.9,159.2,113.9,180.5,217c33.8,163.9-51.3,342.8-205.3,431.4
			c-159.1,91.6-326.7,91.7-497,36.6c-65.4-21.2-125.7-53-178.1-98.1c-9.9-8.5-16.1-10.6-27.3-0.9c-53.7,46-120.2,62.3-186.6,78.5
			c-17.8,4.4-12.1-10.7-14.4-16.9c-3.5-9.3-9-22,8.5-26.2c21.5-5.2,43.1-10.2,64.2-16.8c42.6-13.3,82.9-30.7,114.3-64.5
			c62.3-67,54.2-151-20.6-204.5c-45.8-32.7-98.6-41.8-153-41.5c-83.1,0.5-162.6,19-236.4,57.4c-19,9.8-24.9,4.9-34.2-11.1
			c-12.2-21,4.7-22.3,15.6-27.8c48.2-24.4,98.8-42.3,152.3-50.6c19.6-3,25.9-9.2,25-30.3c-3.6-83,23.8-155.7,78.8-218
			c8.6-9.7,16.1-18.3,27.9-3.3c8.4,10.6,20.7,15.4,4,33.1c-49.4,52.6-70.8,117.2-69.2,189.5c0.3,14,4.2,19.9,19.1,19
			c38.6-2.4,76.8,1.2,114.2,11.1c12.5,3.3,14.3-1.5,15.2-12c8.9-99.3,55.2-176.1,140-228.6c20.8-12.9,11.6-25.6,2.1-37.8
			c-11-14.1-24.7-26.1-32.1-42.8c-8.8-19.9-13.4-40.6-8.3-62.3c2.4-10.3-2.1-28.7,15.5-25.9c14.8,2.4,33.7,7.3,27,32.8
			c-5.6,21.1,2.6,40.3,17.9,56c5.3,5.5,13.2,10.5,15.1,17.1c10.9,38.7,36.2,32.8,65.6,25.2c36-9.3,72.9-6.8,109,2.1
			C1540.6,1047.7,1607,1131.7,1527.1,1221.5z M1611.9,1721.2c134.7-2.6,257.9-38.2,350.7-143c83.2-94,121.7-203.8,88.6-329.1
			c-23.5-89-76.3-154.3-172.2-172.7c-39.1-7.5-77.3-2.2-107.6,26.6c-29.7,28.2-21.6,66.5,15.9,81.8c20.5,8.4,41.5,15.6,61.6,24.9
			c42.1,19.4,62.2,54.4,65.4,99.4c5.1,70.3-25.9,124.8-85,157.7c-112.6,62.8-234.2,89.6-362.2,61.5
			c-106.4-23.4-174.9-101.3-180.2-196.5c-6.5-117.7,98.3-182.8,186.3-157.1c33.9,9.9,54.4-8.2,47-44c-6.7-31.9-29.5-48.8-59-57.6
			c-140.5-42.1-296.1,73-305.5,225c-1.2,19.9,4.3,31.7,21.5,43.6c78.6,53.9,105.2,144.4,65.2,221.3c-9.4,18-8.1,26.8,8.1,39.1
			C1357.1,1683.3,1478.5,1718.3,1611.9,1721.2z M1604.7,1431c-2.5-0.2-5.2-0.9-7.6-0.4c-12.6,2.8-32.6-13.4-35.8,13.5
			c-1.8,15.1-8.7,33.8-2.5,44.8c8.5,15.2,29.5,5.9,44.1,3.7c14.6-2.2,36.8,6.4,42.5-15.7c9.7-37.9,5.1-42.8-33.1-45.5
			C1609.8,1431.3,1607.2,1431.2,1604.7,1431z M1471.5,1424.8c-42.3-3-44.7-1-44,32.4c0.2,9.3,3.6,13.6,11.6,17.1
			c19.6,8.6,40.1,13.7,60.9,18.2c9.2,2,12.9,0,14.7-10.6C1523.8,1428.5,1524.3,1428.6,1471.5,1424.8z M1483.2,1340.2
			c-8-0.4-18.2-0.7-28.4-1.5c-10.8-0.9-15.8,1.3-18,14.3c-3.8,22.8,2.5,31.2,25.8,28.5c12.5-1.4,25.8-0.9,38.1,1.8
			c27.5,6.1,25.8-13.3,27.3-29.6c2.1-22.6-15.7-10.9-24.9-13.3C1497.5,1339,1491.3,1340.2,1483.2,1340.2z M1609.6,1387.8
			c0-0.1,0-0.1,0-0.2c9.4,0.6,18.7,1.4,28.1,1.9c5.9,0.3,11.3,0.6,14.2-7.2c8-21.4-1-36-23.8-37.3c-13.6-0.8-27.2-1.6-40.9-2.2
			c-6.7-0.3-13.2-1.4-16.4,7.8c-8.2,23.5-1.3,34.5,23.4,36C1599.4,1386.9,1604.5,1387.4,1609.6,1387.8z M1488.4,1296.7
			c0,0.5,0,0.9,0,1.4c11.9,0,23.8,0.5,35.6-0.1c15.1-0.8,9.1-13.2,10.9-21.3c2.2-10.2-2.2-13.4-12.1-13.4c-21.2,0-42.5-0.5-63.7-1.5
			c-12.4-0.6-15.9,5.3-16.6,16.6c-0.8,11.9,2.9,17.3,15.3,17C1468,1295.2,1478.2,1296.2,1488.4,1296.7z M1617.4,1300.8
			c0,0,0-0.1,0-0.1c5.1,0.2,10.2,0.3,15.2,0.8c13.9,1.3,25.5,3.7,26.1-18.5c0.5-21.6-11.9-18.1-24.1-18.5
			c-12.7-0.4-25.5,0.6-38.1-0.9c-18.8-2.2-17,11.4-19.2,22.5c-3.2,16.3,8.7,12.5,17.2,13.1
			C1602.2,1299.8,1609.8,1300.3,1617.4,1300.8z M1822.8,1396.6c23.1,0.5,44.2-14.4,41.9-35.4c-2.2-20.4-22.8-6-34.3-10.5
			c-1.5-0.6-3.4,0.1-5.1-0.2c-23.9-5.3-27.5,7.7-28.9,28C1794.7,1402.9,1810.8,1395.3,1822.8,1396.6z M1721.4,1347.4
			c-24.6-8.9-26.2,8.8-26.5,27.4c-0.6,32.1,24.6,13.1,37.4,17.8c14.3,5.3,21.5-0.3,23.6-18.4
			C1759.1,1345.2,1742,1346.8,1721.4,1347.4z M1870.1,1308.4c-5.1-38.6-6.6-39-44.3-40.2c-17.4-0.5-23.7,4.3-24.4,22.3
			c-0.8,19.5,10.9,17.7,22.8,17.9C1839.4,1308.5,1854.7,1308.4,1870.1,1308.4z M1363.2,1375.9c23.8,7.9,30.3-3.9,31-24.9
			c0.8-25.8-18.7-11.7-29-15.6c-3-1.2-6.8-0.7-10.2-0.2c-8.1,1.1-19.9-4.5-23.5,3.7c-4.4,10.1,1.3,22,6.2,31.7
			C1343.3,1381,1355,1374,1363.2,1375.9z M1366.9,1293.6c14.2-2.4,33,8.7,34.2-18.2c1-21.3-13.4-14.6-23.8-16
			c-20-2.7-41.2-1.2-40.6,24C1337.2,1300.8,1357.7,1288.4,1366.9,1293.6z M1728.5,1304.4c16-0.7,33.7,5.7,31.9-20.6
			c-2.1-29.6-23.9-12.7-36.4-16.4c-18.4-5.5-23.2,6.3-23.3,22.4C1700.5,1316,1720.9,1298.7,1728.5,1304.4z M1690.4,1460.2
			c0.9,2.5-7,16.9,7.9,13.3c18.2-4.4,46.4,0.6,50.1-23.6c3.6-23.2-20.7-10.3-32.1-13.5C1701.1,1432.1,1686.2,1433.1,1690.4,1460.2z"
			/>
		<path class="st0" d="M740.9,1462.8c-3.3,80.8-42.3,140.5-103,187.6c-65.8,51.1-144.5,70.9-223.6,88.9c-20.2,4.6-15.6-12.3-19.4-22
			c-4.7-12-2.3-17.5,12-20.5c62.5-13.5,124.8-28.5,179.8-63.3c57.6-36.4,102.7-83,109.1-154.9c5.1-56.4-15-102.9-66.7-130.2
			c-20.9-11.1-7.5-22.9-4.9-33.9c3.8-16.2,15.2-9.4,24.1-4.7C710.7,1342.2,735.5,1397.4,740.9,1462.8z"/>
		<path class="st0" d="M1615.8,849.7c59.7-0.8,102.8,38,103.4,93.1c0.6,53.3-44.7,99.2-99,100.3c-58.4,1.2-110.5-44.4-111.3-97.3
			C1508.1,890.4,1552.5,850.5,1615.8,849.7z M1617,893.2c-37.8-0.1-65.5,20.7-66,49.4c-0.6,29.2,33,58.3,66.6,57.9
			c30.9-0.4,59.4-27.2,59.1-55.6C1676.3,912.2,1654.4,893.2,1617,893.2z"/>
		<path class="st0" d="M946.9,1558.6c-1.8,42.9-41.2,77.7-86.1,76.2c-44.5-1.5-79.3-40.1-76.7-84.9c2.6-44.5,37.3-78,79.3-76.5
			C910.6,1475.2,948.7,1514,946.9,1558.6z M904.5,1555.5c0.1-19.9-20.6-38.6-43-38.9c-19.7-0.3-33.4,14.6-33.8,36.6
			c-0.4,22.9,13.2,37.8,34.9,38.1C885.4,1591.5,904.5,1575.2,904.5,1555.5z"/>
		<path class="st0" d="M1924.1,945c0,24.6-20.8,43.9-46.8,43.6c-25.7-0.3-47.4-20.2-47.5-43.6c-0.1-24.2,19.7-40.8,48.8-40.6
			C1906.4,904.5,1924.1,920.4,1924.1,945z"/>
		<path class="st0" d="M1332,925.5c24.6-0.7,44,16.2,45.1,39.3c1.2,24.9-18.6,46.3-43.7,47.2c-25.4,0.9-49.9-20.9-50.1-44.7
			C1283.2,943.6,1303.4,926.3,1332,925.5z"/>
		<path class="st0" d="M746.4,1616.8c19.3-0.3,27.4,11.4,28.5,28.5c1.2,18.8-16.3,36.2-35.1,36.3c-17.4,0.2-33.1-15.4-32.5-32.2
			C707.9,1632.3,726.3,1617,746.4,1616.8z"/>
		<path class="st0" d="M1048,1483.7c0.3,19.1-15.7,36.1-35.4,35.4c-18.2-0.7-30.2-10.8-31.5-29.9c-1.1-16.8,17.5-35.7,36.6-35.2
			C1035.7,1454.4,1047.7,1463.8,1048,1483.7z"/>
		<path class="st0" d="M2522.1,1581.1c-55.8-2.6-110.1-14.4-155.8-51.9c-62.9-51.7-64.1-132.6-3-186c78.9-68.9,233.3-72.1,315.2-6.5
			c74.5,59.7,69.5,152-11.3,204.4C2623.6,1569.5,2574.8,1579.7,2522.1,1581.1z M2686.4,1416.5c-5-8.3-3.9-25.1-23.1-16.5
			c-10.8,4.8-22.4,7.9-33.7,11.7c-7.2,2.5-16.1,3.7-9.8,15.1c4.2,7.7,4.7,19.1,19.1,13.2c12.5-5.1,25.7-8.5,38.7-12.5
			C2682.9,1426,2687.4,1424.2,2686.4,1416.5z M2517.1,1405.2c9.2-3.1,18-6.4,26.9-9.1c9.2-2.7,12.9-7.1,7.8-16.7
			c-3.7-7.1-6.1-14.3-16.7-9.4c-7.7,3.6-15.9,6-23.8,8.9c-6.1,2.2-11.4,5.4-6.9,12.8C2507.7,1397,2508,1405.7,2517.1,1405.2z
			 M2585.9,1452.4c-7.3-6.6-5.4-20.9-16.1-18.6c-12,2.5-28.5,2.1-33.5,15.9c-2,5.4,4.1,20.1,16.2,17.4
			C2563.5,1464.5,2576.6,1463.4,2585.9,1452.4z M2471.9,1493.4c7.1-7.1,25.3,0.2,28.1-15.6c0.9-5.2-3.8-18.8-15.5-14.9
			c-11,3.7-27.2,1.6-30.5,16.5C2452.8,1484.8,2457.6,1496.5,2471.9,1493.4z M2437.5,1433c8.7-6.3,25.4-1.6,29.5-16.3
			c1.5-5.4-3-17.1-12.5-15.4c-11.6,2.1-26.5,2.4-31.4,15.8C2421.6,1421.6,2426.1,1432.2,2437.5,1433z M2586.7,1530.1
			c7.3-5.2,23.1,0.1,24.4-14.8c0.6-7.1-3.1-18.8-15-15.7c-9.7,2.5-24.6-0.1-26.2,14.1C2569,1520.7,2573.6,1530.7,2586.7,1530.1z
			 M2634.4,1362.6c-13.3-9.4-25.4-23.9-42.7-12c-7.1,4.9-1.2,13.6,2.5,17.8C2609.1,1385,2620.4,1362.9,2634.4,1362.6z M2375,1429.3
			c-7.8,3.2-16.3,5.2-13.7,15.6c1.2,4.9,1.3,14.3,9.9,10.4c5.4-2.4,17.7,0.4,14.9-12C2384.7,1437.3,2382.8,1430.1,2375,1429.3z"/>
		<path class="st0" d="M2560.3,1279c-41.3,0.6-75.8-9.7-106.6-31.9c-71.1-51.1-72.4-146.5-1-197.1c58.6-41.6,122.5-45,186.4-13.4
			c47.9,23.7,77,62.4,73.9,118.4c-3,53.5-35.6,86.9-81.6,108.7C2608.1,1274.8,2583,1280.3,2560.3,1279z M2628.7,1167.4
			c11.1-4.6,23.9-9.1,36-15.2c10.6-5.3,6-14.5,3.3-22.3c-3.8-10.9-11-4.3-16.4-2.1c-11,4.5-21.5,9.9-32.3,15
			c-5.8,2.7-10.8,5.9-5.9,13.2C2616.8,1161.3,2617.4,1169.9,2628.7,1167.4z M2635.8,1087.5c-15.6-20.6-31.1-16.4-47.7-6
			c-7.1,4.4-9.1,8.2-5,16.1c4.1,7.9,7.9,12.2,17.3,7.1C2611.4,1098.7,2623,1093.7,2635.8,1087.5z M2510.4,1147.1
			c11.2-9.2,31.3-6.4,36.9-24.2c1.2-3.7-3.9-15.9-12-12.4c-13.3,5.8-29.5,9.1-37,23C2496,1137.8,2500.7,1146.3,2510.4,1147.1z
			 M2580.9,1183.2c-6.9-5.2-6.3-17.4-14.7-14.1c-13.5,5.4-30.6,7-37.9,22.1c-2,4.2,3,12.8,10.5,10.8
			C2553.1,1198.3,2567.2,1193.5,2580.9,1183.2z"/>
		<path class="st0" d="M1528.1,2227.7c128.1,4.7,256.1,0.3,384.1-4c15.1-0.5,23.5,0.4,23.5,19.1c0,16.9-3.3,24.1-21.9,24.7
			c-257.8,7.8-515.6,8.5-773.4,4.2c-16.2-0.3-25.2-2.9-24.4-22.7c0.8-18.9,8.9-21.7,25.4-21.7
			C1270.3,2227.9,1399.2,2227.7,1528.1,2227.7z"/>
		<path class="st0" d="M833.1,2062.6c14.7,3.1,21.6,15.1,20.5,32.5c-1.3,19.5-19.5,35-38.4,31.7c-18-3.1-29-13.9-28.2-33.1
			C787.7,2076,809.5,2060.4,833.1,2062.6z"/>
		<path class="st0" d="M2236.8,1985.9c-3.3,18-13.1,30.6-31.8,29.9c-18.3-0.7-30.1-13-29.2-31.6c0.8-17.1,12.4-28.5,29.7-28.6
			C2224.3,1955.5,2233.9,1968,2236.8,1985.9z"/>
	</g>
</g>
</svg>
