<?xml version="1.0" encoding="utf-8"?>
<!-- Generator: Adobe Illustrator 23.0.0, SVG Export Plug-In . SVG Version: 6.00 Build 0)  -->
<svg version="1.0" xmlns="http://www.w3.org/2000/svg" xmlns:xlink="http://www.w3.org/1999/xlink" x="0px" y="0px"
	 viewBox="0 0 3000 3000" style="enable-background:new 0 0 3000 3000;" xml:space="preserve">
<style type="text/css">
	.st0{stroke:#000000;stroke-width:10;stroke-miterlimit:10;}
</style>
<g id="Layer_1">
</g>
<g id="Layer_2">
	<g>
		<path class="st0" d="M1638.9,126.7c141.8-3.7,283.6-10.9,425.4-1.8c60.4,3.9,121.3,9.5,176.1,37.2
			c135.8,68.5,223,173.4,232.2,330.5c4,68.3-15.8,132.8-46.2,194c-30.7,61.9-70.7,117.1-118.9,166.3c-11.6,11.8-17,22.3-12,38.7
			c3.4,11-0.5,26.8,6,33.5c6.4,6.5,21.8,4.3,33.3,5.6c105.5,12.5,142.8,81.5,131.1,178.6c-0.4,3.7-1,7.4-2.1,10.9
			c-6.5,21-2.5,38.2,9.7,58c26.6,43.1,22.1,90.5,3.1,135.2c-11.4,26.8-14.5,51.1-11.4,80.7c7.7,72.1-23.8,130.5-79.2,175.6
			c-10.9,8.9-11.4,13.3-3.4,24.2c31.4,42.6,50,91.1,66.7,141.2c34.6,103.5,23.3,209.9,24.2,315.3c0.7,86.2-2,172.7-10.3,258.7
			c-17,174.9-77.7,329.3-213.8,447.1c-65.3,56.5-139.7,97-224.3,116.2c-37.4,8.5-75.8,12.7-113.9,17.6
			c-56.7,7.2-113.5,13.8-170.4,19.8c-134.3,14.2-269.1,23.6-404.1,28.4c-66.6,2.4-133.2,6.2-199.8,3.5
			c-117-4.7-226.9-32.3-321.3-105.6c-78.7-61.1-130.4-140.2-153.3-237.5c-1.9-8.3-2.1-17.1-2.1-25.7c-0.1-167.2-0.9-334.4,0.2-501.5
			c0.8-135.2,34.8-262.1,102.9-379.2c7.9-13.6,9.2-18.2-9.3-20.7c-65.3-8.8-106-52.1-115.6-120.8c-7.8-55.7-6-109.7,28.4-157.7
			c6.3-8.8-1.9-12.1-5.7-16.7c-49.4-59.2-53.7-135.2-11-194.8c12.4-17.3,28.1-31.2,46.8-41.2c7.8-4.2,10-8.6,9-17.4
			c-3.9-33.8-1.8-67.8-0.6-101.7c0.8-22.9,11.7-43.6,27.9-58.8c15-14.1,9.9-21-2.1-32.7C675.5,875.4,631,812.9,600.9,740.8
			c-72.6-173.9-29.3-332.1,125.8-438.8c122-83.9,256.6-138.3,405.9-151.9c122.3-11.2,245.1-12.7,367.7-17.6
			c46.2-1.9,92.5-0.3,138.7-0.3C1639,130.4,1639,128.5,1638.9,126.7z M1617.5,2873.1c4.5,3.9,8.9,2.3,12.9,1.9
			c77.9-7.4,155.9-14.6,233.7-23.8c17.4-2.1,27.2-9.1,36.8-22.1c71.9-97,121.5-204.3,146.3-322.3c6-28.7,22.1-12.1,34.4-12.2
			c17.4,0,12.6,12.3,10.4,22.2c-24.4,110.2-67.9,212.2-131,305.8c-3,4.4-7.7,8.1-7.2,14.8c13.6,3.9,27.2-0.9,39.5-3.6
			c116.9-25.6,214.8-84,290.7-176.7c85.9-104.9,124.1-228.4,135-361.5c7.3-89.2,8.3-178.8,8.4-268.1c0.1-86.4,5.4-172.4-17.1-258.9
			c-23.5-90.3-65.3-165.3-134.8-225.7c-62.2-54.1-135.4-86.8-214.6-107.5c-40.2-10.5-80.9-17.8-122.6-20.9c0,2.4-0.2,3.1,0,3.5
			c2.2,3.7,4.5,7.3,6.9,10.9c76.7,114.4,115.2,239.6,103.4,377.8c-11.6,136.7-69.8,249.6-181.4,331.5
			c-82.6,60.6-177.4,89-278.9,97.9c-107.6,9.4-211.6-5.4-311.7-45.7c-116.9-47.1-205.9-124.9-249.3-245.4
			c-59.4-165.1-24.9-316.5,75.8-455.9c3.3-4.6,9.1-8,9-15c-58.4,12.5-139.3,55.2-195.5,104.6c-142.6,125.3-203.1,289.6-210,473.1
			c-6.6,172.5-1.4,345.5-1.4,518.2c0,8.6,0.9,17,3,25.5c15.4,61.8,46.3,114.9,88.2,162.5c9.1,10.4,16.3,11,28.1,4.5
			c96.5-54,164.6-132.1,203-235.9c9.2-25,8.7-23.8,34-18.2c17,3.7,17.4,10.2,12.3,24.7c-39.6,112-110,198.5-211.5,260
			c-4.8,2.9-11.8,3.7-13.4,10.7c67.1,55,171.9,83.8,250.9,90.3c9.8,0.8,16.3-4.2,23.2-9.4c112.8-84.2,196.6-191.2,250.7-321.2
			c4.7-11.2,8.8-16.8,20.8-9.5c3.6,2.2,7.8,3.8,12,4.7c13.6,3.1,15.2,9.3,9.7,22.3c-47.5,112.6-116.1,210.1-207,291.8
			c-8,7.2-16.1,14.2-27.5,24.3c12.2,0,19.4,0.2,26.6,0c105.4-3.3,210.9-6.4,316.1-13.7c12.6-0.9,21.9-4.5,31-13.2
			c91-87.2,151.8-192,181.5-314.3c7.1-29.2,24.1-8.5,36-9c15.2-0.6,10.2,11.6,8.2,20.1c-22.6,92.2-62.2,176.4-119.7,252.1
			C1647.3,2837.4,1632.2,2855,1617.5,2873.1z M1581.5,400.9c43.2,0,86.4-0.7,129.6,0.2c43.8,0.9,87.6,2.3,131.3,5.3
			c55.6,3.8,110.3,13.9,160.5,39.6c88.7,45.3,132.2,136.3,118.8,244.4c-3.8,30.7-9.9,60.8-19.1,90.3c-2.3,7.3-1.5,13.7,2.9,19.1
			c5.1,6.3,10-0.6,14.8-1.9c50.8-13.7,99.1-11.7,141.1,24c7.9,6.7,10.8,3.9,15.7-1.5c47.3-51.7,88.3-107.6,117.1-172
			c32.5-72.6,44.5-147.3,22.5-225c-38.7-137.1-171-239.1-320.2-250.6c-98.6-7.6-197.2-8.3-295.9-5.1
			c-123.9,4.1-247.9,7.7-371.7,12.8c-115.2,4.8-230.9,3-345,22.2c-137,23-261,77.8-368.2,166c-92.1,75.8-120.7,175.7-93.5,291
			c23.2,98.7,79,178.2,150.6,247.9c10.1,9.9,18.8,15.2,33.8,9.9c13.1-4.7,27.7-6.2,41.9-3.4c10.4,2,12.4-2.2,12.5-11.5
			c0.2-20.6,4.1-41.4,15.5-58.3c12.8-19.1,15.6-39.4,16.9-61c0.8-14.1,2.5-28.2,4.5-42.3c13.8-100,58.7-182.4,140.7-242.3
			c75.1-54.8,162.7-74.4,253-85.2C1387.7,402.1,1484.6,402.5,1581.5,400.9z M1260.2,2130.3c-1.7-21.1-3.8-42.4-5.1-63.7
			c-5.6-93.2,15.1-174.4,103.2-224.5c7.6-4.3,7.2-10.5,6.8-17.4c-2.8-41.6,1.5-82.7,10.7-123.1c11-48.2,24.2-95.8,55.5-135.8
			c40.6-51.8,106.2-54.4,150.4-5.7c17.9,19.7,27.9,43.5,33.9,69c14.1,60.5,19.3,121.8,12,183.7c-2,17,0.7,28.3,16.6,37.9
			c20.1,12.2,35.3,30.5,48.8,50c32.3,46.3,46.7,98.5,52.6,154c3.4,31.7,3.2,63.6,3.4,97c5.1-1.7,8-2.4,10.7-3.6
			c105.1-46.4,180.8-121.8,218.7-230.8c53.3-153,26.8-297.6-53.1-434.8c-12.4-21.2-29.8-39.6-41-61.4c-5.6-10.9-11.4-11.4-20.4-11.6
			c-65.4-1.4-130.7,2.4-196.1,5.4c-141.7,6.5-283.2,14.6-424,32.1c-21.6,2.7-44,1.6-62.5,20.9c-73.2,76.4-118.5,165.4-133.9,270.3
			c-23,157,57.1,315.5,197.9,387.8C1249.6,2128.1,1253.5,2131.8,1260.2,2130.3z M1023.9,1411.8c-1.4-30.1,0.2-51.7,3.4-73
			c8.7-58.3,31.8-108.8,82.1-143.2c29.9-20.4,32.5-19,43.3,14.2c3.1,9.5,1.4,13.7-7.9,17.8c-18.5,8.2-32.2,22.5-43.5,39.1
			c-33.8,49.5-33.7,105.5-31.5,162c0.4,10.6,7.2,7.3,13,5.8c22-5.9,43.8-12.7,66-17.6c65.7-14.5,132.5-21.4,199.4-26.3
			c16-1.2,24-4.8,22.7-23.5c-2.2-31.3,3.1-62.5,21.8-88.1c11.5-15.7,10.2-28.8,6.2-45.8c-12-50.8-15.3-101.3,16.3-147.6
			c3.8-5.6,2.7-10.5-3.9-15.2c-15.9-11.3-28.1-26.3-34-45c-3-9.5-7.9-11.8-17.1-12.2c-28.9-1.1-56.6-8.7-80.4-24.7
			c-16.9-11.4-30.6-14.1-47.1-0.8c-5.4,4.4-13.5,5.7-20.6,7.7c-32.5,9.2-64.8,4-97.1-2c-5.3-1-10.5-4.1-15.3,1.5
			c-30.6,35.6-71.3,51.4-116.2,58.7c-6.5,1-7.7,4.4-8,10c-3.5,59-33.8,100.2-85.2,127.1c-5.7,3-8.7,5.1-5.4,12.4
			c22.7,51,17.9,103.5,6.9,156.1c-2,9.6-0.5,15.8,6.9,22.6c25.2,23.1,40.7,52.4,50.2,84.9c7.6,25.9,6.4,23.3,30.6,13.5
			C1016,1465.4,1038.4,1445.9,1023.9,1411.8z M1824.8,1363.4c0,0.9,0,1.8,0,2.8c29.6,0,59.2-0.4,88.7,0.3
			c8.8,0.2,13.7,0.1,13.4-10.9c-1-35.1,2.6-70.2-0.1-105.3c-3.5-46.3-32.9-86.8-77.9-100c-18.6-5.4-22.3-11.8-20.2-31.1
			c2.2-20.2,10-19.8,24.5-16.1c63.9,16.4,109.8,71,118.3,138.8c4.8,38.3,0.7,76.3,0,114.5c-0.2,11,2.5,16.3,14.8,17.9
			c44,5.7,87.2,15.7,129.2,30.2c7.6,2.6,12.2,1.6,15.8-6.7c9-20.6,22.5-38.2,39-53.4c5.6-5.2,6.9-10.2,5.9-17.8
			c-4.9-37.8,1.8-73.7,20-107.2c4.4-8.2,4.9-13.2-2.4-20.5c-32.7-32.7-44.4-73.5-39.3-118.5c1.7-15.4-2.4-18-16.3-19.7
			c-43-5.2-73.5-31-81.1-69.5c-2.9-14.5-8-15.8-20.9-13.1c-49.1,10.5-97,9.4-140-20.9c-9-6.3-12.2,1.5-16.7,5.4
			c-50.1,43.8-107.2,64.4-174,52.6c-8.2-1.4-10.3,0.8-12.6,8.1c-7.9,25.3-22.2,46.7-43.2,63.1c-5.6,4.4-6.8,8.2-5.4,15.4
			c10.9,54.5,6.6,107.9-13.3,159.9c-2.9,7.4-3,13.3,1.4,20.6c13.3,22.1,19.2,46.7,20.3,72.1c0.5,12.2,4.8,15.5,16.8,15
			C1721.3,1366.9,1773,1365.3,1824.8,1363.4z M1299.8,2047.4c0.1,32.2,4.7,63.9,9.1,95.6c1.3,9,5.3,13.9,14,16.8
			c120.7,39.4,242.3,46.3,365.7,13c11.2-3,14.4-8.2,14.9-19c2.3-47.7,0.3-95.1-10.5-141.5c-13.4-57.7-40.1-107.7-94.1-137.6
			c-64.9-35.9-183.2-24.4-241.1,21.8C1308.8,1935.5,1299.1,1989.4,1299.8,2047.4z M1233.1,730c14.4,4.6,27.1,6.2,36.8,14.3
			c8.2,6.9,15.5,6.5,25.3,3.3c32.1-10.3,64.5-9.1,95.2,4.3c11.5,5,19.1,3.3,28.5-2.6c33.2-20.7,62.8-45.6,88.4-75.1
			c52.6-60.6,84.9-130.6,96.5-210.1c1.1-7.3,6.3-17.5-9.6-17.6c-91.2-0.6-182.3,2.6-273.3,8.9c-13.8,1-17,6.1-15.9,19.4
			c3.9,45.1,0.7,89.8-11.4,133.6C1281.5,652.3,1261.2,692,1233.1,730z M2065.7,741.3c9.2-33.1,14.3-65.2,12-97.8
			c-5.4-77.5-38.1-136.8-114.4-165.7c-42.5-16.1-86.9-22.5-131.7-27.1c-13.2-1.4-13.4,4.4-12.9,14.8c4.2,86.1-18.7,164.5-67.9,235.3
			c-2.3,3.3-6.3,6.1-5.4,11c0.6,0.5,1,1.2,1.4,1.2c3.1,0.2,6.1,0.5,9.2,0.4c42.1-1,84-0.3,122.3,20.9c7.6,4.2,11.3-1.6,15.9-5.3
			c32.9-25.9,69.7-32.6,109.8-22.3C2026.9,712.7,2046.2,725.9,2065.7,741.3z M939.9,781.2c43.2-15.4,85.4-15.2,125.9,7.4
			c7.3,4.1,10.1-1.8,13.8-5.2c21.2-19.5,45.2-34.5,72.6-43c13.8-4.3,23.7-11.9,32.6-22.6c57.5-69.3,81.9-148.8,75.8-238.4
			c-0.9-12.6-5-15.8-17.1-13.3c-38,8-75.4,17.6-111.7,31.8C1010.7,545.4,943,661.3,939.9,781.2z M1540,849.1
			c3.7,0.2,7.5-0.2,11.1,0.7c16.4,4.2,22.9-0.8,25.9-18.7c6.6-39.4,30.6-68.5,64.9-87.8c23.2-13,41.8-30.5,57.9-50.8
			c53.7-67.4,78.9-143.9,73.1-230.4c-0.8-11.6-4.6-15.8-16.6-15.5c-30.5,0.6-61,0.3-91.5-0.6c-11.3-0.3-14.6,4-15.6,14.7
			c-6.4,65.5-28.3,125.9-62.6,182c-33.6,55-76.9,101-130.8,136.4c-9.7,6.4-14.7,10.2-5.1,21.5c11.2,13.2,17.6,29.6,21.8,46.5
			c2,8.1,4.1,13.3,14.7,8.7C1503.9,848.7,1522.1,849.2,1540,849.1z M680.2,1509.7c0.8,9.3,1.4,21.6,3,33.8
			c6.4,48,29.2,73.9,73.5,83.2c10.8,2.3,22,2.9,32.9,4.5c10,1.5,16.9-1.7,23.5-10.1c22.9-29,47.4-57.2,77.4-79
			c19.5-14.1,23.1-29.1,18.4-51.6c-15-71-72-116.2-138.5-107.6C712.1,1390.5,677.3,1438.1,680.2,1509.7z M1775.4,758
			c-27.2,0.3-54.1,3.4-80.3,11.1c-44.4,13-72.2,42.9-75.9,81.1c-4.5,47.2,16.9,86.3,58.9,107.9c61.1,31.5,130.7,11.3,177.5-35.7
			c4.7-4.7,4.6-9,2.7-14.9c-12.5-39.3-11.8-79.1-1.3-118.4c3.3-12.5-1.1-16.6-10.9-20.1C1823.3,760.9,1799.7,757.5,1775.4,758z
			 M1586,1762c-2.7-49-4.2-96.6-21-141.8c-9.5-25.5-24.6-47.3-54.2-49.2c-28.6-1.8-44.8,19-56.3,41.4
			c-31.3,60.9-44.2,126.4-44.9,194.6c-0.1,10.2,2.2,13.6,14,10.9c48.6-11.4,97.7-13.5,146.5-1.1c10.3,2.6,12.7-0.6,12.9-10.2
			C1583.5,1791.2,1585.1,1775.8,1586,1762z M2326.5,1331.6c-11.6,1.3-23.4,2-34.9,4c-48.9,8.5-89.7,29.8-115.9,74.1
			c-5.7,9.7-6.3,15.3,6.1,20.8c57.5,25.4,108.6,60.6,152.8,105.4c8.3,8.4,13.6,6.8,21.5,0.5c29.1-22.8,49.3-51.5,59.6-86.9
			C2437.3,1374.6,2404.5,1331.5,2326.5,1331.6z M2423.2,1079.5c-0.7-33.1-5.9-60.9-30-80.4c-73.3-59.5-176.4-21.3-192,71.1
			c-5.6,33.3-2.6,65.1,20.2,92.5c5.8,6.9,10.1,10.2,19.1,2.8c48.9-39.7,104.6-53.6,166.3-39.5c8.5,1.9,11.2-0.2,12.1-8
			C2420.3,1103.8,2422,1089.8,2423.2,1079.5z M856.8,1281.6c-1.8-11.8-2.7-25.5-6-38.5c-13.8-54.7-58.2-83.8-108.8-71.6
			c-40.3,9.7-63.5,37.4-72.7,75.8c-9.7,40.2,3.8,75.3,31.4,105.3c4.2,4.6,7.9,3.8,12.9,1.4c40.6-20.1,82.5-23.6,125.5-9.1
			c9.3,3.1,10.5-1.1,11.2-8.2C852.3,1318.8,854.5,1301.1,856.8,1281.6z M750.1,1067.9c0,14.2,0,28.3,0,42.5c0,9.6,3.7,14.3,14.4,14
			c29.3-0.9,55.5,9,79,25.9c5.9,4.2,10.9,6.2,18.5,3.8c43.4-14.2,73.6-62,68.5-109c-5.1-46.3-40.4-80.9-87.6-86
			c-36.6-3.9-78.5,22.7-90.1,57.5C747.2,1033.3,751.1,1050.8,750.1,1067.9z M1989.2,938.8c14.8-0.3,33.4-4.1,52.1-8.1
			c8.5-1.8,11.5-5.9,12.4-14.8c2.4-24.4,5.1-49,16.3-71.6c2.1-4.1,2.4-8.4,0.5-12.5c-15.7-32.5-33.2-63.5-69.3-78
			c-46.1-18.5-89.5,3.1-101.7,51.1c-3.7,14.4-4.8,29.2-4.8,43.9C1894.5,907.8,1925.7,938.7,1989.2,938.8z M1086.5,908.3
			c0-53-35.8-90.9-87.4-92.3c-51.5-1.5-91.5,36.5-93.4,89c-0.6,16.4,2.4,30.5,18.5,40.7c14.5,9.2,24.9,23.5,33.3,38.8
			c15,27.5,15.1,27.2,45.5,18.6c13.1-3.7,25.5-9.1,37-16.2C1069.1,968.9,1086.5,943.6,1086.5,908.3z M2220.2,1307.7
			c2.3,0.5,3,0.9,3.5,0.7c5.2-1.8,10.4-3.7,15.6-5.5c54-18.4,107.9-22.8,162.7-2.4c9,3.4,16.6,17.9,26.4,9.6c7-6,8.4-18.6,12-28.4
			c1.7-4.6,2.6-9.5,3.5-14.3c12.4-63.9-24.3-106.3-88.3-101.5c-28.2,2.1-54.4,10.8-77.3,27.4
			C2239.2,1221.4,2220.2,1259.8,2220.2,1307.7z M1604.3,1159.2c0-4.3,0.2-8.6,0-12.9c-4-66.7-16.4-62.3-67.9-69.6
			c-33.2-4.7-64.1-0.4-83.7,32.4c-22.2,37.3-18.6,76.5-9.1,116.2c2.4,10.1,9.1,4.7,14.6,3.4c41.4-10,82.5-10.2,122.5,6.2
			c8.3,3.4,11.6,2.5,14.1-6.6C1600.9,1205.7,1605.1,1182.8,1604.3,1159.2z M1522.1,1030.2c28.9,2.2,56.4,1.6,78.5,15.2
			c18.8,11.6,26.7,3.2,35.5-9.5c5.2-7.5,8.8-16.1,12.9-24.4c4.8-9.8,2.4-16.2-7.5-22.4c-26.8-16.9-46.7-40.4-57.7-70.3
			c-5.5-14.9-16.5-21.3-30.1-23.1c-13.3-1.8-27.5-2.2-40.5,0.4c-19.3,3.8-36.5,10-40.7,35.1c-4.8,28.7-20.5,52.6-45.7,68.9
			c-4.3,2.8-8.1,4.8-6.5,11.3c4.3,18.3,32,34.8,48.8,27.5C1487.2,1031,1506,1029.9,1522.1,1030.2z M1256.6,841.1
			c0-9.2,0.2-18.5,0-27.7c-0.7-26.2-7-34.8-32.9-37.5c-40.5-4.1-75.4,10.8-107.1,35.2c-9.3,7.2-11.9,12.5-4.5,23.5
			c16.2,24.3,20.4,52,20.3,81.1c0,11.4-12,25.6-0.1,33.4c9.2,6,23.8,4,36,5.2c4.9,0.5,9.8,0.4,14.7,0.1
			c31.2-1.9,53.4-16.8,65.2-46.2C1256.8,886.7,1258.2,864.1,1256.6,841.1z M2097.9,936.3c0,12.8-0.6,20.3,0.1,27.6
			c3.8,37.8,23.6,54.4,61.6,53.3c8-0.2,11.9-2.9,15.4-9.9c15.3-30.8,37.1-55.2,69.9-67.9c5.1-2,8.5-4.4,8.5-10.4
			c0-62.2-18.9-87.9-75.1-93.1c-6.1-0.6-12.3-0.4-18.5-0.2c-29.3,1.2-47.1,15.4-54.4,43.7C2100.1,899.8,2098.5,920.7,2097.9,936.3z
			 M1301.5,842.4c1,29,0.1,58-12.3,84.9c-3.9,8.5-2.6,13.2,5.3,18c24.2,14.7,50,23.3,78.4,23.5c24.2,0.2,40.9-10.7,50.6-32.8
			c5.3-12,8.1-24.5,9.4-37.4c6.7-66.4-45.3-118.7-110.4-111.3c-14.4,1.6-24.6,5.5-21.3,23.8C1303,821.2,1301.5,831.9,1301.5,842.4z
			 M1416.2,1353.2c-1,31.5-1,31.5,23.3,29.9c51.6-3.4,103.2-6.7,154.8-10.4c5.2-0.4,12.3,3.1,14.2-7c4.5-23.9-14.7-72.5-37.2-84.5
			c-37.4-19.9-77.2-20.5-115-2.4C1423.2,1294.9,1417.8,1327.6,1416.2,1353.2z"/>
		<path class="st0" d="M1094,2260.7c-0.3,46.6-38.9,84.7-85.2,84.1c-46.5-0.6-84.7-39.4-84.1-85.5c0.6-46.7,38.6-83.9,85.6-83.6
			C1057.5,2176,1094.2,2213.4,1094,2260.7z M1009.6,2298.9c21.4-0.1,38.8-17,39.3-38.1c0.5-21.4-18-40.1-39.5-40.1
			c-22,0-39.3,17.9-38.8,40.3C971.1,2282.6,987.9,2299,1009.6,2298.9z"/>
		<path class="st0" d="M1564.1,2404.9c-0.2,46.6-38.7,84.7-85,84.3c-46.5-0.4-84.7-39.1-84.3-85.3c0.4-46.7,38.5-84,85.4-83.8
			C1527.5,2320.4,1564.3,2357.6,1564.1,2404.9z M1480.6,2443.3c21.2-0.4,38.6-17.9,38.6-38.9c0-21.4-18.8-39.8-40.3-39.4
			c-22,0.5-38.8,18.6-38,41C1441.6,2427.6,1458.8,2443.7,1480.6,2443.3z"/>
		<path class="st0" d="M1229,2309c47.1,0.4,83.8,38,83.4,85.3c-0.4,46.4-39.4,84.6-85.6,83.7c-46.6-0.9-84.6-39.8-83.7-85.9
			C1143.9,2345.4,1181.9,2308.6,1229,2309z M1228.3,2432.2c21.4-0.2,38.7-17.3,39.1-38.4c0.3-21.3-18.3-40.1-39.8-39.9
			c-21.9,0.2-39.2,18.3-38.6,40.6C1189.6,2416.1,1206.6,2432.4,1228.3,2432.2z"/>
		<path class="st0" d="M2102,2205.5c-47-0.5-83.5-38.3-82.9-85.8c0.5-46.4,39.8-84.5,85.9-83.4c46.7,1.2,84.4,40.3,83.3,86.3
			C2187.1,2169.6,2149.2,2206,2102,2205.5z M2103.7,2082.3c-22.2-0.1-40.1,17.7-39.7,39.5c0.4,20.7,18.3,38.5,39.1,38.7
			c21.9,0.3,39.5-17.6,39.2-39.9C2142.1,2098.9,2125.4,2082.4,2103.7,2082.3z"/>
		<path class="st0" d="M1930.4,2368.4c-46.4-0.2-84.7-39.1-83.9-85.3c0.7-46.6,39.6-84.6,85.8-83.9c46.7,0.7,83.9,38.8,83.6,85.7
			C2015.5,2331.9,1977.9,2368.6,1930.4,2368.4z M1892.4,2284.8c0.4,21.3,17.6,38.5,38.8,38.6c21.5,0.1,40-18.7,39.6-40
			c-0.4-21.9-18.8-38.9-41.1-38.2C1908.2,2245.9,1892,2263,1892.4,2284.8z"/>
		<path class="st0" d="M1691.6,2464.6c-47.1-0.4-83.8-37.8-83.5-85.2c0.3-46.5,39.1-84.6,85.4-83.9c46.6,0.7,84.5,39.5,83.8,85.7
			C1776.6,2428,1738.6,2465,1691.6,2464.6z M1693.2,2341.4c-22.3-0.3-40.2,17.3-40,39.2c0.2,20.7,17.9,38.6,38.7,39.1
			c21.9,0.5,39.7-17.3,39.6-39.5C1731.4,2358.4,1714.8,2341.7,1693.2,2341.4z"/>
		<path class="st0" d="M1167.6,1637.3c0.3-47.1,37.6-83.7,85.1-83.6c46.5,0.1,84.7,38.7,84.1,85.1c-0.6,46.5-39.3,84.6-85.5,84.1
			C1204.6,1722.3,1167.3,1684.2,1167.6,1637.3z M1290.9,1638.6c0.2-22.3-17.3-40.1-39.3-39.9c-20.8,0.2-38.7,18-39.1,38.7
			c-0.4,21.7,17.6,39.7,39.7,39.6C1273.9,1676.8,1290.7,1660.2,1290.9,1638.6z"/>
		<path class="st0" d="M1776,1757.5c-46.8,0.1-84.9-37.6-85-84.2c-0.1-46.3,38.3-84.8,84.7-84.9c46.5-0.1,84.6,38,84.6,84.7
			C1860.4,1720.2,1823.3,1757.4,1776,1757.5z M1737,1672.3c-0.4,22.3,16.9,40.3,38.9,40.3c20.8,0,38.9-17.6,39.5-38.3
			c0.6-21.7-17.3-39.8-39.4-39.9C1754.2,1634.2,1737.4,1650.6,1737,1672.3z"/>
		<path class="st0" d="M1515.2,2083.3c-45.7-0.4-83.1-38.2-83.3-84.1c-0.3-46.3,38-84.9,84.5-85.1c47.1-0.3,85.4,38.7,84.8,86.3
			C1600.6,2047.3,1562.8,2083.8,1515.2,2083.3z M1477.8,1998.5c-0.2,22.3,17.5,40.1,39.4,39.8c20.8-0.3,38.7-18.1,39-38.8
			c0.3-21.8-17.7-39.6-39.8-39.4C1494.6,1960.2,1478,1976.9,1477.8,1998.5z"/>
	</g>
</g>
</svg>
