<?xml version="1.0" encoding="utf-8"?>
<!-- Generator: Adobe Illustrator 23.0.0, SVG Export Plug-In . SVG Version: 6.00 Build 0)  -->
<svg version="1.0" xmlns="http://www.w3.org/2000/svg" xmlns:xlink="http://www.w3.org/1999/xlink" x="0px" y="0px"
	 viewBox="0 0 3000 3000" style="enable-background:new 0 0 3000 3000;" xml:space="preserve">
<style type="text/css">
	.st0{stroke:#000000;stroke-width:10;stroke-miterlimit:10;}
</style>
<g id="Layer_1">
</g>
<g id="Layer_2">
	<g>
		<path class="st0" d="M1320.1,1301.9c-53.8,15.8-105.7,19.6-159.2,17.1c-189.7-8.8-241.4-179.2-200.7-304.3
			c33.3-102.2,109.9-156,211.4-179.1c3.2-0.7,6.5-1.3,9.8-2c0.6-0.1,1.1-0.7,2.3-1.5c-1.6-7.4-8.9-6.8-13.7-8.5
			c-41.1-14.9-84.8-18.7-127.1-28.7C942.8,771,892.7,718,878.3,619.8c-6-40.9-2-81.9,7.6-121.7c20.3-84.2,50.4-164.8,92.8-240.6
			c12.8-22.9,28.7-43.6,46.6-62.8c55.9-59.9,122.9-77.7,200.9-52.6c76.7,24.7,137.3,74,194.3,128.4
			c57.8,55.2,107.3,117.5,153.3,184.7c8-7.7,7.5-17.5,10.1-25.8c30.5-99,89.5-173.1,191.4-202.5c119.2-34.4,228-7.3,323.6,70.3
			c63.5,51.5,84.9,119.1,70.5,199.3c-7.4,41.4-16.7,82.5-20,124.8c-5,65.5,6.7,128.1,27.9,189.2c14.5,41.7,31.2,82.6,47,123.8
			c29.4,76.4,28.8,152.4,0.4,229.3c-23.4,63.2-53.1,122.7-93.3,176.8c-46,61.8-112.1,88.9-184.1,105.2
			c-51.2,11.6-103.4,14.4-155.7,14.9c-13.2,0.1-17.2,3.7-17.3,16.9c-0.2,208.3,0.7,416.6,5.1,624.9c1.5,69.6-1.4,139.8,9.9,208.6
			c20.9,127.5,21.6,256.5,31.3,384.8c1.8,23.4,3.4,46.7,4.5,70.1c3.1,66.3-26.1,117.1-86.9,142.5c-93.8,39.2-185.8,32.4-273.4-19.3
			c-42.6-25.2-69.9-63.6-85.2-110.5c-2.2-6.8-4.3-13.6-7.2-22.9c-35.1,34.3-73.1,60.6-115.5,81.2c-129.5,63-298.8,32.4-388.6-72.8
			c-48.7-57.1-74.9-126.1-96.6-196.9c-47-153.5-55.6-309.8-36.8-468.9c19.1-161.8,62.3-315.8,134.1-462
			c48.1-97.8,112.2-180.6,212-230.8c25.1-12.6,50.9-23.6,77.4-33.2c12.6-4.6,19-2.6,20.9,11c0.3,2.6,1.4,5.2,2.6,7.6
			c9.1,18.1,3,25.3-16.2,31.8c-106.9,36.4-185.3,106.2-237.5,206.6c-72.8,140.3-120.2,288.2-140.6,445.1
			c-12.4,95.4-17.1,190.6-7.3,286.4c10.8,106.7,37,209.1,83.4,306.2c48,100.5,130.6,147.8,238.6,152.8
			c93.1,4.3,169.8-35.1,234.9-99.2c7.4-7.3,14.5-15.6,18-27.9c-20.8-3.3-39.8,3.8-59.2,5.5c-37.4,3.3-74.7,5.3-112.1-1.5
			c-58.2-10.6-104-40.5-138.6-87.6c-60.4-82.3-92.5-175.4-104.8-276.4c-12.1-99.4-17.6-198.7-3.7-298.3
			c26.2-187.5,100.2-354.2,218.7-501.5c7.8-9.7,12.9-9.9,22.2-1.9c25.2,21.7,25.3,21.1,5,47.2c-70.2,90-124,188.7-159.1,297.5
			c-1.6,4.9-2.9,9.9-5.9,20.1c39.8-28.2,75.5-53.5,111.2-78.8c46.9-33.3,94-66.3,140.5-100.2c10.8-7.9,16.8-8.5,24.9,3.6
			c18.2,27,18.9,26.7-7.9,45.8c-92.1,65.5-184.3,131-276.6,196.2c-7.5,5.3-12.8,10.7-14.6,20.2c-13.8,72.6-21.1,145.7-16.6,219.7
			c0.2,3.8-0.2,8.1,5,12c25-23.5,50.2-47.2,75.4-71c59.7-56.7,119.7-113.1,178.8-170.5c11.7-11.4,19.5-14.1,29.4,0.4
			c3,4.4,6.9,8.4,11.1,11.6c10,7.7,6.3,12.8-1.3,20c-94,88.7-187.7,177.7-281.6,266.6c-5.9,5.6-11.4,10.6-10.3,20.2
			c7,62,16.3,123.4,40.2,181.6c0.7,1.6,2.1,3,4.6,6.3c24.4-30.5,48.2-59.9,71.8-89.6c43.3-54.5,87.4-108.4,129.3-163.9
			c16.3-21.5,24.7-4.5,36.6,2.5c15.2,8.9,12.6,16.9,2.6,29.3c-69.7,86.5-138.6,173.7-208.1,260.3c-6.9,8.6-8.3,14.7-2,24.4
			c15.3,23.6,30.2,47.2,50.7,67c13,12.5,20.3,13.1,31.7-2.7c46-63.3,93.9-125.2,139.9-188.6c10.4-14.4,16.6-13.8,29.1-3.5
			c22.2,18.3,22.9,17.5,5,41.3c-42.6,56.7-85.2,113.5-127.7,170.2c-14,18.6-13.9,19,8.2,22.8c51.8,9.1,102.7-1.9,153.8-7.6
			c12-1.3,8-10.6,7.8-17c-3-76.9-6.6-153.9-9.7-230.8c-5-124.5-13.7-248.8-17.3-373.2c-6.6-231.6-8-463.3-11.5-695
			C1320,1318.1,1320.1,1310.9,1320.1,1301.9z M1724,1281.2c-1.3-108.6-3.6-201.6-15.5-294.1c-12.6-98.4-28-196.7-63-289.6
			c-62.4-165.8-163.8-306.1-295.3-424.4c-34.9-31.4-73.8-57.8-117.4-76.3c-77.7-33-134.1-18.2-185.9,48.4
			c-44.3,57-68.6,123.7-92.1,190.6c-17.6,50-32,101.3-29.4,154.9c3.8,79.6,36.3,135.3,119.9,153.7c30.7,6.8,61.6,12.2,92.4,18.7
			c75.6,16.1,139.6,50.3,180.7,118.7c32.4,53.9,42,114.6,43.9,175.5c5.7,184.1,11.1,368.2,12.1,552.3
			c1.2,229.7,6.3,459.2,20.4,688.5c0.7,11.5,4.6,14.6,15.1,15.5c105.3,9,210.6,18.2,315.9,27.9c12.3,1.1,16.7-1.1,15.3-14.5
			c-3.5-32.6-7.3-65.3-8-98.1c-2.9-130.6-3.6-261.2-7.1-391.7c-3.4-129.6,0.1-259.3-3.5-389
			C1720.8,1387.8,1722.8,1326.6,1724,1281.2z M1825.5,1410.7c28.5-0.1,60.5-3.3,92-9.5c69.3-13.5,135.6-33.5,179.2-95.5
			c36.3-51.8,64-107.8,84.8-167.7c21.3-61.4,21.1-121.9-2-182.5c-15.5-40.6-31.5-80.9-46.2-121.8c-25.7-71.9-39.6-145.4-32.4-222.5
			c3.9-42.1,13-83.2,20.1-124.7c9.8-57-2.5-106.6-46.9-145.5c-72.7-63.8-158.1-90.1-253-74.4c-126,20.9-184.4,117.8-201.1,227.2
			c-3.2,21.2,1,38.7,11.9,56.8c19,31.5,35.5,64.5,48.7,98.9c50,131.2,71.7,268.3,84.4,407.3c9.4,102.8,7.3,206,9.1,309.1
			C1774.8,1412.6,1774.9,1412.6,1825.5,1410.7z M1398,2532.2c9.7,61.4,8.5,123.2,17.6,184.2c7.8,52.4,25,100.9,73.6,129.8
			c73.8,44,151.5,49.9,230.7,16.1c42.8-18.2,59.3-49.9,55.7-96.6c-2.6-33.3-4.4-66.8-6.6-100.1c-5.5-85.4-6.6-171.2-16.3-256.4
			c-1.2-10.3-3.2-17.3-15.9-18.3c-107.3-9-214.5-18.4-321.7-28.3c-14.4-1.3-17.7,2.6-17.4,17.1
			C1398.7,2430.6,1398,2481.4,1398,2532.2z M1318.8,1148.6c-1.7,0-3.3,0-5,0c0-26.1,1.2-52.3-0.2-78.3
			c-2.8-51.5-8.7-102.5-29.9-150.6c-13-29.4-30.5-43.5-65.6-41.1c-108.2,7.5-227.7,82.8-221.1,229.4c3.2,70.6,44,133.1,106.2,150.7
			c67.7,19.1,135.9,17.2,203.3-4.7c10.8-3.5,12.6-9.3,12.5-19C1318.5,1206.2,1318.8,1177.4,1318.8,1148.6z"/>
		<path class="st0" d="M1776.3,1118.7c-4.7-38.8-3.1-78.6,13-116.7c11.4-26.9,26.5-52.6,49.9-69.3c30.3-21.6,34.7-54,36.8-84.1
			c2.9-40.9,2.5-80.9,23.9-118.3c10.1-17.7,2.3-37-8-53.1c-16.2-25.3-33.4-50.1-50.7-74.7c-40-56.9-69.1-119-91.1-184.7
			c-3.9-11.8-2.3-16.9,10.3-20.6c32-9.2,32-9.9,42.4,22c25.1,76.7,68.3,143.3,115.7,207.6c14.1,19.1,25.9,39.3,30.5,62.6
			c2.3,11.7,7.5,11.6,16.7,9.1c22.6-6.1,33.5-19.3,36.1-44.7c4.2-41.4,3.9-82.9,3.4-124.4c-0.2-15.1,4.3-21.7,19.2-18.4
			c11.7,2.6,31.7-9.7,30.2,17.7c-2.2,42.1,1.2,84.3-3.3,126.4c-5.8,54.5-36.6,88.2-91.4,94.9c-11.9,1.4-17.2,5.8-22.3,15.8
			c-9.7,19.2-13.3,39-11.4,60.2c1.8,20.9,1.4,42.1-7.3,61.2c-8.6,18.8-3.6,32.9,8.1,47.6c47.5,59.5,79.8,126.4,96.7,200.7
			c7.3,32.1,10.6,64.6,12.1,97.5c0.6,12.7-2.7,17.6-16.4,17.6c-33.2,0-32.2,0.6-33.9-31.9c-5-93.7-37.8-177-95-251.2
			c-7-9.1-10.6-6.2-16.8-0.5c-31.6,29.1-50.2,64.5-49.8,107.8c0.5,50.1,0.1,100.5,8.5,150.2c2.8,16.9-2.6,23.4-18.7,23.8
			c-4.7,0.1-9.5,0.1-14,1.4c-10.8,3.1-14.5,0.3-16.1-11.6C1778.9,1199.1,1776.2,1159.8,1776.3,1118.7z"/>
	</g>
</g>
</svg>
