<?xml version="1.0" encoding="utf-8"?>
<!-- Generator: Adobe Illustrator 23.0.0, SVG Export Plug-In . SVG Version: 6.00 Build 0)  -->
<svg version="1.0" xmlns="http://www.w3.org/2000/svg" xmlns:xlink="http://www.w3.org/1999/xlink" x="0px" y="0px"
	 viewBox="0 0 3000 3000" style="enable-background:new 0 0 3000 3000;" xml:space="preserve">
<style type="text/css">
	.st0{stroke:#000000;stroke-width:10;stroke-miterlimit:10;}
</style>
<g id="Layer_1">
</g>
<g id="Layer_2">
	<g>
		<path class="st0" d="M1268,2843.6c-215.3,1.8-419.2-30-606.6-135.5c-245-137.9-408.1-345.3-503.6-606
			c-192.2-524.7-114-1009.4,233.7-1445.9c216.7-272.1,505.9-431,844.9-497.4c230.1-45.1,463.3-65.3,697.6-43.5
			c440.6,41,765.7,309.3,899.2,736.2c59.4,189.8,81.7,384.3,77.9,582.7c-3.4,172.3-21.1,342.7-73.5,507.3
			c-97.1,305.1-294.2,528-572.5,681.1c-198.1,109-412.4,167.7-635.4,196.4C1508.3,2834.5,1386.3,2839.9,1268,2843.6z M2357.5,2501.8
			c13.1-8.4,19.3-12.1,25.2-16.2c112.9-80.5,205.5-180.2,280.9-296.2c97.6-150.3,149.3-316.1,173.6-492.8
			c35.5-257.4,31.4-512.4-35.7-764.5c-55.4-207.7-151.9-391.9-316.5-535.3c-8-7-14-19-28.7-16.7c-0.7,5.5-1.3,10.7-2,15.9
			c-35.4,256.9-156.1,460.8-380.6,595.4c-178.5,107-373.7,140.2-579.9,114.9c-356-43.8-619.9-290.1-629.6-674.4
			c-0.7-29-0.1-58.1-0.1-87.2c-1.2,0-3.4-0.6-5,0.1c-6.7,3-13.3,6.3-19.9,9.7c-163.2,85-301.8,200.7-414.9,344.7
			C196,989.5,80.5,1316.6,115.8,1689.4c22.6,238.7,93.4,461.2,229.4,660.7c92.5,135.7,211.7,241.7,356,319.9
			c17.7,9.6,24.9,12.1,29.1-13.3c20.1-120.9,28.7-242.7,27.4-364.9c-2.1-197.8-30.2-392.3-87.6-581.8c-7.8-25.8,3.7-27.9,21.8-35.7
			c24.4-10.5,25.4,5.5,29.6,20.2c39,136.7,65.6,275.5,79.2,417.3c17.8,185.7,10.9,370-19.6,553.6c-4.8,28.9-3.5,47.9,30,55.1
			c23.5,5,45.8,15.5,68.9,22.6c203.9,62.5,412.4,48,620.7,37.5c16-0.8,21.7-9.5,23.3-24c3.1-29.3,7.4-58.5,10.2-87.8
			c18.3-190.5,16.2-380.6-14.6-569.9c-22.7-139.5-55.8-276.3-104.3-409.1c-9.2-25.3,7.7-25.5,20.9-31.9c14.6-7.1,23-6,29.6,12.7
			c70.9,199.3,114.1,404.6,128.1,615.3c10.3,154.6,7.2,309.5-16.9,463.1c-3.1,19.8,3,22.1,21.5,20.4c76.7-7.1,152-22.1,226.8-39.2
			c158.9-36.3,310.3-92.1,451.4-174.6c13.2-7.7,23.3-15.2,25.3-32.8c20.5-185.4,16.8-370.1-15.4-553.9
			c-17.4-99.6-41.7-197.6-75.3-293c-7.2-20.6-0.9-27.6,17.9-33.9c17.1-5.8,25-6.2,31.9,14.2c62.3,184.5,98.2,373.7,104.7,568.4
			C2368.8,2314.7,2366.4,2404.9,2357.5,2501.8z M2284.4,717c1.3-8.3-3.2-11.6-7.2-14.8c-40.3-32.1-80.8-63.9-120.9-96.3
			c-11.7-9.5-17.6-4.1-25.6,5c-37.5,42.6-75.1,85.2-114,126.6c-12.5,13.3-9,19.7,3.5,29.1c39.4,29.8,78.4,60.2,116.9,91.2
			c12.4,10,20.8,9,32.1-1.9c40.3-38.9,77-80.6,107.9-127.3C2280,724.4,2282.6,719.9,2284.4,717z M1799.8,593.9c3.5-2.4,7.2-4.3,10-7
			c44.3-43.6,88.2-87.5,132.7-130.9c10.3-10,5.4-15.5-3.2-22.2c-31.4-24.7-63-49.2-93.7-74.8c-11.9-9.9-18.9-6.5-28.6,2.8
			c-43.2,41.6-87,82.6-131,123.5c-8.8,8.2-10.7,12.8,0.6,21.3c34.5,25.8,68,53.1,101.9,79.7C1792,588.8,1795.6,590.9,1799.8,593.9z
			 M1435.1,380.7c-8.8-8.1-12.9-12.4-17.6-16.1c-27.3-21.3-55.4-41.6-81.7-64.1c-13.6-11.7-21.9-9.2-34.2,1.5
			c-45,39.4-90.8,77.9-136.7,116.3c-9.8,8.2-14.6,13.6-0.4,22.8c33.4,21.7,66.3,44.3,98.8,67.3c10.7,7.6,17.8,5.9,27-2.5
			c42.6-39,85.7-77.4,128.8-115.8C1423.1,386.7,1428.3,384.7,1435.1,380.7z M1791,321c-7.4-9.2-8.9-12-11.2-13.8
			c-30.5-24.3-61.2-48.2-91.4-72.7c-9.2-7.5-14.7-2.4-21.2,3.5c-45.3,40.9-90.5,82-136.4,122.3c-12,10.5-11.9,16.8,1,26.3
			c28.8,21.2,57,43.2,84.7,65.9c11.3,9.3,18.7,8.8,29.2-1.4c42.2-41.1,85.2-81.6,128.3-121.8C1778.4,325,1785.5,323.6,1791,321z
			 M2099.6,564.3c-2.8-3.5-4.3-6.4-6.7-8.3c-29.5-23.6-59.3-46.8-88.5-70.7c-9.8-8.1-14.9-1.7-20.9,4.2
			c-42.6,42.1-84.9,84.4-127.8,126.1c-10.2,9.9-9.7,16,1.6,24.4c30.3,22.5,60.6,45.2,89.6,69.3c12.8,10.7,19.1,6.1,27.9-3.9
			c36.8-41.7,74.3-82.8,111.4-124.2C2091.1,576,2095.2,570.1,2099.6,564.3z M1592.8,506.2c-5.5-7.2-7.4-11-10.4-13.4
			c-32.3-25.3-65-49.9-96.9-75.5c-11.3-9.1-16.8-0.8-23.6,5.3c-41.5,37.2-82.6,74.8-124.7,111.4c-11.7,10.2-13,16,0.7,24.9
			c32.5,21.3,64.8,43,96.3,65.7c12.9,9.3,21.4,7.7,32.3-3c36.1-35.3,73-69.7,109.8-104.3C1581.1,512.9,1587,510.1,1592.8,506.2z
			 M1496.5,665.8c42.8,29.3,82.9,56.2,122.4,84.1c11.8,8.3,19.2,6.6,29.1-3.4c33.2-33.7,67-66.9,101.6-99.3
			c12.4-11.6,9.2-18.1-2.4-26.8c-32.8-24.6-65.4-49.5-97.4-75.2c-9.8-7.8-16.5-10-26.6-0.2C1582.6,584.6,1541.2,623.4,1496.5,665.8z
			 M956.5,299.2c47.1,32,91.4,61.7,135.1,92.3c11.2,7.8,18.1,5,27.1-2.9c46.8-40.6,94.1-80.6,141-121.1c4.9-4.2,17.4-8.9,10.3-15.7
			c-15.5-14.6-30.7-39.6-52.9-34.8C1129.1,235.9,1042.4,260.4,956.5,299.2z M1236.2,553.7c-40.3-27.4-77.5-52.8-114.8-77.9
			c-6.8-4.6-13.2-9.3-22.1-1.5c-42.4,36.8-85.3,73-130.4,111.4c43.9,27.2,85,52.2,125.6,77.9c8.6,5.4,14.5,5,22-1.7
			C1155.2,626.4,1194.2,591.5,1236.2,553.7z M1923.9,761.1c-3.1-3.5-5.5-7-8.7-9.5c-33.1-25.8-66.5-51.1-99.3-77.3
			c-10.9-8.7-16.8-2.3-23.7,4.6c-32.8,32.6-65.2,65.5-98.6,97.4c-11.8,11.3-10.3,17.6,2.6,26c34.2,22.4,68.2,45.2,101.6,68.9
			c12.9,9.2,21,8.3,31.4-3.7c27.4-31.8,56.1-62.5,84.2-93.7C1916.8,769.9,1920,765.8,1923.9,761.1z M1403.2,666.9
			c-32.3-21.7-71.4-47.6-110.1-74.3c-8.5-5.9-14.5-5.7-22,1.2c-38,34.5-76.2,68.6-117.3,105.6c45.2,27.6,88,53.3,130.3,79.9
			c10.2,6.4,15.6,1.2,21.3-5C1338,738.7,1370.4,702.9,1403.2,666.9z M1340.2,813.8c46.8,29,89.8,55,132,82.1
			c12.5,8,19.9,5.4,29.4-4.4c26.3-27.1,53-53.9,80.6-79.8c11.4-10.7,11.8-16.3-2-25.2c-36.2-23.2-71.9-47.1-106.7-72.3
			c-13.6-9.8-21.3-6.3-31.8,3.9C1409.2,749.7,1376,780.2,1340.2,813.8z M1564.7,170.4c-71.2-2.2-137.9,7.3-187.7,66.7
			c-9.3,11.1-18,16.1-1.1,28c28.3,19.9,55.7,41.3,82.1,63.7c12.7,10.7,20.4,8.6,31.4-1.7c40.9-37.8,82.8-74.5,124-112.1
			c7.4-6.7,22.8-13.7,17.9-22.9c-6.2-11.9-18.9-22.8-35.2-23.2C1585.7,168.7,1575.2,169.9,1564.7,170.4z M2114.4,900.6
			c-7.7-3.4-13.3-4.6-17.4-7.8c-39.1-30-78.2-60-116.6-90.9c-12.2-9.9-18.3-3.1-25.7,5.1c-27.3,30.4-54.5,61.1-82.4,90.9
			c-10.2,10.8-11.6,17,2.6,25.8c26.7,16.5,52.5,34.6,78.1,52.9c11.5,8.2,21.3,9.6,34.4,2.8c36.4-18.8,71.9-38.9,105.7-62
			C2098,914.1,2102.5,910.1,2114.4,900.6z M1534.9,933.4c38.2,23.7,74.5,46.4,111,68.9c39.3,24.2,39.4,24.2,69.4-8.6
			c17-18.6,33.1-38.1,50.7-56.1c10.4-10.7,12-17.1-2-26.2c-37-23.9-73.3-48.9-109.4-74.1c-10.6-7.4-17.6-6.3-26.5,2.9
			C1598,870.9,1567.3,901,1534.9,933.4z M1359.7,1025.2c6.6-1,10.7-4.3,14.5-8.1c21.7-21.4,43.1-43,65-64.1
			c12.6-12.1,0.4-15.4-6.8-19.9c-23.1-14.5-46.5-28.4-69.6-42.7c-62.6-38.8-62.5-38.9-115.7,12c-52.6,50.4-53,51.1,14,82.5
			C1293.2,1000,1326.8,1011.9,1359.7,1025.2z M2087.8,310.1c-3-4-4.5-6.8-6.7-8.8c-31.4-28-62.9-55.9-94.3-83.9
			c-8.7-7.8-14.5-3.1-21.1,3.3c-27.3,26.2-54.6,52.4-82.7,77.9c-10.6,9.6-10,15.6,1.1,24.1c31.7,24.3,63,49.1,93.7,74.7
			c10.8,9,17.6,6.8,26.3-2.2c24.2-24.8,49.2-49,73.7-73.5C2081.5,317.9,2084.5,313.9,2087.8,310.1z M1249.6,825.4
			c-1.4-6.9-7.4-9.3-12.5-12.4c-20.5-12.7-41-25.4-61.6-37.8c-68.9-41.6-68.6-41.3-125,15.9c-9.5,9.7-9.7,16.1-1.5,26.1
			c27.3,33.5,56.9,64.5,90.4,91.8c5.6,4.6,11.5,10.5,19.1,3.4c29.1-27.2,58.1-54.5,87.2-81.9C1247.2,829,1248.3,827.1,1249.6,825.4z
			 M2265.8,465.5c-3.4,1.8-6.7,2.6-8.6,4.7c-23.8,26.5-47.5,53-71,79.8c-7.8,8.9,1,13.1,6.2,17.3c36.7,29.5,73.5,58.8,110.6,87.9
			c5.2,4.1,12.1,11.4,17.8,0.6c16.6-31.5,35.6-63.7,39.2-98.4c2.3-22.7-28.8-32.6-44.3-48.7c-11.6-12-24.8-22.5-37.5-33.5
			C2274.4,471.8,2270.2,468.8,2265.8,465.5z M2136.1,521.5c3.5-2.2,6.6-3.4,8.6-5.6c23.8-26.5,47.3-53.3,71.2-79.6
			c8.6-9.5,2.1-14.7-4.4-20.4c-22.9-20-46.2-39.5-68.4-60.2c-10.2-9.6-16.7-8.2-25.8,1.2c-23.3,24.1-47.1,47.8-71.5,70.8
			c-10.4,9.8-9.6,16.3,1.3,24.6c25.8,19.7,51.1,40.1,76.6,60.1C2127.7,515.6,2131.9,518.5,2136.1,521.5z M931.1,547.6
			c41.9-35.5,80.7-68.7,119.9-101.4c9-7.6,8.5-12.6-1-19c-38.2-25.7-76.1-51.8-114.2-77.7c-8.8-6-15.8-6.6-16.2,7
			C917.8,419,914,481.6,931.1,547.6z M1941.9,169.6c-59.6-7.6-110.8-7.8-161.8-10.4c-20-1-33.4,8.1-47.3,19.8
			c-10.9,9.1-11,15,0.5,23.7c27.5,20.8,54.5,42.3,81.4,64.1c8,6.5,14.2,11.3,23.8,1.9C1870.4,237.5,1903,206.8,1941.9,169.6z
			 M2259,385.4c8.2-8,16-14.8,23-22.4c70.4-76.1,69.8-78-29.2-115c-8.8-3.3-15.9-6.1-25.7,1.3c-61.6,46.4-62.4,54-6.7,104
			c9.4,8.4,19,16.5,28.6,24.7C2251.9,380.7,2255.4,382.9,2259,385.4z M2381.3,494.9c14.7-51.3,21-99.5,24.8-148.2
			c0.6-8.2-2.3-14.2-9.5-18.2c-8.8-4.8-13.6,1.4-18.5,6.8c-22.5,24.9-44.7,49.9-67.4,74.6c-7.7,8.4-9.7,15,0.2,23.4
			C2333.7,452.8,2356.1,472.8,2381.3,494.9z M1423.6,1040.6c73.4,15.4,139.3,25.5,214.5,19.2c-48.4-29.8-90.9-55.6-133-82
			c-8.2-5.1-13.2-2.6-19,3C1466.8,999.4,1447.3,1017.9,1423.6,1040.6z M1733.8,1053.4c63.5-8.3,117.6-21.3,174.4-43.1
			c-27.3-18.7-50.8-34.5-73.8-50.8c-7.5-5.4-12.9-4.8-18.9,1.9C1790,990.4,1764.3,1019.1,1733.8,1053.4z M2034.6,188.6
			c28,24.9,56,49.8,83.8,74.9c6.3,5.7,11,7.9,18,0.4c10-10.7,20.9-20.4,31.7-30.3c10-9.3,8.8-15-4.5-19
			C2121.7,202,2079.9,189.2,2034.6,188.6z M958.9,642.3c2.3,30.5,25.5,81.1,51.3,113.5c13.4-11.6,26.2-23.9,40.2-34.7
			c13.8-10.5,10.4-17-2.5-24.6C1018.4,679.1,989.3,660.9,958.9,642.3z"/>
		<path class="st0" d="M736.9,732.4c55.3,0.2,96.1,40.4,95.9,94.4c-0.3,52.6-44.7,96.5-96.9,95.5c-51.1-0.9-94-44-94.7-95
			C640.4,774.5,683,732.3,736.9,732.4z"/>
		<path class="st0" d="M2229.9,1025.1c52.4,0.6,95.7,45.3,94.7,97.8c-1,51.8-43.3,93.8-95,94.2c-52,0.4-97.6-44.5-97.3-96
			C2132.5,1069.6,2178.4,1024.5,2229.9,1025.1z"/>
		<path class="st0" d="M986.2,1054.7c52.5,0.3,94,41.1,94.5,93.1c0.5,51.7-44.4,97.1-96.1,97c-51.7,0-96.5-45.4-96-97.1
			C889.2,1094.4,931.1,1054.4,986.2,1054.7z"/>
		<path class="st0" d="M1572.7,1168.6c54.8-0.3,96.8,40.5,96.4,93.5c-0.4,50.8-43.1,94.1-94.2,95.4c-51.9,1.4-97-42.4-97.7-94.9
			C1476.4,1209.1,1517.2,1168.9,1572.7,1168.6z"/>
		<path class="st0" d="M1231.4,1187.9c53.9-0.1,96.7,42.3,96.2,95.1c-0.5,52.9-44.2,95.3-97.5,94.7c-51.9-0.6-93.8-42.5-94.5-94.4
			C1135,1230,1177.2,1188,1231.4,1187.9z"/>
		<path class="st0" d="M2019.5,1215.1c0.1,54.1-41.7,95.8-95.8,95.5c-53.5-0.3-96-43.5-95.2-96.7c0.7-51.1,43.4-93.8,94.8-94.8
			C1975.3,1118.1,2019.4,1162.2,2019.5,1215.1z"/>
		<path class="st0" d="M2569,889.7c-0.3,53.1-44.1,96.3-96.7,95.3c-52.9-1-94.9-45-93.9-98.2c1-52.2,42.9-93,95.3-93
			C2527.7,793.7,2569.3,835.6,2569,889.7z"/>
	</g>
</g>
</svg>
