<?xml version="1.0" encoding="utf-8"?>
<!-- Generator: Adobe Illustrator 23.0.0, SVG Export Plug-In . SVG Version: 6.00 Build 0)  -->
<svg version="1.0" xmlns="http://www.w3.org/2000/svg" xmlns:xlink="http://www.w3.org/1999/xlink" x="0px" y="0px"
	 viewBox="0 0 3000 3000" style="enable-background:new 0 0 3000 3000;" xml:space="preserve">
<style type="text/css">
	.st0{opacity:0.46;}
	.st1{stroke:#000000;stroke-width:10;stroke-miterlimit:10;}
</style>
<g id="Layer_1" class="st0">
</g>
<g id="Layer_2">
	<g>
		<path class="st1" d="M556.3,2202.9c-10.5-4.5-14.5-6.4-18.7-7.9c-166.7-60.2-253.2-184.4-269.7-355.3
			c-21.3-220.2,48.9-412.7,197.2-576.6c14.2-15.6,30.5-29.6,47.3-42.4c16-12.3,33.9-22.1,53-34.3c-40-30.4-76.4-63.4-106.7-103
			C333.8,920.3,324,697.9,434.6,528.6c110-168.4,320.3-251,517.7-202.9c11.1,2.7,28.6,1.3,21.5,22.6c-5.2,15.6-5.8,29.2-32.2,22.9
			c-224.9-53.9-449.9,72.3-518.2,288.3c-10.1,32-10.1,32,23.8,31.1c186.4-4.8,372.8-9.8,559.2-14c20.7-0.5,28.1-4,24.1-27.5
			c-9.2-55.1,13.5-100.7,49.9-140.4c36.7-39.9,81.5-69.1,129.2-94.1c147.1-76.8,305.3-119.3,467.1-149.6
			c272.5-51,545.1-49.4,817.1,4.3c76,15,150.4,36.3,219.8,71.7c144.6,73.8,170.6,183.8,73.9,314.5
			c-64.9,87.6-150.8,151.4-242.7,207.3c-122.3,74.4-253.7,126.8-392.8,160.1c-8,1.9-15.8,4.4-29.2,8.1
			c113.2,33,164.3,118.6,205.2,221.7c12-45.6,23.7-83.9,32.2-122.9c40.6-184.4,190.5-197.1,311.1-162.8c11.8,3.3,25.7,15.7,34.7,7.9
			c8.4-7.3-3.6-21.7-5.7-33.2c-1.6-9.1-4.3-18-5.7-27.1c-4.8-31,12.8-53.6,44.5-52.1c61.3,2.9,105,37.3,129.6,90
			c28.4,61.1,35.8,127.9,26.1,194.8c-8.4,58.3-47.8,92.2-100.9,110.2c-20.8,7-21.2,14.4-13.5,32.9c28.6,68.2,14.8,133.4-19.7,195.4
			c-5.4,9.7-6.5,15.1-0.5,23.9c45.5,66.5,39.2,142,36.5,216.6c-0.5,14.7-7.5,30-20.3,37.9c-17.3,10.7-12.2,20.8-6.9,36
			c29.1,84,13.7,164-30.2,238.2c-23.5,39.8-65.3,53.5-116.7,55.6c21.1,11,37,17.9,51.4,27c125.1,79.7,153.3,246.4,60.5,371.3
			c-72.9,98.1-176.4,131.6-294.4,128.3c-32.2-0.9-64.4-4.8-94.5-18c-34.9-15.4-53.3-40.4-52.1-71.1c1.2-31,24.3-56.7,59.6-68.4
			c31.6-10.5,62-3.3,92.6,4c32.8,7.8,65.3,13.8,94.8-10.7c33.1-27.5,44.2-65.8,29.4-104.2c-17-44.2-61.6-72.6-109.3-69.3
			c-20.4,1.4-40.7,5.4-57.8,17c-25.3,17.2-26.1-10.3-35-19.6c-13.1-13.7,5-16.2,11.4-20.1c66.7-39.6,149.8-29.3,201.1,24.2
			c43.3,45.2,53.9,111,26.3,163.7c-28.8,55-83.8,80.5-149.4,68.9c-19-3.4-38-7.4-56.8-11.9c-12.3-2.9-24-1-35.3,3.1
			c-12.5,4.5-24.9,11.3-25.6,25.9c-0.7,14,11.8,19.8,22.6,25.2c154.1,77.6,375.4-53.4,380-225.1c3.1-117.2-84.8-204-211.4-208.9
			c-80.5-3.1-152,23.8-219.3,65.1c-16.5,10.1-32,22-48.7,31.7c-19.4,11.3-24.7,19.8-6.6,40.4c33.5,38.2,26.8,82.3,5.7,124.4
			c-23.6,47.1-61,83.1-100.3,117c-144,124.4-313.2,193.4-498.1,231.2c-160.3,32.8-322,52.2-484.6,66.8
			c-167.2,15.1-334.2,33.4-502.4,34.7c-131.3,1-262-4.7-390.5-35.3c-36-8.6-71-20-102.8-39.6c-68.3-42.1-100-115.2-86.6-194.6
			c16.1-95.5,71.9-164.5,145.9-220.5c87.9-66.6,187.4-109.8,293.6-138C540.4,2207.6,544.6,2206.3,556.3,2202.9z M1242.3,1105.3
			c-175.8,20.5-345.5,38.2-511.8,77.7c-72.7,17.3-146.8,34.3-204.4,85.8c-98.6,88-157.3,200.7-192.9,326.5
			c-4.2,14.9,2.3,24.3,12.5,33.6c66.1,59.9,145.5,75.5,231.3,69.9c9.4-0.6,15.3-3.7,16.1-14.6c2.3-32.2,7.4-64.2,5.3-96.6
			c-1.5-23.9-13.1-39.6-37.7-44.3c-14.6-2.8-29.7-6.3-43.9-1.7c-28.5,9.2-31.1-12.2-33.9-29.1c-4.2-24.8,18.5-14,28.6-16.6
			c16.7-4.3,34.7-2.4,52.1,1c51.5,10.1,77.7,38,80.6,90.1c1.9,35-1,70.1-5.9,104.9c-4.6,32.4-18.2,47.3-50.9,52.2
			c-61.7,9.2-121.2-1.4-179.1-22.9c-32.3-11.9-61.7-29.4-90.6-53.5c-10.1,68.9-12,132.6-0.6,195.6
			c27.6,152.7,112.8,253.9,265.2,297.3c103.4,29.5,208,25.3,313.1,21.8c16-0.5,14.1-10.6,14.7-20.6c4.2-69.2,13.7-137.7,34.5-204
			c18.5-59.1,61.4-78.7,118.8-56c10.3,4.1,20.2,9,30.3,13.6c15.6,7.1,24.6,3.6,26-14.9c1.1-15.6,3.6-31.1,4.9-46.7
			c3.3-41,16.8-76.9,56.9-94.2c50.5-21.8,103.8-32.3,159.1-28.3c32,2.3,59.1,13.7,72.5,46.2c13.7,33.2,2.6,61.5-17.9,87.1
			c-13.2,16.5-30.2,30-43.1,46.7c-7.5,9.8-28.1,23.3-17.6,31.4c13.2,10.1,32.8-2.7,46-15c3.9-3.6,5.8-9.3,8.6-14.1
			c4.2-7.2,8-14.6,12.5-21.5c14.6-22.2,35.1-33.3,61.4-27.2c27.1,6.2,34.8,28.4,36,52.8c3.4,67.3,2.8,134.7,0.9,202
			c-0.4,13.2-0.6,22.5,18.7,20c83.2-10.6,166.7-19.4,248.9-36.5c106.4-22.1,209.7-52.7,297.2-120.4c126.7-98,191.7-233.1,227-385.2
			c10.4-44.7,9.6-43.3-36.5-43.8c-67.2-0.7-134.2,5.1-201.6,2.4c-53.7-2.2-101.1,23-148.5,46.3c-41.2,20.2-85,22.6-123.4-6.3
			c-38-28.6-34.3-70.4-27-111.6c9.1-51.8,37.5-75.1,88.6-67c21.3,3.4,25.8-4.8,28.6-21.1c0.9-5.4,3.2-10.7,3.8-16.1
			c2.2-17.5,12.6-14.4,23.9-10.2c10.1,3.7,27.3,0.4,21.4,20.2c-22.6,76.2-1.5,84.1-89.2,71.5c-16.8-2.4-26.9,5.7-30.2,21.3
			c-2.7,12.5-4.4,25.6-4.4,38.4c-0.1,35.5,15.9,50.3,51.6,48.6c21.7-1,41.6-9.1,59.7-19.9c47.4-28.3,98.8-38.2,153.5-38.8
			c72.9-0.8,145.9,2.1,218.6-5.4c10-1,22.7,2.5,22.7-15.8c0-61.7,6.7-123.6-10.1-184.4c-47.6-172.6-118.1-232.8-267.8-245.7
			c-108.7-9.4-217.6-4.7-326.3,1.7c-17.6,1-15.3,12.4-15.6,22.9c-1.9,73.8-40.3,124.4-101.6,160.4c-55.8,32.7-114.3,59.4-174.8,82.3
			c-62.2,23.6-126.1,35-192.5,28.1c-38.9-4.1-75.9-15.8-92.9-54.9c-16.5-38,5.5-66.7,29.9-93.5
			C1180.7,1175,1209.1,1142.5,1242.3,1105.3z M1825,2142.9c40.1,5.2,80.1,10.5,120.2,15.5c74.1,9.2,148.4,18.7,218.6,45.3
			c23.5,8.9,38.9,6.9,58.9-8.2c96.2-72.8,200.1-125.8,326-114.4c17.9,1.6,16.4-8.8,16.5-20.3c0.6-61.8,3.1-123.7,2-185.5
			c-2.4-133.7,5.2-267.6-7.6-401c-4.4-45.8-13.4-91.3-11.7-137.7c2.5-69.4,50.6-112.7,119.8-106.7c39.5,3.4,77.2-3,113.8-16.8
			c48.7-18.3,70.6-49.1,71.3-100.6c0.6-43.7-6.6-86.7-20.1-127.9c-13.8-42.1-46.2-65.4-89.1-77.8c-2.4,11,0.5,17.7,2.5,24.8
			c7.5,27.5,19.5,56.9-5.3,80.7c-24.4,23.4-52.5,8.3-78.2,0.1c-38.5-12.3-77.4-16.2-117.3-11.8c-60.1,6.6-103.5,35-124.5,94
			c-55.4,155.8-76.4,316.3-67.8,481c4.9,94.4,1.6,188.4-21.6,280.3c-21.8,86.3-75.9,124.3-164.2,118.4c-14-0.9-24.3,1.7-34.6,11.7
			c-40.9,39.2-88.5,68.8-139.2,93.6C1939.3,2106.2,1882.2,2123.8,1825,2142.9z M699.1,2791.3c50.7-2.3,101.4-4,152-7.2
			c50.6-3.2,101.1-8.5,151.7-11.7c18.5-1.2,25.8-7.9,24.7-27c-1.5-26.7-1.8-53.6,0.1-80.2c1.7-23.1-7.9-24.8-27.5-22.6
			c-48.5,5.4-97.4,9.7-146.3,5.4c-69.9-6.1-93.8-39.8-76.2-107.8c2.4-9.2,2.6-13.9-5.8-20.4c-37.1-28.6-42.4-69-14.8-108.7
			c18.9-27.2,44.5-46.4,74.7-59.6c42.1-18.4,86.8-24,131.9-27.2c64.4-4.6,63.5-4.5,64.1-68c0.2-21-5.5-26.9-26.5-24.9
			c-82.8,7.5-166,7.4-248.9,3.2c-177.9-9.1-336.3,45.9-479.4,147.4c-67.9,48.1-118,110.5-131,197.1c-8.8,58.7,12.9,110.7,63.6,142.2
			c36.6,22.7,77.7,32.6,119.3,41.4C448.2,2788.7,573.4,2792.3,699.1,2791.3z M1264.9,445.5c90.2,0,180.3,0.4,270.5-0.3
			c18.1-0.1,28.2,1.1,28,24.4c-0.2,23.1-11.6,21.8-27.4,21.8c-113.5-0.3-227-0.2-340.5-0.1c-9.9,0-20.2-2.4-29.4,4.3
			c-30,21.9-58,45.8-77.2,78.2c-13.9,23.4-11.8,26.7,16.1,26.8c143.9,0.1,287.9,0.3,431.8-0.2c17.2-0.1,26.6,1.3,26.5,23
			c-0.1,21-8.2,23.3-26,23.3c-143.9-0.6-287.9-0.4-431.8-0.3c-9.6,0-19.1,0.9-30,1.4c12,50.1,43.5,83.4,76.2,116.2
			c13.9,14,28.7,20.2,48.9,19.9c84-1,167.9,0,251.9-0.7c18.4-0.2,27.9,1.6,27.8,24.6c-0.1,23.6-12.3,21.7-27.7,21.5
			c-34.1-0.4-68.3-0.1-102.4-0.1c-34.4,0-68.9,0-110.7,0c36.4,26.4,69.5,41.9,102.5,57.3c155.4,72.8,318.6,113.7,490.3,120.4
			c16.6,0.6,24.3-2,24.2-21.8c-0.7-226.1-0.7-452.1-0.1-678.2c0-17.5-4.6-22-21.9-19.7c-130.8,17.4-260.1,41.8-386.3,81.1
			C1385,387.9,1322.8,409.8,1264.9,445.5z M2787.4,464.7c-12.6-23.1-25.7-35.9-40.3-47.4c-41.2-32.4-88.1-53.9-137.5-69.6
			c-166.8-53.3-338.9-69.5-512.9-72.8c-17.2-0.3-19,7.1-19.3,21.3c-5.3,225.1-10.8,450.2-17.2,675.3c-0.6,20.3,4.8,22.5,22.8,19
			c201.2-39.7,385.4-117.5,548.4-243.3c4.1-3.2,12.7-4.6,9.8-13.5c-2.1-0.4-3.9-1.1-5.7-1c-106.8,5.9-213.7,12-320.5,17.7
			c-8,0.4-18.1,6.5-23.1-7.1c-9.2-25-2-38.4,24.4-39.9c116-6.5,232.1-12.7,348.2-18.6c42.6-2.1,71.2-23.1,85.5-63.6
			c-33.6,0-67.6-0.7-101.7,0.1c-114.4,2.9-228.8,6.2-343.1,9.9c-15.9,0.5-24.2-2.7-22.8-20.9c1-14.3-1.6-25.7,20.6-25.6
			c59.9,0.1,119.9-3.1,179.9-4.8c94.1-2.7,188.2-5.1,282.3-8.1c21.3-0.7,33.5-19.8,32.8-47.5c-0.7-25.3-19.8-14.3-30.6-14.3
			c-132,0.8-264,2.4-395.9,4.4c-17.6,0.3-26.3-2.2-26.9-23.2c-0.7-22.7,10.6-22.5,27-22.7c92.3-0.9,184.6-2.6,276.9-3.7
			C2693,464.2,2737.9,464.7,2787.4,464.7z M1300.7,2743.4c123.2-11.6,238.4-30.5,353.3-53.5c175.4-35,336.5-99.6,473.5-217.5
			c35.8-30.8,69.9-63.3,92.7-105.3c23.1-42.6,14.7-72.8-25.9-98.8c-22.8-14.6-47.8-24.2-73.7-30.8c-115.6-29.4-233.7-42-352.3-51.1
			c-108.1-8.3-215.5,3-323.1,11.3c-23.9,1.8-29.8,9.6-24.2,32.3c4.6,18.6,6,38.3,6.8,57.6c0.7,15.8,7.2,20.4,22.3,19.2
			c47-3.7,94.1-0.4,141.1,1.7c62.1,2.8,100.2,29.6,116.5,79.9c30.1,92.7-24.1,169.2-121.1,168.9c-57.2-0.2-114.3-3.3-171.4-5.3
			c-9.5-0.3-17.3-1-21.4,11.1C1372.1,2625.7,1341.6,2684.2,1300.7,2743.4z M1583.6,1024.9c0-1.6-0.1-3.3-0.1-4.9
			c-4.1-1.2-8.3-2.4-12.4-3.5c-88.6-22.5-175.1-51.2-257.1-92c-96.4-48-188.3-102.3-251.3-193.5c-8.6-12.5-18.9-8.8-29.1-8.6
			c-93.1,2.1-186.2,4.4-279.3,7c-107.9,2.9-215.7,6.2-323.6,9.3c-12.7,0.4-25.5-2-26.2,18.5c-5.5,169.2,60.2,302.3,199.7,398.8
			c10.9,7.5,20.8,8.8,33.4,4.7c79.9-26.1,162.4-41.2,245.1-54.8c208.4-34.2,418.5-53.2,628.6-72.8
			C1535.5,1030.9,1559.5,1027.7,1583.6,1024.9z M1074.9,2496c0,82.1,0.3,164.2-0.3,246.3c-0.1,16.2,2.6,23.4,21.2,21
			c36.5-4.7,73.3-9.3,110.1-9.8c25.8-0.4,39.8-13.2,53.3-32c107.4-149.2,142.6-314.9,115.1-495.5c-2.7-17.9-10.7-19.7-26-18.6
			c-84.6,6.4-169.2,12.5-253.8,17.4c-18.8,1.1-19.9,10.1-19.8,24.8C1075.2,2331.8,1074.9,2413.9,1074.9,2496z M1451.2,1910.4
			c-14.8,5.5-16.3,16.8-21.1,25.2c-15.3,27-36.2,45.9-67.2,52.6c-28.8,6.2-59.5,11.3-78.6-15.9c-18.9-27,0.7-51.2,17.3-72.1
			c17.8-22.3,38.5-42.2,56.9-64c10.1-11.9,20.3-25.8,11.8-42.6c-7.6-15-23.3-16.5-38.3-17.3c-28.9-1.5-56.9,4-84.9,10.3
			c-65,14.8-74.1,25.2-78,90.2c-5.2,86.1-38.8,106.4-117.1,70.5c-37.5-17.2-52.7-11.8-64.3,27c-18.3,61.2-28,123.9-30,187.9
			c-0.6,17.9,7.3,19,21.3,18.8c153.3-2.3,305.5-19.2,458-33.6c9.6-0.9,15.8-2.7,15.9-14C1453.6,2060.1,1456.5,1986.5,1451.2,1910.4z
			 M2022.5,638.4c-0.3,0-0.6,0-0.8,0c3.3-112.4,6.1-224.9,10.4-337.3c0.8-20.5-3.7-28.6-25.2-26.3c-25.6,2.8-51.5,4.4-77.3,4.2
			c-22.7-0.2-28.3,8.4-28.2,30.9c1,222.3,0.6,444.5,0.6,666.8c0,4.6,0.3,9.2,0,13.8c-0.9,11.9,4.4,16.6,16.2,16
			c23.9-1.3,47.8-2.6,71.8-3c17.4-0.2,22.9-7.6,23.3-25.1C2015.7,865.2,2019.3,751.8,2022.5,638.4z M1254,1310
			c11,0,22.3,1.4,33.1-0.2c109.4-16.8,206.8-63.4,298.2-123.5c34.5-22.7,49-57.9,51.9-99.1c1.2-17.2-3.6-20.6-19.3-19
			c-94.3,9.6-188.7,18.7-283.1,27.8c-9.3,0.9-18.2,2.4-25.2,9.5c-47.1,47.9-95.3,95-136.9,147.9c-16.5,21-11.6,36.4,13.7,47.3
			C1207.9,1310,1230.8,1312,1254,1310z M2612.2,1650.7c0.9,0,1.8,0,2.7,0c0,37.8,0.1,75.6-0.1,113.4c-0.1,10.5,0.4,16.5,14.9,14.4
			c41.3-5.9,76.7-24.9,112-45.1c5.5-3.2,7.2-7.7,7.8-13.5c5.5-57.3,7.1-113.9-18.2-168c-12.2-26.1-27.4-42-59.3-32.3
			c-11.9,3.6-25.7,2.7-38.5,1.6c-17-1.4-22.4,4.2-21.7,21.6C2613.2,1578.7,2612.2,1614.7,2612.2,1650.7z M2683,1277.7
			c-3.7,0-7.4,0.2-11.1,0c-59.7-3.2-83,20.3-78.1,79.9c2.8,33.9,7,67.7,10.4,101.6c0.8,7.6,1.8,16,11.4,16c33.1,0,66.4,0.3,98.4-9.5
			c9.1-2.8,14.4-11.2,17.6-20.2c12.2-35,20.8-70.9,15.9-108.2C2741.5,1291,2726.7,1278.1,2683,1277.7z M2613.8,1936
			c-0.4,0-0.8,0-1.2,0c0,30.4,1,60.9-0.4,91.3c-0.8,18.3,6.7,21.9,22.8,20.1c34.6-3.8,61.6-18.7,76.5-51.2
			c19.5-42.6,26.1-87.9,25.6-134.5c-0.2-16.9-4.2-32.8-11.4-48c-3.7-7.9-7.4-15.2-18.4-9.9c-28.4,13.8-71,8.4-86.6,27.4
			c-15.8,19.2-5.7,59.7-6.8,90.9C2613.7,1926.8,2613.8,1931.4,2613.8,1936z M1027.1,2418.5c0-10.1-0.9-20.3,0.2-30.3
			c2.1-20-5.1-25.4-25.1-21.8c-26.1,4.7-53,5.1-79.4,8.8c-48.1,6.7-94,18.7-125.8,59.8c-8.9,11.5-14.9,25.5-8.1,38.4
			c6.7,12.8,22,11,34.9,10.2c49.5-3,99-6.7,148.6-9.1C1027.1,2471.9,1027.1,2472.4,1027.1,2418.5z M1520.6,2481.6c0-0.4,0-0.8,0-1.2
			c-30.4,0-60.9,0.1-91.3-0.1c-10.1-0.1-15.5,4.1-16,14.4c-0.5,9.5,6.2,10.2,12.8,10.4c60.8,1.1,121.6,8.6,182.3,3.7
			c40.2-3.2,59.5-29.1,60.2-72.3c0.7-44.4-19-71.7-57.4-78.6c-54-9.7-108.6-4.2-162.9-5.3c-6.2-0.1-17.3-4.5-17.6,6.6
			c-0.4,13.4,11.9,8.5,19,8.6c48.9,0.7,97.8,1.5,146.7,0.7c16.5-0.3,22.6,3.7,22.1,21.3c-0.4,16.6-2.6,24.7-22.3,24.1
			c-47-1.5-94.1-1-141.2,0c-10.2,0.2-28.2-8.3-29.1,10c-1,20.7,18.1,10,27.3,10.4c51.6,2.1,103.3,0.4,154.9,4.5
			c18.7,1.5,17.1,11.5,16.4,24c-0.7,12.1,1.1,24.2-18.1,22.7C1577.8,2483.3,1549.2,2482.8,1520.6,2481.6z M906.7,2601.3
			c0,0.5,0,1,0,1.5c23-1.3,46.1-1.6,68.9-4.1c55.4-6.1,55.4-6.5,51.4-61.9c-0.1-0.9-0.1-1.8,0-2.8c1-12.6-5.7-15.5-17-14.8
			c-54.2,3.4-108.5,5.9-162.7,9.6c-28.5,2-26.9,27.2-29.6,45.5c-2.8,18.1,12.2,25.8,28.3,26.7
			C866.2,2602.2,886.5,2601.3,906.7,2601.3z M2188.9,1927.6c39.4-2.2,66.2-13.7,83-44.1c16.7-30.2,33.1-113,29-153.4
			C2273,1801.5,2237.1,1865,2188.9,1927.6z"/>
		<path class="st1" d="M867.5,552.6c-56.1-0.5-106.9,7.4-156.1,24.2c-19.9,6.8-39.1,13.8-48,37.3c-6.1,16-27.3,15.5-38.7,13
			c-13.6-3-7-20.6-3.8-31.1c8.7-28.5,30.1-45.3,56.9-56c69.8-27.9,142.4-35.9,217-32.3c15.2,0.8,22.6,5.8,19.1,21.7
			c-2.8,12.6,0.1,29.9-22.8,24.7C882.2,552.2,872.7,552.9,867.5,552.6z"/>
		<path class="st1" d="M1628.3,480.8c-0.1-30,24.4-54.9,53.9-55c29.7-0.1,54.1,24.6,54.1,54.6c0,30.5-23.9,54.9-53.8,55
			C1652.8,535.5,1628.4,510.9,1628.3,480.8z"/>
		<path class="st1" d="M1628.3,644.8c0.2-30.3,24.3-54.1,54.5-53.8c30.3,0.2,53.9,24.4,53.6,54.8c-0.3,29.9-25.3,54.7-54.6,54.3
			C1652,699.6,1628.1,674.9,1628.3,644.8z"/>
		<path class="st1" d="M1701.4,813.7c0.1,30.5-23.4,54-54,54.2c-30.5,0.1-54.2-23.5-54.2-54c0-30,24.4-54.6,54.1-54.6
			C1677.4,759.3,1701.4,783.5,1701.4,813.7z"/>
		<path class="st1" d="M2179.9,574.3c30.1-0.4,54.2,23.5,54.6,54c0.4,30-23.8,55.1-53.3,55.4c-29.5,0.4-54.2-24.2-54.5-54.2
			C2126.3,599.3,2150.1,574.7,2179.9,574.3z"/>
		<path class="st1" d="M2260.7,467.9c0.1,30-24.2,54.9-53.9,55c-29.6,0.1-54.4-24.7-54.5-54.4c-0.1-30.3,23.9-54.6,54.1-54.8
			C2236.3,413.5,2260.6,437.7,2260.7,467.9z"/>
		<path class="st1" d="M2166.6,752.9c29.4-0.1,54.8,25.2,54.9,54.7c0.1,29.5-25,54.5-54.6,54.7c-29.7,0.1-54.8-24.8-55-54.4
			C2111.8,778.7,2137.4,753,2166.6,752.9z"/>
		<path class="st1" d="M633.8,1128.8c-32-0.5-58.9-7-75-33c-16.3-26.3-6.1-52.1,8.7-75.2c15.4-24,31.9-47.4,50.1-69.3
			c11.1-13.4,8.3-18.4-5.6-25.7c-35.3-18.7-63.4-44.6-74.1-84.8c-2.2-8.3-10.5-22.3,5.2-24.9c12.6-2.1,31-11,37.7,9.9
			c13.8,42.8,48.8,61.5,86.8,74c102.9,33.9,203.1,25,299.6-24.6c20.3-10.5,38.3-1.4,42,20.9c2.1,12.4-8.6,12.8-14.9,16.4
			c-59.5,34.1-124.2,50.9-192.4,53.2c-18.3,0.6-25.3,6.4-28.7,24.1c-5.3,27.1-15.6,53-31.7,75.9
			C714.6,1104.1,678.7,1127,633.8,1128.8z M633.3,1082.8c2.1-0.4,7.6-1.1,12.8-2.5c49-13.3,69.1-51.1,80.4-95.9
			c1.8-7.2,12.3-19-3-21.9c-17.3-3.2-37.9-19.6-52.2-4.3c-24.2,26-44.4,56.1-64.1,85.9C590,1070.3,598.1,1082.6,633.3,1082.8z"/>
		<path class="st1" d="M838.3,819.6c0-8.2,0.7-16.6-0.2-24.7c-1.9-17.3,3.9-24.6,22.6-24.7c19-0.1,26.6,5.8,24.9,25.2
			c-1.4,16.4-1.2,33,0,49.4c1.2,17.3-3.8,24-22.7,23.7c-18.4-0.3-27.5-4.3-24.8-24.3C839.2,836.2,838.3,827.8,838.3,819.6z"/>
		<path class="st1" d="M717.7,817.3c5.9-10.4-12.5-33.3,17.3-35.9c21-1.8,34.3,2,29.9,27.3c-1.2,7.2,0.1,14.7-0.3,22.1
			c-0.8,14.9,7.2,32.3-21.8,32.6c-28.6,0.4-25.5-15.3-25.1-32.9C717.8,826.9,717.7,823.2,717.7,817.3z"/>
	</g>
</g>
</svg>
