<?xml version="1.0" encoding="utf-8"?>
<!-- Generator: Adobe Illustrator 23.0.0, SVG Export Plug-In . SVG Version: 6.00 Build 0)  -->
<svg version="1.0" xmlns="http://www.w3.org/2000/svg" xmlns:xlink="http://www.w3.org/1999/xlink" x="0px" y="0px"
	 viewBox="0 0 3000 3000" style="enable-background:new 0 0 3000 3000;" xml:space="preserve">
<style type="text/css">
	.st0{stroke:#000000;stroke-width:10;stroke-miterlimit:10;}
</style>
<g id="Layer_1">
</g>
<g id="Layer_2">
	<g>
		<path class="st0" d="M1851.2,137c-127.1-20.6-254.9-52.9-378.1,17.1c-51.3,29.1-92.3,71-135.5,110.1
			c-54.1,49-107.7,98.6-161.3,148.1c-9.4,8.7-17.7,18.5-27.7,0.8c-6.9-12.2-29.8-19.2-7.6-39c56.1-49.9,110.9-101.2,166-152.2
			c6.4-5.9,16-9.5,17.3-22.2c-88.7-15.6-163.1,15.9-231.5,67.4c-71.6,54-122.2,127.3-177.8,195.8
			c-82.2,101.4-161.6,204.5-228.5,317.2c-74.5,125.5-90.1,260.1-70.5,401.4c3.2,23.4,1.2,52.1,14.2,68.3
			c14.3,17.8,43.5,0.9,66.2,1.9c33.3,1.4,65.4,6.3,96.4,18c8.4,3.2,23.9,4,13,19.4c-7.7,11-4.9,37.3-27.3,29.3
			c-94.1-33.6-178.4-9.9-257.3,42.1c-91.2,60.1-141.4,149.5-172.2,251.6c-33.5,110.7-34.9,225.1-36.2,339.1
			c-1.7,151.2-9.6,302.1-16.2,453.1c-2.5,57.8,3.3,115,21.7,170.3c9.1,27.6,24.3,51.7,41.8,75c13.3,17.7,29.2,20.9,48.8,16
			c38.9-9.6,42.5-17.7,23.3-51.9c-92.9-165.9,4.6-345.2,193.6-356.3c39.4-2.3,77.4,1.3,114.4,17.6c174.8,76.8,359.1,99,548.2,95
			c62.6-1.3,124.6,12.8,187.5,12.4c24.3-0.2,38.2-7.8,44.7-32.1c9.5-35.3,35.3-55.2,70.2-61.4c98-17.6,188.3,4.6,269.7,60
			c51.5,35,55.2,92.2,12.2,137.9c-43.1,45.8-95.6,71.6-159.3,62.6c-89.9-12.7-176.2,2.7-265,17c-236.9,38.1-473.1,45.1-695-72.3
			c-50-26.4-102.4-41.1-160.2-32.6c-35.3,5.2-59.1,22.7-70.4,55.9c-9.8,29-17.4,58.7-20.9,89.3c3.4,1,5.7,2.5,6.7,1.8
			c78.9-47.6,146.5-21.8,211.9,30.1c123.1,97.7,261.3,166.4,412.4,208.7c123.5,34.6,249,51.3,377.9,42.6
			c190.5-12.8,313.7-111.9,381.2-287.4c29.4-76.5,45.9-152.5,20.1-234.1c-32.7-103.3-122-171.9-229.3-171.6
			c-145,0.5-290.1,3.5-434-18.7c-41.6-6.4-83.3-13.1-123.6-25.6c-131.8-40.9-190.7-153.4-149.8-285.6c7.3-23.7,16-47,29.6-67.5
			c14.4-21.7,13.5-35.3-12.1-48.1c-32-16.1-61.9-36.4-91.4-54.1c-4.7-6-0.2-8.9,1.7-11.9c23.2-38.5,13.8-38.1,56-13.5
			c23,13.4,46.5,26.2,68.9,40.6c44.1,28.5,51.7,58.8,25.5,104.5c-25.1,43.7-41.1,89.5-38.7,140.6c3,62.9,41.5,115.3,99.7,133.2
			c3.3-59,6.9-117.3,9.6-175.6c3.1-65.7,5.2-131.5,8.4-197.2c0.6-12-1.6-21.9-8.8-31.5c-27.9-37.2-49.9-77.9-65-121.9
			c-5.1-14.7-11.7-18.8-26.9-16.5c-26.3,4-53.1,5.4-79.6,8.3c-6.7,0.7-16.5-0.3-16.8,9.5c-1.1,31.5-27.8,15.8-41.7,23.2
			c-4.1,2.2-6.4-2-8.3-6.2c-14.8-32.8,7.1-72.2,43.5-76.5c28.5-3.4,57.2-5.6,85.9-7.9c16.7-1.3,25.3-5,21.8-26.2
			c-8.5-52.8-7-52.5-63.4-48.4c-15,1.1-23.7,2.4-25.7,21.4c-2.3,22-22.7,9.1-34.9,11.9c-12.4,2.8-14.5-5.4-15.4-16.4
			c-3.7-45.5,8.9-62,54.6-67.4c18.3-2.2,37-4,55.3-2.8c21.9,1.4,30.4-5.6,33-28.3c5.4-46.9,6.9-46.8-41.2-53.4
			c-124.7-17.3-200.3-91.5-216.6-216.6c-9.5-73.4,18.2-132.8,77.3-177.3c7.7-5.8,18-16.3,23.7,0.1c4.4,12.4,27.2,24.5,9,38.7
			c-56.4,44.3-70.7,99.1-51.4,167c21.7,76.6,70.9,120.2,148.3,133.9c5.1,0.9,10.1,1.9,15.2,2.8c56.2,9.7,58,8.7,83.7-41.9
			c22.5-44.3,48.2-87.2,85.6-119.8c25.8-22.5,27.7-46.5,23.8-76.5c-8.9-68.3-14-136.9-16.6-205.8c-1.9-50.2,12.3-95.1,41.7-135.8
			c32.5-45,66.7-88.9,95.6-136.1c30-48.8,71.4-66.9,126.2-62.5c23.6,1.9,47.3,2.1,70.9,3c73.4,3,111.9,61.4,87,131
			c-10.7,30-30.2,54.2-52.7,75c-44.6,41.3-64.3,90.6-60.6,151.5c2.3,38.9-1,78.1-1.5,117.1c-0.2,12.5-0.5,24.4,17.5,26.7
			c17.5,2.2,17.7-10.8,21-20.5c29.1-85.5,57.6-171.3,86.7-256.8c6.3-18.4,13.5-36.6,21.6-54.3c23.3-50.9,63-80.2,118.5-86.8
			c140.7-16.9,193.2,67.5,178.3,183.1c-10.5,81.7-53.7,152.4-87.5,225.8c-26.2,56.9-49.6,114.9-72,173.4c-7.6,19.8-3,34.8,2.5,54.3
			c18,64.3,60.6,73.7,118.2,66.1c37.5-4.9,76-3,114-2.5c21.3,0.3,36.6-8.5,51.9-22.1c59.2-52.5,120-103.2,178.5-156.5
			c18.4-16.7,24.8-5,36.3,6c13.7,13,13.3,21-1.6,33.5c-51.9,43.7-102.7,88.6-153.3,133.8c-5.6,5-21.7,8.9-13.5,19
			c10,12.4,17.5-3.8,24.3-8.9c52.4-39.6,105.2-79,155.8-120.8c19.2-15.8,25.8-6.8,38.1,6.8c15.9,17.5,6.2,25.6-7.3,35.8
			c-35.7,27.1-70.9,54.8-113.2,87.6c26.9-3.8,44.7-6.7,62.7-8.9c98.8-12.2,165.3,40.9,175.5,140.6c10.2,99.6-15.4,193.7-46,286.8
			c-28.7,87.4-71.3,167.7-132.2,246c79.3,1.9,152.9,3.7,211.6-48.2c53.7-47.5,51.4-113.5,43.6-177.9c-3.9-32.5-12-64.6-18.8-96.7
			c-9.8-46-3.8-89.9,28.2-124.5c78.8-85.4,92-189.2,100.4-299.4c10.8-140.6-43-243-144.6-335.4c-83-75.5-173.3-109.8-282.5-103.4
			c-19.5,1.1-39.2,0.5-58.5,2.7c-17.5,2-21.6-4.5-24-21.3c-3.3-23.2,2.6-31.9,26.4-30.5c14.9,0.9,30.1-2.2,55.7-4.5
			c-17.6-14.7-29.5-22.8-39-33c-67.2-72.3-59.8-174.5,11.6-242.4c77.1-73.3,165.5-72.5,259.1-49.6c67.5,16.5,125.2,51.3,174,100.5
			c5.5,5.6,22.9,12.5,6.8,22.9c-11.4,7.4-16.5,34.2-37.6,17.6c-12.3-9.6-15.8-2.1-20.9,5.7c-2.8,4.3-6.4,9.1-6.6,13.8
			c-2.9,55.4-6.2,110.8-7.3,166.3c-0.4,21.4,19.1,12.4,28.3,11c25.2-3.8,35,2.6,33.5,29.9c-1,18.2-7.6,23-23.6,22.9
			c-37.6-0.3-75.1-0.1-102.9-0.1c34,38.4,69.2,79.5,105.8,119.4c43.8,47.8,82.5,99.4,89.5,165.3c11.5,109.6,13.4,219.5-17.4,327.2
			c-15,52.5-45.3,96.5-79.7,137.7c-24.1,28.9-31.8,59.1-23,97.1c14,60.8,27.6,122.2,20.5,185.8c-10.4,93.5-65.4,157.4-156.2,180
			c-55.6,13.8-112,16.4-168.5,10.7c-112.3-11.2-176.4-81.3-182.2-195.9c-3.9-77.6,12.3-153.4,21.5-229.8c6.5-54,13.3-108,20-162
			c2.1-16.7-0.6-33-5.5-48.7c-8.2-26.3-25.9-41.7-54.5-41.2c-67.9,1.2-135.7,3.1-203.6,4c-14.8,0.2-19.4,3.8-16.4,19.8
			c28.8,156.9-17.2,292.2-120.8,410.1c-8.2,9.3-11.8,18.3-11.1,30.3c6.7,121.1,13.3,242.2,19.4,363.4c0.8,15.2,7.1,22.4,21.7,24.3
			c157.4,20.4,297.4,218.2,221.7,429c-23.3,64.8-51.1,127-94.2,189c95.4,0.8,183.9-1.5,267.3-38.5c32.7-14.5,42.3-45.6,45.4-78.8
			c6.6-69.7-9.5-137.1-21.6-204.7c-21.7-121.2-36.6-243.9-76.9-361.1c-8.6-25.1,13.6-21.7,25.1-28.4c16.2-9.4,20.2,0.1,24.8,13.8
			c37.2,110.5,52.9,225.6,73.1,339.8c10.5,59.6,22.3,119.1,27.7,179.6c2.6,29.9-2.5,59.3-1.6,92c81.5-28.7,140.5-79.7,163.6-160.9
			c28.4-99.5,35.7-202.4,19.3-305.2c-8.2-51.3-33.7-95.2-81.6-121c-27.2-14.6-5.1-30.4-1.5-43.7c5-18.5,18.2-5.8,26.6-1
			c69.8,39.1,102.9,103.3,111.1,178.8c11,100.7,5.8,201.9-22.3,299.5c-32,110.6-108.8,178.6-219.8,207.7c-15.3,4-28.3,9.5-40.2,20.5
			c-29.8,27.4-67.9,38.1-106.2,45.9c-76.9,15.7-154.6,21.9-233.1,16.5c-12.5-0.9-23.6-1.5-34.2,8.4c-92.7,86.3-207,115.7-329,118
			c-291.1,5.4-551.7-84.3-783.8-258.8c-14.8-11.1-29.9-21.8-45.2-32.1c-32.9-22-67.1-24-101.7-4.4c-30.3,17.3-59.7,36.3-90.3,53
			c-63.3,34.5-106.7,23.9-148.5-34.3c-56.5-78.7-68.4-170.3-63.8-261.8c9.7-190,13.8-380.1,19.4-570.2
			c4.2-139.3,29.3-273.9,107.2-393.5c12.3-18.8,36.8-38,35.2-55.2c-1.6-17.3-28.9-32-44.3-48.4c-71.2-75.8-101.8-169.2-118.4-269.4
			c-28.4-171.3-5.1-335.4,64.3-493.9c121.2-276.9,382.9-368.8,643.4-304.5c33.3,8.2,55.6,5.9,81.6-18.8
			c61.6-58.6,134.8-96.6,221.1-106.2c29.2-3.3,58-1.2,85.8,5.3c26.2,6.2,47.2,4,68.4-13.2c96.9-78.8,210.3-83.4,327.2-71.7
			c62.5,6.3,124.1,17.2,184.9,32.8c12,3.1,23.9,4.9,36.3,0.5c99.5-35.7,203.2-41,307.2-39.9c98.7,1.1,197.3,7,296,8.6
			c24.5,0.4,21.8,12.4,22.5,28.6c0.8,19.1-5.2,24.4-24.6,23.3c-108.8-6.2-217.8-7.3-326.8-9.2c-200.5-3.3-375.5,60.7-525.8,192.9
			c-19.3,17-43.9,11.1-52.2-13.1c-4.2-12.1,7.5-15.5,13.4-21C1722.2,217.6,1784.4,176,1851.2,137z M958.1,322.4
			c-17.6-4-34.3-8.6-51.4-11.5c-250.3-42.4-460.2,59.6-558.9,301.9c-62.4,153.1-78.4,309-48.7,471.1
			c17.4,94.7,54.3,178.1,126.2,244.5c16.9,15.6,28.8,21.2,48.5,3.4c23.6-21.3,51.7-37.6,81.7-48.6c19.4-7.1,24.1-17.3,19.8-36.9
			c-16.4-73.7-22-148.5-16.2-223.7c1.7-21.9-3.9-30-25.7-34.6c-61.3-13-94.3-54.1-105.1-114.6c-8.1-45.6-1.9-90.2,9.8-134.2
			c60.7-227.8,241.2-375,481.7-392.7C936.1,345.2,950.5,344,958.1,322.4z M1783.8,1398.1c-7.3-143.7-70.5-268.4-205-350
			c-100.6-61.1-203.7-56.8-302.4,7.5c-165.3,107.9-283.4,389.4-99,616.6c128.8,158.7,330,176.9,472.6,39.6
			C1735.2,1629.8,1778.8,1528,1783.8,1398.1z M459.4,2540.9c5.1-13.6,8.4-20.9,10.7-28.5c17.9-60.7,58-94.6,120.8-102.8
			c54.6-7.1,107.7-0.6,155.6,25.5c221.3,120.9,457.6,122.1,696,80.7c91-15.8,179.1-31.4,271-17.1c50.9,7.9,92.6-12,125-51.6
			c16.7-20.5,15.9-39.7-6.5-55.2c-68-47.2-143.4-64.3-225.2-53.4c-15.6,2.1-28.9,8.1-36.2,24.6c-27.5,62.3-50.3,75.2-118.3,71.1
			c-74.9-4.5-149.4-17.5-224.5-14.7c-176.6,6.5-344.7-29.7-506.9-96.8c-30.4-12.6-61.2-16.4-93.4-14.4
			C500.2,2316,423.6,2417.6,459.4,2540.9z M1375,1994.3c0,21.5-0.7,43.1,0.2,64.6c1.1,26.4-11.4,60.8,5.8,76.8
			c14.7,13.6,48.6,5.1,73.6,9.3c26.8,4.5,30.7-7.6,29.4-30.2c-3.7-66.5-5.8-133-8.9-199.5c-0.9-18.4,2.7-40.3-6-54.2
			c-10.3-16.4-33.8-0.3-51.1-5.3c-5.8-1.7-12.3-1-18.2-2.5c-18.6-4.7-25.8,1-25.1,21.2C1376,1914.3,1375,1954.3,1375,1994.3z
			 M2215.2,1576.6c-10.9,2.7-15,11.9-21.2,18.5c-45.6,48-44,46.3,4.8,88c24.2,20.7,36.7,16.2,55.8-4.8c34.9-38.3,36.2-37.2-2.3-70.7
			C2240,1596.9,2227.3,1586.7,2215.2,1576.6z M2377.8,1547.2c1-12.9-5.2-17-10.8-21.3c-13.6-10.7-28.7-19.9-40.8-32.1
			c-15.4-15.4-25.3-12.4-39.3,2.5c-37.5,40-38.2,39.4,2.1,74.8c4.6,4,8.6,9.2,13.9,11.9c9.9,5,17.2,24.6,28.7,14.5
			C2349.4,1581.9,2370.2,1567.4,2377.8,1547.2z M2429.1,593.4c18.4-25.9,32-49,49.5-68.6c19.4-21.7,17.1-46.9,18.7-72.1
			c0.6-10-5.5-14.5-13.4-18.2c-8.7-4.1-13.4,1.6-18.3,6.8c-16.8,18-33.4,36.2-50.3,54.1c-6.3,6.7-7.9,14.2-5.8,22.7
			C2415.5,541.6,2421.7,565,2429.1,593.4z M1791.2,670.2c-57.9,81.5-60.1,99.6-17.6,157.8c9.8-17.6,17.3-35.8,28.9-50.9
			C1831.9,738.4,1829.6,703.6,1791.2,670.2z M2364.3,552.4c-17.9,19.3-33,35.8-48.3,52c-5.7,6-6.5,12.4-3.6,19.8
			c7.9,20,15.7,40.1,23.5,60.1c3.4,8.8,12,16.4,18.5,10.3c15.9-14.9,36-30.4,31.9-55.4C2381.8,611.3,2372.6,584.1,2364.3,552.4z
			 M2366,1332.2c-2.2-2.5-5.3-6.6-8.8-10.1c-25.6-25.3-46.3-24.1-70.6,4.2c-36.6,42.5-35.7,41.5-4.3,67.9
			c14.7,12.3,22.9,11.1,34.3-2.8c12.3-15,26.9-28.1,40.2-42.2C2360.8,1345,2366.4,1341.4,2366,1332.2z M2327.6,422
			c-67.6,68.2-71.3,81.6-37.8,131.8C2353.6,494.1,2355.1,489.1,2327.6,422z M1338.9,645.6c-17.1,10-44.8,0.2-56.9,24.3
			c-3.7,7.2,39.2,64.5,44.4,61.8c18.3-9.6,43.6-7.1,54.9-27.2C1386.2,695.5,1349.2,645.4,1338.9,645.6z M1707.7,823.8
			c-48.3,63.9-47.9,97.1,0.1,127C1745.1,888.3,1745.1,888.3,1707.7,823.8z M1238.2,822.3c15.9,20.6,30.7,38.8,44.3,57.8
			c12.8,17.9,23.4,3.9,33.2-2.3c8.1-5.1,23.7-5.4,18.4-22.7c-14.2-46.8-36.8-58.2-81.4-40.3C1249.1,816.3,1245.7,818.5,1238.2,822.3
			z M1655,2008c-29.5,14.3-39.3,33.4-33.8,61.9c3.7,19,4.2,38.8,4.3,58.2c0,15.9,8,18.2,21.3,18.2c14.9,0,16.5-8.1,15.8-19.8
			C1659.9,2088,1657.5,2049.4,1655,2008z M1410.7,510.4c-19.7-2.8-33.8,15.3-44.6,35.4c-8.6,16.1,9.4,36.7,27.9,33.1
			c12-2.3,24-5.1,35.3-9.6c8.8-3.4,28.5,1.2,22.9-15.2C1446.5,537.4,1447.3,511.1,1410.7,510.4z M1475.2,612.5
			c-27.5,1.6-69.5,16.8-69.8,23.3c-0.4,9.5,29.1,53.5,35.7,53.3c20.9-0.7,57.8-29.5,52.8-43.5
			C1489.5,633.1,1490.1,613.4,1475.2,612.5z M2262.2,1452.1c-2-6.3-2.4-8.2-3.2-10c-11.4-25.6-44.9-30.3-63.1-9
			c-6.7,7.8-13.7,15.3-20.2,23.1c-3.7,4.4-10.2,10-2.2,15c13.5,8.4,23.6,32.6,37.9,25.8C2231.6,1487.4,2246.5,1466.7,2262.2,1452.1z
			 M2121.6,1687.5c-7.3,24.2-6.5,45.6-7.6,66.9c-1.2,23.1,15.7,26,31.8,28.4c7.5,1.1,42.1-37.2,40.3-42.7c-0.9-2.7-3.3-5.1-5.6-7
			C2161.4,1718.2,2142.2,1703.5,2121.6,1687.5z M1709.4,706.1c15.7-28.2,29.9-54,44.2-79.7c4-7.2,8.3-14.1,1.6-22.2
			c-7.9-9.6-16.1-4.5-24.6-1.1C1681.5,623,1674.2,653.2,1709.4,706.1z M1263.4,1917.2c-6.4,24.3-12.2,44.9-17.3,65.7
			c-5.5,22.3,17.5,21.5,26.9,31.7c4.1,4.4,9.3,5.4,15.2-1.2c26.5-29.6,24.5-59.2-6.6-82.5
			C1276.7,1927.3,1271.9,1923.6,1263.4,1917.2z M519.5,779c-48.8,42-54.4,61.4-31.2,107.2C554.4,811.5,545.3,828.6,519.5,779z
			 M1348.9,779.9c10.5,17,19.4,30.7,27.5,44.9c6.8,11.9,15.7,9.2,22.6,2.3c10.2-10.3,35.7-7.2,30.6-30.3
			c-7.6-34.6-20-40.4-52.9-28.1C1368,771.8,1359.7,775.5,1348.9,779.9z M685.2,476.2c-69.2,39.1-73.2,47-46.4,96
			C653.3,538.3,706.5,528.4,685.2,476.2z M1176.1,1906.5c-0.2,0-0.4,0-0.6,0c0,12.2-0.7,24.4,0.2,36.5c0.7,9.3,9.2,14,16.5,15.9
			c11.5,3,8.2-9.2,10-14.3c5.2-15.3,7.5-31.6,12.6-46.9c8.9-26.7-15.6-35.2-28.4-37.7c-15.2-3-7.1,18-9.9,28.3
			C1174.8,1894,1176.1,1900.4,1176.1,1906.5z M1635.9,949.9c-31.5,51.6-31.7,51.9,6.5,77.2c6.2,4.1,13,17.5,22.1,5
			c6.1-8.4,15.6-17.9,7.4-30.2C1660.6,984.9,1648.6,968.2,1635.9,949.9z M2227.8,546.1c-18.1,12.9-27.8,27.3-37.7,41.1
			c-15.5,21.7,9.6,26.9,17.5,38.3c9.6,14,16.4,1.5,23.8-5C2260.2,595.2,2233.1,573.2,2227.8,546.1z M612.2,677.7
			c-65.2,62.8-56.6,52.5-29.8,96.6C596.1,742.8,644.3,725.6,612.2,677.7z M534.5,677.9c64.7-58.2,66.8-63.9,39.6-103.8
			C559.6,607.8,520.9,629.6,534.5,677.9z M1654.1,725.6c-7.2,20.5-13.2,37.8-19.2,55c-4.3,12.6-8.4,25.3-12.9,37.8
			c-3.4,9.4-5,20.2,4.6,24.7c10.8,4.9,11.5-8.4,15.2-14.2c7.8-12,12.8-25.9,21.3-37.3C1680.3,768.4,1676.1,748.5,1654.1,725.6z
			 M1617.9,1964.8c35.6-25,41.7-50.7,25.5-98.4C1607.6,1894.8,1606.1,1900.4,1617.9,1964.8z M2489.2,599.3
			c-15.7,22.3-26,37.1-36.6,51.8c-11.9,16.7,0,31.2,5.2,45.6c2.6,7.2,12.8,6.2,19.5,4.3c18.8-5.5,10.5-22,11.4-33.8
			C2490.4,648,2489.2,628.6,2489.2,599.3z M2225.7,1885.3c-0.5-7.5-28.8-22.5-55-31.6c-8.5-3-15.7-4.3-22,3.5
			c-1.3,1.6-3.6,3.4-3.4,4.8c3,22.3,22.1,30.2,37.9,40.5c9.9,6.5,21.1,15.1,31.1-1C2217.9,1895.7,2222.3,1890.1,2225.7,1885.3z
			 M2275.7,1812.9c-0.3-6.9-37.6-38.2-43.5-35.7c-13.5,5.6-22.5,17.3-30.5,29c-2.2,3.2,47.8,29.9,55.2,28.3
			C2268.6,1832.1,2271.6,1821.6,2275.7,1812.9z M766.1,566.6c12.4-15.5,24.7-30.2,36.1-45.6c9.2-12.5-1-23.2-5.4-33.8
			c-2.7-6.6-7.5-3.1-12.2-0.2C752.8,507.3,747.4,528.7,766.1,566.6z M668.6,667.7C682,633,727.4,619.5,706.1,567
			C690.8,602.6,637.9,611.5,668.6,667.7z M2335.6,1681.1c-2.8-2.1-5.6-4.2-8.4-6.4c-16.4,17.6-33.1,35-49.3,52.9
			c-14.2,15.7,4.9,17.7,11.1,24.2c6.2,6.4,14.5,14.2,20.7-0.4C2319.5,1728.3,2332.4,1706.4,2335.6,1681.1z M1360.1,963.8
			c9.7-5.5,31.2,2.1,30.3-14c-0.8-13.9-10.4-35.3-26.6-37.1c-11.8-1.2-32.9,9.1-33.3,24.5C1330.2,947.7,1340.8,964.1,1360.1,963.8z
			 M2389.3,1393.7c-55,46.8-54.5,56.7,0,77C2389.3,1446.5,2389.3,1422.4,2389.3,1393.7z M1535.4,2037.8c34.6-26.3,36.9-35,23.4-81.4
			C1525.5,1985.2,1525.2,1986.1,1535.4,2037.8z M1229.4,2122.9c17.9-1.7,16.5-21.3,23.3-33.5c4-7.2,14.7-18-0.2-25.6
			c-7.7-3.9-17-20.1-24.4-6.2c-8.7,16.6-11.3,36.8-14.8,55.7C1212,2120.9,1220.5,2121.9,1229.4,2122.9z M1323.2,1897.2
			c0-19.3-0.6-33.1,0.2-46.7c0.9-16.1-12.2-16.4-21.7-20.8c-6.8-3.2-13.5-5.5-16.7,4.8c-3.3,10.5-10.2,22.1-1.1,31.5
			C1294,1876.4,1306.9,1884.4,1323.2,1897.2z M1570.4,2081.8c-25.6,16.1-43.5,30.2-32.8,57.6c5.2,13.3,21,10.1,26.5,6.1
			C1587.5,2128.3,1566.5,2105.9,1570.4,2081.8z M1186,1758c-14.5,34.3,14.3,41.5,30.1,55.6c4.8,4.3,12,15.4,18.9,3.7
			c4.2-7.1,7.1-17.8-2.4-25C1217.5,1780.8,1202.1,1769.8,1186,1758z M1527.4,1907.9c19.4-16.7,35.6-29.2,29.8-53.2
			c-1.6-6.6,4.7-19.3-9.1-17.8c-10,1.1-24.4,1.2-24.2,17.4C1524.2,1870.5,1526,1886.7,1527.4,1907.9z M563.5,883.1
			c-14.2,9.8-22.2,24-32.2,36.4c-4,5-7.3,9,0,14.8c16.7,13.1,37.7,5.9,42.8-14.5C577.8,905.2,572.1,894.5,563.5,883.1z M896.3,402.6
			c-54.6,3.2-71.2,25.2-48.3,61.1C863.5,444.1,878.5,425.2,896.3,402.6z M1856.7,670.3c17.7-28.4,12.7-50-11.9-64.2
			c-5.7-3.3-12.4-9.6-19.1-1.8c-4.5,5.3-2.8,11.3,0.7,17C1836.2,636.8,1845.7,652.5,1856.7,670.3z M1494.7,512.9
			c2.1,7.2,3.1,11.1,4.4,14.8c5.2,14.7,11.8,26.4,30.6,16.9c7.5-3.8,23.1-0.3,21.2-11.9c-2.8-16.7-20.1-17.8-34.3-19.7
			C1510.7,512.2,1504.6,512.9,1494.7,512.9z M1755.6,1029.1c5.4-30.5,32.7-49.8,15.1-79.9C1764.5,973.5,1725.9,990.1,1755.6,1029.1z
			 M1807.7,897c19.7-30.7,36.7-62.2,44.6-97.8C1834.9,830.8,1809.8,858.8,1807.7,897z M1252.5,1007.8c10.4-5.3,21.3-10.3,31.6-16.3
			c5.1-3,15.8-4.5,8.4-14.5c-5-6.7-8.6-17.6-21.1-10.7C1255.7,975.1,1240.6,984,1252.5,1007.8z M2134.3,1574.6
			c1.7,1.1,3.3,2.2,5,3.2c8-9.1,15.9-18.2,24-27.1c5-5.5,10.7-10.7,2.2-17.5c-6.3-5-13.2-12.8-19.7-12.8c-8.3,0-6.5,11-7.4,17.7
			C2136.7,1550.3,2135.7,1562.5,2134.3,1574.6z M2193.6,465.1c-13,20.2-26.7,35.3-23.4,65.3C2182.4,506.9,2211.8,498.5,2193.6,465.1
			z M2393.7,442.6c8.1-11.4,21.9-16.9,24-33.6c-13.3-0.1-24.1-8.8-37.3-3.5C2384.2,417.5,2382.9,430.3,2393.7,442.6z M1236.7,764.3
			c38.7-12.8,38.7-12.8,10.6-42.9C1237.4,739.6,1237.4,739.6,1236.7,764.3z M1309.6,2103.6c-11.3,0.8-11.8,12.2-14.6,19.7
			c-4,11.1,6.2,10.5,12.9,11.1c6.8,0.6,14.7,2.8,15.3-8.9C1323.8,2115.2,1321.5,2107.3,1309.6,2103.6z"/>
		<path class="st0" d="M667.6,1579.5c55.8-0.2,83.4,35.9,72.6,90.5c-18.1,91.5-83,111.7-164.4,95c-31.6-6.5-46.7-31-43.8-60.9
			C537.9,1644.5,608.4,1579.8,667.6,1579.5z M615,1718.1c51.1-1.9,68.9-17.3,74.4-60.3c2.6-20.1-3.8-27.6-24.5-27.7
			c-35.8-0.1-50.1,27.2-67.5,50.3c-6.9,9.1-19.6,20.4-11.6,32C591.4,1720.6,606.3,1718,615,1718.1z"/>
		<path class="st0" d="M1919.8,1509.8c-7.1,0.4-14.2,1.3-21.3,1.3c-14.8,0-32.6,8.6-33.2-20c-0.5-23.1,4.5-33.8,29.1-32.6
			c18.2,0.9,36.6-1.4,54.9-2c15.1-0.5,29.7-4,29.1,21.6c-0.5,21.9-4.6,32.3-28.1,30C1940.2,1507,1929.9,1509.1,1919.8,1509.8z"/>
		<path class="st0" d="M1863.1,1660.8c-7.2,0-14.5,0.9-21.5-0.2c-10.4-1.6-28.5,5.3-24.1-16.3c3.2-15.7-2.1-39.5,29-34.4
			c19,3.1,39,2.7,57.9-3.4c27.8-9,25.5,13,30.9,28.4c8.2,23.5-9.6,16.6-21,20.6C1897.4,1661.5,1880.3,1660.1,1863.1,1660.8z"/>
		<path class="st0" d="M1695.1,1386.9c-5.4,101.8-60.6,200.1-170.8,263.4c-108.5,62.3-241.3,29.3-320.7-75.8
			c-111.1-146.8-73.2-351.7,86.1-466.2c135.4-97.2,281.4-64,361.6,82.3C1680.2,1243.8,1694.8,1300.6,1695.1,1386.9z M1645,1367.2
			c-3.3-88.9-30.9-161.9-92.8-219.8c-31.3-29.3-68.3-44.7-111.9-42.7c-71.9,3.3-125.5,41.4-171.3,92.2
			c-109.9,121.7-103.8,284.9,13.6,386.2c60,51.8,144.7,63.4,212.6,24.9C1590.1,1554.1,1638.9,1470.7,1645,1367.2z"/>
		<path class="st0" d="M1408.3,1246.3c73.5,0.3,130.9,57.5,131.2,130.9c0.3,73.3-60,134.5-132.6,134.5
			c-72.6,0-133.3-61.3-132.9-134.4C1274.4,1302.8,1332.7,1246,1408.3,1246.3z M1407.2,1457.8c44.5,0,80.8-35.1,81.5-78.8
			c0.7-44.7-37.1-82.7-82.2-82.5c-44,0.2-80.4,36-81.4,80.1C1324.2,1421.4,1361,1457.9,1407.2,1457.8z"/>
	</g>
</g>
</svg>
