<?xml version="1.0" encoding="utf-8"?>
<!-- Generator: Adobe Illustrator 23.0.0, SVG Export Plug-In . SVG Version: 6.00 Build 0)  -->
<svg version="1.0" xmlns="http://www.w3.org/2000/svg" xmlns:xlink="http://www.w3.org/1999/xlink" x="0px" y="0px"
	 viewBox="0 0 3000 3000" style="enable-background:new 0 0 3000 3000;" xml:space="preserve">
<style type="text/css">
	.st0{stroke:#000000;stroke-width:10;stroke-miterlimit:10;}
</style>
<g id="Layer_1">
</g>
<g id="Layer_2">
	<g>
		<path class="st0" d="M1446.2,2611.7c-216.8-2.8-412.6-11.7-608.5-18.1c-75.5-2.5-151.1,4.5-226.5-5
			c-100.7-12.6-199.3-34.7-285.3-89.8c-110.3-70.7-179.3-171.6-200.8-303.1c-19.7-120.9-26.5-242.9-33.3-364.8
			c-5.2-93.1-8.8-186.3-3.9-279.8c8-151.7,39.2-299.2,73-446.5c14.2-61.9,32.6-122.5,55.2-181.8c85.3-223.4,248.4-362.3,472.4-435.3
			c136.2-44.4,276.5-69.8,418-89.1c172.8-23.6,345.7-47.3,519.9-59.5c258.3-18.1,514.9-13,765.1,64.5
			c101.3,31.4,194.7,79.1,281.5,140.2c142,99.9,219.9,237.2,242.3,408.3c24.4,186.2,30.9,373.6,38.8,560.9
			c2.4,57.8,2.1,115.7,2.2,173.5c0.2,187.9-60.5,358.9-148.9,521.2c-53.2,97.6-124.6,180.4-209.6,252.8
			c-104,88.4-224.8,128.5-358.2,139.6c-162,13.5-324.1,15.4-486.5,12.3C1643.8,2610,1534.6,2611.7,1446.2,2611.7z M1472.4,856.2
			c-68-2.7-147.3-3.3-226.6,1c-90.8,5-180,18.1-264.9,52.5c-295.9,120.1-487.7,471.4-433.4,792.8
			c57.1,337.4,286.4,563.8,623.5,611.3c211.7,29.8,424.6,29.7,636.4,3.9c169.1-20.6,319.2-89.1,441.9-209.9
			c179.8-177.1,264.9-388.3,228.9-643c-24.2-170.9-94.4-317-226.2-430.7c-97.6-84.2-214.1-126.3-338.9-148.9
			C1771.2,859.4,1627.5,858,1472.4,856.2z M2836.3,962.1c0-11.2,0.2-22.4,0-33.6c-1-65.6-31.2-112.8-88.3-145.1
			c-131.9-74.6-315.1-36.1-405,85.9c-27.8,37.6-39.3,79.6-38.5,125.9c0.3,15.9,5.4,28.1,17,39.5c60.9,60.5,109.3,129.9,143,208.8
			c7.1,16.5,16.2,19.2,32,17.9c71.7-6.2,138-29.5,202-61.2C2797.2,1151.3,2840.6,1070.3,2836.3,962.1z M2573,2285.4
			c0-11.2,0.4-22.4-0.1-33.6c-4.6-99.9-84.2-184.8-183.4-195.3c-14.3-1.5-27.9-3-40,11.8c-70.6,86.1-155.1,155.9-253.9,207.9
			c-8.5,4.5-14.9,9.9-18.7,19.5c-25,62.8-2,144.5,53.5,183.1c64.8,45,138.7,65,215.2,52.3C2499.8,2505.5,2577.7,2431.9,2573,2285.4z
			 M366.7,916.4c0,14-0.2,27.9,0,41.9c1.3,97.2,57.5,177.5,142.2,203.2c47.9,14.5,106.1,3.8,127-25.7
			c52.2-73.7,113.2-138.6,186.8-191.2c10.7-7.6,13-15.5,11.2-28.2c-17.8-123.3-109.5-220.1-232.7-244.9
			C492.4,649.6,400,712.1,378,821.8C371.8,853.1,371.2,884.8,366.7,916.4z M770.3,2299c-3.1-119.5-38-165.8-147.3-195.6
			c-143.7-39.1-276.2,21.3-331.2,151.1c-34.7,81.9-8.6,162,67.5,207.3c39.5,23.5,81.9,40.3,126.1,51.6
			C613.7,2546.4,776.1,2471.4,770.3,2299z M521,618.6c119.2-6.4,214.1,39.7,289.5,129.2c9,10.7,13.8,7.4,21.1-1.1
			c49.5-58.2,99.4-116.1,149-174.2c3.5-4.1,10.2-9.1,6.2-14.2c-21.7-27.8-44.2-55.2-70.8-78.6c-3.3-2.9-12.5,0.3-18.7,1.7
			c-34.5,7.7-69.2,14.9-103.4,23.9C698.2,530.3,605.2,562.6,521,618.6z M2806.8,765.3c-0.5-6.2-0.1-8.2-0.8-9.5
			c-67.4-119.6-174.8-192.9-293.1-253.9c-10.4-5.3-15.4,0.4-21.3,6.5c-23.8,24.9-47.4,50-71.6,74.6c-7.4,7.6-10.6,13.4-3.2,23.6
			c22.5,30.8,44.1,62.2,65.8,93.6c5.8,8.4,11.7,12.9,22.9,10.2C2612.5,684.8,2712.3,700.6,2806.8,765.3z M2024.4,2308.8
			c-27.6,14-60.3,10.3-77.2,34.8c-36.4,52.9-69.4,108-104.3,162c-6.3,9.8-4.6,15.6,3.6,23.6c25.3,24.9,51.8,39.3,90.5,37.9
			c76.8-2.8,153.6-4.2,231.3-10.9c-46.3-23.7-89.4-49.7-117.2-95.4C2023.2,2414.9,2017.6,2365.1,2024.4,2308.8z M886.9,902.7
			c4-2.1,8.1-4.1,12.2-6.3c27.9-15.1,56.8-27.9,86.8-38.3c10.2-3.5,18-9,24.6-17.3c31.6-40.3,62.4-81.2,95.4-120.4
			c11.7-13.9,7.7-21.8-2.1-32.4c-22.6-24.8-45.7-49.2-66.6-75.3c-12.8-15.9-19.9-12-31,1.3c-42.9,51.5-85.7,103.2-130.8,152.8
			c-20.8,22.8-31.1,42.4-13.3,72.1c8.7,14.5,9.7,33.7,14.2,50.7C877.8,895.5,876.7,903.5,886.9,902.7z M2266.7,480.6
			c-2.5,2-5.5,4.2-8.2,6.6c-46.1,40.8-91.9,82-138.4,122.3c-10.8,9.4-8.8,15.4-1,25c24.6,30.5,48.9,61.2,72.1,92.7
			c10,13.5,16,10.1,25.5,0c39.7-42.1,79.9-83.8,120.4-125.1c8.9-9,9.7-15.6,2-26c-20.5-27.7-39.7-56.4-59.5-84.7
			C2276.3,487,2273.8,481.7,2266.7,480.6z M1584.4,548.8c-36.9,39.4-71.7,77.1-107.3,114c-9.5,9.8-8,16.6-0.3,25.9
			c29.8,35.9,59.3,72,88.4,108.4c8.5,10.6,14.6,11.2,24.1,0.9c29.7-32.3,60-64,90.7-95.3c9.1-9.3,9.1-16.2,1.3-26.2
			C1649.4,635.1,1618.1,593.3,1584.4,548.8z M1452.1,402.6c-18.2,1.9-34.6-1.5-46.3,13.7c-21,27.4-42.5,54.3-64.2,81.1
			c-6.7,8.3-8.8,15-0.9,24.4c28.8,34.2,57.2,68.7,85,103.8c9.6,12.2,15.5,7.9,23.7-1c30.9-33.6,62-67.1,93.8-99.9
			c10.8-11.2,9.3-19.5,0.4-30.7c-19.7-24.8-39-49.9-57.2-75.8C1476.7,404.6,1466.8,395.6,1452.1,402.6z M1402,673.1
			c-2.4-3.6-4.1-6.8-6.3-9.6c-28.1-34.8-56.4-69.3-84.2-104.3c-9.6-12.1-14.3-5.1-20.7,3c-33.4,42.4-66.7,84.9-100.9,126.7
			c-9,11.1-7.4,18.5,1.5,28.3c23.9,26.1,47.5,52.5,70.3,79.5c9.8,11.6,16.6,10.9,26.4,0c34.4-37.9,69.6-75.2,104.4-112.7
			C1395.6,680.8,1398.5,677.2,1402,673.1z M2066.4,385.3c-14.7-2.1-24.9,3.9-34.3,14.8c-12.8,14.8-26.3,29.2-40.7,42.4
			c-10.9,9.9-9.1,17.4-0.8,27.7c25.7,31.9,51.5,63.9,75.5,97.1c11,15.2,17.7,13,30,1.7c40.5-37.2,82.4-72.9,123.1-109.8
			c7.6-6.9,23-11.8,19.1-24.2c-4.7-14.9-15.2-27.1-33.6-29.5C2158.5,399.2,2112.5,392.1,2066.4,385.3z M1147.5,667.2
			c34.4-43.3,66.1-85.7,100.6-125.8c18.6-21.7,25.3-38.7,0.1-59.4c-10.5-8.7-17.9-21.3-26.8-32c-16.9-20.3-53.6-22.7-71.9-2.6
			c-29.9,33-58.3,67.6-87.3,101.4c-6.1,7.1-8,12.8-0.4,21.3C1090.5,601.6,1118.2,633.8,1147.5,667.2z M1719.3,649.1
			c30.3-27.7,59.9-54.9,89.6-81.8c8.8-8,11.6-14.7,2.5-25.7c-31-37.3-60.9-75.4-91-113.5c-6.7-8.4-11.6-13.3-21.3-2.5
			c-23.6,26.4-48,52.1-72.6,77.7c-7.2,7.5-7.2,13.8-1.1,21.9C1658.1,568.1,1690.6,611.2,1719.3,649.1z M2718,1381.8
			c-2.3,1.3-5,2.3-7.2,4c-41.7,31.3-83.2,62.9-125.2,93.9c-11.9,8.8-2.7,14,2.1,19.7c19.2,22.8,39.1,45.1,57.7,68.3
			c7.9,9.8,14.2,11.9,25.1,4.4c39.8-27.5,79.9-54.6,120.5-81.1c12.6-8.2,13.6-14.5,3.5-25.8c-21.8-24.2-42.4-49.6-63.7-74.3
			C2727.6,1387.1,2725.3,1381,2718,1381.8z M332.6,806c-4,2.1-6.2,2.5-7,3.7C276.2,884.5,247,967.9,221.8,1053
			c-2,6.8-0.8,12.6,3.2,18.4c18,26,35.9,52.2,53.6,78.5c4.9,7.3,9.5,11.1,17.3,2.9c16.7-17.6,33.5-35.2,50.8-52.1
			c8.3-8.1,4.1-14.8,0.3-22.3c-20.6-40-26.2-83.1-26.4-127.4C320.4,902.7,325.7,855,332.6,806z M2295.3,854.5c2-2.4,3.9-4.4,5.4-6.6
			c34.9-49,81-84.7,134-111.8c12.6-6.4,6.9-12.7,2.3-19.5c-16.9-24.6-34.5-48.6-51-73.5c-8.1-12.3-13.9-10.9-23.2-1.1
			c-39.7,42.1-80,83.5-120.1,125.3c-5.1,5.3-11.8,10.2-5,18.9c16.7,21.3,33.2,42.7,50,63.9C2289.2,852,2292.2,852.8,2295.3,854.5z
			 M242.4,1454.1c9.9-9.5,14.1-13.1,17.9-17.1c21.1-22.4,42-45,63.1-67.5c28.3-30.1,28.3-30.1,5.7-63.2
			c-12.6-18.5-25.7-36.7-37.6-55.6c-7.2-11.4-12.3-13.5-22.7-2.5c-30,32-60.9,63.2-91.9,94.2c-8.4,8.5-11.9,14.9-2.2,25.5
			c21.4,23.4,41.7,47.8,62.1,72.1C239.7,1443.4,240.4,1448.7,242.4,1454.1z M1851.1,593.5c-3.7,2.8-6.8,4.6-9.2,7.1
			c-27.2,28.2-54.1,56.5-81.4,84.6c-8.3,8.5-3.3,14.9,2,21.8c20.3,26.6,40.8,53.1,60.7,80c7.2,9.8,12.3,13.9,23.4,3.4
			c26.4-24.9,53.8-48.7,81.5-72.3c10.2-8.7,13.5-15.1,3.3-27c-23.6-27.6-45.6-56.5-68.4-84.7
			C1859.6,602.3,1855.7,598.5,1851.1,593.5z M2611.6,2385.4c55.1-52.8,97.9-107.3,135-166.5c4.4-7.1,2-11.7-3.4-16.8
			c-24.9-23.9-49.6-48.1-74.4-72c-3.8-3.6-8.1-9.9-14-4.6c-15.9,14.4-32.6,28.3-46.2,44.6c-8.7,10.5,2.2,23.1,4.4,34.6
			C2624.6,2262.8,2622.5,2320.9,2611.6,2385.4z M2897.5,1588c-1.6-2.3-3.6-5.5-5.9-8.3c-14.4-17-29.4-33.6-43.3-51.1
			c-8.1-10.3-14.8-10.6-25.4-3.2c-39.6,27.6-79.8,54.5-120,81.2c-10.4,6.9-14.2,11.9-3.9,23c19.6,21.1,38,43.4,55.9,65.9
			c8.3,10.5,14.3,10.4,24.1,1.7c36.2-32.1,73.1-63.3,109.6-95C2892.6,1598.7,2897.9,1595.7,2897.5,1588z M379,1378.9
			c-31.5,33.7-61.7,66.4-92.3,98.8c-6.3,6.7-6.8,11.9-0.5,19c24.7,28,49,56.3,73.2,84.6c5.9,6.9,10.1,8.2,17.4,0.9
			c25-25.1,50.6-49.7,76.6-73.8c8.5-7.8,5.9-13.4,0.5-21.2C429.2,1452.2,405.1,1416.8,379,1378.9z M2547,1449.1
			c5.6-3.8,11-7.2,16.1-11c24.6-18.3,49.1-36.7,73.5-55.2c56.6-42.7,56.3-42.5,8.2-94.1c-7.8-8.4-14.2-9.4-24.1-6
			c-36.1,12.3-73.2,20.8-111.4,23.8c-12.3,1-18.6,4.4-14.3,19c8.4,28.4,14.7,57.5,22.9,86C2522.4,1427.3,2534.9,1437.6,2547,1449.1z
			 M332,1623.5c-4.7-6.2-8.3-11.6-12.5-16.5c-20.6-24-42-47.3-61.7-71.9c-9.7-12.1-15.6-11.3-25.4-0.4c-25.4,28.4-51.5,56.2-78,83.6
			c-9.2,9.5-12.6,15.9-0.5,26.3c23.9,20.7,47.1,42.2,69.2,64.7c10.3,10.5,15.9,7.4,24.4-1.1c24.3-24.4,49.2-48.1,73.7-72.2
			C325.1,1632.2,328.4,1627.8,332,1623.5z M584.8,1214.4c-21.1,8-45.1-9.3-63.8,11.8c-31.6,35.6-64.6,69.8-97.5,104.2
			c-8.3,8.7-10.8,15.4-3,26.3c22.3,31,43.4,62.9,65,94.4c3.1,4.5,5.6,11.3,11.9,10.3c6-0.9,7.3-7.4,8.3-13
			C521,1367.2,549,1290.5,584.8,1214.4z M1010.1,2324.2c-3,1.2-7.2,1.6-9.5,3.9c-21.3,20.9-42.3,42.1-63.5,63.2
			c-7.1,7-2,11.4,2.9,16c28.2,25.8,56.5,51.5,84.6,77.5c6.6,6.1,11.3,7.7,17.7-0.8c28.6-38,57.6-75.6,86.5-113.3
			c4.6-6,11.4-13.9-1.5-16.4C1087.9,2346.6,1049.1,2336.8,1010.1,2324.2z M1387.6,2562.9c25.5,9.2,41.3-6.8,55.3-27.3
			c5.8-8.4,13.2-15.8,18.9-24.3c13-19.1,40.1-35.5,37.8-55.7c-2.1-18-27.3-33.4-42.3-50c-3.7-4.2-7.6-8.3-10.9-12.7
			c-11.6-15.6-20.6-14.8-31.2,2.1c-25.8,41-53.1,81.1-79.6,121.7c-12.8,19.6-1.9,42.9,21.5,45.9
			C1366.4,2563.8,1375.8,2562.9,1387.6,2562.9z M1176.5,2555.5c0,1.5,0,3,0,4.5c19.6,0,39.2-1.1,58.7,0.4
			c13.9,1.1,19.6-6.8,26.3-16.2c7.7-10.7,0.5-17-4.9-24.4c-25.8-35.3-52.2-70.3-77.2-106.2c-8.8-12.7-13.7-14.5-23.6-1
			c-25.4,34.5-52,68.1-78.2,102c-4.1,5.3-8.5,10.5-1.5,16.8c13,11.5,23.3,26.4,44.5,24.5C1139.1,2554.1,1157.8,2555.5,1176.5,2555.5
			z M1706.8,2566c12.9,0,21.4-0.4,29.7,0.1c21.7,1.2,22.9-19.2,31.6-30.8c9.7-13-6.1-17.4-12.5-23.2c-31.3-27.9-63.3-55-95.2-82.2
			c-45.3-38.6-44.7-38-81.2,7.5c-11,13.7-8.9,21.5,2.3,32.6c21.8,21.6,44,43.3,63.3,67.1C1662.6,2559.2,1682,2572.8,1706.8,2566z
			 M2659.5,2053.9c3.1-2.4,5.4-3.9,7.4-5.8c22.9-21.7,45.6-43.7,68.8-65.1c9.5-8.8,3.5-14.1-2.7-20.3
			c-25.7-25.5-51.6-50.9-76.8-76.9c-8.1-8.3-14-9.4-23-1.2c-21.9,20.1-44.4,39.6-67.1,58.7c-8.6,7.3-11.4,12.4-1.6,21.6
			c28.5,26.6,56.2,54.1,84.3,81.2C2652,2049.1,2656,2051.4,2659.5,2053.9z M2899.1,1337.9c-0.7,0-1.4,0-2.1,0c0-22.3-0.1-44.7,0-67
			c0.1-19.6-6.8-19.9-20.8-9c-33.9,26.2-67.9,52.2-102.9,76.8c-14.3,10.1-12.1,16.7-1.7,27.7c14.7,15.5,27.8,32.5,41.4,49
			c32.9,39.8,32.5,39.5,74.7,10.6c11.3-7.7,16.7-15.6,15.2-29.6C2900.8,1377.1,2900.3,1357.5,2899.1,1337.9z M2880.3,1047.8
			c-46,112.2-77.7,150.8-155,191.4c-42.4,22.3-41.6,21.6-12.2,58.5c11.7,14.7,19.4,14.6,33.4,3.6c41.9-32.7,84.6-64.4,127.6-95.5
			c12.9-9.3,17.1-19.1,15.3-35.2C2885.2,1131.6,2883.4,1092.5,2880.3,1047.8z M355.9,1833.1c4.1-3,8-5.2,11.3-8.1
			c22.8-20.4,45.3-41.3,68.4-61.4c8.2-7.2,8-12.4,0.8-20.4c-21-23.6-41.4-47.7-61.6-71.9c-7.6-9.2-13.4-9.8-22.1-0.8
			c-23.4,23.9-47.1,47.5-71.7,70.1c-10.3,9.5-9.6,15.2,0.4,24c21.6,19.1,42.2,39.2,63.2,58.8
			C347.9,1826.5,351.5,1829.3,355.9,1833.1z M2646.4,1808.9c3.2-1.9,5.8-2.9,7.8-4.6c23.3-19.9,46.5-40,69.9-59.9
			c8-6.8,1.6-11.5-2.4-16c-23.8-27.2-43.6-68.6-73-77.2c-26.6-7.8-56.1,32.3-85.4,49.7c-0.8,0.5-1.5,1.1-2.3,1.5
			c-12,5.7-11.1,11.9-2.1,20.6c26.1,25.2,51.5,51.1,77.3,76.7C2639.3,1803,2642.9,1805.9,2646.4,1808.9z M175.7,2200.1
			c31.9-28.1,60.9-54,90.3-79.2c38.5-33.1,38.7-32.9,2.5-68.9c-39.9-39.7-40.2-40-80.9-1.9c-11.1,10.4-29.6,16.9-29.3,34.9
			C159,2122.7,164.6,2160,175.7,2200.1z M785.4,2542.8c29.2-0.3,56,3.9,82.8,4.9c34.4,1.3,68.8,1.4,103.1,3.2
			c13.6,0.7,24.5-2.3,29.9-14.7c5.3-11.9-7.5-15.6-13.4-21.2c-25.6-24.3-51.9-47.9-78-71.7c-6.9-6.3-12.3-13.3-22.6-2.7
			C853.8,2475.1,819.4,2508.8,785.4,2542.8z M2069.5,655.4c-16,14.1-32.3,29.5-49.8,43.3c-12,9.4-10.4,16.3-1.5,27
			c25.6,30.8,49.7,62.9,75.3,93.7c5.5,6.6,11.7,26.2,24.2,9.5c15.3-20.6,47.2-29.7,44.9-62.7c-0.1-0.8-1.1-1.4-1.7-2.2
			c-25.8-33.1-51.5-66.2-77.4-99.2C2080.3,660.6,2077.5,655.2,2069.5,655.4z M2040.7,610.5c-2.6-3.3-6-7.6-9.4-12
			c-16.5-21.3-32.9-42.7-49.5-64c-34.8-44.6-33.8-43.5-74.6-3.9c-19.3,18.7-25.8,32.4-3.1,52.6c12.3,10.9,19.8,27.2,31.6,38.8
			c15.8,15.5,23.4,48.7,45.7,45.1c19.5-3.2,35.4-28.1,52.8-43.6C2037.7,620.4,2041.4,617.5,2040.7,610.5z M479.5,1201.6
			c-33.5-16.4-62.7-34.5-86.5-60.1c-7-7.6-11.6-8.3-20.4-1.1c-62.9,52.1-63.4,53.8-18.3,119.6c6.3,9.2,13.7,17.8,19.1,27.4
			c7.3,12.8,13.2,15.2,24.1,2.8C423.5,1261.1,450.5,1232.9,479.5,1201.6z M322.6,1869.7c-7.4-8.2-10.7-12.6-14.6-16.3
			c-16.9-16-35.2-30.8-50.7-48.1c-15.4-17.2-27.1-21.4-43.3-0.7c-18.2,23.2-59.8,40.6-56.6,63.9c3.3,24.5,39.3,44.2,60.1,66.8
			c10.3,11.2,17.6,9.5,27.6,0c20.3-19.3,41.3-37.8,62.3-56.3C311.4,1875.5,316.8,1873.2,322.6,1869.7z M2846.5,1875.7
			c-4.2-5.2-7.6-9.5-11.1-13.6c-16.2-19.2-32.3-38.4-48.6-57.5c-25.4-29.8-25.6-29.9-54.5-4.7c-16,14-42.1,27-44.6,43.3
			c-3.1,19.9,25.7,32.5,40.8,48.1c15.9,16.5,30.3,44.9,50.3,44.1c17.2-0.7,33.5-26.4,49.9-41.3
			C2834.8,1888.7,2840.1,1882.4,2846.5,1875.7z M431.2,1972.1c-2.4-3.4-3.6-6-5.5-7.8c-21-19.8-42.2-39.4-63.2-59.3
			c-8.5-8-13.2-0.7-18.5,4c-22.9,20.5-45.3,41.6-68.6,61.6c-9.3,8-9.7,13.2-0.6,21.7c18.4,17.2,36.2,35,53.5,53.2
			c8.6,9.1,14.4,7.4,22.8-0.4c22.5-20.9,46-40.8,68.9-61.2C424,1980.4,427.4,1976.1,431.2,1972.1z M1749.2,376.4
			c-1.1,2.7-2.2,5.4-3.4,8.2c31.3,39.1,63.5,77.6,93.5,117.7c12.6,16.8,19.1,12.8,31.2,0.3c47.8-49.5,48.2-49.2,5.6-103.4
			c-8.4-10.7-14.5-23.7-32.1-23.1C1812.4,377.1,1780.8,376.4,1749.2,376.4z M1798.9,2487.4c28.4-44.5,55.9-87.6,86.8-136.1
			c-72.4,16.5-139,21.3-212.9,26.2C1717.4,2416.4,1756.9,2450.9,1798.9,2487.4z M2516.7,1745.4c-12.7,37.4-21,70.2-34.9,100.5
			c-10.6,23.1-7.6,38,12.4,51.6c6.1,4.2,11.7,9.4,16.7,14.9c6.2,6.8,11.3,7.2,18.4,0.9c23.7-21.1,47.8-41.7,71.8-62.5
			c6.3-5.4,10.1-10,2.2-17.9C2574.8,1804.8,2547,1776.1,2516.7,1745.4z M543.9,1871.7c-4.1-6.4-7.1-12.2-11.2-17.1
			c-14.4-17.2-29.7-33.6-43.6-51.1c-9-11.3-15.9-12.6-26.6-1.8c-15.8,15.8-32.1,31.4-50,44.8c-19.9,14.9-22,26,0,41
			c21.2,14.4,35.8,50.3,58.1,46.7c22.6-3.6,41.4-32.3,61.7-50.1C536.3,1880.6,539.7,1876.3,543.9,1871.7z M2908.5,1647.2
			c-36.1,31.4-66.4,59-98.2,84.8c-11.7,9.5-11.5,15.8-2.3,26.1c19.3,21.5,37.7,43.8,56.9,65.5c5.7,6.4,8.8,19.2,20.3,15.3
			c10.3-3.5,13.8-14.5,15.6-24.9C2909.9,1760.6,2910.4,1707,2908.5,1647.2z M2070.5,876.7c1.1-2.1,2.3-4.2,3.4-6.3
			c-31.2-39.1-62.3-78.3-93.5-117.4c-3.9-4.9-7.9-11.6-15.6-4.9c-29.3,26-58.6,52.1-92.7,82.5
			C1944.3,841.5,2007.9,856.7,2070.5,876.7z M2777.9,2010.7c-1.6,0.7-4.5,1.3-6.3,3c-23.8,22.3-47.4,44.7-71.1,67.1
			c-8.6,8.1-1.5,13.1,3.7,18.1c19.3,18.9,39.1,37.3,58,56.6c9.9,10.2,16.2,9.9,22.3-3.3c11.3-24.5,23.5-48.5,34.7-73.1
			C2827.2,2061.9,2798,2013,2777.9,2010.7z M2259.5,978.4c-2.9-29.9,14.4-53.5,7.9-74.1c-6.9-21.7-27.4-39.2-42.3-58.3
			c-25.4-32.9-25.5-32.8-53.6-4c-7.2,7.3-13.9,15.2-21.6,21.9c-10.1,8.8-7.3,15.1-0.8,25.7C2174.4,930.7,2218,947.4,2259.5,978.4z
			 M494.3,1534.4c-31,29.6-56.4,55.1-83.3,79.1c-12.6,11.2-9.7,18.3,0.2,28.9c19,20.3,36.6,42,55.2,62.7c5.1,5.7,7.9,17.5,18.4,12.7
			c10.4-4.7,17.3-13.3,15.1-26.8C491.6,1641.4,492.7,1591.4,494.3,1534.4z M1205,2368.8c29.5,40.7,55.6,76.4,81.4,112.3
			c4.5,6.2,9.2,10.2,14.7,1.9c22.2-33.4,44.2-67,68.3-103.7C1313.2,2375.7,1262.5,2372.4,1205,2368.8z M809.2,2223.5
			c7.2,29.9-1.1,57,13.5,74.8c20.4,24.8,47.6,44,71.9,65.5c21.9-14.5,37.6-35.6,56.3-53.5c1.2-1.2,1.6-3.3,3.2-6.7
			C905.9,2282.3,858.7,2258.8,809.2,2223.5z M2455.7,477.7c-41.6-19.2-83.2-32.1-125.1-44.1c-8.8-2.5-14.2,1.6-19.5,7.1
			c-8,8.1-0.2,13.5,3.7,19.1c19,27.6,38.8,54.6,57.3,82.5c7.2,10.8,12.3,11.3,20.9,2C2412.3,522.9,2432.4,502.2,2455.7,477.7z
			 M2468.5,2030.2c43.6,20.6,78.7,48.6,105.7,86.5c2.8,3.9,5.7,12.4,12.1,7.2c12.2-9.9,26.2-19.7,33.4-32.8
			c5.9-10.8-10.7-16.7-17.6-24.2c-13.2-14.3-27.7-27.4-41.7-41C2516,1982.7,2516,1982.7,2468.5,2030.2z M1512.3,806.3
			c-25.9-31.7-48.8-59.5-71.2-87.6c-5.2-6.5-9-8.2-15.1-1.5c-26.1,28.4-52.4,56.6-82.5,89.1C1401.7,806.3,1454.1,806.3,1512.3,806.3
			z M640.7,2054.9c-28.7-39.2-51.6-80.6-71.7-123.5c-5-10.7-9.9-8.5-16.5-2.3c-5.5,5.1-11.3,9.7-17,14.6
			c-32.9,28.1-32.4,27.6-1.8,58C562.9,2030.8,591.1,2060.7,640.7,2054.9z M816,2359.9c-41.5,112.2-53.5,122.3-145.5,184.2
			c37.8,8.8,38.4,8.7,63.4-16.3c30.4-30.3,60.8-60.7,91.1-91C864.6,2397.3,864.6,2397.3,816,2359.9z M2528.3,1667.7
			c29.4-19.8,54.3-36.9,79.6-53.4c8.7-5.7,7.8-10.1,1.5-17.3c-20.8-23.7-40.9-47.9-61.4-71.8c-2.7-3.2-5.5-8.2-11.2-5.5
			c-5.4,2.6-3.9,7.9-3.7,12.2C2534.8,1575.3,2535.3,1618.7,2528.3,1667.7z M1639.5,811.3c51.9,2.9,97.1,8.5,147.5,6.4
			c-24-31.9-45.1-59.9-60.5-80.3C1698.6,761.1,1671.3,784.3,1639.5,811.3z M1675.2,382c-48.6,3.8-89.9,7.2-131.3,10.2
			c-12.3,0.9-15.1,5.1-7.4,15.2c14.6,19.2,29.2,38.5,43.9,57.7c4.1,5.4,8.4,10.4,15.3,3C1620.6,441,1645.6,414,1675.2,382z
			 M136,1569.7c27-28.9,49.5-53,72.1-77c4.8-5.1,4.2-9.7,0-14.5c-18.7-21.4-37.4-42.8-60-68.8C142.2,1464.5,134.9,1513.2,136,1569.7
			z M1083.3,824.6c42.5-5.6,84-5,127.8-14.4c-18.6-20.9-34.8-38.7-50.3-57c-7.5-8.9-12.9-11.1-21-0.4
			C1121.5,777.2,1102.2,800.7,1083.3,824.6z M171.6,1272.8c1.6,1.1,3.2,2.2,4.8,3.4c23.1-24.1,46-48.4,69.3-72.3
			c5.3-5.4,7.1-9.7,2.2-16.6c-13.8-19.1-27-38.5-43.6-62.2C192.5,1178.5,182,1225.7,171.6,1272.8z M1606.6,2564.4
			c-22.3-23.5-40.6-43.1-59.2-62.5c-4.2-4.4-9.1-12.2-15.4-3.5c-15.4,21.3-35.5,39.4-48.5,66
			C1524.4,2564.4,1562.2,2564.4,1606.6,2564.4z M230.7,2340.7c-3.3-64.4,18.6-113,44.6-161.2c-28.9,21.6-54.9,44.8-81.1,67.9
			c-4.9,4.3-5.3,9-3.2,14.9C199.6,2287.6,209,2312.4,230.7,2340.7z M136.1,1805.9c3.5,2.3,7.1,4.6,10.6,6.9
			c15.2-17.4,30.3-34.9,45.8-52.1c5.3-5.9,6.6-10.2,0-16.1c-18.4-16.5-36.3-33.5-56.4-52.1C136.1,1732.8,136.1,1769.4,136.1,1805.9z
			 M1085.8,448.2c-40.8,6.7-75.5,12.3-114.9,18.7c15.9,18,28.3,31.6,40.1,45.6c6.7,7.9,12.2,10.1,19.8,0.8
			C1047.6,492.8,1065.1,472.7,1085.8,448.2z M2396.7,2010c6,0.8,10.4,2.8,13.1,1.4c26.7-13.6,48.7-34.3,67.7-56.2
			c9.3-10.7-12.7-18-19.6-27.3c-7.4-10-11.7-1.8-15.7,5C2427.7,1957.8,2413,1982.4,2396.7,2010z M506.7,2045.1
			c-7.8-15.3-20-22.7-29.6-32.4c-6.3-6.3-11.7-6.9-18.8-0.3c-22.6,21-45.8,41.4-68.8,62C427.8,2060.5,466.2,2051.3,506.7,2045.1z
			 M1263.1,425.1c11.6,14.7,20.5,26.1,29.5,37.3c4.3,5.4,9.4,10.4,15.2,2.1c11.1-16,27.4-28.5,35-50.2
			C1315.9,417.9,1291.6,421.2,1263.1,425.1z M2875.7,1915.8c-13.6,12-24,21.1-34.2,30.4c-33.4,30.5-33.3,30.6,4.8,59.9
			C2859.7,1978.3,2867.4,1949.2,2875.7,1915.8z M149.3,1937.8c-3.9,29.3-2,50.9,6.5,74.2c42.7-31,42.8-31.1,6.5-65.4
			C158.7,1943.1,156.2,1937,149.3,1937.8z M1980.6,381.8c-19.3-0.8-37.1-5.9-56.1,0.9C1951.5,422.7,1952.2,422.7,1980.6,381.8z
			 M1501.9,2382.4c34,40.8,40.1,40.3,55.1,0C1540,2382.4,1523,2382.4,1501.9,2382.4z M2903.7,1474.1c-30.7,16.6-30.4,20.3,2.4,43.6
			C2908.7,1503.8,2907.3,1490.4,2903.7,1474.1z"/>
		<path class="st0" d="M1510.1,2191c-145-1-266.4-2.4-384.7-34.3c-175.2-47.3-305.6-153.1-392.5-310.7
			c-107.8-195.4-80.7-409.5,74.9-582.9c142.6-158.8,319.7-250.6,535.7-261.3c147.5-7.3,295-10.3,440.8,18.2
			c171,33.4,313.9,111.4,407.2,264.6c132,216.8,100.1,502.9-74.6,696c-117.7,130.1-266.2,190.6-437.3,203.9
			C1615.4,2189.5,1551,2192.3,1510.1,2191z M2171.7,1814c107.5-208.3,52.4-481-126-628.4c-89.8-74.2-196.1-109.7-309.2-126.7
			c-122.3-18.3-245.3-15.6-368.6-11.9c-212,6.4-386.2,91.9-525.7,248.1c-117.3,131.4-163.3,284.3-100.1,453.6
			c82.2,220.3,247.5,345.2,478.7,379.6c149.1,22.2,299.6,20.2,449.7,9.9c124.2-8.5,240.5-41.9,339.7-121.5
			c7.2-5.8,16.8-10,19.9-22.4c-76.9,4.8-151.5,12-226.4,11c-16.3-0.2-25.9,3.3-35.4,18.7c-32.4,52.5-89.8,54.8-133.6,10.1
			c-38.7-39.5-82.8-72.9-134.3-94.4C1439,1914.3,1383,1922,1336,1971c-23.2,24.2-43.6,51.1-66.5,75.6
			c-38.3,41.1-83.6,36.4-113.9-10.9c-40.5-63.3-37.2-159.3,8.2-219.3c39.3-52,94.2-79,156.3-90.2c114.7-20.6,230.8-11,346.4-10.6
			c20.3,0.1,41.7,6.1,57.7,19.2c37.4,30.6,73.2,25,110,0.1c38.4-25.9,81.3-32.1,126-25.9C2041.3,1720.3,2110.9,1755.7,2171.7,1814z
			 M1459.3,1760.5c-30.8,1.6-61.6,1.9-92.2,5.1c-47.8,5-93.1,17.9-133.2,46.3c-60.8,43.1-79.4,135.8-39.6,197.9
			c12.4,19.4,25,23.9,41.2,4.6c13.1-15.8,26.7-31.2,39.7-47.1c78-95.4,167.1-113.3,275.4-55.2c45.7,24.5,84.4,58.1,122,93.2
			c22.7,21.2,47.8,15.6,59.8-12.9c13.6-32.4,0.4-60.5-16.7-86.8c-21-32.4-51.2-56.3-78.8-82.9
			C1586.6,1774.2,1532.2,1742.5,1459.3,1760.5z M1742.4,1856.5c5.2,19.3,16.2,24.3,32.1,24.2c63.3-0.4,126.7,1.4,189.9-0.5
			c52-1.5,104.1-4,155-17.6c22.2-6,19.5-14.1,6.1-27.4c-7.5-7.4-15.4-8.9-25.2-8.1C1981.6,1836.9,1863,1846.6,1742.4,1856.5z
			 M2106.4,1914.5c-105.9,16.5-208.5,13.4-311.1,13.1c-5.6,0-18-4.4-13.9,9.2c2.5,8.3-4.3,22.7,12.2,23.9c7.4,0.5,14.9,0.5,22.4,0.2
			c80.1-3.8,160.2-8.5,240.4-11.1C2079.9,1949,2095,1940.5,2106.4,1914.5z M2040.6,1785.2c-65.8-46.8-144.6-40.1-233.9,19
			C1885.2,1797.9,1961.7,1791.6,2040.6,1785.2z M1641.8,1761.8c35.9,46.4,52.9,53,118.7,45.5
			C1691.1,1767.4,1681.5,1763.7,1641.8,1761.8z"/>
		<path class="st0" d="M1847.7,1608.2c-25.1-0.5-50.4,1.7-75.1-5.3c-33.8-9.5-54.6-29.8-59.7-65.8c-4-28.3-0.2-55.9,6.9-82.7
			c9.1-34.6,27-47,62.8-48.3c64.3-2.2,128.6-3.4,192.8,4.5c12.6,1.6,23.6,5.1,31.9,14.9c42.6,50.4,25.4,134.2-33.6,162.9
			C1933.8,1607.8,1890.9,1609.3,1847.7,1608.2z M1859.4,1449.7c0,0.4-0.1,0.9-0.1,1.3c-12.1,0-24.2-0.1-36.3,0
			c-59.8,0.3-67.1,8.8-64.3,69.7c1,21.9,8.8,34.7,31.7,37.8c50.3,6.7,100.2,6.4,149.5-6.9c10.9-2.9,20.9-8,29.3-15.6
			c20.3-18.4,11.4-41.1,8.7-62.9c-2.5-20.1-18.9-17.1-32-18.2C1917,1452.7,1888.2,1451.4,1859.4,1449.7z"/>
		<path class="st0" d="M1030.8,1494.4c-11.4-2.7-23.7,12.9-28.8,1.1c-5.7-13.4-9.3-31.2,2.8-44.8c10.7-11.9,25.6-18.5,30-37.8
			c2.4-10.8,24.3-8.8,32.5-4.2c21.6,12.1,43.1,5.7,64.6,5.7c30.8,0,61.6-1.9,92.3-2.5c32.9-0.6,62.3,8.1,76.3,40.8
			c15.1,35.4,17.9,72.3-0.6,107.9c-6.2,12-18.1,18.1-31.9,20.1c-60.4,8.8-121.1,5.2-181.7,3.4c-28.1-0.8-46.2-18.9-51.3-47.2
			C1032.4,1523.3,1032.2,1509.2,1030.8,1494.4z M1164.4,1538.3c0,0.6,0,1.1,0.1,1.7c27-1.3,53.9-2.4,80.8-4
			c5.2-0.3,13.7-1.5,14.9-4.5c6.8-17.9,5.3-36.6,0-54.6c-4.6-15.5-18.1-17.1-31.7-16.9c-41,0.7-81.9,2.7-122.9,1.9
			c-21.7-0.4-31.4,6.1-27.8,28.6c1.1,7.3,0.3,14.9,0.5,22.3c0.5,17.8,7.9,27.1,27.4,25.8C1125.3,1537.3,1144.9,1538.3,1164.4,1538.3
			z"/>
	</g>
</g>
</svg>
