<?xml version="1.0" encoding="utf-8"?>
<!-- Generator: Adobe Illustrator 23.0.0, SVG Export Plug-In . SVG Version: 6.00 Build 0)  -->
<svg version="1.0" xmlns="http://www.w3.org/2000/svg" xmlns:xlink="http://www.w3.org/1999/xlink" x="0px" y="0px"
	 viewBox="0 0 3000 3000" style="enable-background:new 0 0 3000 3000;" xml:space="preserve">
<style type="text/css">
	.st0{stroke:#000000;stroke-width:10;stroke-miterlimit:10;}
</style>
<g id="Layer_1">
</g>
<g id="Layer_2">
	<g>
		<path class="st0" d="M741.9,1751.9c-72.7-76.4-117.3-166.9-142.8-269.5c-56.9,34-115.9,55.4-180.6,58
			c-171.5,6.8-319.8-73.6-339.8-274.8C58,1057.1,91.6,855.3,199.1,672.3C276,541.5,387.4,452.3,541,424.4
			c143.2-25.9,296.7,46.8,366.1,174.9c11.8,21.7,17.8,10.4,27.1,0.7c129.6-136.4,281.2-239.8,459.4-301.7
			c223.8-77.8,438.7-61.3,640.1,69c96.4,62.4,158.7,130.9,241.4,255.8c12.5-17.6,23.9-34.7,36.4-51.1
			c83.5-109.5,183.2-197.4,318.7-236.9c60.4-17.6,121.2-21.1,182.4-3.3c98.6,28.7,151.8,112,139.3,213.8
			c-7.7,62.1-31.1,119-54.2,175.9c-98.6,242.7-122.1,493.5-88.2,752.1c15.2,116,31.5,232,35,349.4c4,133.6-10,263.8-63.8,387.7
			c-3.7,8.5-11,18.9,7.9,18.3c112.5-3.3,200.6,124.9,151.3,255.6c-48.1,127.6-196.5,184.2-284.8,176.5
			c-92.3-8-142.9-76.1-126.9-167.4c0.9-5.1,1.5-10.3,2.2-15.4c-2.3-0.9-4-2.3-4.9-1.9c-114.5,49.6-235.7,63.9-358.8,66
			c-91.6,1.5-183.3,0.7-275,0.1c-17.4-0.1-23.3,2.6-23.3,22.8c0.1,106.7-54.6,164.5-161.5,173.1c-22.8,1.8-45.9,2.7-68.6,1.1
			c-66-4.7-110.9-45.5-123.1-110.5c-4.4-23.4-7.3-47.2-3-70.9c2.6-14.2,0.3-20.5-16.4-20.6c-116.3-0.6-232.7-1.9-349-3.6
			c-15.8-0.2-20.5,4.9-17,19.9c6.6,27.8,7.7,56.1,2.7,84c-13.2,75.3-73.3,128.7-153.8,137.3c-29,3.1-58,2.2-86.5-5.7
			c-83.2-23-128.5-102-109.9-192.9c3.7-17.9,9-35.4,11.9-54.4c-25.8,26.6-51.2,53.1-79.8,76.2c-96.4,77.8-205,119.8-330,108.3
			c-102.9-9.5-195.9-43.7-266-124c-66-75.5-83.4-166.9-72.1-262.4c25.7-217.2,125.2-390.4,317.2-503.2
			c109.1-64.1,228.5-77.9,352.3-65C723.5,1752.7,731,1756.1,741.9,1751.9z M2584,403.7c-1.2-1.4-2.4-2.7-3.6-4.1
			c-11.3,5.8-22.9,11.2-33.9,17.6c-103.4,59.4-181.3,144.3-242.8,245.2c-83.5,137.1-184.2,259.5-303.2,367.5
			c-112.3,101.8-208,218.3-283.4,349.8c-71.3,124.4-177,205.8-306.3,259.6c-148.6,61.9-305.3,81.9-464.9,84.4
			c-74.9,1.2-151.3,71.6-158.6,146c-2.9,29.6,11.3,52.1,38.2,58c14.5,3.2,29.6,6,44.3,5.1c107.4-6.7,214.9-3.3,322.3-6.1
			c61.4-1.6,123,1.7,184.4,1.7c15.8,0,20.8,4,21,20.9c0.2,22-10.4,23.2-27.7,23c-157.7-1.6-315.5-2.3-473.2,3.5
			c-33.6,1.2-66.9,0.9-99-11c-4.9-1.8-8.5-4.1-13.9,0.7c-21,18.5-35,81.7-23.9,112c10.2,27.9,34.4,42.9,75.2,41.8
			c76.6-2,153.2-6,229.7-9.1c106.5-4.3,213-8.3,319.5-13.2c17.1-0.8,21.3,5.7,20.4,21.3c-0.8,12.8,1.3,22.3-18.2,23.1
			c-154.9,6-309.8,14.2-464.7,20c-43.7,1.6-88,7-131.5-3.3c-13.2-3.1-14.5,6.2-17,14.6c-13.1,44-4.9,83.5,25.9,117.7
			c11.6,12.8,24,22,43.6,13.6c14.6-6.2,31.2-4.7,47.1-4.5c156.8,1.8,313.7,3.9,470.5,4.8c18.5,0.1,23.3,5,23.6,23.4
			c0.2,19.9-7.4,22.6-24.8,22.3c-152.4-2.7-304.9-4.5-457.3-6.7c-16.8-0.2-33.5,0-49.9,3.9c-30.1,7.1-43.8,28.8-37.6,59.2
			c8.2,40.1,35.4,61.6,72.6,72.1c29,8.2,59.1,10.1,89,10.4c320.7,3.5,641.5,6.7,962.2,9.8c5.2,0.1,12.5,3.8,16.3-5.8
			c-34-35.3-62.8-75.1-85.2-119.3c-73.4-144.3-81.9-295.4-43.6-450.1c45.2-182.3,138.9-339.5,256.9-483.4
			c104.9-127.9,237.5-210.1,399.9-244.3c83-17.5,167.1-25,251.4-31.5c14-1.1,19.6-5,20.2-19.9c0.9-23.7,3-47.6,7.5-70.9
			c3.6-18.5-1.4-28.4-17.9-37.7c-63.9-35.9-125.1-76-174.5-131.2c-78.1-87.4-106-186.6-70.3-300.9c16.3-52.2,36.7-102.7,60.7-151.8
			C2567.3,435.7,2575.8,419.7,2584,403.7z M1633.2,488.3c-203.6,5.1-421.9,87.3-599,262.8c-194.8,193-285.4,429.9-274.7,704.3
			c4.1,104.6,60.9,175,151.4,221.5c7.6,3.9,15.3,3.7,23.1,3.5c108.5-2.7,216.3-11,322.2-37c189.8-46.7,349-135.6,441.5-317.6
			c5.1-9.9,8.1-18.2,5.7-29.6c-22-101.1-131.2-157.4-226.2-116.7c-42.8,18.3-69,53.2-94.4,89.5c-27.9,39.8-61.2,72.8-111.1,83.9
			c-95.4,21.2-195-37.5-221.6-134.5c-31.5-114.6,8.8-208.7,94-284.3c94.9-84.2,210.7-120,335.1-125c181.4-7.3,341.4,49.2,476,173.1
			c8.9,8.2,15,15.5,27.7,3.2c48.7-47.3,98.4-93.4,141.7-146c5.8-7,9.6-13.6,8.8-23.6c-11.3-130.9-69.6-228.9-194.7-280.9
			C1855.1,500.1,1767.5,488.4,1633.2,488.3z M2800.8,1872.6c0.5-145.9-22.9-277.2-36.8-409.3c-1.7-16.4-9.4-15.5-21-13.4
			c-37.2,6.7-74.7,12.3-111.7,19.7c-146,29.2-263.8,99.1-338.8,232.8c-48.5,86.5-74.2,180.4-94.3,276.2
			c-14.3,68.1-14.9,136.7,7.8,203.5c46.1,135.6,147.2,212.2,277.7,257.1c11.5,4,18.7-1.7,26.9-5.5
			c91.7-42.8,161.6-108.7,209.1-198.1C2781.9,2118.1,2802.3,1991.5,2800.8,1872.6z M404.4,1496.8c58.1,1.3,118.8-18.8,175.2-54.8
			c16.4-10.5,7.2-22.8,7-34.8c-0.2-12.9-9-11.9-18.3-12.3c-122.3-5.3-222-84.9-247.1-207.7c-37.4-182.6,15-340.1,157.4-460.2
			c105-88.4,227.3-105.6,356.8-53.8c10.4,4.2,19.6,15.2,32.4,0.8c12.1-13.6,16-25.3,7.3-42.2c-11.4-22-23.4-43.3-40.2-61.8
			c-97.6-107.7-249.8-136.6-384.3-72.4c-138,65.8-221.4,179-272.3,318.7c-44.4,122.1-60.6,249.4-62.5,378.6
			c-0.6,40.5,5.4,80.8,16.4,120.1C164.7,1430.6,258.4,1495.3,404.4,1496.8z M2174,776.2c24.5-35.8,46.7-68.3,69.1-100.5
			c6.4-9.3,1.8-16.3-2.8-24.1c-69-115.7-158.5-211.7-277.7-276c-190.1-102.5-385.7-101.8-584.2-25
			c-217.9,84.3-387.6,229.9-526.8,414c-114.1,150.9-203.3,313.7-221.1,506.3c-15.7,169,25.1,321.6,142.5,448.9
			c24.6,26.7,25.2,25.9,53.3,2c9.2-7.9,19-15.1,29.8-23.6c-7.9-6.2-14.6-11.6-21.5-16.8c-73.7-56.1-114-129.6-119-222.9
			c-2.9-55.7-2.5-111.1,5.8-166.1c54-360.6,243-622.1,578.4-769.5c192.4-84.6,393.8-106.5,598.9-48.5
			c113.3,32.1,204.1,94.3,249.7,209C2159.6,711.9,2165.1,742,2174,776.2z M760.5,1803.8c-142.4-26.4-276.8-14-398.4,65.1
			c-161.6,105.2-248.5,258.6-270.9,447.8c-25.8,218.3,111.1,331.3,303.2,346.1c161.9,12.4,282.9-67.8,380.1-190.5
			c8.8-11.1,9.7-20.1,4-33.1c-12.3-27.6-12.9-56.2-2.1-84.9c2.4-6.5,12.7-12.9,3.6-20.6c-9.6-8.1-16.8,1.4-22.7,6.6
			c-27.6,24.6-54.3,50.2-81.6,75.2c-62.6,57.5-136.8,80.6-221,74.3c-104.3-7.8-174.8-82.9-171.4-187.2
			c3.7-111.9,59.5-199.2,139.2-272.3c84.8-77.7,185.9-119.1,300.9-126.3c9.6-0.6,22.4,3.2,20.2-15.1
			C740.3,1860.3,749.2,1833.4,760.5,1803.8z M2301.7,2488.9c-20.5-10.9-33.9-17.4-46.7-24.8c-144.5-84.4-227.5-207-222.3-377.6
			c4.9-160.8,45.5-314,131.2-451.2c131.6-210.7,316.7-330.9,572.9-321.7c12.4,0.4,15.2-3.7,14.8-14.9c-0.9-22.9-2.3-45.9-1-68.7
			c1-17.9-4.5-22.5-22.3-21.2c-55.3,4.2-110.4,9.7-165.4,17c-175.3,23.4-324.2,96.1-439.3,233.3c-99.4,118.4-179.1,248.4-231.7,394
			c-38.3,105.8-54.6,215.1-38,327.3c17.6,119.4,65.1,224.1,157.7,305.1c7.8,6.8,15.2,14.4,27.2,14.5
			C2124.1,2500.8,2209.3,2499.2,2301.7,2488.9z M1740.1,1261.4c9-12,15.9-23.4,25-32.7c16.1-16.5,13.1-29.4-0.3-47.1
			c-121.2-159.9-363.7-150.7-471.2,19.9c-13.6,21.6-23.5,15.1-38.6,6.9c-21.4-11.7-4.1-22.4,1.4-31.2
			c37.8-59.9,90.3-103.2,155.6-129.9c136-55.5,291.4-14.1,382.6,102.2c11.8,15.1,17.5,19.6,31.2,1.2c28.4-38.2,61.6-72.6,96.2-105.3
			c14.6-13.8,14.4-22.2-1.1-36.1c-112.4-100.3-244.5-152.2-394-156.8c-124.8-3.8-241.7,25.6-341.5,104.3
			c-72.3,57.1-111.5,130.9-98.6,225.9c8.5,62.5,52.8,111.3,112.6,126.1c58.6,14.5,104.3-5.2,145-61.6c14.9-20.7,30.2-41.3,47.1-60.3
			c51.4-57.8,145.5-79.9,219.9-53C1673.8,1156.4,1713.3,1200.4,1740.1,1261.4z M2630.1,680.8c-1.4,34.9,10.2,68.3,31.7,98.8
			c31.4,44.6,75.9,72.4,122.8,97.5c15.5,8.3,15.3-3.1,17.8-12.2c18.9-68.8,45.2-135,70.5-201.6c12.2-32,24.7-64,31.4-97.8
			c19.8-99.9-20.1-169-110.9-193.9c-18.4-5.1-28.7-0.6-39.6,14.7c-43.2,60.6-77.9,125.4-104.1,195
			C2637.8,612.6,2630.5,644.6,2630.1,680.8z M2422.9,2465.4c-22.8-12-40.8-20.5-57.9-30.7c-148.8-88.6-230.7-217.1-218.4-392.7
			c9.1-130.1,46.2-254.4,112-368.4c65-112.6,160.3-187.4,284.6-226.2c64.2-20,130-31.3,196.2-41.1c12.3-1.8,21-4.2,17.4-18.8
			c-3-12,4.3-29.4-19.3-30c-36.1-1-72.2-2.3-108.1,3.2c-160.6,24.7-287.2,106.1-385,233.8c-88.8,116.1-134.9,249.6-158.2,392.6
			c-13.4,82.1-18.1,163.2,13.7,241.9c52.6,130.4,156.2,201.5,285.5,242.1C2397.6,2475,2406.5,2468.6,2422.9,2465.4z M2677.2,2617.1
			c12.4,0.9,28.9-1.6,45-6.2c83.6-23.7,151.8-66.4,180-154c26.2-81.1-14.2-161-89.5-181c-39.9-10.6-61.5-2.5-85.2,31.3
			c-29.4,42.1-62.2,82.2-105.7,109.5c-34,21.3-45.2,50.2-50.2,86.5C2561.8,2574.5,2600.8,2619.3,2677.2,2617.1z M771.1,798.6
			c-40.5-3.1-75.4-1.4-108.9,11.8c-123,48.3-175.8,147.4-193.7,270.6c-6,41.3-4.8,82.5,12.1,122c14.7,34.5,39.8,57.7,75.5,68.6
			c16.9,5.1,29.4,4,32.1-19.6c16.5-148.3,74.6-281.2,153.4-406.2C750.7,831.2,759.9,816.5,771.1,798.6z M710.5,690.1
			c-86.6,0.1-157.8,24.2-216.7,81c-120.7,116.5-168.5,257.7-125,422.4c24.2,91.3,107,155.1,191.1,157.1c9.8,0.2,21.8,3.3,23.3-13.5
			c1.2-14-5-17.5-17.6-19.8c-77.5-13.7-128.9-65.7-139.8-144.2c-15.6-112.9,12.5-215.5,83.1-304.3
			c66.9-84.2,155.3-125.4,264.1-113.4c23,2.5,35.1-4.1,47.1-21.8c8.9-13.1,5.7-16.8-6.9-22C777.8,696.9,741.1,689.6,710.5,690.1z
			 M505.7,2358.9c4.1-0.7,13.9-1.2,23-4.1c79.4-25.3,139.5-76.5,188.4-142.3c2.5-3.4,4.5-7.8,4.9-11.9c3.4-36.9,30.6-74.5-4.1-110.4
			c-4.3-4.4-5.1-13.2-5.4-20.1c-0.6-14.7-8.5-14.1-19.5-11.9c-64.1,12.7-123.2,37.2-173.4,79.1c-52.6,43.9-85.6,98.1-72.6,170.7
			C453,2341.7,471.6,2359.3,505.7,2358.9z M738.2,1949.9c-53.1-2.2-101.8,8.6-148.3,28c-126.9,52.9-219.8,139.6-255.9,275.8
			c-30.8,116.3,33.3,195.2,153.4,193.5c54.5-0.8,104.1-18.1,145.8-53.3c32.3-27.2,61.1-58.6,93.9-85.1c17.7-14.3,19.3-24.5,4-39.4
			c-10.1,9.9-19.9,19.8-30,29.4c-47.9,45.3-101,82.2-165.7,99.5c-67.8,18.1-117.7-11-131.1-80.2c-18.3-93.8,23.5-164.6,94.2-220.4
			c58.3-46,125.4-74.1,199.5-84.5c7.7-1.1,15.7-0.8,19.2-10.7C723.5,1985.5,730.6,1968.7,738.2,1949.9z M950.2,2733
			c76.5,0,130.7-42.2,140.3-109.1c2.8-19.5-1.6-38.6-2.8-57.8c-1.5-24.6-10.1-34.6-37.1-33.8c-54.5,1.5-109.4,3.6-163.3-8
			c-40.8-8.8-40.8-9.6-53.7,29.6c-3,9.2-5.2,18.6-7.1,28.1C808.6,2671.5,859,2733,950.2,2733z M2710.3,366.3
			c-22.2,6.9-49.1-4.6-64.8,21.2c-46,75.5-83.4,154.7-107.6,239.9c-22.7,80-8,153.2,41.2,219.6c38.9,52.5,89.2,91.8,144.6,125.4
			c47.8,29,46.8,29.2,59-25c3.7-16.5-1.5-23.6-15.6-30.1c-28-12.9-54.3-29.1-78.6-48.1c-57.1-44.4-97.4-99.2-102.6-174
			c-3.4-49.3,9.6-95.8,27-141.3C2638.2,488,2672,426.7,2710.3,366.3z M1691.4,2541.5c0-1.1,0-2.1,0-3.2c-37.8,0-75.5-0.2-113.3,0.1
			c-8,0.1-16.9-3-20.8,9.9c-24.4,81,24.2,147.8,108.4,147.7c10.5,0,21.1,0.2,31.6-0.6c89.2-7.1,126.4-45.3,126.8-128.5
			c0.1-18.1-3.7-27-24.7-26C1763.5,2542.8,1727.4,2541.5,1691.4,2541.5z"/>
		<path class="st0" d="M2515,2126.4c-19.1,0.1-44.9-4.1-69.7-14.4c-59.2-24.7-90.9-73.1-87.1-137.1c1.5-25.4,4.9-51,10.8-75.7
			c22.6-94.7,78.5-140.1,175.9-144.7c26.4-1.2,52.7-0.7,78.9,4.7c103.8,21.4,153.7,102.3,125.6,204.5
			C2722,2062.9,2629,2129.8,2515,2126.4z M2526.8,2082.6c87.9,0,160.7-53.6,181-133.2c18.4-72.5-12-125.9-83.2-145
			c-28.3-7.6-57.3-9.5-86.3-5.6c-99.3,13.3-164.1,120.4-131.3,216.6C2421.5,2058.5,2464.5,2082.6,2526.8,2082.6z"/>
	</g>
</g>
</svg>
