<?xml version="1.0" encoding="utf-8"?>
<!-- Generator: Adobe Illustrator 23.0.0, SVG Export Plug-In . SVG Version: 6.00 Build 0)  -->
<svg version="1.0" xmlns="http://www.w3.org/2000/svg" xmlns:xlink="http://www.w3.org/1999/xlink" x="0px" y="0px"
	 viewBox="0 0 3000 3000" style="enable-background:new 0 0 3000 3000;" xml:space="preserve">
<style type="text/css">
	.st0{stroke:#000000;stroke-width:10;stroke-miterlimit:10;}
</style>
<g id="Layer_1">
</g>
<g id="Layer_2">
	<g>
		<path class="st0" d="M1412,74.7c238.3,2.1,472.6,32.9,702.3,96.6c17.2,4.8,33.8,0.9,50.6-0.7c90.6-8.8,181-7.1,269.4,15.3
			c144.1,36.4,252.5,162.2,268.5,309.5c16.3,150.6-2.7,298.7-33.6,445.8c-12,57.3-26.3,114-42.9,170.1c-1.9,6.4-4.5,12.3-2.2,19.4
			c23,69.1,20.8,141.8,29.3,213c13.3,111.4,12.7,223.3,4.6,335c-5.6,77.5-13.1,155-31.3,230.9c-5.7,23.9-14.2,47.3-31.1,65.7
			c-12.2,13.3-13.4,24.6-6.2,41.3c39.9,93,66.6,190,79.8,290.3c18.8,143.3,10.2,282.7-65.9,411c-67.9,114.5-169.9,174.4-301.1,186.3
			c-75.3,6.9-149.4-2-222.6-19.6c-31.3-7.5-60.4-20.3-86.3-39.4c-10.3-7.6-17.6-8.6-29.1-0.9c-84.4,56.3-176.3,74.3-275.5,49.9
			c-25.8-6.3-49.9,3.2-74.3,7.1c-230.1,37.5-462.1,53.1-694.8,59.4c-63.8,1.7-127.7-0.8-190.4-13.6
			c-106.2-21.7-182-85.8-237.3-176.2c-46-75.3-73-158.1-95.2-243c-29-110.8-63.7-220.1-76.4-334.7c-12.7-115.3-17.5-230.5-2.1-345.9
			c10-74.8,47.3-134.7,102.5-184.3c11.1-10,17.3-15.6,3.3-29.7c-21.9-22-28.7-52-29.6-81.9c-3.3-101.5-8.5-203.4,13-303.5
			c6.2-28.8,1.3-51.8-10.2-77.6c-73.8-165-119.8-336.4-109.9-518.9C294.8,509,338.2,381.2,448.3,283
			c74.5-66.4,164.1-101.8,258.4-128.1c101.8-28.4,206.4-40.1,310.8-52.5c128.1-15.3,256.5-26.8,385.6-27.7
			C1406,74.7,1409,74.7,1412,74.7z M2031,206.6c-4.6-1.5-6.7-2.4-8.8-2.9c-179.9-43.4-362.4-67.1-547.5-72.7
			c-148.7-4.5-296.3,7.6-443.6,24.6c-104.4,12-209,24.2-310.7,52.4c-90,25-176.1,57.7-245.3,123.8C380.7,422,346.3,537.3,340.9,663
			c-7.2,168.7,36.8,327,103.1,480.3c3.8,8.8,6.2,13.8,16.7,5c61.2-51,136.1-62.9,211.6-69.5c19.8-1.7,21.9-8,24.2-23.8
			c20-137,81.6-251.5,189.7-338.7c112.2-90.5,241.6-130.4,385.6-130.4c158.9,0,317.1,8.5,474.8,26.7c15.3,1.8,33.3,10.9,45.4,2.9
			c12.8-8.5,5.4-28.9,9.3-43.7c1.3-5,1.7-10.2,2.7-15.3c27.9-143.9,88.9-266.6,221-343.5C2026.6,211.9,2027.8,210,2031,206.6z
			 M934.4,1188.5c7.2-4.3,6.8-11.1,9-16.3c59.8-143.2,165.8-224.8,321.5-234.9c189.8-12.4,352.4,126.2,377.7,318.3
			c23.8,180.8-100.3,355.4-280.6,395.2c-35.8,7.9-71.9,9.6-108.3,7.7c-8.8-0.5-17.1-2.6-20,10.7c-15.7,72-11.3,141.8,35.1,201.2
			c58.3,74.8,138.5,94.5,228.9,75.3c76.7-16.3,151.2-41.4,226.9-61.6c54.2-14.5,109.9-13.2,165.6-12.3c-3.6-31.3-7.8-61.3-10.4-91.4
			c-2.7-31-4-62.1-5.4-93.2c-4-86.6,19.3-121.1,100.7-149.9c1.1-0.4,1.6-2.1,3.4-4.7c-8.9-7.2-17.9-14.4-26.9-21.7
			c-36.5-30-57.4-69-56.3-116c2.6-102.3,24.5-199.9,83.2-285.9c9.9-14.6,7.7-21.1-4-32c-112.5-104.2-172.8-233-179.2-386.4
			c-0.6-14.9-6.1-18.9-19.5-19.6c-18.4-1.1-36.8-3.9-55.2-6c-152.6-17.7-305.6-25.2-459.2-24.3c-116,0.7-221.8,32-316.5,99.5
			c-111,79.2-173.5,187.7-195.2,321.2c-2.7,16.6,0.4,25.5,19.3,28.8c21.8,3.8,42,14,61.8,24.3
			C869.1,1134.2,902.9,1160.2,934.4,1188.5z M1934.7,948.3c8.7-4.9,10.5-13.5,14.4-20.3c98.2-168.9,270.2-249.7,457.2-211.9
			c50.7,10.3,43.8,0.1,29.7,50.1c-3.1,11.1-8.1,10.9-17.8,8.4c-17.8-4.6-36.1-8.5-54.4-10.2c-159-14.6-279,48.9-362.7,183.4
			c-31,49.8-29.8,53.9,13.3,92.7c9.8,8.8,15.6,9,25.8,0.6c29.5-24.5,63.3-40.6,101.5-47.4c71.8-12.7,144.1-19.8,216.8-14.8
			c80.3,5.5,157.1,22.8,219.3,79.3c1.2,1.1,3.8,0.7,7.5,1.2c8.8-36.5,17.9-72.3,26-108.3c33-146.7,52.6-294.7,38.1-445.3
			c-13-134.5-115-244.9-247.4-271.3c-68.9-13.7-138.4-15.8-208-12c-67.1,3.7-130.6,21.9-183.3,65.3c-121,99.9-157.9,235.7-163,388.5
			c24.6-11.8,45.6-22.3,66.8-32.1c148-68.2,303.6-101.3,466.6-100.8c12.1,0,15.9,4.7,14.5,15.9c-0.8,6.6-1.9,13.3-1.6,19.9
			c0.5,15.1-5.7,20-21.2,19.7c-51.2-1.2-102.2,2.6-152.8,10.4c-124.8,19.1-242.8,58.5-353,120.6c-7.1,4-13.7,6.9-11.8,18.2
			C1867,820.6,1892.2,887.7,1934.7,948.3z M2607.9,1593.7c4.5-147-7.8-264.9-21.8-382.6c-11.9-100.4-46-137.1-153.4-166
			c-85.4-23-171.9-12.1-258.3-1.9c-75.6,8.9-125.3,51.7-162.2,114.1c-32.2,54.4-46.5,114.2-57.8,176c-12.8,69.6,1.1,123.4,65,161.5
			c32.7,19.5,31.1,69.3-10,87.2c-12.9,5.6-26.2,10.1-39.1,15.7c-27.9,12-42.3,32-42,63.8c0.6,57.2,6.8,113.8,12.2,170.6
			c4,42.3,24.2,76,55.2,103.1c34.5,30.2,74.3,52.1,119.4,61c127,24.9,253.3,20.6,378.4-13.1c36.4-9.8,60.7-33.3,74-67.8
			c6.4-16.5,11.3-33.8,14.1-51.3C2597.1,1765.1,2607.3,1665.7,2607.9,1593.7z M1749.5,2278.6c-7.6,26.8-9.4,58.5-50.5,52
			c-3.2-0.5-7.1,1.9-10.3,3.6c-55.2,28.9-104.2,62.7-107.7,133.6c-0.6,12.5-4.6,24.7-6.3,37.2c-10.8,78.6-12.4,156.6,16.4,232.4
			c17.5,46.1,44.8,83.7,94.5,99.2c85.2,26.6,165.1,13.8,241-31.8c11.7-7,11-12.2,3.8-21.9c-27.1-36.7-40.9-78.8-46-123.5
			c-16.8-146.9-4.7-291.8,39.4-432.7c11.8-37.8,4.8-65.6-17.3-94.1c-22.9-29.6-50.3-48.8-90.3-47.3c-30.5,1.2-60.3,5.9-90.4,9.3
			c-108.2,12.1-214.8,30.1-320,60.9c-118.1,34.6-230.2,18.3-326.2-66.3c-29.6-26.1-64-42.9-101.9-52
			c-149.6-35.8-271.3,13.7-369.4,126.3c-51.3,58.8-102.8,116.7-164,165.6c-39.6,31.6-38.9,31.9-24.7,81.1c3.4,12,6,15.1,16.9,6.4
			c96.4-77,206.9-119.6,329.1-132.5c115.3-12.2,224.7,4.1,322.9,70.2c29.1,19.6,59.7,35.8,93.5,45.4
			c115.3,32.8,231.4,27.3,347.7,6.2c6.4-1.2,10.6-3.8,13.3-10c22.1-50.6,65.8-79.1,110.8-105.2
			C1683.1,2273.6,1715.6,2266.7,1749.5,2278.6z M1960.5,2113.3c14.4-30.7,26.8-59,41-86.4c5.9-11.4,6-17.4-6-24.2
			c-24.1-13.6-45.8-30.8-61.5-53.7c-10.3-15-23-21.6-40.3-22.1c-9.6-0.2-19.3-0.7-28.9-1.4c-81.5-5.4-157.3,19.4-234.1,41.2
			c-67.2,19.1-133.6,44.6-205.7,39c-81.6-6.3-151.2-36.3-200.6-103.4c-52.5-71.4-62.1-152.2-45-237.1c2.9-14.3,1.2-20.4-13.8-25.6
			c-74.5-25.5-134.2-71.2-179.8-135.5c-3.5-4.9-5-12.2-13.1-14c-30,51.4-71.6,89.3-129.4,105.4c-72.9,20.3-147.3,36.4-223.3,31.8
			c-33.2-2-62.3-5.5-84.2,24.8c-2.3,3.2-7.6,4.3-11.6,6.3c-97.8,50.1-150.4,128.8-157.7,239.7c-8.4,128.1,0.6,254.6,22.2,380.8
			c3.7,21.8,10,17.4,22.5,7c53.9-44.5,101.8-94.7,146.9-148.1c79.3-93.9,176.5-157.7,303.1-165.6c91.8-5.7,179,10.9,249.5,72.7
			c59,51.8,125.6,71.4,201.2,72.1c49.4,0.5,93.9-19,140.1-31.5c114.2-30.9,231.5-41.4,348.5-54c62.7-6.7,110.8,18.4,148.5,66.8
			C1952.2,2102.4,1955.3,2106.5,1960.5,2113.3z M2199.1,2144.8c0-20.7-1.2-41.6,0.4-62.2c1.2-15.3-3.9-21-18.8-22.1
			c-38.4-3.1-76.7-7.8-113.1-21.4c-10.8-4-12.8,2.7-16.2,9.3c-96.1,190.2-136.5,391.2-113.2,603.3c10.8,98.5,68.7,158.9,165.2,182.3
			c52.1,12.6,105,18.2,158.5,17.6c74.9-0.8,145.6-17.2,206.5-63.4c94.2-71.4,135.9-171.6,149.4-284.8
			c19.2-161.7-18.4-314.7-77.4-463.8c-3.5-8.8-6.5-12.7-17.7-9.1c-21.8,6.9-44.3,11.7-66.7,16.6c-50.9,11.1-49.6,10.8-45.3,63.5
			c4.7,58.3,10,116.7,2.9,175.3c-5.5,45.2-30.2,74.3-72.5,85.2c-54.1,14-110-19-127.2-76.6
			C2199.3,2245.7,2199.5,2195.1,2199.1,2144.8z M517.3,2704.3c47.4,92.7,110.1,161.1,210.3,186.3c65.3,16.4,132.1,16.3,198.9,14.9
			c179.4-3.7,358.2-15.7,536.3-37.5c43.7-5.3,87.1-12.2,134.4-18.9c-29.1-32.7-48.4-66.4-61.3-103.8
			c-28.1-81.4-26.8-164.5-15.4-248.2c4.5-32.8,5-32.8-28.9-28.8c-7.4,0.9-14.7,1.7-22.1,2.5c-109.2,11.3-217.5,11.5-322.8-25.5
			c-9.9-3.5-16.1-1.2-24.2,3.8c-60.3,37.7-120.2,76-177.7,117.8c-59.5,43.3-122.5,80.1-191.6,105.5
			C678.4,2700,601,2709.9,517.3,2704.3z M1329.1,1600.9c42.4-6.5,76.9-19.6,109.8-39c130.9-77.2,185.9-236.6,129.7-378
			c-55.8-140.5-207.7-220.1-354.2-185.7c-149.3,35.1-246.5,167.5-237.7,323.7c8.2,143.7,126.5,264.7,274.6,281.7
			c13,1.5,18.6-3,23.4-13.9c24.8-55.7,36.3-113.8,35.6-174.8c-0.8-81.5-32.2-119.4-112.4-133c-20.8-3.5-24.1-12-18.5-44.7
			c3.3-19.3,17.7-10.1,26.1-9c104.7,13.8,162.4,83.2,160,188.6C1364,1478.9,1354.7,1539.1,1329.1,1600.9z M447.4,1444.7
			c0,28.2-0.3,56.3,0.1,84.5c0.2,17.1,2.3,34,7.8,50.3c5,14.7,12.4,28.4,28.9,30.3c17.7,2.1,31.2-8,40.5-22.5
			c9.8-15.1,14.8-32.3,18.4-49.8c8.2-39.8,15.4-79.8,23.8-119.5c9.6-45.8-0.7-35.6,43.3-29.8c15,2,17.1,9.2,14.2,22.5
			c-9.5,44.1-17.8,88.5-27.1,132.7c-5.9,27.8-4.2,30.5,24.9,30.7c68.6,0.3,135.4-12.4,201.4-29.8c56.9-15,91.8-54.2,113.7-107
			c3.9-9.4,4.8-18.2,1.6-28c-14.6-44.2-19.4-89.6-16.3-136c0.5-7.4,1.1-14.4-4.6-20.9c-48.2-54.5-104.6-96.6-176.5-113.6
			c-77.3-18.3-150.2,2.1-219.9,33c-34.5,15.3-54.8,45.7-61.4,84.7C449.4,1318.9,444.8,1381.5,447.4,1444.7z M1078.2,2414.1
			c-56.5-42.5-115.4-67.4-180.8-74.5c-165.9-18.2-313.6,26.4-443.2,131.6c-10.5,8.5-14.8,16.6-10.2,30.3
			c13.5,40.7,26.6,81.6,38.4,122.8c5.1,17.8,14.6,24.8,32.7,25.9c85.6,5.1,168.3-5.9,247.7-40.1
			C877.1,2561,967.8,2475,1078.2,2414.1z M2359.9,2203.4c0.9-41.4-2.7-82.7-6.2-123.9c-1-11.9-5-16.4-17.8-15.2
			c-22,2-44.3,2.9-66.4,2.5c-12.8-0.2-16.5,3.9-16.3,16.4c0.7,52.5-1.8,105,5.4,157.3c2.5,18.2,4,36.9,14.1,53.1
			c12,19.2,33.2,29.5,52.4,25.4c22.7-4.8,33.1-17.1,34.6-44.6C2360.9,2250.7,2359.9,2227,2359.9,2203.4z"/>
		<path class="st0" d="M2106.2,1750c-0.4-28.9,15-50.5,33-70.7c37.5-42.2,47.9-90.7,33.8-144.8c-5.3-20.4-15.1-38.5-29.8-53.9
			c-6.7-7-13.4-13.9-19.9-20.9c-58.5-63.3-56.5-129.8,6.7-188.5c33.2-30.8,72.1-54.2,108.6-80.7c6.6-4.8,10.5-4.5,16.5,2.1
			c27.2,30.2,27,34.7-5.3,57.4c-22.4,15.7-44.8,31.5-66.8,47.9c-17.3,12.9-32.6,27.8-41.4,48.3c-9.4,21.8-7.7,41.9,8.1,60
			c10.2,11.7,20.7,23.2,31.3,34.6c66.9,71.7,70.6,187.1,8.8,263.1c-40.3,49.6-37.3,40.8-2.9,89.3c26.2,36.8,52.6,73.5,79.9,109.4
			c9.1,11.9,11.3,20.1-3.7,27.5c-2,1-3.6,2.6-5.3,4c-23.5,17.4-23.5,17.4-39.9-5.3c-30.9-42.5-61.9-84.9-92.7-127.6
			C2114.2,1785.8,2105.8,1769.5,2106.2,1750z"/>
		<path class="st0" d="M2493.4,1550.9c-3.7,44.9-2.2,98.5-12.5,151c-16.9,86.3-64.2,153.1-132.1,207c-10.5,8.3-17.6,9-24.5-3.3
			c-3.6-6.4-7.7-12.8-12.6-18.2c-9-9.7-5.6-15.6,3.7-22.7c78.7-59.3,116.9-139.4,119.8-236.9c1.9-64.4,6.1-128.7,1.1-193.3
			c-6.5-83.3-42.6-148.4-113.1-193.2c-14.3-9.1-16.2-16-7.8-30.4c17.5-29.9,17-30.8,45.5-10.9c74.7,52.1,117.5,123.5,128.2,214.1
			C2494.2,1456.8,2493.8,1499.7,2493.4,1550.9z"/>
	</g>
</g>
</svg>
