<?xml version="1.0" encoding="utf-8"?>
<!-- Generator: Adobe Illustrator 23.0.0, SVG Export Plug-In . SVG Version: 6.00 Build 0)  -->
<svg version="1.0" id="Layer_1" xmlns="http://www.w3.org/2000/svg" xmlns:xlink="http://www.w3.org/1999/xlink" x="0px" y="0px"
	 viewBox="0 0 3000 3000" style="enable-background:new 0 0 3000 3000;" xml:space="preserve">
<style type="text/css">
	.st0{stroke:#000000;stroke-width:4;stroke-miterlimit:10;}
</style>
<g>
	<path class="st0" d="M1660,2624.3c-8.7,29.4-17.3,56.4-30.2,81.6c-55.3,107.9-147.1,166-262.5,191.4c-38.9,8.6-78.2,11.4-117.3,0.5
		c-43.7-12.2-59.9-42.6-46.4-85.8c11.5-36.9,38.7-63.6,60.6-93.6c19.6-26.8,41.9-51.6,59.2-80.1c3.6-5.9,7.4-11.7,10.6-17.9
		c6.5-12.4,13.8-29.5,7.9-41.1c-6.7-13-28.5-15.8-42.3-14.5c-27.8,2.6-34.3,22.5-63.6,22.7c-5.9,0-17.1,0-23.7-7.4
		c-5.8-6.4-5.4-15.4-7.8-15.5c-3.4-0.1-6.2,16.3-6.2,16.3c-19.7,94.2-63.7,174.9-134.5,240.3c-7.5,6.9-38.6,36-88.2,66.3
		c-92.6,56.5-181.2,75.9-231.3,83.3c-12.1,1.8-52.1,7.4-106.2,6.6c-63.8-0.9-175.3-2.5-285.5-60.7c-202.8-107-252.8-327-255.3-338.8
		c-19.1-90.8-6.9-163.9-0.3-196.1c17.2-84,57.2-162.1,117.8-233.5c26.4-31.1,67.9-42.1,107.8-49.2c130.9-23.4,243.6,48.4,280,176.6
		c3.7,13,2.8,21.3-7.5,30.8c-18.9,17.4-31.1,38.9-30.5,65.8c0.4,18.9,8.3,33.8,25.5,42c42.3,20.1,85.8,20.6,128.9,3.4
		c22.9-9.1,34-32.3,30.8-58.1c-3.6-29.5-17.3-54-39.1-73.6c-9.2-8.3-10.2-15.7-6.1-27.2c35.7-99.7,122.8-159.3,228.6-155.6
		c14.7,0.5,28.5,4.7,42,10.3c115.3,47.8,190.9,133.9,224.3,258.9c35.1-101.3,97-170.4,202.2-190.3c108.9-20.6,179,12.9,244.5,115.9
		c21.4-67.3,51.8-128.2,91.4-184.5c39.8-56.6,86.5-106.1,145.5-146.4c-14.6,4.5-17,0.5-15.8-12.7c3.7-42.3,8-84.3,28.8-122.4
		c30.6-56.3,77.8-90.8,142-104.7c-10-13.5-21.6-25-17.5-42.9c4.2-18.6,17.4-29.3,31.7-39.4c54.4-38.4,101.7-83.3,133.3-143.1
		c6.1-11.4,9-22.5,8.9-35.4c-0.3-241.9-0.5-483.7,0.4-725.6c0.1-21.8-5.1-28.5-27.4-31.3c-125.5-15.8-224-78.3-292.7-183.6
		c-72.6-111.2-60.1-246,27.5-351c123.3-147.8,305.1-190.7,492.4-116.1c32.2,12.8,62.5,29.5,92.2,47.4c2,1.2,7.1,4.3,9.8,10.3
		c3.6,8.1,0.6,16.3-0.1,17.9c-4.2,10.6-15.4,16.6-24.8,17.3c-13.3,1-23.7-9.1-26.9-11c-109.9-63-225.6-88.7-348.7-45.7
		c-94.4,33-162,98.7-200.2,190.2c-38.3,91.5-15.7,175.8,47.8,249c93.9,108.3,214.6,143.6,353.8,124.1c53.5-7.5,104.9-23.3,155-43.3
		c2.3-0.9,10.7-9.3,21.3-8.2c10.7,1.1,17.5,10.4,18.5,11.9c1.6,2.2,11,16,3.9,28.2c-5.7,9.7-17.6,10.9-19.1,11.1
		c2.8,8,8.7,7.1,12.8,8.6c99.3,37.7,147,140.9,110.1,240.5c-4.1,11.2-4.4,20.6-0.8,31.7c34.1,103.8,38.9,208.9,12.1,315.1
		c-2.6,10.3-2.3,20.2,0.9,30.6c27.3,89.1,24.5,177.6-7.3,265c-3.9,10.7-1.2,18.7,2.2,27.6c5.5,14.1,22.2,88,23.9,141.6
		c0,0,2.4,75.5-40.7,150.1c-4.2,7.2-10.5,15.9-19.8,17.2c-4.9,0.7-10.8-2.3-22.4-8.5c-15.7-8.3-22.9-12.6-38.2-20.9
		c-1.7-0.9-3.7-1.5-5.6-2.3c-4.2,3.9-0.2,6.3,1.4,8.6c49,68.3,68.4,145.8,71,228.5c0.1,2.8,0.4,5.6,0.1,8.3
		c-4.1,36.8,10.6,56.7,46.4,73c166.1,75.8,232.2,245.8,167,416.8c-76.1,199.5-223.1,309.5-431.1,341
		c-77.1,11.7-152.5,11.9-225.8,1.2c-55.8-8.2-155-23.7-261.9-89.5C1756.8,2771.6,1692,2679,1660,2624.3z M473.1,2177.4
		c-61.7-51.3-198.6-38-245.4,33.5c-95.5,145.9-121.8,299.1-47.5,458.9c75.5,162.4,211.4,242.8,388,257.8
		c65.7,5.6,129.5-9.4,193.6-18.3c181-25,377.4-155.3,396.2-401.4c11.7-153.7-57.4-281.9-194.4-344.2c-35.3-16.1-68-8.7-101.6-0.1
		c11.5,12.8,21.7,24.7,32.4,36c57.4,60.8,95,131.7,101.7,215.6c10.7,132.6-54.1,233.3-179.7,281.8c-79.7,30.8-162.6,38.4-247.2,27.7
		c-66.6-8.4-130.5-25.4-187.5-62.4c-92.1-59.8-128.2-153.2-100.7-259.2c18.4-70.9,58.9-127.4,114.1-174.5
		C418.9,2208.6,445.7,2192.9,473.1,2177.4z M1939.1,2142.5c-49.8,2.1-99.6,4.8-149.4,6.1c-11.1,0.3-17.3,3.8-23.3,12.9
		c-27,41.3-48.8,85.1-65.2,131.7c-68.2,193.7-6.9,378.6,167.3,487.4c157.4,98.3,329.7,130,512.2,94.6
		c176-34.1,299.5-133.5,361.7-303.8c35.9-98.2,31.9-192.6-38.1-275.6c-47.9-56.8-109.2-92.8-184.4-101.9
		c-50-6.1-99.8-17.7-150.6-7.2c-6.1,1.3-13.8,0.9-16.1,7.4c-2.8,7.8,6,9.7,10.4,13.1c31.4,24.4,59.1,52.3,81.6,85.1
		c101,147,80,348.6-119.3,423.9c-159.7,60.3-313.3,40.6-454.3-57.2c-46.3-32.1-81.2-75.1-98-130.6c-24.6-81.5-7.3-156.4,38.5-225.4
		c53.1-79.9,129.3-127.3,221.9-149.5c5.9-1.4,14.3-0.9,13.5-9.5c-0.2-2.4-1.4-4.3-2.3-5.2c-3.6-3.8-12.1-1.4-13.7-0.9
		C2022.7,2140.3,1995.8,2142,1939.1,2142.5z M947.4,2437.7c-4-95.1-50.3-175-128.8-238.3c-7-5.6-11.8-4.5-17.8,0.9
		c-15.2,13.6-26.6,29.9-36.2,47.7c-4.8,8.9-5.4,15.7,1.7,24.2c13.9,16.6,23.2,36,29.1,56.9c18.5,66.1-11.9,125.1-75.2,142.5
		c-38.2,10.5-77.4,12.2-116.4,2.5c-85-21.2-117.6-100.8-68.5-173.8c14-20.8,11.9-35.8,0.9-54c-3.9-6.5-8.1-12.9-11.7-19.6
		c-5.1-9.5-10.8-12.1-21.5-6.8c-79,38.9-138.8,95.9-168,180.6c-32.9,95-2.6,179.3,86.6,225.5c130.1,67.4,265,72.1,399.5,12.6
		C903.7,2602.2,944.9,2535.5,947.4,2437.7z M2149.4,2698.4c73.2-2.1,144-14.7,207.9-54.5c66.4-41.4,98.4-101.7,95.4-179.4
		c-3.3-84-43-150.3-105.1-204.5c-33.1-28.9-32.7-28.1-64.6,2.2c-12,11.4-13.1,17.1-0.8,30.3c40,43.1,55.3,94.2,36.9,151.5
		c-18,56.1-59.7,85.6-116.1,97.7c-26.4,5.7-52.3,0.1-78.5,0.8c-60.9,1.7-109.8-23.4-137.5-79.1c-26.7-53.8-19.7-108,21.2-150.3
		c25.1-25.9,35.5-51.6,34.3-85.1c0-1.4,0.1-2.8,0.5-4.1c3.8-16.2-0.8-20.8-17.7-15.7c-54.9,16.7-102.7,44.9-141.9,86.7
		c-106.1,113.5-89.5,257.3,39.2,337.5C1991.6,2675.5,2067.3,2696.9,2149.4,2698.4z M1428.3,2824.7c3.7-1.4,7.4-2.7,11-4.3
		c87.9-40.5,145.1-107.3,168.4-201.2c21.8-87.6,17.6-176,0.1-263.7c-18.3-91.3-94.3-141.8-186.3-125.8
		c-121,21-205.2,145.3-181,266.1c2.3,11.4,7.6,12.4,17,12.1c24.3-1,48.4,1.5,72.2,6.9c50.2,11.3,74,49.7,61.5,99.2
		c-5,19.7-13.9,37.8-25.6,54.1c-17.8,24.7-36.3,49-55,72.9c-20,25.6-40.7,50.8-55.9,79.8c-4,7.6-10,16,0.3,24
		c19.4,15,71.3,11.4,88.7-6.1c77.6-78.6,127.4-173.4,161.8-277.2c13.8-41.5,25.7-83.4,23.4-127.9c-2-39.9-22.1-59.3-61.5-60.2
		c-30.4-0.7-58.9,7.2-87.1,17.1c-9.4,3.3-19.2,8.8-31.5,6.2c-9.1-1.9-22.4-8.6-24-20c-1.4-9.6,6-18,6.6-18.8
		c1.1-1.2,3.2-3.9,7.1-5.5c45.8-19.1,92.4-33,142.8-29.1c48.3,3.7,82.9,32.9,93.9,80c9.9,42.3,4.3,84.2-7,125.2
		C1539,2634.7,1496,2734.6,1428.3,2824.7z M2078.5,1688.8c14.5,3.3,23.1,5.5,31.7,7.2c64.8,12.8,130.5,14.4,196.1,18.7
		c16,1,20.1-3.1,19.8-18.9c-1.6-67.8-2-135.7-2.5-203.5c-1.7-250.6-3.4-501.3-4.9-751.9c-0.2-30.8,0.1-25.1-26.1-22.6
		c-8.3,0.8-16.6,1.6-24.9,1c-18.9-1.4-23.8,6.5-23.8,25.3c0.7,245.1,0.4,490.3,0.5,735.4c0,10.4-0.2,20.3-5.3,30.2
		c-31.1,60.7-72.7,112.6-127.2,154C2102.2,1670.9,2092.5,1678.3,2078.5,1688.8z M2197,2283.9c-3.3-35.1,77.8-96.2,121.5-129.1
		c2-1.5,7.7-5.8,7.8-11.5c0-2.8-1.7-5.8-6.1-9.6c-60.8-52-130-71.1-208.6-55.4c-4.8,1-9.6,0.3-10,9.1c-3.2,67-7.8,133.9-11.4,200.8
		c-0.9,16.8-5.5,28.4-22,37.9c-38,21.9-53.6,67.3-39.9,105.7c13.7,38.7,55.5,63.9,99.2,59.3c11.8-1.3,23.2-0.6,35,0.7
		c40,4.2,74.7-7.5,97.6-41.8c7.7-11.6,12.4-23.4,14.3-35.4c5.3-32.3-9.2-58.9-14.7-68.5C2233.8,2301.2,2199.1,2306.3,2197,2283.9z
		 M2515.5,2135.8c-92.7-124.8-210-198.7-365.3-197.7c-132.6,0.8-242.5,54.9-335.1,157.5c52.8-3.1,99.6-6.4,146.5-8.5
		c13-0.6,23.6-3.8,34.3-11.4c115.2-82.7,274.3-69.7,373.5,36.1c9.2,9.8,19.2,14.9,32.3,15.8
		C2438.2,2130.1,2474.8,2132.8,2515.5,2135.8z M2373,1106.2c0.9,0,1.8,0,2.7,0c0,39.4,0.5,78.8-0.3,118.2
		c-0.3,14.1,3.8,18.9,18.6,18.7c50.5-0.9,101-0.7,151.4-0.1c12.6,0.2,17.9-3.1,20.5-16.3c16.1-81.3,15.4-162-6.2-242.3
		c-3-11.3-8.8-13.3-19.1-13.2c-50.5,0.7-101,1.1-151.4,0.7c-12.4-0.1-16.8,2.9-16.5,16.1C2373.6,1027.4,2373,1066.8,2373,1106.2z
		 M1926.9,1889.6c103.1-33.4,203.6-43.6,306.7-25.2c102.7,18.4,193.1,62.4,277.9,130.1c-2.2-8.6-2.9-11.8-3.9-14.9
		c-33.9-101.3-100.9-169.3-204.9-196c-84.9-21.8-171.6-19.8-257.5-5.1C1985.2,1788.8,1948.4,1827.7,1926.9,1889.6z M2376.6,1412.2
		c0.2,0,0.4,0,0.6,0c0,33.9,0.5,67.9-0.3,101.8c-0.3,12.3,2.9,16.9,15.9,17.1c50.5,0.8,101.1,2.3,151.6,4.4
		c11.1,0.4,14.1-5.1,16.7-13.9c21.6-70.5,24.9-141.2,5.2-212.7c-3-11-8-13.9-18.7-13.8c-52,0.4-103.9,0.5-155.9,0
		c-11.7-0.1-15.6,3.5-15.4,15.4C2377,1344.4,2376.6,1378.3,2376.6,1412.2z M2377.2,1657.1c0.1,0,0.2,0,0.2,0
		c0,19.4,0.6,38.8-0.3,58.1c-0.4,9,3.1,13.5,10.4,17.5c50.6,27.7,101,55.5,151.3,83.6c9.6,5.3,13.8,3.4,18.2-6.7
		c30.5-70.3,31-140.7,3.2-211.8c-3-7.8-7.3-10.2-15.3-10.4c-49.8-1.1-99.6-2.2-149.4-4.3c-14-0.6-19.9,2.7-18.8,17.9
		C2378.2,1619.7,2377.2,1638.4,2377.2,1657.1z M2454.6,920.3c0-0.7,0-1.5,0-2.2c23.5,0,47.1-0.4,70.6,0.2
		c9.5,0.2,14.9-3.2,19.6-11.5c25.7-45.8,20.5-109.8-12.9-150.5c-34.6-42.3-95.7-60.5-146.4-44.3c-10.2,3.2-14.2,8.1-14,19.1
		c0.9,58.8,1.3,117.7,1.4,176.6c0,9.9,3.1,13.2,13.2,12.9C2408.9,919.8,2431.7,920.3,2454.6,920.3z"/>
	<path class="st0" d="M2202.7,611c-80.7-2-156.1-26.4-215.9-88.2c-79.1-81.8-78.8-199.8-0.3-282.2
		c110.7-116.2,325.6-117.4,437.9-2.4c87.4,89.5,80.4,221.1-16.5,302.4C2349.6,589.4,2281.3,609.9,2202.7,611z M2208.3,203
		c-58.1,1.3-110.3,14.9-156.3,47.9c-88.3,63.4-98.3,171.7-22.5,243c93.8,88.2,259,88.6,353.4,0.8c69.3-64.4,68.7-163.6-1.4-227.2
		C2331.8,222.3,2271.9,204.8,2208.3,203z"/>
	<path class="st0" d="M2261,369.3c0,51.2-41.1,91.9-92.4,91.7c-50.4-0.3-90.7-40.6-91-91c-0.3-51.6,40.2-91.6,91.5-92.7
		C2217.4,276.2,2263,320.9,2261,369.3z M2210.4,369.9c0.4-22.1-18.2-41.4-40.5-41.9c-22.1-0.4-41.4,18.2-41.9,40.4
		c-0.4,22.1,18.2,41.5,40.4,41.9C2189.9,410.9,2210,391.5,2210.4,369.9z"/>
</g>
</svg>
