<?xml version="1.0" encoding="utf-8"?>
<!-- Generator: Adobe Illustrator 23.0.0, SVG Export Plug-In . SVG Version: 6.00 Build 0)  -->
<svg version="1.0" xmlns="http://www.w3.org/2000/svg" xmlns:xlink="http://www.w3.org/1999/xlink" x="0px" y="0px"
	 viewBox="0 0 3000 3000" style="enable-background:new 0 0 3000 3000;" xml:space="preserve">
<style type="text/css">
	.st0{stroke:#000000;stroke-width:3;stroke-miterlimit:10;}
	.st1{stroke:#000000;stroke-width:14;stroke-miterlimit:10;}
</style>
<g id="Layer_1">
</g>
<g id="Layer_2">
	<g>
		<path class="st0" d="M2844.8,829.2c-46.1,68.9-85.6,141.1-115,219c-49.8,131.9-41,262.7,1.3,394.3
			c27.2,84.7,56.8,168.9,73.7,256.6c13.4,69.5,16,139.5,0.4,209.1c-30.1,133.6-119.7,207.8-246.5,242.8
			c-105.3,29-212.7,28.2-320.3,16.5c-35.6-3.9-70.9-10.1-106.3-15.8c-25.9-4.2-33.9-13.7-30.1-33.3c3.4-17.5,18.1-25.9,41.3-21.3
			c47.2,9.2,94.8,16.2,142.7,19.5c87.8,6.1,175.4,6.4,260.8-19.7c128.7-39.2,202.7-134.5,210.6-268.5c4.3-72.5-5.4-142.7-26.8-212
			c-26.4-85.1-58.2-168.6-78.4-255.6c-30-129.1-9.4-252.9,41.4-373.1c36.7-86.8,84.6-167.6,142.1-241.9
			c17.2-22.2,17.4-42.9,18.8-66.4c0.9-15.3-4.8-18.2-18.8-14.5c-145.1,38-246.3,123.6-290.6,269.7c-35.8,117.9-25.5,235,7.9,351.6
			c28.3,98.8,64.2,195.6,82.1,297.2c14.3,81.4,15.4,162.6-11.4,242c-36.5,108.4-116.6,165.4-225,188.5
			c-93.2,19.8-186.5,14.6-279.9,1.5c-17.4-2.4-29.6-8.3-27.1-28.6c2.3-18.4,17.9-29.1,38.4-26.3c45.3,6.2,90.6,12.8,136.4,14.4
			c43.6,1.5,86.7-0.8,129.4-10.8c110.9-25.9,182.8-111,191.9-224.7c6.8-85.2-9.9-167.1-31.6-248.3
			c-27.2-101.5-63.9-200.4-85.1-303.4c-37.1-180.2,1.7-339.4,141.1-466.8c62.7-57.3,136.9-93.7,219.5-112.1
			c17.8-4,20.7-11.6,16.3-26.5c-1.9-6.6-3.4-13.3-5.7-19.8c-14.4-39.8-20.6-42.9-61.7-33.1c-79.3,18.9-158.5,38.4-232.4,74.2
			c-167.6,81.1-234.2,206.3-219.7,395.7c9.9,129.9,53.3,251.3,91.5,374.1c26.7,85.7,46.2,172.6,38.9,263.1
			c-7.9,98-39.3,185.4-124.2,244c-63.6,43.9-135.7,51.7-210.4,41.5c-18.2-2.5-25.4-16.3-23.9-33.4c1.5-16.9,12.8-22.6,29-21.4
			c28.2,2,56.4,3.4,84.4-1.6c99.3-17.8,149.8-84,171.8-176.6c22.5-94.5,12.1-187.8-15.4-279.8c-31.8-106.5-66.1-212.3-87.3-321.6
			c-16.5-85.2-24-170.9-1.3-256.3c23.4-88.2,74.3-157.7,146.8-212.2c89.5-67.2,192.7-103.6,298.7-134c7.3-2.1,14.6-4.1,24.3-6.9
			c-26.9-14.4-54.1-18.6-81-20.2c-94-5.8-187.7-2.5-279.1,23c-93.7,26.1-169.7,75.9-209.1,169.3c-20.2,47.8-25.3,99-24.5,150.2
			c2.8,167.8,25.6,332.4,75.2,493.3c23,74.7,49.6,148.8,58.2,227.5c9.1,83.2-15.3,155.1-69.2,217.7c-30.2,35.1-67.7,61.2-107.6,84.2
			c-12.5,7.2-17.4,2.8-21.7-8.3c-3.7-9.6-13.8-16.9,3.7-26.3c70.7-38,126.7-90.2,149.7-170.3c17.3-60.3,7.1-119.3-9.6-177.9
			c-30.3-106.2-65.7-211.1-85.8-320c-20.7-112-32-225.1-30.3-339c2.6-177.4,94.1-294.9,267.1-338.2c113.3-28.4,229-39.7,344.2-12.5
			c85.4,20.1,144.6,71.1,156.6,163.5c3.7,28.7,5.3,57.9,4.7,86.8c-3.6,158.6-10.3,317-20.4,475.3c-8.8,138.1,10.5,271.9,56.3,402.6
			c28.2,80.6,53.5,162.5,47.8,249.8c-6.8,103.9-30.1,203.8-79.6,295.8c-71.5,132.6-184.3,200.3-334.7,201.2
			c-181,1.1-357-26.9-523.7-101.3c-9-4-23-4.7-13.2-22.5c7.4-13.4,11-20.9,29.2-12.7c170.4,76,350,104.2,535.3,96.3
			c123.3-5.2,215.4-67.2,270.6-175.5c75.5-147.9,105.9-302.4,49.1-466c-28.4-81.9-54.5-164.8-67.1-251.3
			c-12-82.1-10.5-164.3-6.5-246.6c4.8-98.2,9.8-196.5,14.7-294.7C2848.8,830.3,2846.8,829.8,2844.8,829.2z"/>
		<path class="st0" d="M1934,1917.6c-1.5,111.2-25.2,216.3-100.7,301.4c-98.3,110.7-224.5,145.1-365.4,107.7
			c-142.5-37.8-233.1-132.6-262.4-278.6c-16.8-83.5-11.6-167.4,26.2-246.1c35-72.7,116.6-105,191-77.5c47.6,17.6,59.8,42.2,43.3,90
			c-7.5,21.6-17.7,42.1-25.5,63.6c-19.3,53.1,0,109.4,45,132.8c33.4,17.3,66.6,15.7,97.5-5.1c30.1-20.2,40.4-51,36.7-85.9
			c-2.7-24.9-9.2-49.4-12.6-74.2c-9.6-70.8,19.6-120.3,85.6-145.9c24.3-9.4,49.7-14.9,75.8-15.5c87.4-2.3,142.2,48.6,159.1,146.7
			C1932.4,1859.6,1934.4,1888.5,1934,1917.6z M1881.6,1924.9c0-17.5,1-35.2-0.2-52.6c-6.8-99.7-41.5-147.7-122.8-170.8
			c-48.9-13.9-81.1,4.9-91.5,54.2c-8.9,41.8-5.3,83.4,2.6,124.9c17.7,92.5-14.8,149.1-100.7,173.7c-16,4.6-32.9,7.1-49.5,8.2
			c-84.8,5.7-179.6-89.7-126.8-185.8c12.1-21.9,22-45.2,25.6-70.6c4.2-30.1-16.1-59.8-50-72.5c-23.3-8.7-44.3,1.2-62.1,29.6
			c-18.1,28.8-26.9,61.1-35.3,93.7c-28.9,112.2-22.5,219.5,45.1,317.6c108.5,157.3,337.5,208.1,486.4,11
			C1860.9,2108.3,1877.7,2018.6,1881.6,1924.9z"/>
		<path class="st0" d="M68.7,1980.3c0.7-59.2,10-117,32.8-171.8c32.4-77.9,95.6-121.3,172.3-120.3c58.2,0.8,107,43.7,115.5,101.2
			c2,13.6-3.2,25.6-8.1,37.5c-14.8,35.9-28.8,71.7-33.2,111c-3.8,33.7,5.4,48.4,39,54.2c19.2,3.3,38,0.8,57-1.2
			c14.9-1.6,19.1-14.1,24-24.9c16.2-35.4,17.6-74,22-111.7c14.3-122.7,118.6-145.7,190.6-123.6c63.9,19.6,88.9,71,97.7,131.6
			c30.5,207.9-129.1,459.4-397.5,458.4c-154.5-0.6-285.6-119.2-307.2-276.6C70.6,2022.9,68,2001.8,68.7,1980.3z M123.9,1974.5
			c-1.7,32.3,2.3,64,9.4,95.4c39,170.9,192,260.1,354.3,206.5c145.5-48,254.4-211.2,243.5-364.6c-3.1-43.5-13.4-84.4-42.9-118.1
			c-45.2-51.6-113.5-39.2-138.3,25c-10.2,26.5-14.1,54.5-18.3,82.3c-13,85.7-52.7,127.4-130.6,133.8c-37.9,3.1-73.5-4.6-96.6-39.3
			c-18.8-28.2-14.6-58.3-3.8-87.8c9.3-25.7,20.9-50.7,29.8-76.6c10.6-31-4-69.5-33.4-92.8c-25.9-20.5-57.6-22.6-87.7-5.6
			c-27.8,15.7-46.5,39.3-56.9,69.1C132.9,1857.7,124.7,1915.6,123.9,1974.5z"/>
		<path class="st0" d="M1022.8,1988.6c43.3,41.8,59.3,91.4,45.4,148.7c-18.3,75.4-106.3,124.1-188.1,105.4
			c-68.3-15.6-113.6-93-97.1-168.5c10.7-48.8,31.1-92.7,76.4-119.6c13.9-8.3,2.4-13.9-1.3-19.4c-40.4-61.9-31.3-144.8,22.6-194.2
			c36.3-33.3,78.7-42.3,125.2-25.7c52.8,18.8,83.7,57.5,93,112C1111,1897.1,1085.2,1950.8,1022.8,1988.6z M914.7,2208
			c4.5-0.4,12.2-0.8,19.7-1.9c54.2-8.2,90.8-40.3,99.4-87c8.2-44.7-14.7-91.2-56.6-115.8c-17.5-10.3-38-10.3-56.5-17.3
			c-23.2-8.8-43.9-2.6-60.2,15.4c-26.5,29.3-41.8,64.1-42.7,103.5C816.4,2162.3,858.7,2207.7,914.7,2208z M1062.7,1856.9
			c0.1-56.6-34.3-101.7-83.6-109.4c-46.6-7.3-88.4,20-102.4,70.6c-22.2,80.2,24.6,134.1,104.8,139.3
			C1027.3,1960.3,1062.6,1913.6,1062.7,1856.9z"/>
		<path class="st1" d="M1760.8,1958.5c0.2,21.4-1.5,52.5-9.3,83c-27.7,108.2-106.8,159.8-217.6,142.2
			c-125.8-20-221.6-140.9-207.6-262.9c0.8-7.2-5.4-21.3,9.9-21c17,0.3,10,14.3,9.7,22.6c-4.3,118,67.4,213.3,180.5,239.2
			c108.3,24.8,192.7-33.6,209.5-143.6c6.8-44.3,3.4-88.1,0.6-132.2c-0.5-8-5.9-20.2,9.1-21.1c15.8-1,10.3,12.8,11,20.1
			C1758.9,1905.9,1759.2,1927.2,1760.8,1958.5z"/>
		<path class="st0" d="M591.1,1924.8c0-18.3,0.5-32-0.2-45.7c-0.6-11.1,4.9-16.6,14.4-20.4c33.1-13.1,41.3-7.5,40.6,28.4
			c-1.2,67.5-8,101-15.7,124.4c-16.8,50.3-27.4,82.1-58.9,112.2c-39.3,37.5-84.8,46.9-106.2,51.1c-57.3,11.1-105.5-1.9-133.2-12.9
			c-57.9-22.8-90-61.4-103.3-77.8c-5-6.2-34.5-43.2-49.4-99.3c-6.2-23.2-14.5-56.4,2-72.5c4.7-4.6,14.5-10.7,26.6-10.2
			c1.4,0.1,14.1,0.7,22.5,9.2c13,13.1,3.7,32.6,5.1,60.1c1.4,28.2,13.3,48.1,29.2,74.6c14.5,24.3,33.4,45.9,56.5,64.8
			c51.8,42.3,152.8,45.6,205.8,4.7c39.3-30.4,51.1-76.1,59.5-122.3C590.4,1969.1,592.4,1944.7,591.1,1924.8z"/>
	</g>
</g>
</svg>
