<?xml version="1.0" encoding="utf-8"?>
<!-- Generator: Adobe Illustrator 23.0.0, SVG Export Plug-In . SVG Version: 6.00 Build 0)  -->
<svg version="1.0" xmlns="http://www.w3.org/2000/svg" xmlns:xlink="http://www.w3.org/1999/xlink" x="0px" y="0px"
	 viewBox="0 0 3000 3000" style="enable-background:new 0 0 3000 3000;" xml:space="preserve">
<style type="text/css">
	.st0{stroke:#000000;stroke-width:10;stroke-miterlimit:10;}
	.st1{stroke:#000000;stroke-width:7;stroke-miterlimit:10;}
</style>
<g id="Layer_1">
</g>
<g id="Layer_2">
	<g>
		<path class="st0" d="M2574.7,1958.8c39,13.5,77.1,26.6,112.1,47.8c189.2,114.3,193.6,336.6,9.8,460.1
			c-86.9,58.4-183,89.6-286,96.2c-267.2,17-534.9,21.1-802.5,27c-162.4,3.6-311.7-49.8-458.9-110c-32.5-13.3-64.3-28.4-95.3-44.8
			c-15.3-8.1-23.2-4.8-33.7,7.4c-113.3,130.6-256.1,208.9-427.1,231.9c-154.4,20.7-298.8-6-420.9-109.9
			c-113.8-96.8-146.9-252.8-83.8-385.4c38.4-80.6,107-121.7,191.3-139.5c36.9-7.8,74.6-12,115.9-18.5
			c-38.6-38.9-48.8-85.6-41.8-136.6c10.2-74.6,39.4-141.9,80.5-204.4c35-53.1,78-99,127.2-139.1c3.9-3.2,9.8-5,10.3-14.3
			c-81.2,3.1-160.7-7.6-238.9-28.3c-80.1-21.3-152.9-57.5-219.9-105.8c-82.9-59.7-101-142.7-83.7-237.4
			c45.5-250.1,167-455.7,370.7-607.9c215.2-160.8,531.5-185.1,768.3-3.5c8.2,6.3,14.9,15.3,26.2,1.7c60-72,139.4-115.1,224.6-150
			c236.4-96.9,482.7-135.8,737.2-127.8c140.1,4.4,277.4,26.1,413.5,59.7c200.1,49.4,315.5,176.6,357.3,375.5
			c41.1,195.7,48.8,393,29.8,591.7c-11.1,116-30.2,230.4-71.7,340c-36.9,97.5-88.2,185.4-171.8,251
			C2671.9,1918.2,2625.4,1941.1,2574.7,1958.8z M1862.6,1927.8c-41.9-56-61.3-116-68.1-180.4c-1.6-15.5-12.1-8.9-20.3-6.9
			c-69.8,16.4-140.6,21.3-212.1,17.3c-120.2-6.7-187.2-95.8-156-211.9c23.2-86.2,72.3-158.5,132.6-223
			c52.5-56.2,119.3-81.8,195.6-84.5c53.8-1.9,106,7.4,156.8,23.9c15.3,5,22.7,2.1,30-11.5c9.8-18.2,20.7-36.1,33.1-52.5
			c12.2-16.1,10.5-21.1-9.8-27.3c-139.6-42.6-206.7-167.8-164.9-307.7c46.2-154.8,158.6-240.4,307.1-283.5
			c76-22.1,151-5.2,212.7,41.4c63.5,47.9,101.9,116.2,113.6,196.5c2.9,19.8,8.8,20.8,25.5,15c52.9-18.2,107.4-30.2,162.8-38.3
			c91.7-13.4,183.3-13.9,274.7,0.7c19.2,3.1,23.4-1.7,19.8-20.4c-7.2-37.2-15.5-73.9-25.7-110.4
			c-39.7-142.1-127.8-237.1-270.1-280.4c-99.4-30.2-200.8-49.4-304.1-60.8c-226.5-25-449.8-9.3-669.9,49.4
			c-82.8,22.1-162.4,53.1-241.1,87.1c-141.4,61-215.6,180.3-274,313c-47.6,108.2-66.5,223.9-81.4,340
			c-11,85.6-23.4,171.5-11.7,258.4c8.2,60.9,22,120.4,44.3,177.7c70.1,180.5,192.4,303.6,385,349.7c107,25.7,215.9,27.6,325,29.2
			C1800.3,1928.1,1828.8,1927.8,1862.6,1927.8z M2170.1,1930c111,2.1,193,4.6,274.9,0.6c96-4.7,185.1-28.9,258.2-94.9
			c73.5-66.4,117.6-151.2,149-243.6c47.7-140.5,61.8-286.4,68.7-433.3c4.4-92.9-2.7-185.4-10-278c-2.3-28.9-14-39.1-41.7-42.3
			c-81.8-9.6-163.3-11.6-245.2-1.6c-431.3,52.9-764.5,407.8-786.8,840.5c-4.2,81.7,10.9,159.6,64,226.2
			c14.4,18.1,29.8,27.6,54.6,27.1C2036.9,1929,2118.1,1930,2170.1,1930z M1560.9,1965.1c-218.1-21.7-393-112.6-503-316.4
			c-2.4,15.1-4.1,23.6-5.2,32.1c-9.6,74.5-28.1,146.7-57.3,216c-131,311.3-420.6,470.3-699,483.2c-15.5,0.7-26.9,1.3-26.9-21.2
			c0-21.1,8.8-23.1,25.7-22.6c13.3,0.4,26.6-3.4,40-4.8c161.5-16.7,304.5-76.8,426.8-184.1c100.5-88.2,172-196.4,212.2-323.7
			c38.2-120.9,58.9-243.3,12.7-367.7c-4.6-12.5-5.3-26.4-7.7-39.7c-3.5-19.9-6.8-39.8-10.7-63c-49.8,45.6-100.2,83-157.2,110.9
			c-19.3,9.5-48.1,12.9-56.5,28c-9.6,17.2,11.4,40.3,17.9,61.3c70.4,227.9-63.9,455.9-298.5,503c-59.9,12-121.4,15.8-181.6,26.7
			c-90.6,16.5-154.1,66-180.1,157.7c-31.1,109.5,6.9,226.2,100.3,299.4c94.1,73.7,203.2,100.7,320.9,94.3
			c179.9-9.8,329.8-83.5,449.3-217.9c60.8-68.4,101.1-150.9,151.6-226.5c59-88.1,135.7-152,238-185.3
			C1433.9,1984.8,1496.2,1973.5,1560.9,1965.1z M566.3,1226.4c74.5-40.9,115.2-103.2,147-169.1c64.3-133,162.3-218.1,310.7-239.3
			c16.3-2.3,22.3-9.3,27.5-23.5c23.5-64.4,52.7-126.1,92.2-182.3c11.6-16.6,9-24-6.8-35.9c-213.1-160.5-501.6-143.4-701.9,1.6
			C247.1,713.8,131.4,899.5,81,1125.8c-1.9,8.4-7.5,16.8-0.4,27.2c206.6-60.7,408.1-136.2,606.7-223.2
			C688.5,1003.1,656.4,1081.7,566.3,1226.4z M630.6,1003.3c-182.1,76.9-361.7,141.1-544.8,195.3c-13.3,3.9-16,10.6-16.5,23
			c-2,51.8,18.9,92.7,58.4,124.6c81,65.4,174.2,103.1,275.9,122.5c209.5,40.1,392.6-8.3,545.5-160.5c10.9-10.9,16.2-22.1,16.6-37.8
			c1.5-70.3,7.9-140.2,19-209.8c10.4-65.4,25.7-129.8,43.1-197.1c-102.5,16.4-182.7,61.7-236.3,148.7
			c-25.9,42.2-49.3,85.9-75.2,128.1c-32.5,53-73.7,97.7-129.8,126.8c-47.6,24.7-97.1,24.2-155.7,14.3
			C531.5,1209.9,598,1122.4,630.6,1003.3z M1518.3,2540.8c11.4,0.8,15.7,1.3,20.1,1.4c134.3,4.9,268.4-5.1,402.6-4.5
			c54.5,0.3,94.9-11.8,127.4-59.1c33.3-48.6,74.8-91.5,116-140.8c-19.7,1.9-33.9,1.9-47.5,4.9c-17.6,3.9-24.3-2.2-26.3-19.6
			c-1.8-16.5,0.8-25.5,20.2-25.4c17,0.1,34.2-6,51-4.7c59.1,4.5,73.1-45.9,108.7-81c-26.1,0-44.1-0.5-62,0.2
			c-11.3,0.4-15-3.3-16.3-15.1c-2.6-24.4,5.6-36,30.7-31c64.4,12.7,110.4-12.7,143-67.6c6.4-10.7,15.9-19.5,24-29.2
			c20.3-24.6,40.6-49.1,63.5-76.8c-9.2-1-13.4-1.9-17.6-2c-158.6-3.8-317.1,5.8-475.6,7.2c-13.7,0.1-20.8,7.2-27.9,17.5
			c-24,34.9-49,69-73,103.9c-11.9,17.3-28.1,32-35.7,52.7c25.9,6.7,50.2,13.2,74.7,19.1c12.6,3,22.5,6.9,14,22.5
			c-5.7,10.5-0.9,30.9-26.2,21.7c-26-9.5-54-13.7-81.1-20.2c-6.8-1.6-13.9-5.2-19.8,2.2c-21.8,27.1-43.5,54.3-67.2,83.8
			c10.6,2.1,17.3,4.2,24.2,4.7c17.9,1.4,21.3,10.4,17.9,27c-3.8,18.2-11,21.7-29.5,18c-17.1-3.4-37.9-18.6-53.2-1.6
			C1640.1,2412.6,1582.7,2475.8,1518.3,2540.8z M1758.2,2203.9c-27-2-46.6-4.9-66.1-4.6c-20.7,0.3-19.7-11.1-19.3-26
			c0.4-16.5,6.1-23,22.6-19.9c7,1.3,14.8-0.2,21.5,1.9c55.5,17.4,92.2-2.7,119.8-52.7c19.1-34.7,45.6-65.3,71.9-102.2
			c-139.8,3.6-273.3,0.5-405.5,19c-117.1,16.4-223.8,56.6-299.8,153.6c-52.8,67.3-92.6,143.3-140.6,213.9c3.7,3,5.6,5.1,8,6.3
			c119.1,60.8,244,105.6,374.1,136.4c13.2,3.1,21.9-0.6,30.9-10c36-37.9,73.3-74.5,108.6-113c20.9-22.8,44.6-43.5,62.7-73.9
			c-30-2.8-56.6-6.2-83.2-7.3c-20.7-0.9-21.8-11.6-20.5-28.3c1.4-16.7,7.6-20.8,23.9-18.4c33.8,5.2,67.9,8.1,101.9,12.2
			c8.2,1,15.7,2.8,22.1-5C1711.8,2260.2,1732.9,2234.7,1758.2,2203.9z M2084.3,2527.9c39.9,0,78.8,0.9,117.8-0.2
			c98-2.8,196.6-1.1,292.9-23.5c104.2-24.3,197.6-67.5,259.2-160.9c45.4-68.9,44.8-147.5-1.9-215.4c-50.5-73.4-124-109.7-209-127
			c-14.3-2.9-21.4,4.8-29.2,14.2c-30.9,37.5-61.9,74.9-93.3,112c-16,18.9-35.4,35.2-25.7,65.1c5.5,16.8-5.7,21.4-21.4,20.3
			c-9.4-0.6-20.9-4.4-28.2,4.5c-18.3,22.4-39.5,42.7-56.3,70.9c19.1,0,34.3,0.5,49.4-0.2c12-0.5,17.3,2.2,17.4,16.2
			c0,21.4-3.3,34.1-29.7,29.6c-18.4-3.2-37.7-0.6-56.6-1.6c-14.7-0.7-25.3,4.4-34.9,15.9C2185.3,2407.9,2135.1,2467.3,2084.3,2527.9
			z M2371.4,843.2c-3.1-25.8-9.2-49.2-17-72.2c-4.6-13.4-10.7-13.2-21.5-7c-19.4,11.2-39.3,21.6-59.3,31.6
			c-9.4,4.7-13.7,10.5-10.5,21.2c6.5,22.4,12.2,44.9,19,67.2c1.2,3.8,0.4,13.4,8.5,9.8c26.2-11.6,52.1-24,77.6-37.2
			C2371.1,855.2,2370.6,846.9,2371.4,843.2z M2007,1121.8c38.9-28,53.7-59.2,33-102.5c-8-16.7-12.1-35.6-15.5-53.9
			c-4.2-22.9-13.5-29.5-31.8-13.1c-9.3,8.3-31.2,6-25.1,28C1980.4,1026.6,1993.4,1072.9,2007,1121.8z M1961.4,1128.2
			c-12.3-44.3-23.6-83.7-34-123.2c-3.7-13.9-10.5-8.5-17.5-4.3c-18.5,10.9-36.5,22.9-55.5,32.8c-13.7,7.2-12.3,14.1-4.1,24.6
			C1877.8,1093.1,1913.2,1115.6,1961.4,1128.2z M2090.6,1033.6c57.5-40.4,57.5-40.4,41.3-101.4c-0.5-1.7-0.9-3.5-1.3-5.2
			c-12.9-47.1-12.7-46.7-55.9-22.2c-12.8,7.2-18,13.7-12.9,29.1C2072.4,966.1,2080.8,999,2090.6,1033.6z M2186.1,956.9
			c58.7-33.7,58.7-33.7,44.4-87.1c-12.1-45.2-12.1-45.2-53.6-21.5c-9,5.2-20.4,7.7-15.3,23.5C2170.4,899,2177.5,926.7,2186.1,956.9z
			 M1822.4,999.6c17.3-10.1,34.2-19.9,51-29.9c39.2-23.2,39.2-23.2,25.1-67.4c-0.4-1.2-2.5-1.9-4.1-3c-2.3,0.9-4.9,1.7-7.1,3
			c-13.8,8.4-27.5,16.9-41.2,25.4C1807.6,951.9,1807.6,951.9,1822.4,999.6z M697.4,1508.8c-1.8,0.6-4.5,1.1-6.8,2.4
			c-16.4,9.3-32.5,19.1-49,28.2c-12.8,7-15.1,13.7-5.9,27c23.4,33.8,22.6,34.3,51.1,5c8.1-8.4,16-17.1,24.7-24.8
			c9.3-8.2,5-16.2,0.7-24.1C709.1,1516.6,708.1,1507.9,697.4,1508.8z M2249.2,757.3c18.8-9.8,37.4-18.6,54.9-29.1
			c6.9-4.2,24.3-5.2,16.6-17.8c-8.6-14.1-16.8-35.7-37.4-33.5c-37.7,4-51.7,28.7-40.4,64.4C2244.5,746.2,2246.7,751,2249.2,757.3z
			 M472.7,1960.9c-11.1-21.1-21.3-40.9-32.2-60.4c-2-3.6-5.7-1.1-9,0.9c-34.6,20.2-39.1,47.3-12.2,77.5c6.9,7.7,15.6,20.6,25.4,14.6
			C456.2,1986.5,463.3,1972.4,472.7,1960.9z M623.8,1632c0.3-5.2-32-51.9-36.2-52.2c-5.4-0.4-43.8,36.2-41.3,40.1
			c11.5,18.1,23.8,35.7,36.9,52.6C585.7,1675.7,623.4,1638.6,623.8,1632z M2203.2,771.4c-1.4-41.1-10.5-46.6-45.2-27.4
			c-1.6,0.9-3.2,1.7-4.8,2.6c-22.6,12.7-27.2,32.2-9.3,57.3c12.4,17.2,21.5-5.5,32.9-7.5c6.7-1.1,12.7-6.6,19.1-9.9
			C2202.1,783.2,2206.1,779,2203.2,771.4z M2085.3,785c-15.3,8.8-30.1,17.2-44.8,25.8c-4.4,2.6-11.1,4.8-9.4,11.4
			c3.9,14.6,5.2,32.3,14.5,42.3c7.5,8,19.4-8,30-11.5c1.7-0.6,3.1-1.8,4.7-2.7c21.4-12,27-42.5,11-60.7
			C2089.7,787.8,2087.5,786.7,2085.3,785z M507.6,1822.8c-4.5,0.4-36,35.8-34,39.4c9.9,18.5,20.6,36.6,31.1,54.8
			c0.1,0.2,1.8-0.1,2.3-0.7c11.3-13.7,29.8-26.5,31.8-41.6c2.5-18-16.1-34.1-26.4-50.5C511.7,1823.2,509.2,1823.2,507.6,1822.8z
			 M554.8,1715.1c-10.9-16.4-16.9-26.4-23.8-35.6c-6.3-8.3-11.3-24.9-19.9-22.4c-13.1,3.7-22.7,17.9-27.4,31.5
			c-5.3,15.2,10,23.5,17.2,34c4.9,7.2,7.4,22.6,19.1,18C532.8,1735.4,543.1,1724,554.8,1715.1z M2074.5,728.7
			c-1.8-32.9-9.8-37.4-39.4-22.1c-3.2,1.6-6.4,3.3-9.5,4.9c-22.5,11.9-26.3,23.3-11.6,48.6c12.3,21.2,21.2-3.5,32-5
			c7.4-1.1,14-7.5,20.9-11.5C2072.6,740.3,2077.5,736.5,2074.5,728.7z M702.7,1758.9c-45.6,40.3-46.7,52.7-8.3,94.5
			C726.8,1812,728.1,1796.9,702.7,1758.9z M631,1839.8c-9.1,10.3-15.8,17.4-22,24.9c-10,12.1-2.8,56.2,13.4,62.8
			c15.9,6.5,21.3-13.6,31.9-21.2c8.6-6.2,5.5-13.5,1.2-21.1C647.5,1871.2,640.2,1856.9,631,1839.8z M652.5,1671.5
			c-10.7,10.7-19.7,19.4-28.4,28.4c-12.1,12.7-4.7,49.1,11.4,55.8c1.9,0.8,4.9,0.1,6.9-0.8c27.3-12.4,36.6-46.4,19.4-71.3
			C659.3,1679.9,656.4,1676.5,652.5,1671.5z M1956.9,919.5c9.3,0.4,46.3-26.2,44.7-33.1c-3.2-13.8-4.3-31.7-13.4-39.5
			c-8.9-7.6-20.7,8.8-31.8,13.5c-4.1,1.7-8.3,3.9-11.4,6.9c-14.3,13.6,1.5,25.8,2.5,38.8C1947.9,911.2,1947.3,919.6,1956.9,919.5z
			 M1961.9,747c-7.9,3.9-15.1,7.2-22,11.1c-31.3,17.4-33.2,23.8-18.6,55.8c2.5,5.4,3.7,9,11,7.8c28.2-4.9,43.7-28.7,35.9-56
			C1966.4,759.8,1964.2,754,1961.9,747z M1470.3,1579.2c29.9-0.1,45.7-14.5,44.8-40.2c-0.6-16.6-13.3-8-20.1-8.2
			c-37.5-0.7-50.8,10-48.4,38.6C1448.3,1588.1,1463.9,1574.5,1470.3,1579.2z M2125.8,710.6c15-8.6,33.3-16.7,48.3-28.9
			c8.9-7.2,0-19.7-2.5-29.7c-1.7-6.7-5-8.2-11.5-5c-15.2,7.4-31.8,12.6-45.9,21.6c-15,9.6-1,22,0.9,32.9
			C2115.7,705.1,2114.1,713.9,2125.8,710.6z M574.5,1832.1c8.4-3.1,12.5-11.7,18.3-18.2c12.3-14,6-51-12.8-58.2
			c-15.9-6.1-21.2,14.3-31.1,22.8C542.9,1783.5,565.9,1831.3,574.5,1832.1z M1870.4,802.8c-29.3,11.9-45.8,41.3-46.6,83.2
			C1887.4,854.6,1887.4,854.6,1870.4,802.8z M712.2,1674.5c38.6-36.3,40.2-42.8,20.2-82.7C672.8,1647.2,681.6,1631.2,712.2,1674.5z
			 M1750.5,1328.9c34.5,8.5,34.1-17.8,35.6-33.4c1.8-18.6-17.8-10-28-12.2c-27.5-5.9-29,17.5-30.9,33.4
			C1724.6,1338.3,1745.4,1325,1750.5,1328.9z M1743.7,1631.5c15.8-1.4,29.4-1.2,42.3-4c19.5-4.2,7.8-22.4,13-33.4
			c3-6.3-1.8-10.3-8.3-9.1c-14.9,2.8-30.1,5-44.3,9.9c-13.2,4.6-11.5,19.1-13.6,29.8C1731,1634.7,1740.6,1631.2,1743.7,1631.5z
			 M452.5,1735.8c-8.4,17.2-15.7,30.6-21.6,44.6c-5.8,13.5,7.6,20.6,12.1,30.6c2.4,5.4,5.6,4.3,10.3,1.6
			c26.7-15.5,31.3-35.1,13.2-59.6C462.8,1748.1,458.8,1743.5,452.5,1735.8z M1649.6,1561.4c15.6,4.2,30.4-2,45.1-4.6
			c15.9-2.8,16.1-18.9,16.2-30.3c0.2-15.9-13.3-6.9-20.5-6.7C1654.4,1520.6,1654.4,1520.9,1649.6,1561.4z M564.9,1918.4
			c-12.4,15.2-22.6,28.5-33.6,41.1c-6.9,7.9-3.3,14.7,0.3,21.9c2.5,4.9,4.8,8.5,12,7.2c33.6-5.9,44.5-26.9,29-57.4
			C571,1928.2,569,1925.2,564.9,1918.4z M1853.8,1339.4c25,6.1,31.7-13.4,30.4-23.8c-2.5-19.1-24.4-16.3-38.3-18.1
			c-21.6-2.8-20.1,20.7-19.8,30.3C1826.7,1346.2,1847,1335.3,1853.8,1339.4z M1550.2,1574.8c17.5-1.4,27.7-0.7,37-3.3
			c20.5-5.7,18.5-26.2,19.1-40.1c0.6-13.5-15.9-6.3-23.8-5.8C1551.9,1527.6,1563.7,1555.8,1550.2,1574.8z M1625,1643.6
			c17.5-1.9,32.5-3.3,47.5-5.3c14.8-2,12.3-15.6,15.4-24.9c1.8-5.4-2.8-6.8-7.8-7.7C1653.8,1601,1631.5,1615,1625,1643.6z
			 M1723.4,1405.5c25.6,0,36.4-5.7,33.7-20.4c-3.6-19.1-21.3-8.4-32.5-11.3c-18.5-4.8-24.6,8.6-24.3,22.3
			C1700.7,1414,1716.9,1401.1,1723.4,1405.5z M1712.5,1704.4c24,0.8,45.9-8,68.5-12.3c6.9-1.3,11.8-4.9,9.8-13
			c-1.9-7.6-8.1-5.3-13.2-5c-13.4,0.8-26.9,2.8-40.3,2.7C1719,1676.6,1711.7,1685.4,1712.5,1704.4z M1540.3,1451.3
			c-22.8-3.5-45-6.4-54.8,22.4c-2.1,6.2-2.7,9.3,5,11.2C1516.6,1491.2,1535.8,1478.7,1540.3,1451.3z M1626.5,1405.3
			c26.7,5.6,29.4-14.7,30.7-30.4c1.1-13-14.5-9.5-22.4-9.8c-22.5-1-19.2,20.1-23,32.5C1607.2,1413.1,1622.6,1402.1,1626.5,1405.3z
			 M1542.2,1655.3c3.8-0.4,6.5-0.9,9.2-0.8c18.5,0.2,27.7-9.1,29.8-27.2c1.2-10.4-4.8-9.9-11.4-9.1c-16.2,2-35.2-1.3-38.2,23.7
			C1530.3,1652.6,1531.5,1657.6,1542.2,1655.3z M1629.9,1713.9c17.7,0.9,34,1.9,35.9-19.5c1.1-13-9.6-8.5-15-7.1
			c-15.5,3.9-40.5-7.8-43,18.6C1606,1724.1,1624.6,1708.7,1629.9,1713.9z M1756.6,1545.8c16.6-3.8,30.5-7.1,44.4-10
			c8.7-1.8,11.4-7.7,11.9-15.4c0.3-4-1.4-6.3-5.3-7.9C1786.9,1503.8,1760.7,1519.3,1756.6,1545.8z M1470,1623.6
			c-4.8,4.9-21.9-6.1-19.1,11.7c1.9,12,3.8,30.6,20.2,29.9c15.6-0.7,11.7-19.8,15.5-30.6C1491.4,1621,1479.1,1624.6,1470,1623.6z
			 M1698.9,1473.3c11.3-6.4,35,6.7,32.6-16.4c-1.6-15.4-20.9-4.4-32-6.7c-11.5-2.4-23.4,0.4-22.7,14.8
			C1677.6,1482.4,1691.9,1468.7,1698.9,1473.3z M1598.8,1478.2c13.9-1.2,29,1.1,30.7-18.3c1.5-17.2-11.8-8.4-18.5-9.9
			c-15.1-3.3-23.4,3.7-25.3,18.9C1584.3,1481.7,1593.4,1477.7,1598.8,1478.2z M1823.2,1405.6c11.5-1.3,28.8,4,27.4-12.9
			c-1.4-16.4-19.7-6.4-29.9-10.1c-10.6-3.9-18,2.1-18.2,12.9C1802.3,1412.9,1816.9,1401.9,1823.2,1405.6z M1529.8,1403
			c33.3,5.1,37.1,1,42.2-44.3C1551.9,1368.6,1542.7,1386.5,1529.8,1403z M1661.8,1322.1c18.7,3.3,18.1-11.4,21.3-21.6
			c2.5-8.1-3.5-9.2-9.2-7.6c-12.5,3.5-29.8,3.5-31.7,19.8C1640.6,1326.4,1656.1,1317.8,1661.8,1322.1z M1801.8,1466.5
			c8.6-4.3,26.3,5.4,26.2-9.1c-0.2-14.4-17-5.8-26.2-7.1c-8-1.1-20.9-3.1-19.8,10.3C1783,1472.7,1794.8,1464.4,1801.8,1466.5z
			 M1991.4,673.1c21.8-5.8,42.3-13.8,58.4-30C2026.5,645.5,2007.7,657,1991.4,673.1z"/>
		<path class="st1" d="M167.9,1740.5c-0.2-35.6,13.4-55.6,45.7-57.9c30.7-2.2,59.2,30.8,59,64.7c-0.2,32.7-16.8,50.8-46.1,50.4
			C186.5,1797.1,167.3,1778.3,167.9,1740.5z"/>
		<path class="st1" d="M233.5,1948.5c0.3,22.7-12.2,36.8-33.1,37.2c-24.6,0.4-46.4-21.4-45.2-47c1-19.9,6.8-38.1,31.2-40
			C208.2,1896.9,233.2,1924,233.5,1948.5z"/>
		<path class="st1" d="M2370.2,1489.4c-81.1-0.8-137.8-70.2-113.4-138.7c29-81.7,147.5-117.6,216.5-65.1
			c29.7,22.6,41.9,53.3,34.8,90.4C2494.9,1443.4,2437.9,1490,2370.2,1489.4z M2370.2,1443.9c41.9,0.1,71.1-20.2,88-60.1
			c15-35.3,0.7-64.7-36.4-74.8c-38.5-10.5-87,5.8-111.1,37.3c-23.3,30.3-18.6,61.3,12.8,83.5
			C2337.7,1440,2353.7,1445.1,2370.2,1443.9z"/>
		<path class="st1" d="M635.6,887.1c-64.8-0.4-113.8-48-114.4-111.1c-0.5-63.8,60-114.4,135.5-113.1c63.1,1,106,40.8,105.7,98.2
			C762.2,831.1,705.4,887.5,635.6,887.1z M653.4,708.1c-48.4,0.1-85.7,28.7-86.3,66.5c-0.6,39.3,29.7,68.9,70.4,68.7
			c42.9-0.1,78.8-37.5,79-82.2C716.6,726.8,694.3,708.1,653.4,708.1z"/>
	</g>
</g>
</svg>
