<?xml version="1.0" encoding="utf-8"?>
<!-- Generator: Adobe Illustrator 23.0.0, SVG Export Plug-In . SVG Version: 6.00 Build 0)  -->
<svg version="1.0" xmlns="http://www.w3.org/2000/svg" xmlns:xlink="http://www.w3.org/1999/xlink" x="0px" y="0px"
	 viewBox="0 0 3000 3000" style="enable-background:new 0 0 3000 3000;" xml:space="preserve">
<style type="text/css">
	.st0{stroke:#000000;stroke-width:10;stroke-miterlimit:10;}
</style>
<g id="Layer_1">
</g>
<g id="Layer_2">
	<g>
		<path class="st0" d="M987.1,732.7c126.1,0,252.2,0,378.3,0c145.2,0,290.4,0,435.6,0c226.5,0,452.9-0.4,679.4,0.2
			c169.1,0.4,297.5,75.8,388.5,216.4c48.1,74.2,71.8,156.9,72.3,245.1c1.1,188,3.6,376-0.8,563.9c-2.6,113.3-44.8,216.2-112.2,307.8
			c-84.4,114.9-198.1,184.2-335.4,219.5c-224.2,57.6-450.9,98.4-682.2,113.3c-193.7,12.4-387.1,10.1-580.2-8.4
			c-221.8-21.3-439.3-65-653.2-127.1c-51-14.8-102.2-28.1-149.7-52.7c-116.8-60.3-199.6-150.9-250.1-272.3
			c-53.3-128.2-81.7-261.2-83.9-399.8c-1.6-102.2-1.8-204.4,10.7-306c14-112.7,46.1-219,119.1-309.3c81.6-100.9,189.5-156,314.4-182
			c30.4-6.3,61-8.7,92.1-8.6C749,733,868,732.7,987.1,732.7C987.1,732.7,987.1,732.7,987.1,732.7z M724.7,792.9
			c-53.8-1-106.6-8.4-159.1,0.8c-111.8,19.6-210.2,64.6-286.8,151.1c-68.8,77.7-100.2,171.5-115,271.6
			c-16.8,113-16.3,226.9-13,340.8c3.6,124.9,31.2,244.7,79.3,360.1c39.2,94,100.4,168.7,187.1,222.5
			c52.7,32.7,110.8,50.3,169.8,67.5c226.4,65.7,456.6,110.9,691.6,130.6c190.6,16,381.3,16.1,572,1.3
			c213.5-16.6,422.9-55.5,630.1-109.1c119.3-30.8,219.5-89.8,295-188.1c65.4-85.1,106.1-181.6,108.5-288.5
			c4.2-183.8,1.6-367.8,0.9-551.7c-0.3-81.7-21.3-158.3-66.7-226.8c-73.9-111.4-176.1-177.4-311.3-184.3
			c-69.9-3.6-140.1-1-210.1-1.1c-4.3,0-9.2-1.8-16.9,6.1c10.1,8.7,21.1,16.4,30,26c191.2,208.2,294.2,447.9,260,735.6
			c-13.4,112.9-58.4,210.7-145.5,286.5c-71.7,62.5-157.1,97.6-248.1,119.7c-159.2,38.7-321.9,47.1-484.7,52.2
			c-172.9,5.5-345.5-1.8-518-14.2c-93.8-6.7-187.4-15.1-278.8-38.3c-125.8-31.9-235-92-311.1-200.4
			c-118.5-168.7-151.3-356.8-113.5-556.9c30.4-160.8,116.8-290.6,237.7-398.5C713.7,802.6,719.2,797.7,724.7,792.9z M1667,1804
			c0.3,46.1,2.8,92.1,5.8,138.1c0.9,14.5,5,18.4,19.4,17.8c119-4.7,237.8-11.8,355.8-28.7c90.9-13,179.9-34,262.1-77.3
			c104.5-55,171.4-140.3,195-255.4c25.1-122.3,21-245.2-15.4-365.4c-52.6-173.3-154.4-315-285-437.7c-6.4-6-13.3-6.2-20.9-6.2
			c-51.4,0-102.8,0.5-154.1-0.3c-12.2-0.2-18.5,4.5-24.9,14.3c-42.1,64.5-80.7,131.2-118.5,198.2
			C1745.3,1250.5,1666.5,1516.4,1667,1804z M1310.9,790.9c-4-0.4-6.1-0.9-8.2-0.9c-156.5-0.2-312.9-0.4-469.4-0.7
			c-6.6,0-12.5,1.3-18,5.3C699.3,877.5,608.3,981.4,555.8,1115c-57.7,146.8-56.8,296.5-10.2,446c31.7,101.8,84.1,191.2,169.9,257.4
			c79.7,61.5,172.9,90.1,270.7,106c9.8,1.6,10.4-2.5,9.6-10.6c-5.6-55.2-8.8-110.5-10.9-166c-5.9-152.8,0.5-304.6,36.7-453.9
			c46.8-192.7,133.7-362.7,283.7-496.5C1306.8,796,1308.1,794.2,1310.9,790.9z M1945.4,789.4c-18.4,0-33,0.9-47.4-0.3
			c-14.7-1.2-24.7,3.9-34.8,14.9c-88.1,96.2-162,202.2-217.7,320.1c-119.8,253.6-154.4,518.7-102.7,794.6c7.7,41.4,8,41.3,49.9,41.3
			c1.8,0,3.5-0.3,5.2,0c16.1,2.7,20.3-3.2,18.7-19.7c-11.3-119.1-7.5-237.9,8.7-356.3c31.4-230.3,112.7-443,229.8-642.8
			C1884.2,891.7,1912.3,841.4,1945.4,789.4z M1060.5,1930.7c0.1,1.5,0.2,2.9,0.3,4.4c135.8,12.5,271.8,20.9,408.4,22.4
			c-52.5-32.3-105.4-62.8-158.2-93.5c-7.6-4.4-14.6-2.5-21.8-0.4c-29,8.5-58,17.1-87,25.6C1155,1903.1,1107.8,1916.9,1060.5,1930.7z
			 M1231.9,1278.5c43.7,25.1,84.3,48.6,125.1,71.8c2.3,1.3,5.8,2.4,8.2,1.7c37.8-10.7,75.5-21.7,116.7-33.6
			c-42.1-25.2-80.9-48.5-119.7-71.8c-4.3-2.6-8.7-2.7-13.4-1.3C1311,1256.1,1273.2,1266.8,1231.9,1278.5z M1285.8,1375.1
			c-44.3-25.5-85-48.8-125.7-72.1c-3.8-2.2-7.9-1.7-11.9-0.6c-22.3,6.5-44.6,13.2-67,19.5c-15.2,4.2-9.2,18.3-13.2,27.6
			c-3.4,8.1,3.7,11,9.3,14.2c24.3,13.8,48.6,27.6,73,41.4c5,2.9,10,6.4,16.3,4.6C1205,1398.7,1243.3,1387.5,1285.8,1375.1z
			 M1470.9,1481.7c-39.3-22.7-75-43.3-110.7-63.8c-3.6-2.1-7.4-2.7-11.7-1.5c-38,11.1-76.1,22-118.2,34.1
			c40,22.7,76.4,43.3,112.7,63.8c5,2.8,10.4,1.3,15.3-0.1C1394.7,1503.8,1431,1493.2,1470.9,1481.7z M1289,1202.9
			c-22.9-13.8-42.2-25.5-61.6-37.2c-45.1-27-45.1-27.1-94.3-9.6c-4.2,1.5-9.3,1.6-11.3,7.1c-4.9,13.7-14.2,27.4-13.7,40.8
			c0.3,10.1,17.8,12.6,27.3,18.9c6.8,4.5,14.2,7.9,21.2,12.1c4.2,2.6,8.3,3.9,13.2,2.5C1208.1,1226.4,1246.5,1215.3,1289,1202.9z
			 M1236.5,1608.2c38.1,22.3,72.2,42.3,106.4,62.1c2.8,1.6,7,2.7,9.9,1.9c32.5-9.2,64.8-18.9,101-29.6
			c-38.5-21.7-73.4-41.4-108.2-61.2c-3.8-2.1-7.2-2.7-11.5-1.4C1302.9,1589.2,1271.7,1598.1,1236.5,1608.2z M1054.4,1501.6
			c34.6,20.2,66.5,37.9,97.2,57.2c12,7.6,22.5,9,35.7,4.8c26.4-8.6,53.3-15.9,83.7-24.9c-39.8-22.4-75.7-42.5-111.6-62.8
			c-3.8-2.2-7.4-3-11.6-1.8C1117.9,1483,1088,1491.7,1054.4,1501.6z M1638.4,953.2c-33.8-19.7-63.9-37.2-93.8-54.9
			c-4.2-2.5-8.6-4.1-13.2-2.8c-34.2,9.7-68.4,19.7-106.8,30.7c34.8,20.3,65.7,38.3,96.6,56.3c3.8,2.2,7.6,1.8,11.8,0.6
			C1567,973.4,1601,963.8,1638.4,953.2z M1273.1,1695.5c-37.6-22-72-42.3-106.6-62.3c-2.8-1.6-7-2.8-9.9-1.9
			c-29,8.1-57.8,16.6-90.2,26c38.2,22.1,72.8,42,107.4,62.1c3.8,2.2,7.7,3.2,11.7,2C1213.6,1713.2,1241.6,1704.8,1273.1,1695.5z
			 M1234.8,1820.3c-19.2-11.2-34.8-19.9-50-29.3c-8-5-15-6.3-24.4-3.2c-26.5,8.7-53.5,15.6-80.3,23.6
			c-38.4,11.5-38.1,11.5-32.2,50.9c1.4,9.2,4.2,11.9,13.2,9.3C1117.3,1854.8,1173.6,1838.3,1234.8,1820.3z M1255,974.5
			c33.9,19.9,64.4,37.8,95,55.4c2.8,1.6,7,2.9,9.9,2.1c28.9-7.8,57.6-16,89.7-25c-20.1-11.8-37.6-20.1-52.8-31.5
			c-31-23.4-62.7-31.4-99.3-13.7C1285.7,967.5,1272,969.5,1255,974.5z M1424,1073.3c35.9,20.9,67.5,39.3,99.1,57.8
			c3.2,1.9,6.5,2.8,10,1.8c15.7-4.4,31.4-8.6,46.9-13.7c11-3.6,12.5-15.1,15.1-24c1.8-6.2-7.2-7.8-11.9-10.6
			c-18.5-11.1-37.4-21.5-55.9-32.6c-5.9-3.5-11-5.1-17.9-3C1482.8,1057,1456,1064.3,1424,1073.3z M1261.3,1119.9
			c34.4,20.7,65.7,39.5,97,58.3c3.5,2.1,7.2,3,11.6,1.8c26.4-7.7,52.9-15.2,82.9-23.8c-35.5-20.8-67.9-39.8-100.5-58.6
			c-2.3-1.3-5.7-2.1-8.2-1.4C1317.6,1103.5,1291,1111.3,1261.3,1119.9z M1468.6,854.2c-27.7-16.2-51.7-30.1-75.6-44.2
			c-5.2-3.1-9.5-3.3-14.3,0.7c-18.2,15.4-36.6,30.6-54.8,46c-2.4,2-5.9,4-3.2,8.5c3.9,6.7,37,20.9,45,18.6
			C1398.8,874.5,1431.6,864.9,1468.6,854.2z M1765.7,828.7c-52.2,14.9-100.8,28.8-152.7,43.6c27.5,16.1,51.9,30.3,76.2,44.8
			c5.6,3.4,9.1,2.9,13-2.5C1722.4,887,1742.8,859.6,1765.7,828.7z M1402.8,1771.5c-21.7-12.7-39.1-22.9-56.5-33.2
			c-3.8-2.3-7.6-2.7-11.7-1.5c-27.6,8.2-55.2,16.4-86.1,25.5c21,12.2,39.4,22.8,57.8,33.5c4,2.3,7.7,1.1,11.6-0.1
			C1344.6,1788,1371.2,1780.5,1402.8,1771.5z M1432.9,1221.2c2.9,2.8,3.6,3.7,4.6,4.3c18.4,11.1,36.8,22.2,55.2,33.3
			c31.3,18.8,31.4,18.7,42.9-14.9c1.9-5.5,3.6-11,5.5-16.5c5.9-17-8.7-34.4-26.6-29.8C1487.7,1204.4,1461.2,1212.9,1432.9,1221.2z
			 M1473.1,790.7c15.1,8.9,26.8,14.1,36.6,21.8c23.2,18.3,46.6,19.8,74.3,9.5c32.3-12,66.3-19.7,99.5-29.2c-0.2-0.7-0.4-1.4-0.6-2.1
			C1614.6,790.7,1546.4,790.7,1473.1,790.7z M1378.9,1837.7c36,20.7,67.8,39,101.6,58.4c-3.7-27.3-7.3-50.8-9.8-74.5
			c-0.9-8.1-3.8-10.1-11-8C1434.3,1821.2,1408.8,1828.8,1378.9,1837.7z M1279.6,1055.2c-14.6-8.7-25.9-15.5-37.3-22.3
			c-45.3-26.8-45.3-26.8-69.1,20.7c-1,2.1-2.2,4.1-3.2,6.2c-1.1,2.4-0.5,5,1.6,6.1c9.9,5.2,17.8,15.4,31.3,11.4
			C1227.3,1070,1251.7,1063.2,1279.6,1055.2z M1104.6,1744.9c-23.1-13.2-42.5-24.3-64.6-36.9c0.8,17.6,1.7,32,2,46.4
			c0.2,8.7,5.1,7.4,10.5,5.8C1068.7,1755.5,1084.8,1750.7,1104.6,1744.9z M1430.4,1392.8c21,11.9,38.2,21.6,56.4,31.8
			c3.3-15.4,5.6-28.5,8.9-41.3c2.1-8.2-1.5-9.4-7.9-7.5C1470.2,1380.9,1452.6,1386.2,1430.4,1392.8z M1092.1,1590.3
			c-17.7-11.2-32-20.9-49.6-28.1c-0.8,11.3-1,21.1-2.3,30.9c-1.4,11.1,4,11.5,12.2,9.1C1064.6,1598.4,1076.9,1594.8,1092.1,1590.3z
			 M1465.6,1583.8c1.4-12.2,2.3-22.4,3.7-32.5c1.1-7.7-2.6-9.3-9-7.5c-12.9,3.7-25.8,7.7-42.7,12.8
			C1435.6,1566.8,1449.8,1574.9,1465.6,1583.8z M1419.4,1712.7c12.1,10.7,29.2,20.6,43.2,25.2c4.6-39.2,3.5-40.3-32-29.3
			C1426.9,1709.7,1423.4,1711.2,1419.4,1712.7z M1638.6,1013.5c-15.7,2.4-28.5,6.1-41.4,12
			C1629.2,1046.4,1621.4,1047.1,1638.6,1013.5z M1056.1,1417.3c0.7,10.1-6.2,19.7-0.4,22.3c7.9,3.5,17.5-2.2,27.9-7.1
			C1073.8,1427.1,1066.4,1423,1056.1,1417.3z"/>
	</g>
</g>
</svg>
