<?xml version="1.0" encoding="utf-8"?>
<!-- Generator: Adobe Illustrator 23.0.0, SVG Export Plug-In . SVG Version: 6.00 Build 0)  -->
<svg version="1.0" xmlns="http://www.w3.org/2000/svg" xmlns:xlink="http://www.w3.org/1999/xlink" x="0px" y="0px"
	 viewBox="0 0 3000 3000" style="enable-background:new 0 0 3000 3000;" xml:space="preserve">
<style type="text/css">
	.st0{stroke:#000000;stroke-width:10;stroke-miterlimit:10;}
</style>
<g id="Layer_1">
</g>
<g id="Layer_2">
	<g>
		<path class="st0" d="M320.8,1316.1c-41.8-10.2-73.9-23.3-102-45.3c-60.7-47.6-89.8-113.6-100.6-186.4
			c-17.6-119.4-25.7-239.7-6.7-360.1c20.5-130,85.7-228.7,204.7-289.2c89.9-45.8,186.9-69.1,285.1-87.7
			c264.7-50.2,531.4-59.6,799.6-38.7c104.7,8.2,208.6,22.2,312,39.3c16.4,2.7,28.1-1.8,41.1-8.4c172.5-87.3,406.8-36.8,520.4,114.6
			c17.6,23.5,34.1,31,61.9,29.8c57.6-2.6,115.3-1.1,172.9-2c15.3-0.2,29.9-5.2,34.5-21.9c4.8-17.6,1.5-34-13.2-46.9
			c-14.2-12.5-31.2-17.5-49.4-19.8c-16.7-2.2-33.3-4.9-56-8.3c98.2-56.9,192.9-78.6,299-40.2c122.9,44.5,182.9,176.1,151.4,294
			c-9.8,36.5-27.9,68.4-55.7,94.4c-7.6,7.1-14,11.4-0.3,20.4c113.2,73.7,161.4,178.5,132.3,310.1
			c-29.8,134.6-119.3,214.9-253.7,244.9c-50.2,11.2-100.5,8.5-151.3-1c1.2,11.4,9.8,15.4,15.3,21.4c83,89.7,127.7,195.2,128.1,317.8
			c0.7,215.3,1.2,430.5-0.1,645.8c-1.5,251.4-204.2,454.1-455.2,463.1c-132.4,4.7-264.6,16.5-397.1,21.6
			c-237.5,9.3-475.1,10.9-712.8,5.9c-198.9-4.2-397.3-16.8-595.8-28.5c-242-14.3-442.4-225.8-437.4-467.4
			c2.1-99.7,12.9-199.1,19.8-298.7c7.3-104.7,13.6-209.5,22.1-314.1c10.5-129.6,67.5-238.2,155.2-332
			C297,1333.7,307.3,1327.1,320.8,1316.1z M2168.2,2712.5c22.6,0,42.3,0.4,62-0.1c229.2-5.6,414.5-189.5,417.2-418.7
			c2.5-216.1,2.3-432.3,0.1-648.4c-2.2-214.8-165.6-393.2-377.8-415.8c-84.9-9.1-170.4-1.8-255.5-4c-16.1-0.4-15.7,8.4-14.7,19.8
			c4.2,45.8,0.9,91.4-7.2,136.3c-25.7,142.8-96.6,250.8-238.7,301.6c-71.1,25.4-145.9,31.8-220.3,40.5
			c-143.4,16.8-286.7,22.3-429.2-7.7c-73.1-15.4-147.1-28.5-213.8-65c-64.5-35.3-100.2-90.1-107.7-163
			c-8.7-85,22.5-158.6,65.9-228.6c6.2-10,15.3-18.4,17.6-32.2c-3.8-0.6-6.9-1.4-10-1.4c-93.9-0.1-187.7-0.2-281.6,0.2
			c-10.1,0-20.5,2.5-30.2,5.6C350.7,1293.3,183,1478.4,173.2,1711c-7.8,186.5-23.2,372.7-36.8,558.9
			c-11.8,160.7,90.7,333.4,238.1,399.9c23.2,10.5,34.4,5.5,47-14.7c102.2-163.3,125.6-336,61.9-518.6c-8.3-23.7,7.5-22,19.1-28.8
			c17.1-10,18.5,3.2,21.9,13.3c66.4,195.9,43.9,381.2-66.3,556c-3.6,5.7-6.8,11.6-11,18.8c9.9,2.6,17.9,5.3,26.2,6.8
			c81.5,14.5,164.4,12.9,246.4,20.9c13,1.3,18.1-6.7,24.2-15.4c44.1-62.5,75.7-130.8,95.9-204.4c29.7-108.2,33.3-217.2,7.3-326.7
			c-3.3-14-5-22.9,13.6-28.3c19.5-5.6,24.8-0.5,28.8,17.8c41.1,189.8,10.9,367.4-88.6,533.7c-4.7,7.8-12.6,14.2-12.5,24.2
			c4.4,5,9.9,3.4,14.8,3.6c106.7,3.9,213.4,7.1,320.1,11.9c21.6,1,33.9-5.2,45.1-24.2c104.5-178.3,150.6-369.8,132.6-576.2
			c-1-12-6.8-25.6,15.6-26.8c17.5-1,28.4-0.1,27.6,20.7c-0.2,6,1.3,12,1.7,18c12.5,202-29.7,391.6-129.8,567.9
			c-3.5,6.2-10.7,11.5-6.6,21.4c7.6,0.5,15.2,1.3,22.8,1.4c115.4,1.9,230.8,1.5,346.2-0.3c22.3-0.4,33.2-8.5,42.8-27.9
			c99.3-201,127-410.6,76.9-629.6c-3.9-17-0.3-23.2,16-27c17-4,23.1-0.3,27.1,18.1c48.8,220.6,24.3,432.6-71.3,636.8
			c-3.8,8.1-11.3,15.3-8.7,26.2c3.6,0.3,7,0.8,10.4,0.7c139.5-2.3,278.8-9.9,418.1-17.1c16.3-0.8,26.5-7.3,34.9-21.4
			c121.1-201.7,142.7-413.1,60.4-633.6c-8.9-23.9,4.2-24.4,17.6-31.7c19.5-10.6,19.2,5.8,23,15.5c52.4,133.2,63.6,270.4,37.9,410.8
			C2247.2,2550.6,2215.2,2633.6,2168.2,2712.5z M2300.4,699c-1-77.4-9.5-155.9-61.7-221.7c-109.6-138.1-360.5-202.2-534.8-53
			c-127.7,109.2-177.5,249.3-145.9,416.6c43.7,231,231.4,369.1,447,332.2c120.6-20.6,240.9-110.2,267.9-240.9
			C2288.6,856.3,2295.8,779.2,2300.4,699z M1438.3,1225.6c-164.4,0-328.7-0.1-493.1,0.1c-9.8,0-20.8-3.6-28.2,7.4
			c-40.2,60.2-81.1,120.4-90.9,194.4c-7.6,57.5,1.3,111.4,43.5,155.9c14.3,15.1,24.2,19.4,40.3-0.1c23.4-28.5,50-54.6,76.7-80.1
			c126.4-120.9,275.8-176.4,450.4-148.6c153,24.3,269.9,106.5,351.4,237.9c12.3,19.8,19.8,19.4,35.8,6.2
			c37.7-31.1,68.9-67.2,90.1-111.4c34.3-71.4,45.6-147.2,42-225.7c-1.7-36-1.4-36-37.8-36
			C1758.5,1225.7,1598.4,1225.7,1438.3,1225.6z M2263,1060.5c14.1,0,22.5,0.1,31,0c62.7-0.9,125.7-4.6,186.6,15.3
			c58.5,19.2,100.7,54.6,114.1,117.8c5.5,26,0.2,51-6.7,75.9c128.2,16.7,246.4-43.4,300.4-152c62.9-126.6,17-274.4-103.9-334.4
			c-9.8-4.8-18.9-10.3-31.5-4.9c-69.6,30-143,34.5-217.5,31.5c-55.8-2.3-111.6-5-167.6,1.1c-25.5,2.8-37.2,11.1-39,37.8
			C2323.9,922.2,2309.2,993.3,2263,1060.5z M1370.3,1694.4c29.8-2.4,75.3-5.1,120.7-9.8c83.7-8.7,167.8-15.6,248.7-41.6
			c20.8-6.7,21.9-13.6,10.8-31.8c-137.5-224.2-436.1-288.7-654.6-141.1c-54.7,36.9-100.4,83.6-145.2,131.2
			c-21.4,22.7-21.5,23.6,8.2,33.1C1087.4,1676.1,1219.2,1697.6,1370.3,1694.4z M2316.6,527.6c12.2,39.2,21.2,76.6,24.7,115.2
			c3.5,38.8,2.4,77.4-1.7,116c-1.6,15,8.7,12.2,16.8,11c60-9.3,120.3-4.8,180.5-3.4c57,1.3,113.3-0.3,168.8-15.9
			c96.7-27.3,151.7-116.3,131.3-214.9c-25.3-122.5-154.2-196.4-277.7-159.2c-0.9,5.1,3.3,7.5,5.9,10.7c47.7,59.2,24.1,125-50,138
			c-12.6,2.2-25.7,2.4-38.5,2.5C2424.2,527.7,2371.7,527.6,2316.6,527.6z M583.9,539.2c0.7-6.7-4.1-8.3-7.2-10.6
			c-40.5-30.5-81.1-60.8-121.9-91c-5.3-3.9-10.5-7.7-18.7-5c-70,22.9-136.2,52.5-190.1,104.7c-10,9.7-9.3,15,1.9,23.2
			c53.4,38.9,106.4,78.5,159.3,118.2c9.4,7,15.8,9.2,26-0.4c47-44.1,95-87.1,142.6-130.5C579,544.9,581.7,541.6,583.9,539.2z
			 M563.7,850.1c-3.3-3.1-5.6-5.7-8.3-7.7c-40.5-30.3-81.3-60.2-121.6-90.8c-8.5-6.5-13.3-2.9-19.4,2.8
			c-56.9,52.2-113.9,104.4-171.1,156.3c-8.9,8.1-8.1,12.9,1.5,19.3c42.1,28,84.1,56.3,125.7,85c8.7,6,14.3,5.8,22-1.5
			c54.1-51.5,108.6-102.5,163-153.7C558.3,856.9,560.7,853.6,563.7,850.1z M146.1,808.8c-3.2,67-9,44.6,36.4,78.8
			c9.2,7,16.1,5.8,24.4-1.9c56.2-52.1,112.4-104,169.3-155.3c11.6-10.4,8.3-15.4-2.1-23c-49.9-36.6-99.9-73.2-148.9-110.9
			c-14.2-10.9-20-8.6-28.2,6.3C161.7,667.1,149.2,736.7,146.1,808.8z M2124.6,1183.3c15.3,0,30.6,0.7,45.8-0.1
			c121.6-6.4,234.4,18.8,333,93.8c9,6.9,14.7,4.4,22.4-1.7c39-31.5,37.4-92.7-3.9-128.7c-30.6-26.6-67.5-38-106.7-40.2
			c-58.2-3.2-116.5-3.4-174.7-5.1c-7.3-0.2-13.3,1-18.6,6.5C2193.5,1137.3,2159.4,1158.9,2124.6,1183.3z M757.4,672.6
			c-1.2-12.2-7.6-14.3-12.1-17.7c-36.3-27.5-73-54.4-109-82.2c-10.2-7.8-16.6-7.2-26,1.6c-46.5,43.4-93.5,86.1-140.8,128.6
			c-10,9-11.4,14,0.7,22.7C508.7,753,546.5,781.3,584,810c10.1,7.7,16.7,7.9,26.2-1.3c45.1-43.6,90.9-86.5,136.7-129.4
			C750.6,675.8,755.6,673.7,757.4,672.6z M948.2,486.9c-3.9-1.7-7.5-2.4-10.2-4.5c-38-29.5-76.1-58.9-113.8-88.8
			c-8.7-6.9-13.5-2.4-19.5,3.2c-44.9,41.3-89.7,82.9-135.1,123.6c-11,9.9-12,15.5,0.8,24.7c36.9,26.6,73.1,54.2,109.4,81.8
			c8.6,6.5,14.6,8.5,23.8-0.4c43.9-42.5,88.5-84.1,132.8-126.1C939.4,497.5,941.9,494.1,948.2,486.9z M419.5,1047.6
			c38.2,25.9,75.1,50.6,111.6,76c7.6,5.3,12.5,2.8,17.9-2.3c55.9-52.1,111.9-104.1,169.3-157.5c-36.6-27.4-71.7-53.4-106.6-79.8
			c-7.4-5.6-13-6-20.1,0.8C535,938.6,478.1,992.2,419.5,1047.6z M1411.5,1098.9c35.8,26.9,70.2,52.5,104.3,78.5
			c8.3,6.4,17.6,5.9,27,5.9c63.7,0,127.3,0.1,191-0.2c4.8,0,11.8,4,15.4-5.5c-90-45.8-153-117.6-196.8-209.8
			C1504.4,1012.5,1458.7,1055,1411.5,1098.9z M633.3,846.1c36.2,26.9,71.4,52.7,106.2,79.3c8.8,6.7,14.4,5.3,21.9-1.8
			c46.3-43.6,92.8-87,139.7-130c9.5-8.7,12.4-13.9-0.5-22.9c-31.6-22.2-62.2-45.8-92.8-69.4c-7.8-6-13-8.4-21.5-0.2
			C736.1,749.2,685.4,796.8,633.3,846.1z M1198.7,994.4c-36.4-27.3-71.5-53.3-106-80c-10.9-8.4-16.8-2.1-24,4.7
			c-45.8,43-91.4,86.1-137.8,128.5c-10.3,9.4-8.3,14.1,1.7,21.3c30.7,22.1,61.1,44.6,91,67.6c8.5,6.5,14,6.4,21.9-0.9
			C1095.9,1088.7,1146.5,1042.4,1198.7,994.4z M1284.1,439.2c-0.2-12.5-7.1-14.1-11.5-17.5c-29.7-23.4-60.2-45.7-89.3-69.9
			c-11.2-9.3-17.7-8.1-27.4,1.3c-42.8,41.1-86.1,81.6-129.6,122c-8.6,8-11.4,13.2-0.1,21.6c31.6,23.7,62.8,48,93.6,72.8
			c9.7,7.8,15.7,5.4,23.8-2.3c43.1-40.7,86.7-81,130.2-121.3C1277.7,442.4,1282.6,440.2,1284.1,439.2z M1099.3,608.2
			c-36.6-28.6-72-55.8-106.8-83.8c-7.8-6.3-12.9-5.2-19.5,1c-45,42.6-90,85.2-135.2,127.5c-7.6,7.1-7.6,11.8,0.8,18
			c32.6,23.9,65,48,97.1,72.6c7.4,5.6,12.4,6.5,19.6-0.4C1002.8,698.2,1050.6,653.8,1099.3,608.2z M1230.7,962.8
			c3.4-2.5,6.4-4.2,8.9-6.5c43.7-40.2,87.1-80.6,131.1-120.4c10.5-9.5,3.9-13.9-3.3-19.6c-29.9-23.1-60.2-45.8-89.4-69.8
			c-10.5-8.6-17.3-7.3-26.1,1c-41.9,39.6-83.8,79.1-126.3,118.1c-9.7,8.9-8.9,13.5,1.4,20.9c30.7,22,60.7,44.9,91.1,67.4
			C1222,956.9,1226.2,959.7,1230.7,962.8z M1522.5,626.5c2-11-4-14.9-9.5-19.1c-15.6-12.1-31.6-23.8-46.6-36.5
			c-10.7-9-18.1-7.6-28,2.1c-30,29.5-61.3,57.7-91.7,86.7c-16,15.2-45.8,28.9-43.7,46.3c2,16,30.4,29.5,48.2,42.7
			c20.5,15.2,39.9,44.9,61.4,42.4c20.9-2.4,37.1-33.5,58.6-46.9C1517.4,715.5,1509.1,665.4,1522.5,626.5z M507.7,1160.2
			c-38.4-26-74.6-50.3-110.5-75.2c-8.1-5.6-13.3-4.2-19.9,2.1c-44.9,42.5-90.1,84.7-135,127.2c-4.6,4.4-12.4,9.1-4.2,16.6
			c34.9,31.7,98.7,55.5,145,31.3C431.2,1237,466.4,1197.1,507.7,1160.2z M1520.5,937c-4.2-3.8-7.1-6.8-10.4-9.4
			c-27.7-21.7-55.9-42.8-83-65.2c-11.2-9.3-17.3-4.3-25.6,3.4c-40.8,38.1-81.7,76-123.1,113.5c-8.8,8-11.6,12.4,0.3,20.7
			c28.8,20.2,56.8,41.5,84.4,63.2c9.1,7.2,15,7.8,23.8-0.6c40.5-38.4,81.6-76.1,122.5-114.1C1513.2,945.1,1516.4,941.4,1520.5,937z
			 M1046.8,880.6c-30.5-22.8-59.7-43.8-87.9-66.1c-10.2-8-15.1-2.2-21.5,3.8c-47.1,44-94.2,88-141.5,131.8
			c-7.2,6.6-8.9,10.6,0.6,17.4c25.9,18.4,51.1,37.8,76.4,57c7,5.3,12.7,6.9,20.1-0.1C943.5,976.7,994.4,929.5,1046.8,880.6z
			 M578.7,1153.1c22.6,23,46.9,33.9,77.6,30.5c17-1.9,34.4-0.6,51.6-0.3c8.9,0.1,16.6-1.3,23.5-7.8c36.3-34.2,72.8-68.2,109.6-101.9
			c7.7-7.1,10.5-11.8,0-19.2c-26-18.4-51.3-37.6-76.7-56.7c-6-4.5-11.1-7.3-17.9-0.9C690.7,1049,634.7,1101,578.7,1153.1z
			 M153,1023.9c5.4,47.9,13.2,102.1,40.5,151.4c5.9,10.7,9.4,17.1,21.6,5.3c40.1-38.8,81.1-76.7,122-114.7c9-8.3,13.4-13.1-0.7-22.2
			c-41.8-26.9-82.4-55.7-123.7-83.5c-4.7-3.1-8.8-8.3-15.9-6.2C179.7,959,151.4,999.1,153,1023.9z M1415.2,534.5
			c-2.9-3.3-4.8-6.2-7.4-8.2c-25.7-20.2-51.7-39.9-77.1-60.4c-9.1-7.4-13.6-1.4-19.3,3.8c-44.7,41.6-89.2,83.3-134.2,124.7
			c-8.4,7.7-8.9,12.8,0.6,19.9c24.7,18.6,49.3,37.5,73.1,57.1c9,7.4,14.3,4.9,21.6-2c43.8-41.3,87.9-82.3,131.8-123.4
			C1408.1,542.6,1411.3,538.8,1415.2,534.5z M1075.4,847.2c6.7,1.4,9.6-2.2,12.6-5.1c43.9-41.2,87.6-82.6,131.7-123.5
			c7.6-7.1,7.8-11.5-0.6-17.9c-24.7-18.6-49-37.7-73.2-57c-8-6.4-13.6-7-21.7,0.8c-43,40.8-86.4,81.2-130.3,121.1
			c-11,10-8.9,15,2.2,22.8c23.9,16.8,46.8,35,70.2,52.5C1069.4,843.5,1073.1,845.7,1075.4,847.2z M1170.6,1183.2
			c63.8,15.3,111.4-10.3,149.9-59.1c3.1-4,7.4-7.2,11.6-10.2c10.4-7.4,10.4-13.2-0.5-21c-27.9-20-55.4-40.6-82.4-61.7
			c-10.6-8.3-17.7-8.4-28.1,1.4c-43.6,41.4-88.3,81.5-132,122.8c-5.3,5-18.6,7.6-13.2,18.3c4.4,8.7,15.1,9.8,25.1,9.7
			C1124.2,1183,1147.4,1183.2,1170.6,1183.2z M1590.7,371.6c-53.4-5.6-99.3-10.4-145.2-15.4c-8.5-0.9-14.7,2.3-20.6,7.9
			c-19.3,18.3-38.6,36.6-58.4,54.1c-9.2,8.1-10.5,13.6,0.3,21.6c24.8,18.3,49,37.4,73.2,56.6c6.6,5.2,11.4,5.3,17.7-0.6
			C1500,456.1,1542.5,416.5,1590.7,371.6z M500.4,414.3c2.8,4.2,3.1,5.1,3.8,5.6c22.6,17.1,45.1,34.3,67.8,51.3
			c48.5,36.3,48.4,36.2,92.7-4.8c34.4-31.8,69-63.4,103.5-95.1C676.7,376.3,588.7,391.7,500.4,414.3z M846.1,355.9
			c45.4,35.4,85.2,66.4,124.9,97.5c5.6,4.4,10.4,5.1,15.8,0c37.7-35.7,75.5-71.4,118-111.6C1016.1,342,934.6,347.2,846.1,355.9z
			 M786.6,1183.2c71.2,0,134.3,0,197.5,0c6,0,12.9,0.2,14.5-7.1c1.3-6-5.1-8.3-9-11.2c-30.2-22.6-60.7-44.7-90.6-67.7
			c-8.5-6.5-14.1-6.3-21.8,1.1C849.4,1125,821,1151.1,786.6,1183.2z M1541,574.1c30.8-73.3,76.2-133.7,137.9-186.9
			c-18.8-4.3-31.8-9.7-44.9,2.7c-49.2,46.6-98.7,92.8-149.6,140.6C1503.5,545.2,1521.5,559,1541,574.1z M1250.4,342.9
			c-0.5,1.8-0.9,3.6-1.4,5.4c20.3,15.5,40.8,30.8,60.7,46.8c6.1,4.9,10.7,7.7,17.4,1.2c14.5-14.2,29.3-28,48.7-46.4
			C1329.8,347.3,1290.1,345.1,1250.4,342.9z M1450.3,1182.5c-24.3-18.2-42.7-31.9-61-45.7c-5-3.7-10.3-8.1-15.8-2.1
			c-14.6,15.8-34.5,26.5-47,47.8C1367.3,1182.5,1404.9,1182.5,1450.3,1182.5z M1506.2,770.5c-19.3,17.5-34.2,31.3-49.5,44.6
			c-6.6,5.8-7.5,10.1,0.2,15.9c20.4,15.4,40.4,31.2,63.1,48.8C1515.3,843,1505.8,810.7,1506.2,770.5z"/>
		<path class="st0" d="M775.1,1917.6c-45.3-0.1-80.4-38.2-79.6-86.3c0.7-45.8,37.6-84.4,80.4-84.1c42.8,0.3,79.3,39.1,79.7,84.9
			C856,1880,820.5,1917.8,775.1,1917.6z M812.6,1833.3c0.3-24-17.4-41.8-42-42.2c-15.1-0.2-32.5,22.3-32.4,42.2
			c0,22.2,17.4,41.7,37.2,41.7C795.3,1875,812.3,1856,812.6,1833.3z"/>
		<path class="st0" d="M1883.6,1816.1c-0.1-47.3,34.3-84.3,78.5-84.6c44.8-0.3,82.1,38.4,81.8,85.2c-0.3,45.5-37.2,86.5-79.4,85
			C1917.9,1899.8,1883.5,1864.5,1883.6,1816.1z M1999.1,1817.8c0.4-24-14.1-42.7-34.3-43.9c-19.6-1.2-38.1,18.1-38.7,40.4
			c-0.6,23,15.1,41.9,35.6,42.9C1983.7,1858.2,1998.7,1842.4,1999.1,1817.8z"/>
		<path class="st0" d="M1249,1893.9c0.4,47.3-33.4,85-77.1,85.8c-45.6,0.9-82.1-35.9-82.8-83.6c-0.7-46.3,37.1-87,80.5-86.8
			C1213.1,1809.5,1248.5,1847.3,1249,1893.9z M1132.9,1895.2c0.1,23.3,16.5,42.1,36.6,41.9c19.9-0.2,37-19.7,37-42
			c0-22.7-17-41.8-37.1-41.8C1149.2,1853.3,1132.9,1872,1132.9,1895.2z"/>
		<path class="st0" d="M2227.7,1639.1c-44,0.5-79.6-36.1-80.5-82.9c-1-48,34.3-87,79-87.3c42.5-0.3,80.1,38.4,81.3,83.7
			C2308.7,1599.9,2273,1638.6,2227.7,1639.1z M2227.3,1512.7c-19.8-0.4-37.7,19-37.7,41.1c0,22.1,17.1,41.9,36.8,42.6
			c20.2,0.7,37.3-18.2,37.5-41.1C2264,1532.7,2247.2,1513.2,2227.3,1512.7z"/>
		<path class="st0" d="M1511.6,1888.9c-0.3-47.4,33.8-84.6,78-85.2c45-0.5,82.3,37.8,82.4,84.7c0.1,45.4-36.6,86.6-78.8,85.5
			C1546.9,1972.6,1511.8,1937.7,1511.6,1888.9z M1627.1,1890.1c0.4-24-14.2-42.6-34.4-43.9c-19.7-1.2-38.1,18-38.6,40.4
			c-0.6,23.1,15.1,41.9,35.6,42.8C1611.7,1930.5,1626.7,1914.7,1627.1,1890.1z"/>
		<path class="st0" d="M609.7,1646c0.6,47-34.2,85.1-78.2,85.9c-44.5,0.7-80.2-35.5-81.4-82.7c-1.3-47.5,34.9-87.4,79.5-87.6
			C573.3,1561.4,609.2,1599.2,609.7,1646z M566.2,1647c-0.1-23.6-16-41.7-36.3-41.6c-20.4,0.1-35.9,18.2-36,41.9
			c0,22.5,17,42.2,36.3,42.1C549.4,1689.2,566.3,1669.4,566.2,1647z"/>
		<path class="st0" d="M1950.3,889.3c-67-0.2-118.9-52.4-118.6-119.5c0.3-67,52.3-118.3,119.8-118.2
			c67.1,0.1,118.9,52.3,118.6,119.4C2069.9,837.9,2017.7,889.5,1950.3,889.3z M2027.8,771.3c0.7-41.9-34.5-77.6-76.5-77.8
			c-41-0.2-75.7,33.4-77.1,74.6c-1.5,41.7,33.1,78,75.3,79.1C1991.2,848.3,2027.1,813.5,2027.8,771.3z"/>
	</g>
</g>
</svg>
