<?xml version="1.0" encoding="utf-8"?>
<!-- Generator: Adobe Illustrator 23.0.0, SVG Export Plug-In . SVG Version: 6.00 Build 0)  -->
<svg version="1.0" xmlns="http://www.w3.org/2000/svg" xmlns:xlink="http://www.w3.org/1999/xlink" x="0px" y="0px"
	 viewBox="0 0 3000 3000" style="enable-background:new 0 0 3000 3000;" xml:space="preserve">
<style type="text/css">
	.st0{stroke:#000000;stroke-width:10;stroke-miterlimit:10;}
</style>
<g id="Layer_1">
</g>
<g id="Layer_2">
	<g>
		<path class="st0" d="M2521.9,1490.7c35.9,36.7,68.4,74.3,94.3,117c63.6,104.8,97.2,217.1,82.4,340.8
			c-18.1,151-98.3,259.6-231.8,327.9c-130,66.5-269.5,89.1-413.7,67.5c-114-17.1-242.9-79.2-329.7-259.2
			c-43.3,64.3-80.3,129.1-112.5,196.6c-32,67-57.4,136.7-84.8,207.7c-56.5-193.4-141-371.9-261.8-531.1c-7.6-0.8-9.2,3.5-10.6,7.3
			c-78.9,216.3-201.9,305.4-431.2,310.9c-94.9,2.3-188.3-8.1-278.6-39.2c-243.1-83.8-350.7-299.2-271.4-544
			c30.3-93.7,82.4-173.8,153.7-241.6c10.9-10.4,21.9-20.6,36.1-33.8c-115-35.2-230.5-47.9-345.9-66.3
			c146.2-24.7,293.7-40.9,440.2-75.8c-9.9-16-26.1-23-39-33.4c-78.8-63.3-139.5-138.8-164.8-239.1C324,888.4,349,782.8,421,693.7
			c170.9-211.5,392.5-307.6,663.5-254.1c183.9,36.3,302.9,158.8,376.3,327.9c4.3,9.8,8.1,19.8,14.1,34.2
			c82.7-106.9,137.8-224.2,188.1-353c27.5,65.3,48.5,125.7,79.1,183.2c11.7-3.4,15-14.6,21.1-22.2c94.5-116.4,211.3-200.4,359.3-231
			c207.7-43,399.6-9.4,558.9,140.3c97.2,91.3,166.1,201.4,177.4,337.8c15.5,188.6-86,354.9-263,439.9c-12.4,6-25,11.6-43.9,20.5
			c65.1,22.2,126.1,34.3,187.3,44.4c47,7.7,94.4,13.2,142.2,14.4c16.4,0.4,35.9-3.6,35.7,24.7c-0.2,28.6-20.8,19.4-34.5,20.2
			c-119.5,7.4-236.1,29.7-350.5,64.5C2529.5,1486.2,2527,1488,2521.9,1490.7z M1661.7,563.1c-10.6,22.3-18.6,39.8-27.2,57
			c-130.4,263.3-320.9,463.1-600.1,570.2c-134,51.4-273.9,80.5-412.8,113.7c-37.9,9.1-76,17.2-114.1,25.1
			c-37.8,7.8-75.9,14.7-113.8,22c260.8,66.8,495.5,180.5,696.8,358.9c202,179,346.6,396.8,436.4,654.4
			c226-525,615.1-846.1,1172.9-965.3C2212.6,1295.6,1870,1017.8,1661.7,563.1z M2266.4,404c-222.4-2.2-395.3,122.7-488.6,255.9
			c-9.6,13.8-9.8,23.2-1.5,37.4c145.9,251.4,351.4,435.9,613.4,561.9c78.8,37.9,143,27.4,213-12.5
			c218.5-124.4,280.3-371.8,144.6-582.9C2633.3,486.6,2470.3,402,2266.4,404z M945.9,465c-177.1,4.4-338.5,77.5-465.9,220.6
			c-125.1,140.6-129,309.8-14.2,448.8c37.6,45.5,83.4,81.6,132.5,114.1c14.1,9.4,26.9,12.2,42.3,8.5c78.8-19.3,158-37.1,236.3-58.3
			c213.9-58,402.2-159,547.1-331.3c10.6-12.6,19.3-22.5,13.4-42.6C1374.4,611.6,1180.5,464.5,945.9,465z M2172.1,2308.5
			c51.8,2,116.7-10,179.7-29.9c156-49.2,273.5-139.9,301.5-310.5c29.6-180.4-39.8-328.3-166.7-453.3c-12.4-12.2-23.1-7-35.3-2.4
			c-276.9,103.8-504.8,273.2-683.6,509c-12.1,16-13.2,28.3-5.3,46.4C1832.5,2227.1,1979.2,2317.2,2172.1,2308.5z M805.4,2234.6
			c13,0,26,0.2,39,0c184.3-3,321.5-109.6,371.5-287.4c7.2-25.7,5.9-45-13.6-67.1c-183-206.7-405-353.4-666.7-441
			c-16.7-5.6-27.7-3.1-41,7.5c-95.3,76.2-161.6,171.7-191.4,290.3c-53.7,213.4,44.5,390.1,253.1,460
			C637.2,2224.2,720.4,2235.5,805.4,2234.6z"/>
		<path class="st0" d="M794.4,1398c392.9-35.5,690.9-214.4,877-569.7c93.4,372.9,240.2,493.5,656,537.1
			c-41.4,15.1-78.9,16.4-114.9,22.2c-338.7,54.8-565.5,244-683.3,565.3c-4.7,12.8-6.1,27.2-18.8,41.1
			C1419.2,1618,1172.1,1431.4,794.4,1398z M2081.5,1371.1c-105.3-32.8-195-83-269.6-158.2c-74.7-75.2-125.6-164.4-157.6-270.2
			c-150.3,233.3-357.2,382.8-628.1,456.8c119.2,38.7,218.1,94.9,302.6,175.5c84.6,80.7,145.1,177.4,188.1,290.7
			C1632.9,1616.2,1818.4,1453.5,2081.5,1371.1z"/>
		<path class="st0" d="M2319.7,999c-56,1.3-104.3-14.7-144.1-52.4c-63.7-60.5-60.3-152.7,8.8-207.2c70.9-55.9,167.5-60.9,243.3-15.9
			c101.3,60.2,102.2,184.4,1.7,246.1C2395.4,990.4,2358.2,1000.7,2319.7,999z M2317.6,735.7c-38.9,0.3-74.6,10-105.5,34.8
			c-51.5,41.3-53.9,104.1-5.5,148.5c59.5,54.5,167.9,52.6,225.8-3.9c39.3-38.4,40.8-93.8,2.6-133.3
			C2403.1,748.8,2362.7,735.8,2317.6,735.7z"/>
		<path class="st0" d="M893.3,1032.1c-62.3,0.9-115.6-13.8-161.1-50.9c-70.5-57.5-71.2-144.9-2.5-204.2
			c83.3-71.9,238.9-71.9,322.3,0c67.8,58.4,68,144.2-0.2,202.1C1005,1018.8,949.6,1033.5,893.3,1032.1z M892.1,992.1
			c50.3-1.7,98-12.8,136.9-48.4c42.9-39.3,43.1-90,1.4-130.2c-68.7-66.1-212.1-65.6-280.3,1c-40.2,39.3-40.2,89.7,1.1,128
			C790.6,979.2,839.2,990.8,892.1,992.1z"/>
		<path class="st0" d="M2219.3,1784.9c36.5,0.7,91.3,14.8,135.7,55.9c58.6,54.2,56.3,132.5-4.1,184.6
			c-80.6,69.6-230.5,69.7-310.8,0.3c-61.5-53.1-62.7-131.9-2.8-187C2075,1804.3,2133,1784.6,2219.3,1784.9z M2196.4,2036.1
			c46.4-1.4,90.2-11.3,126.8-41.9c42.8-35.8,43.8-85.6,3.2-123.5c-64-59.7-196.4-60.1-261.3-0.7c-42.4,38.8-41,88.9,3.9,125.4
			C2106,2025.6,2149.8,2035.5,2196.4,2036.1z"/>
		<path class="st0" d="M757.4,1727c72.7,4.3,142.1,21.2,195.9,77.3c56.5,58.9,55.8,139-0.9,197.9c-69.8,72.5-209.9,97.6-312.6,55.9
			c-20-8.1-39.6-17-57.5-29.4c-98.6-68.5-98.3-185.3,1.3-252.8C635.4,1740.9,694,1728.1,757.4,1727z M750.3,2036.1
			c59.9-1.3,110.7-13.8,154.7-47c64.6-48.7,64.9-122.8,1.1-172c-81-62.5-222.2-63.8-304.9-2.8c-68.9,50.8-68.3,127.6,1.6,177.9
			C648.5,2025,700.8,2035.9,750.3,2036.1z"/>
	</g>
</g>
</svg>
