<?xml version="1.0" encoding="utf-8"?>
<!-- Generator: Adobe Illustrator 23.0.0, SVG Export Plug-In . SVG Version: 6.00 Build 0)  -->
<svg version="1.0" xmlns="http://www.w3.org/2000/svg" xmlns:xlink="http://www.w3.org/1999/xlink" x="0px" y="0px"
	 viewBox="0 0 3000 3000" style="enable-background:new 0 0 3000 3000;" xml:space="preserve">
<style type="text/css">
	.st0{stroke:#000000;stroke-width:10;stroke-miterlimit:10;}
</style>
<g id="Layer_1">
</g>
<g id="Layer_2">
	<g>
		<path class="st0" d="M420,1806.3c-79.5-97.4-129.7-208.5-146.5-331.4c-47.8-348.1,37.7-660.2,268.2-927.6
			C710.3,351.8,920,220,1174.1,165.4c156.8-33.7,315.5-38.6,473.3-9.4c207.4,38.3,369.5,142.4,464.3,338c20.5-8.1,32.5-25,48.1-37.1
			c131.5-102.1,278.7-146,443.1-110.4c213.1,46.1,354.7,248.9,342,480.9c-6.5,119.4-44.2,226.7-118.5,320.6
			c-9.5,12-18.5,22.7-13.9,40.4c29.6,115.1,16.6,230.6-2.3,345.1c-25.5,155-53.5,309.5-101.7,459.7c-8.9,27.7-2.6,60.1-5.5,90
			c-38.1,392.9-392.5,613.3-761.5,472.2c-32.9-12.6-40.9-5.4-52.3,23.8c-34.4,88.4-78.3,116.6-172.5,117.1
			c-67.2,0.4-134.1-0.9-190.3-46.2c-6.3-5.1-12.4-6.8-20.8-4.2c-84.4,26.1-158.6-2.2-229.8-44.3c-12.9-7.6-21.6-11.6-36.5-1.5
			c-116.3,79.2-248.5,90.9-383.4,84.2c-115.2-5.7-222.2-41.9-321.7-99.8c-18.7-10.9-27-12.5-38.7,10.8
			c-29.7,59.4-90.1,78.7-165.7,58c-148.4-40.7-239.2-175.5-236.7-342.4c3-199.7,105-341.5,256.8-456.1
			C372.1,1838.1,395.4,1823.2,420,1806.3z M1146.3,2020.6c32.8,0,65.5,0.5,98.3-0.1c238.3-4.3,441.8-87.3,592.3-276
			c151.2-189.6,238.2-410,286.7-646c25.1-122.5,13.6-245.9,0.7-369c-25.4-242.1-151.8-425-386.1-500
			c-191.1-61.2-386.3-57.1-578.7-11.1C613,349.2,243.5,885.1,317.3,1441.3c34.4,259.3,176.3,439.3,426.4,528.1
			C874.1,2015.7,1009.8,2021.9,1146.3,2020.6z M2651.6,2100.2c-40.7,45.4-81.8,78-133.3,95.2c-193.8,64.8-369.6-52.7-386.1-261.1
			c-16.2-203.8,32-396,122.7-576.6c72.5-144.4,194.2-236.1,347.8-283.4c56.3-17.3,114-15.9,159.2,29.1c19.9,19.8,28.4,14.6,41.8-4.5
			c74.2-105.8,104.7-223.5,89.6-350.9c-14-118.3-63.1-219.9-161.4-292.8c-164.4-121.9-426.2-86.2-586,78.9
			c-10.6,10.9-10.1,20.9-6.7,34c69.8,265.8,65.7,528.1-36.9,785.9c-65,163.1-134.1,324-256.9,453.9c-19.9,21-20.9,37.9-11.2,63
			c22.7,58.6,56.8,112.4,73.5,173.6c10.8,39.5,21.4,80.6-3.1,116.8c-15.1,22.3-16.8,43-14.3,67c5.4,53.5,13.6,106,11.2,161
			c-4.2,98,8.5,108.2,103.3,137.1C2313.5,2620.8,2622.3,2420.4,2651.6,2100.2z M2721.1,1744.2c-9.3,7-15.3,11.3-21.1,15.8
			c-57,43.7-116.3,50-171.4,15.9c-57.2-35.4-74.2-89.2-64.8-153.2c1.7-11.9-2.4-31.5,18.9-28.3c18.7,2.8,34.2,8.6,28.8,36.8
			c-8.3,43.9,4,82.8,46.7,106c44.8,24.4,87.6,12.8,130.9-33c48.2-51.1,66-113.3,74.2-181.3c12.5-103.8,32-207.2,4.8-311.3
			c-22.5-85.9-74.6-116.8-158.3-89.5c-106.4,34.7-200.6,92-264.8,185.1c-126.7,183.8-172.4,391.9-165.6,612.1
			c2.1,67.1,23,130.9,73,181.8c85.2,86.6,297.9,100.1,385.7-71.9C2683.3,1940.3,2699.7,1843.9,2721.1,1744.2z M905.9,2639.8
			c45-4.4,90.4-6.7,135.1-13.7c127.6-20.2,229.8-76.5,271.8-207.8c33.3-104,17.6-205.9-19.3-306.8c-12.2-33.3-27.7-45.7-64.8-44.2
			c-164,6.6-327.8,5.2-486-47.2c-21-6.9-26.5,5.7-35.7,17.3c-107.9,136.1-161.8,293.8-185.6,463.7c-2.6,18.2,6.4,24.6,18.9,31.9
			C653.2,2599,773.5,2639,905.9,2639.8z M141.7,2256.4c-1.1,179.5,44.3,277.6,161,334.8c99.3,48.6,155.3,22,169.8-86.5
			c23.9-179.2,79.2-345.2,191-489.5c12.4-16,8.5-22.3-8.1-29.5c-53.3-23.3-102.1-54.4-147.1-91.3c-61.7-50.7-62.3-51.3-127.3-2.4
			C241.2,1997.2,141.9,2126,141.7,2256.4z M1767.9,2380.3c15.9,0,26,0.5,36.1-0.1c26.1-1.4,57.3,3.1,52.6-39.1
			c-4-36.3-9.5-72.4-13.3-108.7c-1.8-16.9-8.8-20.9-24.9-16.9c-27.2,6.7-55.2,2.2-82.9,3.1c-22,0.8-19.2-13.5-20.4-27.5
			c-1.4-16.6,5.6-23.2,21.5-22.5c11.3,0.5,22.7,0.6,34,0.7c92.2,1.2,118.8-33.1,87.7-119c-19.7-54.2-46.2-105.9-67.9-159.4
			c-8.6-21.2-16.6-11.7-26.7-3.3c-41.8,34.8-86.4,65.8-135.5,89.1c-23.6,11.2-25.7,23.3-18.7,46.4c37.6,123.5,48.3,249.7,29.8,377.6
			c-10.4,71.9-15.8,146.2-68.5,204.3c-14.6,16.1,2.9,18.5,11.5,22.4c55.9,25.5,114.9,23.8,174.2,18.7c25.5-2.2,45.4-14.7,60.2-35
			c32.3-44,48.5-93.1,47.1-148.2c-0.7-29-8.8-43.5-42-34.5c-16.3,4.4-36.6,4.5-52.2-1.2c-18.6-6.8-55.4,13.9-53.8-26.7
			C1717.7,2353.1,1754.8,2387.9,1767.9,2380.3z M1600.7,2284.1c-3.1-83.3-12.8-164.2-35.2-243.6c-7.2-25.5-16.5-27.9-39.4-19
			c-54.2,21.1-111.1,33.3-168.9,38.1c-28.4,2.4-29.1,10.9-20.1,34.9c57.2,153.8,67.5,304.6-35.3,445.9c-10.3,14.2-3.3,19.2,7.7,25.4
			c26.4,14.9,53.9,27.2,83.4,34.8c93.6,24.1,154.8-11.4,179.9-104.5C1591.7,2426.3,1596.8,2354.7,1600.7,2284.1z"/>
		<path class="st0" d="M2015.7,980.9c-6.5,208.3-54.2,425.8-176.4,623.5c-210.2,339.9-586,381.5-845.7,301.7
			c-130.7-40.1-226.4-122-251.7-264.2c-16.5-92.9,2.1-182.9,38.3-269.4c5.9-14,15.6-26,0.2-43.6c-142.6-162.9-148-372.4-34.2-557.3
			c115.7-188.1,282.3-300.8,503.9-327.6c39.2-4.7,78.8-4.9,116.5,4.9c41,10.7,78.1,4.4,117.5-7.5c78.1-23.5,158.1-30.4,239-13.9
			c142.3,29,245.4,142.1,271.2,299.6C2007,804.2,2014.3,882,2015.7,980.9z M1290,490.9c-244.1,2.6-490.3,191.8-558.3,431
			c-34.7,122.3-16,237.3,57.7,341.5c58.5,82.7,137.5,139.9,231.8,174.9c188.7,70,365.8,46.5,521.9-81.5
			c150.1-123,218.7-282.8,187.2-478.7C1694.2,653.2,1506.2,488.7,1290,490.9z M1498.8,487c15.2,9.1,22.7,13.5,30.1,18
			c221.4,132.8,316,412,220.8,652.1c-143.1,361.1-573.5,479.1-893.1,245.3c-8.3-6.1-16.7-28.6-32.3-8.7
			c-13.7,17.5-2.9,28.3,12.2,38.9c163,114.8,340.1,186.8,543.4,173.2c154.5-10.4,276.7-78.9,358.1-213.4
			c50.3-83,76-174.6,94.8-269.1c40.6-203.8,31.1-403.2-44-598.3c-8.5-22.1-20.1-35.3-43.1-41.7C1665.8,460.8,1586.8,465,1498.8,487z
			 M1351.9,1771.2c0-31.4-0.5-62.9,0.2-94.3c0.4-16-6.8-23.9-21.7-22.8c-66.1,4.8-129.9-8-193.2-24.5c-18.4-4.8-27.4-0.5-32.5,18.3
			c-17.8,65.3-35.3,130.8-56.1,195.1c-7.8,24.1-0.6,30.8,20.7,34.5c60.9,10.4,122,17.5,183.9,13.4c98.7-6.7,98.7-6.8,98.7-104.5
			C1351.9,1781.3,1351.9,1776.2,1351.9,1771.2z M807.6,1471.7c-13-0.6-11.8,10.7-13.8,18.1c-40,149.3,26.4,287.3,167.6,352.8
			c24.7,11.4,35.6,11,43-18.3c16-63.4,34.3-126.3,54.4-188.4c7.4-22.7,1.5-30.4-19.2-38.1c-76-28.1-146.4-67.2-212.9-113.3
			C820.5,1480.3,814.2,1476.1,807.6,1471.7z M1400.7,1758.4c-0.5,0-0.9,0-1.4,0c0,25.2,2.2,50.6-0.5,75.4
			c-3.9,35.7,12.3,35.7,38.7,27.2c63.8-20.6,124.3-47.4,179.1-86.6c54.5-39,54.5-38.7,40.7-102.8c-5.1-23.3-10.7-46.6-14-70.2
			c-3.2-23.3-9.6-30.8-32.4-15.7c-35.8,23.7-76.5,37.3-117.3,50.4c-30.6,9.8-75.1,0.5-89.8,26
			C1389.6,1686.6,1400.7,1725.7,1400.7,1758.4z M1916.6,1310.1c34.6-124.3,53.2-246.4,49.3-371.5c-3.3-104.5-8.9-208.9-53.1-306.4
			c-13.6-30.1-29.4-59.1-63.2-83.4c22.9,73.9,38.7,142.1,47.7,211.9c20.8,161.2-0.6,318.7-41.1,474.4c-5.7,21.9-5,35.5,16.1,46.3
			C1886.6,1288.6,1899.4,1298.8,1916.6,1310.1z M1711.1,1689.2c42.4-41.7,72.9-85.5,99.6-132.3c2.3-4,4.2-10.7,2.4-14.1
			c-15.9-29.8-27.7-64.8-51.6-86c-9.6-8.5-28.2,31.8-46.6,46.1c-8.9,6.9-16,16-24.3,23.6c-8.3,7.5-10.6,15.5-8,26.8
			C1692.3,1596.9,1700.9,1640.6,1711.1,1689.2z M1846.4,1493.4c11.2-25.1,20.8-45.3,29.3-65.9c30.7-74.5,30.6-74.6-42.9-111.2
			C1784.6,1400.7,1784.6,1400.7,1846.4,1493.4z"/>
		<path class="st0" d="M925.4,2537.3c-84.6-0.9-149-65.6-147.2-148c1.7-80.3,67.9-145.7,148-146.2c82.1-0.4,146.2,66.1,148.1,149.1
			C1076.2,2470.8,998.2,2547.4,925.4,2537.3z M1026.5,2390.1c-0.9-55.2-47.4-99-103.4-97.4c-55.1,1.6-96.3,45.1-95.4,100.7
			c0.9,56.4,46.3,99.8,102.6,97.9C984,2489.5,1027.4,2443.9,1026.5,2390.1z"/>
		<path class="st0" d="M1185,1159.4c43,49.6,49.6,91.1,24.2,127.6c-23.9,34.4-65.3,47.5-103.3,32.8c-38.6-15-61-51.9-56.3-92.8
			c5.1-44.1,35.6-70.7,88.7-77c-0.7-2-0.8-5-2.2-5.9c-74.1-49.5-83.9-101.2-32.8-174.2c25.8-36.9,58.5-66.1,99.2-85.3
			c43.5-20.5,88.1-26.5,128.1,6.5c40.9,33.8,57.6,79.6,49,131.8c-12.2,74.2-80,132.2-155.9,136.5
			C1212.6,1160,1201.5,1159.4,1185,1159.4z M1216.8,1110.2c44.1-0.7,86-26,106.8-68c17.6-35.6,9.4-85.8-19.9-110.9
			c-30.3-26-61.4-14.1-90.7,2.3c-33.4,18.7-60.4,44.5-78.9,78.6c-25.1,46.4-16.2,71.7,32.7,90.6
			C1181,1108.2,1195.6,1111.7,1216.8,1110.2z"/>
		<path class="st0" d="M1513.3,777.5c-0.3,50-39.8,88.1-89.8,86.8c-46.9-1.2-86.6-41.9-86.1-88.1c0.5-48.2,41.7-87.2,91.2-86.2
			C1477.2,690.9,1513.6,728.6,1513.3,777.5z"/>
	</g>
</g>
</svg>
