<?xml version="1.0" encoding="utf-8"?>
<!-- Generator: Adobe Illustrator 23.0.0, SVG Export Plug-In . SVG Version: 6.00 Build 0)  -->
<svg version="1.0" xmlns="http://www.w3.org/2000/svg" xmlns:xlink="http://www.w3.org/1999/xlink" x="0px" y="0px"
	 viewBox="0 0 3000 3000" style="enable-background:new 0 0 3000 3000;" xml:space="preserve">
<style type="text/css">
	.st0{stroke:#000000;stroke-width:10;stroke-miterlimit:10;}
</style>
<g id="Layer_1">
</g>
<g id="Layer_2">
	<g>
		<path class="st0" d="M447.1,1502.9c0-212.4-4.1-424.9,1-637.1c8-334.7,166-578.5,463.4-730.7c107.4-55,223.6-78.7,344.1-79.1
			c152.9-0.5,305.7-0.5,458.6-0.1c422.9,1.1,771.3,320.3,809.2,741.4c3.1,34.7,4.8,69.6,4.8,104.4c0.3,406.3,3,812.6-0.6,1218.9
			c-3.1,348-162.9,602.6-475.7,757.7c-98.6,48.9-205,72-315.1,72.9c-177.5,1.5-355.1,6.1-532.4-1.8
			c-362.1-16.1-686.9-308-744.8-665.6c-8.6-52.8-12.8-105.7-12.7-159.2C447.3,1917.4,447.1,1710.1,447.1,1502.9z M1418.2,2899.7
			c116.8,0,229.3-0.1,341.9,0.1c13.8,0,19.2-9.8,25.4-19.3c24.1-36.9,46.5-74.8,65.7-114.5c93.5-193.4,127.5-396.6,99.5-609.9
			c-1.8-13.5-3.6-23,15.9-28.7c33.8-9.9,35,9.5,37.6,32.3c22.7,204.2-4.5,400.8-88.1,589.1c-20.7,46.7-45.2,91.5-73.7,139.2
			c45.3-5,80-9.9,102.8-55.4c112.8-224.9,166.1-461.8,152.5-713.1c-1.4-26.4,5.2-32.7,30.5-33c23.6-0.3,21,14.1,21.7,27.6
			c10.9,197-19.2,387.9-85.9,573.4c-18.8,52.3-43,102.4-67.9,159.2c18.9-8.3,31.2-12.9,42.8-18.8c285.3-146.8,433.9-381,436.6-701.5
			c3.5-414.5,0.9-829,0.7-1243.6c0-43.1-3.4-86-8.9-128.8c-43.7-335.4-346.8-621.7-684.3-642.6c-180.3-11.2-361.2-9.2-541.4-3
			C823.5,122.7,500.9,451,498.2,862.9c-2.7,427.8-1.8,855.7,0,1283.6c0.8,184.1,64.5,346.6,182.5,488.3c18.9,22.6,25.9,18.7,38-5
			c84.3-164.2,123-338.2,114.4-522.4c-0.9-20.4,4-27,24.9-26.7c18.4,0.2,26.4,1.8,27.2,24c7.3,192.5-31.3,374.5-119.8,545.8
			c-25.2,48.8-23.8,47.7,18.5,84.2c20.8,18,28,14.8,40-8.7c111.3-219.4,163.1-451.8,155.2-697.6c-0.5-14.1-9.6-33.1,19.9-34
			c26.2-0.8,32,7.9,32.7,32.7c2.8,100.9-5.5,200.9-21.5,300.1c-24.4,152-75.5,295.4-146.5,431.6c-9.6,18.4-8.8,27,10.1,37.7
			c91.2,51.7,187.8,85.7,292.1,99.1c24.9,3.2,36.9-5.1,49.3-24.5c70-109.7,123.1-226.6,156.2-352.6c31-118.1,42.7-238.1,35.6-359.7
			c-1.6-27.9,11-31.7,33.1-33.2c30.2-2.1,16.9,20.6,17.5,31.6c14.8,258.8-49.2,497.6-184.6,717.9c-4.4,7.2-13.2,13.4-9.1,25.1
			c25.6,0,51.3-0.8,76.9,0.3c14.4,0.6,22-4.7,28.2-17.6c31.5-65.7,58.7-133.1,82-202.1c65.8-194.9,88.8-395.5,78.7-600.1
			c-1.4-28.2,14.8-24.9,31.5-27.9c22.8-4.1,18.9,11.6,19.6,24.3c12.6,240.7-21.4,473.9-109.7,698.9
			C1455.2,2816.6,1437.2,2856.4,1418.2,2899.7z"/>
		<path class="st0" d="M1486.5,1211.1c-159.6-3.8-299.8-54.8-409.9-174c-158.7-171.9-154.9-420.2,7.6-589
			c208-216,584.9-219.8,797.5-8.1c198.3,197.5,169.4,502.6-63.1,667.2C1723.5,1174.7,1606.1,1211.4,1486.5,1211.1z M1486.3,1159
			c98.8,0.4,190.6-23.9,275.2-75.3C1990,944.9,2030,662.2,1847,477.8C1652.7,282,1302.7,288,1115.5,490.2
			C981.6,634.8,976.3,841.8,1104.7,991C1204.8,1107.2,1335.5,1156.8,1486.3,1159z"/>
		<path class="st0" d="M1377.1,1305.7c43.8-0.7,80.1,35.2,80.4,79.3c0.2,42.6-34.2,78.8-76.5,80.4c-42.7,1.6-81.1-34.8-82.4-78
			C1297.3,1344.3,1333.7,1306.4,1377.1,1305.7z"/>
		<path class="st0" d="M1765.3,1442.8c-45.2,0.7-80-33.1-80.4-78c-0.3-45,33.8-79.6,78.8-79.7c43.2-0.1,78.2,33.5,79.8,76.5
			C1845.1,1405.3,1809.6,1442.1,1765.3,1442.8z"/>
		<path class="st0" d="M2014,1305.5c-44.2-0.2-79-36.2-78.4-81c0.6-43.3,34.8-78,77.7-78.7c43.9-0.7,79.8,35,79.9,79.6
			C2093.4,1270.1,2058.1,1305.8,2014,1305.5z"/>
		<path class="st0" d="M1170.3,1264.3c-0.6,44.5-36.6,79.3-81,78.3c-44.4-1-78-36.9-76.8-82.2c1.2-42.9,37-77.9,79.2-77.5
			C1135.4,1183.2,1170.9,1220.1,1170.3,1264.3z"/>
		<path class="st0" d="M976.1,1080.4c-0.8,38.1-33.5,69.8-71.5,69.1c-38.4-0.7-69.6-32.9-69.1-71.3c0.5-38.9,31.6-68.6,71.2-68.1
			C945.4,1010.5,976.8,1042.4,976.1,1080.4z"/>
		<path class="st0" d="M2092.4,505.3c-39.2-0.1-69.5-30.5-69.5-69.9c0-38.5,31.6-70.5,69.6-70.4c38.2,0.1,69.9,32,69.9,70.4
			C2162.4,473.9,2131,505.3,2092.4,505.3z"/>
		<path class="st0" d="M2216,1052.1c-0.1,39.8-30.6,69.8-70.4,69.3c-38.4-0.5-67.8-29.9-68.4-68.3c-0.6-39.1,30.4-71.3,68.9-71.6
			C2184.5,981.1,2216.1,1013,2216,1052.1z"/>
		<path class="st0" d="M1989.6,240.3c39.5,0.5,70.4,32.1,69.1,70.7c-1.2,37.5-32.3,67.5-70,67.7c-39.3,0.2-70.2-30.8-70.1-70.3
			C1918.8,268.7,1948.9,239.8,1989.6,240.3z"/>
		<path class="st0" d="M837.7,963.6c-39.3,0.3-70.2-30.5-70.3-69.9c0-38.5,29.1-68.1,67.5-68.7c39.9-0.7,71.6,28.9,72.5,67.5
			C908.3,930.7,876.3,963.3,837.7,963.6z"/>
		<path class="st0" d="M2178.1,894.6c-39.6,0.6-70.3-29.7-70.4-69.3c0-38.5,29-68.5,67.2-69.5c39.7-1.1,71,28.5,71.7,67.9
			C2247.3,863.4,2217.8,894.1,2178.1,894.6z"/>
		<path class="st0" d="M2077.2,609.3c0.3-39.5,31.2-69.5,70.8-68.8c39.6,0.8,69.1,31.8,68,71.6c-1,38.2-30.9,67.2-69.3,67.3
			C2107.2,679.4,2076.9,648.9,2077.2,609.3z"/>
		<path class="st0" d="M958.4,512c-0.5,32.1-29.5,60.8-61.6,60.9c-33.7,0-62.6-30.1-61.3-63.8c1.3-32.8,30-59.9,62.7-59.1
			C930.7,450.9,958.9,479.9,958.4,512z"/>
		<path class="st0" d="M1046.2,369c-0.2,33.4-27.1,60.8-60,61c-32.6,0.2-60.5-27.3-61-60.1c-0.6-35.5,26.3-62.4,61.7-61.7
			C1021.4,308.9,1046.4,334.5,1046.2,369z"/>
		<path class="st0" d="M846.5,609.7c33.7-0.1,60.7,26.4,60.9,59.6c0.2,32.6-27.3,60.7-60.1,61.3c-34.4,0.7-62-27.1-61.8-62.2
			C785.7,634.4,811.3,609.8,846.5,609.7z"/>
		<path class="st0" d="M1494.4,409.7c118.1,2.9,222.7,46.6,301,144.3c117.4,146.3,88,354.4-65.4,471.1
			c-128,97.4-315.7,107-451.1,20.7c-111-70.8-173.2-170.9-166.4-305.3c6.6-131.6,77.6-223.4,190.3-285.3
			C1358.9,424.4,1424.1,409.8,1494.4,409.7z M1617.4,1030.5c107.9-48.8,177-121,194.9-232.4c12-74.7-4.4-144.6-55.9-208.2
			C1709.7,737.8,1664.7,880.6,1617.4,1030.5z M1278,980.1c63.1-171.9,125.9-343.2,189.1-515.3c-60.6-3.3-66.1,0.4-85,53.1
			c-45.3,126-90.8,251.9-136.1,377.8C1228,945.8,1228.5,946.7,1278,980.1z M1529.2,801.2c-37.9-4.6-73.4-8.4-108.7-13.4
			c-12.9-1.8-18.5,3.3-22.5,14.5c-23.2,64.4-46.6,128.8-70.6,192.9c-4.4,11.7-3.9,18.2,8.6,23.9c28.1,12.9,57,22.7,87.4,28.3
			c13.3,2.5,20.6-1.1,25.2-14.6C1474.6,956.6,1501.5,880.5,1529.2,801.2z M1517,1052.2c27.4,1.7,43.6-8.2,52.5-39.5
			c26-91.4,56.6-181.6,85.2-272.3c19.1-60.4,37-121.3,57.5-181.2c7.3-21.3-8.7-25.1-19-32.4c-14.4-10.2-14.4,5.9-16.7,12.6
			c-58.4,164.8-116.3,329.9-174.5,494.8C1496.8,1048.6,1498.2,1056.1,1517,1052.2z M1332.4,503c-133,50.9-222.7,240.5-135.8,377.4
			C1241.4,755.8,1285.8,632.3,1332.4,503z M1598.3,604.4c-35.2-4.4-68.5-8.2-101.8-12.9c-16.5-2.3-23.5,4.9-28.4,19.9
			c-11.5,34.9-23.9,69.5-37.7,103.6c-6.4,15.8-4.2,22.3,13.4,23.9c28.5,2.7,56.9,6,85.1,10.8c14.5,2.5,20.2-3.2,24.4-15.5
			C1567.7,691.8,1582.6,649.5,1598.3,604.4z M1602.1,552.3c9.9,4.3,14.2-1.3,18.5-9.7c22.7-44,19.7-52.4-26.4-65.9
			c-16.6-4.9-33.8-7.9-50.8-11.3c-8.7-1.7-19.5-6.1-23.5,6.4c-7.1,22.1-20.3,42.4-20.1,66.5c0,1.3,7,3.1,10.9,3.5
			C1541,545.4,1571.5,548.8,1602.1,552.3z"/>
	</g>
</g>
</svg>
