<?xml version="1.0" encoding="utf-8"?>
<!-- Generator: Adobe Illustrator 23.0.0, SVG Export Plug-In . SVG Version: 6.00 Build 0)  -->
<svg version="1.0" xmlns="http://www.w3.org/2000/svg" xmlns:xlink="http://www.w3.org/1999/xlink" x="0px" y="0px"
	 viewBox="0 0 3000 3000" style="enable-background:new 0 0 3000 3000;" xml:space="preserve">
<style type="text/css">
	.st0{stroke:#000000;stroke-width:10;stroke-miterlimit:10;}
</style>
<g id="Layer_1">
</g>
<g id="Layer_2">
	<g>
		<path class="st0" d="M1984.2,613.1c-61.3-15.3-118.2-25.1-175.8-30.1c-96.8-8.4-192.8-5.2-287.1,21.4
			c-62.2,17.5-117.4,47.9-166.3,89.9c-19.7,16.9-30,40-38.6,63.7c-25,69.2-35.2,141.6-41.6,214.2c-26.5,299.1-23.3,599.1-27.5,898.9
			c-1.6,112.1,3.4,224.5,36.6,333.3c26.6,87,76.3,157.2,148.9,211.8c99.8,75.1,220.1,72.5,321.5-7.4c29.7-23.4,55.8-50.4,79.9-79.6
			c8.2-9.9,8.6-15-2.1-23.4c-20.3-16.1-38.7-34.4-54.6-55.1c-81.8-106.6-68.4-231.5,34.4-326.3c95.6-88.2,207.1-130.5,337.6-118.4
			c10,0.9,26.6-3.2,27.8,9.9c1.4,15.7-4.6,32.3-9,48c-1.3,4.5-8.4,1.1-12.9,0.6c-77.6-8.5-151.9,1.9-220.6,41
			c-51.8,29.4-96.9,66.8-128.6,118c-36,58-34.9,117.4,4,172.4c64.9,91.5,154.5,147.1,266.2,159.6c126.9,14.2,154.5,106.4,137.3,193
			c-32.9,166.6-127,284.7-288.8,346.2c-126.3,48-257.1,62.1-390.6,58.7c-164.8-4.2-328.6-21.5-492.4-39.8
			c-147.8-16.5-239-99.6-291.3-233.2c-48.2-123-58.8-252.1-54.9-381.9c5.9-198.7-0.1-397.2-4.3-595.7
			c-4.5-208.8-3.9-417.6-1.1-626.4c1.3-94.9-5.2-191.1,14.7-284.1c43.1-200.6,112.2-390.8,259.3-541.7
			c112.4-115.3,250.2-183.2,410.3-200.9c183.6-20.3,363.6,4,538.1,61.6c128.4,42.4,221.5,125.4,263.2,258.2
			c13.6,43.3,18,87.5,7.7,132.4c-9.8,43-31.9,78-68.3,103.5c-23.2,16.2-47.6,30.3-72.9,43c-93.8,47-167.4,115.5-218,207.8
			c-30.5,55.6-37.6,114.5-19.5,175.2c22.8,76.6,84.1,120.4,178.5,128.3c26.3,2.2,52.8,6.4,79.4,1.8c8.9-1.6,11.7,1.4,13.3,10.6
			c7.6,45.3,5.7,48.6-40.9,48.3c-51.2-0.4-101.9-5.5-150.2-24c-127.3-48.6-184.6-205.5-123.1-342.7
			c37.3-83.2,95.3-150.8,169.1-204.5C1946.8,637.7,1963.3,627.2,1984.2,613.1z M755.3,2233.2c-3.2,62.7-4.7,151.3,5.6,239.7
			c9.1,78.4,25.8,154.8,61.1,225.8c41.1,82.6,103.1,138.5,198.2,152.3c182.6,26.5,366.1,42,550.6,44.6
			c121.3,1.7,239-15.9,351.7-62.1c133.4-54.8,208.9-158.2,234.7-296c14.8-79.1-11.4-115.9-90.3-124.7
			c-56.5-6.3-110.7-22.8-159.2-53.8c-13.9-8.9-20.8-6.1-29.6,6.5c-19.9,28.4-44.9,52.5-70.9,75.3
			c-107.5,94.3-241.8,114.6-360.1,51.6c-101.9-54.3-170.8-138.5-210.1-246.9c-30.6-84.3-41.1-172.1-44-261
			c-0.5-15.4-3.2-23.5-22.4-23.2c-131.8,1.9-263.7,2.6-395.6,2.9c-17.3,0-20.4,6.2-20.2,21.9
			C755.8,2059.8,755.3,2133.6,755.3,2233.2z M749.4,940.2c0,21.2,1,42.4-0.3,63.5c-0.9,14.8,2.2,20.5,18.7,20.4
			c142-0.6,284.1-0.5,426.1-0.1c13.4,0,18.7-2.6,19.8-17.7c4.4-60.2,14.3-119.8,23.1-179.5c18.7-126.4,90.3-208.2,206.2-255.6
			c99.9-40.9,204.2-52.9,311.2-49.3c98.5,3.3,194.7,21.4,289.8,45.6c8.2,2.1,15.6,5.8,24.6,0.3c29.2-18.1,50.3-41.9,58.6-76.1
			c7.8-32.2,5.6-63.9-3.4-95.3c-35.4-123.7-121.5-197.2-240-234c-160.9-50-325.9-73.8-494.4-56.3c-164.6,17.1-305.3,87.5-410.6,215
			C831.2,499.6,760.4,709.3,749.4,940.2z M1190.7,1543c3-107.8,5.6-184.8,7.9-205.8c0.4-3.5,1.8-14.5-4.7-21.2
			c-3.7-3.8-10-5.3-20.6-5.2c-132.6,1.1-265.2,1.3-397.8-0.1c-23.7-0.2-30.1,6-30.2,29.3c-0.4,138.1,2.3,276.2,5.7,414.2
			c0.4,15.2,4.2,19.9,19.7,19.8c133.4-0.5,266.8-0.5,400.2,0c7.2,0,12.1-0.8,15.2-3.8c4.7-4.6,4-12.2,3.8-14.3
			C1188.9,1741.4,1189.5,1658.3,1190.7,1543z M977.7,1081c-69.9,0-139.7,0.5-209.6-0.4c-16.4-0.2-21.7,4.5-21.3,21.1
			c0.9,43.9,0.8,87.9-0.4,131.9c-0.5,16.4,4.3,21.1,20.9,21c137.4-0.7,274.7-0.7,412.1,0c16.9,0.1,20.8-5.6,21.3-21.3
			c1.3-43.9,3.4-87.8,6.9-131.6c1.4-17.1-3.9-21.2-20.3-21C1117.4,1081.5,1047.6,1081,977.7,1081z M970.5,1832.1
			c-56.5,0-113,0-169.5,0c-49.7,0-48.4,0-49,49.2c-0.2,21.8,7.8,25.5,27.4,25.3c120-1.3,240.1-1.4,360.1-1.9
			c50.3-0.2,49.2-0.2,50.4-49.9c0.5-19.6-6.6-23.2-24.1-22.9C1100.7,1832.7,1035.6,1832.1,970.5,1832.1z"/>
		<path class="st0" d="M1730.9,1516c0-49.4,0.7-98.7-0.4-148.1c-0.4-17.4,4.2-24.9,22.1-22.4c6.9,1,14.1,0.6,21.1,0.1
			c11.7-0.9,14.5,4.8,14.5,15.4c-0.3,104.2-0.3,208.4,0,312.6c0,11.2-3.6,14.4-14.8,14.9c-42.6,2.1-42.6,2.6-42.6-41
			C1730.9,1603.8,1730.9,1559.9,1730.9,1516z"/>
		<path class="st0" d="M1591.6,1520.7c0,44.6-0.5,89.2,0.3,133.8c0.3,14.8-3.5,20.3-19.4,20.2c-39-0.3-39,0.6-39-37.6
			c0-82.2,0.5-164.4-0.4-246.6c-0.2-17.5,3.1-26.8,22.7-23.5c6.1,1,12.6,0.8,18.7,0c13.5-1.6,17.5,4.1,17.3,17.3
			C1591.2,1429.9,1591.6,1475.3,1591.6,1520.7z"/>
		<path class="st0" d="M1913.3,1520.8c0-36.1,0.7-72.2-0.3-108.3c-0.4-15.6,3-22,20.4-21.7c38.2,0.8,38.2-0.2,38.2,38.4
			c0,69-0.5,138.1,0.4,207.1c0.2,16.7-4.9,22.8-21.2,20.7c-6.2-0.8-12.6-0.7-18.8,0c-14.2,1.5-19.2-4-18.9-18.5
			C1913.9,1599.2,1913.3,1560,1913.3,1520.8z"/>
		<path class="st0" d="M2122.3,1510.2c0,9.4,0,18.8,0,28.1c0,32-0.1,30.7-32.2,32.4c-20.4,1.1-27.6-4.2-26-25.4
			c2-26.4,1.3-53.1,0.2-79.6c-0.6-14.8,4.6-18.3,18.7-18.2c39.2,0.1,39.2-0.6,39.2,39.3C2122.3,1494.6,2122.3,1502.4,2122.3,1510.2z
			"/>
	</g>
</g>
</svg>
