<?xml version="1.0" encoding="utf-8"?>
<!-- Generator: Adobe Illustrator 23.0.0, SVG Export Plug-In . SVG Version: 6.00 Build 0)  -->
<svg version="1.0" xmlns="http://www.w3.org/2000/svg" xmlns:xlink="http://www.w3.org/1999/xlink" x="0px" y="0px"
	 viewBox="0 0 3000 3000" style="enable-background:new 0 0 3000 3000;" xml:space="preserve">
<style type="text/css">
	.st0{stroke:#000000;stroke-width:10;stroke-miterlimit:10;}
</style>
<g id="Layer_1">
</g>
<g id="Layer_2">
	<g>
		<path class="st0" d="M2628.6,872.1c-7.1,134.8-25.6,277.8-45.1,420.7c-17.5,128.2-30.1,257.3-59.8,383.7
			c-27,115.2-71.3,221-160.9,302.3c-17.3,15.7-7.4,23.2,3.3,34.4c94.3,99.3,155.6,215.7,169,352.6
			c22.4,228.5-84.6,417.5-290.8,519.8c-153.3,76-312.6,84.8-475.5,36.2c-20.9-6.2-38.1-7.3-59.5,0.7
			c-77.6,29.3-156.1,20.8-233.8-1.5c-38.3-10.9-73.8-35.3-111.1-40.6c-35.9-5.2-66,33-102.8,44.6c-105.2,33.3-214.2,35.9-322.6,42
			c-75,4.2-150,11-225.6,3.1c-110.5-11.6-184.3-71.6-232.5-167.7c-46.3-92.2-56.1-191.8-56.4-293c-0.7-184.4,37.1-359.1,133.8-518.4
			c8-13.2,6.8-21.3-3.5-32.5c-160.4-174.2-214.5-384.6-211.9-615.4c3-258.5,78.1-492.9,236.7-696.9
			c257.9-331.8,599.4-524,1013.8-583c246.5-35.1,478.9,13.5,690.7,147.5C2530.5,366.7,2638.2,571.6,2628.6,872.1z M1317.1,2170.3
			c47.5,0,95.1,1.6,142.5-0.3c182.7-7.2,366.1-9.2,544.5-56.5c255.3-67.8,430.8-212.9,477.2-487.1c26.5-156.7,46.7-314.1,66.5-471.7
			c13-102.6,24.5-205.4,29.1-309c9.6-218.4-68.8-397.5-239.9-532.6c-230.9-182.3-495-240.2-782.3-191.9
			c-273.2,45.9-517.5,157.4-728.2,339C500.4,741.6,346.8,1093,408.2,1524.7c39.6,278.9,191.8,475.7,459,577.5
			C1012.2,2157.6,1164.1,2168.3,1317.1,2170.3z M874.2,2918c89.7-5.1,179.4-8.8,268.7-19.6c171.7-20.8,270-109.8,299.1-275.6
			c22.7-129.5,3.4-255.8-35.6-380c-5.6-17.9-16.5-18.2-30.8-18c-100.5,1.7-200.7-3.8-300.2-17.5c-161.8-22.3-313.5-72.2-442.2-176.8
			c-25-20.3-31.3-12.2-43.8,10C495.5,2207.4,469,2388.2,478.5,2576c3.8,75.5,18.9,149.3,56,216.6c41.8,75.7,103.7,120.4,192.4,126.2
			C776.1,2922,825.1,2919.3,874.2,2918z M1537.2,2220.6c-9.3,0-13.5,0-17.6,0c-63.2,0.6-61.5,0.2-47.1,62.9
			c43.6,188.7,60.6,374.6-65.5,543c-6.2,8.3-3.6,12.4,5.3,16.2c78,32.8,158.1,57.4,243.5,40.6c109.5-21.6,161.5-102.1,188.6-200.7
			c39.6-144.2,13.2-282.1-54.3-412.5c-40.6-78.4-18.8-63.1-109-57.3c-16.9,1.1-18.1,6.2-12.6,20.8c31.6,84.2,43.4,171.5,39.1,261.2
			c-4.5,95.3-45.9,172.1-116.2,234.5c-9.2,8.1-19.5,20.1-29.4,1.3c-6.8-12.8-30.1-20.9-5.1-41.9c70.7-59.5,102.4-137.5,100-229.9
			c-1.7-65.2-11.2-128.9-31.5-190.9c-16.8-51.4-16.8-51.4-71.4-48.2C1546.7,2220.1,1539.4,2220.5,1537.2,2220.6z M2099.8,2641.3
			c-51.2,0-102.3,0.1-153.5-0.1c-25.8-0.1-43.6,6.6-46.7,37.4c-2.1,20.4-9.7,40.8-18.4,59.6c-9.3,20.1-0.9,22.5,16,23.2
			c144.3,5.5,288.8,31.7,430.8-24.5c33.8-13.4,61.6-25.5,80.2-56.3c5.4-8.9,11.8-17.3,16.8-26.4c3.8-7,12.8-13.9,8.5-22.2
			c-4.5-8.7-15-4-22.8-4.2c-39.2-0.9-76.2,11.4-113.9,19.7C2231.1,2661.9,2165.5,2647.3,2099.8,2641.3z M2419.7,2395.4
			c68.8,4,68.8,4,60.8-44.8c-0.7-4.1-1.3-8.3-1.6-12.4c-0.9-13.4-7.3-17-20.7-15.5c-57.7,6.4-114.5-3.5-171.3-11.6
			c-87.1-12.4-169.2-45.2-255.3-61.5c-55.1-10.5-109.9-12.1-162.7,12.3c-27.7,12.7-7.9,28.8-4.1,43.8c3.8,14.9,9.4,22.5,28.2,15.3
			c59.7-23.2,118.6-17.5,175.8,10.5c20.6,10.1,42.6,16.6,65,22.1C2234.5,2378.3,2337.5,2387.2,2419.7,2395.4z M1816.4,2202.2
			c5,20.6,12.1,22,27.6,14.3c50.9-25.7,105.3-30.9,161.5-24.1c70.8,8.5,137.8,32.2,206.3,49.6c72.1,18.3,145.1,29,219.5,30.5
			c22,0.5,34.5-3.4,21.2-28.9c-9.6-18.4-17.8-37.7-25.7-57c-6.8-16.6-17.2-22.6-35.8-21.9c-47.9,1.9-96,4.4-144,0.6
			c-26-2-49.5-10.1-66.7-29.9c-14.2-16.2-28.4-16.6-47.3-9.3c-35,13.4-70.4,26.2-106.5,36.3
			C1958.2,2181.4,1888.1,2192,1816.4,2202.2z M2419,2574c0,0.4,0,0.8,0,1.3c9.4,0,18.9-0.8,28.2,0.2c13.9,1.5,19.4-5.8,20.2-17.8
			c1.2-18.6-13.1-9.2-19.8-9c-33.5,0.8-67,1.5-99.8-5.9c-112.4-25.2-226.1-37.3-341.4-35.3c-22.2,0.4-43.1,4.3-64.5,10.1
			c-35.2,9.5-29.3,36.5-27.2,60c2.4,27,24.7,8.7,37.3,11.8c14.8,3.6,31.1,0.9,46.7,1.3c125.7,2.8,252,23.7,376.6-12.2
			C2389.2,2574.4,2404.4,2575.3,2419,2574z M2425.7,2497.4c9.7-0.8,25.3-2.1,40.9-3.5c16.8-1.5,18.2-13.2,19.1-26.8
			c1.2-17.7-11.7-14-21-15c-59.2-6.2-118.6-10.6-177.6-18.4c-86.7-11.6-173.9-21.9-254.4-60.8c-28.8-13.9-60-18.3-91.8-11.9
			c-51,10.3-50.9,10.6-40.3,61.8c3.2,15.3,1.4,35.2,10.5,44.7c11.8,12.2,27-7.7,42.2-8.4c10.4-0.5,20.8-5.1,30.9-4.4
			c84.3,5.7,169.3-2.4,253.1,13.6C2297.8,2480,2357.6,2496,2425.7,2497.4z M1793.2,2875c163.7,43.6,314.7,28.7,457-55.7
			c-21.8-0.5-43.2,3.2-64.8,4.3c-103.5,5.2-206.5-5.4-309.7-10.5c-13.8-0.7-28.5-6.6-39.6,9.6
			C1824.4,2839.9,1809.9,2855,1793.2,2875z M2382.2,2113.6c-14.6-18.3-24.4-31.5-35.2-43.8c-36.3-41.4-36.4-41.2-82.2-11.4
			c-12.2,7.9-24.7,15.4-37.2,22.9c-5.2,3.1-13.3,5.1-12.7,11.8c0.7,7.5,7.9,11.9,15.1,14.2c7.9,2.5,15.9,5.9,23.9,6
			C2294.2,2113.9,2334.6,2113.6,2382.2,2113.6z"/>
		<path class="st0" d="M1958,1220.6c4.6,92.8-8.3,183.5-34.5,272.4c-3.3,11.2-2.2,31.6-24.1,22.6c-13.6-5.6-39.9-2.2-28.2-31.4
			c2-5,2.3-9.6-2.6-14c-14.7-13.3-61.1-13.6-77.2-0.2c-53.8,44.8-108.1,89.1-161.3,134.5c-17,14.5-30.2,20.3-43.7-3
			c-7.3-12.5-20.2-17.1-33.4-21.3c-53.7-17.1-107.7-33.4-160.5-52.9c-23.4-8.7-40.4-9.4-56.3,11.9c-4.5,6-11.6,23.6-22.9,8.8
			c-8.9-11.6-37.6-15.6-20.5-39.8c8.7-12.3,1.1-13.1-7.7-16c-40.6-13.3-81.2-26.3-121.3-40.8c-13.8-5-21.3,0.8-29.9,9.5
			c-27.3,27.5-54.8,54.7-82.5,81.7c-11.2,10.9-56.1,2.3-59.8-12.4c-53.8-214.9-47.2-421.9,91.8-606.7
			c78-103.6,188-152.7,315.1-166.4c102.3-11,202.5-1.6,299.7,31.8c162.2,55.7,252,176.4,259.6,347
			C1959,1164.1,1958,1192.4,1958,1220.6z M1750.6,1435.3c-45.5-13.7-84.7-26.4-124.5-37.2c-39-10.5-80.7-39.9-115.7-27.8
			c-34.7,11.9-59.3,53.1-88.3,81.5c-2.2,2.2-4.2,4.7-6.6,6.7c-15.9,13.4-8.9,18.6,7,23.7c58.5,18.8,116.7,38.6,175.1,57.8
			c8.8,2.9,18.4,6.4,26.8-0.6C1665.1,1506.1,1705.6,1472.5,1750.6,1435.3z M1875.4,1329.2c-79.2-29.2-156-57.6-232.8-85.9
			c-6.3-2.3-12.3-2.1-17.3,2.9c-23.7,23.9-47.3,47.8-72,72.7c6.5,3.3,8.2,4.6,10.2,5.2c51.7,15.6,103.4,31,155.1,46.8
			c83.7,25.6,83.7,25.7,149.7-32.6C1869.7,1336.8,1870.8,1334.9,1875.4,1329.2z M1456,1347.8c-53.8-16.1-96.5-29.1-139.3-41.7
			c-8.8-2.6-18.7-6.9-26.6,1.3c-31.3,32.4-62.2,65.3-94.6,99.4c45.9,15.3,90.3,29.8,134.5,44.9c8.8,3,15.4,2.9,22.5-4.1
			C1385.1,1415.7,1418.1,1384.3,1456,1347.8z M1201.6,886.6c-3.6,1-7,1.1-9.4,2.8c-34.4,24.4-62.2,55.1-85.6,90
			c-7,10.4,3.9,12.4,9.5,14.5c34.9,13.3,70,26.1,105.1,38.9c9.2,3.3,17.6,4.2,25.7-3.9c24.2-24.4,49-48.2,73.3-72.4
			c4-4,11.5-10.7,3.1-14.8C1283.1,922.4,1242.1,904.7,1201.6,886.6z M1836,965.4c-50.6-18.6-89.6-32.9-128.5-47.4
			c-8.1-3-16.2-6.1-23.3,1.1c-27.8,28.7-55.4,57.6-84.1,87.4c39.1,17.6,76.2,34,113.1,51c10.6,4.9,18.2,4.9,27.5-4.1
			C1769.9,1025.2,1800.2,998.2,1836,965.4z M1905,1282.9c9.3-77.9,9.3-77.9-55.7-107.3c-14.2-6.4-28.3-13.1-42.6-19.3
			c-69-29.8-68.4-29.2-119.6,26.3c-14.3,15.6-7.6,18.9,7.2,24.1c40.2,14.2,80,29.3,120,43.9C1844.3,1261.4,1874.3,1272,1905,1282.9z
			 M1237.2,1283.1c-41-12.5-77.6-23.7-114.4-34.6c-9.8-2.9-19.6-6.3-29,3.2c-23.4,23.8-47.7,46.7-71.1,70.5
			c-12.8,13-11.2,23.9,7.1,30.1c30.6,10.2,61.3,19.9,91.7,30.5c9.3,3.2,15.8,1.4,22.3-5.3C1173.7,1347,1203.8,1316.9,1237.2,1283.1z
			 M1584.4,1222.1c-53.7-19.6-96.4-34.8-138.9-50.8c-7.7-2.9-13.5-3.7-19.5,2.7c-26.9,28.2-54,56.1-82.1,85.3
			c46.2,13.7,91.1,26.7,135.9,40.5c8.9,2.7,15.4,2.7,22.6-4C1527.6,1272.6,1553.3,1249.9,1584.4,1222.1z M1150,1201.9
			c40.2,11.8,79.8,23,119.1,35.4c9.5,3,15.5,1.5,22.1-5.1c24.2-24.4,48.4-48.7,73.3-72.4c11.6-11.1,8.9-15.7-5.2-20.5
			c-31.4-10.8-62.3-23-93.5-34.2c-7.7-2.8-16.1-5.3-23.3,2.1C1212.2,1138.1,1181.9,1169.2,1150,1201.9z M1295.6,1056.7
			c104,57.4,122.6,55.6,192-17.7c0.7-0.8,1.4-1.5,2.2-2.2c12.5-10.2,12.2-17-3.9-23.6c-29-11.9-57.5-24.9-85.8-38.4
			c-12.5-5.9-21.3-3.4-30.5,6.3C1346,1006,1321.5,1030.4,1295.6,1056.7z M1634.1,895.1c-107.2-58-124-56.5-192.2,15.4
			c-1.4,1.5-2.9,3-4.5,4.4c-12.2,10.4-7.8,16.3,4.9,21.7c29.6,12.7,58.8,26,88.1,39.3c9.5,4.3,17.4,4.1,25.4-3.9
			C1581.4,946.3,1607.5,921.2,1634.1,895.1z M1688.5,1103.6c-41.3-18.2-80.5-34.9-119.3-52.8c-9.2-4.2-15.2-3.7-22.1,3.2
			c-23.3,23.1-47,45.9-73.1,71.4c24.1,8.7,42.7,15.5,61.4,22.2C1624.3,1179.3,1624.3,1179.2,1688.5,1103.6z M1190.6,1078.3
			c-10.1-4.1-19.3-9.4-29.3-11.7c-30.5-6.8-62.6-39.9-87.9-23c-25,16.7-29.2,58.1-37.1,90.4c-2.6,10.7-18.2,28.2,3.2,34.1
			c19.7,5.4,40.4,26.5,62.6,2.3C1130.3,1139.8,1159.7,1110.4,1190.6,1078.3z M1256.2,847.8c21.6,15.8,108.4,57.7,114.7,54
			c25.5-14.7,42.5-39.3,64.2-58.4c0.8-0.7,1.4-1.5,2.2-2.2c15.5-12.3,10.9-18.8-5.9-23.8C1368.4,798.5,1315.2,829.2,1256.2,847.8z
			 M1904.9,1142.5c-2.6-53.2-7.3-100.6-30.9-140.2c-30.5,29.1-59.7,57-90.1,86.1C1822.7,1105.7,1861.2,1122.9,1904.9,1142.5z
			 M1035.3,1481.9c19.7-17.3,47.2-30.7,47.2-52.3c0-12.7-34.6-15.4-54.1-21.6c-1.3-0.4-3.3,1.3-6.4,2.6
			C1021.6,1434,1027.1,1456.7,1035.3,1481.9z M1682.3,844.9c-22.6-15.1-47.7-21.8-74.5-22.1C1631.9,832.6,1654.4,847.3,1682.3,844.9
			z"/>
		<path class="st0" d="M2202.8,1126.1c-0.1,111.4-14.7,224-45.9,334.3c-4.2,15-5.7,30.6-30.2,20.8c-19-7.6-28.1-11.1-20.7-35.9
			c51.4-172.5,54.4-348.5,27.4-524.7c-24.7-161-119-273.1-267-334.7c-240-100-479-92.1-711.1,27.5
			c-163.9,84.5-249.9,223.8-277.5,404.4c-23.9,157.1-33.8,313.8-8.6,471.3c5,31.5-18.7,19.4-31,24.8c-19.1,8.3-20.5-5.9-22.3-18.6
			c-26.7-190.7-17.1-380.1,27.7-566.7c48.5-201.9,184.2-328.7,372.3-401.4c213.1-82.3,429.1-82.6,643-1.8
			c213,80.5,334.3,257.7,338,484.9C2197.5,1047.8,2200.7,1085.4,2202.8,1126.1z"/>
		<path class="st0" d="M999.2,2623.5c-90,0.5-159-67.3-159.7-157.2c-0.7-90.1,69.8-162.6,159.3-163.9
			c88.9-1.2,162.1,70.9,162.8,160.5C1162.3,2555.7,1094.3,2622.9,999.2,2623.5z M999.4,2572.7c61.9,0.4,110.5-46.9,110.7-107.7
			c0.2-59.3-47.4-107.7-106.8-108.6c-61.8-1-111,45.6-112.2,106.2C890,2523.4,938,2572.3,999.4,2572.7z"/>
	</g>
</g>
</svg>
