<?xml version="1.0" encoding="utf-8"?>
<!-- Generator: Adobe Illustrator 23.0.0, SVG Export Plug-In . SVG Version: 6.00 Build 0)  -->
<svg version="1.0" xmlns="http://www.w3.org/2000/svg" xmlns:xlink="http://www.w3.org/1999/xlink" x="0px" y="0px"
	 viewBox="0 0 3000 3000" style="enable-background:new 0 0 3000 3000;" xml:space="preserve">
<style type="text/css">
	.st0{stroke:#000000;stroke-width:10;stroke-miterlimit:10;}
</style>
<g id="Layer_1">
</g>
<g id="Layer_2">
	<g>
		<path class="st0" d="M1510,2509.2c-111,0-222.1,3-332.9-0.8c-112.2-3.9-200.3,42.7-275.2,119.5c-38.2,39.2-71.6,83.3-107,125.3
			c-131.2,155.9-300.2,201.6-494.2,163.7c-128.6-25.2-197.1-112.8-202.2-244.2c-3.7-95.2,9.6-189.1,22-283
			c34.9-265.6,80.3-530,106.6-796.7c29.5-299.3,108.2-583.9,251.5-847.8c172-316.6,443.7-502.7,793.5-577.2
			c216.5-46.1,436.4-46.7,656.3-42.3c145.8,2.9,289.8,22.1,429.1,67.7c119,38.9,227.9,96,320.5,181.9
			c140.1,130,206.7,294.1,220.2,481.4c15.7,217.4,9.9,435.2-1.1,652.5c-6.9,136.9-31.5,271.5-84,399.5
			c-100.1,244-282.2,401.5-523.6,496.4c-165.3,65-303.3,79.4-485.5,95.3C1683.7,2510.8,1582.5,2511.1,1510,2509.2z M1078.6,284.1
			c-10.6,2.7-13.6,3.2-16.4,4.3c-8,3.1-16.1,6.2-23.9,9.8C806.9,402,632.8,566.7,513.7,790.3c-91.9,172.3-148.2,357.7-194.3,545.8
			c-34.6,141.2-37.5,287.7-58.4,431.4c-30.7,210.8-59.7,421.8-87.8,632.9c-13.2,99.1-28.7,198.3-17.7,299.1
			c8.8,81.1,54.1,131.4,128.8,157.5c125,43.8,342.8,18.5,458.8-126.9c55-68.9,104.7-145.9,181.1-191.6
			c57.8-34.6,87.2-70.3,76.8-139.8c-6.3-42.4,15.4-79.3,54-103c9.2-5.7,20.1-15.1,25.8,0.9c4.6,13.1,27.7,28.2,7.1,41.2
			c-32.1,20.3-34,49.6-34.2,81.4c-0.3,45-0.4,44.7,42.7,39.1c13.8-1.8,28-2.2,41.9-2c191.8,2.7,383.6-2.7,575.3-6.5
			c159.6-3.2,318-16,471.5-65c175.6-56.1,332.2-141.7,452.5-285.3c133.8-159.7,186.5-350.2,201.9-551.9
			c16.9-222.4,20.8-445.6,6.8-668.5c-9.5-151.6-51.1-292.1-152.7-410c-63.2-73.4-138.1-130.7-230-173.9c2.3,14,3.5,23.4,5.4,32.7
			c13.5,65.4,23.4,131.3,29.5,197.9c12,129.9-1.6,258.1-20.3,386.1c-25.9,177-76.3,346-187.1,489c-39.4,50.8-51,93.9-35.5,155.9
			c21.4,85.4-8.9,148.2-72.5,178.7c-30.6,14.7-63.6,17.8-97.3,16.7c-9.9-0.3-20.9-4.6-29.4,7c-45.5,61.4-108.9,67.2-177,54.4
			c-16.6-3.1-27.8-3.5-36.8,13.9c-9.4,18-27.3,27.7-46.9,31.3c-82.6,15.4-164.5,21.8-242-21.2c-9.8-5.4-16.8-7.1-28.4,0.3
			c-56.7,35.9-115.8,41.7-174.7,5c-10.2-6.4-15.5,0.4-23.3,1.7c-60.6,9.8-122.5,25.2-170.6-31.5c-7.1-8.3-12.6-8.6-21.8-4.1
			c-29.6,14.6-61.5,10.9-92,6c-57.5-9.2-90.9-49.4-90.2-108.1c0.4-39.7,3.2-79.7,8.6-119c1.9-14.1-0.1-21.5-10.1-30
			c-121.2-103.1-171.4-239.1-180.5-393.4c-10.9-185.6,35-360.8,100.5-532.1C919.2,506.6,988.5,393.1,1078.6,284.1z M2223.3,1027
			c3.7-10.9,7.2-19.7,9.7-28.8c61.7-229.2,76.3-460.1,22.5-693c-21.1-91.6-21.5-91.5-115.7-106.9c-10.6-1.7-21.2-3.5-31.9-4.8
			c-198.6-25.2-397.6-15.3-596.5-5.5c-20.3,1-37,8.4-53.1,20.5c-183.1,136.9-319.7,310.7-400.4,524.3
			c-53.4,141.5-74.7,289.9-46.5,441c13,69.3,50.8,125.9,106.8,173.1c55.6-258.6,192.7-447.4,448.4-524.2
			C1824.9,745,2039.5,835.1,2223.3,1027z M2294.6,234.2c2.3,10.9,4,20.2,6.3,29.3c64.9,253.8,54.5,507-18.6,756.2
			c-98.6,336.2-340.9,523.8-675.8,532.8c-174.4,4.7-338.5-30.6-483.5-132.5c-98-68.9-159.3-161.4-173.1-282.8
			c-12.3-107.5,0.4-213.6,25.4-317.3c56.5-233.9,188.1-422.5,363.3-583.3c9.6-8.8,22.1-15.1,28.1-29c-4.5-0.7-6.6-1.4-8.7-1.3
			c-114.4,7.9-201.8,54.7-272.1,151.4c-131.5,181.1-211.2,380.9-250,599c-18.1,101.6-20.7,203.8,1.8,305.1
			c43.5,196,169.4,311.4,359.9,360.2c150,38.4,303.3,33.8,456.4,29.2c95.1-2.9,189.3-13,279.4-45.5c210-75.7,345.8-227,420.7-431.9
			c96.6-264.2,122-536.6,65.4-813.6c-24.1-117.7,2.3-88.8-116.9-127.1C2301.6,233.1,2300.4,233.6,2294.6,234.2z M1583.7,1499.9
			c24.7,1.3,60.1-2.1,95.4-6.7c160.6-21.2,298.9-85.4,406.8-209.3c13.4-15.4,15.5-27,3.9-44.7c-42.1-64.5-90.5-123.3-149.4-173
			c-169-142.8-375.2-113.5-498.1,71.1c-58.4,87.7-85.3,186.8-103.1,289.5c-5.8,33.2,7,42,35.3,48.6
			C1439.9,1490.5,1505.7,1499.7,1583.7,1499.9z M2138,1211.8c10.6-17.8,20.4-32.8,28.6-48.6c10.4-20,18.9-41,29.3-61
			c5.7-10.9,1.2-18.1-5.4-25.9c-142.4-168.1-321-255-542-217.1c-247.1,42.4-396.1,201.3-461,437.6c-29.2,106.1-35.8,82.8,64.4,136.2
			c27.3,14.6,32.7,5.5,36.6-21.6c18.2-126.4,58-244.3,139.7-345.5c115.3-142.7,302.2-181.9,464.4-96.4
			c72.8,38.4,130.9,93.8,182,157.1C2096,1153.1,2115.4,1181.3,2138,1211.8z M1689.8,1817.1c11.8-0.8,23.7-1,35.4-2.5
			c81.9-10.5,81.8-11.2,85.6-94.5c1-21.5-4.1-28.5-26.6-25.1c-57.5,8.7-115.8,13.8-173.8,10.7c-33.6-1.8-39.8,11.9-45,40.6
			c-5.4,29.8,5,41.9,30.4,51.7C1626.3,1809.7,1657,1817.6,1689.8,1817.1z M2191.3,1517.7c-33.5,24.2-65.2,47.7-97.5,70.3
			c-18.1,12.6-33.3,86.8-19.9,104.1c2.3,3,7.1,4.4,11.1,5.6c48.6,14.3,112.2-21.9,119.8-70.2
			C2210.7,1590.3,2204.5,1553.7,2191.3,1517.7z M1079.2,1764.8c37.6,0.6,57.5-21.3,67.8-70.5c4.3-20.2,1.8-31.9-20.4-38
			c-33.1-9.1-64.4-23.3-93.9-40.9c-15.3-9.1-22.6-8.8-22.6,11.8c0,20.3-2.4,40.6-3.6,60.9
			C1003.5,1743.1,1023.2,1763.9,1079.2,1764.8z M2018.4,1679.1c0-6.4-0.6-13,0.1-19.3c3.1-25.7-5.8-28.8-28.1-18.2
			c-33.9,16.1-70,27-106.8,34.8c-15.1,3.2-21.9,10.1-19.8,26.1c1.3,10.6,0.8,21.5-0.1,32.2c-1.3,15.4,2.9,24.3,20.3,24.9
			c16,0.6,31.9,4.8,47.9,5.1C1991,1765.7,2018.4,1738.2,2018.4,1679.1z M1260.8,1798.2c4.9-0.4,8.1-0.7,11.3-0.9
			c40.1-1.5,58.2-16.6,59.5-49.9c1.7-43.1-3.1-47.9-52.5-53.5c-5.3-0.6-10.7-0.9-16-1.9c-17.9-3.3-39.1-14.3-52.8-8.2
			c-16.4,7.3-9.4,34.8-18.8,51.4c-14.2,25,1.7,40.7,18.2,54.6C1224.8,1802.7,1244.6,1796.5,1260.8,1798.2z M1428.3,1811.2
			c60.9,1,79.8-16.5,86.2-77.7c1.9-17.9,0.3-28.8-22.2-26.6c-18,1.7-36.4,0.1-54.5-0.3c-50.8-1-50.8-1-56.4,50.3
			C1376,1806.2,1379.7,1810.4,1428.3,1811.2z"/>
	</g>
</g>
</svg>
