<?xml version="1.0" encoding="utf-8"?>
<!-- Generator: Adobe Illustrator 23.0.0, SVG Export Plug-In . SVG Version: 6.00 Build 0)  -->
<svg version="1.0" xmlns="http://www.w3.org/2000/svg" xmlns:xlink="http://www.w3.org/1999/xlink" x="0px" y="0px"
	 viewBox="0 0 3000 3000" style="enable-background:new 0 0 3000 3000;" xml:space="preserve">
<style type="text/css">
	.st0{stroke:#000000;stroke-width:10;stroke-miterlimit:10;}
</style>
<g id="Layer_1">
</g>
<g id="Layer_2">
	<g>
		<path class="st0" d="M61.3,1410.1c3.5-41.9,5.1-90.5,17.5-125.2c25.3-71.1,76.1-128.4,143-175.6C427.6,964,656.1,917.6,902.9,968
			c72.1,14.7,138.5,45.3,189.1,101.5c15.5,17.2,23.2,6.5,34.3-2.6c102.1-83.7,217.7-137.8,349.8-150.7
			c146.8-14.3,288,5.1,417.3,81.9c45.3,26.9,84.1,61.4,110.3,107c13.7,23.9,22.9,20.3,41.8,6.8c192.6-137.3,403.6-161.6,625.6-92.4
			c130.4,40.7,228.6,121.4,271.1,257.8c8.9,28.7,12.8,58.2,14.4,87.8c6.9,125.6,9.3,251.5-5.7,376.4
			c-17.3,143.8-113.9,230.6-269.3,241.9c-229.7,16.7-443.1-40.4-641.5-155.2c-22.1-12.8-32.9-17.9-47.8,10.8
			c-26.8,51.5-75.4,81.2-129.9,95c-180.7,45.6-363.6,52.5-546.7,17.6c-79.3-15.1-143.2-60.4-196.8-120.2c-8.4-9.4-13.9-21.6-30.4-6
			c-95.2,90.1-210.8,138.8-339,156.8c-116.7,16.4-234.2,24.6-352.1,29.6c-153.5,6.4-351-159.6-341.2-340.8
			c2.6-48.3,0.4-96.9,0.4-145.4C56.5,1497.8,57.2,1457.9,61.3,1410.1z M963.6,1049c7,38.1,9.1,73.3,5.6,108.3
			c-14.2,139.4-81.1,244.3-211.6,299.7c-129.5,54.9-252.8,37.1-362.3-52.7C322.2,1344.4,282,1265,267.8,1172
			c-1.3-8.5,1.7-28.8-16.5-15.5c-70.3,51.6-128.3,114.2-134.2,205.8c-6.1,94.5-4.7,189.4-5.7,284.2c-0.4,34-0.4,68.3,10.4,101.3
			c43.6,133.7,176,218.3,326.7,207.7c74.7-5.3,149.4-11.3,223.9-18.8c103.7-10.4,202.4-34.7,294.9-87.4
			c105.2-59.9,149.9-144,139.6-264.5c-10.5-122.8-13.9-246.3-19.3-369.6C1083.9,1129.7,1049.6,1081.2,963.6,1049z M2838.5,1196.6
			c-24.4,60.5-59.4,107.8-99.8,152.2c-193.5,212.9-482.6,102.2-549.7-105.3c-12.6-39.2-19.4-79.1-18.8-120.1
			c0.3-18.5-5.5-20.8-20.9-12.5c-30.1,16.3-57.5,36.5-85.9,55.3c-19.5,12.9-25.4,29.2-28.4,51.6c-22,165.3-20.5,331.6-23,497.7
			c-0.3,22.7,7,35.8,25.9,47.9c116.5,74.4,243.2,121.8,378.5,147.8c96.6,18.6,193.4,31,291.6,13.3
			c111.7-20.1,175.1-78.6,187.3-190.3c14.4-131.3,18-263.7,3.3-395.5C2893,1288.1,2876.1,1240.8,2838.5,1196.6z M1931,1099.4
			c-21.2,145.5-83,259.8-199.1,340.7c-156.3,108.9-327.1,82.2-443.2-68.4c-57.4-74.4-87.5-159.5-95.1-252.9
			c-0.7-8.7,5.4-21.3-7.4-25.7c-10.2-3.4-49.5,38.7-48.8,50.9c7.9,140.7,16.5,281.4,23.2,422.2c3,62.6,7,126.1-21.3,185.1
			c-7.5,15.7,3.2,22.2,10.3,31c65.3,81.1,151.9,119.3,254.1,130c94.9,9.9,189.5,2,283.9-2.7c71.3-3.5,143.1-12.3,206.7-49.8
			c29.7-17.5,58.9-38.7,60.1-77.3c5.5-190.4,0.5-381.1,26.5-570.6C1986.7,1168.1,1961.5,1135.4,1931,1099.4z M1356,1000.8
			c-36.2,9.3-65.8,25.7-95.8,41.2c-12.1,6.2-12.9,16.4-13,27.8c-1.1,120,35.8,225.4,123,309.8c79.5,77.1,176.8,93.4,276.7,45.2
			c135-65.2,205.7-177.6,227.3-323c7.7-52.1-3.2-64.4-61.3-79.1c3.6,30.9,6.5,61.6,3.1,92.3c-8.9,80.1-43.5,145.5-115.3,185.9
			c-134.7,75.8-289.7,2.2-333.6-157.5C1354.6,1097.5,1350.7,1050.6,1356,1000.8z M1555,966.1c-40.8,0.5-81.2,4.6-121.3,12.3
			c-13,2.5-19.6,7.6-21,20.6c-8.2,74.4-0.3,145.3,45.6,207.6c73.4,99.8,222.5,88.8,280.3-21c29.2-55.5,30.5-113.5,13.4-173.2
			c-4.9-16.9-15.6-22.4-30.2-25.8C1667,973.9,1611.5,966.5,1555,966.1z M844.5,1014c54.7,175.4-42.5,281.8-162.7,293.8
			c-69.9,7-137.5-1.3-193.9-46.9c-63.3-51.1-72.8-121.7-59-203.3c-33.2,15.8-60.6,29.6-88.6,41.9c-16.6,7.4-21.6,18.4-20.5,36.3
			c5.8,90.2,40.6,166.7,109.4,225.4c95,81.2,227.6,92.5,336.5,31.4c105.3-59.1,166.3-187.3,147-309.1
			C903,1021.8,903,1021.8,844.5,1014z M805.2,1101.6c0.9-24-7.6-50.9-19.4-77.3c-6.1-13.5-14.2-19.8-29.8-20.2
			c-79.5-1.8-157.9,5.3-235,25.1c-10.6,2.7-21.6,4.3-27,16.1c-28.5,62.4-23.7,161.1,65,193.6c21.9,8.1,44.4,14.4,66.9,15.8
			C736.2,1261.7,806,1206,805.2,1101.6z M2714.7,1099.3c-7.9,49.8-24.5,95.9-54,136.7c-89.2,123.1-231.6,120.6-316.2-5.7
			c-30.1-45-45.5-94.7-48.1-148.7c-0.4-9.1,5.1-23.5-14.3-23c-37.1,0.9-56,18.8-56.2,55.2c-0.1,11-0.2,22,0.1,33
			c4.8,168.3,172.3,297.8,331.7,254c94.8-26.1,157-94.7,205.6-175.5C2808.5,1149.8,2801.5,1134.8,2714.7,1099.3z M2445.5,1037
			c-25.2,1.9-50.4,4.1-75.7,5.6c-13.9,0.9-18.3,7.8-18.5,21.3c-1,75.5,26.2,138,86.3,184c45.6,34.8,90.3,33.3,136.5-2.1
			c45.7-35,70.9-82.4,83.2-138.3c5.6-25.2,1.8-37-25.9-43.9C2570.2,1048.4,2508.7,1038.3,2445.5,1037z"/>
	</g>
</g>
</svg>
