<?xml version="1.0" encoding="utf-8"?>
<!-- Generator: Adobe Illustrator 23.0.0, SVG Export Plug-In . SVG Version: 6.00 Build 0)  -->
<svg version="1.0" xmlns="http://www.w3.org/2000/svg" xmlns:xlink="http://www.w3.org/1999/xlink" x="0px" y="0px"
	 viewBox="0 0 3000 3000" style="enable-background:new 0 0 3000 3000;" xml:space="preserve">
<style type="text/css">
	.st0{stroke:#000000;stroke-width:10;stroke-miterlimit:10;}
</style>
<g id="Layer_1">
</g>
<g id="Layer_2">
	<g>
		<path class="st0" d="M228.1,2028.4c-98.4-101.7-133.6-222.3-154.6-367.1C49.3,1495,49,1328.5,86.2,1163.5
			c25.3-112.3,71.3-214.8,147.5-303c69.8-80.9,158.4-125.2,262.5-141.2c113.4-17.4,227.7-14.5,341.8-13.6
			c167.6,1.3,335.1,5.1,502.7,5.7c163.6,0.6,327.1-2,490.7-2.3c152.8-0.3,305.6-0.1,458.3,6.8c61.8,2.8,123.3,9.1,184.6,18.9
			c105.2,16.7,185.7,71,249.3,154.8c81.6,107.5,128.2,229.3,149.1,361.3c30.4,191.6,12,378-65.4,557.1
			c-19.7,45.6-43.5,88.4-71.7,128.5c-30.9,44-45.1,60.9-58.1,72.1c-25,21.5-53.5,36.9-86.9,48.3
			c-301.9,102.3-643.7,118.7-643.7,118.7c-484.7,23.2-429.8,24.2-600.6,28.8c-252.8,6.7-381.7,9.9-501.7,0
			C539.3,2179.2,359.7,2164.4,228.1,2028.4z M1446.1,753.3c-172.1,1.9-344.2-2.8-516.3-3.9c-133.4-0.9-266.9-7.4-400.1,7.3
			c-110.9,12.2-204.4,55.8-275.7,144.3c-71.7,89-112.9,191.2-133.3,302c-31,168.7-30,337.9,4.2,506.1
			c22.8,112.2,67.8,214.7,143.1,303.1c64,75.2,147.8,112.5,241.6,132.1c117.8,24.7,237.4,31.2,357.2,34
			c256.9,6.1,513.4-5.2,769.8-18c209.2-10.5,418.2-24.8,625.9-53.6c88.3-12.2,176.1-27,261.2-54.5c50.9-16.5,97-40.2,132.9-82
			c50.7-59.2,91-124.5,120.1-196.7c69.3-171.5,84.1-348.8,52.4-530.1c-19.9-114.3-59.9-221.1-129.3-315.4
			c-49.2-66.8-107-122-191.1-142.3c-34.8-8.4-69.9-14.9-105.5-18.8c-100.6-10.9-201.7-12.8-302.8-14.2
			C1882.3,749.7,1664.2,751.5,1446.1,753.3z"/>
		<path class="st0" d="M1459.9,1629.1c-92.3,2.2-181.6-25.9-273.6-27.7c-71.1-1.4-140.8,10.6-209.1,30.9c-7.3,2.2-8.2,6.8-8,12.8
			c2.9,95.9-52.7,154.2-128.3,199.3c-31.9,19-66.8,31-102,42.2c-10.7,3.4-13.4,0.1-16.2-9.6c-7.6-26.9-8.1-26.8,18.3-35.3
			c43.6-13.9,84.6-32.8,120.5-61.8c40.4-32.7,65.1-72.7,66.2-126.5c1.9-89.7,9-179.4,3.7-269.1c-3.4-58.3-17.2-114.8-42.9-167.1
			c-24.2-49.2-66.9-74.2-121.3-78.7c-30.2-2.5-60.2,0.2-89,9.9c-10.3,3.5-13.1-0.2-16.1-8.9c-9.6-28.4-9.9-28.4,19.5-35.2
			c51.9-12.1,103.5-12.9,153.4,8.4c11.9,5.1,13.7-3.5,17.7-9.5c52.2-78.3,123.8-128.4,215.5-149.6c44.9-10.4,90.6-16,136.4-19.4
			c168.6-12.6,337.2-9,505.8-1.3c134.5,6.1,268.8,13.4,403.2,21.7c67,4.1,133.5,11.8,197.2,34.2c84.7,29.7,156.4,78.5,209,151.7
			c54.4,75.8,59.1,160.6,33.7,247.5c-28.4,97.5-83.2,177.3-168.5,234.2c-43.3,28.9-90.3,42.1-143.5,37.1
			c-58.7-5.6-117.9-6.2-176.9-9.5c-10.1-0.6-14.9,3.3-19.3,12c-32,63.9-64.8,127.4-96.4,191.5c-5.5,11.2-9.8,11.8-20,6.4
			c-24.3-12.9-24.7-12.5-12-37.3c27.5-54.1,55-108.2,82.6-162.3c3.8-7.4,7.6-13.1-6-13.3c-68.9-1.1-136.4-14.3-204.2-24.9
			c-74.7-11.7-149.2-11.8-223.6,2.2c-12.8,2.4-26,4.7-38.9,4.1c-14.2-0.8-19.6,6.6-25.2,17.4c-30.6,60.1-62,119.9-92.4,180.1
			c-5.8,11.4-10.8,13-21.9,6.9c-22.7-12.4-23-11.8-11-35c26-50.4,51.9-100.8,77.8-151.3C1456.6,1641.4,1460.7,1637,1459.9,1629.1z
			 M1447.2,969.7c-3.4-0.8-4.9-1.5-6.4-1.5c-113.6-0.8-227,2.2-339.4,21.1c-91.4,15.3-163.8,60.6-215.1,138.7
			c-5.1,7.7-6.9,12.5,1.5,19.7c20.1,17.3,34.4,39.4,44.3,63.8c21.9,54.4,36.1,110.8,41.2,169.5c5.5,63.6-0.4,127.1-1,190.6
			c-0.1,13.3,0.3,19.2,17,14.5c52-14.8,105.2-23.4,159.3-25c12.6-0.4,19-5,24.3-16.2c80.3-168.8,161.1-337.3,241.7-506
			C1425.5,1016.1,1436.1,993.2,1447.2,969.7z M2073,1608.1c59.1,2.9,116,3.4,172.3,9.3c47.3,5,87.5-7.8,124.4-35
			c72.1-52.9,120.7-123.1,144.9-208.8c29.1-103,4.8-191.9-77.4-262.8c-21.1-18.2-43.8-34.2-67.1-49.5c-13-8.6-17.6-5.4-24.1,7.6
			c-64.9,129.1-130.6,257.9-196,386.8C2124.8,1505.7,2099.5,1555.7,2073,1608.1z M1983.4,988.9c-44.3-2.5-86.1-4.6-127.8-7.4
			c-10.2-0.7-13.6,4.8-17.4,12.4c-98.9,191.8-197.9,383.5-296.8,575.3c-2.4,4.7-7.1,8.9-4.9,16.3c5.6-0.6,11.2-1.1,16.7-1.8
			c47.2-6.5,94.2-14.9,142.1-11.8c12.8,0.8,18.7-3.4,24-14.9c75.7-163.3,152-326.4,228-489.5
			C1959.2,1041.9,1970.8,1016.3,1983.4,988.9z M1346.3,1386.3c20.8,22.9,39.5,42.6,57.4,63.1c45.6,52.1,45.4,51.8,114.7,50.9
			c11.1-0.2,15.3-5.2,18.4-13.5c3.6-9.8,14.7-17.6,4.7-30.6c-20.4-26.5-39.7-53.9-59.3-81.1c-3.9-5.3-7.7-9.2-15.3-7.9
			C1427.9,1373.5,1388.8,1379.6,1346.3,1386.3z M1512.3,1091.4c19.2,27,37.3,52.3,55.3,77.6c2.5,3.6,5.6,5,10.1,4.3
			c35.6-5.9,71.3-11.6,109.4-17.7c-20.5-29.6-39.5-57-58.3-84.5c-3.1-4.6-7.1-5-11.9-3.9C1582.8,1075.1,1548.7,1083,1512.3,1091.4z
			 M1890.6,1412c24.5,27.5,46.3,52,68.2,76.3c2.9,3.2,5.4,7.9,10.9,6.8c34.6-6.5,69.2-13,106-20c-19.6-27-37.6-51.6-55.3-76.4
			c-3.5-4.9-7.9-5.6-13.3-4.8C1969.4,1400,1931.6,1405.7,1890.6,1412z M2052.7,1117.8c19.2,27.2,37.1,52.6,54.9,78
			c3.2,4.6,7.6,4.7,12.1,4c34.9-5.7,69.8-11.6,107.1-17.8c-20.9-29.2-40.3-56.4-59.5-83.6c-3.2-4.5-7.1-5.1-11.8-4.1
			C2121.9,1102,2088.3,1109.7,2052.7,1117.8z M1500.1,1319.7c34.7-5.3,67.7-10.3,100.6-15.3c9.5-1.4,7.1-6,3.2-11.4
			c-15.5-21.6-31.1-43.2-46.2-65c-4.1-5.9-8.2-7.8-15.5-6.4c-31.1,5.7-62.4,11.1-93.7,15.6c-11.5,1.6-12.1,4.8-5.7,13.3
			c15.3,20.4,30.2,41,45.1,61.7C1491.5,1317.1,1495,1321.1,1500.1,1319.7z M2150.6,1329c-19-26.8-36-50.7-52.8-74.9
			c-3.7-5.4-8-7.2-14.3-6.1c-32.3,5.6-64.7,11.3-97.1,16.3c-8.5,1.3-9.7,3.7-4.8,10.4c16.1,21.9,32.1,43.9,48,65.9
			c3.4,4.7,7.4,6.5,13,5.6C2077.7,1340.6,2112.9,1335,2150.6,1329z M2065.1,1208.7c-14.5-20.7-28.9-38.8-40.5-58.6
			c-10.8-18.4-23-25-43.4-15.9c-8.8,3.9-20.3,1.3-25.3,13.4c-6.7,16.2-14.9,31.7-21.9,47.8c-5.4,12.3,9,33.4,22.1,31.4
			C1991.6,1221.4,2027,1215.1,2065.1,1208.7z M1523.6,1182.5c-1.3-3.5-1.5-4.6-2.1-5.5c-12.1-17.1-24-34.2-36.3-51.2
			c-17.9-24.7-17.9-24.3-47-17.9c-8.7,1.9-13.6,6.3-17.2,14.2c-7.1,16-15.2,31.5-22.7,47.4c-7.8,16.8,2.8,32.7,20.7,30.1
			C1453.8,1194.5,1488.2,1188.3,1523.6,1182.5z M1393.7,1500.5c-33.3-36.4-63.1-68.8-92.8-101.4c-7.9-8.7-11.1-2.7-14.4,4.1
			c-9,18.9-18,37.7-27,56.6c-8.5,17.7,5.2,40.2,25.5,40.5C1319.5,1500.9,1354,1500.5,1393.7,1500.5z M2136.3,1055.4
			c-14.1-19.8-27-38.1-40.1-56.3c-0.9-1.3-2.4-3-3.8-3.2c-20.2-2.4-41-7.1-60.6-2.6c-11.1,2.5-11.7,19.2-17.1,29.4c-1.1,2-2,4-3,6.1
			c-8.1,17-2.5,38.5,12.8,49.5c2.6,1.9,5.1,2,7.9,1.3C2066.4,1071.6,2100.3,1063.8,2136.3,1055.4z M1861.4,1374
			c41.5-6.3,79.4-11.9,117.4-18c11.1-1.8,4.8-7.4,1.8-11.7c-14.5-20.2-29.1-40.3-43.8-60.4c-9.6-13.1-38.3-11.4-45.6,3.2
			c-12,24.3-23,49.1-34.6,73.6C1852.2,1370,1853.4,1375.1,1861.4,1374z M1596.9,1028.6c-23.7-53-37.5-62.1-91.1-60.5
			c-0.6,0-1.1,0.1-1.7,0c-6.4-0.9-10.5,1.5-13.3,7.7c-6.7,15-14.5,29.5-21,44.6c-5,11.6,12.7,34.7,24.6,32
			C1528.6,1044.8,1562.7,1036.6,1596.9,1028.6z M2006.6,1605.4c-18-20.3-33.6-37.3-48.5-54.9c-5.9-6.9-11.5-8.4-20.5-6.6
			c-41.1,8.2-82.4,15.1-123.5,23c-13.8,2.7-28.4,2.7-42.8,10C1849.3,1587.7,1924.7,1604.5,2006.6,1605.4z M1917,1504.9
			c-23.8-26.8-45.7-51.7-67.9-76.3c-11.3-12.5-18.6-11.1-26,4.6c-13.3,28-26.4,56.2-39.4,84.4c-1.7,3.7-5,7.4-2.3,12.5
			C1825.6,1521.9,1869.3,1513.8,1917,1504.9z M1312.7,1348.9c46.4-7.2,89.5-13.9,134.8-21c-18.9-26.1-36-50-53.4-73.6
			c-6.3-8.6-31.9-7.4-36.9,2.4C1342.1,1286.2,1328.3,1316.3,1312.7,1348.9z M1323.8,1542c10.9,15.8,19.9,34.4,35.8,37.6
			c36.1,7.3,73.3,7.8,114.3,8.4c-13.8-15.2-24.8-27.2-35.6-39.3c-3.5-3.9-7.4-6.8-13.1-6.8C1391.3,1542,1357.5,1542,1323.8,1542z
			 M1610.2,970.2c10.4,15.1,18.5,25.9,25.4,37.4c5.3,8.9,11.8,10.1,21.1,7.9c43.5-10.4,87-20.3,130.6-30.4c3.4-0.8,8.4,0.3,7.7-6.6
			C1734.9,975.8,1674.9,973.1,1610.2,970.2z M1771.4,1032.1c-33.2,7.6-63.4,14.6-93.6,21.3c-6.4,1.4-7.4,4.1-3.9,9.2
			c15.3,22,30.5,44,46.8,67.4C1738,1096.7,1754,1065.7,1771.4,1032.1z M2257,1151.9c15.8-30.9,30.5-59.6,46.8-91.5
			c-31.3,7.2-58.7,13.8-86.3,19.6c-9,1.9-8.3,5.3-4,11.2C2227.4,1110.5,2241.2,1129.9,2257,1151.9z M1644.6,1277.9
			c14.1-27.5,26.5-51.9,40.5-79.4c-30.5,5-57.5,9.5-86.7,14.3C1614.3,1235.2,1628.5,1255.2,1644.6,1277.9z M1569.3,1423.4
			c14-27,26.4-50.9,40.3-77.9c-28.8,4.3-53.8,8-78.8,11.7c-6.9,1-6.8,4.4-3.2,9.3C1541,1384.6,1554.2,1402.8,1569.3,1423.4z
			 M2271.9,1024.5c-39.4-15.1-79.5-21.7-123.3-24.6c10.5,14.7,19.4,26.9,27.9,39.5c3.7,5.5,8.5,4.7,13.5,3.6
			C2217.3,1036.9,2244.6,1030.7,2271.9,1024.5z M2107.5,1447.3c12.7-25.2,24.4-48.4,37.7-74.7c-29.1,4.5-54.7,8.5-82.6,12.9
			C2078,1406.7,2091.8,1425.8,2107.5,1447.3z M2219.6,1226.2c-26.7,4.2-49.5,8-72.3,11.4c-7,1.1-7.2,4-3.6,9
			c12.4,17.3,24.7,34.6,38.4,53.7C2194.7,1275.4,2206.1,1252.8,2219.6,1226.2z M2071.2,1519c-25.9,4.9-48.1,9-72.8,13.7
			c12.8,14.5,23.9,26.5,34.3,39.1c6.3,7.7,9.3,4.9,12.8-2.1C2053.2,1554,2061.2,1538.5,2071.2,1519z M1282.7,1568.2
			c-19.4-25.2-32.8-30.6-57.5-25.3c-9.3,2-10,9.2-11.6,16.7C1236.2,1562.4,1258.3,1565.2,1282.7,1568.2z"/>
		<path class="st0" d="M470.6,1359.8c-76.7,1.3-153,7.2-227.6,26.9c-7.9,2.1-11.8,0.4-14.3-8.8c-7.9-29.3-8.6-29.6,22.1-36.2
			c93.1-20,187.3-29.6,282.5-22.6c105.3,7.8,163.4,81.9,181.4,174.2c3,15.2-3.7,30.2-7.8,44.9c-23.2,83.3-82.8,131.9-168.9,139.2
			c-106.9,9-211.9-2.3-315.9-27.5c-11.5-2.8-14.3-6.4-10.8-18.2c7.6-25.8,6.8-25.8,33.5-19.6c92.3,21.5,185.6,30.6,280.5,24.6
			c88-5.6,130.7-50.8,145.9-132.2c5-26.8-10.6-51.7-24.5-74.5c-28.5-46.5-71.7-67.8-125.1-70.2
			C504.7,1359.2,487.6,1359.8,470.6,1359.8z"/>
	</g>
</g>
</svg>
