<?xml version="1.0" encoding="utf-8"?>
<!-- Generator: Adobe Illustrator 23.0.0, SVG Export Plug-In . SVG Version: 6.00 Build 0)  -->
<svg version="1.0" xmlns="http://www.w3.org/2000/svg" xmlns:xlink="http://www.w3.org/1999/xlink" x="0px" y="0px"
	 viewBox="0 0 3000 3000" style="enable-background:new 0 0 3000 3000;" xml:space="preserve">
<style type="text/css">
	.st0{fill:none;stroke:#000000;stroke-miterlimit:10;}
	.st1{stroke:#000000;stroke-width:10;stroke-miterlimit:10;}
</style>
<g id="Layer_1">
</g>
<g id="Layer_2">
	<path class="st0" d="M1471.1,1590.8"/>
	<g>
		<path class="st1" d="M1430.7,2900.8c-239.6-0.8-478.5-10.3-711.8-72.3c-140.4-37.3-275.4-88.2-393.9-174.9
			c-75.6-55.3-134.8-123.5-154.7-218.4c-7.6-36.3-7.4-73.5-6.5-110.4c1.3-54.4-6.3-107.4-37.5-152.7
			c-70.3-102-80.4-215.1-69.7-333.9c20.3-225.1,38.5-450.3,58.1-675.5c18.5-212.1,37.6-424.2,56.6-636.3c5.9-66.3-4.9-132.4,0-198.8
			c6.3-85.6,53.9-137.9,129.2-167.7c118.3-46.7,232.2-29.9,341.6,30.4c59.5,32.8,113.3,73.4,160.2,122.2c21,21.9,34.4,17.6,53.8,0.1
			C974.4,206.6,1116,148.1,1268.9,115c156.1-33.8,314.8-37.1,473.7-34.2c107.6,2,215.3,3.9,322.7,12.3
			c172.3,13.5,340.1,43.1,490.7,135.4c180.9,110.8,281.7,278.9,339.6,477.1c49.2,168.4,55.3,340.7,42,514.1
			c-16.2,210.2-51.5,418.3-72.5,628c-10.2,101.6-14.4,203.7-26.6,305.2c-29.3,243.4-156.8,418.6-365.6,539.7
			c-174.8,101.4-365.2,154.4-563.7,181.7C1750.4,2896,1590.7,2900.2,1430.7,2900.8z M999.7,2529.2c7.4,0.8,14.9,2.5,22.2,2.2
			c117.8-5.3,223.3-44.4,314.4-118.9c92.2-75.3,120.3-173.4,83.5-286.4c-30.8-94.4-88.6-171.4-162.4-236.4
			c-23.4-20.6,0.1-28.9,6.5-41.9c8.3-16.8,18.2-10,28-1.1c86.4,78,154.7,168.6,185.6,282.2c30.6,112.4,8.6,216.3-76.7,297.3
			c-126.1,119.8-278.2,173.6-452.9,155.5c-30.8-3.2-70.6-5.7-73.9-44.8c-3.1-37,35.8-41.2,62.8-50.2
			c68.2-22.7,135.9-46.4,193.8-90.9c50.5-38.8,91-85.8,115.4-141.7c-69.2,0-137.2-0.1-205.2,0c-106.7,0.2-210.4,13.8-302.8,72.9
			c-63.8,40.8-135,59.1-208.3,70.5c-92.8,14.5-186.3,17-279.8,9.1c-28.6-2.4-31.4,7-24.1,30.2c8.5,27.2,19.6,52.9,35.9,76.3
			c49.9,71.7,119.4,119.3,195.5,158.7c175.3,90.9,364.1,135.9,558.7,155.2c290.8,28.8,582,29.6,872.5-5.5
			c190.2-22.9,373.2-72.2,541.3-167.4c120.3-68.2,223.4-154.5,287.8-280.3c54.3-105.8,71.3-221,78.6-337.3
			c13.8-218.2,43-434.6,70.4-651.3c19.6-154.6,31.5-309.5,15.2-465.2c-4.6-44.5-9.5-89.3-24.8-136.5c-8.9,12.8-15.1,21.5-21.2,30.3
			c-92.5,133-216.5,221.7-373.5,261.7c-110.7,28.2-222.6,32.3-320.7-35.2c-100.7-69.2-188.3-154.7-254.3-259
			c-39.2-61.9-60.2-129.9-51.1-204.7c12.8-104.3,73.7-179.7,150.8-243.2c53.6-44.1,112-82.4,167.9-123.7
			c17.5-12.9,37.3-23.7,51.9-45.5c-14.3-2.4-24.8-4.6-35.5-5.8c-228-25.8-456.8-28.1-685.6-17.7c-118.6,5.4-234.1,29.9-347.5,68
			C829.6,312.4,696.2,589,702.5,841.8c2.5,101.1,10.1,202.1,10.9,303.1c0.3,35.2,12.4,39.7,42.7,39.4c34-0.3,57.5-5.9,81-36.8
			c54.5-71.6,131.7-100.8,221.7-89.8c87.2,10.6,155.2,55.1,203,127.5c21.7,32.8,46.5,46.7,86,44.7c60.8-3.2,121.8-0.5,182.7-2.1
			c22.4-0.6,23.9,10.3,24.6,27.7c0.8,19.1-3.8,27.2-25,26.7c-52.2-1.1-104.4,1.2-156.6,0c-21.5-0.5-32.6,6.2-42.1,26.1
			c-34.2,71.2-85.9,127.3-153.3,169.3c-50.4,31.3-104.6,51.5-166,59.5c7.5,12,13.4,20.9,18.7,30.2c48.6,84.7,61.4,172.2,12.5,260.4
			c-16.4,29.6-12.3,53.1,2.4,78.8c21.8,38.4,57.4,61.5,93.8,83.7c40.7,24.9,83.4,46.9,117.6,81.4c57.6,58,72.4,124.8,40.5,200
			c-32.3,76.2-85.8,135.2-153.8,181.6C1098.7,2483.8,1049.1,2505.3,999.7,2529.2z M2525.6,274.5c-68.1-44.3-140.6-68.5-214.8-89.4
			c-23.1-6.5-39.7-4.7-57.4,14c-20,21.1-44.7,37.7-67.9,55.6c-69.5,53.6-147,96.8-208,161.5c-110.5,117.2-118.2,241.1-22,370
			c53,71,118.8,129.6,185,187.7c53.2,46.7,117.5,67.5,186.7,64.5c228.2-10,393.2-121.6,501.6-320.3c4.6-8.4,9.5-16.8,5.9-27.7
			c-24.8-73.8-55-144.9-99.5-211.2c-14.7,19.3-26.9,37.3-41.2,53.6c-74.5,84.7-162.4,149.3-277.6,161.8
			c-102.5,11.1-156.3-69.7-111.9-162.9c15.9-33.5,39-62.6,61.5-91.9C2412.2,379.3,2465.8,325.6,2525.6,274.5z M572.8,739.1
			c-2.9-75.9,4.1-169.5-7.9-262.6c-11.4-88.5-62.7-141.2-150-155.7c-55.1-9.2-107.9,2.2-161.4,12.6c-22.6,4.4-30.6,13.1-29.6,36.3
			c9.5,215.9-25.9,429.1-40.7,643.5c-8.9,127.9-21.6,255.5-33.3,383.1c-1.5,16.4,4.5,21.3,19.6,21.4c42.4,0.3,84.7,2,127-3.6
			c159-21.2,227.6-88.1,249-247.6C563.7,1030.4,571.1,893.7,572.8,739.1z M233.6,1569.2c-26.1,0-52.2-0.3-78.2,0.1
			c-11.6,0.2-20.3,3.1-21.5,18.2c-8.6,110.5-21.1,220.6-26.3,331.4c-1.1,22.8,8.9,28.5,28.7,27.2c31.7-2.1,62.7-8.2,92-19.9
			c112.7-45,228.5-45.4,346.5-28.2c84.8,12.4,170.2,27.5,256,9.3c85.1-18,159-55.7,181.6-147.4c22.1-89.5-10-166-80.7-223.1
			c-76.2-61.6-166-70-259.6-56.3c-11.4,1.7-19.2,8.9-27.3,16.5c-44.3,41.8-98.3,62-157.4,72.2
			C402.5,1583.8,318.1,1569.2,233.6,1569.2z M1074,2200.5c40.1-2,80.3-3.2,120.4-6.4c20.9-1.6,53.1,5.2,59.7-11.5
			c9.7-24.6-13.2-47.9-30.8-67.5c-15.4-17-33.5-31-53-42.9c-22.3-13.5-44.9-26.5-67-40.3c-47.6-29.6-91.5-63.1-114.1-116.9
			c-7.1-16.9-14.1-10-24-3.6c-38.8,24.9-80.8,41.8-126.4,49.9c-78.1,13.8-155.8,6.1-233.5-3.9c-83.9-10.8-167.7-25.4-252.7-10.1
			c-60,10.8-115.5,37.2-175.3,49.5c-20.8,4.3-53-12.3-60.8,15.1c-5.9,20.9,10.7,45.3,21,66.9c2.8,5.9,6.3,11.4,8.8,17.5
			c5.7,14.1,13.2,16.1,27.7,9.6c167.8-76.2,334.9-69.8,499.9,8.4C800.8,2174.5,933.3,2205.9,1074,2200.5z M236.8,280
			c33.3-5.7,58.8-10.7,84.5-14.3c171.9-24.3,290.3,64,300.8,233.1c14.4,231.6,7.3,463.2-25.8,693
			c-22.4,155.4-101.9,238.2-244.1,268.3c-62.3,13.2-125.2,13.3-188.2,10.6c-24.8-1.1-21.5,14.8-22.9,29.6
			c-2.1,21.6,13.1,15.4,23.8,14.1c33.7-4.1,67.3-1.4,100.9-0.2c68.3,2.4,136.1,12.9,205,3c127.9-18.5,192.9-88.4,191.7-216.2
			c-1-101.1-5.6-202.1-9.7-303.1c-3.6-88-9.1-176.2,0.3-263.9c12.9-121.4,60.7-230.4,129.3-330.4c12.3-17.9,12-28.3-4.5-42.9
			c-39.9-35.3-80-70.4-124.5-99.9c-78.3-51.8-162.9-82.6-258.3-69.3C333.7,199.9,276.7,218.1,236.8,280z M830.8,1301.9
			c0.4,6,1.2,15.8,1.8,25.5c1.2,20,2.5,28.5,27.9,15.3c101.5-52.7,204.8-51.2,306.2,1.8c59.7,31.1,59.1,32.4,96.2-24.4
			c5.9-9.1,10.8-18.8,16.4-28.1c4.9-8.2,3.6-13.7-5.5-18.1c-28.8-14-44.4-40.8-61.9-65.6c-29.1-41.3-67.8-70.1-115.4-86.7
			C957.3,1073,834.8,1181.3,830.8,1301.9z M2411.7,641.6c3.1-0.5,15.2-1.2,26.5-4.4c109.5-31.3,192.3-97.6,253.2-193
			c8.1-12.8,5.6-20.5-3.3-31c-28-33.5-59.7-63.1-92.6-91.6c-15.2-13.2-25.3-13.7-41.1,0c-60.4,52.1-115.1,109.1-162,173.7
			c-16,22-33,43.4-42.6,69.1C2332.1,611.9,2352.6,641.5,2411.7,641.6z M811.2,2227.2c-36-13.8-69.6-25.6-102.3-39.6
			c-14.3-6.1-23.1-4.1-34.2,6.6c-36.9,35.7-82.8,52.6-132.8,61.1c-57.4,9.8-114.8,3.5-172.2,2.4c-45.8-0.8-91,2.6-133.9,21.5
			c-30.7,13.5-12.6,39.5-16.3,59.7c-2.3,12.4,8,12.6,17.2,13c82.5,3.3,164.8,3.4,247.3-2.3C604.6,2341.2,706.3,2284.4,811.2,2227.2z
			 M631.4,2159.5c-3.7-3.4-5.7-6.4-8.5-7.6c-127.4-54.9-256.7-59.9-387.5-13c-53,19-52.2,19.2-32.6,70.7
			c5.8,15.1,10.3,21.2,27.5,13.7c20.8-9.2,43.5-12.8,66.2-16.4c57.6-9.2,115.1-0.6,172.6-1C526.7,2205.4,584,2200.7,631.4,2159.5z
			 M1172.7,1414.5c-24.8-21.8-53.1-34.6-83.3-43.5c-67.4-20-133-15.2-196.2,15.8c-11.8,5.8-27.8,12.2-22.7,30.2
			c6.3,22.4,76.9,69.8,101.9,68.7C1045.7,1482.2,1112.9,1461,1172.7,1414.5z M807.5,1425.2c-26.3-54.8-37.7-107.8-28-164
			c2.6-15.2,3.8-30.3-18.3-25.1c-15.8,3.8-45.1-16.9-43.9,22.1c1.5,48.8,0,97.3-14.5,144.5c-3.5,11.3-2.9,19.2,12.4,17.7
			C744.3,1417.6,773.3,1422,807.5,1425.2z"/>
	</g>
</g>
</svg>
