<?xml version="1.0" encoding="utf-8"?>
<!-- Generator: Adobe Illustrator 23.0.0, SVG Export Plug-In . SVG Version: 6.00 Build 0)  -->
<svg version="1.0" xmlns="http://www.w3.org/2000/svg" xmlns:xlink="http://www.w3.org/1999/xlink" x="0px" y="0px"
	 viewBox="0 0 3000 3000" style="enable-background:new 0 0 3000 3000;" xml:space="preserve">
<style type="text/css">
	.st0{stroke:#000000;stroke-width:10;stroke-miterlimit:10;}
</style>
<g id="Layer_1">
</g>
<g id="Layer_2">
	<g>
		<path class="st0" d="M2217.2,914.5c49.4-60.6,107.3-104.2,177.6-129.5c105.4-38,214.3-49.5,325.7-38.5c30.2,3,60.2,7.1,90.4,9.9
			c102.8,9.7,155,70.5,151.1,173.8c-2.8,74.3-12.7,147.9-18.5,221.9c-6.3,81-14.3,161.9-23.3,242.7
			c-15.2,135.6-44.5,268.6-77.8,400.7c-6.4,25.3-12.8,50.7-19.5,75.9c-30.8,114.3-105.5,180.1-221.2,201.6
			c-86.9,16.1-174.7,24.6-262.9,28.4c-19.8,0.8-40.1-1.3-59.6-4.8c-53.5-9.6-84.4-42.6-93.6-96.5c-2.8-16.5-3-32.9-3.3-49.4
			c-0.2-9.3,0.4-15.7,12.9-15.1c11.7,0.5,15.3,3.9,14.2,15.8c-1.1,11.5-0.2,23.4,1.2,34.9c7,57,33.7,83,91.8,86.6
			c75.4,4.7,150-4.6,224.5-14.5c37.5-5,74.9-10.7,111.3-21.9c77.9-24,129.6-75.1,152.4-152.4c41.5-140.8,73.2-283.9,95-429.1
			c20.1-134.3,26.8-269.9,40.7-405.2c-8.7,0.6-12.3,7.3-17.4,11.5c-31.2,25.3-66.1,41.9-106,48.1c-10.7,1.7-15.3-1.5-16.3-12.3
			c-0.8-9.3,1.5-13.7,11.9-13.9c8.1-0.1,16.3-2.8,24.2-5.1c86.6-25.3,125.8-89.8,111.5-183c-11.2-72.7-41.2-101.2-123.5-112.2
			c-64.2-8.6-128.7-17-193.7-13.3c-106.9,6.1-211.3,23-301.2,87.5c-74.5,53.5-123.7,127.5-163.3,208.4
			c-39.8,81.2-64.6,166.7-71.4,257.1c-1.8,24.2-2.9,48.2,2.2,72.1c6.1,28.7,26.7,41.2,55.2,34.4c30.6-7.3,49.1-29.5,65.6-53.5
			c8.4-12.2,14.8-10.8,24.3-2.2c5.3,4.8,5.7,8,1.2,13.5c-14.9,18.1-28.1,37.5-47.9,51.1c-26.7,18.4-55.4,25.8-85.9,13
			c-31.6-13.2-39.9-42.1-41.3-72.9c-3.7-77.4,10.3-152.3,34.3-225.6c22.8-69.8,53.8-135.8,97-195.3c7.8-10.7,1.7-18.8,1.8-27.8
			c1.3-128-105-223.9-233.3-212.2c-102.7,9.4-179.4,61.4-237.8,143.4c-54.5,76.6-79.8,164-92.4,255.9c-7.2,52.7-11.3,105.6-9,158.8
			c3.3,78.1,34.8,114.5,112.2,121.2c63.7,5.5,128.1,5.5,191.3-9.9c17.5-4.3,34.9-9.2,50.2-18.5c10.8-6.5,15.2-5,21.6,5.7
			c8.4,14.3-3.7,14.8-10.3,18.3c-32.2,16.9-67,25.3-102.8,28.5c-59.1,5.2-118.5,9.9-177.3-1.2c-65.2-12.4-101.2-53.8-109.4-120
			c-6.7-54.6-1.2-108.8,4.6-162.9c11.2-105.5,38.2-206.1,101.6-293.5c69.1-95.3,159.8-152.9,280.9-152.2
			C2103,691.5,2200.3,780,2215,905C2215.3,906.9,2215.9,908.8,2217.2,914.5z"/>
		<path class="st0" d="M1441,1148.3c2,76.8,6.7,139.4-3.2,202c-23.5,148.5-147.7,283-295.8,301.4c-128.6,16-258.2,36.9-389,19.7
			c-78.7-10.4-154.9-27.5-218.9-78.4c-53.2-42.3-80.6-98.3-86.1-165.6c-4.2-51.5,3.2-101.8,17.2-151.2
			c14.6-51.7,17.4-105.7,35.4-156.9c76.1-216.3,226.1-346.8,450.7-392.1c75.4-15.2,151.1-23.5,227.9-12.9
			c146.7,20.2,232.2,107.5,249.9,254.1C1436.8,1033,1436.5,1097.9,1441,1148.3z M1416,1167.8c-6.7-72.8-4.9-142-15.6-210.3
			c-20-126.7-101.1-203.1-228.4-217.7c-73.7-8.5-145.9-1.3-217.6,13.5C747.3,796.1,603.1,914,531.1,1114.7
			c-29.6,82.5-44.1,169.2-56.2,255.5c-15.6,111.8,35.1,194.4,138.6,239.5c15.1,6.6,30.8,12.2,46.6,16.6
			c81.9,23.2,165.6,26.1,250,22.8c71.9-2.9,142.5-19.1,214.5-20.4c11.6-0.2,23.3-2.6,34.6-5.5c137.2-35.6,211.5-132.3,248.6-261.9
			C1426.3,1296.8,1415.3,1229.6,1416,1167.8z"/>
		<path class="st0" d="M1060.8,2018.6c-34.1-0.9-67.3-7-97.8-22.3c-12.7-6.4-19.7-4.9-29.8,5.2c-86.3,85.6-213.5,107.1-322.6,55.4
			c-69.1-32.8-89.6-82.9-61.4-154.2c17.5-44.4,40.5-85.8,73.8-120.8c30.4-32.1,67.5-51.2,111.4-51.1c61.2,0.2,122.6-2.7,183.5,6.6
			c34.8,5.3,65.5,16.4,83.9,48.9c3.9,6.9,7.3,6.2,12.9,2.2c41.5-30.1,89.4-33.5,138-31c74.5,3.9,115.6,60.4,95.9,132.9
			c-19.7,72.4-71.9,109.5-142.6,124.4c-9.4,2-19.1,2.8-28.7,3.7C1071.9,2019,1066.3,2018.6,1060.8,2018.6z M805.3,1756.9
			c-20.7,0-41.3,0.3-62-0.1c-38.6-0.6-71.5,12.6-98.4,40.4c-36.6,37.9-61.5,82.8-76.7,133c-12.6,41.6-0.7,70.6,36.3,93.2
			c141.9,86.8,342.2,2.3,378.3-159.6c13.3-59.8-9.9-92.7-70.2-101.5C876.9,1757.2,841.1,1759,805.3,1756.9z M1133.1,1783.2
			c-39.1,0.3-77.1,4.7-108.5,31.4c-6.1,5.2-12.3,10.1-12.3,20.1c0.3,44.4-17.1,83.2-40.5,119.4c-7.1,11.1-6.8,15.5,5.9,20.4
			c31.2,12.1,63.1,19.4,96.6,17.2c63.4-4.2,115.2-28.5,142.6-89.1c30.2-66.9-4.7-119.3-77.6-119.4
			C1137.2,1783.2,1135.1,1783.2,1133.1,1783.2z"/>
		<path class="st0" d="M2370.1,1603c-4.9,105.7-41.5,195.8-108.7,273.7c-6.3,7.4-11.3,12.9-21.7,4c-10.5-9.1-4.9-14,1.4-21.3
			c66-76.4,101.7-164.7,102.3-266.1c0.4-66.1-39.9-94.9-103.7-76.7c-57.5,16.4-97.9,54.6-130.8,102.1
			c-31.6,45.6-53.7,96.2-73.2,147.8c-13.2,34.9-7.1,66.3,13,82.4c20.9,16.7,53.2,14.6,85-5.6c5.2-3.3,9.9-7.5,15.3-10.6
			c9.6-5.5,11,5,15.8,8.7c5.8,4.5,4.6,8.6-1.1,12.9c-22.8,17.6-47.2,31.3-76.8,32.2c-58.3,1.8-98.6-47-80.6-108.6
			c27.7-94.6,69.1-183.4,148.9-247.4c34.5-27.6,74-45.3,119.3-45.2c52,0.1,87,31.5,93.5,83.2
			C2369.6,1580.9,2369.6,1593.3,2370.1,1603z"/>
		<path class="st0" d="M2595.6,1908.4c40.5-0.6,75.5-15.3,103.7-44c10-10.2,13.8-1.5,19.8,2.4c8.5,5.5,5.4,10.9-0.6,16.4
			c-44.1,40.8-95.4,60.2-155.4,48.3c-47.1-9.4-72.2-49.1-68.7-103c5.9-92.6,45.7-170.7,103.7-240.5
			c46.2-55.5,101.7-100.7,160.5-142.1c7.8-5.5,12.3-8.6,19.7,1.7c7.8,10.8,3.2,14.9-5.1,20.7c-66.9,46.9-129.4,98.7-177.3,165.7
			c-43.2,60.4-74,125.8-74.3,202.1C2521.5,1886.6,2544.5,1908.8,2595.6,1908.4z"/>
		<path class="st0" d="M1903.3,918.8c35-15.6,70.9-26.1,109.6-25.6c63.8,0.9,85.2,35.1,54.3,91.4c-25.1,45.8-53.2,90-79.4,135.3
			c-5.2,9-9.2,9.2-17.5,4.5c-9.1-5.1-11.2-9.4-5.3-19c24.1-39.3,47.4-79.1,70.9-118.7c2.8-4.7,5.8-9.4,8.3-14.3
			c20-37.9,11-53.2-32.6-53c-41.6,0.1-80.2,11.5-114.8,35.1c-8.3,5.7-16.6,11.4-27.5,18.9c1.6-15.4,2.9-27,4.1-38.5
			c1.8-17.2,5.7-36.7-11.1-47.5c-17.5-11.3-34.2,0.2-49.6,9.7c-23.1,14.2-43.9,31.1-60.7,52.5c-6.5,8.3-11.8,11.6-21.7,3.9
			c-11.8-9.1-4-14.8,1.6-21.5c19.1-23,41.8-42,67.2-57.7C1854.8,839.8,1889.4,854.2,1903.3,918.8z"/>
		<path class="st0" d="M2677.8,884c30.2-0.3,50,1.3,68.8,9.5c35.9,15.8,56.2,51.8,51.7,94.7c-5.6,53.5-31.5,96.2-72.1,130.5
			c-6.3,5.3-11.3,9.1-18.2-0.5c-6.1-8.5-8.1-12.7,1.7-20.7c33.7-27.5,56-62.4,61.4-106.5c5.9-49.2-20.1-79.9-70.4-80.6
			c-63.9-0.9-123.6,18.4-181.2,44c-20.1,8.9-39.5,19.6-58.4,30.9c-10.9,6.5-13.9,0-19.1-6.9c-6.4-8.5-1.7-11.8,4.9-15.8
			C2521.1,917.8,2601,890.1,2677.8,884z"/>
		<path class="st0" d="M2434.7,1230.1c-2.3,53.1-14.1,105.8-39.4,155c-3.2,6.2-3.7,17.4-17.1,10.4c-11.1-5.8-12.5-10.5-6.8-22
			c26.8-53.3,40.3-109.7,34.9-169.6c-5.6-62.3-58.9-96.2-118.8-76.1c-39.8,13.3-65.2,42.5-84,78.1c-5.3,10-9.1,15.4-21.3,9.4
			c-13.6-6.7-6.5-14.3-2.4-21.6c29.5-53.2,69.2-93.8,133.9-97.1C2389.2,1092.7,2435.6,1144.3,2434.7,1230.1z"/>
		<path class="st0" d="M392.7,707.3c22.7,1.5,45.5,2.2,67.4,8.9c23.9,7.3,38.7,25.3,38,45.8c-0.2,7.1,0.9,17.8-8.6,17.9
			c-7.1,0.1-16.7-6.1-17.3-14.9c-1.1-18.4-13.9-22.3-27.7-25c-133.6-26.6-269.8,49.2-313.4,187.9c-2.2,6.9,0,16.2-14.6,13.5
			c-18.3-3.3-13.3-12.5-10-23.1C144.7,794.1,262.4,707.3,392.7,707.3z"/>
		<path class="st0" d="M92.2,1275.4c-4,43.9-7.6,90.7,4.6,136.8c10.3,38.6,29.1,71.7,67.2,89.3c32.5,15,63.7,11.7,89.7-13.5
			c10.6-10.2,17-5.2,24.1,1.2c9.6,8.6-1.2,13.4-5.4,17.9c-29,31.1-83.4,38.2-124.4,16.4c-41.8-22.2-64.3-59-76.5-103.1
			c-11.9-43.2-9.6-87.5-7.5-131.5c1.8-37.2,5.9-74.3,1.7-111.5c-1.6-13.8,8-11.9,15.2-13.8c10.7-2.9,10.6,4.8,11.3,11.9
			C95.7,1207.8,92,1240.2,92.2,1275.4z"/>
		<path class="st0" d="M1665.1,1747.9c0.7-55.8,15.8-101.2,24.8-147.7c4.5-23.1,8-46.1,4.7-69.6c-1.4-9.9,0.8-15.4,12.1-16.7
			c11.3-1.3,14.1,3.6,15.1,13.6c4.4,44.8-7.5,87.4-17.5,130.1c-8.3,35.7-15,71.3-11,108.2c5.2,47.2,30.5,78.5,74.2,95.3
			c21.9,8.4,44.8,13.7,68,16.4c10.3,1.2,12.6,5.1,11.4,14.3c-1,7.9-3.4,13.2-12.8,11.8c-52.4-7.6-103.1-18.4-139-62.9
			C1671.4,1811.1,1666.4,1776.2,1665.1,1747.9z"/>
		<path class="st0" d="M2459.5,1622.9c-0.9,29.6-12.2,61.8-31.1,91.2c-20,31.3-41.2,61.8-61.3,93.1c-8.9,14-15.1,29.3-16,46.3
			c-1.7,31.4,21.2,47.1,50.1,34.3c10.2-4.5,19.7-10.9,25.9-20c7.5-11.1,13.1-7.1,21.2-1c11.2,8.5,3.4,13.9-2.1,19.6
			c-12.5,13-26.3,24.3-44.2,29.2c-46.2,12.8-83.4-19.7-77.4-67.2c3.7-29.8,18.6-54.5,34.2-78.8c17.1-26.6,37.9-50.8,52.7-79
			c19.5-37,31.7-75.1,11-116c-6.1-12.1,4.9-13.9,10.7-18.3c8.3-6.3,10.6,2,13.2,7C2455.1,1580.2,2459.7,1598.1,2459.5,1622.9z"/>
		<path class="st0" d="M328.5,948.7c50.8-1.9,92.2-23.9,130.3-53.6c26.8-20.8,50-45.3,72.2-70.7c7.5-8.6,12.2-9.4,21-1.2
			c8.6,8.1,6.3,12.3-0.5,19.4c-43.2,45.6-86.4,91.1-146.3,115.4c-30.7,12.5-62.3,22.2-96.3,15.2c-50.9-10.5-67-56.5-33.2-96.1
			c6.6-7.8,15.1-14,23.2-20.3c5.5-4.3,11.6-11.8,18-0.1c4.3,7.9,11.2,15.1-2.2,21c-3.1,1.3-5.7,3.9-8.2,6.2
			c-13.7,12.3-27.3,25.9-19.3,46C294.5,948.1,313.1,947.5,328.5,948.7z"/>
		<path class="st0" d="M1759.8,1684.6c0-49.6,11.9-92.3,18.4-135.8c1.8-12.2,3.5-24.6,4.3-36.9c0.7-11.3,6.7-12.9,16.5-12.5
			c11.6,0.5,11.5,7.3,10.2,15.4c-7.3,47.6-15.1,95-21.7,142.7c-4.7,33.3-1.3,66.1,13,96.9c15.5,33.4,40,56.2,78.5,58
			c15.8,0.7,10.5,11.9,11.5,18.9c1.6,11.5-8.3,8.8-14.4,8.1c-51.1-5.5-84-35.2-102.9-81.1
			C1762.8,1733.2,1758.6,1706.6,1759.8,1684.6z"/>
		<path class="st0" d="M1839.6,1340.8c-23.8,0-44.6-8.2-61.6-24.6c-17.2-16.5-20.9-37.3-12.4-58.9c8.2-20.9,26-29.1,47.9-29.1
			c17.3,0,34,3.6,49.6,10.8c27.1,12.6,40,34.8,34.6,58.8C1891.9,1323.8,1869.1,1340.6,1839.6,1340.8z M1820.2,1254.5
			c-13.5-0.3-24.2,0.9-29.4,11.7c-4.7,9.9-3.5,20.2,3.6,29.1c10.9,13.8,40,22.9,56.4,17.7c11.2-3.6,19.7-9.8,21-22.6
			c1.2-12-5.4-19.3-15-24.8C1844.6,1258.7,1831.3,1255.7,1820.2,1254.5z"/>
		<path class="st0" d="M282.3,1855.3c-6.3-1.1-17.9-2.7-29.3-5.4c-31.6-7.3-42.2-29.8-28.5-59.3c13.3-28.5,38.8-42.3,70.4-38.3
			c6.8,0.9,13.7,1.3,20.6,1.8c40.9,3,57.8,37.8,34.8,72.2C335.3,1848.6,313.1,1855.6,282.3,1855.3z M284.7,1828.7
			c22.6,0.1,34.8-4.9,42.5-15.5c12.1-16.7,6.4-30.7-13.9-33.1c-10.9-1.3-21.9-2-32.9-2c-14.8,0.1-35.2,19.2-34.6,32.9
			c0.7,17.7,17.1,12.1,26.7,16.2C277.3,1829.3,283.3,1828.6,284.7,1828.7z"/>
		<path class="st0" d="M2600.2,1229c-13.8-0.2-27.6,0.9-40.8-4.5c-8.4-3.4-16.7-7.3-21.4-15.3c-5.9-10-14.7-23.5-3.5-31.4
			c8.3-5.9,19.1,3.4,25,14.2c5.6,10.3,17.3,10.4,27.5,11c34.5,2.1,67.4-4.8,97.4-21.9c11.4-6.5,16.2-4.4,22.3,5.8
			c7.5,12.5-3.1,13.9-9.5,17.5C2667,1221,2634.7,1229.3,2600.2,1229z"/>
		<path class="st0" d="M1278.7,2006.5c-7.6,0-15.1,0.1-22.7,0c-9.6-0.1-15.1-2.9-13.9-14.7c1.1-11.2,4.9-13.2,15.6-11.9
			c37.2,4.7,72.7-2.9,105.3-20.8c11.6-6.4,16.3-3.9,22.3,6.3c7.6,12.8-3.6,13.7-9.8,17.1C1345.4,1999,1313.1,2007.2,1278.7,2006.5z"
			/>
		<path class="st0" d="M2771.3,1652.2c-7.7,28.7-24.7,53.4-54.3,68.3c-5.6,2.8-12.2,4-17.2-1.4c-3.9-4.3-1.6-9.6,0.8-13.4
			c14.2-22.8,28.6-45.3,47.2-65c5.1-5.5,11.1-8.8,18.3-5.5C2771.8,1637.8,2772.4,1643.6,2771.3,1652.2z"/>
		<path class="st0" d="M1323.7,1857.1c-8.3,1.1-8.1-6-9.4-10.7c-1.6-5.7-4-12.6,4.8-15.1c29-8.1,53.9-22.9,74.9-44.7
			c7-7.3,10.4,2.3,14.7,5.3c4.2,2.9,10,6.4,3.8,12.9C1388.1,1831,1358.5,1848.4,1323.7,1857.1z"/>
		<path class="st0" d="M316.3,1583.9c7.5,0.8,15.2,0.7,22.4,2.6c5.9,1.6,17.4-1,12.8,12.4c-2.8,8.4-3.5,18.3-16.8,13.9
			c-19-6.3-33.9,10.2-52.7,9.3c-13.4-0.7-21.6-2.1-23.5-16.9c-2.1-16,11.6-13.3,19.1-15.5C290,1586.1,303,1583,316.3,1583.9z"/>
		<path class="st0" d="M210,1183.2c-10.4-0.4-16-3.1-12.5-15.2c7.8-26.9,20.1-51.1,38.9-72c5.6-6.2,10.1-10.9,18.1-2.1
			c6.3,7,10,11.5,1.6,20.1c-16.1,16.6-26.7,36.7-32.3,59.2C222,1181,218.4,1185.7,210,1183.2z"/>
		<path class="st0" d="M407.7,1587.8c20.8,1.3,39.9,5.3,54.5,21.1c4.3,4.6,13.8,9.2,5.1,15.8c-5.3,4-12.4,14.6-22.3,3.7
			c-9.8-10.8-23.4-13.9-37.5-14.4c-10.3-0.4-20.9,1.8-20.3-14.9C387.9,1581.4,400.5,1590.2,407.7,1587.8z"/>
		<path class="st0" d="M2518.4,1495.1c14.1-0.3,27,11.7,26.4,25.8c-0.6,15.1-9.4,24-24.1,25.9c-13.2,1.7-27-11.3-27.6-24.8
			C2492.3,1508.2,2504.4,1495.4,2518.4,1495.1z"/>
		<path class="st0" d="M2629.1,1295.8c8.3,0,16.5,0.4,24.8-0.1c9.6-0.6,13.4,3.1,13.5,13c0.2,10.7-3.6,14.8-14.3,14.3
			c-15.8-0.6-31.6-0.6-47.4,0c-10.5,0.4-14.5-3.2-14.6-14.1c-0.1-11.8,5.8-13.8,15.4-13.2C2614,1296.1,2621.6,1295.8,2629.1,1295.8z
			"/>
		<path class="st0" d="M397.6,1158.1c-9.4,1.9-13.7-2.2-15.2-11.5c-2.1-13.4-8.7-25.3-19.6-32.6c-13.9-9.3-6.3-18.1-0.4-25.2
			c7.6-9.2,13,1.4,17.9,5.3c16,13,24.6,30.5,29.3,50.4C412.4,1156,408.7,1159.9,397.6,1158.1z"/>
		<path class="st0" d="M2542.7,1440.3c-1.6,15.2-9.3,24.4-24.9,25c-15.1,0.7-26.3-10.7-26.1-25.6c0.2-14.9,11.7-26.1,26.7-24.9
			C2533.8,1416.1,2541.3,1425.5,2542.7,1440.3z"/>
		<path class="st0" d="M2662.7,1411c0.6,18-10.3,29.7-25.3,29c-15.1-0.6-24.3-8.6-25.2-24.3c-0.8-15.1,10.3-26.7,25.3-26.2
			C2652.9,1390.2,2661.4,1398.6,2662.7,1411z"/>
		<path class="st0" d="M401.4,1362.7c-0.9,6.6-1.4,12.7-2.8,18.7c-1.3,5.5-0.9,14.4-10.2,11.3c-7.3-2.4-18.8-1.7-15.6-16.2
			c3.3-14.9,2.6-30.1-4.7-44.1c-6.6-12.8,6.1-12.8,11.3-17.3c8.4-7.4,10.1,1.5,12.6,6.4C398.8,1334.5,400.9,1348.7,401.4,1362.7z"/>
		<path class="st0" d="M173.8,1305.7c2.6-12.8,5-25.5,7.8-38.1c1.4-6.4,1.9-14.3,12.7-10.3c8.7,3.2,17,5.2,13,18.1
			c-3.2,10.3-4.5,21.3-6,32.1c-1.4,9.8,3.8,22.4-15.3,21.1C166.4,1327.1,179.2,1312.9,173.8,1305.7z"/>
		<path class="st0" d="M542.5,1693.5c-2.1,6.4,2.9,17.6-11.5,16.4c-10.1-0.8-18.6-1.1-16.2-15.7c1.7-10.1-0.8-21.2-6.8-29.4
			c-9.9-13.4,0.3-18.3,8.5-23c12.9-7.5,12.2,6.7,15.6,12.1C539.5,1665.7,541,1679.5,542.5,1693.5z"/>
		<path class="st0" d="M415.6,1247.9c-0.2,6.6,2.2,14.8-9.3,13.9c-7.6-0.6-16.9,2.9-16.8-11c0.1-11.7-3.4-23.5-10.3-33
			c-8.5-11.7,0.7-15.8,7.3-21c10.7-8.5,12.7,2.8,16,8.2C410.6,1218,415.2,1232.4,415.6,1247.9z"/>
		<path class="st0" d="M1347.9,1906.8c7.6,0,15.2,0,22.7,0c7.3,0,13.5-0.2,12.5,10.8c-0.8,9.4-1.6,15.9-13.6,15.2
			c-14.4-0.9-29-0.8-43.4-0.3c-9.2,0.3-13.5-2-13.5-12.5c-0.1-11.2,4.2-14.6,14.6-13.7c6.8,0.6,13.8,0.1,20.7,0.1
			C1347.9,1906.4,1347.9,1906.6,1347.9,1906.8z"/>
		<path class="st0" d="M506.8,1821.3c4,2.3,10.3,4.4,14.2,8.7c4.9,5.3-1.2,10-3.9,14.3c-6.9,11.1-16.1,20.2-26.1,28.5
			c-5,4.2-10.1,8.2-14.7-0.3c-3.5-6.4-12.9-12-2-20.3c9.3-7,17-15.7,23-25.8C499.2,1823.4,501.2,1820.8,506.8,1821.3z"/>
		<path class="st0" d="M533.4,1737.6c12.2-2.6,15.5,3.3,12.8,14.8c-2.5,10.7-4.4,21.6-6.9,32.3c-1.8,7.5-3.7,15.2-14.7,10.7
			c-8.7-3.6-16.2-6.5-10.7-19.1c3.5-7.9,4.2-17.4,4.9-26.2C519.5,1740.8,522.8,1735.8,533.4,1737.6z"/>
		<path class="st0" d="M365.7,2007.6c-7.6,0.9-13.6,0.3-12.6-8.9c0.7-6.8-2.9-16.2,9.2-16.9c9.1-0.5,18.2-2.9,24.8-8.8
			c11.7-10.4,16.7-0.5,22.4,6.4c8.6,10.5-3.2,12.3-8.1,15.9C390.7,2003.1,378.4,2007.3,365.7,2007.6z"/>
		<path class="st0" d="M472.9,1917.7c-8.6,12.9-20.3,21.1-31.8,29.8c-13.3,10.2-18.8,3.4-23.5-8.8c-1.9-4.9-1.2-7.7,2.9-10
			c10.2-5.7,19.5-12.8,27.6-21.3c3.2-3.4,6.6-4.9,10.7-1.5C463.4,1909.7,468,1913.6,472.9,1917.7z"/>
		<path class="st0" d="M1757.8,2030.1c1.1,10.7-1.5,16.6-13.4,14.9c-10.3-1.5-20.4-3.4-29.5-8.2c-5.6-2.9-17.3-3.2-9.9-15
			c4.5-7.3,7.5-16.7,20-9.6c6.9,3.9,15.5,5.7,23.5,6.5C1756.9,2019.5,1758.8,2023.6,1757.8,2030.1z"/>
		<path class="st0" d="M189.7,1646.9c1.4,3.9-0.3,6.4-3.8,8.1c-9.3,4.7-16.8,11.7-23.3,19.7c-7.7,9.4-13.1,0.3-19.1-2.5
			c-8.5-4.1-5-9.1-1.1-14.7c6.9-9.7,16-16.9,25.9-22.9C180.8,1627.1,188.6,1631.8,189.7,1646.9z"/>
		<path class="st0" d="M67.3,1903c2.3-7.7-1.6-18.1,12.5-17.3c29.3,1.6,11.6,25,17.2,37.4c5.7,12.4-10.5,13.5-15,12.7
			C62.8,1931.9,74.1,1913,67.3,1903z"/>
		<path class="st0" d="M180.1,1404.1c1.8-7.9,2.7-15.5,5.2-22.6c2-5.8,3.1-15.4,13.4-10.2c6.7,3.4,16.9,5,12.2,17.3
			c-1.9,5-3.9,11-3,16c3.1,16.1-8.6,16.9-18.2,17.3C175.5,1422.4,183.4,1409.9,180.1,1404.1z"/>
		<path class="st0" d="M264.4,2035.7c-8-3-28.4,7.5-20.6-18.1c2.2-7.3,4.6-10.5,12.6-8.7c5.3,1.2,11.3,1.9,16.3,0.5
			c13.6-3.8,19.4,0.4,20.2,14.7c0.9,16.3-11.3,9.5-18.4,11.6C271.9,2036.3,268.9,2035.7,264.4,2035.7z"/>
		<path class="st0" d="M1569.8,1763.7c3.1-6.7-8.2-27.9,17.7-19.4c7.3,2.4,10,4.8,8.4,12.7c-1.2,5.9-1.8,12.8,0.1,18.3
			c5.7,16.2-6.1,17-15.8,18.6c-12.4,2-8.7-9.1-10.2-15.3C1569,1774.8,1569.8,1770.5,1569.8,1763.7z"/>
		<path class="st0" d="M2003.4,2049.6c-12.1,1.9-12.4-5.9-11.4-14c2.8-24,25.6-9.8,37.4-18.2c5.8-4.1,14.7,12.1,12.8,16.3
			C2034.8,2049.5,2017.5,2046.9,2003.4,2049.6z"/>
		<path class="st0" d="M90.2,1756.3c0.6-13.4,5.4-25.5,12.8-36.3c3.6-5.3,6.2-16.2,16.5-7.5c6.6,5.6,13.5,9.4,6.3,21.4
			C110.2,1759.9,111.2,1760.5,90.2,1756.3z"/>
		<path class="st0" d="M1643.1,1528.8c0.7,13.8-22.7,36.8-31,35.5c-9.5-1.5-11.8-6.6-8.4-14.3c3.8-8.7,8.4-17.3,13.7-25.2
			c2.5-3.6,4.7-11.5,12-7C1635.1,1521.4,1640.1,1526.3,1643.1,1528.8z"/>
		<path class="st0" d="M138.8,1986.7c-6.1,6.4-0.1,17.4-10.6,18.5c-11,1.2-38-23-36.6-32.2c1.5-10,13.7-11.3,17.4-10
			C121,1967,129.3,1977.4,138.8,1986.7z"/>
		<path class="st0" d="M1584.3,1617.7c7.2,6.4,25.9,0.4,20.9,17.8c-3,10.7,6.6,30.3-16.8,31.3c-8.1,0.4-11.6-1.4-11.4-9.6
			C1577.4,1644.1,1578.1,1631.1,1584.3,1617.7z"/>
		<path class="st0" d="M1794.5,2046.5c8-19.7,21.5-26.1,39.9-18.3c8.7,3.6,6.4,12.9,7.4,19.6c1.3,8.2-6.8,6.7-11.8,7.3
			C1821.5,2056,1808.3,2052.6,1794.5,2046.5z"/>
		<path class="st0" d="M1918.1,1730.7c0.2,10.3-2.3,18.8-6.2,26.8c-2.2,4.7-4.8,11.5-11.8,5.9c-5.1-4.1-15.7-4.6-13.1-14.6
			c2-7.9,4.5-15.5,6.2-23.5c2-9.6,12.1-7.7,18.8-7.6C1921.5,1717.8,1917,1726.6,1918.1,1730.7z"/>
		<path class="st0" d="M195.8,2017.9c-1.4,5.3,1.2,12.9-8.9,12.7c-11.1-0.3-37.5-15.6-34.7-20.8c3.5-6.6,8.5-18.4,16.9-14
			C178.9,2000.7,197.4,1998.2,195.8,2017.9z"/>
		<path class="st0" d="M70.4,1816.2c4.2-10.4-1.3-25.3,13.3-27c5.8-0.7,20.6,1.9,16,15.4c-3.6,10.8,4.7,30.3-19.2,28.7
			C65.1,1832.3,75,1820.9,70.4,1816.2z"/>
		<path class="st0" d="M1581.7,1857.5c-1.1-10.8-0.8-16,9.6-16.7c23.2-1.4,15.7,18.7,19.7,28.9c3.4,8.8-11.9,15.3-15.8,14.3
			C1580.8,1880.2,1584.3,1865.1,1581.7,1857.5z"/>
		<path class="st0" d="M1917.3,1588.5c0,9.5,2.5,18.4-12,18.7c-16.2,0.3-14.6-9.3-15-19.8c-0.4-10.9,1.1-17.8,15-17.6
			C1922,1569.9,1916.3,1581.2,1917.3,1588.5z"/>
		<path class="st0" d="M1613.7,1923.5c14.7,2.6,17,16,21,25c2.4,5.4-7.2,18.8-13.2,16.9c-12.7-4-19.6-16.7-22.4-29.8
			C1596.4,1922.6,1609.7,1928.9,1613.7,1923.5z"/>
		<path class="st0" d="M1717.9,1295.4c-1.7,9.6-7.8,15.3-16.9,14.8c-11.2-0.6-22.6-4.6-23.2-18.2c-0.4-10.2,8.5-13.9,17.1-13.3
			C1705.3,1279.5,1715.2,1282.9,1717.9,1295.4z"/>
		<path class="st0" d="M1943,1224.3c8.1,1.3,19.8,2.3,20,17.3c0.2,10.8-7.9,13.7-16.6,13.5c-10.9-0.3-20.7-4.1-21.8-16.9
			C1923.7,1227.6,1930.3,1223.6,1943,1224.3z"/>
		<path class="st0" d="M1645.3,1988c11.3-11.2,21.3-15.1,35.2-1.3c9.8,9.7,3.4,16.5,0.2,23.2c-5.2,10.7-12.3,1.4-16.2-1.8
			C1657.4,2002.3,1648.3,1997.9,1645.3,1988z"/>
		<path class="st0" d="M1915.9,2024.6c13.6-4,14,4.2,14.5,14.2c0.6,12.6-7,13.6-15.6,12c-6.5-1.2-18.6,4.1-16.9-10.5
			C1899.2,2030.1,1900.3,2018.7,1915.9,2024.6z"/>
		<path class="st0" d="M1916.5,1501.5c-0.6,1.9,5.8,12.9-9,12.7c-12.4-0.1-17.3-5.1-15.8-17.6c1-8.1-1.3-16.2,12.2-16.1
			C1916.6,1480.6,1919.5,1485.8,1916.5,1501.5z"/>
		<path class="st0" d="M1905.3,1651c12.5-2.4,12.7,5.3,13,14.5c0.4,10.6-1.7,16.3-14.4,16.1c-13.1-0.2-11.3-8.2-11.7-16.4
			C1891.7,1655.5,1893.2,1648.5,1905.3,1651z"/>
		<path class="st0" d="M1070.1,1175.2c-43.9,14.7-85.3,22.5-128.2,21.9c-52.9-0.8-102.4-13.3-146.6-42.8
			c-51.5-34.4-74-81.9-62.4-143.8c12.9-68.8,44.9-125.4,105.7-162.9c6.9-4.2,15.2-17.3,24.9-0.6c8.5,14.7-2.4,17-10.9,22.5
			c-61.8,40.3-92.6,99-95.6,171.4c-2,49.5,28.4,80.8,69.7,101.1c101.6,49.9,199.7,33.8,293.2-22c81.2-48.4,135.6-121.7,180.6-203
			c3.3-6,4.1-17.2,14.3-14.5c9.8,2.6,21.1,5.3,11.9,22c-47.8,87-106.2,164.3-191.9,217.7c-8.3,5.2-15,11.8-21,19.5
			c-56.8,73.7-95.5,155.8-116.3,246.5c-1.5,6.5,2.3,18.7-10.7,18.9c-15.6,0.3-19.4-6.9-15.8-22.3c17.4-74.5,45.8-144.2,86.5-209
			C1061,1190.2,1064.5,1184.4,1070.1,1175.2z"/>
		<path class="st0" d="M1026.9,1022.3c-42.5-0.3-59.9-21.6-53.8-55.3c3.9-21.5,16-38,32.7-50.8c25-19.1,54.6-28.8,84.2-37
			c20.4-5.6,40.5,10.3,45.1,32.4c2.7,13.1,2.2,26.4-4.3,38.2C1106.5,993.8,1069.3,1018.5,1026.9,1022.3z M1020.5,996.2
			c31.6-0.4,74.9-29.6,86.8-58.6c4.2-10.2,5.6-20.5-2.8-28.9c-7.1-7-15.3-2.8-23,0.4c-12.7,5.2-25.6,9.8-38.1,15.4
			c-19.5,8.6-35.7,21.2-43,42C993.4,986.5,1000.5,996.4,1020.5,996.2z"/>
		<path class="st0" d="M810.1,1434.6c-39.3-0.1-65.4-14.9-71.5-40.5c-5.5-23.2,14.6-53.5,45.1-70.1c18.1-9.9,37.1-14.1,57.5-13.2
			c29.9,1.2,54.2,21.7,58.1,49.1c4.2,29.1-12.5,57.2-40.7,66.7C843,1431.8,826.8,1435,810.1,1434.6z M812.6,1407.5
			c11.4,0.6,25.1-0.7,37.9-6.2c15.1-6.5,25-18,23-35.2c-2.1-18.1-14.6-27.3-32.1-29.4c-17-2.1-32.7,2.9-47,11.7
			c-15.4,9.4-33,20.4-27.9,40.9c4.9,19.9,25.5,17,41.6,18.2C808.7,1407.6,809.4,1407.5,812.6,1407.5z"/>
		<path class="st0" d="M1123.3,1440.5c-34,1.8-51.3-19.7-42.1-52.6c6.3-22.7,21.3-38.4,41.8-48.6c14.7-7.3,30.4-12.7,45.5-19.2
			c15.5-6.7,29.9-5.6,41.6,7.1c11.6,12.5,14.8,27.3,9.5,44C1207.8,1407.9,1166,1438.2,1123.3,1440.5z M1121.1,1414.8
			c26.1,0.4,62.6-23.8,71.5-46.8c2.8-7.3,4.6-15.3-1-21.5c-5.6-6.2-12.5-2.2-18.9,0.5c-12,5.1-24.4,9.1-36.1,14.8
			c-13.9,6.8-25.3,16.9-29.8,32.3C1103.2,1406.7,1105.4,1416.5,1121.1,1414.8z"/>
		<path class="st0" d="M877.2,1897.8c2,8.9-3.9,10.8-10.2,12.2c-12.2,2.7-24.4,7.2-32,16.9c-11.2,14.2-19.6,5.1-26.4-2.3
			c-7.7-8.4,3.6-12.3,7.8-16.5c12.3-12.2,27.5-19.6,44.3-24.2C874.3,1880.2,878.1,1886,877.2,1897.8z"/>
		<path class="st0" d="M750,1896.6c-0.7-11.3,28.6-40.8,39.2-39.1c8,1.3,9.1,9.3,12.5,15.1c3.9,6.6-1.4,8.2-5.5,10.6
			c-8.3,4.8-16.4,9.6-20.9,19c-4.6,9.8-11.7,0.4-17.7,1.3C753.1,1904,749.6,1901.6,750,1896.6z"/>
		<path class="st0" d="M725.3,1846.7c-2.7,10-18.4,11.1-22.3,22.3c-4.2,12.1-11.9,7.7-19.7,5.4c-9.5-2.9-9.2-8.3-5-15.7
			c6.2-11,14.6-20,25.5-26.3C716.8,1824.7,724.9,1829.3,725.3,1846.7z"/>
	</g>
</g>
</svg>
