<?xml version="1.0" encoding="utf-8"?>
<!-- Generator: Adobe Illustrator 23.0.0, SVG Export Plug-In . SVG Version: 6.00 Build 0)  -->
<svg version="1.0" xmlns="http://www.w3.org/2000/svg" xmlns:xlink="http://www.w3.org/1999/xlink" x="0px" y="0px"
	 viewBox="0 0 3000 3000" style="enable-background:new 0 0 3000 3000;" xml:space="preserve">
<style type="text/css">
	.st0{stroke:#000000;stroke-width:10;stroke-miterlimit:10;}
</style>
<g id="Layer_1">
</g>
<g id="Layer_2">
	<g>
		<path class="st0" d="M659.1,2232.7c-1.3-138.7-6.6-277.4-1.2-416.2c4-100.9,26.4-193.8,101.8-267c4.4-4.2,13.6-8.3,4.5-16.9
			c-38.4-36.1-46.1-85-53.8-133.2c-15.3-95.8-28.2-192-2.3-288.2c5.5-20.5,11.1-42.3,22.3-59.8c21-32.8,24.1-67.5,23.5-104.9
			c-1.4-87.7-0.4-175.5-0.5-263.2c0-13.1,1.8-25.7-15.9-31.7c-91.4-31-156.1-124.5-147.9-246.2c9.3-136.9,78.3-237.5,200.9-296
			c123.7-59.1,244.2-41.4,355.9,35.9c16.8,11.6,27.8,15,47.3,4.6c64.7-34.8,134.2-28.3,203.1-15.9c27.4,4.9,53.1,7.6,80.8-1
			c32.3-10,66.9-12.1,100-4.1c41.7,10.2,81.7,6.3,123.5-1c66.2-11.6,133.5-17.6,200.4-2.5c8.1,1.8,13.6-1.4,19.3-6.1
			c31.7-25.8,68.9-39.9,108.6-45.8c75.7-11.3,151.7-20.3,227.9-3.4c24,5.3,46.6,14.7,67.2,28.5c55.3,37.2,85.9,102.5,72.7,160.4
			c-14.8,64.8-65,90.3-123.3,104.1c-41,9.7-40.9,8.7-25.7,47.4c35.4,90.4,49.1,185.2,51.1,281.4c8.5,427.3,15.9,854.7,23.3,1282
			c3.1,178.5,5.1,357,7.8,535.5c0.9,56.3-2.5,112.6-14.8,167.3c-24.5,108.7-89,184.6-196.4,218.8c-110.8,35.3-224.6,37.8-338.8,21.3
			c-36.1-5.2-64.7-26.4-80.2-59.7c-8.6-18.6-17.5-16.4-32.5-10.6c-131.9,51.1-268.8,74-410.1,69.3c-30.4-1-61.1-4-90.8-10
			c-16.1-3.3-22,9.4-32.7,12.1c-122,30.6-244.8,54.9-361.7-16.5c-84.5-51.6-111.8-134.7-112.8-227.8
			C657.9,2526.5,659.1,2379.6,659.1,2232.7z M2306.5,294.3c-79.7-28-124.4-80.8-125.4-165.9c-0.1-9.8-2.6-15.5-13.6-15.3
			c-65.3,1.1-130.8,2.3-191.5,31c-18.4,8.7-37.2,19.9-42.9,41.1c-5.9,21.8-18.4,38.2-33,54.1c-61.9,67.2-100.3,146.1-112.7,236.4
			c-3.3,23.9-13.5,23.9-31.5,23c-24-1.1-21.8-15.9-19.4-31.8c11.8-76.9,39.5-147.5,84.6-210.8c13.6-19.1,28.9-36.9,44.2-54.7
			c6.8-8,14.5-15.5,10.6-26.7c-4.3-12.4-15.8-5.5-23.6-5.8c-70.8-3.1-140.3,4.9-209,22.7c-16.4,4.2-26.5,12.2-34.9,26.3
			c-47,78.4-68,163.2-61.8,254.2c1.8,26.4-15.8,19.1-29.1,22.2c-16,3.7-21.3-2-22.4-18.2c-2.6-37.9,0.1-75.5,5.8-112.7
			c9.9-64.7,34.5-124.6,68.8-180.9c-73.2-18.6-156.9,13.7-203.6,83.9c-73.8,111-107.7,233.9-100,367.9c7,120.2,10.9,240.5,5.5,360.9
			c-0.4,9.4-3.5,19.6,3.3,31.2c5.6-10.3,10.2-19,14.9-27.6c105.4-191.5,351.3-257.9,529.8-143c149.4,96.1,193.5,295.5,96.4,436.9
			c-6.9,10-11.8,30.8-31.2,14.1c-12.7-10.8-29.6-16.7-12.4-41.8c69.1-100.7,56.5-236.5-29.2-323.4
			c-184.8-187.3-468-64.1-529.2,130.8c-32,102,8,190.4,105.1,235c21.2,9.7,43.4,17.6,65.8,24.4c101.5,31,205.7,40.6,311.4,36.4
			c151.2-6,284.4-51.9,380.2-176.5c17.2-22.4,26.6-4.5,39.6,2.2c19.6,10.2,8.4,20.3,0.4,30.6c-64.1,82.3-146.1,140.1-246.4,167
			c-191.2,51.2-379.7,36.1-564.1-34.1c-44.8-17-82.3-45.1-110.5-84.1c-11.6-16-20.2-34.2-30-51.1c-2.5,1.1-4,1.3-4.1,1.8
			c-0.9,4-1.8,7.9-2.2,12c-8.7,84.7-35.7,162.4-83.9,233.3c-38.9,57.3-74.7,116.7-97,183.1c-11.9,35.5-15.6,71.5-9.4,108.5
			c9,52.9,31.2,76.2,83.5,86.1c21,4,42.3,7.3,63.6,8.6c52.6,3.2,101.4-7.4,142-43.9c45.5-41,48.5-112.6,0.1-140
			c-31.6-17.9-29.7-36.9-23.2-63.2c48.1,9.2,76.8,30.9,95.5,72.1c29.3,64.5,7.5,137.5-55.2,183c-58.1,42.1-123.8,49.3-192.6,40.3
			c-12.7-1.7-24.3-5.7-24.7,14.5c-1.1,52.2,0,104.1,17.2,154.2c8.8,25.6,24.9,44.2,53,49.6c19,3.6,37.8,8.1,56.9,11.1
			c37.2,5.8,74.8,9.9,110.1,24.2c65.8,26.5,85.3,71.1,59.7,136.6c-2.5,6.4-8.2,12-4.9,22.7c90.4-11.3,163.7,28.1,228.1,86.5
			c107.4,97.3,135.8,186.3,79.6,306.6c-7.7,16.5-13.8,34.1-18.2,51.8c-15.6,62.8,7.1,102.1,70.8,108.7c93.6,9.7,187.4,7.1,279-18.9
			c105.6-30,163.2-101,180.3-208.4c12-75.1,10.2-150.4,8.9-225.9c-5.5-317.2-9.7-634.4-16-951.6c-5.4-277.4-3.4-555-18.5-832.2
			c-4.4-79.8-22.2-157-54.2-231c-10.3-23.9-23.2-25.9-44.3-18.1c-56,20.6-92.8,61.3-119.7,112.4c-32.4,61.7-41,129.8-50.1,197.4
			c-2.2,16.7-8.5,22.4-23.4,17c-11.6-4.3-32.4,4.4-27.9-23.7c10.2-63.4,17.8-127.2,43.4-186.9c46.8-108.9,125.1-174.1,247.5-181
			C2246.1,317.9,2278.9,316.6,2306.5,294.3z M1084.4,2877.5c-80.7-65.3-78.2-149.4-65.4-235.1c6.9-46.2,17.2-92,27.8-137.6
			c3.4-14.7,5.6-22.6-13.9-22.3c-130.6,1.7-273.3-123.8-227.3-316.3c29-121.5,139.5-210.7,272.8-223.4c9.7-0.9,26.6,4.8,26.3-12.1
			c-0.3-15.6,11.1-33.3-13.3-46.7c-41.6-22.8-61.9-63.1-71.7-108.9c-18.5-85.9,13.8-160.3,51.8-233.5c7.3-14,15.3-27.6,24-43.4
			c-52-4.3-98.3,3-144.2,12.2c-133.5,27-213.3,105.9-235.1,233c-7.7,45.2-9.7,91.2-9.6,137.2c0.6,213.2,0.6,426.4,1.4,639.5
			c0.2,62.2-1.4,124.3,5.2,186.4c10.2,95.3,59.5,155.9,152.3,179.9C936.8,2904.6,1007.3,2894.3,1084.4,2877.5z M1521.8,2368.9
			c3.8,95.1-30.1,169.5-96.8,229.4c-51.9,46.6-114.2,73.4-179.4,95.4c-18.6,6.3-25.2,0.6-30.1-17c-4.6-16.6-7.7-26.7,14.8-32.8
			c48.3-13.2,94.1-33.4,134.9-63c59.6-43.3,99.1-99.1,105.3-174.6c3.2-38.8-0.7-42.4-39-36.4c-25.1,4-46.7,3.2-66.7-18.2
			c-15.1-16.2-39-21.2-61.9-22.2c-85.9-3.7-139.4,45.5-176.2,114.6c-45.4,85.2-59.4,179.5-62.9,274.5
			c-3,81.9,33.9,126.2,115.8,137.8c168.2,23.9,330.7-1.9,487.9-64.7c8.7-3.5,17.3-6.9,18.3-18.1c3.8-42.4,24.3-79.5,37.9-118.8
			c10.1-29.3,17.8-59.3,6.7-89.7C1694.3,2466.5,1620,2408.4,1521.8,2368.9z M805.8,952.5c58.6-43.5,119.5-65.6,185.1-72.8
			c20.7-2.3,24.2-8.7,23.6-28c-3.1-104.1-0.8-208.2,13.7-311.5c9.1-65-7.2-123.7-44.1-176.1c-24.9-35.4-61.1-56.7-105.6-47
			c-43.9,9.6-62.4,45.2-73,85.9c-8.6,33.3-6.6,67-4,100.4c2.5,30.9-21.3,20-35.3,23.9c-19.4,5.5-15.4-9.7-15.5-19.9
			c-0.2-29.6-2.2-59.3,0.5-88.6c4.8-52.8,25-99,69.5-130.9c65.7-47.1,160.5-22.1,211.9,55.2c7.3,11,14,22.4,23.1,37.2
			c16-60.2,28.1-116.6,62.3-163.7c12.7-17.5,7.6-24.8-7.3-35.4c-160-113-384.3-43.2-452.7,141.6c-25.5,68.9-28,138.1,8.1,204.2
			c28.2,51.7,72.2,84,132.8,84c57,0,95.3-29.6,114.6-84c8.2-23.2,28.7-9.1,42.5-8.5c16.6,0.8,7.5,15.4,5.1,23.5
			c-19.1,64.9-63.7,102.1-128.5,117.4c-12.7,3-27.8,0.7-27.5,23.4C806.6,770.4,805.8,858.2,805.8,952.5z M1214,1192
			c2.8-83.2,5.4-159.4,8-235.5c0.5-15.2-11.5-14.5-21.1-16.2c-59.4-10.4-119.3-17-179.5-12.6c-134.4,9.8-251.1,72.8-272.9,241.4
			c-11,85.1,3.9,168.6,18,252c4,23.3,10.8,45.7,24.2,65.3c10,14.5,21.4,23.2,41,12.9c69.9-36.8,146.6-57.5,223.6-50.5
			c74.9,6.8,100.3-34.7,122.4-89.6c5.7-14.1,9.9-28.9,13.9-43.6c18.1-66.4,15.4-72.6-44.6-105.3c-107.8-58.7-233.8-32.2-311,68.8
			c-20.2,26.5-30.3,4.3-44-2.4c-21.1-10.2-3.2-20.5,2.5-28c58.8-76.5,136-117.7,233.2-119.6C1094.5,1128,1153.5,1150.9,1214,1192z
			 M1369.6,180.8c-22.2-1.9-43.1-5.2-64-5.3c-81.6-0.5-137.3,37.1-168.5,112.5c-12.5,30.2-20.8,61.7-28.1,93.5
			c-35,152.9-50.1,307.5-43.4,464.4c1,23.8,8.9,31.9,32,31.5c33.7-0.5,67.2,4.3,100.1,11.7c21.2,4.8,26.5-3.1,25.7-23.1
			c-2.7-63.2-2.3-126.5-6.6-189.6C1204.2,492.5,1243.1,324.9,1369.6,180.8z M949.4,2216.8c-3.4,73.3,52.2,134.4,125.9,137.9
			c29.4,1.4,54.7-3.2,79.8-24.8c63.8-55,137.4-67.5,216.7-34.7c7.8,3.2,14.4,10.5,24.1,0.3c30.9-32.7,22.9-73.1-18.9-90.3
			c-35.3-14.5-73.2-16.9-110.3-22.8c-53.1-8.5-105.1-18.3-131.7-74.6c-24.4-51.7-25.4-51.9-78.1-26.8c-18.3,8.7-36.1,19.2-52.2,31.4
			C970.5,2138.3,951.1,2173.1,949.4,2216.8z M848.6,2234.6c0,114.8,91.2,205.6,199,197.7c13.6-1,33.9,0.6,33.7-17.8
			c-0.1-14-19.4-8.6-30-10.8c-73.1-15.3-124.3-56.4-145.1-128.7c-20.9-72.6-3.3-136.4,52.2-189.6c37.1-35.5,82.2-55.2,129.7-71.5
			c7.4-2.6,21.6-1.3,18.8-14.9c-2.3-11.3-13.6-6.1-20.8-5.9C957,1997.6,848.6,2108.1,848.6,2234.6z M2232.3,137
			c0.1,51.3,40.1,95.7,93.1,108.1c21.1,4.9,24.5-3,23.3-21c-2.8-44.5-44.4-87.9-96.3-102.1C2234.6,117,2230.2,122.4,2232.3,137z"/>
		<path class="st0" d="M1596.1,1636.9c-67.1-7.6-121-40.2-151.1-106.2c-17.2-37.6,0.4-65,41.6-66c87.4-2.1,174.9-3.3,262.3-5.9
			c20.3-0.6,26.2,3.9,22.6,25.5C1754.9,1584.1,1675.5,1634.6,1596.1,1636.9z M1495.7,1513c25.5,50.8,70.6,76.1,117.7,71.1
			c43.4-4.6,82-34.7,91.9-71.1C1637.1,1513,1568.7,1513,1495.7,1513z"/>
		<path class="st0" d="M1584.1,1251.7c-64.1,0.6-97.6-45.6-78.3-104.7c4.1-12.4,9.6-24.5,15.7-36.2c20.4-39.7,48.7-58.6,79.8-54.4
			c59.1,8,88.3,30.8,97.2,75.7c6.8,34.5-15.6,80.2-50.4,100.4C1627.6,1244.4,1605,1250.1,1584.1,1251.7z M1611.7,1092
			c-19,15.9-42.5,27-50.3,53.6c-4.5,15.3-17,31.6-5.1,45.6c12.4,14.5,32.1,7.3,48.7,4.4c5.8-1,11.4-4.2,16.5-7.3
			c31.9-19.6,34.2-52.6,3.7-74.4C1616.4,1107.5,1616.6,1098.6,1611.7,1092z"/>
	</g>
</g>
</svg>
