<?xml version="1.0" encoding="utf-8"?>
<!-- Generator: Adobe Illustrator 23.0.0, SVG Export Plug-In . SVG Version: 6.00 Build 0)  -->
<svg version="1.0" xmlns="http://www.w3.org/2000/svg" xmlns:xlink="http://www.w3.org/1999/xlink" x="0px" y="0px"
	 viewBox="0 0 3000 3000" style="enable-background:new 0 0 3000 3000;" xml:space="preserve">
<style type="text/css">
	.st0{stroke:#000000;stroke-width:10;stroke-miterlimit:10;}
</style>
<g id="Layer_1">
</g>
<g id="Layer_2">
	<g>
		<path class="st0" d="M2649,884.9c109.7,87.6,130,208.1,123,336.1c-9.1,168.4-23.5,336.5-34.3,504.8
			c-14.1,220.9-34.2,441.5-35.1,663.1c-0.4,98.6,1.7,197.1,8.1,295.5c7.6,116.7-42.3,187.7-156.4,212.6
			c-201.6,44.1-371.4-13.9-509.7-166.4c-4.3-4.7-6.6-17-17.7-5.6c-68.2,70.1-153.4,111-245.1,140.2c-65,20.7-132.5,31.3-197.9,49.4
			c-24.4,6.7-47.9,6.9-71.8,10.4c-231.4,34.2-462.5,34.9-693.7-2.5c-63.3-10.3-125.8-23.1-187.8-39.8
			c-157.7-42.6-257.5-146.2-314-295.5c-50-132-57.2-268.2-37.2-406.7c0.4-2.7,0.4-5.5,1.2-8c8.4-25.9,1.9-46.3-16.8-67.1
			c-23.2-25.8-35.3-59.3-43-92.9c-16.9-73.6-31.5-147.9-33.3-223.7c-4.5-195.2,50.6-375.5,139.7-546.9
			c19.6-37.7,41.9-73.9,65.3-109.4c4.2-6.4,8.5-11.6-0.1-18.7c-58.6-48.5-77.6-115.6-82.8-187c-6.7-90.9-11-182-4.6-273.1
			c5-72.2,14.6-143.5,40-212C406.7,276.3,525.2,181.3,698,150.1c212.7-38.4,418.7-14.7,619.5,62.4c12.3,4.7,20.1,3.4,30.8-3.9
			c178.1-121,364.1-133.1,557.4-39.2c5.4,2.6,10.7,5.8,15.8,9c30.4,18.8,30.2,18.6,60-3c101.4-73.3,213.4-120.1,339.5-121.8
			c239-3.2,413.2,136.1,467.8,369.7c18.1,77.6,25.3,155.7,9.1,234.8c-17.9,87.6-63.5,158-132.6,213.9
			C2660.1,876.2,2654.9,880.3,2649,884.9z M1128.8,2900.6c35.1,0,70.2-0.2,105.3,0.1c10.9,0.1,19.2-3.6,26.9-11.2
			c74.9-73.4,143.7-152,205.5-236.8c6.7-9.2,7-15.3,0.5-24.7c-22.2-31.9-33.4-67.8-32.6-106.6c0.2-11.9-3.7-18.2-12.9-24.5
			c-38-26.2-68.3-59-84.3-103.4c-26.6-73.9,0.3-145.2,69.1-179.6c11-5.5,9.8-11.7,9.3-20.7c-6.3-111,66.5-187.3,176.1-184.3
			c8.8,0.2,13.3-1.4,16.4-10c16.9-45.7,51.6-68.5,98.4-76.9c17.5-3.1,41.6,8.6,50.8-6.8c8.6-14.3,3.9-36.8,4.9-55.6
			c5.3-102.4-5.8-202-51.1-295.8c-6.8-14-12.5-22.6-29-9.7c-9.2,7.2-21.7,10.9-33.2,14.5c-9.9,3.1-13.4,7.2-12.7,18.4
			c1.8,29.4-4.4,57.6-16.6,84.6c-52.5,116.5-231,170.7-348.1,105.2c-9.6-5.4-14.2-5-21.4,3.3c-26.6,30.7-59,53.2-97.8,66.1
			c-103.3,34.2-208.3-22.1-229.9-123.6c-6.7-31.3-6.6-63-2-94.7c1.6-11.2-0.4-17-13.7-18.4c-69.9-7-127.3-38.3-171.2-92.9
			c-9.2-11.4-13.2-8.9-20,1.2c-11.7,17.4-22.3,35.2-29.5,55.1c-24.9,68.4-17.8,138.4-10,208.2c6.8,61.7,15.7,123.3,9.9,185.6
			c-7.5,81.5-40.5,148.7-115.4,188c-70.8,37.1-145.5,43.2-221.4,16c-15.6-5.6-21.3-4.2-19.8,12.9c0.2,2.6-0.9,5.3-1.2,7.9
			c-16.8,124.8-11.5,247.8,31.1,367.5c52.7,147.9,151.2,245,307,282.5C818.4,2878.2,972.6,2896.4,1128.8,2900.6z M1622,2852.8
			c4.7,0,7.3,0.5,9.7-0.1c79.2-17.1,157.4-37.2,231.1-72c123.2-58.2,202.5-151.4,229.1-287.1c24.5-124.7,38.2-250.7,44.8-377.5
			c6.8-131.6,1.7-263.3-0.1-394.9c-2-147.8-5.6-295.7-6.9-443.5c-0.4-45.1-17.7-83.5-39.8-120.2c-29.8-49.8-73.9-85.6-122.9-115.3
			c-73.5-44.5-154.5-69.5-236.7-91.9c-230.3-62.6-462.4-76.5-697.4-30.7c-11.1,2.2-16.1,5.6-18.3,16.9
			c-15.8,79.4-60,138.6-129,180.3c-61.1,36.9-128.6,51-198.4,56.4c-79.2,6.1-158,5.8-233.7-22.7c-13.1-4.9-15.2,3.7-19.6,10.4
			c-71,107-124.2,222.2-159.5,345.7c-49.2,171.9-50.1,343.4,1.9,514.7c26.8,88.4,93.6,119.6,177,115.3c8.9-0.5,13.1-2.3,12.1-13
			c-7.7-74.6-10.8-149.4-12.3-224.4c-2.4-118.7,7.2-236.2,43.3-350c43.5-137.3,115.2-255.7,236.2-339
			c102.3-70.4,218.9-94.8,340.2-104c96.6-7.3,193-2.9,289.5,1.5c78.2,3.6,156.3,9,232.9,27.1c191.5,45.3,316.7,155.4,356.8,354.5
			c36.6,181.8,44.6,363.9,19.4,547.6c-37,269-133.1,514.7-290,736.4C1662.5,2799.8,1642.6,2825.2,1622,2852.8z M1327.7,2895.1
			c65.7-3.7,125.8-11.6,185.9-20.5c16.6-2.5,30.3-6.4,41.8-20.5c323-394.2,440.9-841.5,350.1-1343.7
			c-29.9-165.4-124.6-271-285.5-317.6c-62.5-18.1-126.5-27.1-191.4-30.9c-140.9-8.4-281.7-17.5-422.6,1.2
			c-127.1,16.9-239.6,63.2-327.9,159.1c-63.7,69.2-106.3,150.7-134.1,240c-56.4,180.8-44.2,365.5-30,550.3
			c0.9,11.1,5.1,11.3,14.2,7.7c52.8-21,85.5-59.7,100.6-113.8c13.1-47,10.4-95,6.3-142.8c-5-58.5-14.4-116.5-15.7-175.4
			c-2.7-119.2,41.9-213.8,142.2-280.7c35-23.4,72.8-40.5,112.6-53.6c79.7-26.1,162.4-32.7,245.2-38.9
			c110.7-8.3,221.3-11.6,330.9,10.5c143.5,28.9,254.3,102.3,315.9,239.2c30.6,68,42.1,140.7,45.9,214.5
			c5.7,110.8-9.1,219.7-34.7,327.1c-61.4,258.1-187.1,482.9-356.9,684.5C1391.7,2825.2,1360.9,2857.9,1327.7,2895.1z M2258.2,1858.9
			c0-81.7-0.8-163.4,0.2-245c1-79.1,5.6-157.8,35.7-232.6c40.9-101.8,110.2-171.3,220-195.5c64.2-14.1,128.8-11.5,193.5-5.1
			c14.9,1.5,17.2-3.2,16.2-16c-2.4-31.6-4.5-63.3-12.8-94.1c-20.8-77.4-59.9-140.6-139.5-168.8c-74.6-26.4-148.2-19-217.5,17.6
			c-101.6,53.6-156.7,144.9-194.9,248.9c-1.8,4.9-1.1,9,0.7,13.5c18.1,44,20.6,90.4,21.2,137.1c2.2,158.6,3.1,317.3,6.8,475.9
			c5.2,223,0.5,445.2-39.2,665.5c-13.3,74-30.6,146.8-76.4,208.9c-6.9,9.4-1.6,14.6,3.4,20.9c34.5,44.2,76.4,80.1,125.1,107.6
			c116.6,65.9,239.5,85.2,368.3,42.7c68.1-22.5,95-63.8,92.7-134.8c-2.5-76.2-6.4-152.4-8.7-228.6c-0.4-14-5.4-17-18.1-16.1
			c-42.6,3.2-85,1.1-127.2-5.2c-73.6-11.1-139-38.6-186.6-98.6c-39-49.1-51.3-107.3-55.1-168.3
			C2259.2,2079,2264.2,1968.9,2258.2,1858.9z M969.7,890.4c-25.1,8.9-48,16.2-72.2,19.4c-89.5,12-180.1-32.2-226.3-111.3
			c-47.5-81.5-42.8-181.1,12.9-253.3C745.3,466,830.2,425,924.4,402c76.9-18.8,154.1-12.8,230.1,9c7.8,2.2,16,8.7,22.3-3.6
			c28.8-56.4,67.5-105.4,112.4-149.4c-5.1-7.4-12.4-7.9-18.5-10c-156.2-55.4-316.5-78.4-481.8-60.5c-63.8,6.9-127.4,16.2-186.9,41.7
			C474.1,283.9,404.3,387,374.7,518c-33.1,146.5-29.1,295.3-8.9,443c12.9,93.9,66.1,142,158.9,158c65.9,11.3,131.7,9.4,197.6,0.5
			c64.8-8.8,125.3-28.3,175-72.3C943.1,1006.4,968.1,955,969.7,890.4z M2137.4,892.9c13.7,23.4,32.4,37.8,54.5,48.5
			c21.7,10.5,38.5,10.4,59.2-8.5c96.4-88.1,208-118.3,335-78.5c9.5,3,16.9,0.8,24.6-4.4c66.1-43.9,111.7-103.3,133.2-179.8
			c22.4-79.5,14.9-159.3-4.2-238.1c-35.3-145.9-115.1-255.7-262-304.4c-178.1-59.1-335.7-8.7-481,98.1c-8.6,6.3-6.8,10.7-1.2,17.6
			c41.6,51.6,66.4,110.8,77.2,175.9c2.7,16.2,7.5,20.1,24.6,15.6c57.8-15.1,116.3-23,176.3-13.4c127.1,20.4,202.1,124.5,175.5,246.5
			c-19.5,89.5-78.7,146.8-158.1,185.8C2243.4,877.2,2191.9,887.3,2137.4,892.9z M1498.3,853.8c76.4,9.4,147.4,24.6,217.8,42.4
			c26.2,6.7,48,9.6,74.9-5.4c48.7-27.2,95.5-55.5,133.5-96.8c84.4-91.5,115.3-200.9,105.8-322.8c-4.8-61.9-22.1-120.4-56.1-173.4
			c-8.5-13.2-14.5-18.7-30.6-8c-37.6,24.9-77.2,46.8-115.6,70.7c-68.1,42.4-139.4,79.5-204.4,126.7c-34.8,25.3-55.9,59-62.9,102.2
			c-4.6,28.1-6.4,56.2-7.7,84.5C1550.2,737,1546,799.8,1498.3,853.8z M1846,196.6c-55.6-28.8-158.5-45.1-231.4-37.1
			C1429,180,1298.4,279.6,1215.3,442.8c-72.9,143.2-46.4,281.4,66.9,382.4c10.2,9.1,18.2,10.9,30.2,4.4
			c74.5-39.9,119.4-99.3,124.5-185.6c1.2-20.9,2.5-41.8,2.5-62.7c0-71.8,25.9-131.3,81.6-177.6c94-78,198.2-140.1,306.4-195.8
			C1833.8,204.6,1841.4,203.1,1846,196.6z M2539.7,1800c0,1.3,0,2.5,0,3.8c41.8,0,83.6-0.6,125.4,0.3c13.8,0.3,18.1-3.2,19-17.5
			c3.9-66.6,9.3-133.1,14.2-199.6c4.5-61.2,8.9-122.3,13.2-183.5c0.5-7.4,3.8-16.1-9.9-17.1c-41.7-3-83.2-8.3-124.9-10.4
			c-91.5-4.7-145.7,34.4-167,118.8c-2.6,10.4-4.9,21.1-5.8,31.8c-7.9,86.7-6.2,173.8-8,260.7c-0.2,11.4,4.6,13.1,14.4,13
			C2453.4,1799.7,2496.5,1800,2539.7,1800z M2663.4,2075.3c0.3,0,0.7,0,1,0c4.7-68.6,9.2-137.2,14.2-205.8
			c0.8-10.6-0.7-16.3-13.1-16.5c-85.7-1.3-171.3-4.6-257-3.1c-9.2,0.2-13.4,3.1-13.4,12.8c-0.1,82.9-7.5,165.9,1.3,248.7
			c10,95,54.8,151.9,136.5,172.4c33.4,8.4,67.4,12.5,101.8,15c16.2,1.2,20.4-3.5,20.8-19.4
			C2657.3,2211.5,2660.6,2143.4,2663.4,2075.3z M689,671.8c-7,127.6,118.5,220.7,239.2,180.7c33.6-11.1,33.9-11.8,14.6-40.9
			c-15.7-23.6-34.8-44.7-47.8-70.1c-29.2-57.1-12.4-109.8,45.6-136.2c39.7-18.1,81.3-23.4,124.2-11c14.2,4.1,29,6.1,43.4,9.2
			c12.7,2.7,18.1-1.5,18.3-15.2c0.6-37.3,7-74,20-109c5.8-15.5,0.9-18.9-13-22.6c-133.7-35.4-255.4-10-364.9,72.9
			C720.9,565.6,689.6,612.4,689,671.8z M2343.1,1812.5c1.4,0,2.8,0,4.3,0c0-49.3-0.8-98.6,0.2-147.8c1-50.6,0.5-101.3,8-151.5
			c7.9-53.3,26.5-102.1,67.3-139.3c49.7-45.3,110.4-52,173.9-46.6c33.6,2.8,67.1,6.3,100.6,10.1c12.9,1.4,19.5-0.9,19.5-16.2
			c0-24.2,1.7-48.6,4.1-72.7c1.3-13.5-3.8-17.4-16.3-18.4c-48.5-3.8-96.8-7.3-145.4-1.8c-93.5,10.7-162.9,56.1-205.4,141
			c-27.3,54.7-40.4,113-42.8,173.5c-7.3,183.6,1.7,367.1,1.9,550.7c0,41.1,1.1,82.3,5.8,123.3c9.2,81.5,49,139.7,125.9,171.2
			c52.4,21.5,107.4,24.8,162.9,24.2c45.6-0.5,45-0.7,45.8-46.1c0.3-13.5-4.3-17.4-16.9-18c-30.3-1.4-60.6-4-90.4-9.9
			c-106.9-21-174.7-85-193.1-184.2c-7.2-38.5-10.1-77.5-9.9-116.8C2343.3,1962.3,2343.1,1887.4,2343.1,1812.5z M1829.7,926.7
			c57.5,20.5,112.2,41.2,162.2,72.2c50.6,31.4,95.9,68.8,132.6,120.5c19.6-45.7,42.4-85.7,68.3-124.4c-3.8-1.4-5.7-2.1-7.6-2.9
			c-70.9-27.6-116.1-89-116-157.7c0.2-73.5,44.5-135.6,116.8-163.8c11.3-4.4,22.6-8.7,33.5-14c12.4-6.1,25.1-14.3,23-29.8
			c-2.2-16.7-17.1-21.4-31.6-23.3c-43.1-5.8-84.3,2.8-124.9,16.6c-13.1,4.4-18.9,12.1-22.5,25c-25.3,89.6-74.5,163.7-145.8,223.5
			C1891.2,890.8,1862,908.6,1829.7,926.7z M2081.2,528.6c-0.3,6.1,0,12.2-1,18.2c-3.1,17.9,0.5,23.3,20.6,17.5
			c40.3-11.7,81.8-17.5,123.9-8.9c36.3,7.3,61.8,31.6,67.5,64c5.1,28.9-11.7,59.4-43.2,78.2c-14.5,8.7-30.3,14.5-46.2,20.1
			c-45.3,16.1-71.9,48.7-81.7,94.9c-6.3,29.9-2.5,33.2,27.1,29.1c6-0.8,12-1.7,18-2.6c74-11.3,140.4-37.8,191.3-95.5
			c77.1-87.3,68.3-241.5-87.1-272.4c-50.1-9.9-99.3-2.3-148.4,8.2C2082.8,487.9,2082.8,488,2081.2,528.6z M1386.9,1752.7
			c50.8-0.2,97.4-9.3,137.3-39.4c39.2-29.6,61.7-68.8,62.5-119c0.2-9.5-0.8-16.5-13.5-17.3c-41.2-2.6-76.7-19.5-107.2-46.8
			c-6.4-5.8-10.1-6-16.3,0.2c-31.6,31.6-70.7,48.1-114.5,53.4c-11,1.3-12.5,6.1-13.3,15.4c-3.1,39.9-11.3,78.8-29.1,114.9
			c-6.4,13-1.7,18.3,9,23.1C1329.6,1749.7,1359.2,1751.2,1386.9,1752.7z M972.2,1612c-4.3,32.2-7,61.4-2.5,90.9
			c7.6,50.4,35.8,83.2,84.7,97.8c43.8,13,84.2,3.9,121.3-21c54.4-36.6,81.1-90.5,92.9-153.1c7.6-40.6,6.8-39.5-30.8-55.7
			c-15.7-6.8-21-2.5-29.3,10.2C1160.3,1655.5,1039.4,1672.4,972.2,1612z M1227.6,845.6c-2-4.1-2.5-6.2-3.7-7.5
			c-46.4-49-78.9-105.6-91.8-172.4c-2.2-11.2-8.8-12-17.2-12.2c-21.7-0.7-42.8-4.7-63.4-11.2c-21.2-6.7-42.4-6.5-63.8-1.3
			c-60.8,14.7-72.5,44.6-37.4,95.9c1.9,2.8,3.9,5.5,5.8,8.2c25.2,36.4,53.9,71.1,60.1,117.3c1.1,8,5.3,9.2,12.7,7.8
			C1093.9,858.4,1159.3,850.3,1227.6,845.6z M1010.5,1477.3c-0.1,0-0.2,0-0.3,0c0,27.7-0.2,55.3,0.1,83c0.2,23.1,7.2,33.1,29.8,35.9
			c89.7,10.9,138.7-20.2,148.8-110.2c4-36.4-0.8-72.8,0.4-109.1c0.4-12.8-3.2-16.3-15.8-15.5c-49.1,3.3-98.2,6.6-147.1,12
			c-14,1.5-16.2,7.1-16,19.1C1010.9,1420.6,1010.5,1448.9,1010.5,1477.3z M1239.1,1417.4c3.4,33.9,1.5,59.4-2.3,84.8
			c-1.6,10.7,1.9,16.1,11.4,20.1c97.1,40.9,202-14.9,215.3-127.2c1.2-9.9-0.4-15.6-12.4-18.1c-65.6-13.7-131.9-19-198.7-18.8
			c-9.7,0-13.4,3.7-13.3,12.9C1239.2,1389.3,1239.1,1407.5,1239.1,1417.4z M1548.2,2315.9c0.4,27.8,16.2,66.9,46.3,100.3
			c6.1,6.8,11,12,17.2-0.8c41.6-84.9,77.3-172.1,103.3-263.1c2.8-9.9,2-14.4-10.6-14.2C1620.9,2139.7,1547.7,2214.4,1548.2,2315.9z
			 M1925,243.6c-18.9-18.1-18.9-18.1-39.3-8.5c-101.5,47.8-196.1,107.1-288.7,170.4c-76.9,52.5-116.2,119.3-109.5,214.4
			c4.7,66.6-16.5,127.8-59.6,180c-12.2,14.8-26.2,28-40.2,42.8c26.2,6.2,47.7,0.8,66.9-16.2c24-21.2,35.6-48.7,41.5-79
			c6.6-33.9,6.4-68.4,8.4-102.7c2-35.1,5.5-69.9,17.4-103.3c18.7-52.3,57-87.5,102.5-115.7c63.5-39.4,127.7-77.7,191.6-116.5
			C1852.1,287.4,1888.3,265.7,1925,243.6z M960.6,1471.9c0.2,0,0.5,0,0.7,0c0-25.7-0.2-51.3,0.1-77c0.1-8.8-1.9-11.8-11.5-9.8
			c-64,13.6-124.5,35-177.1,75.5c-7.1,5.5-10.9,9.2-3.6,18.9c41.1,54.4,97,79.9,163.4,83.2c27.6,1.4,27.8-0.8,27.9-30.1
			C960.7,1512.4,960.6,1492.2,960.6,1471.9z M1445.8,2453.1c13.5-32.1,31.8-58.5,57.1-79.7c3.9-3.2,6.6-6.6,4.9-12.1
			c-11.5-36.4-11.5-73.5-4.9-112c-13.5,0-25-0.7-36.3,0.1c-63,4.6-96.9,46-87.3,107.9C1385.6,2398.5,1411.2,2427.4,1445.8,2453.1z
			 M1513.5,1394.3c-2.9,28.8-9.4,55.5-22.3,80c-4.5,8.5,0.4,12.2,5.2,16.9c40.8,40.4,112.6,48.8,162.9,19.6
			c9.1-5.3,11.4-9.3,3.6-17.7C1621.6,1448.1,1572.4,1415.5,1513.5,1394.3z M1499.8,2199.1c16.5,5.7,27.8-3.6,37.3-20
			c8.8-15.2,20.6-30.2,35.7-37.9c31.1-15.8,31.7-39.8,26.3-68.7c-2-11-5.4-14.3-16.2-14.6c-60.5-1.9-111.9,43.1-118.3,104.3
			C1461,2195.6,1463.2,2198.1,1499.8,2199.1z M1647.5,2058.7c0.5,5.7,2,13.8,1.8,21.8c-0.3,13.8,5,17.2,18.2,13.5
			c16.2-4.6,33.2-6.9,50.1-5.7c11.8,0.8,15.3-4.7,17.1-14.5c5.2-29.2,10.3-58.4,16.2-87.5c2.7-13.4-2.6-15.9-14.7-16.1
			C1678.6,1969.3,1648,1998.6,1647.5,2058.7z M1506.8,2593.5c25.3-36.6,48.3-74.4,70.4-112.7c3.6-6.3,3.5-10.6-2.4-15.4
			c-17.2-14-30.8-31.4-43.7-49.4C1478.7,2463,1467.2,2546.3,1506.8,2593.5z"/>
	</g>
</g>
</svg>
