<?xml version="1.0" encoding="utf-8"?>
<!-- Generator: Adobe Illustrator 23.0.0, SVG Export Plug-In . SVG Version: 6.00 Build 0)  -->
<svg version="1.0" xmlns="http://www.w3.org/2000/svg" xmlns:xlink="http://www.w3.org/1999/xlink" x="0px" y="0px"
	 viewBox="0 0 3000 3000" style="enable-background:new 0 0 3000 3000;" xml:space="preserve">
<style type="text/css">
	.st0{stroke:#000000;stroke-width:10;stroke-miterlimit:10;}
</style>
<g id="Layer_1">
</g>
<g id="Layer_2">
	<g>
		<path class="st0" d="M349,1520.2c0-176.7-0.2-353.4,0-530.1c0.7-433.5,295.3-800.8,718.6-895.4c66.3-14.8,133.6-21.1,201.7-20.8
			c157.6,0.7,315.3,0.1,472.9,0.3c434.9,0.5,802.3,295,897,719.3c13.9,62.4,20.4,125.8,20.4,189.8c0,357.8,0.8,715.6-0.2,1073.4
			c-1.2,438.5-316.2,815-746.8,894.2c-57,10.5-114.7,14.9-172.8,14.8c-158.4-0.4-316.7,0.1-475.1-0.1
			c-443-0.7-816.6-309.6-900.5-744.7c-10.8-56.2-15.3-113.2-15.2-170.6C349.2,1873.5,349,1696.8,349,1520.2z M642.6,2646.4
			c3-5.3,4.7-7.7,5.8-10.4c71.5-169.2,100.6-345.3,84.7-528.3c-1.7-19.4,0.9-27.8,22.8-27.7c29.5,0.1,29.5-1.5,32.3,28
			c0.6,6.6,0.8,13.2,1.2,19.8c10.9,190-21.5,372.2-98.8,546.1c-4.7,10.6-3.8,16.6,5.1,24.1c27.5,23.1,55.9,45.1,85.2,65.9
			c12.6,8.9,17.9,10,23.6-7.1c49.4-146.4,80.8-296.4,95.1-450.2c8.5-91.4,10.3-182.9,4.9-274.6c-0.3-5.6-3.2-14.9,2.7-15.9
			c15-2.6,31.2-4.9,45.7-1.7c9.9,2.2,5.4,16.7,5.8,25.6c12.4,254.1-23.8,501.3-106.5,741.6c-6.2,18-2.6,25,13.5,33.3
			c110.4,56.9,227.4,88.6,351.2,96c13.3,0.8,19.6-4.7,26.1-14.8c140.4-216.1,201.6-453.1,187.5-709.9c-2.7-49.4-3.6-49.4,44.8-55.9
			c1-0.1,2.3,1.1,4.7,2.3c27.3,278.5-33.1,537.4-182.2,779.3c43.8,0,83.8-1.1,123.7,0.5c18.7,0.8,26.4-6.2,33.1-22.8
			c108.5-267.9,160.4-545.7,149.5-834.9c-1.3-35.6-0.9-34.9,34.6-36.8c14.4-0.8,18.6,3.3,19.2,17.7c8.5,176-7.9,349.8-44.5,522
			c-24.4,114.9-58.5,226.8-102.8,335.6c-7,17.1-2,19.4,13.8,19c33-0.9,66,0,99-0.3c76.2-0.7,152.5,3,228.5-6.6
			c15-1.9,22.8-8,30-20.6c131.6-233.3,194.4-483.6,187.4-751.4c-1.1-41.3-0.8-40.7,40-41.3c11.6-0.2,13.3,4.2,13.2,13.9
			c-0.5,49.8,1.2,99.7-1.2,149.4c-8.3,174.3-47.3,341.8-116.7,502c-18.8,43.3-39.6,85.7-60.6,131c48.7-10.8,93.7-25.4,136.9-45.2
			c6.2-2.8,8.2-7.9,10.7-13.1c42.2-88.8,75.9-180.9,101.4-275.8c46.1-171.3,66.2-345.6,57.2-523c-1.9-37.8-0.8-37.2,36.3-40.3
			c12.6-1.1,16,1.9,16.7,14.6c7,116,2.5,231.5-13.8,346.4c-18.8,132.2-51.1,261.1-100,385.6c-7.8,20-15.2,40.2-24.2,64
			c9.2-5,14.4-7.5,19.4-10.5c89.1-53,166.5-119.8,231.1-200.9c126.6-158.8,189.9-340,190.2-543c0.4-348.3,0.1-696.6,0.2-1044.9
			c0-41.9-1.6-83.6-7.9-125c-46.5-308.8-212.2-530.4-490.5-669.2c-4.6-2.3-9.5-7.3-16-3.2c-0.2,2.2-0.7,4.4-0.6,6.6
			c0.8,17.6,2,35.1,2.5,52.7c4.8,151.5-12.8,299.9-63.7,443.3c-27.9,78.5-80,137-156.6,169.4c-150.3,63.4-305.9,80.8-464.2,36.6
			C1197.5,854.3,1074.4,681,1083,461.6c3.9-98.9,34.6-189.6,82.6-275.1c9.9-17.7,20.5-35,31.5-53.8c-22.8-3.3-42.9,1.6-62.7,4.6
			c-419.1,64.2-730.4,423.2-731.8,845.8c-1.2,357.8-1,715.6,0.1,1073.5c0.6,187.6,58.5,357,170.1,508
			C593.7,2592.8,615.9,2619.9,642.6,2646.4z M1966.6,714.8c11.8-17,17.3-35.2,22.7-53c46.7-154.1,60.8-311.4,45.7-471.6
			c-1.3-14.1-9.8-15.9-19.5-19.2c-81.2-27.3-164.9-42-250.3-42.7c-160.5-1.5-321.1-0.5-481.6-0.9c-11.6,0-18.7,3.8-25.3,13.2
			c-44,62.8-80.8,129.3-101.4,203.5c-35.7,128.6-28.9,252.2,47.1,366.6c8.8,13.2,17.7,26.7,31.6,36.6
			c51.2-111.1,134.3-184,251.3-217c11.6-3.3,12.2-11.8,13.5-19.7c4.7-28.9,18.4-54.1,33.4-78.3c28.6-46,78.8-50.6,116.7-11.6
			c25.5,26.3,44.6,56.1,50.8,92.9c1.9,11.1,6.8,17.3,18.6,20.8c20.3,6,40.1,13.9,59.4,22.7C1855.5,592.3,1916.2,646.4,1966.6,714.8z
			 M1567.4,883.5c87.7-2.8,145.7-11,202.4-26.3c56.9-15.4,111.2-36.5,154.7-78.9c9.2-8.9,10-15.4,2.5-25.9
			c-79.9-111.1-184.8-177.7-324.2-182.6c-138.3-4.9-266.7,76.4-317.1,198.5c-6.6,16.1-4.1,24,10.3,33.7
			C1387,863.3,1488.5,884.5,1567.4,883.5z M1645.8,518.5c-0.3-12.8-5.5-22.6-11.7-31.3c-10.8-15.2-19.5-38.4-39.7-37
			c-17.9,1.2-21.9,24.9-30.5,39.8c-2.9,5-4.7,10.7-6.8,16.1c-2.8,7.1-1.7,11.6,7.3,10.6C1591.3,513.7,1618.3,515.9,1645.8,518.5z"/>
		<path class="st0" d="M1483.3,1221.8c0.3-41.7,33-74.5,73.6-73.7c39.2,0.7,71.3,34,71.6,74.2c0.2,40.5-33.8,75.4-73.1,75.1
			C1515.1,1297.1,1482.9,1263.4,1483.3,1221.8z M1599.6,1223c0.2-26.4-19.8-47.4-44.7-47c-23.6,0.4-43.6,21.3-43.9,46
			c-0.3,25.8,20.2,47,45.1,46.7C1580.6,1268.3,1599.4,1248.6,1599.6,1223z"/>
		<path class="st0" d="M1899.2,1245.5c-41.1,0.2-72.8-32.2-72.7-74.2c0.1-41,33.2-74.9,72.8-74.5c39,0.5,71.5,33.6,72.3,73.6
			C1972.3,1211.2,1939.5,1245.3,1899.2,1245.5z M1898.9,1126.1c-25.9,0-45.3,20-44.8,46.3c0.5,24.7,20.6,45.5,44.2,45.7
			c24.8,0.2,44.8-21.1,44.4-47.3C1942.5,1144.9,1924,1126.1,1898.9,1126.1z"/>
		<path class="st0" d="M1149.8,1194.8c1-35.4,31-64.5,65.4-63.5c35.6,1,63.7,31.9,62.5,68.6c-1.2,37-30.5,64.1-67.7,62.7
			C1175.3,1261.4,1148.8,1231.5,1149.8,1194.8z M1177.4,1194.9c-1.5,20,15.3,39.3,35,40.1c19,0.8,36.1-15.1,37.7-35.1
			c1.6-19.7-13.5-37.9-32.7-39.4C1196.4,1159,1179,1173.9,1177.4,1194.9z"/>
		<path class="st0" d="M2229.5,800.4c27.5-0.3,50.4,22.7,50.1,50.3c-0.3,26.6-22.8,49.6-48.8,50.1c-26.6,0.5-50.3-23.6-50.1-50.9
			C2181.1,822.9,2202.9,800.7,2229.5,800.4z M2229.8,871.4c13.6-0.4,20.7-7.6,20.8-20.6c0.1-13.8-7.1-22.5-21.4-22
			c-13.1,0.4-19.6,9-19.5,21.8C2209.9,863.4,2216.7,870.8,2229.8,871.4z"/>
		<path class="st0" d="M838.1,626.6c-0.5,27.1-22.4,49.4-48.7,49.4c-27.2,0-49.3-23.2-48.8-51.5c0.4-28.6,22.6-49.9,50.9-48.9
			C818.3,576.7,838.6,598.7,838.1,626.6z M788.8,647.2c13.3-0.5,20.7-8.3,21.4-20.3c0.7-13.2-7-22.9-20.5-23.2
			c-13.6-0.2-21.5,9.2-21.3,22.5C768.6,638.3,775.9,646.2,788.8,647.2z"/>
		<path class="st0" d="M2148.9,1039.3c0.4,27.7-22.5,51.5-49.4,51.3c-26.2-0.1-48-22.7-48.3-50c-0.3-28.7,21.4-51.2,49.2-50.9
			C2126.8,989.9,2148.6,1012.1,2148.9,1039.3z M2121.3,1039.2c-2.3-12.3-8.8-21.9-22.6-21.1c-12.3,0.7-19.8,9.4-19.5,21.9
			c0.3,13.5,8,21.9,22,21.3C2114.1,1060.9,2119.5,1051.7,2121.3,1039.2z"/>
		<path class="st0" d="M2284.7,540.4c27.1,0.1,48.3,21.4,48.6,48.8c0.3,27.1-21.1,49.1-48.1,49.2c-29.4,0.2-50.2-19.9-50.4-48.7
			C2234.8,561.1,2255.7,540.3,2284.7,540.4z M2304.7,588.1c-1.9-10.6-7.2-20.3-20.4-20.4c-14-0.1-21.2,8.7-20.9,22.7
			c0.3,13.3,8.5,20.4,20.9,20.4C2297.5,610.9,2303.5,602.1,2304.7,588.1z"/>
		<path class="st0" d="M881.7,849.8c-0.2,27.4-21.6,49.4-48.3,49.8c-27.6,0.4-49.6-22.2-49.4-50.7c0.2-29.1,21.5-50,50.2-49.3
			C861.3,800.3,882,822.2,881.7,849.8z M832.7,870.9c14.2-0.6,20.6-9.4,20.8-21.2c0.2-13.1-7.7-22.7-21.5-22.2
			c-13.7,0.5-21.1,10-20.1,23.4C812.8,863.2,820.1,870.8,832.7,870.9z"/>
		<path class="st0" d="M1010.7,977.2c-0.3,27.8-21.2,49-48.4,49.1c-27.8,0.2-50.1-22.6-49.7-50.6c0.5-28.1,23.2-50,51.1-49.1
			C990.8,927.5,1011,949.3,1010.7,977.2z M962.5,954.3c-13,1.4-20.7,8.6-21.1,20.9c-0.5,13.3,6.5,22.8,20.4,22.8
			c12.2,0,20.2-7.6,20.9-20.3C983.4,963.6,974.8,957,962.5,954.3z"/>
		<path class="st0" d="M1856.6,393.2c-44.2-0.5-78.7-35.8-78.6-80.5c0.1-45.7,35.4-80.6,81.2-80c43.1,0.6,79.1,38,78.4,81.4
			C1936.8,358,1900.2,393.7,1856.6,393.2z M1856.4,338.7c16.6-1.1,26.4-9.9,26.4-25.9c0-15.9-9.9-26.3-25.9-26.1
			c-14.9,0.1-24.2,9.5-24.6,24.9C1831.9,327.7,1839.9,337.3,1856.4,338.7z"/>
		<path class="st0" d="M1365.2,217.7c44.1-0.3,79.5,34.9,79.9,79.4c0.4,44.5-34.2,80.6-77.9,81.2c-45.2,0.7-81-34.8-81-80.3
			C1286.2,253.4,1321,218,1365.2,217.7z M1367.8,272.3c-18.1,0.3-27.4,9.6-27.6,25.5c-0.2,15.9,9.6,26.5,25.7,26.5
			c15.1,0.1,24.6-10,25.3-24.8C1391.9,283.7,1383.2,273.8,1367.8,272.3z"/>
		<path class="st0" d="M1592.1,747.7c-19,0-38.1-0.7-57.1,0.2c-12.3,0.6-16.2-3.3-16.4-15.9c-0.6-37.2-1.2-37.1,36.7-37.2
			c30.8-0.1,61.5,0.3,92.3-0.8c14.5-0.6,18.5,4.3,18.4,18.5c-0.3,35.2,0.4,35.2-34.2,35.2C1618.5,747.7,1605.3,747.7,1592.1,747.7z"
			/>
	</g>
</g>
</svg>
