<?xml version="1.0" encoding="utf-8"?>
<!-- Generator: Adobe Illustrator 23.0.0, SVG Export Plug-In . SVG Version: 6.00 Build 0)  -->
<svg version="1.0" xmlns="http://www.w3.org/2000/svg" xmlns:xlink="http://www.w3.org/1999/xlink" x="0px" y="0px"
	 viewBox="0 0 3000 3000" style="enable-background:new 0 0 3000 3000;" xml:space="preserve">
<style type="text/css">
	.st0{stroke:#000000;stroke-width:10;stroke-miterlimit:10;}
</style>
<g id="Layer_1">
</g>
<g id="Layer_2">
	<g>
		<path class="st0" d="M2205.1,1218c89.1,49.5,147.7,121.9,172.9,219.5c14.3,55.5,19.6,112.3,17.7,169.7
			c-3.9,120-13.3,239.6-30.6,358.4c-19.8,135.3-61.2,263.1-144.2,373.9c1.3,1.9,1.8,3.5,2.7,3.7c78.4,23.8,123.4,79.5,146,155.1
			c20.1,67.1,25.4,135.3,6.9,204.1c-18.4,68.4-62.2,113.1-128.9,134.4c-68,21.7-138.4,22.2-208.9,18.2
			c-88.7-5.1-174.5-23.5-257.7-54.6c-6.2-2.3-12-6.2-17.4,1.7c-43.2,62.1-108.6,86.4-178.1,102c-137,30.7-270.1,17.3-398.7-39.2
			c-11.9-5.2-19.2-4.7-29.5,4.2c-57.1,49.3-125.7,70.4-199.4,74.4c-89.1,4.8-177.6-3.3-264.9-21.6
			c-161.4-33.7-190.5-192.7-146.8-295.4c21.8-51.4,56.4-92.6,100.5-126.1c4.7-3.6,9.4-7.2,15.7-12c-22.9-14.2-44.7-27.5-64.6-43.8
			c-80.3-65.6-124-152.6-136.5-253c-45.7-368,72.7-669,372.8-893.5c4.7-3.5,9.3-6.9,16.4-12.1c-38.5-8.5-74.3-16.9-108.6-30
			c-99.2-37.9-179.3-97-219.9-199.5c-15.9-40-22.1-82-22.9-124.5c-1.7-94.9-4.1-190.7,23.6-282.4
			c76.4-253.2,247.3-407.2,503.4-467.8c59.4-14.1,120-21.9,180.8-26.6c114-8.7,216.4,22.9,306.8,92.6c9.6,7.4,14.8,7.5,24.5,0.1
			c99.4-75.4,232-82.8,340.2-19.5c8.1,4.7,12.7,6.6,19-2.9c75.1-112.2,230.9-135.6,350.6-51.7c112.4,78.7,169.9,240,134.4,372.6
			c-12.6,47.1-38.4,85.6-77.7,114.6c-7.6,5.6-12.4,9.2-6.5,20.2c97.2,182.3,56.1,396.1-87.9,530.4
			C2208.6,1212.7,2207.7,1214.5,2205.1,1218z M1328,2514.5c138.6-2.4,277.3,4.5,416-3.6c11.2-0.7,17.9-4.4,24.8-12.8
			c78.2-96.9,137.6-204.2,181.1-320.7c5.1-13.7,4-18.5-12-17.5c-32.4,2-64.8,4-97.4,0.5c-136.4-15-212.9-156.7-145.9-272.5
			c35.3-61,92.2-91.5,158.8-106c47.8-10.4,96.2-10.2,144.6-4.9c12.4,1.4,17.3-1.3,14.3-14.6c-3.1-13.6-4.4-27.5-7.3-41.1
			c-22.7-108.9-85.1-182.2-193.8-212.1c-44.9-12.3-91.1-17.3-137.7-18c-91-1.3-181.7,2.1-272.2,12.1c-136,15-254.3,65.9-348.4,168.1
			c-49.3,53.5-89.7,113.1-125.9,176c-34.8,60.4-59.6,125.8-93.2,186.8c-36.8,67-91.9,108.2-168.8,118.9
			c-47.9,6.6-95.3,4.3-142.5-4.2c-14.9-2.7-21.3,0.1-17.4,16.5c4.4,18.7,7.1,37.8,11.6,56.5c25.2,105,85.1,182.3,182.7,230.1
			c10,4.9,22.6-1.5,28.5,6.7c7.6,10.5,18.2,12.7,28.5,16.2c53,18.2,107.8,27.7,163.5,31.4C1055.9,2515.5,1192,2510.5,1328,2514.5z
			 M1261.7,202.4c-93.1,2.2-160.8,11.8-227.3,27.4c-224.2,52.4-379.5,185.1-456,403.4c-38.1,108.8-36.6,223.2-26.8,336.6
			c7.9,91.8,56.6,159.3,135.3,205.9c58.5,34.6,122.7,51.6,188.6,65.1c30.1,6.1,54.2-1.6,80.4-15.6c90.6-48.6,186.2-83.7,289.2-94.4
			c76.6-7.9,153.5-10.2,230.5-10c9.8,0,17.4-0.9,22.8-11.1c82.8-158.3,146.5-322.1,144.6-504.6c-0.9-84-21.3-161.7-73.2-230.2
			C1485.9,264.3,1377.3,203.3,1261.7,202.4z M1989.7,2457.4c6.2,2.6,10.5-1.8,15-3.8c56.9-26,106.5-62,148.2-108.6
			c81.5-91,126.7-199.8,151-317.7c30.3-147.3,38.9-297,43.2-446.9c1.3-45.7-5.4-91.3-17.7-135.7c-29.4-106.1-101.6-170.8-202-208
			c-81.6-30.2-166.9-40.6-252.9-48.9c-182.6-17.5-365.4-23.1-548.6-14.7c-95,4.3-186.4,22.3-274.1,60.1
			c-274.4,118.3-456.7,316.2-528.9,609.6c-19.1,77.7-27.4,156.7-23.7,236.7c0.3,7.3-2.3,15.9,10,17.9c45.2,7.6,90.4,13.8,136.5,9.3
			c10.5-1,16.1-5.3,19.4-16c8-26.6,17.9-52.7,26.6-79.1c40.3-122.4,88.4-241.3,158.5-350.2c104.7-162.7,247.2-273.7,438.1-316.1
			c152.6-33.9,306.7-34.6,460.9-11.5c98.8,14.8,192.2,45.6,275.2,102.6c93.4,64.1,159,147.5,175,263.4
			c10.5,76.4,3.7,152.4-8.4,227.9c-29.1,182.4-95.2,351.1-190.6,508.8C1996.3,2443.2,1990.3,2448.9,1989.7,2457.4z M1549.4,1119.4
			c68.7,3.2,135.4,6.2,202,9.5c8.7,0.4,13.2-5.2,18.3-10.1c68.4-65.9,120.8-142.8,152-232.5c52.5-150.7,58.8-304.5,25.7-460.3
			c-10.5-49.2-24.3-96.1-62.7-132.2c-77.4-72.7-219.3-81.1-312.8-11c-9.9,7.4-6.8,11.1-0.4,17.7c106.9,111,132.5,246.5,117.4,393.8
			c-10.9,106.4-44.8,206.7-83.5,305.6C1589.5,1040.5,1569.9,1079.4,1549.4,1119.4z M884.6,2895.6c48.5,2.3,93,0.6,136.2-11
			c83.4-22.5,146.6-67.5,166.6-157.2c11.4-51.2,6-102.8,1.3-154.4c-1.2-13.1-10.5-11.3-18.9-11.4c-66.3-1.1-132.6-1.6-198.8-3.3
			c-82.5-2.2-163.7-13-241.8-41.1c-8-2.9-14.6-3.9-22.4,1c-51.7,32.5-94,73.2-117.2,131.1c-41.8,104.1,12,205,121.5,227.2
			C769.5,2888.3,829.1,2891.9,884.6,2895.6z M1827.5,2502.7c14.2-2.2,23.4-3.4,32.5-5.1c12.4-2.4,24.6-5.3,37-7.7
			c9-1.8,15.3-6.4,20.4-14.2c136.8-205.1,223.4-427.7,237.8-676.1c8.1-139.4-44.4-247.7-161.1-324.7c-57-37.6-119.1-64.2-185.5-79
			c-171.4-38.3-343.4-39.7-514.8-1.2c-142.2,31.9-258.1,106.7-349.7,220.5c-81.3,101.1-135.9,216.1-180.1,336.6
			c-15.9,43.2-29.9,87.2-45.4,132.8c12.4-4.7,20-11.1,27.6-17.5c32.7-27.2,50.9-64.2,67.9-101.7c38.4-84.6,80.1-167.4,134.5-243.1
			c68.9-95.8,151.9-175.1,262.7-221.3c77.5-32.3,158.9-46,241.9-51.5c113.9-7.7,228-15.9,341.1,6.1c129.4,25.2,215,99.9,251.5,228.3
			c21.6,75.9,23,153.4,14.5,230.9c-22,201.6-91.4,385.9-207.3,552.5C1845.5,2478,1837.7,2488.5,1827.5,2502.7z M2095.9,2808.1
			c25.8-1.5,59-1.7,91.8-6.9c63.9-10.2,118.7-35,138.6-102.4c24-81,14.8-160.5-24.7-235.1c-21.5-40.5-55.9-66.5-102.2-75.2
			c-12.2-2.3-21.2,0.3-30.2,9.5c-26.1,26.5-55.3,49.5-87,69.2c-80.4,50.2-169.7,73.8-262.4,85.5c-19.8,2.5-23.3,8.8-20.9,26.9
			c6.7,50.9,8.4,102.1-5.1,152.2c-4.7,17.6,1.4,22.2,16.1,27.4C1900.1,2791.2,1993,2807,2095.9,2808.1z M1494.5,2562.3
			c-76.9,0-153.8,0-230.8,0c-27.9,0-27-0.1-24.6,27.4c6.7,75.2,8.5,150.1-30.9,218.7c-7.7,13.4,2.5,14.1,9.9,17.2
			c77.5,32.4,158.4,47.5,242.3,45.2c68.7-1.9,135.9-12.7,198.6-42.7c47-22.5,76.8-59,88.6-110.5c11.2-48.8,6.7-97.5,2.3-146.4
			c-0.9-9.6-6-11.5-14.8-10.9C1654.9,2565,1574.7,2563.4,1494.5,2562.3z M1826.5,1131.8c3.4,1.5,5.1,2.8,7,3
			c6.6,0.8,13.2,1.4,19.8,1.9c98.4,8.7,196.6,18.8,290.1,54.1c8.9,3.4,14.9,1.1,21.5-4.5c15.7-13.4,29.7-28.3,43.3-43.8
			c103.7-118.3,123.4-299,48.2-437.1c-6.1-11.2-11.6-13-23.1-8.8c-24.4,8.8-49.8,13-75.7,15.1c-43.9,3.4-87.4-1-131-5.3
			c-9.9-1-16-0.4-17.2,12.1c-3.9,40.3-10.8,80.1-21.7,119.1c-3.3,11.8,0.4,13.2,11,13c30.4-0.6,60.7-5,91.3-0.7
			c56.9,8,98.2,52.8,98.9,109.2c0.6,54.1-38.2,98.8-92.9,106.9c-29.7,4.4-29.3,4.4-26.9-25.7c1.1-14,4-21.9,21.3-23.6
			c25-2.4,42-18.7,48.6-43.6c9.5-36.1-18.1-70.8-59.8-75.1c-29.8-3.1-59.6,1.7-89.3,1.9c-15.7,0.1-23,4.9-28.7,19.8
			c-24.5,63.5-58.9,121.5-102.1,174.2C1848.6,1106.6,1837.7,1118.8,1826.5,1131.8z M2106.3,663.9c34.2,0.1,57.3-1,80.3-5.1
			c82.2-14.4,136-63.7,152-139.9c6.8-32.2,6.4-64.7,1.2-97c-17.1-105.8-64.8-190.2-168.1-233.8c-87-36.7-187.8-8-235.1,65.4
			c-5.5,8.5-8.7,14.9-0.4,24.3c28.8,32.6,44.6,72,53.6,113.9c7.6,34.9,13.2,70.2,19.2,105.4c1.2,7.3,2.3,12.1,11.4,12.5
			c27.1,1.3,54.3,4.8,81.4,4.7c22.6-0.1,45.4-3.6,60.3-24.4c30.1-42.3,10-121.2-38.5-140.3c-18.7-7.3-20.8-15.7-18.7-32.4
			c2.9-23.6,3.8-25,26.6-17.7c59.6,19.2,99.4,85.4,92.3,153.3c-7.3,70.1-45.9,107.2-117.1,110c-25.7,1-51.6-1.6-77.3-3.7
			c-12-1-14.7,2.9-14,14.3c1.4,21.8,2.4,43.8,1.2,65.5c-0.8,14.5,4.9,18.6,17.6,19.4C2061.7,660.2,2089.5,662.6,2106.3,663.9z
			 M1901,2111.4c12.6,0,25.2,0.6,37.7-0.1c36.6-2.2,36.1-2.5,43.6-38.4c2.1-10.2-0.2-12.4-10-12.3c-33.9,0.4-67.5-3.3-100.9-8.1
			c-57.3-8.3-83.2-39.8-80.9-97.6c2.5-64.5,35.4-102.2,99.4-110.9c37.5-5.1,75.4-2.7,113.1,1c5.9,0.6,12.2,1.8,13.1-7.4
			c1-9.3-4-11.3-11.8-11.6c-23.8-1-47.7-3.6-71.5-3.3c-51.6,0.6-101.3,9.3-146,37.9c-48.7,31.1-74.9,85.7-65.4,138.9
			c10.4,58.5,50,97.8,110.4,110.3C1854.7,2114.3,1877.8,2113.5,1901,2111.4z M1947.9,2012.3c9.9,0,19.9-0.9,29.7,0.2
			c13.8,1.6,20.3-2.9,22-17.4c3.4-29.5,8.5-58.8,12.8-88.2c1-7.1,0.8-13-9.1-13.5c-34.3-1.9-68.6-6.2-102.9-1.6
			c-45.4,6-62.5,26.8-61.8,73.1c0.3,19.7,8.6,32.4,28.8,36.7C1893.9,2007.4,1921,2008.8,1947.9,2012.3z"/>
		<path class="st0" d="M1190.4,1857.4c-24.5,3.4-47.2,6.6-70,9.5c-9.2,1.2-18.5,2.2-27.8,2.1c-33.5-0.3-31.2,8.8-30.4-31.2
			c0.3-12.3,3.3-17.1,16.9-17.3c58.9-0.9,115.9-12.2,170-35.9c10.5-4.6,16-3.3,19.7,7.2c2,5.6,4,11.3,7,16.4
			c6.3,10.6,3.7,15.6-6.8,23c-30.7,21.6-37,56.4-43.9,90.4c-5,24.6-9.1,49.5-15.9,73.7c-10.7,38.1-35.8,56.6-68.4,53.7
			c-14.3-1.3-21.1-7.8-10-19.5C1176.1,1981.3,1172.1,1916.7,1190.4,1857.4z"/>
		<path class="st0" d="M1539.6,2314.3c-3.3-14.1,2.3-20.9,20.5-20.3c16.3,0.5,32.8-2.8,49-5.6c11.2-1.9,16.4-0.1,18.6,12.6
			c6,35.1,6.7,35-29.5,38.6c-9.8,1-19.6,2.5-29.5,3.2C1540.9,2344.7,1540.8,2344.5,1539.6,2314.3z"/>
		<path class="st0" d="M1820.9,1678.9c-9.9-0.8-19.8-1.1-29.5-2.4c-34.4-4.8-33.5-4.7-26.1-38.7c2.8-12.9,7.8-13.6,18.7-11.7
			c17.5,3.1,35.3,5.5,53.1,3.5c9.9-1.1,13.7,2.2,15.4,12.3C1858.5,1677.7,1857.9,1678.8,1820.9,1678.9z"/>
		<path class="st0" d="M1625.8,1735.2c6.6,0,13.2,0.1,19.8,0c6.4-0.2,10.1,2.1,10,9.1c-0.3,9.9-0.3,19.9-0.6,29.8
			c-0.1,4.3-1.9,8.5-6.2,9.1c-16.4,2-32.9,3.4-49.4,4.6c-1.7,0.1-3.9-2.9-5.3-4.9c-1.1-1.5-1.8-3.6-2-5.6
			C1587.9,1736.4,1574.9,1741.1,1625.8,1735.2z"/>
		<path class="st0" d="M1794.6,2348.1c4.6,16.4-4,23.1-22.7,21.5c-7.1-0.6-14.5,0.7-21.6,1.8c-10,1.6-14.7-0.6-17-12.1
			c-7.1-34.6-7.9-34.5,27.2-38.2c2.6-0.3,5.3-0.5,7.9-0.7C1795.5,2318.5,1795.5,2318.5,1794.6,2348.1z"/>
		<path class="st0" d="M1522.4,1941.1c-1.3,33.7-10.1,40.2-43.1,32.1c-3.3-0.8-7.1-1-6.9-5.3c0.5-16.5,1.2-33.1,2.2-49.6
			c0.3-4.9,4.4-6,8.8-6c4,0,8,0.1,11.9,0.2C1523.5,1913.1,1523.5,1913.1,1522.4,1941.1z"/>
		<path class="st0" d="M1484.4,2136.3c7.7,1.7,22.4-5.2,26,3.3c4.7,11.4,6.3,28.7,0.6,38.6c-9.1,15.8-28.5,4.3-43.2,6.6
			c-5.4,0.8-14.7,3.8-15.4-6.8c-0.8-11.2-0.1-22.5-0.3-33.8c-0.1-6,3-8.1,8.6-8C1467.9,2136.4,1475.2,2136.3,1484.4,2136.3z"/>
		<path class="st0" d="M1100.4,989.6c-39.7,0.4-79-2.8-118.3-7.8c-97.3-12.5-159.9-77.6-166.4-175.3c-3.6-54.8,6.9-107.3,33.6-155.4
			c47.8-86.2,123.9-124,220.4-122.9c35.1,0.4,69.9,6.6,104.1,15.2c110.4,27.8,176.5,113.4,175.7,227.4c-0.2,24.6-2.4,48.9-9.3,72.7
			c-23.4,81.2-76.6,128-160.6,138.8C1153.4,985.6,1126.8,987.2,1100.4,989.6z M1078.4,939.7c37.3-0.2,69.8-1.1,101.9-6.5
			c50.9-8.5,87.8-34.9,106.6-84.3c11.3-29.6,15.2-60.2,13.6-91.7c-4.1-83.5-54.2-145-135-165.8c-32.2-8.3-65-14.4-98.1-14.5
			c-67.1,0-125,21.8-164.6,79.4c-29.6,43-41,92-38.5,143.3c3.5,74.3,38.8,113.8,112.2,131.2C1011.8,939.1,1047.5,938.8,1078.4,939.7
			z"/>
		<path class="st0" d="M1819.6,649.9c-0.3,129.7-33.1,260.4-100,382.8c-8.2,14.9-14.7,17.4-27.1,6.6c-2.9-2.6-6.6-4.6-10.2-6
			c-13-5-13.2-11.7-6.8-23.8c110.9-207.4,126.1-421.6,43.6-642.2c-4.9-13-4.7-21,10.5-24.4c5.1-1.1,10-3.6,14.5-6.3
			c9.5-5.7,14.6-4.2,19,6.9c26,65.6,43,133.5,51.3,203.5C1818.2,578.1,1819.2,609.2,1819.6,649.9z"/>
		<path class="st0" d="M1076.5,871.6c-34.4-0.8-68-3.1-99.5-17.7c-68.8-31.8-88.5-104.9-42.8-160.6c16.6-20.3,39.2-31.6,64.3-36.9
			c49.2-10.4,97.8-6.9,144.1,13.1c41.7,18,68.8,49.1,73.8,95.8c5.7,52.6-35.4,97.7-94.8,104.7
			C1106.6,871.8,1091.3,873.6,1076.5,871.6z M1079.5,822.7c17.8,0.5,35.7,0.7,52.9-5.1c34.2-11.5,45.5-44.2,26.1-74.8
			c-7.7-12.2-18.6-20.9-31.4-26.5c-39.3-17.4-80.2-21.6-121.9-10.9c-28.2,7.3-45.4,26.8-46.8,50c-1.4,22.7,14.1,43.2,41.3,54.9
			C1025.3,821.2,1052.3,822.7,1079.5,822.7z"/>
	</g>
</g>
</svg>
