<?xml version="1.0" encoding="utf-8"?>
<!-- Generator: Adobe Illustrator 23.0.0, SVG Export Plug-In . SVG Version: 6.00 Build 0)  -->
<svg version="1.0" xmlns="http://www.w3.org/2000/svg" xmlns:xlink="http://www.w3.org/1999/xlink" x="0px" y="0px"
	 viewBox="0 0 3000 3000" style="enable-background:new 0 0 3000 3000;" xml:space="preserve">
<style type="text/css">
	.st0{stroke:#000000;stroke-width:10;stroke-miterlimit:10;}
</style>
<g id="Layer_1">
</g>
<g id="Layer_2">
	<g>
		<path class="st0" d="M2689.4,1156.9c33.9,29.9,64.8,58,96.5,85c48.9,41.7,70.8,94.1,70.6,158.5c-0.6,206,0.4,412,0.8,618
			c0.2,89-18.7,119.7-103.6,169c0.2,1.8-0.2,4.4,0.8,5.3c71.3,59,95.7,135.9,88.4,225.8c-4.8,58.8-7.2,117.8-11.4,176.6
			c-5.2,73.5-37.8,133.7-98,174.9c-121.3,83-256.6,132-403.7,126.6c-312.5-11.5-624.3,20.6-936.5,10.9
			c-247.1-7.7-494.1-19.2-736.8-72.2c-101-22-193.9-66.6-285.3-113c-59.6-30.3-98.8-81-117.1-145.9c-45.5-161.8-43.3-323,9.3-483
			c7.2-21.9,6.7-41.4-8.1-60.2c-71.7-90.6-70.5-191-37.9-294.9c14.8-47.3,45.6-78,96.5-86.5c35-5.9,59.7-39.8,59.5-76.4
			c-0.1-11.4-5.8-13.2-14-15.8c-136-43.8-203.7-161.6-174.8-304.4c18.4-91.1,62.8-171.3,106.1-251.9c8-14.8,8.4-21.1-9.7-28
			C149,925,83.4,828,82.4,687.4c-0.7-92.7,3.2-185.4,18.9-276.7c30.4-176.9,191.8-323.9,370-343.3C567.1,57,662.4,63,757.8,70
			c173.4,12.8,347,23.7,519.7,42.8c76,8.4,147.1-7,220.2-16.3c68.6-8.7,136.6-6.9,194.3,39.9c9.8,8,19,3.5,28.8,1.5
			c214-43.3,430-67.1,648.6-63.1c66.2,1.2,132.6,5,196.4,23.7c161.2,47.1,258.7,157.7,306.2,315.3c6.6,21.9,5.6,46.4,5.9,69.7
			c1.6,120.1-1.3,240.3,4.7,360.2c6.9,137.6-57.7,230.1-169.1,298.3C2706.7,1146.2,2699.8,1150.5,2689.4,1156.9z M2462,1069.8
			c13.2,1.9,20.4,2,27.1,4c34.7,10.1,52.8-5.6,68.4-36c32.9-64.1,53.1-131.3,64.4-202.2c27.8-175.6-41.4-304.8-203.8-376.7
			c-24-10.6-48.4-20.1-74.5-25.4c-23.7-4.8-12.5-23.1-11.4-36.5c1.1-14.5,7.7-15.6,22.3-12.2c98,22.8,182.6,68,246.5,146.7
			c77.8,95.8,87.1,206.9,69.2,323.7c-11.8,77.2-35.1,150.3-75.2,217.6c-8.3,13.9-4.5,17.7,8.2,27c33.1,24.3,59.9,15.1,90.5-4.8
			c88.9-57.6,142.9-132,138.4-243.8c-5-126-4.6-252.3-6.4-378.4c-0.4-25.5-1.1-50.5-10.7-74.9c-60.6-154.2-180.5-258.9-374.5-268.6
			c-232-11.6-461,9.9-688.5,54.5c-20.2,4-22.6,11.6-18,28.4c6.8,25,5.2,50.3,1.1,75.7c-13.3,81.8-53.6,150.5-102.6,215.3
			c-10.4,13.8-18.4,21.9-35.8,6.1c-14.5-13.2-20-19.8-5.3-37.9c48-59.1,84.8-124.3,94.6-201.6c9-71-23.5-112.1-94.8-122.6
			c-51.3-7.5-101.2,0.3-151.3,10.1c-115.7,22.4-201.6,91.5-279.4,174.7c-110.8,118.4-234.2,219.9-385.7,282.9
			C716.3,639,661.7,670,610.5,707.1C428,839.5,318.7,1023.5,242.7,1230.6c-12.4,33.7-15.2,69.4-13,105.3
			c7.4,126.2,107.8,198.2,228.4,164c6.8-1.9,13.7-3.8,20.6-5.5c110-27,186.7,2.6,250.2,96.5c5.1,7.6,9.9,15.4,15.4,22.8
			c35.3,47.7,78.2,56,129.9,25.1c95.9-57.3,123.7-176.9,63.1-270.4c-12-18.5-24.5-31-50.6-30.8c-42.3,0.3-66.6-22.1-71.7-64.1
			c-8.7-71.8-7.1-144.2-4-216.3c1-23.8,13.9-48.7,38.7-47c45.6,3.2,42.5-22.7,40.1-52.2c-0.7-9.1,0.7-18.4-0.5-27.4
			c-2.7-20.8,10.6-20,24.6-19.5c13,0.4,27.2-3.2,25.9,18.5c-1.2,20.3,0.6,40.7,0.4,61c-0.1,16.5,11.4,16.1,22.8,17.6
			c14.5,1.8,13.1-8.1,14.3-17.2c2.7-21.1,2.2-42.7,10.4-63c21.2-52.4,0.4-117.5-49.2-146.5c-25.9-15.1-8.1-33.5-4.1-47.3
			c4.7-15.9,19.8-2.7,27.7,1.4c45.6,23.8,69.1,64.5,80.7,112.8c3.7,15.3,8.9,22.6,26.3,20.1c69.1-9.9,137.9-5.5,206.7,4.7
			c18.5,2.8,38.4,2.4,50.8-13.6c35.1-45.2,84.3-60.1,137.5-69.3c144.6-25.1,262.6,71.6,272.5,188.1c1.8,20.6,10.6,23.2,28.3,24.9
			c85.3,8.2,170.6,7.7,256.1,6.4c26-0.4,37.8-10,48.1-31.6c29.3-61.5,60.6-122,90.9-183.1c14.5-29.2,28.4-58.7,49.8-83.6
			c24.9-28.9,56.6-45.1,94.6-37.2c62.7,13.1,99.5,58.5,121.9,113.8c19.8,48.8-8.4,85.8-42.8,117.9c-5.9,5.6-11.7,11.3-17.3,17.2
			c-35.8,37.1-46.7,81.9-41.8,132.1c1.5,15.4,7,22.1,23.2,19c15.8-3.1,31.9-3.2,45.9-14c89.2-69,133.9-159.1,117.1-271.5
			c-17.5-116.8-89.6-190.2-201.3-225.4c-14.5-4.6-29.8-6.3-44.7-9.2c-25.2-4.9-11.1-23.9-13-36.8c-2.2-15.1,7.6-15.3,19.2-14.3
			c184,14.8,324.4,200.4,289.4,382.3C2546.4,955,2514.6,1014.8,2462,1069.8z M1950.1,1738.1c-3.4,7.1-6,10.5-6.7,14.2
			c-38,181.6-165.1,304-285.7,430.8c-9.5,10-19.1,17.5-28.7,1.6c-6.6-10.8-29.2-18.3-8.9-36.5c55.4-49.9,100.3-109.5,150.1-164.5
			c84.9-93.6,126.2-206.9,134.7-332.3c2.2-32.5-11.6-44.4-44.3-42.6c-38.7,2.1-63.6,25-79.3,58.1c-14.4,30.5-21,63.6-24.6,97
			c-11.5,109.6-46.6,204.4-155.7,254.4c-14.7,6.7-27.8,16.9-42.4,24c-14.9,7.2-17.6,14.8-9.9,30.5c19.2,39.4,27.8,81.8,14.1,124.4
			c-21.1,65.9-48.2,129.7-91.5,184.7c-55.3,70.3-129.6,116.2-206.7,158.6c-20.9,11.5-29.6,8.8-40.1-13.1
			c-10.8-22.5,3.4-26.5,16.9-33.1c125.9-61.2,216.6-152.4,266.8-286.7c28.9-77.4-27.4-192.7-114.6-193.2
			c-38.5-0.2-77.1-4.4-115.8-2.6c-76.2,3.5-152.4,6.9-228.6,10.7c-78.1,3.9-131.1-31.4-165.9-100.5
			c-31.7-62.8-55.9-128.4-78.5-194.7c-2.8-8.3-2-20-13.3-21.6c-51.2-7.3-77.4-45.1-103.2-83.4c-54.6-81-108.5-99.8-204-77.3
			c-38.5,9.1-68.1,19.9-66.3,66.3c0.2,5.7-2.2,12.5-5.6,17.2c-19.3,26.3-3.2,34,19.1,43.6c125.4,54.1,233.9,131,316.7,241.1
			c7.6,10.1,25.8,21.2,2.1,36.1c-17.2,10.9-26.8,17.4-43.1-4.6c-85.4-115.6-201.2-190.6-333.9-241.4c-35-13.4-80.1,0.7-97.8,28.6
			c-47.7,75.4-33.6,215,27.7,280.8c5.7,6.1,10.9,7,18.4,7.2c96.6,2.3,193.2,5.3,289.8,7.3c35.6,0.7,69.5,8.7,98.4,28.4
			c89.7,61.1,189.3,80.4,295.6,76.5c81.3-3,162.8-3.3,244.1-6.4c23.1-0.9,19.7,13.1,21.3,26.9c1.9,15.9-1,24.8-20.1,24.6
			c-26.4-0.3-52.8,2.9-79.3,3.1c-90.5,0.6-181.2,5.7-271.5-0.8c-73.1-5.3-139.7-32.7-202-71.3c-34.2,107.2-52,131.9-130.8,156.4
			c-87.5,27.2-174.4,59.8-267.9,60.4c-21.2,0.1-25,9.5-25.5,27.6c-1.9,71.9,8.5,141.8,29.6,210.4c15.7,51.3,45.8,91.4,93.5,115
			c87.3,43.2,175.2,86,271,107.7c158.2,35.8,319.3,49.7,480.6,60.5c220.6,14.7,441.3,12.2,662.1,6.1c73.8-2.1,147.5-5.2,230.7-8.2
			c-134.7-90.4-179.1-214.9-166.7-368.7c-69.9,63.7-143,100.6-229.1,109.9c-15.4,1.7-29,3.4-29-18.6c0-16.6-2.7-29.6,22.8-32.3
			c87.6-9.4,160.3-49.2,217.2-116.7c3.8-4.5,12.1-8,6.8-17.8c-8.4,5.3-16,10.2-23.7,15.1c-70.4,44.8-146.4,74.1-229.5,85.1
			c-18.6,2.5-28.5,0.6-30.3-20.8c-1.7-20.3,3.6-27.2,25.3-30.3c117.7-16.7,221.3-65.9,298.7-156.1c42.6-49.7,81.4-100.9,141.7-130.4
			c-26.1-37-26.1-37-52.4-4.6c-95.5,117.5-213.3,205.5-351.4,267c-17.3,7.7-28.6,10.6-37.1-12c-7.3-19.5-4-27.1,15.6-35.4
			c143.6-61.1,261.4-155.4,355.2-279.9c6.3-8.4,16.3-15.4,10.4-29.4c-7.7-18.1-13.6-37.1-21.2-58.5c-5.7,7.4-9.4,12-12.9,16.7
			c-70.1,94-154.2,172.9-254.8,233.7c-7.3,4.4-14.1,16.7-25.9,6c-20.1-18.1-19-37.6,3.4-51.5c111.6-69.4,202.1-160,271.7-271.5
			c7.6-12.2,13.3-24.1,12.4-39.6C1954.9,1849.6,1952.9,1795.7,1950.1,1738.1z M1946,1591.8c-1.4-60.3,6.9-115.7,11.5-171.3
			c13.7-164.9,119-288.6,281.2-326.5c28-6.5,44.5-14,33.8-46.7c-3.3-10-0.8-22.2,0.1-33.3c5-65,39.8-113.4,85.9-156.3
			c27.9-26,28.7-45.2,8.7-75.2c-54.7-82.2-103.6-79.4-148.2,8.8c-36.2,71.6-72.9,143-107.3,215.5c-17.4,36.5-43.4,54.1-83.5,53.8
			c-50.8-0.3-101.6,1.2-152.5,0.7c-16.3-0.1-24,1.5-28.2,21.3c-26.1,124-80.3,235.1-170.9,324.2c-183.6,180.6-402.2,220.4-644.9,150
			c-17.4-5-24.1-4.2-31.8,12.8c-27.2,59.6-69.7,104.7-132.2,127.9c-14.9,5.5-14.9,11.9-10.4,24.9c22.5,65.3,45.8,130.1,80,190.6
			c21.1,37.4,51.7,56.2,93.4,58.1c17.2,0.8,34.5-0.5,51.8-1.1c92.5-3.5,184.8-11.3,277.4-8.6c48.5,1.4,95.4,7.4,134.8,39.4
			c7.9,6.4,15.7,8,25.3,3.9c99.7-43.3,175.7-104.5,183.2-224.3c3-48.4,12.5-96.8,35-141.1C1774.9,1566.7,1868,1526,1946,1591.8z
			 M894.3,311.3c-86.2,16.8-165.7,32.8-245.4,47.6c-82.7,15.4-135.1,65.6-166.7,141c-14.6,34.9-25.8,70.8-28.7,108.5
			c-2.2,27.8-21.1,17.1-35.7,17.7c-20,0.8-17.4-12.4-15.3-24.6c3.8-22,6.9-44.3,13-65.7c36-127,110.9-212.1,248-232.9
			c67.2-10.2,133.6-25.1,200.4-38.2c61.5-12.1,72.9-24,84-86.1c7.2-40.5,7.2-40.5-34.4-45.1c-6.1-0.7-12.1-2.1-18.2-2.2
			c-48.7-0.5-98.1-18.3-145.6-5.5c-106.9,29-200.2,83.6-275.8,165.8C391.5,381.4,342.4,486.7,328,607.4
			c-2.7,22.9-12.6,21.6-29.8,19.6c-18-2.1-25.2-4.9-21.9-26.9c32.3-212.8,142.1-370.5,331.5-473c4.4-2.4,13-2.2,11.6-12.9
			c-46.3-5.2-92.5-0.9-138.8,3.1c-153.5,13.3-302.8,145.8-328.5,296.6c-16.2,95.3-22.5,192.1-18.5,288.8
			c4.8,115.7,67.7,195.4,174.1,228.2c8.5,2.6,17.4,8.8,24.8-1.3c29-39.8,57.7-79.7,88.6-122.4c-17.9,0-31.9-0.8-45.8,0.2
			c-15.3,1.1-20.6-4.3-22.7-20c-3.3-24.2,4.2-34.7,28.5-31.2c23.9,3.4,57.8-21.2,66.2,27.2c99.1-106.2,215.8-179.7,346-233.9
			c47.8-19.9,91.2-48.9,134.4-77.9c128-86.2,216.3-216.7,349.8-308.3c-92.5-7.6-177.1-14.5-261.7-21.5c-15.4-1.3-15.4,9.2-15.7,19.8
			c-2,67.5-35.2,124.5-64.9,181.7c-21.5,41.4-60.7,65.5-107.7,72.2c-34.4,5-67.1,15.6-100.3,25.2c-71,20.7-121.1,60.8-133.4,137.9
			c-4.3,27.3-25.1,13.7-38.6,14.3c-18.4,0.8-13.5-13.9-11.5-24.3c14.5-74.9,54-130.3,125.8-160.6c51.8-21.8,105.9-35.5,160.8-46.1
			C858.1,356.5,877.2,340.4,894.3,311.3z M2792.1,2406.5c7.4-56.6-7.1-126.9-75.9-178c-33.6-25-98.1-16.8-123.3,18
			c-63.8,87.8-110.2,184.5-145.6,286.8c-11.9,34.4-22.1,69.5-39.4,101.9c-7.5,14.2-19.7,21.3-34.6,20.5
			c-15.6-0.9-25.6-11.6-30.1-26.4c-2.6-8.7-4.7-17.7-6.1-26.7c-6.2-39.1-9.5-78.9-18.7-117.3c-30.5-126.1-100.7-222.3-218.5-281.2
			c-6.9-3.5-12.5-4.8-19.9-1.4c-66.5,29.9-137.8,89.6-145.8,184.4c-3.8,45.6-8.4,91.2-9.8,136.8c-3.2,102.4,30.5,189.6,112.6,254.2
			c53.7,42.3,117.9,56.4,184.3,64.3c162.1,19.4,313.2-13.1,454.2-93.9c65.4-37.5,103-93.1,106.4-170.1
			C2784.3,2528.8,2787.8,2479.1,2792.1,2406.5z M2803.3,1564.3c0-63.9,0.1-125.5,0-187c-0.1-38.4-18.4-67.8-46.2-92.4
			c-38.9-34.3-77.9-68.5-117-102.5c-32.1-27.9-68.7-46.7-111.2-52.9c-75.9-11.2-151.7-10.5-227.6,1.6
			c-170,27.1-266,115.9-290.9,277.5c-12.2,79.2-18.7,159.6-11.2,240.1c0.7,7.2-3.2,16.3,6.8,22c28.8-27.3,57.9-54.1,91.1-75.8
			c7.3-4.7,10.6-11.9,13.1-19.9c50.2-160.4,212-230.4,369.4-187.7c102.2,27.7,163.7,100.5,201.7,196.1
			C2716.3,1525.4,2745.3,1520.2,2803.3,1564.3z M2541,2095.8c-17.1,6.2-34,13.2-51.4,18.5c-111.6,34.2-275.5-89.6-292.5-187
			c-5.6-31.9-4.2-62.7,10-92.3c12.4-25.9,30.6-47.9,47.5-70.7c24.7-33.4,36.8-69.5,27.6-111.5c-9.3-42.8-61-68.8-100.2-48.8
			c-64.2,32.8-119.6,76.5-165.2,132.7c-11.1,13.7-15.1,27.4-14,44.7c4.2,63.9,6.7,127.9,10.8,191.8c6.8,105.4,93,201.4,196.6,220.8
			c51.4,9.6,103.4,6.7,155.1,8.2c127.6,3.7,250.4-22,369.9-65.1c32-11.5,58.7-30.9,66-66.1c12.6-61,2.9-122.4,2.1-187.3
			c-38.2,37.6-69.1,42.7-97.4,19.1c-23.8-19.8-28.8-54.2-11.9-79.9c8.9-13.4,21.7-21.5,36.7-25.5c28.4-7.5,49.2,8.8,70.7,27.4
			c0-67.3,0-130.8,0-199.6c-16.9,16.2-30.8,28.6-51.1,31.2c-20.2,2.6-35.2-10.6-51.6-15.3c-3.8,137.7-18.4,270.9-89.3,391.3
			c38.6,11.4,58.2,33.1,57.1,63.9c-1,29-23.6,53.8-53.2,58.2C2581.4,2159.4,2559.7,2141.7,2541,2095.8z M1484.5,992.8
			c0,44.8-0.6,89.5,0.3,134.3c0.4,17.7-4.4,24.6-23.6,25.5c-23.7,1.1-28.7-7.4-28.4-29.6c1.3-83.4,0.7-166.8,0.1-250.2
			c-0.1-7.4,8.3-22.8-11-20.9c-29,2.9-81.8,61-82.4,90.7c-1.5,75.3-4,150.5-3.2,225.8c0.3,26.3-7.7,31.7-32.5,31.2
			c-83.4-1.9-166.8-1.5-250.2-1.2c-8.9,0-25.9-7.3-22.8,13.1c9.8,65.1,26.1,127.4,96.7,153.7c137,51,265.8,36.4,382.4-54.2
			c80.8-62.7,124.4-151.5,161.2-243.8c47.6-119.3-33.6-233.2-162.3-230c-18.4,0.5-25.1,5.6-24.7,24.3
			C1485.2,905.3,1484.5,949.1,1484.5,992.8z M995.2,1292.8c-24.7,14.7-32,28-13.5,53.4c28.2,38.6,39.3,84.5,37.6,132.5
			c-0.6,15.5,3.4,23.9,19.2,28.6c124.5,37.2,249.7,46.2,374.5,4.7c211-70,328.7-224.6,385.5-432.6c1.6-5.7,2.7-16.2,0.2-17.5
			c-17.3-9.4-37.3-6.7-56.1-9.6c-15-2.3-14.5,10.2-18.1,19.3c-34.8,89.2-76.2,174.7-144,244.4c-102,104.8-228.1,141.1-370.1,123.9
			C1115.8,1428.4,1032.9,1394.2,995.2,1292.8z M2329.2,1631c20.8,76.7-7.9,134.3-51.4,187.6c-6.4,7.8-12,16.5-17.2,25.1
			c-23.1,37.8-21.1,75.6,3,111.8c33.8,50.8,80.8,85.6,138.1,105.4c45.4,15.7,89,9.5,126.5-21.3c32.6-26.8,57.8-59.8,72-100.4
			c23.4-66.5,32.4-136,44.3-205.1c24.8-143.6-81.6-337.2-299-304.1c-70,10.7-143.7,60.2-162.2,115.4c6.3-2.2,12.1-3.9,17.5-6.2
			c79.3-33.1,161.9-45.2,247.5-42.2c75.2,2.6,126.8,36.2,154.8,106.8c37.8,95.5,35.8,189.5-1.9,285
			c-37.7,95.5-110.1,113.4-197.3,101.8c-60.2-8-95.2-56.8-91-117.7c2-28.9,12.2-55.2,26.1-80.5c17-31.1,38-60,48.9-94.5
			c8.4-26.7-0.3-43.4-24.6-53.8C2353.9,1640.1,2344.4,1636.8,2329.2,1631z M2299.3,1566.6c28.4,10.5,57.5,19.8,85.2,31.9
			c49.9,21.8,67.4,62.3,51.9,114.8c-10.2,34.6-30,64.4-47.9,95.1c-11.9,20.4-21.9,41.3-25,65c-2.5,19.1,1.6,36.5,15.5,50.6
			c30.7,31.1,127.5,24.5,150.8-12.6c63.4-101.2,68.4-206.2,13.4-312.9c-10.5-20.4-26.1-36.9-49.6-42.4
			C2428.3,1540.6,2363.5,1546,2299.3,1566.6z M1156.6,1146.8c0,0.6,0,1.2,0,1.9c35.6,0,71.1-0.4,106.7,0.2
			c14.5,0.3,22.6-2.5,22.5-19.6c-0.1-63,0.7-126,1.7-188.9c0.2-11.5-3.7-15.6-15.3-17c-62.6-7.9-125.3-11.4-188.4-5.7
			c-36.4,3.3-51.5,16.9-53.4,53.4c-2.7,50.7-2.7,101.6-5.3,152.3c-1,19.8,7.4,24.2,24.9,23.9
			C1085.5,1146.3,1121.1,1146.8,1156.6,1146.8z M477.4,2077.9c0-2.2,0-4.4,0-6.6c-45.7,0-91.3-0.1-137,0.1
			c-8.7,0-17.9-2.3-21.6,10.6c-15.3,53.4-36.8,105-39.6,161.7c-1.1,23.1,2.5,32.1,28.5,30.4c91.2-6.1,176.3-35.5,261.4-65
			c44.6-15.5,66.9-48.4,73.7-95.2c4.2-28.5-5.7-36.5-31.7-36.1C566.7,2078.4,522,2077.9,477.4,2077.9z M859.4,1157.5
			c-0.2,0-0.4,0-0.6,0c1.4,29.4,1.7,59,4.7,88.2c1.5,14.6-4.5,34.1,18.3,40.2c21.5,5.7,40.4,0.7,57-12.9
			c16.7-13.8,22.3-33.3,24.5-54.1c5.1-49-3.3-97.3-6.5-145.9c-0.8-11.7-6.2-14.6-17.2-15.8c-79.8-8.6-80.9-7.9-80.2,72.7
			C859.4,1139.2,859.4,1148.4,859.4,1157.5z M2530.6,2243.1c-92.8,13.5-183.2,12.2-280.2,8.2c31.5,34.8,46.1,77.5,75.8,98.1
			c30.5,21.1,76.6,4.6,115.8,6.7c4,0.2,8.1-0.2,12.2-0.1c7.8,0.2,13.4-2.9,17.4-9.8C2490.5,2312.8,2509.7,2279.5,2530.6,2243.1z
			 M2384,2555.8c20.7-53.8,38.4-99.8,56.6-147.2c-31.2,0-59.9,0-90.8,0C2366.4,2454.7,2374,2501,2384,2555.8z"/>
		<path class="st0" d="M2403.4,249.1c201.1,13.9,328,141.9,339.4,333.9c0.4,6.1,1.3,12.4,0,18.2c-2.4,10.9,5.9,30-17.8,26.4
			c-16.6-2.5-35.6,2.7-34.6-27.6c3.3-96.3-32.4-177-108.1-237.6c-57.1-45.7-123.9-63.8-196.4-62c-15.6,0.4-29.9,2.4-31.3-21.4
			c-1.2-20.1,1.4-30.6,24.5-28.2C2390,252,2401.2,249.3,2403.4,249.1z"/>
		<path class="st0" d="M273.2,764.5c7.1,0,14.1,0,21.2,0c11.2-0.1,24.5-1.7,20.8,16c-2.8,13.4,8.4,35.7-19.8,35.1
			c-12.1-0.3-24.3,0.2-36.4-0.5c-16.4-1-36.2,7.5-35.8-24.4c0.4-31.8,19.4-26.2,37.9-26.3C265.1,764.5,269.2,764.5,273.2,764.5z"/>
		<path class="st0" d="M2175.1,2615.2c-57.6,0.6-101-41.8-101-98.5c0.1-55.2,43.2-98.7,98.4-99.3c56.2-0.6,101.9,44.2,101.7,99.7
			C2274.1,2571.6,2230.7,2614.6,2175.1,2615.2z"/>
		<path class="st0" d="M2686.3,2516.2c0.3,54.1-42.7,97.4-96.1,96.6c-52-0.7-94.3-43.4-94.5-95.5c-0.2-53.4,43.6-97.3,96.4-96.7
			C2644.4,2421.3,2686,2463.5,2686.3,2516.2z"/>
		<path class="st0" d="M2746.1,1419.3c-0.4,32.8-27.7,59.8-60.5,59.8c-32.8,0-60.8-27.2-61.2-59.5c-0.5-33.3,29.2-62.6,62.5-61.8
			C2719.5,1358.7,2746.5,1386.6,2746.1,1419.3z"/>
		<path class="st0" d="M2589.2,1333.4c-35.6-0.5-58.9-23.8-58.4-58.5c0.4-34.1,25.9-58.8,60.3-58.6c34.2,0.2,60.3,26,59.8,59.2
			C2650.3,1311,2626,1333.9,2589.2,1333.4z"/>
	</g>
</g>
</svg>
