<?xml version="1.0" encoding="utf-8"?>
<!-- Generator: Adobe Illustrator 23.0.0, SVG Export Plug-In . SVG Version: 6.00 Build 0)  -->
<svg version="1.0" xmlns="http://www.w3.org/2000/svg" xmlns:xlink="http://www.w3.org/1999/xlink" x="0px" y="0px"
	 viewBox="0 0 3000 3000" style="enable-background:new 0 0 3000 3000;" xml:space="preserve">
<style type="text/css">
	.st0{stroke:#000000;stroke-width:10;stroke-miterlimit:10;}
</style>
<g id="Layer_1">
</g>
<g id="Layer_2">
	<g>
		<path class="st0" d="M1167,75c135.1,4.2,270.3,12.3,405.4,11.4c85.1-0.6,170-17.9,255.5-18c211.7-0.1,410.2,47.2,579.2,180.9
			c124,98.1,211.8,222.2,240.2,381.6c7.6,42.7,8.6,85.8,5.9,129.5c-4.9,79.5,8.3,158.4,13.1,237.6c12.6,205.9,27.9,411.7,40.2,617.6
			c15.6,263,5.9,526.2,0.3,789.3c-3.9,182.8-75.9,332.4-218.2,445.6c-155.6,123.7-356,117.9-515.1-1.7
			c-116.1-87.2-157.7-206-171.8-342.2c-19.2-184.7-13-368.5,10.2-552.6c29.1-230.9-41.7-435.7-173.3-622.9
			c-7-9.9-15.3-11.8-26.1-12.7c-74.1-5.7-148-12.2-219.8-33.9c-12.4-3.8-26.6-2.3-39.9-2.3c-238.5,1.1-476.8,7.6-715.3,7.5
			c-110-0.1-200.7-41.2-279.6-113.1C103.3,944.7,37.5,499.9,406.5,215c89-68.7,185.4-125.1,299.8-137.8
			c59.1-6.6,119.2-5.3,178.9-5.9c93.9-0.8,187.9-0.2,281.8-0.2C1167,72.4,1167,73.7,1167,75z M2023.2,2815.9
			c2.8-76.2,5.3-149,8.1-221.9c7.4-193.9,15.2-387.8,22.2-581.7c0.7-19.2,5.6-25.6,26.5-26.2c34-0.9,26.1,21.4,25.4,39.1
			c-9.2,243.4-18.3,486.8-28.6,730.2c-4.5,105.3,6.2,119.2,112.5,131.2c8.2,0.9,16.5,1.3,24.7,1.8c41,2.7,41.1,2.7,41.9-37.6
			c5.6-278.7,11.4-557.4,16.2-836.1c0.4-22.4,7.4-27.1,28.2-27c19.9,0.1,23.9,6.8,23.5,25.2c-3.4,166.2-5.8,332.3-8.7,498.5
			c-2,115.6-4,231.2-7,346.8c-0.5,21.3,5.5,23.9,24.9,18.2c38.2-11.2,71.7-30.9,105.1-51.5c16.9-10.4,22.4-23.4,22.5-43.1
			c0.8-171.4,2.5-342.8,4.5-514.2c1.2-102.2,3.5-204.4,4.6-306.6c0.2-16.2,3.4-23.6,22.1-23.9c22.1-0.5,30,4.4,29.7,28.8
			c-3.4,252.9-5.6,505.8-7.8,758.8c-0.1,8.2-5.1,18.5,6.1,25.2c5-5.5,10-10.7,14.7-16c89.9-101.4,119.1-223.5,121.6-355
			c4.5-239.3,13.8-478.6,1.2-718.1c-12.3-232.9-28.8-465.6-45.1-698.3c-0.5-7.5,1.8-16.6-8.4-23c-2.7,4.5-5.2,8.8-7.7,13.1
			c-102.8,180.8-253.1,298.7-457.6,344c-114.8,25.4-231.8,22.7-348.3,24.3c-29.5,0.4-59,0.1-89.8,0.1c3.1,19.6,13.8,29.9,21.2,41.9
			c116.3,187.9,170.5,390.5,140.6,611.6c-25.2,186.2-27.9,372.2-4.6,558.7C1872.1,2649.2,1910.8,2750.9,2023.2,2815.9z M1428,136.1
			c-8.2-0.6-16.4-1.4-24.6-1.7c-196-7.2-392.2-8.4-588.2-12.2c-136.2-2.7-252.3,42.3-359.3,120.1c-42.1,30.7-81.6,64.5-118.2,110.2
			c15.9,0,25.8,0,35.7,0c101.2,0,202.3,0.3,303.5-0.3c18.4-0.1,30.5,0,30.1,25.1c-0.4,23.1-8.9,26.6-29.1,26.4
			c-118.7-0.8-237.4,0-356.2-0.8c-18.9-0.1-30,6-39.6,22.1c-35.6,59.9-62,122.8-74.2,192c-4.3,24.4,1.5,29.7,24.9,30.1
			c137.3,2.2,274.5,6,411.8,8.7c18.8,0.4,32.4-0.9,31.8,26.6c-0.6,28.8-16.5,24.7-34,24.4c-138.3-2.4-276.6-4.1-414.9-7.8
			c-23.5-0.6-27.4,6.8-26.5,27.6c2.8,68.8,17.8,134.6,42.9,198.6c7.9,20.2,18.5,27.7,40.9,27.5c154.9-1,309.7-0.3,464.6-0.8
			c19.8-0.1,32,0.5,31.7,27c-0.3,25.4-12.3,24.8-30.4,24.7c-143.5-0.4-287-0.3-430.5-0.2c-10.8,0-21.5,0.9-33.3,1.4
			c65.8,138.9,213.5,234.3,362.2,233.7c136.3-0.6,272.5-3.4,408.8-4.7c64.5-0.6,129.1-0.1,193.2-0.1c0.4-5.6,0.9-7,0.5-7.3
			c-6.5-5-13-9.9-19.8-14.6c-90.1-62.9-156.9-144.8-186.1-251.1c-73.5-267.8-2.1-496.4,195.5-687.9
			C1296.9,218.8,1361.3,176.7,1428,136.1z M1820.7,1269.4c57.2,1.8,119-3.1,180.8-6c193.3-9.2,354.2-84.7,480.7-232.9
			c147.6-172.8,160.8-403.7,33.2-589.3c-85.2-124-198.4-209.5-339.3-262.3c-160.9-60.2-326-66-494-49.9
			c-260,24.9-442.4,162.3-558.2,391.2c-59.3,117.1-69.3,244.1-43.4,371.4c40.7,199.7,172.8,309.4,365.7,353.1
			C1568,1272.3,1692,1271.2,1820.7,1269.4z"/>
		<path class="st0" d="M2262.2,1586.1c-71.6,4.7-140.5-63.7-139-138.6c1.5-77.4,62.9-140.3,139.6-140.2
			c75.6,0.1,140.1,64.9,139.9,140.6C2402.4,1525.1,2340.5,1586.1,2262.2,1586.1z M2350.6,1447.2c-0.3-49.5-38.6-86.4-89.3-86.2
			c-48.1,0.3-86.3,37.9-86.9,85.6c-0.6,47.8,39.9,88.8,88,88.9C2310.9,1535.8,2350.9,1495.8,2350.6,1447.2z"/>
		<path class="st0" d="M2262.5,1610.5c73.9-0.4,132.3,57.6,131.5,130.6c-0.8,71.5-59.6,129.9-130.6,129.7
			c-71.3-0.2-129.6-58.7-129.9-130.2C2133.2,1668.2,2190.1,1610.9,2262.5,1610.5z M2341,1738.5c-0.4-43.6-35.5-78-78.8-77.2
			c-43.3,0.8-76.6,35.8-76.1,80c0.5,44.9,33.2,76.4,78.9,75.9C2310.4,1816.8,2341.4,1784.7,2341,1738.5z"/>
		<path class="st0" d="M925.9,558c-73.2-0.2-128-54-128-125.6c0-70.9,57.4-128.8,127.6-128.9c70.2-0.1,127.5,57.7,127.6,128.6
			C1053.3,504.7,999.2,558.2,925.9,558z M927.4,357.2c-43.8-0.5-77.8,31.7-78.4,74.2c-0.6,42.4,33.3,76.2,76.6,76.3
			c43.3,0.1,77-33.4,76.7-76C1001.9,390.3,969.1,357.7,927.4,357.2z"/>
		<path class="st0" d="M729.1,719.8c-0.3-64.5,50.3-116.4,114.5-117.5c64.6-1.1,117.8,52.4,117.4,117.8
			c-0.4,63.9-52.6,116-116.1,115.9C781.1,835.9,729.4,783.9,729.1,719.8z M844.3,655.7c-36.3,0.1-64.7,28.3-64.4,64
			c0.3,35.2,29.3,63,65.6,63c36,0,64.4-28.4,64.1-64.1C909.4,682.7,881.2,655.7,844.3,655.7z"/>
		<path class="st0" d="M1779.2,267.5c100.4,1.7,193.9,4.9,285.7,29.3c268.8,71.4,356.1,338.2,289.3,524.7
			c-42.8,119.6-135,183.3-250.8,218.9c-71.4,21.9-145,31.1-219.7,32.1c-115.5,1.4-230.8,4.2-345.3-18
			c-334.1-64.6-368.4-369-259.9-569c68.1-125.5,178.8-186.5,315.8-207.2C1657.7,268.6,1721.8,270.8,1779.2,267.5z M1275,681.7
			c0.5,77.6,15.7,135.5,49,188.7c10.9,17.4,18,25.3,38.2,6.6c93.8-87,189.1-172.4,284.8-257.4c16-14.2,13.2-23,2-37.8
			c-49.2-64.9-98.2-130.1-145.2-196.6c-14.7-20.9-26.7-22.6-47.6-10.3C1333.1,447.3,1283.2,560.2,1275,681.7z M1649.8,323.2
			c-28.5,4.3-57,8.7-85.5,12.9c-22.6,3.3-26.3,10.2-11.2,30.4c142.4,190.5,283.6,382,425.5,572.8c56.6,76,58.3,75.5,147.2,39.2
			c19-7.8,20.1-13.7,7.9-30c-151.4-203.1-302.1-406.7-452.8-610.4C1672.9,327.2,1664.1,320.3,1649.8,323.2z M1800.1,788.5
			c-2.5-4.4-4.1-8.2-6.5-11.4c-29.4-39.7-59.2-79.1-88-119.2c-10.8-15.1-17.6-6.4-26.2,1.5c-94.4,85.9-188.6,172-283.9,256.9
			c-15.2,13.5-12.5,18.8,2.2,28.3c50.1,32.3,105.3,50.4,163.4,61.6c12.6,2.4,19.3-3.6,26.7-10.8c66.6-64.5,133.2-128.9,199.8-193.4
			C1791.8,797.9,1795.7,793.3,1800.1,788.5z M2022.1,707.8c5.3-3.5,9.9-5.9,13.9-9c75.1-59.2,150-118.9,225.6-177.5
			c13.1-10.2,9.1-17.6,2.4-27.8c-33.8-51-78.6-89.2-133.3-116.3c-11.7-5.8-19.9-5.6-30.3,3.2c-62,52.5-124.5,104.6-187.4,156.2
			c-10.5,8.6-10.8,13.9-2.8,24.4c33.7,44.2,66.3,89.1,99.5,133.6C2013.1,699.3,2017.7,703.3,2022.1,707.8z M2294.2,561.6
			c-77,60.6-153.5,121.1-230.5,181.1c-12.8,10-5.4,17.6,0.6,25.6c39.8,53.7,80.3,106.9,119.5,161.1c9.4,13.1,15.2,10.8,26.6,3
			C2336.5,846.3,2346,662.5,2294.2,561.6z M1969.9,1014.8c-45.4-60.9-87.2-116.8-128.8-172.8c-13-17.5-19.4-0.5-25.9,5.6
			c-50.1,47.5-99.6,95.6-149,143.9c-6.9,6.7-17.5,11.4-17.8,26.4C1753.6,1023.5,1858.3,1025.9,1969.9,1014.8z M1732.6,320.9
			c45.6,61.5,86.7,116.7,127.6,172.1c5.8,7.9,11.2,11.1,20,3.7c57.4-48.2,114.9-96.2,176-147.3
			C1949.1,317.9,1844.5,318.8,1732.6,320.9z"/>
	</g>
</g>
</svg>
