<?xml version="1.0" encoding="utf-8"?>
<!-- Generator: Adobe Illustrator 23.0.0, SVG Export Plug-In . SVG Version: 6.00 Build 0)  -->
<svg version="1.0" xmlns="http://www.w3.org/2000/svg" xmlns:xlink="http://www.w3.org/1999/xlink" x="0px" y="0px"
	 viewBox="0 0 3000 3000" style="enable-background:new 0 0 3000 3000;" xml:space="preserve">
<style type="text/css">
	.st0{stroke:#000000;stroke-width:10;stroke-miterlimit:10;}
</style>
<g id="Layer_1">
</g>
<g id="Layer_2">
	<g>
		<path class="st0" d="M2057.2,276.5C1907,125,1727.9,77.9,1526.1,105.3c-176.4,24-330.3,96.5-458.2,221.6
			c-15.2,14.9-28.4,31.8-42.6,47.7c-58.6,66.1-80.5,144.4-81.8,231.4C941.1,766.4,935,926.7,933,1087c-1.2,99.9,0.1,199.9,9.9,299.7
			c10.3,104.3,66.1,173.1,158.6,215.8c59.5,27.5,123.2,38,187.5,46.4c127.8,16.6,255,16.1,381.8-10.1
			c131.4-27.2,254.8-75.1,371.1-141.4c15.2-8.6,21-6.6,28.8,8.1c15.8,29.8,16.7,29.4-13.3,45.8c-106.9,58.4-218.6,104.5-337.7,131.4
			c-18.4,4.2-22.1,10.8-19.8,29.4c11.7,94.5-21.9,170.8-100.2,224.7c-82.4,56.7-189.6,34.3-246.8-48.2
			c-34.7-50-50.3-104.1-38.9-164.6c2.8-14.9-2.5-18.6-16.6-20.1c-71.8-7.5-142.6-19.4-209.7-48.3c-40.7-17.5-77-41.5-112.7-74.5
			c-2.1,66.9-4.1,129.1-5.9,191.3c-4.3,153.6-5.4,307.4-13.4,460.9c-0.7,14,3.4,16.9,17.3,16.2c67.5-3.6,135.2-6.7,202.6,1.3
			c46.4,5.5,77.9,30.1,89,76c7.5,31,28.8,46.4,56,56.8c4.7,1.8,9.4,3.1,14.9,1.6c75.4-20.3,151.9-9.4,228.1-7.7
			c22.7,0.5,45.7,1.9,66.6,12.6c7.4,3.8,12.8,0,18.6-2.8c47.8-23.1,89.2-53.9,119.6-98.2c7.1-10.3,14.4-20.5,22-30.4
			c25.2-32.8,58-50.9,100-51.7c49.2-1,98.4-3.4,147.6-4c15.5-0.2,19.4-6.6,17.8-20c-1-8.8-1.6-17.6-2.7-26.3
			c-5.3-44.3,21.3-77.5,66.1-81.8c25.1-2.4,49.8,0.7,74.5,5.3c12.4,2.3,14.7,7.9,12,19.5c-8.2,36.4-7.8,36.5-43.5,30.2
			c-3.6-0.6-7.2-1.3-10.9-1.6c-39.2-3.8-44.7,1.3-42.6,39.7c0.4,7.3,1.2,14.7,1.2,22c0,37.5-22.8,62.5-60.3,65.6
			c-50.6,4.2-101.3,5.7-152.1,4.5c-26.4-0.7-48.2,8.7-62.6,30.2c-39.1,58.4-86,108.1-150.1,139.2c-10.6,5.1-5.8,11.4-3.1,17.8
			c14,32.9,16.4,67.2,10.5,101.8c-11.6,67-47.7,100.4-120.8,116.2c-54.7,11.9-109.5,11.3-164.3,3.1c-65.7-9.8-106.5-49.6-119.4-115
			c-7.1-36.4-7.6-73.1-1.2-109.7c1.8-10.3,0.2-15.7-9.6-20.8c-34.4-18-56.4-46.6-65.3-84.4c-5-21.1-19.1-31.2-38.7-33.7
			c-69.7-9.1-139.5-5.5-209.2-0.9c-7,0.5-11,2.6-11,10.3c0,103.2,4.2,205.9,42.7,303.5c11.6,29.5,32.7,52.5,60.1,68.4
			c66.9,38.9,117.1,92.4,149.6,163c14.3,31.1,42.2,46.8,73.7,54.7c101.4,25.3,203.5,28.8,305.2,3c55.2-14,104.5-40.3,139.8-86.8
			c43.5-57.2,100.3-89.3,171.8-95.3c58.2-4.9,101.1-36.4,137.8-78.8c15-17.3,27.6-36.4,38.2-56.5c6-11.4,11.6-11.5,22.1-6
			c35.2,18.2,35.5,17.9,13.8,52c-42.4,66.5-96,118.9-175.5,138.1c-14.2,3.4-28.9,5.7-43.5,7.1c-42.3,4.1-80,20.4-105,54
			c-67.6,90.9-161.4,128.2-269.3,139.7c-81.9,8.7-162.9,2.9-242.9-16.5c-54.3-13.1-96.1-42.4-120.3-94.5
			c-24.2-52.1-60.6-93.5-111-121.9c-76.7-43.2-107.9-114.4-123.1-196.5c-18.8-101.9-21.1-204.5-16.1-307.6
			c5.8-118.3,8.6-236.7,11.2-355c2.6-118.4,6.1-236.7,9.3-355.1c0.2-7.3,1.1-14.6-2.1-21.7c-29.2-63.6-33.7-131.9-37.7-200.2
			c-5.7-98.5-5.4-197-2.8-295.6c3.6-137.5,7.1-275,10-412.5c2.4-113.8,45.2-206.5,120.5-287.4c134.5-144.5,302.4-225.7,495.5-256.6
			c129.6-20.8,256.6-10.3,379.1,39.2c74.6,30.2,139.2,75.6,197.1,131.2c10,9.6,9.9,15-0.2,24.1
			C2071.9,256.3,2065.1,267,2057.2,276.5z M1457,2428c-24.8,1-57.2-2.5-89.2,4c-18.4,3.7-28.2,13.1-29.8,32.3
			c-2.6,31.7-2.4,63.1,7.6,93.7c8.7,26.5,23.9,48.9,52.8,53.9c63.2,11.1,126.6,13.9,189-6.9c17.4-5.8,32.2-14.1,40.5-31.2
			c18.1-37.3,18.7-74.9,1-112.4c-6.9-14.7-17.1-24.4-34.8-26.4C1550.9,2430,1507.7,2427.4,1457,2428z M1459.9,1712.8
			c-22.8,0-45.7,1.5-68.3-0.5c-17.9-1.6-22.6,5.8-24.8,21.6c-9.5,67.8,14.1,121.1,69.6,160c38.5,26.9,79.7,28.1,120.6,5.7
			c68.4-37.4,102.7-112.2,88.8-188.3c-2.6-14-10.2-11.2-19-9.8C1571.5,1710.1,1515.8,1714.1,1459.9,1712.8z"/>
		<path class="st0" d="M1709.7,790.2c-75.9,6.5-163.2,26.8-227.7,101.7c-44.2,51.3-59.8,109-35.2,173.9
			c19,50.3,63.6,71.6,115.6,57.2c18-5,35.2-12.2,48.5-25c11.6-11.1,19.3-9.7,27.6,2.4c1.2,1.8,3.1,3.2,4.6,4.7
			c20.4,20.7,20.4,20.7-3.3,39.3c-5.8,4.5-12.3,8.1-15.1,15.6c-29.4,80.5-124,110.9-209.6,82.7c-58.3-19.2-94.4-61.1-113.8-117.5
			c-39.6-115.4-35.6-227.8,24.7-336.3c54.2-97.7,138.2-151.4,246.6-170.2c65.9-11.4,131.3-11.4,197,3.5
			c130.7,29.8,234.8,140.7,255.6,273.3c8.7,55.1,6.5,109.8-0.2,164.7c-2.2,18.2-8.4,27.5-28.1,18.8c-5.3-2.3-11.2-3.5-17-4.4
			c-9.7-1.5-12.8-4.4-10.3-15.8c10.8-49.3,6.7-97.8-11.1-145.1c-14.9-39.6-40.6-69.7-78.6-88.3
			C1831.9,801.8,1780.7,789.9,1709.7,790.2z M1917.4,781.2c-34.9-48.5-80-83.1-137.1-100.3c-75.8-22.9-152.1-20.8-228.5-2.1
			c-82.6,20.2-142.8,68.5-182.5,143.7c-50.4,95.4-50.6,193.1-13.8,291.8c23.8,63.8,81,93.9,148.1,82.1c10.1-1.8,20.6-3.5,28.9-11.6
			c-2-1.6-2.5-2.4-3.2-2.5c-6.5-1-13.1-2-19.6-2.9c-44.3-6.5-79.6-28.6-100.6-67.5c-42.2-77.9-39.5-156.1,12.3-228.5
			c88.7-124,216.4-155.6,359.8-143.3C1828.9,744.2,1873.9,760.4,1917.4,781.2z"/>
		<path class="st0" d="M1130.1,1056.8c7.6-93.7,18-185,47.1-272.7c78.9-237.9,288.7-352.4,532.2-291.9
			c67.7,16.8,130.1,45.5,188.5,83.5c11.3,7.3,12.7,12.3,4.5,23.4c-21.8,29.6-21,29.6-51.9,10.9c-108.3-65.3-224.3-96.7-350.1-69.6
			c-139.3,30-225.6,121-269.2,253c-33.6,101.7-49.9,207.2-44.9,314.6c8.3,178,130.5,288,308.7,279.6
			c176.2-8.3,295.7-118.5,318.5-294.4c1.8-13.6,6.3-16.9,19.5-15.7c38,3.3,38.1,2.8,32.6,38.3c-37.3,240.3-239,340.1-418.5,324.5
			c-120.6-10.4-216.9-62.3-275.5-171.5C1135.9,1202.4,1130.1,1128.9,1130.1,1056.8z"/>
	</g>
</g>
</svg>
