<?xml version="1.0" encoding="utf-8"?>
<!-- Generator: Adobe Illustrator 23.0.0, SVG Export Plug-In . SVG Version: 6.00 Build 0)  -->
<svg version="1.0" xmlns="http://www.w3.org/2000/svg" xmlns:xlink="http://www.w3.org/1999/xlink" x="0px" y="0px"
	 viewBox="0 0 3000 3000" style="enable-background:new 0 0 3000 3000;" xml:space="preserve">
<style type="text/css">
	.st0{stroke:#000000;stroke-width:10;stroke-miterlimit:10;}
</style>
<g id="Layer_1">
</g>
<g id="Layer_2">
	<g>
		<path class="st0" d="M1330,513c42.2-91.3,111.9-133,208.5-124.2c100.2,9.1,159.8,71.7,199.6,162.1c13.6-14.6,25.9-28.9,39.4-42
			C1904.4,385.8,2055.8,323,2233.1,320c116.1-1.9,230.1,6,335.9,58.2c239.8,118.5,371.5,311.6,375.7,579.9
			c5.3,340.2,2.7,680.6,0.9,1020.9c-1.8,357-286.3,635-649,639.9c-132.8,1.8-260.2-15.6-377.3-82.8
			c-150.2-86.1-251.7-211.7-302.6-377.1c-7.2-23.3-11.8-20.8-29.3-8.8c-24.2,16.6-27.9,31.4-16.7,59.3
			c29.6,73.6,41.7,150.8,28.9,230.1c-17.6,109.3-78.7,186.2-180.4,228c-122.7,50.5-251.7,59.5-381.9,43.2
			c-67.2-8.4-124.1-43.7-173.2-90.3c-8.5-8.1-13.8-14.6-22.1,1.5c-39.6,76.7-103.3,118.4-189.3,123.5c-123.6,7.4-247.1,7.5-369-18.1
			c-46.9-9.9-92.1-26.6-129.4-58.5c-86.9-74-99.1-169.1-73.9-273.2c16.6-68.8,50-129.6,94.5-184.2c11.7-14.3,13.6-23.2,0.7-39.1
			c-73.6-90.2-115.8-194.2-121.9-310.4c-6.7-126.8-12.5-253.9-3.7-380.9c11.2-162.7,89.9-289.3,211.5-392.7
			c4.6-3.9,9.5-7.5,14.2-11.4c0.6-0.5,1-1.4,2.5-3.6c-31.1-24.7-59.6-52.4-83.1-84.8C91.6,846.7,97,675.6,210.9,533.1
			C314.3,403.8,449.6,340.7,615,340.6c84.2-0.1,168,5.3,243.9,44.3c34.3,17.7,63.1,17.9,99.4,9.6c114.7-26.1,224.7-17.9,319.5,62.6
			C1296.5,472.9,1311.5,492.1,1330,513z M465.8,1043.1c-5.1-1.2-6.8-2.1-8.4-1.9c-5.1,0.8-10.2,1.8-15.3,3.1
			c-94.8,24.5-168.9,80.1-229.9,154.4c-76.3,92.8-119.2,197.5-121.1,319.7c-1.5,96.7,2.2,193.2,3,289.8
			c1,113.1,28.5,218.5,95.7,311.5c84.4,116.8,190.7,185.6,342.6,172.7c183-15.6,366.6-20,550.4-13.8c46.9,1.6,94.2,4.9,140.8-2.4
			c140.2-22,258-89.7,363.7-181.3c8.1-7,11.3-14.1,9.5-24.9c-8.4-49.1-8.3-98.7-8.2-148.4c0.1-206.3,0-412.6,0.2-618.8
			c0-15-0.9-28.1-12.7-40.4c-62.2-64.2-131.7-118.7-210-161.8c-5.3-2.9-10.6-9.4-20-3.8c13.1,51.3,18.9,103.7,17.4,157
			c-5.6,196.5-127.5,350.8-318.1,398.9c-95.7,24.2-193,20.2-290.5,11c-193.2-18.2-329.2-160.7-338-354.8
			C412.8,1216.9,429.8,1129.1,465.8,1043.1z M1941.1,838.2c-6.3,17.4-11.2,29.3-15,41.6c-41.2,133.9-47.9,269.8-22.3,407.4
			c15,80.3-14.1,139-86.7,165.5c-50.9,18.6-104.2,28.6-158.8,18.3c-18.7-3.5-25.8-0.7-25.6,20.8c0.9,162.7,0.4,325.5,0.6,488.2
			c0.1,93.9,21.2,183.1,65.1,265.9c163.4,307.5,470.3,369.9,754.7,309.4c11.6-2.5,14.7-10.1,16.4-20.4
			c22.9-132.8,45.5-265.6,69.5-398.2c3.4-18.8,1.8-23.9-19.1-26.3c-140.3-16-219.4-153.2-160.3-275.7
			c42.5-88.2,143.9-132.2,224-95.1c19.3,9,20,1.6,21.5-12.8c16.8-158.4,29.8-316.8,22.7-476.5c-6.4-145.1-39.5-283.5-94.2-417.3
			c-7.9-19.4-14.8-40.3-34.2-56.9c-7.4,38.9-22.3,71.4-45.7,100c-17.7,21.6-40.8,34.4-67.8,33.2c-21.6-0.9-23.9,9.1-25.3,25.6
			c-3.9,46.8-9.5,93.4-21,139c-8.5,33.7-28.5,55.4-64.3,58.9c-19.9,1.9-39.9,3.3-59.8,3.2c-98.9-0.3-149-41.1-160.6-139.8
			c-4.4-37.2-8-64.1-49.1-77.7c-22.1-7.3-35.8-32-48.5-53.1C1952.7,858.3,1948.5,850.9,1941.1,838.2z M2514.2,2533.2
			c5.3-0.9,7.9-0.9,10.2-1.8c222.2-88.1,375.9-303.3,377.9-541c2.9-347.2,3.2-694.5,0-1041.7c-2.4-252.8-173-477.3-413.6-555.2
			c-117.7-38.1-238.3-38.4-358.9-20.3c-267,40.2-486.9,285.7-494.7,555.6c-4.6,158.3-1.2,316.8-2.1,475.1
			c-0.1,16.2,6.8,21,20.6,23.3c51.1,8.5,100.7,2.2,148.7-15.6c49.6-18.4,70.3-54.5,60.3-107c-16-83.5-21-167.3-13.8-251.9
			c8.2-97,28.8-190.8,74.1-277.8c37.7-72.5,95.7-118.9,177.8-130c85.9-11.6,172.2-7.9,257.5,5.2c90.9,14,165.3,57,205.4,142.9
			c58.1,124.7,92.6,256.9,104.5,393.7c16.5,188.9,1.6,377.4-22,564.9c-25.3,200.8-66.4,399.1-100.2,598.5
			C2535.4,2410.8,2524.8,2471.3,2514.2,2533.2z M865.2,1008.5c-106.9,3.9-213.7,8.2-320.3,17.4c-14.6,1.3-25.9,4-32.8,19.9
			c-35.9,81.6-56.3,166.1-52.1,255.7c7.9,170.4,107.1,284.8,275.3,314.9c87.1,15.6,175,14.6,262.4,1.9
			c60.8-8.8,118.8-28.9,168.1-66.3c135.3-102.5,175.3-242.5,145.7-403.2c-19.1-104.1-4.9-82.7-102.1-112.4
			C1097.2,1002.1,981.1,1003.7,865.2,1008.5z M633.1,383.3c-148.9-0.9-272.2,44.9-368.5,153.7c-54.2,61.3-93.1,129.9-98.3,213.8
			c-7.6,122.1,49.1,213.6,138.4,289.4c10.7,9,20.1,5.4,30.8-0.6c49.2-27.7,102.7-42.9,158.1-50.4c146-19.6,293.2-21.7,440.1-26
			c14.9-0.4,23.2-4,29.3-18.4c38.2-90.5,59.3-183.7,44.9-282.3c-18.5-126.3-83.5-215.2-208.2-255.2
			C743.4,389.4,685.5,385.4,633.1,383.3z M947.6,442.6c43.1,43.3,72.5,92,88.9,148c35,119.5,19.9,235.9-25.2,349.5
			c-8,20.3-4.6,23.5,16.1,24.4c86.3,4,171.4,16.3,252.3,48.7c13.2,5.3,20,2.7,26.2-10.4c53.1-112.1,73.6-228.6,40.4-349.8
			C1290.3,449.4,1123,391.2,947.6,442.6z M500.9,2706c57.3,0.3,106,1.7,154.6-3.6c72.2-7.8,123.5-44.1,152.8-110
			c35.9-81,29.1-164.1,12-248.3c-5.7-28.2-22.6-21.2-40-22.2c-21.8-1.4-17.7,13.5-18.4,26c-7,116.8-74.9,194.9-190.2,215.4
			c-78.7,14-156.5,4.6-231-22.6c-76.4-27.9-118.5-93.3-115-171.6c1.6-35.2,10.4-68.7,25.9-100.3c11.8-24.1-14.1-25.7-22.9-36.7
			c-10.6-13.4-16,2.3-20.9,8.3c-39.3,49.6-68.8,104.3-84.9,165.9c-36.5,139.6,20.1,237.8,158.9,276.1
			C356.4,2702.7,433.2,2702,500.9,2706z M1141,2674.7c28.1-1.8,48.1-2.5,68-4.3c73.8-6.6,146.7-17,213.8-51.6
			c66.2-34.2,109.3-86.7,128.2-159.1c22.2-84.6,4.7-165.1-23.8-244.8c-5.4-15-12.6-9.8-21.2-4.2c-29.9,19.4-60.3,38.4-93.5,51.3
			c-20.1,7.8-24.2,18.5-22.6,39c8.5,111.9-48.1,204.3-147.8,237.4c-70.6,23.4-142.4,21.4-211.2-8.6c-55.6-24.2-91.7-68-109.5-125.7
			c-6.3-20.6-10.6-42.6-11.1-64c-0.7-32-22.9-18.4-36.9-19c-21.8-0.9-10.7,14.7-8.8,23.5c13.8,65.3,18.8,130.9,5.1,196.7
			c-3.2,15.2,0.7,24.1,10.5,34.3C953.8,2652.5,1044.2,2683.2,1141,2674.7z M1552.1,688c87.2-0.2,98.5-6.7,142.1-76.2
			c7.1-11.3,8.6-20.9,4.9-33.9c-12.8-45.1-37.2-82-73.8-110.7c-75.6-59.2-215.1-58-261.5,79.1c-2.4,7.2-4.5,14.3-2.2,22.8
			c20.2,74.5,33.2,87.4,108.1,108.2C1497.6,685,1526,687.1,1552.1,688z M2165.4,682.6c-15.1,1.2-33.4,1.9-51.5,4.1
			c-53.5,6.3-97.2,30.4-130.5,72.9c-4.8,6.1-9.5,12.2-10.3,20.6c-3.8,37.7,42,107.4,78.9,113.4c47.1,7.7,95.1,12,142.5,0.4
			c34.6-8.5,52.5-28.8,55.5-63.6c2.3-26.8,3.2-53.9-0.2-80.7c-8.3-65.3-11.1-67.5-76.1-67C2172,682.6,2170.2,682.6,2165.4,682.6z
			 M2525.8,1771.3c-33.1-0.9-59.4,8.9-82.5,27.6c-51.6,41.6-72.3,106.9-52.6,165.2c19.7,58.3,79,101.5,142.7,104.8
			c13.2,0.7,18.3-3.5,20.5-16.6c11.7-72.8,25-145.3,36.2-218.2c7-45.4-2.2-55.5-49.2-61.5
			C2534.8,1771.8,2528.8,1771.5,2525.8,1771.3z M1391.4,893.2c-12.2,46.6-26.4,89.3-47.4,129.4c-5.9,11.2-3.6,16.3,7.5,21.8
			c24.9,12.3,48.9,26.2,73.5,39c46.8,24.4,95.9,27.2,146.5,14.7c9.5-2.4,17.5-5.1,17.4-18.2c-0.4-46.8,0.2-93.7,0.7-140.6
			c0.1-8.5-1.4-13.5-11.6-11.1C1512.1,943.4,1451,930.9,1391.4,893.2z M2151,943.3c-63.4-0.8-63.4-0.8-52.9,53.2
			c0.8,4.3,1.3,8.6,2.3,12.8c13.1,53.1,38.4,78.1,86.7,83.3c27.6,2.9,55.4,1.3,83-3.1c13.7-2.2,22.8-9.1,26.2-21.8
			c14.2-53.8,18.6-109.2,23.8-164.3c1.7-18.2-19-17.3-28.4-26.3c-5.3-5-8.9-0.1-11.8,4.7C2248.6,934.7,2196.7,941.8,2151,943.3z
			 M1401.3,700.5c4,46.8,6.1,90.8-0.6,134.6c-1.3,8.4,4.2,12.5,9.9,16.8c51.4,38.9,108.4,47.4,169.8,30.6c6.5-1.8,14.3-3.4,15.4-12
			c6.6-49.5,21.3-97,38.3-146.8C1552.8,740.2,1477.4,730.8,1401.3,700.5z M2280.6,686.4c12,43.5,17.6,85.4,14.7,128
			c-0.5,7.8,3.3,13.1,9.2,17.4c16.8,12.3,34.1,23.9,54.2,30.1c30.2,9.4,48.9,3.1,68-22.2c19.9-26.4,27.9-57.2,32.2-89.3
			c1.4-10.8-2.1-17.8-11.7-23.4C2396.3,697.3,2340.8,687.9,2280.6,686.4z M1344.4,2291.8c-32.6,9-64.3,21.1-97.8,24.7
			c-17.5,1.9-22.5,9.9-22,27.1c1.2,43.3,0.3,86.7,0.4,130.1c0.1,26.1,1.7,26.8,26,14.5C1320.8,2452.6,1357.1,2377.2,1344.4,2291.8z
			 M1180,2417.5c0-26-0.3-52.1,0.2-78.1c0.2-10.3-1.7-15.9-14-15.7c-20.8,0.4-41.7-0.1-62.5-1.8c-15.7-1.3-19.2,5.5-18.9,19.6
			c0.7,32.1,0.2,64.3,0.2,96.4c0,73.9,0,73.3,75.5,71.5c16.8-0.4,20.4-6.5,19.8-21.5C1179.3,2464.5,1180,2441,1180,2417.5z
			 M466,2426.4c1.2,0,2.4,0,3.6,0c0-6.9,0-13.9,0-20.8c0.2-20.8,7.6-45.7-1.3-61.4c-10.3-18.3-39.2-8.1-59.2-14.2
			c-1.7-0.5-3.3-1-4.9-1.6c-15.7-6-22.1-0.7-22.2,16.2c-0.2,32.1-1.1,64.2-2.6,96.3c-3.6,73.3-3.7,72.8,69.8,80.5
			c13.4,1.4,17.1-2,16.9-14.2C465.8,2480.2,466,2453.3,466,2426.4z M514.7,2432.3c-1.1,0-2.2,0-3.2,0c0,12.2,0,24.3,0,36.5
			c-0.1,62.4,6.2,66.5,68.5,48.3c11.8-3.5,16.9-8.5,16.8-21.3c-0.6-48.7-0.2-97.4-0.4-146c0-5-0.3-10.8-2.8-14.8
			c-3.7-5.9-74.5,0.1-77,6.4c-1.8,4.7-1.7,10.2-1.8,15.4C514.7,2381.9,514.7,2407.1,514.7,2432.3z M339,2490.7
			c0-49.8,0-93.9,0-138.1c0-9.5,0-19.1,0.2-28.6c0.3-9.7-0.2-17.3-10.7-23.6c-35.7-21.3-38.6-20.7-50.8,19.8
			c-1.7,5.8-3.3,11.7-4.6,17.6C259.2,2401.8,281.4,2459.1,339,2490.7z M1040.7,2483.5c0-34,0-65.1,0-96.2c0-70.9,0-70.9-70.4-66.8
			c-0.9,0.1-1.7,0.1-2.6,0c-9.6-0.8-13.4,3.2-14.2,13.3C948.9,2390.3,985.9,2456.7,1040.7,2483.5z M641,2490.4
			c40-27.3,63.6-60.5,70.6-102.8c12.1-72.8,19.5-62.1-53.8-60.1c-1.7,0-3.4,0.4-5.2,0.5c-8.6,0.6-11.8,5.6-11.7,13.8
			C641.1,2389.9,641,2437.9,641,2490.4z M1588.5,1212.4c0-24.4-0.1-42.4,0-60.4c0.1-9.2-4.1-12.3-13-10.6
			c-16.7,3.3-33.5,6.4-53.6,10.2C1544.1,1171.8,1563.7,1189.7,1588.5,1212.4z"/>
		<path class="st0" d="M471.2,1866.2c66.4-0.1,118,50.3,118.6,115.7c0.5,64.5-52.3,118.1-116.9,118.8
			c-64.7,0.6-117.8-52-118.2-117.1C354.2,1917.5,405.1,1866.3,471.2,1866.2z M470.8,2055.6c42.7,0.3,75.2-30.8,75.6-72.4
			c0.4-40.5-33.7-74.7-74.4-74.7c-40.6,0-74.8,34.5-74.4,74.8C398,2023.8,429.9,2055.3,470.8,2055.6z"/>
		<path class="st0" d="M1146.8,1866.2c65.9,0.2,117.2,51.8,116.8,117.3c-0.5,64.4-54.8,118.4-118.4,117.6
			c-64.7-0.8-117-54.4-116.7-119.3C1028.9,1916.3,1080.3,1866.1,1146.8,1866.2z M1144.6,2055.5c42.6,0.4,75.3-30.8,75.7-72.2
			c0.4-40.4-33.7-74.8-74.4-74.8c-40.6,0-74.9,34.4-74.4,74.7C1071.9,2023.7,1103.8,2055.2,1144.6,2055.5z"/>
		<path class="st0" d="M2373.4,1598.4c-2.3,53.9-48.7,96.9-101.4,93.8c-53.1-3.1-95-47.7-93.4-99.7c1.6-53.5,48-97.4,100.6-95.3
			C2333,1499.3,2375.7,1545.2,2373.4,1598.4z M2272.9,1648c30,1.5,54.6-20.1,56.1-49.3c1.6-30.6-19.1-55-48.3-57
			c-31.5-2.1-56.4,19.7-57.7,50.5C2221.7,1622.3,2243.3,1646.5,2272.9,1648z"/>
		<path class="st0" d="M2034.5,1823.6c0.5-53.9,45.4-98,98.6-96.8c52.5,1.2,95.8,45,96.1,97.2c0.3,53.3-44.5,98.1-97.9,97.9
			C2077.4,1921.9,2034,1877.8,2034.5,1823.6z M2132.3,1877.8c29.7-0.3,52.3-23,52.7-52.7c0.3-30.7-23.5-54.3-54.1-53.8
			c-30.6,0.5-53.4,24.5-52.5,55.3C2079.2,1855.9,2102.6,1878.1,2132.3,1877.8z"/>
		<path class="st0" d="M2595.9,1478.1c-0.6,54-45.1,97.1-99.1,95.9c-52.8-1.1-95.1-44.5-94.9-97.6c0.1-55.8,43.1-96.9,100.5-96.2
			C2555.5,1380.9,2596.5,1423.8,2595.9,1478.1z M2497.2,1529.7c30.1,0.9,55.6-23.1,55.9-52.6c0.2-28.5-23.6-53.2-52.3-54.2
			c-29.5-1.1-55.5,23.7-55.9,53.3C2444.5,1504.6,2468.2,1528.9,2497.2,1529.7z"/>
		<path class="st0" d="M2331.8,2373.5c-55.9-0.3-97.3-41.8-96.8-96.9c0.5-52.5,44.1-96.1,96.5-96.6c53.4-0.5,97.5,43.7,97.6,97.6
			C2429.2,2333.3,2388,2373.8,2331.8,2373.5z M2386.2,2278.2c0.2-28.7-23.5-52.8-52.4-53.2c-31.1-0.4-55.4,22.6-55.7,52.7
			c-0.3,29.5,25,54.1,55.2,53.6C2362.4,2330.9,2386,2307.2,2386.2,2278.2z"/>
		<path class="st0" d="M2141.9,2022.4c53.9,0.3,98,44.9,96.9,98.2c-1,53.9-45.6,96.7-99.7,95.8c-52.6-0.9-95.6-44.7-95.6-97.3
			C2043.6,2065.3,2087.4,2022.1,2141.9,2022.4z M2194.4,2120.5c0.6-30.4-23.4-55.2-53.3-55.2c-28.9,0-52.6,23.5-53.2,52.6
			c-0.6,30.5,23.3,55.4,53.3,55.4C2170.1,2173.3,2193.9,2149.8,2194.4,2120.5z"/>
		<path class="st0" d="M997.2,1325.5c0,65.1-52.6,117.9-117.5,117.9c-64.9,0-117.5-52.7-117.5-117.9c0-65.5,51.8-117.1,117.4-117.1
			C945.2,1208.4,997.2,1260.1,997.2,1325.5z M879.3,1398.6c41.6,0.1,75-32.6,74.8-73.3c-0.2-40.7-34.5-74.2-75.4-73.6
			c-40,0.5-72.7,33.1-73.5,72.9C804.5,1365.2,837.8,1398.5,879.3,1398.6z"/>
		<path class="st0" d="M546.8,834.1C546.6,769,597.1,717.2,661,716.9c67.9-0.4,120.6,50.4,120.9,116.5
			c0.3,64.1-53.2,117.9-117.6,118.3C599.5,952,547,899.4,546.8,834.1z M664.5,907.4c41.7-0.3,73.6-33.3,72.9-75.1
			c-0.7-40.4-32.8-72.4-73-72.7c-41-0.3-74.5,33.1-74.5,74.2C589.9,875,623,907.7,664.5,907.4z"/>
		<path class="st0" d="M1276.3,797.7c-0.1,63.6-29.6,112.7-75.7,153.6c-6.2,5.5-13.8,14.7-19.8,1.3c-4.7-10.5-26.7-17.5-9.2-33.7
			c12.8-11.9,24.8-24.3,34.7-38.6c54.6-79.5,20.6-184.8-73.5-222.1c-21.3-8.5-22.5-17.4-16.3-36.3c4.4-13.3,9.6-12.8,20.6-9.5
			C1215.9,636.1,1276,715.7,1276.3,797.7z"/>
	</g>
</g>
</svg>
