<?xml version="1.0" encoding="utf-8"?>
<!-- Generator: Adobe Illustrator 23.0.0, SVG Export Plug-In . SVG Version: 6.00 Build 0)  -->
<svg version="1.0" xmlns="http://www.w3.org/2000/svg" xmlns:xlink="http://www.w3.org/1999/xlink" x="0px" y="0px"
	 viewBox="0 0 3000 3000" style="enable-background:new 0 0 3000 3000;" xml:space="preserve">
<style type="text/css">
	.st0{stroke:#000000;stroke-width:10;stroke-miterlimit:10;}
</style>
<g id="Layer_1">
</g>
<g id="Layer_2">
	<g>
		<path class="st0" d="M632.4,1142.2c-46.6-16.7-88.6-34.3-127.8-58.2c-98-59.7-160.1-145-180.8-258.2
			c-27.8-152.1,17.2-285.6,108.3-406.4c72.4-96,169.2-158.7,278.3-205.1c119.6-50.8,245.3-78.4,372.9-97.9
			c148.3-22.8,297.8-33.6,447.6-42.3c116.7-6.7,233-1.7,349.3,8.3c130.1,11.2,258.2,33,383.4,70.3c85.3,25.4,167.9,57.7,243.1,105.8
			c104.9,67.1,161.6,163.4,168.5,288.3c7.9,143.3-28.9,273-119.6,385.4c-34.9,43.2-75.8,80.5-123.3,109.7
			c-14.5,8.9-15.3,16.3-4.4,28.3c48.4,53.7,74.5,117.3,78.2,189.1c3.6,71.9-18.3,137.4-58.2,196.6c-10.3,15.2-9.6,19.9,7.2,29.1
			c97.6,53.8,152.2,136.6,150.6,248.9c-1.8,122-9.9,243.8-15,365.8c-2,47.7-5.2,95.4-4.8,143.1c0.9,85.8-34.2,154.5-96.1,210.8
			c-11.8,10.7-13.2,18.6-7.5,32.9c29.4,73.3,38.6,148.8,19.8,226.3c-27.2,112.2-117.9,193.9-233.4,209.9
			c-111.7,15.5-222.9,11.8-333.6-10.3c-9.3-1.8-19-2.5-28.4-2.1c-175.7,8.2-351.5,15.6-527.4,18.9c-141.2,2.7-282.4,4.5-423.6-1.4
			c-62-2.6-124.3-1.5-185.4-13.3c-91.9-17.7-176.4-52.8-246.5-116.7c-56.5-51.6-88.9-114.9-86.4-193.4c0.7-21.1,0.8-42.3,0.3-63.4
			c-0.6-25-6.4-48.5-23.1-68.3c-34.5-40.8-39.4-87.1-23.2-136.4c7.5-22.7,10.8-44.1,7.4-69.2c-7.4-54.8,10.9-106.4,33.4-155.8
			c10.2-22.3,22.6-43.6,34.8-64.8c5.7-9.9,7-14.5-6.9-17.5c-70.6-15.3-111.5-62.8-133.1-128.4c-33.2-100.8-33.9-203.6-14.2-307.1
			c36.8-193.6,142.4-339.3,308.3-443C624,1148.7,626.6,1146.6,632.4,1142.2z M1816.9,1551.2c-35.1,1-64.9-1.9-94.2-8.6
			c-150.5-33.9-250-152.4-199.3-323.2c4.3-14.5-1.1-16.8-13.1-16.5c-40.9,1.2-81.8,2.9-122.7,3.4c-196.4,2-392.9,5.7-587.9-25.2
			c-6.6-1.1-11.5-0.4-16.3,4.9c-24,26.2-21.9,82.6,4.4,107.2c27.6,25.9,82.7,27.3,106.1,0c42.3-49.3,96-58.6,155.9-48.5
			c65.9,11.1,123.7,41.7,179.6,76.3c51.6,31.9,90.2,76.5,120.5,128.5c30.4,52.1,17.3,95.2-36.9,121.1
			c-65.1,31.1-134.3,49.2-204.8,62.6c-36.5,6.9-73.5,7-110,1c-71.9-11.7-129.9-48-174.8-104.9c-23.2-29.4-52.4-44.7-89.9-44.6
			c-19.1,0.1-38.3-1-57.1,3.2c-11.9,2.7-18.2-1.2-20.2-13c-1.1-6.7-2.4-13.4-4-20c-3.1-12.5,0.7-18.9,14.2-21.1
			c81.1-13.1,152.8-1.7,207.2,68.9c41.7,54.1,99.9,78.7,167.8,79.7c80.8,1.2,155.9-23.6,229.7-52.6c46.6-18.3,48.9-28.3,21.3-69.9
			c-60.3-90.9-150.4-136.5-252.4-161.1c-41.2-9.9-81.7-3.4-109.3,36.4c-8.6,12.5-22.6,20.1-37.2,24.4
			c-53.1,15.3-103.2,11.6-144.7-28.9c-41.3-40.2-45.8-89.1-28.8-141.9c2.1-6.6,10.7-14.1,3.7-20.3c-7.1-6.2-16.7-2.5-25,1.6
			c-121.2,60.1-215,148.8-276.9,269.3c-57.3,111.7-75.9,231.1-62.5,355.4c4.4,40.7,13.4,80.8,32.3,117.8c22,42.9,58,63.5,105.3,66.2
			c13.1,0.8,21-3.1,26.6-16.3c10.1-23.5,31.3-35.5,56.3-31.7c35.8,5.4,71.9,7.4,107.9,9.9c45.1,3.2,90-0.9,133.9-12.1
			c33.6-8.6,55-29.2,59.5-64.7c8.6-68.1-8.9-131.1-38.4-191.5c-6.8-14-19.5-20.1-35.6-19.2c-30.6,1.8-61.3,2.5-91.9,4.7
			c-17.4,1.3-23.4-6.1-22.6-22.4c0.8-15.3-3.9-32.9,21.3-32.9c26.6,0,53.1-1.9,79.6-4c52.6-4.2,81.7,13.5,104.4,61.2
			c14.7,30.9,25.3,63.4,32,96.9c10,50.6,15.7,101.6-4.8,151c-5.8,14.1-0.9,18.6,10.3,24.8c106.9,58.9,163,148.3,159.5,271.7
			c-2.6,93.5-14.1,186.2-29.9,278.2c-7.3,42.5-24.5,80.5-54.4,112.6c-116,124.9-349.3,134.1-462-46c-5.4-8.6-18.2-17.6-1.2-28.5
			c29.9-19.3,33.7-19.8,46.3-0.9c60.8,91.5,153.3,130.9,258.5,105c78.6-19.4,141.2-61,157.7-147.4c17.1-89.8,26.7-180.6,30-272
			c4.1-112.4-50.2-187.4-149.2-234.2c-9.4-4.5-17.3-5.2-26.9-0.3c-20.2,10.2-42.1,15.4-64.5,18.9c-69.4,10.7-138.7,6.2-207.9-1.7
			c-6.6-0.8-15.9-5.1-18.4,2.8c-6.7,21-27.1,30.2-37.9,47.3c-20.8,32.9-40.2,66.6-56.3,102.1c-16.2,35.7-26.6,73-26.7,112.6
			c0,10.2,0.7,20.5,14.6,19.2c30.6-2.9,61.4,0.2,91.8-5.1c34.6-6.1,69.4-7.8,102.3,7.8c56,26.5,103.8,65,151.3,104
			c10.6,8.7,10.9,16,0.9,24.8c-3.6,3.1-7.1,6.7-9.5,10.6c-9.2,14.7-18.2,14.1-31,3.1c-32.1-27.6-66.2-52.7-101.9-75.5
			c-23.3-14.9-47.8-28-76.5-23.8c-42,6.2-84.1,8.8-126.4,7.7c-7.8-0.2-15.3,0.4-18.5,9.2c-12.8,34.9-21.7,69.6,6.5,102
			c28.4,32.7,37.9,71.7,37.2,114c-0.3,18.4,0,36.9-0.8,55.3c-2.4,56.2,19.7,102.4,58,141.6c56.2,57.5,127,89.6,203.7,107.3
			c101.7,23.4,206.1,17.7,309.5,20.9c9.1,0.3,13-5.4,17.2-12c92.9-147.3,145.4-307.8,154.9-481.6c6.3-115.3-8.4-228.7-40.3-339.7
			c-8.9-30.9-8.7-30.1,21.8-40.8c15.7-5.5,23.3-3,28,13.9c35.4,127.8,53.8,257,43.3,390.1c-12.7,161.2-58,311.7-140,451.1
			c-11.2,19-11.2,19.3,10.4,19.3c96.2,0,192.4-0.2,288.5-3.8c100.9-3.7,201.8-6,302.6-9.3c19.5-0.6,39-3,58.1-4.6
			c1-5.4-2.1-7.3-4.5-9.5c-75.1-69.1-86.6-154.2-60.8-247.6c14.1-51.2,40.2-96.8,73.6-138c5.1-6.3,12.2-11.8,2-20.1
			c-40.1-32.7-52.4-78.5-58-126.8c-9.7-84.1-10.5-168.5-9-253.2c1.8-100.9,1.5-201.9,5.2-302.8
			C1759.4,1687.2,1767.4,1615.7,1816.9,1551.2z M2085.5,760.5c-74.4,0-148.8,0.2-223.1-0.2c-15.1-0.1-20.8,1.7-14.7,19.3
			c38.3,110.3,41.6,221.6,6.5,333.5c-6.8,21.8-6.1,23.2,17.4,22.4c47.7-1.6,95.2-6.5,142.5-12.4c97.1-12,192.8-29.9,283-69.5
			c92-40.4,173.4-94.7,233.1-177.7c71.7-99.7,98.1-211.7,89.8-332.7c-5.7-84.1-37.9-155.8-104.2-209.9
			c-72.2-58.9-157.3-92.3-244.5-120.6c-114.6-37.2-232.5-58.5-352.2-71.1c-135.8-14.3-271.8-20.1-408.3-11.6
			c-132.7,8.3-265.2,18.1-396.8,37.6c-123.6,18.3-245.5,43.9-362.6,89.4c-133.1,51.6-244.1,129.5-316.2,256
			c-28.6,50.2-49.9,103-59.5,160.3c-4.8,28.8-2.3,31.9,24.6,32c38.2,0,76.5-0.9,114.6,0.4c17.8,0.6,26.7-4.6,32.1-22.4
			c18.9-63.1,45.7-122.8,83.9-176.8c63.7-89.9,142.1-160,253.2-185.2c61.4-13.9,124.1-18,186.7-20.7c106.3-4.6,212.6-9.3,318.9-11.2
			c162.8-2.8,325.4-11.4,488.4-6.6c120.3,3.5,213.8,52.3,285.9,146.3c58.1,75.7,92.1,162,111,254.8c3.3,16.3,9.8,23.7,27.2,21.9
			c9-1,22.1-4.7,26.8,4.1c7.1,13.3,5.4,29.6,1.2,43.8c-3.1,10.4-15.2,6.8-23.6,6.9C2232.9,760.6,2159.2,760.5,2085.5,760.5z
			 M2184.3,1509C2184.3,1509,2184.3,1508.9,2184.3,1509c-47.8-0.1-95.5,0.1-143.3-0.2c-24.8-0.1-49,2.9-72.7,9.7
			c-83.1,23.8-134.3,76.1-149.5,163.1c-10.4,59.6-9,119.8-9.7,179.5c-1.4,121.3-6.9,242.7-1.4,364.1c1.8,38.9,6.5,77.3,12.9,115.7
			c5.3,31.8,22.3,54.6,48.6,72.3c26.5,17.9,55.2,30.6,86.2,36c124.8,22.1,250.7,27.3,376.7,15.6c120.4-11.1,206.3-119.7,198.4-226
			c-1-12.9,0.3-25.9,0.8-38.9c6.6-152.5,12.4-305.1,20.1-457.6c6.4-126.9-99.6-237.6-228-233.7
			C2277.1,1510.2,2230.7,1509,2184.3,1509z M1419.7,760.5c-113.3,0-226.6,0.2-339.8-0.2c-15.3-0.1-25.1,3.1-30.9,19.4
			c-41.2,117-40.9,233.8-0.8,351c5,14.6,13.5,20.5,28.4,20.9c47,1.2,94.3,3,141.1,1.8c75.7-2,151.3-1.3,227-4.1
			c107-3.9,214.1-4.7,321.1-8.9c16.4-0.7,24.2-6.7,29.4-21.8c38.6-112.1,37.5-223.3-3.6-334.6c-6.4-17.2-15-24.1-34.1-24
			C1644.9,760.9,1532.3,760.5,1419.7,760.5z M686.1,760.5c-36.8,0-73.7,0-110.5,0c-61.4,0-122.8-0.1-184.2,0.2
			c-8.7,0-20.2-3.5-19,13.2c5.5,76,31.4,143.5,83.2,200.1c63.8,69.7,147.2,104.4,235.7,128.4c93.1,25.2,188.5,36.3,284.6,43.3
			c18.5,1.3,19.3-3.2,14.6-18.3c-36.5-115.3-37-230.8,1.3-345.7c6.5-19.6-0.3-21.4-17-21.4C878.5,760.7,782.3,760.5,686.1,760.5z
			 M2132.8,2876c39,0.4,74.5,0.6,109.7-4.5c82.8-11.9,151.3-45.5,189.4-124.7c34.8-72.5,30.6-146.6,7.1-221.1
			c-9.5-30.1-9.9-29.9-38.9-20.1c-7.7,2.6-15.5,6-23.5,6.8c-19.3,2-30,14.3-39.5,29.1c-10.6,16.5-10.3,34.8-9.7,53.4
			c1.3,40.9-11.7,76.3-41.4,105.1c-43.6,42.2-96.8,52-154.9,47.3c-78.3-6.4-121.5-53-120.4-131.3c0.2-10.2,0.7-20.5,1.9-30.6
			c5.6-47.3-9-69-55.3-79.2c-23.4-5.2-46.5-11-68.4-20.4c-10.5-4.5-17.5-3.2-24.8,5.6c-32.7,39.3-59,82.5-70.6,132.4
			c-16.1,68.5-11.2,133.5,46,184.1c27.6,24.4,61.1,38,96.4,47.5C2001.5,2873.1,2068.8,2876.5,2132.8,2876z M2252.5,1131.1
			c34.3-1.9,67.8,4,101.6,5.7c17.7,0.9,21.9,11.3,18.1,26.3c-3.3,12.9,1.6,31.8-23.8,28.4c-48.8-6.5-98-5.6-147.1-4.4
			c-41.5,1.1-82.5,7-101.8,50.4c-28.1,63-36,129.5-26.6,198c1.8,13.3,8.8,16.5,20.7,16.6c33.4,0.3,66.8,1.2,100.2,1.9
			c58.6,1.2,117.3-2.7,175.9,2.6c9.4,0.8,13.7-3.9,18.3-10.1c18.3-24.8,33.9-51.1,45.5-79.8c37.7-92.8,14.8-202.6-56.9-271.9
			c-6.5-6.3-12.2-12.9-22.8-7.6C2321,1103.9,2286.8,1116.9,2252.5,1131.1z M1539.6,522.9c0-47.1,0-94.2,0-141.3
			c0-41.6,0-41.1-40.3-39.7c-31.4,1.2-62.8,1-94.2,1.6c-8.2,0.1-16.3,0.7-24.5,1c-13.1,0.6-19,6.4-18.9,20.6
			c0.5,107.1,0.4,214.3,0,321.4c-0.1,14.5,5.4,18.9,19.3,18.7c45.7-0.6,91.5-0.9,137.1,0.1c17.8,0.4,21.9-6.7,21.7-22.9
			C1539.1,629.4,1539.6,576.2,1539.6,522.9z M872,542.7c0-47-0.5-94.1,0.3-141.1c0.2-15.9-3.3-22.2-19.4-14.1
			c-14.6,7.4-30.2,12.9-44,21.5c-106.7,66.3-168.4,165.9-207.7,282c-5.7,16.9,6.1,14.1,15.3,14.1c77,0.1,154-0.6,231,0.5
			c20.4,0.3,25.3-6.9,24.9-25.9C871.3,634,872.1,588.3,872,542.7z M2109.3,705.1c32.1,0,64.1-0.3,96.2,0.2
			c13.3,0.2,18.2-2.8,14.8-17.8c-15.7-69.1-39-135-77.9-194.5c-36.3-55.6-81.2-102.4-142.4-131.5c-14.5-6.9-21.7-5.2-20,12.8
			c1.6,17.6,2.6,35.3,3.4,53c4.2,86.4,8.5,172.8,12.1,259.3c0.6,14.2,5.8,19,19.7,18.7C2046.5,704.6,2077.9,705.1,2109.3,705.1z
			 M1786.3,1343.3c0,43,0.8,86-0.4,128.9c-0.5,19.3,6.9,24.7,25.2,24.2c24.7-0.7,48.8-4.8,72.9-9.4c11.2-2.1,15.7-8.2,15.6-19.9
			c-0.3-86.6-0.3-173.2,0-259.9c0-12.4-4.8-17.4-17-16.6c-25.2,1.5-50.4,3.5-75.5,3.6c-16.4,0-21.1,6.9-20.9,22.3
			C1786.7,1258.7,1786.3,1301,1786.3,1343.3z M969.7,705.1c44.6,0,43.9,0,45.5-44.2c1.8-50.3,5.2-100.6,7.5-150.9
			c2-43.5,3.2-87.1,5.5-130.6c0.8-14.9-4.2-21.8-19.7-20.1c-18.9,2.1-37.9,4.1-56.9,5.4c-18.2,1.2-24.9,8.8-24.7,28.2
			c1.1,89.9,0.3,179.8,0.6,269.7C927.5,711.8,921.7,704.4,969.7,705.1z M2105.2,2520.6c-10.5,0-27.7-5.1-36.8,1.3
			c-10.9,7.6,2.9,24.2,1,37.3c-1.1,7.4-1.2,14.9-1.5,22.4c-0.7,16.3-2.1,32.7-1.7,49c0.8,30.2,13,46.9,41.8,55.9
			c37.7,11.7,75.6,11.4,111.6-5.6c34-16.1,54.1-42.6,52.8-82.4c-0.6-19-2.2-38.3,4.8-56.6c5.5-14.3-2-16.4-13.6-16.3
			C2211.7,2526,2160,2525,2105.2,2520.6z M1653.7,524.4c0-54.6,0.1-109.1-0.1-163.7c0-6.6,2.7-16.1-4.1-18.9
			c-15.4-6.6-32.5-4.9-48-0.9c-10.9,2.8-6.5,15.2-6.5,23.4c-0.3,101.6-0.3,203.2-0.1,304.8c0,40-3.9,34.9,36.3,36.4
			c18.5,0.7,23.2-6,22.9-23.6C1653.1,629.4,1653.8,576.9,1653.7,524.4z M1307.1,528.5c0-52.5,0.1-105.1-0.1-157.6
			c0-7.3,2.7-17.8-5-20.6c-15.5-5.6-32.6-5-48.1,0c-11.5,3.7-7.8,16.2-7.8,25.2c-0.2,97.6-0.1,195.1-0.1,292.7
			c0,37.3,0,36.5,38,37.3c18.1,0.4,23.8-5.7,23.5-23.5C1306.5,630.8,1307.1,579.6,1307.1,528.5z M2078.7,1170.3
			c-37.2,4.5-70,9.4-103.1,11.9c-15.6,1.2-21.7,6.6-21.5,22.3c0.6,38.8,0.2,77.6,0.2,116.4c0,40.8-0.1,81.7,0.1,122.5
			c0.1,7.6-2.1,19.4,10,18.4c16.8-1.3,35.4-2.3,49.3-10.3c12.4-7.1,0.1-23.8,1-36.2c0.3-3.4-0.3-6.8-0.3-10.2
			C2014.4,1322.5,2023.5,1242.3,2078.7,1170.3z M1731.4,1345.3c0-40.3-0.3-80.5,0.1-120.8c0.2-15.6,0.5-28.2-21.9-26.8
			c-28.2,1.8-29,1-29.1,26.1c-0.1,72.3,0,144.6,0,217c0,33.9,0.2,33.3,32.9,43.1c14.3,4.3,18.3,0.2,18.1-13.8
			C1731.1,1428.6,1731.4,1387,1731.4,1345.3z M1625.2,1437.5c0-78.4,0-151.7,0-225.1c0-5.7-1.3-10.4-7.9-12.5
			c-14.6-4.5-31.1,2.7-36,17.7c-5.3,16.1-10.6,32.5-13.1,49.2C1558.5,1330.8,1570.2,1388.5,1625.2,1437.5z M1940.1,682.9
			c-1.2-22.8-2.3-43.1-3.3-63.5c-4.2-86.9-8.4-173.9-12.2-260.8c-0.5-12.1-5.9-18.1-17.1-18c-13.2,0.1-9.7,11.1-9.5,18.3
			c1.2,46.2,2.7,92.5,4.4,138.7c2.5,63.9,5.1,127.8,8,191.6c0.6,14,14.7,21.7,25.3,14.1C1944,697.4,1938.9,688.2,1940.1,682.9z
			 M1709.9,664.5c12.1-10.6,20.6-18,29-25.5c28.2-25.3,28.4-25.5,6.3-56.2c-4.3-5.9-6.3-18.1-16.8-14c-8.5,3.3-17.6,10.4-18.1,20.6
			C1709.1,612.7,1709.9,636.3,1709.9,664.5z M1745.2,480c13.1-11.1,26.1-21.9,38.8-33c4.6-4,10.2-8.3,5.9-15.4
			c-6.3-10.3-9.4-22.6-19-30.8c-0.9-0.7-5,1.4-6.9,3c-13.1,11.8-26,23.8-39.1,35.7c-5.4,5-6.2,10.4-1.6,16.1
			C1730,463.9,1733.3,475.1,1745.2,480z M1150.7,446c-9,4.8-17.9,9.4-26.7,14.3c-31.9,17.7-31.5,17.4-8.2,44.3
			c7.4,8.6,13.2,9.5,22.1,3.4c8.4-5.7,17.6-10.1,26.1-15.7c5.7-3.7,15.9-6.2,10.5-16.2C1168.6,465.2,1164.2,452.6,1150.7,446z
			 M1816.1,491.4c-11.4,10.4-29.1,19.9-36,34.6c-6.9,14.7,12.8,25.8,20.3,38.7c2.8,4.8,7.2,4.6,12.3,1.9
			c27.7-14.7,33.6-34.2,18.1-61.2c-2-3.5-3.8-7.2-6-10.6C1823.4,492.5,1821.8,490.2,1816.1,491.4z M1085.2,701.9
			c0.3,1.1,0.7,2.2,1,3.2c28.3,0,56.7,0.2,85-0.1c6.9-0.1,16.3,3.2,19-7c3.5-13.3-6.8-21.1-13.9-30c-4.3-5.3-8.4-11.2-16.8-6.6
			C1134.7,674.9,1109.9,688.4,1085.2,701.9z M1752.8,699.8c0.9,1.8,1.8,3.5,2.7,5.3c11.9,0,23.8,0.6,35.6-0.2
			c11.8-0.8,31.9,5.1,33.5-3.4c2.5-13.2-13.2-24.7-21.8-36.5c-3.4-4.8-7.9-4.3-12.1-0.4C1778.1,676.4,1765.4,688.1,1752.8,699.8z
			 M1071,628.3c-2.9,15.9,3,18.6,17.9,9c10.3-6.6,21.4-11.9,32.2-17.7c7.8-4.2,8.9-9.8,3.2-16.5c-5-5.8-8.8-17-18.6-11.4
			C1091.3,599.8,1070,602.2,1071,628.3z M1082.9,384.8c0,8.3-0.1,15.7,0,23.2c0,3.5,1,8.3,4.8,7.4c12-2.7,23.4-8.5,32.1-16.6
			c8.2-7.6-1.8-15-5.9-20.9c-6.1-8.7-8.5-25.5-23.3-21.1C1077,360.9,1086.3,376,1082.9,384.8z"/>
		<path class="st0" d="M1093.2,1529.9c-37.2,2.7-73.3-4.4-109.2-12.8c-46.1-10.7-79-38.3-100.3-80.3c-16.1-31.6-6.9-58.3,26.5-70.8
			c41.5-15.5,84.3-20.9,128.6-13.7c49.3,8,98.5,15.4,139.4,47.9c9.2,7.3,17.1,15.6,23.7,25.2c26.5,38.5,12.7,81.7-31.9,96.3
			C1145.2,1529.9,1119.3,1531.9,1093.2,1529.9z M1091.8,1474.6c12.2,0,24.6,1.3,36.6-0.4c10.1-1.4,25.4,1.6,28.2-10.9
			c2.9-12.6-10.4-20.5-20-25.4c-59.2-30-121.4-41.9-187.4-27c-13.8,3.1-12.4,9.4-6,18.5c12.4,17.5,29.5,27.9,49.8,33.2
			C1025.5,1470.9,1058.2,1476.9,1091.8,1474.6z"/>
		<path class="st0" d="M1441.6,2456.8c0.5,131.8-29,256.7-86.8,375c-6.1,12.5-11.1,23.2-28.8,13.6c-30.3-16.4-30.8-15.7-20.5-37.2
			c47.6-99.5,75.4-203.6,79.9-314.5c3.1-75.8-6.6-149.3-22.7-222.7c-5-22.8-3.8-22.5,28.8-31.7c19.9-5.6,21.4,6.2,24.6,19.5
			C1431.9,2323.9,1440.3,2390,1441.6,2456.8z"/>
		<path class="st0" d="M1893.7,2077.6c0.6,58,2.4,115.9,11.8,173.2c16.2,98.4,67,142.2,166.4,145.7c42.4,1.5,84.5-2.9,126.6-6.1
			c31.5-2.4,62.6-1.2,93.9,2.3c12.3,1.4,16.6,7.6,13.9,19.4c-1.4,6-2.6,12-3.3,18.1c-1.4,13.5-8,19.2-21.9,16.9
			c-48.4-7.9-96.6-0.2-144.7,3.2c-58.6,4.2-116.4,1.3-170.6-22.6c-72.9-32.2-104.5-94.6-114.9-169.7
			c-14.8-105.8-15.4-211.9-5.3-318.2c6.4-67.3,14.2-134.2,33.9-199.1c22.4-73.9,58.3-138.4,128.2-178
			c56.2-31.9,117.6-37.4,180.4-32.7c29.8,2.3,59.5,7.1,89.3,10.5c13.9,1.6,19.5,8.1,15.3,22.1c-1.2,3.9-1.4,8.1-1.7,12.1
			c-1.3,16.8-8,23.3-26.6,19.8c-38.8-7.3-78.2-11.1-117.9-10.8c-99.6,0.8-164.8,45.4-202,137.3c-25.6,63.4-34.8,130.2-41.9,197.3
			C1896.9,1971.3,1893,2024.4,1893.7,2077.6z"/>
		<path class="st0" d="M2026.5,2007c-0.1-91.8,73.4-166.5,163.9-166.7c91.7-0.2,166.5,74.8,166.3,166.6
			c-0.2,89.7-73.1,164.3-161.2,165C2100.5,2172.7,2026.6,2100.6,2026.5,2007z M2081.7,2006.1c-0.1,61.8,48.3,111.2,109.3,111.5
			c60.1,0.4,110.1-49.9,110.2-110.9c0.1-61.9-47.8-110.6-109.6-111.3C2130.5,1894.8,2081.8,1943.8,2081.7,2006.1z"/>
		<path class="st0" d="M1600.4,966.2c0.2,85.2-67.7,154.3-152.1,154.7c-84.6,0.4-154-68.2-154.6-152.8
			c-0.6-83.4,67.3-154.8,147.7-155.2C1532.6,812.5,1600.1,877.6,1600.4,966.2z M1349.1,966.2c-0.1,55.4,43.3,99.5,97.8,99.5
			c54.7-0.1,99.4-44.1,99.9-98.5c0.6-53.8-44.6-99.1-99-99.5C1393,867.3,1349.2,911,1349.1,966.2z"/>
	</g>
</g>
</svg>
