<?xml version="1.0" encoding="utf-8"?>
<!-- Generator: Adobe Illustrator 23.0.0, SVG Export Plug-In . SVG Version: 6.00 Build 0)  -->
<svg version="1.0" xmlns="http://www.w3.org/2000/svg" xmlns:xlink="http://www.w3.org/1999/xlink" x="0px" y="0px"
	 viewBox="0 0 3000 3000" style="enable-background:new 0 0 3000 3000;" xml:space="preserve">
<style type="text/css">
	.st0{stroke:#000000;stroke-width:10;stroke-miterlimit:10;}
</style>
<g id="Layer_1">
</g>
<g id="Layer_2">
	<g>
		<path class="st0" d="M2890.9,1975c0,148.1,0.6,296.1-0.1,444.2c-1.4,293.6-242.5,535.8-536.1,537c-291.9,1.2-583.9,0.5-875.8,0.3
			c-192.5-0.2-343.6-81.3-454.7-237c-16.8-23.5-23-24.7-37.8,0.9c-50.3,86.9-127.7,128.4-227.5,129.2c-74,0.6-148.3,4.3-221.6-7.7
			c-120.1-19.7-199.2-93.4-252.1-199.1c-68.3-136.6-105.6-281-99.6-434.1c5-125.8,3-252.4,24.2-377c19-112.4,60.2-216.8,128.2-309
			c13.6-18.4,12.7-27.5-6.7-38.1c-73.4-40.1-105-107-116.9-185.8c-17.7-116.5-31.7-233-12.8-351.2c12.2-76.5,45.1-142.4,92.9-202
			c7.2-8.9,13.5-18.7,21.5-26.8c17.8-18.3,15.1-29.5-5.2-46.8c-72.2-61.4-121.4-138.5-131.1-234.3c-9.7-95.8,34-171.7,102.3-234.6
			c49.1-45.2,107.7-74.8,170.1-96.9C504,87.7,556.7,71,610.8,59.6C693,42.3,738,69.5,760.9,149.2c13.2,46.1,19.7,49.9,66.7,36.5
			c60.4-17.2,122.3-9.2,183.5-11.7c67.7-2.7,135.4-4.1,203.1-6c28.9-0.8,54.9-11.6,79.8-25.1c108.3-58.8,225.5-68.9,345.7-64.3
			c64.7,2.5,128.9,8.1,191.4,26.1c45.7,13.2,86.8,33.5,121.1,67.9c38.3,38.4,69.1,39.2,113.8,9.4c41.6-27.8,83.9-54.4,126.2-81.2
			c45.8-29,98.1-35.3,150-37.6c105.2-4.6,210.6-2.4,315.1,10.3c144.9,17.6,217.9,80.4,240.6,224.3c24.6,156.4,33.4,315.2,7.8,472.9
			c-21.1,130-81.8,242.1-170.9,338.5c-16.9,18.3-19,28.5-0.4,47.7c103.4,106.4,156.9,233.9,156.5,383.2
			C2890.6,1685.1,2890.9,1830.1,2890.9,1975z M2831.8,1977c0-115.7,0.2-231.5-0.1-347.2c-0.1-50,3.2-100.6-2.9-150
			c-30.3-244.7-234.7-425.4-481.7-426.3c-290.9-1-581.8-0.2-872.7-0.4c-34.6,0-68.8,3-102.4,10.5c-225.5,49.8-383.3,243.4-384.1,474
			c-1,292-0.3,583.9-0.1,875.9c0,18.7,0.3,37.6,2.5,56.2c30.6,250.6,247.8,432.6,496.3,428.7c282.5-4.4,565.1-1,847.7-1.2
			c24,0,48.1,0.1,71.8-2.8c249.6-31.3,432.8-249.5,426.3-495C2828.7,2258.6,2831.8,2117.8,2831.8,1977z M925.6,1921
			c1-6.4,2.2-10.2,2.2-14.1c0.4-137.6,0.5-275.3,1.4-412.9c0.1-19.6-10.4-27-25.8-34c-80.7-36.5-165.3-48.3-253.2-43.6
			c-106.3,5.6-192.5,49.1-258.4,132.5c-60.1,76-96.6,163.8-116.5,257.1c-30.6,143.4-26.4,290.2-30.2,435.8
			c-3.4,132.6,34.3,257.6,93.5,375.6c49,97.7,123,160.9,237.2,169.3c58.4,4.3,116.7,3.4,175,3.1c106.6-0.6,171.2-47.4,208-147.7
			c6-16.4,6.7-31.4,0.6-48.3c-21.5-60.4-31.8-122.8-31.6-187c0.5-117.8,0.1-235.7,0-353.5c0-14.5,1.4-29.1-8-42.1
			c-33-45.5-71.6-84.5-124.8-105.7c-33.5-13.4-68.4-15-98.4,7.7c-95.5,72.3-117.2,154.2-97.8,264.4c1.7,9.7,2.9,21.3,14.8,27.1
			c-1.4-13.6-3.9-26-3.8-38.3c0.1-50.7,30.3-96.3,72.2-110.6c41.6-14.2,83.7,1.4,117.4,44.2c35.8,45.5,43.5,98.9,38.1,154
			c-8.4,86.3-53.1,149.3-133.7,181.2c-79.7,31.6-154.2,16.4-217.7-41.6c-71.7-65.5-106.2-150.3-107.2-245.2
			c-1.8-168.9,79.2-296,213-393c13.7-9.9,26.1-21.4,40.6,1.4c12,18.9,14.6,29.7-6.6,45.5c-87.5,65.2-154.9,145.8-179,255.6
			c-23.7,107.7-4.3,206,73.5,287c56.4,58.8,144.7,61.2,203.9,10.1c58.6-50.5,74.1-153.5,31.7-213.8c-13.6-19.3-30.4-38.3-56.8-27.7
			c-24,9.6-30.2,32.9-29.7,57.2c0.3,15.8,4.7,31,11.6,45.1c9.5,19.7,19.7,39.1,30.3,58.2c17.5,31.5,15.2,35.6-21.9,37
			c-67.3,2.4-124.9-36.6-143.1-103.4c-32-117.2-11.4-222.9,77.8-310.7c71.9-70.8,153.1-79.2,237.6-23.5
			C883.3,1887.6,903.1,1904.1,925.6,1921z M1041,1197.8c-23.8,0-45.6,0.9-67.2-0.1c-102-4.8-189.6-92.6-194.6-194.3
			c-4.3-88.2,74.8-166.9,175.6-171.8c29.6-1.4,34.2-8.8,25.5-37c-25.2-80.7-29.1-163.6-16.7-247.2
			c16.2-109.1,62.2-204.9,131.6-289.6c17-20.8,8.4-27.5-11.6-28c-82.1-2.2-164.8-3.7-245,15.5c-73.4,17.6-113.6-2.2-133.6-76
			c-14.5-53.6-30.7-64.4-85.9-51.3C552,134,485.8,153.1,423,181.9c-60.5,27.8-113.5,65.3-150.9,122.5c-67,102.4-19.2,278,91.1,332.1
			c9.6,4.7,19.6,6.4,30.1,7.5c31.9,3.2,34,7.4,18.9,36.3c-19.4,37.2-44.5,70.4-71.3,102.5c-41,48.8-69.1,103.6-79.5,167.3
			c-19,115.9-6,230.4,12.1,344.8c10.4,65.5,41.3,116.5,101.7,148.9c16.9,9.1,27.3,9,41.3-2.5c32.6-26.6,69-47.2,109-60.1
			c131.6-42.5,261.1-32.2,387.9,19.3c20.8,8.5,30.9,9,37.6-15.9c7.6-28,19.1-55.1,31.1-81.6c8.4-18.5,5.6-22.3-15.1-22.1
			c-122.1,0.8-213.6-53.2-276.2-157.6c-52.7-87.9-46.6-175.6,18.6-255.1c18.5-22.6,37.4-44.8,55-68.1c46.5-61.3,72.8-130.9,81.3-207
			c6.9-61.7-13.6-90.6-72.5-100.2c-60.2-9.8-98.7-45.7-125.9-97.3c-20.5-39-31.1-81.8-45.4-123c-5.2-14.9-10.3-28.9-29.7-32.1
			c-68.9-11-147.7,50.8-154.2,120.5c-5.6,59.2,18.1,102.7,65.9,135.7c38.5,26.6,79.9,49.2,111.8,84.8
			c54.5,60.9,55.8,129.5,3.2,191.6c-22.6,26.7-51.7,45.2-79.5,65.4c-58.9,42.9-92,100-101.6,172.4c-7.1,53.1-7.1,105.9-1.8,158.9
			c0.8,8.3,1.6,16.7,0.8,24.9c-2.2,22.4-20.3,19.7-35.5,21.3c-15.9,1.7-21.4-5.7-23.2-21.4c-5.6-49.9-7.5-99.9-4.5-149.9
			c6.8-110.2,48.9-201.3,143.8-264c19.9-13.1,38.6-28.7,55.5-45.5c32.9-32.7,34-70.3,4.8-106.4c-13.8-17.1-30.1-31.7-48.4-44
			c-24.2-16.2-48.8-32.2-72-49.9c-71.2-54.3-97.3-137.4-70.2-219.9c24.5-74.6,104.6-132.3,186.6-134.5
			c57.7-1.6,84.2,16.5,103.4,70.8c12.2,34.4,23.1,69.2,36.5,103.1c19.1,48.3,52.4,78.3,107.1,82.7c40,3.2,71.2,23.2,87.8,61.2
			c13.1,30,20.1,61.6,16.7,94.5c-9.5,93.5-42.1,178-100.8,251.9c-17.5,22-35.9,43.4-52.9,65.8c-28.6,37.9-44.8,78.2-32.6,128
			c30.9,125.7,182.2,215.2,306.5,179.2C1033.2,1215.9,1038.5,1211.6,1041,1197.8z M2512.1,926.4c78,2.2,162.4-18.1,246.7-44.2
			c53.2-16.5,76-48.2,85.7-100.8c21.2-115.1,13.7-230.4,8.3-345.8c-2.7-58.2-3.8-116.8-22.8-172.9c-21.2-62.8-62.2-105-127.5-121.5
			c-38.6-9.8-77.9-12.9-117.6-14.6c-23.5-1.1-29.6,5.1-28.1,29.8c5.7,90.4-19.7,172.3-82.7,238.2c-96,100.4-212.4,126.1-343.3,81.2
			c-25.5-8.7-32.3-3.5-29.3,21.4c0.7,6.2,1,12.6,0.3,18.7c-2.9,24.7,6.9,34.7,32.5,37.2c49.1,4.8,98.1-3,146.7-0.4
			c46.8,2.5,85.9-9.3,121.3-38c63.4-51.4,137.6-72.1,217.6-75.3c25.9-1,50.8,4,65.8,27.9c15.6,25,9,50.2-4.3,74.1
			c-13.9,24.9-33.7,45.1-54.7,63.9c-67.3,60.2-136.5,115.3-232.7,123.6c-96,8.3-191.6,4-287.2-2.3c-18.9-1.2-33.3-4.2-40.9,19.8
			c-7,22-5.4,35,15.4,49.1C2208.5,880.9,2347.3,927.5,2512.1,926.4z M2042.8,534.2c0.5-75-14.4-147.1-38.2-217.7
			c-10.8-31.9-24.7-59-59.2-75.2c-44.4-20.9-65.8-19.1-90.2,23.4c-24,41.7-55.3,75.4-97.4,98.9c-43.9,24.5-90.6,41.9-138.9,55.7
			c-13.9,4-27.4,9.8-40.5,16.1c-8.3,4-14,11.1-4,19.3c22.4,18.4,24.8,44.2,20.6,68.7c-15.3,87.9,15.4,155.8,80.8,214.1
			c68.2,60.8,107.8,137.2,105.4,231.3c-0.5,22,11.9,25.8,30.2,24.7c13.7-0.8,23.4-7.9,32.7-16.5
			C1973.8,857.9,2040.2,710.4,2042.8,534.2z M1539.9,993.5c66.7,0,112.5,0.1,158.4-0.1c10.4,0,23.3,1,22.5-14.3
			c-3.1-55.1-4-110.4-46.2-154.6c-35.2-36.9-68.9-75.4-100.5-115.3c-16.2-20.4-33.8-28.5-58.8-26c-43.8,4.3-87.2,0-130.3-9
			c-32.1-6.7-60.3,6.4-76.7,35.1c-7.2,12.5-12.5,26.4-16.9,40.2c-15.3,48.8-43.9,86.5-88.6,112.5c-18.7,10.9-36.9,24-52.4,39.1
			c-31.8,31.3-31.7,45-3.5,79.4c8.6,10.5,18,20.3,27.3,30c41.6,43.4,41.9,44,97.7,21.2C1365.1,993.6,1462.4,990.2,1539.9,993.5z
			 M1017.4,652.3c-2.3,65,17.6,141.8,54.8,214.5c6.9,13.5,13.1,22.2,25.6,4.6c17.4-24.2,41.8-41,67-55.2c37.7-21.3,60.6-52,73-93
			c10.6-35.4,27.3-68.5,61.4-87.3c18.1-10,21.4-20.3,15.4-39.7c-12.2-39.6-9.3-78.5,17.1-112.5c10.2-13.1,9.1-26.4,6.9-41.2
			c-10.2-67.4-41.6-126-74.1-184.3c-21.6-38.7-47.9-44.1-78.6-13C1079.2,353.2,1015.8,480.4,1017.4,652.3z M2405.5,122
			c0-0.2,0-0.3,0-0.5c-11.5,0-22.9-0.1-34.4,0c-69,0.5-133.6,12.4-190.4,57.1c-35,27.5-74.9,49.1-113.9,71.1
			c-15.1,8.5-18.6,15.8-12.8,31.7c10.3,28.3,19.2,57.2,27.4,86.3c3.3,11.6,8,20.6,18,27.8c74.9,54.1,192.8,55.7,278.5,3.4
			c81.3-49.7,133-156.1,119.7-245.5c-3.2-21.3-10.5-34.7-35.8-31.8C2443.2,123.6,2424.3,122,2405.5,122z M1850.5,179.1
			c-11.8-13.1-26-14.3-38.5-17.7c-106.1-28.6-214.1-27.4-322.3-17.9c-55.3,4.9-107.8,21-157.9,45.9c-22.2,11-28.5,20.1-13.9,43.9
			c25,40.7,46.5,83.8,61.8,129.3c7.6,22.5,6.2,55.8,21.2,66c16.7,11.4,47.4,1.9,72.1,1.7c13.3-0.1,27,3,36.6-11.1
			c21.8-32.2,55.6-45.3,90.8-56.5c32.7-10.5,65.4-21.1,96.9-34.5c36.7-15.6,70.5-36.5,93-70.9
			C1808.4,229.8,1822.3,199.3,1850.5,179.1z M2783.9,939.7c-15.7-2-25.6,4.4-36.1,7.8c-140,45.1-281.8,51.2-425,18.6
			c-96.5-22-184.9-62.9-267.3-117.3c-10.3-6.8-22.1-21.1-33.2-1.1c-28.2,51-64.7,96-102.6,140.7c11.6,8.3,22.3,4.9,32.2,4.9
			c114.5,0.3,229.2,2.5,343.6-0.4c127.3-3.3,246.3,20.2,353.4,92.1c8,5.4,16.2,10.7,25.2,2C2718.2,1044.4,2754.4,995.8,2783.9,939.7
			z M998.6,1138.8c56.4,1,104.5-14.5,150.1-39c14.4-7.7,20.4-15,3.4-29.6c-48.6-41.8-87.2-92.6-117.5-148.8
			c-13.5-25-30.7-34.5-57.3-31.7c-10.3,1.1-20.9,0.5-31.2,1.7c-90.3,10.7-132.2,90.1-89,169.5
			C888.3,1118.3,938.7,1141.2,998.6,1138.8z M2630.2,500.8c-73.1-4.2-137.7,17.2-194,62.7c-39,31.5-83.3,43.4-132.7,47.5
			c-61.7,5.1-122.9,1.1-184.2-1.1c-28.6-1.1-24,21-27.2,36.5c-4.2,20.4,11.9,21.1,25.7,21.7c68.7,2.7,137.3,5.9,206.1,7.1
			c123.4,2.3,213.9-57.8,292.1-144.4C2623.6,522.6,2632.2,514.1,2630.2,500.8z M1469.7,624.2c0,0.1,0,0.3,0,0.4
			c14.6,0,29.1,0.1,43.7,0c10.3-0.1,17.3-3.9,20.8-14.8c27.4-85.3-4.4-126.5-93.1-119.9c-7.2,0.5-14.6,1.4-21.5,3.4
			c-36.9,11.1-54.3,37.2-50.8,75.3c3.2,34.3,23.2,52.2,63.5,55.5C1444.7,625,1457.2,624.2,1469.7,624.2z"/>
		<path class="st0" d="M2214.5,1950c12.6,65.2,25.1,130.5,37.7,195.7c3.2,16.4,7.9,32.6,9.3,49.1c3.8,48.1,35.3,70.9,76.2,84.7
			c58.3,19.7,120.6,24.4,178.2,46.6c13.1,5.1,16.4-4.8,19.6-13.7c63.1-176.3,90.4-355.3,37.9-539.5
			c-28.6-100.1-85.6-182.1-165-249.3c-20.4-17.3-28.6-17.6-38,11.1c-54.7,167-164.6,281.9-334.1,331.5
			c-182.3,53.4-367.9-14.7-481.1-169c-34.9-47.5-61.7-98.8-78.4-155.6c-11.8-40.1-12.5-40-47.1-14
			c-155.2,116.9-245.7,274.7-290.5,461.2c-11.9,49.7-19.6,100.1-21.9,151.3c-0.4,10.1-4.8,23,11.1,24c69.6,4.4,139.5,14.6,208.8,1.8
			c85-15.7,142.9-68.6,184.4-142c5.2-9.2,8-25.2,22-22.5c11.8,2.3,9,17.4,11.3,26.9c16.3,67.1,15.4,133.8-3.1,200.7
			c-19.5,70.4-60.8,116.6-134.1,132.9c-83.7,18.5-168,31.1-253.9,30.4c-26.8-0.2-34.7,7.3-28.9,34.9
			c21.4,101.7,54.9,198.9,102.6,291c10.7,20.7,7.6,30.4-13,41.1c-21.5,11.1-31.1,5.4-40.9-14.6c-69.3-140.8-112.8-288.5-125.3-445.5
			c-15.3-191.7,15.1-374.6,105.1-544.9c135.2-256,355.2-393.9,635.7-440.4c194.2-32.2,377.8,4.7,549.2,99.5
			c177.3,98.1,278.6,249.3,304.5,450.6c20.6,159.8-6.3,313.4-60,463.6c-56.7,158.4-143.9,298.9-249,429.2
			c-11.3,14-20.9,18.8-35.5,4.7c-12.7-12.2-29.2-20.3-10.6-42.2c38.5-45.3,72.8-93.9,105.6-143.5c9.6-14.5,11.9-22-8.3-31.8
			c-68.6-33.5-130.4-77.8-188.3-127.8c-63.3-54.5-89.6-121.9-84-205.3c6.3-94.6,35.8-180.4,82.5-261.1
			C2208.4,1949.7,2211.5,1949.9,2214.5,1950z M1604,1663.3c80.5,102.2,180.1,159.2,305.5,161.8c184.9,3.8,353.2-130.4,409.1-319.1
			c8.6-28.9,1.6-43.3-24.9-56.4c-142-70-291.2-98.7-448.6-82.5c-107.9,11.1-210.1,42.3-306.4,92.4c-6.2,3.2-15.8,5.4-14.6,14.1
			c1.7,11.7,12.8,8.4,20.4,8.5c35.4,0.5,70.8,0.3,106.2,0.6c90.4,0.9,104.8,16,101.3,106.6c-1.5,38.2-20.5,59.9-58.5,64.9
			C1665.8,1658,1637.9,1660,1604,1663.3z M1500.5,2151.2c-22.7,14.7-42.3,28.2-62.6,40.5c-77.9,46.9-164,40.9-249.4,37
			c-78-3.5-77-4.2-70.3,74.7c2,23.1,10.3,29.7,32.6,29.7c84.7-0.2,168.3-8.8,250.6-28.8C1470.9,2287.4,1510.7,2227.5,1500.5,2151.2z
			 M2193.6,2161.2c-18.9,78.1-19.9,153.1,51.6,209.3c12.3,9.7,24.1,19.9,35.8,30.2c45.4,40.1,102.1,63.8,148.6,102.2
			c11.3,9.3,17.1-0.9,21.5-8.9c13-23.7,26.1-47.5,37.8-71.9c17.7-37,16.8-38.4-23.7-50.4c-52.9-15.7-108.6-20.4-160.1-41.3
			c-50.1-20.4-87.1-52.4-98.1-108.3C2203.1,2201.7,2198.1,2181.5,2193.6,2161.2z M1616.1,1542.4c0-0.1,0-0.2,0-0.3
			c-18.7,0-37.3-0.2-56,0.1c-6.8,0.1-14.9-1.4-16,9.8c-1.5,15.7,20.5,48,35.8,48.5c28.9,1.1,57.9,1.4,86.9-2.3
			c21.6-2.8,26.5-14.4,25.6-34.1c-1-21.4-14.1-22-29.7-21.8C1647.2,1542.6,1631.6,1542.4,1616.1,1542.4z"/>
		<path class="st0" d="M1838.5,2543c-72.3,90.9-160.8,150.3-270,176.9c-42.5,10.3-85.9,16.6-129.9,15.9c-15.7-0.2-33.5,0-31.3-24
			c1.7-18.9,2-35.2,30.7-35.7c184.3-3.1,320.7-85,402.9-252c8.4-17.2,16.9-22.8,36.2-16.6c20.8,6.8,27.8,16.9,23.9,38.9
			c-15.9,89.2,10.2,164.7,77.9,225.2c51.4,45.9,113.8,60,180,56.1c28.1-1.6,37.3,7.9,39.3,33.6c2.4,30.1-19.6,24.7-35.7,25.5
			C2025.2,2794,1887.6,2730,1838.5,2543z"/>
		<path class="st0" d="M1776.8,684.2c-49,0.8-91.3-41.3-91.5-91.1c-0.2-49,39.2-90.2,87.7-91.9c48.3-1.7,92.6,40.8,93.5,89.9
			C1867.4,641.1,1826.7,683.4,1776.8,684.2z"/>
		<path class="st0" d="M1564.2,871.9c-0.2,51.1-41.1,91.9-91.2,91.1c-50.4-0.8-90-41.9-89.3-92.8c0.7-50,39.5-88.6,89.5-89.1
			C1523.9,780.6,1564.4,821,1564.2,871.9z"/>
		<path class="st0" d="M1171.9,483.3c51,0.4,91.8,41.4,90.5,91.2c-1.3,49.5-40.8,87.5-91.4,87.6c-51.6,0.1-92.3-39.8-91.8-90.1
			C1079.8,521.4,1119.8,483,1171.9,483.3z"/>
		<path class="st0" d="M1541.8,155c48.5,0.5,89.3,40.8,89.9,88.8c0.5,48.7-42.2,90.9-91.8,90.8c-49.9-0.2-91.3-41.4-91.3-91.1
			C1448.5,195,1491.2,154.6,1541.8,155z"/>
		<path class="st0" d="M2093.7,1590.8c1.8-40.8-16.1-73.4-46.4-97.9c-25.6-20.7-9.3-36.8,2.8-52.1c14.1-17.8,26.3-1.5,36.5,7.1
			c91.2,76.9,89.5,220.8-3.5,292.1c-9.5,7.3-21.3,23-33.5,4.4c-9.7-14.9-29.1-29.5-4-50C2077.7,1668.2,2095.9,1633.7,2093.7,1590.8z
			"/>
		<path class="st0" d="M1896.6,1572.1c1.7,57.5-22.3,98.6-58.3,134.3c-10.6,10.5-22.5,18.1-33.9,2.6c-9.7-13.1-27.1-26.3-7.4-45.2
			c19.8-19,35.1-40.6,39.2-69c5.9-41.3-6.5-76.7-36.4-104.5c-23.1-21.5-5.1-35.9,6.4-49.7c14.6-17.4,26.7-0.8,35.9,8.6
			C1876.7,1484.6,1899.8,1525.4,1896.6,1572.1z"/>
	</g>
</g>
</svg>
