<?xml version="1.0" encoding="utf-8"?>
<!-- Generator: Adobe Illustrator 23.0.0, SVG Export Plug-In . SVG Version: 6.00 Build 0)  -->
<svg version="1.0" xmlns="http://www.w3.org/2000/svg" xmlns:xlink="http://www.w3.org/1999/xlink" x="0px" y="0px"
	 viewBox="0 0 3000 3000" style="enable-background:new 0 0 3000 3000;" xml:space="preserve">
<style type="text/css">
	.st0{stroke:#000000;stroke-width:10;stroke-miterlimit:10;}
</style>
<g id="Layer_1">
</g>
<g id="Layer_2">
	<g>
		<path class="st0" d="M1313.9,220.1c27.4-29.6,56.4-53.7,90-72.1c122.4-67,262.9-46.9,360.3,52.6c9.9,10.1,16.9,11.2,29.4,5.2
			c184.2-89.2,378.9-118,581.8-101.9c64.5,5.1,128.4,11.5,189.1,35.1c114.3,44.4,176.2,129.3,188.1,250.1
			c12.2,123.8-26.3,235.7-87.8,340.7c-10.8,18.4-11.5,29.7,1.3,47.3c64.1,88,94.1,189.9,115,294.9c19.9,100.3,20.3,202.2,20.7,303.8
			c0.4,120.7,1.1,241.5-8.1,362c-11.9,155.5-57.3,301.8-122.9,442.1c-26.7,57.1-66.6,105.4-117.7,143.3c-9,6.7-9.6,10.1-1.1,17.8
			c95.8,86.5,118.8,194.3,86,315c-25.7,94.5-70.1,178-159.9,228.6c-63,35.6-132.1,52.1-202.9,62.2
			c-117.1,16.7-235.2,19.7-353.2,19.4c-182.5-0.5-364.9-5.5-547.2-14c-135.5-6.3-271.1-10.2-406.5-18
			c-171.9-9.9-344-19.8-512.9-56.5c-35.8-7.8-70.5-19.3-103.8-35c-73-34.5-107.5-94.5-114.4-172.3c-5.9-66.3,9.8-129.3,34.2-190.4
			c28.4-70.9,67-136,110.4-198.6c4.8-6.9,12.2-12.8-0.7-20.4c-100.6-59.2-143.5-154.5-164.4-263.7c-18-94.4-22-189.8-21-285.5
			c1.7-171,12.4-341.5,25.8-511.9c4.2-53.4,13.3-106.2,25.4-158.5c24.6-105.9,84-191.4,157.3-268.7c5.5-5.8,12.9-10,21.8-16.7
			c-24.2-13.8-43-25.7-60.2-39.9c-85.2-70.7-115-172.1-76.6-276.3c56.4-153.2,166.6-252,319.1-305.4c85.2-29.8,173.3-44,263.4-45
			c81.4-1,162.9-2.3,243.8,8.3c58.4,7.6,114.6,21.9,159.3,64.4C1291.7,178,1304.4,196.7,1313.9,220.1z M1057.1,532.2
			c-11.8,0.7-18.5,0.9-25.2,1.5c-163.1,14.1-310.7,72.7-447.9,158.8c-183.5,115.2-298.7,273.6-311.9,497.3
			c-4.9,82.5-11.5,165-16.3,247.6c-9,155.8-18.2,311.6-2.3,467.5c7,68.2,18.3,135.7,47.8,198.7c18.4,39.3,44.6,72.9,79.7,97.7
			c65.5,46.3,140.8,71.7,216.7,95.3c12.1,3.8,16.5,0.1,21.7-9.9c44.8-87.3,52.9-178.2,28.1-272.5c-8.2-31.1-8.4-30.4,22.1-42.3
			c11.8-4.6,16.5-2.8,20.2,9.5c9.7,31.9,17,64,19.5,97.3c5.9,77.3-5.6,151.4-41.1,220.9c-5.7,11.3-2.8,14.6,9.1,17.2
			c87.6,18.9,176,31.5,265.1,40.2c14,1.4,20.1-2.3,24.5-16.2c34.6-108,42.6-217.6,21.6-329.2c-6.4-34.2-6.4-33.7,27.9-41
			c12.7-2.7,16.2,1.7,18.6,13.5c24.5,122.1,19.4,242.7-17.8,361.6c-4.6,14.7-0.5,17.5,12.8,18.1c115.2,5.2,230.4,9.7,345.8,9.1
			c12.9-0.1,18.3-5,20.5-16.4c1.3-6.6,3.3-13.1,4.9-19.7c25.8-106.6,26.1-213.5,3.4-320.6c-1-5-6.4-12.7-1-14.8
			c13-5.2,27.1-10.1,40.7-10.2c10.6,0,8.2,13.5,9.9,21.4c24.7,113.9,21.9,227.5-5.5,340.4c-4.2,17.3,0.4,19.1,15.6,18.8
			c122.8-1.8,245.6-3.3,368.3-4c15.2-0.1,21.1-6.1,26-19.1c35.4-95.5,41.1-192.8,19.2-292c-6.2-28-6.6-28,21.1-36.1
			c1.3-0.4,2.5-1,3.8-1.4c11.4-4.1,17.2-2.9,20.7,11.6c25.8,107.4,23.2,213.4-11.8,318.4c-3.1,9.1-8.5,17.7,9.1,17.2
			c103.1-3,206.2,0.6,309.2-5.5c9.7-0.6,14.3-4.1,17.5-12.8c34.3-93,47.6-189,38.9-287.7c-3-34.2-4.1-33.5,29.2-40.1
			c12.6-2.5,17.1-1.6,18.7,13.4c10.7,102.5,2.2,202.9-29.7,301c-4.7,14.6-6.7,23.6,14.1,18.3c11.7-3,24.2-3.1,36.2-4.8
			c126.9-18,221.6-82.2,275.6-199.3c71-154.1,114.3-315.6,118-486.3c3-140.4,6.6-280.8,0.5-421.2c-3.6-83.6-14.5-165.8-37.2-246.6
			c-32.2-114.3-86.2-214.9-179.1-291.5c-86.8-71.7-188.5-113.9-294.9-146c-60.3-18.1-122-29.7-185.3-36.7c1.8,8.9,8.5,12,13.1,16.5
			c34.6,33.7,66.4,69.9,94.3,109.2c89,125.6,141.5,264.3,150.4,419c5.6,97.9,4.3,195.4-13.9,291.8
			c-27.8,146.9-109.6,251.6-250.7,306.1c-72,27.8-147.5,41.4-224.3,45.9c-136.2,8-272.5,9.8-408.9,7.1c-101.6-2-203.3-3-303.6-23
			c-178.3-35.5-298.8-138.3-357.3-310.5c-34.9-102.7-38.1-208.8-22.3-315.6c27.9-189.7,110.3-350.2,255.9-476.6
			C1007,571.4,1030.2,553.9,1057.1,532.2z M1523,1664.3c63.1,0,126.2,1.3,189.2-0.3c85.4-2.1,170.7-6.7,254.1-28
			c87.1-22.2,163.7-60.6,217.8-135.6c46.3-64.2,65.5-137.6,72.4-214.9c9.1-102.3,13.2-204.7-6.5-306.1
			c-36.1-185.6-129.4-337.3-276-456.5c-8.8-7.2-17.8-11.1-29.3-11.7c-82.7-4.4-165.3-6.1-248.1-4.8c-168.9,2.7-337.7,5.6-506.4,14.2
			c-10.6,0.5-19.8,3.4-28.9,8.3c-102.3,55.5-190.2,128-256.9,223.7c-106.7,153.1-148.2,323.9-128.8,508.9
			c10.5,100.1,47.1,190.2,116.8,265.1c82,88.1,189.4,117.3,303.4,129.4C1304.5,1667.4,1413.8,1666.8,1523,1664.3z M423.1,312
			c12.2,0,19.5,0.1,26.8,0c122.7-1.2,245.5-2.3,368.2-3.5c29.7-0.3,29.7-0.2,29.5,30.2c0,1.4-0.2,2.7,0,4.1
			c2.4,13.3-4.4,15.3-16.1,15.4c-125.5,1-250.9,2.8-376.4,3.7c-81.5,0.6-83,1.2-113.1,77.8c-1.7,4.4-3,9-5.1,13.2
			c-6.9,13.6-4.1,18.5,12.2,18.1c159.3-3.6,318.6-6.7,478-9.8c33.6-0.7,27.5-4.8,29.4,28.7c0.9,14.8-2,21.5-19.2,21.8
			c-164.1,2.5-328.1,5.9-492.2,8.9c-24.4,0.4-24.6,0.3-21.6,25.4c9.4,77.2,55.8,126.6,120.7,163c14.1,7.9,23,6.1,35.8-3.5
			C620.9,600,775,524,950.2,495.3c105.9-17.4,212.7-25,319.9-27.5c26.1-0.6,19.9-19.2,18.7-30.9c-1.5-14.9,16.5-38.9-14.7-43.5
			c-31.9-4.8-63.5,0.9-95.1,4.1c-18.6,1.9-22.3,9.6-11.5,24.5c9.5,13.1,6.8,21.7-8.5,27.2c-6.3,2.2-12,6.1-18.1,9.1
			c-4.5,2.2-9.7,3.8-12.3-1.9c-9.4-20.4-26.4-39-18.8-64.2c7.7-25.7,27.8-37.9,52.3-42.2c24.6-4.3,49.8-5.7,74.7-8.5
			c15.3-1.7,36.1,7.9,44.7-2.4c9.4-11.2-0.6-30.9-2.5-46.9c-9.9-80.6-43.5-118-122-136.5c-9.2-2.2-18.5-4.2-27.9-5.3
			c-117.5-14-235.3-18.8-353-4.1c-99.3,12.4-193.3,41.1-277.2,97.8C471.9,262.6,446.9,283,423.1,312z M2694,519.2
			c6.4-13.6,6.6-26.1,8-38c2-18.2,1.6-36.6,3.2-54.8c1.2-14.1-4.6-21.5-17.1-28.1c-143.6-75.5-296.4-114-458.6-114.2
			c-20.7,0-27.7-4.4-27.1-26.2c0.5-18.3,3.1-27.9,23.5-24.2c4.6,0.8,9.4-0.4,14.2-0.3c124.5,2.7,245.1,25.1,361.1,70.8
			c29.9,11.8,59.3,24.9,91.9,38.6c-7.4-30.5-20.3-55.2-37.1-78.2c-43.3-59.3-106.3-85.1-175-97.4c-121.6-21.8-244.2-23.9-366.6-7.7
			c-102.7,13.6-200.7,44.7-294.6,88.6c-8.6,4-13.3,7.2-6.9,17.7c7.7,12.7,13.8,26.4,19.6,40.1c3.1,7.3,6,9.2,13.5,5.6
			c30.3-14.9,62.2-16.4,95.2-11.2c35.7,5.7,54.4,23,60.3,58.2c6,35.9,3.1,38.1-32.9,33.4c-13.8-1.8-18.1-5.6-15.9-19.6
			c1.3-8.2-0.5-18.5-11.8-20.8c-24.2-4.8-48.4-6.5-71.7,4c-11.9,5.4-19.1,13-16.6,28.5c2.9,18,4.4,36.6,3.2,54.7
			c-1.1,16.1,5,19.5,19.3,19.8c49.5,1,98.9,3.7,148.2,8.8c221.7,23.3,427.3,85.6,594.7,244.7c23.1-37.1,41-76.9,57.2-117.9
			c6.3-16,3.6-24.9-10.8-34.9c-129-90.5-272-137.8-429.3-142.4c-32.5-0.9-32-1.4-32-34.6c0-11.6,1.9-16.8,15.3-16.4
			c92.7,2.6,183.4,16.1,271.2,47.2C2562,438.7,2629.6,473.9,2694,519.2z M410.4,2331.7c-58.5,87.8-112.2,177.6-122.9,284.4
			c-10,100.1,24.1,165.4,120.9,196.2c38.2,12.1,76.9,21.7,116.3,28.4c177.5,30.2,356.9,39.7,536.3,48.7
			c141.5,7.1,283.2,11.6,424.8,16.9c219.5,8.2,439,16.2,658.6,3.5c86.7-5,173-14.2,255.5-44.1c55.3-20,104-49.6,136.2-101
			c24.6-39.2,44-80.9,55.3-126c25.6-101.7,6.2-190.7-74.3-262.4c-23.3-20.8-29.4-21.1-56.4,0c4.5,5,9.2,9.9,13.5,15.1
			c36.9,45.2,66.8,94,74.6,153.3c11.8,88.5-31,151-98,201c-102.1,76.1-221,103.3-344.4,115.4c-108.1,10.6-216.6,12.1-325.1,12.2
			c-162.6,0.2-325.3-0.7-487.9-1.5c-154.2-0.8-307.5-12.2-459.4-39.5c-86.1-15.5-171.7-33-252.4-68.5
			c-36.3-15.9-69.4-36.5-95.6-67.1c-60-70.1-80-153.7-82.4-243.3C402.6,2412.8,406.9,2372.4,410.4,2331.7z M1548.6,2763.8
			c-228-0.5-439,0.6-649.2-20.6c-78.3-7.9-156.2-18.8-230-48.5c-80.1-32.2-129.4-90.6-148.3-174.9c-11.3-50.4-10.3-101-1.7-151.5
			c7.2-42.2,7.6-41.3-31.7-57.3c-14.1-5.7-18.4-2.9-21.4,11.2c-14.7,69.8-18.5,139.7-4.4,210c19.6,98.1,72.7,167.7,170.8,198.5
			c17.4,5.5,34.5,12.1,52.1,16.9c167,45.1,337.6,69,510.1,71.5c261.7,3.8,523.6,8.5,785.3,0.6c93.6-2.8,186.9-10.7,277.6-36.2
			c77.5-21.8,148.6-55.4,204.4-115.5c23.8-25.6,37.7-55.6,38.2-91.5c1-76.6-44-129.9-90.9-182.5c-3.6-4-7.7-5.7-12.4-2.6
			c-6.1,4-1.8,8.2,0.2,12.2c14.6,28.4,28.2,57.1,35.9,88.3c20.8,84-3.1,150.5-69,191.3c-20.3,12.5-42.4,21-65.2,27.8
			c-73.9,22.2-150.1,30-226.5,35.9C1892.4,2760.9,1712,2761.7,1548.6,2763.8z M1728.6,456.6c0-0.3,0-0.7,0-1c9.5,0,19,0,28.5,0
			c51.2,0.2,51.2,0.2,47.6-52.3c-7.6-108.4-86.1-207.6-186.4-235.4c-102.7-28.4-219.8,15.3-282.7,105.5c-4.9,7-7.4,13.4-6,22.5
			c7.7,50.3,13.2,100.9,9.5,151.8c-1,14.4,4.2,17.1,17,16.4c24.4-1.4,48.8-1.4,73.2-2.3c28.9-1.2,29-1.4,28.3-29.7
			c-0.5-18.6,0.5-36.9,14.3-51.3c17.2-18,37.5-31.7,61.4-38.3c42.8-11.8,101.8,6.3,110.3,66.3c1.5,10.7,4.8,21.1,6.4,31.8
			c1.8,11.9,6.8,17.4,19.9,16.5C1689.3,455.7,1709,456.6,1728.6,456.6z M1877.7,2704.4c3.1,1.4,4.2,2.4,5.3,2.4
			c58.8-2.8,117.7-5.8,176.5-8.6c7.3-0.3,12.8-3.8,18.2-8c85-68.1,129.5-157.6,140.7-264.9c1-9.5-1.8-13.3-12-13.1
			c-66.4,1.5-132.7,2.6-199.1,3.6c-8.6,0.1-13.6,2.3-15.4,11.9C1973.2,2527.3,1935.3,2619.1,1877.7,2704.4z M847,2685.1
			c7.4,1.8,12.3,3.6,17.4,4.2c62.5,7.8,125.4,11.7,188.2,16.3c10.2,0.7,16.6-4.3,23.2-10.2c76.4-68.5,117.4-153.8,122.9-256.4
			c0.7-13.8-2.3-19-17-19.4c-56.2-1.6-112.4-4.2-168.5-7c-10.2-0.5-14,2.4-15.8,12.8c-8.3,49.1-24.4,95.5-49.3,138.9
			C922,2609.8,889,2649.6,847,2685.1z M1602.5,2711.5c4.6,0.8,7,1.6,9.5,1.5c62.4-0.9,124.8-2.1,187.2-2.6
			c10.4-0.1,15.7-5.4,21.3-12.7c60-79.1,97.8-168.1,120-264.4c3.4-14.8-1.1-17.2-14.4-16.9c-49.5,0.9-99,1.4-148.5,0.9
			c-13.3-0.1-18.2,4.8-22.4,16.8c-28.9,82.2-68.4,159.1-119.4,230C1624.9,2679.3,1614.3,2694.7,1602.5,2711.5z M1706.4,2420.9
			c-65.4,0-129.1,0.2-192.8-0.2c-11.8-0.1-12.2,8.5-14.6,15.8c-27.9,84.7-66.5,164.2-114.2,239.3c-7.4,11.7-15.5,23-25.5,37.9
			c55.6,0,106.9-0.4,158.2,0.3c13.1,0.2,21.1-4.6,29.1-14.3c23.2-28.4,45.1-57.7,64.8-88.5
			C1649.6,2551.3,1684.4,2489.6,1706.4,2420.9z M774.9,2385.9c-11.4-3.4-12.4,4.1-14.2,11.8c-18.6,79.9-55.6,150.7-108.1,213.4
			c-10.7,12.7-6.6,16.8,5.3,22.9c27.1,14.2,56.2,22.8,85,32.8c24.8,8.7,42.7,3.1,62.6-12.6c75.8-60.2,123.4-137,142.1-231.9
			c1.9-9.4,2.4-15.4-9.9-16.3C882.9,2402.1,828.6,2394.4,774.9,2385.9z M1138.5,2704.8c0.5,2.5,1,4.9,1.5,7.4
			c49.9,0,99.9-0.1,149.8,0.1c9.2,0,12.8-6.7,17.1-12.5c30.2-40.9,58.1-83.4,81.1-128.8c24.1-47.6,46.6-95.9,62.7-149.3
			c-64.8,0-127.7,0.2-190.6-0.2c-9.9-0.1-10.8,5.3-11.1,12.7c-1,24.4-3.8,48.6-8.6,72.6C1225.2,2582.2,1190.3,2647.8,1138.5,2704.8z
			 M2159.4,2685.5c64.6-7.5,129.4-14.4,186.1-49.5c29.8-18.4,43.7-47.5,44.7-82.2c1.5-53.8-21.4-99.7-47.5-144.6
			c-3.8-6.6-8.4-7.6-15-6.9c-14.8,1.7-29.6,3.4-44.5,4.4c-10.4,0.7-15,3.9-15.4,15.7c-0.9,24.3-4.8,48.4-10.4,72.2
			C2240.8,2565.9,2207.5,2628.5,2159.4,2685.5z M605.5,2589.5c52.6-60.5,87.8-126.5,106.4-201.5c2.2-9,0.8-13.3-9.5-15.3
			c-38.6-7.2-76.8-16.1-114.3-27.6c-9.4-2.9-13.7,0-15.2,9.5c-2.7,18.1-6.8,36-8.6,54.1C558,2472.5,568.6,2532.6,605.5,2589.5z
			 M1554.2,459.3c0-0.1,0-0.3,0-0.4c2.7,0,5.4,0,8.1,0c42.6-0.9,41.7-0.7,31.6-43.1c-4.8-19.9-17.2-25.9-34.9-26.4
			c-12.7-0.4-23.5,4.9-33.8,11.7c-18.1,12-24.3,28.2-16.5,50.4c5.9,16.7,20.9,4.8,31.4,7.7C1544.5,460.3,1549.5,459.3,1554.2,459.3z
			"/>
		<path class="st0" d="M1950.8,1805.5c-0.5-32.1,24.8-58.6,56.7-59.5c32.7-0.9,60.3,25.1,61,57.6c0.7,31.5-27.5,60.3-59.1,60.2
			C1978.3,1863.8,1951.3,1836.9,1950.8,1805.5z"/>
		<path class="st0" d="M1768.5,1892.3c-32.6-0.4-58.7-27.8-57.9-60.7c0.7-31.9,27.4-57.6,59.3-57.1c31.4,0.5,58.4,27.5,58.6,58.6
			C1828.6,1864.1,1799.6,1892.7,1768.5,1892.3z"/>
		<path class="st0" d="M1224.1,1774.5c31.3,0.3,58.4,27.2,58.8,58.3c0.4,30.9-28.5,59.7-59.6,59.5c-32.5-0.2-58.8-27.6-58.2-60.5
			C1165.7,1800,1192.3,1774.2,1224.1,1774.5z"/>
		<path class="st0" d="M802.9,1665.9c-0.4,31.8-26.6,57.7-58.5,57.8c-32.5,0.1-59.6-27.3-59-59.6c0.6-33.1,26.5-57.3,60.8-56.9
			C778.4,1607.5,803.3,1633.4,802.9,1665.9z"/>
		<path class="st0" d="M2260.5,1722.3c-32.3-0.2-57.7-26-57.2-58.1c0.5-32.9,26.7-57.5,60.8-57c32.3,0.4,57.6,26.4,57.1,58.6
			C2320.6,1698.6,2294.9,1722.6,2260.5,1722.3z"/>
		<path class="st0" d="M1035.8,1803.9c0.7,33.6-24.1,57.9-58.4,59.3c-31.5,1.3-58-26.1-58.5-57.8c-0.5-32.8,26-59.5,58.9-59.4
			C1010,1746.1,1035.5,1771.5,1035.8,1803.9z"/>
		<path class="st0" d="M1532.7,1863c-0.3,32.3-25.9,57.9-58,58c-32.8,0.2-59.1-26.5-58.7-59.5c0.4-32,26.5-58.2,58.1-58.3
			C1506.8,1803.1,1533,1829.9,1532.7,1863z"/>
		<path class="st0" d="M1499.2,1632c-140.1,12-272.4-16.5-398.2-77.4c-58.6-28.4-111.1-65.2-153.3-115.3
			c-49.1-58.2-76.8-125.5-84-201.3c-7.7-81.4-6.6-163,6.4-243.5c19.4-120.6,87.5-210.5,186-280c107.1-75.5,226.9-110.2,356.5-115.6
			c94.8-3.9,189.5-9,284.4-5c157.9,6.7,289,67.1,386.4,193.7c51.7,67.1,82,143.2,87.6,228.2c5.5,82.9,2.5,165.8-14.2,247
			c-27.7,134.8-111.4,224.7-233.2,284.4c-122.1,59.9-251.3,83.4-385.8,84.8C1525,1632.1,1512.1,1632,1499.2,1632z M940,1334.3
			c5.6-10.2,9.5-17.2,13.4-24.2c179.2-317,452.6-487,813.1-521.1c84.3-8,168.6-6.3,256.2,3.2c-53.7-59.2-115.2-100.7-188-124.8
			c-69-22.8-141-27-212.5-26.3c-75.6,0.8-151.4,5.1-227,9.1c-123.7,6.6-234.5,46-332.4,121.1c-77.2,59.2-129.1,135.4-143.9,232.6
			c-10.4,68.4-11.9,137.7-7.6,206.9C913.9,1252.6,921,1293,940,1334.3z M1880.1,834.3c-73.1-2-144.1,4.5-214,17.9
			c-303.9,58.4-530,223.7-676.7,496.6c-22,41-21.3,40.6,10.8,75.1c11.7,12.6,17,10.8,26.3-2.5c88.6-126,196-233.6,323-320.9
			c213.1-146.4,449.3-221.5,707.8-226.6c6.2-0.1,16.9,3.7,17.8-3.7c1.2-8.9-5.4-17.8-14.5-22.4c-2.3-1.2-5.2-1.1-7.9-1.5
			C1994.8,839.3,1937,832.4,1880.1,834.3z M2121.7,1015.6c-49,40-94,76.8-139.2,113.5c-4.4,3.6-7.1,7.4-7.4,13.6
			c-2.3,38.5-4.6,77-7.7,115.5c-0.9,10.8,1.9,15,13.3,17.1c34.6,6.2,69.1,13.3,101.7,27c10,4.2,12.5-0.9,15.3-8.9
			c9.7-27.7,14.1-56.4,17.8-85.2C2123.4,1145.7,2124.2,1083,2121.7,1015.6z M1509.1,1581.5c15.9,0,30.2-0.5,44.4,0.1
			c19.1,0.8,30.9-5.7,41.9-23.5c80.9-131.4,246.2-187.4,388.6-131.8c18.3,7.2,28.9,4.7,39.5-9.7c3.5-4.8,7.7-9.2,11.9-14
			C1860.9,1340.9,1624.3,1406,1509.1,1581.5z M1958.1,1471c-113.1-41.6-257.7,7.4-311.8,104.1
			C1758.9,1566.3,1859.8,1527.6,1958.1,1471z M1426,1581.9c14.2,5.6,21-1.2,27.6-11.2c42.1-64.4,95.2-118.2,160.5-158.8
			c135.3-84.1,280.2-101.7,433.2-60.1c6.8,1.9,13.9,7.2,22.6,0.6C1843.6,1261.7,1557.7,1343,1426,1581.9z M1675,997.1
			c-33.8,30.6-62.4,56.5-91.1,82.3c-4.7,4.3-7.3,8.9-7.9,15.6c-3.4,35.6-7.4,71.2-11.7,111.3c34.5-27.6,66-52.7,97.3-78
			c2.3-1.9,4.1-5.6,4.3-8.6C1669,1080.8,1671.8,1042,1675,997.1z M1706,1290.2c26.2-21.3,47.6-38.9,69.2-56.1
			c6.1-4.9,10.5-10.2,11.3-18.3c4.3-42.9,8.7-85.9,13.5-133.1c-29,23.1-55.2,44-81.3,65c-1.9,1.5-3.4,4.5-3.6,6.8
			C1712,1198,1709.2,1241.6,1706,1290.2z M1979.7,1066.7c44.5-36.3,86-69.4,126.5-103.6c10.6-9-0.2-20.1-1.8-30.1
			c-1.1-7-5.8-9.5-13.1-9.4c-29,0.4-58.1-0.7-87.1,2.7c-7.3,0.9-15.9,1-16.5,11.1C1985,978.9,1982.6,1020.4,1979.7,1066.7z
			 M1840.4,1180.7c29.4-24.2,54.5-44.7,79.5-65.2c3.2-2.6,6.2-5.1,6.5-9.7c2.9-42.2,5.8-84.4,9.1-131.5c-28,22.3-51.6,41.1-75.2,60
			c-3.9,3.1-5.9,7.4-6.4,12.3C1849.6,1089.5,1845.2,1132.5,1840.4,1180.7z M1662.4,1192.5c-35.5,28.2-67.1,53.3-98.7,78.5
			c-3.8,3-6.6,6.9-7,11.9c-2.6,28.1-5.2,56.2-8.1,87.3c33.5-21.5,65.2-40.6,99.3-55.5c4.3-1.9,6.4-5,6.7-9.3
			C1657.1,1269.3,1659.6,1233.2,1662.4,1192.5z M1423.9,1318.7c30-24.1,55.1-44.3,80.3-64.5c3.2-2.6,6.2-5.3,6.6-9.7
			c3.2-33.8,6.3-67.6,10-107.2c-31.9,28.9-59.2,53.7-86.6,78.3c-4,3.6-4.8,8.1-5.1,12.7C1427.3,1256.4,1425.8,1284.6,1423.9,1318.7z
			 M1413.6,1499.1c25.8-26.8,48.8-54.2,75.1-78.7c2.7-2.6,5.1-6.7,5.5-10.4c3-28.5,5.6-57.1,8.7-90.2
			c-28.1,22.4-52.8,42.2-77.6,61.8c-4,3.2-5.8,7.5-6.1,12.4C1417.2,1429.1,1415.4,1464.1,1413.6,1499.1z M1366.9,1430.6
			c-67.2,42.6-67.2,42.6-67.4,116.1c0,4,0.3,8.1-0.1,12.1c-0.7,7.6,0.9,13.6,9.9,14.2c16.3,1,32.2,10.3,48.8,2.7
			c1.4-0.7,1.6-4.9,1.7-7.5C1362.2,1523.1,1364.5,1478,1366.9,1430.6z M1719.2,1082.5c22.2-17.6,39.2-34.6,59.3-46.3
			c33.4-19.6,34.3-49.7,33.1-83.9c-25.3,6.4-49.2,13-73.4,18.4c-10.3,2.3-12.2,8.6-12.8,17.4
			C1723.7,1017.9,1721.6,1047.6,1719.2,1082.5z M1376,1268c-26.3,24.6-49.7,46.3-72.9,68.1c-1.3,1.2-2,3.7-2.1,5.6
			c-0.1,23.8-0.1,47.6-0.1,75c23.4-18.7,43.3-34.7,63.4-50.5c5.2-4.1,7.5-9.2,7.8-15.7C1373.2,1324.9,1374.5,1299.3,1376,1268z
			 M1382.1,1138.3c-20.4,15-38.8,28.2-56.9,41.8c-23.7,17.8-31.8,54.2-18.5,83.4c15.2-13.8,28.6-30,45.5-40.5
			C1384.5,1203,1382.8,1172.9,1382.1,1138.3z M1922.8,1178.1c-31,25.3-58,47.4-85.2,69.4c-5.7,4.6-6.1,10.8-4.3,16.5
			c1.9,6.2,8.1,2.9,12.4,2.9c19.7,0.1,39.3-0.3,59-0.1c7.4,0.1,13.2-0.1,13.6-10.1C1919.2,1232.3,1921,1208,1922.8,1178.1z
			 M1250.5,1385.5c-56.8,38.4-69.2,64.3-56.1,116.1c16.3-12.9,31.8-25.7,47.9-37.7c6.9-5.2,8.4-11.3,8.3-19.2
			C1250.3,1425.8,1250.5,1406.9,1250.5,1385.5z M1250.6,1245c-42.1,30.9-76.4,62.6-56.8,120.9c17.6-15.8,34.9-31.5,52.3-47.1
			c3.3-2.9,4.5-6.5,4.5-10.8C1250.6,1287.8,1250.6,1267.7,1250.6,1245z M1138.3,1358.5c-28.2,32.7-52.6,65-75.9,98.2
			c-3.3,4.7-11.4,9.3-2.1,16.6c8.1,6.5,13.2,2.5,19-3.1c10.3-9.8,20-20.7,31.7-28.3C1142,1422.1,1145.6,1393.9,1138.3,1358.5z
			 M1530.4,1059.8c-1.8-2-3.6-4-5.4-6.1c-23.1,12.6-46.2,25-69.1,37.9c-23.4,13.2-27.2,24.6-18.2,53.3
			C1468.9,1116.3,1499.7,1088.1,1530.4,1059.8z M1218.1,1548.2c11.8,3.3,22.7,11.9,29.8,5.6c6.1-5.5,2.4-18.2,1.4-28.8
			C1236.5,1530,1229.2,1538.8,1218.1,1548.2z M1865.1,966.3c11.9-9.7,22.6-18.3,33.2-26.9C1882,940.9,1859,933.9,1865.1,966.3z
			 M1139.1,1516.6c0-11.5,0-20.8,0-32.3c-8.9,7.8-20.1,12.3-20,20.9C1119.2,1512.2,1130.8,1513.6,1139.1,1516.6z"/>
	</g>
</g>
</svg>
