<?xml version="1.0" encoding="utf-8"?>
<!-- Generator: Adobe Illustrator 23.0.0, SVG Export Plug-In . SVG Version: 6.00 Build 0)  -->
<svg version="1.0" xmlns="http://www.w3.org/2000/svg" xmlns:xlink="http://www.w3.org/1999/xlink" x="0px" y="0px"
	 viewBox="0 0 3000 3000" style="enable-background:new 0 0 3000 3000;" xml:space="preserve">
<style type="text/css">
	.st0{stroke:#000000;stroke-width:10;stroke-miterlimit:10;}
</style>
<g id="Layer_1">
</g>
<g id="Layer_2">
	<g>
		<path class="st0" d="M272.1,1594c-22.1-3.3-40.6-1.9-58.9-5.9C90,1561.3,36.5,1450.4,93.7,1338.4c6.9-13.4,7.7-22.3-0.4-36.9
			c-19.2-34.5-8.6-70.8,8.7-102.3c14-25.4,14.1-43,0.6-70.2c-28.3-57.1-32.9-119.5-13.9-181.5c11.6-38,34.3-69.5,71.9-84.1
			c84.6-32.9,171.2-50,261.7-23.8c53.4,15.5,97.6,43.1,128.5,90.1c4.7,7.2,7.3,14.2,19,7.5c87.4-50.1,179.2-49.1,272.8-21.4
			c9.7,2.9,18.2,6.8,28.3-0.8c76.6-57,165.7-79.7,258.2-91.8c159.3-21,305.5,12.1,435.6,108.8c4.4,3.2,8.6,6.6,12.8,10.1
			c26.8,21.8,26,21.1,49.1-4.1c9.5-10.4,4.6-17.9,1.2-27c-25.7-67.2-42.9-136.2-44.7-208.5c-4.8-190.7,90.7-313.3,276.9-356.4
			c94.3-21.8,190.4-28.2,286.5-34.8c117.8-8,235.6-18.7,353.8-15.7c80.8,2,161.6,7,239.3,32.5c146.4,48.1,211.5,160.7,180.1,312
			c-19.6,94.3-62.7,178.3-116.4,257.1c-9.9,14.6-11.2,22.3,2,36.2c94.4,98.6,143.4,216.8,144.3,353.3c0.5,78.4,5.8,157.1-4.5,235.3
			c-14.7,111.4-61.9,207.8-140.1,288.2c-11.1,11.4-11,17.5-2.9,28.7c17.2,24,31.3,49.8,42.2,77.5c20.3,52,15.9,100.6-17.9,145.4
			c-21.8,28.8-23,55.8-3,87.6c38.3,60.9,28.5,147.1-19.5,202.2c-43.6,50-124.5,67.2-190.9,40.4c-32.2-13-59.8-32.9-83.8-57.8
			c-5.9-6.1-10-10.3-18.4-1.9c-28.1,28.1-63.8,41.1-102.3,45.9c-48.5,6.1-97.3,10.4-145.9,15.8c-87,9.7-171.2-4.6-255.6-24.9
			c-87.7-21.1-177.3-17.7-266.4-6c-6.4,0.8-13.9,0.3-18.3,7.8c-30.2,51.5-80.4,62.6-134.1,64.3c-31.8,1-63.7-1.1-94.9-8.7
			c-23.2-5.7-44.8-15.8-59.2-34.8c-9.9-13-18.4-14.1-33-9.5c-201,63.5-406.8,93.7-617.7,86.3c-142-5-281.2-30-417.5-67.6
			c-139.5-38.4-219-139.6-256-274.6c-50.4-183.6,14-340.3,122.4-484.8c6.1-8.1,12.8-15.7,19.3-23.4
			C257.6,1610.8,263.6,1603.8,272.1,1594z M833.4,2430.8c73.4,0,130.8-3.4,188.1-9.4c127.8-13.4,253.1-39,375.4-78.7
			c7.9-2.6,13.8-4.9,15-14.8c4.6-38.2,25.5-68.3,52.1-93.9c38.6-37.2,52.9-81.7,43.5-133.4c-10-54.9,10.7-98.8,45.4-138.4
			c18.5-21.1,38.4-41.2,61.9-56.4c16.7-10.8,17.4-21,10.1-38.2c-66.2-157.7-177.6-270.4-336.8-332.6
			c-198.9-77.8-405.1-110.6-618.3-84c-208.9,26.1-371.4,123.4-472.1,313.5c-59.1,111.6-86.5,228.2-50.4,352.6
			c36.6,126,111.6,218.5,244,250.6C541.6,2404.2,693.4,2433,833.4,2430.8z M2377.9,1932.1c-27.1-28.7-29.3-29.5-60.4-30.2
			c-20.9-0.5-42.9,1.3-60.4-12.8c-63.5-51.2-98.6-111.1-83.5-203.9c2.1-13.1,1.1-23.7-4.6-35.6c-14.1-29.4-19.7-60.6-12.3-92.9
			c14.1-61.3,53.6-105.6,99.1-145.6c7.5-6.6,15-12.1,19.1-22.5c28.2-73,85-110.4,159.4-123.6c25.6-4.6,52-4.2,70.5-27.6
			c4.8-6.1,14.4-8.9,22.2-12.2c50.4-21,102.7-30.3,157.1-24c11.1,1.3,18.7,0.3,25.9-9.2c19.9-26.1,47.7-35.2,79.8-35.8
			c28.3-0.5,55.4,5.2,82.5,12c6.6,1.7,14.5,7.3,19.6,2.5c6.5-6.2-0.2-14.5-2.3-21.5C2829,951,2642,812.6,2434.4,812.3
			c-140.7-0.2-281.4,0.5-422.1-0.3c-57.3-0.3-113.2,7.3-166.4,27.6c-174.5,66.6-279.8,192.1-314.1,376.1
			c-8.7,46.8-5.2,94.2-5.4,141.5c-0.2,58.3-3,116.4,5.6,174.4c30.1,204,212.3,378.5,417.6,395.3
			C2090.7,1938.5,2232.4,1928.2,2377.9,1932.1z M1740.5,2322.7c7-0.3,10.8-0.2,14.6-0.8c84.6-11.4,169-9.4,252.8,6.6
			c49.4,9.4,97.4,25.5,148.2,28.1c83.6,4.2,165.8-8.5,248.3-17.8c47.2-5.3,81.9-29.1,107.5-69c56.9-88.7,74.1-184.4,55.7-287.5
			c-3.4-18.9-6.3-31.1-30.7-20.6c-14.3,6.1-32,5.2-48.2,5.7c-153.1,4.7-306.2-0.1-459.2,2.5c-107.7,1.8-207.9-21.6-299.5-79.1
			c-8-5-14.2-6.6-23.2-1.1c-47.1,29.1-92.4,60.4-128.7,102.9c-24.1,28.1-39.1,59.4-32.4,98.1c12,69.7-7.6,128.7-59.6,177.1
			c-10,9.3-18,21.5-24.9,33.5c-21.3,37.5-9.7,68.9,31,82.9c45.2,15.5,91.8,14.1,138.1,6.6c30.5-5,49.8-22.6,61.1-53.3
			c24.2-65.7,64.7-120.2,124.8-158.1c56.5-35.6,119.6-50.6,185.3-56.4c93.1-8.1,186.3-5.8,279.5-0.9c64.3,3.4,118.1-17.1,157.8-68
			c14.4-18.4,21.6-3.5,31.6,2.2c16,9.2,3.3,16.9-2.2,23.5c-43.7,52.3-98.6,82-168.1,80.6c-55.2-1.1-110.3-3.3-165.4-3.6
			c-69.9-0.3-139.9,0.6-208.3,17.9C1843.6,2195.7,1780.8,2241.8,1740.5,2322.7z M752.7,1286.2c-1.2,23.6,3.4,59.7,8.8,96
			c2.4,16.2,7.4,21.9,24.7,21.7c163-2.2,321.2,25.8,475,78.9c12.5,4.3,24.2,3.7,36.4,0.7c72.1-17.8,130.7-55.6,175-115.7
			c8.7-11.8,13.5-23.4,13-38.3c-1.3-38.9,1.2-77.7,6.8-116.2c10.8-74.2,37.7-142.3,78.3-205.2c4.7-7.2,10.6-12.8,0.6-21.3
			c-73.6-62.7-157.6-105.1-252.4-122.4c-84.8-15.5-170.2-9.5-254.2,9.3c-93.1,20.8-177.6,57.6-235.8,137.9
			C772.3,1089.4,752.4,1178.4,752.7,1286.2z M2475.1,334c-27.1-2.6-60-1.4-92,0.2c-122.3,6.2-244.5,16-366.5,26.6
			c-74.2,6.5-147.9,17.5-218,45.4c-89.9,35.7-146,100.6-167.9,194.1c-23,98.2-3,192.6,28.8,285.7c4.2,12.3,9.2,10.9,17.9,4.1
			c16.5-12.9,32.8-26.6,51.1-36.4c17.1-9.2,18.7-20.1,16.2-37.5c-10.9-76.1,0.6-147,52.6-207.5c41.9-48.7,97-75.6,157.4-89.7
			c149-34.6,300.1-50.6,453-36.7c97.2,8.8,188.6,37.7,271,91.2c59.2,38.5,84.1,93.5,75.2,163.6c-3.4,27.3-13,52.5-24.2,77.4
			c-5.9,13.1-21.9,26.1-16.8,38.4c4.8,11.7,23,17.2,33.7,27.2c11.2,10.3,16.8,7.7,24.6-4.1c43.2-65,79.1-133.4,101.8-208.3
			c48.8-160.6-14.6-272.1-177.7-312C2624.9,338.6,2552.8,335.1,2475.1,334z M825.7,952.2c-32.9-11.8-64.4-15.2-96.2-16.1
			c-116.4-3.1-206.9,56.8-240.8,164.5c-36.6,116.4-11.9,223.8,56.8,322.6c5.1,7.3,10.2,10.5,19.3,8c46.6-12.8,94.2-19.8,142.3-23.6
			c15-1.2,18.7-6,16.3-21.6C698.7,1228.8,716.3,1080.9,825.7,952.2z M2818.2,1975.8c-4-42.9-24-81-49.2-117.1
			c-6.3-9.1-11-4.4-16.8,0.1c-42.3,33.5-88.9,59.5-139.4,78.1c-10.8,4-13.7,9.1-11.1,20.6c26.6,115,10.5,223.4-51.7,324.3
			c-4.9,7.9-4.8,13.2,1.8,19.9c24.8,25.3,52.1,46.9,86.1,57.9c51.1,16.6,110.7-0.5,141.5-39.6c32.3-41.1,38.8-107.5,10.1-151.1
			c-31.4-47.6-24.2-90.7,7.1-133.4C2809.4,2018.2,2817.3,1999.4,2818.2,1975.8z M303.1,1148.1c0,1.1,0,2.1,0,3.2
			c16.3,0,32.6-0.1,48.9,0c16.3,0.1,32.8-1.1,48.9,1c25.5,3.3,41.3-2.2,41.9-31.9c0.2-11.2,4.4-23.1,9.5-33.4
			c9.4-19.1,0.7-22.4-16-22.2c-24.2,0.2-48.2-4-70.9-11.7c-44.1-14.9-53.5-63.4-18.8-94.1c9.4-8.3,20.3-14.1,32.3-17.9
			c11.1-3.5,22.1-9.5,27.3,8.4c4.2,14.4,6.1,25.3-13.6,28.4c-8.9,1.4-18,5.7-23.4,14.1c-5.2,8-7.3,17,3.5,21.5
			c31.6,12.9,65.2,14.1,98.5,13.2c18.2-0.5,19.5-22.1,30.8-31.9c5.2-4.5,8.6-11.4,14.2-15.3c13.3-9.5,9.1-18.5,1.8-29.4
			c-24.8-37.4-60.2-59.5-102.2-72.1c-83.1-25-162.9-8.8-240.9,21.3c-27,10.4-42.3,34.3-49.8,61.4c-14.7,52.8-8.6,104.6,12.5,154.7
			c9.4,22.4,26.7,33,51.2,32.8C227,1147.8,265,1148.1,303.1,1148.1z M2871.6,1578.8c-0.2-75.9-60.5-135.4-136.7-134.9
			c-73.5,0.5-134.7,62.9-133.7,136.4c1,74.4,61.8,134,136.3,133.6C2812.5,1713.5,2871.7,1653.8,2871.6,1578.8z M383.3,1344.7
			c-12.9,2.1-25.7,4.5-38.6,6.4c-65.5,9.7-130.9,17.9-195.5-5.8c-7.7-2.8-14.6-2.2-19.4,6.8c-35,66.3-25.5,135.7,35.1,175
			c56.6,36.8,135.6,36.1,191.3-2.6c32-22.2,66.3-40.2,101.7-56.4c17.6-8,46.3-9.5,50.1-24.1c3.5-13.3-16.5-32.7-26-49.5
			c-4.2-7.5-7.3-15.5-17.9-16.1c-45.6-2.3-88.1,6.7-125.1,34.6c-11.2,8.5-16.7,19.5-7.6,34.3c7.6,12.4,9.6,31.2-1.5,37.8
			c-10.2,6-24.3-6.4-32.3-17.6c-10-13.9-13.5-29.3-8.6-46.3c5.9-20.5,18.7-35.3,36.1-46.9C343.4,1362.3,364,1355.2,383.3,1344.7z
			 M2624.5,1442.3c-25.1,5.9-47,6.6-67.9-0.7c-13.5-4.7-20.4-0.8-29.3,9.2c-26.2,29.6-53.1,58.9-92.2,72.3
			c-9.3,3.2-7.5,10.6-7.4,17.3c0.3,24.4-4.1,48.2-11.7,71c-6.5,19.5-24,38.8-22,56.6c2.1,18.3,22.9,33.9,30.4,53.8
			c0.3,0.7,0.8,1.4,0.9,2.1c2.2,8.7,7.3,12,16.7,12.2c45.1,1,85.4,14.8,117.8,47.6c4.8,4.9,9.3,10.1,17.7,4.2
			c37.6-26,81-22.9,123.7-24.2c26.7-0.8,51.3,2.8,68.3,27c17.3-16.6,32.5-32.8,45.3-52.6c-112.9,26.2-180.6,5.8-226.2-67.5
			C2544.7,1600.1,2555.6,1526.3,2624.5,1442.3z M237.8,1321c71.7,0,130.7-12.4,189.4-27.4c13.8-3.5,14.5-10.2,12.9-21.7
			c-2.9-20.7-6.1-41.5-6.3-62.4c-0.2-15.6-5.6-19.3-20.3-19.4c-72.1-0.5-144.2-1.7-216.3-3.4c-49-1.1-54.3,2.2-68.7,49.2
			c-1.1,3.7-2.2,7.4-3.1,11.2c-7.2,30,1.5,47.4,29.7,59.5C184.9,1319.5,216.4,1322.2,237.8,1321z M2717.3,691.8
			c1.1-45.1-43.3-78.8-86.6-102.1c-6-3.3-11.7-1.3-17.7,1.2c-62.7,26.5-115,107.9-112.6,174.9c0.3,8.5,2.5,12.6,11.3,13.8
			c52.6,7.5,102.7,23.5,150,47.5c10.2,5.2,14.9,2.8,20.1-6.3C2701.4,786.8,2716.7,751.6,2717.3,691.8z M2578.7,564.6
			c-19.1-7-33.8-13.7-49.2-17.8c-89.6-24.2-64.7-30.9-127.8,35c-45.3,47.3-70.1,107-89.1,168.8c-4,13.1-3.5,24.6,18,23.4
			c37.9-2.1,76-0.9,114,0c12.1,0.3,16.3-3.6,17.1-15.3C2467.2,676.5,2505.7,613.3,2578.7,564.6z M2193.2,1571.9
			c-0.5,74.1,44.3,118.7,107.1,118.9c8.2,0,15.2-2.1,21.3-7.5c43.3-37.6,65.8-85.2,67.2-142.5c0.2-8.2,0.2-16.6-11.2-20
			c-39.2-11.6-71.2-33.7-93.7-68.3c-3.3-5.1-6.8-9.2-12.6-3.4C2232.9,1486.8,2196.8,1526,2193.2,1571.9z M2227.6,519.4
			c-27.2,2.4-51.7,5.4-76.3,6.3c-15.6,0.6-25.4,7.6-34.4,19.4c-48.1,62.7-80,132.4-95.4,209.9c-3,15.3,1.5,19,16,18.6
			c29.5-0.9,59.1-1,88.5,0.1c15.6,0.6,19.8-5.6,20.6-20.1c3.2-58.8,18.4-114.6,44.5-167.3C2201.9,564.3,2214.5,543.2,2227.6,519.4z
			 M2404.9,520.9c-19.7-1.5-33.3-3-46.9-3.5c-89-3.1-71.9-15.8-122.4,67.7c-31,51.2-45.4,108.3-50.2,167.7c-0.6,7.1-5.8,19.5,8,20
			c24,0.9,49.5,4.7,71.5-2.2c15-4.7,8.9-30.6,15.8-45.9c0.3-0.7,0.6-1.4,0.8-2.2C2304,646.8,2343.8,581.3,2404.9,520.9z
			 M2683.8,1281.4c0.8-43.3,0.8-43.6-34.8-43.2c-40,0.4-78.3,9.1-114.5,26.5c-21.1,10.1-31,27.4-31.9,50.1
			c-1.8,45.6,33.1,88.1,78.5,91.5c42.5,3.2,80.8-10.8,113.5-39c6.8-5.9,8.7-10.8,3.6-19.6C2684.9,1324.9,2684,1299.1,2683.8,1281.4z
			 M2912.8,1294.7c-2-24.6-3.6-42.4-4.8-60.2c-0.6-8.2-2.2-15.1-11.5-18c-37-11.7-73.9-24-113.5-21.5c-27.8,1.8-48.9,18.6-55.5,45.2
			c-5.4,21.9-7.8,44-2.4,66.8c8.3,35.1,23.2,47.8,58.6,45.2c33.3-2.5,65.8-9.3,97.7-19.7C2904.4,1325.1,2919.5,1314.9,2912.8,1294.7
			z M2410.9,1486.5c2.3,0.1,4.8,0.9,6.9,0.3c37.9-11,61.4-40.2,85.6-68.3c4.2-4.9-1.1-8.4-3.9-11.6c-23.3-26.8-36.2-57.6-35-93.4
			c0.4-10.8-3.7-13.2-13.7-11.8c-60.5,8.3-108.5,34.3-135.7,91.9c-6.4,13.5-6.2,25.5,1.5,37.3
			C2338.8,1464.9,2370.8,1482.6,2410.9,1486.5z M2209.2,1703.6c-3.2,48.7,10.7,86.8,38.2,123.9c27,36.5,61.8,35.8,99.1,35.2
			c4.7-0.1,9.4-0.5,14,0.1c25,3.2,35-11.5,39.3-32.8c8.9-43.6-2.6-82.8-25.5-119.7c-6.9-11-12.5-13.1-22.4-2.5
			c-19,20.2-42.2,25.9-70,20.5C2257.4,1723.5,2234.7,1714.4,2209.2,1703.6z M2072.9,538.2c-50.2-2.5-64,3.7-94,39.6
			c-47.5,56.7-80.3,120.9-98.2,192.7c-1.4,5.5-5.9,11.4-0.9,16.1c27.8-3.9,54.5-8.9,81.4-11c13.4-1,18-5.2,20.4-18.3
			c11.2-60.4,30.2-118.4,61.5-171.7C2052.4,569.8,2062.6,554.5,2072.9,538.2z M2401.9,1896.2c26,16.5,58.1,27.8,84.5,30.3
			c48,4.5,61.3-7.4,62.5-55.7c0.3-10.1,1.2-20.1,2-30.1c0.5-6.3,1-12.2-4.4-17.2c-24.1-22.3-48.8-42.3-83.4-47.2
			c-17.3-2.4-23.3-0.7-22.1,18.6C2443.6,1833.5,2435.4,1869.1,2401.9,1896.2z M1786.1,821.8c20.4-13.5,48-10,53.5-42.6
			c12-71.2,42.6-135.1,84.2-193.9c3.1-4.5,5.4-9.5,9-15.9C1822.3,595.9,1759.6,704.2,1786.1,821.8z M1516.7,1633.2
			c-24-69.3-31-140.4-31.9-218.8c-42.1,48-90.5,77.1-146.8,99.1C1404.6,1546.9,1464.1,1584.3,1516.7,1633.2z M2906.1,1522.4
			c1.7-16.6,4.2-30.8,4.5-45.1c0.6-37.1,0.2-74.3,0.2-111.5c-6.9-2-12.3,1.9-18.1,3.7c-49.1,15.3-98.4,28.7-150.7,16.9
			c-14.1-3.2-19.3,7.3-26,17.6C2814,1407.9,2832.5,1419.5,2906.1,1522.4z M2585.5,1905.3c54.7-18.6,102-44.3,144.4-78.9
			c11.8-9.6,6.7-20.7-5.7-21.4c-40.1-2.3-80.8-6.4-118.9,11.7c-6.6,3.2-13.9,6.7-14.4,16.5
			C2589.5,1856.2,2587.4,1879.3,2585.5,1905.3z"/>
		<path class="st0" d="M802.4,2281.7c-13.4-59.5-26.7-119-40.1-178.5c-9-40.1-18.7-80-26.9-120.3c-2.4-11.8-7.7-16.2-18.8-19.7
			c-120.8-37.9-192.3-122.8-228.1-241.3c-3.2-10.7-4.7-19.4,10.2-21.8c12.1-1.9,22.3-7.6,27.9,11.7c22.9,79.6,66,144.9,139.2,187.9
			c40.5,23.8,84.9,33.3,130.6,39c128.5,15.9,247.7-6,351.8-87.5c49.5-38.8,90-86,118.8-141.9c9.7-18.9,18.6-13.9,32.6-7.5
			c17.8,8.3,6.9,17.7,2.2,25.8c-81.5,142.4-201,230-365.8,250.4c-15.1,1.9-19,10.2-23.2,21.5c-33.1,89.4-66.3,178.7-99.6,268
			c-1.9,5-4.2,9.9-6.3,14.8C805.4,2282.1,803.9,2281.9,802.4,2281.7z M812.7,2156.3c22.9-61.2,43.3-116,64.2-172.1
			c-36.5-2.8-70.1-5.4-104.2-8C785.9,2035.1,798.5,2092,812.7,2156.3z"/>
		<path class="st0" d="M1080.8,2286.8c-60.3-0.8-105.3-46.9-104.7-107.4c0.6-59.1,48.5-106.7,107.3-106.5
			c59.2,0.2,108.8,50.3,107.9,109.2C1190.3,2242,1142.3,2287.6,1080.8,2286.8z M1083.9,2248.9c38-0.3,67.9-30.4,67.8-68.4
			c-0.1-38-30.1-67.9-68.2-68c-39.2-0.2-69.9,30.7-69.1,69.5C1015.2,2219.6,1046,2249.2,1083.9,2248.9z"/>
		<path class="st0" d="M351.8,2092.8c-0.1-60.6,47.8-108.6,107.5-108c58.8,0.7,106.8,48.8,107,107.3
			c0.2,59.5-49.2,108.4-108.7,107.8C397.9,2199.3,351.9,2152.7,351.8,2092.8z M458,2160.3c39.5,0.1,67.6-27.5,68.1-66.8
			c0.4-39.2-27.7-68.6-66-69.2c-39.1-0.5-70.4,29.8-70.3,68.3C389.8,2130.5,419.9,2160.2,458,2160.3z"/>
		<path class="st0" d="M963.2,1686.6c0,52.6-38.4,91.4-90.6,91.4c-52,0-91.5-39.3-91.6-91c-0.1-52,39-91.1,91.2-91.2
			C924.8,1595.7,963.2,1634,963.2,1686.6z M925.4,1686.6c-0.1-29.2-24.8-53.4-53.9-52.9c-28.6,0.5-51.6,23.5-52.2,52.1
			c-0.6,29.5,23.1,53.8,52.5,54C901.3,1740,925.6,1715.9,925.4,1686.6z"/>
		<path class="st0" d="M1834.3,1208.3c4.2-14.6-2.1-28.9-13.9-44.4c-17.2-22.6-24.6-50.8-21.7-79.2c1.8-17.8-4.4-23.4-19.9-25.4
			c-11.3-1.5-20.9-4-14.6-20.3c4.9-12.5,4.4-23.6,24.9-17.7c54.5,15.6,110.4,15.5,166.1,6.1c16.3-2.8,30.5-8.9,41-23.6
			c12.4-17.2,31.4-24.9,52-27.9c62.7-9.1,125.4-9.5,188,0.3c9.1,1.4,22.3,0.1,16.1,17c-3.9,10.8,1.9,28.6-21.7,21.9
			c-16.2-4.6-37.3-10.7-49.8-4.1c-13.5,7.1-9.4,30.7-10.5,47.1c-3.8,58.5-37.6,91.4-90,108.3c-12.9,4.2-14.5,12.7-15.8,22.5
			c-3.3,26.2-6.4,52.4-8.8,78.6c-2.6,29.9-19.8,48.8-46,59c-28.5,11.1-58.7,15.3-89.2,11.8c-41.4-4.7-67.9-27.7-78.8-68.3
			C1836.7,1251.1,1833.5,1232.1,1834.3,1208.3z M1933.6,1194.8c-67.9,0-70.4,3.3-54.8,61.4c0.6,2.2,1.6,4.4,2.1,6.6
			c4.8,21.9,19.5,33.1,40.6,35.7c24.8,3,49.4,0.1,73.1-7.8c10.6-3.5,20.1-10.3,21.7-22.2c4-29.2,6.8-58.5,10.1-87.7
			c0.8-7-0.3-13.1-8.5-13.4c-8.1-0.2-19.2-11.2-23.2-2C1980.3,1199.9,1951.8,1195.5,1933.6,1194.8z M2002.5,1084.3
			c4.2,13.1-7,29.3,6.7,39.3c29.1,21.2,102.3-0.1,113.7-33.7c7.4-21.9,10.3-45.2,12.3-68.4c0.9-10.3-2.2-14.3-12.5-13.3
			c-18.5,1.8-37,4.8-55.5,4.3c-29.1-0.7-43.1,20.9-61.2,37.1C1993.5,1060.8,2007,1073.2,2002.5,1084.3z M1886.1,1073.6
			c-13.6-0.9-24.5-1.6-35.3-2.3c-4.7-0.3-8.9-0.4-11.8,4.8c-9.3,16.7,7.1,71.4,25.9,76.7c29.2,8.2,63.3,12.3,88.3-0.9
			c17.7-9.4,11.5-42.4,10.5-65.6c0-0.8-0.2-1.5-0.2-2.3c0.5-12.6-3.8-17.6-17.8-15.5C1925.1,1071.6,1904.1,1072.2,1886.1,1073.6z"/>
		<path class="st0" d="M1141.4,1358.8c-65.1,0.6-117.5-50.8-117.6-115.5c-0.1-63.8,52.8-117.1,117-118.1c63.5-1,117,51.8,118,116.4
			C1259.7,1307.6,1209.2,1358.1,1141.4,1358.8z M1219.5,1244.6c0.5-45-31.5-78.3-76.2-79c-44.5-0.8-78.8,31.8-79.9,75.8
			c-1,43.7,32.9,78.8,76.6,79.3C1184.8,1321.3,1219,1288.5,1219.5,1244.6z"/>
	</g>
</g>
</svg>
