<?xml version="1.0" encoding="utf-8"?>
<!-- Generator: Adobe Illustrator 23.0.0, SVG Export Plug-In . SVG Version: 6.00 Build 0)  -->
<svg version="1.0" xmlns="http://www.w3.org/2000/svg" xmlns:xlink="http://www.w3.org/1999/xlink" x="0px" y="0px"
	 viewBox="0 0 3000 3000" style="enable-background:new 0 0 3000 3000;" xml:space="preserve">
<style type="text/css">
	.st0{stroke:#000000;stroke-width:10;stroke-miterlimit:10;}
</style>
<g id="Layer_1">
</g>
<g id="Layer_2">
	<g>
		<path class="st0" d="M1296.7,2785.1c-35,73.3-95.5,90.4-169.7,81.9c-50.8-5.9-102.6-4.3-152.7-16.6c-55.3-13.6-96-45.7-117.5-99.1
			c-5.4-13.4-10.3-11.7-20.6-6.6c-81.8,40.7-166.5,72.2-257.4,86.7c-183,29.1-331.3-52.2-403.2-222.9
			c-42.2-100.2-58.7-206-67.5-313.5c-17.3-210.6-10.5-421.3-5-632.1c4.7-175.8,9-351.7,18-527.3c9.4-182.6,27.6-364.4,81.7-540.3
			c28.3-92.1,67.5-179.3,129.4-254.4c92.3-112,212-174.5,354.8-194.3c160.2-22.1,314.9,5.2,466.4,55.6
			c73.4,24.4,143.6,54.1,224.2,56.3c82.6,2.3,154.4,43.2,215.4,99.6c10,9.2,15,10.4,25.8,0.4c134.8-124.1,294.4-196.6,474.6-224.4
			c96.3-14.8,192.2-11.7,287.5,9.7c173.8,39,289,144.7,352.4,309.2c60.4,156.7,95.4,319.2,111.2,486.3
			c21.8,231.1,6.5,460.6-23.8,689.8c-24,181.7-61.8,360.8-97.6,540.3c-3,15.1,1.5,20.3,13.2,26.4c40.7,21.2,80.3,44.3,116.2,73.1
			c127,101.8,116.5,307.9-19.8,390.3c-40,24.2-83.9,32.5-129.9,30.5c-13.6-0.6-20,1.8-19.3,17.1c0.8,18.5-3.8,36.7-8.3,54.6
			c-15.5,62.6-51.8,93.5-115.8,101.2c-34.2,4.1-68.3,4.1-102.5,2.8c-9.6-0.4-15.9,1.1-21.7,10.5c-43.2,69.9-100,93.1-180,74.4
			c-48.9-11.4-91.9-34.7-131-65.5c-7.9-6.2-12.2-7.9-19.2,1.4c-37.7,50.2-90.9,65.3-150.5,63.1c-77.6-2.9-145.7-34.4-210.2-74.5
			c-13.9-8.6-20.7-7.7-31.3,4.8c-36.3,43-82.9,61.4-139,51.8c-47.8-8.2-95.7-16.4-143.2-26.1c-61.9-12.6-103.5-50-126.3-108.6
			c-1-2.5-2-5-3.1-7.5C1301.1,2788.8,1300.4,2788.5,1296.7,2785.1z M1891.1,247.3c-6.4-4-10.1,0.2-14.3,1.9
			c-59.2,24.1-112.3,58.6-164.1,95.5c-45,32-82.8,71.4-115.9,115.4c-76.5,101.7-146.7,207.8-218.5,312.8
			c-92,134.5-194.5,259.6-317.2,367.2c-52.4,46-107.4,89.2-160.5,134.5c-42.9,36.6-81.5,77.3-110.7,125.9
			c-54,89.8-29.5,183.2,61.2,235.1c20.3,11.6,41.9,19.9,64.3,26.7c66.4,20.1,134,15.9,201.6,10.2c68.2-5.7,136.4-14,204.8-4.9
			c16.4,2.2,17.9-4.2,17.9-17.4c-0.2-43.1,0.6-86.3,0.8-129.4c0.2-36.5,0-36.1,36.4-33.9c10.2,0.6,14.7,3.6,14.5,14.4
			c-1,71.9-1.9,143.7-2.2,215.6c-0.1,12.2-5.7,14-15.4,11.4c-83.2-22.3-167-13.2-250.9-5.5c-79.4,7.3-158.7,9.8-235.6-16.6
			c-14.9-5.1-14.1,2.9-14.5,12.5c-4,89.6-7.8,179.1-12.4,268.6c-0.7,14.4,3.5,18.9,17.7,19.4c66.3,2.5,132.6,6.1,198.9,8.9
			c30.1,1.3,28.9,0.8,30,30.4c0.7,19.1-6,22.4-23.8,21.3c-69.6-4.4-139.4-6.7-209.1-11c-15.9-1-19.8,4.8-20.6,18.9
			c-3.8,65.8-2.8,131.4,8.1,196.5c7,41.7,31.7,66.6,73.9,74.4c44.2,8.3,88.7,6.6,133.1,5c100.9-3.6,193.5,20.9,278,76.6
			c24.5,16.1,51.1,29.2,75.6,45.3c14.3,9.4,21.7,6.7,27-8.3c1.1-3.2,3.3-6,4.8-9.1c100.3-210.7,115.5-427.9,49.5-651.1
			c-9.6-32.5-9.8-31.7,21.3-43.1c13.6-5,18.2-1.9,22.3,11.8c13.9,47.2,25.8,94.7,33.8,143.4c32.7,199.5,3.4,389.4-86.8,570
			c-7.2,14.5-4.8,19.2,9.4,24.6c84.5,32,171.7,50,261.9,54.9c15.9,0.9,24.1-3.4,31.1-18.2c104.8-221.8,125.7-450.7,60.7-687.4
			c-8.8-32.1-8.7-31.3,23.2-42.2c13.4-4.6,16.8-0.7,20.6,11.7c20,64.9,32.5,131.4,38.9,198.7c16.6,173.6-10.9,340.5-80,500.7
			c-5,11.5-12.4,22.4-13.3,36.9c81.9-0.5,162.3-7.1,242.9-11.5c13.1-0.7,20.7-5.6,27.8-16.3c137.5-208.8,174.2-434.5,114.8-676.6
			c-8.2-33.6-8.7-32.7,23.2-43.2c13.6-4.4,18.2-1.2,21.6,12.1c15.7,61.7,27.1,124,30.9,187.7c10.5,174.7-26.5,338.3-113.4,490.4
			c-7.3,12.8-14.6,25.6-22.6,39.7c16.8-2.6,31.5-4.7,46.1-7.1c99.5-16.3,196.5-41.4,289.8-80.1c12.3-5.1,17.9-12.4,19.3-25.5
			c3.7-36.1,9.1-72,12.6-108c15.2-157.5,22.2-315.4,17.7-473.7c-0.9-32-0.6-31.2,31.9-32.9c14.8-0.8,18.5,4.1,18.6,18.1
			c0.5,52.7,2.7,105.3,1.2,158.1c-3.1,111.5-7.4,222.9-19.4,333.9c-2.8,25.9-5.8,51.9-9,80c10.8-5.6,15.2-12.5,20.3-18.8
			c24.9-30.5,37.7-66.6,46-104.1c31.8-144.2,60.2-289.1,86.9-434.3c40.5-220.3,69.1-442,70.9-666.4c1.6-214.7-21.3-426.1-88.2-631.2
			c-2.4-7.4-2.6-16.1-11-22.9c-0.7,10.6-1,19.9-1.9,29.1c-0.9,9.5-2.1,19.1-3.4,28.5c-22.9,159.1-91.1,294.6-221.8,390.4
			c-173,126.8-358.4,125.5-543.7,29.6c-127.7-66.1-204.4-173.7-221.7-318.5c-15.6-130.4,21.8-247.6,96.6-353.9
			C1833.1,305.5,1861.5,275.9,1891.1,247.3z M387.3,357.8c-5.8,4.1-7.7,5-8.9,6.4c-5.3,6.2-10.7,12.4-15.7,19
			c-67.1,88.3-105.8,189.5-131,296.1c-48.1,203.4-61.9,410.8-67,619c-0.3,13.9,5.2,15.3,16.6,15.3c198.5-0.3,397-0.2,595.5-0.1
			c8.8,0,15.4-1.9,21.4-8.9c39.2-45.2,85-83.3,131.7-120.2c91.5-72.4,176.9-151,253.4-239.2c16.3-18.8,16.5-19.3-8.5-25.1
			c-58.1-13.4-106.4-42.8-143.8-88.9c-46.3-57.1-66.1-124.3-65.4-196.6c1.7-164.4,69.7-288.4,224.7-356.9c2.4-1,4.4-2.8,8.3-5.4
			c-102.5-40.7-206.6-66.8-314.4-78.4c-11.5-1.2-11.9,4.5-12.8,12.8c-4.9,43.5-11.2,86.9-15.2,130.4
			C837.9,537,830.4,737.3,832,937.9c0.3,36.2,0.5,35.9-35.8,35.6c-9.9-0.1-14.6-1.6-14.7-13.2c-1.4-144.4,1.5-288.8,9.7-433
			c6.1-108.5,15-216.9,30.4-324.6c1.4-9.7-1.1-13.9-11.4-13.8c-50.7,0.5-101.2,3.2-151,13.5c-9.7,2-13.2,5.9-13.8,16
			c-9.8,152.4-11.1,305-5.7,457.6c3.6,101.3,11.4,202.2,20.4,303.1c1.1,11.8-0.7,17.4-14.2,18.3c-34.6,2.4-34.5,3.1-37.2-32.8
			c-0.3-4.1-0.8-8.2-1.2-12.3c-9.9-94.6-14.6-189.6-18.7-284.6c-6.2-144.4-2.2-288.7,5-432.9c0.7-13.4-2.6-15-14.5-10.6
			c-43.8,16.4-84.2,38.9-122.4,65.9C442,300.7,436,312,436.2,330.7c2.1,217.6,2.9,435.3,5.4,652.9c0.3,24-12.2,20.2-26.5,20.9
			c-15.2,0.7-24.6,0.4-24.6-20.6c-0.2-149.2-2-298.4-3.1-447.6C387,478.2,387.3,420.1,387.3,357.8z M328.4,2730.6
			c0-7.8,0.1-11.2,0-14.7c-5-182.7-10-365.3-14.9-548c-1-38.4-0.2-38.8,37-37.4c9.5,0.4,13.1,3,13.3,12.8c0.5,29.4,2.3,58.8,3,88.2
			c4.2,171.7,8.4,343.5,12.2,515.2c0.2,10.7,4,15.9,13.8,19.3c31.9,11.1,64.6,17.1,98.2,19.8c18.2,1.5,23.2-3.3,23.1-21.8
			c-0.7-170.5-0.4-340.9-0.4-511.4c0-39.7-0.1-79.4,0.1-119.1c0-5.9-2.4-15.4,4-16.6c13.2-2.3,27.6-3.5,40.5-0.7
			c11.3,2.5,5.5,15.2,5.5,23.1c0.3,206.7,0.6,413.5-0.3,620.2c-0.1,20.9,6.8,23.4,24.1,19.7c35.4-7.6,70.3-17.1,104.9-27.7
			c15-4.6,19.7-11.6,19.6-27.3c-0.6-195.1,0-390.2-0.9-585.3c-0.1-20.3,5.6-25.1,25-24.6c18,0.4,26,2.2,25.9,23.9
			c-1,179.4-0.5,358.7-0.5,538.1c0,11.6,0.3,23.3-0.1,34.9c-0.4,9.8,2.7,12.3,11.8,7.7c17.1-8.6,34.3-17.1,51.9-24.6
			c10.8-4.6,13-10.8,11.4-22.3c-14-99.3-12.1-197.8,18.8-294.3c2.9-9.1,0.6-14.9-6.1-21.4c-22.9-22.4-34-51-38.8-82
			c-8.4-55-12.3-110.4-8.5-165.8c6.8-99,11.7-198,16.7-297.1c0.7-14.7-1.3-21.5-19.1-21.5c-210.2,0.7-420.3,0.6-630.5,0.1
			c-15.2,0-19.9,4-19.8,19.4c0.2,60.2-1.6,120.5-1.7,180.7c-0.2,150,2.6,299.8,30.3,447.8c15.2,81.1,38.6,159.6,86.5,228.4
			C281.2,2690.6,300.5,2712.3,328.4,2730.6z M2164.6,1027c141.6,1,242.5-39.1,325.5-120.3c127.8-125.1,175.6-280,162.9-455.7
			c-1.7-24.3-1-50.4-13.6-72c-32.6-55.8-76.7-101.5-133.3-133.1c-107.5-59.9-224.1-76.3-345.2-68.2c-28.5,1.9-57.7,1.6-84.7,13.2
			c-147.9,63.5-251,169.6-297.4,324.7c-42.2,141.1-21.4,272.3,84.4,380.6C1951.8,986.9,2064.4,1024.2,2164.6,1027z M485.1,1740.6
			c99.2,0,198.4,0,297.6,0c39.3,0,39.4,0,39.9-39.8c0.1-11,3.4-21-9.9-30.2c-103.6-71.5-129.2-177.8-70.1-288.5
			c7.3-13.7,7.7-18.1-9.8-18.1c-184.1,0.4-368.1,0.4-552.2,0c-13.8,0-18.9,3.4-19.2,18.1c-2.9,112.8-6.3,225.7-10.4,338.5
			c-0.6,16.4,4,20.4,20.1,20.3C275.8,1740.2,380.5,1740.6,485.1,1740.6z M1015.8,626c0,5.5-0.2,11,0,16.4
			c5.2,104.9,53.2,208.5,193.6,234.6c19.7,3.7,33.1,0.9,44.5-17.2c16-25.4,35.2-48.7,52.7-73.2c86.8-121.9,167.4-248.2,258-367.3
			c7.4-9.7,5.3-14.9-2.7-21.8c-105.2-91.3-223.8-121.2-356.1-71.2C1089.1,370.5,1015.8,489.7,1015.8,626z M1160.9,2819.1
			c40.8,9.6,73.5-18.9,96.2-65.2c3.6-7.4,7.5-14.6,10.9-22c35.5-76.5,53.4-157.3,59.6-241.1c0.8-11.3-3.3-16.9-12.4-22.8
			c-70.2-45.6-146.7-67.9-230.7-66.5c-56.6,0.9-113.6,4.5-169.6-8.3c-14.4-3.3-14,6.7-16.2,14.6c-26.4,99.7-26.9,199.7-3.6,300.1
			c13.2,56.9,49.7,86.9,105.9,96.7C1049.2,2813.1,1097.8,2813.1,1160.9,2819.1z M1742.6,2656.2c0-5.5-0.5-11,0.1-16.4
			c1.9-18.5-5.2-26-24.7-27.7c-115.1-9.9-224-41.4-325-98.2c-13.5-7.6-17.2-4.4-18.3,9.7c-3.8,49.3-13.2,97.5-28.7,144.4
			c-7.5,22.6-9.9,44.7-5.6,68.3c12.7,69.6,42.3,110.4,110.6,122c39,6.7,78.2,12.5,116.7,21.4c56.1,13,95.7-8.1,124.9-54.8
			C1724.7,2773.3,1740.8,2716.9,1742.6,2656.2z M1906,2615.7c0,0.4,0,0.7,0,1.1c-32.8,0-65.7,0.1-98.5-0.1
			c-8.8,0-16.3-0.5-15.4,12.3c4.8,63.5-8.6,123.7-35,181.2c-3.8,8.4-3.2,14.1,5,18.7c53.8,30,108,59.2,170,68.8
			c92.8,14.4,147.5-26.7,160.6-119.5c7.4-52.8,2.8-105.1-5.6-157.3c-1.7-10.4-5.4-14.8-17.2-14.1
			C2015.3,2610.5,1960.6,2612.9,1906,2615.7z M2416.8,2743.1c-0.7-58.8-17.5-112.9-45.7-164.1c-7-12.7-14.5-14.8-28-11.6
			c-62.5,14.9-125.2,29.2-189.7,31.6c-18.8,0.7-17.7,11.3-15.5,24.6c10.7,63.9,13.3,127.9-1.8,191.6c-2,8.5-0.9,13.7,5.7,19.5
			c37.4,32.2,79,56.7,127.5,67.5c64.2,14.3,105.3-7.8,130.9-68.8C2412.5,2804.5,2417.1,2774.3,2416.8,2743.1z M2710.7,2238.6
			c-2.4,9.5-4.4,16-5.8,22.6c-14.5,70.3-33.6,138.5-89.4,189.2c-5.1,4.6-5,8.4-1.5,13.9c31.9,50.1,52,105,63.8,163
			c1.5,7.5,4.5,12.1,13.2,12.5c45.4,2.3,88.7-3.5,126.8-30.9c71.3-51.2,94.1-154.4,53.2-237.6
			C2837.4,2303.3,2771.7,2275.4,2710.7,2238.6z M2500.5,2817.5c17.7-1.6,35.4-3.1,53.1-4.8c42.3-4,61.3-19.3,71.9-60.7
			c24.1-93.5-7.5-176.2-51-256.5c-4.6-8.5-9.5-7.1-16.5-3.3c-40.9,22.7-84.9,37.8-129.4,51c-15.4,4.5-15,9.7-8.2,22.2
			c36.4,66.5,51.9,137.8,45,213.5C2461.9,2817.1,2461.6,2817.1,2500.5,2817.5z"/>
		<path class="st0" d="M801.8,1252.3c-41.7-0.2-73.9-32.7-73.8-74.5c0.2-41.2,33.5-74.2,74.6-74c41.1,0.2,74,33.5,73.8,74.8
			C876.2,1220.3,843.6,1252.5,801.8,1252.3z"/>
		<path class="st0" d="M623.9,1276.5c-41.6,0.1-74.8-32.2-75.1-73.2c-0.3-40.8,33.2-74.6,74.2-74.8c41.2-0.2,74.7,32.8,75,73.8
			C698.4,1243.2,665.3,1276.4,623.9,1276.5z"/>
		<path class="st0" d="M427.9,1276.8c-41.7-0.1-73.9-32.7-73.7-74.5c0.2-41.4,33.2-74.1,74.5-73.9c41.2,0.2,74,33.4,73.8,74.7
			C502.4,1244.6,469.6,1277,427.9,1276.8z"/>
		<path class="st0" d="M382.2,1822.5c41.4-0.1,75,33.1,74.7,73.8c-0.3,40.7-34.2,74.3-75,74.3c-41.2,0-73.9-32.9-73.9-74.4
			C308.1,1854.2,339.9,1822.6,382.2,1822.5z"/>
		<path class="st0" d="M567.1,1822.5c41.2,0,74.5,33.5,74.1,74.3c-0.4,40.8-34.3,74.1-75.3,73.8c-41.1-0.3-73.9-33.6-73.6-74.8
			C492.6,1854,524.9,1822.5,567.1,1822.5z"/>
		<path class="st0" d="M738.2,1822.2c42.3,0.5,73.6,33.8,72.8,77.5c-0.7,39.2-35,71.6-75.4,70.9c-41-0.6-73.5-34.4-73-75.7
			C663.1,1853.7,696.4,1821.7,738.2,1822.2z"/>
		<path class="st0" d="M2537.7,609.1c-0.7,179.6-145.2,322.9-324.9,322.3C2035,930.7,1890.2,785,1891,607.7
			c0.8-181.4,146.8-323.2,331.5-321.9C2395.5,286.9,2538.4,433.4,2537.7,609.1z M2486.9,609.3c0.5-71.8-24.7-133.5-72.4-186.7
			c-8.5-9.5-15.3-10.3-26.3-4.5c-45.6,24.4-87.5,53.7-124,90.2c-93.4,93.7-142.6,207-150.1,339c-0.9,15.9,8,18.2,18.5,21.5
			C2307.7,924.2,2486.6,793.1,2486.9,609.3z M2355.9,378.4c-2.1-3.2-2.7-4.5-3.6-5.2c-2.2-1.6-4.6-3-7-4.2
			c-54.2-29.2-111.5-39.1-172.5-29.9c-107.1,16.2-194.9,95.4-222.4,201.2c-27.2,105,11.9,219.5,97.3,283.8
			c4.5,3.4,8.8,10.7,15.4,7.1c5-2.7,3.3-9.9,3.8-15.3c7-84.6,33.2-162.9,77-235.4C2195.9,494.2,2266.9,427.7,2355.9,378.4z"/>
	</g>
</g>
</svg>
