<?xml version="1.0" encoding="utf-8"?>
<!-- Generator: Adobe Illustrator 23.0.0, SVG Export Plug-In . SVG Version: 6.00 Build 0)  -->
<svg version="1.0" xmlns="http://www.w3.org/2000/svg" xmlns:xlink="http://www.w3.org/1999/xlink" x="0px" y="0px"
	 viewBox="0 0 3000 3000" style="enable-background:new 0 0 3000 3000;" xml:space="preserve">
<style type="text/css">
	.st0{stroke:#000000;stroke-width:10;stroke-miterlimit:10;}
</style>
<g id="Layer_1">
</g>
<g id="Layer_2">
	<g>
		<path class="st0" d="M1604.9,2180.9c-74.8-7.3-142.1-14.6-207.1-35.2c-219.8-69.5-351.9-222.6-417.3-438.9
			c-26.5-87.8-36.9-178.2-37.8-269.4c-1.6-165.2,4.5-329.9,43.4-491.6c61.8-256.6,192.1-465.9,421.7-605.5
			c128-77.8,269-116.1,416.9-130.4c83.4-8,167.1-8,251-8.5c106-0.6,211.9-2.5,316.9,11.2c266.7,34.8,431.3,191.5,514.4,441
			c42.5,127.6,55.8,259.9,52.6,393.5c-5.4,227.8-47.2,448.6-135.1,659.9c-48.7,117-120,216.3-222.9,291.7
			c-3.8,2.8-7.1,6.5-13.7,12.7c19.9,3.4,36.4,5.5,52.6,9c155,33.1,263.9,161.6,271.6,320.4c7.3,149.4-91.4,290.4-235.5,336.6
			c-148.1,47.4-306.4-8.9-391.4-139.3c-20.3-31.2-20.4-31.3-48.4-5.9c-157.1,142.4-342.6,207.7-553.5,204.8
			c-141-1.9-282.1,3.8-423-5.3c-34-2.2-67.7-6.5-100.9-14c-116.7-26.3-188.8-117.3-197-247.6c-3-47.3-0.5-94.2,18.4-138.5
			c21.6-50.6,55.5-84.1,115.3-84.1c96,0,192-1.7,288-2.8c69.8-0.8,137.7-9,198.2-48C1588.1,2193,1593.5,2189,1604.9,2180.9z
			 M1855.9,2129.1c123.3-8.3,281.6-9.9,436.4-46.6c236.7-56.1,408.5-187,496.8-419.9c83.6-220.5,124.7-447.7,119.6-683.3
			c-2.4-112.5-17.5-223.2-55.8-329.6c-71-196.7-199.1-332.4-409.6-377.6c-127.3-27.3-256.8-19.7-385.6-22
			c-18-0.3-18.7,10.9-19.2,23.4c-1.5,41.2,5,81.7,8.9,122.4c1.7,17.4,7.8,23,24.1,26.5c89.5,19.2,165.1,64.1,229.6,128.4
			c62.5,62.4,99.4,137.8,107.6,225.3c14.7,158-99.1,303.5-259.7,334.3c-113.8,21.8-225.2,3.3-335-25.5
			c-88.9-23.3-138.8-86.9-160.9-172.9c-13.7-53.6-13.8-108.3-7.8-163.7c10.6-98.4,50.9-177.1,137.8-229.4
			c51.9-31.3,106.9-53.6,165.3-68.8c48.2-12.5,51.4-17.6,46.4-65.9c-3.8-36.8-8.9-73.6-5.9-110.6c1.7-20.3-7.5-22.7-24.5-22
			c-55.9,2.4-111.9,4.7-167.4,12c-336.9,44.2-578,216.9-710.8,532.9c-52.8,125.6-76.2,258-85.6,393.5
			c-10.6,152.9-19.1,306.1,16.4,456.7c59.5,252.5,208.4,418.4,469.8,469.3C1597.4,2137.5,1709.7,2134.3,1855.9,2129.1z
			 M2314.1,2128.7c-131.7,32.2-259.3,40.1-386.9,46.1c-24.6,1.2-34.5,10.1-41.9,34.1c-46.2,149.2-134.1,224.7-286,240.5
			c-187.2,19.4-373.5,9.9-559.2-16.5c-25.3-3.6-30.9,2.8-29,26.9c10.6,136.7,77.4,204.7,212.5,217.4c171.8,16.2,343.7,9.5,515.7,6.7
			c188.8-3,345.7-79.1,482.3-204.7c17-15.6,24.6-29.3,18.2-53.8c-15-57.3-10.4-114.9,6.1-171.7
			C2258.8,2209.4,2282.5,2170.7,2314.1,2128.7z M2047.1,1068.4c101.3,6.7,187.6-29.7,257.2-108.8c48.5-55.1,63.4-118.2,53.7-189.2
			c-22.8-165.3-171.7-274.6-307.4-301.6c-9.5-1.9-20.1-5.7-28.7,2.2c-22.5,20.6-51.6,25.5-79.4,32.9
			c-55.7,14.7-106.9,38.9-153.9,71.8c-31.7,22.2-55.5,50.8-70.4,87.3c-30.7,74.8-33.1,152.1-17.8,229.6
			c16.3,82.3,66.6,134.5,150.6,151.1C1914.5,1056.2,1978.1,1069.5,2047.1,1068.4z M2467.2,2621.6c0-10.1,0.1-18.1,0-26
			c-1.3-138.4,81.3-251.8,212.4-294.2c22.6-7.3,29.8-2.3,35.3,20.2c6.3,25.8-12.5,25.5-25.9,30.3c-115.9,41.5-181.5,143-171.9,265.2
			c1.4,17.3,6.9,24,24.6,25.5c28.2,2.5,56.2,1.7,83.6-3.4c152.4-28.5,252.8-168.9,233.3-326.9c-15.9-129-135.7-259.7-313.4-248
			c-140.2,9.3-259.8,134.5-263.7,282.2C2278.5,2469.1,2359.4,2590.5,2467.2,2621.6z M1407.1,2408.9c48.4-0.9,112.3-1.3,176-7.9
			c135.6-14.1,213.7-74.7,251.7-194.8c7.2-22.8,2.1-27.8-20.3-26.2c-34.9,2.5-69.9,3.9-104.8,3.5c-19.3-0.2-33.8,5.3-48.4,17.8
			c-69.3,59.3-149.6,90.4-241.2,91.7c-104.9,1.5-209.8,2.9-314.7,5.1c-47.4,1-63,13.6-80,56.8c-7.3,18.5-5.4,25.4,16.8,28.6
			C1158.2,2400.3,1274.6,2408.1,1407.1,2408.9z"/>
		<path class="st0" d="M814,1414.6c123,78.1,155.3,178,87,266.9c-68.1,88.6-173.4,87-276.2-6c-12.3,44.4-36.5,78.7-81.7,91.8
			c-31.5,9.1-63.2,7.3-92.7-9.7c-57.7-33.1-75.7-107.6-39.4-164c40.1-62.5,113.9-69.1,188.3-14.1c3.1-53.4,23.5-97.1,64.4-130.8
			c-7.1-8.6-15.3-3.9-22.2-3.5c-69.5,4.5-138.2-1.1-205.2-19.2c-143.7-38.9-231-136.5-278.3-273.8C57.8,861,161.6,459.2,393.7,257
			C509.8,155.8,645,94.5,802.8,95c130.6,0.4,257.6,98.6,280.6,216.1c12.1,62-19.8,94.2-82.4,83.1c-38.3-6.8-75.1-19.6-114.4-22.7
			c-78.5-6.2-146.6,19.2-209.2,63.3c-63.7,44.8-114.7,102.3-160.1,165c-73.3,101.2-122.8,212.5-140.1,336.9
			c-5.9,42.6-6,85.6,1.5,128.4c12.5,71.8,52.7,121.9,118.5,151.4c102.2,45.8,208.4,80.4,316.5,109.2c22.8,6.1,52.9,7,56.4,36.1
			c3.7,31.3-27.2,37.5-49,48.4C818.6,1411.2,816.5,1412.9,814,1414.6z M773.4,1372.6c-6.4-9.8-14-9.3-20.4-11.4
			c-95-30.1-190.6-58.9-281-101.5c-84.5-39.8-131.7-107.5-145.2-199.2c-6.9-46.9-5.1-93.8,2.3-140.4
			c28.9-182.2,116.2-334.2,244.5-463.5c62.8-63.3,135.9-111.2,225.2-130.1c69.7-14.7,136.8-0.1,204,16.4c32.7,8,39.2,0.5,30.2-31.7
			c-1.9-6.7-4.6-13.2-7.7-19.5C979,198.4,904.6,143.7,799.8,145c-170.4,2.2-315.3,72.9-423.5,200.2
			c-187.4,220.5-245.7,478.4-179.4,759.9c31.9,135.6,112.5,235.7,254.2,272.7C557.8,1405.8,664.8,1400.1,773.4,1372.6z
			 M884.1,1580.1c-0.1-66.7-51.2-116.8-118.5-116.2c-64.9,0.6-115.7,51.9-115.6,116.7c0.1,65.1,54,118.2,119.1,117.2
			C833.3,1696.9,884.2,1644.7,884.1,1580.1z M573.9,1656.3c-0.2-37.2-29.8-66.3-66.8-65.7c-35,0.5-64.5,30-65.2,65.1
			c-0.7,36.1,29.5,66.7,66.1,66.9C545.2,1722.7,574.2,1693.6,573.9,1656.3z"/>
		<path class="st0" d="M70.8,2363c5.8-181.1,46.7-348.5,193.7-471.3c81.6-68.2,180.2-96.4,284-108.5c81-9.5,161.7-6.8,241.3,11.8
			c16.4,3.8,32.2,10.5,47.7,17.1c14.1,5.9,22.4,17.9,21.3,32.9c-1.2,15.7-12.7,25.1-27.6,27.7c-49.1,8.5-98.4,16-147.6,23.9
			c-219.3,35.3-348.6,180.7-358.7,402.7c-3.7,82,6,161.6,39.9,237c52.6,117,142.4,163.8,272.4,144c62.3-9.5,121.8-30.9,183.7-42.2
			c22-4,42.5-4.1,56.5,15.9c13.6,19.4,5.3,38.2-5.2,55.9c-4.6,7.7-8.9,15.8-14.7,22.5c-125.8,147.1-397.8,261.2-632.8,80.3
			c-84.5-65-130.8-151.2-139.7-258C79.7,2491.1,72.8,2427.5,70.8,2363z M714.5,1838.5c-63.6-11.8-126.6-11.7-189.4-1.7
			c-128.3,20.5-239.4,71.3-311.8,185c-58,91.2-87,192.3-91.2,300.1c-2.8,71,7,141.6,11.2,212.4c7.7,131.7,72.9,224,189.1,280.1
			c165.5,79.9,314.2,37.7,451.9-69.2c19.1-14.9,38.3-30.6,49.1-53.9c-9-3.6-15.2,0.4-21.9,2.2c-67.6,17.7-134.6,37.2-205.3,39.9
			c-115.9,4.5-202.8-42.3-260.2-143.3c-39.9-70.2-58.2-146.7-61.3-226.4c-8.9-234.4,86.5-448.3,371.4-510.4
			C668.9,1848.4,691.7,1843.4,714.5,1838.5z"/>
		<path class="st0" d="M2014.4,1265.5c106.9-2.4,211.1-15.9,307.8-65.9c236-122.2,310.4-448.1,148.6-653.9
			c-56.2-71.5-131.6-115.1-216.7-143.5c-23.9-8-30.5-27.2-16.8-47.8c5.8-8.8,11.4-3.8,18-2.3c239.5,55.3,391.5,293.5,343.7,536.9
			c-16.1,81.7-45.4,157.1-96.9,223c-8,10.2-7.4,18.8-4.6,30.2c13.3,53.8,16,108.7,12.9,163.8c-5.6,99.4-61.1,153.6-160.4,157.1
			c-29.1,1-59-12-85.8-7.6c-25.8,4.2-35.5,40.7-60.3,54.5c-56,31.1-114.3,22.8-171.8,7.3c-17.7-4.8-28.3-5-41.1,9
			c-17.3,18.9-41.3,28.2-66,33c-36.5,7-73.3,9.3-110.4,4.3c-96.7-12.9-155.7-86.4-147.4-184.2c3.1-36,9.9-71.4,25.9-103.9
			c8.8-17.9,4.5-24.7-12-33.8c-144.5-78.9-223.1-202.6-239.4-364.9C1416.5,626.7,1581,402.2,1827.1,348c24.3-5.4,49.2-8.3,73.9-11.7
			c10.9-1.5,24-2.9,21.3,14.8c-2,13.1,11,32.6-17.6,35c-88.6,7.5-169,37.9-240.7,91.1c-214,158.9-236.7,481.9-45.2,660.3
			c84.8,79,190.2,110.7,302.8,122.3C1952.5,1263,1983.5,1263.7,2014.4,1265.5z M1857.9,1515.1c23.9-1.2,48-1.3,71-9.2
			c22-7.6,39.5-20.8,45.3-44c10.6-42.8,15.2-86.4,14.7-130.6c-0.2-12.9-4.7-17.1-17.4-17.7c-70.1-3-139.2-12.7-206-35
			c-9.1-3.1-17.3-5-22.3,6.3c-25.1,57.4-40.3,115.9-9.5,175.7C1759.9,1511.3,1808.6,1514.7,1857.9,1515.1z M2236.4,1331.2
			c0-4.9-0.4-15.9,0.1-26.8c0.5-12-4.6-16.7-16.2-13.5c-54.2,15.1-110,18.6-165.7,22.7c-12.8,0.9-16.5,5.9-16.6,18.5
			c-0.3,26.9-0.7,54-4.2,80.7c-7.4,57.4-6.9,59,51.6,64.7c8.9,0.9,17.9,1.7,26.9,1.7c65.1,0.2,100.5-28,117.4-91.5
			C2234.2,1370.9,2234.5,1354.2,2236.4,1331.2z M2452.2,1170.6c-32.5,25.4-59.3,53-93.8,65.2c-54.3,19.3-76.5,50.4-74.7,110.9
			c2.1,67.5-4.5,67.8,64.9,65.5c10-0.3,20-0.8,29.8-2.6c32.1-6.3,59.8-21.3,70.9-53.2C2470.3,1296.4,2462.1,1235.3,2452.2,1170.6z"
			/>
	</g>
</g>
</svg>
