<?xml version="1.0" encoding="utf-8"?>
<!-- Generator: Adobe Illustrator 23.0.0, SVG Export Plug-In . SVG Version: 6.00 Build 0)  -->
<svg version="1.0" xmlns="http://www.w3.org/2000/svg" xmlns:xlink="http://www.w3.org/1999/xlink" x="0px" y="0px"
	 viewBox="0 0 3000 3000" style="enable-background:new 0 0 3000 3000;" xml:space="preserve">
<style type="text/css">
	.st0{stroke:#000000;stroke-width:10;stroke-miterlimit:10;}
</style>
<g id="Layer_1">
</g>
<g id="Layer_2">
	<g>
		<path class="st0" d="M1075.4,1480.4c-16.2-74.6-40.3-143.3-62.3-212.6c-41.5-130.3-80-261.2-95.5-397.6
			c-17.4-153.2-4.2-302.6,67-441.8c64.5-126.2,170.8-204.8,302.7-251.2c118.9-41.9,242.8-60.8,366.6-80.1
			c124.6-19.4,250-32.8,375.9-41.9c9.9-0.7,24.9-7.2,29.2,3.2c5.5,13.4,4.7,29.8,4.7,44.9c0,9-9.2,5.7-14.6,6.1
			c-134.9,10-269.4,24.1-402.9,45.5c-111.6,17.9-223.1,35.9-331,71.9c-192.5,64.2-301.4,197.6-336.6,395.6
			c-24.8,140-6.5,277,25.6,413.1c26.2,110.8,64.2,218.2,97.8,326.8c87.3,282,97.6,567.2,34.4,855.2c-1,4.4-1.8,8.9-2.5,13.4
			c-0.2,1.4,0.3,3,0.7,6.3c12.8-4.6,21-14.7,30.4-22.6c136.8-115,261.4-241.2,355.9-394.3c64.6-104.6,109-216.7,121.5-340.1
			c3.9-38.7,1.9-77.4,0.4-116.1c-3-77.4-12.3-154.6-7.7-232.2c8.8-149.1,80.9-257.7,210.6-329.4c79.8-44.1,166.9-63.5,256-76.8
			c12.4-1.8,15.7,3,17.2,14.1c5.3,39.6,5.5,38.8-33,44.9c-59.3,9.4-117.7,22.9-173.1,47.1c-155.8,68.1-228.4,183.6-223.4,353.6
			c2.7,91.9,17.8,183.9,8.4,275.4c-5.1,50.3,8.1,73.5,52.1,98.1c101.7,56.8,188.4,133.4,254.4,230.9
			c129.7,191.6,128,409.3-9.5,595.3c-185.3,250.5-430.8,411-735.9,478.6c-182.5,40.4-366.8,50.6-552.8,32.7
			c-25.7-2.5-51.3-6.4-77-7.5c-17.5-0.7-20.1-8.2-20.2-23.9c-0.7-202.2-1.6-404.4-3.5-606.6c-0.9-92.7-5-185.9,9.2-277.6
			c21-136,59.6-266.7,142.5-379.9c47.4-64.6,108.5-110.4,188.7-126C988.1,1466.9,1030.2,1470.6,1075.4,1480.4z M1036.8,2387.6
			c1.8-9.1,2.3-12.8,3.3-16.3c38.9-137.6,68.8-276.8,77.3-420c7.8-131.7,2.4-262.6-24.4-392.1c-1.8-8.9-4.1-15.3-13.8-18.4
			c-85.2-27-163.6-17.8-231.7,43.8c-35.2,31.9-62.6,70-84.6,112.2c-72,138.3-103.4,285.9-102.2,441.1c1.7,222.6,3.1,445.3,4.7,667.9
			c0.2,31.4,0.3,31.2,31.8,34.4c171.2,17.2,341.6,9.9,510.4-22.5c305.4-58.7,553.3-211.9,739.3-461.5
			c126.3-169.5,129.1-364.9,10.4-536.2c-68.8-99.3-162.2-171.6-264.6-233.2c-14.7-8.9-13.1,4.2-14.6,10.3
			c-19.3,78.8-51.7,152.3-92,222.3C1451.6,2052.9,1252.3,2224.1,1036.8,2387.6z"/>
		<path class="st0" d="M1343.7,1002.1c-4.8,118.2,17.4,234.8,20.8,352.5c4.1,141.3-11.9,280.5-43.4,418.1
			c-2.4,10.3-4.4,15.5-17.7,12.6c-40.6-8.6-41.1-7.9-32-48.1c38.2-169.8,47.2-341.1,27.5-514c-14.9-131.1-15.6-262.5-4-393.6
			c16.2-183.9,112.7-318.6,266.2-415.3c103.4-65.2,217.8-90.8,338.8-89c78.6,1.2,155.2,15.1,230.1,39.1
			c19.2,6.1,27.6,13.2,15.8,32.5c-1.6,2.5-2.7,5.5-3.3,8.4c-3.2,16.3-11,18.8-26.9,13.6c-126.7-41.8-256.4-54.5-385.3-17
			c-181.6,52.8-310.8,165.3-365.6,351.2C1340.9,834,1347,918.7,1343.7,1002.1z"/>
		<path class="st0" d="M815.4,2553.5c58.6,0,104.2,44.9,104.5,102.8c0.3,57.8-45.3,104.1-103.1,104.6
			c-57.6,0.5-104.4-45.5-104.9-103.2C711.5,2600.2,757.8,2553.6,815.4,2553.5z"/>
		<path class="st0" d="M1080.5,2489.1c0.2,57.6-46.2,105-103.3,105.4c-56.9,0.5-103.9-46.7-104.2-104.4
			c-0.2-58,45.7-104.7,103.2-105C1033.7,2384.8,1080.3,2431.3,1080.5,2489.1z"/>
	</g>
</g>
</svg>
