<?xml version="1.0" encoding="utf-8"?>
<!-- Generator: Adobe Illustrator 23.0.0, SVG Export Plug-In . SVG Version: 6.00 Build 0)  -->
<svg version="1.0" xmlns="http://www.w3.org/2000/svg" xmlns:xlink="http://www.w3.org/1999/xlink" x="0px" y="0px"
	 viewBox="0 0 3000 3000" style="enable-background:new 0 0 3000 3000;" xml:space="preserve">
<style type="text/css">
	.st0{stroke:#000000;stroke-width:10;stroke-miterlimit:10;}
</style>
<g id="Layer_1">
</g>
<g id="Layer_2">
	<g>
		<path class="st0" d="M393.9,940.5c-77.1-42.9-86.5-110.1-80.9-183.1c3-39.1,6.5-76.6-9.6-115.8c-14.5-35.2-2.8-74.4,10.4-109.7
			c50-134.2,137.9-226.1,285.2-248.6c16-2.4,20.1-8.5,21.7-23c4.3-40,28-65.5,63.8-81.4c7.6-3.4,16.1-6.4,21.7-12
			c75.1-74.4,167.8-59.7,258.9-51.3c56.6,5.2,110.5,19.6,153.1,60.9c9.4,9.1,14.5,1.7,20.4-4.1c112.3-110.4,245.5-106.5,384.1-69
			c36.1,9.7,66,31.4,87.5,62c10.5,14.9,16.4,17.4,33.4,6.5c123.2-79.3,260.5-97.1,401.2-75.3c87.9,13.6,154.9,73.6,215.9,135.6
			c13.6,13.9,24.3,18.9,42,17.1c60.1-6.4,120.5-8.8,180.8-5.4c105.9,5.9,236.2,105.4,259.6,200.1c18,72.9,12.3,146.7-3,219.5
			c-2.7,12.8-8,27.9-17.3,36.1c-28.6,25.2-21.2,54.6-16.1,85.4c12.1,72.7,27.7,144.9,29.6,219.1c1.5,56.3-7.1,110-37.5,158.4
			c-7.1,11.4-4.9,20.7-1.3,32.1c44.3,141,41.3,285,25.6,429.6c-1.2,11.2-3.1,24.6-10,32.4c-31.4,35.9-16.2,70.9-2.8,107.8
			c25.6,70.7,49.8,143.3,31.2,219.2c-24.8,101.4-79.8,184.5-169.5,240.6c-18.4,11.5-28,22.1-26,43.1c8.8,92.6-22.9,172.8-72.1,249.2
			c-32.8,50.9-75.9,81.7-135.9,87.9c-13.1,1.4-20.2,3.1-21,19.1c-3.9,72.9-41.8,126.9-98.8,169c-58.9,43.5-127.8,64-197,83.3
			c-66.1,18.4-132.6,35.2-201,43c-4.1,0.5-8.8,2.2-12.4,1c-52.4-17.7-98.9,2.1-148.7,16.3c-67.2,19.1-138.6,9.3-208.2,9.3
			c-55.8,0-111.8,0-166.6-15.5c-51-14.5-95-40.6-121-86.2c-16.6-29.1-38-29.7-61.9-24.1c-121.5,28.5-244.9,44.4-368.7,57.3
			c-33.1,3.5-66.3,4.8-99.5-1.7c-61.7-12-91.4-39.9-101.4-101.8c-3.2-19.7-10-25.7-29.6-25.5c-29,0.3-58.1-3.8-87.2-5
			c-35.1-1.4-58.2-18.6-72.2-50.2c-18.7-42.1-22.8-87.3-20.6-131.5c3.5-70.2-3.9-138.5-15.3-207.5
			c-22.3-134.8-14.6-269.5,12.4-403.2c7.4-36.8-3.7-72.3-7.3-108.1c-11.5-116.2,6.8-230.3,21.3-344.8
			c8.1-64.1,10.7-128.5,14.5-192.9c0.8-13.5-3.1-24.1-11.7-34.1c-20.6-24-27.7-53.2-29.9-83.8c-3-42.5-5.4-85.1-8.1-127.6
			C293.1,973.8,302.3,961.6,393.9,940.5z M1964.7,530.8c-27.5-3.3-49.1-5.4-70.6-8.7c-85.8-13-163.1-47.8-236.6-92.4
			c-10.3-6.3-18.9-15.5-30.8,0.6c-21.7,29.4-53.8,45-87.6,56.2c-126.1,41.6-247.9,30.2-365.6-30.6c-8.8-4.5-18.7-20.2-28.7,1
			c-22.1,46.9-61.9,70.9-110.5,83.4c-57.5,14.9-116.3,23.1-175.2,27.7c-119.6,9.5-174.1-28.9-211.2-143.1
			c-7.4-22.7-16.2-45.2-19.9-68.6c-3.4-22-13.2-23-31.7-20.1c-141.6,21.8-227.7,149.3-245.2,265.9c-6.1,40.4,11.3,60.7,52.8,65.3
			c109.9,12.2,217.6,35.2,323.9,64.2c197.6,53.9,394.9,109.2,572.4,216.1c13.3,8,17,3.3,22.3-7.8c22.3-46.8,61.3-75.4,108-94
			c125.3-50,263.8,35.2,271,166.7c2.5,45.4-11.6,87.9-25.5,130.5c-26.3,80.5-83.5,121.1-165,131.3c-42.7,5.4-85.2,1.8-127.1-7.6
			c-9.1-2.1-17.2-5.9-24.9,4.4c-51.2,69.3-121.4,112.4-199.9,143.8c-7.6,3.1-16.4,5.1-14,16.8c9.6,46.7-2.1,93.4,0.4,140.1
			c3.9,71.1,23.8,94.9,92.1,114.7c13.9,4,27.9,8.2,41.6,12.9c66.6,22.9,123.7,59.3,163.9,118.5c18.6,27.5,33.4,60,18.5,91
			c-18.7,39,3.7,44,30.9,50.4c7.1,1.7,14.1,3.7,21.2,5.4c136.8,33,190,10,262.7-111.3c33.1-55.3,59.5-114.1,89.3-171.2
			c21.5-41.3,54.7-67.4,99.8-77.9c74.3-17.3,144.1-3.6,211.5,30.1c51.8,25.9,94.4,63.6,136.9,105c5.9-13.5,21-20.6,7.7-37
			c-21.3-26.4-23.2-59.3-27-91.4c-2.5-21.5,8.9-51.8-5.6-62.2c-13.1-9.5-41.2,2.5-62.7,4c-185.2,12.6-297.2-131.6-233.2-301.3
			c23.1-61.2,63.5-105.5,133.9-109.6c33.1-1.9,66.2,0.9,99.3,5.9c48.9,7.4,87.4,31.1,119.2,67.8c6.5,7.5,10,18,21.7,22.6
			c10.6-18.9,19.8-35.5-2.3-54.4c-14.5-12.4-19.6-32.2-19.2-51.3c1.8-73.1-21.5-143.9-19.4-217c0.3-11.4-1.4-18.5-15.7-12.6
			c-91.5,37.9-184.4,23.3-275.9,2.7c-98.1-22.1-154.3-106.9-144.6-207.6C1895.8,635.5,1924.6,583.5,1964.7,530.8z M515.3,1467.1
			c-35.4,0-70.8,0.2-106.1-0.1c-11.3-0.1-19.8,0.1-21.6,15.1c-15.6,132-38.4,263.5-19.3,397.4c2.9,20.5,10.1,28.7,29.9,30.8
			c198.1,21.5,289.8,256,183.3,415.4c-45,67.4-106.7,112.6-181.5,141.4c-10,3.9-24.1,3.9-24.2,19.7c-0.3,58.1-6,116.5,10.5,173.6
			c6.3,21.9,19.2,32.5,43,31.9c21.8-0.6,43.8,0.7,65.4,3.5c21.7,2.9,31.1-0.4,31.1-26.3c0.1-49.1,7.6-97.4,36.5-139.7
			c32.3-47.3,73-85,123.1-112.7c9.4-5.2,21.2-7.9,20.9-23.6c-1.1-54.6,20.6-103.5,41.1-152.2c18.6-44.3,25.1-89.6,19.3-137.2
			c-3-24.8-4.5-49.7-5.8-74.6c-3.1-60.4,19.3-109.5,66.5-147.3c48-38.4,103.8-63,162.3-76.5c44.8-10.3,59.1-30.6,76.6-74
			c26.5-65.8,34.7-127.9,27.5-195.8c-3-28.7,5-57.8,1.5-87.2c-1.8-15.6-7.3-21.5-23.5-20.4c-67.4,4.4-135,7-202.4,11.9
			C751.3,1448.8,634.5,1473.2,515.3,1467.1z M370.1,714.4c-1.4,16.4-2.8,30.8-4,45.3c-7.2,90.7,8.5,117.7,90.5,156.4
			c4.7,2.2,9.4,4.5,14.2,6.5c113.4,46.9,225.3,96.6,353.2,88.9c89.1-5.4,178.6-2.2,267.8,6c43.8,4,73.3,25.8,90.5,65.8
			c9.9,23.1,17.2,46.9,21.3,71.5c6.6,40.4-9.3,71.8-46,89.8c-45.8,22.5-94.1,26.5-142.8,13.5c-37-9.9-73.3-22.9-109.6-35.5
			c-37.6-13.1-72.1-12.4-105.9,12.8c-45.7,34.1-93.6,65.2-140.3,98.1c-41.3,29-87,37.5-136.4,31.3c-42.6-5.3-81.9-20.3-121-41.7
			c-2.3,22.7-3.2,42.4-6.5,61.7c-3.6,20.9,2.1,29.6,24.8,30.5c58.3,2.3,116.5,4.3,174.7-0.3c157.5-12.4,314-36.1,472.3-39.5
			c111.4-2.3,190.9-61.1,256.4-144.4c16.6-21.2,23.8-45.8,18.2-73.3c-6.6-32.5-12.8-65.2-18.6-97.9c-4.6-26-17.4-45.3-39.3-60.7
			c-56.6-39.7-119.2-67.5-182.9-92.5C865.6,814.8,623.9,748,370.1,714.4z M820.7,2155.1c-2.6,50.9-20.5,93-36.8,135.7
			c-8.1,21.3-15,43.1-21.9,64.8c-6.7,21.1-5.5,32.8,23.1,25.1c39.5-10.6,80.3-10,120.8-3.7c89.2,13.9,159.9,62.4,223,123
			c20.2,19.4,33.2,24.1,59.5,8.9c87.7-50.7,182.9-66.3,282.7-47c83.2,16.1,153.2,57.5,212,117.7c13.7,14,19.9,16.8,29.3-3.8
			c15.3-33.3,37.2-63,65.3-86.6c16.9-14.2,22.4-29.4,21.1-51c-5.6-93.9,22.8-173.3,98.7-233.9c31.8-25.4,55.4-58.9,73.5-95.9
			c39.4-80.7,22.8-155.2-47.6-210.5c-17.1-13.5-35.7-25.3-51.9-39.8c-18.9-17-30.5-18.3-42.7,7.8c-14.1,30-32.5,58.2-55.3,82.6
			c-21.2,22.7-55.9,40.9-62.6,66.8c-7.2,27.7,4.8,62.9,5.8,94.9c4.9,145.5-68.4,234.5-211.3,257.9c-71.6,11.7-143.8,11.6-214-4.6
			C1123.3,2324.7,957.5,2278.4,820.7,2155.1z M1665.2,2106.9c-0.5,0-1-0.1-1.5-0.1c-0.7-12.5-1.4-24.9-2-37.4
			c-1.6-38.7-5.1-43.8-43.3-42.2c-71.2,3-138.6-12.7-203.1-40.6c-25.8-11.2-48-11.1-74.1-1.3c-39.5,14.9-79.3,32.4-123.8,24.6
			c-81.1-14.3-124.9-68.9-152.1-140.9c-5.7-15.1-9.3-26.6-29.5-22c-66.5,15.3-130.2,37.8-183,82c-47.7,40-52.4,97.4-18,150.6
			c29.4,45.5,66.6,83,114.3,108.2c100.5,53.1,206.9,91.6,317.4,118c75.4,18,151.8,23.7,229.2,11.5c92.7-14.6,149.5-61.5,163.5-139
			C1663.5,2154.9,1663.3,2130.7,1665.2,2106.9z M1850.9,2435.3c74.8-36.8,151.9-49.1,232-43.5c13.6,1,15-7.1,15.5-17.5
			c1.6-39.4,15.7-75,34.6-108.9c27.4-49,54.8-97.9,83.2-146.3c11.1-18.8,15.9-36.1,9.8-58.7c-7.6-27.9-7.8-57.3-4.9-86.7
			c5.7-59.1,26.3-113,52.8-165.3c5.5-10.9,13-20.3,0.8-33.1c-58-60.5-122.5-111.8-207.9-123.3c-99.2-13.3-140.4,9.1-170.7,86.2
			c-3.8,9.6-8.1,19.3-13.9,27.8c-12.3,18.1-10.1,30.1,9.3,42.8c27.7,18.2,53.7,39.3,79.4,60.3c62.7,51,81.5,118,68.4,195.5
			c-13.5,80.3-61.2,140.7-120.4,191.5C1863.5,2303.7,1849.3,2363.6,1850.9,2435.3z M710.3,2826.1c129.7-9.5,257.4-33.2,385.3-55.5
			c20.3-3.5,25.2-9.5,17.3-29.9c-16.1-41.3-29.8-88.8-11.7-127.8c27-58.2-10-79.4-43.6-106.6c-16.1-13-32.8-25.7-50.6-36.4
			c-102.1-61.4-205.2-60.2-307.3-0.7C604,2525,568,2609.5,578,2719.1C586.7,2815,606.1,2833.6,710.3,2826.1z M1495.2,2892
			c38.5,0,77,0.3,115.4-0.1c24.1-0.3,47.5-4.6,69.3-15.5c11.4-5.7,17.6-13.1,11.4-27.4c-24.7-56.6-22.1-115.3-12.2-174.4
			c2-11.9,0.8-21.7-7.2-31.8c-118.2-149.7-334.7-181.1-489.9-70.8c-19,13.5-30.9,30.8-32.3,54.2c-5,81.1,23.6,150.7,75,211.5
			c19.2,22.7,46.3,34.3,75.1,41.9C1364.2,2896.7,1429.8,2891.2,1495.2,2892z M1724,2747c-1.6,20.7,2.1,44.4,9.3,67.3
			c12.5,39.8,31.6,53.9,73.4,52.7c48.1-1.4,94.4-13.9,140.6-25.6c77.4-19.5,155.8-37.5,224.8-80.3c48.7-30.1,83.5-71.3,93.2-130
			c3.1-18.8,0.6-30.4-22.9-34.4c-31.5-5.4-62.8-13.7-92-27.8c-29.1-14.1-47.6-36.1-51.7-68.9c-7.2-58.5-7.2-58.5-67.5-57.4
			c-3.1,0.1-6.2,0.1-9.4,0.2C1847.4,2449.8,1724.3,2574.2,1724,2747z M1990,477.1c46.7-0.9,93.3-3.6,137.7-20.9
			c52.3-20.3,86.4-57.6,98.6-112c6.2-27.8,14.2-60.5-9.3-83c-48.8-46.8-101.5-89.3-167.5-110.5c-73.3-23.5-146-6.8-218.8,3.9
			c-62.7,9.1-120.8,29.1-171.1,69.3c-12.8,10.2-17.9,20.1-15.1,37c4.8,28.6,7.5,57.7,9,86.6c0.7,12.6,3.4,21,14.6,28
			C1766.5,437.5,1871,480.2,1990,477.1z M2391.5,295.2c-27,1.7-53.9,4.6-80.9,4.7c-19.1,0.1-28.3,5.8-28.8,26.2
			c-0.8,29.5-5.5,61.9-25.4,81.9c-44,44.1-25.4,81.4,3.4,120.9c5.5,7.5,9.3,16.2,14.5,24c45.7,69.6,100.7,127.6,186.6,144.9
			c55.4,11.2,111.6,9.2,167.7,5.4c35.4-2.4,55.3-24.8,61.9-56.5c12.9-61.4,14.5-123.6,3.5-185.6c-6.7-37.5-28.1-66.4-57.5-89.8
			C2564.6,314,2486.5,277.5,2391.5,295.2z M2272.1,1994c-0.4,86.2,31.1,147.6,100.5,185.3c63.8,34.6,133.3,35.3,188.5-9.7
			c85.3-69.5,147.6-156.1,130.7-276.6c-6.5-46.5-21.9-90.7-37.5-134.8c-5.5-15.5-12.6-14.5-25.3-8.3
			c-38.3,18.8-79.3,22.5-121.5,19.6c-39.7-2.7-77.6-13.6-116-22.2c-9.5-2.1-17-6.4-24,4.8C2319.7,1829.3,2273,1906.7,2272.1,1994z
			 M2679.5,1469.3c0-22.9,0.9-45.8-0.2-68.6c-2.5-55-6.4-109.9-22.8-163c-2.7-8.9-1.4-22.3-18.6-17.6
			c-59.8,16.2-119.8,4.5-179.5-0.7c-19.7-1.7-29.9,1.6-36,22.1c-14.3,48.7-32.3,96.4-46.8,145.1c-22.9,77.2-34.2,156.1-27.1,236.9
			c2.8,31.8,11.8,59.9,46.5,69.8c51,14.6,102.2,27.8,156.1,24.5c64.7-3.9,110.7-45.2,122.1-108.7
			C2681.7,1562.7,2678.9,1516,2679.5,1469.3z M871.3,162.8c-43.1-7-91.7,4.4-132,44.2c-7.2,7.1-17.2,11.5-26.4,16.3
			c-39,20.5-45.1,32.3-41.3,76.6c4.3,50.3,19.7,97.7,38.3,143.9c17.6,43.6,50.2,73.8,98.9,73.6c80-0.4,159.3-11.4,235.8-36
			c36.8-11.8,56.9-39.4,62.4-78.2c5.4-38.2,7.8-76.6,5.2-115c-3.4-48.8-26.5-83.3-73.7-102C988.1,166.4,935.9,162.1,871.3,162.8z
			 M1389.7,458.5c55.8,0.3,109.4-9.2,160.4-32.8c36.2-16.8,54-44.4,50.7-84.3c-2.6-31-4.5-62.3-9.9-92.8
			c-7.7-44-32.5-76.3-75.3-91.7c-64.6-23.3-131.2-30.2-199.2-20.4c-58.9,8.5-107.3,36.8-147.8,79.8c-8.1,8.6-14.4,16.1-10.6,29.9
			c10.3,37.5,11.2,76.2,5.2,114.4c-3.3,21.1,4,32.1,21.7,42.2C1248.5,438.8,1316.4,458.3,1389.7,458.5z M2555.3,1173
			c11.4-0.7,23-2.9,34.2-1.7c37.4,4,57.4-17,71.8-47.3c22.7-47.4,28.4-97.6,21.6-149c-8.7-65.9-19.9-131.4-29-197.2
			c-2.5-18.5-10.4-22.6-28.5-22.3c-63.2,0.9-127,7-189.2-10.5c-13.6-3.8-18.6,2.9-22.9,13.8c-18,45.7-29.5,92.8-33.6,141.8
			c-6.2,74.3,19,146.1,17.3,219.9c-0.7,30.5,15.8,43.9,43.2,45.8C2478.6,1169.1,2516.7,1176.3,2555.3,1173z M1941.3,717.1
			c1.4,57.5,20.8,107.6,77.4,127.2c92.6,32.1,187.6,43.9,283.2,7.3c24.1-9.2,39.3-20.8,43.1-49.5c3.6-27.2,28.3-56.9,21.5-78.6
			c-6.7-21.8-42.1-33.8-62.6-52.6c-48.8-44.9-83.2-100.6-113.5-158.9c-8.2-15.7-15.8-20.8-33.5-11.8c-29.8,15.1-62.7,21.3-95.8,25
			c-9.4,1-18.9,1.4-26,8.5C1983.9,584.5,1943,640.8,1941.3,717.1z M2148.7,2440c0,5.3-0.1,15.7,0,26.1c0.5,44.6,4.9,50,47.3,64.2
			c30.6,10.3,61.9,17.7,93.8,22.1c46.6,6.4,91.9,0.5,121.6-39.2c53.9-71.9,94.1-149.6,81.3-244.6c-1.6-11.9-3.6-15.8-16-15.2
			c-83.8,4.4-152.1-26.7-204.5-92c-12.6-15.8-17-6.8-23.2,4.5c-19.1,34.5-37.2,69.6-58.1,103C2158.9,2320,2143.7,2374.8,2148.7,2440
			z M557.6,1314c23.5,0.5,49.4-7.4,73.3-24.5c49-34.9,98.9-68.7,148.4-103c5.6-3.9,12.6-5.1,11.6-15.5
			c-5.8-59.1-70.4-98.2-123.7-73.8c-16,7.3-31.1,16.5-46.8,24.5c-73,37.1-118.1,17.1-140.1-61.7c-15.5-55.5-53.3-75.9-109-60.8
			c-17.5,4.7-23.5,13.7-22.2,30.7c4.5,57,8.9,113.9,12.6,170.9c1.2,19.1,9.5,34.7,23.4,45.8C434,1285.6,487.4,1314.3,557.6,1314z
			 M1469.9,1224.5c94.7,0.1,136.6-30.6,164.3-120.6c4.9-15.9,9.8-32,12.4-48.3c4.7-29,5.7-58-7.5-85.6
			c-25-52.5-67.7-83.6-124.4-86.3c-56.6-2.8-106,19.5-139.2,68.4c-13.8,20.4-17.4,41.5-9.7,67.7c14,47.7,25.3,96.6,27.9,146.6
			c2.9,55.2,3.3,56.7,60.7,58.1C1459.5,1224.6,1464.7,1224.5,1469.9,1224.5z M2210.5,1500.7c24.2,0.5,47.7-2.9,71.2-8
			c12.5-2.7,20.3-8.2,22.1-21.9c6.4-49.6,20.9-97.2,35.8-144.7c2.9-9.1,4.6-17.7,0.9-27.2c-30.6-78.7-162.8-133.2-240.3-98.5
			c-9.3,4.2-18.2,10.3-25.5,17.4c-45.6,43.9-62.4,137.4-33.6,194.2C2076.2,1481.4,2140.4,1497.3,2210.5,1500.7z M574.9,2177.5
			c-0.1-29.5-6.5-57.5-17-85c-28-73.5-82.1-115.3-158.1-129.9c-11.1-2.1-26.8-10-31.3,12.7c-28.5,142.6-28,285-0.8,427.6
			c2.6,13.6,7.3,18.1,20.5,13C481.8,2379.7,575.3,2289.9,574.9,2177.5z M1105.9,1795.1c-2.2,24.7,3.5,50.2,15.1,73.6
			c32.2,65.3,82.3,114.5,176.3,77c28.8-11.5,58.6-20.4,88-30.4c28.4-9.7,35-23.4,23.5-51.1c-6.4-15.4-15.7-29-27.4-41.1
			c-37.6-39.2-83.1-64.8-135.1-79.3c-33.9-9.4-68.8-17.3-96.6-40.6c-12.5-10.4-17.6-4.4-22.9,6.5
			C1113.9,1736.1,1104.2,1763.3,1105.9,1795.1z M783.4,1062.5c26.5,29.1,42.1,55.8,53.8,84.6c3.2,7.8,6.2,15,17.1,14.9
			c50.1-0.6,94.8,20.1,140.3,37c29.8,11,60.3,15.6,91.6,12.6c22.7-2.2,47.6-5.1,61.5-25.1c21.1-30.4-20.1-113-57.9-117.1
			C990.6,1058.7,891.2,1062.3,783.4,1062.5z M650.3,1046.6c-48.1-17-90.2-31.9-135.2-47.9c7.6,23.6,14.8,42,19.3,60.9
			c7,29.2,24.4,33.6,48.6,22.1C604.4,1071.6,624.9,1059.9,650.3,1046.6z"/>
	</g>
</g>
</svg>
