<?xml version="1.0" encoding="utf-8"?>
<!-- Generator: Adobe Illustrator 23.0.0, SVG Export Plug-In . SVG Version: 6.00 Build 0)  -->
<svg version="1.0" xmlns="http://www.w3.org/2000/svg" xmlns:xlink="http://www.w3.org/1999/xlink" x="0px" y="0px"
	 viewBox="0 0 3000 3000" style="enable-background:new 0 0 3000 3000;" xml:space="preserve">
<style type="text/css">
	.st0{stroke:#000000;stroke-width:10;stroke-miterlimit:10;}
</style>
<g id="Layer_1">
</g>
<g id="Layer_2">
	<g>
		<path class="st0" d="M2831.2,943.9c1.9,2.7,3.1,5.5,5.2,7.3c67.7,61.6,96.6,140,99.7,229.7c4.5,127.3,12.7,254.7,13.3,382
			c0.6,134.9,4.7,269.7,4.6,404.6c-0.1,98.4-24.8,190.5-75.4,275.1c-56.2,94-144.1,143.6-247,167c-179.2,40.8-348.7,17.2-503.7-86.7
			c-88.5-59.3-129-144.6-138.8-248.6c-24.4-260-24.5-520.9-33-781.5c-5.2-160.6-11.6-321.5-1.9-482.3c3.1-51.8,9.1-103.1,20.2-154
			c26.5-121.9,108.4-189.4,221-226.9c116.4-38.7,236.5-34,356.5-29c52.2,2.2,103.2,11.4,151.9,30.1
			c111,42.5,190.1,118.2,223.5,233.3C2960,777.4,2931.1,873.5,2831.2,943.9z M2106.4,2256.3c8,7.3,15.6,15,23.9,21.9
			c20.6,17,42.6,32.1,66.4,44.3c142.7,73.3,291.9,88.5,446.2,46.2c109.1-29.9,188.3-94.7,233-201.4c30.8-73.5,42.5-149.5,40.8-227.7
			c-5.6-257.1-2.8-514.3-19-771.1c-4.8-76.2-32.4-140.4-88.9-192.3c-10-9.2-20-13-33.6-12.9c-70.4,0.6-140.8,0.3-211.2,0.3
			c-12,0-24.4,4-24.3-17.4c0.1-19.1,7.5-21.4,23.5-21.3c67.4,0.7,134.9,0.3,202.4,0.3c9.6,0,19.7,1.3,28.4-3.3
			c62.7-32.8,105.3-94.6,107.4-162.8c0.5-15-4.5-18.2-18.7-18.3c-116.7-0.8-219.5,36.7-308.5,111.6c-14.4,12.2-22,13.9-34.9-1.5
			c-14.5-17.3,3-20.3,9.8-26.1c95.3-80.7,205.7-121,330.5-120.7c16.1,0,19.3-4.7,15.5-19.1c-6.2-23.8-15.6-46.2-26.7-68
			c-6.5-12.8-15.4-17.5-29.6-18.5c-132-10-239.6,36.3-321.6,139.8c-12.4,15.7-18.2,5.2-27.4-0.2c-11-6.4-11.1-12.5-3.1-22.5
			c52.6-66.4,118.3-113.4,199.3-138.7c44.6-14,90.6-18.1,140.9-17.9c-34.2-37.6-70.6-65.5-113.8-84.4c-12.5-5.5-25-7.4-38.8-6
			c-110.2,10.7-198.8,60-264.7,148.6c-11.3,15.2-17.6,7.7-28.1,1.7c-14.2-8-9.1-15-2-24.4c50.2-67.3,114.8-114.8,194-142.5
			c5.7-2,11.2-4.4,20.5-8c-25.1-7.4-46.8-5.9-67.9-7c-91.9-5-184.1-6.4-274.2,15.7c-190.5,46.8-233.9,134.6-251.7,264.5
			c-17.4,126.8-13.9,254.3-11.6,381.8c0.2,9.5,3.4,10.3,12,8.5c42.9-8.7,86.4-11.9,130.2-11.6c221.4,1.3,389.7,125,445.8,339
			c17.6,67.3,22.3,135.7,24.8,204.6c3.5,95,1.9,189.8-12.2,283.9c-25.9,172.7-134.3,287.7-304,323.4
			C2227.3,2258.9,2168,2258.5,2106.4,2256.3z M2566.4,1685.4c0.5-53-2.2-118.3-12.8-182.7c-13.7-83.6-41.5-161.9-96.9-228.2
			c-120.2-143.7-310.8-160.1-457.4-129.1c-9.7,2.1-9.6,6.8-9.5,13.6c0.3,20,1.7,40.1,0.5,60c-1.2,19.8,5.8,21.3,23,16.2
			c58.5-17.4,118.4-21.2,177.8-6.9c118.7,28.6,184.3,111.3,220.6,222.2c19.5,59.6,26.6,121.3,30.2,183.6
			c5.8,99.5,6.3,198.7-25.1,294.9c-35.6,109.1-102.1,186.4-221,206.1c-48,7.9-96,4.4-143-8.8c-14.3-4-19.4-2.1-14.4,13.5
			c5.8,18.3,10.9,36.9,19.4,54.2c4.5,9.1,9.9,13.4,21.2,15.5c48.4,9,97,11.5,145.8,7.8c165.5-12.7,287-106.9,322.6-271.2
			C2565.2,1864,2564.4,1780.8,2566.4,1685.4z M2406.5,1721.2c0-21.5,0-42.9,0-64.4c0-11.6-5.1-16.5-17.4-17.5
			c-157.4-13.2-279.6,46.3-368.3,176.3c-7.5,10.9-10.3,22.1-9.8,35.3c2.8,65.1,5.6,130.1,13.1,194.9c4.2,36.3,3.8,36.3,39.5,45.3
			c157,39.2,271.4-24.8,319.5-179.2C2402.4,1849.8,2408.5,1785.9,2406.5,1721.2z M2001.7,1594.3
			c106.4-100.9,228.1-146.8,371.4-141.8c-19.3-52.8-43.2-100-85.3-135c-86.3-71.8-183.6-71.8-285.1-41.4c-7.7,2.3-10,7.2-9.7,14.9
			C1996,1390.1,1998.7,1489.2,2001.7,1594.3z M2008.2,1764.3c2.9-1.3,3.7-1.4,4.1-1.9c98.4-118.4,223.2-174.4,377.7-159.6
			c11.1,1.1,12.6-3.4,11.2-12.5c-4.1-26.3-8.4-52.6-11.7-79c-2.2-17.3-10.8-22.6-28-22.7c-128.3-1.1-239,40.8-331.6,130.6
			c-19.6,19-30,37.9-25.9,66C2007.7,1710.7,2006.9,1736.8,2008.2,1764.3z"/>
		<path class="st0" d="M1169.4,2032.7c-26.6,10.1-51.2,17.6-82.8,15.6c29.8,33.7,44.3,69.5,40.8,111.2
			c-3.5,41.8-22.6,74.6-55.8,99.4c-49.9,37.2-121.6,34.3-168.8-6.4c-55.6-48-61.7-110.6-18.1-193.7c-41.7,8.6-79.7,0.4-117.2-23.9
			c12.5,98.5-5.1,187.8-61.8,267.3c-56.2,78.8-131.6,129.5-227.2,147.1c-174.6,32.1-342.1-59.8-406.1-221.5
			C8.6,2066,68.2,1884.5,214,1788.4c126.6-83.4,359.1-91.8,498.1,102.4c40.6-132,194.2-142.1,260.9-43.4
			c31.1-54.2,76.5-83.9,139.7-78.8c63.9,5.2,102.7,43.4,125.8,104.6c66.4-80.7,149.1-129.7,251.8-139.4
			c103-9.8,195.1,18.9,273.9,86.6c125.9,108.1,161.2,292.1,85.1,439.2c-77.8,150.2-245.7,226.5-410.6,185.7
			c-91.8-22.7-163.3-75-215.4-153.6C1171.6,2213.4,1156.7,2126.7,1169.4,2032.7z M1236.2,1953.5c-21.8,37.2-31,76.1-33.3,116.2
			c-12.8,217.4,172,381.4,386.4,343.4c204.6-36.2,323.4-270.3,232.5-457.5c-7.7-15.8-12.3-15.1-24.4-4.6
			c-68.2,59.7-147.6,95.4-237.8,104.7c-17.5,1.8-19.7,8.3-19.4,23.1c0.9,41.5,0,83,0.5,124.5c0.1,12.6-0.5,20.5-17.1,20.2
			c-15.4-0.3-20.4-4.3-20-20c1-43,0.3-86,0.4-128.9c0-9.5,0-16.7-13.4-17.4C1394.8,2051.7,1311.5,2014.6,1236.2,1953.5z
			 M423.9,2139.1c0,21.5-0.9,43,0.3,64.4c0.9,15.3-3.5,20.3-19.4,20.2c-16.3-0.1-19.7-6.2-19.5-20.9c0.8-42.2,0.2-84.4,0.3-126.6
			c0-10,0.7-18.1-14.1-19c-89.1-5.5-168.5-37.6-238-92.9c-17.6-14-20.4-5.4-26.1,8.8c-53.9,133.9-12.5,287,102.5,377.5
			c112.1,88.3,272.5,91.4,389.1,7.6c127.1-91.4,171.9-263.1,105.4-402.1c-6.6-13.9-10.5-17.5-24-5.5
			c-68.6,60.3-148.6,96.1-239.7,105.6c-13.2,1.4-17.8,4.9-17,18.4C424.8,2096.1,423.9,2117.6,423.9,2139.1z M1507.1,2021.6
			c102.9,0,201.7-39.1,270.6-101.8c12-11,12.5-17.7,2.4-30.4c-131.6-166.1-395.1-158.8-517.2,14.4c-8.5,12.1-6.8,18.1,4,26.8
			C1340.1,1988.9,1422.8,2020.2,1507.1,2021.6z M396.1,2021.8c102.1-1.2,189-37,264.5-102.3c10.7-9.3,13.4-15.4,3.4-28.3
			c-130.7-167.4-395.8-161.4-517.9,12c-7.8,11.1-9,17.5,2.8,26.9C221.7,1988.2,304.1,2020,396.1,2021.8z M851.7,1818.2
			c-56.5,0.2-102.9,46.6-103,103.3c-0.1,56.8,46,103.2,102.6,103.3c58.2,0.1,104.7-46.5,104-104.1
			C954.6,1863.6,908.5,1818,851.7,1818.2z M1100.5,2010.9c57.7-0.2,103.5-45.5,103.7-102.6c0.2-57.1-45.8-103.5-102.8-103.7
			c-56.8-0.2-103.5,46.2-103.6,103C997.5,1965,1043.4,2011.1,1100.5,2010.9z M990.9,2048.7c-54.6,0.2-99,44.3-99.5,98.9
			c-0.4,54.7,45.5,100.6,100.5,100.3c54.6-0.3,98.8-44.4,99.2-99.1C1091.4,2093.3,1046.7,2048.5,990.9,2048.7z M1004.2,2011.7
			c-9.1-11.3-16-19.9-23.9-29.8c-7.3,11.5-12.9,20.4-18.9,29.8C976.1,2011.7,988.2,2011.7,1004.2,2011.7z"/>
		<path class="st0" d="M1282.2,2198.2c0-37.4,30-68,67.2-68.4c37.6-0.4,69.3,31.6,68.7,69.4c-0.6,36.8-31.9,67.6-68.5,67.4
			C1312.6,2266.3,1282.2,2235.5,1282.2,2198.2z"/>
		<path class="st0" d="M1667.7,2132.9c38-0.1,68,29,68.3,66.3c0.3,37.1-29.9,67.5-67.3,67.7c-39.1,0.2-69.8-29.8-69.4-67.9
			C1599.7,2161.6,1629.3,2133,1667.7,2132.9z"/>
		<path class="st0" d="M164.9,2198.1c0-37.5,30-68,67.2-68.3c37.9-0.3,68.6,31,68.1,69.6c-0.5,37.1-31.4,67.6-68.2,67.2
			C195,2266.2,164.9,2235.4,164.9,2198.1z"/>
		<path class="st0" d="M550.2,2132.9c38.4,0.1,67.9,28.8,68.2,66.3c0.3,38.1-30.4,68-69.5,67.7c-37.3-0.3-67.5-30.8-67.1-67.9
			C482.2,2161.7,512.2,2132.8,550.2,2132.9z"/>
		<path class="st0" d="M1594.6,1891c0.4,37.7-28.8,68.1-66.2,68.8c-37.7,0.7-68.2-28.5-69-65.9c-0.8-38.9,28.9-69.9,67.2-70.1
			C1564,1823.6,1594.2,1853.4,1594.6,1891z"/>
		<path class="st0" d="M409.2,1959.8c-37.6-0.2-67.7-30.1-67.9-67.5c-0.2-38,31.6-69.3,69.5-68.4c37.4,0.9,66.9,31.4,66.5,68.9
			C477,1930.1,446.7,1959.9,409.2,1959.8z"/>
	</g>
</g>
</svg>
