<?xml version="1.0" encoding="utf-8"?>
<!-- Generator: Adobe Illustrator 23.0.0, SVG Export Plug-In . SVG Version: 6.00 Build 0)  -->
<svg version="1.0" xmlns="http://www.w3.org/2000/svg" xmlns:xlink="http://www.w3.org/1999/xlink" x="0px" y="0px"
	 viewBox="0 0 3000 3000" style="enable-background:new 0 0 3000 3000;" xml:space="preserve">
<style type="text/css">
	.st0{stroke:#000000;stroke-width:10;stroke-miterlimit:10;}
</style>
<g id="Layer_1">
</g>
<g id="Layer_2">
	<g>
		<path class="st0" d="M2102.2,1969.6c-12.2,31.5-22.6,57.2-32.2,83.2c-61.8,167.8-185.6,262-356.1,302.4
			c-100.6,23.8-203,33.3-305.6,41.5c-121.3,9.7-242.6,13.5-364.3,6.7c-133.1-7.4-264.5-25.7-394.6-54.3c-10.8-2.4-21.1-2.4-31.9-1.5
			c-179.3,14.3-324.5-49.2-429.1-195.6C76,1994.4,84.6,1785.4,206.7,1628.5c13.3-17.1,14.8-29.2,5.1-48.5
			c-192.1-381.7,26.7-783.9,363.7-908.9c126.6-46.9,258.2-61.3,391.1-28.2c110.8,27.6,191.3,93.9,235,200.9
			c7.8,19.2,14.1,16.1,27.7,6.7c105.2-71.9,220-122.1,346.4-141.1c222.9-33.5,418.6,26.1,586.4,177c17.6,15.8,31.1,34.5,42.2,60.3
			c16.3-51.2,40.4-93,72.7-129.7c82.2-93.4,183.9-147.6,310.1-133.6c155.7,17.3,256.3,109.3,313.2,252.1
			c21,52.6,24.8,108.3,25.7,164.3c3.1,200.2,5.5,400.5-0.3,600.7c-2,68.6-7.9,137-23.4,204.2c-26.6,114.8-96.3,202.6-179,281.8
			c-43.6,41.8-92.9,76-148,101.3c-154.7,70.8-289.2,32.4-386-106c-41.1-58.7-67.1-124.2-82.8-193.9
			C2105.7,1983.7,2104.7,1979.7,2102.2,1969.6z M1190.8,922c-3.1-9.1-5.5-15-7.1-21.1c-32.3-117.9-108-192.9-225.8-223.4
			c-107.2-27.8-215-18.3-320,10.6c-152.6,42-272.8,132.6-358.7,265c-128.9,198.6-135.5,405.5-33.6,617.4c3.9,8.1,6.2,16.9,19.9,12
			c100.9-35.6,204.2-37.1,308.9-21.8c98.5,14.4,175.3,55.7,205.4,158c3.2,10.7,7.7,7.9,15.5,6c94.2-23.2,174.2,43.5,170.1,141
			c-1.6,38-7.4,75.4-14.1,112.5c-21.9,121.9-77.1,224.8-177.2,301.1c-21.5,16.4-45.3,29.1-71.3,43.5c8.2,2.2,13.3,3.9,18.5,4.9
			c108.9,21.1,218.7,33.8,329.4,40.5c110.9,6.7,221.6,2.9,332.2-5.4c114-8.5,228-17.5,339.2-46.9
			c133.9-35.4,239.3-105.9,297.2-236.9c39.1-88.4,71.5-179.2,94.7-272.8c43.9-177.2,71.5-357,75.3-540.1c1.7-79.3,7.3-158.7-2-237.8
			c-4.5-38.6-11.8-77.4-41-105.9c-116.2-113.5-256.4-174.9-418-185c-164.2-10.3-312.9,39.3-451.4,124.3
			C1248.1,879.4,1220.2,899.2,1190.8,922z M2504.8,1788.5c6.6-42.2,4.6-84.3,0-126.3c-2.9-26.1-8.4-53.2-32.4-67
			c-48.4-27.8-99.5-44.3-154.4-16.4c-45,22.9-84.4,53.4-120.1,89c-6.8,6.8-10.9,14.5-12.8,24c-11.4,55.9-26.8,110.8-42.9,165.6
			c-7.3,24.9-9.9,50.4-7.2,76.4c9.1,90.4,41.6,171.9,96.1,244.1c81.3,107.7,190.9,136.4,315.5,83.5
			c80.6-34.2,146.5-88.3,203.6-153.7c54.1-61.9,99.3-128.9,117.4-211.1c14.6-66.6,19.6-134.2,22.2-202.1c0.3-8.1-1.6-15.4-5.2-22.7
			c-34.5-69-105.3-109-175.1-97c-91.7,15.8-141.8,52.1-160.7,154.2c-8.9,47.8-5.4,96.9-8.5,145.3c-0.7,11.4-1.1,18.5-16,17.5
			c-13.9-0.9-20.6-3.7-19.8-19.7C2505.8,1844.3,2504.8,1816.4,2504.8,1788.5z M757.3,1829.8c-1.1-19.3-1.5-38.6-3.3-57.8
			c-8.6-88.8-56.2-147.3-141.5-167c-105.9-24.4-212.2-27.3-317.7,5.1c-26.8,8.2-47.2,20.8-64.6,44.5
			c-104.2,142.2-112.8,321.8-19.8,466.5c30.6,47.5,70.6,85.9,115.8,119.5c15.9,11.8,31.6,20.7,52.4,15.9c21.5-5,43.8-7.4,64.8-13.9
			c111.1-34.3,207.6-89.2,264.7-196.1C744,1979,756.3,1905.7,757.3,1829.8z M2547.5,1226.5c34.9-48.3,84.8-68.3,136.1-55.5
			c51.6,12.9,82.5,62.6,75.1,123c-1.6,13.3-0.4,17.7,14.7,18.7c27.4,1.7,52.5,12.3,75.5,27.9c15.2,10.3,26.9,24.5,42.8,37.9
			c0.5-7,1.1-11.2,1-15.2c-1.6-102.9,0-205.9-4.7-308.8c-1.7-37.6-9-73.7-21.8-108.7C2781,711.9,2508.1,642.3,2333,810.2
			c-49.8,47.8-90.6,102.1-97.1,173.9c-11.2,124.6,1.9,249.8-8.4,376.3c16.7-8.8,31.6-16.9,46.8-24.5c16.1-8,33-15,50.7-16.1
			c20.9-1.4,25.1-11,26.3-30.6c4.1-65.8,56.2-111.6,118.1-106.1C2501.4,1186,2526.8,1202.2,2547.5,1226.5z M2893.4,1614.8
			c0-53.8,0.1-102.2-0.1-150.6c0-5.6-0.8-11.7-3.2-16.7c-28.1-58.4-69.2-98.1-138.7-101.3c-116.4-5.4-232.8-6.2-349.2,0.4
			c-51.8,2.9-102.1,9.9-146.7,40c-22.5,15.2-38.9,31.9-38.2,61.6c0.4,15.4-4.7,31-6.3,46.5c-4,38.7-7.5,77.5-11.2,116.8
			c10.2-0.4,14.2-7.2,19.5-11.3c25.6-19.6,51.9-37.9,80.7-52.4c94.7-47.5,202.6-6.3,239,91.3
			C2657,1510.2,2761.3,1501.7,2893.4,1614.8z M422,2285.4c71.1,26.6,143.1,39.6,215.6,21.9c67.3-16.4,124-54.6,170.3-106.3
			c89.2-99.7,119-221.3,121.4-350.5c1.2-65.3-61.4-108.4-123.7-91.8c-8.1,2.2-18.3,2.7-15.7,17.2c7,39.9,1.6,79.9-1.6,119.7
			c-6,73.9-28.2,142.9-70.5,204.1c-64.9,93.7-158.8,145.4-265.3,177.7C442.3,2280.5,432.1,2282.7,422,2285.4z M2652.5,1305.7
			c0,0.8,0,1.6,0,2.4c17.1,0,34.3-0.3,51.4,0.1c8.6,0.2,15.1-0.6,17.6-10.8c6.9-28.3,3.2-54-18.1-75.2
			c-20.7-20.7-55.6-24.6-88.2-10.5c-27.6,11.9-33.1,21.8-32.5,57.4c0.1,6.4,0.7,12.9-0.1,19.3c-1.5,12.7,2.6,18.3,16.3,17.5
			C2616.7,1305,2634.6,1305.7,2652.5,1305.7z M2407.7,1306.3c39.2,0,78.3,0.2,117.5-0.2c5.9-0.1,18,2.9,14.1-9
			c-9.2-27.6-18-56.1-47.3-70.5c-47.6-23.4-93.8,3-105.1,60.1C2382.1,1310.7,2383.6,1312.5,2407.7,1306.3z"/>
		<path class="st0" d="M1695.2,1142.7c-0.6-8.5,0.3-22.5-3.1-35.4c-4.8-18.2,8.3-15.8,17.6-18.5c11.4-3.2,17,1.1,18.5,13.1
			c10.1,81.4-1.9,156.9-58.8,220.3c-25,27.9-55,50-87.1,68.9c-11,6.5-12.4,12.1-8.6,23.6c16,49.1,19.1,99.4,9.2,150.2
			c-13.7,69.7-49.2,123.2-113,158c-89,48.6-182.1,70.1-282.7,48.6c-33.1-7.1-63.6-21.1-92.7-38.2c-87.4-51.6-121-147-85.6-242.1
			c10.2-27.5,21.8-54.4,40.1-77.7c5.8-7.4,5.2-10.9-2.4-16.5c-71.3-53-108.1-125.5-118.2-212.7c-1.1-9.7-5.8-19.8,11.5-20
			c12.8-0.2,22.9-2.9,24.8,16.1c7.7,78.5,40.6,144.4,106.5,189.8c50.5,34.9,107.8,54.8,168.1,66.1c101.8,19.1,192.3-19.5,283.5-54.8
			c39.8-15.5,73.9-40.3,105.4-68.5C1676.9,1268.9,1696.4,1212.5,1695.2,1142.7z M1552.7,1509.3c0.9-24.7-5-48.3-9.3-72.2
			c-3.5-19.4-10.7-21-28.5-14c-57.8,22.5-115.8,46-178.4,51.8c-81.6,7.6-159.2-9.1-232.5-45.1c-13.1-6.4-20-4.5-28,6.8
			c-21.6,30.9-36.7,64.6-42.2,101.8c-8.3,55.9,4.3,105.9,49,143.3c33.3,27.8,72.1,46.7,114.7,55.4c83.1,17.1,160.7,0.4,236.8-35.7
			C1517.1,1662.3,1550.3,1596,1552.7,1509.3z"/>
	</g>
</g>
</svg>
