<?xml version="1.0" encoding="utf-8"?>
<!-- Generator: Adobe Illustrator 23.0.0, SVG Export Plug-In . SVG Version: 6.00 Build 0)  -->
<svg version="1.0" xmlns="http://www.w3.org/2000/svg" xmlns:xlink="http://www.w3.org/1999/xlink" x="0px" y="0px"
	 viewBox="0 0 3000 3000" style="enable-background:new 0 0 3000 3000;" xml:space="preserve">
<style type="text/css">
	.st0{fill:none;stroke:#000000;stroke-miterlimit:10;}
	.st1{stroke:#000000;stroke-width:10;stroke-miterlimit:10;}
</style>
<g id="Layer_1">
</g>
<g id="Layer_2">
	<circle class="st0" cx="1155.6" cy="1623.7" r="1.3"/>
	<circle class="st0" cx="1150.6" cy="1627.7" r="1.3"/>
	<circle class="st0" cx="1148.6" cy="1632.7" r="1.3"/>
	<circle class="st0" cx="1150.6" cy="1638.7" r="1.3"/>
	<g>
		<path class="st1" d="M1497,2741.4c-169.2,0.4-338.3-4-506.4-24.8c-142.5-17.6-282.9-44.1-415.4-102.5
			c-109.1-48.1-194.5-123.4-257-224.5c-36.7-59.4-54.1-124.7-47.4-194.2c6.8-70.8-10.2-134.7-57.1-186.1
			C91.2,1874.9,89.5,1724.4,142,1562.1c38.2-118.1,102-218.7,186.6-308.1c49.9-52.7,97-108.1,146.2-161.4
			c10.5-11.4,12.3-21,8.3-35.6c-9.3-34.1-14.2-69-13.2-104.6c2.9-95.3,63-161.5,157.7-173.9c35.4-4.7,70.8-3.3,105.7,1.1
			c19.4,2.5,31.9-2.9,45-16.6c99.8-104.6,209.1-198.6,324.1-286c107.5-81.8,230.5-121.6,364.4-127.9c188.3-8.8,376.2,3.5,564,13.5
			c122.3,6.5,244.2,19.4,360.3,60.8c173.6,62,326.2,154.7,429,313.8c80.2,124.1,115.7,262.7,128,408.4
			c14.2,168.4-0.1,335.9-16.6,503.2c-18.6,188.5-69,367.6-164.8,532c-127.3,218.5-313.9,368.5-545.1,466.7
			c-125.7,53.4-257.6,75.3-392.3,85.6C1718.7,2741.7,1607.9,2742.1,1497,2741.4z M1733.9,2040.5c-73.3-26-131.1-65-172.7-125.2
			c-48.8-70.6-52.1-157.4-6-226.5c92.6-138.7,226.3-212.9,390.1-214.4c201-1.8,345.1,105.5,441.3,275.6
			c106.3,187.7,65.7,390.6-102.2,523.2c-248.1,196.1-553,137.6-737.4-24.9c-22.3-19.6-42.4-42.1-50.4-71.7
			c-4.3-15.9-12.4-18.2-26.8-16.1c-132.4,19.5-264.4,17-396.4-5.4c-123.3-21-248-31.3-372.3-44.5c-113.4-12.1-226.8-13.2-339.8,6
			c-40.8,6.9-40.5,7.1-40,47.5c0.1,11.4-1.3,22.9-2.5,34.3c-5.7,54.1,5.7,105,32.2,151.7c61,107.7,149.5,184.1,264.9,230
			c89.2,35.5,181.7,57.8,276,73.5c273.8,45.5,549.9,44.1,826,37.7c96.4-2.3,193.3-7.2,287.5-28.6
			c369.5-84.1,639.4-291.5,788.3-645.6c77.9-185.4,95.5-382.1,108-579.8c1.8-28-3.5-37.5-34.3-36.5c-147.1,4.8-294.2,3.7-441-8.7
			c-83.8-7.1-164.7-25.5-232.9-78.4c-91.6-70.9-136.6-167.3-146.6-280.8c-2.1-23.4-6.9-33.4-33-31c-64.6,5.8-129.5,9.2-194.4,12.6
			c-18.4,1-19.1,7.9-15.1,23.6c7.8,30.7,9.7,62,5.4,93.8c-12.2,89.1-54.5,162.4-119.5,222.1c-114.4,105.1-248.9,138.9-395.4,87.2
			c-145.5-51.4-233.6-157.8-255.2-313.4c-2.9-20.7-12.8-18.7-26.6-18.3c-152,4.9-303.8,1.7-455.2-13.8c-15.3-1.6-24.8,3.2-34.5,14.1
			c-54,60.6-106.9,122.4-163.3,180.7c-95.4,98.6-156.9,214.5-189.7,347.3c-30.1,121.9-15.9,232.7,71.4,328.9
			c22.4,24.7,42.6,52.7,53.1,84.4c8.3,25.1,22,25.6,42.6,21.6c81.9-15.9,164.8-22.3,247.9-17.9c173.5,9.2,346.3,28,517.6,56.3
			C1319,2146.6,1526.2,2116.8,1733.9,2040.5z M580.1,1047.6c9,2.4,12.5,4,16.1,4.3c142.1,10,284.2,16.2,426.6,8.6
			c13.8-0.7,18.9-5.6,22-19.6c11-50.3,33.6-95.1,69.2-133c79.2-84.2,179.9-123,292.1-125.8c148.4-3.8,275.8,45.2,363.7,172.4
			c7.7,11.1,15.2,14.5,28,13.6c75.2-5.1,150.5-9.7,225.8-13.9c15.8-0.9,23.9-5.7,24.6-23.5c0.8-18.9,4.9-37.8,9.1-56.4
			c29.4-132.6,97.6-245.6,179.1-351.8c19-24.7,38.3-49.1,59.2-75.9c-43.7-12.7-85.2-19-126.7-23.2c-218.8-21.9-438.2-30.2-658-28.8
			c-156.2,1-296.8,46.8-417.1,149.1c-51.6,43.9-104.5,86.4-155.3,131.3C810.2,788.6,699.2,918.6,580.1,1047.6z M1944,2350
			c135-6.1,258.1-53.9,355.8-156.1c90.4-94.6,118.4-208.2,81.5-333.7c-41.2-139.9-134.2-237.6-263.4-301.5
			c-87.6-43.3-179.5-51.1-273.1-22.6c-100.3,30.6-187.4,81.6-245.4,172.3c-38.7,60.5-39.7,122,2.7,182.1
			c67.1,95.1,188.8,135.8,299.4,99.5c35.3-11.6,70-24.6,105-37.1c9.3-3.3,19.6-6.2,25.8,3.6c5.3,8.4,3,18.6-0.7,27.6
			c-4.8,11.8-16.2,15.2-26.5,20.2c-44.9,21.5-93.5,32.4-139.9,49.6c-83.2,30.7-167.2,58.9-253.7,79.3c-24,5.7-62.7,3.5-67.2,24.9
			c-5.8,27.3,25.8,48.6,47.9,66.5C1693.1,2306.2,1809.4,2345.9,1944,2350z M2661.8,1352.9c71.7,0,143.4-0.9,215,0.5
			c23.1,0.4,28.1-8.9,29-29.5c4.3-100.7-3.6-200.7-22.7-299.4C2826.5,731.9,2639,559.1,2366.7,465c-13.6-4.7-22.7-2.6-31.9,9.3
			c-48.2,62.9-99,123.8-139.7,192.2c-65.7,110.3-111,226.2-101.4,357.7c9.2,126.2,82,278.2,271,310.9
			C2463.2,1352.2,2562.5,1351.2,2661.8,1352.9z M1448.5,1122.7c77.2,0,140.3,0,203.3,0c31.9,0,62.4-6.8,92.3-17.3
			c14.9-5.2,20.3-13.8,18.4-30.2c-6.5-54.2-28.4-100.6-67.1-139c-130.4-129.6-363.1-143.3-508.6-30.6
			c-44.4,34.4-76.5,76.6-92.1,131.2c-3.7,13.1-1.3,20.2,8.5,29.3c32.9,31,73.2,44,116.2,50.6
			C1300.2,1129,1381.6,1119.4,1448.5,1122.7z M1088.2,1117.3c8.8,169.9,176,307.5,355.6,297.5c142.7-8,315.4-153.6,308.2-260.9
			c-47.8,16.8-97.5,18.2-147.1,18.2c-104,0.1-208-1.4-312.1-2C1221.5,1169.7,1152.4,1160,1088.2,1117.3z M717.8,825.9
			c-68.1-3.6-130.6-6.8-173.6,48c-36.6,46.6-31.4,100.7-16.3,159.3C591.8,963.5,652.6,897.1,717.8,825.9z"/>
		<path class="st1" d="M854.3,434.5c45,1,81.7,38.7,81,83.4c-0.7,45.5-40.8,84.2-85.5,82.6c-44.6-1.6-81.1-39.7-80.7-84.3
			C769.5,469.7,807.2,433.5,854.3,434.5z M851.8,550.8c22.4,0.1,33.8-13.7,34.7-33.3c0.8-20.4-11.6-33.6-33.1-35
			c-20-1.3-38.4,15.5-36.4,34.9C819,537.3,829.6,550.6,851.8,550.8z"/>
		<path class="st1" d="M316.8,651.9c0.5,46.5-36.6,84.3-82.6,84.1c-44.9-0.2-82.1-36.9-83-81.7c-0.8-46.1,36.6-83.6,83.4-83.5
			C280.7,570.8,316.3,606,316.8,651.9z M235.9,617.8c-20.6,2.1-34.8,11.5-35.6,33.3c-0.7,20.9,9.4,34.3,31.6,35.7
			c21,1.4,38.2-13.4,37.5-33.4C268.7,632.4,256.2,621.1,235.9,617.8z"/>
		<path class="st1" d="M458.4,555.7c-45.5-0.3-81.7-36.3-82.1-81.7c-0.4-46.2,37.6-84.4,83.4-83.9c45.9,0.4,82.6,38.8,81.7,85.3
			C540.5,521.3,504.6,556,458.4,555.7z M494.1,474.1c-2.2-20.7-12.1-34.4-33.7-34.9c-21-0.5-34,10.2-35.3,32.2
			c-1.2,20.7,14.3,38,34.1,36.9C480,507.1,491.5,494.9,494.1,474.1z"/>
		<path class="st1" d="M62.3,877.3c0.1-46.1,35.4-81.7,81.3-82.1c46.6-0.4,84.4,36.8,84,82.9c-0.3,44.8-37.5,83.4-82.1,82.4
			C98.7,959.5,61.1,924.4,62.3,877.3z M178.9,880.7c-0.7-23.5-16-39.4-34.7-38.1c-20.6,1.5-33.3,13.3-34.3,34.5
			c-1,20.2,15.9,36.3,36.4,34.8C167.7,910.3,178.3,897.8,178.9,880.7z"/>
		<path class="st1" d="M316.8,1147.8c1.2,46.9-38.2,82.1-84.2,82.2c-44.8,0.1-81.7-38.8-81.4-83.3c0.3-46.1,38-82.3,85.2-81.7
			C282.2,1065.5,317.1,1101.5,316.8,1147.8z M234.3,1181.8c20.2-2.2,33.5-12.5,35.2-33.7c1.6-19-16.8-37.5-35.9-35.9
			c-20.7,1.8-33.4,13.6-33.3,35C200.3,1168.8,213.1,1179.7,234.3,1181.8z"/>
		<path class="st1" d="M2431.6,853c-0.9,39-13.1,72.4-38.9,100c-45.1,48.3-121.8,42.5-161.2-13.1c-33.7-47.5-37.7-98.8-11.5-151
			c19.8-39.5,51.6-63.5,97.3-63.6c45.7,0,76.6,24.3,97.6,63.3C2426,809.1,2430.1,831.4,2431.6,853z M2382.8,858.8
			c1.8-46.7-28-85.8-65.3-85.8c-37.4,0-66.7,38.5-65.2,85.8c1.4,42.8,29.9,78.4,63.7,79.5C2350.4,939.4,2381.1,902.8,2382.8,858.8z"
			/>
		<path class="st1" d="M2741.6,856.5c-0.6,68.3-47.7,125.4-106.1,128.6c-69,3.8-125.8-60.6-120.8-137
			c4.3-65.5,45.8-115.9,100.5-122.1C2684.6,718.1,2742.3,777.7,2741.6,856.5z M2694.3,858.6c0-43.6-26.5-80.9-58.2-85.4
			c-30.5-4.4-61.3,18.7-69.8,55c-8.3,35.3-3.5,68.7,25.1,94.5c16.9,15.2,36.6,20.3,58.2,10C2681.9,917.1,2691.3,887.9,2694.3,858.6z
			"/>
		<path class="st1" d="M2581,1142.8c-0.1,68.4-46.7,125.7-105.3,129.4c-69.1,4.5-126.3-59.3-121.9-135.9
			c3.9-67.5,48.5-119.8,105.4-123.6C2526.9,1008.2,2581.2,1066.2,2581,1142.8z M2533.6,1141.1c-0.8-43.6-30.7-80.9-65.2-81.4
			c-36.2-0.5-66.1,36.9-66.1,82.6c0,45.2,30.4,83.5,65.9,83C2503.5,1224.8,2534.4,1185,2533.6,1141.1z"/>
	</g>
</g>
</svg>
