<?xml version="1.0" encoding="utf-8"?>
<!-- Generator: Adobe Illustrator 23.0.0, SVG Export Plug-In . SVG Version: 6.00 Build 0)  -->
<svg version="1.0" xmlns="http://www.w3.org/2000/svg" xmlns:xlink="http://www.w3.org/1999/xlink" x="0px" y="0px"
	 viewBox="0 0 3000 3000" style="enable-background:new 0 0 3000 3000;" xml:space="preserve">
<style type="text/css">
	.st0{fill:none;stroke:#000000;stroke-miterlimit:10;}
	.st1{stroke:#000000;stroke-width:10;stroke-miterlimit:10;}
</style>
<g id="Layer_1">
</g>
<g id="Layer_2">
	<path class="st0" d="M958.6,1255.7"/>
	<g>
		<path class="st1" d="M511,1993.4c6.3-203,11.7-406.1,26.8-608.7c7.5-100.2,17.7-200.4,55.7-295c4.5-11.3-1.7-17.1-6.8-24.3
			c-80.9-112.1-143.6-233.1-177.9-367.7c-20.6-81-31.5-163-17.9-246.4c17.1-104.2,78.8-181.4,155.4-248.6
			c66.2-58.1,141.6-88.4,231.9-87c121.6,1.8,243.2-3.1,364.9-5.3c23.2-0.4,46.4,0.2,69.5,2.8c21.4,2.4,40,11.1,50.5,30
			c7,12.6,11.4,11.2,21.4,3.9c65.4-47.6,138.5-70.3,219.6-63.5c42.6,3.6,82.6,17.1,119,39.2c13,7.9,21.8,7.1,33.7-1.2
			c38.5-26.8,82.2-41.4,128.7-41.1c102.8,0.6,204.9-5.5,306.9-18c132.2-16.2,240,35.2,332.1,126.4
			c89.9,88.9,134.9,196.7,138.3,322.7c4.1,151.2-28.9,294.2-92.7,430.7c-13.1,28.1-28.3,55.1-48.8,78.5c-7.2,8.2-8.4,13.7-1.3,23.1
			c101.7,134.2,147,288.6,163.9,453.7c13.7,134.3,7,268.1-3.7,402.1c-9.8,122.5-20.3,245-39.3,366.5
			c-20.5,130.5-53.7,257.4-126.2,370.3c-55,85.7-125,155.6-220.7,195.2c-55.6,23-115,31.6-174.5,37
			c-265.9,24.1-532.4,17.6-798.8,14.5c-105.4-1.2-210.9-4.6-315.6-18.7c-77.5-10.4-153.8-25.7-225.5-58.7
			c-24.3-11.2-46.9-25.3-68.8-40.8c-75.7-53.6-106.5-128.1-108.2-219.3C499.3,2361.6,505.7,2177.5,511,1993.4z M1482.5,2830.9
			c106.9,0,213.8,1.4,320.6-0.4c99.1-1.7,198-7.5,295.9-24.9c14.6-2.6,20.7-7.2,21.4-23.6c2.9-70.9,8-141.8,11.8-212.7
			c1.7-31.1,1.2-31.3-30.9-28.8c-93.1,7.3-173.8-17-241.8-84.7c-104.3-103.7-113.8-266.5-16.5-377.8
			c76.9-88,174.4-127.1,291.7-112.8c9.3,1.1,19.3,5.3,19.3-11.9c-0.6-149,2.4-298.4-22.9-446c-21.3-124.7-85.6-220.2-200.3-280.6
			c-185.5-97.7-381.3-123.9-586.7-90.9c-166.9,26.8-300.5,105.2-392.4,249.9c-45.2,71.1-74.1,146.3-65.1,232.6
			c2.9,27.2,4.9,54.7,4.4,82.1c-1.2,57.5-33.7,96.8-89.1,109.6c-69.7,16.1-140.5,20-211.6,14.9c-20.2-1.5-23.2,5-23.4,22.4
			c-1,64.7-3,129.3-5.2,194c-5.7,165.2-11.3,330.3-7,495.6c1.4,53.6,6,106.7,45.5,149.7c36.7,39.9,81,66.8,131.3,85.1
			c85.3,31.1,174.3,43.7,264.1,50.3C1157.6,2833.9,1320,2835.7,1482.5,2830.9z M2172.5,2784.7c7.4-3,12.7-4.6,17.5-7.1
			c92.9-47.4,159.8-120.6,206.8-212.4c59.4-116,85.5-241.6,102.6-369.6c14.5-108.1,23.5-216.6,31.8-325.2
			c11.8-154.5,17.7-309.2-11.8-462.4c-26.8-139.2-77.7-266.8-176-374.1c-69.9-76.2-150.8-134-242.8-178.2
			c-68.9-33.1-141.3-54.3-218.3-57.5c-63.3-2.6-126.6,0.3-189.8,2c-128.6,3.3-257.3,7.2-385.9,9.4c-63,1.1-123.2,20-185.5,25.9
			c-103.6,9.8-203.5,33.7-295.6,84.2C715.9,980,641,1066.7,615.9,1192.5c-15.4,77.4-24.8,155.4-29,234
			c-5.8,108.8-10.6,217.7-16.3,326.5c-0.7,13.9,2.4,19.1,17.6,20.3c60.7,4.8,120.9,0.7,180.7-9.1c60-9.8,74.5-31,69.4-92.7
			c-4.7-56.7-11.1-113.9,5.5-169.7c45.4-152.9,139.2-268.1,277.6-345.8c95.5-53.6,200.9-72.9,309.2-81.8
			c192-15.9,371.7,22.7,539.9,115.7c85.7,47.3,146.1,117.1,183,207.7c32.9,80.8,40.3,166.2,45.6,251.8
			c13.1,212.3,4.8,424.6-0.4,636.9c-2.9,120.8-12.7,241.4-19.2,362.2C2176.9,2693.1,2174.8,2737.8,2172.5,2784.7z M624,1029.5
			c24.4-37.3,51.8-67.2,83.7-92.9c9.1-7.3,3-13.7,0.3-20.2c-56.7-136.3-55.3-274.1-6.3-411.4c37.2-104.4,107.7-178.6,215.1-212.5
			c73.6-23.3,148.2-19.9,222.3,0.7c6.8,1.9,15.9,10,21.9-2c16.8-33.4,39.2-63.2,59.9-94.1c10.1-15.2,1.7-31.5-16.5-32.8
			c-18.2-1.3-36.5-1.8-54.8-1.6c-123.7,1.7-247.4,5.7-371.1,4.7c-68.7-0.6-128.2,18.1-181.4,60.6C489,314.1,424.1,419.1,438.3,564
			C455.1,736.4,525.2,886.3,624,1029.5z M1872.7,130.9c-19.2,0-41.7-0.5-64.2,0.1c-32.4,0.9-64.4,4-94.6,17.6
			c-11.7,5.3-14.5,9.7-5.9,21c21.6,28.6,41.4,58.5,58.2,90.2c5.1,9.7,9.7,9.5,19.7,5.7c169-63.8,353.2-39.8,479.3,113.5
			c99.1,120.5,119.2,253.8,54.2,397.7c-14.8,32.9-35.4,62-58.5,89.4c-6.1,7.2-10.4,12.2,0.4,19.8c39.7,27.9,73.8,62.3,107.4,96.8
			c8.8,9,13.2,7.4,18.8-1.6c9.6-15.5,20.6-30.3,28.6-46.6c66.3-133.9,100.4-275.4,95.1-425.1c-3.1-86.7-26.6-167.2-81.7-236.9
			c-49.3-62.4-108.4-112.7-182.1-142.4c-54.9-22.2-113.9-21.8-172.2-14.5C2009,124.1,1942.9,133.3,1872.7,130.9z M1171.9,403.9
			c4.3,152.2,51.7,233.5,135,295.2c43.4,32.1,92.6,49,146.7,51.8c13.9,0.7,19.5-4.3,23.5-17c10.9-34.8,22-69.6,27.7-105.7
			c6.3-39.8,4.1-73.7-29.8-106.6c-61.7-59.9-85.1-134-51.4-219c18.2-45.8,29.8-93.6,37-142.3c4-27.3,2.8-27.6-23.7-23.4
			C1271,163.4,1168.6,338.2,1171.9,403.9z M1961.3,285.3c-29.9-0.7-55.2,0.8-79.9,6.3c-25.3,5.6-50,13.4-75,20.2
			c-8.4,2.3-13.4,5-8.8,16c14.7,35.3,22.7,72.4,25,110.4c0.7,11.2,5.4,11,14.2,11.2c52.1,1.2,101.7,13.1,147.3,38.7
			c100.7,56.6,160.4,138.1,156.9,258.6c-0.6,21.8-19.9,46.2-6.2,62.8c13.5,16.4,40,21.8,60.2,33.1c8.8,4.9,14.1,5.1,21.2-3.1
			c69.7-81.2,103.3-173.5,82.3-280.6C2271.8,423.6,2136,279.3,1961.3,285.3z M2152.6,2210.5c0-57.6-0.5-115.2,0.4-172.8
			c0.2-13.4-4.1-18.7-16.7-20.6c-75.9-11.2-145.6,4.2-207,50.7c-75.6,57.4-116.2,131.9-98.5,228.7c23.9,130,147.4,212.2,281.3,191.8
			c19.2-2.9,26.4-9.1,27.3-29.2C2143.1,2376.2,2147.6,2293.4,2152.6,2210.5z M1529.2,740.5c24.2-2.4,51.8-13.5,78.4-31
			c152-100,190.6-303.2,85.7-452.5c-40-57-91.9-98.1-160.4-116.2c-11.1-2.9-18.6-3.7-19.9,11.3c-5.6,64.9-25,126.4-46.9,187.2
			c-9,24.9-8.4,49.9,0.4,74.3c11.6,32,28.3,61.2,55.5,83c22,17.7,33.3,41.1,36.4,68.9c2.8,24.6,1.5,49.1-2.9,73.5
			C1549.4,673.2,1540.1,706.8,1529.2,740.5z M717.7,710.8c-1.2,59.2,11.9,115.5,31.8,170.8c5.5,15.4,11,15.2,23,6.6
			c20-14.3,41.7-26.2,64.5-35.3c13.2-5.2,18.3-11.8,16-26.4c-6-38.6-3.2-77.3,4.9-115.2c26.4-123.5,99.8-233.3,241.8-242.9
			c11.2-0.8,11.6-6.5,12.4-14.8c3.2-32.2,9.1-64.1,20.8-94.3c4.5-11.7,0.2-15.4-9.2-17.3c-20.6-4.1-41.2-8.6-62-11.4
			C938,314,827.2,370.7,768.8,480.9C730.7,552.8,719.3,630.8,717.7,710.8z M2089.8,728.3c-0.6-27.7-5.5-54.5-17.9-79.5
			c-44-89.2-119.1-133.4-214.9-146.5c-34.7-4.7-34.8-3.9-45.3,29.6c-1.7,5.4-3.5,10.7-5.4,15.9c-21.3,56.6-61.8,100-99.6,145.3
			c-8.6,10.4-25.9,20.6-19.7,34.1c5.6,12.1,24.3,6.1,37.3,6.3c104.7,1.7,208.8,6.6,310,38c15.1,4.7,32.8,23,45.8,9.5
			C2091.8,769.2,2089.6,746.7,2089.8,728.3z M904.7,824.7c4.8-1,8.9-1.4,12.9-2.6c100.3-30,200.9-58,306.8-59.3
			c7.9-0.1,15-3,21.9-6.7c13.6-7.4,16.3-17.1,5.7-28.8c-10.3-11.5-20.7-23-32.2-33.3c-50.1-45.1-90.4-96.3-103.6-164.4
			c-1.9-9.6-6.6-10.5-14.7-9.8c-51.9,4.9-97.5,24-130.1,65.2C916,654.9,895.2,735.4,904.7,824.7z"/>
		<path class="st1" d="M1140.4,1565c74.3-4.5,148.6-9.1,222.9-13.2c13-0.7,21.7-5.2,28.7-16.9c14.1-23.4,30.3-45.5,44.9-68.6
			c5.4-8.6,8.8-11.4,19-4.8c32.9,21.2,33.3,20.6,11.8,53.2c-16.2,24.6-37.1,47.3-47.5,74.1c-10.4,26.9,9.3,55.1,10.3,83.6
			c1.1,30.8,6.1,61.5,2.2,92.5c-6.6,52.2-31.4,77.3-84.3,82.5c-26.6,2.7-53.4,5.7-79.9,1c-40.3-7.1-79.5,0.7-119,5.3
			c-27.3,3.2-54.5,4.5-81.8-1c-38.5-7.7-62.8-32.5-66.2-71.4c-5.9-68.3,0.5-136,10.7-203.6c1.7-11.4,6.7-13,16.4-12.9
			C1065.9,1565.3,1103.1,1565,1140.4,1565z M1238.2,1685c1.2,0,2.3,0,3.5,0c0,31.2,0.1,62.5-0.1,93.7c-0.1,9-0.2,16.7,12.1,17.5
			c32.3,2.2,64.5,2.8,96.7-1.2c21.3-2.7,30-15.3,31.1-35.6c2.7-48.1-2.7-95.3-13.6-142.1c-2.6-11-8-14.8-19.2-13.8
			c-32.2,3-64.4,5.8-96.6,7.4c-11.1,0.6-14.4,4.1-14,14.9C1238.8,1645.6,1238.2,1665.3,1238.2,1685z M1189.9,1708.5
			c-1,0-2.1,0-3.1,0c0-26-0.7-52,0.3-78c0.5-13.4-4.3-16.6-16.9-16.1c-31.6,1.3-63.3,1.9-94.9,1.6c-12.6-0.1-17.2,4.4-18.6,16.6
			c-5.4,45.5-5.3,91.2-4.8,136.9c0.2,18.5,8.4,30.2,28.1,33.2c34,5.2,67.2-1,100.6-4.9c10.4-1.2,9.3-8.4,9.3-15.5
			C1189.9,1757.7,1189.9,1733.1,1189.9,1708.5z"/>
		<path class="st1" d="M2043.4,1776.1c-1.2,28.8-7.9,59.3-28.1,85.3c-29.1,37.6-74,37.7-103.5,0.5c-35.5-44.9-37.7-125-4.8-172.4
			c32-46,82.2-45.5,113.6,1.2C2034.2,1710.9,2043.5,1744.4,2043.4,1776.1z"/>
		<path class="st1" d="M1798.8,2553.6c-0.3,19.4-7.9,49.5-28.3,75.4c-28.2,35.8-71.3,36.5-100.7,1.9c-40.2-47.3-40-136.9,0.5-183.9
			c28.7-33.3,69.1-33.5,98.1-0.3C1787.7,2468.9,1799,2503.6,1798.8,2553.6z"/>
		<path class="st1" d="M1799.1,1940.2c-1.1,34.6-8.9,67.6-34.2,94.1c-27.3,28.5-63.7,28.4-91.2,0.3c-45.1-46.2-45.1-146.1-0.1-192.2
			c27.5-28.1,63.9-28.4,91.2,0.1C1790.6,1869.4,1798.4,1903.2,1799.1,1940.2z"/>
		<path class="st1" d="M1561.5,2257c0.2-36.1,8.2-69.7,33.9-96.6c27.5-28.7,62.9-28.4,90.7-0.1c45,45.7,45.4,145.7,0.8,191.7
			c-28.7,29.6-66.4,29.4-93.8-1.6C1569.7,2323.8,1561.5,2291.7,1561.5,2257z"/>
	</g>
</g>
</svg>
