<?xml version="1.0" encoding="utf-8"?>
<!-- Generator: Adobe Illustrator 23.0.0, SVG Export Plug-In . SVG Version: 6.00 Build 0)  -->
<svg version="1.0" xmlns="http://www.w3.org/2000/svg" xmlns:xlink="http://www.w3.org/1999/xlink" x="0px" y="0px"
	 viewBox="0 0 3000 3000" style="enable-background:new 0 0 3000 3000;" xml:space="preserve">
<style type="text/css">
	.st0{stroke:#000000;stroke-width:5;stroke-miterlimit:10;}
</style>
<g id="Layer_1">
</g>
<g id="Layer_2">
	<g>
		<path class="st0" d="M894.4,866.2c47.3-137.5,172.7-213.6,320.4-196.8c28.1,3.2,56,7.7,82.6,17.5c91.3,33.7,133.9,103.7,133.4,219
			c5.5,1.6,5.4-3.5,6.4-6c63.8-166.8,272.6-248.1,454.2-144c39.6,22.7,74.6,51.1,103.8,86.2c8.2,9.8,14.8,14.1,28.3,7.5
			c75.8-36.9,157.2-52,240.5-55.8c121.5-5.6,243.3-5.4,363.6,14.4c180.2,29.6,284.3,143.7,306.5,326.6
			c11.9,97.7-0.1,193.8-13.1,289.7c-16.2,119.2-17.1,238.3-11.4,358c6.1,127,12.4,254.2-15.3,380c-33.6,152.5-112,271.5-254.5,343.8
			c-59.9,30.4-122.2,31.8-187.1,24.6c-73.1-8.1-141.3-0.5-196.5,59.2c-67.7,73.2-116.6,84.7-203.4,37.1
			c-89.4-49.1-184.7-51.5-281.3-59.4c-202.9-16.7-373.9-158.9-431.3-354c-2.3-7.8-1.5-17.1-10.1-22.6c-13.2,7.5-7.9,20-7.3,30.1
			c3.9,65.9,6.4,131.7,0.4,197.6c-1.7,18.7-3.3,37.5-6.8,56c-15.5,81.8-60.8,123.7-143.4,130.5c-49.9,4.1-99.9,1.8-149-8.9
			c-76.1-16.6-126.8-75.7-131.4-153.2c-1.3-21.6-2.1-43.4-0.3-64.9c1.6-19.4-5.2-23.7-22.1-17.9c-0.9,0.3-1.8,0.5-2.7,0.6
			c-40.6,7.1-40.6,7.1-29.5,45.2c17.7,61-16.1,134.6-77.2,166.4c-47.4,24.7-99.2,36.6-151.3,43.7c-130.8,17.7-261.1,15.9-389.3-20.8
			c-23.6-6.8-47-15-64.7-32.9c-28.4-28.7-31.6-62.7-18-99.3c3.2-8.7,6.4-16,2.3-26.5c-46.3-118.9-24.7-184.9,84.6-257.5
			C130,2131,102.1,2044,91.4,1948.6c-14.6-131-25.8-262.5-23.4-394.5c2.1-112.6,17.8-223.2,59.1-329c11.7-29.9,25.1-59,43.4-85.4
			c7.9-11.3,6.9-15.5-5.8-22.6c-47.9-27.1-64-66.5-51-121.9c3.6-15.2,6.6-29.4-2-43.5c-49.6-81.4-8.6-177.4,65.3-225
			c68.8-44.4,146.7-50.1,225.1-53.8c78.9-3.7,156.3,0.8,228,39.5c13.8,7.4,29.9,8.3,44.2,3.4C797.4,673.7,876.9,752.5,894.4,866.2z
			 M2711.8,2416.1c85.5-75.5,127.2-165.5,148.3-266.2c26.7-126.8,17.7-254.9,12.3-383c-5-118.7-3.1-237,13.6-355.1
			c12.1-85.7,22-171.6,14.1-258.9c-15.8-174-113.3-284.6-279.4-309.9c-107.4-16.4-215.8-16.4-324.1-15.3
			c-163.6,1.7-303.4,57.6-423,172c-167,159.6-301.9,343.1-421,539.5c-23.5,38.7-37.6,79.3-33.2,125.8c2.7,28,4.2,57,0.2,84.7
			c-9.6,67.7,68.9,135,131.7,127.4c57.9-7.1,111.7,3.3,161.9,34.8c28.1,17.6,57.6,15.5,83.7-7c26.3-22.7,35.5-56.7,23.9-89.7
			c-11.2-32-33.1-54.2-64-67.6c-41.5-18-83.2-14.5-123.7,1.5c-17.5,6.9-18.2-4.1-23.7-13.6c-5.8-9.9-3.8-15.2,6.7-19
			c66.5-23.7,131.7-26.5,190.4,19.2c66.1,51.4,72.3,127.4,17.9,191.7c-5.5,6.5-10,12.8-9.6,22.3c3.9,89.5,17.8,142.4,137.9,140.7
			c7.5-0.1,15-1.1,22.5-1.6c39.5-2.7,78.9-7.5,118.4-7.6c82.2-0.2,161.5,12.3,229.3,64.7c26.1,20.2,46.3,45.6,63.9,76.3
			c9.8-16.6,18.4-29.3,30.6-38.3c11.1-8.2,12.2-15.2,6-28c-25.4-52.4-23-105.6-0.3-158.4c5.6-12.9,11.6-25.4,12-40.2
			c2.4-94.2,5.2-188.3,7.9-282.5c0.2-7.6,0.5-15.1-4.6-21.6c-27.8-34.7-39.3-74.5-36.3-118.6c0.8-11.4-2.5-14.7-14.3-12.3
			c-36.4,7.3-66.8-7.2-93.3-30c-58.1-50.1-67.9-116.4-52.8-185.9c46.6-214.1,307.8-295.3,479.4-150.1
			c59.5,50.3,98.3,113.5,113.9,190.2c10,48.8-3.9,78.6-48.4,100.9c-14.2,7.1-5.8,13.1-2.6,19.5c12.7,25.5,21.1,52.1,25.8,80.2
			c13.2,79.9-6.5,155.7-31.1,229.9c-34.3,103.3-63.7,206.8-54.4,317.5c2.7,31.9-6.9,61.8-25.2,87.9c-7.7,11-7.4,19.4-2.7,30.8
			C2722.4,2276.6,2734.8,2341.3,2711.8,2416.1z M922.9,2313.3c82.3-16.3,157.7-38.9,232.6-63.7c17.7-5.8,11.1-15.6,7.8-25.9
			c-20.5-64.1-10.3-123.7,31.2-175.6c15.6-19.4,22.5-33.6,13.2-58.5c-8.7-23.4-1.7-49.8-20.9-73.3c-33.6-41.3-17.4-92.8,32.2-112.4
			c21.3-8.4,39.5-17.9,44.5-42.3c1.8-8.6,2.9-17.7-6.6-22.3c-49.8-24.4-61.2-67.7-59-118c0.2-5.3,1.9-11.1-5-14.5
			c-17-8.3-61.4,5.1-71.6,21.6c-71.4,115.2-171.6,173-309.9,158.6c-109.3-11.4-191.3-80.9-211.2-185.3
			c-13.4-70.5-5.6-139.2,30-202.5c13.7-24.4-7.5-28.6-19-34c-16.1-7.6-13.6,11.1-16,18.5c-28.8,90.7-36.1,184.3-35.9,278.9
			c0.1,54.6,0.6,109.3-5.9,163.7c-12.2,102.3-50.8,190.4-137.5,252.4c-16,11.5-31.2,24.4-45.8,37.7c-77,69.6-60.6,153.3,37.1,190.3
			c5.3,2,10.5,4.1,15.9,5.6c121.5,34.7,245.1,35.1,369.6,23.1c16.6-1.6,16.4-10.5,16.4-22.8c0-61.7,19.1-116.3,60-163.2
			c17.3-19.9,33.9-40.5,48.9-62.1c26.2-37.6,23.7-82.4-4.7-114.9c-24.7-28.3-67.9-36.3-103.6-19.1c-36.7,17.6-54.8,56.9-43.8,102.7
			c4.6,18.8-4.6,24.6-17.7,28.4c-16.5,4.8-15.3-11.2-17.7-19.3c-18.3-61.6,14.9-128.4,75.3-148.7c68.9-23.1,129.7,6.9,155.2,65.1
			c20,45.6,12.4,88.7-14.8,128.5c-14.3,20.9-31.4,40-47.8,59.4c-33.3,39.5-53.5,84-52.4,136.5c0.1,7.1-5,20,8.4,19.5
			c10.2-0.4,26.5,3.4,29.7-10.4c13.4-57,56.9-94.3,88.1-139.7c53.9-78.6,53.9-179.9,0.2-248c-72.3-91.6-203.4-76-251.2,30.3
			c-16.5,36.6-23.9,75.4-21.1,115.5c1.2,16.9-8.5,17.7-20.6,19c-14.8,1.6-17.5-6.4-17.2-18.5c0.7-29.3,3.5-58.4,10.2-86.8
			c20-84.9,78.5-142.8,154.2-153.7c77.8-11.2,150.7,27.6,194.3,103.1c47.6,82.6,33.7,195.7-33.7,280
			C964.2,2245.2,937.8,2272.5,922.9,2313.3z M559.8,1374.1c39.8-128,101.9-238.3,190.7-338.7c-13,0-20.2-0.4-27.4,0.1
			c-105.1,7.6-210.2,16.9-315.5,22.5c-136.1,7.1-217.7,77.5-256.7,206.1c-23.9,78.9-39.5,158.7-44.4,240.7
			c-8.4,142.5,5.7,284.1,18.9,425.6c4.7,50.6,12.8,101.2,39.8,145.9c25.9,43,61.4,72.9,113.8,78.8c25.5,2.8,26.4-20.2,36.3-33
			c9.4-12.2-6.6-15.1-12.3-20.3c-25.7-24-41.8-53.2-49.4-87c-11.1-49.6-9.3-99.2,2.4-148.4c31.6-133.4,140.9-211.9,252.7-202.1
			c17,1.5,15.7-8.3,15.7-18.9c0-54.6,0.8-109.3,11.4-163.1c3-15-1.8-18.1-17.3-18.8c-46.9-2.2-91.3-15.2-128.8-44.2
			c-45.5-35.2-54.5-95-22.1-131.6c31.3-35.4,85.6-32.4,128.3,7.2C519.4,1316.6,537,1343.5,559.8,1374.1z M1383.9,1377.1
			c-1.2-16.3-3-40.7-4.7-65.1c-8.4-124.1-65-198.5-183.7-236.3c-123.7-39.4-251.9-41.9-380.1-42.3c-13.4,0-20.4,8-28.1,16.2
			c-67.3,71.2-118.7,152.7-159.5,241.7c-11.2,24.5-8.7,38.8,15.3,51.3c13.2,6.8,25.1,16.8,36.2,26.9c11.5,10.4,18.8,9.9,29.8-1.8
			c34.2-36.3,76.2-61.2,123.9-75.9c107.9-33.2,200.3,12.1,241.1,117.5c17.7,45.8,18.5,93.3,14.6,141.1c-1.1,13.2,1.3,19.5,15.1,20.1
			c32,1.5,64,2.1,96-0.6c9.1-0.8,15.3-5.1,20.6-12.8c35.4-51.1,83.8-74.1,145.9-65.2c14.1,2,18.1-2.5,17.8-16.1
			C1383.4,1445.7,1383.9,1415.5,1383.9,1377.1z M2479.1,1926.3c9,5.8,15.8-26.7,31.7-3.7c14.8,21.3-1.7,26.4-13.8,35.9
			c-48.1,37.6-68.4,111.3-47.2,168.6c20,53.9,78.4,91.9,132.4,86.7c50.7-5,102.6-44.7,106.4-112.1c1.1-19.7,1.4-39.5,0.5-59.3
			c-2.6-57,6-112.1,21.9-166.9c20.6-71.2,48-140.7,60.6-214.2c9.7-56.6,9.2-112.5-14.4-166.3c-31.4-71.6-113.1-115.7-192.3-103.9
			c-65.6,9.8-117.8,66.9-126.4,140.8c-4.9,42.4,6.5,80.5,39.9,109.4c14.7,12.7,32.3,15.4,50.1,7c16.5-7.8,16.4-23.5,16.4-38.9
			c0-15-1.3-30.3,1.1-45c5.4-32.3,23.8-46.3,56.5-45.6c32.6,0.7,58.6,28.3,65.4,70.1c15.8,97.1-30.5,187-108.2,236.8
			c-7.6,4.9-17.3,18.3-26.9,0.1c-7.1-13.4-8.7-21.4,7.6-31.1c49.5-29.4,79.5-74.4,90.5-130.5c6.2-31.3,8.4-63.7-7.4-93.8
			c-6.3-12.1-16.9-18.5-30.4-15.2c-13.1,3.2-11.4,15.7-12.1,25.7c-0.6,7.5,0.5,15,0.6,22.6c1.5,60.7-28.1,89.6-87.9,83.9
			c-13.2-1.3-14.4,3.6-14.4,13C2479.1,1775.2,2479.1,1850.2,2479.1,1926.3z M2397,2492.1c-14.9-22.8-24.4-43.1-28.4-65.6
			c-9.6-53.5-7.7-106.8,2.4-160c1.9-10,10.5-22.7-10.4-22.9c-6.3-0.1-7.9-7.3-10.6-12.1c-30.8-54-79.2-83.9-137.5-100.3
			c-44-12.4-88.9-13.9-134.3-13.2c-50.8,0.8-101.2,10-152.2,7.7c-72.3-3.3-120.4-36.1-137.1-96.3c-5-18-5.6-37.1-8.4-55.7
			c-0.9-5.9,2.3-13.3-6.4-16.7c-15.4-6-44.6,5.5-51.6,20.5c-46,99.5,7.3,218.4,112.3,250.1c35.7,10.8,72.1,12.3,109,8.5
			c48.4-5,96.7-10.5,145.5-11.9c110.8-3.2,186.9,57.5,207.2,166.1c7.3,39.3,2,78.7,4.7,119.8
			C2331.9,2500.2,2362.3,2494.9,2397,2492.1z M1732.8,745.7c-98.1-0.1-170.5,35-225.4,103.7c-36.5,45.6-56.9,97.7-43.8,157.6
			c8.3,37.9,37.8,63.8,71.8,65.7c31,1.7,51.5-16.7,64.7-59.4c8-26,13.8-52.7,22.5-78.4c17.4-51.6,57.6-78.6,112.1-76.7
			c55.7,2,94.6,33.1,126,75.5c9.5,12.7,15.4,17.5,29.9,4.6c21.7-19.3,45.6-36.4,69.8-52.7c12.8-8.6,13.8-14.2,3.3-25.5
			C1898.8,789.8,1820.6,748.2,1732.8,745.7z M1370.3,788.6c-21,57.8-55.4,99.7-111.7,119.5c-104.1,36.6-212.1-28.7-230.7-138.7
			c-1.7-10.3,1.6-25.5-18.4-13.1c-69.9,43.4-101.5,146.6-66.6,219.4c7.9,16.5,17.6,25.3,38,26.9c104.3,8.3,208.6,18.5,301.7,73.3
			c10.2,6,15.4,1.2,21.7-5c31.1-30.7,57.8-64.7,74-105.7C1401.6,906.6,1403.6,848.5,1370.3,788.6z M2528.6,1118.3
			c-118.9-3.5-234,88-253.4,203.7c-9.7,57.8-0.4,111.3,50.7,149.1c17.7,13.1,38.8,24.2,60.3,13.4c22.3-11.2,21.8-34.6,22.1-56.9
			c0.4-30.2-9.3-59.7-4.4-90c17.2-106.8,139.7-171.3,239.4-124.5c69.7,32.7,108,88,111.1,166.5c0.5,12.5-3.8,32.2,16.9,33.1
			c21.3,1,27.8-16.1,29.9-34.1c0.8-6.4-0.2-13.1-1.1-19.6C2780.5,1229.1,2659.7,1122.1,2528.6,1118.3z M1235.9,2547.5
			c24.5-16.1,34.3-38,40.9-61.7c16.5-58.9,11.6-119.5,13-179.5c0.6-25.6,0.1-51.2,0.1-82.5c-95.2,58.9-193.6,84.2-291.7,109.8
			c-76.8,20.1-81.5,26-69.8,105.8c1.2,8.4,2,16.9,4.3,25c12.2,43.8,35.3,77.6,82.4,91.2c6.7-104.2,33.7-147.1,94-151.4
			C1172.5,2399.6,1216.6,2448.4,1235.9,2547.5z M448.2,708.6c-11.3,0-22.6,0.3-33.9-0.1c-15.8-0.5-17.7,3-16,21
			c3.7,38.7,14.2,66.4,58,70c6,0.5,11.9,5.5,17.2,9.4c21.9,16.5,35.7,38,27.7,65.7c-7.9,27.4-31.8,31-56.9,31
			c-59.3,0-67.3,12.9-43.5,68.3c2.6,6,5.6,11.9,8.9,17.6c10.9,19.1,23.9,30.3,49.6,27c49.3-6.4,99.2-9.1,148.9-12
			c49.9-2.9,55.7-9,50-59.1c-0.7-6.5-0.2-14.8-3.9-19.1c-34.9-40.2-27.2-86.9-22.6-133.5c0.9-9.2-1.8-18.7-2.7-28
			c-1.1-11.3-6.8-17.2-17.4-22.7C560.1,717,505.4,707.2,448.2,708.6z M1915.6,2539.7c-10.5-26.7-28.7-39.5-49.7-48.1
			c-19.9-8.2-40.7-14.2-61.4-20.5c-60.2-18.2-121.3-33.7-178.2-61.6c-82.7-40.6-139.3-103.6-169.3-191
			c-35.8-104-26.4-209.7-13.4-315.5c2.4-19.3,0.7-32.5-25.4-41.8c0,36.3,1.1,69.9-0.2,103.4c-2.3,56-12.3,110.7-40.6,159.7
			c-12,20.8-13.6,39.6-7.2,61.4c55.3,187.5,176.7,304.2,369.6,342.4C1796.2,2539.3,1854.2,2536,1915.6,2539.7z M2661.3,2222.7
			c-8.5,4.5-15.6,8.6-22.9,12.2c-19.8,9.6-58,47.5-68.4,68.1c-19.5,38.7-58.4,56.3-95.8,43.2c-33.6-11.7-51.7-52.5-41.1-94
			c3.6-14.2,9.2-27.9,15.2-46c-6.5,4.9-9.6,6.7-12,9.2c-3.8,4.1-8.2,8.2-10.6,13.1c-35.6,74.1-37.7,150.1-8.8,226.3
			c8.1,21.3,25.2,37.4,51.4,38.1c35.8,1,71.4-0.5,106.7-7c46.2-8.4,81.6-29.5,99.6-76.4C2699.7,2344.8,2685.7,2284.3,2661.3,2222.7z
			 M1278.2,1815.2c-16.5,8.4-27.9,14.9-39.9,20.3c-36.8,16.4-42.1,35.3-17.5,67.3c13.5,17.6,23.5,35.6,21.9,59.1
			c-2.9,41.8,22.2,66.5,69.3,70c54.2,4,62.7-2.6,68.2-53.2c0.5-4.7,1.5-9.3,1.7-14c2.9-59.1,11.4-119.6-2.4-176.9
			c-13.9-57.8-17.2-113.1-0.3-169.4c7.3-24.3,3.3-48.5,4.8-72.8c0.7-11.1-6.2-14.3-14.8-17c-35.9-11.1-82.7,4.2-109.5,36
			c-27.4,32.6-34.5,79.6-16.9,113.6c10.4,20,26,34.5,49.6,27.6c21.8-6.3,24.3-26.4,23.3-46.3c-0.3-5.6-0.8-11.4-2.5-16.7
			c-5.7-17.4,8.8-14.5,17.3-17.6c9.5-3.5,15.2-1.7,18.5,9.5c12.1,40.8-1.9,80.7-37.4,102.8c-16,10-17.3,41.8-4.1,54.2
			c7.4,7,17.8,19,11.1,28.8c-18.4,26.9-5.6,50.4,4.2,74.5c7.7,19.1,17.7,37.6,17.2,58.9c-0.2,7.5,4.2,19.2-9.3,18.8
			c-10.1-0.3-24.2,2.7-25.5-14.6c-1.2-16.2-8-30.7-14.4-45.4C1277.7,1882.6,1265.2,1852.2,1278.2,1815.2z M1981.6,2345.3
			c-52.1,6.4-88.8,3.6-125.4,1c-141.8-9.8-233.7-96.2-253-235.8c-8.4-60.8,1.6-120,9.7-179.6c0.9-6.4,7.5-14.4-3.3-19.4
			c-17.2-7.9-39.6,2-42.9,20.4c-6,33.3-13.5,66.6-16,100.2c-7.3,95.5,8.6,184.5,84.1,252.6c39.9,36,87.8,58.5,139.1,72.1
			c75.3,20.1,151.5,37,227,56.3c28.6,7.3,58.9,17.8,72.2,45.2c13.7,28,32.1,27.4,55.8,22.1c6.4-1.4,13-2.3,19.6-2.6
			c8.1-0.4,11.9-4.3,12.1-12.2c1.6-62.2-12.5-118.5-92.6-120.2C2034,2344.7,2000.1,2345.3,1981.6,2345.3z M1652.1,1923.5
			c-11.1,47.3-15.1,94.2-15.2,141.2c-0.5,140.6,68.4,221.3,207.7,243c66.5,10.3,133.3,3.3,200.1,0.7
			c95.4-3.8,139.9,34.5,151.6,127.9c5.6,44.5,5.8,43.9,49.3,55.5c14.4,3.8,18.3-0.4,19.4-13.7c3-37-0.2-73.4-10.2-109
			c-15.3-54.8-51.2-88.7-106.5-101.5c-42.7-9.9-86-7.6-129.2-3c-45.8,4.9-91.6,10.9-137.9,8.2c-150.6-8.7-248.2-153.3-198.1-293.6
			c12.9-36.2,12.9-36.2-23.2-53.3C1658.2,1925.1,1656.4,1924.8,1652.1,1923.5z M765.4,998c0-0.5,0-1.1,0-1.6
			c21.6,0,43.3-0.4,64.9,0.2c11.4,0.3,16.4-3.6,18.3-15.5c5.6-35.3,12.6-70.9,8.7-106.5c-9.8-90.9-61.7-161.6-181.7-122.7
			c-6.3,2-10.9,4.3-9.5,11c9.9,47.1-20.3,98.8,17.6,143.3c7.7,9,7.8,24.7,10.8,37.5c4.3,18.5-11.6,45.1,4.4,54.3
			c15.3,8.8,40.2,0.9,60.9,0.4C761.7,998.3,763.5,998.1,765.4,998z M1467.3,2040.6c-5.1,203.4,79.2,318.8,273.6,373.6
			c38,10.7,75.9,21.6,113.4,33.9c46.4,15.2,86.5,38.7,99.4,90.6c3.1,12.5,12.3,12.8,20.7,15.6c10,3.3,12.6-5,16.3-11.6
			c10.6-19.1,27.6-30.8,47.3-38.3c17.4-6.6,15.7-15.8,5.7-27c-12.9-14.5-29.8-23.1-48-28.4c-22.5-6.6-45.3-12.6-68.1-17.9
			c-75.9-17.8-153.3-30-225.4-61.9c-124.4-55-185-151.5-188.5-286c-1.3-49.2,2.8-98,15.8-145.4c10.4-38-21.9-27-36.8-32.2
			c-21.6-7.5-14.5,14.7-15.5,22.7C1472.3,1965.4,1470.3,2003.1,1467.3,2040.6z M666.6,2380.1c-23.2-1.3-53.4-2-83.3-4.9
			c-17.6-1.7-20.9,4.4-17.8,20.3c11,57.1,9.5,114.3-3.5,170.9c-3.2,13.8-1.9,19.2,13.5,17.4c60.9-7.2,121.3-17.6,175.8-47.3
			c43.9-23.9,66.5-85.2,49.5-129.5c-8.3-21.7-21.1-36.5-48.4-32.7C726.3,2378,699.8,2378.1,666.6,2380.1z M1180.2,705
			c-29.2-0.6-62.2,5.6-95.2,14.2c-19.3,5-24.4,15.3-23.2,34.3c4,64.7,55.4,119.1,122.4,127.5c65.2,8.2,127-32.5,148.7-95.9
			c8.4-24.6,4.6-40-20-51.9C1272.3,713.4,1229.9,704.4,1180.2,705z M872.7,1696.1c39.7-1.6,91-22.4,136.1-58.9
			c8.6-7,15.5-16.3,22.4-25.1c3.1-4,8.1-11.7,0.4-14c-20.6-6.3-41.7-11.1-62.8-15.3c-13-2.6-16.6,10.5-23.6,17.2
			c-32.9,31.8-76.4,40.7-116.9,23.3c-42.2-18.2-72.1-58.4-64.1-102.2c6.3-34.1-6.9-49.9-31.9-64.2c-3.2-1.8-6.4-4.1-8.9-6.9
			c-18.2-19.8-25.8-9-33.3,10C645.3,1572.1,731.1,1696.2,872.7,1696.1z M281.6,1945.8c-0.1,34.7,5.1,68,21.7,98.5
			c24.5,45.2,42.2,47.7,80,14.7c11-9.6,10.8-14.1-0.2-23.1c-27.4-22.3-40.1-53.1-38.4-87.3c2.5-51.2,20.9-97.4,56-135.5
			c21.8-23.7,48.4-38.1,81.9-38.1c37.5,0,37.5-0.5,39.8-40.2c0.3-4.7,0.1-9.5,0.8-14.1c2.6-15.3-5.4-19.5-19.1-20.3
			c-28.7-1.6-56.5,1.5-82.8,13.2C320.4,1758.3,288.3,1844.5,281.6,1945.8z M146.6,1022c0,9.1-0.6,13.9,0.1,18.5
			c4.9,30,42,59.6,64.4,49.1c18.4-8.6,36.6-20.3,50.6-34.7c6.3-6.5,2.3-23.1,2.9-35.1c1-19,5.9-37.3,14.3-54.1
			c32.8-65.1,85.9-96.9,159-95.8c9.8,0.2,24.2,4.8,27.8-6.9c4.1-13.1-7.8-22-18.7-28.1c-20.3-11.4-42.4-14.8-65.4-11.7
			c-74.6,10-134.7,47.3-190.3,96.2C157.8,948.9,149.8,985.8,146.6,1022z M434.1,2589.4c24.3,0,45-1,65.6,0.3
			c15.5,1,21.5-5.6,24.8-19.6c12-50.9,16.4-102.1,8-154c-7.4-45.6-7.6-45-53.7-53.4c-58.8-10.7-117-24.3-158.5-72.2
			c-15.3-17.7-31.4-13.1-48.3-7.7c-15.4,4.9-32.2,11.6-33.3,30.2c-1.2,19.3,13.9,30.2,29.4,37.8c30.6,15,63.1,24.2,96.8,29
			c21.5,3.1,42.4,7.6,61.3,19.2c37.7,23.2,44.1,61.4,15,94.6c-4.9,5.6-11.9,9.2-6.4,18.6C449.1,2536.7,443.1,2561.5,434.1,2589.4z
			 M151.9,2346.1c0.3,57.1,19,82.3,71.3,104.1c54.5,22.8,112.7,18.3,169.2,26.4c13.2,1.9,24.7-5,29.5-17.4
			c5.4-14.2-5.1-22.7-15.5-29.8c-16.2-11.2-35.6-11.1-53.9-14.9c-43.4-9-87.3-17.2-122.6-46.3c-41.5-34.3-36-85.3,11-111.2
			c11.6-6.4,24.2-10,37.1-13.1c19.9-4.8,7.1-19.8,7.7-30.1c0.8-13.3-8.7-11-17.6-9.4C204.8,2215.9,151.6,2280.7,151.9,2346.1z
			 M139.3,922.7c60.1-66.9,129.4-112.8,215-132.4c21.7-5,14.6-23.9,12.4-37.4c-2.7-16.7-3.9-41-27.2-39.1
			c-66.6,5.4-130.4,21.2-177.9,73.6C125.6,827.1,117.2,876.9,139.3,922.7z M1420.5,1519.2c29.5-45.8,54.8-86.1,81.2-125.7
			c26.4-39.5,53.9-78.1,79.6-115.2c-52.3,0-103.6,0-154.8,0c-9.4,0-13.6,3.7-12.3,13.7C1423.4,1365,1416.1,1438.5,1420.5,1519.2z
			 M381.2,1947.7c0.9,20,3.8,36.4,15,50.4c20.5,25.5,31.6,25.8,52.9,0.7c35.8-42.1,53.1-92.5,63.9-145.5
			c7.8-38.5-7.2-51.2-46.1-40.4c-14.9,4.1-27.8,11.7-38.1,23C399.2,1868.3,383.8,1906.8,381.2,1947.7z M1363.2,2065.6
			c-21,0.7-39.5,5.9-58,2.7c-18.6-3.2-37-7-53.3-17.3c-9.4-6-13.7,2-18.8,6.8c-38.3,35.6-54.4,109-34.8,157.2
			c2.9,7.2,4.7,15.1,15.5,10C1283.2,2191.6,1338.4,2145.2,1363.2,2065.6z M374.1,2587c16.6,1.4,16.8,1.3,24.6-12.5
			c19.6-34.4,5.7-61.2-35.9-64c-60.4-4.1-120.2-9.2-175.5-36.6c-11.3-5.6-15,0.3-18.2,9.4c-10.8,31,3.7,57.3,42.2,71.1
			C263.9,2573.1,318.6,2582.5,374.1,2587z M2164.7,2514.1c-9.4,0.5-18.8,0.6-28.1,1.6c-34.7,3.8-68.6,11.1-98.7,29.3
			c-24.2,14.6-23,24.9,1.7,37.4c127.1,64.2,139.9,34.9,203.8-30.3c1.3-1.3,2.7-2.6,4.2-3.7c11.3-8.5,8.8-14.3-3.3-19
			C2218.8,2519.3,2192.2,2514.3,2164.7,2514.1z M1119.9,2570.4c19.8,1.3,39.4-0.1,59.2-2.1c14-1.4,20-6,18.9-20.8
			c-2.2-30.9-10-59.5-31.3-82.8c-17.7-19.4-40.2-28.3-66.3-22.1c-24.5,5.8-36.9,24.7-43.6,47.5c-2.6,9-3.9,18.5-4.7,27.8
			c-4,45.2-1.8,47.8,42.3,50.9C1103,2569.4,1111.5,2569.9,1119.9,2570.4z M1087.8,1606.2c-107.3,121.2-229.6,183.5-374.4,69.7
			c-88.2-69.3-89.2-167.5-39.7-267.7c-13.4,4-14.8,13.1-18.1,20.1c-27.5,58.6-31.5,119.8-16.1,181.9c11.6,46.6,38.5,83.5,79.7,109
			C843.3,1795.7,1025.7,1741,1087.8,1606.2z M810.7,1466.4c43.3,34.3,45.1,34.4,81.4-2.5c22.5-22.9,42.7-47.9,58-76.1
			c8.7-16.1,28.3-35.1,19.1-49.8c-11.8-18.8-39.3-18.7-62-20.4c-1.9-0.1-3.8,0.1-5.7,0c-7.6-0.3-12.4,2.7-14,10.6
			C876.8,1382.3,848.8,1427.3,810.7,1466.4z M1421.4,959.1c-19.4,50.6-48.3,94-86,131.5c-9.9,9.8-15.2,21,2.7,23.6
			c62.5,9.2,125.4,16.6,193.6-3.5C1447,1090.4,1422.1,1033.7,1421.4,959.1z M425.3,1299.5c-26.6-0.5-44.9,21.1-40.6,48.5
			c2.8,17.5,12.3,31.5,26.1,42c30.6,23.3,67,33.2,104,38.3c18,2.5,25.2-10.5,15.8-27.4c-17.8-32-38.3-62.3-66.9-85.8
			C452.8,1306.1,440.3,1299.2,425.3,1299.5z M2718.6,1389.9c0.3-67.8-30.3-114-87.2-142.6c-51.6-26-100-17-144.6,18.5
			c-50.4,40.1-53.8,92.4-40.8,151.2c17.3-9.9,23.7-19.5,19.6-40.7c-10.8-56.9,29.2-111.5,84.3-120.7c58.1-9.7,114.7,25.2,121.2,82.3
			C2674.9,1369.8,2690.9,1380.6,2718.6,1389.9z M1374.1,1163.2c2.9,1.8,5.9,5.2,8.8,5.1c65.6-2.6,131.7-0.6,195.8-18.2
			c26.4-7.3,46-23.6,61.1-46.7c25.4-39,40.6-82.2,56.3-125.4c16-44.1,58.1-57.4,98.3-33c12.2,7.4,21.8,17.7,30.6,28.9
			c3.6,4.6,5.6,14.2,14.3,8.3c9.2-6.2,3-13.1-1.2-19.1c-16.4-23.3-35.3-44.1-61.1-57.3c-25.3-13-51.5-17-78.9-6.2
			c-13.7,5.4-19.5,12.6-17.6,29.6c12.9,111.2-63.1,207.6-174.1,225.3C1462.6,1161.4,1418.8,1157.5,1374.1,1163.2z M893.4,1512.5
			c27.1,22.5,49.8,19.4,73.2,0c18.2-15,36.2-30,51.2-48.3c30.8-37.4,26.4-67.6-15.3-98.5C976.7,1422,940.7,1470.9,893.4,1512.5z
			 M1651.9,1152.4c15.3-16.3,40.1-14.8,55.1-31.3c29.1-32.1,58.9-63.4,88.4-95.1c4.9-5.2,13.1-9.8,7.7-18.8
			c-10.8-17.8-21.8-35.3-46.1-36.9c-24-1.6-26.6,17.5-31.7,32.8C1707.9,1056.2,1685.9,1106.7,1651.9,1152.4z M837.2,1328.7
			c-27.8,8.3-54.7,23-79,42.8c-39,31.8-39,31.9,1.9,61.4c7.8,5.6,15.2,16,26.5,5c27.9-27.3,48.9-59,59.9-96.7
			C848.1,1336.1,851.9,1327,837.2,1328.7z M353.5,931.4c-28.8,19.6-42.4,44.4-49.8,73.3c-8.9,34.7-7.3,36.2,28,29.4
			c12-2.3,24-4.4,36.1-6.1c12.3-1.8,20.3-4.5,10.2-19C362.7,986.9,357.7,961,353.5,931.4z M2467.2,2270.2
			c-0.9,28.8,10.9,44,31.6,43.9c23.5-0.1,51.2-28,46.1-54.4c-5.2-26.7-37.9-26.9-56.1-29.9C2468.4,2226.4,2472.5,2257,2467.2,2270.2
			z M1050.8,1481.6c-22.2,26.7-43.9,45.7-67.9,63.9c75.3,25.4,71.2,26.5,71.9-47.6C1054.8,1494.5,1053.2,1491.1,1050.8,1481.6z
			 M2562.3,1292c27.8,6.6,48,20.2,50.9,51.4c1.2,13,11.6,15.6,20.4,12.3c11-4,2.1-12.7,0.2-18.7
			C2623.7,1305.2,2600.5,1290.5,2562.3,1292z M1492.2,1233.8c45-0.2,91.8,12.2,133.8-10.7c-0.4-2.7-0.7-5.4-1.1-8
			C1580.7,1221.3,1536.5,1227.6,1492.2,1233.8z M2536.2,1301.9c-23,10.2-32.7,28.7-35.8,51c-1,6.9-3.6,17.5,6.9,18.1
			c9.1,0.5,14.1-7,12.9-17.6C2518,1334.3,2522.8,1316.9,2536.2,1301.9z M894.7,948.8c-10.3,12.1-7.1,26-9.6,38.3
			c-2.3,11.6,7.7,10.5,14.8,10.7c12.9,0.3,9.8-7.2,6.9-14.9C902.7,972.1,899,961,894.7,948.8z"/>
		<path class="st0" d="M2512,1058.2c-96.5,0.6-172,41.1-227.7,119.6c-24.5,34.5-47.9,69.9-74.3,102.9
			c-40.5,50.5-89.8,88.1-157.3,95.2c-14.3,1.5-28.4,0.7-42-2.7c-8-2-24.1,0.9-18.6-16.5c3.8-11.8,5.2-23.4,26-19.1
			c53.8,11.3,96.7-14.5,135.2-48.6c33.4-29.7,58.7-66.5,81.5-104.1c124.3-204.6,349.2-194.9,503.2-88.7
			c40.5,27.9,77.1,60.3,109.6,97.1c7.5,8.5,22.2,15.5,4,30.6c-16,13.3-21.3,4.3-30.8-6.2c-64.4-70.9-138.3-127.1-233.6-150.2
			C2562.6,1061.5,2537.6,1058.1,2512,1058.2z"/>
		<path class="st0" d="M1772.1,1481.4c112.4,4.9,203.1,43.6,272.9,126.3c6.1,7.2,19.6,14.8,3.2,27c-13,9.7-22.3,12.4-30.7-4.2
			c-7.6-15-19.5-10.5-31.4-6.6c-40.2,13.1-81.1,16.7-121.9,4.6c-38.3-11.4-65.4-36.3-80.1-73.7c-15.3-38.6-15.1-39.2-56.9-31.8
			c-12.1,2.2-21.5,5.2-25.3-11.3c-3.1-13.6-1-22,14.1-23.7C1736.6,1485.5,1757.2,1483.1,1772.1,1481.4z M1971.7,1586.8
			c-41.1-33.1-87-52.5-137.2-62.5c-6.2-1.2-13.7-6.1-18.5-0.1c-5.4,6.7,0.3,14.1,3.3,20.8C1842,1596.2,1910.3,1615.7,1971.7,1586.8z
			"/>
		<path class="st0" d="M2109.2,1534.6c9,3.1,22.7-10.4,29.3,9.5c5.6,16.6,3.7,24.2-14.4,26.3c-50.1,5.9-91.8-14.3-131-42
			c-15.3-10.9-30.3-22.4-44.3-34.9c-36.9-32.7-79.8-52.2-127.7-62.3c-32.5-6.9-63.2-18.3-89.3-39.7c-37-30.4-45.8-76.2-22.1-113.1
			c6.8-10.6,15.4-18.9,27-24c11.2-4.9,27-11.4,32.6-0.3c4.9,9.9,2.2,25-15.7,33.2c-26.3,12-27.8,46-5.8,69.5
			c17.2,18.4,39.4,29.4,63.7,34c75.5,14,137.8,52.1,194.9,101.7C2035.2,1517.5,2068.3,1535,2109.2,1534.6z"/>
	</g>
</g>
</svg>
