<?xml version="1.0" encoding="utf-8"?>
<!-- Generator: Adobe Illustrator 23.0.0, SVG Export Plug-In . SVG Version: 6.00 Build 0)  -->
<svg version="1.0" xmlns="http://www.w3.org/2000/svg" xmlns:xlink="http://www.w3.org/1999/xlink" x="0px" y="0px"
	 viewBox="0 0 3000 3000" style="enable-background:new 0 0 3000 3000;" xml:space="preserve">
<style type="text/css">
	.st0{stroke:#000000;stroke-width:10;stroke-miterlimit:10;}
</style>
<g id="Layer_1">
</g>
<g id="Layer_2">
	<g>
		<path class="st0" d="M1763.1,2914.7c-51.6,18.9-104.1,32.4-158.3,39.4c-160.4,20.7-309.3-11.5-443.6-102
			c-131.4-88.5-203.4-212.4-214.9-371.5c-10.9-149.6-1.6-298.6,11.7-447.5c13.3-148.9,38.2-296,69.1-442.2
			c2.4-11.3,1.7-21.8-1.2-32.6c-64.8-245.5-81.4-495.3-67.1-747.9c5.3-93.8,9.2-187.8,34-279c56.3-206.9,194.1-338.7,388.7-415.8
			c165.8-65.8,330.6-57.5,493.3,13c7.2,3.1,14.1,6.8,26.3,12.6c-26.5,2-47.4,4.5-68.3,4.8c-11.5,0.2-19.2,4.6-26.9,12.3
			c-155.4,154.3-229.7,340.2-222,559.6c5.7,164.1,15.2,328,15.6,492.3c0.1,34-0.3,68.1-1.6,102c-0.6,15.3,2,20.4,19.5,17.2
			c60.6-11.2,121.6-16.2,182.7-2.1c44.3,10.2,83.4,30.2,116.1,61.6c76.2,73.3,70.3,195.5-12.1,270.1c-54,48.9-118.9,69.8-189.7,76.6
			c-38.4,3.7-76.8,3.7-115.2,0.5c-12-1-16.7,2.2-17.5,15.2c-10.8,170.4-34,339.6-51.2,509.4c-21,207.4,2.9,407,97,595.6
			c7.2,14.4,15.7,24,31.5,27.8c30.1,7.3,60,15.4,90.1,23.1C1753.7,2908.3,1759.4,2907.4,1763.1,2914.7z M1557.9,2841.2
			c1.3-10.8-4-17.4-7.1-24.6c-49.2-114.7-76-234.2-80.6-359c-5-138.8,13-276,28.7-413.3c17-149.1,31.2-298.5,37.7-448.4
			c12.5-291.3,6.3-582.5-6.7-873.7c-8.7-195.6,44.4-372.6,169.3-525.9c9.1-11.2,18.1-22.5,28-34.7c-3.7-0.3-5.3-0.7-6.6-0.4
			c-11.5,2.6-23.1,4.9-34.5,8.1c-179.7,50.7-310.6,154.1-365.3,339.3c-22.2,75.1-26.6,152.6-29.7,230.3
			c-11.3,280.6,13.2,556.8,102.2,824.9c5.9,17.8,5.4,33.4-0.4,51.2c-89,272.6-118.7,552.4-99.5,837.9c5.6,84.2,31,162,80.5,231.4
			C1422,2751.7,1483.9,2802.3,1557.9,2841.2z M1596.2,1535.9c-1,0-2,0-3,0c-2.1,42.8-3.7,85.6-6.5,128.3
			c-0.9,13.3,2.4,18.5,16.5,18.2c33.2-0.8,66.6,1.5,99.6-0.8c64.8-4.5,125.4-21.8,171.9-70.7c55.8-58.7,54.3-139.9-2.6-188.6
			c-24.5-21-52.6-35.1-84.3-42.1c-58.3-12.9-115.9-4.6-173.8,3.5c-14.8,2.1-18.1,8.5-18,21.5
			C1596.4,1448.8,1596.2,1492.4,1596.2,1535.9z"/>
		<path class="st0" d="M1678.2,2375.1c1.4-87.7,73.1-157.5,159.9-155.7c86.2,1.8,156.4,73.7,155.2,158.8
			c-1.2,88.7-72.7,157.8-161.6,156.3C1745.5,2533.1,1676.8,2461.8,1678.2,2375.1z"/>
		<path class="st0" d="M1722.7,609.4c0.9-87.7,72.2-158,158.9-156.7c86.1,1.3,156.5,72.5,156.1,157.9
			c-0.4,88.4-72,158.5-160.6,157.2C1790.5,766.7,1721.8,696.2,1722.7,609.4z"/>
	</g>
</g>
</svg>
