<?xml version="1.0" encoding="utf-8"?>
<!-- Generator: Adobe Illustrator 23.0.0, SVG Export Plug-In . SVG Version: 6.00 Build 0)  -->
<svg version="1.0" xmlns="http://www.w3.org/2000/svg" xmlns:xlink="http://www.w3.org/1999/xlink" x="0px" y="0px"
	 viewBox="0 0 3000 3000" style="enable-background:new 0 0 3000 3000;" xml:space="preserve">
<style type="text/css">
	.st0{stroke:#000000;stroke-width:10;stroke-miterlimit:10;}
</style>
<g id="Layer_1">
</g>
<g id="Layer_2">
	<g>
		<path class="st0" d="M865.7,2647.4c0,47.2,0.2,92.2-0.1,137.3c-0.1,17.1,7.2,39.1-3,50c-10.4,11.1-32.7,3.4-49.7,3.5
			c-84.9,0.4-169.9-0.6-254.8,0.7c-20.4,0.3-24.4-6-23.4-24.9c1.8-34.3,0.5-68.8,0.5-105.1c-88.6,44.8-179.9,54.6-273.5,18.3
			c-59.5-23.1-106.4-62.2-140.6-116.5c-76.7-121.8-68.5-276.2,21.1-384.4c50.2-60.5,114.5-96.6,192.4-108.1
			c76.9-11.4,148,5.8,220.6,48.7c0-48.9-0.5-92.7,0.1-136.5c0.9-61.9,2-123.9,4.2-185.8c0.6-15.3-2.4-17.9-17.5-15
			c-181,34.6-345.8-72.6-387.4-252.3c-45.9-198.3,96.3-375.4,290.2-393.8c39.9-3.8,79.2-1,117.7,9.4c11,3,14.7,1.6,15-10.3
			c2.6-119.4,5.5-238.7,8.4-358.1c0-1.9-0.5-3.8-1-7.3c-31,10.2-61.8,19.5-94.2,23C347,855.9,231.4,769.6,207.5,626.3
			c-12.3-73.6-13.1-148,2.2-221c25.2-120.2,116.5-196.9,239.1-206.7c46.3-3.7,91.9-1,136.8,10.6c12.2,3.1,18.2,1.4,16.7-12.3
			c-0.1-0.6,0-1.3,0.1-1.9c1.9-16.9-5.7-38.7,5.9-49.5c10.7-10,31.7-2.9,48.2-3c100.3-0.3,200.5,0.2,300.8-0.5
			c15.4-0.1,21.7,3,20.6,19.8c-0.9,13.4-7.4,32,3,39.3c8.8,6.1,24.8-5,37.6-8.8c263.5-77.4,532.6-119.8,807.1-126
			c140-3.2,279.4,7.1,418.4,24c108.3,13.2,216.6,25.9,323,51.2c34.8,8.3,68.9,18.7,102.6,30.5c90,31.4,148.9,93.2,181.6,181.6
			c23.4,63.3,33.1,128.3,23.3,195.6c-14.3,98.3-65.4,153.7-163.6,174.7c-83.6,17.9-167.4,14.4-251-1.5c-23.2-4.4-46.5-8.3-70.3-6.4
			c-18.6,1.5-32.6,10.1-42.4,25.8c-5.9,9.5-9,15.7,7.8,17.5c72.6,7.8,143.1,24.6,210.7,53.3c191.2,81.1,299.5,224.8,327.4,430.2
			c10.2,74.9,11.2,150.3,11.5,225.5c0.7,187.1-0.1,374.2-0.9,561.4c-0.2,40.2-2.2,80.5-8.2,120.3c-8.2,54.1-30.2,102.8-62.5,146.4
			c-28.9,39-35.7,81.5-30.1,128.6c6,50.6,11,101.6-4,152c-32.7,110.3-106.1,186.1-204.9,238.9c-75.1,40.1-156.8,60.3-241.2,69.7
			c-161.3,18-323.5,21.3-485.3,30.7c-132.5,7.7-265.1,14.8-397.8,20.7c-96,4.2-191.5,0.1-284.6-27.4
			c-134.6-39.8-234.7-122.8-304.6-243.6C877.3,2660.2,876.2,2652.7,865.7,2647.4z M2344.8,1463.8c-5.5,6-11,11.9-16.4,17.9
			c-5.6,0.5-8.8,4.5-12.2,8.4c-26.2,29.3-47.2,61.9-62.1,98.2c-33.8,82.4-38.9,168.4-31,255.9c1.3,14.9,8.6,24.4,23.1,29.4
			c31.6,10.9,64,17.6,97.3,19c30.9,1.3,61.3-1.2,89.8-14.5c33.4-15.6,47.1-40.2,38.6-76c-10.4-43.4-30.2-82.2-64.3-112.3
			c-4.1-3.7-4.4-7.3-4.9-11.5c-5.4-46.2,15.2-80.5,59-97.8c27.7-10.9,56.2-19.2,86.8-23.1c-40-42.5-43.3-81.5-10.4-109.9
			c27.2-23.4,69.8-20.1,92.7,7.5c15,18.1,18.7,39.1,12.5,61.2c-6.3,22.4-23.3,35.8-46.7,45.4c32.1,12,52.2,32.8,68.7,57.7
			c14.4,21.8,29.1,43.5,44,65c82.3,119,77.9,257,0.4,354.7c-9.5,12-3.3,15.1,7.3,16.7c38.2,5.7,76.3,2,114.6,0
			c20.9-1.1,25.8-8.8,25.7-28.6c-0.2-156.5,0.6-312.9,1.1-469.4c0-5.7,0.5-11.4-2.9-16.6c-23.2-35.4-46.8-70.8-87.4-88.6
			c-76-33.2-154.7-56.2-238.5-55.1C2460.6,1398.3,2397.2,1416.2,2344.8,1463.8z M2218.3,2850.7c-6.4-4.1-8.4-5.6-10.5-6.8
			c-116.9-63.8-172.1-180.3-147.6-310.5c14.4-76.6,49.8-141.5,106.8-194.5c6.8-6.4,12.5-10.5,4.6-21.6
			c-34.9-48.9-57.8-103.7-69.7-162.4c-17.5-86.1-7.5-168,54.7-234.5c20.8-22.2,27.1-38.1,22-69.5c-13.5-82.6-6.6-165.6,19.9-245.8
			c36.8-111.3,104.1-195.3,217.6-235.7c69.3-24.6,140.4-24.2,211.6-9.8c63.9,12.9,126.6,30.1,183.6,63.3c16.9,9.8,30.2,24.4,43.4,37
			c0-39,0.4-77.1-0.1-115.2c-0.8-64.8-10.6-128.4-28.7-190.5c-43.1-147.7-144-241.6-282.3-299.9c-100-42.2-205.5-55.6-312.6-56.7
			c-133-1.5-265.4,9.2-396.6,31.2c-93.4,15.7-181,46.8-256.5,107.5c-47.4,38.1-84.1,85.4-122,131.8c-7.3,8.9-20.6,16.9-21.2,25.9
			c-0.6,9,10.8,19.3,18.1,28c7.7,9.2,5.5,14-3.4,21c-22.3,17.6-35.5,41.5-41.7,69.1c-10.7,48.4,8.3,76.1,57.3,84.5
			c14,2.4,28,2.6,42,0.9c44.4-5.6,87.7-15.8,130.9-27.5c78.8-21.4,157.5-43.7,240.9-32.5c74.4,10,136.8,39.6,178.6,104.8
			c7.2,11.3,15.1,22.2,23.3,32.8c19.1,24.9,38.6,29.8,67.2,18c27.3-11.3,49-29.6,66.1-53.5c35.2-49.1,46.8-105.5,49.3-164.4
			c1.2-26.9,0.8-27,27.8-28.5c1.3-0.1,2.6,0.1,3.8-0.2c13.3-3.3,16,2.9,15.8,15.1c-0.5,28.8-2.7,57.5-8.5,85.6
			c-13.8,66.8-41,126.2-98.3,167.5c-9.9,7.1-15.9,15.2-20,26.6c-33.9,95.5-77.6,185.9-141.8,265.4
			c-56.8,70.3-123.7,125.3-215.7,141.6c-13.8,2.4-8.5,10.9-5.7,16c18.5,33.1-0.8,76.2-25.5,93.2c-29.7,20.4-69.1,18.2-96.7-7.4
			c-6.9-6.4-10.6-7.3-19-1.8c-36.3,24-77.5,18.1-104.4-14.9c-6.7-8.2-10.8-8.6-19.9-4.1c-32.2,15.8-67.9,8.7-91.1-16.6
			c-23.1-25.2-27-60.9-8.5-92.1c6-10.1,4.3-12.8-5.9-17.1c-33.6-14.2-66-30.9-90.6-59.1c-5.6-6.4-8.3-5.6-11.6,2.1
			c-10.6,24.6-27,44.7-49.6,59.3c-5.7,3.7-7.1,8.1-6.2,14.5c8.1,58.9,20.9,116.7,40.4,172.9c10.1,29.2,31.4,41.2,61.5,42
			c118.7,3.5,237.4,6.9,356.1,11.7c47.7,2,95.7,2.1,143.1,10.8c75.2,13.7,126.2,64,138.2,139.3c10.2,64,4,127.4-8.2,190.3
			c-38.5,198.9-152.5,260-308.3,291.4c-68.3,13.8-138.6,8.8-208.2,8c-36.7-0.4-72.2-6.9-107.2-16.6c-33.7-9.3-57.8-39.2-60.6-71.7
			c-2.4-27.5,14.8-52.4,49.2-68.3c19.6-9,40.1-16.3,60.5-23.7c30.6-11,61.7-20.8,90.7-35.7c35.3-18.1,66.1-41.6,83.6-78.5
			c18.4-38.9,6.6-89.9-28-103.8c-22.9-9.2-19.9-22.8-19.1-39.7c0.5-11.8,3.9-15,16.3-12.2c62.3,14,101.5,88.5,81.1,155.1
			c-11.1,36-33,64.3-61.7,88c-38.2,31.5-83.5,48.6-129.4,64.7c-27.1,9.5-54.5,18.2-80.1,31.3c-19.7,10.1-21.3,27.5-3.9,40.8
			c14.6,11.1,32.5,18.1,50.2,15.5c65.3-9.8,128.6-26.7,184.8-63.5c43.9-28.7,73.5-67.8,88.2-118.5c18.8-64.9,19.9-129.6-0.8-194.1
			c-4.1-12.6-0.7-17.3,10.9-19.7c4.3-0.9,8.8-2.3,12.6-4.5c14.7-8.8,19-1.1,22.8,12.1c16.4,56.1,19.7,113,11,170.6
			c-14.3,94.6-61.3,166.3-147.7,210.3c-6.6,3.4-13.1,6.9-24.3,12.8c39.5,0.5,73.2-3.6,107.1-7.8c33-4.1,57.2-20.7,76-46.4
			c12.8-17.5,23.2-36.6,31.1-56.9c35.3-90.7,23.2-179.1-13.1-266.1c-13.4-32.2-13.9-31.8,17.8-45.6c7.9-3.4,12.4-4.2,16,5.4
			c6,16.1,14.1,31.4,19.9,47.6c31.2,88.5,39.7,177.8,5.9,267.8c-5.7,15.2-12.8,30-19.8,46.1c8.6-0.8,13.1-5.5,18-8.9
			c45.1-31.3,75.4-73.9,93.5-125.3c24.9-70.7,34-144,30.4-218.6c-3.4-68.9-35.8-109.2-96.9-123.1c-24.9-5.6-50.3-8.6-75.9-9.5
			c-128.9-4.1-257.8-8.4-386.7-12.8c-19.8-0.7-39.8-0.6-59.2-3.7c-52.9-8.4-76.5-46.6-89.6-93.4c-13.1-46.6-26.3-93.2-31.6-141.5
			c-1.2-11-3.6-15.9-17.6-14c-50.1,6.5-99.9-1.7-129.1-44.8c-26.2-38.7-56.4-46.5-97-38.2c-0.6,0.1-1.3,0.1-1.9,0.1
			c-9.9-0.7-14.3,2.8-15.6,13.7c-3.6,30.8-16.8,57.1-40.8,77.5c-2.2,1.9-5.6,3.5-4,7.9c32.5,1.4,64.6,6.2,95.8,16
			c31.6,9.9,63,20.5,93.5,33.6c107.4,46.2,165.7,127.7,174.8,244.3c0.3,4.4-0.5,9,3.1,12.6c19.4,19.6,20.3,43,12.8,67.6
			c-3.4,11.2,0.6,13.1,10.8,12c21.6-2.3,43.2-2.1,65-0.1c30.8,2.8,54.5,16.2,71.4,42c11.9,18.1,24.2,36,35.8,54.3
			c17.5,27.8,16.3,28.8-15.1,35.8c-13.6,3-19.8-0.6-26.2-12.1c-9.6-17.2-21.7-33-32.3-49.7c-9.6-15.2-22.5-23.5-41-23.5
			c-49.8,0.2-98.6-3.9-145.1,26.2c-49.2,31.7-107.6,25.8-163.8,22.1c-47.7-3.1-95.5-7.8-142.3,8.6c-38.9,13.6-63.5,39.3-71,80.2
			c-9.1,50,2.9,97.4,17.5,146.1c7.1-10.9,7.5-22,10.4-32.3c12.6-43.8,35.2-80.5,75-104.8c29.7-18.1,62.4-25.8,96.7-26.6
			c52.3-1.3,104.7-1.6,157-2.6c39.4-0.7,58.2-15,69.3-52.7c2.5-8.5,4.2-17.4,5.8-26.1c5.4-29.3,5.3-29,35.8-27.1
			c9.3,0.6,13.9,2.3,13,13.1c-5.2,66.2-29.8,144.4-135.8,140.8c-44-1.5-88.1-0.5-132.2,0.6c-43,1.2-84.4,8.7-113.4,45.2
			c-47,59.4-46.7,163.1,1.2,221.9c51.4,63.1,114.7,110.1,191.1,139.5c87.5,33.7,178.8,39.9,271.1,39.1
			c90.7-0.8,181.1-7.7,271.6-12.8C1873.1,2868.5,2043.3,2859.9,2218.3,2850.7z M969.3,681.2c30.1-9.3,59.9-17.9,90.4-23.2
			c8.4-1.5,8.8-7.4,9.3-14.2c2.4-28.7,7.6-57,15.7-84.6c32.8-111.8,98.5-191.8,216.2-220.8c40.4-9.9,81.3-16.4,122.6-20.7
			c128.4-13.3,257.3-13.4,386.2-13.1c142.4,0.4,284.9,2.2,426.7,17.2c65.4,6.9,130.3,16.5,192.6,38.9
			c120.3,43.2,146,151.6,136.7,250.3c-0.8,9-4.8,11-13.8,10.4c-34.9-2.2-33.5-1.7-32.1-37c3.5-82.7-24.7-155.7-119.4-183.7
			c-7.3-2.2-14.6-4.6-22-6.6c-79.3-21.9-160.8-28.3-242.3-33.7c-162-10.6-324.2-10.1-486.5-7.9c-100.2,1.4-200.3,6-299.5,22.7
			c-89.2,15-159.2,55.7-199.5,140.1c-16.7,35-26.2,71.8-32.1,109.7c-3.6,23.4-3.2,23.4,21,21.4c191.9-15.8,356.3,41.3,488.1,184.3
			c7,7.6,12.3,10,22.7,5.1c72.9-34.3,150.5-52.1,230-62c133.2-16.6,266.8-27.6,401.2-21.8c7.3,0.3,11.5-0.9,14-8.9
			c17.9-56,60.2-79.7,122-74c57.1,5.3,113.2,20.1,171,19.4c50.5-0.6,100.5-4.2,148.7-21.7c38.6-14,64.6-39.8,78.8-78
			c19.8-53.3,19.4-107.8,7.4-162.2c-15-68.1-41.3-130.8-99.6-173.8c-40.6-30-88.4-45-136.7-57.9c-115-30.6-233-44-350.7-58.4
			c-190.7-23.3-381.6-30.3-573.4-15.3c-228.1,17.8-451.1,60.8-669.8,127.2c-12.9,3.9-17.9,9.3-18.1,23.4
			c-1.5,104.7-4.1,209.4-6,314.2C968.8,617.4,969.3,648.6,969.3,681.2z M615.7,1490.7c0.1,0,0.2,0,0.3,0
			c-2.7,108.5-5.4,217-8.1,325.5c-3.5,142.4-6.8,284.7-10.6,427.1c-4.7,176.8-9.7,353.6-15,530.4c-0.4,13.2,3,17.5,16.7,17.4
			c67.1-0.6,134.1-0.7,201.2,0c15.2,0.2,19.3-4.4,19.3-19.4c0.4-85.6,2.1-171.1,2.6-256.7c0.2-29.9-5.1-59.8-2.6-89.9
			c5.2-63.7,45.4-114.9,106.4-133.8c36.9-11.5,74.7-15.1,113.5-13.4c46.4,2,92.8,9.9,139.5,2c36.7-6.3,68.4-21.3,89.8-52.7
			c19.7-28.7,15.4-43.7-17.4-54.9c-39.9-13.7-81.4-19.8-123.9-20.3c-31.3-0.4-58.9,5.6-81.2,30.2c-13.3,14.6-31,24.6-48.8,33.3
			c-18.1,8.9-37.2,13.6-57.5,8.5c-35.8-8.9-52.6-35.1-58.4-68.5c-14.6-83.2-21-167.1-20.2-251.6c0.4-42,17.6-75,51.9-99.3
			c15.9-11.3,24.5-26.9,26.8-46.5c1-8.6-0.8-12.4-9.5-15.2c-25.8-8.2-40.5-27.8-49.6-52.1c-6.9-18.6-10.2-38.2-11.4-58
			c-4.6-71.7,7-141.3,28.7-209.3c6.1-19.1,9.1-38.1,9.4-58.1c2.4-157.1,4.9-314.2,8-471.2c4.6-229.8,9.6-459.7,14.8-689.5
			c0.3-13-2.4-17.6-16.4-17.5c-82.4,0.7-164.8,0.6-247.2,0c-13-0.1-17.5,3.1-17.7,16.6c-1.4,78.5-3.7,157-5.6,235.6
			c-3.9,157-7.6,314.1-11.7,471.1C626.6,1103.9,621.1,1297.3,615.7,1490.7z M2102.2,2575.4c-0.3,167,117.5,251.9,240.3,256
			c104.4,3.5,199-30,282.8-90.7c73.3-53.1,124.7-122.2,135.7-215.4c4.4-37.1-4.1-73.8-5.8-110.7c-0.5-11-8.5-7.2-14.1-6.8
			c-127.7,10.8-255.2,8-382.5-5.8c-47.6-5.2-95.3-11.5-137-38.1c-8.7-5.6-13,0.4-17.9,4.9
			C2138.6,2428.2,2104.1,2501.7,2102.2,2575.4z M1396.7,1126.2c-71.3,48.4-151.6,70.6-234.5,84.6c-91.7,15.5-153.2,67.1-190.3,150.9
			c-29.2,65.8-49.3,134-55.1,205.8c-3,36.8-4.6,74,9.5,109.6c6,15.2,15.5,23.6,32.5,24.8c24.8,1.7,49.3-1.4,73.7-3.9
			c40.8-4.2,72.3,9,93.6,45.2c13.8,23.4,35.6,35.9,61.9,41c55.9,10.8,115.1-25.8,121.9-75.3c7.2-52.6-27.6-106.2-79.2-120.1
			c-10.1-2.7-12.7-6-11.4-16.5c4.6-36.8,5.1-37.5,40.8-23.6c18.1,7,33.9,17.6,47.9,31c3.3,3.2,5.5,9,12.4,7.5
			c7.2-76.2,18.2-151.8,32.4-226.9c7.2-38.5,20.4-76.4,6.4-116.1c-1.6-4.6-0.5-10.1-0.4-15.2
			C1359.9,1190.5,1374.7,1157.3,1396.7,1126.2z M539.7,2436.4c1.6,0,3.1,0,4.7,0c1.8-65.7,3.3-131.5,5.8-197.2
			c0.5-12.4-3.1-19.9-13-27.1c-85.3-61.9-202.3-67.4-292.7-13.2c-94.4,56.7-146.2,173.7-124.1,281.5c13.6,66.2,41,124.7,95.8,167.1
			c89,68.9,218.7,72.6,312.3,10c9.7-6.5,11.3-14,11.2-24C539.6,2567.8,539.7,2502.1,539.7,2436.4z M568.1,1511.5c0.2,0,0.5,0,0.7,0
			c1.9-82.9,3.5-165.9,5.9-248.8c0.4-13-3.1-18.6-16.2-22.5c-131.7-38.7-276.1,22-336.9,142.3c-59.9,118.5-22.2,271.2,87.2,353.2
			c72.7,54.4,154.2,62.1,240.3,45.7c12.1-2.3,13.3-10.6,13.5-21C564.2,1677.4,566.2,1594.5,568.1,1511.5z M588.7,511.3
			c1.8,0,3.6,0,5.4,0c2.2-77.2,4-154.5,7-231.7c0.6-14.7-4.8-19.8-17.8-23.1c-50.8-12.9-101.9-16.6-153.7-7.7
			c-94.1,16.1-158.6,77.9-175,171.1c-11.6,65.8-12.3,132.4-0.7,198.3c11.3,64.2,39.8,118.9,100,150.9
			c71.4,37.8,143.8,31.4,216.4,2.5c13.2-5.3,18.6-12.2,18.5-26.6C588.4,667.1,588.7,589.2,588.7,511.3z M1496.1,1385.3
			c-8.6,23.6-13.7,47.6-18.8,71.7c-7.1,33.8-10.9,68-11.6,102.5c-1.4,64.9,27.3,103.8,93.1,122.4c128.7,36.4,247.5,10.2,357.7-61.3
			c76.2-49.5,111.9-122.9,118.9-211.9c0.6-7.8-0.3-14.6-4.4-21.9c-37.6-67.4-96.3-99.1-171.7-104.4c-13.3-0.9-18.2,1.3-21.1,15.8
			c-19.6,97.3-61.1,141.6-148.6,147.5C1619.6,1450.4,1548.7,1446.4,1496.1,1385.3z M2588,2368.4c38.3-1.6,83.5-4.6,128.8-5.1
			c26.1-0.3,37.6-8.4,48.8-35.3c14.5-35,15.6-63.2,1.9-97.8c-15.6-39.5-32-53.2-74.2-47.1c-52.1,7.5-100.2,29.2-151,41.2
			c-40.9,9.6-81.9,13.4-123,2.3c-50.7-13.6-85.9-43.7-99.1-96c-13.1-51.8,7.3-95.8,55.2-119.2c12-5.8,24.9-9.8,37.2-15
			c12.5-5.2,24-12.1,31.6-23.8c7.1-11.1,5-21.7-2-32.1c-5-7.4-10-11.7-20.3-9.1c-58.6,14.8-116.6,9-173.6-8.2
			c-12.4-3.7-21.8-2.5-31.8,5c-47.7,35.8-70.4,84.6-74.3,142.8c-4.6,68.7,18.4,130.4,49,190.2c23.3,45.5,59.1,74.2,109.7,84
			C2393.4,2363.1,2487.2,2365.4,2588,2368.4z M1543.2,815.8c-13.3-18.6-26.5-20-45.7-11.9c-142.9,59.7-253.4,155.8-329.6,290.5
			c-14.8,26.2-26,3.3-38.2,0.1c-17.1-4.4-8-14.7-3.3-23c75-131.4,180.3-230.1,317.4-294.7c5.7-2.7,12.7-3.9,17.2-10.3
			c-18.4-5.4-23.8-5.6-40.5-1.2C1262.6,807,1143,898.6,1061,1039.6c-15.5,26.7-15.2,26.3-42.3,12.9c-10.9-5.4-13.3-10.1-7.1-21.4
			c41-74.7,93.4-139.9,160-193.4c30.7-24.7,64.3-45.2,100.5-66.7c-5.2-0.5-7.2-1.1-8.9-0.7c-117.8,26.7-215.5,86.6-293.9,178.3
			c-5.8,6.8-7.5,14.1-7.7,22.7c-1.7,100.2-3.6,200.4-5.3,300.6c-0.1,4-2.2,8.9,3.6,12.7c1.6-1.7,3.4-3.3,4.8-5.1
			c44.3-61.4,104.2-98.1,178.3-112.6c29.7-5.8,59.3-12.4,95.2-20c-25.9-7.8-16.9-18.9-10.6-29.9c47.7-83.6,109-155.4,183.8-216
			C1452.1,868,1496.5,840.7,1543.2,815.8z M1738.8,1808.6c96.9,8.2,185.8-34,256.5-118.6c55-65.8,95.6-139.8,127.1-219.1
			c8.9-22.3,8.5-22.4-15.5-26.2c-3.7-0.6-7.8-1.1-11-2.9c-14.1-7.8-17.4-2.1-19.7,12c-12,74.8-47.6,137.4-106,185.1
			c-75.1,61.3-162.7,94.9-258.9,104c-72.7,6.8-144.2,0.1-210.5-34c-47.1-24.3-74.4-63.1-79.9-116.1c-7.5-73.1,7.5-143.4,27.2-213.1
			c3.1-11,11.9-23.6,9-32.4c-3.7-11.1-21.4-6.4-31.5-12.6c-16.9-10.5-20.5-1-23.2,13.8c-15.5,86.7-29.4,173.4-36.4,261.4
			c-5.1,64.3,18.1,110.4,76.4,138.4c12.6,6.1,25.3,12.2,38.5,17C1559.7,1793.8,1640.6,1809.5,1738.8,1808.6z M2702.4,1779
			c-1.2,2.2-2.1,4.7-3.5,6.7c-92.8,125.7-185.6,251.5-278.8,376.8c-9.1,12.3-2.7,14.6,7.1,17.4c40.2,11.5,79.6,5.3,118.9-5
			c10.6-2.8,17.7-7.8,23.4-17.4c46-78,93.6-155,138.4-233.6C2734.7,1876.9,2721.7,1828.4,2702.4,1779z M2492,1983.2
			c3.3-2.9,5.5-4.3,6.9-6.2c58.8-79.4,117.5-159,176.5-238.2c5.7-7.7,4.4-13.2-0.5-20.2c-16.6-24.2-33.1-48.5-48.9-73.2
			c-6.8-10.7-10.7-11.4-18-0.1c-27.7,42.8-56.1,85.2-84.5,127.6c-4.5,6.7-7.1,13.1-5.3,21.4c9.3,41.7-2.2,76.9-33.5,105.7
			c-5.5,5.1-7.6,9.1-2.8,16C2495.8,1935.9,2498,1958.1,2492,1983.2z M1344.5,711.6c-5.9-5.3-11.7-5.6-17.2-6.9
			c-112.4-25.5-223.1-15.4-332.3,17.6c-35.5,10.7-28.2,3.4-29.2,39.7c-0.7,25.5-0.6,51.1-0.7,76.6c-0.1,13.6,0,27.3,0,44.6
			C1071.9,778.7,1196.9,722.1,1344.5,711.6z M1216.4,2022.3c-18-30.1-42.9-52.4-73.4-68.3c-42.5-22.3-87.7-37.5-134-50.1
			c-28-7.6-56.1-11.3-85.1-7.7c-11.5,1.5-16.5,5.3-16.3,17.9c0.6,28.7,1.4,57.4,3.3,86.1c0.7,10.5,4.5,12.4,14,11.5
			c52.2-5,104.6-4.2,156.9-4.9C1126.9,2006.1,1172.5,2003.6,1216.4,2022.3z M1255.2,2123.2c3.4-12.5-0.5-20.8-9.5-27.6
			c-17.4-13.3-36-24-56.5-31.7c-18-6.7-36.2-10.3-55.7-10.3c-65.8,0.2-131.5,0.4-197.2,4.2c-7.8,0.5-21.1-2.5-19.5,11.3
			c3.4,29,3.9,58.7,13.4,86.7c7.5,22.3,21.4,28.5,43.1,19.1c14.1-6.1,27.8-13.9,38.2-25.1c39.1-42.2,88.8-49.2,142.2-44.1
			C1187.8,2109,1222,2112,1255.2,2123.2z M1667.9,1400.1c65.2-0.4,98.6-22.8,116.2-78.1c12.9-40.5,13-39.9-29-32.2
			c-67.6,12.4-132.4,36.6-200.4,47.7c-19.7,3.2-23.8,13.7-11.3,29.6c8.6,11,21.3,16,34.1,19.9
			C1607.1,1395.9,1637.2,1399.9,1667.9,1400.1z M1271.1,1135.6c67.5-24,121-58.6,161-112.8c42.3-57.4,91.7-107.8,150.7-148.4
			c4.5-3.1,15.5-4.2,8.2-14.7c-5.5-8-11.6-10.3-20.8-4.8c-17.5,10.4-35.9,19.4-53.3,29.9C1414.8,946.3,1334.1,1028.8,1271.1,1135.6z
			 M2629,2149.5c89.3-27.4,162.3-24.4,188,81.9c19.5-29.1,37.7-94.8,35.9-122.7c-0.7-11.5-7.9-7.2-13.5-6.9
			c-27.4,1.5-54.8,4.5-82.2,4.4c-28.6-0.1-57.7-1.2-82.7-18.1c-5.2-3.5-7.7-2.3-10.4,2.2C2653.5,2108.3,2642.8,2126.2,2629,2149.5z
			 M2495.8,1729.9c28-42.4,54.4-82.2,82.2-124.3c-43-3.6-78.2,9.6-112.6,24.3c-12.6,5.4-19.1,27-12.1,35.9
			C2468.7,1685.2,2481.5,1706.4,2495.8,1729.9z M2376.3,2142.9c29.4-39.9,57.4-77.9,85.4-116c-19.1,7.9-36.6,15.5-54.5,22.2
			C2363.1,2065.6,2351.6,2097.7,2376.3,2142.9z M1665.5,1884.9c-0.3-16.3-15.1-30.3-31.3-29.6c-16.6,0.7-29.6,14.9-28.8,31.7
			c0.7,15.7,14.3,28.7,29.9,28.7C1651.8,1915.6,1665.8,1901.2,1665.5,1884.9z M1551,1861.2c0.6-16.6-12.7-30.2-29.6-30.6
			c-16.2-0.3-29.4,11.7-30.5,27.8c-1.1,16.3,12.1,30.9,28.7,31.6C1536.6,1890.7,1550.5,1878,1551,1861.2z M1750.8,1923.6
			c16.8,0.1,30.6-13.5,30.4-29.8c-0.2-15.9-15.2-30.3-31.1-29.8c-15.4,0.5-29.1,14.2-29.4,29.5
			C1720.3,1910,1733.8,1923.5,1750.8,1923.6z M2583.4,1514.6c8.5-0.9,15.4-6.2,15-17.8c-0.4-11.1-6.9-17.7-18.1-17.6
			c-11.1,0.2-17.6,6.7-17.5,18C2562.9,1508.6,2569.5,1514.3,2583.4,1514.6z"/>
		<path class="st0" d="M2344.8,1463.8c8.5-2.6,16.8-6.1,25.4-7.7c31.6-5.7,61.6,10.3,73.7,38.7c11.8,27.6,2.8,60.6-21.5,79
			c-23.5,17.8-56.7,17.5-80.1-0.7c-24.7-19.3-32.3-51.3-19.1-81c1.6-3.5,3.4-6.9,5.1-10.3
			C2333.9,1475.7,2339.4,1469.7,2344.8,1463.8z M2383.1,1540.3c10.3-2,18.5-7.5,18.8-19.4c0.2-10.7-6-18.2-17.2-18.7
			c-11.5-0.5-19.8,4.9-20.2,17.4C2364,1531.5,2370.8,1538.1,2383.1,1540.3z"/>
		<path class="st0" d="M1993.7,1074.7c1.1,24.9,1,24.3-23.6,25c-81.7,2.3-163.4,5.2-245.1,7.4c-9.1,0.3-13.1,4.1-16.8,12
			c-20.9,43.8-56.8,53.1-96.6,25.2c-9.4-6.6-18.3-13.9-27-21.3c-12.4-10.5-27.1-15.9-42.6-13.1c-15.2,2.7-21-2-25.6-16.2
			c-9.2-27.9-10.3-28.1,18.6-31.2c28.5-3.1,54.3,5,77.1,22.3c6.6,5,12.9,10.4,19.4,15.6c22,17.4,24.5,17.1,37.5-7.7
			c10.8-20.6,27.2-31.2,50.5-31.9c86.8-2.7,173.6-5.3,260.4-8.7C2001.7,1051.2,1989.8,1067.7,1993.7,1074.7z"/>
		<path class="st0" d="M2757,1475c36.6,0.2,63.9,27.4,64.2,63.7c0.2,36.4-29.1,66-65.1,65.6c-35.1-0.3-64.3-29.6-64.6-64.7
			C2691.2,1503.2,2720,1474.9,2757,1475z M2757.5,1556.3c10.8-0.8,17.1-7,16.5-18.4c-0.6-10.5-7.4-16.6-17.6-16.3
			c-11.2,0.3-17.6,7.3-17.1,18.7C2739.7,1551,2746,1556.3,2757.5,1556.3z"/>
	</g>
</g>
</svg>
