<?xml version="1.0" encoding="utf-8"?>
<!-- Generator: Adobe Illustrator 23.0.0, SVG Export Plug-In . SVG Version: 6.00 Build 0)  -->
<svg version="1.0" xmlns="http://www.w3.org/2000/svg" xmlns:xlink="http://www.w3.org/1999/xlink" x="0px" y="0px"
	 viewBox="0 0 3000 3000" style="enable-background:new 0 0 3000 3000;" xml:space="preserve">
<style type="text/css">
	.st0{stroke:#000000;stroke-width:10;stroke-miterlimit:10;}
</style>
<g id="Layer_1">
</g>
<g id="Layer_2">
	<g>
		<path class="st0" d="M932.7,2591.3c-13.7,23.8-25.4,46.2-39,67.3c-101.9,157.6-314.4,195.1-455.9,79.8
			c-57.2-46.6-88.6-111.8-119.6-176.7c-82.8-173.4-106.4-351.7-42.4-536.6c35.9-103.7,96.7-191.4,177.2-267.4
			c-19.5-12.1-37.9-22.7-55.4-34.7c-115.7-79.2-159-208.1-119-352.7c17.7-64.1,48.6-121.4,88.6-174.2c5.5-7.2,16.4-13.6,2.9-24.7
			c-80.3-65.7-111.5-156-129.8-254.1c-25-133.8-38.8-267.3-14.6-402.9C263.7,300.2,429.7,137,642.1,112.1
			c192.3-22.6,342.1,59.6,465.4,199.5c15.3,17.3,21.5,20.1,40.4,3.1C1397,91.1,1685,27.2,2007.8,108
			c61.1,15.3,119.7,36.3,172.2,71.2c15.5,10.3,26.3,4.1,39.5-1.7c75.5-33.7,152.8-52,235.9-32c60.6,14.6,108.6,47.3,144.5,97.5
			c69.3,97,103.2,208.6,130.6,322.5c37,153.9,35.7,311.3,36.2,467.9c0.4,137.3-7.7,274.6-11,411.9
			c-5.7,234.6-64.2,453.2-193.5,650.9c-1,1.6-1.2,3.8-2,6.6c52.8,13.6,103,32.6,145.3,68.4c61.4,51.9,93.3,118.6,98.3,198
			c3.6,57.4,0,114.5-9.3,171.5c-18.1,111.4-75.8,196.5-171.4,253.9c-241.6,144.8-484.7,144.4-726.7,0.4c-21.6-12.8-31-17.5-46.9,8.4
			c-37.8,61.3-99.4,91.8-167.1,105.1c-166.5,32.7-334.1,33.6-501.2,3c-83.8-15.3-142.7-63.3-175.1-142.9
			C982.3,2710.2,957.9,2652.1,932.7,2591.3z M2238.2,225.7c36.4,39.2,64.4,81.6,80.8,130.9c15.3,45.8,23.8,93.2,31.8,140.7
			c20.5,121.7,30.7,244,23.1,367.4c-0.5,8,4.6,18.8-9.8,21.9c-25.3,5.5-41.1-6-40.1-32c5.1-130.7-9.9-259.5-30-388.5
			C2271.4,320,2195.6,221.9,2055,175c-230-76.6-455.6-66.5-675.1,38.6C1207.4,296.3,1086.6,431,1002.7,600
			c-82.6,166.3-125,343.6-138.7,528.5c-14,188.7,2,374.5,46.5,558.2c6.6,27,17.5,33.2,44,29.4c208.5-30,418-42.9,628.6-36.4
			c37,1.2,73.5,5.6,109.7,13c61.3,12.5,95.6,51.3,109.2,110.9c5.8,25.4,6.3,50.7,3,76.4c-13.8,106.8-58.8,201.9-110.9,294.2
			c-22.4,39.7-46.4,78.6-74.3,125.6c72.8,0,139.2-2.1,205.3,1c27.9,1.3,43-7.2,56.5-30.3c81.3-139.4,110.1-287.9,78.1-446.5
			c-5.6-27.9,11.9-22.7,25.8-28.2c19.2-7.6,22.3,2.5,25.2,17.5c30.7,160.9,7.1,313.3-70.4,457.5c-4.4,8.2-14.2,15.3-8.7,28.7
			c86.8-3.1,173.8-1.3,260.2-16.2c28.1-4.8,38.6-15.4,39.3-45.1c3-137.3,9.1-274.6,12.8-411.9c0.6-20.9,4.7-28.2,27.3-27.1
			c24.2,1.2,24.8,13.1,24.1,31.8c-5,133.2-9,266.4-14.1,399.6c-0.8,21.6,3.3,27.2,24.8,16.9c77.3-36.9,143.1-88,195.3-155.8
			c90-116.8,138.6-252.6,173.5-393.3c27-108.9,28.5-221.2,31.9-333c5.4-175.3,11.1-350.5,4.7-525.9c-0.6-16.7-0.5-30.6-20-39.9
			c-228.6-109.4-334.9-333-302.7-588.1c2.4-18.7-0.8-23.5-19.2-22.1C2324.3,192.7,2281.7,205.1,2238.2,225.7z M944.1,602.1
			c33-67.8,68.6-128.7,111.9-184.8c37.3-48.5,37.6-49.2-5.5-93.3C946.3,217.5,825.1,148.4,670.3,160.9
			c-119.6,9.7-220.2,60-297.9,152.2c-76.8,91.2-103,200.9-108.5,316.6c-5.6,118.8,13.4,235.4,43.7,349.3
			c34.4,129,123.8,200.6,254.9,221.8c75,12.1,148.5,3.7,222.2-11.8c19.2-4,25.1-11.9,25.9-30.1c4.4-107.8,21.9-213.7,48.3-318.3
			c1.9-7.6,11.5-20.2,0.4-24c-12.8-4.5-28.6-4.1-42.2-1.4c-10.9,2.1-3.7,13.9-3.5,21.1c1.8,67.2-25.4,101.7-90.3,113.8
			C606.1,972,480.4,887,454.1,768.9c-11.8-52.8-10.8-105.9-6-159c11.5-126.4,98.6-227.9,220.4-258.4
			c108.7-27.2,178.3,5.9,222.6,108.8C910.4,505.3,925.6,552.1,944.1,602.1z M2208.3,2849.7c179.7-0.1,292.5-34.9,399.4-105.9
			c96-63.9,137.3-156.4,142.6-268.3c0.4-8,2.1-15.9-9.4-19.3c-23.6-7.1-42.6,2.2-49.8,26.2c-12.6,41.7-32.6,79.5-60,113.4
			c-26.1,32.2-58.3,55-100,60.9c-68.8,9.8-135.1,2.4-195.9-33.9c-62.3-37.1-84.5-90.9-68.3-162.2c22.8-100,107.9-174.1,217.7-189.7
			c109.5-15.5,169.4,18.1,212.4,119.6c10.4,24.6,32.1,12.6,48.1,13.4c15.5,0.8,8.8-15.7,8.2-24.3c-8.5-120.1-83.7-202.6-202.6-225.6
			c-21.2-4.1-34.5-0.8-50,15.4c-84.7,88.3-187.1,144.3-308.7,164.9c-92.5,15.7-185.8,15-279,16.8c-35.7,0.7-35.8,0.3-28.9,37
			c18.1,97.6,18.2,196,5.9,293.9c-4.1,32.6,3.7,51.4,30.2,68.6C2023.9,2817.9,2137.7,2849,2208.3,2849.7z M906.7,1845.4
			c-3.6-16.5-4.6-30.2-28.3-27.4c-118.5,14-234.9,0.8-349-33c-15.3-4.6-26.1-3.9-38.4,7.5c-115.8,107.8-184.1,239.2-197.6,397.4
			c-14,164.4,41.3,309.6,124.1,447.7c95.6,159.4,331,147.4,425.4,4.4c67.6-102.4,91.7-215.2,87.3-335.9c-1.4-37.1-8.2-73.2-24.3-107
			c-7.1-14.9-17.4-27.2-35.4-22.5c-30.6,8-56.4,24.7-81.6,48.4c80.7,15.1,108,60.5,83.3,134.4c-7.7,23.1-18.4,45.6-30.6,66.7
			c-42.1,72.8-126.8,108.4-211.3,90.5c-75.3-16-130-77.4-139.1-160.5c-11.7-106.8,3.2-210.3,44.9-309.7
			c40.7-97.1,110.7-158,216-175.5C803.6,1862.3,855,1853.9,906.7,1845.4z M789,1772c12.3,0,24.6,0.5,36.9-0.1
			c54.7-2.4,54.8-2.5,40.2-54.7c-41.5-149-56.3-301.6-59.5-455.5c-0.5-22.7-5.5-25.3-28.7-20.3c-114.2,24.9-227.7,25.8-336.6-24.2
			c-16.2-7.4-23.3-3.2-32.7,9c-38.5,50.2-67.7,105-83,166.4c-34.6,139,16,249.7,144.3,313.6C570.3,1756.1,678.9,1768.9,789,1772z
			 M1547,1822.4c0-22.5-0.4-45,0.1-67.5c0.4-19.2-6.9-25.5-27.1-25.7c-187.7-1.8-374.3,12.2-560.2,36.9c-22.3,3-22.1,11.1-15.1,27.7
			c13.5,32,24.4,65.1,39.2,96.4c77.5,163.9,189.8,292.7,363.8,359.5c22.1,8.5,34.1,4.9,48.1-13.6
			C1488.4,2113.5,1541.9,1976.9,1547,1822.4z M1697.6,2351.2c0-1.9,0-3.8,0-5.7c-35.9,0-71.8,1.2-107.5-0.5
			c-17-0.8-22.9,5.3-26.7,20.6c-10.4,41.8-22.3,83.3-51.4,117c-6,6.9-6,14.9-5.7,23.1c4.2,117.8,8.5,235.6,12.5,353.4
			c0.4,11.9,2.5,19.4,17.3,18.3c62.4-4.7,124.6-10.4,183.4-34.2c55.3-22.4,98-58.6,110.7-118.5c25-117.7,20.8-235.9-1-353.9
			c-2.7-14.8-8.6-20.2-23.9-19.8C1769.4,2351.9,1733.5,2351.2,1697.6,2351.2z M497,670.2c0,13.3-0.5,26.6,0.1,39.9
			c4.7,119.1,103.4,205.4,216.7,189.5c36-5.1,47.7-18.4,47.8-54.7c0.1-40.2-10.2-54.6-46.3-58.3c-41.1-4.3-64.7-26.6-75-65.6
			c-15.8-60.1-6.1-115.7,29.1-166.7c36.5-52.9,84.3-50,114.2,7.3c28.5,54.6,40.2,113.4,40,174.9c0,8.7-8.2,23.4,6.9,25.8
			c16.6,2.6,42,9.2,49.3-4.4c14.5-27,34.8-57.6,27-88.9c-17.6-70.3-38.7-140-70.5-205.5c-27.8-57.3-68.1-77.8-130-67.5
			c-31.4,5.2-61.4,15.5-89,31.9C524.8,482.8,494.2,568.2,497,670.2z M968.8,2218.4c22.6,95.8,14.9,185-4.8,273.8
			c-2.3,10.4-1.3,20.4,2.1,30.2c29.2,85.2,59.6,169.9,99.9,250.7c18.4,36.9,47.3,61.2,84.8,76c26.8,10.6,55,15.3,83.1,21.1
			c22.7,4.7,27.8-1.6,27.6-23.6c-1.1-84-1.4-168.1,0.2-252.1c0.5-25.2-5.6-33.5-32.1-37.7c-105.9-16.9-158.6-81.1-159.3-188.2
			c-0.1-20.5,0.3-41,0.4-61.5c0-9.1,0.8-18.2-7.6-25.3C1035.7,2258.9,1008.3,2236.1,968.8,2218.4z M540.3,2287.3
			c0,16.4-1.3,32.9,0.2,49.1c5.4,57.8,27,105.1,86.7,125.4c76,25.9,148.8-9.1,184.4-89.3c11.4-25.7,30.9-55.1,10.3-80.4
			c-21.4-26.4-54.9-14.6-83.7-7.5c-36.1,8.9-37.7,10.7-23.5,45.7c8.9,22.1-9.7,20.7-19,26.9c-8.9,6-19.4,13.8-27.1-3.2
			c-37-81.2-60.4-163.7-23-251.5c28.9-67.8,82.2-98.2,154.7-85.1c51.8,9.4,101.4,7.5,150.4-12.6c20.2-8.3,30.9-16.2,14.6-38.8
			c-11.3-15.6-19.2-33.8-26.8-51.6c-6.2-14.4-14-20-30.3-17c-47.3,8.6-94.7,16.4-142.3,23.1c-95.1,13.5-153.9,69.8-187.3,156.8
			C552.8,2145,538.5,2214.7,540.3,2287.3z M1598.8,1803.7c-2.4,163.6-50.8,311.9-148.2,443.7c-13.7,18.5-20.6,30.3,11.6,32.3
			c25.4,1.6,50.8,6.1,76,10.5c17.8,3.1,28.3-3.6,37.2-18.9c28.3-48.6,59.8-95.5,86.4-145.1c44.5-83.1,85.9-167.8,93.5-264.2
			c5.8-73.7-20.4-108.6-92.6-123.1c-63.8-12.8-63.8-12.8-63.8,52.5C1598.8,1795.5,1598.8,1799.6,1598.8,1803.7z M2706.4,748.4
			c-3.8-50-9.9-94.5-19.1-138.4c-24.3-115.6-57.4-228.1-122.9-328.3c-22.8-34.9-53.1-61.4-92.6-77.7c-21.4-8.8-30.4-7.2-33,17.9
			c-17.9,173.4,20.9,327.5,152.4,449.8C2624,702.3,2660,729.3,2706.4,748.4z M2644,2459.5c-46.5,4.2-88.2,8.4-129.9,11.5
			c-30.9,2.3-60.2,5.4-85.2,28c-19.9,18-23.7-9.5-34.3-16.8c-12.9-8.8-5.1-16.6,3.3-23.9c25.5-22.2,54.5-35.1,88.7-37.5
			c46.9-3.3,93.7-9,140.7-12.4c21-1.5,20.1-11.1,13.3-25.8c-14.3-31-39.5-49.2-71-58.9c-106.6-32.7-239.7,51.8-255.5,161.9
			c-4.5,31.6,2.3,60.2,28.7,79.6c60.9,44.8,128.7,54.6,201.1,35.3c13-3.5,23.9-11.6,33.2-21.5
			C2608.3,2545.8,2630.3,2507.3,2644,2459.5z M1515.5,2340.6c-28.1-4.8-56.5-8.6-84.4-14.8c-28.9-6.5-57.5-14.6-85.8-23.4
			c-14.4-4.4-20.1,4.4-27.8,12.8c-42.4,46.4-93.5,55.1-151.1,33.7c-9.6-3.5-18.9-8-27.9-12.8c-10-5.3-13.8-3.2-16,8.4
			c-16,83.4,27,144.9,111.2,161.5c43.5,8.5,85.4,0.9,128-4.9C1450.8,2489.1,1492.1,2459.5,1515.5,2340.6z M1455.4,2530.1
			c-41,14.1-81.9,22.9-123.5,27.6c-14,1.6-19,7.3-18.9,21.5c0.5,92.3,0.5,184.6,0,276.8c-0.1,17.3,6.3,23.8,23.2,23.7
			c37.9-0.3,75.9-0.1,113.8,1c15.1,0.4,19.3-5.2,18.7-19.7C1464,2751.5,1459.8,2642,1455.4,2530.1z M1071.9,2221
			c-3.1-41.2,11.5-77-8.1-109.8c-13.6-22.7-32.2-42.3-47.9-63.8c-6.5-8.9-12.2-12-22.8-6.3c-66.2,35.5-136.1,40.3-208.7,25.7
			c-30.8-6.2-56.9,3.8-75.7,29.3c-33.3,45.2-35.7,95.1-22.7,151c8.9-7.9,15-12.9,20.8-18.4c35.9-33.6,71.3-67.9,116-89.9
			c33.8-16.6,65.4-19.2,101.9-0.1C972.4,2163.8,1022.3,2184.4,1071.9,2221z M685.1,668.7c0.5,7.1,0.6,14.2,1.5,21.2
			c4,31.3,46.8,61.4,76.9,54.5c6.9-1.6,6.8-6.8,7-11.6c1.9-53.1-9.2-103.4-34.1-150.4c-8.3-15.7-15.9-11.6-24.3,0.3
			C693.8,608.6,684.3,636.9,685.1,668.7z M1128.4,2176.6c-13.9,81.8,0.4,108,67.1,128c12.1,3.6,24.1,3.7,36.3,3.3
			c16.3-0.6,28.2-10.7,40.1-20.2c7.4-6,7.9-11.6-1.4-16C1219.1,2247,1173.9,2212.7,1128.4,2176.6z"/>
		<path class="st0" d="M2154.8,1414.1c-55.4,62.9-110.5,126-166.6,188.3c-6.9,7.7-12.7,29.4-29.6,11.8
			c-10.3-10.7-38.5-17.6-13.2-40.7c3-2.7,5.7-7.5,2.3-10.8c-20.5-19.9-41.5-39.5-62.5-58.9c-1.1-1-4-0.7-5.8-0.2
			c-4.6,1-47.1,58.4-44.6,61c16.9,18.3-2.3,25.5-10.2,36.4c-9.7,13.4-18.1,11.8-29.4,0.8c-28.6-27.9-58.7-54.2-87.2-82.2
			c-10.4-10.2-15.7-10.6-26,0.7c-14.9,16.4-24.3,45.5-45.6,46.4c-21,0.9-34.2-26.4-51.8-40.2c-25-19.5-50.5-38.5-74.8-58.9
			c-11.3-9.5-18.5-8.9-27.7,2c-10.5,12.5-22.6,23.8-33.7,35.8c-17,18.6-35.1,19.2-54.7,4.3c-27.7-21.1-55.8-41.7-83.6-62.7
			c-10.2-7.7-19.2-15.4-29.5,0.4c-6.8,10.4-17.1,17.6-26.4,3.3c-7.1-11-35.4-15.7-13.5-37.1c7.9-7.8,7.2-13.4-1.5-19.6
			c-16.5-11.7-32.6-23.9-51.4-37.6c-6,19.8,5.2,48.1-31.3,44.4c-19.2-1.9-24.4-6.9-24.5-24.9c-0.7-115.9,4.5-231.4,26-345.6
			c9.8-52.2,22.4-103.9,32.9-156.1c33.9-168.7,137.5-272.8,302.2-310.6c157.7-36.1,317.4-32.3,475.2,4.8
			c49.8,11.7,94.9,35.6,134.8,69.4c52.3,44.3,80,100,86.3,167.2c13.8,147.1,10.8,294.8,18,442.2c3.9,78.8,4.7,157.7,8.9,236.4
			c1.2,21.5-5.9,25.7-25.1,26.3c-18.9,0.6-28.9-2.4-27.1-24.5c1.8-23.1,0.4-46.4,0.4-69.6C2161.3,1415.3,2158,1414.7,2154.8,1414.1z
			 M2147.8,934.2c-4.6-52.5-7.9-97.1-12.6-141.6c-5.6-52.1-34.2-91-73.9-123c-40.2-32.3-87.2-50.1-136.7-59.3
			c-129-24-259.1-26-388.3-4.4c-93.2,15.6-176,55.1-234.4,133.8c-39.5,53.2-56.5,114.6-67.8,183.7
			C1569.2,667.6,1913.4,719.6,2147.8,934.2z M1617.1,840.5c-3.4,5.2-5.7,9.9-9.1,13.7c-11.5,12.9-23.3,25.6-35.2,38.2
			c-29,30.8-29.8,31.6,1.9,58.7c20.2,17.3,35.1,54,60.5,48.3c22.6-5.1,38.8-36.7,58.9-55.5c11.3-10.6,9-17.5-0.9-27.2
			c-20.3-20-39.5-41.2-59.4-61.7C1629.6,850.8,1624.8,847.2,1617.1,840.5z M1741.6,970.2c-3.4,3-6.8,5.3-9.5,8.3
			c-19.5,22.1-56.3,40-55.9,65.3c0.3,23.1,36.7,40.5,56.9,60.7c9.9,9.9,15.3,7.8,24.6-0.9c62.4-57.9,62.6-57.7,2.4-118.1
			c-3.6-3.6-7-7.5-10.8-10.9C1747.2,972.8,1744.4,971.8,1741.6,970.2z M1228.4,1001.9c26.5,24.8,53.3,49.9,80,75.2
			c6.7,6.4,12.5,10.1,20.4,1.4c13.7-15.1,28-29.9,42.1-44.7c4.6-4.9,7.7-9.6,1.3-15.4c-25.7-23.3-48-56.1-78.1-66.7
			c-20.7-7.3-42.9,28.6-63.6,46.2C1229.6,998.5,1229.4,999.7,1228.4,1001.9z M1852.4,1082.1c-3.4,2.1-6.3,3.2-8.2,5.3
			c-19.5,20.9-46.7,39.2-55.4,63.9c-5.5,15.7,27.5,31.1,42.1,47.7c5.4,6.1,12.2,11,17.5,17.2c8.7,10.2,14.9,9.3,24.4-0.5
			c53.2-55,53.5-54.8,3.4-109.6c-4.1-4.5-8-9.3-12.3-13.7C1860.4,1088.7,1856.5,1085.6,1852.4,1082.1z M1739.9,1367.4
			c-11.1-11.2-23.6-24.3-36.6-36.8c-49.5-47.3-49.1-46.8-93.4,3.4c-10.6,12-7.9,17.9,2.1,26.7c21.4,19,41.9,38.9,63,58.1
			c4.3,3.9,7.6,9.9,14.8,9C1693.9,1427.4,1739.3,1375.1,1739.9,1367.4z M1510,1148.2c-23-21.2-37-34.5-51.4-47.4
			c-44.2-39.7-43.8-39.2-84.9,4.4c-12,12.7-16,20.7,0.1,33.2c16.9,13.1,33,27.9,46.8,44.2c17.2,20.4,29.1,17.4,45.4-1.5
			C1477.1,1168.2,1493.7,1160.1,1510,1148.2z M2042.4,1285.2c-56.7,66.4-56.7,66.4,10.5,126.5c3.8,3.4,7.4,7.1,11,10.6
			c4,3.9,8.6,6.3,13,1.4c15.7-17.5,31.1-35.2,46.5-52.9c4.6-5.3,0.7-9.7-2.9-13.1C2094.5,1333.4,2068.3,1309.2,2042.4,1285.2z
			 M1955,972.5c-11.4,10.9-21.9,20.4-31.7,30.6c-35.8,37-35.7,37.1-0.9,75.1c34.3,37.4,34.3,37.4,65.7-0.3c37.4-45,37.4-45-7.7-84
			C1971.9,986.6,1963.4,979.6,1955,972.5z M1593.4,1041.1c-13.1-12.5-27.1-25.8-41.3-39.1c-45.6-42.8-45.2-42.4-86.9,5
			c-10.2,11.6-12.4,19.3,0.6,29.7c12.7,10.2,24.4,21.8,36.3,33.1c36.2,34.2,36.2,34.4,71.6-2.5
			C1580.7,1060.1,1589.8,1054.4,1593.4,1041.1z M1914.2,935.8c-4.7-4.9-7.9-8.6-11.4-11.9c-11.9-11.2-25.4-20.9-35.4-33.5
			c-19.7-24.8-34-21.2-53.9,1.6c-34.3,39.3-35.8,38.1,1,75.8c36,36.9,36,37,72.6-1.8C1896.1,956.6,1904.5,946.6,1914.2,935.8z
			 M1749.9,1193.1c-2.9,0.7-5.5,0.6-6.7,1.8c-15.7,15.9-31.4,31.8-46.5,48.3c-5.8,6.3,0.2,10.9,4.6,15c20.7,19.6,41.8,38.7,62,58.8
			c9.6,9.5,15.1,8.3,24.4-1.1c43.9-44.5,44.3-44.1-0.5-87.5c-5.1-5-10.2-10-15.4-14.8C1764.4,1206.5,1756.9,1199.6,1749.9,1193.1z
			 M1616.7,1250.6c-4.5-4.9-7.6-8.8-11.2-12.2c-14.9-13.9-31.2-26.5-44.5-41.8c-14.7-16.8-24.1-17.8-40.2-0.1
			c-39.7,43.5-40.7,42.6,3.9,82.6c4.5,4.1,10.2,7.2,13.7,12.1c15.6,21.6,29.1,18.9,43.9-1.4
			C1592.2,1276,1604.6,1264.1,1616.7,1250.6z M1711.6,1151.6c-5.8-3.7-10.7-5.9-14.4-9.3c-16.4-15.5-33.2-30.5-48.2-47.2
			c-12.1-13.4-19.7-10.9-31.5,1c-41.8,42.3-42.2,41.8,0.7,83.1c4.4,4.3,8.3,9.4,13.4,12.6c8.8,5.5,14.6,24.1,25.9,15.3
			C1676.4,1192.3,1691.6,1172.6,1711.6,1151.6z M1960.9,1396.8c-3.2,2.7-5.8,4.1-7.4,6.3c-12.9,17.1-31.6,32.8-36.2,51.9
			c-3.3,13.7,20.4,24.7,32.3,36.5c36.2,35.7,35.6,34.4,68.7-0.3c16-16.7,18.7-27.3-1.6-42.2c-16.3-12-29.5-28.1-44.2-42.2
			C1969,1403.4,1965,1400.4,1960.9,1396.8z M1406,1241.8c-2.2-3.2-3.5-6-5.6-8c-23-21.9-46.2-43.6-69.3-65.4
			c-4-3.8-8.7-6.5-13.2-1.6c-14.6,15.7-32.7,30-41.3,48.5c-3.8,8.2,19,17.9,29.6,27c11.6,10,23.5,19.9,36.2,28.5
			c7.5,5.1,13.9,19.5,25,10.6C1381.6,1269.9,1393.2,1255.2,1406,1241.8z M1339.3,913.7c19.7,26,45,43.7,66.4,65.3
			c5.1,5.2,9.3,4.6,15.7,0.4c50.5-33.6,52.1-54.7,9.1-95c-13.7-12.8-24.1-10.9-37.5-2.6C1375.7,892.5,1358,902.7,1339.3,913.7z
			 M1791.5,1527.6c3.8-3,6.8-4.4,8.5-6.7c13.5-19,32.6-36.6,38.1-57.8c3.4-13-22.6-23.3-33-36.9c-18.2-23.9-30.5-18.5-46.9,3.8
			c-28.9,39.3-30.3,38.3,6.6,73C1773.7,1511.2,1782.6,1519.4,1791.5,1527.6z M2151.1,1150.4c-2.1-0.9-4.2-1.7-6.3-2.6
			c-20.4,27.2-40.7,54.4-61.3,81.5c-4.4,5.7-5.1,10.7,0.5,15.9c24,22.6,47.9,45.4,74.6,70.6
			C2156.1,1259,2153.6,1204.7,2151.1,1150.4z M1664.6,803.1c-3.1,3.7-6.3,7.3-9.4,11c15.8,12.6,32.9,24,47.3,38.1
			c40.6,40,40.4,40.7,78.6,0c6.4-6.8,20.7-12.4,14.8-23.7c-5.8-11.2-16.1-20.6-31-22.4C1731.6,802,1698.2,798.7,1664.6,803.1z
			 M2064,1070.2c-4.3,4.5-7.7,7.8-10.8,11.4c-10.6,12.5-21.2,25-31.6,37.6c-28.7,34.7-27.8,33.9,3.1,66.3c14,14.7,20.4,9.9,29.5-3.3
			c12.2-17.6,26.3-34,38.1-51.9c4.8-7.3,18.8-14.2,8.7-25.6C2090.2,1092.5,2077.2,1082.3,2064,1070.2z M1962.9,1190.3
			c-7.8,8.2-11.5,11.7-14.8,15.5c-11.9,13.9-22.9,28.9-35.9,41.7c-12.6,12.4-10,20.1,1.9,31.6c39,38.1,38.5,38.6,71.3-6.3
			c3.6-4.9,7.7-9.5,11.2-14.5c5.1-7.2,13.2-14,4.5-24C1988.6,1219.9,1976,1205.3,1962.9,1190.3z M1288.4,1364.4
			c10.9-11.4,23.9-21.8,32.6-35c7.2-11-7.4-14.6-13.4-19.7c-17.9-15.2-37.5-28.5-55.1-44.1c-12.1-10.8-19.4-9-30.1,2.2
			c-28.2,29.2-28.7,28.5,3.6,52.2c14.8,10.8,29.3,22.2,44.2,33C1275.1,1356.6,1280.5,1359.5,1288.4,1364.4z M1208.5,1055
			c-10.1,26-7.5,51.1-14.4,74c-8.2,27.4,12.4,36.3,28.4,47.2c17.7,12.1,20.7-9.7,29.9-16.3c8.9-6.4,15.4-16.2,23.4-24
			c7.5-7.4,6.7-13.2-1.1-20.1C1252.9,1096.3,1231.6,1076.3,1208.5,1055z M1917.8,1363.8c1-10.7-46.7-58.8-53.6-56.7
			c-2.6,0.8-4.4,4-6.6,6c-47.7,43.1-47.8,48-1.1,91.3c2.2,2.1,4.3,4.3,6.7,6.3c4.4,3.7,9.3,11.2,15,4.3
			C1892.6,1397.8,1905.7,1379.7,1917.8,1363.8z M1444.4,1275.6c-12,13.3-25.6,24.7-34.3,39.1c-7.8,13,9.3,15.4,15.8,21.2
			c15.9,14.2,34,25.9,50.1,39.9c9.6,8.3,15.2,8.5,24.9-0.7c17.8-16.8,27.9-30.1,0.5-47.8c-15.1-9.8-26.8-24.8-40.2-37.4
			C1456.8,1285.9,1452.1,1282.2,1444.4,1275.6z M1414.4,1460.5c16.2-6,25.4-18.9,33.7-31c7.8-11.3-6.9-14.5-13-19.7
			c-17.3-14.4-35.3-27.9-52.9-42.1c-8.9-7.1-15.5-9.6-26-0.1c-28.5,26-29.1,27.2,1.7,50.3
			C1376.8,1432.1,1395.5,1446.3,1414.4,1460.5z M1653.4,1472.9c-2.3-3.6-3.5-6.5-5.6-8.4c-25.9-24.4-50.8-50.1-78.4-72.3
			c-16.2-13-19.8,10.4-29.4,16.5c-9.1,5.7-7.2,12.3,1.2,18.7c26.7,20.3,52.9,41.2,79.4,61.8c5.5,4.3,11.1,10.5,18.1,2.6
			C1644,1485.9,1648.5,1479.3,1653.4,1472.9z M2089.9,957.7c-4.4-5.5-7.6-11-12.1-14.7c-12.6-10.3-26.6-18.9-38.5-29.9
			c-17.8-16.6-27.5-4.7-39.5,7.9c-16.7,17.5,2.6,22,10,30.1c8.9,9.7,19,18.4,29.3,26.6c6.6,5.1,11.9,18.7,21.6,11.8
			C2072.1,981.4,2080.1,968.8,2089.9,957.7z M1567.2,817.9c-29.7,2-53.7,13.9-78.6,21.8c-5.8,1.8-19.1,3.3-15.8,10
			c5.4,11.3,16.6,19.9,25.7,29.3c4.7,4.9,10,7.1,15.5,0.7C1531,860,1552.1,843.6,1567.2,817.9z M2149.9,1039.9
			c-0.5-20.3-0.7-42.2-20.6-43.9c-11.2-0.9-21.8,18.7-29.1,32c-2.4,4.3,32,38.1,37.2,36.4C2151,1060,2149.6,1047.9,2149.9,1039.9z
			 M1894.1,836.1c-1.4,1.9-2.7,3.8-4.1,5.6c16.3,15,32.9,29.7,48.6,45.2c11.6,11.4,19.1,5.7,26.9-4.1c12.5-15.7-4.7-16.7-11.2-20.1
			C1934.8,852.9,1914.3,844.9,1894.1,836.1z"/>
	</g>
</g>
</svg>
