<?xml version="1.0" encoding="utf-8"?>
<!-- Generator: Adobe Illustrator 23.0.0, SVG Export Plug-In . SVG Version: 6.00 Build 0)  -->
<svg version="1.0" xmlns="http://www.w3.org/2000/svg" xmlns:xlink="http://www.w3.org/1999/xlink" x="0px" y="0px"
	 viewBox="0 0 3000 3000" style="enable-background:new 0 0 3000 3000;" xml:space="preserve">
<style type="text/css">
	.st0{stroke:#000000;stroke-width:10;stroke-miterlimit:10;}
</style>
<g id="Layer_1">
</g>
<g id="Layer_2">
	<g>
		<path class="st0" d="M1360.4,2263.7c-64.6,114.2-175.9,122.2-287.7,123.4c-92,1-179.4-23.8-262.2-63.6
			c-15.1-7.2-23.3-9.9-30.1,9.6c-7.4,21.2-25.4,35.9-46.8,39.1c-124.2,18.6-248.2,44.3-374.6,17.1c-60.3-12.9-107-44.6-137.8-97.9
			c-36.8-63.6-82-117.9-147.6-154.5c-33.9-18.9-37.2-73.8-9.6-99.7c6.5-6.2,14.8-4.8,22.5-5.6c78.1-7.7,152-28.9,220.6-67.4
			c5.3-3,10.3-6.5,18.2-11.5c-33.4-22.5-64.4-45-91.4-72.1C133.7,1780.1,84.1,1658.3,83.3,1517c-0.9-150.7-1.4-301.5,0.1-452.2
			c2.4-250.9,166.7-451,408.1-499.5c32-6.4,64.5-8.5,97.3-8.5c281.2,0.2,562.4,0.2,843.6,0.1c136.9-0.1,254.8,47.2,353.3,142
			c11.2,10.8,17.3,11.1,30,2c153.1-108.4,314.5-122.8,483-39c16,8,23.8,1.9,34.2-6.7c223.5-186,548.8-46.4,609.6,206.8
			c28.8,119.8,6.4,230.8-60.6,333c-10,15.2-9.2,23.6,0.9,38.5c57.6,84.6,85.6,179.8,83.5,281.3c-2.2,107.4-11.5,214.6-17.9,321.8
			c-2.3,38.7-7.6,77.4-7.3,116c0.5,72.7-29.7,132-77.4,182.7c-92.9,98.7-207.9,151.3-343.8,157.7c-85.4,4-171,12.5-256-0.3
			c-105.5-15.9-206.4-45.6-291-115c-10-8.2-13.9-7.8-21.7,3.1c-61.9,87.6-132.4,108.9-236.2,72c-10.4-3.7-15.4-3.8-19.9,7.4
			c-29.8,73-159.4,120.4-240.2,100c-39.5-10-66.1-34.8-82.2-72C1369.1,2280.4,1369.8,2270.5,1360.4,2263.7z M1938.1,1468.9
			c0.7,50,0.7,111.7-14.3,172.2c-7.8,31.5-18.8,62.1-20.9,95.1c-6.2,94.5-1.3,188.1,14.9,281.6c10.8,62.1,41.7,109.7,91.1,146
			c69.6,51.2,150.4,76,233.8,91.8c101.6,19.2,203.9,8.3,305.7,0.6c112.8-8.5,207.1-58.8,285.6-138.5c42.4-43.1,69.5-94.1,73-156.7
			c8-144.2,18.5-288.3,26.4-432.5c4.6-84.6-19-163.9-55.6-239.1c-32.4-66.6-84.5-106.8-160-119.3c-98.4-16.3-197.5-23.3-296.7-30.6
			c-58.9-4.3-118.1-10.8-176.7-2.3c-113,16.4-202.1,77-280.3,157c-18.5,19-28.3,38.1-26.5,65.2
			C1939.7,1391.8,1938.1,1424.6,1938.1,1468.9z M1024.7,1990.9c130.4,0,260.9-1.3,391.3,0.3c276.2,3.3,443.6-190.4,479-377.1
			c15.1-79.6,5.1-160,8-240c0.4-11.7-6.3-12.2-15.1-12.4c-49.3-1.4-98.7-2.2-147.9-5.4c-20.3-1.3-28.2,4.8-34.5,24.6
			c-43.5,136.3-120.6,247.8-246,321.6c-94.1,55.4-198,71.8-304.9,71.5c-126.9-0.3-253.5-10.3-379.2-27.4
			c-124.4-17-229.8-70.8-308.7-170.9c-56.1-71.2-91.3-152-108.3-240.8c-2.1-10.9-2.6-20.4-17.8-20.7c-68.7-1.4-137.4-3.4-206.1-5.4
			c-10.2-0.3-16.9,1.4-16.7,14c1.6,88.1-7.7,176.8,4.8,264.1c34.2,237.5,228.7,403.4,468.5,403.9
			C735.6,1991.1,880.1,1990.9,1024.7,1990.9z M1013.2,589.9c-141.1,0-282.1-0.4-423.2,0.1c-235.4,0.7-428.1,163.2-465.7,395.2
			c-14.7,90.8-4.3,183.1-6.4,274.6c-0.4,16.7,12,14.7,22.1,15.1c52.9,1.7,105.8,2.4,158.6,5c16.8,0.8,22.3-3.1,23.7-20.8
			c7-84.3,28-164.9,70.7-238.6c83.1-143.1,212.9-213.2,372.3-235.2c150.8-20.9,302.5-18.5,454-14.2c59,1.7,117.5,10.4,175,25.1
			c173.5,44.2,294.4,145.9,348.1,320.2c18.3,59.5,25.6,120.7,22.7,182.7c-1,21.5,5.8,26.9,26.2,26.3c29.9-0.9,60,0.4,89.8,2.9
			c18,1.5,22.4-4.4,22.2-21.6c-0.9-66.1-0.1-132.2-0.4-198.4c-0.2-35.2,2.3-71-2.5-105.6c-34-244.4-224.9-411-471.9-412.4
			C1290,589.3,1151.6,590,1013.2,589.9z M676,1325.2c-90.6-3-181.2-5.8-271.8-9.1c-13-0.5-14.3,4.8-12,16
			c32.9,165.7,145.3,335,352.4,374.3c103.3,19.6,208.1,23.7,312.7,30.9c75.8,5.2,151.8,6,226.6-7.9
			c202.7-37.6,323.4-165.9,388.8-354.7c7.1-20.4-3.8-19.6-17.3-20c-84.6-2.6-169.1-5.6-253.7-8.3c-34.6-1.1-34.9-0.8-31.4,33.3
			c3.9,37.6-0.1,73.8-19,107.2c-19.8,35.1-49.9,55.3-90.5,53.7c-41.3-1.6-64.7-27.7-77.5-65.1c-12.8-37.5-15.1-76.2-9.6-114.9
			c2.4-17.3-2.6-20.5-18.3-21c-82.8-2.3-165.6-5-248.4-8.8c-18.6-0.9-21.6,5.8-21.5,22.5c0.5,51.6-19,96.1-52.8,134.6
			c-44.9,51.3-109.1,47.4-146.9-9.5c-24.3-36.7-28.4-76.8-17.2-119C671.5,1348.7,678.5,1338.7,676,1325.2z M1057.2,801.4
			c-92.4,3.3-185,2.5-276.9,15.4c-114.3,16.1-218.8,53.1-299.5,140.8c-77.1,83.9-112.2,185-124.8,296.5c-3,26.6,6.3,29.6,27.7,28.6
			c11.1-0.5,14.9-5.9,19-14.5c11-23,21.6-46.4,34.5-68.3c104.2-176,253.7-276.7,463.1-278.3c65.3-0.5,130.4,1.7,195.4,6.4
			c100.9,7.3,202.1,12.4,300.7,37.4c64.1,16.2,123.9,39.5,165.9,95.3c43.8,58.1,65.6,123.6,73.2,195.2c2.2,20.7-6.8,49.6,7.9,60.1
			c15.2,10.9,42.4,4.3,64.1,6.9c18.1,2.2,25.2-3.5,25.3-22.4c0.3-46-3.4-91.6-13.3-136.4C1680.7,989,1572,880.3,1400.7,832.8
			C1288.2,801.6,1172.7,801,1057.2,801.4z M1361.6,992.6c-9.3-2.1-18.4-4.6-27.8-6.2c-115.7-20.1-232.8-24-349.6-30.9
			c-66-3.9-132.4-3-197.2,12c-167.7,38.9-273.9,150.1-347,299.4c-8.6,17.6,2.3,16.6,13.7,17c153.2,4.7,306.3,9.2,459.5,14.7
			c17.2,0.6,22.1-7.6,27.3-20.9c36.7-95.2,97.7-170.2,185.8-222.8C1198.7,1011.7,1278.4,997.2,1361.6,992.6z M2296.8,1101.5
			c15.9,0,31.9-1.3,47.6,0.4c14.7,1.5,19.9-4.5,22.6-17.9c19-92.3,63-169.4,139.1-226.7c6-4.5,11-8.3,5.6-17
			c-12.7-20.6-11.3-43.9-11.2-66.8c0.2-40.4,15.5-71.9,53.8-89.3c37.4-16.9,71.9-13.7,102.5,15.2c5.5,5.2,8.7,7.9,17.3,2.5
			c50-31.4,108.6-9.4,128.6,47c15.7,44,8.2,83.3-23.9,117.3c-13.5,14.2-14.5,26.5-3.3,43.7c18.9,28.9,29.5,62,36.2,95.9
			c9.5,47.9,11.4,96.4,2.3,144.5c-4.2,22.3,14.3,27.3,25.9,34.5c10.8,6.6,14.7-9.1,19-16.4c79.7-136.1,88-273.5,0.3-408.8
			c-94.3-145.3-314.8-211.9-472.8-101.3c-154.6,108.2-211.1,263.9-213.5,445.4c-0.2,15.3,7.9,12.1,16.7,9.5
			C2224.6,1102.9,2260.6,1100.8,2296.8,1101.5z M1095.8,2023.9c-66.1,0-132.5,4.1-198.2-1.3c-51.3-4.2-75.8,21-94.7,60.9
			c-9.5,20.1-15,41.1-16.5,63.5c-2.4,37.2,3.9,73.8,4.8,110.7c0.4,16.2,6.7,23.1,19.9,29.5c116.5,56.5,237.9,79.7,366.9,58.3
			c77.7-12.9,137.9-47.9,164-126.4c19.1-57.3,18.3-115.9,7.6-175c-3.1-17.1-10.8-20.6-26.5-20.5
			C1247.5,2024.3,1171.7,2023.9,1095.8,2023.9z M2132.8,1132.8c-9.3-6.8-16.3-12-23.4-17.2c-40.8-29.8-76.7-64.3-108.1-104.1
			c-10.6-13.4-6.2-18.5,5-26.2c14-9.6,18.7,1.8,25,9.6c30.3,37.2,63.7,70.9,104.8,96.8c2.2-3.8,2.9-4.5,3-5.2
			c0.4-4.4,0.9-8.8,1-13.1c4.4-137.4,46.9-260.7,137.8-365.3c15.7-18.1,0.2-19.7-9.9-24.3c-150-67.4-292.3-53-427.5,40.1
			c-15.6,10.8-15.6,17.4-4.4,32.1c59.5,78.3,93.6,166.7,99.9,265.2c4.6,72.1,1,144.4,2.2,216.6c0.2,9.1,0.9,18.3,1.6,32.8
			C1997.8,1210.5,2060.2,1165.9,2132.8,1132.8z M797.6,2023.9c-67.7,0-131.7-0.8-195.8,0.2c-78.7,1.3-154.2-12.2-225.7-45.6
			c-10.7-5-18.8-5.2-29.2,1.3c-74.3,46.5-155.7,73.1-242.5,83.9c-10.7,1.3-20.6,1.7-23.4,15.9c-2.8,14.3,1.2,23.6,13.5,30.8
			c22,12.9,43.1,27,62.5,43.9c37.7,32.9,65.8,73.2,90.7,116c27.8,47.7,68.7,74.9,122.8,87.2c69.4,15.9,138.3,9.7,207.4,1.7
			c47.1-5.4,95.1-4.5,141.1-18.2c30.7-9.2,38-21.5,33.6-56.2c-9.2,4.1-17.9,8.2-26.7,11.8c-50.1,20.3-101.6,34.9-156.2,34.2
			c-132.5-1.8-173.5-109.6-131-209c13-30.4,37.1-49.6,70.8-52c66.8-4.9,133.6-7.3,200.4,0.7c19.4,2.3,38.6,24.4,54.4,12.3
			C779.5,2071,785.3,2047,797.6,2023.9z M1378.6,1318.9c68.6,0,137.2-0.3,205.8,0.2c13.4,0.1,22-1.1,20.7-17.9
			c-3.2-43.9-6.9-87.6-21.4-129.7c-4.5-13.1-11.7-19.2-25.9-21.7c-63.6-11.2-127.6-15.7-191.9-9.8c-56.6,5.2-110.9,18.8-158.2,52.6
			c-29.2,20.8-47.2,49-55.5,83.7c-2.5,10.6-2.7,18.6,1.3,23.6c5.9,7.5,18.2,6.7,22.1,6.6C1198.7,1305.6,1272.2,1310.5,1378.6,1318.9
			z M1388.2,2174.3c22.4-12.6,41-23.9,60.5-33.7c21.5-10.8,44.6-17,68.9-14.8c6.4,0.6,20.8-3.3,17.4,11.5
			c-2.2,9.6-0.3,24.6-18.8,22.6c-28.8-3.1-52.7,10.8-77,23.6c-25.8,13.6-46.4,31.7-42.4,63.5c4.5,36,20.7,65.8,58.4,77.5
			c41.4,12.8,81.5,5.9,121.2-9.2c81.4-31,100.1-62.9,88.8-148.9c-9.2-69.9-47.2-113-114.8-132.2c-52-14.8-104.9-9-157.6-10.2
			c-9.2-0.2-12,3.1-10,12.9C1391.6,2081.2,1391.6,2126,1388.2,2174.3z M1557.5,1114.1c-17.2-25.9-27.5-50.7-53.9-58.8
			c-67.1-20.6-135.8-30.2-206-21.3c-154.3,19.7-259.6,104.2-321.7,245.2c-6,13.5-6.6,21,11.8,21.1c37,0.4,74,1.7,111,3.4
			c12.1,0.6,16.7-3,18-15.6c8.6-79.3,58.2-125.7,127.9-153.9c72.6-29.3,148.7-34.9,226-29
			C1497.7,1107.3,1524.7,1110.7,1557.5,1114.1z M2785.6,1085.8c-0.9-75.1-18.4-144.7-70.3-201.9c-35-38.5-77.6-49.1-127.1-32
			c-20.1,7-39,16.2-56.3,28.5c-69.9,50-110.5,119-130.9,201.3c-4.4,17.8,1.9,23.7,18.8,24c19.3,0.4,38.8,1.1,57.9,3.7
			c14.8,2,20.3-3.3,22.7-17.4c5.9-35.3,19.7-67.4,41.9-95.7c49.9-63.5,110.8-60.2,153.4,8.3c21.9,35.3,31.1,74.5,32.3,115.6
			c0.4,11.7,2.1,18.2,15.7,21.8c39.1,10.2,39,11.2,41.9-29.9C2786.1,1103.4,2785.6,1094.6,2785.6,1085.8z M1700.9,1951.4
			c53.6,12.8,81.1,46.9,85.5,105.1c3.4,45.6-20.9,82.3-65.4,100.3c-8.4,3.4-23.3,1.1-20.4,18.1c2.6,15.5-2.4,31.9,17.6,42.7
			c76.8,41.6,170.9,13.8,210.1-64c3.6-7.1,7.6-13.5,1.1-21.6c-35.2-43.8-50-96.8-50.3-150.1c-0.4-57-34-72.6-77.4-84.5
			c-5.1-1.4-10.5-1.9-15.4-3.6c-6.7-2.4-11.7-0.4-16.9,3.8C1746.8,1915.6,1724,1933.3,1700.9,1951.4z M649.7,2178
			c27.3,0,54.6,0.2,81.8-0.2c6.4-0.1,14.1,2.8,18.5-5.7c12.8-24.2,2.9-52.3-23.2-61c-14-4.7-28.9-7.5-43.6-9.1
			c-55.2-6.1-110.5-0.1-165.7,0.8c-21.7,0.3-37.6,11.8-47.7,31.9c-41.2,81.3,6.4,162.1,97.3,162.8c61.9,0.5,119.2-18.7,174.6-45
			c15.2-7.2,14.7-17.8,12.9-30.2c-2.3-15.5-14.9-9.3-23.1-9.4c-53.7-0.6-107.3-0.6-161-0.1c-13,0.1-19.4-3.3-19.5-17.5
			c-0.1-14.4,6.7-17.8,19.6-17.5C596.9,2178.4,623.3,2178,649.7,2178z M781.3,1330c0-0.6,0-1.2,0-1.8c-17.6-0.8-35.1-1.8-52.7-2.2
			c-5.7-0.1-12.8-2.6-15.7,5.5c-14.9,42.1-27.4,84.1-0.4,126.4c23.8,37.3,58.8,42.7,89.8,11.9c31.8-31.6,49.2-69.7,49.3-115.6
			c0.1-19.2-5.7-26.9-25.6-24.6C811.3,1331.4,796.2,1330,781.3,1330z M1271.1,1341.2c-13.2,0-26.5,1-39.5-0.3
			c-15.1-1.5-22.1,3.1-24.3,18.9c-5.4,38.2-4.2,75.7,11.2,111.3c17.7,41.1,63.2,47.6,93.1,13.8c16.9-19.1,24.3-42.2,25.5-67.7
			C1340.6,1345.6,1340.8,1345.6,1271.1,1341.2z M2693.9,1111.9c-3.6-42.3-14.7-80.8-44.8-111c-20.6-20.6-38-21.7-60.6-3.5
			c-32.5,26.2-46.9,62.7-55.8,102.1c-3,13.2,5.2,14.1,14.7,15.2c42.8,4.6,85.7,9.1,128.4,14.7
			C2691.9,1131.3,2697.4,1126.2,2693.9,1111.9z M2533.3,779.6c0.9,8.1,2.1,16.8,2.8,25.6c1.8,22.5,10.8,28.8,32.7,18.4
			c18.1-8.7,38.4-12.5,58.9-12.6c6.8,0,13.4,0.8,18-7.3c12-21.1,2.2-69.3-18.2-85.4c-20-15.8-53.7-12.3-75,7.6
			C2536.8,740.3,2534.7,759.4,2533.3,779.6z M1752.9,2065.6c-0.9-6.1-1.7-12.2-2.7-18.3c-8.5-56.9-41.6-73.4-90.3-44.6
			c-7.9,4.7-13.4,13.3-21,18.6c-11.1,7.8-10.5,13.2,0.2,21.3c20,15.2,33.9,35.3,42.9,58.9c11.5,29.9,24.8,32.7,49.7,10.9
			C1745.9,2100.1,1751.5,2083.8,1752.9,2065.6z M2775.8,793.3c-0.1-32.3-11.9-53.6-37.4-68.4c-26.2-15.3-51.2-2.1-54,28.6
			c-3.4,37.5-10.2,76.3,38.9,91.7c3.8,1.2,6.6,5.6,9.8,8.6c4.2,3.8,8.3,6.7,12.6,0.1C2758.3,834.6,2779.5,819.5,2775.8,793.3z
			 M1865.5,1785.9c-21.6,28.5-39.4,52.1-58.1,76.9c19.8,7.5,38.6,14.5,58.1,21.9C1865.5,1851.9,1865.5,1821.7,1865.5,1785.9z"/>
		<path class="st0" d="M2433.2,1999.1c-20.4-77.3-41.3-153.1-59.9-229.5c-5.4-22.4-14.8-32.9-38.1-37.7
			c-180.1-37.3-291.8-198-265.6-379.6c4.7-32.3,10.9-64.2,22.4-94.8c3.8-10.1,4.9-20.2,21-12.9c12.5,5.7,16.5,9.7,11.4,24.1
			c-24.9,70.3-33.8,142.5-13.9,215.4c31.7,116.5,111,186.4,225.4,214.3c132.1,32.2,249-1.7,342-101.1
			c92.5-98.9,113.9-216.8,78.3-346.5c-2.2-8-15.2-18.5,0-27c14.9-8.3,25-7.9,30.8,12.2c40.7,140,17.2,266.7-78,378.1
			c-45.1,52.7-102,89.1-168.2,109.7c-15.5,4.8-22.7,12.8-27.2,27.8c-22.8,75.7-46.7,151.1-70.1,226.7
			C2441.4,1985.1,2440.5,1992.1,2433.2,1999.1z M2400.7,1744c11.9,44.4,23.3,86.8,34.7,129.3c17.6-40,29.9-79.3,42.3-118.5
			c3.9-12.4-0.4-15.1-12.7-13.9C2445,1742.9,2424.8,1743,2400.7,1744z"/>
		<path class="st0" d="M2628.7,1232.7c26.2-23.9,26.4-24.1,45.9,4.6c47.3,69.5,68,145.4,46.7,228.2
			c-21.2,82.2-78.1,131.8-157.3,156.3c-83.9,25.9-169.9,32.1-255.7,12.8c-127.8-28.9-193.5-144.8-159.7-275.7
			c8.4-32.7,22.4-62.9,40.2-91.5c6.7-10.8,12.5-15.3,24.7-6.1c10.5,8,11.8,13,4.1,24.9c-32.8,51-50.9,106.5-41.4,167.9
			c12.5,81.3,65.8,135.3,149.2,150c73.9,13,147.7,9.4,219.7-11.5c124.7-36.3,179-143.5,137.1-266.5
			C2670.3,1291.4,2651.9,1260.7,2628.7,1232.7z"/>
		<path class="st0" d="M2174,2028.3c-59.4,0-107.2-47.9-107.1-107.4c0-59.5,48-107.5,107.3-107.5c59,0,107.4,48.6,107.4,107.7
			C2281.4,1980.4,2233.4,2028.3,2174,2028.3z M2246.8,1922c0.4-42.9-29.7-73.5-72.4-73.6c-42-0.1-74.6,31.8-74.3,72.8
			c0.2,39.2,33.1,72.4,72.3,73C2214.5,1994.9,2246.4,1964,2246.8,1922z"/>
		<path class="st0" d="M2661,1784.9c60.2,0.3,106.2,47.3,105.5,107.8c-0.6,60.1-47.9,106.2-108.1,105.6
			c-60.1-0.7-106.1-47.8-105.6-108.2C2553.4,1830,2600,1784.7,2661,1784.9z M2733.4,1891.9c0.3-40.1-34-74.6-74-74.4
			c-39.1,0.2-72.6,33.2-73.6,72.2c-1,40.6,31.9,74.5,72.8,75.1C2699.8,1965.3,2733.1,1932.9,2733.4,1891.9z"/>
		<path class="st0" d="M2532.8,1423.3c0,50.9-39.1,90.8-89.4,91.3c-51.2,0.5-91.1-40-91-92.3c0.2-51.1,38.9-90.7,89.3-91.3
			C2492.8,1330.4,2532.8,1371,2532.8,1423.3z M2442.7,1480.2c31.6-0.1,57-24.8,57.6-56.3c0.7-32.6-25.1-58.4-58-58.3
			c-31.9,0.1-57,24.5-57.6,56.1C2384,1454.1,2410,1480.3,2442.7,1480.2z"/>
		<path class="st0" d="M1064.2,2250.8c-48.8,0.2-86-35.9-86.2-83.6c-0.2-46.6,38.7-85.7,85.5-85.9c47.1-0.2,85.8,38.1,86,85.3
			C1149.7,2214.7,1113.4,2250.6,1064.2,2250.8z M1064.4,2116.1c-30-0.4-52,21.2-51.9,50.9c0.1,28.3,21.4,50.6,49.4,51.6
			c28.9,1,52.3-21.4,52.7-50.5C1115.1,2137.2,1095.2,2116.5,1064.4,2116.1z"/>
	</g>
</g>
</svg>
