<?xml version="1.0" encoding="utf-8"?>
<!-- Generator: Adobe Illustrator 23.0.0, SVG Export Plug-In . SVG Version: 6.00 Build 0)  -->
<svg version="1.0" xmlns="http://www.w3.org/2000/svg" xmlns:xlink="http://www.w3.org/1999/xlink" x="0px" y="0px"
	 viewBox="0 0 3000 3000" style="enable-background:new 0 0 3000 3000;" xml:space="preserve">
<style type="text/css">
	.st0{stroke:#000000;stroke-width:10;stroke-miterlimit:10;}
</style>
<g id="Layer_1">
</g>
<g id="Layer_2">
	<g>
		<path class="st0" d="M2856.1,1256.6c-25.8-53.1-59.2-95.8-94.5-137.8c-29.4-35-63.3-49.7-109.3-51.3
			c-197-6.6-370.4,51.9-520.5,179.8c-5.6,4.7-11,16.5-19.9,9.4c-11.1-8.9-19.8-21-28.8-32.3c-0.5-0.6,5.6-7.1,9.2-10.3
			c111.5-98.3,240.3-160.8,386.8-186.6c49.9-8.8,100.2-11.9,152.4-12c-3.3-8.1-9.3-10.2-14.1-13.4c-46.1-30-95.5-53.7-146.1-75
			c-16.3-6.9-32.9-4.1-49.3-3c-201.7,14-380.5,85.4-535.2,215.9c-10.3,8.7-16.1,8.1-22.9-2.1c-1.1-1.7-2.8-3.1-4.2-4.6
			c-19.4-21.5-19.6-21.7,2.6-39.9c133.9-109.7,285.8-180.2,456.8-208.7c4-0.7,7.8-2.1,16.4-4.5c-49.3-15.1-95.2-22.7-141.5-27.5
			c-227.9-23.4-441.2,27.7-644.4,128.6c-9.3,4.6-15.8,7.2-5.1,18.2c90.5,92.8,133.9,207.8,153,333.2c27.2,179,24.6,357.1-20.2,533.5
			c-1.8,7,0.7,20.4-10.6,19c-14-1.7-29.6-3.4-41.1-12.4c-5.4-4.2,1-13.1,2.6-19.5c25.1-101,37.8-203.5,35.6-307.5
			c-2.2-105.7-10.3-210.8-41-312.9c-42.2-140.3-134-240.8-258.8-310.6c-256.7-143.6-525.3-171.8-795.4-47.8
			C315.2,991,163.7,1194.8,119.8,1471.3c-33.2,208.5,24.5,397.4,144,569c27,38.8,56.7,75.5,90.3,108.9c8.4,8.3,10.5,12.8,1.1,22.6
			c-24.8,26.1-24.3,26.8-48.4,1.1C183,2041,99.6,1887.9,71.4,1708.2c-39.6-252.7,27.1-477.6,194.5-669.3
			C451.4,826.6,689.6,734.5,970,751.4c178.1,10.7,342.5,63.8,485.7,171.6c32.7,24.6,53.6,23,87.5,6.1
			c194.3-96.8,400.1-148.3,617.8-129.9c243.2,20.6,461.2,105.6,634.3,283.5c128.2,131.8,182.6,294.8,176.5,477.1
			c-7.2,215.9-94.1,400.1-231.9,562.9c-7.8,9.2-12.1,9.1-20.9,1.4c-26.8-23.5-27.4-23.2-4.5-51c24.7-30.1,47.5-61.6,69.3-93.8
			c8.1-12,9.1-17.8-7.6-21.1c-99.5-19.4-199.7-34.3-300.7-43c-105.4-9.1-211-9.7-316.6-6.3c-12.9,0.4-14.8-4.3-15-15.2
			c-0.5-39.9-7.9-35.4,33.3-36.6c179.7-5.4,358.1,5.6,535.1,37.6c32,5.8,64,12.2,95.8,19.1c8.8,1.9,14.3,1.3,18.3-7.6
			c10.2-22.8,20.4-45.6,31.6-67.9c6-11.9,1-13.3-9.4-15c-107.1-16.8-214.8-27.5-323.1-32.6c-96.5-4.5-193.1-6.8-289.6,0
			c-12.3,0.9-16.8-2.3-17.2-15.6c-1.1-35.4-1.9-36.1,33.2-37.2c159.2-5.2,318.1-0.8,476.4,18.1c44.8,5.3,89.5,11.4,134.1,18.2
			c14.2,2.2,21.7-0.2,25-15.5c5.3-24.4,12-48.5,18.8-72.5c3.2-11.5-0.5-15.7-11.9-18.2c-118.7-26.4-238.7-36.7-360.1-29.5
			c-78.5,4.7-156,15.8-232.3,35.3c-12,3.1-17.1,0.2-20.2-11.9c-8.9-34.7-9.3-34.4,24.6-42.1c196.7-45,393.7-45.9,590.8-3.1
			c15.8,3.4,21,1,21.9-15c2.1-37.5,2.4-75,1-112.5c-0.4-10.5-4.8-13.9-14.8-15.7c-94.2-17-189-21.3-284.3-14.5
			c-117.1,8.4-230.3,34.4-339.1,78.6c-14,5.7-20.3,2.9-24.3-10.5c-1.8-6-3.8-12.1-7-17.3c-6.8-11.2-1.1-15.4,8.8-19.3
			c75.9-29.4,153.5-52.6,233.7-66.8c131.8-23.3,263.8-25.3,396.1-4.5c22.6,3.6,22.8,3.1,17.9-19.7c-1.9-8.8-5.7-17.4-6.4-26.3
			c-3.6-44.3-30.3-61.3-71.4-71.1c-215.9-51.7-415.8-18.1-600.4,105.7c-6.8,4.6-14.2,16.6-22.8,9.1c-10.2-8.8-17.5-21.4-24.7-33.2
			c-3.3-5.4,4-7.7,7.7-10.3c113.3-80.4,238.7-128.2,377.4-141.9C2663.1,1221.6,2757.8,1231,2856.1,1256.6z"/>
		<path class="st0" d="M611.6,1516.6c3.5-173.5,145.3-312.3,314.8-308.3c173.8,4.1,311.5,145.1,308,315.4
			c-3.6,172.9-146.3,311.7-316,307.4C745.8,1826.7,608.2,1685.7,611.6,1516.6z M923.3,1779.5c143.6-0.3,259.4-116.1,259.5-259.7
			c0.1-143.6-115.4-259.5-259.2-259.9c-144.6-0.4-261,116.1-260.4,260.7C663.7,1664.3,779.7,1779.8,923.3,1779.5z"/>
		<path class="st0" d="M1344,1698.7c36.5-0.1,66.4,29.4,66.5,65.9c0.2,36.2-29.8,66.5-65.9,66.8c-35.9,0.2-66.7-30.2-66.8-66.2
			C1277.6,1729.2,1307.8,1698.9,1344,1698.7z"/>
		<path class="st0" d="M280.4,1790.3c-0.2-37,28.7-66.3,65.6-66.5c36.4-0.2,66.7,29.5,66.9,65.6c0.2,36.1-30,66.7-66,66.9
			C310.5,1856.5,280.6,1826.8,280.4,1790.3z"/>
		<path class="st0" d="M1410.5,1365.1c-37.2,0.4-66.5-28.1-66.9-65.1c-0.4-36.7,28.5-66.6,65.1-67.4c35.9-0.7,66.3,29.2,67.2,65.8
			C1476.7,1332.6,1444.4,1366.8,1410.5,1365.1z"/>
		<path class="st0" d="M1494.5,1519.8c-0.1,36.9-29.4,66.3-66.1,66.3c-36.1,0-66.2-30.4-66.1-66.7c0.1-36.2,30.7-67.9,66.6-66.2
			C1467.6,1455.1,1495,1483.1,1494.5,1519.8z"/>
		<path class="st0" d="M234,1520.4c-0.2-37,28.3-66.7,65-67.6c35.5-0.9,66.5,29.8,66.8,66c0.3,37.5-29.9,67.6-67.3,67.3
			C263.3,1585.8,234.2,1556.2,234,1520.4z"/>
		<path class="st0" d="M604,972.8c38.3,0,66.1,27.2,66,64.6c-0.1,37-29.3,66.3-65.8,65.9c-37.7-0.4-66-28.6-65.9-65.7
			C538.3,1000.1,565.9,972.8,604,972.8z"/>
		<path class="st0" d="M1274.6,1102.4c0.2,36.8-29,66.5-65.5,66.7c-36.7,0.2-66-28.9-66.2-65.8c-0.2-36.9,29.1-67.1,65.3-67.4
			C1244.1,1035.6,1274.4,1066,1274.6,1102.4z"/>
		<path class="st0" d="M1048.8,1945.1c-0.1,36.9-29.4,66.4-65.9,66.3c-36.5-0.1-65.8-29.8-65.7-66.5c0.1-36.1,30.1-66.4,66-66.8
			C1018.7,1877.8,1048.9,1908.5,1048.8,1945.1z"/>
		<path class="st0" d="M623.4,1945.1c-0.1,36.9-29.4,66.4-65.9,66.3c-36.5-0.1-65.9-29.9-65.8-66.5c0.1-36,30.1-66.4,66-66.8
			C593.3,1877.7,623.4,1908.5,623.4,1945.1z"/>
		<path class="st0" d="M393.2,1299.7c-36.9,0-66.2-28.9-66.7-65.7c-0.5-36,29.7-65.9,66.4-65.9c36.9,0,66.5,29,67,65.6
			C460.2,1269.5,429.6,1299.8,393.2,1299.7z"/>
		<path class="st0" d="M940.4,1103.4c-36.9,0.4-66.9-28.4-67.6-64.9c-0.6-36.1,29.1-66.3,65.7-66.8c36.8-0.5,66.8,28.5,67.4,65
			C1006.5,1073.1,977.2,1103,940.4,1103.4z"/>
		<path class="st0" d="M923.7,1615.2c-37.9,1.2-74.6-5.3-109.6-20.1c-18.1-7.6-34.6-17.6-48.7-31.3c-35.4-34.4-35.7-77.2-0.4-111.5
			c21.9-21.3,48.8-33.9,78-41.7c62.1-16.8,123.5-14.9,183.9,8.1c17.6,6.7,34,15.8,48.2,28.2c43.1,37.6,42.8,86.6-1.3,122.8
			c-36.9,30.3-80.9,41.4-127.3,45.4C939.1,1615.8,931.4,1615.2,923.7,1615.2z"/>
	</g>
</g>
</svg>
