<?xml version="1.0" encoding="utf-8"?>
<!-- Generator: Adobe Illustrator 23.0.0, SVG Export Plug-In . SVG Version: 6.00 Build 0)  -->
<svg version="1.0" xmlns="http://www.w3.org/2000/svg" xmlns:xlink="http://www.w3.org/1999/xlink" x="0px" y="0px"
	 viewBox="0 0 3000 3000" style="enable-background:new 0 0 3000 3000;" xml:space="preserve">
<style type="text/css">
	.st0{opacity:0.56;}
	.st1{stroke:#000000;stroke-width:10;stroke-miterlimit:10;}
</style>
<g id="Layer_1" class="st0">
</g>
<g id="Layer_2">
	<g>
		<path class="st1" d="M841.4,1309.3c122.3-88,228.4-191.6,354.3-268.9c-0.5-6.3-6.2-5.5-9.8-7.1c-32.2-14.8-47-42.2-40.8-77.6
			c9.9-56.7,40.1-100.8,85.4-135.2c5.8-4.4,11.5-8.8,20.1-15.4c-17.1-3.6-29.9,1.9-42.6,5.2c-44.9,11.8-80.6,38.7-113.9,69.9
			c-29.3,27.5-56.1,31.3-81.7,14.2c-27.4-18.4-37.6-54.6-25-89c10.5-28.6,30.9-49.3,57.3-62.1c80.9-39,164.8-69,255.2-76.3
			c31.1-2.5,62.1,0.3,92.4,7.7c11.3,2.8,16.3,1.6,17.8-12.4c19.1-175.8,203.1-207.5,314-133.3c33.8,22.6,59.4,53,79.2,88.4
			c13,23.3,24.4,25.7,44.6,8.8c56.9-47.5,117.9-88.9,182-126.1c11.6-6.7,16.3-4.7,20.9,6.4c3.9,9.4,14.5,17.2-2.3,26.5
			c-63,34.5-121.8,75.3-178.9,123.5c51.1,29.7,92.6,70.5,143.8,97.2c27.2,14.2,56.1,22.3,87.5,19.8c13.9-1.1,22.5-5.5,27.8-19.9
			c15.4-41.4,33.1-81.9,49.1-123.1c5-12.8,9.9-18.4,25.5-14.3c30.6,8,62.1,12.4,93,19.4c11,2.5,19.3,0.2,28.8-5.3
			c35.4-20.6,72.4-28.8,112.1-11.8c47.2,20.2,60.2,62.9,66.8,107.1c2.9,19.9,9.4,21.3,25.6,20.4c121.8-6.3,243.6-12,365.4-17.7
			c14-0.7,28-0.7,40.3,8.4c15.4,11.4,19.1,27.1,18.6,45c-3.6,121.7-22.8,241.1-56.4,358c-18.7,65.3-38.5,130.4-71.9,190.2
			c-39.7,71.1-97.9,112.3-181.5,113.9c-105.9,2.1-211.1-6.7-316.3-16.6c-9.4-0.9-18.8-1.8-30.4,0.8c8.2,6.7,16.5,13.2,24.7,20
			c82.5,69.1,146.3,150.5,165.8,259.6c21.1,118.3-16.4,219.9-91.7,310c-16.6,19.9-34.4,38.8-54.3,55.4c-9,7.5-11.9,11.6-0.3,21
			c81.3,65.8,101.4,151.9,77.8,250.1c-11.9,49.5-36.8,93.2-72,130.5c-30.8,32.5-67.5,37.4-107.5,21.9
			c-35.8-13.8-64.6-38.2-91.3-67.3c-21.9,27.6-43.6,54.5-64.8,81.8c-27.1,34.8-50.3,42.2-92.8,29.6c-52.8-15.7-95.1-46.4-128.9-91.3
			c-11.3,13.7-21.1,27.2-32.6,39.1c-45.7,47.1-102.5,49.6-151.6,6.4c-18.3-16.1-34.6-34.4-51.8-51.6c-17.3-17.3-30.1-38.2-45.1-59.1
			c-35.5,32.8-63.8,70-86.6,111.6c-5,9-9.6,18.4-15.8,26.5c-16.4,21.6-39.1,23.2-55.8,2c-44.8-56.7-94.1-110.3-128.3-174.7
			c-6.5-12.3-11.8-11.2-21.6-4.7c-38,25.4-76.5,50.3-114.8,75.3c-51,33.2-89.2,21.6-111.3-35.5c-36.8-95.2-46.7-193.6-28.7-294
			c4-22.1,1.7-37.1-14.9-54.3c-63.4-66.3-105.4-143.9-113.3-237.1c-9.2-107.3,28.7-198.5,96.7-279
			c68.2-80.8,154.6-136.9,250.9-177.8c24.1-10.2,22.7-28.1,25-45.9c2.2-17.1-9.4-27-23.7-33.6c-13.5-6.3-27.3-10.9-42.7-8.4
			c-9.5,1.6-19.9,3.5-28.4-1.3c-20.4-11.3-35.2-1.6-51.5,9.6c-91.3,62.7-182.9,124.8-274.7,186.7c-11.4,7.7-16.2,16.2-17.7,30.3
			c-11.9,119-25.1,237.9-37.6,356.8c-11.1,105.7-21.9,211.5-33,317.2c-5.2,49.9-11.4,99.8-16.1,149.7c-1.2,12.1-6.6,18.1-16.8,23.1
			c-51.4,24.9-102.2,24.2-153.5-0.7c-11.5-5.5-14.4-13-13.1-24.5c14.3-125.4,28.7-250.8,42.7-376.3
			c15.6-140.2,30.5-280.4,46.1-420.6c14.1-126.9,28.7-253.8,42.8-380.8c14-126.9,27.3-253.9,41.8-380.7c2.3-20.4-0.7-42.5,9.5-60.8
			c18.2-33.1,48-49.2,85.8-48.7c35.2,0.4,61.9,16.8,81.2,46.1c5.1,7.8,2.8,15.5,2,23.5c-16.8,162.3-33.5,324.5-50.4,486.8
			C850.9,1228.5,846.2,1267.1,841.4,1309.3z M2291.4,2065.6c33.1-23.7,58.5-50.1,81.9-78.4c108.6-131.2,112.3-290.4,8.5-425.4
			c-73.5-95.5-172.3-156.9-282.9-199.1c-242.3-92.3-488.7-98.7-737.2-27.2c-123.8,35.6-236.6,92.8-327.6,186.3
			c-132.7,136.5-145.5,306.7-34.9,453.6c29.3,38.9,63.9,72.6,104.1,100.7c2-3,3.3-4.1,3.3-5.3c0.5-6.6,0.9-13.3,1-19.9
			c2-88,17.9-173.4,50.1-255.3c65.1-165.5,179.9-274.9,357.5-311.4c76-15.6,153.1-12.5,229.9-10.2c84.9,2.6,170.1,5.3,253.1,26.4
			c159.1,40.5,260.4,138.5,296.6,300.3c14.2,63.4,15.4,127.5,7.6,191.8C2299.8,2015.8,2295.6,2038.8,2291.4,2065.6z M2234.8,2104.4
			c10-4.5,10.5-10.2,11.7-14.9c23.7-92.7,33.1-185.9,12.6-280.7c-22.4-104.1-78.3-183.3-171.3-236.2c-14.5-8.2-20.4-6.7-26.5,10
			c-20.8,57.3-49.9,110.4-87.5,158.5c-52,66.5-115.7,115.9-200,134.3c-92.5,20.2-168.1-6.2-224-83.2
			c-52.4-72.2-71.1-154.9-69.4-242.7c0.3-15.1-1.8-19.2-17.5-13.6c-71,25.5-132.7,65-181.9,122.3c-75.1,87.5-111,192-128.4,304
			c-5.5,35.5-9.1,71.4-7.2,107.5c19.9-84.8,38.3-169.7,55.3-255c3.5-17.6,12.2-14.9,24.5-13c13.5,2.1,16.2,6.3,13.1,20.4
			c-20.3,90.6-39.4,181.5-58.7,272.4c-7,32.9-5,35.7,29.5,44.4c6.1-35.7,12.4-71.3,18.3-106.9c10.7-64,21.2-128,31.5-192.1
			c2.1-12.8,7-18.3,20.7-13.6c9.5,3.3,21.1-0.2,17.3,18.9c-12.4,62.9-22.1,126.4-32.8,189.6c-6.1,36.4-11.5,72.9-18.5,109.1
			c-4.2,21.7,13.1,22.5,24.8,26.2c16.7,5.3,10.2-11,11.2-17c9.3-54.5,17.4-109.3,26-163.9c6-38.6,12.5-77.2,18-115.9
			c2.3-16.2,11.2-13.1,22.2-10.7c10.2,2.2,19.5,0.6,15.4,17.8c-6.6,27.1-9.2,55.3-13.5,82.9c-10.9,69.2-21.6,138.5-33,207.7
			c-2.7,16,5.2,21.2,18.3,23.6c16.1,2.9,11-10.6,12.4-17.4c18-86.7,35.7-173.4,52.7-260.3c2.3-11.6,4.5-15.2,18-14.1
			c21,1.7,21.1,11.8,17.8,27.7c-16.3,78.7-32.5,157.3-48,236.2c-8.7,43.9-8,43.6,36.5,53.5c12.1,2.7,15.9,2.2,16.8-12
			c4.6-74.5,11.1-148.8,15.7-223.3c1-15.6,5.9-19.1,20.9-19c17.2,0.1,17.1,9.2,16.3,21.2c-4.8,69.3-9.1,138.6-14.2,207.8
			c-2.8,38.1-3.3,38.1,35.9,42.3c1.5,0.2,3,0.1,4.4,0.5c12.9,3.7,16.8-2,17.4-14.4c2.9-57.6,6.6-115.1,9.4-172.7
			c0.6-11.9-0.4-22,17-20.6c14.7,1.2,22,3.5,20.5,21.8c-4.8,56.7-7.4,113.6-10.2,170.4c-0.5,9.6-6.1,23.3,13.2,23.7
			c19,0.3,12-13.5,12.2-21.9c0.8-54.7,1-109.4,0.6-164.1c-0.1-13.1,1.5-20.3,17.6-19.5c14.1,0.7,21.1,2.5,20.6,19.3
			c-1.6,56.2-1,112.4-2.5,168.5c-0.4,16.2,3.6,21.7,20.5,22.1c16.9,0.4,18.9-6.8,19.6-20.8c3.3-61.2,8.1-122.4,11.5-183.6
			c0.8-13.7,5.3-16.4,18.8-16.1c18.5,0.5,19.5,9.9,18.5,24c-4.3,58.2-8.5,116.4-12.1,174.7c-0.5,8.6-7,23.9,11.8,20.8
			c13.6-2.3,36.4,11.1,35.8-20.2c-1.1-59.1,0-118.3-0.5-177.4c-0.1-13.5,0.6-21.8,18.2-21.7c17.1,0.1,18.8,7.4,18.6,21.4
			c-0.6,58.4-0.3,116.8-0.2,175.2c0,5.8-1.6,16.1,2.6,16.4c14.5,0.9,29.4-0.5,43.8-2.8c10.4-1.6,7.2-11.6,7.4-18.3
			c2.4-68,5-135.9,6.2-203.9c0.3-16.2,4.3-21,21.1-21.2c18.2-0.2,16.2,9.6,15.9,20.9c-1.8,66.5-3.5,133-4.9,199.5
			c-0.1,5.2-3.8,12.8,4.6,14.8c6.5,1.6,13.7,0.2,19.1-3.8c6.2-4.7,3.3-12.4,3.2-18.6c-1.9-68-3.5-136-6.6-203.9
			c-0.8-17.2,1.5-25.2,21.4-25.9c23.3-0.8,15.8,14.8,16.1,25.3c2.3,65.7,3.8,131.5,5.9,197.3c0.2,5.9-3,14.1,6.4,16.7
			c18.3,5.1,41-12.5,40.7-31.7c-1-84.3-1.8-168.6-3.5-252.8c-0.3-13.1,1.8-17.6,16.1-18.3c18.2-0.8,22.2,5.8,22.2,22.7
			c-0.1,79.8,0.7,159.7,1.8,239.5c0.1,5.8-5.2,19.2,6,16.8c24.5-5.1,48.1-14.2,70.4-25.9c5-2.6,2.5-9.5,2.7-14.4
			c1.6-52.5,3-104.9,4.5-157.4c1.5-51,3.7-102,4.3-152.9c0.2-19.5,12.5-15.3,24-16.1c14.3-1.1,15,6.5,14.5,17.7
			c-1.5,38.4-2.1,76.8-3.3,115.3c-1.8,57.6-4.1,115.2-5.5,172.9c-0.1,4.8-6.3,14.8,6.2,14.4c18.9-0.6,38.9-22.4,38.8-41.8
			c-0.4-101.3-0.8-202.6-1.4-303.9c-0.1-13.9-1.8-25,19.5-25.2c22.8-0.2,18.2,13.2,18.2,25.7c0.1,77.6,0,155.3,0,232.9
			C2234.8,2058.2,2234.8,2080,2234.8,2104.4z M2307.7,1388.1c112.6,10.5,222.2,20.5,332.5,19.1c58.9-0.8,106-24.1,139-73.2
			c11.9-17.7,22.9-36.4,31.1-56c65.9-157.8,98.9-322.8,107.3-493.2c0.8-16-5.7-21.5-20.7-20.4c-20.6,1.5-41.3,2.9-62,3.9
			c-111.5,5.2-223,9.9-334.4,15.5c-40.6,2.1-55.3,14.6-68.1,53.3c-3.5,10.5-7.5,20.8-10.4,31.5c-4.1,15.2-11.5,27.9-27.4,31.9
			c-10.8,2.7-8.7,10.2-9.1,17.1c-2.2,40.8-9.9,80.7-22.6,119.4c-9.5,29.2-22.6,57.1-51.9,71.5c-11.4,5.6-13.8,12.2-14.2,23.8
			c-1,35.4,3.8,71-4.2,106.1c-1.5,6.4,3.1,11,5.6,16.3C2318.2,1296.9,2331.8,1339.9,2307.7,1388.1z M1342.3,1116.4
			c9.1,6.9,17.4,5.1,25.2,5.1c33.3-0.2,66.5-1.2,99.8-1.6c77.5-1,153.3-10.9,223.5-46.7c102.2-52.2,208.7-82.4,324.7-63.3
			c9.5,1.6,11.7-4.5,14.1-10.4c23.3-57.4,46-115,69.6-172.2c6-14.5,0.1-15.6-12.1-16c-37.8-1.1-72.8-12.7-104.6-32.6
			c-23.8-14.8-46.7-31.2-69.2-48c-39.9-29.8-81.1-56.7-130.4-68.6c-95.4-23-186.3-9.1-273.4,33.6
			c-109.3,53.5-189.6,139.6-260.7,235.5c-4.9,6.7-17.3,14.8-6.5,24.2c10.1,8.8,22.2,5.1,32-3.6c10.7-9.5,17-22.3,24.3-34.2
			c28.7-46.4,62-88.3,109.9-116.6c76.6-45.2,158.2-35.3,221.1,27.1c12.1,12,23.6,24.5,35.6,36.5c22.9,23.1,44.9,46.6,79.9,52.3
			c17.2,2.8,9,19.6,8.8,29.9c-0.3,12.3-11,6.1-17.2,5.5c-28.6-2.9-51.8-17.5-71.7-36.6c-11.3-10.8-19.1-11-32-2.7
			c-76.6,49-151.7,100.1-224.9,154.1C1386.1,1083,1364.6,1099.5,1342.3,1116.4z M1945.7,1041.4c-67.8-1-132.2,14.1-192.4,44.3
			c-85.6,43-174.6,71.2-271.3,70.7c-15.9-0.1-24.8,5.7-31.7,20.6c-10.2,22.4-24.2,45.4-51.2,47.2c-20.7,1.4-22.7,9.5-19.6,25.5
			c1.1,5.8,2.1,11.8,1.8,17.6c-1,18.4,4.3,23,24,17.9c84-21.5,169.7-31.6,256.3-33.5c79.9-1.7,159.4,3.5,238.2,17.2
			c9.8,1.7,19.1,4.7,24.8-9.9c25.9-66.6,52.9-132.7,80.2-198.7c5.2-12.6,0.7-15.9-10.6-16.5
			C1978.1,1043.2,1961.9,1042.3,1945.7,1041.4z M1770.3,1837.9c-59.9-37.8-86.9-89.4-86.3-155.9c0.6-64.4,29.2-117.5,69.2-169.8
			c-77.4-5-150.8-4.6-223.9,7.6c-7.5,1.3-11.7,4.9-12,13.2c-3.3,100.9,16,194.8,90.6,268.8C1652.1,1845.6,1707,1852,1770.3,1837.9z
			 M2287.3,678.6c1.7-7-3.1-7.3-7.4-8.2c-20.2-4.3-40.4-8.5-60.5-12.9c-10.5-2.3-13.9,4-17.2,12.4
			c-79.8,198.2-159.7,396.2-239.6,594.3c-1.9,4.7-6.5,11.1-2.7,14.2c10,8,23.4,7.8,35.4,10.6c10.6,2.5,10.8-8.2,13.5-14.1
			c91.5-195.5,182.9-391.1,274.2-586.7C2284.5,685,2285.9,681.6,2287.3,678.6z M1885.6,1519.3c-25.8-1.9-49.7-3.7-73.6-5.6
			c-6.5-0.5-11.1,2.2-15.4,6.8c-39.2,41.8-68.2,88.8-75.3,147c-7.5,61.5,23.3,119.2,74.9,139.7c12.9,5.1,27.4,12.1,40.5,5.9
			c27-12.8,49.7-32,71.5-53.9C1802.4,1703.7,1793,1601.7,1885.6,1519.3z M2117.5,2252c-0.4,0-0.8,0.1-1.2,0.1
			c2.4,15.3,5.3,30.6,6.9,45.9c1.7,16.9,9.4,21.6,26.5,19.8c66.2-7.2,123.3-33.9,173.3-77.1c56.4-48.8,54.1-78.5-8.2-121.7
			c-11.3-7.9-19.4-8.7-31.1-0.2c-43.7,31.9-91,58-141.1,78.2c-17.6,7.1-26.5,16.1-25.1,35C2117.9,2238.7,2117.5,2245.3,2117.5,2252z
			 M2349.2,911.7c3.8-12.5-4.2-16.5-16-19c-26.6-5.7-53.4-11.3-79.5-18.8c-12.1-3.5-16.9-0.4-21.6,10.3
			c-14,31.6-28.8,62.9-43.6,94.2c-31,65.1-28.2,71.9,41,95.5c4.9,1.7,9.8,3.4,14.8,4.6c40.9,9.9,63.1-1,78.7-40.2
			C2339,998.3,2345.9,956.1,2349.2,911.7z M1189.8,1089.4c24.4,13,48.1,17.7,71.5,23.4c14,3.4,25.3,1.1,36.7-8.5
			c18.6-15.7,38.4-30,57.8-44.7c81.4-61.3,165.3-119.2,251.2-174.1c5.1-3.2,14.1-4.2,13.1-12.9c-1.7-14.7-31-28-43.8-20.2
			c-83,50.8-166,101.7-249,152.6C1282.2,1032.6,1237.1,1060.3,1189.8,1089.4z M2079.8,2222.9c-56.7,19-112.1,34.3-168.6,44.4
			c-59.5,10.6-60.9,12.2-53,72.8c1,8,3.4,15.9,4.8,23.8c2.2,12.9,8.9,18.5,22.6,18.4c70.9-0.8,134.9-21.1,190.9-65.2
			c5.1-4,11.2-7.3,9.5-15.8C2080.8,2276.2,2078.7,2250.7,2079.8,2222.9z M1446.4,688c96.8-58.7,198.8-84.6,310.7-70
			c-35.1-68.1-122.9-103.4-203.5-84C1489.8,549.5,1445.4,611.2,1446.4,688z M1056.3,2087.6c-7,25.9-7.8,49.6-9.9,73.1
			c-0.6,6.9,0.5,13.1,5,18.6c52.5,64.6,119.4,107,200,127.2c14.8,3.7,23.5-2.9,19.7-19.3c-4.8-21.2-5.4-42.5-3.3-63.9
			c0.9-9.5-1.6-14.6-10.9-18.4C1185.5,2175.8,1118.9,2138.2,1056.3,2087.6z M1400.4,717.5c-4.1-5.2-9.3-5.7-14.2-6.8
			c-43.1-10-86.3-8.8-129.6-0.9c-65.7,12.1-128,34.6-188.1,62.9c-25.4,11.9-46,29.6-49.2,60.5c-1.5,14,4.6,25.1,16.5,31.3
			c11.2,5.8,21.3,0.6,29.8-7.9c4.7-4.7,9.9-8.9,14.7-13.5c68.5-64.4,149.2-89.6,242.2-75.5c7.7,1.2,15.6,4.1,23.1-2.6
			C1363.6,748.9,1382.1,733.4,1400.4,717.5z M2260.4,1172.5c0.2,0,0.4,0,0.6,0c0-13.3-0.6-26.7,0.2-39.9c0.7-10.3-3.1-14-13.1-15.7
			c-32.4-5.7-62.3-18.6-89.1-37.5c-11.1-7.8-15.8-5.4-20.8,6.3c-10.4,24.4-22,48.3-33,72.4c-20,43.8-20.1,44,25.7,60.2
			c28.4,10,56.3,22.8,86.9,24.5c31.8,1.8,41.5-7.9,42.6-39.2C2260.7,1193.2,2260.4,1182.9,2260.4,1172.5z M1171.7,1123.2
			c-3.7,24.9-5.8,47.6-5.4,70.6c0.4,19,6.7,24.9,26.6,23.4c65.2-4.8,101.4,26.8,107.4,90.6c44-13.1,44-13.1,42.7-56.1
			c-0.3-8.9-1.1-17.7-0.8-26.6c0.8-22.7,13.2-36.7,35.9-35.9c22,0.8,31.1-10.8,39-30.5c-42.8,0-83.2,0-123.6-4.2
			C1252.2,1150.3,1212.3,1140.6,1171.7,1123.2z M2283.5,1331.7c-0.3-2.3-1.2-8.8-2.4-15.3c-2.9-15.3-5-32.6-16.8-42.2
			c-5.5-4.4-20.2,3.2-30.8,4.5c-41.5,5.5-77.9-12.9-115.3-25.8c-53.8-18.5-53.3-18.9-74.6,35.8c-3.8,9.9-4,13.7,7.1,17.2
			c57.8,18.3,113,42.8,166.8,70.9C2246.7,1392.1,2284,1367.8,2283.5,1331.7z M833.9,1409.6c98.1-66.7,193.2-131.3,288.4-195.8
			c4.5-3.1,7.8-6.3,7.7-12.3c-0.2-23.1-0.1-46.3-0.1-71.3c-5.2,3.9-9.2,6.9-13.2,10c-85.5,67.9-170.1,137.1-257.2,202.9
			C835.6,1361,831.3,1380.3,833.9,1409.6z M1686.2,2285.2c-19.9,0-39.9,0.5-59.8-0.1c-36.8-1-37.3-0.7-29.5,35.2
			c1.6,7.2,4.7,14,6.4,21.1c3.4,15,12.9,21.3,27.7,23.7c49,7.8,97.1,4.4,144.3-10.5c41.5-13.1,40.3-13.4,44.6-55.4
			c1.8-17.7-4.2-19.8-18.8-18C1763,2286.2,1724.6,2286.5,1686.2,2285.2z M2295.7,748.8c17.6,3.3,32.6,6.6,47.8,8.9
			c30.7,4.6,61.5,8.7,92.5,5.4c28.2-3,37.3-16.7,29.9-43.8c-4.1-14.9-8.2-29.9-16.4-43.2c-22.9-37.3-95.5-39.3-118.3-1.8
			C2317.3,697.2,2307.9,722.9,2295.7,748.8z M1439.8,2316.4c33.4,0.2,66.3-3.8,99.1-9.6c9-1.6,18.8-2,17.7-16.7
			c-1-14.2-10.8-11.8-18.8-12.8c-63.9-7.7-126.7-20.7-188.3-39.5c-52.1-15.9-53.3-14.3-42.5,41.7c2.9,15.3,9.3,22.3,25.1,25.2
			C1367.7,2311.1,1403.5,2315.9,1439.8,2316.4z M1556.5,820.7c-46.7-16.9-92.2-11-133.7,14.7c-51,31.6-80.7,80.8-107.5,133.2
			C1394.5,920,1473.7,871.5,1556.5,820.7z M2384.4,2229.9c-19.3,22.5-38.2,41.1-59.6,56.9c-48.4,35.8-102,58.9-162,66.6
			c-5.4,0.7-14.9-2.5-15.3,7.8c-0.5,10.9,20,30.3,30.9,29.5c90.8-6.5,158.4-50.9,206.7-126.8
			C2391.6,2253.6,2391.9,2243.4,2384.4,2229.9z M1889,2419.4c10.8,21.5,22,33.1,48.1,31.2c60.4-4.3,118.9-12.2,170.8-46.5
			c9.7-6.4,14.7-11.6,7.6-24.6c-16.7-30.7-15.7-30.9-45.1-13c-13.8,8.4-28.3,16-42.9,22.8C1984.3,2409.6,1938.3,2418.3,1889,2419.4z
			 M2288.1,785.5c-6.9-2.9-11.1,2.3-14.3,10.1c-3.9,9.5-7.7,19.2-12.8,28.1c-5.9,10.3-3,13.9,7.9,16.1c21.6,4.5,42.9,10.3,64.4,15.4
			c53.1,12.8,53.1,12.8,67.1-40.3c0.2-0.7,0.5-1.4,0.8-2c3.3-7.9,1.8-12.6-7.9-12.9C2358.6,799,2324.6,792.2,2288.1,785.5z
			 M1218.2,2336c-65.3-21.1-119-54.7-167.4-100.8c-2,20.3,2.7,36.1,5.9,51.9c1.5,7.2-0.1,16.1,8.7,21.4
			c28.8,17.5,54.8,39.6,86.4,52.6c8.1,3.4,16,8.1,25,2.1C1189.5,2354.7,1202.3,2346.4,1218.2,2336z M1644,2404.6
			c14,22.5,28.9,33.4,53.4,33.3c41.4-0.2,82.5-0.7,122.8-10.6c15.9-3.9,21.9-15.4,14.3-29.9c-3.8-7.2,1.4-26.9-18.4-18.3
			C1762.2,2402.3,1705.7,2409,1644,2404.6z M1565.9,2339.8c-78.1,15.3-154.1,17.6-231,3.5c7.6,25,20.8,32.9,45.2,30.4
			c49.9-5.1,100.2-6.6,150.3-9C1546.3,2363.9,1558.5,2359,1565.9,2339.8z M1270.3,841.8c-44,25.1-74.9,60.3-86.6,109.7
			c-3.5,15-7.6,31.9,8.3,42.5c15.6,10.5,33.2,13,52.7,3.9c-47.6-19.1-56.1-46.3-27.5-86.3C1234.2,887.9,1252.6,865,1270.3,841.8z"/>
		<path class="st1" d="M575.6,1180.2c-7.2-8.7-15.9-5.4-23.3-5.5c-88-1.5-175.8-6.1-263.2-17c-9.8-1.2-25.7,5.4-29-11.7
			c-4.2-22.5,3.3-28.9,26.4-26c92.5,11.7,185.3,18,278.6,16.5c4.5-0.1,10.1,2.2,14.1-4.1c-5.1-6.4-12.2-3.9-18.1-3.9
			c-91.8-0.3-183.1-6.8-274.2-18.1c-8.6-1.1-19.3,1.4-15.3-13.6c2.9-10.7-2.5-25.9,19.4-23.1c86.6,11,173.6,16.6,260.8,18.2
			c3,0.1,6.1,0.8,8.8-0.1c8-2.4,22.6,7.2,22.9-8.1c0.3-16-14.7-8.2-22.3-8.2c-91.8-0.7-183.1-7-274.2-18.3
			c-8.3-1-19.6,1.8-15.5-13.4c2.8-10.6-2.6-26.2,19.2-23.4c68.2,8.9,136.7,14.2,205.4,16.5c30.5,1,61,0.2,94.1,0.2
			c-6-11.1-14-8.6-20.4-8.7c-87.3-1.4-174.3-6.1-261-16.1c-5.1-0.6-10.2-1.8-15.4-2c-13.8-0.4-19.9-3.4-17.2-20.6
			c2.6-16.5,8.8-18.7,22.7-16.8c87.2,12,174.9,17.9,263,17.5c33.1-0.1,33.1,0,35.1-33c0.3-4.3,0-8.6,0-15.4
			c-28.8,17.3-57,30.9-88.8,35.9c-117.7,18.6-225.7-59.8-242.5-176.7C249.7,688.4,330,580.2,441.1,564.7
			c118.5-16.5,224.5,62.9,239.7,180.7c6.5,50-4,97.2-32,139.6c-7.2,10.9-10.3,22.1-11.5,35c-9.3,105.2-19.4,210.3-29,315.5
			c-11.1,121.3-21.8,242.7-32.9,364.1c-10.8,118.4-21.9,236.8-32.7,355.1c-6.9,75.8-13.5,151.6-20.5,227.3
			c-7.8,83.8-78.2,160.9-162.4,178.3c-89.2,18.5-179.7-22.5-223.8-95.2c-72.2-118.9-10.6-277.1,127.3-312.2c2.7-0.7,5.8-0.6,7.2-6.7
			c-21.8-2.4-43.3-5.7-64.9-6.9c-17.5-0.9-17.2-10.8-16.3-23.9c1-14.5,7.4-15.5,20.2-13.8c93.2,12.3,186.9,17.2,280.8,18.1
			c6.9,0.1,18.8,4.6,18-9.1c-0.7-12-11.5-6.3-17.6-6.4c-93.9-1.3-187.5-7.3-280.9-18c-20.7-2.4-26.9-13.7-18.9-33
			c4-9.7,10.6-5.6,16.5-4.8c91.7,11.8,183.9,17,276.4,18c9.4,0.1,26.8,5.6,26.9-4.7c0.1-12-16.8-5.4-25.7-5.5
			c-92.5-0.6-184.6-7.3-276.4-18c-15.1-1.7-15.9-8.2-15.1-20c0.8-12.3,3.5-18.8,18.4-17c93.2,11.3,186.8,17.8,280.8,18.2
			c7.9,0,16.1,2.2,24.6-3c-4.5-8.9-12.9-5.4-18.9-5.5c-91-1.4-181.6-7.7-272-17.4c-18-1.9-25.9-6.9-19.9-25.5
			c1.6-4.7,0.1-9.8,2.9-14.8c6.7-12-6.4-32.6,11.1-38.1c12.2-3.9,27.5,2.1,41.5,3.8c80.8,10,162,13.1,243.3,14.8
			c3.7,0.1,7.4,0,11.1-0.1c5.9-0.2,9.9-2.3,9.8-9.1c-0.2-8.5-6.6-6.3-11.2-6.5c-36.2-1.4-72.4-2.7-108.6-3.7
			c-59.2-1.6-117.8-9.1-176.7-14.1c-17.7-1.5-19.6-9.4-18.3-24.4c1.5-17.5,10.8-14.5,22.7-13c92.5,11.6,185.4,16.7,278.6,17.7
			c4.4,0,8.9-0.1,13.2-1c1.6-0.3,3.7-2.7,4-4.3c0.6-3.5-1.9-5.1-5.3-5.2c-5.9-0.1-11.8-0.3-17.7-0.3c-91.8-0.1-183.1-6.8-274.2-17.4
			c-15.1-1.8-18-6.8-17.1-20.6c1-15.1,7-18.2,21.1-16.5c91,11.1,182.4,17.3,274.2,18c7.7,0.1,15.9,1.7,24.8-3.2
			c-5.3-7.8-12.5-5.3-18-5.4c-89.5-1.3-178.6-7.6-267.6-17.2c-18.2-2-26.4-6-21.8-26.5c2.5-11.3,4.6-14.1,16.4-12.4
			c88.7,12.4,178,17.4,267.4,18.3c9,0.1,26.8,8.6,26.1-8.5c-0.5-12.6-17.3-5.7-26.3-5.8c-91-0.8-181.6-7.7-272-18.3
			c-9.6-1.1-16.4-2.2-12.6-13.9c3.1-9.5-3.6-25.4,17.4-22.9c37.4,4.5,75,7.6,112.5,10.9c55.3,4.7,110.6,7.5,166.1,7.2
			c7.1,0,20.4,6.4,20.3-8.5c-0.1-13.2-12.3-7.7-18.9-7.7c-94-0.2-187.6-6.4-280.8-18.2c-9-1.1-20.8,2.2-16.6-14.6
			c2.9-11.4-0.8-25,20.3-22.2c82.8,10.9,166.2,16,249.7,18c16.8,0.4,33.5,0.1,51.4,0.1c-3-13.8-12.1-9.9-18.2-10
			c-88-1.5-175.8-5.8-263.3-16.1c-5.9-0.7-11.7-2-17.6-2c-15.9,0-19.9-5.2-17.6-22.4c2.5-19,12.3-16.3,24.1-14.8
			c94.7,12.6,189.7,18.4,285.2,17c3.5-0.1,7-0.8,11.7-1.4c-4.8-10.3-13.2-6.6-19.5-6.6c-91.8-0.3-183.1-6.9-274.2-17.9
			c-10.9-1.3-19.6-1.9-15.9-16.2c2.6-10.4-0.6-23.5,19.3-20.9c89.5,11.4,179.4,17.4,269.7,18.4c5.2,0.1,10.4,0,15.5,0
			c6,0,9.9-1.9,9.5-8.9c-0.3-5.7-3.4-7.6-8.5-7.7c-3.7-0.1-7.4-0.2-11.1-0.2c-93.3,0.1-186.1-6.5-278.6-17.7
			c-11-1.3-19.4-2.2-15.9-16.3c2.6-10.6-0.4-23.3,19.5-20.8c91.7,11.6,183.9,17.8,276.3,18.4c7.5,0,15.6,1.9,24.2-4.2
			c-8-8.4-16.4-6-23.7-6.1c-91.7-1.6-183.1-7-274.2-17.8c-17.3-2-19.4-8.4-16.9-24c2.7-17.1,12.5-14.6,23.7-13.2
			c91,11.5,182.4,18.2,274.2,16.6c6.5-0.1,19.1,6,18.9-6.6c-0.2-10.1-11.9-5.7-18.3-5.7c-91.8-0.4-183.1-7-274.2-17.6
			c-15-1.8-18.1-6.6-17.2-20.6c1-15.1,7-18.2,21.1-16.5c88.1,10.9,176.5,16.7,265.3,18c5.2,0.1,10.4,0.1,15.5,0
			c6.5-0.1,14.1,1.3,13.3-9.4c-0.7-9.3-7.8-7.3-13.2-7.3c-47.3-0.3-94.6-1.4-141.8-4.6c-48.7-3.2-97.1-8.5-145.7-13.2
			c-16-1.6-14.7-9.8-14.3-20.7c0.4-13.1,5-18,19.1-16.3c38.1,4.5,76.4,8,114.7,11.1c56,4.6,112.1,7.3,168.3,7.1
			C563.5,1184.9,569.8,1187.1,575.6,1180.2z M496.3,2050.5c3.1-31.6,5.4-56.4,8-81.2c0.8-8.1-1.3-12.2-10.5-12.2
			c-36.8,0.3-73.6,0.1-111.8,0.1C428.8,1974.3,465.4,2003.8,496.3,2050.5z"/>
		<path class="st1" d="M1867.2,1917.2c14.9,2.9,25.5,10.7,25.6,26.3c0.1,16.6-10.3,26.7-26.4,26.6c-15.2-0.1-24.9-10.2-25.4-25.5
			C1840.4,1927.5,1852.5,1920.6,1867.2,1917.2z"/>
		<path class="st1" d="M2039,1783.5c1.5-16,9.8-25.7,26.8-25.7c16.5,0,24.3,11.1,25.1,25.4c0.8,15.4-9.3,25.8-24.3,26.1
			C2051.2,1809.6,2040.2,1801.1,2039,1783.5z"/>
		<path class="st1" d="M1434.2,1640.7c-2.6,14-9.5,24.5-25.9,23.7c-16.2-0.8-26.4-9.1-25.7-26.2c0.7-17,11.6-25.4,27.7-24.6
			C1425.9,1614.5,1433.5,1624.7,1434.2,1640.7z"/>
		<path class="st1" d="M1429.8,1729.4c-1.2,17-10.4,27.2-26.6,26.9c-14.8-0.3-24.9-9.3-25-25.4c-0.1-15.6,8.2-25.3,23.9-26.2
			C1419.1,1703.7,1427.4,1713.8,1429.8,1729.4z"/>
		<path class="st1" d="M1509.3,1900.1c-14.6-2.8-24.6-10.3-24.8-26.1c-0.2-17.2,10.3-26.3,26.3-26.1c15.2,0.2,24.9,9.9,25,25.4
			C1535.9,1889.9,1525.7,1898.4,1509.3,1900.1z"/>
		<path class="st1" d="M1687.1,1938.8c17.9,0.8,27.1,10.7,26.9,26.8c-0.3,15.2-10,25.2-25.6,24.8c-16.1-0.4-26.6-9.7-25.9-26.8
			C1663.2,1948.3,1672.1,1939.6,1687.1,1938.8z"/>
		<path class="st1" d="M2108.6,1738c-13.7-2.1-24.7-8.7-24.7-25c-0.1-16.3,7.8-26.4,25.5-26.5c17.8-0.1,26.1,10.5,25.9,26.4
			C2135.1,1728.1,2125.2,1736.8,2108.6,1738z"/>
		<path class="st1" d="M1805.6,1963.2c-1.7,18.6-10,26.7-27.5,26.2c-17.2-0.4-24.3-10.4-24-25.1c0.3-16.2,9.7-25.5,27.1-24.9
			C1797.9,1940,1803.6,1950.6,1805.6,1963.2z"/>
		<path class="st1" d="M2017.4,1823.2c15.3-0.4,23.4,9,23.5,24.2c0.1,16.2-8.5,26-26,25.8c-16.3-0.2-24.5-9.4-24.8-24.7
			C1989.7,1831.7,1998.8,1823,2017.4,1823.2z"/>
		<path class="st1" d="M1975,1904.4c-1.6,15-7.6,25.6-24,26.5c-17,0.9-26.8-7.6-27.4-24.3c-0.5-15.1,6.4-24.6,23.3-25.7
			C1964.6,1879.8,1972.4,1888.6,1975,1904.4z"/>
		<path class="st1" d="M1593.6,1903.6c17.8-0.8,26.5,9.3,26.6,25.3c0.1,15-9,25.1-24.9,25.2c-16.5,0.1-26.5-8.8-26.4-25.8
			C1569,1912.7,1577.7,1904.3,1593.6,1903.6z"/>
		<path class="st1" d="M1441.1,1783.7c18.8,1.2,27.9,10.3,27.1,26.9c-0.8,15.1-8.6,23.3-25.5,23.2c-17-0.1-24.5-8.6-25.2-23.6
			C1416.7,1793.4,1426.7,1785.2,1441.1,1783.7z"/>
	</g>
</g>
</svg>
