<?xml version="1.0" encoding="utf-8"?>
<!-- Generator: Adobe Illustrator 23.0.0, SVG Export Plug-In . SVG Version: 6.00 Build 0)  -->
<svg version="1.0" xmlns="http://www.w3.org/2000/svg" xmlns:xlink="http://www.w3.org/1999/xlink" x="0px" y="0px"
	 viewBox="0 0 3000 3000" style="enable-background:new 0 0 3000 3000;" xml:space="preserve">
<style type="text/css">
	.st0{stroke:#000000;stroke-width:10;stroke-miterlimit:10;}
</style>
<g id="Layer_1">
</g>
<g id="Layer_2">
	<g>
		<path class="st0" d="M174.5,1520.4c0-167.4-0.2-334.9,0-502.3C175,571.9,478.7,196,915,101.5c58.8-12.7,118.4-19.2,178.6-19.3
			c291.6-0.1,583.3-1.5,874.9,0.3c444.9,2.9,829.5,330,905.8,768.3c9.5,54.4,13.9,109.2,13.9,164.5c-0.2,337,0.2,674-0.2,1011
			c-0.4,392.3-241.4,738.4-609.1,875.7c-95.5,35.7-194.5,55.9-296.3,56.3c-300,1.2-600,3.1-900-0.1
			c-441.5-4.7-827.9-342.9-896-779.4c-8.1-51.8-12.3-103.8-12.2-156.2C174.6,1855.3,174.5,1687.8,174.5,1520.4z M225.3,1519.7
			c0,168.1,0,336.3,0,504.4c0,60.9,5.6,121.3,18.2,180.8c87.4,412.2,445.7,702.8,867.1,703.3c281.9,0.3,563.7,0.1,845.6,0
			c51,0,101.8-4.5,152-13.3c418.6-73.3,727.6-439.3,728.9-864.8c1-339.8,0.3-679.6,0.1-1019.4c0-50.3-4.5-100.4-13.4-149.9
			c-75.6-418.8-437.8-725.5-861.5-727.6c-287.4-1.5-574.9-0.9-862.4,0c-124.2,0.4-244.7,23.8-356.4,79
			c-333.8,165-508.6,434.3-517.6,807.1C221.9,1186.1,225.3,1353,225.3,1519.7z"/>
		<path class="st0" d="M2599.2,1510.1c0,143,0.1,286.1,0,429.1c-0.4,401.5-276.1,737.8-669.8,816.9c-48.6,9.8-97.9,14.6-147.6,14.6
			c-164,0-327.9,0.9-491.9-0.2c-402-2.6-746.4-299.9-808.5-697.1c-6.7-42.7-9.8-85.9-9.8-129.2c0.2-288.8-0.3-577.7,0.2-866.5
			C472.4,678.7,751,340.9,1142.5,264c50-9.8,100.7-14.4,151.8-14.4c160.5,0.2,321-3.6,481.4,0.8c347.5,9.8,597.2,175.5,750.1,486.2
			c51.8,105.2,73.1,218.8,73.3,336.1C2599.3,1218.5,2599.2,1364.3,2599.2,1510.1z M522.5,1510.3c0,143,0.1,286-0.1,429
			c0,41.3,2.9,82.3,9.3,123c59.4,378.1,384.3,656.6,767.2,657.5c157.7,0.4,315.3,0.1,473,0c48.9,0,97.6-4.3,145.6-13.9
			c370.5-73.8,630.5-390.8,630.8-768.9c0.2-284.6,0-569.3,0.1-853.9c0-41.9-2.7-83.7-9.4-125.1c-61.2-381.2-384.9-657-771.4-657.5
			c-154.9-0.2-309.7-0.1-464.6,0c-58.8,0-117,5.9-174.3,19.1c-355.9,81.6-605.4,394.3-606.1,759.5
			C522.3,1222.8,522.5,1366.6,522.5,1510.3z"/>
		<path class="st0" d="M949.4,1644c32.5,6.7,61.8,12.8,89.8,23.7c14.5,5.6,10.3-6.6,10.4-12.7c0.9-64.2,1.3-128.3,2-192.5
			c0.7-61.4,0.5-122.8,2.7-184.1c0.7-20.6-6.4-23.4-24.6-22.8c-125.5,4.6-251,7.7-376.4,12.6c-18.4,0.7-23.1-6.2-27-21.9
			c-35.6-145.6-22.3-285,51.3-416.9c42.2-75.6,102.5-135.1,170.6-187.4c129.7-99.6,278.3-153.9,437.5-182.6
			c166.6-30.1,334.1-36.1,501.9-12.2c166.3,23.7,318.1,84.2,445.8,195.3c108.6,94.4,174.4,215.1,206.3,355.3
			c19.9,87.5,26.5,176.3,33.2,265.3c7.6,100.1,12.4,200.4,14.3,300.9c3,155.4-5.3,309.6-47.7,460.2c-40.1,142.4-105.2,271.5-210,378
			c-106.9,108.7-239.5,167.5-387.1,196.8c-140.2,27.9-282.1,34.1-424.5,34.5c-112.4,0.3-224.5-4.6-336-18
			c-83.6-10-165.2-27.9-237.1-74.8c-75.7-49.3-124.2-116.8-136.5-208c-2.6-19.6-2.5-39,1.9-58.2c2.8-12.2-0.7-20.4-9.8-29.2
			c-88-84.6-129.3-188.1-124-310.1c1.2-28.7,6.2-56.9,15.9-83.9c5.2-14.5,5.3-27.6,0.5-42.4c-26.2-81-26.3-164.8-23.9-248.6
			c1.2-42.4,0.7-85.2,10.8-126.9c22.8-94.3,100.7-160.3,191-162c98.9-1.9,180.8,59.4,207.9,155.5c12.2,43.5,16.2,87.6,10.6,132.5
			C985.5,1590.5,973.5,1618.1,949.4,1644z M936.8,643c11.4,5.3,19.6,2.6,27.6,2.1c59.8-3.3,119.3-13.7,179.5-10.1
			c41.8,2.5,81.2,13.1,116.9,35.3c75,46.4,94.7,129.9,47.8,204.7c-7.1,11.3-5.2,16.8,2.8,26c28.7,33.1,42.7,72.1,37.3,115.9
			c-7.7,63.1-55.7,111.5-126.3,129.1c-52.6,13.1-106.5,12.1-160.2,12.6c-127,1.4-254,2.9-380.9,4.6c-5.6,0.1-14.9-3.7-16.1,4.7
			c-2,14.6,1.7,29.5,6.9,42.9c4.3,10.9,16.2,4.7,24.5,4.5c152.7-4.7,305.4-9.9,458.1-14.8c251-8,502-15.9,753.1-23.9
			c14.6-0.5,34,3.9,42.5-3.7c9.6-8.6-2.8-26.4-4.9-40.3c-15.3-103.5,14-196,69.6-281.8c42.2-65.1,97-118.7,157.6-166.4
			c12.2-9.6,14.4-14.2,0.3-25.2c-125.1-98-269.2-147.8-425-165.4c-195.4-22-388.5-7.8-578.2,45.5
			C1088.1,562.1,1011.1,595.4,936.8,643z M2078.7,1332.6c-41.5-25.3-72.8-57.6-95.7-97.6c-4.7-8.2-10.5-9.4-18.7-9.1
			c-53.7,2-107.3,3.9-161,5.4c-12.1,0.3-20.8,4.6-28.9,13.6c-35.9,40-61.7,85.7-80.1,136c-21,57.6-20.9,117.4-20.9,177.5
			c-0.1,137.8-69.6,230.3-198,264.7c-57.7,15.5-116.4,20.3-176.2,15.6c-46.4-3.6-92.8-10.9-139.7-2.3
			c-58.4,10.8-91.4,56.3-82.5,115.2c10.3,68.2,54.6,105.7,115.6,127.4c64.7,23.1,131.9,20,198.7,14.9c52.2-4,104.4-8.8,156.7-5.8
			c54.3,3.1,106.3,16,151,49.1c39.1,29,62.8,67.3,64,116.7c1.6,63.6-26.9,114-73.4,155c-53.4,47.1-119.2,71.6-184,97.1
			c-79.7,31.4-161.2,57.4-246.4,70.2c7.1,1.8,13.9,2.6,20.9,3.1c66.9,4.6,133.9,3.2,200.9,2.2c131.9-2,263.2-11.4,392.3-41.7
			c15.8-3.7,22.3-9.2,22-27.3c-3.1-196.7-4.5-393.4-7.4-590.1c-1.2-83.1-0.7-166,8-248.7c12.4-117.9,51.9-223.7,141.4-306.1
			C2049.9,1356,2063.6,1345.3,2078.7,1332.6z M1137.9,1787.8c-6.5-5-10.5-7.7-14.2-10.8c-76.9-65.5-166.4-93.6-266-81
			c-106.8,13.6-187.2,67.1-217.2,174.9c-37.3,134.2,2.7,248.5,102.1,343.6c1.2,1.1,3.4,1.1,5.6,1.8c1.3-3.2,2.5-5.7,3.2-8.4
			c19.5-73.6,74-108.5,149.3-95.6c39.6,6.8,73.5,26,105,49.3c143.8,106.4,303.2,143.1,478.2,104.8c32.1-7,23,16.9,29,29.4
			c8.7,18.2-6.9,19-17.9,21.3c-177.4,37-341.8,7.1-492.2-95.3c-31-21.1-60.6-44.8-97.4-55.9c-62.2-18.7-106.9,13-106.5,77.4
			c0.5,74.7,35.5,133.8,89.1,182.3c100.7,91.2,221.3,114.9,352.4,99.9c102.1-11.7,197.7-45.9,291.7-85.4
			c50.8-21.4,101.3-43.5,139.9-85.1c70.2-75.6,48.1-165.3-48.7-199.9c-52.6-18.8-106.7-18.1-161.2-14.7
			c-75.1,4.8-150,14.6-225.3,2.3c-62.2-10.2-118.2-32.5-162.2-79.3C1002.6,1986.9,996.7,1831.4,1137.9,1787.8z M2397.5,1308
			c-187.5-30.8-365.9,77.1-426.3,256.1c-30.2,89.3-32.6,182.3-32.1,275.1c1.1,220.5,4.5,440.9,6.5,661.4
			c0.1,14.7,2.8,17.7,17.2,12.2c94.8-35.8,178.7-88.1,246.8-163.8c114.7-127.3,175.4-279.6,205.1-446
			c25.6-143.1,24.3-287.4,18.7-431.9c-1.5-38.2-0.6-76.7-7.1-115.6c-34.5,8.2-65.1,22.8-92.9,42.9
			c-114.7,82.6-166.5,200.1-186.6,335.5c-14.6,98.1-6.4,196.4-2.8,294.6c1.2,34,1.7,33.1-31.5,36.8c-15.6,1.7-19.7-4.1-19.9-18
			c-0.1-16-1.8-32-2.5-48.1c-4.5-101.1-7.6-202.3,10.8-302.6c22.5-122.9,73.4-230.6,169.2-314.1
			C2307.7,1349.5,2350.3,1325.2,2397.5,1308z M1284.9,1248.4c4.8,9,8.1,15,11.2,21c16.6,32.1,22.2,65.9,15.2,101.4
			c-17.6,88.5-94.2,149.7-193.5,153.5c-13.4,0.5-15.7,4.3-15.7,16c0.1,34.2,1.8,68.6-2,102.4c-4.1,36.9,3.5,64.8,39.3,81.1
			c4.9,2.2,9.6,6.2,12.9,10.5c29.1,38.2,67.4,50,115.1,51.6c70.7,2.3,141.1,7.4,208.9-16.8c73.9-26.3,128.6-72.3,141.6-154.9
			c4.6-29.7,5.1-59.7,4.3-89.7c-2.7-103.2,25.8-196.7,86.7-280.2c2-2.8,4.5-5.4,1.3-9.6C1569.9,1239.2,1429.3,1243.8,1284.9,1248.4z
			 M2292.4,785.2c-17.5-26.4-37.4-48.6-57.6-70.5c-7.4-8-12.5-5.1-19.2,0.2c-60.8,48.5-117.7,100.8-159.7,167
			c-46.4,73.1-74,151.9-59.5,239.9c12.5,76.5,50.7,136.3,121,172.9c8.1,4.2,15.3,6.6,25.2,1.7c82.3-40.5,169-55.3,259.9-41.4
			c13.9,2.1,18.2-0.5,17-15.3c-4.5-56.3-7.8-112.6-17.5-168.3c-13.6-77.9-33.9-153.6-70.6-224.3c-6.5-12.5-13.2-15.1-26-11.3
			c-45.6,13.4-80.8,40.1-105.4,80.5c-33.3,54.6-37.7,114.1-27.8,175.7c5.6,34.9,5.8,34.9-29.3,41.4c-0.7,0.1-1.4,0.1-2.1,0.3
			c-9.5,2.9-14.5-0.2-15.1-10.5c-0.3-5.5-2.1-10.9-3-16.4c-16.7-102.5-1.3-195.8,78.1-270.5C2226.5,812,2257.7,796.9,2292.4,785.2z
			 M918.6,1112.1c80.9-4.4,161.8-3.5,242.6-8.2c33-1.9,64.8-9,93.1-27.6c51.6-33.7,59.1-99.2,16.8-144.4c-7-7.4-12.8-10.1-23.5-5.7
			c-24.6,10.3-50.9,13.9-77.6,14.7c-156.2,4.5-312.4,2.9-468.6-2.7c-13-0.5-18.3,3.4-22,15.7c-13.3,45.1-19.2,91.1-20.7,138.1
			c-0.5,17,5.2,20.6,21.3,20.4C759.6,1111.7,839.1,1112.1,918.6,1112.1z M705.7,886.7c10.9,0.6,18.5,1.2,26.1,1.4
			c125.4,3.3,250.8,5.8,376.3,2.9c30.6-0.7,61.2,1,91.7-4.4c46-8.2,73.7-34,80.7-77.9c6.7-42.2-11.5-75.5-51.8-97.8
			c-49.4-27.3-102.5-27.7-156.5-23.6c-48.6,3.7-97.9,17.6-145.5,8.6c-49.6-9.4-80.5,9.6-112.5,42.1
			C771.4,781.6,734,828.3,705.7,886.7z M714.2,1691.9c-3.6-2.6-5.5-4.6-7.8-5.6c-77.2-33.2-81-135.3-18.8-185.4
			c34.4-27.7,74.6-36.2,117.9-28.7c7.5,1.3,20-3,18.7,12.7c-2,25.3-11.3,39-26.8,37.6c-25.5-2.3-50.1-1.2-72.1,14.2
			c-23.5,16.4-34.4,44.7-27,71.4c5.6,20.3,25.1,34.4,53.4,36.5c46.5,3.3,91.8-3.9,135.1-21c28-11.1,44.6-32.4,50.2-62.1
			c8.6-45.8,3.6-90.4-12.3-133.7c-25.5-69.9-91.8-112.8-160.9-105.1c-72,8-128,64.2-136.8,139.4c-7.4,63.1-9.2,126.7-6.6,190.1
			c1.5,36.5,2.9,73.3,14.3,112.5C658.4,1734.9,683.5,1711.3,714.2,1691.9z M1206.1,1253.9c-30.8,0-59.2,0.3-87.7-0.1
			c-11.4-0.2-13.8,5.2-13.8,15.3c-0.1,63.3-0.7,126.6-1.1,189.9c0,4.7-1.7,12.1,3.3,13.2c13.7,2.8,27.7,0.8,41.2-3.1
			c12.6-3.7,5.6-13.8,6.3-21.1c1.6-17.3,2.5-34.7,3.2-52C1159.6,1343.8,1167.1,1293.5,1206.1,1253.9z M948.5,2530.4
			c-84.8-45.9-150-107.1-185.9-199.8C762.3,2410.3,863.5,2518.3,948.5,2530.4z"/>
	</g>
</g>
</svg>
