<?xml version="1.0" encoding="utf-8"?>
<!-- Generator: Adobe Illustrator 23.0.0, SVG Export Plug-In . SVG Version: 6.00 Build 0)  -->
<svg version="1.0" xmlns="http://www.w3.org/2000/svg" xmlns:xlink="http://www.w3.org/1999/xlink" x="0px" y="0px"
	 viewBox="0 0 3000 3000" style="enable-background:new 0 0 3000 3000;" xml:space="preserve">
<style type="text/css">
	.st0{fill:none;stroke:#000000;stroke-width:56;stroke-miterlimit:10;}
</style>
<g id="Layer_1">
</g>
<g id="Layer_2">
	<path class="st0" d="M1606.2,590.1c-8.8,97.3-89.7,155.7-151.3,143.4c-66.5-13.2-116.8-109.9-83.9-171.4
		c22.7-42.4,79.7-60.7,121.4-52.1C1538.9,519.6,1577.7,552.3,1606.2,590.1c106.6,141.3,76.9,362.1-54.9,480.3
		c-131.7,118.2-343.5,128.4-493.8,35c-150.3-93.4-234.4-277.5-221.3-454.1c13.1-176.5,116.8-340.7,262.3-441.6
		S1427.1,69,1603.5,84.1c139.7,12,280.3,59.6,382.1,156.1c229,217.1,139.3,584.5,127.3,636.1c-65.2,279.9-263.6,449.3-379.1,548
		c-313.9,268.2-501.8,199.4-674,458.3c-108.5,163.2-131.8,337.7-141.5,411.1c-19.3,144.7-36.9,277.1,40.4,411.1
		c88.9,154.1,242.7,205.3,276.4,215.6c108.5,33.2,300.2,49.6,393.3-54.9c55.3-62.1,68.1-150.3,76.2-233.1
		c14.9-151.2,22-194.8,64.3-238c29.3-30,87.5-62,216.3-46"/>
</g>
</svg>
