<?xml version="1.0" encoding="utf-8"?>
<!-- Generator: Adobe Illustrator 23.0.0, SVG Export Plug-In . SVG Version: 6.00 Build 0)  -->
<svg version="1.0" xmlns="http://www.w3.org/2000/svg" xmlns:xlink="http://www.w3.org/1999/xlink" x="0px" y="0px"
	 viewBox="0 0 3000 3000" style="enable-background:new 0 0 3000 3000;" xml:space="preserve">
<style type="text/css">
	.st0{stroke:#000000;stroke-width:10;stroke-miterlimit:10;}
</style>
<g id="Layer_1">
</g>
<g id="Layer_2">
	<g>
		<path class="st0" d="M2935.6,1644.8c-4.1,134.4-3.3,269.2-43.3,399.8c-83.6,273.1-341.8,452.1-626.2,431.7
			c-122.4-8.8-233.3-51-331-126.1c-10.1-7.8-16.9-14.5-29.7-0.7c-110.6,118.7-248.6,183.1-406.4,217.4
			c-183.8,40-368.6,41.5-554.5,35.3c-97.8-3.2-195.5-10.1-293.3-11.6c-300.4-4.7-484.1-247.2-519.7-452.3
			c-21.5-123.7-17.8-248.6-12.4-373.3c3.8-86.9,19.1-171.5,51.7-252.7c19-47.3,44.9-90.4,77.2-129.7c4.9-5.9,15.4-11.2,0.1-19.5
			c-62.1-33.5-86.5-90-92.5-157c-5.4-59.9,6.9-118.7,11.7-177.9c4.4-54.4-5.1-104.9-30.3-153.5c-23.9-46.1-48.7-92.1-55.6-145.1
			c-9.3-71.6,4.6-141,18-210.6c5.5-28.2,13.8-55.3,27.9-80.5c33-59.2,91.7-86.4,164.4-73.5c83.5,14.8,163.6,43.2,245.9,63.1
			c94.1,22.7,187.1,50.4,283.3,63.8c63.1,8.8,126.6,7,184.3-22.5c165.2-84.6,339-83.9,515.7-55.2c145.8,23.7,285.4,66.7,413.9,141.2
			c13.2,7.6,25.3,2.9,37.8,0.4c120.7-24.7,241.8-48.1,365.9-41.3c141.7,7.7,271,47.9,372.9,152.8c66.8,68.7,100.7,155,126.6,245.1
			C2897.3,1119,2931.5,1376.2,2935.6,1644.8z M913.9,2559.7c208.9,6.9,366.2,11.6,521.6-23.4c85-19.1,172.8-29.8,250.1-72.6
			c232.9-128.8,370.2-321.8,383.9-592.3c11-216.1-80.4-381-259.7-499.2c-123.9-81.6-262.1-116.7-408.1-128.6
			c-140.6-11.4-281.4-20.7-422.3-27.7c-152.3-7.6-302.6,0.9-450.8,42.1c-137.6,38.3-245.4,111.9-308.1,243
			c-38.2,79.7-53.8,165.2-60.2,252.9c-6.9,94.6-3.9,189.1,0,283.7c4.7,112.1,36.4,215.1,103.6,305.5
			c88.4,118.9,202.9,193,354.5,203.9C734,2555.3,849.8,2557,913.9,2559.7z M1989.8,594.3c43.8,38.7,76.4,80.8,92.9,133.4
			c3.8,12.2,12.4,7.6,19.9,6.8c25.1-2.9,50.1-7.9,75.2-8.8c240.6-9.4,448,140.1,518.4,373.9c36.7,122.1,38.2,247.7,32.8,373.5
			c-4.5,105.7-21.9,209.3-66.9,306.2c-68.4,147.5-173.3,253.3-337.7,289.1c-76.4,16.6-154,14.1-231.5,12.3
			c-13.9-0.3-21.6,2.8-26.9,17.3c-25.8,70.1-62.2,134.6-109.6,192.4c-11,13.4-8,19.5,4,28.4c313.6,233.2,727.5,106.4,872.3-230
			c45.6-106,55.1-219,59-332.7c5.7-165.8-0.6-331-24.6-495.3c-19.7-134.7-44.5-268.4-88.1-397.9c-48.5-144.2-144.9-238.4-291-282.1
			C2321.7,531.1,2157.9,560.6,1989.8,594.3z M1197.4,666.6c-74.5-0.7-145.9-1.8-217.3,6c-17.7,1.9-23.6,9.3-27.1,26.6
			c-22.1,109.2-101.2,183-211,198.8c-40.5,5.8-81.3,5.3-122.1,4.7c-134.6-1.8-269.1-3.6-403.7-5c-8.9-0.1-26.6-7.4-19.4,15.1
			c12.9,40.3,15,81.7,11,123.4c-1.3,13.3,1,17,15.5,13.9c49.6-10.8,99.8-17.1,150.6-12c98.9,9.9,177,49.7,208.3,152.1
			c5.2,16.9,16.2,10.1,25.3,8.2c57.4-12.3,115.1-21.8,174-24.2c67.8-2.8,135.4,0.6,203.1,1.4c14.4,0.2,19.7-2.6,18.7-18.8
			c-3.9-61.3,16.1-115.3,52.9-163.8c50.4-66.3,119.6-102.2,198.4-121.1c104.3-25,210.4-23.9,316.3-14.1
			c126.8,11.8,246.1,46.6,352.2,120c30.7,21.3,57.8,46.8,87.1,73.9c24.4-82.5,48.4-161.8,46.1-246.5c-0.6-22.4-9.5-28.6-29.6-31.3
			c-83.9-11.4-167.7-23.8-251.3-37c-14.1-2.2-18.5,1.4-21.6,14.1c-7,29.5-18.5,57.3-34.1,83.3c-5.7,9.5-10.6,19.7-23.5,8.4
			c-8.8-7.7-25.3-11.2-12.4-29.2c13.9-19.3,20.4-42.3,28.7-64.5c6.7-18-0.5-21.9-16.7-24.1c-62.1-8.3-124.2-17.1-186.1-27.1
			c-15.1-2.5-21.6,0.4-26.3,15.2c-12.4,39.6-33.9,74.1-65,101.8c-6.2,5.5-13.7,21.5-24.5,4.8c-6.6-10.2-24.2-18.3-3.6-34.8
			c29.2-23.4,45.8-56.5,57.7-94.6c-65.6-9.2-130.1-17-195.1-20.6c-10.7-0.6-13.7,6.3-17.4,13.8c-12.4,25.8-27.9,49.7-45.9,72
			c-7.7,9.6-13.9,18.3-26.4,4.7c-8.7-9.5-21.5-14.6-6.2-30.3C1174,712.7,1186.8,691.8,1197.4,666.6z M2333.9,1321.6
			c0.2-38.7-6-76.4-20.1-112.4c-41-104.7-117.4-167.4-227.4-189.4c-13.1-2.6-23.6-3.8-29.1,14.9c-35.4,119.2-86.6,231.6-152.8,337
			c-6.8,10.9-5.2,16.3,3.9,24c83.3,70.7,143.4,157.2,175.6,262.2c3.7,12.2,8.8,12.7,19.3,7.6
			C2225.2,1607.7,2333.6,1487.8,2333.9,1321.6z M1736.1,1284.5c41,20.5,77.9,39.6,111.4,64.4c13.4,9.9,19.1,7.8,27.6-6.1
			c43.9-71.8,80.1-147.2,111.5-225.2c6-14.9,4.4-25-6.8-36.9c-60.4-64.4-133-110.3-215.7-139c-158.2-55-320.8-62.3-484.5-33.3
			c-86.2,15.2-160.2,54.9-207.1,133.5c-21.8,36.5-32.8,75.9-28.1,119.1c1.6,14.3,7.5,19.3,21.8,19.2c20.3-0.1,40.7,2,61,3.3
			c54.1,3.4,108.3,6.8,164.6,10.4c-15.4-41.6-27.4-81.5-20.3-123.9c8-47.6,32.7-83.3,79.2-100.1c44.2-15.9,79.3,2.3,109.9,33.4
			c13.7,13.9,27.2,28.1,41.1,41.9c18.2,18,40.2,23.1,65.1,19.6c19.7-2.7,37.7-10.3,55.7-17.7c30.1-12.3,59.7-25.7,92.2-31.2
			c60.5-10.3,111.3,22.4,124.8,82.1c15.7,69.4-15.4,119.9-67.2,161.4C1761.5,1267.7,1749.8,1274.9,1736.1,1284.5z M894.5,741.6
			c-6.5,0-10.3-0.2-14,0c-166.8,9.1-327.8-18.3-483.5-78.1c-84.8-32.6-164.3-75-239.2-126.4c-6.7-4.6-17.2-19.9-21.8,2.1
			c-21.2,103-31.9,204.9,28.6,300.4c7.3,11.6,13.4,17.5,27.8,17.6c136.9,1.1,273.8,3.3,410.7,4.5c46.4,0.4,92.9,2.2,139.1-4.8
			C813,846.3,862.9,808.8,894.5,741.6z M812.7,700.3c26.9,0,53.8-0.5,80.6,0.2c14.1,0.3,19.3-5.5,22.1-19.3
			c7.7-36.9,10.5-74.2,10.8-111.7c0.2-34.5-0.2-34.3-35.2-32.7c-11.4,0.5-22.8-0.2-34.2-0.7c-72.1-3.1-141.5-21.1-210.9-38.7
			c-112.8-28.5-225-59.1-337.8-87.5c-52.3-13.2-102.7-12.8-138.3,37.6c-21.6,30.6-20.9,33.7,9.8,54.8
			C370.4,633,581.7,699,812.7,700.3z M1311,1094.7c-1.8,27.6,8.5,51.8,16,76.8c6,19.9,17,27.1,38.4,28.8
			c104.8,8.2,209.4,19.1,308.5,58.1c5.1,2,10.1,5.3,16.3,2.3c45.4-22.1,88.6-47.3,106.7-98.2c11.3-31.6,8.8-63.7-15.4-89.3
			c-23.2-24.5-52.7-21.3-82-12.5c-7.8,2.3-15.3,5.5-22.9,8.4c-26.6,10.1-52.7,21.5-79.7,30.1c-55.6,17.8-102.6,3.6-140.6-40.9
			c-9-10.5-18.6-20.6-28.7-30.1c-37.9-35.7-78.7-29.6-105.2,15.5C1313,1059.7,1309.5,1077.1,1311,1094.7z M194.8,1176.1
			c-1.3,22.9,2.2,49.6,10.7,75.2c11.6,35.4,32.8,63.5,67.8,79.1c9.8,4.4,18.9,6.2,29-2.7c63.7-56.2,139.3-89.2,220.9-109
			c21-5.1,23.1-14.2,15.8-32.2c-19.5-47.7-55.3-77.4-102.6-94.4c-53.6-19.2-108.6-17.4-163.9-9.4
			C196.6,1093.7,195.9,1094.2,194.8,1176.1z M1726.8,620.2c1-27.2-4.7-60.2-6.5-93.6c-0.9-16.7-7.8-25.3-24.9-30.2
			c-61.9-17.7-124.4-32.4-187.8-43.4c-18.6-3.2-22.7-0.1-18.9,18.8c11.2,55.3,16.7,111.2,11.7,167.6c-1.2,13.2,2.3,16.1,14.7,17.8
			c50.8,6.9,101.2,15.9,152,22.9C1727.3,688.3,1727.4,687.8,1726.8,620.2z M1113.5,623.1c0,0.9,0.1,1.9,0.1,2.8
			c27.7,0,55.4-0.9,83,0.4c14,0.7,20.4-3.5,23.7-17.3c8.3-35,15.6-70.5,10.9-106.2c-8.8-67.2,4.4-63-66.5-48.6
			c-9.5,1.9-19.3,3.8-28.3,7.3c-53.1,20.4-105.7,41.8-159,61.7c-12.4,4.6-10.5,12.9-10,21.3c1.5,23.6,1.3,47.3-2.2,70.6
			c-2.2,15.1,3,18,16.9,16.9C1025.8,628.5,1069.6,626,1113.5,623.1z M1354.1,439c-27.1,0-49,0.5-71-0.2c-15-0.4-19.5,4.5-16.5,20
			c9.8,51,7.8,102.1-5.3,152.3c-3.8,14.5,0.2,18.2,13.9,19.4c54.2,5,108.5,9.6,162.5,17c19.1,2.6,22.2-4.8,23.1-19.9
			c3.4-57.3-5.4-113.5-15.6-169.5c-2.1-11.4-8.5-14.4-18.3-14.9C1400.9,441.8,1375,440.2,1354.1,439z M2044,735.7
			c-56.9-126.7-168.8-170-284-217.3c7.5,58.2,8.5,112.4,5.9,166.7c-0.6,11.6,7.9,10.1,14.7,11.1c36.1,5.7,72.2,11.4,108.4,16.8
			C1938.7,720.5,1988.5,727.6,2044,735.7z M2469.2,1141c40.4,12.2,63.6-24.6,93.6-46.4c2.8-2.1,5-6.7,5.2-10.4
			c2.2-30.1,3.9-60.2,5.6-90.3c0.4-7.2-0.4-12.8-10.5-11.2c-24.1,3.7-48.4,6.8-72.6,9.7c-9.9,1.2-12.8,7.7-16.1,15.7
			c-12.4,30-25.8,59.7-38.4,89.7C2417.8,1140.9,2417.9,1141,2469.2,1141z M2495.7,1811.6c-24.8-50.2-47.6-95.8-70-141.6
			c-3.7-7.5-8.2-11.4-17-9.1c-17.3,4.3-34.7,8.4-52.1,12c-9.4,1.9-14.3,5.1-11.6,16.2c8.2,33.8,16.1,67.8,23.1,101.9
			c2.1,10.4,8,13,16.8,13.6C2420.4,1806.7,2456,1809,2495.7,1811.6z M2251.9,1836.3c0,0.1,0,0.2,0,0.3c-11.3-0.7-22.7-1.1-34-2.1
			c-8.7-0.8-14.2,1.9-15.1,11.3c-1.9,19.4-3.9,38.7-5.9,58.1c-0.8,7.5,1.4,12.7,9.6,13.9c46.5,6.9,93,13.8,139.6,20.6
			c9.6,1.4,13.5-1.7,10.9-12.2c-5.8-23.6-11.2-47.3-16.3-71c-1.9-9.1-5.4-14-15.8-14.4C2300.5,1840,2276.2,1837.9,2251.9,1836.3z
			 M2412.5,1847.2c-32.7-1.6-33.9-6.6-25.2,29.2c4.2,17.3,7.3,35,11.5,52.3c1.5,6.1,3.4,15.5,7.5,17c20.3,7.6,42.6,6.3,63.7,12.5
			c5.3,1.5,13.9-9.8,21.4-14.3c29-17.4,20.1-46.8,23.5-72.3c1.9-13.7-4-18.8-17.3-19.3C2469.3,1851.1,2440.9,1849,2412.5,1847.2z
			 M2214.8,2040.7c44.6-3.6,93.4-6.9,140.2-22.7c8.6-2.9,20.1-2.1,18.4-17.4c-1.4-12.8-7.5-18.1-19.8-19.8
			c-37.1-5.2-73.9-11.6-111-16.7c-50.1-6.9-50.2-6.6-57.8,44.1c-0.1,0.8-0.3,1.6-0.4,2.4C2179.7,2042.2,2179.7,2042.2,2214.8,2040.7
			z M2309.5,1799.3c12.2,1.9,19.3,2,15.5-12.9c-7.7-29.8-13.9-60-20.2-90.1c-1.6-7.8-3.8-11.6-12.7-9.5c-20.5,4.9-41.2,9-61.7,13.4
			c-8.2,1.8-12.3,6.7-13,15.2c-1.7,20.2-3.2,40.5-6.1,60.5c-1.9,13,2.9,17.2,15.2,17.8C2254.8,1795.1,2283.1,1797.4,2309.5,1799.3z
			 M2391.6,1282.3c53.6,0,100.9-0.3,148,0.2c12.2,0.1,15.3-5.7,15.8-16.1c1.2-23.6,2.9-47.2,4.5-70.7c0.5-7,0.1-13.9-9.2-13.7
			c-12.8,0.2-26.7-3.6-38,5.1C2473.8,1217.5,2435,1248.2,2391.6,1282.3z M2572.7,1624.9c-4.1,60.1-8.1,112.7-11.1,165.3
			c-0.5,8.7-10,23,7.1,25.6c13.4,2.1,27.9,5.9,37-12.9c14.1-29.3,27.9-58.6,38.8-89.2c2.8-7.8,5.6-14.8-2.3-22.1
			C2620.4,1671.3,2599.1,1650.4,2572.7,1624.9z M2314,964.3c29.1-53.3,54.5-100.2,80.4-146.8c4.5-8-0.7-9.8-5.4-12.8
			c-27.3-17.1-43.4-16.4-69.4,3.1c-7.2,5.4-14.3,10.7-21.5,16.1c-4.6,3.5-9,7.2-7.7,14C2297.7,877.5,2305.1,917.2,2314,964.3z
			 M2358.6,968.4c29.8-3.7,54.6-6.8,79.4-10c7.4-1,14.3-2.9,17.6-10.9c10.1-24.7,19.8-49.6,30.9-73.8c6.1-13.2-4.8-15.9-11.2-19.9
			c-13.1-8.2-23.5-22.5-41.4-20.9c-1.5,0.1-2.9,3.7-4,5.8C2406.9,880.5,2383.9,922.2,2358.6,968.4z M2432.6,1000.5
			c-30.8,4.1-58.1,8-85.4,11.3c-16.7,2-22.4,11.1-19.6,26.8c5.4,30.4,11.1,60.8,16.3,91.3c1.3,7.4,3.9,12.1,12,12.5
			c8.5,0.4,16.5,0.1,20.5-9.2C2394.7,1090,2412.9,1046.8,2432.6,1000.5z M2578.6,1524.8c0.2,0,0.4,0,0.6,0.1
			c-0.6,11.3-1,22.7-1.9,34c-1.2,15.8,3.8,23,21.1,18.5c22.7-5.8,45.7-10.7,68.7-15.3c25.1-5,11.4-26.5,17.1-39.7
			c4.6-10.5-0.5-17.7-11.9-22c-24.3-9-48.2-18.9-72-29.1c-11.1-4.7-17.8-6-17.9,9.8C2582.4,1495.7,2580,1510.2,2578.6,1524.8z
			 M2643.7,1322c-52.1,2.2-52.1,2.2-54.7,54.3c-0.4,8.1,0.5,16.4-0.8,24.3c-2.9,17.1,5.2,16.9,17.6,12.9c21.6-7,43.2-14.1,65.2-19.6
			c15.1-3.8,20.7-11,20-27.1C2688.6,1311.8,2695.9,1320.5,2643.7,1322z M2529.3,1592.3c-20.8-22.7-42-43-59.8-66
			c-18.8-24.1-39-19.8-62.2-9.9c-8,3.4-9.5,5.7-5.4,13.6c12.3,23.7,23.9,47.8,35.6,71.8c3.2,6.5,7.4,10.1,15.4,8.2
			C2478.8,1603.7,2504.9,1597.9,2529.3,1592.3z M2221.5,987.3c10.6-1.4,25.1-3.2,39.5-5.2c9.1-1.3,14.3-4,11.7-15.8
			c-6.6-30.8-12-61.9-17.1-93c-2.1-12.9-6.6-11.9-15.8-6c-58.1,37.2-59.9,41.8-37.2,106.6c0.8,2.3,1.9,4.5,2.5,6.9
			C2206.6,987.8,2211.2,989.6,2221.5,987.3z M2170.3,868.5c23.3-17.4,43.3-32.5,63.4-47.5c17-12.6,4.8-28,3.9-42.2
			c-1-14.4-12.8-12.7-22-12.6c-20.3,0.1-40.5,2-60.8,2c-13.3,0-14.6,5.8-11.1,16.5C2152.4,811.5,2160.8,838.4,2170.3,868.5z
			 M2598.5,1242c-0.3,6.2-0.9,15.9-1.2,25.7c-0.2,4.9,0.2,11.8,6.9,9.4c25.2-8.7,52.4-14.9,73.9-29.4c12.4-8.4,0.7-30.1-1.3-45.8
			c-0.3-2.4-0.4-4.9-0.4-7.3c-0.1-10.2-5.5-13.2-15.4-14.1c-56.8-4.9-60.1-2.1-62.4,55.5C2598.5,1236.9,2598.5,1237.7,2598.5,1242z
			 M2349.1,1533.6c-27.1,1.6-35.3,12.3-29.7,38.9c1,4.8,2.1,9.5,3.2,14.2c11.8,51.5,11.7,51.3,62.3,38.1c10.4-2.7,16.2-5.4,9.5-17.8
			c-11.3-20.6-21-42.1-31.6-63.2C2360,1538.3,2358.1,1531.1,2349.1,1533.6z M2519.3,1766.7c8.3-29.3,5.9-53.9,7.6-77.8
			c5.3-70.6,11.8-52.9-50.6-43c-0.8,0.1-1.6,0.4-2.4,0.6c-8.9,2-12,5.9-7.3,15.2C2483.4,1694.3,2499.6,1727.2,2519.3,1766.7z
			 M2117.6,2041c18.5,5.1,25.3-4.6,25.5-24.4c0.2-16.2,2.9-32.3,4.8-48.4c1.5-12.1-0.9-17.4-15.4-20.6c-21.9-4.8-30.7-0.6-31.7,22.3
			c-0.6,14.4-5,28.8-8.2,43C2086.3,2040.3,2086.2,2040.2,2117.6,2041z M2152.4,1788.6c7.4,0.8,15.2,2.4,16.6-8.5
			c2.4-19.4,4.8-38.8,7.1-58.2c0.4-3.3-0.5-6.2-4.4-7.5c-3.3-1.1-64.4,12.5-65.9,15.4c-1.4,2.7-1.7,6.1-1.9,9.2
			c-2.7,37.8,4.2,45.9,41.2,48.8C2147.5,1788.1,2150,1788.4,2152.4,1788.6z M2111.5,1865c-0.1,0-0.1,0-0.2,0
			c-0.6,8.9-1.2,17.8-1.7,26.7c-0.3,5.9,0.4,10.2,7.8,12.8c30.1,10.5,37.4,6,40.4-25.8c1.1-11.3,3.2-22.5,4.3-33.8
			c0.5-5.1,2-10.4-5.7-13.8c-26-11.4-42.4-2.8-44.2,24.2C2112,1858.6,2111.7,1861.8,2111.5,1865z M2083.9,933
			c16.2-11.9,28.5-21,40.8-30.1c4.6-3.4,10.3-6.9,8.3-13.5c-11-36.3-20.1-73.2-36.5-107.7C2100.9,831.2,2095.3,879.3,2083.9,933z
			 M2519.3,1439.4c-18.2-7.8-30-13-41.9-17.8c-20.9-8.6-41.9-17.3-63.1-25.2c-4-1.5-11.1-1-13.6,1.6c-4.6,4.7,1.4,8.4,4.6,11.6
			c14.5,14.1,29.3,28,43.8,42.1c5.2,5.1,10.2,6.1,17.4,3.6C2481.6,1449.9,2497.1,1445.9,2519.3,1439.4z M2277.9,1584.5
			c-16.5,16.2-31.4,30.9-46.3,45.6c-7.4,7.2-5.8,16.4-5.1,25.1c0.3,3.5,4.7,2.6,8,2.5c52.3-0.9,61.9-13.9,47.2-64.1
			C2280.9,1591.3,2279.8,1589.1,2277.9,1584.5z M2467.2,1372.6c13.7,5.9,21.8,9.4,30,12.8c53.8,22.8,53.8,22.8,51.8-36.6
			c0-1.3-1.3-2.6-2.7-5.5C2521.6,1352.4,2496.9,1361.6,2467.2,1372.6z M2635.2,1143.9c6.4-11.9,26.7,8.5,26.5-12.8
			c-0.2-15.9-3.7-34.8-17.2-45.8c-6.7-5.4-38.9,31.9-38.2,44.2C2607.5,1152.6,2625.8,1134.3,2635.2,1143.9z M2093.7,978.1
			c21.3,6,39,11.5,56.9,15.8c5,1.2,15.1,3.9,12.5-7.2c-3.6-15.5-4.3-35.5-16.5-43.9c-8.5-5.8-20.4,11.3-30.7,18.2
			C2109.3,965.4,2103.3,970.7,2093.7,978.1z M2523.3,892.6c-8.8,20.7-15.8,37.5-24.4,57.6c23.9-5.8,45-3.3,67.7-12.2
			C2551.7,922.4,2539,909.1,2523.3,892.6z M2492.4,1491.1c15.4,15,26.5,30.3,44.5,39.5C2543.4,1458.9,2542.7,1477.2,2492.4,1491.1z
			 M2446.3,1186.8c-47.5-8.6-55.9-1.7-66.8,52.6C2401.8,1221.9,2422.5,1205.5,2446.3,1186.8z M2462.7,1327.9c-26.8,0-57,0-91.7,0
			C2404.4,1354.5,2423.3,1353.2,2462.7,1327.9z M2409,1471c-12.2-12.1-22.5-22.4-32.9-32.7c-1.7-1.7-3.5-3.4-5.3-5
			c-3-2.7-6.4-6.4-10.2-3.2c-1.9,1.6-2.3,6-2.2,9.1C2359.8,1468.4,2381.2,1482.7,2409,1471z M2660.6,1653.9
			c6-18.4,17.7-36.4,7.2-46.1c-9.4-8.6-27.9,2.8-40.5,6.6C2638.1,1627.3,2648.3,1639.4,2660.6,1653.9z M2224.7,1030.1
			c40.5,35.1,42.7,34.7,52.5-7C2260.1,1022.9,2243.3,1024.4,2224.7,1030.1z M2651.1,1444.9c11.6,6.3,22.1,18.6,36,12
			c5.3-2.5,5.7-17.3,1.8-19.8C2675.9,1429.1,2664,1440.1,2651.1,1444.9z"/>
		<path class="st0" d="M1072,2401.6c-134.7-6-255.5-5.6-375.7-17.4c-121.2-11.9-231.4-48.5-311.3-147.7
			c-57.9-71.8-88.7-155.3-100-245.8c-17.7-142.5,4.8-277.9,78.7-402.5c75.8-127.7,191.2-197.9,335.2-221.5
			c151.3-24.8,304-18.8,456.3-12c137.7,6.1,271.7,31.9,399.2,85.9c107,45.3,200.6,108.6,265.7,207.7c193.2,293.9,23,683.5-325.8,746
			c-74.2,13.3-149.1,16.1-224.1,14.3C1199.5,2406.9,1128.7,2403.6,1072,2401.6z M1083.7,2361c0-0.3,0-0.6,0-0.9
			c2.4,0.2,4.9,0.6,7.3,0.7c131.1,3.8,262.1,15.7,392.9-5.9c334-55.2,488.7-443.1,282.8-711.1c-71.1-92.5-169.4-145.8-276.8-184.5
			c-116.9-42.1-238.2-60.6-361.7-65.5c-138.5-5.5-277.3-9.3-415,11.8c-113.4,17.4-213.7,63.3-282.5,158.4
			c-124.6,172.1-143.3,360.3-67.6,556.4c40.9,105.9,121.1,173.8,231.5,204c63.3,17.3,128.1,23.2,193.4,25.7
			C886.6,2353.8,985.2,2357.3,1083.7,2361z"/>
		<path class="st0" d="M1113,2088.1c-99-2.1-190.4-27.3-254.5-112.6c-57-75.8-53.2-179.2,8.7-239.9c37.9-37.2,84.6-50.9,137-41.9
			c36.9,6.3,58.4,31.1,62.1,68.3c1.2,12.2,2.7,24.3,5,36.3c4.4,22.7,23.1,37.2,45.3,35.9c25-1.4,40.8-16.1,43.4-40.6
			c6.3-57.6,23.7-81.4,65.9-89.9c47-9.5,89.9,12.7,114.9,59.4c77.1,144-11.3,307.3-174.8,322.4
			C1149.2,2087.1,1132.1,2087.2,1113,2088.1z M1116.7,2046.4c10.6,0,21.2,0.4,31.8-0.1c132.5-5.6,207.3-111.7,167.4-237.3
			c-7.8-24.6-19.1-47-42.8-60.2c-33.3-18.5-66.7-1.2-70.2,36.3c-0.5,4.9-1.3,9.7-2.1,14.5c-6.7,45.2-37.2,73.1-82.2,75.4
			c-43.3,2.2-77.9-24.9-87.5-69.1c-2.6-11.9-3.8-24.1-4.6-36.3c-1.5-22.2-13.1-33.9-34.9-36.8c-50.8-6.8-100.9,21.5-120.7,68.7
			c-27.7,65.9-4.5,141.1,59.6,190.4C985.4,2034,1049.2,2046.8,1116.7,2046.4z"/>
		<path class="st0" d="M1663.7,1649c0.6,84.1-89.7,143-177.6,116c-61.7-19-100.3-76.5-89.5-133.4c12.2-63.8,75-109.1,142.9-103.1
			C1610.8,1534.9,1663.2,1585.7,1663.7,1649z M1528.3,1729.5c49.4,0.5,88.2-28.6,94.5-71c5.3-35.8-22.3-73.9-63.1-84.7
			c-26.6-7-53.6-6.4-78.4,7.2c-27.5,15-45.6,37.3-45.1,70.1c0.4,31.8,18.7,52.8,45.1,67.8
			C1495.8,1727.2,1511.7,1730.3,1528.3,1729.5z"/>
		<path class="st0" d="M674.9,1498.8c57.1,0.2,108.8,33.9,126.9,82.8c16.5,44.5,4,94-33.8,126c-40.3,34.1-86.8,42.9-137.2,27.7
			c-62.3-18.8-97.9-73-89-133.4C550.5,1543.8,608.8,1498.6,674.9,1498.8z M675.4,1701c50-0.5,90.3-34.1,92.1-76.4
			c1.5-35.5-17-59.3-46.9-73.5c-37.2-17.7-74.5-15.6-108.3,9.9c-18.2,13.7-30.1,31.7-30.9,55.7
			C579.8,1664.2,621.2,1701.5,675.4,1701z"/>
		<path class="st0" d="M1528,2198.4c-87-0.5-149.1-72.7-129.1-150c17.7-68.1,98.7-108.4,172.8-86c70,21.1,107.7,87.4,86.2,151.3
			C1640.8,2164.6,1588.5,2198.7,1528,2198.4z M1534.1,1997.6c-57.1,0.1-98,35.1-98.2,79.8c-0.1,44.3,41.2,80.4,92.7,80.6
			c8,0,16.2-1.2,24-2.9c41.7-9,71.4-42.3,70.7-78.6c-0.6-36.1-32.1-69.8-72.6-77.6C1543.8,1997.6,1536.4,1997.7,1534.1,1997.6z"/>
		<path class="st0" d="M665.4,2257.4c-87.3,0.3-150.8-71.5-131.8-149c16.3-66.5,94.9-108.2,168-89.1
			c64.2,16.8,103.5,70.5,96.2,131.4C790.5,2211.3,733.6,2257.2,665.4,2257.4z M665.5,2056.5c-4.9,0-9.8-0.4-14.7,0.1
			c-36.4,3.4-69.3,29.7-77.5,61.8c-7.8,30.2,4.4,60,33.1,80.8c40.8,29.6,103.3,21.7,135.1-17.2c10-12.3,15.9-26.2,16.3-42.5
			C759,2092.4,719.4,2056.5,665.5,2056.5z"/>
	</g>
</g>
</svg>
