<?xml version="1.0" encoding="utf-8"?>
<!-- Generator: Adobe Illustrator 23.0.0, SVG Export Plug-In . SVG Version: 6.00 Build 0)  -->
<svg version="1.0" xmlns="http://www.w3.org/2000/svg" xmlns:xlink="http://www.w3.org/1999/xlink" x="0px" y="0px"
	 viewBox="0 0 3000 3000" style="enable-background:new 0 0 3000 3000;" xml:space="preserve">
<style type="text/css">
	.st0{stroke:#000000;stroke-width:10;stroke-miterlimit:10;}
</style>
<g id="Layer_1">
</g>
<g id="Layer_2">
	<g>
		<path class="st0" d="M188.1,1521.5c0-250.3-0.4-500.6,0.1-750.9c0.6-326.7,220.7-594.5,541.1-659c42.1-8.5,84.8-11.3,127.7-11.3
			c443.1,0.2,886.2-0.3,1329.3,0.3c375.8,0.5,668.8,293.8,669.2,669.7c0.6,501.7,0.6,1003.4,0,1505.2
			c-0.5,373.8-293.9,667.7-667.2,668.3c-444.2,0.7-888.4,0.8-1332.7,0.1c-373.4-0.6-666.4-294.3-667.4-668
			C187.5,2024.3,188.1,1772.9,188.1,1521.5z M1930.9,2888.4c96.4-3.8,214.9,6.4,333-5.4c269.5-26.9,504.3-260.5,530.5-529.4
			c13.2-136.1,2.7-272.7,6-409c0.5-19.1-11-20.7-25.1-24.2c-204-51.6-340.6-220.7-340.9-421c-0.2-199.6,134.8-368.3,337.4-419.2
			c23.7-6,29.2-15.8,28.9-38.6c-1.3-89.1-0.4-178.2-0.6-267.2c-0.8-347.6-270.5-617.6-617.6-618.4c-127.4-0.3-254.8-0.1-382.3-0.1
			c-57.5,0-115-0.1-172.5,0.1c-11.8,0-26.5-3.5-24.5,17.1c6.7,68-27.1,121.3-63.2,173.7c-19.8,28.8-40.1,57.1-52.6,90.2
			c-14.5,38.3-10.8,72.5,18.1,103.1c19.3,20.4,38.4,41.2,56.3,63c33.1,40.2,42.6,85.6,28.3,136.1c-11.6,41-35,75.3-59.1,109.4
			c-24.7,34.9-51.7,68.2-66.5,109.2c-13.9,38.9-8.2,72.7,21.6,102.2c17.6,17.4,35.7,34.8,50.8,54.2c40.7,52.2,34.3,112.8-20.1,150.5
			c-42.1,29.2-56.3,67.2-56.3,115.2c0,36.2,1.5,71.9,6.8,107.8c2.5,17,9.2,24.7,25.8,29.9c66.9,20.8,119.3,62.5,159.2,119.3
			c99.5,141.6,125.7,298.9,95.6,466.9c-19.1,106.7-70.9,201.5-114.3,299c-64.6,145-83.9,295.4-66,452.3
			c3.3,28.8,14.2,34.2,40.2,33.8C1708.2,2887.6,1808.6,2888.4,1930.9,2888.4z M243.5,1893.8c9.1-7.5,12.8-9.9,15.7-13
			c109-112.3,241.2-188.4,386.6-241.6c220.7-80.7,452-111.4,683.9-137.5c26.6-3,53.6-3,80.4-4.4c-1.9-26.8-3.9-53.6-5.6-80.5
			c-5-78.8,5.1-150.9,80-198.3c24.7-15.6,27.5-38.8,11.1-64.5c-13-20.3-30.9-35.8-47.7-52.3c-48.8-48.1-59.3-103.8-35.4-167.3
			c13.7-36.3,35.2-67.8,57.7-98.8c22.8-31.4,47.2-61.8,61.3-98.7c15.1-39.5,11.1-75-19.5-105.9c-11.1-11.2-22.2-22.5-32.7-34.2
			c-69-76.4-75.6-134-24.2-223.5c14-24.3,30.6-47.1,46.4-70.4c20.4-30,38.6-61.3,45.5-97.3c7.1-37.2-3.8-49.9-39.9-49.9
			c-216.5,0-433-0.2-649.5,0.1c-66.9,0.1-132.4,10-196,31.4c-249.3,84.2-417,314-417.7,576.9c-1.1,367.6-0.3,735.2-0.3,1102.7
			C243.5,1873.7,243.5,1880.2,243.5,1893.8z M1132.6,2888.5c133.8,0,244.3-0.5,354.7,0.4c21.8,0.2,28.6-4.1,25.4-28.1
			c-21-157.4-2.1-309.9,59.1-456.9c33.7-81,76.2-158.4,102.6-242.2c53.5-169.7,36.5-331.7-61.1-482.2
			c-54.5-84-134.4-123.3-234.4-123.6c-66.8-0.2-132.3,11.3-198,20.8C1013.9,1601,847,1627.3,687,1684.4
			c-163.7,58.5-311.2,142.1-424.6,277.6c-9.3,11.1-19.4,21.3-19,38c3,118.3-6,236.7,5.8,354.8c26.8,266.8,261.3,501.3,528.2,527.9
			C903.4,2895.4,1029.8,2884.4,1132.6,2888.5z M2772,1447.3c-8.3-12.2-16.7-25.5-25.9-38.2c-20.3-27.7-32.8-76.3-61.3-78.4
			c-27.3-1.9-57.3,34.3-86.2,53.8c-0.9,0.6-1.8,1.3-2.8,1.9c-12.9,6.6-14.1,14.9-6.3,27.3c21.1,33.3,41.5,67,61.6,100.9
			c7.1,12,12.9,15.3,25.7,5.8c27.1-20.1,55.6-38.3,83.4-57.6C2765.2,1459.2,2773,1457.4,2772,1447.3z M2637.8,1615.5
			c-26.2,17.9-52.6,36.9-80.1,54.3c-15.2,9.6-15.7,18.2-5.8,32.3c19.5,27.8,41.6,52.9,66,76.3c14.6,14.1,25.3,15.5,42.7,2
			c57.8-45.1,58.5-44.3,20.7-107.6c-9.2-15.4-18.5-30.8-28-46C2649.9,1621.5,2647.6,1614.2,2637.8,1615.5z M2490.6,1502.4
			c0.1,35.1,6.2,69.3,15.6,103.2c4.9,17.7,10.7,26.2,29,12c19.6-15.1,40-29.4,61.2-42c15.9-9.5,15.5-18.5,6.4-32.5
			c-17.9-27.3-34-55.8-51.7-83.2c-6.2-9.5-9.4-28.8-23.2-23.7c-16.6,6.2-36.1,15.6-37.1,39.1
			C2490.3,1484.4,2490.6,1493.4,2490.6,1502.4z M2800.1,1504.7c-36.5,24.9-66.6,46-97.3,66c-12.5,8.2-7.9,15.8-2.3,24.8
			c15.9,25.8,30.7,52.3,47.8,77.2c5.8,8.5,6.4,28.5,23.4,21.6c14.8-6.1,29.4-14.9,28.8-36.7
			C2799.2,1609.4,2800.1,1561.1,2800.1,1504.7z M2799.9,1154.9c2.7-17-2-24.9-21.7-19.2c-24.9,7.1-49.7,14.6-72.6,26.7
			c-53.6,28.1-41,17.8-16.7,59.8c10.2,17.6,19.6,16.6,33.8,5.9c20.6-15.6,41.7-30.6,63.3-44.7
			C2796.7,1176.3,2801.7,1167.9,2799.9,1154.9z M2620.7,1222.3c-5.4,2.8-8.8,3.8-11.1,5.9c-28.4,26-51.9,56-70.6,89.7
			c-5.5,9.9,1.7,17.5,7.7,23.8c8.1,8.5,14.3-0.4,20.2-4.4c23.2-15.9,46.3-31.8,68.8-48.5c7.2-5.3,21.9-8.4,14.5-22
			C2641.7,1251.3,2630.7,1237.2,2620.7,1222.3z M2798.8,1243.9c-20.7,14.5-36.2,25.3-51.7,36.1c-7,4.8-12.5,9.9-6.3,19
			c17.8,25.6,35.6,51.3,58,83.6C2798.8,1331.8,2798.8,1291,2798.8,1243.9z M2793,1865.5c-27.2-82.5-41.6-88.4-95.7-40.8
			c-1.3,1.1-1,3.9-1.7,6.9C2726.1,1847.3,2757.6,1860.1,2793,1865.5z"/>
		<path class="st0" d="M2354.8,1944.8c-1.1,63.9-24.5,149.5-87.7,220c-99,110.4-246.1,105.9-339.5-9.1
			c-106.1-130.5-106.4-350.6-0.7-481.5c100.5-124.4,263.5-118.7,359,12.5C2330.9,1748.8,2355,1828.7,2354.8,1944.8z M2174.9,1980
			c-28.6,31.6-67.1,56.4-75.7,89c-7.4,28,29.4,59.6,44.9,90.5c1,2,2.3,3.9,3.2,5.9c4.7,10.3,11,11.6,21.3,6.3
			c28.7-14.7,50.9-36.2,70.6-61.2c7.8-9.9,5.8-17.8-0.2-27.3C2218,2050.2,2197.6,2016.7,2174.9,1980z M2212.2,1691.5
			c-3.7,2.5-6.8,4-8.9,6.3c-26.3,28.8-72.4,50.4-76.1,85.4c-3,28.5,32.2,60.9,50.3,91.7c5.1,8.7,10.3,11.1,18,2.9
			c24.5-26.2,51-50.7,73.1-78.8c16.9-21.5-5.7-39.2-14.6-56.7C2244.1,1722.9,2231.7,1704,2212.2,1691.5z M2142.6,1927.3
			c-10.4-17.2-20.7-34.5-31.2-51.6c-33.1-53.7-31.8-52.2-79.7-9.7c-27.5,24.4-38.8,44.5-11.7,76.9c16.8,20.1,23,61.8,42.6,63.9
			c24,2.7,40.1-33.7,59.3-53.5C2129.4,1945.7,2139.8,1939.8,2142.6,1927.3z M1930.3,1784.9c9.8,17.3,20.5,37,32.1,56.1
			c5.3,8.8,10.8,2.7,16.4-1.4c67.1-48.4,71.5-69.5,27.5-135.2c-2.5-3.7-4.8-7.6-7.7-11c-3.1-3.6-6.3-4.2-11.3-1.6
			C1975,1698.2,1929.7,1768.6,1930.3,1784.9z M1913.2,1995.5c9,39.3,23.1,74.4,44.9,106.4c7,10.2,11.9,9,21,1.6
			c43.8-35.2,44.9-39.2,18-86.9c-10.5-18.6-20.8-37.3-31.6-55.6c-3.2-5.4-7.9-16.3-13.5-11.7C1936,1962.1,1916,1972.8,1913.2,1995.5
			z M2278.1,2036.8c19.3-60.3,26.9-115.4,16.1-174.9c-84.9,68-84.9,68-31.2,152.5C2266.6,2019.9,2270.4,2025.3,2278.1,2036.8z
			 M2102.8,1641.7c-19.3,0-43.7-2.8-54.1,11.9c-9.5,13.4,11.4,28.5,19.2,42.4c20.2,35.8,21.4,35.9,58.6-2.6
			c11.8-12.2,37.6-23.6,29.7-39.3C2149,1639.8,2122.1,1641.5,2102.8,1641.7z M2092.7,2184.3c-12.3-21.5-23.3-40.8-34.4-60.1
			c-2.6-4.6-5.6-12.6-12-6.9c-11.7,10.4-22.3,22.1-32.5,34.1c-5.6,6.6,2,9.8,6.1,12.2C2041.2,2175.9,2062.4,2188.8,2092.7,2184.3z"
			/>
		<path class="st0" d="M1852.7,835c0.5-85.6,21.9-165,74.9-233.4c98.5-127.1,257.8-127,357-0.7c102.9,131,100,350.5-6.4,478.6
			c-97.6,117.6-253.4,115.5-348.5-4.7C1879.4,1011.2,1852.6,927.5,1852.7,835z M2279.5,709.8c0.7-14.5-44.5-87-57.3-93.8
			c-8.6-4.5-12.5,1-17.1,5.6c-23.2,22.9-45.9,46.3-69.5,68.7c-9,8.6-10,15.7-3.5,26c16.2,25.5,32.3,51.3,47.4,77.4
			c8.6,14.8,15.4,11.2,24.9,1.1c21.4-23.1,43.6-45.4,65.3-68.1C2274.3,721.9,2280,717.5,2279.5,709.8z M2175.5,899.6
			c-8.4,11.7-14,21.8-21.7,29.8c-58.5,61-58.6,60.9-15.7,133.5c24.4,41.2,27.5,41.7,66.6,10.7c49.3-39.1,50.9-47.7,19.1-100.3
			c-11.1-18.3-22.2-36.6-33.5-54.7C2187.5,914.1,2183.9,910.3,2175.5,899.6z M2066.2,935.8c90.5-79.3,90.7-80.2,28.2-173.4
			c-1.3-1.9-2.6-3.7-3.6-5.7c-5.8-11.4-11.1-9.3-20.2-2c-71,56.9-72.2,61.1-29,138.8C2049.2,907.3,2057.4,920.7,2066.2,935.8z
			 M1972.3,770.7c4.9-3.9,8.6-6.4,11.8-9.4c73-68.2,73-68.2,14.6-151.1C1933,663.3,1926.8,697.4,1972.3,770.7z M1960.5,866.4
			c-49.1,45.1-49.3,45.2-26.4,102.5c5.8,14.5,13.5,28.3,20.3,42.4c10.6,22,23.8,29.4,38.7,4.3c9.2-15.4,39.6-20.9,24.7-48.1
			C1999.5,934.2,1980.3,901.4,1960.5,866.4z M2299.4,784.7c-24.5,22.9-46.4,43.5-68.6,64c-7.9,7.3-8.7,14.6-2.9,23.7
			c17.3,26.9,34.1,54,53.7,85.2C2304.1,897.7,2306.3,842.6,2299.4,784.7z M2089.4,645c26.1-22.7,51.2-44.5,77.6-67.5
			c-34.6-17.7-67.2-18.7-100.9-9.5c-12.9,3.5-20.8,7.8-10.7,22.7C2068.5,609.9,2080.2,630.1,2089.4,645z M2054.6,1031.8
			c-12.6,13.9-22.1,24.8-32.1,35.3c-7,7.3-7.5,13,2,18.4c21.8,12.5,43.5,25.3,73.7,21.5C2083.3,1081.3,2070,1058.4,2054.6,1031.8z"
			/>
		<path class="st0" d="M897,750.6c120.1-0.2,217.5,96.2,218,215.8c0.6,119.5-96.8,217.4-216.3,217.7c-123,0.2-219.8-96-219.1-217.8
			C680.4,845.4,775.7,750.8,897,750.6z M736.9,968.8c0.3,89.5,72.1,160.4,161.6,159.7c88.8-0.7,160.4-73.8,159.4-162.7
			c-1-89.3-73.7-160.8-162.4-159.7C805.9,807.1,736.6,878.3,736.9,968.8z"/>
		<path class="st0" d="M1300.6,1879.8c155.5,1.4,275.5,120.8,274.6,273.2c-0.9,155.8-126.2,274.1-287.6,271.5
			c-144.2-2.3-262.1-128.2-260.3-277.9C1029.1,1996.5,1150,1878.4,1300.6,1879.8z M1302.7,1935c-122.5-0.2-220.3,96.3-219.9,217.1
			c0.3,119.4,97.6,215.9,217.7,216c120.9,0.1,216.8-94.9,217.7-215.5C1518.9,2032.3,1422.8,1935.2,1302.7,1935z"/>
	</g>
</g>
</svg>
