<?xml version="1.0" encoding="utf-8"?>
<!-- Generator: Adobe Illustrator 23.0.0, SVG Export Plug-In . SVG Version: 6.00 Build 0)  -->
<svg version="1.0" xmlns="http://www.w3.org/2000/svg" xmlns:xlink="http://www.w3.org/1999/xlink" x="0px" y="0px"
	 viewBox="0 0 3000 3000" style="enable-background:new 0 0 3000 3000;" xml:space="preserve">
<style type="text/css">
	.st0{stroke:#000000;stroke-width:10;stroke-miterlimit:10;}
</style>
<g id="Layer_1">
</g>
<g id="Layer_2">
	<g>
		<path class="st0" d="M715.5,2453.1c-4.6,2.6-8.1,4.1-11.1,6.4c-70.5,52.3-151,74.9-237.3,80.3c-82.5,5.2-164-5.8-245.6-14.9
			c-9.3-1-9.2-6.5-10.5-13c-10.7-56.5,20-114.4,76.1-144.1c39.3-20.8,81.8-27.2,125.3-29.6c33.6-1.9,67.3-2.1,100.8-5.4
			c66.7-6.5,117.5-43.5,164.4-88c37.1-35.2,70.8-73.8,109.5-107.4c30.9-26.8,64.6-48.8,102.3-65.4c-28.7-30.1-66.9-35.6-103.1-15.1
			c-34.1,19.3-58.4,48.7-80.9,79.8c-11.1,15.2-22.9,29.7-36.3,42.9c-44.7,44-105.9,34.3-132.7-22.1c-6.8-14.4-16-10.1-25.3-8.9
			c-69,9.1-137.4,6.6-203.2-16.8c-125.7-44.7-210.7-128.6-232.9-263.5c-17-103.5,20.5-189.2,101.7-255.7c5.4-4.4,15.6-7.1,3.9-16.3
			c-67-53-71.5-158.6-29.6-234.8c25.1-45.7,61.2-81.4,102.7-112.2c41.6-30.9,86.2-57,131.3-81.5c-0.2-3.9-2-5.2-4.6-6.2
			c-213.9-75.5-356.2-307.5-269.5-573.9C173,396.4,311.1,282.4,500.7,229.6c188.7-52.5,366.3-15.2,534.5,78.5
			c23.7,13.2,46.1,28.7,68.6,43.9c8.3,5.6,15.4,7.1,25.1,3.8c224.3-77.7,456.3-93.4,691.1-85.9c141.1,4.5,281.5,17.8,421.8,32.4
			c14.4,1.5,27.3-0.7,41-7.2c114.2-54.5,234.5-73.6,358.9-51.2c134.1,24.2,212.3,110.2,245.9,239.3c8.6,33.2,13.5,67.7,11.4,101.9
			c-3,47.7,6,94.1,9.7,141c5.4,69.3,1,138.1-7.3,207c-5.7,47.4-6.3,95.5-9.7,143.2c-5.4,75.7-25.9,146.4-73.3,207.1
			c-7.5,9.7-9.7,18.7-8.1,30.2c17.4,124.4,29.8,249.2,36.4,374.6c9.2,173.3,15.1,346.8-2.3,519.8
			c-11.4,112.9-40.3,221.2-100.9,319.1c-87.5,141.4-213.6,217.4-380,226.6c-86.6,4.8-173.3,5.7-260,7.8c-14.9,0.4-29.3,1.5-43.9,6
			c-8.8,2.8-20.2,11.2-29.2-2.5c-1.5-2.3-8.5-1.3-13-1.2c-235.5,5.7-471,12.7-706.5,16.5c-89.8,1.5-179.7,8.5-269.7,1.4
			c-115.7-9.1-200.4-66.2-261-162.5C748.4,2568.6,729,2512.6,715.5,2453.1z M2201.7,346.7c-12.1-1.8-19.8-3.2-27.5-3.9
			c-135.9-12.4-271.9-25-408.5-26.9c-198.2-2.7-394.3,12.2-584.7,72.6c-187,59.3-353.8,151.6-485.6,300.2
			c-48,54.2-89.6,112.6-109,183.5c-20.7,75.5-14.7,147.3,35.1,211.5c4.7,6,9.1,11.9,18.6,11.9c25.9-0.1,51.7,3,77.1,7.9
			c8.7,1.7,11.5,0,9.9-9.5c-6.2-37.2-6.9-74.6-2.8-112.1c18.7-172,130.7-281,281.9-331.1c47.8-15.8,89.6,11.5,97.7,58.6
			c4.5,26.4-0.9,51.2-15.3,74.2c-16.2,25.7-39.1,44.7-62.7,62.8c-71,54.6-92.6,128.1-75,212.2c14.6,69.7,55.2,136.4,148.4,147.9
			c19.9,2.4,39.9,4.6,59.9,5.1c107.2,2.4,213.1-10.2,317.6-33.1c176.1-38.5,349.2-88.5,523.3-134.7c11.7-3.1,14.5-8.5,14.4-20.1
			c-0.7-62.1-1.2-124.3-0.3-186.4c1.1-83,9.4-165.3,33.6-245.2C2076.3,497.5,2122.7,413.8,2201.7,346.7z M1610,2725.7
			c132.5-3.2,263.8-6.5,395.1-9.4c12.7-0.3,12.5-5.5,11.4-15.5c-7.9-69.7,11.5-131.7,54.3-186.8c25.7-33.1,60.4-54.1,97-72.7
			c13.9-7.1,27-15.4,34.4-30.2c7.6-15.3,4-25.9-11.3-33.3c-12.7-6.1-26.3-6.3-39.9-5.2c-24.5,2-48.2,9.1-73,9.7
			c-51.6,1.2-87.8-26-100.7-75.9c-7.4-28.7-7.7-57.7-4.8-86.7c8.4-84.9,18.3-169.7,25.8-254.7c8.8-99.4,54.9-170.6,149.8-207.1
			c32-12.3,63.9-24.5,95.9-36.8c64.3-24.9,126.5-53.7,174.6-105.1c43.9-46.8,68.6-101.1,62.5-167.1c-1.2-12.5-5.6-16-18-15.8
			c-80.7,1.6-160.4-4.2-236.1-35.7c-8.1-3.4-11.4-1.4-14.5,5.9c-6.7,16.1-12.9,32.6-21.4,47.7c-9.5,16.8-8.2,27,12.5,30.1
			c20.9,3.1,22.2,14.4,13.1,30.5c-1.6,2.8-2.8,5.9-3.3,9.1c-2,11.7-8.3,11.8-18.1,8.6c-33.7-11.1-33.8-10.8-48.3,21.2
			c-2.4,5.3-4.6,10.7-7.1,16c-2.5,5.5-2.9,10.7,4.3,11.8c24.5,3.8,18.4,17.9,11.6,32.7c-2.9,6.4-4.9,13.1-7.4,19.7
			c-4.9-1.7-9.5-2.7-13.4-4.9c-13.6-7.7-21.6-5.1-26.8,10.7c-5,15.2-12.6,29.7-19.5,44.3c-4.3,9.2-9.2,17.8,5.8,22.2
			c6.6,1.9,3.3,7,1.5,11.1c-3.3,7.7-6.6,15.5-9.8,23.2c-2.9,7-5.7,13.4-15.2,7.3c-8.3-5.3-11.2,1.3-13.9,7.3
			c-11.6,25.9-23.1,51.9-34.8,77.7c-13,28.9-12.9,28.4-41.6,15.4c-10.8-4.9-14.6-8.9-8.4-21.1c12.5-24.8,23-50.5,34.3-75.9
			c11.7-26,11.7-26-13.4-37.1c-7.1-3.1-14.4-5.9-21.1-9.6c-9.7-5.4-14.6-3.1-18.6,7.3c-10.2,26.5-21.3,52.6-32.4,78.7
			c-12.4,29.4-12.2,28.5-41.4,17.1c-13.7-5.4-13.1-11.6-8.2-22.9c13.2-30.1,25-60.9,38.2-91c4.2-9.6,4.4-14.9-6.7-19.1
			c-16.9-6.4-33.5-13.7-49.8-21.6c-9.5-4.6-13.7-2.2-17.3,7c-8,20.4-16.6,40.6-25.3,60.8c-12.4,28.8-12.2,28-41.8,16.6
			c-12.6-4.8-13.5-9.9-8.3-21.2c11.1-24,20.4-48.8,31.3-73c4.6-10.1,4.5-16-7.3-20.1c-12.8-4.4-25.4-9.8-37.3-16.2
			c-10.2-5.5-13.5-0.8-16.9,7.5c-5.4,13.1-11.4,26-17.4,38.9c-1.5,3.2-2.1,9.5-6.8,7.7c-12.6-4.9-26.2-9.2-36.3-17.6
			c-7.3-6,3-14.9,5.7-22.4c3-8.5,6.8-16.8,11-24.7c4.9-9.1,4.3-14.5-6.6-18.7c-21.6-8.4-42.7-18.4-64.1-27.4
			c-30.5-12.9-52.3,2.5-52.3,36.9c-0.1,56.3-0.2,112.6-0.3,168.9c-0.1,57.8-26.5,82.7-84.2,84.7c-45,1.5-90.2-12.5-135.3,6.8
			c-25,10.7-53.8,1.7-80.7,1c-43.9-1.3-69-28.2-68.6-72.2c0.2-33,2.3-66,3.2-98.9c0.2-6.9,4-16.9-8.9-17
			c-10.3-0.1-22.9-9.1-28.8,8.4c-7.1,20.9-19.6,39.2-30.8,58.1c-20.4,34.4-44.1,67-60.5,103.8c-18,40.4-29,81.1-13.5,125.7
			c4.7,13.7,16.1,23.3,18.4,37.3c3,18,14.8,22.7,30.8,24.8c174.7,23.4,340-5.2,495.9-87.8c26.8-14.2,53.5-29.1,82.9-37.5
			c64.5-18.4,115.8,0.7,148.8,55.3c65,107.5,14.6,257.3-104.2,307.5c-14.7,6.2-18.4,13-16.4,28.4c19.8,152.7-12.4,294.3-92.6,425.3
			C1615.6,2712,1610.3,2716.4,1610,2725.7z M2765.8,1339.2c-37.2,28.4-75,49.2-116,63.8c-7.5,2.7-8.8,6.7-7.5,14.7
			c7,42.8,11.1,86,8.6,129.4c-6,103.5-50.1,183.2-145.5,230.4c-29.5,14.6-59.5,28.4-88.5,43.9c-82.9,44.3-153.3,103.3-206.6,181.2
			c-23.1,33.8-37.3,70.8-33.4,113c4.8,50.9,36,83.3,86.5,88.6c15.4,1.6,31,1.2,46.5,2c67.2,3.7,104.9,38.9,111.4,105.6
			c3.8,38.8,1.5,77.5-4.9,116c-12.9,77.2-56,128.9-129.3,155.8c-30.9,11.4-61.8,22.8-92.6,34.5c-38,14.5-63.3,40.6-75.9,79.9
			c-4.5,14.1-1.8,16.5,11.7,15.7c85.3-4.8,170.8-1.2,256-10.2c76.2-8.1,146.7-30.2,207.6-78.1c77.6-61,128.6-140.8,161.5-232.8
			c38.7-108,48.5-220.6,50.9-334.1c3-149.6-0.4-299-11.9-448.2C2787.4,1520.9,2778.8,1431.5,2765.8,1339.2z M531.6,1530.2
			c-5.7,11.3-11.1,21.5-16,31.9c-18.3,38.3-50.1,61-89.3,72.1c-54.2,15.3-109.6,15.4-164.2,1.3c-19-4.9-33.3-0.9-48.6,9.4
			c-95.2,64.4-122.9,196.8-62.7,302.6c81.7,143.5,241.3,174.3,369.6,151.8c6.3-1.1,9.9-3.6,12.1-10.2
			c30.6-94.2,99.7-147.2,191.1-173.3c91.3-26.1,183.5-27.4,275.2,0.7c9.3-76.5,18.5-102.1,60.3-169.5c14-22.5,27.9-45.1,41.6-67.8
			c11-18.4,19.3-37.9,24.8-58.7c29.5-111.4-61.7-210.7-175.1-190.7c-12.3,2.2-19.8,7.5-25.9,19.5
			c-39.5,76.4-101.7,128.2-181.8,157.4C664.9,1634.8,564.1,1606.9,531.6,1530.2z M1059.7,380.9c-3.4-3.1-4.9-5.1-6.9-6.3
			c-168.5-107.1-348.9-152.2-545.5-97.8c-237.1,65.6-378.1,262.8-373.9,478.9c3.3,171.7,130.7,333.5,298.4,371.3
			c18.3,4.1,35,3.8,53-2.6c23.6-8.5,48.2-14.8,72.8-19.9c13.1-2.7,16.2-4,8.4-17.1c-36-60.3-45.3-125.7-33.2-194.4
			c13.5-76.7,50.8-141.9,98.5-201.7c107.8-135,245.5-230.1,402.6-298.9C1042,388.8,1050,385.2,1059.7,380.9z M2849.9,552.9
			c-1.5-12.7-3-25.3-4.5-38c-13.4-111.1-97.7-202-207.1-224.1c-70.5-14.2-140.6-8.8-210.1,4.8c-151.5,29.6-259.1,113.8-317.1,258.9
			c-25.4,63.7-40.6,129.9-44.8,197.7c-7.8,127.2-12.7,254.8,6.3,381.6c16.4,109.3,78.2,182.9,181,222.8
			c48.2,18.7,98.6,25.8,149.8,28.4c72.8,3.7,144.9,0.2,214.9-21.9c108-34.1,182.7-101.9,213.4-213.4c12.8-46.5,14.5-94.5,17.2-142.2
			c2.4-43.3,2.8-86.6-7.3-129.3c-8.9-37.6-24.8-70.7-57.1-93.8c-88.4-63.4-227.7-8.9-250.1,98c-10.4,49.7,4.1,93.3,33.7,132.8
			c4.8,6.4,10.7,15.8,19.5,13.3c10.6-2.9,9.2-14.2,9.1-23.2c0-7.1-0.2-14.2-0.2-21.4c-0.3-48.4,27.3-85.1,74.4-98.7
			c45.4-13.2,78.3,8.2,84.9,55.1c4.4,31.1,0.9,61.9-4,92.6c-15.8,100.6-64.6,176.2-163.2,213.5c-46.1,17.5-94.2,24.3-143,19.1
			c-114.1-12-199.9-68.1-212.1-207.4c-11.1-126.7-6.5-251.7,18.9-376.2c8.4-41.1,13.7-82.8,37-119.4
			c71.9-112.9,224.2-169.5,357.8-133.3C2726.5,450.6,2793.2,491.1,2849.9,552.9z M2864.1,800.1c-0.3-38.9-4.1-72.3-6-105.8
			c-2.2-38.2-18.4-68.9-40.4-98.5c-91.2-122.5-255.5-164.1-389.3-96.4c-56.7,28.7-101.9,70.5-117.6,134.5
			c-15.8,64.6-24.3,130.8-32.6,196.9c-9.7,77.6-2.3,155.1,4.5,232.4c7.4,84.6,49.6,130.6,132.8,149.3c10.7,2.4,21.6,4.1,32.5,5.5
			c122.1,15.3,220.6-49.4,251.3-165.7c8.9-33.9,13.2-68.6,9.6-103.8c-1-9.8-2-21.6-17.7-19.8c-26,2.9-47.7,26.6-47.6,52.8
			c0,12.9,1.3,25.9,0.2,38.7c-2.2,26.2-16.2,45.9-40.5,54.4c-23.2,8.2-44.4-0.5-61.5-18c-35.4-36.2-54.3-80.4-57.6-130.3
			c-5.8-86.3,49.9-170.6,130.6-200.8c92.9-34.8,183-10.9,239.9,63.5C2856.6,791.5,2858.7,793.7,2864.1,800.1z M171.6,1473.4
			c1.5,45,21.2,84.7,72.1,106.1c38.5,16.2,78.1,19.1,118.9,17.4c57.8-2.4,100.2-24.3,123.7-81.8c20.6-50.7,56-92.7,96.3-130
			c11.3-10.5,23.9-16.8,39.9-17c12-0.1,16.1,4.2,15.5,16c-0.9,15.6-7.3,27.9-17.3,39.5c-16.5,19-32.6,38.6-40.6,63.2
			c-7.2,22.1-2.5,39.4,15.7,53.5c33,25.6,70.3,34.8,111.3,26.4c51.3-10.5,92.2-39.6,128.7-75.3c36.7-35.9,62.3-77.9,62.7-131.2
			c0.8-90.2-65.6-173.8-159.1-202.1c-69-20.9-137.7-17.8-206.6,0.7c-25.5,6.8-49,19.2-73.3,28.4c-74.5,28.1-142.7,69.9-203.7,121.8
			C207.3,1350,172.6,1399.4,171.6,1473.4z M2064,2698.6c2.7-2.1,4.1-2.7,4.5-3.7c1.7-3.5,3.4-7,4.6-10.7
			c19.6-65.2,67.7-99.8,129-120.5c26.9-9.1,53.6-18.8,79.9-29.6c33.5-13.7,60.6-35.4,74.1-70c21-53.7,24.5-109.5,14.4-165.9
			c-4.5-25.5-20.7-38.8-46.6-41.9c-16.7-2-33.5-2.8-50.3-3.4c-82.2-3.2-135.4-52.2-144.1-133.8c-5.2-48.4,9-92.4,34.7-132.6
			c58.3-91.1,138.5-158.1,233-208.7c30.1-16.2,61.6-29.9,91.9-45.8c44.3-23.2,78.1-55.8,96.6-104.1c24.9-65,19.8-130.7,10.5-197.1
			c-1.4-10.2-7-10.7-15-9.2c-14.6,2.7-29.2,5.6-44,7.2c-8.6,0.9-10.6,4-9.6,12.3c9.4,74.9-16.3,138.8-63.3,195.1
			c-45.1,54-104.7,87.4-168.2,115.2c-45.6,19.9-93.4,34.1-139,54.1c-64.6,28.3-101.2,75.9-108.5,146.1
			c-7.4,70.1-15.8,140-22.3,210.2c-3.6,39.1-12.2,78.3-6,117.9c7.2,45.9,26.1,59.9,72,54.1c10.9-1.4,21.6-4.2,32.4-6
			c27.6-4.5,54.9-5.2,81.6,5c42.9,16.4,59.6,61.1,37.7,101.7c-13.9,25.8-36.9,41.2-62.1,53.7c-26.3,13.1-51.1,28.1-70,51
			C2073.8,2585.2,2057.1,2637.5,2064,2698.6z M1246.5,2170.7c34.3,0,68.6,0.4,102.8-0.1c66.3-0.8,132.3-4.8,192.9-35.3
			c65-32.7,105.4-84.1,113.3-158.1c0.7-6.8,3.1-15.8-3.1-20.1c-5.5-3.7-11.7,2.9-17.1,5.8c-170.3,93.4-351.6,125.8-543.6,98
			c-9.4-1.4-13.3,0.2-17.5,8.9c-25,52-70,68.4-122.1,44.5c-10.8-5-20.2-5.6-31.5-2.2c-37.5,11.2-68.3,33.5-97.8,57.8
			c-46.6,38.3-85,85.1-129.8,125.4c-48.3,43.4-102.2,75.2-167.4,83.6c-29.4,3.8-59.3,4.6-89,5.8c-38.9,1.5-77.6,3.6-114.1,18.9
			c-29.3,12.3-51.4,32.1-62.7,62.5c-2.8,7.5-5.1,14.6,8,16c61.1,6.7,122.2,13.1,183.9,11.1c100.8-3.3,189.5-36.6,265.3-103.7
			c35.4-31.3,71.1-62.2,107.3-92.4c66.1-55.2,137-102.2,223-120.6C1113.1,2162.4,1179.7,2163.2,1246.5,2170.7z M1965.2,1102.6
			c-32.3,8.8-64.4,17.9-96.8,26.2c-163.1,42-324.4,91.7-491.6,115.9c-91.7,13.3-183.9,20.9-276.6,9.9
			c-39.1-4.6-77.3-14.3-107.9-39.6c-131.9-109.2-119.3-312.1-3.7-399.3c12.9-9.7,25.2-20.3,37.3-31.1c14.1-12.6,26.4-26.6,30.7-46
			c7.4-33.7-10.7-52.2-43.1-40.3c-65.8,24.1-125.6,58.3-170.3,114c-68.2,85-84,182.4-67.1,287.4c1.5,9.5,6.9,14.1,15.4,17.7
			c66.1,28.9,112.4,77.1,138.8,144.1c3.6,9,8.6,13.3,17.3,15.8c160.8,46.8,323.3,53.2,487.6,21.5c131.5-25.4,255.7-73.2,378.7-124.4
			C1865.4,1152.9,1917.3,1131.5,1965.2,1102.6z M1237.7,2734.7c104.2-2.8,202.4-5.5,300.7-7.7c8.9-0.2,12.5-5.7,16.5-11.3
			c89.7-125.1,126-264.4,111.8-417.5c-2.1-22.2-9.2-31.1-31.4-27c-5.5,1-11.8,0-17.3-1.4c-15.2-3.9-20,1-19.7,17
			c1.1,59-8.2,117.2-15.9,175.5c-2.2,16.7-9.9,24.4-26.8,25.6c-20.3,1.5-38.1-4.6-55-14.4c-23.3-13.5-43.3-31.6-64.3-50.3
			C1382.9,2534.4,1317.5,2636.3,1237.7,2734.7z M942.4,2708.7c13.1,5.1,22.4,9.6,32.2,12.5c63.1,18.2,127.8,17.1,192.6,14.4
			c7.5-0.3,11.6-5,15.8-9.9c87.8-103,160.5-215.7,217.7-338.3c3.8-8.1,5-15.4,1.8-24.1c-15.4-42.6-12.8-86.6-7.8-130.4
			c1.4-12.1,0.1-15.8-12.9-15.5c-29.7,0.7-59.5,0.6-89.3-0.8c-12.9-0.6-16.7,2.7-16.6,15.7c0.6,55,0.5,110,0.2,165
			c-0.1,25.8,1.5,51.7-3.5,77.4c-13.3,68-88.5,95.9-142.5,52.2c-8.4-6.8-15.2-15.4-23.9-24.3
			C1065.3,2581.6,1011.5,2648.9,942.4,2708.7z M1686.1,1277.9c-4.7,0.7-7.2,0.7-9.4,1.5c-58.3,21.6-117.5,39.9-178.1,53.7
			c-10.3,2.3-12.3,6.9-11.8,17.2c3.9,75.2-47.2,130.8-122.2,133.8c-53.3,2.1-105.9-5.8-158.3-13.8c-67.9-10.4-81-28.1-78.6-98.5
			c0.4-12.3-6.3-11.6-14.2-12.5c-43-5.3-85.7-12.3-127.8-22.7c-40.5-10-40.1-9.8-40.2,31.4c0,11.4,2.5,13.5,14,12.4
			c50.2-4.9,96.7,6.6,137.3,36.8c58.5,43.4,84.2,103,82,175.2c-0.2,8.4-2.4,15.8,11,16.9c68.5,5.7,137,9.5,204.7-6.6
			c90.8-21.7,155.2-79.5,206.5-154.1C1636.9,1396.2,1663.8,1339.4,1686.1,1277.9z M921.4,2414.9c0,0.3,0,0.7,0,1
			c-39.4,0-78.9,0-118.3,0c-48.6,0-48.6,0-35.9,47.8c21,79.5,54.7,151.7,118.3,207.1c10,8.7,16.3,10.3,27.4,0.7
			c39.8-34.5,75.1-73,105.6-115.8c25.9-36.4,47.9-75.1,64.6-116.7c7.7-19.3,4.8-24-14.1-24C1019.7,2414.9,970.6,2414.9,921.4,2414.9
			z M865.1,1944.5c-50.2-1.1-99.6,4.9-146.9,22.1c-57.8,21.1-104.2,56.4-132.1,113.1c-7.9,16.1-12,32.9-9,50.7
			c4.5,26.3,26.6,36.1,49.2,22.2c17.6-10.8,28.7-27.8,40.3-44.1c15.4-21.7,32.7-41.7,52.1-59.9c71.8-67.2,138.9-68.8,213.9-5.8
			c13.2,11.1,27.4,21.7,42.6,29.6c24.4,12.6,46.1,2.8,56.1-22.9c7.9-20.2,2.4-38.2-9.7-54.7c-13.5-18.3-31.9-29.6-53.1-37.2
			C935,1945.5,900,1945.7,865.1,1944.5z M1643.9,2223.3c43.4-0.4,85.7-16.3,120.6-50.9c56.3-55.8,64.3-159.5,16.4-216.8
			c-17.8-21.4-40.8-28.1-67.7-23.9c-9.5,1.5-15.1,4.2-12.1,16.1c3.8,15.1,2.5,30.8,0.3,46.2c-8.8,63.4-40.2,114-89.9,152.9
			c-13.4,10.5-18.3,20.3-16.3,36.9C1599.7,2223,1599,2223,1643.9,2223.3z M1228.5,2337.1c0.2,0,0.4,0,0.5,0
			c0-36.2-0.3-72.5,0.2-108.7c0.2-10.6-2.6-15.2-13.9-15c-22.6,0.5-45.3,0.4-67.9-0.3c-11.8-0.4-15.4,3.8-15.3,15.7
			c0.8,58.2,0.5,116.5,1.2,174.7c0.2,16.1,1.6,32.4,4.7,48.2c6.1,30.7,28.2,50.3,52,48.3c24.2-2.1,37.1-18.9,38.2-54.2
			C1229.4,2409.5,1228.5,2373.3,1228.5,2337.1z M1547.4,2185.6c-29.3,11.7-57.7,20.8-87.2,24.1c-12.4,1.4-17.3,6.1-17.3,17.9
			c0,5.1-1.4,10.2-2,15.4c-2.6,23.9-1.9,47.7-1.2,71.7c0.7,24.9,13.9,44.7,24.7,64.8c12.8,23.7,37.4,36.9,59,52.2
			c11.9,8.4,15.2,3.5,16.4-8.7c3.2-34.1,8-68.1,10.2-102.2C1552.9,2276.3,1553.1,2231.9,1547.4,2185.6z M1515.3,1602.2
			c-36.3,22-72.1,38-110.6,47c-6.7,1.6-9.7,4.8-9.8,11.8c-0.6,38.1-1.5,76.1-2.4,114.2c-0.1,6.2,0.2,11.4,8.8,11.6
			c29,0.7,57.9,4.7,87,2.9c16.1-1,27.1-7.4,27-25.7C1515.2,1711.2,1515.3,1658.4,1515.3,1602.2z M1253.5,1365.2c-21.3,0-42.6,0-64,0
			c-4.3,0-9.2-2-12.8,2.1c-12.8,14.5-1.2,49.7,18.8,52.9c54.8,8.7,109.8,17.6,165.6,16.6c46.6-0.9,72.7-27.5,79-74
			c2.1-15.5-3.3-16.2-15.2-13.9C1368.3,1359.9,1311,1363.9,1253.5,1365.2z M867.9,2323.9c2.9,1.9,3.8,3.1,4.8,3.1
			c67.1-0.1,134.2-0.4,201.3-0.2c10.1,0,11.5-4.7,11.4-13.1c-0.4-23.2-0.2-46.5-0.1-69.7c0.1-26.2,0.2-25.9-26.5-20.5
			C985.8,2238.4,925,2276.1,867.9,2323.9z M1343.9,1724.5c0.9,0,1.8,0,2.7,0c0-18.1-0.2-36.2,0.1-54.3c0.1-8-1.8-12.1-10.9-10.9
			c-26.3,3.6-52.8,3.4-79.3,2.1c-6.7-0.3-11.2,1.2-11.3,9.2c-0.7,35.5-2.1,71-2.4,106.5c-0.1,13.9,8.1,20.9,22.1,21.2
			c20.7,0.4,41.3,0.9,62,1.7c11.2,0.4,17.1-4.2,17.1-15.5C1344,1764.5,1343.9,1744.5,1343.9,1724.5z M1989.2,1307.6
			c-5.7-1.3-6.8,3.6-8.1,6.7c-9.8,22.5-19.1,45.1-28.7,67.6c-2.6,6.1-0.3,9.5,5.6,11.6c18.2,6.4,36.4,12.9,54.6,19.5
			c7.2,2.6,11.8,1.6,14.9-6.5c8.4-21.6,17.6-42.9,26.4-64.4c1.7-4.1,4.9-9.3-1.1-11.6C2031.7,1322.5,2010.4,1315.1,1989.2,1307.6z
			 M1836.3,1258.7c0.9-3.3-1.2-4.9-3.1-6.6c-30.3-26.3-78.5-14.4-93.6,23c-3.4,8.4-6.1,17.1-10,25.1c-3.2,6.6-3.3,10.4,4.6,13
			c19.6,6.6,38.9,13.8,58.3,20.8c3.8,1.4,8.3,3.1,10.3-1.2C1814.3,1308.2,1825.2,1283.4,1836.3,1258.7z M2110.7,1350.7
			c-8.3-2.4-9.5,2.4-11.2,6.5c-3.2,7.7-6.3,15.5-9.6,23.2c-24.5,58.1-24.4,57.9,37.8,73.8c7.8,2,10.3-0.1,13-6.2
			c9.5-21.8,19.4-43.4,28.9-65.2c1.6-3.6,6-8.6-1-11.2C2148.7,1364.2,2128.7,1357.2,2110.7,1350.7z M1959.5,1570.8
			c1.3-7.9-2.9-8.6-6.5-9.9c-19.3-7.1-38.7-14.1-57.9-21.5c-6.6-2.5-9.7,0.6-11.8,5.9c-7,17.9-20.8,36.6-18.8,53.4
			c1.6,13.3,27.5,14.6,42.1,22.3c6.3,3.3,13,5.5,19.5,8.5c3.1,1.4,7,2.9,8.5-0.6C1943.5,1608.8,1951.9,1588.6,1959.5,1570.8z
			 M1937.4,1294.9c1-5.8-3.5-6.6-6.7-8.3c-41.1-21.7-46.2-19.9-64.6,22.6c-0.5,1.2-1.1,2.3-1.6,3.5c-18.9,44.3-18.9,44.3,28.1,57.3
			c1.9,0.5,3.7,1.1,5.6,1.5c2.7,0.7,5.6,0.5,6.8-2.1C1915.8,1344.6,1926.5,1319.8,1937.4,1294.9z M2012.2,1581.7
			c-3.4-0.5-5.6,0.6-6.7,3.3c-8.7,21.4-25,43.3-23.5,64c1.1,15.1,31.7,16.3,48.1,25.7c6.2,3.5,9.1,0.7,11.6-5
			c8.4-19.4,17.3-38.7,25.9-58.1c1.6-3.6,3-8.3-1.7-10.1C2048,1594.5,2029.8,1588.1,2012.2,1581.7z M1706.7,1534.2
			c6,0.8,7.2-3.1,8.8-6.6c5.2-11.8,9.9-23.8,15.9-35.1c4.2-8,2.1-11.1-5.9-13.9c-19.4-6.6-38.7-13.8-57.9-21.1
			c-9-3.5-14.2-2-20.1,6.9c-22.9,34.7-23.4,34.3,14.1,50.3c11.2,4.8,22.3,9.9,33.5,14.8C1699.2,1531.3,1703.4,1532.9,1706.7,1534.2z
			 M1935.7,1435.9c-4-0.9-6.1,0.9-7.6,4.3c-6.4,15.4-12.8,30.8-19.4,46.1c-2.7,6.2,0.9,7.7,5.7,9.2c7.3,2.4,14.4,5.4,21.7,8
			c47.6,17,47.6,17,64.1-31.4c0.6-1.8,1.3-3.6,2-5.4c1.3-3.6,0.2-6.6-3.2-7.9C1977.9,1451.1,1956.8,1443.6,1935.7,1435.9z
			 M1711.7,1355.7c-4.6,0.2-6.8,2.9-8.5,6.7c-3.5,7.7-7.2,15.2-10.9,22.7c-13,26.3-13,26.3,15.1,36.1c51.5,18,51.5,18,69.5-29.8
			c0.7-1.8,1.4-3.6,2.2-5.4c1.2-2.8,0.8-5.5-1.9-6.5C1755.4,1371.5,1733.6,1363.7,1711.7,1355.7z M2000.8,1143.2
			c-26.7,12.6-49.6,21.3-70.3,33.7c-16.1,9.7-17.7,30.2-25,46.2c-1.4,3.1,2.1,4.4,4.3,5.2c13.8,5.1,27.7,10.1,41.7,14.9
			c7.2,2.5,8.9-3.5,10.8-8C1974.5,1206.4,1986.5,1177.4,2000.8,1143.2z M2083.8,1556.7c6.1,1.5,8.4-0.6,9.8-3.7
			c6.9-15.2,13.8-30.5,20.5-45.8c1.9-4.3,0.5-7.2-4.2-8.8c-19.5-6.6-39.8-20.1-58-17.6c-12.7,1.7-14.1,29.2-22.2,44.4
			c-0.9,1.7-1.3,3.7-2,5.4c-1.2,2.8-0.5,5.6,2,6.5C2048.5,1544.1,2067.2,1550.8,2083.8,1556.7z M1839.4,1526.9c0.9-6.4-1.9-7.9-5-9
			c-17-6-34.8-18-50.7-16c-12,1.6-14.1,25.2-21.2,38.7c-1.5,2.8-2.7,5.8-3.8,8.8c-1.1,3.2-1.4,6.5,2.4,8.2
			c17.1,7.5,34.2,15,51.5,22.2c1.2,0.5,4.3-0.7,4.8-1.9C1825.1,1560.3,1832.6,1542.5,1839.4,1526.9z M1883.1,1423.6
			c0.8-6-2.7-7.4-5.4-8.3c-16.3-5.6-33.3-16.1-49-14.5c-11.7,1.2-12.5,23.1-19.5,35.1c-1.9,3.3-3.1,7.1-4.8,10.5
			c-2.7,5.6-2.2,9.2,4.6,11.5c14.6,4.9,29,10.4,43.5,15.6c3,1.1,6.9,3.2,8.6-0.4C1869,1456.2,1876.3,1439.1,1883.1,1423.6z
			 M807.2,2377c3.1,0.9,4.9,1.8,6.8,1.8c86.6-0.2,173.1-0.4,259.7-0.7c4.7,0,11.4,1.7,11.6-6.3c0.2-10.7-8.5-7.8-14.1-7.8
			c-80.1,0-160.2,0.3-240.3,0.3C821.3,2364.3,812.9,2365.8,807.2,2377z M2034.9,1186.3c-10.8,25.3-19.6,46.5-28.8,67.5
			c-3,6.7,0.1,9.3,5.5,11.2c18.1,6.5,36.2,12.9,54.3,19.3c3.5,1.2,7.9,3.6,10.6-0.2c2.6-3.6-0.5-7.2-2.6-10.4
			C2057.4,1248.2,2045.6,1220.5,2034.9,1186.3z"/>
		<path class="st0" d="M1677,780.5c1.1,75.4-61.3,141-135.2,141.9c-83.3,1.1-150.5-59.4-151.3-136.1
			c-0.9-83.5,59.3-150.4,136.1-151.3C1615.1,633.9,1675.8,692.6,1677,780.5z M1534.6,683.1c-54.8-0.1-95.8,40.4-96,94.9
			c-0.2,55,40.2,96.2,94.4,96.5c55.8,0.3,97-40.5,97-95.9C1629.9,723.9,1589.2,683.1,1534.6,683.1z"/>
		<path class="st0" d="M1814.8,695.4c-35.9,0.2-64.6-27.9-64.2-62.9c0.4-34.6,28.3-61.7,63.4-61.7c35.1,0,63,27.4,63.2,61.9
			C1877.5,667.1,1849.5,695.2,1814.8,695.4z"/>
		<path class="st0" d="M1135.9,1011.6c0-35.7,26.7-63,61.6-63.2c34.2-0.2,62.7,28.1,63,62.6c0.3,35.5-28.4,64.6-63.3,64.2
			C1162.1,1074.7,1135.9,1047.5,1135.9,1011.6z"/>
		<path class="st0" d="M1910.1,938.3c-0.4,34.8-28.6,62.7-63.1,62.4c-34.5-0.3-62.4-28.6-62.4-63.2c0-35.4,29.5-65.4,64.3-63.2
			C1885.6,876.7,1910.7,903.2,1910.1,938.3z"/>
		<path class="st0" d="M1226.9,706.7c-33.9-0.1-63-29.1-63.4-63.1c-0.3-34.6,29.9-64.4,64.5-63.7c34.4,0.8,62.6,29.7,62.2,63.8
			C1289.8,678,1260.8,706.8,1226.9,706.7z"/>
		<path class="st0" d="M2548.2,2101.7c-49.1-0.3-86-37-85.4-85.3c0.5-46.8,38.7-84.9,85.3-85.3c46.9-0.3,86.6,39.1,86.7,86
			C2634.8,2064.8,2596.8,2102,2548.2,2101.7z M2548.2,2054.7c22.1,0.1,38.2-15.5,38.4-37.1c0.2-21.4-16.1-37.7-37.8-37.7
			c-22.3,0-38,15.3-38.2,37.1C2510.4,2038.9,2526.1,2054.7,2548.2,2054.7z"/>
		<path class="st0" d="M2620.4,2336.8c-0.1,35.9-26.6,62.9-61.7,62.9c-34.1,0-62.8-28.6-63-62.9c-0.3-35.1,29.2-64.5,64-63.8
			C2594.9,2273.7,2620.5,2300.6,2620.4,2336.8z"/>
		<path class="st0" d="M364.3,941.4c19.5,1.4,34.8,18.6,33.8,38c-1,20.1-19.5,36-39.5,34.1c-19.4-1.9-34.4-19.7-32.8-38.8
			C327.6,955.1,345,940,364.3,941.4z"/>
		<path class="st0" d="M621.4,364.7c21.3,0.2,36,14,36.1,33.9c0.1,20-17.5,37-37.6,36.3c-19.2-0.7-35.7-17.9-35.2-36.9
			C585.2,378.3,600.3,364.5,621.4,364.7z"/>
		<path class="st0" d="M826.6,407.9c-20.2-0.2-35.8-15.5-35.9-35.3c-0.1-19.7,15.4-34.9,35.8-35c21.5-0.1,37.5,15.4,36.9,35.9
			C862.9,393.2,846.9,408.1,826.6,407.9z"/>
		<path class="st0" d="M296.9,629.4c-20.4,0.3-36.4-14.3-37.3-34c-0.9-20.4,15-36.3,36.4-36.4c20.7,0,35.8,14.5,36,34.6
			C332.3,613.8,317.3,629.1,296.9,629.4z"/>
		<path class="st0" d="M428.5,489.3c-20-0.2-35.2-15.9-35.3-36c0-20,15.5-36,35.3-36.3c20.2-0.3,36.7,16.7,36.2,37.3
			C464.2,474.5,448.6,489.6,428.5,489.3z"/>
		<path class="st0" d="M278.8,846.9c-20.6,0.2-35.7-14.2-36.2-34.4c-0.5-21,15.3-36.9,36.3-36.7c20,0.2,35.4,15.8,35.4,35.8
			C314.3,831.6,299.1,846.6,278.8,846.9z"/>
		<path class="st0" d="M759.4,1366.4c-0.3,17.9-4.7,49.1-19.5,78c-13.5,26.2-33.2,45.8-61.3,56.5c-12.2,4.7-20.1,4.3-20.4-11.5
			c-0.1-5.1-1.5-10.2-2.7-15.2c-2-8.9-2-15.2,9.2-19.3c17.9-6.6,28.7-21.4,35.8-38.8c8.4-20.7,11.5-42.3,11.7-64.5
			c0.5-56.5-27-79.1-82.7-68.4c-69.9,13.4-124,50-161.1,110.6c-18.5,30.2-33.9,62.2-51.7,92.8c-20.6,35.6-45.9,67-81.9,88.9
			c-12.6,7.7-19.7,6.6-24.1-7.9c-1.9-6.1-4.8-11.9-7.8-17.6c-3.2-6.2-2.9-10.1,4.1-13.8c35.1-19,56-50.8,74.8-84.4
			c18.6-33.2,34.3-68.2,56.7-99.2c48.3-66.8,112.7-108.5,195-117.2C717.1,1226.5,760,1268.3,759.4,1366.4z"/>
	</g>
</g>
</svg>
