<?xml version="1.0" encoding="utf-8"?>
<!-- Generator: Adobe Illustrator 23.0.0, SVG Export Plug-In . SVG Version: 6.00 Build 0)  -->
<svg version="1.0" xmlns="http://www.w3.org/2000/svg" xmlns:xlink="http://www.w3.org/1999/xlink" x="0px" y="0px"
	 viewBox="0 0 3000 3000" style="enable-background:new 0 0 3000 3000;" xml:space="preserve">
<style type="text/css">
	.st0{stroke:#000000;stroke-width:10;stroke-miterlimit:10;}
</style>
<g id="Layer_1">
</g>
<g id="Layer_2">
	<g>
		<path class="st0" d="M1507.1,745.7c284.8,0,569.6-0.4,854.4,0.1c273.3,0.5,510,182.1,581.5,445.4c8.9,32.7,16.8,66,17.3,99.8
			c2,129.9,18.9,261.5-15.7,388.8c-61.2,225.3-210.4,359.6-440,402.9c-71.3,13.5-143.9,6.3-215.9,8.6
			c-311.8,10.1-623.6,19.2-935.5,26.6c-100.3,2.4-200.1-5-295-43c-91.8-36.8-161.3-98.6-205.3-187.5c-8-16.2-11.7-18.8-25.8-4.8
			c-136.9,136.2-338.7,178.9-508.8,104.8c-151.8-66.1-235.5-186.8-266-347.1c-8.2-43-5.9-86.5-4.8-129.9c1.9-77.2-4.1-154.5,4-231.6
			c26.3-250.6,219.2-465.8,465.3-519.1c46.2-10,92.9-14.4,140.2-14.4C940.4,745.8,1223.8,745.6,1507.1,745.7
			C1507.1,745.7,1507.1,745.7,1507.1,745.7z M861.3,1757.5c6.9,20.9,11.9,36.8,17.3,52.7c34.8,101.6,99.8,174.9,200.9,214.9
			c61.7,24.4,126.2,34.1,191.8,36.9c125.9,5.4,251.6-3.1,377.4-6.5c178-4.8,356-9.6,534-15.6c97.8-3.3,195.9,0.8,293.3-8.6
			c227.2-21.8,410.9-210.1,429.6-437.1c7.4-89.7,4.8-179.5,2.7-269.2c-2-85.7-24.9-166.9-67.6-241.9
			c-23.2-40.8-49.8-79.1-83.3-112.4c-2.3,2.2-3.9,3-4.3,4.2c-2.3,7.7-4.3,15.5-6.5,23.3c-39.1,134.3-101.7,255.3-202.4,354.2
			c-120.5,118.3-267.8,170.7-434.2,169.6c-188.6-1.2-376.3-17.2-562.9-44.1c-168.3-24.3-292.7-112.8-368.5-266.3
			c-60.6-122.8-74.9-254.4-69.9-388.9c0.8-21.3-5.7-23.8-24-23.7c-138.4,0.7-276.8,0.5-415.2,0.2c-38.4-0.1-76.4,2.8-114.3,8.6
			c-233.7,35.9-430.7,247-450.6,482.1c-6.4,75-2.3,150.1-3.5,225.1c-0.6,38.2-2.9,76.5,4,114.5c6.4,35.1,14.4,69.6,31.4,103
			c2-3.2,3.2-4.2,3.3-5.3c14.5-155.1,71.6-293.1,167.9-415c30.3-38.3,20.7-32.9,54.6-5c10.1,8.3,9.6,14.4,1,22.5
			c-4.2,4-7.6,9-11.3,13.6c-108.3,134.6-160.6,288.9-161.6,461c-0.1,8.7-1.1,18.2,4.9,25.6c32.6,40.5,72,72.5,120.7,97.2
			c1.6-23.9,3-44.9,4.5-65.9c11.2-162,70.7-304.9,171.1-431.5c22.2-28,22.6-26.9,49.5-3.5c10.2,8.9,12.8,15.1,2.4,26.3
			c-22,23.8-40,50.9-57.6,78c-78.9,121.4-113.4,255.5-114.6,399.3c-0.1,15.9,5.2,23.4,21.2,26.9c33.2,7.2,66.5,11.7,100.5,12.7
			c16.9,0.5,20.5-4.4,19.9-21.1c-6.3-165.1,43.3-311.3,150.9-437.2c2.8-3.3,8.4-9,8.9-8.7c12.2,9.3,24.9,18.4,35.3,29.5
			c8.4,9-3.6,14.2-8,19.5c-93.8,113.8-138.4,244.2-133.2,391.7c0.5,14.4,3.7,18.6,19.3,14.7c66.8-16.9,126.5-46.8,179.2-91.3
			C801.8,1836.1,830.1,1798.6,861.3,1757.5z M1981.5,1347.5c109.8,1.1,195.9-15,279-51.7c184.2-81.3,301.4-224.6,376.4-407.1
			c5.1-12.5-1.4-15.2-9.3-19.7c-64.3-36.4-133.2-58.5-206.6-65.6c-88.9-8.6-178-2.1-267-4.3c-11.1-0.3-17.6,5.3-24.3,12.4
			c-136.3,144.9-225.5,314.3-267.4,508.9c-3.6,16.7,3.2,18.5,15.2,19.9C1915.4,1344.8,1953.6,1347.8,1981.5,1347.5z M1822.9,799.3
			c-13.8,0-21.6,0-29.4,0c-156.8,0-313.5,0-470.3,0c-5.2,0-10.3,0.3-15.5,0c-9.1-0.6-12.9,3.4-14.2,12.5
			c-12.6,88.1-8.3,175,24.9,258.2c50,125.1,149,190.3,275.5,221.3c17,4.1,22.8,2.1,24.3-16.5c9.3-113.7,42.4-220.4,96.1-320.9
			C1743.4,899.8,1779.1,850.5,1822.9,799.3z M2036.4,1467.1c38.3,1.9,76.5,0.8,114.8-0.9c139.9-6.2,260.2-57.8,359.3-156.6
			c94.7-94.3,151.5-210.2,187.1-337.5c3.6-12.7,6.5-25.6,9.5-38.4c2.9-12.6-7.1-17.9-15.2-21.2c-10.8-4.4-9.5,7.6-11.7,13
			c-15.4,36.6-32.7,72.4-53.4,106.3c-153.8,253-375.6,382.9-674.9,368.3c-132.5-6.4-263.1-29.4-391.4-62.4
			c-110.8-28.5-202-86.7-262.3-187.4c-54.7-91.3-69.5-190.9-63.7-295c1-18.1,9.9-43.6,1.5-52.3c-11.2-11.4-36.2-2-55.1-3.8
			c-14.1-1.4-17,4.9-17.8,17.6c-5.5,89.6,0.9,178.2,24.6,264.7c53.8,196.3,175.7,317.9,382.8,345.6
			C1725.3,1447.7,1880.8,1458.4,2036.4,1467.1z M2066.5,799.3c-52.6,0-99.6,0.7-146.7-0.4c-16.1-0.4-27.3,4.4-38.3,16.2
			c-125.4,134.4-195.6,293-211.1,476.1c-1.2,14.4,4.9,17.8,16.5,19.6c31.9,5,64,9.1,95.5,16c17.6,3.9,24,0.2,27.8-17.9
			c36.1-174.3,110.3-330.8,222.8-469C2043.1,827.7,2053.2,815.4,2066.5,799.3z"/>
	</g>
</g>
</svg>
