<?xml version="1.0" encoding="utf-8"?>
<!-- Generator: Adobe Illustrator 23.0.0, SVG Export Plug-In . SVG Version: 6.00 Build 0)  -->
<svg version="1.0" xmlns="http://www.w3.org/2000/svg" xmlns:xlink="http://www.w3.org/1999/xlink" x="0px" y="0px"
	 viewBox="0 0 3000 3000" style="enable-background:new 0 0 3000 3000;" xml:space="preserve">
<style type="text/css">
	.st0{stroke:#000000;stroke-width:10;stroke-miterlimit:10;}
</style>
<g id="Layer_1">
</g>
<g id="Layer_2">
	<g>
		<path class="st0" d="M359.1,2215.4c-21.5-17.6-41.1-32.8-59.7-49c-92.3-79.9-129-183-126.2-302.8c1.6-69.8,12.7-138.4,22.6-207.2
			c22.9-159.3,6.4-314.7-43.7-467.3c-14.8-45.1-24.9-91.5-12.7-139.2c19.5-76.8,69-126.5,144.8-145.5c72.1-18,134.4,5,182.3,61.5
			c30.9,36.4,39.7,78.3,24.8,125.2c-32.9,103.6-51.9,209.8-54.3,318.7c-0.7,30.9-2.2,61.9,11,91.2c11.6,25.8,37,44.8,59,42.7
			c28.2-2.6,38.3-24.1,44.4-47.1c20.5-77.3,31.8-156.4,39.8-235.8c11.8-115.5,18.2-231.2,1.6-346.9
			c-19.4-134.5-67.9-253.4-180.6-337.7c-64.9-48.6-137.4-73.5-219.2-64.4c-16.7,1.9-20.8-4.7-23.1-18.6
			c-10.3-61.5,25.4-125.2,88.4-157.4c43.8-22.4,91.2-29.1,139.2-33.6c62.5-5.9,124.7-10.5,187.3,0.7
			c71.6,12.9,125.2,50.8,160.3,113.4c22.2,39.6,40.3,81.5,60.2,122.4c19.4,40.1,46,74.3,82,100.9c45.6,33.6,94.1,38.2,145.5,14.9
			c24.2-11,48.1-22.7,72.5-33.3c56.5-24.6,108.9-20.7,154.1,24.7c26.2,26.4,54.8,28.1,86.8,12c28.3-14.3,55.7-31,87.6-36.4
			c58.9-10,111,5.9,154.3,46.3c13.8,12.9,19.6,11.8,30.7-2.1c53.6-66.6,117.5-119.9,198.8-150.3c155.3-58.2,290.4,23.4,311.3,188.2
			c0.9,7.3-1.5,15.6,9.1,24.7c5-6.6,9.5-13.8,15.2-20c75.8-81,163.2-142.5,271.9-173.4c133.9-38.1,286.9-4.8,377.5,75.1
			c79,69.8,114.8,160.7,129.9,261.7c5.6,37.3,8.9,75.1,9.7,112.8c2.9,131.4,6.3,262.8,5.7,394.1c-0.7,150.3-25.9,297.1-76,439.1
			c-36.1,102.3-92.7,193.4-162.1,276.1c-74.7,88.9-173,135.9-286.4,153.3c-117.7,18.1-234.3,45.7-354.6,41.7
			c-8.5-0.3-13.5,0.1-14.2,11.8c-11.4,190.7-91.8,286-276.9,325.8c-84.1,18.1-168.3,19.6-251.7-7.5c-107.7-35-175.6-122.4-180.6-235
			c-0.4-8.6-0.6-17.2-0.6-25.8c0.1-64.9-2.2-66.3-66.6-40.9c41.1,132.3-13.5,240.4-146.3,285.3c-78.1,26.4-158.5,29.9-238.8,11.6
			c-98-22.4-141.6-103.2-108.5-198c7.1-20.3,16-39.9,28.5-57.5c7.2-10.2,9-16.2-6.9-17.7c-40.8-3.7-81.6-8.2-123.8-12.5
			c4.7,22.4,11.1,43.6,13.2,65.2c8.1,83.9-18.7,155.3-79.9,213.8c-128.8,123-362.8,117.2-480-13.4c-54.1-60.2-72.9-132-55.7-210.7
			c20.7-94.7,88.2-140.8,177.6-161.1C290,2215,323,2212.9,359.1,2215.4z M1263.9,1335.7c-52.9,50.2-104.7,96.5-160.6,138.1
			c-28.6,21.3-58.5,44.3-95.7,21.1c-36.2-22.7-32.6-60.8-26.6-95.4c41-238.7,130.3-457.9,268.3-657.1c7.3-10.6,20.5-21,20.6-31.7
			c0.2-13.9-20.7-14-29.5-24c-2.8-3.2-6.8-5.3-9.7-8.4c-32.5-34.3-69.7-35.6-110.5-16.8c-30.3,14-60.4,29.2-92.1,39.1
			c-21.2,6.6-29.1,17.1-33.3,38c-45.1,227.2-124.6,442-235.7,645.3c-7.1,12.9-11.1,23.1-30.2,12.4c-17.8-10-16.9-17.5-8.2-33.1
			c63.7-114.1,115.6-233.6,157.9-357.2c30.3-88.6,54.6-178.8,73.4-270.5c1.7-8.2,12.2-21.3-8.1-25.6
			c-87.5-18.5-140.2-78.1-178-154.2c-17.2-34.5-32.6-70-50.1-104.3c-30.4-59.5-77.2-96.9-144.8-107.4c-44.6-6.9-89.2-5.9-133.6-2.3
			c-47.7,3.9-96.1,6-141.5,24.1c-36.7,14.6-64.8,37.9-80.1,75.3c-6.9,16.8-7.3,27.4,16.2,26.6c16.1-0.6,32.7,1,48.5,4.2
			c135,27.8,228,110,291.5,228.7c50.5,94.4,67.3,197.6,71.9,303.1c5.1,117.9-3.9,235.2-21.6,351.7c-8.6,56.7-14.6,114.4-35.2,168.5
			c-26.3,69.1-97.8,84.3-151.7,33.4c-16.7-15.7-27.4-35.2-33.5-57.1c-9.9-35.2-9.8-71.1-8-107.3c5.3-107.7,23.9-213,56.4-315.9
			c8.8-27.9,5.6-53.9-12.5-77.9c-33.9-45.1-90.7-66.8-143.4-54.1c-57.3,13.8-105.8,65.5-114.5,120c-8.2,51.4,8.7,98.5,23.2,145.9
			c44.7,146,55.7,294.3,35.4,445.5c-10.7,79.8-25.9,159.4-22.2,240.7c3.6,78.9,27.4,149.6,82.5,208.2
			c61.2,65.2,134.9,112.6,218.5,141.1c127,43.2,260.3,51.9,393.3,57.5c120.7,5.1,239.5-12.8,358.2-31.6
			c166.2-26.3,300.9-102.1,391.4-247.4c44.8-71.9,79.5-147.7,88.2-233.6c7.2-69.9,17.5-139.6,33-208.2
			c34.7-153.3,90.4-300,144.2-447.2c43-117.6,86.1-235.1,156.9-340c1.9-2.7,3.8-6,4.1-9.2c6.3-73.4-3.3-143.1-55.8-199.5
			c-51.6-55.3-115.8-58.1-183.1-36.9c-119.9,37.8-197.1,126.9-257.8,229.2c-86.5,145.9-168.1,294.9-256.7,439.7
			c-6.2,10.2-12.5,20.1-14.1,32.7c-11.2,86.7-23.1,173.4-34.5,260.1c-2.9,21.9-0.1,43.1,12.2,61.8c16.9,25.8,44,28,65,5.5
			c12.4-13.2,21.4-28.7,29.7-44.9c42.3-82.4,84.6-164.9,127.8-246.9c78.1-148.3,164.7-291.3,264.2-426.5c11-15,18.4-18.6,33.7-5.9
			c12,10,14.3,17,3.7,29c-9.6,10.9-17.5,23.3-26.1,35.1c-140.5,194-249.6,406-357,619.2c-10.8,21.4-21.6,43-37,61.6
			c-21.3,25.8-47.7,43.1-82.8,36.4c-38.5-7.4-60.3-33.8-71.2-70c-8.8-29.5-6.1-59.5-2.1-89.4
			C1251.3,1430.3,1257.6,1383,1263.9,1335.7z M2404.8,588.5c-16.2,1-27.2,7.8-38.5,13.1c-120.9,56.9-207.4,150.1-275.2,262.6
			c-51.7,85.7-85.5,179.4-119.4,272.9c-61.6,169.9-129.3,338.1-159.8,517.6c-19,111.7-35.2,223.8-28.2,337.5
			c6,96.4,50.8,168.4,138.7,213.2c70.5,36,144.4,46.3,222,39.4c90.7-8.1,180-25.4,269.7-39.5c111-17.5,203.6-65.8,275.9-154.5
			c140.6-172.5,195.4-375.4,211-591.2c11.4-156.8-4.6-314-2.3-471.1c0.7-44.5-3.9-89.2-12.5-133.1c-19.7-100.6-61.9-187-152.8-242.8
			c-35.8-21.9-36-21.5-47.1,19.1c-16.5,60.3-25.8,122.6-52.1,180c-22.4,49-54.5,89.3-105,112c-86.4,38.8-172.8-7.5-187.1-100.7
			c-5.2-33.8,2.7-66.5,11.3-99C2365.7,677.8,2384.4,634,2404.8,588.5z M1464.5,660.9c-24.9,0.8-46.4,8.7-67.4,19.2
			c-16.1,8-31.9,17.6-49,22.5c-18,5.2-29,16.5-39.3,30.6c-127.9,174.7-216.4,367.5-266.3,578c-9.3,39.2-18.9,78.5-21.2,118.9
			c-1.6,29.5,12.8,39.1,35.4,23.5c72.5-49.8,143.1-104.4,190.8-178.4c113.8-176.6,216.8-359.9,319.1-543.4
			c7.6-13.6,4.5-21.6-5.5-30.9C1533.5,675,1500.7,662.4,1464.5,660.9z M636.8,2342c-11.3,13.6-20.5,25.9-31.1,37
			c-32.3,33.7-72,45.9-117.4,36.4c-45.2-9.5-74.4-37.2-86-82.4c-3.2-12.4-6.4-24.9-9.3-37.4c-5.5-23.2-21.1-35.5-43.7-37.1
			c-53.3-3.6-104.5,5.1-151.6,31.4c-38.5,21.5-63.6,53.8-74.7,97.1c-20.5,80.2,13.1,165.2,85.8,215.4
			c100.3,69.3,256.1,66.5,354.1-6.2C646.1,2534.4,676.6,2433.2,636.8,2342z M1635.8,2332.6c3-66.9-11.3-89.8-71.9-115.5
			c-12.2-5.2-21.5-5.2-33,3c-27.2,19.5-55.8,40-88.1,47c-50,10.8-56.2,42-56.5,85.1c-0.9,125.8,65.8,211.4,189.1,235.6
			c91.7,18,180.7,6.5,267.9-25.8c101.2-37.5,165.6-125.8,168.7-233.2c1.2-44.2,1.2-44.1-41.4-57c-8.2-2.5-16.7-4.7-24.1-8.8
			c-12.5-6.8-17.9-1.8-23,9.7c-21.3,47.3-50.1,89.9-85.4,127.9c-19.4,20.9-40.7,39.3-67.8,49.9c-67.1,26.4-126.5-8.6-134.2-79.9
			C1634.7,2358.8,1635.8,2346.7,1635.8,2332.6z M966.9,2346.3c-25.7,0-51.5,0.2-77.2-0.1c-9-0.1-16.3,0.6-22.2,9
			c-17.7,25-34.8,50-43.9,79.8c-20.8,68.4,6.8,120.8,76.2,136.8c78.7,18.2,156.7,12.7,232.5-15.5c33.5-12.5,62-33.4,84.4-61.4
			c33.8-42.3,45.1-89.1,28-142.1c-7.6-23.8-20-31.4-45.4-27.1C1122.5,2338.8,1045,2346.8,966.9,2346.3z M2543,562.4
			c-21.9-0.6-42.4,0.1-62.9,3.8c-9.1,1.7-15.9,4.5-20.5,13c-38,69.7-69.3,141.9-76.1,222.1c-4.4,51.8,33,91.1,84.7,91.9
			c31,0.5,56.6-11.7,79-32c30.1-27.3,49.3-61.6,60.5-100.1c16.2-55.9,30.1-112.5,46.1-168.5c3.9-13.7-2.9-16.5-12.8-18.8
			C2608.4,566.1,2575.5,560.1,2543,562.4z M1585.1,2178.6c10.8,6,18.2,10.2,25.7,14.2c45.8,24.6,68.5,63.2,69.4,114.8
			c0.3,18.8-1.6,37.7-0.8,56.5c1.8,40.6,25.9,58.3,65.6,49.3c15.5-3.5,28.5-11.5,40.3-21.8c41.9-36.8,71.9-82.3,97.4-131.4
			c8-15.5,8-23.3-8.8-33.9c-71.2-44.8-114.9-108.9-127.6-192.9c-2.5-16.5-5.2-32.9-8.9-55.9
			C1696.3,2056.3,1650.4,2123.1,1585.1,2178.6z M421.8,2251.3c11.7,26.5,16.7,49.7,22.3,72.7c5.9,24.5,22.1,40,46,47.5
			c43.3,13.6,79.9-5.2,108-55.8c-28.9-8.1-57.8-15.6-86.3-24.4C482.3,2282.2,454.6,2268.5,421.8,2251.3z"/>
		<path class="st0" d="M2314.2,1696.5c-43.6-1.4-84.2-10.5-119.5-39.2c-36.2-29.5-48-67.2-37.5-110.1
			c19.7-80.5,63-149.4,113.7-214.1c12.1-15.5,18.9-1,27,4c10.6,6.7,15,13.7,4.5,26.3c-39.7,47.8-70.3,101.3-93.2,159.1
			c-27.6,69.8-4.1,113,69.7,127.4c96.4,18.8,197.4-40.7,239.7-141.5c17.1-40.7,26.8-83.2,27.1-127.4c0.1-15,7-17.6,18.9-15.5
			c9.4,1.7,23.9-5.6,23.8,13.8c-0.6,118.3-60.5,266.7-210.7,308.1C2356.9,1693.3,2335.9,1696.9,2314.2,1696.5z"/>
		<path class="st0" d="M2182.2,2057.8c-82.6,1.2-153.8-56.3-163.8-137.4c-5.4-44.2,11.1-82.5,35.9-117.8
			c17.4-24.7,40.2-44.5,61.5-65.7c16.7-16.6,23.6-2.8,34.4,6.9c13.9,12.6,3.5,17.3-5,24.7c-24.5,21.6-47.7,44.6-64.8,72.8
			c-47.7,78.6,1.9,170,94.1,174.3c82.4,3.9,141.8-38.4,193-96.3c19.3-21.8,36.7-45.4,53.1-69.5c10-14.8,18-6,24.3,0.4
			c5.5,5.6,24.7,4.7,13.8,20.6c-43.5,63.3-90.3,123.5-160.6,159.8C2263.3,2048.7,2226.9,2060.6,2182.2,2057.8z"/>
		<path class="st0" d="M2413.1,1140.4c-18,0-36.1-0.8-54,0.2c-16,0.9-24.7-1.1-24.9-21.2c-0.2-19.9,8-22,24.2-21.6
			c37.7,0.9,75.5,1.1,113.2,0c16.4-0.5,20.3,5.2,19.4,20.7c-0.8,15-2.6,24.1-21.2,22.4c-18.7-1.8-37.7-0.4-56.6-0.4
			C2413.1,1140.5,2413.1,1140.4,2413.1,1140.4z"/>
	</g>
</g>
</svg>
