<?xml version="1.0" encoding="utf-8"?>
<!-- Generator: Adobe Illustrator 23.0.0, SVG Export Plug-In . SVG Version: 6.00 Build 0)  -->
<svg version="1.0" xmlns="http://www.w3.org/2000/svg" xmlns:xlink="http://www.w3.org/1999/xlink" x="0px" y="0px"
	 viewBox="0 0 3000 3000" style="enable-background:new 0 0 3000 3000;" xml:space="preserve">
<style type="text/css">
	.st0{stroke:#000000;stroke-width:10;stroke-miterlimit:10;}
</style>
<g id="Layer_1">
</g>
<g id="Layer_2">
	<g>
		<path class="st0" d="M765.9,616.4c-87.4,158.5-154.3,322.1-149.8,509.5c9.4-4.6,10.6-12.3,13.9-18.3
			c57.6-103.6,141.9-173.8,257.3-204.2c67.7-17.8,136.1-17.4,204.2-1.3c10.3,2.4,17.3,2.5,24.7-6.4c65.5-77.9,152.7-115.3,250.2-133
			c61.8-11.2,123.5-23.4,186.8-16.4c125.3,13.8,227.8,69.9,301.8,172.1c49.7,68.7,56.4,142.9,11,218.2c-5.2,8.6-9.7,17.8-13.3,27.2
			c-10.8,28.3-4,53.3,19.4,72.5c15.2,12.5,32.9,20.9,50.3,29.9c43.3,22.3,80.2,50.5,90.7,102c6.5,32,3.3,63.5-8.5,93.5
			c-28.7,73.2-74.2,134.4-137.3,181.5c-38.5,28.7-82.9,42.9-130.8,40.7c-46.3-2.1-81.9,15.1-106.6,53.1
			c-31.4,48.4-72.6,83-128.9,98.1c-37.4,10-75.7,13.2-114.3,12.9c-10.6-0.1-21.2,0-34.1,0c7.2,8.9,15.8,6.5,22.6,6.6
			c138.9,3.4,271-22.6,393.2-91.4c186.6-105,296.5-268.2,356.2-469.5c8.9-29.8,15.5-60.1,19.7-90.8c2.2-16,5.6-23.4,24.7-20
			c28.8,5.2,29.3,3.6,24.2,31.9c-32.4,178.5-106.7,336-234.5,466.5c-7.9,8-10.2,15.6-9.4,26.8c2.9,39.7,5.9,79.4-2.8,118.9
			c-18.3,83.2-75.3,129.7-160.4,129c-8.2-0.1-10.6,4.4-13.9,9c-22.7,31.3-53.6,45.5-91.9,46.8c-35.9,1.2-71.6,0.2-106.9-6.3
			c-9-1.6-14.3-0.7-20.5,7.1c-37.3,46.9-79.7,58.4-136.5,38.8c-23.2-8-43.7-20.8-65.7-36.4c-20.3,104.8-67.4,193.9-145.6,270.7
			c12.1,0,19.8,0.2,27.6,0c170.8-5.7,341.6-7.1,512.3,0.5c41.2,1.8,82.1,6.1,122.7,12.9c86.5,14.5,114.3,69.7,101,155.8
			c-11.7,75.9-51.3,139.9-94,202c-26.8,39-57.3,75.1-87.6,111.3c-9.1,10.9-16.3,15.2-26.3,1.9c-2.8-3.7-6.8-6.6-10.7-9.2
			c-11.3-7.9-11.5-14.5-1.7-25.3c58.2-64.3,109.2-133.8,147-212.2c16.6-34.4,28.3-69.8,26.8-108.9c-1.4-36.8-14.6-54.6-50.2-63
			c-68.8-16.2-139.2-17.6-209.2-19c-187.7-3.7-375.5-4.5-562.8,11.1c-65.3,5.4-130.1,14.8-191.9,38.1
			c-87.1,32.8-150.4,94-198.8,171.2c-17,27.1-27.3,2.2-39.9-1.5c-16.9-4.9-9.1-15.2-3.1-24.5c71.3-111.2,167.6-187.4,299.6-213.1
			c15.2-3,25.1-11,33.2-23.6c20.3-32.1,26.5-67.8,26-104.5c-0.5-39.1-4.8-78.1-11.6-116.7c-4.4-25-18.3-43-39-56.5
			c-24.3-15.9-48.2-32.2-73.2-47c-22.9-13.6-32.8-32.9-31.5-58.9c0.3-6.7,0.1-13.5,0.1-20.3c0-34,0-33.6,34.9-32.3
			c11.1,0.4,17.7,4,15.1,15.3c-9.1,40.5,12.3,62.1,45.6,77.6c77.6,36.2,103,101.7,106.7,182.5c2.6,57.1,4.8,113.1-19.4,166.8
			c14.6,5,18.8-3.9,23.4-13.5c32.6-69.2,38.7-140.8,22.2-215.2c-12.4-55.7-39.3-101.3-83.4-138.7c-44.3-37.6-55.4-92.5-35.2-141.1
			c5.5-13.3,11.3-16.6,22.8-7.1c3.6,3,7.7,5.5,12,7.4c11.3,5.1,14.8,10.6,9.9,24.5c-10.2,29.3-3,56.7,20.6,77.3
			c117.1,102.3,130.2,230.2,93.1,371c-1.5,5.7-3.5,11.2-6.6,21.1c39.7-29,70.1-61,95.4-97.5c81.9-118.6,99.6-248,63-386.1
			c-3.2-12.1-10.2-22.2-18.9-30.7c-80.1-78.7-169-142.5-281.1-167.8c-47.8-10.8-47.9-11.4-68.2,33
			c-64.6,141.6-163.6,252.4-289.8,343.9c-164.2,119-238.7,286.1-234.7,488.3c1.6,80.4,15.5,158.5,51.1,231.4
			c34.3,70.3,85.9,124.2,157.6,156.6c51.7,23.4,90.9,13.3,124-33.3c37.8-53.3,63.8-112,74.5-177.4c14.5-88.3,43.9-115.3,131.8-125.1
			c101.9-11.3,203.5-24.7,304.6-42.1c53.7-9.3,102.8,6.4,151.8,23.5c26.2,9.1,52.2,14.1,79.1,5.2c11.4-3.8,22.5-9.2,33.3-14.7
			c47.5-24.1,97.6-29.8,149.6-20.8c43,7.4,62.9,39.8,46.4,80.2c-20.3,49.6-58.4,83.7-105.7,107.2c-50.4,25-105.3,34.1-160.6,38.1
			c-87.7,6.3-175.4,5.1-261.9-12.9c-81-16.8-154.9-50.4-222.7-97.7c-35.2-24.5-77.8-9-89.6,33c-4.9,17.5-8.3,35.4-11.3,53.3
			c-3.6,22.1-8.9,43.8-18.1,64.1c-6.3,13.7-2.6,18.1,10.6,22.6c122.2,41.3,246.8,73.5,373.6,96.9c235.4,43.5,472.4,47.2,710.2,27.8
			c89.1-7.3,176.8-21.8,260.6-54.1c166.8-64.2,272.5-186.1,330.7-352.2c6.9-19.7,12.2-40,17.6-60.1c2.1-7.9,4.5-10.5,13.8-8.2
			c44.9,11.4,39.7,2.9,27.7,45.2c-46.1,162.3-135.7,292.7-282.8,379.5c-87.4,51.6-183.8,78.2-283.5,90.4
			c-202.3,24.8-405.4,28.7-608.4,8.3c-196.7-19.8-388.8-62.4-575.6-127.2c-17.6-6.1-25.9-4-33.6,13c-9.5,21-24.1,39.1-40.3,55.4
			c-46.3,46.7-107.8,57-171.5,25.6c-82.9-40.8-146.7-103.3-181-189c-86.3-216.3-70.6-424.9,57.7-621.9c10.3-15.9,10-19.2-8.9-24.8
			c-84.2-24.7-127.7-85.8-138.2-169.5c-15.8-125.4,20.1-236.3,104.5-330.6c10.1-11.2,10.2-18.7,4-31
			c-55.7-110.4-89.5-226.9-93.9-351c-2-56.1,5-111.7,9.2-167.5c7.6-99.8,23.2-198.2,52.4-294.2c16.3-53.8,38.7-105,65.9-154.1
			c15.1-27.2,29.3-54.7,33.7-86.1c3.9-28-3.6-50-28.9-65.6c-44.6-27.5-78.8-65.3-105.1-110.3c-13.4-22.9-22.4-47.3-27.2-73.6
			c-8.7-48.1,8.4-85.3,47.6-111.9C434,73.6,504.8,64.9,577.2,64.8c113.8-0.1,208.9,46.4,292.6,119.9c38.6,34,73.2,72,102.3,114.6
			c5.6,8.1,9.5,10.6,18.8,4c185.8-133.5,394-207.6,620.6-230.9c223.1-22.9,439.1,4.6,644.7,97.8c152.6,69.2,280.7,170.7,390.8,296.2
			c10.8,12.3,8,17.8-3.3,26.4c-24,18.4-23.4,18.8-43-3.3c-182.1-205-408.3-327.4-680.7-363.8c-180.6-24.1-358.1-9.6-533.2,40.2
			c-17.5,5-22.7,12.4-23.4,30.1c-8.5,202.5-74.6,385-192.4,549.2c-11.1,15.4-24.6,28.7-38.6,41.4c-80.1,72.3-171.1,71.6-249.8-2.5
			c-44.9-42.2-76.4-94-104.1-148.5C775.1,629.4,774,621.5,765.9,616.4z M1607.4,914.7c1.9,39.8,6.5,79.6-0.2,119.2
			c-9.3,54.6-41.2,89.3-94.6,104.4c-48,13.5-96.1,9.1-144.5,1.7c-44-6.7-71.8-33.1-78.3-77.5c-9.7-65.5-10.2-131.8-15.9-197.7
			c-2.1-24.1-1.3-24.2-23.7-13.1c-16.4,8.1-31.8,17.7-46.3,28.8c-70.9,54.3-110.8,129.6-140.3,211.1
			c-51.4,142.1-78.5,291-118.5,436.3c-3.3,12.1,2.2,13.2,11,15c24.4,5.1,48.9,9.8,72.9,16.3c89.2,24.2,164.5,73,233.8,132.7
			c32,27.5,62.9,55.3,77.9,96.3c1.7,4.7,4.2,7.5,10,7.9c54.9,3.8,109,3.2,161.5-17.3c39.1-15.3,60.2-48.6,84-79.5
			c34.6-45.1,80.6-66.9,136.8-65c40.3,1.3,76.4-9.1,107.9-33.2c54.2-41.5,93-95.3,118-158.7c8-20.4,10.5-41.8,5.9-63.6
			c-6.3-30.7-28.1-48.1-53.8-62c-25.5-13.8-51.9-25.9-74.3-44.9c-37.6-31.9-49.6-85.9-28.5-130.6c6-12.8,12.6-25.4,19.4-37.8
			c27.7-50.6,24.4-100.4-6.9-147.4c-49.4-74.2-119.6-121.1-203.8-147.9c-11.2-3.6-15.7-1.6-14.7,11.4
			C1604.6,851.3,1605.8,883,1607.4,914.7z M597.9,1430.9c-16.7-14.7-31.7-25.5-43.9-38.9C431.1,1257,396.7,1103,453.2,928.5
			C481,842.5,525.1,764.6,568.2,686c50.3-91.6,100.6-183.3,135.2-282.4c24.3-69.8,5.6-101.5-66.3-119.1c-2-0.5-3.9-1-5.9-1.5
			c-35-8.6-35-8.6-30.3-44.1c0.1-0.7,0.1-1.4,0.1-2c-0.5-7.1,2.6-9.3,9.7-8.2c34.8,5.4,69,12.7,99.3,32.1
			C754,289,771.4,331.4,760.9,383c-6,29.3-16.4,57-28.1,84.3c-50.1,117.5-113.5,228.1-174.1,340.2c-42,77.6-73.3,159.3-80.9,248.3
			c-12.4,147,58.1,256,160.6,350.4c5.6,5.1,11.2,5.1,16.2,0.9c6.5-5.5-0.8-9.5-3.2-13.1c-75.4-111.9-96.2-236.3-81.2-367.5
			c20.9-182.9,91.9-347.1,195-497.9c45.9-67.2,102.3-125.5,164.6-177.8c7.6-6.4,11.8-10.4,4.2-20.7
			c-55.2-74.9-119.6-139.5-204.5-180.2c-99.2-47.6-200.9-47.9-302.3-8.4c-56.3,22-68.7,56.4-44,111.5
			c22.1,49.2,55.6,88.9,101.8,117.6c42.3,26.2,55.4,65.6,49.7,113.2c-4.4,36.3-19.8,68.5-37.4,99.7C461,647.9,436,716.5,418.1,788.2
			c-24.7,98.7-31.6,199.6-40.9,300.4c-13.5,146.2,18.9,282.7,82.3,413.3c4.9,10,8.7,11,17.4,4.2
			C512.6,1478.3,551.1,1454.6,597.9,1430.9z M694.9,1863.6c-22-3.1-39.7-6.5-56.4-13.7c-57.3-24.8-90.4-79.2-77.9-133.6
			c12.8-55.8,41.2-103.2,83.1-143c8.4,8.9,15.8,17.8,24.4,25.3c8.8,7.8,7.6,13.1-0.2,21.1c-25.9,26.5-42.8,58.4-55.1,93.2
			c-10,28.2-3.9,51.4,16.7,71.9c28.2,28,63.2,30.2,99.9,27.4c12.9-1,22.3-5.8,31-15.9c49.7-57.8,87.6-122.8,120-191.4
			c7.1-15,2.9-20.6-10.5-27c-63.4-30.2-119.8-70.3-167.8-121.6c-8.4-9-15.2-7.8-24.7-4.4c-71.2,25.7-135.7,63.1-193.4,111.8
			c-98.6,83.1-137,191-125.7,317.3c7.1,79.7,59.6,131.6,134,138.8c10.5,1,17.6-1.4,24.8-9.1c31.4-33.7,66.8-62.8,104.3-89.5
			C645.4,1903.9,670.2,1887.7,694.9,1863.6z M1557.6,904.1c-1.3-25.7-3.8-56.6-3.9-87.6c-0.1-16.1-4.5-21.9-21.5-22.3
			c-67.4-1.5-132.4,13.2-197.7,26.2c-10.5,2.1-13.6,7.3-12.4,18.3c2.5,22.7,2.5,45.7,4.7,68.5c4.7,48.9,3.8,98.3,11.9,146.9
			c3,18.3,11,32,30.4,35.5c42.6,7.6,85.2,12.3,128.1,1.4c36-9.2,54.9-30,61.1-66.6C1564.8,985.9,1557.4,947.7,1557.6,904.1z
			 M1010.5,2558.9c0.8,5.5,3,8.8,6.8,10.6c37.6,18.1,74.7,37.2,114.7,49.5c96.7,29.8,195.8,32.7,295.6,25.6
			c43.1-3,85.5-10.4,126.5-24.8c41.2-14.5,71.9-41.7,95.5-77.6c12.1-18.5,10.6-22.6-10.5-25.9c-35.4-5.4-71.3-3.9-102.5,13.6
			c-58.7,32.9-116.6,35.1-178.5,9.9c-32.1-13.1-66.4-22.9-102.5-16.6C1174.7,2537.3,1093.3,2548.5,1010.5,2558.9z M1007.2,696.2
			c9.5-0.2,20.9-4,31.1-11.1c29.5-20.4,49.6-48.9,68.6-78.6c4.9-7.6,0.7-12.5-3.4-17.9c-47.1-61.4-94.5-122.7-141.2-184.5
			c-6.5-8.5-10.3-8.2-17-1.6c-19.2,18.9-37.8,38.6-58.4,55.9c-18.7,15.8-21,32.7-14.1,55.2c18,58.4,39.4,114.7,83.5,159.2
			C969.5,686.2,984.6,696.1,1007.2,696.2z M1314.3,189.2c-18.2,7-33.7,13.1-49.3,18.8c-8.2,3-8.1,9.1-7.8,16.3
			c5,109.1-16.5,213.3-60.6,312.8c-26.5,59.8-54.2,119.4-102,166.1c-60.1,58.6-129.3,55.7-185.3-6.9c-27.4-30.6-46.7-65.9-61.3-104
			c-7.6-19.7-14.3-39.8-21.7-60.3c-27.7,28.8-27.7,28.8-12.7,61.2c3.7,7.9,7.2,16,11.1,23.8c26.8,52.6,57.5,102.2,103.3,140.9
			c51.5,43.6,110.1,43.6,161.3-0.2c20.1-17.2,38.5-36,53.7-57.6c77.5-110.3,124.7-233.6,154.8-364
			C1308.8,289,1312.7,240.8,1314.3,189.2z M640.3,1254.6c3.8-8.4,6.6-14.5,9.4-20.5c37.6-81.2,95.4-142.9,175.7-183.2
			c61.9-31,127.6-41.6,196.2-37.6c7.9,0.5,17.5,5.1,23.2-6c9.7-19,19.9-37.7,30.8-58.2c-65.5-13.4-129-13.2-191.3,6.7
			c-130.8,41.6-206.4,135.7-246.9,262.6C633.6,1230.5,631.6,1241.8,640.3,1254.6z M1065,312.8c-1.9,1.1-4.2,2.3-6.4,3.8
			c-19.2,13.5-38.3,27.4-57.7,40.6c-7.4,5-5.3,8.8-1,14.4c42.6,55.5,85.2,110.9,127.3,166.8c8.5,11.3,11.9,6.4,15.6-2.7
			c8.7-21.1,16.9-42.5,26.1-63.4c4.1-9.3,2.6-16.2-3.1-24c-30.2-42-60.1-84.3-90.1-126.4C1073.1,318.2,1071.3,313.3,1065,312.8z
			 M1408.7,1904.8c-12.8,0-25.6,0-38.4,0c-6.2,0-12-0.8-12.5,8.5c-1.2,23.4-0.2,44.8,21.8,60.7c21,15.1,42,29,67.4,35
			c26.4,6.2,47.7-1.8,64.3-22.8c18.9-23.9,22.9-52.5,25.8-81.4c1-9.7-3.3-10.5-12-9.3C1486.6,1901,1447.8,1905.2,1408.7,1904.8z
			 M1650.6,1962.2c8.8,0,17.5,0.1,26.3,0c37.2-0.6,58.7-18.2,67.1-54.6c4.5-19.5,2.7-38.7,0.4-58.3c-1.7-13.7-5.6-15.6-17.8-9.8
			c-28,13.2-57.2,23.8-87,32.7c-53.5,16.1-53.3,16-57.7,71.4c-0.8,10.4,1.8,13.9,12.3,15.4
			C1612.9,1961.5,1631.7,1962.5,1650.6,1962.2z M1901.2,1734.4c-34.1,25.2-65.6,49.2-100.5,67.6c-11.2,5.9-13.2,12.3-10.6,23.9
			c5,21.6,8.4,43.8,6,66c-1.7,16.3,5.3,18.9,18.5,15.7c40.2-9.6,65.1-35.9,78.6-73.8C1904.3,1802.9,1903.8,1770.6,1901.2,1734.4z
			 M1191.5,398.5c11.9-52.9,17.1-102,16.7-151.9c-0.1-8.6-2.4-13.2-11.9-8.1c-25.5,13.6-51.1,27-76.7,40.3c-6.8,3.5-8.6,7-3.6,13.9
			C1140.3,326.5,1164.4,360.4,1191.5,398.5z M907,1130.3c-6.3-2-8.7,2.5-11,10.3c-12.3,40.7-12.6,40.6,25.4,56.8
			c3.7,1.6,7.3,3.5,11,5.1c39.1,16.8,39.1,16.8,50.6-23.5c2.2-7.8,4.3-15.6,7.1-23.1c3.4-9,1.4-13.8-8.6-15.1
			C957.5,1137.5,933.5,1134,907,1130.3z M914.7,1435.1c7.2-7.8,6.7-16.4,8.8-24.1c12.4-45.5,12.2-45.6-30.1-68.1
			c-37-19.7-36.4-19.5-46.9,21.4c-3.4,13.3-0.7,20.9,10.6,28.4C876.5,1405.8,894.9,1420.4,914.7,1435.1z M901.3,1497.2
			c2.1-5.1,0.9-9.2-3.5-12.5c-19.4-14.4-38.9-28.7-58.3-43.2c-6.2-4.6-8.6-3.2-11.2,4c-14.2,39.8-12.6,45,23.7,66.8
			c3.5,2.1,7,4,10.5,6C894,1535.9,898.1,1533.7,901.3,1497.2z M881,1234.8c-6.1-0.6-7.9,4.3-7.7,8.8c0.5,11.4-14.1,24.5,3.4,34
			c16.6,8.9,33.4,17.4,50,26.4c21.1,11.5,21.6,11.7,26.7-12.1c1.8-8.3,11.4-19.7,0.3-25.5C930.4,1254.4,905.7,1245.3,881,1234.8z
			 M767.4,1458.9c23.7-50.5,23.4-54-1.6-71.8c-8.4-6-17-19.8-25.6-15.1c-8.7,4.7-6.7,20.6-9.8,31.5c-2.2,7.6,1.8,12.6,6.3,17.9
			C747.2,1433.8,757.2,1446.4,767.4,1458.9z M761.7,1275.1c-13.4,42.6-10.6,48,36.4,70.7C812.4,1289.7,820.3,1302.3,761.7,1275.1z
			 M910.5,1073.7c-0.1,2-0.2,4.1-0.3,6.1c24.6,3.7,49.1,7.8,73.8,11c29,3.7,29.1,3.4,33.7-27.6
			C981.2,1061.7,945.1,1061.3,910.5,1073.7z M814.9,1116.1c-8.5,2.8-17.7,7.1-21.8,18.7c-2.6,7.2,1.5,10.5,6.9,11.9
			c13.5,3.8,24.6,15.4,40.1,12.7c0.3-0.1,0.4-1.2,0.7-1.8c13.5-21.8,7.1-36.4-17.6-39.8C821.2,1117.5,819.3,1117,814.9,1116.1z
			 M827.1,1222.9c1.9-5.6,0.6-10.5-5.5-12.9c-13.5-5.3-27.2-10.4-40.9-15.2c-0.2-0.1-1.9,4.6-3.1,7c-11.4,22.9,8,26.9,21.3,34.4
			C821.7,1249.1,824,1248,827.1,1222.9z M713.4,1257c2.3-9.2-2.9-13.5-7.9-13c-11.8,1.3-12.3,13.2-14.1,21.3
			c-1.6,7.3,8.5,13.1,13.2,11.8C714.8,1274.5,709.3,1262,713.4,1257z M688.3,1359.2c2.4-7.7,4.4-12.6,5.4-17.7
			c2.3-11.6-8.7-13.4-14.7-18.9c-2.1-1.9-5.2-2.3-6.9,0.4c-4.7,7.5,2.3,12.2,4.9,17.8C679.6,1346.2,683.2,1351,688.3,1359.2z"/>
		<path class="st0" d="M1179,1290.3c42.9,0.5,78.5,37.1,77.7,79.6c-0.9,42-36.4,77.3-78.1,77.5c-42.2,0.2-79.1-36.7-78.9-78.9
			C1099.8,1326,1136.6,1289.7,1179,1290.3z"/>
		<path class="st0" d="M1536.8,1314.4c0.1-43.5,34.8-78,78.4-77.7c43.6,0.3,77.7,35.3,77.1,79.1c-0.5,43-34.4,76.6-77.4,76.8
			C1571.3,1392.8,1536.7,1358.2,1536.8,1314.4z"/>
		<path class="st0" d="M1429.4,1325.9c24.8,0,43.1,18.4,43,43.2c-0.2,24.9-18.5,42.4-43.8,42.1c-24.5-0.3-41.3-17.4-41.5-42
			C1386.9,1343.6,1404.2,1325.9,1429.4,1325.9z"/>
	</g>
</g>
</svg>
