<?xml version="1.0" encoding="utf-8"?>
<!-- Generator: Adobe Illustrator 23.0.0, SVG Export Plug-In . SVG Version: 6.00 Build 0)  -->
<svg version="1.0" xmlns="http://www.w3.org/2000/svg" xmlns:xlink="http://www.w3.org/1999/xlink" x="0px" y="0px"
	 viewBox="0 0 3000 3000" style="enable-background:new 0 0 3000 3000;" xml:space="preserve">
<style type="text/css">
	.st0{stroke:#000000;stroke-width:10;stroke-miterlimit:10;}
</style>
<g id="Layer_1">
</g>
<g id="Layer_2">
	<g>
		<path class="st0" d="M1507,2433.8c-273.3,0-546.7,0.3-820-0.1c-152.2-0.2-288.3-47.3-404.2-146.4
			c-138.3-118.4-211-269.8-218.9-451.9c-2.1-47.9-15.7-94.3-19.1-142.1c-14.1-193.8,12.4-377.9,126-542.1
			C234.6,1058.9,318,988,416.5,936.3C644,817.1,882.1,729.1,1137,686.6c85.4-14.3,170.3-28.9,256.5-36.6
			c150.9-13.4,302.2-19.2,453.6-24.3c160.5-5.3,321.2-7.3,481.8-7c182.9,0.3,338.1,66.8,462.1,201.5
			c100.5,109.2,157.5,239,159.9,387.7c3.4,213.4,4.9,427-0.3,640.3c-7.1,289.5-239.4,540.7-526.7,578.7c-35.7,4.7-71.4,7-107.4,7
			C2046.6,2433.8,1776.8,2433.8,1507,2433.8z M228.3,1160c8.1,3.8,12.7-0.9,17.5-2.9c83.8-35.2,171-52.8,261.7-45.6
			c166.4,13.1,295.2,86.6,363.9,243.4c62.7,143,62,287.4-27,419.4c-127,188.5-310.3,286.4-535,309.5c-41,4.2-82.1,2.9-123.6-0.2
			c0.4,4.2,0.1,5.7,0.7,6.9c2.6,5,5.2,10,8.2,14.7c113.9,180,277.1,275.3,490.3,275.9c549.5,1.5,1098.9,1.1,1648.4,0.2
			c247.9-0.4,462.7-156.5,538.7-387.8c8.2-25.1,8.2-25.6-19-23.4c-145.6,11.8-278.3-27.1-397.1-108.9
			c-150.9-103.8-216.2-247.7-185.6-430.8c32.8-196.2,200.8-342,399.7-349.2c75.2-2.8,146.9,11.1,215.3,41.8
			c3.5-5.7,1.6-10.4,0.6-15.2c-52.2-240.2-275.1-427.4-520.6-435.6c-71.8-2.4-143.7,0.2-215.5-1c-18.4-0.3-21.9,6.6-23,22.7
			c-5.7,84.7-32.9,162.2-79.8,232.9c-168.5,254.4-501.8,287.2-708.8,69.2c-66.6-70.2-108.8-153.3-126.2-248.7
			c-4.6-25.1-5.8-25.9-31-17.5c-16.7,5.5-33.6,9.3-51,12c-168.5,26.3-329.7,77-486.1,144.2c-104.2,44.8-208.4,89.2-299.6,158.4
			C300.8,1077.6,262.4,1116,228.3,1160z M93.4,1615.1c-6.3,77.9,22.3,162.6,24.4,249.9c0.3,11.6,7.8,13.2,15.9,15.8
			c78.4,25,158.4,32.7,239.7,20.3c93.7-14.2,177.1-51.2,242.2-121.8c77.7-84.3,102.2-186.6,89.3-297.6
			c-16.5-142.6-110.7-225.4-252.4-221.3c-144.4,4.2-254.8,74.9-341.8,186.5c-4.5,5.7-6.9,12.3-7.9,19.3
			C96.4,1512.2,91.3,1558.4,93.4,1615.1z M2900.4,1574.4c0-58.5-0.2-117,0.1-175.4c0.1-10.3-1.9-18.6-9-26.8
			c-50.8-59.1-113.5-98.3-189.8-114.9c-106.2-23.2-199.2,19.3-242.7,110.5c-53.8,112.6-27.5,264.9,60.7,353
			c95.3,95.2,249.6,109.8,370.8,47.7c9.8-5,9.9-12.1,9.9-20.7C2900.3,1689.9,2900.4,1632.1,2900.4,1574.4z M131.2,1345.3
			c10.3-8.8,16-14,22-18.9c93.9-77.8,200.1-121.7,323.7-117.6c119.1,4,218.4,70.5,256.9,177.2c47.1,130.5,35,257.9-39.3,374.7
			c-81,127.2-206.2,182.6-352.1,195.9c-66.4,6.1-132.2-0.3-196.5-18.6c-16.1-4.6-18.8-0.5-14.2,14c6.4,20.1,12.6,40.3,18.4,60.6
			c3.3,11.6,9.4,16.5,22.1,17.7c77.7,7.6,154.8,5,230.9-12.6c121.5-28.2,226.7-87.6,317.1-172.4
			c106.8-100.1,160.9-220.5,134.3-369.7c-25.5-142.6-101.4-245.4-241.3-291c-156-50.8-301.3-16.1-437.5,68.4c-4.8,3-9,6.5-11.7,11.8
			C151.8,1289.2,140.7,1314.1,131.2,1345.3z M1662,1089.6c73,0.3,145.3-20.1,214.8-66.2c117.3-77.8,183.1-187.9,199.3-327.9
			c2.1-18-1.6-26.1-21.6-23.4c-15.3,2-31,2-46.4,1c-17.6-1.1-25.5,4.6-28.9,23.1c-13,71.2-45.9,133.1-97,184
			c-83.7,83.3-183.5,125.9-301.3,94.3c-125.8-33.7-196.3-125.5-230.6-247.1c-5.3-18.9-12.2-23-29.8-19c-19.8,4.5-48.9-3.7-57.5,13
			c-8.2,15.8,4.9,40.5,10.7,60.7C1324.4,959.9,1487.6,1088.9,1662,1089.6z M1735.7,676.1c0,1.8,0,3.6,0,5.4
			c-53.4,2.5-106.9,4.5-160.2,7.7c-54.1,3.2-108,8-162.1,10.8c-15.9,0.8-16.4,7-12.8,19.2c11.3,38.9,27.8,75.3,52.7,107.3
			c54.6,70.2,123.8,113.6,215.7,104.6c124.9-12.2,234.2-115,259.1-238.1c3-15-1.6-17.3-15.1-17.1
			C1853.9,676.4,1794.8,676.1,1735.7,676.1z M2899.5,1822.4c-10.1,3.9-17.8,7.1-25.7,9.8c-122.6,42.8-240.5,35.5-348.5-39.9
			c-130-90.8-181.1-276-121.5-427.4c41.2-104.5,129.5-164.9,242-164.8c85.9,0,160.8,30.6,227.7,82.9c8.1,6.3,16,12.9,26.3,21.2
			c0-36.8-0.2-70.4,0.1-104c0.1-10.2-6-14.7-13.9-19c-204-109-463.4-33.3-545.7,191.5c-46.4,126.6-39,251.6,50.3,356.8
			c126.8,149.5,293.9,205.6,487.7,185.7c10.5-1.1,15.2-5,16.1-15C2896.9,1875.2,2902.1,1850.2,2899.5,1822.4z"/>
		<path class="st0" d="M541.3,1369.2c30.2,0.2,55,25.2,54.5,55c-0.4,29.9-26,54.8-55.7,54.5c-30.1-0.4-54.3-25.4-54-55.8
			C486.4,1391.9,509.9,1369,541.3,1369.2z"/>
		<path class="st0" d="M317.9,1715.7c31.6,0.1,54.8,22.9,54.8,54c0.1,30.3-24.6,55.2-54.6,55.3c-29.7,0.1-55.2-25.2-55.4-54.9
			C262.5,1740.5,287.8,1715.6,317.9,1715.7z"/>
		<path class="st0" d="M385.4,1654.6c-30.3,0.1-55.1-24.5-55.1-54.7c0-30.3,24.5-54.7,55-54.7c30.6,0,54.8,24,54.8,54.6
			C440.1,1630.3,415.9,1654.5,385.4,1654.6z"/>
		<path class="st0" d="M2698.7,1474.8c31.5,0.2,54.5,23,54.4,54.2c-0.1,30.2-24.8,55.1-54.7,55c-29.6-0.1-55.1-25.7-55-55.3
			C2643.4,1498.9,2668.2,1474.7,2698.7,1474.8z"/>
		<path class="st0" d="M2736.7,1742.7c-30.3,0.2-55.7-24.4-55.9-54.2c-0.2-29.4,25.4-55.1,55.1-55.4c30.2-0.3,54.9,24.2,55,54.6
			C2791.1,1718.6,2767.6,1742.5,2736.7,1742.7z"/>
		<path class="st0" d="M2601.9,1314.5c30.1-0.4,55.1,24.3,55.4,54.6c0.3,30.5-23.8,54.5-54.3,55.4c-29.8,0.9-54.6-25.4-55-54.1
			C2547.5,1339.7,2571.6,1314.8,2601.9,1314.5z"/>
	</g>
</g>
</svg>
