<?xml version="1.0" encoding="utf-8"?>
<!-- Generator: Adobe Illustrator 23.0.0, SVG Export Plug-In . SVG Version: 6.00 Build 0)  -->
<svg version="1.0" xmlns="http://www.w3.org/2000/svg" xmlns:xlink="http://www.w3.org/1999/xlink" x="0px" y="0px"
	 viewBox="0 0 3000 3000" style="enable-background:new 0 0 3000 3000;" xml:space="preserve">
<style type="text/css">
	.st0{stroke:#000000;stroke-width:10;stroke-miterlimit:10;}
</style>
<g id="Layer_1">
</g>
<g id="Layer_2">
	<g>
		<path class="st0" d="M1739,297.5c188.1-6.1,376.2-13.5,563.8,9.2c232.2,28.1,421.8,129.6,555.5,325.4
			c53.3,78,77.3,166.4,82.1,260.3c5.6,111.3-6.5,221.6-19.3,331.9c-16.2,140-32.6,280-48.4,420c-13.9,123.2-26.8,246.6-41.1,369.8
			c-3.9,33.8-15.6,65.3-32.4,95.4c-95.2,170.8-235.9,293.7-406.5,383.9c-232.1,122.8-478.9,185.4-742.8,175.8
			c-229.5-8.3-457.1-33.4-683.5-71.4c-163-27.4-326.6-51.3-489.8-77.5c-41.7-6.7-82.9-16.5-123-30.3
			c-101.5-34.8-150.7-109.9-163.3-212.7c-7.4-60.6,0.8-120,15-178.9c2.3-9.6,10.9-22.2-6.1-28.4c-99.3-36.3-124.8-117.9-127-211.6
			c-2.5-101.9,22.7-199.5,53.5-295.5c54.5-170.1,128.2-332.5,201.2-495.1c65-144.7,142.5-281.8,244.1-404.2
			c95.4-115.1,208.8-207.7,342.7-275.6c76.7-38.9,158.9-50.3,242.3-58.2C1349.8,311.1,1544.6,308.2,1739,297.5z M1765.6,343.7
			c-210.9,10.8-398.9,17.4-586.6,30.1c-127.9,8.7-244.6,43.6-350.5,117.1c-96.1,66.7-179.4,146-250.2,238.4
			C498,834.1,432.1,947.9,378.2,1068.5c-85.8,192.1-175.6,382.7-230.1,586.9c-21.4,80.1-37,161.3-25.7,245.2
			c10.6,79.4,56.4,126.2,132.9,133.3c25.2,2.3,50.6,1.5,76-2.2c64.7-9.5,126.2-29.4,185.8-55.3c22-9.6,25.1,3.5,32.3,17.3
			c8.1,15.5,1.6,20.8-12.4,26.3c-84.3,32.9-169.2,63.5-261.6,61.4c-12.9-0.3-18.6,4.1-21.6,16c-13.9,56-23.4,112.7-17.3,170.3
			c9.5,90.3,52.3,154.9,143.9,181.5c63.4,18.4,128,30,192.9,40.1c213.4,33.1,426.7,67.1,640.4,98.3
			c118.2,17.3,237.6,22.3,356.7,31.5c294.8,22.6,571.5-37.4,828.8-183.1c155.3-87.9,283.7-203.5,366.5-364.7
			c8.3-16.1,14.4-32.6,16.5-50.5c11.1-95.2,22.3-190.3,33.2-285.5c18.1-158.6,36-317.3,54-476c12.9-114,28.4-227.7,25.4-342.9
			c-2.8-107.3-31.9-206-98.6-291.3c-128.9-164.7-301-250-506.7-272.7C2107.4,332.3,1925,339.2,1765.6,343.7z"/>
		<path class="st0" d="M1359.1,1018c0-64-1.2-128,0.6-191.9c0.7-26.5-7-25.9-27.8-17.4c-177.9,72.8-324.2,188.3-451.8,329.9
			c-153.5,170.3-255.3,368.2-313.5,589.1c-4.8,18.1-11.5,22.3-28.9,18.1c-17.1-4.1-23.1-10.4-18-28.9
			c105.7-385.8,323.6-688.3,670.7-891c197.4-115.3,414.7-157.7,642.1-148.2c103.4,4.3,206.3,13.6,307.1,39.6
			c127.3,32.9,221.3,108.2,286.6,221.1c66.9,115.7,97.3,242.2,105.4,374c13.3,213.8-24.3,418-127.9,607.3
			c-114.8,209.9-293.7,343.4-514.3,425.5c-214.1,79.6-436.7,102.3-663.1,94.5C951,2430.4,695.6,2352,459,2211.3
			c-23.2-13.8-24.3-30.9-3.6-48.3c11.3-9.5,17.3,2.2,24.1,6.2c127.2,75.7,262,133.7,405,172.4c103.8,28.1,209.5,44,317,49.4
			c17.4,0.9,23.6-3.1,22.4-20.9c-1.4-21.5,6.9-47.3-2.4-63.5c-9-15.6-37.8-9.3-57.5-14.6c-82.8-22-165-46.4-240.2-88.1
			c-143.1-79.4-216.6-199.3-202.9-366.1c6.2-75.8,44.3-137,95.5-190.4c58-60.5,117.6-119.4,190-163.3c11.8-7.1,13.3-13.7,9.6-27.1
			c-23.2-84.6,3.5-162.4,70.4-209.9c64.6-45.8,149.8-44.6,219.4,2.8c6.1,4.1,11.3,15.7,21,6.5c12.6-12,33.7-14.8,32.9-40.7
			C1357.8,1149.8,1359.1,1083.9,1359.1,1018z M2444.8,1353c-0.5,0-1-0.1-1.6-0.1c0-37.6,0.7-75.3-0.1-112.9
			c-2-87.4-30.1-123.9-113.2-149.1c-81.2-24.7-164-32.6-248.2-21.6c-169,22-311.5,94.2-422.4,225.3c-6,7.1-11.7,13.7-9.5,25
			c9.4,48.1,1.3,95.5-8.8,142.5c-17.7,82.7-73.5,127.1-157.4,127.9c-52.1,0.5-97.6-17.8-139.3-46.5c-13.5-9.3-20.5-8.3-33,1.7
			c-77.4,61.8-181.7,56.2-250.6-14.2c-14-14.3-22.2-12.8-36.6-2.9c-77.5,52.9-145.2,116.2-204.5,188.7c-19.8,24.2-33.6,51.9-42.8,82
			c-34.2,112.8,7.2,244.3,105.5,320.8c100.5,78.2,219.4,113.9,342.7,134.3c64.6,10.7,115.2-17.7,149.2-74.4
			c11.1-18.5,22.1-37.3,35.4-54.2c33.6-42.5,80.4-51.9,128.1-26.3c18.1,9.7,34.9,22,52.1,33.5c181.2,120.1,470.7,136.2,658.9-77.5
			c10.2-11.6,17.9-23.4,20.8-39c14.6-79.2-4-147.5-66.7-200.5c-54.2-45.8-118.6-63.1-188.5-62.5c-12.4,0.1-21.7,1.5-26.4-16
			c-7.2-26.9,5.9-31.1,27-35.2c151.9-29,286.2-94.9,403.4-195.7c9.9-8.5,19.3-16.1,19.7-32C2439.1,1433.6,2442.4,1393.3,2444.8,1353
			z M1194.3,1539.8c77.4-0.1,140-62.9,139.7-140c-0.4-77.6-62.4-138.8-140.5-138.7c-78.3,0.1-139.4,61.4-139.2,139.5
			C1054.4,1478.5,1116.2,1539.9,1194.3,1539.8z M1478.3,1249c-37.2-1.3-76.2,12.3-112.2,37c-11.3,7.7-14.1,14-7.1,27.2
			c28.5,54.1,29.8,109.9,4.4,165.5c-6.2,13.5-3.4,19.7,8.1,27.2c28,18.2,57.9,31.6,90.8,36.6c71.4,10.8,118.2-22.2,133.2-93.6
			c4.6-22,7.3-44.5,10-66.8C1616,1295.7,1572,1247.2,1478.3,1249z M1405.9,875.5c0,19.7,1.8,39.6-0.4,59
			c-3.4,29.1,8.4,49.7,28.2,69.4c11.2,11.1,18.5,11,30.6,3c32-21.2,64.5-41.8,97.5-61.2c15.9-9.3,20.4-16.6,8.8-34.2
			c-27.8-42.2-54.1-85.4-78.6-129.6c-10.5-18.9-21.1-21.8-40.2-15.2c-53.1,18.2-45.1,2-45.9,61.1
			C1405.7,843.7,1405.9,859.6,1405.9,875.5z M2054.5,862.3c-1.7-1.9-3.3-4.2-5.4-6c-32.6-29.6-65.3-59.3-97.9-88.8
			c-7.3-6.6-13.6-2.6-20.2,1.5c-36.4,23-72.8,46.1-109.5,68.6c-10.3,6.3-11.5,11.9-4.3,21.8c24.6,34.2,48.6,68.9,72.5,103.6
			c5.8,8.4,10.5,10.4,20,3.8c44.5-31.1,89.6-61.4,134.5-92.1C2048.6,871.7,2054.1,869.4,2054.5,862.3z M2477.8,1516.7
			c-53.4,48.8-106.4,88.5-163.8,122.2c-57.2,33.5-117.4,60.7-183.4,82.7c110.5,42.1,181.1,113.8,191.7,234.5
			c12.5-7,14.6-18.1,21.1-25.6c18-20.9,15.9-39.1-0.9-61.8c-35.2-47.5-66.1-98.2-100.1-146.6c-12-17-9.7-22.2,10.3-26.7
			c62.2-14,124-29.8,186-44.9c9-2.2,19.1-2.8,21.4-14.8C2467.4,1598.4,2477.2,1561.4,2477.8,1516.7z M1736.3,1084.2
			c1.9-1.1,3.6-1.9,5.1-3c35.6-24.3,71.2-48.8,107-72.8c10.7-7.2,5.9-13.5,0.7-20.9c-24.4-34.5-49-68.7-72.5-103.8
			c-7.3-10.9-13-10-22.4-3.9c-31.5,20.4-63.1,40.5-95.1,60c-9.5,5.8-10.3,10.6-4.6,19.8c23.8,38.2,46.8,76.8,70.3,115.2
			C1727.3,1079.3,1728.8,1086,1736.3,1084.2z M1690.3,1110.7c-1.2-2.3-2.4-4.9-3.9-7.3c-24.3-40.1-48.9-80.1-72.9-120.4
			c-5.3-9-10.4-8.3-18-3.4c-34,21.7-68.1,43.3-102.5,64.4c-10.4,6.4-12.3,11.6-3.2,21.4c31.3,33.7,62.3,67.8,92.5,102.6
			c9.6,11,16.7,11.3,28.1,3c22.7-16.7,46.3-32,69.5-48.1C1684.2,1119.8,1690.5,1118,1690.3,1110.7z M1527.6,749.5
			c30.5,50.7,59.1,97.8,87.2,145.2c5.6,9.4,10.8,10.5,19.9,4.6c30.7-19.7,61.7-39.1,92.9-58c11.1-6.7,10.4-13,3.5-22.4
			c-18.7-25.7-37.3-51.6-54.8-78.2c-7-10.6-15.4-11.8-26.3-10.8C1609.9,733.9,1570.3,740.5,1527.6,749.5z M2226.6,1018.7
			c-44.2-40.6-84.1-76.9-123.6-113.6c-10.5-9.8-17.4-0.8-24.4,3.8c-44.3,29.8-88.5,59.9-132.1,90.7c-7.3,5.2-25.5,6.7-14.4,23.2
			c8.2,12.2,12.7,29.2,35.8,21.5c36.5-12.1,74.7-17.4,112.9-22.3C2127.1,1016,2173.6,1019.5,2226.6,1018.7z M2251.1,966.6
			c29-16.6,61.1-34.1,92.2-53.2c10.6-6.5-0.4-13.2-4.3-18.1c-19.8-25.3-43-47.2-68.9-66.2c-35.9-26.3-35.9-26.2-73.6-0.6
			c-15.5,10.5-30.8,21.5-46.8,31.3c-12.1,7.4-12.9,13.1-1.9,22.8c28.9,25.4,57,51.8,85.5,77.8
			C2237.4,964.2,2241.3,968.7,2251.1,966.6z M1742.9,2342.6c-16-17.7-28.4-33-42.4-46.6c-55.2-53.5-55.4-53.3-121.9-17.3
			c-1.6,0.9-3.1,2.2-4.9,2.8c-12.2,3.9-10,10.8-4.2,18.8c14.1,19.8,28.2,39.6,42,59.5c4.3,6.2,9.6,8.7,16.7,7.2
			C1666.2,2359,1704.3,2350.8,1742.9,2342.6z M1557,1210.2c-38.6-42.9-71.5-79.8-104.9-116.3c-5.2-5.6-9.7-17.1-19.8-10.8
			c-10.5,6.5-26,9.5-26.1,26.4c-0.2,29.2,0.1,58.3-0.2,87.5c-0.1,11.5,4.9,15,15.8,12.2C1463.9,1198.5,1506.5,1199.5,1557,1210.2z
			 M2306.4,1731.3c27.4,40.7,52.4,77.7,80.1,118.8c24.1-50.3,42.6-97.7,57.2-152C2396.8,1709.5,2353.4,1720,2306.4,1731.3z
			 M2442.9,1096.6c-7.1-31.2-19-57.4-31-83.4c-30.5-66.3-30.8-66.5-93-30.2c-11.5,6.7-33.5,10.2-31.4,22.4
			c2.5,14.9,20.8,25.2,35.5,33.6c5.6,3.2,12.3,4.5,18.5,6.2C2377.6,1055.1,2410.9,1070.7,2442.9,1096.6z M1488.9,2130.7
			c-10.4,2.3-21.3,1.8-26.2,10.7c-4.4,7.9,4.7,13.3,8.7,19.2c11.5,17.1,23.5,33.9,35.3,50.8c26.1,37.3,26.1,37.3,66.1,17.3
			c40.1-20.1,41.1-21.5,4.9-47.4C1549.8,2161.2,1523.1,2137.9,1488.9,2130.7z M1992,740c36.7,33.6,67.1,61.2,97.1,89.1
			c6.5,6,12,7.4,19.5,2c22.6-16,45.5-31.6,73.4-50.8C2119.3,758.6,2061.2,744.3,1992,740z M1429.5,2184.3
			c-17.7,22.9-34.1,44.3-50.6,65.5c-3.9,5-3.6,10-2.4,15.8c9.3,45.2,20.4,50.9,61,30.6c13.4-6.7,26.7-13.5,40.3-19.7
			c10.3-4.7,11-9.6,4.2-18.7C1464.3,2234.1,1447.4,2209.5,1429.5,2184.3z M1953.9,2264.7c-78.5,7.2-156.4-0.7-234.3-19
			c24.1,25.6,49.2,49.1,74.2,72.8c6.5,6.2,13.7,5.5,21,3C1861.9,2305.7,1908.8,2289.5,1953.9,2264.7z M1723.8,725.6
			c17.7,25.4,32.4,46.9,47.4,68.1c4.9,6.9,9.5,14,20.2,7.2c35.1-22.5,70.6-44.6,112.9-71.2C1840.4,722.6,1784.8,722.7,1723.8,725.6z
			 M1561.7,2377.9c-33.7-72.3-35.4-72.9-99.1-40.9c-9.2,4.6-18.5,9.1-27.5,14c-8.2,4.5-20.4,5.1-14.3,21.2
			c5.2,13.6,11.6,19.2,26.5,17.4C1484.5,2385,1521.9,2381.9,1561.7,2377.9z M1272.4,2378.6c20.5-10.1,37.3-20.3,55.3-26.9
			c23.5-8.7,26.4-19,16.3-42.9c-9.5-22.5-17.2-21.7-38.2-16.7c-27.3,6.6-36.9,18.9-33.7,45.3
			C1273.6,2349.3,1272.4,2361.5,1272.4,2378.6z M1757.7,1128c1.8,2.9,3.5,5.8,5.3,8.6c41.9-25.5,84.4-49.8,130-67.6
			c10.3-4,5.5-9.8,1.9-15.2c-3.8-5.7-6.3-15.1-16.6-8.4c-6.2,4.1-12.5,8.2-18.7,12.4C1825.7,1081.2,1791.7,1104.7,1757.7,1128z
			 M1709.3,1161.1c-19.6,13.2-46.5,31.3-73.4,49.4c-7.9,5.3-5.6,10.6-0.2,16c4.4,4.4,9.4,12.8,15.7,5.5
			C1673,1206.8,1693.4,1180.6,1709.3,1161.1z"/>
		<path class="st0" d="M934.5,1868.7c-1-36.4,9.8-74.6,33-109.3c44-65.5,116.6-85.8,188.1-52.8c27.2,12.6,54.4,25,81.8,37.2
			c20.2,9,41.6,11.3,63.5,9.9c19-1.2,33.4-9.3,44.5-25.5c36.8-53.9,84-65.9,143.4-37.2c16.1,7.8,31.9,16,47.6,24.5
			c47.9,25.8,92.4,18.2,134-13.8c38.8-29.9,65.8-69.1,87.3-112.7c32-65,56.3-133.2,85.6-199.2c48.9-109.9,123.7-194.5,244-228.9
			c67.2-19.2,133.9-17.3,198.8,10.6c65.5,28.2,89.7,89.8,51.4,150.1c-49.6,78.2-114.7,141.4-213.7,149.2
			c-55.6,4.4-91.7,30-118.8,76.9c-47.4,81.8-85.3,167.3-108.9,258.9c-12.4,48.2-12.2,48.7,29.7,75.2c53.7,33.8,79.6,83.8,84.4,145.3
			c4.7,59.3-27.7,87.4-86.5,78.4c-54.2-8.3-105.5-26.9-157.1-43.9c-173.4-57.2-349-69.9-528.5-35.5
			c-53.5,10.3-107.9,16.1-162.7,10.1C978.5,2025.5,932.2,1972.4,934.5,1868.7z M1848.3,1801.6c28.3-106.6,69.8-202.7,125.8-292.8
			c30.4-49,72.2-80.1,130-82.6c86.4-3.7,141.1-56,187.4-119.5c31.3-42.8,18.5-75.8-30.4-94.8c-56.7-22.1-114.1-21.2-171-2.6
			c-106.5,34.7-169.1,114.3-210,213.3c-45,109.1-79.2,223.8-169.1,308.2c-0.7,0.7,0.3,3.2,0.6,6.1
			C1760.2,1747.7,1811.9,1753.6,1848.3,1801.6z M1130,1988.4c48,2.8,89.2-6.4,130.3-13.2c122.8-20.3,245-22.6,367.3,2.6
			c12,2.5,23.3,3.5,35.3-3c40.9-22,79.2-47.5,111.1-81.3c16.9-18,41.3-36.8,31.6-64.8c-9.1-26.5-38.1-31.1-62.7-36.6
			c-86.4-19.3-173.9-19.4-260.4-5.1C1343.2,1810.2,1226.2,1875.4,1130,1988.4z M1281.7,1802.1c-48.8-4.2-86.5-25.6-125.5-43.4
			c-7.7-3.5-15.1-7.4-22.9-10.6c-55.1-22.1-102.5-5.6-131.9,46.1c-22.5,39.6-25.3,81.8-15.9,125.5c6.7,31.2,26.2,50.6,55.7,61.9
			c19,7.3,32.4,5.7,45.3-12.5c32.3-45.6,73.5-82.7,118.7-115.3C1228.5,1837,1252.9,1821.5,1281.7,1802.1z M1720,1997.6
			c53.2,16.5,102.8,32.4,152.7,47.3c19.7,5.9,40.1,9.5,60.2,13.9c24,5.2,32.9-5.5,30.4-28.9c-4.6-44.2-20.9-81.9-59.9-106.2
			c-21.3-13.2-42.4-26.1-56.5-50.6C1818.4,1930.1,1768.9,1961.7,1720,1997.6z M1382,1761.8c32.3-8.3,61-15.6,92.2-23.5
			C1427.6,1713,1404.2,1718.7,1382,1761.8z"/>
	</g>
</g>
</svg>
