<?xml version="1.0" encoding="utf-8"?>
<!-- Generator: Adobe Illustrator 23.0.0, SVG Export Plug-In . SVG Version: 6.00 Build 0)  -->
<svg version="1.0" xmlns="http://www.w3.org/2000/svg" xmlns:xlink="http://www.w3.org/1999/xlink" x="0px" y="0px"
	 viewBox="0 0 3000 3000" style="enable-background:new 0 0 3000 3000;" xml:space="preserve">
<style type="text/css">
	.st0{stroke:#000000;stroke-width:10;stroke-miterlimit:10;}
</style>
<g id="Layer_1">
</g>
<g id="Layer_2">
	<g>
		<path class="st0" d="M548.7,1283.3c-27.1-8.1-50.1-18.7-70.7-34.4c-47.2-35.9-66.8-85.1-70.2-142.5c-5.3-89.5-5-178.6,14.4-266.7
			c1.3-6.1,5.6-14-1.8-18.7c-34.9-21.9-40.1-58.6-44.3-93.8c-11.6-98.1-23.5-196.9-17-295.5C369.1,277,468.6,133.3,638.4,97.3
			C740,75.8,843.5,69.2,946.9,65.7c168-5.8,335.8-2.5,502.6,19.8c116.2,15.5,230.7,38.5,339.2,85.1c58.4,25,111.5,57.9,155.7,105.8
			c27.2-59.6,62.5-111.4,115.4-148.4c120.4-84.2,248-85.3,377.1-24.9c89.1,41.6,152.8,109.4,177.4,207.1c14.5,57.9,8,117,0.7,175.6
			c-19.6,157.1-69.1,307.7-101.3,462c-12.5,59.9-31.2,118.8-26.5,181.3c1.3,17.1-6,33.1-12.4,48.8c-2.5,6.2-4.2,10,3.8,14.1
			c39,20.4,57.5,55.8,68.4,96.2c13.6,50.5,12.9,102.1,7.4,153.3c-4.7,43.9-26,81-59.4,110c-10.9,9.4-10.1,15.3-1.7,25.8
			c35.6,44.2,58.1,94.4,61.9,151.5c4.8,72.1-23.8,132-72.1,183.3c-10.8,11.5-14.4,22.7-13.8,38c2.2,53,15.5,104.2,23.5,156.2
			c7,45.1,9.6,90.1,2.2,135.4c-7.1,44-24.9,82.7-56.7,114.3c-8.3,8.3-11.6,17.1-12,28.7c-2.5,75.1-3.9,150.2-8.8,225.2
			c-5.3,80.3-47.3,142.7-105.6,194.6c-56,49.8-125.5,69.5-197.2,83.8c-176.1,35-354,44.9-533.1,43.1c-133.4-1.4-266.4,10-399.6,15.4
			c-169.4,7-338.5,2-505.9-26.6c-114.3-19.6-196.8-84.4-248.9-187.9c-37.5-74.5-53.4-155.6-73-235.7
			c-29.4-120.4-42.6-242-37.4-366.1c5.5-130.7-10.7-261-12.5-391.5c-2.6-192,63.4-350.7,237.9-450.7
			C543.5,1287.6,544.4,1286.6,548.7,1283.3z M2371.9,2407.7c-25,9.7-52.1,21.9-80.3,30.9c-82.5,26.3-166.4,47.5-250.6,67.4
			c-61.2,14.5-122.8,27-184.1,41.2c-13.5,3.2-18.6-0.9-19.9-13.6c-0.5-4.7-1.1-9.5-2.7-13.9c-4.9-14.5-0.1-19.4,15.2-22.5
			c114-22.7,227.1-49.8,339.3-80.3c14.9-4.1,23-10.5,27.5-26.7c17.4-62.5,39.3-123.6,65.9-182.9c22.3-49.7,60.5-80.2,112.2-94.8
			c12.3-3.5,25-5.9,37.6-8.2c6.7-1.2,9.1-3.6,7.9-10.8c-7.1-40.2-13.9-80.5-21-122.2c-5.4,3.6-9.8,6.5-14.1,9.6
			c-47,34.6-97.2,63.7-150.7,87.3c-142.2,62.7-287.6,117.4-430.8,177.7c-10.6,4.4-17.7,4.8-20.6-8.5c-1.1-5.2-3.5-10.3-6.2-14.9
			c-8.1-13.4-3.4-19.4,10.5-24.8c51.6-20,102.7-41.1,153.9-62.1c86.8-35.6,173.4-71.8,260.4-107c14-5.7,17.3-12.4,12.6-26.8
			c-9-27.4-8.9-56-7.4-84.5c5.9-106.3,90.2-204.2,194.1-225.6c25.1-5.2,50.4-2.9,77.2-0.8c-10.8-35.1-28.3-63.7-49-90.6
			c-6-7.8-11-6.9-18.6-2.6c-17,9.7-34.4,18.8-52.1,27.1c-220.1,103.4-440.5,206.1-660.1,310.4c-20.6,9.8-24-0.1-30.2-13.5
			c-6.3-13.5-13-23.5,8.3-33.3c169.3-78,337.9-157.5,506.9-236.2c13.8-6.4,19.1-13.1,17.9-30.1c-5.1-72.9,9.1-142.1,64.5-193.6
			c58.6-54.4,122.1-103.3,203.5-120.5c4.5-0.9,9.2-0.3,9.7-7.5c1.9-31-37.2-70.9-69.6-70.5c-32.3,0.5-57.9,17.6-82.5,35.5
			c-110.6,80.3-229.3,145.7-357.3,194.1c-8.5,3.2-14.9,7.5-19.4,16.2c-33.2,64.8-87.2,105.3-154.7,128.6
			c-78.8,27.2-159.8,26.3-240.9,14.5c-106.3-15.4-209.2-50.2-316.9-58.3c-7.6-0.6-11-3.3-10.3-11.2c0.6-6.1,1.3-12.3,0.5-18.2
			c-2.4-17.2,3.9-22,21.2-20c51.7,6.2,103,14.4,153.9,25.9c89.6,20.3,179,43.2,272.2,38.8c57-2.7,111.4-14.1,160.1-45.4
			c51.1-32.8,80.1-80.1,92-141.8c-46.2,18.4-90.5,32.3-135.8,43.4c-129.5,31.9-223.1-18.1-267.8-143.9c-4.1-11.7-9.1-10-17.7-6.7
			c-66.7,26-135.5,29.2-205.6,19.1c-86.3-12.4-172-28.7-259.2-34.3c-129.6-8.4-258.4-7.9-385,25.3
			c-80.4,21.1-156.1,52.5-210.9,117.8c-77.8,92.7-115.6,200.7-111.6,322.1c3.9,119,16.1,237.7,13.9,357c0,1.5,1.7,3,3.2,5.6
			c3.3-3.7,5.9-6.7,8.5-9.7c152.2-176.3,344.2-266.9,577.7-256.2c219.2,10.1,385.4,113.3,476.5,314.5
			c116.2,256.5,80.7,500.7-83.6,727.6c-3.6,5-10.7,8.5-9.4,17.4c4.9,0,9.6,0.3,14.3,0c137.7-8.7,275.7-4.4,413.4-9
			c102.2-3.4,203.7-15.2,304.4-33.2c13.3-2.4,18-6.9,15.3-21.1c-5.6-28.9-3.2-57.9,1.2-86.9c18.8-123.5,146.9-221.3,268.5-204.2
			c11.3,1.6,14.6-1.6,14.6-12.1C2371.8,2483.8,2371.9,2445.9,2371.9,2407.7z M1082.3,2900.9c48.5-2.1,106.6-5,164.7-7.1
			c13.2-0.5,22.5-5.2,31.1-15.2c161.6-188.8,211.3-403.1,139.9-641.4c-64.6-215.4-242.7-353.3-462.3-359.8
			c-246.4-7.3-439.1,94.9-580.7,295.6c-6.6,9.3-8.5,19-8.9,30.2c-3.7,99.8,17.7,196.1,39.4,292.4c16.6,73.8,32.8,147.9,67.2,216.2
			c44.7,88.8,115.9,142.7,214,159.8C814.3,2893.9,943.4,2897.8,1082.3,2900.9z M1105.4,113.3c-166.7,0.2-303.8,6.2-439.7,29
			c-177.4,29.8-256.8,183.3-258,309.3c-0.6,62.1,4.7,124.4,9,186.5c2.6,38.4,5.6,76.9,14.5,114.6c4.8,20.4,15.8,30.5,36.9,28.8
			c49.4-4,89.9-24.9,116.8-67c21.6-33.8,33.2-72.4,45.6-110.3c37.7-115,115.7-188,231-222.7c76-22.8,154-29.4,232.7-28.5
			c137.5,1.6,274.4,13.1,411.2,25.6c46.8,4.2,91.9,14.8,130.5,44.9c51.4,40.2,76.9,95.5,91,156.4c24.6,106.2,19.1,214,10.7,321.3
			c-7,88.2-17.8,176.2-32.5,263.5c-1.6,9.4-1.6,14.5,10,12.3c27.4-5.3,55.2-5.9,82.9-3.5c8.8,0.8,13.6-3.3,18.6-9.3
			c101.2-122.6,155.8-260.8,148.3-422.1c-4.5-97.3-7.4-194.8-9.4-292.2c-1.7-81.7-35.4-142.3-102-187.2
			c-77.7-52.3-165-80.1-255.2-100.3C1426.4,124,1251.8,113.3,1105.4,113.3z M700.9,569.4c-12.7,19.7-19.3,39.5-25.8,59.1
			c-10.2,30.8-21.8,61.1-35.9,90.4c-30.3,62.9-81.1,97.9-148.7,109.9c-11.8,2.1-16.7,6.4-19.3,18.5
			c-18.3,83.5-18.3,167.9-14.2,252.5c2.5,51.7,20,95.9,68.7,120.7c45.4,23,94.8,28.6,144.2,19.3c62.6-11.8,125.2-21.6,188.8-25.6
			c151-9.3,299.8,8.4,448.1,34.2c68.9,12,137.3,13,203.7-14c40.1-16.3,81.1-30.1,123.2-40.1c12.3-2.9,18-8.4,20-21
			c14-90.2,25.7-180.7,34-271.7c1.4-15-3.4-16.8-15.9-16.4c-38.7,1.1-77.1-2.9-114.7-12.5c-59.9-15.3-91.1-59.8-81.1-116.6
			c5.6-31.8,22.8-57.7,46.9-78.7c42.6-37.1,93.4-43.8,146.7-35.2c18.5,3,18.5-4,16.2-17.3c-4.6-26.7-11.3-52.9-21.1-78.2
			c-24.9-64.3-68.6-106.2-139-115.3c-75.9-9.8-152.2-13.7-228.4-20.1c-12.3-1-12.6,7-14.8,14.6c-10.9,37.7-20.7,75.7-32.9,112.9
			c-19.2,58.8-41.5,115.8-90.2,158.3c-16.2,14.2-23,34.9-24.9,56.4c-7.6,82-46,145.6-112.8,193.1c-17,12.1-32.8,26.2-48.5,40
			c-26.9,23.5-38.2,53.2-34.2,89c2.6,23.1,10.3,44.8,18.1,66.4c10.2,28.1-3.5,49.8-33.8,52.3c-29.5,2.5-53.3-12.7-65.9-43.7
			c-14.3-35.1-25.2-71.5-30.6-109c-8.6-59.9,1.8-114.4,48.8-157.8c18.7-17.3,27.8-41.2,37.6-64.3c5.4-12.8,2.5-18.4-11.8-19.2
			c-28.1-1.6-52.2-13.2-73-31.7c-36.4-32.3-60.3-72.3-72.6-119.4c-1.5-5.8-2.1-14.2-6.1-16.7C726.2,617.9,715.7,593.2,700.9,569.4z
			 M2555.7,296.3c0.5-10-3.3-16.3-6.8-22.7c-27.5-50.6-66.5-90.1-117-117.9c-160.2-88-371.6-47.1-447.3,155c-4,10.7-5.3,19.8,0,30.7
			c13.3,27.2,17.8,56.8,18.8,86.6c4.7,147.9,20.3,295.8,4.7,443.9c-0.6,5.2-2.1,10.3,7.3,10.1c31-0.7,51.7-22.3,49.9-53.4
			c-2.3-39.2-5.5-78.3-6.8-117.5c-2.9-92.2-3.4-184.5,30.6-272.4c34-88,91.5-152.9,186.9-175.9c52.1-12.5,104.8-8.8,157.3-1.4
			C2475.4,267.5,2515.7,279.6,2555.7,296.3z M2539.6,626.6c13.8-58.5,22.2-116.4,28.7-174.6c1-9.4-5.3-8.6-11.5-9.6
			c-57.4-8.7-114.4-7.8-171.4,4.6c-99.5,21.6-163.6,91-171.2,191.3c-6.4,83.8-15.7,166.9-39.6,247.8
			c-22.6,76.3-62.2,139.2-136.4,175.4c-0.7,0.3-0.6,2.2-1.1,4.3c25.3,11.1,52.5,16.1,79.3,22.1c7.6,1.7,12.9-2.1,18.6-5.9
			c33.8-23.3,61.8-52.1,84.8-86.3c31.1-46.4,39-100.3,51.4-152.7c17-71.6,42.5-139.5,81.1-202.3c35.4-57.4,87.2-66.7,147.2-38.4
			C2512.8,608.6,2524.8,617.5,2539.6,626.6z M2202.5,1090.9c6,1.8,7.8,2.9,9.6,2.8c80.1-1.7,154.4-23.9,224.1-62.8
			c9.1-5.1,11.3-12.7,13.2-21.3c22.3-96.6,44.6-193.3,67-289.9c9.8-42,10-41.9-27.1-65.5c-47.9-30.5-74.4-24.4-102.7,25.3
			c-30.9,54.4-54.1,111.9-66.4,173.4C2302.6,941.7,2277.6,1026.9,2202.5,1090.9z M2114.1,812.6c11,61.2-21.7,106.5-88.9,118.1
			c-5.3,0.9-10.6,3.1-15.9,3.1c-11.5,0-16,5.6-19.2,16.3c-6.4,21.3-14.5,42.1-22.8,62.8c-4.1,10.3-1.8,13.2,9,12.4
			c23.6-1.7,44.7-9.9,64.2-22.8c44.8-29.6,69-73.7,83.9-123.2c22-73.4,35.5-148.3,38-225.3c1.2-38.5,4.9-77,22.6-112.5
			c37-73.9,99.1-116.7,176.1-139.1c64.5-18.7,130.6-20.3,197-10.2c4.7,0.7,10.5,4.8,13.9-2.9c5.3-12.1-1.7-30.9-14.1-37.1
			c-71.2-35.4-146.8-50.3-225.9-47.1c-60.3,2.4-111.1,25-150.5,72.2c-41.5,49.7-60.4,108-68,170.8
			C2102.8,636.1,2107.5,723.9,2114.1,812.6z M2134.6,1238.8c84.6-3.7,167.9-27.1,250.5-52.8c44.2-13.7,55.1-32.5,52.9-78.6
			c-0.7-14.8-1.9-20.6-19.1-12.2c-51.4,25.1-106.2,39.9-163.1,46c-107.9,11.6-210-8.5-305.9-59.2c-10.3-5.4-14.4-3.9-20,5.9
			c-12.2,21-25.8,41.3-39.6,61.3c-5.5,8-5,12,3.6,17.2C1967.2,1210.5,2046.1,1235.7,2134.6,1238.8z M887.9,1077.2
			c-3.5-47.7,12.5-87.1,44.5-120.6c20.2-21.1,43.6-38.3,66.8-55.8c46.2-34.9,76.7-79.1,82.8-138.3c4.7-45.9,20.9-86.6,57.8-116.7
			c9.1-7.5,15.5-16.9,21.2-26.9c35.2-62.4,53.5-130.9,71.8-199.5c2.5-9.5-0.5-12.2-9.2-12.5c-18.9-0.5-37.9-1.1-56.7-2.2
			c-10.6-0.7-12,5.2-12.4,13.7c-1,21.6-2.2,43.2-4.1,64.7c-4.7,54.8-28.3,96.7-82.2,116.8c-8.5,3.1-11.1,7.6-12.3,15.8
			c-5.1,34.8-10.6,69.5-23,102.6c-11,29.6-25.2,57.1-53.6,73.9c-7.1,4.2-9.7,10.5-11.6,17.9c-12.2,46.7-33.9,88.1-68.8,122
			c-10.6,10.2-17,22.8-20.4,36.7C869.3,1006.3,873.9,1042.5,887.9,1077.2z M1745.7,1393.1c58.6-6.5,121.3-26.7,183.1-50.7
			c15.1-5.9,17.2-12.7,11.5-27c-20.7-51.7-61.9-77.2-113.4-87.9c-79.8-16.6-155.3,7-230.7,28.7c-9.2,2.7-7.7,9.5-6.3,16.4
			C1603.2,1337.2,1672.3,1393.5,1745.7,1393.1z M2134.3,2793.5c0.5,5.1,2.1,15.8,2.6,26.6c0.5,10.5,4.9,12.1,14.3,9.5
			c59.2-15.9,113.2-40.6,154.4-88c30.6-35.3,52.9-75.1,62.2-121.3c5.4-26.8-3.8-37.7-31.1-39.7c-5.4-0.4-10.8-0.4-16.2,0.1
			C2213.1,2590.9,2133.3,2679.7,2134.3,2793.5z M2285.7,1997.6c60.2-32.7,114.5-70.4,160.7-118.7c28-29.2,49.4-62.8,56.5-103.6
			c4.8-27.9,1.3-32.5-27.1-36.3c-2.7-0.4-5.4-0.3-8.1-0.5C2352,1730,2241.5,1867,2285.7,1997.6z M2507.2,1400.9
			c0-50.3-0.1-50.5-40.1-35.3c-11.3,4.3-22.3,9.7-32.9,15.6c-36.2,20-69.3,44.4-101.1,70.7c-49.1,40.6-63.6,94.9-63.3,155.5
			c0,9.3,3.3,12.1,12.1,7.7c48.4-23.9,98.5-44,144.6-72.7C2482.5,1507.7,2512.1,1459.5,2507.2,1400.9z M2266.6,2394
			c30.1-8.1,55.1-19.1,79.7-31.1c83.7-40.8,108.5-112,103.4-200.2c-0.4-6.1-1.9-10.9-9.5-9.5c-39.8,7.5-79.6,17.1-101.4,55.4
			C2306.2,2265.7,2288,2328.5,2266.6,2394z M1004.4,620.7c3.1-10.3-1.8-14-11-15.2c-21.5-2.7-42.5-7.8-62.2-17.1
			c-8-3.8-11.9-1.1-16.9,4.7c-24.8,28.9-56.3,46-94.3,50.2c-11.3,1.2-13.8,5.5-9.1,15.5c22.8,49,50.7,91.1,112.2,95.1
			c22.8,1.5,39.3-4.1,50.6-25C992,695.1,998.1,657.7,1004.4,620.7z M1692.8,765.6c0.2,0,0.5,0,0.7,0c0-17.6-0.1-35.1,0-52.7
			c0.1-8.2-2.7-13.5-11-16.9c-41.5-17.2-105-5.6-135.4,27.1c-17,18.3-28.2,40-21.2,66.4c6.6,24.8,27.4,30.6,49,36
			c33,8.3,66.5,9.8,100.3,10.4c13.3,0.2,18.1-4.8,17.7-17.5C1692.5,800.7,1692.8,783.1,1692.8,765.6z M1102.9,446.1
			c0.7-8.4,0.6-16,2.1-23.2c3.6-17.3-3.3-21.7-20.2-21.2c-37.9,1-75.6,3.4-113.3,7.6c-11.7,1.3-17.2,3.9-14.9,17
			c4.2,24.3-0.5,48.5-2.3,72.8c-1,14.5-16.2,30.1-3.7,42.5c10.6,10.5,28.6,10.8,43.8,13.9c8.6,1.7,17.5,2.5,26.2,2.5
			c43,0.1,69.1-22.1,78-64.4C1102.1,477.5,1100.4,461.2,1102.9,446.1z M907.3,455.1c0-7.4-0.1-14.8,0-22.3c0.2-9-3.3-12-12.3-9.4
			c-55.7,16.1-107.7,38.6-150.1,80c-12.9,12.6-17.6,23.1-3.7,38c6.8,7.2,11.8,16.6,15.9,25.7c9.8,21.9,27.8,27.9,49.5,27.5
			c37.2-0.7,71.1-24,84.6-58.8C901.2,509.9,907.6,483.1,907.3,455.1z M2238.2,1277.2c-91.5,20-180.7,11.9-272.1-20.9
			c13.8,25.7,24.3,47.2,29,71.1c4.8,24.5,4.5,49-0.6,76.8C2082.6,1369.1,2162.5,1327.9,2238.2,1277.2z"/>
		<path class="st0" d="M776.1,2388c0-98.8,79.4-178.3,177.9-178.3c98.4,0,178.2,80,178.2,178.4c0,98.2-80.2,178.5-178.3,178.5
			C855.8,2566.5,776.1,2486.6,776.1,2388z M1082.1,2387.6c-0.4-71.1-57-127.8-127.6-127.9c-71.6,0-129.2,57.4-129,128.7
			c0.2,71.5,57.4,127.5,129.9,127.4C1026.2,2515.8,1082.5,2458.7,1082.1,2387.6z"/>
		<path class="st0" d="M1263.5,777.7c-0.1-54.6,43.2-98.1,97.4-98.1c53.3,0.1,98.6,45.5,98.1,98.4c-0.5,52.7-44.3,96.2-97.4,96.7
			C1306.7,875.2,1263.6,832.5,1263.5,777.7z M1358.5,824.4c27.4,0.7,48.6-18.3,49.8-45c1.3-26.3-19.2-48.5-45.6-49.5
			c-26.7-1-48.7,19-49.8,45.3C1311.8,801.8,1332.2,823.7,1358.5,824.4z"/>
		<path class="st0" d="M1336.2,1006.9c0.1-54.6,43.3-97.4,98-97.2c53,0.2,96.5,43.4,97.1,96.6c0.6,53.5-43.7,98.2-97.6,98.4
			C1379.5,1104.9,1336.1,1061.4,1336.2,1006.9z M1480.9,1008c0.4-26.5-20.5-48.3-46.6-48.7c-26.3-0.4-47.9,20.5-48.3,46.9
			c-0.4,26.8,19.8,47.9,46.5,48.5C1458.8,1055.4,1480.5,1034.5,1480.9,1008z"/>
		<path class="st0" d="M1389.4,577.3c-0.4-55,42-98,96.8-98.2c54.5-0.2,98.3,43.2,98.2,97.3c0,52.7-43.7,97-96.3,97.7
			C1434.1,674.9,1389.8,631.5,1389.4,577.3z M1438.9,577.3c0.5,26.4,22.1,47.1,48.7,46.7c26-0.4,47.4-22.7,46.8-48.7
			c-0.6-26.1-22.9-47.5-48.8-46.8C1459.4,529.1,1438.4,551.1,1438.9,577.3z"/>
	</g>
</g>
</svg>
