<?xml version="1.0" encoding="utf-8"?>
<!-- Generator: Adobe Illustrator 23.0.0, SVG Export Plug-In . SVG Version: 6.00 Build 0)  -->
<svg version="1.0" xmlns="http://www.w3.org/2000/svg" xmlns:xlink="http://www.w3.org/1999/xlink" x="0px" y="0px"
	 viewBox="0 0 3000 3000" style="enable-background:new 0 0 3000 3000;" xml:space="preserve">
<style type="text/css">
	.st0{stroke:#000000;stroke-width:10;stroke-miterlimit:10;}
</style>
<g id="Layer_1">
</g>
<g id="Layer_2">
	<g>
		<path class="st0" d="M682.7,2376.1c-46.1,41.1-89.1,77.7-135.7,109.7c-44.5,30.5-90.7,57.4-143.5,71.3
			c-79.7,21.1-140.8-0.5-188.2-68.1c-38.3-54.6-58.1-116.8-67.9-181.9c-36.8-243,2-472.6,126.4-686c24.6-42.1,54-81,87.8-116.2
			c9-9.4,8.6-15.3,1.5-25.6C240,1301,208.6,1102.4,235.3,891.5c16.5-130.4,58.6-251.1,138.6-357c39.2-51.9,89.6-93,134.4-139.5
			c35.1-36.3,67.1-74.3,79-125.4c8.1-34.8,5.8-69.9,0.4-103.9c-11.4-73.6,43.1-108.5,98.8-107.2c101.8,2.2,184.8,44.6,251,120.5
			c43.6,49.9,64.4,110.6,76.9,177.1c50.5-38,102.5-71,157.5-98.5c175.3-87.7,360.4-143.6,555-168.1c137.1-17.3,274-7.7,410.9,2.7
			c71.6,5.4,143.3,11.5,213.2,29.6c169.5,44.1,282.2,154.4,356.6,308.3c44,90.9,64.5,186.7,62.2,288.3
			c-3.6,162.6-11.4,325-22.1,487.3c-1.4,21.1-1.1,41.8,4.6,62.5c10.4,37.6,8.5,76.4,7.2,114.8c-4.4,132.1-9.4,264.1-14.6,396.2
			c-4.9,125.5-10,251-15.9,376.5c-3,63.8-8.4,127.4-18.5,190.5c-11.9,74.3-49,138.2-89,199.4c-126.6,193.5-301.7,320.7-527.8,374.2
			c-79.1,18.7-160.4,23.6-241.1,32.5c-149.5,16.5-299.3,27.9-449.9,22.6c-134.5-4.7-267.1-23-398.9-51.2
			c-166.8-35.7-263.6-139.2-306-300c-17.6-66.6-23.9-134.2-18.3-202.9C680.7,2407.7,681.5,2394.8,682.7,2376.1z M2698.4,1152.3
			c7.2-150.1,16.6-299.3,18.2-449c0.9-81.4-16.2-158.5-49-232.3c-75.6-170.3-199.4-280.9-388-309.8
			c-102.7-15.7-206.5-21.2-310.1-26.4c-89.3-4.5-178.5-1.5-267.3,10.8c-90.1,12.5-177.7,35-264.3,61.9
			c-143.6,44.7-279.9,104.6-399.3,198.1c-107.3,84-187.6,187.5-224.1,320.9c-19.6,71.7-16.6,145.3-13.8,218.6
			c2,51.8-1,103.4-13.9,153.5c-35.4,137.2-110.8,247.2-232.4,321.6c-107.8,65.8-195.5,149.7-254.8,261.9
			c-90.3,170.9-123.1,353.8-109.6,545.4c5.1,72.6,20.6,143.6,55.3,208.8c9.7,18.1,20.6,35.4,37.1,48.9c2-3,3-4.1,3.6-5.4
			c2.4-6,4.7-12.1,7.1-18.2c95.4-245.3,258.6-430.9,489.8-556.5c31.7-17.2,30.8-16.5,47.4,13.9c8.1,14.9,4.5,19.8-9.3,26.9
			c-141.6,72.2-258.8,173.3-352.5,301.5c-55.1,75.4-97.6,157.7-130.4,245.2c-6,16-2.3,21.3,14,19.5c5-0.6,10.1-1,15.1-1.8
			c49.8-8.3,93.3-31.2,134.5-58.8c89.8-60.1,169.6-131.9,241.7-212c51.5-57.3,115.8-88.1,190.1-100.9c7.6-1.3,16.9-5.4,20.7,8.1
			c8.4,29.7,2.6,41.3-26.5,47.6c-2.1,0.5-4.4,0.3-6.5,0.7c-93.5,19.1-167.4,87-181.9,172.1c-14.4,84.6-11.5,169.1,12.2,252.4
			c38.7,136,122.1,222.4,264.1,252.3c142.6,30,285.9,48.8,431.5,50.8c190.7,2.7,379.7-19.1,568.3-43.5
			c228.3-29.6,404.7-147.7,539.4-329.8c47.3-63.9,90.3-133,102.8-213.9c22-142.8,22.6-287.3,29.3-431.2c3.7-79.7,5.1-159.6,8-239.4
			c3.8-105.2,8.3-210.4,11.9-315.6c1.6-48.8-6.4-95.9-34.4-137.1c-22.4-32.9-45.6-48.9-90.4-34.2
			c-102.4,33.7-197.6,83.1-293.5,131.1c-32.2,16.1-31.1,16.4-49.4-15.5c-6.7-11.7-5.9-16.4,6.3-22.7c95.5-49,192-96,292.2-135
			c55.4-21.6,108.3-27.5,156.2,17C2694.2,1153,2695.2,1152.6,2698.4,1152.3z M280.1,1019.9c-1.2,31.3,1.4,62.5,4.5,93.5
			c11.9,120,51.2,230.1,118.4,330.3c5.9,8.8,9.6,12.1,19.7,4.1c34.1-27.2,70.6-50.9,107.1-74.6c37.3-24.1,72.2-51.4,100.9-85.6
			c82.9-98.7,122.9-211.8,116.8-341.5c-3.3-70.3-5.1-141,10.2-210.4c27.1-122.9,91.2-225.1,180.7-311.7c19.6-18.9,27-35,22.7-63.4
			c-19.7-129.2-114.6-228-243.3-247.5c-17.2-2.6-34.6-2.9-51.9,1.4c-18.4,4.5-27.1,15.4-25.4,34.6c1.5,16.6,2,33.3,3.7,50
			c6.3,61.8-9,117.9-43.7,169.1c-25,36.9-55.7,68.7-88.9,98.3c-70.1,62.5-128.3,133.7-166,221C299.7,793.6,280.3,904.8,280.1,1019.9
			z"/>
		<path class="st0" d="M1976.5,1314.3c-55.1-3.7-106-17.9-150.1-52c-40.7-31.5-41.4-31.8-65.5,13c-22.3,41.5-54.5,69-101.2,78.5
			c-51.5,10.5-94.5-6.2-130.9-42.1c-15-14.8-28.5-31-43.3-46c-7.1-7.2-14.9-14.1-23.6-19c-35.6-19.9-54-13-68.7,25
			c-7.8,20.3-15.4,40.9-28.1,58.6c-23.4,32.3-57.1,46.1-95.6,49c-78.3,6-158.1-45.1-185.9-118.1c-22.9-60.3-7.8-116.5,48.9-146.2
			c58.7-30.7,84.5-77.7,93.8-139.4c4.6-30.7,11.7-61.3,19.8-91.3c34.5-128.7,160-224.3,298.5-224.4c81.3,0,162.1,11.7,242.7,21.1
			c77.7,9,130.7,57.4,166.7,125.4c34,64.3,45.9,134.2,51.4,205.4c4.6,59.2,18.6,112.5,62.1,158c45.6,47.6,31.3,101.7-28.5,130.2
			C2019.3,1309.4,1998,1313.4,1976.5,1314.3z M1560,713.1c-55.8,0-85.8,6.1-123.6,24.8c-94.3,46.6-140.6,125.7-153.8,227.4
			c-5.1,39-14.1,77.1-32.4,112.3c-18.4,35.5-48.6,58.6-82.7,77.9c-42,23.8-50.9,56.4-28.1,98.7c20.6,38.3,52.8,61,95.1,69.2
			c54.9,10.6,85.4-6.9,104.5-59.2c2-5.4,3.5-11.1,5.6-16.5c22.4-58.7,78.2-80.6,134.7-52.8c16.4,8.1,31,18.8,43.6,32.1
			c17,17.9,33.3,36.5,51.4,53.2c28.4,26.2,63.9,29.5,98.8,12.6c24.1-11.6,35.6-32.8,46.7-55.1c20.1-40.5,49.8-57.1,86.7-49.5
			c20.1,4.1,34.4,17.9,50,29.7c42.2,32,89.6,47.5,142.6,39.8c40.2-5.8,50.1-30.5,23.4-59.5c-34-36.9-56.8-78.6-63.5-128.4
			c-3.9-28.7-6.7-57.6-9.8-86.4c-6.7-61.9-21.3-121.2-55.6-174.5c-28-43.4-66.9-71-118.2-76.6C1701.8,724.3,1628,719,1560,713.1z"/>
	</g>
</g>
</svg>
