<?xml version="1.0" encoding="utf-8"?>
<!-- Generator: Adobe Illustrator 23.0.0, SVG Export Plug-In . SVG Version: 6.00 Build 0)  -->
<svg version="1.0" xmlns="http://www.w3.org/2000/svg" xmlns:xlink="http://www.w3.org/1999/xlink" x="0px" y="0px"
	 viewBox="0 0 3000 3000" style="enable-background:new 0 0 3000 3000;" xml:space="preserve">
<style type="text/css">
	.st0{stroke:#000000;stroke-width:10;stroke-miterlimit:10;}
</style>
<g id="Layer_1">
</g>
<g id="Layer_2">
	<g>
		<path class="st0" d="M2628.8,2103.4c7.6,2.6,11.8,4.3,16.2,5.5c152.5,40.9,264.2,181.1,269.9,338.3
			c3.3,92.7-34.8,162.8-115.4,208.3c-86.5,48.8-179.1,61.9-275.3,36.4c-66.4-17.6-91-57.7-82.6-126c1.6-12.8,2-25.8,3.3-38.6
			c4.9-49.9-21.5-84.5-70.3-91.9c-28.7-4.4-44.2,4.8-50.7,33.4c-5.4,24.2-8.7,49-11.7,73.7c-12.1,98.3-68,157.2-161.4,185.6
			c-119,36.2-240.9,55.7-364.4,63.3c-180,11-360.2,7-539-16c-199.8-25.6-378.5-107-543.7-220.3c-18.9-13-0.4-21.5-0.5-34.9
			c-37.7,8.3-38.5-15-36.2-41.3c0.8-9.2,1-18.5,0-27.7c-2.1-19.5,9.6-19.8,24-20.1c15.1-0.2,27.1,2.1,22.9,20.6
			c-10.1,44.8,15.6,66.1,49.5,88c197.6,127.6,411.7,199.3,648.2,203.7c108,2,215.9,8.9,323.9,4.5c130.3-5.4,259.2-22,384.5-59.3
			c110.1-32.8,140.6-72.2,151.8-186.7c1.6-16.4,4.4-33,8.7-48.9c12.8-46.9,50.3-70.8,98.6-63.9c76.9,11,121.8,70.3,111.6,147.1
			c-1.6,11.9-2.1,23.9-3.2,35.8c-4.3,47.4,4.2,60.7,48.9,75.2c31.1,10,63.2,12.5,95.7,10.6c11.1-0.6,19.6-3.4,20.8-16.9
			c6.7-78.2,4.4-154.9-33.5-226.6c-31.9-60.5-82.8-97.6-145.3-121.2c-86.3-32.5-176.6-44.9-267.6-54.4c-19.2-2-42.1-9.8-56.7-2.2
			c-15.3,7.9-11.8,34.6-17.9,52.6c-10.7,31.5-24,61.8-39.2,91.4c-54.3,105.5-148.6,148.3-258.6,168.3
			c-159.8,29.1-321.1,32.9-482.8,30.2c-89.5-1.5-178.6-8.1-267.2-23.3c-151.5-25.9-221.1-112.3-247.4-268
			c-2.8-16.5,1.4-34.8-27.2-33.2c-16.2,0.9-9.6-18.4-11.4-29.1c-2.7-16,9-14.7,19.1-15.4c95.8-6.5,191.5-14.6,287.3-19.4
			c301.6-15.1,603.4-23.4,905.3-11.5c145.6,5.7,291.2,15.1,432.8,54.4c125.6,34.9,215.6,106.9,247.5,238.5c13.6,56,17,113,7.5,170.4
			c99.4-3.2,181.8-100.5,170.9-201c-9.8-89.6-49.5-165.6-112.7-228.8c-47-47-109.6-58.8-172-67.8c-143.7-20.9-288.7-23.2-433.4-28.9
			c-311.8-12.3-623.8-16-935.8-21.9c-191.8-3.6-383.6-13.4-575.4-19.2c-22.3-0.7-24.2-9.4-24.8-28c-0.7-23.9,14.5-18.9,27.2-18.5
			c54.4,1.6,108.9,3.1,163.3,5.9c16.7,0.8,22.3-3.7,22.4-21.1c0.7-144,3-288.1,3.5-432.1c0.2-59.8-21.7-111.2-65.6-153.2
			c-39.3-37.7-76.7-77.4-116-115.1c-12.2-11.6-10.5-18.3,1.2-27.5c10-7.9,15.9-23.3,32.5-5.9c41.3,43.5,84.9,84.8,126.5,128
			c42,43.6,65.7,96.6,66,157c0.8,145.9,0.1,291.7-1.9,437.6c-0.4,27.3,5.6,39.3,34.3,36.4c15.5-1.6,31.4,1.6,47,0.4
			c34.2-2.5,62.2-15.7,78-48.5c17.9-37.3,36.1-74.6,54.7-111.6c4.4-8.8,5.6-17.7,3.4-26.8c-14.1-58.6-6.4-117.6-3.7-176.5
			c2.9-63.6,7-127.2,11.3-190.7c1-14.7-2.3-26.4-11.8-38c-63.5-78-126.6-156.3-189.1-235c-10.6-13.3-21.2-19.4-39.1-19.6
			c-67.7-0.6-124-57-127.4-125.1c-3.7-74,44.2-132.3,117.7-143.2c66.8-9.9,133.4,34.6,148.5,100.4c13.3,57.8-3.3,106.3-50.5,142.2
			c-14,10.7-14.4,15.8-3.6,29c52.1,63.3,103,127.5,155.3,192.7c2.4-4,4.6-6,4.7-8.2c9.5-177.2,2.2-354.4-0.8-531.6
			c-0.3-17.3-11.3-21.2-22.5-27.2c-226.7-121.5-480.8-85.3-665.1,94.8c-10.3,10.1-16.5,19.2-32.6,4.2c-16.8-15.8-14.2-23.7,0.5-38.2
			c187.6-185.2,458.7-229.9,695.3-114.2c8.7,4.2,24.9,21.2,24.3-7.4c-2.5-129.4,60.2-229,144.7-318.8c20.9-22.1,21-22.1-7.4-34.3
			c-187.7-80.2-384.2-113-586.6-94.9c-237.7,21.3-398,155.1-498.5,366.6c-5.2,10.9-6.1,24.8-26.7,16.9
			c-21.2-8.2-27.7-16.3-15.5-37.1c15.3-26.2,27.6-54.3,43.6-80.2c9.8-15.9,11.6-27.4,1.3-44.7c-27.3-45.9-36.5-96.8-27.1-149.3
			C151.5,264.9,267,199.3,390.3,235.4c33.2,9.7,63.8,24.6,89.1,48.6c10.7,10.1,20.4,12,34.6,7.8c116.9-34.9,235.8-35.5,356.2-24
			c147.4,14.1,288.8,48.7,422.5,113c10.9,5.3,18.4,3.2,27.3-3.9C1465.5,260.5,1636,219.5,1817.7,210
			c114.2-5.9,228.2-17.1,342.3-23.9c97.7-5.8,195.6-10.5,292.1,12.9c61.4,14.9,118.3,40.9,172.1,73.7c12.1,7.4,19.4,7.5,30.5-2.5
			c52.3-47.6,113.9-57.7,180.6-39.6c60.1,16.3,97.5,56.5,114.6,115.8c11.7,40.6,12.6,82.1,6.6,123.5c-6.3,44.1-32.1,73.6-73.3,89.4
			c-12,4.6-20.7,7.7-18.1,24.5c29.1,185.3,40.2,372.3,47.5,559.4c6.6,171.5,11.8,343.4-13.2,514.2
			c-26.2,178.5-113.5,321.4-254.2,432.9C2640.8,2093.6,2636.6,2097.1,2628.8,2103.4z M2121.1,1804.9c-8.6,12.5-5.7,21.9-5.8,30.6
			c-0.3,48-0.7,96,0.1,144c0.3,16.2-4.3,22.5-21.7,23.2c-21.4,0.9-26.4-7.1-26.1-27.3c1.1-74.8,0.5-149.6,0.2-224.4
			c0-6.4,3.4-16.3-8.7-16.4c-10.2-0.1-18.3,3.2-18.2,15.7c0.1,6.5-0.1,12.9-0.1,19.4c0,56.3-0.7,112.7,0.4,169
			c0.4,18.9-4.6,25.7-24.5,25.7c-19.5,0-22.4-8-22.2-24.6c0.8-58.2-0.2-116.3,0.6-174.5c0.3-16.5-3.6-22.1-21.3-21.9
			c-46.3,0.6-92.4-4.7-136.2-20.4c-22.1-7.9-24.2,0.1-23.9,19c0.9,55.4-0.4,110.8,0.7,166.2c0.4,19-7.1,22.7-24.3,23.2
			c-18.9,0.5-23-6.6-22.8-24.1c0.9-63.7,0.4-127.4,0.2-191.1c0-8.8,3.3-18.9-7-25c-17.1-10.1-34.1-20.2-58.9-34.8
			c0,75.1-0.1,143.3,0.1,211.6c0.1,14.9,0.7,26.7-21.2,25.4c-18.5-1.2-25.4-5.7-24.8-25.5c2.4-73.8,2.5-147.7,4.7-221.5
			c0.5-18.7-3.5-32.7-16.6-47c-160.8-176.4-152.4-445.9,18.5-612.5c71.4-35.7,77.3-98.1,70-167.3c-2.9-27.7-0.5-56-0.5-89.7
			c-13.9,10.2-22.7,15.3-30,22.1c-95.2,88.2-177,185.5-210.6,315.1c-5.3,20.5-12.3,40.6-20,60.3c-27,68.4-77.6,111.4-147.6,130.4
			c-59.1,16-116.5,12.3-169.8-28.5c-0.5,9.7-1.1,15-1.1,20.3c0.3,120.1-8.9,239.7-14.8,359.6c-3.8,77.1-16.9,154.3-2.1,231.9
			c20.5,107,140.3,207.7,249.4,209.4c342.4,5.5,684.8,11.3,1026.8,31.5c15.6,0.9,23.1-5.3,30.8-17.2
			c240.5-374.2,315.6-780.6,232.3-1216c-42.9-224.2-192.2-368.3-415.5-402.6c-133.1-20.5-267.6-14.7-399.8,9.7
			c-191.4,35.3-341,134.7-439.4,305.7c-52,90.2-80.2,187.9-89,291.1c-2,23.8-17.3,15.5-29.3,16.7c-16.2,1.7-18.4-8-16.7-20.8
			c3.8-28.3,5.5-57,11.7-84.8c60.5-273.2,217.6-459.8,490.9-538.2c135.6-38.9,275.3-39.3,414.9-32.2
			c249,12.7,426.6,150.9,502.7,388.8c43.7,136.7,46.6,278.3,47.1,419.3c1.1,280.1-74.2,541.1-210.2,785.2
			c-15.7,28.2-32.6,55.7-48.6,83.8c-2.7,4.7-10.3,9.9-1.3,16.1c7.4,5,72.5,5,80.5-0.6c129.9-90.6,224.6-206.7,265-362.7
			c25.7-99.1,30.3-200.5,31.8-302c3.8-250.5-12.1-500-39.4-748.8c-6.3-57.4-9.5-116.3-38.5-168.8c-34-61.6-81.4-111.4-136.6-154.4
			c-130.1-101.3-279.2-131.2-440.2-120.4c-165.7,11.1-331.6,20.6-496.9,37.5c-184.3,18.7-338.9,96.7-462.8,234.1
			c-71.9,79.7-112.5,172-108.7,281.6c2.8,79.3,3.7,158.8,5.3,238.1c0.8,38.7-0.6,77.5,6,116c7.9,46.2,37,77.3,81,82.3
			c27.5,3.1,55.1,1.5,82-7.6c65.6-22.2,101.2-70.3,119.3-134.6c18.3-64.9,39-128.9,78.4-184.9c33-46.8,68.8-91.5,107.8-133.4
			c57.1-61.3,125.3-102.8,210.5-111.1c150-14.7,300.3-14.9,450.9-9.8c69.8,2.3,118.4,35.1,144.7,97.3c40,94.5,75.6,192.6,80.3,294.9
			c8.6,185,23.4,370.5,7.4,555.8c-7.3,84.6-26.5,168-69.4,242.7c-62.6,109.2-169.7,132.2-279.6,114.2c-12.1-2-14.6-6.9-11.7-18.4
			C2172.1,1875.9,2142.2,1843.8,2121.1,1804.9z M1968.8,1696.9c217.7,0.4,394.5-175.7,395.2-393.5
			c0.6-215.6-176.2-393.8-391.4-394.6c-219.5-0.8-397.7,175.4-398.1,393.7C1574.1,1519.5,1751.1,1696.5,1968.8,1696.9z
			 M1505.2,2532.6c75.7,0.7,195.1-7.5,313.7-27.9c102.8-17.7,191-55.8,239.2-156.6c14.8-30.9,26.6-62.8,35.7-95.6
			c1.8-6.5,7.6-14.9,0.8-20.7c-7.4-6.3-17.9-4.7-26.7-3.4c-11.4,1.8-10.4,13.8-13.7,21.8c-54.2,130.8-140.4,219.2-291.3,226
			c-190.9,8.7-381.8,15.2-572.9,5.6c-85.8-4.3-156-40-211.3-105.8c-28.1-33.5-50.6-70.3-66.7-110.9c-4.2-10.6-9-17.6-22-15
			c-14.9,2.9-9.8,14.2-8.6,21.9c21.5,138.6,73.5,213.7,209.6,238C1213.5,2531.9,1336.9,2534,1505.2,2532.6z M1679.8,2244.3
			c1.3-23.8,1.3-23.8-35-23.5c-47,0.4-94,1.3-140.9,0.9c-14.3-0.1-19,4.3-19.1,18.9c-0.2,32.2-2,64.4-4,96.6
			c-2.3,37.7,25.1,73.6,65.4,84c55.1,14.3,87.6,1.9,106.2-40.6C1669.6,2341.3,1677.3,2299.9,1679.8,2244.3z M2103.5,783.1
			c0-27.6-0.4-55.2,0.2-82.9c0.3-13.3-2.9-20.3-18.4-19.8c-46,1.5-92,2.2-138.1,2.5c-14,0.1-19.2,5.4-18.9,19.7
			c0.7,47.9,0.6,95.7,0.1,143.6c-0.1,12.5,2.8,18.3,16.9,17.5c48-2.7,95.6,1,142,14.7c12.9,3.8,16.5-0.4,16.3-12.6
			C2103.3,838.4,2103.5,810.7,2103.5,783.1z M2914.4,416.1c-1-7.7-2.2-23.3-4.9-38.6c-16.9-97.7-131.7-143.1-211.4-84.1
			c-13.1,9.7-19.4,15.6-2,29.3c63.7,50.2,115.8,110.5,149.3,185.2c6,13.3,11.7,12.1,22.8,7.7
			C2911.2,498.6,2913.2,461.8,2914.4,416.1z M1765.9,2406.1c74.5,0.2,130.7-47.2,143.3-120.9c2.5-14.5,4.4-29.1,7.1-43.6
			c2.4-13.1,0.7-20.4-15.9-20.2c-50.7,0.5-101.3,0.1-152-1.3c-16.1-0.4-19.8,6.4-21.4,20.5c-3.7,32.8-3.6,66.1-12.2,98.5
			C1701.7,2388.5,1715.6,2406,1765.9,2406.1z M443.9,317.8c-55.5-54.6-154.7-60.5-216-15c-54.8,40.6-71.7,130.8-37.6,196
			c7.8,14.8,12.7,10.8,20.7,0.8C273.3,421,350.9,361.6,443.9,317.8z M1145,2231.6c0,0.9,0,1.8,0,2.7c-17.5,1.2-34.9,2.6-52.4,3.4
			c-51.4,2.4-51.4,2.3-50.1,55.4c2.1,86.6,52.7,129.6,134.1,114.5c24.9-4.6,41.2-17.3,49.8-41.8c13.8-39.2,9.3-80.1,13.7-120.2
			c1.5-13.5-7.5-14.3-17.8-14.1C1196.6,2231.8,1170.8,2231.6,1145,2231.6z M1364.5,2226.5c0,0.4,0,0.7,0,1.1
			c-19.3,0-38.6,0.6-57.9-0.2c-14.6-0.6-21.4,3.3-21.1,19.8c0.7,37.7-1,75.4-9.3,112.4c-2,8.9,2.2,13.5,8.3,18.4
			c27.8,22.6,58.6,37.9,95.1,38.6c32.2,0.6,47.1-9.8,50.6-41.7c4.8-43.8,5.7-87.9,8.5-131.9c1-16.2-6.9-20.6-21.9-19.1
			C1399.4,2225.6,1381.9,2225.7,1364.5,2226.5z M955.2,1056.4c-0.6-50.3-39.9-88.4-90.4-87.9c-49.9,0.6-89.2,40.6-88.5,90.2
			c0.7,49,41.7,88.7,90.9,88.2C917,1146.4,955.8,1106.4,955.2,1056.4z M2438.9,1659.4c-1.8-15.2,1.1-38.7-25.7-46.5
			c-29-8.4-53.8-23-74.4-45.2c-3-3.3-7.6-12.4-11.9-5.5c-14.5,23.4-45.3,36.5-43.7,70.1c1.7,36.5,10.8,70.6,28.8,102.4
			c9,15.8,21.9,23.4,40.2,24.3C2397.5,1761.2,2438.4,1717.2,2438.9,1659.4z M1778.8,904.6c32-13.4,60.1-24.5,89.9-30.3
			c10.8-2.1,14.8-8.1,14.6-19.3c-0.5-50.6-0.4-101.3-0.1-151.9c0.1-12.2-4.4-16.7-16.5-14.4c-24.3,4.7-48.7,9.2-73.2,13.4
			c-10.9,1.9-15.1,7.5-15,18.8C1779,780.7,1778.8,840.5,1778.8,904.6z M2237.2,1653.3c-32.5,23.3-64.7,42.6-99.6,57.1
			c-7,2.9-9.6,6.4-8.3,14.6c9.6,57.6,66.7,95.6,121.8,80.6c19.7-5.4,31-27.2,21.3-45.2C2254.8,1727.6,2243.7,1692.9,2237.2,1653.3z
			 M2246.8,722.5c-0.7,18.3,2.9,39.8,22.3,56.9c36.1,32,88.5,30.7,122.7-3.1c8.8-8.7,3.9-14.6,0.8-21.8c-21-48.1-57.7-71.7-110.4-73
			C2243.5,680.7,2243.5,679.4,2246.8,722.5z M2255.3,896c0.8,12.2,1.9,32.5,3.4,52.7c1.5,20.1,26.8,55.2,42.3,59.3
			c18.2,4.8,52.1-12.8,66.1-33.3c7.3-10.8,8-18.5-2.9-28.2c-24.1-21.4-39.5-48.4-43.6-81c-1.4-11.2-5.9-18.7-18.7-19.2
			c-16.5-0.6-33.9-20.8-45.2-11.8c-11,8.8,0.5,31.3-1.4,47.8C2255.1,884.2,2255.3,886,2255.3,896z M2211,930.1
			c-3.9-79.6-7.5-157.7-11.7-235.7c-1.3-23.7-20.7-11.4-32.1-14c-13-3-17.5,3.8-17.3,17c0.6,48,4.4,96.4-1,143.8
			c-5.4,47.5,12.3,73.9,55,88.1C2204.6,929.4,2205.5,929.4,2211,930.1z M2471.6,1051.3c-2.2-16.3-3.8-27.3-5.1-38.2
			c-1.6-13.4,0.4-27.7-19.6-30.7c-17.5-2.6-31.3-4-40.6,15.9c-5.2,11.1-17.3,18.8-25.1,29c-11.7,15.3-43.8,10.8-42.2,33
			c1.3,18.2,18.2,35.3,28,53c12,21.7,33.4,24.3,51,6c14-14.6,27.3-30,41.9-44C2468.9,1066.8,2473.1,1058,2471.6,1051.3z
			 M2477.8,1515.2c0-12,0.5-23.9-0.1-35.9c-1-21.5-19.1-25.8-34.4-30.6c-18.1-5.8-39.5-14.3-55.6-0.7
			c-39.3,33.1-33.1,83.9,11.1,109.1C2453.9,1588.7,2475.6,1577.2,2477.8,1515.2z M2201,1856.9c21.8,33.3,51.2,40.4,83.7,36.9
			c55.7-6,111.2-48.9,128.4-97.7c-21.2,8.1-43.1,13.9-64.7,9.1c-21.7-4.8-34.6-0.7-45.7,19.7c-9,16.5-27.2,24.2-46.3,26.6
			C2239.2,1853.5,2221.9,1854.8,2201,1856.9z M1228.8,2043.2c-47.2-30.4-83-69.3-111.3-117.6c-19.4,37.2-36.4,70.7-54.3,103.7
			c-7.4,13.6,1.1,13.8,10,13.9C1123.6,2043.3,1174,2043.2,1228.8,2043.2z M2411.2,1276.3c62.7-26,82.3-75.8,54.8-142.4
			c-14,24.5-34.8,38.4-60.9,43.7c-9.5,1.9-11.5,5.7-9.6,15C2401.2,1220.3,2406,1248.3,2411.2,1276.3z M2478.8,1291.5
			c-21,13.2-35.3,22.6-50.1,31.4c-16.5,9.8-32.9,45.4-26.7,65.8c5,16.4,22.3,4.2,33.1,9.6c8,4,17.7,4.4,26.2,7.6
			c12.9,4.9,18.1,2.7,17.7-12.4C2478.2,1361.4,2478.8,1329.4,2478.8,1291.5z M2408.6,820.7c-10,0-43.4,29.4-42.2,39.8
			c3.5,32.1,38.2,69,69.4,74.5c9.1,1.6,14.8,1.3,11.4-10.5c-9.2-31.7-17.9-63.5-27.1-95.2C2418.8,825.2,2417.4,820.2,2408.6,820.7z
			 M1946.3,2341.5c27.3-29,42.4-59.4,56.7-90.1c3.3-7.1,11.9-16.4,6.2-22.3c-8.6-8.9-22.5-5.1-34.2-5.2c-11.5-0.1-11.4,10-12.7,18
			C1957.1,2273.5,1952.1,2305.1,1946.3,2341.5z M997.6,2321.3c0-22.4,0.5-38.8-0.2-55.1c-0.4-7.3,5-18.8-5.6-21.1
			c-10.2-2.2-24.1-2.9-31.7,2.4c-8.2,5.7,1.7,16.5,5.6,24C973.8,2287.3,981.1,2303.8,997.6,2321.3z M1281.6,2437.3
			c-29.3-27.3-29.3-27.3-44.4,0C1251.6,2437.3,1265.8,2437.3,1281.6,2437.3z"/>
		<path class="st0" d="M1020,1749.5c0,47,0,94.1,0,141.1c0,15.3,4.2,30.1-21.9,30.6c-27.8,0.6-23.5-15.5-23.7-31.9
			c-1.4-102.4,0.1-204.7-3.9-307.1c-3.5-90.6-37.7-163.9-108.5-220.4c-26.8-21.3-50.5-45.8-73.2-71.4c-8-9-9-16.4,2.8-20.9
			c10.5-4,16.6-28.1,32.9-8.6c27.9,33.5,62.2,60.3,93.8,89.9c60.2,56.4,90.3,126,96.6,207.8
			C1019.7,1622.3,1019.7,1685.8,1020,1749.5z"/>
		<path class="st0" d="M369.1,2494.6c51.5,0,51.1,0,45.8,50.9c-3.9,37.6-8.2,75.2-9.6,112.9c-0.8,22-12.5,19.5-27.3,19
			c-16-0.5-22.7-3.8-20-22.4c4.5-30.9,5.3-62.4,8.1-93.6c1.1-12.9-0.8-21.6-17-19.9c-19.2,2.1-34,0.8-32.5-26.6
			c1.5-26.6,18.9-19.2,33.2-20.3C356.2,2494.2,362.7,2494.6,369.1,2494.6z"/>
		<path class="st0" d="M657.7,2260.6c-24.8,0-49.7-1.2-74.4,0.4c-18.2,1.1-21.6-6.7-21.2-22.5c0.4-14.5,1-24.3,20.2-23.9
			c50.5,1.1,101.1,1.2,151.6,0c18.5-0.4,21.1,7.5,20.6,22.9c-0.4,14.1,0.2,24.9-19.7,23.5C709.3,2259.3,683.5,2260.6,657.7,2260.6z"
			/>
		<path class="st0" d="M255.2,2105.2c0,8.3-0.7,16.7,0.1,24.9c1.5,14.6-4.7,20.8-19,18.6c-20.1-3.2-23.7,8-21.6,24.2
			c2.4,18.8-1.9,27.9-24.6,27.7c-22-0.2-24-10.1-22.6-26.9c0.8-9.2,0.8-18.5,0-27.6c-1.1-14,3.9-21.5,18.6-19.3
			c21.3,3.2,25.3-8.4,23.4-25.9c-0.6-5.5,0.5-11.1-0.2-16.6c-2.4-17.6,3.9-24.2,22.6-23.7c16.9,0.4,26.4,3.3,23.5,22.5
			C254.3,2090.3,255.2,2097.8,255.2,2105.2z"/>
		<path class="st0" d="M100,2399.2c0-12.8,0.5-25.7-0.1-38.5c-0.9-16-0.7-27.5,22-27.3c22.3,0.2,25.8,9.4,25.1,28.2
			c-1.1,28.4-1.3,56.9,0,85.2c1,20.1-10.8,18.7-24.3,19.1c-14.7,0.4-25-0.7-22.9-20C101.3,2430.5,100,2414.8,100,2399.2z"/>
		<path class="st0" d="M391.8,2299.8c-18.9,5.9-23.9-5.5-26.2-24.4c-2.8-22.2,10.9-20.3,24.8-21.5c25.6-2.1,51.1-5,76.7-7.8
			c10-1.1,21.9-5,20.6,11.9c-1,13.5,10.4,33.3-16.3,35.2C445.7,2295.1,420.1,2297.4,391.8,2299.8z"/>
		<path class="st0" d="M98.6,792.6c-8.3,0-16.6-0.5-24.8,0.1c-16.2,1.2-27.8,0.6-27.4-22.1c0.4-20.3,7.9-25,26.1-23.8
			c19.2,1.3,38.7,1.4,57.9,0c17.9-1.3,21.7,6.6,21.1,22.5c-0.5,14,0.2,26.1-19.8,23.5C120.8,791.5,109.6,792.6,98.6,792.6z"/>
		<path class="st0" d="M100.8,870c8.2,0,16.6,0.7,24.7-0.1c17-1.7,26.9,0.9,26.3,22.6c-0.5,19.2-5.8,26.1-25.1,24.6
			c-19.1-1.5-38.5-1.4-57.7,0c-19.8,1.4-22.3-8.7-22.3-25c0-15.5,2.8-24.6,21.1-22.4C78.7,871,89.8,870,100.8,870z"/>
		<path class="st0" d="M94.5,1185.2c0,8.2-0.6,16.6,0.1,24.7c1.5,16.6-0.1,26.5-22.2,26.6c-22.2,0.1-26.5-8.3-25-27.3
			c1.3-16.4,1-33,0.1-49.5c-1-18,1.7-28.3,24.5-28.8c25.3-0.5,22.9,13.7,22.5,29.5C94.3,1168.7,94.5,1177,94.5,1185.2z"/>
		<path class="st0" d="M156.1,2291.5c5.3,28.3-18.6,18.4-30.5,22.8c-16.9,6.2-14.2-8-15.4-17.1c-2.1-15.4-2.9-31-6.1-46.2
			c-3.4-16-5.4-27.5,17.2-29.6c22-2.1,29.7,5,29.3,26.7C150.2,2262.5,154.1,2277,156.1,2291.5z"/>
		<path class="st0" d="M536.9,2027.7c7.4,0,14.8,0.7,22-0.1c18-2.2,25.9,2.6,26.1,23.3c0.2,22.1-10.5,23.4-27.1,22.5
			c-15.6-0.8-31.3-1.2-46.8,0.1c-18.1,1.5-25.7-3.1-26-23.6c-0.3-22.3,10.6-23.6,27.1-22.2C520.4,2028.2,528.7,2027.7,536.9,2027.7z
			"/>
		<path class="st0" d="M538,2521.1c-11.6,2.4-14.9-5.4-16.2-15.7c-1.9-14.6-4.5-29.1-6.1-43.7c-2.9-27.1,6.1-35.3,33.6-33.2
			c9.1,0.7,10,5.4,10.8,12.4c1.8,16.4,1.9,33.5,6.8,49.1C575.7,2518.2,558.6,2519.9,538,2521.1z"/>
		<path class="st0" d="M94.5,1434.4c0,6.4-0.7,12.9,0.1,19.2c2.4,18.3-3.3,25.5-23.5,25.6c-21.2,0-24.6-9.6-23.5-26.8
			c0.8-12.8,1.2-25.8-0.1-38.5c-2-19.2,5.3-25.2,24.6-25c18.3,0.1,24.8,5.9,22.6,23.6C93.7,1419.6,94.5,1427,94.5,1434.4z"/>
		<path class="st0" d="M574.7,2593.3c-6.4,0-12.9-0.7-19.2,0.1c-18.6,2.6-22.7-5.9-23-23.3c-0.3-18.9,6.8-24.3,24.1-22.5
			c10,1,20.1-0.1,30.2,0.2c15.2,0.6,32.5-6.4,33,22c0.5,30-18,22.8-34.1,23.4C582,2593.4,578.4,2593.3,574.7,2593.3z"/>
		<path class="st0" d="M94.5,1033.1c0,6.4-0.7,13,0.1,19.3c2.4,17.8-4.1,24.1-22.6,23.4c-16.1-0.7-26.7-2-24.5-22.1
			c1.4-12.7,0.9-25.8,0.1-38.6c-1-16,1.6-25.6,21.8-25.1c17.9,0.5,28.4,3.1,25.2,23.8C93.7,1020.1,94.5,1026.6,94.5,1033.1z"/>
		<path class="st0" d="M189.5,1984.9c-7.4,0-14.8-0.7-22.1,0.1c-21.1,2.4-17.5-12.1-18.4-24.9c-0.9-14.5,2.2-22.7,19.2-21.1
			c13.7,1.3,27.8,1.6,41.4,0c20.2-2.4,24.4,6.2,24.2,24.8c-0.2,17.2-5.5,23.5-22.2,21.4c-7.3-0.9-14.7-0.1-22.1-0.1
			C189.5,1985,189.5,1984.9,189.5,1984.9z"/>
		<path class="st0" d="M81.7,1596.5c-9.7-6.4-33.4,13.5-34.8-17.6c-1-20.3,3.1-32.1,26.6-28.1c6.3,1.1,12.9-0.3,19.3,0.2
			c14.7,1.2,33-7.7,33.5,21.4c0.6,30-17.5,23.6-34.1,24C89.4,1596.6,86.7,1596.5,81.7,1596.5z"/>
		<path class="st0" d="M106.3,2554.7c-10.4-7-35.1,14.7-37.5-17.5c-1.5-20.6,3.4-31.7,26.7-28.2c9.9,1.5,20.3,1.1,30.3,0.1
			c17.9-1.9,26.4,2.5,26,23.3c-0.3,18.7-6.7,24.6-24,22.4C121.5,2554.1,115,2554.7,106.3,2554.7z"/>
		<path class="st0" d="M146.6,1821.2c0,7.3-0.7,14.7,0.1,22c2.3,19.2-9.3,19.9-23.6,19.8c-14.1-0.1-26,0.1-23.3-19.7
			c1.3-9.9-0.4-20.2,0.4-30.2c1-14.5-7.9-32.9,21.2-33.4c28.2-0.4,26,15.3,25.3,33.2C146.6,1815.7,146.7,1818.5,146.6,1821.2z"/>
		<path class="st0" d="M436.4,2084c-2.9,15.1,8.9,37.4-22.4,36.6c-18.8-0.5-27.8-5.7-25-25.3c0.5-3.6-0.1-7.3,0.1-11
			c0.7-16.9-7.2-36.4,24.8-35.8C445.4,2049.2,433.4,2069.6,436.4,2084z"/>
		<path class="st0" d="M94.5,1298.8c-7.9,9.9,14.9,33-13.8,37.3c-29.6,4.4-32.8,1.2-33-29.2c0-5.5-0.1-11,0-16.5
			c0.3-16.5-5.8-33.9,24-33.7c30.7,0.2,21.4,19,22.7,34.4C94.6,1292.9,94.5,1294.7,94.5,1298.8z"/>
		<path class="st0" d="M621.2,2433.5c-42.3,0-41.5,0.1-39.7-30.8c0.7-12.8,6.1-15.2,16.9-14.9c14.7,0.5,29.5,1.2,44-0.1
			c19-1.7,17.7,10.2,17.4,22.5c-0.3,11.6,3,25.3-16.6,23.4C636,2432.9,628.6,2433.5,621.2,2433.5z"/>
		<path class="st0" d="M352.9,2471.5c-9.5-7.5-33,14.6-35.9-16c-2.1-21.6,3.2-33.6,27.6-29.6c6.2,1,12.8,0.1,19.2,0.2
			c15.8,0.2,31.9-4.9,31.6,23c-0.3,27.9-16.5,22.1-32.1,22.4C360.6,2471.6,357.9,2471.5,352.9,2471.5z"/>
		<path class="st0" d="M355.5,2087.9c0,6.5-0.8,13.1,0.2,19.4c3.3,20.7-9,21-24.6,21.7c-17.7,0.9-23.1-5.9-21.2-22.3
			c1-8.2-0.3-16.6,0.3-24.9c1-14.6-7.8-32.6,21.5-33.2c30.3-0.6,23.5,17.4,23.9,33.8C355.6,2084.2,355.6,2086,355.5,2087.9z"/>
		<path class="st0" d="M305.3,2368.7c0.1-5.6,42.6-47.7,46.8-46.2c14.2,5.2,23.3,16.4,29.5,29.8c1.3,2.8-43.5,47-46.2,45.6
			C322,2391.3,313.7,2379.3,305.3,2368.7z"/>
		<path class="st0" d="M268.3,2685.2c-11.6-7-32.5,10.4-37.1-14.8c-5.1-28.2-0.7-33,28.4-33.1c2.7,0,5.5-0.4,8.2,0.1
			c15.8,2.7,38.8-11.2,38.3,24C305.6,2695,283.3,2680.5,268.3,2685.2z"/>
		<path class="st0" d="M269.8,1994.6c17.8,0.7,40.3-7.6,36,26.4c-2,15.9-6.6,20.8-21.3,19.3c-7.3-0.7-14.7,0-22-0.1
			c-15.6-0.4-32.2,5.5-32.6-22.4c-0.4-27.8,15.5-23.2,31.6-23.1C264.3,1994.6,267.1,1994.6,269.8,1994.6z"/>
		<path class="st0" d="M122.4,1691.1c-3.9,11.3,11.2,33.2-20,32.8c-20.7-0.3-29-5.5-25.7-26.3c0.9-5.4,0-11.1,0.1-16.6
			c0.3-15.8-5.2-32.3,23-32.2c28.2,0.1,22.3,16.7,22.6,32.4C122.4,1684,122.4,1686.8,122.4,1691.1z"/>
		<path class="st0" d="M186.2,2592.1c9.4,0.2,25.5-5.5,25.7,22.6c0.2,28.3-16.1,22.7-31.7,22.7c-15.5,0-32,5.7-32.1-22.4
			C148.1,2587.1,164,2591.9,186.2,2592.1z"/>
		<path class="st0" d="M528.9,2645.9c-0.3,15.5,5.3,31.7-22.5,32.3c-29.6,0.6-24.2-16.6-24-33.2c0.2-15.2-6.4-32.2,22-32.5
			C533.1,2612.3,529.7,2628.3,528.9,2645.9z"/>
		<path class="st0" d="M1656.1,1303.6c-0.3-162.8,130.7-294.8,292.7-295c161.8-0.2,294.2,131.4,295.1,293.6
			c0.9,160.4-131.5,294.3-290.9,294.1C1786.3,1596.1,1656.3,1468,1656.1,1303.6z M1949.9,1551c136.4-0.1,248.6-113,247.6-249.1
			c-1-135.8-111.1-246-246.9-247c-135.7-1-248.9,111.6-249,247.8C1701.4,1439,1813.4,1551,1949.9,1551z"/>
		<path class="st0" d="M1969.6,1174.1c82.3,0.5,146.1,63.9,145.3,144.4c-0.8,80.6-66.7,145.1-147.4,144.3
			c-79.1-0.8-143.7-65.8-144.1-144.9C1823,1237.2,1887.6,1173.6,1969.6,1174.1z M1969.9,1219c-56.2-0.2-100.3,43.7-99.8,99.2
			c0.4,54.6,43.9,97.9,98.5,98.1c55.1,0.2,98.6-42.2,99.3-96.8C2068.6,1262.5,2026.3,1219.2,1969.9,1219z"/>
	</g>
</g>
</svg>
