<?xml version="1.0" encoding="utf-8"?>
<!-- Generator: Adobe Illustrator 23.0.0, SVG Export Plug-In . SVG Version: 6.00 Build 0)  -->
<svg version="1.0" xmlns="http://www.w3.org/2000/svg" xmlns:xlink="http://www.w3.org/1999/xlink" x="0px" y="0px"
	 viewBox="0 0 3000 3000" style="enable-background:new 0 0 3000 3000;" xml:space="preserve">
<style type="text/css">
	.st0{fill:none;stroke:#000000;stroke-miterlimit:10;}
	.st1{stroke:#000000;stroke-width:10;stroke-miterlimit:10;}
</style>
<g id="Layer_1">
</g>
<g id="Layer_2">
	<path class="st0" d="M1442,1721.1"/>
	<g>
		<path class="st1" d="M1968.6,2312.8c-0.4-146.4,21.5-290.4,49.4-433.5c35.7-183.4,66.9-367.4,74.6-554.5
			c4.3-106,7.4-212-19.9-316.2c-33.9-129.5-111.8-216.8-240.8-257.6c-38.4-12.1-77-22.9-116.7-29c-98.2-15-195.8-12.8-291,17.5
			c-129.8,41.3-228.2,122.9-292.3,242.4c-85.2,158.9-132.3,328.4-128.1,510.1c2.2,94.7,16.3,188.2,31.3,281.5
			c49.2,306.5,74.8,614.3,57.6,924.9c-3.8,69.1-10.6,138.1-14.5,207.3c-1.1,18.9-9.1,21.5-24.3,17.8c-4.2-1-8.6-2.2-12.8-1.8
			c-16.9,1.2-18.1-8.4-16.7-21.6c10.6-99.8,15.4-199.9,19-300.2c3.9-108.3-0.1-216.5-4.8-324.6c-0.6-13.9-4.1-20.1-19.2-21.4
			c-127.8-11.1-255.6-23.1-383.3-34.5c-35.3-3.2-35.4-2.7-25.6,32.4c27.1,97.2,55.9,194.3,64.8,295.3c12,136.2-3.6,266.8-89.1,380.5
			c-2.6,3.5-5.6,6.6-8,10.2c-7.2,10.9-14.8,15.3-24.5,2.7c-0.8-1.1-2.3-1.7-3.4-2.7c-23.2-20-23.2-20-4.6-44.5
			c56.9-75,76.8-161.9,80-253.6c3.8-107.3-21.8-210.2-49.7-312.7c-30.6-112.5-63.9-224.3-81-340.2c-18.1-122.3-26-245.4-28.9-368.7
			c-3.6-153.7-4.3-307.5,8.3-460.9c20.4-246.9,86-478,242.2-676.2c177.7-225.5,410.1-359.4,692.3-406.2
			c169.7-28.2,339.5-26.6,506.7,17.6c233.2,61.7,401,202.6,501.8,422.4c87,189.8,123,388.7,113.3,597.3
			c-7.4,159.5-21.2,318-46.4,475.6c-22.1,138.1-51.9,274.8-80.6,411.6c-29.3,139.4-51.7,279.3-45.8,422.5
			c6.5,156.7,35.4,309.1,85.7,457.4c5,14.8,4.1,22.2-12.1,24.7c-4.9,0.8-9.9,2.6-14.3,4.9c-14.1,7.4-20,1.9-24.6-12.2
			c-30.2-91.9-53.6-185.5-68.8-281.1c-13-82.1-20-164.7-19.9-247.8c0-13.9-5.2-16.9-17.7-16.8c-81.6,0.4-163.1,0.5-244.7-0.1
			c-15.5-0.1-19.1,4.8-18.6,19.9c6.4,179.8,36.6,355.6,90.9,526.9c9.2,28.9-9.6,25.5-23.8,32.1c-17.9,8.3-22.8,0.4-27.8-15.8
			C2001.8,2717.7,1970,2517.6,1968.6,2312.8z M522.6,1229.8c-1.1,14.3-4.8,25.9,18.8,28.1c134.1,12.4,268,27.1,401.9,41.6
			c15.8,1.7,21.8-1.8,25.5-18.7c26.5-120.8,63.5-238,128.3-344.5c7.2-11.8,4.3-19.2-2.2-28.9c-94.9-141.8-189.8-283.7-284.1-425.9
			c-9-13.5-13.6-16.6-25.6-2.3c-62.8,75.2-114.6,157.2-154.7,246.5C558.6,886,532.9,1056.4,522.6,1229.8z M2308.3,1084.8
			c47.6,0,95.3-1.1,142.8,0.5c21.5,0.8,28.1-4.8,28.4-27.1c2.8-210-45.4-407.4-146.5-591.3c-46.1-84-110.4-152.8-187.2-210
			c-9.5-7.1-14.8-9.6-22.7,3.6c-84.4,141.6-169.3,282.9-254.9,423.9c-9.8,16.1-7.6,21.7,9.9,27.9c61.6,21.9,114.4,57.2,157.1,107.2
			c59.2,69.2,88.3,151.3,101.6,239.5c3.2,20.9,9.7,27.1,30.7,26.3C2214.5,1083.6,2261.4,1084.8,2308.3,1084.8z M1621.2,109.8
			c-194.4,0.4-378.6,42.1-550.3,135.1c-16,8.7-17.5,15.2-7.9,30.3c38.3,60.1,75.3,121,112.7,181.6c50.3,81.5,100.6,163,151.1,244.3
			c4.4,7,6.2,17.9,20.4,11.2c79.1-37,163.4-50.2,249.9-52.5c10.3-0.3,15.2-4,19-13.2c70.9-168.3,142-336.6,213.5-504.6
			c5.5-12.9,1.3-15.1-10.4-16.8C1753.5,115.3,1687.5,110.3,1621.2,109.8z M517.7,1678c7.8,102.3,14.8,204.4,30.5,305.7
			c6.2,40.3,5.8,40.3,45.8,44.4c9.3,1,18.6,2.7,27.9,3.7c123.8,13.9,247.6,27.5,371.4,41.7c29.3,3.4,29.2,4.1,26.4-24.8
			c-0.2-2.2-0.4-4.3-0.7-6.4c-20.1-147-40.3-293.9-60.1-440.9c-1.6-11.7-5.9-14.9-17.5-15.8c-51.7-4.2-103.3-9.9-154.9-14.8
			c-83.2-7.9-166.4-15.3-249.6-23.5c-15.3-1.5-19.8,2.7-19.3,18.3C518.4,1603,517.7,1640.5,517.7,1678z M2184.3,2106.9
			c41,0,82.1-1.2,123.1,0.6c16.9,0.7,22-4.4,25.1-20.1c17.6-90.3,36.5-180.4,54.7-270.6c24.1-119.3,47-238.8,62.4-359.7
			c1.8-14.3-0.1-20.2-16.8-20.1c-92.3,0.8-184.6,0.6-276.9,0.1c-13.8-0.1-18,3.9-19.3,18c-11.7,130.7-32.9,260-57.9,388.7
			c-14.8,76.3-28.8,152.8-40.2,229.8c-1.4,9.2-0.9,15.3,2.4,19c5.2,5.9,15,4.9,18.1,4.7C2076.6,2095.9,2119,2099.3,2184.3,2106.9z
			 M1139.4,874c39.2-50.2,86-91.7,139.7-125.2c11.9-7.4,6-13.5,1.5-20.7c-88.5-143.4-177.2-286.7-265.5-430.2
			c-6.8-11.1-12-12.5-23.1-4.6C943,327.8,897,365.9,853.2,406.9c-13.1,12.3-15.7,20.7-4.6,37.1c90.1,133,179.1,266.8,268.5,400.2
			C1123.9,854.3,1128.8,865.7,1139.4,874z M1799.7,686.2c9,2.5,11.2-9,15.7-16.4c87.7-145.5,175-291.2,262.9-436.5
			c7.7-12.7,5.3-17.6-6.9-24c-52.5-27.7-107.8-47.8-164.3-65.2c-14.5-4.5-20.6-2-26.7,12.8c-48.6,116.8-98.3,233.2-147.6,349.7
			c-19.6,46.4-39.4,92.6-58.6,139.2c-2.2,5.4-12.3,15.9,2.7,17.4C1717.1,667.3,1756.3,675.8,1799.7,686.2z M956,1371.2
			c2.9-11-1.3-18.1-21.8-20c-132.8-12.5-265.3-26.7-397.9-40.9c-12.8-1.4-18.4,0.3-18.3,14.8c0.4,51.2,0.2,102.5-0.7,153.7
			c-0.2,13.5,6.8,14.9,17.2,15.9c133.6,12,267.1,24,400.6,36.7c14,1.3,17.5-1.7,16.8-15.4C949.7,1469.8,949.5,1423.6,956,1371.2z
			 M2311.1,1138.5c-49.1,0-98.1,0.3-147.2-0.2c-12-0.1-18.5,1.5-17.4,16.3c5.4,70.7,0.7,141.3-3.9,211.8
			c-0.9,13.3,2.4,17.6,16.1,17.5c94.5-0.5,189-0.4,283.5,0c11.7,0.1,16.1-3.3,17.3-15.4c6.9-71.1,13.3-142.1,15.9-213.5
			c0.5-13.9-4.4-17-17.2-16.8C2409.2,1138.8,2360.2,1138.5,2311.1,1138.5z M2171.6,2160.2c-27-2.5-48.2-5.6-62.7-8
			c-20.6-3.4-41.8-1.9-62.7-3.1c-13.2-0.8-17.4,3.4-17.8,16.6c-1.3,38.2-3.6,76.4-6.4,114.5c-1,13.3,3.3,17.5,16.7,17.4
			c83.7-0.5,167.4-0.5,251,0.1c13.6,0.1,16.5-4.7,17.3-17.3c2.1-33.8,5-67.7,9.9-101.1c2.2-15.1-1.5-19.2-15.7-19.1
			C2258.1,2160.4,2214.9,2160.2,2171.6,2160.2z M1033.7,2187.7c-2.1-16.8-5.1-28.3-4.5-39.6c0.8-16.1-7.7-18.7-20.7-20.1
			c-140.9-15.5-281.8-31.3-422.7-47.5c-14.8-1.7-21.6,0-16.3,17c5.1,16.4,9.5,33.2,12.7,50.1c2.2,11.8,8.2,14.2,19.2,15
			c36.6,2.7,73.1,6.9,109.7,10.3c101.1,9.4,202.2,18.5,303.3,28.1C1029.3,2202.4,1036.8,2198.8,1033.7,2187.7z"/>
		<path class="st1" d="M1227.8,1535.3c4.2,161.2,23.5,325,57.9,486.9c23.3,109.5,26.2,220.3,22.3,331.7
			c-6.3,180.5-28.5,359.4-54.3,538c-2.5,17.5-8.3,24.2-25.6,19.5c-6.2-1.7-12.7-3-19.1-3.4c-9.2-0.6-12.1-3.6-10.5-13.5
			c16.3-101.8,30.4-204,40-306.7c15.2-163.2,28.9-326.7,6.2-490.2c-9.2-66.3-25.2-131.7-35.8-197.8
			c-31.1-194.5-46.5-389.7-19.9-586.2c14.5-107,44.3-208.4,109.2-297.3c79.5-108.8,233.1-169.7,359.2-141.3
			c91.2,20.6,148.6,78.8,181,163.7c31.3,81.7,40.8,167.9,47.5,254.3c11.2,145.6-5.9,289.4-27.1,433.1
			c-24.5,165.4-57.2,329.6-75.3,495.9c-19.5,179.8-18.9,358.6,32.8,534.2c15.3,52,36.3,101.9,62.7,149.2c6.9,12.4,6.2,17.6-6.5,24.5
			c-32.2,17.4-31.6,18-48.3-14c-58-111-86.6-230.2-98.5-354c-13.8-143.1-3.5-285.1,15.7-427.1c21.1-156.5,51.7-311.4,73.4-467.7
			c25.3-182.4,34.5-364.9-6.6-546.7c-6.7-29.6-15.8-58.5-29.1-85.8c-37.9-77.5-108.9-119.4-195-113.6
			c-112.6,7.6-200.5,58.1-261.5,153.9c-48,75.3-69.1,159.7-81,246.6C1232.3,1391,1228.8,1461,1227.8,1535.3z"/>
		<path class="st1" d="M1437.9,1331c-53.9-0.6-97.5-45.3-96.3-98.8c1.2-53.6,46.3-97.3,99.4-96.4c53.6,0.9,96.5,45.5,95.8,99.5
			C1536.1,1289.5,1492.6,1331.6,1437.9,1331z"/>
		<path class="st1" d="M1442.6,1673.3c-0.4-54.2,42.5-97.8,96.7-98.3c53.7-0.5,98,43.2,98.5,97c0.5,53.5-43.4,97.9-97.2,98.3
			C1486.7,1770.9,1443,1727.6,1442.6,1673.3z"/>
		<path class="st1" d="M1685.6,1330.6c-34.8,0.1-62.2-26.2-62.8-60.4c-0.7-35,26.5-61.5,63-61.5c34.8,0,61.7,26.4,61.7,60.7
			C1747.5,1303.4,1720.1,1330.5,1685.6,1330.6z"/>
	</g>
</g>
</svg>
