<?xml version="1.0" encoding="utf-8"?>
<!-- Generator: Adobe Illustrator 23.0.0, SVG Export Plug-In . SVG Version: 6.00 Build 0)  -->
<svg version="1.0" xmlns="http://www.w3.org/2000/svg" xmlns:xlink="http://www.w3.org/1999/xlink" x="0px" y="0px"
	 viewBox="0 0 3000 3000" style="enable-background:new 0 0 3000 3000;" xml:space="preserve">
<style type="text/css">
	.st0{stroke:#000000;stroke-width:10;stroke-miterlimit:10;}
</style>
<g id="Layer_1">
</g>
<g id="Layer_2">
	<g>
		<path class="st0" d="M321.2,1342.1c-9.2-4.6-16.6-8.5-24.1-12.2c-74.8-36.9-121.8-95.7-139.5-177.3
			c-19.9-92.1-33.5-185.1-36.3-279.5C114.9,667,236.8,475.8,426.4,394.2c110.4-47.5,227.1-68.5,345.8-78.4
			c233.1-19.4,466.4-10.8,699.5,0.4c51.6,2.5,102.9,10,153.5,21.3c113.6,25.4,209.9,77,271.3,183c32.3-29,64.8-54.5,99.8-76.8
			c117.9-75.2,245.8-115.1,386.2-102.4c228.7,20.6,465.6,164.7,513.3,450.5c12,71.6,10.2,143.8,5.3,215.8
			c-8.9,129.4-19.2,258.8-28.5,388.2c-19,264-37.3,528-101.9,786c-19.4,77.5-46.8,152.2-84.2,223.1
			c-91.3,172.9-238.9,258-429.8,273.8c-205.7,17-396.2-39.1-579.9-125c-23.8-11.1-47.3-31.3-71.1-31.4
			c-22.9-0.2-39.8,28.5-60.6,42.8c-79.6,54.7-169.2,83.1-263.7,92.9c-200.3,20.9-401.2,29-602.1,10.1
			c-154.2-14.5-295-62.5-405.5-178.1c-93.2-97.6-142.7-215.9-158.6-348c-25.3-209.6-3.5-413,88.1-605.9
			C235.8,1467.6,274.6,1403,321.2,1342.1z M835.2,2632.9c30.3,4.9,58,1.1,85.7,0.8c127.3-1.4,254.7-1.8,380.9-21.4
			c208.6-32.2,342.9-151.2,407-351c11.9-37.2,20.2-75.6,15.2-115.2c-5.6-43.7-15.7-51.3-59.6-49.7c-99.2,3.7-198.3,9.6-297.7,5.4
			c-14.6-0.6-26.2,0.3-25.2-21.1c0.9-18.7,6-23.7,25-22.9c102.7,4.5,205.3,0.3,307.9-5.3c48.8-2.6,81.1-28.1,100.6-70
			c19.4-41.7,13-82.6-13.1-120.5c-6.5-9.4-12.8-12.6-25.2-9.2c-43.7,11.9-88.7,14.5-133.8,12.8c-215.9-8.1-428.6,14.1-638,67.1
			c-15.9,4-25.4,5.2-30.7-15.8c-5.5-21.6,6.3-22.2,19.8-25.5c184.4-45.9,371.4-70.7,561.7-69.1c46.7,0.4,93.4,2,140,0
			c50.5-2.2,100.9-8.6,134.5-53.6c53.2-71.1,34.8-228.1-96.6-246.5c-151.7-21.2-301.1-10.8-448.4,31.2c-9.3,2.7-16.7,7.4-22.7,15.2
			c-25.4,33.3-59,56.3-97.4,71.4c-121,47.5-245.8,76.5-376.5,76.3c-14.6,0-21.7-2.6-20.6-19.4c0.9-13.9,0.2-23.2,19.6-23.1
			c107.9,0.5,212.2-21,314.2-55c34.6-11.6,68.7-24.4,98.1-47.1c29.5-22.8,49-52.1,60.7-90.3c-7.3,1-11.4,1.1-15.3,2.1
			c-104.9,27.1-196.5,5-271.7-74.9c-8.6-9.1-17.1-9.1-27.2-9.1c-64.5,0.1-129.1,1.8-193.5-0.2c-112.7-3.6-225.6-7.1-334.9-39.3
			c-15.4-4.5-21.1,4.8-28.4,14.5c-165.3,220.9-222.1,470.3-195.6,741.9c2.1,21.7,7.3,26,28.6,16c131.1-61.4,268.9-93.3,414.3-85.3
			c90.2,5,176.2,26,251.9,77.9c85.2,58.3,121.1,138.5,105.2,241.5c-11.1,71.7-40,136.3-76.4,198
			C864.3,2587.3,850.1,2609.1,835.2,2632.9z M638.1,379.3c-66.8,4.6-186.4,40.8-248.2,80.9c-122.5,79.5-203.3,189-221.9,336.6
			c-15.4,122.1,8.8,241.6,35.1,360.1c14.2,63.7,54.9,107.6,113.5,135.3c35.4,16.7,72.5,28.6,110.7,36.9
			c110.9,24.2,223.7,28.3,336.5,29.2c156.2,1.3,312.2-5.2,468.2-11c120.3-4.4,240.5-10.3,360-28.1c125.2-18.7,214-83.9,270.7-195.3
			c76-149.3,93.2-305,47.8-466.6c-43.4-154.5-141.2-251.3-302-280.2c-18.9-3.4-27.4-0.7-29,20.2c-1.7,21.8-6.4,43.6-11.4,65
			c-25.4,109.3-71,208.7-148.5,291.1c-103.2,109.7-234.3,158.8-381.7,167.3c-112.2,6.5-220.2-11-317.6-71.4
			c-110-68.2-158.8-179.3-137.3-307C592.6,485.4,613,432,638.1,379.3z M1971.6,736.7c116.8-34.9,231.6-56.4,351.1-34.2
			c126.3,23.5,211.2,103.2,233.2,221.2c8.9,47.7,12.6,95.9,11.3,144.4c-3.5,137.4-10.4,274.7-21.4,411.7
			c-6.4,78.7-18.5,157.1-58.9,227.1c-9.9,17.1-8.3,28.6,0.8,45.3c86.9,158.6,59.7,334.1-127.6,414.9
			c-61.5,26.6-124.1,50.6-189.4,65.9c-99.1,23.1-193.7,15.7-279.6-45.3c-48.9-34.7-83.8-81-111.3-135c-4.2,2.8-7.4,5.4-11,7.2
			c-19.2,9.6-26.8,20.6-13,42.3c10.9,17.1,12.1,38.6,11.6,59.2c-2.5,106.6-43.8,199.3-103.5,285c-28.1,40.4-28.9,40.1,16.7,61.9
			c175.9,84.1,358.3,140.9,556.2,129.1c111.4-6.7,215-36.5,301.9-111.5c75.6-65.3,121.9-149.4,154.9-241.3
			c74.7-207.9,97.2-425.8,117.3-643.7c13.9-149.5,23.6-299.4,33.9-449.3c6.8-99,19.1-197.8,17.2-297.2
			c-2.3-119.1-31.2-230.1-109.9-323.3c-92.5-109.6-213.1-168.3-353.5-185.3c-182.5-22.1-335.5,45.6-470.4,163.1
			c-6.3,5.5-10.2,10.2-5.7,19.4C1948.3,621.5,1961.8,678.3,1971.6,736.7z M1149.1,347.3c-38.2,0-76.4-0.3-114.5,0
			c-107.7,0.8-215.3,3.3-322.3,17.7c-13.3,1.8-20.7,7.2-27.2,18.6c-25.7,45.3-44.6,93.2-56.2,143.9C598.6,660.9,649,768,771.2,829.7
			c58.3,29.4,120.8,44.5,185.7,48.4c139,8.5,269-19.5,380.4-106.9c121.7-95.4,175.1-228.8,201.4-376.5c5.2-29.3-9.6-31.1-31.1-33.2
			C1388.3,350.1,1268.7,351.3,1149.1,347.3z M1259.8,1504.8c11.1-2.5,18.5-3.9,25.8-5.7c131-31.7,263.7-35.6,396.9-21.9
			c97.3,10,157.1,66.9,174,161.1c7.3,40.8,4.5,81.4-12.4,119.8c-6.2,14-2.7,18.2,11.1,21.9c68.6,18.4,137.9,28,208.7,17.2
			c101.2-15.5,178.9-65.1,224-159.6c16.1-33.8,27.6-69.2,35-105.9c23-112.6,29.2-226.9,35-341.2c3-58.4,8.4-116.5,0.8-175.3
			c-14.2-108.4-83.4-165.3-192.4-156.9c-54,4.2-104.1,21.3-154.6,39.1c-28.2,9.9-42.3,24.1-46.9,55.9
			c-11.5,80.5-41.1,155.3-84.3,224.5c-52.8,84.6-123.3,145.7-222.2,170.1c-53.6,13.2-107.9,22.7-162.9,26.8
			c-66.8,5-133.7,8.2-200.6,12.3c-10.4,0.6-22.9-1.7-21.7,16.3C1275.4,1436.6,1268.3,1468.9,1259.8,1504.8z M551.9,2087.8
			c-130.5,2.6-254,35.2-371.6,92c-11.4,5.5-14.4,12.1-11.5,23.9c29.3,119.6,85.8,222.7,183.1,300.4
			c122.2,97.5,267.7,120.9,417.8,128.8c9,0.5,13.7-4.3,18.5-10.7c50.6-67.7,92.5-140,115.7-221.8c30.7-108.4,2.9-186.9-86.9-244.8
			C736.7,2103.7,646,2089.6,551.9,2087.8z M1976.2,867c59.5-25.8,116.5-43.6,176.8-50.5c118.7-13.5,212.4,44.5,238.8,149.9
			c7,28,11.1,56.5,12.5,85.4c2.8,56.1-2.8,111.9-5.4,167.8c-4.8,101.7-12,203.3-30.8,303.4c-14.2,75.6-37.7,148.2-90.4,207.2
			c-87.6,97.8-201,121.7-325.8,111c-43.3-3.7-85.4-13.1-126.5-26.6c-12.8-4.2-21.3,0.1-29.2,8.9c-8.9,9.9,1.9,15.4,5.7,21.6
			c12.8,20.5,22.2,42.5,24.2,66.3c1.5,18.1,9.8,21.4,25.8,21.9c116.2,3.5,230.7-7.1,340.9-45.4c171.8-59.8,283.4-171.5,304.4-359.8
			c12.2-109.7,18.3-219.7,22.5-329.8c2.8-73.6,8.6-147.2,1.8-221.2c-11.7-127.5-75.1-204.2-198.7-230.9
			c-114.5-24.8-225.6-1.7-335.6,29.3c-8.2,2.3-11.5,7.7-11.3,17C1976.7,816.1,1976.2,839.8,1976.2,867z M2448.5,1768.4
			c-9.8,6.7-6.4,12.3-4,17.6c18.6,41.2,22.7,84.6,20.8,129.2c-2.6,62.2-37.6,96.5-100,97c-16.1,0.1-32.2-0.1-48-4.3
			c-16.7-4.4-27.2-0.9-35.8,16.9c-30.2,61.9-76.4,96.3-149.2,78.7c-10.3-2.5-16.6,1.3-23.4,9.6c-24.4,29.4-57.2,38.3-93.8,32.9
			c-57.6-8.5-89.1-44.6-102.5-113.3c-3.5-18.2,3.8-44-10-52.9c-14-9-37.6-3.5-57-3.9c-24.1-0.4-40.7,24.2-32.1,47.2
			c41.9,111.9,153.5,185.9,272.7,178.2c110.4-7.1,211.1-47.1,306.2-100.6c58.1-32.6,90.7-85.4,98.4-152.1
			C2498.2,1883.8,2479.4,1824.9,2448.5,1768.4z M2093,2000.1c-0.6-10.4-1.2-18-1.4-25.7c-0.3-10.5-4.5-15.7-15.8-13.3
			c-36.6,7.6-74,9.2-111.1,12.9c-6.3,0.6-14.4-0.6-13.9,10c1.6,34.9,3,70.2,27.4,98.3c19.1,22,45,26,72.3,20
			c24.4-5.4,33-24.3,35.8-46.9C2088.6,2036.1,2090.9,2016.8,2093,2000.1z M2407.8,1811c-32.3,29.3-65.3,52.7-100.7,72.8
			c-10.4,5.9-15.1,69.6-6.2,77.5c1.8,1.6,4.5,2.7,6.9,2.8c21.9,1.7,43.4,9.4,65.5,5.8c19.6-3.2,41.4-8.2,45-30.9
			C2424.9,1897.3,2427.1,1854.9,2407.8,1811z M2255.5,1953.1c0-9.2-0.2-12.7,0-16c1.6-19.5-2-28-24.7-18.1
			c-25.5,11.1-52.7,18.4-79.6,25.7c-12.4,3.4-18.6,7.1-17.7,21.8c1.7,27,1.8,54.2-3.4,81.1c-0.9,4.5-3,9.7,2.6,13.5
			c12.4,8.4,66.2,2.6,77.6-10C2237,2021.7,2260.3,1990.4,2255.5,1953.1z M990.3,1401.4c59.6,61.7,167.8,59.8,232.3,31.9
			c14.5-6.3,8-20.5,7.6-31.7c-0.5-14.8-12-11.3-20.6-11.1c-66.8,2-133.6,4.1-200.3,6.5C1002.8,1397.2,995.5,1395.2,990.3,1401.4z"/>
		<path class="st0" d="M2195.8,1330.4c0.1,58.8-43.6,104.2-100.9,104.6c-56.7,0.5-103.5-46.3-103.5-103.4
			c0-57.2,46.8-103.8,103.6-103.4C2151.3,1228.7,2195.7,1273.7,2195.8,1330.4z M2154.5,1331.7c0-33.6-25.4-59.6-58.8-60.2
			c-34.7-0.6-61.2,25.4-61.2,60.1c0,34.7,26.4,60.7,61.1,60.2C2129,1391.2,2154.4,1365.2,2154.5,1331.7z"/>
		<path class="st0" d="M1964.7,1716.2c-58-0.1-103.2-45.5-102.7-103.3c0.5-58.1,44.5-101,104.1-101.2
			c56.3-0.2,101.4,44.6,101.7,101.3C2068.2,1670.2,2022.1,1716.3,1964.7,1716.2z M1904.9,1613.5c0,34.6,26.7,61.2,61,60.7
			c32.2-0.5,59.7-28.4,59.7-60.5c0-33.8-27.9-61-62-60.5C1930.5,1553.8,1905,1580,1904.9,1613.5z"/>
		<path class="st0" d="M2191.5,1151.3c-56.6-0.1-101.7-44.6-102.3-100.9c-0.6-56.8,45.8-103.3,103.2-103.3
			c57.4-0.1,103.9,46.2,103.5,103C2295.6,1107.2,2250,1151.4,2191.5,1151.3z M2193.3,1110c33-0.3,59.1-26.6,59.4-59.8
			c0.3-34.5-26.4-61.3-60.7-60.9c-34.2,0.4-60.4,27.7-59.4,62.2C2133.4,1084.5,2160.2,1110.4,2193.3,1110z"/>
		<path class="st0" d="M730.3,2352.7c0.1,73.8-58.9,132.8-132.5,132.5c-73.4-0.2-132.8-60.3-131.9-133.5
			c0.9-72.7,59.2-130.9,131.6-131.3C671.1,2220,730.2,2278.9,730.3,2352.7z M687.6,2352.9c0-51.1-39.3-89.9-90.6-89.4
			c-50.1,0.5-87.7,38.9-87.7,89.4c0,50.4,37.7,88.9,87.7,89.5C648.2,2442.9,687.6,2403.9,687.6,2352.9z"/>
	</g>
</g>
</svg>
