<?xml version="1.0" encoding="utf-8"?>
<!-- Generator: Adobe Illustrator 23.0.0, SVG Export Plug-In . SVG Version: 6.00 Build 0)  -->
<svg version="1.0" xmlns="http://www.w3.org/2000/svg" xmlns:xlink="http://www.w3.org/1999/xlink" x="0px" y="0px"
	 viewBox="0 0 3000 3000" style="enable-background:new 0 0 3000 3000;" xml:space="preserve">
<style type="text/css">
	.st0{stroke:#000000;stroke-width:10;stroke-miterlimit:10;}
</style>
<g id="Layer_1">
</g>
<g id="Layer_2">
	<g>
		<path class="st0" d="M1878.6,1932.8c-218.2-1.7-393.2,4.2-568.3,13.3c-241.7,12.7-483.6,12-725-8.4
			c-55.9-4.7-111.2-13.7-166.6-22.9c-93.7-15.5-163.9-64.6-221.4-138.2c-148.5-190.3-174.1-497.7-56.1-703
			c47-81.7,109.1-146.6,203.9-172.2c75.7-20.4,148.2-7.4,219.2,21.2c91.8,37,169.7,95.7,246.1,156.8c9.2,7.4,18.7,14.1,28.6,20.5
			c19.1,12.3,37.2,10.2,54.1-2.5c129.7-97.2,278-153.5,432.5-195.5c86.9-23.6,175.4-34.2,265.4-26.2c101.7,9,190,52.1,272.7,108.9
			c30.3,20.8,61.1,40.6,92.7,59.3c67.5,40.1,149.4,32.3,202.4-25.8c64.7-70.8,151.8-102.8,243.4-121.3
			c108.5-22,215.7-17.7,316.1,34.2c139.5,72.2,218.9,191.1,249.2,342.1c43.1,215.2-42.7,401.4-237.3,523.8
			c-109.2,68.7-230,103.5-356.9,121.3C2194.5,1943.4,2015,1931.8,1878.6,1932.8z M1850.9,1881.4c154.8-1.3,334.5,11.4,513.3-13.1
			c130.1-17.8,253.2-54.4,362.1-129.8c174.7-121,241.7-307.6,179-503.6c-42.9-134-123.9-239-262.8-278.4
			c-169.7-48.2-326.4-15.4-458.6,107.9c-19.5,18.2-40,33.9-65.3,43.2c-65,24.2-126.7,14.7-185.9-18.3
			c-36.9-20.6-72.2-43.9-106.7-68.4c-124.5-88.5-262-115.1-410.8-85.8c-179.3,35.2-347.1,98.4-496.4,206.2
			c-32.2,23.2-67,24.2-101.9,5.5c-17.8-9.5-33-22.8-48.7-35.4c-74.3-59.5-150.9-115.6-241.4-148.3c-94.3-34-184-29-263.6,38.5
			c-36.4,30.9-63.5,69.4-85.6,111.4c-50.2,95.5-65.6,198-58.4,304.2c8,117.9,44,226.4,114.1,322.7
			c48.9,67.3,111.4,111.2,195.5,125.1c64.3,10.6,128.6,19.5,193.6,24.5c216.2,16.7,432.8,17.5,649.2,7.1
			C1456.4,1887.6,1641.2,1878.7,1850.9,1881.4z"/>
		<path class="st0" d="M1578.1,1455.8c17-23.1,31.3-43.4,48.8-61.2c23.3-23.8,50.8-37.4,84.5-39c26.3-1.3,52.4-3.1,78.8,0
			c45,5.2,78,27,97.8,67.6c25.8,52.7,40.3,109,49.4,166.6c2.8,17.5,8.1,22.6,27.3,21.1c161.2-12.6,311.4-62.5,455.8-132.3
			c46.2-22.3,91.8-45.7,135.1-73.1c12.3-7.8,18.2-6.1,25.4,6c16.9,28.7,17.6,28.7-12.4,45.9c-144.2,82.9-294.7,150.4-458.5,183.9
			c-91.8,18.8-185.2,25.4-278.6,30.8c-146.7,8.4-293.6,10.1-440.6,10.1c-153.1-0.1-306.2,0.6-459-9.9
			c-80.9-5.6-161.5-13.7-240.2-34.3c-127.1-33.3-221.7-113.1-302.4-212.4c-25.4-31.2-47.7-64.6-67.9-99.4c-5.8-10-8.3-17.1,5.3-21.5
			c2.6-0.8,4.8-2.8,7.2-4.1c24-13.7,23.6-13.5,38.2,10.4c67,109.7,151.2,201.8,270.3,256.1c65.7,29.9,136.8,39,207.7,46.9
			c95.1,10.7,190.8,12.4,286.3,16.4c18,0.8,24-2.8,22.6-22.2c-4.3-59.3,6-115.8,36.7-167.8c26.5-44.9,63.4-73.5,116.3-81
			c44.9-6.3,89.8-6.7,134.4-1.5C1506.4,1364.9,1549,1399.4,1578.1,1455.8z M1384.9,1630.9c0-0.1,0-0.2,0-0.4
			c51.9,0,103.8,0.1,155.7-0.1c7.6,0,17.7,3,17.1-11c-2-44.2-2.3-88.7-20.3-130.4c-19-44-49.1-75.6-99.2-80.9
			c-36.5-3.9-73.3-3.3-109.9-0.4c-39.3,3.2-67.9,23-88.1,57.4c-27.9,47.5-33.8,98.6-30.7,152.1c0.7,12.6,7.4,13.9,17.7,13.8
			C1279.6,1630.8,1332.3,1630.9,1384.9,1630.9z M1725.7,1628.6c0-0.8,0-1.7,0-2.5c49.7-2.6,99.4-5.5,149.1-7.5
			c12.7-0.5,16.3-3.2,13.8-17.1c-8.5-46.3-20.1-91.7-36.8-135.7c-6.2-16.2-13.7-31.8-27.5-43.3c-28.7-23.9-121.9-25.6-150.3-1.6
			c-31.2,26.3-52.6,60.1-69.9,96.8c-2.4,5.2-2.3,10.4-1.5,16.2c3.5,26,6.8,52.2,5.3,78.5c-0.8,14.6,5.4,16.9,18.3,16.6
			C1659.3,1628,1692.5,1628.6,1725.7,1628.6z"/>
	</g>
</g>
</svg>
