<?xml version="1.0" encoding="utf-8"?>
<!-- Generator: Adobe Illustrator 23.0.0, SVG Export Plug-In . SVG Version: 6.00 Build 0)  -->
<svg version="1.0" xmlns="http://www.w3.org/2000/svg" xmlns:xlink="http://www.w3.org/1999/xlink" x="0px" y="0px"
	 viewBox="0 0 3000 3000" style="enable-background:new 0 0 3000 3000;" xml:space="preserve">
<style type="text/css">
	.st0{stroke:#000000;stroke-width:10;stroke-miterlimit:10;}
</style>
<g id="Layer_1">
</g>
<g id="Layer_2">
	<g>
		<path class="st0" d="M2165.5,1519.4c0,264.3,3.6,528.6-0.9,792.8c-5.6,326.3-239.4,594.3-561.7,642.1
			c-181.4,26.9-360.4,12.9-520.5-90.8c-199.7-129.4-311.1-313.5-312.8-552.1c-3.8-528.5-3.1-1057-0.5-1585.5
			C770.7,400,1013.4,125.7,1338,81.3c129.6-17.8,260-14.6,386,30.5c268.9,96.4,441.7,345.7,442,639c0.3,256.2,0.1,512.4,0.1,768.6
			C2165.9,1519.4,2165.7,1519.4,2165.5,1519.4z M1256.6,2182.7c0-79.1-0.4-158.1,0.4-237.2c0.2-15.7-3-21.3-20.2-21.2
			c-131.8,0.8-263.5,0.8-395.3,0c-17.3-0.1-20.2,5.5-20.1,21.2c0.6,120.1-0.4,240.1,0.5,360.2c2,259.1,170.6,489.6,416.3,572.4
			c84.8,28.6,171.9,31.3,260.1,30.8c81.6-0.4,160.8-12.6,235.1-45.9c225.7-101.1,354.7-274.7,375.2-521.9
			c11-132.7,1.8-266.3,3.6-399.5c0.2-16.3-7.5-17.1-20.1-17.1c-115.7,0.3-231.3,0.8-347-0.4c-21.3-0.2-24.9,7-24.8,26
			c0.7,147.1,0.1,294.3,0.7,441.4c0.1,16.9-4.3,24.8-22,22.2c-4.3-0.6-8.8-0.6-13.2,0c-15.4,1.9-20.6-4.6-19.9-19.9
			c1.1-23.4,0.3-46.8,0.3-70.3c0-124.4-0.6-248.9,0.6-373.3c0.2-21.9-6.2-28.1-26.9-25.9c-16.7,1.8-33.7,1.5-50.4,0.1
			c-19.1-1.7-28.5,3.1-25.6,24.5c1.8,13.7,0.3,27.8,0.3,41.7c0,142.7,0.1,285.5-0.2,428.2c0,6.7,4.1,17.9-4.4,19.3
			c-14.9,2.4-31.3,3.4-45.5-0.6c-9-2.6-4.1-17.1-4.1-26.2c-0.3-154.5-0.5-308.9,0.2-463.4c0.1-17.5-3.6-24.2-22.7-23.7
			c-51.2,1.4-102.5,1.4-153.7,0c-19.4-0.5-24.4,4.7-24.3,24.2c0.9,153,0.6,306,0.4,459c-0.1,36.5,6.5,30.8-32.5,32.8
			c-18.5,0.9-21.3-6.4-21.1-22.6C1257,2339.3,1256.6,2261,1256.6,2182.7z M1475.7,815.2c30.5-39.5,71.2-50.6,115.8-48.9
			c75.8,2.7,142.1,37.1,162.6,120.1c16.9,68.7,16.9,137.7,11.1,207.1c-1.2,14.7,2,18.5,16.7,18.4c103.2-0.6,206.5-0.7,309.7,0.1
			c16.7,0.1,20.8-4.7,20.7-20.9c-0.7-117.9,2.3-235.8-0.9-353.6c-6.6-243.8-117.5-426.6-332.4-542.2
			c-149.4-80.4-311.1-83.9-473-53.6c-255.6,47.7-458.7,274.7-480,533.1c-11.6,140.9-2,282.5-4.6,423.7c-0.2,13.4,6.8,13.3,16.4,13.3
			c113.5-0.2,227-0.4,340.5,0.3c15.9,0.1,17.8-5.9,16.7-19.2c-3.5-41.7-2.3-83.4,4.6-124.8c9.4-56.6,23.1-111.7,58.3-159
			C1309.4,739.9,1419.9,719.4,1475.7,815.2z M1464.7,1652c208.6,0,417.1-0.2,625.7,0.4c17.5,0.1,21.9-4.9,21.8-22
			c-0.6-147.1-0.8-294.2,0.1-441.3c0.1-20.1-6.4-24-25-23.9c-414.2,0.5-828.4,0.5-1242.6,0c-17.6,0-23.6,3.5-23.5,22.5
			c0.8,147.8,0.8,295.7,0,443.5c-0.1,18.2,5.9,21.2,22.2,21.1C1050.5,1651.8,1257.6,1652,1464.7,1652z M1465.5,1871.4
			c24.9,0,49.8,0,74.7,0c183.1,0,366.1-0.3,549.2,0.4c18.4,0.1,23.6-5.2,22.9-23.3c-1.3-38-1.8-76.2,0.1-114.2
			c1.1-22.1-5.1-28.1-27.7-28c-251.1,0.9-502.3,0.5-753.5,0.5c-161.8,0-323.6,0.3-485.5-0.4c-18.2-0.1-25.8,2.9-24.7,23.6
			c2,38.7,1.6,77.6,0.1,116.4c-0.8,19.5,4.1,25.6,24.8,25.5C1052.5,1871,1259,1871.4,1465.5,1871.4z M1361.9,1111.6
			c31.5,0,63-0.9,94.4,0.4c15,0.6,18.4-5.4,19.2-18.7c2.8-50-0.6-99.5-12.5-148.2c-8.4-34.7-17.7-69.4-34.4-101.2
			c-23.4-44.5-66.1-53.5-106.3-23.2c-14.9,11.2-26.2,25.3-34.7,41.8c-38.1,74.2-42.8,153.9-39,235.1c0.5,11.5,6,14.5,16.8,14.3
			C1297.5,1111.2,1329.7,1111.6,1361.9,1111.6z M1618.4,1111.6c24.8,0,49.7-0.5,74.5,0.2c11.4,0.3,16.8-2.2,18-14.9
			c5.2-59.9,5.4-119.3-4.2-179c-14.3-89-83-103.2-143.1-95.9c-38.3,4.6-62.9,38.1-54.9,75.4c14.2,65.9,25.1,132,20.2,199.7
			c-0.9,11.8,3.8,15,15,14.7C1568.7,1111.1,1593.5,1111.6,1618.4,1111.6z"/>
	</g>
</g>
</svg>
