<?xml version="1.0" encoding="utf-8"?>
<!-- Generator: Adobe Illustrator 23.0.0, SVG Export Plug-In . SVG Version: 6.00 Build 0)  -->
<svg version="1.0" xmlns="http://www.w3.org/2000/svg" xmlns:xlink="http://www.w3.org/1999/xlink" x="0px" y="0px"
	 viewBox="0 0 3000 3000" style="enable-background:new 0 0 3000 3000;" xml:space="preserve">
<style type="text/css">
	.st0{stroke:#000000;stroke-width:10;stroke-miterlimit:10;}
</style>
<g id="Layer_1">
</g>
<g id="Layer_2">
	<g>
		<path class="st0" d="M709.7,1264.3c-118.9-42-133-144.7-99.7-237.7c9.3-25.9,23.2-49.5,41.8-69.9c7.4-8.1,6.7-12.4-1.3-20
			c-27.2-25.8-41-57.5-38.9-95.7c1.1-20.7-8-39.6-12.2-59.3C550.2,546.3,629.8,357,833.8,226.5C949,152.9,1076.4,112,1210.1,90.1
			c193.9-31.7,386.9-27.3,576.2,28.1c196.9,57.6,372.9,152.2,511.3,307.6c92.5,103.9,147.8,223.8,160.5,364
			c16.5,182.8,29.8,365.7,24.1,549.3c-3.8,123.9-8.7,247.7-15,371.5c-6.3,125.1-14.6,250.2-22.8,375.2
			c-5.3,80.3-12.2,160.5-25.8,239.9c-16.1,93.9-66.8,171.8-122.7,245.5c-132.2,174.1-302.2,295.5-513.1,357.1
			c-80.3,23.5-162.8,34.9-246.2,38.5c-115.4,4.9-230.7,10.4-346.3-1.7c-247.3-26-457.8-212.3-510.8-455.8
			c-26.7-122.6-17.9-243.5,24.6-361.6c5.1-14.2,6.8-27.2,2.8-42.4c-9-33.7,1.6-66.7,7.9-99.5c15.6-81.3,27.8-162.9,23.1-246
			c-0.9-16-2.8-32.1-6.1-47.8c-8.9-42.6-25.7-76.5-71.3-95.4c-47.3-19.7-66.9-65.8-75.4-114.2c-14.4-81.9,0.7-154.8,70.6-208.6
			C671.4,1281.5,689.8,1274.4,709.7,1264.3z M1901.4,1526.7c-3.4-187.3-13.2-340.9-28-494.3c-13.1-136.1-85.7-221.6-211.5-267.1
			c-82.3-29.8-167.4-39.1-253.8-33.8c-157.4,9.7-301.1,58.6-426.6,156.2c-21.6,16.8-45.5,26.5-72.6,30.2c-26.7,3.7-52.8-4.2-78.9-3
			c-95.6,4.4-183.7,98-184.2,193.5c-0.3,52,23.8,85.6,73,102.9c18.6,6.6,37.6,10,57.1,13.1c32.8,5.1,65.8,1.3,98.5,4.8
			c17.3,1.8,32.2,9.2,31.5,29.6c-0.7,18.3-13.6,26.3-30.6,28.5c-32.6,4.2-65.4,7.2-97.8,12.5c-105.2,17.4-155,78-144.2,177.5
			c4.1,38,13.9,78.1,53,94.2c49.1,20.2,75.3,56.3,89.6,103.8c13.2,44,15.3,89.4,14.6,135.1c-1.3,85.1-18.2,168.1-33.7,251.3
			c-6.7,35.9,4.4,63.3,36.5,79.1c117.3,57.8,234.4,115.8,357.2,161.8c127.1,47.6,257.1,54.1,385.5,15.3
			c191.2-57.8,302.3-190.1,337.1-387.1C1898.5,1786.1,1901.5,1639.9,1901.4,1526.7z M718.2,2408.8c0.3,71.5,24.5,158.8,69.4,235.6
			c82.8,141.7,203.2,232.9,366.8,261.6c154.7,27.2,310.5,18.2,464.9,1.3c273.5-29.9,487.5-166.1,649.4-385.9
			c40.7-55.2,77.3-113.9,94.3-181.5c13.3-53,17.5-107.7,22.2-162.1c7.7-90,14.1-180.1,19.2-270.2c8.6-151,16.2-302.1,23.2-453.2
			c10.1-217.9,1.1-435.2-20.1-652.4c-10.4-106.7-42.6-203.5-105.9-289.7c-103-140.4-243.1-231.4-400.2-299.6
			c-14.5-6.3-13.3,5.3-14.8,12.1c-21.8,101.8-42.8,203.7-65.1,305.4c-2.7,12.5,0.2,17,11.1,21.6c47.8,20.4,92.7,46.4,133.7,78.4
			c77.1,60.2,135.3,133.7,156.9,231.5c5.4,24.5,8.5,49.6,12.7,74.4c19.1,111.9,29.9,224.6,31.4,338.2c1.7,128.9-2.9,257.7-8.8,386.4
			c-4.4,97.1-9.7,193.8-32.8,289.2c-32.7,135.1-76.9,264.5-157.8,379.1c-87.8,124.4-202.9,210.1-353.4,241.7
			c-86,18-173.5,15.1-261.2,12.8c-152.2-4-298.3-34.6-440.6-86.4C846.4,2473.1,782.9,2442.2,718.2,2408.8z M2113.9,1460.5
			c7.1-217.1-0.8-324.9-31.1-535.4c-12.9-89.7-47.8-166-114.9-226.9c-45-40.8-96.1-72.3-151.5-96.9
			c-90.3-40.1-185.3-62.8-283.2-73.6c-120.4-13.2-238.9-7.7-354.1,34.4c-84.8,31.1-167.6,66.8-250.3,102.9
			c-68.1,29.7-133.9,63.9-194.8,106.7c-24.6,17.3-48.9,35.4-65.1,61.7c-13.3,21.6,4,66.7,28.1,74.2c4.6,1.4,8,0.1,11.7-2.3
			c52.8-36,110.8-46.3,173.6-38.1c27.6,3.6,52.1-6.2,73.4-24.6c22.9-19.6,47.7-36.7,74.2-51.3c120.7-66.7,249.1-107.9,387.5-112.2
			c111.8-3.4,221.1,10.2,321.4,64.5c78.9,42.7,141.2,100.7,166.6,190.5c14.6,51.4,21.4,104.2,26.2,157.2
			c12.1,132.6,15.6,265.5,19.4,398.5c4.3,150.8-1.7,300.9-27.4,450c-23.5,136.5-82.6,252.3-194.5,337
			c-157.8,119.5-335.8,140.6-522.6,95.8C1049,2334.7,909,2252,763.9,2183.2c-13.3-6.3-17.3-5.6-21.1,8.2
			c-11.7,42.6-19.4,85.9-25.2,129.7c-2.7,20.4,3.6,30.7,21.8,40.7c248.3,136.4,514.2,189.5,795.6,168.7
			c142.7-10.5,261-72.3,352.1-181.7c133.9-160.7,190.5-352.8,211.8-556.4C2110.7,1679.6,2111.8,1565.9,2113.9,1460.5z M650.1,773.3
			c66.2-60.1,140.9-100,217.2-136.6c92-44.1,186.6-82.3,282-118.6c8.9-3.4,15.9-5.4,15.2-18.2c-6.7-110.4-12.8-220.8-18.6-331.3
			c-0.5-10.1-2.1-13.3-13.1-10.5c-122.6,31.4-238.2,77.8-336.6,159.8C652.7,437.4,612.8,590.8,650.1,773.3z M1384.9,297.5
			c0-52.4-0.1-104.9,0.1-157.3c0-9.8,0.4-17.7-13.9-16.6c-53.7,4.1-107.2,8.8-160.3,18.3c-11.5,2-15.1,6.4-13.8,17.8
			c1.9,16.6,2.5,33.4,3.4,50.2c4.8,89.3,9.8,178.7,14,268c0.7,14.8,4.5,18.9,19.6,14.5c43.1-12.5,87.4-19.6,132.2-20.5
			c16.7-0.4,19.2-6.6,19-21.2C1384.4,399.6,1384.9,348.6,1384.9,297.5z M1654.5,140.7c-5.3,114.3-10.5,227.3-16,340.2
			c-0.5,9.5,4.4,11.7,12,13.3c36.2,7.8,72,17,107,29.2c8.3,2.9,12.4,2.6,14.5-7.4c22-104.4,44.4-208.7,66.7-313
			c1.9-8.9,0.9-14.6-10.3-18.6C1772.3,164.9,1714.9,151.2,1654.5,140.7z M1595.5,305.8c-0.2,0-0.4,0-0.6,0
			c2.5-51.7,5-103.4,7.5-155.1c0.4-8.9,3.2-18.3-11.3-19.6c-46.7-4.2-93.4-8.3-140.3-8.8c-12.4-0.1-15,4.4-15,15.8
			c0.4,105.7,0.4,211.4,0,317.1c0,11.9,3.8,15.9,15.5,15.9c38.6-0.2,76.9,3.9,115,9.4c15.7,2.3,21.6,0.1,22-17.4
			C1589.6,410.6,1592.9,358.2,1595.5,305.8z"/>
		<path class="st0" d="M1408,1216.8c-64.2-1.2-116.2-54.7-114.9-118c1.4-64.9,55-115.9,120.5-114.6c62.6,1.2,114.1,54.3,113.6,117.1
			C1526.7,1166.3,1473.3,1218,1408,1216.8z"/>
		<path class="st0" d="M1001.9,2094.7c-1.5-62.2,48.2-116.6,116.4-117.4c63.9-0.8,115.8,51.8,116,116
			c0.3,65.3-51.9,117.9-116.7,117.6C1053.7,2210.6,1002.2,2159,1001.9,2094.7z"/>
		<path class="st0" d="M1266.4,1690.6c-34.2-0.1-59.7-25.9-59.1-59.8c0.6-32.8,26.4-58.1,59.2-58.1c33.2,0,60.4,27.5,59.7,60.4
			C1325.6,1665.3,1299.2,1690.7,1266.4,1690.6z"/>
	</g>
</g>
</svg>
