<?xml version="1.0" encoding="utf-8"?>
<!-- Generator: Adobe Illustrator 23.0.0, SVG Export Plug-In . SVG Version: 6.00 Build 0)  -->
<svg version="1.0" xmlns="http://www.w3.org/2000/svg" xmlns:xlink="http://www.w3.org/1999/xlink" x="0px" y="0px"
	 viewBox="0 0 3000 3000" style="enable-background:new 0 0 3000 3000;" xml:space="preserve">
<style type="text/css">
	.st0{stroke:#000000;stroke-width:10;stroke-miterlimit:10;}
</style>
<g id="Layer_1">
</g>
<g id="Layer_2">
	<g>
		<path class="st0" d="M2539.9,2054.4c50.7,25.7,95.8,55.4,135.8,92.5c97.8,90.6,134.5,201.6,108.4,332.2
			c-12.4,61.8-29.3,122.6-48.4,182.7c-44.5,140.2-139.9,223.2-282.8,251.3c-180.7,35.5-362.9,51.3-547.2,38.9
			c-207.3-14-405.9-62.9-595.2-148.7c-8-3.6-14.3-8.3-23.2,0.6c-68.3,68.1-154.1,95.9-247.4,106.4c-123.9,13.9-245.1-6.2-366.5-26.6
			c-63.8-10.7-126.3-26.5-186-51.4c-88.3-36.7-162.6-90.5-206.5-178.6c-48.6-97.5-45.4-198-13.7-299.3c14-44.7,32.4-87.8,57.4-127.7
			c4.7-7.5,7.8-12.4-3.4-18.5c-103.9-57.1-158.6-148.3-159.7-264c-1.6-176.9,30.5-347.2,134.1-496.9c7.6-11,21.7-22.3,21.2-33
			c-0.5-11.6-18.7-17.6-29.1-26.1c-115.1-94.6-170.6-217.1-163.8-364.9c7.7-167.1,30-332.5,76.2-493.9
			c25.1-87.8,65.2-167.7,122.7-239.3c149.5-186.5,437.7-199.9,603-26.4c13.6,14.3,20.7,13.2,35.6,2.6
			C1147,133.9,1354.3,80.1,1580.8,99.7c171.9,14.9,326.7,76.5,466.7,176.3c15.1,10.8,20.9,8.6,30.3-5.9
			c51.4-79.6,119.9-137.4,214.9-155.7c197.9-38,392.9,39.1,480.7,244.6c57.2,133.8,81.6,273.5,52.6,418.1
			c-22.1,110.4-47.5,220.5-114,315.2c-8.9,12.6-1.6,23.7,1.7,34.8c37.7,124.4,57.4,251.7,54.2,381.5
			c-4.3,171.4-44.9,331.9-153.1,470C2593.1,2006,2567.4,2029,2539.9,2054.4z M712.2,2160.8c6.8,2.5,9.9,3.9,13,4.8
			c152,44.6,306.4,77.6,464,95.8c213.5,24.6,426.9,26.5,640.1-3.9c162.4-23.1,321.5-59.4,473.4-123c80.6-33.7,158-73.7,222.1-134
			c117.1-110.1,169.3-251.1,187.2-407.3c12.1-105.5,5.4-210.2-13.3-314.3c-7.9-43.9-16.5-87.7-32-131.5c-4.9,4.1-8.6,6.9-11.9,10
			c-38.9,36.9-83.2,65.5-132.7,85.6c-8.3,3.4-19.4,17.2-27.3-3.2c-13-33.5-13.7-33.2,7.2-42.1c79.9-34.2,142.7-87.8,187.6-162.7
			c30.8-51.4,46-108.3,63.6-164.7c47.7-152.4,44.6-303.5-10.1-453.6c-23.3-63.9-55.4-122.5-106.1-169.1
			c-68.3-62.7-150.5-90.8-241.7-92.9c-76.4-1.8-148.8,13.4-209.1,64.9c-35.5,30.3-60.5,69-86.2,107.6
			c-100.6,151-130.6,316.6-104.8,494c7.4,50.8,29.2,95.8,69.5,127.5c75.2,59.3,157.7,60.6,240.8,18.3c62.4-31.7,76.9-92.9,41-153.2
			c-13.4-22.5-31-34.7-58-33.6c-20.3,0.8-40.8-0.8-60.2-8.3c-53.8-20.9-88.2-85.9-76.9-147.2c14-76.3,64.7-126.4,124-169.9
			c5.7-4.2,13.9-5.1,21.1-7.1c3.2-0.9,6.3-0.6,8.3,3.4c5.6,11.5-2.6,44.2-13,52.9c-37.3,31.1-72.5,64.2-87.3,112.6
			c-19,61.8,15,110.2,78.8,113c26.7,1.2,52.4,4.8,74.9,21.7c71,53.6,75.8,176,8.7,234.2c-87.8,76.2-233.2,79.8-325.1,8
			c-3.9-3-7.1-8.1-13.7-6.6c19.5,22.1,57.5,48,92.1,63c127.7,55.3,291.6-23.6,328.1-158c6.9-25.5,12.4-51.5,22.8-75.9
			c13.2-30.9,32.4-56.6,64.1-70.7c25.5-11.3,28.9-9.3,29.8,18.6c0.3,8.1,9.6,19.6-4,24.8c-27,10.2-39.5,32.3-47.8,57.2
			c-6.9,20.5-11.6,41.8-17.2,62.8c-32.3,121.1-175.6,220.3-300.4,208.9c-42.9-3.9-83.6-14.1-126.4-36.9c35.3,51.1,77.8,85,126.3,112
			c27.7,15.4,27.3,15.2,14.1,45c-4.9,11.1-10,13.6-21.3,7.7c-31.5-16.3-61.6-34.6-88.6-57.6c-7.4-6.3-15.3-10.2-25.2-11.9
			c-112.7-18.9-220.8-5.2-322.6,47.1c-81.8,42-149.1,99.9-196.9,180.4c-74.7,125.8-234.2,163.6-358.7,87.1
			c-7.7-4.7-15.2-8.4-24.4-8.8c-44.8-2.3-89.6-4.5-134.3-7.5c-13.2-0.9-19.8,1.6-19.6,16.7c0.2,12.1-2.7,24.3-4.9,36.2
			c-8.9,47.2-31.8,89.2-49,133.4c-9.2,23.6-16.3,47.4-17.7,72.9c-0.5,10,2.2,14.5,13.5,14.4c87.9-0.5,172.9,16.9,254.4,48.6
			c63.1,24.5,126,21.8,190.3,10.4c113.4-20.2,216.1-64.5,311-130.1c56.6-39.2,119.9-68.3,190.6-70.5c97.1-3.1,166,35.7,195.1,129.2
			c18.5,59.4,15.3,119,2,179.1c-11.6-2.7-22.1-5.9-32.8-7.5c-13.1-2-15.4-7-12.7-20.5c9.2-47.2,9.9-94.4-5.6-140.9
			c-15.7-47.2-46.8-77.4-96.4-86c-33.1-5.7-66.1-5.5-98.6,5c-48.8,15.7-94.3,38-136.2,67.5c-71.3,50.3-149.8,85.1-233.8,107.2
			c-73.1,19.2-147.2,34.9-223.3,22.4c-44.2-7.3-85.3-26.5-128.4-38.3c-102.3-28-204.9-38.4-308.3-5.9c-36,11.4-64.8,32-86,64.5
			c-32.9,50.6-66.7,100.8-107.8,145.5c-25.3,27.5-56,44.5-93.4,49.2c-47.5,6-97.8-15.9-118-52.4c-2.6-4.7-8.9-10.2,1.2-14.1
			c11.9-4.7,23.5-11.6,35.8-13.7c8-1.4,10.2,11.4,17.2,15.8c9.2,5.9,18.5,11.2,29.5,13.1c34.7,5.8,64.1-3.3,88.6-29.2
			c42.7-45.2,75.3-97.8,110.3-148.7c13.7-20,30.2-36.7,50.2-49.9c35.8-23.7,75.5-36.6,117.9-41.5c16.4-1.9,26.5-5.4,25.5-26.1
			c-1.2-25.1,5.6-49.9,14.6-73.5c12.7-32.8,26-65.4,39.6-97.9c31.7-76.4,17.8-139.6-43.2-195.4c-34.5-31.5-76.6-49.1-120.1-62.5
			c-45.9-14.1-93.1-27.1-141.6-17.4c-165.9,33.2-287.8,124.5-361.2,278.4c-39,81.9-54.8,169.9-68.8,257.6c5.6,1,10.9,1.2,15.7,2.8
			c27.1,9.3,54.8,15.6,83.3,17.5c94.2,6.1,177-19.6,244.5-88.1c52.5-53.4,81.7-119,99.9-190.2c1.6-6.3,2.2-13.4,9.7-12.8
			c12.7,0.8,27.1,0.5,37.3,6.5c8.2,4.8-1,17.3-1.7,26.4c-0.1,0.7-0.1,1.4-0.2,2c-31.3,120.5-93,218.5-209.1,273.5
			c-85.8,40.7-175.5,44.4-266,16.5c-17.6-5.4-20.6-0.2-21.3,15.4c-1.1,25.2,0.1,50.3,3.2,75.3c7,58.2,27.3,110.9,69.2,152.8
			c71.8,71.7,159.7,93.5,256.8,73.4c81.7-17,150-56.1,193.9-132.1c26.2-45.3,68.9-74.1,117.3-93.8c59.7-24.3,122.3-29.3,185.5-26.5
			c163.5,7.2,327.1,14.5,490.4,24.8c66.7,4.2,117.6-18.4,158.1-69.7c14.7-18.6,30.3-36.7,46.4-54.1c24.7-26.5,55.2-43.6,90.8-51.1
			c49.8-10.5,97,0.3,143.4,17.6c32.8,12.2,32.3,12,18.1,44c-4.9,11-9.7,14.9-20.8,8.4c-5.8-3.4-12.4-5.6-18.8-7.9
			c-95.9-34.4-151.7-15.8-204.8,55c-4.1,5.4-8.2,10.8-12.6,16c-24.3,28.6-50.2,55.3-84.8,72c-16.6,8-39,8.3-50.2,19.6
			c-11.8,11.9-7.7,35.9-15.7,53.2c-0.3,0.6-0.5,1.3-0.7,1.9c-28.8,71.7-103.8,113.4-171.2,95.2c-61.4-16.6-107.2-74.8-113.6-146.6
			c-1.1-12.1-4.3-16.2-16.3-16.6c-32.6-1.2-65.1-4.1-97.7-5.3c-78.6-2.8-157.2-12.8-236-2c-64.2,8.8-120.9,32.4-160.5,85.9
			C758.8,2106.1,743,2137.3,712.2,2160.8z M813.8,1255.5c0.5-4.4,1.2-7.1,1-9.6c-6.3-76.7-2.4-153.4,1-230.1
			c3.8-86.1,19.3-168.5,72.1-239.9c57.9-78.4,130.8-129,233-118.3c57.1,6,110.7-0.5,161.7-27.5c60.1-31.7,125.1-41.6,191.7-35.2
			c149.2,14.3,297.9,33,446.4,53.8c15,2.1,18.8-1.4,19.8-15.4c7.1-102.7,38.6-198,89.7-286.9c7.5-13.1,5.3-18.6-6.6-27
			c-181.9-128.5-382.7-190.2-606-170.3c-192.1,17.1-364.5,85.5-502.9,220.4c-240.5,234.4-335.4,524.3-307.4,856.7
			c1,12.4,6.2,12.3,15.7,10.2c27.4-6.1,54.8-7.1,82.9-3.7C742.4,1237.3,778,1244.6,813.8,1255.5z M949,2866
			c46.6,0.5,92.6-3.9,137.8-13.6c113.5-24.4,198.5-83.3,232.1-200c38.4-133.2-21.5-251.1-114.6-335.4c-4.8-4.4-10.7-5.4-16.9-6.1
			c-172.8-18.1-341.3-56.7-507.3-106.7c-14-4.2-25.3-3.5-38.6,3.1c-79.4,39.6-162.6,50.3-249.1,29.1c-11.3-2.8-16.3-1.2-22.2,9.1
			c-24.5,42.4-44.6,86.9-58.5,133.7c-24.4,81.7-26.6,163.2,9,242.9c37.4,83.7,106.5,132.5,188.3,164.5
			C650.3,2842,799.5,2855.1,949,2866z M1279,2321.1c46.3,54.6,78.1,110.7,93.1,175.6c7.3,31.4,7.3,31.1,40,33.9
			c87.9,7.6,175.9,13.9,264.1,17.6c121,5.2,241.8,2.7,362.6-2.8c131.6-6,262.6-19.6,392.9-39.1c98-14.6,195.3-32.8,292-53.9
			c7.9-1.7,15.3-3.4,16.3-14.5c6.7-71.3-4.8-137.9-47.9-197.1c-46.8-64.2-109.7-108-178.8-144.5c-12.3-6.5-21.2-6.3-33.2,1.5
			c-55.4,35.9-113.8,66.5-175.2,90.4c-261.6,101.6-534.3,141.1-813.5,142.4C1422.1,2330.9,1353.1,2325.8,1279,2321.1z
			 M2727.1,2503.6c-7.7,1.2-12.3,1.8-16.8,2.8c-105.4,23-211.6,41.5-318.5,55.6c-18.1,2.4-27,9.1-34.1,25.2
			c-15.6,35.4-36,68.4-56.9,101c-27.3,42.7-66,69.3-114.9,81.6c-45.7,11.5-92.3,16.4-139.2,17.4c-38.4,0.8-74.8-6.4-99.2-40.8
			c-5.1-7.2-9.4-4.7-15.1-1c-14.2,9.4-29.1,17.3-46.8,18.3c-36.4,2.2-71.7-4-106.2-14.8c-15.6-4.9-27.6-15.2-34.9-29.6
			c-16.6-33.1-28.3-67.7-24.7-105.4c1-10.5-0.6-14.1-11.9-14.4c-101.8-3.2-203.6-8.7-304.8-20.1c-20.4-2.3-23.5,5.3-24.6,22.2
			c-3,49.6-17.6,96.1-42.7,138.8c-7.6,12.8-5.9,17.2,7.4,23.2c208.8,92.8,427.6,138.6,655.7,142.8c98,1.8,195.5-5.2,292.6-17.4
			c72.6-9.1,145.3-18.5,214.9-43.5c67.6-24.3,119.4-66,152-130.5C2692,2648.8,2709.6,2577.8,2727.1,2503.6z M230.2,1248
			c24.4-38.5,40.7-77.2,47.1-119.3c15.6-101.9,29-204.1,45.3-305.8c23-143.6,66.4-280.5,137-408.6C500,341,564.2,313.2,642.9,311.2
			c67.4-1.7,133.6,10.4,198.9,25.9c19.4,4.6,32.5,1.6,46.9-12.2c11.6-11.1,12-16.7,0.9-28.2c-120.8-125.5-329-141.9-468.5-33.3
			c-78.8,61.4-126.7,145.5-159.6,238.7c-37.8,106.9-54.9,218.1-69.5,329.8c-11,83.5-23.5,166.8-16.3,251.5
			C180.6,1141.6,196.3,1196.3,230.2,1248z M677.6,508c-59.3-5.3-96.7,23.5-120.6,75c-12.3,26.5-23.6,53.2-30.9,81.5
			c-15.2,59-29.6,118.2-48.8,176.1c-14.1,42.6-24.3,85.9-29.6,130.6c-4.8,40.4-4.7,81.3-12.7,121.4c-17.4,87.1-49.5,169-85.1,249.9
			c-3.6,8.2-16.8,17.3-2.8,28c15.1,11.6,20.5-4.7,27.6-10.9c43-37.3,90.6-66.7,143-88.6c41.1-17.2,41.4-17.1,37.9-62.4
			c-17.9-234.2,30.8-453.2,149.9-656.2c7.3-12.5,24.6-28.3,18.2-37.9C715.1,502.3,693.2,508.7,677.6,508z M1347.7,1064.1
			c-107.4-8.9-203.5,67-221,173.2c-17.6,106.9,51.6,211.9,156.1,236.8c90.8,21.7,203.7-26.6,226.5-96.8
			C1333.4,1376.5,1258.3,1206.5,1347.7,1064.1z M640.3,360.3c-42.4,0.9-100,11.9-132.9,71.3c-30.5,55.2-58,112-78.8,171.8
			c-53.9,154.9-71.5,317.1-93.5,478.2c-8.8,64.5-22,126.8-56.3,183.1c-18.6,30.5-18.6,30.5,8,55.7c1,0.9,2,1.8,2.9,2.8
			c7.5,8.9,11.5,5.5,15.2-3.6c14-34.6,29.4-68.6,42.3-103.6c23.6-63.7,42.5-128.6,45.7-197.3c1.7-36.5,6-73,13.7-108.9
			c16.2-75.6,45-147.8,62-223.1c13.3-58.6,31.9-115,66.8-164.8c22-31.4,51.5-51.9,89.2-59.5c40.5-8.1,81-7.4,121,3.2
			c9.1,2.4,14.9,1.5,20.9-6.3c16.6-21.5,33.8-42.6,51.4-63.2c8.4-9.7,6.4-12.4-5.5-14.7C761.9,371.5,711.2,362.1,640.3,360.3z
			 M2309.3,2573.4c-83.7,8.5-164,16.5-244.5,20.6c-9.7,0.5-13.9,6.4-18.4,13.6c-16.6,27.2-33.8,54-53.8,78.9
			c-14.4,17.9-13.5,25.1,4.3,39.5c7.7,6.2,16.7,8.3,26.4,9.2c37.5,3.5,74.6-0.8,111.5-6.3c39.9-5.9,79.5-14.6,107.8-46.8
			C2270.3,2650.7,2287.9,2612.7,2309.3,2573.4z M1542,1263.5c-3.9-79.9-44.4-143.7-123.3-183.2c-10.5-5.2-16.6-3.8-23.6,5.7
			c-14.6,20-25.2,41.7-31.1,65.7c-21.5,87.9,33.6,167.5,121.4,172.2C1540.8,1326.9,1538.6,1331.2,1542,1263.5z M1993.1,2600.4
			c-70.9,0-139.3,0.2-207.7-0.2c-12.2-0.1-14.8,6.7-15.8,16.4c-2.7,28.2,5,54.9,19.4,77.6c10.1,15.8,32.5,14.1,50.3,16.9
			c11.3,1.8,22.9,2.4,34.4,3.1c12.8,0.8,23.9-3.8,33.6-12C1941.2,2673.3,1967.3,2638.1,1993.1,2600.4z M1377.8,2004.9
			c-44.2-1-46.9,3.1-29.9,45c5.4,13.3,13.1,25.3,22.8,35.8c31.8,34.3,72.4,41.3,109.8,18.3c29.1-17.9,46.6-44.1,54.7-77.4
			c2.8-11.6-0.8-13.6-11.2-14.1C1475.1,2010.3,1426.4,2007.5,1377.8,2004.9z M1579.6,1034.5c18.2-29.4,34.8-56.4,51.4-83.4
			c2.8-4.5,6.2-8.6,1.9-14.6c-19.1-27.2-37.9-54.7-57.8-83.6c-20.4,26.9-38.8,51-57.1,75.2c-3.2,4.2-7.3,8.4-3,14.4
			C1536.3,972.6,1557.4,1002.9,1579.6,1034.5z M1241.3,868.1c-8.7,16.5-14.5,32.9-24.6,45.8c-28.4,36.3-23.4,67.9,6.7,100.7
			c15.6,17,29.4,18.8,41.8-1.1c10.3-16.6,19.5-34,29.8-50.7c4.4-7.2,4.7-12.9-0.5-20C1276.8,918.8,1259.9,894.4,1241.3,868.1z
			 M1400.8,779c17.6-30.3,34.1-58.2,50-86.5c7.4-13.1-13.4-49.4-28.5-48.6c-22.2,1.3-44.7,3.6-65.9,11.2
			c-14.2,5.1-22.3,28.5-14.4,40C1360.8,722.4,1380,749.4,1400.8,779z M1481.5,894.2c21.7-29.6,41.6-56.8,61.5-83.9
			c-10.6-25-30-44.4-43.8-67.4c-1-1.7-2.6-3.2-3.6-4.9c-5.6-9.2-9.5-6.2-13.8,1.4c-14.3,25.3-28.8,50.4-43.5,75.4
			c-3.9,6.6-4.4,12,0.3,18.5C1452.3,852.3,1465.6,871.7,1481.5,894.2z M1024.9,813.3c-20.7,38.1-41.1,75.6-61.6,113
			c-3,5.5-2.4,9.7,1.9,14.5c13.4,15,26.2,30.5,40.6,47.4c11.6-22.3,22.1-42,32.3-61.9c30-58.3,29.9-58.3-9.2-110.5
			C1028.5,815.4,1027.8,815.2,1024.9,813.3z M1309.2,735.8c-13.7,26.9-25.4,50.3-37.6,73.4c-2.9,5.4-3.2,9.5,0.5,14.8
			c18.5,26,36.7,52.1,56.3,80.2c14.4-24.8,27.2-46.9,40.2-68.9c3.6-6.1,2.7-11-1.3-16.7C1348.5,792.2,1330,765.6,1309.2,735.8z
			 M1888.4,982.7c14.9-28.9,27.8-54.2,40.7-79.4c23.6-46.1,23.3-45.8-16.9-79.5c-8.7-7.3-11.7-4.6-16.4,3.1
			c-16,26.7-32.3,53.2-48.8,79.7c-3.8,6.2-6.4,11.2-1,18.2C1859.9,942.9,1873.1,961.6,1888.4,982.7z M1812,963.6
			c-14.8,24-28.3,45.9-41.7,67.8c-2,3.3-5.5,6.8-2.6,11.1c17,24.5,34.2,49,52.6,75.3c13.8-27.1,25.6-50.8,38-74.2
			c4.1-7.7,3.3-13.5-1.9-20.2C1842,1004.6,1828.1,985.4,1812,963.6z M1653.9,747.9c-14.6,19.4-28.3,37.6-42.2,55.7
			c-3.3,4.3-4.2,7.9-0.9,12.6c18,25.7,35.7,51.4,54.6,78.7c14.1-22.8,26.4-42.9,39.1-62.8c3.8-6,3.8-10.3-0.6-16.2
			C1687.4,793.9,1671.2,771.5,1653.9,747.9z M1576.6,766.5c14.2-18.7,27.5-36.5,41.1-54.1c3.9-5.1,3.2-8.9,0-14.3
			c-16.3-28.6-37.1-48.6-73.5-46.2c-10,0.6-14.8,3.5-18.4,11.6c-3.6,8.1-12.2,14.3-3.9,25.3C1540.5,713.6,1557.8,739.5,1576.6,766.5
			z M1959.7,955.1c-12.8,24.7-22.8,44.5-33.3,64c-4.4,8.1-1.5,13.9,3.3,20.2c13,17.3,28.1,33.5,38.2,52.4
			c14.4,26.8,35.5,31.1,64.4,26.3C1999.1,1068.4,1971.8,1017.6,1959.7,955.1z M1648.9,1133.3c11.8-19.5,21.6-35.8,31.5-51.9
			c26.4-43.3,26.4-43.3-3.7-82.5c-0.4-0.5-0.8-1.1-1.1-1.7c-5-8.3-9.3-8.2-14.4,0.3c-14.7,24.4-29.7,48.5-44.7,72.7
			c-3.4,5.5-5.2,10.3-0.6,16.5C1626.6,1101.2,1636.8,1116.3,1648.9,1133.3z M1098.9,918.9c-18.6,35.5-36.2,69.1-53.8,102.7
			c-2.8,5.3-3.2,9.8,1.3,14.7c10.4,11.4,20.4,23.2,32,36.4c17.2-33,33.3-64.1,49.6-95.1c3.2-6,3.2-11.2-0.9-17
			C1117.8,947.5,1109,933.9,1098.9,918.9z M1809.6,871.4c14.3-23.2,26.9-46.5,42.3-67.7c12.2-16.8,11.5-27.2-5.1-41.1
			c-27.3-22.7-26.2-24-45.4,7.6c-10.1,16.7-28.2,33.4-28.3,50.1c-0.1,18,20.9,33.1,32.9,49.3
			C1806.4,870.1,1807.3,870.3,1809.6,871.4z M940.1,1109.9c45.4-63.5,45.6-71.5,2.8-117.5c-0.5-0.5-0.9-1-1.2-1.6
			c-5.8-8.9-9.9-6.4-14.1,1.5c-10.7,20.3-21.7,40.5-32.8,60.6c-3.7,6.6-4.5,11.8,2.2,17.5C911.7,1083.2,925.7,1096.7,940.1,1109.9z
			 M1404.8,873.3c-7.2,12.2-13.4,22.6-19.6,33c-26.2,44.2-26.2,44.2,4.3,84.8c0.4,0.5,0.8,1.1,1.2,1.7c4.9,8.9,9,9.2,16.1,0.9
			c46-54,46.2-53.9,4.8-111.3C1410,880.1,1408.3,878,1404.8,873.3z M1093.2,820c14.3-27.2,26-52.1,40.3-75.5
			c8.8-14.4,7.2-25.5-4.9-34.8c-11.8-9.1-44.7-4-51.2,6.5c-26.2,42.1-26.2,42.2,1.9,83.9C1083.1,805.7,1087,811.2,1093.2,820z
			 M1720,672.3c-3.3,0.4-7,0-9.8,1.4c-18.2,9.5-23.2,34.1-10.7,51.2c10,13.6,20.3,27,29.6,41.1c6.3,9.4,10.3,10.6,16.5-0.2
			c10-17.6,20.7-34.8,31.9-51.7c4.6-7,3.4-10.9-1.8-17.3C1760.9,679.1,1741.9,673.1,1720,672.3z M1159.5,915.3
			c10.6-20.1,18.8-40.4,31.1-57.8c18.1-25.6,17.5-47.5-5.2-69c-1.5-1.4-2.5-3.2-3.6-4.9c-5.5-8.8-9.5-7.2-13.7,1.3
			c-6.6,13.4-11.7,28-20.8,39.4c-25.8,32.6-19.4,60.8,8,87.9C1155.8,912.7,1156.4,913,1159.5,915.3z M1479.7,979.6
			c-11.7,15.4-21.1,29.5-32.2,42c-9.6,10.8-5.5,14.7,5.2,20.1c26.8,13.5,50.1,31.9,70.7,53.7c3.5,3.7,7.7,13.9,13,7.5
			c5.9-7.1,18.4-15.3,10.1-27.6C1524.9,1043.7,1502.6,1012.5,1479.7,979.6z M1734.2,994.1c14.3-23.2,26.7-43.3,39.1-63.4
			c3.6-5.9,7.1-11.2,1.5-18.3c-9.3-11.6-18-23.7-26.6-35.8c-5.1-7.2-8.6-6.6-13,0.7c-11.1,18.5-22.5,36.9-33.9,55.2
			c-3.1,5-3.8,9.3,0.1,14.6C1712.2,961.7,1722.3,976.8,1734.2,994.1z M1736.7,1086.2c-18.4,29.9-34.7,57.2-52,83.8
			c-6.3,9.7,0.1,14.6,4.4,21.2c5.1,7.8,9.9,3.1,15.3,0.5c22.4-11,44.7-22.4,67.6-32.6c9.2-4.1,10.9-7.6,4.9-15.8
			C1763.7,1125.4,1751.3,1107.1,1736.7,1086.2z M925,891.8c21.9-40.3,43.7-80.5,65.7-120.5c4.7-8.5,0-14.8-5.2-19.7
			c-7.1-6.7-10.7,2.1-14.5,5.5c-22.2,20.1-40.5,43.4-56,69c-20.5,33.7-20.5,33.7,5.3,62.5C921.1,889.5,922.5,890.1,925,891.8z
			 M1053.3,1121.5c-9.3-11-19.2-21.8-28-33.5c-7.8-10.4-11.8-6.9-16.3,2.5c-6.9,14.6-14.7,28.7-21.9,43.2c-2.7,5.5-9.9,11-2.5,17.7
			c11.4,10.3,20.8,22.9,34.6,30.4c0.6,0.3,2.8-0.7,3.3-1.6C1032.5,1161.3,1042.4,1142.2,1053.3,1121.5z M1091.6,1374.6
			c-7.9-58.3-20-80-57.9-104.8c-5.8,10.7-11.3,21.4-17.3,31.9c-3.4,6-4.2,10.2,2.4,15.3C1043,1335.5,1066.6,1354.6,1091.6,1374.6z
			 M889.1,1211.3c4.9-9,8.7-18.6,14.8-26.4c15.2-19.4,11.4-34.4-8.2-47.5c-10.8-7.2-19.7-27-29.9-22.5c-10.4,4.6-4.1,24.6-4.6,37.8
			C860.4,1176.2,857.1,1201.3,889.1,1211.3z M955.6,1194.6c-3.4,6.3-6.5,11.5-9.2,16.8c-19.1,37-18.7,36.5,15.5,60.7
			c9.5,6.8,11.8,3.2,16.1-4.4c19.4-34.8,19.5-34.8-9.6-62C964.6,1202.1,960.5,1198.8,955.6,1194.6z M1276.5,690.3
			c-22.7,5.9-41.8,10.1-60.3,15.9c-13.7,4.3-18,13.6-8.9,26.4c8.6,12.1,17.3,24.1,27.3,38C1248.4,744.1,1261.5,719.1,1276.5,690.3z
			 M1588.5,1227.6c34.4-43.2,34.4-43.2,6-84c-2.3-3.3-4.6-6.7-7-9.9c-2-2.6-5.4-6.5-7.8-2.4c-5.6,9.9-17.9,17.7-11.1,32.3
			C1577.8,1183.2,1583.6,1204,1588.5,1227.6z M1163.8,1017.7c-15.6,30-30.7,58.7-45.5,87.6c-1.9,3.8-6.8,8.3-1.3,12.5
			c7.4,5.7,8.9-3,12-6.2c11.4-11.5,21.6-24.4,33.6-35.3c27.6-24.9,28-24.5,5.8-54.8C1167.6,1020.6,1166.4,1019.9,1163.8,1017.7z
			 M1075,1425.6c-29.5-23.5-54.2-43.2-79-62.7c-2.7-2.2-6-6.5-10-1.2c-3.2,4.2-3.2,8-1.1,13.1c19.2,46.9,23.4,49.9,75.3,50.8
			C1062.9,1425.7,1065.6,1425.6,1075,1425.6z M1845.2,693.2c11,10.2,18.5,16.9,25.8,23.8c21.7,20.1,29.3,18,39.8-9.8
			c2.3-6.1,1.5-9.6-4.7-9.9C1887.6,696.4,1869.4,689.5,1845.2,693.2z M1896.4,1078.6c-8.9,17.7-16.4,32.5-25.9,51.4
			c19.8-7.1,37.6-3.5,55-11.8C1915.8,1104.9,1907.1,1093.2,1896.4,1078.6z M872.3,988.6c5.2-9.2,9.5-19.1,15.9-27.4
			c13.7-17.9,7.3-30.2-10.1-41.6C871.7,942.2,870.1,964.8,872.3,988.6z M1091.4,1166.7c-12.6,10.7-17,25.8-25.2,38.6
			c-8.9,13.8-6.1,22.9,10.3,28.9C1079.4,1210.7,1088.1,1189.5,1091.4,1166.7z"/>
		<path class="st0" d="M2095.9,1626.5c-0.1-90.3,73.3-163.8,163-163.2c89.3,0.6,161.7,73.3,162,162.5
			c0.3,89.8-73.3,163.2-163.5,162.8C2167.8,1788.3,2096,1716.3,2095.9,1626.5z M2370.4,1625.6c-0.3-62.9-49.9-111.8-112.9-111.2
			c-62.9,0.6-112.5,50.4-112.1,112.5c0.4,61.7,51.5,112.2,113.4,112C2321,1738.6,2370.7,1688.1,2370.4,1625.6z"/>
		<path class="st0" d="M877.5,2706.8c-74.6,0.1-134.7-60.2-134.1-134.7c0.6-74.2,61.2-134.7,135.2-135
			c74.6-0.3,136.7,61.8,136.1,136.2C1014.1,2648.9,954.8,2706.6,877.5,2706.8z M878.5,2657.2c48.3,0.1,85.4-36.3,85.7-84
			c0.3-47.7-36.7-85.1-84.6-85.4c-47.9-0.3-85.3,36.5-85.6,84.2C793.6,2619.8,830.6,2657.1,878.5,2657.2z"/>
	</g>
</g>
</svg>
