<?xml version="1.0" encoding="utf-8"?>
<!-- Generator: Adobe Illustrator 23.0.0, SVG Export Plug-In . SVG Version: 6.00 Build 0)  -->
<svg version="1.0" xmlns="http://www.w3.org/2000/svg" xmlns:xlink="http://www.w3.org/1999/xlink" x="0px" y="0px"
	 viewBox="0 0 3000 3000" style="enable-background:new 0 0 3000 3000;" xml:space="preserve">
<style type="text/css">
	.st0{stroke:#000000;stroke-width:10;stroke-miterlimit:10;}
</style>
<g id="Layer_1">
</g>
<g id="Layer_2">
	<g>
		<path class="st0" d="M1010.2,476.3c9-15.4,17.5-28.4,24.5-42.2c36.4-70.7,100-91.7,174.4-76.6c40.2,8.2,78.4,22,115.1,40
			c9.5,4.6,17.4,4.8,27.1,0.7c195-80.9,398.2-117.6,609-110.5c158.2,5.3,311.6,35.9,459.9,91.6c11.9,4.5,20.3,3.8,31-3.7
			c33.4-23.3,68.5-44,107.4-57.1c65.7-22.2,124.1-7.9,176,36.2c26.7,22.7,48.4,50,65.8,80.4c30.4,53,61.2,105.7,84.7,162.4
			c12.3,29.6,20.6,60.2,23.2,92c6.1,76.3-25.2,132.5-92.9,168c-11.9,6.2-14.7,12.5-12.4,26.6c15.8,94.1,23.4,188.8,20.9,284.6
			c-2.3,86.5-13.2,171.8-27.4,257c-8.8,53-36.8,94.7-76.5,128.6c-14.6,12.5-11.7,17.4,0.9,28.5c80.7,71,132.1,158.8,148.8,265.7
			c19,121.4-7.8,232.2-79.5,331.9c-6.1,8.5-9.1,12.6,3,19.7c102.4,59.8,141.5,156.7,103.1,268.5
			c-43.3,126.4-126.6,217.7-254.4,263.5c-69.1,24.7-141.5,34.8-214.1,43c-112.7,12.8-225.2,5.3-337.8-2.5
			c-125.2-8.6-250.4-11.1-375.9-5.6c-109.9,4.8-219.4-3.2-328.6-15.2c-66.7-7.3-133.4-14.9-200-23.2
			c-63.6-7.9-118.3-33.9-160.4-83.4c-4.5-5.2-9.3-9.2-16.5-9.5c-81.5-4.3-163-8.9-244.4,0.8c-41.7,5-79.7,20.6-115,43.4
			c-55.6,36.1-113.5,67.7-179.8,78.5c-95,15.5-177.5-9.9-241.7-83.3c-45.5-52-56-115.4-49.8-182.2
			c14.5-156.8,91.7-277.2,215.9-370.1c3.8-2.9,7.8-5.6,11.6-8.5c0.9-0.7,1.4-1.8,4.3-5.3c-11.7,0.7-21.3,1.4-31,1.8
			c-41.8,1.8-83.2,10.8-125.4,7c-105.1-9.3-157.8-111.4-129.2-204.4c7.1-23.2,18.1-44.3,32-64.1c6.2-8.8,12.6-17.6,18-26.9
			c11.3-19.3,8.3-25.9-13.3-31.8c-12.1-3.3-24.5-5.7-36.3-9.7c-38.1-13.1-65.5-51.6-66.3-92.1c-0.8-39.2,25-79.1,61.1-94.2
			c9.4-3.9,19-7.3,28.5-10.9c17.3-6.5,20.9-14.3,14.6-31.7c-5.2-14.4-14-26.3-24.6-37.2c-20.9-21.5-41.7-43.1-62.4-64.8
			c-11.4-11.9-19.7-25.8-23.4-41.9c-5.8-25.4-0.9-47.7,20.9-64.2c8.6-6.5,17.4-12.8,26.5-18.5c20.7-13.1,30.5-32.2,29.7-56
			c-1.8-54.9-21.7-101.7-66.7-135.3c-23.4-17.5-41.2-37.9-36.6-69.1c4.9-32.7,26.4-52.8,55.8-65.1c21.2-8.9,44.2-10.7,66.6-14.3
			c36.9-5.9,63.9-25.6,81.7-58.2c4.3-7.9,6.5-13-6.4-15.2C109.4,893,51.5,802.6,35.8,699.5c-26.3-172.2,83.1-319,207-387.9
			c214.9-119.4,481.4-91.1,673.8,71.3C949.7,410.8,980.9,440.5,1010.2,476.3z M2407.6,1509.6c-36.1-0.2-71.7,4.1-106.8,12.5
			c-258.9,61.7-395.1,350.6-273.6,580.3c114.7,216.9,394.8,293.1,604.5,164.6c149.9-91.8,226.4-260.2,192.7-423.9
			C2784.2,1647.3,2610.5,1508.5,2407.6,1509.6z M816.8,769.8c-2,42.5-3.5,82.7-8.7,122.6c-13.9,105.1-31.6,209.7-42.9,315.2
			c-13,122,5,236.7,80.2,337.8c43.1,57.8,95.6,105.6,153.8,147.8c11.7,8.5,16.4,9.6,24.2-5.1c26.3-49.8,59.2-94.8,108.3-124.7
			c14.2-8.7,12.5-13.2,3.1-24.2c-98.2-115.4-155.7-247-163.7-400c-6.3-122.2-13.9-244.3-14.6-366.7c-0.5-82.3,3.2-164.4,31.4-243.1
			c3.2-9-1.2-13.4-5.8-18.9c-26.6-31.8-55.7-61.1-87.1-88.2C708.4,261,453.6,241.6,261.6,351.6c-107.6,61.7-213.3,195.6-179,361.6
			C107,831.8,206.8,896.5,320.2,862.4C394,840.2,439.4,779.2,432,710.9c-3-27.5-11-55.6-39.2-66.2c-42.7-16.1-71-45.6-91.3-84.3
			c-24.6-46.9-18.1-94.5,17.6-132.8c34-36.5,78-44.9,125.1-41.5c65.5,4.7,128.4,22.6,191.1,40.7c81.5,23.6,132.3,78.5,157,159
			C810.8,646.5,815.5,709.1,816.8,769.8z M598.7,1235.7c-43.4-23.3-71.7-57.4-79.7-105.7c-5.1-30.8-5.3-62.1-3.8-93.4
			c3.4-73.4,27.9-137.1,86.4-184.6c44-35.7,95.4-52,151.3-54.2c14.6-0.6,19.2-5.4,19.2-20.1c0.2-53.6-3.9-106.6-16.3-158.9
			c-18.6-78.8-63.4-133.3-144.1-153.7c-41.8-10.5-83.6-20.7-125.7-29.7c-26.4-5.7-53.4-7.8-80.5-4.2c-43.6,5.8-75.5,38.2-74.4,74.3
			c0.3,9.8,3,12,12.7,10.6c29.2-4.2,58.5-3.7,87.7,1.4c79.2,13.9,136.2,66.4,144.6,139.4c14.9,128.2-24.5,236.3-125.7,319.6
			c-40.9,33.6-86.2,60.5-130.7,88.8c-33.6,21.4-39.5,43.2-22.7,79.4c4.8,10.3,10.9,20,17.1,29.5c7.2,11.1,14.8,21.9,19.4,34.3
			c11.6,31.4,2.2,54.8-27.8,70c-23.8,12.1-30.2,33.4-16.9,56.8c7,12.4,17.1,22.2,29.8,27.9c38.9,17.2,47.9,48.6,43.9,87.2
			c-5.1,48.1-24,89.6-56.2,125.8c-25.7,28.9-16.3,57.1,20.9,67c25.7,6.9,37.8,21.2,36.5,47.9c-2,41.3-5.4,82.6-8.9,123.8
			c-3.4,40.5,5.5,53.7,45.5,63.4c29.9,7.3,60.4,9.9,91,10.1c152.4,1.2,304.8,1.8,457.2,3.3c13.9,0.1,18.6-4,20-17.6
			c4-38.8,11.1-77.2,24.6-113.8c4.4-12.1,1.5-17.7-8.6-24.4c-39-26.1-75.8-55-108.4-88.8c-12.3-12.7-20.7-15.9-38.2-6.6
			c-97.2,51.6-207.7,33.4-267.1-45.1c-51.6-68.3-64.6-145.7-42.8-228.4C540.9,1318.2,566.4,1275.6,598.7,1235.7z M1110.5,2251.4
			c-61-28.5-101.5-73.4-125.7-133c-3.6-8.9-10.4-11-17.4-12.7c-94.5-22.9-190.1-37.3-287.7-32.5c-62,3.1-123.7,10.8-179.8,38.7
			c-152.2,76-250.3,194-275.8,365.8c-8,53.9-5.8,107.4,26.5,154.1c45,65,110.4,89.7,187,86.2c59.6-2.7,112.6-28.4,161.9-59.1
			c48.2-30,96.3-57.9,153.5-65.5c72.9-9.6,146-7.2,219.1-3.7c13.1,0.6,15.7-1.1,9.9-13.8c-21.6-47.2-32.3-96.8-25.6-148.6
			c2.1-16.4-3-21.5-17.1-26.2c-177-58.8-358.6-6.8-478.2,137.7c-18.6,22.4-18.2,21.9-41.9,5.1c-9.7-6.9-9.1-11.7-2.4-19.8
			c17.1-20.9,34-42,54.1-60.1c141.6-127.1,302.9-162,484-103.2c11.8,3.8,17.2,3.1,23.1-9c18.2-37.4,47-64.8,84.8-82.2
			C1077.4,2262.8,1092.9,2258,1110.5,2251.4z M2298.7,2738.1c80.5,0.2,176.1-10.4,270.9-30.8c137.2-29.6,229.8-111.3,281.2-240.1
			c39.2-98.4,5.5-185.2-87.3-233.8c-8.9-4.7-14.1-4.5-21.4,2.9c-13.1,13.2-27.1,25.6-41.8,36.8c-8.2,6.2-10.7,12.8-11.1,22.6
			c-2.3,53.7-11.2,106.2-34.9,155c-37.3,76.9-94.4,128.3-181.9,141.8c-78.3,12.1-156.8,7.3-235.1,4.4c-149.3-5.4-298.6-7.8-448-3.2
			c-89.3,2.8-178.6,7.1-268.1,4.8c-107.1-2.7-197.3-40.6-266.3-124.6c-40.9-49.8-70-105.9-88.5-167.3c-3.7-12.1-9-15.4-21.5-14.6
			c-72.9,4.7-126.8,50.1-142.4,121c-5.3,24.3-5.4,48.9-1.5,73.4c12.9,81.6,62.2,185.3,197.1,199.5c63.8,6.7,127.4,14.4,191.2,21.5
			c107.4,11.9,214.9,19.8,323.2,15.4c98.9-4,197.8-4.1,296.8,1C2100.2,2728.4,2191.1,2736.6,2298.7,2738.1z M2134.2,1549.7
			c-8.7-1.2-12.1-1.9-15.5-2.2c-157.1-16-314.7-21.5-472.5-18c-123.5,2.7-246.7,8.2-369.1,28c-99.5,16.1-174.8,63.8-217.8,156.4
			c-49.7,107.2-66.3,220.2-47.4,336.6c20,123,101.5,168.8,198.6,184.1c8.9,1.4,13.5,0.6,10.8-10.8c-2.9-12.2-3.2-24.9-4.5-37.4
			c-7.8-72.4,2.5-143.7,16.1-214.4c14.6-75.7,46.1-142.5,111.9-188.3c50.4-35.1,108.7-46.6,168.1-52.3
			c150.8-14.4,301.6-18.4,452.1,4.1c9.6,1.4,13.9-1,17.9-9.4c15.2-32.1,34.7-61.5,57.2-89.1
			C2066.3,1604.8,2096.9,1577.2,2134.2,1549.7z M968.2,2061.1c-6.7-36.9-9.4-72.7-6.6-108.6c1.1-13.8-3.6-16.7-16.9-16.8
			c-154.2-0.7-308.4-1.9-462.6-3.4c-34.2-0.3-68.3-3.7-101.3-13.7c-55.5-16.7-76.1-48.7-70.2-106.6c3.7-37,6-74.1,9.5-111.1
			c1-10.2-1.7-14.6-12.3-17.3c-31.4-8-50.1-29.6-57.7-60.5c-6.8-27.9,1.5-52.3,20.5-73c28.6-31.1,45.5-67,48.3-109.6
			c1.2-17.9-3.3-30.2-21-38.9c-31.1-15.3-51.8-40.3-58.8-75.2c-6.6-32.8,10.3-68.8,38.2-81.8c18.6-8.7,20.4-13.2,9.5-31.1
			c-10.9-17.9-23.5-34.7-31.8-54.2c-22.9-53.7-10.1-97.5,38.4-129.3c33.6-22.1,67.9-42.8,101-65.7
			c91.8-63.6,140.4-149.9,141.6-262.3c0.4-40.3-6.3-78.2-38.2-106.4c-38.6-34-85.5-40.7-134.8-38c-8.1,0.5-9.3,3.4-4.2,10
			c11.3,14.5,24.2,26.7,42.2,32c18.6,5.4,32.9,16.8,44.9,31.5c40.4,49.3,42.3,133.4,3.4,188.7c-37.6,53.5-90.2,82.9-154.1,93.1
			c-7.2,1.1-13.3,1-16.3,10.2c-23.2,69.9-75.1,101.9-145.5,109.4c-16.1,1.7-32.3,4.5-46,13.9c-23.5,16-24.3,33.5-1.3,49.8
			c43.2,30.7,69,72.8,81.2,123.4c15.2,62.9,5,117.1-56.8,151.2c-20.8,11.5-22.9,23.9-7.1,42.3c21.1,24.5,44.3,47.2,66.5,70.8
			c16.6,17.6,30.6,36.9,36.7,60.9c9.2,36.5-6.8,67.5-42,80.6c-9,3.3-18.4,5.4-27.2,9.2c-22.2,9.6-35.9,32.7-34.2,56.3
			c1.7,22.8,18,43.4,40.5,50c11.5,3.4,23.4,5.1,35,8c29.6,7.5,47.2,32.2,45.1,62.5c-1.2,16.7-8.8,30.8-18.3,44.3
			c-14.7,21.1-29.6,41.9-37.9,66.9c-28.3,85.4,30.6,159.9,119.9,151.2c35.2-3.4,70.6-5.1,105.7-8.8c47.6-5,96.5-2.9,142.9-14.6
			C680.7,2014,823.5,2026.1,968.2,2061.1z M1208.9,2295.5c10.3,33,22.5,61.8,38.1,88.7c55.7,96.2,132.7,160.5,249.2,168.3
			c89.5,6,178.7,0.2,268-2.3c132-3.8,263.9-4,395.9,0c82.7,2.5,165.5,6.7,248.3,5c110.9-2.3,178.9-47.4,214.6-142.9
			c11.7-31.3,17.8-63.9,20-99c-22.8,10.1-43.4,19.6-64.2,28.5c-28.1,12-58.6,16.4-86.4,29.9c-67.6,32.9-137.4,60.1-213.2,66.5
			c-63.4,5.4-118.2-10.5-159.3-63.5c-61.6-79.3-148.6-106.2-244-109.4c-69-2.3-131.9,20.6-188.5,60.4c-27.5,19.3-55.3,38-84.3,55.1
			c-51,30.1-104.9,37.4-162.7,24.6c-45.9-10.2-82.4-37.6-121-61.5C1285.8,2323,1250.9,2305,1208.9,2295.5z M1417.8,1797.1
			c-61.7,17.8-112.7,73.5-131.9,145.1c-24.6,91.7-34.7,184.5-20.9,279.5c2.5,17.5,7.9,20.7,23,21.6c40.3,2.2,80.6,3.1,121,2.7
			c138.5-1.4,276.9-4.6,414.6-21.6c65.4-8.1,130.7-16.8,195.6-28.3c14.4-2.5,11.6-6.4,5.2-15.1c-36.4-49.4-61.9-103.8-75-163.9
			c-3.9-17.7-6.6-35.6-9.9-54.1c-3.1,1.6-4.9,2.2-6.3,3.2c-66.6,50.7-172.9,46.2-227.3-21.7c-6.6-8.3-10.4-3.8-15.7,0.6
			c-18.3,15.3-39.7,24.9-62.7,30.1c-40.9,9.2-82.2,6.2-123.4,2.4c-17.7-1.6-33.7-8.3-47.5-19.7c-24.7-20.4-34.1-48.4-38.5-78.8
			C1414.4,1852.2,1420.5,1825.2,1417.8,1797.1z M1610.1,363.9c-67.3,12.6-185.1,48.9-217.8,67.2c20.9,11.8,41.3,23,61.3,34.8
			c160.1,94.2,315.4,196,473.1,294.1c14.7,9.2,23.6,8.6,36.6-2.7c134.4-117,275.5-225.6,417.9-332.5c3.1-2.4,7.8-3.7,7.7-10.4
			c-233.4-82.2-472-104.5-716.2-61.8c46,16.9,69.2,48.3,66.4,91.7c-2.3,36.2-29.7,67.2-66.6,75.4c-36.5,8.1-74.6-10.1-92.2-43.9
			C1560.9,438.4,1570.5,400.8,1610.1,363.9z M2190.9,1511.2c13,0.4,57.1-18.3,71.5-30.6c101.3-86.8,178.8-191.3,232.9-313.3
			c5.3-12,4.7-18.2-7.6-25.1c-44.4-24.8-88.4-50.4-131.8-76.9c-12-7.3-19.2-5.9-29.1,3.1c-112.8,101.2-203.7,219-271.9,354.5
			c-5.5,10.9-2.5,15.4,6.3,21.2c23.5,15.4,47.4,30.5,69.5,47.9C2148.9,1506.3,2169.4,1509.4,2190.9,1511.2z M1426.6,1007.9
			c1.9,2,2.5,3.1,3.5,3.8c190.6,130.6,381.3,261,571.8,391.8c9.8,6.8,12.3,2.7,16.6-5.4c15.9-29.5,31.3-59.4,49.1-87.7
			c9.5-15.1,9.4-22.2-6.1-33.2c-81.1-57.4-161.1-116.3-241.5-174.7c-92-66.8-184.1-133.6-276.1-200.5c-6.5-4.7-11.6-9.8-19.1-0.3
			C1494.9,939.2,1461.1,973.2,1426.6,1007.9z M2443.7,994.2c-6.2-158.2-63.8-294.3-173.6-408.6c-8.7-9.1-14.2-10.7-24.7-2.2
			c-46,37.4-92.4,74.3-139.3,110.5c-10.6,8.2-13,16.2-9.8,28.8c12.6,50.4,24.4,101.1,36.3,151.6c1.9,8,5.4,13.7,13,18.1
			c82.9,47.9,165.5,96.1,248.3,144.2c3.9,2.3,7.3,5.8,12.9,4.5C2427.7,1036,2444.6,1014.8,2443.7,994.2z M1030,1250.7
			c117-74.6,231.1-147.3,347.3-221.3c-126.3-86.4-250-171.1-377.8-258.5C1005.8,933,1004.7,1091,1030,1250.7z M2299.6,1033.6
			c-43.1-25.2-84-48.9-124.7-72.8c-160.3-94-318.1-192-474.9-291.7c-12.8-8.1-17.8-7-24.7,6.7c-12.9,25.7-27.1,50.8-42.9,74.8
			c-8.5,13-5.8,18,6.4,25.6c105.7,65.9,210.9,132.5,316.3,198.8c78.5,49.5,157,99,235.6,148.3c5,3.2,9.7,9.3,16.7,1.3
			C2235.4,1092.6,2266.8,1063.9,2299.6,1033.6z M1644.9,638.8c-0.4-4.8-4-6.3-7-8.1c-33.5-21-67.1-41.7-100.4-63.1
			c-7.3-4.7-11.7-2.3-17.3,2.4c-107.1,90.2-182.7,201.9-227.5,334.5c-2.7,8-1.6,12.5,6.1,17.5c27,17.7,53.6,36.1,79.8,55.1
			c8.7,6.3,13.2,2.9,19.4-3.1c98.2-95,178.2-203.5,241.6-324.3C1641.6,645.9,1643.3,642.1,1644.9,638.8z M2768.2,1308
			c1.3-4.2,2.3-6.4,2.6-8.7c15.5-133.6,12.6-266.7-9.3-399.5c-2.1-12.6-7.6-8.9-14.5-5.1c-49.9,27.4-99.9,54.4-149.7,82
			c-50.2,27.8-98.9,58.2-148.6,90.4C2561.8,1139,2682.4,1198.4,2768.2,1308z M2488.1,989.6c82.1-49.4,163-94.6,245.2-137.7
			c29.7-15.5,59.9-30.1,87.1-50c19.7-14.3,32.5-33,39.3-56.4c11.9-40.7,2.8-79.4-10-118c-3.8-11.5-7.2-15.1-19.6-7.5
			c-33.6,20.7-68.3,39.7-102.6,59.3c-84.1,48.3-168.2,96.5-252.3,144.9c-5.7,3.3-13.3,4.9-10.1,15.6
			C2479.4,887.9,2484.1,937.4,2488.1,989.6z M2823.4,568.7c-0.7-1.7-1.2-3.5-2-5.1c-22.2-42.5-44.1-85.1-70.7-125.1
			c-5.8-8.7-10.3-4.2-15.9-0.6c-112,72.8-224,145.5-336.2,218c-8.1,5.2-10.3,9-4.6,18c20.5,32.5,37.4,67,50.4,103.2
			c4.2,11.6,8.7,9.1,16.5,4.5c27.8-16.5,55.9-32.5,83.9-48.6c89.3-51.3,178.6-102.6,267.8-154C2817,576.7,2823.3,575.8,2823.4,568.7
			z M2170.3,1166.3c-1.4-7-8-8.3-12.6-11.3c-171.2-108-342.4-215.9-513.7-323.7c-14.2-8.9-29.4-25.4-42.7-24.1
			c-15.2,1.5-20.1,25.9-32.2,38.1c-9.7,9.9-7.7,15.4,3.3,23.2c54.7,38.8,108.8,78.5,163.1,117.9c118.3,85.9,236.6,171.7,354.7,257.8
			c9.8,7.2,15.3,9,23.4-3.2c14.9-22.4,32.3-43.1,48.7-64.6C2165,1173.2,2167.5,1169.8,2170.3,1166.3z M2716.3,397.2
			c-38.8-36.9-81.6-54.3-133.7-40c-22.1,6-42.6,15.9-62.3,27.4c-77.4,45-146.9,101.1-217.8,155.2c-8.7,6.6-6.2,10.4,0,16.4
			c18.9,18.4,36.5,38.2,51.6,59.7c7.1,10.2,12.2,9.2,21.2,3.2c63-41.4,126.3-82.3,189.5-123.4
			C2614.8,463.1,2664.9,430.6,2716.3,397.2z M1144.2,1475.1c2.9-1.6,6.1-3.2,9.1-5c117.8-70.9,235.6-141.9,353.5-212.7
			c7.7-4.6,10.4-7.4,2.9-15.4c-16.8-17.9-32.7-36.6-48.4-55.5c-5.8-7-9.6-9.1-18.8-3.8c-115.4,66.8-231.1,133.1-346.9,199.2
			c-8.7,5-10.4,9.1-5.2,18.1c13.8,23.9,28.7,46.9,45.2,69.1C1137.8,1471.9,1139.5,1475.3,1144.2,1475.1z M1649.2,1370.4
			c-31.8-25.9-61.5-50.2-88.6-77.3c-8.5-8.5-14.3-8.3-24.3-2.2c-53.5,33-107.5,65-161.3,97.4c-64.1,38.6-128.3,77.1-192.2,116
			c-4.2,2.6-14.5,4.1-9.8,11.2c6.4,9.6,11.9,21.6,29.5,15.8c45.6-14.8,92.9-22,140.4-28.1c23-3,47.3-0.3,68.8-10.7
			c35-17,69.3-35.4,103.8-53.2C1559.2,1416.9,1602.7,1394.4,1649.2,1370.4z M2055.6,1493.6c-75.5-51.7-151-103.3-226.3-155.2
			c-7.9-5.4-13.6-3.8-21.2,0.1c-74.9,38.8-149.9,77.1-224.9,115.7c-20.4,10.5-40.7,21.3-61,32
			C1700.5,1482,1877.8,1482.1,2055.6,1493.6z M2340,1469.1c14.7-1.1,24.1-1.4,33.4-2.5c33.6-4,67-1,100.3,3.4
			c65.5,8.5,126.5,30.3,182.9,64.7c5.4,3.3,10.4,8.2,17.5,2c22.9-19.5,44.1-40.4,60.5-65.9c4.3-6.7,3-9.6-3.6-13.6
			c-82.6-49.3-165-98.9-247.4-148.6c-6.6-4-10.7-5.4-15.8,2.5C2432.2,1367,2391.2,1418.3,2340,1469.1z M1164.1,396.9
			c-19.9,0.7-40.1,4.6-57.9,17.5c-8,5.8-10.8,9.5-1.2,16.7c90.9,68.2,181.6,136.8,272.2,205.4c6.5,4.9,10.3,5.7,16-1.4
			c25.9-32.4,55.6-61.2,86.7-88.4c6.8-6,9.1-9.4-0.6-15.1c-70.7-41.6-141.5-83-218-113.2C1230.5,406.3,1198.9,397.3,1164.1,396.9z
			 M1357.1,681.2c0.5-5.6-4.1-7.3-7.2-9.6c-89.8-68-179.7-135.9-269.4-204.1c-7.8-6-11.3-4.5-16.1,3.6
			c-16.2,27.5-29.7,55.9-39.7,86.3c-3.7,11.2-0.6,16,8.3,21.6c89,56.5,177.9,113.2,266.5,170.2c7.4,4.8,11.2,5.9,16.4-2.9
			c11.8-20.2,24.9-39.5,37.4-59.2C1354.7,684.9,1356,682.9,1357.1,681.2z M1804.1,1763.5c-16.2,0-32.4,0.9-48.5-0.3
			c-14-1-19,3.1-17.9,17.7c2.6,34.7,3,69.6-7.5,103.3c-3.3,10.6-1.3,18,4.8,26.3c43.4,58.3,138.3,61.2,187.6,5.4
			c7.9-8.9,16.7-17.3,17.4-30.5c1.7-31.8,7.6-63,17-93.4c3.2-10.2,0.7-13.3-10-14.7C1899.7,1771.1,1852,1767,1804.1,1763.5z
			 M1619.1,1767.8c-47.2,3.2-94.5,5.2-141.3,13c-7.6,1.3-13.8,2-14.4,12c-1.5,28.1-3.9,56.4-1,84.4c4,38.2,22.3,55.3,60.4,57.8
			c23.3,1.5,46.8,2.1,70.1,0.8c61.9-3.4,93.9-34.3,100.8-95.5c2.4-21-0.6-41.9-0.2-62.9c0.2-11.8-4.8-13.9-15.2-13
			C1658.7,1766.2,1638.9,1766.8,1619.1,1767.8z M719.9,1204.6c-2.7-7-8.6-7.9-12.9-10.6c-57.4-35.8-87.9-98.8-78.1-161.8
			c11.9-76.4,57.6-130.2,126-146.7c8.3-2,11-5.4,11.4-12.8c0.4-7.2,0.6-14.4,1.6-21.5c1.2-8.2-2-10.6-9.8-10.1
			c-64.4,4-120.4,24.7-160.4,78.5c-39.2,52.7-41,113.4-37.9,175.1c1.1,22.7,4,45.2,17.1,65.2C601.8,1198,667.5,1219.1,719.9,1204.6z
			 M1250.3,888.6c12.2-29.4,23.5-57.7,35.8-85.5c3.5-8-0.3-10.5-5.7-13.9c-86.3-55-172.6-110-258.7-165.4c-9.3-6-12.3-4.2-13.2,6.1
			c-2.1,24.5-4.2,48.9-7,73.3c-1.2,10.8,2.3,17.2,11.6,23.4c40.9,27.2,81.1,55.3,121.6,83C1173.1,836,1211.6,862.2,1250.3,888.6z
			 M828.5,1597.1c-17.3-25.5-17.2-25.2-44.3-19c-52.5,11.9-98.3-0.2-132.3-42.9c-31.7-39.8-40.2-86.5-29.8-135.8
			c10.4-49.7,33.3-90.1,87.5-103c5.9-1.4,7.1-4.4,7.7-9.8c3.8-33.8,3.6-34.1-30.6-34.2c-3,0-6.2,0.6-9-0.3
			c-27.1-8.7-42.1,5.3-56.7,26.2c-41.4,59.4-69.1,122.2-55.3,196.6c8.9,48.4,27.2,92.6,69.3,121.7
			C698.3,1640.1,762.7,1630.3,828.5,1597.1z M1070.7,1345.5c1.1-0.6,4.3-2.2,7.4-4c28.5-16.4,57-32.9,85.5-49.3
			c83-47.7,166-95.5,249.2-142.8c10.6-6,13.4-10.6,4.8-21c-9.9-12-18.8-24.9-26.5-38.4c-6.2-11-11.4-9.8-20.7-3.8
			c-97.7,62.7-195.8,124.9-293.6,187.4c-38.5,24.6-38.5,25-16.6,65.9c0.8,1.6,1.5,3.3,2.4,4.8
			C1063.9,1346.5,1065.8,1347.5,1070.7,1345.5z M2752.5,1418.6c2-11.9,1.7-21.2,0.2-30.5c-4.9-29.3-19.6-53.7-38.4-75.9
			c-46.4-54.6-106.2-92.5-165-131.6c-8-5.3-10.7-2.6-14.2,4.9c-10.3,22.2-20.5,44.6-32.3,66c-6.3,11.4-3.3,15.9,7,21.9
			c46.4,27.1,92.3,55.2,138.4,82.9C2682.3,1376.7,2716.5,1397.1,2752.5,1418.6z M1433.6,1067.9c66.1,107.7,151.6,197.3,251.2,273.8
			c4.5,3.5,8.9,5.9,14.7,2.9c25.5-13.3,51-26.6,78.6-41C1661.5,1223.9,1547.6,1145.9,1433.6,1067.9z M1670.4,2283.2
			c-119.8,6.1-234.4,7.4-349.7,8.3c36.3,20.7,67.2,49.8,106.9,64.1c41.8,15,84.3,18.6,126.2,0.5
			C1594.6,2338.4,1630,2311.9,1670.4,2283.2z M719.2,1339.8c-19.2,3.6-31.8,14.8-40.5,30.7c-12.8,23.7-19.2,49.4-15.9,76.1
			c8.7,70.4,52.9,98.4,103.5,90.1c13.3-2.2,17.9-4.7,10-18.5c-22.1-38.6-38.4-79.7-47.2-123.4
			C725.4,1376.7,722.5,1358.5,719.2,1339.8z M2371.9,2374c-4.6-1.7-5.7-2.4-6.8-2.5c-112.4-11.1-209.8-54.7-291.3-133.3
			c-3.5-3.4-6.8-6.4-12.5-5.3c-17,3.4-34.1,6.5-55.4,10.5c66.7,24.1,118,61.6,158,114.8c12.3,16.3,29.9,25.7,49.4,30.9
			C2266.6,2403.3,2317.3,2389.3,2371.9,2374z M726.8,1152c10.4-74.2,20.6-146.7,31-220.2c-41.9,9.8-77.1,52.4-84.6,101.9
			C665.8,1081.9,685.5,1128,726.8,1152z M1615.1,436.8c-0.2,22.3,17.3,40.1,39.6,40.4c21.8,0.3,40.4-17.9,40.7-39.6
			c0.3-22.1-17.4-39.8-39.9-39.9C1632.6,397.6,1615.3,414.3,1615.1,436.8z M2082.6,854.6c-9.8-41.1-18.6-78-28-117.5
			c-23.8,20.2-45.7,38.9-69.1,58.7C2018.2,815.6,2048.6,833.9,2082.6,854.6z"/>
		<path class="st0" d="M2554.3,1812.8c1.6,84.7-67.1,157.7-150.3,159.6c-91.4,2-163-65.1-165.2-153.6
			c-2.2-89.9,70.5-159.4,150.2-161C2481.7,1655.8,2552.5,1722.7,2554.3,1812.8z M2396.9,1701.6c-64.2,0.3-114.5,50.5-114.2,113.9
			c0.3,62.9,52.3,114,115.3,113.3c62.6-0.7,112.1-51.4,111.8-114.3C2509.4,1751,2459.7,1701.2,2396.9,1701.6z"/>
		<path class="st0" d="M2022.3,380.6c46.1,0.3,83.2,37.6,83.2,83.5c0,46.4-38.2,84.4-84.8,84.3c-46.8-0.2-84.2-38-83.9-85
			C1937.2,416.3,1974.5,380.2,2022.3,380.6z M2021.4,503.8c22.3-0.1,39.9-18,39.7-40.2c-0.2-22.2-18.2-39.8-40.4-39.7
			c-21.9,0.2-40.2,18.7-40,40.3C1981,486.3,1999.2,504,2021.4,503.8z"/>
		<path class="st0" d="M1888.5,524.4c48.1,0,84.7,36,84.3,83c-0.4,46.6-38.3,83.5-85.6,83.2c-45.9-0.2-83.4-37.8-83.4-83.6
			C1803.8,559.8,1840.2,524.3,1888.5,524.4z M1887.9,567.5c-22.2,0.1-39.9,17.6-39.9,39.3c0,21.5,18.2,39.8,39.9,40.1
			c22.2,0.3,41.4-19,40.8-40.9C1928.1,584.1,1910.4,567.4,1887.9,567.5z"/>
	</g>
</g>
</svg>
