<?xml version="1.0" encoding="utf-8"?>
<!-- Generator: Adobe Illustrator 23.0.0, SVG Export Plug-In . SVG Version: 6.00 Build 0)  -->
<svg version="1.0" xmlns="http://www.w3.org/2000/svg" xmlns:xlink="http://www.w3.org/1999/xlink" x="0px" y="0px"
	 viewBox="0 0 3000 3000" style="enable-background:new 0 0 3000 3000;" xml:space="preserve">
<style type="text/css">
	.st0{stroke:#000000;stroke-width:9.9;stroke-miterlimit:10;}
</style>
<g id="Layer_1">
</g>
<g id="Layer_2">
	<g>
		<path class="st0" d="M1032.1,1310.1c-15.7,18.1-18.2,36.3-17.9,56.3c2.3,174.4,0.9,348.6-4.9,523c-2.4,72.3-26.9,134.5-72.1,188.5
			c-105.9,126.6-241.2,202.4-406.3,214.4c-120.3,8.8-171-54.1-151.2-173c11.6-69.5,44.5-125.5,101.6-167.2
			c11.5-8.4,22.3-17.9,34.2-25.6c86.9-56.6,115.1-139.9,108.1-238.6c-2.9-41-11.6-81.1-21.3-121c-4.9-20.3-13.5-23.7-32.9-21.5
			c-76.7,8.9-153.6,15.3-230.3-0.2c-102.9-20.7-154.8-83.1-156.8-187.5c-0.5-27.6-2.7-28.9-27.7-17.4
			c-34.6,15.9-54.4,56.1-50.6,101.3c2.8,33.1,16.2,63.1,26.1,94.1c8.3,26,12.6,52.1,6.7,79.1c-7.4,34.3-34.8,60.2-66.7,62.8
			c-7.3,0.6-17.2,2.7-18.5-7.3c-1.2-9.3-0.1-20.5,11.1-24.9c42-16.5,53.3-37.7,41.4-83.2c-6.5-25.1-15.9-49.4-23.6-74.2
			c-23.5-75.1-4.6-130.9,59.7-176.3c5.1-3.6,9.8-5.6,4.7-13.2c-21.9-32.9-15.8-69-10.5-104.7c3.5-23.4,4.6-46.7,2.3-70.1
			c-3.6-36.3-24-61.5-59-68.9c-16.8-3.6-18-14-16-25.5c2.4-14.1,14.4-8.2,22.5-6.8c43.1,7.5,77.2,46.1,83.7,92.3
			c4.5,32,1,63.3-3.2,94.9c-3.9,29.3-10.4,60.3,21.4,84.1c4-14.8,7.9-27.3,10.7-40.1c24.2-109,88.5-189.1,178.5-251.9
			c91.7-63.9,194.4-90.9,304.4-97.4c58.6-3.5,117-7.3,175.7,0.2c116.8,14.9,199.2,85.3,208.9,203.8c0.9,11.4,2.5,22.8,4.3,39.3
			c18.7-25.5,34.8-47.6,54.1-66.9c80.3-79.9,178.6-129.3,284-165.7c171.6-59.3,349-79.7,529.7-73.1c164.5,6,324.7,33.8,477.2,98.2
			c87.2,36.9,168,83.9,232.2,155.2c104,115.4,104.1,253.5-0.1,368.7c-74.5,82.3-169.5,132.9-271.8,170.9
			c-182.6,67.8-372,90.1-565.7,81.9c-165.4-6.9-326-36.5-478.7-102.7c-42.3-18.4-83.2-39.7-121.3-65.8
			C1123,1490.1,1053,1420.3,1032.1,1310.1z M2454.2,1041.7c-2.2,4.8-2.7,5.5-2.9,6.3c-45.6,212.4-166,359-377.3,422.4
			c-112.9,33.9-228.2,30-343.5,11.3c-87.1-14.1-172-34.3-250.1-77.4c-139.1-76.8-187.8-211.6-129-359c6.1-15.2,12.8-30.2,21.7-50.9
			c-91.9,48.2-170,102.6-212.6,194.7c-28.3,61.2-26.4,123.6,2.1,184.7c22,47.4,56.3,85.1,96.7,117.3
			c97.1,77.4,210,120.1,329.9,146.1c227.3,49.3,452.7,42.4,674.5-29.3c103.8-33.6,200-82.2,274.1-165.7
			c47.5-53.5,75.2-114.8,65.8-188.2C2591.1,1157.9,2528.9,1096.8,2454.2,1041.7z M978.5,1387c-6.3,7.8-10.9,14.7-16.6,20.6
			c-53,54.1-113.4,96.1-188.6,113.2c-41.7,9.5-84.3,12.9-126.7,17.4c-14.7,1.6-18.9,4.7-14.3,19.7c10.1,32.8,16.7,66.6,20.5,100.7
			c11.1,100-2,193-81.9,264.5c-23,20.6-48.1,39-73.2,57.2c-68.3,49.5-91.8,118.9-88.6,199.5c1.8,45.4,23.3,68.5,67.3,78.2
			c23.2,5.1,46.5,5.8,69.9,2.5c140.6-20.1,258.6-83.3,354-187.9c49.5-54.3,75.1-118.1,77.5-193.4c4.7-146.6,4-293.1,4.4-439.7
			C982.5,1423.4,986.4,1407,978.5,1387z M1458.9,960.6c-23.6,2.2-35.4,13.3-44.8,29.6c-18.5,32-34,65.3-44.5,100.7
			c-30.1,101.6,0.8,194.5,85.4,258.5c26.9,20.4,56.5,35.9,87.4,49c75.3,32.1,154.7,47.5,235.5,57.7
			c105.1,13.3,209.4,11.3,310.3-23.7c186.3-64.7,290.9-200.4,331.4-389.8c2.2-10.2,5.2-21.4-8.7-27.9
			c-26.5-12.5-52.5-25.9-78.6-39.1c-10.6-5.3-15.1-1.3-16.8,9.4c-4.2,25.9-5.6,51.8,4.3,76.7c15.4,38.7,14.9,76.6-3.7,114.2
			c-3.3,6.7-4.7,13.4-3.7,21.5c7.8,64.3-19,113.5-78.2,139.8c-59.6,26.5-122.4,25.2-185,14.7c-25.7-4.3-43.5-26.8-44.4-48.5
			c-0.9-21.4,13.8-37.5,42.5-45.9c23.5-6.9,47.6-9.6,72.1-7.1c12.1,1.3,19.5-3,20.1-16.1c0.6-12.8-6.4-18-18.4-18.6
			c-14.3-0.7-28.4,0.7-42.4,3.7c-16.5,3.6-33.4,4.7-49.9,1.9c-44-7.6-62-49.2-35.8-84.6c7.4-10,6.4-16.1,1.8-26.2
			c-20-43.8-4.8-84.2,38.8-104.3c15.1-7,31.5-11,46.9-17.5c24.6-10.4,37.7-28.7,38.8-56.2c0.6-15.6-3.9-22.8-20.3-24.1
			c-21.6-1.7-43.3-4.8-64.6-9.4c-19.7-4.3-27.2,1.2-30.4,21.8c-9.7,62.5-51.6,104.5-113.2,114.5c-14.3,2.3-16.8,6.4-15.2,20.5
			c3.9,34.4-14.1,65.5-42.5,78.8c-37.9,17.7-72.3-1.7-76.2-43.1c-0.6-6.7,0.4-13.6-0.9-20c-3.1-15.6-13.5-22.2-29.2-21.3
			c-17,1-16.8,13.1-16.4,25.3c0.7,23.3,6.8,46.8-6.3,70.3c9.9-0.7,17.4-1.6,24.9-1.7c81.7-1.1,149,29,197.1,95.7
			c31.1,43.1,27,92.7-10.4,130.6c-47.8,48.5-107.1,71.5-175.1,65.6c-55-4.8-109-17.4-161.4-35.1
			c-111.3-37.6-181.4-146.5-171.4-263.7C1413.1,1075.9,1429.4,1017.7,1458.9,960.6z M688.9,1386.2c-23.8-1.4-30.6-11.1-26.2-35.5
			c9-50.1-9.4-68.2-58.6-58.5c-43.5,8.6-78.9-0.1-108.1-34.6c-23.3-27.6-55.8-28.6-88-24.1c-22.2,3.1-16.1,26.3-22.6,40.4
			c-5.5,11.8,4.6,15.9,13.2,19.8c15.2,6.9,25.8,17.6,30.5,34.3c13.9,49.7,0.6,74.5-50,84.7c-27.4,5.5-18,25-20.8,40.7
			c-3.1,17,7.2,22,20.8,24c16.6,2.3,33.1,5.2,49.8,6.1c92.4,5.4,183.7-8.8,275.4-16.9c93.3-8.2,168.6-49.9,228.7-120.5
			c18.4-21.6,34.9-44.6,44.9-75.6c-48.3,9.7-94.3,10.6-143.7-3.6c5.4,17.4,9.5,30.7,13.8,43.9c5.3,16.4,6.2,33.1,0.7,49.2
			c-2.5,7.4-2.9,22.1-15.6,17.3c-9.4-3.5-19.4-10-15.3-26.7c8.3-33.7-5.6-69.6-23.8-91c-16.4-19.3-53.4-2.7-80,7.9
			c-5.4,2.1-9.9,6.3-15.2,8.6c-10.2,4.5-12.6,10.1-8.5,21.4C700.6,1327.2,697.6,1356.9,688.9,1386.2z M1725,1176.4
			c43.8,29.1,72.9,60.6,82.5,105.8c8,37.6-7.2,60.9-45.2,66.4c-62.9,9-119.5-9.9-170.2-46c-52.9-37.6-78.5-90.1-77.7-155.1
			c1.2-92.6,47-161.8,114.8-219.7c5.9-5,15-7.3,17-18.5c-39.8,5.7-77.6,15.9-115.7,25.3c-15,3.7-24.9,11.4-32.9,24.3
			c-31.1,50-47.7,104.9-56.4,162.4c-17,112.1,44.6,213.8,151.9,250.4c42.9,14.6,87.4,23.2,131.9,30.3c63.4,10.2,119.5-7.3,166-52
			c28.7-27.7,31.8-60.9,8.2-92.8C1857.9,1201.7,1801.7,1175.5,1725,1176.4z M794.7,993.5c-61.6-8.7-153.4-2.6-200.3,12
			c-13.3,4.1-20,7.4-15.8,25.4c8.1,34.7-11.1,65.5-45.1,80.4c-21.2,9.3-43.6,10.7-66.4,6.8c-7-1.2-14.7-5.3-20.3,3.5
			c-15.7,24.4-29.8,49.4-38.1,78.2c73,2.8,73,2.8,127,50.9c3.7,3.3,7.8,7.3,12.3,8.4c39.3,9.1,80.6,2.9,117.6-3.5
			c29.6-5.1,59.4-27.5,93.8-34.5C708.9,1136,744,1064.7,794.7,993.5z M327.1,1459.2c-0.8-74.5,12.3-141.1,30.5-207.6
			c31.9-116.9,85.9-215.8,205.3-269.7C521,986,469.6,1008,411.3,1046c-96.4,62.8-148.8,152.2-156.9,266.4
			C250.3,1371.5,267,1423.1,327.1,1459.2z M1745.1,897.1c-72.1,19.6-158.4,103.1-185.3,178c-47.8,133.3,47.4,255.7,189,243.1
			c27.8-2.5,35.1-13.7,24.4-40.4c-14.3-35.8-39.1-61.7-75.3-76.5c-16.7-6.8-34.7-8.8-38.6-35.7c-1.5-10.4-34.7-14.5-44.5-34.4
			c-4.9-9.9-8.7-19.8-9.8-30.9c-1.7-17.6-1.9-35.1-0.5-52.7c4-50.4,30.8-83.4,79.1-98.6c21.4-6.7,43.1-2.6,64.6-4.9
			C1747.1,928.5,1746.2,913.7,1745.1,897.1z M2108,1326.5c29.5,0.8,58.6-2,87.2-9c57.2-13.9,90.4-55.2,86.3-107
			c-4.1-51.5-41.1-84.6-100.1-90.6c-44.4-4.5-86.4,7.8-128.6,17.9c-18.2,4.4-43.4,10.9-37.9,34.8c5.7,25,31.1,19.1,51,16.4
			c21.4-3,42.5-9.4,64.6-4.5c28.6,6.3,44.5,26.1,41.7,53.4c-3,29.5-19.6,44.4-50.3,44.1c-21.8-0.2-43.7-0.9-64.7,6.2
			c-8,2.7-20.3,3.5-18.8,16.2c1.2,10.3,10.5,15.5,19.7,17C2074.6,1324.1,2091.4,1324.9,2108,1326.5z M1002.1,1156.1
			c1.6-91.2-47.5-159.7-128.5-182c-7.8-2.1-16.1-7.7-22.9,1.4c-34.1,45.3-73.7,87.4-82.8,146.9c-6.7,43.8,11.3,84.5,47.5,102
			c36.8,17.8,76.1,25.7,117,20.8c59.7-7.1,63.7-11.7,68.6-71.9C1001.6,1166.7,1001.9,1160,1002.1,1156.1z M2198.6,1036.1
			c-3.6-37.6-7-66.7-8.9-95.9c-1.3-19.4-17.2-16.1-27.8-18.5c-15-3.4-9.1,10.9-10,17.2c-4,27.8-14.6,51.5-38.2,68
			c-16.7,11.6-35.8,17.9-54.9,24.2c-13,4.3-25.2,9.8-33.3,21.2c-11,15.5-8.9,31.7-0.6,47.5c8.9,17,22.1,6,33,3.7
			c29.4-6.4,58.8-12.2,88.6-16.9c17.5-2.8,41,11.7,50.5-4.4C2205,1068.3,2198.6,1046.2,2198.6,1036.1z M1636,1073.7
			c-0.3,11.2-0.9,26.3,6.3,40.3c5.6,10.9,14.3,16.3,26.5,14.3c14.2-2.3,12.7-13.3,11.8-23.4c-1-10.8-3-21.6-3.5-32.4
			c-1.6-38.1,29.3-62.9,66.1-53.5c28.2,7.2,40.9,24.1,45.4,58.2c1.6,12.2-2.7,29.9,17.3,30.6c19.3,0.6,31.1-11.7,35.7-29.4
			c6.1-23.8-1.7-44.5-18.4-61.9c-20.5-21.3-46.7-31.5-74.9-37.4C1678.4,964.4,1636,998.8,1636,1073.7z M2292.8,1142.4
			c10.5-20.5,7.1-39.9-0.3-59c-10.7-27.7-15.2-56.2-11.5-85.7c5.2-41.8,5.2-41.8-36.3-54c-1.6-0.5-3.1-1.1-4.7-1.7
			c-13.7-5.3-17.5-0.7-16.1,13.6c3.3,33.2,7.7,66.4,5.9,99.8c-1.4,26.2,0.8,48.7,30.9,59.7
			C2272.3,1119.3,2280.8,1131.9,2292.8,1142.4z M1973.6,911.5c0.2-8,3.5-17.1-10-18.3c-12.9-1.1-12.2,8.2-14.1,16.1
			c-9.7,38.4-38.3,62.3-72.3,60.5c-34.2-1.8-54.9-23.6-59.7-65.2c-1.3-11.1-4.5-13.4-15.1-13.6c-21.9-0.5-27.7,10.2-24.7,29.7
			c3.3,21.5,66,82.5,87.6,84.8c0.8,0.1,1.7,0,2.5,0C1920,1008.2,1970.2,963.6,1973.6,911.5z M1884.7,888.6
			c-12.3,5.7-33.4-9.8-34.9,16.6c-1.1,18.3,12.9,31.7,31.3,31.3c19.6-0.5,37.8-16.5,36.2-34.1C1915,877.6,1894.2,896.7,1884.7,888.6
			z"/>
		<path class="st0" d="M1325.7,1935.9c36.1-34.1,32.3-66.8-9.1-89.1c-60.4-32.6-128.2-26.9-170.7,14.4
			c-47.9,46.6-61.1,123.5-27.7,182.6c43.6,77.3,110.9,128.2,195,152.3c78.3,22.4,159.5,30.9,241.2,22c60.2-6.5,112.5-32.7,157.4-72
			c60-52.5,74.6-122.6,43.9-196.1c-7.8-18.6-16.5-36.9-29.7-52.1c-10.7-12.3-4.1-18.2,4.7-26.3c12.5-11.4,15.4,1.2,20.3,7.4
			c85.9,108.7,64.2,241.9-51.9,317.3c-59,38.3-123.3,59.4-194.6,57.1c-55.4-1.8-110.5-6.2-164.8-16.8
			c-91.7-17.9-165.9-66.2-224.6-137.7c-59.9-73.1-63.6-161.1-13-235.1c69.6-101.9,203.1-77.2,259-23.6
			c21.8,20.9,27.6,47.8,17.3,76.4c-11,30.6-33.1,51.9-61.6,66.7c-9.3,4.8-19.6,6.5-28.3-0.4c-8.8-7-5.1-16.6-2.7-25.6
			c8.1-31,1.3-54.5-17.5-61.3c-23.2-8.4-56.7,8.8-68,34.8c-15.1,35-1.7,82.1,34.6,109.5c78.6,59.4,168.3,84,266.3,78.8
			c57.4-3.1,110.4-18.7,155.6-56c35.2-29,35.7-58.2,0.2-86.1c-10.9-8.5-6.7-18.6-3.7-26.5c3.5-9.5,12.7-4.5,19.5-1.7
			c49.1,20.2,57.2,91.2,14.1,130.9c-39.2,36.1-86.1,57.8-138.5,66.4c-114.1,18.6-220-4.6-316.7-67.6c-45-29.3-71.6-70.1-68.8-126
			c2.4-48.7,39.3-86.8,87.8-91.3c27.5-2.5,52.7,12.5,64,39.2C1319.3,1911.2,1321.7,1922.7,1325.7,1935.9z"/>
		<path class="st0" d="M2646.4,1944.4c22.5-3.9,40.5-8.5,58.7-9.9c44.1-3.4,73.9,19.7,83.2,62.8c16.4,75.1-22.8,142.3-97.5,159.4
			c-71.2,16.3-142.8,15.1-210.9-15.7c-95.2-43-150.3-140.9-141.4-250c0.7-8.3-3-21.7,14.3-20.4c15.7,1.2,19,9.6,17.8,23.5
			c-11.2,133.1,85.3,244.3,237.3,239.4c30.2-1,60.3-1,89.2-11.9c49.2-18.5,75.8-76.7,57.5-126.1c-7.2-19.4-20.3-29.4-41.7-29.5
			c-26.6-0.1-50.6,10.5-75.7,16.7c-13.7,3.4-27.3,6.5-36.6-6.8c-10-14.4-2.7-28.3,7.2-38.7c55.7-58.4,123.3-91.8,204.7-79
			c103.7,16.3,164.6,126.2,133.2,233.6c-23.5,80.4-76.9,136.6-153.5,165.3c-149.5,56.1-297.2,49.8-432.7-39.6
			c-110.9-73.1-155.1-182.6-146.5-314c0.5-8.4-4-20.8,14.2-19.6c16.4,1.1,18.5,8,17.6,22c-7.2,104,24.2,194,103.3,263.5
			c57.5,50.5,126.6,77.6,202.5,85.4c80,8.2,159.5,5.8,234.1-28.8c74.4-34.5,124.8-89.2,136.2-173.7
			c11.7-86.9-63.4-196.2-185.1-157.1C2703.5,1905.6,2673.5,1918.7,2646.4,1944.4z"/>
		<path class="st0" d="M2008,2110.6c40.9-2.5,47.7-8.6,45.2-45.3c-5-71.7-34.4-132.2-87.9-180.2c-9.7-8.7-14.1-14-4.6-25.9
			c11.1-14,18.4-5.2,26.4,2c54.9,49.8,86.9,111.7,96.5,185.1c0.8,5.8,1.3,11.6,2.1,17.4c0.1,0.5,1.1,0.9,4,2.9
			c27.8-34.9,30.6-74.4,21.1-115.3c-12.7-54.8-48.1-95-90.4-129.3c-12.9-10.5-14.1-17.9-2.8-29.7c5.9-6.1,9.5-7.2,16.3-1.6
			c52.7,43.5,97.6,92.7,110.1,162.8c17.7,99.4-36.3,175.7-135.7,193.4c-18.9,3.4-38.3,3.4-57.4,5.7c-17.4,2.1-28.4,8-19.8,29.6
			c9.6,23.9,16.4,49,24.5,73.5c3,9,7,18.5-6.6,21.9c-8.9,2.2-18.3,8.1-24.2-7c-6.6-16.7-22.1-27-35.3-38.6
			c-11.4-10-22.3-20.3-31.2-32.6c-34.2-47.3-23.2-89.9,29.3-114.3c10.6-4.9,22-8.8,31.4-15.5c18.5-13.1,24-32.6,17.5-53.5
			c-6-19.4-21.1-29.4-41.9-29.9c-3.3-0.1-6.7-0.1-10.1,0c-14.9,0.1-14.5-13.1-16.1-21.5c-2.6-13.6,10.9-10.3,17.5-11.1
			c32.6-4.2,68.8,18.3,80.1,48.8c12.8,34.3,1.1,73.7-28.8,93.5c-10.4,6.9-22,12.1-33.4,17.3c-41,18.6-44,46.5-6.2,78.5
			c-2.8-24.8-4.8-48.5,20-62.5c3.6-2.1,7.4-4.8,11.3-5.2c21.2-2.2,39.9-5.2,49.6-29.7c11.9-30.2,16.1-59.6,5.8-90.4
			c-11-32.6-32.4-57.4-63.8-70.4c-18-7.4-11.7-17.4-8-27.6c5.4-14.9,15.2-4.7,22.1-1.6c72.3,32.2,104.9,113.3,77.8,192.2
			C2011.3,2101.2,2009.8,2105.6,2008,2110.6z"/>
		<path class="st0" d="M444.5,1812.9c0,63.4-45.4,109.8-107.6,109.8c-61.9,0-109.5-47.9-109.5-110c0-62,47.9-109.9,109.7-109.8
			C399.3,1703,444.5,1749.4,444.5,1812.9z M414.1,1813.7c0.3-44.3-32.8-78.4-76.4-78.8c-43.6-0.4-78.4,33.6-78.9,77.1
			c-0.5,43.4,33.8,78.4,77.2,78.8C379.9,1891.2,413.8,1857.6,414.1,1813.7z"/>
		<path class="st0" d="M596.5,2172.5c-78.6-0.4-111.3-45.9-88.8-116.7c10.3-32.4,28-58.1,58.8-74.8c49.3-26.6,78.5-68,90.1-123.2
			c11.8-56.5,28.5-72.7,71.5-76.2c46.5-3.8,102.6,27.1,118.8,65.3c8,19,6,38-1,56.3c-23,60.2-50.3,118.4-82.2,174.4
			C726,2143.9,664.5,2168.9,596.5,2172.5z"/>
		<path class="st0" d="M902.8,1040.6c43.9,0.6,79.1,39.7,78.2,86.8c-0.9,48.7-36.9,85.2-83.3,84.4c-43.6-0.8-77.8-40.2-76.6-88.2
			C822.4,1075.6,857.4,1040,902.8,1040.6z"/>
	</g>
</g>
</svg>
