<?xml version="1.0" encoding="utf-8"?>
<!-- Generator: Adobe Illustrator 23.0.0, SVG Export Plug-In . SVG Version: 6.00 Build 0)  -->
<svg version="1.0" xmlns="http://www.w3.org/2000/svg" xmlns:xlink="http://www.w3.org/1999/xlink" x="0px" y="0px"
	 viewBox="0 0 3000 3000" style="enable-background:new 0 0 3000 3000;" xml:space="preserve">
<style type="text/css">
	.st0{stroke:#000000;stroke-width:10;stroke-miterlimit:10;}
</style>
<g id="Layer_1">
</g>
<g id="Layer_2">
	<g>
		<path class="st0" d="M1937.5,555.6c156.1,3.2,312.2,3.5,468.3,4.9c75.8,0.6,150.3,13.6,221.3,42.1
			c121.2,48.6,207.1,132,248.7,256.8c32.9,98.6,54.7,200.3,68.7,303.2c28.5,210.2-8.5,409.6-101.8,599.7
			c-43.9,89.3-97.2,170.7-173.9,235.3c-111,93.6-241,119.5-382,109.3c-214.6-15.5-429-35.2-644.1-43.3
			c-159.8-6-319.3-4.4-475.7,36.1c-96.5,25-184.4,70.8-275,110.2c-161.7,70.4-320.8,146.5-484.5,212.3
			c-36.6,14.7-74.5,26.2-114.2,22.9c-55.5-4.6-96.8-35.3-129.7-78.1c-46.4-60.3-68.9-130.9-83.1-204c-48.4-249-36-493.9,59.4-730.8
			c95.2-236.3,252.7-424.7,456.2-575.5C747.4,744.6,911.7,657.4,1095,610.4c105.1-26.9,212.9-38.5,321-46.6
			C1589.7,550.7,1763.6,552.8,1937.5,555.6z M194.1,1439.7c11.1-4.5,17.7-7.3,24.2-9.9c94.7-37.8,191.9-58,294.5-44.4
			c139.4,18.4,235.7,121.2,243,260.8c4.2,80.5-33.1,133.7-110.6,155.8c-23.2,6.6-47,11.9-70.9,15.6c-147.7,22.7-296.4,28.4-445.6,26
			c-17.5-0.3-23.5,4-23.2,22.1c1.5,95.6,5.5,191,25.4,284.8c14.7,69.3,34.6,136.9,80.9,193.1c34.3,41.7,77.1,58.8,131.1,44.4
			c31.8-8.5,62.4-19.8,92.3-33.1c192.5-85.2,384.8-171,577.3-256.1c13.2-5.8,15.5-13.5,14.8-26.2c-4.4-83.3-5.8-166.7-3.8-250.1
			c2.4-99.9,9.2-197.9,49.1-292.8c24.7-58.7,57.5-84.3,121.3-82.9c83.8,1.9,121.3,37.4,115.3,120.5c-0.2,2.1-0.3,4.3-0.5,6.4
			c-9.9,144.4-11.9,289.1-18.8,433.7c-0.5,10.3,0.6,15.6,13.6,13.9c77.2-10.2,154.8-13.1,232.5-11.5c18.5,0.4,22.7-5.4,21.7-22.9
			c-5.9-101.9-0.4-203.7,4.7-305.5c4.1-81.5,32-155.6,66.4-228.1c11.1-23.5,30.6-35.4,55.8-37.3c19.9-1.5,39.9-2.4,59.8-1.4
			c73.1,3.4,105.1,37.6,100.2,110.5c-10.6,154.3-15.8,308.9-23.7,463.4c-1.7,33.4-10.4,31.4,31.7,34.3
			c93.1,6.5,186.1,13.5,279.2,19.8c73.2,5,146.2,13.3,219.7,13.8c140.8,0.9,255.4-54.2,346-161.4c73.6-87,116.3-190,155.7-295.1
			c7.3-19.5,1.4-21.5-16.5-21.3c-98.5,1.2-196.7-4.3-293.8-22c-68.9-12.6-136.8-29.1-196.1-68.9c-43.4-29.2-66.3-69.7-56.1-122.3
			c17.8-92,68.9-158.4,159.3-189.8c50.2-17.4,103.1-21.2,155.7-25.2c87.7-6.6,175.3-3.5,262.7,4.6c18.9,1.7,23.6-3.2,19.9-21.3
			c-15.6-77.5-31.5-154.9-53.1-230.9c-13.3-46.9-32.7-91.2-62.6-130.1c-64.6-84.2-153.5-127.3-254.8-147.8
			c-96.6-19.5-194.6-12.2-292.1-13.4c-14.2-0.2-11.5,8.8-11.2,17.2c1.8,50.9-3.4,101.3-17.1,150.2
			c-46.5,166.8-158.8,270.9-318.2,328.2c-104.8,37.7-214,45.5-324.3,44.3c-95.7-1-189.4-13.2-276.4-55.5
			c-157-76.5-248.4-204.3-284.7-373.2c-4-18.6-7.7-24.4-27.8-15.7c-61.6,26.5-122,55-180.1,88.4
			C585.6,910.3,416.2,1059,290.7,1254.5C253.8,1312,220.2,1371.2,194.1,1439.7z M1804.8,611.3c-146.2-7.3-292.3-4.7-438,9.2
			c-100,9.5-199.6,22.5-296.4,50.6c-36.4,10.6-33.8,4.3-25.1,42.8c37.4,165.5,129.3,286.1,290,349c53.5,21,109.5,30.6,166.8,33.9
			c123.2,7.2,245,1.3,362.7-40.4c209.4-74.2,300.7-238.7,297.5-424.8c-0.2-14.3-2.3-21-19.6-20.8
			C2030,611.7,1917.4,611.3,1804.8,611.3z M258,1792c47.5-2.6,104.5-4.5,161.3-9.2c70.2-5.8,140.6-11.3,208.9-30
			c55.5-15.2,77.2-45.4,75.2-102.8c-3.2-96.1-59.4-170.8-150.8-201.3c-31.4-10.5-63.8-15.1-96.7-15.3c-99.1-0.6-190.8,28.2-278.2,73
			c-8.2,4.2-12.9,9.8-15.7,18.8c-25.1,81.9-44.3,164.9-51.3,250.5c-1.2,14.2,3,16.9,15.8,16.7C167.2,1791.5,207.8,1792,258,1792z
			 M2710.5,1199.7c-68.4,0.1-136.6,3.9-204.2,15.2c-83.9,14-136.8,62.6-160.7,143.1c-12,40.4-3.4,62,31.1,86.5
			c35.5,25.2,76.3,38,117.8,48.2c118.4,29.2,239.2,34.6,360.5,34.7c16.8,0,21.8-6.4,24.6-20.7c18.2-92,26.8-184.4,19.2-278.2
			c-1.2-14.6-6.1-18.8-19.8-20.1C2822.9,1202.9,2766.8,1200.5,2710.5,1199.7z"/>
		<path class="st0" d="M1661,875c-0.5,43.1-36.6,78.7-79.6,78.4c-44-0.2-79.6-37.1-78.6-81.4c1-43.3,36.8-77.5,80.6-76.8
			C1626.4,795.9,1661.5,831.9,1661,875z"/>
		<path class="st0" d="M1388.2,873.9c0.1,43.7-34.6,79.2-77.9,79.6c-43.6,0.4-80.7-36.8-80.1-80.2c0.6-43.2,36.1-78.1,79.5-78.1
			C1353.5,795.2,1388.1,829.9,1388.2,873.9z"/>
		<path class="st0" d="M1794.5,776c33.7-0.4,61.5,27,61.6,60.6c0.1,32.5-26.6,60.1-59.2,61.1c-32.8,1-61.9-26.6-62.8-59.8
			C1733.1,805.1,1761.1,776.4,1794.5,776z"/>
		<path class="st0" d="M1979.7,753.3c32.7-0.2,62,28.8,61.9,61.2c-0.1,32.5-29.5,61.3-62.1,60.9c-32.5-0.4-59.7-27.5-60.3-60.1
			C1918.4,782.2,1946.5,753.5,1979.7,753.3z"/>
	</g>
</g>
</svg>
