<?xml version="1.0" encoding="utf-8"?>
<!-- Generator: Adobe Illustrator 23.0.0, SVG Export Plug-In . SVG Version: 6.00 Build 0)  -->
<svg version="1.0" xmlns="http://www.w3.org/2000/svg" xmlns:xlink="http://www.w3.org/1999/xlink" x="0px" y="0px"
	 viewBox="0 0 3000 3000" style="enable-background:new 0 0 3000 3000;" xml:space="preserve">
<style type="text/css">
	.st0{fill:none;stroke:#000000;stroke-miterlimit:10;}
	.st1{stroke:#000000;stroke-width:10;stroke-miterlimit:10;}
</style>
<g id="Layer_1">
</g>
<g id="Layer_2">
	<path class="st0" d="M1491.3,1317.7"/>
	<g>
		<path class="st1" d="M2514.9,962.5c110.7,84.7,193.9,186.7,241.8,315.4c31.8,85.5,42.1,174.7,41.7,265
			c-1,213.3-10.4,426.1-49.9,636.4c-24.7,131.4-61,259.5-121.8,379.3c-37.8,74.4-84,142.9-149,196.8c-78,64.6-167.4,98.3-268.9,104
			c-51.2,2.9-99.9,23.3-151,30.8c-102.6,15-205.3,19.4-308,5.4c-26.1-3.5-44.2,8.3-65.8,16.2c-67.9,24.9-138.8,35.9-211,35.9
			c-71.2,0-142.6-7.4-207.5-36.3c-32.1-14.3-58.1-11.2-89.3-6.7c-70.6,10.3-132.3-12.1-180.1-65.4c-16.1-17.9-27.4-20.9-49.5-10.1
			c-74.8,36.5-154.6,54.9-237.9,45.8c-149.8-16.4-244.4-121.9-252.1-277.4c-0.9-19,4.6-42.6-4.6-55.8c-7.9-11.2-33-9.8-50.2-14.8
			c-85.9-25-141.4-83.5-176.2-163.1c-48.5-110.9-48.8-225.6-22.7-341.7c2.4-10.7,6.6-20.3-0.7-31.6
			c-51.6-80.8-55.4-170.5-39.6-260.5c47.8-271.9,185.9-494.2,384.4-681.7c11.7-11.1,24.3-21.3,36.4-32c0.7-0.7,1.2-1.6,4.8-6.7
			c-46.3-0.7-90-2.9-132.6-12.8c-33.4-7.7-66.6-15.7-98.7-28.3c-122.2-47.9-191-136.8-198.9-267.8
			C146.9,523.6,204,372.3,344.9,259.4c82.1-65.8,182.3-85,283.9-93c180.5-14.1,361.3-20,541.9-0.5c43.1,4.6,86.4,9.9,128.9,18.1
			c26.1,5,44.7-0.5,64.9-17.9c61.6-53.3,132.9-87.5,214.4-98.3c123.2-16.4,226.8,23.2,312.8,110.9c12.6,12.8,22.6,17.5,41.4,13.8
			c209-40.5,417.9-47,623.7,15.8c146,44.6,253.5,134,289.6,289.1c23.1,99-5.6,189.6-61.1,272.9c-63.3,95.1-150.6,156-260.2,186
			C2522.6,957,2520.2,959.2,2514.9,962.5z M248.9,2044.7c-22.4,124.8-20,242.4,51.3,349.8c37.6,56.6,92.6,86.5,159.3,93.2
			c41.2,4.1,82.6,2.2,123.3-8.8c155.6-41.9,262.9-140.9,332.2-283.3c11.1-22.8,20.9-26.2,42.5-16c26.4,12.5,8.8,26.9,2.7,38.9
			c-91.6,179.7-229.4,297.2-436.1,320.2c-15.6,1.7-21.3,8.2-19.6,23.2c2.5,23.1,3.4,46.4,7,69.3c16.2,102.7,81.4,177.2,177.2,189.4
			c149.5,19,279.9-24.2,372-147.7c67.7-90.8,117.1-193.2,153.3-301.1c16-47.9,33.2-96,36-146.6c20-360.6,73.1-716.8,143.6-1070.6
			c3.9-19.5,2.4-27.1-20.3-26c-82.9,3.8-164.8,13.9-245.7,33.1c-166.9,39.7-275.8,136.5-320.5,306.3
			c-40.2,152.8-66.6,307.4-83.7,464.1c-10.6,96.7-59.3,152.3-154.2,174.2C455.9,2132.4,350.7,2111.5,248.9,2044.7z M1288,2531.2
			c0,103.1,0.7,206.2-0.5,309.3c-0.2,21.2,6.9,30.4,26.7,35.5c99.3,25.8,198.7,28.7,298.5,4.3c45.9-11.2,45.5-11.5,49.4-59.2
			c14.5-179.1,28.9-358.3,44-537.4c17.3-204.2,35.7-408.4,52.9-612.6c23.2-275.7,45.2-551.5,69.4-827.1c2.4-27.1-6.3-29.5-28.4-29.2
			c-81.9,1-163.8,1.4-245.6-0.3c-23.9-0.5-32.3,7.8-37.9,30c-40.2,161.7-74.4,324.5-105.4,488.2
			C1336,1729,1297.6,2128.5,1288,2531.2z M2746,1653.7c2.9-66.6,3.3-133.1-2.5-199.7c-15.2-174.8-93.4-316.1-227.8-425.7
			c-178-145.2-390.8-193.8-613.2-213.7c-18.3-1.6-21.2,7.1-22.4,22.3c-5.9,75.5-12.1,150.9-19.3,226.3c-3.9,41.3-4.7,40.6,35.6,49.1
			c186.4,39.4,332.4,132.6,412.7,312.1c44,98.4,59,203.1,62.7,309.7c4.7,133.9-13.1,266.1-36,397.3
			c-36.7,210.4-73.6,420.9-145.5,623.1c-16.8,47.3-7.7,57.9,43.7,52c73.7-8.5,140.9-34,199.5-80.2
			c69.9-55.1,117.4-127.4,155.7-206.1c55.2-113.3,88.3-233.8,110.8-357.3C2730.6,1994.7,2743.3,1824.6,2746,1653.7z M2322,1787.5
			c-0.3-70.9-5.5-138.3-16.7-205.2c-37.9-226.2-202.2-388-429-422.4c-13.9-2.1-24-5.5-25.7,15.9c-13.1,164.1-27.7,328-41.3,492
			c-15,179.1-29.3,358.3-44.2,537.4c-15.7,189.2-31.8,378.3-47.6,567.5c-1.8,21.9-15.4,48.6-2.1,64.5c14.2,17.1,43.7,9.8,66.4,11.8
			c112.4,10,224,2.7,334.3-21.3c12.9-2.8,22.7-5.4,16.5-23.5c-6.8-20,0.4-40.5,7.6-59.1c44.5-116.4,69.9-237.9,95.8-359.2
			C2278.3,2187.5,2315.4,1988.1,2322,1787.5z M1343.5,812.1c0-1.1-0.1-2.3-0.1-3.4c-48.3,4.1-96.7,6.8-144.9,12.4
			c-175.8,20.5-341.3,72.6-490.9,168.7c-203.2,130.6-340,316.1-434.2,535.3c-43.4,100.9-72.7,205.5-66.3,317.1
			c5.1,88.9,43,155.9,127.2,193.4c62.8,27.9,128.2,36.4,195.4,27.3c96.6-13.1,134.9-54.9,144.3-152.2c1.7-17.1,3.9-34.1,6.1-51.1
			c19.8-154.2,45.6-306.9,95.3-455.1c45.1-134.6,135.1-221.1,267.1-268.7c110.7-40,225.6-52.8,341.9-58.8
			c12.9-0.7,25.3,1.4,29.6-17.4c17.1-75.8,35.6-151.3,54-226.7c3.5-14.4-0.5-20.8-15.5-20.7C1416.2,812.3,1379.9,812.1,1343.5,812.1
			z M1295.3,234.7c-14.3-2.8-24.9-5.4-35.6-7c-222.4-31.7-445.4-28.4-668.2-6c-74.7,7.5-148.9,25.1-209.4,72.7
			c-139.1,109.5-191,256.5-171,429.2C222.1,818,277,883.8,365.6,917c130.5,48.9,258.3,65,389.2-11.4
			c149.5-87.2,316-126.4,488.2-139.4c21-1.6,25.9-5.2,15.7-26c-36.9-75.6-55.1-155.9-52.5-240.3c0.5-16.3-3.6-23.8-21.1-24.9
			c-42.3-2.6-84.5-8.6-126.8-10.4C820,454.3,589.7,492.7,368.1,581.7c-17.5,7-26.3,6.4-33.2-13.3c-5.8-16.7-8.4-25.8,12.3-34
			c178.2-70.1,362.5-111.5,553.9-119.9c96-4.2,191.9-2.5,287.4,10.4c9.5,1.3,22.7,7.9,26.3-10.1
			C1227.8,349.9,1254.8,290.6,1295.3,234.7z M1901.3,764.4c10.3,1.5,16,2.6,21.8,3.1c181.4,13.1,354.8,54.3,514,145.4
			c10.6,6.1,21.5,6.6,32.2,4.4c92.2-18.5,175.2-55.1,237.8-128.2c25.2-29.5,49.6-60,64.9-100.4c-15,0-25.9,0-36.9,0
			c-206.1,0-412.3-0.1-618.4,0.2c-17.2,0-29.8,1.4-30.2-23.9c-0.4-25.8,10.9-26.5,30.6-26.5c198.1,0.5,396.1,0.3,594.2,0.3
			c93.1,0,99.3-6.9,91.5-102.3c-0.5-6-1.4-12.1-2.6-18c-27.9-131.3-113.8-212.4-234.9-254.1c-193.8-66.7-392.9-61.1-592.7-28.9
			c-30.7,4.9-26.6,15.1-14.8,35.6c29.7,51.4,46.5,107.2,51.4,166.4C2019.1,559.4,1982.1,666.4,1901.3,764.4z M1256.5,508.9
			c-0.1,81.7,21.3,164,58.9,232.4c7,12.8,14,19.3,29.9,19.1c54.5-0.7,109.2-1.8,163.5,4.8c9.2,1.1,17.7-0.4,25.9-5.8
			c43.8-29.1,68.7-88.3,57.8-140.6c-9.6-46.4-32.5-86.5-60.4-124.2c-68.3-92.3-32.9-200.7,76.4-231c59.8-16.6,99.4-54.7,127.5-108.1
			c7.8-14.7,5.3-20.8-10.3-25.6c-36.1-11.1-72.7-17.2-110.4-15C1413.3,126.7,1256.7,298.8,1256.5,508.9z M1601.8,765.5
			c75.2,0,143.8-0.2,212.3,0.2c12.6,0.1,20.5-6.3,28.8-14.1c167.3-157.5,152.9-436.8-29.4-576.2c-16.3-12.5-24.3-15-35,6.4
			c-33.8,67.4-85.8,115.5-161.1,130.8c-71.7,14.6-85.9,99.8-48.7,145.7c10.7,13.3,20,27.9,28.9,42.6
			C1648.7,585.8,1671.1,671.9,1601.8,765.5z M1238,2466.6c-1.6-0.3-3.1-0.6-4.7-0.9c-7.6,16.2-14.6,32.7-23,48.5
			c-50.7,96-93.7,197.4-182.8,267c-12,9.4-3.7,14.7,2.1,21.5c46,54.3,134.9,70.5,196.3,36.2c9.4-5.2,12.3-11.4,12.3-21.5
			C1237.9,2700.4,1238,2583.5,1238,2466.6z"/>
		<path class="st1" d="M1035,1651.6c61-0.1,110.1,48,110.7,108.2c0.6,59.9-48.9,109.9-109.2,110.4c-62,0.5-112.3-49.1-111.9-110.1
			C925,1699.7,973.9,1651.7,1035,1651.6z M976.2,1758.5c-1,33.1,24.1,60.3,56.9,61.5c32.8,1.2,60.2-24.5,61.1-57.3
			c0.9-32.9-24.5-60.6-56.9-61.7C1005,1699.9,977.2,1726,976.2,1758.5z"/>
		<path class="st1" d="M1043.2,1438.9c-0.2-61.8,46.7-109.6,108.3-110.2c62.7-0.6,111.6,48,111.2,110.6
			c-0.3,60.1-50.1,109.6-110.1,109.4C1091.9,1548.5,1043.4,1499.9,1043.2,1438.9z M1153.3,1378.9c-32.7-0.2-60.1,26.5-60.3,58.8
			c-0.2,32.2,27,59.9,59.2,60.4c31.2,0.4,60.5-28.2,60.6-59.4C1212.9,1406.2,1185.9,1379.1,1153.3,1378.9z"/>
	</g>
</g>
</svg>
