<?xml version="1.0" encoding="utf-8"?>
<!-- Generator: Adobe Illustrator 23.0.0, SVG Export Plug-In . SVG Version: 6.00 Build 0)  -->
<svg version="1.0" xmlns="http://www.w3.org/2000/svg" xmlns:xlink="http://www.w3.org/1999/xlink" x="0px" y="0px"
	 viewBox="0 0 3000 3000" style="enable-background:new 0 0 3000 3000;" xml:space="preserve">
<style type="text/css">
	.st0{stroke:#000000;stroke-width:10;stroke-miterlimit:10;}
</style>
<g id="Layer_1">
</g>
<g id="Layer_2">
	<g>
		<path class="st0" d="M535.8,2460.4c-55.7,33.8-110.5,57.7-172.4,59.7c-97.8,3.2-182.2-29.3-248.2-101.2
			c-58.8-64.2-65.2-141.2-42-222.3c11.5-40.3,30.2-77.2,56.6-109.8c8.9-10.9,12.9-22,12.8-36.2c-2.4-350-4.3-699.9-6.3-1049.9
			c-0.1-10.3-0.5-19.4-8.6-27.9C66.4,907.8,55,831.1,78.3,748c52.5-187.6,249.4-288.7,432.5-223.2c7.3,2.6,14.6,5.1,22.1,7.6
			c5.6-29.6,5.6-29.6,37-29.6c97.9,0,195.7,0.7,293.6-0.5c20.9-0.3,25.6,5.2,25.6,25.7c-0.6,450.2-0.5,900.4-0.5,1350.6
			c0,9.4,0,18.7,0,28.3c10.7,1.5,13.9-7.3,18.9-12.3c47.3-45.8,95.7-90.3,149.8-128c41.3-28.8,86.1-47.7,137.9-44.7
			c5.6,0.3,11,1.5,12.9-6.1c10.3-41.4,37.7-72.7,65.5-106.3c-28.7-6.1-53.6-14.3-76.5-27.9c-76.7-45.5-116.7-140-100.3-236
			c19.6-114.1,90.2-189.9,186-245.9c83.6-48.9,176.7-70.7,270.5-89.4c95.1-18.9,190.5-35.9,286.7-48.4c1.2-0.2,2.2-1.8,3.6-3
			c-8.9-5.3-18.5-2.8-27.6-2.8c-216.1-0.2-432.2,0-648.3-0.2c-36.5,0-30.5,3.2-30.6-31.6c-0.2-128.4,0.3-256.8-0.5-385.2
			c-0.1-18.3,4.5-23.4,23.1-23.3c566.1,0.5,1132.2,0.5,1698.2,0.1c16.4,0,23,2.5,22.9,21.3c-0.9,132.3-0.8,264.6-0.1,397
			c0.1,17.9-5,22.8-22.4,22.2c-35.7-1.2-71.5-0.4-112.7-0.4c13.2,16,23,27.6,32.5,39.5c97.6,122.1,158.5,259.6,160.7,417.1
			c3.2,225.6-6.4,450.7-49.3,673c-14.2,73.7-39.8,144.5-66,214.8c-4.9,13.2-11.2,25.8-17.2,38.5
			c-53.6,114.8-143.4,175.9-270.1,183.8c-166.4,10.4-332.5,24.1-499,32c-224.5,10.7-449.3,4.9-673.9,0.4
			c-37.2-0.7-73-10.7-102.3-35.8c-9.4-8.1-17.4-6.8-27.8-3.5c-45.7,14.5-92,19.1-138.1,2.5c-50.3-18.1-85.1-51.8-99-104.4
			c-2.4-9.2-4.4-13.9-15.1-12c-26.4,4.9-53,5.1-79.4-0.1c-13.8-2.7-13.5,5.1-13.5,14.4c0.1,36.8-0.5,73.6,0.3,110.4
			c0.3,14.6-3,20.3-19.1,20.2c-104.9-0.7-209.8-0.7-314.7,0c-15.5,0.1-20.4-4.5-19.5-19.7C536.7,2506.5,535.8,2485.4,535.8,2460.4z
			 M1380.2,1845.2c49.9-21.7,101.9-16.4,154-13.1c50,3.2,100,6.2,150,7.1c90.9,1.6,180.4-6.9,259.6-57.2
			c67.6-42.9,112.5-101.5,113.7-185.5c0.5-38.6-22-72.3-54.5-78.6c-21.1-4.1-43.7-0.4-65.5-1.7c-15-0.9-20.1,3.9-20.6,19.4
			c-1.5,46.3-18.8,87.1-50.1,120.9c-51.8,56-116.8,74.6-190.1,57.7c-73.2-16.9-119.8-65.3-140.6-136.5
			c-5.9-20.4-14.6-25.7-33.5-24.1c-15.5,1.4-31.4-0.8-46.9,0.6c-16.5,1.4-19.1-6.2-19.4-20.6c-0.4-15.5,4.7-20.1,20.1-20
			c68.1,0.7,136.2,0.8,204.2-0.1c18-0.2,28.5,1.7,30.6,23.6c2.2,23.1,25.6,40.7,49.4,42.9c22.5,2.1,40-10.1,50.4-34.1
			c8.2-19,4.3-36.5-5.3-53.7c-2.8-4.9-4.8-9.4-3.2-12.2c2.1-3.7,8.9-3.5,11-3.4c13.6,0.3,119.8,0.2,267,0.1
			c3.2,12.5-2.5,26.2,7.4,37.9c30.7,36.8,34.1,80.3,24.6,124.4c-22.6,104.3-92.3,168-187.7,205.8c-87,34.5-178.4,37.4-270.5,32.1
			c-56.3-3.3-112.5-6.9-168.8-8.6c-57.2-1.7-80.2,16.6-92.5,71.7c-12.5,56.3-9.5,111.9,11.3,166.1c23.8,62.2,63.6,90.9,129.9,92.3
			c119.9,2.5,226.2-34.7,318.3-111.3c24.7-20.5,47.6-43.1,71.7-64.1c34.4-30,71.3-56.1,117-66.4c71.7-16.2,134.8,12.8,164.6,76
			c27.5,58.3,7.9,122.8-51.2,166.7c-37.3,27.7-79.5,43-125.8,47.3c-9.9,0.9-22.6,7.7-22.5-12.1c0.1-14.7-2.3-25.8,20-27.4
			c49.9-3.6,94-23.1,128-61.1c24.4-27.3,33.4-58.5,17.4-93.2c-17-36.8-44.1-59.7-86.8-61c-38.8-1.2-71.8,13.3-102.4,35
			c-32,22.7-59.3,50.9-88.6,76.9c-94.9,84-205,129.6-332.3,133.7c-36.4,1.2-71.3-9.9-106.7-10.7c-85.2-1.9-161.3,61.4-179.3,144.3
			c-17.7,81.6,17.8,132.7,100.4,144c13.1,1.8,26.5,2.5,39.8,2.7c54,0.6,108,0.4,162,1.3c138.6,2.2,277.1,2.1,415.7-1.1
			c8.5-0.2,16.8,1,20.6-10.4c30.8-92.9,92.5-166.1,153.7-239.4c63.6-76.2,119.2-156.7,151.1-251.9c58.4-174.9,51.9-354.5,41.3-534.7
			c-0.6-10.8-5.2-9.3-13.4-8.1c-71.8,10.1-129.7-37.7-133.8-110.2c-3.2-55.3,19.1-100.5,56.6-139.2c8.3-8.6,10.5-12.9-1.7-20.4
			c-40.4-25.2-55-64.1-55-110.1c0-26.8,4.4-53.1,10.9-78.8c4.3-17.3-2-22-17.9-22.7c-36-1.6-71.8-5.4-107.9-5.4
			c-217.5-0.1-429.5,39.7-639.3,91.7c-88.4,21.9-169.6,61.6-231.8,130.8c-65.6,72.9-94.3,156.8-60.3,253.3
			c29.9,84.9,117.2,126.7,202.5,99.1c46-14.9,95,19.2,101.8,69.2c11.1,81.9-3,157.7-70,215.2c-87.6,45.6-146.5,21.4-173.9-72.3
			c-3.3-11.3-9.9-12.1-18.9-12.4c-39.3-1.3-73.4,13.7-104.7,35.4c-61.3,42.5-114.8,93.9-168.3,145.5c-24.7,23.8-31.9,49.4-24.2,82.1
			c7.8-2,15.3-3.8,22.7-5.8c72.2-19.2,143.1-14.2,210.2,17.9c27.8,13.3,51.8,26.3,79.4,2.6c3.3-2.8,8.8-3.1,13.2-4.5
			c30.3-9.7,61.4-10.9,92.8-9.6c8.3,0.4,17.3,2.6,17.2-11.7C1325.8,1951.3,1337.1,1893.1,1380.2,1845.2z M2008.5,916.3
			c270.1,0,540.2-0.2,810.3,0.4c18.2,0,23.7-4.4,23.5-23.1c-0.9-104.9-1-209.8,0-314.7c0.2-20.2-6.3-24.2-25.2-24.2
			c-538.7,0.5-1077.3,0.5-1616-0.1c-19.6,0-25,5-24.8,24.7c1,103.3,1.3,206.7-0.2,310c-0.3,23.7,7.3,27.6,29,27.5
			C1473,916,1740.8,916.3,2008.5,916.3z M850,1527.1c0-319.4-0.2-638.7,0.4-958.1c0-19.8-3.8-27.2-25.4-26.8
			c-75.9,1.4-151.8,1.1-227.8,0.1c-18.1-0.2-22,5.7-22,22.8c0.4,640.3,0.4,1280.5-0.1,1920.8c0,19.4,6.7,23,24.2,22.8
			c74.3-0.9,148.7-1.4,223.1,0.2c23,0.5,28.2-6.1,28.1-28.5C849.8,2162.7,850,1844.9,850,1527.1z M2842.6,2110.9
			c15.4-46.9,22.2-92.5,27.3-138c17.8-157.9,27.1-316.5,32.4-475.3c5.9-176.5-40.3-335.4-151.7-474.1
			c-53.5-66.6-52.8-67.2-137.8-67.2c-113.5,0-227.1-0.1-340.6,0.3c-7.5,0-20.4-5.1-21.3,7.4c-3.5,49.1-23.2,96.2-18.5,146.1
			c2.7,28.1,16.4,50.1,41.7,64.2c13.4,7.4,25.3,9.1,39-0.9c22.1-16.2,46.2-29.5,71.6-39.8c51.3-20.7,96.4-10.8,135.4,28.3
			c18,18.1,29.5,40.2,42,61.9c6.1,10.6,13.2,19.1-4.4,27.2c-14.3,6.6-22.2,9-29.9-8.6c-10-22.9-24.5-43.8-43.5-60.6
			c-29.7-26.4-57.5-25.1-84.9,2.5c-21,21.2-46,34.7-76.2,37.7c-5.3,0.5-11,1.5-15.7,3.9c-44.7,22.7-80.6,89.5-75.5,139.8
			c3.5,34.2,25.6,60,58.5,68.4c29.2,7.5,47.3-1.1,70.4-33.4c7.3-10.2,14.5-20.4,22.1-30.3c38-49.9,113-68.4,169.4-41.7
			c4.4,2.1,11.3,2,11.1,9.5c-0.4,15.1-20.3,28.8-35.1,22.8c-70.7-28.4-156.9,51.8-150.4,117.7c9.6,98.2,10.4,196.8,4.8,295.5
			c-6.9,121.8-32,238.4-86.5,348c-2.2,4.4-6.6,8.4-3.6,15.6c78.7-27.9,157.1-54.4,236.4-77.9c40.5-12,81.3-22.9,123.7-25.5
			C2727,2030,2791.4,2051,2842.6,2110.9z M535.8,2222.3c0-54.8-1-109.5,0.6-164.2c0.6-19.1-6.8-27.2-23-34.6
			c-166.1-75.9-361.8,17.9-405.5,195.3c-20,81.1-1.3,149.7,66.6,202.5c102.1,79.4,245.4,79.5,348.4-0.1c9.6-7.4,13.4-15.3,13.2-27.6
			C535.4,2336.5,535.8,2279.4,535.8,2222.3z M535.8,771.2c0-57.1-0.7-114.2,0.4-171.3c0.3-16.5-4.9-24.8-20.1-31.4
			C345.7,493.9,149.8,594,111.8,776.4c-16.8,80.5,6,147.5,74.3,195.4c113.2,79.4,228.5,72.7,339-0.5c9.6-6.4,10.9-15.6,10.8-26.4
			C535.6,887,535.8,829.1,535.8,771.2z M1391.3,2192c-30.5-33.5-47-72.8-56.6-115.1c-1.9-8.3-6.1-12-14.1-12.6
			c-51-4-100.5-1.4-141.4,34.8c-76.4,67.5-124.8,152-144.4,251.4c-14.3,72.6,25.7,125.5,98.7,138.1c26.6,4.6,52.8,0.2,78.8-6.4
			c13-3.3,12.9-8.4,9.6-19.7c-26.4-91.6,10.8-187.3,91.7-238C1336.9,2209.8,1362.4,2200.2,1391.3,2192z M888.6,2211.5
			c0,43.8,0.1,87.5-0.1,131.3c0,9.8-0.5,18.4,13,20.3c26.5,3.7,52.7,4.3,79.2,0.1c9.5-1.5,13.1-6.3,14.7-15.1
			c17.4-96.6,62.6-179.1,128.2-250.9c11-12.1,6.6-15.5-4.7-21c-68.5-33.3-138.8-38.2-211.5-15.3c-14.4,4.5-19.6,11.1-19.2,26.3
			C889.2,2128.7,888.6,2170.1,888.6,2211.5z M1415.1,1673.3c0.3-14,0.7-28-4.3-41.6c-11.1-30.1-28.7-40.2-57.4-27.8
			c-54.7,23.8-88.6,67.7-107,123.1c-6.1,18.3-3.9,38.7,3.1,57.6c13.5,36.7,45.3,52.6,82.5,40.7c30.2-9.7,50.2-30.8,63.2-58.9
			C1408.8,1737,1414.7,1705.7,1415.1,1673.3z M1617.7,1554c-9.3,0-13.2,0-17.1,0c-34.5,0-34.9,0.6-20.6,32.8
			c27.9,63.1,92.5,101.3,158.2,93.5c74.1-8.8,126.7-59.3,139.4-133.9c4.8-28.3,2.2-29.8-25.9-30.3c-19.2-0.4-15.9,12.5-17.9,23
			c-7.6,40.5-29.4,68.9-70.5,78.4c-38,8.7-72.4-4-92.1-35.7C1655.4,1556.7,1638.5,1549.5,1617.7,1554z M534.5,1096.1
			c-11.8,4.9-21.8,9.1-31.7,13.2c-48.9,20.5-97.7,41-146.6,61.5c-14.7,6.2-24.4,29.9-15.4,44.6c8.5,13.9,19.1-0.1,27.3-3.4
			c44.1-17.7,87.6-36.8,131.4-55.3C537.4,1140.6,537.4,1140.7,534.5,1096.1z M533.5,1427.3c-12.2,0.2-22,7.4-32.6,11.8
			c-49.1,20.1-97.9,41-146.7,61.6c-22.1,9.4-13.2,29.8-10.1,42.7c3.3,13.6,16.2,0.8,23.6-2.2c45.5-18.4,90.6-38.1,135.9-56.9
			C539.8,1469.3,539.9,1469.6,533.5,1427.3z M534.4,1012.5c-10.3,5.6-18.3,10.2-26.5,14.4c-39.7,20.6-81.2,35.8-126.3,39.4
			c-43,3.4-42.3,3.3-42.6,46.7c-0.1,17.6,3.4,21.9,20.7,14.2c47.6-21.1,95.8-41.1,143.9-61.2C537.2,1052,537.3,1052.3,534.4,1012.5z
			 M345.2,1715.3c11.4,0.1,20.7-6.3,30.6-10.4c48.8-20.2,97.5-40.8,146.2-61.5c11.9-5,20.9-31.2,12.9-41c-8.1-9.8-16.4,1.3-23.8,4.3
			c-46.1,18.7-91.9,38.1-137.8,57.3C340.1,1677.8,340.1,1677.9,345.2,1715.3z M533,1267.9c-61.2,25.7-122.3,50.6-182.7,77
			c-17.2,7.5-10.6,26-7.3,37.5c3.3,11.5,14.7,0.8,21.3-1.9c46.8-19.2,92.4-41.5,139.9-58.4C531.4,1312.4,542.3,1299,533,1267.9z
			 M345.2,1869.1c9.1,1.1,16.3-4.3,24-7.5c45.3-18.9,90.5-38.1,135.8-57.2c33.4-14.1,33.5-14,28.9-50.9c-5.1-2-9,1.1-13.2,2.9
			c-48.9,20.6-97.7,41.1-146.6,61.6C340.5,1832.1,340.5,1832.1,345.2,1869.1z M533.6,1187.4c-12.1,0.3-21.9,7.5-32.5,11.8
			c-49.6,20.3-98.8,41.8-148.4,62.1c-19.2,7.8-14.2,24.5-10.8,35.7c4.3,14.2,15.7,1.6,22.4-1.1c48.2-19.6,95.9-40.4,143.9-60.5
			C538.7,1222.6,538.8,1222.9,533.6,1187.4z M533.5,1514.6c-60.9,25.7-121.9,50.8-182.2,77.1c-16.4,7.1-9.3,24.7-6.5,35.1
			c2.6,9.6,14.3,0.3,21-2.4c47.4-19.5,94-41.3,142.1-59C533.6,1556,541.2,1541.7,533.5,1514.6z M2623.8,2146.6
			c58.6-2.5,58.2-2.5,54.5-59.7c-0.8-11.4-4.5-15-15.4-14c-25.6,2.5-50.9,6.2-76,11.9c-9.6,2.2-11.9,6.9-12.9,15.8
			c-5.4,47-5.2,47.4,40.4,46C2617.6,2146.5,2620.7,2146.6,2623.8,2146.6z M2620.7,2250.4c68.8-3.6,54.2,5.6,56.6-51.2
			c0-0.8-0.1-1.6,0-2.3c1-10.5-4.1-13.2-14-12.7c-22.6,1.1-45.3,2.1-67.9,1.3c-18.7-0.7-23.6,6.9-23.5,24.7
			c0.1,40.6-0.8,40.6,39.5,40.2C2614.5,2250.5,2617.6,2250.5,2620.7,2250.4z M346,1947.7c57-23.9,112-47.7,167.6-69.9
			c20.4-8.1,27.9-19.4,19.1-42.1c-55.3,23.2-110,47.5-165.8,69C345.6,1913,339.1,1924.4,346,1947.7z M197.5,1768
			c-0.1,24.9,19.2,44.9,43.4,45c24,0.2,44.9-20.3,45.2-44.2c0.3-23.9-20-44.2-44.5-44.4C216.1,1724.1,197.7,1742.3,197.5,1768z
			 M2756.4,2243.9c49.5-3.8,49.5-3.8,62.6-49.8c0.4-1.5,0.6-3.1,1.3-4.5c4.6-9.8,0.4-12.3-9-11.9c-27.2,1.2-54.3,1.9-81.5,2.9
			c-6.3,0.2-13.5,0.1-13.5,9c0,17.7-6.6,38.1,2.5,52.3C2725.4,2252.2,2744.8,2243,2756.4,2243.9z M242.2,1146.5
			c25.6-0.2,43.4-16.9,43.9-41.5c0.5-24.2-20-45-44.5-45.1c-25.2-0.1-44.2,19-44.1,44.5C197.6,1131,214.2,1146.6,242.2,1146.5z
			 M284.3,1617.1c-0.2-25.1-20.1-44.5-45.1-44.1c-25.1,0.4-44.3,20.4-43.7,45.4c0.6,23,21,43.3,43.9,43.6
			C263,1662.3,284.5,1640.8,284.3,1617.1z M239.2,1439.7c-26.1,0.3-44.6,19.1-43.7,44.6c0.8,24.2,19.6,42.5,43.9,42.7
			c25.2,0.2,44.9-19.1,45-44.1C284.5,1457.6,265.4,1439.4,239.2,1439.7z M241.9,1272.4c24.4,0.2,43.4-17.5,44.3-41.1
			c0.9-25.1-17.1-42.5-44.2-42.6c-28.7-0.2-44.4,14.5-44.4,41.4C197.5,1256.6,213.8,1272.2,241.9,1272.4z M247.5,1974.7
			c25.5-0.2,44.2-19,43.9-44.1c-0.3-25.1-19.3-43.1-45.1-42.8c-25.6,0.3-44.4,19-44,44C202.6,1956.7,221.9,1974.9,247.5,1974.7z
			 M2634.1,2288.3c-76.1,6.4-60.7-4.6-63.6,46.4c-0.6,11.4,3.8,15.3,14.9,14.3c22.5-1.9,45.1-4.5,67.6-4.2
			c16.8,0.3,23.5-3.8,22.9-21.9c-1.3-39.6,6.6-34.9-33.8-34.7C2637.4,2288.3,2632.7,2288.3,2634.1,2288.3z M241.3,1314.3
			c-28-0.5-45.6,15.1-45.9,40.8c-0.3,25,18.8,44.2,44.2,44.4c25.6,0.1,44.9-18.7,44.9-43.7C284.4,1330.9,267.6,1314.8,241.3,1314.3z
			 M2619.8,2444.6c57.2-1,56.7-1,54.8-46.7c-0.5-13.1-5.6-15.4-17.1-14.4c-22.4,1.9-45,3.3-67.5,3.7c-14,0.3-20.5,3.8-20.4,20
			c0.2,37.9-0.8,37.9,36.1,37.4C2610.4,2444.5,2615.1,2444.6,2619.8,2444.6z M533.5,1352.3c-33,13.7-64.6,26.8-96.1,40
			c-28,11.8-55.7,24.4-84,35.3c-14.6,5.6-14,17.2-10.7,26.8c4.8,14,14.3,2.2,20.3-0.3c50.4-20.6,100.2-42.9,150.9-62.7
			C532.7,1384,540.2,1374.3,533.5,1352.3z M2369.3,2194.7c-7.8,0.4-15.7,1.6-23.4,0.9c-19-1.7-23.2,7.4-23,24.9
			c0.7,45.7,0,45.7,46.8,42.6c3.1-0.2,6.3-1,9.4-0.6c22.4,2.4,28.9-7.3,28-29.5C2405.4,2193.6,2406.8,2193.5,2369.3,2194.7z
			 M2494.3,2256.1c1.4-0.1,9.4-1.8,16.9-0.7c18.4,2.7,21.9-5.5,21.6-22.3c-0.8-44.5,0-44.5-44.2-43c-5.5,0.2-11,1-16.4,0.5
			c-20-1.9-26.8,5.8-26.2,26.6C2447.2,2259.8,2445.9,2259.8,2494.3,2256.1z M2283.5,2341.1c-1.1-37,7.2-34.7-31.8-33.5
			c-16.4,0.5-32.7,2-49.1,3.2c-6.2,0.5-13,0.8-12.7,10c0.5,15.5-3.9,33.6,2.7,45.8c6.1,11.2,24.2,1,37.1,1.5
			c7.8,0.3,15.6-0.7,23.4-0.2C2275.7,2369.5,2290.9,2364.4,2283.5,2341.1z M533.2,1681.3c-59,24.9-116.2,49.5-173.8,72.9
			c-16.4,6.7-20.6,15.6-13.3,31.1c2.4-0.3,4.1-0.2,5.5-0.7c55.3-23.2,110.3-47,166-69.3C533.9,1708.7,539.6,1700,533.2,1681.3z
			 M2492.4,2296.3c0,0.4,0,0.8,0,1.2c-10.9,0-21.8-0.1-32.7,0c-6.3,0.1-13.5-0.4-13.7,8.6c-0.4,15.5-5.9,32.8,1.7,45.9
			c6.2,10.6,21.6,1.6,32.8,1.8c12.5,0.2,25-0.3,37.4-0.9c6.2-0.3,13.6-0.2,13.7-9c0.2-15.5,4-33.2-2.1-45.9
			c-5.1-10.6-22.7-0.8-34.8-1.9C2493.9,2296.1,2493.1,2296.3,2492.4,2296.3z M2366.9,2302.5c-3.9,0-7.8-0.1-11.7,0
			c-31.9,0.9-31.9,0.9-31.9,32.2c0,29.3,0,29.5,29,27.7c14-0.9,28-2.8,42.1-3.5c7.6-0.4,10.3-2.9,11.4-10.9
			C2411.5,2305.3,2408.7,2301.7,2366.9,2302.5z M2486.1,2446.9c0-0.1,0-0.3,0-0.4c6.2,0,12.6-0.8,18.7,0.1
			c22.4,3.4,29.3-7.2,26.6-27.8c-0.6-4.6-0.3-9.4,0.1-14c0.9-10.2-3.5-14.1-13.6-13.2c-21,1.8-42,3.1-63,4.5
			c-4.9,0.3-8.3,1.3-10.3,7c-9.6,27.8,1.3,44,29.9,43.7C2478.3,2446.8,2482.2,2446.9,2486.1,2446.9z M535.8,1910.7
			c-37.3,15.7-72,30.4-112.5,47.5c39.2,7.4,72.1,14,102.8,28.2c10.1,4.7,9.8-2.9,9.8-9.4C535.8,1956.1,535.8,1935.2,535.8,1910.7z
			 M2198.7,2269.3c14.2,0,24.8,0.1,35.4,0c49.7-0.4,49.9-0.5,49-49.3c-0.1-6.9,5.1-18-5.1-20c-10.6-2.1-23.9-5.3-32.5,5.8
			C2230.2,2225.8,2215.5,2246.4,2198.7,2269.3z M2810.9,2137.7c-13.3-20.3-28.1-31.7-44.4-41c-14-8-31.7-21.5-44.4-14.8
			c-12.8,6.7-3.2,28.5-5.5,43.4c-0.2,1.5,0.1,3.1,0,4.7c-0.7,9,3.5,12.6,12.4,12.1C2755.1,2140.5,2781.2,2139.3,2810.9,2137.7z
			 M2367.7,2400.8c0,0.2,0,0.4,0,0.6c-7.8,0-15.6,0.5-23.3-0.1c-15.6-1.2-20.7,4.8-21.9,21.2c-1.7,23.3,8.3,27.6,28,25.6
			c12.3-1.2,24.9-1.3,37.2-0.2c14.8,1.3,18.2-4.9,18.1-18.7c-0.2-29.9,0.6-29.9-28.8-28.5
			C2373.9,2400.9,2370.8,2400.8,2367.7,2400.8z M2234.7,2449.2c0-0.5,0-0.9,0-1.4c12.5,0,25,0.6,37.4-0.1c20.9-1.3,8.5-17.6,11-26.8
			c2.6-9.6-0.6-16.5-13.2-15.2c-19.4,2-38.9,4.5-58.3,3.9c-17.2-0.5-22.2,4.5-22.4,22.2c-0.2,21.1,12.4,17.3,24.5,17.4
			C2220.6,2449.2,2227.7,2449.2,2234.7,2449.2z M2785.9,2283.4c-13.5,0-25.9-0.3-38.3,0.1c-39,1.1-31.5-1.7-31.8,33.3
			c-0.1,7.6-5,21.2,5.1,22.1c14.5,1.2,33.3,8.1,44-5.9C2775.4,2319.2,2783.3,2302.5,2785.9,2283.4z M2488.2,2151.8
			c48.3-1.6,48-1.6,45.8-37.7c-0.6-9.5-1.5-14.7-13.2-10.6c-20.5,7.2-41.2,13.8-62.2,19.3c-12,3.1-10.5,11.3-10.7,19.8
			c-0.2,11.7,8.4,8.8,14.7,9C2471.1,2152.1,2479.6,2151.8,2488.2,2151.8z M2062.6,2450.4c27.9,0,52.4-0.1,77,0
			c9.1,0,12.8-4.8,11.6-13.2c-1.1-7.8,4.8-20.9-5.5-22.1c-19-2.2-39-1.7-57.8,1.9C2074,2419.7,2071.1,2436,2062.6,2450.4z
			 M2035.6,2515.7c35.5-2.1,70.3-4.2,105.2-6.1c7.9-0.4,10.9-4,10.4-11.8c-0.5-8.2-6.4-7.6-11.7-7.6c-26.5-0.1-53.1,0.9-79.5-0.2
			C2042.5,2489.2,2036.1,2497,2035.6,2515.7z M2229.5,2503.9c0,0.3,0,0.6,0.1,0.9c14.7-1.2,29.5-2.3,44.2-3.6
			c3.8-0.3,8.4-0.8,8.8-5.7c0.5-6.6-4.8-7.2-9.5-7.2c-24.9,0.2-49.8,0.7-74.7,1.1c-5.6,0.1-8.4,2.8-8.3,8.7c0.2,6.2,3.9,8,9.1,7.8
			C2209.3,2505.4,2219.4,2504.6,2229.5,2503.9z M217,1850.6c-13-7.4-23.6-13.4-37.3-21.2c1.7,16.5-1.7,30,3.3,44.4
			C194.6,1865.9,204.7,1859,217,1850.6z M2151.3,2334.1c-1.7-0.8-3.5-1.7-5.2-2.5c-8.5,10.9-17.1,21.7-25.3,32.8
			c-1.9,2.6-7,7.9-1.4,9.1c8.1,1.7,16.9,0,25.4-1c7.9-0.9,6.2-7.7,6.4-12.8C2151.5,2351.1,2151.3,2342.6,2151.3,2334.1z
			 M2401.7,2492.6c-0.2-1.8-0.4-3.7-0.6-5.5c-22.6,0-45.1-0.1-67.7,0c-3.9,0-8.2,0.8-8.5,5.8c-0.2,3.7,2.8,5.4,6.3,5.1
			C2354.8,2496.2,2378.2,2494.4,2401.7,2492.6z M303.9,1827.6c-13.3,8.4-23.3,14.7-34.3,21.7c12,5.9,22.6,11,34.3,16.7
			C303.9,1852.5,303.9,1841.7,303.9,1827.6z M213.6,2009c-10.2-6.5-19.6-12.5-30.6-19.5c-1.3,14.5-2.3,26.4,1.4,40.2
			C195.4,2021.8,204.2,2015.6,213.6,2009z M175.7,1044.5c8.4-5.6,22.5-6,21.3-16c-0.9-7.1-11.6-11-21.3-11.8
			C175.7,1026.3,175.7,1035.4,175.7,1044.5z M302.9,1677c-10.5,4.5-17.4,8.7-22,16.8c7.4,3.9,12.2,11.4,22,12.2
			C302.9,1696.5,302.9,1688.3,302.9,1677z"/>
		<path class="st0" d="M2061.2,1477c-22.3-3.3-24.1-17.7-22.1-36.6c2.7-24.8,4.2-49.6,1-74.9c-8.1-63.9-42.9-107.5-105.4-118.8
			c-127.3-23-251.7-11.8-366.3,52c-80.3,44.7-134,112-144.4,207c-2.2,19.8-15.6,9.9-24.4,11.5c-10.7,1.9-15.5-3.6-14.7-15
			c1.8-26,7.7-51.1,17.8-75c41.7-98.4,117.2-160.7,216-195.3c100.6-35.2,204.8-44.3,309.9-26.3c96.3,16.5,146.3,76.1,152.4,173.8
			c1.8,28.3-3.7,56.2-3.5,84.3c0,1.3,0.1,5.4-2.6,8.6C2071.3,1476.8,2064.8,1477.1,2061.2,1477z"/>
		<path class="st0" d="M1553.3,1496.2c-37.4-0.2-66.6-30-66-67.4c0.6-35.8,30.3-65.6,65.7-66c35.7-0.3,67.5,31.1,67.7,66.9
			C1621,1465.6,1589.8,1496.4,1553.3,1496.2z M1554.1,1403.5c-17.1,1.1-26.9,9.1-26.9,26.1c0,17.9,9.9,27.2,27.6,26.8
			c17-0.4,25.6-11.1,25.3-27C1579.8,1413.1,1570.1,1404.2,1554.1,1403.5z"/>
		<path class="st0" d="M1739.1,1447.3c-36.7,0.1-65.8-28.2-66.4-64.7c-0.6-37.4,28.8-67.3,66.3-67.4c36.8-0.1,65.6,28.2,66.2,64.9
			C1805.8,1418.3,1777.3,1447.2,1739.1,1447.3z M1742.4,1354.1c-15.5-0.7-29.4,11.5-30.5,25.3c-1.2,14.3,12.6,29.8,27.2,29
			c16.1-0.8,26.6-10,27.1-26.4C1766.7,1365.5,1756.1,1357,1742.4,1354.1z"/>
		<path class="st0" d="M1927.2,1305.8c37.7,0.1,66.5,29.6,65.8,67.6c-0.6,36.7-29.4,64.9-66.4,64.7c-36.5-0.1-65.7-28.9-66.1-65.2
			C1860.1,1335.5,1889.7,1305.7,1927.2,1305.8z M1954.6,1371.2c-2.5-15.8-11.3-26.3-27.6-26.1c-16.1,0.2-25.8,10.3-27.1,26.5
			c-1.2,14.6,13.8,29.1,28.5,27.6C1944.5,1397.4,1953.1,1387.5,1954.6,1371.2z"/>
		<path class="st0" d="M2517.4,1841.8c-0.2-74.4,64.1-136.3,141.4-136.3c60.9,0.1,103.4,50.6,103.7,123.4
			c0.3,82.3-49.8,139.3-122.8,139.7C2570.2,1968.9,2517.6,1914.5,2517.4,1841.8z M2637.4,1929.2c29.9-0.5,55-10.1,69.6-36.5
			c21.4-38.8,23-78.9,2.1-118.7c-11.9-22.6-32.3-31.4-56.8-29.2c-29.1,2.6-54.3,15.2-73.5,37.2c-25.5,29.4-29.6,62.8-14.1,98.3
			C2578.6,1912.2,2603.5,1928,2637.4,1929.2z"/>
		<path class="st0" d="M2643.8,1630.6c-46.4,0.2-82.5-33.1-83.3-77.1c-0.9-46.4,41-86.8,89.7-86.5c43.2,0.3,78.8,35.8,79.3,79.3
			C2730.2,1591.7,2690.8,1630.4,2643.8,1630.6z M2690.5,1547.5c0.2-22-17.6-40.1-39.8-40.5c-26.7-0.5-50.9,20.4-51.2,44.4
			c-0.3,21.4,19.8,40.7,42.7,40.9C2666.8,1592.5,2690.3,1570.8,2690.5,1547.5z"/>
	</g>
</g>
</svg>
