<?xml version="1.0" encoding="utf-8"?>
<!-- Generator: Adobe Illustrator 23.0.0, SVG Export Plug-In . SVG Version: 6.00 Build 0)  -->
<svg version="1.0" xmlns="http://www.w3.org/2000/svg" xmlns:xlink="http://www.w3.org/1999/xlink" x="0px" y="0px"
	 viewBox="0 0 3000 3000" style="enable-background:new 0 0 3000 3000;" xml:space="preserve">
<style type="text/css">
	.st0{stroke:#000000;stroke-width:12;stroke-miterlimit:10;}
</style>
<g id="Layer_1">
</g>
<g id="Layer_2">
	<g>
		<path class="st0" d="M1608.8,1204.8c-69.4,6.4-134.2,9.6-199.1-0.5c-148.7-23.2-259.3-121.6-280.5-258.7
			c-19.7-127.3,27.7-232.3,121.9-316.9c87.6-78.8,194.2-111.9,309.1-120.7c74.3-5.7,148.6-1.4,221.3,17.5
			c130.1,33.8,206.2,125.7,217.5,260.4c3.5,41.8,3.6,83.3,0,124.9c-1.8,21.3,2.1,28.6,26.9,26c95.8-10.3,191.3,0.6,286.7,9.9
			c21.2,2.1,18.3,15.6,16.5,29.1c-2.2,15.5-1.6,29.9-27,27.2c-87.3-9.3-174.6-16.9-263-11.4c-261.5,16.1-385.6,186.9-432.2,383.4
			c-37.6,158.7-21.5,318.2,2.5,477.1c5.7,37.9,12.1,75.6,31.9,109.5c13.4,23,31.1,41.3,54.8,53.5c43,22,86.1,9.6,110.1-32.4
			c24.3-42.7,25.8-88.5,12.1-134.3c-15.2-50.6-35.5-99.7-49.8-150.6c-42.8-151.7-10-287.6,100.8-398.4
			c110.3-110.3,246.1-139,396-97.8c10.9,3,37.4-2.2,27.2,25.4c-7.3,19.8-9.5,38.8-44.6,28.9c-129.1-36.6-247.6-10.9-342,86.2
			c-91.7,94.2-118.9,208.9-84.1,337.2c16.5,60.8,46.1,117.2,57,180c17,98.2-14.2,168-101.1,216.6c-7.7,4.3-12.2,9-14.3,17.1
			c-37.5,141.8-141,209.6-275.1,237.6c-226,47.1-439.9-101.8-478.4-329.5c-38.2-226.2,99.8-432.8,324.9-485.7
			c55.2-13,111.1-19.4,167.6-8.3c20.5,4,29.2,0.2,30.9-23.9C1539.7,1386.9,1563.4,1294.7,1608.8,1204.8z M1552.8,1015.3
			c-44.4-54.1-85-101.7-123.4-150.9c-18.1-23.3-38.9-38.1-68.1-44.5c-41.6-9.2-82.3-22.2-123.8-32.3c-12.2-3-30.2-16.5-36.5,6.2
			c-5.7,20.5-27.6,41.6-1.3,63.9c55.7,47.3,110.7,95.4,166.1,143.1c7.5,6.5,14.1,14.5,25.6,14.5
			C1442.8,1015.2,1494,1015.3,1552.8,1015.3z M1322.3,646.9c34.1,41.4,68.2,83,102.8,124.3c4.1,5,10,10,16,11.6
			c59,16.5,118.1,32.2,182.7,49.7c-12.2-45.9-23.8-86.5-33.4-127.5c-4.4-18.9-14.8-27.5-32.9-33c-46.2-14-93-27.1-137.2-46
			C1381.1,609.3,1351.4,617.6,1322.3,646.9z M1494.8,1852.3c-2.7,1.9-6.5,4.1-9.6,7c-31.2,29.1-61.9,58.6-93.5,87.3
			c-11,9.9-8.4,18.5-2.5,29.5c19.5,36.6,38.9,73.2,57.1,110.4c8.1,16.6,14.5,19.7,28.5,5.1c30.4-31.5,61.8-62,93.6-92.1
			c10.3-9.7,10.1-17.4,3.1-28.8c-21.2-34.3-41.2-69.4-61.9-104C1506.1,1861.3,1504.2,1854,1494.8,1852.3z M1411.4,2145.4
			c-0.7-2.1-1-4.4-2-6.4c-22-42.9-43.9-85.8-66.3-128.4c-7.8-14.9-14.6-3.1-20.3,2.2c-25.7,23.5-50.9,47.4-76.5,71
			c-8.7,8-15.1,15-8.2,28.6c21.5,41.9,41.7,84.5,62.3,126.8c3,6.1,6.7,14.5,14.2,7.3c32.3-31.1,63.8-63.1,95.5-94.9
			C1411.3,2150.4,1411,2147.5,1411.4,2145.4z M1606.1,2030.9c-22.1,25.6-39.9,48.8-60.4,69.3c-63.6,64-64,63.6-18.7,141.2
			c0.6,1,1.3,1.9,1.7,2.9c4.3,11.6,10.6,14.7,23,9.1c44.6-20.2,83.7-47.3,114.7-85.6c7.8-9.7,10.7-18.2,3.2-30.1
			C1649.6,2105.6,1630.8,2072.7,1606.1,2030.9z M1352.5,1903.6c12.7-10.8,24.5-19.4,34.5-29.7c25.7-26.5,71.4-46.4,73.7-79.1
			c2.1-29.9-31.3-62.2-49-93.5c-0.6-1-1.2-1.9-1.7-2.9c-7.3-15.9-15.1-19.8-28.8-4.6c-24.2,26.7-49.6,52.3-75.1,77.7
			c-9.9,9.8-14.3,18.1-6.4,32.1C1317.9,1835.8,1334.4,1868.9,1352.5,1903.6z M1249.4,1833.1c-104.9,87.3-106.3,92.3-55,188.9
			c0.5,1,1.1,1.9,1.5,3c6,16.3,12.5,16.3,25.9,4.8c94.8-81.2,95.1-80.9,32.9-190.1C1253.6,1837.9,1252,1836.3,1249.4,1833.1z
			 M1786.5,632.7c1.5-50,1.6-50.7-47.7-58.8c-30.9-5.1-62.3-7-93.2-11.5c-29.7-4.3-35.3,3.7-28,34.2c7.6,31.6,21.7,48.4,53.1,54.6
			c20.7,4.1,40.4,12.9,60.6,19.7C1784.8,688.7,1784.8,688.7,1786.5,632.7z M1648.4,703.7c13.4,48.9,25.7,93.8,38.1,138.7
			c1.7,6.1,6.4,8.4,12.3,10c21.7,5.8,43.3,11.9,64.9,18.2c13.6,3.9,16.7-1.9,18.2-14.8c11.6-100.1,8.4-105.8-85.3-137.1
			C1682.7,714,1668.7,710,1648.4,703.7z M1122.5,1873.8c102.7-82.8,105.7-93.1,56-182.3c-0.5-1-1.2-1.9-1.6-2.9
			c-6.2-15.3-13-18.7-25.6-4.4c-25.4,28.9-46.1,60.5-61.7,95.7c-4.6,10.3-3.8,18.6,1.4,28.5
			C1101.7,1829.1,1111.3,1850.5,1122.5,1873.8z M1837.5,831.7c-1.3,58.1-1.3,58.1,46.4,70.9c60.5,16.3,58.9,16.3,61.1-46.8
			c1.2-35.3-0.8-59.7-44-70.3C1838,769.9,1839,766.1,1837.5,831.7z M1261.9,1728.7c31.9-30.4,63.2-60.6,95-90.4
			c8-7.4,7.6-14.2,3.7-23.6c-17.1-41-24.1-44.9-64.6-27.8c-23.6,10-45.9,23.1-68.9,34.5c-12.5,6.2-15.2,13.7-7.9,26.6
			C1234.6,1675.2,1248.5,1703.2,1261.9,1728.7z M1496.6,857.4c44.7,54.2,83.6,102.3,123.5,149.5c12.8,15.2,32.8,12.2,47.2,6.2
			c13.4-5.6,0.4-20.2-1.9-29.6c-21.8-88.2-22.2-88.1-110.5-110.9C1538.8,868.5,1522.6,864.2,1496.6,857.4z M1529.3,1719.1
			c0-43.8,0.1-87.7-0.1-131.5c0-7.7,0.9-16.3-8.8-19.8c-8.6-3.2-15.3,0.5-21.1,6.5c-16.6,16.9-32.9,34-49.8,50.5
			c-9.2,9-7.4,16.6-1.1,26.6c16.6,26.7,31.7,54.3,48.2,81.1c4.7,7.6,5.9,23.6,19.2,18.2C1527.8,1745.9,1538.4,1735.5,1529.3,1719.1z
			 M1456.3,1073.4c47.6,62.1,100,97.1,176,69.5c6.9-2.5,17.1-0.2,15-12.7c-2.3-13.9-47.9-56.5-62-56.7
			C1543.8,1073.1,1502.3,1073.4,1456.3,1073.4z M1109.1,1977c-42,32.8-42.3,32.9-25.2,78.9c6.7,17.9,14.8,35.2,23.1,52.4
			c2.7,5.6,4.6,13.5,13.1,13.5c15.8,0,39.9-40.1,32.8-55C1139,2037.4,1124.5,2008.3,1109.1,1977z M1443.4,1149
			c-66.3-74.8-104.4-89.7-175.5-70.6C1305.9,1117.4,1380.6,1148.1,1443.4,1149z M1842.7,610.9c0,29.6,1.8,52-0.6,74.1
			c-2,18.8,5.7,26.2,21.9,30.7c21.2,5.9,41.9,13.2,67.4,21.3C1915.9,684.1,1892.7,643,1842.7,610.9z M1706.4,914.5
			c8.4,32.2,15.7,59.9,22.8,87.6c4.9,19.2,20.9,11.9,33.1,14.2c10.2,2,13-2.5,15.2-11.8c13.6-56.7,4.2-72.4-52.1-85.2
			C1721.1,918.3,1716.8,917.1,1706.4,914.5z M1292.3,1012.9c-37.4-32.4-69.7-60.4-104.5-90.6
			C1184.1,1003.2,1203.8,1020.8,1292.3,1012.9z M1365.6,2278c36,4.7,65.9,3.2,95.7,0.5c9.5-0.9,19-3.1,12-16.7
			c-8.3-16-16.4-32-24.6-48.1c-5.4-10.6-11.2-7.9-17.9-1.1C1410.5,2233.1,1390.1,2253.4,1365.6,2278z M1325.2,751.5
			c1.4-2,2.8-4,4.2-6c-14.6-17.9-29.2-35.8-43.9-53.7c-4.5-5.5-9.5-10.2-16.1-2.9c-10.3,11.4-24.8,20.6-27.1,36.7
			c-0.9,6.5,9.9,7.2,15.8,8.8C1280.3,740.6,1302.8,745.9,1325.2,751.5z M1234.9,2235.5c-14.1-29.5-25.6-50.8-34.6-73.1
			c-8.4-20.8-16.3-22.4-32.1-6.1c-11.7,12-15.1,19.7-0.9,31.7C1185.8,2203.8,1203.5,2220.6,1234.9,2235.5z M1561.6,614.3
			c-7.8-52-39-61.5-86.7-29C1503.5,594.9,1530.8,604,1561.6,614.3z"/>
		<path class="st0" d="M577.6,1799.4c3.8-220,18.2-406.3,37.5-592.4c17-163.3,47.7-323.3,112.7-474.6
			c138.6-322.4,366-551.3,712-639.7c352.9-90.1,665.8-1.5,937.9,238.1c14.4,12.7,22.9,22.1,3.5,39.3c-15.3,13.7-22.9,20.9-42.3,3.1
			C1905.4-24.4,1250.8,46.4,905.6,527c-121.8,169.5-189.6,360.5-218.1,564.8c-38.8,278.1-62.4,557.9-48.5,839.2
			c10,201.7,43.4,398.7,137.6,580.5C895,2740,1086,2864.1,1338,2902.2c362.3,54.7,672.1-62.6,950.3-286c8.8-7.1,17.9-13.9,25.8-21.8
			c14-14,24.7-22.5,42.8-1.8c18.8,21.6,8.5,31.2-7.7,45.2c-209.4,179.8-446.4,301.8-723.7,328c-232.5,21.9-457.9-7.2-655.9-145.6
			c-178.9-125.1-274.7-305.7-330.9-511.2C590.1,2131.4,579.2,1949.5,577.6,1799.4z"/>
	</g>
</g>
</svg>
