<?xml version="1.0" encoding="utf-8"?>
<!-- Generator: Adobe Illustrator 23.0.0, SVG Export Plug-In . SVG Version: 6.00 Build 0)  -->
<svg version="1.0" xmlns="http://www.w3.org/2000/svg" xmlns:xlink="http://www.w3.org/1999/xlink" x="0px" y="0px"
	 viewBox="0 0 3000 3000" style="enable-background:new 0 0 3000 3000;" xml:space="preserve">
<style type="text/css">
	.st0{stroke:#000000;stroke-width:10;stroke-miterlimit:10;}
</style>
<g id="Layer_1">
</g>
<g id="Layer_2">
	<g>
		<path class="st0" d="M2107.8,416.3c18.3-27.8,36.3-52.8,57.4-75.4c89.2-95.6,198.1-153.5,329.4-157.1
			c198.4-5.5,395.9,117.5,441.3,353c10.1,52.6,14.2,105.6,16.3,159.2c4.2,109.5,0,219-2.1,328.4c-2.1,109.5-13.9,218.4-41.3,324.9
			c-14.6,56.6-36.3,110.1-76.6,154.2c-6.1,6.6-11.4,13.3,0.9,19.5c81.9,41.4,98.4,112.5,89.3,195.8c-3.8,35.3-8.9,70.2-20.8,103.8
			c-3,8.6-1.1,15.5,4.1,23.3c70,104.7,62.1,219-21.5,312c-7,7.8-7.4,15.3-6.7,24.6c6.8,90.5-19.2,169.4-85,233.2
			c-34.4,33.4-75.3,56.2-121.6,68.4c-11.8,3.1-18.3,8.8-23.1,20.2c-50.8,120.2-180.3,167.1-297,107.1c-12.8-6.6-21.1-5.6-32.7,2.7
			c-102.3,73.6-235.7,61.8-322-28c-6.3-6.6-10.2-8.8-16.5-0.8c-96.7,121.8-233.8,168.5-378,199.7c-133.5,28.8-268.9,45.7-405.1,55.9
			c-108,8.1-216.1,13.5-324.3,9.9c-133.1-4.5-266.3-8.7-397.4-36.9c-182.2-39.2-302-147.5-363.5-322.2
			c-26.7-75.9-39.2-154.5-42.6-234.7c-3.4-80.5-5.5-161-2.9-241.5c4.6-141.5,8.9-283,41.1-422.1c36-155.2,105.9-290.9,222.4-401.2
			c11.9-11.3,34.4-19,33.1-34.6c-1.1-13.7-23.9-18.7-36.6-28.5c-73.8-56.8-122.6-131.7-155.2-217.4c-48.9-128.3-63.3-259.5-15.7-391
			C202.5,389,290.8,294.8,430.9,263.9c122.7-27.1,227.7,11,309.1,108c11.2,13.4,16.2,12.6,27.2,0.8c75-81.1,161.4-146.6,266.7-182.8
			c143.3-49.2,282.8-44.9,412.7,40.9c59.8,39.5,105.5,92.4,133.1,159.3c6.2,15,10.8,12.9,20.6,3c79.8-80.3,176.1-123,289.8-118.1
			c95,4.1,172.5,40.4,212.6,133.8C2103.5,410.5,2104.9,411.9,2107.8,416.3z M117.3,2101.8c-1.7,41.7,2.1,91.8,3.2,142
			c1.5,70.6,11.4,139.9,32,207.3c46.8,152.7,140.2,260.4,298.6,303.4c74.8,20.3,151.4,29.1,228.6,34.5
			c121.5,8.5,242.9,12.1,364.7,8.1c157.9-5.2,314.5-21.3,470.1-47.9c80.7-13.8,160.4-31.5,236.7-62.2c10.6-4.3,22-7.3,30-16.7
			c34.7-40.8,59.7-86.5,74.8-138.2c25.4-86.8,29.7-176.2,33.4-265.5c2.8-68.2-0.2-136.5-3-204.7c-3.7-88.1-3.1-176.4-12.1-264.2
			c-7.6-73.9-29.1-142.3-78.5-199.8c-61-70.9-139.5-112.5-228-138c-106.5-30.7-216.2-32.9-325.5-33.8
			c-113.3-0.9-226.3,6.6-338.4,25.7c-228.4,38.9-434.8,124.2-608.3,281.9c-41.6,37.8-89.5,66.2-149,63.6
			c-15.1-0.7-18.4,4.9-19.4,18.1C120.4,1907.9,117.2,2000.5,117.3,2101.8z M2075.7,638.8c0-44.2-0.8-101.5-8.1-158.5
			c-9.2-72-45.1-123.2-116.7-143.1c-103.5-28.8-195.8-1.1-279.9,61.1c-38.5,28.5-66.2,66.4-91.2,106.5c-3.9,6.3-6.9,17.2-14.9,15.8
			c-8-1.4-6.4-12.5-8-19.7c-4.7-20.7-7.8-41.9-14.1-62.1c-39.9-129.8-172.5-224.4-316.6-227.8c-113.8-2.7-215.5,32-307.8,96.8
			c-61.7,43.3-114,96.3-160.3,155.5c-14.2,18.2-16.9,17.7-26.5-2.8c-10.9-23.4-21.7-46.7-39.3-66.2c-82.4-91.1-218.1-114-324.9-53.2
			c-121.5,69.2-178.5,178.8-187.6,314.4c-7.4,110.7,19.4,214.9,74.1,311.5c33.9,59.8,78.6,109.7,139.1,144.4
			c15.9,9.1,27.7,9.1,43.6-1.5c84.8-56.5,177.3-97,274-128c115.3-36.9,235.1-42.8,354.7-49.9c57.2-3.4,114.4-6.1,171.6-9.1
			c80-4.2,159.9-4.3,239.1,6.5c151.6,20.8,291.6,73.8,418.8,159.3c11,7.4,18.3,7.5,28.8-0.8c59.3-46.8,96.8-108.3,120.4-178.5
			C2072.2,825.9,2077.4,739.2,2075.7,638.8z M2128.1,661.7c1,43.2-0.1,97.3-8.2,151c-18.2,120.5-61.2,228.7-157.2,309.7
			c-10.8,9.1-8.8,13.5,0,22c64.8,62.7,111.8,136.1,132.5,224.8c10.6,45.3,16.1,91.3,18.9,137.5c1,16.7,7.9,24.3,23.7,29.7
			c163.5,56,328.6,62.1,496.3,20.5c119.1-29.6,196.3-99.1,225-220.7c24.1-102,35.1-205.5,39.2-309.8c2.4-61.1,0.5-122.4,2.7-183.6
			c3.5-96.8,1.7-193.4-14.5-288.8c-45.4-266.3-319-377.7-526.9-288.7c-99,42.4-173.1,112.1-224.3,206.8
			c-8.6,15.8-13.3,31.2-11.6,49.3C2127.8,564.5,2127.7,607.7,2128.1,661.7z M1883.4,2608.7c51.4-39.3,93.6-101.9,117.9-169.8
			c41.7-116.3,45.9-238.3,54.3-359.6c5.4-77.7,7.7-155.6,9.6-233.5c3.3-134,5-267.8-9-401.3c-12-113.9-60.5-209.5-149.3-280.7
			c-155.6-124.8-336.5-184-534.5-190.4c-136.6-4.4-272.7,9.2-408.9,17.6c-130.8,8-255.4,37.6-374.2,93.3
			c-117.3,54.9-221,126.4-300.7,230.2c-92.5,120.5-132,260.5-152.1,407.8c-3.4,24.9,0.1,26.8,26,23.4c44.7-5.8,78.3-31.8,110.1-60.2
			c113.1-100.9,242.1-174.1,384.8-224.3c180.2-63.4,367-84.5,556.5-87.1c76.5-1,153.2,1.6,229.5,10c93.1,10.2,182.8,31.9,265,77.9
			c109.5,61.2,184,149.9,209,275.4c11.9,59.5,14.4,120.1,16.6,180.5c2.3,63.1,2.1,126.3,5.7,189.2c5.6,99.3,2,198.3-7.1,297.1
			C1926.3,2472.9,1911.8,2540.1,1883.4,2608.7z M2872.1,1684.4c5.7-73.9-34.4-105.4-82.2-124.4c-10.3-4.1-19.5-3.7-29.4,1.7
			c-37.4,20.6-77,35.9-118.5,46c-11.4,2.8-17.4,8.6-19.4,20.5c-13.1,77.9-1.2,148.7,56.8,207.2c17.4,17.5,17.1,18.7-4.1,32.4
			c-26.9,17.3-40.4,40.8-41.7,73.6c-2.8,72.8,13.8,140.4,48.6,204c10.4,18.9,9.4,20.8-11.5,24.3c-3.8,0.6-7.7,1-11.5,1.3
			c-62.2,5.9-112.7,60.6-114.3,123.2c-0.5,20.1,4.2,39.7,5.6,59.5c0.4,5.4,4.9,12.3-2,15.6c-6,2.8-10.5-3.4-14.8-6.9
			c-10.5-8.5-20.6-17.5-31.2-25.9c-57.1-45.3-137.9-14.4-150.1,57.3c-2.1,12.7-4.1,25.4-6.3,38.1c-1.8,10.8-6.2,14-14.2,4.2
			c-7.7-9.5-15.4-19-23-28.6c-49.5-62.5-139.9-84.6-213.2-52.6c-12.8,5.6-20.5,13.3-23.7,27.6c-9,39.6-21.8,78.1-38.8,115.1
			c-17.6,38.2-17.9,38.3,13.7,65.6c80.3,69.2,193.1,59.8,266.3-11.8c17.9-17.5,16.9-18.2,37.1-2.1c35.4,28.4,75.9,41.3,120.7,35
			c73-10.4,117.6-53.8,136.4-124.2c2.9-10.9,6.2-18.1,19.1-20.3c139.9-23.4,219.1-135.4,195.2-275.9c-2.1-12.3,0.8-20.1,10.5-28.2
			c83.8-69.6,92.2-194.5,18.3-275.5c-9.1-10-11.2-18-6-30.8C2863.5,1783.2,2871.8,1734.5,2872.1,1684.4z M2157.8,2288.7
			c57.6,0.3,103.3,14,144.3,42c10.2,7,15.4,6.3,23-4.1c38.4-52.6,89.7-72.9,153.7-58.2c10.9,2.5,15.7,1.5,18.9-10.8
			c14.3-56.3,48.1-97.5,100.5-122.8c12.1-5.8,16.1-11.5,10.7-25.2c-21.7-55.3-29.9-113-27.1-172.3c1.3-28.3,8.5-54.9,26.3-77.3
			c8.2-10.3,8.5-18.2,1.1-29.1c-39-57.1-48.7-121.3-41.3-188.3c2.1-18.8-4.1-18.8-17.8-16.6c-47.1,7.5-94.7,11.3-142.3,10.2
			c-91.8-2.3-182-16-269.1-45.8c-15.6-5.3-20.2-2.9-19.8,14.2c3,137.2-1.1,274.2-7.3,411.2c-2.2,48.8-7.2,97.5-10,146.3
			c-2.3,40.5-6.1,80.8-12,120.9c-2.1,14.5,2.5,18.6,17.1,13.9C2125.8,2290.9,2145.6,2288.2,2157.8,2288.7z"/>
		<path class="st0" d="M1043.6,2098.4c0-27.7-0.6-55.4,0.2-83.1c0.4-14.9-3.4-21.2-20-22.7c-62.5-5.8-122.8-21.2-181-45
			c-12.5-5.1-16.4-11-9.4-23c2.3-3.9,4.1-8.1,5.3-12.4c4.5-15.2,12.5-17.5,27.3-11.4c72.2,29.8,147.8,43.9,225.9,43.7
			c120.7-0.4,232.5-32.2,334.6-97.2c5.9-3.8,12.7-13.4,20-5.8c9.5,10,19.9,20.7,22.1,35.2c0.8,5.2-5.7,8.1-9.9,10.9
			c-36.8,24-75,45.2-116.4,60c-13.5,4.8-19.7,11.4-19.2,26.3c2.7,88.1,4.5,176.3,7.1,264.4c0.6,19.4-1,38.7-4,57.7
			c-5.7,35.7-25.8,62.4-59.1,75.7c-45.5,18.2-92.6,24.6-141.4,10.8c-36.5-10.4-57.4-35.3-69.5-68.9c-5.9-16.3-9-33.7-9.1-51.1
			c-0.4-54.7-0.1-109.4-0.1-164.1C1045.8,2098.4,1044.7,2098.4,1043.6,2098.4z M1095.8,2096.6c-2.1,56,2.4,111.9,3.8,167.9
			c1.3,49.7,24,73.4,70.3,73.7c23,0.1,46.1-2.9,68.4-10.5c21.6-7.4,33.2-21.7,37.5-44.4c4.9-25.9,0.7-51.3,0.1-76.9
			c-1.6-71.4-3.2-142.8-4.4-214.2c-0.2-12.6-2.1-19.3-17.6-15.3c-46.9,12-94.8,17.6-143.1,19.8c-12,0.6-15.3,6-15.2,17
			C1096,2041.3,1095.7,2069,1095.8,2096.6z"/>
		<path class="st0" d="M1114.3,872.8c-112.7-2.9-232.5,4-352.3,2c-57.2-0.9-114.7-1.6-170.5-17.5c-127.8-36.2-205.4-119.9-235-248.7
			c-6.8-29.5,7.5-42.3,37.9-35.6c12.4,2.7,10.8,13.5,12.1,21.5c9.3,53.7,33.4,100,70.5,139.3c46.8,49.5,105.9,74.3,172.5,82.1
			c86,10,172.2,6.5,258.5,5.6c190.1-2,380.2-0.7,570.2-2.5c59.7-0.6,119.7-1.5,178.7-14.8c62.5-14,118.4-39.6,162-87.9
			c8.1-9,14.5-19.6,22-29.2c4.7-6.1,5.3-18.6,16.5-15.6c12.9,3.5,26.2,8.5,35.6,18.4c5.1,5.4-1.5,12-4.4,17.4
			c-33.6,61.2-86.8,99.3-149.5,125.5c-55.9,23.4-115,32.7-175.2,35.3C1416.5,874.6,1268.9,870.4,1114.3,872.8z"/>
		<path class="st0" d="M2195.1,967.7c0.8-85.8,2.8-171.7,27.7-254.5c33.9-112.7,101.6-195.2,219-226.7
			c149.8-40.2,292.4,51.9,319.9,204.7c7.3,40.6,11.7,81.6,11.6,122.9c-0.1,67.6,4.6,135.1,0.3,202.8
			c-7.2,114.5-26.9,225.1-90.2,323.7c-5,7.9-8.7,21.4-18.5,20.1c-13.9-1.8-24.3-13.7-34.7-23.2c-4.9-4.4-0.4-9.6,2.5-13.8
			c66.1-95.6,82.6-205.1,88.8-317.5c4.8-87,1.2-173.8-4.6-260.5c-3.5-52.1-14.9-102.5-50-143.5c-78.4-91.8-213.7-98-307.7-15.6
			c-60.1,52.6-87.8,121.4-99.4,197.7c-18.2,119.8-16.1,239.9-2.2,360.1c3.6,31.6,8.9,62.5,21.2,91.8c10.7,25.7,26.8,46.7,52.2,59.8
			c13.8,7.1,13.8,19.3,2.1,42.9c-7.4,14.9-17.4,7.5-25.9,3c-55.4-29.3-81.1-79.4-92.3-137.9
			C2200.1,1126.1,2194.5,1047.1,2195.1,967.7z"/>
		<path class="st0" d="M1190.2,1137c215,1.9,416.6,52.5,600.3,167c59,36.8,112.2,80.3,144.9,143.9c4.2,8.2,14,18.3,7,26.1
			c-9.3,10.3-24.3,13.9-38.4,15.8c-5.9,0.8-8.2-5.5-10.4-10.1c-26.8-57.3-73.5-95.6-125.1-128.3c-137.8-87.4-288.7-137.5-450.7-155
			c-269.9-29.1-520.3,32.8-756.4,161.6c-81.7,44.6-158.5,96.2-230.8,154.7c-6,4.8-12.4,15.3-21.1,9.4c-11.6-7.8-21.4-19.1-25.7-32.8
			c-2-6.4,6.4-10.4,11.3-14.4c80.3-65.1,165.9-122.1,257-171c144.3-77.5,297-130,459.2-154C1070.4,1141.2,1130,1135.4,1190.2,1137z"
			/>
	</g>
</g>
</svg>
