<?xml version="1.0" encoding="utf-8"?>
<!-- Generator: Adobe Illustrator 23.0.0, SVG Export Plug-In . SVG Version: 6.00 Build 0)  -->
<svg version="1.0" xmlns="http://www.w3.org/2000/svg" xmlns:xlink="http://www.w3.org/1999/xlink" x="0px" y="0px"
	 viewBox="0 0 3000 3000" style="enable-background:new 0 0 3000 3000;" xml:space="preserve">
<style type="text/css">
	.st0{opacity:0.43;}
	.st1{stroke:#000000;stroke-width:10;stroke-miterlimit:10;}
</style>
<g id="Layer_1" class="st0">
</g>
<g id="Layer_2">
	<g>
		<path class="st1" d="M577.9,1460.2c71.4,17.2,143.3,27.6,215.4,36c134.2,15.7,268.8,26.4,403.8,31.6
			c167.1,6.5,334.4,8.6,501.7,8.7c135.8,0.1,271.6-0.8,407.3-4.4c162.5-4.3,322.3-27.3,478.9-72.1c49.8-14.2,101.1-21.9,153.5-14.9
			c79.8,10.6,138.3,60.7,157.6,138.9c24.8,100.5,13.5,199-20.9,295.6c-29.1,81.7-76.1,152.2-136.2,214
			c-23.5,24.2-49.2,46.1-86.2,45.1c-36.8-1-63.9-18.5-80-51.1c-15.7-31.6-5.7-59.8,15.3-85.4c16.8-20.5,39.3-34.6,58.3-52.7
			c52.9-50.3,78.4-114.1,93.2-189.1c-25.2,27.7-42,55-58.3,82.4c-19.4,32.7-39.6,64.9-63.5,94.6c-63.7,79.2-151.3,78.3-213.8-2.2
			c-19-24.5-33.2-51.7-47.9-78.8c-12.7-23.4-26.2-46.4-50.1-64.8c0,15.3,0.5,30.7-0.1,46c-2,49.8-3,99.6-7.3,149.2
			c-3.3,38.7-35.2,57.3-72.5,46c-20.1-6.1-35.8-19.1-50.2-33.5c-91-91-195.6-162-313.1-214c-5.3-2.3-10.2-4.7-16.4-5
			c-38.8-1.8-43.9,4.5-33.7,41.9c14.8,54,48.6,96.7,83.2,138.7c19.8,24.1,41.3,46.9,64.1,72.6c-125.9,4.7-238.5-14.6-315.3-124.8
			c-24.8-35.6-51.7-69.6-90-92.2c-24.6-14.5-50.3-29.7-79-13c-30,17.4-37.2,47.3-36.6,79.7c0.7,43.2,16,83.4,25.8,124.7
			c1.8,7.5,4,15,7.1,26.5c-36.1-28.7-68.9-55.2-102.2-81.1c-66.3-51.6-135.5-98.9-207-142.9c-15.1-9.3-30.9-17.4-48.4-21
			c-24.3-4.9-41.3,7.2-44.9,31.6c-3.4,22.8,1.7,44.4,11.5,64.9c9,18.9,18.5,37.6,28.4,56c25.8,47.8,26.8,95.7,1.1,145.9
			c-123.8-137-265-252-425-349.7c-8.8,66.3-6.7,129.6,4.8,192.8c11.6,63.5,36.7,122.5,58.1,184.5c-21.2-16.4-42.6-32.5-63.7-49.1
			c-118.1-93-219.6-200.5-293.5-332.6c-66.4-118.7-160.2-207.9-286-261.9c-10.2-4.4-20-9.7-29.9-14.8c-0.9-0.5-1.3-2-3.3-5.1
			c16.2-3.7,31.5-7.8,47.1-10.7c68.4-12.7,115.8-54.9,154.8-109.2c27.8-38.6,46.5-81.9,65.2-125.2c28.8-66.7,53.7-135.4,96.3-195.3
			c17.5-24.7,35.5-48.9,61.2-65.8c29.7-19.6,62.2-27.7,97.3-21.1c34.7,6.5,47.6,37.4,28,66.9c-9.4,14.2-21.4,26.5-31.4,40.3
			c-27.9,38.4-46.6,80.5-48.3,128.7c-0.8,23.8,3.8,27.3,25.8,17.6c52-22.9,97.5-56.2,141.6-91.3c92.3-73.4,174.1-157.1,248.2-248.8
			c32.8-40.5,76.4-58.7,129.1-50.2c44,7.1,57.8,44.9,29,79.8c-13.3,16.2-28.1,31.1-42.1,46.8c-41.7,46.8-61.6,101.1-57.4,164.1
			c1,15.3,4.4,18.7,19.6,12c99.6-43.8,189.5-103.5,277.5-166.6c98-70.3,195.8-140.9,305.8-192c16-7.4,31.9-15.3,49.3-19.1
			c18.4-4,37-7.2,50.7,10c14.2,17.8,7.7,36.1-1.8,53.3c-27.5,50.2-61.2,96.3-98.1,139.7c-33.8,39.8-57.6,82.5-59.3,135.7
			c-0.1,4.5,0,9,0,13.9c10.7,0.2,17.2-7.2,24.7-11.7c94.9-57,191-112,283.8-172.5c23-15,44.4-32.5,67.5-47.5
			c27.7-18,57.6-20.4,88.2-7.3c36.1,15.5,45.5,51.6,20.6,82c-27,32.9-54.6,65.4-82.8,97.4c-24.6,27.8-35.2,60.6-38.7,96.7
			c-1.4,13.8,3,13.3,14,9.8c106.8-33.7,205.2-83.7,291.2-155.4c102.4-85.3,217-102,341.4-66c87.3,25.3,145.5,103,149.6,194
			c1.7,37.6-3.5,74.4-10.6,111c33-54,37.2-112,23.2-172.4c-14.2-61.4-51.7-106.4-103.5-141.2c71.3-42.9,169-25.2,226.6,38.8
			c47.8,53.1,67.2,117.4,76.7,185.9c6.7,48.6,4.4,96.8-8,144.4c-22.5,86.4-89,143.1-180.3,155.5c-64,8.7-127,0.8-189.9-8.9
			c-116-17.9-232.5-31.6-349.4-41.6c-160.8-13.8-322-20.9-483.5-20c-199.5,1-398.4,12.2-596.8,34.4
			c-181.2,20.3-360.9,49.3-539.1,87.4C582.5,1458.4,580.3,1459.4,577.9,1460.2z M1520.7,1147.6c-7.1-22.5-6.7-43.6-8.3-64.4
			c-4.6-63,8.8-121.4,48.8-171.6c32.3-40.5,64.3-81.2,93.1-124.3c4.4-6.6,8.3-13.5,14.7-24c-7.7,2.9-10.7,3.8-13.5,5.1
			c-75.7,33.8-146.1,76.5-214,123.8c-101.6,70.8-199.9,146.6-309.8,204.9c-44.6,23.7-90.5,44.5-138,61.6c-5.7,2.1-11.6,7.4-14.5-4.2
			c-23-94-15.2-182.3,48.2-260.2c15.9-19.5,33-37.9,51.5-59c-29.4-3.6-52.1,3.6-72,20.5c-15.2,12.9-26,29.4-38.7,44.4
			c-102.1,121.1-216,228.8-353.7,309.1c-20,11.6-40.9,20.5-64.7,20.6c-29.2,0.1-48.7-15-54-43.6c-2.2-11.6-2.9-23.3-1.9-35.2
			c5.2-60.1,29-112.4,66.1-159.1c5-6.3,11.7-11.6,13-20.7c-36.7,1.3-59.7,15.8-86.8,51.4c-41.1,53.8-66.5,115.7-91.9,177.4
			c-42.8,103.9-89.5,204.6-194.7,264.7c6.2,4.4,10.8,7.8,15.5,10.9c76.1,48.9,139.6,110.5,188.1,187.2
			c43.4,68.6,82.9,139.9,137.2,201.2c33.3,37.6,67.2,74.4,109,108.9c-23.5-105.7-23.9-207.4,0.3-310.4
			c152.8,83.9,289.6,187.3,415.9,305.9c-6.5-17.4-14.4-33.7-22.9-49.6c-12.9-24.1-20-49.8-22.6-76.8
			c-6.6-69.5,45.7-114.5,113.1-97.3c22.5,5.7,42.7,16.9,62.1,29.1c61.1,38.3,120.8,78.7,178.6,122c5.1,3.8,9.2,9.4,18.5,9.8
			c-2.7-17.8-2-35.2,0.1-52.5c9.8-81.6,83.6-125,158.7-92.6c36,15.5,65.9,39.8,92.4,68.7c28,30.4,47.8,67.6,78.8,95.4
			c34.8,31.3,75.8,48.5,126,55.7c-12.7-17.2-23-30.7-32.8-44.5c-28.4-40.1-50.2-83-56-132.6c-4-33.8,11.8-58.3,44.3-66.5
			c28.7-7.2,56.6-5.1,84.3,7.3c119.7,53.9,226.1,126.8,319.5,219c8.4,8.3,17.2,16.1,27.6,21.9c9.9,5.5,16.2,4.6,16.7-8.3
			c0.9-22.3,1.9-44.5,2.8-66.8c2.3-60.9,4.5-121.9,7-182.8c0.2-6-2.9-15.9,10.7-11.3c31.5,10.7,60.2,25.1,82.2,51.3
			c22.1,26.3,38.3,56.2,54.1,86.3c13.5,25.6,28.8,49.9,50.3,69.9c35.9,33.5,72,33.5,107.4-0.9c25.1-24.4,44.3-53.4,61.3-83.9
			c17-30.4,35.6-59.6,56.4-87.5c29.9-40.1,70.3-65.4,117.5-84.2c-5.4,48.3-11,95-23.1,140.6c-21,78.6-57,147.6-123.3,198.1
			c-12.5,9.5-24.4,20-33.8,32.8c-12.1,16.3-10.8,27.7,4,41.2c19.9,18,40.8,17.2,65.9-7.2c124.8-121.6,185.5-268.1,165-443.4
			c-11.3-96.3-73.1-143.9-169.7-136.9c-31.5,2.3-62.5,7.5-92.9,15.7c-100,26.8-200.7,49.5-303.9,60.4
			c-115,12.1-230.3,15.3-345.8,15.8c-209.9,0.9-419.8,1.8-629.7-3.5c-154.8-3.9-309.2-13.2-463.3-28.8
			C711,1537,571.9,1514.9,434,1485.3c-28.4-6.1-56.7-12.4-87.8-19.2c4.3-2.9,5.1-3.9,6.2-4.2c192.3-46.7,385.8-87.6,581.8-115.8
			c194.2-27.9,389.3-46.2,585.4-53.8c192.2-7.5,384.3-5,576.2,7.5c155.1,10.1,309.4,26.9,463.2,49.8c57.7,8.6,115.4,17.6,174.1,9.8
			c62.2-8.2,113.1-35.3,134.9-96.4c36.2-101.2,22.7-199.1-33.4-290c-22.8-37-58.5-59-103-66c0.7,8.3,6,12.7,9.5,17.9
			c64,96.1,61.9,230.5-4.7,320.2c-6,8-11.5,12.9-22.5,11.5c-25.9-3.5-51.9-5.7-79.8-8.7c3.9-9.4,7-17.8,10.8-26.1
			c18.9-41.1,28.2-84.4,26.4-129.4c-2.7-66.1-30.5-120.6-92.7-146c-102.6-41.9-203.6-37.1-296.4,30.4c-18,13.1-35.2,27.4-53.1,40.6
			c-103.1,76-217.7,127.5-341.5,159.1c-11.3,2.9-14.5-0.6-14.4-10.6c0-18.4-0.7-36.8,0.5-55.1c3-46.6,13.7-90.9,44.1-128
			c24.5-29.9,50.2-58.9,75.3-88.3c5.7-6.7,18.3-13.6,13.5-21.5c-6-9.7-20.1-7.7-31.1-5.2c-9.7,2.1-17.7,8.2-25.7,14.1
			c-9.5,7-18.7,14.4-28.5,21c-98,66.9-201.1,125.5-302.6,186.8C1586.5,1109.3,1553.8,1128.2,1520.7,1147.6z"/>
		<path class="st1" d="M1624.5,1465.7c-229.5,0-459.1,0-688.6-0.2c-6.5,0-17.1,4.3-18.8-4.5c-2.6-13.2-4.1-27.6,0.9-40.5
			c2.1-5.4,10.8-2.5,16.5-2.5c228.9-0.5,457.7-3.5,686.6-1c229.5,2.5,459,4.6,688.5,7.2c8,0.1,20.8-3.8,23,4.9
			c3.3,12.9,1.8,27.4,0.1,40.9c-0.8,6.1-8.8,3.1-13.8,3C2087.5,1468.3,1856,1465.8,1624.5,1465.7z"/>
		<path class="st1" d="M2028.8,1040.5c-10.5,0-22.5,1.4-28.5-8.8c-6.5-10.9,0.1-21.8,6.2-31.1c23.8-36.5,54.2-66.9,88.5-93.7
			c32.4-25.4,64.2-51.6,96.2-77.6c29.9-24.3,64.1-40.1,101.1-49.9c9.6-2.5,20.4-5.8,27.2,3.7c6.9,9.6-0.6,18.8-5.3,27.1
			c-8.5,14.9-19.8,27.7-31.6,40c-60,62.5-126.1,118-196.1,168.8C2069.3,1031.5,2051,1041.4,2028.8,1040.5z"/>
		<path class="st1" d="M1390.1,2078.9c-0.1,19.1-8.1,25.1-26.1,17.4c-31.1-13.3-57-34.6-80.9-58c-30-29.3-58.5-60-87.9-89.8
			c-20.1-20.4-34-44.7-45.1-70.7c-3.6-8.3-10.5-19-1.1-27.3c9.3-8.3,18.7-0.3,26.9,4.1c26.8,14.3,49.5,34.3,71.8,54.4
			c43.3,39.1,84.6,80.1,123.1,123.9C1382.5,2046.2,1390.5,2060.8,1390.1,2078.9z"/>
		<path class="st1" d="M1682.7,953.9c-23.2,0-29.9-9.1-21-27.4c14.2-29.1,35-53.8,58.4-75.9c32.9-31,66.4-61.4,100.2-91.4
			c21.3-18.9,46.5-31.6,73.5-40.4c7-2.3,16.3-5,21.9,2.2c5.7,7.2,0.6,15.1-2.9,22c-9.7,18.8-23.3,34.9-37.6,50.2
			c-50.5,54.1-102.2,106.9-162.6,150.3C1702.5,950.7,1691.4,953.4,1682.7,953.9z"/>
		<path class="st1" d="M969.1,2066.7c-0.1,27.2-8.1,33.3-25.9,25.8c-30.6-12.9-56.1-33.7-79.6-56.4c-31-30-60.6-61.6-90.6-92.7
			c-20.7-21.5-35.5-46.8-45.8-74.7c-2.6-7.1-6.9-15.2,0.3-22c8.1-7.5,16.4-1.7,23.6,2c27.7,14.1,50.9,34.5,73.8,55
			c43.9,39.4,85.7,80.9,124.6,125.2C961.1,2042,969.5,2056.4,969.1,2066.7z"/>
		<path class="st1" d="M1736.5,2100.9c0.3,28.7-8.1,34.9-27,26.6c-30.2-13.4-55.9-34-79.3-56.8c-30.4-29.7-59.7-60.7-89.2-91.3
			c-21.6-22.5-37.2-48.7-47.3-78.2c-2.4-6.9-4.9-14.3,2.1-19.9c6.1-4.8,12.5-1.6,18.5,1c22,9.4,40.1,24.6,58.1,39.8
			c51.7,43.5,99.1,91.4,144.1,141.7C1728.3,2076.8,1736.6,2091.2,1736.5,2100.9z"/>
		<path class="st1" d="M2145.8,2075c0,19-8,25.1-26,17.4c-30.5-13-56.1-33.8-79.5-56.5c-31-30.1-60.4-61.8-90.6-92.7
			c-19.5-20-33-43.9-43.7-69.2c-3.5-8.4-10.5-19-1.2-27.3c9.3-8.3,18.7-0.3,26.9,4.1c26.8,14.3,49.5,34.3,71.8,54.5
			c43.3,39.1,84.7,80,123.1,123.9C2138.1,2042.3,2146.4,2056.8,2145.8,2075z"/>
		<path class="st1" d="M641.7,1088c-20.3,0.8-17.8-13-15.1-24.2c8-32.7,23.5-62.2,42-90.1c23.4-35.4,47.2-70.6,71.8-105.2
			c17.2-24.2,39.4-43.7,64.8-59.1c6.6-4,14.5-8.6,21.8-2.6c6.4,5.3,4.1,13.7,2.2,20.3c-3.2,11.3-7,22.6-12.2,33
			c-35.7,72.3-80.3,139.1-129.8,202.6C673.3,1080.6,657.7,1088.1,641.7,1088z"/>
		<path class="st1" d="M1132.2,994.7c-18.6,0.3-24.1-7.5-16.8-26.7c11.4-29.6,30.1-55.1,50.9-78.6c30.3-34.3,61.8-67.6,93.2-100.9
			c17.7-18.7,39.8-31.8,62.7-43.2c9.4-4.7,21.4-9.7,29.1-1.1c7.3,8-0.3,18.7-4.7,27.2c-17.8,34.6-42.3,64.6-67.5,93.7
			c-32.9,38.1-65.9,76.2-103.2,110.3C1163.5,986.9,1149.6,994.6,1132.2,994.7z"/>
		<path class="st1" d="M469.4,1322.7c21.6,0,43.3,0.9,64.8-0.3c14.3-0.8,17.6,4.3,17.6,17.7c0,31,0.7,30.9-30.8,31
			c-39.3,0.2-78.6-0.1-117.9,1.3c-15,0.5-20.3-4-18.3-18.5c0.7-5.1,0.5-10.5-0.1-15.7c-1.3-10.9,2.6-15,14-14.6
			c23.6,0.8,47.1,0.2,70.7,0.2C469.4,1323.5,469.4,1323.1,469.4,1322.7z"/>
		<path class="st1" d="M1909.9,1658.4c15.7,0,31.5,0.4,47.2-0.2c9.9-0.4,14,2.5,13.8,13.2c-0.7,43.2,3.6,34.8-33.2,35.5
			c-25.6,0.4-51.2-0.6-76.7,0.4c-13.8,0.5-19.3-4.2-17.6-17.9c0.6-4.5,0.6-9.2,0-13.7c-1.9-13.7,3.6-18.5,17.4-17.5
			C1877.1,1659.3,1893.5,1658.4,1909.9,1658.4z"/>
		<path class="st1" d="M1894.6,1188.8c11.8,0,23.6-0.1,35.4,0c30.1,0.4,25-3.3,26.7,26c1,17.3-3.2,24-22.1,22.9
			c-29.4-1.8-59-1-88.5-0.2c-12.5,0.4-16.9-2.9-16.7-16.1c0.4-32.5-0.3-32.5,31.8-32.6C1872.3,1188.8,1883.5,1188.8,1894.6,1188.8z"
			/>
		<path class="st1" d="M627.8,1606.2c-3.3,0-6.6,0-9.8,0c-36.4,0-36.2,0-32.8-35.7c0.7-7.1,2.3-10.5,10.1-10.6
			c20.2-0.4,40.5-1.3,60.7-2.5c11.7-0.7,17.2,3.7,16,15.9c-0.5,5.2-0.5,10.5,0,15.7c1.3,12.5-3.4,18.4-16.6,17.4
			C646.2,1605.6,637,1606.2,627.8,1606.2z"/>
		<path class="st1" d="M759.5,1615.5c-5.9,0-11.8,0.1-17.6,0c-30.4-0.5-24.4,4-26.4-25.7c-1.2-18,4.3-24.4,22.3-22.2
			c11.6,1.4,23.5,0.1,35.2,0.1c28.8,0,38.3,13.5,30,41.4c-1.8,6.1-5.6,6.3-10.2,6.3C781.7,1615.5,770.6,1615.5,759.5,1615.5z"/>
		<path class="st1" d="M484.5,1599.4c-5.9,0-11.8,0.1-17.6,0c-26.6-0.5-23.1,4.7-25.1-25.4c-1.3-19.8,5.9-24.9,24.2-23.2
			c16.2,1.5,32.6,0.7,48.9,0.2c9.8-0.3,13.6,2.7,14.1,13.2c1.8,35.2,2.2,35.2-32.8,35.2C492.3,1599.4,488.4,1599.4,484.5,1599.4z"/>
		<path class="st1" d="M746.5,1328.1c-5.2,0-10.4,0-15.7,0c-27.7,0-26.9,0-27.8-28.3c-0.5-15,3.3-20.9,19.2-19.6
			c16.8,1.4,34,1,50.8-0.2c14.3-1,18.8,4.6,17,17.9c-0.6,4.5-0.6,9.2,0,13.7c1.6,12.5-2.9,18.1-16.1,16.7
			C764.9,1327.3,755.7,1328.1,746.5,1328.1z"/>
		<path class="st1" d="M1040.4,1280c-5.9,0-11.9-0.9-17.6,0.2c-21.2,3.8-24.6-6.5-24-25.1c0.6-17.8,4.8-27,24.4-23.9
			c8.3,1.3,17,0.5,25.5,0.6c32.9,0.4,38.6,8,31.9,40.6c-1.4,7-4.9,8.3-10.7,8.2c-9.8-0.1-19.6,0-29.5,0
			C1040.4,1280.4,1040.4,1280.2,1040.4,1280z"/>
		<path class="st1" d="M1053,1664.4c-3.3,0-6.5,0-9.8,0c-33.2,0-27.6,4.3-29.3-28.9c-0.8-15.1,3.5-21.1,19.3-19.9
			c15.5,1.2,31.2,0.1,46.8-0.6c9.3-0.4,13.7,1.5,14.1,12.5C1095.6,1663.6,1096.2,1663.6,1053,1664.4z"/>
		<path class="st1" d="M883.6,1278.4c-1.3,0.1-2.6,0.1-3.9,0.2c-36.8,1.7-36.5,1.7-35.1-34.6c0.4-8.9,2.8-13.3,12.2-13.3
			c17.7-0.1,35.4-0.3,53-1.3c10.2-0.6,13.2,3.4,13.9,13.4C926.1,1276.5,926.5,1276.5,883.6,1278.4z"/>
		<path class="st1" d="M897.9,1618c3.9,0,7.8-0.1,11.8,0c27.9,0.8,26.7,0.9,27.6,28.8c0.5,17-5.5,21.7-21.2,19.7
			c-9.7-1.2-19.6-0.3-29.4-0.8c-28.8-1.4-36.7-13.4-27.9-41.5c2-6.4,5.9-7.9,11.7-7.8c9.1,0.1,18.3,0,27.4,0
			C897.9,1617,897.9,1617.5,897.9,1618z"/>
		<path class="st1" d="M2612.9,1573.3c1.3,0,2.6,0,3.9,0c30.7-0.2,39.8,12,31.7,41.7c-2,7.4-6.8,6.7-11.9,6.8
			c-11.1,0.2-22.2,0.2-33.2,0.3c-30,0.2-29.2,0.1-30.1-29.9c-0.4-14.1,2.9-20.8,18.1-18.9c7,0.9,14.3,0.2,21.5,0.2
			C2612.9,1573.4,2612.9,1573.4,2612.9,1573.3z"/>
		<path class="st1" d="M1360.3,1716.4c-2,0-3.9,0-5.9,0c-30.4,0-37.3-9.3-30.4-40.1c1.5-6.5,4.7-8.6,10.7-8.6c17,0,34,0.2,51-0.1
			c8.5-0.2,10.7,3.5,11.3,11.7C1399.7,1716.5,1400,1716.4,1360.3,1716.4z"/>
		<path class="st1" d="M2597.6,1322.4c-4.6,0-9.2-0.6-13.7,0.1c-18.8,2.9-25.1-4.5-23.8-23.6c1.7-25.2,0.5-25.3,25.8-25.2
			c7.2,0,14.3,0.1,21.5,0.1c26.2,0.2,25.2,0.2,26.4,26.4c0.9,17.7-4.3,25.6-22.6,22.5c-4.4-0.8-9.1-0.1-13.7-0.1
			C2597.6,1322.6,2597.6,1322.5,2597.6,1322.4z"/>
		<path class="st1" d="M2056.4,1617.3c2.6,0.2,5.2,0.4,7.8,0.5c31.3,1.9,30.5,1.9,28.6,33.2c-0.8,13.2-5.9,16.9-18,15.5
			c-8.4-1-17-0.5-25.4-1c-31.7-2.1-37.4-10.7-29.3-42.3c1.7-6.7,5-8.3,10.9-7.9C2039.5,1616,2047.9,1616.6,2056.4,1617.3z"/>
		<path class="st1" d="M1344.6,1228.2c-3.3,0-6.6-0.5-9.8,0.1c-21.2,3.9-25.5-5.8-25.4-25.5c0.1-18.4,4.1-26.6,23.5-23.6
			c7.6,1.2,15.6,0.2,23.4,0.2c26.6,0.1,26.8,0.1,26.4,26.4C1382.5,1233.4,1384.2,1227.6,1344.6,1228.2z"/>
		<path class="st1" d="M1221.7,1711.4c-2.6,0-5.2,0-7.8,0c-29.9,0.3-29.1,0.2-30-29.7c-0.4-14.2,3.1-20.3,18-19.4
			c14.9,0.9,30,0.7,44.9-0.1c10.5-0.6,12.9,3.6,13.3,13.5C1261.4,1711,1261.7,1711,1221.7,1711.4z"/>
		<path class="st1" d="M2187.4,1666.7c2.2,0-1.1,0.1-4.3,0c-28.3-0.8-27.5-0.8-26.3-29.1c0.6-14.6,4.6-21.8,20.6-19.1
			c7.6,1.3,15.6,0.6,23.4,0.6c31.9,0.2,30.9,0.2,30.1,30.2c-0.4,17-6.9,21.8-22.4,18.6C2203.3,1666.9,2198,1667.2,2187.4,1666.7z"/>
		<path class="st1" d="M1209.4,1233.3c-3.9,0-7.9,0.1-11.8,0c-29.5-0.7-25.7,5.4-27.1-27.4c-0.7-17.1,3.9-24.2,21.7-21.8
			c10.3,1.4,21.1,1.5,31.4,0.2c18.3-2.2,25.5,3.3,24,23.1C1245.8,1233.2,1247.3,1233.3,1209.4,1233.3z"/>
		<path class="st1" d="M2327,1665.4c-35.2,0.6-35.6-0.2-33-36.9c0.6-8.5,3.2-11.6,11.5-11.3c9.2,0.4,18.4-0.1,27.5-0.2
			c31.7-0.3,36.3,5.6,30.9,38c-1.2,7.1-4.2,10.6-11.4,10.5C2344.1,1665.3,2335.5,1665.4,2327,1665.4z"/>
		<path class="st1" d="M2040,1278.9c-34.3,2.4-33.9,2.4-34.5-32.5c-0.1-9.6,1.6-14.8,12.3-15c15.7-0.2,31.4-0.9,47-2.2
			c10.7-1,12.9,3.6,13.4,13.4C2080,1276.1,2080.4,1276.1,2040,1278.9z"/>
		<path class="st1" d="M2176.7,1276.8c-34.1,0.7-37.2-3.1-33.7-38.6c0.7-7.1,3.3-8.8,9.6-8.8c12.4-0.1,24.9-0.5,37.3-1.1
			c25.4-1.2,25.4-1.3,26.3,23C2217.1,1278.7,2220.8,1276.3,2176.7,1276.8z"/>
		<path class="st1" d="M2315.5,1278.8c-0.7,0-1.3,0-2,0c-32.6-0.3-38.3-8-31.8-40.5c1.7-8.6,6.8-8.2,12.7-8.2
			c14.4,0,28.8,0.6,43.2,0.1c9.8-0.3,11.8,4.1,12.2,12.9C2351.7,1279.2,2351.9,1279.2,2315.5,1278.8z"/>
		<path class="st1" d="M1672,1226.1c-1.3,0-2.6,0-3.9,0c-32.8-0.4-32.2-0.4-30.8-32.7c0.5-11.8,3.7-16.7,15.8-15.4
			c8.4,0.9,17-0.2,25.5,0.4c8.9,0.6,21.6-4.6,25.8,3c6.3,11.2,1.9,25.5,1.3,38.4c-0.3,6.1-5.4,6.6-10.1,6.6c-7.9,0.1-15.7,0-23.6,0
			C1672,1226.3,1672,1226.2,1672,1226.1z"/>
		<path class="st1" d="M2458.4,1322.7c-2.3,0-3,0-3.6,0c-32.6,0-35.6-3.9-30.8-37.3c1-6.8,3.5-8.8,9.8-8.7c7.1,0.1,14.1-0.7,21.3-2
			c31.5-5.5,33.9-2.1,34.8,29.7C2490.6,1334,2468.6,1318.3,2458.4,1322.7z"/>
		<path class="st1" d="M1684.8,1717.5c-0.7,0-1.3,0-2,0c-29.8,0.2-38.7-11.8-31.2-40.8c1.6-6.1,5.1-6.7,9.9-6.8
			c9.8-0.1,19.7-0.2,29.5-0.3c28.8-0.3,27.7-0.3,29.2,29.1c0.8,16.2-4.8,21-19.7,18.9C1695.4,1716.9,1690.1,1717.5,1684.8,1717.5z"
			/>
		<path class="st1" d="M2471.3,1622c-1.3,0-2.6,0-3.9,0c-27.9,0-36.1-11.6-28.7-39.5c1.6-6,5-6.5,9.8-6.8c5.8-0.3,11.6-0.9,17.4-1.8
			c34.2-5,43.4,5,37.3,39.4c-1.2,6.9-4.4,8.6-10.3,8.5C2485.6,1621.9,2478.4,1621.9,2471.3,1622
			C2471.3,1622,2471.3,1622,2471.3,1622z"/>
		<path class="st1" d="M1499.8,1710c-29,0-38.5-13.3-30.1-41.3c1.8-6.1,5.4-6.4,10.1-6.4c9.1-0.1,18.3,1,27.3-0.3
			c19.7-2.7,27.7,3.7,25.8,24.9C1530.5,1714.7,1535.7,1709.4,1499.8,1710z"/>
		<path class="st1" d="M1490.8,1185.9c7.6,1.6,22.2-5,25.7,3.1c4.7,11.1,2.5,25.6,1.9,38.6c-0.4,9.2-9.1,6.5-13.9,5.8
			c-16-2.5-36,9-47.2-5.8c-6-7.9-1.3-24.1-0.9-36.5c0.2-5.4,5.2-4.9,9-5C1473.2,1185.8,1481.1,1185.9,1490.8,1185.9z"/>
	</g>
</g>
</svg>
