<?xml version="1.0" encoding="utf-8"?>
<!-- Generator: Adobe Illustrator 23.0.0, SVG Export Plug-In . SVG Version: 6.00 Build 0)  -->
<svg version="1.0" xmlns="http://www.w3.org/2000/svg" xmlns:xlink="http://www.w3.org/1999/xlink" x="0px" y="0px"
	 viewBox="0 0 3000 3000" style="enable-background:new 0 0 3000 3000;" xml:space="preserve">
<style type="text/css">
	.st0{opacity:0.39;}
	.st1{stroke:#000000;stroke-width:10;stroke-miterlimit:10;}
</style>
<g id="Layer_1" class="st0">
</g>
<g id="Layer_2">
	<g>
		<path class="st1" d="M2199.9,1122.2c22.5,12.1,43.2,23,61.8,37.4c70.5,54.5,102.5,129.5,110.6,215.2
			c10.7,113.8,9.2,228.2,7.6,342.4c-2.1,149.5-7,299-32.1,446.9c-15.4,90.8-36.1,180.2-67.3,267.1
			c-73.9,206-212.8,347.5-416.5,426.8c-170.2,66.3-346.8,99-528.9,101.8c-212,3.3-416.9-33.9-613.3-114.6
			c-89-36.6-171.7-83.6-240.6-152c-93.3-92.6-132.1-207.7-127.1-335.7c10.7-276.5,62.1-544.1,193.4-791.4
			c77.4-145.9,183.7-267.6,315.5-367.2c5.5-4.1,10.9-8.3,17.4-13.4c-29.2-11.7-57.7-21.6-84.7-34.4
			c-135.7-64.2-227.2-165.6-257-315.5c-19.6-98.5-4.4-194.1,33.5-286.4c70.5-171.9,200.6-285.4,362.5-366.4
			c144.2-72.2,298.9-106.8,458.6-121.6c202.3-18.8,403.8-5.6,605.1,15.8c86,9.1,172.2,16.6,256.1,38.6
			c59.3,15.5,115.7,38.5,163.3,78.4c85,71.4,112.4,165.8,102.3,272.1c-19.6,205-103.4,384.2-226.1,547
			C2265.1,1051.1,2233,1086.3,2199.9,1122.2z M959.6,2426.5c0,0-0.1,0-0.1,0c1.5,33.2,3.4,66.3,4.5,99.5
			c1.1,33.8,0.7,33.1-32.8,35.8c-13.6,1.1-16.9-2.5-17.4-16.2c-3-77.5-7.2-154.9-10.8-232.3c-0.5-11.1-2.7-18.4-15.3-23
			c-27.5-9.8-45.4-30.6-56.8-57.2c-12.7-29.8-15.7-61.3-17-93.3c-1.4-36.3-2.4-34.4-37.1-42.1c-22.5-5-28.4,2.2-33.6,22.7
			c-16.4,64.1-39.3,126.1-84.5,176c-64.6,71.3-141.8,112.3-241.7,90.4c-17.4-3.8-10.4,8.6-10.1,14.5
			c4.9,103.4,42.8,191.9,118.7,263.5c61.3,57.9,133.1,99.1,210.3,130.8c272.1,111.7,553.5,139.8,842.7,89.7
			c105.8-18.3,208.9-47.2,307.1-92.1c13-6,19.2-11.2,15.4-27.5c-5.5-23.5-7.7-47.8-10-71.9c-9.9-100.3-8.6-200.5,7.5-300.1
			c2.3-13.9-1.4-18.4-15.8-17.1c-29.1,2.5-58.1,0.3-86.8-5.1c-83.9-15.5-138.2-81.4-129.2-158.7c6.2-52.9,35.8-92.3,78.6-121.8
			c70.5-48.6,149.4-67,234.1-60.3c17.5,1.4,23.7-3.8,28.2-20.1c18.6-66,36-132.1,39.2-201.1c7.5-165-52.2-287.9-207.6-361.2
			c-99.6-47-205.3-63.9-314.6-63.3c-17.5,0.1-23.3,3.5-21.8,23.1c5.2,70.6-0.2,140.2-36,203.4c-39.8,70.1-98.5,110.7-181.6,102.7
			c-23.6-2.3-37.6,3.6-54.3,18c-15.5,13.3-23.8,22.6-11.1,42.9c7.5,11.8,10.3,27.1,13.1,41.3c17.8,90.2-17,173.8-115.8,183.7
			c-12.4,1.2-11.8,8.4-11.7,17c0.5,36.7,2.3,73.3-4,109.8c-14.1,80.8-55.8,139-135.5,165.6c-12,4-12.1,10.3-11.6,20
			C956.2,2350.5,957.8,2388.5,959.6,2426.5z M1924,707.1c4.6-7.7,7.6-13,10.7-18.2c22.5-37.3,50.1-69.6,89.2-90.6
			c72-38.7,151.3-17.3,191,54.2c42.8,77,28.8,151.6-19,220.7c-51.9,75.1-129.2,110.1-216.9,111.8c-48.5,0.9-68.8,20.3-83.6,60.4
			c-6.5,17.6-4.1,20.7,13.2,21.5c74.1,3.5,147.7,11.3,219.5,30.5c14,3.7,22.7,1.8,32.7-8.6c62.3-64.5,118.1-133.9,164-211
			c78.7-132.4,134.1-272.8,145.3-428.1c8.6-119.1-44.6-208.2-153.1-257.9c-48.2-22.1-99.2-34.6-151.1-42.6
			c-123.1-19-247.2-29.8-371.4-38.6c-173.1-12.3-345.8-11.6-517.5,17.6c-149.5,25.4-291.2,72.3-418,157.5
			C708.3,386.6,606,521.2,584.4,705.5c-15.9,134.9,28.2,249.4,134,337.7c60.1,50.2,129.9,80.4,205.3,99.1c10.8,2.7,19.1,3.6,29-2.6
			c109.7-68.9,229.8-95.4,358.5-90.1c168.8,6.9,337.8,1.8,506.6,10.7c7.3,0.4,13.4,0.3,17.4-7.5c35.1-67.7,70.8-135.8,70.6-214.6
			c-0.1-83-35.6-152.4-128-175.2c-24.3-6-48.7-10.5-73.7-11.5c-202-8.4-368.9,63.9-499.3,218.8c-8.5,10.2-14.8,10.2-23.3,1.8
			c-13.4-13.2-29.3-18-48.4-18.9c-61-3-119.4-16.4-169.1-54.7c-51.5-39.6-76.6-92-71.9-157.1c7.3-102.2,97-194,204.3-210.4
			c115.4-17.7,199.2,39.2,225.8,153.2c7,29.8,8.3,60.3,10,90.7c0.6,11.9,2.2,16.8,15,9.3c36.5-21.5,75.1-38.4,115.4-51.4
			c10.8-3.5,12.2-6.5,6.6-16.9c-45.9-85.5-27.1-178.9,47.6-240.8c86.1-71.3,230.6-74.2,319.5-6.3c47.8,36.5,71.3,85.1,71.2,145.2
			c-0.1,42.7-12.5,81.9-35.8,117.4c-6,9.2-7.4,14.4,2.7,21.5C1893.8,666.7,1908.5,685.3,1924,707.1z M1542.5,1104.7
			c-85.6,2.6-180.3-5.4-275.2-4.3c-90.8,1.1-176.3,21.1-256.6,65c-183.4,100.4-322,244.8-420,427.9
			c-120.2,224.6-166.2,468.9-184.9,719.9c-0.9,11.9,3.6,17.5,14.3,21.3c49.9,17.8,95.3,5.1,138.9-20
			c60.2-34.7,95.5-89.1,117.9-152.7c19.3-54.8,33-111.4,45.7-167.9c35.6-158.6,108.3-297.1,222.8-412.4
			c166.6-167.8,370.1-248.7,605.6-247c124.8,0.9,244.8,26.8,353.7,91.2c96.6,57.1,159.3,139.4,182.7,250.4
			c15.5,73.7,13.6,147.2,0.5,220.7c-16.5,92.2-47.6,180.3-78.9,268.3c-66.6,187.1-90.6,378.6-61,576c2.5,16.8,6.4,17.5,19.7,9.3
			c82.3-50.7,149.5-116.4,199.3-199.2c73.5-122.5,108-258,131-397.3c27.8-168.7,31.9-338.9,30.9-509.3c-0.6-94.7,4-189.7-9.9-284.1
			c-12.7-85.4-54.1-149.6-133.1-187.9c-56.9-27.6-117.9-40.2-179.9-46.6C1854.9,1110.4,1703.5,1104.2,1542.5,1104.7z M1281.1,685.7
			c-0.5-29.8-2.2-53.2-5.6-76.5c-12.2-84.2-70.6-136.3-148.8-130.8c-58.7,4.2-107.8,29.6-145.5,74.6c-71,84.8-43.6,189.9,59.2,230.7
			c35.9,14.2,73.9,16.3,111.7,20.5c27.6,3.1,49.7-2,67.2-25.1c7.8-10.3,18.2-19.6,29.3-26.2C1277.5,735.8,1289.2,712.3,1281.1,685.7
			z M1664.7,599c46.4,1.2,92.5,4,137.2,18c6.9,2.2,13.9,5.8,20.4-2.8c43.3-57.7,58.1-158-26.2-211c-23.7-14.9-49.8-24.3-77.3-28.4
			c-74.7-11-142,2.5-192.7,63.9c-38.7,46.8-41.4,114.5-7.9,159.9c7.5,10.1,14.8,15.5,29.2,12.2
			C1585.8,602.1,1625.3,599.9,1664.7,599z M933,1671.7c31.8,13.4,55.2,34.2,72.1,62.1c4.5,7.4,11.1,9.4,19,10.5
			c161.8,22.9,289.8-131.8,237.2-286.1c-5.5-16.1-11.2-20.2-27.6-13c-58.4,25.6-113.7,56.5-164.6,94.9
			C1018.8,1578.1,973.6,1621.3,933,1671.7z M2085.7,630.5c-20.7,0.5-45.7,14.2-67.8,34.2c-31,28.2-47.7,65.7-66.5,101.9
			c-2.9,5.6-1,10.6,0.1,16.1c7.3,36.4,6.9,72.8,1,109.4c-2.4,14.6-15.5,33.1-5.6,42.6c10.2,9.8,30.5,1.3,46-0.9
			c81.4-11.9,147.3-47.1,181.7-126.3c18.9-43.4,20.8-87.5-3.7-129.7C2154.4,649.4,2130.9,630.4,2085.7,630.5z M1862.3,2325.9
			c11.1,0,22.1-0.5,33.2,0.1c10.9,0.6,15.8-3.6,18.2-14.5c16.4-72.9,39.9-143.6,64.9-213.9c5.3-15,1.1-16.9-12.7-17.2
			c-31.9-0.6-63.6,0.5-94.5,9.1c-53.4,14.8-103.7,35.4-136.5,83.5c-35.3,51.8-20.9,107.1,34.8,135.8
			C1798.7,2323.9,1830.1,2327.4,1862.3,2325.9z M806.2,2048.9c22.7,0.9,49.2-7.7,71.4-24.9c65.5-50.8,101-118.4,102.3-201.4
			c0.7-42.6-19-77.1-57-99.5c-14.6-8.6-24.2-8.1-35.2,8.3c-58.9,88-95.9,184.7-118.7,287.5c-6,27-5.1,28.9,22.8,30
			C794.5,2049,797.3,2048.9,806.2,2048.9z M1055.4,2055c-0.5-58.4-2.4-59.9-61.5-56.1c-15.4,1-26.8,5.8-36.3,19.3
			c-15.2,21.7-34.1,42.7-58.5,51.6c-35.8,13.2-41.5,35.6-35.2,68.8c4.3,22.9,2.8,46.9,11.6,69.2c13.4,34.2,37,46.9,72.5,36.8
			c48.4-13.7,79-46.6,95-93.5C1053.6,2120.1,1056.1,2087.7,1055.4,2055z M1290.2,1663.4c51.5,6.5,101.6-22,130-73
			c33.1-59.3,36.2-123.5,31.1-189.2c-1.1-14.1-10.2-10.4-17.7-9.4c-39.7,5.4-78.7,14.4-117.5,24.5c-13.5,3.5-13.3,9-9,20.3
			c14.1,37.4,18.2,76.3,15.3,116.2C1319.5,1591.9,1307,1628.1,1290.2,1663.4z M1059.8,1951.3c21.5,1.4,42.8,0.9,63.9-3.8
			c34.6-7.7,55-28.3,60.3-62.7c5.2-33.6,0.1-65.9-13.5-97.2c-4.6-10.6-9.8-12.2-20.6-8c-33.2,12.9-68,18.6-103.5,17.4
			c-12.5-0.4-17.2,1.9-16,15.6c3.7,41.5-5.2,81.1-21.4,119.1c-4.9,11.5-6,17.2,9.5,16.9C1032.2,1948.3,1046,1950.3,1059.8,1951.3z"
			/>
		<path class="st1" d="M1333.3,2550.8c-49,0.2-79.1-27.4-93.3-81.5c-4.8-18.2-6.1-36.6-2.2-55.4c11.1-53.3,56.1-81.5,108.7-67.3
			c46.5,12.6,81.6,55.5,82.3,100.7c0.7,45.1-32.6,88.2-78.2,100.8C1343.4,2550,1335.7,2550.5,1333.3,2550.8z M1287.4,2436.4
			c-1.2,12.8,2.5,24.6,7.7,35.9c15.9,34.1,47.5,37.4,70.8,7.5c6-7.8,9.8-16.6,11.1-26.3c3.7-27.4-23.5-57.8-53.7-60.1
			C1301.9,2391.8,1287.7,2408.8,1287.4,2436.4z"/>
		<path class="st1" d="M1573.2,2742c-29.4,0.6-52-11.6-67.9-36.4c-16.8-26.3-26.9-54.9-24.3-86.2c3.9-48,34.9-82.1,75.8-85.4
			c48.3-4,99,31.1,112.6,77.9C1687.7,2674.8,1638.3,2741.7,1573.2,2742z M1532,2627.6c-0.2,13.4,3.3,25.9,9.2,37.8
			c15.5,31.3,43.5,34.9,67.2,8.7c7.6-8.4,12.3-18.3,13.8-29.5c3.8-27.5-23.4-57.8-53.7-60C1547.4,2583,1532.1,2601,1532,2627.6z"/>
		<path class="st1" d="M1806.7,1795.5c-5.9-44.2,31.4-93,81-92.8c57.6,0.2,109.6,49.2,110.3,104.9c0.7,54.2-46.8,103.1-100.4,103.5
			C1843.8,1911.3,1807,1864.6,1806.7,1795.5z M1856.1,1796.5c-0.3,13.4,3.3,25.9,9.2,37.8c15.5,31.3,43.5,34.9,67.2,8.7
			c7.6-8.4,12.3-18.3,13.8-29.5c3.8-27.3-23.5-57.8-53.7-60C1871.6,1751.9,1856.2,1770,1856.1,1796.5z"/>
		<path class="st1" d="M1416.6,2095.6c57,1.8,106.4,49,108.1,103.4c1.6,51.1-41.1,98.9-93.9,104.5c-23.1,2.4-43.9-3.4-61.1-19.6
			c-33.6-31.6-47.6-91.4-31.3-134.2C1351.3,2115.7,1382,2094.5,1416.6,2095.6z M1382.3,2188.7c0.4,9.7,1.6,19.1,5,28.3
			c10.6,28.8,20.5,37.6,40.9,35.3c22-2.5,43.1-24.2,44.5-47.6c1.5-23.2-11.1-38.8-30.2-49.9
			C1410,2135.9,1382.8,2151.2,1382.3,2188.7z"/>
		<path class="st1" d="M1653.7,2053.1c-26.3,0-47.4-10.5-62.6-31.3c-24.3-33.3-35.8-70.1-25.6-111.3c12.8-51.7,56.6-76.6,107.9-62.3
			c47.3,13.2,80.8,55.1,80.9,101.1c0.1,46.1-30.8,86.8-76.2,99.6C1670.2,2051.2,1661.8,2051.8,1653.7,2053.1z M1703.6,1949.4
			c-0.1-27.8-32.1-57.2-59.6-54.5c-10,1-18.1,5.2-23.7,14.5c-13.7,22.8-4.7,71.7,16.6,87.4c7.2,5.3,15.4,5.6,23.8,4.2
			C1683.5,1997,1703.7,1972.7,1703.6,1949.4z"/>
	</g>
</g>
</svg>
