<?xml version="1.0" encoding="utf-8"?>
<!-- Generator: Adobe Illustrator 23.0.0, SVG Export Plug-In . SVG Version: 6.00 Build 0)  -->
<svg version="1.0" xmlns="http://www.w3.org/2000/svg" xmlns:xlink="http://www.w3.org/1999/xlink" x="0px" y="0px"
	 viewBox="0 0 3000 3000" style="enable-background:new 0 0 3000 3000;" xml:space="preserve">
<style type="text/css">
	.st0{stroke:#000000;stroke-width:10;stroke-miterlimit:10;}
</style>
<g id="Layer_1">
</g>
<g id="Layer_2">
	<g>
		<path class="st0" d="M2633.4,1498c3.9,133.7,2.2,322.3-9,510.5c-8.7,145.7-20.1,292.2-66.7,432c-51.7,154.9-134,291-266.2,391.4
			c-83.1,63.1-177.9,100.7-282.7,98.1c-83-2.1-163.6,13.6-245.3,20.1c-120.6,9.6-241.3,18.3-362.3,19.9
			c-126.9,1.6-253.8,7-380.7,0.6c-71.2-3.6-142.3-7.9-212-24c-142.2-32.8-241.5-121.9-314-244.1c-73-123.1-105.2-259.1-118.3-399.8
			c-9.1-98.2-15.2-196.6-10.4-295.6c8.9-183.2,53.5-357.2,128.8-523.8c6.5-14.4,7.1-24.5-3.6-37.7c-29.9-37-41.4-82.1-47.2-127.9
			c-13.7-108.1-32.6-215.5-39.1-324.5c-8.7-147-6.1-294,47.9-432.6c91.7-235.2,257.6-391.5,508.3-447.3
			c90.7-20.2,183.7-24.3,276.5-26.3c145.4-3.1,290.9-10.9,436.2-9.2c152.7,1.7,305.7,8.1,457.4,29c46.3,6.4,92,16.5,136,32.5
			c106.7,38.7,184.4,110.4,238,209.7c43.8,81.2,61.9,170.6,84.6,258.6c31.6,122.3,42.3,246.4,40.8,372.3
			C2628.7,1134.4,2629.3,1288.8,2633.4,1498z M2576.1,1436c0-147-3.1-294,0.8-440.9c4.6-172.8-26.2-339.5-73.2-504.2
			c-52.8-185-168-300.3-364.2-327.6c-137.8-19.2-276.4-23.4-414.9-30c-121.4-5.8-242.5,5.1-363.8,5.9c-106.1,0.7-212,4-317.8,15.7
			c-195.8,21.6-347.3,115.3-461.2,273.9c-92.3,128.4-121,275.1-125.5,428.8c-4.7,160.4,21.9,318,46.1,475.6
			c14.9,97.1,79,144.4,177.6,139.5c27.4-1.4,54.7-4.5,81.9-8.4c47.8-6.8,51-10.3,61.7-58.1c2.6-11.6,4.7-23.2,7-34.8
			c23.1-115.4,29.9-232.2,32.6-349.6c2.1-92.3,14.1-183.5,51.8-269.3c37.2-84.6,94.9-149.9,184.8-178.1
			c108.8-34.2,220.8-51.4,335.3-46.6c100.1,4.2,199.9,12.8,299.8,19.7c124.9,8.6,221.2,65,293.9,165.2
			c89.7,123.6,135.4,262.6,146.5,413.9c8.6,117.8,10.4,235.8,8,353.8c-4.9,246.3,2.2,492.9-12.8,739
			c-9.6,158.4-46.6,310.1-124.8,450.2c-27.8,49.8-54.6,100.3-72.2,155c-12.9,40.2-4.4,53.7,37.1,52.1
			c94.6-3.6,180.4-33.8,254.4-93.3c116.7-93.9,193.8-215.6,239.5-356.6c45.6-140.8,58.4-287.7,66.2-434.3
			C2580.6,1807.2,2583.4,1621.6,2576.1,1436z M1400.7,1615.5c0.2-325.2-43.4-644.7-126.8-958.8c-5.3-19.9-4.2-47.2-19.3-57.4
			c-16.5-11.2-41,3.5-62,6.6c-123.6,18.2-205,85.5-242.2,206.1c-27.1,87.6-33.3,177.6-34.7,268.2c-1.7,116.9-16.6,232.1-40.4,346.4
			c-10.6,50.9-37.4,82.7-90.7,88.9c-11.8,1.4-23.3,4.4-35.1,5.9c-65.3,8-130.4,12.7-192-17.5c-12.4-6.1-13.6,1.9-16.8,9.3
			c-61.8,139.3-101.5,284.3-116.3,436.3c-10.1,103.2-4.7,206.2,2.4,309.1c8.2,118.9,30.7,235.1,78.5,345.2
			C585,2787.4,718,2897,923.7,2909.6c71.9,4.4,143.7,7.5,215.6,9.5c16.6,0.5,24.5-2.5,30.6-19
			C1323.5,2485.6,1400.4,2057.5,1400.7,1615.5z M1223.7,2916.5c5.9,0.3,10.9,0.9,16,0.9c219.8,0.4,439-10.9,657.4-36.1
			c13-1.5,21.2-3.7,16.5-19.9c-2.9-9.9-0.5-20.6,1.9-30.8c11.3-49.7,35.1-94.2,57.4-139.4c34.4-69.7,74.2-136.6,96-212.3
			c35.3-122.5,50.2-247.2,53.1-374.3c5.3-237.4,3.7-474.9,7.1-712.4c1.4-97.9-1.4-195.8-11.4-293.4
			c-13.8-134.4-59-256.8-141.3-364.2c-47.1-61.5-105.2-109.1-184.4-123c-32.8-5.8-66-10.1-99.2-12.4c-118.3-8.5-236.5-21-355.5-15.5
			c-26.5,1.2-26.6,1.3-19.7,26.2c82.4,298.8,129.1,602.9,135.8,912.9c0.4,17.3,6.7,21.3,21.7,21.7c35.8,0.9,70.6,8.1,104.8,18.4
			c123.1,36.9,177.6,188.2,105,294.1c-9.8,14.3-11.4,21.6,1,36.2c81,95.3,25.8,253-96.9,277.3c-52.6,10.4-105.1,4-156.1-11.2
			c-15-4.5-17.3-0.3-19.2,12.8c-28.1,188.7-70.3,374.3-127.9,556.3C1265.9,2790.7,1244.7,2853,1223.7,2916.5z M1455,1720
			c-0.9,0-1.9,0-2.8,0c0,18.5,0.9,37.1-0.2,55.5c-4.4,74.4-3.3,77.3,71.7,88.6c33.6,5.1,68.5,6.7,97.4-17.8
			c36.2-30.7,47.6-71.3,40.3-116.1c-8.5-52.3-36.9-92.4-87.4-111.8c-31.6-12.1-65.5-17.7-99.6-20.2c-16.2-1.2-20.2,4.4-19.8,19.6
			C1455.6,1651.9,1455,1686,1455,1720z M1445.9,1899.3c-6.7,63.5-12.9,125.3-20.1,187c-1.5,12.8,6,14.9,14.6,17.8
			c39.8,13.6,81,18.9,122.6,15c86.4-7.9,135.6-110.5,88.4-182.5c-17.2-26.3-22.3-28.2-52.3-20.9c-7.9,1.9-15.9,3.3-24,4.2
			C1530.8,1924.8,1488.5,1914.9,1445.9,1899.3z"/>
	</g>
</g>
</svg>
