<?xml version="1.0" encoding="utf-8"?>
<!-- Generator: Adobe Illustrator 23.0.0, SVG Export Plug-In . SVG Version: 6.00 Build 0)  -->
<svg version="1.0" xmlns="http://www.w3.org/2000/svg" xmlns:xlink="http://www.w3.org/1999/xlink" x="0px" y="0px"
	 viewBox="0 0 3000 3000" style="enable-background:new 0 0 3000 3000;" xml:space="preserve">
<style type="text/css">
	.st0{stroke:#000000;stroke-width:10;stroke-miterlimit:10;}
</style>
<g id="Layer_1">
</g>
<g id="Layer_2">
	<g>
		<path class="st0" d="M901.1,1325.2c-70.8,7.9-135.8,7.1-199.8-11.8c-125.7-37.2-200.8-132-208.9-263.1
			c-5.4-88.1,9.6-174,24.9-259.9c26.5-149,84-284.7,177.2-404.2c123.4-158.2,286.3-251.7,482-289.7c117.3-22.8,236-34.9,355-45.9
			c125.6-11.6,250.9-11.2,375.9,4.8c176.1,22.5,340.3,75.4,479,192.1c107.2,90.1,165.9,204.9,174.3,344
			c6.7,111.7,11.6,223.6,1.4,335.5c-9,99.4-42.2,187.2-117.1,255.9c-10.2,9.3-8,14.3,0.7,22.1c73.8,66.6,104.1,152.4,112,249.1
			c13,159.5,8.2,319.3,9.1,478.9c0.5,90.1-2.7,180.2-5.3,270.2c-6.3,214.7-74.5,402.6-241.2,546.5c-93,80.3-195.7,143.4-317.1,171.1
			c-31.3,7.1-63.3,10.3-95.5,10.4c-193.2,0.7-386.4-2.5-579.5,4.2c-88,3-176.3,2.6-263.9,10c-292.5,24.5-543-258.7-572.3-486.7
			c-6.2-48.2-11.2-96.4-10.5-144.8c1.5-107.1,6.9-214.1,13.7-321c11.3-176.9,82.7-327.2,193.4-461.9
			c56.6-68.8,119.9-130.7,189.3-186.4C884.2,1339.5,890.3,1334.2,901.1,1325.2z M2264.2,2728.9c6.7-4.1,9.2-5.2,11.2-6.9
			c75.3-64.2,136.1-139.5,176.6-230.3c41.9-93.8,55.8-193.8,59.4-295.1c5.4-150.1,6.6-300.3,5.2-450.5c-1-104.4,1.1-209-12.4-312.9
			c-6.2-48.3-15.8-95.3-45-136.4c-55.3-77.9-130.8-128.5-218-163.4c-132.4-53.1-271.3-67.8-412.5-67
			c-138.5,0.8-275.2,16.9-408.5,54.8c-296.6,84.2-543.5,244-730.4,491.2c-65.2,86.2-114.7,181.2-131.5,289.6
			c-23.8,153.6-27.8,308.5-24.8,463.5c3.1,158.9,66.4,290.6,183.5,396.7c62.3,56.4,130.6,103.8,214,122.9
			c68.6,15.6,138.7,10.7,208.1,7.6c173.8-7.7,347.6-12.5,521.6-12.1c69,0.2,137.9,0.9,206.9,1.4c34.2,0.2,68.3-1.5,102.1-6.2
			c71.6-9.9,135.2-40.8,197.2-75.8c15.1-8.5,24.3-19.2,30.6-35.7c77.3-202.7,130.7-411.5,167.1-625.1c19.2-112.6,29.4-224,0.4-336.5
			c-30.3-117.9-76.7-227.7-158.7-319.1c-126.2-140.7-289-182.6-471-168.5c-109,8.5-213.2,37.6-314.7,76.8
			c-166.9,64.4-319.4,152.1-448.5,277.7C859,1779.6,769.5,1906.6,701.6,2049c-7.2,15.1-13.8,22.8-29.5,10.8c-2.7-2-6-3.5-9.2-4.3
			c-15.9-3.7-15.7-11.4-9.2-24.8c54.2-111.7,120.3-215.6,201.2-309.9c108.4-126.4,236.9-227.3,385.5-302.7
			c172-87.4,350.7-151.2,546.1-155.5c143.5-3.1,278.8,27.8,388.9,123.9c201.3,175.7,277.9,403.6,252.2,664.7
			c-15.6,158.7-51.9,314.6-95.7,468.2C2312.2,2588.3,2289.8,2656.1,2264.2,2728.9z M1632.9,597.9c-104.7,4.3-257.2,24.8-407.3,61.7
			c-108.4,26.6-197.8,83.6-263.3,175.5c-92.8,130.2-112.2,278.2-104.9,432.7c0.4,7.5,3.2,11.2,11.4,10.3
			c57.9-6.6,116.4-14.9,166.7-45c184.2-110.4,382.1-178.9,595.3-203.9c188-22,374.5-20,558,32.8c13.5,3.9,16.6-1.6,19.1-12
			c7.7-31.1,13.3-62.5,15.5-94.5c8.2-120.1-37.7-228.8-164.6-282.5C1938.4,621.9,1813.4,596.2,1632.9,597.9z M1491.5,105.8
			c-4.4-0.3-7.1-0.9-9.7-0.6c-99,10.4-197.9,21.4-295.7,40.4C982.3,185.3,819,288,702.4,460.7c-119.2,176.5-160.7,375.7-159.2,584.7
			c0.7,96.4,48.7,168.4,139.5,208.4c16.1,7.1,20.5,5.3,19.6-13.2c-3.6-79.4,1.7-158.5,20.2-235.8C775.2,784,899,620.8,1112.3,532.1
			c87.1-36.2,179-52.5,272.4-60.6c15.3-1.3,22.1-6.8,25.4-21.9c10.9-49.8,23.2-99.3,35-148.9C1460.5,236,1475.9,171.4,1491.5,105.8z
			 M2512.3,744.9c0-44.3,1.8-88.8-0.4-133c-5.2-107.5-37.9-204.6-113.7-284.2c-48.5-50.9-104.3-92-166.4-124.6
			c-126.7-66.6-263.5-94.4-404.7-106.1c-10.3-0.9-13.9,2.4-16.3,12.5c-26.2,113.4-52.9,226.7-79.9,339.9
			c-3.2,13.3,1.2,15.9,13.8,16.1c34.1,0.4,68.3,1.4,102.3,3.8c87.2,6.3,173.6,17.8,255.9,49.2c135.4,51.6,227.2,143.5,259.9,287.4
			c20.5,90.2,13.8,180.3-9.1,269.5c-4.2,16.4-14.8,35.7-9.7,48.6c5.2,13,26.7,19.1,40.2,29.3c8,6,13.3,6,20.7-1.1
			c47-45.5,82.4-97.3,96.2-162.9C2518.1,908.5,2517.9,826.8,2512.3,744.9z M1635.8,514.6c-35.5,0-71-1.2-106.5,0.2
			c-94.7,3.7-189.5,6.8-282.6,27.8c-191.8,43.2-337,147.4-424.1,325.7c-58.5,119.8-75.8,248-70.4,380.3c0.9,21.8,8.2,28.9,29.3,30.1
			c27.5,1.5,28.1,3,26-23.8c-5.4-70.6-1.2-140.9,13.4-209.8c47.6-225.6,173.9-380.6,404.1-437.1c136.7-33.5,275.8-53.9,416.4-60.2
			c163.5-7.3,320.9,20.6,468.2,94.2c80.9,40.5,131.9,106.3,153.8,194c17.6,70.4,14.5,140.6-3.9,210.5c-9.6,36.4-9.4,35.8,21.8,49.5
			c11.3,4.9,14.9,2.8,18.1-8.6c21.6-78.4,32.2-157.8,20.5-238.8c-16.1-111.5-70.8-197.6-170.1-253.4
			c-56.6-31.8-117.9-49.3-181.3-60.8C1858.3,514.6,1747,515.1,1635.8,514.6z M1499.9,464.9c6.8,0,13.8-0.9,20.4,0.2
			c19.7,3.3,27-5.4,30.4-24.3c5.4-30.1,14-59.6,21.3-89.3c19.4-80,38.7-160,58.4-239.9c3.3-13.5,0.6-18.6-14.3-16.8
			c-17.6,2.1-35.4,2.8-53.1,3.2c-13.5,0.3-19.5,5.4-22.7,19.7c-23.5,102.8-48.4,205.3-72.7,307.9
			C1458.1,465.9,1458.3,466,1499.9,464.9z M1595.5,464.4c23.4,0,43.9-0.9,64.2,0.3c12.8,0.8,18.1-4.1,20.6-15.9
			c4.6-21.9,10-43.7,15-65.6c21.2-91.4,42.2-182.8,64.1-274c3.1-12.9,1.2-17.3-12.3-16.6c-14.3,0.7-28.8,1.2-42.9-0.6
			c-16.2-2.1-20.5,6.3-23.5,19.6c-8.5,37.7-18,75.1-27,112.6C1634.3,303.9,1615,383.6,1595.5,464.4z"/>
		<path class="st0" d="M1036.8,1838.1c-49.1,56.2-91.9,114.1-128.4,176.6c-72.3,123.6-121.4,256-148.1,396.6
			c-2.8,14.8-7.1,17.9-21,15c-32-6.6-32.9-6.3-25.4-40.1c89.2-403.4,314-702.7,686.2-886c137-67.5,284.1-97.1,437.1-83.9
			c130,11.2,241.5,67.9,337.7,154.3c115.2,103.6,170.4,232.7,158.7,388.6c-19.9,263.7-68.9,521.5-156.5,771.5
			c-4.4,12.5-9,14.7-21.3,10.2c-31.3-11.6-31.5-11-21.1-41.5c47.2-138.3,83.9-279.3,108.8-423.4c1.2-6.7,8.6-17.5-7.7-16.1
			c-70.8,6.4-136.6,57.5-153.4,117.8c-7.7,27.8-4.3,55.4,1.8,83c3.9,17.4,7.2,34.8,6.5,52.7c-1.6,44.3-24.4,74.7-63.8,91.9
			c-37,16.2-71.8,8.6-99.9-19.5c-48.3-48.3-64.9-108.3-55.4-174.7c24.8-172.7,165.1-307.4,339.7-327.7c7.5-0.9,14.9-2,22.3-3
			c37.5-4.8,38.8-4.6,43.2-41.5c8.2-67.9,13.8-136.2,0-203.9c-21.3-104.4-80.2-185.4-162.5-250.4
			c-121.3-95.9-258.2-135.8-412.7-117.2c-103.3,12.4-201.7,39.5-295.5,84.4c-13.6,6.5-16.8,11.8-10.4,27.2
			c21.7,52.1,36,106,23.2,163.3c-3.9,17.5-9.5,34.9-21.4,48.1c-11.4,12.6-12.9,25.7-11.5,41.2c2.6,27.8,5,55.7,3.2,83.8
			c-4,60.8-36.3,104.1-94.1,123.1c-13.7,4.5-18.6,9.3-17.6,24.9c7.2,122.1-22.9,235-87,339.1c-6.8,11.1-12.5,15.2-23.2,5.6
			c-3-2.7-6.6-4.9-10.3-6.6c-15.5-7.5-16.4-15.6-6.9-30.9c57.9-93,83.3-194.7,77.4-304.3c-0.8-14.3-3.8-20.8-20.3-25.8
			c-61.2-18.6-96.1-56.8-99.1-121.9c-0.3-5.4,1.1-11.4-5.5-14C1071.4,1892.5,1051.6,1869.1,1036.8,1838.1z M2256.2,2128.3
			c-13.5,1.6-23.7,3-33.8,4c-127.8,13.2-264.4,106.7-298.1,264c-11.7,54.8-5.7,106.1,33.7,149.2c21.5,23.5,46.8,22.8,69-0.3
			c14.2-14.8,16.1-32.4,12.3-51.4c-5.9-29.4-12.6-58.7-11.6-89c2.9-88,78-169.5,173.3-190.7c18-4,43.2,6,52.9-13.8
			c8.3-16.8,6.5-38.6,9.2-58.1c0.1-0.7,0.1-1.4,0.3-2C2265.5,2131.2,2262.4,2127.1,2256.2,2128.3z M1336.2,1838.8
			c-21.8,8.7-42.9,9.1-64,6.8c-8.9-1-15.1,0.1-20.3,8.8c-18,30.6-46.2,47.9-79.8,55.3c-13.3,2.9-14.6,8.5-12.8,19.6
			c4.3,27.4,20.7,44.2,44.4,57.2c54.8,30.1,141.5-10.9,135-76.5C1336.4,1887.3,1337.5,1863.8,1336.2,1838.8z M1373.7,1693.4
			c-0.9-28.9-11.6-61.8-23.7-94.5c-4.9-13.3-10.2-12.6-20.5-6.4c-32.8,19.7-64.5,40.8-95.4,63.2c-10.7,7.8-11,11.8-1.7,21.2
			c26.3,26.8,42.2,59.5,41.9,97.1c-0.2,22,8.8,24.9,26.3,22.4c12.4-1.8,23.8-5.9,34-13.1C1363.4,1762.9,1373,1733.5,1373.7,1693.4z
			 M1146.6,1862c25-0.1,46.3-10.7,59.8-29.6c28.8-40.3,21.5-95.2-16.2-127.4c-8.7-7.4-13.7-4.6-20.6,1.3
			c-28.6,24.3-55.9,50-82.2,76.7c-5.5,5.6-8.9,11.2-7.7,19.8C1084.6,1837.9,1111.6,1862.2,1146.6,1862z"/>
		<path class="st0" d="M2139.2,1961.1c-0.1-32.9,25-58.5,57.8-58.9c33.5-0.3,60.5,26.3,60,59.2c-0.5,32.3-27,58.2-59.3,58.1
			C2165.3,2019.5,2139.4,1993.6,2139.2,1961.1z"/>
		<path class="st0" d="M1954.8,1960.2c32.5,0.3,57.8,25.9,57.8,58.4c0.1,32.6-27.4,59.9-59.8,59.3c-31.8-0.6-58.2-27.5-58.3-59.2
			C1894.5,1985.9,1921.4,1959.8,1954.8,1960.2z"/>
		<path class="st0" d="M1869.2,2825.8c-32.8-0.4-57.9-26.1-57.7-59.1c0.2-32.7,25.9-58.2,58.7-58.1c32.6,0.1,59.8,25.9,58.8,58.2
			C1927.7,2804.2,1900.8,2826.6,1869.2,2825.8z"/>
		<path class="st0" d="M1853.5,2214.3c-0.1,32.9-25.5,58.2-58.4,58.3c-32.6,0.1-58.7-25.5-59.2-57.8c-0.5-33.2,26.2-59.8,59.7-59.5
			C1828.3,2155.7,1853.6,2181.5,1853.5,2214.3z"/>
		<path class="st0" d="M1812.7,2442.4c-0.3,32.4-25.9,58.3-58.1,58.6c-32.8,0.2-59.4-26.8-59.1-59.9c0.3-32.1,26.4-58.5,58.3-58.8
			C1786.4,2382,1813,2409.2,1812.7,2442.4z"/>
		<path class="st0" d="M1878.6,813.9c-2.1,60.5-29.3,107.8-78.2,142.6c-19.2,13.7-40.7,14.9-61.3,1.1c-21.2-14.2-30.7-34-27.4-59.5
			c2.8-21.4,11.9-40.3,23.1-58.4c18.3-29.7,39.6-57,63.4-82.4c8.5-9.1,18.4-16,31-18.6c22.2-4.5,38,4.5,43.3,26.3
			C1876.5,780.8,1878.6,797.1,1878.6,813.9z"/>
		<path class="st0" d="M1403.8,844.2c-3.4,55.4-30.3,102.2-78.5,136.5c-19.1,13.7-40.7,15.1-61.3,1.3
			c-21.9-14.7-31.4-35.1-27.4-61.5c3.5-23.5,14.4-43.8,27.1-63.3c17.5-27,37.1-52.2,59.1-75.5c14.4-15.2,31.3-24.6,52.9-17.8
			c20,6.3,21.9,24.3,24.3,41.2C1401.8,816.5,1402.4,828.1,1403.8,844.2z"/>
	</g>
</g>
</svg>
