<?xml version="1.0" encoding="utf-8"?>
<!-- Generator: Adobe Illustrator 23.0.0, SVG Export Plug-In . SVG Version: 6.00 Build 0)  -->
<svg version="1.0" xmlns="http://www.w3.org/2000/svg" xmlns:xlink="http://www.w3.org/1999/xlink" x="0px" y="0px"
	 viewBox="0 0 3000 3000" style="enable-background:new 0 0 3000 3000;" xml:space="preserve">
<style type="text/css">
	.st0{stroke:#000000;stroke-width:10;stroke-miterlimit:10;}
</style>
<g id="Layer_1">
</g>
<g id="Layer_2">
	<g>
		<path class="st0" d="M786.1,1924.8c-19.4-8.4-36.2-15.2-52.5-22.9c-78.7-36.7-151.6-82-208.2-149.3
			c-85.3-101.4-110.1-218.8-90.7-348c13.3-88.3,43.3-170.5,86.1-248.4c6.4-11.7,6.7-19.6-1.5-31.5c-64.7-94.2-83.6-200.9-76.4-312.1
			c13-201.7,86.8-379.2,223.8-528.6C735.6,209,817.5,153,917.6,126.9c63.9-16.7,129.3-23.5,194.9-26.5c109-5,218-9.6,327.2-5.6
			c66,2.5,131.1,10.9,194.1,31.5c11.5,3.7,21.5,2.3,32.6-1.1c170.9-52.9,345.7-61.6,521.5-37.5c202,27.6,324.6,146.2,375.2,342.6
			c24.1,93.6,31.4,189,36.6,284.7c6.6,123,10.9,246.2,9,369.5c-2,126.3-13.5,251.5-55.2,372.1c-75.4,218.3-224.1,368.9-430.9,465.4
			c-31,14.5-63.2,26.5-95.1,38.9c-10.7,4.2-14,7.8-11.7,21c11,62.8,10.5,125.5-12.9,186.1c-31.3,81.1-95.8,126.4-172.3,158.7
			c-91.6,38.7-188.2,46.4-285.9,47.6c-95.3,1.1-190.2-5.6-285.2-12.8c-61.4-4.6-122.7-9.7-184.1-14.3
			c-97.5-7.4-139.2,31.5-149.9,134.6c-3,29.1-3.7,59,2.7,87.9c5.2,23.2-1.9,43.7-7.9,65c-2.5,8.6-6.1,9.8-15,7.1
			c-103-31.2-178.4-141.5-170.6-250.4c8.2-113.4,89.1-199.4,201.9-217c72.1-11.3,143.9-4.5,215.7,1c158.6,12.1,317.4,15,476.4,12.1
			c33.6-0.6,67.2,0.2,100.7-3.3c70.2-7.4,96.4-34,101.1-103.9c3.8-56,2.6-56.4-51.1-46.5c-124.6,23-250.1,28.5-376.3,16.3
			c-111.5-10.8-221.7-29.9-331.7-50.4c-7.7-1.4-15.1-1.7-22.8,0c-141.3,31.4-266.9,94.3-378.1,186.8
			c-77.5,64.5-113.7,148.7-118.9,247.7c-2,38.4-4.7,76.8,6.9,114.6c10,32.8,28.9,58.2,56.2,78.7c54,40.6,116.3,55.9,181.7,63.8
			c96.2,11.6,181.6,49.2,257.3,109.4c10.6,8.4,9.9,13.9,1.9,23.4c-21.7,25.9-21.6,26.5-48,6.3c-73.4-56.1-157.5-83-248.3-92.9
			c-52.1-5.7-100.5-22.8-146-49.3c-69.2-40.2-110.5-97.4-113.9-179c-2.7-63.9,0.9-127.2,20.2-188.8
			c28.6-91.1,89.3-156.7,165.1-210.9c76.1-54.5,157.3-99.2,245.9-129.8c3.8-1.3,7.4-3,13.1-5.4c-42.2-14.3-79.5-25.8-124.5-8
			c-105.1,41.7-202.3,95.9-289.2,167.6c-81.9,67.5-122.3,158.1-134.3,262.2c-8.3,72.7-2.4,144.1,24.3,212.6
			c48.9,125.2,148.7,192.5,282.8,196.4c73.2,2.2,147.1,1.3,218.3,24.5c40.1,13.1,75.2,33.3,104.8,63.5c7.7,7.8,7.9,11.7-1.3,18.9
			c-27,21.5-26.5,22-53.4,0.6c-41.2-32.7-90.1-44.4-140.7-48.9c-57.1-5.1-114.9-4.1-171.7-11.1c-163.4-20.2-261.3-118.8-300.9-272.9
			c-39.4-153.3-16.7-299,82.3-427.3c50.6-65.6,120.1-108.4,189.4-150.9C678.4,1971.7,729.5,1945.9,786.1,1924.8z M847,1303.5
			c-1.2-1.3-1.5-2-2-2.1c-6.2-1.2-12.4-2.4-18.6-3.4c-92.7-15.1-179.1-44.9-250.3-109c-12.7-11.5-14.3-0.5-18.3,7.1
			c-44.1,82.5-71.5,170.2-77.1,263.6c-7.4,124.8,35.9,228.9,133.4,308.9c64.7,53,138.5,89,217,116.2
			c180.9,62.6,369.2,89.8,558,111.9c211.5,24.7,417.2-3.6,615.7-81.8c11-4.3,18.8-10.3,25.1-20.4
			c63.7-102.3,121.6-207.6,168.9-318.5c24.1-56.4,47-113.3,66.5-173.8c-25.5,3.5-48.9,7.1-72.3,9.7c-54.4,6-108.9,9.5-162.5-6.1
			c-57.4-16.8-84.5-58.2-77.5-117.2c3.9-32.6,16.4-62.1,31.8-90.5c29.7-55.1,67-104.9,106.9-152.9c78.8-95,165.2-182.8,254.2-268
			c7-6.7,14.2-12.3,13.6-24.3c-4.6-84.2-16.6-166.8-44.8-246.8c-39.9-113-120.5-180.8-233.6-212.1c-87.1-24.1-175.7-22.7-264.4-9.2
			c-26.7,4-26.5,4.7-20,31.6c2.4,10.2,5,20.5,6.1,30.8c12.8,118.7,15.7,237.7,0.1,356c-35.4,269.1-176.2,457.9-434.2,551.6
			c-147.9,53.7-302.8,57-458,52.1c-16.1-0.5-32.1-4.4-52.4-0.5c106.8,78.6,221.3,114,349.9,97.1c123.3-16.2,220.3-80.3,302.3-170.3
			c20.7-22.7,20.1-23.3,44.2-5.6c0.6,0.4,1.1,0.9,1.7,1.2c11.2,6.2,14.8,12.4,3.8,23.3c-13.3,13.3-24.1,29.1-37.5,42.4
			c-8.3,8.2-9.5,15-5.9,25.7c11.5,33.5,14.8,68.2,12.7,103.4c-5.8,94.9-82.6,155.7-173.8,136.3c-11.6-2.5-14.5,1.2-18.4,9.7
			c-12.4,27-33.9,44.8-61.4,53.7c-14.6,4.8-18.5,12-19.1,26.5c-2.1,50.7-28.2,84.7-73.6,94.5c-20.9,4.6-42.6,7.2-64.4,4.8
			c-32.6-3.6-58-18.6-77.2-45c-15.1-20.8-24.5-44.5-28-69.3c-2.6-18.6-10.5-22.4-27.7-23.6c-64.8-4.6-92.4-40.3-82.4-104.3
			c4.3-27.7,12.4-54.6,22.8-80.6c4.5-11.2,4.1-17.1-8.2-22.4c-23.8-10.3-45.2-25-66.7-39.5c-33-22.4-33-22.4-8.4-54.3
			C844.7,1308,845.8,1305.5,847,1303.5z M904.8,357.1c14.1,1.6,28.2,2.8,42.2,5c62.1,9.8,87.1,42.6,79.6,105
			c-6.6,55-23.6,107.6-36.4,161.3c-15.3,64.2-55.7,104.2-117.9,121.2c-69.5,19-140.9,20.4-212.3,15.3
			c-48.3-3.4-95.8-11.5-142.1-25.8c-8.7-2.7-16-4.7-17.6,8.9c-4.8,40.4-8.6,80.7-7,121.4c0.4,10.5,1.5,17.4,15.6,13.7
			c26.4-7.1,53.4-11.1,80.7-13.1c82.9-6,165.4-2,244.8,23.8c66.9,21.8,98.2,78.5,88.5,148.2c-9.4,67.3-40.7,124.3-80.6,177.6
			c-6,8-14.2,14.8-17.6,25.8c122,20.4,242.6,12.1,363.3-0.7c12-1.3,13.7-6,11.6-17.8c-14-78.4-27.3-156.9-32.5-236.7
			c-4.5-70.9,28.2-115.2,98.2-131c83-18.8,165.6-10.3,248.2,1.9c5.7,0.8,13.1,6,16.1-3.1c10.2-30.7,19.8-61.6,24.8-95.2
			c-9.3,2.6-16,4.6-22.7,6.4c-68.2,17.9-135.7,18.1-201.7-9.3c-75.2-31.3-111-94.3-100-174.3c11.4-82.2,54.4-145.5,117.6-196.7
			c9.6-7.8,19.7-14.8,33.4-25C1219.6,339.6,1062.5,342.3,904.8,357.1z M1712.4,165.9c21.6,23,40.4,44.5,54,69.8
			c4.8,8.9,11.2,5,18,3.6c94.3-19,188.7-21.5,283.3-1.4c93.3,19.8,173.3,62.5,233.8,137.5c49.6,61.6,73.5,135,88.9,210.7
			c34.4,168.8,28.1,338.6,2.9,507.6c-36.7,246.1-121.2,476.2-240.9,693.8c-15,27.3-30.6,54.4-45.8,81.4c3.8,3.1,6.1,0.8,8.4-0.4
			c169.5-82,297.2-205,371.3-380c45.3-107.1,62.5-220.1,68.3-335.4c7.1-140.7,0.4-281.4-5.6-421.9c-4.1-97.1-12.4-193.8-36.2-288.9
			c-43.9-175.3-153-278.9-332.4-304.2c-114.9-16.2-230.3-14.4-345.3,1.2C1794.4,145,1754.4,153.9,1712.4,165.9z M1446.4,1164.1
			c7.9-3.4,10.5-4.1,12.7-5.4c173.6-104.1,267.3-259.7,293-458.1c13-100.3,9.9-201.1,4.6-301.8c-1.9-35.9-8.4-70.8-20.3-104.6
			c-22.5-63.8-65-106-131.6-123.5c-62-16.3-124.9-24-188.7-25c-126-2-251.8,2-377.5,12.2c-131.2,10.6-242.8,61.3-332.1,158.9
			c-4.5,5-11.2,8.7-12,17.5c4.5-0.7,8.5-1.1,12.5-1.9c72-14.7,144.2-27.7,217.7-32.3c52.2-3.3,104.4-4.2,156.8-4.6
			c102.9-0.8,205.6-2.6,306.7,19.1c111.5,23.9,189.9,85.5,219.9,199.7c10,38.1,14.5,77,14,116.3c-1.1,94.1-22.2,184.3-52.8,272.7
			C1538.2,992.5,1496.7,1077.1,1446.4,1164.1z M874.8,2569c-1.9-45.7-3.3-85.4,3.8-125.1c14.5-81.5,68.2-152.1,175.1-148.4
			c73.5,2.6,146.5,10.6,219.7,15.5c126.4,8.4,252.8,17.8,379.5,6.1c76.9-7.1,149.6-27.7,216.2-67.7c45.8-27.5,76.6-66.8,92-118
			c10.4-34.7,11.5-70.3,9.1-106.1c-2.8-42.1-3.2-42.1-43.7-29.2c-2,0.6-4,1.3-6,1.9c-41.3,12.3-41.3,12.3-38.8,54
			c0.3,4.2,0.5,8.4,0.6,12.6c0.9,98.5-43.2,162.4-144.4,170.4c-39.9,3.2-79.7,2.8-119.6,3.9c-138.6,3.8-277.1-0.8-415.5-8.6
			c-74-4.2-147.7-14-222.1-9.7c-124.4,7.2-199.3,83.8-194,202.7C789.3,2484.4,822.3,2530.1,874.8,2569z M729.1,716.1
			c43.4-2.2,80.4-4.1,116.8-12.2c49-10.9,83.6-37,94.7-88.7c4.4-20.5,10.9-40.5,15.9-60.8c8.4-34.6,18.7-68.9,19.7-104.8
			c0.6-23.5-6.4-31.5-29.3-35.2c-49.1-7.9-98.9-7.2-148.2-12.3c-38.9-4.1-77.9-7.2-117-8.3c-19.7-0.5-40.3,1.2-53.4,21.5
			C578,493.3,540.7,577,516.8,667c-4,15.2,0.7,18.8,13.7,22.6C597.5,709.1,665.9,717.1,729.1,716.1z M647.5,918.5
			c-48.7,0.8-90.8,6.3-132.6,15.6c-11.4,2.6-14.4,5.9-12,18.1c27.9,141.5,111,232.9,248.2,275.8c7.9,2.5,14.5,2.9,20.7-4.2
			c48.1-54.8,88.7-113.6,99.6-187.9c7.5-50.9-12.6-81.6-62-96.5C754.7,922.8,698,921.5,647.5,918.5z M1571,634.9
			c-0.7-32.5-2.6-61.1-8.4-89.3c-13.2-63.6-42.1-116.8-100.9-149.8c-7.4-4.2-13.6-7.8-23.1-3.1c-78,38.5-133.7,96-154.9,182.2
			c-16.2,66,4.1,108.5,65.5,136.5c59.1,26.9,119.8,22.6,180.4,4.8c35.9-10.5,35.9-10.9,38.9-47.4
			C1569.7,656.3,1570.4,643.7,1571,634.9z M1218.6,1000.8c5.2,63.1,17.6,140.3,31.3,217.5c2,11.4,5.1,16.8,19,13
			c27-7.2,54-14.6,80.5-23.5c6.8-2.3,12.6-5.5,16.7-11.8c54.7-85.7,102.9-174.6,139.8-269.6c4.7-12,0.8-14.9-9.8-16.1
			c-18.8-2.1-37.4-5.3-56.2-6.7c-57.2-4.2-114.6-9.1-170.8,8.6C1225.4,926,1216,939.7,1218.6,1000.8z M2356.9,948.9
			c-56.5,54.3-108.8,104.4-154.9,160.7c-26.6,32.5-52.6,65.3-67.9,105c-14.4,37.3-5.5,53.2,33.6,60.9c41.8,8.2,83.5,2.9,125.2-1.4
			c8.9-0.9,12.9-5.5,14.7-14.5c4-20.5,9.8-40.7,14.3-61.1C2339.5,1118,2351.8,1036.9,2356.9,948.9z M2360.3,837.5
			c-3.2,1.8-5.2,2.5-6.5,3.8c-89.5,87.6-177.4,176.9-253.9,276.4c-36.7,47.7-72,96.6-90.8,154.8c-16.6,51.4-1.5,78,51.5,87.5
			c73,13.1,144.8-0.1,216.5-13.3c11.1-2.1,9.1-11.2,11.3-19.2c-23.5,1.1-45,2.5-66.6,3.1c-21.7,0.7-43.3-0.5-64.7-4.7
			c-67.7-13.3-95-59.6-73-124.8c11.3-33.6,30.8-62.7,51.9-90.6c60.8-80.9,133.1-151.2,208.1-218.5
			C2362.2,875.5,2362.6,859,2360.3,837.5z M1298.2,1437.2c-34.4,8.2-67.4,17.8-101.6,18.9c-19,0.6-29.8,5.7-29.9,27
			c0,9.3-3.4,19.8-8.4,27.8c-10.7,16.9-3.4,28.8,7.7,40.6c9.2,9.7,19.3,18.1,31.8,23.3c45.9,19.2,96.2-6,99.9-51.9
			C1300.1,1494.9,1298.2,1466.6,1298.2,1437.2z M1006.7,1561.1c53.8,0,97.3-34.6,109.6-86.1c3-12.4,1-17.9-12.9-18.6
			c-37.9-1.8-74.8-9.5-110.5-22c-10.7-3.8-15.1-1.4-18,8.7c-6.2,21.4-14,42.5-19,64.2c-9.1,39.5,1.2,51.9,42.5,53.8
			C1001.1,1561.2,1003.9,1561.1,1006.7,1561.1z M1470.1,1344.5c-23.2,15.4-42.4,34.6-65.4,42.2c-53.1,17.4-60.2,54.4-54.3,101.7
			c1.6,12.8,6.3,18.6,17.6,21.9c39.7,11.6,86.6-12.4,101.9-53.3C1483.8,1420,1480.9,1382.9,1470.1,1344.5z M1135.5,1698.1
			c9-0.8,18-1.3,27-2.5c30.1-3.9,43.5-19.9,43.8-50.7c0.1-9.6-1.5-15-12.5-17.4c-17.1-3.7-35.1-10.1-45.8-23.7
			c-21.8-27.9-41.5-28.7-70.3-8.3c-14.6,10.3-17.5,16.9-13.7,31.9C1074.6,1669.9,1095,1701.6,1135.5,1698.1z"/>
		<path class="st0" d="M2212.6,2088.9c9.9,20.7,18.5,36.5,25.1,53.1c52.7,132.3,34.5,253.8-58.7,362
			c-49.3,57.2-117.8,78.2-189.3,90.4c-52.6,9-105.9,8.6-159.1,10.3c-132.9,4.2-266-0.7-398.9,6.9c-60.9,3.5-119.5,15.3-168.9,54.6
			c-29.9,23.7-52.6,52.7-58.6,91.5c-2.1,13.8-7.3,16.5-20.3,15.6c-36.7-2.7-37.7-2.4-27.4-38.4c22.8-79.7,80.2-125.4,154.9-152.6
			c63.6-23.2,130.3-24.3,196.8-25.3c121.8-1.9,243.6-2.5,365.4-4.6c48.3-0.8,96.2-5.1,143.6-15.9c110.8-25.4,170.3-98.7,192.4-205.8
			c14.2-69,1.6-134.4-34.4-198.6c-10.1,24.1-18.6,45.8-28.1,67c-31.6,70.3-72.3,134.2-132.1,184.4c-52.8,44.3-113.6,65.5-182.7,68.8
			c-142.6,6.8-285.3,12.4-427.4,25.6c-88.5,8.2-175.9,23.8-260.1,53.8c-15.8,5.6-31.3,11.9-45.7,20.8
			c-29.6,18.3-34.8,34.8-19.3,66.4c14.4,29.4,35.9,53.6,60.3,74.7c12.9,11.2,13.7,20,0.6,28.4c-8.9,5.7-9.7,30.1-26.1,16.9
			c-36.8-29.5-69-63.8-85.6-109.4c-19.7-54.4-6.4-91.9,43.3-121.1c45.8-26.9,96.7-39.9,147.8-52.2c117.6-28.5,237.7-35.6,357.9-42.2
			c99.9-5.5,200.1-8.2,299.6-18.1c51.9-5.2,94.1-37.5,130-75.5c63.4-67.3,103.5-148.4,127.7-235.8c22.9-82.5,82-118.1,156.3-136.5
			c62.6-15.5,121.1,2.3,173.7,36.7c114.5,74.9,178.5,182.6,198.3,316.8c16.6,112.3,10.9,224.8-3.1,336.9
			c-6.3,49.9-31.8,89.2-72.4,118.3c-59.4,42.5-126.6,64.6-198.6,73c-81.8,9.6-164.6,12.9-244.2,37.6c-40,12.5-79.8,25.6-117.3,44.6
			c-13.1,6.6-18.6,4.7-24.8-8.6c-14.3-30.9-14.9-30.3,16.3-44.6c101.2-46.5,208.4-67.2,318.7-75.3c66.7-4.9,131.5-17,191.3-49.8
			c45.9-25.2,77.5-60.4,82.4-113.8c10.3-110.9,17.9-221.9-2.9-332.6c-20.9-111-78.5-197.9-172.6-259.9
			c-54.3-35.8-112.2-45.1-173.3-16.8c-5.1,2.3-9.9,5.2-14.7,8c-1.8,1-3.3,2.4-8,5.8c17.5,4.7,31.8,8.2,46,12.4
			c208.2,61.2,319.7,285.1,238.7,479.7c-23.8,57.3-62.2,102.3-114.6,135.6c-101.7,64.6-213.2,100.2-332.3,114.7
			c-61.8,7.5-123.6,15.1-185.8,19.2c-15.1,1-19.4-3-19.2-17.7c0.5-35.3-8.6-32.5,32.3-35.2c95-6.3,189.5-17.2,282.3-39.1
			c64.4-15.2,123.7-43.6,180.8-76.7c92.2-53.4,134.3-135.7,130-239.3c-5-122.8-62.2-215.6-174.2-271.4c-5-2.5-10.1-4.7-15.3-6.8
			c-1.1-0.5-2.7,0.1-7.2,0.4c6.3,7.2,11.6,12.9,16.6,18.8c66.7,79.8,101.1,169.3,77.9,274c-24.4,110.1-97.7,177.6-198.7,218.8
			c-102.7,41.9-210.4,61.5-320.3,71.1c-88.6,7.8-177.3,12.4-266.1,16.9c-18.2,0.9-36.2,4.2-53.4,10.2c-36.2,12.5-51.5,69.6-27,98.9
			c4.1,5,8.7,2.6,13.4,2.3c37.8-2.5,66.9,22.2,68.4,57.8c1.4,33.8-25.7,61.6-60.2,61.9c-36.4,0.2-62.1-26.8-60.5-65
			c0.5-11-1.6-20.7-6-30.3c-7.3-16-12.3-32.7-14.8-50.1c-10-70.4,25.4-119.3,97.3-131.6c60.1-10.3,121.3-8.6,182-12.8
			c128.5-8.9,256.9-17.3,380.2-59.3c43.8-14.9,86.4-32.1,124.1-59.9c94.3-69.7,124.3-193,72-297.6
			C2300.7,2171.3,2262.2,2129,2212.6,2088.9z"/>
		<path class="st0" d="M1784.4,2796.2c34,0.1,60.9,27.6,60.2,61.5c-0.6,32.4-28.5,59.6-60.9,59.4c-32.1-0.2-60.3-28-60.7-60
			C1722.6,2823.8,1750.6,2796.1,1784.4,2796.2z"/>
		<path class="st0" d="M1425,2871.1c0,33.7-26,59.7-59.7,59.8c-33.6,0-60.4-26-60.9-59.1c-0.5-33.6,27.8-62,61.3-61.5
			C1398.6,2810.8,1425.1,2837.9,1425,2871.1z"/>
		<path class="st0" d="M1181.2,2939.8c-33.8,0.1-59.9-25.6-60.2-59.3c-0.3-34.4,26.7-61.5,60.9-61c33.4,0.5,59.4,27.1,59.2,60.6
			C1240.9,2913.8,1214.9,2939.7,1181.2,2939.8z"/>
		<path class="st0" d="M2212.9,557.1c34.6-0.1,64.3,29.5,64.4,64.3c0.1,34.7-29.5,64.3-64.4,64.3c-34.9,0-64.3-29.4-64.4-64.2
			C2148.5,586.8,2178,557.3,2212.9,557.1z"/>
		<path class="st0" d="M1925.1,881.6c-35,0.3-63.5-26.2-63.1-61.1c0.5-38,25.9-63.5,64.6-65.5c34-1.8,63.9,29.6,64.1,63.9
			C1991,854.8,1963.3,881.3,1925.1,881.6z"/>
		<path class="st0" d="M2038.2,620.2c34.9-0.5,64.4,28.4,64.9,63.5c0.5,35.1-28.1,64.5-63.3,65.1c-34.9,0.5-64.5-28.5-64.8-63.6
			C1974.6,650,2003.2,620.6,2038.2,620.2z"/>
		<path class="st0" d="M1810.8,997.5c-32.5-29.8-36.4-65-10.1-91c18.9-18.7,46.8-22.2,69.5-8.6c23.2,13.9,33.5,41.5,25.1,67.2
			c-8.1,24.9-31.8,41.1-57.9,39.4c-6.3-0.4-12.5-1.5-18.7-2.2C1816.1,1000.6,1813.4,999.1,1810.8,997.5z"/>
		<path class="st0" d="M1783.4,1661.4c0.3-31.2,27.1-57.6,58-57.2c31.1,0.4,57.5,27.2,57.2,58.2c-0.3,31.1-27.1,57.5-58.1,57.2
			C1809.3,1719.3,1783,1692.6,1783.4,1661.4z"/>
		<path class="st0" d="M1989.4,1750.3c-32.5,0-56.6-24.2-56.6-56.9c0-32.6,24.1-56.8,56.8-56.7c32.4,0.1,56.8,24.5,56.8,56.9
			C2046.4,1726.1,2022,1750.3,1989.4,1750.3z"/>
		<path class="st0" d="M1729.8,1630.8c-31.3-0.6-57.4-27.4-56.8-58.4c0.6-31.1,27.5-57.3,58.5-56.8c31.2,0.5,57.1,27.3,56.7,58.5
			C1787.6,1605.6,1761.1,1631.4,1729.8,1630.8z"/>
		<path class="st0" d="M1700.7,1219.7c13.6,11.2,26.3,23,30,41.4c6.5,32.3-16.3,64.5-48.8,68.6c-33,4.2-63-20.6-64.6-53.5
			c-1.7-34.7,22.7-59.7,57.5-60.1c9.4-0.1,17.8,3,26.7,4.2L1700.7,1219.7z"/>
		<path class="st0" d="M1810.8,997.5c2.6,1.5,5.3,3.1,7.9,4.6c10.1,14.6,22.9,27.4,23,47.4c0.1,35.1-25.1,59.9-61.4,58.4
			c-31.9-1.3-56.5-30.4-53-62.7c3.5-32.7,34.4-56,67.2-50.6C1799.9,995.7,1805.4,996.6,1810.8,997.5z"/>
		<path class="st0" d="M1653.2,1490.6c-32.3,0.4-57.7-24.2-58.1-56.2c-0.4-31.9,24.8-57.7,56.5-58.1c31.5-0.4,58,25.1,58.5,56.4
			C1710.7,1463.9,1684.8,1490.2,1653.2,1490.6z"/>
		<path class="st0" d="M1701.5,1220.3c-18.2-17.3-33.5-35.8-27-63.5c7.7-32.7,38.1-51.9,69.9-44.4c30.3,7.2,48.4,37.1,41.8,69.4
			c-5.9,29.1-36,48.2-67.3,42.6c-6.2-1.1-12.2-3.1-18.3-4.8C1700.7,1219.7,1701.5,1220.3,1701.5,1220.3z"/>
	</g>
</g>
</svg>
