<?xml version="1.0" encoding="utf-8"?>
<!-- Generator: Adobe Illustrator 23.0.0, SVG Export Plug-In . SVG Version: 6.00 Build 0)  -->
<svg version="1.0" xmlns="http://www.w3.org/2000/svg" xmlns:xlink="http://www.w3.org/1999/xlink" x="0px" y="0px"
	 viewBox="0 0 3000 3000" style="enable-background:new 0 0 3000 3000;" xml:space="preserve">
<style type="text/css">
	.st0{stroke:#000000;stroke-width:10;stroke-miterlimit:10;}
</style>
<g id="Layer_1">
</g>
<g id="Layer_2">
	<g>
		<path class="st0" d="M782.2,1468.7c-138.4-49.3-242.1-133.9-312.4-257c-87.4-152.8-106.3-311-32.4-475.6
			c43-95.7,114.2-156.8,215.4-183.4c50.9-13.4,101.9-26.3,152.8-39.8c64.6-17,110.5-57.4,143.7-114.3
			c30.4-52.1,62.1-103.2,109.6-142.4c75.1-62.1,163.5-92.9,257.5-109.9c155.9-28.2,313.2-29.8,470.8-22.2
			c121.2,5.9,241.2,21,359.8,46.8c86.6,18.9,143.1,74.4,151.4,167.7c3,33.6,2.5,67,2.6,100.5c0.2,41-2,82.1,7,122.7
			c10.8,48.6,19.4,54.6,68.5,50.9c124.3-9.4,244.3,6.4,350.5,76.4c115.3,75.9,180,182.1,173.4,323.9c-2.2,48.1-16.5,94.2-38.6,137.4
			c-56.4,110.3-135.3,200.3-240.9,266c-14.3,8.9-15.8,12.9-1.2,24.1c124.6,94.7,191.3,222.5,210.2,376.2
			c21.5,175-0.9,344.2-73.9,505.2c-90.5,199.6-238.9,340.4-438.4,429.7c-146.3,65.5-299.1,109.3-456,139.4
			c-173.7,33.3-349.7,46.8-525.9,58.4c-159.2,10.5-318.2,23.1-477.8,23.1c-137.7-0.1-275.3-4.9-408.8-44.3
			c-100.2-29.5-187.8-78.6-250-165.9c-51.2-71.9-75.4-152.9-80-240c-7.4-139.2,26.2-270.5,82.1-396.3
			c111.7-251.4,275.4-460.5,506.9-613.2c11.4-7.5,23.1-14.7,34.8-21.7C754.5,1484.2,766.4,1477.8,782.2,1468.7z M410.9,2861.3
			c-4.2-14.3-7.6-25.2-10.7-36.1c-45.8-161.8-59.4-325.8-28.2-491.6c44.4-235.6,168.5-420.4,363.9-557.8
			c150.2-105.6,319.3-167.4,496.8-207.3c163.8-36.8,330-58.5,497.1-73.2c108.1-9.6,216.3-8,322.9,15.5
			c189.1,41.7,318.7,151.3,377.9,338.1c34,107.3,34.8,217.1,16.4,327.2c-23.1,138.2-76,265.1-150.6,383.2
			c-3.2,5.1-3.7,15.8-15.3,11.2c-32.5-12.9-36.3-23-18.7-51.6c4.3-7,8.6-14,12.7-21.1c93.2-164.3,147.2-338,129-529.6
			c-20.7-216.5-162.2-372-375.6-411.6c-14.6-2.7-20.5-0.8-19.6,16.3c2.6,55.6-2.7,110.6-11.5,165.6
			c-13.4,83.4-52.1,145.9-134.7,175.2c-9,3.2-9.2,10.6-11,17.8c-11.8,49-32.7,93.5-71.9,126.1c-15.6,13-20.1,26.7-21.2,45.4
			c-4.7,77.7-34.8,144.6-90.2,199.2c-89.9,88.6-207.4,94.5-297,15.3c-38.2-33.8-65-75.6-81.5-123.7c-4-11.7-9.3-19.7-21.8-24.2
			c-20.8-7.6-38.1-21.2-52.6-38.2c-34.8-40.5-61.1-85.7-76.4-137c-2-6.9-1.6-14.6-12.6-15.7c-59.3-6-95.6-43.3-121-92.9
			c-25-48.6-48.4-98.1-71.7-147.5c-5.1-10.9-9.1-13.8-20.9-7.8c-44.5,22.7-88.8,45.8-130.1,74c-249,169.5-373.8,405.2-376.4,706.2
			c-1,123.2,21.2,242.1,59.9,358.6c4,12,11.3,15.4,21.7,18c119.8,29.9,242.2,35.3,364.7,35.1c116.4-0.1,232.7-6,348.8-14.3
			c184.3-13.2,369-21.9,552-49.7c170.3-25.9,337-65.8,496.3-132.1c155.4-64.7,292.3-153.9,388.2-297.7
			c128.4-192.5,171.8-403.4,137.7-630.2c-24.6-163.6-112.7-284.8-258.1-364.5c-96.1-52.6-199.6-82-306.8-99.9
			c-193.9-32.4-388.7-29.5-583.6-10.8c-154.7,14.9-308.2,38.3-460.6,68.4C1014,1421.7,867.6,1469.3,736,1555
			c-221.9,144.4-377.3,345-485.5,583.9c-52.1,115.1-85.8,235.3-82,363.2c2.8,96.3,29.1,184.9,93.7,259.1
			C301.9,2806.9,351.6,2838,410.9,2861.3z M2250.9,448.9c-0.1-36.3,1.4-72.4-2.8-108.7c-7-60.6-38.3-99.5-97.2-115.8
			c-50.9-14.1-103.3-20-155-29.7c-19.5-3.7-24.1,3.3-27.3,19.8c-32.3,165.6-64.9,331.1-97.8,496.6c-2.5,12.8-0.3,18.8,13.3,23.9
			c160.5,59.5,251.5,177.7,285.6,342.6c12.4,60.1,14,120.9,7.9,181.9c-1.3,13.4,2.2,19.7,16.8,21c19.7,1.8,39.6,4.7,58.6,9.9
			c15.5,4.2,21.5,0,26.6-14.6c48.3-139,68.2-281.5,54.8-428.2c-1.5-16,2.9-23.6,18.4-22.8c13.1,0.7,30.7-10.8,32.8,17.5
			c11.6,152.8-6.8,301.5-57.4,446.1c-4.9,14-4.1,18.4,10.7,22.1c35.1,8.8,70.1,18.7,103.4,33c14,6,20.3,4.5,27.4-10.1
			c58.7-119.8,89-246.4,94.8-379.4c1.8-41-7.4-34.6,38.8-35.6c11.8-0.2,13.1,5.1,12.8,14.9c-4.3,146.1-34.7,286.1-99.7,417.5
			c-8.4,16.9-6.8,25.2,10.6,31.1c13.8,4.7,23.6,19.1,42.6,8c107.3-63.2,190.5-149.1,246-260.5c47-94.3,50.1-188.9-4.8-282.2
			c-59-100.1-150.3-151.7-260.7-175.1c-62.9-13.3-126.3-12-190.1-8.7c-54.2,2.8-81.4-20.1-97.1-72
			C2248.8,544.7,2251.1,496.7,2250.9,448.9z M962.2,1335.1c-5.8-39.1-2.1-77.9,2.8-116.7c22.4-179,106.8-319.5,260.4-416.4
			c9.3-5.9,14.4-12.1,16.2-23.7c21-136.4,42.8-272.6,64.3-408.9c8.1-51.3,16.5-102.5,23.7-153.9c0.9-6.4,10.5-22.6-9.2-18.7
			c-86,17.3-167.9,44.5-235.7,103.7c-36.7,32.1-62.6,72.4-86,114.3c-41.4,74-101.1,124.5-183.1,148.3c-30.2,8.8-60.7,16.2-91.3,23.5
			c-55.8,13.3-113.1,24.1-159,62.1c-79,65.3-112.5,154.7-120.8,252.3c-16.5,193.2,101.5,397.8,273.8,485.7c12,6.1,16,4,19.7-8.3
			c25.5-86.3,42-174.1,46.5-264c2.9-57.5,2.6-115-4.1-172.2c-1.8-15.8,1.1-25.4,19.8-23.6c6,0.6,12.3-0.9,18.3-2.2
			c7.2-1.5,10.7-0.8,11.5,8.3c4.2,45.7,7.6,91.4,7,137.3c-1.6,115.4-18.5,228.7-53.7,338.8c-3.2,10.2-1.8,14.3,8.2,18.1
			c33.1,12.4,65.6,23.9,99.2,1.1c6.1-4.1,14.1-5.2,20.9-8.4c16.5-7.9,41.2-6.8,48.9-21.8C968.1,1374.9,962.2,1353.5,962.2,1335.1z
			 M1952.6,1258.8c51.9,3.5,103.8,6.4,155.6,11c14.6,1.3,19.3-1.8,20-16.4c2.4-48.6,3.4-97.1-4.2-145.4
			c-16.2-102.1-57.9-190.5-137.9-258.4c-77.1-65.4-169-90.6-267.5-94.9c-93.3-4.1-186.1,4.1-277.8,20.9
			c-136.6,25.1-251.1,88-333.1,202.7c-82.8,115.8-105.2,247.1-96.4,386.1c0.9,14,8.6,10.4,16.9,8.1c102.3-28.3,206.8-46,311.5-62.5
			c11.7-1.8,15.9-5.2,16.8-17.2c7.4-97.5,15.8-195,23.4-292.5c2.4-30.2,1.7-29.6,31.7-27.2c15,1.2,22.6,5.1,19,22.2
			c-2.5,11.9-1.9,24.5-2.8,36.8c-6.4,84.6-12.6,169.2-19.5,253.7c-1,12.4,3.1,13.2,13.7,11.8c63.7-8.3,127.4-17.2,191.4-23.1
			c20.6-1.9,26.7-9.5,30.2-28.4c20-105.3,41.4-210.3,62.1-315.4c2.6-13,7.4-20,21.9-13.9c4.3,1.8,9.3,1.9,14.1,2.5
			c12.8,1.6,17.7,5.5,14.4,21.1c-21.6,102.2-41.4,204.9-62.2,307.3c-3,14.9-1.2,20,16.5,18.6
			C1790.9,1259.9,1871.7,1258.3,1952.6,1258.8z M1657.6,171.4c0-0.1,0-0.2,0-0.2c-22.6,0-45.3,1.1-67.7-0.4
			c-17.1-1.1-21.7,6.7-24.3,21.6c-30.3,169.4-60.9,338.7-92.3,507.9c-2.9,15.7-0.2,19.1,15.1,17c52.2-7.3,104.7-12.3,157.4-13
			c12.9-0.2,16.8-4.8,18.8-17.8c14-92.5,29.2-184.8,43.8-277.2c11.6-73.5,22.2-147.2,34.4-220.6c2.5-15-2.3-17.8-15.3-17.5
			C1704.1,171.8,1680.9,171.4,1657.6,171.4z M1837,1539.6c-49.4,3.1-98.6,6.5-147.8,9c-16.9,0.9-23.3,6.1-21.4,24.6
			c6.4,62.8,6.2,126.1-2.7,188.5c-6.1,42.6,23.1,89.8,59.6,104.9c75.3,31,192.5-3.5,215.2-101.9c15.3-66.5,21.4-133.5,19.5-201.6
			c-0.4-13.6-5.8-18-18-18.6C1906.6,1543.1,1871.7,1541.3,1837,1539.6z M1618.2,1657.1c0-28-0.1-56.1,0.1-84.1
			c0.1-11.2-3.5-15.4-15.9-13.9c-90.2,11.3-180.1,23.7-269.5,39.8c-10.8,1.9-14.1,6.5-14.1,17.4c-0.1,47.2-1.4,94.4-1.9,141.6
			c-0.1,6,0,13.2,3.1,17.8c30.4,46.4,84.6,95.5,158.5,86.5c28.5-3.5,56.8-8.2,84.8-14.5c33.6-7.6,42-15.9,47.4-49.6
			C1618.1,1751.4,1619.9,1704.3,1618.2,1657.1z M1264.9,1719.9c1.3,0,2.6,0,3.9,0c0-31.4-0.3-62.9,0.2-94.3
			c0.1-9.7-2.2-14-12.8-11.5c-92.3,22.2-183.7,47.6-271.6,84.2c-9,3.7-11.2,7.1-6.7,16.3c23.7,48.4,45.1,98,70.7,145.4
			c41,76,85.2,86.2,159.4,41.6c37.3-22.4,56.7-54.1,56.9-97.6C1265,1775.9,1264.9,1747.9,1264.9,1719.9z M1510,2323
			c15.4-1,32.5-3,48.5-9.5c89.8-36.9,134.5-107.6,149.6-200.3c2.2-13.6-5-10.3-13.1-8.2c-65.5,17.1-127.7,7.9-185.8-26.1
			c-12.2-7.2-17.3-6.2-24.5,6.5c-29.2,52.1-70.9,88.1-132.5,95.3c-14.1,1.6-11,8-7.3,16.2c19,42.2,46.8,77,85.8,102.4
			C1454.3,2314.5,1480.2,2322.4,1510,2323z M1312.3,1847.7c-36.7,73.3-43.1,80.1-115.6,115.2c-10.9,5.3-11.2,11.3-8.2,20.9
			c12.4,39.7,32.9,74.9,58.8,107.1c40.6,50.6,117.5,56.2,163,9.8c46.9-47.7,66.8-106.7,64.3-173.6c-0.5-12.4-6.3-14.1-16.7-14.1
			c-49.5,0.1-91.4-19.4-128.6-50.8C1323.6,1857.5,1318.1,1852.7,1312.3,1847.7z M1798.4,1928.8c-62.2,0.8-118.2-13.7-156.5-67.6
			c-31,27.1-35,29.1-76.4,37.9c-9.4,2-18.7,4.7-28.2,5.3c-10.8,0.7-13.7,5.7-13.3,15.8c0.7,20.5,1,40.9-2.5,61.4
			c-7.9,46.8-6.8,48.2,37.8,66.5c3.2,1.3,6.3,2.6,9.6,3.7C1672,2088.2,1777.4,2032.4,1798.4,1928.8z"/>
		<path class="st0" d="M682.1,2420.2c0,48.6-0.7,97.2,0.4,145.7c0.3,15.6-4.3,21.3-19.6,19.2c-5.4-0.8-11-0.5-16.4-0.1
			c-10.2,0.8-14.5-2.6-14.5-13.7c0.3-101.9,0.3-203.9,0-305.8c0-10,3.7-12.5,13.2-13c36.9-2.1,36.9-2.5,36.9,34.3
			C682.1,2331.2,682.1,2375.7,682.1,2420.2z"/>
	</g>
</g>
</svg>
