<?xml version="1.0" encoding="utf-8"?>
<!-- Generator: Adobe Illustrator 23.0.0, SVG Export Plug-In . SVG Version: 6.00 Build 0)  -->
<svg version="1.0" xmlns="http://www.w3.org/2000/svg" xmlns:xlink="http://www.w3.org/1999/xlink" x="0px" y="0px"
	 viewBox="0 0 3000 3000" style="enable-background:new 0 0 3000 3000;" xml:space="preserve">
<style type="text/css">
	.st0{stroke:#000000;stroke-width:10;stroke-miterlimit:10;}
</style>
<g id="Layer_1">
</g>
<g id="Layer_2">
	<g>
		<path class="st0" d="M834.1,2367.7c-9.4-14.1-18.7-27-27-40.6c-30.1-49.3-23.5-95.6,18.9-134.2c26.5-24.1,26.5-27.8-0.4-52.4
			c-14.2-13-29.3-25-41.9-39.6c-33.9-39.3-43.8-83.9-30.5-133.7c12.6-47.4,32.1-91.3,66.6-127.4c4.3-4.5,10.1-8.2,3.5-16.4
			c-54.4-67.1-54.2-201.8,19.1-282.5c67-73.8,110.1-161.8,156.5-253.4c-34.3,18.7-68.3,24.4-103.1,27.2
			c-81.3,6.4-132.3-26.5-156.9-104.2c-16.8-53-21.7-107.9-19.7-163.3c0.8-21.2,3-42-0.9-63.3c-5.1-28.2,0.2-55.5,10.8-81.8
			c2.8-6.9,5.2-12.6-0.4-20c-22.1-29.2-25.3-63.7-24.2-98.6c2.4-77.6,5.9-155.3,8.9-232.9c0.4-9.2,1.8-18.4-4.5-26.7
			c-32.6-42.3-38.9-92.2-39.7-143.2c-1.4-87.3,20.7-166.3,80.8-232.8c113.1-125.3,308.9-126.1,421.5,0
			c21.3,23.9,47.2,33.7,77.8,32.3c100.8-4.6,201.6-9.8,302.4-14.5c7.7-0.4,13.9-2.9,20.4-6.4c93.2-50.5,185.3-49,275.3,7.7
			c10.4,6.6,19.7,4.8,29.8,4.6c84.3-1.2,168.7-1.6,253-6c39.8-2.1,79.6-3.4,119.3-6.7c14.4-1.2,19.4,3.3,19,16.6
			c-0.1,4.6,0,9.3,0.7,13.9c2.1,13.4-2.9,18.7-16.9,19.2c-65,2.4-130,6.5-195.1,8.3c-48.4,1.4-96.8,0.3-151.9,0.3
			c41,58,57.4,115.9,48.8,179.6c-8.6,63.7-40.4,114.2-93.9,158.9c13.9-0.6,22.6-1.3,31.3-1.4c65.6-1.1,131.3-8.6,196.5,5
			c165.6,34.6,287.4,169.9,304.6,338.7c5.2,50.9,7.9,101.9,8.1,153.1c1.1,270.3,6.4,540.6,3.6,811c-1.4,130.1-2.5,260.3-23.4,389.3
			c-13.1,80.8-33.5,159.5-61.6,236.4c-33.7,92.3-103.1,135.6-196.5,148.5c-118.1,16.3-237,16.6-355.9,17.4
			c-59,0.4-118.1-1-177.1-1.2c-37.5-0.1-74.9-9.3-112.5-13.6c-23.1-2.7-46.3-3.5-69.4-6.2c-12.1-1.4-17.2,3.1-21.6,14.2
			c-60.3,152.9-173.4,243.1-333.3,273.8c-102.4,19.7-199.9,7.6-284.3-60.9c-98.9-80.3-140.9-221.5-98.2-333.8
			c27.7-73,81.6-121,151.3-152.9C825.7,2371.4,829.7,2369.6,834.1,2367.7z M1331.5,831.2c33.1-5.7,61.4-7.4,89.7-6.6
			c183.5,5.8,351.5,174.1,322.1,365.5c-16.3,106.4-51.5,203-132.1,278.4c-23.9,22.4-52.1,38.8-79,57c-23.2,15.6-45.6,32-61.4,56
			c-19.2,29.1-20.2,58.2-1.5,87.7c9.9,15.7,20.6,30.9,30.2,46.8c50.7,84.2,48.6,200.7-66,262.4c-9.8,5.3-14,3.6-17.8-5.7
			c-2-4.9-4.3-9.8-7.4-14.1c-8.8-12.2-6.1-19.2,7.2-27c29.8-17.5,56.2-39.9,63-75.7c7.7-41,2.3-80.6-21.8-116.3
			c-9.7-14.3-19.4-28.6-28.3-43.4c-29.7-49.4-28.7-97.9,4.4-145.6c22.1-31.9,53-53.7,85-74.1c32.5-20.8,63.9-42.9,88.6-73.2
			c50.1-61.6,75.9-133.5,87.3-210.7c17.6-119.9-32.3-216.4-145.6-282.7c-74.8-43.8-155-44.2-237.2-23.8
			c-22.8,5.7-37.2,17.4-44.8,39.1c7.3,2,13.1-2.3,19.1-4.1c118-35.7,242.6,19.6,295,131.1c60,127.8-1.9,282.3-134,332.3
			c-16,6.1-25.6,14-33.1,29.8c-46.2,97.5-162.3,117.3-238.4,41.4c-50.1-50-63.4-109.9-46.6-177.7c1.9-7.6,7.5-15.1,4.2-23.1
			c-8.9-21.4-14-44-19.6-69.3c-4.5,6.7-7.7,10.8-10.1,15.3c-30.9,57.2-61.8,114.4-92.3,171.7c-29,54.4-55.7,110.1-96.3,157.5
			c-18.1,21.1-37.3,41.6-51.4,65.8c-34.9,59.8-39.4,121.4-9.4,184.5c6.8,14.2,16,28.1,34.9,22.7c44.4-12.6,80.3,1.1,112.3,32.1
			c20.9,20.2,47.8,25.3,75.7,23.2c24.7-1.8,40.8-17.6,44.8-40.9c7.7-44.3-15.6-84.3-58.7-98.1c-11.3-3.6-15.2-8.5-12.9-19.5
			c1.2-5.8,2.7-11.8,2.6-17.7c-0.3-15.4,7.2-14.7,19-11.7c72,18.4,115.8,93.9,95.6,165.7c-11.2,39.7-41.6,66.7-82.4,70.3
			c-45.3,3.9-86.5-6.5-121-38.3c-32.8-30.2-76.8-27.5-107.4,4.4c-9.8,10.2-10.7,14.9,2.6,22.7c36.7,21.4,72.8,43.7,108.5,66.8
			c61.9,40,123.4,80.7,175.9,133.2c11.8,11.8,22.8,24.2,29.8,39.6c16.8,36.8,1,69.7-38.4,79.1c-25.4,6-51.2,6.9-77.2,5.8
			c-49.8-2-99.1-8.6-148.3-16.6c-8.4-1.4-17.8-7-26.1,2.1c-10.3,11.2-21.3,21.8-32,32.7c-14.9,15.3-16,33-7.6,51.4
			c4.9,10.8,11,21.3,18.2,30.7c43.9,57.5,88.3,114.6,132.4,171.8c49.2,63.8,112.7,95.7,194.5,93.2c74.7-2.3,149.5-5.5,224.4-0.7
			c53.7,3.4,106.8,12.3,160.4,16.1c110.1,7.8,220.4,4.6,330.6,3c69.7-1,139.2-5.8,208.5-14.7c78.8-10.1,136.3-45.1,164.3-123.9
			c37.1-104.6,58.3-212,68.8-322.1c10.8-112.6,10.6-225.6,10.9-338.4c0.5-231.8-2.1-463.6-3.3-695.4c-0.3-65.8-2-131.4-7.4-197
			c-11.5-139.1-99.8-252.8-233.2-295.9c-45.3-14.6-91.4-16.8-139.4-14.1c-50.1,2.9-100.7,1.1-150.9,5.8
			c-114.4,10.8-225.2,35.2-327.9,89.3C1431.6,729.7,1378.5,772.6,1331.5,831.2z M785.3,2809.3c15.8-34.1,44.8-51.4,74.7-67.7
			c14.7-8,33-16.7,34.7-33.3c2.4-24,20.9-25.4,35.1-34c10.7-6.5,14.1-0.9,15.7,8.4c5.2,31.6-5.9,57.4-28.9,78.5
			c-15.7,14.4-34.4,24.5-52.9,34.9c-11.7,6.5-22.6,14-29.4,26.1c-6.9,12.3-6.8,21.9,8,28.9c27.2,12.9,55.6,21.1,85.2,26.2
			c13.5,2.3,18.4,0.5,19.7-14.3c3.6-41.6,11.4-82.7,22.3-123.1c6-22.4,17-41.6,37.4-54.4c7.2-4.5,11.2-4.3,14.7,4.5
			c6.9,17.4,18.4,34.1-0.2,51.6c-3,2.8-3.5,8.4-4.8,12.9c-9.8,35.9-16.1,72.4-20.7,109.3c-1.5,12.1,0.7,17.1,14.2,15.1
			c32.2-4.6,63.9-10.8,94.7-21.7c9.4-3.3,15.8-8.7,21.3-16.6c16.1-23.2,13.7-48.9,11-74.9c-3.5-33.3-3-32.6,31.3-39.8
			c10.7-2.2,12,1.1,13.5,9.8c4.5,26,7.7,52.2,6.5,78.6c2.2,0.1,3.8,0.7,4.7,0.1c66.5-41.5,111.6-100.9,142.4-171.9
			c6.3-14.5-5.2-11.6-12.3-11.5c-43.1,0.7-86.3,1.3-129.4,2.9c-94.6,3.5-172.8-29.1-232.1-104c-28.8-36.4-57.5-73-85.5-109.9
			c-7.2-9.5-13.2-12-24.7-6.9c-32.6,14.3-62.7,32.2-87.7,57.4c-43.7,44-64.8,96.9-60.4,162.7c24.4-16.2,50.1-18.2,75.6-21.6
			c18.7-2.5,37-9.9,48.9-24.6c13.8-17,23.7-13.8,39.8-2.8c16.8,11.5,14.7,18.7,2.5,31.2c-29.9,30.6-66.8,44.6-108.5,47.9
			c-15.9,1.2-29.4,7.3-40.8,18.5c-5.1,5-7.9,10.1-5,17.7C731.4,2740.2,752.9,2777,785.3,2809.3z M1503,217.4
			c-42.4,1.9-80.9,3.5-119.3,5.3c-39.1,1.9-78.3,3.8-117.4,6c-50.6,2.9-96.7-6.5-130.9-48c-5.4-6.6-11.8-7.1-19.3-7.4
			c-47.5-1.6-94,5.3-139.5,18.4c-50.7,14.6-98.9,34.9-141.3,66.9c-24.1,18.2-38.3,71.5-23.7,102.8c10.1,21.7,36.9,10.4,55.8,15.3
			c0.6,0.2,1.3,0,2,0.1c67.4,5.7,131.5,17.5,164.6,88.6c53.9-49,118.9-72.6,184.6-93.7c75.1-24.1,150.9-45.9,226.4-69
			c7.2-2.2,15.8-2.8,18.9-12.5C1471.8,264.7,1485.9,242.3,1503,217.4z M1451.6,352.2c-99.7,33.6-201.6,53.6-296.6,95.3
			c-31.6,13.9-62.3,29.2-87.5,53.9c-107,104.7-155.1,230.6-136.8,380c5.9,48.4,18.3,95.1,46.1,136.3c42.2,62.6,140.1,58.7,178.4-6
			c47.9-80.9,94.1-163.1,157.2-234.1c29.3-33,28.6-33.7,3.6-70.7c-0.4-0.5-0.8-1.1-1.2-1.6c-16.4-23.4-22.5-23.6-38.7-0.8
			c-26.2,36.8-45.6,77.7-69.4,116c-19.8,31.8-35.5,67.2-69.4,88c-24.1,14.8-50.2,9.5-66.2-13.9c-10.6-15.5-16.9-33-21.9-50.9
			c-14.3-51.6-10.3-103.9-6.5-156.3c7.9-107.6,68.8-175.2,164.5-214.5c74.2-30.5,151.7-47.6,232.7-45.7c6.1,0.1,12.9,2.8,19.1-2.4
			C1453.6,401.4,1451,377.9,1451.6,352.2z M1703.3,172.4c-134.9,0.5-231.4,121.7-195.2,245.3c28.4,97,134.7,157.8,238,136.1
			c88.6-18.6,154.9-89.9,160.4-172.5C1914.1,265.6,1823.1,172,1703.3,172.4z M1621.9,594.2c-62.6-23.4-107.8-59.6-139.1-112.5
			c-2.3-3.8-4-6.4-10.3-6.6c-79.7-2.2-157.3,8.7-232.1,36.8c-86.2,32.4-144.7,86.8-149.6,185.2c-2.4,48.4-7.1,96.8,9.7,143.8
			c3,8.4,3.3,21.6,12,23.3c9.1,1.7,14-10.5,19.4-17.7c22.5-29.7,39.1-63,57.9-95c19.4-33.1,36.8-67.7,63.6-95.8
			c24.3-25.4,52.8-26,79.5-3c11.6,10,21.3,21.8,28.8,35.3c5,9,10.5,17.7,15.6,26.4C1450,658.1,1530.5,620.3,1621.9,594.2z
			 M1057.3,125.8c-92.9-43.6-195.3-24.4-262.9,45.9c-77.7,80.7-90.4,178-66.6,281.3c16.4,71.3,89.6,113,161.5,100.3
			c30.6-5.4,58.2-17.8,84-34.7c18.7-12.3,21.4-25.3,9.7-44.7c-14.9-24.6-38.2-36.8-65.2-41.1c-32.7-5.2-65.8-7.7-98.6-12.2
			c-32.4-4.4-52.9-22.9-55.9-52.8c-2.1-21.7-4-43.5-2.1-65.5c3.2-37.8,20.7-66.6,51.3-87.8c45.1-31.3,94.7-53.1,147.1-68.8
			C989.9,136.5,1021.2,131.4,1057.3,125.8z M900.1,975.6c-1.8,4.5-3,7.4-4.2,10.4c-23,58.8-56.5,80-119.3,74.6
			c-8-0.7-9.5,1.5-9.2,7.9c2.7,53.1,5.1,106.3,29.6,155.1c13.3,26.6,35.6,40.4,65.2,42.3c24.6,1.6,49.1-0.4,73.2-5.4
			c36.7-7.7,52.7-25.2,59.2-62.8c5.3-30.4,1.8-60.9,1.6-91.4c0-8.9-5.7-12.6-12.1-16.5c-28.2-16.8-48.5-41-63.1-70
			C913.8,1005.6,907.4,991.1,900.1,975.6z M1066.7,2171c15.6-0.7,34.1,0.4,52.6-3.7c12.1-2.7,12.5-7.2,6.1-15.9
			c-13.3-18.4-28.9-34.6-46.4-49c-77.8-63.7-163.4-115.8-249.2-167.7c-10.2-6.2-13-2.4-17,6.6c-29.3,65.7-20.1,107.1,34.4,153.4
			c16.7,14.2,34.5,27.5,42.5,49.1c3,8.1,9.8,8.5,16,9.4C958.1,2161.2,1010.5,2170.3,1066.7,2171z M764.6,597.3
			c-1.8,0.6-3.6,1.2-5.4,1.8c0.6,73.4-8.6,146.6-4.1,220.1c0.4,7.1,3.4,14.1,5.6,21c1.8,5.6,4.9,9.3,11.8,5.8
			c31.2-15.9,63.2-11.1,95.1-2.9c10.1,2.6,11.2-1.2,10.7-9.4c-1.5-23.9,1.4-47.7,3.3-71.5c0.4-5.2,1.2-10.3-2.5-15.2
			C840.8,697.2,802.8,647.2,764.6,597.3z M1364.4,1401.3c-77.6,0.8-140.1-28.7-193.3-84.1c-4,62.5,30.3,115.1,83.2,132.2
			C1295.1,1462.7,1338.1,1444.7,1364.4,1401.3z M765.5,963.5c-1,25.5,8.6,45.5,24,50.1c18.9,5.7,43-7.6,54.6-30.5
			c3-5.8,5.7-12.1,7-18.5c4-20.1,7.1-40.3,10.8-60.4c1.7-9.3-2.9-13.2-11.2-15c-52.9-11-63.8-4.2-80,41.1
			C766.9,941,766,952.2,765.5,963.5z M1434.4,1258.9c2.3-2.6,4.6-5,6.7-7.5c9.3-11.1,18.7-22.2,27.9-33.5c10-12.2,26.7-23.8,28.1-37
			c1.5-14.5-15.8-27.3-25.1-40.7c-17-24.5-17.2-24.5-37.2-1.4c-14.7,17-37.2,32.5-41.4,51.8c-4.5,21,21,38.4,31.4,58.5
			c1.2,2.3,2.7,4.6,4.5,6.5C1430.5,1257,1432.4,1257.7,1434.4,1258.9z M1360.8,1149.7c10.7-12.4,19.9-22.7,28.8-33.4
			c11.4-13.7,29.4-26.4,32-41.6c2.7-15.9-17.6-29.2-26.7-44.3c-3.4-5.7-7.8-10.7-11.3-16.3c-5.1-8.5-9.4-6.7-14.7-0.1
			c-15.4,19-30.9,37.9-46.9,56.5c-5,5.8-6.6,10.2-1.8,17.2C1333.6,1107.2,1346.2,1127.3,1360.8,1149.7z M1282.9,1120.1
			c-2.5,1.8-4.4,2.6-5.7,4c-32.5,33.7-32.5,33.7-7.1,72.4c23.8,36.3,27.8,36,52.3-1.2c3.5-5.3,3.7-9.1,0.4-14.1
			C1309.4,1161,1296.2,1140.6,1282.9,1120.1z M1355.6,1232.5c-4,4.2-6.3,6.5-8.5,9c-28.1,31.1-28.1,31.1-5.3,66
			c25.2,38.5,25,38.4,52.3,0.2c4.3-6,4.2-10.1,0.5-15.6C1381.8,1272.9,1369.3,1253.6,1355.6,1232.5z M896.3,688.4
			c10-35.1,23.8-64,39.4-96.5c-35.8,11.6-68.1,14-105,10.9C854.1,633.5,874.1,659.6,896.3,688.4z M1227.4,1302.5
			c2.2-1.4,3.8-2.4,5.3-3.5c22.6-15.4,25.7-30.1,10.8-52.9c-3.6-5.5-7.2-11.1-10.8-16.6c-19.4-29.6-19.4-29.6-42.2-2.4
			c-5.2,6.2-13.2,11.2-6.4,21.9c10.2,16.2,20.4,32.4,34.3,45.8C1221.3,1297.4,1224.3,1299.8,1227.4,1302.5z M1217.6,1115.3
			c40-34.6,40-34.7,13.1-75.9c-2.9-4.4-6.1-8.6-8.7-13.2c-3-5.2-5.6-5.7-10.7-1.8c-22.9,17.3-27.5,39.8-12.3,63.1
			C1205.1,1096.8,1211.4,1106,1217.6,1115.3z M1350.1,960c-34.9,1.3-61.6,9.5-86.7,23.3c-4,2.2-8.1,4.3-3.8,10.5
			c9.2,13.2,17.8,26.8,27.5,41.7C1308.1,1010.5,1327.3,987.4,1350.1,960z M1533.9,1142.6c5.1-11.6,19-15,15.6-29.4
			c-6-25.2-15.1-48.9-32.2-70.6c-7.8,9.2-14.8,18-22.4,26.1c-5.3,5.6-6.7,9.8-1.4,16.7C1506.9,1103.4,1519.4,1122,1533.9,1142.6z
			 M1099.4,1107.9c-15.8,1-29.5,2.3-43.3,2.6c-7.2,0.2-11,1.9-10.9,10c0.3,25.4,0.1,50.8,0.1,81.9
			C1065,1168,1081.9,1138.5,1099.4,1107.9z M1470.1,1316.1c0.9-0.4,1.5-0.8,2.1-0.9c15-2.6,65.9-66.9,63.9-81.3
			c-0.4-2.9-2.7-6.1-5-8c-2.5-2.1-4.9,0.5-6.5,2.4c-20.1,23.8-40.4,47.5-60.1,71.7C1458.5,1307.3,1465.5,1311.7,1470.1,1316.1z
			 M1414.6,969.2c7.6,18.5,19.6,30.9,28.9,44.9c15.1,22.6,22.1,21.8,36.1-2.7c2.2-3.9,3.7-6.8-0.6-10
			C1460,987.4,1440.7,974.4,1414.6,969.2z M1163,1128.2c-2.3,17.8-3.5,34,0.2,51.5C1189.3,1157.1,1189.3,1153.3,1163,1128.2z
			 M1286.3,1312.5c-5.7,7.9-16.3,14.1-12.8,18.8c6.8,9.1,19.3,11,34.2,13.5C1299.5,1332.5,1293.4,1323.2,1286.3,1312.5z"/>
		<path class="st0" d="M1697.5,389.3c0.4-47.9,38.5-85.1,86.7-84.6c46.6,0.5,84.4,38.6,84.5,85.3c0.1,47-39.3,86.5-86.1,86.2
			C1735.2,476,1697.1,437,1697.5,389.3z M1746.8,389.4c-0.3,20.7,15.2,37.2,35.4,37.6c19.9,0.4,36.8-16.1,37.1-36.2
			c0.3-20.5-15.5-37.2-35.7-37.7C1763.8,352.7,1747,369.2,1746.8,389.4z"/>
	</g>
</g>
</svg>
