<?xml version="1.0" encoding="utf-8"?>
<!-- Generator: Adobe Illustrator 23.0.0, SVG Export Plug-In . SVG Version: 6.00 Build 0)  -->
<svg version="1.0" xmlns="http://www.w3.org/2000/svg" xmlns:xlink="http://www.w3.org/1999/xlink" x="0px" y="0px"
	 viewBox="0 0 3000 3000" style="enable-background:new 0 0 3000 3000;" xml:space="preserve">
<style type="text/css">
	.st0{stroke:#000000;stroke-width:10;stroke-miterlimit:10;}
</style>
<g id="Layer_1">
</g>
<g id="Layer_2">
	<g>
		<path class="st0" d="M52,1654.9c6.5-154.6,12-309.5,44.9-461.2c61.5-283.4,234.6-473.8,504.7-569
			c289.8-102.1,574.3-73.9,846.6,68.2c67.8,35.4,126.7,83.7,175.8,142.7c9.6,11.5,14.6,11.9,25.4,1.1
			c94.5-95.4,204-167.1,333.7-205.4c306.3-90.6,659.2,32.8,832,290.6c63,94,92.7,199.2,103.8,310.5c8.7,88.2,15.3,176.5,16.6,265.1
			c1.7,118.4-12.1,235.2-56.2,345.4c-81.4,203.6-204.4,376.2-391.1,497.3c-135.6,88-286.6,114.6-445.6,105.8
			c-73-4.1-145.3-14.2-216.9-29.2c-105.6-22.2-200.8-67.2-285.8-133.6c-9.1-7.1-14.9-11.1-26.2-1.1
			c-109.1,97-238.7,149.1-381.6,169.1c-160.4,22.5-321.2,21.8-481.3-3.8c-123-19.7-237.7-62-339.7-135.2
			c-137.3-98.5-210.6-236-241.7-399C53.1,1827.8,50.1,1741.6,52,1654.9z M1714.5,1197.3c-2,1.5-3.4,2.2-4.2,3.2
			c-3.2,4.6-6.3,9.3-9.2,14.1c-115.6,188.9-176.9,392.2-162.3,615.5c1.1,17.4-0.5,34-5,51.4c-25.2,96.6-82.1,170-162.1,226.7
			c-114.4,81.1-245.1,101.1-381.1,97.1c-109.2-3.2-216.8-19.6-322-49.3c-169-47.7-281-151.1-317-327.7
			c-30.8-151.1-34-303.3-11-455.2c31.8-209.8,135.8-376.4,314.2-492.9c256-167.3,592.3-118.1,783.3,112.7
			c15.4,18.6,28.9,38.7,44.2,59.3c34.1-55.5,70-107.6,111.2-155.7c9.3-10.8,1-16.3-4.5-23c-41.8-50.3-90.8-92.7-147.5-124.6
			c-245.8-138-507.1-169.7-775.9-90.3c-300.6,88.9-480.2,291.5-529,605.2c-18.3,117.7-25.9,236.1-31.7,354.8
			c-5,102.7-2.5,205.3,19.7,306.4c27.8,126.3,83.5,236.7,184.9,320.5c96.1,79.4,207.8,125,329.2,147.1
			c156.8,28.5,314.5,28.5,472.5,9.1c204.8-25.2,370.5-117.8,484.3-290.9c152.6-231.9,212.1-485.6,160.9-761.5
			C1746.9,1297.6,1735.2,1246.4,1714.5,1197.3z M1678.8,2076.8c-31.5,55.2-67.9,105.9-110.8,151.8c-8.8,9.5,1.4,11.9,6,15.5
			c50.8,39.6,106.1,71.2,166.4,94c84.2,31.8,172.5,44.6,261.3,53.2c100.7,9.7,201,6.1,299-22c132.7-38.1,239-116.5,329.4-218.4
			c86.9-97.9,157.1-206.5,202.4-329.8c41.3-112.3,55.2-229.1,50.7-348.3c-2.3-61.8-6.1-123.6-11-185.3
			c-6.2-78-16.2-155.3-44.7-228.7c-61.7-158.8-177.2-267-329.3-336.2c-197.7-90-398.4-97.8-597.3-3.9
			c-162.5,76.7-280.8,202.6-370.4,355.4c-145.9,248.7-193,517.3-152.4,802c6.2,43.4,15.8,86.2,31.2,130.9
			c47.2-58.3,80.9-117.2,76.6-193.2c-5.8-101,6.6-200.8,29.6-299.1c26-111.3,76-212.6,132.2-311.1c50-87.5,111.9-165.7,193.7-225.8
			c156.8-115.2,332.3-144,520.2-106.2c193.5,38.9,378.8,227.3,363.8,471c-5.4,87.2-19.8,173.1-29.8,259.6
			c-17.2,148.7-74.4,279.1-175.3,389.3c-158.7,173.4-353.9,242.9-586.2,198.4C1841.5,2172,1756.8,2132.9,1678.8,2076.8z M758,1457.1
			c0,9.8-0.3,19.7,0.1,29.5c0.7,18.8-9.3,42.6,1.4,54.9c10.9,12.5,35.7,7,54.5,8.5c58.4,4.6,49.9,13.1,52.6-45.1
			c4.2-92.1-9.4-182.2-37.3-270.1c-2-6.2-9.6-13.2,0.8-19.9c29.9-19.4,42.6-15.1,52.8,18.5c3.5,11.4,6.6,23,9.6,34.5
			c23.1,88.6,30.3,178.7,24.1,269.8c-1,15.1,2.5,20.2,17.5,19.3c14.7-0.9,29.6-0.7,44.3,0.4c11.8,0.9,15.2-3.7,17-14.9
			c16.8-104.2,7-205.9-28.1-305.3c-9.9-28-9.7-26.8,18.2-39.5c16.8-7.7,21.6-2.5,27.4,13c36.1,97.3,47.9,197.5,39.6,300.5
			c-1.2,14.6-9.1,34.5-2.4,42.5c8.5,10.2,29.1,1.5,44.2,3.8c16,2.4,21.2-2.7,23.2-19.4c11.6-96.7,6.1-192.3-15.2-287.1
			c-2.7-12-0.4-16.8,11.1-18.6c5.5-0.9,11.1-2.1,16.3-4.1c14.9-6,21.2-1.3,24.5,14.7c17.8,87.3,25.7,175.1,18.2,264.2
			c-1.4,16.8-13,39.5-0.4,49.3c11.2,8.8,33.8,2.9,51.2,4.5c12.2,1.1,15.2-3.9,15.9-15.4c5.2-87.7-2.4-174.1-23.9-259.3
			c-9-35.5-8.9-34.8,24.8-45.6c12.3-4,16.5-1.4,19.8,10.9c25.5,95.1,37.5,191.6,31.2,290.1c-0.7,10.3-6.1,22.2,13.2,23.9
			c19.7,1.8,15.5-12,16.6-21.4c15.8-139.5,51.5-273.5,114.2-399.1c15.3-30.7,11.7-51.3-5.7-77.8C1297.8,865.9,988.3,746.8,715,904.3
			c-191.4,110.3-296.7,279.7-327,497.3c-1.6,11.6,3.4,16.3,11.4,21.8c44.4,30.3,92.6,52.7,142.6,72.1c16.4,6.4,19.6,0.4,20.3-13.4
			c0.2-4.9,0.7-9.8,1.1-14.7c4.5-66.8-3.3-132-27.1-194.8c-4.2-11.2-3.2-16.8,8.7-19.9c5.4-1.4,10.8-3.5,15.5-6.5
			c15.5-9.9,21-2.7,26.1,12.1c27.7,79.1,36.3,160.1,24.8,243.1c-1.6,11.4,0.3,16.7,12.4,18.7c18.7,3.1,37.5,6.7,55.5,12.5
			c20.9,6.7,26.1-0.5,27-20.9c4.2-98.9-2.5-196.9-25.8-293.2c-7.7-31.6,17.1-21,28.8-27c16.5-8.4,19.7,3.7,22.5,16.5
			C749.5,1290.1,759.7,1373,758,1457.1z M1977.8,1468.4c-1-87,12.2-172.2,33.9-256.3c4.4-16.9,11.2-22.8,27.5-14.4
			c3.1,1.6,6.6,2.5,10.1,2.9c16.1,2,17.5,9.5,13.3,24.5c-24.4,87.9-37.5,177.5-33.6,268.8c2.5,57.7-8.8,46.6,52.1,50.9
			c16.3,1.1,19.9-4.1,19.1-19.7c-4.7-96.2,6-190.9,32.5-283.6c8.7-30.5,8.4-29.9,38.3-21.4c15.3,4.3,19.2,9.8,14.3,26.4
			c-25.5,86.2-38.1,174.3-34.1,264.3c2,44.6-2.2,35.1,38.2,37.8c15.9,1,21-2.2,20.8-20.2c-1.1-101.8,12.7-201.8,40.7-299.8
			c3.6-12.7,8.8-13.9,19.1-9.4c4.5,2,9.3,3.6,14.1,4.1c18.1,2.2,19.6,10.7,14.9,27.3c-25.9,90.4-37.3,182.8-37.6,276.9
			c-0.1,31.8,21.4,18.5,35.8,21.3c19.1,3.6,17.4-9.1,17.5-21.5c1.1-99.7,22.2-195.1,61.5-286.6c2.4-5.6,4.7-16.4,9-15.2
			c14,3.9,28.3,9.5,40.1,17.7c9.2,6.4-0.9,15.1-3.8,22.2c-35.2,84.7-53.8,172.7-56,264.4c-0.3,14.3,2.9,20.6,18.4,19
			c16-1.6,32.3-1.6,48.5-1.5c12,0.1,16.7-4,18-16.9c9.5-93.5,37.9-181.2,84.7-262.8c15.9-27.8,15.6-27.1,42.6-10.9
			c13.2,7.9,16.6,14,7.7,28.7c-44,71.6-70.3,149.6-81.7,232.8c-3.8,28.1-7.6,27.1,24.3,25.2c33.7-2.1,67.4-6.5,101-6.3
			c20.7,0.1,25.9-8.3,27.6-26.4c4.4-45.5,10.2-90.8,15.4-136.2c26.9-236.7-129.4-399-293-444.8c-214.1-59.9-458.6-4-615.1,195
			c-9.2,11.7-11.7,21.4-6.3,36c35.4,95.4,57.5,193.8,64.6,295.4c1.4,19.6,2.2,39.3,3.2,59c0.3,5.8,0.4,11.7,8.4,11.8
			c8.9,0.1,7.1-6.8,7.7-12c0.4-4.2,0.3-8.4,0.5-12.6c5.6-110.5,29.2-216.9,71.2-319.3c2.1-5,2.7-13.5,8.5-13.3
			c15,0.4,28.6,7.9,40.4,16c8.9,6.1-0.8,15.4-3.5,22.2c-39.2,98.1-60.4,200-65.9,305.4c-0.7,13.8,2,20.6,17.4,20.6
			c17.5,0,35.1,1.7,52.6,3.8c11.9,1.5,16.3-1.3,15.3-14.3C1976.7,1505.1,1977.8,1486.7,1977.8,1468.4z M390.5,1756.2
			c3.2,18.3,5.7,33.4,8.5,48.4c24.9,132.6,94.2,231.2,222.7,279.9c151.4,57.3,309.3,77.4,470.3,66.4c94.5-6.5,183.7-33.3,260.7-92.3
			c9.5-7.3,13-13.4,9.1-26.1c-15-49.7-28.7-99.9-35-151.7c-1.6-13.1-7.7-15.1-19.8-14c-136,12-272.1,20.6-408.7,15.2
			c-131.3-5.2-260-25.2-384-70.6C472.8,1796.2,432.9,1777.6,390.5,1756.2z M2564.6,1843.4c-9.4,0.9-16.3,1.2-23.1,2.2
			c-88.3,13.8-177.2,21.5-266.6,24c-159.4,4.3-317.5-8.4-474.1-39c-13.4-2.6-17.9,0-22.2,12.6c-20.3,59.8-40.1,119.8-69.5,176
			c-5.7,11-2.8,16.2,6.2,21.5c4.8,2.8,9.4,6,14.2,9c125.5,79.1,260.8,117.7,409.6,96.3c161.5-23.3,285-109.1,382.1-236.8
			C2536.5,1888.9,2552.5,1868.9,2564.6,1843.4z M789.9,1600.2c-145-14.6-282-47.1-406.4-124.9c-1.2,4.9-2.2,7.4-2.4,9.9
			c-6.7,65.4,0.9,130.7,1.2,196c0.1,11.7,8.7,15,16.5,19.5c69.7,40.3,144,69.4,221.9,89.7c54.7,14.3,109.9,25,168.6,30.9
			C731.5,1757,726.1,1671.5,789.9,1600.2z M2275.9,1818c104.4-3.8,204.9-13.5,304.8-30.9c10.8-1.9,17-6.6,21-17.1
			c20.9-54,33.4-110.1,42.1-167.2c1.9-12.3-1.4-15.8-14.3-14.8c-119.2,9.6-238.7,12.8-358.3,12.4c-4.6,0-9.7-1.9-14.8,2.6
			C2320.9,1668,2327.7,1739.1,2275.9,1818z M981,1831.5c112.1,0.9,219-7.9,325.9-16.6c11.5-0.9,9.2-7.3,8.9-14.3
			c-2.4-55.4-7.1-110.9-1.6-166.4c1.4-13.9-3-17.5-16.8-18.4c-94.8-6.3-189.7-5-284.5-6.9c-3.3-0.1-7.2-0.9-8.6,3.6
			C1060.2,1687.1,1047.3,1771.9,981,1831.5z M2075.7,1596.4c-80.2-4.6-157.4-8.7-234.2-17.5c-13.5-1.5-16.2,2.8-17.1,15.5
			c-3.6,56.2-9.6,112.1-23.3,166.8c-3.2,12.6,0.1,17.8,13.1,19.7c43.1,6.4,85.8,14.7,129,20.3c32.2,4.2,64.6,9.5,98.7,9.4
			C1994.8,1729.9,2009.7,1652.8,2075.7,1596.4z"/>
	</g>
</g>
</svg>
