<?xml version="1.0" encoding="utf-8"?>
<!-- Generator: Adobe Illustrator 23.0.0, SVG Export Plug-In . SVG Version: 6.00 Build 0)  -->
<svg version="1.0" xmlns="http://www.w3.org/2000/svg" xmlns:xlink="http://www.w3.org/1999/xlink" x="0px" y="0px"
	 viewBox="0 0 3000 3000" style="enable-background:new 0 0 3000 3000;" xml:space="preserve">
<style type="text/css">
	.st0{stroke:#000000;stroke-width:10;stroke-miterlimit:10;}
</style>
<g id="Layer_1">
</g>
<g id="Layer_2">
	<g>
		<path class="st0" d="M2084.4,2398.3c70.7-102,179.7-146.9,291.8-122.3c109.2,23.9,191,112.1,212.8,228.6
			c10.6,57.1,11.4,113.9-0.7,170.8c-18,84.2-66.5,145.3-146.5,175.8c-114.1,43.5-232,48.4-350.3,18.2
			c-63.7-16.3-114.9-53.2-154.6-107.1c-1.8,2.1-3.3,3.3-3.9,4.8c-32.2,85.2-95.7,137.6-179.1,167.8c-164.7,59.6-327.3,44-487.1-18.8
			c-56.8-22.3-100-63.2-129.8-117.3c-1.6-3-3.7-5.7-6.2-9.6c-74.5,109.9-184.9,136-306.6,135.1c-60.3-0.5-119.9-7-177.9-25.1
			c-107.1-33.3-171.3-114-180.9-229.9c-5.4-66.2-1.3-131.8,25.9-193.4c42.2-95.6,115.7-153.9,219.6-166.3
			c107.5-12.9,194.1,27.8,257.8,115.8c1.2,1.7,2.6,3.3,4,4.8c0.3,0.4,1.1,0.2,5.5,1c0-25.3-0.1-50.1,0-74.8
			c0.1-12.9-11.3-10.9-18.1-13.1c-96.7-32-181.4-83.6-252.1-156.9c-114.1-118.4-175.5-260-176-424.9
			c-1.2-360.9-1.4-721.7-0.1-1082.6c1.1-305.2,233.2-567,534.2-605.8c29.1-3.8,58.4-5.4,87.9-5.4c228.7,0.2,457.4-0.1,686.1,0.2
			c301.3,0.3,551.2,205,611.5,500.5c8,39.1,11.2,78.8,11.2,118.8c-0.1,355.3,2.8,710.6-1,1065.8c-2.8,259.8-128.4,446.6-359.6,562.9
			c-14,7-20.2,13.4-18.3,29.4C2085.8,2361.7,2084.4,2378.5,2084.4,2398.3z M582.6,1218.7c0,176.2,0.1,352.5,0,528.7
			c0,37.9,2.9,75.5,10.3,112.6c55,272.5,285.5,461.3,563.4,461.5c227.3,0.2,454.6,0.2,681.9-0.2c26.5,0,53.2-1.3,79.5-4.9
			c283.9-38.4,493.6-277.9,494-565c0.5-353.9,0.2-707.8-0.1-1061.7c0-25.8-1.4-51.8-4.9-77.4c-39.5-284.8-278.1-493-565.5-493.4
			c-229.4-0.4-458.8-0.1-688.2-0.1c-43.5,0-86.6,4.5-128.9,14.4c-259.2,60.5-440.8,288.5-441.4,554.6
			C582.3,864.8,582.6,1041.7,582.6,1218.7z M1954.7,2520.6c0,39.1,0.1,78.3-0.1,117.4c-0.1,16.7-1.7,33.4,3.8,49.8
			c22.3,66.4,69.9,107.7,134.6,127.3c109,32.9,218.3,27.7,325.3-9.8c56.6-19.9,95.5-60,113.3-118c20.7-67.4,19.2-135.3-0.6-202.5
			c-49-166.3-252.5-219.8-372.1-98.1c-20.2,20.6-37.8,43.2-40.6,73.7c-2,21.7,6.1,39.7,25.4,48.8c19.6,9.2,34.6-3,47.1-17.5
			c15.1-17.5,30.3-34.8,48.2-49.5c68-55.7,172.5-26.9,202.2,55.8c30.9,86-14.3,178.8-104.3,213.9c-48.2,18.8-98,22.3-148.3,12.3
			c-76.9-15.3-134.1-55-156.1-134.1c-10-35.9-12.1-72.8-8.7-110.1c3.6-39,5.9-78,9.2-117c1.2-13.8-1.9-19.8-17.2-14.7
			c-13.9,4.7-28.2,9.2-42.6,10.6c-18.4,1.7-24.5,8.8-23,27.6C1953.7,2431.1,1955.4,2475.9,1954.7,2520.6z M823.6,2872.4
			c28,0.5,55.8-0.6,83.6-5c65.3-10.5,124.2-33.1,166.3-87.5c22.1-28.6,35.2-58.3,25.6-96.9c-20.5-82.5-20.5-165.9-3.2-249.3
			c4.2-20.2,21.4-47.5,11.4-58.2c-11.5-12.3-40.4-8.4-61.7-11.6c-0.7-0.1-1.4-0.1-2.1-0.2c-10.9-2.7-15.3,1.7-15.8,12.7
			c-0.9,21.7,0.7,43.3,2.3,64.9c3.6,47.3,9.9,94.4,5.8,142.2c-7.4,85.2-52.8,144.3-132.9,170.1c-45.5,14.7-91.8,17.4-138.7,7.8
			c-92.2-19-150.1-81.3-154.3-165.6c-3-59.6,26.4-110.9,76.2-133.2c52.1-23.4,108.2-11.8,151.4,31.9c11.8,11.9,22.7,24.7,34.2,36.9
			c12.5,13.4,26.3,24.1,45.9,15.2c16.5-7.5,27.3-29.4,24.7-49.5c-2.8-21.4-12.5-39.8-26-56.3c-107.8-132.6-316.6-99.6-379.8,60.3
			c-22.3,56.5-25.5,115.4-18.4,175.3c11.5,96.1,65.9,153.7,158.2,178.2C724.7,2867.4,773.8,2872.6,823.6,2872.4z M1811.3,2595.4
			c-1.1-16.4-2-34.5-3.6-52.6c-4.5-53.8-15.9-106.1-33-157.3c-6.5-19.6-20.9-12.5-32.6-12.4c-15,0-7.6,12.2-7.2,18.9
			c3.7,51.2-0.4,102-7.2,152.6c-6.7,50.1-29.2,88.4-81.1,103.5c-35.4,10.3-71.7,12.3-108,9c-82.2-7.5-145.6-42.9-174.3-125
			c-13.6-38.8-16.3-79-11.4-119.9c4.8-40.5,4.1-39.9-35.5-39.9c-14.1,0-16.9,5.1-18,18.1c-3.4,40.5-4.7,81-3.6,121.5
			c1.9,69.1,3.8,138.3,21.7,205.7c10.5,39.4,34.3,64.6,74.7,73.3c115.2,24.6,228.7,21.2,340.1-20c35.6-13.2,57.9-36.9,67.2-73.9
			C1808,2664,1809.3,2630.6,1811.3,2595.4z M1825.1,2371.5c2.1,8.3,3.3,13.7,4.9,19c27.5,89.2,37.5,180.1,28.3,273.3
			c-8.8,89.6-44.7,135.2-130,162.5c-84.9,27.2-171.5,38.7-260.5,28c-21.5-2.6-43-5.2-64.3-9.1c-86.2-15.7-123.6-51.8-141.3-137.7
			c-18.7-91-18.9-183.2-17.1-275.6c0.4-19.3,12.6-44.7,0.1-56c-12.9-11.7-38.8-1.7-58.8-3.7c-15.1-1.5-21.5,4.1-26.1,18.8
			c-36,114.6-32,228.4,4.4,342c20.9,65.3,64.2,110.1,125.9,137.8c33.9,15.2,69.6,24.8,105.8,32.3c117.9,24.5,234.5,26.1,348.4-19.5
			c85-34,138.6-93.5,152.6-186.3c12.7-84.4,0.6-168.9,4.1-253.4c0.8-19.5-1.3-39.1-1.6-58.7c-0.2-8.8-1.8-14.4-12.8-14
			C1867,2372.1,1846.9,2371.5,1825.1,2371.5z M984.2,2550.5c-48.9,64.9-103.8,67.3-157,9c-8-8.8-14.9-18.5-23.1-27.2
			c-24.6-26-54.1-37.1-89.2-25.7c-32.1,10.4-48.7,34.7-52.4,67c-6.5,57.2,21.3,102.8,74.3,125.4c45.5,19.4,92.2,21.1,139.6,8.8
			C951.5,2688.3,990.7,2631.9,984.2,2550.5z M2075.7,2511.4c-3.4,89.8,36.3,143.2,116.3,161.2c8.8,2,17.8,3.7,26.8,4.4
			c54.9,4.4,106.1-4.5,147.5-44.3c26.4-25.4,36.3-57.8,32.2-93.6c-3.8-32.6-19.2-58.6-52.1-69.5c-33-10.9-62.2-2.5-86.3,21.9
			c-16.2,16.3-29.1,35.7-47.1,50.5c-41.6,34.2-94.7,27.9-126.6-15.2C2083.5,2523,2080.9,2519,2075.7,2511.4z M1685.1,2437.2
			c-0.6-11.2-2.9-29.4-2-47.5c0.8-18.4-9.8-17.2-22.4-17.6c-17.7-0.5-12.3,11.4-11.5,19.9c3.2,35.5,6.4,71-0.3,106.5
			c-10.1,53.4-50.2,88.5-101.2,88.5c-50.8,0-91-35.2-101.1-88.6c-6.8-36.1-3.6-72.4-2.3-108.6c0.3-7.6,5.2-18.9-9.5-17
			c-9.8,1.2-24.7-8.4-27.2,12.2c-4.2,34.8-7.8,69.6-1.3,104.3c10.1,54.5,39.6,93,94.6,108.7c40.5,11.5,81.3,11.3,122.3,2.9
			c31.2-6.4,48-25.1,52.6-56.7C1680.5,2511,1683.2,2477.7,1685.1,2437.2z M1547,2372.5c-12.6,0-25.1,0.2-37.7-0.1
			c-7-0.1-11.8,0.9-12.5,9.7c-2.9,36.9-6.2,73.8,1.1,110.6c5.1,25.9,25.2,42.9,49.4,43.1c25.2,0.2,45.2-17.2,50.6-44.1
			c4.8-23.5,4.3-47.2,2.1-70.9C1595.6,2372.5,1595.6,2372.5,1547,2372.5z"/>
		<path class="st0" d="M2349.1,1346.8c-5.8,115.2-1.2,253.9-20.7,391.4c-11.5,81.4-30.1,160.7-64.8,235.5
			c-73.6,158.9-204.2,244.9-369.6,284.9c-69.6,16.8-140.8,23.2-212,24.7c-147.6,3-295.2,1.2-441.9-16.4
			c-134.9-16.2-261.8-55-373.4-137.1c-88.7-65.2-129.8-148.7-126.3-260.3c7.6-239.7,8.8-479.5,14.3-719.3
			c2.6-110.4,1-221,12.3-331.1c8.4-82.4,24.6-163.1,60.1-238.6c70.2-149.1,195.3-229,348-272.8c97.2-27.9,197.2-39.3,297.7-46.2
			c91.4-6.3,182.9-9,274.5-0.3c104.8,9.9,204.9,34.9,297.5,86.5c138.3,77.1,217.2,197.1,253.9,348.2c21.4,88,30.2,177.6,36.8,267.5
			C2344.5,1083.3,2350.1,1203.4,2349.1,1346.8z M1553.2,1339.3c75-2.7,173.1,6.1,270.7-3.6c154.2-15.4,287-148.5,303.1-302.2
			c7.9-75.3,5.7-151,2.6-226.3c-7.6-186.2-159.1-333.4-344.7-335.3c-170.6-1.7-341.3-1.8-511.9,0.1
			c-172.1,1.9-319.9,137.5-338.7,307.5c-7.5,68.3-3.1,136.9-3.1,205.4c0,197.6,154.2,352.7,351.6,354.4
			C1365.4,1339.9,1447.9,1339.3,1553.2,1339.3z M1005.6,1284.6c-0.5-2.3-0.4-3.2-0.8-3.7c-2.7-3.2-5.5-6.3-8.4-9.3
			c-63.4-65.3-103-142.3-113.1-233.2c-7.6-69-1.8-138.4-3.4-207.5c-0.6-27.3,1.2-54.6,6.4-81.4c37.9-194.5,200.3-328.6,398.9-329
			c160.9-0.3,321.7,0,482.6-0.1c24.5,0,48.9,1.4,73.2,4.5c168.3,21.8,316.1,170.6,336.1,339.2c8.9,75.3,4.2,150.9,3.8,226.4
			c-0.6,127.4-52.6,231-150.4,312.2c-5.5,4.6-13.6,7-15.6,16c57.8,6.6,112.6,21.1,161.6,53c49.2,32,84.1,77.3,115.8,129.7
			c8.6-160,6.5-315.1-3.7-470.2c-6.8-102.5-14.5-204.8-35.8-305.8c-38.1-180.6-140.6-305.4-314.3-370.4
			c-89.5-33.5-182.9-44.8-277.7-47.3c-91.7-2.4-183.2,3.2-274.3,13.2c-92.5,10.2-183.6,26.9-270.8,61.8
			c-144.7,57.9-236.8,161-275,312.6c-16.2,64.1-24.6,129-27.5,194.8c-8.2,185.2-6.8,370.6-12.2,555.8c-0.1,4.6,0,9.2,0,13.8
			C846.5,1373.3,914.7,1315.2,1005.6,1284.6z M1197.9,1884c0.2,7.3,5.3,9.4,8.8,12.1c137.2,105.7,289.8,145.9,459,100.5
			c112.2-30.1,194.5-98.2,236.1-210.1c4.9-13.3,4-22.9-5.9-34c-18.9-21-32.6-45.7-40.9-72.6c-30.7-99.4-35.9-198.5,6-295.2
			c-148.8,12.2-299.5,1.3-449.8,7.4c83.1,5.5,166.3,4.4,249.5,5.1c11.1,0.1,19.5-0.3,21.6,15.2c9,63.8,16.8,127.6,12,192.1
			c-5,66.4-24.3,128.3-71.8,176.9c-79.6,81.4-177.3,86.7-280,59.2c-19.8-5.3-33.4-6.7-50.6,6.2
			C1264.3,1867.5,1230.2,1874.7,1197.9,1884z M1745.5,2164.9c0,20.8,0.5,34.8-0.2,48.8c-0.5,11.1,3,14.3,14.5,13.3
			c57.9-5.1,115-13.9,170.5-31.7c133.8-43,235.2-123,291.7-254.5c28-65.2,44.2-133.7,54.8-203.7c1.3-8.7-2.4-14.4-6.9-20.9
			c-25.7-36.8-55.3-70.3-87.7-101.2c-26.9-25.6-56.1-48.5-91.2-62.2c-40.9-16-81.5-6-110.4,26.5c-13,14.6-12.4,24.6,3.3,36.7
			c16.3,12.6,35.6,19,55.1,24.8c23.5,7,46.5,14.9,66.4,29.8c56.5,42.2,49.2,117.4-14.7,147.7c-9.6,4.6-15.3,10.2-18.9,20.2
			c-13.5,37-33.2,70.6-57.9,101.4c-59.2,73.7-134.2,126.7-222.1,159C1753.7,2112.9,1733.7,2129.9,1745.5,2164.9z M1248.8,1682.6
			c0-18.9-0.4-37.8,0.2-56.6c0.4-11-2.3-16.6-14.8-17c-72.8-2.2-145.7-2.7-216.5,16.8c-103.8,28.5-188.4,94.2-198.3,211
			c-5.4,64.6,6.8,126.6,36.6,184.5c8,15.6,21.1,27.2,40.3,24.4c18.8-2.7,20-19.4,22.3-33.7c11.7-73.1,54.1-120.6,122.2-146.3
			c36-13.6,73.8-20.3,111.6-26.5c37.3-6.2,74.2-13.6,107.5-32.5c5.2-2.9,15.7-5,8.7-14.8C1244.8,1758.5,1249.8,1720,1248.8,1682.6z
			 M1579.4,1751.5c18.2-15.5,29.2-33.9,38.5-53.4c35.1-73.6,28-151,20.3-228.5c-1.6-15.7-6.5-21.7-24-21.4
			c-65.7,1.1-131.4,1-197-3.3c-29.3-1.9-58.7-3.7-87.9,0.2c-15.9,2.1-29.8,5.7-29.6,27.3c0.8,83.9,0.1,167.8,0.8,251.6
			c0.3,29.9,14.1,52.4,43.2,63c57.7,21,115.9,22.3,174.7,3.8c12.3-3.9,14.8-10.8,11.9-22c-8-31-25.3-56.2-55.7-66.1
			c-22.3-7.2-23.6-16.8-20.5-37.2c3.1-20.4,9.9-22.3,27-16.4C1530.7,1666.3,1562.5,1700.6,1579.4,1751.5z M2283.6,1648.8
			c5.3-9.8,4.1-17.3,1.9-24.6c-12-39.4-27.6-77.2-48.3-113.1c-50.9-87.9-127-134.2-227.9-141.1c-61.7-4.2-102.1,19.6-115.5,73.8
			c-18.8,76.4-15.6,152.9,13.1,226.6c19,48.7,51.6,86.2,103.5,102.6c19.7,6.2,40,8,59.3-1.4c28.4-13.9,30.7-41.5,5.2-59.6
			c-13.8-9.8-29.3-16.1-45.6-20.6c-22.3-6.1-43.9-14.2-64-25.7c-52.5-29.8-60.4-83.5-17.8-125.5c44.1-43.4,95.8-57.9,155.8-37.8
			c23.5,7.9,44.4,20.1,64.5,34.3C2211.5,1567.6,2247.6,1606.4,2283.6,1648.8z M910.9,2096.8c4,3.4,5.9,5.4,8.2,6.9
			c10.5,6.8,21,13.9,31.8,20.2c117.3,67.9,246.6,90.5,379.3,100.5c9.8,0.7,11.9-3.2,11.8-11.9c-0.4-23.8-0.8-47.6,0-71.3
			c0.3-10.5-5.4-12.6-13.3-14.8c-117.3-33.1-219.7-92.3-307.3-176.9c-8.2-7.9-13.2-6.9-20.3,0.5c-16.6,17.3-24.8,38.1-28.8,61.5
			C966,2048.7,953.3,2082,910.9,2096.8z M1101.1,1453.1c0.6,0,1.1,0,1.7,0c0-28,0-55.9,0-83.9c0-21.1-30.1-46.9-51-42.7
			c-149.1,30.1-249.9,165.1-217.5,330.6c2.5,12.7,6.9,11.3,14.4,3.7c18.3-18.5,39.3-33.7,62.2-45.9c10.1-5.4,11.3-11.2,8.4-21.6
			c-4.4-16.1-6.6-32.9-5.9-49.8c1.8-43.3-6.5-32.7,36.1-31c12.8,0.5,16.4,6.7,15.2,18.9c-1.4,13.9,0.5,27.8,2.8,41.7
			c1.8,10.5,5.9,12.6,15.4,9.3c33.2-11.6,67.7-17.2,102.5-20.2c13.2-1.1,16.1-7.3,15.9-18.9
			C1100.8,1513.2,1101.1,1483.2,1101.1,1453.1z M1524.3,2101.7c134-2.7,261.6-36.4,373.3-119.9c48.8-36.5,88.4-81.1,115.8-136
			c5.5-11,8.5-18.1-9-20.8c-14.1-2.2-27.9-9.1-40.9-15.6c-9.8-4.9-13.7-4.3-18.1,6.7c-45.2,112.3-128,186.9-241.5,222.5
			c-203.4,63.7-386.4,17.7-547.1-118.5c-23.9-20.2-43.7-25.9-70.6-14.8c-1.9,0.8-4.2,0.8-6.1,1.5c-5.7,2.3-14.9,3.6-16.1,7.4
			c-2.3,7.2,6.5,11.2,11.4,15.5C1202.6,2042.2,1350.9,2099.6,1524.3,2101.7z M1329,1392.4c-54.8-0.7-109.3-1.9-162-18.5
			c-11.8-3.7-12.6,3.5-12.7,12.2c-0.3,52.4-0.5,104.8-1.3,157.2c-0.2,11.5,4.3,14.1,14.8,14c21.6-0.4,43.4-0.3,65,1
			c12.7,0.7,16.7-3.2,16.8-16.2c0.3-27.2-3.8-54.4-0.2-81.6c4.4-32.3,20.7-54.2,53.4-62C1311.5,1396.3,1320.2,1394.4,1329,1392.4z
			 M1694.5,2181.9c0-12.5-0.3-25,0.1-37.5c0.3-9.1-2-11.7-11.9-10.2c-60,9.6-60,9.3-59.5,69.7c0,3.5,0.5,7,0,10.4
			c-2.4,16,4.7,19.7,19.9,19.4C1694.5,2232.8,1694.5,2233.4,1694.5,2181.9z M1463.4,2190.2c0-3.5-0.5-7,0.1-10.4
			c3.5-21.7-2.7-34-27.6-32.3c-10.2,0.7-20.7-1.9-30.8-4.3c-9.4-2.2-12.7,0.7-12.4,10.1c0.5,15.3,0.3,30.6,0.6,45.8
			c0.5,29.3,0.5,29.3,29.4,30C1463.4,2230.3,1463.4,2230.3,1463.4,2190.2z M1571.7,2198.7c0-13.2-0.7-22.3,0.2-31.3
			c1.2-13.3-4-16.3-16.9-15.6c-40.6,2.4-40.6,1.9-40.6,43.5c0,8.4,0,16.7,0.1,25.1c0,5,0.1,10.3,6.9,10.6c15.9,0.6,34,6.5,47.2-1
			C1578.9,2224,1570.2,2206.7,1571.7,2198.7z"/>
		<path class="st0" d="M1542,1129.5c-88.4-5.9-181.7-3.9-273.6-20.6c-84.3-15.3-131.5-61.6-146.1-145.5
			c-12.1-69.9-14-140.7-2.3-210.8c11.5-68.7,50-120.4,107.9-157.9c64.8-41.9,137.2-61.8,212.8-71.1c122-15,241.7-6.3,356.3,40.9
			c78,32.1,139.4,81.9,163.5,167.7c36.8,131.6-20.7,287.2-132,354.9c-51.9,31.6-109.8,40.2-168.9,42.3
			C1621.8,1130.6,1584.1,1129.5,1542,1129.5z M1521.9,1079c38.4,0,76.9,0.8,115.3-0.2c46.1-1.3,92.3-3.9,135.9-21.5
			c108.9-43.9,172.6-190.5,137.3-312.3c-19.6-67.6-68.3-105.1-128.9-131c-89.2-38.1-183-49.7-279-44.8
			c-83.1,4.3-163.6,20.4-236.9,62.6c-54.9,31.6-89.1,77.5-96.8,141.3c-7.1,58.6-6.7,117.4,2.7,175.6c11.2,69.3,40.2,98.1,110,110.4
			C1361,1073,1441.7,1072.7,1521.9,1079z"/>
		<path class="st0" d="M1523.7,777.3c36.1,0.7,70.9,7.2,102.4,25.6c36.3,21.2,59.1,51.6,55.6,95.6c-3.3,41.5-27.2,70.1-64.4,85.7
			c-57,23.9-114.8,21-170.4-4.6c-43-19.8-68.3-61.9-64.9-101.2c3.8-43.6,32.4-76.8,80-91.7C1482,780.5,1502.6,777.2,1523.7,777.3z
			 M1540,948c19.8-1.1,40.8-1.8,60-12c39.6-21,42.1-62.9,3.8-86.1c-41.2-25-86-27.3-131.2-12.2c-19.6,6.6-37.1,17.7-38.8,41.8
			c-1.7,24.9,12.5,40.6,32.1,52.2C1488.3,945.1,1513.7,946.3,1540,948z"/>
	</g>
</g>
</svg>
