<?xml version="1.0" encoding="utf-8"?>
<!-- Generator: Adobe Illustrator 23.0.0, SVG Export Plug-In . SVG Version: 6.00 Build 0)  -->
<svg version="1.0" xmlns="http://www.w3.org/2000/svg" xmlns:xlink="http://www.w3.org/1999/xlink" x="0px" y="0px"
	 viewBox="0 0 3000 3000" style="enable-background:new 0 0 3000 3000;" xml:space="preserve">
<style type="text/css">
	.st0{stroke:#000000;stroke-width:10;stroke-miterlimit:10;}
</style>
<g id="Layer_1">
</g>
<g id="Layer_2">
	<g>
		<path class="st0" d="M520.4,1500.2c0-261.7-0.4-523.4,0.1-785c0.6-313.3,214.2-580.9,519.2-651.2c46.4-10.7,93.5-16.1,141.2-16
			c261.7,0.1,523.4-1,785,0.4c329.2,1.7,609.6,249.5,653.6,575.7c4.2,31.4,5.9,63,5.9,94.7c-0.2,521.1,0.1,1042.2-0.2,1563.3
			c-0.1,325.1-220.8,594.8-539.3,659.7c-43,8.8-86.5,12.2-130.3,12.2c-256.4-0.1-512.8,0.4-769.2-0.2
			c-333.1-0.8-612.5-243.9-660-573.7c-4.8-33.6-6.2-67.5-6.1-101.5C520.5,2019,520.4,1759.6,520.4,1500.2z M575.4,1499.2
			c0,259.4,0.1,518.9-0.1,778.3c0,30.3,1.5,60.4,5.7,90.2c43.3,307.1,300.3,530.7,610.7,531.1c254.9,0.3,509.8,0.1,764.7,0
			c39.3,0,78.4-3.5,116.9-11.3c293.7-59.5,497-307.9,497.1-607.8c0.2-519.6,0.1-1039.2-0.2-1558.9c0-27.8-1.6-55.9-5-83.5
			c-37.8-302.8-298.5-533.3-605.5-534.3c-257.9-0.9-515.8-0.4-773.8-0.1c-62.9,0.1-124.6,9.7-184.6,29.1
			c-254,82.1-425.4,316.8-425.9,584.3C575,977.3,575.4,1238.2,575.4,1499.2z"/>
		<path class="st0" d="M2347.6,1524.8c-1.7,112.1,7.2,252-2.9,391c-18.9,258.8-150.4,444.3-382.6,558.2
			c-80.3,39.3-166.4,58.1-255.7,58.4c-93.3,0.3-186.8,5.6-279.5-13.2c-263.3-53.4-479.3-284.1-513-549.4c-4.8-37.5-7.1-75-7.1-112.7
			c0-245-0.7-490.1,0.2-735.1c0.7-184.5,66.2-343.2,198.1-472.6c125.1-122.7,276.9-184.9,452-187.5c93.3-1.4,186.8-4.6,279.2,15.8
			c261.7,57.6,469.8,283.8,504.4,549.7c4.6,35.2,6.8,70.5,6.8,106C2347.7,1254.7,2347.6,1376.1,2347.6,1524.8z M962.9,1497.4
			c0,125.2-0.5,250.3,0.1,375.5c1.2,256.2,155.5,479.4,392.3,567.5c134.7,50.1,275.3,48.1,413.4,30.6
			c302-38.2,520.2-288.9,522.4-592.4c1.9-254.1,1.6-508.2,0-762.3c-1.5-246-148-463.2-374.2-554.5c-155-62.5-317.8-60.1-476.7-29.6
			c-282,54.2-475.7,300.5-477.2,589.7C962.3,1247,962.9,1372.2,962.9,1497.4z"/>
		<path class="st0" d="M865.3,1211c0.3,34.5-27,62.3-61,62c-32.7-0.3-60.4-27.8-61-60.5c-0.6-33.8,26.5-60.5,61.7-60.6
			C839.5,1151.8,865,1176.8,865.3,1211z"/>
		<path class="st0" d="M1123.3,2582.4c0.2,34.4-27.3,62.2-61.2,61.8c-32.8-0.4-60.3-27.9-60.7-60.7c-0.4-33.9,26.6-60.3,61.8-60.4
			C1097.5,2522.9,1123,2548.2,1123.3,2582.4z"/>
		<path class="st0" d="M1547.8,357.1c-33.6-0.1-59.4-26.2-59.7-60.3c-0.3-34.2,27.5-62.1,61.4-61.5c32.7,0.5,59.9,28,60.3,60.9
			C1610.1,330,1582.5,357.2,1547.8,357.1z"/>
		<path class="st0" d="M1807.8,242.7c33.5,0.6,59.8,27.3,59.9,60.7c0,33.1-29.9,62.5-62.4,61.2c-34.3-1.3-60-29-59.4-63.8
			C1746.6,267.6,1773.8,242.1,1807.8,242.7z"/>
		<path class="st0" d="M1295.2,343c0.5,34-27.4,62.8-60.8,62.6c-32-0.2-60.7-28.4-61.7-60.5c-0.9-31.7,27.3-61,59.6-61.8
			C1267.2,282.3,1294.7,308.4,1295.2,343z"/>
		<path class="st0" d="M2177.7,353.5c-0.4,33.1-27.6,60.2-60.5,60.3c-33.4,0.1-61.9-28.8-61.4-62.3c0.5-33.8,28.8-60.5,63.4-59.6
			C2152.6,292.7,2178.1,319.5,2177.7,353.5z"/>
		<path class="st0" d="M1014.8,505c34.9,0,62.3,27.1,61.7,61c-0.5,32.6-28.4,60.3-61,60.5c-33.9,0.2-61.2-27.6-60.9-62.1
			C954.9,530.5,980.7,505,1014.8,505z"/>
		<path class="st0" d="M2553.3,723.6c0.1,33.4-26.4,60.6-59.4,61.4c-33.3,0.7-62.2-27.6-62.5-61.3c-0.3-33.7,27.9-61.1,62.4-60.7
			C2527.3,663.3,2553.2,689.7,2553.3,723.6z"/>
		<path class="st0" d="M2434.4,1043.1c-0.3-34.2,27.5-62.2,61.3-61.8c32.5,0.4,60.1,28.2,60.6,60.9c0.5,33.6-27.6,61.3-61.9,61.1
			C2460.6,1103.1,2434.6,1077,2434.4,1043.1z"/>
		<path class="st0" d="M791.7,2117.5c-33.9-0.5-59.5-26.6-59.4-60.7c0.1-34.5,27.8-62,61.7-61.1c32.8,0.8,60,28.6,60,61.3
			C854,2091,826.2,2118,791.7,2117.5z"/>
		<path class="st0" d="M860.3,2433.1c-33.7-0.1-59.9-26.2-60.2-60c-0.3-34.2,27.3-62.3,61-62.1c32.3,0.2,60.2,28,60.8,60.7
			C922.5,2405.7,894.8,2433.3,860.3,2433.1z"/>
		<path class="st0" d="M2350.3,401c34-0.3,61.2,25.2,62.1,58.1c0.9,33.8-26.7,63.1-60.2,63.9c-31.8,0.8-61.3-27.6-62-59.7
			C2289.5,428.7,2315.9,401.3,2350.3,401z"/>
		<path class="st0" d="M2498.3,1437.8c-35,0.1-62.2-26.2-62.4-60.4c-0.2-33.2,27.5-60.3,62.4-61.2c31.6-0.8,59.5,27.8,59.6,61.2
			C2557.9,1411.4,2532,1437.6,2498.3,1437.8z"/>
		<path class="st0" d="M2557.2,1614.9c-0.2,33.9-29,62.8-62,62c-32.5-0.8-60.3-29.3-60.1-61.6c0.3-34.5,27.1-60.7,61.9-60.4
			C2530.5,1555.2,2557.3,1581.9,2557.2,1614.9z"/>
		<path class="st0" d="M723.7,1782.7c0-34.8,24.5-59.9,58.7-60c34.5-0.1,60.3,26.5,60,62c-0.2,34-26.3,60.1-59.8,60.1
			C747.7,1844.7,723.6,1819.3,723.7,1782.7z"/>
		<path class="st0" d="M2451.2,2324.6c-34,0.1-60.8-25.6-61.4-58.7c-0.6-33.9,27.3-63.1,60.7-63.4c33-0.3,61.9,29.2,61.4,62.7
			C2511.4,2298.4,2484.7,2324.5,2451.2,2324.6z"/>
		<path class="st0" d="M2306.9,2582.6c-34,0.3-61.1-25.2-61.9-58.2c-0.8-34,26.6-63.1,60.2-63.8c31.8-0.7,61.3,27.8,61.9,59.8
			C2367.8,2554.9,2341.3,2582.2,2306.9,2582.6z"/>
		<path class="st0" d="M2084.3,2700.2c-33.9,0.1-60.7-25.8-61.1-59c-0.4-33.9,27.7-63,61-63.1c32.1-0.1,60.5,28.2,61.1,60.8
			C2146,2672.9,2118.9,2700.1,2084.3,2700.2z"/>
		<path class="st0" d="M1754.8,2654.6c33.5,0.2,60.4,26.9,60.3,59.9c-0.1,34.1-28.5,62.2-62,61.6c-32.9-0.6-60.4-28.5-60.1-61.1
			C1693.1,2680.5,1719.9,2654.4,1754.8,2654.6z"/>
		<path class="st0" d="M800.3,1459.9c34.6-0.5,61.9,26.4,61.8,60.9c-0.1,33.2-26.9,60.5-59.8,61.1c-33.8,0.6-61.9-27.3-61.9-61.3
			C740.5,1487,766.8,1460.3,800.3,1459.9z"/>
		<path class="st0" d="M2550,1911.9c0,33.6-26.2,59.9-60,60.2c-34.7,0.3-61.6-26.3-61.6-61c0-32.8,27.2-60.4,60.1-60.9
			C2521.9,1849.6,2550,1877.8,2550,1911.9z"/>
		<path class="st0" d="M1330,2750.5c-33.6-0.3-59.9-26.7-60.1-60.3c-0.2-33.8,28.2-62.2,61.6-61.7c32.8,0.5,59.9,28,60,60.9
			C1391.8,2724,1364.8,2750.8,1330,2750.5z"/>
		<path class="st0" d="M847.4,941.7c-33.6,0.2-60.2-25.8-60.9-59.5c-0.6-34.8,25.8-62,60.4-62.1c33.3,0,60.5,26.3,61.4,59.4
			C909.3,913.1,881.5,941.5,847.4,941.7z"/>
		<path class="st0" d="M1069.7,1483.3c2.3-101.9-6.5-228.8,3.4-355.1c14-178.2,99.8-317.3,251.5-409.4
			c174.1-105.8,361.4-113.1,543.7-28.9c195.5,90.3,302.2,252.1,307.6,468.8c5.8,232.1,3.2,464.5,0.8,696.8
			c-2.7,272.8-221.3,500.6-493.7,519.6c-97.5,6.8-192.8-0.6-284-38.8c-200.3-83.9-328.1-276.9-329.2-497.9
			C1069.2,1728.3,1069.7,1618.2,1069.7,1483.3z M1627.4,1611.3c0,0.3,0,0.6,0,0.9c-159.8,2.3-319.6,4.9-479.4,6.5
			c-17.8,0.2-23,5.3-22.7,23c1,67.1-0.2,134.2,0.5,201.3c2.2,201.7,123.4,376.9,309.2,447.7c91.9,35,187.2,37.1,283.1,24.5
			c205-26.9,381.7-211.8,400.4-417.4c8.2-90.3,1.5-180.8,4.3-271.2c0.6-18.5-5.6-22.3-22.8-22
			C1942.5,1607.3,1785,1609.2,1627.4,1611.3z M1125.7,1324c0,82.6,0.4,151.2-0.3,219.8c-0.1,14.9,2.8,21.3,19.6,20.7
			c67.8-2.2,135.7-2.7,203.5-4.6c39.4-1.1,38.9-1.8,41.5-42.8c3.5-54.9-2.3-109.9,3.6-164.9c16.1-151,122.2-222.5,267.2-178.4
			c8.9,2.7,13.7,0.8,19.2-5.8c18.6-22.6,43.5-34,71.9-39.1c47.1-8.5,93.4-5.1,137.8,12.5c41.5,16.4,66.4,48,74.8,92.3
			c3.4,17.9,4.5,35.8,5.1,53.9c2.6,81.4,6.1,162.7,7.9,244.1c0.4,16.6,5.8,19.8,20.9,19.1c33.9-1.5,67.9-2.1,101.8-1.4
			c17.4,0.4,22.9-4.8,22.8-22.9c-0.8-117.6,1.5-235.3-0.9-352.9c-3.9-188.3-89.8-329.7-253-422.8c-105.6-60.2-220.9-66.1-338.2-51
			c-198.8,25.7-372.4,199.9-399.3,398.6C1120.6,1178.1,1128.6,1258.1,1125.7,1324z M1571.6,1559.3c0-1.4,0-2.8,0-4.2
			c28.6,0,57.2,0,85.9,0c47.2,0,47.2,0,45.3-48.2c-0.3-7.5-0.3-15.1-0.7-22.6c-3-59.4-2.5-119.1-9.4-178.3
			c-3.6-30.8-13.5-58.7-42.3-75.9c-43.3-25.8-110.3-20.4-148.7,12.2c-38,32.3-48.4,76.8-53.1,123.1c-6,58.5,3.1,117.7-5.5,176.1
			c-2.5,17.2,4.2,18.3,17.8,18C1497.8,1558.8,1534.7,1559.3,1571.6,1559.3z M1921.6,1423.8c-9.4-72.9-2.9-126-11.5-178.3
			c-4.4-27.1-18.8-44.8-45-54c-29-10.2-58.8-13.4-89.1-10.9c-19.6,1.6-38.7,6.5-52.9,22.2c-5.6,6.2-8,11.3-2.4,19.5
			c24.9,36.4,29,78.5,31,120.9c3.1,64.8,6.5,129.5,8.6,194.3c0.5,14.7,5.5,17.5,18.6,17c41.4-1.6,82.9-2.5,124.4-2.8
			c14.4-0.1,19.2-4.1,18.7-19.5C1920.7,1489.4,1921.6,1446.4,1921.6,1423.8z"/>
		<path class="st0" d="M1643.9,2071.3c-72.7,0-125.3-50-126-119.6c-0.6-66.9,55.5-121.8,125.1-122.3
			c69.9-0.5,125.4,55.4,125.8,126.7C1769.2,2026.5,1720.6,2071.3,1643.9,2071.3z M1643.7,2016.4c44.9,0.2,68.8-20.2,69.2-59
			c0.4-41.3-28-71.5-67.4-71.8c-40.9-0.3-71.1,27.1-71.4,65C1573.6,1990,1601.3,2016.2,1643.7,2016.4z"/>
	</g>
</g>
</svg>
