<?xml version="1.0" encoding="utf-8"?>
<!-- Generator: Adobe Illustrator 23.0.0, SVG Export Plug-In . SVG Version: 6.00 Build 0)  -->
<svg version="1.0" xmlns="http://www.w3.org/2000/svg" xmlns:xlink="http://www.w3.org/1999/xlink" x="0px" y="0px"
	 viewBox="0 0 3000 3000" style="enable-background:new 0 0 3000 3000;" xml:space="preserve">
<style type="text/css">
	.st0{stroke:#000000;stroke-width:10;stroke-miterlimit:10;}
</style>
<g id="Layer_1">
</g>
<g id="Layer_2">
	<g>
		<path class="st0" d="M1747.2,196.2c372.8-7,633.1,86.7,849.3,292.3c229,217.7,333.4,486,311,801.5
			c-10.3,145.1-51.5,282.5-118.6,411.6c-9.7,18.7-10.2,29.7,5.6,46.4c206.3,217.7,222,551.7,35.1,786.1
			c-112.9,141.6-264.1,207.4-444.3,205.2c-133.3-1.6-252.8-45.7-358.6-126.5c-10.9-8.3-17.7-8.5-29-1.1
			c-296.7,194.3-686.6,189.4-980.6-12.4c-11.5-7.9-18.6-6.6-29.5,0.5c-92,60-191.7,101.3-300.5,118.7
			c-75.9,12.1-151.4,9.1-226.8-5.9c-90.2-17.9-175.1-47.5-249.7-103c-100.9-75.1-145.9-177.1-141.3-300.9
			c3.2-85.5,24.8-166.9,68.3-241.6c19.3-33.2,42.8-63.2,73-87.1c13.1-10.4,16.3-19.8,11.6-35.8c-37.1-124.1-51-251.1-43.6-380.4
			c5.2-90.9,19.1-180.7,32.6-270.6c26.9-179,88.1-345.2,188.8-495.7c197.3-294.8,471.5-473.5,820.3-536.9
			C1419.5,224.4,1620.4,201.8,1747.2,196.2z M1382,2690.2c37.8,8.4,75.1,10.2,112.4,10.9c184.8,3.7,354.2-43.4,504.2-153.6
			c12.8-9.4,20.1-8.3,32.1,1.7c154.7,128.2,329.5,172.8,523.6,113.8c245.4-74.6,396.9-344.9,344.1-605.7
			c-24.5-120.7-84-221.9-172.7-306.3c-11.3-10.7-13.9-18.6-5.1-32.2c11-17.1,20-35.6,29-54c87.3-179,126.8-367.3,102.8-566.1
			c-27.6-228.8-127.9-421.4-296.9-577.9c-183.6-170.1-400-261.7-650.5-272.9c-115.3-5.2-229.7,4.1-344,17.2
			c-126,14.5-252.5,26.7-376.3,55.4C753.2,420.5,464.1,682.2,311.7,1096c-42.6,115.8-55.2,238.4-71.3,360
			c-23.1,174.4-13.6,346,43.7,513.5c4.2,12.4,1.3,18.4-9.1,25.5c-39.6,26.9-73.5,60.4-96.1,102.4c-38.5,71.9-59.1,149.6-58.3,231.2
			c1,101.5,41.1,184.3,126,243.4c35.5,24.7,73.5,44.3,114.1,59.2c104.9,38.6,212.3,54,323.5,34.8c108.9-18.8,207.7-61.3,297.1-125.4
			c16.8-12,26.9-13.2,44.3,0.4c82.7,64.6,176.4,107.3,277.8,134.3c18.7,5,26.8,1.5,35.4-15.9c150.4-305.8,231.3-628.6,235.5-969.7
			c3.9-317.4-58.3-621.9-184.3-913.4c-7.4-17.1-13.3-19.5-30.3-13.2c-156.2,57.2-282.1,155.3-383.4,285.5
			c-131.7,169.3-202.7,362.8-222.9,575.6c-3.5,36.2-3.2,35-35.2,35c-18,0-20.3-6.8-19-22.3c14.1-157.6,53.7-308,126.7-448.8
			c98.2-189.2,236.2-340.3,428.9-435.8c207.7-103,424.8-110.8,645-50.5c182,49.9,328.9,151.7,423.2,318.3
			c122.5,216.4,115.4,442,37.7,670.6c-1.1,3.2-3.2,8.7-4.9,8.7c-15.1,0.1-28.3-7.5-41.3-13.8c-10.1-4.9-1.9-13.8,0.4-20.3
			c42.8-123.1,59.8-249.2,43.2-378.9c-22.8-179.1-103.9-326.6-252.4-430c-199.8-139-423-163.8-657.5-119.2
			c-17.7,3.4-14.1,10.7-9,22.6c64.4,150.1,113.4,305,144.3,465.4c9.6,49.7,9.4,50.1,59.7,46.3c56.5-4.3,112.6-5.1,168.1,9.5
			c71.8,18.9,119,72.1,128.8,145.5c4,29.7,1.6,59.1-0.6,88.7c-3.8,51-21.2,94.8-66.6,123.2c-6.7,4.2-8.5,7.4-4.2,14.8
			c42.3,71.8,43.9,150.6,35.8,229.9c-8.3,81-63.9,132.6-145.1,139.5c-43.1,3.7-86-0.9-128.9-3.4c-31.3-1.8-32.7-0.3-37.9,29.8
			c-31.2,182.9-84.8,359.1-159.3,528.9C1417,2615.3,1399.5,2652.1,1382,2690.2z M1676.5,1324.1c-19,0-38,0.5-57-0.2
			c-13.6-0.4-18,3.1-15.7,18.2c10.8,72.5,16.6,145.6,20.4,218.8c2.2,43,2.9,43,45.6,45.7c41.4,2.6,82.5,10.3,124.4,5.2
			c52.5-6.4,81.9-32.7,91.3-84.1c5.1-27.8,5.8-56.1,4.1-84.3c-3.4-58.4-33.2-95-89.5-111.6C1759.6,1320,1718.3,1318.1,1676.5,1324.1
			z M1684,1967.3c0,1.4,0,2.8,0,4.2c22.5,0,45.1,1.1,67.6-0.2c56.6-3.4,88-30.3,99.8-85.6c8.5-39.8,4.6-80,0.7-119.9
			c-2.6-26.7-9.4-52.5-21.9-76.7c-10-19.4-21.7-30.2-46.3-24.5c-16,3.7-33.6,0.8-50.5-0.3c-30.2-1.9-60.4-4.4-90.6-7.2
			c-12.9-1.2-17,3.3-16.9,16.3c0.5,93.2-6.5,185.9-17.9,278.3c-1.4,11.2-1.1,16.7,12.7,15.9
			C1641.7,1966.4,1662.9,1967.3,1684,1967.3z"/>
	</g>
</g>
</svg>
