<?xml version="1.0" encoding="utf-8"?>
<!-- Generator: Adobe Illustrator 23.0.0, SVG Export Plug-In . SVG Version: 6.00 Build 0)  -->
<svg version="1.0" xmlns="http://www.w3.org/2000/svg" xmlns:xlink="http://www.w3.org/1999/xlink" x="0px" y="0px"
	 viewBox="0 0 3000 3000" style="enable-background:new 0 0 3000 3000;" xml:space="preserve">
<style type="text/css">
	.st0{stroke:#000000;stroke-width:10;stroke-miterlimit:10;}
</style>
<g id="Layer_1">
</g>
<g id="Layer_2">
	<g>
		<path class="st0" d="M2292.9,1506.8c-48.6-2.6-93.4-4.4-138-7.5c-13.5-0.9-21.2,3.4-28.5,14.9c-53.4,84.2-110.3,166.1-168.4,247.2
			c-9.1,12.7-14.9,13.8-27,3.8c-20.5-16.9-21.3-16.2-6.2-36.9c50-68.5,97.8-138.4,144.3-209.3c3.7-5.6,6.9-11.4,12.3-20.4
			c-11.2,0-19.6-0.1-28,0c-106,1.5-212,3.3-317.9,4.2c-13.6,0.1-15.7,5.4-17.4,17.2c-16.6,115.3-57.3,221.3-124.3,317
			c-6,8.6-11.2,13.1-19.9,3.7c-0.8-0.9-2-1.5-3-2.2c-22.7-16.2-22.4-15.9-6.8-39.5c73.7-112.1,114.7-234.6,112.8-369.5
			c-1-68.2-12.7-135.1-39-198.7c-50-120.9-142.7-182.8-270.9-195.4c-57-5.6-112.9,1.9-168.9,11.2c-19.5,3.2-21.3,17.6-24.6,31.6
			c-2.2,9.2,5.9,5.8,9.8,5.8c24.9,0.2,49.9-0.9,74.8,0c155.5,5.5,249.7,97.5,288.4,225.9c32.3,107.4,16.8,211.8-19.7,315.1
			c-25.4,71.9-62.6,138.3-96.4,206.2c-3.5,7-6.9,9.2-13.8,4.7c-4.7-3.1-9.5-6.2-14.7-8c-14.6-5.1-17.5-12.6-8.3-25.8
			c12.2-17.3-6.4-25.6-13.2-36.3c-6.5-10.4-13.1,1.5-18.1,4.6c-26.1,15.8-51.5,32.7-77.1,49.3c-23.5,15.2-31.7,13.6-49.9-8.5
			c-17.4-21.2-35.6-41.7-52.5-63.3c-6.7-8.6-11-7.8-19.1-1.8c-31.5,23.3-63.7,45.8-95.7,68.5c-22.1,15.7-28.2,14.6-42.4-7.4
			c-25.4-39.2-51.1-78.1-75.8-117.8c-8.7-14-17.2-20.7-35.4-18.6c-37.4,4.4-31.1-1.2-31.5,33.8c-0.4,28.7-0.7,57.4,0.2,86
			c0.4,13.5-4.5,18-17.2,16.4c-3.7-0.5-7.5-0.6-11.2,0c-15.1,2.4-18.6-4.4-18.6-18.8c0.5-153.4,0.1-306.8,0.6-460.2
			c0-15.5-2.2-22.7-20.5-23.7c-53.8-3-85.7-32.9-96.7-87.1c-1.9-9.4-4-15.5-15.4-17c-154.8-20.9-321.6,75.3-377.2,221.4
			c-45.5,119.6-33.3,234.8,37.1,342.6c5.9,9,7.4,13.1-2.3,20.2c-27.4,20.1-27.3,20.7-45-8.2c-140.4-228.8-39.4-560,280.8-617.7
			c34.3-6.2,68.9-8,103.5-3.8c12.9,1.6,17.4-2.2,18.7-15.2c2.1-20.4,7.7-40.3,16.9-58.9c5-10.2,6.7-16.5-9.1-19.7
			C476,1009.1,147.3,1167,103.5,1495.9C82,1657.6,122.1,1803.8,230,1928.7c8.1,9.4,8,13.5-1.3,21.7c-23.8,21-23.3,21.5-43.5-2.9
			C12.4,1738,5.9,1428.1,173.2,1221.4C275.8,1094.7,412,1027,573.5,1008.7c61.4-6.9,122-2.5,181.9,11.7c9,2.1,14.7,0.6,20.5-7
			c36-47.8,86.8-66.6,144.1-71.6c29.3-2.6,58.5-2.4,87.5,3.6c2.4,0.5,5.6-0.1,7.3,1.2c31.2,24.8,69.6,17,104.8,23.5
			c22.9,4.2,46,7.3,58.4,31.1c3.2,6.2,8,2.8,12.9,1.6c80.6-18.6,161.2-21.5,242.5-3.1c79.8,18,144.6,59.2,195.1,123
			c7.6,9.6,13.4,11.3,24.7,6.5c187.8-79.9,384.1-113.4,587.5-104.7c168.5,7.2,330.4,44.6,484.6,113.5c37,16.5,72.6,35.8,104,62.1
			c57,47.7,86.8,109.8,95.9,182.4c16.5,132.9-13.3,253.3-103.9,354.1c-48.7,54.2-108.9,91-185.2,92c-51.6,0.6-87.3-24.7-109.7-70.1
			c-15.1-30.6-19.9-64.1-25.4-97.2c-14.2-86.8-47.9-122.7-132.4-142.7c-16.4-3.9-26.1-1.4-36.9,13.1
			c-61.7,83.7-125.1,166.2-187.3,249.6c-8,10.7-13.9,15-24.1,3.8c-2-2.3-4.9-3.9-7.5-5.5c-13-7.5-15.6-13.9-4.6-28
			c57.3-73.8,113-148.8,169.2-223.4C2281.8,1522.3,2286,1516.3,2292.9,1506.8z M2780.5,1711.6c4.1-2.9,5.8-3.8,7-5.1
			c3.8-4.1,7.6-8.2,11.1-12.6c69.1-87.1,93.6-187,82.5-296.2c-9-88.2-52.1-154-131.3-195.9c-33.1-17.5-67.2-32.7-102-46.1
			c-199.9-76.6-406.5-101.7-618.9-78.1c-120.7,13.4-237.4,43.5-349.8,90c-11.9,4.9-16.4,8.5-9.4,22.3
			c21.1,41.3,34.3,85.5,41.2,131.3c1.7,11.4,6,14.6,17.1,13c22.8-3.3,45.8-5.6,68.7-8.2c152-17.4,304.1-28.8,457-13.7
			c118.2,11.7,231.4,40.6,338.9,92.1c92.3,44.2,148.1,116.8,174,214.6C2774.5,1648.5,2776.6,1678.9,2780.5,1711.6z M1998.8,1456.9
			c0-1.3,0-2.6,0-3.9c5.6,0,11.2,0.1,16.8,0c112.8-1.2,225.7-1.2,337.4,16.6c112.2,17.9,181.9,71.4,194.1,187.8
			c3,28.3,8,56.7,21.1,82.8c14.5,29,37.4,44,70.2,43.4c32.2-0.5,60.5-12.8,88.1-27.8c7.5-4,7.7-10.6,7.8-17.6
			c0.3-26.2-1.3-52.4-5.9-78.1c-16.3-89.5-56.9-162.6-140.7-206.4c-96.7-50.5-199.9-79.2-307.6-92.5c-184-22.7-366.7-3.7-549.4,18.1
			c-8.4,1-10.1,4.3-9.6,12c1.1,16.1,2.6,32.4,1.6,48.5c-0.9,14.6,4.6,17.4,18.1,17.3C1826.9,1456.6,1912.8,1456.9,1998.8,1456.9z
			 M1013.7,993.6c-43.1-9.9-81.8-9.4-120.6-1.7c-38.7,7.6-68.1,28.8-90.2,61.1c-23.7,34.7-38.6,72.6-40.5,114.6
			c-3.6,77.4,24.1,94.5,83.6,92.3c27.3-1,35.1-5.9,41.5-32.7c5.1-21.1,8.1-42.8,13.7-63.7C919.5,1096.1,957.5,1041.1,1013.7,993.6z
			 M1082.3,1012.4c-25.4-1-25.3-0.9-41.4,16.8c-5.4,6-11.4,11.4-17.3,17c-47.6,45.4-76,100.9-86.2,165.7c-1,6.3-4.3,13.7,6.5,15.9
			c39.9,8,78.7,9.7,109.1-23.8c44.2-48.7,68.7-107.4,84.9-170.2c2.2-8.6-0.4-14.1-10-15.6C1112,1015.6,1096.1,1012.1,1082.3,1012.4z
			 M1183.9,1375.9c-1.4,6.6-3.1,13.2-4.1,19.9c-15,99-71.6,163.2-165,195.8c-38,13.3-77.6,17.9-117.8,15.8c-6.8-0.4-13.8-1.9-14,9.2
			c-0.2,10.8,6.4,10.4,13.5,9.9c74-5.8,147.7-13.5,215.9-46.4c41.3-19.9,69.2-51,77.1-96.9
			C1195.5,1447.3,1193.9,1411.2,1183.9,1375.9z M1427.3,1322c-0.8-1.3-1.6-3-2.7-4.4c-18.5-22.6-37.2-45.1-55.5-67.8
			c-5.5-6.9-9.1-3.2-13.3,1.2c-21.8,23-43.5,46.2-65.7,68.7c-6.1,6.2-4.3,9.8,0.5,15.3c15.3,17.1,30.4,34.5,45.1,52.1
			c4.8,5.8,8.2,7.3,14.8,1.7c23.2-19.7,47-38.7,70.5-58C1423.7,1328.6,1427.7,1327.1,1427.3,1322z M1061.1,1352.6
			c-1.3,1-3,2-4.3,3.2c-19.9,19.6-39.7,39.4-59.7,58.9c-5.5,5.4-1.4,8.7,1.6,12.4c20,25.3,40.5,50.3,59.9,76.1
			c6.4,8.5,10.6,7.8,17.4,1.2c18-17.5,33-37,43.6-59.9c3.3-7.1,2.5-12.5-2.1-18.7c-16.3-21.9-32.2-44.1-48.3-66.2
			C1067.2,1356.9,1065.6,1353.2,1061.1,1352.6z M988,1663.6c21.5,33.2,41.8,64.4,61.7,95.8c5,7.9,9.4,5.2,15,1.1
			c23.2-16.8,46.1-34,69.9-49.9c9.9-6.6,8.4-11.2,1.8-18.7c-13.2-14.9-25.7-30.4-38.5-45.6c-3.1-3.7-5.8-8.3-12.2-6.1
			C1054.6,1651,1022.4,1657.6,988,1663.6z M1332.9,1207.3c-1.8-2.8-2.9-5-4.4-6.9c-14.9-18.3-30.2-36.4-44.8-54.9
			c-6.2-7.9-10-3.2-14.7,1.4c-22.6,22.3-45.1,44.7-68.1,66.5c-7,6.7-7.2,11.1-0.6,18.3c15.6,16.9,30.5,34.4,45.3,52
			c5,6,8.6,7.4,14.6,0.9c22.1-23.7,44.6-46.9,66.9-70.3C1329.1,1212.1,1330.9,1209.7,1332.9,1207.3z M1391.8,1695.4
			c1.3-0.6,2.4-1.1,3.5-1.8c23.9-15.5,48.8-29.9,71.3-47.3c7.4-5.7,17.3-17.9,6.8-30.5c-13.5-16.2-27.7-31.9-41.2-48.1
			c-4.9-5.8-8.9-7-15.5-2.2c-23.5,17.3-47.3,34.2-71.2,50.9c-6.6,4.6-7.2,7.9-2.2,14.7c14,18.9,27.1,38.6,40.6,57.9
			C1385.9,1691.9,1387.2,1695.9,1391.8,1695.4z M1434.5,1495.8c1.5-0.8,3.2-1.5,4.7-2.6c24.3-17.3,48.5-34.8,72.8-52
			c8.5-6,4.5-11.5-0.2-17.1c-15.5-18.7-31.2-37.2-46.3-56.2c-4.8-6-7.8-8-14.5-2.3c-23.2,19.7-46.7,39.3-70.7,58
			c-7.5,5.8-5.2,9.2-0.5,14.5c14.9,16.8,29.4,33.9,44.1,50.7C1426.8,1491.9,1428.9,1496.3,1434.5,1495.8z M916.1,1561.8
			c34.4-0.7,67.8-6.3,99.9-19.3c8.4-3.4,10.5-6.3,3.9-14.2c-18.1-22-35.5-44.7-53.1-67.2c-4.2-5.3-7.3-9.4-14.3-2.3
			c-20.9,21.2-42.5,41.7-63.8,62.6c-10,9.8-7,22.6-4.7,33.5c2,9.7,13.5,5.3,20.9,6.8C908.6,1562.4,912.4,1561.8,916.1,1561.8z
			 M1296.9,1651.7c-1.2,0.8-2.8,1.8-4.3,2.9c-24.3,17.2-48.5,34.6-72.9,51.6c-6.7,4.6-5,8.2-0.6,13.3c14.2,16.4,28.4,32.9,41.8,50
			c5.5,7,9.2,5.2,15.1,1.3c21.2-14.1,42.5-28,64.2-41.3c7.9-4.8,10.5-8.6,4.2-17.1c-13.4-17.8-25.8-36.4-38.8-54.6
			C1303.5,1654.9,1302.2,1650.7,1296.9,1651.7z M1033.1,1314c-0.3-12.3-25.2-36.3-35.1-35.7c-17.5,1-35.5,1.5-51.9-3.9
			c-20-6.6-32.4,0.7-44.5,15.2c-4.5,5.3-5.9,7.6-1.3,13.2c18.8,23.2,37.3,46.7,55.5,70.3c5.6,7.3,9.5,9.3,16.9,1.5
			c17.6-18.5,36.1-36.1,54.2-54.2C1029.4,1317.9,1033.1,1316,1033.1,1314z M1135.6,1619.7c14.1,16.9,27.1,31.9,39.4,47.5
			c5.2,6.6,9.4,8.2,16.7,2.9c24-17.7,48.2-35.1,72.8-52.1c7.9-5.4,7-9.7,2-16.3c-10.7-14.5-21.4-29-31.1-44.2
			c-5.7-9.1-9.9-7.6-17.1-1.8C1191.3,1577.3,1168.7,1604.4,1135.6,1619.7z M1313.7,1582.4c1.5-1.1,3.5-2.5,5.5-3.9
			c22.4-15.8,44.6-31.8,67.2-47.3c7.2-4.9,6.6-8.8,1.2-14.7c-14.7-16.1-29.3-32.4-43-49.3c-6-7.4-10.1-6.5-16.6-1.1
			c-18.1,15.3-36.5,30.1-55.1,44.8c-6.4,5.1-8.5,9.1-2.7,16.6c12.1,15.8,23,32.5,34.5,48.8
			C1306.7,1579.2,1308.1,1583.4,1313.7,1582.4z M1135,1371.5c2-2.4,3-3.1,3.2-4.1c12.9-46.3,27.7-54.4,73.4-39.7
			c2.6,0.8,4.8,1.8,6.4-0.7c2.9-4.4-1.3-6.6-3.4-9.2c-16.2-18.8-32.8-37.3-48.7-56.3c-6.1-7.3-9.7-4.1-14.6,0.8
			c-15.7,15.9-31.8,31.5-47.6,47.2c-3.8,3.8-8.9,7.1-3.8,13.9C1111.7,1339.2,1123.1,1355.2,1135,1371.5z M1235.7,1482
			c24.6-20.1,45.7-37.2,66.6-54.5c6.5-5.4-0.3-8.7-3-12c-11.6-13.8-23.1-27.7-35.5-40.9c-4.2-4.5-7-14.9-14.8-10.8
			c-7.7,4.1-14.9,10.8-13.7,22.4C1238.6,1416.5,1241.4,1446.7,1235.7,1482z M1484,1274.8c-1.3-2.7-2.3-4.9-3.5-7.1
			c-13.8-26.7-31-50.8-52.5-72c-6.9-6.8-12.6-9.9-19.3-0.4c-5.1,7.1-17.4,10.9-5.8,23.7c19.1,21.2,36.4,44.1,54.6,66.1
			c2.8,3.3,4.9,10.8,11,6.6C1474.7,1287.4,1482.8,1283.9,1484,1274.8z M1220.2,1130.1c-18.5-2.2-33.3,0.3-48,0.2
			c-16.2-0.1-24.3,7.7-29.7,22c-6.3,16.6,8.9,21.5,16,29.9c7.2,8.6,11.4-2.9,15.5-6.6C1188.9,1161.6,1203.1,1146.9,1220.2,1130.1z
			 M884.5,1357.3c0,36,0,68,0,100c1.6,1.1,3.1,2.1,4.7,3.2c12-13.1,23.8-26.3,36-39.2c4.4-4.6,4-8,0.2-12.6
			C912.4,1392.6,899.7,1376.3,884.5,1357.3z M1113.1,1203.6c-15.2,20.1-30.4,39.8-52,53.1c-9.4,5.8-1.6,10.2,0.9,15
			c3.3,6.3,7.3,7.4,12.8,1.9c13.2-13.2,25.9-26.9,40.1-39C1127.5,1223.8,1130.8,1214.8,1113.1,1203.6z M1496.6,1570.1
			c3.3-13.2,6.3-24.5,8.9-35.9c2.5-11,4.5-22,7.3-36.1c-6.7,4.4-10.3,6.7-13.9,9.1C1459.9,1534,1459.9,1534,1496.6,1570.1z
			 M1345.2,1146.3c20.3,28.2,20.3,28.2,31.7,13.9C1368.3,1154.3,1358.8,1150.5,1345.2,1146.3z"/>
		<path class="st0" d="M512.4,1562.6c47.3,0,83.9,36.2,84.1,83.2c0.1,46.8-37.1,84.8-83.6,85.4c-47,0.5-85.5-38.2-85.2-85.7
			C427.9,1598.5,464.6,1562.6,512.4,1562.6z M512,1684.1c21.9,0.1,39.1-16.9,38.9-38.4c-0.2-20.7-17.1-37.5-37.9-37.9
			c-21.9-0.4-39.6,16.3-39.9,37.8C472.8,1666.8,490.2,1684,512,1684.1z"/>
		<path class="st0" d="M583.5,1404.1c-1.6,46.7-40.6,83.9-86.4,82.7c-47.4-1.3-85.4-41.5-83.1-87.8c2.4-46.9,41.6-83.6,87.3-81.7
			C548.2,1319.2,585.1,1358.3,583.5,1404.1z M498.5,1440.3c21.4,0.1,38.1-16,38.6-37.2c0.5-22.2-16.2-39.5-38.2-39.6
			c-21.5-0.1-38,15.8-38.6,37.2C459.8,1423,476.4,1440.2,498.5,1440.3z"/>
		<path class="st0" d="M765.4,1416.3c-1.1,46.5-40.3,84.2-86.1,82.8c-46.1-1.4-84-41-83.1-86.6c1-47.1,40.5-84.6,88-82.7
			C732.4,1331.7,767.4,1370.9,765.4,1416.3z M680.6,1375.8c-21.4,0.2-38.1,16.7-38.3,37.7c-0.3,21.5,17.3,38.7,39.5,38.6
			c21.4-0.1,37.7-16.3,37.8-37.8C719.7,1391.9,703.1,1375.6,680.6,1375.8z"/>
	</g>
</g>
</svg>
