<?xml version="1.0" encoding="utf-8"?>
<!-- Generator: Adobe Illustrator 23.0.0, SVG Export Plug-In . SVG Version: 6.00 Build 0)  -->
<svg version="1.0" xmlns="http://www.w3.org/2000/svg" xmlns:xlink="http://www.w3.org/1999/xlink" x="0px" y="0px"
	 viewBox="0 0 3000 3000" style="enable-background:new 0 0 3000 3000;" xml:space="preserve">
<style type="text/css">
	.st0{stroke:#000000;stroke-width:10;stroke-miterlimit:10;}
</style>
<g id="Layer_1">
</g>
<g id="Layer_2">
	<g>
		<path class="st0" d="M1339.6,806.8c-81.9,46.8-162.6,85-248.1,112.3c-199.2,63.5-401.9,79.4-606.9,36.3
			C309.8,918.7,188,761.6,202.2,592.1c12.4-148.1,83.4-262.5,211.2-340c84.5-51.3,178.6-76.2,273.9-97.5
			c132.4-29.7,265.9-49.1,402.1-45.9c90.4,2.1,179.9,12.6,268.7,28.9c17.3,3.2,30.8,0.2,47-7.8c129-64,262.3-107.8,409.3-78
			c36.1,7.3,69.4,21.8,98.8,44.1c11,8.4,21.5,9.2,34.5,6.8c151.4-28.1,304-42.4,458.1-33.4c76,4.4,121.6,40.7,145.3,113.6
			c22.2,68.4,27.9,139.7,32.6,210.7c4.8,73.3,6.6,147.1-6.3,219.8c-23,129.2-93.2,189-224.3,192.7c-111.4,3.2-220.6-11.5-326.8-45.6
			c-19-6.1-24.4-4.5-24.4,17.1c0.3,117.9-1,235.8-1.6,353.7c-1.5,295.4-2.1,590.9-4.6,886.3c-2.2,248.9-4.3,497.7-4.2,746.6
			c0,45.1-0.8,90.2-1.2,135.3c-0.4,41.6-15.7,59.1-57,65.2c-48.2,7.2-95.9,0.4-143.3-6.7c-153.2-22.9-302.5-63.7-452.1-102.6
			c-17.6-4.6-17.8-14.2-17.7-28.2c4.2-400.2,8-800.4,12-1200.6c2.6-263.4,5.2-526.8,7.7-790.2
			C1339.7,827.9,1339.6,819.4,1339.6,806.8z M1942.5,1821.9c2,0,6.1-711.7,6.1-1067.5c0-25.5-19.3-38.1-40.4-26.6
			c-93.1,50.4-192.4,77.4-298.3,79.5c-29.1,0.6-29.1,0.8-29.8,29.1c-0.1,2.2-0.1,4.4-0.1,6.5c-4,337.6-8.1,675.2-12.1,1012.8
			c-1.4,118.6-2.8,237.2-4.4,355.8c-2.8,208.1-5.7,416.2-9,624.3c-0.2,14.7,2.9,21.8,18.9,24.7c35.7,6.5,70.8,16.4,106.4,23.4
			c75.5,14.9,150.9,31,228.7,29.9c21.2-0.3,28-6.2,28.1-28.7C1937.9,2530.6,1940.3,2176.2,1942.5,1821.9z M715.3,925.7
			c122.4-3.3,224.2-17,323.8-46.3c96.8-28.5,188.2-69,275-120.1c7.2-4.2,19.3-6.4,9.5-20.2c-18.4-25.9-26.4-56.4-35.4-86.3
			c-22.8-76.1-22.2-153.5-12.8-231.4c1.4-11.5,1.9-19.4-14-19.4c-113.4-0.2-226.6-15.5-340.2-4.9c-91.7,8.6-178.9,30.8-255.9,84
			c-155.3,107.4-159.1,307.9-79.1,424.1c5.8,8.4,11.2,15.5,23.6,16.2C651.3,923.4,692.6,926.7,715.3,925.7z M1340.1,188.8
			c-161.2-29.8-319.6-36.8-478.5-12.4c-114.2,17.6-227.7,38.8-336.2,80.4c-107.2,41.2-190.9,107.5-239.5,215.4
			c-73.5,163-11.1,340,148.3,411.1c28.1,12.5,57.4,20.6,89.8,24.9c-47.5-100.4-48.3-176.8-36.7-240.2
			c25.2-138.5,110.9-226.6,237-279.4c84.4-35.3,173.4-47.1,264.3-48.6c92.5-1.5,184.5,7.9,276.9,9c12,0.2,20.4-0.5,22.3-15.8
			C1293.8,282.3,1307.8,233.8,1340.1,188.8z M1392.1,796.1c0,50.7,0.4,97.9-0.1,145.2c-2.9,313.6-5.9,627.2-8.8,940.7
			c-1.4,143.3-2.7,286.7-4,430c-1.5,160.1-2.9,320.1-4.9,480.2c-0.2,13.8,4.6,18.9,17.4,21.9c29.6,7,59.1,14.8,88.3,23.6
			c16.4,4.9,21.9,2.7,22.1-16.3c3.9-355.8,8.6-711.5,12.8-1067.3c1.9-161.5,3-323,4.9-484.5c1.8-147.7,4.2-295.3,6.5-443
			c0.2-10.4,0.3-18.3-14.3-17.8C1472.7,810.1,1433.6,807.8,1392.1,796.1z M1535.4,753.6c25.5,0,50.9-0.3,76.4,0.1
			c13.8,0.2,22.6-5.3,29.9-17.2c25.8-41.5,47.9-84.8,65.3-130.4c39.7-104.1,46.2-212.3,38.5-322.1c-4.7-67.6-30.1-125-81.9-170.1
			c-10.4-9.1-20.5-12-33.7-9c-59.6,13.9-117.8,31.9-173.5,57.3c-57.5,26.2-92,71.6-107,132.4c-14.6,59.5-20.2,120.3-25.4,181.1
			c-6.1,70.5,4.5,139.1,29.6,205.4c15.2,40.3,42.5,64.2,85.9,70.8C1471.5,756.9,1503.5,753.5,1535.4,753.6z M2532.7,478.6
			c1.7-39.3-2.8-79.9-4.9-120.5c-0.7-13.7-4.7-20.4-20.6-20.4c-151.2,0.2-302.4-0.2-453.6-1c-13.8-0.1-19.7,2.7-17.4,18.2
			c4.9,33.9,4,68.2,2.6,102.3c-3.2,75.7-13.2,149.7-64,210.7c-11.5,13.8-5.3,16.7,6.9,21.3c127.4,48.4,259.1,69.9,395.2,61.7
			c72.7-4.4,117.9-41.4,139.3-111.2C2532.1,587.5,2533.7,533.9,2532.7,478.6z M1699.4,745.5c60.6-11.8,114.2-29.3,164.8-55
			c58.5-29.7,96.1-77.4,109.4-141.6c18.3-88.6,17.8-177.8-2.8-266.1c-25.9-111.3-90.7-169.7-203.3-185.6
			c-13.7-1.9-27.8-3.8-42.9,1.2c32.6,38.7,58,79.5,66.2,128c19.6,116.1,15,231.4-16.2,345.3C1758.3,631.5,1731.8,687,1699.4,745.5z
			 M2273,283.4c8,0,16,0,24,0c66.9,0.2,133.9-0.1,200.8,1.1c17.2,0.3,21.3-4.3,17.7-20.7c-5.1-23.4-9.5-46.8-17-69.7
			c-15.3-47-48.2-69.7-95.7-71.9c-139.3-6.6-277.6,3.9-415.1,26.8c-12.8,2.1-15.4,6-7.7,17.7c20.2,30.6,34.8,63.9,42.2,99.8
			c3,14.6,10,17.4,23.7,17.3C2121.7,283.1,2197.4,283.4,2273,283.4z"/>
	</g>
</g>
</svg>
