<?xml version="1.0" encoding="utf-8"?>
<!-- Generator: Adobe Illustrator 23.0.0, SVG Export Plug-In . SVG Version: 6.00 Build 0)  -->
<svg version="1.0" xmlns="http://www.w3.org/2000/svg" xmlns:xlink="http://www.w3.org/1999/xlink" x="0px" y="0px"
	 viewBox="0 0 3000 3000" style="enable-background:new 0 0 3000 3000;" xml:space="preserve">
<style type="text/css">
	.st0{stroke:#000000;stroke-width:10;stroke-miterlimit:10;}
</style>
<g id="Layer_1">
</g>
<g id="Layer_2">
	<g>
		<path class="st0" d="M1619.2,1038.1c6.6,19.2,11.5,32.6,15.8,46.2c14.9,47.5-3.3,86.1-51.4,100c-54.9,15.8-111.4,13.7-167.5,5.9
			c-14.8-2-29.5-6.6-43.7-11.4c-47.8-16.3-79.6-50.5-100.9-94.6c-17.7-36.7-47-52.2-85.8-52.7c-68.7-0.9-137.4,1.1-206,4.4
			c-12.4,0.6-18.5,4.1-16.8,18.7c6.3,55.1-16.4,80.5-73.1,80.1c-56.3-0.4-112.6-3.3-168.9-4.5c-8.9-0.2-23-6.6-25.9,4.1
			c-3.9,14.8-1.7,31.3-0.8,47c0.2,4,7,2.9,11,3.1c108.5,4.1,216.9,8.4,325.4,12.4c133.2,4.9,266.4,9.7,399.6,14.5
			c176.5,6.3,352.9,12.3,529.4,18.6c61.1,2.2,122.2,5.3,183.3,7.2c12.6,0.4,16.7,4,15.7,16.7c-3.2,41,6.5,34.8-35.9,33.4
			c-208-7.1-416-15.6-624.1-23.2c-210.8-7.6-421.6-14.5-632.4-21.9c-51.5-1.8-103-3.7-154.4-6.7c-15.6-0.9-21.8,2-22,19.3
			c-0.6,66.6-2,133.3-4.6,199.9c-0.7,18.1,3.8,22.9,22.3,22.8c201.4-1.4,402.7-2,604.1-2.5c286.6-0.8,573.1-1.3,859.7-1.8
			c7.6,0,20.2-4.7,22.2,4c3.1,13.6,0.7,28.5,0.1,42.8c0,1.1-4.5,2.5-7,2.8c-4.8,0.5-9.6,0.2-14.4,0.2
			c-487.2,1.3-974.5,2.8-1461.7,3.6c-19.9,0-26.8,3.6-26.6,25.3c0.6,65.3-1.2,130.6-3.1,195.8c-0.4,14.8,4.4,18.2,18.6,18.1
			c386.9-2.9,773.8-5.5,1160.7-7.9c86.6-0.5,173.2,0,259.8-0.6c12.7-0.1,18,2.3,17.9,16.6c-0.2,33.6,0.6,33.5-33.6,33.8
			c-391.7,2.3-783.4,4.7-1175.1,7c-77,0.5-153.9,0.8-230.9,0.6c-12.8,0-17.9,2.7-17.8,16.8c0.8,99.6,1,199.3,0.7,298.9
			c0,13.2,3.5,18,17.2,18c54.3,0.2,108.5,1.9,162.8,2.1c38.8,0.2,54-17,52.2-56.6c-1-22.9-7.5-44.6-13.6-66.4
			c-3.2-11.3-0.9-15,11.9-15.2c98.9-1.3,197.9-3.8,296.8-5.2c60.7-0.9,85,27.1,77.9,87.5c-3.8,31.7,0.9,38.7,32,45.9
			c25,5.7,50.5,6.7,75.8,3.9c33.6-3.6,46-22.5,38.3-55.7c-2.6-11.4-5.9-22.6-7.8-34.1c-7.8-46.9,14.4-81.5,61.5-86.9
			c62-7.1,124.7-11,187-4.6c47.1,4.8,70,34,67.9,81.4c-0.7,15.1-2.7,30.1-4.2,45.1c-1.2,12.3,4.1,20,16.2,22.3
			c28.3,5.5,56.5,12,85.5,11.1c23.6-0.7,29.7-8.3,29.7-32.3c0-6.9-0.5-13.7-0.4-20.6c0.4-38.8,16.5-59.3,54.9-63.9
			c19.1-2.3,22.3-9.6,19.1-26.2c-7.4-38-7-38.1,32.7-38.2c68-0.2,136.1,0.1,204.1-0.9c15.5-0.2,21.6,4.5,19.5,19.8
			c-0.7,5.4-0.8,11.1,0.1,16.5c2,12.1-3,15-14.5,14.9c-56.3-0.5-112.7,0-169.1-0.4c-13.4-0.1-21.8-0.1-23.9,18.1
			c-3.2,28.2-23.9,45.1-52.7,44.8c-17.8-0.2-21.4,7.1-19.9,22c0.6,6.1,0.2,12.4,0.2,18.5c-0.4,47.5-27,75.6-74.7,78
			c-36.7,1.9-72.7-4.7-107.9-13.6c-31.3-7.9-50-35.4-49.2-68c0.4-14.4,2.5-28.7,4.1-43c2.9-26.2-2.8-33.5-28.7-36.7
			c-25.4-3.2-50.8,0.8-76.2,0.9c-29.5,0.1-59.1,1.5-88.5,4c-21.8,1.8-27,10.4-22.3,32c2.9,13.4,7,26.6,9.2,40.1
			c7.9,47.9-14.8,87.4-61.2,100.4c-49.7,14-99.7,9.7-147.3-10.1c-28.9-12.1-45.3-45.3-41-78.6c6.5-49.8,2.7-42.9-38.1-42.4
			c-73.5,0.8-147,3-220.5,3.6c-14.6,0.1-16,6.5-14,17.5c4.4,23.6,2.3,46.5-7.7,68.5c-13.2,29-35,47.2-67,51.3
			c-13.6,1.7-27.4,2.4-41.1,2.2c-38.5-0.5-76.9-1.9-115.4-2.6c-48.9-0.9-48.9-0.7-47.2,47.2c2.1,59.7,6.8,119.2,15,178.5
			c14.2,102.7,76,172.8,156.5,229.4c80.1,56.3,172.3,83.7,266.5,104.9c38.1,8.6,76.8,14.3,116.3,19.6c-21.4-14.6-39.5-31.5-48.2-56
			c-9-25.2-7.8-50,3.9-74c17.7-36.3,59.9-58.8,98.8-53.1c44.4,6.5,76.8,37.9,84.1,81.5c7.7,46-14.5,77.1-80.1,110.7
			c137.4,14.4,273,31.9,410,28.9c102.8-2.3,204.1-15.1,300.5-53.1c111-43.8,206.2-111.3,288.1-197.6c10.1-10.6,16.6-15,26.6-1.7
			c2.4,3.2,6,5.7,9.4,8c13,8.9,13.6,16.6,1.7,28.6c-43.7,44-89.5,85.5-141,120.1c-15.7,10.6-12.4,15.5-0.8,25.8
			c28.9,25.6,58.1,50.2,95.1,63.8c54.5,20.1,102.7,10.7,144-30c31.3-30.9,61.2-63.2,92.7-93.9c26.1-25.4,40.8-21,53.3,13.4
			c2,5.6-0.3,7.6-3.5,10c-33.9,25.4-59.7,58.7-88.3,89.3c-98.4,105.4-209,82.5-297,10.9c-16.5-13.4-31.8-28.3-47.1-43.1
			c-5.6-5.4-9.9-7.6-17.6-3.2c-164.2,95.4-344.5,110.7-528.4,101.3c-139.2-7.1-278-21-415.7-43.8c-29.8-4.9-59.6-10.3-88.7-18
			c-15.7-4.2-21.3,0.3-27.2,14.1c-13.1,31.1-30.3,60.1-52.8,85.4c-47.7,53.6-105.9,77.3-177.3,59c-70.3-17.9-129.1-54.6-171.5-113.8
			c-56.7-79.3-52.2-172.1,12.9-253c16.8-20.8,20.5-35.3,6.7-60.1c-30-53.9-35.5-115-40.6-175.2c-12.6-146.7-11.4-293.9-10.7-440.8
			c1.2-257,5-514,13.9-770.8c0.4-12.6-2-24.3-5.4-36.3c-66.8-236.3-43.7-462.5,80.9-675.4C820.2,263,975.3,162.1,1168.8,116.5
			c112.7-26.6,227.8-35.6,342.7-45.2c118.7-9.9,237.4-9.7,356.2-0.6c105.7,8.1,209.9,25,313.5,46.1c11.9,2.4,16.5,7.9,12.4,19.7
			c-1.3,3.9-2.9,7.9-3.2,11.9c-1.3,16.8-7.6,22-25.8,17.8c-185.9-42.4-374.5-58.7-564.8-49.5c-142.7,6.9-285.4,17-424.9,50.3
			c-267.7,64-426.8,238-497.8,498.3c-35.9,131.9-33.2,264.7-0.7,397.3c2.5,10.4,6.4,14.6,17.6,14.8c65.2,1.6,130.5,4.1,195.7,6.3
			c17.8,0.6,26.9-2.9,23.3-25.6c-6.8-42.1,15.9-68.5,58.6-71.9c72-5.7,144.1-6.5,216.2-5.3c58.8,1,103.1,26.9,128.6,80.3
			c27.7,58.1,75.9,79.7,136.5,81.9c34.6,1.3,69.4,3.3,103.6-4.1c33.6-7.2,38.8-17.2,27.1-48.9c-8.7-23.7-20.1-46.9-13.9-73.4
			c4-17.2,10.2-28,32.6-27.4c54.2,1.3,108.5-1.3,162.8-2.5c52.3-1.2,74.3,20.1,73.3,72.7c-0.2,13.5,4.8,21.1,17.1,23.8
			c46.9,10.2,93.4,22.7,142.3,14.8c52.1-8.4,79.7-35.3,86.8-87.9c1.4-10.7,9.5-9,14.8-10.5c36-9.7,41.9-3.7,34.9,33.5
			c-12.5,65.6-70.9,112.6-148,117.5c-51.3,3.3-101.3-6.4-150.1-20.9c-33.9-10-49.4-33.4-48-70.3c0.7-18.1-5.3-22.2-22-21.9
			C1718.4,1038.6,1670.3,1038.1,1619.2,1038.1z M729.3,2608.6c-66.9,65-75.5,147.9-21.5,217.5c37.1,47.9,87.5,76.7,146.4,89.2
			c37.2,7.9,70.5-2.5,99.4-27.6c28.7-24.9,46.2-57.5,63.6-90.3c5.6-10.5-0.4-12.8-8.4-15.4C901.1,2747.5,803.8,2696.2,729.3,2608.6z
			 M1279.2,2735c5.3-0.7,14.2,1.9,17.7-4.8c3.5-6.7-3.8-12.3-7.7-17.4c-10.7-14-24.9-23.2-41.4-29.4c-12.7-4.7-14.5,1.4-13.4,11.7
			C1236.5,2716,1255.9,2733.8,1279.2,2735z"/>
		<path class="st0" d="M1087.8,710.6c-112.5-0.4-201.6-87.8-200.6-196.8c1-106.8,91-194.3,200-194.6c110.9-0.3,200.7,88.7,200,198.1
			C1286.7,625.1,1198,711,1087.8,710.6z M1087,660.8c28.1,0.3,53.9-7.2,78.6-20.6c12.8-6.9,15.3-14.3,9.5-27.7
			c-38.6-89.6-105.2-142.9-201.6-159.8c-17-3-23.1,2.4-27.9,17C914.2,564.4,985.1,660.6,1087,660.8z M993.6,404.5
			c105.3,23.3,179.2,83.1,224.8,179.3c34.8-61.8,19.1-135.7-36.7-181.3C1129.2,359.7,1044.2,359.8,993.6,404.5z"/>
		<path class="st0" d="M1077.4,2280.7c101.9,0.2,184.2,81.5,183.2,180.8c-1,100.2-83.1,179.4-185.2,178.9
			c-100.7-0.5-181.8-80.7-181.9-179.8C893.3,2360.6,975.2,2280.4,1077.4,2280.7z M944.4,2470.4c0.2,40.2,23.5,78.2,66.7,102.3
			c44.6,24.9,90.4,23,135.5-1.6c11.4-6.2,11.1-13.1,6.8-23.4c-28.5-66.9-76.7-112.5-146.4-134.2
			C955.5,2397.5,944.6,2406,944.4,2470.4z M1195.5,2516.6c28.5-58.3,11.6-122.2-39.8-160.6c-45.6-34.1-119.2-33.3-157.3,2.8
			C1088.6,2379.8,1153.4,2432.4,1195.5,2516.6z"/>
		<path class="st0" d="M1557.3,631.8c-95.5-0.5-172.7-77.1-172.4-171.2c0.3-94.1,77.7-170.2,173.3-170.2
			c95.7,0,175.3,78.7,174.1,172.2C1731,555.9,1652.1,632.3,1557.3,631.8z M1435.5,477.6c0.5,29.4,21.6,64.8,61.6,87.2
			c40.6,22.7,82.5,21,123.9-0.3c11.7-6,10.8-13.2,6.4-23.3c-27.1-62.1-72.5-103.9-137.5-123.3
			C1444.3,404.4,1435.7,411.6,1435.5,477.6z M1668.8,508.6c25.2-46.3,10-107.5-33.7-141.3c-42.6-32.9-110.3-34.7-145.4-2.2
			C1571.2,385.8,1630.3,434,1668.8,508.6z"/>
		<path class="st0" d="M1987.5,2586.8c-80.3,0.1-144.9-63.2-145.5-142.9c-0.7-79.4,65-144.7,146.1-145.3
			c80.3-0.6,147.3,64.4,148,143.7C2136.6,2522.3,2070.5,2586.7,1987.5,2586.8z M1989.3,2537c13.2-0.1,25.7-3.5,38.1-7.8
			c13.7-4.8,18.1-11.4,10.7-25.9c-25.5-50.4-64.9-81.8-120.2-94.5c-17.5-4-21.8,3.5-24.1,17.5
			C1884.1,2485.3,1928.8,2537.3,1989.3,2537z M1939.7,2361.6c63.7,18.7,107.7,55.5,141,111.5c10-45.5-0.5-79-33.1-103.8
			C2015.8,2345.1,1981,2344.3,1939.7,2361.6z"/>
		<path class="st0" d="M1531.5,2739.4c-81.9,0.7-147-62.3-147.4-142.7c-0.4-79.4,65.4-144.5,146.5-144.9
			c80.4-0.5,147.3,64.7,147.7,144C1678.6,2675.4,1614,2738.7,1531.5,2739.4z M1531.5,2689.6c13.4,0.9,27.1-3.2,40.7-8.4
			c12.3-4.7,14.8-11,8.7-23.4c-24.8-50.9-64.4-82.4-119.3-95.7c-17.1-4.2-23.5,1.7-25.8,18C1427.3,2639,1470.3,2689.3,1531.5,2689.6
			z M1621.6,2625.2c11.7-44.3-0.5-80-32.9-104.1c-29-21.6-71.9-24.3-102.7-5.4C1545,2533.8,1589.5,2569.1,1621.6,2625.2z"/>
		<path class="st0" d="M866.1,891.9c-59-0.1-107.2-47.8-106.7-105.5c0.5-56.5,48.7-103.8,106.4-104.3c58.1-0.5,107.8,47.9,107.8,105
			C973.5,844.9,925.2,892,866.1,891.9z M868.2,841.8c7-0.6,17.7-0.1,22-8.3c3.7-7-4.5-13.7-8.7-19.6c-13-18.5-30.5-31.3-52.2-38.2
			c-16.7-5.3-20.6-2.1-18.9,15.7C813.1,819.4,837.9,841.7,868.2,841.8z M867.5,736.1c20.4,11.5,35.9,25.3,51.6,42.2
			C914.6,749.6,896.6,734.8,867.5,736.1z"/>
		<path class="st0" d="M1340,867.1c-58.9-0.2-107.1-48.2-106.4-105.8c0.7-56.6,49.1-103.7,106.7-104
			c58.3-0.2,107.7,48.3,107.4,105.4C1447.5,820.6,1399.2,867.4,1340,867.1z M1343.3,817c6.6-0.6,16.6-0.3,20.9-7.3
			c4.5-7.3-3.8-13.7-7.9-19.7c-13.6-20-32.7-32.4-55.6-40.2c-13-4.4-15.9,0.8-16.3,11.9C1283.3,790.9,1311,817.7,1343.3,817z
			 M1340.2,711.8c22.9,10.1,36.7,25.9,53.2,40.5C1388.3,724.4,1370.2,709.7,1340.2,711.8z"/>
		<path class="st0" d="M1840.7,815.6c0.3,58.7-46.6,105-106.3,105c-59,0-105.6-45.1-106.3-102.9c-0.7-58.2,46.3-106.1,105.2-107.1
			C1791.3,709.5,1840.5,757.6,1840.7,815.6z M1738.2,870.4c5.1-1,16.1,0.6,20.4-7.8c3.5-6.8-4.6-13.5-8.7-19.4
			c-14.1-20.3-33.7-33.1-57.4-40.3c-10.2-3.1-13.1-0.1-13.7,10.1C1676.7,843.8,1702.3,870.5,1738.2,870.4z M1788.7,808
			c-7.4-31.1-29.9-49.1-49.5-40.2C1758.6,777.2,1772.7,792.4,1788.7,808z"/>
		<path class="st0" d="M1278.8,2305.9c-0.4-52.3,41.4-95.2,93.1-95.5c56.8-0.4,100.7,40.7,100.7,94.2c0,51.2-44.6,95.6-96.5,96
			C1323.8,2401.2,1279.1,2357.7,1278.8,2305.9z M1377.5,2348.5c3.6-1.7,11.7,2.7,14.5-4.4c2.1-5.2-3.2-10-6.3-14.4
			c-10.6-15-25-25.1-42.1-31.6c-12.7-4.8-16.2,0.3-14.4,12.4C1332.4,2332.9,1351.5,2348.7,1377.5,2348.5z"/>
		<path class="st0" d="M1798.2,2568.8c53.8,0.1,95.9,41.5,96.1,94.5c0.1,52.5-42.5,95.2-95.6,95.7c-53.3,0.5-98.2-43.7-97.6-96.1
			C1701.8,2610.4,1744.8,2568.8,1798.2,2568.8z M1798.1,2708.2c5.3-0.6,13.4,0.6,16.3-4.7c3.2-5.8-3.3-11.3-6.8-16
			c-10.8-14.7-25.1-24.8-42.5-30.7c-9.8-3.4-13.5-1.1-13.1,9.7C1753,2688.4,1773.6,2707.9,1798.1,2708.2z"/>
		<path class="st0" d="M1820.1,2376.6c0.1,53-41.8,94.8-95.4,95.1c-54.4,0.3-98.2-42.5-97.7-95.4c0.5-52.1,44.2-94.9,96.9-94.9
			C1776.7,2281.3,1820,2324.1,1820.1,2376.6z M1722.6,2421.5c6.1-0.5,14.7,1.7,17.7-5.7c2.4-5.9-4-11-7.6-15.9
			c-10.8-14.9-25.7-24.1-42.7-30.4c-9.3-3.4-12.1,0.1-12.1,9.3C1677.8,2400.7,1698.1,2420.7,1722.6,2421.5z"/>
	</g>
</g>
</svg>
