<?xml version="1.0" encoding="utf-8"?>
<!-- Generator: Adobe Illustrator 23.0.0, SVG Export Plug-In . SVG Version: 6.00 Build 0)  -->
<svg version="1.0" xmlns="http://www.w3.org/2000/svg" xmlns:xlink="http://www.w3.org/1999/xlink" x="0px" y="0px"
	 viewBox="0 0 3000 3000" style="enable-background:new 0 0 3000 3000;" xml:space="preserve">
<style type="text/css">
	.st0{stroke:#000000;stroke-width:10;stroke-miterlimit:10;}
</style>
<g id="Layer_1">
</g>
<g id="Layer_2">
	<g>
		<path class="st0" d="M364.4,2563.2c0.2-49.2,10.5-96.5,25.5-143c21-65.3,66.5-105.9,128.1-132.5c41.1-17.7,39.7-18.8,15.5-54.7
			c-148.9-220.8-164.1-452.7-56.1-694.3c5.9-13.2,9.2-25.7,7.9-40.3c-6.5-71.9,6.4-139.8,46-201.2c7.6-11.8,5.5-16.4-6.1-23.1
			c-190.9-110.1-158.5-354.8-5.2-447.7c16.8-10.2,11.7-18.7,6.7-31.3c-43.2-108.8-71.6-220.7-64.4-338.9
			c6.3-104.1,43.7-193.2,132.8-253.8c64.2-43.7,133.9-55.2,208-26.6c20.9,8.1,42,15.8,62.2,25.4c40.2,19.2,80.4,19.6,122.6,6.5
			c40.8-12.7,83.1-33.7,125.4-19.1c43.1,14.9,71.1-0.7,104.9-23.7c104.5-70.9,221.8-107.4,348-110.2c100.6-2.2,185.6,31.5,240,122
			c7.4,12.3,13.6,10.8,24.6,5.9c81.8-36.4,160.6-30.1,232.9,23c36,26.4,73.6,28.8,114.3,20c34.7-7.5,69.7-14.6,105.2-10.8
			c137.8,14.8,240.7,130.7,244.7,280.1c3.5,130.6-30.6,251.8-105.9,359.7c-12.1,17.3-11,26.9,2.6,42.3
			c83,93.8,107,207.8,106.4,328.5c-0.5,91.6-4.6,183.3-29.8,272.4c-20.4,72.2-52.3,138.2-107.5,190.6c-10.1,9.6-13,19-10.8,32.1
			c15.4,90.8,13,179.1-39.8,259.4c-7.3,11.1,0.1,17.4,4.3,24.9c55.7,98.4,83.9,203.1,75.2,316.9c-2.8,36.5-8.7,72.5-21,106.8
			c-7.1,19.8-3,34.6,5.8,52.2c44,87.3,66.4,178.9,45.2,276.7c-23.7,108.8-104.3,181.4-222.4,200.4
			c-148.6,23.8-277.1-20.9-388.2-119.2c-16.7-14.8-29.7-18.2-51.2-10.8c-97,33.3-194.7,31.7-291.8-0.7c-13.1-4.4-22.7-6.8-35,4.8
			c-78.4,73.9-169.7,84.1-268.2,49.7c-17.8-6.2-32.9-6.2-50.9-1.8c-86.2,21.1-170.9,10.5-253.8-17.1c-17.9-6-32.9-6-50.8,1
			c-53.1,20.7-105.8,15.9-157.1-8.4c-8.2-3.9-15.2-9.9-26-7.4c-118.2,27-249.2-53-283.3-195.6
			C367.1,2622.8,364.2,2593.2,364.4,2563.2z M1681.6,2065.7c-0.8,9.2-1.5,17.5-2.3,25.8c-16.5,167.8-96.7,264.4-256.2,307.7
			c-36.1,9.8-73,16.1-110.2,19.5c-137.9,12.2-276.4,14.9-414.6,22.8c-71.7,4.1-144.4,1.5-214.2,22.4
			c-62.2,18.6-113.6,52.3-128.3,120.1c-6.1,28.3-23,22.7-38.6,20.5c-19.1-2.7-9.6-19.2-7.9-29c5.4-31,19.8-58,40.6-81.9
			c45.6-52.2,105.2-77,171.7-85.9C844,2391.3,967.8,2393,1091,2385c94.2-6.1,188.9-4.8,282.2-22.5c169.6-32.3,257-129.9,259.7-290.7
			c0.4-24.2-3.8-43.3-25.4-60.5c-41.5-33.2-69-78.2-90.5-126.6c-3.7-8.3-4.6-18.2-13.5-24.6c-18.8,17.6-24.2,41.6-30.6,64.9
			c-8.6,31.4-21.7,60.2-49.2,79.2c-12.8,8.8-21.4,19.9-29.7,32.6c-65.3,100.6-151.7,160.3-278.1,147c-63.2-6.6-127-10.2-190.1,3.1
			c-150.3,31.6-289.4,92.7-424.9,163c-24.9,12.9-43.6,32.7-54.8,58.1c-32.2,72.8-44.5,148.6-27.9,227.2
			c20.6,97.9,101.1,169.7,189.2,171c39,0.6,38.6,0.5,40.4-39.4c0.6-13.8-4-31.1,21.2-30.3c20.6,0.6,29.7,4.7,27.2,28.5
			c-4.9,47.2-0.8,52.7,45.4,61.2c50.5,9.2,96.4-0.3,133.3-40c13.6-14.7,25.6-30.3,32.1-48.8c9-25.6,25.7-15.6,40.7-10.4
			c20.3,7.1,6.4,21.4,2.4,29.6c-10.5,21.6-24.2,41.6-38.2,64.9c72.8,20,145.1,30.3,218.6,13.7c46.3-10.5,69.9-41.2,71.9-91.3
			c0.8-20.4,9.1-21.1,25.1-21.3c19.8-0.3,22.8,8.4,22,25.6c-1.5,33.4-15,62.2-32.5,90.5c36.9,15.5,73.3,16.3,109.7,11.8
			c76.7-9.6,133.3-62.8,144.8-135.4c5.7-35.9-1-71-11.5-105.1c-7.6-24.7,14.5-18.6,23.6-25.1c11.1-8,14.3-0.5,18.5,10.4
			c21,54.3,23.9,109.2,6.5,164.5c-4.8,15.4-2.3,20.6,13.1,25.5c64.7,20.2,129.9,22.9,196.8,14.1c51.8-6.8,87.6-26.7,90.5-84.1
			c0.1-1.9,0.4-3.7,0.9-5.5c23.5-84.4,44-168.9,101.8-240.2c81-99.8,109.4-216.8,95.8-344.5c-2.1-20-7.5-27.6-28.7-26.2
			c-38.9,2.6-78,3.5-117,2.8c-57.8-1-57-1.7-69.3,54.8c-49.1,226.1-177.1,377.7-409.3,428.6c-99.6,21.9-201,33.1-302.6,41.4
			c-79.4,6.5-158.8,7.7-238.4,2.8c-13.3-0.8-21.3-2.6-21.8-20.3c-0.8-25.4,9.4-28.5,31.5-27.1c187.1,11.1,372.2-7,553.7-51.6
			c222.8-54.7,319.2-235.4,348.1-422.3c1.4-9.1,3.3-17.8-10.5-21.4C1722.9,2081.1,1703,2073,1681.6,2065.7z M1298,1084.5
			c-38.5,50.4-63.8,100.4-83.7,152.7c-65.3,171.5-80.9,350.7-76.3,532.1c1.2,47.6,12.5,94.7,37.1,136.9
			c37.6,64.4,97.3,83.6,167.4,79.5c61.7-3.6,79-47.7,93.2-98.9c15.9-57.4,58.1-92,115-108.5c66.1-19.2,133.7-12.9,200.7-10
			c136.6,5.8,272.8,7.6,408.2-17.8c159.1-29.9,263.5-118.3,300.1-278.9c26.2-114.9,33.5-231.6,17.1-348.3
			c-14.2-100.8-58.9-186.5-143.8-247.7c-13.2-9.5-21.7-14.4-22.7,9.4c-3,69.8-20.6,136.5-45.2,201.5
			c-75,198.4-280.3,398.4-537.9,396.4c-182.4-1.5-335.7-100.1-400.2-270.7C1312,1172.7,1304.5,1131.7,1298,1084.5z M2194.5,2080.2
			c76.1,107.2,78.1,176.2,9.6,288.2c-18,29.5-37.9,57.9-55.9,87.5c-45.8,75.1-78.1,155.3-88.1,243.2c-6.8,59.7,20.5,95.9,80,103.5
			c77.9,9.9,141.6-19.4,189.8-80.1c17-21.4,26.5-4.9,39.1,1.6c18.4,9.4,4.7,18.8-1.2,26.2c-59.1,74.8-137.1,108.7-231.5,99.4
			c-81.5-8-127-63.2-123.4-145.2c0.8-19.5,4.3-39,8.3-58.2c21.6-103.4,69.8-194.6,129.2-280.8c20.7-30.1,36.8-62.6,50-96.9
			c28-73.3-27.4-197.7-128-174c-16.3,3.8-21.1,7.1-19.1,24.5c16.6,138.1-16.9,263.4-99.6,375.3c-27.3,36.8-55.6,72.8-67.7,118.4
			c-12.7,47.8-26,95.5-39.4,143.1c-2.9,10.5-3.8,19.2,5.2,28c91.8,90.4,200.8,140.5,330.7,132.7c145.4-8.7,227.6-90.2,230.9-223.4
			c1.6-63.2-13-122.9-43.5-182.7c-14.9,28.9-29.2,53-46.9,74.8c-6.1,7.5-9.2,26.9-25.9,10.6c-10.8-10.5-30.3-15.2-12.3-38.2
			c40.9-52.1,67.2-111.8,81.8-176.6c27.2-120.8,3.5-233.6-53.1-341.3c-5.1-9.8-9.4-15-20.6-5.7
			C2264.9,2057.3,2231.4,2069.2,2194.5,2080.2z M2480.4,541.8C2496,369,2365,219.2,2189.9,271c-57.8,17.1-111.2,5.3-161.1-32.1
			c-53.7-40.3-114.3-41-175.6-15.5c-14.4,6-21.4,12.4-16.6,31.3c10.5,41.7,16.2,84.7,8.7,127.8c-3.4,19.5,4.7,26,22.1,29.8
			c52.7,11.6,100.4,34.6,143.7,66.7c91.9,68.1,150.5,159.7,185.6,267c6.4,19.5,16.2,28.1,35.3,33.1c42.6,11,83.8,26.9,119.1,53.5
			c18,13.5,25.1,8.9,36-7.6C2445.2,736.8,2475.4,640,2480.4,541.8z M769.2,801.6c6.5-31.3,11-61.8,19.3-91.3
			c49.8-177.3,155.2-296.6,346-320.6c33.9-4.3,42.5-18.8,42.1-47.5c-0.2-13.1,0.7-26.2-0.7-39.2c-4.7-43.2-29.7-66.9-73.5-69.8
			c-17.7-1.2-35.1,0.1-52.5,5.5c-29.4,9-59.2,17.2-89.3,23c-57.7,11.1-107.8-14.5-158.4-36.2c-32.1-13.7-65.1-23.5-100.7-16.4
			c-85.6,17.1-142.5,69.2-170.5,149.7c-51.7,148.5-10.4,289,43.2,427.7c4.3,11.1,11.8,10.5,20.3,8.2
			C653,778.8,710.9,783.2,769.2,801.6z M1644.2,788.9c111.6-28.4,225.3-33.8,339.5-33.5c18.9,0,13.3-10.9,9.5-20.4
			c-21.9-55-52.5-102.6-105.9-133.3c-47.3-27.2-98.9-39.9-151.6-47.3c-149.8-21-300.5-18.7-451.1-9.7c-67.3,4-133.7,14.9-196.6,41.7
			C996.7,625.5,947,704.7,951.4,804c0.8,18.9,4.3,23.7,24.4,17.1c121.3-40.1,241.3-3.2,321.7,96.7c13.3,16.5,20.8,47.6,37.7,47.8
			c16.2,0.2,32.4-25.2,49.1-38.7c61.1-49.6,128.3-88.9,205.2-117.3c-62.7-16.3-82.3-46.1-65.6-103.6c20.1-69,73-107.3,137.6-128.2
			c35.6-11.5,67.2,5.9,83.7,35.4c16.3,29.2,12.2,57.2-13.1,87.4C1705.7,732.2,1676.9,761.3,1644.2,788.9z M1141.3,1288.4
			c-58.9-128.8-284.3-196.5-371.9-112.4c9.3,0,17.8,0.7,26.1-0.1c18.7-1.9,28.6,1.4,28.4,24.8c-0.2,23.7-12.6,22.4-28.2,21.8
			c-14-0.5-28.2-1.3-42.1,0.2c-19.4,2.1-31.8-2.4-28-29.1c-16.6,11-29,19.1-41.3,27.3c-3.9,2.6-10.5,7.5-7.7,10
			c18.6,16.2,5.6,36.8,8.5,54.9c2.7,16.5,2.1,30.8-23,30.8c-23.8,0-25.5-11.8-24.7-29.8c0.4-8.7,3.3-18.4-3.1-26.6
			c-75.1,42.8-118.1,149.2-100.2,247.1c13,71.6,52.3,119.6,125.5,133.1c138.1,25.6,276.9,29.2,416.1,9.2c12-1.7,14.9-6.9,15.8-18
			c3.2-41.2,3.6-41.1-37.3-44.2c-3.7-0.3-7.4-1.2-11.1-1.1c-24.7,0.7-28-12.7-25.3-33.9c3.2-25.1,19.5-13.4,31.5-13.2
			c9.3,0.1,18.7,1.5,27.8,3.3c18.7,3.6,23.6-5.1,25.7-22.4c6.6-54.6,12.1-109.6,25.5-163.1c4.4-17.6-1.6-21.3-17.3-21.1
			c-28.1,0.3-56.2-2-84.2-0.6c-19.4,1-21-8-20.4-23.4c0.5-14.4,0.4-24.7,20.4-23.8C1064.1,1289.6,1101.6,1288.4,1141.3,1288.4z
			 M1800.8,337.7c-0.5-7.8-0.9-20-2.1-32.1c-11.3-118.7-79.1-192.8-197.7-201.6c-143.5-10.8-271.7,37.1-387.6,120.3
			c-10.7,7.7-10.3,14.7-4.8,25.8c15.6,31.9,21,66.3,13.9,101c-4.9,23.7,0.3,29.6,25.2,29.2c166.4-3.1,332.8,0.2,498.9,11.4
			C1801,395.3,1801,395.5,1800.8,337.7z M2151,761c-46.1-148.8-158.5-301-376.2-318.6c-199.6-16.2-399.5-24.4-599.6-11.1
			c-90.6,6-174,32.4-239.3,101.4c-60.6,64-92.7,140.9-110.6,225.9c-8.1,38.1-16.5,73.3,29.3,93.3c4,1.8,7.4,5.9,10.1,9.6
			c8.4,11.5,16,10.5,27.9,3.3c15.1-9.1,15.1-20.6,14.1-35.5c-9.9-157.3,58.6-255.8,209.1-302.9c70.4-22,142.9-28.3,215.9-30.8
			c149.6-5.1,299.2-9.7,447.4,19c109.2,21.1,199.1,69.5,246.4,176.8c7.1,16.2,13.8,32.7,19,49.6c3.4,10.9,9,14.7,19.9,15.1
			C2092.5,757,2120.4,759.1,2151,761z M774,1115c31.1-9.4,60.4-18,90.8-21.2c8.1-0.8,11-5.8,12.4-12.8c11-53.8,9.7-106.5-20.4-154.4
			c-41.1-65.3-104.7-90.1-178.4-94.2c-108.6-6-200.7,59.7-230.1,163.4c-27.8,98.1,14.6,192,108.5,242.5c12.1,6.5,19.1,5.8,29.1-2.7
			c35-29.7,72.8-55.6,112-79.4c14-8.5,21.3-19.9,25.6-35c17.3-60.8-14.9-116.1-76.2-131.2c-27.7-6.8-53.4-1.2-79.4,8.6
			c-23.2,8.7-19.3-16.4-27.8-25.6c-10.3-11,2.6-13.7,9.4-16.8c45.9-20.7,92.9-22.8,138.5-1.5C754.4,985.7,779.3,1041.6,774,1115z
			 M2338.3,1730.5c-28.9,26.2-68.2,24.7-87.6,59.2c-40.8,72.7-101,124.8-179.2,154c-129.3,48.2-299.2,32.3-374.4-118
			c-4-7.9-8.5-13.3-18.8-13.6c-39.5-1.1-78.5,0.7-116.7,11.5c-10.7,3-15.8,6.5-10.9,19.3c42.5,109.8,115.2,186.8,235.4,203.9
			c123,17.6,246.5,7.4,369.2-7.4c49.8-6,96.3-23.2,131.2-62.8C2349,1906,2349.3,1822.6,2338.3,1730.5z M1527.6,889.1
			c-45.2,21.8-78.9,49.4-114.7,74c-54.9,37.8-78,82.3-64.7,153.2c31.4,168.3,149.4,283.2,286.1,309.1
			c156,29.6,292.1-8.8,411.8-111.2c139.2-119.2,208.6-272,219.1-453.3c1.3-21.9-17.1-36.2-50.1-38c-24.2-1.3-11.7,19.3-12.7,28.3
			c-15,137.5-54.1,265.8-144.7,373.3c-85.7,101.7-188.6,170.5-330,155.1c-83.6-9.1-158.4-38.4-214.5-103.2
			c-76.6-88.5-83.9-217.4-20.9-330.7C1502.1,928.2,1513.6,911.6,1527.6,889.1z M1535.8,1229.5c6.3-11,10.9-18.8,15.3-26.7
			c128.4-225.9,321.5-349.4,581.1-368c10.4-0.8,24.8,3.3,24.2-14.6c-0.6-15.7-14.2-12.1-23.5-13c-121.4-11.3-242.7-7.3-363.7,6.1
			c-135.9,15-235.1,102.2-265.3,232.1C1489.1,1109.8,1496.1,1170.8,1535.8,1229.5z M1162.3,1231.2c3.6-5.5,6-8.2,7.4-11.4
			c29.8-72.1,67.4-139.6,118.7-198.8c11.1-12.8,4.8-21.8-0.8-32.5c-73.8-140.2-239.1-178.8-367.9-86.7c-12.8,9.1-14.1,16.1-8,29.7
			c20.1,45,21.9,92.8,14.2,140.2c-3.3,20.4,4.2,23,19.8,26.4c19.7,4.2,21-11.5,26.6-21.9c44.5-83.1,131.2-123.8,218.5-102.2
			c6.7,1.7,15.9-0.5,17.4,10.1c2.8,19.8-16.1,37.2-36.5,33.6c-65.4-11.6-129.6,21.2-157.7,80.7c-3.1,6.5-11.3,13.9,2.3,19.9
			C1073.8,1143.2,1120.8,1182.4,1162.3,1231.2z M508.5,1582.3c-9.2,25.1-15.7,45.4-24,65c-10.6,25.1-4.5,44.7,11.3,66.6
			c123.1,170.6,289.6,260.3,499,270.5c54.8,2.7,109.5-2.3,165.6-16.6c-16.5-22.5-32-42.8-39.7-66.8c-6.1-19-13.3-18-29.2-9.6
			c-190.4,101.3-399.5,13.4-460.2-192.9c-2.4-8.1-2.7-17.3-12.2-20.5C571,1661.9,536,1629.9,508.5,1582.3z M463,1749.6
			c-8.4,29.9-4.6,55.5-7.9,80.2c-2.5,18.6,3.8,31.7,18.2,43.7c41.7,34.8,84.5,68,131.6,95.2c179.9,103.8,372.9,132,576.2,98.7
			c42.6-7,85.4-14.4,133.8-33.6c-33.5-3-58.4-7-81.1-17.8c-17.9-8.5-34.6-8.4-53.9-4.1c-163.1,36.9-320.8,22.2-471.4-52.9
			C611.4,1910.6,531.9,1841,463,1749.6z M1098,1824.2c-1.9-12-3.8-19.3-4.1-26.7c-0.8-18.2-2.9-29-28-24.7
			c-33.3,5.6-49.2-12-47.7-47.9c0.7-16.7-4-20.7-19.6-19.6c-31.6,2.3-63.4,3.3-95.1,4.6c-6.9,0.3-11.2,2.5-15.9,8.6
			c-27.4,35.8-81.9,35.4-108.9-0.8c-6.4-8.6-11.2-16.1-23.3-16.9c-19.5-1.2-39-3.6-58.4-6.1c-15.1-2-18,2.6-12.4,16.7
			c31.3,78.8,83.8,135.4,165.7,163.2c18,6.1,25.4,3.1,27.6-16.1c1.4-12.5,2.7-27.7,19.2-30.6c17.8-3.1,26.9,9.6,34.7,22.9
			c3.3,5.6,6.4,11.5,8.3,17.7c4.2,14,12.4,18.7,27,16.3c41.9-6.9,81.3-20.2,117.4-43C1093,1836.4,1099.9,1831,1098,1824.2z
			 M2134.9,959.3c-0.5-10.4-11.1-3.6-18-2.7c-198.1,24.7-351.9,121.5-462.5,287c-41.1,61.6-39,64.1,33.9,82.5
			c16.5,4.1,25.2,2.1,32.3-14.7c17.7-41.4,42.3-78.9,70.2-114.2c82.6-104.3,188.2-174.4,316.2-210.5
			C2119.6,983.1,2133.4,981.6,2134.9,959.3z M1266.6,2100.8c-293.2,63.4-562.6,18.7-803.5-173.7c-0.7,31.7,9.3,56.9,14.2,83
			c5.1,27,20.4,44.1,43.6,57.7c65,37.9,133.7,66.3,207.2,82.2c49.7,10.7,98.7,14.4,149.2-0.3c59.4-17.3,121.1-20.7,183-17.2
			c36.4,2,72.8,4.5,109.2,5C1206.3,2138,1238.5,2124.6,1266.6,2100.8z M1748.7,1816.5c29.8,61.7,95.9,100,174.1,103.3
			c110,4.7,199.3-35.1,272.9-129.2C2043.8,1825.4,1897.4,1818.1,1748.7,1816.5z M1576.8,1274.2c12.8-8.1,16.2-20.2,22.1-30.1
			c93-154.9,225.3-259.3,398.6-311.4c43-12.9,87-21.3,131.8-24.6c11.9-0.9,20-3.4,20.1-16.8c0.1-17.1-12.7-9.9-20.2-9.5
			c-19.6,1-39.2,2.4-58.5,5.7c-221.2,37.7-383.6,156.3-487.6,355.1C1578.8,1251,1570.3,1259,1576.8,1274.2z M1761.5,1333
			c55.8,3.4,57.4,1.7,76.5-43.1c40.2-94.4,109-159.6,209.1-182.3c43.2-9.8,52.4-35.5,64.5-74
			C1950.4,1085.7,1836.1,1183.1,1761.5,1333z M1566.6,734.4c-0.4,24.3,14.5,31.3,40.4,17.2c35.8-19.6,61.9-50.2,88.5-80.2
			c9.8-11.1,18.5-21.8,7.8-36.8c-11.3-15.8-26.4-16.2-42.2-8.6c-30.6,14.7-57.1,35-78.3,61.6
			C1572.3,700.9,1567.5,717.2,1566.6,734.4z M721.1,2197.2c-71.3-16.3-132.6-41.2-198.7-73.3c22.7,44,45.3,78.2,70.2,110.8
			c6.3,8.3,12.7,12.2,23.7,7.3C648.6,2227.6,681.3,2214.1,721.1,2197.2z M2051.2,1156.6c-70,12.1-154,89.4-164.8,150.5
			C1953.8,1270.6,2006.3,1219.8,2051.2,1156.6z"/>
		<path class="st0" d="M1347.6,587.7c42.5-1.7,65.3,13.6,79,40.3c13.4,26.1,11.1,52.8-8.2,76.2c-27.4,33.2-56.4,65-91.8,89.9
			c-37.2,26.3-79.1,30-104.2,10.1c-25.5-20.2-30.8-60.6-13.5-103.8C1230.5,646.2,1307.6,588.1,1347.6,587.7z M1262.9,769.2
			c17.6-0.5,28.4-7.9,39-15.5c28.2-20.2,51.2-45.9,74-71.7c10.1-11.5,16.9-22.4,6-36.9c-10.9-14.5-25.1-14.9-39.9-8.1
			c-31.7,14.6-58.9,35.7-80.4,63.1c-10.5,13.3-14.8,30-15.8,47C1245,761.4,1250,771,1262.9,769.2z"/>
		<path class="st0" d="M858.1,1509.3c-62.9-0.6-110.3-48.4-109.3-110.1c1-59.2,51.2-109.1,110-109.2c60.8-0.2,110.1,49.7,110,111.2
			C968.7,1463.8,921.5,1509.9,858.1,1509.3z M860.1,1463.8c34.3-0.4,62.4-28.3,62.6-62.3c0.2-35.4-28.9-64.4-64.3-63.7
			c-34,0.6-62.4,29-62.9,62.8C795,1435.5,824.3,1464.2,860.1,1463.8z"/>
		<path class="st0" d="M685.4,1543.5c0,9.3-0.8,18.8,0.2,28c2.1,19.2-2.3,28.2-25.1,28c-22.4-0.2-23.7-10.3-23-27.3
			c0.9-22.4,1.2-44.9-0.1-67.2c-1.1-18.1,8.6-19.7,22.4-18.8c12.5,0.8,27.6-3.8,25.8,18.1C684.5,1517.3,685.4,1530.4,685.4,1543.5z"
			/>
		<path class="st0" d="M820.1,1621.1c-7.4,0-15.1-1.1-22.3,0.2c-25.9,4.7-28.6-9.4-27.3-30.1c0.8-12.8,4.1-18.5,17.6-18
			c20.4,0.7,40.9,1,61.3-0.1c17.9-0.9,27,2.8,27,24c-0.1,20-6.5,26.6-25.6,24.3C840.7,1620.1,830.4,1621.1,820.1,1621.1z"/>
		<path class="st0" d="M925.3,1222.3c-8.4,0-16.9-1.1-25.1,0.2c-24,3.9-30.7-6.3-28.5-29.1c1.2-13,4.6-18.1,17.9-17.6
			c20.4,0.8,40.9,0.1,61.4,0.2c28.3,0.1,32.5,6.2,28.2,34.8c-1.6,10.4-6.7,11.6-14.8,11.5C951.4,1222.2,938.4,1222.3,925.3,1222.3z"
			/>
		<path class="st0" d="M596.7,1452.7c-8.4,0-16.9-0.8-25.2,0.2c-17.8,1.9-26.5-1.7-26.5-23.3c0-21.9,9.4-24.4,26.9-23.3
			c17.7,1.1,35.6,1.4,53.2-0.1c18.8-1.6,23.2,5.9,23.4,23.7c0.2,18.6-5.7,25.2-23.8,23C615.5,1451.8,606.1,1452.7,596.7,1452.7z"/>
		<path class="st0" d="M905.5,1588.3c0-7.5,0.6-15-0.1-22.4c-1.5-16.3,1.3-25.4,21.8-25.3c19.8,0.1,26.6,6,24.7,25.5
			c-1.5,14.8-1.4,30,0,44.8c1.6,17.5-5.1,21.6-22,22.1c-19.8,0.6-27.4-5.5-24.5-25.1C906.3,1601.5,905.5,1594.8,905.5,1588.3z"/>
	</g>
</g>
</svg>
