<?xml version="1.0" encoding="utf-8"?>
<!-- Generator: Adobe Illustrator 23.0.0, SVG Export Plug-In . SVG Version: 6.00 Build 0)  -->
<svg version="1.0" xmlns="http://www.w3.org/2000/svg" xmlns:xlink="http://www.w3.org/1999/xlink" x="0px" y="0px"
	 viewBox="0 0 3000 3000" style="enable-background:new 0 0 3000 3000;" xml:space="preserve">
<style type="text/css">
	.st0{opacity:0.47;}
	.st1{stroke:#000000;stroke-width:10;stroke-miterlimit:10;}
</style>
<g id="Layer_1" class="st0">
</g>
<g id="Layer_2">
	<g>
		<path class="st1" d="M1482.7,1511.6c4.9-238.7,38.1-473.6,94.4-705.4c14.9-61.3,30.9-122.5,38.1-185.5c2.5-21.5,3.3-43,2.5-64.6
			c-2.7-69.5-41.2-107-111-108.8c-49.1-1.3-96.5,10.5-144.4,18.9c-61.6,10.9-123.1,23.2-186.1,11.7
			c-77.3-14.2-124.2-62.5-146.4-135.2c-19.6-64.4-16.7-130.6-8.7-196.7c1.1-9.4,5-12.8,15-12c37.4,2.9,37.9,2.6,33.7,41
			c-5.6,50.9-5.6,101.4,8.6,151.1c18.7,65.6,63.9,101.2,131.7,104.8c64.8,3.5,126.9-13.1,189.8-23.8c46.7-7.9,93.5-15.6,140.9-7.1
			c74.5,13.4,120.1,63.5,127,139.1c6.2,68.9-6.6,136-22.6,202.3c-39.6,163.5-75.2,327.8-93,495.4c-17.9,167.7-27.1,335.7-9.2,504
			c7.8,73.4,21.7,145.7,50.4,214.4c4.5,10.9,9.6,21.6,15.1,32c50.9,95.6,117.9,114.2,207.4,103c93.5-11.6,176.8-51.9,258.5-95.7
			c50.3-26.9,98.6-57.4,145.5-89.8c10.8-7.4,17.1-9.8,25.8,4c18,28.7,19,28.1-8.9,46.6c-96.5,63.8-195.9,122.1-305.9,160
			c-45.5,15.7-92.2,25.9-140.5,28.7c-89.8,5.1-159.9-29.4-209.6-104.1c-46.6-69.9-66.9-149.2-80-230.6
			C1484.7,1710.6,1481,1611.3,1482.7,1511.6z"/>
		<path class="st1" d="M1224.8,1882.1c2.8-185.2,18.1-369.2,54.4-551.1c14.4-72.2,40.3-141.5,55.8-213.6
			c23.2-107.9,18.9-215.6,4.7-323.6c-6.9-52.4-15.6-104.5-27.1-156c-2.6-11.7-2.9-20.8,13-20.5c2,0,4-1.2,6-1.7
			c26.6-6.2,27.3-6.4,32.5,20.6c24.5,128.5,47.1,257.2,36.4,388.9c-5.5,67.5-18.6,133.9-39.2,197.9c-31,96.5-48.4,195.5-60.5,295.5
			c-20.2,167.3-31.6,335.1-21.5,503.8c2.3,38.9,7.9,77.4,14.1,115.8c18.9,116.4,136.8,244.2,294.4,263.5
			c123.8,15.2,240.5-12.4,354.6-56.2c126.1-48.4,242.5-113.7,344.1-203.7c9.8-8.6,14.9-8.2,23.4,1.1c23.9,26.1,24.8,26.3-2.6,48.7
			c-162.2,133.1-345.2,222.7-552.7,257.5c-113.4,19-225.7,11.9-327.2-49.8c-106.8-64.8-173.6-157.8-190-284.1
			C1227.3,2037.8,1223.4,1960.1,1224.8,1882.1z"/>
		<path class="st1" d="M2174.5,1729.6c32.5,40.1,32.5,40.1-10.5,67.7c-68.7,44.1-139.3,83.9-220.6,100.7
			c-88.6,18.2-157.1-16.3-192.3-99.7c-25.3-59.9-30.8-123.9-32.9-188c-3.5-107.5,11.4-213.4,26.1-319.7
			c31.1-225.2,101.2-440.7,158.7-659.4c29.4-111.8,30.9-222.5-18.6-330.3c-70.1-152.7-194.1-205.7-352.6-165
			c-46.4,11.9-90.9,29.6-132.2,54.2c-9.8,5.8-13.3,3.1-18.6-5c-20.8-31.6-21-31.3,12-48.9c61.3-32.7,125.8-54.8,195.3-62.1
			c129.5-13.7,232.1,32.1,305.3,139.6c68.7,100.9,91.4,213.4,76.8,334c-13.7,113.2-50.5,220.7-82.2,329.3
			c-52.3,178.6-88.3,360.4-110.2,544.9c-11.6,98.1-17,197,2.4,295.2c4.3,21.8,10.1,43.3,19.1,63.7c26,59.1,67.9,80.7,131.2,67.8
			c69.3-14.2,130.6-46.5,189.7-83.7C2138.5,1753.2,2156.5,1741.3,2174.5,1729.6z"/>
		<path class="st1" d="M1594.4,2647.1c-65.6-1.6-135.7-8.1-203-34.7c-62.3-24.6-105-71.2-145.7-121.2c-26.3-32.4-53.1-64.5-81.4-95
			c-32.6-35.1-69.5-64.5-119.5-70.6c-9.2-1.1-11.5-5.5-10.7-13.9c4.1-44.2-6-43,41.2-32c62.8,14.6,106.8,57.5,147.2,104.3
			c33.6,39,66.2,78.8,99.7,117.9c42,48.9,97.5,74.5,159.6,82.6c251,33,476.4-22.4,665.5-198.4c5.4-5,10.2-17.6,19.1-11.4
			c11.7,8.2,21.4,19.8,30.3,31.2c3.1,4-4.6,7.6-7.8,10.7c-118.5,113.9-257.8,187.1-420.6,214.2
			C1712.4,2640.1,1656.4,2645.5,1594.4,2647.1z"/>
		<path class="st1" d="M1081.6,2512.6c-0.7-9.1-1.1-13.3-1.4-17.5c-3.1-37.8-3.2-37.1,33.8-36.1c13.2,0.4,15.6,5,16.1,17.1
			c2.8,69.1,12.6,136.7,39.8,201.3c45.3,107.4,127.1,168.4,240.1,187.1c148.7,24.6,283.4-18,409.9-93.2
			c69.2-41.2,130.3-92.6,184.4-152.1c11-12.1,17.6-14.9,30.7-2.4c22.1,21.3,23,20.3,1.8,42.7c-116.5,123-253.4,211.6-420.5,248.9
			c-81.2,18.1-162.7,21-243.9,0.7c-155.1-38.7-240.3-143.7-276.4-294.3C1087.3,2579.7,1081.4,2544,1081.6,2512.6z"/>
		<path class="st1" d="M1091,746.2c-0.3-45.1,35.7-81.5,80.3-81.4c43.9,0.2,79.3,35.6,79.7,79.8c0.4,45.2-35.4,81.6-80.2,81.4
			C1127.1,825.8,1091.3,790,1091,746.2z"/>
		<path class="st1" d="M1091,954.8c0.9-44.8,37.6-79.1,83.2-77.8c43.9,1.2,77.7,37.4,76.7,82.1c-1,45.2-37.1,79-83,77.7
			C1124,1035.5,1090.2,999.5,1091,954.8z"/>
		<path class="st1" d="M957.1,1956c0-44.8,34.2-79.6,78.5-79.9c44.1-0.3,81.2,37.1,80.8,81.3c-0.4,43.5-36.8,79.7-80.2,79.9
			C991.3,2037.5,957,2002.2,957.1,1956z"/>
		<path class="st1" d="M1200.2,1233.3c0.2,44.9-36.3,81.4-80.7,80.9c-44.1-0.5-79.1-35.9-79.3-80.1c-0.1-45,36.2-81.6,80.6-81.1
			C1164.6,1153.3,1200.1,1189.3,1200.2,1233.3z"/>
		<path class="st1" d="M1171.7,1493.4c0.4,44.4-34.1,80.3-78,81.1c-45.1,0.8-81.6-34.4-82-79.1c-0.4-45.3,35-81.1,80.1-81.1
			C1136.4,1414.4,1171.2,1449,1171.7,1493.4z"/>
		<path class="st1" d="M1037,1791.9c-45.4,0.3-81.3-35.1-81.3-79.9c0-44.3,34.9-79.4,79.2-79.9c45.1-0.5,81.5,35.2,81.5,79.9
			C1116.3,1755.9,1080.9,1791.6,1037,1791.9z"/>
	</g>
</g>
</svg>
