<?xml version="1.0" encoding="utf-8"?>
<!-- Generator: Adobe Illustrator 23.0.0, SVG Export Plug-In . SVG Version: 6.00 Build 0)  -->
<svg version="1.0" xmlns="http://www.w3.org/2000/svg" xmlns:xlink="http://www.w3.org/1999/xlink" x="0px" y="0px"
	 viewBox="0 0 3000 3000" style="enable-background:new 0 0 3000 3000;" xml:space="preserve">
<style type="text/css">
	.st0{stroke:#000000;stroke-width:10;stroke-miterlimit:10;}
</style>
<g id="Layer_1">
</g>
<g id="Layer_2">
	<g>
		<path class="st0" d="M1407.6,1744.2c285.3,14.1,570.7,16.2,856.2,14.3c132.7-0.9,265.3-5.9,396.9-25.1c5.2-0.8,10.4-1.5,15.6-2.3
			c135.7-21.1,196.5-74.9,212.7-262.5c5-58.2-7.3-115.2-30-169.5c-29.1-69.6-77.1-111.1-156.6-108.7c-80,2.4-160.1,4.1-240.1,4.7
			c-125.3,0.9-250.7,6.2-375.4-11.2c-4.2-0.6-8.4-0.8-12.5-1.6c-90.4-17-119.6-50.2-125.2-141.7c-5.8-95.6-11.4-191.3-18-286.8
			c-1.2-18.1-1.6-29.9,22.3-30.2c20.2-0.3,30.9,2.4,31.9,26c3.8,88.3,9.2,176.6,14.4,264.8c1.4,23,3.7,46.1,6.6,69
			c2.1,16.4,14.5,24.1,28.4,30.8c40,19.4,83.2,21.6,126.1,24.8c165.3,12.1,330.6-1.8,496,0.1c17.9,0.2,35.8,0.6,53.7,0
			c85.7-3,146.3,38.2,182.7,111.8c67.4,136,67.6,273.6-3.1,409.2c-9.1,17.5-13.6,33.4-12.5,53.5c5.5,100.9,8.3,202,13.6,302.9
			c3.8,72.1-28.2,125.8-82.5,168.5c-65.7,51.7-142.9,80-221.6,104.1c-180.2,55.1-364.7,83-552.9,89.8c-300,10.8-600.2,13.5-900.3,19
			c-104.1,1.9-208,13.7-312.4,13.3c-164-0.7-326.1-15.5-483-65.6c-131.6-42-191.8-124.1-194.5-262c-0.9-47.3,1-94.8,4.5-142.1
			c4.5-59.8,10.5-119.5,19-178.8c2.7-18.8-3.2-28.6-15-40.6c-100.1-102.5-119.7-315.9-42.1-436.7c49.6-77.3,127-94.6,209.9-102.1
			c152.4-13.8,304.9-16,457.6-6.9c26.2,1.6,52.7,1.1,79,0.5c72.6-1.6,94.3-18.8,102-90.2c11.7-108.8,19.3-218.1,23-327.6
			c1.3-36.8,6.2-40,40.6-34.3c11.7,1.9,15.7,5.6,14.8,17.9c-8.4,120.7-16.3,241.5-26,362.2c-6.8,84.2-63.6,118.1-136.5,123.2
			c-59,4.1-118,0.5-176.8-1.7c-147.6-5.5-294.7-4.1-440.9,20.1c-57.1,9.5-95.9,42.7-116.6,95.3c-42.9,108.9-32.3,214.2,26,315.2
			c23.2,40.1,58.7,54.4,104.2,58.3c105.3,9,210.6,0.3,315.8,4.4c236.8,9,473.6,16.6,710.4,24.4
			C1333.9,1745.2,1370.8,1744.2,1407.6,1744.2z M1232.2,1795.6c-26-1.5-46.8-3.3-67.6-3.9c-307.3-9.1-614.6-17.7-921.9-27.6
			c-21.7-0.7-23.8,8.7-25.9,25.1c-12.8,100.4-18.8,201.1-19.5,302.3c-0.7,92.3,41.2,154.4,123.7,190.5
			c26.8,11.7,55.2,20.4,83.6,27.9c150.8,39.4,304.8,50.4,460.1,49.6c23-0.1,35.8-7.9,47.3-27.4c67.7-115,136.8-229.2,205.4-343.7
			C1154.9,1925.5,1192.4,1862.5,1232.2,1795.6z M1656.2,2330.7c14.7,8,26.3,4.7,37.4,4.5c102-2.3,204.1-5.2,306.1-7.6
			c172-4.2,341.8-25.3,508-70.4c90.4-24.5,180.2-51.4,258.3-106c44.3-31,75.1-70.2,72.5-128.4c-4.1-88.3-7.7-176.6-11.1-264.9
			c-0.6-14.8-2.6-21.9-19.9-12.7c-53.9,28.6-113.4,37.4-172.8,45.2c-151.7,20-304.4,19-457,20.9c-43.1,0.5-91-9.2-127.9,6.4
			c-38.4,16.2-56.5,65.3-83.1,100.3C1863.4,2054.4,1760.8,2191.6,1656.2,2330.7z M960,2354.2c100.9-3.2,195.3-14.8,290.1-11.8
			c16,0.5,21.7-10.4,28.5-20.9c106.1-164.3,212-328.8,318.6-492.9c11.7-18,12-24.2-12-24.7c-89.5-1.7-179-4.2-268.5-7.5
			c-17.1-0.6-26,4.9-34.6,19.6c-52.8,89.7-106.9,178.5-160.4,267.8C1068.8,2172,1016.1,2260.3,960,2354.2z M1331.4,2339.5
			c75.5,0,146.8-0.9,218.1,0.5c24.6,0.5,40.2-7.6,55-27.5c119.3-160.4,239.7-319.9,359.7-479.8c4-5.3,11.8-9.8,5.7-21.8
			c-10,0-21.3,0.1-32.7,0c-77.9-0.8-155.8-0.9-233.7-3.1c-21.4-0.6-34,5.1-45.8,23.6c-99.1,155-199.4,309.2-299.2,463.7
			C1349.5,2308.9,1341.3,2323.2,1331.4,2339.5z"/>
	</g>
</g>
</svg>
