<?xml version="1.0" encoding="utf-8"?>
<!-- Generator: Adobe Illustrator 23.0.0, SVG Export Plug-In . SVG Version: 6.00 Build 0)  -->
<svg version="1.0" xmlns="http://www.w3.org/2000/svg" xmlns:xlink="http://www.w3.org/1999/xlink" x="0px" y="0px"
	 viewBox="0 0 3000 3000" style="enable-background:new 0 0 3000 3000;" xml:space="preserve">
<style type="text/css">
	.st0{stroke:#000000;stroke-width:10;stroke-miterlimit:10;}
</style>
<g id="Layer_1">
</g>
<g id="Layer_2">
	<g>
		<path class="st0" d="M2245.6,1041c45.7,40.2,87.5,82,122.6,130.3c78.9,108.9,118.9,230.6,119,365.2c0.2,266.1,1.2,532.3-0.3,798.4
			c-1.7,304.4-211.6,553.3-510.5,608.5c-35.6,6.6-71.7,9.6-107.9,9.6c-268.9,0.1-537.8,2.5-806.6-0.9
			c-305.1-3.9-554-223.6-602-525.4c-5.4-33.8-6.4-67.9-6.4-102c0.1-196.5,0-393.1,0.1-589.6c0-72.1-1.5-144.3,0.6-216.3
			c5.5-181.7,78.9-331.8,214.9-451.7c20.5-18.1,20-17.2,2.3-36.6c-97.3-107-170.3-227-190.2-373.1c-18-131.8,16-249.6,100.7-352.8
			c105.6-128.7,247.2-195.9,404.4-235c164.3-40.9,328.2-39.9,490.2,13.1c56.1,18.4,107.8,45.9,154.2,82.6
			c10.2,8.1,19.5,10.1,31.8,7.3c165.5-37.2,333.1-58.2,502.6-63.2c62.3-1.8,124.6-1.4,186.6,9.3c83.6,14.4,132.6,64.1,154.6,143.8
			c8.9,32.4,14.3,65.4,15.8,98.8c6.5,145.2,8.4,290.6,4,435.9c-1.4,44.9-6.6,89.8-18.7,133.4c-30.7,111.3-106,154.6-217.6,124.9
			C2274.8,1051.5,2260.3,1045.9,2245.6,1041z M1470.5,968.5c0-0.1,0-0.2,0-0.3c-126.2,0-252.5,0.3-378.7-0.1
			c-83.4-0.2-164,12.7-241.5,45c-208.2,86.7-348.7,298.3-347,523c0.1,15.5,5,19.4,19.4,20.4c25.1,1.7,50.4,4.3,75,9.2
			c143.8,28.7,243.8,108.9,292.6,249.6c18.5,53.3,31.8,108.4,55.7,159.8c34.1,73.2,88.9,118.6,170.3,130.7
			c86.5,12.9,173.6,16.9,260.7,22.5c142.7,9.3,284.8,11.1,425.3-22.5c61.9-14.8,123.8-29.3,176.7-66.4
			c42.2-29.6,68.7-67.6,64.8-123.8c-7.3-102.4,7.4-202.9,36.4-301c23.5-79.6,74.7-133.6,156.4-155c60-15.7,120.4-12.7,180.5,0.1
			c11.8,2.5,15.6,3.4,13.6-10.9c-37.6-267.9-282.9-480.5-554.9-480.4C1740.7,968.5,1605.6,968.5,1470.5,968.5z M503.8,2059.5
			c0,89.4,0.3,178.7-0.1,268.1c-0.2,34.9,2.7,69.4,8,103.9c40.3,261.8,283.3,470.8,547.9,471.1c11.9,0,17.9-1.5,17.9-16.4
			c-0.6-197.8-0.5-395.7-0.1-593.5c0-10.7-3.2-15.7-13.5-18.4c-101.5-27.3-171.8-93.9-225.5-180.9c-46.7-75.8-81.3-157-109.5-241.4
			c-29.7-88.9-113.6-137.3-206.7-123.5c-14.3,2.1-18.8,7.3-18.7,22.1C504.1,1853.5,503.8,1956.5,503.8,2059.5z M2436.3,1585
			c-85.9,26.6-153.3,72.6-198.7,146.8c-22.5,36.9-33.9,77.7-20.6,121.3c20.4,67.6,11.2,132.1-26.1,190.4
			c-70.4,110.1-167.4,189.2-291.1,233.4c-17,6.1-22.5,12.9-21.8,31.3c4.1,118.6,6.6,237.3,9.7,355.9c1.9,73,4.1,145.9,5.6,218.9
			c0.3,14,4.5,19.7,19.1,17.4c22.2-3.5,44.7-5,66.8-9c257.3-46.2,457.2-285.3,457.2-546.5c0-244.3,0-488.5,0-732.8
			C2436.3,1604.2,2436.3,1596,2436.3,1585z M1552.8,918.2c45.7,0,87.3-0.6,128.8,0.3c14.2,0.3,21.4-4,27.5-17.2
			c49.3-107.8,74.9-220.3,68.1-339.2c-10.7-189.1-111.9-361-312.9-430.3c-132.6-45.7-268.4-51.3-405.6-26.8
			C927.5,128.5,805,174.4,699.6,258.1c-140.1,111.3-199.8,254.9-161.8,432C564.3,814.1,633,916.3,718.4,1008
			c6.4,6.8,11.2,15.8,22.8,6c12.1-10.3-0.1-15.9-3.8-21.7c-59.3-92.1-92.6-192.2-95.8-302.1c-6.2-218,119.7-393.5,323.2-445.6
			c123.8-31.7,247.2-22,369.3,13c79.3,22.7,152.3,57.1,209.2,118.2c96.5,103.7,117,227.2,88.3,361.9
			C1618,801.5,1590.6,859.9,1552.8,918.2z M1328.3,381.9c-104.9-38.6-207.7-45.1-312.2-10c-75.5,25.3-142.5,62.9-187.8,130.4
			c-94.6,140.9-56.3,322.4,57.1,433.4c7.9,7.7,14.8,6.4,23.9,4c56.3-15,113.7-21.7,171.9-21.5c105.7,0.2,211.4-0.4,317,0.5
			c20.4,0.2,30.2-9.4,38.7-25.3c-129.9-41.9-201.7-112-222.7-224.2C1192.3,552.2,1234.5,458,1328.3,381.9z M1667.5,2613.6
			c0-90.7,0-181.5-0.1-272.2c0-8.9,3.5-19.2-13.6-17c-108.5,13.8-216.5,4.6-324.2-8.7c-17.8-2.2-23.2,1.2-23.7,20.1
			c-1.6,62-5.3,124-8.5,185.9c-6.3,120.5-12.7,241-19.6,361.5c-0.9,14.9,2.4,20,18.4,19.9c117.3-0.7,234.7-0.8,352,0
			c17.5,0.1,19.7-6.7,19.6-21.5C1667.2,2792.3,1667.5,2702.9,1667.5,2613.6z M1520.5,2281.3c101.2-0.1,188-13.8,274.8-28.6
			c151.4-25.8,266-107.6,351.3-232.2c29.2-42.6,39.6-91.7,24.6-142.6c-20.1-68.1-6.3-130.2,32.7-186.6
			c53.9-78.1,128.3-128.7,219.6-154.4c6.8-1.9,13.1-2.7,13-12.4c-0.1-9.3-5.7-11-12.8-12.6c-40.7-9.2-81.8-14.1-123.5-12.1
			c-88.7,4.3-149,49.1-172.4,131.1c-27,94.3-40.9,190.5-33.6,289c2.7,36.9-7.1,70.1-27.4,100.6c-33.7,50.5-82.3,81.1-137.8,101.3
			c-98.7,36-201.5,55.6-305.7,60.6c-165.2,7.9-329.8-6.9-494.1-23.6c-117.6-12-195.8-75.8-238.1-184.6c-12.1-31.1-21.2-63.3-31.6-95
			c-19.4-59.1-39.5-117.7-83.3-164.5c-65.2-69.7-148.3-98.8-240.6-107.8c-31.7-3.1-31.7-3.3-31.7,29.2c0,9.6,0.7,19.2-0.2,28.6
			c-1.2,12.8,2.7,16,16,14.2c119-15.8,221.5,47.5,258.6,161.3c25.7,78.7,58.9,153.7,101.5,224.8c53.4,89.2,127.1,150.4,231.3,170.2
			c30.8,5.9,61.6,11.5,92.7,15.6C1313.1,2264.8,1422.8,2277.7,1520.5,2281.3z M2459.9,912.3c12.2-53.5,15.7-102.5,17-151.4
			c3.6-128.9,0.3-257.8-4.3-386.6c-1.3-35.4-7-70.4-16.2-104.8c-4.1-15.4-9.6-20.3-26.3-13.5c-154.5,62.8-253.9,174-297.6,335.1
			c-3.9,14.3-1.1,19.6,12.3,25.6c89.8,39.9,167,97.1,230.9,172C2407.1,825.4,2434.6,865.1,2459.9,912.3z M2337.2,1013.5
			c37.3,1.2,62.5-4.2,83.9-23.1c10.7-9.4,13-18.3,6.2-31.9c-25.5-50.8-55.3-98.8-93.1-141.2c-129.6-145.5-294-210.6-487-208.8
			c-13.3,0.1-19.4,4-19.5,18.5c-0.2,32.1-3.7,64-10.1,95.4c-2.9,13.9,0.4,17.6,14.2,17.8c46.5,0.6,91.9,8,136.1,23.5
			c73.2,25.9,125.5,76.9,171.1,137.3C2191,969.8,2262.8,1003.6,2337.2,1013.5z M1127.4,2595.5c0,95.5,0.3,191-0.3,286.5
			c-0.1,15.4,3.2,22.4,20.3,21.1c19-1.5,38.3-1.7,57.2,0c19.6,1.9,23.3-6.4,24.2-24.2c5.6-123.2,12.4-246.4,18.7-369.7
			c3.1-60.6,5.8-121.2,9.7-181.8c1-16-3.8-20.8-19.7-22.1c-29.8-2.4-59.8-6-89-12.4c-20.7-4.5-21.6,3.7-21.5,20.1
			C1127.7,2407.3,1127.4,2501.4,1127.4,2595.5z M1836.3,2600.9c-0.6,0-1.2,0-1.9,0c0-15.7,0.3-31.3-0.1-47
			c-1.9-78.3-4.4-156.6-5.9-235c-0.3-16.2-2.5-23.1-21.6-18c-24.2,6.5-49.4,9.8-74.4,12.9c-11.7,1.5-14.7,6.5-14.5,17.1
			c0.5,22.5,0.1,45,0.1,67.5c0,160.8,0.2,321.6-0.3,482.5c-0.1,16.3,3.5,23.1,21.3,22.2c28.5-1.4,57.2-1,85.8-0.1
			c13.9,0.4,18.5-3,18.1-18.1C1840.2,2790.3,1838.4,2695.6,1836.3,2600.9z M840.6,961.9c-39-42.1-68.8-88.1-88.9-140.3
			c-74.4-193.2,7.7-394.3,196.1-477.6c111-49.1,225.8-58.2,343.3-27.1c81.8,21.7,153.7,60.3,206.6,128
			c100.2,128.3,100.9,308.7,3.1,450.7c-3.8,5.5-9.8,10.2-9.5,20.6c17.2-20.5,29.8-40.7,41.3-61.5c49.7-89.8,73.9-185.1,54.4-287.3
			c-24.7-129.4-109.3-206.9-228.9-249.5c-108.8-38.8-220.9-53-335.8-34.1c-141.7,23.3-245.4,96.7-301,231.7
			C696.8,575.2,689,637.9,692.2,702c5,100,38,190.5,94.2,272.8c3.6,5.3,6.7,9.9,14.6,5.7C813.5,974,826.5,968.4,840.6,961.9z
			 M2419,206.8c-3.7-9.2-10.2-13.2-16.3-17c-40-24.4-85.1-26.5-130.1-29.2c-6.2-0.4-9.9,4.1-13.9,7.7
			c-120,108.6-212.4,237.1-277.2,385.4c-4.7,10.8-2.3,14.4,8.6,15.9c24.4,3.3,48.4,8.7,71.4,17c15.5,5.6,20.2,2,24.4-13.9
			c38-141.6,120.3-250.1,246.4-325.3C2359.8,231.1,2388.9,218.2,2419,206.8z M1817.7,468.8c50.3-107.4,112.8-206.4,191.4-299.6
			c-109.7,10.4-214.1,25.1-320.1,49.1C1756,291.9,1795.6,375.2,1817.7,468.8z M2191.2,163.2c-36.1,0-69.8-0.2-103.5,0.1
			c-7.5,0.1-11.7,6.5-16.2,11.5c-98.5,108.7-174.5,231.3-227.6,368.1c-1.7,4.5-6.1,9.2-0.7,17.1c20.5,0,42.4-1.5,64,0.5
			c13.6,1.3,19-3.1,23.9-15c17.5-42.9,38-84.5,61-124.7C2046.2,326.2,2111.7,240.2,2191.2,163.2z M2138.1,978.2
			c-17.9-21.1-36.2-41.4-52.4-63.3c-65.6-89.3-156.2-125.7-264.3-124.4c-7.2,0.1-17.2-4.4-20.5,7.4c-11.5,40.5-26.8,79.6-44,121.3
			C1889.5,914.1,2017.8,918.3,2138.1,978.2z M1438.5,453.8c-12.3-14.9-27.7-23.9-41.2-35.2c-10.8-9.1-19.5-8.2-30.7-0.4
			c-80.7,56.1-118.7,132.8-104.6,230.3c13.5,93.2,68.7,156.8,157.6,186.2c59.9,19.8,51.8,19.9,77.4-38.3c0.5-1.1,0.1-2.6,0.1-3.9
			c-106.1-11.6-168.7-58.7-183.8-138.4C1298.3,575.1,1342.7,503.2,1438.5,453.8z M1523.4,671.4c-0.1-60.4-13.4-111.9-40.4-159.9
			c-3.8-6.8-6-14.2-17.9-12c-58.9,10.6-111.8,83.3-103.5,141.6c9.1,64,79.3,105.1,141.9,100c10.7-0.9,13.7-7.3,14.8-16
			C1520.8,705.5,1524.4,686,1523.4,671.4z"/>
		<path class="st0" d="M1440,1615.1c39.9,21.5,53.5,46.3,45,76.7c-7.5,26.8-31,43.1-61.5,42.7c-25.9-0.4-49.5-20.2-55-46.2
			c-6.4-30,8.1-54.6,46.3-73c-91.6-1.9-179.2-2.8-265.5-40.1c14,26.5,19.1,50,3.9,73.6c-9,13.9-21.5,23-37.5,26.4
			c-33.7,7.3-66.5-14.7-71.8-47.3c-6.4-39.6,18.1-67.2,63.6-71.8c-0.3-1.2-0.1-3-0.8-3.6c-92.9-69.1-119.5-163.6-102-273.3
			c15.2-95,60.9-175.6,123.4-247.5c6.8-7.8,12-10.1,19.3-1.3c3.5,4.2,7.5,8.1,12,11.1c14.5,10,11.8,18.2,1.1,30.7
			c-60.5,70.3-101,149.8-109.7,243.8c-9.6,104.5,40.9,185.2,139.5,221.5c61.9,22.7,126.6,27.4,191.4,27.1
			c98.8-0.4,198.1,0.5,295.5-19.8c64.2-13.4,125.2-35.2,169.4-87.5c56.9-67.2,66.6-146,51.8-229.3c-10.3-58-31.9-112.3-59.9-163.9
			c-5.2-9.6-5.4-14,4.7-20.5c28.9-18.3,28.8-19,45.6,11.8c44.1,80.5,70,166,64.7,258.4c-6.8,119.4-66.7,203.4-175.8,252.1
			c-71.7,32-148.3,40-225.4,44.5C1516.2,1612.1,1480.1,1613.3,1440,1615.1z"/>
		<path class="st0" d="M1505.5,1470.8c67.3-4.4,129.8-10.2,188.4-35.2c83.8-35.8,118.4-105.1,97.6-193.9
			c-12.6-53.7-38.9-100.3-75.4-141c-11.2-12.5-10.3-19.7,2-28.8c4.9-3.6,9.1-8.2,13.3-12.7c4.9-5.3,9.2-7.3,15-0.6
			c68.6,79.2,115.5,166.6,95.7,275.7c-12.4,68.1-56.5,113.4-117.5,142.9c-57.5,27.8-119.5,36.8-182.4,40.8
			c-75.6,4.9-151,9.4-226.7-1.6c-95.3-13.8-163.3-67.4-183.6-148.8c-13.5-54.1-6.1-107,12.8-158.7c20.2-55.3,52.7-102.8,93.1-145.4
			c9.8-10.4,16.9-11.9,25.6,0.1c2.8,3.8,6.2,7.4,9.9,10.3c11.2,8.6,10.5,15.3,0.3,25.6c-43.8,44.5-75.7,96.3-91.1,157.4
			c-28.2,112.2,24.6,192.3,138.7,209.3c26.2,3.9,52.9,5.3,79.4,7.1c14.8,1,27.4,1.3,39.4-14c13.1-16.6,33.5-27.6,47.8-44.3
			c86.3-100.9,93.8-211.8,41.6-330.1c-0.8-1.9-1.8-3.7-2.7-5.5c-14.4-29.5-13.8-28.6,13.4-46.4c13.7-9,17.8-3,23.6,7.9
			c77.3,144.9,62.8,304.8-49.5,419.3C1512,1462.4,1510.1,1465.1,1505.5,1470.8z"/>
		<path class="st0" d="M1929.3,1937c0.3,33-25.4,60-58.2,61c-33.1,1-61.3-26.8-61.2-60.3c0.1-32.7,26.9-59.7,59.5-60
			C1901.9,1877.4,1929,1904.2,1929.3,1937z"/>
		<path class="st0" d="M1811.6,1648.3c0.2,33.1-25.9,59.7-58.9,60.1c-33.2,0.4-61.8-27.8-61.3-60.5c0.5-32.7,27.5-58.9,60.6-58.9
			C1785.3,1589.1,1811.4,1615,1811.6,1648.3z"/>
		<path class="st0" d="M983.8,1938.1c-33.8-0.1-58.9-25.5-58.7-59.2c0.2-32.9,26.9-59.7,59.6-59.8c33.3-0.1,60.4,27.9,59.8,61.7
			C1043.8,1914.2,1018.4,1938.3,983.8,1938.1z"/>
		<path class="st0" d="M1486.9,2054.3c-0.4,32.9-27.3,59.6-59.9,59.4c-33.3-0.2-60.2-28.2-59.4-62c0.8-33.4,26.3-57.3,61-57.1
			C1462.1,1994.8,1487.2,2020.5,1486.9,2054.3z"/>
		<path class="st0" d="M1103.3,1761.5c0,33-26.4,59.8-59.2,60.1c-32.3,0.3-60-26.6-60.7-59c-0.7-32.9,27.6-61.5,60.6-61.2
			C1076.8,1701.6,1103.3,1728.4,1103.3,1761.5z"/>
		<path class="st0" d="M1428.4,1761.4c33.5,0.2,58.8,26,58.5,59.7c-0.3,33.1-26.8,59.3-59.8,59.3c-32.9-0.1-59.4-26.6-59.6-59.6
			C1367.3,1786.4,1393.2,1761.1,1428.4,1761.4z"/>
		<path class="st0" d="M1751.3,1761.8c-0.1-33,26-59.9,58.7-60.5c32.9-0.6,61.6,28,61.2,60.8c-0.4,32.3-28,59.4-60.4,59.5
			C1778.1,1821.6,1751.4,1794.8,1751.3,1761.8z"/>
		<path class="st0" d="M1142,467.6c0.1-24,18.7-43.1,42.5-43.6c24.1-0.5,44.3,19.7,44.2,44.1c-0.1,23.6-19.3,43.1-42.7,43.6
			C1161.6,512.3,1141.8,492.5,1142,467.6z"/>
		<path class="st0" d="M1101.3,669c-24.3-0.1-42.2-18.5-42-43c0.2-23.8,19.1-43,42.6-43.5c23.9-0.4,44.7,20.2,44.5,44
			C1146.3,651.1,1127,669.2,1101.3,669z"/>
		<path class="st0" d="M1162.5,766.5c-0.1,24.1-20.9,44.1-45.1,43.4c-23.9-0.7-42.3-19.8-42.1-43.8c0.1-23.6,19.2-43.2,42.6-43.7
			C1141.7,722,1162.6,742.6,1162.5,766.5z"/>
		<path class="st0" d="M1228.3,915.3c-24.5,0.2-45-19.9-44.7-43.8c0.3-22.7,20.8-43,43.7-43.3c23.9-0.4,44.4,20.3,44.1,44.4
			C1271.1,896.6,1252.5,915.1,1228.3,915.3z"/>
	</g>
</g>
</svg>
