<?xml version="1.0" encoding="utf-8"?>
<!-- Generator: Adobe Illustrator 23.0.0, SVG Export Plug-In . SVG Version: 6.00 Build 0)  -->
<svg version="1.0" xmlns="http://www.w3.org/2000/svg" xmlns:xlink="http://www.w3.org/1999/xlink" x="0px" y="0px"
	 viewBox="0 0 3000 3000" style="enable-background:new 0 0 3000 3000;" xml:space="preserve">
<style type="text/css">
	.st0{stroke:#000000;stroke-width:10;stroke-miterlimit:10;}
</style>
<g id="Layer_1">
</g>
<g id="Layer_2">
	<g>
		<path class="st0" d="M1126.7,707.1c23.7-19.1,45.1-34.9,69.8-45.8c65.2-29,153-21.7,192.5,67.8c52.3,118.5,77.1,241.9,73.2,371.2
			c-2.7,89-17,177.1-22.1,266c-3.6,63.2-2.1,126,15.6,187.2c23.9,82.7,74.6,144.2,150.4,184.9c87.4,46.9,182.8,61.6,280,68.9
			c21.6,1.6,43.4,2.6,65.1,3.2c9.1,0.2,12.3,3.1,12.7,12.6c1.8,41.1,1.5,41.9-40.1,39.9c-19.5-0.9-39.1-1.9-58.5-3.9
			c-11.7-1.2-15,2.9-14.8,14.2c0.6,28.9,0.6,57.9,0,86.8c-0.2,10.5,3.7,15,13.4,18.6c31.8,11.8,63,25.3,94.8,37.1
			c11.2,4.2,13.8,8.8,9.2,19.9c-14.6,35.6-14.4,36-49.7,21.2c-179-74.7-365.7-117.3-558.9-130.8c-61.3-4.3-122.8-6.3-184.4-2.9
			c-13.9,0.8-22.2,5.7-29.8,16.9c-68.5,100-108.7,210.1-119.1,330.8c-6.8,79.2-12,158.2-2,238.1c23.8,189.9,172.5,337.2,357.3,379.9
			c137.6,31.8,263.7,0.5,381.1-73.6c22.8-14.4,42.6-32.6,57.3-55.5c17.5-27.1,15.8-48.5-4.6-73.3c-21.3-25.8-50-41-78.8-56.4
			c-12.5-6.7-13.2,2-14.2,9.9c-3.3,24.5-10,48.1-18.5,71.2c-17.7,47.9-49.8,76.2-102.7,79.3c-35.7,2.1-71,1.1-105.8-6.1
			c-50.9-10.4-92.4-37.8-116.3-83.3c-61.5-117.1-91.4-240.5-57.8-372.4c30-117.6,150.2-212.9,271.7-217.2
			c123-4.4,239.4,24.9,352.4,70.7c10.3,4.2,12.5,8.2,8.2,19.1c-14.3,35.8-13.8,36.1-48.5,22.4c-91.6-36.2-186.3-56.9-284.9-60.3
			c-120.1-4.1-254.6,88.9-259.5,250.4c-2.6,86.4,19.3,167.6,55.3,245.2c19.5,42,52.7,68,99.5,75c29.2,4.4,58.5,5.9,88,2.8
			c22.1-2.3,37.6-13.8,46.4-34.2c11-25.4,17.3-52,21.8-79.2c2-12.4-5.7-16.6-12.9-22.4c-37.3-29.9-66.6-66.2-86.4-109.8
			c-14.5-31.9-18.8-65.4-11-99.6c11.4-50.4,64.3-79.1,127.7-70.6c39.5,5.3,77.8,15.3,114.9,29.9c39,15.4,79.5,26.3,119.9,37.4
			c11.7,3.2,14.5,6.7,11.4,19.2c-9.4,37.1-8.4,36.2-45.7,26.9c-60.4-15-116.7-42.8-177.7-55.6c-21.8-4.6-43.9-8.8-66.6-3.2
			c-20,5-31.2,16.1-33.4,37.1c-5.2,49.6,22.5,85,51.1,120c10.6,13,24.7,20.7,41,26.4c50.8,17.7,99,40.6,138.8,78.1
			c53.1,50.1,56.9,114.3,8.8,169.7c-52.5,60.6-122.2,93.8-196.4,118.5c-262.2,87.4-550.6-41.1-652.4-289.9
			c-22.5-55-33.4-112.7-36.1-171.1c-4.8-102.1,1.2-203.9,23.9-304c23.6-103.9,69.4-197.4,134.4-281.6c8.2-10.6,9.7-18.1,3.1-30.4
			c-71-131.6-92.1-273-77.9-420.3c20.7-213.9,39.9-427.9,36.8-643.2c-0.2-16.7-2.7-32.6-7.6-48.6c-11.4-37.2-13.4-75.6-8.5-113.9
			c1.7-13.5,0.3-25.1-4-37.6c-37.3-109.4-38.1-217.8,17.4-321.5c60.2-112.5,156.1-179.5,281.2-199.9c63.3-10.3,127.1,1,188.5,20.2
			c106.6,33.3,204.6,83.2,291.6,154c118.5,96.4,165.1,222.2,155.6,372.3c-6.9,108.3-39.2,211.4-61,316.7
			c-18.2,88.4-29.3,176.9-2.7,266.1c19.9,66.6,52.5,123.6,114,160.1c5.9,3.5,8.2,6.3,4.3,13.2c-25.2,44.7-14.2,47.4-56.9,15.1
			c-78.2-58.9-112.8-142.7-125.9-236.7c-13.3-95.7,5-188.7,26.8-281.2c8.7-36.9,8.6-37-28.8-37c-55.7,0-111.5,0-167.2,0
			c-8.7,0-16.5-1.3-18,12.1c-8,72.5-27.7,143.3-32.2,216.4c-6.7,108.1-5.9,215.7,24.7,320.7c26.2,90,73.4,165,159.3,209.8
			c36.6,19.1,75.7,28.8,117.2,24.4c10.2-1.1,13.1,0.6,15.4,10.8c9.6,41.4,7.7,45.2-34.3,43.4c-109.1-4.5-190.1-58.5-250.3-146.3
			c-50.8-74.1-72-158.8-81.9-246.6c-15.2-134.3-4.5-267.1,24-398.8c45.2-208.7-112.1-355.6-241.3-382.5
			c-53.4-11.1-106.4-10.2-158.6,6.5c-72.6,23.2-116.6,103.2-104.5,189.1C1123.7,691.5,1125,697.8,1126.7,707.1z M1104.6,526
			c5.4-6.5,8.6-10.2,11.7-14c35.4-43.5,81.6-68.8,136.4-77.4c111.6-17.4,212.3,7.7,299.6,81.1c7.9,6.7,16,12.1,26.4,13.7
			c120.8,18.3,233.3-3.6,337.7-67.6c13.7-8.4,14.5-16.5,9.3-30c-20.1-52.4-51.4-96.9-92.8-134.3c-87.4-78.9-189.6-131.6-301.8-164.9
			c-58.6-17.4-119.7-29.2-179.7-12.8c-139.9,38.2-229.6,126.2-253.8,272.9C1090.3,436.1,1093.3,479.8,1104.6,526z M1242.7,1459.9
			c-41.9,0-83.8,0.3-125.7-0.2c-11.1-0.1-16.8,1.7-17.4,15c-5.3,114.7,14.3,224.2,64,328.2c8.4,17.5,13.9,15.7,24.6,3.3
			c7.5-8.7,16.7-16,25.2-23.7c61-55.1,128.9-99.8,203.3-134.8c6.6-3.1,19.4-3.3,12.2-16.9c-25.6-48.9-36.1-101.8-40.8-156.1
			c-1.1-12.3-5.9-15.1-17.4-15C1327.9,1460.3,1285.3,1459.9,1242.7,1459.9z M1244.5,1407.1c31.8,0,63.6,0,95.4,0
			c44.6,0,43.7-0.1,47.2-44.2c4.3-55.4,10.5-110.7,15.4-166.1c0.8-8.7,6.6-21.2-11.5-21.2c-83.8,0.3-167.6,0.2-251.5,0
			c-10,0-13.4,3.6-14.3,13.8c-6,66.8-12.3,133.7-19.6,200.4c-1.5,13.8,1.6,17.7,15.4,17.5
			C1162.2,1406.7,1203.4,1407.1,1244.5,1407.1z M1268.5,1122c39,0,78.1-1.2,117.1,0.5c18.7,0.8,22.8-6.1,23.1-22.8
			c1.1-50-1.1-99.6-8.6-149.1c-2-12.9-6.3-16.7-19-16.5c-75.2,1.5-150.3,2.5-225.5,3c-12.6,0.1-17.3,3.1-17.7,16.8
			c-1.6,50.5-4.2,101.1-7.6,151.5c-1,14.4,4.2,16.9,16.8,16.8C1187.6,1121.6,1228.1,1122,1268.5,1122z M1261.2,883.6
			c0-0.7,0-1.3,0-2c36.9,0,73.8,0,110.6,0c7.7,0,14.5,0.5,11.2-11.5c-13-46.7-27.5-92.9-51.5-135.2c-13.5-23.8-34.8-34.9-62.8-35.3
			c-53.7-0.6-89.2,32.4-125.2,65.1c-4.9,4.4-4,10.5-4,16.3c-0.1,28.9,0.3,57.9-0.7,86.8c-0.4,12.6,3.9,16.2,16,16
			C1190.3,883.2,1225.7,883.6,1261.2,883.6z M1201.7,1868.3c21.8,0,37.6-0.3,53.5,0.1c62.9,1.6,125.7,4.3,188.2,11.8
			c7.9,1,20,6.5,20-10.4c-0.1-60.5-0.1-120.9-0.1-184.4C1363.2,1728.3,1278.6,1787.6,1201.7,1868.3z M1620.7,587.7
			c11.1,19.2,20.6,35.2,29.5,51.5c4,7.2,10.3,6.9,16.8,6.9c87.5,0,174.9-0.1,262.4,0.1c10.4,0,16-2.9,16.6-14.4
			c2-36.8,4.6-73.5,0.5-110.4c-1.4-12.4-5.3-12.6-14.7-7.1C1837,570.2,1734.5,594.3,1620.7,587.7z M1936,701.5
			c-4.3-0.7-7.1-1.5-9.9-1.5c-78.7-0.1-157.5,0.3-236.2-0.4c-14.4-0.1-14.7,5.3-12,16.5c3.4,14,6.3,28.2,7.5,42.5
			c1,10.7,4.2,15.1,15.6,15c68.6-0.4,137.3-0.4,205.9,0c9.6,0.1,14.8-2.9,16.6-12.4C1927.5,741.5,1931.7,721.8,1936,701.5z
			 M1516.3,1741.5c0,49.7,0.3,94.2-0.2,138.7c-0.1,11.2,7.7,10.4,14.3,11.7c38.2,7.6,76.4,14.6,114.5,22.6
			c10.3,2.1,14.5,0.3,14.3-11c-0.5-23.8-0.5-47.6,0-71.4c0.2-9.5-3.5-13.9-12.3-17.2C1601.4,1797.9,1558.2,1776.5,1516.3,1741.5z
			 M1797.5,1906.3c0-13.8-0.9-24.7,0.2-35.5c1.5-14.2-3-20.8-18-22.4c-18.6-2-37-6.4-55.3-10.3c-9.5-2-13.1,0.7-12.7,10.7
			c0.6,14.4,0.1,28.9,0.1,43.4c0,38.4-0.1,38.8,35.9,48.4c15.8,4.2,35.8,18.3,46.4,10.3C1804.8,1942.8,1796.1,1919.8,1797.5,1906.3z
			"/>
	</g>
</g>
</svg>
