<?xml version="1.0" encoding="utf-8"?>
<!-- Generator: Adobe Illustrator 23.0.0, SVG Export Plug-In . SVG Version: 6.00 Build 0)  -->
<svg version="1.0" xmlns="http://www.w3.org/2000/svg" xmlns:xlink="http://www.w3.org/1999/xlink" x="0px" y="0px"
	 viewBox="0 0 3000 3000" style="enable-background:new 0 0 3000 3000;" xml:space="preserve">
<style type="text/css">
	.st0{stroke:#000000;stroke-width:10;stroke-miterlimit:10;}
</style>
<g id="Layer_1">
</g>
<g id="Layer_2">
	<g>
		<path class="st0" d="M1266.7,2777.1c-206.6,1.7-402.2-28.7-582-130c-235.1-132.3-391.6-331.3-483.2-581.4
			C17,1562.2,92.1,1097.2,425.7,678.4c207.9-261,485.4-413.6,810.7-477.3c220.8-43.2,444.6-62.6,669.3-41.7
			c422.8,39.3,734.6,296.8,862.8,706.4c57,182.2,78.4,368.8,74.7,559c-3.2,165.3-20.3,328.8-70.5,486.7
			c-93.2,292.8-282.3,506.6-549.3,653.5c-190.1,104.5-395.6,160.9-609.7,188.4C1497.3,2768.4,1380.2,2773.6,1266.7,2777.1z
			 M2312,2449.2c12.6-8.1,18.5-11.6,24.1-15.6c108.3-77.3,197.2-172.9,269.5-284.2c93.7-144.2,143.2-303.3,166.6-472.8
			c34-247,30.2-491.7-34.3-733.5c-53.1-199.3-145.7-376-303.7-513.7c-7.7-6.7-13.4-18.3-27.6-16c-0.7,5.3-1.2,10.3-1.9,15.2
			c-34,246.5-149.8,442.2-365.2,571.3c-171.3,102.7-358.6,134.6-556.4,110.2c-341.6-42-594.8-278.4-604.1-647
			c-0.7-27.9-0.1-55.8-0.1-83.7c-1.1,0-3.3-0.6-4.8,0.1c-6.5,2.9-12.8,6-19.1,9.3C698.5,470.4,565.5,581.4,457,719.6
			c-218.8,278.6-329.6,592.5-295.8,950.2c21.6,229.1,89.6,442.5,220.1,634c88.7,130.2,203.1,231.9,341.6,307
			c17,9.2,23.9,11.6,27.9-12.8c19.2-116,27.6-232.9,26.3-350.1c-2-189.8-29-376.4-84-558.3c-7.5-24.8,3.6-26.8,20.9-34.2
			c23.4-10.1,24.3,5.2,28.4,19.4c37.4,131.2,62.9,264.4,76,400.4c17.1,178.1,10.4,355-18.8,531.2c-4.6,27.8-3.4,46,28.7,52.9
			c22.5,4.8,43.9,14.9,66.1,21.7c195.6,59.9,395.7,46.1,595.6,35.9c15.4-0.8,20.9-9.1,22.3-23c3-28.1,7.1-56.1,9.8-84.3
			c17.5-182.8,15.5-365.2-14-546.8c-21.8-133.8-53.5-265.1-100.1-392.5c-8.9-24.3,7.3-24.5,20-30.6c14-6.8,22.1-5.7,28.4,12.1
			c68,191.2,109.4,388.2,122.9,590.4c9.9,148.3,6.9,296.9-16.2,444.4c-3,19,2.9,21.2,20.6,19.5c73.6-6.8,145.8-21.2,217.6-37.6
			c152.4-34.8,297.8-88.3,433.1-167.5c12.7-7.4,22.4-14.6,24.3-31.5c19.6-177.9,16.1-355.1-14.8-531.5
			c-16.7-95.6-40-189.6-72.2-281.1c-7-19.8-0.8-26.5,17.2-32.6c16.4-5.5,24-5.9,30.6,13.6c59.7,177,94.3,358.6,100.4,545.4
			C2322.9,2269.7,2320.6,2356.3,2312,2449.2z M2241.9,736.7c1.3-8-3.1-11.1-6.9-14.2c-38.6-30.8-77.6-61.3-116-92.4
			c-11.2-9.1-16.9-4-24.6,4.8c-36,40.9-72.1,81.8-109.3,121.5c-12,12.8-8.7,18.9,3.3,28c37.8,28.6,75.2,57.8,112.1,87.5
			c11.9,9.6,20,8.6,30.8-1.8c38.7-37.3,73.9-77.4,103.5-122.2C2237.7,743.8,2240.2,739.5,2241.9,736.7z M1777,618.6
			c3.3-2.3,6.9-4.1,9.6-6.8c42.5-41.8,84.6-84,127.4-125.6c9.9-9.6,5.2-14.8-3-21.3c-30.2-23.7-60.5-47.2-89.9-71.8
			c-11.4-9.5-18.1-6.3-27.4,2.7c-41.5,39.9-83.5,79.3-125.7,118.5c-8.4,7.8-10.3,12.3,0.6,20.4c33.1,24.8,65.2,50.9,97.8,76.5
			C1769.5,613.7,1772.9,615.8,1777,618.6z M1427,414.1c-8.4-7.7-12.4-11.9-16.8-15.4c-26.2-20.5-53.2-39.9-78.3-61.5
			c-13.1-11.2-21-8.9-32.8,1.5c-43.2,37.8-87.1,74.7-131.1,111.6c-9.4,7.9-14,13.1-0.4,21.9c32.1,20.8,63.6,42.5,94.8,64.6
			c10.3,7.3,17.1,5.7,25.9-2.4c40.9-37.4,82.3-74.3,123.6-111.1C1415.5,419.7,1420.5,417.8,1427,414.1z M1768.5,356.8
			c-7.1-8.8-8.6-11.5-10.7-13.2c-29.2-23.3-58.7-46.2-87.7-69.8c-8.9-7.2-14.1-2.3-20.3,3.3c-43.5,39.2-86.9,78.7-130.9,117.3
			c-11.5,10.1-11.4,16.1,1,25.2c27.6,20.4,54.7,41.5,81.2,63.3c10.9,8.9,17.9,8.5,28-1.3c40.5-39.5,81.8-78.2,123.1-116.9
			C1756.4,360.6,1763.2,359.2,1768.5,356.8z M2064.6,590.2c-2.7-3.4-4.2-6.1-6.4-7.9c-28.3-22.6-56.9-44.9-84.9-67.9
			c-9.4-7.8-14.3-1.7-20,4c-40.8,40.4-81.4,81-122.6,121c-9.8,9.5-9.3,15.4,1.6,23.4c29.1,21.6,58.2,43.3,86,66.5
			c12.3,10.2,18.3,5.9,26.8-3.7c35.4-40,71.3-79.4,106.9-119.2C2056.4,601.4,2060.3,595.7,2064.6,590.2z M1578.4,534.5
			c-5.3-6.9-7.1-10.5-10-12.8c-31-24.2-62.3-47.9-93-72.5c-10.8-8.7-16.1-0.7-22.6,5c-39.8,35.7-79.3,71.8-119.6,106.9
			c-11.2,9.7-12.4,15.3,0.7,23.9c31.2,20.4,62.2,41.2,92.4,63c12.4,8.9,20.5,7.4,31-2.9c34.6-33.9,70-66.9,105.3-100.1
			C1567.1,540.9,1572.8,538.2,1578.4,534.5z M1485.9,687.6c41.1,28.1,79.6,54,117.5,80.7c11.4,8,18.4,6.3,27.9-3.3
			c31.9-32.4,64.3-64.2,97.5-95.3c11.9-11.1,8.9-17.3-2.3-25.7c-31.5-23.6-62.7-47.5-93.4-72.1c-9.4-7.5-15.8-9.6-25.5-0.2
			C1568.5,609.6,1528.8,646.9,1485.9,687.6z M967.8,335.8c45.2,30.7,87.7,59.2,129.7,88.6c10.7,7.5,17.3,4.8,26-2.8
			c44.9-39,90.3-77.4,135.3-116.2c4.7-4.1,16.7-8.6,9.8-15c-14.8-14-29.4-38-50.7-33.4C1133.4,275.1,1050.2,298.6,967.8,335.8z
			 M1236.2,580c-38.7-26.3-74.3-50.6-110.1-74.8c-6.5-4.4-12.6-8.9-21.2-1.5c-40.7,35.3-81.9,70.1-125.1,106.9
			c42.2,26.1,81.5,50.1,120.5,74.7c8.3,5.2,14,4.8,21.1-1.7C1158.5,649.8,1195.9,616.3,1236.2,580z M1896,779
			c-3-3.3-5.3-6.7-8.3-9.1c-31.7-24.8-63.8-49.1-95.3-74.2c-10.4-8.3-16.1-2.2-22.8,4.4c-31.4,31.3-62.5,62.9-94.6,93.5
			c-11.4,10.8-9.9,16.9,2.5,25c32.8,21.5,65.5,43.4,97.4,66.1c12.4,8.8,20.2,7.9,30.1-3.6c26.3-30.5,53.8-60,80.8-89.9
			C1889.2,787.5,1892.3,783.5,1896,779z M1396.4,688.6c-31-20.8-68.5-45.7-105.7-71.3c-8.2-5.6-13.9-5.4-21.1,1.1
			c-36.4,33.1-73.1,65.9-112.6,101.3c43.3,26.5,84.4,51.1,125,76.7c9.8,6.2,15,1.2,20.4-4.8C1333.8,757.5,1364.9,723.2,1396.4,688.6
			z M1336,829.6c44.9,27.8,86.1,52.7,126.6,78.8c12,7.7,19.1,5.1,28.2-4.2c25.2-26,50.9-51.7,77.3-76.5
			c10.9-10.3,11.3-15.6-1.9-24.1c-34.7-22.3-69-45.2-102.4-69.3c-13.1-9.4-20.5-6-30.5,3.8C1402.2,768.1,1370.3,797.3,1336,829.6z
			 M1551.4,212.3c-68.3-2.1-132.3,7-180.1,64c-8.9,10.6-17.2,15.5-1,26.9c27.2,19.1,53.5,39.7,78.8,61.1
			c12.2,10.3,19.5,8.2,30.2-1.6c39.3-36.3,79.5-71.5,119-107.5c7.1-6.5,21.8-13.2,17.2-22c-6-11.5-18.2-21.9-33.8-22.3
			C1571.6,210.6,1561.5,211.8,1551.4,212.3z M2078.8,912.9c-7.4-3.2-12.7-4.5-16.7-7.5c-37.5-28.8-75.1-57.5-111.9-87.2
			c-11.8-9.5-17.6-3-24.7,4.9c-26.2,29.2-52.2,58.6-79.1,87.3c-9.7,10.4-11.1,16.3,2.5,24.7c25.6,15.9,50.4,33.2,75,50.8
			c11,7.8,20.4,9.2,33,2.7c34.9-18,69-37.3,101.4-59.5C2063.1,925.8,2067.4,922,2078.8,912.9z M1522.7,944.3
			c36.6,22.7,71.5,44.5,106.5,66.1c37.7,23.2,37.8,23.2,66.6-8.3c16.3-17.8,31.8-36.5,48.6-53.8c10-10.2,11.5-16.4-2-25.2
			c-35.5-23-70.3-47-105-71.1c-10.1-7.1-16.9-6-25.4,2.8C1583.3,884.4,1553.9,913.2,1522.7,944.3z M1354.6,1032.4
			c6.4-1,10.3-4.2,13.9-7.8c20.8-20.5,41.4-41.2,62.4-61.5c12.1-11.7,0.3-14.8-6.5-19.1c-22.1-13.9-44.6-27.2-66.8-41
			c-60-37.3-60-37.3-111,11.5c-50.5,48.4-50.8,49,13.4,79.2C1290.8,1008.2,1323.1,1019.6,1354.6,1032.4z M2053.3,346.3
			c-2.9-3.8-4.3-6.6-6.4-8.5c-30.1-26.9-60.4-53.6-90.4-80.5c-8.3-7.4-13.9-3-20.3,3.1c-26.2,25.1-52.4,50.3-79.3,74.7
			c-10.2,9.2-9.6,15,1.1,23.2c30.4,23.4,60.5,47.1,89.9,71.6c10.4,8.7,16.9,6.5,25.3-2.2c23.3-23.8,47.2-47,70.8-70.6
			C2047.2,353.8,2050.1,349.9,2053.3,346.3z M1249,840.7c-1.4-6.6-7.1-8.9-12-11.9c-19.6-12.2-39.3-24.3-59.1-36.3
			c-66.1-39.9-65.8-39.6-119.9,15.2c-9.1,9.3-9.3,15.4-1.5,25.1c26.2,32.1,54.6,61.9,86.7,88.1c5.4,4.4,11.1,10.1,18.4,3.2
			c27.9-26.1,55.8-52.3,83.6-78.5C1246.7,844.2,1247.8,842.4,1249,840.7z M2224.1,495.4c-3.3,1.7-6.4,2.5-8.2,4.5
			c-22.8,25.4-45.6,50.9-68.1,76.5c-7.5,8.5,0.9,12.6,5.9,16.6c35.2,28.3,70.6,56.4,106.1,84.4c5,3.9,11.6,11,17.1,0.6
			c15.9-30.2,34.2-61.1,37.6-94.4c2.2-21.8-27.6-31.3-42.5-46.8c-11.1-11.6-23.8-21.6-35.9-32.1
			C2232.3,501.4,2228.3,498.6,2224.1,495.4z M2099.6,549.2c3.4-2.1,6.3-3.2,8.2-5.3c22.9-25.4,45.4-51.1,68.4-76.4
			c8.3-9.1,2-14.1-4.2-19.6c-21.9-19.2-44.4-37.9-65.6-57.8c-9.8-9.2-16-7.9-24.7,1.1c-22.4,23.1-45.2,45.8-68.6,67.9
			c-9.9,9.4-9.2,15.6,1.3,23.6c24.8,18.9,49,38.5,73.5,57.7C2091.6,543.5,2095.6,546.2,2099.6,549.2z M943.5,574.2
			c40.2-34.1,77.4-65.9,115-97.3c8.7-7.3,8.2-12.1-1-18.3c-36.7-24.7-73-49.7-109.6-74.5c-8.5-5.7-15.1-6.4-15.5,6.8
			C930.7,450.8,927,510.9,943.5,574.2z M1913.3,211.5c-57.2-7.2-106.3-7.5-155.3-9.9c-19.2-1-32,7.8-45.4,19
			c-10.5,8.7-10.5,14.4,0.5,22.7c26.4,20,52.3,40.6,78.1,61.5c7.7,6.2,13.6,10.9,22.8,1.9C1844.7,276.6,1875.9,247.2,1913.3,211.5z
			 M2217.5,418.6c7.9-7.6,15.3-14.2,22-21.5c67.5-73,67-74.9-28.1-110.4c-8.5-3.2-15.3-5.8-24.7,1.3c-59.1,44.5-59.9,51.8-6.4,99.8
			c9,8.1,18.2,15.9,27.4,23.7C2210.8,414,2214.1,416.1,2217.5,418.6z M2334.8,523.6c14.1-49.2,20.2-95.5,23.8-142.2
			c0.6-7.8-2.2-13.7-9.1-17.5c-8.5-4.6-13,1.3-17.7,6.6c-21.6,23.9-42.9,47.9-64.7,71.6c-7.4,8-9.3,14.4,0.2,22.5
			C2289.2,483.2,2310.7,502.4,2334.8,523.6z M1416,1047.2c70.4,14.8,133.7,24.5,205.8,18.4c-46.4-28.6-87.2-53.4-127.6-78.7
			c-7.9-4.9-12.7-2.5-18.2,2.9C1457.4,1007.7,1438.7,1025.4,1416,1047.2z M1713.6,1059.5c60.9-7.9,112.8-20.4,167.3-41.3
			c-26.2-18-48.7-33.1-70.8-48.7c-7.2-5.1-12.4-4.6-18.1,1.9C1767.6,999,1742.9,1026.6,1713.6,1059.5z M2002.2,229.8
			c26.8,23.9,53.7,47.8,80.4,71.9c6,5.4,10.6,7.5,17.2,0.4c9.6-10.2,20.1-19.6,30.4-29.1c9.6-8.9,8.5-14.4-4.3-18.2
			C2085.8,242.6,2045.7,230.3,2002.2,229.8z M970.1,665c2.2,29.2,24.4,77.8,49.2,108.9c12.8-11.2,25.2-23,38.6-33.3
			c13.2-10.1,9.9-16.3-2.4-23.6C1027.2,700.4,999.3,682.9,970.1,665z"/>
		<path class="st0" d="M757.1,751.5c53,0.1,92.3,38.8,92,90.6c-0.3,50.5-42.9,92.6-93,91.7c-49-0.9-90.2-42.2-90.9-91.1
			C664.5,791.9,705.4,751.4,757.1,751.5z"/>
		<path class="st0" d="M2189.6,1032.3c50.2,0.6,91.8,43.5,90.9,93.8c-0.9,49.7-41.5,90-91.1,90.3c-49.9,0.4-93.6-42.7-93.4-92.1
			C2096.2,1075.1,2140.2,1031.8,2189.6,1032.3z"/>
		<path class="st0" d="M996.3,1060.7c50.4,0.2,90.2,39.5,90.7,89.3c0.4,49.6-42.6,93.1-92.2,93.1c-49.6,0-92.6-43.6-92.1-93.2
			C903.2,1098.9,943.5,1060.5,996.3,1060.7z"/>
		<path class="st0" d="M1559.1,1170c52.6-0.3,92.9,38.8,92.5,89.7c-0.4,48.7-41.4,90.3-90.4,91.6c-49.8,1.3-93.1-40.7-93.8-91.1
			C1466.7,1208.8,1505.8,1170.3,1559.1,1170z"/>
		<path class="st0" d="M1231.6,1188.6c51.7-0.1,92.8,40.5,92.3,91.3c-0.5,50.7-42.4,91.4-93.5,90.9c-49.8-0.6-90-40.8-90.6-90.6
			C1139.1,1229,1179.5,1188.7,1231.6,1188.6z"/>
		<path class="st0" d="M1987.8,1214.6c0.1,51.9-40.1,91.9-91.9,91.6c-51.3-0.3-92.1-41.8-91.4-92.8c0.7-49.1,41.7-90,91-90.9
			C1945.3,1121.5,1987.7,1163.9,1987.8,1214.6z"/>
		<path class="st0" d="M2515,902.4c-0.3,51-42.3,92.4-92.8,91.4c-50.7-0.9-91.1-43.2-90.1-94.2c1-50,41.1-89.3,91.5-89.3
			C2475.4,810.3,2515.3,850.5,2515,902.4z"/>
	</g>
</g>
</svg>
