<?xml version="1.0" encoding="utf-8"?>
<!-- Generator: Adobe Illustrator 23.0.0, SVG Export Plug-In . SVG Version: 6.00 Build 0)  -->
<svg version="1.0" xmlns="http://www.w3.org/2000/svg" xmlns:xlink="http://www.w3.org/1999/xlink" x="0px" y="0px"
	 viewBox="0 0 3000 3000" style="enable-background:new 0 0 3000 3000;" xml:space="preserve">
<style type="text/css">
	.st0{stroke:#000000;stroke-width:10;stroke-miterlimit:10;}
</style>
<g id="Layer_1">
</g>
<g id="Layer_2">
	<g>
		<path class="st0" d="M1147.8,254.9c100.7-119.8,235.5-152,380.3-157c89.5-3.1,179.4-7.7,267.3,17
			c60.2,16.9,110.9,47.9,144.9,101.6c10,15.8,17.1,16.3,32.8,7.5c125.8-70.5,259.9-107.5,405.2-97.1c73,5.2,142.5,24,208.5,55.6
			c200.6,96,319.8,325.2,248.1,535.1c-26.5,77.5-72.1,141.6-139.7,188.5c-15.3,10.6-17.8,16.1-4.8,31.3
			c99.5,115.5,146.4,249.9,145.2,402.5c-1.4,184.4-1.2,368.8,0,553.2c0.8,127.9-33.2,244.7-106.5,349.4c-11.8,16.9-8.7,27,2.3,41.7
			c53.3,71.4,90.9,149.6,98.6,239.7c15.9,185.2-91.7,321.2-275,349.1c-42,6.4-84.3,8.7-126.5,8.9c-268,1.3-536.1,2.5-804.1,1.5
			c-87.4-0.3-172.6-15.9-248.9-62.9c-20.3-12.5-39-38.3-58.4-38.2c-17.2,0.1-33.3,29-51.7,42.7c-65.6,48.8-140.9,74-221.2,81.7
			c-208.9,20.2-416.5,9.8-621.8-35c-41.4-9-80.4-25.8-114.6-52.2c-87.8-68-118.2-179.5-83.3-303.3c16.9-59.7,45.4-113.9,76.9-166.6
			c10.2-17,7.6-26.7-5.4-40.9c-106.8-116.4-160.1-253.7-159.5-412.1c0.7-187.4,0.6-374.9,0-562.3c-0.5-177.1,64.7-325.4,192.6-446.9
			c8.3-7.8,25.7-14.1,0.2-25.4c-100.2-44.6-150.7-127.2-167.6-231.6c-16.1-99.7-8.2-199.2,15.2-296.9
			c29.7-124.2,96.1-186.6,223.3-198c172.5-15.4,345.7-25.5,519-20.2C1028.3,118.5,1088.4,157.6,1147.8,254.9z M1485.4,2448.8
			c247.9,0,495.8,0,743.7,0c2,0,4,0,6,0c308.4-1.1,549.8-242.4,550.5-551.1c0.5-188.4,0-376.9,0.2-565.3c0-33.4-2.5-66.5-8.6-99.2
			c-50.2-267.8-271.9-452-544.6-452.2c-382.4-0.3-764.9-0.1-1147.3-0.1c-115.9,0-231.8-0.3-347.6,0
			c-308.7,0.8-550.3,241.9-551.2,550.3c-0.5,189.4-0.1,378.9-0.1,568.3c0,43.5,4.7,86.5,14.8,128.8
			c59.5,247.2,276.7,419.6,531.4,420.4C983.6,2449.5,1234.5,2448.9,1485.4,2448.8z M1785.7,731.3c38.3,0,76.6-0.2,114.9,0.1
			c13.1,0.1,20.3-1.4,18-18.3c-7.7-56.4-0.1-112.4,6.4-168.5c7.8-66.9,18.2-133.6,8.8-201.5c-13.7-99.5-71.6-166.1-168.9-183.8
			c-119-21.6-238.7-18.6-357.5,3.3c-88.7,16.4-165.7,54.7-222.4,128.1c-12.7,16.5-16.4,32.4-12.4,52.8c9.2,46.6,10.1,93.7,7.3,141.3
			c-4.3,73.3-13.3,146.5-6.1,220.2c1.9,19,8.2,27.3,29.6,26.9c78.6-1.4,157.2-1.2,235.8-0.1c20.8,0.3,27.6-5.2,27.3-26.8
			c-0.7-59.1,12.1-115.8,36.4-169.9c14.7-32.7,37.2-56.1,74.6-56.2c29.7-0.1,55,30,64.8,70.9c0.9,3.9,1.1,8,1.9,11.9
			c9.3,48.7,13.8,97.7,11,147.2c-0.9,16.7,4,23.3,21.7,22.7C1713.2,730.4,1749.5,731.3,1785.7,731.3z M1357.7,2499.9
			c35.6,76.9,28.6,150.7-6.9,222.8c-6.8,13.8,4,18.4,10.6,24.5c40.4,36.9,88.6,58.5,141.3,71c62.2,14.9,125.7,16.5,189.1,16.4
			c197.4-0.2,394.9-1.4,592.3-2.6c83.5-0.5,167.2,2.6,250.5-7.7c101.4-12.5,182.9-54.1,224.5-153.6
			c50.1-119.6,11.1-252.4-67.9-356.7c-2.9-3.8-5.3-8.5-11.7-7.1c-14.1,3.2-35,39.6-31,55.2c9.1,34.9,8.9,69.9,0.7,104.6
			c-25.5,107.9-97.1,174.7-197.5,210.8c-111.7,40.1-227.2,44.2-342.1,15.8c-93.2-23.1-167.3-74.1-200.4-169.2
			c-7.7-22-18-26.1-38.4-26.1c-161.2,0.7-322.3,0.4-483.5,0.5C1378.6,2498.5,1369.8,2499.3,1357.7,2499.9z M646.7,2769.9
			c-4.4-52.6-4.9-92.8,6.9-132.1c22.7-75.5,96.6-112.1,169.9-82.9c52,20.7,83,61.4,100.6,113.2c15.5,45.4,17.9,92.6,17.8,140.2
			c-0.1,56.9,0.5,57.4,57.8,52.7c80.1-6.7,157-23.5,225.6-69c91.9-61,136.9-197.5,79.7-280.1c-10-14.4-18.6-13.3-30.1-13.3
			c-178.4-0.2-356.8-0.3-535.1,0c-39.4,0.1-78.5-2.4-117.3-9.6c-92.7-17.3-176.2-55.1-251.6-111.6c-7.6-5.7-15.8-21.9-27.3-1.5
			c-32,57.2-63,114.6-76.9,179.7c-27.1,127.5,28.4,223.8,152.1,262.7c67.8,21.3,138.2,26.4,208,35.9c15.1,2.1,19.9-4.4,19.8-18
			C646.6,2810,646.7,2783.9,646.7,2769.9z M726.5,172c-60.3-4.4-120.9,6.8-181.2,3.2c-3.4-0.2-14.1-0.9-21.8,5.8
			c-5.1,4.4-7.7,11.3-9,21.1c-6.4,48.5,2.7,94,23.2,137.9c28.9,61.7,81.4,95.1,141.4,119.9c52.7,21.8,86.3,61,103.3,115
			c13.7,43.3,11.2,87.7,7.3,131.8c-1.6,17.7,1.3,25.2,21.5,25c97.7-0.9,195.4-0.8,293.1-0.1c18.1,0.1,21.5-5.7,19.8-22.7
			c-6.1-62.4-1.5-124.7,2.9-187c5.2-73.4,8.3-146.9-16.1-218.3c-13.7-40.2-34.4-71.9-62.7-94.6c-20.3-16.4-46.6-29.9-95.9-39.8
			C854.3,149.5,845.6,180.7,726.5,172z M204.6,515.1c-1.4,63.1,3.7,110.3,19,155.3c26.8,78.8,74.7,137.3,161.2,154.9
			c11.2,2.3,21.4,2.4,31.8-4c92.6-57.6,193.2-88.5,302.5-89.8c10-0.1,16.8-1.7,18.6-13.9c13-90.4,8.2-183.5-101.9-223.1
			c-75.6-27.2-126.1-83.9-154.8-159.5c-16.5-43.3-20.5-87.8-16.8-133.5c0.7-9.2,5.3-21.6-12.1-20.7c-92,4.6-183.8,23.4-218.8,138.4
			C212.1,388.3,208.6,459.4,204.6,515.1z M2072.7,731.3c26.2,0,52.4-0.4,78.6,0.2c14.5,0.3,18.4-2.6,14.9-18.9
			c-13-62.1,6.3-114.5,51.1-159c43-42.8,97.8-62.5,153-81.5c40-13.7,80.4-26.4,117.3-47.5c59.3-34,88.7-84.9,89.5-153.7
			c0.3-27.6-8.3-43.3-35.4-54c-194.5-76.8-377-41.5-553.7,55.8c-13.6,7.5-14.6,17-11.4,30c18.2,72.8,11.1,145.8,2.1,219
			c-7.7,62.8-18.8,125.5-10.1,189.4c2,15.1,6.9,21,22.4,20.5C2018.2,730.6,2045.5,731.3,2072.7,731.3z M2628.5,264.4
			c-2.9,131.7-78,197.7-186.2,236.3c-20.8,7.4-42.2,13.5-62.9,21.2c-39.6,14.6-79.8,28.2-113.5,55.1
			c-34.1,27.2-54.9,61.7-53.7,106.4c0.9,36.1,13.1,47.2,48.1,48.2c134.6,4,253.9,49.7,357.5,135c16.4,13.5,27.3,14.7,43.6,2.6
			c99-73.1,148.4-170.6,142.7-293.6C2798.2,446.3,2734.7,348,2628.5,264.4z M792.6,2865.3c0,0.3,0,0.6,0,0.9
			c26.1,0,52.3-0.8,78.4,0.3c16.7,0.7,23.5-4.3,22.2-22c-2.8-39.1-2.1-78.5-6.7-117.3c-4.8-40.4-18.4-78.4-50.3-106.7
			c-54-47.8-118.8-28-136.7,41.3c-9.8,37.9-7.1,76.3-1.8,113.9c4,28.1-13.7,67,6.7,81.1C725.5,2871.5,762.5,2863.4,792.6,2865.3z
			 M2067.4,2497.7c28.3,43.7,65.7,58.6,106.8,66.3c50.7,9.5,102.2,9.4,153.4,9.2c52.8-0.2,104.5-8.2,148.8-40.8
			c34.3-25.2,53.3-58.1,51.5-109C2383.9,2511.1,2228.4,2499.6,2067.4,2497.7z M2251.6,2660.4c89.2-3.3,178-13.1,254.7-67.4
			c62-43.9,97.2-103.7,98.1-180.9c0.1-9.4,7.8-28.4-11.5-26.9c-13.1,1-20.8,13-15.3,29.7c4.8,14.4,2.8,29.9-0.1,44.9
			c-16.2,86.4-75.3,131.8-154.2,151.4c-96.4,23.9-194.2,17.4-290.2-5.6c-46.5-11.1-85.7-37.8-107.8-81.3
			c-11.1-21.9-24.4-26.2-46.6-26.5c-26.7-0.4-25.3,9.5-15.9,27.8c25.4,49.9,65.3,83.6,116.1,105.1
			C2133.7,2653.9,2191.9,2658,2251.6,2660.4z M1606,680.4c0.6-0.1,1.1-0.1,1.7-0.2c-4.3-36.9-7.9-73.9-13.4-110.6
			c-2.1-14.3-3.2-34.3-20.4-36.8c-18-2.6-22.3,17.1-28.2,30.4c-15.6,35.2-23.8,72.5-28.1,110.5c-6.6,57.7-6.2,56,51.2,58.4
			c29.3,1.2,40.7-8,37.3-36.6C1605.4,690.5,1606,685.4,1606,680.4z"/>
		<path class="st0" d="M1371.9,1208.9c205.3,2.7,397.2,49.5,563.7,175.6c100.2,75.8,173.5,171.7,196.8,298.2
			c28,152.4-25,280-130,387.7c-113.6,116.4-255.9,180.7-413,212.1c-241.9,48.4-475.2,23.8-694.7-94.7
			c-67-36.2-126.8-82.3-176.4-140.4c-161.1-188.7-154.2-423.6,19.3-601.6c118.2-121.2,266.7-184.5,430-217.5
			C1234.9,1214.6,1303,1208.1,1371.9,1208.9z M1375.1,1258.3c-77.4,1.3-150.6,7.6-222.5,24.2c-148,34.3-282.4,94.8-387.9,207.9
			c-144,154.2-150.1,351.6-16.2,514.4c57.9,70.5,130.9,122.3,213,160.6c206.7,96.5,422,113,642.8,62c143-33,272.3-94.4,373.1-204.2
			c101.3-110.3,141.5-237.7,91.6-384.3c-31.9-93.9-95.3-165-174.4-222.3C1738.6,1303.5,1560.7,1262.1,1375.1,1258.3z"/>
		<path class="st0" d="M2494.2,1200.3c-0.1,28.5-16.5,40.4-42.5,31.1c-225.8-80.8-458.4-129.5-697.5-149.2
			c-420.3-34.7-827.6,22.1-1221.8,171.2c-22.8,8.6-24.5-3.4-31.3-17.6c-7.8-16.3-5.5-23.6,12.5-30.4
			c221.6-83.4,449.8-138.7,685.1-165.3c217.2-24.6,434.3-24.4,651.5,0.4c214.9,24.5,424.2,73.4,628,146.2
			C2494.4,1192.4,2494.2,1192.9,2494.2,1200.3z"/>
		<path class="st0" d="M1388.2,1378.4c138.9,1.5,271.8,27.5,393,99.2c33.9,20.1,65.1,43.9,92.5,72.4
			c112.3,116.3,113.2,266.6,0.6,382.8c-79.1,81.6-179.1,125.1-287.9,149.7c-177.6,40.2-352,30.4-521.4-38.9
			c-62-25.4-118.3-60.5-165.4-108.8C786,1818,785.4,1666,899.2,1549.8c82.6-84.3,187.3-126.8,300.1-151.9
			C1261.3,1384,1324.4,1377,1388.2,1378.4z M1790.8,1663.7c-31.2,36.1-61,71.4-91.8,105.8c-9.3,10.4-6.4,16.5,2.1,24.8
			c36.8,35.8,73.3,71.8,109.6,108.2c7.7,7.7,13.2,10,22,1.1c32.4-32.8,57.5-69.7,69.8-114.6c3.3-11.9,0.2-20.8-9.1-29.4
			C1859.3,1728.5,1825.9,1696.7,1790.8,1663.7z M1371.1,2055.5c9.8,1.2,17.7-2.3,24.1-9.7c28.2-32.8,56.2-65.7,84.8-98.1
			c7.5-8.5,4.5-13.4-2.3-19.7c-29.7-27.2-59.2-54.5-88.5-82.1c-9.3-8.8-15.5-8.7-24.2,1.9c-29.4,35.7-59.7,70.6-90.1,105.5
			c-7.7,8.8-10.9,15.4-0.4,25c25.3,22.9,49.9,46.7,74.5,70.5C1355.4,2054.9,1362.9,2055.9,1371.1,2055.5z M1092.4,1572.9
			c-3.6,2.9-6.8,5-9.3,7.8c-31.4,35.2-62.4,70.8-94,105.7c-11,12.2-0.6,17.7,6.2,24.2c26.7,25.8,54.3,50.7,80.3,77.1
			c11.5,11.7,18.2,10.3,28.2-1.5c28-32.8,56.5-65.2,85.8-96.8c10.4-11.2,11.4-18.1-0.8-28.8c-28.7-25-56.2-51.5-84.2-77.4
			C1101.1,1579.9,1097.2,1576.9,1092.4,1572.9z M1256.5,1438.7c-33.2,3.5-62.7,8.8-82.6,38.6c-13.2,19.9-42.9,34.7-42.7,55.8
			c0.2,19.6,29.7,32.7,46.8,48.1c19.2,17.4,35.9,49.3,58.2,48.3c22.5-1,35.9-34.7,53.5-53.8c18.2-19.7,49.9-38.8,48-61.7
			c-1.7-20.2-32.3-38.2-50.7-56.7C1278.1,1448.3,1270.8,1435.6,1256.5,1438.7z M1335.3,1802.6c-0.4-9.2-7.3-12.7-12.1-17.3
			c-22.7-21.3-46.2-41.7-68.2-63.7c-11.5-11.5-18.5-10.2-28.6,1.5c-28.7,33.5-58,66.6-87.9,99.1c-9.7,10.5-9.8,17.1,0.9,26.7
			c25.3,22.8,50.2,46.2,74.2,70.5c11.1,11.2,17.2,8.3,26-2.2c28.2-33.9,57.2-67.2,85.8-100.8
			C1329.2,1811.9,1332.3,1806.8,1335.3,1802.6z M1651.7,1743.7c3.6-2.8,7.1-4.8,9.6-7.6c28.3-32.6,56.1-65.5,84.7-97.8
			c9.6-10.9,1.1-15.8-5.2-21.8c-28.5-26.8-57.4-53.1-85.5-80.3c-9.8-9.5-15.9-11.6-25.8,0.7c-23.8,29.7-48.7,58.6-74.1,87
			c-9.4,10.5-9.6,17.3,0.8,27.2c28.4,26.9,55.8,54.8,83.7,82.3C1643.3,1736.9,1647.2,1739.9,1651.7,1743.7z M1617.2,1786
			c-1.9-3-3.5-6.8-6.2-9.5c-30-29.8-60.3-59.3-90.1-89.3c-12.1-12.2-17.4-1.3-23.6,5.8c-25.7,29.7-51.1,59.6-76.6,89.4
			c-6,7-12.5,12.8-1.9,22.3c31.4,28.3,62.1,57.3,92.9,86.3c6.4,6,10.5,6.7,16.8-0.7c27.2-32.3,55.1-64.1,82.7-96.1
			C1613.2,1791.9,1614.8,1789.3,1617.2,1786z M1778.7,1946.8c-37.6-38.9-74.6-76.8-111.3-115.1c-7.8-8.2-13.5-9.8-21.7-0.1
			c-25.1,30-50.5,59.8-76.7,88.8c-10,11.1-8,17.7,2.3,26.7c20.5,17.7,40.1,36.4,59.8,55c7.6,7.1,14,12.2,26.2,7.5
			C1700.5,1992.7,1742.2,1973.5,1778.7,1946.8z M1474.7,1638.6c-3.9-2.6-8.8-4.7-12.3-8.2c-22.3-21.7-45.1-43.1-66.2-66
			c-12.4-13.5-19.9-10.7-30.4,1.8c-25.9,30.7-52.6,60.8-79.9,90.3c-9.6,10.4-10.3,16.9,1,26.6c25.1,21.7,49.4,44.3,73.1,67.5
			c10.3,10.1,16.1,7,23.9-2.4c26.4-31.6,53.4-62.7,80.1-94.2C1467,1650.3,1469.5,1646,1474.7,1638.6z M1054.7,1839.6
			c-4.2-4.9-7.6-9.7-11.8-13.7c-12.3-11.8-24.5-23.7-37.4-34.9c-20.3-17.5-37.4-53.1-59.5-49.8c-20.8,3.1-36.6,36.7-55.6,56
			c-11.1,11.2-11.3,21.3-4.1,34.8c18.3,34.1,43.1,62.5,71.4,88.5c12.2,11.3,19.3,8.4,28.8-3c18.7-22.3,38.6-43.5,57.9-65.2
			C1047.8,1848.7,1050.7,1844.7,1054.7,1839.6z M1601.7,1490.5c-2.2-3.5-3.7-6-5.4-8.4c-24.8-33.5-60.3-45-99.7-46.8
			c-25.9-1.2-31.7,24.3-46.6,37.7c-7.4,6.7-13.2,15.3-20.6,22c-11.8,10.8-14,19.6-0.4,31.7c23.3,20.7,45.6,42.5,67.1,65
			c10.3,10.8,15.4,6.7,22.9-2.2c24.5-29.3,49.5-58.2,74.2-87.3C1596.3,1498.5,1598.9,1494.4,1601.7,1490.5z M1189.8,1972.5
			c1.2-6-3.2-9.1-6.7-12.4c-26.7-25.6-53.8-50.9-80.2-76.9c-10-9.9-15.4-3.4-21.6,3.8c-16.5,18.8-32.2,38.5-50.1,55.8
			c-16.6,16.1-9.7,23.5,6.7,32c28.5,14.7,57.7,27.6,87.9,38.4C1146.3,2020.5,1187.8,1993.9,1189.8,1972.5z M1050.2,1535.2
			c-7.9-8.1-13.8-24.5-29.8-15.5c-42.2,23.9-81.3,52.7-108.3,93.5c-13.6,20.5,14.1,25.6,22.3,38c7.6,11.4,14.8,4.2,21.3-3.2
			c28.5-32.4,57.2-64.5,85.6-96.8C1045,1546.9,1050.7,1543.4,1050.2,1535.2z M1456.7,2052.3c48-4.8,87.3-8.9,129.7-23.1
			c-19.4-17.9-36.4-33-52.8-48.8c-7-6.7-11.6-4.7-17,1.7C1498.8,2003.4,1480.6,2024.4,1456.7,2052.3z M1678.9,1489.4
			c33.1,31,66.1,62,99.3,92.9c13.2,12.2,16.2-3.9,22.6-8.9c8.5-6.6,10.2-13.6-0.2-21.4C1763.9,1524.7,1725.2,1501.2,1678.9,1489.4z
			 M1900.3,1695.7c-6.9-38.8-25.1-64.7-44.5-89.9c-8.1-10.6-13.8-3.1-18.6,3.3c-5.3,7-17.8,12.7-5.1,24.2
			C1853.5,1652.5,1874.5,1672.1,1900.3,1695.7z M1415.4,1430.4c-27,0-51.1,0-83.3,0c18.7,17.4,29.4,40.3,45.8,40.1
			C1393.9,1470.2,1405.4,1448.6,1415.4,1430.4z M864.6,1743.5c51.2-37.7,52.8-47.8,12.5-69.9C869.2,1695.9,863,1718.2,864.6,1743.5z
			 M1264.3,2043.9c-28.5-42.6-33.5-43.5-54.6-8.2C1227.8,2040.1,1245,2046.4,1264.3,2043.9z"/>
	</g>
</g>
</svg>
