<?xml version="1.0" encoding="utf-8"?>
<!-- Generator: Adobe Illustrator 23.0.0, SVG Export Plug-In . SVG Version: 6.00 Build 0)  -->
<svg version="1.0" xmlns="http://www.w3.org/2000/svg" xmlns:xlink="http://www.w3.org/1999/xlink" x="0px" y="0px"
	 viewBox="0 0 3000 3000" style="enable-background:new 0 0 3000 3000;" xml:space="preserve">
<style type="text/css">
	.st0{opacity:0.48;}
	.st1{stroke:#000000;stroke-width:10;stroke-miterlimit:10;}
</style>
<g id="Layer_1" class="st0">
</g>
<g id="Layer_2">
	<g>
		<path class="st1" d="M302.8,757.9c-22.9-39.4-39.6-76.6-43.2-118.7c-5.8-69.4,21.8-121.4,80.6-156.7
			c56.5-33.9,118.4-42.6,182.7-32.5c19,3,31.3,1.9,44.7-15.7c44.1-57.8,114.9-75.1,194.1-51.2c25.9,7.9,50.3,19.3,72.9,34.2
			c7,4.6,12.8,9.2,22.6,3.6c82.6-47.1,155.2-20.7,224.4,31c16,11.9,26.6,39,43.6,37.3c14.4-1.5,25.8-26.5,39.8-39.7
			c82.4-78,181.9-105.9,292.9-96.6c116.6,9.7,221.7,53.6,321.8,111.6c9.3,5.4,17,13,29.1,3.3c92.8-74.7,202.4-99.8,318.1-105.4
			c112.8-5.5,225.6-12.7,338.5-1.8c48.8,4.7,96.5,14.4,143,30.3c74.7,25.6,126.9,77.4,166.1,143.9c62.2,105.4,92.5,219.9,95.9,341.7
			c3.5,125.7-7.8,250.8-17.7,376c-9,115-18.4,230-32.5,344.5c-6,49.2-11.6,98.7-25.7,146.5c-7.2,24.5-16.6,49-36.9,64.9
			c-16.2,12.7-12,20.6-1.7,33.5c46.7,59.1,86.2,122.8,113,193.4c40,105.4,51.9,210.7-7,314.4c-35.2,62-87.4,106.6-147.2,142.6
			c-104.7,63-220.2,95.8-339,119c-230.5,45-463.6,50.3-697.3,42.5c-128.2-4.3-255.3-18.3-379.6-52.2c-66.9-18.3-131.1-43-192-80.8
			c-13.6,45.4-33.9,85.1-71.4,114.5c-56.3,44-118.6,53.1-185.7,33.5c-14.1-4.1-23.4-4.2-35.9,5.5c-84.6,65.3-207,45-266.7-44
			c-9.9-14.8-15.5-19.7-34-9.8c-92.3,49.5-212.3-9.8-240.9-119.2c-6.2-23.9-13.7-34-40.4-38.6c-64-11.2-101.4-57.4-123.6-115
			c-35.3-91.4-26.4-181.6,15.2-269c7.2-15.1,8.4-24-4.9-38.1c-48.5-51.5-53.7-114-37-179.5c11.2-44.1,33.1-83,66.7-114.1
			c12.8-11.9,11.9-16.3-2.4-26.7c-46.4-33.9-63-83.9-66.6-138.7c-5.1-77.2,16.7-148.2,53.1-215.4c4.8-8.9,10.2-15.9,1-26.8
			c-61-72.2-42.2-181.1,16.6-245.5c14.8-16.1,19.6-24.8,4.3-46.1c-59.9-83.1-34.4-212.3,48.6-263.9
			C232.2,765.5,265.2,760.5,302.8,757.9z M2342.3,1524.7c36,0,68.8,0.9,101.5-0.4c18-0.7,17.9,9.1,18.2,22
			c0.3,13.8-1.7,22-18.8,21.5c-37.9-1.1-75.8-0.4-113.7-0.3c-26.2,0.1-65.5,38-65.6,63.7c-0.2,60.7,0.5,121.4-0.5,182
			c-0.3,16.4,5,19.8,20.3,18.3c130.7-12.8,262-17.5,392.5-34c42.8-5.4,66.8-25.7,77.9-65.9c12.8-46.5,19.5-94.1,24.6-141.6
			c22.6-212.7,42.6-425.7,50.1-639.6c4.9-139-18.5-271.7-89.9-393.3c-38.6-65.8-91.2-113.9-166.6-133.9
			c-44.1-11.7-88.7-19.3-134.2-22.6c-114.7-8.5-229-0.4-343.4,6.5c-117.7,7.1-220.6,49.9-306.4,132.1
			c-63.4,60.7-114.3,130.4-150.3,210.4c-21.1,47-35.2,96.1-39.6,147.9c-8.2,96.6,42.6,175.6,133.1,205.2c29.1,9.5,46.9-3,47-32.8
			c0-52.2,0.4-104.5-0.3-156.7c-0.2-15,1.9-22.9,20-22.1c16,0.6,24.3,2.2,23.8,21.6c-1.3,50.5-0.1,101.1-0.6,151.7
			c-0.1,14,1.7,21.5,19.2,19.7c66.9-6.8,134.3-18.1,200.1,15.2c-46.7-116.1-14.2-215.9,87.9-276.1c76.7-45.2,190.4-22.9,250.2,49
			c65.3,78.6,64.4,191.6-2.1,266.6c-75,84.5-179.4,91.1-295.1,16.7c14.7,34.7,29.1,67.2,32.1,102.5c1.9,22,13.1,26.9,32.5,27.9
			c106.2,5.5,201.3-23.2,284.4-90.2c5.9-4.8,11.4-10.1,17.3-14.8c18.2-14.6,22,7,31.4,13.3c11.7,7.8,2.6,13-3.7,18.7
			c-26.4,23.8-54.9,44.5-86.1,61.5c-75.9,41.4-157.2,58.7-243.3,52.7c-15-1-26.1-1.5-24.2,19.6c1.7,18.3-2.5,37.2-0.7,55.4
			c2.3,22.6-22.9,49.5-4.6,63.5c16.8,12.9,46.8,8.7,71,12c1.7,0.2,3.4,0.2,5,0.3c45,3.6,86.8-6.4,126.3-28.1
			c12.1-6.7,26.2-9.5,37.5,2.1c9.7,10,11.1,22.3,5,35C2355.7,1498.1,2350,1509.2,2342.3,1524.7z M2695.3,2454.8
			c14.4-9.8,25.7-16.9,36.4-24.8c97.9-72.1,144.9-166.2,123.1-289.1c-20.2-113.8-79.8-207.7-150-296.3c-5.7-7.1-12.3-8-20.1-6.7
			c-54.9,8.7-110.3,13.8-165.7,16.6c-130,6.4-258.9,30-390.1,19.2c-76.3-6.3-153.2-4-229.8-5.9c-27.8-0.7-59.8,2.7-81.5-12.4
			c-45.1-31.6-82.9-13.3-122.9,6c-3.8,1.8-7.8,3.2-11.7,4.6c-161.1,58.2-323.9,85.2-490.8,23.9c-9.3-3.4-15.4-2.2-22,5.5
			c-68.9,81.8-127.6,169.6-158.4,273.3c-15.8,53.2-20.5,107.8-4.1,161.9c38.1,125.3,142,173.3,254.1,216.7
			c-0.8-49-2.5-94.3,5.6-139.2c21.6-120.2,78.3-210.5,204.9-241.9c18.8-4.7,37.2-10.8,56-15.3c126.5-30.3,255.5-43.5,384.8-52.9
			c149.6-10.9,299.1-18.8,449.3-8.5c126.2,8.6,214.2,71.2,273.2,179.9C2666.2,2326.2,2683.9,2387.3,2695.3,2454.8z M1764.1,503.8
			c-106.6-60.8-214.2-108-335.5-110.2c-120.1-2.2-218.3,41.9-283.4,147.6c-68.1,110.6-89.2,235.3-104.4,360.8
			c-14.6,120.3-24.7,241.2-34,362.1c-8,104.1-15.6,208.3-2.3,312.8c18.7,147.1,96.4,243.8,240.1,286c87,25.6,174.7,23.7,262.7,8.4
			c72.4-12.6,142.1-34.9,209.1-65.2c6.5-2.9,21.8-2.6,12.4-17.8c-19.1-30.8-27.6-64.8-30.3-100.6c-0.4-5.8-0.7-11.3-8.7-13.1
			c-40.6-8.8-65-35.1-76.2-74.7c-10.8,5.1-14.5,14.1-20.3,21c-67.1,80-175.7,106.4-255.8,57.6c-76.7-46.7-111.8-118.8-110.5-208.1
			c0.4-26.7,11.4-50.6,36.9-61.6c23.3-10,21.8-20.7,7.5-36.5c-5.7-6.2-10.1-13.6-16.2-19.3c-26.7-25-42.3-56-51.6-91
			c-13.1-49.3-19.8-99.3-11.5-150c13.6-82.7,47-150.5,134.9-177.6c33.2-10.3,49.4-36.7,53-70.2c1.7-15.8,0.4-31.9,0.2-47.8
			c-0.4-29.9,4.2-58.5,20.1-84.7c46.8-77.3,138-114.5,226.6-91.7c9.9,2.5,18.1,7.2,26-5C1683.7,587.4,1720.8,545,1764.1,503.8z
			 M736.3,722.6C612.4,760.2,515,824.9,446.1,929.1c-61.1,92.5-90.9,196.2-109.4,304.2c-16.7,97.6-17.9,196.2-21.9,294.7
			c-6.7,163.6-5.9,327,27.5,488.2c22.2,107.3,57.2,209.6,127.8,296.2c34.4,42.2,75.6,75.5,129.8,99.4
			c-18.8-79.7-15.9-155.8-5.4-231.9c12-86.2,38.7-165.9,106.3-225.7c14.4-12.7,6.8-16-5.1-21.2c-28.8-12.5-59.4-18.9-89.9-24.6
			c-94.8-17.6-155.6-70.3-170.3-167.6c-13.4-89.2-21.1-179.2-11.5-269.4c17.1-160.4,115.3-242.8,239.2-247.8
			c15.8-0.6,19.4-6.8,17.8-21.9c-8.3-80.8-5.3-161.5,3.7-242.1C693.5,880.7,711,803.8,736.3,722.6z M1852.4,2615.3
			c59.7-2.2,135.4-5.1,211.2-7.9c10.2-0.4,20.6,0.3,21.6-14.5c3.9-58.3,3.6-116.5-15.5-172.4c-12.4-36.4-36.6-45.7-72-30.5
			c-33.3,14.3-60.7,37-80.3,67.1c-13.2,20.3-21.2,3.4-31.5-1.3c-15.9-7.2-9.6-15.7-2.1-25.2c22-28.1,46.7-53.1,78.3-70.5
			c75.2-41.3,137.3-12.7,155.2,71.3c10.2,48,15.8,96.5,10.4,145.4c-2.6,23.3,5.7,27,25.8,24.2c41.7-5.8,83.7-9.2,125.3-15.5
			c83.3-12.6,165.8-28.8,246-55.2c10.1-3.3,21.1-4.4,20-20.5c-3.6-51.7-12.6-102-37.5-148.1c-25.9-48.2-62.6-83.2-118.8-93.1
			c-31.5-5.5-63.1-10.3-95.1-11.8c-154.5-7.2-308.2,4.1-461.4,21.9c-83.5,9.7-166.7,23.1-245.8,53.9c-38.6,15.1-70.5,37.3-94,72.7
			c-33.8,50.9-45.4,107.9-52.1,166.9c-1.7,15.3,5.6,17.7,18.3,19.6C1583.7,2610.7,1709.9,2614.1,1852.4,2615.3z M2182,2126
			c-157.3,4.8-321.3,14.2-484.2,36.2c-81.7,11.1-162.6,26.3-241,53.4c-59.8,20.7-100.1,59.4-124.1,117.3
			c-25.8,62.1-31.4,126.8-30,193.2c0.5,24.8,7,39.3,33.8,42c19.9,2,43.6,18,57.6,8.8c10.7-7.1,7.1-35.6,10.4-54.5
			c19.7-114.1,71.7-202.5,189.9-238.1c13.7-4.1,27.2-9,41.1-12.1c230.8-52.4,464.7-68.6,700.5-54.2c66.1,4,130,19.3,175.8,75.6
			c40.1,49.3,62.1,105.7,70.3,167.7c6.4,48.4,4.9,48.1,50.9,27.4c15.7-7.1,23.7-14.7,20.1-33.9c-12.3-65-30.5-127.8-65.7-184.4
			c-47.3-76-110.8-126.5-204.1-135.7C2318.4,2128.4,2253.8,2125.6,2182,2126z M1582.3,1452.8c-2.2,32.5,2,60.1,3.7,87.8
			c1.1,17.6,8.4,17.6,20.5,9.1c10.3-7.3,20.9-14.2,31.2-21.5c41.8-29.7,81.9-62,127.3-86.4c72.8-39.1,150.8-32.1,214.9,19.6
			c41.7,33.6,83.1,22.2,93.1-31c17.4-93.1,9.3-184.6-38.2-269.2c-15.2-27.1-39.1-40.5-70.4-41.6c-48.2-1.7-95.9,0.5-143.3,10.1
			c-121.7,24.5-200.2,93.9-227.8,217.2C1584.9,1383.3,1585.9,1420.6,1582.3,1452.8z M719.1,1095.8c1.6,54.6-1.2,109.6,16.5,162.6
			c15.1,45.1,32.3,58.3,79.4,57.9c41.2-0.4,82.4-3.1,123.6-3.2c17.4,0,23.1-6.4,24.3-23.2c4.7-65.5,9.9-131,16.3-196.4
			C991,972.1,998.5,850,1027,730.7c2-8.5,7.7-19-8-20.7c-12.1-1.4-24.2-3.1-24.7,15.2c-0.7,23.6-2.9,47.1-3.3,70.7
			c-0.5,30.3-0.2,60.7-7.9,90.3c-10.4,39.6-38.8,60.2-75.4,55.9c-36.7-4.3-54.9-27.6-55-71.7c-0.1-48.9-1.2-97.8,3.2-146.6
			c0.6-6.1,4.3-13.7-3.4-18.3c-16.4-9.8-69.3,11.6-75.5,30.3C737.9,852.5,719,972.6,719.1,1095.8z M925.4,2419.4
			c18.5,0.5,32.6-8.1,48-11.6c13.6-3.2,16.6-9,9.9-22.7c-29.3-59.7-32.9-122.7-21.2-187.3c13.8-75.8,45.6-144.1,86.9-208.3
			c8.9-13.9,8.6-20.5-7.7-27.4c-25.7-10.8-51.6-20.6-78.7-26.8c-148.9-34-270,35.7-311.9,182.1c-23.2,80.9-28.7,164.1-16.3,247.6
			c10.9,73.4,12.3,73.9,85.6,79.1c30.6,2.2,30.1,2.2,25.2-29.3c-8.2-52.6-10.5-105.5-3.4-158.4c6.1-44.9,26.1-81.6,65.6-105.5
			c41-24.8,90-10.2,111.6,32.3c8.1,15.9,12.5,32.8,15.1,50.5C943.4,2295.4,934.8,2356.2,925.4,2419.4z M789,1900.6
			c99.3-21.4,159.1-18.5,235.9,8.6c20.7,7.3,41.1,30.4,61.3,20.2c18.5-9.4,29-34,43.9-51c9.4-10.7,6.5-15.5-4.5-22.5
			c-97.9-62.1-146.3-154.3-161.9-266.9c-9.7-70.4-11.5-140.9-5.2-211.5c1.6-17.7-3.5-23.1-21.8-22.3c-43.7,1.8-87.6,1.9-131.3,1.2
			c-14.6-0.2-18.5,3.7-21.7,18.7c-7.2,34.2,12.3,59.2,23.2,87.5c4.5,11.8,10.4,15.2,22,14.9c25.2-0.6,50.6,0.6,75.8-0.4
			c17.2-0.7,16.2,9.7,16.3,21.1c0.1,11.6,0.7,21.6-16.4,20.9c-25.2-1.1-50.5-0.4-75.8-0.2c-7.2,0.1-16.4-2.6-19.1,7.5
			c-9.6,37.1-34.1,61.9-68.8,80.3c34,16.6,56.6,39.4,66.4,72.9c3.2,10.9,9,14.6,19.9,14.3c22.7-0.6,45.5,0.5,68.2-0.4
			c16.3-0.6,26.5,0.7,26.2,22.2c-0.2,20.4-10,20.9-25,20.4c-22.7-0.7-45.5-0.3-68.2-0.1c-5.6,0.1-14.6-2.7-16.2,3.3
			c-6.3,23.8-27.4,41.1-29.4,65.9C780.2,1837.3,780.4,1869.3,789,1900.6z M2220.4,1738.8c0.2,0,0.5,0,0.7,0c0-26.9-0.1-53.9,0-80.8
			c0-9.4-0.3-17.4-13.7-12.6c-59.3,21.3-116.4,6.6-172.6-12.5c-45.3-15.4-89.5-34.2-134.8-49.7c-38.5-13.1-71.2-3.5-95.3,30.8
			c-14.1,20-30.1,38-52.2,50c-5.7,3.1-13.8,6.1-13,16.5c5.5,71.9,38.5,132.5,119.9,141.9c68.9,7.9,138,2.7,206.9,5.3
			c41.9,1.5,83.7,5.9,125.5,9.7c21,1.9,31-4.4,29-27.8C2218.9,1786,2220.4,1762.3,2220.4,1738.8z M651.9,1607.2
			c-62-44.4-81.7-89.3-64.2-144.7c7.7-24.2,22-43.6,42.3-58.3c33.5-24.1,71-26.2,114.4-14c-8.8-21,7.8-40.5-11.2-56
			c-16.8-13.7-27.3-32.3-33.7-52.5c-4.5-14-12.2-17.1-25.9-16.8c-100.4,1.5-177.3,62.4-198.8,164.8
			c-23.6,112.3-13.8,224.8,10.6,335.8c8.9,40.7,36.3,70.8,75.8,85.8c59.8,22.7,126.1,24.4,184.2,60.6c-1.8-23-4.7-40.6-4.3-58.1
			c0.5-21.9-4.3-29.9-29.5-25.5c-61.2,10.6-118.9-33.7-127.4-94.8C576,1675.1,601.7,1634.5,651.9,1607.2z M2061.4,1001.7
			c-0.4,92.6,70,164.3,161.4,164.3c89.8,0,162.2-72.1,162.3-161.7c0-89.1-73.2-162.6-162.1-162.6
			C2134.6,841.8,2061.8,913.8,2061.4,1001.7z M2296.6,1507.1c-69.7,21.5-137.7,12.9-205.5-2c-7.8-1.7-14.4-1.5-21.5,3
			c-40.3,25.9-76.8,19.8-112.7-11c-53.1-45.5-111.8-49.7-173.4-17.5c-42.8,22.3-79.4,53.5-118.4,81.4c-7.9,5.7-9.9,12.8-9.9,21.7
			c0.3,36.3,36.8,60.9,71.3,47.9c15.7-5.9,26.9-17.6,35.9-30.7c43.8-63.2,93.3-79.5,175.7-48.9c52.7,19.6,103.9,43,159.1,56.1
			C2182.2,1627.2,2242.9,1599.5,2296.6,1507.1z M265.5,2424.6c63-2.1,114-31.1,159.8-71.8c6.3-5.6,18.2-12,6-21.3
			c-12-9.2-11-37.9-37.6-25.9c-24.2,10.9-50,15.5-76.1,16.4c-41.8,1.5-78.3-10.6-103.6-46.4c-23.5-33.4-20.6-69.3,4.9-101.4
			c23.8-30,55-48.3,89.2-63c5.3-2.3,11.9-2.9,10.2-11.4c-2-10.1-8.7-7.2-15.5-6.4c-29.4,3.6-58.7,4.5-88-1.7
			c-50.8-10.9-50.9-10.8-68,38.8c-1.9,5.6-4,11.1-5.4,16.8c-20.4,79.8-19.7,157.1,29.7,227.5C193.7,2407,224.3,2426,265.5,2424.6z
			 M390.1,783.9c-4.8-29.5-10.6-58.3-7.7-87.9c4.6-46.1,50.9-71.9,90.4-50.2c15.6,8.5,23.7,23.2,30.8,38.8
			c13.1,28.8,17.9,60.3,27.1,90.5c3.4-1.1,5.1-1.3,6.4-2.2c8.3-5.8,15.9-12.8,24.8-17.3c11.8-6,13.3-11.5,5.9-23.1
			c-44.2-69.4-58.1-144.4-37.6-224.7c2.8-10.9,1.3-14.4-10.2-16.2c-59.7-9.2-115.8-0.7-166.8,32.9c-29.6,19.5-49.3,46.4-51.5,82.6
			C297.1,682.3,332.5,738.6,390.1,783.9z M807.8,597.1c0.9,15.1,3.9,33.3,8.5,51.3c2.7,10.6,6.6,16,18.5,15.7
			c12.7-0.4,16.7-5.7,18.5-18.1c4.6-31.2,16.1-60.2,35.1-85.6c25.3-33.7,61.7-30.1,79.7,7.5c12.1,25.4,18.1,52.6,19.6,80.4
			c1.4,25,21.5,15.7,33.8,19.6c11.5,3.6,21.9,3.2,26.5-13.3c10.7-38.2,26.6-74.5,45.9-109.2c3.3-6,5.3-11,1.2-18.4
			c-26.2-48.4-108.6-92.4-165.1-87.2C863.6,445.8,807.5,516.4,807.8,597.1z M164.9,940.5c0,95.6,60.7,144.1,154.1,123.4
			c7.5-1.7,17.4-2.1,17.3-10.9c-0.1-9.9-11.2-7.5-17.8-9.1c-45.1-10.8-67.3-36.9-70.2-83.2c-2.8-44.2,14-69.1,58.1-86.1
			c29.8-11.5,58.4-3.4,81.2,14.1c25,19.2,33.3,4.5,45.3-12.7c6.8-9.8,5.2-13.7-5.1-18.1c-27.2-11.6-52.6-26.3-74.3-46.9
			c-4.5-4.3-11.9-6.6-18.3-7.6C229.7,786.6,163.8,846.5,164.9,940.5z M616.7,726.5c7.7-15-0.1-23.7-2.8-32.8
			c-14.5-48.5-15-96.3,7.6-142.5c15.9-32.5,46.5-41.7,78.3-24.4c26.9,14.6,42.4,37.8,46.7,68.1c3,20.8,4.8,41.7,7.8,62.5
			c1,7.3-1.5,18.4,12.8,16.3c13.5-2.1,9.9-10.3,7.6-18.7c-18.5-67.6-7-130.2,33.1-187.2c7.8-11,4.7-15.5-5.2-21.1
			c-25.1-14.2-51.5-25.3-80-29.6c-71.9-10.7-123.3,20.2-147.5,89c-15.8,45-15.6,90.8-2,136.5C581.9,672.3,593.5,700.5,616.7,726.5z
			 M1544.3,1379.4c6.2-36.9,6.2-36.9-17.5-65.8c-63.5-77.4-62.8-185.6,2.4-250.8c14.1-14.1,39.5-23.1,44.2-39c5-17.2-9.3-39.5-13-60
			c-3.7-20.7-4.8-41.9-7.1-63.9C1377.9,1008.5,1373.6,1262.3,1544.3,1379.4z M844.9,2521.4c-0.7-5.9-1.7-16.7-3.2-27.6
			c-1-7.1-5.6-9.7-12.6-8.9c-6.5,0.7-8.1,4.8-8,10.4c0,3.4,0,6.8-0.4,10.1c-5.9,48.2-37.5,79.6-83.4,82.9
			c-44.2,3.2-81.1-25.6-93.3-72.1c-3-11.6-3.7-23.2-3.9-35c-0.2-15-13.8-13.1-22.2-15.4c-11.6-3.2-7.7,8.1-8.6,13.4
			c-5,29.4-13.2,57.9-31.3,81.6c-11.5,15.1-9.1,26.5-0.1,40.7c33.3,52.8,100.3,80.3,159.9,64.7
			C800.1,2649.9,843.5,2593.1,844.9,2521.4z M240.4,1747.4c-11.5,1.2-21.9-2.7-32.7,3.6c-66.2,38.2-107.7,139.9-86.3,213.1
			c18.3,62.2,85.6,99.7,162.1,89.2c7.4-1,24.1,3.8,19.2-14.3c-3.4-12.5,3.2-30.9-22.8-30.3c-55.4,1.4-87.8-26.6-94.5-77
			c-8.4-62.8,20.2-113.1,72.4-127.4c6-1.6,14.9,0,14.7-10c-0.3-14.3,1.8-29.9-3.3-42.4C264.6,1740.5,249.5,1750.7,240.4,1747.4z
			 M896,2301c-1.2-21-2-42-3.7-62.9c-0.7-8.3-3-16.6-5.6-24.5c-11.1-33.9-38.7-42-66.6-20.1c-17.8,14-29.7,31.4-33.6,54
			c-10.6,61.2-7.1,122.2,3.1,183c1,6.1,1.1,14.2,11,13.9c24.4-0.6,48.5-4,72.3-9.7c8.4-2,8.2-9.8,9.4-16.2
			C889.6,2379.8,894.8,2340.7,896,2301z M138.6,1217.4c-0.4,84.2,48,135.2,120.3,140.4c9.4,0.7,24.3,4.7,21.1-11.4
			c-3-15.1,19.3-37.2-11.7-45.6c-26.1-7.1-49.1-19.2-53.6-49.8c-4.8-32.2,10.9-54.8,35.7-72.6c14.4-10.3,30.5-17.1,47.5-21.8
			c22.3-6.2,18.5-27.6,18.9-41.6c0.3-12.9-16.2-4.7-24.6-4.4c-23.8,0.8-47.5,0.9-69.6-8.2c-13.4-5.5-21.9-2.3-31,7.2
			C158.7,1143.6,139.4,1183.3,138.6,1217.4z M219.4,1704.1c-3.3-2.9-5.4-5.4-8.1-7c-39.8-24-51-61.6-46-104.4
			c4.8-40.8,28.1-75,67.1-83.7c42.3-9.5,47.3-32.6,43.8-66.9c-0.8-8.3-0.9-17,0.2-25.2c1.4-10.7-1.9-14.9-13.1-15.7
			c-27-2.1-53.3-8.3-77.6-20.8c-7.8-4-12.2-2.6-16.1,4.9c-38.8,75-63.8,152.6-40.3,237.8C141.7,1668.1,169.5,1697.9,219.4,1704.1z
			 M911.8,2636.3c65.5-2.6,113.9-32,141.8-92.1c18.9-40.8,17.2-46.8-13.8-78.1c-3.6-3.6-7.7-6.9-10.3-11.1
			c-17.8-29.3-37.7-5.3-56.9-2.8c-19.9,2.7-13.7,16.9-13.7,28.7c0,41-21.2,71.5-54.9,72.5c-17.3,0.5-21.4,7.4-23.8,21.1
			c-1.3,7.4-4.3,14.5-7.1,21.5c-14.6,36.3-13.5,38.1,26.1,40.2C903.3,2636.5,907.6,2636.3,911.8,2636.3z M1565.4,1290.2
			c24.2-66.5,65.3-119.3,127.5-158c-34.1-16.3-62.6-35.2-84.7-62.2c-7.8-9.6-13.9-4.9-21.4-0.3
			C1510.4,1116.8,1498.9,1226.4,1565.4,1290.2z M696.1,1787.5c41,0.3,74.6-32,75.1-72c0.5-40.1-32.9-73.7-73.4-74
			c-39.9-0.3-72.1,31.3-72.7,71.1C624.5,1755.2,654.7,1787.1,696.1,1787.5z M443.8,2596c62.7,0,117.8-57.3,124.3-129.9
			c0.9-9.7,4.3-22.8-8.9-25.7c-15.1-3.3-10.1,12.5-12.4,19.3c-15.8,46.3-51.7,75-96.7,75.5c-45.1,0.5-82.4-24.9-97.5-69.9
			c-4.5-13.5-10.8-14.1-19.7-9.2c-9,5-27.5-2.1-24.2,20.5C318,2539.3,381.1,2595.9,443.8,2596z M697,1570.4
			c41.9,0,74.2-31.5,74.2-72.3c0-40.7-32.5-72.5-74.2-72.5c-40.9,0-71.5,30.3-71.9,71.3C624.7,1539.8,654.6,1570.4,697,1570.4z
			 M316.6,2279.1c16.8-0.9,33.4-2.6,49.6-7.9c13.6-4.4,19.6-10.1,10.5-25c-9.2-14.9-14.5-32.2-23.6-47.2c-9.7-16-4.5-45.3-27.8-47.2
			c-18.9-1.6-36.4,15.2-52.6,27.4c-6,4.6-12,9.3-17.3,14.7c-22.8,22.8-19.2,55,8.1,72.7C279.7,2277.1,297.7,2280.1,316.6,2279.1z
			 M894.6,799.1c0.4,0,0.9,0,1.3,0c0,26.1-0.3,52.2,0.1,78.4c0.2,10.1,0.6,20.5,15.2,21.5c13.2,1,22.5-1.9,27.6-15.6
			c7.2-19.3,9.1-39.2,9.8-59.5c1-31.1-4-62.8,3-93.3c5.4-23.5-2.5-27.8-24.2-28.8c-23.4-1.1-31.3,5.8-30.1,29.1
			C898.5,753.6,895.7,776.4,894.6,799.1z M510.4,2409.7c-1-12-23.8-19.7-38.6-32.4c-12-10.3-17,8.1-25.1,13.3
			c-14.8,9.5-27.6,22.2-42.7,31.1c-12.9,7.6-14.3,17.5-11.4,29.7c4.6,19.8,17.9,32,36.7,37.8C472.6,2502.7,508.5,2473,510.4,2409.7z
			 M712.3,655.7c-2.1-14.9-4.6-29.8-6.1-44.7c-1.6-16.4-5.7-31.1-19.4-42c-14-11.1-24-9.3-30.9,7.7c-15.7,38.7-12.2,77,2.3,115
			c1.6,4.2,2.8,8.9,10,9C693.9,701.3,713,681.9,712.3,655.7z M338.9,1003.7c14.5,0.7,47.6-39.9,48.1-59.1
			c0.3-10.6-33.9-31.8-52.8-32.7c-21.1-1.1-42.1,17.8-42.9,38.7C290,985.1,305.2,1002.1,338.9,1003.7z M489,801
			c-3-35.6-10.8-67.4-23.6-97.8c-4.7-11.1-8.4-25.9-25.8-21.7c-15.9,3.9-16.1,18-16.1,30.5c0.1,34.3,12.3,65.8,23.8,97.5
			c4.3,11.8,12.5,20.8,23.7,18.1C483.5,824.5,492.1,813.8,489,801z M270.1,1602.2c0.3,0,0.6,0,0.9,0c0-15.2-0.6-30.4,0.2-45.5
			c0.8-13.8-5.8-16.5-16.9-12.5c-22.7,8.1-38.7,22.9-45.6,46.8c-6.7,23.1-1.4,43.7,13.5,61.3c10.3,12.2,25.2,13.3,39.6,8.8
			c14-4.3,6.9-17.1,8-26.1C271,1624.2,270.1,1613.2,270.1,1602.2z M227.1,1912.7c0.3,35.2,15.4,52.9,42.9,54.2
			c13.6,0.6,20.1-2.1,17.3-18.3c-4.7-27.3-6.7-55-10.5-82.5c-0.9-6.7,3.6-16.7-6.9-19.1c-9.5-2.1-18.2,1.7-24.7,9.4
			C230.8,1873.4,229.2,1894.5,227.1,1912.7z M700.4,2484.9c-5,1.2-15.5-6.8-17.7,7.3c-3.3,21.9,18.5,50.2,41,53
			c27.7,3.5,50.2-12.1,53.5-37.2c1.5-11.3,0.9-19.2-14.6-19C742.6,2489.2,722.5,2486.5,700.4,2484.9z M1387,1655.1
			c7,0.1,40.5-28.4,40.7-34.8c0.2-5.3-40.3-41.5-46.1-41.1c-4.8,0.3-45.8,41.6-45.4,45.7C1336.9,1632.3,1374.9,1654.8,1387,1655.1z
			 M1327.1,1131.6c-5.3-8.8-8.5-14.6-12.1-20.1c-14.9-22.7-31.1-26.5-66.8-14.7c-22.2,7.4-13.9,27.3-15.9,42.5
			c-1.7,12.6,4.8,15.5,17,12C1274.1,1144.4,1299.2,1138.7,1327.1,1131.6z M1505.2,1546.1c-1.4-1.8-3-4.6-5.4-6.5
			c-12.4-9.8-25.1-19.4-37.6-29.2c-3.8-3-7.8-3.3-11.2,0c-12,11.5-28.6,21.5-34,35.6c-3.4,9,16.1,18.3,25.8,26.8
			c6.6,5.8,12.6,20.5,22.9,13C1480.3,1575.2,1491.7,1560.1,1505.2,1546.1z M1300.8,1504c-4,1.9-6.2,3.1-8.5,3.9
			c-23.5,7.8-18.5,23-10.8,39.6c6.7,14.4,10.4,37.4,23.4,39.3c14.8,2.3,24.2-19.9,36.9-30.4c3-2.5,8-6.7,4.5-10.2
			C1331.4,1531.6,1315.8,1517.8,1300.8,1504z M1383.8,1316.1c-38.9-38.8-38.9-38.8-70.5-18.9c-31.7,20-31.5,23.7,1.1,43.9
			c6,3.7,10.7,6.5,18.1,2.2C1349.1,1333.7,1366.4,1325.3,1383.8,1316.1z M1283.6,1186.7c15.6,11.6,29,19,39.1,29.7
			c18.8,19.7,33.9,6.4,47.1-4.9c15.4-13.2-5.8-20-8.9-30.2c-3.1-10.1-11-12.9-22-9.3C1322.3,1177.4,1305.2,1181.1,1283.6,1186.7z
			 M1340.5,1042.5c13.4,0.2,24.8-5.3,13.1-27.7c-3.8-7.3-5.3-15.9-8.2-23.8c-2.5-6.8-3.7-16.7-14.5-12.3
			c-13.5,5.6-30.9,7.5-36.9,22.6C1290,1011.4,1323,1043.3,1340.5,1042.5z M1339.3,1479.4c39.1,42.1,39.3,42.4,67.1,13.2
			c4.5-4.7,19.4-9.7,8.2-18.5c-11-8.6-19.4-28.5-39.3-17.5C1363,1463.6,1351.4,1471.8,1339.3,1479.4z M1457.5,924
			c14.2-12.9,28.1-25.8,42.3-38.4c6.5-5.7,4.1-11.3,1.9-18c-2.8-8.5-7.8-8.2-15.4-7.4C1425.2,866.9,1422.7,871.9,1457.5,924z
			 M927.7,582.8c-14.4,15.2-22.2,28.9-27.9,48c-8.3,28.1-8.2,26.9,21,29.3c20.3,1.6,27.1-4.4,23.2-24.7
			C940.6,618.1,937,601.2,927.7,582.8z M1538.7,1511.8c0-28.1,0-55.3,0-83.6c-56.9,39.8-57.1,49.6-3.6,83.9
			C1535.5,1512.4,1536.5,1512,1538.7,1511.8z M1573.3,752.4c-26.7,1.9-58.8,17.7-55.5,23.7c5.6,10.1-1.4,30.1,20,28.9
			c28.3-1.6,44.8-13.4,43-31.7C1580,764.4,1579.4,752.7,1573.3,752.4z M1301.6,1252.8c-21.6-15.6-41.6-30-62.2-44.9
			c-4.7,10.5-1.3,18.3,1,26.1C1257.3,1292.4,1246.7,1289.9,1301.6,1252.8z M1447.5,1362.1c-14.7-19.6-28.9-19.4-45.3-8
			c-9.6,6.7-20.6,11.3-31,16.9c-4.8,2.6-9.5,6.1-3.5,11.1c9.7,8.2,17.7,21.3,34,8.8C1415.5,1380.2,1431.3,1372.1,1447.5,1362.1z
			 M1471.8,783.3c-27.3,0.1-49.7,14.4-48.4,29.1c0.6,6.3-4.1,20.9,10,16.3c16.9-5.4,40.1,0.8,49-19.2
			C1484.9,804,1481.6,786.8,1471.8,783.3z M1426.7,1425c23.9,25.9,23.9,25.9,45.9,4.5c6-5.9,12.3-11.5,17.9-17.7
			c4-4.4,12.3-7.9,4.5-16.1c-5.5-5.7-10.6-7-17.5-2.5C1460.7,1404,1443.8,1414.4,1426.7,1425z M1509.1,725.4
			c13.6,0.2,45.9-15.1,43.5-20.6c-4.1-9.2-3.1-22.9-16.8-25.2c-11.8-1.9-42.2,17.8-40.3,26C1497.3,713.4,1496,725,1509.1,725.4z
			 M1554.2,1593.5c-2.8-5.7-2.1-13.6-8.6-17.3c-7.2-4.1-10.3,3.2-14.3,6.7c-9.3,8.4-18.3,17.2-27.1,26.1c-3.1,3.2-10.1,6.1-6.4,11.5
			c3.6,5.3,9.3,10.7,15.2,12.4C1521.9,1635.6,1554.8,1603,1554.2,1593.5z M296.3,1201.4c-17,6.9-31.7,14.8-38.6,31.3
			c-7.4,17.6,7.3,21.4,18.7,26.1c14.4,5.9,14.6-4.4,15.7-14.1C293.6,1230.9,299.2,1217.4,296.3,1201.4z M916,2486.3
			c-2.4-6.3,2.4-18.7-10.7-14.4c-8.4,2.7-25-2.2-21.6,16.2c1.6,8.9-0.7,21.8,14.1,22.3C914.9,2510.8,913,2496.4,916,2486.3z
			 M1422.4,973.9c-14,0-25.1,0-37.3,0c5.1,14.5,6.6,28.7,16.3,41.4C1408.2,1001.7,1414.5,989.3,1422.4,973.9z M1306,1449.1
			c12.5-7.9,25.8-15,37.6-24c6.2-4.8-1.5-8.5-4.8-11.2c-4.1-3.4-10-10-14.3-1.9c-5.8,10.9-14.1,18.5-24,25c-3.5,2.3-4.4,4.9-1.6,7.9
			C1300.4,1446.5,1302.9,1447.3,1306,1449.1z M1347.7,1086.1c10.6,10.9,14,24.4,26.4,32.5
			C1383.1,1081.1,1380.4,1077.3,1347.7,1086.1z"/>
		<path class="st1" d="M1917.3,1342.1c-38.6-0.3-64.9-26.7-64.2-64.4c0.6-36.3,28-62.7,65-62.7c37.3,0.1,65.5,28.8,64.5,65.9
			C1981.6,1317.9,1955.4,1342.5,1917.3,1342.1z"/>
	</g>
</g>
</svg>
