<?xml version="1.0" encoding="utf-8"?>
<!-- Generator: Adobe Illustrator 23.0.0, SVG Export Plug-In . SVG Version: 6.00 Build 0)  -->
<svg version="1.0" xmlns="http://www.w3.org/2000/svg" xmlns:xlink="http://www.w3.org/1999/xlink" x="0px" y="0px"
	 viewBox="0 0 3000 3000" style="enable-background:new 0 0 3000 3000;" xml:space="preserve">
<style type="text/css">
	.st0{stroke:#000000;stroke-width:10;stroke-miterlimit:10;}
</style>
<g id="Layer_1">
</g>
<g id="Layer_2">
	<g>
		<path class="st0" d="M2224.2,302.2c49.5-72.7,115.4-122.4,194.9-154c147.7-58.8,305.5-9,415.5,125.3
			c80.3,98,107.8,211.8,112.8,334.3c11.4,278.4,6.1,556.8-1.1,835.1c-5,193.7-0.1,387.7-11.3,581.2c-5.4,94.2-26.4,186.5-43.1,279.2
			c-10.3,57.1-22.4,113.6-41.6,168.5c-62.6,178.7-190.7,277.5-374.6,309.6c-122.5,21.4-243,9-362.5-20.1
			c-14.9-3.6-22.7-1.1-32.7,9.8c-128.5,140.8-358.4,94.4-424.8-86.3c-8-21.8-16.1-25.6-36.9-18.8c-26,8.4-53,15.3-80.1,18.9
			c-20.8,2.8-24.9,12.2-24.6,30.8c0.5,33.7-6,66.6-22.3,96.6c-43.2,79.2-126.5,104.2-212.5,63.2c-14.5-6.9-23.9-8.5-38.7,2.2
			c-49.7,36-103.7,31.4-156.7,7.7c-15.6-7-26.7-8.1-43-0.4c-87.5,41.2-200.4-19-217.6-121.2c-7.6-45.2-23.2-64.5-67.8-69.2
			c-28.7-3-57.6-25.9-84-22.3c-25.5,3.5-36,40.3-57.3,59.1c-61.3,54.1-131.5,80.3-213.5,74.7c-101.8-6.9-179.5-90.6-187.2-201.6
			c-4.5-63.7,7.6-123.7,42.4-177.5c11.9-18.4,6.3-24.7-10.7-31c-36.8-13.6-73.4-27.9-110-42c-83.7-32.2-117.1-134-69.1-210.4
			c9.6-15.2,20.8-30.2,38.4-35.1c22.4-6.3,27-19.5,26.3-41.1c-1.6-51.1,0.4-102.3-0.9-153.5c-0.7-25.3,9-41.2,32-50.2
			c7.3-2.9,14.5-6.3,21.2-10.3c18.5-11.1,43.6-18.5,53.3-35c10.9-18.5-16.6-32.8-24.9-50.4c-25.8-54.9-26-110.6-8.2-166.7
			c20.4-64.2,48.9-124.5,96.8-173.6c10.6-10.9,12.4-18.8,3.2-32.3c-53.6-78.9-85.5-163.6-65.5-261.2c3.7-18-7.9-31.9-14.6-46.9
			c-58.8-132.4-87.5-270.1-59.7-413.9C202.9,467.8,331.6,335.4,527,273.9c259.2-81.6,512.1-63.1,750.5,76.5
			c13.6,8,22.4,13.8,36.5-2.6c89.6-104.5,203.3-163,341.5-168.6c124-5.1,247.9,2.5,370.9,18.5
			C2103.8,207.9,2171.2,240.7,2224.2,302.2z M2419.4,393.2c55.7-12.7,102.7,3.2,140.7,44.8c30.7,33.5,46,75.1,56.4,118.6
			c22,91.8,23,185.3,20.6,278.7c-2.6,104.2-8,208.4-15.2,312.4c-7.6,109.9-19.7,219.4-56.9,324.3c-38.1,107.5-112.8,172.6-224.8,194
			c-61.1,11.7-60.8,10.9-54.3,75.5c1.4,13.7,5.6,18.4,19.5,18.6c29.7,0.5,59.1-1.4,88.1-7c153.5-29.8,214.3-99.3,239.6-227.5
			c11.1-56,19.5-112.5,23.5-169.3c13.1-183.5,23.3-367.3,24.2-551.3c0.4-83.6-3.5-167.1-11-250.5
			c-14.2-156.6-122.3-177.3-241.6-168.2c-3,0.2-5.7,4.8-8.8,7.1c-37.7-11-73.1,7.7-110,8.5c-6.6,0.1-18.2-4.4-18.9,7.1
			c-0.5,8.1,3.3,17.6,7.9,24.8c6.8,10.5,13.8,0.4,19.7-2.7C2350.3,413.7,2382.8,398.1,2419.4,393.2z M1814.9,1495.6
			c-3.1-1.5-6.2-3.1-9.5-4.4c-66.3-27.3-136.2-30.2-206-26c-102.3,6.1-193.7,40.8-268.2,113.9c-85.5,83.9-135.8,187.1-161.8,302.5
			c-5.9,26.1-17.4,24.9-37.7,20.6c-23.7-5-13.8-18.4-11.2-31.1c8.1-40.7,21.3-79.8,37.5-117.8c86.6-203.2,230.3-330.1,459.9-338.6
			c87.5-3.3,173.3,7,250.9,51.8c65.6,37.8,80.1,98.1,26.2,150.9c-43.8,42.9-52.6,82.1-41.5,140.4c21.1,110.8,2.3,221.3-22.8,330.2
			c-41.5,180-139.9,311.7-319.8,372.6c-94.2,31.9-191.1,32.6-288.4,19c-14.7-2.1-22.7,0.8-31.7,12.7c-25,33-54.4,62.1-85.5,89.5
			c-37.4,33-78.5,61-125.2,91.3c11.6,1.7,17,2.8,22.4,3.2c176.6,13.5,350.8-1.6,524.1-37.9c203.6-42.7,382.6-129.7,529.2-279.1
			c39.5-40.3,70.8-86.7,99.4-135.1c8.9-15.2,11.2-25.4-11.7-25.3c-6.8,0-13.7-1.2-20.5-2.4c-89.8-15.5-147.4-96.4-125.7-177.2
			c8.6-32.2,26.4-59.5,52.3-80.4c12.1-9.8,12.3-15.9,3-28c-18.6-24.3-24.9-52.8-22.4-83.5c7.4-89,76.9-152.3,173.7-155.5
			c20.1-0.7,27.2-3.8,23.7-25.8c-12.6-80-35-157.1-62-233.2c-5.9-16.7-12.8-14.8-25.6-7.8c-72.8,39.2-150.6,40.5-229.8,28.3
			c-10-1.5-27.3-1.7-18.8-20.2c5.7-12.5,0.1-34.3,29.6-28.6c55.5,10.6,112,9.7,166.2-9.1c76.6-26.6,109.3-89,86.3-165.3
			c-22.7-75.2-82.1-114.7-148.2-146.8c-134.3-65.2-278.5-81.1-425-81.3c-255.6-0.3-501.7,47.5-738.4,146
			c-182.9,76.1-355.3,167.6-499.9,306c-57.1,54.7-95,119.7-115.2,195.5c-19.3,72.6,2.9,136.4,63.1,175.6
			c42.3,27.6,88.3,45,140.6,43.7c54.1-1.3,108.2-3.1,161.8-11c12.2-1.8,19.4-1.8,22.4,13.8c6.2,31.9,5.7,34.1-27.8,37.5
			c-16.6,1.7-33.3,3.6-50,4.6c-90.5,5.4-181.4,13.1-263-39.8c-6.5-4.2-11.7-4.5-18.6,0.2c-22.5,15.3-45.6,29.8-69.4,45.2
			c4.6,2.3,7.9,4.5,11.6,5.8c121.1,41.7,176.7,142.9,226,249.5c2.8,6.1,3.9,13.2,5,20c5.7,36-19.8,61.7-55.9,56.1
			c-21.5-3.3-42.3-9.8-61.2-20.7c-28.1-16.2-54.8-19.6-81.6,2.9c-28,23.5-40,52.9-35,88.9c2.7,19.5,11.2,33.9,31.9,41.7
			c32.2,12,62.8,28.1,91.2,47.8c75.9,52.6,153,103.6,227.4,158.3c70.9,52.2,147.5,88.4,234,106.5c57.6,12,110.1,11.2,158.3-27.3
			c18.3-14.7,39.9-25.2,59-39c121.2-87.9,207.5-198.9,238-349.5c16.7-82.7,40.8-163.9,73.7-242c30.9-73.2,56.6-148.8,97.4-217.6
			c46.2-77.9,114.2-116.9,205-115.2c19.7,0.4,39.3,0.8,59,1.9c73.2,3.7,128.4-28.8,172.7-84.4c14.6-18.3,11.7-25.7-11.6-28.8
			c-56.8-7.7-113.9-9.5-170.8-5.5c-71.6,5-139.1,24.9-199.7,64.9c-101.3,66.8-150.4,168.2-185.3,279.1
			c-35.6,113.4-60.8,230.1-106.2,340.3c-83.9,203.9-236.3,312.6-456.9,325.4c-15.7,0.9-24.5-1.9-22.7-20.1
			c1.4-13.7-5.3-28.8,19.8-29.2c43.3-0.6,86.1-8.7,127.7-21.2c149.7-45,240-150.2,294.1-291.9c29.1-76.3,49-155.3,71.9-233.5
			c25.8-87.7,50.5-175.6,99.7-254.2c71.1-113.6,173.3-179.6,304.5-202.5C1688.6,1494.9,1751.1,1495.1,1814.9,1495.6z M2403.4,212.8
			c29.8,0,52.5-1.5,74.9,0.2c157.6,12.2,270.9,74.5,322.9,241.1c45.6,146.2,64.7,296,55.9,448.3c-15,258.2-48.6,514.3-99.1,768
			c-14.4,72.2-28.8,144.9-76.5,205c-7.3,9.2-4.7,20.8-5.2,31.5c-2.9,60.1-12.9,119.1-28.9,177c-16,57.7-54.7,91.8-111.5,106.2
			c-44.5,11.3-89.8,10.7-134.8,4.2c-12.4-1.8-22.4-1.1-33.5,5.1c-39.9,22.2-82.4,27.1-125.1,11c-18.7-7-25.1-1.2-32.9,14.4
			c-35.6,70.9-80.9,135.1-139.7,188.5c-15.3,13.9-11.4,20.7,0.4,33.9c62.2,69.8,83.1,150.5,55.6,240.8c-6.5,21.2-1.3,26.4,18.3,30.7
			c105.6,23.1,211.8,32.4,319.2,14.9c171.2-27.9,289.1-119.9,343.5-287.8c13-40.3,23.6-81,30.9-122.7c21.1-121,49-240.9,50.5-364.6
			c1.8-152.5,3.5-304.9,6.8-457.4c6.6-314.8,15.9-629.5-1.4-944.2c-7.4-135.3-67.3-244.6-176.3-326
			C2624.5,161.7,2500.1,153,2403.4,212.8z M2107.4,559.1c-2.1-2.6-3.4-5.3-5.6-6.7c-144.6-99.8-303.6-140.5-478.1-113.4
			c-56.5,8.8-104.6,29-125.1,91.7c-12.4,37.8-45.5,60.8-83.2,74.2c-50.4,18-102.7,29-156,26.8c-30.6-1.3-38.2,11.8-41.8,37.3
			c-12.5,90.8-7.4,180.1,16.6,268.8c5.5,20.2,11.6,25.2,33.6,22c151.1-22.3,302.8-34.5,455.7-21.6c56.7,4.8,112.6,13.7,170.3,24.9
			C1784.9,786.6,1890.2,573.4,2107.4,559.1z M2074.2,1032.5c45.1,25.6,86.7,55.6,115.4,99.2c44.9,68.2,56.6,139.5,14.3,213.7
			c-5.5,9.7-5.8,17.2-1.8,27.3c29.9,76,54.3,153.7,68.2,234.4c2.2,12.5,6.9,18.7,21.2,17.1c94.6-10.3,172-46.6,214.3-138
			c19.1-41.3,31.4-84.7,39.7-129.2c32.1-171.7,37.1-345.7,42.1-519.6c0.2-7.9,4-16.9-3-24.7c-32.1,72-84.1,103.1-149.8,90.2
			c-54.4-10.7-95.8-60.6-97.8-117.9c-2.1-59.2,34.8-109.3,92.1-124.9c64.4-17.5,116.1,11,157.1,88c2.3-44-1.2-85.9-7.4-127.5
			c-6.9-46.7-16.5-93.1-42.9-133.6c-26.5-40.7-62.1-55.1-108.8-45.5c-32.1,6.6-61.2,20-89.9,35.4c-18.1,9.7-25.3,21.1-21.6,42
			c7.8,44.8,8.7,90.1,3.1,135.2C2298.1,818.4,2208.2,938.2,2074.2,1032.5z M263.4,1060.3c124.3-168.7,296.2-213,492.8-194.4
			c-12.1-35.1-7.5-55.5,15.2-65.1c20.4-8.6,38.9-4.5,51.7,14.6c13.2,19.8,6.6,40.5-20.7,64.1c79.6,25.9,145,71.4,199.1,133.3
			c7.1,8.2,13.6,7.9,23.2,5.1c50.9-14.8,101.8-29.6,153.2-42.5c26.3-6.6,8-21.6,6.9-31.8c-1.7-16.7-12.4-9.2-21-4.5
			c-39.2,21.5-81.5,29.6-125.5,23.6c-79.5-11-137-54-166.8-128.3c-29.6-73.8-12.3-141.1,40.8-199.1c62.8-68.7,151.9-84.6,248.7-44.7
			c13.3,5.5,24.3,11.4,26.8-9.5c1.7-14.3,22.1-31.3-10.9-39.5c-80.4-19.9-161.3-34-244.4-34.8C655,504,418.2,601.5,219.7,794.6
			c-12.5,12.2-16.4,24.1-14.8,41.6C211.9,913.3,234.3,986.2,263.4,1060.3z M203.5,740.7c12.5-11,18.2-16.2,24-21.2
			C493.7,491.1,798.4,411.5,1142,483.1c24,5,50.8,21.1,70.6,14.6c22.2-7.2,24.4-42.1,38.7-62.9c1.1-1.6,1.6-3.7,2.9-5.1
			c18.5-19.7,11.4-30-10.5-42.6c-149.4-86.2-310.5-119.7-481.5-108.7c-130.2,8.4-254.9,36.7-363.9,113
			C279.9,474.2,218.2,589.8,203.5,740.7z M2261.6,630.2c2.8-1.9,5.5-3.7,8.3-5.6c7.5-43.9,0.3-87.5-8-130.4
			c-23.6-122.1-100.4-229.3-244.4-247.9c-114.2-14.7-229.1-20.9-344.1-18.3c-187.5,4.4-313.7,103.1-397,264.8
			c-14.7,28.5-28.6,57.5-36.2,92.1c58.7-2.9,114.2-8.3,166.5-30c26-10.7,44.1-29.7,53.9-57.6c13.5-38.7,40.1-66.4,77.8-84.2
			c39.9-18.8,82.4-25.2,125.4-28.8c217.2-18.3,400.5,58.5,559.6,201.5C2237.8,598.9,2249,615.4,2261.6,630.2z M2809.9,870.4
			c4.7-149.9-28.5-340.1-72.8-446.2c-32-76.6-89.5-122.9-167.1-145.8c-74.9-22.1-151-21.4-227.8-9.1c-24.2,3.9-42.9,11.9-55.7,32.2
			c-9.7,15.3-31.4,31.3-21.3,48c8.1,13.4,32.5,4.5,49.5,1.8c64.1-9.9,128.4-20.9,193.5-14.4c106.7,10.7,179.6,57.6,201.2,161.7
			c6.4,30.7,11.2,62,13.5,93.3c9.4,125.7,8.9,251.6,3.9,377.5c-7.1,178.7-13.2,357.5-39,535c-21.3,146.3-92.7,248.3-240.3,287.5
			c-44.8,11.9-90.8,17.1-137.1,17.6c-12.2,0.1-20.4,1.5-20.6,17.2c-0.7,44.2-2.2,88.5-4.5,132.7c-0.8,15.2,5.6,18.4,19,17.7
			c110.4-5.3,212.8-33.3,302.6-101.2c41.4-31.3,66.3-71.4,79.9-120.1c22.5-80.5,38.7-162.4,51.1-245
			C2770.5,1293,2801.8,1075.1,2809.9,870.4z M1236.1,2431.2c59.1,10.6,116.6,10.3,174.3,1.9c151.8-22.1,267.3-96.8,331.3-238.6
			c54.7-121,74.1-249.9,68.6-382.4c-1.4-32.4-4.8-64.7-12.4-96.4c-2.1-8.8-2.2-17.5-16.2-12.3c-46.4,17.2-94.6,13.8-142.9,11.9
			c-62-2.5-116.7,13.5-155.4,66.9c-12.5,17.3-19,25.9,9.7,34.7c92.8,28.6,137.1,103,122.2,197.9
			c-26.3,167.5-146.1,289.8-316.8,322.9c-10.8,2.1-21,2.4-26.4,14.7C1260.9,2378.5,1248.6,2404,1236.1,2431.2z M1894.9,2803.9
			c80.5,0.1,149-43.1,178.5-112.7c30-70.6,12.9-158.2-40.9-213.6c-10.2-10.5-16.9-15-31-3.6c-86.9,70.6-182.5,126.2-288.7,162.7
			c-15.8,5.4-18.5,11.5-12.9,27.7C1729.4,2749.7,1803.8,2803.7,1894.9,2803.9z M445.9,2757.7c43.7-1.5,98.2-25.5,142.9-70.8
			c36.2-36.6,35.7-37.1-6.2-65c-4.1-2.7-7.9-5.9-11.9-8.7c-79.7-55.8-159.6-111.1-238.8-167.5c-16.4-11.7-25.1-11.6-35.6,7.2
			c-20.2,35.8-32.9,73.6-35,114.5C255.4,2681.1,322.1,2758,445.9,2757.7z M958.3,1037.5c-38.1-38.7-76.5-72.3-124.4-92.3
			c-155.6-65-303.3-41.8-439.1,50.6c-122,83-145.9,201.8-75.7,332.7c27.3,51,27.3,51,69.9,15.1c3.8-3.2,7.4-6.6,11.5-9.2
			c14.1-8.9,19.1-19.4,13-36.8c-12.9-36.7-13.7-75.2-11.1-113.6c7.7-114,88-206.5,198.3-226.2c96.9-17.3,185.2,6.1,256.9,72.3
			c29.9,27.6,53.2,32.4,85.8,14.6C946.7,1042.9,950.3,1041.4,958.3,1037.5z M1295.4,2286.4c7.7-0.7,12.6-0.6,17.3-1.6
			c128.4-26.7,238.6-147.8,254.1-279c9.4-79.4-28.3-131.3-106-147.3c-12.2-2.5-19.6-2.8-25.5,10.6
			C1376.2,2002.9,1321.9,2138.3,1295.4,2286.4z M2013.9,834.4c-0.2,49,19.9,86.9,53.8,118.4c7.1,6.6,13.6,13.6,24.9,4.2
			c68.5-57,121.9-125,153.9-208.9c3.4-8.8,3-14.5-5.6-19.5c-49.3-28.7-100.2-33.7-152.2-9C2040,742.6,2013.4,780.9,2013.9,834.4z
			 M678.1,1002.4c-185.8-0.7-249.6,143.1-221.8,267.2c1.3,5.9,2.2,16.9,12.1,11.1c17.7-10.4,35.7-21.3,50.5-35.3
			c8.8-8.4-0.9-22.1-1.9-33.4c-4.7-53.1,12.2-97.3,57.7-126.5c45.5-29.1,97.1-27.2,134.1,7.1c35,32.5,61.1,25.3,94,6.8
			c6.8-3.8,14.3-6.5,21.8-8.8c16.8-5.1,17.7-11.5,4.2-22.9C778.8,1025.5,721.7,1003,678.1,1002.4z M2233,668.4
			c-13-19.2-25.5-32.6-43.1-40.5c-95.4-43.1-220.4,1.4-268.6,95.6c-48.1,93.9-12.5,217.2,78.3,270.9c10.5,6.2,23.7,17.8,33.6,3.3
			c7.6-11.2-8.7-16.5-14.7-23.6c-49.6-58.1-69.1-123.8-44.4-197.2c23.6-70,78-106,148.6-119.2C2158.8,651,2194.6,656.6,2233,668.4z
			 M2157.6,2149.6c14.6-1.5,32.2,5.1,39.3-16.1c18-54.1,32.9-108.7,37.3-165.8c1.1-14.7-4.5-16.7-16.9-13.1
			c-30.7,8.8-61.8,9.3-93.1,2.5c-4.6-1-10.3-1.6-14.2,0.3c-33.3,16.4-57.2,41.9-65.8,78.4c-8.3,34.8,4.2,63.7,31.9,86
			C2099.8,2140.8,2126.5,2151.7,2157.6,2149.6z M1132.1,897.1c-28.2,0.5-48.7,0.5-68.7-5.5c-48.6-14.7-88.1-63.4-88.5-109.9
			c-0.3-41.4,31.6-79.5,82-96.3c28.2-9.4,57.2-13.3,87.1-9.4c8.6,1.1,20,8.7,24.4-6.5c3.5-12-0.5-19.8-11.7-26.4
			c-59.5-35.1-156.2-38.6-211.7,28.7c-46.1,55.9-50.7,124.4-7.5,180.8C982.1,911,1061.1,931.6,1132.1,897.1z M2624.8,1923.9
			c-55.6,39-111.5,64.7-171.6,80.7c-12.7,3.4-14.3,9.2-11.1,21.2c6.6,25.1,4.8,50.4,0.6,76c-2.6,15.8-22.2,34.2-10.1,44.3
			c10.7,8.9,33.8,3.6,51.5,3.1c20.7-0.6,41-5.5,60.1-13.3c25.9-10.5,45.2-28.9,53.2-55.8C2611.7,2031,2622.5,1981.2,2624.8,1923.9z
			 M2239.7,1810.4c-0.6,0-1.2,0-1.9,0c0-22.6-0.4-45.2,0.1-67.8c0.4-18.2-8.4-24.2-25.5-23c-30.9,2.1-60.1,9-86.1,26.8
			c-39.1,26.8-58.8,83.3-42.3,121.8c15.4,35.9,61.6,52.7,112.1,40.7c3.8-0.9,7.6-1.9,11.5-2.6c23.6-4.7,35.1-17.4,32.3-42.9
			C2238.1,1846,2239.7,1828.1,2239.7,1810.4z M189.8,1948.1c-10.7-3.2-11.3,3.6-11.3,11.2c0.1,42.2,0.1,84.5,0,126.7
			c0,7.9,2.7,13.3,10.8,15.1c65.7,14.8,123.6,49.1,185.3,73.8c7,2.8,15.4,9.1,21.3,1.3c4-5.3-1.2-13-4.2-19.1
			c-25-51.4-54.6-100.2-92.2-143.2C270.5,1980.7,232.1,1960.5,189.8,1948.1z M984.1,2847.8c52.8-0.6,93.5-57.4,78.2-108.5
			c-2-6.6-5.1-10.1-11.9-10.6c-56.8-4.1-113.6-8.1-170.4-12.2c-11.4-0.8-14.9,3.3-14.3,15.4C868.4,2795.8,921.7,2848.5,984.1,2847.8
			z M1465.1,2724.5c-6.1-5.4,11.7-25.6-13.2-21.9c-39.6,5.8-79.1,12.3-118.8,16.7c-18.7,2-23.6,9.9-23.9,27.8
			c-0.4,20.5-4,41.4-13.9,59.8c-8.6,16.1-0.9,21.6,12.5,27.7C1385.4,2869.3,1461.5,2817,1465.1,2724.5z M2462.4,856.3
			c41-0.4,74.9-34.1,75.4-75.1c0.6-42.1-34.5-77.1-76.8-76.5c-43,0.6-75.6,34.5-74.7,77.9C2387.2,823.8,2421.1,856.7,2462.4,856.3z
			 M2288.9,2169.5c70.2,0.3,121-61.6,107.3-126.7c-3.5-16.7-9.3-25.9-29.2-22.8c-24.1,3.8-48.8,4.9-73.2,5.4
			c-13.2,0.3-18.2,4.5-21.1,17.8c-6.3,29.6-12.8,59.7-23.7,87.8c-9.9,25.5-0.8,33.9,22.2,36.6
			C2278,2168.4,2284.8,2169.1,2288.9,2169.5z M1152.7,2853.3c61.5,1.4,114.1-56.9,107.4-112.9c-1.6-13.6-9.2-12.6-18.2-12.4
			c-30.5,0.7-61.2,4.1-91.4,1.5c-32.1-2.7-44.5,7.2-40.2,40c1.6,12.1-0.3,26.9-6.3,37.3c-18.8,32.9,4.3,37.8,26.7,43.6
			C1139.2,2852.5,1148.2,2852.7,1152.7,2853.3z M1162,775.7c0-9.1-0.2-20.9,0.1-32.6c0.2-9-2.3-14.7-12.3-16.5
			c-39.1-6.9-75.8-2-107.9,22.9c-13.9,10.8-21.4,24.9-15.6,43.8c11.1,36.2,48.4,59,87.6,52.8C1158.4,839,1163.9,831.2,1162,775.7z
			 M229,2165.2c-22.7-7.7-38.9-14.5-56.6-17.1c-46.9-6.8-71.7,11.3-76.7,58c-2.1,19.6-0.8,39.1,6.1,58.1c8.5,23.7,27.4,34.8,49.2,43
			c9.3,3.5,15.1,2,14.1-9.9C160.6,2242.8,184.2,2200.8,229,2165.2z M696.3,1145.7c-30.3-29.4-60.1-36.5-89.1-22.8
			c-25.6,12.1-42.8,42.2-41.6,72.4c0.5,12.2,0.7,22.3,17.9,12.4C619.9,1186.8,657,1167.2,696.3,1145.7z"/>
		<path class="st0" d="M816,1427.8c130-0.4,231.5,19.3,333.7,33.3c30.1,4.1,60,11.4,90.2,13.7c21.5,1.6,20.2,13.2,18.2,27.6
			c-2.1,15.1-6.5,25.6-26.1,21.7c-29.9-5.9-60.6-7.5-90.1-14.5c-19.5-4.7-27.2,2.7-37.2,17.5c-95.5,142.5-298.2,132.7-379.7-18.7
			c-10.2-19-20.9-23.1-39.3-17.6c-6.6,2-14,1.5-20.1,4.2c-24,10.6-25.6-4.7-30.7-22.3c-6.9-23.9,7.9-23.3,22.8-26.4
			C718.6,1433.7,780.1,1427.2,816,1427.8z M845.9,1478c-19.6,0-39.3-0.1-58.9,0c-15.4,0.1-21.6,3.8-11.9,20.6
			c56.6,97.2,211,106.8,277.5,17c9.2-12.4,8.9-18.5-7.6-20.4C978.7,1487.9,912.9,1476.1,845.9,1478z"/>
		<path class="st0" d="M941.4,1829.1c-0.2,60.3-48.4,108.2-108.6,107.9c-60.3-0.2-107.8-48.3-107.5-109
			c0.3-59.8,49.3-108.8,108.6-108.5C893.2,1720,941.6,1769.2,941.4,1829.1z M829.2,1769.8c-26.2-1.2-53.7,27.1-54.9,56.4
			c-1.4,33.1,24.6,61.2,57.6,62.2c31.5,0.9,58.8-24.6,60.4-56.4C894,1796.7,868.5,1771.5,829.2,1769.8z"/>
		<path class="st0" d="M1133.7,1144.4c61-0.3,108.5,46.5,108.9,107.2c0.3,60.5-46.9,108.5-107.3,108.9
			c-60.6,0.5-108.5-46.7-108.9-107.4C1026.1,1192.2,1072.9,1144.8,1133.7,1144.4z M1134.9,1311.1c33.5-0.2,59.2-26.3,58.6-59.8
			c-0.5-31.8-26.2-57.6-57.8-58.2c-32.8-0.6-60,26-60.2,58.9C1075.2,1285.3,1101.3,1311.2,1134.9,1311.1z"/>
		<path class="st0" d="M755.3,2189.6c41.7,0,72.3,30.5,72.2,71.7c-0.2,41-31.2,71.6-72.9,71.9c-43.5,0.3-74.2-30.5-75.2-72.7
			C678.4,2225.5,715.5,2180.4,755.3,2189.6z"/>
		<path class="st0" d="M728.6,2492.3c-40.8-1.2-72.4-34-71.4-74.4c1-40.6,37.4-75,77.3-73c40.5,2,71.2,34.9,70.6,75.8
			C804.5,2463,771.9,2493.5,728.6,2492.3z"/>
		<path class="st0" d="M748.3,2073.9c-0.2-41.1,31.1-73.1,72.1-73.8c42.2-0.8,75.9,31.9,76,73.5c0,40.8-35,75.2-75.7,74.4
			C780.4,2147.2,748.5,2114.5,748.3,2073.9z"/>
		<path class="st0" d="M1938.6,538.3c0.4,27.7-20.1,48.5-47.9,48.5c-26.4,0-46.8-19.5-47.8-45.6c-1-26.6,20.3-49.9,46.5-50.7
			C1915.6,489.6,1938.2,511.6,1938.6,538.3z"/>
		<path class="st0" d="M1710.7,755.8c27.3-0.3,49.1,20.8,48.9,47.4c-0.2,25.4-20.9,46.5-46.6,47.3c-27.6,0.9-49.4-19.2-50.1-46.4
			C1662.3,776.8,1682.7,756.1,1710.7,755.8z"/>
		<path class="st0" d="M1731,679.8c-25.9-0.4-46.8-21-47.1-46.3c-0.3-26.2,22.2-48.6,48.7-48.6c27.5,0,48.2,21.1,47.8,48.7
			C1780,661.3,1759.7,680.3,1731,679.8z"/>
		<path class="st0" d="M2504.5,1092.7c0.6,58.3-45.8,105.8-103.7,106.2c-58.3,0.4-104.9-46-105-104.6
			c-0.1-57.6,44.5-103.3,101.9-104.4C2456.2,988.7,2503.9,1034.6,2504.5,1092.7z M2455.8,1094.8c0.6-29-24.1-54.4-53.8-55.4
			c-32.2-1.1-56.8,22.2-57.1,54c-0.3,30.3,23.1,54.9,52.9,55.6C2429.5,1149.9,2455.2,1125.8,2455.8,1094.8z"/>
		<path class="st0" d="M2439.4,1337.1c-0.3,36.5-31.5,68-67.6,68.1c-37,0.1-69.2-33.4-68.1-70.8c1.1-37.5,30.9-65.4,69.3-64.9
			C2411,1270,2439.7,1299.3,2439.4,1337.1z"/>
		<path class="st0" d="M790.5,691c-0.1,21.9-20.2,41.5-42,41.1c-20.9-0.4-39-18.6-39.7-39.9c-0.7-22.8,17.5-42.1,39.9-42.4
			C770.9,649.5,790.6,668.9,790.5,691z"/>
		<path class="st0" d="M873.6,607.2c-22.5,0.4-41.6-18.3-40.8-41.3c0.8-24.2,13.8-38.4,38.3-40.1c23.5-1.6,42.4,15.9,43.1,38.7
			C914.8,586.4,895.5,606.7,873.6,607.2z"/>
	</g>
</g>
</svg>
