<?xml version="1.0" encoding="utf-8"?>
<!-- Generator: Adobe Illustrator 23.0.0, SVG Export Plug-In . SVG Version: 6.00 Build 0)  -->
<svg version="1.0" xmlns="http://www.w3.org/2000/svg" xmlns:xlink="http://www.w3.org/1999/xlink" x="0px" y="0px"
	 viewBox="0 0 3000 3000" style="enable-background:new 0 0 3000 3000;" xml:space="preserve">
<style type="text/css">
	.st0{stroke:#000000;stroke-width:10;stroke-miterlimit:10;}
</style>
<g id="Layer_1">
</g>
<g id="Layer_2">
	<g>
		<path class="st0" d="M1094.1,2433.6c-32.7,43-72.8,60.7-124.3,45.9c-9.2-2.7-14.6,0.2-20.4,7.5c-58.1,72.3-136.3,82.5-221.4,71.1
			c-21.9-2.9-39.7-13.5-53.1-30.7c-5.6-7.2-8.3-12.1-17.7-3c-64,61.7-140.1,55.7-215.4,31.6c-49.7-15.9-75.9-58.8-87.1-108.7
			c-3.4-15.2-9.8-21.7-23.4-25.7c-35-10.3-68.4-24.6-98.9-44.8c-68.5-45.4-89.9-111.4-59.5-187.5c6.1-15.3,4.2-20.7-10.6-28.5
			c-55.4-29-81.5-76.8-80.1-138.6c0.4-17.1-2.4-29.8-13.2-43.9c-62.4-81.3-66.9-185.1-12.4-272.1c8.1-13,7.8-23.1,4.8-37.6
			c-10.9-53.2-12.4-107.8-7.1-161.5c3-30.3,24.1-54.3,48.1-73.3c10.8-8.6,15.6-13.9,2.1-25c-15.5-12.7-24.9-30.7-24.5-51
			c1.6-74.2,8.7-147,60.9-206.4c14.5-16.5,32-29.5,49.5-42.3c-0.3-1.8-0.1-4-0.9-4.6c-80.5-58.4-80.6-195-0.1-257.6
			c5.7-4.4,10.9-10.7,17.4-12.6c40-12,49.6-39.4,54.2-79.3c7.9-69.2,54.7-108.7,121.2-124.8c28.4-6.9,57.4-9.6,86.6-9.2
			c10.8,0.2,16.9-2.9,22.9-12.8c50.5-83.1,156-122.8,251.1-95c13.1,3.8,22.9,1.9,35.8-3.2c49.6-19.5,100.2-36.8,155.2-26
			c30.8,6,56.5,20.2,73.6,46.7c7.6,11.8,12.2,9.4,22,3.1c63.6-41,169.8-39,222,3.7c20.4,16.7,34.6,38.2,44.6,62.4
			c4.1,9.9,7.6,14.7,18.6,5.6c121.2-100,265.5-144.1,417-168.9c188.3-30.8,378.4-28.5,568.4-26.3c106,1.2,211.7,8.2,314.6,36
			c103.9,28,195.7,75.4,260,166c128.7,181.4,82.5,451.7-100.3,584.2c-25.4,18.4-51.7,35.4-83,50.4c36.1,28.2,68.1,56.2,96.2,88.2
			c88.2,100.2,134.9,218.7,144.5,350c17.4,238.3-32.2,462-169.1,660.2c-117.2,169.8-285.4,256.7-489,279.3
			c-127.6,14.2-255.1,8.9-382.7,3.2c-122.7-5.4-245.6-9.4-367.7-23c-91.7-10.2-182.4-25.2-268.2-61.5
			C1194.6,2517.4,1140.6,2481.5,1094.1,2433.6z M2241.2,2377.5c0,50.9-0.2,101.9,0,152.8c0.3,56.1,0.4,56.1,55,50.3
			c7.2-0.8,14.3-2.9,21.5-3.1c14.7-0.4,22.6-7.9,29.3-20.8c109.7-212.6,161.3-438.3,154.7-677.4c-2.5-90.9-40.7-163-114.7-216.2
			c-30.4-21.8-62.7-40-97.4-53.5c-124.4-48.5-252.6-71.7-386.5-57.5c-133.2,14.1-258.3,49.9-366.3,132.6
			c-75.6,57.9-128.7,128.8-140.9,227.9c-17.6,142.1-23.7,285-33.5,427.6c-2.1,29.8-4.3,59.8,2.2,89.3
			c18.2,83.4,75.1,127.9,172.4,136.3c112.7,9.7,225.9,13.2,338.6,21.4c51.5,3.8,84.6-15.4,116.2-48.5c3.4-3.5,6.8-6.9,9.9-10.7
			c34-41.6,64.8-85,73.5-139.7c12.2-76.9-25.2-133.3-76.6-184.4c-40.6-40.4-88.2-57-145-52c-32.1,2.8-64.6,2.4-96.9,2
			c-24.6-0.3-47.8-7.3-68.2-21.7c-46.5-32.8-47.8-95.3-2.8-130c22.9-17.7,49.1-28.1,77.3-32.9c105.7-18.2,211.4-14.2,315.3,9.4
			c94.5,21.4,150.7,94.1,158.1,190.4C2241.7,2238.5,2239.4,2308,2241.2,2377.5z M2048.7,1101.6c95.3,2.8,163.6,5.1,176.9,6.8
			c2,0.3,9,1.2,14.3-2.8c2.9-2.2,4.8-6.1,6.2-12.9c24.9-120.7-31.6-211.6-151.2-240.2c-89.3-21.4-168.1-7-229.1,68.4
			c-13.1,16.3-28.7,30.8-44.2,44.8c-26.8,24.1-58,41.1-92.6,50.9c-42.1,11.9-66.7-10.1-60.3-53.5c1.6-11.1,4.1-22.5,8.7-32.6
			c6.5-14.3,4.1-21.4-10.1-30.3c-45.7-28.5-75.5-69.6-89-122.2c-33.6-130.9,52-235.4,186-226.2c89.4,6.2,154,52,197.5,128.4
			c9,15.8,17.7,20.7,35.6,18.8c35.4-3.6,71.2-3.5,106.5,0.9c13.5,1.7,16.3-3.1,19.1-13.1c11.6-40.8,33.5-75.4,66-102.3
			c63.4-52.6,134.4-66,210.3-32.4c73.3,32.4,116.2,89.6,118.5,171.1c2.3,80.3-35.1,140.7-102.4,183.3c-7.9,5-17,7-11.9,21.4
			c21.2,60.4,25.7,123,21.1,186.4c-1.1,15.5,3.1,22.4,19.5,25.9c58.7,12.3,116,30.9,167.5,61.6c30.9,18.4,53.8,14.9,83.3-1.4
			c188.5-103.7,263.8-320.4,176.3-512.9C2818.4,571.3,2719,517,2602.4,485c-124.5-34.1-252.5-34.7-379.7-37
			c-71.5-1.3-143.5,0.7-215.2,3.6c-157,6.3-312.5,21.7-462.4,72.9c-181.2,61.9-309.8,174.5-360,366.3
			c-40.4,154.5,20.2,274.4,164.7,320.5c29.8,9.5,57.3,12.9,85.2-4.7c10.1-6.4,22.2-9.6,33.4-14
			C1655.1,1118.7,1850.5,1101.4,2048.7,1101.6z M1376,2538.7c-42.4-50.8-60.6-104.5-56.7-162.5c10.1-149.1,14-298.7,33.8-447
			c8.7-65.1,21.7-128.3,64.7-182.4c57.6-72.6,128.2-127.9,212.2-165.1c150.5-66.7,307.8-88.8,471.1-64.4
			c99.1,14.8,194.4,41.2,280.7,93.7c102.8,62.6,158.4,152.5,160.5,275.4c2.9,174.7-21.9,344.3-81.2,508.9
			c-19.9,55.3-43.3,109.1-70.3,165.3c53.8-13.9,100.6-34.4,145.9-59.3c17.6-9.7,27.1-22.6,32.9-41.7c64.9-212.9,85-430.4,68.7-651.7
			c-11.2-151.2-84.3-262.4-222.7-323.6c-268.3-118.6-540.1-115.2-809.8-5.5c-212.2,86.4-346.2,241.2-391.9,469.6
			c-36.2,180.9-28.6,358,34.2,532c2.9,8.2,4,17.5,13.7,21.7C1296.6,2516.9,1331.9,2530,1376,2538.7z M643.3,748.1
			c-4.9,1.7-8.8,2.8-12.4,4.4c-122,54.9-202,149.3-254.4,270c-3.9,8.9-1.7,15.5,1.5,22.8c71.3,159.3,192.3,257.3,366.1,276.6
			c171.5,19,310.4-47.9,415-185.5c7.5-9.9,7.5-17.2,1.9-27.8c-17.7-34.1-25.8-70.9-27.5-109.2c-3.1-68.4,12.6-133,38.7-195.5
			c5.5-13.2,4.2-18.6-9.8-24.7c-51.2-22.2-103.7-39.5-158-52.2c-43.9-10.3-42.7-10.3-49.9,34.7c-11.1,70.5-37.4,133.9-96.2,178.7
			c-42.7,32.6-87.7,30.3-128.1-4.7c-26.8-23.2-45.4-52.2-59.6-84.3C656.2,818.7,649.1,784.1,643.3,748.1z M1196.5,2463
			c-17.4-61-30.1-121.6-38-183.2c-14.4-111.7-6.9-222.3,14.4-332.5c29.3-151.6,95.9-281.9,214.7-383.2
			c85.6-72.9,183.7-122.5,290.3-156.1c12-3.8,18.6-8.2,20.6-21.9c9.9-68.6,21-137.1,31.9-205.6c2-12.8-0.7-17.1-15.1-14.4
			c-63.5,12.1-126.4,26.3-187.5,47.5c-156,54.1-292.6,137-391.6,272.2c-122.3,167-172.4,356.1-160.5,561.2
			c6.5,112.3,38.7,217.5,106.6,309.5C1113.6,2399,1149.7,2436.4,1196.5,2463z M489.2,2338.9c0-13.5-0.3-23.2,0-32.9
			c3-90.2,42.6-160.8,115-213.5c19.1-13.9,40.1-24.2,64.1-26.5c50.8-4.8,81.9,24,104.3,64.2c30,53.9,36.1,113.3,34.5,173.6
			c-0.4,16.3,0.8,21.9,18.4,14.3c47.5-20.6,92.5-45.8,136.6-72.7c9.9-6.1,10.1-12.1,7-21.8c-45.1-139.6-45.9-280.9-15.5-423.3
			c2.8-13.2-0.1-19.9-12.8-26.3c-68.1-34.3-139.9-55.5-216.1-56.1c-197.9-1.6-339.1,96.7-444.1,256.8c-4.7,7.2-6.3,14.6-4.4,23
			c19.4,86.3,45.4,169.9,97.9,242.9C403.9,2281.8,439.5,2315.9,489.2,2338.9z M2618,2437.8c6.5,1.7,9.1-1.8,12-4.3
			c39.1-34.1,75-71.5,103.4-115c130.7-200.5,183.1-421.2,154.7-657.8c-30.5-253.3-197-416.7-438-477.8c-13.8-3.5-18.5-3.2-17.3,13
			c5.5,78.9,10.4,157.9,14.5,237c0.8,16.6,7.7,25,21.7,33.1c113.2,65.1,185.1,161.2,203,291.2c24.2,175,13,349.7-17.2,523.4
			C2645.6,2333.7,2631.4,2385.7,2618,2437.8z M263.7,1921.8c5.6-5.1,8.2-6.8,10-9.2c47-62.7,102.1-116.6,169.2-157.6
			c11.3-6.9,11.1-16.3,11.1-27c-0.1-160.8,0-321.6-0.1-482.4c0-7.1,1.9-15.1-3.8-20.9c-39-40-71.7-84.6-99.2-140.4
			C268,1361.4,228.5,1635.8,263.7,1921.8z M1996.8,2590.1c68.5,3.9,131,3.9,193.6,0.5c15-0.8,11-11.3,10.9-19.2
			c-1.4-130-2-260.1-5-390.1c-2.1-91.4-56-152.4-146.6-168.4c-67.8-12-136.4-15.3-205.1-13c-38.6,1.3-77.4,5.7-113.4,21.7
			c-20.8,9.2-40.1,22.3-37.8,47.8c2.3,25.1,22.7,35.4,45,41.2c31.2,8.2,63,5.5,94,1.3c92.4-12.7,162.9,22.5,221.5,91.7
			c77.9,92.1,85.4,195.7,18.8,296.2C2051.8,2531.4,2029.1,2561.3,1996.8,2590.1z M2020.6,736.9c-28-0.4-82,8-133.6,28.9
			c-90.4,36.7-149.3,102.1-176.5,195.8c-1.5,5.2-5.4,11.1-0.6,15.9c5.4,5.4,10.5-1.1,15.3-2.6c47.5-14.6,82.5-46.8,113.2-83.8
			c57.7-69.5,132.1-95,220.1-86.1c168.2,17.1,250.8,134.9,231.1,271.9c-5,34.8-4.1,35.2,31.3,39.5c20.5,2.5,47.2,16.9,59.8,4.7
			c13.6-13.1,5.7-41.5,4.8-63.1c-3.8-86.1-25.3-165.9-87.4-230C2229.5,757.3,2142.2,738,2020.6,736.9z M2069.5,1145.8
			c-22.6,0.7-40.8-0.5-53.3-1.7c-17.7-1.7-35.5,0-53.2-0.8c-19-0.9-24.4,7.7-27.3,24c-10.2,58.7-20.6,117.4-32.6,175.7
			c-3.5,17.1-0.2,21,16.8,19.3c88-8.5,175.7-4.8,262.9,9.7c15.5,2.6,19.2-1.7,19-16.9c-0.8-62.9-1-125.9,0.1-188.8
			c0.3-17-6.6-20.7-21-20.6C2143.8,1146,2106.6,1145.8,2069.5,1145.8z M1193.5,1158.1c-50.1,68.4-110.2,120-183.1,156.1
			c-12.7,6.3-10.7,16.6-10.9,26.7c-2.4,100.1-4.6,200.1-6.7,300.2c-0.1,3.8-3.2,9.9,5.1,11.3c67.6-172,181-305.1,344.7-400.1
			C1284.1,1230.6,1233.3,1205.2,1193.5,1158.1z M2478.7,726.7c-1-8.3-1.4-18-3.5-27.4c-15.8-70.9-77.5-121.4-150.9-124
			c-70.2-2.5-140.9,49.3-161.4,116.7c-5.2,17.2,4.7,18.1,16,21.2c85.7,23.7,151.6,73.7,196.1,150.6c7.3,12.6,12.5,13.1,23.5,5.7
			C2448.9,835.7,2476.2,789.2,2478.7,726.7z M1747.5,591.6c-51.6,0.2-88,17.4-113.1,53.5c-46.9,67.8-15.9,186.8,57.7,223.8
			c9.1,4.6,12.6,2.3,17-5c48.5-78.9,119.9-126.6,208-150.8c12.5-3.4,13.5-7.9,7.1-18.1C1883.6,629.2,1826.4,592,1747.5,591.6z
			 M766.7,2286.6c0-59-12-109.9-34-144.2c-26.5-41.4-57.5-48.5-98.1-21.2c-77.4,51.9-111.4,124.5-103.5,217.4
			c1.2,14,6.5,18.9,19.5,21.4c54.2,10.5,108,6.8,161.1-5.5C776.8,2339.2,763.4,2350.6,766.7,2286.6z M2241.9,1263.7
			c0,33.9,0.5,67.8-0.3,101.6c-0.3,12.9,4.3,18.7,16.7,21.4c43.4,9.4,85.6,22.8,126.5,39.8c18.6,7.7,21.7,2.4,20.5-15.1
			c-5.2-74.8-10.5-149.5-14.1-224.4c-0.7-14.5-5.2-19.8-18.5-21.4c-37.6-4.7-75.1-9.7-112.6-15.1c-13.5-2-18.8,2-18.4,16.4
			C2242.5,1199.2,2242,1231.5,2241.9,1263.7z M849.7,707.4c-51.2,0.3-101.3,7.1-150.6,20.3c-9.2,2.5-16.7,4.6-15,17.1
			c7.2,52.7,21.7,102.5,56.5,144.3c36,43.2,71.4,45.1,110.4,4.5c44.6-46.4,62.2-104.2,66.8-167c0.7-10.3-2.3-15.1-12.6-15.6
			C886.7,710,868.2,708.6,849.7,707.4z M465.1,660.6c-22.3,2-38.5,2.6-54.4,5c-52.2,7.8-95,30.4-108.6,85.2
			c-15.1,61.1-2.1,116.7,45.2,161.3c4.6,4.3,10.7,6.9,16.3,10c10.1,5.5,17.3,3.9,23.9-6.7c30.5-48.9,67.4-92.4,111.9-129.2
			c3.9-3.2,10.8-5.2,6-13c-18.1-29.1-18.6-63-24.4-95.2C478.3,662.8,471.9,659.4,465.1,660.6z M1014.7,680.1
			c-0.5,6.8-0.7,7.4,15.2,11.5c53,13.6,105,30.1,154.1,54.6c8.1,4.1,13.1,4.3,18.4-5.7c16.4-30.6,37-58.5,60.2-84.4
			c5-5.6,9.1-10.8,5.6-19.2c-22.2-53.4-40.9-85-105.9-91.4c-27.5-2.7-54.7,1.4-81.3,8.4c-31.9,8.4-51.5,28.6-56.5,61.8
			C1021.5,635.7,1018.4,655.5,1014.7,680.1z M747.8,661.2c-2.1-32.6-4.8-64-5.7-95.3c-0.3-11.2-6.6-13-14.4-15.5
			c-67.7-21-160.7,13.3-198.2,73.2c-6.6,10.5-11.9,21.6-10.1,34.1c4,26.2,8.9,52.4,13.7,78.5c3,16.1,9.9,19.3,24.8,9.9
			c53.7-33.9,112.1-56.3,174.7-67.2C744.1,676.8,751,672.8,747.8,661.2z M519.4,2529.4c44.6,3.8,85.2-4,115.7-40.5
			c9.7-11.6,12.3-68.9,3.3-79.9c-3.5-4.3-8.9-3-13.6-2.9c-72.1,2-139-14.5-198.1-57.3c-9.2-6.7-13.9-4-18.7,4.7
			c-15.9,28.8-20.9,59.3-12.6,91C410.1,2500.8,446.1,2525,519.4,2529.4z M203.4,1403c10.7-6.3,29.4,9.3,33.3-13.4
			c12.8-76.4,32.6-151.2,48.7-226.9c1.4-6.7,5.6-13.6-4.5-18.3c-22.1-10.3-43.2-21.3-66.8-1.9c-13.7,11.2-28.3,21-40.8,34
			c-41.9,43.5-46.8,99.6-52.6,154.9c-4.2,40.1,9.7,57.8,49.2,67.1C180.8,1401.1,192.1,1401.6,203.4,1403z M169.4,982.5
			c4.9,29.9,0,66.9,38.7,84.6c26.3,12,52.9,23.4,79,36c11.2,5.4,15.2,2.3,18.9-8.8c13.4-40.5,28.6-80.4,47.6-118.7
			c4-8.1,3.9-12-5.7-16.1c-39.7-17.1-63-49.8-76.5-88.9c-6.8-19.6-15.1-18.3-29.6-10.4C194.4,886,170.6,925.9,169.4,982.5z
			 M876.2,2340.1c-61.9,27.5-122.2,50-186.4,60c-6.2,1-9.4,3.2-10.4,10.5c-8.1,61.4,31.8,109.5,92.4,110.2c14.5,0.2,29-0.8,43.5-1.9
			c40.1-3.1,71.5-22.9,98.1-51.8c6.4-7,11.4-12.8,2.1-22.2C888,2416.9,878.7,2381.4,876.2,2340.1z M197.1,1442.1
			c-58.4-2.6-106.7,44.8-105,97.8c1.1,33.8,2.7,67.7,4.4,101.5c1.1,23.6,12.9,39.3,36,45.8c17.8,5,35.9,9,53.6,14.4
			c17.7,5.5,25.2,2.4,25.2-18.8c-0.1-70.2,4.7-140.2,14-209.9c3.9-29.7,4.4-29.6-26.6-30.8C196.1,1442,193.7,1442.1,197.1,1442.1z
			 M784.3,601.4c1.4,16.9,3.7,33.8,3.8,50.6c0.2,15.5,7.2,18.2,21.1,17.3c38.7-2.4,77.4-1.9,116,3.1c46.5,6,46.5,6.1,55.2-39.2
			c1.5-7.9,2.8-15.9,4.4-23.8c8.4-42.7-15.6-77.5-59.1-85.9c-30.3-5.9-59.2,1.3-88.2,8.9C783.8,546.7,783.8,546.5,784.3,601.4z
			 M1896.6,1158.6c2.3-13.5-6.4-12.5-15-11.7c-27.3,2.5-54.7,6.7-82,6.8c-21.6,0.1-27,10.5-29.5,28.8c-7,51.1-14.8,102.1-23.2,153
			c-8.9,54.4-9.4,54.3,44.1,43.4c1.6-0.3,3.2-0.7,4.8-1c61.2-11,61.5-10.9,73.4-71.9C1878.7,1256.9,1887.4,1207.7,1896.6,1158.6z
			 M100.6,1952.1c26.9-40.6,61.4-66.8,107.5-75.4c10.6-2,9.1-9.5,8.6-16.7c-1.8-31.4-4.5-62.8-5.1-94.3
			c-0.3-14.6-6.7-18.7-19.5-21.7c-28.2-6.5-56.4-13.7-83.7-23.1c-12.9-4.5-15.5,2.9-20,10.1C46.6,1798.2,50.7,1884.9,100.6,1952.1z
			 M200.4,2253.8c-0.5,24.7,8.4,45.5,24.6,63.9c25.6,28.9,59.7,43.5,94.4,57.1c30.7,12,30.6,11.5,43.4-19.5
			c4.3-10.4,9.5-20.6,15.5-30c4.8-7.5,4.4-12.4-1.7-18.9c-39.7-42.3-70.1-90.7-91.8-144.3c-5.2-12.8-11.8-11.6-21.9-8.2
			C225.2,2166.5,202.1,2203.1,200.4,2253.8z M121.7,2031.4c1.2,6.5,2.2,18.7,5.6,30.1c9.1,30.1,29.4,50.2,56.4,66
			c24.2,14.2,40.9-0.2,59.8-9.7c2.1-1.1,4.4-2.2,6.8-2.4c12.4-1.4,13.7-8.5,10.3-18.8c-17.5-53.7-28.8-108.8-36.3-164.7
			c-2.1-16-7.7-17.1-21.8-12.4C155.2,1935.6,123.5,1976.3,121.7,2031.4z M916.3,2336.6c3.1,42.2,13.6,73.4,44.4,94.2
			c33.1,22.4,73.5,16.4,94.3-13.7c7.1-10.2,8.6-18.9,0.1-30.2c-14.5-19.2-26.7-40.1-40.2-60.1c-10.2-15.2-12.8-42.2-27.9-44.9
			c-14-2.5-31.2,16.3-47.8,23.9C922.1,2313.6,914.5,2325.3,916.3,2336.6z M546.2,1514.3c-9.1,3.9-22.4,9.6-35.6,15.4
			c-19.1,8.5-22.9,22-10.3,39.6c10.3,14.4,21.6,28.1,32.7,41.8c34.1,42.2,34,42,79.4,11.7c8.2-5.5,11.4-9.3,5-18.7
			c-18.4-27.3-36-55.2-54-82.8C560.4,1516.8,558,1511.1,546.2,1514.3z M727.2,1553.2c-3.6-5.9-6-10-8.6-14
			c-12-18.1-26-35.1-35.6-54.3c-11.2-22.1-23.2-22-43.5-11.8c-44.2,22.1-44.8,21-18.5,62.6c9.4,15,19,29.8,29,44.4
			c4,5.9,6.5,17.3,17.4,10.4C687.2,1577.9,709.6,1569.2,727.2,1553.2z M823.9,1493.3c-1.4-2.5-3.2-6.1-5.3-9.5
			c-10.4-17.2-22.2-33.8-30.8-51.8c-7.9-16.7-16.6-17.1-32-10c-50.5,23.2-50.8,22.7-20.4,68.3c32.1,48.1,35.9,48.7,81.7,13.3
			C820.2,1501,824.1,1499.4,823.9,1493.3z M742.4,1677.5c19.2,5.1,34.2-1.5,48.9-11c5.8-3.8,7.9-6.9,3.5-13.1
			c-14.3-20.3-24.4-48.7-43.9-58.8c-15.7-8.1-36.5,18-55.9,27.2c-2.2,1-4,2.7-6.1,3.8c-6,3.1-5.2,7.4-1.9,11.8
			C701.5,1657,707.8,1688.1,742.4,1677.5z M889.4,1602.1c-8.1-13.5-16.6-28.1-25.4-42.6c-16.4-27.1-16.4-27.1-43.5-11.3
			c-33.7,19.7-33.7,19.7-11.9,52.4c29.3,43.9,29.4,43.9,72.9,12.9C885.2,1611.1,891.1,1610,889.4,1602.1z M533.7,1398.5
			c34.9,64.1,34.9,64.1,94.5,35.6c0.7-0.3,1.4-0.8,2.2-1c9.7-3.2,11.7-7.1,6-17.5c-26.6-47.7-26.1-48-76.1-28.2
			C551.3,1390.9,542.6,1394.8,533.7,1398.5z M854.2,1378.9c-9.4,4.7-25.6,8.9-35.7,19.1c-5.7,5.8,7.2,17.5,12.1,26.3
			c5.8,10.6,11.6,21.3,18.7,31c5.1,7,5.9,22.9,18.7,17.4c16.8-7.2,31.7-18.8,47.1-28.9c0.4-0.3-1.6-5.7-3.4-8
			c-13.5-17.1-27.2-34.1-40.9-51C867.8,1381.1,864.7,1377.1,854.2,1378.9z M494,1265c0,25-1.2,46.6,0.3,68.1
			c1.7,24,13.6,30.6,36.2,22.2c8.3-3.1,16.8-5.8,24.7-9.8c8.2-4.2,23.4-2.7,23.3-13.1c-0.1-10.1-9.3-20.2-19.3-26.5
			C538.9,1293,518.4,1280.3,494,1265z M954.7,1531c0-13.5,1-24.9-0.3-35.9c-1.6-14.1-8.1-19.4-22.9-11.5
			c-49.4,26.1-49.6,25.7-21.3,73.8c3.6,6.2,8.2,12,11,18.5c4.7,10.9,10.4,8,18.6,4.1C964.4,1568.1,949.8,1545.8,954.7,1531z
			 M946.8,1732.8c7.6-21.3-0.2-36.4-9.7-51.8c-25.4-41-24.8-40.7-66.1-14.7c-11,6.9-10.8,11.9-4.4,21.9
			C885.8,1717.8,921.5,1714.3,946.8,1732.8z M666.5,1350.5c-6.7-2.9-13.7-0.8-17.3,4.2c-3.7,5.1,2.2,10.2,5.3,14.4
			c35.9,50.1,16,44.1,70.8,22.4c6-2.4,11.6-5.5,17.4-8.2c4.3-1.9,10.2-2.9,8.9-9.3c-1.1-5.8-5-9.7-11.4-10.8
			C715.5,1359.1,691,1354.8,666.5,1350.5z M959.3,1423.6c0-28.8,0-51.8,0-74.9c0-4.7,0-11-7.1-9c-16,4.5-35.7,6.5-44.9,19.7
			c-5.7,8.3,10.5,19.1,17.9,27.8C934.4,1398.1,941.1,1411.4,959.3,1423.6z M495.9,1417.7c0,27.3,0,49.5,0,73.3
			c10.3-4.2,18.2-7.7,26.4-10.7c7.6-2.7,10.4-6.4,5.3-14C517.6,1451.5,508,1436.3,495.9,1417.7z M592.2,1681.9
			c0.6,2.1,1.2,4.1,1.8,6.2c17.3,2.8,33.9-5.5,51-6c17.5-0.5,19.8-6.9,9.3-21.2c-6.1-8.2-10.4-10.4-19.2-4.8
			C621,1665.1,606.5,1673.3,592.2,1681.9z M495.2,1631.1c0,21.4,0,38.5,0,56.1C536.6,1669.8,533.3,1676.6,495.2,1631.1z"/>
	</g>
</g>
</svg>
