<?xml version="1.0" encoding="utf-8"?>
<!-- Generator: Adobe Illustrator 23.0.0, SVG Export Plug-In . SVG Version: 6.00 Build 0)  -->
<svg version="1.0" xmlns="http://www.w3.org/2000/svg" xmlns:xlink="http://www.w3.org/1999/xlink" x="0px" y="0px"
	 viewBox="0 0 3000 3000" style="enable-background:new 0 0 3000 3000;" xml:space="preserve">
<style type="text/css">
	.st0{stroke:#000000;stroke-width:10;stroke-miterlimit:10;}
</style>
<g id="Layer_1">
</g>
<g id="Layer_2">
	<g>
		<path class="st0" d="M1831.8,669.6c95.6,3.6,191.1,7.2,286.7,10.6c159.6,5.8,291,68.9,389.3,195.3
			c88.9,114.3,194.8,208.9,317.4,285.3c9.5,5.9,18.5,12.8,27.9,19.1c124,83.8,137.6,200.3,102.5,315.3
			c-18,58.8-47.2,112.5-81.5,163.3c-60.1,89.2-117.9,180.3-190.8,260c-99.5,108.9-216.8,190.5-360.5,230.8
			c-198.6,55.7-401.3,68.5-606.2,59.2c-105.4-4.8-208.5-26.9-312.6-41.4c-190.6-26.6-371.2,6.9-542.3,92.5
			c-68.3,34.2-138,56.9-215.3,46.5c-73.2-9.9-142.5-32.2-207.2-67.8c-152.8-84.2-267.5-204.5-337-365.1
			c-73.3-169.5-57.6-327.2,62-473.6c167.7-205.3,369.4-368.4,601-495c181.2-99.1,371.8-174.2,576.1-210.9
			c120.7-21.7,242.7-25.9,365-26c41.8,0,83.6,0,125.4,0C1831.8,668.3,1831.8,668.9,1831.8,669.6z M1837.2,2152.7
			c12.5,0,21.3,0.2,30,0c102.1-3.3,203.6-12.8,304.6-28.4c191.5-29.5,355.1-110.7,480.7-260.2c77.1-91.7,146-189.7,205.4-294.1
			c18.8-32.9,35.1-66.8,44.6-103.7c24.5-94.6,8.4-177.3-81.5-236c-9.4-6.1-18.3-13.2-27.8-19.1c-130.3-81.3-241.7-182.9-336.3-304.1
			c-83.6-107.1-196.3-161.6-331.2-167.3c-142.2-6-284.5-10.3-426.7-12.3c-167.7-2.3-333.9,10.8-495.9,58.6
			c-263.7,77.8-502.8,203-716.5,375.4c-114.8,92.6-219.4,195.6-305.4,316.7c-68.2,96.2-81.3,199.8-47,309.5
			c57.3,182.8,177.2,314.8,344.1,404c122,65.2,243.2,77.1,374.1,8.2c174.9-92,365.1-118.8,561.9-91.1
			c110.5,15.5,220.1,38.1,332.1,42.9c18,0.8,27.3-4.1,35.2-20.2c44.6-90.2,65.2-185,51.7-285c-20.6-152.4-96.3-266.2-242.1-324.9
			c-180-72.6-385.6-23.2-528.2,124c-8.5,8.8-17.2,24.2-30.1,7.6c-9.9-12.7-43-16.6-17.9-45.7c-15-3.5-28.2-6-41.2-9.6
			c-66.9-18.3-105.3-62.9-109.4-127.6c-2.2-35.4,0.2-70.6,8.5-105.4c18.7-77.7,58.8-113.3,138.1-121.3c13.2-1.3,26.7-0.7,40-1.4
			c89.7-4.7,158.9,46.5,180.9,134.2c5.3,21.1,9,42.5,8.8,64.3c-0.1,14.9,3.3,19.9,19.6,14.4c38.9-13.2,79.4-19.8,120.3-23.7
			c42.7-4.1,41.6-4.7,47.9-47.3c21-141.3,114.2-196.6,251.6-184.5c73.5,6.5,131.2,86.8,135,169.5c3,63.4-17.2,120-47.4,174.2
			c-3.5,6.3-11.4,12.7-3.3,21.4c13,14,25.8,28.2,38.9,42.1c0.4,0.4,4.1-1.9,6-3.3c34.7-25.4,75.1-35.5,116.3-42.7
			c67.4-11.8,133-7.7,194.9,24.2c94.8,48.9,122.8,165.6,58.1,245.2c-29.1,35.8-67.4,59.3-112,71.6c-49.3,13.5-99.5,17.8-150.4,15.5
			c-8.5-0.4-19.6-5.3-20.5,11.4C1891.6,2005.8,1872.9,2079.3,1837.2,2152.7z M1961.7,1858.7c40.6-1.5,97.8-5.7,145.9-41.9
			c83.1-62.6,46.5-146.7-12.4-177.5c-81.9-42.8-164.7-29.7-245.3,8.3c-12.7,6-14.1,13.9-7.3,26.9c22.9,43.7,37.6,90.2,45.9,138.9
			C1896.2,1858.8,1896.6,1858.7,1961.7,1858.7z M1046.4,1302.4c-8,0-16.1-0.4-24.1,0.1c-56.9,3.6-78.7,21.8-91.8,76.9
			c-6.4,26.8-8.5,54-7.3,81.4c0.9,20.2,4.6,40.4,20.4,55.1c33.9,31.5,78,30.3,119.7,36.9c20.2,3.2,28.9-14.9,43.1-22.7
			c15.4-8.5,29-21.3,45.1-27.6c26.9-10.5,36.3-27.9,31.2-55.3c-1.9-10.2-1.6-20.8-3.3-31.1C1166,1332.4,1131.3,1302.7,1046.4,1302.4
			z M1756.4,1384.7c0-4.8,0.3-9.7,0-14.5c-4.5-58.1-43.7-112.1-90.5-113.3c-112.9-2.8-172.9,37.6-180.8,159.4
			c-0.7,10.8,1.3,17.2,14.6,19.2c73.2,11.1,141.5,35.5,202.6,78.2c7.9,5.5,11.9,4.9,16.4-3.7
			C1739.3,1470.7,1756.4,1430.3,1756.4,1384.7z"/>
	</g>
</g>
</svg>
