<?xml version="1.0" encoding="utf-8"?>
<!-- Generator: Adobe Illustrator 23.0.0, SVG Export Plug-In . SVG Version: 6.00 Build 0)  -->
<svg version="1.0" xmlns="http://www.w3.org/2000/svg" xmlns:xlink="http://www.w3.org/1999/xlink" x="0px" y="0px"
	 viewBox="0 0 3000 3000" style="enable-background:new 0 0 3000 3000;" xml:space="preserve">
<style type="text/css">
	.st0{stroke:#000000;stroke-width:10;stroke-miterlimit:10;}
</style>
<g id="Layer_1">
</g>
<g id="Layer_2">
	<g>
		<path class="st0" d="M296.5,1062.3c-56.1-26.7-106.5-61.9-145.3-111.4C56.5,830.3,35.1,696,92.6,555.2
			c57.2-140,166-219.9,317.2-239.8c27.4-3.6,54.9-4.3,82.4-4.3c378.8,0.4,757.6,0.5,1136.4,1c177.8,0.2,305.5,79.9,380.5,242.1
			c1.1,2.3,2.7,4.4,4.2,6.8c1.2-0.6,3.1-0.8,3.3-1.6c38.1-107.7,118.2-170.3,224.5-198.2c147.7-38.6,298.1-40,447.9-13
			c117.8,21.2,198.3,87.2,225.9,208.1c6.5,28.4,12.4,57.1,16.6,86c13.6,91.3,14.2,183.5,16.1,275.6c5.2,252.2,8.9,504.5,3.7,756.7
			c-3.9,189.2-7.6,378.5-23.9,567.4c-13.1,151.6-86.1,264.6-210.9,345.7c-235.7,153.1-518.8,136.8-736.8-40.4
			c-5.3-4.3-10.7-8.3-17.2-13.2c-55.5,91.3-143.9,115.9-241.1,122.3c-146.5,9.7-292.7,8.8-437-20.9c-33.1-6.8-56,0-83.7,19.3
			c-122,84.9-258,96.6-400,66.9c-23.6-4.9-47.2-11.1-68.3-22.5c-25.1-13.6-50.3-13.2-77.3-10.1c-127.6,14.6-252.5,1.6-373.9-40.6
			c-100.2-34.8-172.3-138.3-171.4-243.9c0.3-30.3,9.3-57.1,28.3-81.2c42.2-53.7,77.7-111.1,97.3-177.5c9-30.6,3.9-56.4-20.2-77.1
			c-19.9-17.1-25.9-41.1-30.5-64c-12.5-62.2-22.9-125-31.9-187.8c-5-35,3.5-68.8,22.9-98.6c7.8-12,7.1-20.3-0.4-32.1
			c-135.1-212.6-91.3-457,108.6-609.9C288.5,1072.8,294.6,1070.4,296.5,1062.3z M1272.9,2588.3c6.4,2.3,9.5,4,12.8,4.6
			c157.7,30.1,316.6,30.9,475.7,15.6c39.5-3.8,77.2-15.5,110.9-38.7c49.3-34,72.8-84.5,87.3-139.1c36-134.9,58.2-272.5,72.1-411.2
			c13.3-133,9.5-266.6,5.7-400c-3.5-120-45.9-224.5-123.7-315.3c-9-10.5-18.7-15.7-33-16.5c-116.9-6.6-233.7-15.5-350.8-15.2
			c-15.7,0-21.1-4.1-20.5-20.2c0.6-14.8,1.5-23.9,20.6-23c55,2.5,110.2,2.4,165.2,4.8c77.4,3.4,154.6,9,232,11.9
			c45.2,1.7,76.7-21.4,95.5-62c36.6-78.9,8-173.4-65.7-219.8c-8.8-5.5-13.4-5.8-20.9,2.1c-15.5,16.1-31.6,31.8-49.1,45.7
			c-78.2,62.4-169.1,83.3-267.5,82.9c-234.2-1-468.5,1.8-702.7-1.3c-101.8-1.4-193.6,25.7-279.8,75.2
			c-169.3,97.2-243.6,245.5-231.2,439.1c1.2,18.6,4.6,28.8,28.4,26.7c114-10,228.1-18.2,342.3-25.9c15.3-1,17.9-7.6,20.3-19.8
			c23.7-120.4,120.4-195.9,242-189.4c113.5,6.1,204.4,98.4,212,217.7c1.2,19.4,8.1,21.2,24.3,21.3c82.9,0.7,164.6,11.9,245.2,31.7
			c70.8,17.4,110.7,62.4,119.2,134.6c13.2,111.2,1.2,221.7-10,332.3c-1.2,11.4-5.9,14.3-16.8,12.8c-17.5-2.4-32.3-5.2-25.1-29.1
			c2.7-8.9,2.4-18.7,3.2-28.2c8.1-88.3,16.2-176.6,8.1-265.5c-6.6-72.8-29.9-100.8-100.2-117.8c-68.8-16.6-138.9-23.6-209.3-29
			c-30.1-2.3-45.3,4.7-57.3,36.1c-36.1,94.7-132.5,149.1-235.7,139.3c-96.9-9.2-179.8-85.3-198.9-182.8
			c-2.4-12.3-2.6-22.5-21.2-20.9c-87.4,7.4-175,13.1-262.5,19.6c-27.2,2-54.3,4.7-84.2,7.3c10.9,15.1,20.2,27.2,28.7,39.7
			c8.8,12.9,16.3,27.4,17.7,42.6c2,21.5,14.2,29.7,32.3,37.3c155.3,65.4,220.8,190.7,186.3,352.7c-4,18.8-21.2,43.1-10.3,54.1
			c10,10.1,37.5,2,57,4.1c19.1,2,28.9-6,38.3-22.2c21.1-36.4,50.3-66.4,88.1-85.1c115.2-56.8,230.4-57.9,337.7,16.4
			c105.1,72.8,141.5,179.7,131.9,304.2C1332.7,2483.1,1309.8,2537.3,1272.9,2588.3z M1310.1,1050c11.2,0,20.5,0,29.9,0
			c104.2,0,208.3,0,312.5,0c215-0.1,380-203.2,336.2-413.8c-35.1-168.4-173.8-279.9-350.3-280.1c-391.7-0.4-783.4-0.2-1175.1-0.2
			c-11.2,0-22.4,0.4-33.5,1.1C243.4,367.6,99.9,527.2,105.7,717.4c5.6,183.8,159.5,332.6,344.2,332.6c165.3,0,330.6,0,495.8,0
			c63.7,0,127.4-0.1,191.1,0c11.4,0,22.3,1.7,22.3-16c-0.1-58.5,7.1-116.8,5.5-175.5c-0.9-31.8-16.1-54.2-41.4-70
			c-28.9-17.9-61.1-27.7-95.4-27c-72.9,1.3-129.6,34.7-175.5,89.6c-11,13.2-23.6,27.3-43.7,18.3c-18.6-8.3-21.6-26-20.8-43.7
			c3-66.9,29.7-123.1,79.9-167.4c51.7-45.7,115.2-54.4,180.9-55.6c134.1-2.4,226.5,71.9,257.5,202.2
			C1325.2,886,1330,966.3,1310.1,1050z M2905.2,1436.7c0-177.3,1.8-354.7-0.7-532c-1.3-94.5-4.3-189.1-18.8-283.1
			c-18.7-121.3-73.8-207.7-202.7-230.9c-3.4-0.6-6.7-1.4-10.1-1.9c-126-19.8-252-18.4-377.5,3.6c-76.4,13.4-145.8,42.6-195.6,105.1
			c-41.5,52-63.4,110.5-43.1,177.9c12.5,41.6,28.1,50.3,69,37.1c39.2-12.7,78-26.7,116.3-42.1c62.2-24.9,123.7-52.7,190.6-62.1
			c71.3-10,139.9-6.6,190.8,55.4c27.8,33.9,38.8,74.7,44.7,116.6c13.4,95.7,11,192.3,14.6,288.6c2.4,63.8-0.1,127.6-12,190.3
			c-30.8,162.8-121.5,290.7-242,398.5c-90.5,80.9-200.6,101.6-318.5,86.6c-19.9-2.6-28.4-0.3-26,21.8c1.8,17,2.3,34.7-0.1,51.6
			c-3.4,24.3,7.9,30.9,29.3,32.2c74.1,4.5,148.1,3.8,221.3-9.7c208.7-38.3,368.9-163.4,411.7-395.4c16.2-87.9,33.2-175.6,43.7-264.5
			c15.8-133.2,20.6-266-8.3-398.1c-13.8-62.9-35.9-122.8-79.1-171.7c-76.9-87.1-176.4-99.8-283.7-79.4
			c-90.6,17.2-173.9,54.2-251.5,103c-20,12.6-22.1-1.4-30.3-11.5c-9.9-12-6.4-17.9,6-25.3c92.4-55.1,189.3-98.6,296.8-113.2
			c169.7-23,292.1,49.3,353.9,194.6c34.3,80.6,46,165.5,50,251.7c7.9,174-19.5,344.5-53.4,514.4c-18.5,92.4-49.5,178.9-111.3,251.9
			c-7.7,9.1-8.1,18-5.7,28.6c6,26.2,6.5,52.9,6.5,79.6c0,175.5-107,311-276.1,347.3c-44.2,9.5-88.7,17-132.9,26.8
			c-61.9,13.7-126.4,17-190.1,8.6c-22.4-2.9-29,4.1-32.9,25.3c-16.5,90.3-25.6,182.3-60.1,268.6c-4.6,11.6,0.5,17.1,8.5,23.6
			c223.4,183.3,504.6,193.8,731.5,21.4c81.4-61.9,136.4-142.3,151-246.5c8.1-57.2,13.6-114.6,15.8-172.2
			C2902.9,1884.2,2911.4,1660.6,2905.2,1436.7z M640.7,2648.1c-66.9-57.1-102.5-122.5-108.6-203.1c-1-13.8-1.6-23.4,16.7-23.4
			c15,0,26-0.9,27.2,20c4.6,82.8,44.5,146.9,115.1,187.6c144.5,83.4,295,88.6,444.1,14.9c155.8-77,207.5-258.2,121.6-408.9
			c-97.9-171.9-327.2-151.6-410.9-63.5c-57.6,60.6-67,132.8-60.4,210.7c2.5,29.8,13.6,55.4,38,73.2c39.7,28.9,84.2,42.5,133.5,36.4
			c44.7-5.6,69.2-34.3,69.9-80c0.3-21.7,20.7-17,31.8-22.2c10.8-5,9.3,9.6,10.6,15.6c6,26.7-1.2,51.6-16.2,73.5
			c-38.3,55.9-93.7,64.5-155.5,54.1c-92.3-15.4-149.8-71.1-155.9-152.9c-1.7-22.2-0.2-44.7-0.4-67.1c-0.2-19.9,16-46.3,2.2-57.3
			c-12.7-10.2-39.7-1.5-60.2-3.5c-19.3-1.8-28.6,6.4-37.7,22.7c-42.8,76.4-102.4,137.6-173.8,187.9c-12.2,8.6-17.5,7.1-26.3-4.5
			c-11.9-15.8-10.1-23.4,6.4-35.2c96-68.3,167.3-155.5,198.1-271.4c36.9-138.8-18.5-253.6-148.9-310.2c-6.7-2.9-16.2-13.3-22.3-2
			c-8,15-15.1,31.4-17.8,48c-2,12.1,12.6,19.3,19.7,28.6c109.5,144,86.9,345.4-78.1,445.5c-70.5,42.7-151.5,47.5-228.4,66.5
			c-17.2,4.2-21.9,8.2-16.8,24c22.5,69,60,125.3,130.8,152.8c58,22.6,118.7,34,180.2,41.7C523.2,2653.5,577.8,2653.2,640.7,2648.1z
			 M2037.7,736.6c-8,65.9-26.4,125.4-61.8,178.6c-6.5,9.8,1.8,11.3,6.9,14.7c16.6,11,31.4,24.1,44.8,38.8
			c73.2,79.9,71,217.2-4.1,286c-18.7,17.2-41.9,25.4-67.3,34.1c54,65.7,90.7,137,109.8,217c13.5,56.5,15.1,114.2,16.9,171.8
			c0.4,13,2.8,20.6,17.5,22.8c105.7,15.6,204.2,0.6,290.5-66.8c44.4-34.7,80.4-77.9,115-121.8c81-102.8,128.4-218.5,132.1-350.9
			c3-109.4-2-218.6-7-327.8c-1.6-35.1-8.5-69.9-19.9-103.6c-14.6-43-43.7-68.5-87.9-78.2c-49.8-10.8-97.7-0.6-144.7,13.7
			c-79,24.1-152.8,62.1-231.9,86.4C2108.7,762.9,2072.6,767.1,2037.7,736.6z M447.9,1096.2c-27.5-3.8-52.3-5.6-76.3-11.1
			c-14.3-3.3-25,0-36.1,7c-193.9,122-250.7,358.4-133.4,556.7c4.6,7.7,6.4,28,21,16.7c13.9-10.7,43-5,39.3-37.8
			c-20.4-178.3,29.5-336.5,139.9-476.7C416.5,1133,431.6,1115.8,447.9,1096.2z M2145.8,2145.2c0,1,0.1,2,0.1,3
			c36-2.9,72.1-4.7,107.9-8.9c51.3-6,76-28.5,89.5-78.9c14.7-54.8,7.5-109.2-2.8-163.6c-2.1-11.1-8-12.6-18.4-11.1
			c-74.4,10.7-149,13.5-223.9,5.5c-11.2-1.2-15.5,1.4-15.9,13c-2.6,74.8-8.7,149.3-20,223.3c-2.3,15.2,3.9,18,16.4,17.8
			C2101.1,2145,2123.4,2145.2,2145.8,2145.2z M1019.9,1638.2c55,0,110-0.5,165,0.3c17.3,0.3,24.3-3.5,23.2-22.9
			c-5.3-99.1-95.1-178.3-194.1-173.8c-93,4.3-174.6,82.6-178.1,177.3c-0.6,15,4.5,19.4,18.9,19.2
			C909.9,1637.8,964.9,1638.2,1019.9,1638.2z M2370.4,2112.7c185.5-20.3,296.2-195.1,259.1-364.3c-65.2,58.7-140.6,97-224.1,118.7
			c-22.5,5.9-24.9,15.3-20.7,35.5C2399.2,1973,2400.9,2042.9,2370.4,2112.7z M834.6,804.5c10.8-9.7,18.3-16.6,26-23.3
			c80.5-69.8,199.3-82.7,283.4-30.3c39.9,24.8,63.6,59.5,63.2,108.2c-0.4,49.9-0.9,99.8-4.8,149.6c-3.2,41.4-2.6,39.9,38.1,41.9
			c21.3,1,27.9-7.5,31.4-26.3c14.8-78.6,8.9-155.8-14.1-232c-24.5-81.2-77.6-129.4-161.9-142.7c-27.5-4.3-55.1-3.6-82.4-2
			C917.3,652.9,848.2,712.5,834.6,804.5z M673.5,1095.2c-51.9,0-103.8-0.1-155.7,0.1c-7.4,0-12.2,5.8-17.1,10.7
			c-137.6,136.5-211.7,298.2-198.5,495.4c1.8,26.1,7.9,37.4,37.9,39.6c26.9,2,25.9-5.5,24.1-25.8
			c-15.7-180.4,44.3-329.1,187.4-442.4C589.3,1143,631.9,1121.4,673.5,1095.2z M213.5,1932.9c10.6,46.9,11.8,91.2,47.8,123.9
			c15.8,14.3,20.8,36.3,20.7,59.3c-0.4,57.8-28.3,105.5-54.7,153.7c-17.3,31.7-38.6,60.9-61.1,89.3c-5.3,6.6-12.1,15.1-8,23.3
			c5.1,10.5,15.2,2.5,22.8,1.6c28.5-3.5,55.5-12.3,80.3-26.6c71.3-41.1,113.1-101,107.1-185.5c-4.9-68.4-31.8-131.6-56.3-194.9
			c-2.6-6.6-7.4-9.3-13.7-9.9C268.6,1964,242.3,1951.7,213.5,1932.9z M263.9,1695c-80.7,39.9-91.6,143.4-24.5,201.9
			c38.1,33.3,100.3,36.8,144.3,8.3c45.1-29.3,65.6-85.5,50.1-137.8c-14.3-48-62.9-85.8-110.5-86.9c-12.3-0.3-17,3.1-16,15.9
			c2.5,32.7,14.4,61,42.6,78.4c22.9,14.2,5.6,25.8-0.2,37c-9.4,18-19.2,2.5-26.5-2.8C285,1781.9,267,1743.3,263.9,1695z M847,1680.6
			c-0.3,3.9-1,5.7-0.5,7.2c21.8,70.4,93.1,123.6,168.9,126.2c77.5,2.7,153.3-46.5,179.5-115.4c6-15.8,1.4-18.4-13.7-18.3
			c-63.6,0.6-127.2,0.3-190.9,0.3C942.5,1680.6,894.7,1680.6,847,1680.6z M363.9,2329.7c150.5-72.2,182.4-251,85.7-383.8
			c-13-17.8-23.6-23-41.5-6.1c-9,8.5-21.8,14.9-34,17.7c-19.9,4.6-18.4,13.3-12.2,28.9c12,30.3,22.1,61.5,32,92.6
			C421.9,2166.7,422.9,2251.5,363.9,2329.7z"/>
		<path class="st0" d="M1930.5,1935.6c2.3,58.3-8,129.9-16.4,201.6c-1.4,12-7.8,16.3-16.8,11.8c-9.3-4.6-29.2,5.8-26.4-17.8
			c5.2-43.5,11.3-87,14.1-130.7c8.1-128.4,1.9-256.8-22.3-382.8c-27.7-144.7-122-221.9-269.1-232c-29.3-2-58.5-2.4-87.7,0.3
			c-16.7,1.6-20.4-6-21.3-20.7c-0.9-14.2,0.8-21.4,18-22.6c95.6-7.1,187.4,3.1,270.2,56.2c90.9,58.2,127.2,148.5,140.3,249.8
			C1924.7,1739.1,1930.6,1830.1,1930.5,1935.6z"/>
		<path class="st0" d="M1800.9,1908.8c-0.3,74.1-7.2,147.7-19.1,220.8c-2.3,14.1-3.5,23.3-23,19.7c-19.1-3.6-23.4-10.9-20.1-28.8
			c18.4-100.3,22.3-201.6,18.9-303.3c-2.2-63.6-8.4-126.8-23.8-188.9c-23.7-95.4-64-133-184.9-116.9c-6.8,0.9-14,1.6-20.1,4.5
			c-21.8,10.3-23-6.5-28.1-19.8c-6.7-17.8,5.5-19.5,17.4-22.2c41.4-9.6,83-13.9,125.2-4.9c50.1,10.8,87.8,37.5,109.7,84.7
			c25,53.8,34.3,111.5,41.3,169.6C1801.6,1785,1801.9,1846.9,1800.9,1908.8z"/>
		<path class="st0" d="M2322,1483.9c-76,0.5-138.4-60.5-139.4-136.2c-1.1-78.2,60-138.3,141-138.8c74.3-0.4,134.9,60.8,135.3,136.7
			C2459.3,1421.7,2398.2,1483.5,2322,1483.9z M2415,1345.7c-0.1-53.6-41-94.4-94.4-94.2c-52.8,0.2-95.1,42.5-94.8,94.8
			c0.2,51.9,43.2,94.5,95.6,94.6C2373.8,1440.9,2415.1,1399,2415,1345.7z"/>
		<path class="st0" d="M2411.2,1133c-64.3-0.2-110.6-47.6-110.4-113.3c0.2-64.1,47.9-110.2,113.8-109.8
			c62.7,0.4,109.2,48.1,109.1,111.9C2523.6,1086.5,2476.4,1133.1,2411.2,1133z M2413.5,951.8c-38.1-0.6-69.5,29.2-70.8,67.1
			c-1.3,39,29.5,71.5,68.4,72.2c38.9,0.7,71-30.9,70.9-69.8C2482,983.4,2451.5,952.5,2413.5,951.8z"/>
		<path class="st0" d="M2486.1,682.9c51.4,0.2,93.7,42.7,93.3,93.7c-0.4,51.3-42.6,92.7-94.3,92.7c-52.1,0-94-41-94.5-92.6
			C2390,724.5,2432.6,682.6,2486.1,682.9z M2535.4,775.5c-0.1-27.7-23.4-50.8-51-50.6c-27.7,0.3-50.2,23.4-50,51.5
			c0.2,28.1,23,50.7,50.9,50.5C2513.1,826.6,2535.5,803.6,2535.4,775.5z"/>
	</g>
</g>
</svg>
