<?xml version="1.0" encoding="utf-8"?>
<!-- Generator: Adobe Illustrator 23.0.0, SVG Export Plug-In . SVG Version: 6.00 Build 0)  -->
<svg version="1.0" xmlns="http://www.w3.org/2000/svg" xmlns:xlink="http://www.w3.org/1999/xlink" x="0px" y="0px"
	 viewBox="0 0 3000 3000" style="enable-background:new 0 0 3000 3000;" xml:space="preserve">
<style type="text/css">
	.st0{stroke:#000000;stroke-width:10;stroke-miterlimit:10;}
</style>
<g id="Layer_1">
</g>
<g id="Layer_2">
	<g>
		<path class="st0" d="M1519.4,2285c74,100.4,64.8,193.1-21.5,248.1c-88.5,56.4-212,27.5-258.9-60.5c-46-86.3-4.2-174.8,107.3-223
			c-81.5-50.9-89.2-123.9-62.3-206.9c-4.3-1.1-7.3-2.6-10.2-2.5c-70.4,3.4-70.4,3.5-61.9,72.3c26.8,216.1-91.4,387-304.5,434.9
			c-123.9,27.8-249,45.5-377,31.9c-230.3-24.4-342.4-179.2-355.8-354c-9-117,47.6-204.2,145.4-265.9c4.5-2.8,9.3-5.2,13.9-7.9
			c4.6-2.6,9.1-5.4,16.4-9.6c-57.2-31.4-106.8-69.2-148.8-116.7c-86.1-97.6-125.5-214.6-135.7-341.3
			c-14.3-176.8-11.6-353.6,18.6-528.9C109.9,807,161,669.1,259.1,552.4C380.8,407.7,541.8,345,725.9,335.1
			c158.6-8.6,317.4-10.6,475.4,11.8c121.6,17.2,240.3,45.9,356,86.8c18.1,6.4,32.6,7.1,50.7-2.1c85.9-44.1,178.3-63.3,274.4-63.8
			c151.3-0.7,302.7-1,454,0.1c344.8,2.3,616.3,271.7,620.5,616.4c1.9,154.5,1.1,309.1,0.1,463.6c-1.1,180-69,331.5-200.3,454
			c-16.5,15.4-18.1,24.7-6.7,44.4c52.6,90.2,82.7,186.7,72.3,292.6c-11.5,117.2-71.2,200.3-178.1,249.5
			c-77.6,35.7-161.4,45.8-244.5,58.4c-77.9,11.8-156.5,22.1-235.2,11.2c-154.1-21.5-260.2-123.6-296.6-281.7
			c-14.2-61.8-17-124.5-12.3-187.4c1.6-22.2-10.3-23.4-26.3-25.3c-15.3-1.8-26.1-2.5-29,17.7c-18,123-112.7,211.3-257.8,203.9
			C1536.2,2284.7,1529.9,2285,1519.4,2285z M2448.5,1828c-16.5,0.9-28,1.6-39.6,2.1c-157,6.8-281.4-85.5-309.4-229.5
			c-33.5-172.3,57.6-345.7,219.4-415.9c70.7-30.7,144.7-42.4,221.6-33.6c11.2,1.3,27.3,8.5,25.1-15c-8-86.9-32.7-165.1-110.4-216.3
			c-65.8-43.3-137.2-73.6-215.5-83.4c-166.7-21-322.4,1.7-452.8,119.8c-43.2,39.2-70.6,84.3-79.9,144.1
			c-14.1,91.2-64.3,156.3-157.9,180.8c-73,19.1-147.2,23.1-221.9,15.5c-20.6-2.1-28.5,0.6-27.8,23.3c1.6,45.8-0.4,91.7,0.8,137.5
			c7.7,308.3,248,555.2,556.1,566c153.3,5.4,306.9,1.3,460.3,1.6c11.2,0,20.6-1.8,27.6-12.1
			C2383.5,1955.9,2419.8,1897.4,2448.5,1828z M2493.4,1997.4c8.4,6.3,13.2,2.2,17.9,0.8c231.7-67.9,403.1-295.5,405.2-540.8
			c1.4-159.8,1.4-319.6,0-479.4c-2.6-302.4-249.1-558-551.3-566.9c-169.2-5-338.9-5.2-508.1-0.1c-197.8,6-351,98.5-462.4,261.1
			c-91.2,133.2-100.7,284-94.8,438.2c0.5,12.5,7.7,14.7,18.2,17.3c81,19.9,165.3-9.9,215.6-76.8c22.4-29.9,43.3-60.8,59.1-94.6
			c35.1-75.3,92-129.3,162.1-171.3C1946.1,670,2149.2,649,2364,701.7c123.9,30.4,222.3,89.9,275.8,210.1
			c38.6,86.7,55.4,178.6,59.4,272.9c8.6,205.9-42.3,400.7-111.9,591.8C2559.8,1851.9,2529.4,1926.3,2493.4,1997.4z M1519.8,1953.5
			c-7.5-6.9-10.3-10-13.6-12.6c-167.6-132.6-249-305.5-246.4-519.3c1.9-157.7,0.7-315.4,1.4-473.2c0.1-14.7-1.4-23.5-19.1-25.7
			c-121-15.5-241.9-21.9-362.7,0.3c-153.7,28.4-265.3,106-304.9,265.8c-3.6,14.4-7.2,29.2-13.7,42.4c-12.4,25.4-3.9,32.4,22.2,39
			c83,21,151,63.1,181.4,149c13.4,37.9,13.5,77.4,10.5,116.9c-8.2,107.2-63.7,182.5-161.5,222c-93.6,37.8-185.6,20.5-252.8-52.8
			c-41.8-45.5-81.4-50.7-133-39.6c-5.2,1.1-10.5,1.9-15.7,2.8c-61.5,10.3-61.2,10.1-26.7,66c82.5,133.6,208.6,201.1,357.2,229.7
			c231.2,44.6,464.6,59.8,699.5,37.6C1333.8,1993.3,1424.9,1978.5,1519.8,1953.5z M1536.3,471.4c-8.4-4.1-12-6.6-16-7.7
			c-45.9-13.5-91.5-27.9-137.8-39.9c-232.6-60.4-469.2-63.5-706.4-42.6C525.2,394.4,395.5,456.8,295,572.8
			c-78.3,90.4-125.5,197-153.5,312.2c-49.9,205.4-47,413.6-32.4,622.5c2.4,33.7,13.2,49.5,49.5,54.1
			c101.9,13.1,162.7-22.4,195.5-120.5c4.4-13.1,7.9-26.5,11.9-39.7c21.1-69.4,24.8-142.2,42.1-212.6
			C479.7,898.2,683,730.7,982.2,717.6c100.6-4.4,199.9,2.9,298.2,25.1c11.2,2.5,24.6,12.8,34-8.4
			C1362.3,626.7,1436.4,540.4,1536.3,471.4z M637.3,2542.9c45.8,1.1,108-8.4,170.1-17.3c80.3-11.5,159.6-28.1,228.4-74.9
			c110.9-75.3,161.1-222.3,130-372.7c-4.6-22-10.8-30.9-34.6-28.1c-49.8,5.8-100,5.7-149.9,2.6c-22.5-1.4-30.6,4.8-34.9,28.2
			c-17.2,95-95.3,164.2-191.7,173c-53.5,4.9-106.4-0.1-158.3-13.7c-44.8-11.8-73.5-40.8-85.3-86.1c-11.8-45.4-4-88.9,13.5-130.9
			c6.2-15,2.8-19.5-11.9-23.4c-32.8-8.7-65.2-19-97.6-29.4c-8.3-2.6-14.9-4.6-24-0.7c-73.3,31-132,77-160.8,154.1
			c-47.7,127.7,20.5,297.6,146.1,366.8C452.5,2532.3,535,2543,637.3,2542.9z M2247.3,2393.2c-14.8,0-35.1,1.2-55.2-0.2
			c-113.3-7.9-191.7-72.1-220-180.8c-10-38.2-14-77.4-12.1-117.1c0.6-12.6,7.7-31-16.6-27.3c-18.3,2.8-46.6-15.1-48.5,25.1
			c-2.8,60,0.2,119.3,13.8,177.6c36.9,158,152,249.1,313.9,251.1c52.5,0.6,104.1-6.4,155.7-13.7c83.1-11.7,166.7-21.5,245.1-55.1
			c79.8-34.2,133.1-92,151.7-176.9c24.8-113.2-6-216.9-62.6-314.6c-2.5-4.3-6.5-9.9-10.6-10.8c-14.2-3.1-64.9,44.8-64.5,60.3
			c1,38.5-2.2,76.5-8.1,114.5c-21.6,138.6-110.2,232.7-246.1,258.8C2340.2,2392.3,2296.5,2395.6,2247.3,2393.2z M2388.9,2019.9
			c33.6,4.4,51.3-5.5,64.9-33.2c67.5-138.2,121.1-281.6,160-429.9c43.6-166.2,64.3-334.8,27.6-505.6
			c-20.4-95.2-53-184.5-135.9-245.5c-55.5-40.9-120.3-56.9-186.1-71.4c-206-45.4-397.5-12.5-573.1,105.4
			c-48.4,32.5-88.2,73.5-113.1,127.4c-16.6,35.9-38.2,68.8-61.2,100.8c-53.2,74.1-125.1,109.1-216.3,105.3
			c-58.4-2.4-57.4-2.1-56.3,57.1c0.4,20.4,8.9,24.1,26.6,25.9c51.2,5.1,102.3,3.3,153.1-2.4c122-13.7,169.8-59.7,191.6-180.8
			c6.9-38.4,21.9-73.3,47.3-103.3c66.7-78.6,149.7-134,249.2-158.8c143.8-35.9,286.1-31.9,425.3,27.8
			c124.3,53.3,198.7,140.2,212.3,278c18.5,188.3-4.9,371.7-55.9,552.7C2514.1,1792.9,2464.5,1909.9,2388.9,2019.9z M130.3,1598.7
			c-0.8,28.6,10.8,38.7,38.6,34.2c43-7,86.4-15.6,129.7-15.7c86.5-0.1,122-48.6,142.3-125.5c29.9-112.9,68.4-223.4,101.2-335.5
			c40.6-138.9,135.5-219.7,270.5-259c123.8-36.1,250-32.6,376.5-21.6c24.3,2.1,52.8,14.7,71.7,6c22.3-10.3,13.5-46,24.2-68.7
			c9.2-19.5,3-26.8-18.3-31.3c-113.4-24.1-227.5-33.4-342.7-17.7c-149,20.3-277.5,79.2-371.5,201.4
			c-73.7,95.8-104.9,207.9-122.9,324.6c-10.5,68.5-23.7,136.2-50.5,200.3c-28.5,68-80.6,104.4-154.1,112.1
			C193.3,1605.6,162.1,1600.1,130.3,1598.7z M1543.5,2245c111.6,2.8,191-55.3,214.1-151.7c6-25,4.9-40.6-27-46.2
			c-49.4-8.7-95.8-28.8-139.8-52.8c-14.1-7.7-26.2-9-42.1-5c-65,16.3-130.6,30.4-197,39.8c-9.9,1.4-18,3.2-22.7,14
			c-30.8,70.9-32.1,157.1,77.7,183.7C1453.4,2238.2,1501.3,2240.9,1543.5,2245z M2484.8,1731.5c-3.7-1-4.7-1.6-5.7-1.5
			c-7.4,0.8-14.8,2.2-22.2,2.6c-83.9,4.7-155.9-20.3-208.5-88.1c-83.1-107-59.4-244.9,56.2-330.5c71.4-52.9,153.5-76.4,240.9-84.2
			c9.9-0.9,24.6,5.8,25.9-14.2c1.3-20.4-11.9-22.9-26.3-23.3c-30.8-0.9-61.8-2.6-92.5-0.5c-148.5,10.2-271.6,109.9-306.2,252.5
			c-26.6,109.7-16.5,212.5,78.3,290.4c56.9,46.7,124.7,56.8,195.5,53C2471.6,1784.9,2471.6,1784.4,2484.8,1731.5z M2593.8,2014.1
			c-48.8,13.7-48.8,13.7-53.8,61c-10.5,99-87.8,190.3-182.9,215.9c-133.8,36.1-267.4-51.5-297.8-198.1
			c-5.9-28.3-20.8-25.4-40.1-25.7c-24.4-0.5-16.5,17.6-17.2,29.2c-1.1,19.1-0.6,38.4,1,57.4c9,103.5,63.7,174.3,152.8,192
			c88,17.5,176.8,12.4,262.2-12.6C2550.2,2294.4,2605.2,2149.8,2593.8,2014.1z M2298.2,2258.9c98.6-0.8,194.7-92.1,202.5-191.3
			c1.4-18-3.7-22.3-21-18.5c-23.8,5.2-47.9,9.5-72.1,12.4c-95.3,11.3-191.1,4.5-286.6,5.6c-19.1,0.2-26.6,3.2-22.5,24.6
			C2116,2182.6,2207,2259.6,2298.2,2258.9z M716,2214.7c101.5,0.2,172.1-51.6,190.6-140.2c2.4-11.7,8.8-24.8-13.7-26.5
			c-100.9-7.5-201.8-14.9-301.7-31.8c-11.8-2-20.6-0.2-25.4,12.3c-12.8,33-23.2,66.3-17.7,102.5c6,39.1,27.4,63.4,66.7,71.6
			C648.2,2209.5,681.8,2214.2,716,2214.7z M1397.5,2521.5c86.4-0.3,150.2-72.4,129.7-146.3c-14.6-52.6-70.9-90.5-132.9-89.6
			c-61,0.9-114.1,38.8-128,91.5C1246.7,2451.2,1310.8,2521.7,1397.5,2521.5z M2392.7,1495.4c-27.2,0.2-48.9-1.5-63.9-3.1
			c-21.2-2.3-42.6,0-63.9-0.9c-23.4-1-26.2,9-23.9,28.5c14.1,119.4,123.4,196,240.3,168.1c14.7-3.5,22.5-9.9,27.1-26.1
			c13.4-47.1,24-94.8,35.2-142.4c4.5-19.1-1.6-24.7-20-24.4C2480.1,1495.9,2436.4,1495.4,2392.7,1495.4z M653.6,1516.7
			c-1-64.8-29.7-114-90.1-143.9c-39.1-19.4-37.9-18.9-52,21.5c-24.7,70.7-33.5,147.3-76.4,211.3c-7.8,11.6,0.9,15.5,7.7,19.5
			c45.7,27,93.7,34.7,142.7,10.5C633.2,1612,652.6,1570.4,653.6,1516.7z M2403.1,1449.9c27.5-0.1,49.6,1.7,65.3,3.4
			c21.6,2.4,43.6,0,65.3,0.5c16.2,0.4,23.1-5.4,24.3-21.2c3.6-46.6,7.6-93.1,12.1-139.6c1.7-17.6-2.5-24.8-22.3-22.8
			c-66.3,6.6-129.6,22.4-187.6,56c-41.1,23.8-75.2,54.9-99.6,96.3c-10.9,18.6-10.6,28.2,15.1,27.6
			C2318.1,1449.1,2360.6,1449.9,2403.1,1449.9z M363.4,1649.3c86.1,120.1,258.2,111.2,338.9-14.5c67-104.3,36.5-247.4-64.2-300.6
			c-26.4-14-54.8-22.9-83.9-29.7c-5.9-1.4-11.8-6.8-15.5,2.7c-3.9,9.8,2.5,13.2,10,16.1c12.8,5.1,26.1,9.4,38.3,15.7
			c100.1,51.9,138.6,180.2,82.6,273.7c-51.4,85.7-168.8,103.3-260.9,37.4C391.9,1638.2,379.9,1643.5,363.4,1649.3z"/>
		<path class="st0" d="M1900.1,1121.1c3.9-16.8,9.1-20.2,6.6-30.7c-1.8-7.6-1.3-17.9-43.8-43.5c-11.4-6.8-19.7-19.2-28.5-29.7
			c-6.4-7.8-16.3-17,0.3-24.9c11.1-5.3,21.6-19.5,33.4,0.9c7.9,13.8,20.9,23.9,34.3,32.8c21,14,38.8,16.8,58.6-4.9
			c30.6-33.7,72.7-40.5,116.2-42.3c16.5-0.7,15.9,9.8,16.5,20.6c0.6,10,1.2,20-13.4,19.4c-49.6-2-86.1,23.7-120.9,55
			c-9.9,8.9-13,18.6-14.7,30.1c-6.2,40.6,1.9,78.7,24,112.8c10.8,16.6,0.4,21.1-9.6,28.8c-5.8,4.5-10.5,6-14.5,5.2
			c-6.8-1.3-10.8-8.7-12.8-12.6C1906.1,1187.1,1891.4,1158.2,1900.1,1121.1z"/>
		<path class="st0" d="M2066,1546.3c-0.1,21-25.9,47.1-47,47.5c-24.8,0.5-49.1-24.3-48.1-49.1c1-24,24.6-46.6,48-46
			C2042.2,1499.3,2066,1523.4,2066,1546.3z"/>
		<path class="st0" d="M1970.7,1713.1c-0.1-24.1,23.1-47.3,47.4-47.3c24.2,0,47.8,23.2,47.8,47.1c0,23.4-23.8,47-47.6,47.3
			C1994.6,1760.6,1970.9,1737.1,1970.7,1713.1z"/>
		<path class="st0" d="M2152.8,1812.9c24.9-0.7,47.1,20.6,47.7,45.9c0.6,25.4-20.2,47.7-45.3,48.4c-24.5,0.7-47.4-21.2-48.1-46
			C2106.4,1837.7,2129.3,1813.6,2152.8,1812.9z"/>
		<path class="st0" d="M2040.6,1427.4c-24.7,0.7-46.7-21-47.2-46.4c-0.5-25.7,20-47.4,45.4-48c25.7-0.6,46.2,19.7,46.8,46.2
			C2086.2,1405.4,2066.2,1426.7,2040.6,1427.4z"/>
		<path class="st0" d="M2481.9,1023.4c0.5,26.7-20.6,46.7-49.1,46.5c-24.2-0.2-44.1-20.1-44.7-44.6c-0.6-26.1,18.4-44.8,46.1-45.4
			C2461.5,979.3,2481.4,997.4,2481.9,1023.4z"/>
		<path class="st0" d="M2131,1236.2c0.3,26.3-19.4,46.5-45.6,46.7c-27.1,0.2-46.2-18.4-46.6-45.5c-0.4-26.2,19.3-46.4,45.5-46.7
			C2110.7,1190.3,2130.7,1209.9,2131,1236.2z"/>
		<path class="st0" d="M2297.6,1115c-0.2,26.4-19.9,45.9-46.3,45.7c-26.5-0.2-45.9-19.9-45.7-46.4c0.2-26.4,19.9-45.8,46.4-45.6
			C2278.3,1068.9,2297.8,1088.7,2297.6,1115z"/>
		<path class="st0" d="M855.8,1236.9c-13.9,1.9-21.7-3.8-19.3-17.6c8.5-48.5-5.8-80.4-56.6-96.8c-26.5-8.6-45.1-34.7-65.6-54.7
			c-8.1-7.9-19.1-13.9-4.4-27.1c11.8-10.6,19.9-17.1,33.4-2.1c20.7,22.9,44.5,42.5,71.5,58c24.4,14,44.6,13.9,64.5-9.8
			c30.2-35.9,68.9-59.3,115.2-69.9c12.3-2.8,21.6-3.4,22.7,11.9c0.8,10.8,6.4,24.6-11.8,27.6c-52,8.6-84.3,46.5-120.3,79.3
			c-7.6,6.9-8,14.1-8,22.6c0.1,19.1-0.8,38.3,0.3,57.4C878.1,1232.5,872.4,1240,855.8,1236.9z"/>
		<path class="st0" d="M840,1543.6c-21.5-2.7-33.9-13.9-33.5-35.3c0.4-21.7,14.1-33.6,34.6-33c20.6,0.6,33.7,14,33.2,35
			C873.9,1531.3,860.3,1541.9,840,1543.6z"/>
		<path class="st0" d="M771.3,1209.5c-1.5,20.6-11.5,32.6-33.5,33.3c-23.1,0.7-32.1-14.6-33.7-33.1c-1.8-21.2,11.4-33.7,32.7-33.8
			C757.9,1175.7,769.3,1188.1,771.3,1209.5z"/>
		<path class="st0" d="M648.2,1823.7c-0.4,24-13.1,35.7-33.5,35.9c-20.5,0.2-33.8-11.8-33.7-33.5c0.2-21.1,11.4-33.8,33.2-33.9
			C635.8,1792.2,646.2,1805.1,648.2,1823.7z"/>
		<path class="st0" d="M614.2,1243.7c-22.5-2.7-33.8-14.7-33.2-35.8c0.6-21.8,14.3-32.6,34.9-32c21.2,0.7,32.6,13.8,31.8,35.1
			C647.1,1232.6,633.6,1242.2,614.2,1243.7z"/>
		<path class="st0" d="M797.3,1755.1c-22.5,0.5-34.7-11.2-35.1-32.4c-0.4-21.7,13.6-31.6,34.5-32.8c21.8-1.3,32.1,12.3,33.1,30.6
			C830.9,1741.1,819.3,1754.1,797.3,1755.1z"/>
		<path class="st0" d="M837.4,1364.4c-15.8-2.6-31.2-10.6-30.8-33c0.3-21.7,13.5-33.6,34.6-33.3c21.7,0.3,33.8,14.2,33,35
			C873.5,1352.1,862.2,1364.4,837.4,1364.4z"/>
		<path class="st0" d="M712,2389.9c-37.4-1.9-74.3-6.1-110.9-13.5c-135-27.5-207.5-114.8-208.8-253c-0.2-24.4,2.7-48.9,6.1-73.1
			c1.4-9.9,1.7-24.7,21.2-18.3c14.5,4.7,24.6,6.8,19.9,27.1c-7.3,31.1-6.9,63.4-3.9,95.3c8.3,91.3,61.4,153.8,149.8,176.5
			c61.3,15.7,123.9,22.8,186.6,16.9c98.9-9.3,163.2-66.3,198.9-156.9c12.1-30.6,21.5-62.5,21.4-96c-0.1-21.8,13.3-22.4,29.8-21.8
			c21.7,0.8,12.6,15.4,11.7,25c-7.4,78.2-32.4,149.4-86.9,207.9C883.1,2374.3,801.9,2394.6,712,2389.9z"/>
	</g>
</g>
</svg>
