<?xml version="1.0" encoding="utf-8"?>
<!-- Generator: Adobe Illustrator 23.0.0, SVG Export Plug-In . SVG Version: 6.00 Build 0)  -->
<svg version="1.0" xmlns="http://www.w3.org/2000/svg" xmlns:xlink="http://www.w3.org/1999/xlink" x="0px" y="0px"
	 viewBox="0 0 3000 3000" style="enable-background:new 0 0 3000 3000;" xml:space="preserve">
<style type="text/css">
	.st0{stroke:#000000;stroke-width:10;stroke-miterlimit:10;}
</style>
<g id="Layer_1">
</g>
<g id="Layer_2">
	<g>
		<path class="st0" d="M2643.3,952.1c-5.1,201.8-10.7,403.5-25,604.9c-7.1,99.6-18.9,198.7-46.3,295.3
			c-16.4,57.7-43.9,107.8-93.4,142.8c-17.2,12.1-8.9,21.1-2.8,32.6c48.8,91.9,81,188.8,89.3,293c17.6,221.6-66.9,393.2-253.9,513
			c-107.2,68.7-226.9,104.7-351.7,123.8c-209.6,32.2-418.1,30.1-623.9-26.4c-81.1-22.2-157.8-54.6-224.9-106.6
			c-13.1-10.1-18.4-8.1-27.6,5.2c-24.1,34.7-58.4,52.7-101.3,52.6c-17.3,0-34.6,0.4-52,0.5c-34.1,0.2-66-0.6-99.1,18.2
			c-48.5,27.6-114.3,11.1-153.7-28.5c-2.1-2.2-4.3-7-5.8-6.7c-42.2,6.7-79.2-26.3-119.9-18.6c-127.7,24.1-230.5-73.3-209.4-201.6
			c3.2-19.5-0.9-32.6-13.2-49c-42.3-56.1-31.3-117.4-7.8-177.1c5.5-14.1,8.1-24.7,3.4-39.7c-16-51.4-5.4-103,3.5-154.1
			c4.6-26.6,5.2-50.8-5.6-77.1c-20.4-49.9-18-101.4,2-151.8c3.9-9.9,9.6-19,0-30.7c-29.1-35.4-28.1-77.1-20.9-119.3
			c5.1-30.1,11.7-59.9,24.5-87.9c5-10.9,4.4-20.9,1.5-32.4c-14.9-59.3-12.5-119.1-1.6-178.7c1.8-9.8,7.1-18.4-0.7-28.6
			c-60.2-78.1-22.8-197.3,40.2-251.6c23.7-20.4,20.4-29.3-0.1-48.6c-97-91.5-139.4-209-150-338.4C206,749.1,211.9,618,245.3,489.4
			C303.5,265.5,488,112.3,718.5,91.5c142.5-12.8,277.8,11.6,408.4,67.1c14.5,6.2,25.6,9.9,41.5-1.8
			c143.8-105.7,334.5-105.9,481.5-0.4c18.6,13.4,30.4,14.4,49.9,2c113.6-72,240.3-98.9,372.7-100.6c113.7-1.4,225.6,16.3,334.2,49.3
			c160.2,48.6,234,149.9,236.1,325.3C2644.9,605.5,2643.3,778.8,2643.3,952.1z M2187.8,119.5c-11.3-8.3-22.9-7.4-33.8-8
			c-84.8-5-169.1-2.5-252.1,17.8c-75.9,18.6-150.7,43.5-207.9,97.8c-76.6,72.7-147.3,151.6-215.1,232.8
			c-140,167.7-260.5,349.5-379.8,532.1c-12.3,18.9-23,38.5-31.7,59.1c-24.8,58.6-13.2,113.4,35.1,154.7
			c60,51.3,130.4,73.5,209.3,68.8c32.2-1.9,62.2-10.8,89.3-28.3c43.4-28.1,62.9-69,58.2-119.8c-4.7-50.4-22-93.1-77.1-109.3
			c-24.3-7.1-10.3-27.8-10-41.3c0.3-15.9,15.7-8.8,24-6.9c46.2,10.6,76.9,40.5,96.3,82.3c56.1,120.4-13.5,247.2-148.1,270.8
			c-81,14.2-155.6-4.1-226.8-42.2c-7.1-3.8-16.3-18-24.4-1c-21.9,46.1-42.2,92.9-46.2,144.5c-2.7,35.1,9,48,45,51.3
			c61.3,5.6,119.9,21.3,177.9,41.1c69.2,23.7,122.7,67.1,163.7,126.7c12.5,18.2,23.2,38.7,7.7,59.1c-15.7,20.6-37,11.2-56,3.5
			c-47.2-18.9-94.2-38.4-144-49.9c-61.6-14.2-119.5-6.3-171.8,30.6c-32.2,22.8-34.4,38.5-10.5,70c31.6,41.5,64.2,84.1,76.8,134.5
			c20.6,82.3,78.4,111.4,152.7,122.6c79.7,12,160.2,14.4,240.5,19.6c250.5,16.4,501,23.7,750.9-7.6c114.6-14.3,224.2-76,249-210
			c6.7-36,16.7-71.5,21.4-107.7c31.7-242.1,32-485.9,37.1-729.4c0.4-20-3.5-23.9-23.5-17.6c-72.4,22.7-146.5,34.1-222.8,31.6
			c-144.9-4.7-252.1-80.8-302.8-216.6c-19.4-52-29.8-105.9-30.9-161.3c-3.2-166.1,50-314.1,146-448
			C2164.6,150.4,2176.3,135.1,2187.8,119.5z M1634.6,2241.8c1.1-43.9-13.4-91.1-35.8-136.4c-5.9-12-12.4-18.9-27.2-19.3
			c-36.6-0.8-73.3-2.5-109.7-6c-74.9-7.2-150.9-5.5-224.2-25.5c-56.3-15.3-56.5-16.4-90.8,29.6c-60.6,81.3-110.4,168.5-139.1,266.4
			c-50.3,171.5-5.6,326.6,125.7,427.8c116.2,89.5,254.3,119.3,395.4,139.3c14.1,2,20.7-6.3,24.5-17.8c9-27.2-5.8-50.2-35.2-54.4
			c-47.1-6.7-90.3-23.6-131.2-47.4c-10.2-5.9-21-11.4-7.6-23.9c9.7-9,8.8-36.1,34-20.1c31.3,19.9,65.6,33.1,101.9,39.2
			c45.8,7.7,91.6,8.5,133.4-16.8c36.9-22.3,40-55.9,22.8-114.1c-12.5-42.4-35.9-36-65-25.3c-1.9,0.7-4,0.6-6,0.8
			c-78.2,10.5-145.8-17.7-209.5-58.8c-9-5.8-29.1-9.6-12.5-28.3c11.1-12.5,15.3-32.8,41.3-14.3c49.7,35.4,105.3,57.3,168.7,51.4
			c32.6-3.1,56.7-17.4,65.6-49.9c13.8-50.7,8.4-100.7-8.1-150c-3.3-9.7-6-15.8-18.9-9.1c-53.8,27.5-110.5,23.7-167,11.3
			c-12-2.6-34.2,0.9-25.8-26.1c6.1-19.8,11-33.1,37-24.1c22.9,8,47.7,9.9,72.4,8.7C1614.4,2345.5,1638.4,2319.3,1634.6,2241.8z
			 M1003.5,1096.2c-23.7,12-43.2,22.7-63.4,32.1c-200,92.3-429.1,3.1-501.3-199.3c-54.7-153.4-37.2-301.6,55.7-437.1
			C588.7,354.4,740.8,295.8,903.1,331c46.9,10.2,90.1,30.2,134.4,53.1c11.5-60.8,31.9-115.5,68-163.4c13.5-17.9-4.9-17.8-13-21.1
			C961.6,146,826,123.5,685.9,148.3c-174.9,30.9-305.6,123.1-369.3,292.8c-64.7,172.1-71.3,351.1-32.5,529.3
			c33.8,154.9,130.3,259.6,283.6,307.8c83.1,26.1,168.1,29.8,253.9,16.6c77.9-12,152.4-34.7,223.5-72.8
			C1016.4,1184.8,1002.5,1144.2,1003.5,1096.2z M1873.3,2918.4c135.2-15.9,259.6-44.8,374.1-106.3
			c109.1-58.6,194.8-139.7,237.9-259.5c63.6-176.9,25-342.5-54.6-503.9c-7.6-15.4-15.8-11-26.7-5.7c-36.1,17.4-74.6,26.4-114.2,32
			c-99.1,14.1-198.8,18-298.6,22.1c-8.5,0.4-23.5-3.4-23.9,5.3c-0.7,13.3,5.4,27.7,11.3,40.4c5.4,11.6,16.1,4.6,24.2,2.2
			c50.1-14.7,100.5-14,150.9-2.8c171.8,38.1,173.5,212.5,106.1,295.5c-13.9,17.1-14.7,29.4-6.6,48.5
			c31.1,73.3,12.9,160.4-45.4,213.3c-62.6,56.7-134.3,61.9-210.6,31.5c-9.6-3.8-19.2-13.2-25.7,4.9
			C1948.5,2799.1,1915.4,2857.3,1873.3,2918.4z M1779.6,2098c0-1.8,0-3.6,0-5.5c-34.6,0-69.2,0.9-103.8-0.3
			c-20.4-0.7-28.7,2.3-17,24.1c13.6,25.3,19.2,53.6,23.4,81.7c6.6,44.5-4.3,90-1.3,132.7c3,41.9,29.3,83.4,31.3,128.9
			c0.6,14.2,1,28.5,0.2,42.7c-1.7,29.6-20.3,58.2-19.3,84.5c1.1,27.5,26.3,53.5,33.9,83.5c18.8,74.3-3.7,135.7-70.6,157.9
			c-42.9,14.2-57.3,32.9-52.8,75.8c1.7,15.8,2.9,20.3,18.7,20.9c48.9,1.9,97.8,0.1,146.6,0.6c26.6,0.3,42.7-8.7,57.6-29.6
			c173.6-244.3,187.4-506.2,87.9-781.2c-5.3-14.6-14.7-17.1-27.8-17C1850.9,2098.2,1815.3,2098,1779.6,2098z M813.7,372.1
			c-76.8,0.7-147.5,21.3-205.7,72.2C475.6,559.8,433.5,706.1,475.9,874.4c45.6,181,210.1,274.7,390.3,226
			c66.9-18.1,129.3-47.9,170.5-105.7c46.6-65.4,87.5-134.8,131.9-201.8c10-15,11.9-23.5-3-37.5c-84.1-79.1-127.5-177.3-131.5-292.6
			c-0.5-15-4.9-24-18.1-31.4C953.1,396.2,887.3,371.3,813.7,372.1z M551.3,2129.6c0,12.2,0,24.4,0,36.7
			c-0.1,100.8-3.8,201.9,19.1,301.1c20.2,87.8,73.7,136.3,162.7,151.5c63.6,10.8,125.8,3.6,187.6-11.5c10.9-2.7,30,3.2,28.7-18.2
			c-1.1-19-5.5-33.2-30.8-35.8c-55.6-5.8-100.4-32.8-128.5-82.5c-9.5-16.9-21.2-22.7-40-25.6c-71.7-11-91.1-37.6-85.1-110.5
			c0.6-7.1,0.1-14.5,2.1-21.2c9.9-33.3,8-61.9-23.9-84.2c-9-6.2-16.4-20.2-17.5-31.3c-6.4-70-2.4-139.9,7.8-209.4
			c0.4-2.9,2.2-5.8,4.1-8.2c8.7-11.1,8.1-19.8-1.2-31.9c-26.9-35.2-30.8-74.2-12.6-115c4.1-9.1,9.2-16.5,1.2-27.7
			c-32.1-44.8-29.2-90.9-2.3-137.2c4.4-7.7,8.5-15.7,2.7-25.5c-20-33.5-11.5-66.3,3-99.2c9.9-22.3,17.8-45.5,28-67.6
			c5.5-11.9,7.1-22.9,3.4-35.3c-7.5-24.9-7.3-50.2-1.8-75.4c1.5-7,4.9-12.9-4.7-17.6c-26.3-12.9-43.7-3.4-46.4,26.1
			c-0.9,10.1-1.3,20.3-2.5,30.5C575.9,1645.5,557.7,1887.1,551.3,2129.6z M1019.1,2187.6c29.7-51.9,58.6-101.2,95.9-144.3
			c21.2-24.5,32.2-43.8,2.6-68.5c-6.6-5.5-10.9-15.1-13.4-23.7c-19.6-67.5-55.5-125.9-97.7-181.4c-23.7-31.2-20.4-67.4,4.9-98.5
			c7.6-9.4,17.4-17,26.3-25.4c13.3-12.5,16.4-123.4,1.4-132.9c-50.6-32.1-47.1-79.6-37.6-127.7c6.2-31.3,17.6-61.6,27.9-96.6
			c-25.2,9.2-46.2,20.8-68.5,24.2c-34.2,5.2-39.6,25.7-41.7,54.7c-11.3,155.5-15.6,311.2-12.6,467.1c1.3,67.2,7,134.2,25,199.4
			C947.5,2091.7,976.3,2142.2,1019.1,2187.6z M801.4,1740.8c-2.8,0-5.6,0-8.5,0c0,96.8-0.2,193.5,0.1,290.3
			c0.1,53,1.8,106,15.3,157.7c20,76.8,84.9,112.4,159.8,87.7c21.2-7,30.7-34.3,15.5-50.4c-95.4-100.2-121.8-224.6-126.5-356.8
			c-6-167.2-1.7-334.2,11.3-500.9c0.7-8.8,10.6-29.7-10.5-26.8c-15.8,2.2-43.1-8.7-44,26.3C810.7,1492.3,805.7,1616.5,801.4,1740.8z
			 M2094.9,2455.1c15.6,0.2,43.5-4.6,70.9-13c49.5-15.1,78.1-54.6,83.4-115.5c4.6-52.5-20.5-99.3-66.2-120.1
			c-51.7-23.6-105.3-28.2-160.8-14.6c-20.4,5-27.4,12.2-21.4,35.2c14.9,57,24,115.3,25.5,174.5
			C2027.6,2455.4,2027.8,2455.4,2094.9,2455.1z M467,1524.7c17.4,0.6,38.1-4.1,58.6-10.6c12.4-3.9,17.8-11.1,19-24
			c3.6-40.4,6.3-81.1,12.9-121c5.1-30.7-4.3-45.3-34.7-53.4c-24.1-6.4-46.8-19.4-69-31.6c-12.9-7.1-22-5.7-33,2.7
			c-29.9,22.9-51.4,51.8-64,87.2C325.3,1462.2,369.4,1524.8,467,1524.7z M2216.3,2552.6c-0.5-5-0.6-15.3-2.6-25.2
			c-7.7-38.2-11.4-40-49.9-31.5c-38.8,8.6-77.9,15.3-117.7,8.3c-15.6-2.7-21.4,1.7-22.8,18.1c-3.7,44.5-11.1,88.7-23.9,131.5
			c-4.6,15.5,0.4,21.5,12.9,28.1C2107.9,2732.3,2216.8,2666.1,2216.3,2552.6z M939.6,2832.6c0-0.2,0-0.4,0-0.6
			c15.3,0,30.6,1.1,45.8-0.2c25.8-2.2,46.2-13.9,59.7-37c7-11.9,7.6-20.8-2.6-32.3c-16.1-18.2-30.3-38.2-43.9-58.5
			c-11.2-16.8-16.5-44.1-31.2-50.1c-16.5-6.7-40.7,5-61.5,9.2c-58.6,11.8-62.8,17.6-58,79.3c0.5,6.1,1.5,12.1,2.3,18.2
			c8.2,61.8,19.3,71.8,80.1,72.1C933.5,2832.6,936.5,2832.6,939.6,2832.6z M371.2,1627.8c-3.5,105.1,9.7,119.8,114.4,127.1
			c6.1,0.4,12.2,0.4,18.3,1c11.6,1.3,16-3.6,16.8-15.3c3.6-50.6,7.8-101.3,12.4-151.8c1.5-16.2,0.8-24.3-20.1-18.6
			c-26.4,7.2-53.9,6.7-81.7,4.5c-19-1.5-41.9-22.2-54.4-6.2C366.6,1581.7,372.5,1607.5,371.2,1627.8z M513.4,1846.3
			c2.5-39.8,2.4-39.5-36.8-41.4c-15.2-0.7-30.3-5.1-45.4-4.6c-21.3,0.7-44.5-25-60.4-6.9c-13,14.9-13.2,41.7-17.2,63.6
			c-11.7,63.5,9.9,98.2,71.8,116.9c18.5,5.6,37.6,8,56.9,9.7c17.1,1.5,23.6-4.6,24.3-21.7C508.1,1923.4,511,1884.9,513.4,1846.3z
			 M499.6,2117.1c0.9,0,1.8,0,2.8,0c0-20.4-0.5-40.8,0.2-61.1c0.4-12.9-1.4-20.4-17.5-21.1c-33.7-1.3-66.8-6.9-98-20.9
			c-9.9-4.5-14.2-0.3-18.4,8.6c-40.4,83.1,27.6,188.7,118.4,184.1c12.9-0.6,12.2-8.6,12.3-16.3
			C499.8,2166,499.6,2141.6,499.6,2117.1z M550.3,2560.2c-13.2-28.9-25.5-56.9-30.5-87.2c-2.4-14.9-10.3-16.3-23.7-14.7
			c-32.5,3.9-65.2,3.5-96.9-6.1c-37.3-11.3-37.9-11.2-43.8,27c-1.2,8.1-2.2,16.2-2.7,24.3c-3.8,56.6,21.4,83.6,78.2,84.5
			C472.6,2588.8,510.3,2573.7,550.3,2560.2z M795.8,2726.9c3.3-50.9,3.2-50.4-36.6-53.7c-18.2-1.5-37.1-2.9-54.1-8.8
			c-24.2-8.4-27.8,2.7-28.4,22.4c-1.4,43.5,5.3,85.2,24,124.7c21.6,45.4,56,60,104.7,45.9c16.5-4.8,21.2-11.1,12.5-27.9
			C799.8,2794.4,795.4,2756.1,795.8,2726.9z M502,2336c-0.5,0-1,0-1.4,0c0-16.3-0.8-32.6,0.2-48.9c1.2-19.4-4.7-28.8-26.2-31.5
			c-28-3.5-56.7-7.1-82.9-19.3c-15.1-7-15.1,4.2-16.5,12.8c-5.2,31.2-9.2,62.5-7.2,94.2c2,31,17.3,51.6,47.4,60.1
			c17.7,5,35.8,7.6,54.4,6.8c37.5-1.6,38.4-2.6,34.6-40.6C503.1,2358.4,502.7,2347.2,502,2336z M2365.2,678
			c-3.6,2.6-7.3,4.4-9.9,7.2c-18.4,20.4-36.2,41.3-54.9,61.5c-9,9.8-0.7,14.1,4.8,19.3c24.3,23.2,49.2,45.9,72.8,69.7
			c11.2,11.3,18.8,11.7,29.3-0.9c17-20.3,35.1-39.7,53.4-58.8c9-9.4,13.8-15.3-0.5-25.4c-28.2-19.9-54.9-42.1-82.2-63.3
			C2374.1,684.3,2369.9,681.4,2365.2,678z M512.6,2627.2c-30.7,6.6-55.2,12.5-80.5,12.2c-42.7-0.6-44.2,1.1-41.4,45.2
			c0.4,6.1,0.8,12.2,1.9,18.2c11.1,62.6,73.8,108.6,126.9,91.5C473.9,2743.5,477.8,2689.3,512.6,2627.2z M2304.1,937.1
			c20.9-2.3,28.5-24.1,43.1-37.1c9.5-8.5,8.7-16-1.2-24.9c-25-22.5-49.1-45.9-73.5-69.1c-8.4-8-15.3-11.6-24.6-0.1
			c-19.3,23.6-39.3,46.8-60.1,69.2c-8.9,9.6-7.2,14,2.8,20.8C2224.2,918.6,2261.8,930.1,2304.1,937.1z M768,2279.5
			c-48.6,2.8-50,4.3-51.6,52.6c-0.4,11.2-0.7,22.4-0.5,33.6c0.2,8.2,0.5,18,9.6,20.8c30.1,9.4,61.7,20.5,91.6,4
			c21.8-12,36-34.9,39.7-59.1c2.8-18.7-23.5-14.2-32.2-26.1c-2.3-3.2-6.6-4.9-9.2-7.9C802.1,2281.7,787.2,2270.8,768,2279.5z
			 M629.9,2651c6.2-19.7-14.3-22.1-24.6-31.6c-6.3-5.8-13.4-9.5-20.9-0.6c-25.6,30.6-54.9,61.6-45,105.1
			c9.7,42.6,45.1,66.1,81.7,84.9c14.7,7.6,24.7,5.6,17.9-17C625.3,2746.5,619.9,2700.1,629.9,2651z M2587.7,876.7
			c0.1-25.5,0.1-25.5-18.3-40.3c-54.9-44.2-54.9-44.2-102.8,8.5c-1.4,1.5-2.8,2.9-4.1,4.5c-34.1,38.2-33.8,37.9,5.3,70.4
			c9,7.5,16.7,9,27.5,5.7c23.2-7,46.6-13.5,70.3-18.9C2583.8,902.4,2591.3,892.5,2587.7,876.7z M2137.1,680.4
			c-3.4,1.9-5.9,3.3-8.4,4.8c-41.9,25.6-51.3,56.4-30.1,100.2c5.7,11.9,12,23.6,19,34.8c20.4,32.6,20.8,32.6,46.5,3.6
			c18.2-20.6,49.1-40.7,50.5-62.5c1.6-25.3-35.5-40-55-60.1C2152.6,694.1,2144.8,687.6,2137.1,680.4z M2565.7,659.4
			c-4.6-4.8-7.8-8.7-11.5-11.9c-13.8-12.1-27.5-24.2-41.6-35.9c-55.9-46.8-55.3-46.3-102.7,10.9c-11.3,13.7-8.1,19.5,4,28.2
			c20.6,14.9,40.3,31,60.5,46.5c34.7,26.7,34.7,26.6,64.4-7.7C2547.5,679.6,2556.3,669.9,2565.7,659.4z M2298.2,428.9
			c-5.3-5.7-8.9-10.2-13.1-14.1c-12.1-10.8-24.5-21.4-36.8-32c-35.5-30.4-35.5-30.4-69.7,3.5c-45.5,44.9-45.5,44.9,3.8,83.2
			c44.9,35,45,35,85.7-8.2C2277.5,451.2,2287.1,440.8,2298.2,428.9z M1365.8,1640.2c-56.1-67.4-131.5-85.9-206.5-103.4
			c-66.7-15.6-66.6-13.9-59.7,55.3c1.5,15.1,5.3,19.2,20.4,14.5c56.7-17.6,112.4-8.7,167.6,8.2
			C1312.3,1622.4,1336.9,1630.8,1365.8,1640.2z M1406.1,464.2c10-10,19.4-19,28.3-28.6c55.3-59.4,54.7-58.5-12.1-103.6
			c-22.1-14.9-33.7-14.4-50,8.3c-43.2,60.1-44.4,59.3,12.5,107.3C1391.6,453.2,1398.7,458.5,1406.1,464.2z M1302.2,442.8
			c-8.4,0.3-11.1,6.1-14.7,10.7c-10.5,13.6-19.4,28.8-31.5,40.8c-23.9,23.6-21.6,41.6,2.1,65.8c43.3,44.4,41.7,46,78-2.6
			c4.2-5.7,8.6-11.2,12.9-16.9c25.5-33.4,25.6-33.5-6.3-62.3C1329.1,466.3,1315.3,454.4,1302.2,442.8z M958.7,2333.7
			c-31.3-6.8-49.1,1.8-59.8,31.6c-9.9,27.5-27.1,52.6-53.3,68.4c-11.8,7.1-13.2,12.7-4.6,23.2c20.1,24.7,45.6,39.8,76.8,45.4
			c10.8,1.9,19.4,2.5,19.3-13.7C936.6,2436.5,945.9,2385.6,958.7,2333.7z M2322.9,245.9c-13.2,12.3-25.8,24.1-38.4,35.8
			c-35.9,33.4-36,33.4-0.3,64.7c13,11.4,26.3,22.5,39.3,33.9c5.7,5,11.4,9.4,18.1,2c19.9-21.8,46.6-41,56.5-66.6
			c5-13-28.6-29.5-44.7-44.5c-6.7-6.3-13.5-12.4-20.4-18.4C2330,250.1,2326.4,248.2,2322.9,245.9z M2419.3,535.3
			c-2.9-4-4.7-7.5-7.5-10c-21.3-18.8-42.9-37.3-64-56.2c-9-8-13.9-1.8-20.3,3.7c-66.8,57.8-66.9,58.9,1.6,111.3
			c4.8,3.7,9.7,7.3,14.5,11c4.7,3.6,10.8,10.7,15.5,5.9C2379.7,580.2,2398.9,557.9,2419.3,535.3z M2321.1,644.8
			c-5.4-5.1-9.4-9.6-14.1-13.2c-12.8-10.1-26-19.6-38.8-29.7c-35.5-27.9-35.5-28-65.5,3.8c-32.7,34.6-32.7,34.7,2.3,66.5
			c16.5,15,33.2,41.6,49.9,41.7c20.5,0.1,31.5-31.2,48.1-47.5C2309.4,660.1,2314.6,652.7,2321.1,644.8z M2443.8,350.4
			c-10.1,10.3-20.1,20.1-29.8,30.1c-40.6,42.4-40.6,42.4,2.9,80.5c37.6,32.9,37.6,32.9,69.9-2.8c35.4-38.9,35.4-39-5-75
			C2469.7,372.4,2457.2,362,2443.8,350.4z M755.7,1583.4c0.4-7.1,0.9-14.2,1.2-21.3c2.4-46.2,0.7-48.1-44.4-56.7
			c-6.9-1.3-11.8-1.5-14.6,5.8c-10.4,27.5-26.5,53-31.5,82.3c-5,30,22.7,53,64.8,57.2c37.7,3.7,16.9-25.9,22.6-39.9
			C757.2,1602.6,755.2,1592.5,755.7,1583.4z M1268.2,648.9c-2.4-4.4-3.3-7.4-5.3-9.6c-18.5-20.2-37.1-40.2-55.7-60.3
			c-5.2-5.6-10-5.8-14.7,0.8c-5.9,8.2-12.2,16.1-18.3,24.2c-35.8,47.9-35.8,48,3.2,91.2c32.4,35.9,32.3,35.9,59.5-2.6
			C1247.5,677.9,1258,663.2,1268.2,648.9z M1581,266.4c-30.2-14.2-58.6-27.3-86.8-40.8c-28.1-13.3-32.9-10.6-61.2,35.8
			c-15.2,24.9,12,23.8,20.8,29.7C1525.2,339.4,1525.5,338.8,1581,266.4z M2096.7,470.1c-3.3,2.1-5.8,3.7-8.4,5.3
			c-30.5,19.6-33.9,56.2-7.4,81.4c54.8,52.2,54.4,51.9,99.9-1.7c8.6-10.1,9.2-15.3-1.6-23.3c-23.6-17.5-46.4-36.2-69.7-54.2
			C2105.6,474.5,2100.9,472.5,2096.7,470.1z M750.7,1743.3c6.6-26.2,2.4-48.7-38.3-44c-5.7,0.7-12.4-1.6-17.6-4.3
			c-26.6-14.2-34.5,3-38.5,23.6c-2.3,11.7-2.7,24.6-0.5,36.3c5.2,27.6,38.1,47.5,70.7,45.7c35-1.9,17.7-29.5,23.4-45.9
			C750.6,1752.8,750.3,1750.6,750.7,1743.3z M2503.2,208.1c-3.8-2.2-7.4-3.9-10.8-6.2c-23.6-16.3-49.6-28-76.6-37.4
			c-5.4-1.9-9.7-0.3-14.3,2.4c-39.9,23.3-41.6,42.1-6.6,71.8c7.8,6.6,16.3,12.7,22.6,20.5c15.7,19.4,28.4,16.1,42.2-2.4
			c9.1-12.2,20.4-22.7,30.7-34C2493.9,219.1,2497.1,215.2,2503.2,208.1z M2583.3,604.9c3.1-0.6,6.3-1.3,9.4-1.9
			c0-36.2-0.4-72.3,0.2-108.5c0.3-19.9-14.6-29.4-27.7-36.7c-12.5-7-16.7,10.3-23.8,17.1c-12.5,11.8-22.3,26.2-34.4,38.4
			c-10,10-11.1,16.9,0.8,26.6C2533.4,560.9,2558.1,583.2,2583.3,604.9z M1257,407.3c-1.3-2.5-1.8-4.7-3.2-6
			c-16.6-14.8-31.4-35-50.9-42.2c-11.3-4.1-19.9,21.6-29.8,33.9c-6.4,7.9-11.1,17.3-18.1,24.5c-12.2,12.6-8.4,21.4,2.5,33
			c38,40.7,37.5,41.1,71.3-4.3c6.7-9,13.4-17.9,20-26.9C1251.9,415.3,1254.5,411.1,1257,407.3z M2225.2,158.4
			c-4.3,4.6-8.1,7.8-11,11.7c-12.6,17.1-24.2,35-37.6,51.4c-12.1,14.9-9.3,23.2,4.4,37c21.9,22,37.9,23.6,56.3-2
			c6.4-8.9,16.6-15.1,23.2-23.9c6.5-8.6,26.2-14.6,16.8-26.8C2263.5,187.7,2243.5,174.5,2225.2,158.4z M1351,284.3
			c-4.4-1.7-9-2.3-11.8-4.9c-41.9-39.5-55.5-36.7-91.4,6.7c-20.8,25.2-6.2,35,10.1,49.4c32.8,28.8,32.6,29.2,58.6-5
			C1326.8,317,1336.9,303.2,1351,284.3z M2581.5,343.3c-7.6-31.9-18.9-59.9-36.2-85.5c-5.5-8.2-10-6.2-17-0.7
			c-52,40.4-52.9,52.1-5.2,94.5c4.6,4.1,8.6,9.2,13.8,11.9c7.5,3.8,13,18.1,21.4,11.5C2568.7,366.9,2582,358.1,2581.5,343.3z
			 M744.5,1849.6c-13.1,3.2-26,3.7-39.2,1.7c-34.2-5.3-44.8,5.5-39.6,39.9c4.2,27.6,27.6,48.3,56.2,51.2
			c15.5,1.5,22.9-3.7,22.6-19.7C744.2,1899.5,744.5,1876.2,744.5,1849.6z M742,2047c-0.4,0-0.7,0-1.1,0c0-12.1,0.3-24.2-0.1-36.3
			c-0.2-5.5,1.8-11.7-5.4-15.5c-24.4-13.3-48.9-3-58.5,23.8c-5.9,16.5-0.6,31.9,2,47.6c3.7,22.5,28.2,38.1,54.1,32.6
			c25-5.3,5.9-24.8,9.8-37.2C744.2,2057.5,742.3,2052,742,2047z M744.2,2227.7c18.3,3.8,19.1-2.7,16.5-22.4
			c-5.3-39.8-21.4-62.1-64-58.8c-2.8,0.2-5.7-1.7-8.6-2.7c-17.1-6.5-18.9,4.3-18.8,16.8C669.5,2195.6,702.2,2225.5,744.2,2227.7z
			 M761.6,1410c0.6-11.1,2.1-22.3,1.6-33.3c-0.4-8.1,6.4-21-6.6-23c-13.1-2-28.8-7-40.2,4.3c-23,22.7-12.5,83.9,16.5,100.1
			c16.5,9.2,28.4,10,27.1-14.8C759.4,1432.3,761,1421.2,761.6,1410z M1419.9,191.2c-20.8-10.2-41.2-20.8-62.1-30.4
			c-27.3-12.6-26.8,16.6-38.2,27.1c-13.7,12.6,0.5,17.7,9.2,23.7C1382.5,248.6,1382.5,248.6,1419.9,191.2z M1113.1,594.8
			c55.4-58.5,55.5-59.5,13.9-102.4c-0.7-0.7-1.4-1.5-2-2.3c-8.2-10.5-14.4-10.5-22.7,1.3C1075.3,529.6,1106.7,558.7,1113.1,594.8z
			 M1634.2,211.9c-1.6-2.7-2.5-6-4.7-7.7c-30.7-24.2-64.8-42.2-101.7-54.8c-12.2-4.2-15.4,7.8-20.3,14.4c-6.9,9.3,2.4,11.9,8.6,14.8
			c31.3,14.8,62.8,28.9,93.7,44.4C1624,230.1,1627.4,219.1,1634.2,211.9z M1092.8,366.8c-2.5,10.8,2.3,19.6,10.6,23.5
			c10.3,4.9,12.9-7,17.4-12.7c9.4-12,18.6-24.3,26.5-37.3c4.7-7.7,18.5-14.5,8.9-25.5c-8.4-9.7-19.5-21.6-30.6-23.1
			c-9.7-1.3-12.2,16.3-16.2,26.1C1102.8,333.7,1098.2,350.4,1092.8,366.8z M1206.1,194.8c-17.2,6.7-26.2,20.7-38.2,31
			c-12.6,10.8-12.7,18.7,0.1,31.2c17.3,16.9,29.5,20.3,42-3.6c4.1-8,10.9-14.5,15.3-22.4c3.4-6.2,14.2-12,5.3-20.3
			C1223.4,204.1,1214,199.9,1206.1,194.8z M2093.9,391.2c2.8,2.6,5.7,5.2,8.5,7.7c19-21.9,37.1-44.6,57.3-65.2
			c11.4-11.6,12.7-19.1-1.1-28.3c-7.2-4.7-12.2-13-22.7-14.3C2118,323.1,2104.2,356.4,2093.9,391.2z M2347.3,143.5
			c-25-5.3-47.4-10.1-72.4-15.4C2315.1,178.2,2320.6,179.5,2347.3,143.5z M2586,780.4c0-21.7,0-40.9,0-61.9
			C2543.6,755.6,2543.6,756.2,2586,780.4z M2063.6,673c40.3-28.7,39.7-34.2-5.5-60.8C2059.9,632.5,2061.6,651,2063.6,673z"/>
		<path class="st0" d="M1919.9,1423.8c-34.6,0-69.2-0.2-103.8,0.1c-15.5,0.1-23-4.1-24.1-22.2c-7-110.7-15.1-221.4-23.6-332
			c-2-25.3,1.7-39.6,32.8-36.2c28.2,3.1,57,1.7,85.5,0.3c18.6-0.9,24.8,4.6,24.4,23.8c-1.2,52.9,0.4,105.9-0.8,158.9
			c-0.4,19.2,4.7,27.3,25,27.2c24.4-0.1,48.7,3.8,73.1,4.6c19.8,0.7,29.1,7.4,28.3,29.3c-1.6,42.7-1.7,85.6,0,128.3
			c0.9,22.6-8,28-28.2,26.2c-29.4-2.5-59-3.3-88.4-4.9C1919.9,1426.1,1919.9,1425,1919.9,1423.8z M1860.3,1186.1
			c0-26.5-0.4-52.9,0.2-79.4c0.3-13.8-1-22.8-19.1-22.8c-19.4,0-18.5,11.2-17.7,23.8c5.5,81.2,11.5,162.3,16.3,243.6
			c1.1,18.9,9.5,23.7,26.5,23.8c34.6,0.2,69.2,1.2,103.7,3.2c15.5,0.9,19.8-5.4,18.7-19.3c-0.7-8.1-1.1-16.4,0.1-24.4
			c4.2-27.4-3.2-39.9-34.6-38.2c-30,1.6-69.7,5.8-88-10.4c-19.2-17-4-57.5-6-87.7C1860,1194.2,1860.2,1190.2,1860.3,1186.1z"/>
		<path class="st0" d="M1757.1,1230.1c0,60.1-0.8,120.2,0.5,180.2c0.4,20-2.6,29.1-25.7,28.3c-47.8-1.8-95.8-1.3-143.7-0.2
			c-19,0.5-26.8-3.8-26.6-24.9c0.9-122.3,0.8-244.6,0.1-366.9c-0.1-19,4.6-27.7,25-28.2c46.8-1.1,93.7-3.4,140.4-6.6
			c18.7-1.3,19.8,9.5,19.8,22.6c0.1,65.2,0,130.4,0,195.5C1750.3,1230.1,1753.7,1230.1,1757.1,1230.1z M1705.8,1230.7
			c-2.5,0-4.9,0-7.4,0c0-38.7,1-77.5-0.2-116.1c-1.6-51.5-2.2-50.4-54.3-48.1c-23.2,1-31,8.3-30.5,32.3
			c1.6,74.4,0.6,148.8,0.6,223.2c0,69.2,0,68.5,68.9,67.7c19.1-0.2,24-5.8,23.4-24.5C1704.8,1320.3,1705.8,1275.5,1705.8,1230.7z"/>
		<path class="st0" d="M1618.4,912.4c-65.2-0.6-125.3-50-142.7-121.2c-5.2-21.2-11.5-32.8-34.7-31.3c-7.7,0.5-16-2.6-23.6-5.2
			c-9-3-24-5.1-14.9-19.1c7.3-11.2,2.2-38.6,28.8-29.5c25.7,8.8,43.2,1.3,62.1-17.5c58.1-57.8,125.7-64.2,192.5-18.2
			c36.8,25.4,72.5,48.4,120.3,38.7c7.2-1.5,24.5-5.3,19.4,12.7c-3.7,13.2,6.8,39.6-19.9,36.3c-39.1-4.8-49.7,13.1-58.5,47.8
			C1730.6,871.8,1676.3,912.9,1618.4,912.4z M1613.9,690.5c-37,0.5-60.5,14-82.3,31.6c-9.4,7.6-13.9,16.9-12.3,29.4
			c5.4,40.1,21.1,74.2,56.1,97c29.4,19.2,57.4,20.4,82.3,1.3c31.8-24.3,47.4-57.6,48.7-97.5c0.1-1.9-0.7-4.5-2-5.5
			C1674.4,723.1,1645.2,698,1613.9,690.5z"/>
		<path class="st0" d="M788.7,981.1c-143.9-0.9-260-117.2-260.1-260.7c-0.1-144.7,117.9-261.7,263.2-261.1
			c143.6,0.6,261,118.2,260.8,261C1052.3,864.7,933.6,981.9,788.7,981.1z M807.2,737.7c3.9-1,4.9-1.6,5.7-1.4
			c51.4,11.9,102.7,24.1,154.1,35.7c8.8,2,20.5,12.5,26.6-1.7c7.2-16.9,8.8-36,5.2-54c-2.8-13.9-16.8-8.2-26-8.3
			c-37.7-0.6-75.4-1.8-113,0.3c-25.8,1.4-36.9-4.5-34.5-33c2.7-32.4,0.6-65.1,0.6-97.7c0-73-8.9-79.5-82.4-62.8
			c-15.4,3.5-21.9,9.7-21.4,26.4c1.1,42.7-0.2,85.5,0.7,128.3c0.3,16.1-5.3,21.4-21.1,20.9c-29.5-0.9-59.3,2.1-88.5-0.9
			c-29.4-3-35.5,10.3-32.7,34.8c0.7,6.1,1.3,12.2,0.9,18.3c-1.4,24.7,10.8,31.2,33.7,28.4c45.4-5.4,91.2-8.3,136.6-13.9
			c17.2-2.1,21,3.6,20.7,19.3c-0.8,41.7,0.4,83.5-0.5,125.2c-0.4,18.8,1,30.1,25.3,29.4c24-0.7,25.6-11.1,23.6-30.5
			C815.4,846.2,811.6,791.6,807.2,737.7z M876.1,592.1c0,63,0,63,63.5,63c8.1,0,16.4-0.8,24.4,0.1c27.5,3.2,25.1-9,15.5-27.3
			c-17.7-34.1-41.5-62.5-73.9-83.3c-7.5-4.8-15.6-14.2-24-10.3c-11.2,5.1-4.2,18-5.2,27.4C875.3,571.7,876.1,581.9,876.1,592.1z
			 M606.8,822.1c25.3,43.7,57.4,71.3,97.7,90.3c12,5.6,18.4,5.5,17.8-10.7c-0.9-23.2-0.8-46.6,0-69.8c0.5-14.6-4.4-19.7-19.3-18.1
			C672.9,817.1,642.8,819.1,606.8,822.1z M874.1,911.9c38.2-15.7,64.9-39.8,87.4-69.3c8.6-11.3,7.1-17.7-7.1-21
			c-24.7-5.7-49.3-11.8-74-17.7c-8.5-2.1-17.3-3.7-16,9.6C867.3,845.7,870.7,877.8,874.1,911.9z M672,549.2
			c-34.5,19.6-52.2,46.2-68.2,74.3c-6.2,10.9-1,13.2,9.5,14.8c52.9,7.7,58.8,3,58.8-50.1C672,577.2,672,566.2,672,549.2z"/>
	</g>
</g>
</svg>
