<?xml version="1.0" encoding="utf-8"?>
<!-- Generator: Adobe Illustrator 23.0.0, SVG Export Plug-In . SVG Version: 6.00 Build 0)  -->
<svg version="1.0" xmlns="http://www.w3.org/2000/svg" xmlns:xlink="http://www.w3.org/1999/xlink" x="0px" y="0px"
	 viewBox="0 0 3000 3000" style="enable-background:new 0 0 3000 3000;" xml:space="preserve">
<style type="text/css">
	.st0{stroke:#000000;stroke-width:10;stroke-miterlimit:10;}
</style>
<g id="Layer_1">
</g>
<g id="Layer_2">
	<g>
		<path class="st0" d="M2816.5,1495c0,213.2,11.4,427.1-2.6,639.4c-22.4,340.7-198.9,582.2-511,724.1
			c-110.1,50.1-225.7,69.2-345,69.4c-300.4,0.7-600.9,0.9-901.3,0.1c-416.4-1.1-757.4-277.8-841.3-681.9
			c-11.4-54.9-16.4-110.6-16.4-166.8c0.1-389.8-0.3-779.6,0.2-1169.4C199.6,479,515.8,121.7,944,67.8c35.2-4.4,70.9-6.3,106.3-6.4
			c305.8-0.5,611.6-1.1,917.4,0c404.8,1.6,743.3,273.5,831.7,666.2c14.7,65.5,19.4,131.9,19.4,198.8c0.1,189.5,0,379,0,568.5
			C2818.1,1495,2817.3,1495,2816.5,1495z M618.1,2748.6c-2.1-9.9-2.4-13-3.4-16c-147.3-457-179.6-927.5-163.1-1403.4
			c4.2-121,25.6-239.8,74.3-351.8c99.3-227.9,277-368.3,507.6-446.2c197.7-66.8,402.8-77.9,609.2-69.1
			c174.2,7.4,344.3,38.1,503.1,114.1c233.3,111.7,373.7,289.1,393.5,554.1c10.4,138.7,10.8,277.5,13.4,416.3
			c4.7,252.3-12.7,503.4-46.6,753.4c-3.4,25.4-17.3,21.7-33.6,20.7c-17.3-1.1-23.4-7-20.8-26.4c11.7-85.2,20.8-170.8,28.8-256.5
			c27.8-300,22.8-600.1,4.4-900.1c-6.2-100.3-28.8-197.6-86.6-283.8c-88.5-132-213.6-214.8-360.9-263.5
			c-328.9-108.6-661.5-105.5-990.6-5.7C832.8,650,670.2,784.9,577.4,994c-52.8,119-68.7,245.9-74.5,374.4
			c-6.2,135.7,2,271.2,5.4,406.8c8.2,324.8,63.1,641.7,161.9,951c6.2,19.6,9.7,34.8-15.1,43.2c110.6,67.9,252.9,104.6,404.3,104.7
			c295,0.2,590.1,0,885.1,0c49.6,0,98.9-3.1,148.1-9.8c371.6-50.1,671.2-391.5,671.4-766.1c0.2-402.7-0.1-805.4,0.2-1208.1
			c0-35.7-3.1-71.1-9.1-106c-66.9-390-388.7-665.3-782.8-667.5c-309-1.7-618.1-0.3-927.1-0.5c-118.1-0.1-231.8,22.4-337,75.9
			C412.5,342.1,257.6,585.1,253.3,916.1c-4.9,383.3-1.2,766.6-1.1,1150c0,119.9,21.6,235.3,72.3,344.5
			C389.1,2549.9,485.6,2661.3,618.1,2748.6z"/>
		<path class="st0" d="M994.6,766.5c-101.5,60.5-177.9,136.6-227,238.3c-49.9,103.4-67.9,214.8-76.6,327.8
			c-7.6,99.8-8.3,200-10.4,300.1c-0.4,21.5,5,31.6,27.2,32.7c62.9,3.1,125.6,22.9,188.7,2.6c60.9-19.7,78.2-42.9,66.3-87.3
			c-12.4-46.2-61-75.6-110.9-65.3c-19.2,4-38.1,6.7-57.5,5.9c-58.3-2.3-79-34.7-55-88.2c44.9-100.1,187.8-165.8,305.6-61.1
			c89.4,79.5,125.9,219.7,83.9,331.1c-33.7,89.5-106.3,121-195.5,126.7c-59.3,3.8-117.9-8-177-7.4c-16.1,0.1-32.3,0.3-48.4-0.9
			c-19.2-1.4-26.2,4.9-25.4,25.5c3.8,104.4,10.9,208.5,23.4,312.1c23.4,194.6,59.6,386.7,113.9,575.2c6.2,21.6-1.3,27.1-19.3,31.6
			c-17.4,4.4-27.8,6.2-34.1-17.1c-74.8-276.1-121.3-556.6-135.2-842.6c-9.5-197.1-6.2-394,7.7-590.6
			c10.1-142.8,37.7-281.9,120.4-403.4c105.2-154.4,255.2-242.7,434.9-277.2c248.3-47.7,496.5-43.8,739.7,32.9
			c98.7,31.1,184.3,85.4,257.6,160.3c81.9,83.7,106.4,187.3,112.6,297.7c9.1,162.5,0.4,324.8-8.6,487.2
			c-10.3,185.8-27.6,371.1-42.6,556.6c-8,98.5-21.4,196.6-30.8,295.1c-2.1,22.4-14.4,18.7-28.7,18.3c-15.2-0.5-27.5-0.6-25.1-22.3
			c8.5-75.9,16.4-151.9,23.4-227.9c12.7-138.1,24.6-276.2,37.2-418.2c-33.1,9-62.1,18.9-91.9,24.7c-76.6,15-153,22.9-228.4-8.7
			c-95.3-40-147.5-111.5-146.3-203.4c1.3-98.9,65.3-192.3,154.2-226.9c46.1-17.9,93.7-20.5,142.2-18c20.5,1.1,38.3,7.4,47,27.9
			c8.9,21.1-0.7,38.3-14.6,52.5c-30.8,31.6-62.8,62-94.3,93c-8.4,8.3-17.7,15.7-22.2,27.3c-10.7,27.4-13.4,56,3.4,80.5
			c16.5,24.1,41.6,9.9,62.1,4.4c58.3-15.7,117.3-26.9,176.9-35.3c15.8-2.2,23.5-6.3,24.6-24.9c9.5-172,17.9-343.8,5.5-516.2
			C2235.4,925.7,2139,824.8,1996.7,752c-7.8,73.5-21.9,141.7-50.2,206c-93.9,212.7-265,319.9-488.1,354.9
			c-62.4,9.8-124.6,6.3-185.8-9.1c-158.1-39.9-266.1-169-286.2-336.7C978.5,901.4,983.9,836.9,994.6,766.5z M1193.1,690.8
			c-43.7,8.4-76.4,21.6-109.7,32.9c-18.8,6.4-26.6,18.4-30.9,36.6c-15,63.4-19.5,127.4-13.5,192.3
			c13.9,149.8,108.4,264.6,248.6,299.4c76.8,19.1,153.7,14.2,230.1-4.2c236.6-56.9,390.1-228.3,420.7-469.7
			c7-55.1,6.8-54.4-62.7-73.2c-18.8-5.1-24.3-2.3-22.8,17.8c1.8,23.5,1.8,47.4-0.1,70.9c-10.4,130.9-66.6,236.8-182.7,301.3
			c-94.9,52.8-201.2,75.3-309.2,73.9c-87.7-1.2-164.3-34.9-208.3-118.1c-26.9-50.9-32.1-106.3-27.2-163.1
			C1131.3,818.9,1150.7,754.8,1193.1,690.8z M1463.6,860.9c0-57-1.6-114.1,0.7-170.9c1-25.2-6.4-32-30.2-29.7
			c-43.9,4.3-87.9,6.9-131.9,9.6c-18.6,1.1-31.6,9.7-43.4,23.8c-66.8,80.1-90.1,172.6-76.7,274.3c8.9,67.7,47.1,113.9,113.5,135
			c44.9,14.3,90.4,16.8,137,10.2c25.2-3.6,33.5-16.9,30.3-39.7C1452.9,1002.8,1453.1,931.9,1463.6,860.9z M1519,1093.2
			c9.3-2.3,15.5-3.9,21.8-5.2c180.9-38.7,275.6-189.1,258.3-375.5c-1.5-15.8-5.3-27.8-25-31.1c-78.7-13.1-158.1-18.1-237.7-20.9
			c-13.3-0.5-19.4,3.5-19.5,18C1516.2,815.8,1498.8,953.3,1519,1093.2z M896.1,1777.4c32.5,1,64.3-3.8,95.7-12.1
			c36.5-9.7,62.9-31.9,79.6-65.5c51.7-104.2,3-257.6-99-312.7c-61.9-33.4-152.8-1.6-181.3,62.7c-6.9,15.5-2.5,19.3,12.2,18.3
			c8.5-0.6,17.4,0,25.6-2.2c39.1-10.7,77.1-6.4,112.8,11.1c47.1,23.1,73.3,62.3,77.5,114.7c3.6,44.4-12.3,81.3-51.5,103.8
			c-48.5,27.9-100.6,42.3-157.7,34.5c-36.2-4.9-72.9-6-109.1-10.6c-16.9-2.1-21.3,4.5-20.2,19.1c1,13-4.5,29.5,18.9,28.6
			C765.3,1764.3,830.6,1774.2,896.1,1777.4z M2035.4,1436c-12.8,0-24.6-0.8-36.3,0.1c-101.3,7.9-174.7,82.3-182.4,184.7
			c-6.3,83.9,53.1,153.8,154.7,172.3c85.8,15.7,169.4-1.7,248.5-36.9c26.9-12,14.7-40.7,13.6-60.7c-1-18.6-21.7-8-31.6-6.2
			c-63.3,11.8-126,27.1-189.4,38.6c-40.4,7.3-69.7-10.1-86.9-45.9c-25.4-52.6-12.7-119.7,28.9-160.8
			C1981.7,1494.3,2007.4,1465.6,2035.4,1436z"/>
		<path class="st0" d="M1089.4,2829.1c-37.2,11.6-69.7,2.6-99-21.3c-20.6-16.8-36-38.1-42-63.7c-18.6-79-24.7-159.6-15-240.1
			c6.3-52.2,44.4-78.7,103.8-80.9c57.2-2.1,114,2.9,169.9,14.5c23.6,4.9,23.5-4.4,17.4-20.4c-8-21.1-15-42.3-18.4-64.8
			c-9.4-60.7,10.3-111.6,55.6-150.4c88.5-75.8,192-111,308.9-103.4c23.5,1.5,47,2.6,70.5,7.3c166.4,33.2,184.3,189.2,132.4,288.9
			c-5.8,11.1-12.2,21.9-20.4,36.3c32.4-4.2,59.6-9.1,87.6-8.7c102.8,1.5,172.8,84.5,153,185.5c-14.7,74.9-59.6,132.3-114.1,183.2
			c-16.7,15.6-22.1-1.6-29.8-9.7c-8.7-9.1-23.3-16.9-4.8-32.6c35.5-30.4,64-66.8,82.7-110.1c18.1-42.2,27.7-85.1-5-124.7
			c-32.6-39.5-77-43.5-123.6-35.5c-22.2,3.8-44,9.9-66.1,14.5c-19.5,4.1-36.5-0.2-48.4-17.2c-11.7-16.7-6.1-33.3,2.8-48.5
			c7.5-13,17-24.8,25.9-37c26.8-36.7,34.6-78.1,29.9-122.4c-5.8-55-41.4-93.4-105.1-106.9c-114.8-24.3-222.5-5.8-319.1,63.2
			c-61,43.6-75.6,89.1-48.4,159.9c28.3,73.9,13.2,126.8-86.4,104.6c-46.2-10.3-93.5-14.5-141-12.8c-43,1.5-59.8,15.5-59.9,58.5
			c-0.2,60.2,0.7,120.8,12.5,180c6.7,33.7,24.3,62.1,65.3,65.3C1077.2,2781.3,1077.1,2783,1089.4,2829.1z"/>
	</g>
</g>
</svg>
