<?xml version="1.0" encoding="utf-8"?>
<!-- Generator: Adobe Illustrator 23.0.0, SVG Export Plug-In . SVG Version: 6.00 Build 0)  -->
<svg version="1.0" xmlns="http://www.w3.org/2000/svg" xmlns:xlink="http://www.w3.org/1999/xlink" x="0px" y="0px"
	 viewBox="0 0 3000 3000" style="enable-background:new 0 0 3000 3000;" xml:space="preserve">
<style type="text/css">
	.st0{stroke:#000000;stroke-width:10;stroke-miterlimit:10;}
</style>
<g id="Layer_1">
</g>
<g id="Layer_2">
	<g>
		<path class="st0" d="M1023.2,2378.6c-14.1,37.3-36.2,68.9-68.4,92.2c-54.5,39.6-114.2,44.6-176.7,22.9c-9.6-3.3-15.3-5.6-22.2,5
			c-48.6,74.7-122.9,103.3-207,112.2c-84.7,8.9-167.9,1.5-248.4-27.9c-4.1-1.5-8.7-2.1-13.2-2.2c-98.7-2.4-182.5-74.1-200.8-171.9
			c-9-48.3-4.6-95.4,13.1-141c4.1-10.5,3.6-16.4-5.7-24.3c-31.1-26.4-32.9-62.8-29.9-99.7c3.9-49,24.3-85.6,74.5-102.3
			c29.5-9.9,44.7-36.1,56.2-63.5c11-26.4,15.4-54.5,20.9-82.4c2.1-10.8,0.7-14.2-10.8-15.6c-35.2-4.3-67.9-15.8-95.3-39.5
			c-30.3-26.2-38.3-61.6-20.7-97.9c28.3-58.4,66.8-110.5,103-164.1c38.3-56.8,76.5-113.8,99.3-179.2c2.6-7.5,7.3-14.4-4.5-20.6
			c-89.3-47.2-133.8-126.3-153.7-221.6c-20.7-98.8-17.3-198.4-2.4-297.3c20.5-136.6,66.8-264.9,147.2-377.5
			C370.2,352.6,492,262.1,652.5,233.6c107.6-19.1,210.6-0.5,310.3,42.8c139.7,60.7,249.3,155.3,327.7,285.8
			c7.1,11.8,10.8,15.3,23.1,4c94.7-86.2,202.2-152.4,320.2-201.5c28.8-12,60.5-12.3,91-16.3c91.5-12.1,183.3-22.3,275-33.2
			c97.1-11.6,190.9-2.3,279.2,43.4c73.1,37.8,152.1,57.6,232.8,68.9c110.5,15.4,192.2,74.5,256.9,161.4
			c48.7,65.3,96.9,130.9,128.2,207.2c40.1,97.4,59.4,199.1,66,303.6c8.4,132.1-1,263.7-10.1,395.3c-7.5,109-16,217.9-24.7,326.8
			c-11.6,146-31.3,290.8-82.5,428.9c-94.3,254.4-277.9,409.3-538.3,476.9c-87.5,22.7-176.9,30.6-266.7,35.6
			c-168.4,9.3-334.7-5-498-47.5c-146.9-38.3-282.3-100.1-397.6-201.3c-40.6-35.6-75.7-76-107.3-119.7
			C1033.6,2389.1,1031.2,2381.8,1023.2,2378.6z M1043.5,2315.6c5.4-9.6,10.2-17.1,13.9-25.2c17.1-36.9,33.2-74.3,50.8-110.9
			c17.1-35.4,40.4-64.7,81.4-74.7c31.9-7.8,59.8,3.5,87.5,16.6c108.8,51.7,208.6,117.2,298.1,197.6
			c118.1,106.3,261.1,142.1,414.3,147.7c59.3,2.1,98.8-30.9,117.3-89.7c1.8-5.8,4.3-6.4,9.2-7.1c39-5.1,44.3,1.2,32.5,38.5
			c-6,18.9-15.9,35.2-29.4,49.6c-32.1,34.1-72,51.8-118.1,56c-52.9,4.8-104.2-5.5-155.7-15.5c-118-23.1-223.7-69.6-312.7-152.8
			c-51.5-48.2-109.9-88.1-170.4-124.6c-36-21.7-73.1-41.3-111-59.4c-45.9-21.9-68.8-14.9-94.7,29.4c-7.8,13.3-14.8,27.3-20.5,41.7
			c-16,40.4-34.3,79.6-57.2,116.4c-5.9,9.4-5,15.2,1.1,23.5c37.8,51.4,81.4,97,132.2,135.8c132.7,101.3,285.2,154.7,447.3,184
			c121.2,21.9,243.4,30.8,366.7,23.8c91.8-5.3,183.2-12.1,272.5-35.5c259.9-68.1,434.2-227.9,516-485.2
			c34.4-108.3,53-219.9,62.3-332.8c14.6-177.2,30.5-354.3,38.3-532.1c5-113.2,5.3-226.1-11.5-338.7
			c-23.1-154.2-95.7-283.8-194.2-401.1c-20.8-24.8-44.3-47.1-71.1-65.7c-8-5.5-13.2-6.7-21.2,0.9
			c-142.3,135.3-313.3,216.9-501.3,266.2c-94.3,24.8-189.6,41.1-287.6,25.2c-93.7-15.3-163.6-62.4-198.6-153
			c-19.1-49.5-23.4-101.7-19.5-154.6c2.1-28.6,7.1-56.8,11.7-87.9c-45.7,20.7-86.5,42.7-126.3,66.8c-7.3,4.4-9.4,11.9-11.6,19.4
			c-20.8,69.1-13.6,135.4,20.8,198.7c13.8,25.4,13.5,24.9-10.6,42.4c-10.2,7.5-15.4,7.1-22.2-4.1c-27-44.4-44.7-91.6-46-144
			c-0.5-20.7-0.1-41.4-0.1-65.2c-122.7,91.2-218.9,200.1-285.7,334c-69.1,138.5-98.9,287.9-116.9,439.8
			c-20.7,174-39.6,348.2-53.3,522.8c-7.6,96.9-10.1,193.8,5.6,290.3C986.3,2190.4,1007.6,2254.2,1043.5,2315.6z M167.3,1008.5
			c-0.6,72.2,5.8,143.2,34.5,210.7c5,11.8,9,14.3,20,6.2c26-19.1,52.9-37,79.5-55.3c54.7-37.8,109.6-75.5,164.1-113.7
			c9.6-6.7,16.6-9.2,22.5,3.6c1.9,4.1,4.5,8,7.7,11.2c11.3,11.3,7.6,17.9-4.7,26.2c-81.1,55.3-161.5,111.7-242.7,166.9
			c-12.8,8.7-12.7,13.7-2.7,24.3c28.2,29.9,61.4,51.5,100.2,64.2c99.3,32.5,199.7,32.9,300,5.9c131.4-35.4,242.6-107.1,344.6-195
			c8.8-7.6,10.4-17.3,12.3-27.4c37.7-193.8,114.6-368.4,252.7-512.6c8.7-9,7.8-15.4,2-25.1c-31.3-52.5-67.7-100.8-111.2-143.9
			c-10.4-10.3-15.1-8.8-23.3,1.7c-35,44.8-71.3,88.6-105.9,133.7c-9.5,12.4-16.1,11.3-25.4,1.8c-2.7-2.8-5.6-5.6-9-7.4
			c-13.8-7.2-11.8-14.2-2.8-25.2c36.5-44.5,71.6-90,108-134.6c8.3-10.2,8.8-15.4-2.7-23.8c-40.4-29.4-83.3-54.5-128.6-75.1
			c-181-82.4-352.4-69.1-512.8,52.4c-10.2,7.7-12.7,12.1-3,23.2c51.9,59.3,102.8,119.6,154,179.6c3.6,4.2,12,9.7,8.7,13.5
			c-9.3,10.5-20,20.8-32.3,27.2c-6.4,3.3-11.3-8.3-16.1-13.9c-50.1-58.3-100.4-116.5-150-175.4c-9.3-11.1-14.4-9.6-23.7-0.2
			c-26.9,27.3-52.5,55.6-72.8,88.1C215.2,669.4,165.2,831.4,167.3,1008.5z M2580.7,494.6c-7.4-3-11.8-5.3-16.5-6.6
			c-10.6-3-21.1-6.2-31.9-8c-94.6-15.5-188.1-34.3-274.5-78.3c-62.4-31.8-128.4-46.7-198.4-42.6c-125.3,7.3-249.2,26.8-373.4,43.1
			c-10.5,1.4-11.7,8-13.6,15.7c-13,54.4-19.1,109.3-13.7,165.3c8.7,89.5,57.3,152.7,138.2,178.1c58,18.2,117.2,16.7,176.7,10.8
			c13.4-1.3,16.3-5.9,16.7-18.9c3.5-127.6,58.8-225.3,169.8-290c21.1-12.3,20.4-11.2,32.2,10.4c8.4,15.4,7.1,22.5-9.4,32
			c-91.4,52.9-139.7,132.8-144.7,238.7c-0.6,13,2.4,17.4,15.9,14.2c151.2-35.9,295.4-88.4,423-179.7
			C2512.8,553.4,2546.9,526.3,2580.7,494.6z M984.3,1232.9c-3.9,1.7-5.8,2.2-7.2,3.2c-84.1,66.8-174.8,121.7-277.3,155.4
			c-10.9,3.6-12.9,9.5-12.5,20c4.1,100.3,0.7,200.3-18.5,299.2c-10,51.2-13.9,104-36.7,151.9c-6.7,14-4.6,18.2,9.8,21.9
			c96.4,24.9,185.4,7.6,268.6-45.3c8.9-5.6,11.6-12.6,12.4-22.2c5.5-60.4,11-120.9,17.3-181.2c10.9-105.3,22.3-210.5,33.6-315.7
			C977,1291.6,980.7,1263.1,984.3,1232.9z M357.4,2551.8c88.2,18.8,173.4,22.9,258.2-3.5c55.1-17.1,94.3-52.7,116.8-105.7
			c36.9-86.8,28.7-174.3,2.1-261.8c-1.4-4.7-4.5-7.5-8.6-9.9c-13.9-8.2-27.7-16.6-41.4-25.1c-18.3-11.4-36.8-10.5-55.1-0.4
			c-13.1,7.3-24.5,16.6-33.9,28.5c-18.1,22.7-35.6,46-55.1,67.6c-22.8,25.2-51.3,42.5-86.1,42.9c-17.3,0.2-17.3,6.3-16.6,20.2
			c3.9,71.7-6.3,140.5-44.7,203.1C383.6,2522.9,369.9,2534.7,357.4,2551.8z M916.2,1894.2c-1.4,0-2.8-0.4-3.8,0.1
			c-101,53.9-205.4,65.1-314.1,25.9c-9.5-3.4-44.5,14.3-46.3,23.3c-12.7,62-53.8,102.9-102.2,138.4c-20.8,15.3-42.2,29.8-63.5,44.4
			c-5.7,3.9-10.5,7.2-7.1,15.4c9.9,23.8,17.6,48.6,31.6,70.5c16.3,25.5,37.3,31.4,64.9,18.7c19.4-8.9,33.2-24.3,46.2-40.5
			c11.7-14.6,22.7-29.8,34.6-44.2c42-50.8,102.4-83.4,175.8-26.4c39.7,30.9,139,28.1,183.4-7.1c6.1-4.9,9.3-9.2,8.1-17.6
			c-8.8-60.4-7.4-121.2-6.5-181.9C917.5,1906.8,919.4,1900.3,916.2,1894.2z M227,1834.1c42.1-1.5,80.7-14.2,109.5-45.8
			c90.6-99.1,131.8-218.7,141.2-350.8c0.6-8.5-1.1-13.4-11-13.8c-39.6-1.5-78.3-8.6-116.3-19.6c-8.2-2.4-11.6,1-14,8.3
			c-28.3,83.1-78.5,153.9-127.6,225.2c-26.4,38.3-52.1,77.1-74.2,118.1c-13.1,24.3-9.1,38.9,13.5,54.8
			C171.5,1827.1,198.3,1833.4,227,1834.1z M640.5,1511.9c0-29.1-0.2-58.2,0.1-87.3c0.1-11-3.8-15.1-15.2-12.5
			c-28.4,6.5-57.2,10.7-86.4,11.4c-11,0.2-13.8,4.6-14.3,15.2c-2.1,46.6-10,92.5-21.4,137.7c-21.1,83.5-61.4,157.3-113.6,225.1
			c-3.8,4.9-12.2,9-3.2,17.3c33.7,31,69.7,58.3,115,69.3c42.9,10.5,71.4-5.2,88.1-46c2.2-5.4,3.9-10.9,5.5-16.5
			C625.7,1723.2,636.7,1618,640.5,1511.9z M183.5,2224.5c30.4-1.6,60.4-13,80.8-42.4c31.1-44.7,70.2-80.5,115.8-110
			c23.8-15.4,47.7-31,68.8-50.2c22.2-20.1,42.1-42.2,51.9-71.2c1.7-4.9,7.6-12.8-3.8-15.1c-58.1-11.7-103.3-45.4-145.2-84.8
			c-6.2-5.8-10.8-4.5-16.9-0.6c-17.5,11.2-36.4,19.6-56.7,24.3c-8.9,2-12.1,6.8-13.6,15.8c-4.9,29.9-9.8,59.9-19.7,88.7
			c-17.8,51.6-46.5,93.5-101.3,111.8c-15.5,5.2-23.1,16.9-27.6,32.2C96.8,2187.4,120,2225.1,183.5,2224.5z M337.5,2166.4
			c-12,15.1-22.4,27.4-32,40.3c-36.1,48.4-84.3,69.8-144.2,64.3c-8.9-0.8-12.9,1.6-16,9.4c-35,88.3-14.1,188.4,76.5,238.4
			c46.7,25.7,84.5,19.3,119-20.9c10.6-12.4,18.5-26.4,25.3-41.1c26.5-57.9,28.6-118.6,21.2-180.4c-0.8-7-0.7-15.5-4.5-20.5
			C362.8,2229.8,351,2199.8,337.5,2166.4z M789,2187.8c-0.4,3.1-0.8,4.4-0.7,5.6c0.6,3.8,1.3,7.7,2.2,11.4
			c18.4,76.2,20.8,152.3-3.5,227.7c-4.5,14,3.8,15.4,12.4,18.2c96.7,32.2,176.2-36.4,187.6-124.7c0.9-7.2,0.1-13.9-3.3-20.7
			c-21.3-43-37.8-87.8-47.5-134.9c-2.1-10-5.7-11.3-14.3-6.3c-22.7,13.2-47.5,20.9-73.4,23.2C828.8,2189.2,808.7,2187.8,789,2187.8z
			"/>
		<path class="st0" d="M2198.3,1469.7c0,111.9,0.4,223.8-0.2,335.7c-0.3,43.5-7.3,86.3-21.2,127.7
			c-37.9,113-115.3,169.2-239.1,172.9c-80.2,2.4-160.4-1.9-240.5-5.5c-53.4-2.4-107-3.3-159.5-14.3c-101.7-21.3-159.4-87.6-185-185
			c-13.3-50.8-19.2-103-19.9-155.4c-0.8-54.5,24.3-85.4,77.5-97.3c20.1-4.5,40.9-5.9,61.2-9.9c65.7-12.8,117.5-50.7,168.4-91.5
			c117.3-94,148-218.5,131.6-360.9c-1.3-10.9-6.3-13.8-15.7-15.4c-32.6-5.8-64.5-14.6-94.1-29.1c-14.5-7.1-17.9-2.2-22.6,10.5
			c-48.7,132.3-105.3,261.2-169.8,386.5c-4.3,8.4-6,22.6-15.2,23c-13.2,0.6-25-9.2-36-16.9c-7.8-5.4,0.7-11.4,3.2-16.2
			c52.7-101.6,99.7-205.8,142.2-312c12-30,22.9-60.4,34.8-90.4c4-10.2,3.7-16.3-6.7-23.7c-82.3-58.7-131.2-140.9-163.3-234.8
			c-3-8.8-0.3-10.4,7.1-13.1c33.9-12.2,34-12.6,47,21.8c48.8,129.4,135.7,216.7,273.9,246.2c82.3,17.5,164.7,13.2,246.5-4.3
			c175.5-37.6,328.4-121.8,469.6-229.6c36.5-27.9,71.9-57.2,105.1-89c10.2-9.8,17.3-12,26.1,0.4c3.3,4.7,7.6,8.9,12,12.7
			c8.2,6.9,6.2,11.8-1.1,18.4c-118.8,108.4-248.4,200.6-396.1,265.7c-15.3,6.8-20.4,14.4-20.3,31.3c0.9,113.8,0.5,227.7,0.5,341.6
			C2198.6,1469.7,2198.5,1469.7,2198.3,1469.7z M2150.7,1479.9c0.3,0,0.6,0,0.9,0c0-112.5-0.1-225.1,0.2-337.6
			c0-12-0.5-17.6-15.4-12.4c-99,34.7-200.3,55.8-306,49.8c-8.2-0.5-11.4,1.2-10.4,10.6c1.9,18.6,2.7,37.4,2.9,56.1
			c1,104.1-22.1,200.3-94.3,279.5c-68.6,75.2-146.1,137.3-248.9,159.2c-19.6,4.2-39.7,5.7-59.2,9.9c-31.6,6.8-41.4,19.3-40.2,51.6
			c1.6,43.3,5.8,86.4,15.3,128.8c24.1,107.6,78.1,155.8,188.2,169.6c46.3,5.8,92.8,7.5,139.3,8.9c79.4,2.4,158.8,8.5,238.5,2.7
			c79.5-5.8,131.9-47,162.6-118.4c19-44,26-90.7,26.3-138.1C2151.2,1693.3,2150.7,1586.6,2150.7,1479.9z"/>
		<path class="st0" d="M2564.2,1989.4c-56.8-3.4-98.7-31.8-129.7-76.2c-45.9-65.8-51.1-137.4-13-207.1
			c45.2-82.7,105-154.9,178.3-215.2c11.5-9.4,18.4-8.8,24.6,4.6c2.1,4.6,5.2,9,8.5,12.9c7,8.1,6,12.9-2.9,19.9
			c-66.3,52.4-118,117.9-161.1,189.5c-46.4,77.1-21.9,170.3,51.3,210.6c37.4,20.6,70.2,16.1,100.5-14c20.3-20.2,32-45.3,39.3-72.4
			c9.6-35.5,18.8-71.2,27.1-107c2.9-12.7,5.4-19.1,21.2-14.5c29.3,8.5,29.9,7.4,22.4,37.6c-8.8,35-17.1,70.2-27.4,104.8
			c-12.9,43.1-35.5,80.2-74.1,105.8C2609.2,1982.1,2587,1987.8,2564.2,1989.4z"/>
		<path class="st0" d="M1169,1613.9c-58.2-0.2-104.4-46.7-104.3-104.9c0-57.7,47.1-105,104.6-105.3c58.1-0.2,105.6,47.8,105.2,106.5
			C1274.2,1568.3,1227.5,1614.2,1169,1613.9z M1169.1,1566.7c31.6,0.2,58.2-26,58.2-57.5c0-31.3-27.1-58.1-58.2-57.7
			c-30.6,0.4-56.7,26.2-57.2,56.8C1111.2,1539.6,1137.6,1566.5,1169.1,1566.7z"/>
		<path class="st0" d="M2328.9,2456.3c-0.5-43.7,32.9-77.9,76.4-78.3c44.3-0.4,79.5,33.8,79.7,77.2c0.1,42.4-35.3,78-77.8,78.2
			C2364.2,2533.6,2329.4,2499.4,2328.9,2456.3z"/>
		<path class="st0" d="M755.9,722.1c21.9-2,43.7-2.3,65.7,1.4c52,9,84,47.5,82.2,100.7c-1.1,32.9-10,63.7-27.5,91.7
			c-28.2,45.3-62,85.9-101.4,121.8c-50.5,46-113.3,56.2-163.7,24.2c-52.5-33.3-73.8-85.6-75-145.2c-2.1-104.9,80-189,184.9-192.7
			C732.6,723.6,744.2,722.8,755.9,722.1z M583.3,915.1c-1.2,20.2,4.8,39.9,13.4,58.9c28.9,63.3,83.9,77.7,138.5,34
			c44.8-35.8,80.2-80.3,107.5-130.9c9.3-17.3,13.7-36.1,13-56c-1.2-31.6-13.2-47.1-44.4-50.8c-40.6-4.8-81.8-3.4-121.2,6.3
			C625.4,792.7,583.4,849.2,583.3,915.1z"/>
	</g>
</g>
</svg>
