<?xml version="1.0" encoding="utf-8"?>
<!-- Generator: Adobe Illustrator 23.0.0, SVG Export Plug-In . SVG Version: 6.00 Build 0)  -->
<svg version="1.0" xmlns="http://www.w3.org/2000/svg" xmlns:xlink="http://www.w3.org/1999/xlink" x="0px" y="0px"
	 viewBox="0 0 3000 3000" style="enable-background:new 0 0 3000 3000;" xml:space="preserve">
<style type="text/css">
	.st0{stroke:#000000;stroke-width:10;stroke-miterlimit:10;}
</style>
<g id="Layer_1">
</g>
<g id="Layer_2">
	<g>
		<path class="st0" d="M1039.4,984.2c-22.2-0.1-41.8-0.4-61-4.1c-94.2-18-157.9-74.1-195.3-160.4c-17.1-39.3-12.8-78.3,14.5-113.4
			c12.5-16.2,25.7-31.5,41.4-44.8c33.3-28.2,52.3-63.8,53.4-107.8c4.8-194.5,107.7-323.4,274.1-409.2
			c93.7-48.3,195.6-68.3,299.3-78.5c99.6-9.9,199.5-12.5,298.9,2.9c82.7,12.9,160.4,39.3,230,87.2c135,92.9,192.8,232.6,158.9,392.7
			c-20.8,98.3-55.5,191.5-117.9,272.4c-12.7,16.5-37.1,31.2-36,49.1c1,16.3,24.6,30.5,36.4,47c70,98.2,103.6,207.3,82.3,327
			c-6.7,37.3-4.7,69.5,4.8,104.5c40.7,149.2,40.6,299.4,10.8,450.8c-22.6,114.8-58.8,223.3-129.4,318.2
			c-20.5,27.6-44.2,52-70.7,75.5c11.7,9.5,23.2,18.1,33.8,27.7c97.7,88.3,131.6,200.4,122.3,328.5c-5.2,71.2-27.2,137.7-59.2,200.8
			c-39.8,78.5-107.9,121.4-191.4,138c-106.5,21.3-213.7,22.9-320.8-0.6c-25.1-5.5-50.6,4.7-75.9,7.2c-98.1,9.8-196.3,19.2-295,10.3
			c-8.7-0.8-16.8,0.4-24.9,3.7c-159.6,65.1-318.3,15.7-427.5-120.2c-41-51-74.8-105.1-80.2-172.2c-7.8-96.9,21.4-180.9,95.8-244.7
			c72.6-62.3,157.5-106.6,240.1-154c22.2-12.7,45-24.4,67.3-37.1c7-4,20.1-5.7,18.6-13.9c-1.9-10-10.3-18-23.3-20.7
			c-55.7-11.5-97-44.8-129.7-89.9c-41.8-57.5-64.9-123-77.6-192c-24-130.9-6.9-256.3,53.5-375.3c3.1-6.1,7.8-11.6,2.9-19.9
			c-24.6-41.7-21.4-87.4-15.3-132.5c16.9-126.5,76-232.1,164.3-322.5c7.8-8,15.9-15.8,23.7-23.7
			C1036.3,989.4,1036.9,988.2,1039.4,984.2z M2108.2,1582.4c-1.9-29.6-2.9-50.6-4.7-71.6c-5-57.1-16.6-112.9-31.6-168.1
			c-1.7-6.3-1.7-15.4-13.6-9.6c-21.5,10.4-43.1,7.3-64.9-0.5c-41-14.5-79.3-34.7-117.4-55.2c-11.4-6.1-18.1-7.5-27.5,4.2
			c-36.9,45.5-85.7,73-141.7,87.5c-13.8,3.6-17,7.2-15.1,22c9.2,71.6-4.2,138.7-46,198.7c-74.2,106.7-209.8,126.6-306.1,44.8
			c-37.5-31.9-62.3-72.3-76.8-119.3c-2.2-7-2.5-15.1-14.7-13.7c-54.6,6.3-100.7-12.5-139.1-50.8c-8-8-12.8-7.1-20.9-0.9
			c-28.8,22.3-61.1,38.4-95.7,49.7c-22,7.2-45,12.7-67.8,7c-15-3.8-20.8,1.1-26.8,13.5c-43.8,90.4-60.3,185.9-51.1,285.4
			c7.1,76.7,27.6,149.8,71.2,214.6c22,32.7,48.7,60.3,87.4,73.5c22.5,7.7,22.5,7.7,22.6-16.1c0.1-47.3,18.2-85.9,57.6-112.6
			c59.4-40.3,141.7-22,178.3,40.4c13.6,23.1,30.8,34.3,57.1,33.6c19.7-0.5,39.4,0.1,59.1,0.4c86,0.9,166.6-17.4,240-64.3
			c19.7-12.6,41.9-21.9,63.8-30.5c32.9-12.9,67-19.1,102.2-9.7c5.3,1.4,14.9,1.6,13.5,8.4c-2.5,12.6-7.1,25.4-13.4,36.5
			c-4.3,7.6-13.2,0.9-19.9,0c-10.5-1.5-20.8-1.4-31.3,0.3c-31.8,5.1-59.3,20.5-87.3,35c-42.5,22.1-83.7,46.9-131.1,57.8
			c-69.2,15.9-139.3,16.9-209.7,13.7c-38.6-1.7-64.2-21.5-83-54.2c-18.6-32.5-55.8-47.1-89.6-37.9c-33.4,9.1-57,41-57.5,78.4
			c-0.2,14.5-0.2,29.2-4.5,42.9c-2.9,9.1-0.1,14.6,5.2,21.2c48,59.5,108,101.2,182.1,121.5c59.7,16.3,120.6,17.9,181.9,13.1
			c83.8-6.6,167.1-18.5,250.3-30.3c48.1-6.8,96.1-14.9,140-37.6c101.8-52.7,163.6-139.8,205.5-242.8
			C2087.6,1837,2105.6,1706.8,2108.2,1582.4z M1578.2,107.4c-73.5,0.4-174.8,9.4-273.6,36.4c-103.3,28.2-195.4,76.1-267.8,157.5
			C971.3,374.9,942,461.6,940,559.1c-0.8,39.7-14.1,75.6-39.4,107.1c-17,21.2-37.9,38.2-56.2,58c-23.5,25.5-29.6,53.6-14,85.1
			c70.7,142.5,214.2,151.1,315.4,92.6c27.8-16.1,54.3-34.6,82-50.8c10.7-6.2,13.8-9.8,5.7-21.6c-47.5-68.6-68.9-144.4-56.5-227.6
			c16.5-110.3,74.5-190.2,178.4-234.4c42.4-18.1,87.3-20.2,132.8-24c124.9-10.6,237.2,70.3,262,192.9c8.9,44.2,7.9,88.9,6.6,133.6
			c-0.9,28.3,6.4,26.1-27.9,25.1c-17.6-0.5-21.5-6.9-20.6-23.7c2.1-37.4,2.8-74.8-2.9-112.1c-10.6-69.4-45.4-120-110.9-149.1
			c-43.7-19.4-89.3-21.2-135.3-17.6c-73,5.7-136.1,33-182.5,92.1c-72,91.7-73.3,223.6,1.5,326.3c7,9.7,13.3,7.2,21.7,3.5
			c49.6-21.3,100.5-38.3,153.3-50c8.1-1.8,21.3,2.4,23.4-9.1c1.9-10.7-6.8-19.6-15-26.4c-10.1-8.4-20.7-16.1-31.8-23.1
			c-19.5-12.2-39.5-23.4-59.2-35.2c-21.1-12.7-36.7-29.9-42.2-54.5c-13.8-62,9.1-141.6,98.8-150.9
			c104.3-10.8,160.5,18.5,177.7,125.9c7.5,46.7,12.8,93.7,13.6,141.1c0.2,12.4,3.3,17.2,16.7,16.9c22.3-0.5,44.7,0.9,67,2.3
			c85.2,5.5,166.3,25.3,237.5,74.4c15.6,10.7,22.4,9,34.3-4.6c72.4-83.2,111.5-181.8,133.5-287.9c16.9-81.4,6.9-159.9-37.1-231.7
			c-48.1-78.5-120.6-126.7-205.4-157.9C1781.6,113.4,1694.7,106.3,1578.2,107.4z M1673.3,2854.7c51.4,1.3,102.4-2.5,152.8-12.9
			c66.6-13.7,123.5-44.1,156.7-105.1c46.1-84.7,69-175.5,57.8-273c-11.2-98.1-56.7-175.6-137.8-232.2c-7.3-5.1-13.2-6.1-21.2-0.7
			c-37.7,25.2-79.9,39.1-124,47.9c-91.5,18.1-184.1,28.3-276.7,37.7c-26,2.6-44.3,10.1-59.1,31.2c-14.7,21-28.9,42.2-39.1,65.9
			c-32.5,76.2-36.8,155-21.5,235.5c19.5,102.9,82.6,165.4,181,194.7C1585.1,2856.4,1629.5,2853.4,1673.3,2854.7z M1581.1,953
			c4.6,0,9.2,0,13.8,0c94.1,0.3,181.5,20.6,251.6,88.5c51.5,49.8,73.9,107.9,43.8,178c-3.9,9,0.2,11.4,6.5,14.7
			c35,18.1,69.5,36.9,106.4,50.9c34,12.9,54.3,2,65.6-33.3c8.8-27.5,9-55.9,7.1-84c-7.6-111.5-48.3-207.7-135.2-281.1
			c-65.2-55.1-142.9-78.1-226.5-85.4c-155.7-13.6-305.3,5.8-444.5,81.8c-119.2,65-224.9,145.5-300.1,260.8
			c-51.1,78.4-78.4,164.2-76.6,258.4c0.9,47,22.4,64.4,68.4,55.4c29.3-5.8,55.9-18.8,81-34.6c27.7-17.4,27.6-17.5,17.3-47.3
			c-29.2-84.5,2.8-188.4,80.3-250.8C1268.6,1021.5,1412.3,954.8,1581.1,953z M1595.3,1001.9c-39.5,0.6-78.5,5.2-117.5,11.5
			c-117.9,18.9-216.5,77.5-307.9,150.1c-47.8,38-71.4,89.5-72.6,150.9c-1.4,72.6,63.8,140.1,133.8,140.1c15,0,20-3.2,19.5-19.6
			c-1.8-60.8,14.7-116.8,50.2-166.7c58.6-82.3,158.7-114.2,246.8-77.6c56.7,23.5,96,65.8,121,121c6,13.3,11.8,15.2,24.8,11.7
			c59.5-16.3,106.7-49.1,140.2-101.3c32.7-51,28.7-95-13.7-138.8C1758.4,1019.4,1680,1001.5,1595.3,1001.9z M1646.1,1449.3
			c0.1-71.6-15.5-119.4-46.2-159c-59.7-77-159.6-88.1-230.7-25.8c-91.6,80.4-95.2,241.2-6.8,325.4c43.7,41.7,95,56.6,154.3,40.1
			c12-3.3,16.7-6.9,6.7-19.1c-30.3-37.1-65.5-68-107.9-90.6c-30.3-16.2-29.7-16.2-16.5-47.2c4.5-10.5,8.5-11.8,18.4-6.9
			c57.7,28.1,107,66.6,145.7,117.8c10,13.3,15.4,10.8,24.7,0.5C1627.4,1541.2,1645.4,1489.8,1646.1,1449.3z M1427.8,2848.2
			c-23-22.9-46.1-42.6-62.5-68.2c-8.2-12.8-18-16.4-32.3-16.7c-43.3-0.7-84.7-10.9-123.1-30.8c-72.5-37.5-117-93.9-116.6-179
			c0.5-101,49.9-175.4,127.7-234.3c6-4.5,12-8.9,19.9-14.8c-24.5-8.6-46.3-15.8-66.2-27.1c-9.6-5.4-15.8-4.7-23.9,3
			c-52.6,49.6-97,105.2-125.4,172.3c-50.8,120.4-38,236.1,30.4,345.6c23.4,37.4,59.5,56.6,105.2,60.1c57.9,4.5,115.5,0.5,173.2-1.9
			C1365.6,2855.1,1396.7,2851,1427.8,2848.2z M1380,2322c-23.9,0.6-44-5.9-62.7,1.2c-86.2,32.8-146.5,91.4-170.7,181.8
			c-21.4,79.8,8.9,144.2,81.9,182.6c26.5,14,54.7,21.3,84,26.2c15.5,2.6,16-1.2,11.6-14.7c-24.2-74.1-24.3-149.5-10.6-225.4
			C1323.3,2419.5,1346.2,2370.5,1380,2322z M722.3,2428.5c2.4,1.3,3.5,2.4,4.5,2.4c82.1-1.1,164.2-2.5,246.3-3.3
			c10.3-0.1,13.3-6,16.8-13.3c24.2-51.7,58.3-96.4,96.7-138.2c10.1-11,31-20.9,28.7-31.9c-2.6-12.2-22-20.6-33.5-31.3
			c-5.8-5.5-10.5-5.6-17.2-1.9c-105.6,57.2-211.3,114.3-308.3,185.7C743.8,2405.7,731.6,2415.3,722.3,2428.5z M808.4,2631.2
			c-41.3,0-82.7,0.6-124-0.3c-16.6-0.4-18.2,5.1-14,19.5c15.6,52.6,48.9,93.6,84.5,133.2c4.6,5.1,9,5.6,15.6,3.7
			c62.1-18.3,124.2-36.3,186.5-54.1c8.9-2.5,10.8-6,8.1-15.2c-6.8-23.2-12.9-46.8-13.9-71.2c-0.5-13-7.1-16-18.9-15.8
			C891.1,2631.6,849.7,2631.2,808.4,2631.2z M1568.9,707.2c-0.1,0-0.2,0-0.2,0c-0.5-9.2-0.5-18.4-1.7-27.5
			c-5.4-42.9-6.3-86.5-23.1-127.3c-7.5-18.3-20.3-30.6-39.2-35.7c-30.5-8.1-61.2-7.4-91.5,1c-25.7,7.2-36.2,27.2-39.1,51.4
			c-2.9,24.8-2.3,48.7,25.1,62.4c18.1,9.1,35,20.6,52.5,31.1c33.1,19.9,64.2,41.7,73.5,82.8c1.2,5.2,4.2,6.9,9.8,7.4
			c33.6,2.8,37.4-0.6,35.1-34C1569.7,715,1569.3,711.1,1568.9,707.2z M964.1,2475.6c-8.7,0-15.8-0.1-22.9,0
			c-65.6,1.1-131.2,2.7-196.8,3.3c-64.1,0.6-69.3,4.6-79.5,68.9c-1.1,7.1-1,14.4-2.2,21.5c-1.5,9,0.7,13.2,10.9,13.2
			c87.3-0.3,174.6-0.1,261.8-0.2c6.1,0,12.1,0,12.4-8.6C948.6,2540.9,955.9,2509,964.1,2475.6z M1065.8,2874.9
			c-34.4-23.9-58.1-55.7-75.9-92c-4.3-8.8-10.2-6-16.4-4.1c-21.3,6.2-42.6,12.6-63.9,18.8c-33.9,9.9-67.8,19.7-103.4,30.1
			C881,2889.9,998.1,2903.2,1065.8,2874.9z"/>
		<path class="st0" d="M1648.5,1681.7c55.7-53,115.7-92.9,189.6-107.7c49.9-9.9,99.4-5.2,148.3,7.2c7.1,1.8,10.5,3.5,8.3,13
			c-7.9,35-7.4,35.8-41.9,28.7c-97.8-20-179.9,12.3-251.6,76.5c-13.8,12.3-21.6,15-33.1-0.6
			C1663.3,1692.2,1655.5,1687.6,1648.5,1681.7z"/>
		<path class="st0" d="M1703.8,2360.4c89.4-0.5,160.4,69.2,161.6,158.6c1.1,87.4-70.6,161.1-157.1,161.5
			c-91.8,0.4-164.5-70.2-164.6-160C1543.6,2432,1614.6,2360.9,1703.8,2360.4z M1816.6,2519.5c-0.5-62.7-50.7-112.1-113.3-111.5
			c-62.3,0.6-111.5,51.3-110.7,114c0.8,61.7,50.6,110.8,112.2,110.7C1766.9,2632.6,1817.1,2581.9,1816.6,2519.5z"/>
	</g>
</g>
</svg>
