<?xml version="1.0" encoding="utf-8"?>
<!-- Generator: Adobe Illustrator 23.0.0, SVG Export Plug-In . SVG Version: 6.00 Build 0)  -->
<svg version="1.0" xmlns="http://www.w3.org/2000/svg" xmlns:xlink="http://www.w3.org/1999/xlink" x="0px" y="0px"
	 viewBox="0 0 3000 3000" style="enable-background:new 0 0 3000 3000;" xml:space="preserve">
<style type="text/css">
	.st0{stroke:#000000;stroke-width:10;stroke-miterlimit:10;}
</style>
<g id="Layer_1">
</g>
<g id="Layer_2">
	<g>
		<path class="st0" d="M2958.9,1247.4c-3.8,284-10.6,568-68.4,847.4c-28.1,135.8-64.3,270-128.6,394
			c-96.1,185.5-257.2,264-459.1,272.7c-7.5,0.3-15.8,1.1-22.4-1.5c-63.7-25.8-126-4.9-189.2,3.1c-197.7,25-367.7-35-509.3-174.4
			c-18.2-17.9-25.1-14.5-39.1,3.2c-98.3,124.6-232.2,185.2-384.9,210.6c-30.7,5.1-60.7,0.9-84.8-20.1c-21.6-18.8-43.4-5.5-64-2.5
			c-173.3,25.1-345,13.7-513.5-29.3C265,2691.9,139.4,2532,99.8,2304.8c-48.4-277.4-31.5-550.6,78.4-813.7
			c5.7-13.7,10.4-24.4-0.6-40.7c-94.9-141.5-118.4-297-84.8-462.2c8.4-41.4,22-81.8,32.5-122.8c59.6-234.7,219.1-377.2,433.4-468.1
			c167.5-71,343.7-80.9,522.8-72.2c164.4,8,317.1,52.4,457.8,137.9c9.2,5.6,17.3,13.4,30,3.7c102.7-77.7,224-108.5,346.7-133.6
			c182.5-37.3,365.2-39.1,546.2,10.5c92,25.2,177.7,65,258.3,116.4c157.9,100.6,221.4,250.5,231.1,430.8
			C2958,1009.7,2959.4,1128.5,2958.9,1247.4z M1751.6,1278.3c0.6-127.7,5-283.9-15.4-439.7c-13-98.5-46.3-186.2-119.7-255.2
			c-60.4-56.8-129.1-101.8-205.8-134.1c-232.5-97.9-472.4-99.8-713.5-46.1C533.8,439.7,387.5,517,284.2,652
			c-118.1,154.3-164,335.4-154,528.3c4.2,81.3,30.4,159.6,76.1,228.9c50.1,75.9,133.7,107.7,214.4,82.8
			c36.5-11.2,59.7-32.5,61.5-74.7c2.9-68.7,8.5-137.2,14.3-205.7c8.3-97.2,15.9-194.8,61.1-284c41.7-82.3,107.1-134.1,198.9-149.1
			c84.6-13.9,169.6-8.1,254.4-1.6c61.6,4.7,121.4,17.1,177.3,44c119.4,57.3,156.8,164.9,170.6,285.2
			c46.1,402.6,23.6,801.7-68.5,1196.2c-31.7,135.6-56.6,275.1-156.9,383.6c-14.2,15.4-41.4,34.4-30.4,54.9
			c14.2,26.7,48.8,17.1,72.5,11.7c156.5-35.6,290.5-106.3,373-252.2c95.9-169.6,134.8-356.4,163.7-546
			C1744.9,1739.7,1745.9,1523.1,1751.6,1278.3z M1334.1,1516.5c-1.2-133.9-6.9-257.5-20-380.7c-1.8-17.4-4.5-34.7-7-52
			c-21.3-145.8-83.6-217.6-222.2-247.1c-99.5-21.2-200.7-25.4-302.2-13.9c-93.2,10.5-155.8,60.6-191.5,146.8
			c-17.4,41.9-28,85.4-34.4,130c-13.8,96.7-17.3,194.2-22.7,291.5c-5.1,91.6-40.5,138.2-123.4,152.2c-54.1,9.1-108.5,5.9-155.8-24.7
			c-26.5-17.1-33.6-9.4-43.5,16.3c-98.3,256.1-111.1,519.3-59,785.7c34.9,178.7,133.3,313.1,312.6,370.2
			c183.8,58.5,372.8,67.8,563.5,37.4c10.6-1.7,22.3-2.2,28.4-14.8c21.2-43.1,53.6-78.2,83.3-115.1c19.2-23.7,20.9-38.3-7.9-58.8
			c-102-72.8-171.8-169.8-204-292.1c-53.8-204.8,40.7-370.2,240.3-421.1c40.2-10.3,81.3-14.8,122.6-14.2c21.7,0.3,30-4.4,31.8-28.3
			C1330.1,1691.5,1331.7,1599,1334.1,1516.5z M2250.3,2705.2c4.3,1.3,8.6,3.4,13,3.8c16.2,1.5,32.5,4.2,48.6,3.4
			c195.2-9.3,340.9-94.5,423.1-277c46.9-104.2,77.9-213.5,103.2-324.3c39.9-174.8,55.1-352.9,63.5-531.6
			c11.5-245,16.7-490.1-3.5-734.9c-10-120.4-53.6-225.5-150.1-303.9c-74.3-60.4-157.1-106-247.5-135.8
			c-200.1-65.8-403-63.8-606.7-18.2c-94.1,21.1-186.1,48.1-269.5,98.6c-14.5,8.8-29.7,14.5-5.9,33.3
			c107.7,84.6,159.4,198.8,169.3,333.3c1.8,25.2,11.9,30,33.7,21.4c19.7-7.9,39.8-14.6,59.7-22c63.5-23.6,127.8-43.8,196.6-42.2
			c273.3,6.3,440.7,178.4,475.2,447c17.5,136.3-4.5,272-18.5,407.4c-23.3,224.9-66.2,446.9-101.1,670.1
			c-22,141.1-63.2,270.2-180.7,362.5C2251.1,2697.3,2251.4,2700.6,2250.3,2705.2z M1802.6,1090.3c0,42.9,0.6,87.9-0.3,132.9
			c-0.3,17.3,3.3,26.6,22.5,31.4c149.4,36.8,303.3,4.2,378.1-147.5c10.1-20.5,20.7-15.3,35.3-10.5c19.5,6.5,16.7,17.9,8.6,31.6
			c-4.5,7.5-6.4,17.4-12.5,22.9c-61.3,55.3-64.2,122.5-48.2,198c18,85.6-78,125.8-135.3,92.4c-18-10.5-26.8-6.2-39.9,8.1
			c-36.5,39.7-80.8,33.2-107.1-13.8c-17-30.3-19.7-63.9-21.2-97.7c-2.1-49.6-45.3-28.3-68.5-34.8c-23.1-6.4-11.6,21.7-11.9,32.7
			c-6,212.5-12.6,425-44.3,635.7c-28,185.8-68,368.4-158.5,535.6c-10.8,19.9-1.6,29.1,10.1,41.4c75.3,79.1,165.6,135.2,272.2,156.2
			c140.6,27.7,280,40.4,387.1-89.9c45.5-55.3,79.4-114.2,96.8-183.4c5.4-21.7,1.7-30.3-21.7-34.5c-81.3-14.5-150.4-53.3-206.8-113.4
			c-112.1-119.7-113.9-274-2.9-390.2c80.7-84.5,182.2-122.3,298-113.7c37.7,2.8,43.5-11,46.1-41.7c8.1-92.1,19.8-183.9,27.4-276
			c11.1-134.6,5.3-265.9-57.8-391.1c-81.7-162.1-271.8-228.7-414.5-211.6c-79.2,9.5-149,49.1-225.6,66.6
			c-16.2,3.7-12,16.7-11.6,27.3C1798,998.2,1800.3,1043.2,1802.6,1090.3z M1216,2402.1c39.2-145.2,67.5-286.6,86.2-430
			c1.9-14.8-1.4-21.1-17.1-19.4c-110.6,12-219,79.8-215.3,214.2C1072.6,2269.3,1125.9,2344.8,1216,2402.1z M2100.2,2090.8
			c0-0.2,0.3,4.8,0.7,9.7c8.6,107.1,103.1,209.5,225.2,243.9c54.7,15.4,55.8,13.9,62.7-43c2.2-18.3,2-26.8-20.7-26.5
			c-168.4,2.4-219-161.8-156.6-279.2c46.5-87.5,124.5-122.1,219.6-124.3c18.1-0.4,31.9-1,32.2-24.6c0.4-25.9-20.2-19.2-32-19.9
			c-99.9-6.2-187.3,24.4-258.5,95.6C2128.2,1967.2,2099.5,2020.2,2100.2,2090.8z M1266.4,1860.9c-23.3-2-49.3,3.2-74.7,9.3
			c-106.3,25.2-189.9,78.7-219.4,191c-42.6,162.4,52.3,346.8,193,444.2c4.9,3.4,10,7.9,16.7,3.5c16.9-11,16.3-61.4-1.2-72.6
			c-58.5-37.3-102.8-86.8-131.7-150c-64.9-142.1-14.6-288.2,121.4-351.4c37.8-17.6,77.4-28.9,119.2-29.2
			c21.5-0.2,23.9-12.2,24.7-28.8c1.1-22-15.1-14.5-25.9-15.9C1282.2,1860.3,1275.9,1860.9,1266.4,1860.9z M2419.9,1920.9
			c-99.2,0.8-179,72.9-185.2,164.3c-5.9,87.5,47.4,143.9,133.7,143.8c24.5,0,35.4-7.7,39.1-32.7c12.2-81.4,25.9-162.6,40.1-243.7
			C2452.5,1925.2,2443.3,1915.5,2419.9,1920.9z M2044,1342.9c0,5.3-1.2,14.1,0.2,22.6c4.1,24.6,22.4,34.7,44.2,38.1
			c21.3,3.3,43.4-3.2,49.1-24.3c9.2-34.2-2.5-68.7-9.4-102.6c-1.1-5.2-4.9-9.1-10.7-6.6c-22.7,9.9-46.2,18.5-67.2,31.2
			C2036.7,1309.5,2047.1,1326.6,2044,1342.9z M1997.9,1348.8c-5.8-10.3,11.7-35.3-16.1-34.3c-16.9,0.6-44.2-13-50.3,14.6
			c-6.2,27.8,0.7,56.7,13.9,82.6c9.4,18.4,21.9,18.6,33.8,2.1C1992.7,1395.1,1997.3,1373.5,1997.9,1348.8z"/>
		<path class="st0" d="M836.1,1434.7c-22.8-11-47.3,1.2-73.6,8.4c-83.9,23.2-168-54.8-157.6-145c1.9-16.5,9.6-32-19-30.6
			c-19,1-13-17-14.7-28.4c-2-13.7,5.9-16.7,17.4-17.9c39.7-4.1,79.3-11.9,119.1-12.8c111.8-2.5,197.6-45.8,247.8-149.3
			c8.5-17.4,16.6-28.7,39.3-15.5c16.8,9.8,18.2,19,7.3,31.6c-38.8,44.4-44.1,95.8-41.8,152.8c2.2,53.4-10.6,106.5-35.3,155.5
			C907.5,1418.2,880,1435.7,836.1,1434.7z M769.6,1319.9c0.9-71.7,0.9-71.7-71.8-61.4c-4.9,0.7-9.9,2-14.8,1.7
			c-13.7-0.8-19.5,7-24.4,18.4c-17.8,41.4-1.7,89,37.7,109.1c48.2,24.6,71.9,11.2,73.3-41.6C769.8,1337.3,769.6,1328.6,769.6,1319.9
			z M912.5,1204.8c-86.9,10.8-107.1,63.7-93.5,138c0.9,4.8,0,10,0.1,15c0.9,28.1,19.5,38,44.4,23.9c12.9-7.3,18.9-19.3,24.3-32.1
			C907.7,1302.7,912.8,1253.5,912.5,1204.8z"/>
		<path class="st0" d="M1225.2,1679.9c-0.5,57.8-46.8,104.4-104.4,105c-58.6,0.6-106.9-48-106.5-107.1
			c0.4-59.3,48.5-105.5,108.5-104.2C1180.9,1574.8,1225.7,1621.4,1225.2,1679.9z M1178.3,1678.2c-0.4-30.4-27.2-57-57.8-57.4
			c-32.1-0.4-60.3,28.4-58.7,60c1.6,30.7,28.9,55.9,59.7,55.1C1153.2,1735,1178.8,1709.1,1178.3,1678.2z"/>
		<path class="st0" d="M839.9,1936.2c-60.1,0.5-107.3-45.9-107.1-105.3c0.2-57.5,46.9-104.5,104.4-105.1
			c59-0.6,108,47.7,107.6,106.1C944.4,1889.9,898.3,1935.7,839.9,1936.2z M836.6,1889c30.8,1,57.7-24,59-54.9
			c1.3-32.2-21.8-58-53.5-59.8c-34.1-1.9-60,22.2-60.5,56.1C781.2,1861.8,805.7,1887.9,836.6,1889z"/>
		<path class="st0" d="M835.3,2196.8c0,57.7-46.1,105.5-103,106.7c-57.6,1.2-108.1-48.3-108.3-106.3
			c-0.2-59.3,47.6-106.2,107.6-105.5C790,2092.4,835.2,2138.3,835.3,2196.8z M788.4,2195.9c-0.7-30.6-27.6-57.1-58.1-57.1
			c-32.6,0-59.8,28.3-58.1,60.5c1.6,30.9,29,56,59.8,54.8C763.7,2253,789.1,2226.7,788.4,2195.9z"/>
		<path class="st0" d="M895.9,2423.2c58.1,0.7,103.7,47,103.7,105.2c0,59.5-47.6,106.5-107.2,105.7
			c-59.4-0.8-105.3-49.2-103.7-109.1C790.3,2467,837.2,2422.5,895.9,2423.2z M952.5,2529.5c0.6-30.4-25.6-58.1-56.2-59.3
			c-31.8-1.3-60.8,27-60.4,58.9c0.3,29.6,28.4,57.4,58.1,57.5C923.6,2586.8,951.9,2559.2,952.5,2529.5z"/>
		<path class="st0" d="M2389.1,1646.6c-0.5,58.1-46.4,103.8-104.7,104.1c-59.7,0.2-107.1-47.3-106.4-106.5
			c0.7-56.8,48.5-104.5,105.3-104.9C2342.2,1538.8,2389.6,1586.9,2389.1,1646.6z"/>
		<path class="st0" d="M1862.6,2445.6c0.4-52.1,44.4-95.6,96-95c52.8,0.5,94.2,43.2,93.9,96.7c-0.4,53.2-43.1,95.6-95.5,95.1
			C1905.2,2541.8,1862.2,2497.8,1862.6,2445.6z M2005.1,2445c-0.8-25.9-23.1-46.6-49.7-45c-28.7,1.6-42.6,19.7-44.8,46.1
			c-2.1,25.7,21.4,47.5,47.7,47C1985.1,2492.6,2005.9,2471.1,2005.1,2445z"/>
		<path class="st0" d="M1885.5,2210.1c-52.6-0.4-95.3-43.8-94.7-96.2c0.6-52.1,45-95.9,96.3-95.2c51.2,0.7,95.8,46.2,95.2,96.9
			C1981.6,2167.8,1937.9,2210.5,1885.5,2210.1z M1933.1,2115.1c0.1-26.6-21.1-48.5-47.6-46.9c-27.1,1.7-44.6,15.7-45.2,44.6
			c-0.6,29.9,14.8,46.7,44.9,48.2C1912.6,2162.3,1933.1,2142.1,1933.1,2115.1z"/>
		<path class="st0" d="M1962.7,1703.4c52.5,2.8,92,47.2,89.6,100.7c-2.4,53.3-46.1,92.6-99.7,89.7c-53.1-2.9-92.6-46.8-90-99.9
			C1865.2,1742,1910.9,1700.6,1962.7,1703.4z M2005.1,1799.2c0-27-20.5-46.5-48.1-46.1c-29.3,0.4-43.1,18.6-46.5,44.4
			c-3.3,25.3,20.1,47.9,46.4,48.3C1983.6,1846.2,2005.2,1825.4,2005.1,1799.2z"/>
	</g>
</g>
</svg>
