<?xml version="1.0" encoding="utf-8"?>
<!-- Generator: Adobe Illustrator 23.0.0, SVG Export Plug-In . SVG Version: 6.00 Build 0)  -->
<svg version="1.0" xmlns="http://www.w3.org/2000/svg" xmlns:xlink="http://www.w3.org/1999/xlink" x="0px" y="0px"
	 viewBox="0 0 3000 3000" style="enable-background:new 0 0 3000 3000;" xml:space="preserve">
<style type="text/css">
	.st0{stroke:#000000;stroke-width:10;stroke-miterlimit:10;}
</style>
<g id="Layer_1">
</g>
<g id="Layer_2">
	<g>
		<path class="st0" d="M2357.5,948.2c5.2,2,9.6,3.8,14.1,5.2c114.6,36.8,182.3,114.4,203.3,233c25.6,144.2,44.1,288.7,35.1,436.1
			c-7.5,122.4-5.7,245.2-7,367.9c-1,94.9-4.4,189.7-39.7,280c-23.6,60.2-52.7,117.4-91.7,169c-47.1,62.4-114.4,93.7-186.4,116.5
			c-101.2,32-205.8,46.7-311,57.1c-206.7,20.4-413.9,23.8-621.4,21.1c-2.6,0-5.3,0-7.6,0c-1.7,4.3,1.2,5.7,3.3,6.9
			c125.5,76.8,117,243.8-22.2,310.3c-89.3,42.7-210,18.7-270.5-56.6c-67.8-84.3-41.1-202.8,58.1-257.6c5.8-3.2,11.8-6.3,23.6-12.5
			c-25.3-2.9-44.7-4.8-64-7.3c-141.9-18-279.7-50.9-408.8-114.1c-113-55.4-205.8-134.6-276.6-239.1c-43-63.5-61.2-135.2-69.9-209.9
			c-17-144.8-0.7-288.1,22.1-430.9c13.4-83.5,24.7-167.3,43.3-249.9c36.2-160.6,122.9-284,266.3-366.6c2.8-1.6,6.4-2.5,7-7.7
			c-33.8-5.4-67.8-9.6-100.7-20.1C392.9,927,299.7,796.5,304.5,625.2c5.2-188.2,94.5-325,256.7-416.4
			c103.3-58.1,215.4-90.9,331-113.2c182.5-35.2,367-43,552.3-41.6c139.6,1,279.2,2.1,418.5,13.2c163.9,13,326.1,35.1,478.4,101.9
			c88.5,38.8,166.9,91.9,212.9,180.4c58,111.5,54,227.5,15,343.3c-35,104.1-103.4,183-195.4,241.9c-5.1,3.3-10.1,6.7-15.1,10.1
			C2358.2,945.1,2358.2,946.1,2357.5,948.2z M2178.2,2532.6c75.8-17.7,150.6-36,214.1-83.4c13.4-10,26.1-22.2,36.1-35.6
			c75.7-101.4,119.7-214.6,122.5-342.1c2.9-133.5,2.1-267.1,8.4-400.4c7.5-158.5-2.5-315-32.1-470.9c-19-100-71.6-166.6-168.9-198.7
			c-71.1-23.5-144.1-36.9-217.9-47.4c-112.7-16.1-226-25.8-339.6-33.8c-144-10.2-287.7-23.4-432.2-25.4
			c-82.1-1.2-163.9,2-245.4,12.5c-116.9,15-228.3,50.8-338.3,91.1c-190.9,70-317.2,198.1-356.2,402.3
			c-28.3,148.3-54.8,297.1-64.8,448c-6.3,94.8-4.8,189.6,18.9,282.8c20.9,82.3,71.2,145.1,131.3,206.8c0-9,0.2-13.6,0-18.1
			c-2.6-64.3-6.3-128.6-4.2-193c4.6-140.2,9.8-280.1,43.6-417.5c60.7-246.5,205.7-419.7,442.1-514.4
			c127.8-51.2,261.8-72.6,398.7-78.5c112.1-4.9,223.5,3.2,334.6,16.9c99.2,12.2,196.5,32,287.5,75.2
			c177.4,84.4,286,225.6,334.7,413.6c35,135.1,32.9,271.8,13.8,409.5c-24.3,174.6-81.7,336.1-179,483.2
			C2182.7,2519.7,2177.7,2523.9,2178.2,2532.6z M1503.2,103.9c-132.9-1.8-265.6-0.2-398,12.2c-123.6,11.5-245.9,30.5-364.2,69.2
			c-92.7,30.3-180.4,70.4-253.4,137.3c-105.4,96.7-143.9,218.7-130.1,358c9.7,97.9,58.5,173.4,145.3,221.8
			c71.9,40.1,150.6,50,231.6,49.4c50.3-0.4,93.6-25.4,140.5-37.3c13.9-3.5,13.5-8.8,7.2-19.5c-24.9-42.1-44.8-86.6-57.8-133.9
			c-26-94.4-23.3-185.3,37-267.6c39.2-53.5,93.4-87.8,153.8-112.7c113-46.6,232.4-61.9,353-69.8c106.7-7,213.5-10.3,320.5-10.1
			c109.4,0.1,218,5,324,34.1c79.9,21.9,152.5,57.1,205.1,123.8c66.8,84.7,75.2,181.6,54.4,283.4c-11.2,54.6-29.9,106.7-54.8,156.6
			c-2.5,4.9-11.3,14.2-0.5,15.8c29.7,4.5,57.9,18.3,90.3,1c137.8-73.7,221.4-184.5,237.6-341.3c11.1-107.5-11.9-205.2-96.6-280.4
			c-40.9-36.3-87.8-63.2-138-84.4c-117.2-49.5-241.1-70.9-366.4-85.2C1797.3,107.9,1650.2,106.9,1503.2,103.9z M723.7,2380.4
			c5.3,28.6,11.6,57.1,15.6,85.8c2,14.5,9.5,20.4,22,25.1c74.2,28.1,150.8,47.5,228.5,63.3c21.5,4.4,38.3,1.1,56.7-10.7
			c234.6-150.5,446-328.1,633-534.9c146.9-162.4,274.2-338.9,384.4-528c7.4-12.6,5.6-19.8-4-29.4c-34.5-34.5-77-54.3-122.2-70.2
			c-15.4-5.4-23.4-2.3-33.1,11c-187.2,255.6-408.7,476.9-663.3,665.5c-157.2,116.5-324.8,215.7-500.3,301.6
			C732.4,2363.8,720,2365.3,723.7,2380.4z M1984.7,2562.3c34.1-4.6,68.1-9.8,102.4-13.5c12.1-1.3,19.5-6.7,26.3-16.1
			c23.6-33.1,46-67,66.3-102.3c108.3-188.3,151.5-392.7,148.4-608c-1.6-110.3-22.3-216.9-72.5-316.1
			c-83.6-164.9-221.8-258.6-398.4-300.1c-94.5-22.2-190.9-31.4-287.7-37.6c-171.1-11-339.9,0.6-503.9,54.2
			c-204.6,66.8-355,193.7-432.3,398.4c-37.5,99.4-55.7,203.3-63.6,309.2c-10.5,140.1-13.3,280.2-3.3,420.4
			c1.8,24.8,8.5,43.1,31.7,55.9c22.4,12.4,43,28.2,65.9,40c5.9,3,12.5,10.3,18.1,6.8c7.1-4.5,1.8-13.6,0.6-20.4
			c-13.2-73.5-20.8-147.5-23-222.1c-3.8-129.4,13.1-256.8,34.9-383.9c17.3-101.4,42.9-200.1,91.7-291.2
			c63.9-119.4,155.8-207.6,288.2-246.9c72.8-21.6,148-24.2,223.5-23.1c135.6,2,270.5,15.7,405.4,27.1
			c76.8,6.5,153.7,14.4,228.5,34.9c143.6,39.3,231,127.7,245.8,279.9c12.9,133,17.1,266.3,16.7,399.8
			c-0.1,52.3-4.5,104.7-15.8,155.4c-21.7,96.8-57.4,188.9-109.8,273.9C2042.7,2479,2014.3,2519.2,1984.7,2562.3z M982.5,880.7
			c-22.4-26.6-42.6-55.3-54.1-89c-42.1-123.5,25.9-257.8,153.2-301.2c66-22.5,134.8-29.4,203.9-32.9c177.6-9.1,355,0.1,532.3,9.1
			c67.6,3.4,134.8,11.9,199.5,34.7c76.2,26.8,119.5,80.8,135.7,158.5c15.9,76.5,4.1,150.9-17.1,224.6c-1.7,5.9-10.2,14.7,1.6,18.5
			c9.9,3.2,20.2,5.6,27.1-8.5c35.5-73,64.7-148,67.1-230.3c3.2-108.3-39.7-191.7-137.8-243.2c-34.3-18-70.3-31.6-107.9-41
			c-104.5-26.1-211.2-31-318.2-29.3c-155.1,2.5-310.4,3.6-464.1,29.6c-86,14.5-169.7,36.6-242.9,86.6
			c-66.5,45.5-102.2,108.4-102,190.3c0.2,73.4,25.9,139.2,60.4,202c23.5,42.9,10,37.8,60.8,24.3
			C980.6,883.4,980.9,882.6,982.5,880.7z M717.5,2313.4c2.4-0.3,3.9-0.3,5.1-0.8c3.8-1.5,7.5-3.2,11.1-5
			c361.7-177.8,677.7-415.9,946.2-716.7c59.1-66.2,115.6-134.7,168.8-205.8c16-21.3,15.9-21.5-9.5-25.6c-14-2.3-28.2-4-42.1-6.7
			c-11.9-2.3-19.8,1-27.6,10.9c-61.6,77.4-127.1,151.6-195.3,223.2c-244.8,257.3-520.5,475.8-827.1,655.2
			C707.3,2265.6,707.2,2265.4,717.5,2313.4z M1369,1721.6c-4.7-5.8-7.5-9.6-10.6-13c-102.9-114.2-206-228.1-308.5-342.7
			c-8.6-9.6-14.9-10.2-25.6-4.7c-46.3,23.9-85.9,56.2-121.8,93.6c-8.7,9-4.9,14.7,0.5,22.3c91.4,128.4,182.9,256.8,273.8,385.5
			c7.9,11.1,12.3,13.6,24.1,3.7c53.5-44.8,106.4-90.3,157.8-137.4C1361.6,1726.2,1365.3,1724.2,1369,1721.6z M1879.5,2571.2
			c17.4,1.7,30.6-5.9,42.7-20c31.8-37.1,62.1-75.1,89-116c7.8-11.9,7.3-19.2-1.8-29.7c-97.6-112.6-194.9-225.5-291.8-338.7
			c-8.4-9.9-12.6-11.7-22.5-1.2c-41,43.3-82.7,86-125.1,127.9c-10,9.9-8,15.2-0.2,24.5c96.3,114.6,192.3,229.4,288.2,344.3
			C1863.6,2569,1869.1,2574.1,1879.5,2571.2z M1573.9,722.7c14.3-39.5,27-75,40-110.3c2.3-6.3,1.2-11.6-2.1-17.3
			c-15.8-26.7-31.7-53.4-46.7-80.6c-5.2-9.4-12.8-7.9-20.8-8.2c-8.6-0.3-9.1,6.1-10.8,11.9c-8.1,27.8-16.2,55.7-24.8,83.3
			c-2,6.5-1.2,11.3,2.3,17C1531.3,651.9,1551.4,685.4,1573.9,722.7z M1392.5,520.1c-15.2,47.3-29.3,91.3-43.5,135.2
			c-1.2,3.6-0.5,6.7,1.9,9.3c21.4,22.9,42.7,45.7,66.3,70.9c11.3-39,21.4-73.8,31.7-108.6c1.8-6.2,1.8-11.5-1.8-17.2
			C1429.4,581.1,1412,552.3,1392.5,520.1z M1948.8,656.4c-10.6,23.8-17.4,44.5-28.5,62.7c-19.5,32.1-20.1,61.4,1.3,93.1
			c12.8,18.9,21,40.9,32.7,64.3c16.1-39.8,30.4-75.5,45.2-111c3.4-8.1,4.4-14.9-0.4-22.9C1982.8,715.4,1967.1,687.8,1948.8,656.4z
			 M1649.5,660.4c-14,39.3-26.8,75.5-39.9,111.5c-1.6,4.4-1.1,7.7,1.1,11.3c15.4,25.3,30.7,50.7,47.8,79
			c15.8-34.8,30.1-66.5,44.6-98.3c2.2-4.8,1.5-8.9-1.1-13.4C1685,721.6,1668.1,692.5,1649.5,660.4z M1731.2,701.2
			c12.7-28,24-53.1,35.4-78.2c1.9-4.3,4.1-8.1,1.6-13.3c-15.2-30.8-29.6-62-45.4-92.5c-4.9-9.5-16.5-11.1-20.7-1.4
			c-11.2,25.9-19.7,52.9-29,79.6c-0.7,2.1,0.2,5.4,1.5,7.6C1692.9,635,1711.4,666.9,1731.2,701.2z M1427.3,1498.2
			c-2.6,5.4,2.2,8.3,8.5,10.8c16.3,6.5,32.7,12.7,48.6,20.1c10.9,5,14.3,0.1,16.8-9.1c4.3-15.6,9.1-31,13.6-46.5
			c5.6-19.3,20.8-43.3,14.3-56.9c-7.7-16.1-37.4-11.3-57-17.9c-1.9-0.6-4-0.8-5.9-1.3c-6.3-1.5-10.5,0.5-12.3,7
			C1445.3,1434.8,1436.6,1465.2,1427.3,1498.2z M1864,2049.3c17.1-9,31.2-18.3,46.7-24.1c21.4-8.1,28.9-22.3,29.2-44.5
			c0.4-34.5,3.3-69.1,5.4-107.4c-24.6,16.7-45.1,30.7-65.6,44.8c-4,2.8-6.9,6.2-7.3,11.5C1869.6,1968.5,1866.9,2007.4,1864,2049.3z
			 M2080.1,2149c11.7,1,19.4-5.9,28.4-8.2c18.2-4.6,26.8-14.4,28.6-35.1c3.4-39.1,7.4-78.1,7.8-117.4c0.3-33,0.3-33.3-28.2-17.2
			c-8.9,5-23.6,5.8-24.8,18.1C2087.2,2042.2,2083.9,2095.4,2080.1,2149z M1871.3,707.2c15.7-35.4,29.4-66.6,43.3-97.8
			c1.7-3.9,2.3-7.7,0.1-11.6c-14.7-25.2-29.3-50.5-46-79.2c-14.7,32.4-27.4,60.4-40.2,88.5c-2.5,5.5-0.9,10.3,1.6,15.4
			C1843.1,649.1,1856,675.8,1871.3,707.2z M1487,676.1c-10.1,34.2-18.5,64.1-27.9,93.5c-2.7,8.4,1.1,12.6,5.8,17.6
			c16.2,17.3,32.6,34.3,48.2,52c9.8,11.1,16,13.1,20.8-3.7c3.9-13.6,9.2-26.7,14.2-40c2.5-6.6,3.8-12.7-0.2-19.3
			C1528.2,744.1,1508.7,711.9,1487,676.1z M1329.8,715.7c-10.4,32.6-19.4,60.7-28.4,88.9c-1.4,4.4-4.3,8.7-1.5,13.5
			c17.4,30.2,46.6,27.2,74.8,26.4c20.5-0.6,14.3-19.8,18.9-30.6c3.4-8,11.4-18,1.9-28C1374.3,763.4,1353.3,740.8,1329.8,715.7z
			 M2054.9,1798c-18.7,12.8-33.7,22.9-48.6,33.3c-3.7,2.6-8.1,4.9-8.5,10.5c-2.8,45.5-5.7,91.1-8.8,140.4
			c18.4-9.9,33-17.9,47.8-25.7c6.3-3.3,7.8-8.9,8.2-15.2C2048.2,1895,2051.4,1848.5,2054.9,1798z M1250.9,778.9
			c2.5-1.7,5.1-3.3,7.6-5c9.9-30.8,19.7-61.5,29.8-92.3c1.6-5,1.7-9-2.1-13c-16.6-17.6-33.1-35.3-51.2-54.6
			c-11.5,34.1-22,65.4-32.9,96.6c-2.6,7.4-0.9,12.5,4.4,18.1C1221.6,745.2,1236.1,762.2,1250.9,778.9z M2039.3,2012.6
			c-18.5,9.8-33.2,17.6-47.9,25.3c-4,2.1-5.6,5.2-5.8,9.7c-2.6,44.4-5.3,88.9-8.2,133.3c-0.5,7.9,1.5,10.7,10.2,8.6
			c36.2-9.1,41.2-15,42.8-53c0.3-6.7,1.4-13.4,1.9-20.1C2034.6,2083.1,2036.8,2049.8,2039.3,2012.6z M2001.7,1773.2
			c16.4-11,28.8-20.2,42.1-28c11.6-6.8,17.1-15.6,17.6-29.2c1-24.3,3.4-48.6,5.1-72.8c1.6-23.2,3-46.5,4.5-69.7
			c-20.8,26.8-38.5,54.5-56.4,82c-3.8,5.8-6.8,11.8-7.2,18.7C2005.4,1705.8,2003.7,1737.5,2001.7,1773.2z M1343.3,1369.8
			c-9.8-3.4-13.7,1.2-15.7,8.7c-6.1,22.1-11.8,44.2-18.6,66.1c-2.6,8.3-1,12.1,7,15.2c17,6.4,33.8,13.4,50.4,20.8
			c8.7,3.9,13.6,2.3,16.1-7.1c7.1-25.9,14-51.9,21.9-77.7c2.5-8.2,1.8-12.4-7.2-14.3C1378.7,1377.8,1360.4,1373.5,1343.3,1369.8z
			 M1151.7,685c2.8-1.9,5.5-3.8,8.3-5.7c6.7-19.8,10.7-41.1,20.6-59.1c20.2-37,10-63.7-21.1-87.8c-10-7.8-14.8-10.8-19.6,3.4
			c-9.8,28.8-19.8,57.5-30.3,86c-2.4,6.6-1.7,11,3,16.3C1126,653.4,1138.7,669.3,1151.7,685z M2028.4,693.1
			c9.1-22,17.2-41.2,25.1-60.5c18.6-45.2,16.2-51.4-28-73.5c-0.6-0.3-1.2-0.6-1.8-0.9c-33.3-14.3-25.7-14.9-37.5,14.1
			c-4.3,10.5-16.1,20-8.7,33.2C1993.6,634.1,2010.5,662.4,2028.4,693.1z M1382.9,1651.7c-1.6,15.3,11.2,22.6,20.2,29.9
			c7,5.6,11.6-6.1,16.5-10.5c14.6-13,28.3-27.1,42.4-40.7c13-12.6,17.8-30.1,17.2-46c-0.4-9.8-18.4-10.4-28.5-15.3
			c-9.7-4.7-19.9-8.3-29.8-12.4c-5.9-2.5-10.3-2-12.4,5.2C1400.2,1591.7,1391.6,1621.5,1382.9,1651.7z M1934,2069.4
			c-22.3,11.8-40.5,21.4-58.7,31.1c-17.3,9.3-25.6,41.3-13.5,56.7c14.6,18.6,30.5,36.1,46,53.9c2.5,2.8,4.6,7,9.7,5.6
			c5.3-1.5,7.2-5.3,7.5-10.5C1927.9,2162,1930.8,2117.8,1934,2069.4z M1007.1,606.2c-4.9,0.2-6.5,4.3-8.7,7.6
			c-14.6,21.6-25.5,44.9-29.5,70.6c-7.6,48.9-8.4,36.7,31.4,58.7c9.4,5.2,12.9,2.4,15.9-6.5c8.7-25.6,17.8-51,26.7-76.5
			C1047,648.4,1019.5,607.2,1007.1,606.2z M1548.6,2381.9c-1.2-44.1-1.2-44.1-42.2-27.6c-55.2,22.3-54.9,22.2-46.4,81.5
			c1.6,11.1,5.5,11.5,14.3,8.2c12.6-4.7,25.6-8.4,38.4-12.5C1549.7,2419.9,1549.7,2419.9,1548.6,2381.9z M1799.1,673.2
			c-12.7,28.1-23.7,52.4-34.8,76.7c-1.6,3.5-0.7,6.5,1,9.5c15.3,26.3,30.7,52.6,47.4,81.2c10.2-23.3,18.8-43.1,27.7-62.7
			c2.6-5.8,4.1-11.2,1.1-17.4C1827.9,732.8,1814.5,705.1,1799.1,673.2z M2096,1924.4c13.8-7.3,25.2-12.9,36.1-19.1
			c5-2.8,11.8-4.7,11.5-12.6c-1.9-49.1-3.8-98.2-6-153.3c-12.1,13.6-28.5,13.5-29.9,29.7C2103.7,1819.5,2100,1870,2096,1924.4z
			 M1308,618.7c9.6-29.6,18.2-55.6,26.6-81.7c10.1-31.5,10-31.5-22.4-30.7c-44.3,1.1-43.9,1.2-55.9,44.7c-2,7.2-0.9,11.2,3.6,16
			C1275,583,1290,599.4,1308,618.7z M1094.3,682.5c-2.3,1.1-4.6,2.3-6.9,3.4c-4.4,12-8.8,23.9-13.2,35.9c-18.7,51-18.7,51,29.4,75.8
			c1.2,0.6,2.5,1.1,3.6,1.9c7.3,5.2,11.7,3.8,14.4-5.1c5-16.1,10.3-32.1,16.1-47.9c3-8.2,1-13.6-4.8-19.8
			C1119.6,712.4,1107.2,697.3,1094.3,682.5z M1085.5,1820.3c-39.1,39.5-39.1,39.5-7.4,82.6c1.6,2.2,3,4.5,4.6,6.7
			c25.5,34.1,25.5,34.1,57.1,5.3c0.5-0.5,1-0.9,1.6-1.2c6.4-3.7,5.4-7.8,1.5-13.1C1123.9,1874.3,1105.2,1847.9,1085.5,1820.3z
			 M905.5,1951.9c-2.2-9.8-9.7-15.2-15.3-21.6c-10.4-12-18.2-33.5-32-33.1c-10.3,0.3-18.7,22.6-30.1,32.8
			c-17.3,15.4-13.8,27.2,0.2,43.1c31,35.5,30.2,36.2,60.8-1.1C894.7,1965.2,900.1,1958.5,905.5,1951.9z M939.1,1908.6
			c6.5-0.2,43.5-45.9,42.1-50.7c-0.5-1.9-2-3.5-3.2-5.1c-11.7-15.7-23.5-31.4-35-47.3c-5.3-7.4-8.5-7.4-15-0.2
			c-39.5,43.6-39.7,43.4-3.2,88.1c3,3.7,6.1,7.3,9.3,10.8C935.8,1906.1,937.9,1907.7,939.1,1908.6z M1820.2,1958.9
			c-26.9,18.6-49.3,34.3-72,49.7c-7.4,5.1-7.3,9.6-1.4,16.2c15.3,17.1,30,34.8,45,52.2c9.6,11.1,18.1,6.9,19.4-4.9
			C1815.2,2036.1,1817.1,2000,1820.2,1958.9z M1199.6,1406.1c-0.8,2.5,1.3,6.5,7.5,8.9c14.4,5.7,28.6,11.9,43,17.7
			c3.7,1.5,8.9,3.4,10.5-1.7c7.2-23.9,19-48.2,18-71.9c-0.5-11.3-29.6-8.6-45.2-14.3c-3.1-1.1-6.7-0.9-9.9-1.9
			c-6.1-1.8-8.8,0.9-10.1,6.4C1209.1,1367,1204.8,1384.7,1199.6,1406.1z M1672.3,2434.4c-14.2,4.4-26.3,8.1-38.4,12
			c-34.6,11-34.7,11-34.1,47.2c0.2,9.4-1.5,25.5,2.3,26.9c17.5,6.9,34.7-4.1,52.3-6.7c5.4-0.8,13.9,0.1,14.2-10.5
			C1669.1,2481,1670.8,2458.9,1672.3,2434.4z M1550.3,2506.6c0-4-0.5-8.2,0.1-12.1c2.4-17.7-3.1-22.7-20.6-15.6
			c-16.8,6.8-34.4,11.6-51.9,16.4c-9.9,2.7-13.8,6.8-13.4,18.1c1.4,42.3,0.9,42.3,42.4,33c4.6-1,9.2-1.9,13.8-2.9
			C1550.5,2536.8,1550.5,2536.7,1550.3,2506.6z M1341.2,1614.8c7.6-25.9,14.3-48.8,21.2-71.6c2.3-7.5-1.2-10.8-7.8-13.4
			c-16.9-6.6-33.6-13.8-50.3-20.8c-3.7-1.6-7.5-3.8-11.4-1.5c-5.6,3.3-11.7,39.8-7.1,45.1
			C1303.3,1572.8,1321.3,1592.6,1341.2,1614.8z M862.2,1506.4c-13.4,16.7-22.5,34-31.5,51.2c-1.7,3.4-5,6.9-1.8,11.2
			c13.1,17.2,26.3,34.4,39.4,51.5c15.8-8.7,23.1-25.4,35-37.8c0.5-0.5,0.7-1.2,1.2-1.6c4.7-4.5,4.6-9.1,0.8-14.4
			C891.2,1547,877.1,1527.3,862.2,1506.4z M1019.4,2004.9c2.1-1.1,3.4-1.6,4.4-2.4c13.4-10.2,30.7-18.1,38.6-31.5
			c4.7-8-12.1-20.4-19.2-30.8c-6.4-9.5-13.7-18.3-20.7-27.4c-2-2.7-5.4-7.8-6.1-7.5c-16.9,8.1-24.4,25.7-37.3,37.9
			c-5.4,5.1-5.6,9.7-0.6,15.4c11.5,13.3,22.4,27,33.8,40.3C1014.3,2001.4,1017.2,2003.1,1019.4,2004.9z M1721.3,1344.3
			c-36.7-3-69.3-6.5-102-7.9c-20.1-0.8-14.5,19-19.2,29.8c-5.6,12.8,7.7,11.6,14,13.3c17.5,4.9,35.4,8.3,53.1,12.3
			c6.7,1.5,13.1,2.6,18.4-4.1C1696.4,1374.2,1707.6,1361,1721.3,1344.3z M1005.5,1711.6c-6.4,3-9.3,9.4-13.4,14.5
			c-23.9,29.8-23.8,29.8-1,60.2c26.7,35.7,26.5,35.5,55.4,1.3c5.9-7.1,8.5-11.7,1.6-20.3c-12.2-15.2-22.7-31.8-34-47.7
			C1011.8,1716.5,1010.4,1712.3,1005.5,1711.6z M780.4,1913.1c2.3-4.4,3.4-7.7,5.4-10.2c7.5-9.6,14.3-20.1,23.2-28.2
			c17.3-15.7,14.5-28.3-0.3-44.6c-23.7-26-22.7-26.9-45.4,0.6c-25.2,30.7-25.2,30.7,0,61.7C768,1898.2,772.7,1903.8,780.4,1913.1z
			 M1242.2,2842.4c0,0.2-0.5,4.6,1.4,6.3c12,10.9,24.4,21.4,37,31.6c4.8,3.9,7.3-0.3,8.4-4.4c5.8-21.5,11.4-43,17.1-64.6
			c1.6-6.2-1.6-10.2-6.2-13.7c-11.3-8.6-22.6-17.2-33.6-26.2c-7-5.7-10.7-4.2-12.2,4.3C1250.4,2796.9,1246.6,2818.1,1242.2,2842.4z
			 M903.9,1755.3c-1.4-2.9-2-4.9-3.2-6.4c-10.7-13.8-19-33.2-33-39.2c-8.9-3.8-18.4,19.8-28.9,29.9c-3.4,3.2-5.4,8-9,10.9
			c-12,9.6-8.8,17.5-0.1,28c28.5,34.4,28.1,34.8,55.8,0.1C891.7,1770.8,897.8,1762.9,903.9,1755.3z M2097.4,658
			c-8.4,20.2-16.6,40.5-25.2,60.6c-7.2,16.8-15.3,32.7-0.2,50.3c11.2,13.1,15.4,31.5,29.7,44.8C2112.4,760.6,2114.5,710,2097.4,658z
			 M1168.4,2694.6c-3,17.9-4,33.5-8.4,48c-7.9,25.8,0,43.8,22.8,56.6c1.7,1,3.2,2.5,4.6,3.9c8.3,7.9,11.1,3,12.6-5.3
			c3.6-19.8,7-39.7,11-59.4c1.2-5.9,0.9-10.4-4.1-14.2C1194.5,2714.9,1182.5,2705.5,1168.4,2694.6z M1643,1437.6
			c-19.7-4.5-35.9-8.3-52.2-11.9c-5.3-1.2-9.3,0.3-11,5.9c-10.2,34-20.3,68-30.4,102c1.4,0.8,2.7,1.7,4.1,2.5
			C1582.6,1504.2,1611.6,1472.2,1643,1437.6z M780.3,1992.7c-32.5,31-33.5,32.1-14.9,62.1c7.2,11.6,8.3,34.8,23.2,32.1
			c11.9-2.1,20.6-21.6,30.8-33.2c4.5-5.1,3.4-9.4-0.7-14.2C805.8,2024,793.1,2008.4,780.3,1992.7z M975.8,1665.5
			c-11.8-16.1-22.4-30.8-33.3-45.3c-0.6-0.7-4.4-0.4-5.2,0.6c-11.6,14-25.6,26.9-33.5,42.8c-4.3,8.7,9.4,17.9,15.6,26.3
			c17.7,24.1,18,24,36.6,1.1C962.6,1682.8,969,1674.3,975.8,1665.5z M975.6,2035.6c-1.4-2.6-2.1-4.4-3.3-5.9
			c-9.3-11.5-18.7-22.9-28.1-34.3c-4.8-5.8-8-1.6-11.1,2c-12.2,14.3-24.8,28.4-36.5,43.1c-11.3,14.3,6.1,18.9,10.5,27.8
			c4,8,9.9,9.3,17.8,3.3c14-10.4,28.7-19.9,43.1-29.9C970.6,2040,973,2037.7,975.6,2035.6z M1415.6,2552.4c0-6-0.5-12.1,0.1-18.1
			c1.7-17-5.5-18.4-19.9-13.6c-40.2,13.4-39.7,13-41.1,48.4c-0.5,12.9,3,17.2,15.3,15.7c4.6-0.6,9.4-0.1,14.1-0.1
			C1416.7,2584.7,1416.7,2584.7,1415.6,2552.4z M1320.7,2750c20.5-63.6,26.1-54.5-21.7-78.2c-6.9-3.4-15.7-10.7-23.7-3
			c-7.2,7-7.3,39.7-0.6,45.1C1289.6,2726.1,1305.1,2737.8,1320.7,2750z M2016.3,2337.1c2.2-28.8,4.5-51.6,5.6-74.4
			c1.7-34.1,1.4-34.1-30-21.4c-17.1,6.9-27.6,31.8-17.4,46.5C1985.8,2304,2000,2318.2,2016.3,2337.1z M1407.1,2398.4
			c-47.3,10.4-49.3,12.8-50.6,58.2c-0.1,3.4,0,6.8-0.3,10.1c-1.1,12,3.4,12.9,14.3,9.9c41.5-11.6,41.6-11.2,38.4-54.4
			C1408.2,2414.3,1407.7,2406.4,1407.1,2398.4z M2036.5,807.1c-10.2,25.3-18.8,47.9-28.3,70.1c-3.5,8.3-1.2,10.7,7,11.4
			c17.4,1.5,34.8,3.7,52.2,5.6c4.5,0.5,9.1,3.1,12.7-2.3c3.4-5,0.7-9.1-1.6-13.1C2065.4,856.2,2052.1,833.6,2036.5,807.1z
			 M1455.7,2321.1c24.3-9.9,48.5-19.8,72.6-29.7c3.7-1.5,7.8-2.6,11.1-4.7c12-7.6,9.5-18.6,1.2-24.9c-7.8-5.9-8.2-30.2-26.9-14.3
			c-17.9,15.3-34.7,32-52.6,47.3C1452.4,2302.1,1451,2309.8,1455.7,2321.1z M1248.5,2514.8c17-5.3,33.4-10.8,50-15.6
			c5.6-1.6,7.7-4.7,7.7-10.1c0-16.5,0-32.9,0-50.1C1248,2458.2,1247.6,2458.7,1248.5,2514.8z M802.4,1620.6
			c-12.2,25.5-20.1,52.5-28.6,79.4c-2.7,8.6,2.7,13.9,7.9,19.4c2.7,2.9,5.6,3.6,8.4,0.2c14.8-18.3,35-34.6,42.4-55.5
			c4.7-13.1-16.8-28.1-27.1-41.9C805,1621.6,804.2,1621.5,802.4,1620.6z M2067.3,2325.9c22.8-42.2,40.6-85.9,51.3-134.9
			c-12.4,4.8-21.8,8.4-31.3,12c-6.3,2.5-11.9,4.7-12.4,13.6C2072.8,2253,2069.9,2289.4,2067.3,2325.9z M1189.2,771
			c-2.9,1.8-5.8,3.7-8.7,5.5c-4.8,14-9.5,28-14.5,42c-2,5.7-2.6,10.1,4.1,13.4c16.8,8.2,32.1,20.4,52.8,16.2
			c5.8-1.2,11.9,0.1,14.6-7.8c2.7-7.8-0.6-12.3-5.4-17.8C1217.4,805.7,1203.4,788.2,1189.2,771z M1091.8,1337.4
			c13.3,14.9,25.7,28.8,38.2,42.8c5.2,5.8,16.8,11.9,18.7,9.3c11.1-15.4,11.3-35,15.7-53c2-8.1-4.8-8.2-9.9-9.2
			c-4-0.8-8.1-2.5-11.9-1.9C1125.9,1327.8,1109.2,1329.7,1091.8,1337.4z M1803.5,2575.7c-8-10.1-14-17.9-20.4-25.4
			c-3.8-4.5-6.8-11.3-14.1-9.9c-15.2,2.8-30.6,5.4-45.4,10c-11.9,3.6-5.2,15.1-6.4,23c-1.3,8.6,6.3,7,11.3,6.8
			C1752.5,2578.9,1776.5,2577.3,1803.5,2575.7z M1146.8,2837.6c-2.2,12.2-4.5,23.9-6.3,35.7c-4.2,26.7-0.3,32,25.6,39.3
			c8.7,2.4,11.7,0.4,13.9-8.2C1189.2,2868,1185,2858.6,1146.8,2837.6z M709.2,2182.5c14.3-16.6,25.2-29.3,36.2-41.9
			c2.8-3.2,5-6.7,2.8-10.9c-10.2-19.1-20.6-38-30.9-57C709.2,2108.5,707.9,2142.7,709.2,2182.5z M1877.5,1851.2
			c1.4,1.2,2.7,2.5,4.1,3.7c36.3-24.6,86.2-39.9,67.7-102.5C1925.3,1785.6,1901.4,1818.4,1877.5,1851.2z M1488.2,1325.8
			c-10.5-3.3-12.9,4.1-15.2,12.7c-3,11.2,6.3,10.2,11.6,11.6c18.1,4.7,36.4,9.9,54.9,12.3c16.6,2.2,11.3-14.3,15.3-22.5
			c4.9-9.9-4.3-9.1-9.5-9.6C1526.6,1328.6,1507.8,1327.3,1488.2,1325.8z M1049.3,868.7c13.6-2.4,27.6-4.9,41.5-7.5
			c3.9-0.7,9.2-0.6,8.7-6.1c-0.2-2.5-3.9-5.3-6.6-6.8c-14.8-8.1-29.7-15.8-44.7-23.5c-2.3-1.2-6.8-2.9-7.4-2.1
			c-7.1,9.2-12.3,20.4-11.3,31.4C1030.2,862.5,1038.8,868.4,1049.3,868.7z M1646.2,2386.9c-14.6-17.5-29.4-35.1-47.9-57.1
			c0,15.3-0.2,24,0,32.7c1.2,46.9,1.6,47.1,45.3,27.1C1644.2,2389.3,1644.6,2388.6,1646.2,2386.9z M1090.6,2856.6
			c14.1-67.2,16.8-59.4-20.8-82.8C1065.5,2804,1071.7,2830.5,1090.6,2856.6z M1769.5,867.8c-11.5-20.3-19.3-38.5-33.9-54.8
			c-7.7,17.8-14.6,33.5-21.8,50.1C1732.9,864.7,1749.5,866.1,1769.5,867.8z M2120.6,1585.8c-2.6,35.9-5.2,71.8-8.2,112.8
			c9.5-9.1,21.7-9.8,21.2-21.7C2132.2,1646.2,2130.7,1615.4,2120.6,1585.8z M1272.9,2580.7c0,0.3,0,0.6,0,0.9
			c7.4,0.4,14.9,2,22.2,1.1c16.6-2.1,8.7-15.8,9.2-24.1c0.6-10.4-7.9-6.1-13.1-4.5c-14.1,4.3-28.1,9.1-42.2,13.6
			c-4,1.3-7.8,2.6-7.3,7.8c0.5,6,5.4,5,9.1,5.1C1258.1,2580.9,1265.5,2580.7,1272.9,2580.7z M1873.4,825.7
			c-5.8,18-20.1,31.6-15.5,45.5c2.9,8.7,22,4.6,33.9,5c1,0,2.1-1.1,4.6-2.6C1889.3,858.8,1882.2,843.9,1873.4,825.7z M1471.8,549.1
			c3.4-11.1,5.8-21,9.3-30.4c4-10.7,0.9-15.2-10.3-14.1c-8.4,0.8-19.9-4.8-24.3,3c-3.5,6.3,6.1,13.8,10.1,20.6
			C1460.6,535.1,1463.2,543.1,1471.8,549.1z M1195.2,2503.9c-21.4,14.9-40.5,28.2-62.1,43.1
			C1179.5,2545.2,1196.8,2533.4,1195.2,2503.9z M813.2,2138.6c1.1,1.1,2.2,2.1,3.3,3.2c16.3-10.4,32.5-20.9,48.8-31.1
			c10.2-6.4,1.5-11-1.5-16c-4-6.8-8.3-7.3-13.6-0.6C838.2,2109.2,825.6,2123.8,813.2,2138.6z M1085.5,541c-14.7,8-24,13.2-33.5,18.1
			c-9.3,4.8-11.2,9-2.6,17.6c17.4,17.2,16.8,17.8,25-5.3C1077.2,563.3,1080.2,555.3,1085.5,541z M1603.9,2581.9
			c18.3,0,36.6,0.1,54.9-0.1c6.2-0.1,7.1-4.9,7.4-9.9c0.2-4.6-1.3-8.7-6.6-7.4C1640.7,2568.8,1620.8,2569.6,1603.9,2581.9z
			 M1779.7,515.2c8.2,23.4,9.6,25.9,19.4,34.2C1817.2,513.7,1817.2,513.7,1779.7,515.2z M1385.7,2798.3c2.9-20.7,0.8-32.3-8.8-49.7
			C1361.7,2782.9,1362.4,2786.5,1385.7,2798.3z M1353.7,1317.1c-0.2,1-0.4,2-0.7,3c20.8,4.9,41.6,9.9,62.5,14.7
			c5,1.2,7.5-1.8,8.3-6.4c1.2-6.5-2.5-8.1-8.1-8.3C1395.1,1319.2,1374.4,1318.1,1353.7,1317.1z M729.5,1933.2
			c-5.4,14-6,27.8-4.7,43.7C751.4,1947.9,749.1,1952.7,729.5,1933.2z M1340.3,2878.4c12.2-6.1,23.6-13.5,25.6-26.6
			c0.7-4.4-7.5-9.7-15.4-11.1C1346.9,2854.2,1343.6,2866.3,1340.3,2878.4z M1114.8,2700.5c-26.5,14.7-27.4,20.4-5.3,35.1
			C1112.7,2724,1116.2,2712.7,1114.8,2700.5z M1638,540.3c5.4-10.5,13.4-20.2,8.2-28.6c-3.7-5.9-15.4-4.1-25.7-1.1
			C1626.5,520.8,1631.8,529.7,1638,540.3z M1217.2,1477.2c7.2,7.8,14.3,15.7,23,25.2C1250.7,1475.6,1228.3,1481.5,1217.2,1477.2z"/>
		<path class="st0" d="M459.2,2879.6c-47.1,0.2-97.6-16.2-140.9-52.3c-78.6-65.7-83.5-176.9-11.2-249.5
			c82-82.4,230.1-83.7,313.7-2.9c78.6,76,70.5,194.2-17.9,260.1C562.9,2864.6,517.7,2878.6,459.2,2879.6z M615.2,2743
			c1.8-7.7-1.7-9.6-5.4-11.6c-20.7-11.4-41.6-22.6-62-34.4c-10.3-5.9-11.4,1.9-13.4,8c-6.6,19.1-12.9,38.3-19.3,57.4
			c-1.7,5.1-3.4,10.1-0.1,15.5c16.6,26.9,41.9,31.7,65.1,11.1c9-8,16.8-17.6,24.3-27.2C609.2,2755.4,612.4,2747.8,615.2,2743z
			 M492.2,2673.8c2.5-13.4-12.6-13.6-20.3-18.1c-47-27.5-47.5-26.9-61.9,25.7c-1.3,4.9-3,9,1.8,12.7c18.6,14.5,37.2,29.1,55.8,43.6
			c11.9-17.5,14.3-38.6,22.2-57.6C490.3,2678.9,490.7,2677.6,492.2,2673.8z M390.5,2741.4c-31.8,55.3-23.9,73.6,35.4,83.8
			c6.5,1.1,15.1,4.9,16.5-4.8c1.6-11.4,16.8-22.6,3-34.5C427.6,2770.6,408.9,2756.3,390.5,2741.4z M475.7,2564.7
			c-12.8,0-22.9-2.8-26.6,10.2c-4.2,14.5,8.6,14.4,15.7,19c7.9,5.1,16.3,9.5,24.6,14c20.9,11.4,20.9,11.4,28.6-11.8
			c7.9-23.6,7.9-23.7-15.8-27.7C492.2,2566.8,482.1,2565.6,475.7,2564.7z M623,2681.1c-3.7-27-14.9-46.4-30.6-63.5
			c-20.9-22.8-21.3-22.8-30.4,6.2c-2.3,7.4-11.6,16.5-0.7,23.2C580.4,2658.8,600.7,2668.9,623,2681.1z M326.9,2761.4
			c4-10.5,6.7-17.3,9.2-24.2c12.3-33.8,11.2-36.1-18.8-55.9c-7.6-5-10.6-4.3-11.2,4.9C304.4,2712.3,309.1,2736.6,326.9,2761.4z
			 M366.2,2656.1c5.1-14.2,9.1-25.6,13.2-37c2-5.4,7-11.2-1.6-15.4c-6.9-3.4-12.4-9.5-21.9-3.2c-26.9,17.7-27.8,26-3,45.3
			C356.5,2648.6,360.2,2651.5,366.2,2656.1z"/>
		<path class="st0" d="M2303.8,2886.6c-49.3-0.1-95.4-11.4-135.8-40.8c-70-50.9-79.2-137.6-21.5-202c33.8-37.8,77.1-59.2,126.1-69.1
			c66.6-13.5,130.9-7.8,188.9,30.7c71.5,47.4,85.8,126.8,35.5,195.4c-33.8,46.1-82.3,68.7-136.7,80.6
			C2341.7,2885.6,2322.8,2886.9,2303.8,2886.6z M2318.8,2701c1.4-5.3-2.4-7.1-5.9-9.4c-38.4-25.4-46.2-22.7-58.4,20.5
			c-0.9,3.2-2,6.4-2.9,9.6c-1.7,6.4-5.3,13.8,4,17c15,5,27.8,16.3,44.7,15.5c0.7,0,1.5-2.1,1.9-3.3
			C2307.9,2734.4,2313.4,2717.7,2318.8,2701z M2373.2,2718.3c-8-0.8-8.5,3.6-9.7,7.4c-3.9,12.1-7.2,24.6-12.1,36.3
			c-4.9,11.7-2.8,17.1,9.6,22.3c40.3,16.8,40,17.4,51.7-25.6c1.1-3.9,2.6-7.6,3.6-11.5c0.9-3.3,1.7-7.7-1.5-9.3
			C2400.4,2730.7,2385.8,2724.2,2373.2,2718.3z M2440.9,2660.3c-0.1-10-28.4-32.3-40.4-29.8c-15.2,3.1-11.3,20.2-16.1,30.8
			c-2.1,4.8,35,28.5,43.5,25.9C2441,2683.1,2435.2,2667.8,2440.9,2660.3z M2262.3,2833c13.4,0.8,18.7-5.1,20.2-19.1
			c0.8-7.7-29.9-29.2-44.2-27.5c-14.4,1.6-15.1,19.4-13.5,26.7C2229.1,2833.5,2251.4,2826.4,2262.3,2833z M2222,2646.8
			c-23,13.5-37.1,27.5-49.1,44c-5.5,7.6-4,13.3,4.7,14.4c8.8,1,18.8,18.3,26.3,1.2C2211.2,2689.3,2214.9,2670.6,2222,2646.8z
			 M2289.8,2621.8c-0.3,1.4-0.7,2.8-1,4.2c11.8,5.3,23.5,10.8,35.5,15.9c3.9,1.7,9.1,6.6,12.2,0.7c3.3-6.2,6.4-13.9,5.8-20.6
			c-0.6-6.8-8.8-4.2-13.5-3.9C2315.7,2618.8,2302.7,2620.5,2289.8,2621.8z M2178,2785.3c10.9-23.3,9.7-25.4-16.9-28.8
			C2165.2,2767.5,2168,2778.2,2178,2785.3z"/>
	</g>
</g>
</svg>
