<?xml version="1.0" encoding="utf-8"?>
<!-- Generator: Adobe Illustrator 23.0.0, SVG Export Plug-In . SVG Version: 6.00 Build 0)  -->
<svg version="1.0" xmlns="http://www.w3.org/2000/svg" xmlns:xlink="http://www.w3.org/1999/xlink" x="0px" y="0px"
	 viewBox="0 0 3000 3000" style="enable-background:new 0 0 3000 3000;" xml:space="preserve">
<style type="text/css">
	.st0{stroke:#000000;stroke-width:10;stroke-miterlimit:10;}
</style>
<g id="Layer_1">
</g>
<g id="Layer_2">
	<g>
		<path class="st0" d="M843.4,2409.9c-74.6,22.7-143.6,44.1-214.3,59.1c-41.4,8.8-83.2,16.8-123.8,28.6
			c-45.8,13.3-82,41.9-98.1,87.6c-25.3,71.9-75.5,91.9-148.5,81C142.2,2648.9,42.4,2539.1,48.3,2435c5-88.9,28-173,66.8-253.2
			c56.5-116.9,137.8-216,221.8-313.3c23.6-27.4,23.5-27.3-6.9-43.8c-119.7-65-196.1-161-208.7-299.7c-7.9-86.6,19-166.1,63.1-239.4
			c39.6-65.8,81.2-130.8,141.3-180.5c14.8-12.3,7.3-22.8,3.3-34.6c-27.8-80.9-25.7-160.8,7.9-239.5c18.6-43.5,46-81,84.1-109.2
			c13.8-10.2,18-21.4,19.2-37.9c8.3-115.1,50.5-215.8,132.2-298.2c139.9-141,336.3-146.3,484.6-13.9c20.4,18.2,40.5,37,55.6,59.9
			c11.8,17.9,19.5,18.5,35.7,3.4c83.4-77.7,177.1-140.3,279.5-190.6c109.8-53.9,225.6-81.7,347.6-83.9
			c207.3-3.6,414.5-3.9,621.6,5.9c140.9,6.7,250.3,69.9,327.9,188.1c64.9,98.9,95.8,210.9,123.5,323.9c74,301.1,93.5,606.4,68.1,915
			c-22.9,279.2-76.5,551.7-180.8,812.8c-70.2,175.6-187.2,305.1-370.1,367.9c-59.3,20.4-120.7,32.1-182.2,42.9
			c-173.7,30.4-348.5,45.8-525.1,37.6c-234.9-10.8-463.3-51.9-682.4-139.8c-70-28.1-125.4-70-145.4-146.6
			C817.2,2516.9,824.7,2466.1,843.4,2409.9z M1334.6,1296.7c-73-3.7-138.2-6-194.1,33.7c-48,34.1-98.2,30.8-150.6,18.6
			c-9.5-2.2-23-5.5-13.6-19.3c7.4-10.9,0.3-37.6,28.1-29c47,14.7,88.6,5,128.3-24.1c13.9-10.2,13.9-13.6,4.1-26.1
			c-101-127.5-110.1-274.1-24.2-414.6c151.6-248,377.8-368.9,664-379.2c178.3-6.4,313,101.5,353.2,271.7
			c25.6,108.6,18.4,216.9-4.9,324.5c-5.3,24.3,2.7,24.9,21.5,22.5c29-3.8,58.2-7.2,87.5-8.8c14.6-0.8,21.3-7.1,25.3-20
			c85.9-283.9-45.6-534.6-302.5-628.9c-60.3-22.1-123-33-187.3-31.2c-25.1,0.7-23.6-14.1-25.4-30.8c-2.1-20.7,10.4-19.7,24.3-19.8
			c31.4-0.2,62.5,2.3,93.7,6.3c214.4,27.1,398.3,183.7,454.7,389.1c28,101.9,24.5,204.1-3.2,305.5c-5.3,19.2-3.2,25.2,17.8,23.4
			c23.1-2,46.6-2.6,69.6-0.4c19.1,1.8,24.1-7.3,27.9-22.8c75.3-311.4-62.3-646.8-334.6-814.6c-13.1-8-26.2-13.5-42.4-13.3
			c-79.9,0.8-159.8-1.3-239.7,1.2c-76.6,2.4-152.9,7.6-228,27.9c-282.3,76.4-689.3,413.7-739.3,821.3
			c-20.5,166.9-83.9,321.7-170.2,466.5c-76.7,128.5-179.1,236.6-275.9,349.3c-89.6,104.3-180.6,207.6-240.7,333.2
			c-36.2,75.7-58.9,154.8-58.2,239.3c0.6,66.9,62.1,139.5,128.9,152.7c-1.1-6.3-1.8-12.2-3.2-18c-21.5-92.8-2.2-176.1,57.1-250.6
			c39.3-49.4,85.4-91.8,134.6-130.9c127.9-101.6,273.2-171.9,423.5-232.5c84.2-34,169.9-64.2,248.5-110.5
			c96.4-56.7,201.2-99.8,288.4-171.6c59.3-48.8,126.3-65.5,200.9-57.3c104.1,11.5,172,86.2,167.3,183.6
			c-4.7,98.2-81,172.1-179.9,172.6c-12.2,0.1-34.7,8.2-32.7-17.8c1.3-16.7-1.4-34.5,29.8-33.8c72.6,1.7,125.9-48.3,132.2-115.7
			c6.6-70.1-33.1-120.4-109.4-136c-59.1-12.1-114.3-2.5-163.7,34.4c-137.5,102.6-288.7,182.1-444.6,251.3
			c-118.9,52.8-242.1,95.9-356.3,159.3c-113.1,62.8-217.4,136.6-299.8,237.8c-54.1,66.4-65.8,141.4-41.9,222.4
			c3.3,11.3,1.3,28.6,19.2,30.4c18.1,1.8,35.8-3.3,44.9-19.4c19.9-34.9,41.3-69.7,55.1-107.1c31.4-85,81.2-155.1,151.9-211.2
			c71.5-56.7,153.3-93.3,238.4-123.4c109.4-38.7,219.7-74.7,322.6-129.7c134.4-71.9,257.2-160.1,369.9-262.6
			c11.4-10.4,19.2-21.1,36.2-3.3c17.1,18,14.6,26.4-2.4,41.8c-197.4,179.5-421.9,311.3-677,390.7c-89.1,27.7-174.1,64.7-249.7,120.7
			c-49.1,36.4-87.3,81.7-118.5,139.4c27.5-7,49.5-13.6,72-18c111-22.1,220.5-49.3,326.4-90c11.3-4.3,22.8-8,31.9-16.8
			c129.9-125.6,288.5-198.1,459.5-247.5c16.4-4.8,27.2-7.6,33.5,14.8c6.1,21.9,1.3,29.1-20.2,34.9
			c-116.7,31.6-227.4,77.7-327.9,145.7c-51.9,35.1-103,71.7-138.3,125.4c-67.2,102-30.6,217.4,81.9,263.4
			c164.9,67.4,336.9,104.5,512.8,127.9c98.8,13.1,190.4,4.9,280.8-43.6c167.1-89.7,301.7-213.3,405.9-369.9
			c161.3-242.3,254.4-506,240.5-801.3c-4.8-101.6-40.1-190.4-107.7-267.1c-56.3-63.8-125-110.9-196.2-155.9
			c-29.8-18.8-58.6-20.5-91.9-15.6c-183.4,27.4-360.3,80-536.6,135.1c-46.5,14.5-91.3,32.3-130.4,62.4
			c-30.4,23.4-44.2,52.6-41.9,91.8c4,68.6,4.7,137.4,7.7,206.1c0.8,17.8-3.3,25.8-23.1,24.3c-16-1.2-28.6,0.8-28.7-22.6
			c-0.2-60.7,0.3-121.6-5.8-181.8C1268.1,1394.1,1282,1343.1,1334.6,1296.7z M2095.6,874.2c0.9-41.6-3.9-82.8-12.6-123.3
			c-29.3-138-114.4-218.5-253.8-240.2c-79.3-12.3-157.4-3.1-233.3,20.5c-186.3,57.9-342.5,156.2-441,331.7
			c-69.7,124.4-64.7,251.2,14.3,348.6c21.1,26,42.8,42.5,79.1,35c20.4-4.2,42.4-2.2,63.4-0.6c16.7,1.3,23.6-3.8,24.1-20.8
			c0.8-28,16.3-46.9,40.4-59.4c31.4-16.3,63.4-31.5,98.3-38.1c48.2-9.1,94.5-3.3,127.6,35.9c14.6,17.3,25.8,18.8,45,13
			c129.6-39.2,261-70.3,395.4-88.1c16.6-2.2,25.4-9.4,28.6-25.3C2083.9,1000.7,2095.6,938.2,2095.6,874.2z M2180.3,1121.2
			c-0.6,2.5-1.2,5-1.8,7.4c12.4,8.4,24.6,17,37.1,25.1c196.9,126.8,283.2,306.4,265.5,540.2c-13.5,178.6-57.6,348.3-133.7,509.5
			c-121.1,256.3-295.5,464.1-551.9,595.5c-1.1,0.6-1.3,3.1-2.5,6.3c6.3,0.3,12,0.8,17.7,0.7c119.6-0.8,237.3-19.8,355.1-37.2
			c12.8-1.9,21.6-9.8,30.3-18.5c90.9-90.5,167.3-191.9,226.7-305.5c133.3-254.8,174.2-524.9,126.6-807.9
			c-30.8-182.9-102.1-349.9-207.8-502.3c-6.4-9.2-10.2-23-26.1-21.9C2270.5,1115.6,2225.4,1118.3,2180.3,1121.2z M171.2,1490.9
			c-1.1,122.1,61.2,220.4,175.7,285.5c47.4,27,47.4,27,82.1-13.6c7.2-8.4,14.4-16.9,22-25.1c139.6-151.2,245.6-322.2,305.9-520.1
			c20.3-66.6,20.5-66.5-41.3-101.6c-131-74.3-270-60.5-373.1,42c-62.6,62.2-111.3,135.5-145.6,217.6
			C180.2,1415.3,170.9,1456.2,171.2,1490.9z M2175.9,217c7.7,6.2,15.5,12.5,23.2,18.7c112.2,91.2,195.6,203.6,247,338.8
			c57.2,150.4,67.7,304.6,32.7,461.6c-5.2,23.6,0.9,31.4,24,34.5c23.8,3.2,47.8,9.1,70.4,17.4c21.7,7.9,30.7,4.5,38-19
			c75.8-244.9,73.1-488.6-3.1-733.3c-15.3-49.2-43.7-76.9-88.9-93c-9.5-3.4-19-6.9-28.7-9.4C2387.6,206.6,2282.3,215.9,2175.9,217z
			 M2280,2745.5c99.2-21.5,188.5-64.5,264-135.6c15.1-14.3,25.7-30,32.4-49.9c96.6-285.6,129.7-578.1,96.1-877.9
			c-20.5-182.6-64.7-359.3-133.8-529.6c-3.7-9.1-4.4-22.2-14.7-25.3c-43-12.7-87.1-17.2-128.2-15.6
			C2729.6,1684.1,2693.3,2226.1,2280,2745.5z M2592.4,1147.6c157.8,415.8,186.5,835.3,79.6,1269.4c6.7-10.1,10.1-13.9,12-18.4
			c8.6-20.4,17.4-40.8,25-61.7c86.7-238.7,132.7-485.8,158.1-737.9c10.6-104.8,3.6-202.5-59.4-291.7
			C2754.2,1231.5,2685,1179,2592.4,1147.6z M785.5,1100.3c16.2-69.8,26.2-138.9,46.8-205.5c2-6.3-1-11.7-3.2-17.4
			C788.7,773,652.3,699.1,541.2,721.5C397.9,750.5,315.8,925.8,382,1062.4C522.6,990.6,655.1,1011.5,785.5,1100.3z M2876,1311.1
			c0-7.8,0.2-15.6,0-23.4c-3.3-130.5-12.6-260.5-34.2-389.3c-24-143.5-54.2-285.7-109.1-421.3c-14.5-35.8-31.7-70.2-60.8-107.5
			c14.6,63.4,27.2,118.3,34.6,174.3c15.1,113.9,14.6,227.5-1.8,341.2c-10.2,71-26.1,140.6-48.9,208.7c-3.1,9.2-10.7,19.6,6.2,27.2
			C2752.7,1161.2,2821,1226.5,2876,1311.1z M857.3,821.3c29.5-67,63.3-125.4,103.9-179.8c35.7-47.9,75.1-92.6,115.7-136.3
			c8.4-9,16.8-16.1,6-30.5c-35.8-47.6-78.8-86.3-131.1-115c-11.8-6.5-17.6-5.7-20.2,9.3C910,497.1,860.4,612.8,778,713.6
			c-8.7,10.6-7.3,16.3,3.1,23.9C810.8,759.2,833.7,787.4,857.3,821.3z M494.9,680.7c23.4-6.3,46.9-13.9,70.9-11.9
			c19.3,1.7,29.3-6.6,39.1-21.2c46.5-69,81.7-143.4,106.5-222.6c8.1-25.8,18.1-52,18.3-81.1C599.9,388.4,486,552.3,494.9,680.7z
			 M650.3,673.1c18.1,6.2,35.2,9.7,50,17.6c17.5,9.3,27.4,6.2,39.7-9.4c66.3-84.7,112.6-178.7,134.7-284
			c14.9-70.8,25.3-65.4-58.9-71.3c-22.2-1.6-31.8,8.6-35.1,30.2c-5.9,38.8-18,76.2-30.8,113.3C725.4,541.1,690.4,607.6,650.3,673.1z
			 M1567.2,1199.8c-42.2-34.8-154.2-19.8-178,20.1c-5.9,10-4.6,21.6-0.1,32.1c3.1,7.4,8.9,5.8,15,3.1
			C1455.7,1232.8,1509.9,1217.8,1567.2,1199.8z"/>
		<path class="st0" d="M2318.8,1769c-14,431.8-270,813.6-749.9,928.3c-22.4,5.4-43,14.9-45.7-22.9c-1.3-17.7,4-18.7,17.7-21.9
			c136.3-31.5,262-86.4,374.9-170.1c171.7-127.4,272.3-300.5,325.2-504c35.8-137.7,37-275.3-5.1-412.5
			c-42.3-137.7-140.1-206.9-277.4-228.3c-51.2-8-102.7-10.6-153.9-1.2c-21.9,4-19.4-11.8-21.9-23.4c-2.4-11.3-7-22.2,11.9-27.4
			c138.2-38.3,349.1,32.3,432.1,147.7c56.6,78.6,77.3,170.2,87.6,264.5C2317,1724.1,2317.7,1750.4,2318.8,1769z"/>
		<path class="st0" d="M1780.6,1415.3c-17.6,2.8-38.9-1-59.7,5.4c-22,6.8-17.7-12.3-21.3-23.5c-3.9-12-8.4-20.4,11.8-24.5
			c182.1-37.2,390.9,44.7,435.3,294c49.9,279.9-110.9,562.7-344.2,696.9c-203.8,117.2-423.1,184.3-654.5,216.7
			c-13.3,1.9-28.7,7.4-29.6-16.9c-0.7-18-4.3-30.8,22-34.1c144.9-18.1,286.2-51.9,422-106c129.1-51.5,255.1-110.5,354.5-210.7
			c112.5-113.4,181.7-249.4,188.3-411.8c2.6-63.7-5.4-127.4-24.8-188.5C2038.9,1482.3,1932.5,1412.4,1780.6,1415.3z"/>
		<path class="st0" d="M1917.9,1750.4c-9.6,163.7-89.3,279.5-203,377.3c-94.3,81.1-208.7,125-319.2,176.7
			c-75.3,35.2-151.2,66.4-234.9,76.2c-25.8,3-34.6-4.5-35.9-28.7c-0.7-14,3.2-18.6,17.4-21c189.8-32,358.1-117.2,514.5-223.2
			c106.5-72.2,183-173.7,205-306.4c8.3-50.1,7.7-100.7-3.3-150.6c-13.5-61.3-47.8-104-110.4-119.9c-65.4-16.6-130.9-32.8-196.7-47.9
			c-18.8-4.3-26.1-10-20.4-31c5.4-20.1,12.2-25.1,33.2-19.4c63.2,17.1,127.3,30.8,190.8,47.1c96.1,24.6,144,91.6,157.9,185.8
			C1917.5,1696.1,1916.7,1727.7,1917.9,1750.4z"/>
		<path class="st0" d="M449,1294.9c63.7-0.5,113.9,48.2,115.2,111.6c1.3,63.6-50.7,116-114.7,115.5
			c-63.4-0.4-112.2-50.6-113.6-113.7C334.6,1348.5,392,1291.1,449,1294.9z M512.3,1408.6c0.1-36.2-26.5-63.6-62-63.8
			c-34.2-0.1-64,29.2-64.2,63.2c-0.2,34.8,28,62.8,63.5,63C485.9,1471.2,512.2,1445,512.3,1408.6z"/>
		<path class="st0" d="M605.2,847.5c7.1,0,14.1-0.1,21.2,0c61,1,89.5,27.6,96.6,87.9c1.8,15.5-8.9,13.8-16.6,15.1
			c-11.2,2-29.7,16.9-32.5-3.2c-7.6-55-45.8-50.5-84.1-49c-17.1,0.7-34.4,0.5-51.3,2.9c-14.9,2.1-26.6,10.3-27.9,27.3
			c-1.6,21.5-19,43.9-31.9,40.9c-20-4.6-22-31.1-18.7-52c5.2-33.3,30.7-58.2,66.8-65.8c12.8-2.7,25.9-4.2,39-5
			c13.1-0.8,26.2-0.2,39.3-0.2C605.2,847,605.2,847.3,605.2,847.5z"/>
	</g>
</g>
</svg>
