<?xml version="1.0" encoding="utf-8"?>
<!-- Generator: Adobe Illustrator 23.0.0, SVG Export Plug-In . SVG Version: 6.00 Build 0)  -->
<svg version="1.0" xmlns="http://www.w3.org/2000/svg" xmlns:xlink="http://www.w3.org/1999/xlink" x="0px" y="0px"
	 viewBox="0 0 3000 3000" style="enable-background:new 0 0 3000 3000;" xml:space="preserve">
<style type="text/css">
	.st0{stroke:#000000;stroke-width:10;stroke-miterlimit:10;}
</style>
<g id="Layer_1">
</g>
<g id="Layer_2">
	<g>
		<path class="st0" d="M974.1,1600.7c-4.1,69-8,133.9-11.7,198.9c-6.2,109.7-17.5,219.1-20,329.1c-3.5,154.1-0.7,308.2-7.4,462.2
			c-1.3,31.1-3.2,62.1-3.9,93.2c-2.4,105.5,42.9,161.1,146.5,181.7c172,34.3,346,39.3,520.5,32.7c113.4-4.3,226.7-11.9,339.1-28.5
			c18.6-2.7,37-6.7,55.4-10.3c76.3-15.1,123.9-64.8,144-135.4c46.9-164.7,49.5-330.6-3.5-495.4c-7.4-22.9-18.3-44.1-32.2-63.6
			c-35.4-49.7-80.8-66.3-140.2-51.7c-95.6,23.5-150,96.1-152.8,205.1c-1,38.3-0.2,76.7,0.2,115c0.3,29.8-2.3,59.3-9.4,88.2
			c-12.1,49.3-50,81.8-100.5,82.3c-112.8,1.3-225.7,1.9-338.6,0.7c-67.2-0.7-100.1-31.8-109.3-98.8c-2.7-19.9-3.4-40.5-2.4-60.6
			c7.4-140.5,2.9-280.8-10.7-420.5c-8-81.8,36.5-152.8,139.8-162.1c68.6-6.1,137,0.3,205.3,5.4c152.4,11.5,304.9,14.8,457.6,12.8
			c34.7-0.5,69.5,0.4,104.2-1.5c18.9-1.1,24.8,5.8,22.9,23.1c-0.5,4.3-0.4,8.8,0.5,13c3,13.6-2.4,17-15.8,17.3
			c-194.7,4.5-389.1,3.1-583.4-12.4c-57.6-4.6-115.4-8.8-173.4-5.7c-12.2,0.6-24.5,2.2-36.5,4.9c-47.4,10.6-70.4,39.9-68.1,88.2
			c2.5,52,6.4,103.9,9.8,155.9c6.1,94.7,4.5,189.5,1.1,284.2c-0.7,21-0.3,42,3,62.8c3.5,22.6,17,34.4,39.7,39
			c25.2,5.1,50.5,3.2,75.7,3.3c94,0.1,188-0.1,282-0.1c18.1,0,37.1-16.9,44.6-41.5c8.1-26.6,9.4-54,9.3-81.6
			c-0.2-54.2-3-108.3,4.4-162.5c17.6-130.6,141.2-227.9,268.1-209.5c49.5,7.2,86.5,34.5,114.9,74.5c43.2,60.7,60.5,130.8,71.3,202.6
			c18.7,124.4,11.4,248.1-15.6,370.7c-7.2,32.6-20,63.3-36.8,92.3c-42.1,72.6-107.6,107.8-188.6,120.1
			c-161.2,24.5-323.5,34.4-486.4,35.6c-126.1,0.9-251.5-7.3-376-27c-27.2-4.3-54-10.1-80.3-18.3c-97.6-30.5-149.6-97.7-151.6-200.3
			c-1-55.6,1.5-111.4,4.2-167c7.3-154-0.4-308.3,8.1-462.2c7.2-129.2,16.1-258.4,24.2-387.6c1.2-18.8,0.8-37.7,3-56.3
			c5.7-49.3-0.1-94.6-20.2-142.4c-32.8-78.2-40.1-163.7-45.6-248.2c-7.5-115.9,1.7-231.4,9.7-346.8c10.5-151.8,10.9-303.5,0.7-455.3
			c-3.6-53.2-10.6-106.5-3.2-160.2c11-80.1,58.2-130.2,130.4-159.2c56.3-22.7,116.4-27.5,176.2-33.3c90-8.8,180.1-17.7,270.7-9.4
			c82.2,7.6,164.4,12.8,247,9.9c57.1-2,114.2-4.2,171.3-7.3c88.5-4.7,148.4,39.8,190.9,112c28.5,48.5,42.6,102.4,50.2,158.1
			c13.9,101.5,20.1,203.2,1.8,304.6c-13,71.9-38.6,138-101.6,182.7c-68.6,48.7-182.6,48-247.2-1.8c-31.7-24.4-46-55.9-43.6-96.2
			c5.1-84.5,9.4-169,6.5-253.7c-1-30.1-11.7-42.6-41.3-49.2c-19.2-4.3-38.7-5.4-58.2-5.8c-73-1.4-146.2-4.2-218.9,5.4
			c-56.1,7.4-86.7,38-89.3,94.2c-8.6,185-14.4,370.1-4.2,555.3c1.7,30.2,6.5,60.4,15,89.7c15.4,53.3,41.5,74.9,96.1,81.8
			c44,5.5,88.1,5.3,132.2,5.1c176.1-0.5,352-9.4,527.7-20.4c26.6-1.7,20.8,14.7,22.7,28.2c2.1,14.7,1.5,25.3-19.5,26.4
			c-171.9,8.8-343.8,17.1-516,19.4c-49.2,0.7-98.3-0.5-147.4-5.2c-87-8.2-134.9-51-154.8-151.2c-7.6-38.4-10.6-77.5-11.6-116.5
			c-4.2-164.2-2.3-328.4,4.4-492.5c0.6-13.7,1.7-27.5,4.3-41C1268.6,433,1322,388,1407.3,383c80.6-4.7,161.2-5.9,241.8-0.2
			c20.8,1.5,41.6,4.1,60.7,13.8c33.5,17,53,42.5,55,81.6c4.6,88.4-1.2,176.4-5.7,264.5c-1.6,30.6,11.3,49,36.7,62.4
			c81.1,42.7,178.8,12.7,220.9-68.2c24.2-46.5,33.9-97,37.2-148.3c6-94.2,0.7-187.9-20.3-280.3c-6.1-26.9-15.5-52.8-28.1-77.2
			c-33.4-64.6-82.5-101-159.8-95.3c-97.4,7.2-195,11.2-292.7,6.7c-74.4-3.4-148.3-15.3-223-11.5c-94.6,4.8-189.2,10.1-282.2,29.9
			c-4.9,1.1-9.8,2.5-14.7,3.9c-87.6,25.1-126.8,78.2-123.2,169.1c2.1,52.8,5.7,105.5,9.1,158.1c8.9,138.9,5.6,277.6-3.9,416.4
			c-9.4,137.1-20.1,274.3-1.7,411.5c6.7,50.1,14.1,100.2,31.1,148.1c5.1,14.2,11.7,28,18.4,41.6c20,41.1,53.6,62.1,98.8,62.1
			c180-0.4,360.1,5.5,539.9-13.3c136.2-14.2,273.1-10.8,409.7-1.3c24.5,1.7,49,4.5,73.5,5.7c11,0.5,16.2,3.7,13.9,15.3
			c-0.6,2.8-0.1,5.8-0.3,8.7c-2.2,30.1-3.5,31-33,28.2c-177.7-16.6-355.3-16.6-532.9,2.4c-77.1,8.2-154.5,8.7-232,8.7
			c-76.7,0.1-153.4-1.1-230-1C1037.5,1624.9,1006,1619.8,974.1,1600.7z"/>
	</g>
</g>
</svg>
