<?xml version="1.0" encoding="utf-8"?>
<!-- Generator: Adobe Illustrator 23.0.0, SVG Export Plug-In . SVG Version: 6.00 Build 0)  -->
<svg version="1.0" xmlns="http://www.w3.org/2000/svg" xmlns:xlink="http://www.w3.org/1999/xlink" x="0px" y="0px"
	 viewBox="0 0 3000 3000" style="enable-background:new 0 0 3000 3000;" xml:space="preserve">
<style type="text/css">
	.st0{stroke:#000000;stroke-width:10;stroke-miterlimit:10;}
</style>
<g id="Layer_1">
</g>
<g id="Layer_2">
	<g>
		<path class="st0" d="M1536.9,2841.4c-44.6,66.9-113.7,86.1-185.1,101.1c-135.3,28.4-272.2,29.8-409.6,26.4
			c-70.1-1.7-139.1-7.4-207.5-24.9c-96.3-24.6-151.8-86.6-176.3-179.8c-17.6-67.1-18.6-134.7,3.8-200.7
			c27.3-80.4,86.5-125.1,168.5-141.5c4.4-0.9,9.5,0.5,13-3.3c0-1.5,0.6-3.4-0.1-4c-81.8-77.9-116.6-179.7-139.4-285.6
			c-55.9-260.3-90.5-523.1-81.9-790.2c4.2-129.7,14-259,30.6-387.8c10.3-79.9,17.9-160.1,35.4-239
			C623.8,551.4,716.5,428.8,842.1,328c103.5-83.1,222.5-136.7,346-182.3c185.6-68.4,376.9-88.5,573.2-74.9
			c94.8,6.6,189,15.1,280.4,42.2c112.8,33.5,211.3,89.6,283.6,185.2c50.4,66.6,73.1,144.4,89.2,224.7c18.2,90.5,22.9,182.5,32.8,274
			c8.4,77.5,14.3,155.2,17.9,233.1c1.2,25.5,1.8,51,2.1,76.6c1.4,121,4.7,242.1,3.3,363.1c-1.6,141.3-10.4,282.1-46.7,419.8
			c-29.9,113.6-74.8,219.9-147.7,313.1c-4.1,5.2-11.7,10.3,0.7,16.3c98,47.6,146.4,131.2,165.5,234c19.4,104,8.1,208.1-9.6,310.9
			c-12.7,73.6-67.5,111.7-133.5,135.1c-74,26.2-151.1,38.5-229.2,42.1c-98.7,4.5-197.6,8.6-296.4,1.3
			C1684.6,2935.8,1602.8,2910.4,1536.9,2841.4z M2381.2,630.7c-2.6-19.6-4.3-34.9-6.7-50c-8.9-57.1-20.4-113.8-41.8-167.7
			c-48.7-122.5-144-194.4-263.6-238.7c-83.9-31.1-171.5-44-260.2-50.7c-113.8-8.6-227.8-12.8-341.1,3.3
			c-179.6,25.5-348.6,84-504.1,177.3C767.7,421.7,643.2,588,618.3,821.8c-14.7,138.3-34.4,276.1-42.3,415.1
			c-7,124.4-7.4,248.8,1.3,373c10.1,144.3,32,287.1,58.5,429.2c16.2,86.6,35.9,172.3,76.4,251.6c34.3,67.3,85.1,115.8,155.9,144.6
			c48.7,19.8,99.1,30.1,150.6,34.1c173,13.4,346.3,23.4,519.9,12.6c113.7-7.1,225.7-23.6,334-60.9
			c199.3-68.6,355.4-187.7,446.4-382.2c53.5-114.5,79.7-236.3,91.7-361.5c12.2-126.8,13.1-253.8,9-380.9
			c-1.3-39.5-0.2-79.1-0.2-120.1c-10.3,1.8-18.2,3.2-26.1,4.6c-50.4,9-101,14.8-152.4,9.9c-83.9-7.9-121.6-52.1-111.6-131.8
			c4.7-37.5,4.6-75.1,6.4-112.7c0.7-13.8-2.6-19-17.9-16.8c-43.5,6.2-85.6,16.9-126.7,32.1c-15,5.5-19.9,9.8-11.2,27.4
			c37.7,76.4,40.6,153.1-11.5,224.7c-60.5,83.1-150.5,106.1-239.9,63c-14.4-6.9-13.7,3.1-16.5,10.3
			c-28.8,76.4-46.2,155.6-57.8,236.3c-5.4,37.6-5.8,36.9,31.4,42.9c54.3,8.9,108.8,18,160.5,37.9c41.6,16,61.5,45.4,61.3,89.9
			c-0.1,14.1-1.6,28.2-3.4,42.2c-4,31.4-11.5,62-20.4,92.3c-4.5,15.4-0.8,20.4,15.7,18.5c18.6-2.1,37.7-3.2,56.4-2
			c19.5,1.2,26.4-5.9,31.7-25c33.7-120.1,111.9-196.1,232.7-227.6c6-1.6,15.4-6.4,18.1,1.4c4.3,12.4,7.1,26.3,6.2,39.3
			c-0.8,11-14.2,6.9-21.6,9.1c-93.7,27.5-154.4,88.7-186,180.2c-5,14.6-2.5,19.5,14.4,18.7c59.2-2.9,106-26.8,138.6-77
			c18.4-28.2,34.1-57.8,47.1-88.9c8.2-19.5,16.4-39,25.7-61.1c18,29.3,35.2,55,43.3,85.3c19.2,71.5,3.7,137.7-34.2,198.8
			c-49.2,79.3-114,145.4-190.7,197.6c-95.2,64.8-199.2,108.7-317.4,108.8c-41.3,0-81.1-9.1-124-20.8c30.8,45.6,59.6,88.3,88.7,131.5
			c-8.3,5.8-17.2,10.8-24.6,17.4c-12,10.5-18.9,7.9-27.5-5.1c-38.4-58.3-78.1-115.9-116.9-173.9c-6.5-9.7-14-17.6-23.6-24.3
			c-59.6-41.7-105.5-95.1-136.8-161.1c-26.1-55-43.4-112.7-57.5-171.6c-4.3-17.7-8.3-35.5-13.2-56.2
			c-49.9,58.7-97.1,114.6-144.9,170.1c-7.9,9.2-1.9,14,3,20.2c63.8,79.4,99.2,169.8,103.5,271.8c0.5,13,4.6,19.3,18,15.3
			c16.6-4.9,21.8,3.5,21.2,18.1c-0.5,13.6,9.1,31.3-18.1,32.1c-52.6,1.6-105.1,2-156.8-8.2c-145.4-28.5-263.1-106.7-297.9-277.4
			c-17.1-84-24.9-168.8-29.4-254.1c-9.6-185.1-2.2-369.1,38.8-550.7c34.6-153.2,92.2-296.9,170.4-433.3
			C1153.4,539.8,1328.3,428.3,1562,409c182.6-15,347.6,34.4,493.3,144.8c27.5,20.8,53.3,33.2,87.7,24.6c-0.3-1.8-0.1-3.9-1-5.5
			c-53.8-103-129.7-181.4-245-212.9c-130.1-35.5-262.7-41.8-395.9-23.6c-160.7,22-300.4,88.6-407.8,211.9
			c-141.6,162.4-229.6,351.4-259.8,565.1c-28,198.3-50.8,397.3-59.3,597.7c-6.2,146.7,23.6,284.5,95.1,412.6
			c47.2,84.6,118.9,139.1,212.1,165c73.5,20.4,147.5,18.1,221.4,2.4c9.4-2,13.9-1.9,14.9,8.7c0.5,6,1.7,12.2,4.2,17.6
			c7.5,15.8-0.4,20.6-14.4,23.3c-57.1,11.1-114.3,15.9-172.4,8.6c-118-14.7-214.1-66.7-284.7-163.6c-42.1-57.8-66.9-123.9-90-190.6
			c-43.2-125-40.5-254.4-31.3-383.3c10.6-150.1,30.3-299.3,46.5-448.9c21.8-201.5,92.6-384.3,204.7-551.6
			c114.7-171.2,272.5-279.7,476.3-317.7c122.9-23,246.3-19.5,369.3-0.3c68.8,10.7,135.2,29.2,194.3,67.9
			c79.3,52,135.6,123.4,175.7,208.6c3.3,6.9,4.5,14.9,15.2,16.4C2268.4,594.2,2324.5,607.4,2381.2,630.7z M2107,2011.4
			c-3.7,0.3-5.8,0-7.6,0.6c-118.1,36.4-233.3,23.2-347.6-18.5c-145.5-53.1-240.6-151.7-275.1-304c-20-88-21.7-177.8-7.7-266.7
			c24.5-155,89.1-293,194-409.7c130.5-145,290.6-233,489.8-237.3c78.5-1.7,155.4,11.2,229.9,36.4c14.1,4.8,17.6,2.1,15.9-12.3
			c-3.6-30.7-7.3-61.5-8.9-92.3c-0.9-16.9-9.1-23.9-23.6-29.8c-135.5-55.1-273.9-60.2-415.4-27.8c-196.6,45.1-345.7,154-448,327.8
			c-47.1,80-77.2,166.8-104.4,254.8c-49.7,160.7-54.8,323.7-22.3,488.2c15.9,80.5,35.1,160,71.9,234.2
			c66.2,133.5,215.5,215.4,362.5,197.2c86.3-10.7,163.7-45.7,236.2-92.3C2067.8,2046.2,2088.6,2031.6,2107,2011.4z M2012.8,587.4
			c-0.2-6.6-4.5-7.8-7.7-10c-99.4-68.6-208.9-109.2-329.4-120c-11.4-1-17.3,5-23.9,11.7c-55.7,56.5-111.4,113-167.2,169.3
			c-186,187.7-372,375.4-558.5,562.6c-9.9,9.9-10.6,17.4-5.5,29.3c15.8,37,30.5,74.4,45.7,111.7c19.3,47.4,38.7,94.7,60.4,147.8
			c7.1-9.4,11-15.9,16-21.1c108.7-113.7,217.4-227.4,326.5-340.8c11.4-11.9,19.7-24.7,25.8-40.1c54.1-135.9,131.2-255.5,247.2-347.4
			C1751,654.5,1876.9,610.2,2012.8,587.4z M2171.2,2461.9c59.9,1.6,117.6-1.6,175.3-5.8c50.5-3.7,51.1-4.9,31.8-53.1
			c-25.2-63.2-63.6-115-128.8-142.4c-11.1-4.7-19-4.2-28.2,5.3c-81,83.3-178.2,141.9-285.4,184.6c-110.1,43.8-224.8,67.3-342.7,76.7
			c-9.8,0.8-22.9-2.6-17.6,16.5c20.7,73.9,17.9,148.2-5.7,220.3c-9.2,28.1,0.7,42.7,18.4,58.6c56,50.4,124.7,66.6,196.9,71.1
			c84.6,5.3,169.4,2.3,254-0.4c78.8-2.5,156.7-12.5,232.1-36.6c37.4-12,72.7-28.3,96.8-61.9c7.9-11.1,9-17.1-8.1-17.4
			c-85.4-1.7-170.7-2.9-256,2.5c-42.8,2.7-85.6,8.7-128.7,1.4c-48.3-8.2-77.3-36.9-81.5-85.5c-4.1-47,0.6-94,6-140.6
			c7-59.9,40.1-90.5,102.1-96.6c14-1.4,28.2-1.2,42.3-0.8C2087.3,2458.7,2130.1,2463.9,2171.2,2461.9z M1343.1,1227.4
			c-2.4,2.1-4.9,4.1-7.1,6.4c-149.4,155.8-298.6,311.7-448.2,467.3c-8.8,9.1-11.8,18.1-11.1,30.4c4.1,69.1,8.9,138.2,21.5,206.4
			c9.5,51.6,21.5,102.6,51.2,147.5c6.3,9.6,9.8,14.1,19.7,2.4c112.2-133.1,224.8-265.8,337.6-398.4c8.6-10.1,10.4-19.7,8.7-32.8
			c-13.6-101.9-12.4-203.8,4.1-305.4C1326.1,1310.1,1336.4,1269.9,1343.1,1227.4z M2411.3,940.5c-1.8-20.9-3.1-36.9-4.5-52.9
			c-0.2-2-0.4-4-0.4-6c0.1-8.4-5.6-11.2-12.3-13.7c-140.5-50.6-283.8-63.9-424.1-8.4c-255.3,101-396.1,298.3-450.8,562.1
			c-13.2,63.8-9.3,128.6-4.1,193c8.6,104.8,47.3,195,129.3,264c43.5,36.7,94.8,57.9,147.7,76.1c126.7,43.4,250.8,41.4,370.5-23.5
			c20.5-11.1,42.4-21.2,56.3-41.4c25.2-36.6,42-76.5,45.3-121.2c0.6-7.9,3.2-16.6-4.1-25c-6.9,11.9-12.7,22.4-19,32.6
			c-37.4,60.8-88,104.6-161.4,110.9c-101.1,8.6-202.8,14.5-304.2,9.1c-58.2-3.1-104.1-33.2-135.6-83.3
			c-24.5-39.1-35.2-82.4-40.3-127.5c-8.8-78.5,2.4-155.6,16.3-232.4c21.5-118.7,59-231.8,124.8-333.9
			c121.1-188.1,294.6-262.8,514.3-234.9C2309.5,891,2360.5,909.4,2411.3,940.5z M1406.9,2533.8c0,0.3,0,0.5,0,0.8
			c-33.6,0-67.2,0.2-100.8-0.1c-8.7-0.1-15.4,0-16.5,11.7c-4.4,43.8-27.1,77.9-59.2,106.5c-6.4,5.7-10.3,10.7-8.9,20.3
			c10.5,73.8,16.4,148.1,19.2,222.6c0.5,13.6,5.5,15.2,17.2,13.5c41.8-6.3,83.4-14,124.5-24.1c59.7-14.8,108.6-43.9,130.9-104.9
			c27.7-75.6,35.5-152.6,13.1-231.2c-3.3-11.4-7.9-15.9-20.8-15.4C1472.8,2534.6,1439.8,2533.8,1406.9,2533.8z M967.1,2659.9
			c47.7,1.8,95.4,4.8,142.7-4.3c55.7-10.8,100.9-36.5,124.8-90.8c12.8-29.1,9.9-32.3-21.2-33.9c-129.9-6.7-259.4-9.8-385.2-54.4
			c-100.8-35.7-200,22.4-225.2,119.1c-3.9,15-0.9,20.5,14.5,24.5C732.2,2649.8,849.7,2654.9,967.1,2659.9z M2209.6,2578
			c49.1,0,98.2,0,147.2,0c47.8,0,47.8,0,45.5-48.5c-1.4-28.3-1.4-28.2-30.2-25.8c-105.3,8.5-210.7,11-316.2,3.6
			c-22.8-1.6-45.8-2.6-68.1,3.9c-20.2,5.8-34.1,17.2-37.5,39.7c-5.3,34.6-6.6,69.5-7.8,104.4c-2.3,68.4,12.5,83.9,81.8,79.6
			c116.6-7.3,233.2-12,349.9-5.8c11.5,0.6,16.8-1.4,17.2-14.7c0.6-19.4,4.1-38.7,6.3-58.1c3.2-28.6,3.1-28.6-25.1-28.6
			c-110.9,0-221.9-0.4-332.8,0.4c-17.3,0.1-23.1-4.9-20.3-21.3c0.5-3.3,0.5-6.8,0-10.1c-2.5-15.1,3.5-19.3,18.7-19.1
			C2095.3,2578.5,2152.4,2578,2209.6,2578z M997.5,2816.2c-1.2,0-2.3,0-3.5,0c0-28.9-0.6-57.7,0.3-86.6c0.5-14.6-4.2-19.6-19.3-20.1
			c-123.5-4.2-246.9-9.5-367.3-41.3c-10-2.6-13,0.5-12.6,10.6c1,27.7,5.2,54.8,13.2,81.2c20.8,69,62.4,115.2,134.9,135.3
			c79.6,22,160.3,23,241.4,24.7c11.6,0.3,13-5.9,12.9-15.2C997.3,2875.2,997.5,2845.7,997.5,2816.2z M931,1123.2
			c4.5-3,6.4-3.8,7.7-5.2c121.1-122.1,242-244.4,363.4-366.2c9.4-9.4,6.3-15.2,0.3-23.6C1276,691,1249.3,654,1224.1,616
			c-9.1-13.7-14.7-14.3-26.4-2.9c-50.9,49.8-90.4,108-125.8,169.2C1010.4,888.6,962.6,1000.5,931,1123.2z M2287.1,1143
			c36.8,0.3,76.4-7.3,116-14.1c12.2-2.1,16.6-7.4,15.8-20c-1.9-30.8-2.8-61.7-3.5-92.5c-0.2-8.1-3-13.7-9.4-18.7
			c-61.9-47.9-133.5-66.6-210.2-70.1c-7.7-0.4-10.9,2.2-10.8,10.2c0.6,49.7-4,99.2-7.6,148.7c-1.7,22.5,9.3,38.5,30.8,46.6
			C2232.4,1142.3,2257.8,1143.7,2287.1,1143z M1646.9,1657.4c0.3,19.5,4.1,44.7,10.1,69.5c20.2,83.7,71.7,123.9,155.8,121.7
			c6.8-0.2,14.4,2.4,17.2-8.7c10.8-42.9,24.1-85.4,27.7-129.7c3.4-42-4.8-53.4-45.2-66c-41.7-13-84.7-20.2-127.6-28.1
			C1643.4,1608.4,1643.2,1608.3,1646.9,1657.4z M1218,2217.7c30.1,3.7,24.4,2.9,22.1-26.7c-6.6-83.6-36.5-158.7-88.2-225
			c-7.3-9.3-10.6-5.4-16.3,1.4c-43.2,51.3-86.5,102.5-130.5,153.1c-9.9,11.4-9.4,16.9,2.9,25.9C1069,2191.1,1138.2,2211,1218,2217.7
			z M1589.8,458.6c-1.3-0.7-2.4-1.9-3.3-1.8c-14.1,1.1-28.1,2.1-42.2,3.6c-101.3,10.8-195.1,42.4-279.9,99.8
			c-9.6,6.5-12.7,10.6-4.6,21.5c26.3,35.7,51.8,72,76.3,108.8c8.5,12.7,12.8,14.5,24.4,2.6c72.4-74.1,145.6-147.3,218.5-220.9
			C1583.1,468.2,1588.8,465.2,1589.8,458.6z M1818.3,1249.2c49.1-1.5,89.3-29.5,117.3-74.4c32.8-52.6,26.6-107.3,2.3-161.8
			c-6.7-14.9-12.8-18.7-27.5-7.5c-73.2,55.7-126.2,127.2-166.9,208.8c-5.1,10.1-1.3,14.1,7,18.7
			C1769.8,1243.6,1790.4,1248.5,1818.3,1249.2z M874.2,1643.9c37.7-39.4,72.2-75.8,107.2-111.7c7.1-7.3,3.3-13.4,0.6-20
			c-18.2-44.7-36.4-89.3-54.7-134c-10.3-25.1-20.6-50.2-31-75.3C877.2,1414.7,870.2,1526.2,874.2,1643.9z M1099.2,2814.6
			c0.2,0,0.5,0,0.7,0c-1.3-24.1-2.3-48.2-3.8-72.3c-2.1-34-2.2-32.8-35.9-31.8c-16.2,0.5-18,6.9-17.5,20.5
			c1.9,50.2,3.2,100.4,3.9,150.7c0.6,41.9,0.1,41.5,42.5,38.7c11.4-0.7,15-4.4,14.3-15.5C1101.7,2874.8,1100.6,2844.7,1099.2,2814.6
			z M1192.1,2889c-5.5-60.4-7.5-120.1-15.6-179.3c-2.9-21.3-6.3-23.2-25.5-13.6c-9.7,4.8-6.4,12.3-6.2,18.9
			c2.3,59.6,5,119.2,7.4,178.8c1,25.9,0.7,24.8,26.4,22.6C1201.9,2914.5,1188,2897.7,1192.1,2889z"/>
	</g>
</g>
</svg>
