<?xml version="1.0" encoding="utf-8"?>
<!-- Generator: Adobe Illustrator 23.0.0, SVG Export Plug-In . SVG Version: 6.00 Build 0)  -->
<svg version="1.0" xmlns="http://www.w3.org/2000/svg" xmlns:xlink="http://www.w3.org/1999/xlink" x="0px" y="0px"
	 viewBox="0 0 3000 3000" style="enable-background:new 0 0 3000 3000;" xml:space="preserve">
<style type="text/css">
	.st0{stroke:#000000;stroke-width:10;stroke-miterlimit:10;}
</style>
<g id="Layer_1">
</g>
<g id="Layer_2">
	<g>
		<path class="st0" d="M1836.3,2631.1c-143.6,1.5-287.3,4.4-430.4-10.9c-95.8-10.3-191.2-23.6-280.8-62
			c-116.9-50.1-167-135.7-152.3-262.5c2.7-23.3-3.3-27.8-26-29.8c-31.7-2.8-46.7,7.6-61.9,35.9c-55.3,103.1-146.1,157.1-260.4,169.5
			c-102.2,11.1-205.1,12.7-307.3-3.1c-143.6-22.2-231.6-117.8-250-262.1c-13.5-106.2,12.4-202.1,55.1-297.9
			c157.3-353.9,327.6-701.6,494.9-1050.7c98.3-205.2,257.7-332.8,468.8-403.3c130.5-43.6,265.4-59.2,402.3-62.9
			c138.2-3.7,276.2-0.1,414.3,2.1c77.8,1.2,155.8-8.4,233.8-12.8c143.1-8.2,285.3-1.2,425.6,28.8c101.5,21.7,176.6,83,230.4,169.9
			c89.8,145.1,127.1,303.9,116.4,473.8c-3.1,49.8-1.8,99.8-12.2,149.2c-20,95.6-72.6,167.6-156.2,216c-22.3,12.9-19,18.7-4.4,35.5
			c214.7,247.4,255,524.8,132.9,825.1c-76.6,188.3-227,285.8-423.4,319.6c-150.2,25.9-301.8,30.2-453.6,32.4
			C1940,2631.7,1888.2,2631.1,1836.3,2631.1z M1829.2,439.2c-112.9-7.6-220-3-327.2-2c-143.5,1.4-284.6,18.3-420.3,66.9
			c-174.4,62.3-317.4,163.7-402.2,334.3c-184.2,370.6-363.4,743.6-530.1,1122.4c-33.2,75.4-45.8,151.8-37.5,233.3
			c12.8,126,86.8,210.2,207.4,228.7c105.8,16.2,212.3,15.9,317.9,0.4c219-32.3,316.3-276.3,180.1-448.2
			c-36.9-46.6-86.8-73.3-140.6-94.7c-7-2.8-19.4-0.5-17.4-15.6c3.6-26.8,14.6-34.3,39.4-24.1c16.8,6.9,33.4,14.2,49.6,22.4
			c124.8,62.8,195.3,199.6,172.5,337.8c-3.6,22,6.3,21.2,21.4,21.4c217.1,3.2,426.5-35.9,627.9-116.7c66-26.5,130-58.1,176.3-114.6
			c17-20.8,25.1-4,37,3.2c18.5,11.2,4.1,19.3-2.7,27.3c-50.4,59.1-116.7,94.9-186.9,123.6c-175.6,71.8-358.3,112.4-547.9,120.3
			c-20.1,0.8-27.3,7.8-28.3,26.5c-1.5,28.2-3.1,56.2,1.9,84.3c14,78,66.9,119.4,136.1,145.8c108.4,41.3,222.3,52.7,336.6,59.9
			c171.6,10.8,343.5,6.9,515.3,3.9c150.8-2.6,301.4-7.2,450.4-35.8c172-33,297.2-124.4,369-286.1c58.5-131.6,75-268.9,54.1-410.4
			c-21.9-148.3-88-275.6-191.9-383.4c-8.6-8.9-15-17.6-31.7-12c-180.8,61.1-346.9,17.6-505.6-73.7c-27.3-15.7-47.7-38.9-61.5-67.7
			c-20.9-43.7-27.7-45.8-69.9-20.3c-8.5,5.1-16.7,11.1-24.2,17.6c-84.7,72.6-209.7,54.3-280.9-14.7c-5.8-5.6-10-14.3-21.4-15.5
			c8.5,48.9,7.3,96-2.3,142.6c-51.9,250.2-318.9,385.9-551.5,279.5c-20.7-9.5-30.4-4.7-42.3,11.4c-38.5,52-59.9,109.7-60.9,174.6
			c-1,66.2,27.1,99.1,92.4,109.1c19.9,3.1,39.8,2.5,59.7,0c120.9-15.2,235.4-51.8,345.3-103.8c60.7-28.7,121.6-57.2,188.1-70.8
			c172-35,310.6,98.4,277.5,271c-25.3,131.8-115.8,205.7-238.4,243.8c-88,27.4-177.7,22.1-267.2,5.3c-15.3-2.9-21.8-8-16.7-25.3
			c4.6-15.5,6.1-24.8,28-19.9c73.4,16.3,147.8,20.6,221.6,2.2c106.9-26.7,189.9-83.7,223.6-193.6c40.8-133.5-56.3-253-194.7-242.2
			c-47.7,3.7-91.9,21.2-135,40.3c-74.7,33.1-147.7,70.1-226.3,93.6c-82.7,24.7-165.9,48.7-253.5,46
			c-99.7-3.1-157.6-68.1-150.3-167.2c5.2-70.7,27.3-135.2,71.9-190.8c11.4-14.2,12.1-21-3.4-33.5
			c-141.6-113.7-187.8-301-115.2-466.8c7.7-17.7,4.4-26.6-8.2-39.2c-91.1-90.6-110.9-211.1-52.3-324.9
			c31-60.2,72.7-113.2,124.9-156.7c123.3-102.9,271.6-138,426.4-153.5c98.8-9.9,197.9-8.5,296.8,0c10,0.9,19.2,2.2,26.9-7.6
			C1778,482.7,1801.4,462.6,1829.2,439.2z M2176.7,423.5c-75.2,4.8-150.4,10-225.7,14.1c-13,0.7-24.7,3.7-36.6,8.2
			c-67.5,26-114.7,75.4-153.1,134.3c-49.9,76.7-81,162.1-110.1,248.1c-24.7,73.1-27.5,147.9-11.5,223.1
			c16.6,78.4,47,150.2,102.2,210.4c51,55.7,160.5,74.7,222.6,18.4c20.9-19,46.4-31.6,73.2-41.2c39.4-14,65.9-5.1,81.3,33.8
			c17.6,44.3,50,72.1,90.4,93.3c55,28.8,113.5,48.1,173.9,61.8c123.3,28.1,240,12.7,347.4-56.7c57-36.8,96.1-87.6,115-153.4
			c18.3-63.9,14.9-129.6,17.8-194.8c6.7-149.5-30.3-288-107.3-415.7c-51.3-85.2-124.9-141.2-224.1-158.2
			C2414.6,429,2296.3,418,2176.7,423.5z M1305.4,1000c-193.9,0-348.9,154.1-348.8,346.8c0.2,194.5,155,349.6,349.5,350
			c190.7,0.4,348.8-158.1,348.4-349.4C1654.2,1155.2,1498.2,1000,1305.4,1000z M1595.3,1074.8c0.4-2.8,1.2-5.3,1-7.8
			c-0.7-6.3-1.8-12.6-3-18.8c-13.2-68.9-12.5-137.6,6.7-205.1c26.1-91.9,60.9-180.3,108.1-263.6c5.9-10.4,15.4-19.8-8.1-21.7
			c-123.9-10-247.1-5.8-369.1,17.5c-156.7,29.9-292.6,93.4-385.2,232.3c-67.4,101.1-65.7,206.6,11,298.4
			c15.1,18.1,21.6,20.6,38.1-0.5c144.6-184.6,410-204.3,581.1-44.7C1581.5,1066.1,1585.4,1074.3,1595.3,1074.8z"/>
		<path class="st0" d="M2850.3,2047.3c-6.6,152.6-81.8,294.3-231.9,394.4c-9.5,6.4-20,24.2-34.4,1.1c-11.9-19-9.5-27.3,9.1-39.3
			c197.8-127.8,268.5-376.8,163.9-580.8c-63.2-123.3-164.1-201.8-298.4-235.4c-22.3-5.6-20.1-15.5-17.6-31.7
			c3-19.4,14.4-16.8,27.8-13.7C2688.9,1593,2851.3,1796.7,2850.3,2047.3z"/>
		<path class="st0" d="M2709,2004.1c-7.4,141.9-79.7,269.8-234.9,345.4c-9.8,4.8-21.7,15.4-26.7-4.5c-3.2-12.6-19.7-24.5,6.6-36.9
			c137.4-65,205.3-178.1,209.6-327.2c4.9-171.6-113.1-259.8-272.9-247.3c-9.9,0.8-20.5,0.1-29.6,3.2c-25,8.5-27.7-6.9-30.1-25
			c-3.2-23.9,15.8-17.3,26.9-19.1c83.2-13.1,163.1-5.4,235.1,42.6C2670.3,1786.8,2709.9,1870.3,2709,2004.1z"/>
		<path class="st0" d="M2578.9,2004.3c-3.9,81.3-37.5,144.2-107.6,182.9c-70.7,39.1-143,35.4-213.1-4.1c-7.5-4.2-27.8-6.2-14.3-23.8
			c9.1-11.9,12.7-30.7,38.4-15.6c104.4,61.6,227.5,3.9,248.7-114.4c14.1-78.8-33.6-149.8-116.1-171.6
			c-59.2-15.7-117.4-13.9-171.1,18.2c-26.4,15.8-28.2-8-36.5-19.5c-12.3-17.1,8.3-16.9,14.6-20.3c88.8-47.8,178.1-44.8,264.8,4.1
			C2549.8,1876.1,2576.7,1934.8,2578.9,2004.3z"/>
		<path class="st0" d="M1900.8,854.6c2.1,79.6,85.8,194.5,164.4,219.3c25.2,8,12.5,24.9,11.7,37.3c-1.1,16.5-15.4,8.3-23.4,6.4
			c-13.1-3.1-27.1-6.7-38-14.1c-82.9-56.1-140.3-130.5-158.5-230.9c-10-55.2,8.4-104,48.1-141c59.9-55.8,130.2-94.9,211.5-111.3
			c14.3-2.9,29.3-4.1,43.1,0.9c8.8,3.2,28.8-3.3,22.7,17.2c-4.1,13.8-4.7,35.2-30.3,27.6c-13.4-4-27.5-2.3-40.5,1.4
			c-67.2,19.3-128,51.1-178.2,100.2C1910.6,790,1899,818.7,1900.8,854.6z"/>
	</g>
</g>
</svg>
