<?xml version="1.0" encoding="utf-8"?>
<!-- Generator: Adobe Illustrator 23.0.0, SVG Export Plug-In . SVG Version: 6.00 Build 0)  -->
<svg version="1.0" xmlns="http://www.w3.org/2000/svg" xmlns:xlink="http://www.w3.org/1999/xlink" x="0px" y="0px"
	 viewBox="0 0 3000 3000" style="enable-background:new 0 0 3000 3000;" xml:space="preserve">
<style type="text/css">
	.st0{stroke:#000000;stroke-width:10;stroke-miterlimit:10;}
</style>
<g id="Layer_1">
</g>
<g id="Layer_2">
	<g>
		<path class="st0" d="M2530.1,1525.9c0,276.4,2.8,552.9-0.8,829.3c-3.4,262.4-127.9,450.9-365.3,562.8
			c-72.4,34.1-150.2,48.8-230.4,48.8c-286.2,0.3-572.4,1.3-858.6-0.1c-323.1-1.7-587.8-260.3-597-583.9
			c-3.8-133.2-1.2-266.7-1.2-400c-0.1-429.3-0.5-858.6,0.1-1287.9c0.5-294,190.6-535.7,470.8-600.4c50.9-11.8,102.7-16,154.9-16
			c267.8-0.1,535.5-0.6,803.3,0.1c303.5,0.8,545.2,190,609.7,475.9c11,48.9,14.4,98.6,14.4,148.5
			C2530.2,977.4,2530.1,1251.6,2530.1,1525.9z M531.2,1524.1c0,274.3,0,548.5,0,822.8c0,76.5,11,151.1,40.1,222.4
			c85.4,209.7,285.5,343.7,517,344.2c271,0.6,542,0.3,813-0.1c29.2,0,58.5-2.1,87.5-4.8c266.4-24.8,484.9-264.5,484.9-531.8
			c0.1-569.1,0-1138.2-0.1-1707.4c0-16.2,0-32.6-2.2-48.7c-39.1-287.2-264.1-485.3-554.8-486.5c-275.3-1.2-550.7-0.4-826-0.4
			c-80,0-158.2,11.9-230.6,46.8c-214.8,103.6-326.1,275.9-328.4,514C529.2,971.3,531.2,1247.7,531.2,1524.1z"/>
		<path class="st0" d="M2211.4,1572c0,171.2,1,342.5-0.2,513.7c-1.8,262.4-175.2,471.1-430.5,520.1c-14.9,2.9-30,5.1-45.1,5.6
			c-174.3,5.4-349.4,15.7-522.8-4.6c-246.5-28.9-437.5-246.7-441.7-502.2c-4.6-280.6-2-561.4-1.2-842.1c0.2-92-5.8-184.2,5-276.1
			c30-256.5,245.9-453.7,504.7-458.4c133.3-2.4,266.6-1,399.9-0.6c302.1,1.1,530.1,228.4,531.7,530.9
			C2212.2,1229.6,2211.4,1400.8,2211.4,1572z M824.1,1570.4c0.2,0,0.4,0,0.7,0c0,176.6-1.3,353.2,0.3,529.8
			c2.1,234.9,188.4,441.6,416.2,455.7c165.4,10.2,331.6,10,497,0.1c222.4-13.4,415.4-219.6,416.4-441.5
			c1.6-360.9,1.8-721.7-0.1-1082.6c-1.1-227.2-189-428.5-415-446.1c-146-11.4-292.5-3.2-438.7-4c-30.1-0.2-60.8,2.2-90.4,7.8
			c-230.6,43.7-385.1,231.6-386.3,470.3C823.4,1230.1,824.1,1400.3,824.1,1570.4z"/>
		<path class="st0" d="M917.1,1557.2c0-163.6-0.9-327.2,0.2-490.9c1.6-225.3,153.9-406.2,374.7-438.2c102.8-14.9,207.6-5,311.5-4.5
			c187.7,0.9,354.9,122.7,412.8,300.8c14.1,43.5,21.8,88.2,21.8,134.1c0,332.7,0.9,665.3-0.3,998c-0.9,242.8-193.5,434-436.3,436.1
			c-78,0.7-156,1.1-234,0.9c-261.1-0.8-449.8-190.1-450.5-452C916.8,1880.1,917.1,1718.6,917.1,1557.2z M973.4,1741.6
			c-0.8,5.3-2,9.5-2,13.6c0,106.2-2.1,212.5,0.6,318.6c4.5,175.6,145,335.1,318.8,359.3c115.1,16,232.1,13.5,347.1,3.3
			c185.3-16.5,324-157,342.4-339.3c12.5-123,2.1-246.9,4.8-370.3c0.5-24.1-14.3-17-25.3-14c-75.8,21.1-152.5,22.8-228,3.3
			c-34.8-9-37.2,2.9-37.1,31c0.5,84.5-1.9,169.1-0.8,253.6c0.3,24.6-6.4,30.1-30.6,30.5c-27.8,0.4-25.2-14.2-25-32.4
			c1.3-89.9,1.2-179.9,3.4-269.8c0.5-22.6-4.4-32.2-28.9-34.1c-101.1-7.5-201-3.4-300.1,20.3c-22,5.3-29.5,13.5-29.1,36.6
			c1.5,86.7,0.3,173.4,0.9,260.1c0.1,16.6-2.2,24.6-22.3,25.6c-26.3,1.3-32.4-7.6-31.9-32.6c1.6-79.1,0.6-158.2,0.5-237.3
			c0-12.2,4.3-28-18.8-22.2C1132.7,1765.1,1053.4,1761.2,973.4,1741.6z M1504.6,1015.8c-0.2,59.3,0.7,142.6,4.1,226
			c4.8,117.2,35.1,226.1,100.4,324.1c31.8,47.6,75.7,78,131.1,94.7c75.6,22.8,150.2,14.8,224.1-3.5c39.2-9.7,17.9-45.2,19.1-68.4
			c1.4-26.4-22.3-13-34-11.6c-165.3,19.9-272.4-52.7-308.7-215.8c-28.8-129.6-27.9-262.3-30.7-394.2c-1.9-87.7,7.5-175.2,18.6-262.2
			c2.7-20.9-2.3-29.7-24.8-28.2c-24.8,1.7-49.9,1.8-74.7-0.1c-21-1.6-25,6.8-24.9,25.9C1505.1,798.9,1504.6,895.2,1504.6,1015.8z
			 M1450.6,1002.5c0-119.2-1.8-208.1,0.9-296.8c1.2-38.5-22.7-26.9-42.1-28.8c-28.2-2.8-18.4,15.7-16.5,29.2
			c29.2,204,12.9,406.5-26,607.1c-36.6,188.6-158.1,288.4-337.9,286.4c-58.8-0.6-57.9-0.6-58.3,59.7c-0.1,18.2,4.8,27.8,22.4,31.9
			c122.2,28.4,239.2,17,338.1-63.9c88-72,156.7-157.3,133.9-285.5C1443.4,1219.5,1453.4,1095.4,1450.6,1002.5z M1599.2,1640.5
			c-44.5-48.5-67.4-98.2-94.9-153.4c-24.5,59.8-58.2,107.1-102.6,154.6C1470.3,1638.8,1530.1,1633.1,1599.2,1640.5z M1677,1139.2
			c6,5.1,14,12.2,22.4,18.9c44,35.5,44.1,35.5,85.5-3.9c51.2-48.6,51-48.3-6-91.7c-11.5-8.7-19.5-10.9-30.1,0.7
			C1725.5,1088.6,1701.5,1113.3,1677,1139.2z M1113.4,1089.9c-39.4-36.9-72.6-68.3-106.3-99.3c-9-8.3-23.5-10.6-27.4,1.1
			c-9.9,29.7-12.9,61.3-5,92c2.2,8.6,13.8,16.8,26,15.9C1035.5,1096.8,1070.3,1093.6,1113.4,1089.9z M1192.7,808
			c41.1,31,76.6,57.4,111.6,84.2c13.7,10.5,29,11.7,42.7,4.3c12.9-7,4-21.6,4.9-32.7c1.1-14.1-7.7-22.6-16.5-32.9
			C1295.8,784.4,1247.8,796.6,1192.7,808z M1012.1,1290.7c24.4,23.3,43.8,54.7,72.6,59.7c35.3,6.1,73.5-4.3,111-7.6
			C1148.9,1272.9,1086.7,1266.3,1012.1,1290.7z M1264.3,1074.1c-31.5-26.5-61.7-47.9-86.8-74c-28.8-30-60.3-29.7-100.3-19.6
			c23.8,22.7,47.4,40.6,65.1,63.1C1173.6,1083.7,1212.5,1087.9,1264.3,1074.1z M1059.3,1150c69,70.5,96.3,78.7,174.1,53.7
			c-15.5-14.9-29.9-29.2-45-42.7c-9.3-8.3-16.3-21.5-31.4-20.3C1126,1143.3,1095.2,1146.5,1059.3,1150z M1934.3,1011.3
			c-15-13.3-30.2-25-43.1-38.8c-17.6-18.7-30.3-18.6-48.9,1c-38.7,41-40.4,40.3,4.7,75.6c8.8,6.9,16.7,25.6,31.1,14.8
			C1897.8,1049.2,1914.4,1030.4,1934.3,1011.3z M1984.8,1273.7c0-7-0.5-11.4,0.1-15.6c1.9-14.2-3-25.5-15.1-32.9
			c-15.7-9.6-19.8,7.8-28.4,13.5c-10.6,7.1-19.2,17.2-28.5,26.1c-35.6,34.1-35.8,34.5,4.9,64.2c7.4,5.4,15.3,21.2,26.3,9.8
			C1962.7,1319.7,1992.5,1306.2,1984.8,1273.7z M1057.4,827.4c53.7,32.4,84,113.9,175.4,76.3C1172,876.5,1140.3,799.8,1057.4,827.4z
			 M1824.4,916.2c-20.3-17.6-38-34.5-57.4-49.3c-12.9-9.8-19,5.8-25.9,11.9c-46.5,40.9-46.5,41.6-4.1,77.1
			c8,6.7,15.3,24.1,27.9,14.8C1785.6,955.5,1803.1,936.1,1824.4,916.2z M1790,1225.5c42.5,41.3,42.5,41.3,82.1,3.1
			c10.9-10.5,21.7-21,32.5-31.5c7.4-7.2,20.3-15.5,3.6-23.8c-14.1-7-21.2-36.8-43.3-18.6C1838.5,1176.5,1814.9,1201.7,1790,1225.5z
			 M1345.8,1070.1c10-97.8-29.1-128.7-120.6-100.2C1264.8,1002.8,1303.1,1034.7,1345.8,1070.1z M1123.3,1472.1
			c-47.5-60.5-76.9-71.1-141.2-52.3C1017.6,1487,1029,1491.4,1123.3,1472.1z M1135.6,1403.2c17.3,16.5,29.7,25.6,38.6,37.4
			c30.4,40.6,77.4,23.9,96.9-18.1c9-19.4,5.1-30.3-15.9-29.3C1217.8,1394.9,1180.7,1399.3,1135.6,1403.2z M1803.2,738.2
			c-25.8-19.2-67.6-39.4-95.7-46c-6.9-1.6-15.2-6.8-20.8,1c-5,7.1-8.6,18-3.7,24.5c19.7,25.9,44.6,48.9,72.7,62.3
			c14.4,6.9,28.1-22,42.6-34C1800.6,744.2,1801.6,740.8,1803.2,738.2z M1864.2,874.8c6.4-0.2,42.1-36.8,41.6-42.7
			c-0.8-9.2-47.6-57.6-55.3-57.1c-6.2,0.4-47.5,42.1-47.2,47.6C1803.7,827.4,1859.1,874.9,1864.2,874.8z M1843.8,1434.8
			c9.7,0.8,53.9-43.5,52-50.8c-0.7-2.7-3.8-4.9-5.9-7.3c-34.9-39.6-50.7-40.6-88.7-5.6c-4,3.6-7.9,7.3-11.6,11.2
			c-3,3.1-5.9,6.6-1.1,10.4C1807.3,1407.2,1826.2,1421.4,1843.8,1434.8z M1984.8,1484.8c0-8.1,0.2-14.6,0-21.1
			c-1-22.3-20.7-29.5-35.1-38.8c-14-9.1-19.3,9.1-26.8,16.2c-30.8,29.2-30.3,29.7,4.8,55.8c4.3,3.2,9.1,5.9,13.3,9.3
			c10.2,8.2,19.9,17.4,34.7,11.1C1993.1,1509.7,1980.8,1494.2,1984.8,1484.8z M1199.5,1267.3c26.1,21.7,46.1,37.6,65.2,54.5
			c11.3,10.1,25.8,18.6,37.3,9.7c13.5-10.5,17-30.7,12.5-46.9c-3.8-13.9-16.2-26.8-33-26C1257.1,1259.7,1232.8,1263.6,1199.5,1267.3
			z M1791.2,1305.9c-1.2-3.4-1.8-5.5-2.6-7.4c-10.1-23.1-43.5-30-61.5-12.8c-8.6,8.2-17.2,16.5-25.6,24.9
			c-4.6,4.6-10.8,10.5-2.9,15.8c13.8,9.3,26.4,31.2,42.4,23.7C1760.5,1340.9,1775,1320.8,1791.2,1305.9z M1240.2,1135
			c24.5,22.9,43.6,42.7,64.8,59.7c12.1,9.6,24.6,6.9,27.2-11.8c1.3-9.5,2.1-19.2,3.7-28.7c3.5-21.2-4.4-30.3-26.4-27.1
			C1289.4,1129.9,1269.1,1131.7,1240.2,1135z M1984.7,1086.5c-2.1-10.2,6.7-28.5-5.7-33.7c-14.1-6-20.7,13.9-31.3,21.4
			c-5.2,3.7-10.3,8.2-13.8,13.4c-5.2,7.7-23.4,12.1-11.6,24.6c11.2,11.8,22.7,29.3,40.5,27.6c10.9-1,21.2-14.1,21.9-28.7
			C1985,1103.6,1984.7,1096.1,1984.7,1086.5z M971.3,1153.5c0,28,0.3,48.1-0.1,68.1c-0.2,11.6,5.1,14.9,15.9,13.3
			c21.8-3.1,43.7-5.7,72.5-9.4C1028.8,1200.4,1003.4,1179.7,971.3,1153.5z M1244.2,692c22.1,16.8,37,28.7,52.4,39.6
			c11.6,8.2,25.8,6.1,37.1,1.6c13.9-5.6,2.8-18.7,3.4-28.4c1.5-25.8-11.5-30.5-33.8-24.4C1286.9,684.8,1269.8,687.1,1244.2,692z
			 M1667.6,1063.3c62.3-52.1,61.8-59.6,0-87.2C1667.6,1003.3,1667.6,1030.5,1667.6,1063.3z M1805.2,1480.4c-0.7-2.5-0.6-5.4-1.9-6.4
			c-18.8-14.2-37.6-28.4-57-41.9c-2-1.4-8.2,1-11.1,3.3c-6.4,5.3-3.7,11.5,0.3,17c11.6,15.7,25.3,29.1,41.9,39.7
			C1793.6,1502.4,1797.5,1487.6,1805.2,1480.4z M1081.4,922.2c-19.4-16.5-33.6-27.8-46.9-40.2c-11-10.2-17-4.9-21.2,5.8
			c-3.3,8.4-13.5,15.8-5.8,26.4c6.9,9.4,16,13.7,28.2,12.1C1048.4,924.5,1061.3,923.9,1081.4,922.2z M1964.1,963.9
			c-1.1-29.4-9.1-55.5-25.3-78.8c-34.8,26.5-34.8,26.5-3.9,53.9C1944.6,947.4,1954.4,955.6,1964.1,963.9z M1667.2,869.3
			c58.3-43.5,58.5-46.2,7.8-77.1c-1.7,13.1-3.4,25.4-4.7,37.7C1669.1,841.4,1668.5,853.1,1667.2,869.3z M1222.2,747.2
			c-38.3-35.7-52.8-33.8-90.7,8.1c3.4,0.5,6.6,1.5,9.5,1.2C1166.7,753.7,1192.2,750.7,1222.2,747.2z"/>
		<path class="st0" d="M1932.9,1919.4c-0.4,45.8-40.5,84.5-86,83c-44.6-1.5-81.9-40-81.7-84.4c0.2-45.3,40.8-84.4,86.3-83
			C1895.9,1836.3,1933.3,1875,1932.9,1919.4z"/>
		<path class="st0" d="M1407.1,1917.7c0.6-45.9,40.5-84.2,86.2-82.7c44.6,1.5,81.7,40.2,81.1,84.6c-0.7,44.8-38.3,82.3-83,82.7
			C1445.5,2002.8,1406.6,1963.7,1407.1,1917.7z"/>
		<path class="st0" d="M1219.2,1933.7c0,46.5-35.7,82.8-81.8,83.3c-47.3,0.5-84.4-37-83.7-84.7c0.7-45.9,38-82.6,83.4-82.2
			C1182.3,1850.6,1219.2,1888.1,1219.2,1933.7z"/>
	</g>
</g>
</svg>
