<?xml version="1.0" encoding="utf-8"?>
<!-- Generator: Adobe Illustrator 23.0.0, SVG Export Plug-In . SVG Version: 6.00 Build 0)  -->
<svg version="1.0" xmlns="http://www.w3.org/2000/svg" xmlns:xlink="http://www.w3.org/1999/xlink" x="0px" y="0px"
	 viewBox="0 0 3000 3000" style="enable-background:new 0 0 3000 3000;" xml:space="preserve">
<style type="text/css">
	.st0{fill:none;stroke:#000000;stroke-miterlimit:10;}
	.st1{stroke:#000000;stroke-width:10;stroke-miterlimit:10;}
</style>
<g id="Layer_1">
</g>
<g id="Layer_2">
	<path class="st0" d="M1419.9,1764.2"/>
	<g>
		<path class="st1" d="M1093.9,1634.3c-28.9,99-47.9,193-59.3,288.4c-24.5,205.5-14.8,410.2,17.5,614.1
			c9.7,61.2,27.3,120.2,54.8,176c49.7,100.8,130.7,155.5,243,158.6c201.2,5.4,397.7-20.6,585.3-97.5c20-8.2,23.3,0.7,29.6,15.5
			c7.3,16.9,7.8,25.6-12.7,33.5c-151.3,59-308.1,91-470.2,97.4c-62.6,2.5-125.4,7-187.8-4.3c-111.8-20.2-186.5-87.3-235.3-186.3
			c-58.1-117.9-68.1-246.5-79.7-374.4c-23.1-254.6-2.9-505.3,70.1-750.9c3-9.9,4.5-19.3-1.6-29c-71.7-114-87.7-242.5-91.9-372.7
			c-6.2-191.3-4.2-382.7,11.8-573.6c7.7-91.8,25.4-182.1,58.9-268.9c71.4-184.9,203.1-290.4,402.4-306.2
			c201.9-16.1,397.6,7.1,582.6,95.4c5.5,2.6,11.3,4.6,16.5,7.7c11.5,6.9,30.3,7.5,16.7,31.2c-11.1,19.3-18,25.7-40.7,14.5
			c-197.9-97.8-407.2-122.1-623.7-90.1c-133.4,19.7-226.3,96.1-284.9,216.3c-49.6,101.8-71.3,211.1-78.9,322.3
			c-13.7,200-20,400.4-7.1,600.9c3.4,52.5,9.9,104.6,23.1,155.8c47.6,185.7,179.7,300.2,369.7,322c199.2,22.8,380.2-32.9,553-125.6
			c19.6-10.5,39-21.5,57.6-33.7c20.8-13.6,23,6.3,31.2,15.7c9.9,11.3,9.8,19.2-4.9,28.2c-186.6,113.1-385,183-606.8,169.5
			c-17.1-1-34.7-2.1-51.1-6.4c-22.1-5.9-27.2,3.4-29.2,23.1c-12.4,119.1-1.7,236.3,24.2,352.7c9.7,43.4,17.4,87.3,35.7,128.3
			c40.2,90.4,111.8,127.7,209.1,107.7c66.7-13.7,126.6-43,178-87.1c22.4-19.2,29-3.6,41.5,9.3c17.8,18.4-0.3,24.1-10.2,31.7
			c-68.4,52.6-143.1,90.6-230.6,99.9c-96.5,10.2-178.6-32.6-223.4-118.8c-43.3-83.4-52.4-175.9-68.5-266.2
			c-16.5-92.3-15.4-185.4-3.6-278.3c1.5-11.9,0.4-18.7-12-22.7C1217.7,1732.7,1151.8,1694.4,1093.9,1634.3z"/>
		<path class="st1" d="M1842.4,1364.4c10.6-3.6,18.1-5.9,25.5-8.6c25.8-9.4,35.8-3.3,43.6,23.2c2.6,8.7-1.2,11-6.5,13.5
			c-138.4,64.7-279.8,95.7-426.2,28.8c-100.3-45.8-159.4-129.5-189.6-232.6c-44.3-151.3-45.4-307.1-20-460.2
			c30-180.3,161.9-297.6,347.5-329.6c90.1-15.5,179.4-11.4,268.3,7.8c13,2.8,29.7,2.8,21.2,25.8c-6.2,16.8-6.8,31.3-33.4,24.2
			c-56.1-15-70-2.3-73.7,56.8c-4.4,70.1,23.8,122.7,86.7,153.1c26.1,12.6,13.4,27,9,41.6c-6.4,21.5-20.4,10-31.3,4.9
			c-90.7-42.3-136.5-145.8-106.2-244.8c7.4-24.2,3-29.7-20.9-28.5c-32.3,1.6-64.6,2-96.8,6.3c-18.5,2.5-23,9.8-22.8,27.2
			c0.8,72.9-0.1,145.8,0.6,218.6c0.2,17.8-3.5,26.4-23.4,30.3c-85.2,16.7-169.8,36-254.8,53.5c-18.9,3.9-29.5,9.6-30.3,32.3
			c-2.4,66.8-1.7,133.6,0.2,200.4c0.5,18.5,7.1,24,25.4,23.8c72.9-0.9,145.8,1.4,218.6-1.2c32.1-1.1,38.7,9.9,38.2,39.6
			c-1.7,99.2,0.9,198.4-1.5,297.6c-0.8,32.5,11.2,39.5,39.7,39.4c44.8-0.2,88.5-6.4,132.3-14.9c27-5.3,32-17.5,30.2-43.1
			c-9.8-138.6,64.4-264.3,188.2-322.4c29.2-13.7,32-11.3,42,19c6.1,18.4-6,20.6-16.5,25.6c-90.5,43.3-144.5,114.3-161.5,213.2
			C1839.9,1310.2,1841.9,1335.4,1842.4,1364.4z M1539,1238c0-44.4-0.4-88.9,0.2-133.3c0.2-14.9-3.4-21.9-20.1-21.7
			c-60.6,0.7-121.2,0.7-181.7,0c-17.7-0.2-20.5,7.4-17,22.2c8,34.3,15.4,68.8,28.7,101.7c31.5,78.1,82,138,159.8,173.5
			c21.4,9.8,32.1,11.5,30.6-18.3C1537.5,1320.9,1539.1,1279.4,1539,1238z M1319.1,728.6c81.6-17.5,158.3-34.2,235.1-50.2
			c14.8-3.1,12.9-13.3,12.9-23.1c0.1-56.7-0.3-113.4,0.3-170c0.2-16.3-2.8-21.8-20.4-15.1C1427.8,515.4,1349.9,597,1319.1,728.6z"/>
		<path class="st1" d="M1153.3,890.2c1.8-96.6-1.9-190.1,16-282c39.1-200.7,182.7-315.7,376.1-348.3c115.6-19.5,229.9-7.4,342.2,25
			c15.2,4.4,26,8.6,18.1,28.9c-6.5,16.8-9.2,27.3-32.9,20.3c-119.3-35-240.2-46.2-362.5-15.2c-178,45.2-284.4,170.1-299.9,352.8
			c-13.2,154.8-8.8,309.8,6.3,464c11.5,117,51.7,223,155.1,293.2c90.4,61.5,191.9,70.5,296.9,60.3c60.6-5.9,119.7-20.1,176.4-41.4
			c24.7-9.3,24.4,7.8,31.1,19.7c7.4,13.4,4.5,20.8-11.2,26.5c-121.1,43.5-244.9,65.1-372.4,38.4c-171.6-36-271.5-146.2-313-313.7
			C1152.6,1109.6,1159.5,997.7,1153.3,890.2z"/>
		<path class="st1" d="M1701.5,774.4c59.3,0.3,105.4,46.9,105.2,106.4c-0.2,58.9-47.3,106.6-105.8,107
			c-58.4,0.5-108.6-50.6-107.4-109.2C1594.7,819.9,1642.2,774.1,1701.5,774.4z M1700.7,936.3c30.9-0.2,56-25.3,55.9-55.8
			c-0.1-30-26.1-56-56-56.1c-30.5-0.1-55.5,25-55.6,56C1644.9,911,1670.2,936.5,1700.7,936.3z"/>
		<path class="st1" d="M1258.3,2556c-0.2,32.7-27.9,60.8-59.6,60.4c-32.8-0.5-60-27.7-60.2-60.2c-0.1-32.1,28.2-60.8,59.9-60.5
			C1230.8,2495.9,1258.5,2523.8,1258.3,2556z"/>
		<path class="st1" d="M1238.5,1850c0.6,31.9-26.9,60.5-59.1,61.3c-31.8,0.8-60.2-26.9-60.7-59.4c-0.5-32.3,26.9-60.9,58.8-61.4
			C1209.4,1790,1237.9,1817.8,1238.5,1850z"/>
		<path class="st1" d="M1178.9,1962.8c32.2,0.2,59.9,28.1,59.7,60.2c-0.2,32.6-27.6,59.3-60.5,59c-33.1-0.3-59.6-27-59.4-59.8
			C1118.9,1989.4,1146,1962.6,1178.9,1962.8z"/>
		<path class="st1" d="M1377.9,2720.5c-32.6-0.5-59.6-28.4-58.6-60.6c1.1-34.5,28.6-59.2,64.3-57.7c30.7,1.2,56.6,29.3,55.8,60.5
			C1438.6,2695.1,1411,2721,1377.9,2720.5z"/>
		<path class="st1" d="M1507.1,1880.3c33.8-0.5,60.4,24.6,61.1,57.7c0.8,33.1-25.1,59.9-58.3,60.5c-33.1,0.7-60.6-25.2-61.4-57.7
			C1447.6,1908.4,1474.3,1880.8,1507.1,1880.3z"/>
		<path class="st1" d="M1599.7,2702.9c-0.7,32.5-29.3,60.6-60.4,59.2c-32.8-1.5-58.5-29.1-57.8-61.9c0.7-32.5,29.1-60.2,60.5-59
			C1574.6,2642.3,1600.3,2669.9,1599.7,2702.9z"/>
		<path class="st1" d="M1179.2,2276.4c-32.9,0.3-60.1-26.1-60.5-58.8c-0.4-32.8,26.2-60.1,59.1-60.6c32.3-0.5,60.3,26.8,60.8,59.1
			C1239,2248.7,1212,2276,1179.2,2276.4z"/>
		<path class="st1" d="M1598,2216.5c0.2-33.1,26.8-59.6,59.7-59.4c32.4,0.2,59.1,27.5,59,60.4c-0.2,33.3-26.5,59.2-59.8,58.9
			C1623.5,2276,1597.8,2249.9,1598,2216.5z"/>
		<path class="st1" d="M1258.3,2410.7c0.3,32.8-26.4,59.9-59.2,60.2c-33,0.3-60.1-26.1-60.6-58.9c-0.5-32.1,26.8-60,59.3-60.5
			C1230.1,2350.9,1257.9,2378.1,1258.3,2410.7z"/>
		<path class="st1" d="M1700.4,2720.1c-33.7-0.1-59.4-25.7-59.3-59.1c0.1-33.4,26.2-59.2,59.7-59.1c32.6,0.1,59.9,27.3,59.8,59.7
			C1760.5,2694.3,1733.9,2720.2,1700.4,2720.1z"/>
		<path class="st1" d="M1872.9,2702.4c-33.2-0.3-59.5-26.9-59.2-59.8c0.3-32.2,27.9-59,60.5-58.7c33.3,0.3,59.3,26.8,58.9,59.9
			C1932.6,2677.1,1906.4,2702.7,1872.9,2702.4z"/>
		<path class="st1" d="M1599.7,2120.7c-0.1,33.9-25.3,58.8-59.4,58.5c-34.2-0.2-59.1-25.2-58.9-59c0.2-34,24.3-57.2,59.4-57.1
			C1576.4,2063.3,1599.9,2086.2,1599.7,2120.7z"/>
	</g>
</g>
</svg>
