<?xml version="1.0" encoding="utf-8"?>
<!-- Generator: Adobe Illustrator 23.0.0, SVG Export Plug-In . SVG Version: 6.00 Build 0)  -->
<svg version="1.0" xmlns="http://www.w3.org/2000/svg" xmlns:xlink="http://www.w3.org/1999/xlink" x="0px" y="0px"
	 viewBox="0 0 3000 3000" style="enable-background:new 0 0 3000 3000;" xml:space="preserve">
<style type="text/css">
	.st0{stroke:#000000;stroke-width:10;stroke-miterlimit:10;}
</style>
<g id="Layer_1">
</g>
<g id="Layer_2">
	<g>
		<path class="st0" d="M1416.3,2488.9c-342.4-2.8-684.8-12.7-1027.2-8.7c-59.8,0.7-119-5.4-174.1-30.9
			C112.7,2402,76,2313,67.4,2208.4C57.3,2085,59.7,1962,90.7,1841.2c2.6-10.1,0.8-16.2-6.3-23.3c-22.9-22.9-30-50.4-25.8-82.7
			c10.6-82,9.7-164.6,9.9-247c0.1-45.3,0.7-90.5,8.8-135.2c2.4-13,3.8-27.9,11.2-37.8c30.2-40.4,26.8-87.9,31.2-133.7
			c11.2-116.6,27.8-232.9,65.6-343.5c56.5-165.5,154-295,336.3-337.7c51.8-12.1,104.1-21.8,156.8-28.5
			c211.6-27,424.7-27.4,637.4-31.6c237.7-4.7,475.4-10.4,713.1-5.3c136.5,2.9,273.3,0,409.3,15.7c126.1,14.5,247.6,43.7,353,119.7
			c82.3,59.3,122.6,140.5,123.5,241.1c1.2,135.7,1.3,271.4,1.6,407.2c0,15.3,3.9,29.2,8.6,43.8c25.6,78.2,35.2,159.2,34.9,240.9
			c-0.2,63.7-4.6,127.5-17.3,190.4c-6.9,34.3-22.4,63.6-49.2,85.9c-10.2,8.5-13.1,17.5-12.5,29.9c5.6,110.9,0.2,221.7-3.7,332.5
			c-1.4,39.7-3.8,79.7-12.5,118.8c-26.1,117.3-122.3,205.3-249.7,228.5c-62.1,11.3-124.6,16.3-187.9,14.4
			c-276.6-8.1-553.3-13.6-830.1-14.5C1537,2488.7,1476.7,2488.9,1416.3,2488.9z M161,1229c50.1-25.6,99.9-32.5,150.7-33.4
			c39-0.7,78.1-0.8,117,1.3c22,1.2,32.5-3.1,31.9-27.9c-0.6-23.8,2.2-47.9,6.1-71.4c29.5-175.1,118.9-302.7,290.4-365.2
			c86.6-31.6,177.3-42.7,268-52.3c245.1-26,490.5-49.1,737.1-57.1c165-5.4,329.8-5.4,493.3,24c111.4,20,212.4,61.8,296.3,139.7
			c96.8,89.7,143.5,200.1,136.7,332.6c-0.5,9.9-10.9,26.5,11.5,28.1c59.6,4.3,116.7,17.7,171.3,49.7c0.5-8.3,1.1-13.3,1.1-18.2
			c-0.2-117.1-0.1-234.2-0.9-351.3c-0.2-25.6-2.3-51.3-8-76.6c-21.4-95.9-89.8-149.2-172.4-189.1c-72.6-35-150-53.1-229.4-64
			c-122.5-16.8-245.9-14.1-369.1-17.1c-378.8-9.4-757.4,3-1135.9,13.4c-131.1,3.6-262,13.8-390.8,41.5
			C471,556.1,385.9,591,324.3,672.5c-60.7,80.1-101.7,167.2-120.5,265.9C185.7,1033.1,165.4,1127.4,161,1229z M1254.1,1276.1
			c-10.9-1.1-17-2-23.1-2.3c-205.3-12.9-410.8-22.9-616.4-28.5c-116-3.1-232.2-10.9-348.2-1.8c-88.9,6.9-133.7,47.3-147.9,134.5
			c-4.1,25.2-4.5,51.2-4.4,76.9c0.1,93.1-2.4,186.2-9.8,279c-3.6,44.9,6.8,60.6,50.2,73.2c41.9,12.2,85.3,15.5,128.8,16.5
			c88.6,2,177.3,3.7,265.9,6.2c133.8,3.8,267.7,7.4,401.6,5.9c125.1-1.4,245-29.9,363.8-66.8c-1.2-3.3-1.4-5.5-2.5-6.4
			c-61.4-51.6-105.8-114.2-124.6-193.1c-2.9-12.1-10.2-11.7-19.4-12.1c-134.6-5.1-269.3-10.5-403.9-15.8
			c-110.7-4.4-221.4-9.2-332.2-13c-17.8-0.6-21.9-7-21.2-24.1c0.8-17.1,5.9-22.5,23.2-21.8c142.6,6.1,285.2,11.4,427.8,16.9
			c98.3,3.8,196.6,7.8,295,11.6c10.3,0.4,22.1,3.6,21.7-14.1C1176.5,1416,1202,1343.9,1254.1,1276.1z M1869.3,664.6
			c-132,3.5-228.5,6.6-324.9,14.4c-96.3,7.7-192.8,13.2-288.9,22.8c-130.4,13-261.2,22.4-390.3,46.6
			c-256.9,48-351.9,221.8-361.7,425.8c-0.8,17.5,3,25,22.6,25.2c63.8,0.8,127.6,3.3,191.4,6c14.5,0.6,22.8-1.6,25.7-18.1
			c6.8-38.7,27.5-70.6,53.4-99.3c38.1-42.2,85.3-71.6,136.3-95.2c103.3-47.8,212.8-74,325.3-83.5c255.6-21.6,511.7-28.4,767.6-5.8
			c91.8,8.1,183,22.9,267.8,62.4c76.5,35.7,139.2,85.2,162.3,171.5c2.9,10.9,7.6,13.7,18.5,13.1c50.5-2.6,100.9-4.7,151.4-6.2
			c12.3-0.4,17-4.4,17.8-16.9c6.2-97.6-16.3-186.5-79.8-262.7c-71.8-86.1-163.6-139.2-272.4-164.4
			C2140.7,665.2,1987.4,664.5,1869.3,664.6z M1902.4,1292.7c-0.2,10.6,7.2,16.7,11.5,24.2c21.7,37.1,38.3,76.4,42.7,119.2
			c2.3,22.7,11,23.8,30,18.9c202.4-52,403.4-46,603.1,15.5c14,4.3,18.4,7.8,14,23.5c-5.6,19.7-12.6,24-33.2,17.8
			c-194.2-59.2-389.7-63.1-586.2-10.9c-13.6,3.6-23.2,7.3-24.8,24.9c-5.7,61.3-27.8,116.9-64.8,166.2c-6.9,9.2-11.2,15.3,5,20
			c57.7,16.8,114.2,38.5,172.6,51.9c144.8,33.3,292.2,44.5,440.5,41.2c98.3-2.2,196.7-8.1,293-30.2c51.8-11.9,86.2-42.8,95.2-98.1
			c20.9-127.4,19.8-254.1-10.3-380c-7.7-32.3-28.8-54.1-57.5-69.4c-50.5-27-105.4-35.2-161.6-37.3c-103-4-205.5,3-307.7,16
			C2208.3,1225.9,2054.6,1255.4,1902.4,1292.7z M1618.5,936.1c-132.7,4.4-290.8,2-446.9,30.3c-96.5,17.5-189.8,44.4-274.2,95.9
			c-47.7,29.1-87.6,66-108,120.3c-7.1,18.8-2.6,24.6,17.4,25.2c69.1,2.2,138.4,3.8,207.2,9.8c29.8,2.6,45.9-7.6,63.7-29.6
			c67.4-83.7,152.8-137.8,261.3-153.9c82.5-12.2,165.5-18.2,248.5-25.3c58.4-5,116.9-7.3,175,3.1c126.6,22.6,231.7,85.2,322.2,174.4
			c12,11.8,23,16.7,39.7,13.3c90.3-18.5,181.4-32.1,273-41.7c14.2-1.5,18.1-5.1,13.4-19.8c-12.3-37.9-35.9-66.8-66.8-90.6
			c-65.9-50.6-142.9-72.5-223.1-86.4C1962.7,933.8,1803.2,932.8,1618.5,936.1z M1518.5,1179.3c10.4,7.7,16.8,12.3,23,17
			c68.8,53.6,89.6,127.2,57.5,207.8c-10.1,25.4-22.9,49.7-34.8,74.4c-48.1,99.3-53.1,202.3-27.7,308.2c3.5,14.8,10.2,20.2,25.3,20.1
			c94.8-0.3,180.5-26.9,251.2-91.3c84-76.5,121-171.6,97.6-284.8c-27-130.5-143-232.8-280.6-251.6
			C1594.4,1174.3,1559,1170.9,1518.5,1179.3z M416.3,2153.3c2.8,0,5.6,0,8.5,0c0-84.2-1-168.4,0.7-252.5c0.5-23-3.6-30.1-27.9-30.1
			c-80.6,0-161.6,0.4-240.8-17.3c-19.3-4.3-23.8-0.1-27.7,17.6c-27.3,121.8-28.2,244.7-12.5,367.4c14,108.9,73.3,168.7,178.9,189.6
			c28.6,5.7,57.8,7.4,87.2,8.1c19.9,0.5,25.2-5.4,25.6-25.1C409.9,2325.1,413.4,2239.2,416.3,2153.3z M1038.5,2158.1
			c0-86,0-172,0-258c0-12.1,3.1-25.3-17.7-23.5c-74.3,6.5-148.8,6.3-223.2,3.8c-12.3-0.4-16.8,3.4-17.3,16.4
			c-1.6,40.7-4.9,81.4-7.3,122.1c-8,131.8-15.5,263.6-24.1,395.4c-1.2,18.3,5,21.9,21.9,21.9c80.7-0.2,161.4,0.1,242,2
			c22,0.5,26.4-7.2,26.2-27.2C1037.9,2326.6,1038.5,2242.3,1038.5,2158.1z M2036.7,2127c0,100.2,0.3,200.4-0.3,300.6
			c-0.1,16.6,3.5,23.3,21.7,23.4c66.5,0.2,133,1.6,199.4,3.7c16.2,0.5,19-5.4,19-19.8c-0.4-191.6-0.5-383.1,0.1-574.7
			c0-16.5-5.3-20.1-20.9-21.7c-65.8-7-131.6-15.3-195.5-32.3c-24.5-6.5-23.9,2.2-23.8,20.1C2037,1926.5,2036.7,2026.8,2036.7,2127z
			 M460.6,2158.6c0.3,0,0.5,0,0.8,0c-3.3,84.9-6.2,169.9-10.2,254.8c-0.8,17.5,4,22.6,21.7,22.4c69.1-0.9,138.2-1.1,207.2,0.4
			c20.3,0.4,24.9-6.5,25.9-25.4c9.1-169.7,18.9-339.4,29.7-509c1.2-19.6-4.6-24.1-22.7-24.3c-72.6-0.8-145.2-2.3-217.8-4.9
			c-18.4-0.7-24.5,4.5-25,23.1C467.6,1983.4,463.8,2071,460.6,2158.6z M1991.8,2119c0-102.9-0.3-205.8,0.3-308.6
			c0.1-16.6-3.8-25.5-21.4-29.9c-30.8-7.8-60.9-18.4-91.3-28c-38.1-12.1-76.5,13.3-78.3,53.1c-9.5,207.2-18.4,414.5-28.1,621.7
			c-0.8,16.3,5,19.2,19.4,19.2c57.6,0.1,115.3,0.2,172.9,2.3c21.2,0.8,27.2-5.5,27-26.4C1991.3,2321.2,1991.8,2220.1,1991.8,2119z
			 M2585.5,2148.2c0,90.5,0,181,0,271.4c0,31.2,0.1,31.2,31.4,23.4c4.3-1.1,8.7-1.9,12.9-3.2c101.6-32.4,178.6-90.8,193.6-203
			c18-134.7,16.8-270.6,13.3-406.4c-0.3-12.6-2.4-16.6-16.6-13.1c-69.1,17.1-139.9,22.6-210.7,27c-20.6,1.3-24.5,8.4-24.3,27.2
			C2586,1963.7,2585.5,2056,2585.5,2148.2z M2320.4,2149.2c0,94,0.1,188-0.1,282c0,13.7-1.8,26.3,19.4,25.7
			c59.4-1.5,118.7,3.7,178.2,0.6c17.6-0.9,24.5-5.2,24.4-24.3c-0.7-187.1-0.6-374.3-0.1-561.4c0-16.8-3.7-23.2-22-22.6
			c-57.6,2-115.4,2-172.8-4.1c-23.4-2.5-27.8,5.8-27.5,27.3C2321,1964.8,2320.4,2057,2320.4,2149.2z M1222.3,1490.2
			c-0.2,150.2,114.2,269.5,254.3,305c14.1,3.6,16,0.3,13.1-14.1c-16.3-80.7-19.3-161.5,4-241.7c14.3-49.5,38.5-94.9,59.2-141.7
			c39.7-89.9-8.2-177.8-105-194.6c-9.8-1.7-19-1.2-28.6,2.3C1307.2,1246.9,1222.4,1369.4,1222.3,1490.2z M1291.6,2164
			c-2.5,63.2-5.9,158-10.4,252.7c-0.9,18.1,3.3,24.8,22.7,24.4c56.7-1.1,113.5-0.6,170.3,0.2c14.3,0.2,19.8-2.8,20-18.6
			c2.4-185.3,5.4-370.6,9.1-555.9c0.3-17.1-5.7-23.3-21.3-25.8c-27.3-4.2-54.5-11.3-78.2-24.9c-27.3-15.7-52-14.9-80.3-3.9
			c-14.9,5.8-20.5,12-20.9,27.8C1299.8,1937.5,1296.1,2034.9,1291.6,2164z M1753.2,1809.6c-62.5,28-125.8,42.7-192.3,40.5
			c-15.7-0.5-13.8,9.3-13.9,19c-3,183.4-5.9,366.7-9.4,550.1c-0.3,16.4,2.8,23.9,21.3,23.8c48.7-0.3,97.5,0.9,146.2,2.6
			c16.1,0.5,22.8-2.4,23.5-21.1c6.1-151.3,14.3-302.6,20-453.9C1750.6,1918,1758,1865.3,1753.2,1809.6z M1249.1,2097.4
			c2.2-55.1,5.6-148,9.9-240.9c0.8-18.3-1.1-25-22.6-19.3c-44.4,11.7-89.6,20.4-134.8,29.1c-12.7,2.5-17.9,6.6-17.9,20.2
			c0.4,178.1,0.4,356.1,0,534.2c0,14.1,5,18.4,18.4,18.3c37.2-0.2,74.5-0.3,111.6,1.3c18.5,0.8,24.1-5.2,24.6-23.7
			C1240.6,2322.8,1244.4,2229,1249.1,2097.4z M2046.2,1213.5c-13-18.1-28.2-29-42.6-40.5c-98.6-78.2-208.3-127-336.8-123.1
			c-109,3.3-217.4,12.9-325.3,28.8c-70.5,10.3-131.5,41-183.8,88.5c-17.1,15.6-34.8,31.4-47.6,54.7c59.5,3.5,116,6.6,172.4,10.3
			c10.9,0.7,18.1-4.2,26-10.3c168-130.8,387.7-122.1,546.9,21.8c7.8,7,14.4,11.3,25.7,8.5C1935,1239,1989.2,1226.7,2046.2,1213.5z"
			/>
		<path class="st0" d="M775.4,1728.7c-113.5,0-226.9-0.4-340.4,0.4c-18.3,0.1-24.2-4.7-24.4-23.6c-0.1-19.5,8.8-20.8,24.1-20.8
			c226.9,0.3,453.8,0.4,680.7-0.1c17.1,0,22.8,4.3,22.6,22c-0.2,17.1-4.8,22.6-22.4,22.5C1002.4,1728.4,888.9,1728.7,775.4,1728.7z"
			/>
	</g>
</g>
</svg>
