<?xml version="1.0" encoding="utf-8"?>
<!-- Generator: Adobe Illustrator 23.0.0, SVG Export Plug-In . SVG Version: 6.00 Build 0)  -->
<svg version="1.0" xmlns="http://www.w3.org/2000/svg" xmlns:xlink="http://www.w3.org/1999/xlink" x="0px" y="0px"
	 viewBox="0 0 3000 3000" style="enable-background:new 0 0 3000 3000;" xml:space="preserve">
<style type="text/css">
	.st0{stroke:#000000;stroke-width:10;stroke-miterlimit:10;}
</style>
<g id="Layer_1">
</g>
<g id="Layer_2">
	<g>
		<path class="st0" d="M1931.7,2182.2c-73.5,0-146.7,0-223.6,0c9.3,14.4,16.8,25.7,24,37.3c22.3,36.2,40.4,73.9,47.7,116.4
			c15.3,88.9-14.8,158.2-88.8,208.8c-53.4,36.6-113.9,51.2-177.5,52.3c-144,2.6-287.9,1.1-429.6-29.3
			c-93.8-20.1-175.6-60.6-229-147.7c-8.4,10.2-15.6,19.3-23.2,28c-59.4,68.1-132.5,111.1-223.2,121.3
			c-110.1,12.4-219.1,9.5-323-34.2c-128.4-54-210.6-145.3-218.2-289.6c-4.8-91.2,18.2-177.9,67.2-254.7
			c102.3-160.4,246.9-253.4,439.9-264.4c39-2.2,78.1-4.3,117.2-6c90.7-4,178.3,4.7,256.3,68c5.3-121,52.4-223.5,115-320
			c63-97.1,147.9-170.9,254-230.2c-24.5-5.2-42.9-9.1-61.3-13.2c-37.5-8.5-73.8-20.5-107.8-38.7c-91.8-49.2-137.2-126.8-140.1-230.6
			c-11-1.2-14.3,8.6-20.3,13.6c-33.3,27.8-70.6,39.3-113.5,30c-22-4.8-38.2-17.9-49.4-36.7c-5.8-9.8-10.5-10.5-20.1-4.8
			c-43.5,25.9-86.6,22-127.7-5.6c-10.1-6.8-13.7-4.8-19.3,4.7c-20.2,34.7-48.7,59.1-89.6,65.2c-10.3,1.6-10,7.3-10,14.6
			c-0.1,19.5,0.3,39-4,58.4c-8.8,40.2-30.8,67.9-71.5,78.4c-40.2,10.4-72-3.5-97.2-35.2c-1.4-1.8-2.6-3.9-5-7.7
			c-11.6,17.3-14.3,35-20.2,51.5c-11.3,31.7-21.3,64-49.8,85.9c-46.6,35.7-110.7,19.3-144.9-14.4c-40.4-39.8-59.2-90.5-67.3-144.3
			c-32-213.8,49.8-381.2,217.8-508.8C433.8,511,571.9,476.2,717.7,469.1c62.5-3.1,125.2-1.4,186.7,13
			c88.5,20.6,138.8,75.9,150.9,166.4c2.7,20.6,4.4,41.4,7.1,66.1c8.3-16.9,14.8-30.7,21.7-44.3c28.4-55.9,67.7-103.2,124.8-129.6
			c169.2-78.3,345.2-108.3,529.4-62.4c39.5,9.9,77.1,25.6,112,47.1c43.5,26.8,78.8,60.8,95.6,114.1c14-19.4,24.9-36.3,37.7-51.7
			c63.7-76.1,147.8-117.3,243.3-134.7c145.4-26.4,291.5-26.8,435.5,7.9c139.3,33.5,237.7,145.8,252.7,279.4
			c16.2,144-54.4,276.5-183.3,344c-8.1,4.2-16.1,8.6-26.4,14c26.9,17.8,51,34.5,72.9,54.5c67.9,61.9,99.4,143.3,111.1,229.9
			c22,162.6,8.5,322.8-59.3,475c-31.6,71.1-81.6,127.3-148,172.3c28.6,17.6,53.5,36.1,73.5,60.4c81.4,98.8,74.2,238-21.8,331.4
			c-108.4,105.6-240.2,167.6-389,192.6c-121.7,20.5-240,6.9-353.8-41.8c-14.3-6.1-28.4-13.2-41.7-21.3
			c-77.6-47.3-101.7-107.1-79.7-195.3c13.1-52.5,31.8-102.9,54.4-152.1C1927,2197,1932.6,2190.9,1931.7,2182.2z M1967,1682
			c0.6-84.1-35.8-196.1-101.1-299.6c-7-11.2-13.2-16.5-27.9-11.8c-129.1,41-250.3,97.2-356.7,182.4
			c-178,142.5-251.1,327.2-223.4,553c2.2,17.6,8.6,25.5,26.6,27.9c62.2,8.1,124.6,12.2,187.2,10.7c66.2-1.6,132.3,0.7,198.7-3.4
			c35.3-2.2,72.6-0.5,108.9,1.6c13.6,0.8,23.6-3.5,32.5-14.1C1910,2010.4,1966.8,1876.7,1967,1682z M2534.2,2058.8
			c3.4,0.8,5.2,1.9,6.3,1.4c111.8-45.5,205.1-110.8,257.8-225.4c34.7-75.5,47-154.9,55.1-235.8c7.5-74.8,13-149.9-4.5-224.1
			c-18.3-77.5-43.4-151.6-109.3-204.5c-44.1-35.3-93.1-60.2-146.6-76.5c-152.2-46.3-307.8-45.3-464-31.4
			c-84.9,7.6-168.5,24.6-252.2,40.2c-142.9,26.7-284.7,58.1-420.4,112c-178.3,70.8-322.7,180.1-408.4,357
			c-32.7,67.5-56.3,136.8-60.3,212.6c-2,38.1,14.6,71.4,19.9,107.1c7.7,51.5,33.1,91.8,64.4,130.1c11,13.5,22.6,27.2,41.7,36.5
			c-4.1-55.1-0.3-107.3,7-159.1c29.9-213.1,127.5-385.1,308.2-506.5c58.7-39.5,122.7-68.3,187.8-95.4
			c174.6-72.7,354.4-122,545.1-124.7c116.1-1.6,231.3,8.8,345.9,25c67.2,9.5,128.5,32.7,171.3,90.6c44.6,60.2,59.3,129.1,57.5,201.5
			c-4.8,192.8-67,367.4-172.7,527.4C2554.5,2030.9,2544.4,2044.4,2534.2,2058.8z M2423,475.6c-78.3,0.2-156.4,3.3-232.2,25.9
			c-180,53.7-263.7,184.3-232.4,367.8c11.3,66,53.4,115.2,102.2,158.7c5.2,4.6,10.4,1.4,15.5,0.8c62.1-7.6,124.5-12.7,187.1-13.4
			c124.1-1.5,247.2,6.4,365,49.8c19.9,7.3,36,6.9,54.3-1.2c111.6-49.4,183.8-131.2,194.4-254.8c12.9-151.8-78.9-273.9-227.8-312.2
			C2574.9,478,2499,475.8,2423,475.6z M1729.4,1091.6c41.7-7.3,76.3-18.6,106.4-40.7c64.3-47.3,91-110.6,78.9-189.9
			c-8.4-55-14.2-110.5-6.3-165.8c6.8-48.1-11.4-83.8-46.7-113.1c-58.5-48.7-128.3-70.7-202-80.2c-137.3-17.8-269.3,6.4-397.3,56
			c-59.7,23.1-106.9,61.8-137.1,118.8c-41.3,78.1-68.4,161.2-77.5,249.2c-10.9,105.5,37.1,187.9,133.4,233.2
			c51.5,24.3,106.7,34.8,162.7,41.7c13.5,1.7,26.6,9,41.2,2.2c90.3-41.9,185.1-70.9,281.3-95.5c8-2,14.4-4.7,18.2-12.8
			c27.7-57.8,56.2-115.3,63.7-180.1c6.7-57.9-2.7-111.5-42.7-158c-8.7,9.5-8.4,20.2-11.2,29.6c-11.5,38.2-19.3,79.6-46.4,109.2
			c-32.1,35-41.2,71.7-39.5,118.3c2.1,58.6-47.7,101.3-103,97.7c-77.3-5-103.5-33.3-98.7-106.8c0.4-6.9,2.8-14.3-7-17.1
			c-41.3-11.6-76.3-34.5-107.2-62.4c-6.8,4-6.2,9.1-7.1,13.6c-7.6,38.7-8.5,77.7-4.6,116.8c2.2,21.6-15.1,15.3-25.2,18.3
			c-13,3.8-12.7-6-13.9-15c-4.5-34.4-3.3-68.7,1.4-102.9c15.7-114.5,66.1-207.9,167.2-269c98.2-59.4,219.7-50.7,301.7,21.2
			c77.2,67.6,88.1,154.3,68.3,248.8C1770.8,1002.7,1752,1045.6,1729.4,1091.6z M1852.5,2140.8c24.4,0,44,0.1,63.5,0
			c123.5-0.7,247.1-1.3,370.1-14.7c16.6-1.8,28.2-7,38.3-21.7c48.9-70.8,96.8-142.1,139-217.1c52.2-92.8,100.1-187.3,120.7-293.3
			c20.1-103.3-7.4-173.1-87.9-219.1c-25.2-14.4-52-25.3-80-33c-170.2-46.4-339.2-28.9-507.9,9.5c-14.1,3.2-10.8,8.9-5.2,17.6
			c29.2,45.6,52.5,94.1,69.1,145.6c3.5,11,9.1,13.8,20.6,12.7c41.2-4.1,82.5-7.2,123.8-10.1c41.5-2.9,65.7,12.4,79.8,50.4
			c10.7,28.7,16,58.8,18.5,89.2c3.4,40.9,0.9,80.5-35.7,108.2c-9.2,7-3.6,14.1-1.7,20.9c11.9,42,13.8,84.8,9.1,127.9
			c-8.2,76-43.9,108.5-119.3,109c-40.7,0.3-81.3,0.1-122-0.1c-7.9,0-14.8-0.5-19.6,8.4C1905.3,2068.7,1881.4,2104.1,1852.5,2140.8z
			 M963.9,1970c9.6-18.2,10.7-33.8,5-50.3c-3.8-11-8.1-22.3-9.5-33.8c-4.6-38.6-29-63-58.5-83.7c-30-21-63.9-32.6-100-37.7
			c-87.6-12.5-175-3.8-262.1,4.5C344,1787.6,166.1,1942,119,2130.5c-44.4,177.6,28.9,314.4,201.3,376.1
			c91.3,32.6,185.3,33.7,280.1,23.9c98.6-10.2,171.6-61.5,226.8-141.5c6.2-9,9.3-17.8,6.6-28.4c-5.6-21.6-5.5-43.6-3.1-65.3
			c1.6-14.1-2.8-19.5-16.2-22.1c-50.6-9.7-100.7-10.4-151.2,1.5c-44.2,10.4-81.6,34.9-121.5,54.3c-56.2,27.4-103.2,11.9-130.8-44.3
			c-26.5-53.9-27.6-108.5,2.2-161.8c29.3-52.4,75.4-84.6,130.8-104.6c57-20.6,116.3-22.2,176-20.1c58.6,2.1,117,8.9,175.8,7.2
			c12.5-0.4,26,1.5,38.9-7.9c-38.3-38-81.7-63.1-129.3-82c-248.9-98.9-525.3,92.3-520.1,359.8c1.3,69.7,37,121.1,102,145.7
			c46.9,17.8,95.7,23.9,145.3,18c75.3-9,138.1-38.4,172.8-111.5c8.5-17.9,19.6-0.3,29.4,0.5c13.4,1.2,8.3,10.3,5.2,17.2
			c-23,50.8-61.1,87.2-111.8,108.6c-83.7,35.4-169.3,34.7-254,3.9c-70.4-25.6-112.7-76.4-125.2-150.9c-4.9-29.6-4.4-59.6-0.4-88.9
			c30.3-224.7,247.8-416.6,510.8-357C836.6,1878.2,904.3,1913.8,963.9,1970z M2080.8,2178.8c-28.2,0-56.3,0.2-84.5-0.1
			c-10.2-0.1-17.5,2-22.6,12.3c-31.7,63.9-59,129.5-71.4,200.1c-7.6,43.3,5.7,79.5,40.9,108.1c31.6,25.7,67.9,41.7,105.8,53.9
			c178.4,57.4,348.7,33.1,511.8-54.1c62.9-33.7,123.1-72.2,167.4-129.9c79.2-103.3,45.9-248.9-68.6-305.7
			c-12.6-6.3-22.2-6.4-34.5,0.6c-38.8,22.2-80,39.5-122.6,52.1c-22.5,6.7-30.4,15.5-29.4,39.9c2.1,50.2-23,85.1-69.1,99.7
			c-35.8,11.3-72.7,18.1-110.7,16.1c-55-3-96.9-34.2-110.5-85c-3.1-11.6-8-13-17.7-12.4C2137.1,2176.1,2109,2177.3,2080.8,2178.8z
			 M783.5,507.2c-51.7-1.3-97.7,1.9-143.5,8.2c-31.8,4.4-63.2,10.6-94.1,19.2C386,579.1,257.6,665.2,180.8,816.8
			c-54.5,107.6-69.4,219.8-31,336.2c10.9,33,26.3,63.9,57.3,83.3c41.8,26.3,82.2,14.1,102.1-31c6.3-14.3,11.6-29,16.3-43.9
			c35.4-112.2,96.6-208.1,184-286.6c49-44.1,101.3-84.3,166.1-102.7c74.9-21.3,145.6,0.7,161.9,95.4c3.2,18.4,7.6,36.5,12,54.7
			c6.7,28.1,23,40.5,52,40.8c22.1,0.2,41.1-7.4,58.1-21.4c26.4-22,42.5-50.5,48.7-83.5c12.9-67.9,18.6-136.4,8.7-205.3
			c-10.1-69.9-47.7-115.4-117.8-132.2C859.2,511,818.5,510,783.5,507.2z M1220,2117.4c-1-10.7-1.8-18.4-2.5-26.1
			c-7.2-79.2-5.3-157.8,14.8-235.2c41.2-158.6,138-278.1,270.7-367.8c245.6-166,518.6-231,813.1-206.1c72,6.1,141.8,24.2,204.9,61.8
			c71.8,42.7,108.9,105.4,107.9,189.8c-0.8,69.2-19.6,134.3-45.2,197.7c-51.5,127.6-124,243.5-200.8,357
			c-4.6,6.8-11.8,12.4-11.8,21.9c69.6-7.5,82.7-15,124.1-66.4c75.6-93.9,126.9-200.2,161.7-314.9c28.9-95.4,50.5-192.2,37.3-293.1
			c-13.9-105.9-65.2-180.1-182.2-198.1c-60.3-9.3-121-14.4-181.6-20.4c-124.6-12.5-248.5-7.7-371.5,14.3
			c-145.6,26-283,78.2-416.2,140.8c-282,132.6-398.6,398.4-391.4,666.6c1.2,44.2,15.7,66,56.2,74.4
			C1210.7,2114.3,1213.5,2115.4,1220,2117.4z M867.9,2315.6c0.3,20.2,3,38.8,9.6,56.5c27.7,74.2,86.1,114.1,156.7,141
			c15.4,5.8,13.4-6,14.8-12.8c12.8-60.5,40-113,84.7-156c127.2-122.6,326.3-91.2,398.3,59.5c19.9,41.6,28.2,86,34.3,130.9
			c1.9,13.9,6.5,17.2,19.2,13.9c30.4-8,59.4-19.1,85.4-37.3c57.9-40.7,83.4-95,71-166.1c-8.9-50.7-34.6-93-62.5-134.9
			c-14-21-29.5-28.8-55.3-28.4c-100.1,1.3-200.3,5.2-300.2-4.1c-91.3-8.5-176.8-32.9-246.7-96.1c-10.1-9.2-17.8-8.9-28.7-3.1
			c-29,15.6-57.1,32.5-82.4,53.6C908.5,2180.4,871.4,2239.8,867.9,2315.6z M999.8,1989.7c-25.1,47.7-67.6,56.4-114.3,55.7
			c-18-0.3-36-1.1-53.9-1.8c-57-2.4-113.9-8.9-171.1-6.5c-71.4,3-138,19-189.7,72.9c-44.5,46.3-52.8,109-22.2,161.7
			c18.9,32.7,40.7,39.5,74.2,23c10.5-5.2,21-10.5,31.1-16.4c85.6-49.7,176.7-64.7,273.2-41.9c11.7,2.8,16.7,0.5,21-10.4
			c26-65.8,73-113.8,131.3-151.7c18.2-11.9,37.1-22.7,55.9-34.2C1023.6,2023.4,1012.5,2007.6,999.8,1989.7z M1387.6,2558.1
			c36.9,0,81.4-0.2,125.9,0.2c11.8,0.1,17.2-2.6,14.9-15.9c-5.1-29.2-9.2-58.7-18-87.1c-38.5-124.1-164.1-180.8-282.9-127.5
			c-75.5,33.9-118.3,94.5-138.5,172.7c-7.3,28.2-6.5,28,22.9,33.8C1200.4,2551.7,1290.2,2554.1,1387.6,2558.1z M1463.5,957.1
			c70.2-0.2,126-33,160.5-95.5c21.3-38.6,31.8-81.1,42.1-123.6c2.7-10.9-0.8-17.3-10.6-22.7c-37.2-20.3-76.5-32.2-118.9-27.9
			c-111.4,11.2-182.5,76-228.4,173.8c-5.7,12.2-2.8,20.5,5.8,29C1355.4,931.5,1403.9,956.7,1463.5,957.1z M2050.3,1751.5
			c25.9,1.8,45.5,2,64.9-1.2c39.6-6.5,60.1-26,61.7-61.9c1.6-37.8-5.9-74.5-18.1-110.3c-5.3-15.4-16.1-22.7-32.1-21.5
			c-40.5,2.9-81,6.4-121.5,8.9c-13.7,0.9-16.9,5.7-13.5,19.1c9.8,38.8,12.6,78.5,14.5,118.4c0.8,16.2-7.4,38.3,3.3,46.8
			C2019.3,1757.7,2040.5,1751.5,2050.3,1751.5z M2023.6,1984.3c0,0.5,0,0.9,0,1.4c23.4-1.2,46.9-2.1,70.2-3.8
			c23.8-1.8,39-15.5,45.8-37.7c15-48.4,13.3-97.1,0.8-145.7c-1.8-6.8-4.4-12.4-12.4-10.5c-37.2,8.8-74.9,2-112.3,4.3
			c-9.4,0.6-14.5,4.1-15.5,13.5c-6.2,57.2-23,111.6-45,164.5c-4.6,11.2-0.6,14,9.7,14C1984.4,1984.2,2004,1984.3,2023.6,1984.3z
			 M501.6,937.3c-39.5,41.5-69.8,84.4-95,131.2c-1.4,2.7-3.2,5.7-3.2,8.6c-0.1,27,22.4,55.3,46.8,59.5c28.1,4.8,54.6-10.7,62.6-40.1
			C527.2,1043.7,517.6,992.1,501.6,937.3z M723.5,803.9c-44.1-0.3-49,5-45.4,47.7c0.9,10.7-0.1,21.7-0.3,32.5
			c-0.1,5.3-2,10.4,0.7,15.9c14,27.7,61.9,42.8,95,29.7c31.3-12.3,35-23.2,22.9-67C785,821.5,763.5,804.2,723.5,803.9z M2308,2233.7
			c29.2-2.2,57.9-6.5,85.3-15.9c28.1-9.6,42.6-33.4,42.4-63.3c-0.1-13-4.6-16.5-17-13.4c-59.1,15-119.2,24.8-180.1,28.2
			c-19.7,1.1-20.1,10-12.4,23.6C2244.2,2225.1,2275.4,2230.9,2308,2233.7z M636.6,831.6c-23.6,10.9-42,24.9-60.6,38.7
			c-42.3,31.3-42.2,31.5-29.3,81.7c0.2,0.8,0.4,1.5,0.6,2.3c8.4,34.2,17.2,37.4,46.9,16.3c10.2-7.3,18.7-16.3,25.6-26.9
			C642.3,909.5,640.5,872.1,636.6,831.6z M1572,998.4c-6.7-5.1,10.2-30-14.6-21.2c-32.1,11.4-64.1,19.6-98.2,19
			c-7.1-0.1-11.2,2.2-14.3,9.1c-7.6,17.1,2.5,52.7,20.3,58.6C1517.4,1081,1568.6,1074.2,1572,998.4z M1949.4,956.2
			c-12.9,39.5-31.7,72.6-62.5,104.8c45.5-8.1,84-15,127.3-22.8C1987.4,1012.5,1967.8,986.8,1949.4,956.2z"/>
		<path class="st0" d="M552.5,1370.9c1.7-14.8,2.8-29.4,5-44c18.9-128.2,164.9-250.2,316.4-221.9c105,19.6,162,112.2,136.6,216
			c-34.1,139.2-190.3,237.5-324.3,204.4c-21.4-5.3-40.6-15.5-60.3-25.2c-22.3,89.3-71.6,137.5-151.4,149.2
			c-21.4,3.1-42.4,1.2-62.4-6c-14.1-5.1-20.1-5.6-24.7,12.6c-21.8,84.9-121.2,148.5-204,132.7c-58.7-11.2-91.7-61.4-79.1-120.1
			c18.4-85.1,114.4-152.8,201-141c11.6,1.6,17.1,1.6,17.3-12.4c1.1-98.3,116.6-186.1,222-145.4
			C546.6,1370.6,549.1,1370.4,552.5,1370.9z M739,1492.2c106.7,0.1,210-80.5,234-182.6c18.8-80-24.2-148.7-103.9-165.8
			c-103.3-22.2-227,50.9-264.7,156.5C567.3,1404,629.1,1492.1,739,1492.2z M457,1611c68-0.4,129.3-59.3,128.4-123.5
			c-0.7-51.6-42.4-89.7-97.5-88.9c-66.2,1-127.2,59.7-127.3,122.6C360.7,1572.9,401.9,1611.4,457,1611z M210.5,1751.8
			c56.5-0.4,117.4-44,136.8-97.8c17.4-48.4-8.5-86.9-59.6-88.8c-55.7-2-120.2,42.1-140.6,96.1
			C127.3,1713.7,154.4,1752.3,210.5,1751.8z"/>
		<path class="st0" d="M2675.5,920.4c0,18.8-0.4,37.5,0.1,56.2c0.5,15.7-9,15.5-20.1,14.1c-10.2-1.3-21.8,2.3-20.3-16.4
			c4-49.8,6.3-99.7-6.6-149.1c-21.7-83-78.2-129.3-163.2-125.2c-90.9,4.4-179,24-251.8,82.9c-65.1,52.7-96.4,120.2-71.4,205.2
			c5.9,20-11.4,16.5-19.1,22.3c-10.9,8.2-14.7-0.6-17.9-9.4c-19.4-53-12.9-104.6,9.5-154.9c25.9-58.3,70.3-99.2,125.8-127.9
			c70.4-36.4,146-55.7,225.2-57.1c109.2-1.9,185.7,62.7,204.9,170.5C2675.8,861,2678.3,890.6,2675.5,920.4z"/>
		<path class="st0" d="M2372.7,792.4c37.8,3.9,76.5-5.8,112.1-28c9.8-6.1,19.8-7.4,27.3,2.2c7.7,9.8,6.4,20.3-2.9,29.2
			c-3.9,3.8-8,7.5-11.8,11.4c-30.5,32.2-30.6,43.8-0.4,76.2c27,29.1,21.3,59.3-16.4,73.3c-54.6,20.3-111.1,23.3-168.2,11.2
			c-13.7-2.9-26-8.6-28.9-23.7c-3-15.4,7.4-24.2,18.8-32.1c34.3-23.8,34.2-23.8,4.6-53.4c-5-4.9-10-10-13.9-15.7
			c-13.6-19.9-7.5-37.9,15.1-46.3C2327.8,789.5,2348.2,792.8,2372.7,792.4z M2340.1,830.6c38.9,59.1,39.1,62,7.2,103.4
			c43.8,2.3,84.9,1.1,128-17c-25.1-22.9-45.6-46.5-39.3-81.9c1.2-7-4-6.7-9.2-5.7C2398.9,834.8,2370.8,830.8,2340.1,830.6z"/>
		<path class="st0" d="M942.3,807.6c-1.1,11.3-3.4,28.4-4.3,45.6c-0.8,15.6-6.4,22.1-23.2,19.5c-16.1-2.5-19.7-8-16.4-24.6
			c4.7-23.6,6-48,3.3-72.4c-6.3-56.5-37.2-86.8-94.5-85.3c-86.9,2.2-167.8,28.5-242.9,71c-153.1,86.8-258,213-305.4,383.9
			c-5.5,20-15.3,13.9-27.3,12.4c-16.7-2.1-13.9-12-11-23.3C284,886.3,518.5,681.3,773,652.7c36.7-4.1,73.6-3.6,107.2,15.8
			C922.4,692.8,944.4,739.9,942.3,807.6z"/>
		<path class="st0" d="M871.5,1265.9c15.1,0.5,28.2,2.4,41.4,4c21.9,2.7,22.2,12.8,15.2,29.8c-4.4,10.6-8.3,13.2-19.9,9.9
			c-36.3-10.4-71.4-5.7-103.6,14.1c-39.9,24.5-57.5,70.6-44.6,115.5c3.4,11.8,7.7,24.1-8.1,28.9c-16.3,4.9-25.6-3-30.6-19.7
			c-25.2-83.5,39.4-173.5,131.1-181.5C859.3,1266.2,866.4,1266.2,871.5,1265.9z"/>
	</g>
</g>
</svg>
