<?xml version="1.0" encoding="utf-8"?>
<!-- Generator: Adobe Illustrator 23.0.0, SVG Export Plug-In . SVG Version: 6.00 Build 0)  -->
<svg version="1.0" xmlns="http://www.w3.org/2000/svg" xmlns:xlink="http://www.w3.org/1999/xlink" x="0px" y="0px"
	 viewBox="0 0 3000 3000" style="enable-background:new 0 0 3000 3000;" xml:space="preserve">
<style type="text/css">
	.st0{stroke:#000000;stroke-width:10;stroke-miterlimit:10;}
</style>
<g id="Layer_1">
</g>
<g id="Layer_2">
	<g>
		<path class="st0" d="M1750.4,605.7c154.8,2.2,309.6,1.9,464.1,15.6c251.4,22.3,455,132.9,611.7,328.6
			c110.2,137.7,147.2,299,130.1,471.7c-40.8,410.9-348.5,832-726.6,990.9c-259.3,109-526.9,136.3-800.6,56.9
			c-121.2-35.2-227-100.6-330.3-170.8c-68-46.2-138.1-88.4-219.6-106c-126.1-27.3-247.4-12.9-363.6,43.9
			c-39.8,19.5-79.5,39.4-122,52.8c-62.9,19.8-119.2,7.3-170.5-32.8c-54.4-42.6-87.3-100-112.2-162.8c-38.8-98.1-53.8-200.8-55-305.5
			c-2.8-232.8,50.9-449.6,186.5-642.3c79.7-113.3,182.1-202.5,302.4-269.7c214.9-119.9,440.5-212,686-247.2
			c143.1-20.5,287.3-22.1,431.5-23.4C1691.7,605.5,1721.1,605.7,1750.4,605.7z M1755.2,650.7c-52.8,0-98.2-0.6-143.6,0.1
			c-145.9,2.3-292,5.1-436,32.4c-209,39.5-403,120.1-589.2,220.3C491.7,954.3,405.3,1018,336,1100.5
			c-219.4,261.2-275.3,562.6-209.8,891c15.8,79.2,46.8,153.4,104.4,212.8c51.9,53.5,109.9,63.4,177.7,32.7
			c29.9-13.6,59.6-27.8,89.4-41.7c100.4-46.8,204.9-67.7,316.2-58.1c105.2,9.1,197.3,50.1,283.8,106.9c79.5,52.2,157,108,245,145.4
			c288.1,122.5,575.3,96.9,859.4-12.5c108.4-41.7,204.2-107.8,290.5-186.1c218-197.7,369.2-434.5,414.4-729.6
			c32.5-212.7-22.6-399.7-176.9-554.7c-165.9-166.7-369.4-238.6-600.5-248.2C2002.3,653.3,1875,653.8,1755.2,650.7z"/>
		<path class="st0" d="M1660,2179.7c-237.9-10.5-480.4-83.6-703.4-221.5c-59.7-36.9-119.4-74.3-189.8-88.4
			c-50.6-10.1-101.4-10.3-150.1,7.2c-98,35.3-132.1-20.2-142.6-91.6c-15.8-107.8,9-210.7,43.6-311.3
			c106.4-309.7,323.7-505.2,631-605.7c64.9-21.2,133.7-18.7,201-21.8c185.7-8.4,371.5-15.7,557.4-20.5
			c109.1-2.8,219.4-13.3,326.6,14.8c125.8,32.9,235.7,95.9,320.6,195.7c101.4,119.3,114.7,258.9,80.2,405.2
			c-44.2,187.5-147,341.3-284,473.6c-126.3,121.9-273.7,205.8-446.7,241.6C1831.4,2172.1,1757.9,2178.3,1660,2179.7z M2263.1,1932.9
			c-0.8-8.1-6.7-11.4-10.8-15.8c-25.3-26.3-50.7-52.5-76.2-78.6c-296.4-302.8-593.3-605-888.5-909c-27.6-28.4-54.1-34.9-89.2-26.9
			c-105.4,23.8-200,71.6-290.8,128.6c-19.3,12.1-3.4,18.5,3.1,25.3c79.1,83.2,158.5,166.2,237.9,249.1
			c107.7,112.5,215.7,224.8,323.3,337.4c143.9,150.5,287.7,301.1,431.4,451.9c8.7,9.2,16.8,13.9,30.1,10.3
			c117.4-32.1,223.9-85.4,318.6-162.1C2255.9,1939.7,2259.6,1936,2263.1,1932.9z M2606.3,1294.4c2-108.7-50.3-208.5-145.4-289.4
			c-21.8-18.6-35.7-18.6-53.7,2.1c-11.6,13.4-25.8,24.5-39,36.3c-155.3,139.7-310.5,279.6-466.3,418.8
			c-14.1,12.6-13.5,19.4-0.5,32.5c126.8,128.6,253,257.6,378.7,387.3c14.5,15,23.2,18.6,39.8,2.3c84.4-83,155.8-175.4,208.9-281.4
			C2574.5,1511.5,2605.9,1415.9,2606.3,1294.4z M512.8,1712c1,39.3,2.5,66.9,11.2,93.4c12.2,37.3,26.7,45.7,63.6,33.2
			c75-25.5,150-26.1,225.2-2.9c10.5,3.2,17.5,3.2,25.9-5c125.8-121.9,251.9-243.4,378.2-364.9c8.6-8.2,10.7-13.2,1.1-23.2
			c-115.9-120.4-231.4-241.3-346.5-362.4c-10.2-10.8-17.1-11.2-28.4-2c-45.6,37.2-88.5,77.1-125.3,123.1
			C595.2,1354.2,527,1528.3,512.8,1712z M2050.8,869.3c-15.6,3.5-45.7-11.3-71,8.5c-123.9,96.8-247.5,194.1-371.7,290.5
			c-13.3,10.3-11.1,15.6-0.9,25.9c77.5,78.5,154.8,157.1,231.2,236.6c12.3,12.7,19.6,11.9,31.8,0.9
			c168.8-152.6,337.8-305,507.3-456.8c16.2-14.5,11.9-19.4-4-28.7C2277.3,889.5,2173.8,863.7,2050.8,869.3z M873.7,1859.4
			c56.2,28.5,105.7,59.9,155.5,90.9c58.2,36.3,121.7,60.9,184.5,87c10.7,4.5,18.7,5.6,28.5-3.6c91.4-86,183.2-171.5,275.4-256.6
			c9-8.3,8.8-12.4,0.9-20.6c-82.7-86-165.1-172.1-247.2-258.6c-8.7-9.2-14.3-10-23.4-0.6c-18.5,19.2-38.3,37.2-57.4,55.8
			C1085.4,1654.6,980.5,1756,873.7,1859.4z M1279,2060.2c185.7,63.5,369.9,91.7,560.4,62.5c6.6-1,16.3,1.7,17.9-7
			c0.7-4.2-5.9-10.3-10-14.6c-90.9-95.2-182.2-190-272.7-285.6c-11.8-12.4-18.8-13.3-31.5-1.3c-69.1,65.4-139.1,129.9-208.8,194.7
			C1316.9,2025.1,1299.5,2041.3,1279,2060.2z M1312.8,892.5c81.6,83.6,157.2,160,231.3,237.8c14.8,15.5,23.8,13.6,38.7,1.7
			c73.7-58.7,148.1-116.3,222.2-174.5c34.4-27,68.6-54.2,102.9-81.3c-0.8-1.9-1.7-3.8-2.5-5.7C1710.4,877.8,1515.4,885,1312.8,892.5
			z"/>
	</g>
</g>
</svg>
