<?xml version="1.0" encoding="utf-8"?>
<!-- Generator: Adobe Illustrator 23.0.0, SVG Export Plug-In . SVG Version: 6.00 Build 0)  -->
<svg version="1.0" xmlns="http://www.w3.org/2000/svg" xmlns:xlink="http://www.w3.org/1999/xlink" x="0px" y="0px"
	 viewBox="0 0 3000 3000" style="enable-background:new 0 0 3000 3000;" xml:space="preserve">
<style type="text/css">
	.st0{stroke:#000000;stroke-width:10;stroke-miterlimit:10;}
</style>
<g id="Layer_1">
</g>
<g id="Layer_2">
	<g>
		<path class="st0" d="M2718.3,1866.7c17.4,4.3,30.6,6.7,43.3,10.8c77.9,25.5,113.1,78.8,114.8,177.3c0.7,37.6-1.8,75.4-4.8,113
			c-2.6,32.2-17.6,60-41.8,80.7c-15.7,13.5-16,26.3-10.8,43.6c15,50.1,23.5,101,18.5,153.7c-9.2,97.1-58.7,167.3-146.1,207.2
			c-87.6,40-174.7,34.5-255.3-21.7c-16.1-11.2-26.1-14.2-44.7-2.1c-44.2,28.7-91,25.2-134.9-2.9c-13.6-8.7-22.7-10.9-37.4-1.4
			c-47.2,30.6-99.3,33.2-152.4,19.1c-13.4-3.5-22.6-1.7-34.1,6.5c-45.8,32.9-93.9,38.3-142.5,5.4c-8.2-5.6-14.1-5.8-22.5-0.8
			c-48.5,28.9-96,24.4-141.8-6.1c-9.4-6.3-16.9-7.4-27.5-3.2c-42.5,16.9-84.6,14.8-125.9-5c-8.2-3.9-15.9-8.5-26.1-4.3
			c-81.2,33.7-161.3,17.4-240.6-7.3c-16.1-5-27.1-5-40.9,5.7c-37.6,29.3-82.7,39-129,44.5c-8.3,1-18,0.5-24.3,4.7
			c-28.7,19.2-60.7,16.2-92.3,15.3c-54.1-1.6-106.5,11.9-159.8,16.8c-95.7,8.8-190.9,5.8-285.7-9.1c-21-3.3-41.3-2-62.3-0.2
			c-49.8,4.2-100,5.8-132.1-44.8c-7.4-11.6-18.1-8.9-29-4.3c-20.9,8.9-42.5,15-65.2,17.6c-70.1,8-122-18.8-155.2-81.8
			c-31-58.9-38.5-122.7-34.9-188c3.5-63.1,16-124.5,38.2-183.8c3.2-8.4,6.8-16.5,3.2-26.5c-30.5-84.1-20.1-168.3,1.8-252
			c4.4-16.8,5.7-31.5-0.7-48.4c-18-47.5-15.5-97.3-12.1-146.7c3.5-50.2,10.3-100,21.7-149.1c2.1-9.3,2.8-17.9-2.8-26.5
			c-29.2-45.4-35.4-97.1-39.5-149c-8.5-107-13.1-214.2-12.3-321.6c0.1-10.9,0.9-22-4.4-32c-26.7-50.4-28-104.9-23.9-159.5
			c6.7-87.1,22.7-172.6,49.3-256c38.9-122,119.1-201.9,241.5-238.3C531,364,709.9,335.5,893.7,354.7
			c128.7,13.5,252.9,41.8,359.8,120.8c4,3,7.7,6.5,11.9,9.3c13,8.6,21.4,30.2,35.5,27.8c11.3-2,19.3-21.4,29.3-32.6
			c111.2-124.7,247.2-201.2,416.4-211.6c234-14.3,467.6-6.6,700.8,16.5c73.8,7.3,144.6,26.7,211.9,58.9
			c144,68.9,236.2,174.4,251.6,339.6c14.1,150.1,34.4,299.7,31.4,451c-3.4,174.2-18.5,346.4-79.4,511.6
			C2832.2,1729.4,2795.6,1808.7,2718.3,1866.7z M2544.3,872.8c-10.7-32.5-28.3-58.6-50.4-81.8c-67.4-70.8-149.8-114.3-245.5-133
			c-21-4.1-37.6-5.2-41.5,24.7c-3.7,28.5-19.5,53.5-40.5,73.7c-12.6,12.2-17.2,25.6-15.2,42.9c4.4,38.4-2.4,74.9-18.9,110
			c-16.2,34.6-41.4,56.6-80.6,59c-15.5,0.9-21.4,8.3-23.7,22.8c-4.8,29.8-9.9,59.5-16.6,88.9c-10.5,45.8-34.3,81.8-80.1,99
			c-11.1,4.2-15.2,9.7-16.1,21.6c-2.1,27.1-15.4,49-36,66.8c-22.6,19.5-23.8,27.5-7.8,52.8c5.3,8.5,12,16.2,17.3,24.7
			c21.1,34.3,34.1,70.7,29,111.9c-1.5,12-3.2,20.7-19.5,17.5c-13.7-2.6-23.1-3.8-21-22.4c3.9-33.9-6.7-64.4-27.3-91.6
			c-10.6-14-19.3-29.2-25.4-45.9c-10.1-27.6-5.7-51,17-70.2c11-9.3,19.5-20.3,27-32.7c10.5-17.5,8.8-27.5-13.1-31
			c-29.6-4.7-47.2-23.1-56.3-50.9c-6.8-20.7-15-40.9-20.7-61.9c-5.2-19-15.8-27.8-35.6-28.3c-33.5-0.8-53.6-19.3-64.1-50.5
			c-12.3-36.5-22.7-73.5-29.6-111.4c-2.3-12.4-3.9-26.2-14.9-33.5c-20.7-13.7-39.4-30-58.3-47.1c-6.3,15.4-7.4,28.6-7.8,42.2
			c-3.2,103.1-6.5,206.2-10.3,309.2c-1.3,35.2-17.5,60.5-52.2,71.9c-30.2,9.9-60.1,20.5-90.5,29.5c-41.7,12.3-81.4,5.8-118.2-16.7
			c-16.3-9.9-31.4-21.8-47.9-33.3c-1.9,4-3.7,6.7-4.6,9.7c-34.4,117-51.4,235.9-32.3,357.4c21.2,135.2,90.5,231.2,229.2,264.7
			c95,23,192.3,25.8,289.5,29.1c253.4,8.6,506.3,1.7,758.7-21.7c15.4-1.4,22.6-6.1,20.3-23.1c-3.8-27.4-6.8-54.9-8.4-82.5
			c-0.9-15.8-6.4-18.3-21.7-17.1c-63.8,5.4-121.8-8.4-166.8-57.9c-8.9-9.8-18.3-9.6-29.5-5.9c-19.6,6.6-39.3,6.1-59.3,0.4
			c-69-19.6-117.9-85.5-121.6-164.8c-0.5-11.7-0.6-22.9-9-32.9c-47.2-56.1-48.4-117.5-16.3-180.1c7.9-15.4,6.5-25.1-1.7-38
			c-11.6-18.4-13.9-38.7-11.5-60.4c6.6-60,39.9-99.6,92.4-125.4c12.3-6,22.2-12.2,27.6-26.7c31.2-83.8,67-107.9,155.9-101
			c37.9,3,70.7,7.7,103.2-23.7C2467.7,876.3,2506.8,873.1,2544.3,872.8z M645.8,1068.5c36.3,13.8,50.5,8,62.5-22.8
			c20.9-53.7,35.6-109.9,66.9-159.4c9.4-14.8,20.3-27.1,37.8-17c18.5,10.7,15.1,26.9,4.5,43c-28.9,43.9-42.6,94.3-60.3,143.1
			c-4.2,11.7-0.2,14.8,9.9,16.1c29.2,3.8,58.5,5.3,87.5-0.5c24.5-4.9,39-21.1,44.8-45.5c9.4-39,19.8-77.8,29-116.9
			c4.4-18.9,16.2-24.5,33.3-20.6c18.8,4.3,19,17.5,14.9,33.3c-9.6,36.4-17.9,73.2-27.5,109.6c-3.8,14.5,1.7,18.2,14.9,16.9
			c21-2.1,33.7-16.2,34.9-41.9c1.1-23.4,0.9-46.9,0.7-70.4c-0.2-18.7,6.8-31.8,26.9-31.8c20,0,23.8,13.9,23.7,31.1
			c-0.2,31-0.3,62-4.9,92.8c-1.8,12.4,0.6,19.8,15.9,21.9c32.5,4.4,65.1,5.9,97.7,7.8c13.3,0.8,16.8-3.4,15.4-17.3
			c-16-162.6,11.1-317.2,88.7-461.7c7.5-13.9,5.8-21.6-4.4-32c-32.7-33.5-70.4-59.5-112.7-78.7c-92-41.6-189.4-60.9-289.5-67.5
			c-158.2-10.5-312.1,14.2-464.3,55.7c-113.4,30.9-193.6,95.6-230.8,209.4c-24.9,76-39.2,154.1-46.4,233.5
			c-3.8,42.4-6.4,84.8,8,126.9c8,23.5,21.4,29.3,43.4,26.5c42.4-5.4,74.8-27.7,102.1-58.8c31.7-36.1,53.8-78.7,79.1-119.1
			c8.7-13.8,19.3-18.4,33.5-9.6c14.4,8.9,18.4,20.1,8.3,35.7c-27.3,42.1-50.2,87.1-84.6,124.5c-17.1,18.6-16.3,23.7,7.2,33.5
			c38.9,16.2,80.1,23.9,121.7,29.3c104.2,13.5,204-48.9,236.4-147.1c5.8-17.7,8.5-35.8,9.8-54.2c1.2-18,9.9-28.6,28.7-27
			c17.6,1.5,20.9,14.2,19.7,29.1c-0.9,10.8-1.5,21.7-3.2,32.4C715.9,978.2,688.5,1026.2,645.8,1068.5z M785.4,1678
			c78.7,0,157.5,1.3,236.2-0.5c50.3-1.1,99.7-10.5,148.4-24.1c13.9-3.9,16.1-8.6,12.4-22.6c-20.6-76.8-25.4-154.8-18-234.1
			c6.3-67,19-132.6,38.2-196.7c8.4-28.2,9.5-52.7-5.7-78.9c-6.8-11.6-11.9-17.5-26-16.9c-31.8,1.2-63.7,0.6-95.3-4.6
			c-62.6-10.3-125.3-12.8-185.6,10.2c-47.5,18.1-94.5,19.4-142.6,5.9c-13.3-3.7-25.5-3.4-38.9,2.1c-30.2,12.6-61.3,10.8-89.6-5.2
			c-16.8-9.5-29.7-7.1-46.7-0.6c-107.8,41.1-211.5,28.9-310.2-29.1c-9.8-5.8-16.6-8.2-26.9-2.3c-19.8,11.2-40.9,20.9-64.1,19.1
			c-25-2-31.9,8.5-31.1,32.1c3.4,102.2,8.8,204.2,15.6,306.2c6.5,97.4,53.9,162.5,145.8,196.3c40.2,14.8,81,26.5,123.1,33.8
			C544.1,1688.9,664.7,1686.3,785.4,1678z M2745.4,1778.6c23.1-25,35-48.5,45.7-72.5c70.3-157.5,101.3-323.4,105.8-495
			c4.6-176.4-4.8-351.8-30-526.5c-11.5-79.7-32.3-153.9-93.8-211c-60-55.7-128.3-96-206.7-120c-89.1-27.2-180.7-34.2-273-36.5
			c-175.9-4.4-351.8-19.1-527.9-7.9c-186.3,11.8-334.3,94.2-440.1,249.5c-80.7,118.5-110.2,251.8-113.3,392.5
			c-1.1,48.6-0.7,97.6,18.8,143.5c23.5,55.5,59.1,99.1,119.8,116.6c5.2,1.5,11.9,6.4,15.9,0.3c2-3-0.3-9.6-1.9-14.1
			c-25.6-70.5-40.8-143.1-44.5-218.1c-10.5-210.8,73.5-379.9,278-473.8c81.8-37.6,168.9-53.4,258.3-56.8
			c164.2-6.3,328.2-12.1,491,21.1c204.1,41.7,359.5,198.2,393.7,403.9c16.4,98.4,20.2,198.3,27,297.7
			c11.8,171,12.8,341.7-11.4,511.9C2752.4,1712.8,2749.6,1742.3,2745.4,1778.6z M2731.2,1324.4c-3.9-130.6-1.6-261.6-20.6-391.4
			c-14.3-97.3-41.1-190.2-106.4-267c-97.3-114.4-227-163.4-371.7-174.7c-125.4-9.7-251.4-6.6-377.1-2.3
			c-67.6,2.3-132.9,15.3-196.7,37.1C1504,579.1,1402.1,680.7,1369,843.9c-21.5,106.1-7.6,210.2,24.2,312.5
			c17.5,56.1,18.1,55.9,74.3,36.2c6.3-2.2,12.5-4.8,18.9-6.8c21.2-6.7,30.8-21.9,31.7-43.3c2.5-59.4,7.5-118.8,3.6-178.4
			c-3.1-47.8,0.3-95.4,6.4-142.9c11.6-90.5,60-147.2,147.9-169.2c164.3-41.3,330.5-64.4,500.2-45.3
			c105.5,11.8,205.5,39.5,291.5,105.5c102.4,78.6,149.8,181.2,138.8,310.8c-7,82.7-11.2,165.6-16.8,248.4
			c-8.2,121.2-16.5,242.4-33.8,362.8c-5.6,38.9-9,78.2-12.1,117.4c-2.5,30.7,4.8,59.9,18.6,87.4c10,19.9,24.2,38.4,47.9,31.2
			c31.8-9.7,75.1-15.7,83.4-51c16.4-69.7,23.5-141.8,31.8-213.2C2736.5,1512.3,2734.1,1418.3,2731.2,1324.4z M2041.8,2067.5
			c-182.7-3.6-365.4-7.2-548.1-10.7c-74.6-1.4-149.2-2.2-223.8-4.2c-16-0.4-23.2,3.4-22.2,20.6c1.2,20-0.4,40.3,0.9,60.3
			c4.9,78.8,50.6,122.8,129.7,122.9c443.5,0.4,887.1,0.3,1330.6,0c67.2,0,114.2-43.2,122.1-109.4c7.9-65.7,7.9-65.7-57.4-66.6
			c-2.8,0-5,0-5,0C2749.2,2080.7,2534.8,2077,2041.8,2067.5z M2041.3,2033.2c107.3,0,214.6-1,321.8,0.2
			c149.2,1.7,298.4,4.7,447.6,8.1c19.3,0.4,23.1-6.6,20.4-23.1c-7.2-43.5-28.5-76.1-69.7-94.7c-22.9-10.4-47-11-71.4-11
			c-435.2,0-870.4-0.1-1305.5,0c-11.7,0-23.6-0.2-35.1,1.8c-39.5,6.8-69.9,27.3-88,63.7c-7.4,14.9-10.6,23.2-7.7,27.9
			c5.4,8.8,24.4,6.4,28.2,6C1315.3,2008.7,1607.2,2017.5,2041.3,2033.2z M546,2237.9c-3.8-204.5-6.7-345.3-8.9-486
			c-0.3-17.3-6.8-23-23.7-24.2c-30.9-2.2-61.7-6.4-92.3-10.8c-34.7-5-34.7-5.5-34.5,29.5c1.4,254,2.8,507.9,4.6,761.9
			c0.2,27.6,1.8,55.4,5.3,82.7c6.1,48.4,40.7,79.4,87.4,80.9c36.1,1.1,53.1-12.7,58.2-47.9c1.9-13.2,3.8-26.6,3.8-40
			C546.2,2447.4,546,2310.7,546,2237.9z M1100.2,2218.2c-3.9-190.1-7.1-332.4-9.5-474.8c-0.3-17.6-6.1-24-24-21.9
			c-28.3,3.3-56.7,5.5-85.1,6.6c-36.1,1.5-37,1.5-36.7,37c2.1,244.6,4.2,489.2,6.5,733.7c0.3,27.6,1.1,55.3,3.3,82.8
			c1.7,21,7,41.2,23.7,56.5c24,22,67.9,31.7,93.7,19.4c30.4-14.5,27.7-44,27.8-70C1100.7,2448.5,1100.2,2309.4,1100.2,2218.2z
			 M2591.7,2296.5c-56.9,0-102.1,0.4-147.3-0.2c-15.5-0.2-24.6,5.9-31.1,19.9c-19.1,41-27.6,83.8-25.8,129
			c3.4,88.2,49.3,153.4,127.3,179.9c79.2,26.8,180.8-0.7,230.3-64c58.8-75.3,63.7-158.7,35.2-247c-6.1-18.9-16.3-25.4-34.9-22.3
			C2690.5,2300.9,2635.1,2294.8,2591.7,2296.5z M1635.9,2374.1c-1.5-15.3-2.4-36.1-5.1-56.9c-2.3-18.1-10.5-20.9-26.3-20.7
			c-73.7,0.7-147.3,0.6-221,0.2c-33.6-0.2-67.6-2.2-96.3-22.2c-13.7-9.6-18.3-3.5-23.9,7.3c-28.9,55.9-47.2,114.5-41.9,178.2
			c5,60.2,33.7,104.1,91.6,126.2c48.2,18.4,98.4,26.9,149.8,26c51.5-0.9,94.8-19.6,123.6-64.2
			C1619.5,2496.8,1637.1,2440.9,1635.9,2374.1z M2023.9,2296.9c-109.8,0-219.5,0.4-329.3-0.4c-17.6-0.1-23.5,4.5-21.6,22.4
			c2.5,23.3,1.9,46.8,3.6,70.2c2.8,39,15.3,46.3,52.7,31.5c5.4-2.1,10.5-5.1,15.9-7.4c42.8-17.8,83.4-17.3,118.8,16.2
			c9.6,9.1,13.4,6,21.5-1.6c44-41.9,105-42,148.6-0.2c8.6,8.2,12.7,11.6,23.9,2.5c43.1-34.8,94.6-45,143.8-23.3
			c34.5,15.2,60.9,7.2,94.2,2.8c48.5-6.3,60.5-32.5,67.1-71c1.1-6.6,2.9-13.2,5.5-19.3c7.9-18.8,1.7-23.1-17.9-22.9
			C2241.8,2297.4,2132.9,2296.9,2023.9,2296.9z M134.7,2416.8c0.2,65.3,7.1,116.9,34.4,164.3c21.7,37.7,53.6,56.2,96.8,55.5
			c26.3-0.4,50.9-9.1,75.3-17.7c10.6-3.7,15-12,15.3-23.4c0.5-20.2-10-29.3-28.2-35.5c-68.7-23.4-107.1-78.6-103.1-145.8
			c3.6-60.7,38.1-95.1,113.7-112.2c9.7-2.2,12-6.8,12-15.4c-0.1-9.4-4.5-13.9-13.6-14.1c-5-0.1-10.1-0.1-15.1,0.3
			c-49.2,3.1-97.2-0.2-140.3-27.6c-11.7-7.4-13.8-0.1-16.8,8.8C145.8,2310.7,135.3,2368.9,134.7,2416.8z M942.1,2664.1
			c-20.9-33.9-29.6-68.5-29.9-105.1c-0.2-18.9-11.3-21.1-26.6-20.8c-92.1,2-184.1,4.2-276.2,4.6c-21.4,0.1-25.3,8.9-24.5,27.1
			c1.1,26.7,1.2,53.8-7,79.6c-4.9,15.4,1,17.8,14.6,19.8c76.5,11.4,153.4,13.1,230.4,9.2C861.1,2676.8,899.4,2672.7,942.1,2664.1z
			 M2513.4,1119.7c8.5,0,20.3-0.9,31.9,0.2c15.9,1.6,15.6-8.3,14.9-18.9c-0.6-9.9,4.2-21.7-14.2-22.5c-87-3.9-164.2,18.4-226,82.5
			c-80.3,83.2-80.2,170.6-1.4,255.1c54,58,123,81.2,199,90.3c13.4,1.6,15.8-5.6,16.6-15.7c1.4-17.5,1.4-35.3,4.6-52.5
			c3-16.4-3.8-20.7-18.2-21.7c-17.5-1.2-35.2-2.4-52.3-5.9c-89-18.2-141.8-99.5-118.9-183.4
			C2366.9,1162.4,2428.5,1111,2513.4,1119.7z M745.8,2216.4c32.6,0,65.2,0,97.9,0c65.8,0,64.9,0,65.7-65.4c0.3-22.6-8-29-29.1-28.7
			c-76.1,0.8-152.2,0.5-228.4,0.4c-71.6,0-71-0.1-70.1,71.2c0.2,17.9,6.4,23.1,23.5,22.7C652.1,2215.8,699,2216.4,745.8,2216.4z
			 M2555.4,1213.3c2.8-48.5-0.9-54.2-55.4-55.6c-6.6-0.2-13.3,0.7-20,1.3c-60.5,4.9-107.5,71.9-93.1,130.9
			c13.9,57.1,81.6,93.9,147.8,85.3c10.6-1.4,10.4-8.9,10.9-16.6C2548.8,1310.2,2552.1,1261.8,2555.4,1213.3z M303.4,1687.8
			c-41.9-17.5-78.7-33.4-110.3-58.8c-9-7.2-11.4-0.8-12.6,6.8c-10.8,66.2-21.5,132.7-14.7,200c7.7,76.9,37.2,110.4,106.7,121.8
			c18.8,3.1,38.4,1.6,57.7,1.9c5.9,0.1,12.8-1.1,14.7-7.6c5.7-19.7,7.3-40.6,0.3-59.5c-5.8-15.7-23.2-8.8-35.8-9.6
			c-26-1.7-49.8-6.6-64.6-31.4C210.4,1793.3,236.4,1714,303.4,1687.8z M1876,849.1c6.1-18.9-5.4-27.6-26.2-31.5
			c-14.6-2.7-28.9-8.2-42.9-13.3c-11.6-4.3-19.8-2.3-28.8,6.9c-20.2,20.8-45.2,35-73.6,40.4c-15.2,2.9-16.8,10-15.5,22.2
			c3.4,31.8,11.6,62.2,23.7,91.7c13.7,33.2,33.3,43.3,68.7,36.4c26.9-5.3,47.5-18.3,61.7-42.4C1862.8,926.4,1874.6,891.4,1876,849.1
			z M2016.3,928.1c53.9,0.4,71.1-11.3,86.3-51.8c6.8-18.2,9.2-37.1,9.7-56.6c0.4-16.5-1.3-24.2-22.1-19.4
			c-28.7,6.6-59.6,6.8-85.6-8.8c-21.1-12.7-37.2-11.6-54.5,4.1c-3.6,3.3-8.5,5.4-13,7.5c-15.5,7.1-22.6,18.7-21.4,35.9
			c1.3,17.6-1.2,35.1-4.4,52.4c-3,16.6,1,27.1,20.9,28.4C1963.8,922,1995.4,926,2016.3,928.1z M2328.2,1514.2
			c10.9-36.6-20.4-50.2-39.4-71.1c-11.2-12.4-19.6-13.3-32.7-1.1c-26.4,24.5-57.7,40.4-95,39.5c-14.4-0.4-16.7,6.2-15.7,18.3
			c2.9,35.2,18,64.4,43.6,87.8c24.5,22.4,53.1,37.4,86.8,24.4c34.2-13.1,46.6-43.6,52.2-77.2
			C2329.1,1528.2,2328.2,1521.4,2328.2,1514.2z M1986.9,990.5c2.5-12.2-2.6-22.1-23.4-23.2c-18.2-1-36.4-5.4-54.1-10
			c-12.9-3.4-19.4-0.1-25.6,11.6c-10.2,19.1-23.3,36.3-39,51.8c-10.2,10.1-32.6,7.9-32,25.8c0.4,14.2,9.2,28.3,14.4,42.3
			c3.8,10.1,7.9,20.2,11.8,30.3c3.1,8.1,7.9,14.8,15.6,18.9c32.8,17.3,79.8,4.7,99.9-27C1976.6,1076.1,1983.5,1036.8,1986.9,990.5z
			 M2222.6,2525.6c-1.5-12.4-3.6-33.2-6.9-53.9c-2.2-13.7-8-25.8-23.4-29.5c-32.9-8-65.1-6.7-95.1,10c-16.7,9.3-34.4,20.7-30.1,44
			c5.4,29.2,4.8,58.4,4.4,87.7c-0.2,13.4,5.4,19.2,18.3,22c29.6,6.4,58,2.6,86.3-6.8C2210.3,2587.6,2223,2570.2,2222.6,2525.6z
			 M2452.2,1677.8c34.6,0.7,56.8-10.2,61.4-32.1c5.3-25.2,7.3-51.2,11.1-76.7c1.8-12-2-18.4-14.4-21.3
			c-40.6-9.5-81.1-19.8-121.5-30.1c-14.4-3.7-19.6,1.7-20.4,15.9c-1.3,25.5-8.4,49.5-23.5,70.3c-9.8,13.6-7,24,4.6,34.9
			C2379.2,1667,2415.8,1675.9,2452.2,1677.8z M1905.5,2536c0,0,0.1,0,0.1,0c0,14.2,1.1,28.5-0.2,42.6c-4.9,52.7,33.1,60.5,67.6,53.9
			c29.5-5.6,50.4-24.5,57.8-53.3c11.2-43.6-1.9-84.6-24.5-121.4c-13.5-22-44.3-26.4-70.5-16.5c-24.4,9.2-31.2,28-30.4,51.9
			C1905.9,2507.5,1905.5,2521.8,1905.5,2536z M2399.5,1022.3c1.7-42.9,1.2-47.5-15-52.2c-31.4-9.2-63.5-15.4-96.2-6.2
			c-55.8,15.7-77.1,73.5-44.1,119.6c8.8,12.2,18.3,23.9,26.7,36.4c6.4,9.5,12.4,11.3,22.5,4.5c22.9-15.3,45.9-30.8,70.3-43.4
			C2390.4,1067.1,2406.6,1049.4,2399.5,1022.3z M1797,2630.2c30.3,0.2,52.8-4.2,61.1-30.2c7.1-22.2,12.2-45.4,11.9-68.9
			c-0.6-56.9-50.9-114.8-120.3-76.1c-9,5-12.7,9.5-10,19c9.2,32.5,6,65.3-2.2,96.8c-6.8,26.2,3.2,39.4,24.9,49.5
			C1775.5,2626.5,1788.9,2630.3,1797,2630.2z M177.4,1959.7c-18.3,46.9-23.5,130.9-13.5,190.8c6,35.8,26,59.2,59.7,70.9
			c31.2,10.8,63.5,15.1,96.5,12.5c13.3-1,31.2,2.9,30.3-19.7c-0.9-22.4-18.7-12-28.7-12.5c-59.5-3.2-105.5-38.5-119.9-93.6
			c-12.5-48,7.9-82.5,56-95.2c24.4-6.5,48.2-0.6,72.3,1.8c6.6,0.7,17.1,5.5,17.1-7c0-9.3-9.3-7.7-15.7-7.4
			C276.1,2002.2,222.9,1995.9,177.4,1959.7z M2148.5,1442.1c37.9-0.8,60-13,80.5-29.8c14.1-11.6,15.4-23.9,12.1-41.8
			c-10.3-55.6-36.9-90-97.9-87.3c-0.8,0-1.6-0.4-2.4-0.7c-13.3-5.2-22.3-0.6-28.6,11.9c-20.3,39.9-22.5,79.8,0,119.5
			C2122.4,1431.6,2137.4,1442.6,2148.5,1442.1z M2103.4,1190c-0.5,20.5,8.1,35.6,26.9,44.2c22.2,10.1,46,15.2,69.6,20.5
			c11.4,2.6,21-1.9,26-14.2c7.4-18.6,15.4-37,23.7-55.2c4.6-10,4.9-19.2-1.9-28.3c-15.5-20.8-30.9-41.6-46.2-62.5
			c-7.6-10.4-16.2-11.8-28.3-6.8C2135,1103.3,2103.6,1148.6,2103.4,1190z M1163,1914.5c37.4,4.2,75.3,25.3,106.9-13
			c3.5-4.3,9.5-6.7,14.5-9.7c28.1-16.6,32.1-64.4,6.8-85.4c-22.6-18.9-42.5-40.2-58.7-64.8c-10-15.2-16.4-38.5-30.2-44.1
			c-13.7-5.6-34.6,6.3-52.2,10.9c-7.3,1.9-18.7-1.3-19,11.2c-0.2,11,10.6,8.9,16.9,11.2c44.4,16.5,63.9,43,64.5,87.9
			C1213,1859,1200.9,1892.5,1163,1914.5z M1681.1,813.6c57.5-0.5,118.2-72.9,110.1-130.5c-1.6-11.4-6.1-14.1-16.2-11.9
			c-50.5,11.2-100.7,23.4-148.7,43.2c-13,5.4-22.5,14.9-21.4,30.7C1607.4,777,1648.6,813.9,1681.1,813.6z M1870.7,781.2
			c5.2-0.4,7.7-0.5,10.2-0.8c55.1-6.9,114.6-74.8,115-130.3c0.1-13.8-9.5-9.3-15.6-8.7c-44,4.6-88,10-132,14.7
			c-9.4,1-12.3,5.1-13.5,14.1c-3,23.2-4.9,46.9-11.6,69c-7.3,23.8,3.9,32.3,23,37.3C1855.1,778.9,1864.3,780,1870.7,781.2z
			 M2057.4,763.3c57.4,1.5,104-45.6,114.5-106.5c1.7-10.1-4.7-10.5-11.9-11c-17.5-1.3-35.1-4.4-52.6-4.2
			c-80.9,1-59.2-18.1-86.8,60.1c-1.7,4.7-3.2,9.5-4.7,14.3c-11.3,35.2-6.6,42.2,31.4,46.5C2051.5,763.1,2055.7,763.2,2057.4,763.3z
			 M2261.4,2520.4c-0.1,0-0.1,0-0.2,0c0,14.2,0,28.4,0,42.6c0,9.8,3.6,17.5,12,23.3c28.3,19.7,58.3,23.4,90.3,10.5
			c16.5-6.7,20.6-18.2,12.6-34.1c-16.4-32.4-27.2-66.3-29.1-102.8c-0.6-12.3-6.7-16.9-19.3-17.3c-40.9-1.1-67.3,23.3-66.3,62.7
			C2261.5,2510.3,2261.4,2515.4,2261.4,2520.4z M2564.8,988.1c0-9.2,0.3-18.4-0.1-27.6c-1.3-35.9-21.6-51.6-56.3-42.6
			c-15.3,3.9-30,9.9-44.9,15.1c-10.5,3.7-16.7,11.9-17.9,22.3c-2.8,24.9-4.3,49.9-6.7,74.9c-1.1,11.3,3.7,14.6,14.5,13.5
			c20.8-2.1,41.6-3.9,62.5-4.6C2565.4,1037.4,2565.5,1037.7,2564.8,988.1z M352.4,2432.8c-0.6,0-1.1,0-1.7,0c0-20.9,0-41.8,0-62.7
			c0-30.8-6.3-35-35.2-23.4c-36.1,14.5-55.6,50.5-49.7,91.6c5.5,38.2,42.4,80.2,73.2,84.5c13.1,1.8,13.4-5.8,13.4-14.8
			C352.4,2482.9,352.4,2457.8,352.4,2432.8z M738.2,1771.4c0,0,0,0.1,0,0.1c46.8,0,93.6-0.8,140.4,0.4c17.7,0.5,27.3-3.9,27.4-22.7
			c0.2-19.6-12.6-20.8-27.2-19.7c-91.8,6.8-183.8,3.5-275.8,3.5c-15.6,0-30.6,0.8-29.8,19.9c0.7,16.6,14.7,18.9,29.5,18.7
			C647.9,1771,693,1771.4,738.2,1771.4z M348.8,2105.3c0-3.7-0.7-8.9,0.1-13.7c4.9-27.2-8-38.3-33.8-38.5c-4.1,0-8.2-1.6-12.4-1.7
			c-22.2-0.5-46.6-5.9-61.1,17.5c-10,16.1,3.7,53.8,24.6,71.5c6.9,5.8,15,10.8,23.3,14.2c47.7,19.1,62.9,8,60-43
			C349.5,2109.9,349.2,2108.2,348.8,2105.3z M1634.1,2611.3c17.2-1.6,39.2,6.9,49-10.3c20.3-35.5,26.8-74.9,17.9-115.7
			c-2.9-13.2-13.9-19.8-25.6-20.5c-11.8-0.7-12.1,12.3-14.4,20.4c-9.5,33.2-24.1,63.7-44.4,91.6c-6.7,9.2-22.9,17.9-18.6,27.2
			C1604.1,2617.1,1622.1,2607.3,1634.1,2611.3z M348.3,1786.6c-0.2,0-0.4,0-0.5,0c0-8.4,0.9-16.9-0.2-25.1
			c-1.5-12,5.7-30.2-14.9-31.4c-19.6-1.2-44-4.4-52.8,18.6c-8.1,21.3-12.6,45.3-4.9,68.8c7.4,22.5,27.1,30.8,55.2,25.7
			c23.4-4.2,19.8-20.3,18.2-36.4C347.7,1800.1,348.3,1793.3,348.3,1786.6z M1139.7,2593c-1.1,13.8-2.1,22.9-2.6,32.1
			c-0.5,9.1,3.2,14.3,13.4,12.7c30.7-4.9,59.7-14.3,86.3-31c9.7-6.1,7.2-10.9,0.1-17c-16.6-14.3-29-32-38.8-51.6
			c-2.9-5.8-5.2-14-13.9-5.9C1164.4,2550.7,1127.6,2557.6,1139.7,2593z M1196.9,2091.8c-0.4-9.3,0.3-21.1-5.2-32
			c-9.8-19.4-27.3-16-43.8-14.5c-17.4,1.6-11.7,15.5-12,25.2c-0.6,22.5,0.9,45.1-0.1,67.6c-0.9,20.4,8.6,22.5,24.7,17.4
			C1185.4,2147.7,1196.8,2128.7,1196.9,2091.8z M775,1978.2c-5.1,9.4-9.5,17.2-13.6,25.2c-6.9,13.3-13.8,26.5-20.2,40
			c-6.5,13.7-0.3,24.4,9.8,33c13.5,11.4,45.5,6.8,58.7-7.8c16.1-17.7,16.2-34.4,0.3-52.1C798.9,2004.2,787.7,1992,775,1978.2z
			 M1138.9,2514.2c32.7-21.9,38.4-32.7,38.2-64.7c-0.1-10.8-0.2-21.9,1.8-32.4c4.4-23.7-7.9-39.8-22.7-55c-3.4-3.5-7.2-7.4-13-4.6
			c-4.5,2.2-4.2,6.9-4.2,10.9C1138.9,2415.6,1138.9,2462.9,1138.9,2514.2z M881.6,1905.2c12.7-20,21.8-39.4,26.3-60.4
			c4.8-22.1-8.3-36.5-29.8-35.1c-22.6,1.4-40,32.9-27.9,52C859.5,1876.3,870.4,1889.9,881.6,1905.2z M743.1,1951.9
			c-0.1-9.7-21.3-38.9-26.8-39.2c-13.3-0.8-12.9,12.7-18.3,19.8c-6.6,8.6-11.9,18.2-17.1,27.7c-5.3,9.7,13.8,50.2,24.3,52.1
			c1.9,0.3,5.3-1,6.1-2.5C722.8,1989.5,733.8,1969,743.1,1951.9z M1220,2268.4c-23.6,0-44.5-0.3-65.4,0.1c-8.6,0.2-17.7,2-17.7,13.3
			c0,10.5-2.6,22,8.9,29.4c43.7,27.9,43.7,27.9,64.3-19.6C1213.1,2284.8,1216,2277.9,1220,2268.4z M1133.2,1978.2
			c-1.8,20.3,4.6,30.9,26.6,27c9.7-1.7,20.1-1.4,29.4,3c14.3,6.7,19.7,3.4,21.9-13.1c4.3-31.8,5.4-31.6-27.1-35.1
			c-8.2-0.9-16.7-1.5-24.5-3.9C1137.9,1949.6,1130.2,1958.1,1133.2,1978.2z M844.4,2379.5c-2.8-16.4-19-18.6-33.2-21.7
			c-10.1-2.3-36.7,32.8-37.7,47.9c-0.3,5,32.3,30,40,30.6C820.2,2436.9,844.5,2394.4,844.4,2379.5z M909.2,2487.9
			c0-25.7-0.4-50.8,0.2-75.9c0.3-11.1-7.5-13.8-15-17.5c-5.6-2.8-8.7,0.1-12.4,4.5c-36.5,43.5-30.3,70,21.3,89.4
			C904.1,2488.6,905,2488.2,909.2,2487.9z M1130.9,1820.3c0.5,0,1.1,0,1.6,0c0,11.7-0.3,23.5,0.1,35.2c0.2,6.4-1.9,15.2,5.7,17.8
			c8.8,2.9,15.9-3.1,21.7-9.6c18-20.1,17.4-62.3-1.6-81.3c-6.5-6.5-14.4-14.3-23.8-10.3c-8,3.4-3.2,13.5-3.7,20.6
			C1130.4,1801.8,1130.9,1811.1,1130.9,1820.3z M879.8,2256.7c-20.9-0.4-56.4,37.2-54.4,56c0.3,2.7,3,5.6,5.2,7.7
			c19.2,18,34.7,15.5,46.1-7.7c5.5-11.2,9.7-23,15.7-33.8C902.1,2261.4,898,2254.1,879.8,2256.7z M623.1,1890.3
			c4.4,15.2,6.1,34.1,20.8,38.4c13.1,3.8,15.3-15.5,22.7-24.3c2.6-3.1,4.5-7,6.6-10.5c9.3-15-3.8-48.6-21-53.3
			c-1.9-0.5-5.6,0-6.3,1.3C637.1,1857.6,626.6,1872.6,623.1,1890.3z M841.6,1988c27.9-33.8,25.9-42.9-20.5-93.2
			C788.9,1945.9,787.3,1932,841.6,1988z M1232,2227.8c-7.4-17.6-13.2-31.1-18.8-44.7c-2-4.9-3.9-9.5-10.4-4.9
			c-15.9,11.3-34.1,16.7-52.9,21c-9.4,2.1-13.6,9.4-12.3,18.9c1.5,10.3,9.9,9.7,17.4,9.7C1179.6,2227.9,1204.3,2227.8,1232,2227.8z
			 M608.2,2081.6c17.5,0,30-0.9,42.3,0.2c15.1,1.3,28.2,0.3,32.6-17.1c2.2-8.7-22.2-48-29.9-49.4c-5.1-0.9-7.5,2.4-9.7,6.1
			C632.6,2039.8,621.8,2058.3,608.2,2081.6z M762.2,2340c0.3-5.7-25.8-22.2-35.9-22.6c-8.7-0.4-30.3,29.6-29.5,42.6
			c1.3,19.8,21.2,18.4,32.7,26.3C734,2389.3,761.7,2350.1,762.2,2340z M680.4,2304.1c-9.7-16.5-26-25.4-41.7-27.3
			c-18.1-2.1-18.5,19.5-25.3,31.3c-3.4,5.9,30.5,35.8,38.7,32.8C668.3,2335.2,670.1,2317.1,680.4,2304.1z M677.5,2403
			c-17.1,8.1-21,25.2-27.4,39.9c-2.7,6.3,26.1,28.2,34.6,27.4c5.8-0.6,30-33.6,27.4-39.5C705.6,2416.2,691.1,2410.7,677.5,2403z
			 M765.8,1822.6c-10.3,12.2-19.2,25.3-24.9,40.2c-6.9,17.9,8,25.2,18.2,34.5c4.7,4.3,7.8,3.2,12.2-1.6
			C797.7,1867,796.6,1848.5,765.8,1822.6z M585,2385.9c-0.1,28.6,6.1,40.9,19.8,41.3c5.5,0.1,31.8-36.5,28.8-43.3
			c-6.7-15.3-21.7-25.2-36.6-25.2C577.7,2358.6,587.5,2377.2,585,2385.9z M759.7,2499.6c15.9-1.6,34.8,6,39-17.5
			c1.1-6.2-36.1-34.3-43.7-31.5c-16,6-24.9,22.7-25.2,36.4C729.4,2507.6,749.5,2496.8,759.7,2499.6z M589.3,2032.4
			c6.8-11.2,12.2-23.6,20.7-33.3c16.1-18.4,12-33.4-2.5-50.3c-9.5-11-14.1-12-20.1,2.2C576.3,1977.1,583.2,2003.5,589.3,2032.4z
			 M802.7,2267.5c0.2-13.9-9.9-11.2-16.1-10.5c-15.1,1.8-38.4-9.3-41.8,14.2c-2.7,18.5,19.9,21.4,33,23.7
			C797.5,2298.5,792.6,2274.7,802.7,2267.5z M906,2056.4c2.7-25.4,2-42.1-3-51.5c-2.2-4.2-5.4-9.5-9.3-10.8c-5.9-1.9-7,5.2-9.5,9
			C870,2025.2,873.3,2033.8,906,2056.4z M589.8,1854.2c9.5-7.2,11.5-18.5,17.3-27.3c7.5-11.4,3.6-16.6-9.1-17.1
			c-7.4-0.3-17.1-1.7-19.7,6.6C574,1830.5,577.9,1843.7,589.8,1854.2z M1395.3,1869.4c0.4-1.6,0.7-3.2,1.1-4.8
			c-11.6-5.1-23.1-10.4-34.9-15.1c-4.1-1.6-9.2-7.1-12.8-2.3c-2.5,3.2-1.1,9.5-1.3,14.3c-0.2,6.8,4.2,7.9,9.7,7.8
			C1369.8,1869.3,1382.5,1869.4,1395.3,1869.4z"/>
		<path class="st0" d="M737.6,1391.1c60.1,0.4,107.3,47.3,107.2,106.4c-0.1,60-48.7,106.4-110.5,105.4
			c-58.6-0.9-105.3-48.2-104.7-106.2C630.1,1437.5,678,1390.7,737.6,1391.1z M736.6,1441.5c-34.9,0.1-58.1,22.5-57.7,55.6
			c0.4,33.6,26,58.4,59.8,57.8c32.4-0.5,56.2-25.5,55.9-58.5C794.3,1462.7,771.9,1441.3,736.6,1441.5z"/>
		<path class="st0" d="M997.2,1366.4c-61.9,0.3-108.7-44.3-108.7-103.5c0-58.6,48.4-106.9,107.4-107.2
			c58.5-0.3,108,47.7,109.2,105.8C1106.3,1319.7,1058.6,1366.1,997.2,1366.4z M997.5,1205.2c-33.1-0.4-57.8,23.1-58.4,55.7
			c-0.6,34.1,23.8,58.7,58,58.5c33-0.2,57.5-24.3,57.6-56.8C1054.8,1230.2,1030.2,1205.5,997.5,1205.2z"/>
		<path class="st0" d="M527.8,1147c60.5,0.3,107.1,46.7,106.8,106.3c-0.3,59.1-48,106.3-107.5,106.3c-60.5,0-106.9-47.8-106.2-109.4
			C421.5,1191.7,468.1,1146.7,527.8,1147z M469.4,1253c0,32.2,24.2,56.3,57.1,57c32.6,0.7,59.8-25.6,59.8-57.8
			c0-31-25.9-56.4-58.1-56.9C494.9,1194.6,469.4,1219.7,469.4,1253z"/>
	</g>
</g>
</svg>
