<?xml version="1.0" encoding="utf-8"?>
<!-- Generator: Adobe Illustrator 23.0.0, SVG Export Plug-In . SVG Version: 6.00 Build 0)  -->
<svg version="1.0" xmlns="http://www.w3.org/2000/svg" xmlns:xlink="http://www.w3.org/1999/xlink" x="0px" y="0px"
	 viewBox="0 0 3000 3000" style="enable-background:new 0 0 3000 3000;" xml:space="preserve">
<style type="text/css">
	.st0{stroke:#000000;stroke-width:10;stroke-miterlimit:10;}
</style>
<g id="Layer_1">
</g>
<g id="Layer_2">
	<g>
		<path class="st0" d="M399.2,2290.9c-6.5-5.4-9.1-8.3-12.4-10.2c-138.4-82.1-214.2-204.6-232.5-363.2
			c-17.5-152.3-16.3-304.9,9.8-455.9c19.2-110.7,67.8-210.3,136.6-299.6c5.5-7.2,10.8-14.5,18.7-25.1c-52.1-14.5-80.3-50.2-94-98.8
			c-12.9-45.8-30.4-91.6-11.7-139.7c4.6-11.8-1.5-15.9-7.8-22.8c-39-42.2-52.6-95.5-61.1-149.8c-7-44.4,15.4-78.2,50-108
			c-86.9-41.9-88.1-117.5-79.1-196.3c7.8-68,28.1-129.6,94.7-163.9c17.4-8.9,35.8-17.3,55.2-14.9c64.1,8.1,129.5,11.7,191.2,44.3
			c16.3-79.1,76.7-95.7,145.3-101.1c45.6-3.6,91.3-9.2,135.9,5.6c10.7,3.5,13.1-0.3,18.3-8.2c44.4-67.1,163.8-103.3,238.6-73
			c21.4,8.7,38.8,22.6,51.2,41.7c6.9,10.5,10.4,13.9,22.3,4c82.1-68.1,181.7-72.9,274.8-13.3c12.5,8,19,0.4,27.1-4
			c38-20.2,77.4-35.6,120.5-40.6c80.2-9.3,133.2,29.5,142.9,109.5c4.8,39.8,35.8,19.5,53.7,27.6c20.2,9.2,17.9-11.8,21.5-23.1
			c18.7-57.7,55.2-101.7,106.9-132.1c47.9-28.2,117.9-15.5,169.9,28.1c10.1,8.5,19.2,18.1,30.3,28.6
			c52.3-73.7,127.5-86.5,210.4-77.8c15.7,1.6,31.7,6.2,40.8,18.3c14.7,19.4,28.9,13.9,47.1,7.1c61.1-22.8,123.5-33.7,187.8-12.6
			c24.3,8,48.8,15.7,62,40.4c7.1,13.3,16.7,6.5,26.3,4.6c56.4-10.7,111.2-8,159.7,26.4c69.6,49.3,95.1,121.7,100.3,202.9
			c1.8,27.1,1.2,54.8-7.6,81.3c-4.2,12.7-1.2,22.9,6.5,33.9c43,62.3,46.7,128.5,15.8,196.6c-6.4,14.1-8,24.9-1.5,39.5
			c16.6,37.4,29.6,76.5,20.5,118.2c-12.3,56.3-45.6,96.5-97.7,121.2c-9.4,4.4-23.6,4.6-12.5,22c59.7,94.1,78.7,201,98,308.3
			c41.9,233.2,32.1,463.6-36.2,690.4c-35.3,117.3-83.1,229.2-169.9,322.8c18.7,5.1,36,9,53,14.5c128.5,41.2,194.5,146.3,176.1,280
			c-23.9,173-111.7,259.9-293,293.3c-144.9,26.6-291.4,28.6-437.7,28.4c-383.4-0.5-766.8-6.3-1150.2,0.1
			c-169.8,2.9-339.7,3.5-509.4-4.8c-88.3-4.3-176.3-12.5-262-35.9c-14.7-4-29.2-8.7-43.4-14.3c-117.1-46.2-163.3-134.9-136.6-258
			c22.7-104.9,87.3-176.6,177.1-228.9C287.9,2326.7,340.1,2307,399.2,2290.9z M2478.2,2307c89.8-9.9,153.5-51.8,199.3-121.9
			c44.8-68.4,77.9-142.6,102.9-220.2c89.6-278.5,81.3-558.9,9.8-838.9c-45-176.1-159.6-286.9-335.9-330.3
			c-124.6-30.6-251.5-48.2-380.1-47.1c-167.8,1.4-335.5,7.1-503.3,8.2c-193.4,1.3-385.7,15.3-576,53.6
			c-225,45.2-423.6,139.1-585.9,304.2c-74.3,75.6-132.3,161.8-168.6,262c-4.6,12.6-12.2,25.2,11.8,26.4c97.1,5,193.2,1.6,286.6-28.9
			c129.6-42.3,251.8-102.6,376.5-156.8c104.9-45.5,204.7-103.3,323.2-111.4c155.1-10.5,304.2,5.4,444.2,78.2
			c104.2,54.2,152,146.5,170.1,256.2c17.1,103.8,10,209,6.2,313.6c-2.4,66.2-21.6,128-62.9,181.5
			c-82.8,107.2-191.5,175.5-322.5,205.6c-170.8,39.3-344.7,40.8-518.8,35.3c-73.3-2.3-137-28.9-177.8-90.5
			c-40-60.4-96.7-90.6-162.2-110.3c-124.4-37.5-252.3-52.1-381.4-60.6c-23.8-1.6-29.8,1.9-25.1,26.9
			c26.4,140.5,102.6,243.3,229.2,308.8c164,84.9,338.6,123.9,523.2,119.1c197.2-5.2,394.4-10,591.5-14.7c14.6-0.3,28-3,41-9.7
			c221.4-113.7,377.5-285.6,461.5-520.7c42.6-119.1,59.1-242.4,50.1-369c-0.9-12.1-8.5-27.4,15.7-31.3c26.1-4.3,34.9,0.5,35.9,28.6
			c13.7,369.6-129.2,661.4-431.6,874.8c-8.3,5.9-19.7,8.8-23.1,16.7c72.6,0,144.7-0.1,216.8,0.1c13.8,0,25.4-4.8,36.9-12.2
			c113.4-72.4,200.8-168.1,257.4-290.4c82.9-179,92.4-366.6,58.8-557.8c-4.6-26.5,5.3-28.9,26-34.6c27.9-7.6,22.3,13.2,24.5,24.9
			c18.6,100.5,23.7,201.6,13.2,303.5c-22.3,217.6-107.5,402.7-278.4,544.3c-5.7,4.7-15,7-15,14.4c39.8,0,79.1-1,118.4,0.4
			c21.1,0.7,36.1-6.5,50.8-21.3c202-203.2,283-448.1,250.2-731.1c-3-26.2,9.9-24.5,24.9-28.5c20.1-5.3,24.5,5.6,26.4,22.2
			c30.7,276.4-39.2,521.6-225.5,731c-4.8,5.4-13.8,9.7-11.4,21c6,0,12.1,0.4,18.1-0.1c25.3-2.1,50.6-4.9,76-6.4
			c17.3-1,30.4-7.9,42.2-20.8c126-139.4,196-302.1,204.7-490.3c2.4-50.8,1-101.7-6.7-152.1c-4.5-29.3,20.2-18.2,32.3-23.5
			c14.7-6.5,15.8,4.3,17.3,15.7c26.5,191.8-5.4,372.1-103.5,540.1C2533.5,2231.5,2506.9,2267,2478.2,2307z M1096.7,2126.1
			c99.7,0.1,198.8-6.3,297.7-21.1c128-19,239.2-68.9,329.7-162.6c46-47.5,76.6-102.6,81.9-169.3c8.7-109.6,12.9-220.1-4.3-328.6
			c-14.3-90.2-52.8-169.3-142.3-214.8c-87.8-44.7-180.2-68.7-277.3-75.3c-96-6.5-192.2-1.8-282,35.6
			c-121.7,50.7-241.5,105.9-361.2,161.2c-159.2,73.6-323,121.9-500.8,100.7c-23.5-2.8-24.1,12.4-26.2,27.3
			c-17.3,119.2-18.5,238.9-14.5,359c0.6,18.9,8,23.5,25.4,24.5c39.6,2.2,79.1,6.1,118.5,10.4c114.3,12.4,228.2,27.6,336,70.4
			c52.6,20.9,98.3,50.8,130.6,100.4c32.8,50.3,80.5,78.1,142.6,80.9C999.2,2127,1047.9,2126.8,1096.7,2126.1z M673.1,2847.1
			c58.9,0,117.8-0.3,176.8,0.2c17.7,0.2,23-3.9,17.4-23c-12.8-44.4-16.3-90-5.7-135.6c22.4-96.9,91.9-144.4,182.2-162
			c200.4-39.1,400.1-35.1,597.5,21.3c13.5,3.9,25.7,7.7,40.6-0.5c121-66.4,247-67.1,374.4-22.9c152.5,52.9,265.3,154.5,347.1,291.9
			c9.6,16.1,19.5,22.6,38.3,21c72-6.1,143.2-15.2,213-35.1c104.5-29.8,163.9-98.3,185.4-204.1c36.7-180.7-108.3-312-283.7-256.1
			c-27,8.6-55.1,14.2-83.1,18.9c-175.1,29.3-352.3,28.9-528.8,34.8c-312.9,10.5-626,17-939,24.9c-176.5,4.5-349.1-13.9-511.9-88.7
			c-7.9-3.6-15.7-8.9-25.9-6.4c-87.1,21.1-171.7,47.6-245.4,101.6c-59.4,43.5-96.5,99.8-111.1,172.2c-18.9,93.8,13,156.7,101,192.9
			c30.1,12.4,61.6,20.4,93.6,26.6C427.1,2842.5,550.2,2843.2,673.1,2847.1z M1505.9,2841.1c115.7,9.8,806.8,7.4,849.7-3
			c-1.6-3.8-2.6-7.6-4.6-10.8c-65.4-104.1-151.4-186.3-264.5-235.7c-163.6-71.5-320.1-69.2-458.4,59
			C1571.4,2703,1532.9,2767.9,1505.9,2841.1z M1613.2,2594.1c-11.8-3.7-17.4-5.7-23.2-7.2c-137.5-35.6-277.1-40.5-417.8-28.1
			c-57.7,5.1-115.3,11.2-169.6,34.1c-42.7,18-73.8,46.9-87.5,91.6c-15.1,49.4-9.1,98.3,7.3,146.6c4.1,12.1,11.5,14.8,22.9,14.7
			c162.7-1.1,325.5-2,488.2-2.6c11.9,0,18.8-3.8,22.8-15C1488.2,2738.6,1539,2661.2,1613.2,2594.1z M557.2,926.1
			c29-16.7,54.5-33.6,82-46.4c18.6-8.7,23.6-20,24.8-39.6c8.5-139.8,105.6-259.6,239-294.9c65.2-17.3,132.1-25.8,199.3-20.1
			c117.8,10,215,53.1,256.2,175.8c3.5,10.3,9.2,11.9,18,11.5c42.5-2.1,84.9-4.2,129-6.3c-25.5-132.9-97.5-227-223.5-272.7
			c-183.7-66.5-362.8-47.2-531.8,47.5C583.1,574.3,515.6,734.4,557.2,926.1z M2569.3,779.7c2.8-115.7-12.7-223.8-78.3-318.7
			c-30.4-44-74.2-71.6-128.8-79.2c-89.8-12.6-180-18.5-270.4-14.4c-46.6,2.1-92.9,9.4-136.3,28.8
			c-120.5,53.7-161.8,198.1-157.1,291.3c0.8,15.7,10.2,14.9,20.6,14.7c31.5-0.4,63-1.7,94.5-0.9c17.1,0.4,22-4.1,21.3-22.1
			c-2-54,16-101.8,51.1-142.9c108.9-127.3,331.4-120.8,432.2,12.5c39.7,52.5,60.6,112,67,177.2c1.1,11.2-2,24.9,14.7,29.8
			C2521.9,762.4,2543.5,770.7,2569.3,779.7z M717.2,840.2c41.4-14.5,80-29.7,119.7-41.6c144.4-43.6,292.6-67.2,442.7-79.7
			c32.7-2.7,34.5-4.8,18.8-33.4c-25.7-46.6-65.2-77.1-115.4-93.8c-79.9-26.7-160.8-19-240.9-3.1
			C813.5,614.1,721.5,717.4,717.2,840.2z M2431.7,735.8c3.5-89-60-190.3-137.7-222.6c-84.8-35.3-205.8-12.8-264.1,49.8
			c-29.6,31.7-45.3,69.3-44.3,113.4c0.4,16.3,5.4,23.6,23.4,22.4C2151.4,688.6,2290.6,713.4,2431.7,735.8z M162.9,472.5
			c-1.1,17.5-0.1,34.6,6.3,51.1c13.3,34.3,61.4,66.4,85.5,53c46.8-26,94.7-26.8,144.2-14.1c12,3.1,18.2,2.5,22.5-10.6
			c15.4-47.4,30.3-95.1,32.5-145.1c2.4-55-23.3-85.8-77-95.8c-25.9-4.8-52.2-7.7-78.1-13c-53.6-11-92.7,8.6-114.9,58.4
			C167.3,393.4,166.6,433.2,162.9,472.5z M193.9,719.4c7.4,36.7,17.4,76,39.8,110.6c5.3,8.2,10.8,19.1,26.4,12.7
			c54.1-22.1,111.5-29.1,169.2-34.7c21-2,47.2,3,61.7-7.8c15.6-11.6,6.6-40,10.7-60.8c13.8-69.1,13-70-50.8-103
			c-11.7-6-23.8-11.3-36.2-15.8c-81.4-29.7-145.2-13.5-203,51.4C200.6,684.6,194.1,699.1,193.9,719.4z M1351,304.1
			c-17.4-128.6-48.7-158.9-163.7-148.3c-34.7,3.2-66.3,13.8-88.2,42c-28.3,36.6-46.3,78.5-56.9,123.6c-4.2,17.7-0.8,25.7,20.2,24.9
			c81-2.9,159.9,9.4,235.8,38.4c7.1,2.7,13.2,4.9,18.7-2.7C1334.4,357.9,1350.9,333.6,1351,304.1z M2799.4,357.3
			c2.1-39.6-8.8-76.5-26.5-111.1c-35.9-70-100.8-98.1-175.5-78.5c-12.5,3.3-18.1,7.4-20.1,21c-9.5,63.2-35.8,119.8-70.4,173
			c-6.9,10.7-20.9,20.3-4.4,36.3c13.8,13.3,24,19.6,44.1,10c69.1-33,140.7-42.2,214.2-13.4c38.4,15,38.5,15,38.7-28.2
			C2799.5,363.4,2799.5,360.3,2799.4,357.3z M640.3,234.5c-29.3,3.5-62,1.1-93.1,13.4c-23.3,9.2-37,24.1-37.7,49.5
			c-0.5,18.2-1.8,36.5-0.4,54.6c4.2,56.4,47.5,79,90.5,100.7c35.9,18.1,67.5,19.2,107.4-3.3c49.5-27.9,66.5-54,56.4-113.1
			C748,246.6,735.1,228.8,640.3,234.5z M1850,407.3c45.8-40.6,93.8-67.9,150-78.5c12.8-2.4,8.9-10.4,7.5-18.4
			c-3.9-22-9.4-43.9-7.7-66.4c4.3-56.1-29.9-88.5-72.9-112.7c-23.4-13.2-51.5-24-78.6-9.9c-47.1,24.5-79.5,62.3-92.5,114.8
			c-3.6,14.5-1.4,26.7,12.9,37C1812.7,304.6,1839.2,348,1850,407.3z M2670.2,427.9c-36,1.3-69.7,11.6-102.6,25.5
			c-13.4,5.6-12.3,12.6-6.4,23.4c22.6,41.3,34.9,86.5,43.9,132.1c5.4,27.5,12,35.6,41.6,24.2c49.5-19.2,102.5-31,153.9-8.7
			c23.4,10.2,25.2-0.3,28.9-16.3C2852.6,509.5,2779.7,427,2670.2,427.9z M1649.2,705.3c0-0.3,0-0.7,0-1c26.3,0,52.7,0.2,79-0.1
			c7.6-0.1,20.1,1.6,18.8-9.5c-5.7-49.8,14.1-98.3,5.8-148.1c-5.3-31.7-23.7-47.6-54.5-51.4c-51.5-6.4-98.1,8.2-142.3,32.9
			c-47.1,26.4-47,26.6-27.3,75.9c3,7.5,4.6,15.7,8.2,22.8c12.6,25,4.5,64.1,28.4,76.1C1588.1,714.3,1620.9,705.3,1649.2,705.3z
			 M1427,458.3c14.1,15.3,28.2,28.5,39.7,43.6c9.6,12.7,16.7,13,29.4,3.8c38.9-28.3,81.6-50.4,129.3-57.9
			c60.2-9.4,120.1-11.3,164.6,43.9c3-5.6,6-9.8,7.7-14.5c32.2-89.1-65.1-208.9-159-196.6c-11.2,1.5-12.8,8.1-15.8,14.9
			c-14.4,32.3-37.1,57.5-64.7,79.2C1517.4,406.9,1473.2,433.5,1427,458.3z M2165.2,316.6c0-0.5,0-1,0-1.4c27.4,1.5,55.1,0.8,82,5
			c26.6,4.1,31.6-7.9,30.7-29.8c-1.6-37.6-5.4-74.9-15.5-111.3c-19.5-70.6-27.2-76.1-99.6-70.4c-78.2,6.2-115.4,46.9-113.2,124.9
			c0.6,19.2,4,38.3,5.6,57.5c1.8,21.3,11.6,28.7,33.8,26.2C2114.2,314.5,2139.9,316.6,2165.2,316.6z M256.7,941.9
			c2.3,40.1,13.6,78.2,31.4,113.6c18,35.9,64.7,41.7,93.2,14.8c21.4-20.2,40.7-44.6,65.7-58.5c55.7-31,68.6-73.6,51.8-132.1
			c-4.7-16.5-7.5-24.6-26.3-23.6c-56.9,3-113.1,9.7-168.2,24.5C272.1,889.2,257.1,908.9,256.7,941.9z M933.9,151.6
			c-32.1-1-62.2,8.3-91.6,19.3c-35.8,13.4-54.3,45-44.3,82.5c10.3,38.5,14.3,77.5,17.9,116.7c1.6,17.5,8.9,19.1,23.9,13.8
			c42.1-14.8,85.5-25.3,129.8-30.7c12.4-1.5,17.1-6.5,18.9-18.6c5-34.2,14.5-67.3,29.4-98.6c4.9-10.3,3.6-19-0.1-28.9
			C1002.8,167.5,979.2,151.7,933.9,151.6z M2430.3,112.3c-39.1,1.2-73.4,9.8-106.9,22.3c-13.8,5.1-18.1,11.5-13.3,27.2
			c14.1,46.9,20.6,95.4,18.7,144.4c-0.7,17,6.1,21,20.5,22.2c28.5,2.4,56.3,8.7,82.2,21.1c12.4,6,19.5,4.6,27.2-7.6
			c23.5-37,45.6-74.4,57.9-116.8C2541.7,138.6,2530,118.1,2430.3,112.3z M1584.9,219.1c0.1-47.4-27.8-73.5-86.6-69.9
			c-33.2,2-62.6,15.3-92.3,28.4c-22.2,9.8-32.2,19.8-20.3,47.1c24.9,57.2,23.2,114.3-13.3,167.8c-4.3,6.3-16.2,12.6-7.9,22.5
			c8.5,10.1,19.1,7.3,30.3,1.9c52.2-25.3,101.3-55.5,145.3-93.4C1567.8,299.4,1585.5,269.4,1584.9,219.1z M2621.4,760.6
			c-17,35.4,7.8,57.2,40.4,77.7c19.5,12.3,36.1,29.5,52.4,46.1c10.4,10.6,20.5,14.4,35,11.2c50.5-11.3,91.4-66.5,86.4-117.8
			c-9.5-96.7-54.5-128.8-147.8-105.3C2624.2,688.6,2624.2,688.6,2621.4,760.6z M501.7,451.7c-6.5,25.7-11.9,49-18.4,72.1
			c-18.1,64.5-18.3,64.4,39.5,98.1c0.9,0.5,1.7,1.1,2.5,1.8c7.7,6.8,12.4,3.3,16.5-4.3c20.1-37.6,46.3-71,76.9-104.2
			C573.7,500.7,537.7,478.3,501.7,451.7z"/>
		<path class="st0" d="M1414.4,1606.1c-2.6,78.1-54.8,143.7-124,198c-54.3,42.6-112.5,79.7-172.6,113.8
			c-27,15.3-55.6,23.3-87.1,22.7c-65.4-1.2-102.1-42.6-91.3-107.1c4.2-24.9,10.7-49.9,20-73.2c33.2-83.2,76.1-161.5,128.4-234.2
			c28.4-39.4,64.6-70.2,111.2-86.8C1311.9,1398.7,1414.1,1470.6,1414.4,1606.1z M1363.6,1601.8c1.6-93.8-66-142.2-145.8-114.9
			c-34.1,11.7-61.4,32.7-82,60.6c-55.6,75.4-100.2,157.3-134,244.8c-6.2,15.9-9.4,33.2-12.3,50.2c-5.4,30.9,7.1,46.1,38.6,48
			c25.3,1.6,47.9-7.4,69.3-19.5c57.4-32.7,112.7-68.7,164.5-109.6C1316.7,1718.3,1359.9,1666.7,1363.6,1601.8z"/>
		<path class="st0" d="M1621.7,1787.4c-69.1-0.2-125.8-56.4-126.8-125.7c-1-69.8,57.4-128.5,127.6-128.1
			c70.1,0.3,128.2,59.3,127,128.9C1748.2,1731.3,1690.8,1787.5,1621.7,1787.4z M1546.7,1660.2c-0.1,42.5,32.4,75.8,74.2,76.1
			c43.1,0.4,77.8-34.3,77.1-77c-0.7-41.5-34.4-74.3-76.3-74.2C1579.2,1585.3,1546.8,1617.7,1546.7,1660.2z"/>
		<path class="st0" d="M701.9,1811.7c-70.3,0.8-128.7-56.7-128.8-126.9c-0.1-68.9,56.2-125.9,125.6-127.2
			c69.4-1.3,128.8,57.2,129,127.1C828,1753.2,770.8,1810.9,701.9,1811.7z M701.6,1609.4c-42.6-0.6-75.7,31.1-76.6,73.4
			c-0.9,42.4,30.9,76.6,72.5,78c42.8,1.5,78.2-32.6,78.6-75.4C776.5,1643.8,743.3,1610,701.6,1609.4z"/>
	</g>
</g>
</svg>
