<?xml version="1.0" encoding="utf-8"?>
<!-- Generator: Adobe Illustrator 23.0.0, SVG Export Plug-In . SVG Version: 6.00 Build 0)  -->
<svg version="1.0" xmlns="http://www.w3.org/2000/svg" xmlns:xlink="http://www.w3.org/1999/xlink" x="0px" y="0px"
	 viewBox="0 0 3000 3000" style="enable-background:new 0 0 3000 3000;" xml:space="preserve">
<style type="text/css">
	.st0{stroke:#000000;stroke-width:10;stroke-miterlimit:10;}
</style>
<g id="Layer_1">
</g>
<g id="Layer_2">
	<g>
		<path class="st0" d="M411.3,1934.5c-61.2-19.8-80.9-69.2-96-121c-44.2-151.5-48.4-304.4-15.1-458.8
			c33.4-155.2,60.1-312.2,126.3-458.2c10.1-22.3-5.6-30.7-15.8-42.2C336.2,769.9,283,674.3,264.8,562.6
			c-36.2-222.2,71.5-398.1,285.8-472.9c186.9-65.2,359.6-31.2,521.6,74.2c21.8,14.2,37.2,18.7,63.1,6.2
			c89.4-43.3,187.2-54,284.7-60.3c228.6-14.8,457.3-16.8,685.6,6.5c102.3,10.4,199.3,40.4,290,89
			c148.9,79.9,206.9,213.2,222.9,373.8c24.4,245.3,10.3,490.7,5.6,736.1c-4.7,245.5-8.5,491-15.3,736.5
			c-3.9,139.2-8.8,278.2-57.5,412.1c-93.3,256.4-280.6,394-541.5,450.9c-229.1,50-458.3,57.4-689.9,28.8
			c-81.7-10.1-163.8-15.6-246.3-13.2c-89.8,2.5-169.9-20-236.1-85.3c-108.6-107.1-245.1-160.6-389.5-199.7
			c-126-34.1-167-155.5-73.6-250.2c13.2-13.4,9.1-21.3,1.5-35.1C294.5,2212.9,303.8,2072.2,411.3,1934.5z M2022.7,161.2
			c-26.5-1.4-41.4-2.7-56.3-3c-150.7-3.2-301.3-4.1-452.1-1.1c-197.4,4-377.1,48.8-539.7,169.9C736.5,504.4,542.6,712.3,443.1,998.1
			c-45.6,131-68.5,267.1-96.4,402.1c-29.1,141.1-18.2,280.2,26.3,416.7c21.1,64.9,43.3,75.1,105.6,51
			c59.8-23.2,121.3-31.1,184.8-22.7c45.9,6.1,92,6.1,138,4.1c91.2-4.1,144.5-57.4,149.1-148c1.6-30.6-0.6-61.4-0.7-92.1
			c-0.1-32.7-14.3-54.8-44.5-68.9c-27.7-13-53.1-30.8-80.7-43.9c-21.1-10-19.8-20.6-10.4-39c10.1-19.6,20.5-18.4,36.4-9
			c33.5,19.9,67.6,38.9,101.4,58.2c30.5,17.4,46.3,44.7,48.3,78.5c2.6,43.1,6.3,86.2,2.1,129.6c-10.5,107.3-73.6,171.4-181.2,186.3
			c-61.7,8.6-122.5-1.8-183.7-3.2c-40.3-0.9-81.4-5.5-118.4,16.1c-141.1,82.4-187.2,281.4-97.2,418c6.7,10.2,11,22.8,28.4,17.6
			c102.9-30.5,208.4-3.1,312.3-13.4c13.6-1.4,35.6-9.8,33.7,21c-1.5,23.3-7.2,35.3-33.9,34.6c-58.5-1.5-117,3.1-175.6-2.6
			c-51.9-5-103.6-0.6-150.3,25.4c-36.4,20.3-59.2,51.9-58.5,94.8c0.7,40.3,28.8,62.2,62.4,76.2c25.6,10.7,52.3,19.4,79.2,26.2
			c131.1,33.2,248.4,93.6,345.8,187c60,57.5,128.3,79.4,208.6,78.1c96.2-1.6,192,5.9,287.7,16.8c210.8,24,420.1,18.1,627.8-30.5
			c177.1-41.4,337.4-106.5,438.5-271.1c74.8-121.7,114.9-253.4,121.6-395.2c10.6-221.7,11.8-443.6,13.9-665.5
			c0.1-7.7,3.2-16.9-5.4-22.9c-88.8,37.5-120.1,107.3-104.7,219.6c18.5,135.7,13.1,270.4-37,399.7c-55,142-158.1,231.7-307.4,261.4
			c-72.6,14.5-151.3,21.7-211.9-31.7c-31.6-27.9-60.6-15.3-88.3-12.1c-21.6,2.5-7.4,33.6-12.2,51.4c-2.5,9.4-2.6,19.4-5.1,28.8
			c-16.6,63.7-90.5,110.9-158.9,101.8c-59-7.9-87.1-48.2-88-126.1c-0.1-8.4,0-16.7,0.2-25.1c0.2-10-4.7-14.4-14.4-16.8
			c-35.1-8.6-71.4,13.5-77,50c-5.6,36.5-24.7,62.1-57.5,76.6c-50.8,22.4-104.5,30-159.4,22.6c-50.7-6.8-88.2-34.6-109.1-81.4
			c-36.6-81.9-22.5-158,31.9-227.2c72-91.7,169.9-141.5,279.9-172.6c42.6-12,102.7,0.7,124.5-35.4c21.3-35.3,9.8-89.6,15.8-135.2
			c7.7-57.5,4.2-117.9,36.7-170c43.8-70.3,130.6-84.5,173.1-25c26.3,36.7,45.6-0.1,67.7,0.3c25.9,0.4,11.8-22.2,10.1-35.2
			c-9.3-72.9,4-141.1,37.4-206.5c13.5-26.5,44.2-35.4,60.4-61.4c-38.6-8.9-76-15.5-96.2-50c-11.6-19.7-18.4-18.5-37.1-7.2
			c-101.1,61-218.2,9.5-240.1-106.4c-30.6-162,20.2-300.6,132.7-416.9c24.6-25.4,29.4-44.8,22.6-78.8
			c-21.3-106.6-9.8-204.2,98.3-263.8c11.2-6.2,15.5-15.3,17.3-26.8C1878.1,307.2,1930.5,228.2,2022.7,161.2z M2569.6,1280.4
			c1.8,0,3.7,0,5.5,0c0-44.6-1.1-89.3,0.5-133.8c0.8-21.1-6.1-32.9-24.9-42.4c-80.8-40.6-164.9-65.7-256.2-67.1
			c-77.1-1.2-152.8,12.9-229.2,16c-59,2.4-97.2,27.3-121.5,78.6c-8.9,18.9-18.5,37.4-27.6,56.2c-31,64.2-14.9,100.2,53,116.2
			c23.7,5.6,48.4,9.9,53.7,38.5c5.7,30.6-8.2,54.1-33.5,70.9c-15.1,10.1-31.4,19.2-39.2,36.4c-36.2,79.5-51.7,159.3,0.6,238.6
			c31.6,47.9,46,100.7,48.3,157.7c3.1,73.4-8.4,144.6-31.7,213.9c-17.3,51.4-38.5,101.6-55.2,153.2c-23.6,72.8,0.5,111.8,75.4,126.4
			c12.2,2.4,24.9,3.6,37.3,3.9c157.3,3.3,294.9-95.4,348-250.9c38.1-111.6,45-226.7,29.1-342.7c-13.3-97-16.1-199,75.9-251.8
			c84.4-48.5,99.3-110.3,91.8-192.7C2568.9,1297.2,2569.6,1288.8,2569.6,1280.4z M2574.8,1055.5c7-109.8,3-213,1.6-316.2
			c-0.4-31.4-12.2-40.6-40.8-42.9c-147.5-11.9-294.9-23.7-443-18.3c-77.5,2.8-151.6,20.8-221,56.5
			c-171.6,88.2-266.5,282.6-225.5,461.2c7.8,33.9,24.4,57.5,58.8,69.1c59.1,19.9,109.6,1.5,140.9-55.8
			c22.7-41.6,42.3-84.8,64.9-126.5c21.7-40,55.5-68.6,100.5-74.7c103.5-14.1,207.1-29.2,312.3-23.1
			C2411,989.8,2492.4,1016.1,2574.8,1055.5z M1050.2,213.1c-137.5-90.9-282.6-130.8-439.8-86.7C404.1,184.2,287.7,325,314.9,537.1
			c12.5,97.7,55.6,182.7,116.7,259.5c18.4,23.1,27.3,28.5,43.9-3.1c80.6-153.8,193.2-282,323.7-395.3
			C877.1,330.6,962.2,272.7,1050.2,213.1z M2131.7,441.1c-67.2-1.7-133.8,2.3-199.1,19.1C1820.7,489,1777,543,1796,682.4
			c3.2,23.4,10.4,27.6,31.8,15.2c55.9-32.3,115.9-54.7,180.1-63.5c161.6-22.1,322.9-7.2,484,6.2c83.5,6.9,80.4,9.7,71.6-75.3
			c-4.2-39.9-20.2-56.1-57.3-67.3C2383.8,460.6,2259.1,442.9,2131.7,441.1z M1597.4,2294.4c0,41.7-2.1,83.6,0.6,125.2
			c3,46.7,24.4,60.9,69.9,51.6c52.9-10.8,76.9-36.7,77.1-97.6c0.6-157.6,16.8-314.2,25.6-471.3c3.4-61.4,0.4-122.8-14.2-182.6
			c-12.2-50-42.8-56.3-81-20.5c-30.5,28.6-32.7,67.1-36,103.9C1624.6,1966.7,1604.9,2129.9,1597.4,2294.4z M1277.9,2455.6
			c24.1-1.4,55-1.7,84-12.8c17.2-6.6,34.8-14.9,36.9-35.9c7.1-73.5,56-96.9,120.4-102.3c13.7-1.1,27.5,1.6,28.6-20
			c3.5-68.1,8.4-136.2,13.2-204.3c1.2-16.8-4.4-22.8-21.5-19.5c-82.1,16.1-163.6,34.9-235.2,80.7c-63.2,40.4-119.3,88.7-139.4,165.1
			C1143,2390.2,1191.3,2456.2,1277.9,2455.6z M2535.3,446.6c-7.6-31.8-22.7-57.6-39.4-82.7c-65.6-98.3-168.8-135.5-274-171.8
			c-118-40.7-180,8.7-249,89.5c-29.4,34.5-50.1,75-52.7,123.6C2133.2,374.2,2175.4,377.1,2535.3,446.6z M1820.5,1875.1
			c0.8,52.9,0.5,105.7-4.5,158.6c-7.1,74.8-9.2,150.1-14.4,225.2c-1.4,19.5,4.8,28.4,24.7,29.2c20.4,0.8,25.1-7.6,24.5-27.4
			c-0.9-30.7,7.6-60.3,18.8-89.3c31.7-81.7,64.5-163,74.5-251.3c6.4-56.4,2.8-111.3-17.6-164.4c-11.4-29.6-34.3-44.8-65.9-38.4
			c-32.3,6.5-44.2,28.1-40.8,61.8C1823,1810.7,1820.5,1843,1820.5,1875.1z"/>
		<path class="st0" d="M1132.2,1255.7c-147.7,0.7-225.3-62.3-249.9-203c-0.2-1.4-0.2-2.8-0.5-4.2c-16.4-74.2-16.2-76.1,60.3-68.6
			c188.1,18.6,376,14,563.8-2.9c17.6-1.6,31.8-5.8,32.8,21.6c0.9,24.6-6.7,30.5-29.9,31.4c-96.1,4-166.8,45.3-203.5,138.9
			C1274.3,1248.4,1204.3,1255.5,1132.2,1255.7z M1321.4,1044c-127.7,4.5-244.5,2.3-360.8-8.5c-36.5-3.4-26.6,17.6-22.2,35.9
			c27.1,112.8,190.1,177.2,288.6,114.4c12-7.6,20.6-18,26.8-31.1C1270.9,1118.5,1286.9,1081.7,1321.4,1044z"/>
		<path class="st0" d="M408.2,535.9C441.4,337.1,625.5,202.7,832.5,269c14.7,4.7,25.9,11.6,15.1,29.4c-6.8,11.2-3.9,30-30,21.5
			c-49.4-16.1-101.3-20.1-152.5-6.6c-112.6,29.8-176.8,105.7-200.2,217.4c-5.1,24.6-14.4,33.2-38.8,29.2
			C409.5,557.3,404.9,549.2,408.2,535.9z"/>
	</g>
</g>
</svg>
