<?xml version="1.0" encoding="utf-8"?>
<!-- Generator: Adobe Illustrator 23.0.0, SVG Export Plug-In . SVG Version: 6.00 Build 0)  -->
<svg version="1.0" xmlns="http://www.w3.org/2000/svg" xmlns:xlink="http://www.w3.org/1999/xlink" x="0px" y="0px"
	 viewBox="0 0 3000 3000" style="enable-background:new 0 0 3000 3000;" xml:space="preserve">
<style type="text/css">
	.st0{stroke:#000000;stroke-width:10;stroke-miterlimit:10;}
</style>
<g id="Layer_1">
</g>
<g id="Layer_2">
	<g>
		<path class="st0" d="M478.9,1902.7c-73.3,24.5-144.3,27.7-215.6,2.2c-67.6-24.2-97.2-65.9-97.2-138.2
			c0-153.8,37-298.3,112.7-432.1c14.5-25.7,17.7-47.6,5.2-74.3c-28.1-60-16.4-117.4,17.1-171.3c10.2-16.4,8-25.4-3.8-39.9
			C176.2,901.4,133.5,734.1,186.9,549C249.5,331.8,473.8,183.7,705,199.8c79.5,5.5,155.4,23.2,226.5,59.8c8.7,4.5,16.3,8.9,27.1,2.4
			c120.1-72,254.3-97.7,390.3-116.3c140.6-19.2,281.7-32.2,424-26c100.6,4.4,200,17.2,298.5,37.1c16.4,3.3,29.9,1.6,45.1-5
			c142.2-62.2,284.5-65.2,425,4.4c76.4,37.8,138.4,93.9,187.7,163.2c104.5,147.2,165.5,308.1,149.7,491.9
			c-5.6,64.8-19.1,128.4-40.9,189.8c-12.9,36.4-29.2,72.6-58.3,98.1c-27.2,23.8-22,39.9-4.3,67.3c73.5,113.6,110.1,236.2,80.3,372.8
			c-14.1,64.9-43.3,122.1-83.3,174.1c-11.1,14.4-16,21,4.4,31.7c68.4,35.8,102.5,95.4,101,170.9c-1.6,81.6-35.5,148.4-109.7,190.1
			c-7.6,4.3-15.4,7.6-24.2,7.5c-0.1,12,9.1,13.9,15,18.1c198.1,139.5,203.4,402.4,10.1,548.5c-132.8,100.4-282.5,157.3-448.8,171.3
			c-178.7,15-357.7,22.3-537,22.7c-124.5,0.3-247.2-17.4-369.3-40.8c-14.3-2.7-22.6-7.6-16.2-23.2c4.9-11.9-2.7-32.4,26-25.9
			c252,57.5,507,40.5,761.8,27.8c117-5.8,233.9-13.9,344.9-56.5c79.4-30.5,153.3-70.9,220.5-123.7
			c174.7-137.3,128.2-382.6-46.7-475.6c-14.1-7.5-26.5-19-45.5-17.2c-20.9,2-28.6,6.2-21.8,30c23.5,82.7,27.6,166.9,9.9,251.3
			c-28.9,137.9-119.2,218.8-246.8,266.1c-129.1,47.9-263,65.5-399.5,69.7c-158.7,4.9-317-6.7-475.6-8.2
			c-45.3-0.4-90.7-1.5-135.6,5.4c-87.5,13.4-119.3,43.2-138.5,129.5c-3.4,15.5-17,10.8-25.9,13.3c-14.2,4-11.9-9.2-12.6-17.1
			c-4.3-52.1,35.7-111.7,92.7-140c45.3-22.5,94.3-27.4,143.6-28.9c116.3-3.4,232.3,4.1,348.5,7.8c159.8,5.1,319.1,3.8,475.9-32.6
			c57.6-13.4,113.5-31.9,167-57.7c114.3-55,168.5-149.5,178.1-272.3c4.9-62.3-2.5-123.8-18.3-184.3c-4.4-17.1-11.1-25.8-30.4-19.9
			c-18.6,5.7-45.2-4.7-55.8,10.7c-9.2,13.3,6.9,34.5,11.1,52.3c43.7,185.1-44.8,343.9-231.8,417c-61.2,24-123.9,37-189.7,37.3
			c-208.8,0.8-417.5-6.6-626.3-9.8c-98.3-1.5-197.1-10.8-294.6,9.4c-67.3,13.9-123.5,45.7-157,108.9c-20.2,38.1-29.2,78.1-10.9,119
			c8.2,18.2-2.4,22.4-13.7,28.5c-16.5,8.9-18.2-6.1-21.7-15c-18.6-46.7-14-93,6.8-137.5c43-92.3,122.1-133.9,218-145.6
			c127.5-15.6,255.6-5.2,383.5-3.3c165.4,2.4,330.9,5.8,496.3,8.6c87.4,1.5,169.1-19.5,246.7-59.9
			c145.2-75.6,206.4-240.4,144.8-392.7c-5.6-13.9-12.8-20.7-28.4-18.5c-11.6,1.7-23.6,1.5-35.4,1.5c-41.8,0.2-42.2,0.2-40.5,40.5
			c5.8,138.6-56.9,234.8-180.6,294c-113.9,54.5-236.1,68.2-359.6,69c-131.9,0.8-263.8-4.9-395.8-7.5c-111.2-2.3-222.4-5.9-333.5,6.1
			c-144.5,15.7-202.2,108.6-214.3,235.5c-1.1,11.8-2,23.6-1.7,35.4c0.5,15.3-8.3,17.3-20.7,17.7c-14.7,0.4-19.1-6.4-18-19.8
			c4.1-53.1,9-105.9,31.2-155.4c44.2-98.8,125.1-141.6,228.5-152c122.9-12.3,246-6.3,369.1-4.5c138.8,2,277.6,11.8,416.5,4.6
			c104-5.4,205.5-22.3,299-71.5c106-55.8,157.5-155.4,141-271.5c-2.9-20-50.2-44.3-67.9-34.8c-5.2,2.8-5,7.8-5.8,12.6
			c-29.9,192.7-157.1,279.9-336.3,312.2c-62.3,11.2-124.6,17.2-187.9,15.4c-221.6-6.3-443.2-3.2-664.9-3.4
			c-46.3-0.1-92.7,3.9-137.1,18.5c-111.3,36.6-164.2,144.3-124,254.6c7,19.3-1.2,23.8-14.4,30.2c-17.7,8.6-17.2-7.4-20.7-15.7
			c-54.2-129.1,23.9-274.7,167.1-310.9c55.8-14.1,113.2-15.3,170.3-15.2c235.1,0.4,470.1,3.6,705.2,1.8
			c80.8-0.6,160.1-19.8,234.3-53.7c103.2-47.2,154.4-132.5,171.8-241.5c2.3-14.3-2.5-20.5-16.2-25.7c-47.7-18.2-47.5-18.9-62.1,29.1
			c-38,124.7-134.1,192-277,204.8c-253.3,22.7-507,30.1-761.1,36c-109,2.5-217.9,15.1-325.7,34.1c-12.5,2.2-24.9,5.8-37,9.8
			c-74.8,24.4-110.5,80.4-102,158.5c3.9,35.5,13.3,69.6,24.8,103.1c5.6,16.3,0.8,22.1-14.3,27.8c-19.3,7.3-19-6.6-22.2-17
			c-13.9-44.1-26.7-88.3-26.4-135.4c0.5-85.5,44.1-145.8,126-172.2c67.1-21.7,137.3-24.7,206.5-33.5
			c185.2-23.6,371.8-13.1,557.5-23.4c143.5-7.9,287.5-12,429.4-36c106.5-18,175.7-94,193.8-200.1c3.2-18.8-2.7-29-19.3-36.9
			c-17.5-8.3-36.9-29.8-49.9-26.1c-15.6,4.4-12.9,33.7-19.4,51.8c-17.3,48.7-39.3,94.6-74.8,132.8c-50,53.8-112.4,76.2-185.2,75.6
			c-327-2.8-654-5.1-981-6.8c-54.1-0.3-108.3,2.7-161.2,16.2c-130.5,33.4-193,139-159.9,270.2c18.1,71.8,57.8,129.1,119.9,169.3
			c16.5,10.7,14.2,18.1,6.4,31.8c-10.6,18.5-19.8,5.3-27.8-0.4c-101.2-71.5-151.7-168.9-142.6-293.3c8.3-113.6,88.6-194,214.1-218.9
			c49.4-9.8,99.6-12.6,149.9-12.3c315.2,1.8,630.5-0.5,945.5,7.4c158.9,4,224.5-72,264.4-196.7c3.9-12.2,6.8-24.6,9.7-37.1
			c4.9-20.3-10.8-49.3-29.1-56c-6.3-2.3-9,1-12.1,4.6c-58.4,68.6-138.2,106.7-215.4,146.8c-120.8,62.7-251.5,81.2-386.5,75.2
			c-138.7-6.2-277-21.7-416-19.4c-116.1,1.9-232.5,3.4-346.7,28.5c-141.6,31.2-232.1,141.1-243.9,285.7
			c-10.7,130.3,37.5,236.2,122.5,329.8c10.3,11.3,22.8,14.8,36.7,15.8c39.4,2.8,79,5.5,117.7-3.6c23.9-5.6,19.9,12.7,23.5,23.6
			c4,11.8,3.9,22.6-13.4,25.7c-204.7,36.3-429.3-74.5-481.2-292.6c-56.6-238,74.1-458,314.9-537.9c35.6-11.8,72-20.2,109.3-24.3
			c11.7-1.3,20.9-1.8,19.1-18.3c-15.2-133.9,78.6-229.3,181.3-271c39.4-16,79.9-27.5,121.4-35.8c14-2.8,20.9-8.7,21.5-23
			c0.5-13.8,2.8-27.5,2.9-41.2c0.7-83.2-23.8-110.9-106-120.6c-78.6-9.3-157-11.8-234.8,7.7c-58.8,14.7-110.1,42.6-151.1,87.4
			c-70.1,76.4-67.2,172.5,6.5,244.9C456.3,1881.6,467,1891.5,478.9,1902.7z M1994.6,1705.9c105.9-181.4,270.1-242.4,469-234.4
			c-49.6-24.2-102.7-26.1-155-32c-11.2-1.3-23.4-2-25.4-15.1c-2.3-14.6,10-19,21.3-23.8c18.2-7.7,39.6-6.2,60.8-20.5
			c-37.6-0.7-69.3-7.3-99.5-19.8c-13.9-5.7-27.7-13.9-26.4-31.4c1.2-16.3,15.4-21.5,28.9-25.6c9.4-2.8,19-4.8,28.5-7.2
			c40-10.2,79.9-20.5,120-30.4c15.2-3.8,30.7-9.8,29.6-27.4c-1.2-19.7-21.1-13.9-32.9-15.6c-16.3-2.3-33.4-0.5-50.1,0.2
			c-46.2,2.1-92.3,4.7-138.5-2.5c-31.2-4.8-58.6-16.6-81.6-38c-20.8-19.3-19.7-31.9,4.5-45.4c40.7-22.8,84.4-36.1,131.4-38.7
			c41.2-2.3,82-7.9,125.9-26.1c-24.3-9.7-43.3-16.9-61.9-24.9c-21.2-9.1-39.6-21.7-51.3-42.5c-20.4-36.2-7.3-59.2,34.1-59.1
			c50.2,0.2,100.4,1.2,150.6,1.1c12.3,0,25.5,2.1,39.1-8c-64.7-37.5-132.4-61.9-203.1-79.5c-19.2-4.8-34.8-3.5-52.4,7.3
			c-56.4,34.3-119.7,52.9-183.6,38.2c-47.7-11-76.4,2-109.3,33c-46.2,43.4-106.1,61.8-169.5,70.6c21.2,71,7.5,135-33.3,192.3
			c-64.5,90.6-154.6,136.1-265,134.9c-110.3-1.2-189.7-65.7-207.8-161.6c-7.7-40.9,2.4-79.8,15.4-119.7c-18.7,0-35.3,0.4-51.8-0.1
			c-15.4-0.5-36.6-8.8-44.8-1.7c-12.4,10.9,1.5,30.8,2.7,47c7.5,102.2-31,188.4-90.7,267.6c-24.2,32.2-51.7,62.2-67.3,100
			c-27.6,67,0.1,116.8,71.3,125.5c88.5,10.8,176.9-1.2,265.3-3.9c131.8-3.9,263.3-18.6,395.3-8.2
			C1875.6,1587.4,1957.4,1607.8,1994.6,1705.9z M2029,199c-103.6-19.4-201.1-29.6-299.5-31.4c-171-3-340,17.3-507.3,49.7
			c-112,21.6-219.1,58.8-307,135.7c-152.8,133.7-192.4,309.2-182,502.5c0.8,14.5,8.5,15.4,19.4,14.3c51.1-5.1,102.4-3.2,153.5,0.1
			c19.7,1.3,22.8-6.2,22.1-23.5c-1-24.5-1.1-49.4,2-73.7C972.5,444,1305,269.8,1600.6,421.4c15,7.7,24,7.2,35.3-5.1
			c12.2-13.2,28.9-20.1,46.4-24.5c38-9.5,76-7.8,114.1-0.2c213.9,42.6,326.4,238.5,253.5,443.3c-6.3,17.8,2.9,17.8,13.9,19.8
			c81.2,14.8,152.7-7.1,213.3-61.2c78.1-69.8,108.1-162,114.9-263.4c4.3-63.6-14.6-95.1-73.2-120.3c-101-43.5-206.2-71.3-315.6-82.9
			c-34.9-3.7-69.9-6.2-110.5-9.8C1933.8,270.8,1975.3,234,2029,199z M2009.2,277.3c103.5,12.8,199,35.4,290.9,71.8
			c37.1,14.7,77.4,25.9,103.6,58.7c12.9,16.1,25.1,16.5,42.9,12.9c126.5-26.3,249,43.1,291.5,164.2
			c55.7,158.9-62.6,305.2-229.4,283.8c-54.4-7-106-22.7-152.8-51.2c-23.1-14.1-32.1-4.7-41.5,15.1c71.9,17.6,139.7,40.9,202.5,76.6
			c17.1,9.7,44.6,18,38.6,42c-5.8,23.4-33.7,19.4-53.5,19.8c-53.1,1.1-106.3,0-159.5,0.8c-10.6,0.2-26.7-7.5-30.8,6.6
			c-3.6,12.6,7.9,23.7,18.7,31.1c8.9,6.1,18.4,11.6,28.3,15.6c20,8.2,40.5,15,60.6,22.9c10.2,4,20.6,9.4,21.6,21.8
			c1.1,14.2-10.1,20.4-20.9,25.6c-19.6,9.4-40.9,13.5-61.9,18.4c-51.4,11.9-106,4.7-155.5,27c-13.7,6.2-39.2,7-37.8,21.1
			c1.6,15.8,24.8,22.8,41.9,27.6c40.5,11.3,81.9,8.8,123.3,7.4c34.4-1.1,69-3.4,103.2,1.3c19.3,2.6,37.4,10.2,39.2,33.3
			c1.8,23.5-7.1,42.6-29.9,52.6c-8,3.5-16.7,5.4-25.2,7.7c-47.7,12.6-95.5,25-147,38.5c18.5,14.2,36,16.8,53.1,19.6
			c66.5,10.8,133.4,7.8,200.4,6.3c7.9-0.2,21.6-7.6,23.4,8.6c1.7,15-11,17.1-21.4,19.1c-16.4,3.2-33,4.8-49.5,7.8
			c-37.1,6.6-74,13.7-111,20.6c75.3,13.2,138.8,48.4,204.8,81.3c78.6,39.2,145.1,84.6,172,177c9-12.8,15.7-21.1,21-30.3
			c92.4-158,56.1-328.7-44.1-470.5c-8-11.3-14.8-8.5-24.7-3.8c-87.1,41.3-176.5,40.6-267.4,14.2c-13.3-3.8-26-4.7-16.7-24
			c6.4-13.4,5.3-32,30.6-22.1c18.8,7.4,40,9.4,60.3,12.5c135.9,20.2,247-41.5,291.3-166.1c23.4-65.8,36.6-134.5,39.1-204.9
			c5.5-154.2-48.4-289.4-133.1-414.1c-50.6-74.5-115.3-134.9-199.1-170.7c-149.7-63.9-292.2-41.5-428.4,40.5
			C2050.6,243.7,2028.5,254.6,2009.2,277.3z M2450.4,2111.9c62.6-2.6,153.7-10.5,243.3-30.4c67.6-15,111.1-55.5,129.2-123
			c22.7-84.4-22.4-163.9-105.6-186.1c-6.1-1.6-11.1-3.1-16.5,0.7c-47.9,34-102.3,30.8-156.1,25.3c-42-4.3-79.6,2.1-114.4,27.2
			c-22.3,16-23.2-11.5-33.4-19.4c-13-10-2.7-15.2,5.4-21c39.9-28.7,83.5-42.4,133.1-37.4c27.3,2.8,55,4.4,82.5,3.5
			c65.5-2.2,91.7-47.1,62-105.1c-32-62.5-87.4-95.2-152.5-111c-111.8-27.2-222.4-19-324.5,34.6c-107.8,56.6-184.2,139.9-190.2,270.5
			c-1.1,23.6-3.7,47.3-12.2,69.5c-6.8,17.8-0.5,28.9,12.3,40.9C2127.9,2058.4,2262.7,2115.4,2450.4,2111.9z M1013.6,1438.3
			c18.5-37.7,42.8-67.4,66.4-97.6c34.2-43.8,61.5-91.2,75.8-145.4c37.9-144-37-255.8-183.5-271.3c-117-12.4-234-12.2-349.5,12.9
			c-104.5,22.7-196.7,68.5-264.3,154.8c-37.5,47.9-54.3,100-25.5,159.1c16.9,34.8,12.6,68-6.9,101
			c-72.4,123.1-106.7,257-110.8,399.1c-2.3,80.2,42.3,121.9,126.3,117.7c-2.2-3.9-3.5-7.4-5.8-10.3c-44.7-55.6-58-119.1-47.3-188.5
			c12.3-79.9,49.8-145.8,110-199.6c110.8-98.9,238.5-150.9,388.4-138.2C873.2,1339.4,946.6,1377.9,1013.6,1438.3z M1234.3,2029.5
			c156,13.7,307.4,15.6,459,7.8c40.2-2.1,80.3-4.9,120.2-12.3c79.4-14.7,123.4-63.9,142.8-139.1c9.3-35.8,10-72.4,4.9-108.6
			c-12.9-91.1-48.4-128.3-135-142.7c-24.2-4-48.9-6.3-73.4-7.2c-107-4.2-213.7,5-320.5,8.5c-107.1,3.5-214.2,18.2-321.4,3.9
			c-73.3-9.8-114.2-56.6-114.9-129.8c-0.1-13.1-3.7-22.1-12.7-31.1c-42.2-41.5-90.8-72.5-148.3-87.4
			c-122.3-31.8-233.9-2.1-337.3,64.2c-74.7,47.8-135.2,108.3-156.5,198.9c-4.7,19.9-8.2,39.9-2.9,60.1c6.4-26.7,16.5-51.1,30.2-74.1
			c47.5-80,120.1-125.4,208.1-148.6c98.2-25.9,197.4-19.5,296.1-4.2c47.5,7.3,78.5,38.5,96.4,82.6c13.3,32.7,16.3,67.6,10.5,101.4
			c-5.1,29.3,4.5,35,30.7,32.3c23.5-2.5,47.1,1.6,70.4,6.3c96.1,19.7,168,84.8,182.2,167.4
			C1271.8,1929.7,1261.8,1979.4,1234.3,2029.5z M898.6,298.5c-98.6-46.8-200.7-61.6-305.9-41.5C423,289.4,296.4,380.9,239.5,547.5
			c-58.8,172.2-18,329.3,94.3,469.8c9.2,11.6,14.8,10.4,24.9,0.7c73.1-70.2,161.8-110,259.8-130.9c21-4.5,48.8-2.2,61.4-15
			c14.7-14.9,1.1-42.9,1.3-65.2c0.4-46.5-0.4-46.5-46-48.5c-117.1-5.3-204.3-89.3-219.7-211.7c-14-111.1,47-202.5,159.8-237
			c78.1-23.9,157.1-21.7,230.6,12.5c39.6,18.4,65,12.8,90.1-18.1C896.6,303.3,896.9,302.3,898.6,298.5z M411,2820.4
			c-76-108-101.6-213-93-318.7c12.8-157.8,112.5-282.5,266.4-317.9c118.7-27.3,240.1-28.3,361.2-30.6
			c145.9-2.8,290.9,15.3,436.5,19.3c124.2,3.4,242.8-17.5,354.4-73.3c7.1-3.5,17.5-4.1,19.6-15.6c-109.6,6.8-218.8,10.9-328,6
			c-84.6-3.8-169.2-14.1-253.5-11.6c-54,1.6-95.9-12.1-133.7-47.6c-21.2-19.9-46.3-33.1-74.8-39.3c-31.9-6.9-44.7,0-56,30.1
			c-36.3,96.7-161.9,139.5-249.8,82.5c-23.2-15-44.7-17.4-69.2-13.9c-19.5,2.8-38.9,6.3-58,10.8
			c-225.4,52.1-361.3,237.8-331.2,456.5C219.5,2684.6,294.7,2769.5,411,2820.4z M1507.4,1286.1c102.4,0.1,203.1-65.2,238.4-154.4
			c34.2-86.5-5.6-169-94.4-195.8c-114.3-34.5-259,36-301.6,147.3c-9.2,24-14.4,49-10.8,75.1
			C1349.9,1236.9,1414.7,1286.1,1507.4,1286.1z M1471.1,806c22.5-43.7,44.3-86.5,66.8-129c4.9-9.2,5.5-15.7-3.8-22.5
			c-23-16.8-45.6-34.2-68.2-51.4c-6.2-4.7-12.1-7.8-16.3,1.9c-18.1,42.2-46.5,83.7-50.2,127.2c-2.2,25.7,42.4,47.4,65.7,71.2
			C1465.7,804,1466.9,804.1,1471.1,806z M1604.8,516.4c-2-37.7-1.7-38.3-21.5-48.6c-17.4-9-35.4-17-53.5-24.7
			c-10.3-4.4-11,6.3-13.5,11.4c-12.2,25.8-23,52.2-35.3,77.8c-5.3,11.1-2.9,18,6.4,25c22.9,17,45.4,34.6,68.3,51.6
			c4.9,3.7,11.8,10.9,16.4,0C1584.6,578.7,1610.9,553.2,1604.8,516.4z M1279.8,865.2c16.1-36.1,31.1-70.2,46.4-104
			c4.3-9.5,7-17.9-2.2-26.6c-18.6-17.6-36.5-35.9-55-53.5c-4.4-4.2-10.1-12.6-15.5-0.8c-17.2,37.4-46.4,74.6-47.3,112.4
			C1205.6,820.6,1250.7,840.2,1279.8,865.2z M1343,688.9c14.8,3.1,15.9-2.2,17.8-6.5c15.8-35.7,31.3-71.5,47.6-106.9
			c4.1-8.8,3.2-14.3-4.6-19.9c-22.2-15.8-43.5-42.9-66.5-44.2c-16.8-1-21.7,38.9-33.2,59.9c-0.9,1.7-1.8,3.4-2.6,5.2
			c-25.2,57.4-28.7,35.9,15.3,82.1C1327.6,669.9,1337.3,682.2,1343,688.9z M1374.1,785.8c-7.5,1.5-8.2,8.1-10.6,13.2
			c-8.1,17.8-16,35.6-23.8,53.5c-22,51.1-20.9,50,19.3,88c20.6,19.5,33,12.9,46.1-5.7c46.9-66.7,46.1-75.5-11.6-131.9
			c-4.2-4.1-8.3-8.3-12.6-12.3C1378.8,788.7,1376.3,787.3,1374.1,785.8z M1178.4,842.7c-13.9,29.7-26.6,57.1-39.6,84.3
			c-2.9,6-2.8,10.7,1.7,16c12.1,14.1,22.6,29.9,36,42.7c22.1,21.1,43.5,16,55.2-11.3c26.1-60.7,26-60.6-25.4-105.9
			C1197.6,860.7,1189.2,852.7,1178.4,842.7z M1160.4,567.8c-18.5,50.6-33.8,91.6-48.4,132.9c-3.5,9.9,38.8,58,48.3,55.3
			c3.5-1,6.3-6.6,8.2-10.7c14.9-32,29.3-64.3,44.3-96.3c4-8.5,7.1-15.1-1.1-23.6C1195.4,608.6,1180.5,590.6,1160.4,567.8z
			 M1602.9,749c0-12.9-0.5-18.8,0.1-24.6c1.3-11.8-0.6-22.9-13.2-26c-12.1-2.9-12.5,10.2-16.1,17c-18.4,34.5-36.5,69.2-53.3,104.5
			c-4.4,9.2-19.6,19.4-6.4,30.3c14,11.6,21.9,34.1,47.3,28.7c13.1-2.8,27,0.2,28.8-20.3C1593.4,819.8,1599,781,1602.9,749z
			 M1292.1,478.6c-0.1-12-39.9-40.2-52-38.6c-26.7,3.5-64.9,53.2-61,79.9c0.5,3.5,3.2,7.2,5.8,9.8c15.2,15.3,30.6,30.4,46.2,45.4
			c3.9,3.8,10,10.7,14,2.7C1261.6,544.6,1277,510.7,1292.1,478.6z M1881,772.2c-21.9-16.1-42.5-30.8-62.6-46.3
			c-9.1-7-15.2-4.4-23,2.1c-22.5,19-45.7,37.2-70.1,57c20.5,15.3,39.8,28.8,58.1,43.5c10.6,8.5,18.5,7.3,28.4-1
			C1833.7,809.1,1856.3,791.8,1881,772.2z M1841.7,867c8,13.3,21,19.1,31.8,27.1c39.4,29,39.6,28.8,75.1-3.4
			c43.8-39.7,43.3-39.3-4.5-74.1c-15-10.9-25.8-13.1-40.5,0.4C1884.1,834.9,1862.5,850.3,1841.7,867z M1001.9,684.4
			c-21.7,58.4-28.8,115.9-24.7,175c0.5,6.8,1.1,15.1,10,15.5c8.5,0.4,10-7.9,12.3-14.2c15-40.3,29.7-80.7,44.9-120.9
			c3.5-9.4,2.8-16.9-5.2-23.5C1027.2,706.5,1015.6,696.2,1001.9,684.4z M1983.2,690.8c-55-61.4-69.7-63.3-121.6-16.4
			c-0.7,0.7-1.5,1.3-2.3,1.8c-11.7,6.8-8.1,11.8,0.5,19.2c57.1,49.4,56.9,49.6,114.9,3.3C1977.6,696.4,1980.3,693.5,1983.2,690.8z
			 M1138.2,811c-8-16.4-24.8-25.5-36.9-38.5c-8.4-9-13.9-8.3-18.3,3.8c-11.5,32.1-23.2,64.1-35.2,95.9c-3.9,10.4-1.8,18,9.2,19.6
			c13.4,2,28.6,22.5,38,8.3C1112.6,873.7,1123.3,842.7,1138.2,811z M1433.7,515.9c5.1-10.5,9.4-19.1,13.4-27.9
			c32.5-71.2,31.8-71-46.9-72.8c-23.1-0.5-29.7,10.9-37.6,27.8c-9.1,19.4,6.7,24,16.5,31.8C1396.5,488.8,1414.8,501.8,1433.7,515.9z
			 M1654.4,713.8c-7.4,18.4,8.2,24.9,19.6,34c14.7,11.8,20.8-4.4,29.7-9.6c9.2-5.4,16.7-13.7,25.2-20.4c37.6-30,38-30.4-1.4-57
			c-8.8-5.9-17.6-22.2-29.9-11.9C1677.4,665.7,1647.7,677.5,1654.4,713.8z M1744.6,607.8c54.9,52.2,56.2,52.5,95.4,20.1
			c32.4-26.8,31.3-25.5-0.7-53.3c-21.1-18.3-37.4-24.2-57.4,0.5C1771.7,587.7,1757.3,596.9,1744.6,607.8z M1068.6,672.2
			c15.4-41.4,30.5-82.5,46-123.5c3-8,4.8-15.8-3.4-21c-9.8-6.1-14.3,3.8-18.7,8.9c-14.8,17-29.6,34.2-42.5,52.6
			C1016.6,636.8,1017.3,638.6,1068.6,672.2z M1689.1,820c-14.4,0-50.1,36.1-51.4,47.9c-1.1,9.4,1.7,13.7,11.5,16.4
			c17.9,5,34.9,12.9,52.7,18.4c21.7,6.7,28.5-16.6,43.7-23.5c4.2-1.9,10.1-8.1,6.5-11.1C1730.9,850.8,1708.8,834.8,1689.1,820z
			 M2444.1,804.1c15.5,4.2,26.7,7.6,38,10.2c37.2,8.6,59.9-2.3,76.7-34.8c3.8-7.3,0.7-10-3.4-14.5c-33.9-37.1-45.6-37.2-78.2-0.2
			C2467,776.5,2457.2,788.5,2444.1,804.1z M2630.4,515.9c-1.6-2.7-2.6-4.2-3.5-5.8c-16.6-28.7-54-31.4-73.8-5.4
			c-5.9,7.8-11.8,15.5-17.5,23.4c-2.8,3.8-8.1,8.8-4,12.6c13,11.6,25.9,24.4,41.3,31.9c11.7,5.7,16.6-10.4,23.5-17.4
			C2608.5,542.7,2619.3,528.9,2630.4,515.9z M1026.6,1833.4c28.8,1.4,43.2-18.1,42.6-61.9c-0.4-25.2-24.5-16.2-38.3-18.3
			c-25.5-3.9-31.8,7.3-35.6,62.1C993.3,1843.2,1017.7,1827.1,1026.6,1833.4z M2393.8,782.5c4.7-4.4,9.1-8,12.9-12.2
			c17-18.9,33.1-38.6,50.8-56.8c10.9-11.2,8.1-19.4-3.7-24.7c-10.7-4.7-18.1-28.2-35-6.2c-17.4,22.7-29.7,48.1-44.4,72.3
			c-3,5-7.6,10.4-1.6,15.4C2378.7,775,2386,778,2393.8,782.5z M1889.3,483.5c-10.9,9.4-27.3,18.7-36,32.7
			c-6.5,10.6,11.8,14.4,18.6,21.4c8.8,9,20.1,15.5,29.7,23.8c7.3,6.3,13.8,6.1,20.3-0.3c10.2-10,25.8-15.1,29.8-30.3
			C1953.5,524.8,1901.2,484,1889.3,483.5z M551,491.5c-15.7,12.6-33.9,30-32.1,42c3.6,23.8,33.3,28.1,51.3,41.7
			c5.5,4.1,13.8,13.6,19.4,2.9c7.3-14,26.9-29.7,16.4-43.6C592.6,516.5,569.9,505.6,551,491.5z M2544.4,691.6
			c0.3,4.5,49.8,42.9,53,40.4c15.4-12.2,27.9-27.3,37.5-44.4c1.8-3.2-43.7-39.9-49.1-40C2580.7,647.4,2544.1,686.3,2544.4,691.6z
			 M2664.3,555.9c-11.8,6.4-18.8,18.6-27.2,29.1c-6,7.6-22.5,15-14.5,24.5c12.8,15.2,29.1,31.9,49.1,34.4
			c10.4,1.3,22.4-14.4,23.7-29.5C2696.4,602,2671.9,556.3,2664.3,555.9z M923.7,1829c35.3-6.5,20.6-37.9,28.5-57.1
			c3.7-9.1,1.3-13.3-10.7-13.2c-37.6,0.1-58.7,14.9-59.2,47.3C881.8,1838.2,910.4,1818,923.7,1829z M1765.6,522.3
			c-4.7-11.5-16.1-14.5-23.4-21.9c-7.5-7.5-13.6-4.2-20.1,1.7c-12.4,11.1-26.5,20.6-37.2,33c-5.4,6.3-28.5,9.2-10.6,24.9
			c11.5,10.1,23.2,26.3,41.5,7.4c12.9-13.3,27.9-24.5,41.9-36.7C1760.6,528.2,1763,525.2,1765.6,522.3z M661.9,442.7
			c-0.3-6.8-39-31.8-47.6-32.3c-5.1-0.3-34.1,32.4-33.7,38c0.3,4.9,49.5,42.1,53.4,39.3C649.7,476.3,652.2,456.5,661.9,442.7z
			 M815,383c-0.3-5.7-35.2-23.3-45.8-23c-6.4,0.2-36.7,42.8-33.9,51.2c5.5,16.6,23.8,17.5,36.6,25.3
			C774.7,438.2,815.2,387.4,815,383z M685.5,651.6c4-0.9,7-0.9,7.4-1.8c5.9-15.2,16.7-34.1,7.9-46.5c-10.7-15.3-27.3-29.6-48.7-32.4
			c-1.5-0.2-4.2,4-5.2,6.6c-4.9,12.4-21.8,26.7-13.9,35.9C647,629.6,668.4,639.7,685.5,651.6z M680.6,1941.4
			c-16.6-3.9-24,3.8-25.4,19.4c-1.1,12.6-3.1,25.1-4.2,37.7c-1.1,13,3.9,18.4,18.4,19.3c39,2.6,28.1-28.4,34.6-47.9
			C711.4,1947.5,702.1,1939.2,680.6,1941.4z M750.1,482.6c0.3-0.9-5.2-2.5-8.8-5.3c-24.8-19.3-32.6-17.5-47.6,10.8
			c-18.3,34.6-16.4,40.6,16.6,58c5.5,2.9,10.2,6.7,13.8-1.5C732.1,525.7,739.9,506.8,750.1,482.6z M560.1,636.7
			c1.3-9.2-5.3-11.3-9.6-14.3c-17.7-12.1-35.7-23.7-53.7-35.3c-4.6-3-9.8-8.4-15.4-3.3c-4.9,4.4-3,11.1-0.8,16.5
			c8.1,20.1,18.9,38.7,34.6,53.7c7.2,6.9,14.3,22.5,24.4,15.6C549.7,662.6,554,647.2,560.1,636.7z M2497.1,658.8
			c7,0.6,45.6-38.3,43.2-42.8c-8.8-15.9-25.7-23-39.7-33.1c-3.9-2.8-40.3,38.2-38.1,44.6C2468.3,644.5,2486.8,648.3,2497.1,658.8z
			 M1853.6,944.4c-49.7-46.8-51.4-47.5-81.6-22.7c-6.6,5.4-20.7,8.5-14.4,21.4c5.2,10.5,13.8,18.3,28.1,16.1
			C1807.8,955.7,1830.1,953.8,1853.6,944.4z M1141.2,1840.6c12.8-4.3,32.9,10,37.6-14.9c2.2-11.8-46.3-51-57.3-46.5
			c-1.4,0.6-3,2.4-3.4,4c-3.5,17-11.1,34.7-8.7,50.8C1111.1,1844.5,1130.1,1837.7,1141.2,1840.6z M1127.5,1890.6
			c-38.6-12.3-40,12.8-40.8,32.4c-1,25.7,22.4,14.7,34.6,16.6c30.7,4.7,27.5-25,29.5-39.8
			C1153.4,1880.3,1131.4,1893.2,1127.5,1890.6z M805.5,1972.4c6.3-19.9-8.3-17.8-21.1-20c-36.8-6.2-29,22.4-33.9,41.6
			c-2.9,11.6-2.2,17.4,12.7,17.7C798,2012.5,802.7,2009.2,805.5,1972.4z M1014,1884.2c-32.1-11-35.8,9.6-35.5,26.1
			c0.5,25.8,24.1,15,37.7,17.8c25.1,5.1,22.3-17.3,23.8-30.5C1043.1,1869.2,1018.7,1888.5,1014,1884.2z M675.4,704.1
			c-22.3-14.8-40.5-29.5-61-39.7c-20.4-10.2-16.7,14.3-24.7,22.1c-7.7,7.5-3.5,14.8,6.5,16.3C620.9,706.6,645.6,714.5,675.4,704.1z
			 M2025.3,722c-17.4,13.7-31.3,25.7-46.4,36c-15.1,10.4-9.8,16.4,1.8,25c30.7,22.9,32.7,22.7,40.4-14.2
			C2024.1,754.8,2029.6,740.8,2025.3,722z M902.7,1875.6c-17.5-2-32.6-7.5-34.1,18.6c-1.7,30.5,21.2,17.6,33.6,21.8
			c23.2,7.9,28.2-7.9,29.3-26C933.3,1860,908.6,1884.9,902.7,1875.6z M711.7,345.1c-19.4,0-34.1-1.1-48.5,0.3
			c-13,1.2-24.3,12.5-16.9,22.7c7.7,10.7,23.9,17.6,37.6,20.9c11.6,2.8,11.8-13,17.1-20.4C704.8,363.2,706.6,356.5,711.7,345.1z
			 M2438.4,473.2c21,12.5,32.6,33.2,50.2,30c12.8-2.3,23-20.9,26.8-38.1C2490.7,461.9,2468.5,465.1,2438.4,473.2z M1345.3,990.4
			c-13.9-11.1-23.1-16.7-30.1-24.4c-14.2-15.8-23-13.8-28.3,6.5c-2.6,9.8-15.4,19.2-7.3,28.7c6.3,7.4,18.5,0.2,27.8-0.9
			C1317,999.3,1326.2,995.6,1345.3,990.4z M2012.4,645.9c1.4-0.9,2.8-1.8,4.2-2.7c-6.3-16-11.8-32.3-19.2-47.7
			c-3.3-7-4.8-20.6-15.4-17.3c-9.3,2.9-18.9,11.6-23.6,20.4c-4.1,7.7,7.8,11.6,13.2,16.1C1984.7,625.7,1998.8,635.6,2012.4,645.9z
			 M1773.5,459.8c36.2,32.7,36.2,32.7,65.8-5.5C1816.4,450.3,1795.7,430.6,1773.5,459.8z M797.4,1870.6
			c-21.9-8.4-27.4,0.6-28.5,16.5c-1.5,22,16.1,14.4,26.4,17.4c19.1,5.6,24.1-6.8,25-21.8C821.8,1859.4,801.1,1875,797.4,1870.6z
			 M468.4,514c12.6-16.4,21.6-29.2,31.6-41c11.7-13.9-0.4-17.4-8.6-23.9c-12.1-9.6-15.1-0.8-17.9,8C468.3,473.5,462.1,490,468.4,514
			z M2655.2,776.9c16.8-11.9,24.3-28.9,32.4-45.5c2.1-4.2,0.2-8.6-3.7-9.6c-17.4-4.4-17.3,15-27.3,21c-4.8,2.9-8.2,8.4-12,12.9
			c-3.3,3.9-6.1,8.4-1.4,12.8C2646.7,771.8,2651.1,774,2655.2,776.9z M561.2,388.1c1.1-8.6-6.5-11.5-10.7-11.2
			c-15.3,1.2-29.1,10.2-34.3,23.1c-3.6,8.8,13.3,18.1,19,17.1C549.4,414.7,552.8,398.1,561.2,388.1z M831.2,1787.9
			c-17.1,6.2-34.7,10.6-50,24.6C829.5,1825.6,833.6,1823.5,831.2,1787.9z M1211.9,1893.3c-11.3,12.6-12.9,26.6-17.7,39.2
			c-2.3,6.1-6.5,12.9,4.8,15.5c10.2,2.4,14.7-1.8,15.8-11.3C1216.2,1923.4,1220.1,1909.9,1211.9,1893.3z M1072.9,1988.5
			c11.6,11.1,19.5,28,37.7,25.6c3-0.4,8.4-14.2,6.2-17.7C1106.2,1979.3,1088.2,1990.4,1072.9,1988.5z M738.6,2074
			c17.7-1.5,38.8,12.1,53.7-11.4C760,2057.6,754.6,2058.4,738.6,2074z M1657.2,491.8c12.8-11.4,29.1-15.7,30.3-32.4
			c0.3-4.4-9.9-11.8-16.7-7.5C1657.6,460.2,1653.1,473.1,1657.2,491.8z M683.9,1892.7c15.6-1.8,30.1,9.6,35.7-10.1
			c1.7-6,5.7-15.7-3.1-17.8C698.6,1860.5,694.4,1876.4,683.9,1892.7z M855.2,2006.3c13.7-8.3,12.5-22,19.7-30.9
			c3.6-4.4,7.2-10.6-2.8-12.4c-5.3-1-12.4-4-14.2,4.5C855.5,1979.6,849,1991.3,855.2,2006.3z"/>
		<path class="st0" d="M871.2,1105c-0.6,40.3-31.2,68.8-72.7,67.8c-39-1-67.6-31.2-66.9-70.7c0.8-40.4,29.9-67.2,72.6-66.8
			C843.4,1035.7,871.8,1065.3,871.2,1105z"/>
		<path class="st0" d="M626,1051.1c-0.1-24.2,17.9-43.2,41.7-44.1c24.4-0.9,45.6,19.3,45.7,43.7c0.1,22.7-19.8,43.7-42.3,44.6
			C646.7,1096.3,626.1,1076.1,626,1051.1z"/>
		<path class="st0" d="M1024.4,1247.1c-0.5,23.8-19.4,42.8-43,43.1c-23.9,0.3-44.7-21.1-44.1-45.4c0.6-23.4,20.1-42.6,43.4-42.8
			C1005.7,1201.8,1025,1221.8,1024.4,1247.1z"/>
		<path class="st0" d="M1473.1,1843.6c0.3,41.5-7.9,74.7-21.3,106.4c-11,26-29.8,43.9-60.2,43.8c-30.8-0.1-48-19.7-59.4-45.1
			c-27.3-60.6-6.7-131,48.8-169.2c35.7-24.6,81.5-5.4,90.4,38.4C1473.5,1828.4,1472.9,1839.4,1473.1,1843.6z M1424.6,1850.4
			c-0.6-10.5,2.4-22.4-7.8-29.9c-4.5-3.3-8.8,1.3-12.7,4.2c-31.4,23.3-43.3,71.7-25.9,105.6c3.2,6.3,6.4,13.3,14.2,13.2
			c7.5-0.1,11.7-6.4,14.4-13C1417.1,1904.7,1422.3,1877.9,1424.6,1850.4z"/>
		<path class="st0" d="M1493.9,1915.8c1.4-38.9,6.1-73,19.2-105.2c13.3-32.9,39.5-50.3,70.2-47.9c29,2.3,49.1,22.7,56.8,58.6
			c10.5,48.7-4.6,91.5-32.8,130.2c-22.8,31.2-56.2,45.8-81,35.4C1491.8,1972.5,1494.2,1941.2,1493.9,1915.8z M1544.9,1936.6
			c34.3-16.8,56.4-67.2,47.1-104.5c-2.1-8.3-3-19-13.8-19.9c-10-0.8-15.6,7.5-18.6,16C1547.1,1863,1539.6,1898.5,1544.9,1936.6z"/>
		<path class="st0" d="M1655.2,1905.1c-1.1-34.1,5-63,14.4-91c10.6-31.5,31.2-42.6,69.7-40.1c30.5,1.9,48.2,17,53.9,48.6
			c7.5,41.9-0.1,82.4-16.3,121c-14.8,35.4-41.6,50.2-74.4,44.6c-28.1-4.9-45.8-30.9-47.2-69.5
			C1655,1912.8,1655.2,1906.8,1655.2,1905.1z M1745.9,1855.9c0-3.9,0.8-8-0.2-11.7c-2.2-8.4,2.7-20.8-13.1-21.6
			c-13-0.7-16.4,6.6-19.1,17.3c-6.2,24.8-11.4,49.8-9.6,75.5c0.6,9.2-0.3,22.1,11.7,24c10,1.6,13.6-9.5,17.2-17.4
			C1742,1900.8,1744.8,1878.5,1745.9,1855.9z"/>
		<path class="st0" d="M1406.4,1107.4c-0.2-79.2,60.9-141.6,139.1-141.9c82-0.4,145.9,62.3,145.2,142.4
			c-0.7,77.8-63.5,140.7-141.3,141.3C1470,1249.8,1406.6,1186.9,1406.4,1107.4z"/>
	</g>
</g>
</svg>
