<?xml version="1.0" encoding="utf-8"?>
<!-- Generator: Adobe Illustrator 23.0.0, SVG Export Plug-In . SVG Version: 6.00 Build 0)  -->
<svg version="1.0" xmlns="http://www.w3.org/2000/svg" xmlns:xlink="http://www.w3.org/1999/xlink" x="0px" y="0px"
	 viewBox="0 0 3000 3000" style="enable-background:new 0 0 3000 3000;" xml:space="preserve">
<style type="text/css">
	.st0{stroke:#000000;stroke-width:10;stroke-miterlimit:10;}
</style>
<g id="Layer_1">
</g>
<g id="Layer_2">
	<g>
		<path class="st0" d="M1206.1,1150.2c103.7-88.8,218.3-137.9,352.3-132.9c133.9,4.9,244.7,62.2,342.7,157
			c5.8-47.4,7.2-90.7,17.4-132.6c49.9-206.2,210.5-347.8,424.9-371.8c193.4-21.7,359.6,34.1,493.8,178.4
			c66.1,71.1,86.7,158.6,92.9,251.3c8.3,125.5,0.3,250.7-10,375.8c-13.1,159-29.8,317.6-51.8,475.7c-5.7,40.9-14.5,81.4-21.6,122.2
			c-12.1,69.7-55.1,119-108.3,160.5c-124.9,97.4-269.5,129.4-424.1,119.4c-133.8-8.7-256-50.2-354.8-145.6
			c-17.3-16.7-22.4-1.7-30.5,7.6c-78.8,89.7-173.4,154.6-292,177.9c-178.8,35.1-328.6-22.7-455.8-148.1
			c-34.8-34.4-34.1-34.3-65.6,1.2c-119.6,135.1-273.8,192.4-450.3,197.8c-120.7,3.7-235.3-20.6-339.1-84.3
			c-145.3-89.2-211-228.7-240.7-389.6c-20.8-112.8-23.1-227-18.4-341.1c6.6-160.5,14.8-321.1,37.5-480.3
			C124,1012.4,163,883.1,259.7,778.9C440.1,584.8,765.2,542.9,977,689c134.5,92.8,203.1,226.1,222.6,386.3
			C1202.5,1098.5,1203.7,1122,1206.1,1150.2z M645.8,2393.1c30.3,1.5,60.2-1.9,90-6.2c147.3-21.3,272.7-81.9,363.9-203.8
			c10.2-13.7,11.5-23.1,1.4-37.9c-43.2-64-74.4-133.9-94.2-208.5c-5.3-20.1-13.4-28.3-35.3-29.3c-59.4-2.7-116.7-17-170.8-42.3
			c-155-72.4-220.4-205.2-235.5-365.6c-25.7-272.9-12.4-544.6,39.4-814c4.5-23.3-0.5-27.1-21.6-22.6
			c-90.5,19.3-173.8,53.9-245.7,113.6c-109.7,91.1-152.7,216.3-176.7,350.2c-24.4,136-29.6,274-37.4,411.5
			c-7.9,138.8-12.5,277.7,12.1,415.6c24.3,136.4,73.8,259.5,191.1,343.9C421.7,2366.1,530.7,2390.5,645.8,2393.1z M2542.5,935.1
			c0.5,129.9-13.7,258.9-23.6,388.1c-6.5,85-22.7,168.4-55.3,247.9c-57.1,139.6-175.5,205.8-324,177.8c-29.3-5.5-35,2.4-36.6,29
			c-7.2,118.9-41.6,230-100.5,333.4c-25.4,44.7-25.7,44.6,13.9,78.5c3.2,2.7,6.3,5.4,9.5,8c179.3,141.5,499.8,139.6,678.8-2.7
			c52.6-41.8,85-92.2,96.9-160c23-130.9,37.1-262.6,51-394.5c17.8-169.2,34.4-338.6,27.2-509.1c-3.2-74.7-9.8-149.6-54.6-214.1
			c-66.3-95.6-160.3-150.5-269.6-183.5c-22.9-6.9-23.2,2.8-22,20.9C2537.4,814.9,2539.7,875,2542.5,935.1z M2054.4,1754.7
			c0.5-185.8-33-319.1-108.9-439.9c-65.2-103.8-152-182.6-269.6-224.4c-18.8-6.7-30.8-4-43,11.3c-22.7,28.3-46.9,55.4-70.1,83.3
			c-108.7,130.7-131,272.9-58.4,428.7c19.7,42.2,34.9,86.4,52.6,129.5c42.6,103.9,58.1,210.8,42.3,322.7
			c-12.3,86.8-39.1,169.4-66.9,251.8c-11.6,34.4-11.8,34.6,25.8,33c138.5-5.9,247.5-70.7,334.7-173.9
			C2006.1,2042.8,2052.9,1884.4,2054.4,1754.7z M607.3,1223.8c-2.8,99.2-1.8,182.2,7.9,264.7c9,76.7,26.8,151.3,71.5,216.1
			c65.3,94.7,160.8,135.9,271.2,150.2c22,2.8,30.4,3.7,26.5-24.7c-27.1-200.1,5-390,120.4-557.8c37.8-54.9,51.7-107.7,45.1-170.2
			c-2-18.5-3.8-37.1-6.7-55.5c-35.7-226.5-216.3-386-445.2-394c-24.1-0.8-35.6,3.6-41.2,31.3C620.2,867.5,605.1,1053,607.3,1223.8z
			 M1586.4,1075.3c-14.7-8.7-27.4-7.1-39.6-7.1c-143.1,0.7-259.3,60.6-350.5,167.3c-206.1,241.1-226.9,621.6-50.1,884.7
			c72.2,107.5,167.1,185.8,295,219.6c21.4,5.7,29.1,0,35.7-19.5c20.3-59.8,40.2-119.8,55.9-181c33.8-131.8,27.7-260.6-27.5-386.3
			c-20.4-46.4-37.6-94.1-57.1-140.9c-61.4-147.6-49-287,43.5-418.7C1520.4,1152.8,1553.3,1115.5,1586.4,1075.3z M2488.7,964.7
			c1-72.7-1.7-145.2-6.3-217.7c-1.3-20.4-6.4-30.5-28.5-29.3c-26.9,1.5-54-0.4-80.8,1.3c-205.6,13.3-363.6,146.5-404.5,343.2
			c-18.5,88.5-26.3,176.4,37.7,254c12.9,15.6,19.7,36.3,28.3,55.1c42.7,92.4,64.9,189.8,71.2,291.2c0.7,11.1-3.9,26.1,14.1,30.2
			c81.9,18.6,180.1,18.7,248.7-61.4c37.5-43.8,56.6-96.4,70.1-150.8C2480.8,1311.1,2482.6,1137.6,2488.7,964.7z"/>
	</g>
</g>
</svg>
