<?xml version="1.0" encoding="utf-8"?>
<!-- Generator: Adobe Illustrator 23.0.0, SVG Export Plug-In . SVG Version: 6.00 Build 0)  -->
<svg version="1.0" xmlns="http://www.w3.org/2000/svg" xmlns:xlink="http://www.w3.org/1999/xlink" x="0px" y="0px"
	 viewBox="0 0 3000 3000" style="enable-background:new 0 0 3000 3000;" xml:space="preserve">
<style type="text/css">
	.st0{stroke:#000000;stroke-width:10;stroke-miterlimit:10;}
</style>
<g id="Layer_1">
</g>
<g id="Layer_2">
	<g>
		<path class="st0" d="M1770.7,2827.9c-181.4-2.7-362.1-12.2-538-62.5c-56.1-16-110.2-37.5-160-68.3c-14.4-8.9-24.5-6.9-38,0.8
			c-107.2,61.4-219.1,111.5-341.8,132.5c-129.4,22.1-254.4,9.7-372.1-52.5c-141.4-74.7-218.1-194.9-228.9-351.6
			c-27-391.8-34.4-784.1-10.8-1176.5c9.6-160.3,24.1-320.2,72.4-474.6c48.8-155.8,126.6-293.4,262.1-390.3
			c140.4-100.5,292.9-124.1,455.7-59.1c28,11.2,53.4,27.6,76.8,46.4c9,7.2,15,10.2,26.4,2.3c197-137.4,397.9-119.3,600.2-13.2
			c28.1,14.7,54.3,47.3,80.9,46.8c26.4-0.5,51.4-33.6,78.3-50.3c96.7-60.1,204.6-88.2,315.7-104.3c155-22.6,310.4-25.7,465.7-1.5
			c110.6,17.2,206.9,60.1,274.6,153.9c97.5,135,90.4,302.6-19.7,436.9c-15.4,18.7-19.1,24.7,7.3,37.1
			c119.4,55.7,168,158.5,175.6,283.4c7,114.9-36.8,214.7-102,306.3c-28.9,40.6-61.1,78.5-96.3,113.8c-7.6,7.6-14.6,13.5-4.1,25.3
			c59.6,67,83.2,148.6,88.4,235.4c10.4,172.6,0,343.5-55.9,508.9c-70.6,208.9-220.3,334.4-425.4,400.5
			c-128.6,41.4-261.6,58.3-395.7,67.9C1898.5,2826,1834.7,2829.1,1770.7,2827.9z M2301.7,2720.6c38.7-9.5,69.9-22,101.5-33.7
			c14.8-5.5,22.3-14.7,27-29.3c19.6-60.7,35.4-122.5,49.9-184.6c37.4-161,44.4-325.3,49.5-489.4c2.1-66.9-7.9-133.2-49.6-190
			c-63.9-87.1-157.1-117.6-257.8-132.5c-104.8-15.5-209.1-8.1-313.9,4.4c-151.5,18.1-295.9,58.1-432.5,125.8
			c-132.2,65.5-250.7,151-357,252.9c-18.7,17.9-24.2,2-35.2-6.5c-14.2-11.1-8.6-17.8,2-27.8c114.9-108.2,241.9-198.8,384.1-268.1
			c142.5-69.4,293.6-107,450-125.9c117-14.1,234.3-19,350.4,5.5c190.5,40.2,312.9,148.8,306.2,370.9c-5,165.2-13.2,330.2-50.8,492.1
			c-12.2,52.7-26.4,104.8-39.9,157.8c3.8,0,5.8,0.6,7.2-0.1c6.6-3.5,13.2-7.2,19.5-11.2c100.9-64.1,172.2-152.5,215.2-263.6
			c62.5-161.7,73.6-330.6,66.5-501.4c-2.8-66.8-15.3-132.4-51.8-190.9c-54.2-86.8-139.1-125.6-233.2-149
			c-106.2-26.4-215.1-32.3-323.9-37.1c-250.6-11.1-497.5,7.9-732.2,105.5c-244,101.4-424.3,269.1-525.8,516.1
			c-24.2,58.8-38.4,120.1-40.1,184.8c11-1.5,15-8.5,20.4-13.3c48.7-43.5,102.8-78.6,162.6-104.8c83.8-36.7,171.2-56.2,262.9-50.2
			c139.7,9.2,214.4,82.4,229.4,222.5c14.3,133.7-4.9,263.9-40,392.5c-7.3,26.6-3.7,29.7,23.7,29.4c19-0.2,17.4-14.9,20.4-25.1
			c35.4-122.2,48.6-246.7,33.8-373.2c-9.5-81.5-24.5-161.6-85.5-224.4c-15.6-16,9.8-21.1,14.8-32c5.4-11.7,13.1-5.7,19.6,0.8
			c31.8,31.8,53.9,69.7,68.5,111.9c23,66.2,31.2,135.1,34.1,204.6c4.5,108.7-8.3,215.5-38.9,319.9c-4.5,15.4-5.8,23.5,15.2,23.2
			c32.8-0.5,65.7,1.6,98.5,4.1c16.8,1.3,25.5-4.3,30.9-20.6c24.7-74,37.6-149.3,25.5-227.1c-3.4-21.7,2.9-29.7,23.6-33.3
			c25.3-4.4,22.5,14.1,23.9,27.5c8.1,77.5,2.7,154-22.5,228c-8.1,23.8-1.1,26.8,20.1,25.3c39.3-2.8,78.8-3.4,118.2-5.6
			c65.7-3.6,68-6.3,84.3-71.3c14.1-56.4,11.2-113.7,9.5-170.9c-0.5-18.3-2.6-32,23.2-33.8c26.4-1.9,22.3,13.6,23.4,29.3
			c5.3,78.9,2.6,156.9-24.7,235c55.2-3.9,106.6-13.6,158.1-22.7c17.6-3.1,26.9-11.8,34-28.2c84-195.7,102.5-400.3,83.5-609.8
			c-3.3-36.4-8.8-72.9-24-109.2c-33.4,67.1-74.9,90.1-126.1,71.7c-42-15.1-68.3-60.9-59.3-103.3c11.9-56.1,52.3-79.2,130.4-71.4
			c-30.1-33.4-64.6-52.7-102.6-66c-112-39-225.8-31.3-339.3-9.4c-195.9,37.7-374.8,118.4-544.5,221c-15.1,9.1-23.6,13.2-34.7-6.1
			c-10.2-17.7-7.2-24.4,9.3-34.3c104.1-62.2,211.6-117.5,325.5-159.4c159.8-58.8,322.7-99,495.4-80.7
			c168.8,17.9,270.6,108.6,306.2,274.1c10.8,50,12.3,100.6,15,151.1c5.5,103.4,0.7,206.4-18.5,308.5
			C2355.6,2567.5,2332.6,2642.6,2301.7,2720.6z M2055.9,1441.2c38.5,0,77-1,115.4,0.4c18.5,0.7,22.1-5.6,19.8-22.7
			c-4.9-37.2-9.3-74.5-11.5-111.9c-3.4-59.3,4.9-116.2,44.1-164.4c40.1-49.3,113.9-64.9,164.3-33.9c6.2,3.8,22.6,7.4,13,18.6
			c-8.7,10.2-14.6,30.7-35.7,22.4c-49.9-19.7-92.8-4.7-118.6,42.3c-15.7,28.7-22.2,60-20.2,92.3c2.9,48.6,8.4,97.1,11.6,145.8
			c1,15.1,9.8,15.4,20.7,16.2c44.9,3.7,89.8,6.6,134.5,11.9c92.6,10.8,182.9,29.8,265.9,75.2c16.8,9.2,32.1,32.1,49.5,26
			c17.5-6.1,30.2-27,43.9-42.4c79.1-89.2,142-186.3,153.8-309.3c14.2-146.8-67.8-272.2-201.6-304.5c-44.8-10.8-90.8-13.7-136.8-14.2
			c-99.6-1.2-199,3.4-298.1,12.5c-103.5,9.5-207.7,16.8-307.5,49.9c-110.7,36.7-180,110.5-204.1,226c-17.8,85.5-6.7,169.7,5.3,254.5
			c3.5,24.6,12.1,28.6,34,25.4C1883.3,1444.6,1969.5,1439.6,2055.9,1441.2z M1010.9,2657.2c-8.2-7.3-14.5-12.8-20.7-18.4
			c-6.3-5.7-12.5-11.4-18.6-17.2c-91.6-87.2-134.5-194.3-131.7-320.3c2.2-97.6,29.6-188.5,73.7-274.8c9.1-17.8,6.2-24.7-11.9-32.6
			c-273.4-119.3-603.3-16.7-760.5,236.9c-9.3,15-14.3,29.7-12.9,47.6c3.6,45.8,4.3,91.9,9,137.6c11.7,113.5,52.1,212.8,147.2,283.1
			c97.8,72.2,208.4,99.5,328.7,94.1c18.9-0.9,20.7-9.9,19.6-25.2c-6.6-91-4.7-182,5.2-272.7c4.1-37.5,10.3-74.4,33.8-105.7
			c24.3-32.4,66.9-47.1,102.4-35.7c32.9,10.7,49.4,36.9,50.9,81.9c0.5,14.1,0.4,28.2,0.3,42.2c-0.3,81.7-0.9,163.3-0.8,245
			c0,8-6,25.2,13.5,17.7C897.2,2717.6,954.9,2691.1,1010.9,2657.2z M1415.3,1558.7c79.9-33.3,157.6-57.7,237-77.1
			c22.4-5.5,54.4-0.6,64.9-18.5c11-18.9-3.4-47-6.6-71.1c-13.5-103.5-15.7-206.1,27.9-304.2c6.8-15.3,0.2-19.2-11.1-24.9
			c-42.9-21.5-87-39.6-132.9-53.4c-273.8-82.2-511.3-19.3-712,182c-67.4,67.6-104.9,151.3-101.7,248.5
			c3.9,117.9,84.7,201.2,209.3,220.7c69.4,10.8,138.6,7.3,207.4-3.7c18.1-2.9,37,2,54.5-9.1c31.7-20,64.5-38.3,97.1-56.9
			c8.4-4.8,14.8-9.3,16.6-20.4c5.8-37.1,12.1-74.2,9.3-111.9c-6.5-86.6-53.9-131.1-140.5-131.7c-16.9-0.1-33.9,0.4-50.6,2.1
			c-14.6,1.5-20.7-1.3-23.2-18.2c-3.3-22.4,2.4-30,24.7-29c16.8,0.8,33.7-2.9,50.5-2.7c103.8,1.5,169.2,57.1,183.8,157.6
			C1425.3,1475.8,1421.4,1515.2,1415.3,1558.7z M171.3,882.7C98.8,1309,111.9,1735.4,124.8,2169c9.9-11.9,14.7-17.5,19.4-23.2
			c65.5-80.8,144.2-145.4,239.6-186.6c30.3-13.1,38.5-29.6,39.6-60.3c9.5-274.7,20.4-549.3,31.8-823.9c0.8-18.8-5.9-24.3-22-27.3
			c-80.3-14.8-146.3-55.7-204-111.9C211.7,918.8,193.3,902.9,171.3,882.7z M847.9,683.6c0.8,139.5,82.2,264.4,191.2,306.1
			c17.7,6.8,33.2,7.1,51.1-1c115.4-52.1,236.2-70.3,362.3-57.2c37.9,4,74-7.6,107.8-25.3c16.7-8.8,22.4-17.2,8.5-36.2
			c-40.2-55.3-53.2-118.7-48.6-186.4c5.7-82.3,36.2-154.5,88.4-217.3c14-16.9,9.6-23.5-6-33.5c-31.6-20.3-63.6-39.9-98.1-54.8
			c-160.2-69.5-319.6-81-473.6,15.3C920.2,462.5,853.8,561.3,847.9,683.6z M810.8,608.2c-12.3,14.2-21.5,25.9-31.9,36.5
			c-22.3,22.7-48.6,36.2-81,27.1c-33.8-9.5-52.4-34.1-61.3-67.2c-6.2-23.2-5-46.5-2.3-69.9c6.6-57.8,15.8-115.3,28.8-172
			c4.2-18.4,3.5-25-18.8-22.1c-81.5,10.6-153.1,43.6-216.8,93.7c-103.4,81.3-171.3,188.1-213.8,311.1c-32.5,94.2-38.4,62.5,28.9,137
			c60.3,66.8,133,112.4,224,124c93.9,12,187.4,5.8,280.5-8.1c54.5-8.2,108.4-19,163.1-37.2C819.6,859.4,783.6,744.4,810.8,608.2z
			 M1521,2442.8c-1.5-28.1-1.8-56.3-4.7-84.3c-11.9-115.6-70.7-179-175.1-184.1c-173.5-8.5-319,54.3-438.9,178.8
			c-9.5,9.8-12.5,19.8-9.9,32.9c17.7,90.3,63.9,163.1,133.9,222.1c11.4,9.6,19.9,8.8,28-1.8c53.2-69.6,108.3-137.9,94.1-235.4
			c-5.4-37.5,26.8-61.4,63.9-52.1c33.3,8.4,51.7,33.4,56,64c15.2,108.1,12.3,214-56.8,306.8c-9.1,12.2-10,17.4,6.5,22.4
			c73.8,22,148.5,39.3,225.2,48.3c19.2,2.3,25.8-2.9,31-20.8C1502.5,2642.6,1518.2,2543.9,1521,2442.8z M1643.6,498.5
			c380.6,59.3,752.9,47.6,1125.7-37.3c-51.6-88.4-128-133.7-221.6-155.3c-19.4-4.5-31-3.5-43.2,16.1
			c-40.8,65.1-153.1,66.4-187.2-1.8c-19.8-39.6-43.8-39.3-76.8-36.4c-23.4,2-46.9,2.3-70.3,3.2c-11.3,0.4-18.8,3.5-21.7,16.8
			c-9.5,43.1-37.6,68.7-80.7,75.4c-41.3,6.4-73.5-11.2-95.5-45.7c-7.2-11.3-13.4-15.2-26.9-11.6c-73.1,19.2-142.9,45.6-205.7,88.3
			C1704.6,433.8,1673.4,461.6,1643.6,498.5z M2047.8,731c-0.4,0-0.8,0-1.2,0c0-40.3-1.2-80.7,0.5-121c0.9-21.5-5.2-28.9-27.4-29.3
			c-109.8-2-219.1-11.2-327.6-27.9c-89.7-13.8-94.6-11.1-116.9,79.1c-37.1,150.6,38.5,278.1,185.3,310.1c36.5,8,75.2,15.4,110.4-1.9
			c50-24.6,101.3-44.6,156.1-54c19-3.3,21.3-12.5,21-28.4C2047.3,815.4,2047.8,773.2,2047.8,731z M2811.2,601.8
			c-0.9-18.1-4.9-46.7-12.7-74.9c-4.5-16.4-9.9-23.3-29.1-17.8c-29.6,8.5-60.4,13.3-90.7,19.3c-96.6,19.1-194.1,32.6-292.2,41.8
			c-11.8,1.1-26-1.8-25.3,20.2c2.4,76.9,3.1,153.9,3.3,230.8c0.1,20.2,4.7,26.9,27.1,25.7c97.4-5,195-8.5,292.3,3.9
			c8.7,1.1,16.2,2.3,23.1-5.2C2767.8,779.6,2811.2,705.9,2811.2,601.8z M695.5,1467.6c0.1,0,0.2,0,0.2,0
			c6.2-120.9,12-241.8,18.8-362.7c3.1-55.3,4.1-55.2-52.2-49.3c-9.3,1-18.9,2.7-28.1,1.6c-24.3-2.9-29,8.9-29.9,30.8
			c-11.5,264.4-23.8,528.8-36.5,793.1c-0.8,17.4,2.2,24,20.8,20.9c17.5-3,35.7-5.5,53.2-3.7c27.5,2.8,34.2-7.9,35.2-34.1
			C682,1732,689.1,1599.8,695.5,1467.6z M1162.9,1709.7c-116.4,10.5-223.5,6.1-321-59.1c-5.3,87.3-9.7,168.6-15.5,249.9
			c-1,14.5,4.2,19.7,16.5,23.8c28.4,9.4,57,18.7,84.3,30.7c15.4,6.8,22.7,4.4,31.3-9.6c38.9-63.4,85.5-120.7,138.1-173.2
			C1116.2,1752.6,1136.9,1734.1,1162.9,1709.7z M484.8,1490.7c-2.5,0-5.1,0.1-7.6,0.1c0,68.4,1.1,136.9-0.3,205.3
			c-1.4,69.4-5.4,138.8-7.8,208.2c-0.2,6.3-4.8,15.7,5.9,18.5c18.3,4.9,43.5-15.1,44.5-34.8c9-179.9,18.1-359.8,26.9-539.8
			c4.4-89,7.5-178.1,12.8-267.1c1.4-23.6-11.3-23.6-27.3-22.7c-13.2,0.8-29-7.9-29.9,18.8C497.4,1215.1,490.7,1352.9,484.8,1490.7z
			 M777.8,2589.5c0.2,0,0.4,0,0.6,0c0-51.5,0.2-103.1-0.1-154.6c-0.1-14.3-1.3-29.4-17.6-35c-16.2-5.6-31.8-1.6-44.3,10.2
			c-18,16.9-24.1,39.5-27.8,62.9c-14.5,93-13.2,186.6-10.8,280.4c0.7,27.6,10.6,34.3,35.8,25.3c14-5,28.9-7.8,43.6-10.5
			c15.6-2.8,21.2-10.6,20.9-26.9C777.2,2690.7,777.8,2640.1,777.8,2589.5z M678.9,569.8c2.1,19.2,1.6,46.8,30.1,55.6
			c25.3,7.8,38.7-14.3,51.2-31.1c46.3-62,73-132.1,84.9-208.4c2.2-14.4-1-21.9-15.9-26.8c-30.4-9.9-61.4-16.1-92.9-20.8
			c-13.9-2.1-20.8,2-23.7,15.8C697.9,423.8,684.6,493.6,678.9,569.8z M2317.1,719.8c-0.7,0-1.3,0-2,0c0-26.2,0.5-52.5-0.1-78.7
			c-1.5-65.4-1.6-64.5-65.8-62.3c-19.4,0.7-22.9,8.2-22.6,25.3c1.1,62.8,0.9,125.6,1.4,188.4c0.5,72.5,0.4,72,73.1,59.7
			c13.7-2.3,16.4-7.7,16.2-19.9C2316.7,794.7,2317.1,757.2,2317.1,719.8z M2094,727.4c0.5,0,0.9,0,1.4,0c0,27.1-0.1,54.3,0,81.4
			c0.3,64.6,0.3,64,64.3,57.3c18.2-1.9,22.9-9,22.6-26.4c-1.3-65.5-1.1-131-1.6-196.6c-0.5-61.6-0.5-60.9-63.1-60.3
			c-18.3,0.2-24.5,5.3-24,23.8C2094.8,646.9,2094,687.2,2094,727.4z M740.6,1518.4c-4.2,83.7-8.4,167.4-12.6,251.1
			c-1.9,38.4-4.9,76.7-5.3,115.1c-0.3,32.4,28.2,15,42.7,21.2c17.7,7.6,13.6-10.6,14.1-18.4c5.8-86,10.9-172,15.9-258.1
			c0.5-8.2,2.9-17.5-3-24.5C770.9,1578.8,756.6,1548.7,740.6,1518.4z M1229.5,2465.5c-2-32.2,0.8-61.8-13.4-88.6
			c-3-5.7-7.6-12.2-14.9-10.8c-9.6,1.8-5.5,10.7-5.1,16.3c2.7,36-0.2,71.2-13,105.2c-19.3,51.6-49.9,96.7-84.9,138.3
			c-17.5,20.8-12.1,28.6,8.4,37.1c4.3,1.8,8.2,4.5,12.3,6.7c35.6,19.2,35.4,19.1,60.2-14.9C1221.1,2597,1227.5,2530.3,1229.5,2465.5
			z M751.6,1300.9c52.8-62.9,67.5-137.5,61.8-217.5c-0.5-7.4,1.8-15.1,0.9-22.4c-1.2-8.6,8.2-26-7.7-23.6
			c-15,2.3-41.9-7.5-43.4,22.6C759,1141.2,755.3,1222.4,751.6,1300.9z M1011.2,1028.4c-28.3-8.3-43.2-34.7-72.3-26.3
			c-20.6,5.9-41.2,11.8-61.9,17.7c-7.4,2.1-13.9,4.4-13.8,14.4c0.3,34.9,0.1,69.7,0.1,106.2
			C907.3,1099.3,954.8,1062.5,1011.2,1028.4z M1577.2,954.9c55.7,17.5,110.6,34.9,161.7,62.3c33.6,18,36,16.4,55-21.7
			c-52-6.6-103.8-17.2-144.9-49.8c-27.2-21.5-45.8-18.6-67.3,3C1580.4,950,1579.5,951.6,1577.2,954.9z M2261.9,1979.2
			c0-26.4-17-43.4-43.4-43.4c-26.5,0-43.5,16.9-43.5,43.4c0,26.4,17,43.5,43.4,43.5C2244.8,2022.7,2261.9,2005.6,2261.9,1979.2z
			 M2349.8,285.9c15.6,29.9,39.1,36.9,65.1,36.1c20.1-0.6,40.9-3.4,50-28.6C2427,287.8,2390.6,284,2349.8,285.9z M2100.5,295.9
			c-30.5,1.4-58.4,5-87.3,13.1c12.8,21,29.6,25.8,49.8,22.7C2082.2,328.6,2094.8,318.1,2100.5,295.9z M892.5,392.1
			c-5.7,26.2-10.9,50.5-17.5,81c12.1-14.4,20.2-24.2,28.6-33.8C927.1,412.1,927.1,412.1,892.5,392.1z"/>
		<path class="st0" d="M1668.4,2108c0.1-51.6,39-91.6,89.3-91.8c50.8-0.2,92.1,41.9,91.9,93.6c-0.3,50.1-40.9,91.2-90.8,91.7
			C1707.5,2202,1668.3,2161.4,1668.4,2108z M1803,2109.7c0.5-24.5-19.3-45-43.9-45.4c-25.3-0.4-44.5,18.3-44.9,43.8
			c-0.4,25.6,18.1,45,43.3,45.4C1782,2153.9,1802.6,2134.1,1803,2109.7z"/>
		<path class="st0" d="M1999.8,2018.3c23.3,0.3,42.4,20.2,41.9,43.6c-0.5,23.2-20.9,42.6-43.9,41.6c-21.5-1-41-21-41.2-42.2
			C1956.4,2038.4,1976.8,2018,1999.8,2018.3z"/>
		<path class="st0" d="M2753.3,1266.1c-20.7-0.6-41.2-21.3-41.5-41.9c-0.3-22.5,20.5-42.6,43.4-42.2c23.3,0.5,42,20.7,40.7,44.1
			C2794.7,1247.7,2774.5,1266.6,2753.3,1266.1z"/>
		<path class="st0" d="M2266.3,1009c-1.8,22.8-20.6,38.9-44.2,37.7c-22.7-1.2-40.9-20.7-39.8-42.8c1.1-22.6,23.8-42.2,46.2-39.9
			C2250.5,966.3,2268,987.1,2266.3,1009z"/>
		<path class="st0" d="M2045.4,1048.9c-0.5,22-20.1,41.1-42,41.1c-23.3-0.1-42.6-20.7-41.3-44.1c1.2-23.1,19.4-39.5,42.9-38.7
			C2027.8,1007.9,2045.9,1026.6,2045.4,1048.9z"/>
		<path class="st0" d="M2622.4,1041.4c-23.8,0-40.7-16.6-40.9-40c-0.1-23,17.4-41.1,40.3-41.6c23.9-0.5,43.5,18.9,42.8,42.4
			C2664.1,1024.9,2646.4,1041.3,2622.4,1041.4z"/>
		<path class="st0" d="M2471.5,1001.3c-0.6,22.8-18.6,40-41.8,39.9c-23.2-0.2-40.4-17.6-40.5-41c-0.1-24.1,19.5-43.2,43-41.9
			C2454.8,959.5,2472.1,978.4,2471.5,1001.3z"/>
		<path class="st0" d="M2690.3,1324.5c21.8-0.4,41.5,18.7,42.1,40.8c0.6,22.3-17.6,41.1-40.3,42c-24.7,0.9-43.2-17-43-41.5
			C2649.3,1343.9,2668.2,1324.9,2690.3,1324.5z"/>
		<path class="st0" d="M2733.7,1046.5c23.2,0.4,40.4,18.1,40.3,41.4c-0.1,21.9-19.1,41-41.1,41.5c-22.9,0.5-43.1-20.5-42.1-43.6
			C2691.9,1063.3,2710.6,1046.1,2733.7,1046.5z"/>
		<path class="st0" d="M1883.9,1199.9c-0.5,23-18.4,40.2-41.6,40c-23-0.2-41-18.1-41.2-40.8c-0.2-23.8,19.2-42.3,43.4-41.3
			C1867.6,1158.6,1884.5,1176.7,1883.9,1199.9z"/>
		<path class="st0" d="M1159.5,1193.1c-22.8,0.2-41.7-17.6-42.4-40.1c-0.7-22.8,20.1-43.7,42.9-43.2c21.8,0.6,41.3,20.6,41.1,42.2
			C1200.9,1174.4,1182.2,1192.9,1159.5,1193.1z"/>
		<path class="st0" d="M1021.7,1270.2c-0.3,24.1-16.8,41.2-39.5,41c-22.9-0.2-40-18-40.2-41.6c-0.2-24.7,18.5-43.5,42.2-42.4
			C1006.7,1228.1,1021.9,1245.6,1021.7,1270.2z"/>
		<path class="st0" d="M1461.2,1110.7c0.2,24.5-15.2,42-37.6,42.8c-23.7,0.9-42.3-18-42-42.7c0.3-23.6,17.5-41.3,40.4-41.4
			C1444.8,1069.3,1460.9,1086.4,1461.2,1110.7z"/>
		<path class="st0" d="M959.6,1509.7c-23.4-0.7-40.6-18.6-39.6-41.1c1-22.9,19-39.3,42.8-38.9c23.5,0.4,41.2,17.9,41.1,40.7
			C1003.8,1493.6,984.8,1510.4,959.6,1509.7z"/>
		<path class="st0" d="M1628.4,1199.7c-0.6,23.8-19.5,40.4-44.9,39.4c-23.1-0.9-39.7-19.4-38.5-42.6c1.2-23.2,18.6-38.3,43.1-37.5
			C1612.2,1159.8,1628.9,1176.6,1628.4,1199.7z"/>
		<path class="st0" d="M1151.3,1559.9c0.4,22.8-17.3,41.4-40,42c-22.6,0.6-41.7-17-42.8-39.7c-1.2-23.8,17.2-42.5,41.8-42.6
			C1133.8,1519.7,1151,1536.4,1151.3,1559.9z"/>
		<path class="st0" d="M1268.8,745.6c-43.5-0.9-83.2,17.5-121.2,41c-11.9,7.4-23.5,15.4-35.8,22.2c-13.1,7.2-26.6,9.9-38.8-2.3
			c-12.9-12.9-10.5-27.4-2.6-41.3c7.9-13.8,17-26.9,25.9-40.1c30.1-44.9,36.2-91.4,10.6-140.7c-4.7-9-8.2-19.2-9.5-29.1
			c-2.8-22.1,13.8-37.7,36.1-35.2c16.4,1.8,30,10.4,43.5,18.9c62,39,126.8,41,193.9,15.7c21-7.9,42.1-15.4,63.4-22.6
			c14.5-4.9,28.4-2.9,38.5,9.2c11.2,13.4,7.5,27.9,0.6,42.1c-1.2,2.5-2.2,5.3-4.1,7.4c-45.7,50.1-36.6,104.1-12.3,159.8
			c8.1,18.6,27.9,39.4,4.5,58.2c-24.4,19.5-41.3-4.2-58.1-17.4C1364.4,760.9,1320.8,745,1268.8,745.6z M1153,726.3
			c82.5-40.8,163.1-36.5,247.5,5.6c-16.9-50.3-15.6-94.7,12.1-143.4c-87.6,37.2-169,43.5-252.5-5.5
			C1173.9,634,1174.2,679.8,1153,726.3z"/>
	</g>
</g>
</svg>
