<?xml version="1.0" encoding="utf-8"?>
<!-- Generator: Adobe Illustrator 23.0.0, SVG Export Plug-In . SVG Version: 6.00 Build 0)  -->
<svg version="1.0" xmlns="http://www.w3.org/2000/svg" xmlns:xlink="http://www.w3.org/1999/xlink" x="0px" y="0px"
	 viewBox="0 0 3000 3000" style="enable-background:new 0 0 3000 3000;" xml:space="preserve">
<style type="text/css">
	.st0{stroke:#000000;stroke-width:10;stroke-miterlimit:10;}
</style>
<g id="Layer_1">
</g>
<g id="Layer_2">
	<g>
		<path class="st0" d="M1029,730.4c61.6-142,151.4-260.2,270.9-355.1c192-152.6,413.9-226.1,655.8-244.6c129.5-9.9,258.2-0.9,383,36
			c233.9,69.2,388.6,218.7,445.5,459.3c47.8,202.5,83.4,407.4,77.1,616.6c-10.7,352-10.8,704.4-32.6,1056.1
			c-10.6,170.2-99.4,293.3-232.5,389.2c-126.4,91-270.8,137.2-422.8,162.6c-258.4,43.1-517.8,55.3-778.8,27.1
			c-183.7-19.8-364.2-54.9-540.1-111.5c-31.4-10.1-51.8-7.2-77.5,14.6c-168.2,142.3-342.8,159.9-556.4,54.3
			c-30.1-14.9-56.3-35.5-79.1-60.1c-54.5-58.7-61-131.4-17-198c41.1-62.2,101.5-100.8,166.1-134.6c69.7-36.5,144.1-64.3,207.2-113.2
			c180.1-139.5,273-330.5,324.4-546.3c43.8-183.8,57.5-372,83.4-558.4c7-50.8,15.1-101.4,24.5-151.8c4.8-25.9,2.9-37.7-29.1-32.5
			c-55.5,9-110.7,3.5-163.3-18.2c-66.2-27.4-99.8-77.9-98.4-148.8c0.9-47.8,12.7-93.4,34.1-136c54.3-108.2,190.4-132.6,303.6-51
			C994.7,698.7,1010.3,714.3,1029,730.4z M2257.6,2778.6c102-25.6,191.9-59.7,274.8-111.7c156.9-98.4,242.2-235.1,247.7-424.5
			c5.4-187,11.5-374.1,16.6-561.2c9-331.1,24-661.1-49.8-989.3c-56.9-252.9-195.8-416.5-447.7-480.2
			c-192.4-48.7-384.7-40.7-575.1,11.6c-347.5,95.4-587.6,305-693.8,656.3c-49.6,163.9-71.2,332.7-91,501.9
			c-19,162.4-38.5,324.7-83.7,482.5c-80.6,280.7-237.1,497.6-514.7,613.4c-52.7,22-101,51.6-142.3,92
			c-70.4,68.9-68,137.9,11.7,195.4c89.9,64.9,193.3,91.4,302.5,82.1c128-10.8,223.2-86.2,304.8-178.1
			c134.6-151.7,219.5-332.6,287.5-520.7c63.5-175.9,97.2-360.4,141.5-541.8c53.9-220.3,101.5-442.1,164.2-660.4
			c35.6-124.1,110.1-211.6,223.7-269.4c82.6-42,169.6-68.5,261.5-76.5c265.3-23.2,462.3,91.5,534.2,360.7
			c19,71.3,28.7,144.1,32,217.6c18.3,416.6-25.8,827.6-113,1234.6C2323.4,2533.1,2291.5,2651.9,2257.6,2778.6z M854.2,2710.2
			c49.2,15.1,93.8,29.2,138.6,42.4c16.8,4.9,34.3,7.4,51.4,11.4c364.7,86.8,731.8,96.9,1101.5,37.3c35.7-5.8,56.1-17.6,67.2-57.1
			c138-494.2,211.2-996.6,199.1-1510.4c-2.1-88.8-10.1-177.3-33.9-263.2c-46.3-166.8-144.7-281.8-322.7-312.8
			c-91.5-16-182.3-8.3-271.3,16.6c-170.2,47.6-288.6,142.8-334.7,325.4c-70.1,277.6-134.1,556.6-202.3,834.6
			c-45.8,186.6-92.9,372.2-181.7,544.8C1005.9,2495,942.5,2607.5,854.2,2710.2z M856,988.1c12.4,0,24.8-0.2,37.3,0
			c37.2,0.7,62.6-9.9,67.2-53.6c3-28.4,14.5-55.9,23.4-83.5c22.8-71.1,20.2-81.8-41.5-124.6c-17.9-12.4-38.2-22.7-59-29.1
			c-80.6-24.7-141.6,11.7-170,80.1C657.3,912.8,706.3,986.2,856,988.1z"/>
		<path class="st0" d="M599.6,613.4c-96.2-0.6-169-75.6-168.4-173.4c0.6-96.2,75.6-169.1,173.3-168.4
			c96.4,0.7,169.1,75.5,168.5,173.4C772.4,541.3,697.4,614.1,599.6,613.4z M603.7,561.4c65.6-1,118.1-55,117.1-120.5
			c-1-65.7-54.8-118.1-120.4-117.1c-65.7,1-118.1,54.9-117.1,120.4C484.3,509.9,538.3,562.4,603.7,561.4z"/>
		<path class="st0" d="M956.2,132.6c93.6,0.4,171.6,78.3,172.1,171.9c0.6,94.9-80.5,175.2-175,173.3c-93.9-1.9-171.3-81-170.2-174.1
			C784.3,210,862.9,132.2,956.2,132.6z M1073.9,304.9c-0.1-67.1-51.3-118-118.4-117.8c-67.1,0.2-117.9,51.3-117.8,118.4
			c0.1,67,51.3,117.9,118.4,117.8C1023,423.2,1074,371.9,1073.9,304.9z"/>
		<path class="st0" d="M359.6,897.6c-98.5,0.4-170.4-70.5-170.3-168.1c0.1-90.9,73.7-170.4,158.7-171.3
			c106.5-1.2,183.4,69.6,184.1,169.5C532.9,826.9,461.6,897.2,359.6,897.6z M358.9,847c67.7,0.6,120-49.2,121.3-115.5
			c1.3-65.7-50.9-118.5-117.7-119.1c-67.7-0.6-120,49.2-121.3,115.4C240,793.6,292.2,846.4,358.9,847z"/>
		<path class="st0" d="M416.1,1166.2c-0.1,100-69.1,171.2-166.3,171.8c-92.9,0.6-172.9-74.2-172.5-161.3
			c0.5-107.3,71-181.8,171.7-181.6C346.3,995.4,416.2,1067,416.1,1166.2z M131.1,1167.6c0.3,67,52.4,119.1,118.2,118.5
			c66.2-0.7,116.6-52.9,116.3-120.4c-0.3-67-52.4-119.1-118.3-118.4C181.2,1047.8,130.8,1100,131.1,1167.6z"/>
		<path class="st0" d="M589.8,1764.8c0.3,92.9-69.1,163.2-161.5,163.6c-93,0.3-163.2-68.9-163.5-161.4
			c-0.3-93.1,68.9-163.2,161.4-163.5C519.2,1603,589.5,1672.4,589.8,1764.8z M428.2,1876.3c61.5-0.5,110.1-49.9,109.5-111.3
			c-0.5-61.5-49.9-110.1-111.3-109.6c-61.5,0.5-110.1,49.9-109.6,111.3C317.3,1828.1,366.7,1876.7,428.2,1876.3z"/>
		<path class="st0" d="M629.3,1429c-89.9-0.2-157.8-68.7-157-158.3c0.8-86.5,70.5-155.9,156.7-156c86.6-0.1,159.6,73.7,158.1,159.9
			C785.6,1361.5,716.4,1429.2,629.3,1429z M732.6,1271.1c-0.5-57.7-45.3-101.8-103.3-101.9c-59.3-0.1-106.3,47-105.2,105.3
			c1.1,55.8,48.4,102.3,104.5,102.7C687.4,1377.6,733.2,1330.9,732.6,1271.1z"/>
		<path class="st0" d="M1813.4,1553.2c117.6,0.2,213.2,96,213.9,214.1c0.6,118.2-98.4,217.4-216.7,217
			c-119.6-0.4-215.3-97.4-214.8-217.7C1596.4,1645.9,1691.2,1552.9,1813.4,1553.2z M1972.8,1767.1c-0.7-90.2-71.3-161.4-160.6-162
			c-90-0.6-165,73.9-164.5,163.5c0.5,90.7,74,162.1,165.9,161.2C1903.7,1928.8,1973.5,1857.4,1972.8,1767.1z"/>
	</g>
</g>
</svg>
