<?xml version="1.0" encoding="utf-8"?>
<!-- Generator: Adobe Illustrator 23.0.0, SVG Export Plug-In . SVG Version: 6.00 Build 0)  -->
<svg version="1.0" xmlns="http://www.w3.org/2000/svg" xmlns:xlink="http://www.w3.org/1999/xlink" x="0px" y="0px"
	 viewBox="0 0 3000 3000" style="enable-background:new 0 0 3000 3000;" xml:space="preserve">
<style type="text/css">
	.st0{stroke:#000000;stroke-width:10;stroke-miterlimit:10;}
</style>
<g id="Layer_1">
</g>
<g id="Layer_2">
	<g>
		<path class="st0" d="M231.1,530.4c-44.1-63.2-49-116.2-16-163.6c36.3-52,101.4-74.2,169.3-56.9c11.9,3,20.1,6.8,24.7-11
			c18-68.6,64.8-107.8,133.4-119.5c68.5-11.7,124.8,11.7,167.7,66.6c2.9,3.7,6,7.4,10,12.4c28.5-30.4,60.6-52.8,101.8-60.8
			c102.6-20,191.1,44.2,201.4,147.8c1.4,14.1,3.4,23.9,19.7,18.4c10.8-3.7,30.8,12,30.9-16.3c0.3-72.9,38-122.3,104-148.1
			c68.5-26.8,133-15.2,187.8,34.9c13.9,12.7,19,13.4,32-1.2c42.6-47.6,108.7-53.7,161.5-15.4c13.8,10,23.1,11.1,38.6,3.9
			c65-30.6,135.4-13.8,179.3,38.8c10.7,12.9,17.1,13.3,30.5,5.4c124.6-72.6,261.3-96,403-93.4c154,2.8,304.9,29.6,454,67.2
			c14.2,3.6,28.2,7.9,42,12.9c141.3,50.6,211.6,141.6,214.8,292c3.4,160.2,0.8,320.6-0.6,480.9c-2.3,258.1-5.8,516.1-8.6,774.2
			c-0.5,46.1-4.2,91.7-19.1,135.8c-10.9,32.2-27.1,60.7-54.2,81.8c-8.7,6.7-14.3,11.1-5.6,22.9c45.2,61.8,57.7,133.6,60.4,207.8
			c4.1,111.2-11.7,220.6-37.6,328c-39.6,164.2-135.1,243.1-318,268.6c-182.2,25.4-365.4,39.2-549.5,35.5
			c-97.1-1.9-193-12.4-285-46.3c-49.8-18.4-97.1-41.9-137.4-76.8c-14.5-12.5-26.8-14.2-44.7-8.4c-124.4,40.5-250,76.9-379.2,99.4
			c-51.1,8.9-102.4,13.6-154.6,10.7c-47.6-2.7-86.1-20.4-119.2-54.4c-39.8-40.9-53.2-42.3-100.6-9c-59.6,41.9-123.7,70.8-197.5,73.4
			c-178,6.3-325.8-101.8-382-278.5c-17.9-56.3-28.3-114.4-29-172.8c-2.4-182.8-7.1-365.5-2.8-548.4c1.4-60.4,19.5-114.8,44.4-168.2
			c32.8-70.5,27.6-101.9-25.5-158.2c-22.1-23.5-45.6-45.6-67.5-69.3C60.8,1421.6,51,1362,73.7,1296.3c4.1-12,8.2-24.3,14.3-35.2
			c35.5-62.8,37.3-129.3,26.5-198.7c-10.6-68.2,20.5-123.5,84-151.5c17.4-7.6,20.2-16.8,18.6-33.1c-2.8-28.2-1.8-56.6,3.1-84.6
			c1.7-9.9,0.7-14.8-8.5-21.3C106,697.2,113.9,592.4,231.1,530.4z M2077.9,2827.2c44,0,88.1,2.2,131.9-0.4
			c124.8-7.3,249.6-16.3,372.6-40.6c98.8-19.6,175.6-69.5,208.4-167.9c44.3-132.7,62.8-269.8,51-409.9c-4.3-51.2-18-99.9-49.3-142.1
			c-6.8-9.2-13-18.1-27-19.8c-61.7-7.3-120.1-1.3-172.6,35.7c-30.4,21.4-64,34-101.8,29.3c-40.5-5-77,1-110.1,27.5
			c-10.7,8.6-26.7,11.5-40.8,15c-41.4,10.5-83.7,4.6-125.6,3.9c-23.5-0.4-30.6,4.9-31.4,30.3c-2.9,88.9-3.6,177.8-2.8,266.7
			c0.2,20.9-10.7,20.7-25.6,20.7c-15.1,0.1-25.8,0.2-25-20.9c1.7-42,0.4-84.1,0.5-126.1c0-10.2,1.2-19.5-14.9-16.8
			c-70.4,11.7-140.3,2.5-210.2-6c-8.7-1.1-17.7-6.6-27,3c-24.4,25.2-56.6,28.6-89.6,28c-35.2-0.7-70.4-1.5-105.6-2.3
			c-9.7-0.2-18.6-0.3-26.5,8.3c-38.9,42.2-89.1,50.4-142.5,42c-19.3-3.1-25.9,2.6-31,19.5c-17.8,58.7-12.9,116,9.5,172.1
			c50.4,126.4,151.1,193.1,276.9,226.7C1870.3,2830,1974.1,2832.6,2077.9,2827.2z M1542.3,1632.6c7.2-3.3,9.4-3.7,10.5-4.9
			c37.8-43.5,74.9-87.6,113.5-130.4c14.3-15.8,18.9-30,15.2-52.2c-14.2-83.9,5-153.5,89.8-191.7c59-26.6,72.4-90.6,33.4-142.4
			c-17.6-23.4-37.3-45.2-56.2-67.6c-36.3-43.2-52.4-93.7-50.3-149.3c4.7-124.5,52.3-231.1,138.7-320.3
			c84.5-87.3,190.4-131,309-146.2c102-13,204.1-17.1,306.6-2.4c150.2,21.5,232.3,115.8,269.2,254c29.3,109.6,29.8,222.4,17.1,334.7
			c-6.1,54.1-37.3,93.4-86.8,117.2c-22.8,11-46.8,20.2-68.1,33.6c-39.3,24.7-42.9,56.3-10.3,89.5c17.7,18,38.9,32.6,58.3,49
			c31,26.1,50.5,58.3,56.6,99.3c21.9,146.4,4.5,288.1-47.8,426c-2.3,6.1-7.8,11-4,18.9c21.1,43.9,22.7,90.4,16.6,137.6
			c-1.5,11.8,2.6,16.4,14.5,13.7c28-6.2,56.4-4.5,84.7-4.3c44.6,0.3,73.8-21,89.6-62.1c7.4-19.2,12.7-38.8,15.9-59.2
			c11.8-75.8,5-152.2,6.4-228.3c3.7-195.5,4.6-391,6.6-586.5c1.6-157.4,3.6-314.8,4.2-472.1c0.2-57.8-4.6-115.3-32.2-168.1
			c-39.6-75.7-109.6-109.8-186.7-129.8c-153.4-39.9-309.1-67.1-468.5-66.9c-127.1,0.1-248.8,23-359.5,89.1
			c-116.7,69.7-200.1,164.3-223.9,302.9c-10.7,62.2-10.5,124.8-5.4,187.1c16.4,198-3,394.1-28.5,590
			C1560.3,1470,1552,1549.5,1542.3,1632.6z M2134.7,1298.2c-18.3,10.9-32.2,19.8-46.6,27.6c-45.5,24.6-82.2,11.9-102.3-35
			c-20.7-48.4-25.7-49.4-64.2-12.6c-4.9,4.7-9.4,9.9-13.9,15.1c-87.5,101.2-175.3,202.2-262.4,303.7
			c-36.1,42.1-87.9,77.6-103.2,128.8c-15.2,51.1-3.7,110.4-2.9,166.2c0.5,40.4-2.6,80.1-15.2,118.6c-10.3,31.6-10.5,31.5,22.5,31.7
			c173,1.1,346,2.9,519.1,2.8c53.8,0,107-6,153.3-39.3c31.1-22.4,68.6-30.5,105.8-28.3c53.4,3.1,97.1-14.5,137.2-47.7
			c28.7-23.8,60-43.6,97-52.6c10.7-2.6,28.6,2.7,30.6-9.1c2.1-12.6-11.4-23.9-21.9-32.8c-12.2-10.3-26.6-15.7-42.3-18.7
			c-30.3-5.8-60.4-0.9-90.6,0.7c-32.1,1.8-62.2-4.8-90.1-20.4c-31.9-17.8-54-44.3-54-81.6c0-36.9,24.5-60,55.2-77
			c15.3-8.5,32-15.7,45-27c24.2-21,35.2-49.4,31.2-81.5c-3.5-28.4-29.6-30.6-50-38.2c-22.8-8.5-44.8-16.4-65.3-31.4
			c-31-22.6-74.8-2.9-83.6,34.4c-5.5,23.5-23.9,10.1-36,12.6c-15.1,3.2-13.4-9.3-12.7-19.4c2-31,12.4-57.2,41.6-72.6
			c21.8-11.5,45.3-10.2,68.8-8.7c15.3,1,56.1-29.8,52.2-41.5c-6.9-20.7-28-20.1-46-22.1c-13-1.4-25.7,1.7-37.1,7
			c-18.5,8.7-36.4,18.7-53.9,29.3c-34.6,20.8-54.3,10.8-58.5-30.2C2140,1333.8,2137.5,1318.4,2134.7,1298.2z M2192.1,1325.8
			c8.6-4.6,17.2-7.5,23.8-12.9c10.7-8.8,34.7-2.5,32-26.4c-2-17.4-13.3-30-25.8-41.3c-11.5-10.3-25.3-15.2-40.4-14.2
			c-17.5,1.1-35,3.1-52.3,5.6c-77.3,11.2-128.7-19.3-143-86.1c-8.1-37.6,2.3-71.7,23.1-102.9c76.9-115.5,255.4-124.7,359.5-19.8
			c90.1,90.8,111,254,1,379.3c-23.1,26.3-22.8,26.5,11.2,36.4c4.7,1.4,9.3,2.9,14,4.4c67.1,21.7,89.5,66.1,70.4,134.1
			c-14.7,52.4-54.5,78.2-98.2,102.1c-36,19.7-35.9,45.9-1.7,68.5c25.4,16.7,53.5,16,82.1,14.4c44.9-2.5,91-6.7,131.3,18
			c20.2,12.4,24.6,6.1,30.6-12.4c36.2-110.4,45.3-223.6,35.4-338.7c-3.7-43.1-20.7-78.5-57.7-103.6c-22.6-15.3-43.8-32.9-60.6-54.9
			c-36.4-47.7-30.1-101.7,15.5-140.5c24.3-20.6,53.3-32.7,82-44.6c40.3-16.7,63.4-46.3,67.4-88.3c8.1-85.9,5.1-171.8-4.7-257.5
			c-1.2-11-5.3-17.8-18.3-17.4c-25.7,0.8-50.5-5.1-74.5-13.8c-9.3-3.4-16.1-3.3-24.1,2.9c-17.9,13.7-39.2,16-61,17.1
			c-47.8,2.4-92.5-9.8-138.6-29.5c1.6,16.5,2.9,30,4.2,43.5c8.7,97.7-41.2,159.2-138.2,170.5c-37.1,4.3-74.2,3.3-111-3.1
			c-82-14.2-125-62-128.1-145.7c-0.8-20.9-7.9-23.6-25.6-23.3c-60,0.8-119.9,0.1-166.8-48c-26,44.4-42.3,89.8-51.5,138.4
			c-14.2,75.2-5.9,143.9,52.3,200.2c13.3,12.8,25.1,27.5,35.9,42.5c23.4,32.5,38,67.8,32.5,109.4c-7.6,58.6-43.5,93.1-94.1,117.7
			c-45.2,22-63.8,67.5-48.2,115.1c9.6-11.1,18.3-21.5,27.4-31.5c50-54.7,92-117.1,149.9-164.2c52.4-42.6,93-29.9,116.8,33.4
			c13.9,37,17,38,51.6,16.4c71.2-44.5,93.7-35.4,111.5,45.3C2189.3,1321,2189.9,1321.8,2192.1,1325.8z M634.2,1511.9
			c-2-33.8-4.4-63-5.3-92.2c-5.7-181,80.8-300.7,250.6-344.1c101.5-26,205.7-29.1,308.9-17.7c151.4,16.8,246.4,117.7,255.3,259.3
			c1.1,17.9-11.2,40.9,4.2,52.5c13.4,10.1,35.5,8.3,53.4,12.9c15,3.8,21.6-1,23.2-16.3c12.6-120.4,31.1-240.3,31.3-361.8
			c0-17.6-5.6-28.5-19.4-38.9c-134-100.2-281-125.2-440.6-76.6c-15.8,4.8-26.2,5.2-37.5-9.2c-26.1-33.4-61.9-53.1-102-65.3
			c-117.6-35.8-245.1,11.6-324.2,120.4c-38.4,52.8-66.1,110.5-79.8,174.5c-3.6,17-10.7,24.2-29.4,23c-32.1-2.2-64.5-1.1-96.7-2.1
			c-11.7-0.3-19.5,1.4-24.9,14.1c-18.5,44.1-39.2,87.2-57.6,131.3c-12.8,30.7-21.9,62.7-20.6,96.7c3,74,78.7,134.2,150.1,119.2
			C527.4,1480.2,580,1482.1,634.2,1511.9z M1508.6,2701.9c-8.7-12.6-15.5-22-21.9-31.7c-45.5-69-76.5-145.4-58.9-226.8
			c12.4-57.4-2.3-96.6-35.7-138.4c-45.9-57.3-38.4-117.9-0.7-176.6c13.2-20.5,28.2-39.9,43.2-59.1c27.5-35.3,48.6-73.3,53-118.7
			c7.8-81-2-162.2,3-243.2c0.9-14-9.5-12.1-18-12.1c-36.2-0.1-72.4,0.9-108.5-0.4c-17.9-0.7-20.8,6.7-20.3,22.2
			c0.8,25.3,3.1,50.8-2.5,76c-13.5,60.9-49.9,105.2-101.6,137.6c-15.3,9.6-25.8,14.4-6.2,32.4c19.4,17.9,28.3,44.1,34.6,70.1
			c13.3,55.7,13,112.6,11.1,169.2c-2.5,75.2-7.1,150.5-39.9,220.4c-32.6,69.5-79,125.5-152,155.2c-35.8,14.6-73.6,19.1-111.8,20.9
			c-37.2,1.7-74.3,4.1-109.4,18.1c-38.1,15.2-60.1,43.6-58.2,76.2c0.8,13,0.5,27.5,20,30.6c31.2,4.9,55.7,22,76.1,45.8
			c19.9,23.2,45,38.3,75.9,39.5c33.2,1.3,66.9,3.2,99.6-1.1C1225.1,2788.7,1365.6,2747.4,1508.6,2701.9z M1110.2,1102.1
			c-83.4,0.7-146.9,3.1-208.9,18.5c-101.5,25.2-181.4,76.1-210.5,184.4c-17,63.4-11.8,127.9-8.5,192.2c0.8,15.1,8.5,15.2,21.9,13
			c32.4-5.4,62.4,0.9,82.3,30.1c7.8,11.5,18.5,13.3,30.4,13.8c60.9,2.9,107.9-20.7,140.1-73c28.1-45.7,64.3-81.6,119.8-90.4
			c42.2-6.7,84.2-2.5,123.9,13c20.7,8.1,37,8.7,56.6-4.4c31.4-21,68.4-30.7,105.6-30.4c28.8,0.2,31.2-14.3,31.8-35.4
			c2.9-101.4-65.8-193.1-164.8-219.1C1184.1,1102.4,1137.2,1101.1,1110.2,1102.1z M713.2,2079.7c-3.8,22.6-5.7,40.9-10.2,58.5
			c-15.9,62.7-72.3,97.5-150.2,93.9c-12.2-0.6-24.1-4.5-36.5,4.1c-51.2,35.2-103.1,19.4-127.7-37.7c-10.6-24.6-12.3-50.9-14.6-77.3
			c-12.5-148.7,100.6-250.9,247.5-223.7c92,17,161.1,71,223.6,136.3c12.5,13,22.2,29,39.2,39.3c26.2-58.8,33-118,18.3-178.9
			c-15.2-62.9-51-112.6-100.1-154.7c-33.5-28.7-70-32.8-111.4-29.2c-18,1.6-27.2,6.6-36.1,21.8c-32.5,56-81.1,91.6-144.3,106.3
			c-35.5,8.2-68.6,3.5-93.6-25.6c-23.7-27.7-16.8-57.8-3.8-88.1c5.2-12.1,16.1-24.5,4.8-39.8c-14.9,11.9-15.2,29.3-17.8,45
			c-4.2,25.4-12.7,49.1-24.7,71.6c-35,65.6-84.3,84-154,57.7c-4.4-1.7-9-2.8-16-4.9c0,102.6,1,203.1-0.6,303.5
			c-0.4,27.9,3.9,39.1,35.7,36.6c91.5-7,166.7,23.1,216.6,104.6c15.5,25.4,39.6,41.6,69,45.3c83.6,10.7,167.5,11,251.5,3.4
			c15.7-1.4,19.3-8.7,18.3-22.7c-2-27.3-1.3-54.9-4.9-81.9C783.3,2182.4,765.8,2125.2,713.2,2079.7z M932.3,2089.1
			c25.6,0,48-1.3,70.2,0.2c103.9,7,164.5,59.1,174.6,151.3c5.8,53.1-11.6,100.3-44.3,141.8c-46,58.5-109,90.2-178.6,110.3
			c-78.2,22.6-158.3,21-238.5,18c-48.4-1.8-48.4-1.3-51.4,47.6c-4.5,72.5-40.6,123.3-101.5,143c-60.3,19.5-129.6-3.5-172-58.4
			c-16.1-20.8-29.7-43.5-44.2-65.5c-9.9-15-22-27.7-39-34.2c-24.9-9.7-42.6,5.1-60.9,18.7c-12.5,9.3-9.5,19-5.2,30.7
			c77,214,319,296,492.4,166.9c20.6-15.3,39.4-26.1,25.4-56.1c-3.7-7.9-1.3-19.4,0.4-28.8c11.1-61.3,52.7-92.9,108.5-110.6
			c41.5-13.1,84.8-13.3,127.6-16.1c108.9-7.3,172.6-71,206.8-167.6c37-104.6,32.5-213.3,21.1-321.6c-3.3-31.6-17.4-60-42.5-81.4
			c-8.2-7-16.2-13.4-28.8-10.4c-58.4,13.9-117.7,17.8-177.5,12.5c-12.3-1.1-17.5,2.8-18.5,15.7C954.1,2026.5,944,2056,932.3,2089.1z
			 M1168.2,819.3c-29.4-25.9-43.5-55.4-35.9-92.7c1.9-9.2-3-13.7-11.4-17.2c-38.5-15.8-57.4-45.5-58.1-86.5
			c-0.2-13.7-3.8-17.6-18.2-18.5c-59-3.5-98.8-33.9-115.8-90.8c-4.2-14-8.1-16-21.8-12.5c-76.8,19.9-140.9-0.3-189.6-64
			c-7.4-9.7-10.9-9.7-19.4-1.1c-57.3,57.3-123.9,69.7-198.8,39.4c-6.5-2.6-13.6-9.1-18.3,3.8c-14.8,41.2-46.4,66.3-85.2,83.7
			c69.1,102.7,31.2,203.5-82.8,224.9c-47.8,9-47.9,9-48.3,59.6c-0.1,7.8,0.4,15.7,0.1,23.5c-0.5,16.5,4.1,25.3,23.2,29.7
			c67.5,15.5,106,61.1,124.4,126.6c4.9,17.4-4.3,42,11.9,50.9c14.6,8,36.3,3.9,54.8,3.9c10.8,0,27.9,7,30.4-8.4
			c5.7-34.6,37.4-61.6,27.8-100c-0.4-1.7-2.3-3.1-3.5-4.6c-19-25.2-32.8-53.3-43.9-82.6c-46.8-123.8-0.1-273.4,107.8-338.6
			c89.3-53.9,182.4-41.1,273-4.5c74.9,30.2,125,88.7,134.9,168.2c6.7,54.4,27.1,91.2,72.3,117.7c6.6,3.9,11.1,10.3,20.5,7.7
			C1120.6,830.8,1143.1,825.6,1168.2,819.3z M370.7,1526.1c-98.4-72.6-120.9-144.9-70.6-272.6c15.3-39,34.5-76.4,51.1-114.8
			c14.2-32.8,21.9-66.6,12.9-102.6c-14.7-58.7-66.8-97.3-120.1-88.3c-59.5,10-86.4,49-79.9,117.6c5.4,56.4,13.4,112.7-10.8,167.2
			c-11.4,25.8-22.2,51.9-32.6,78.2c-18.5,47-12,89.9,22.3,127.8c12.5,13.7,25.1,27.3,38.4,40.2c34.9,33.9,69,68.2,86,117.5
			C299.6,1568.5,333,1546.9,370.7,1526.1z M920.6,2142.7c6.4,9.7,10.5,16.1,14.9,22.3c36.6,51.9,33.7,128.7-20.2,177.7
			c-30.7,28-66.8,44.3-107.1,50.3c-85.6,12.7-171.6,8.5-257.5,4.3c-63.5-3.1-111.4-31.9-145-85.6c-31.1-49.8-79.3-66.4-134.7-69.6
			c-65.6-3.8-65.6-4.2-64.9,61.5c0.1,7.7-1.7,15.7,3.4,23.3c65.9-14.6,126.9,2.9,181.7,37.6c96.9,61.2,202.4,89.9,315.5,96.6
			c102.2,6.1,203.5,6.5,298.5-39.6c55.3-26.9,100.6-64.4,118.7-126.4c22.5-77.1-20.3-142.7-99.5-154.2
			C991,2136.1,958,2138.1,920.6,2142.7z M1032.4,1932c30.3-0.6,60.4-2.6,90.4-8c123.2-22.3,181.5-98,171-222.4
			c-1.8-21.4-2.8-43-2-64.4c2.4-64.5,38.5-110.5,100-129.6c29.6-9.2,59.9-9.6,90-6.2c19.9,2.3,28.9-3,28.7-23.6
			c-0.1-9.7,2.4-19.3,3.7-29c1.4-10.7-3.2-15.6-14-17.9c-52.8-11.1-105.6-19.5-159.7-11c-90.3,14.3-138.8,77.6-128.7,167.4
			c2.2,19.4,3,38.9,4.2,58.4c5.8,97.2-39.3,160-133.3,185.6c-41.2,11.2-83,10.3-125.1,5.7c-6.8-0.7-21.1-9.1-18,11.2
			C952.1,1928.2,956,1932.1,1032.4,1932z M2394.4,1216.8c0-125.9-95.6-220.6-212.5-213.9c-70,4.1-133.8,50.1-146.8,106
			c-11.2,48.2,18.3,84.3,67.2,81c21.3-1.4,42.4-5.9,63.7-7.9c60.3-5.7,113.1,29.7,127.8,88.1c4.4,17.6,10.5,26.8,29.2,29
			c16.5,1.9,30.9,11.3,45.4,19.3c0.4,0.2,6.9-8.4,9-13.6C2389.4,1275.6,2396.7,1245.4,2394.4,1216.8z M636.7,1627.1
			c1.5-50.4-26.5-83.9-76.3-90.6c-11.6-1.6-23.6-3.2-35-1.7c-170.8,21.9-257.9,96.2-306.3,249.4c-3.5,10.9-0.6,17.4,9.7,23.8
			c41.1,25.6,74.3,18.9,99.5-22c12.4-20.1,21-41.7,24.4-65.3c3.1-21.3,6.7-42.8,20.2-60.4c16.3-21.2,37.9-31.4,64.4-22.9
			c27.1,8.7,36.4,30.5,35.8,57.1c-0.4,16.7-6,32.3-13.1,47.7c-5.9,12.8-16,26.9-3,40.6c12.1,12.7,28,10.9,43.9,7.6
			C575.6,1775,634.4,1704.7,636.7,1627.1z M996.2,1790.3c6.7,0,18.5,0.6,30.1-0.2c6.2-0.4,14.8,2.4,18.1-5.7
			c3.3-8.2-1.8-14.9-6.4-21.4c-10-14.3-26.8-15-41.2-20.2c-49.5-18-59.3-65.2-20.7-100.9c12.4-11.5,27.2-18.7,43.4-23.6
			c37.8-11.3,76.7-15.5,115.8-15.1c21.4,0.2,29.9-4.3,27.3-27.2c-4.5-38.7,0.8-76.2,22.4-109.8c8.1-12.6,2.6-16-9.2-19.4
			c-66.7-19.5-131.9-15.5-173.5,55c-41.1,69.8-103.2,104.5-185.2,100.9c-5.7-0.3-12-2.3-16.6,2.8c-10.7,12.1-2.8,71.3,11.2,80.9
			c25.2,17.1,51.7,34.9,67,60.5c21.5,36,53.8,40.1,89.1,42C975.5,1789.3,983.4,1789.7,996.2,1790.3z M209.8,2425.9
			c2.6,24.2,6,48.4,7.6,72.7c1.1,16.4,6.7,17.6,19.6,9.8c61.2-36.9,116-9,151.1,42c14.4,20.9,26.7,43.2,41.9,63.5
			c27.1,36.2,74.2,52.5,114.3,41.5c41.2-11.3,66-43.6,71-93.7c1.5-14.5,0.3-29.3,1.5-43.9c1.1-13.5-3.9-18.4-17.5-20.4
			c-82.5-11.8-156.5-45.7-227.3-88.1c-31.1-18.6-64.4-32.6-100.8-37.7C218.6,2364.3,207.4,2374.3,209.8,2425.9z M1636.1,2188.3
			c-0.4,0-0.8,0-1.1,0c0-25.4-0.5-50.7,0.2-76.1c0.4-15.4-5.9-20.3-20.8-20.1c-40,0.6-80,0-120-0.2c-9.2-0.1-16.3,2.7-23.2,9.7
			c-73.5,74.7-77.5,130.7-14.5,212.5c1.8,2.3,3.6,4.6,5.4,6.9c3.6,4.8,8,7.3,14.4,8.4c24.9,4.2,49.7,9.7,75.2,8.9
			c55.6-1.7,82-27.4,84.3-82.7C1636.9,2233.2,1636.1,2210.7,1636.1,2188.3z M572.3,934.4c18.9-27.6,37.8-52.4,59.9-74.6
			c22.1-22.2,46.3-42,73.7-57.5c13.7-7.8,11.2-15.3,3-25.3c-21.8-26.7-57.8-29-91.7-5.4c-14.7,10.2-29.1,20.1-48.1,8.8
			c-18.9-11.2-22.2-29.2-21.1-48.1c2.2-35.3,16-66,41.2-91.4c75.9-76.6,211.8-51.4,258.6,54.9c20.1,45.6,41.9,64.6,90,65.3
			c23.4,0.3,29.1-1.8,25.1-24.7c-13.1-75.7-53.4-129.9-126.6-154.5c-75-25.2-151-35.5-222,13C511.2,665.3,489.8,831.3,572.3,934.4z
			 M846.2,2329.3c69.4-34.7,85-100.9,38.3-149.9c-9.4-9.8-21.1-17.3-31.1-26.6c-5.3-5-13.8-10.9-5.5-19.3
			c12.6-12.7,2.7-20.5-5.1-29.1c-16.5-18-32.3-36.8-49.6-53.9c-53.8-53.1-113.4-96.9-191-106.2c-62.3-7.5-118.4,8.9-155.2,62
			c-38.2,55.3-30.1,116.8-10.8,177.3c1.4,4.5,4.8,8.6,8,12.2c7.6,8.7,17.6,13.1,28.9,10.4c13.2-3.1,14.2-14.6,14.4-25.7
			c0.2-11.7,0-23.5-0.1-35.2c-0.5-95.5,81.4-162.5,174.9-141.7c91.5,20.3,138.9,85.3,164.7,169.6
			C842.1,2222.9,845.3,2274.6,846.2,2329.3z M1243.2,456.3c67,0.7,123.7-50.2,123.6-110.9c-0.2-59.7-54.8-109.7-121-110.6
			c-66.9-0.9-122.8,49.8-124.2,110.6C1120.6,389.2,1180.6,461.1,1243.2,456.3z M853.6,459.4c63.4,1.9,119-45.4,120.9-102.8
			c2.1-62.1-46-110.5-112.8-113.3c-65.4-2.8-120.5,44.3-121.9,104C738.4,409.5,787,457.4,853.6,459.4z M572,440.9
			c69.2-0.4,117-45.9,116.6-111.1c-0.4-58.4-52.2-103.6-118.5-103.5c-64.2,0.2-117,48.1-117,106.3
			C452.9,390.8,508.4,441.3,572,440.9z M2105.7,569.9c-0.5,0-1-0.1-1.5-0.1c0-21.4-0.3-42.9,0.1-64.3c0.3-17.7-6.5-20.7-23.4-16.1
			c-84.6,23.2-159,63.1-218.7,128.6c-33.3,36.5-28.7,54.5,19.2,70.1c6.4,2.1,13.2,3.4,19.9,4.5c58.6,9.5,116.5,4.3,174.4-6.6
			c14.2-2.7,19.2-9.1,20.2-23.1C2098.3,631.9,2102.4,600.9,2105.7,569.9z M2023,2092.3c0,0.6,0,1.2,0,1.8c-31.2,0-62.5,1.2-93.7-0.4
			c-19.1-1-22.8,6.4-22.2,23.5c1.6,42.8,11.5,85.3,4.8,128.3c-1.4,9,2.1,12,10.5,13.1c62,8.3,124.2,13.9,186.6,5
			c17.9-2.6,27.5-13.7,27.1-32.3c-0.7-40-2.1-80-2.2-120c0-17.3-7.1-20.5-23.3-19.5C2081.6,2093.6,2052.2,2092.3,2023,2092.3z
			 M2192.4,870.2c14.9-0.8,31.6-1,48.1-2.5c51.4-4.8,79.2-32.9,83.5-84.6c1.2-14.5-0.3-29.2,0.4-43.8c0.8-17.1-4.4-24.4-23.6-22
			c-45.9,5.8-91.5,0.8-136.9-7.2c-7.4-1.3-16.9-6.8-22.4-0.8c-20.8,22.6-49.6,22.8-76,28c-15.2,3-18.6,9.6-19.4,23
			c-3.1,54.5,21.5,88.9,74.8,103.4C2143.9,869.8,2167.4,869.1,2192.4,870.2z M2371.2,558.5c1.9,0,3.8,0,5.7,0
			c0,24.4,0.6,48.7-0.3,73c-0.5,13.6,4.7,21.3,16.8,27.2c38.5,18.7,78.7,27.7,121.7,25c23.8-1.5,35.6-12.8,35.9-36.5
			c0.5-39,0.4-78.1,2.2-117.1c0.8-16.5-6-24.4-19.9-31.1c-36.6-17.6-75.5-26-115.5-29.6c-47.8-4.4-47.8-3.9-46.7,45.3
			C2371.4,529.2,2371.2,543.8,2371.2,558.5z M2324.1,569.7c0.3,0,0.6,0,0.9,0c-1.3-28.3-3.1-56.6-3.9-84.9
			c-0.4-14.5-5.5-21.3-21.1-20.2c-43.8,3.1-87.8,3.2-131.5,9.5c-13.1,1.9-15.7,6.8-15.3,18.6c1.7,47.9,2,95.8-5,143.4
			c-2.4,16.4,4.1,22.4,19.3,25.3c45.5,8.7,91.2,9.3,137.2,7c19.1-1,25.6-10.5,24.1-28.5C2326.9,616.6,2325.6,593.1,2324.1,569.7z
			 M1684.5,2190.4c0,24.4,1.1,48.9-0.4,73.3c-1.1,18.4,5.9,23.8,23.4,23.3c27.3-0.8,54.7,0.6,82.1,0.6c53.9,0.1,77.3-22.5,75.9-76.2
			c-0.9-34.1-5.7-68.1-7.5-102.2c-0.7-12.9-5.5-16.5-17.7-16.4c-45.9,0.4-91.9,0.4-137.8-0.4c-14.3-0.2-18.6,5.2-18.2,18.9
			C1685,2137.6,1684.5,2164,1684.5,2190.4z M2606.4,1961.1c2-39.6-6.6-45.5-46.1-33.1c-28.7,9-51.9,27.2-74.7,45.4
			c-42.7,34.2-89.8,56.5-145.2,52.6c-56.4-3.9-100.7,24.8-147.6,48c-13.7,6.8-9.7,17.7-9.1,27.7c0.8,12.2,11.1,8.3,18.2,8.4
			c29.3,0.6,58.7,0.9,88,1.2c26.9,0.2,53.6-3.8,75.3-20c37.8-28.2,78.9-33.8,124.8-29C2556.3,2069.3,2603.1,2026.8,2606.4,1961.1z
			 M287.3,740.3c54.8-0.2,97.3-37.2,96.9-84.4c-0.4-49.2-45.6-85.5-103.9-83.4c-54.8,2-94.3,40.2-92,89
			C190.4,706.7,232.8,740.5,287.3,740.3z M341.2,521.6c52.8-0.1,99-37.9,98.4-80.4c-0.7-45.5-49.1-89.1-98.9-89.1
			c-52.3,0-98.1,39-99,84.1C240.8,483.4,285.5,521.7,341.2,521.6z M1548.7,912.7c0-53,0.2-105.3-0.3-157.6c0-5.4-2.6-11.7-6-16
			c-22.8-29.1-43.4-60.2-70.8-85.4c-32.1-29.4-69.7-37.9-111.1-25.1c-15.8,4.9-32.1,11.4-38.7,30.9c5.9,0.4,10.2,1.9,13.6,0.8
			c76.2-24,157,42.7,144,135c-9.5,67.1,18.7,94.1,68.6,117.3C1548.9,912.9,1549.8,912.9,1548.7,912.7z M1546.2,662.5
			c6.5-34.8,11.2-65.6,18.2-95.8c3-13-0.3-19.4-10.6-26.4c-105.8-72.2-263.3-11.9-294.6,113c-1.3,5.4-2.2,10.5,3.1,12.4
			c9.1,3.3,8.8-4.7,9.3-10.1c2.8-29.5,21.1-47.6,45.1-60.9c36.5-20.3,75.2-25.2,116.2-16C1481.8,589.6,1513.9,623.3,1546.2,662.5z
			 M1668,255.1c-8.4,0.8-13.3,1.2-18.1,1.8c-38.1,4.5-44.7,11.8-45.8,49.8c-1,33.2-14.9,59.9-40.7,80.7c-5.7,4.6-17.2,7.5-14.8,16
			c6,21.2,23.2,32.8,42.6,41.1c14.8,6.3,24.7,2.5,33.7-11.8c24.1-38.2,56-69.7,88.5-100.8c10.8-10.4,37.3-13.8,28.2-36.2
			c-6.9-17.1-25.1-26.9-42.9-33.2C1687.7,258.6,1676.1,257,1668,255.1z M1052.5,414.3c-41.7-0.1-77.8,32.5-78,70.6
			c-0.2,40.2,32.8,71.2,76.5,71.8c43.8,0.7,81.2-32.2,81-71.5C1132,452,1089.9,414.5,1052.5,414.3z M1285.4,815.5
			c28.1,5.3,55.4,12.7,83,15c20.5,1.7,44.1,30.2,60.1,4c11.2-18.3,6-45.9,1.8-68.9c-6.4-34.5-34.6-61.2-62-59.9
			c-19.2,0.9-38.4,3.6-57.6,5.4C1318.9,761.6,1317.7,766.7,1285.4,815.5z M1414.6,1645.9c20.5,0,40.9,0,61.4,0
			c9.2,0,19.2-0.7,18.9-12.7c-0.6-26.8,17.3-60.8,0.2-78c-17-17.1-51.8-9.2-78.7-3.1c-44.3,10-67.2,33.9-74,72.5
			c-2.7,15.2,0,22.1,16.6,21.4C1377.5,1645.3,1396.1,1645.9,1414.6,1645.9z M599,720.4c77-27.5,107.6-18.7,159.7,42.7
			c3.6,4.2,5.8,8.4,13.6,8c46.5-2.3,54.9-16.4,32.1-56.9c-5.7-10.1-12.2-20.3-20.3-28.4c-30.7-30.7-67.1-46.5-111.2-37
			C635.6,656.9,611.8,680,599,720.4z M565.3,2182.1c68.9-0.4,100.1-39,94.9-108.5c-1.5-19.9-10.5-24.6-27.4-25.2
			c-54.6-1.8-97.3,41.7-97.5,97.9C535.1,2171.1,536.3,2191.3,565.3,2182.1z M1488.5,364.2c38.6-0.6,68-28.2,66.8-62.6
			c-1.1-33.7-32.1-59.3-70.9-58.5c-37.1,0.8-65.5,27.4-65.3,61.1C1419.4,338.5,1449.7,364.8,1488.5,364.2z M1121.6,1652.7
			c-34.2,1.5-68.3,3.6-100.1,17.7c-7.9,3.5-17.5,7.5-16.4,18.1c1,9.8,11.5,9.6,18.4,11.3c33,7.8,56.1,27.1,67.3,58.8
			c4.4,12.4,8.6,16.3,20.4,8.8c22.9-14.3,41.9-31.7,51.1-58C1179,1661.2,1171.6,1650.9,1121.6,1652.7z M1335.7,483.6
			c65.3-30.6,132.3-30.6,201.5-10.2c-13.8-16.5-27.3-31.6-35.5-50.5c-3.2-7.5-9.6-8.7-16.7-9c-26.7-1-50.9-10.2-73.9-24.7
			c-10.2,18.9-17.1,38.7-31.5,53.4C1365.7,457,1350.4,470.1,1335.7,483.6z M1164,578.4c-28.6-0.5-50.7,18.5-51.7,44.3
			c-1,26.1,20.3,47.1,48.3,47.6c29.2,0.6,54.3-20.6,54.3-45.9C1214.9,599.8,1191.8,578.8,1164,578.4z M686,1634.4
			c3.6,7.7-11.8,24.9,8.6,26c16.8,0.9,41.9,9.4,49.2-10c8.1-21.7,10.6-47.6,5.1-71.8c-4.7-20.7-24.1-25.2-58.8-18
			c-24,5-8.4,19.3-7.7,29C683.5,1604,688.2,1618.1,686,1634.4z M1221.5,785.1c22.2,0.5,43.9-17.6,45-37.6
			c1.1-20.5-19.2-39.8-42-39.9c-26-0.1-44.1,15.9-44.6,39.6C1179.4,767.7,1197.9,784.5,1221.5,785.1z M2670.9,676.1
			c-14.6-43.9-33-83.2-67.2-115.6c-3.9,31.3-3.7,61.9-4,92.6c-0.1,8.6,5,12.2,11.8,14.3C2629.8,673,2648.2,678.8,2670.9,676.1z
			 M1247.2,569c19.4-30,44.5-53,70.8-75.6c-41.9,11.9-83,16.5-124.4,4.2c-13.7-4.1-13.8,4.9-16,13.4c-2.2,8.4-7.3,17.7,6.6,20.2
			C1209.3,535.7,1228.4,550.4,1247.2,569z"/>
	</g>
</g>
</svg>
