<?xml version="1.0" encoding="utf-8"?>
<!-- Generator: Adobe Illustrator 23.0.0, SVG Export Plug-In . SVG Version: 6.00 Build 0)  -->
<svg version="1.0" xmlns="http://www.w3.org/2000/svg" xmlns:xlink="http://www.w3.org/1999/xlink" x="0px" y="0px"
	 viewBox="0 0 3000 3000" style="enable-background:new 0 0 3000 3000;" xml:space="preserve">
<style type="text/css">
	.st0{stroke:#000000;stroke-width:10;stroke-miterlimit:10;}
</style>
<g id="Layer_1">
</g>
<g id="Layer_2">
	<g>
		<path class="st0" d="M2655.8,1106.2c17.6,8.3,33.7,15.5,49.4,23.5c101,51.5,165.7,133.8,192.9,242.2c48.3,192.9,55,387-10.6,577.4
			c-49.2,142.6-139.4,251.9-283.5,309.1c-56.2,22.3-115.7,29.5-175.6,30.5c-202.6,3.7-405.4,6.6-607.6-9.9
			c-145.8-11.9-289.8-34.6-428.7-82.9c-8.9-3.1-13.9-1.6-21.3,3.2c-224.8,147.5-471,214-739.7,193c-99.7-7.8-199.3-18.5-296.3-44.6
			c-54.4-14.7-103.5-39.5-145.7-78.1c-66.6-60.9-87.9-140.4-96.7-225.8c-5.6-54.7-6.2-109.6-6.3-164.5c-0.7-222-2.4-444.1-1.2-666.1
			c0.5-81.3,0.5-162.9,11.7-244.1C132,715,294,586.4,518.9,545.8c71.9-13,144.7-11.6,217.4-8.8c152.5,5.8,304.5,16.9,453.7,52
			c58,13.6,115.3,29.9,170.7,51.9c10.1,4,18.3,5.8,28.5-2.6c92-76.2,200.9-111.7,317.1-126.3c272.7-34.1,545.3-31.9,817.8,3.2
			c69.8,9,138.8,20.5,203.1,50.9c42.2,20,79,47.2,107.5,84.5c53.7,70,61.5,145.9,23.9,225.1c-43.1,90.7-104.4,166.5-189.9,221.2
			C2664.7,1099.3,2661.1,1102.3,2655.8,1106.2z M550.9,2343.5c50.6,8.6,96.5,9.7,142.3,12.5c11.2,0.7,15-8.2,20.2-15
			c57.7-75.6,102.6-158.1,135-247.5c24.6-67.7,42.4-137.2,49-209c2.2-24.4,17.6-16.6,31-16.6c17.7,0,11,12.1,10,20.4
			c-20,163.3-76.7,312.5-170.9,447.5c-3.9,5.5-11,10-8.5,19.8c84-3.1,166.8-13.7,248-35.9c9.8-2.7,14.8-8.9,19.4-16.6
			c65.5-108,90.8-225.1,75.8-350.2c-2.6-21.6,7.1-20.2,21.1-24c18.3-4.9,18.3,6,19.7,17.4c9.1,76.2,3.4,151.3-16.4,225.5
			c-11.2,41.9-28.5,81.4-48.8,125.7c96.3-30.9,180.8-73.2,261.7-125.8c-68-56.9-82.8-106.7-78.1-183.7
			c7.8-126.3,23.3-252.1,35.5-378.1c4.9-50.6,9.8-101.1,14.9-154.1c-60.6,51.4-122.1,53.2-160.3,6.9c-33-40-27.9-90.6,12.6-124.3
			c52.5-43.7,114.7-35.4,161.3,22.1c1-2.3,2.1-4.1,2.6-6c19.7-80.9,57.5-150.4,126.7-199.9c15-10.7,1.7-13.6-5-17.2
			c-41.6-22.4-78.5-50.8-110-86.2c-86.3-96.8-99.3-217.2-34.1-321.2c11.1-17.6,24.2-34,37-51.9c-53.3-22.9-108.4-37.4-163.9-50.3
			c-154-35.7-310.9-45.9-468.3-50.8c-82.6-2.6-164.7-0.9-244.8,21.8c-166.8,47.3-279.4,148.5-318.9,322.4
			c-15.9,69.8-19.7,140.7-19.9,211.7c-0.7,270.4-0.5,540.9,0.1,811.3c0.1,51.6,4.3,103.3,14.3,154.1c5.9,29.6,12.5,59.3,31.7,85.8
			c22.7-25.3,41-51.8,58.4-78.9c56.7-88.3,97.8-183.4,120.1-286.1c3.6-16.6,8.7-19.9,25.8-16.5c20.3,4,16.7,14.5,13.7,27.6
			c-32.1,138.2-92,262.9-181.2,373.2c-10.1,12.5-11.3,20,1.2,31.5c20.4,18.7,42.4,34.5,66.3,48.4c20.1,11.7,32,8.5,45.8-11.4
			c92-131.9,157.5-275.5,193.1-432.4c4.1-17.9,9.6-20.7,27.3-16.7c21.8,4.9,14.3,17.2,11.5,29c-36.8,158.2-101.6,304-195.6,436.5
			c-14,19.8-8.6,24.5,11.7,27.7c35,5.5,70.1,11,104.7,18.7c17.3,3.8,28.2-0.7,40.1-13c124.9-129.3,202.5-282.3,229.8-459.9
			c3.6-23.5,15.3-18.3,29.7-18.2c19.4,0.2,12.2,12.1,10.9,21.5c-14.3,100.9-46.9,195.8-94.9,285.4
			C654.4,2219.8,608.1,2282.7,550.9,2343.5z M2549.5,2233c47.7-12.5,85.5-29.6,120.1-53.8c86.9-60.9,146-143.2,180.1-242.8
			c59.9-174.8,54-352.7,16-530.2c-33.3-155.3-134.8-244.3-287.1-279.7c-101.4-23.5-203.7-18.6-306-11.2
			c-98.3,7.1-196.6,10.5-295.1,3.7c-105.4-7.3-210.9-18.8-316.4-1.5c-192.8,31.6-277.4,129.4-300.5,282.7
			c-11.1,73.4-16.2,147.4-23.7,221.2c-12.5,122.8-27.4,245.3-35.2,368.5c-4.8,75.7,23.1,129.2,82.1,159.4c12.9,6.6,22.6,6.3,35.2-1
			c121.6-70.5,206.4-171.5,251.9-304.5c6.4-18.6,13.3-20.5,31-15.5c21.3,6,11.2,17.8,7.8,27.6c-43.4,126.3-120.6,227-230.7,302.5
			c-6.8,4.6-16.7,6.4-19.1,17.6c79.5,22.8,160.2,37.5,241.3,50.1c11.2,1.7,18.2-4.3,25.9-10c113.9-85,190.3-196.1,227.8-333.1
			c5.1-18.6,11.4-22.4,29.4-18.5c21.6,4.7,13.3,17.3,10.2,28.5c-35.8,128.7-103.9,237-204.6,325c-4.8,4.2-13.6,6.3-11.7,16.8
			c79.6,7.8,159.3,10.9,239,14.6c11,0.5,18-6.2,25.2-12.5c27.5-24,52.1-50.6,74.3-79.5c60.5-79,98.9-167.6,115.6-265.7
			c1.1-6.5-3.3-17,9.9-18.5c22.9-2.7,32.9,6.8,29,29.2c-22.4,126.6-77.6,236.7-165.8,330.4c-4.6,4.9-12.2,8.1-12.1,18.4
			c55.1,0,110-2.1,164.5,0.8c29.9,1.6,47.3-10.2,64.1-32.2c71.7-94,116-198.8,126-316.9c1.8-21,11.7-21.5,28.2-20.9
			c20,0.6,14.1,13.5,13.1,23.5c-12.1,119.9-53.5,228.6-125.2,325.7c-4,5.4-11.5,9.4-9.4,18.9c42.9,2.8,85.3-3.4,127.9-4.5
			c10.1-0.3,13.2-7.5,17.9-13.9c74.5-101.9,124.2-214.6,147.1-338.8c3.3-17.8,9.8-22.1,26.8-19.3c18.5,2.9,16.2,13.8,13.7,26.3
			c-10,49.1-23,97.2-40.6,144.2C2623.3,2109,2591,2170.1,2549.5,2233z M1819.8,704.1c-33.1,9.5-59.2,23.2-84.6,38.4
			c-118.7,71.1-155.2,199.6-91.7,321.7c5.2,10,10.1,14,22.2,12.2c70.6-10.5,141.5-9.2,212.6-4.7c103.8,6.6,207.5,16.6,311.9,8.3
			c66.7-5.3,133.9-12.3,200.5-9.9c58.2,2.1,99.2-23.4,135-62c47.9-51.7,69.8-111.6,46.7-182.4c-6.2-18.9-12.5-25.9-32.6-11.9
			c-60.3,42.2-107.7,94.8-136.7,162.6c-7.5,17.6-15.2,16.5-30.6,11.2c-19.6-6.8-11.7-16.9-6.9-27.7
			c34.1-75.6,85.7-136.4,155.5-180.9c15.6-10,13.4-15.7,2.2-26.2c-23.3-21.8-49.6-37.9-79.7-49c-15.5-5.7-26.8-4-39.9,5.9
			c-78.5,59.2-137.5,133.6-173.9,224.9c-7.1,17.9-14.7,17.6-30.3,12.5c-19-6.2-12.6-16.3-8-27.6c33.3-80.3,81.9-149.8,146.6-207.9
			c8.6-7.7,17.2-15.3,27.8-24.7c-7.8-2-11.6-3.4-15.6-3.9c-17.6-2.2-35.3-3.6-52.9-6.1c-19.5-2.8-35.4,2.3-51.2,14.7
			c-81.5,64.7-134.2,147.4-155.9,249c-3.8,18-11.1,16.4-24.7,14.8c-16.5-2-18.6-9.1-15.4-23.6c15.7-70.4,45.4-134.1,89.7-191.1
			c18.7-24,40.6-45,65.6-69.3c-17.5-1.3-30.4-1-42.8-3.4c-32.1-6.2-57.2,5.2-81.1,26.2c-75.7,66.4-127.4,147.4-150.2,245.5
			c-5,21.5-14.8,16.3-29.1,14.6c-19.8-2.3-13.1-14.2-10.7-24.1c15.6-64.2,42.5-123.3,81.2-177c21.6-30,46.7-56.9,72.7-84.8
			c-35.1,0.4-69.1,4.8-103.2,6c-31.5,1.1-53.7,15.2-74.4,38c-63.6,70.2-113.9,148.5-145.5,237.7c-7.3,20.6-15.7,17.2-31.3,12.8
			c-21.4-6.1-10.3-17.8-6.8-27.5c23.7-64.7,56.1-125,97-180.5C1792.8,739.2,1805,723.6,1819.8,704.1z M1544.7,1104
			c-11.2-14.1-23.4-28.1-34.1-43.1c-47.1-66-75.8-137.2-56.6-220c16.7-71.8,66.1-118.2,125.5-156.1
			c125.7-80.3,264.1-121.7,412-134.7c139-12.3,277.4-6,415.5,10.4c80.8,9.6,158.6,29.1,225,80c88.7,67.9,121.6,169.2,83.3,260.5
			c-24.8,59.3-60.5,111.9-105.4,158.2c-8.1,8.4-19.3,14.1-25,25.6c13,7.2,22.7,1.7,32.5-3.8c95.6-53.7,164-132.2,208.3-231.6
			c26.4-59.2,19.7-116.6-19.3-169.1c-48.8-65.6-119-94.3-195.7-110c-107.7-22-217.1-31.5-326.7-36.7c-209.1-10-418.1-8.8-625.1,27.4
			c-110.6,19.3-209.3,64.5-287.1,148.4c-88.1,95-89.6,214.7-4.2,312.1c31.2,35.7,68.9,62.7,110.3,85.6
			C1501.8,1120.3,1522.8,1122.2,1544.7,1104z M2518.9,1072.7c12.8,4.9,19.5-5.3,27.1-11.3c58-46.1,100.3-104.4,130.1-171.9
			c24.5-55.4,18.3-108.8-14.6-158.7c-44-66.8-110.1-101.2-185.6-116.7c-143.8-29.5-289.7-34.9-435.9-27.1
			c-101.8,5.5-202.2,21.2-297.3,60.3c-77,31.7-152.9,66.1-210.5,129.3c-37.6,41.3-51.1,90.7-41.1,145.8
			c10.9,60.1,43.6,108.5,83.8,152.6c7.5,8.2,16.1,20.3,27.9,11.8c9.6-7-1.8-16.9-4.9-24.6c-58.2-143.7-13.3-278.8,118.8-356.4
			c73-42.9,152.5-64.5,236.1-73.1c103.2-10.6,206.4-6.4,309.4,1.3c65.8,4.9,131.9,9.5,195,32.1c156.1,56,239.6,246.7,74.2,392.5
			C2526.9,1062.7,2520.4,1065.2,2518.9,1072.7z M1226.1,1456.3c26.3-0.4,50.1-17.2,59.5-41.7c7.8-20.2,4.1-38.6-11.8-52.7
			c-21.3-18.8-44.7-12.4-67.6-2c-2.9,1.3-5.8,2.9-8.5,4.6c-23.3,14.8-31.5,32.9-24.8,54.3
			C1180.2,1441.6,1201.5,1456.7,1226.1,1456.3z"/>
		<path class="st0" d="M720.9,1064.1c-0.4-39.7,9.7-76.4,31-110.1c6.3-10,13.5-15.2,22.5-5c6.3,7.1,23.8,7.6,12.4,26.7
			c-47,78.6-27.8,174.9,42.6,223.7c75.3,52.2,183.4,37.3,239.9-33.9c32.9-41.3,49.9-88.7,43.8-141.8c-2.6-22.9,12.8-19.9,24.8-22.5
			c16.6-3.6,15.3,8.6,16,19.2c8.2,129.8-76.3,234.4-201.4,249.3C827.8,1284.5,721.2,1190,720.9,1064.1z"/>
		<path class="st0" d="M509.5,1272.3c80.8,0.3,115.7,59.6,78.1,128.5c-32.7,60-90,80.7-140.8,50.3c-35.8-21.4-49.8-54.5-43.8-94.6
			c5.6-37.6,25.2-64.7,64.5-75.8C482.4,1276.6,496.8,1272.9,509.5,1272.3z M494.5,1423.7c31.9,0.1,68.2-40.3,68-75.7
			c-0.1-22.2-18.6-35-50.9-35.2c-42-0.4-70.6,24-70,59.6C442.1,1401.2,465.2,1423.6,494.5,1423.7z"/>
		<path class="st0" d="M994,1447.6c-0.3,53.8-48.5,100.5-103.6,100.6c-51.7,0.1-95.7-42.4-95.5-92.3c0.2-51.6,54-96.3,114.3-95.1
			C958.1,1361.9,994.3,1398.9,994,1447.6z M888.1,1506.1c28.1,0.3,51.2-14.2,61.1-38.3c8.6-20.8,5.4-39.5-10.6-55.2
			c-14.6-14.3-45-14.1-70.2-0.7c-2.8,1.5-5.7,3-8.3,4.9c-17.1,12.5-30.4,26.7-23.5,50.4C843.6,1491.2,862.9,1505.8,888.1,1506.1z"/>
		<path class="st0" d="M899.9,848.4c24.9-2.6,19.4,14,21.1,25.7c3.2,22.1-13.5,16.7-25,17.8c-22.9,2.3-14.9-15.8-16.7-26.7
			C875.8,844.5,892.2,850,899.9,848.4z"/>
		<path class="st0" d="M810.3,899.2c-3.4-16.5,1.9-22.4,18.3-22.4c16.6,0,21.6,5.1,22,21.8c0.5,18.3-7.2,20.2-22.6,20.5
			C811.3,919.4,806,913.5,810.3,899.2z"/>
		<path class="st0" d="M993.2,865.8c4.4,17.9-6,18.8-20,19.3c-15.8,0.6-20.3-4.5-20.6-20.3c-0.3-17.3,7.3-19,21.5-19.4
			C989.9,845,997,849.5,993.2,865.8z"/>
		<path class="st0" d="M1040.7,869.3c11,0.2,22.5-2.3,21.4,16.2c-0.8,12.5-6,15.3-16.2,13.5c-10.4-1.9-25.4,3.5-24.6-16.8
			C1021.8,866.9,1031,868.7,1040.7,869.3z"/>
		<path class="st0" d="M2413.8,1440.2c0.2,127.5-102.2,229.1-231.4,229.5c-128.4,0.4-232.6-102-232.8-228.7
			c-0.3-126,104.5-230.1,232.1-230.4C2309.4,1210.2,2413.5,1313.2,2413.8,1440.2z M2272.6,1275.9c-82.2-51.8-202.9-19.6-254.3,66.6
			c-52.3,87.6-27.2,204.2,55.6,252C2113.1,1471.5,2179,1365.1,2272.6,1275.9z M2374,1434.8c-0.8-5.8-2.2-17.8-4.1-29.7
			c-1-6.3-3.2-12.5-4.4-18.8c-2.8-14-8.6-12.5-17.6-4.6c-72.8,64.4-126.2,141.8-159.1,233.4c-4.6,12.9-1.2,15.2,11.3,14.3
			C2294.8,1622.9,2373.8,1537.6,2374,1434.8z M2307.9,1299.8c-5.1,4.3-9.6,7.6-13.6,11.5c-83.6,81.2-143.1,177.4-179.5,288.1
			c-4.1,12.6-2.2,18.6,11.5,22.8c13.7,4.1,17.6,0,21.9-12.5c35.8-104.4,95.6-192.6,179.9-264.1c4.7-4,15-6.9,8.3-16.6
			C2328.7,1317.9,2320.3,1307.4,2307.9,1299.8z"/>
		<path class="st0" d="M2191.7,1869c-64.2-0.3-105.7-59.4-82.7-115.5c11.7-28.5,33.5-44.8,64.9-46.4c18.8-1,36.9,2.6,54.1,10.3
			c39,17.4,60.8,50.4,55.7,84.4c-5,33.2-39.8,62.3-79.8,66.6C2199.3,1868.9,2194.4,1868.9,2191.7,1869z M2243.7,1791.9
			c0.2-18.5-23.5-38.9-51.1-44c-26.1-4.8-45.1,7.1-48.7,30.5c-3.9,25.8,15.7,49.1,42.9,50.7
			C2214.6,1830.8,2243.5,1812,2243.7,1791.9z"/>
		<path class="st0" d="M1794.8,1534.1c27.4,2.3,53.1,10.6,66.8,38.1c13.2,26.5,7.1,51.7-10.7,74.2c-20.6,26-45.9,46.6-80.4,46.7
			c-31.2,0.1-55.9-15.4-68.8-44.6c-13-29.3-7.1-56.7,14.4-80.3C1736.8,1545.5,1764,1536.8,1794.8,1534.1z M1770.3,1652.7
			c20.2-0.7,52.7-27.2,56.3-45.5c2.9-14.9-3.2-24.9-17.7-29.6c-20.5-6.7-52.1,3.3-65.4,20.9c-7.7,10.2-11.4,21.2-4.9,33.6
			C1745.6,1645.4,1756.7,1652,1770.3,1652.7z"/>
		<path class="st0" d="M2640.6,1689c-47.4,0-72.6-22.5-72.7-64.7c-0.1-47.9,33.7-84.5,77.9-84.3c43.5,0.2,78.3,32,78.7,72.1
			C2725,1657.6,2690.8,1689,2640.6,1689z M2638.9,1647.9c25.6,1.5,44.2-11.6,45.6-31.9c1.3-18.4-13.9-33.3-35.4-34.7
			c-22.8-1.4-39.5,15.3-41.4,40.3C2605.9,1645,2621.4,1647.3,2638.9,1647.9z"/>
	</g>
</g>
</svg>
