<?xml version="1.0" encoding="utf-8"?>
<!-- Generator: Adobe Illustrator 23.0.0, SVG Export Plug-In . SVG Version: 6.00 Build 0)  -->
<svg version="1.0" xmlns="http://www.w3.org/2000/svg" xmlns:xlink="http://www.w3.org/1999/xlink" x="0px" y="0px"
	 viewBox="0 0 3000 3000" style="enable-background:new 0 0 3000 3000;" xml:space="preserve">
<style type="text/css">
	.st0{stroke:#000000;stroke-width:10;stroke-miterlimit:10;}
</style>
<g id="Layer_1">
</g>
<g id="Layer_2">
	<g>
		<path class="st0" d="M2879.3,1371c-8.2,182.1-16.3,364.1-24.5,546.2c-4.3,95.7-5,191.8-13.3,287.2
			c-19.7,226.8-133.9,388-343.2,481c-99.2,44-203.9,66.1-310.4,80c-422.8,55.2-847.7,65.4-1273.5,54.5
			c-176.2-4.5-352-15.8-527.9-26.2c-171.7-10.2-298.8-127.9-325.3-298.5c-16-102.9-23-205.8,0.8-307.8
			c43.7-187.4,153.2-314.1,345.6-358.2c24.4-5.6,27.9-14.8,27.3-36.3c-2.8-98.7,13.2-193.8,62-281.1
			c49.7-89,124.2-146.6,221.5-177.6c61.4-19.6,123.9-25.8,187.4-25.8c16.6,0,20.5-4,18.2-20.2c-7.8-56-5.6-111.8,6.5-167.1
			c30.4-139.2,120.1-222.2,252.4-263.6c70.3-22,143-27.5,216.2-26c17,0.3,22.4-3.4,24.8-21.4c22.3-167.1,71.1-324.4,182.2-455.8
			c96.9-114.6,222.4-173.5,372-177.6c152.4-4.2,305-3.9,457.4,0.5c66,1.9,132,7,197.9,11.3c54.5,3.6,95,35.8,132.8,70.2
			c104.7,95.2,148.2,216.7,144.8,355.7c-2.8,116.1-8.8,232-13.8,348c-5.8,136.2-12.1,272.4-18.1,408.6
			C2879.1,1371,2879.2,1371,2879.3,1371z M2809.6,1789.7c4.7-28.1,2.9-53.1,4.1-77.9c6.6-143.7,13.2-287.3,19.6-431
			c7.7-174,15-348,23.3-522c0.7-15.4-3.4-20.7-18.3-24.1c-80.2-18.5-160.5-36.4-241.6-50.3c-113.9-19.5-228.4-34.4-344.2-33.2
			c-78.5,0.8-156.5,7.7-230.1,38.8c-71.9,30.4-116.8,83-129.2,161c-6.1,38.6-11,77.5-16.1,116.3c-5.9,45.1-14.1,89.9-37.8,129.3
			c-47.1,78.2-120,109.3-208.6,107.7c-37.1-0.7-74.1-5.4-111.2-5.7c-68.7-0.6-118.4,32.5-134.9,88.5c-7.1,24-10.2,48.8-10.1,74
			c0.1,38.5,0.9,77-0.2,115.5c-0.9,31.7-4.9,63.4-17.6,93c-29.4,68.5-93.8,105.5-176.9,103.7c-48-1-95.2-11-143.3-10.1
			c-69.9,1.3-117.4,42-128.4,110.6c-4.9,30.2-5.7,60.5-4.7,90.9c1.5,46,0.3,91.7-7.1,137.3c-13.6,83.6-75.2,145.9-158.2,160
			c-29.4,5-59.1,5.9-88.7,7.9c-72.8,5-128.5,37.6-164.2,102c-11.5,20.6-20.3,42.5-26.9,65.3c-20.2,69-22.7,139.6-19.6,210.7
			c0.6,14.3-2.1,20.1-18.1,20c-30.9,0-30.8,1.1-31.8-29.3c-0.3-8.1-1-16.2-0.9-24.3c0.5-83.5,6.3-166.2,42.4-243.3
			c37.9-81.1,98.1-134.1,189.3-147.1c25.4-3.6,51-5.2,76.6-6.9c38.1-2.5,74.4-9.9,104.5-37c35.3-31.7,46.8-72.6,51.2-117.4
			c5.6-56.6-1.6-113.3,3.5-170c8.8-98,60.1-160.5,149-176.1c32.1-5.6,64.6-3.4,96.9,0.4c33.6,3.9,67.1,7,101,6
			c57.2-1.7,103.1-39.5,115.7-95.4c6.5-28.5,7.9-57.4,7.8-86.5c-0.2-44.5-2.9-89,3.7-133.5c12.8-86.3,67.9-142.8,153.6-156
			c27.7-4.3,55.2-2.8,82.8-0.8c32.3,2.4,64.6,4.8,97.1,2.3c71-5.5,126.4-48.4,148.3-115.8c18.3-56.3,20.7-115.4,28.7-173.4
			c12.6-91.4,53.2-163.1,137.1-206.9c35-18.2,71.6-31.5,110.2-39.2c126.9-25.5,254.1-17.4,381.2-2.5c125.5,14.7,249,39.9,371.7,69.5
			c16.6,4,19.3-1.1,20-15.7c1.9-42.6,2.9-85-2.5-127.4c-14.5-114.3-66.1-207.1-160.4-274.8c-21.4-15.4-44-28.1-71.7-29.7
			c-37.7-2.1-75.3-6.6-113.1-8.2c-175.5-7.1-351.1-7.1-526.7-3.4c-156.8,3.3-281.7,70.5-372.2,199.4
			c-91.9,130.9-131.4,279.5-145,436.3c-1.6,18.8-6.7,21.2-23.4,20.6c-84.5-3.2-169-2.2-250.7,23.6
			c-105.2,33.2-181.6,97.2-211.1,207.1c-20.4,76.2-20.6,153.2,1.7,229.4c5.1,17.5,2.4,20.7-16.2,19.1c-60.7-5.1-121.4-4.6-181.6,6.4
			c-127.7,23.3-220.5,91.3-268.8,213.8c-34.5,87.6-42.1,178.8-29.5,271.8c1.4,10.4,3.9,16.5-11.5,17.4
			c-154.1,9.1-266.1,84.7-330.9,223.2c-70.1,149.8-65.2,306.1-16.5,460.4c33.3,105.5,111.6,165.7,220.9,184.4
			c58,9.9,117,10.2,175.5,13.9c262.3,16.9,524.8,24,787.6,21.3c6.3-0.1,12.6,0,18.9,0c-9.9-10-20.1-16.4-30.3-22.8
			c-166.2-104.4-246.7-252.4-234-450.6c5.1-80.1,11-160.2,18.3-240.1c8.7-95.9,48.4-176.3,120.7-239.7
			c99.5-87.3,216.9-138.6,346-161.6c143.9-25.6,277-2.3,388.4,100.6c8.1,7.5,11.2,5.3,16.2-2.8c16.3-26.7,36.2-50.5,60.3-70.6
			c70.9-59.2,154.1-85.7,245-87.3c180.8-3.3,343.6,53.3,492.4,153.6C2773.3,1764.1,2790.2,1776.2,2809.6,1789.7z M2800.1,2033.3
			c2.5-54.6,4.7-109.3,7.9-163.8c0.7-12.3-3.1-19.8-12.6-27.3c-140.8-110.7-297.3-182-478.3-193.2c-76.9-4.8-150.5,5.6-219.4,42.7
			c-91.2,49.1-136.7,133.1-123,231.9c3.8,27.4,10,54.4,11.3,82.1c0.4,9.2,4.9,11.1,12.8,11.1c18.2,0.1,36.5,0.2,54.7,1.4
			c11.6,0.8,17.6-2.2,22.1-14.2c17.4-46.6,52.2-74.4,100.2-85.3c68.9-15.7,127.8,7.4,180.3,50.1c19.5,15.9,40.2,26.5,64.4,31.6
			c30,6.4,60,9.8,90.4,4c11.3-2.1,18.3,0.1,19,13.3c0.3,6,2.4,11.9,3.7,17.8c2.5,11.1,0,16.5-13.3,18.3
			c-46.4,6.3-91.7,2.9-135.8-12.2c-19-6.5-35.7-5-51.6,6.6c-10.3,7.5-21.6,14.3-30,23.5c-43.2,47.6-98.9,53.8-157.9,48.2
			c-21.1-2-44.5-8.5-54.6-27c-14.5-26.4-35.8-25.6-59.2-25.4c-13.5,0.1-27-0.4-40.5-0.9c-6.4-0.2-12.2-0.2-14.6,7.4
			c-15.9,49.7-50.4,88.9-75.3,133.5c-13.6,24.3-25.4,49.2-29.9,76.9c-4.5,28.3,4.7,41.8,32.5,48.5c20.8,5,41.5,3.7,62.3,0.3
			c5.6-0.9,13.7-4.1,15.7,3.8c3.2,13,8.1,27.6,4.8,39.5c-2.4,8.8-18.7,7.7-28.9,7.7c-11,0.1-14.6,3.6-16.3,14.4
			c-4.6,28.8-8.5,57.5-6.9,86.6c3,53.5,27.6,92.2,79.1,111.4c12,4.5,24.2,8.5,36.7,11.3c131.7,29.7,265.4,39.8,400.1,39.7
			c5.2,0,10.8-1,15.7-3c161-64.7,267.1-178.8,311.2-347.8C2799.3,2210.6,2795.7,2121.5,2800.1,2033.3z M1584.3,2769.7c0-1,0-2,0.1-3
			c47.9-2.7,95.7-5.5,143.6-8c8.2-0.4,15.6-1.9,22.8-6.7c66.8-44.2,115-103.3,143.6-178.3c2.7-7,5.8-14.1,3.1-21.6
			c-19.2-52.1-14.4-105-5.7-158c1.6-9.6-0.9-12.2-9.6-15.3c-47.3-16.6-68.1-53.3-59.9-103c7-42.2,26.2-79.1,48.5-114.8
			c15.8-25.2,31.3-50.4,47.1-75.6c6.8-10.8,4-15.5-8.7-16.3c-41.1-2.7-82.2-7-123.4-3.9c-54.4,4.1-106.8,15.3-152.8,47.4
			c-42,29.4-73.5,66.3-79.8,118.9c-10.2,85.9,48.6,156.8,135,165c5.8,0.5,13.3-3.4,16.3,7c9.8,34-0.4,46.3-34.7,40.7
			c-0.7-0.1-1.3-0.3-2-0.4c-75-14.2-128.6-55.6-154.2-127.9c-25.9-73-10.4-140.2,39.8-198.3c60.4-70.1,141.2-96.3,230.5-101.7
			c46-2.8,91.8,0.3,137.6,4.8c13.2,1.3,17.3-3.1,15.5-15.5c-2.1-14-3.2-28.2-5.7-42.1c-7.8-42.7-14.7-85.5-3.9-128.5
			c3.1-12.3,0.4-19.9-7.9-28.6c-67.5-69.7-151.4-102.7-246.6-105.9c-147.4-4.9-278.2,45.5-396.9,129.1
			c-79.3,55.8-128.6,130.9-138.2,230c-10.4,107.5-23.8,214.9-17.9,323.2c4.4,81.9,32.4,155.1,85,218.7
			c55.9,67.5,126.8,114.3,205.1,151.6c26.2,12.5,52.4,19.2,81.7,17.3C1522.1,2768.2,1553.2,2769.7,1584.3,2769.7z M1934.8,2606
			c-23.2,55.3-56.5,101.1-96.2,143.4c154.2-11.7,307.2-21.8,457.6-54.7c-67.4-6.6-134.4-14.2-200.7-26.4
			C2039,2658,1982,2648.7,1934.8,2606z M2175.2,2072.5c35.7,0.1,67.5-9.4,93.7-35.2c11-10.8,22.9-21,35.7-29.6
			c11.3-7.6,7.6-10.9-1.1-16.4c-21.3-13.4-44.2-22.9-69-26.9c-43.4-7.1-87.3,9.4-105.5,43.2c-15.9,29.5-15.3,60.5,28.1,63.8
			C2163.1,2071.8,2169.1,2072.2,2175.2,2072.5z"/>
	</g>
</g>
</svg>
