<?xml version="1.0" encoding="utf-8"?>
<!-- Generator: Adobe Illustrator 23.0.0, SVG Export Plug-In . SVG Version: 6.00 Build 0)  -->
<svg version="1.0" xmlns="http://www.w3.org/2000/svg" xmlns:xlink="http://www.w3.org/1999/xlink" x="0px" y="0px"
	 viewBox="0 0 3000 3000" style="enable-background:new 0 0 3000 3000;" xml:space="preserve">
<style type="text/css">
	.st0{stroke:#000000;stroke-width:10;stroke-miterlimit:10;}
</style>
<g id="Layer_1">
</g>
<g id="Layer_2">
	<g>
		<path class="st0" d="M1191.2,1136.6c-30.3,101-81.6,186.5-146.7,264.1c-5.8,6.9-11,12.2,0.6,20.4c77,53.7,108.7,132.6,117.1,222
			c11.1,118.5,4.7,237-8.2,354.9c-11.7,107.2-73.1,179.2-170.8,221.8c-68.9,30-142.6,39.1-216.2,47.8
			c-124.8,14.8-249.9,12.3-374.5-0.1c-75.5-7.5-148.8-27.6-212.9-71.3c-62.4-42.6-96.5-104-101.3-177.7
			c-8.5-132.5-4.4-264.6,36.4-392.8c16.5-52,45.7-96.7,82.7-137.2c-18.1-9.4-35.2-17.2-51.3-26.9c-49.9-29.8-75-74.1-79.6-132.3
			c-3.7-47.4-0.6-94.6,1.3-141.7c2.1-50.8,7.6-101.5,13.8-151.9c11.5-93.8,68.1-156.7,145.2-203.6c59-35.9,123.2-52.6,193.1-49.1
			c98.8,4.9,197.7,6.5,296.4,11.8c147.3,8,292.2,0.1,431-55.6c14.4-5.8,17.3,0,20.1,12c14.2,60.9,25.8,122.2,31.1,184.6
			c0.6,6.9-1,14.6,5.5,21.8c50.6-76.9,125.4-121.2,207-157.1c61.6-27.1,126.9-30.8,192.2-32.5c140.3-3.7,280.7-3.5,421,0.6
			c12.5,0.4,24.2-0.1,36.2-5.2c31.8-13.6,63.7-11.6,95.2,2.3c6.4,2.8,12.3,8.1,20.4,4.3c35.9-17,69.7-7.2,102.1,9.7
			c11.7,6.1,20.7,7.4,31.5-0.9c11.3-8.6,25.3-11.5,39.1-12c119.9-4.5,239.8-9.4,359.8-9.3c105.2,0.1,221.2,99.6,248.8,198.5
			c4.9,17.4,9.6,35,13.3,52.7c10.3,49.6-2.2,91.6-41,125.8c-22,19.4-21.8,26.7,0.3,45c31.3,25.8,40.7,60.6,44.7,98.4
			c7.6,71.1,4.7,142.4,1.5,213.6c-1.2,27.5-0.9,55.1-4.4,82.7c-5.9,46.1-23.8,86.6-51.8,122.9c-6.4,8.3-7.7,15.2-6.5,25.4
			c4.8,43.3,13.5,87.2,4,130c-4.9,21.9-0.5,34,13.1,50.3c74,88.7,63.1,186.7-25.5,260.1c-62.5,51.8-133,80.6-214.3,84.7
			c-55.3,2.7-110.4,3.8-165.7-0.1c-74-5.2-148.4-0.9-222.3-5.8c-79.5-5.3-159.8-11.9-232.9-49.3c-12.8-6.5-17.2,2.7-23.5,8.6
			c-67.3,62.7-145.3,97.5-238.8,93.7c-29-1.2-58.2,0.1-87.3-0.2c-96-1.3-192-1.8-288-4.5c-106.9-3-207.1-85.7-231.6-189.5
			c-7.4-31.3-8.5-63.5-6.8-95.4c2.9-51.5,1.8-103.3,8.4-154.6c1.6-12.2,1.1-25.9,6.7-36.1c14.3-25.9,8.5-48.8,0.4-75.4
			c-23.6-77.4-11.5-148.1,50.7-205.4c2-1.9,3.6-4.2,7.1-8.2c-66.5-11.4-76.2-60-78.2-113.9c-2.1-54.4,5.9-105.7,40.7-150.2
			c8.4-10.8,27.4-17.3,25.6-29.7c-1.6-11.5-16.8-20.8-25.5-31.5C1215.1,1181.6,1203.6,1161.4,1191.2,1136.6z M2610,1222.7
			c-5.3-1-7.3-1.7-9.4-1.8c-174.5-3.9-348.9-7.6-523.4-11.6c-9.4-0.2-17,2.3-23.9,8.3c-24.1,21-49.7,40.6-68.7,66.7
			c-36.5,50-64,104-66.2,167.4c-0.9,27.1,8.6,39,34.9,44.1c58.1,11.4,117.1,10.6,176,9.1c8.3-0.2,19-5.9,20.6,10.7
			c1.6,16.7-7.7,17.2-19.6,17.9c-42.2,2.4-84.3,0.2-126.4-3.2c-9.6-0.8-16.5,0.2-19.2,11.7c-6.5,27.4-7.4,54.7,0.3,81.9
			c1.7,6.1,3.2,12.2,12.6,11.5c40.7-3,81.3,6.6,122,0.8c9.5-1.3,16.8-2,17.1,11.8c0.3,12.5-4.3,16.6-16.1,16.8
			c-30.5,0.6-61.3,3.2-91.4-2.1c-35.9-6.3-45.4,10.2-44.1,45.5c1,27,10.6,34.5,38.3,35.5c27.3,0.9,48.5,13.7,65.5,34.1
			c8.8,10.6,17.4,21.2,27.3,31c9.5,9.4,16.4,7.8,25.9,0.3c30.6-24.3,50.3-56.2,63.5-92.2c5-13.7,12-10.2,21.4-7.5
			c12.6,3.7,8,10.9,4.9,18.4c-16.8,40.8-38.9,77.9-78.1,107c34.9,16.8,65.6,38.2,101.3,39.1c93,2.4,186.2,0.6,279.3,1.1
			c13.7,0.1,15.7-3.1,14.8-17.2c-3.3-48.5-5-97.5,10.3-144.6c3.5-10.6,3.8-18.2-1.3-28.2c-25.9-50.8-45.8-103.9-50.6-161.1
			C2498.2,1410.1,2524.7,1307.8,2610,1222.7z M1047.5,1352.5c-80.9,10.8-155.5,9.6-229.8-2.7c-9.7-1.6-20.5-1.8-17.2-17.8
			c3-14.4,11.8-11.9,21.4-10.3c75.1,13.1,150.4,12.6,225.9,3c21.7-2.8,33-14.1,40-33c-6-2.6-10.7,0-15.6,1.1
			c-90,20.5-179.8,20-269.4-2.2c-9.5-2.3-20-1.3-16.1-18c3.9-16.8,12.9-11.4,22.5-9.1c87.7,21.9,174.9,19.3,263.4,1.3
			c44.1-9,56.2-37.8,68.3-73.8c-31.5,7.9-60.6,16.1-90.1,22.3c-76.5,15.9-153.8,22.8-232,17c-8.9-0.7-18.8,1.7-18.5-13.9
			c0.3-17.1,11-13.6,20.7-13.7c5.8,0,11.6,0.4,17.4,0.6c99,3.6,195.8-8.4,290.1-39.3c33-10.8,33.7-11.6,36-48.4
			c-1.4,0-2.9-0.4-4.2,0.1c-4.1,1.4-8.2,3-12.2,4.6c-120.3,46.9-244.2,62.8-372.3,44c-10.3-1.5-16.3-2.7-13.8-15.3
			c2.2-11.2,7.4-13.7,18.1-12.2c19.9,2.6,39.9,4.3,60,5.5c110,6.5,215.6-12,316.7-56c7.8-3.4,17.6-5.3,17.8-16.5
			c0.3-19.1,0.1-38.3,0.1-60.6c-70.7,36.4-141.9,62.7-216.3,80c-64.7,15-130.2,22.8-196.7,23.2c-10.1,0.1-13.6-3.2-14.7-13.5
			c-1.8-17.7,10.1-13.9,19.5-14.1c136.7-2.7,265.8-35.2,388-96.3c14.9-7.5,23.2-15.6,14.8-33.9c-7.6,4-14.6,7.6-21.6,11.2
			c-122.8,63.3-253.1,96.8-391.5,98c-9.6,0.1-20.7,3.4-21.3-13.5c-0.7-17.7,11-13.4,20.2-13.6c134.5-2.5,261.6-34.3,381-96.2
			c34.8-18,34.8-18,28.5-56.1c-4.5-27.5-4.5-27.5-28.9-12.3C1008,951.7,868.8,992,718.6,995.5c-8,0.2-17.2,3.6-19.3-10.6
			c-2.5-17.7,6.4-17.9,19.8-18.1c153.1-2,292.9-46.9,420.9-130.1c12-7.8,19.5-15.3,8.2-30c-3,1.7-6.1,3.2-9,5.2
			c-127.8,86.7-269,124.7-423.1,116.5c-14-0.7-18.8-3.4-16.9-18.3c1.9-15.4,11.7-9.6,19.2-9.2c121.1,6.2,235.7-17.2,342.9-74.4
			c27.9-14.9,55.7-30.4,84.7-55.5c-10.1,2.6-14.2,3.4-18,4.7c-101.2,35.6-205.3,50.4-312.6,48.6c-133.1-2.2-266-8.8-399-14.2
			c-61.3-2.5-117.8,12.3-170.5,42.9c-52.8,30.7-95.2,71.2-121.8,127c-5.3,11.2-7.5,18.5,10.5,16.9c70.1-6.4,140.6-6.9,210.9-10.2
			c75.3-3.5,131.2,26.2,174.8,82.9c54.3,70.7,43.7,147.4-25.3,203.9c-5.5,4.5-13.6,7-16.3,15.5c48,3.7,66.4,27.7,61.5,79.3
			c3.5,0.4,7.1,1.1,10.6,1c66.2-1.5,132.3-4.5,198.5-4.4c84.3,0.1,169-1.2,249.4,31c7.1,2.8,11.8,3.1,16.8-3.5
			C1024.6,1380.4,1034.3,1368.9,1047.5,1352.5z M2096.7,1830.9c-11.2-13.3-20.6-24.4-29.8-35.6c-12.8-15.4-29.2-23.3-49.1-24.5
			c-37-2.2-48.2-10.5-58.1-46.5c-2.7-9.8-7-13.8-16.6-16.5c-64-17.7-129.1-27.8-195.1-33.7c-86.8-7.7-173-0.8-258.9,10.1
			c-67.1,8.5-133.4,21.8-192,59.3c-39.2,25.1-63.9,60-67.3,106.5c-5,68.1-8.8,136.4-6.7,204.9c2.1,69.2,35.1,121.2,89,162.1
			c10,7.6,15.6,9.5,23.8-2.8c10.4-15.6,22.8-30.2,35.9-43.8c104.6-108.3,230.2-157.7,380.8-129.9c98,18.1,178.2,68.9,243.1,143.6
			c11.1,12.8,17.5,10.1,27.2,0.4c8.4-8.4,17.7-13.8,3.7-26.7c-20.2-18.6-32-43-38.7-69.6c-2.5-9.9-7.5-16.5-16.2-21.7
			c-59.7-35.9-123.1-62.5-192-73.6c-177.9-28.7-329.9,24.1-458.6,148.3c-7.1,6.8-12.1,19-25.5,5.7c-14.3-14.2,0.4-19.1,6.6-25.3
			c88.7-88.6,194.6-143.5,319.6-159.5c11.7-1.5,18.1-4.2,16.8-18.3c-1.6-17.3,0.1-34.9-0.6-52.3c-0.4-11.2,1.5-18.7,15.1-16.6
			c11,1.6,13.6-4.5,13.3-14.2c-0.4-16.7-0.2-33.5,0-50.2c0-6.4-1-14.6,8.5-14.6c23.1,0.1,49-7.7,68.4,3.5c11.8,6.9,2.5,31.2,4,47.6
			c0.4,4.3,0.5,8.8,0,13.1c-1.2,11.2,3.1,16.5,14.7,14.9c12.3-1.8,14.5,5.2,14.2,15.5c-0.4,18.9,0.5,37.8-0.3,56.7
			c-0.5,12.5,3.7,17.6,16.5,20c61.2,11.4,118.7,33.1,173,63.6c3.8,2.1,7.2,8.2,12.8,4.1C1985.1,1948.1,1995.4,1863.8,2096.7,1830.9z
			 M571.8,2248.7c83.9,3,167-5.4,250-15.8c13.2-1.7,14.1-9,14.9-19.1c4.6-64.6,6.2-129.3,8.1-194c0.4-14.1-5.6-18.6-17.3-22
			c-45.9-13.2-92.8-17.6-140.2-15.5c-45.6,2.1-47.8,4.4-61.8,48.5c-9.8,31.2-34.8,44.2-68.8,36.1c-30.3-7.3-46.1-30.9-41.3-61.8
			c9.6-61.6,68.5-124.6,130.5-138.6c53.3-12,105.4-4.9,156.7,11.5c39.7,12.7,39.8,12.4,37.2-29c-5-81.7-40.2-123.9-119.7-144.4
			c-50.2-12.9-100.6-12.1-151.4-4c-114.8,18.3-211.4,103.4-233.6,213.2c-19.8,97.8-26,197.3-19.3,297.3c0.8,11.2,5.5,15.4,15.2,17.1
			c7.1,1.3,14.2,3,21.3,4.6C424.7,2249.5,498.5,2244.4,571.8,2248.7z M2656.6,2146.8c-12.7-1.3-25.4-2.6-38.1-4
			c-8.2-0.9-17.7,1.5-16.9-13.1c0.7-12.9,6-15.5,17.5-14.7c34.8,2.3,69.7,3.5,104.5,5.7c13.9,0.9,25.3-1.9,34.9-17.4
			c-45.7,0-89,0.3-132.2-0.3c-9.8-0.1-24.7,6.7-24.3-14.2c0.3-19.6,14.3-12.6,23.3-12.7c48.7-0.6,97.5-0.4,146.2-0.2
			c11.8,0.1,22-0.7,22.8-16c-49.5,0-98.8,0.4-148.1-0.3c-10.2-0.1-26.3,8.5-26.4-14c-0.1-21.6,15.6-12.8,24.8-13.1
			c48-1.3,96-1.3,144-2.2c7.2-0.1,18.7,3.1,19-8.6c0.4-13.1-11.6-7.4-18-7.5c-53.1-0.5-106.2-0.3-159.3-0.2
			c-9.8,0-18.3,1.2-18.3-13.8c0-13.9,6.5-15.2,17.4-14.9c19.6,0.5,39.3,0.1,58.9,0.1c34.9,0,69.8,0.1,104.7-0.2c5,0,13,2.7,12.6-7
			c-0.3-7.9-6.2-8.6-12.5-8.6c-5.1,0.1-10.2,0-15.3,0c-52.4,0-104.7,0.1-157.1-0.1c-7.3,0-17.1,3-18.4-9.4
			c-1.2-11.9-1.1-20.3,16.1-20c57.1,1.1,114.3,0.4,170.5,0.4c3-6.1,0.3-9.1-1.2-12.2c-17-34.2-28.1-37.2-58.9-16.5
			c-35.4,23.8-117.8,24.1-152-0.5c-9.6-6.9-18.8-9.4-30.1-9.3c-77.1,0.3-154.2,0.3-231.3,0c-14.8-0.1-24.8-1.3-16.9,20
			c9.2,25-3,51.6-25.2,66.2c-23.7,15.5-55.7,13.8-77.3-4.2c-20.3-16.9-26.8-44.4-18.8-69.2c3.7-11.3,21.8-18.6,14.7-29.6
			c-5.7-8.7-21.4-10.9-32.5-16.2c-7.8-3.8-15.5-8-23.1-12.3c-4.5-2.6-8.9-5.3-14.3-3.8c-42.2,11.5-78.7,29.9-95.6,74.3
			c-4,10.6-2.5,13.6,8.7,14.8c23.1,2.5,45.8,7.4,67.7,15.3c29.3,10.5,39.6,38.3,24,65.1c-10,17.2-25.5,27.2-44.9,31.8
			c-18.6,4.3-37.4,5.3-56.3,4.3c-12.3-0.7-16.2,1.7-12.9,15.6c14.1,59.5,53.7,93.1,109.4,110.3c61.4,19,125.3,30.2,188.8,30
			c123.6-0.3,247,11,370.7,6c90.2-3.7,166.4-36.7,229.1-101.4c20.1-20.7,35.3-44.5,39.2-73.9c8.1-60.7-20.2-106.5-60.8-147.1
			c-3.3-3.3-7.3-4.4-12-3.9c-23,2.3-46,4.5-68.5,6.7c-1.5,6.4,1.6,9.7,3.6,13.4c20.7,39.1,31.2,80.4,21.2,124.2
			c-23.5,102.7-139.3,154.8-241.6,135.6c-9.2-1.7-9.6-6.1-7.2-13.7c2.3-7.2,1-17.2,13.6-14C2617.3,2151,2636.8,2150.6,2656.6,2146.8
			z M2941.9,1561c-0.7,0-1.7-0.3-2.1,0c-3.9,3.3-7.6,6.7-11.5,10c-39,34-84.3,50.2-136,48c-103.1-4.4-179.3-77-192-182.5
			c-11.5-95.8,46.6-182.6,141.9-210.7c7.1-2.1,18-11.4,22.2,5.3c3.2,12.8-1.2,16.8-13.7,20.9c-73.3,24.1-116.8,73.1-123.3,151.9
			c-6.3,76.7,40.4,150.7,111.8,177c73.3,27,151,3.3,197.7-60.3c5.5-7.5,11.5-14.8,11.5-25.2c0.1-69,6.6-138.1-0.4-207.1
			c-3.7-36.7-10.4-72.2-44.3-95.3c-7.2-4.9-12.8-12.8-14.5-21.3c-2.4-12.1-9.9-12.5-19.2-11.6c-31.1,3-62.2,5-92.8,12.3
			c-101.8,24.5-182.1,75.8-220.1,178.4c-42.2,113.5-27.7,222.8,29.3,327.5c19.6,36,53.5,52.5,93.3,56.2c37.7,3.5,75.5,3.7,113.3,0.4
			C2876,1727.9,2952.5,1638.3,2941.9,1561z M1426,1201.3c-4.5-10-12.3-11.4-18.2-14.7c-19.4-11-37.3-24.3-46.1-45
			c-30.5-71.3-28.9-175.4,73.5-222.2c49-22.4,101-27.1,153.7-19c57.9,8.9,82.2,33.5,93.4,90.6c3.2,16.4,5.9,32.9,9.2,49.2
			c2.5,12.3,7.5,23.6,16.5,32.6c20.6,20.8,45.1,14.6,52.9-13.4c4.1-14.9,4-30.3,3.4-45.6c-2.7-73.6,77.6-154.1,167.6-140.3
			c22.8,3.5,45.3,9.1,70.6,14.2c-4.5-31.1-3.7-61.2,13.4-87.9c-7.3-5.7-14-3.6-20.2-3.9c-142.6-5.1-285.1-3.7-427.6,0.9
			c-120.6,3.8-222.1,51.3-307.5,134.5c-29.5,28.7-50,63.3-54.8,106.3c-8.1,71.3,25.4,124.4,71.2,172.9c4.9,5.2,9.8,7.4,17.3,5.4
			C1336.5,1204.6,1380,1202.1,1426,1201.3z M926,2209.1c101.8-26,180.4-95.1,198.5-198.5c7.1-40.4,8.5-81,10.1-121.5
			c3.3-87.1,10-174.3-2.3-261.3c-9.5-67.4-34.1-127.5-87.7-172.7c-17.6-14.8-36.9-26.6-60.7-34.8c4.6,92.3-23.4,169-87.3,231.6
			c-9,8.9-3.7,13,2.1,19.1c21.9,23,37.9,49.6,47.5,79.9c13.8,43.5,16.8,88.3,16.3,133.6C961.1,1992.9,956.1,2100.8,926,2209.1z
			 M207.2,2180.8c-6.7-69.8-0.2-133.8,7.9-198.1c16.7-132.7,71-242.9,184.2-319.4c8.2-5.5,9.9-11.7,7.8-20.2
			c-17-70.1-18.6-140.9-7.8-211.8c2.8-18.1-4.5-17-17.1-13.9c-115.2,27.8-194.4,96.7-237.4,207.1c-17.3,44.3-27.1,90.3-31.4,137.5
			c-7.8,86.1-17.3,172.1-6.8,258.7C114.8,2087.5,145,2141,207.2,2180.8z M1243.8,1749.8c76.1-56.6,101.7-68,198.7-86.7
			c33.6-6.5,67.8-8.2,101.7-12.2c132.2-15.6,262.6-6.8,391.6,26c7.4,1.9,17.5,10.8,23.4,0.8c5.1-8.6,9.3-18.8,4.5-30.9
			c-13.6-34.7-15.1-70.6-6.8-107c1.1-4.7,5.9-12.1-3.8-14c-24.4-5-45.5-19-72.8-18.1c-79.9,2.7-160,0.6-240,2.2
			c-76.2,1.6-152.8-5-228.5,8c-32.1,5.5-66-1-96.6,13.5C1233.7,1569.9,1201.9,1667.7,1243.8,1749.8z M1972.7,1039.9
			c27.2-14.7,54.5-28.1,79.1-46c10-7.2,24.5-14.6,25.3-25.6c0.7-10-17.7-8.8-25.5-16.1c-2.1-1.9-5.4-2.7-7.2-4.8
			c-26.7-31.3-65.3-36.7-101.8-44.1c-82.9-16.9-151,40.2-150.8,124.4c0,19.2-1.3,37.8-10.5,55c-15.7,29.6-46.9,38.5-76,22.4
			c-22.6-12.5-34.7-32.5-40.4-56.8c-4.7-19.8-7.9-39.9-12.1-59.8c-7.9-37.2-26.4-54.3-64.4-60.8c-29.1-5-58.1-3.3-86.9,0.6
			c-97,12.9-143.9,79.1-124.4,174.5c5.5,26.7,20.1,45.9,43.6,59.3c40.4,22.9,77.8,52.4,127.6,52.7c5.5,0,11.8,2.5,16.2,5.8
			c11.4,8.7,19.5,5,30.3-2.6c79.9-56.1,197-45.1,247.4,1.2c8.2,7.5,13.9,3.7,21.1,0c38-19.6,76.6-20.4,115.5-3
			c24,10.8,32.7,7.9,46.2-16.9c-27.9-3.7-51.7-14.9-68.8-37.8c-16.5-22.1-23.2-46.8-17.9-74.7c-50.6,16.2-84.3,8-106.3-24.7
			c-18.8-28-17.2-65.8,3.9-91.6c22.4-27.4,58-36.6,90.6-23.2C1960.9,961.5,1976.7,992.6,1972.7,1039.9z M287.7,2216.7
			c-5.3-87.3,3.6-169.6,10.1-252.2c20.9-269.4,309.6-347.5,474.5-270.1c44.5,20.9,79.5,52,88.1,103.6c4.9,29.3,9,59.1,9.8,88.8
			c2.9,106.2,2,212.4-4,318.5c-0.4,6.2-6.1,16.9,4.7,17.8c9.7,0.9,22.7,1.4,26.3-13.2c1.1-4.2,2.5-8.4,3.6-12.6
			c31.4-124.6,38.9-251.3,30.5-378.8c-6-91-53.8-153.8-139.9-184.3c-94-33.3-189.8-29.9-281.8,4.2
			c-146.6,54.4-235.2,159.6-261.4,316c-12.2,72.8-18.6,145.5-14.4,219.3c0.9,16.3,5.7,27.6,22.8,31.9
			C266.2,2208,275.4,2212.2,287.7,2216.7z M1568.4,1372c0.2,0,0.4,0,0.6,0c0-29.1,0-58.2,0-87.3c-0.1-31-7-40.2-37.4-45.9
			c-63.4-11.9-127.1-12.7-191-4.2c-36.6,4.9-69.4,16.1-91.7,47.8c-39.7,56.4-39.3,118.5-22.9,181.7c5.1,19.8,21.6,29.9,42.8,31.5
			c51.8,4,103-1.8,154.3-7.6c21.8-2.4,33.8-15,36-36.9c1.4-14.5,3.8-28.9,4.6-43.4c1.4-27.4-11.1-52.2-30.2-58
			c-24.8-7.5-40,7.4-51.8,26.1c-7.2,11.4-14.1,5.3-22,2.2c-12.3-4.9-4.7-11.4-1.6-17.1c16.3-29.4,49.5-46.2,78.3-40.1
			c27.5,5.9,51.2,35.8,54.2,69.6c2.3,26.3-0.9,52.3-7,77.9c-2.5,10.6-0.6,14.3,10.7,13.9c18.9-0.7,37.9-1.2,56.7,0.1
			c15.2,1,18.2-5.3,17.8-18.8C1567.8,1433.1,1568.4,1402.6,1568.4,1372z M1484.5,2263.6c20.3,0,34.9-0.9,49.4,0.2
			c15.4,1.2,22.6-2.1,23.7-20.1c2.4-36.4,21.7-64.3,52.6-83.4c33.8-20.9,69.5-26.5,105.3-5.7c35.5,20.6,49,54,48.9,93.8
			c0,7.9-5.7,17.9,9.8,18.2c68.3,1.4,135.2-2.2,195.1-41.5c12.5-8.2,15.4-12.3,4.4-25c-168.5-195-460.5-183.1-612.1,24.9
			c-10.7,14.7-7.8,19.8,7.8,25C1408.9,2262.9,1449.4,2264.4,1484.5,2263.6z M96,1189.3c-0.1,0-0.1,0-0.2,0
			c-0.6,13.8-0.5,27.7-2.1,41.4c-1.5,12.6,3.7,16.2,15.3,16.8c72.6,3.7,145.1,8.5,217.6,11.4c37.2,1.5,71.5-10.8,103.4-29.5
			c29.1-17.1,42.3-42.5,39.6-76.5c-4-49.2-36.2-80.7-87.9-85.2c-87.3-7.5-174.2,0.1-261.1,7.4c-13.2,1.1-17,6.5-17.7,18.6
			C101,1125.6,98.3,1157.4,96,1189.3z M1595.7,1363.2C1595.6,1363.2,1595.6,1363.2,1595.7,1363.2c-0.1,32.7,1.1,65.5-0.5,98.1
			c-0.9,18,5.6,22.2,22.1,21.2c21.7-1.3,43.7-1.4,65.4-0.2c15.8,0.9,21.8-3.3,21.3-20.3c-1.1-34.9-0.1-69.8,0.5-104.7
			c0.2-9.6-5.3-22.9,14-22.1c18.9,0.8,13.1,14,13.1,23.5c0.2,35.6-0.1,71.3-1.1,106.9c-0.3,12.1,3,16.8,15.8,16.3
			c25.4-1,50.9-0.7,76.3-0.5c10.1,0.1,16.3-1.6,16.7-13.9c1.8-58.8,4.3-117.7,6.3-176.5c1-29.4-13.5-48.8-38.9-62.5
			c-60-32.4-148.2-25.4-202.4,16.5c-6.4,4.9-9.1,9.5-9,17.9C1596.1,1296.3,1595.7,1329.8,1595.7,1363.2z M437.3,1310.9
			c-22.1,6.1-40.2,15.2-60.1,19c-84.8,16-170.5,17.3-256.4,17.2c-11.6,0-14.7-3.7-14.6-15c0.1-11.8,4.4-14.9,15.6-14.3
			c62.6,3.6,125-0.9,187.4-5.8c65.2-5.1,125.6-22.5,175.7-66.8c24.9-22,41.6-48.1,41.7-82.9c0.2-66.7-76.4-144.4-146-147.1
			c-69.2-2.7-138.1,2.5-207.1,5.9c-16,0.8-31.9,2.6-47.9,3.5c-9.1,0.5-15.6,3.1-15.3,13.8c0.3,13.1,9.5,7.6,15.7,7.4
			c10.9-0.4,21.8-1.5,32.6-2.2c77.6-5,155.2-11.7,233-2.4c58.1,6.9,94.9,42,104.4,100c8.9,54.1-14.2,95.1-67.6,121.1
			c-35.3,17.2-72.2,26.2-111.6,24.2c-68.3-3.4-136.5-6.5-204.8-10.5c-14.1-0.8-19,2.4-18.8,17.3c0.4,22.7,2.2,45,6.8,67.1
			c11.9,56.2,71.1,89.2,117.1,103.2c5,1.5,8.4-0.5,11.8-3.3c56.6-45.8,122.6-68.2,193.5-78.7c7.4-1.1,12.7-2.4,8.3-12.2
			C422,1349.9,426.6,1331.2,437.3,1310.9z M2270.9,807.5c-14.6-9.2-28.2-14-42.4-17.1c-31.8-6.9-52,4.7-61.6,35.8
			c-3.8,12.4-6.6,25.2-8.9,38c-14.1,77.6-53.8,136.7-124.2,174.1c-14.1,7.5-28.2,15.1-41.5,23.7c-31.4,20.4-36.8,55.2-13.7,84
			c22.5,28,74.5,35.5,97.3,14.3c56.8-53,97.3-116,122.9-189.6C2218.3,915,2229.9,855.4,2270.9,807.5z M660.5,1395.6
			c-50.5-2.6-99.8,1.7-149,4.6c-7.7,0.4-17,1.7-17.6,14.5c-2.9,61.1,0.6,122,7.8,182.6c1.3,10.7,5.3,12.5,15.9,8.9
			c35.9-12,73.2-18.5,111-19.6c14.2-0.4,16.9-5.8,15.2-18.6c-4.1-31.1-4.2-62.1-0.5-93.4C646.4,1448,654.7,1422.5,660.5,1395.6z
			 M2291.4,829.1c13,7.3,26.6,12.2,36.6,21.2c15,13.4,30.2,12.7,48.3,9.6c76.2-13,152.9-18.5,230.2-13.2c7.9,0.5,15.9,2.8,23.4-1.8
			c26.5-16.1,51.4-34.5,75-55.9c-8.2-6.2-15.7-4.4-22.6-4.2c-106.8,2.4-213.7,4.8-320.5,8.1C2333.2,793.6,2309.3,806.1,2291.4,829.1
			z M2576.5,1801.8c-0.1,19.6-2.8,39.1,0.5,58.7c2.8,16.3,10.3,29.3,26.4,34.3c32,9.8,64.7,10.2,96.6,0.8
			c24-7.1,30.3-19.8,28.5-45.6c-1.6-21.7-3.4-43.5-2.8-65.3c0.4-14.7-3-20.4-18.8-20.5c-40.7,0-79.6-7.7-112.4-34.2
			c-9.9-8-11.4-1.6-13.7,6.7C2575,1758.1,2579.1,1780.1,2576.5,1801.8z M843.9,1949.1c-0.5-25.8-0.1-26.8-9.4-30.3
			c-57.5-21.4-115.7-40.3-178.2-26c-58.8,13.5-93,54-112.1,108.4c-8,23,3.4,37.4,26.1,39.7c18.3,1.8,25.2-8.1,30-24
			c13.9-46,30-59.1,74.7-62.3c48.9-3.4,97.3,0.6,145,12.2C844.5,1972.8,844.4,1973.2,843.9,1949.1z M957,1447
			c0.3-37.7,0.3-37.7-36.3-44.2c-5.7-1-11.4-2-17.1-3.1c-13.1-2.6-20.5,1.2-25.6,15.2c-22.6,62.3-36.9,126.3-46.1,191.7
			c-3.1,21.7,16.5,20.3,25.8,29.3c9.7,9.3,15.4,0.4,21.4-5.6C930.1,1579.8,954.9,1518.2,957,1447z M668.8,1525.5
			c0.2,3.6,0.3,7.3,0.5,10.9c2.1,46.1,2.1,46,46.7,51.4c7.2,0.9,14.4,1.9,21.5,3.4c11.4,2.4,15.3-0.8,14.1-13.3
			c-5.7-59.2,5.1-115.6,30.2-169.4c4.6-9.8,6.4-16.1-8.4-15.5c-23.2,0.9-46.5,1.4-69.8,1c-10.4-0.1-13.4,5.5-16.2,13.7
			C674.1,1446,668.1,1485.2,668.8,1525.5z M2099.5,1177.8c0.4,2.5,0.7,4.9,1.1,7.4c52.5,0,105.1,0.1,157.6-0.2
			c3.8,0,8.1-2.9,11.3-5.6c20.4-17.2,35-38,42.9-64c3.3-10.8,0.6-14.5-9.3-16.1c-36.6-5.8-72-16.2-107.1-27.9
			c-5.9-2-10.7-3.3-14.6,3.5C2159.4,1113.3,2129.9,1146,2099.5,1177.8z M2886,1729.8c-36.7,26.4-77,33.7-118.8,35.1
			c-11.4,0.4-15.5,4.6-14.8,15.6c1.6,23.9,3.6,47.9,3.6,71.8c0,15.5,6.7,20.9,21,20.3c30.5-1.4,60.9-2.3,91.3-5.5
			c17.4-1.8,23.1-10.1,23.6-24.6C2893.2,1805.7,2891.6,1769.1,2886,1729.8z M2635.3,876.1c40.5,23.3,77.2,47.5,111.6,75.1
			c14.9,11.9,26.6,36,44.6,33.7c18.1-2.3,34.2-20.3,51.1-31.5c1.8-1.2,3.5-2.7,5.3-3.7c8.9-5,7.7-9.9,1-16.5
			c-40.3-39-84.3-73.1-132.5-101.9c-7.2-4.3-12.6-4.4-19.6,0.8C2677.7,846.4,2658,860,2635.3,876.1z M2869.3,1133.6
			c7.9-0.8,18.5,1.4,23.2-2.8c26.6-24.4,55.1-47.9,53.5-89.9c-1.3-34.7-11.5-66.9-23.1-99.1c-4.3-11.9-8.9-9.7-16.8-3.2
			c-17.3,14.4-34.7,28.7-53.3,41.3c-10.3,7-12.1,13.8-9,25c9.7,34.7,12.8,70.3,4,105.4C2842.2,1132.7,2848.9,1137.8,2869.3,1133.6z
			 M2542.2,921.9c16.4,13.1,30.8,24,44.5,35.7c14.3,12.2,27.4,26,42.1,37.8c17.6,14.3,26.8,44.5,49.7,44.1
			c22.2-0.4,43.8-17.4,66.1-26c19.3-7.5,15.1-14.7,2.4-25.5c-31-26.5-64.4-49.3-98-72.2c-27.4-18.7-53-27.2-82.2-5.1
			C2560.5,915.3,2552.3,917.4,2542.2,921.9z M2027.3,862.2c1.5,30.4,17.4,55.5,47.9,70.9c22.8,11.6,26.7,9.8,37.2-13.7
			c17.4-38.6,17.9-82.1,34.9-120.8c2.8-6.4-2.9-7.5-6.3-8.9C2091.1,768.8,2028.6,792.4,2027.3,862.2z M2341.8,969.1
			c21.1,33.5,34.9,68.9,43.1,106.4c1.7,7.8,8,7.9,13.5,7.9c28.2,0.2,56.5-0.2,84.7,0.1c13.9,0.1,15.2-6.1,10.8-17.4
			c-14-36-32.6-69.3-56.2-100c-5.6-7.2-11.7-9.4-20.6-7.9C2393.1,962.1,2368.8,965.2,2341.8,969.1z M2644.2,1053
			c-33.4-38.7-69.2-70-106.8-99.6c-19.7-15.5-37.6-19.6-61.3-9.5c-12.8,5.5-14.3,8.4-6.5,18.7c23.8,31.4,40.9,66.4,53.7,103.5
			c3.1,9,6.7,12.6,16.9,11.1C2574.6,1072.2,2608.3,1064.6,2644.2,1053z M1871,1377.7c-1.4,28.7-2.7,59.8-4.7,90.9
			c-0.8,12,6,12.3,14.8,12.5c10.5,0.2,12-4.9,10.6-13.7c-5.4-34.1,3.1-66.3,14.9-97.7c14.8-39.5,33.6-77.1,61.7-109
			c9.6-10.9,8.7-16-4.7-20.9c-28.6-10.6-56.7-10.7-84.2,3c-5.2,2.6-13.2,3.8-10.3,13.5C1880.9,1295.8,1869.7,1335.6,1871,1377.7z
			 M2274,968.9c-43.7-2.3-43.6-2.3-57.5,34.1c-3.6,9.5-7.1,19.1-11.9,28c-5.6,10.3-1.5,13.7,8,16.8c42.9,13.7,86.5,23.8,131.1,30.3
			c11.8,1.7,13.1-3.8,10.3-11.9c-6.1-17.8-12.7-35.5-19.9-52.9C2322.2,984.2,2307.6,958.4,2274,968.9z M2597.7,1194.5
			c22.9-3,42.2,4.4,60.9-5.2c17.5-8.9,35.1-17.4,52.9-25.6c6.1-2.8,11.7-5.4,14.2-12.3c10.7-29.1,13.5-58.9,7.4-89.4
			c-1.2-6.1-3.5-10.8-11.8-7.5c-22.3,8.7-44.8,17.1-67.3,25.2c-4.7,1.7-7.5,4.5-8.7,8.9C2635.3,1124.8,2619.1,1158.5,2597.7,1194.5z
			 M1659.8,2264.3c0,0.4,0,0.8,0,1.2c19.6,0,39.2,0.1,58.8,0c7.2,0,13.9,0.7,16.7-9.4c11.5-41.5-25.2-87.7-68.8-85.8
			c-40.8,1.8-75.1,34-81.3,74.6c-2.2,14.2,0.8,20.1,15.8,19.6C1620.6,2263.8,1640.2,2264.3,1659.8,2264.3z M2457.9,1192.4
			c34,0,63.5-0.2,93.1,0.1c7.9,0.1,13.9-1.9,18.6-8.6c17.2-24.5,30.8-50.8,41.2-78.8c3.8-10.3,0.4-13.5-9.7-11
			c-33.2,8.2-66.9,12.8-100.9,16c-8.2,0.8-11.2,5.2-13.1,11.9C2481,1144.2,2471,1165.1,2457.9,1192.4z M435.1,1640.6
			c7.5-3.7,11.8-6.5,16.5-7.9c19.4-5.9,25.7-16.5,22.2-38.2c-9-56.8-10.5-114.3-9.2-171.8c0.1-6.6,6.3-18.5-7.2-17.8
			c-10.7,0.6-24.8-3.2-28.4,15.7C415.3,1493.5,418.7,1565.9,435.1,1640.6z M2302.9,1188.5c26.3,0,46.9-0.4,67.6,0.1
			c63.2,1.5,65.9-0.6,85.9-61.6c3.9-11.9,2.3-15.3-10.2-15.2c-30.4,0.3-60.9,0.1-91.2-4.3c-5.6-0.8-11.7-1.7-13.4,6.7
			C2336.1,1139.9,2323.6,1162.4,2302.9,1188.5z M803.9,1606.6c8.4-67.5,23.3-133,46.3-196.6c1.7-4.7,7.4-12.9-1.2-14.1
			c-13.2-1.7-27.4-6.9-36.8,12.1c-27.5,55.6-37.6,113.8-33.2,175.2C780.2,1598.1,786.7,1605.9,803.9,1606.6z M1945.7,1018.5
			c-0.2-27.9-22.4-49.8-50.1-49.3c-27.8,0.5-49.1,23-48.4,51c0.7,27.2,21.6,47.7,49.1,47.8
			C1924.6,1068.2,1945.8,1046.8,1945.7,1018.5z M2756.7,1148c15.6-2.9,27.6-5.7,39.8-7.2c13.4-1.6,19.3-8.1,22.1-21.8
			c5.7-28.2,6.6-56.1,3.2-84.5c-3.6-30.3-3.7-30.3-30.8-14.9c-8.2,4.7-16.4,9.4-24.8,13.6c-6.7,3.3-10.1,6.8-7.7,15.1
			C2767.4,1080.5,2765.9,1112.9,2756.7,1148z M2364,936.9c-16.1-39.1-43.1-63.7-79.6-78.7c-7.4-3-13.9-4.6-17.5,5.2
			c-8,21.8-16.3,43.4-24.3,65.2c-2.4,6.7-0.9,11.6,7.4,11.6C2287.6,940.4,2325.2,943.7,2364,936.9z M2900.9,902.3
			c-1.9-3-3.6-6.2-5.8-9c-31.8-42.7-73.3-73.5-121-96.2c-7.1-3.4-15.2-5.4-23-6.2c-9.1-0.9-15.5,6.1-18.3,13c-2.9,7,6.4,8.2,10.7,11
			c45.5,28.9,87.7,61.8,126.1,99.6c4,4,7.7,12.5,15.6,5.3C2891,914.8,2898.8,911.3,2900.9,902.3z M2372.4,890.9
			c6,11.6,12.3,22.8,17.7,34.5c3.7,8,10,7.6,16.4,6.4c57.1-10.2,111.8-27.8,165.4-54.5C2542.8,868.6,2410.8,877.9,2372.4,890.9z
			 M1699.8,1957.5c51.7,1.1,51.7,1.1,48.2-42.3c-0.1-1.4-0.1-2.9-0.1-4.4c-0.2-4.9-2.1-9.4-7.5-8.4c-26,4.6-21.6-13.5-21.6-28.3
			c0-12.4-0.4-24.7,0-37.1c0.3-9.4-1.5-14.9-13-14.6c-11,0.3-11.1,6.5-11,14.2c0.1,17.5-0.3,34.9,0.1,52.4c0.2,9-3,14.3-12.5,13
			c-15.8-2.2-17.4,6.5-17.3,19.3c0.1,35.7-0.3,35.7,34.2,36.2C1701.5,1957.6,1703.7,1957.5,1699.8,1957.5z M2009,2003.3
			c-2.3,26.4,2.5,30.8,29.1,27.5c10.8-1.4,21.7-1.9,32.5-3.1c10.4-1.1,19.6-5.3,26.9-12.9c13.5-14,10.9-26.4-7.5-32.4
			c-13-4.3-26.5-7.7-40-10.3C2014,1965.3,2012.1,1967,2009,2003.3z M2235.1,1902.5c-18.7,0.5-33.9,16.9-33.1,35.9
			c0.8,18.6,16.9,33.1,36.3,32.6c19.7-0.5,34.7-15.6,34.5-34.6C2272.6,1917,2255.9,1902,2235.1,1902.5z M483.8,1373.4
			c17.1,0.9,29-5.8,29.7-25.3c0.6-17.4-12.6-30.8-29.5-30.6c-16.9,0.1-30.3,13.9-29.1,31C456,1365.6,464.7,1375.2,483.8,1373.4z"/>
		<path class="st0" d="M2265,1435c-16.3,0.3-37.4-0.2-56.1-12.1c-12-7.6-22.2-17.5-24.4-31.9c-1.9-12.4-6.8-19.7-19.7-20.5
			c-10.5-0.7-10.1-6.3-8.2-14.8c2-8.8,3.2-15,14.8-12.7c27,5.4,54,10.7,81.2,14.8c32,4.8,62.8,1.1,87.6-21.9
			c11-10.2,16.9-2.4,23.5,3.4c8.9,7.9,0.7,13.9-4.7,17.2c-17.5,11.1-25.2,26.7-30.4,46.5C2320.7,1433.5,2314,1435.6,2265,1435z
			 M2211.3,1380.3c10.8,22.2,68,38.1,85.2,25.8c4.8-3.5,6.7-9.5,7-15.4c0.3-5.2-3.8-5-7.5-4.7
			C2268.1,1388.3,2240.4,1384.9,2211.3,1380.3z"/>
		<path class="st0" d="M2341.7,1525.1c0-14.5,0.4-29-0.1-43.5c-0.4-9.8,2.1-14.5,13.1-14.3c11,0.1,15.9,3.4,15.5,15
			c-0.6,16.6,1.2,33.5-0.5,50c-2,20,6.1,25.7,24.7,23.6c11.4-1.3,23.2,0.4,34.7-0.3c11-0.7,13,4.5,13.2,14.2
			c0.2,10.9-4.1,13.5-14,13.3c-23.9-0.5-47.8-0.6-71.7,0c-10.9,0.3-15.9-2.5-15.1-14.4C2342.4,1554.2,2341.7,1539.6,2341.7,1525.1z"
			/>
		<path class="st0" d="M2266.8,1529.1c0-17.4,0.4-34.8-0.2-52.1c-0.3-10.3,3.5-13.9,13.8-13.9c10.4,0,13.8,3.6,13.7,13.9
			c-0.4,35.5-0.5,70.9,0,106.4c0.1,10.3-3.4,13.9-13.7,13.9c-10.3,0-14.1-3.5-13.8-13.9C2267.2,1565.3,2266.8,1547.1,2266.8,1529.1z
			"/>
		<path class="st0" d="M577.4,945.2c32.1,0.8,58.3,27.6,57.4,58.8c-0.9,32.1-27.6,57.1-60,56.2c-31.3-0.9-56.3-26.6-56.2-57.6
			C518.8,970.4,545.4,944.4,577.4,945.2z M606.3,1003.3c0.4-15.9-12.1-29.4-28-30.2c-17.3-0.9-30.5,11.6-30.7,29
			c-0.2,16.5,11.5,29.6,27.3,30.3C591.5,1033.3,605.9,1019.9,606.3,1003.3z"/>
		<path class="st0" d="M434.3,914c-0.5,31.6-28,58.3-59.2,57.3c-32-1-56.7-27.8-55.7-60.4c0.9-31.1,26.9-56.3,57.8-55.9
			C409.1,855.2,434.7,881.8,434.3,914z M406.9,913.7c0.5-15.5-12.3-29.3-28.2-30.2c-17.1-1-31.4,11.8-31.9,28.5
			c-0.5,15.7,12.1,29.3,27.9,30.3C391.1,943.4,406.3,929.8,406.9,913.7z"/>
		<path class="st0" d="M620.1,1132.8c32.3-0.4,58.2,25,58.4,57.2c0.1,30.8-25.2,56.6-56.4,57.3c-32.6,0.7-58.7-24.1-59.3-56.4
			C562.1,1158.6,587.2,1133.2,620.1,1132.8z M620.8,1160c-17.4,0.3-30,13.3-29.6,30.7c0.4,16.3,12.8,28.9,29,29.2
			c16.2,0.3,30.7-14.4,30.2-30.8C650,1173.6,636,1159.8,620.8,1160z"/>
		<path class="st0" d="M1902.2,1923.7c-41.2-0.5-71.6-31.1-71-71.4c0.6-41.5,32.9-71.1,77.1-70.6c37.6,0.4,68.1,33.9,67.3,73.7
			C1974.8,1895.9,1944.3,1924.3,1902.2,1923.7z M1904.3,1896.9c25-0.2,44.4-19.7,44.1-44.1c-0.3-24.5-20-43.3-45.2-43.2
			c-25.4,0.2-44.2,19.2-43.9,44.2C1859.7,1879,1878.6,1897.1,1904.3,1896.9z"/>
		<path class="st0" d="M1560.2,1853.6c-0.2,37.8-32.8,69.5-70.4,68.6c-37.4-1-67.5-32-67.3-69.3c0.2-37.4,30.7-68.1,68-68.6
			C1528.2,1783.9,1560.5,1815.9,1560.2,1853.6z M1451.2,1852.9c-0.1,24,16.9,41.1,40.7,40.7c22.1-0.3,39.9-18.1,40.1-40
			c0.2-21.9-17.4-40.1-39.4-40.7C1468.8,1812.2,1451.3,1829.1,1451.2,1852.9z"/>
		<path class="st0" d="M2279.5,2089.1c0.4,35.4-29.4,64.9-64.9,65.5c-33.2,0.6-65.5-31.3-65-65.2c0.5-34.6,28.9-63.7,63.7-64.6
			C2248.4,2023.9,2279.1,2053.7,2279.5,2089.1z M2214.7,2053.3c-21.1,0-37.5,16.5-37,37.3c0.5,19.4,17.2,35.9,36.6,36
			c20.3,0.2,36.8-16.9,36.5-37.9C2250.6,2068.5,2235.1,2053.4,2214.7,2053.3z"/>
		<path class="st0" d="M2747.7,1375.2c25.6-4.2,49.1-8.7,73.1-6.6c23.9,2.2,45.4,8.5,58.5,31.5c24.7,43.4,2.5,87.3-46.8,90.5
			c-21,1.4-42.2,1.9-63-0.1c-19.1-1.8-24.5,5.2-21.9,22.6c0.9,5.7-0.3,11.6,0.2,17.4c0.9,10.5-1.8,16.2-14.1,15.7
			c-11.1-0.4-15.3-4.4-15.3-15.6c0.3-70.4,0.3-140.8,0-211.1c0-11.2,4.4-15.1,15.4-15.5c12.6-0.5,14.3,5.6,14,15.8
			C2747.3,1338,2747.7,1356,2747.7,1375.2z M2794.1,1464.3c15.3,0.1,30.4-0.8,45.5-3.1c16.8-2.6,22.4-12.7,21-27.4
			c-1.6-16.8-8.3-30-27.2-34.8c-26.5-6.7-51.8-1.5-77.4,4.2c-4.7,1.1-7,3.2-8.4,8.2c-10,38.4,0.2,52,39.8,52.9
			C2789.7,1464.3,2791.9,1464.3,2794.1,1464.3z"/>
		<path class="st0" d="M1608.2,1070.7c-0.3,50.9-42.7,93-93.6,92.7c-50.8-0.3-93.2-43.2-92.7-93.8c0.4-51,43-93.1,93.8-92.7
			C1566.7,977.3,1608.5,1019.7,1608.2,1070.7z M1450.7,1069.5c-0.2,37.4,26.4,64.4,63.9,64.9c36.2,0.5,65.4-27.8,65.8-63.6
			c0.4-35.8-28.5-65-64.6-65.3C1479.1,1005.2,1450.8,1032.9,1450.7,1069.5z"/>
	</g>
</g>
</svg>
