<?xml version="1.0" encoding="utf-8"?>
<!-- Generator: Adobe Illustrator 23.0.0, SVG Export Plug-In . SVG Version: 6.00 Build 0)  -->
<svg version="1.0" xmlns="http://www.w3.org/2000/svg" xmlns:xlink="http://www.w3.org/1999/xlink" x="0px" y="0px"
	 viewBox="0 0 3000 3000" style="enable-background:new 0 0 3000 3000;" xml:space="preserve">
<style type="text/css">
	.st0{stroke:#000000;stroke-width:10;stroke-miterlimit:10;}
</style>
<g id="Layer_1">
</g>
<g id="Layer_2">
	<g>
		<path class="st0" d="M451.4,1042.4c-38.7-15.4-74-29.7-103.7-55.1c-114.5-98-128.9-299.4-27.4-412.4c18.7-20.8,24.3-29.6-2.4-49
			c-96.4-70.1-102-283.4,38.8-342.3c48-20.1,95.9-38.5,147.8-43.9c97.8-10.3,179.3,11.9,219,118.5C772.7,191.8,836,153.9,912,136.8
			c42.9-9.7,85.9-11.5,129.3-2.9c93.9,18.6,154.7,89.3,160,187.3c1.2,21.5,0.2,43.2,0.2,66c2.2,1.1,5.1-1.6,7.9-4.5
			c154.3-156.4,346.6-235.3,558.6-274.5c157.5-29.1,315.9-40,475.5-24.1c166.3,16.6,323.6,58.8,454.2,170.3
			c109.6,93.5,167.1,213.4,175,357.2c7.1,128-11,253.8-31.7,379.4c-28.6,174.2-56.3,348.5-93.1,521.2
			c-33.4,156.7-80.7,308.1-180.2,437.9c-50.7,66.1-111.2,122.1-182.2,174.1c25.1,7.5,46.3,13.4,67.2,20.1
			c113.1,36.6,212.1,93.5,276.7,197.5c103.4,166.5,63.5,365.2-93.4,482.5c-97.4,72.7-207.2,101.7-326.5,110.6
			c-218.6,16.4-436.3-7.2-654.5-6.8c-96.2,0.2-192.4,4.8-288.6,4.8c-119.7,0-231.7-28.2-329.1-101.4c-13.3-10-22-3.4-33,2
			c-93.3,45.8-190.7,79.3-294.3,91.3c-184.2,21.4-341.9-24-447.3-188.2c-56.4-87.9-82-187.4-90.4-290.5
			c-19.6-239.5-14-477.5,54.6-710.4c15.2-51.6,32.9-102.3,53.1-152.1c4.3-10.6,7.6-20.5,2.9-32.5c-62.2-157.8-6.9-377.6,153-496.2
			C440.1,1051.8,443.9,1048.4,451.4,1042.4z M967.2,1519.3c-0.9,98.8,3.8,185.2,16.9,271.5c37.2,244.4,190.6,409.7,432.6,453.3
			c192.2,34.6,385.4,26.9,576.9-10c146.3-28.2,279.4-87,397.8-178.9c157.3-122.1,242.6-287.5,287.7-476.3
			c61-255.5,100.1-515.1,135.7-775.1c12.8-93.4,16.4-188.1-7.2-280.9c-40.2-158-146.6-257.8-291.6-320.3
			c-148.4-64-305.7-77.2-465.1-73.6c-72.9,1.7-74,4.2-72,76.7c0.6,22.9,5.9,38.9,31.7,44.9c28.5,6.6,48.8,26.2,62.9,51.7
			c24.9,44.8,19.9,93-13.5,132.7c-18.1,21.5-40.1,38.8-61.1,57.2c-44.6,39.2-44.4,62.1-0.6,100.8c9.3,8.2,18.7,16.3,27.4,25.1
			c36.2,36.6,47.8,79,28.3,127.7c-9.2,22.9-19.3,45.5-30.1,67.7c-39.4,81-72.3,164.4-98,250.7c-5,16.9-1.6,22.2,15.1,23.6
			c22.6,1.9,45.3,4.7,67.7,8.2c216.1,33.7,369.3,182,404.9,396.4c32,192.8-24,363.8-137.6,518.9c-9.4,12.8-16.5,27.1-35.3,9.7
			c-13.6-12.7-24-18.9-7.4-40.7c96-126,144.5-267.8,136.3-427.8c-10.2-200-145.5-360.1-341.9-399.7c-183.4-37-360.5-12-529.6,65
			c-143.5,65.3-251.7,172-335,304.5c-12.1,19.2-21.1,15.5-36.1,6.5c-14.5-8.7-21.2-14.9-9.6-33c117.8-183.8,276.4-314.1,488.9-373.4
			c23.7-6.6,32.1-14,31.1-40.8c-6.9-194.2,132.9-320.3,324.9-295.1c6.6,0.9,11.7,5.3,18.7-2.9c41.3-48.4,38.4-103.5-8.7-144.7
			c-5.4-4.8-11-9.4-16.2-14.4c-57.1-55.1-57.3-108.6-0.2-163c17.2-16.4,35.9-31.2,52.9-47.9c47-46.3,35.3-96.4-27-118.7
			c-37.3-13.3-52.2-33.8-53.3-74.3c-0.5-19.6-1.6-39.5,0.4-58.9c2.1-20.8-6.5-25.1-24.6-22.1c-28.5,4.6-57.3,8.1-85.9,12.6
			c-148.2,23.5-290.8,64.3-419.1,144.5c-215,134.5-335.1,332.3-377,579.4C985.7,1092.7,978,1312.1,967.2,1519.3z M976.1,2674
			c14,32.5,30.5,59.3,53.3,81.8c78.8,77.5,175.2,116.2,284.1,122c150.9,8.1,301.9-7.3,453-0.4c172.5,7.9,344.8,18.2,517.8,7
			c112.3-7.3,218.2-27.4,312.3-95.1c210.7-151.7,152.7-398.1,13-506.7c-76.2-59.2-164.1-90.3-256.2-111.8c-20.8-4.9-40.6-1-61,10.7
			c-56.6,32.3-117.2,56.3-179.4,76.2c-155.8,49.9-316.5,57.9-478.3,57.7c-151.5-0.2-299.4-17.2-433.5-96.1c-8.5-5-15.6-5.8-25.8-1.5
			c-63.2,27-117,66.1-158.4,120.9c-21.9,29-39.9,60.6-48.2,97.7c31.9-4.3,60.4-9.7,89.1-11.5c29.9-1.8,60-1.4,89.9,0.3
			c61,3.4,104.6,46.1,114.8,110.7c8.8,55.1-19,102-74.8,124.8c-14.2,5.8-29.2,10.5-44.2,13.8
			C1089.4,2686.4,1034.8,2681.4,976.1,2674z M947.9,1881.2c2.2,28.3,4.1,49.8,5.6,71.3c7.4,102.9-5.7,204.5-20,305.9
			c-10.8,76.7-19.7,154.2-48,227.1C838.7,2606,684.4,2717,522.2,2611.3c-60.5-39.4-97.8-97-126.2-161.4
			c-58.7-133.2-59.2-273.6-47.8-414.6c8.3-103.4,30.2-204.4,63.9-302.7c3.2-9.4,8.4-19.3-4.2-27.1c-33.2-20.8-59.3-49.8-87.4-81.4
			c-5.1,13-8.9,22.4-12.5,31.9c-86.9,227.8-100.8,465.3-90.9,705.4c3.9,94.1,17.2,187.2,53.1,275.8
			c50.1,123.9,136.2,206.8,269.2,232.3c158.2,30.3,302.8-18.8,446.3-82.2c-71.3-88.6-98.5-186.3-83.5-295.6
			c18.1-132.2,87.6-229.6,201.9-296.3c33.1-19.3,33-18.9,6.3-43.9c-54.3-50.8-97.5-109.7-126.6-178.4
			C971.9,1944.9,961.5,1916.1,947.9,1881.2z M337.6,893.8c2.9-2.3,4.1-2.8,4.3-3.5c1-4,1.9-8,2.6-12.1
			c24.9-137.7,101.7-233.7,237.1-270.8c137.8-37.7,254.2,6.5,347.2,114.5c15.6,18.2,15.1,26.8-5.6,41.5
			c-22.9,16.2-28.1-0.6-37.8-12.6c-72.8-89.4-194.4-126.1-302-90.9c-106.2,34.7-183.1,134.1-189.6,245c-3.2,54.9-1,60,51.2,78.5
			c28.4,10.1,57.6,26.3,89.2,11.5C660.8,936,793.8,921.8,931,939.6c20.8,2.7,28.6-1.5,31.9-23.2c15-98.4,37.8-194.9,79.2-285.9
			c6.8-15.1,1.3-19.7-11.1-24.8c-146.2-59.7-296.7-96.9-456-86.5c-57.1,3.7-112.5,16.9-162.9,45.7C309,624,270.3,792.5,337.6,893.8z
			 M537,1052.2c-85.4,45.8-148,105.6-188.2,188.6c-8.8,18.2-9.6,34-2.7,53c87.6,242.2,357.3,315.3,554.4,149.8
			c12.2-10.3,20.4-21.6,20.9-39.2c4-130.3,18.3-259.9,28.5-389.8c1.5-19.2-6.1-22.6-21.9-24.4c-39.1-4.6-78.3-5.8-117.7-6.6
			c-22.8-0.4-27.3,8.1-26.2,29.1c3.9,76.4,4.7,153,9.5,229.4c1.8,29.3-16.4,24.7-33.1,27.2c-23.7,3.5-17.9-13.8-18.4-25.8
			c-3.6-76.5-7.4-152.9-10-229.4c-0.7-19.2-5.5-24.5-25.7-19.9c-32.3,7.3-63.9,16-95.6,25.5c-18.3,5.5-23.7,14.5-23.3,33
			c1.1,62.1-0.1,124.2,0.7,186.3c0.2,18.9-1.1,30.3-25.7,30.3c-24.3,0-26.1-10.8-25.9-30C537.5,1178.6,537,1118,537,1052.2z
			 M984.1,180.6c-140.1,0.2-232.6,80.8-253.8,220.7c-3.3,22-9,43.7-13.5,65.6c23.2,4.4,46.6,8.2,69.7,13.3
			c19.7,4.4,26.7,0.1,26.3-22.4c-0.8-53.4,14-102.1,54.5-140.2c50.6-47.6,120.4-37,154.4,23.8c17.2,30.8,22.2,64.4,19.3,98.9
			c-0.8,9.7,7.6,30.2-14.1,26.2c-15.3-2.8-40.3,0.5-36.6-30.1c2.9-24-2.1-47.5-13.8-69c-18-33.1-45.8-37.2-73.4-11.6
			c-35.3,32.8-39.9,74.7-37.3,119.7c1,16.5,7.7,22.6,22.8,27.1c43.5,13,86.8,26.9,129.4,42.6c16.1,5.9,26.7,3.8,38.9-7.3
			c45.2-40.9,75.1-90.9,87.9-150.1C1171.5,263.9,1106.3,180.4,984.1,180.6z M316.7,1363.5c-29.5,125.8,33.3,259.4,152.5,318
			c145.9,71.6,290.5,54.1,433.2-11.9c7.7-3.5,14.7-7,14.6-17.5c-0.2-50-0.1-100-0.1-153.3C710.2,1652.7,446.2,1597.6,316.7,1363.5z
			 M404.6,508.8c-3.4-6.2-6.8-12.4-10.3-18.5c-48.1-83.5,1.8-183.9,97.6-194.9c27.7-3.2,55.8-3.4,83.1,4.7
			c9.8,2.9,28.3-3.8,21.5,19.1c-5,16.8-1.7,39.7-32,31.7c-28.3-7.4-57-9.5-85.5,0.5c-52.8,18.5-68.7,82.4-31.1,123.6
			c7.6,8.3,14.1,13.1,26.5,9.5c53-15.5,107.7-19.6,162.6-19.2c16.3,0.1,24.2-5.7,29.4-20.5c12.4-35.5,20.8-72.5,18.3-109.5
			c-6.3-94.1-47.5-150.1-148.9-146.4c-53.7,1.9-103.4,17.6-151.8,39.3C332,251.6,304,290,301.3,348.4c-3,64.5,12.4,118.9,71.1,154
			C381.7,507.9,390.8,517,404.6,508.8z M1687.6,1062.5c-0.7,38.7-0.6,38.3,38.5,33.7c38.9-4.5,78-9.1,117.1-11
			c17.6-0.8,25.1-6.9,29.8-23.3c19.5-69.4,42.7-137.7,73.4-203c10.4-22.1,0.5-23.4-17.4-24.1
			C1789.8,828.9,1690.3,922.5,1687.6,1062.5z M1098.1,2473.7c-42.6,0.1-84.2,5.9-125,18.3c-11.7,3.6-20,7.3-21.7,21.7
			c-3.7,30.1-0.2,59.7,3.3,89.4c0.9,7.7,4.6,13,13.2,14.8c66.4,13.8,132.8,21.3,198-4.2c36.9-14.4,49.2-34.9,45.3-68.2
			c-4.6-38.8-26.5-63.2-63.7-68.8C1131.2,2474.3,1114.6,2474.7,1098.1,2473.7z M630.6,2364c-9.1,16.8-16.2,27.9-21.3,39.9
			c-5.5,12.8-21.4,24.6-13.8,39c22.2,42.1,46.9,82.8,72.8,127.7c12.4-25,21.6-44.5,31.8-63.4c4.9-9.1,5.4-16.5-0.2-25.7
			C677.6,2444.4,656,2407.1,630.6,2364z M734.4,2437.4c13.2-26.8,23.9-49,35.1-70.9c3.6-7,4.5-13.1-0.1-20.2
			c-22.9-35-45.5-70.3-70.6-109.2c-12.5,22.9-22.4,41.8-33.1,60.2c-5.5,9.4-3.9,17.1,1.3,25.9C688.7,2359.4,710,2395.9,734.4,2437.4
			z M801.9,2300.6c9.5-19.2,16.6-32.8,23.1-46.7c4.5-9.7,13-18.3,4.7-30.9c-22.2-33.6-43.5-67.9-67.4-105.4
			c-9.7,17.8-17.2,31-24.1,44.6c-5.4,10.6-13,20-3.6,33.8C757,2228.9,777.8,2263,801.9,2300.6z M863.6,2178.9
			c8.4-26.8,31.2-44.6,21.7-65.2c-17-36.7-40.5-70.3-64-109.7c-9.5,27.2-36.1,44.5-24.3,68.5C814.7,2108.1,839,2140.4,863.6,2178.9z
			 M529.4,1875.7c8.8-16.5,13.6-29.3,21.7-39.7c16.3-21,10.6-38.5-2.9-58.4c-15.4-22.9-41.4-20.6-62-30.6c-7.1-3.4-16-12.8-23.7,0.1
			c-5.1,8.6-5.7,16.6,0.4,25.8C484.5,1805.4,505.4,1838.4,529.4,1875.7z M695.9,2128.7c7.6-13.6,15.6-26.6,22.1-40.3
			c4.1-8.6,15-16.3,8-27.7c-16.2-26.4-33.1-52.4-51.1-80.8C633.9,2049.6,636.5,2065.9,695.9,2128.7z M627.7,2253.4
			c44.3-65.9,41.8-87-14.6-143.2C556.5,2162.8,597.3,2206.5,627.7,2253.4z M559.4,2378.2c45.6-53.8,44.5-74.6-7.6-144.4
			C508,2289.2,508.7,2302.9,559.4,2378.2z M491.4,2510.4c46-74.9,45.1-91.2-6.9-147.1C441.1,2437.4,441.7,2450.7,491.4,2510.4z
			 M734.2,1857.5c-8.3,16.1-14.9,27.8-20.4,39.9c-5.3,11.7-15.2,22.6-5.6,37.2c16.4,24.7,32.2,49.9,51.5,79.9
			c6.8-28.7,37.5-44.5,24.1-73.2C770.9,1913.7,752.8,1888.4,734.2,1857.5z M472,2096.9c-43.5,57.6-42,78.2,10.6,143.1
			C524.8,2178.8,524.3,2171.9,472,2096.9z M470.1,1984.6c9-24,34.8-39.7,25-62.1c-13.6-30.9-35.4-58.1-54.7-88.5
			C401.6,1895.8,439.8,1936.7,470.1,1984.6z M546.5,2113.8c39.4-63.6,37.8-77.4-14.4-129.8C495,2039.8,495.1,2040.9,546.5,2113.8z
			 M818.6,1896.7c33.9-53.4,33.9-53.4-1.2-99.2c-3.1-4.1-5.8-8.6-9.4-12.2c-7.8-8-13.3-27.5-27.1-16.3
			c-11.9,9.7-24.4,25.4-11.9,45.2C785.3,1840.3,800.7,1866.9,818.6,1896.7z M596.9,1863.2c-40.8,63.2-40.1,72.3,9.7,126.5
			C646.9,1933,645.5,1913.8,596.9,1863.2z M806.7,2410.2c-11.7,23.5-22.8,46.6-34.6,69.4c-11.5,22.3,6,37.7,17.5,47.8
			c12,10.6,18.7-9.8,25.1-18.3C847.2,2466.3,846.1,2456.9,806.7,2410.2z M898.1,2029.3c6.2-41.4,5.1-81-0.8-120.4
			c-1.2-7.7-3.3-17.3-14.4-14.8c-9.1,2.1-31.7,56.7-26.7,65.4C869.5,1983.2,884.1,2006.1,898.1,2029.3z M420.5,2366.9
			c39-65.7,35.6-89.4-19.5-148.3C394.6,2270,408.5,2316.1,420.5,2366.9z M668.7,1871.1c11-21.8,18.8-38.2,27.4-54.2
			c8-14.9,2.1-29-9.3-34.7c-14.1-7.1-33.5-8.7-46.8,1.4c-9.6,7.3-15.7,21.2-5,35.6C645.9,1833.8,655,1849.9,668.7,1871.1z
			 M562.4,2491.6c-11,21-18,35.8-26.3,49.7c-5.4,9.1-4,14.5,4.8,20.1c23.8,15.1,47.7,29.8,82.1,36
			C601.8,2560.4,583.7,2528.9,562.4,2491.6z M408.1,1990.3c-13.6,48.2-14.6,92.6-3.2,111.1C446.1,2041.2,446.1,2041.2,408.1,1990.3z
			 M859.6,2384.8c5.7-32.8,16.4-62.3,8.8-93.5C857.1,2320.6,815.2,2346.2,859.6,2384.8z"/>
		<path class="st0" d="M2383.7,962.4c40.3-42.2,83.7-74.5,139.3-85.8c70.5-14.3,134.9-3.7,183.4,53.8
			c47.4,56.2,49.9,120.5,23.7,186.7c-41.5,104.6-159.7,171.3-261.7,148.8c-92.9-20.6-146.6-99.3-132.2-193.7
			c1.2-7.8,4.7-15.7,0.8-23.8c-120.4,71.1-202.6,70-274-3.6c-59.5-61.4-70.8-158.2-25.9-229.2c49-77.4,136.3-108.4,223.1-79.9
			C2350.8,765.2,2394.6,845.7,2383.7,962.4z M2599.5,1076.8c-11.1-14.2-21-34.3-37.1-45.2c-13.7-9.2-18,13.7-27.5,21.1
			c-8.8,6.8-15.2,16.7-23.2,24.6c-7.5,7.5-6.1,14.2,0.2,21.3c12,13.4,18,32.3,35.5,40.5C2551.5,1140.9,2599.6,1084.9,2599.5,1076.8z
			 M2232.5,912.2c0-5.9-54-41.8-62.4-38.7c-20.3,7.5-20.9,30.3-30.7,46.1c-2.5,4.1,51.5,44.7,59,44.8
			C2204.3,964.4,2232.5,921.2,2232.5,912.2z M2524.2,978.8c-8.2-10.2-16.5-23.6-27.9-33.2c-8.5-7.2-16.8,3.6-24,8.3
			c-10.2,6.7-19.6,14.8-28.8,23c-6.6,5.8-15.6,11.4-6.2,22.5c11.7,13.9,19.1,31.6,35.1,41.6
			C2475.4,1042.9,2524.2,986.4,2524.2,978.8z M2637.3,941.2c-6.9,0.6-40.1,38.3-39.7,45.1c0.3,6.3,37.6,51.8,42.1,51.3
			c5.9-0.6,41.9-45.6,41.3-51.7C2679.8,973.7,2647.2,940.3,2637.3,941.2z M2256.4,858.1c5.1,0.1,30.1-35.9,30.2-43.5
			c0.1-11.2-40.8-35.4-61.4-34.9c-24.9,0.6-22.2,25.8-32.3,39.6C2190.3,822.8,2247.3,857.8,2256.4,858.1z M2507,1185.3
			c0-10.3-37.6-56.9-40.6-53.9c-15.6,15.9-31.3,32.2-44.2,50.3c-5,6.9,34.6,32.8,51.2,31.9C2492.6,1212.6,2498.1,1195.5,2507,1185.3
			z M2281.6,1018.6c12.7-1,47.5-45.7,44-57.4c-5.3-17.9-24.1-19.9-38.3-26.3c-5.5-2.5-40.7,51.7-37.3,59.3
			C2256.3,1008.1,2271.1,1012.1,2281.6,1018.6z M2174.8,1018.9c0.2-8.7-6.3-11-11.3-14.2c-12.1-7.9-24.2-15.8-36.7-22.9
			c-5.9-3.3-12-15.9-19.4-3.4c-5.6,9.5-18.1,19.3-4.9,32.5c12.6,12.5,26.8,22.4,43.3,29.2
			C2168.4,1049.3,2166.7,1027.3,2174.8,1018.9z M2398,1043.2c-12,25-13.9,50.1-10.8,75.8c0.6,5-0.8,13.9,9.8,9
			c27.4-12.5,36.4-46.8,18.2-69.8C2410.9,1052.9,2409.1,1045,2398,1043.2z M2635.7,1126.9c-6.7,0.5-55.8,55.3-54.7,59.7
			c2.2,9.3,8.4,11.1,16.3,6.7c18.1-10.2,34.2-23,48.2-38.3c6-6.6,5.7-12.9-0.1-19.1C2642.1,1132.3,2638.3,1129.2,2635.7,1126.9z
			 M2088.9,893.9c13.2-11.6,20-27.4,24.9-42.9c3.7-11.8-10.6-16.5-17.6-16c-20.3,1.5-21.5,21.1-26.5,35.4
			C2064.6,884.4,2079.2,885.5,2088.9,893.9z"/>
		<path class="st0" d="M2540.7,344.1c141.4,0.2,245.4,106.2,232.5,238.7c-7.2,73.7-48.6,126.6-111.2,162.2
			c-88.2,50.2-210.9,41.2-290.5-33.5c-61.3-57.5-84.5-144.9-54.3-221.4c35.2-89.4,104.9-134.9,198.7-145.9
			C2524.1,343.3,2532.4,344.2,2540.7,344.1z M2717.5,599.5c2.9-9.6-4.4-13.4-10.2-17.2c-12.1-7.9-24.6-15.2-36.9-22.7
			c-39-24-38.5-23.8-55.3,18.6c-5.4,13.5-5.5,22.5,7.8,31.3c18.1,11.9,34.8,25.8,52.5,38.4c5.4,3.9,11.1,10.6,18.2,1.3
			C2704.9,634.1,2713.1,617.6,2717.5,599.5z M2536.5,481.3c-10.4,10.3-15.9,25.8-21.7,40.8c-1.7,4.5,41.6,40.8,45.9,38
			c16.7-10.5,18.2-30.2,25-46.6C2587.4,509.1,2545.6,480.4,2536.5,481.3z M2426.4,575.1c22.7-23.8,17.8-40.8-7.7-54.8
			c-9-4.9-16.1-13.1-25-18.2c-6.8-3.9-14-17.9-22.7-5.2c-7.2,10.5-15.2,23.7,0.2,35.5C2389.9,546.7,2408.4,561.2,2426.4,575.1z
			 M2442.7,420.8c-13.4,6.2-25,12.8-32.4,24.4c-1.8,2.8,52.3,46.3,56.2,44.3c13.8-7.4,22.4-24.2,20.1-35.1
			C2482.3,433.8,2456.8,432.9,2442.7,420.8z M2539.8,622.8c0.6-11.3-43.3-48.4-50.4-45.3c-2.5,1.1-4.2,4.3-6.1,6.7
			c-22,27.3,0.7,38.8,18.6,51.4c7.1,5,13.8,17.8,22,12.4C2532.2,642.5,2535.6,629.9,2539.8,622.8z M2642.8,694.3
			c-0.9-2.6-1-5.1-2.3-6.1c-16.2-12.5-32.4-24.9-48.9-36.9c-4.2-3-8.5,0.1-9.7,4c-3.6,11.3-16.6,21.7-10.4,33.5
			c6,11.3,17.8,21.7,31,23.2C2618,713.6,2631.1,704.1,2642.8,694.3z M2593.5,401.8c-22.5-6.9-29.7,9.9-29.4,20.5
			c0.7,23.1,24.6,30,40.8,33.2c16.2,3.2,18.7-19.9,19.8-31.3C2627.1,400.7,2601.3,409.8,2593.5,401.8z M2718,527.4
			c-3-24.8-12.6-40.3-22.9-55.1c-5.5-7.9-10-21.5-20.7-19.3c-9.9,2-9.8,16.5-14.8,25.2c-6,10.4,0.9,14.8,8.3,19.2
			C2682.6,506.3,2697.5,515.1,2718,527.4z M2444.9,657.4c-1.7,17.1-22.7,26.5-5.6,39.3c12,9.1,27.6,13.7,41.9,19.5
			c5.6,2.3,12.9,3.6,17-2.6c5.1-7.6,0.7-13.4-5.6-18.3C2478,683.9,2463.6,672.3,2444.9,657.4z M2390.1,652.1
			c15.9-30.9,15.2-32.3-27.6-55C2366.2,618.4,2374.3,635.2,2390.1,652.1z"/>
		<path class="st0" d="M1535.8,1658.8c0.1-112.7,87.4-197.8,202.6-197.4c106.3,0.4,194,89.7,193.9,197.7
			c-0.1,109.5-91.4,200.2-200.3,198.7C1622.6,1856.3,1535.7,1768.1,1535.8,1658.8z M1879.3,1659.8c0.5-81.3-63.3-146.7-144.1-147.6
			c-80.6-0.9-147,63.7-148.3,144.2c-1.3,82.2,64.2,148.7,146.5,148.7C1815.5,1805,1878.8,1742,1879.3,1659.8z"/>
		<path class="st0" d="M1554.3,561.2c42.3,1.8,97.8,24.6,126.3,88.5c28.5,64,10.8,122.6-34.9,171.3c-60.4,64.3-135.6,89.8-222,64.2
			c-92.8-27.5-131.3-121.6-88.3-208.4C1369.7,607.1,1446.4,561.7,1554.3,561.2z M1469.4,842.3c75.2,0.2,135.8-36.2,161-89.2
			c27.5-58,2.1-117.8-59.8-134.8c-66.2-18.3-122.8,2.5-168.1,51.7c-29.6,32.1-44.5,70.9-25.1,114
			C1397.2,828,1436.4,841.6,1469.4,842.3z"/>
		<path class="st0" d="M1396.1,2009.2c-51.3-0.1-89.5-38.7-89-89.9c0.5-49.1,42.8-91.2,91.1-90.3c48.6,0.8,89.9,43.6,89.4,92.5
			C1487,1972.2,1448.3,2009.3,1396.1,2009.2z"/>
		<path class="st0" d="M1399.5,1424.5c50.7,0.7,89.4,40.9,88,91.4c-1.3,49.1-44.6,90.3-92.8,88.6c-49.8-1.8-88.6-43.1-87.6-93.3
			C1308.1,1460.6,1347.2,1423.8,1399.5,1424.5z"/>
		<path class="st0" d="M1994.2,1871.9c51.6-0.5,90.5,37.5,90.7,88.5c0.3,50.7-39.1,91.1-89.2,91.5c-47.9,0.4-91.2-41.9-91.8-89.8
			C1903.3,1912.5,1943.5,1872.3,1994.2,1871.9z"/>
		<path class="st0" d="M2174.7,1439.2c-0.5,49.6-42.7,91-91.9,90.1c-49.6-0.9-89.8-42.9-88.7-92.8c1.1-49.4,40.3-87.7,89.9-87.7
			C2134.5,1348.7,2175.2,1389.3,2174.7,1439.2z"/>
		<path class="st0" d="M2321.2,288.5c16.5,0,33.1,1.1,49.5-0.3c19.9-1.6,29.3,2.7,29.3,26.1c0,24.3-11.4,26.4-30.4,26
			c-35-0.9-70.2-1.3-105.2,0.1c-23.9,1-19.3-14.4-20.3-28.4c-1.2-16.1,2.1-25.4,21.4-23.8C2284,289.7,2302.7,288.5,2321.2,288.5z"/>
		<path class="st0" d="M2225.1,553.3c0,10.3-0.8,20.7,0.2,30.9c1.9,20.8-2.3,32.5-27.8,32.3c-24.8-0.3-26.1-13-25.4-31.5
			c0.8-22.7,1-45.4,0-68.1c-0.9-21.3,11.5-22.7,27.8-22.7c15.7,0,26.4,3,25.4,21.9C2224.5,528.5,2225.1,541,2225.1,553.3z"/>
		<path class="st0" d="M2533.6,1628.8c-9.3,0-18.6-0.8-27.8,0.2c-19.1,1.9-27.8-4-28.1-25.3c-0.3-22.2,7.7-29.5,28.9-27.7
			c15.4,1.3,30.9,0.5,46.4,0.2c18.9-0.4,35.1-3.6,35,26.9c0,31.5-18.1,25.5-35.9,25.8C2546,1628.9,2539.8,1628.8,2533.6,1628.8z"/>
		<path class="st0" d="M2583,1388.4c-7.2,0-14.5-0.9-21.5,0.2c-21.3,3.2-24.6-7.3-25.1-26.2c-0.5-20.6,6.5-27.1,26.1-25.2
			c14.2,1.4,28.8,1.6,42.9,0c22.4-2.6,27.2,7.2,27.1,27.8c-0.1,19.4-6.7,25.8-25,23.6C2599.4,1387.6,2591.1,1388.4,2583,1388.4z"/>
		<path class="st0" d="M2330.8,2690.2c-72.1,0-144.2-0.4-216.4,0.3c-19.6,0.2-32.4,0.1-32.5-26.7c-0.1-27.3,13.7-26.6,32.7-26.6
			c81.7,0,163.5-3.2,245.1-0.3c37,1.3,60.6-11.5,79-40.7c7.6-12,15.4-23.9,26.6-41.1c-35.4,0-65.8,0-96.1,0
			c-71.4,0-142.8-0.7-214.1,0.4c-20.1,0.3-26.9-5-26.7-25.8c0.1-20.3,6.4-26.8,26.7-26.6c99.3,0.8,198.6,0.6,297.9,0.2
			c13.9-0.1,34.7,6.9,31.4-20.1c-2.5-20.8-0.6-42.5-35.5-40.1c-110.3,7.8-221,11.5-331.4,18.2c-23.2,1.4-36.8,0.3-35.4-28.7
			c0.9-17.7,6-23.4,22.7-24.1c57.8-2.4,115.6-6.6,173.5-8.4c46.4-1.4,92.9-0.3,145.9-0.3c-11.3-21.5-24.8-24.9-35.8-29.9
			c-72.4-32.9-148.7-43.1-227.1-33.4c-23.8,2.9-29.7-4.6-33.4-25.9c-4.1-23.9,9-25.7,25.6-26.9c90-6.4,178,0.9,260.4,40.9
			c56.6,27.4,102.2,65.6,118.5,130.7c11.1,44.3,0.1,85-21.1,122.1c-75.7,133-190.2,209-342.9,226c-20.5,2.3-41.3,2.7-61.8,4.7
			c-19.2,1.8-25.9-6.4-23.9-25.2c1.6-15.1-3.1-29.5,23.1-28.4c67,2.8,131.5-11.3,192.4-40c11.9-5.6,23.3-12.5,34.9-18.8
			C2332.3,2693.8,2331.5,2692,2330.8,2690.2z"/>
		<path class="st0" d="M1587.1,2677.7c-0.5,55.9-45,100.7-100.4,101c-55.9,0.3-103.3-46.8-103.3-102.6c0-56.1,47-102.6,103.4-102.2
			C1543.8,2574.2,1587.6,2619.5,1587.1,2677.7z M1536.2,2676c0-26.9-21.6-49.2-48.6-49.9c-28.9-0.8-51.4,21-51.4,49.8
			c-0.1,29,21.9,50.3,51.3,49.6C1514.5,2725,1536.2,2702.9,1536.2,2676z"/>
		<path class="st0" d="M1605.7,2453.5c0.2,55.4-44.3,102.2-99.3,101.2c-56.5-1-102.3-42.6-101.6-101.6
			c0.7-56.1,44.7-100.1,100.6-99.9C1560.8,2353.4,1605.5,2398,1605.7,2453.5z M1554.6,2453.3c-0.5-26.8-23.2-47.8-50.9-47.1
			c-28.4,0.7-48.4,22-47.1,50.1c1.2,26,22.9,46.9,48.5,46.9C1530.8,2503.1,1555.1,2478.7,1554.6,2453.3z"/>
	</g>
</g>
</svg>
