<?xml version="1.0" encoding="utf-8"?>
<!-- Generator: Adobe Illustrator 23.0.0, SVG Export Plug-In . SVG Version: 6.00 Build 0)  -->
<svg version="1.0" xmlns="http://www.w3.org/2000/svg" xmlns:xlink="http://www.w3.org/1999/xlink" x="0px" y="0px"
	 viewBox="0 0 3000 3000" style="enable-background:new 0 0 3000 3000;" xml:space="preserve">
<style type="text/css">
	.st0{stroke:#000000;stroke-width:10;stroke-miterlimit:10;}
</style>
<g id="Layer_1">
</g>
<g id="Layer_2">
	<g>
		<path class="st0" d="M511.9,1147.3c-33.6-6.5-63.5-18.2-90.2-37.4c-63.1-45.4-95.4-109.5-101.9-184.4
			c-11-125.9,13.1-246.1,75.2-356.9c35.6-63.4,90.8-100.1,165-100.2c76.5-0.1,134.5,35.3,174.3,100.3c12.1,19.7,22.6,40.4,34.8,62.5
			c10.6-17.4,19.5-33.5,29.8-48.7c22.2-33.1,49.3-61.2,85.5-79.4c54.6-27.5,140.6-24.4,186.3,41.4c6.8-9.8,13-19.6,20.1-28.7
			c45.8-58.5,107.7-81.5,180.1-79.1c38.4,1.3,77.4-2.3,114.6,11.2c10.5,3.8,13.4-4.9,17.8-10.1c40.3-47.4,83.7-91.7,128-135.4
			c70-69.1,152.8-110.6,249.5-128.4c155.1-28.5,309.5-60.1,464.4-89.6c54.9-10.4,110.4-17.4,166.2-21.5c19.4-1.4,38.6-0.2,57.7,3.1
			c31.7,5.6,47.9,31.8,39,62.8c-8,27.9-28.2,47.1-48.6,65.6c-31.3,28.4-66.2,51.9-105,68.9c-12.5,5.5-18.7,11.9-17.1,26
			c1.9,16.3-6.6,37.2,3.3,48.1c10.3,11.4,31.2,2.2,47.3,2.1c49.8-0.2,99.3,2.8,148.8,7.1c13.9,1.2,15.2,6,13.4,17.9
			c-5.6,34.9-5,33.9-40.8,30.7c-84.1-7.5-168.1-5.8-251.9,5.3c-11.7,1.5-13,4.6-9.8,15.4c39.5,135,22.5,261.9-55.1,380
			c-3.3,5-8.5,9.4-1.1,15.6c47.7,40.4,45,95,40.1,149.1c-9.8,106.7-96.2,121.3-173.2,106.1c-10.7-2.1-21.2-5.7-31.8-8.8
			c-16.7-4.9-26.6,2.1-26,20c0.9,26.9,2.8,53.7-0.1,80.6c-7.3,66.7-48.9,119.5-108.2,131.1c-61,12-109.5-12.5-147.2-59.6
			c-25.3-31.5-38.9-68.2-41.6-108.5c-0.7-10.7-4.6-14.9-14.7-18.2c-41.3-13.8-65-41.8-67.7-86.7c-2.5-42,3.6-82.6,16.1-122.4
			c3.5-11,2.5-17.4-7.1-24.4c-13.4-9.7-25.8-20.8-37.8-32.2c-7.7-7.4-12.1-9.5-17.9,2c-76,148.4-128,302.7-108,472.6
			c17.7,150.4,97.1,262.9,222.3,344.3c109.1,71,230.7,103.8,359.5,111.4c78.2,4.7,155.9-0.7,232.8-16.2c3.9-0.8,7.6-2.1,12.1-3.4
			c-63.5-62.8-71.3-94.6-40.8-168.1c-52.6-8.6-90.8-35.6-103.8-89c-12.9-52.9,6.9-94.6,49.6-126.4c-64.4-68.9-30.7-175.7,54.2-193.5
			c27.9-5.8,32.7-13.4,32.7-40.6c0.1-49.2,27.5-85.3,74-102.2c45-16.3,87-7.7,122.2,26.3c3.4,3.3,5.9,7.6,10.9,14.2
			c19.8-47.1,50.7-76.2,98.7-82.7c33.1-4.5,62.8,5,88.7,26.2c50.8,41.6,56,119.4,10.4,167.9c-41.2,43.9-119,57.3-178.3-8.8
			c-3.2,6.2-6,11.9-9.1,17.5c-20.4,37.2-51.2,59.3-93.9,62.1c-11.7,0.8-16,2.4-14.4,15c5.7,43.9-8.8,80.1-43.5,107.8
			c-6,4.8-7.6,7.7-2.2,14.6c34.2,43.2,36.1,89.3,9.3,138.7c40.8,6.6,73.9,24.2,94.1,60.7c20.1,36.5,18.7,73.8-0.2,115.6
			c25.7-11,48-19.5,69.2-30c13.2-6.6,20.2-4.2,24.7,9.4c1.5,4.6,3.5,9.1,6.2,13.1c8.3,12.2,5,17.9-8.5,23.9
			c-89.7,40.5-182.4,70.8-279.8,86.3c-6.1,1-12.1,2.5-18.4,5.3c43.3,11.3,85.8,24.5,128.6,36.8c5.5,1.6,12.2-0.7,18.3-1.4
			c67.6-7.5,116.2,19,145.9,80.3c18.3,37.8,26.8,78.7,29.2,120c14.8,259.1-51.8,491.6-227.8,687.7c-5,5.6-15.2,11.5-3.9,19.6
			c10.8,7.8,12.3,30.5,36.2,17.8c116.6-61.9,213.2-146.8,292.6-251.6c8.7-11.4,13.7-15.3,26.9-5.3c25.2,19.2,26.2,18.4,7.1,43.3
			c-124.3,161.5-280.8,278.6-480.8,324.8c-242.7,56.1-473,22.7-682.1-120.3c-37.1-25.4-36.4-26.3-74.9-0.7
			c-142.5,94.8-296,162.4-466.2,188.4c-140,21.4-276.9,12.3-406.4-50.5c-136.1-65.9-221.2-176.7-273.9-315.4
			c-36.8-96.8-55.8-197.8-65.8-300.2c-17.8-182.8-22.7-366.4-25.5-549.9c-1.3-86.5,3.8-172.9,26.4-256.6
			c37.2-137.9,122.2-240.6,241.8-316.2c5.8-3.7,11.7-7.3,17.5-11C509,1151.3,509.3,1150.6,511.9,1147.3z M727.2,1704.4
			c-9.9,4.1-15,5.9-19.8,8.3c-183.4,90.4-318.5,229.5-412.7,409.8c-5.4,10.3-6.3,20.8-5.9,32c3.7,107.2,17.7,213.1,43.3,317.2
			c26.2,106.3,67,206.4,144.4,286.9c103.3,107.4,234.1,151.1,379.4,152c220.6,1.4,414.5-79.4,594-201.3c8.8-6,10.4-9.9,2.4-18.6
			c-67.6-72.7-113.4-157.4-137.3-253.8c-3.5-14.1-7.8-15.1-20.8-10c-49.4,19.8-100.5,34.1-153.6,40.3
			c-155.2,18.1-284-28.4-374.5-159.7c-92.4-134.1-110.8-284-85.6-441.6C689.1,1812,705,1760.1,727.2,1704.4z M282.9,2030.4
			c1.5,0.3,3,0.6,4.5,0.9c1.9-2.8,3.8-5.5,5.5-8.3c115.1-184.1,275.3-314,476.4-393.9c137.8-54.7,279.3-79.7,427.3-50.9
			c115.9,22.5,217.6,73.1,306.2,150.6c9.7,8.5,15.3,9.9,24.7-0.4c13.9-15.3,29.6-28.9,44.8-43c9.6-8.9,26.1-16.5,27.5-26.4
			c1.5-11-16.5-18-25.8-27c-138.8-133.5-180.7-298.2-155.9-484.1c2-15.2-1-20-15.8-23.2c-95.1-21-191.1-35.8-288.4-41.3
			c-137.3-7.8-273,1.2-405.8,39.3c-108.2,31.1-206.9,79.9-288.1,160c-97.3,96-135.3,216-143.8,349.1c-6.5,100.9,0.6,201.4,1.6,302.1
			C278.3,1966.1,281.2,1998.2,282.9,2030.4z M2217.4,549.8c0.2-41.3-7.4-81-18.3-120.5c-4.2-14.9-11.1-17.7-25.2-14.5
			c-93.9,21.3-184.1,52.7-268.6,99.2c-114.1,62.8-210.5,145.7-286.2,252.3c-9,12.7-8.9,20.4,2.8,30.8c21.2,18.8,42.1,38,66.5,52.4
			c119.9,70.7,243.7,86.9,365.7,10.5C2166.8,789.6,2212.9,679.4,2217.4,549.8z M671.7,1079.4c29.7-7.5,58.6-16.5,88.2-21.7
			c17.5-3,24.1-10.3,25.7-27.3c15.2-156-15.3-302-95.5-436.9c-48.4-81.4-151-100.1-218.5-40.7c-26.9,23.7-44.4,54.6-57.1,87.7
			c-29.5,76.5-47,155.7-47.2,238c-0.1,59.3,11.5,115.8,52.7,161.4c35.9,39.7,79.6,65.4,135.4,55.6c57.5-10,100.7-68.4,102.4-134.3
			c0.9-35.4-2.6-70.1-32.5-93.9c-10-8-10.6-13.8-7-23.6c2.4-6.4,4.7-13,5.9-19.8c2-11.1,7.6-11.1,16.1-7
			c19.9,9.7,35.7,23.8,45.8,43.4c34.9,67.7,28.4,134.3-5.8,200.1C677.3,1066.5,671.3,1070.9,671.7,1079.4z M1407.7,816.8
			C1407.6,816.8,1407.6,816.8,1407.7,816.8c-0.1-48.3,0.4-96.6-0.2-144.9c-0.5-39.3,1.6-78.6-3.5-117.8c-5.7-44.1-24-62.6-68.2-64.9
			c-29.6-1.6-59.3-1.9-88.9-0.7c-89,3.5-158.3,80.2-152.9,169.2c6.4,105.4,8.2,210.9,10.1,316.5c1.1,60.4,0.7,60.1,61.4,62
			c13,0.4,15.9-1.8,10-14.1c-17.4-36.4-28-74.9-30.8-115.2c-6.2-88.9,23.9-162,95-217.5c12.8-10,19.9-8.7,26.2,5.4
			c1.7,3.7,3.8,7.5,6.6,10.5c10.6,11.3,7.8,18.3-4.5,27.4c-34.2,25.5-57.4,59.1-67.2,101.2c-16.9,73,3,139,38.8,201.9
			c4.8,8.5,12.3,10,20.6,11.5c42.1,7.2,84.4,13.5,126.2,22.5c17.5,3.8,22.1,1.8,21.9-17C1407.1,974.2,1407.7,895.5,1407.7,816.8z
			 M2284.5,290.1c-55.3,11.8-109.2,16.3-163.8,8.6c-39.3-5.5-78.2-2.4-117.1,6c-101.7,22-189.8,72.8-275.8,128.3
			c-88.9,57.3-170,124.9-251.1,192.5c-15.7,13.1-19.7,25.5-19.4,44.5c1.1,92.4,0.8,184.9,1,277.4c0,6.4,0,12.8,0,20.9
			c8.4-6.2,8.7-13.6,11.1-19.8c25.7-66.3,54.7-131.1,94.6-190.1c162.3-239.7,395.5-362.4,675.6-406.1c48.1-7.5,48.3-6,46.1-54.7
			C2285.9,295.6,2285.2,293.6,2284.5,290.1z M1053.1,827.8c-6.4-70.2-5.5-140.6-13.4-210.6c-6.1-53.9-24-71.5-77.7-79.6
			c-27.4-4.1-51.1,6-72.5,21.9c-43.1,32.2-67.8,76.9-86.3,126.1c-4.4,11.6-4.3,22.1-0.4,33.9c17.9,53.8,28.9,109,34.1,165.5
			c4.4,47.6,4.4,95-0.5,142.4c-0.8,7.5-4.3,17.1,11,14.8c62.1-9.3,124.8-12.8,187.6-11.4c14.8,0.3,18.5-5,18.4-19
			C1052.7,950.5,1053.1,889.1,1053.1,827.8z M1458,574.1c44.8-35.8,86.6-70.6,129.8-103.6c99.4-76,203-145.6,320.9-190.3
			c72.2-27.4,146.4-41.9,224.8-31.5c111.9,14.9,209.6-19.3,293.9-93.2c12.3-10.8,24.1-22.2,29.9-38.7c-13.8-4.1-26.8-3.6-39.9-3
			c-55.2,2.8-109.8,10.6-164,21c-154.3,29.5-308.5,59.5-462.6,89.9c-53.5,10.5-107,22.7-152,55.6
			c-75.7,55.2-139.8,122.7-200.1,194.1c-3.5,4.1-8.5,8-3.9,14.3C1452.8,513.2,1453.1,542.9,1458,574.1z M2518.2,2120.4
			c0-18.6,0.9-37.3-0.2-55.9c-2.6-42.3-10.5-83.5-29.8-121.8c-11.4-22.6-28.5-39-53.7-44.9c-11.9-2.8-20.6-4.2-16.5,15.3
			c26.1,121.9,23.9,244.1-1.7,365.7c-27.5,131-83.2,249.5-164.5,355.7c-8.3,10.9-9.4,17.8,0.3,27.5c11.2,11.2,22,23,31.6,35.6
			c8.6,11.4,14.2,8.6,22.1-0.6c23.7-27.9,46.8-56.2,67.5-86.4C2475,2463.1,2515,2297,2518.2,2120.4z M2385.7,2089.1
			c0.7-56.1-6.6-111.4-16.4-166.5c-2.6-14.3-7-16.9-19.9-10.5c-22.2,11-43.8,23.1-65.3,35.4c-11.5,6.6-12.1,14-9.2,25.4
			c12.1,46.1,18.6,92.9,20.5,140.6c5.5,140.2-31.5,268.1-108.6,384.8c-10.9,16.5-30.6,32.6-30.9,49.2c-0.3,17.3,24.4,29.5,35.8,45.9
			c10.2,14.7,16.7,16.5,28.9-0.3C2329.9,2442.7,2384,2274.6,2385.7,2089.1z M2226.7,1987.8c-23.8,20.1-43.6,38.2-64.9,54.4
			c-17.2,13.1-24.8,27.2-18.1,49.3c4.3,14.3,4.7,29.9,5.5,45c6.1,105.6-9.9,207.8-54.7,303.7c-12,25.7-5.5,38.8,10.7,56.2
			c11,11.8,15.4,7.6,22.6-2.4c25.8-35.9,48-73.9,66.2-114.2C2250.5,2254.4,2258.7,2125,2226.7,1987.8z M1484.9,1874.3
			c-18.5,74.4-28.9,147.3-34.9,220.6c-15.4,186.9,6.2,369.9,59,549.8c9.9,33.7,25,60.4,55.5,77.6c10,5.6,19.3,22.8,29.9,14.9
			c12.6-9.5-0.6-24.3-5.2-35.5c-55.8-136-88.7-277.5-103-423.6c-12.1-124.2-6.1-247.8,13.7-370.8
			C1502.2,1892.5,1498.3,1884.1,1484.9,1874.3z M2017.2,2858.4c28.4,1,56.6-1.4,84.7-4.4c66.8-7.1,131.6-22.2,194.4-46.2
			c9.4-3.6,12.2-6.8,4-15.2c-12.9-13.4-25.8-27-37-41.8c-9.5-12.6-17.5-14.3-32.3-7.2c-81.6,39.5-168,60.9-258.6,65.2
			c-107.8,5.1-211.4-13.3-310-57.4c-16-7.1-19.7,0.5-21.9,12.2c-2,10.8,8.9,11.1,14.8,14C1769.5,2833.6,1890.9,2857,2017.2,2858.4z
			 M2205,1940.4c-194.7-47.9-382.2-40.9-570.4,22.7c16.3,18.7,31.1,34.8,44.9,51.7c6.8,8.5,12.6,9.4,22.7,5
			c138.7-60.9,281.2-71.3,427.2-30.3c6,1.7,11.4,4.3,17.4-0.7C2164.9,1973.5,2183.4,1958.3,2205,1940.4z M2214,2695.6
			c-16.7-18.8-32.9-35.6-47.3-53.9c-8.2-10.4-13.5-8.7-22.9-2.1c-133.4,94-272.6,101.6-416.6,25.9c-34.4-18.1-33.3-18.3-51.1,16.3
			c-7.1,14-4.8,19,9.5,25.1c118.7,50.3,241.3,64.8,368.2,41.5C2109,2738.2,2161.9,2721.7,2214,2695.6z M1744.5,2552.6
			c-7.1,12.7-13.3,25-20.7,36.5c-5.6,8.7-2.1,12.6,5.1,17.9c107.5,79.1,274.3,76.6,381.7-5.3c11.1-8.5,10.2-13.2,1.5-21.9
			c-12.6-12.8-24.9-26-35.6-40.2c-10.3-13.6-16.9-14.2-29.6-1.4c-47.9,48.1-106.5,69.2-174.4,64.3
			C1825.1,2599.1,1783.7,2580.1,1744.5,2552.6z M1850.6,1787.8c-69.9-22.8-135.9-51.7-196.2-92.7c-8.9-6.1-13.4-1.5-19.3,3.4
			c-40.8,33.1-78.6,69.4-112.1,109.9c-4.8,5.8-17.4,12.5-6.1,21.7c12.4,10,15.1,35.4,40.3,26.5c22.1-7.8,44.3-15.1,66.7-21.9
			C1698.1,1812.2,1773.9,1798.5,1850.6,1787.8z M1131,1906.1c-26.6,39.3-50.8,75.2-75.1,110.9c-3.4,5-4.8,9.2-1.1,15
			c32.5,50,64.9,100.2,98.4,152c23.7-41.3,46.2-80.7,69-119.9c3.5-6,4.3-10.8,0.3-17C1192.3,2001.2,1162.6,1955,1131,1906.1z
			 M1255.9,2005.3c25.4-44,48.6-84.6,72.4-125c4.4-7.5,4.6-13.2-0.6-20.4c-26.1-36.4-52-72.9-77.5-109.7c-5.9-8.5-9.2-7.7-14.5,0.2
			c-22.5,33.8-45.4,67.5-68.2,101.1c-3.3,4.9-5.3,9.2-1.5,15C1195.6,1912,1225.1,1957.6,1255.9,2005.3z M813.1,2285.8
			c28.6-42.2,55.9-82.7,83.4-123.1c3.4-5,4.6-9.5,1.3-15.1c-24.6-42-49.1-84.1-74.9-128.5c-26.6,39.6-51.4,76.6-76.2,113.7
			c-2.9,4.3-3.4,9-1.9,13.9C759.6,2196.3,780.5,2242.9,813.1,2285.8z M1949.7,1097.8c-37.1,11.9-73.5,14.8-110.3,4.1
			c-5-1.4-11-0.5-16.3,0.7c-18.2,4.1-36.4,8-55.1,7.4c-10.9-0.4-14.8,3.6-13.3,14.6c6.6,47.1,27.3,85.3,70.4,107.8
			c44.3,23.2,90.8,6.8,112.7-38.4C1952.5,1163.8,1953.3,1131.8,1949.7,1097.8z M1407.2,2001.7c-91.8,170.9-71.7,504.2,34.7,588.1
			C1392,2395,1382.5,2199.3,1407.2,2001.7z M1020.6,1978.4c19.9-29.6,36.9-58.8,57.8-85c18.8-23.4,24-43,1.7-66.9
			c-11.5-12.4-18.8-28.7-28.4-42.9c-11.6-17.2-20.8-36.2-35.8-52.5c-24.7,36.8-48.2,72.3-72.3,107.4c-5.7,8.4-4.4,14.6,0.7,22.3
			C969.2,1898.7,993.7,1936.9,1020.6,1978.4z M1686.6,907.8c-12.1,34.5-16.6,69-14.9,104.2c1.3,26.6,10.8,38.3,37.5,44.3
			c36.3,8.2,72.4,5.1,107.9-5.3c12.8-3.8,20.9-13.3,23.7-26.4c3.9-18.2,6.5-36.5,6.3-55.2c-0.1-8-1.5-12.1-10.9-13.3
			C1783.8,949.6,1734.5,932.7,1686.6,907.8z M1065.6,2335.7c11.4-19.8,19.1-38.9,31.7-54c28.1-33.6,24.2-62-2.5-95.5
			c-27.9-35-49.5-75-75.1-114.9c-18.7,27.5-35.5,52.6-52.7,77.4c-4.9,7.1-2.4,12.7,1.2,19C1000,2222.5,1031.7,2277.2,1065.6,2335.7z
			 M930,2204.1c-26.2,38.7-50.5,75.4-75.9,111.4c-7.1,10.1-3.8,15.2,3.8,22.1c40.1,36.3,85.7,62.2,138.9,73.5
			c9.1,1.9,19.2,10,27.5-3.3c8.2-13,13.6-24.4,2-39c-9.3-11.8-15.6-25.9-23.2-39C979.2,2288.5,955.1,2247.1,930,2204.1z
			 M1881.5,2553.1c56.3-0.7,95.3-18.7,129.6-49.1c15.1-13.4,17.2-23.8,0.7-37.5c-9.9-8.3-18.1-19-26-29.4c-7.4-9.7-12.5-8.6-21-0.7
			c-36.6,34.3-79.9,43-128.5,33.6c-12.4-2.4-24.3-17.9-36.7-6.9c-9.9,8.8-14.9,23-23,34.1c-6.2,8.5-3,12.8,4.3,18.1
			C1814.1,2539.2,1851.1,2551.8,1881.5,2553.1z M1258.3,2103.5c-23.6,41.1-44.6,79-67.1,116c-6.1,10.1-5.1,16.7,0.8,25.8
			c26.1,39.6,51.6,79.7,77.5,119.4c4,6.1,5.3,15.9,18,11.2c11.9-4.3,13.6-11.1,12.2-22c-7.2-56.4-5.5-112.7,1-169
			c0.8-7,1.4-13.8-2.6-20C1285.7,2145.4,1272.9,2126,1258.3,2103.5z M1131.9,1813.2c14.3-21.2,27.1-39.1,38.8-57.7
			c12.8-20.2,37.3-38.8,36.1-60.5c-1.2-22.6-25.9-40.7-39.3-61.5c-4.6-7.1-10.2-10.1-18.1-11.7c-50.8-10.5-54.3-9.3-82.3,32.6
			c-4.6,6.9-8.8,14-13.9,20.6c-4.3,5.7-4.7,10.4-0.6,16.6C1078.7,1731.2,1104.4,1771,1131.9,1813.2z M2095.4,2033
			c-128.2-30.4-249.8-20.1-370.1,32.1c8.8,10.4,16.6,19,23.7,28.1c5.7,7.2,10.6,8,19,3.1c81.9-47.9,161.6-48.5,237.7,13
			c4.7,3.8,8.3,6.6,13.8,0.9C2043.9,2085.1,2068.6,2060.3,2095.4,2033z M2296.4,1878.8c-243.1-65.6-479.5-57.8-714.4,22.7
			c9.1,19,19.4,19.6,36.2,13.9c202.6-69.1,407.7-76.4,614.1-19.1C2258.1,1903.4,2275.3,1896.3,2296.4,1878.8z M2183.6,922.4
			c0.7-22.6-1.8-43.9-16.4-62.6c-8.6-11.1-15.4-15.4-27-2.4c-15.1,16.9-33,31.7-53,42.3c-21.5,11.3-33.3,24.6-29.8,50.8
			c2.2,16.1-3.6,32.7-10.2,48c-4.1,9.6-1.4,13.8,8.1,15.9c24.2,5.3,48.4,9.3,73.4,4.7c28.8-5.2,44.2-18.9,49.3-47.6
			C2181,955.4,2181.8,938.8,2183.6,922.4z M944.1,1629.3c-39.6,8.6-78.8,19.1-117.1,32.2c-10.3,3.5-5.1,9-1.8,14.1
			c24.5,38.2,49.2,76.2,73.6,114.5c5.3,8.4,9.1,10.8,15.6,0.9c21.9-33.3,44.2-66.4,66.5-99.4c3.9-5.7,5.2-10.5,0.9-16.8
			c-9-13-17.2-26.5-26-39.7C953.2,1631.2,950,1627.3,944.1,1629.3z M1668,2588.6c5.2-21.6,26.3-31.6,16.6-52.4
			c-70.1-148.8-81.1-301.6-31.8-458.6c1.6-5,5.4-10,0.6-15.4c-11.4-13.2-21.6-27.6-37.4-39C1584.7,2215.4,1600.5,2401,1668,2588.6z
			 M1890.4,2252.8c27.6-30.8,53.9-60.9,81-90.2c9.2-10,2.2-14.3-4.5-19.4c-50.1-38.7-108.6-39.1-165-8.4c-8.3,4.5-8.6,8.3-2.2,15.4
			C1830.1,2183.9,1859.9,2218.2,1890.4,2252.8z M1720.4,2492.2c11.7-18.7,20.4-35.1,31.5-49.7c9.9-12.9,9.4-21.7,0-35.7
			c-49.9-74.3-60.8-155-34.5-240.5c7.9-25.8,3.5-37.2-22.9-51.8C1659.2,2242.1,1667.7,2366.4,1720.4,2492.2z M933.2,2107.5
			c18.2-26.9,34.9-51.8,52-76.5c3.9-5.7,2.5-9.8-0.8-14.8c-23.9-36.8-47.8-73.7-71.3-110.8c-5.5-8.6-9.3-8-14.5,0
			c-12.7,19.6-25.8,39-38.9,58.3c-3.4,5.1-4.3,9.5-1,15.1C883.2,2021,907.5,2063.1,933.2,2107.5z M2606.1,1167.2
			c35-0.6,64.4-30.4,64.5-65.3c0.1-35.6-30.8-66.2-66.3-65.5c-35.8,0.7-65.8,32-64.4,67.3C2541.1,1139,2571.4,1167.9,2606.1,1167.2z
			 M2094.5,2110.1c-14.5,13.6-27.3,26.8-41.3,38.5c-10.1,8.4-10.2,17-7.2,28.7c15.7,60.1,6.9,117.6-20.5,172.5
			c-18.1,36.3-18.1,35.9,8.8,66.1c8.1,9.1,11.9,11.1,17.4-2.5c11.5-28.1,21.3-56.8,29-86.1
			C2099.6,2256.1,2104.6,2184.1,2094.5,2110.1z M2398.9,1201.2c37.6,0.1,65.5-27.5,65.3-64.6c-0.2-36-28-63.7-64.2-63.8
			c-37.3-0.1-65.5,27.9-65.3,64.8C2334.9,1173.6,2362.7,1201.2,2398.9,1201.2z M2280.1,1346.8c35.9,0.7,64.3-26.9,64.7-62.9
			c0.4-35.8-27.3-65-62.6-66c-35.7-1-65.6,26.7-66.6,61.8C2214.6,1318.6,2240.9,1346,2280.1,1346.8z M2260.8,1399.5
			c-35.7-0.6-64.7,27.2-65.6,62.8c-1,36.2,28,66,64.5,66.2c35.9,0.3,64.6-27.4,65.6-63C2326.2,1429.2,2297.8,1400.1,2260.8,1399.5z
			 M2415.5,1644.3c-0.3-36.1-28.1-63.9-64.2-63.9c-37.1,0-65.5,28.3-65.2,65.1c0.2,35.7,28.6,64.1,64.3,64.4
			C2386.8,1710.3,2415.8,1681.1,2415.5,1644.3z M825.9,1922.6c10.2-15.2,17.1-29.1,27.3-40c22.3-23.6,20.8-43.6,1-69.3
			c-25.7-33.3-46.5-70.5-70.7-108.1c-13.8,26.9-22.3,52.2-30.7,77.7c-2.1,6.4-1.2,11.8,2.2,17.6
			C778.3,1840.3,801.3,1880.2,825.9,1922.6z M1545.4,1943.3c-33.7,247.4-8.4,485.7,82.9,717.6c11.3-10.1,5.5-19.1,2.1-27.9
			c-79.4-204.2-101.7-414.1-61.2-629.7C1574,1977.4,1569.4,1959.4,1545.4,1943.3z M1363.6,1817c1.9-2.8,4.3-6,6.3-9.4
			c13-22.6,25.1-45.8,39.2-67.7c7.6-11.8,3.7-17.5-6-24c-29.2-19.5-60-36.1-92.3-50c-6.3-2.7-14.5-9.5-18.9,1.8
			c-4.7,12-24.7,18.9-11.8,36.9c24.7,34.7,49,69.6,73.6,104.4C1356,1812.2,1357.4,1816.5,1363.6,1817z M1766,2189
			c-23.8,51.5-7.2,151.9,29.8,187c18.7-24.6,37.3-49.3,56.1-73.9c3.5-4.6,6.8-8.6,1.7-14.3C1824.4,2255.2,1795.5,2222.4,1766,2189z
			 M1155.4,2282.4c-19.8,34.3-38.5,65.5-55.8,97.4c-7.1,13.1,10.8,39.8,24.9,38.3c31.6-3.3,62.5-10,93-18.8
			c8.3-2.4,10.1-5.3,5.2-12.7C1200.8,2352.8,1179,2318.8,1155.4,2282.4z M2005.8,940.8c-31.9,9.4-64,16.5-97.1,18.1
			c-11.2,0.6-10.9,8.4-11.1,16.1c-0.7,24.2-3,48.4-10.6,71.4c-3.7,11.3,1.4,11,9.5,11C1954.2,1057.5,2008.2,1000.8,2005.8,940.8z
			 M734.3,1866.7c-16.3,47.3-18.1,171-3.2,197.5c19.4-28.9,38.2-57.6,57.8-85.7c4.7-6.8,4.1-11.8,0.2-18.5
			C771.2,1930.1,753.7,1899.9,734.3,1866.7z M1876.6,2423.2c14.6-0.9,32.1-5.8,47.2-17.8c20-15.9,20-15.9,2.6-35.3
			c-7.8-8.7-15.8-17.2-23-26.3c-7.1-9-12.2-10.9-19.6,0.2c-10.3,15.3-22.5,29.4-33.1,44.6c-5.7,8.2-18.6,16.9-14.4,25.2
			c5.1,10.1,20.5,8.1,31.9,9.5C1869.5,2423.3,1870.9,2423.2,1876.6,2423.2z M1999.2,2207.3c-14.8,16.6-27.6,30.8-40.1,45
			c-35.1,39.8-35.1,39.9,1.3,79.1c0.9,1,1.9,2,2.7,3.1c4.8,7.5,9.2,7.2,13.3-0.6C1996.9,2295.5,2007.6,2255.3,1999.2,2207.3z
			 M1314.9,2096c2.2-2.7,4.2-4,4.7-5.7c13.4-50.8,31.6-99.9,55.2-146.8c6.4-12.7,0-18.3-9.6-25.4c-24.9,43.1-48.9,84.9-73.2,126.5
			c-3.5,6-4.5,10.8-0.1,16.8C1299.8,2072.4,1307,2084,1314.9,2096z M1407.4,1882.5c22.2-34.5,44.2-66.9,68.7-97.4
			c10.6-13.2-5.5-15.1-10.5-21.1c-7.8-9.4-11.3-0.8-14.7,4.9c-16.9,29.1-33.1,58.6-50.7,87.3
			C1393.3,1867.5,1398.2,1873.9,1407.4,1882.5z"/>
	</g>
</g>
</svg>
