<?xml version="1.0" encoding="utf-8"?>
<!-- Generator: Adobe Illustrator 23.0.0, SVG Export Plug-In . SVG Version: 6.00 Build 0)  -->
<svg version="1.0" xmlns="http://www.w3.org/2000/svg" xmlns:xlink="http://www.w3.org/1999/xlink" x="0px" y="0px"
	 viewBox="0 0 3000 3000" style="enable-background:new 0 0 3000 3000;" xml:space="preserve">
<style type="text/css">
	.st0{stroke:#000000;stroke-width:10;stroke-miterlimit:10;}
</style>
<g id="Layer_1">
</g>
<g id="Layer_2">
	<g>
		<path class="st0" d="M2023,1985.4c46.6,4.1,92.8,3.4,138.8,12c199.5,37.1,354.6,217.5,359.4,420.3c1.7,74.1,2.8,148-20.5,220.1
			c-57.8,179.7-226.4,307.9-415.2,308.8c-331,1.6-662.1,2-993.1-0.1c-236.2-1.5-430.9-198.3-434.8-434.5
			c-1.2-72.7-3.2-145.6,21.6-215.7c51.8-146.3,151.8-243,299.9-289.7c7.3-2.3,14.6-4.2,22.5-6.5c-3.8-8.6-11.9-7.9-17.9-10
			c-251.8-88.6-418.9-323-419.4-590.2c-0.5-238.6-0.4-477.1,0-715.7c0.5-313.9,225.7-574.4,536.4-620.4c30-4.4,60.3-5.9,90.8-5.9
			c202.6,0.2,405.1-0.1,607.7,0.2c305.4,0.3,557.7,206.9,618.3,506.3c8.1,40.2,11.1,81,11.1,122c-0.2,235.7,0,471.5-0.1,707.2
			c-0.2,261.4-149,484.4-390,585C2033.1,1980.7,2028.1,1983.1,2023,1985.4z M2139.4,1859.7c8.4-0.6,12.6-5.9,17.3-9.7
			c142.7-116.1,218.4-265.8,219.8-449.9c1.9-239.3,0.6-478.6,0.4-717.8c-0.1-54.6-7.6-108.3-23.1-160.7
			c-72.3-244.1-294.9-411.3-549.6-412.1c-201.2-0.6-402.3-0.2-603.5,0c-21.8,0-43.7,1.1-65.5,3.1C843.9,139.4,617.6,384.1,616,676.3
			c-1.4,242.8-0.6,485.6-0.1,728.4c0.1,67.5,12.8,133.1,36.5,196.6c5.6,15,10.1,18.3,24.6,8.7c44.1-29.2,81.4-65.2,113.5-107
			c65.5-85.4,102.4-184.2,133.9-285.5c10.5-33.7,10.1-33.4,43.3-23.9c11.8,3.4,16.8,6.7,12.3,21c-16.2,50.3-31.8,100.9-52.3,149.6
			c-50.8,120.6-119.9,227-235.2,296.5c-9.9,5.9-7.6,11-3.3,18.5c27.7,48.8,61.9,92.5,101.9,131.9c9.1,9,14,7,21.7-1.3
			c40.8-43.9,83.8-85.9,122.4-131.8c94.8-112.7,171.7-234.4,192.3-384.3c0.5-3.9-0.7-10.7,4.3-10.6c14.7,0.5,30.7-0.4,43.6,5.2
			c9.2,4,2.3,17.9,0.8,27.2c-17.7,116.5-69.3,218.1-136.5,313.1c-54.8,77.6-120.7,145.4-186.3,213.5c-10.9,11.3-7.8,16,2.8,23.5
			c60.9,42.3,126.8,72.7,198.8,91.2c20.7,5.3,31.8,0.1,44.2-16c63.4-82.2,111.4-172.9,150.7-268.5c49.1-119.6,80.7-244.7,114-369.2
			c3.8-14.1,8.1-19.9,22.5-13c5,2.4,10.8,3.7,16.3,4.2c15.3,1.4,15.6,9.8,12.2,21.9c-16.9,60.3-32.5,121-50.2,181.1
			c-49.1,166.6-112,326.9-218.1,466.9c-0.6,0.8-0.1,2.6-0.1,3.9c4,4,9.2,3.4,14,3.4c103,0.3,206.1,0.3,309.1,1
			c11.1,0.1,14.3-6.3,18-14.2c16-33.8,30.2-68.3,42.8-103.5c61.2-170.5,84.1-345.9,68-526.5c-3-33.5-6.9-29.9,26.9-34.8
			c19.6-2.8,25.2,1.9,24.1,20.6c-0.6,10.4,2.2,21,2.9,31.6c14.1,210.8-20.4,413.2-105.1,606.9c-2.5,5.6-6.8,10.9-5,18.8
			c5.3,0.3,10.7,0.8,16.2,0.8c75.5,0,151.1-0.5,226.6,0.5c15.7,0.2,22.1-5.9,27.6-19.1c31.5-75.3,50.9-153.8,60.3-234.7
			c16-138.1,8.2-276.2-3.2-414.2c-1.2-14.7-2.9-27.2,17.7-26.1c14.8,0.8,33.3-10.1,35,19.5c5.2,87.3,11.4,174.6,11.1,262.1
			c-0.2,83.4-5.6,166.3-22.5,248.2c-11.1,53.9-26.9,106.3-47.5,157.9c3.6,0.7,5.6,1.7,7.5,1.4c68-7.8,132.3-27.6,193.1-58.8
			c7.8-4,10.5-10.3,12.5-18.2c20.3-79.3,35.4-159.6,46-240.7c16.3-124.2,21-248.9,12.4-373.9c-1.3-19.2,5.4-25.7,23.3-23.8
			c4.2,0.4,8.5,0.4,12.7-0.3c12-2.1,15.4,2.8,16.1,14.7c9.4,157.7,2,314.5-25.4,470.3C2155.1,1777.9,2147.1,1818.5,2139.4,1859.7z
			 M2083.9,2324.3c0-0.9,0-1.8,0-2.7c-61.4,0-122.8,0.3-184.2-0.3c-13.2-0.1-18.5,3.1-19.2,17.1c-4.8,89.5-10,178.9-16,268.3
			c-1.2,17.6,4,22.2,21.8,21.8c107.2-2.8,214.5-4.3,321.7-6.1c6.2-0.1,15.4-3.4,18,2c6.6,13.6,3.6,29,2.3,43.4
			c-1,11.1-12.5,6.6-19.3,6.7c-109.4,2-218.7,4.2-328.1,5c-16.7,0.1-21.1,5.2-21.9,20.8c-3,59.2-6.8,118.3-11,177.4
			c-1,13.5,2.1,18.4,16.7,18.3c73.4-0.8,146.8,0.9,220.2-0.7c178.9-3.9,332.4-129.3,374.2-303.5c13.4-55.6,12.2-112.1,10.4-168.5
			c-5.8-185.7-140-341.8-322.7-375.1c-79.1-14.5-159.1-4.9-238.7-7.3c-12.5-0.4-10.4,9.1-10.9,16.3c-3.9,64.8-7.3,129.6-11.7,194.3
			c-0.9,13.5,2.1,18,16.6,18.1c117.1,0.6,234.3,2.2,351.4,3.4c33.6,0.3,32.8,0.2,32.6,34.4c-0.1,14.3-5,17.5-18.3,17.3
			C2206.7,2324,2145.3,2324.3,2083.9,2324.3z M1200.7,2040.7c-33.9,0-67.8-0.4-101.6,0.1c-163.4,2.2-308.7,105.4-365.9,258.4
			c-26.2,69.9-26.3,142.4-23.9,215.2c6,184.5,140.6,341,321.8,373.8c82.6,15,166.2,4.8,249.3,7.5c10.7,0.3,10.7-7.2,11.1-14.1
			c2-34.5,3.5-69,5.8-103.5c0.7-10.5-2.7-13.9-13.1-12.1c-25.1,4.3-50.6,3.9-76,3.7c-58.3-0.5-113.1-12.8-160.5-49.4
			c-88.1-68-91.9-182.5-7.2-255.2c12.3-10.6,9.5-15.1,0.8-25.6c-28.9-34.7-41.5-74.8-33.4-120.2c13.3-74.9,66-111.5,132-134.1
			c56.6-19.3,115.1-27.1,174.9-23c9.4,0.6,16.2,0.7,16.5-12.1c0.7-31,2.3-62,4.4-93c0.9-12.9-3.1-17-16.3-16.7
			C1279.8,2041.2,1240.2,2040.7,1200.7,2040.7z M1820.6,2467.2c0.1,0,0.2,0,0.3,0c7.9-136.6,15.6-273.2,23.8-409.8
			c0.8-13.2-2.8-17.1-15.9-16.9c-58.6,0.6-117.2,0.8-175.7-0.1c-15.1-0.2-19.1,5.2-19.7,19.1c-2.9,64.8-6.6,129.6-10,194.4
			c-6.3,119-12.5,238.1-18.8,357.1c-4.8,89.5-9.5,178.9-14.9,268.3c-0.8,13.3,3.3,16.8,16.3,16.6c57.2-0.6,114.3-0.7,171.5,0
			c14.7,0.2,18.9-4.4,19.7-18.9C1804.5,2740.4,1812.7,2603.8,1820.6,2467.2z M1569.5,2287.8c0.2,0,0.3,0,0.5,0
			c3.7-76.1,6.9-152.2,11.4-228.3c0.9-14.7-2.3-19.5-17.7-19.2c-52.2,0.9-104.5,0.9-156.7,0c-14.8-0.3-19.3,4.7-19.9,18.9
			c-4.1,86-8.9,171.9-13.5,257.8c-6.4,119.7-13,239.5-19.4,359.2c-3.6,67.6-6.9,135.3-10.5,202.9c-0.6,10.5,0.5,16.8,14.1,16.7
			c55-0.7,110.1-0.5,165.2-0.1c10.4,0.1,15-2.7,15.5-14c2.4-55,5.5-109.9,8.4-164.9C1554.5,2573.8,1562,2430.8,1569.5,2287.8z
			 M1226.9,2718.2c15.4,1,37.7-3.2,60.2-4.3c9.5-0.5,13.7-3.9,14.2-13.8c3.7-72.5,7.7-145.1,11.9-217.6c0.6-9.8-2.5-13.6-12.5-14.8
			c-33.6-4.2-67.2-9.1-101.2-7.3c-39.9,2.1-78.2,10.4-112.1,33.3c-73.5,49.5-76.3,133.5-6.1,187
			C1122.5,2712,1170.1,2718.3,1226.9,2718.2z M1322.1,2305.6c1.1-18.6,2.3-46.1,4.6-73.4c1.1-13.3-2.1-18.7-16.6-18.8
			c-31-0.1-62.1-0.4-92.6,5.5c-40.2,7.7-79.9,17.5-114.4,41.1c-54.2,37-61.5,108.8-15.7,153.4c6.7,6.5,12.9,14.8,25.3,10.7
			c61.8-20.7,124.7-18.8,187.9-7.8c11.7,2,16.7-0.6,17.1-13.2C1318.5,2373.5,1320.3,2343.9,1322.1,2305.6z"/>
		<path class="st0" d="M1453.7,798.5c-153.1,1.2-282.2-102.6-310.7-249.8c-25.6-132.4,49-256.8,152.3-315.2
			c98.7-55.7,259.6-61.4,369.5,35.9c90.7,80.3,126.6,181.4,96.2,299.2c-30.6,118.9-112.5,190.3-229.9,221.9c-14.9,4-30.4,6-45.8,7.7
			C1474.9,799.4,1464.3,798.5,1453.7,798.5z M1684.3,375.8c-34.5-82.3-153.3-141.7-258.7-130.4c-119,12.7-212.5,97.9-232.7,212.1
			c-15.6,88.1,32.3,200.8,100.5,234.9c31.3-84.4,81.2-156,151.2-212.7C1514.6,422.8,1595.1,389.3,1684.3,375.8z M1450.1,748.3
			c25.7,0,48.8-3.1,71.4-8.4c135.3-32.1,221.5-166.1,191.8-296.4c-3.3-14.4-8.8-18.6-22.7-16.2c-167.2,28.8-283,121.2-347,278.5
			c-5.8,14.3-1.6,19.6,11.6,24.3C1386.8,741.3,1419.2,747.1,1450.1,748.3z"/>
		<path class="st0" d="M952.4,727.4c54.4,0.1,98.4,44.4,97.7,98.3c-0.7,54.2-44.8,97.1-99.5,96.6c-53.2-0.4-96.6-44.1-96.7-97.4
			C853.8,771,897.9,727.2,952.4,727.4z M997.6,825.5c0.3-25.4-19.2-46-44.3-46.7c-25.1-0.7-46,19-46.8,44.2
			c-0.9,26.4,19.3,47.7,45.3,47.8C976.9,870.9,997.3,850.8,997.6,825.5z"/>
		<path class="st0" d="M1858.4,828.5c56.1,0.1,98,40.9,98.1,95.5c0.1,53.6-44.6,98.3-98.2,98.2c-53.8-0.1-98.3-44.8-98.1-98.3
			C1760.4,869.1,1802.3,828.4,1858.4,828.5z M1904,923.7c-0.2-25.9-19.7-44.7-46.1-44.5c-25.9,0.2-45.3,19.8-45.1,45.6
			c0.2,25.9,20,44.9,46.1,44.5C1885.2,968.8,1904.2,949.6,1904,923.7z"/>
		<path class="st0" d="M893.6,604.8c-54.5-0.5-97-44.4-96.4-99.5c0.7-54.4,44.8-96.7,100-95.8c53.4,0.8,95.6,44.4,95.3,98.4
			C992.2,562.4,948.5,605.3,893.6,604.8z M895.8,461c-24.3-0.5-46.2,20.3-47.1,44.7c-0.8,24.3,19.7,46.4,44.2,47.6
			c25,1.2,47.9-20.6,48.2-45.8C941.3,483.2,920.2,461.5,895.8,461z"/>
		<path class="st0" d="M1204.7,926.1c54.6,0.2,97.5,43.9,97,98.8c-0.4,53.6-43.6,96.4-97.3,96.6c-54.8,0.2-98.2-43.1-98.1-97.8
			C1106.4,968.8,1149.7,925.9,1204.7,926.1z M1203.3,977.6c-24.5,0.4-45.6,21.9-45.5,46.4c0.1,25.4,22.7,47.1,48,46
			c24.6-1,45.2-23,44.4-47.4C1249.5,998,1227.7,977.2,1203.3,977.6z"/>
		<path class="st0" d="M1533.2,1134.2c-54.5-0.4-97.2-44.4-96.5-99.4c0.6-54.5,44.7-96.8,99.9-95.9c53.5,0.8,95.8,44.4,95.5,98.2
			C1631.8,1091.7,1588,1134.7,1533.2,1134.2z M1535.2,990.3c-24.4-0.5-46.2,20.2-47,44.8c-0.9,25.2,21,47.7,46.4,47.6
			c24.5-0.1,45.7-21.3,46-45.9C1580.8,1012.4,1559.9,990.8,1535.2,990.3z"/>
		<path class="st0" d="M2013.5,396.7c54.6,0.2,97.7,43.9,97.2,98.7c-0.5,54.5-44.5,97.3-99.3,96.7c-53.6-0.6-96.1-43.8-96.1-97.7
			C1915.3,439.5,1958.6,396.5,2013.5,396.7z M2013.8,540.6c24.5-0.4,45.5-22,45.4-46.5c-0.1-24.5-21.4-45.8-46-45.9
			c-25.3-0.1-47.2,22.3-46.4,47.5C1967.6,520.3,1989.3,541.1,2013.8,540.6z"/>
	</g>
</g>
</svg>
