<?xml version="1.0" encoding="utf-8"?>
<!-- Generator: Adobe Illustrator 23.0.0, SVG Export Plug-In . SVG Version: 6.00 Build 0)  -->
<svg version="1.0" xmlns="http://www.w3.org/2000/svg" xmlns:xlink="http://www.w3.org/1999/xlink" x="0px" y="0px"
	 viewBox="0 0 3000 3000" style="enable-background:new 0 0 3000 3000;" xml:space="preserve">
<style type="text/css">
	.st0{stroke:#000000;stroke-width:10;stroke-miterlimit:10;}
</style>
<g id="Layer_2">
</g>
<g id="Layer_1">
	<g>
		<path class="st0" d="M1064.5,500.9c21.5-47,47.4-91.2,80.8-130.5c71.4-84.2,160.9-127.7,272.9-129.6
			c105.7-1.8,209.9,6.2,313.5,26.1c5.2,1,12.3,3.5,15.7,1.2c67.5-46.6,139.2-40.6,211.4-15.7c18.8,6.5,33.6,6.7,51.8-2
			c51-24.4,104.2-25.5,157.9-8.7c14.6,4.6,30.2,7,32.2,28.1c1.2,12.8,11,4.2,16.2,1.7c87.9-43.3,181.4-55.9,277.9-49.8
			c119.4,7.5,223.9,52.4,312.9,131.8c64.3,57.3,87.5,132.8,89.7,216.8c6.9,263.8,4.7,527.6,5.5,791.4c0.3,105.3,4.8,210.6,7.7,315.9
			c1.4,50.5,0.5,101.2-11.3,150.3c-29.9,124.2-108.3,208.9-221.1,264.3c-8.1,4-16.4,7.6-26.8,12.4c41.6,29.1,78.1,60.7,107.4,99.9
			c159.3,212.9,39.3,458.6-145.1,540.6c-50.6,22.5-105.5,23.9-159.2,15.6c-56.3-8.8-84.9-52.6-83.4-117.6
			c0.4-17.7,5.6-35.8-4.9-57.4c-11.8,27.9-21.8,52.2-32.3,76.3c-13,29.7-29.9,56.6-56.2,76.6c-38.1,29.1-78.8,31.7-119.8,6.4
			c-8.1-5-15.1-8.5-25.3-6c-125.6,30.8-224.9-49.6-262.5-139.3c-1-2.5-2.5-4.7-5-9.2c-10.6,12.4-20.1,24.4-30.5,35.6
			c-61.6,66-140.7,101.2-225.8,123.6c-146.3,38.5-294.3,46.9-443.5,18.5c-89.8-17.1-168.3-55.2-227.8-127.5
			c-83.5,87.3-179.9,151.9-299.8,172.5c-145.5,25-283.2,3.6-404.6-85.9c-101.6-75-140.3-183.1-145.5-303.9
			c-12.9-298.5-2.7-597.2-2.7-895.8c0.1-232.7,1.3-465.4,2.9-698.1c0.8-105.5,6.6-210.5,43.3-311.2
			c64.1-175.8,191.5-266.4,376.1-280.1c78.9-5.9,157.5-3,235.5,10.1c140.3,23.4,239.2,103.4,305.6,226.9
			C1052.8,483.7,1055,494.1,1064.5,500.9z M891.5,2357.3c-84.7,59.6-176.6,66.4-269.6,64.5c-134.9-2.7-250.1-54-349.6-144.7
			c-99.3-90.5-100.6-224-1-315.1c25.2-23,53.8-41.1,83.3-57.8c8-4.5,16.6-7.8,8.4-20.3c-61.7-93.6-67.2-200.3-65.8-306.7
			c3.4-243.6,9.9-487.1,15.9-730.7c2.2-87,8.2-173.6,32.8-258C376.8,483,448.5,421.4,553,398.3c184.5-40.7,368.4,56.1,442,229.8
			c5,11.8,10,23.6,17.3,40.6c8.9-33.6,15.9-60.9,23.6-88c1.9-6.8,0.6-12.5-1.5-18.6c-43.2-126-121.9-218.1-252.5-257.9
			c-85.3-26-173.8-24.9-261.6-21.4c-190.6,7.8-319,118.8-362.7,304.7c-24,102-24,205.4-24.6,308.5c-3,462.6-4.3,925.1-5.2,1387.7
			c-0.1,60.3,1.2,120.9,9.5,180.9c19.1,137.3,90.9,233.9,223,280c194.2,67.9,367.1,30.3,518.3-109.5c23.1-21.3,39.8-41,19.5-73.4
			c-5.5-8.8-5.9-21-8.2-31.7C878.1,2474.8,884.1,2419.2,891.5,2357.3z M986.1,797.2c6.3-17.3,7.9-31.3,6.1-45.8
			c-25-203.1-182.5-337.2-386.5-325.6c-101.1,5.8-198.8,60.7-228.4,180.3c-13.9,56.3-24.1,112.9-25.7,170.6
			C346,980,340,1183.3,336.8,1386.5c-1.8,110.6-11.2,221.6,3.8,332c14.7,107.8,63.9,193.5,161.6,247.2
			c53.5,29.4,110.6,46.7,171.2,54.3c132.1,16.6,246.8-22.8,349.5-104.3c12.3-9.8,8.2-17.4,2.9-27.8c-22.9-44.3-36.2-91.5-43.4-140.9
			c-6.7-45.4-10.7-90.9-10.7-136.7c0-21.6-5.9-24.2-25-14.4c-71.2,36.7-147.2,44.6-224.1,25.7c-111.9-27.6-189.1-92.5-212.5-211
			c-8.9-45-12.3-90.6-17.8-135.9c-22.4-185-15.3-369,13.1-552.7c11.3-72.8,50.8-117.1,123.9-127.3c121.5-17,223.2,23.7,303.4,116.9
			C954.1,736.6,970,765.3,986.1,797.2z M2865,1183.6c0-61.4,0.6-122.7-0.1-184.1c-1.7-147.4,0.3-294.8-6.5-442.2
			c-3.6-79.6-33.5-143.1-94.7-192.7c-43.8-35.5-92-62.9-145.9-80c-134.9-42.9-266.7-38.3-394.5,26.2c-12,6.1-25,11.1-24.4,29.2
			c0.9,25.6,0.3,51.3-0.5,76.9c-0.4,13.6,5.1,15.3,16.6,11.3c22.4-7.8,44.8-16.1,67.8-22c94.8-24.7,190-41.2,285.8-4.2
			c53.4,20.6,88.3,58.2,101.1,114c6.5,28.4,10.5,57.7,12.1,86.9c14.1,250.4,37.9,500.3,38.3,751.3c0.2,117.2,5.4,234.4-5.1,351.4
			c-9.6,106.6-61.4,181.3-163.3,219.6c-114.3,43.1-231.8,60.2-353.1,43c-20.6-2.9-26,3.3-27,21.7c-1.5,28.3-2.5,56.9-7.4,84.7
			c-4.2,23.6,3.9,27.7,25.4,27.9c108.2,0.9,216.1-3.6,323.8-12.7c69.5-5.8,137.3-17.2,197.1-58.3c117.8-81,168.1-193.9,162.3-334.2
			C2865.9,1526,2861.2,1354.9,2865,1183.6z M1962.7,1196.2c0-85.2-1.3-170.4,0.3-255.5c3.7-207,4.7-414,4.4-621
			c0-15.3-2.8-26.1-19-31.8c-47-16.7-94.2-20.5-143-7.5c-14.5,3.9-18.6,11-19,24.9c-1.1,37.5-3.6,75-5.1,112.5
			c-9.4,236-17.3,472.2-28.5,708.1c-11.5,243-17.2,486.2-31.1,729c-4.3,75.6-3.3,151.8-6.7,227.6c-0.8,18.6,6.2,27,23.7,29.4
			c40,5.6,80,9.3,120.4,3.3c74.2-11.1,60.1-1.9,63.4-70.9C1935.9,1761.6,1951.3,1479.1,1962.7,1196.2z M2495.8,2589.8
			c0,21.1,0.4,42.2-0.1,63.2c-1.4,53.2,12.1,65.2,71.1,59c8-0.8,16-3.8,23.7-6.7c104.6-39.4,193.6-164.9,196.4-276.8
			c3.1-123.1-77.2-250.4-190.2-301.9c-7.7-3.5-15.2-5.5-23.8-4.6c-140.5,14.9-281.3,19.7-422.5,18.8c-19.9-0.1-42.5,0-59.2,8.8
			c-75.4,40.1-134.5,97.1-169,177.1c-6.7,15.5-10.1,30.8-9.3,47.8c1.9,40.4,1.5,81.1-10.2,119.9c-8,26.5-4,50.3,4.8,74.7
			c39.8,110.2,149.2,159.2,249.3,112.5c66.6-31.1,99.7-85.3,113-155.2c7.2-38,19-74.7,46.6-103.8c28-29.6,61-48.4,102.8-36.8
			c44.1,12.2,63.5,46.6,71.5,88.9C2498,2512.8,2495.8,2551.4,2495.8,2589.8z M1006.2,1331.8c0,59.5-1.1,119.1,0.3,178.6
			c1.9,82.3,1.3,164.7,15.6,246.4c27.6,157.5,143.4,285,297.9,316.4c110.4,22.4,223.2,28.7,336,29c16,0,20.6-6.5,20.3-21.3
			c-0.5-24.7-0.6-49.5,1-74.1c1.2-19.2,0-27.3-24.3-21.7c-118.8,27.3-232.4,12-340.7-44.9c-102.5-53.8-160.7-136.5-175.5-252.2
			c-19-148.4-5.3-296.2,2.8-444.1c6.8-123.4,23.1-245.9,36.8-368.6c9.9-89.1,22.4-177.7,48.8-263.9c20.5-66.9,59-118.5,120-154.1
			c100.8-59,209.5-65.4,321.7-52.6c24.3,2.8,57.4,20.6,70.1,7.3c13.9-14.5,6.6-48.4,10.3-73.6c3.2-21.7-4.7-30.3-26.4-34.6
			c-102.9-20.8-206.8-28.4-311.3-25.6c-86,2.3-160.1,35.4-219.4,98.9c-49.5,53-84,115-107.6,183.3c-27.5,79.8-43.6,162.2-56.2,245.3
			C1000.3,980.1,999.9,1155.9,1006.2,1331.8z M2142.2,1192.8c-0.3,0-0.5,0-0.8,0c6.5-297.6,12.9-595.3,20-892.9
			c0.4-18.2-7.6-24.4-22.7-27.3c-37.9-7.3-74.6-3.8-110.5,10.4c-16.4,6.5-24.1,17.1-23.4,35.5c1.4,36.6,1.8,73.3,1.4,109.9
			c-3.4,297.6-5.8,595.2-14.5,892.7c-2.7,92.5-4.8,185-9.1,277.4c-7.5,161-16,321.9-25.1,482.9c-1.2,20.4,5.3,28.4,24.8,29.6
			c39.4,2.4,78.5,3,117.9-1.7c18.2-2.2,21.6-9.6,21.9-26.2C2128.4,1786.3,2135.4,1489.5,2142.2,1192.8z M512.7,1042.7
			c3.7,112.9,12,222.3,25.8,331.4c14.8,116.6,80.4,186.6,193.2,214.3c65.5,16.1,128.3,7,190.1-18.6c32.3-13.4,51.1-29.9,46.5-70.1
			c-5.3-46.2-1.2-93.3-2.8-139.9c-5-141-2.9-281.9,7.1-422.6c1.4-20,9.1-40.2,3.8-60c-39.9-148.7-142.9-250.2-310.3-252
			c-71.7-0.8-115,33.9-125.7,101.1C523.5,831.9,515.2,938.7,512.7,1042.7z M2682.2,1374c0.7-263.9-22.8-532.1-42.8-800.4
			c-7.3-97.8-46-139.2-143.9-152c-100.7-13.1-195.8,14.8-288.9,50.3c-5.5,2.1-14.3,5.6-10.7,13.2c5.3,11,12.8,1,18.2-1.3
			c58.7-25.6,119.4-40.8,183.8-37.9c82.2,3.7,130.7,44.8,146.7,125.5c11.1,55.7,18.4,112,22.5,168.6c10.5,144.4,10.3,289.1,12,433.7
			c1.9,162,6.6,324-0.7,486.1c-5.2,115.7-50.5,174.9-162.2,204.3c-76.5,20.1-154.2,31-233.4,31.3c-10.1,0-17.7,0.1-17.5,13.8
			c0.2,10.6,1.5,17.7,14.1,17.9c5.4,0.1,10.7,2.3,16.2,3c116.7,15.9,229.5,0.9,340-39.5c88.3-32.3,132.7-96.1,141.8-187.2
			C2688.2,1595.6,2679.6,1487.5,2682.2,1374z M1237.5,1388.4c0-14.6-0.2-29.3,0-43.9c2.8-169.5,24.7-337.7,32.8-506.9
			c3.2-67.4,10.3-135.2,37.5-198.7c22.2-51.9,53.8-94.4,106.2-120.7c96.2-48.3,195.8-55.3,299.1-31.1c10.8,2.5,23.3,11.8,28-7.6
			c4-16.2-4-23.4-19.1-26.6c-97.2-20.1-194.4-26.3-290.1,6.2c-77.7,26.4-141.2,70.1-166.6,153.6c-17.6,57.8-30.5,116.8-39.7,176.5
			c-27.1,177.5-42,356.3-52.7,535.4c-7.2,120.6-14.9,241.4,3.1,362c9.1,61,25.2,119.4,72.9,161.7
			c119.8,106.1,259.1,132.5,412.6,96.3c11.8-2.8,23.8-4.9,21.3-22.2c-2.6-17.8-16.2-11.5-25.7-11.9c-86.9-3.8-173.8-6.4-260.7-10.6
			c-61.2-2.9-95-37.7-112-95.4C1244.2,1668.3,1240.2,1528.5,1237.5,1388.4z M654.9,2377c21.4,1.9,50.5-3,79.4-7
			c67.3-9.5,127.3-33.8,168.8-91.5c19.1-26.6,22.5-59.7,36.3-88.5c19.1-40,22.6-82.8,20.1-126c-3.4-58-4-57.4-57.4-37.7
			c-15.5,5.7-22.5,12.9-24.5,30.4c-4.4,39.7-20.4,75.6-43.6,108.4c-118,166.6-364.9,136.2-463.8,45.3c-40-36.8-54.7-83.2-41.6-137.3
			c11.3-47,39.6-81.5,77.2-110c5.3-4,17.9-7,7.5-18c-6.7-7.1-12.2-15.4-25-7.7c-35.4,21.2-72.1,40.7-99.7,72.1
			c-54,61.6-68.3,150.3,0.6,219.5C388.1,2328.4,507,2377.1,654.9,2377z M1125.5,2021.1c-27.8,15-49.3,35.8-68.5,59.1
			c-35.8,43.6-58,93.3-77.6,146.4c-22.4,60.5-39.8,120.8-48.4,184.7c-19.5,145.5,49.5,255.1,189.9,298.7
			c14.5,4.5,22.6,4.4,28.6-12.6c15.2-43,32.3-85.4,49.6-127.5c5.5-13.3,4.4-20.6-8.9-28.6c-52.2-31.3-82.6-78.5-97.7-136.9
			c-18.5-71.3-17.4-143-7.4-215.2C1093,2132.1,1108.9,2077,1125.5,2021.1z M1862.2,2278.2c0-21.2-0.6-63.3,0.3-105.4
			c0.3-13.9-1.5-19.8-17.6-18c-40.3,4.6-80.5,0.8-120-8c-19.2-4.3-23.2,1.6-21.7,20.3c8.6,110.3-21.7,208.1-96.9,290.6
			c-7,7.7-9.6,14.2-4.6,24.3c28.8,58.2,57.2,116.6,85.5,175c4.1,8.5,7.8,13.3,18.6,7.8c84.5-43.4,143-106.3,157.5-204
			C1871.4,2406.7,1867.2,2352.9,1862.2,2278.2z M1220.4,2200.8c0,19.2-1.1,38.5,0.2,57.6c4.3,65,38.3,104,102.2,118.7
			c131.7,30.2,249.7-76.8,234.6-211.3c-2.7-23.6-11.7-29.8-34.2-30.8c-93.4-4-186.2-13-275.1-44.5c-14.7-5.2-17.6,1.7-20.4,12.3
			C1219.1,2134.9,1218.4,2167.8,1220.4,2200.8z M1123.3,2282.1c1.3,21,1.6,42.1,4,63c12.9,113,70.9,176.9,175.4,183.9
			c135.8,9.2,243.1-44.2,313.3-162.4c38.5-64.7,52.2-136.4,39.2-211.4c-5-28.8-29.3-12.5-44.6-14.6c-16.6-2.3-8.8,11.7-7.9,19.2
			c18.7,159-115.3,289.9-273.8,265.3c-70.9-11-128.5-45.7-145.7-119.4c-17.1-73.4-18.2-148.8,3.2-222.6c3.8-12.9,6.1-22.6-9.2-27.8
			c-19.8-6.7-15,12.2-17.6,19.4C1136.3,2141.8,1124.9,2211.1,1123.3,2282.1z M1534.8,1522.6c-70-11.8-109.8-52.9-111.1-110.2
			c-1.2-53.2,35.4-98.4,89-110c50.7-10.9,103.4,16.6,123.3,64.4c23.5,56.4,2.3,107.3-63.4,150.9c37.2,0,73.4-0.2,109.6,0.1
			c13.6,0.1,16-6.8,16.5-18.9c3-76.8,5.9-153.6,10.9-230.3c1.5-23.4-6.4-31.9-28.6-35.8c-171.5-29.7-315.1,47.4-399.8,196.3
			c-3,5.3-5.7,12-5.4,18c2,42.9,4.9,85.9,7.4,128.8c0.6,11,4.8,14,15.7,9.5C1373.1,1554.6,1450.9,1535.7,1534.8,1522.6z
			 M1308.8,836.8c70.8-29.2,141.4-48.5,216.9-61.2c-77.7-48.1-97.7-110.8-57.5-170.8c33.9-50.6,105.9-63.5,155.4-27.6
			c25.8,18.7,41,44.4,45.3,75.7c6.5,47-16.6,81.9-53.7,113.8c32.2,1.7,59.5,2,86.6,4.9c20,2.1,27.4-3.9,27.9-24.6
			c1.4-62.2,3.6-124.5,7.8-186.6c1.4-20.7-4.9-29.4-24.4-34.2c-63.2-15.6-126.8-20.9-190.4-6.3c-64.2,14.7-126.1,35.9-162.1,97.6
			C1321.6,684.1,1314.9,758.7,1308.8,836.8z M2193.5,655.6c-1.5,0-3.1,0-4.6,0c0,32.9,0.7,65.8-0.3,98.7c-0.5,17.3,3.7,24,23,23.3
			c36.5-1.4,73-1.9,109.6,2c66.7,7,131.4,22,193.6,47c11.6,4.7,21.1,8.6,19-11c-8.4-79.9-8.3-160.8-27.5-239.4
			c-16-65.6-51.3-92.1-119.4-92.9c-63.7-0.7-121.7,20.4-179.3,44.3c-12.6,5.2-14.3,14.9-14.2,26.6
			C2193.6,588,2193.5,621.8,2193.5,655.6z M2257.9,1486.3c-61.7-68.2-67-130.3-18.2-177.4c43.2-41.7,110.9-41.9,153.9-0.6
			c22.3,21.5,32.3,48.6,33.7,78.8c2.3,49.6-29.7,79.1-71.5,107c63.4,10.4,118.5,26,171.4,48.7c16,6.9,16.5-1.3,16.5-13.2
			c0-42.1,0.7-84.2,0.5-126.3c-0.1-20.5-6.2-39.6-16.7-57.3c-65.1-110.4-205.1-158.2-325.2-111.6c-16.7,6.5-24.4,15.7-24.8,34.2
			c-1.3,65.9,1.1,131.8-4.6,197.6c-1.1,12.8,1.6,21.1,17.6,20.3C2211.4,1485.4,2232.4,1486.3,2257.9,1486.3z M1282.3,1192.8
			c42.8-17.1,85-34.1,128.8-46.3c90.7-25.1,183.2-33.9,277.1-29c14.1,0.7,27,2.7,27.1-19.4c0.3-43.9,3.8-87.7,4.9-131.6
			c1.4-57.8,1.1-58.3-55.4-72.2c-28.2-6.9-56.9-13.3-92.8-6.7c64.5,18.7,99.8,61.5,98.5,113.4c-1.2,48.8-35.9,95.1-82.5,104.3
			c-55.2,10.9-94.7-3.2-125.6-53.8c-17.1-28-17.1-59.2-6.7-90.1c10.3-30.9,34-50.3,68.1-70C1374.3,922,1275.9,1047.8,1282.3,1192.8z
			 M2381.8,1121.8c50.6,12.5,98.9,27.8,143.6,52.5c17.7,9.8,15.3-3.7,15.2-13.5c-0.2-39.3-0.8-78.7-1.1-118
			c-0.1-8.4-1-16.3-5.1-23.8c-65.7-118.1-202.1-176.2-333.3-119.4c-9.4,4.1-15.1,9.3-15.3,20c-1.1,63.2-2.4,126.3-3.5,189.4
			c-0.1,7.7-0.1,15.4,11.2,13.8c23.7-3.2,47.5-6.5,72.9-9.9c-59.3-83.4-59.5-136.5-2.8-180.4c48.5-37.6,114.9-29.3,154.5,19.1
			C2459.2,1002.1,2445.9,1067.3,2381.8,1121.8z M523.2,2231.8c10.8,4.2,15.2-4.4,20.2-12.2c31.1-48,51.7-100.2,64.8-155.8
			c3.7-15.5-2.2-20.4-16.5-24.2c-31.7-8.4-62.7-19.4-91.9-34.9c-46.3-24.5-51.4-23.5-89.6,14.9c-11,11.1-20.4,23.3-27.5,37.3
			c-24.2,47.5-14.4,93.9,27.1,127.2C442.8,2210.4,481.9,2222.2,523.2,2231.8z M2316.4,1592.4c-45.9-4.3-87.4,2.5-127.9,18.3
			c-10,3.9-18.2,7.3-17.4,20.6c4.1,68.4-8,136.4-5.8,204.9c0.5,15.1,4.5,21.7,20.1,21.3c92.9-2.1,184.2-13.2,271.2-47.9
			c32.9-13.1,56.1-36.8,68.2-70.9c2.9-8.1,5.7-15.8,0.6-23.5c-36.6-53.9-85.7-90.5-152.3-111c58.7,67.4,68.5,113.2,36.9,161.1
			c-28.5,43.2-80.9,61-130.1,44.3c-44.9-15.2-76.2-61.1-73.7-108.1C2209.3,1644.1,2245.6,1607.4,2316.4,1592.4z M1590.5,1872.4
			c27.1,0,48.7-1,70.2,0.3c18.5,1.1,26.1-4.8,26.4-24.4c0.9-56.7,2.4-113.5,6.1-170.1c1.5-23.1-6.2-32.9-28.2-37
			c-129.8-23.9-242.9,7.2-337.9,100.1c-5.1,5-11.3,9.4-13.1,17.2c-6.9,30.1,29,90.9,59.9,99c47.2,12.2,95.4,6.5,147.9,9.3
			c-66.4-48-84.3-87.8-67.1-142.2c14.6-46.4,51.9-74.2,100.2-74.6c52.6-0.5,92.8,26,108.5,71.4
			C1682.9,1777.5,1664.8,1817,1590.5,1872.4z M1434.7,2649.1c-1.1,0-2.2,0-3.3,0c0,22.9,0.4,45.8-0.2,68.6
			c-0.3,11.1,1.8,17.6,14.9,15.9c64.6-8,128.3-19.8,190.4-39.9c14.5-4.7,12.5-11.4,7.1-22.2c-25.6-51.6-51-103.2-75.4-155.4
			c-6.8-14.6-12.9-13.5-24.2-5.5c-28.4,20.2-59.5,35.9-92.8,46.1c-13.2,4-17.2,10.8-16.8,23.6
			C1435.2,2603.3,1434.7,2626.2,1434.7,2649.1z M587,2238.1c9.8,0,14.4,0.4,18.9-0.1c11.8-1.3,23.7-2.2,35.3-4.5
			c91.4-17.9,156-68,185.7-158.1c2.9-8.9,15.2-27.4-12-23.6c-48.8,6.8-97.7,12.1-146.7,1.1c-7-1.6-12.4,1.4-13.8,9.4
			C643.7,2124,619.8,2180.8,587,2238.1z M1302.8,979.9c7.3,0.7,9.5-3.9,12.3-7c103.3-113.3,228.3-152.3,376.9-109.3
			c15.1,4.4,22.1-1.5,20.4-15c-1.8-13.8,17.5-37.4-14.5-39.5c-129.9-8.5-254.8,12.5-374.6,63.6c-8.5,3.6-16,6.8-17,18.5
			C1303.7,920.7,1301.6,950.3,1302.8,979.9z M2201.8,2713.1c19.4,5.9,34.5-1,48.6-11.8c25.9-19.8,38-48.7,50.1-77.2
			c10.7-25.2,19.3-51.3,34.2-74.4c8.6-13.3,15.4-35.4,31.6-33.7c18.4,1.9,32,19.9,40.6,37.8c3.1,6.5,4.6,13.7,6.6,20.7
			c8.1,27.9,3.6,56.3,4.1,84.6c0.4,25.5,9.5,45.4,37.2,53c-7.9-58.6-2.9-116.1-3.7-173.5c-0.4-25.8-2.7-51.2-11.6-75.5
			c-13-35.8-43.2-44.6-74.3-22.7c-30,21.1-42.2,53-48.5,86.3C2302.1,2603.1,2271.4,2668.9,2201.8,2713.1z M1294.7,1337.6
			c9.4-8.7,12.9-11.5,15.9-14.7c104-110.6,230.2-153.9,380-125.6c12.1,2.3,17.8,2.3,19.3-12.8c2.1-20.7-3.1-29-25.4-29.9
			c-127.1-5.2-249.3,15-366.5,65c-9.9,4.2-17.3,8.9-17.8,21.2C1299,1270.7,1296.9,1300.4,1294.7,1337.6z M1620.6,1555.7
			c-97,2.4-190.6,21.6-281.6,54.9c-48.6,17.8-47.3,17.6-37.6,68.5c4.6,24.4,10.2,23.6,27.5,9.3c96.9-79.8,207.8-107.9,331.3-86.3
			c34.9,6.1,34.1,6.6,32.8-28.4c-0.5-13-5-18.3-17.6-18.1C1657.2,1555.9,1638.9,1555.7,1620.6,1555.7z M2317.7,1777.5
			c39.5-0.4,71.6-32.1,72.1-71.1c0.5-40.2-32.1-72-73.7-71.8c-40.1,0.2-71.6,31.2-71.9,70.6
			C2244,1745.5,2276.9,1777.9,2317.7,1777.5z M1631.9,1758.8c0.3-39.8-33.7-73.7-73.3-73.1c-39,0.6-70.6,32.7-71.1,72.3
			c-0.4,41.2,31.1,72.5,72.9,72.2C1600,1829.9,1631.6,1798.3,1631.9,1758.8z M2333.1,947.6c-39.4-1.1-72.6,29.9-73.9,68.9
			c-1.4,41.4,29.2,74.3,70.1,75.2c40.5,0.9,72.3-28.7,73.9-68.5C2404.7,982.4,2373.4,948.7,2333.1,947.6z M1631.9,1000.1
			c0.5-39.1-31-71.7-70.3-72.8c-41.1-1.1-73.8,30.4-74,71.3c-0.3,40.3,29.6,71.3,69.8,72.4
			C1598.2,1072.1,1631.4,1040.6,1631.9,1000.1z M1534.1,1481.1c41.9,0.4,71.1-27.9,71.4-69.2c0.4-41.6-30.7-73.9-71-74
			c-39.2,0-71.3,31.3-72.3,70.7C1461.1,1449.9,1491.6,1480.7,1534.1,1481.1z M1558.4,595.5c-40.4,0.3-70.6,30.7-70.9,71.2
			c-0.2,41.8,30.7,72.3,72.7,71.8c39.8-0.5,71.8-32.1,71.8-70.9C1632,627.5,1599,595.2,1558.4,595.5z M2315.8,1460.2
			c39.9,0.6,73.9-32.7,74-72.4c0.1-38.4-32.5-71.1-71.8-72c-40.1-0.9-73.6,32.1-73.7,72.5C2244.1,1427,2276.6,1459.6,2315.8,1460.2z
			 M1290.8,2738.1c10.7,2.4,15.7-4.4,16.2-18.4c1.2-31,1.6-61.9,5.5-92.9c6.8-53.8,5.6-53.8-49.9-57.6c-8-0.6-14-0.3-17.4,8.5
			c-17.3,45.1-34.7,90.2-52.5,135.1c-5.3,13.4,1.6,15.3,12.4,16.3C1232.4,2731.6,1259.6,2734.7,1290.8,2738.1z M2521,1649
			c2.4-13.6,3.5-23.5,5.9-33.2c5.4-22.1-0.6-35.3-24.3-42.6c-29.6-9.1-58.6-20.2-88.6-28.1c-70.5-18.5-142.1-23.9-214.6-20.3
			c-9.1,0.5-19.6-0.3-22.5,11.1c-2.9,11.3-8.3,24.7-0.4,34.3c6.5,7.9,16.8-1.3,25-3.5c42.8-11.2,85.6-17.3,130-11.5
			C2404.1,1564.4,2464.3,1598.4,2521,1649z M2526.9,1288.5c3.2-1.8,6.4-3.6,9.6-5.4c-6.5-22.1,13.8-50.4-14.5-66.9
			c-96-56-199.4-74.4-309.5-58.3c-19.5,2.9-22.7,14.8-19.5,28.7c3.9,16.6,16.4,4.7,23.8,2.8c115.8-29.3,215.4-0.8,299.6,83
			C2521,1276.9,2523.5,1283.1,2526.9,1288.5z M2200.6,858.4c123-41.8,229.8-12.6,322.9,78.3c7-65.2,7-65.1-48.1-84.4
			c-78.4-27.6-159.1-39.4-242.2-37.1C2196.4,816.3,2193.8,818.9,2200.6,858.4z M1008.3,2066.7c20.2-23.9,37.9-47.4,61.6-63.7
			c19.9-13.6,19.5-22.9,4.6-41.6c-16.2-20.4-27.1-28-46.2-5.1c-6.2,7.4-15.7,12.3-24.3,17.3c-8.6,5-10.2,11.9-8.7,20.7
			C999.5,2017.2,1003.6,2040.1,1008.3,2066.7z M1385,2656.5c1.4,0,2.8,0,4.3,0c0-21.9,0.1-43.7,0-65.6c0-8,1.9-17.1-11.4-16.8
			c-10.6,0.3-13.8,5.7-14.8,15.3c-4.5,43.5-11,86.8-11.1,130.7c0,10.7-0.4,19.4,15.2,19.1c15-0.2,18.5-6.4,18-19.9
			C1384.4,2698.4,1385,2677.4,1385,2656.5z M2001.4,2151.2c-27.3-3.5-49.5-6.9-71.8-8.9c-10.4-0.9-20.6,1.9-21.2,15.6
			c-1.2,29.4-3,58.9,1.6,94.3C1936.6,2212,1966.1,2182.5,2001.4,2151.2z"/>
		<path class="st0" d="M846,869.4c-3.3,43-10.8,86-41.3,121.2c-39.2,45.1-96.5,45.5-136.1,1.1c-55-61.8-55.1-188.4-0.1-250.2
			c42.3-47.6,108.4-42.4,145,11.9C836.8,787.9,844.4,827.2,846,869.4z M798.8,865c-0.9-29.5-5.3-62.8-27.7-90.8
			c-20.8-26.1-48.2-26.1-69.4-0.6c-36.2,43.7-37.3,138.4-2.1,183.4c23.4,30,51.5,29.5,74.3-1.7C792.5,930,797.6,900.4,798.8,865z"/>
		<path class="st0" d="M742,1307c-62-1.9-109.3-48.2-107-104.8c2.3-56.5,52.9-100,114-98c61.3,2.1,110,49.6,107.5,105
			C853.9,1265.4,803,1308.8,742,1307z M746.4,1260.7c35.6-0.3,63.4-24.2,63.6-54.7c0.2-31.5-28.3-55.6-65.6-55.3
			c-36.2,0.3-62.9,23.4-63,54.6C681.1,1237.5,708.8,1261,746.4,1260.7z"/>
		<path class="st0" d="M852.1,1443c-0.4,45.3-41.2,81.9-90,80.9c-49.4-1-87.9-38.4-86.7-84.2c1.1-43.9,41.3-80.1,88.6-79.9
			C812.7,1360,852.6,1397.7,852.1,1443z M765.1,1477.4c21.3-0.6,41.7-17.8,41.7-35.3c0-18.4-22.2-36-44.4-35.3
			c-21.4,0.6-41.7,17.8-41.7,35.3C720.7,1460.5,742.7,1478,765.1,1477.4z"/>
		<path class="st0" d="M2371.9,733.4c-62.2,0.3-110.6-46.6-110.7-107.4c-0.1-60.5,50-111.3,109.4-110.7
			c63.7,0.6,112.4,48.9,111.8,110.9C2481.6,688.8,2436.1,733,2371.9,733.4z M2370.7,696.5c40.9,0.5,74.1-31.4,74.1-71.1
			c0-39.6-31.1-70.6-71.4-71c-42.4-0.4-73.9,29.8-73.8,71C2299.7,664.8,2330.9,696,2370.7,696.5z"/>
	</g>
</g>
</svg>
