<?xml version="1.0" encoding="utf-8"?>
<!-- Generator: Adobe Illustrator 23.0.0, SVG Export Plug-In . SVG Version: 6.00 Build 0)  -->
<svg version="1.0" xmlns="http://www.w3.org/2000/svg" xmlns:xlink="http://www.w3.org/1999/xlink" x="0px" y="0px"
	 viewBox="0 0 3000 3000" style="enable-background:new 0 0 3000 3000;" xml:space="preserve">
<style type="text/css">
	.st0{fill:none;stroke:#000000;stroke-miterlimit:10;}
	.st1{stroke:#000000;stroke-width:10;stroke-miterlimit:10;}
</style>
<g id="Layer_1">
</g>
<g id="Layer_2">
	<path class="st0" d="M1257.6,1538.8"/>
	<g>
		<path class="st1" d="M1990.8,2580.4c-28.9,37-59,70-92.2,100.1c-95,85.8-205,131.2-334.4,129.8c-226.2-2.5-452.3,11.7-678.5,6.8
			c-146.4-3.1-292.7-8.9-439.3-4.1c-131.9,4.4-235.6-82.8-276.9-223c-48.6-165.3-1.6-304.4,118.6-422.6c5.8-5.7,12-11.1,20.3-18.9
			c-41.8-17.6-76-42.9-104.1-76c-42.8-50.2-61.5-110.4-65.9-174.3c-5.2-75.8-8.8-152-0.5-227.7c8.4-76.7,44.3-140.5,99.5-193.8
			c5.9-5.7,11.8-11.4,17.6-17.2c0.5-0.5,0.1-1.8,0.1-2.7c-78-22.4-99.6-42.1-99.4-123.5c0.3-108.4-3.3-218.4,38-322.3
			c5.3-13.3-2.1-20.8-7.1-29.9c-63.5-114.8-88.5-235.4-56.2-365c49.6-199.1,245.9-349.5,452.5-350.4
			c110.4-0.5,202.9,39.4,283.8,110.7c14.7,12.9,21.8,14.4,36.6-0.7c63.9-65.3,145.3-92.6,233.9-102.6
			c147.4-16.5,295.3-28.2,443.7-21.8c92.3,4,184.6,11.4,275.9,26.5c83.1,13.7,141.2,61,177,136.6c3.5,7.4,6.9,14.8,10.6,22.7
			c9.7-2.8,11-11.7,14.7-18.1c27-46.4,61.1-86.9,102.3-121.1c48.5-40.4,103.1-64.5,167.9-64.9c103.1-0.6,206.3-0.1,309.4,0.1
			c138.3,0.3,277.3,152,280.9,275.9c2.4,79.8,0.3,159.2-2.5,238.8c-2.3,65.9-39.4,110.1-94.9,140.9c-45.7,25.3-96,36.8-146.9,48.9
			c27.9,7.2,55.9,14,83.6,21.8c31.1,8.7,59.4,23.2,85.7,42.1c52.4,37.5,77.8,88.5,78.6,152.3c0.9,74.3-7.5,148.1-11.9,222.1
			c-8.8,148.3-5.1,296.4-1,444.8c4.4,159.1,13.4,318.9-10.1,477.2c-13.9,93.8-29.4,188.3-71.3,275.1c-46,95.3-122,149-227.9,156.7
			c-124.3,9-248.8,11.1-373.2,0.3c-40.4-3.5-79.8-12.9-116.7-29.1C2056.8,2677.1,2012.9,2641.3,1990.8,2580.4z M2268.6,1495.2
			c3.1,154,10,307.7,17.8,461.3c4.1,80,0.8,161.2,31.6,238.1c36.6,91.4,98.2,151.7,199.1,162.4c106.5,11.3,212,2.9,316.1-22.7
			c12.9-3.2,16.9-9.8,19.2-22.3c13.3-74.3,13.9-149.4,15.5-224.4c3.9-178.7-10-357-9.7-535.6c0-12.1-4.6-20.4-12.8-28.7
			c-72-72.7-191.9-78.1-269.6-11.4c-14.2,12.2-24.5,26.6-27.3,46.1c-4.9,33.1,5.2,44.4,38.5,40.9c43.3-4.5,77.2-26.3,105.9-57.8
			c12.6-13.9,27.3-27.5,47.5-19.3c22.1,9,24,29.8,23.9,51c-0.7,102.8-87.6,187.1-194.3,188.1c-131.4,1.3-184.4-49.5-185.7-178
			c0-3.7,0-7.3,0-11c0.3-111,44.8-171.8,150-205.5c102.8-32.9,207-33.8,312.1-14.6c12.8,2.3,20.5,3.5,21.3-13.4
			c2.9-56.7,7.7-113.3,10.5-170c3.4-68.9-28.8-117.2-89.3-147.8c-34.6-17.5-71.7-26.8-109.8-33.4c-33.3-5.9-67.5-6.4-100.1-16.4
			c-15.3-4.7-26.4-13.7-26.5-30.8c-0.1-15.4,8.4-25,22.9-30.7c12-4.8,24.2-7.9,36.8-10.4c60.8-12.1,123.1-18.2,180-46.1
			c51.5-25.2,80.5-64.2,80.7-123c0.3-68.7,0-137.5,1.9-206c2.9-100.8-111.2-249.4-249.1-245.9c-97.9,2.5-196,0.3-294,0.4
			c-37.4,0-72,9.6-104.3,29.1c-71.9,43.4-117.4,108.5-153.6,181.9c-7.3,14.8-9,28.5-5.8,44.8c15.6,79.2,23.4,159.1,25.4,239.9
			c5,203.2,1.5,406.7,14.8,609.7c2.2,33-1.8,65.9-9.7,98c-8.3,33.8-27.3,61.1-60.5,73.1c-17.9,6.4-23,15.2-24.1,32.6
			c-9.5,153.1-14.7,306.4-8.7,459.8c6.4,163.7,11.7,327.5,26.1,490.9c4.1,46.9,27.9,77.9,64.3,102.6c46.4,31.5,100,39.4,153.8,44.6
			c114.3,11,228.8,6.8,343.1-0.6c89.5-5.8,154.8-49,194.7-130.8c24-49.2,35.1-101.8,47.1-154.4c5-21.6-8.2-17.1-20.2-14.3
			c-92.7,21.7-186.9,24.8-281.3,19.6c-106.1-5.8-185.5-56.2-237.1-149.5c-30.7-55.5-45.9-115.5-49.3-178.4
			c-5.5-101.5-9.3-203.1-14.8-304.6c-14.2-262.7-1.7-525.5-1.1-788.2c0-9.2,0.5-18.3,0.6-27.5c1.3-68.1,18.5-131.1,53-190.7
			c68.6-118.7,198.8-174,328.3-136.5c11.9,3.5,24.7,4.7,16.2,22.6c-5.9,12.5-4.4,32-29.2,21.8c-20.3-8.3-42.7-9.8-64.8-10.2
			c-160.2-3-249.5,147.1-253.8,254.4C2273.2,1110.6,2272.4,1302.9,2268.6,1495.2z M1570.2,1525.4c52.1,7.7,95-3.1,138.5-7.7
			c24.9-2.6,35.5-14.3,44.2-36.1c46.8-116.8,71.8-238,74.7-363.6c0.5-20.2,9.5-20.7,25-21.4c17.5-0.8,21.2,5.3,21,21.9
			c-0.6,51.4-6.5,102.2-14.5,152.8c-11.7,74.3-32.9,146-59.1,216.4c-2.3,6.1-10,13,0.7,18.3c14.5,7.2,51-5.1,59.2-20
			c54.5-99.5,85.8-205.8,89.2-319.3c0.7-24.2,13.4-20.1,27.8-21c16-1,19.5,4.9,18.9,20.5c-3.9,100.8-27.4,196.7-68.9,288.5
			c-7.1,15.7-23.3,35.7-18.6,46.5c6.4,14.9,31.3,6.1,48.1,8.8c9.9,1.6,19.8,4.1,29.7,4.7c44.3,2.4,58.9-8.6,69.6-51.9
			c6.7-27,6.5-54.5,5.5-81.9c-5.9-160.2-12-320.3-11.6-480.6c0.3-132.8-4.8-265.2-33.7-395.9c-24.1-109.2-79.3-170-185.5-184.6
			c-89.6-12.3-180.1-20.9-270.5-24.3c-148.5-5.6-296.4,7.8-443.6,27.2c-89.1,11.7-164.1,50.4-215.6,126.8
			c-69.4,102.9-155.3,188.6-256,261.4c-111.2,80.4-215.3,170.4-335.3,238.6c-48.3,27.5-79.1,70.7-89.4,125.9
			c-16.3,87.6-20.5,176.3-18.3,265.2c1.3,53.8,20.7,71.1,74.1,67.4c94.1-6.5,187-21.4,279.6-39.2c61.6-11.8,90.1-50.6,101-107.7
			c13.6-71.4-24.6-122-91.9-122c-21.5,0-42,4.7-60.8,14.7c-22.5,12-22.8-10.8-31.3-19.7c-7.6-8-3.4-14.2,5.7-18.8
			c54-26.9,108.6-33.3,162.7-2c50.2,29.1,64.7,76.2,63.1,131.1c-0.8,26.5-10.2,51.1-15.4,74.2c56.6,0,112.1,0.1,167.5,0
			c56.8-0.2,113.9-0.2,169.5,12.1c109.9,24.3,209.1,155.9,209.7,276.3c0.6,106.2-0.9,212.5,0.5,318.7
			c0.9,71.4-29.2,126.8-80.7,173.1c-6.3,5.6-16.3,8.4-17.2,18.8c106.2,0,211.7,0,322.2,0c-48.4-43.2-71.2-95.2-80.4-153.3
			c-9.2-58-10.8-116.7-11.7-175.2c-1.1-76.3,35.3-132.9,97.8-173.6c20.6-13.4,43.3-23.7,64.8-35.8c6-3.3,15-3,16.6-12.9
			c-43.6-15.2-84.3-35.5-115.7-70.6c-39.6-44.4-34.2-90.5,15.4-122.9c28.3-18.5,58.9-33.4,87.1-51.9c58-38,86.1-92.2,86.5-161.9
			c0.4-65.1-3.2-130-6.8-194.9c-4.4-77.5-17.9-152.3-88.2-200.8c-55.3-38.1-116.9-58.8-184.5-62.4c-140.8-7.4-271.7,31-398.7,86
			c-21.2,9.2-27.1,3.6-36.1-14.1c-11.7-23.1,6.2-23.6,18.3-28.8c65.6-28.4,132.7-53.4,202.4-68.5c110.9-24,222.5-36.2,333.2,3.1
			c102.2,36.2,173.5,100.9,191.2,212.4c6.1,38.8,9,78.3,10.8,117.5c2.5,53.9,5.8,107.8,3.8,161.9c-3.3,87.1-44.6,151-117.3,196
			c-26.4,16.3-53.9,30.9-80.4,47.1c-19.8,12.1-20.5,27.9-7.1,46.3c30,41.1,54.8,46.3,95.3,19.2c5.3-3.6,10.8-7,15.9-10.8
			c82.5-61.1,142.3-137.5,156.7-242c14.3-103.4,20.3-207.7,23.2-312.1c2.7-98.3-39.7-176.9-109.1-242.7
			c-67.3-63.7-151.5-83-240.2-85c-145.8-3.3-282.1,36.8-413.1,97.1c-20.6,9.5-25.9,1.2-34.2-14.7c-9.3-17.8,0.5-22,13.3-27.2
			c16.9-6.9,33.4-14.9,50.4-21.7c146.4-58,296.3-94.5,455.5-73.1c181.3,24.4,316.2,168.6,321.9,350.9
			c3.4,109.8-8.3,219.3-21.5,328.5c-10.6,87.2-50.1,159.6-110.2,222.1C1638.2,1476.6,1608.4,1500.5,1570.2,1525.4z M1031,1775
			c0-21.3,0.8-41.3-0.1-61.2c-4.8-99.1-75.4-167.5-175.1-171.6c-17.4-0.7-23.2,4.9-27,21.2c-14.8,62.7-51.5,108.7-111.2,133.9
			c-16.7,7.1-20.9,16.1-20.8,32.7c0.3,57.7-1.5,115.4-1.3,173c0.1,18.6-7.4,23-24.7,23c-18.2,0-23.4-6.1-22.7-24
			c2.2-55.8,2.2-111.7,4.2-167.5c0.6-16.4-3.6-21.5-20.8-22.5c-52.6-3.1-97.9-25-131-65.9c-15.3-18.9-24.6-14.7-39-2.2
			c-54.2,47.5-69.5,108.3-57.9,176.4c4.6,27.3-14.5,20.7-27,26c-18.5,7.9-16.9-7-18.8-16.3c-20.4-101.7,22.6-195,112.7-247.1
			c129-74.6,267.7-101,415.1-83.6c107,12.6,188.8,103.4,190.2,210.9c0.7,52.2-0.4,104.4,0.2,156.6c0.7,59.3-17.1,109.1-66.6,146
			c-35.8,26.6-42.1,64-33.3,105.9c3,14.4,8,17.9,22.2,13.4c36.9-11.7,71.6-27.6,103.3-49.9c57.5-40.5,90.3-93.1,88.8-166.4
			c-2.2-101.6-1.1-203.3-1-305c0.1-42.4-11.4-81.5-33.4-117.2c-40.9-66.4-92.1-117.8-176.2-123.9c-105.3-7.7-210.4-5.1-315.6,1.4
			c-6.4,0.4-12.4,1.6-17.8,6c-36.5,29.3-80.4,37.9-124.9,44.9c-53.2,8.5-109.8,8.4-158.9,27.4c-95,36.8-158.3,109.1-176.1,211.6
			c-14.7,84.3-8.7,170,0.2,254.7c5.8,54.9,25.9,105.3,68,143.4c62.7,56.8,139.2,82,221.6,81.5c146.4-0.9,292.8-11.4,439.3-2.1
			c5.7,0.4,15.7,3.7,15.5-5.3c-0.2-10.9,2.1-24.4-10.2-31.7c-3.8-2.3-8.7-2.7-13.1-4.1c-76.7-24.5-125.1-87.7-124.3-162.3
			c0.7-71.8,53.7-139,127.1-161.6C950.5,1761.4,990.1,1765.6,1031,1775z M1521.3,2577.2c-83.6,18.7-159.3,43.1-236.6,50.7
			c-76.4,7.6-106.3,47.5-118.9,115c-3.9,20.7-2.6,26.2,19.9,25.7c120.9-2.6,241.8-3.6,362.7-5.1c46.7-0.6,94,0,139-13.5
			c127.2-38.3,217-124.9,290.8-231.1c4.6-6.6,4.3-13.6,3.9-21c-5.5-101.5-11.9-202.9-15.8-304.4c-1-24.9-9.7-29.8-32.7-29.5
			c-95.3,1.3-190.6,1.9-285.8-0.2c-33.4-0.7-59.9,9.3-86,28.1c-13.1,9.5-12.9,16.4-5.2,28.5c27.7,44.1,55.1,88.5,81.8,133.3
			c10.8,18.2,25.4,34.7,31.2,58.5c-12.3-1.1-22.3-1.5-32.2-2.9c-76.1-10.4-152.8-17.8-227.9-33c-38-7.7-56.7,5.4-76.7,32.9
			c-12.6,17.3-10.3,24.1,6,35.5C1398.3,2486.8,1456.9,2530.3,1521.3,2577.2z M1115.8,2164.3c-30.6,1.9-57.9-4.2-84.3,5.4
			c-42.2,15.3-85.7,17.7-129.9,15c-106.1-6.5-212.1-6.4-318.3-0.2c-62.9,3.7-126.9,10.3-188.4-7.9c-29.4-8.7-47.7-2.7-69.5,17.5
			c-139,129.1-169.6,311.9-75.7,462.6c46.3,74.4,112.6,113.8,200.8,111.1c91.5-2.8,182.9-8.5,274.4-2.2c14.1,1,17-6,18.8-17.2
			c4.1-25.3,7.7-50.7,13.6-75.5c3.7-15.5,0.1-22.8-14.8-28.8c-44-17.8-87.4-37.3-131-56.1c-52.3-22.6-104.6-45.1-156.9-67.7
			c90.4-12.2,179.4-22.6,268.6-26.2c64.2-2.6,120.9-9.9,143.5-81.8c0.3-0.8,0.8-1.7,1.4-2.3c11.2-12,5.9-17.4-7.4-22.4
			c-25.6-9.6-50.7-20.7-76-31.1c-58.8-24.2-117.6-48.4-182.7-75.1c10.1-2,13.3-2.7,16.5-3.2c121.1-18.2,241.9-37.8,363.3-53.9
			C1031.9,2217.8,1076.9,2204.8,1115.8,2164.3z M226.4,958.2c12.4-10.8,22.5-21.8,34.5-29.8c47.1-31.3,96.4-59.5,142-92.8
			c87.2-63.7,172.1-130.4,258.5-195.1c73.3-55,134.5-121,186.5-196.2c6.2-9,10.6-15.3-0.2-25.1c-90-81.4-193.8-124.3-315.8-105.4
			C220.9,361.9,67.8,685.3,226.4,958.2z M1956.6,1825c1.9,0,3.9,0,5.8,0c0-45.7-1.4-91.6,0.7-137.2c0.9-19.2-4.9-29.9-20.5-39.9
			c-140.3-90.3-329.6-85-464.2,14.7c-36.8,27.2-62.1,62.6-63.1,110.4c-1.3,63.1,0.2,126.2,10.8,188.7c4.6,27.2,13.3,53,26.9,77.2
			c22.2,39.4,55.6,56.3,100.9,59.5c93.5,6.7,186.3,3.9,279.4-5.9c65-6.8,125-73,123.4-138.4C1955.7,1911.1,1956.6,1868,1956.6,1825z
			 M1510.6,2164.7c-94,0-188-0.3-282,0.4c-9.5,0.1-19.5,4.8-28.3,9.2c-166.9,83-281.9,215.1-358.2,382.6
			c-27.3,60.1-43.1,124.1-52.1,189.7c-1.8,13.2-2,21.1,16.4,22.1c90.6,4.9,181.1,5.2,271.7,3.9c24.8-0.3,35.7-7.1,42.6-32.9
			c44-164.7,125.2-309.4,240.9-434.7C1407.6,2255.2,1458.5,2211,1510.6,2164.7z M2862.4,1475.3c0-26.9,0.2-45.9-0.1-64.9
			c-0.1-4.6,2.3-9.9-6.7-11.4c-119-20.9-236.5-22.7-349.6,28c-38.5,17.3-61.2,48.8-70.3,89.4c-9.3,41.7-6.7,83.8,1,125.4
			c7.1,38.6,30.8,60.2,69.7,67.1c27.3,4.9,54.6,6.5,81.9,4.1c70-6.2,127.4-67.7,125.1-126.6c-36.2,34.9-78.6,54.3-127.2,59.6
			c-54.8,5.9-92.4-32.6-85.1-87c4.5-33.1,20.3-60.5,45.4-82.2c43.2-37.4,94.4-54.4,150.9-57
			C2756.4,1416.9,2808.1,1437.1,2862.4,1475.3z M528.6,1605.2c29.4,45.9,85.2,69.2,140.4,59.1c55.6-10.2,103.3-54.5,114.7-105.1
			c3.8-16.7-3.8-17.9-17.1-17.6C682.1,1543.2,603.5,1566.9,528.6,1605.2z M932.1,2046.4c-5.9-4.2-12.7-7.5-17.7-12.7
			c-62.3-65-43.4-152.3,40.1-186.2c18.9-7.7,38.7-10.2,58.9-11.2c5.9-0.3,14.6,3.2,16.4-5.2c2.4-11.7-9.6-9-15.1-10.9
			c-63.5-22.3-128.5-0.8-166.5,54.5C801.5,1942.7,846.5,2042.9,932.1,2046.4z M1411.4,2554.4c-40.4-29.2-75.5-54.6-110.4-80.1
			c-5.5-4-10-4.2-13.7,1.6c-23.4,37.2-46.2,74.7-65.7,120.3C1286.6,2582,1345.6,2568.9,1411.4,2554.4z M1585,2355.3
			c-24.7-40.7-46.5-76.3-67.9-112.1c-5.6-9.4-10.6-10.2-19.2-3.1c-32.2,26.8-63.3,54.6-96.5,89.2
			C1463.8,2338.1,1521,2346.2,1585,2355.3z M1008.3,1883.3c-37.8,0-72.8,22.3-82.7,51.3c-6.6,19,3,55.5,19.8,64.3
			c18.9,9.9,19.6-16.1,32.5-20.2c4-1.2,7-5.7,10.5-8.7c19.8-17,35.6-36,38.6-63.8C1028.9,1888.8,1025.8,1879.4,1008.3,1883.3z
			 M981.3,2270.5c-71.4,10.6-136,20.1-200.6,29.7c38,20.6,76.8,36,115.1,52.4c9,3.8,13.3,0.6,18.6-5.4
			C934.6,2323.7,955.1,2300.5,981.3,2270.5z M645.2,2546.1c-0.3,1.9-0.5,3.8-0.8,5.7c39.8,17.3,79.7,34.5,119.4,52
			c7.9,3.5,12,0.6,14.5-6.6c7.2-20.8,14.3-41.7,22.1-64.6C746.3,2537.4,695.8,2541.8,645.2,2546.1z M1856.2,1553.5
			c0,1.2,0,2.5,0,3.7c18.4,7.4,37,14.3,55.1,22.4c17.9,8,35.3,17.2,53.5,26.1c7.1-51.1,7-51.5-41.1-52.2
			C1901.2,1553.2,1878.7,1553.5,1856.2,1553.5z M1908.5,2116.9c55.9,6.4,57.9,4.6,48.5-40.7
			C1941.5,2089.3,1926.3,2102,1908.5,2116.9z"/>
		<path class="st1" d="M946.4,830.9c71,0.7,134.7,24,195.8,59.6c20.2,11.8,35.2,19.5,23.1,45.4c-2.7,5.7-4.9,9.1-11.5,8.7
			c-31.9-1.5-57.8,15.2-84.7,28.6c-12.3,6.1-24.3,12.7-36.7,18.6c-80.3,38.2-150.3,20.8-203.4-50.5c-6.3-8.4-7.8-20.2-25.9-12.2
			c-12.7,5.6-19.4-15.3-27.7-24.9c-7.2-8.4,4.3-12,9.2-16.2C829.3,850.2,883.9,831.4,946.4,830.9z M1086.6,912
			c-41.9-19.1-80.5-32.1-121.8-35.6c-32.4-2.8-63.8,1.6-94.1,13.5c-9.3,3.7-16.9,7-8.2,19c31.5,43.5,75.7,74.7,136.6,47.4
			C1027.3,943.7,1054.3,928.4,1086.6,912z"/>
		<path class="st1" d="M274.4,790.2c-24.2-2.1-33.7-20.8-21.3-41.3c50.1-82.2,120.2-136.8,215.8-155.7
			c74.3-14.7,140.7-46.1,197.8-95.5c18.4-15.9,23.3-2.5,33.9,7.3c15.1,14,5.5,20.4-5.3,29.3c-60.3,49.8-127.9,86.1-204.8,100.6
			c-89.7,17-155.5,64.7-201.2,142.5C286.1,783.1,284.8,792.3,274.4,790.2z"/>
		<path class="st1" d="M1796.1,1805.4c0,56.3-46.3,103.1-102.7,104c-56.8,0.9-105.6-47.6-105.2-104.5
			c0.3-56.3,46.8-102.8,103.1-103.2C1749.3,1701.3,1796.1,1747.7,1796.1,1805.4z M1693.6,1862.6c31.8-0.6,57.4-26.7,56.9-57.9
			c-0.5-31-27.1-57.4-57.9-57.7c-32.1-0.3-58.7,27.3-57.7,60C1635.8,1839.1,1661.4,1863.2,1693.6,1862.6z"/>
	</g>
</g>
</svg>
