<?xml version="1.0" encoding="utf-8"?>
<!-- Generator: Adobe Illustrator 23.0.0, SVG Export Plug-In . SVG Version: 6.00 Build 0)  -->
<svg version="1.0" xmlns="http://www.w3.org/2000/svg" xmlns:xlink="http://www.w3.org/1999/xlink" x="0px" y="0px"
	 viewBox="0 0 3000 3000" style="enable-background:new 0 0 3000 3000;" xml:space="preserve">
<style type="text/css">
	.st0{stroke:#000000;stroke-width:10;stroke-miterlimit:10;}
</style>
<g id="Layer_1">
</g>
<g id="Layer_2">
	<g>
		<path class="st0" d="M401.6,1171c-137.4-28.8-214.7-111.3-242.5-242.5c-4.1-19.5-4.2-39.3-1.4-58.8c9-62,53.7-92,114.4-76.6
			c16.4,4.2,32.5,10.8,47.8,18.4c144.6,71.7,296.2,82.6,453.2,55.9c100.3-17.1,200.6-37.2,303.5-23.6c35,4.6,69.3,11.4,101.7,25.5
			c11.1,4.8,17.5,3.4,26.1-5.4c110.7-114.1,245.4-170.2,404.8-169.6c257.9,1,515.8,0,773.8,0.4c268.3,0.4,488.2,183,538.2,446.4
			c8.7,45.7,8.7,92.1,7.7,138.3c-1.6,76.1,5.9,152.5-8.6,228.2c-25.5,133.4-92.3,241.8-197.6,326.9c-3.9,3.2-7.7,6.5-13.8,11.7
			c33.3,14.2,64.7,27.9,91.2,49.9c77.5,64.2,114,146.4,104,246.8c-6.5,65.4-44,109.7-103.4,136.3c-57.7,25.9-119.2,36.4-180.9,46.2
			c-166.4,26.4-334.1,29.6-502.1,29.3c-171.4-0.2-342.8,3.2-514.1,0.7c-108.4-1.6-217.2-2.5-324.8-19.4
			c-65.9-10.3-125.4-34.9-171.2-85.4c-10.8-11.9-21.2-13.2-36.1-10.3c-190.4,37.8-382.1,59.3-576.7,49
			c-135.5-7.2-257.9-50.1-366.8-130.8c-29.1-21.6-58.9-44.9-53.8-87.1c5.2-42.2,40.1-57,73.4-70.6c55.3-22.7,111.6-43.2,167.1-65.4
			c40.2-16.1,78-36.2,98.6-77.4c12.2-24.4,15.1-49.3-1.6-73c-20.5-29.3-54.5-31.4-78.6-4.9c-9.2,10.1-17.2,21.3-25.6,32.1
			c-10.6,13.6-22.4,25.9-37.3,34.9c-42.5,25.6-85.7,8-97.6-39.8c-9.4-37.8-6.7-76.7-9.5-115c-7.4-102.1-5.2-203.7,24.1-303
			c29.6-100.4,92.5-170,190.1-208C383.7,1178.5,389.9,1175.8,401.6,1171z M1260.2,1834.2c-8.3-7.7-13.7-12.9-19.4-17.9
			c-95-84.2-154.6-188.7-177-313.7c-14.2-79-5.1-159-7.8-238.5c-4.4-128.6,29.2-245.5,105.7-349.4c7.7-10.5,7.7-14.8-5.3-19.3
			c-31.8-10.9-64.3-17.5-97.6-20.6c-92.4-8.6-182.6,9.1-272.9,23.6c-101.3,16.3-202.3,22.9-303.9,2.5
			c-70.2-14.1-135.3-41.7-200.4-70.1c-57.3-24.9-95.5,2.8-93,64.6c4.4,107.9,80.5,205.5,184.4,234.6c39.8,11.1,80.7,15,122.1,12.9
			c23.1-1.1,46.2-2.5,69.2-2.4c9.4,0,19,3.4,19.6,15.9c0.6,11.6-6.4,17.2-16.4,19.7c-5.7,1.4-11.8,1.8-17.7,2.4
			c-34.9,3.5-69.8,7.6-104,15.6C338.4,1219.2,259,1276.8,223,1385c-14.7,44.1-22.2,89.6-26.7,135.7c-8.7,90-1.1,179.7,7,269.2
			c3.5,38.7,28.2,46.9,58.9,22.4c16.2-12.9,26.9-30.9,39.7-46.9c26.1-32.5,59.2-44.3,92.5-33c37.3,12.7,61.8,47.9,60.9,88.9
			c-0.9,44.5-23.5,77.7-56.8,104.7c-28.4,22.9-61.8,36.3-95.3,49.4c-52.5,20.5-105.8,39.4-157.5,61.9c-49.9,21.7-52.7,48-12.2,83.8
			c1.3,1.1,2.5,2.3,3.9,3.4c96.1,73.5,203.8,118,324.7,128.5c169.2,14.7,337,0.5,503.9-27.3c34.7-5.8,70.1-8.7,104.1-20.8
			C977.3,2028.5,1055.8,1874.5,1260.2,1834.2z M1992.6,1918.3c132.8,0,265.6,0.9,398.5-0.2c245.3-2,454.7-179.3,497.3-420.2
			c16.1-91,9.8-183,7.8-274.5c-5.9-273.3-229.4-494.2-502.7-496.3c-267.3-2.1-534.7-1.7-802.1-0.1c-218.8,1.3-414,146.2-478.4,355.4
			c-41.2,133.8-36.2,272.9-15.8,407.8c38.5,254.9,251.5,427.8,509.8,428.1C1735.5,1918.4,1864,1918.3,1992.6,1918.3z M1902.7,1950.4
			c-11.9,0-20.2,0-28.5,0c-90.8,0-181.7-0.5-272.5,0.1c-100.1,0.7-193.1-24.3-279.3-74.8c-7.4-4.3-14.5-9.5-23.4-9.8
			c-101.3-3.6-209.8,68.9-232,154.7c-23.9,92.7,17.7,163.8,81.8,224.1c49.9,46.9,114.7,58.7,180.3,65c93,8.9,186.5,9.8,279.8,13.5
			c60.8,2.4,121.7,0.8,182.5,2.2c17.6,0.4,20.9-4.7,18.6-21.9c-3.2-24.5-3.3-49.5-2.5-74.3c0.5-16.2-3.6-20.9-20.7-23
			c-57.5-7.3-113.1-21.3-155.4-65.3c-38.5-40-29.1-79.5,22.9-98.5c60.5-22.1,122.9-29.4,187-25.8c7.9,0.4,17.5,4.9,23.5-4.7
			C1876.9,1992.5,1888.7,1973.1,1902.7,1950.4z M2273.4,2320c85.7,1.1,170.9-7,256-15.9c28.9-3,57.8-6.6,86.5-11.3
			c59-9.9,118.2-19.3,173.3-44.6c54.5-24.9,84.1-67.4,84-127c-0.3-117.8-64.4-207.4-185.9-247.8c-11-3.7-21.4-0.2-31.6,5.8
			c-39.9,23.7-82.8,40.6-127.4,53.3c-81.3,23.1-164.7,18.4-247.5,17c-24.9-0.4-36.8,8.8-46.2,29.6c-6.8,15-7.8,21.2,11.5,24.8
			c49.4,9.2,94.6,29.3,135.4,58.7c21.1,15.2,37.7,33.4,31.2,62.3c-5.4,23.9-29.1,41.7-59.5,45.4c-9.3,1.2-18.8,0.9-28.2,1.2
			c-45.4,1.3-90.7,2.3-136.1,3.8c-8.7,0.3-19.2-1.9-21.1,12.5c-5.1,38.2-8,76.5-7.6,115.1c0.1,13.3,5,17.7,18.2,17.3
			C2210,2319.4,2241.7,2320,2273.4,2320z M2207.4,1950.4c-77.9,0-156.5,0.8-235-0.6c-19.7-0.3-31.4,6.6-42.3,21.6
			c-73.4,100.8-101.8,212.8-86.9,336.5c1.9,16.1,9.8,17,22.1,16.8c78.7-1.6,157.4-3.5,236.2-3.9c19.3-0.1,25.4-4.6,25.5-25.2
			c0.5-113.6,24.8-222.1,75.5-324.3C2205.3,1965.4,2210.8,1960,2207.4,1950.4z M1794.1,2048c-36.3,1.3-80,8.2-122.4,23.1
			c-36.5,12.8-39.5,26.3-10.6,52.6c39.5,36,89.4,44.2,139.7,51.3c9.6,1.3,10.7-4,12.3-11.7c5.3-25,9.7-50.3,18.4-74.6
			C1846,2047.7,1845.6,2047.5,1794.1,2048z M2264.4,2141.3c29.8-2.9,59.7,1,89.4-5c12.5-2.5,23.8-7,26.7-20.3
			c2.5-11.7-7.2-18.6-15.3-24.6c-41.2-30.4-87.7-48.5-137.7-58.5c-12.7-2.5-18.9,2.5-22.4,14c-7.9,26.1-15.5,52.3-24.4,78
			c-5.5,15.9,2.3,16.9,14.6,16.6C2218.3,2140.9,2241.3,2141.3,2264.4,2141.3z"/>
		<path class="st0" d="M653.9,1557.8c3.1,52.9,8.5,121.2,10.9,189.6c3,82.4-3.7,163.6-58,231.5c-62.1,77.6-149.1,105-243.4,116.2
			c-13.8,1.6-15.1-6.7-16.5-16.9c-1.7-13.1,4.7-14.8,16-15.9c40.2-3.9,79.1-13.8,116.5-29.2c94.4-38.8,142.9-110.2,150.6-210.8
			c6.9-91-6.8-181.2-9.6-271.9c-2.6-82.1,4.4-163.1,45.1-236.7c45.5-82.4,112.4-132.7,210.7-130.1c69,1.8,135.8,56.1,149,120.6
			c1.8,8.8,11.4,22.7-7.5,26.7c-15.1,3.2-20.9-0.9-24.3-18.4c-14.3-71.9-97.2-113.9-174.9-89.7c-87.1,27.2-128.8,94.7-151.4,176.8
			C654.3,1446.1,651.7,1494.1,653.9,1557.8z"/>
		<path class="st0" d="M2059.3,1775.5c-112.2,0-224.4,0.2-336.6,0c-165.3-0.4-285.5-120.2-286-285c-0.3-81.4,2.1-162.8-0.5-244.1
			c-4-124,85.5-284.5,281.5-285.5c233.7-1.1,467.5-1.9,701.2,1.5c145.2,2.1,265.5,123.3,268,268.7c1.6,91.6,1.6,183.3,0,275
			c-2.6,146.5-123.4,267-270.4,269c-119,1.6-238.1,0.3-357.2,0.3C2059.3,1775.4,2059.3,1775.5,2059.3,1775.5z M1790.6,1743.5
			c28.3,0,56.6-0.8,84.8,0.3c14.6,0.6,23.3-4.3,31.1-16.8c37-59.8,78.7-116.3,125.4-168.9c163.3-183.8,352-325.1,604.4-358.5
			c13.8-1.8,14.2-6.9,11.3-18.3c-11.2-44.3-34-81.6-65-114.8c-13.7-14.7-28.2-19.2-47.8-15c-397.3,85.2-701.8,299.5-908.9,650.4
			c-11.4,19.4-5,23.2,11.9,28.9C1687.8,1747.5,1739.4,1742.6,1790.6,1743.5z M2059.7,1204.4c-116-70.3-227.8-138.1-339.5-205.9
			c-7-4.3-14.4-4.8-22.3-3.9c-94.4,10-162.7,57.6-206,142c-6.4,12.5-4.5,19.5,7.7,26.8c110.5,66.9,220.7,134.3,330.8,201.8
			c8.6,5.2,14.6,5.8,22.4-1.6C1915.1,1304.6,1983.4,1253.3,2059.7,1204.4z M1474.4,1186.4c-2.3,18.6-5.3,32.2-5.3,45.8
			c-0.4,90.8-2,181.6,0.3,272.3c1.9,78.1,36.8,141,98.3,189.4c12.4,9.8,19.7,11.3,28.9-4.9c19.7-34.9,40.8-69.2,63.3-102.4
			c46.1-68,99.3-130.4,158.5-190.1C1703.8,1326.4,1591,1257.5,1474.4,1186.4z M2477.2,1733.2c0.1,0,2.7-0.5,5.1-1.3
			c69.2-23.4,119.2-68.3,151.1-134c6.8-13.9-1.9-18-11.3-23.2c-110.5-61.4-221.1-122.8-331.2-184.8c-13.3-7.5-22.4-6.5-34.2,2.7
			c-45.8,36-89.9,73.8-131.9,114.2c-13.6,13.1-16.6,18.8,2.9,29.9c109.9,62.5,218.8,126.7,328.2,190.1
			C2461.7,1730.1,2467.2,1734.9,2477.2,1733.2z M1788.5,994.2c-3.4,7.9,3.4,9.1,7.1,11.4c94.2,57.3,188.6,114.2,282.4,172
			c11.9,7.3,20,4.2,30.2-1.8c66.6-39,137-70,209.2-97.1c63.6-23.9,129.3-40.2,199.5-57.4c-33.6-19.5-66.3-26.4-99.3-26.6
			C2207.9,993.7,1998.2,994.2,1788.5,994.2z M2304.1,1359.6c112.7,62.9,222.2,123.8,331.5,185.1c11.6,6.5,15,2.3,15.8-9
			c0.6-8.5,3.2-17,3.2-25.4c0.4-88.2,0.2-176.3,0.8-264.5c0.1-16-7.4-15.3-19.3-13.4c-71.2,11.2-140.5,29.3-206.5,58.5
			C2386.9,1309.8,2344.9,1330.1,2304.1,1359.6z M2407.4,1742.8c0.8-1.5,1.6-3,2.4-4.5c-2.1-1.3-4.2-2.6-6.3-3.8
			c-101.9-59.2-204-118.2-305.6-178c-13.6-8-19.5-1.9-27.4,7.1c-43.5,49.6-84.6,101-120.5,156.4c-4.4,6.7-12,12.4-9.8,22.9
			C2096.1,1742.8,2251.7,1742.8,2407.4,1742.8z"/>
	</g>
</g>
</svg>
