<?xml version="1.0" encoding="utf-8"?>
<!-- Generator: Adobe Illustrator 23.0.0, SVG Export Plug-In . SVG Version: 6.00 Build 0)  -->
<svg version="1.0" xmlns="http://www.w3.org/2000/svg" xmlns:xlink="http://www.w3.org/1999/xlink" x="0px" y="0px"
	 viewBox="0 0 3000 3000" style="enable-background:new 0 0 3000 3000;" xml:space="preserve">
<style type="text/css">
	.st0{stroke:#000000;stroke-width:10;stroke-miterlimit:10;}
</style>
<g id="Layer_1">
</g>
<g id="Layer_2">
	<g>
		<path class="st0" d="M1396.7,2806.3c-15.3,3-19.7,13.7-26.6,21.1c-132.1,143.5-352.5,161.7-505.5,41.7
			c-77.1-60.5-107.5-145.4-122.9-237.4c-13.6-81-14.2-163-13-244.8c0.9-61.3-14.7-119.8-21.5-179.8c-3.6-31.3-2.7-62.4,8.5-91
			c14.3-36.5,11.5-70.4-3.5-104.7c-16.8-38.4-15.8-76.2,2.1-113.7c8.9-18.5,8.8-37-0.1-55.3c-16.9-34.5-17.6-69-2.3-104.4
			c9-20.7,6.2-41.4-3.6-61.5c-20.8-42.8-22.8-85.1,1.2-127.9c11.3-20.2,5.1-41.5-4.2-60.5c-21.4-43.6-25.1-86.6-4-131.6
			c12-25.6,8.5-51.7-5.2-76.6c-27.2-49.6-27.7-99.1,1.9-148.2c14.5-24,13.5-48.7,1.2-73c-23.4-46.3-22.9-91.4,3.3-136.6
			c10.3-17.7,16.6-37.8,7.8-58c-29.4-67.9-25.8-137.3-7.5-206.2c20.4-76.9,23.8-155,24.9-233.7c0.5-34.1,2.7-68.1,9.7-101.3
			c17.6-84.2,76-137.2,147.5-173.9c173.3-89.2,350.3-91.5,527.1-8.9c21.1,9.9,32.3,8.1,48.9-7.5c64.4-60.1,144.9-81.6,230.1-88.8
			c86.8-7.3,172.2-1.2,252.6,35.8c91,41.9,143.2,112.7,156.9,212.7c6.5,47.8,4,95.4,4,143.1c-0.3,516.5,15.9,1032.9,7.6,1549.4
			c-4,250.6-7.9,501.5-35.3,751c-12.1,110.4-46,147-155.3,159.8c-139.4,16.4-279.9,16.2-419.9,4.2
			C1445,2895.1,1396.5,2876.7,1396.7,2806.3z M1626.9,1550.2c0,182.8,1.5,365.6-0.4,548.4c-2.5,243.4-7.4,486.8-11.7,730.2
			c-0.3,18,2.4,26.8,23.8,26c54.1-2.2,108.5-0.4,162.6-3c51.9-2.5,104.2-2.7,154.9-16.7c33.9-9.4,54.4-29.7,61.1-65.4
			c9.1-48.2,14.5-96.7,17.9-145.4c16-228,20.7-456.5,24.2-685c7.2-468.8-5.8-937.6-9.3-1406.3c-0.5-73.3,2.4-146.7-1.6-219.8
			c-5.1-92.4-52.5-157.7-140.4-190.3c-107.7-39.9-216.6-38.2-324.6-2.1c-89.6,29.9-142.3,93.6-157.7,186.8
			c-5.4,32.4-8.6,65.2-8.6,98.3c0,90.4,5.6,180.4,12.4,270.5c23.7,313.2,10.9,626.8,6.4,940.3c-5.5,379.5-14.6,758.9,8.2,1138.1
			c5.1,84.1-4.9,84.1,87,96.5c25.8,3.5,30.8-4.7,30.9-27.8c0.4-99.9,2.1-199.8,3.7-299.7c6.3-393.2,12.8-786.5,19.2-1179.7
			c5.8-357.1,11.9-714.2,17-1071.3c0.3-21.8,5.1-28.3,27.9-28.9c11.5-0.3,17.9,2.1,21.5,6.1c8.2,9.2,4.6,25.8,4.2,28.2
			C1650.3,304.5,1639.8,810.9,1626.9,1550.2z M1383.5,2552.6c-1.6,0-3.2,0-4.8,0c0-36.1-3.6-72.6,0.9-108.2
			c6.3-50.2-17-82.6-50.7-115.1c-187.5-180.5-445.8-92.1-538.3,105.9c-6.9,14.8-10.8,29.6-9.3,46.1c4,43.3,5.2,87,11.7,130
			c11.7,76.2,29.4,151.3,91,204.9c123.6,107.6,306.8,105.1,427.6-5.3c51.2-46.8,87.5-99.9,72.8-175.6
			C1379.1,2608.7,1383.5,2580.2,1383.5,2552.6z M1170.1,134.5c-104.5-0.3-203.5,20.8-291.4,80.2c-55.2,37.3-90.5,86.5-95.1,157
			c-3.6,55.2-3.3,110.4-5.1,165.5c-0.9,29.5-24.3,63.3-2.2,87c20.8,22.3,55.7,29.3,85.9,39.3c165.5,54.9,326.1,42.1,481.3-36.9
			c13.5-6.9,27.7-11.6,26.3-34c-3.7-59.3-4.9-118.8-5-178.3c-0.1-69.2,3.7-138.4,35.6-201.9c8.4-16.8-1.7-19.8-12.6-25.1
			C1319.2,154.1,1246.8,135.9,1170.1,134.5z M1160.9,890.3c0-0.3,0-0.6,0-0.9c66.8,3.8,133.6,6.9,200.3,11.8
			c20.1,1.5,26.2-4.3,25-24.1c-3.5-60.4-6-120.9-8.2-181.4c-0.7-18.9-5.5-24-24.5-14.6c-129.7,64-266.3,83.4-408.7,58.2
			c-19.5-3.5-21.5,4.2-21.2,19.5c0.7,31.9,1.5,63.8,0.5,95.6c-0.6,17.9,6,23.8,23.6,24.6C1018.8,882.1,1089.8,886.5,1160.9,890.3z
			 M1152.7,1291.5c70.1,0,140.3-0.4,210.4,0.3c16.9,0.2,25.1-3.3,24.5-22.5c-1-34-0.6-68.1,1-102c0.9-19.4-6.1-26-25.3-26.3
			c-138.1-2.3-276.3-5-414.4-8.6c-18.8-0.5-23.5,6-23,23.6c1.1,38.2,1.8,76.6-0.2,114.8c-1.2,23.7,8.1,27.6,29.3,27.2
			c17.5-0.3,35.2,2.1,52.4-0.6C1028.7,1294.1,1069.4,1291.2,1152.7,1291.5z M1159,1350c-69.1,0-138.2,0-207.3,0
			c-12.9,0-25.9-1.8-25.3,18.5c1.1,36.1,0.9,72.3,0.5,108.4c-0.2,14.6,7.4,17.6,19.9,17.6c139.2-0.2,278.5-0.3,417.7,0.1
			c15.1,0,20.7-5.6,20.5-20.5c-0.4-34-1.2-68.1,1-102c0.7-10.8-0.9-17.5-4.9-21.6c-7.3-7.5-20.1-6.1-24.5-5.7
			C1333,1347.2,1261,1348.7,1159,1350z M1158.5,1080.6c75.3-3.3,128.8,1.3,165.6,6.8c15.5,2.3,42,6.5,56.3-8
			c8-8.1,7.7-24.3,7.2-56.8c-1-65.6-1-66.5-64.9-70.1c-125-7-250.1-12.7-375.1-19.6c-16-0.9-23.5,2.1-22.8,20
			c1.4,33.4,2.6,66.9,0.9,100.2c-1.2,23.4,7.7,28.3,29,27.9C1022.6,1079.9,1090.6,1080.6,1158.5,1080.6z M1157,2030.2
			c102.3,1.2,176.2,2.1,196.4,3.4c3.5,0.2,13.8,1,20.1-5.4c4-4.1,5.2-10.7,5-20.3c-1-35-1.2-70.2,0.6-105.2
			c1-20.2-5.9-25.4-25.2-24.7c-132.7,4.2-265.5,7.7-398.3,10.6c-18.8,0.4-26.6,5.6-25.4,25.6c1.7,27.5,2.2,55.3,0.5,82.8
			c-0.6,10.2,1,16.8,5,20.9c7,7.3,18.9,6.4,22.7,6.1C980.3,2022.7,1053.1,2025.4,1157,2030.2z M1153.5,1692.2
			c111.6-7.7,190.7-12.5,206.6-11.4c2.3,0.2,11.1,1,16.5-4.4c3-3,4.4-7.8,4.3-15.1c-0.2-30.7,0.7-61.5,2.3-92.2
			c0.8-16-3.7-22.6-21.1-22.5c-137.8,0.6-275.7,0.6-413.5,0c-17.2-0.1-21.9,6.3-21.4,22.4c1.1,31.8,1.8,63.7,0.4,95.4
			c-1,22.1,6.1,28.9,28.7,28.3C1022.1,1691.1,1087.8,1692.2,1153.5,1692.2z M1377.5,2300.8c0-70.1-0.2-133.3,0.2-196.4
			c0.1-13.1-7.1-16.3-17.8-16.6c-136.7-3.9-273.4-7.7-410.2-11.5c-8.4-0.2-17.6-1.2-17.5,11.9c0.2,41.6,0.1,83.3,0.1,127.9
			C1100.4,2144.7,1245,2177.6,1377.5,2300.8z M1149.5,1826.5c57.4,0,114.7,0.4,172.1-0.1c57.8-0.6,56.5-1.1,58.2-60.2
			c0.8-26.3-5.7-34-33.2-32.8c-117.8,5.1-235.7,8.2-353.7,10.7c-68.7,1.4-68.1,0.2-63.8,69.8c0.5,8.4,2.1,13.8,5.7,17.1
			c5.7,5.2,14.2,4.5,17,4.3C968.8,1834,1044.8,1830.9,1149.5,1826.5z M783,2340.7c28.9-32,56.2-62.6,89.3-87.1
			c6.5-4.8,6.8-12.7,6.7-20.3c-0.6-46.7-0.9-93.3-1.6-140c-0.1-6.9,1.8-16.9-8.6-17.7c-26.4-1.9-52.9-2.7-79.4-3.6
			c-6.5-0.2-8.5,4.4-9.9,10c-11.3,45-26.8,89.3-17.4,137.2C769.7,2258.4,775.7,2297.9,783,2340.7z M874.6,1217.8c-0.6,0-1.1,0-1.7,0
			c0-19.1-1.2-38.2,0.3-57.2c1.6-21.3-4.6-30.9-27.9-29.1c-22.1,1.7-44.4-0.8-66.6-0.9c-7.2,0-16.1-0.4-21.3,3.4
			c-22.2,16.3-34.7,70.5-23.8,98.9c4.5,11.8,12.2,22.8,14.9,34.9c6,27.3,21.7,34.8,47.9,30.3c24.6-4.2,58.6,11.4,72.3-6.6
			C881.4,1275.1,873.5,1243,874.6,1217.8z M869.7,789.2c16.4-50.1-10.9-81.4-69.6-92.3c-10-1.9-19.5-8-28.6-13.4
			c-14.8-8.7-20.8-3.3-23.2,12c-7.5,49.7-8.4,97.9,10.5,146.6c9,23.3,18.7,28.9,42,29.1C871.7,871.9,871.7,873.1,869.7,789.2z
			 M871.3,1002.8c0-3.2,0-6.3,0-9.5c-0.6-62.8-0.6-62.8-63.9-67.6c-52.1-4-51.8-3.9-69,45.1c-12.9,36.7,10.3,65.7,22,96.2
			c7.7,20.2,32.1,8.9,48.6,9.8C872.1,1080,872.1,1079.2,871.3,1002.8z M874.5,1422.8c-0.3-71.6-0.3-71.6-71.5-70.2
			c-1.1,0-2.2,0.3-3.2,0c-36.2-8.8-48.3,14.5-56.5,42.6c-9.8,33.7,4.5,63.4,20.1,90.6c10.6,18.5,33.3,7.7,50.3,8.1
			C874.8,1495.3,874.8,1494.5,874.5,1422.8z M875.2,1620.1c0-3.2,0-6.4,0-9.5c-0.1-63.7-0.1-63.7-65.1-63.7
			c-44.5,0-63.8,20.3-64.1,66c-0.1,21.1,11.7,38.2,16.6,57.4c5.6,21.8,17.3,26.5,38.6,25.5C875.2,1692.6,875.3,1693.4,875.2,1620.1z
			 M876.6,1955.9c-0.4-65.3-0.4-65.3-64.5-64.1c-8.5,0.2-17,0.3-25.4,0.6c-5.2,0.2-11.2,0-14,5.4c-16.3,30.8-23.9,60.8-10.8,96.9
			c11.3,31.2,32.9,23.6,53.5,23.8C877,2019.1,877,2018.8,876.6,1955.9z M818.3,1839.4c57-1.1,57-1.1,56.9-57.1
			c0-7.4,0.4-14.8-0.3-22.2c-0.4-3.8-1.9-8.3-4.5-11c-4.3-4.4-102.2,0.6-106.1,5.6c-3.7,4.9-6.2,11-8,17
			C743.8,1813.2,768.7,1840.3,818.3,1839.4z"/>
		<path class="st0" d="M972.4,2688.9c-25.1,0.1-36.7-6.7-28.1-37.5c39.6-141,120.5-250.2,244.1-328.4c13.1-8.3,24.5-17.9,34.8,4.3
			c7.8,16.7,17.3,27.1-7,42c-113.6,69.3-186.5,170-220.7,298.8C992.6,2679.1,993.9,2696.6,972.4,2688.9z"/>
		<path class="st0" d="M956.1,569.6c-11.5-6.8-25.8-11.5-34.4-21.3c-8.4-9.5,4.1-19.1,9.5-27.4c71.4-109.9,169.5-185.5,293.9-226.8
			c14.6-4.8,29.5-14.5,36.1,11.8c5.1,20.4,6.2,31.1-18.7,39c-113.3,36-201.8,105.7-267.3,205C970.3,557.2,968.9,568.5,956.1,569.6z"
			/>
	</g>
</g>
</svg>
