<?xml version="1.0" encoding="utf-8"?>
<!-- Generator: Adobe Illustrator 23.0.0, SVG Export Plug-In . SVG Version: 6.00 Build 0)  -->
<svg version="1.0" xmlns="http://www.w3.org/2000/svg" xmlns:xlink="http://www.w3.org/1999/xlink" x="0px" y="0px"
	 viewBox="0 0 3000 3000" style="enable-background:new 0 0 3000 3000;" xml:space="preserve">
<style type="text/css">
	.st0{stroke:#000000;stroke-width:10;stroke-miterlimit:10;}
</style>
<g id="Layer_1">
</g>
<g id="Layer_2">
	<g>
		<path class="st0" d="M2093,1334.1c-40,62.5-79.6,123.1-126.6,178.8c-60.3,71.5-127.2,136.2-204.2,189.5c-20.8,14.4-18,21-1.1,36.1
			c114.6,102.6,216,216.1,276.9,359.8c48,113.2,57.7,226.6-8.9,337c-45.2,75-113.5,124.1-190.2,162.3
			c-132.2,65.7-274.6,96.1-419.5,115.9c-196.3,26.8-393.6,38.3-591.6,29c-160.4-7.5-319.7-24-472.3-79.1
			c-40.7-14.7-79.9-32.7-116-56.9c-110.9-74.5-151.5-175.8-106.1-301.6c69.6-192.4,190.9-346.5,367.1-454.4
			c6.5-4,13.3-7.7,19.8-11.7c1.5-0.9,2.5-2.8,4.1-4.7c-3.8-9.5-13.8-8.7-21-11.1c-78.2-26.5-153.3-60.6-227.5-96.4
			c-142.8-69-209.5-189.1-222.7-342c-14.8-172.2,31.6-332.8,100.3-488.1c163.1-368.8,452.8-583.7,836.4-681
			c192.3-48.8,388.7-67.3,585-33.4c286.5,49.5,474.6,219.1,570,492.7c2.8,8.1,5.3,16.3,8.8,27.3c14-15.1,15.3-33.8,23.3-49
			c68.1-129.3,143-254,237.9-365.8c32.4-38.2,68.7-72.6,111.1-99.7c92-58.8,173-40.1,229.7,53.3c105.7,174,124.8,359.7,72.6,554.1
			c-5.5,20.4-3.1,35.4,6.5,53.4c75,141,119.8,290.5,122.5,451.1c3,175.6-45.9,335.3-152,476c-14.4,19.1-13.8,32.9-5.2,53.8
			c49.9,120.6,78.6,244.8,53.3,376.2c-29.2,151.4-168.5,286.9-310.4,303.2c-62.7,7.2-117.5-10-165.7-50.3
			c-66.8-55.9-107-129.8-140.8-207.8c-61.9-142.7-93.5-293.8-120.4-445.9c-11.1-63.2-19.2-126.9-27.6-190.6
			c-10.2-77.6-0.9-155.2,1.6-232.8C2091,1365.6,2092.2,1349.9,2093,1334.1z M990.2,1845.3c87.2-4.5,174.5-8.5,261.6-13.7
			c69.9-4.2,140.2-9.2,207.2-30.9c286.5-92.7,488-281,614.7-551.8c15.3-32.8,29-66.3,31.1-103.9c3.5-59.3,10.2-118.4,14.6-177.7
			c4.9-65.5,19.2-130.2,2.8-196.9c-66.9-272.1-224.3-458.3-501.2-530.3c-144.4-37.6-291.8-29.8-437.9-12.7
			c-165.8,19.4-324,67.2-473.6,142.8C344.4,554.9,94.6,954.5,100.2,1354.3c2.1,147.6,63.2,262.8,201.9,332.3
			C519.2,1795.2,746.9,1852.4,990.2,1845.3z M218.7,2225.4c7-0.4,10.9,0.1,14.2-1c82.6-27.4,167-32.1,253.1-22
			c84.1,9.9,151.3,61.7,171.9,136.4c15.4,55.7,15.4,111.7,1.2,167.9c-3.1,12.5-5.2,23.2-21.9,16.6c-13.1-5.1-33.4-2.9-25.2-27.8
			c7.3-22.1,8.1-45.3,9.1-68.3c3.6-86.1-37.7-155.6-107.5-170.3c-106.7-22.6-211.7-13.4-312.6,30.9c-8.3,3.6-15.2,7.9-18.4,16.8
			c-29.2,82.6-28.7,169.1,50,236.1c45.4,38.6,97.9,63.7,153.7,82.5c139.5,47.1,284.1,62.7,430.2,69.8
			c249.4,12.2,496.9-4.3,741.8-53.1c113.4-22.6,223.5-56.3,321-121.3c146.1-97.3,186.9-241.3,115.4-401.5
			c-64.4-144.4-168.4-257.5-284.6-361.2c-13.7-12.2-22-3.7-32.4,2.3c-88.7,51.2-182,89.7-283.9,106.4c-100.7,16.5-202.6,18-304,24
			c-140.3,8.4-281,6.5-418.5-23.3c-58.2-12.6-104.2-4.3-149.6,28.8c-3.1,2.2-6.7,3.8-9.9,5.8
			C382.6,1978.9,293.6,2093.6,218.7,2225.4z M2134.5,1466.5c-8.2,74,2.7,162.5,16.5,250.8c25.6,164.1,56.1,327,116.7,482.6
			c27.3,70,60.3,137,111.1,193.6c59,65.7,125.3,84.1,201.7,56.6c142.8-51.4,228.7-169.5,233.8-320.7c3.7-110-25.8-212.6-71.6-310.9
			c-9.1-19.5-7.3-31.1,6.1-47.7c116.7-144.2,169.1-310.2,160.4-494.8c-7.2-152.9-53.9-295-128.5-427.8c-10-17.8-9.7-31.1-4.3-49.2
			c56.8-189,40.7-369.6-65.6-538.7c-41.2-65.6-94.2-75.7-158.5-32.4c-37.6,25.4-70.4,56.2-100.2,90.4
			c-90.7,104.2-160.2,222.4-224.6,343.6c-33.1,62.3-43.6,131-41.9,200.4c1.9,77.8,2.6,155.3-12.8,231.9
			c-9.8,48.8-25.9,96.1-27.4,146.7C2143.4,1311,2138.8,1380.9,2134.5,1466.5z"/>
		<path class="st0" d="M1415.8,1220.7c-23.2,52.7-44.3,101.9-66.7,150.6c-5.8,12.6,4,28-13.3,39.7c-15.6,10.5-22.6,14-36-2.1
			c-43-51.6-87.5-101.8-131.5-152.6c-10-11.5-20.2-22.9-33.9-38.4c-28.2,59.2-70.2,106.5-87.4,167.6c-7.2,25.7-32.8,32.8-51.3,14.2
			c-35.2-35.4-70.2-71-105.6-106.2c-6.4-6.4-10-16.6-24.5-5.4c-10.2,7.9-22.9-8.7-34.2-14.6c-10.8-5.7-3.1-13.7,0.5-19.3
			c5.9-8.9,4.8-15.1-2.7-22.4c-30.8-30.1-61.3-60.5-94.3-93.3c-18.9,36.8-36.9,71.4-54.5,106.2c-8.1,16-12.8,28.4-37.5,16.2
			c-25.3-12.4-13.9-23.3-6.9-36.8c18-34.9,35.9-69.8,54.9-104.2c7-12.7,7.1-21.3-4.3-32.1c-28.6-27-56.3-55-83.2-83.7
			c-12.9-13.8-18.3-9.6-26.5,4.4c-43.1,74-78.4,151.4-99.8,234.3c-5.7,22-14.4,20.9-32.2,16.9c-19.8-4.4-18.9-14.3-14.4-29
			C530.9,895.8,738.5,669,1088.1,593.5c184.6-39.9,363.5-12.1,527,85.5c110,65.7,167.3,168,182.7,294.5
			c18.4,151.6,8.6,300.4-40.7,446.1c-8.7,25.7-19.4,26.7-40.3,17.2c-11.9-5.4-15.1-9.8-10-22.9c18.5-48.5,29.7-99,40.5-149.7
			c4.4-20.5,1.5-36.5-15.1-51.3c-17.8-15.8-33-34.6-52.4-55.3c-9,19.5-17.3,37-25.3,54.6c-13.8,30.5-24.9,62.6-41.8,91.3
			c-18.5,31.3-21.6,57.1,9.3,81.3c17.8,13.9,3.4,21.7-6,30.9c-11.2,11-19.6,14.3-32.1-0.6c-49.2-58.9-99.7-116.6-149.8-174.8
			C1429,1234.6,1423.7,1229.2,1415.8,1220.7z M1308.3,1344.4c23.9-54.2,45.7-103.9,67.8-153.6c3-6.7,3.9-12.8-1.2-18.7
			c-42.1-48.7-84.3-97.5-128.3-148.4c-27.6,48-52.4,92.1-78.4,135.4c-6.8,11.3-4.6,18.4,3.3,27.4
			C1216.2,1237.7,1260.5,1289.2,1308.3,1344.4z M1520,983.2c-26.6,60.5-51.4,117.1-76.6,173.5c-5.2,11.5-1.9,19.3,6,28.1
			c31.9,35.8,63.9,71.6,94.3,108.6c11.9,14.5,15.9,11.1,22.3-3.3c23.4-52.5,47.6-104.6,71.2-157c2.9-6.5,8.5-13.1,1.2-21
			C1599.6,1070.1,1560.9,1027.8,1520,983.2z M1665.8,1069.8c23-51.3,43.9-98.4,65.5-145.3c3.9-8.4,5-15.8,2-24.7
			c-19.1-55.5-50-103.1-93.1-143.1c-9.8-9.1-15.8-11.8-22.4,3.6c-22.9,53.7-46.8,106.9-70.5,160.3c-4.4,9.8-3.8,17.4,4.1,25.8
			C1588.9,986.2,1625.7,1026.5,1665.8,1069.8z M1365.6,815.6c-30.4,52.9-58.9,102.5-87.4,152c-3.7,6.4-5,12.3,0.3,18.4
			c40.5,46.9,80.9,93.7,124.2,143.9c26.8-61,51.6-117.6,76.7-174.1c3-6.8,4.2-12.5-1.2-18.4C1441.2,897.5,1404.3,857.6,1365.6,815.6
			z M864.5,1198c32.4-56.1,63.5-110.8,95.4-164.9c6.2-10.5,0.7-15.7-5-22.3c-27.7-31.8-55.7-63.2-82.7-95.6
			c-9.4-11.2-14.6-12.9-21.9,1.4c-27.4,53.6-55.1,107.1-83.3,160.3c-5.8,10.9-6.2,18.6,3.3,27.7
			C801.3,1134.6,831.5,1165.2,864.5,1198z M999.2,1062.2c-32.6,56-63.5,109.7-95,163c-5.5,9.4,0,14.1,5.4,19.5
			c28.3,28.6,57,56.9,84.8,85.9c9.8,10.2,14.8,10.8,22.2-2.9c24.8-45.3,50.5-90,76.8-134.4c5.9-10,5.8-16.8-1.6-25.2
			C1061.6,1133.9,1031.7,1099.4,999.2,1062.2z M991.4,978.8c28.3-48.7,55-94.9,82.1-140.9c4.3-7.2,2.5-12.3-2.3-17.8
			c-34.7-40-69.4-80.1-106.3-122.7c-26.6,51.3-51,98.9-75.9,146.2c-4.2,7.9-3.7,13.5,2.3,20.3C924.2,901.1,956.5,938.7,991.4,978.8z
			 M1329.7,778.5c-2.9-3.9-5.2-8-8.3-11.3c-26.5-28.9-53.5-57.5-79.7-86.7c-9.4-10.5-15.1-12-22.8,1.7
			c-23.3,41.7-47.1,83.2-71.8,124.1c-7.9,13.1-6.2,21.8,3.5,32.6c25,27.7,49.4,56,73.1,84.8c10.6,12.9,16.3,14.6,25.3-1.9
			c23.7-43.7,49.1-86.5,73.8-129.7C1325.3,788.1,1327.2,783.8,1329.7,778.5z M723.4,1056.3c25.2-48.4,48.9-93.2,72.1-138.3
			c29.8-57.8,29.6-57.9-13.8-107.2c-1.3-1.4-2.7-2.8-3.8-4.4c-8.4-12.9-17-11.4-27.9-2.1c-46.1,39.5-87,83.7-123.9,131.9
			c-6.9,9-8.6,15,0.6,23.9C658.4,990.7,689.2,1022.1,723.4,1056.3z M1112,867.8c-28.1,48.3-53.9,93.1-80.2,137.5
			c-5.3,8.9-4.9,15.3,2,23c27.3,30.9,54.4,62,81.2,93.4c8,9.4,13.3,11.7,20.4-1.2c22.7-41.1,46.1-81.7,69.6-122.3
			c5.2-9.1,7.2-15.9-1.2-25.2C1173.7,939.6,1144.6,905.3,1112,867.8z M1505.4,896c25.9-58.4,49.3-111.8,73.2-164.9
			c5.5-12.1,2.3-18.9-9.1-25c-32.2-17.3-65.8-31-100.3-42.9c-12-4.1-16.8,0-22.2,10c-15.6,28.6-31.7,56.9-48.9,84.6
			c-6.5,10.5-4,16.8,3.3,24.7C1435.2,818.9,1468.6,855.8,1505.4,896z M1104.5,784.6c30.9-53.8,59.3-103.1,90.1-156.7
			c-69.3,2.5-130,16.9-192.9,37.6C1036.4,705.7,1069.3,743.7,1104.5,784.6z M1259.4,627.9c31.2,34.2,58.3,63.5,84.9,93.3
			c8.7,9.8,14.2,10.1,20.7-2c10.3-19.3,21.1-38.4,32.7-57c7.1-11.4,5.2-17.4-7.8-19.5C1348.8,635.9,1307.9,626.6,1259.4,627.9z
			 M1751.2,999.2c-17.3,38-32,70.2-46.8,102.4c-2.3,5.1-1.1,9.2,2.4,12.9c15.2,16.4,30.5,32.8,49.3,53.1c1.3-9.7,2.3-14.1,2.4-18.5
			C1759.5,1101.5,1758.6,1054,1751.2,999.2z M901.8,714.2c-1.6-1.9-3.1-3.8-4.7-5.7c-17.1,9.5-34.7,18.3-51.2,28.7
			c-53.6,33.8-43.1,19.2-8.8,64.2c0.6,0.8,1.3,1.4,1.9,2.2c8.2,10.7,13.1,6.6,18.1-3.3C871.7,771.5,886.9,742.9,901.8,714.2z"/>
		<path class="st0" d="M1090.9,2324.6c55.2,50.9,70.9,115.4,81.8,182.6c3.9,24.2-12.9,18.1-23.5,21.5c-12,3.9-22,4.2-24.5-13.3
			c-4.4-31.3-9.7-62.5-22-92c-21.8-52.3-57.4-85.4-117.1-85.9c-8.6-0.1-17.2-1-25.9-1.3c-94.8-3-142.1,31.3-161.4,123.6
			c-5.8,27.7-19.3,20.8-35.8,18.8c-22.7-2.8-14.7-17.4-11.9-29.7c25.6-111.5,88-165.9,201.9-158.4c74.5,4.9,140.8-22.3,211.2-31.7
			c55.1-7.3,110-17,165.7-5.1c11.7,2.5,19.7-4.2,28.3-10.8c72.4-55.3,152.7-67.6,239.2-41.6c10.9,3.3,33-0.8,23.3,24.2
			c-6.6,17.1-9.4,32.2-36.9,22.6c-65.2-22.8-128.2-14.1-188,27c44.8,32.2,73.4,76.9,105.9,118.2c6.9,8.7,15,17.1-1.1,24
			c-11.8,5-21.3,27.4-37.5,4.9c-15.1-21-31.8-40.9-47.5-61.5c-29.5-38.7-67-62.1-116.9-63.3
			C1228.9,2295.7,1161.1,2304.1,1090.9,2324.6z"/>
		<path class="st0" d="M2352.2,1575.1c7.8,112.3,23.4,219.3,49,324.7c11.3,46.5,23.9,92.8,38.5,138.4c6.5,20.2,3.1,27.1-17.2,34.4
			c-24.9,8.9-25.2-7.4-29.6-21.5c-38.6-121.9-65.5-246.4-79.6-373.4c-41.4-373.9,17-731.9,173.9-1073.9c8.5-18.5,15.4-27.2,37-15.2
			c15.7,8.7,17,14.8,9.7,30.3c-73.3,156-124.5,319-156,488.4c-4.7,25.4,0.3,33.9,26.6,34.2c38.8,0.5,75.3,13.7,110.9,28.1
			c29.8,12.1,46.8,34.7,51.5,67.2c5.4,37.9,5.7,74.9-16.9,107.9c-7.6,11.1-1.6,20.3,1.3,29.6c12.5,40.7,21.7,81.7,10.9,124.3
			c-13.4,53.1-49.6,83.4-104,87.9C2423.2,1589.4,2389.1,1584.8,2352.2,1575.1z M2428.9,1375.3c-25.4,3.7-58.8-8.5-74.6,7.9
			c-17,17.6-6.2,51.1-6.3,77.6c-0.2,70.1,4.2,74.3,74.8,78.6c5.7,0.4,11.5,0.4,17.2,0.4c52.8-0.6,80.8-29.7,79-83.4
			c-0.9-28-5-57.8-20.7-79.2c-8.7-11.8-36.2-1.3-55.2-1.8C2438.5,1375.3,2433.7,1375.4,2428.9,1375.3z M2425.9,1328.5
			c0-0.6,0-1.2,0-1.8c15.4,0,30.7-0.4,46.1,0.1c20.2,0.7,38.8-0.5,46.2-24.2c9.5-30.4,2.5-76.8-16.3-85.3
			c-38.5-17.5-78.6-30-121.8-29c-10.6,0.3-15.4,3.8-16.4,14.7c-3.2,35.3-6.8,70.6-10.9,105.8c-1.7,14.8,2.6,21.1,18.5,20
			C2389.4,1327.6,2407.7,1328.5,2425.9,1328.5z"/>
	</g>
</g>
</svg>
