<?xml version="1.0" encoding="utf-8"?>
<!-- Generator: Adobe Illustrator 23.0.0, SVG Export Plug-In . SVG Version: 6.00 Build 0)  -->
<svg version="1.0" xmlns="http://www.w3.org/2000/svg" xmlns:xlink="http://www.w3.org/1999/xlink" x="0px" y="0px"
	 viewBox="0 0 3000 3000" style="enable-background:new 0 0 3000 3000;" xml:space="preserve">
<style type="text/css">
	.st0{fill:none;stroke:#000000;stroke-miterlimit:10;}
	.st1{stroke:#000000;stroke-width:10;stroke-miterlimit:10;}
</style>
<g id="Layer_1">
</g>
<g id="Layer_2">
	<circle cx="1361.2" cy="1591.1" r="1.2"/>
	<path class="st0" d="M782.3,1042.4"/>
	<g>
		<path class="st1" d="M808.2,1778.3c-225.4-72.1-282-151.7-239.7-338.3c-29.2,13-57.4,26.2-86.2,37.9c-16.6,6.7-34,12.7-51.6,15.8
			c-78.4,13.8-123.6-41.4-95.3-117.8c-50,2.1-97.5-6.4-139.8-33.1c-79.1-50-114-127.3-128.8-215.8c-9.9-59.1-6.9-119-6.4-178.4
			c0.9-92.9-2-185.9,5.5-278.7c9.2-113.5,91.2-199,205.1-208.8c52.8-4.5,106.4-7,159.1,4.3c70.3,15.1,116,66,123.7,136.2
			c8.1,74.7-28.3,142.5-92.4,171.6c-6.5,3-13.5,5.4-20.5,6.6c-27.1,4.9-40.1-8-33.4-35c4.2-17,1.5-32.1-5.2-47.1
			c-13-29.1-33.5-37.5-64-27c-44.8,15.4-69,46.7-66.4,93.6c6.7,120.9,9,241.6,1.3,362.6c-2.8,44.4,13.8,58.9,57.3,58.9
			c53.5-0.1,94.5-23.8,125.5-66.1c10.6-14.5,20-30,29.7-45.2c5.8-9,12.9-14.6,24.4-13.3c12,1.4,17,10.1,20,19.5
			c5.7,18.1,8.6,36.8,7.4,55.9c-3.2,52.1-14.7,101.7-43.6,146.1c-2.8,4.3-7.8,7.9-6.4,14.2c87.2,12.2,97,20.5,106.3,89.5
			c8.7-1.5,10-9.9,13.7-15.4c34.1-51.1,78.5-88.9,137-109.5c46.2-16.2,90.3-36.5,125.7-71.9c16.1-16.1,30-33.5,40.5-57.9
			c-30.7,6.5-59,12.9-87.4,18.3c-56.9,10.8-114.2,16.8-172.2,14.6c-60.4-2.3-95.3-31-108.3-89.8c-11.7-52.9-6.4-105.8-0.1-158.8
			c7.4-62.8,17.1-125,38.5-184.8c14.7-41.1,34.5-79.5,61.3-113.9c53.3-68.6,123.6-101.9,210.9-102.4c129.1-0.7,258.1-2.2,387.2,1.3
			c59.1,1.6,117.3,5.2,176.8-10.8c56.7-15.3,117.9-6.8,177.1-7.4c120.2-1.3,239.5-14.5,359-25c28.8-2.5,57.5-5.6,86.3-7.7
			c136.2-10.1,231.6,58.3,308.8,161.3c8.1,10.8,15.1,22.4,22.4,33.8c6.7,10.4,13,21,21,33.9c20.2-36.2,39-69.8,65.9-97.9
			c90.4-94.3,200.9-124.1,326.4-97.1c85.3,18.4,142.7,82.7,151.8,172.9c8.5,84.4,8.9,169.6-9.3,253.4
			c-17.2,79.1-57.1,143.6-126.9,187.5c-2.8,1.8-5.1,4.4-9.7,8.5c90.1,33.8,126.8,101.9,128.1,191.6c1.2,80.3-26.3,152.1-72.6,216.9
			c-11.5,16.1-24.2,31.4-37.2,46.3c-14.8,17-11.7,28.5,8.9,36.1c38.2,14.1,70.3,35.6,92.4,71.2c26.9,43.3,17.2,77.6-28.9,98.6
			c-18.6,8.5-44.2,8.8-54,27.8c-10.2,19.7,13.6,35.1,17.2,54.3c2.3,12.3,8,23.7,7.6,36.8c-2.4,88.5-10.7,176.3-26.6,263.4
			c-5.4,29.7-18,57-34.3,81.9c-28.2,42.9-72.7,55.8-120.2,54.6c-88.7-2.2-157.5-40.2-198.9-121.4c-34.8-68.2-50.1-141.3-47.5-217.2
			c5.8-169.6,13.4-339.1,21.3-508.6c2.2-47.7,6.7-95.4,11.7-142.9c6.6-62.4,29.7-116.6,87.4-154.3c-35.5-9.8-66.2-18.2-99.5-27.4
			c2.4,79.5-3,156.9-5.3,234.4c-1.7,56.8-4.7,113.5-14.9,169.6c-4.6,25.1-12.2,48.8-23.9,71.4c-39.2,76.1-88.7,144.6-151.4,203
			c-13.9,12.9-16.1,19,1.2,30.9c34.4,23.7,62.9,54,86.4,88.8c76.8,114.3,52.7,230.2-59.1,310.8c-135.1,97.4-283.3,118.4-442.7,87.9
			c-22.1-4.2-44.5-7.7-66-14.2c-93.2-27.9-144-104.8-134.8-202.1c3.1-32.5,8.4-64.5,20.4-94.8c6.4-16.1,5.9-23.7-14.1-25.8
			c-35.8-3.8-71.2-10-109-15.5c2.6,30.4,10,60,10.3,90.4c0.9,90.7-27.3,165.3-113.8,207.4c-38.6,18.8-80.5,27-123,29.4
			c-159.8,9.1-319.5,4.4-478.7-10.7c-121.5-11.5-174.4-81.7-159.9-203.2c3.5-29.8,10.6-58.5,20.3-86.7
			c24.6-71.4,62.2-135.9,105.8-197.2C798.6,1795.4,806.3,1788.6,808.2,1778.3z M1078.9,828.7c-47.1,71.6-81,146.2-101,226
			c-29.8,119-98.8,199.8-216.5,238.1c-89.8,29.2-138.2,97.8-165.6,182.9c-22,68.4-6,130.3,44.3,182.1
			c55.7,57.3,125.4,82.4,204.1,86.3c14.9,0.7,24.1-4,33.2-16.6c58.4-80.6,138.3-124.7,237-134.2c13.4-1.3,23.2-5.1,32.8-14.8
			c75.8-77.2,167.4-112.8,275.8-102.7c7.3,0.7,14.3,2.1,20.2-3.9c18.2-18.3,38.8-33.9,65.8-52.1c-32.7-0.7-58.5-0.7-83.4-8.6
			c-75-24-118.6-86.9-116.6-175c1.6-69.4,7.1-138.7,10.8-208.1c0.5-8.5,4.4-18.2-9.4-21.3c-11.2-2.5-14.2,4.4-17.5,12.1
			c-52.3,122.1-53,243.5,8.4,362.6c26.7,51.7,62,65.2,113.9,44.8c18.9-7.5,21.6,3.6,27.2,14.5c8.4,16.6-8,15.2-14.9,18.1
			c-63.2,27.1-123.4,4.5-158-62.5c-41.2-79.6-57.2-164.8-45.9-254.3c3.3-26.4,9.1-52.5,13.9-79.4c-35,6.8-53.2,20.2-56.7,59.6
			c-6.8,78.3-56.5,116.5-136.1,114.1c-13.1-0.4-21.9,3.1-30.5,12.4c-25.8,27.9-54.8,52.2-83.8,76.6c-10,8.3-17.1,16.7-30,1
			c-14-17,0.3-21.3,8.8-28.3c32-26.5,61.9-55.3,90.9-85c12.5-12.8,16.5-26.5,13.6-44.1c-6.9-41.2,2.3-56.7,41.2-72.8
			c15-6.2,30.2-11.9,45.2-18c47.6-19.1,95-38.6,142.8-57.4c11.1-4.4,18.3-11.3,20.8-22.6c1.6-7.2-4.9-8.9-9.4-11.1
			C1182,951.3,1125.7,897.8,1078.9,828.7z M2797.7,2128.5c-37.1,9.1-69.8,18.5-103.1,25c-97.6,19-159.1-23.8-175.2-122.6
			c-10.8-66.2-6.5-133.4-6.2-200c0.5-117.3,8.8-234.4,18.6-351.3c4.7-56.3,18-110.2,44.9-160.3c25-46.5,62.8-70.4,116.3-68.7
			c17.2,0.5,34.1,1.7,51.1,4.5c34.3,5.6,54.3,26.1,63.4,58.6c10.1,36,5.6,71.6-3.8,106.9c-2.5,9.3-0.1,22.7-19.1,16.4
			c-14.6-4.8-18.6-10.3-14.4-24.8c7.8-27.1,10.8-55,5.3-83c-3.4-17.5-10.5-32.5-29.5-38.6c-70.2-22.8-119.7-0.1-149.7,67.1
			c-24,53.9-28.7,111.1-33.9,168.7c-2,21.6,2.1,33.4,22.9,43.6c52.8,25.9,68.5,68.3,46.6,120.7c-4.9,11.7-3.2,19.3,2.4,29.6
			c34.1,62.4,6.9,163.9-74.5,171.4c-11.9,1.1-11.6,8.7-11.6,17.1c-0.2,40.6-1.4,81.2,5.5,121.5c11.1,64.9,48.4,97.3,111.1,92.2
			c43.3-3.5,84.7-16.6,125.8-30.4c11.4-3.8,12-11.4,12.9-20.6c2.9-29.6,6.5-59.2,9.3-88.8c5-51.4,9.3-101.8-20.1-149.7
			c-13.2-21.5,0-47.9,24.4-61.3c14.9-8.1,31.4-13.5,47.1-20.1c28.9-12,31.5-22.4,15.8-49.6c-18.5-32-49.5-45.7-80.8-60.3
			c-39.1-18.2-46.3-48.8-20.8-83.5c9.6-13.1,20.9-24.9,30.8-37.7c49.4-64.3,76.8-136.2,74.4-218.2c-2.8-95.1-65.9-154.5-160.6-149.8
			c-26.9,1.3-53.8,4.8-80.4,9.4c-102.7,17.7-140.7,55.5-151.6,159.5c-23.1,221-22,443.4-31.4,665.2c-2.5,60.3,14,117.8,39.9,172.4
			c26.1,55,67.8,91.6,127.8,102.5c98.9,18,135.7-11.3,160.3-92.2C2791.6,2157.4,2793.8,2145,2797.7,2128.5z M2346.1,2079.5
			c-11.4-2.5-18.9,3.8-26.9,6.9c-45.6,17.6-92.7,29.3-141.3,33.6c-78.5,7.1-137.5-66.5-110.2-137.6c2.2-5.8,2.6-20.1,14.7-13.4
			c8.3,4.6,25.8,4.9,18.7,23.4c-21.4,55.4,23.4,102.2,90.3,91.7c44.6-7,87.5-19.9,130-35.3c23.7-8.6,24.4-20.3,17.5-40.3
			c-23-65.9-67.5-113.9-123.3-153.3c-9.2-6.5-15.4-4.8-23.7,1.3c-124.7,92-266,132.8-419.5,139.6c-25.5,1.1-58.2-17.9-76.8,11.8
			c-15.1,24.2-20.2,53.9-24.2,82.5c-15.2,110.1,30.3,173.5,139.3,196c47.8,9.8,96,16,144.7,18.1c129.3,5.6,240.4-39.3,336.7-123.2
			C2322.3,2154.7,2343,2121.6,2346.1,2079.5z M497.8,1120.7c-29.8,47.5-67.5,77.8-117.1,92.4c-69.5,20.5-150.8,9.7-141.8-102.4
			c9.1-113.5,6.3-227.2-2.2-340.8c-4.9-64.6,35.8-118.1,98.5-134.4c42.5-11,79.7,6.5,98.4,46.1c8.5,18,10.5,37.6,14.5,56.9
			c51.9-23.3,79.4-75.3,71.2-133.1c-8.6-60.3-44.5-97.9-101.6-107.2c-43.1-7-86.4-7.5-129.6-4.2c-83.7,6.2-145.2,44.4-176.3,125.2
			c-13.9,36.2-12.9,74.1-13.6,112C95.7,857.6,87.9,984,100,1110.1c7.6,79.9,37.2,152.4,106.8,198.1c67.8,44.6,140.8,47.8,211.5,3
			C473.4,1276.3,510.6,1188.1,497.8,1120.7z M1514.4,533.1c-43.9,2.6-87.8-0.6-130.4,17.2c-116.4,48.7-203,131.8-275.8,232
			c-5.8,8-8.6,14.7-2.2,24.2c53.9,80.2,120.9,143.8,217.6,167.4c61.8,15.1,125.2,13.9,188.4,13.2c11.4-0.1,18.2-3.5,21.8-15
			c42.5-137.6,68.2-278.1,73.4-422.2c0.5-13.2-4.1-17.4-17-17C1564.9,533.7,1539.6,533.1,1514.4,533.1z M2345.4,687.6
			c-3.4,4.3-5.7,7.1-7.9,9.9c-71.5,90.2-157.8,162.2-257.1,220.9c-68.1,40.2-111,102.7-123.5,182.2c-9.7,61.8-9.9,124.6-0.6,186.1
			c10.1,67.8,7.6,130.1-36.2,187.5c-25.4,33.2-18.2,72.3-3.9,108.6c10.2,25.8,23.3,28,46.1,11.3c16.6-12.1,29.6-29.1,49.2-37.1
			c23.4-9.6,40,2.1,37.7,27c-1,10.7-4.4,21.2-6.2,31.8c-5.7,34.3,6.2,53.1,39.4,62.7c24.4,7,48.6,6.2,70.8-6.6
			c65.3-37.7,107.4-98.8,155.7-154.3c-15.3,1.1-29.1,4.8-43,7.7c-109.8,23-170.6-20.3-183.5-131.3c-5.5-47.4-10.1-95-13.9-142.6
			c-8.4-105.6,31.4-187.9,112.5-252.9c61.2-49.1,129.8-84.2,202.8-111.7c7.9-3,20.3-2.2,20-17.3
			C2402.7,803.5,2382,744.2,2345.4,687.6z M1291.7,555.1c-152.5-4.9-303.8-9.5-455.4-3.9c-72.8,2.7-126.9,35.5-169.4,91.7
			c-42.5,56.1-62.3,121.3-77.3,188.7c-3.9,17.7,4.4,17.8,16.8,16.8c38.7-3.1,77.5-2.2,116.2-2.1c62.4,0.2,110.7-47.1,113.4-107.8
			c1.6-35.4-17-51.7-51.8-45.2c-13.6,2.5-25.4,9.1-36.3,17.3c-7.2,5.4-15.5,11.3-12.6,21.9c2.9,10.7,11.5,11.2,21.6,10.5
			c14.6-1.1,21.3,12.4,22.6,22.2c1.2,9.1-12.6,11.2-20.9,12.8c-20.5,4-38.3-2.7-49.4-20.3c-11.9-18.8-14-39.2,0.8-58
			c17.4-22.2,41-35.8,68.5-40.2c66.3-10.7,97.5,32,92.2,83.1c-5.9,57.4-35.8,97.8-84.3,126.4c66,67.8,70.7,151,14.6,249.3
			c36.7-4.5,71.1-14.8,106.1-22.6c17.6-3.9,25.7-13,30.3-29.2c22.1-77.3,49.8-152.4,90.3-222.4c0.6-1-0.8-3-1.6-5.5
			c-11.4-1-23-1.7-34.6-2.9c-45.9-4.9-75.7-34.8-74.2-73.9c1.6-39.3,32.9-67.7,79.2-68.9c38.8-1.1,77.6-0.1,116.4,0.7
			c11.2,0.2,20.6,0.4,29.2-9.1C1186.8,635.8,1235.7,591.9,1291.7,555.1z M2905,788.1c0-28,1.4-56-0.2-83.9
			c-5.4-93.2-44.2-145.6-124-169.7c-123.8-37.4-263,19.2-335.6,136.9c-21.5,34.8-42.7,69.8-18,112.2c1.7,2.9,1.5,7,2.1,10.6
			c16.1,90.2,16.8,181.3,16,272.4c-0.2,18.8,6.1,26.9,23.2,33c70.3,24.9,141.9,34.3,215.5,20.6c96-17.9,164.4-70.2,198.2-163.8
			C2901.9,901.8,2903.5,845,2905,788.1z M1117.8,2108.5c2.7,56.9,4.6,98.4,6.7,139.8c0.5,10.8-0.3,21.5,16.4,21.7
			c81.2,1.3,162.5,3.4,241.9-18.1c55.8-15.1,95.8-49.1,114-105.3c18.8-58,11.3-115.7-2.7-173.4c-2.7-11.3-11.2-12.6-19.9-15
			c-90.8-24.9-177.5-59.8-260.1-104.8c-14.6-8-19.5-6.8-20.7,11.1c-3.2,47.9-25.2,86.3-65.5,112.4c-13.7,8.9-16.6,19.2-15.7,33.7
			C1114.7,2048.4,1116.6,2086.2,1117.8,2108.5z M1954,721c0,61.3-0.1,122.5,0,183.8c0,31.6,0.5,31.9,29.2,20.3
			c133.6-54,241.7-141.1,330.9-253.2c8.9-11.2,11-19.3,1.6-32.6c-82.2-115.2-207.2-163.2-346.4-133.1c-15.4,3.3-15.4,11.5-15.3,22.8
			C1954.1,593,1954,657,1954,721z M1906.2,1367.7c-57.2-12.7-110-2.7-161.5,18.8c-20.6,8.6-37.3,17.1-26.1,44.5
			c2.4,6,7.2,19.7-8.5,20.1c-10.5,0.3-24.3,5.5-24.8-14.3c-0.4-19.3-11.8-24.7-30.6-23.6c-56.6,3.1-107.3,21.3-153.3,54.1
			c-23.2,16.6-46.5,32.6-32.2,67.2c1.5,3.7,0,8.9-0.6,13.4c-2.8,20.3-14.2,24.8-30.9,13.3c-9.7-6.7-3-14.7-3.7-22
			c-1.3-14.2,1-28.3-21.3-29.6c-80.1-4.7-151,16.8-213.8,67.2c-24.3,19.5-43,37.7-19,69.6c3.5,4.7,2.9,12.2,5.2,18
			c6.9,17.9-1.4,21.3-17.5,21.3c-14.3,0-14.8-8.8-17.5-18.8c-10-37.1-17.3-42.5-54.7-36.6c-71.4,11.3-129.7,46.1-177.6,100.1
			c-28.1,31.7-40.3,66.9-33.9,109.2c4.9,32.7,3.9,32.9,33.1,18.5c272.7-135.1,545.5-270.3,818.2-405.4
			C1792.2,1424.4,1849.2,1396,1906.2,1367.7z M844.6,1796.5c-51.8,63.1-94.1,131.3-122,208c-16.2,44.4-26.4,89.7-22.6,137.5
			c4.6,57.4,31.9,91.3,87.7,105.6c52.7,13.6,106.9,15,160.9,17.7c18.5,0.9,18-8.9,17.6-21.6c-1.9-73-3.9-146-5.2-219
			c-0.2-11.9-2.6-19.2-14.9-24.6c-33.8-14.7-55.2-42.3-71.7-74.4C853.7,1885.6,846.5,1842.5,844.6,1796.5z M1790,1960.3
			c105.5-5.6,213.3-31.2,312.7-87c125.3-70.4,214.5-174.3,275.8-302.9c8.5-17.8,24-46.7,8.9-57.2c-18.2-12.7-35.1,14.3-48.9,28.6
			c-34.3,35.8-66.1,74.1-101.2,109.1c-40.3,40.2-84.7,74.3-147.3,64.8c-12.2-1.8-15.5,5.7-19.4,14.1c-19.8,41.7-49.4,67.3-99.1,65.1
			c-18.5-0.8-40.9,2.1-49.9,21.3c-20.8,44.8-60.2,53.8-102.6,57.5c-32.1,2.8-53.3,17.6-64.4,48.2
			C1740.7,1960.2,1741,1961.3,1790,1960.3z M655.9,882.6c-18.9,0-37.8,0.4-56.7-0.1c-11.6-0.3-17.5,2.8-19.4,15.9
			c-6.7,47.3-12.5,94.8-8.2,142.5c2.5,27.8,8.2,55.9,31.7,75.2c22.7,18.7,50.8,16.2,77.4,15.2c52.7-2,95.3-25.7,116-74.2
			c21.5-50.4,8.6-100.6-18.8-146.7c-5-8.5-14.8-12.6-24-16.8C722.6,878.7,689.1,881.5,655.9,882.6z M1826,1652.1
			c22.8,6.1,39-11,57.7-20.5c9.3-4.8,16.4-9.3,7.6-22.2c-7-10.3-11.9-14.2-22.8-5.8c-9,6.9-20.4,8-31.1,6
			c-24.7-4.4-46.4,1.7-66,16.5c-36.4,27.4-74.4,50.2-123.1,42c-18.3-3.1-30.5,7.9-42.3,19.5c-26.1,25.9-57.3,40.6-94.4,39.8
			c-18.2-0.4-29.2,7.2-34.2,24c-13.1,44.5-44.3,60.6-88.5,57.6c-18.4-1.2-35.9,2.6-50.6,14.8c-30.6,25.5-28.8,39.4,7,54.1
			c4.2,1.7,8.6,2.9,12.5,5.1c16.4,9.3,28.3,7.1,41.8-8.1c24.3-27.5,55-48.6,91.6-53.6c39.3-5.4,68.9-23.6,94.1-52.3
			c19.7-22.4,44.4-41.3,74.2-38.7c40.9,3.6,66.1-16,89.8-43.9C1769,1663.6,1792.9,1649,1826,1652.1z M1832.4,631.2
			c0-18,0.8-36.1-0.2-54c-3.2-59-3.4-58.3-62.6-52.8c-15.4,1.4-16.5,6.4-15.3,19.8c7.4,83.8,3.3,167.2-12.6,249.9
			c-10.5,54.8-26,108.2-45.9,160.3c-2.6,6.8-12,16.6,2.3,20.8c24.6,7.3,47.8-3.5,59.4-26.7C1807.5,848.6,1833.1,743,1832.4,631.2z
			 M1344.1,1196.2c0,18.7,0,29.5,0,40.3c0.2,103.7,67.1,160.4,170.5,144.7c11-1.7,23.9-7.5,26.4,11.6c1.5,11.5,9.2,7.7,16.2,5.1
			c38.5-14.3,78.3-20.7,119.3-19.6c8.6,0.2,15.7-3,22.8-7.1c62-35.8,128.8-49.5,200-45.4c7.7,0.4,26.7,10.4,23.5-8.8
			c-2.5-15.6,10.2-42.1-23.5-44.8c-61.3-4.9-115.9,9.5-164.2,48.3c-26.7,21.4-54.5,41.5-88.9,49.7c-94.5,22.4-211-37.8-251.3-130.9
			c-27.8-64.1-33.8-130.2-17-198.4c1.9-7.7,15.7-20.2-6.2-23.7c-17.9-2.8-16.2,9.3-16.9,19.5
			C1350.9,1092.4,1347.3,1148.2,1344.1,1196.2z M2405.6,1285.9c1.2,0,2.4,0,3.7,0c0-23.4-1-46.9,0.3-70.3c1-18.4-5.6-21.9-22-16.9
			c-46.5,14.2-93.4,27-139.8,41.5c-47.1,14.7-40.1,2.9-34.9,54.8c7,69.4,37.5,98.2,100.9,99.3c25.4,0.4,50.1-4.6,74.5-12.1
			c12.6-3.9,17.6-10.6,17.4-23.2C2405.4,1334.6,2405.6,1310.3,2405.6,1285.9z M1419.4,1904.4c35.3,13.4,68.3,21.9,101.6,29.9
			c10,2.4,16.2,2.2,20.9-9.3c27.7-67.7,77.9-101.1,151.8-98.8c28.6,0.9,49.8-13.4,64.3-37.8c20.8-35,49.6-56.9,92.3-55.2
			c12.9,0.5,20.5-4.9,24-16.9c8.5-29.8,29.2-43.9,59.2-46.7c21.2-1.9,39.7-10.6,56.6-23.4c13.3-10.1,20.3-22.2,15.4-40.8
			c-40.9,34.5-94,44.1-137.1,73.3c-8.5,5.7-21.4,11.3-30.2,9c-38.9-10-58.4,16.2-79.7,39.2c-19.7,21.2-42.3,40.8-71.8,37.6
			c-38.4-4.1-63.3,13.5-86.7,39.1c-25.8,28.2-57.1,45.3-95.9,50.4C1471,1858.4,1444.1,1876.7,1419.4,1904.4z M1011,1979.2
			c91.8-2.8,151.4-57.8,150.2-138.5c-0.4-22.5-35.2-47-55-37.4c-63.1,30.6-125.6,62.3-188.6,92.9c-13.9,6.7-12.8,14.1-6.2,25.3
			C933.8,1959.6,966.1,1980.1,1011,1979.2z M1687,1960.4c12.4,1,23.3,1.4,25.7-15.4c10.6-73.4,55.8-106.7,127.5-109.6
			c18.6-0.8,35.7-8,44.6-26c18.4-37.3,50.9-48.2,89.1-49.3c34.9-1,55-16.4,67.1-48.1c7.5-19.6-13.2-20.5-18.6-31.5
			c-5.2-10.6-12.6-6.1-19.7-0.8c-20.8,15.5-45.1,22.7-70.2,25.7c-13.8,1.6-20.6,7.3-24.6,20.3c-8.7,28.4-28.9,43.5-58.4,42.6
			c-26.5-0.8-44.3,10.4-57.4,32.5c-26.5,44.6-66.9,63.7-117.8,62.2c-46.9-1.4-74.6,25.2-95.4,63.2c-7.9,14.4-4.6,20.8,11.5,22.6
			C1622.6,1952.3,1654.8,1956.5,1687,1960.4z M1437.2,1071.6c0-10.8,0.3-21.7-0.1-32.5c-0.3-6.4,3.7-15.7-7.7-16.7
			c-9.6-0.9-11.2,6.9-13.5,13.9c-12.2,36.6-15.3,74.5-10.3,112.3c8,59.9,29.3,113.9,81,150c73.2,51,147.8,63.7,231.6-7.9
			c50.1-42.8,110.7-60,176.6-52.8c20.6,2.3,21.9-5.8,21.4-22.1c-0.5-17.1-11.3-17.9-23.5-19c-78.1-7.4-145.2,21.4-200.2,72.2
			c-51,47.1-117,35.1-160.8,4.3C1461.4,1224,1437.7,1153.2,1437.2,1071.6z M1637.1,1016c34.2,22,61.8,47.3,70.4,86.8
			c4.5,20.8,11,25.8,32.2,20.4c56.9-14.7,110.9-43.4,172.3-37.2c7,0.7,11.8-1.4,13.6-9.4c9-38.5,26.6-73.5,51.9-112.1
			c-60.1,20.4-115.4,31.6-171.6,37.2C1749.7,1007.2,1693.4,1011.2,1637.1,1016z M2411.5,1086.3c0-16.2-0.8-32.5,0.2-48.7
			c1.1-17.5-5.9-21.6-22.4-18.4c-84.7,16.2-158.8,90.7-175.3,175.5c-3.8,19.7,3,18.8,17.8,14.1c37.7-11.9,75.9-22.5,113.8-33.8
			C2411.1,1155.4,2411.1,1155.3,2411.5,1086.3z M1677.4,1133.8c-0.4-48.3-37.3-84.4-86.3-84.3c-47.9,0-86.1,37.6-86.4,84.8
			c-0.3,48.9,38.2,86.4,88.1,85.7C1641.3,1219.4,1677.8,1182.2,1677.4,1133.8z M1084.1,2136.8c0.1,0,0.2,0,0.3,0
			c-1.6-33.3-4.7-66.7-4.4-100c0.2-24.3-3.5-38.1-32.1-27.4c-9.9,3.7-21.3,4.6-32,4.4c-15.7-0.4-19.5,6.2-19,21.1
			c1.6,55,1.8,110,2.8,165c1.2,70.4,1.3,69.7,71.1,69.6c17.9,0,21.2-6.3,20-22C1087.8,2210.7,1086.2,2173.7,1084.1,2136.8z
			 M556.2,1377.7c2.5-22.6-9.4-36.1-35.2-41.6c-52.2-11.1-131.1,22-157.8,67.7c-9.1,15.5-6.6,29.2,5.6,41.6
			c14.5,14.8,32.6,18.8,52.2,14.8c42.8-8.6,81.7-27.2,120.2-47C554.6,1406.4,556.3,1394.3,556.2,1377.7z M1508.3,1691.6
			c33.4,3.5,56.8-12.3,77.8-32.9c18.3-18,39.8-29.5,65.4-25.8c35.1,5.1,63-7.1,89.8-27.9c22.9-17.7,47.8-32.4,78.7-31.4
			c45.8,1.5,53.6-7.6,48.6-56.3c-22.5,6.1-44.6,19.5-67.9,14.6c-39.3-8.1-62.6,10-82.7,40.3c-22.7,34.2-57.3,56.1-96.6,45.6
			c-63.5-17.1-91.8,13.2-110.5,65.4C1510.3,1684.8,1509.9,1686.5,1508.3,1691.6z M1514.3,1601.2c-123.1,60.8-240,118.6-357.4,176.6
			c9.5,11.3,21.7,15.6,32.2,22.4c6.8,4.4,12.3,6.2,17.6-2.9c16.3-28.1,43.3-36.3,73.5-37.8c36.2-1.8,65.9-13.5,85.9-46.7
			c12.4-20.6,31-33.2,58.5-29.9c36.2,4.3,62.2-10.4,72.9-47.7C1500.3,1625.2,1506.7,1616.2,1514.3,1601.2z M1569.5,1573.6
			c67.6,18.6,99.6,16.4,134.7-39.1c19.1-30.3,48-43,85.7-38.4c58.8,7.1,115-35.6,125.6-93.8
			C1801.1,1458.9,1687.7,1515,1569.5,1573.6z M1580.4,1257.3c34.9,16.9,53.6,13.6,85.6-12.6c68.2-55.9,143.3-92.6,234.7-81.2
			c19.4,2.4,17-9.8,18.1-21.4c1.2-13,1.1-22.3-17.1-21.8c-23.6,0.7-46.8,2-69.2,9.9c-35.6,12.6-71.1,25.5-108.8,30.9
			c-6.8,1-13.8,2-17,10.8C1685.7,1229.3,1642.2,1255.1,1580.4,1257.3z M1104.9,726.8c-44.8,0.2-84.4-6-124.1,3.8
			c-18.9,4.7-29.8,17.5-27.7,37.1c2,19.2,14.8,30.8,33.8,32.8c17.8,1.9,35.8,1.4,53.7,2.1c7.7,0.3,13.6-2.2,18.1-9
			C1072.6,772.9,1087,752.6,1104.9,726.8z M2233.6,1002.8c37.3,2.4,65.7,19.1,97.2,0.6c16.8-9.9,36.2-16.3,56.2-17.9
			c16.7-1.3,24.5-8.3,22.2-25.8c-1.3-9.8-1.1-19.8-0.9-29.7c0.2-12-5.2-13.5-15.1-9.7C2339.5,941,2287.8,965.2,2233.6,1002.8z
			 M1148.2,1096.5c-20.7,8.2-40.3,16.2-59.9,23.9c-42.4,16.7-40.8,16.6-39.6,63c0.5,18.9,8,19.7,21.9,18.6
			C1117.2,1198.4,1148.1,1157.8,1148.2,1096.5z M2548.4,1804.7c-0.1,0-0.2,0-0.4,0c0,10.8,0.7,21.6-0.2,32.3
			c-1.8,22,6.9,24.7,25.1,15.9c35.7-17.3,54.1-73.5,34.7-107.2c-2.4-4.2-4.1-7.4-9.5-7.5c-25.8-0.4-49.1,21.9-49.7,47.7
			C2548.2,1792.1,2548.4,1798.4,2548.4,1804.7z M2245.8,1492.5c25.6-1.9,47.2-10.5,69.2-18.2c27.3-9.7,52.8-23,77.8-37.4
			c5.9-3.4,10.5-7.7,8.4-15.1c-3-10.7-10.5-3.4-15.4-2.6c-15.1,2.3-30.9,10.5-44.9,7.9c-49.6-9.2-70.2,24.2-91.8,57.5
			C2248,1486,2247.6,1487.8,2245.8,1492.5z M2553.1,1665.4c0,9.8,1.3,21.6-0.3,33.1c-3.1,23.1,9,19.2,21.5,12.6
			c40.8-21.2,43.3-79.4,5.2-105.3c-13.2-9-22.1-12.9-22.4,9.4C2557,1631.2,2554.7,1647.3,2553.1,1665.4z M2187.3,1493.6
			c12.4,1.6,15.7-5.7,19.9-11.3c10.3-13.7,21.7-26.8,30-41.7c4.2-7.6,21.8-13.2,8.7-26c-12.6-12.4-24.6-8.8-36.7,3
			c-13.5,13.2-28.6,24.8-42.9,37.2c-22,18.9-21.2,24,6.2,34.3C2178.3,1491.3,2184.4,1492.7,2187.3,1493.6z M2108.9,1175.3
			c36.8-25.4,87.8-20.6,101.7-70.2c-23.4,0-45.6,0.1-67.8-0.1c-8.1-0.1-13.6,3.5-17,10.6C2117.9,1132.6,2109,1149.2,2108.9,1175.3z
			 M1651.4,682.3c18.8-9.9,35.4-18.6,51.9-27.3c3.2-1.7,6.4-3.3,9.4-5.2c19.5-11.7,13.9-32,9-45.6c-4.4-12.4-17.3,2.5-26.6,4.3
			c-5.1,1-9.8,4.2-14.7,6.4C1638.5,633.3,1638.5,633.3,1651.4,682.3z M2128.8,1440.5c17.6-14.7,32.7-27.1,47.5-39.8
			c26.7-23,26.6-23.1,8.8-55.7c-11,7.8-21.9,15.5-32.8,23.2C2115.8,1393.6,2115.7,1393.6,2128.8,1440.5z M2106.4,1262.4
			c63.7-22.4,73.1-32.7,71.6-78.3C2104.6,1203.8,2098.4,1210.6,2106.4,1262.4z M1642.9,593.1c23.6-10.4,46.4-20.5,69.1-30.6
			c11.7-5.1,6.7-15.2,6.9-23.6c0.2-6.6-3.6-8.8-9.9-10.1c-50.1-10.4-67.9,3.3-68.4,53.8C1640.6,585.2,1641.7,587.7,1642.9,593.1z
			 M1357,1774.7c76.7,0.8,79.4-0.9,94-55.5C1398.9,1698.7,1388.2,1748.3,1357,1774.7z M1867,584.4c11.2-5.6,18.3-9.1,25.3-12.8
			c6.3-3.4,12.7-6.7,18.6-10.7c16.2-11.2,8.9-28.1,7.3-41.7c-1.6-13-14.9-4.9-22.5-4.8c-34,0.7-33.9,1.1-30.7,34.4
			C1866,559.3,1866.2,570,1867,584.4z M2171.8,1271.5c-2.5,0.7-5.4,0.9-7.6,2.1c-14.2,7.7-28.3,15.4-42.2,23.4
			c-11.5,6.7-19.6,37.7-10.3,46.5c12.7,12,18.3-7.1,28.2-9.9c5.7-1.6,10.1-7.4,15.7-10.1C2179.8,1312.1,2183.8,1294.5,2171.8,1271.5
			z M1660.2,911.5c-6-7.4,6-30.7-18.1-26.9c-15.5,2.4-30.6,9.4-45.2,16c-12.3,5.6-15.2,19.3-12.4,29.8c3.1,11.9,14.5,3.4,22.1,2.4
			c15-1.9,29.8-5.1,44.9-7C1659.5,924.9,1662.8,921.7,1660.2,911.5z M1322.8,1787.8c-24.6,6.9-48.4,1.3-69.5,11.9
			c-9.9,5-24.1,13.7-15.6,25c7.8,10.3,23.5,16.7,36.9,20.2c12.9,3.4,11.6-12.9,17.5-19.7C1302,1813.9,1311.3,1802,1322.8,1787.8z
			 M1917.7,867.8c-75.9,17.1-102.2,31.3-106.3,59.2c32.2-11,63.2-22.4,94.8-32.1C1922.7,889.9,1920.7,879.7,1917.7,867.8z
			 M1667.3,755.5c52.5-19.5,57.4-26.1,48.8-66.2C1653,716.4,1652.9,716.6,1667.3,755.5z M1836.2,857.2c18.9-6.5,36.5-12.8,54.2-18.6
			c12-3.9,17.4-9.5,12.2-23.4c-5-13.5-10.9-13.6-24.1-10.8C1851.1,810.3,1835.1,823.6,1836.2,857.2z M2165.8,1067.1
			c31-7.5,68.9,13.8,95.5-22.2C2198.4,1025.9,2192.5,1027.2,2165.8,1067.1z M1476.2,1095c12.2-31,32.6-52.5,60.9-69.9
			c-63.6-9.1-68.7-4.9-66.8,52.4C1470.5,1082.4,1468.5,1088.1,1476.2,1095z M1918.6,594.1c-15.5,18.9-47.5,11.8-40.8,43.1
			c1.5,7.2,1,20.9,17.5,17.1C1927.8,646.8,1919.3,622.9,1918.6,594.1z M1646.9,834.7c-8.6-5,2.9-22.9-13.7-21.5
			c-21.3,1.9-28.9,17.9-30.9,37.4c-0.5,5.3,0.6,10.8,5.8,8.2C1621.1,852.4,1641.2,856.5,1646.9,834.7z M1826.9,959.1
			c0.5,2,1.1,4,1.6,6c27-5.7,54-11.6,81.1-17c7.7-1.5,11-5.2,9.6-12.8c-2.1-11.6-10-4.8-14.3-3.4
			C1878.7,940.6,1852.8,950,1826.9,959.1z M1705.6,778.5c-6,2.5-10.8,5.1-15.9,6.4c-19.4,4.8-15.6,18.7-12.8,32
			c1.2,5.6,1.4,14.5,9.2,13.9c15.4-1.1,16-14.3,17.9-25.9C1705.3,797.1,1710,789.7,1705.6,778.5z M1651.8,962.6
			c-29.2,3.6-57.4,4.5-83.1,17.3C1613.6,987.7,1643.3,981.5,1651.8,962.6z M1868,719.2c-1.7,0.3-3.4,0.7-5,1
			c-2.1,12-4.6,23.9-6.3,35.9c-0.8,5.7-5.1,13.7,2.3,16.4c4.8,1.7,11.8-2,17.6-3.8c8.8-2.8,6.1-9.7,4.2-15.3
			C1876.9,741.9,1872.3,730.6,1868,719.2z M1918.7,685.1c-24.7,7-24.4,25,0,59.2C1918.7,724.5,1918.7,704.9,1918.7,685.1z"/>
		<path class="st1" d="M335.2,1925.8c3.5,72,4.1,144.3,18,215.6c5.8,30,22.8,46.3,51,51.9c48.2,9.6,91.2-0.8,126.5-36.6
			c6.3-6.4,12.6-13,19-19.3c7.5-7.5,15.5-12,26.4-6.1c10,5.3,14,13.7,13.5,24.3c-1,19.8-4.3,39.4-11.4,58
			C538.8,2317.1,465,2378.9,354.1,2392c-57.5,6.7-109.4-10.7-151.5-51.1c-55.7-53.5-87.1-119.9-90.2-196.9
			c-6.2-154.3-6.2-308.7,14.3-462.1c10.4-78,91.5-152.1,177.5-169.4c81.1-16.3,170.1,19.8,212.9,87c29.9,46.9,34.1,98,20.8,151
			c-3.6,14.2-9.8,29.1-27.5,28.9c-16.8-0.2-20.5-15.3-24.4-28.3c-4.2-13.7-7.3-27.8-12-41.3c-8.1-23.2-26.1-28.1-45.3-17.2
			c-49.6,28.4-87.5,66.5-92.6,127.8C333.2,1855.4,331.3,1890.6,335.2,1925.8z M545.5,2193.5c-14,7.9-27.4,16.8-41.9,23.4
			c-94.9,43.1-172.9,3.5-188.6-97.6c-14.1-91.1-15-183.2-15.7-275.2c-0.6-77.5,36.8-132.3,97.3-173.7
			c46.7-31.9,77.1-24.4,109.1,22.3c0.5,0.7,2.6,0.2,4.8,0.4c-1.8-37.7-13-71.7-40.5-97.7c-49.6-46.7-109.3-66.6-174.4-44.3
			c-69.1,23.7-126.8,64.9-136.4,145.4c-16.7,139.2-16.4,279.1-14.4,419c0.4,25.1,2.7,51,9.8,74.9c20.6,69.4,53,132,126.4,158.4
			C386.6,2386.9,523.6,2305.3,545.5,2193.5z"/>
		<path class="st1" d="M264.2,1507.3c-25.1,0.2-44.8-18.5-45.6-43.1c-0.8-25.3,19.9-46,45.6-45.5c25.1,0.4,44.3,19.6,44.3,44.2
			C308.5,1487.2,288.6,1507.1,264.2,1507.3z"/>
		<path class="st1" d="M156.6,1472.3c22.6-0.1,37.9,13.6,38.6,34.5c0.7,21.8-15.4,37.1-39,37c-23.1-0.1-37.7-13.3-38.4-34.7
			C117.2,1487,132.6,1472.4,156.6,1472.3z"/>
		<path class="st1" d="M2825.6,761.5c-1.3,72.7-24.8,136.5-62.8,194.9c-38.1,58.5-99.6,78.9-165.2,57.9
			c-70.5-22.5-120.8-86.7-116.4-155.2c6.2-95,54.2-169.6,128.9-224.4c46.1-33.8,101-32.9,151.5-5.3
			C2813.9,658.1,2826.1,708.4,2825.6,761.5z M2791.5,770.5c0.9-66-21.7-105.6-63.3-118.9c-42.9-13.7-83.1-7.3-115.5,23.4
			c-46.5,44-81.7,96.4-95.1,160.3c-12.6,60.3,19.2,115.9,78.5,141.8c52.4,22.9,104.3,10,136.2-37.2
			C2768.1,886.6,2788.9,827.5,2791.5,770.5z"/>
		<path class="st1" d="M697.7,936.2c41.1,0.2,70.2,29,69.9,69.3c-0.3,40.1-29.4,68.2-70.6,70c-38.2,1.6-70.8-32.7-70.6-70.9
			C626.7,965.1,657,936,697.7,936.2z M696.8,1040.5c19.9,0.3,36-15.1,36.3-34.9c0.3-19.8-15.2-36-35-36.3
			c-19.8-0.4-35.9,15.2-36.2,35.1C661.5,1024.6,676.5,1040.1,696.8,1040.5z"/>
		<path class="st1" d="M2750.9,768.4c-7.1,72.6-41.2,135.1-107.5,178.5c-24.7,16.2-51.3,17.4-76.4,0.9
			c-23.3-15.3-28.1-39.9-23.5-64.8c15.7-85.8,60-149.6,145.4-178.9c37.6-12.9,55.7-0.5,60.1,39.7
			C2749.7,750,2750,756.3,2750.9,768.4z M2715.8,775.5c0.6-42.2-4.6-45.9-33.9-32c-60.1,28.5-91.6,78.5-104.1,142
			c-2.5,12.7-2.7,25.6,9.9,33.9c13,8.6,26,5.7,37.9-2.2C2680.2,881.1,2708.4,829.2,2715.8,775.5z"/>
	</g>
</g>
</svg>
