<?xml version="1.0" encoding="utf-8"?>
<!-- Generator: Adobe Illustrator 23.0.0, SVG Export Plug-In . SVG Version: 6.00 Build 0)  -->
<svg version="1.0" xmlns="http://www.w3.org/2000/svg" xmlns:xlink="http://www.w3.org/1999/xlink" x="0px" y="0px"
	 viewBox="0 0 3000 3000" style="enable-background:new 0 0 3000 3000;" xml:space="preserve">
<style type="text/css">
	.st0{stroke:#000000;stroke-width:10;stroke-miterlimit:10;}
</style>
<g id="Layer_1">
</g>
<g id="Layer_2">
	<g>
		<path class="st0" d="M1643.3,2628.1c-188,5.6-362.2,8.6-536.2,16.6c-218.2,10.1-408-65.1-576.9-194.1
			c-186.6-142.5-246.7-355.5-175.4-579.6c29.1-91.6,72.8-175.7,131.2-251.5c18.7-24.2,11.7-27.3-12.5-34.3
			C340.9,1547,227.9,1477,138.9,1370.7c-57.5-68.6-96.7-145.5-103.7-236.8c-8.4-111.1-12.5-222.6,9.3-332.2
			c40.7-204.5,254.8-383.1,462.6-365c110.7,9.6,220.6-16.2,329.5,8.3c13.2,3,29.6,3,38.5,11c38.9,35.1,83.1,20,126,16.8
			c83.5-6.2,166.8-23.6,250.4-2.2c10.6,2.7,16.1-2.3,22.7-7.8c131-107.5,286.3-164.1,449.7-184.6c277.9-34.9,557.2-26.8,835.1,11
			c27.8,3.8,55.3,11.3,82.3,19.3c91.6,27.3,140.6,92.5,140.4,193.8c-0.5,250.8-75,476.5-238.1,669.3c-23,27.2-19.1,37.6,7.9,57
			c158.9,114.3,282.7,258,352.8,442.6c108.2,284.8,37.6,558.5-194,756.6c-102.1,87.4-214.2,158-347.8,187.4
			c-71.8,15.8-145.1,12.4-217.8,12.6C1972.9,2628.5,1801.2,2628.1,1643.3,2628.1z M838.9,1966.3c-142.1,0-284.3-0.2-426.4,0.2
			c-14.2,0-31.5-7.3-35,19.4c-12.4,93.6,4.2,181.6,44.5,266.2c7,14.8,15.7,19.6,31.8,16.6c138.8-25.9,275.2-11,411,22.9
			c149.5,37.4,220.2,124.5,219.1,277.3c-0.2,24.4,7.6,30.4,29.2,27.9c9.8-1.1,19.9-1.6,29.6-0.1c36.5,5.4,44.8-8.3,41.8-44.9
			c-9-109.5-12.6-219.5-19.7-329.2c-1.5-23.6,7.2-30,28.9-29.8c25.2,0.2,19.1,19.2,19.8,31.7c6.7,113.5,13.1,226.9,17.8,340.5
			c0.9,22.7,6.8,29.7,30,28.2c51.8-3.4,103.7-5.8,155.6-4.7c32,0.7,38.4-11.6,37.9-41c-1.7-107.5-0.4-215.1-0.9-322.6
			c-0.1-19.3,0.2-33.3,26.5-31.9c24.3,1.3,20,16.8,20,30.9c0.2,110,0.6,220-0.3,330c-0.2,21.9,5.2,31,29,29.6
			c39.4-2.4,79.1-3.4,118.5-1.4c28.8,1.5,37.7-6.9,37.2-36.6c-1.9-107.5-0.2-215.1-1.2-322.6c-0.2-21.9,4.9-31.5,28.6-29.6
			c24.8,2,18,19.5,18,32.5c0.5,106.3,1.4,212.6-0.4,318.9c-0.5,30.1,9,37.7,37.8,36.5c54.3-2.3,108.8-2,163.1-0.3
			c25.8,0.8,34.4-6.8,33.5-33.2c-3-92.6-3.9-185.3-5.4-278c-0.2-15.2-5.4-32.3,21.4-32.7c25-0.4,28.1,11.8,28.2,31.9
			c0.2,66.7,0.9,133.5,2.3,200.2c0.8,35.6-15.1,82.3,5.8,103.9c22.8,23.5,70.4,4.1,106.7,8.8c33.1,4.3,37.2-9.8,36.4-39.3
			c-3.7-142.7,75.3-257.2,207.2-306.6c141.9-53.2,285.2-66.5,430.8-17.2c19,6.4,28.1,2.7,37.7-14.8c33.6-61.4,54-126.6,66-195.3
			c5.7-32.8-0.5-43.7-37.1-43.4c-212.6,1.9-425.2,0.9-637.8,0.9c-80.5,0-80.5,0-82.2,78.4c-0.1,3.7,0,7.4-0.2,11.1
			c-3.9,57.8-45.3,90.8-103,83.4c-23.6-3.1-45.5-10.8-67.6-18.6c-9.1-3.2-17.7-10.8-27.9-4.9c-61.4,35.6-124.3,19.9-187,5.3
			c-11.7-2.7-21.6-7.8-34.6,1.1c-62.3,42.8-126.7,30.7-190.2,2.9c-14.3-6.2-24.1-7.9-40.3-2c-81.8,29.7-174.2,13.9-190.6-96.2
			c-1.5-9.8-4.6-19.5-4.4-29.2c0.5-26.2-12.3-32.1-36.8-31.9C1120.8,1966.9,979.9,1966.3,838.9,1966.3z M1198.2,516.5
			c-6.1-9.9-14.2-9-21.2-8.5c-56.7,3.7-113.2,9-169.9,11.5c-46.6,2-90.8,4.8-101.4,63.4c-0.8,4.5-4.9,8.5-7.8,12.5
			c-63.2,85.1-137,158.8-228.1,214.2c-14.5,8.8-23.8,13.3-35.4-5.4c-11.8-19-6-25.9,10.8-35.8c85.4-50.3,154.4-118.9,212-198.8
			c35.9-49.8,25.8-69.3-35.8-79.5c-69.4-11.5-137.9-2.5-206.6,5.8c-7.9,1-16.4,0.9-23,9.1C516,599,427.4,683.3,372.4,792.9
			c-9.8,19.5-18.6,24.3-39.3,12.4c-22.4-13-8.6-23.8-2.3-35.6c50.3-94.7,119.2-175.2,191.9-253c7.7-8.2,23.6-15.7,17-29.3
			c-5-10.3-20.1-6-30.7-6.3C325.3,476.8,132.9,620.7,93.9,801c-26,119.9-27.3,243.7-6,364.8c22.7,128.7,110.2,215.1,212.6,287
			c188.7,132.5,401.1,125.4,612.8,91.1c139.9-22.7,231.4-124.6,311.2-235c12.4-17.1-0.3-24-8.2-33.9
			c-160.4-198.7-175.6-413.6-71.5-641.8c5.3-11.5,10.9-22.8,19.8-41.2c-129,76.1-208.2,181.3-254.5,312.7c-6,16.9-10.8,28.7-33.5,20
			c-21.1-8-17.2-19.6-11.9-34.7c40.7-114.2,104.8-211.8,200.3-288.1C1106.5,568.7,1153.1,543.9,1198.2,516.5z M2735.3,553.6
			c0-18.5,1.2-37.1-0.2-55.5c-6.7-86.4-39.6-125.1-123.2-148.8c-38.1-10.8-76.9-17.1-116-22.5c-19.2-2.6-31.8,2.8-44,18.4
			c-120.2,153.5-240.5,306.8-362.3,459c-18.5,23.1-13.4,31.7,8.8,46.2c130.2,84.7,260.1,169.9,388.4,257.3
			c27.2,18.5,38.7,14.6,57-10.4C2662.7,935.2,2724.4,753.7,2735.3,553.6z M1648.1,1917.2c134.7,0,269.4,0,404.1,0
			c273.1,0,546.2-0.5,819.2,0.6c30.6,0.1,40.4-9.3,33.5-38.1c-1.4-6-2.8-12.3-2.3-18.3c2.8-36.5-15.3-43.8-49-43.4
			c-107.5,1.5-215-0.4-322.4-1.5c-672.1-6.8-1344.2-13.9-2016.4-20.7c-85.6-0.9-85.6-0.1-112.8,81.8c-13.1,39.4-13.1,39.5,30.2,39.5
			C837.5,1917.2,1242.8,1917.2,1648.1,1917.2z M2883.7,1771.1c0-4.7,0.8-8.6-0.1-12c-63-218.7-200.2-381.6-383.4-510
			c-13.5-9.5-21.2-4.6-31.3,5.1c-42.8,41.1-87.6,79.9-137.4,112.3c-15.5,10.1-20.3,22.4-20.2,40c0.5,109.9,1,219.7-0.3,329.6
			c-0.3,25.2,8.8,30.3,32,30.4c122.2,0.6,244.4,3.1,366.6,4.4C2767.4,1771.6,2825.2,1771.1,2883.7,1771.1z M2236.4,2582.9
			c44-5.1,77.8-5.8,110-13.2c177.9-41.1,315.7-144.4,432.3-280.6c21.5-25.2,1.3-26.9-15.1-31.7c-136.2-40-268.9-24.8-396.8,31.3
			c-108.1,47.4-166.8,145.9-161,255.3C2207.3,2573,2214.9,2589.4,2236.4,2582.9z M2409.5,323c-58.2-20.4-94.7-7.4-131.1,39.6
			c-162.8,209.5-330.3,415.4-495.9,622.8c-103.1,129.1-206.1,258.4-308.8,387.8c-5.7,7.2-21.5,12.9-8.5,26.6
			c25.9,27.3,75.9,24.1,99.3-5.6c217-275.2,434.1-550.2,651.2-825.3C2279.7,487.6,2343.7,406.4,2409.5,323z M463.3,2315.9
			c42.2,58.2,90.7,99.8,145.4,133.7c117.1,72.7,240,130.9,379.6,145c49.7,5,51.7,3.5,50.3-47.1c-2.6-94.4-49.4-160.8-137.9-194.7
			c-45-17.3-92.4-25.9-139.6-34.6C663.5,2300.1,565.7,2296.7,463.3,2315.9z M460.1,1748.7c55.7,0,103.7-0.2,151.6,0
			c139.6,0.7,279.2,1.8,418.8,2.1c11.3,0,30.2,8.5,30.4-14.7c0.5-64.9,0.2-129.9,0.2-198.7c-52,27.4-102,50.8-157.4,58.6
			c-103.1,14.6-206.4,19.4-310.2,8.1c-18.2-2-35.5-4.7-49.4,14.4C515.9,1657.3,487.8,1695.9,460.1,1748.7z M1337.6,1725.8
			c14.5-3,16.3-12.7,21.1-19.2c55.3-75.6,127.7-126.6,218.8-148.9c101.4-24.8,203.8-19.8,305.2-1.4c101.4,18.4,166.2,81,198,178.8
			c2.5,7.8-0.4,20.8,17.6,23.8c0-85.8-1-170.5,0.6-255.1c0.5-28.1-9.8-29.2-32.8-24.4c-245.3,51.4-485.5,57.8-708-83.8
			c-23.7-15.1-20.4,3.5-20.4,16.5C1337.6,1515.8,1337.6,1619.6,1337.6,1725.8z M1557.3,371.4c-295.1,76.9-504.7,394.3-416.7,626.4
			C1279,789.6,1416.2,583.3,1557.3,371.4z M2097.8,1423.6c-105.1-77.4-202.4-148.6-298.9-220.7c-15.4-11.5-20.6-2.6-28.6,7.7
			c-43.2,55.3-87,110.1-130.1,165.6c-17,21.9-38.1,41.1-50.6,71.1C1760,1476.7,1925.5,1466.8,2097.8,1423.6z M1782.5,319.7
			c-41.4-1.4-73.4,9.1-106.2,13.4c-30.8,4.1-50,18.9-67,44.7c-144.5,219.1-289.9,437.7-436.3,655.6c-17.9,26.6-23.9,49-0.5,77.9
			C1375,848.7,1576.4,587.3,1782.5,319.7z M1291.1,1551.7c0-60.5-0.2-121,0.2-181.5c0.1-14.3-0.3-28.3-15.1-34.6
			c-17.2-7.2-20,10.9-26.1,19.2c-35.3,48-74.7,92-120.6,130c-11.4,9.4-16.5,19.4-16.6,34.6c-0.5,69.1-1.5,138.3-3.9,207.4
			c-0.8,22.3,8.6,27,28.3,26.8c42-0.4,84-0.1,125.9,2.3c24,1.4,28.8-8.4,28.4-30C1290.3,1667.8,1291.1,1609.8,1291.1,1551.7z
			 M2393.8,1257.7c-1.2-13.5-12.4-15.7-20-21c-126-88.5-252.9-175.8-377.9-265.6c-30.1-21.6-37.1,1.5-50.2,17.2
			c-13.3,15.9-28.4,28.1-2.4,49.9c93.6,78.4,184.8,159.4,277,239.4c73,63.3,73,63.3,149.4,1.6
			C2378.1,1272.3,2386,1264.6,2393.8,1257.7z M1732.8,1589c-48.6-2.6-96.5,3.1-143.4,14.4c-78.7,19-141.6,62.7-189.1,128
			c-4.3,6-22.9,22.8-3.1,23.6c35,1.5,72.6,15.8,106.1-12.4c150.4-126.4,320.6-124.1,468.3,5.7c13.3,11.7,26.8,15.2,43.5,15.8
			c19.6,0.7,24.1-6.2,17.5-23.9c-20.8-55.4-54.7-98.5-110.6-122.7C1861.3,1591,1796.4,1594.7,1732.8,1589z M2244,1361.3
			c-112.8-98.1-225.4-195.8-337.6-294c-12.2-10.7-18.8-6-26.6,4.2c-15,19.6-29.3,39.9-46.1,57.9c-17.1,18.4-16.5,29.4,5.2,44.9
			c90.3,64.6,179,131.4,268.7,197C2161.4,1410.7,2188.2,1408.6,2244,1361.3z M2255.4,318.1c-1.1-3.7-2.2-7.4-3.3-11.2
			c-58,0-115.9,0-173.9,0c-32.2,0-86.9,49.8-85,82.2c4.5,74.4,12.3,148.6,19.5,232.1C2097.5,515.3,2176.4,416.7,2255.4,318.1z
			 M2262.8,1415.3c-35.7,13.6-66.1,26.5-97.5,36.6c-15.9,5.1-21,12.8-20.9,28.9c0.6,86.3,0.4,172.5,0.1,258.8
			c0,14.9,1,28.8,20.9,25.5c32.2-5.3,67.1,14.2,96.7-10.8c1.9-1.6,0.7-7.1,0.7-10.8C2262.8,1635.1,2262.8,1526.7,2262.8,1415.3z
			 M2484.6,1164.1c-4.8-3.9-9.1-8.1-14-11.3c-137.6-91.1-275.2-182.1-412.8-273.3c-31.2-20.7-32.1,14.6-45.6,25
			c-17.1,13-0.5,20.4,8.5,26.7c132.1,92.7,264.4,185,396.6,277.5c9.3,6.5,18.2,13.6,28.9,1.8
			C2459.2,1195.9,2475.3,1184.1,2484.6,1164.1z M1948.9,433.9c-33.5,42.6-60,76.5-86.7,110.2c-4.8,6.1-7.5,12.6-6.5,20.5
			c8.3,70.4,16.6,140.7,25.9,219.7c29.4-36.2,53.1-65.7,77.2-94.9c7.7-9.3,9-19.5,8-31.1C1960.9,587.3,1955.4,516.2,1948.9,433.9z
			 M1556.7,937.5c-40.2,51.4-76.5,97.9-112.8,144.3c-3,3.9-6.8,7.9-7.9,12.4c-1.9,7.7,104.7,102.1,113.3,101
			c12.9-1.6,64-74.3,59.9-88C1592.9,1052.3,1575.5,997.7,1556.7,937.5z M1665.3,798.2c-21.3,27.1-40.2,51.2-59.3,75.2
			c-6.3,7.9-13.2,16-10,26.5c17.1,56.7,34.7,113.2,53.7,174.8c36.2-44.9,67.6-84.4,99.7-123.3c8.6-10.4,8.6-18.4,1.1-29.2
			C1722.4,882.1,1694.9,841.5,1665.3,798.2z M1813.1,608.4c-40.3,51.4-74.2,95-108.5,138.2c-7.7,9.7-5.2,17.4,1.2,26.5
			c28.2,40.3,55.9,81,84,121.8c48-45.9,48.7-46.1,42.6-109.4C1827.2,729.6,1820.4,673.8,1813.1,608.4z M1625.5,1966.3
			c-19.6,0-39.3-0.3-58.9,0.2c-9,0.2-18.5-2.7-23.1,11.4c-26.9,84.1-11.2,109.6,77.2,122.9c3.6,0.5,7,2.4,10.6,2.7
			c48.6,4.1,74.1-18.3,75.3-65.9c1.7-71.3,1.7-71.3-70-71.3C1632.8,1966.3,1629.1,1966.3,1625.5,1966.3z M1837.2,1966.3
			c-85.5,0-85.5,0-84.3,81.7c0,2.5,0,5-0.4,7.4c-1.9,10.9,4.1,15.8,13.5,18c39.4,9.3,78.3,20.5,119.9,14.3
			c23.6-3.5,33.3-13.4,32.9-38.6C1917.6,1966.3,1918.5,1966.3,1837.2,1966.3z M1523.2,901.8c-13.5-2.4-20-2.4-25.6-4.7
			c-61.6-25.6-102.9-7.7-139.9,49.3c-46.8,72-48.7,75.5,38.1,96.5c9.7,2.3,16.3,2.6,22.6-5.5C1452.1,993.6,1485.9,950,1523.2,901.8z
			 M1378.3,1088.1c-10.9-4.7-18.4-8.2-26.1-11.1c-70.6-26.7-70.6-26.7-116.7,31c-47.1,59-47.1,59,1.6,117.6c1.6,1.9,3,3.9,4.4,5.9
			c8,11,15.2,14.3,25.3,0.9C1303,1184.7,1340,1137.6,1378.3,1088.1z M1672.9,709.8c-41.7,3.1-72.4,4.3-102.8,8.3
			c-13.9,1.8-31-3.6-41.6,9.9c-27.7,35.2-54.6,71.1-84.1,109.8c35.6,6.9,65.8,12.3,95.7,18.8c9.4,2.1,16.8,2,23-5.9
			C1597.7,806.3,1632.2,762,1672.9,709.8z M1421,1966.4c-19.6,0-39.3,0-58.9,0c-10.2,0-21-0.3-18.5,14.9
			c4.5,27.7,4.9,56.6,21.7,80.8c21.7,31.3,103.6,38.2,116,8.4c12.7-30.5,22.1-67.5,11.4-96.5c-7.2-19.6-44.5-4.3-68-7.6
			C1423.5,1966.2,1422.3,1966.3,1421,1966.4z M2032.9,1966.4c-16.1,0-32.1-0.3-48.2,0.1c-8.1,0.2-16.4-1.6-20.3,10.3
			c-16.7,50.4,7.7,96.6,59.6,110.5c54,14.5,71.7,2,74-52.2C2100.9,1966.3,2100.9,1966.3,2032.9,1966.4z M1569.3,1757.2
			c112.3,0,222.3,0,337.1,0C1808.9,1676.2,1645.5,1682.7,1569.3,1757.2z M1980,310.1c-112.1-12.4-164.7,12.8-190.5,89.6
			C1914.5,407.6,1925.9,402.4,1980,310.1z M1689.1,525.8c33.1,11.8,68.4,7,101.7,14.7c7.6,1.8,14.7-0.5,19.7-7.1
			c20-26,39.9-52,60.8-79.3C1770.6,430.4,1731,446.3,1689.1,525.8z M1573.8,669.6c77.9-10.2,158.3,11.4,188.2-82.4
			c-31.7-10.6-66.9-6.8-100.4-14.2c-9.6-2.1-16.1,2.6-21.8,10.2C1620,609.5,1599.8,635.5,1573.8,669.6z M1515.6,1242.8
			c0.3-13-8.8-16.7-14.8-22c-22.1-19.5-47.3-36.1-66.4-58c-26-29.8-41.2-21.4-59.7,6.8c-9.5,14.5-9,23.3,2.3,34.5
			c21.7,21.7,42.3,44.6,64.8,65.4c9.7,9.1,18.2,31.4,32.7,21.7C1491.8,1279.6,1502.9,1258.4,1515.6,1242.8z M1436.9,1334.5
			c-3.2-3.7-7.7-9.4-12.7-14.6c-24.9-25.5-49.8-51-75-76.3c-8.1-8.1-19-23.5-27.2-3.7c-7.3,17.5-45.9,26.4-20.8,52.4
			c27.2,28.1,60,50.8,94.3,70.4C1410.4,1371.2,1437.1,1354.3,1436.9,1334.5z"/>
		<path class="st0" d="M446,888.4c201.9-5.6,448.6,245,294.4,518.4c-21.8,38.6-50.1,72.7-83.6,102.5c-12.7,11.3-21.7,14.7-31.9-1.6
			c-7.1-11.2-17.7-14.8,0.5-32.5c75.8-73.7,129.1-160.4,112.9-272.5c-29.2-202-249-321.2-442.6-241.5
			c-43.8,18.1-84.1,42.3-116.5,77.1c-16.8,18.1-26.2,7.4-38.9-3.2c-17.8-14.9-3.1-22.8,6.1-31.6C223.8,929.6,315.5,890,446,888.4z"
			/>
		<path class="st0" d="M244.8,1190.7c-0.5-83.8,65.7-150.9,149.1-151.4c83.7-0.5,150.5,65.6,151,149.5
			c0.6,83.6-65.7,151-149.1,151.8C312.7,1341.3,245.2,1274.3,244.8,1190.7z M394.6,1291.3c59.4,0.1,103.3-43.5,103-102.3
			c-0.3-57.7-46.5-102.9-104.4-102.3c-54.9,0.6-101.2,46.8-102,101.9C290.3,1245.9,335.9,1291.2,394.6,1291.3z"/>
	</g>
</g>
</svg>
