<?xml version="1.0" encoding="utf-8"?>
<!-- Generator: Adobe Illustrator 23.0.0, SVG Export Plug-In . SVG Version: 6.00 Build 0)  -->
<svg version="1.0" xmlns="http://www.w3.org/2000/svg" xmlns:xlink="http://www.w3.org/1999/xlink" x="0px" y="0px"
	 viewBox="0 0 3000 3000" style="enable-background:new 0 0 3000 3000;" xml:space="preserve">
<style type="text/css">
	.st0{stroke:#000000;stroke-width:10;stroke-miterlimit:10;}
</style>
<g id="Layer_1">
</g>
<g id="Layer_2">
	<g>
		<path class="st0" d="M725.7,1251.6c-26.7-15.4-49.8-30.1-71.7-46.7c-97.2-73.7-146.7-172.5-158-292.9c-8.6-91.6-6.9-183-1.5-274.6
			c4-67.9,4.2-136.1,13.5-203.6c5-36.3,11.6-72.4,24.1-107c28.1-78,80.3-130.1,161.7-151.7c80-21.2,161.8-31.1,243.9-38.8
			c117.9-11.1,235.8-21.8,353.9-30.3c140.2-10.1,280.4-23.2,421.4-17.1c30.8,1.3,61.4,5.1,91.1,13.3c91.7,25.1,140.9,90.4,164.7,178
			c4.3,16,11.9,22.5,26.9,24c31.6,3.3,62.9,9.9,97.3,8.4c-14.4-28.9-25-56.5-25.9-87.3c-2.2-77,55-138,136.2-152.4
			c45.2-8,85.7,3.2,124.3,24.2c73.6,40.2,144.6,84.5,206.5,141.7c54.9,50.7,97.2,109.7,111.6,185c16.8,87.7-14.8,186.6-115,229.6
			c-1.8,0.8-3.3,2-5,3c232.1,255.9,17.7,559.8-233,581.6c1,6.8,7.5,6.8,11.7,8.9c210.2,105.5,333.2,274.4,367.3,507.2
			c4.1,27.7,5,56.1,5.1,84.2c0.5,155.8,3.2,311.7-0.4,467.5c-6.5,278.2-137.7,478.2-388.9,597.8c-77.1,36.7-160,53.5-245.4,53.6
			c-348.3,0.5-696.7,2.2-1045-0.4c-309.5-2.3-576.8-239.6-623.2-547.1c-5.4-35.7-7.7-71.5-7.7-107.6c0.1-152.6-1.1-305.1,0.3-457.7
			c2.3-261.8,119.4-456.4,346.9-585.1C716.4,1257.3,719.6,1255.2,725.7,1251.6z M1489.8,2909.6c168.3,0,336.6-0.2,504.8,0.4
			c14.5,0,21.9-4.5,28.5-17.2c31.8-60.9,61.1-123,88.1-186.2c6.6-15.5,6.9-22.5-11.8-28.6c-58.4-19.2-107.4-53.5-147.6-100.1
			c-80.1-92.8-86.5-209.9-13.8-308.5c72.3-98,172.5-140.8,292.8-138.4c14.7,0.3,19.3-3.7,20.6-17.4c5.2-55.4,10.5-110.8,8.4-166.6
			c-6.2-163.5-83.9-277.9-234.4-343c-64.3-27.8-132-41.4-200.7-51.9c-34.5-5.3-33.7-5.6-35.9,28.5c-4.6,71.4-30,128.6-106.7,148.5
			c-8.2,2.1-11,6.8-11.9,15.2c-3,28.6-8.3,57-10.4,85.7c-4.3,58.5-33.9,99.4-85.6,124.1c-13.9,6.6-19.1,14-20.1,28.8
			c-3.2,47.1-10.8,93.5-28.3,137.7c-13.7,34.4-40.3,52.7-75.6,57.8c-24.4,3.5-49.1,3.2-73.9,2c-49.7-2.3-81.5-27.9-99.4-72.9
			c-14.3-35.7-21.4-73.1-19.2-111.3c1-17.5-3.8-21.1-20.2-23.2c-71.9-8.9-103-42.6-109.3-114.9c-1.9-21.6-1-43.2,3.3-64.5
			c2-10.2,1-16.5-9.5-21.9c-56.1-28.7-91-75.7-109.8-134.7c-5.1-15.8-9.9-14.8-22.1-8.1c-96.9,53.2-160.7,133.8-198.9,236.4
			c-27.1,72.7-41.3,148.4-55.1,224.3c-10.9,59.8-18.1,120.5-39.8,177.7c-22.2,58.4-54.9,75.3-115.2,59.8
			c-51.3-13.1-102.3-10.9-153.7-2.2c-10.6,1.8-13.9,6.7-12.9,17.2c3.1,31.9,6.1,63.8,13.2,95.2c62.5,278.5,303.3,471.7,589,472.3
			C1174.2,2909.9,1332,2909.6,1489.8,2909.6z M2072.9,2905.9c20.7,2,40.5-2.1,60.2-5.8c292.4-55.5,495.1-299.8,495.6-597.5
			c0.3-154.5,0.2-309,0-463.5c-0.1-42.6-3.7-85-12.7-126.8c-60.8-283.1-302.8-478.8-593.4-479.2c-333.9-0.5-667.8-0.4-1001.7-0.1
			c-83.3,0.1-164.4,13.4-240.6,48.4c-229.4,105.5-353.7,285.1-365.2,536.7c-6.7,147.7-1.2,295.9-1.7,443.8
			c0,13.2,3.1,16.8,16.5,14.3c57.4-10.8,114.4-9.5,171,6.1c23.7,6.5,33.1,2.4,44.4-19.6c12.4-24.1,18.6-50.2,23.6-76.6
			c16.6-85.9,30.3-172.4,51.1-257.5c50.3-205.5,176.6-338.3,379.8-397.5c99.2-28.9,201-41.2,303.9-43.6
			c129.7-3,259.3-0.2,388.4,12.2c91.4,8.8,181.2,26.3,265.3,65.7c113.4,53.1,194.9,135.1,231.3,257.1
			c14.1,47.3,18.8,96.1,19.2,145.4c0.7,97.2-12.3,193.2-25.5,289c-30.4,220.3-99,428.8-200.4,626.7
			C2078.6,2890.7,2073.3,2896.9,2072.9,2905.9z M824.3,464.7c61.5,0,123.1-0.3,184.6,0.2c12.6,0.1,18-3.5,16.9-16.6
			c-1.8-21.1,2.1-41.4,7.5-61.9c16.8-64.4,32.5-129.1,48.7-193.7c5.7-22.7,5.6-23-17.1-20.9c-52.1,5-104.2,9.7-156.1,15.7
			c-68.8,7.9-137.6,16.3-204.7,35c-44,12.3-79.8,35.3-104.5,74.4c-15.9,25.2-25.5,52.8-32.4,81.6C551.2,445,548.5,513,545.3,581
			c-4.9,105.3-13.2,210.5-1.9,315.8c7,64.6,18,128.1,57,183.2c44.7,63.2,103.8,108.1,172.8,141.3c9.3,4.5,17.2,3.3,26.3,0.1
			c67.2-23.6,136.7-35.5,207.9-36c14.6-0.1,18.8-3.9,18.6-18.7c-0.7-77.3-0.3-154.5-0.4-231.8c0-28.8,2.9-25-25.1-25
			c-108-0.1-216.1,0-324.1-0.2c-6,0-15.9,3.6-17.2-4.2c-2.2-12.7-3.4-26.9,0.3-38.8c3.1-10,16.3-4.8,24.9-4.8
			c106.7-0.3,213.4-0.7,320.2,0.2c17.9,0.1,22-5.3,21.5-22.2c-1.2-42.5-1.3-85.1,0-127.6c0.6-17.9-4.4-22.8-22.6-22.7
			c-121.1,0.8-242.2,0.5-363.4,0.3c-6.3,0-15.8,3.2-18.5-2.4c-5.9-12.6-4-27.1-1.5-40.3c1.7-8.9,12.3-4.8,18.9-4.8
			c122.4-0.2,244.9-0.5,367.3,0.2c15.8,0.1,20.2-4.5,19.6-19.9c-1.1-30.1-1.1-60.3,0-90.3c0.6-15.3-3.8-19.8-19.5-19.7
			c-119.8,0.7-239.6,0.5-359.4,0.3c-31.7-0.1-26.7,5.3-28.4-27.9c-0.8-16.7,5-20.9,21-20.7C701.2,465.2,762.7,464.7,824.3,464.7z
			 M1666.9,293.1c0,0.2,0,0.3,0,0.5c-79.2-2.3-158.4-4-237.5-7.3c-17-0.7-21.4,4.6-21,20.5c0.7,29.4,1.2,59-1.2,88.3
			c-1.7,21.1,5.1,25.6,25.3,25.5c128.3-0.9,256.7-0.5,385-0.3c6.8,0,16.8-3.6,19.5,4.6c4.1,12.3,4.3,26.4,0,38.6
			c-3.5,10-15,5.2-22.9,5.2c-129,0.3-258,0.6-387-0.3c-18.6-0.1-23.2,5.8-22.8,23.2c0.7,34.7-0.2,69.4-1.4,104.1
			c-0.4,11.6,2.1,16.2,14.8,15.9c32.1-0.9,64.2-0.3,96.2-0.3c102.1,0,204.3-0.1,306.4,0.2c6,0,15.8-3.7,17.2,4.3
			c2.1,12.7,3.3,26.9-0.4,38.8c-3.1,9.8-16.4,4.6-24.9,4.6c-130.3,0.3-260.6,0.5-390.9-0.1c-16.5-0.1-21.5,4.9-21,21
			c0.9,29.4,1.1,59-0.9,88.3c-1.1,16.5,4.3,19.5,19.3,19.4c121.8-0.5,243.6,0.4,365.4-0.9c22.8-0.2,19.5,11.7,19.9,25.5
			c0.4,14.2,0.7,23.6-19.7,23.4c-122.4-1.2-244.9-0.3-367.3-0.9c-14.8-0.1-20.2,3.2-20.4,19.1c-1.4,105.4-3.6,210.8-6.3,316.1
			c-0.3,12.9,4.1,15,15.5,14.9c91.7-0.4,183.3-0.3,275-0.1c8.3,0,14.9-2.1,21.3-7.6c147.8-129.4,235.1-290,252.3-487.2
			c10.9-124.5-9.1-246.7-24.5-369.4c-2.1-16.5-9.7-20.8-25.4-21.1C1825.2,298.2,1746,295.5,1666.9,293.1z M1353,673.9
			c0-15.3-0.2-25.1,0-35c3.7-157.7,7.3-315.5,11.3-473.2c0.3-12.3-1.7-16.9-15.9-15.7c-63.9,5.4-127.9,9.7-191.8,13.6
			c-13.5,0.8-19.1,6.2-22.1,19c-11.8,49.5-25.2,98.6-37,148.1c-8.2,34.2-23.1,67.5-23.2,102.9c-0.8,244.9-0.3,489.8-0.7,734.6
			c0,14.3,4.6,17,17.8,16.9c77.3-0.6,154.5-0.7,231.8,0c14.2,0.1,19-3.2,19.3-18.2C1345.5,1000.9,1349.4,834.6,1353,673.9z
			 M2127.3,659.5c-36,0-72,0.1-108-0.1c-8.8,0-14.3,1.1-15.2,12.4c-3.4,43.7-8.1,87.3-18,130.1c-1.1,4.9-2.9,12.4,4.8,12.2
			c26.5-0.9,52.6,10.2,79.5,0.5c43.1-15.7,87.3-16.2,130.9-3c32.5,9.9,58.4,30.6,73.2,61.5c19.6,40.8,31.4,84.2,34.7,129.7
			c2.4,33.6,2.8,32.8-30.6,37.4c-12.8,1.7-15-2-15.8-13.8c-2.5-38-10-75-22.2-111.2c-12.1-35.8-35.8-57.6-73.2-62.3
			c-76.3-9.6-122.3,13.3-141,84.8c-8.9,34.3-12.1,69.7-10.7,105.1c2.4,58.7,32.2,99.2,84.7,124.1c27.8,13.2,57.6,16.6,87.4,20.3
			c106,12.8,204-5.3,285.2-79.6c71.2-65.1,112.4-144.2,101.3-243.7c-8.4-75-48.6-134.1-98.1-188.1c-4-4.4-8.5-4.7-14.2-3.8
			c-26,4.3-52.1,4.1-78.3,3C2298.3,671.2,2213.1,659.1,2127.3,659.5z M2396,628c23-0.6,45.8-1.1,68.5-5
			c98.6-17.1,151.6-92,133.7-190.4c-9.7-53.3-37.4-97.3-74.2-135.7c-68.3-71.3-151.2-122.2-238.4-166.4
			c-39.7-20.1-79.2-15.1-118,5.4c-33.1,17.5-51.2,44.5-52.3,81.5c-1.3,40.5,15.9,73.4,46.9,99c2.8,2.3,7.1,3.1,10.8,4.3
			c35.8,12.2,71.8,24,107.5,36.5c17.3,6,33.9,13.9,48,25.9c21.3,18.1,21.2,21.8-3.1,35.2c-6.7,3.7-13.9,14.1-21.9,7.3
			c-33.7-28.6-77.3-33.6-116.1-49.8c-20.6-8.6-42.4-11.6-65-12.5c-37.9-1.5-75.7-5-113.4-9c-25.8-2.7-25.7-3.8-23.1,22.3
			c0.3,2.6,0.7,5.2,1,7.8c7.9,69.5,18.1,138.8,17.9,209c0,15,4.6,18.4,19,18.2c61.5-0.8,123-2,184.4,2.7
			C2270.8,619.1,2333.4,623.5,2396,628z M1905.2,247.2c0,0.4,0.3-1.6-0.5-3.2c-1.9-4.2-4-8.2-6.3-12.2
			c-33.2-58.8-86.1-85.5-151.1-91.6c-107.3-10.1-214.4-2.1-321.6,4.1c-11.3,0.7-14.2,5.7-14,16.1c0.5,20.3,1,40.7-0.5,60.8
			c-1.1,14.3,3.8,16.9,17.2,17.2c107.3,2.4,214.6,6.2,321.9,8.6C1801.9,248.2,1853.5,247.2,1905.2,247.2z M2037.4,2416.2
			c4.6,68.6,38.6,122.8,105.1,155.6c7.6,3.7,15,8.7,19.4-4.9c33.2-102.2,57-206.6,72.6-312.9c1.3-8.8-1-11.6-9.7-12.2
			C2130.6,2236,2039.4,2306.1,2037.4,2416.2z M1310.2,1593.3c1.2-51.9,1.2-51.9-44.8-47c-0.6,0.1-1.3,0.1-2,0.2
			c-67.4,9.1-133.6,23.5-197.5,47.3c-8.2,3.1-15.5,5.3-12.1,17.5c18.6,67.3,67,124,142,134.4c56.7,7.9,91.8-16,104.5-71.9
			C1306.8,1645.8,1310.6,1617.3,1310.2,1593.3z M1283.8,1928.4c0-0.3,0-0.6,0.1-1c9.2,0,18.4,0.7,27.5-0.1
			c32.6-3.1,61.7-13.4,78.3-44.3c19.3-35.8,28.9-73.9,26.3-115c-0.6-9.7-3.2-13.5-12.9-14.8c-16.8-2.4-34.1-4.3-49.7-10.3
			c-18-6.9-28.6-4-40.3,12c-14.2,19.5-36.5,29.1-59.8,34.8c-19.3,4.8-38.9,6.1-58.4,3.7c-12.4-1.5-16.5,3.3-17.4,14.3
			c-1.7,20.8-3.7,41.7,1,62.4c8.9,38.8,21.1,50.1,60.5,54.7C1253.7,1926.6,1268.8,1927.2,1283.8,1928.4z M1440.9,1707.6
			c42.4,0.6,79.7-7.8,99.8-49.2c17.5-36.1,16.8-74.6,12.5-113.3c-0.8-7.6-5.1-9.6-11.9-9.7c-56.9-0.5-113.8-2.4-170.7,1.7
			c-10.4,0.8-13.2,4.8-12.6,14.6c2.7,42-0.7,83.7-9.6,124.8c-2.6,11.9,1.7,16,12.1,19.1C1387.2,1703.4,1414.2,1707.1,1440.9,1707.6z
			 M1767.8,1183.8c90,0,177.1,0,268.9,0c-72.4-60.6-75.9-137.2-64.2-219c5-35.4,15.2-68.3,32.7-99.8c-34-5.2-34-5.2-44.8,23.8
			c-33.6,90.5-81.1,172.7-145.9,244.5C1799.8,1149.7,1784.7,1165.6,1767.8,1183.8z M1305.6,2006.3c0.4,32.3,6.5,63.4,20.2,92.9
			c8.4,18,22.4,28.5,41.8,31.7c25.7,4.3,51.5,3.5,77-0.5c16.9-2.6,30.6-10.5,36.9-28c13.7-38.3,21.8-77.7,24.7-118.3
			c0.7-9.8-1.6-13.7-12.3-14.3c-28.4-1.6-55.4-9.1-79.7-24.2c-6.5-4-11-4.3-17.3,0.6c-22.6,18.2-49.2,26.7-77.8,28.3
			c-11.6,0.6-14.6,5.7-13.6,16C1306,1995.8,1305.6,2001,1305.6,2006.3z M1502.6,1921.7c56.7-0.2,100.7-34.2,108.1-85.1
			c4.1-27.7,5.8-55.8,9.6-83.5c1.3-9.8,0-13.8-10.8-15.1c-14.9-1.8-29.2-7-42.1-15.1c-6.1-3.8-11-5.5-17.3,0.2
			c-21.7,19.4-48,28.6-76.5,31.4c-9.2,0.9-10.3,5.3-9.7,12.9c3,43.3-6.4,84.4-24.5,123.4c-4.5,9.8-1.9,13.8,6.7,17.8
			C1464.1,1917,1482.7,1921.8,1502.6,1921.7z M2210.2,2179c-89.6,2.8-165.3,36.2-223.2,105.3c-35.1,41.9-55.4,89.9-50.6,146.1
			c7.7,90.1,89.9,175.5,189.4,206.8c6.2,2,10.4,2.4,13.6-5.5c3.7-9.2-2.5-10-7.6-12.1c-21.9-9-42-20.6-59.9-36.3
			c-68.2-60-97.4-134.4-75.1-223.1c22.3-88.7,82.8-141,171.2-161.7c20.6-4.8,41.5-5.1,62.4-4c6.7,0.4,11.6-0.3,12.1-8.5
			c0.5-9-6.2-6.5-10.8-6.8C2224.6,2178.7,2217.4,2179,2210.2,2179z M1652.1,1538.2c0-0.2,0-0.4,0-0.6c-12.4,0-24.8,0.7-37.2-0.2
			c-11.8-0.8-13.9,3.4-12.7,14.6c3.9,38.6,2,77-12.3,113.6c-4.2,10.8-0.9,14.6,8.7,18.9c36.5,16.5,105.5-4.7,125.3-39.2
			c1-1.7,1.8-3.5,2.6-5.3c11.1-27.6,15.6-56.3,15.2-86c-0.1-8.5-3.4-11.3-11.5-11.6C1704.2,1541.5,1678.2,1539.7,1652.1,1538.2z"/>
		<path class="st0" d="M1953.9,2132.5c-34.1,0.2-61.4-26.1-62.2-59.9c-0.8-33.9,27.7-62.6,61.9-62.5c33.7,0.1,60.9,27.5,61,61.2
			C2014.7,2105.3,1988,2132.2,1953.9,2132.5z"/>
		<path class="st0" d="M1831.6,2253.7c-33.5-0.4-60.9-28.2-60.7-61.6c0.2-34.7,28.2-61.5,63.3-60.7c33.7,0.7,60.8,28.9,59.9,62.4
			C1893.2,2227.1,1865.1,2254.1,1831.6,2253.7z"/>
		<path class="st0" d="M2059.3,2037.8c0.2-34.8,25.8-59.7,61.1-59.6c35,0.2,61.3,25.7,61.2,59.8c-0.1,35.3-26.6,61.1-62.3,61.8
			C2085.7,2100.5,2059.1,2071.7,2059.3,2037.8z"/>
		<path class="st0" d="M1745.2,2335c34.3,0.2,60.6,26.9,60.5,61.2c-0.1,33.8-27.3,61.3-60.8,61.6c-33.5,0.3-62.7-29.3-62.1-62.8
			C1683.4,2361.6,1711.4,2334.7,1745.2,2335z"/>
		<path class="st0" d="M1833,2599.5c0.1,34-26.7,61.4-60.4,61.8c-33.8,0.4-62.7-28.6-62.3-62.4c0.4-33.2,28.6-60.9,61.9-60.7
			C1806.2,2538.3,1832.9,2565.3,1833,2599.5z"/>
		<path class="st0" d="M1952.9,2828.4c-33.8-0.2-61.2-27.5-61.2-61c0-33,28.1-61.5,61-61.8c34-0.3,62.3,28.4,61.8,62.7
			C2014.1,2802.4,1987.2,2828.6,1952.9,2828.4z"/>
	</g>
</g>
</svg>
