<?xml version="1.0" encoding="utf-8"?>
<!-- Generator: Adobe Illustrator 23.0.0, SVG Export Plug-In . SVG Version: 6.00 Build 0)  -->
<svg version="1.0" xmlns="http://www.w3.org/2000/svg" xmlns:xlink="http://www.w3.org/1999/xlink" x="0px" y="0px"
	 viewBox="0 0 3000 3000" style="enable-background:new 0 0 3000 3000;" xml:space="preserve">
<style type="text/css">
	.st0{stroke:#000000;stroke-width:10;stroke-miterlimit:10;}
</style>
<g id="Layer_1">
</g>
<g id="Layer_2">
	<g>
		<path class="st0" d="M1290,2666.4c-42,37-84,64.6-129.1,87.4c-61.8,31.3-128.6,44-196.7,47.7c-180,9.7-360,5.4-539.6-9.9
			c-113-9.6-196.8-65.8-253.3-162.5c-59-100.9-90.9-209.5-91.2-327.4c-0.4-135.1,0.5-270.3-6.3-405.1
			c-6.5-127.2,45.2-224,137.5-303.8c16.8-14.5,15.2-22.1,3.3-38.1c-67.8-91.3-105.9-193.1-98-308.2
			c8.1-119.4,66.1-207.9,172.5-268.7c-32.8,0-65.5-0.1-98.3,0c-46.2,0.2-46.2,0.2-46.2-46.3c0-24.8,0.4-49.6-0.1-74.4
			c-1.7-96.8,0-192.5-19.7-289.4C90.6,399.9,214,246.2,384.1,231.4c81.5-7.1,146.8,26.8,195.4,90.5c16.6,21.7,22.4,18.8,37-0.6
			c30.3-40.2,69.4-70.7,115.4-91.5c101-45.7,198-19.4,262.2,71.1c8.4,11.8,16,24.3,25.1,38c19.9-23.7,39-45.7,62.6-63.2
			c115.2-85.7,262.3-68,357.3,44.1c13.1,15.5,19.6,21,35.8,2.7c43.3-48.9,103.1-62.1,164.3-66.2c115.5-7.7,231.3-10.9,347.1-6.4
			c87,3.4,159.4,33.3,201.2,115.4c9,17.6,17.2,6.1,25.2,1c117.8-75.2,247.4-104.8,385.8-99.1c65.4,2.7,129.8,12.4,189.8,41.2
			c83.4,40,139,102.7,150.6,196.4c12.6,101.2,21.3,203.3,7.4,305c-18.9,138.5-102.8,227.3-226.6,283c-8.2,3.7-16.7,6.9-28.7,11.8
			c9.4,7.8,16.6,13.9,24,19.8c110.1,87.8,170,202.1,171.3,342.7c2.2,241.7,1.2,483.4,0.3,725c-0.3,91.6-27.9,175.5-82.1,249.7
			c-11.1,15.1-10.4,22.4,3.7,35c79.2,71,57.8,210.6-38.2,256.8c-90.3,43.5-184.7,58.7-283.9,43.2c-9.7-1.5-19-3.6-28.7,3.6
			c-81.3,59.9-167.6,56.6-254.6,15.7c-19.5-9.1-30-8.7-47.6,4c-44.8,32.3-94.9,22.4-142.9,7.5c-21.8-6.8-38.4-8-61.2,1.3
			c-51.5,21.1-105.1,9.2-156.4-6.2c-18.4-5.5-30.8-7.1-45.7,8.2c-18.6,19.1-44.8,25.6-71,25c-83.4-1.9-167-3.3-249.7-15.9
			c-76.3-11.6-120.6-56.1-134.7-131.7C1292.7,2682.8,1291.9,2677.6,1290,2666.4z M2430.9,1078.8c65.8,163.8,46.3,301.8-57.4,386.3
			c71.8-8.5,119.9,16.1,139.9,71.5c18.2,50.4-0.9,106.6-46,135c-44.2,27.8-102.1,21.4-139.6-15.6c-23.6-23.3-34.1-51.9-33.5-84.6
			c0.5-32.1,15.7-58.5,36.3-81.6c-134.9,37.4-271.2,39.8-407.6,26.5c-102-10-164.1-71.4-183.8-172.5c-16-81.9-1.5-160.9,28.6-237.3
			c8.5-21.5,5.6-27.7-17.9-23.4c-169.5,31.2-294,153.6-323.5,325.4c-16.1,93.5-3.3,188.9-6.2,283.3c-0.4,13.6,7.4,14,17.3,14.9
			c48.5,4.1,96.4,12.2,144.5,19.5c74.7,11.3,116.3,55.1,137.1,125c15.4,51.8,27.9,104.6,49.6,154.3
			c32.3,74.1,85.2,122.5,167.1,135.8c110.5,18,221.8,9.5,332.8,9.3c31.9-0.1,64.1-4.5,95.7-9.6c46.6-7.6,73.7-35.9,80.2-82
			c2.8-19.9,3.2-40.3,3.4-60.5c1.2-86.7,28.8-163.9,84.2-230.6c39.3-47.3,89-71.4,151.9-69c44.9,1.8,90-0.1,135-0.3
			c12.9-0.1,23.3-1.6,22.8-19.3c-2.2-85.3,4.2-170.9-4.3-256.1C2818.1,1226.9,2629.5,1066.7,2430.9,1078.8z M1083.3,2154.7
			c12.7-11.8,13.8-22.2,17.6-31.3c27.5-66,37.9-135.6,43-206.4c3.6-49.7,30.3-82.5,75.9-102.2c42.1-18.2,85.8-16.9,129.9-16.3
			c8.1,0.1,22,6.3,22.9-6.8c1.6-24,7.9-49.1-10.4-71.2c-51-61.7-110.1-112.6-183-147.2c-60.6-28.7-123.9-34.2-194.5-28.4
			c54,55.8,91.5,114.8,86,190.9c-5.6,77.2-54.1,126-117.8,164.2c12.5,2.7,22.7,3.6,32.6,2.5c18.4-1.9,23.6,5.7,22.7,23.5
			c-0.8,15.2-2.5,24.4-21.1,22.4c-15.4-1.7-31.2-1-46.8-0.3c-13.2,0.7-21.7-1.8-19.1-17.7c3.2-19.7-7.3-18.6-20.9-13.8
			c-27.9,9.8-56.8,14.5-86.1,17.4c-16,1.6-34.7-1.5-31.5,25.2c0.9,7.5-7,9.6-14,9.5c-15.6-0.1-31.2-0.2-46.8,0
			c-9.5,0.2-14.5-4.6-12.5-13.4c6.1-27.4-12.7-30.1-31.9-36c-117.8-36-174.8-130.5-150.2-247.6c9.8-46.7,33.4-86.7,67.9-131.9
			c-47.6,0-87.7,2-127.6-0.4c-72.4-4.4-135.5,18.5-192.2,60.9c-87.5,65.6-154.3,143.8-155.5,261.5c-0.2,22.6,2.5,32.7,29,30.8
			c55.2-3.9,109.7,4.9,164.2,13.8c68.9,11.3,112.9,49.6,132,116.2c11.4,39.6,21.2,79.7,31.8,119.5c15.5,57.9,55.3,91.7,110.7,108.3
			c87.6,26.2,177.6,24.9,267.6,19.6c45.1-2.6,88.9-12.3,130.9-29.5c34.1-14,64.5-32.5,88.5-67.7c-16.7,0-29.2-1-41.6,0.2
			c-18.9,1.8-27.9-2.3-27.8-24.7c0.1-22.5,11-23.5,27.4-22.4c9.1,0.6,18.5,0.9,27.5-0.1C1078.1,2124.1,1088.6,2129.3,1083.3,2154.7z
			 M1416.3,922c-26.4-77.6-41.2-154.7-44.7-233.6c-0.8-18.7-8.6-19.7-23.4-19.9c-377.2-3.1-754.4,7.4-1131.5-5.8
			c-23.2-0.8-26.7,7.6-26.4,27.9c1.1,69.8,1.7,139.6-0.3,209.4c-0.8,26.6,6.1,33.3,33,33c388.5-4.4,777-7.6,1165.5-11
			C1396.7,922,1404.8,922,1416.3,922z M2045.1,304.4c1.9,33.6,1.6,64.7-4,95.4c-17.9,97.5-75,167.5-155.6,220.9
			c-31.6,20.9-59.7,45.1-81.2,77.3c-21,31.4-58.3,34-76.7,1.5c-22.7-40.2-58.1-62.1-94.2-85.6c-43.7-28.4-66.1-69-70.9-121.2
			c-4.6-49.7-1.6-99.1,0.5-148.7c0.3-7.6,5.2-18.1-3.3-22.3c-7.6-3.7-15.6,3.7-22.3,8.1c-50.1,32.3-77.5,80.3-89.1,137
			c-21.6,105.3-18,211.8-13.7,318.4c2,49.6,16.9,95.6,38.3,139.5c23.5,48.2,63.2,80.2,110.8,102.9c43,20.5,85.3,30.7,134.6,16.5
			c77.8-22.3,159.7-17.1,238.4-9.6c75.8,7.2,116-27.8,153.9-83.2c84.9-124,106-259.3,79.5-404.6c-8.2-45.1-14.7-90.8-31.2-133.8
			C2138.7,359.9,2105.4,319.8,2045.1,304.4z M2817.8,380.9c-3,27-4.3,49.8-8.1,72.3c-14.6,85.7-47.6,160.6-131.3,200.1
			c-28.4,13.4-45.2,32.3-54.5,61c-7.6,23.5-14.9,47.4-32.6,66c-29.3,30.8-59.9,28.5-80.1-8.8c-17.3-31.9-39-59.9-64.1-85.5
			c-81.3-83.1-129.6-181.5-139.6-297.9c-1.3-14.9-5.1-20.6-19.8-11.7c-13.3,8.1-26.7,16.3-40.9,22.7c-27.1,12.2-39.5,28.9-27.1,59.7
			c6.1,15,6.7,32.2,9.9,48.4c25.6,127.7,27.1,253.5-27.8,375.2c-2.7,6.1-3.8,11.4-1.7,18.3c20.2,67,106.3,132.4,176.3,131.2
			c85-1.4,169.1,0.9,248.3,37.3c5.3,2.4,13,2.5,18.8,0.9C2783,1031.8,2894.9,934,2904,776.8c4.8-82.8-0.8-165.3-7.4-247.7
			C2892,470.6,2869.7,419.5,2817.8,380.9z M2316,2581.4c48.9,0,94.7,1.2,140.5-0.2c200.1-6.1,364.6-159.1,381.4-358.4
			c10-118.1,1.7-236.9,3.7-355.4c0.3-14.7-5.4-19.2-19.5-18.4c-33,1.9-65.8,5.2-98.5,10.7c-44.3,7.5-69.9,31.4-79.8,75.5
			c-8.6,38.5-24.2,75-39.5,111.4c-41.6,98.6-98.2,184.8-196,236.7c-9.6,5.1-10.9,13.3-12.4,22.8c-12.5,75.1-31.6,148.6-59.2,219.7
			C2330.1,2543.5,2323.6,2561.3,2316,2581.4z M124.6,2207.2c0.8,0,1.6,0,2.4,0c0,37.6-0.9,75.3,0.2,112.9
			c3.4,114.7,36.7,220.2,103.3,313.8c34.6,48.7,78.7,87.1,139.6,100.9c41.3,9.4,83.2,13.1,125.1,18c21.3,2.5,26.3-4.7,26.1-25.3
			c-1-101.9-0.9-203.8,0-305.7c0.2-18.3-5-26.1-22.9-33.2c-91-35.6-157.6-95-181.5-194.5c-8.3-34.7-22.8-67.6-39.2-99.6
			c-26.9-52.4-71.3-73.2-128.2-74.4c-18.8-0.4-25.7,4.3-25.3,24.3C125.4,2098.9,124.6,2153.1,124.6,2207.2z M745.1,1500
			c44.5,0,87.6-0.7,130.7,0.3c17.1,0.4,26.3-5.8,34-21.1c26.5-53.1,45-108.6,50.9-167.6c13.7-137.9-39.4-277.1-205.7-315.4
			c-126.7-29.2-255.6-28.3-382,4.6c-99.7,25.9-173.5,85-200,188.7c-33.5,131.4,8.2,245.9,87.4,350.1c5.2,6.8,10,9.1,18.4,4.4
			c23.7-13.3,47.9-25.8,72.5-38.9c-8.2-11.2-16.3-21.1-23.3-31.9c-52-80.5-66.7-166.3-32.5-257.2c39.5-105.3,145-174.6,248.3-165.3
			c114.5,10.3,198.9,84.2,219.1,195.3C778.4,1331.1,773.8,1415.7,745.1,1500z M1420.4,2056.9c3.2,57.4-5.3,127.3,5.3,196.8
			c23,149.7,149.9,285.3,297.1,316.9c13.1,2.8,23.8,4.3,32.9-10.1c50.7-80,74.6-166.6,70.1-261.4c-0.8-17.6-6.3-28.3-23.7-35
			c-30.3-11.6-56-30.8-80.5-52c-56.5-48.9-80.7-114.4-96.4-184.5c-22.1-98.9-87.5-150.7-183-171.3c-16.4-3.5-22.7-1.5-22.3,17.4
			C1421.1,1930.7,1420.4,1987.7,1420.4,2056.9z M1050.9,2559.1c1.3,0,2.5,0,3.8,0c0,51.4,0.1,102.8,0,154.2c0,30.5,0,31,29.9,21.5
			c50.3-15.9,96.2-41,138-72.8c28.4-21.6,62-41.3,77.1-73.5c30.4-65,75.9-113.9,136.3-150.5c9-5.5,10.6-10.3,4.7-19.3
			c-57.1-87.7-70-185.5-66.9-287.4c1.6-54.1-0.2-108.3,0.5-162.5c0.2-16.9-5.1-20.1-21.1-16c-24.1,6.1-37,22.7-46.3,43.4
			c-16.6,37-23.9,76.9-35.1,115.5c-22.5,77.9-43.6,156.2-116.6,205.6c-28.1,19.1-55,40.2-86.3,53.6c-15.6,6.6-18.7,15.6-18.4,31.2
			C1051.6,2454.4,1050.9,2506.7,1050.9,2559.1z M2135.7,2284.4c37.4,0,64,0.9,90.6-0.1c133.8-5.1,234.7-65.3,299.8-182.5
			c34.4-61.9,60.7-127.5,79.6-195.8c12.7-46,42.2-73.5,87.9-85.6c42-11.1,84.6-17.1,127.9-16.2c30,0.6,17.9-21,19.7-34.8
			c1.8-14.2,2.1-26.5-20-25.8c-51.4,1.7-102.8,0.3-154.3,1.2c-34.7,0.6-64.3,15-87.7,40.2c-42.1,45.4-71.9,97.5-79.7,159.9
			c-4.3,34.5-4.9,69.5-8.4,104.2c-8.5,84.5-53.3,133.5-137.9,140.8c-136.4,11.9-273.4,14.5-409.8-0.6
			c-106.3-11.7-178.1-72.1-218.9-169.8c-14.5-34.7-25.7-70.6-34.9-107.1c-7.6-30.2-17.3-59.7-31.6-87.8
			c-13-25.5-32.7-41.4-60.4-47.6c-50.2-11.2-100.7-20.1-152.2-22.5c-8.6-0.4-25.9-10.4-24.3,9.4c1.3,15.8-15.3,40.3,17.5,45.8
			c130,22,210.4,95.6,236.5,226.9c19.6,98.3,80.3,160.6,172.2,198.6C1943.8,2275.1,2043.7,2286.9,2135.7,2284.4z M386.7,620.9
			c0,0.6,0,1.2,0,1.8c62.4,0,124.9-0.4,187.3,0.3c15.6,0.2,22.7-4.5,26-20.4c16.9-81.3,0.9-157-39.5-227.8
			c-45.9-80.5-123.1-113.5-209.9-92.5c-138.1,33.4-219.7,184.5-174.5,321.8c4.7,14.4,12.4,17.2,25.9,17
			C263.7,620.6,325.2,620.9,386.7,620.9z M2552.1,752.9c16-14.6,21.1-30.2,26-45.9c13.4-42.5,33.7-78.5,79.9-94.4
			c25.5-8.8,44.6-27.9,60.9-49.7c40.5-54.3,46.6-117.9,52.3-182.2c2-23.2-5.3-34.7-27.2-41.5c-125.9-39.5-250.9-33.7-376,3.6
			c-15.7,4.7-16.4,14.1-15.8,26.8c4.3,90.8,35.5,171.5,91.4,242.8C2479.6,658.3,2527.5,694.9,2552.1,752.9z M526.4,1494.7
			c-31.3-32.7-55.8-62.9-67.8-101.5c-29.1-93.6,21.9-192.5,111.1-212.9c8.4-1.9,23.6-13.6,24.9,6.8c0.9,13,12.4,30.8-13.2,37.4
			c-47.4,12.3-73.6,46.1-83.5,92.5c-15.5,72.5,56.6,168.7,133.3,179.2c54.3,7.5,74-6,84.2-60.4c10.7-57.1,14-114.5,4.4-172.5
			c-25.1-151.5-195-219.2-313.9-123.2c-113.1,91.4-106.4,249.6-5.3,349.7c4.5,4.4,9.1,6,14.7,5.2
			C450.2,1490.2,485.1,1494.7,526.4,1494.7z M773.6,2367.6c38.5,0,77.1,0.4,115.6-0.1c92.7-1.1,173.1-34.3,244.7-92.3
			c31.7-25.6,53.9-56.3,67.7-94.7c20.8-57.9,34.3-117.8,52.7-176.3c16.7-53,46.2-91.2,104.8-99.9c28-4.1,10.9-26,14.4-39.5
			c3.5-13.5-4.7-19.6-18.4-20.5c-33.2-2.1-66.2-1.9-98.6,5.8c-45.1,10.7-63.7,33.8-67.8,81.3c-1.7,19.2-3.4,38.4-5.6,57.5
			c-7.5,67.2-26.3,131.8-57.5,191.2c-36.1,68.7-100.9,102.1-173.5,120.2c-107.7,26.8-217.2,24.9-325.3,6.6
			c-130.8-22.2-184.5-78.9-210.2-209.2c-5.5-27.9-11.9-55.6-23-82c-12.5-29.6-33.7-50.9-65.3-58.2c-61.8-14.4-124.5-22-188.3-20.2
			c-14.4,0.4-18.4,5.8-18.9,19.8c-0.8,23.3,14.8,18.3,27.7,18.2c81.9-0.8,140.2,35.4,175.2,109.7c15.3,32.4,29,65.5,37.8,100.2
			c22.3,88,82.3,139.6,165.4,164.3C607.4,2373.4,691.3,2365.7,773.6,2367.6z M775.7,1887.2c65.6,15.4,188.8-31.9,229.1-93.4
			c10.1-15.4,16.1-32.5,18.9-51.1c12.5-83.6-55.7-160.2-112.6-194c-6.9-4.1-14.2-3.1-21.4-3.1c-71.6-0.1-143.3,0.1-214.9-0.2
			c-10.5,0-19.3,1.7-27.4,9.4c-39.5,37.9-67.6,82.1-76.9,136.7c-13.2,77.6,18,137,88,171.8c18.2,9.1,33.7,8.9,51.9-0.4
			c94.9-48.5,145.4-151.6,122.2-258.8c-5.9-27.2,8.9-28.2,25.7-33.3c24.2-7.4,18,14.6,19.7,23c17.7,90.8-1.2,172.9-62.1,244.1
			C801.2,1855.1,787.3,1872.9,775.7,1887.2z M1229.5,624.3c0,0.1,0,0.3,0,0.4c44.1,0,88.2-1.1,132.2,0.5
			c20.2,0.7,26.4-4.4,26.1-25.5c-0.9-69.3,7.2-137.5,34.9-201.9c5.2-12.1,2.3-20.5-4.3-30.3c-89.6-134.5-279.9-131-366.4,6.6
			c-8,12.7-9.8,24-5.2,38.5c19.9,63.3,33.8,127.8,28,194.8c-1.5,17.2,7.7,17.2,19.7,17.1C1139.5,624.1,1184.5,624.3,1229.5,624.3z
			 M1763.4,679.1c32.5-58.4,84.3-86.5,129.7-121.7c79-61.3,111.8-142.7,106.3-241.3c-0.8-14.9-6.5-21.6-21.6-21.7
			c-115.8-1.2-231.5-1.4-346.9,9c-15.8,1.4-19.8,8.6-20.7,22.3c-3.6,55.1-5.8,110.2-1.5,165.2c2.7,34.5,16.5,64,47.2,83
			C1697.9,599.9,1742.8,622.5,1763.4,679.1z M1569.7,2785.9c0-0.3,0-0.5,0.1-0.8c33,1.9,65.9,4.6,98.9,5.4
			c22.5,0.6,45.6-3.1,59.3-22.9c26.5-38.2,37.6-81,31.5-127.8c-1.5-11.3-5.5-17.3-18.3-19.4c-100.6-16.5-184.4-64.1-253.4-138.7
			c-6.2-6.8-11.3-15.1-22.6-8.1c-58.3,36.2-110.5,79.1-125.1,149.9c-14.5,70.2,17.1,147.7,103.3,153.7
			C1485.5,2780.1,1527.6,2783,1569.7,2785.9z M2022.7,1077.4c-23.9,0-47.8,0.5-71.7-0.2c-12-0.4-20.9,2.9-28.6,12.4
			c-33.6,41.5-57.1,87.5-64.7,140.8c-9.7,67.8,22.2,118.5,88,139.5c44.3,14.1,90.3,15,136.3,15.5c8.9,0.1,15.5-3.9,22.4-9
			c84.9-62.8,101.8-180.2,39.3-264.5c-18.4-24.9-38.7-39.8-71.3-35C2056.1,1079.4,2039.3,1077.4,2022.7,1077.4z M806.8,254.7
			c-83,17.3-138.4,64.4-180.2,130.5c-6.2,9.7-1,17.6,1.9,25.9c22.4,63.4,32.2,128.1,18,194.6c-3.1,14.5,0.3,17.5,13.7,17.5
			c116.6,0.1,233.3,0.3,349.9,1.1c14.4,0.1,18.3-4.8,19.1-19c3.2-56.7-6.6-111.2-21.6-165.6c-5.2-19-12-18.7-26-10.4
			c-52.3,30.9-73.5,78.2-69,136.9c1.9,24.4-12.8,23-28.1,26.1c-20.8,4.3-17.2-11.5-18.5-21.7c-9.4-74.6,30.3-149,99.9-184.2
			c15.4-7.8,18.2-14.6,8.8-28.2c-3.6-5.2-6.4-11.1-8.9-17c-8.4-19.5-17.7-20-33.9-5.9c-71.3,62.2-107.3,140.7-110.7,234.3
			c-0.8,22.6-13.1,21.1-28.5,22.3c-18.8,1.5-18-9.4-17.6-22.2c3.5-104.2,42.3-192.3,119.8-262.7c7.7-7,15.7-13.7,23.9-20.8
			c-40.1-30-44-30.1-75.8,1c-74.2,72.7-117.8,160.7-128.1,264.1c-2.4,24.1-14.4,24.6-32.6,24c-24.8-0.9-15.6-17.2-14.1-29.3
			c13-106.1,54.3-199.1,128-277.2C799.1,265.6,801.4,261.9,806.8,254.7z M1902.6,2581.6c83.7,0,165.1-0.1,246.5,0.1
			c11.2,0,15.9-8.2,21.5-15c52.6-63.4,79.9-136.8,86-218.6c1-13.6-1.1-20.2-17.1-19c-86.2,6.2-172.2,1.8-257.9-7.8
			c-13.6-1.5-14.3,3.7-15.8,14.4c-3.8,28-9.3,55.9-14.3,83.7C1941.4,2474.4,1921.1,2526.4,1902.6,2581.6z M867.5,2588.7
			c0-50.4-0.3-100.8,0.2-151.3c0.1-13.9-1.7-22.5-19.1-21.6c-53.2,2.9-106.3,0.1-159.3-3.6c-15.6-1.1-20.9,3.9-20.9,19.7
			c0.5,102.7,0.5,205.3,0,308c-0.1,14.2,4.4,19,18.8,18.9c52.2-0.3,104.5-0.1,156.7,1.5c20.3,0.6,24.3-7.7,23.9-25.9
			C866.8,2685.9,867.5,2637.3,867.5,2588.7z M1872.1,1077.4c-19.9,3-38.5-9.5-48.8,13.8c-30.5,68.9-49.9,140.2-43.7,216.2
			c8.4,102.6,67.1,159.1,170.1,166.5c45.9,3.3,91.8,1.7,137.7,0.8c62.4-1.3,124.8-2,185.9-17.5c84.9-21.5,133.4-76,146.7-162.3
			c10.6-68.7-6.4-132.7-32.2-195.6c-8.2-19.9-19.3-26.4-40.6-19.1c15.3,32.4,28.3,64.5,35.4,98.8c25.3,122.3-31.9,218.2-151.2,241.6
			c-90.5,17.7-183.3,17.7-273.8-0.4c-114.7-22.9-164.9-105.8-140.9-220.3C1825.8,1156.4,1846.8,1118.1,1872.1,1077.4z
			 M2564.3,2736.5c68.6,2,131.5-19.5,192.7-47.3c19.1-8.7,34.3-22,41-42.4c11.2-33.8,11.5-68.9,5.8-103.4
			c-3.6-21.5-23.4-33.5-40.3-42.6c-12.6-6.7-20.4,11.9-29.6,19.6c-55.3,45.9-116.9,79-187.3,94.9c-16.1,3.6-36.8,1.9-47.1,11.5
			c-12.8,12,1.9,32.5,0.6,49.5c-0.2,2.7-0.2,5.5,0,8.3c1.4,15.6-13.8,35.8-0.5,45c12.6,8.7,33.6,5.2,50.9,6.8
			C2555,2736.9,2559.7,2736.5,2564.3,2736.5z M1371.3,1401.8c3.1-1.8,6.2-3.7,9.3-5.5c5.9-33.5,18.1-65.1,27.9-97.3
			c25.4-83.5,15.6-164.6-23-242.5c-5.9-12-10.9-12.6-18.5-1.2c-42.4,63-85.2,125.8-127.9,188.7c-4.2,6.1-7.8,11.1-0.3,18.8
			C1283.3,1308.7,1327.2,1355.4,1371.3,1401.8z M1372.5,1660.3c0.1-27.5,9.3-51.5-7.9-72.1c-92.5-110.8-210.2-177.3-353.2-198.9
			c-14.2-2.1-18.9,1.7-22.9,15c-7.4,24.5-16.4,48.6-27,71.9c-7.6,16.7-6.4,23.7,13.5,21.2c6.3-0.8,12.8-0.4,19.2-0.8
			c113.2-8.5,213,25.4,301.9,94.7C1322,1611.4,1345.4,1634.3,1372.5,1660.3z M2325.4,2626.9c-34.8,0-69.7,0.4-104.5-0.2
			c-14-0.3-20.8,3.1-16.8,18.6c7,27.2,6.9,54.7-1.4,81.4c-4.5,14.4,2.5,19.2,13.3,24.9c51.7,27,105.4,35,162.1,19.2
			c60.8-16.9,88.4-66.1,71.4-126.8c-3.4-11.9-8.4-18-22.4-17.5C2393.3,2627.6,2359.3,2626.9,2325.4,2626.9z M2176,1077.5
			c35.1,49.1,53.1,98.7,51.6,154.7c-1.5,55.7-24.2,103.1-59.9,149.9c16.8-1.1,27.8-1.2,38.6-2.6c74.5-9.6,120-46.9,132.1-112.1
			c12.1-65.5-8-124.8-41.4-180.5c-3.5-5.8-8-9.4-15.4-9.4C2248,1077.6,2214.5,1077.5,2176,1077.5z M1007.8,2579.4
			c-1.1,0-2.1,0-3.2,0c0-53.2-0.3-106.4,0.2-159.6c0.2-17.5-5.7-22.5-23-17.6c-15.8,4.5-32.4,7.8-48.7,8
			c-18.2,0.2-20.3,8.8-20.2,23.9c0.5,87.2,0.3,174.4,0.3,261.6c0,63.4,0,63.4,64.5,57.5c0.9-0.1,1.9-0.2,2.7-0.1
			c24.7,3.7,28.4-9.6,27.9-30.6C1007,2674.9,1007.8,2627.1,1007.8,2579.4z M1371.6,1523.3c4.3-34.7,6.7-63.1-23-88.9
			c-46.4-40.3-88.7-85.2-132.2-128.8c-9.7-9.7-19.4-14.3-33.6-14.1c-49.6,0.9-99.3,1.6-148.8-0.2c-22.2-0.8-25.9,7.3-28.8,27.4
			c-3.4,23.9,9.5,25.1,25.4,27.6c103,15.9,194.8,57.7,276.6,121.6C1328.7,1484.6,1348.7,1503.4,1371.6,1523.3z M1000,1186.1
			c39-69.2,73.5-131.6,109.5-193.2c10.7-18.3,8.5-22.8-12.7-22.5c-78.9,1.2-157.8,1.1-236.7,2c-6.3,0.1-14.4-4.1-19.8,4.9
			C922.8,1021.1,975.3,1088.3,1000,1186.1z M1889,2626.9c-24.4,0-44.6,1-64.7-0.3c-15.1-1-19.3,4.6-18.1,18.8
			c2.7,30.5-0.2,60.9-11.6,89.4c-6.7,16.6,0.5,19.8,13.8,24.3c27.4,9.3,55.5,11.6,84,12.5c54.5,1.8,70.4-12.4,70.1-66
			c-0.2-25.3,11.3-57.6-5.7-74C1941.1,2616.4,1909.4,2628.9,1889,2626.9z M2081.7,2626.9c-18.3,0-36.7,0.6-55-0.2
			c-13.2-0.6-17.5,4.6-17.5,17.6c-0.1,33.8,4.9,67.8-3.3,101.3c-1.5,6,0.6,11,6.8,13.1c37.5,12.6,76.3,27.7,113.8,4.8
			c34.7-21.2,38.8-58,34.8-94.9c-4.5-41.8-5.3-41.7-46.5-41.7C2103.7,2626.9,2092.7,2626.9,2081.7,2626.9z M1139.3,1242.2
			c27.5,7.6,46.5,1,63.4-25.5c42.7-67.2,88.9-132.2,133.6-198.1c4-5.8,12.4-12.5,8.9-18.6c-8-14.1-16.9-30.4-35.4-31.2
			c-16.8-0.8-35.4-7-46.8,16.7c-38.8,80.8-79.8,160.6-120.1,240.8C1140.6,1231.1,1137.4,1235.6,1139.3,1242.2z M621.8,2587.2
			c0-53.3,0.6-106.6-0.2-159.9c-0.5-31.5-27.5-15.2-41.9-20.2c-16.5-5.8-13.5,9.5-13.6,18.7c-0.2,102.9,0.7,205.8-0.6,308.7
			c-0.4,30.8,20.5,20.3,35.4,23.2c18.1,3.4,21.4-5.7,21.2-21.7C621.3,2686.5,621.8,2636.8,621.8,2587.2z M1601.5,1086.1
			c-27.8-12.7-53.3-22.5-75.9-37.9c-22.8-15.5-46.7-31.6-61-54.7c-20.4-33-48-27.4-81.7-24.3c52.8,67.9,80.6,141.5,86.6,230.4
			C1509.2,1149.4,1552.5,1116.2,1601.5,1086.1z M1019.8,1245.9c26.7-6.4,54,12.2,67.6-13.8c42.9-81.6,82.9-164.8,124.4-247.2
			c5.3-10.5,4.3-14.8-8.1-15.5c-17.4-1-30.3,1.5-40,20.2c-25.8,49.5-54.6,97.4-82.1,146C1061.9,1170.4,1042.5,1205.3,1019.8,1245.9z
			 M2473.5,1576.5c0.4-38.8-28.6-68.9-66.4-68.7c-36.8,0.1-65.5,29-65.9,66.3c-0.4,39.2,28.1,68.8,66.2,68.7
			C2444.3,1642.7,2473.1,1613.8,2473.5,1576.5z M1872.2,2295.4c4.6,102.7-20.7,196.5-73.2,284c50.4,5.3,50.7,5.4,67.4-36.8
			c24.3-61.4,41.7-124.8,50-190.4C1922.2,2307.6,1921.9,2307.5,1872.2,2295.4z M2346.6,2313.8c-32.7-0.7-48.8,9.9-44.9,44.6
			c2,18.4-4.8,37.8-8.3,56.7c-11.2,60-38.1,113.5-72.7,163.7c31.3,9.3,48.8,1,58-29.1c11.1-36.7,28.2-71.6,38.8-108.4
			C2329.3,2399.6,2343.3,2357.9,2346.6,2313.8z M2241.5,1030.8c-25.6-25.7-48.3-49-65.2-77c-3.4-5.7-7.3-8-12.1-1.1
			c-17.8,25.5-35.8,51-54.7,78C2154.5,1030.8,2195.9,1030.8,2241.5,1030.8z"/>
		<path class="st0" d="M1721.5,1501.2c63.3,0.3,113.3,51.1,112.2,114c-1.1,61.1-52.4,111.9-113.1,112.1
			c-62.3,0.1-113.3-51.4-113.2-114.3C1607.7,1549.2,1657,1500.9,1721.5,1501.2z M1719.5,1679.3c38.9,0.2,68.7-28.8,68.4-66.5
			c-0.3-36-30.6-66.3-66.6-66.8c-36.7-0.5-68.8,31.2-68.5,67.8C1653.1,1650.2,1682.4,1679,1719.5,1679.3z"/>
		<path class="st0" d="M1965.5,1756.6c-0.3-63.1,48.1-112.5,110.2-112.7c65.8-0.1,116.7,49.4,116,113
			c-0.6,61.3-50.8,111.7-112.2,112.7C2017,1870.6,1965.7,1819.8,1965.5,1756.6z M2077.8,1822.8c37.3,0.2,66.5-28,67.5-65
			c1-37.6-29.2-68.7-66.8-68.8c-37.6-0.2-68.3,30.7-67.7,68.1C2011.3,1793.5,2041,1822.6,2077.8,1822.8z"/>
		<path class="st0" d="M746.4,2105.5c-6.4,0-13-0.9-19.2,0.2c-24.9,4.3-32-6.6-29.7-30.3c1.2-12.6,3.9-18,17.3-17.3
			c18.3,0.9,36.9,2.4,54.9-0.3c27.5-4,29.8,10,28.3,31.3c-0.8,11.4-3.9,16.9-15.8,16.4C770.3,2105,758.3,2105.4,746.4,2105.5
			C746.4,2105.5,746.4,2105.5,746.4,2105.5z"/>
		<path class="st0" d="M747.2,2236.3c-7.3,0-14.7,0-22,0c-25.7-0.2-34.3-12.8-27.1-37.4c2.6-9,8.6-8,14.6-8.1
			c18.3-0.2,36.6,0,54.9-0.1c16.2-0.1,31.5-4.4,31.1,23.3c-0.5,28.1-17,21.9-32.3,22.4C760,2236.5,753.6,2236.3,747.2,2236.3z"/>
		<path class="st0" d="M752.5,2025.2c-6.4,0-12.9-0.4-19.2,0.1c-15.2,1.2-25.8,0.2-24.9-20.8c0.7-17.8,3.2-27.8,23.8-25.2
			c10.8,1.4,21.9,0.1,32.9,0.3c16.4,0.2,34-6,33.6,23.9c-0.4,28.7-17.6,20.9-32.5,21.8C761.7,2025.4,757.1,2025.2,752.5,2025.2z"/>
		<path class="st0" d="M989.8,2063.8c-6.4,0-12.9-0.8-19.1,0.2c-19.4,3.1-22-7-22.4-23.4c-0.4-18.1,6.1-24.8,23.7-23
			c9,0.9,18.2,0,27.3,0.2c16.6,0.3,34.2-5.1,33.8,24.2c-0.3,28.2-17.3,21.3-32.4,21.9C997.1,2063.9,993.4,2063.8,989.8,2063.8z"/>
		<path class="st0" d="M519.5,2056c-17.1,1.9-29.5,1.2-29.8-22.7c-0.3-26.2,14.9-23.7,31.8-23.9c16.7-0.3,28.3-0.9,28.6,23.2
			C550.5,2059.1,536.7,2057.7,519.5,2056z"/>
		<path class="st0" d="M547.8,1936.2c-20,4.5-26.5-1.7-27-22c-0.6-22.2,8-25.6,27.2-25.3c18,0.3,26.3,3.9,26.4,24.3
			C574.6,1935.1,566.5,1941.5,547.8,1936.2z"/>
		<path class="st0" d="M1464.4,693.3c0-53.8,42.8-96.7,95.9-96.2c52.6,0.5,96.5,45.4,95.5,97.6c-1,51.4-44.6,94.8-95.6,95.1
			C1507.1,790.2,1464.4,747.1,1464.4,693.3z M1555.9,643.4c-19.7-4.3-47.7,27.5-46.4,50.1c1.5,26.8,21.5,48.6,48.5,49.6
			c27.5,1,50.9-21.7,51-49.5C1609.1,664.8,1587.3,644.1,1555.9,643.4z"/>
		<path class="st0" d="M1860.4,721.8c-0.4-53.7,41.9-96.9,95.1-97.1c52.8-0.1,96.5,43.7,96.2,96.6c-0.3,51.7-42.9,95.2-94.2,96.2
			C1904.8,818.4,1860.8,775.1,1860.4,721.8z M2004.8,721.7c0.3-28.2-22.1-51.3-49.6-50.9c-26.3,0.3-48.9,22.9-49.4,49.2
			c-0.5,27.6,22.4,50.7,50.5,50.6C1983.3,770.4,2004.5,749.1,2004.8,721.7z"/>
		<path class="st0" d="M2365.4,652.2c51.8,0.2,92.2,40.8,92.3,92.6c0.1,51.3-40.8,93.1-91.8,93.8c-51.2,0.7-95.2-43.4-94.4-94.7
			C2272.3,692.3,2313.6,652,2365.4,652.2z M2412.4,744.1c-0.5-24.6-23.5-46.6-48.3-46.3c-25.9,0.4-46.1,21.5-45.8,47.9
			c0.4,26.6,20.8,46.3,47.5,45.9C2391.6,791.3,2412.9,769.5,2412.4,744.1z"/>
		<path class="st0" d="M2742.6,856.4c-52.5,0.4-93-38.9-93.7-90.9c-0.8-52.7,41-95.6,93-95.4c50.6,0.2,92.7,42.5,92.8,93.3
			C2834.7,815.2,2794.4,856,2742.6,856.4z M2742.6,717.1c-26.1-0.5-47.6,19.7-48.3,45.5c-0.7,25.1,20.7,47.4,46.1,48.1
			c26.3,0.8,46.9-19.1,47.4-45.8C2788.4,737.8,2769.3,717.6,2742.6,717.1z"/>
	</g>
</g>
</svg>
