<?xml version="1.0" encoding="utf-8"?>
<!-- Generator: Adobe Illustrator 23.0.0, SVG Export Plug-In . SVG Version: 6.00 Build 0)  -->
<svg version="1.0" xmlns="http://www.w3.org/2000/svg" xmlns:xlink="http://www.w3.org/1999/xlink" x="0px" y="0px"
	 viewBox="0 0 3000 3000" style="enable-background:new 0 0 3000 3000;" xml:space="preserve">
<style type="text/css">
	.st0{stroke:#000000;stroke-width:10;stroke-miterlimit:10;}
</style>
<g id="Layer_1">
</g>
<g id="Layer_2">
	<g>
		<path class="st0" d="M325.1,1422c-19.2,0-33.8,0.1-48.4,0c-67.6-0.4-113-34.9-138.5-94.9c-53.4-125.7-8-277.7,104.8-357.3
			c6.1-4.3,12.2-8.6,17.6-17.2c-19.9,0-39.8-0.5-59.6,0.2c-12.4,0.5-17.5-3.4-17.3-16.6c0.7-37.2,0.2-74.4,0.2-111.7
			c0-2.1-0.8-5.3,0.3-6.2c17.5-14.5,0.2-21.9-6.5-30.9c-29.6-39.8-30.3-79.4-2.2-120.4c27.1-39.5,56.1-77.3,93-108.3
			c12.5-10.5,25.6-19.7,40.7-25.9c42.7-17.7,83.3,3.1,94.7,47.7c7.1,28.1,3.8,55.7-1.5,83.5c-0.9,4.6-3.4,9.1-2.1,11.8
			c20.3-19,41-38.7,62.1-58.1c7-6.5,0.8-13.1,1.2-19.6c0.9-16,9.1-26.6,24.4-30.4c14-3.5,25.2,2.7,31.9,14.8
			c7.1,12.9,6.5,27.1-5.3,36.5c-44.7,35.7-80.2,80.4-119.5,121.3c-22.1,23-49.6,40.3-68.7,69.1c25.4,3.9,50.2,2,75,2
			c7.1,0,8.7-6.3,11.3-11c34.1-60.3,75.9-114.7,125.8-162.7c7.6-7.3,8.1-14.9,8.5-24.2c0.7-15.2,9.7-24.6,24.9-26.8
			c15-2.2,26.3,4,32.3,18c6,14.1,2.6,27.9-9.9,35.5c-53.2,32.4-86.3,83.1-122.2,131.4c-8.6,11.6-15.7,24.4-26.1,40.8
			c23.4,0,42-0.1,60.7,0c7.9,0.1,10.5-5.1,13.1-11.3c27.6-66.9,69.1-123.5,125.7-168.7c5.5-4.4,7.2-9.3,7.3-16.2
			c0.5-18.3,10.5-28.6,28.8-29.6c15.3-0.8,26.1,7.3,29.7,21.7c4.3,17.3-4.2,28.4-19.7,37.3c-63.4,36.2-103.4,92.8-134.2,157
			c-3.4,7.1-0.5,10.5,7.2,10.5c21.8,0.1,43.5,0.2,65.3,0.5c8.6,0.1,9.9-5.8,11.7-12c17.9-61.5,47.8-116.5,90.3-164.4
			c5.7-6.4,5.8-14,8.8-20.9c6.4-14.6,17.5-22.4,33.4-19.3c15.6,3,24.8,13.9,24.9,29.7c0,15.9-9.1,27.1-25.1,28.7
			c-9.6,1-15.1,4.8-20.8,11.6c-31.5,37.4-55.2,79.2-71.6,125.4c-5.4,15.2-5.7,23.7,14.5,22.1c18.8-1.5,40.7,5,55.9-2.7
			c14.8-7.4,14.4-31.8,21.9-48.3c26.7-59.1,63.3-110.7,112.6-153.1c9.5-8.1,18.4-16,24.2-28.2c6.6-14,20.4-18.8,35.8-12.8
			c15.2,6,21.3,17.8,18.8,33.6c-2.4,15.3-12.9,25.2-27.5,23.7c-14-1.4-22.1,4.9-31.2,12.6C856.8,681,808.1,756,793.9,814.6
			c14.9,0,29.2-0.4,43.5,0.2c8.3,0.3,10.8-4.9,13.1-10.9c28-70.2,69.4-131.3,124.7-182.9c5-4.7,6.6-10.2,8.3-16.4
			c4.9-17.8,17.5-24.5,35.1-22.2c15.6,2,23.7,12.5,24.3,27.2c0.7,18.1-10,28.4-27.2,32c-5.3,1.1-10.9-0.4-15.7,4.1
			c-50.3,47.2-88.6,102.4-115.8,169.2c31.2,0,59.7-0.3,88.2,0.2c8.7,0.2,10.9-5.2,12.3-11.3c13.9-59.8,49.2-107.9,85.4-155.4
			c9.6-12.6,21.7-17.7,36.9-11.5c15.2,6.3,20.9,18.6,17.9,34.1c-3.2,15.9-14.7,25.2-30.3,23.1c-12.5-1.7-17.8,4-23.7,12.2
			c-23.1,32.7-43.3,66.8-51.8,108.6c29.7,0,57.7-0.3,85.7,0.2c9.6,0.2,11.5-5.7,13.7-12.6c6.6-20,14-39.7,19.8-59.9
			c3.9-13.3,8.8-17.6,23.5-12.4c15.2,5.4,15.3,12.5,10.2,25c-5.6,13.5-8.5,28.2-14.2,41.6c-5.9,13.8-5.1,19.7,12.3,19.2
			c40.5-1.2,33.2,3.9,34-33.2c0.3-13.4,0.5-22.9,18.7-21.3c12.6,1.1,16.5,4.4,16.5,17.3c-0.2,37.3,0.4,37.3,36.9,37.6
			c30,0.2,32,0.4,29.4,30.4c-3.1,36.9,7.9,66.7,29.4,97c62.8,88.7,122.7,179.5,183.7,269.4c16.5,24.2,16.2,23.9,38.3,5.3
			c62.5-52.5,131.9-95.1,201.3-137.6c18.2-11.2,36.7-21.8,58.1-34.5c-26.5-6.2-49-10.4-70.8-16.9c-49.4-14.5-94.1-37-123.7-81.6
			c-6.2-9.3-14.4-9.7-23.6-9.9c-54.8-1.4-109.5-3.2-164.2-4.3c-12.7-0.2-20.6-0.8-20-17.7c0.7-16,7.2-17.8,20.6-17.3
			c49.8,2,99.7,3.2,149.5,4.1c5.3,0.1,20.8,5.5,14.1-8c-5-10.2,14.5-36-17.7-31c-40.3,6.2-81,10.4-121.5,2.8
			c-31.8-5.9-45.7-22.8-48.5-54.4c-1.8-21.3,0.2-42.3,6.9-62.4c3.2-9.8,1.1-14.9-6.5-21.2c-31.7-26.7-38.8-62.1-32.9-101.1
			c2.8-18.2,14.9-29.9,31.2-36.9c38-16.5,77.8-23.7,119.2-20c29.1,2.6,49.8,23.5,55.9,57c2.5,13.7,6.1,20.2,22.2,19.5
			c23.8-1,47.9,10.6,70.2,9.2c21.8-1.4,40.2-23.4,62.9-31.3c34.1-11.7,68.7-20.6,104.8-20.8c91.3-0.5,182.6-0.5,273.8,0.1
			c26.8,0.2,52.8,6.2,77.8,16.5c53.1,21.9,88,58.9,97.8,117.2c9-0.7,10-9.1,13.8-14.1c50-66.7,109.7-120.2,192.6-142.2
			c3.4-0.9,6.8-2.3,10.2-2.5c98-6.1,197-15.6,292.3,15c88.9,28.5,139.5,83.5,146.6,191.3c2.9,43.3,8.3,86.6,0.5,130.2
			c-9.8,55.1-35.5,98.2-86.7,124.4c-38.1,19.5-77.3,36.4-119.4,50.7c116,46.7,139.5,149,154.5,254.4c13.4,94.3,0.4,189.3-0.9,284
			c-1.9,137.6-7.5,275.2-10.8,412.7c-1.8,72.8-10.3,143.2-62.9,198.7c3.1,5.8,7.5,6.3,11.3,7.9c61.9,26.6,81.2,90.7,41.7,146.1
			c-31.2,43.9-74.6,72.1-128,81.9c-57.8,10.6-99.4-26.2-98.3-84.8c0.2-12.4,1.4-24.7,2.4-39.9c-21.9,9.2-41.2,17.2-60.3,25.4
			c-49.5,21.1-100.6,35.6-154.7,35.8c-122.9,0.6-245.9-0.1-366.1-30.9c-100.6-25.7-193.1-71.5-286.7-114.9
			c-15.3-7.1-30.9-13.6-45.4-22c-14-8-21.1-6.2-28.4,9.2c-22.8,48-52.2,91.6-96.9,122.5c-42.8,29.5-89.4,43.6-141.5,31.2
			c-49.8-11.9-71.8-49.2-57.8-98.5c13-45.5,35.8-86.7,58.6-127.7c3.7-6.7,7.2-13.4,11-20.5c-17.7-9-29.7-7.6-42.9,8.1
			c-78.9,93.7-175.2,160.9-296.1,189.6c-26,6.2-52.5,9.5-79.1,10.7c-261.1,11.1-517.4-13.4-764.9-103.1
			c-17.7-6.4-35.6-12.6-53.6-18.2c-100.4-30.8-154.7-102.7-176.5-201.3c-34.4-156.1,0.9-300.8,77.6-437.4
			C188.9,1539.2,221.1,1506.5,325.1,1422z M842.7,2171.7c78.1-1.5,162.6-8.3,246.2-25.1c109.2-21.9,214.1-56.5,314.8-103.8
			c8.2-3.9,15.8-6.8,16.5-18.8c3.6-60.9,8.1-121.8,12.5-182.7c0.9-12.2-1.4-22.7-7.3-33.9c-13.3-25-15.6-51.5,1.4-75.9
			c16.7-23.9,41.1-26,67.9-20.7c25.2,5,36.4-1.6,45.9-25.5c9.2-23.1,11-47.7,13.7-72.1c1.3-11.4-1.8-17.7-13.2-22.1
			c-19.7-7.7-38.5-18.1-48.9-37.8c-5.3-10-13.1-15.8-22.7-20.8c-79.5-41.7-162.3-75-247.7-102.3c-216-69.1-437-77.5-660-50.5
			c-182.6,22.1-318,115.4-400.2,281.2c-58.8,118.7-85.8,243.5-56.3,375.4c15.8,70.7,46.1,134.3,118.4,163.7
			c136.8,55.7,278.2,95.7,424.7,116.6c11,1.6,13.1-1.3,13.3-11.2c0.8-28.8,1.3-57.6,4.1-86.2c1.9-19.4-5.5-24.1-23.7-26.6
			c-153.5-21.5-298.8-69.2-436.6-140.2c-9.8-5.1-12.6-9.1-7.4-20.5c7.7-16.9,15.7-15.5,30.2-8
			C418.9,2121.8,621.5,2170.8,842.7,2171.7z M1589.3,1611.8c-1.7,22.2-3.7,42.3-8.5,62c-14.5,60.2-39.6,77.9-100.7,70.6
			c-21.6-2.6-33.1,9.7-29.3,31.5c4.1,23.4,20.3,36.5,40.8,44.3c19.6,7.5,40.1,12.6,60.1,19.1c36.6,11.8,71.3,27,93.7,60.4
			c19.6,29.3,25,61.2,8.7,93.7c-17.5,34.7-48.8,43.6-84.8,41.1c-23.1-1.6-46.1-5.4-69.1-5.6c-37.2-0.5-59.4,25.5-56,62.8
			c1.6,17.4,8.1,29,28.1,29.8c12.5,0.5,25,3.6,37.4,6c105.6,20.9,202.2,65.8,298.8,111.2c72.3,34,144.3,68.6,220.2,94.4
			c14.9,5.1,20.7,1.8,26.3-12c26.3-64.9,53.3-129.6,80.8-194c5.9-13.8,3.8-17.5-11.4-18.6c-83.4-5.9-166.2-16.9-247.2-37.9
			c-53.7-13.9-107.2-29.4-150.6-66.7c-32.8-28.2-38.2-64.5-16.4-102c13-22.3,32.1-38.7,51.6-54.9c8.6-7.2,15.8-11.6,23.7,0.7
			c6.1,9.4,14.3,16.9-0.8,26.8c-15.8,10.3-30,23.2-40.5,39.4c-19.1,29.5-16.2,47.3,11.5,68.7c22.5,17.4,48.3,28.3,75,37.3
			c90.3,30.7,184,43.4,278.5,52.1c152.6,14.1,264.9-53.4,350.1-174.3c11.7-16.7,21-35.5,37.8-47.4c68.2-48.4,137.7-94.3,219.7-117.1
			c42.7-11.9,86.4-18.1,130.1-24.6c26.5-4,13.3-24.4,13.3-36.3c0-16.2-12.6-4.2-18.3-2.7c-53.7,14.4-107.7,18.7-162.6,8.9
			c-102.7-18.4-172.8-88.7-176.3-185.7c-4.9-134.7,48.9-243.9,155.9-326.2c19.8-15.3,41.4-28.3,63.7-43.4
			c-48.9-13.6-97.3-21.4-145.8-28.2c-100-14.1-199.2-35.2-300.5-37.8c-134.2-3.4-254.6,38.4-351.9,129.7
			c-66.4,62.4-136.5,118.5-211,170c-54.8,37.9-110.5,74.6-163.9,114.4c-47.9,35.6-43.4,67.5,11.3,89c43.8,17.1,83.5,39.4,115.7,74.3
			c8,8.7,17.4,16.3,26.8,23.7c40.3,31.6,95.1,34.9,138,8.6c40.6-24.9,61.2-74.2,50.6-124.4c-9.3-44.3-39.6-72.4-78.5-90.3
			c-19.8-9.1-9.9-18.2-6.3-29.3c5.9-18,15.8-5.8,22.8-2.3c67,33.6,118,97.3,93.2,197.5c3.9-3.6,6.9-6.3,9.8-9
			c30-28.3,71.3-35.5,109.3-18.9c27.6,12,38.4,29.4,36,59.6c-3.9,49-13.6,97.1-23,145.2c-10.5,54.1-64.3,81.7-116,60.8
			c-31-12.5-44-35.1-43.9-76.2c0.1-40.2,4.7-80.1,10.3-125.4c-5.8,6.7-7.9,9.2-10.1,11.6c-39.9,44.5-89.5,60.8-148,50.9
			c-40.1-6.8-69.3-32.1-97.8-58.5C1631.7,1641.7,1615.4,1623,1589.3,1611.8z M2918.2,839.8c-2.2-24.4-4.4-48.9-6.6-73.3
			c-4.4-47.5-25.4-85.3-65-112.6c-28.3-19.5-59.7-30.8-93.1-36.9c-31.8-5.7-31.1-5.6-29.4,26.3c2,37.9-3,74.3-30.1,104.1
			c-20.9,23-46.7,33.8-77.3,27.4c-32.3-6.7-49.7-29.9-58.6-60c-6.8-23.1-5.5-47.2-5.7-71c-0.3-37.3-1.9-38.7-39.3-29.5
			c-0.7,0.2-1.3,0.5-2,0.6c-78.8,21.2-133.5,73.4-180.3,137.3c-30.2,41.3-34.8,90.9-50.7,136.9c-2.5,7.2,2.5,11.9,6.7,16.6
			c18.3,20.4,37,40.3,54.9,61c36.4,42.1,82.7,66.8,136.7,76.9c41.3,7.8,82.9,13.8,124.5,19.6c26.1,3.7,51.5,11.6,79,6
			c57.7-11.6,111-33.7,163.4-59.6c43.2-21.4,63.9-57.2,70.6-102.9C2919,884.7,2921.3,862.3,2918.2,839.8z M1927.5,1017.1
			c58.7-2,121.1-2.4,179.3-25.9c118.6-47.8,156.6-110,155.3-202.7c-1.1-84.9-36.2-131.4-112.6-145.5c-29.9-5.5-60-4.5-90.2-5.3
			c-16.1-0.4-20.2,4.7-19.1,20.4c2.1,32.2-3.4,63-24.3,89.3c-25.2,31.7-67.9,44-103.9,29.7c-36.2-14.4-55.9-48.3-52-89.5
			c5-52.1,5-52.1-47.5-45.3c-94.7,12.4-154.6,63.9-175.7,151c-25.3,104.6,13.9,172.1,117,202
			C1809.6,1011.4,1866.8,1016.2,1927.5,1017.1z M160.9,1280.9c7.1,52.6,45.5,97.2,94.4,103.8c55.2,7.5,112.6,7.3,165.1-8.4
			c92.5-27.6,185.7-42.2,281.7-42.9c8-0.1,15.3-1.8,21.9-5.9c42.1-26.2,72.4-61.5,85.1-110.4c24.8-95.9-10.5-190.4-92.6-249.9
			c-13.6-9.9-27.4-14.9-44.6-14.8c-97.6,0.6-195.2,0.2-292.7,0.3c-9.8,0-20.1-0.4-29.2,2.5c-133.8,42.5-203.7,157.5-198.3,275.6
			c0.2,4.7-0.6,9.3,5.1,12.5c39.4,22.2,74.2,8.1,79.6-35.7c12.1-98.6,70.6-158.7,157.2-196.8c53.1-23.4,108.8-32.4,166.5-26.7
			c55.3,5.5,104.6,25.9,144.7,65.5c48,47.4,62.3,110.4,37.7,165.4c-18.8,42-56.9,65.7-102.2,63.5c-40.7-1.9-72.2-26.2-85.3-66.7
			c-10.2-31.6-5.3-62.2,7.8-92c14.1-32.1,37.9-56.5,64.1-79.6c-10.2-8.8-21.4-11.3-32-13.9c-92-22.2-175-1.2-250.3,54.1
			c-41.1,30.2-64.2,70.9-70.5,122c-9.1,73.3-36.5,92.4-109.2,78.6C164,1280.7,163.3,1280.9,160.9,1280.9z M1392.5,1092.2
			c-11.4-21.3-21.6-37.3-48-40.3c-152.7-17.5-292.7,14.4-418.1,104.4c-30.2,21.7-63.4,42.9-81.7,74.8
			c-19.3,33.7-33.4,70.2-64.9,98.5c5.7,1.5,7.6,2.4,9.4,2.4c158.5-3,312.7,21.7,463.2,71c7,2.3,13.8,2.7,20.6,0.6
			c51.6-15.2,88-47,108.1-98.7c-39.3-4.6-73.1-17.9-98.1-48.6c-39.1-48.2-28.8-102.6,25.1-132.5
			C1334.3,1109.5,1362.1,1100.3,1392.5,1092.2z M2439.5,2378.3c15.5-0.7,37.4-2,58.4-7.7c91.1-25,177.1-62,255.7-114.8
			c45.1-30.3,76.8-71.2,89.6-125.3c6.1-25.5,4-51.8,8-77.3c3.2-20.3-3.2-21.7-20.8-16.2c-114,36-230.8,58.9-349.6,70.6
			c-16.1,1.6-21,7.8-24,21.7c-15.8,73.2-32.1,146.2-48.5,219.3C2401.5,2378.9,2401.2,2378.8,2439.5,2378.3z M2351.5,1026.8
			c-30.7-30.6-57.6-57.1-81.3-86.4c-8.6-10.7-13.5-11.5-23.4-0.5c-43,47.5-96.9,77.8-158.5,94.2c-61.6,16.4-124.7,18.1-187.9,17
			c-9-0.1-17.8-1.2-26.5,3.8c-96.9,55.2-193.6,110.6-281.2,180.2c-57.1,45.4-66.3,97.7-29.5,161.2c6.6,11.4,11.6,14.8,23.6,5.8
			c25.3-18.8,51.9-35.8,77.6-54c75.9-54,154.7-103.8,219.9-171.9c84.9-88.6,193.5-131.1,312.4-150.7
			C2246.3,1017.2,2296,1023.1,2351.5,1026.8z M746,916.8c162.8,0,325.7,0,488.5,0c38,0,36.7-0.1,38.5-38.7c1-20.9-4.5-26.6-26-26.6
			c-326.4-1-652.8-3.1-979.1-5c-49.1-0.3-48.2-0.5-49.3,48.9c-0.4,17.7,4.7,21.9,22.1,21.9C409,916.6,577.5,916.8,746,916.8z
			 M967.3,2269.7c-0.6,0-1.2,0-1.7,0c0,8.4,0.1,16.8,0,25.3c-0.6,41.3-0.5,40.1,41.4,41.5c159.4,5.3,288.4-57.4,394.7-173.2
			c14.8-16.2,25.7-30,10.8-51.5c-3-4.2-3.5-10.8-3.5-16.3c0-13.8-4.9-14.2-16.4-9.1c-40.8,18.4-82.5,35.1-125,49.1
			c-91.3,30.2-184.5,52.4-280.4,61.9c-14.8,1.5-21.2,6.2-20.1,21.8C968.2,2236,967.3,2252.9,967.3,2269.7z M2444.6,2076.5
			c32.9-3.8,59.9-6.6,86.9-10c104.6-13.2,206.8-37,307.3-68.3c9.9-3.1,14.1-7.6,14.2-19c0.5-43.5,1.4-87,4.2-130.4
			c1.3-20.6-5.6-24.5-24.4-21.8c-75.5,11.2-147.5,33.1-215.7,67.8c-27.3,13.9-50.8,32.4-70,56.3
			C2515,1991.5,2483.9,2032.9,2444.6,2076.5z M2796.4,1640.1c-7.4-1.2-14.7-2.4-22.1-3.5c-85.4-13.1-148.8-74.5-156.8-155.2
			c-7-69.7,10.8-133.4,53.6-189.6c36.6-47.9,84.3-81.6,138.3-107.6c-7.6-13.5-18-23.9-28.8-33.9c-7.6-7-14.8-7.8-24.6-2.9
			c-120.7,60.7-197.3,154-217.7,290c-15.7,104.2,35.2,180.3,138.1,204.8C2715.9,1651.5,2755.6,1651.6,2796.4,1640.1z M853.1,1170
			c141.6-123.8,303.3-172.1,489.1-153.6c-11.7-17.4-22.5-31.2-30.9-46.4c-7.4-13.4-16.9-18-32.1-17.7c-54.7,1.2-109.5,0.2-164.3,1.5
			c-110.4,2.6-195.7,52.5-259.9,140.8c-3.6,5-8.8,9.9-7.1,16.9C852.3,1129.3,851,1147.6,853.1,1170z M2816.3,1604.9
			c11.2-0.7,22.3-1.7,33.5-2.1c16.3-0.5,14.1-12.5,14.2-22.7c0.1-13.9-10-8.5-16.7-7.9c-26.9,2.4-53.4,0.3-79.1-7.7
			c-34.4-10.7-54-42.7-49.2-78.5c3.2-23.9,11.4-46.1,22.8-67.3c22-40.6,50.5-76.7,86.4-104.9c23.3-18.3,25.5-35.7,15.2-60.4
			c-20.7-49.9-10.8-44.2-52.7-19.3c-55.9,33.2-102.9,75.9-125.2,139.5c-14.3,40.9-20.7,83-9.2,125.9
			C2673.7,1563.8,2735.2,1603.9,2816.3,1604.9z M1504.3,2378.1c20.5-1.1,36.3-3.8,51.5-9.7c64.3-24.9,98.6-77.9,127.8-135.9
			c3.9-7.7,1.5-11.3-5.8-14.3c-46.7-19.1-93.6-37.4-142.7-49.6c-6.3-1.6-12.2-2.5-16.3,4.7c-27.5,48.4-56,96.5-71,150.8
			c-6.7,24.2,2.3,39.5,25.8,47.3C1484.8,2375.1,1496.7,2376.5,1504.3,2378.1z M1316.9,1425c56,22.4,107.2,44.9,157,70.4
			c5.5,2.8,10.3,4.5,13.5-3.2c9.9-23.5,27.9-39.9,47.9-54.5c6.1-4.5,7.5-8.4,3.1-15.5c-27.7-44.6-40.6-91.9-24-144
			c2.4-7.5-1.9-12.4-6.2-16.5c-5-4.8-8.7,1.4-12.3,3.8c-20.4,13.8-42.1,24.9-65.8,31.8c-6.7,1.9-10.7,5.2-12.9,11.9
			C1400.5,1360.2,1367.8,1397.9,1316.9,1425z M2299.7,2078.6c59.4,7.1,105.6-9.6,139.4-49.2c20.5-24,39.7-49.1,59.3-73.9
			c25.8-32.6,52.1-64.4,89.6-84.7c75.5-40.9,155.7-67.1,240.7-78c31-4,30.7-3.3,30.8-35.6c0.1-11.2-2.3-13.7-14.3-12.7
			c-117.5,9.8-220.6,55.9-314.8,124.3c-14.9,10.8-27.4,23.8-36.5,40.2c-14,25.2-30.2,48.9-51.5,68.8
			C2400.8,2016.6,2358,2053.8,2299.7,2078.6z M1588.4,682.9c0-0.3-0.1-0.6-0.1-0.9c-22.3,2.5-44.8,3.6-66.8,7.6
			c-47.1,8.5-75.7,52.2-76.7,111.3c-0.4,21.5,8.1,31,28.4,33c38.1,3.8,75.6-0.8,113.1-6.5c9.3-1.4,10.2-7.2,11.3-14.7
			c4.2-30,13.2-58.6,26-86.2c6.3-13.5,27-28.6,19.2-37.7c-9.9-11.5-32.7-6.5-50.2-6.1C1591.2,682.7,1589.8,682.8,1588.4,682.9z
			 M321.7,567.3c-13.5,3.5-20.9,10.8-28.9,17.2c-37.3,29.8-64.6,68-91.1,106.9c-19,27.9-13.5,61.1,14.4,86.2
			C246,804.5,276,807,302,781c47.8-47.9,70.9-106.9,70.2-174.7c-0.1-7.9,1.9-19.8-6.8-22.8c-9.4-3.2-15.1,7.8-21.6,13.8
			c-3.6,3.3-6.3,7.5-9.2,11.4c-25.3,33.9-46,70.6-61,110c-6.3,16.6-12.9,16.7-27.7,11.3c-17-6.2-9.6-14.8-5.8-24
			C260.5,657,286.6,611.1,321.7,567.3z M2686.6,2384c-1.5,42,15.6,61.1,48.1,58.3c47.4-4.1,83.1-30.4,112.4-66.3
			c6.3-7.7,9.7-17,12.2-26.6c6.3-24.9-1.6-47.5-22.5-60.5c-20.2-12.6-47.2-22-67.4-1.3c-9,9.3-21.1,17.5-33.4,21.4
			C2693.4,2322.5,2679.3,2351.5,2686.6,2384z M1457,2000.3c30.3-7.9,58.1-7.9,85.8-3.4c14.7,2.4,29.3,2.6,44,2.1
			c25.5-0.9,40.1-16,40.8-41.2c0.8-30.2-15.9-49.7-39.7-64.6c-25.3-15.8-54.2-22.3-82.2-30.9c-11.9-3.7-26.9-13.3-35.1-9.3
			c-10,4.9-3.9,22.7-5.1,34.8C1461.8,1924.6,1459.7,1961.5,1457,2000.3z M1970.9,1826.3c31.9,0.2,44.6-9.4,50.4-41.1
			c7.5-40.6,14.1-81.4,20.7-122.1c5.3-32.6-5.5-45.2-38.7-46.5c-29.3-1.1-51.5,14-59.8,43c-12.3,42.9-14.2,87.1-13,131.3
			C1931.2,1815.4,1945.1,1826.1,1970.9,1826.3z M1385.7,1268.9c34.1-0.9,63.7-14.3,91.3-33.1c7.4-5,8.3-9.4,3-16.9
			c-19.6-28.1-38.7-56.5-57.6-85c-4.5-6.8-9.5-9.1-17.5-7.5c-33.2,6.7-64.7,17.6-92.8,36.9c-15,10.3-19,24.8-15.1,42.4
			C1304.8,1241.2,1343.4,1269,1385.7,1268.9z M584.8,1166.1c-0.3,44.7,16.3,68.6,47.1,75.6c32.4,7.4,61.7-7.6,77.3-39.6
			c26.9-54.9-5.1-109.3-40.5-137.8c-4-3.2-7.6-5.7-12.8-1.5C619.3,1091.8,588.4,1124.2,584.8,1166.1z M2859.9,1331.5
			c-44.7,39.9-82.3,82.3-101.7,138.1c-2.5,7.2-3.6,15-4.1,22.6c-1.4,20,6.8,33.2,27,39.2c24.1,7.2,48.4,5.8,72.9,4.3
			c9.6-0.6,11.3-5.3,11.4-13.4c0.8-41.3,2.9-82.7,2.6-124C2867.8,1377,2867.2,1355.2,2859.9,1331.5z M2636,610.9
			c-12.6,0-25.2,0-37.7,0c-6.1,0-11.2,0.9-11,8.8c1,28.5-3.5,57.4,4.5,85.5c4.8,16.8,13.4,31.5,32.2,34.9
			c18.7,3.4,34.4-3.9,46.1-18.6c13.1-16.5,18.8-35.7,18.6-56.6C2687.7,596.6,2696,611.3,2636,610.9z M1952.1,638.9
			c-54.7-1.2-54.7-1.2-56.8,52.3c-1.1,29.9,10.5,48.5,34.5,55.2c22.8,6.3,49.9-5.1,62.8-27.2c9.7-16.7,11.9-35.2,13.4-54.3
			c1.5-19.3-3.4-29.1-24.7-26.1C1971.8,640,1961.9,638.9,1952.1,638.9z M756.5,953.4c36.4,32.6,61,66.9,77.9,108.6
			c36.4-44.7,76.5-80.4,123.5-108.6C892.8,953.4,827.7,953.4,756.5,953.4z M1501.7,604.4c-21.4,0.8-47.3,6-72.2,15.7
			c-7.3,2.9-15.7,5.7-16.9,14c-3.4,22.7-1.6,44.6,15.4,62.7c6.3,6.8,10.8,6.4,16.7-0.7c22-26.9,51.7-38.9,85.3-44.3
			c7-1.1,21.1,5.3,20.9-9.7c-0.2-13.3-3.7-26.4-17.2-33.7C1525.2,603.9,1516.2,604.4,1501.7,604.4z M2267.1,2322.4
			c-24-45.6-26-46.5-72.8-35c-3.4,0.8-6.7,1.9-10.1,2.5c-7.9,1.4-10.3,3.8-6.5,12.5c18.1,40.8,22,42.9,64,29
			C2250.2,2328.7,2258.6,2325.5,2267.1,2322.4z M2141.3,2361.5c24.3-0.3,27.4-5.7,17.3-22.8c-5.3-9-10.7-17.9-16.2-26.8
			c-2.5-4-4.1-8.5-10.3-9c-20.9-1.9-45.1,18.3-48.4,39.6c-1.1,6.9,3.1,6.9,6.5,7.7C2108.5,2354.5,2126.8,2358.3,2141.3,2361.5z
			 M2246.4,2163.5c-11.3-14.1-20.3-25.5-29.4-36.9c-1.7-2.2-3.4-4.5-5.4-6.4c-13.5-13.1-33.5-9.6-37.9,6.5
			c-3.6,13.1,23.4,46.6,36.8,44.8C2221.5,2170,2232.1,2166.8,2246.4,2163.5z M2316.3,2257.3c-2,0.7-3.9,1.5-5.9,1.9
			c-39,8.2-38.5,7.9-14.7,39.1c7.1,9.3,13.4,12.4,24.1,7.7c7.6-3.3,15.7-5.5,23.5-8.1c3.2-1.1,6.8-1.7,6.6-6.4
			C2349.7,2285.9,2321.6,2257.2,2316.3,2257.3z M2209.8,2246.8c-19.6-35.6-19.8-36.1-57.3-25.9c-5.6,1.5-17.7-3.4-16.7,9.7
			c1,12.3,18.9,30.4,27.7,28.3C2178.9,2255.3,2194.2,2250.9,2209.8,2246.8z M2297,2225.6c-5.6-7.1-9.4-12.1-13.4-16.8
			c-10.3-12.2-40.6-15-52.2-5.1c-2.5,2.1-2.6,4.1-1.8,7.1c4.4,16,22.1,26.4,38.3,22.4C2276.7,2230.9,2285.4,2228.6,2297,2225.6z
			 M782.6,2273.2c16.6,1.2,17.9-13.1,20.8-22.3c3.3-10.7-9.6-6.3-14.5-10c-2-1.5-5.4-1.2-8.1-1.8c-19.7-4.9-31.8,0.4-34.2,20.1
			c-2.2,17.9,17.1,5.3,24.3,12.2C773.3,2273.6,778.9,2272.7,782.6,2273.2z M2258.4,2117.4c20.5,36.3,26.3,39.5,52.7,32.9
			c11.5-2.9,10.2-5.8,4.6-14.9C2301.3,2112.1,2280.3,2115.9,2258.4,2117.4z M2312.6,2186.8c2.8,4.1,4.7,6.1,5.8,8.6
			c9.9,21.1,25.9,21,45.3,14.6c11.3-3.7,7.9-7,3.6-14.3C2353,2171.5,2333.7,2180.3,2312.6,2186.8z M710.6,2322.7
			c45,11.2,52.6,9.4,62.5-13.5C730.2,2291.8,723,2293.3,710.6,2322.7z M2377.3,2324.3c-15.4,4.9-27.2,8.6-39.1,12.4
			c-3.2,1-8.5,2.8-6.6,6.1c7.1,12.6,15.2,24.7,26.6,34c2.3,1.9,5.5,1,7.3-1.4c1.2-1.6,1.8-3.7,2.2-5.7
			C2370.7,2355.7,2373.6,2341.6,2377.3,2324.3z M2344.2,2116.9c11.8,9.1,13.1,22,25.7,20.1c15.1-2.3,30-6.4,44.9-9.9
			c5.4-1.2,9-4.3,7.6-10.3c-1.4-5.9-6.7-3.8-10.3-3.6C2391.9,2114.1,2371.7,2115.4,2344.2,2116.9z M2243.4,2372.8
			c20.6,1,41.1,2,62.7,3C2294.3,2347.6,2292.7,2347.5,2243.4,2372.8z M916,2294.3c10.5,3.8,15,2.9,15.1-6.6
			c0.1-18.1-15.3-12.4-24.2-16c-12.5-5.1-16.6,9.5-15.5,13.5C895.2,2298.9,910.1,2291,916,2294.3z M2387,2278.5
			c2.4-8.4,4.3-14.1,5.5-20c1.2-5.8,1.6-11.8,2.7-20.8c-11.5,4.5-27.8,2.2-29.4,10.2C2363.5,2259.7,2377.8,2267.4,2387,2278.5z
			 M724.6,2225c-27.8-7.5-29.6-4.5-22,36.7C710.6,2248.5,717.1,2237.6,724.6,2225z M830,2278.4c15.6,9.9,23.6,3.6,29.8-10.2
			c3-6.8-0.1-8.9-5.1-10.5C834.7,2251.4,837.5,2270.3,830,2278.4z M928.9,2335.8c-18.1-11.4-36.5-7.5-53-11.8
			c-4.6-1.2-8.1,2.5-7.7,7.4c0.6,6.2,6.1,4.2,9.7,4.3C893.9,2335.9,909.8,2335.8,928.9,2335.8z M890.4,2206.9
			c-12.4-1.8-23.8-4.5-28.2,10.4c-2.2,7.4,4.8,7.5,8.7,8.4C886.5,2229.2,885.6,2215.9,890.4,2206.9z M832.8,2315.3
			c-11.2,0.8-22.8-4.6-27.1,10.3c-1.3,4.5,0.6,6,4.7,6.8C822.8,2334.7,830.6,2330.6,832.8,2315.3z"/>
		<path class="st0" d="M1326.4,557.8c22.8-0.1,39.6,16.8,39.4,39.6c-0.2,21.2-17.3,38.7-38.3,39.3c-21.6,0.6-40.4-17.5-40.8-39.3
			C1286.2,575.6,1304,557.9,1326.4,557.8z"/>
		<path class="st0" d="M822.1,1635c63.7-1.1,127.6,3.3,191-6.8c30-4.8,56-17.8,78-38.5c28.6-27,27.5-52.1-2.6-88.1
			c-4.4-5.3-15-8.5-7-20.3c12.9-19,15.9-20.2,32-3.9c46.1,46.4,43.3,104-6.8,145.5c-29.5,24.4-63.5,39.5-101.4,42.2
			c-120.5,8.7-241.1,8-361.6,1.4c-42.4-2.3-70.2-25.2-84.3-64.9c-14.1-39.7-8.9-76.2,20-107.6c25.2-27.4,56.8-42.8,94.3-45.3
			c8-0.5,18.1-3.8,17.2,10.5c-0.7,10.5,4.1,24.2-13.9,24.9c-26.5,1-48.6,11.5-67.6,29.8c-22.3,21.4-26.4,46.2-17.3,75
			c9.4,29.6,30.6,41.4,59.7,43.8C708.6,1637.2,765.4,1634.9,822.1,1635z"/>
		<path class="st0" d="M852.9,1490c78.5,1.4,150.1,24.3,214.4,69.5c6.6,4.6,18.2,8.5,7.3,20.2c-7.6,8.2-11.2,20-27.8,9
			c-126-83.2-254-85.5-382.2-5.1c-16.7,10.5-15.7-5.3-21.7-10.5c-9.5-8.2-6.2-14.5,3.5-20.7C709.5,1512,778.1,1490.9,852.9,1490z"/>
		<path class="st0" d="M1379.1,1951c18.7,14.5,30.2,30.4,20.4,53.3c-7.4,17.4-21.5,25.8-40.1,24.1c-18.7-1.7-31.2-12.9-35.1-31
			c-4.9-22.6,7.5-37.1,26.5-47c-25.2-31.1-26.6-55.2-4.3-71.4c18.4-13.4,44.8-8,56.8,11.6C1416.7,1912.2,1407.9,1935.2,1379.1,1951z
			"/>
		<path class="st0" d="M381.9,1652.5c0.1-26.5,19.5-45.6,46.6-45.6c26.5,0,46.8,20,46.7,46c-0.2,25.1-22.1,46.9-47.1,46.8
			C402.6,1699.7,381.8,1678.5,381.9,1652.5z"/>
		<path class="st0" d="M333.2,1704.1c24.8-0.5,44.9,18.8,44.8,43.2c0,23.1-19.6,42.9-42.9,43.5c-24,0.6-44.5-19.4-44.5-43.6
			C290.6,1723.7,309.5,1704.5,333.2,1704.1z"/>
		<path class="st0" d="M270.3,1902.9c23.5-0.3,44.2,20.2,44.2,43.8c0,23.6-20.7,44.2-44.2,43.8c-23.2-0.3-42.4-19.5-43-42.8
			C226.8,1923.5,246.2,1903.2,270.3,1902.9z"/>
		<path class="st0" d="M889.5,1807c0.3,22.7-16.4,40-39,40.5c-23.1,0.5-41.8-17.8-41.5-40.5c0.3-21.8,18.6-39.7,40.5-39.6
			C872.1,1767.4,889.2,1784.4,889.5,1807z"/>
		<path class="st0" d="M834.7,2029.2c-22.7-0.2-39.5-17.1-39.6-40c-0.1-22.4,17.3-40.3,39.4-40.6c22.1-0.3,42.1,19.7,41.5,41.5
			C875.4,2011.5,856.5,2029.4,834.7,2029.2z"/>
		<path class="st0" d="M835.1,1932.6c-22.7,0.1-39.8-16.9-40-39.5c-0.2-22.5,16.9-40.4,39.1-41.1c21.8-0.7,42.3,19.5,41.8,41.2
			C875.5,1915.1,857.5,1932.5,835.1,1932.6z"/>
		<path class="st0" d="M335.4,1848.7c-1,22.1-19.3,38.9-41.7,38.3c-22.2-0.6-39.7-18.6-39.2-40.7c0.4-22.6,20.5-41.4,42.7-39.9
			C318.8,1807.8,336.4,1827.2,335.4,1848.7z"/>
		<path class="st0" d="M818.3,2125.7c-22.9-0.1-39.6-16.8-39.7-39.6c-0.1-22.6,16.9-40.1,39.3-40.6c22.3-0.5,41.9,19,41.4,41.2
			C858.8,2108.3,840.4,2125.8,818.3,2125.7z"/>
		<path class="st0" d="M848.5,1682.8c23-0.3,40.2,15.6,41,37.8c0.8,22.9-17.7,42.4-40.1,42.4c-21.2,0-40.1-18.9-40.4-40.3
			C808.7,1700.5,826,1683.1,848.5,1682.8z"/>
		<path class="st0" d="M1315.7,1757.9c-21.7-0.6-39.7-19.7-39-41.3c0.8-22.1,19.1-38.8,41.7-37.8c21,0.9,38.3,18.8,38.2,39.5
			C1356.4,1739.7,1337,1758.5,1315.7,1757.9z"/>
		<path class="st0" d="M1355.7,1775.8c21.9,0.2,39.5,18.7,38.9,41c-0.5,21.2-18,38.6-39,38.9c-21.2,0.3-40.8-19-40.8-40
			C1314.9,1794.7,1334.4,1775.6,1355.7,1775.8z"/>
		<path class="st0" d="M1306.4,1621.7c0.1,23.2-16.4,40.4-38.7,40.2c-21.5-0.1-37.7-16.6-38-38.6c-0.3-23.7,15.1-40.8,37.3-41.4
			C1289.2,1581.4,1306.3,1598.6,1306.4,1621.7z"/>
		<path class="st0" d="M1215.4,1560.7c-14.8-0.4-27.7-14.2-27.1-29.1c0.6-15.4,13.3-26.6,29.4-25.7c16.9,0.9,25.1,10.7,25.5,27
			C1243.7,1548.1,1230.3,1561.1,1215.4,1560.7z"/>
		<path class="st0" d="M2129.9,1428.4c91.6-1.9,169.4-35.7,230.7-103.7c13.9-15.4,20.7-8.2,31.4,0.4c13.9,11.2,1.1,17.5-4.8,23
			c-32.3,30.2-60.7,64.1-91.8,95.4c-39.7,40-87.3,68.2-139.9,87c-70.5,25.1-130.3-0.2-184.8-44.3c-7.7-6.2-14.3-15.5-14.6-25
			c-1.6-47.4-18.2-94.4-2.2-142.3c3.7-11.1,6.6-15.9,18.1-11.3c8.7,3.5,22.4,1.8,16.9,18.7c-2.6,7.9-3.7,16.4-4.9,24.7
			c-6.2,41.4-5.5,42.5,32.7,56.9C2053.2,1421.6,2091.1,1427.9,2129.9,1428.4z M1990.4,1435.4c-5.2,17.3,3.9,26.1,15.4,34.2
			c72.1,50.8,152.8,44.7,224.1-20.6C2145.6,1472.5,2067.2,1466.5,1990.4,1435.4z"/>
		<path class="st0" d="M2191.1,1860.3c-33.6,0-67.3-0.1-100.9,0.1c-9.3,0.1-15.8,0-14.9-13.1c4.9-76.9,9.3-153.8,12.8-230.8
			c0.7-14.8,5.7-18.4,19.9-18.1c37.1,1,74.3,1.3,111.4-0.1c17-0.7,19.5,5.7,18.8,20.5c-1.8,35.7-1.6,71.4-3.3,107.1
			c-0.6,13.1,0.6,22.3,16.7,21.4c2.7-0.2,5.4,1.3,8.2,1.8c15.7,2.7,36.9,0.2,45.8,9.4c11.1,11.6,3.7,33.3,3.5,50.6
			c-0.2,17.2,8,39.1-3.9,50.2c-10.8,10.1-32.2,2-48.9,2.3c-21.7,0.4-43.4,0.1-65.2,0.1C2191.1,1861.3,2191.1,1860.8,2191.1,1860.3z
			 M2117.1,1733.5c0,0-0.1,0-0.1,0c-1.5,25.2-2.4,50.5-4.8,75.6c-1.2,12.7,2.1,17.3,15.5,17.2c43.5-0.6,87.1-0.1,130.6,0.1
			c9.3,0,19.3,1.6,17.1-13.1c-1.7-11.5,7.1-28.1-15.8-29.1c-14.6-0.6-29.1-4.8-43.7-6.1c-12.9-1.1-17.5-6-16.8-19.6
			c1.9-35.7,1.8-71.6,3.5-107.3c0.6-12.6-2.8-18-16.1-17.3c-16.1,0.9-32.3,0.9-48.4,0.1c-11.8-0.6-16.3,3.9-16.7,15.5
			C2120.4,1677.4,2118.5,1705.5,2117.1,1733.5z"/>
		<path class="st0" d="M2397.7,1242.4c-7.3,6.2-13.8,12.7-21.2,17.6c-7.4,5-11.3-2.3-15.4-6.7c-36.9-39.2-80.2-67.9-133.2-80
			c-85.9-19.6-160.1,6.5-227.3,59.2c-7.2,5.6-15,11-20.5,18c-11.5,14.6-20.9,11.4-32.2-0.4c-5.9-6.2-8.3-9.6-1.4-16.6
			c135.8-137,323.8-134.7,444.2,0.2C2393,1236.3,2395,1239.1,2397.7,1242.4z"/>
		<path class="st0" d="M2496.3,983.9c-39.9,0.1-69.4-28.9-69.4-68.2c0-38.5,31.2-69.8,69.4-69.8c38,0,69.8,31.8,69.8,69.9
			C2566.2,954.6,2536.3,983.8,2496.3,983.9z M2496,949.8c19.4,0.2,35.1-15.2,35-34.2c-0.1-18.1-14.9-33.2-33.2-33.9
			c-19.2-0.7-35.5,14.3-36.1,33.2C2461,933.6,2476.8,949.6,2496,949.8z"/>
		<path class="st0" d="M2735.2,856.9c34.3-0.2,60.5,25.3,60.5,59c0,32.6-26,58.8-58.5,59.3c-33.4,0.4-60.8-26.4-60.7-59.4
			C2676.5,883.1,2702.4,857.1,2735.2,856.9z"/>
		<path class="st0" d="M461.4,1119.1c0.5,19.4-16.1,36.5-35.4,36.5c-18.8-0.1-34.3-15.5-34.8-34.6c-0.5-20,15.4-36.4,35-36.3
			C445.1,1084.8,460.9,1100.2,461.4,1119.1z"/>
		<path class="st0" d="M504.1,1190.1c-0.9,19.9-17.7,34.9-37.8,33.7c-19-1.1-33.4-17.2-32.7-36.4c0.7-19,16.6-34.4,35.3-34.1
			C487.5,1153.5,504.9,1171.8,504.1,1190.1z"/>
		<path class="st0" d="M503.9,1097.1c-18.6,0.5-35.2-14.9-36.2-33.7c-1-19.6,14.9-37,34.5-37.5c18.8-0.5,36.9,17.1,36.7,35.8
			C538.8,1079.7,522,1096.6,503.9,1097.1z"/>
		<path class="st0" d="M527.8,1291.5c-20.5,0.2-34.8-13.4-35.2-33.3c-0.4-19.7,14-34.9,33.7-35.6c20.3-0.7,36.9,15.2,36.7,35.1
			C562.8,1276.9,547.9,1291.2,527.8,1291.5z"/>
	</g>
</g>
</svg>
