<?xml version="1.0" encoding="utf-8"?>
<!-- Generator: Adobe Illustrator 23.0.0, SVG Export Plug-In . SVG Version: 6.00 Build 0)  -->
<svg version="1.0" xmlns="http://www.w3.org/2000/svg" xmlns:xlink="http://www.w3.org/1999/xlink" x="0px" y="0px"
	 viewBox="0 0 3000 3000" style="enable-background:new 0 0 3000 3000;" xml:space="preserve">
<style type="text/css">
	.st0{stroke:#000000;stroke-width:10;stroke-miterlimit:10;}
</style>
<g id="Layer_1">
</g>
<g id="Layer_2">
	<g>
		<path class="st0" d="M1854.5,454.9c48.1-83.6,108.1-157.5,186.2-214.8c112-82.2,235.5-137.4,375.6-146.9
			c209.3-14.3,362.6,77.8,452.3,262.9c99.6,205.6,113.7,424.6,62.6,646.4c-23.5,102-80.9,186.1-163.1,251.5
			c-16.1,12.8-19.5,23.5-13.2,43.2c84.7,263.5,115.4,533.4,101,809.9c-6.6,126.9-18.5,251.6-64.2,370.8
			c-43.4,113.1-104.8,216.3-185.9,306.2c-145.3,160.8-324.3,199.5-527.6,135.3c-112.7-35.6-208.7-100.2-292.1-183
			c-16.6-16.5-23-16.6-37.5,3c-75.9,102.8-173.4,167.8-306.6,164.3c-59.2-1.6-114.1-20.1-164.5-50.3c-15.1-9.1-22.2-9.9-33.6,6
			c-35.7,50-88.4,71.3-147.5,74.2c-122.9,5.9-245.7,19.9-368.9,7.2c-32.3-3.4-64.6-7.8-96.6-13.9c-47.9-9.2-83.3-36.9-106.3-79.4
			c-8.1-14.9-11.8-21.7-29.8-8c-51,38.8-109.7,35.3-166.4,17.9c-133.5-41.1-208.1-137-236.5-270.3c-21.1-99.2-7.7-196.3,26.9-290.9
			c19.2-52.5,55.3-91.8,98.3-125.8c59.2-46.6,120.1-90.9,183.9-130.9c16.5-10.3,22.2-15.4,2.9-30.7
			c-185.5-147.5-278.9-340-278.4-577.3c0.4-201.6-3.9-403.3,3-604.7c11-323.8,283-613.6,605.1-654.6c43.6-5.6,87.2-7.3,131-7.2
			c146.6,0.2,293.3-3.1,439.8,1.7c215.9,7,390.7,100.5,528,266C1838.5,440.4,1842.7,450.3,1854.5,454.9z M1772.3,2506.7
			c1.4-144.1-80.6-298-191.1-403.1c-10.4-9.9-18.9-6.4-30.1-1.9c-68.2,27.8-138.6,47.8-212.5,51.6c-176,9-352.2,5-528.3,2.7
			c-113.7-1.5-220.9-33.2-319.9-89.9c-14.5-8.3-24.7-7.8-38.4,0.8c-73.4,46-143.8,96-211.5,150c-33.2,26.4-60.1,58.1-74.7,98.5
			c-29.9,82.8-41.2,167.6-25.9,255.1c22.8,130.1,115.8,226.9,235.1,245.1c67.9,10.3,103.1-10.9,126.9-75.3
			c13.7-37.1,23.7-75.8,44.9-109.9c18.7-30.3,42.1-54.9,77.6-65c12.7-3.6,28.5-9,37.8,0.1c8.5,8.4-3.9,22.5-3,34.6
			c0.7,9.7-5.9,11-13.6,12.2c-21.8,3.2-35.4,18.2-48.3,34.5c-17.6,22.1-22.2,50-34.8,74c-35,66.6,23.1,149.5,88,159.4
			c157.7,24.1,314.8,12.3,471.9-2.1c38.8-3.5,71-26.5,89.3-62.3c46.9-91.5,117.3-162.9,191.1-232.1c16.9-15.9,24.4-10.5,38.1,3.3
			c15.4,15.4,10.9,22.7-3.1,35.2c-53.2,47.5-103.5,97.9-144.9,156.6c-8.3,11.7-11.4,18.8,4.4,28.1c70.6,41.1,144.6,57.8,225.4,38.3
			C1636.2,2817.4,1779.6,2678.7,1772.3,2506.7z M843,1873.8c51.8,46.7,158.9,71,219.3,74.9c17.1,1.1,14-10.2,14-20.1
			c0.2-39.8,10.2-77.4,35.5-108.1c31.7-38.5,39.4-81.5,32.5-128.8c-2.3-15.7-3.6-27.5,18.6-28.4c19.7-0.7,32.7,0,33.9,25.2
			c2.7,57.2-2,111.6-40.6,158.2c-20.1,24.3-29.9,52.7-27.8,84.9c0.8,12.8,5.1,16.8,18.7,16.2c151.2-6,244.4-86.5,270.4-234.4
			c26.7-152.2,104.5-226.4,256.3-246.4c80.8-10.7,160.5-3.1,240,10.1c17.4,2.9,23.5,1.1,22.9-17.8c-1.2-37.6-1.1-75.4,0-113
			c0.5-15.5-6.3-23.7-18.2-31.8c-150.8-103.6-314.8-177.4-493.1-219.5c-17.9-4.2-24.7-1.3-29.7,16.6c-15.2,54-44.2,100.1-85,138.7
			c-44.8,42.4-92.8,48.5-144.1,14.6c-16.4-10.9-25-8.1-39,2.4c-41.1,30.8-92.5,33.9-130.6,3.8c-23-18.1-38.7-21.8-67.7-10
			c-90.5,36.7-179.4-16.5-207.9-120.7c-5-18.5-10.1-22.5-28.7-16.5c-160.4,51.7-307.7,128.2-440.6,231.5
			c-84.8,65.9-83.9,67.1-70,175c0.1,1,0.3,2,0.3,3c-1.2,20.5,8.6,20.4,24.3,14.4c85.1-32.9,174.5-47,264.4-58.6
			c100.1-13,159.6,24.8,188.2,121.4c23.2,78.5,59.9,148.9,116.9,207.9c7.9,8.1,12.5,26.7,30.5,17.5c17-8.7,30.3-20.9,29.8-42.3
			c-0.2-8.1-0.8-16.3-1.5-24.4c-3-35.8,8.4-66.3,34.8-90.5c7.6-7,16.2-24.5,28.2-6.4c7.8,11.8,32,22.4,8.3,42
			c-18,14.9-23.7,35.2-20.4,57.8C891.8,1814,879.8,1848.4,843,1873.8z M2333.5,1401c39.8,122.1,57.1,244.3,48.9,369.7
			c-19.4,295.3-187.3,570-533.7,655.2c-24.1,5.9-31.2,14.1-28,38.2c8.5,63.6,0.8,126-22.7,185.8c-6.6,16.6-1.8,26.1,9.2,37.2
			c77.6,78.4,165.9,141.4,270.2,178.3c178.7,63.2,342.8,41,476.4-101.3c140.6-149.7,224.9-328.3,243.2-534.1
			c14.5-163.3,18.2-327.2,0.1-490.7c-15.6-141.8-44.6-280.9-86.9-417.3c-5-16-10.3-20.5-26.9-10.9c-58.6,33.8-122.2,55-188,69.7
			C2443.7,1392.4,2390.9,1396,2333.5,1401z M1987.7,1027.7c0,90.8,0.4,168.2-0.3,245.6c-0.2,17,4.7,25.3,21.7,30.3
			c151.8,44.2,305.5,60.7,461.6,29.8c143.2-28.3,268-89.4,352.9-214.5c51.7-76.2,74.7-162,80-252.9c9.6-161.3-3.3-319.8-71.1-468.9
			c-73-160.6-195.8-258.4-375.9-252.8c-250.1,7.8-437.8,128.3-563.1,345.4c-8.7,15.1-4.6,26,2.9,39.2c39.2,68.6,65.6,142,79.8,219.8
			C1994.1,845.5,1985.4,943.5,1987.7,1027.7z M175.6,1106.4c123.5-51.5,243-94.1,366.3-125.3c19.4-4.9,14.2-16.6,11.7-27.8
			c-11.5-51.1-12.9-103-10.4-154.9c9.5-197.9,131-355.6,321-411.7c129.6-38.3,262.8-35.1,393.2-9.3
			c177.1,35.1,294.5,140.2,337.8,319.9c16.9,70.3,16.5,141.1,5.5,212.3c-1.6,10.3-10.3,23.8,11.2,27.4
			c103.4,17.2,205.1,41.7,305.3,72.6c14.7,4.5,19.6,1.2,19.3-14.7c-0.9-38.7-0.3-77.4-0.3-116.1c0-367-294.6-662.4-661.3-662.9
			c-146.6-0.2-293.2-0.2-439.9,0c-287,0.5-542.8,190.4-629.3,464.1C161.9,818.6,181.9,960.4,175.6,1106.4z M1035.2,2105.6
			c91.6,0,163.9-0.2,236.1,0.1c97.1,0.4,190.4-17.7,277.9-59.7c209-100.2,334.7-265.1,378.8-492.6c2.6-13.3,3.3-22.2-15.1-25.2
			c-80.7-13.2-161.4-21.8-242.9-9.8c-116.1,17.1-175.4,73.1-198.6,187.3c-2.2,10.9-4.1,22-5.9,33c-15.8,96.5-64.1,170.4-151.9,215.9
			c-46.5,24.1-96.5,37.7-148.7,42.4c-186.6,16.9-345.7-33.8-463.9-187.2c-45.5-59-73.1-126-94.7-196.5
			c-17.5-57.1-50.6-79.4-109.3-74.7c-94.5,7.5-186.9,25.7-276.6,57.3c-19.6,6.9-24.4,14.7-18.8,34.8
			c66.4,239.4,290.1,434.8,535.7,467.6C843,2112.3,948.9,2101.8,1035.2,2105.6z M1619,2069.1c86.6,87.4,151.1,183.6,183.7,299.1
			c5.3,18.9,17.4,12.9,28.5,10.1c216.9-54.4,372.5-180.4,452.8-392c71.3-187.7,61.9-376.4,2.4-565.2c-5.3-16.8-13.7-21.7-30.1-22.7
			c-70.2-4-139.5-14.3-207.7-31.9c-61-15.7-62.2-15.5-60.8,49c3.6,170.7-43.1,325.2-146.9,461.6
			C1781.2,1955.9,1707.2,2018.6,1619,2069.1z M1356.5,463.8c-8.6-4.1-13.1-6.5-17.7-8.5c-105-44.5-215.8-46.8-326.9-41.9
			c-96,4.2-187.9,26.3-264.8,87.7c-141.2,112.8-171,264-145.8,433.7c4,27,14.9,28.8,38.7,23.3c95.1-22.3,191.5-37.9,289-45.3
			c23.9-1.8,34.5-10,42.5-33c63.9-183.9,184.2-318.1,359.7-402.6C1338.5,473.5,1345.4,469.6,1356.5,463.8z M176.5,1342.5
			c569.2-418.3,1154.3-446.7,1759.6-84.1c0-57.7-0.9-114.7,0.5-171.6c0.4-18.4-9.9-21.8-23-25.8c-159.9-48.9-322.9-82.4-489.2-99.1
			c-234.4-23.4-467.5-13-699.1,30.1c-182.5,34-358.9,88.1-529.4,161.5c-9,3.9-19.6,5.8-19.5,19.8
			C176.8,1229.9,176.5,1286.4,176.5,1342.5z M1557.6,824.6c0.4-125.8-35.2-229.1-124.8-310.3c-10.9-9.9-20.9-17.3-37.6-10.4
			C1218,577.2,1092.6,701,1024.2,881.3c-6.5,17-5.9,23.2,15.2,22c161.7-8.6,323-4,483.4,20.2c19.6,3,25.6-5.3,27.7-21.5
			C1554.1,873.8,1559.3,845.8,1557.6,824.6z M964.7,1109.5c0-43-0.1-44-43.4-37.6c-39,5.8-77.8,13.2-116.4,21.7
			c-43.8,9.6-44.9,12.9-28.4,54c1.9,4.7,4,9.3,6.4,13.8c24.5,46.5,70.6,68.2,119.4,56.3c40.8-9.9,61.9-43.5,62.4-99
			C964.7,1115.6,964.7,1112.6,964.7,1109.5z M1153.3,1099.7c0.3-40.8,0.3-40.9-42-40.7c-24.3,0.1-48.7,1.1-73,1.3
			c-14.3,0.1-22.4,4.2-22.2,21c0.6,38.4,1.9,77.2-14.7,113.5c-2.9,6.4-0.4,11,3.4,16.5c23.1,32.6,64.5,37.7,96,12.5
			C1140.9,1191.7,1153,1148.3,1153.3,1099.7z M1227.5,1235.3c14.4-0.3,26.1-3.6,35.8-11.6c41.1-33.9,68.1-77,84.3-127.5
			c4.2-13.1-0.2-18.2-13.6-19.6c-36.3-3.6-72.5-7.8-108.6-12.7c-17.3-2.4-23.9,2.8-22.4,20.9c2.8,33.7-3.1,66.5-11.6,99.1
			c-2.9,11.1-22,22.7-0.9,35.8C1202.8,1227.2,1215.2,1233,1227.5,1235.3z"/>
		<path class="st0" d="M704.7,2287.2c249,7.9,497.4,24.6,740.5,85.1c24.5,6.1,48.5,14.7,72.1,23.8
			c97.3,37.7,132.4,103.1,110.9,205.1c-8,38.2-24.4,73.1-41,108c-8.2,17.2-16.8,19.7-32.4,9c-12.7-8.7-25.9-12-13.7-33.4
			c23.9-41.6,41.6-85.8,40.9-135.5c-0.5-42.5-16.3-73.8-55.9-93.3c-72.2-35.5-150.4-48.5-228-64.4c-12.3-2.5-16.8,2.3-15.6,14.4
			c4.1,42.4-4.4,80.9-45.7,100.9c-45.6,22.1-93.7,26.8-141.1,3.5c-11.6-5.7-20.3-7-33.5-2.3c-61.2,21.7-120.2,13.9-174.8-20.8
			c-10-6.3-15.9-10.4-29-5.9c-92.1,31.6-176.9-27-180.5-124.7c-0.6-17.6-5.8-21.4-22.7-21.4c-41.8,0.1-83.4,2.4-124.7,8.9
			c-103.5,16.4-171.8,82.4-228.7,163.7c-21.1,30.1-39.1,62.3-51,96.9c-9.2,26.9-23.3,11.7-37.6,8.7c-17.6-3.8-17.1-12.6-11.3-26.3
			c43-101.7,105.2-188.1,198.9-248.9c53.4-34.6,114.1-47.2,176.5-50.9C619.7,2285.2,662.2,2287.2,704.7,2287.2z M990.7,2468.7
			c23.6,1.1,38.5-1.5,52.6-7.7c26.9-11.7,37-39.9,33.7-77.4c-2.9-32.2-27.7-23.1-44.9-27.1c-14.6-3.4-30.7-0.9-45.2-4.6
			c-28.4-7.2-46.7-3.7-46.7,31.2c0,8.6-4.6,17.6-8.2,25.8c-18.2,41.2-15.6,46.2,30.8,55.3C974.6,2466.7,986.7,2468.1,990.7,2468.7z
			 M774.1,2335.9c-3.1,0-15.3,0.8-27.4-0.2c-15.2-1.2-18.9,5.6-18.8,19.6c0.3,45.4,33.7,81.6,78.9,84.3
			c41.5,2.5,79.9-31.6,85.5-74.6c2-15.2-1.1-22.6-18.1-23.1C843.8,2341.1,813.5,2338.4,774.1,2335.9z M1232.7,2416.4
			c-1.1-34.5-1.1-34.6-34.2-39.9c-10-1.6-20.5-1.5-30.1-4.4c-32.4-9.9-46.1-0.9-39.5,34.6c1.7,9.3-2.4,20-4.9,29.8
			c-7.8,30.7-4.3,36,28.2,36.5c13.1,0.2,26.5-1.1,39.3-3.7C1224.8,2462.6,1233.8,2450.4,1232.7,2416.4z"/>
		<path class="st0" d="M2555.6,1690.4c-57.4,0.5-105.9-46.9-105.9-103.4c0-56.1,49.3-104.9,105.6-104.5
			c56.5,0.4,102.2,45.9,102.9,102.5C2658.9,1644.1,2614.3,1689.9,2555.6,1690.4z M2553.9,1639.4c29.2,0.4,53-21.9,54-50.8
			c1-29.8-23.3-54.3-53.7-54.1c-29.6,0.2-52,22.7-52.1,52.3C2502,1615.9,2524.7,1639,2553.9,1639.4z"/>
		<path class="st0" d="M2682.9,1815.4c-0.3,57.8-47.8,104.7-104.9,103.6c-55.7-1-102.3-47.9-103-103.5
			c-0.6-57.6,45.8-103.6,104.4-103.3C2639.8,1712.5,2683.2,1755.8,2682.9,1815.4z M2578.9,1761.7c-28.8,0.4-51.8,23.9-51.9,52.8
			c0,30.9,23.7,53.6,54.8,52.5c28.9-1.1,51.6-25.2,50.7-54C2631.7,1784.3,2607.6,1761.2,2578.9,1761.7z"/>
		<path class="st0" d="M2632,2117c-49.3-0.5-89-40.8-88.4-89.8c0.5-49.3,40.4-88.6,89.9-88.6c48.7,0,90,40.4,90.6,88.5
			C2724.6,2076.6,2682.7,2117.5,2632,2117z M2634,2067.1c23.5-4,37.9-16.6,37.1-40.4c-0.8-23.8-15.9-37.8-39-37
			c-23,0.8-36.7,14.7-36.1,39.4C2596.7,2054.2,2612.2,2064,2634,2067.1z"/>
		<path class="st0" d="M2150,2677.8c0.1,48.9-40.5,89.7-89.3,89.8c-48.8,0.1-88.9-40.2-88.9-89.5c0-49.2,40-89.8,88.7-89.9
			C2109.1,2588.1,2149.9,2628.9,2150,2677.8z M2060,2715.7c21.2,0,39.2-17.6,39-38.1c-0.3-20.5-18.9-38.6-39.7-37.1
			c-22.1,1.6-35.4,14.1-37,36.5C2020.8,2698,2038.7,2715.7,2060,2715.7z"/>
		<path class="st0" d="M2634.1,2331.5c-49.6,0.4-89.3-38.3-90-87.6c-0.6-48.9,38.5-89.8,87.2-91.1c48.4-1.3,91.8,41.1,91.9,89.9
			C2723.2,2291.6,2683.6,2331.1,2634.1,2331.5z M2671.1,2244c0.6-21.5-16.1-40.2-37.3-39.3c-21.7,0.9-36.4,11.8-37.6,35.2
			c-1.2,24.3,11.5,38.2,35.1,40.7C2652.5,2282.8,2670.5,2265.4,2671.1,2244z"/>
		<path class="st0" d="M2361.5,2739.4c-51.2,0.3-89.5-37-89.8-87.4c-0.3-50,38.5-89.6,88.2-90c49.8-0.3,89.4,38.6,89.8,88.3
			C2450.2,2700.9,2412.3,2739.1,2361.5,2739.4z M2399.4,2652.4c0.8-20.9-16.7-38.7-38.2-38.7c-23.3-0.1-35.6,13.4-38.7,34.9
			c-2.9,20,15.7,39.8,36.3,41C2379.3,2690.7,2398.6,2673,2399.4,2652.4z"/>
		<path class="st0" d="M2566,2544.7c-50-0.7-87.3-39.6-86.1-90c1.1-48.2,43.5-89,90.9-87.7c48.8,1.4,87.4,41.6,87.1,90.9
			C2657.6,2509.3,2619.4,2545.4,2566,2544.7z M2607.6,2454.1c-3.3-20-15-33.8-39.7-33.7c-23.8,0.1-34.9,14.6-37.1,35.8
			c-2.2,20.7,16.5,38.4,37.8,38.6C2590.1,2495,2607.8,2477.8,2607.6,2454.1z"/>
		<path class="st0" d="M2683,867.9c-1.1,78.9-33.4,165.4-104.9,235.1c-115.2,112.1-285.2,111.1-400-1.6
			c-136.5-133.9-137.8-371.7-2.8-507.1c123.6-124,317.2-114,427.4,22.2C2657.4,683.9,2683.3,761.4,2683,867.9z M2508.1,911.7
			c0,1.1,0,2.1,0,3.2c16.3,0.8,32.5,1.8,48.8,2.4c77.8,2.8,79.6,0.4,76.1-79.8c-0.7-16.2-4.7-22.7-22.4-23.7
			c-51.7-3-103.3-8.7-154.9-12.6c-18.3-1.4-26.1-5-21.9-27.5c10.9-58.8,17.4-118.4,26.9-177.5c3-18.3-3.7-25.4-20.3-29.8
			c-44.5-11.7-88.3-10.8-132.2,3.1c-15.2,4.8-20.9,11.3-18.2,28.4c8.7,56.1,15.1,112.6,23.4,168.9c5.7,38.4,3.8,40.5-33.1,33.4
			c-42.8-8.2-86-14.5-128.7-23.5c-15.8-3.4-19,1.9-21.3,15.5c-5.8,34.5-5,68.6-1.3,103.2c2.5,23.9,11.1,32.8,36,31.8
			c49.8-2,99.7,0.4,149.5-1c21.8-0.6,27.8,7.3,27.4,28.1c-1.2,50.8,1.2,101.7-0.9,152.5c-1.5,38.2,25.4,24.8,43.6,27.4
			c23.9,3.4,22.7-12.3,21.5-28.6c-4.3-57.8-7.7-115.6-12.3-173.3c-1.2-15.8,3.3-21.6,19.9-20.9
			C2445.1,912.6,2476.6,911.7,2508.1,911.7z M2525.9,968.6c0-0.3,0-0.6,0-0.9c-18.2-1-36.5-1.3-54.6-3.2c-16-1.7-24.4,0.5-22.5,20.3
			c3.7,39.3,5.4,78.8,6.9,118.2c0.6,15.1,5.9,17,18.5,11c57-27.4,97.8-70.8,126.2-126.7c5.9-11.6,5.1-19.1-10.7-18.8
			C2568.5,968.9,2547.2,968.6,2525.9,968.6z M2510.8,600.9c-6.7,47.8-12.7,90.8-18.7,133.9c-1.3,9.7-1.7,17.8,12.3,18.7
			c34.4,2.1,68.8,5.3,103.2,8.2c9.3,0.8,13.7-2.1,10.4-12.1C2598.3,690.4,2566.1,640.6,2510.8,600.9z M2154.6,979.5
			c30.2,63.8,72.6,107.7,135.9,137.5c0-43.1-0.8-80.6,0.4-118c0.5-17.1-6.8-20-21.6-19.7C2232.9,980,2196.4,979.5,2154.6,979.5z
			 M2239.3,607.9c-34.1,23.7-55.3,51.7-73.1,82.3c-18.9,32.4-18.6,32.3,17.6,39.1c17.9,3.3,35.6,7.4,53.4,11
			c14,2.9,20.4-0.4,17.7-17C2248.9,686.6,2244.8,649.6,2239.3,607.9z"/>
		<path class="st0" d="M2115.2,2061.9c0.4,49.6-38.3,89.8-87.3,90.6c-48.7,0.8-91.8-41.6-91.5-90c0.3-49.1,39.9-88.2,89.5-88.5
			C2076.1,1973.8,2114.8,2012,2115.2,2061.9z M2064.4,2063.8c0.4-21.3-16.7-39.2-37.7-39.3c-21.3-0.1-39.8,17.7-38.2,38.7
			c1.7,21.8,14.1,35.7,36.4,37.8C2045.8,2103,2064,2085.1,2064.4,2063.8z"/>
		<path class="st0" d="M2100.4,1678.9c49.2,0.2,88.7,40.5,88.5,90c-0.3,51.2-39.1,87.1-89.4,88.7c-48.6,1.6-89.5-41.2-89.3-89.8
			C2010.5,1719,2051.4,1678.7,2100.4,1678.9z M2100.2,1730.7c-25.2,1.4-38.1,15.1-37.7,38.7c0.4,22.3,13.7,36,36.4,36.3
			c23.8,0.3,38.3-12.9,38.5-37.1C2137.6,1744.4,2123.5,1732.2,2100.2,1730.7z"/>
		<path class="st0" d="M1856.9,2105.9c49.3,0.9,88.1,41.5,87.3,91.1c-0.8,49.3-41.8,89.3-90.4,88.1c-49-1.2-89-42.6-88.1-91.2
			C1766.7,2145,1808.2,2105,1856.9,2105.9z M1859.3,2157.8c-25.6,0-42.9,16.9-41.6,38.5c1.4,22.2,13.5,36.3,36.3,36.7
			c23.8,0.4,38.4-12.6,39-36.7C1893.5,2171.9,1878.9,2160,1859.3,2157.8z"/>
		<path class="st0" d="M2075.2,1587.9c-0.5-50.8,37.4-89.3,87.9-89.4c50.8-0.1,90.1,37.8,90.6,87.4c0.6,48.8-39.7,89.6-88.7,90.1
			C2115,1676.5,2075.7,1637.9,2075.2,1587.9z M2202.3,1585.7c-0.6-21.1-19.2-38.3-40.2-37.3c-20.9,1-38.3,20-36.2,40.9
			c2.3,22.4,15.7,34.7,38.1,35.2C2185.4,1625.1,2202.9,1606.6,2202.3,1585.7z"/>
	</g>
</g>
</svg>
