<?xml version="1.0" encoding="utf-8"?>
<!-- Generator: Adobe Illustrator 23.0.0, SVG Export Plug-In . SVG Version: 6.00 Build 0)  -->
<svg version="1.0" xmlns="http://www.w3.org/2000/svg" xmlns:xlink="http://www.w3.org/1999/xlink" x="0px" y="0px"
	 viewBox="0 0 3000 3000" style="enable-background:new 0 0 3000 3000;" xml:space="preserve">
<style type="text/css">
	.st0{stroke:#000000;stroke-width:10;stroke-miterlimit:10;}
</style>
<g id="Layer_1">
</g>
<g id="Layer_2">
	<g>
		<path class="st0" d="M794.3,1194.1c23.2-34.4,48.1-64.5,78.6-89.8c12-10,17.9-8.6,26.9,3.7c25.6,34.9,26,34.3-4.9,65.4
			c-9.4,9.5-18.3,19.6-26.6,30.1c-26.9,34.4-38.8,66.6-20.1,114.2c42.1,106.9,44.1,218.2,5.7,328c-5.6,16,0.2,25.7,8.8,36
			c96.8,115.7,220.7,165.2,367.7,131.4c142.9-32.9,227.5-132.3,263-272.2c21.5-84.7,3.8-166.8-30.5-245.6
			c-25-57.5-55.3-112.2-91.1-163.6c-10.1-14.5-8.4-21.1,5.7-30.4c37.8-24.9,37.9-25.8,61.8,12.8c53.3,86.1,102.3,173.8,120.8,275.5
			c17.3,95.3,4.1,185.2-41.1,270c-10.3,19.3-7,29.5,7.7,42.7c35.5,31.9,76.9,51.6,122.5,63.3c92.4,23.6,186,25.9,279.3,8.7
			c140.4-25.9,228.5-121.7,252.2-269.8c13.6-85.1,6.2-169.3-13.8-252.6c-11-46-22.8-91.9-36-137.3c-4.8-16.6-2.9-25.2,15-28.1
			c7-1.1,13.7-3.9,20.4-6.3c16.1-5.8,24.3-2.6,28.8,16.3c22.5,94.5,52.8,187.2,57.2,285.6c3.4,74.2-3.2,146.4-29.2,216.2
			c-4.7,12.7-4.9,20.5,7.7,28.9c86.7,58.1,176.4,110.2,281.6,125.4c124.5,17.9,237.5-4.8,322-107.4c42.7-51.9,58.5-114.9,58.2-180.4
			c-0.6-115.1-34.4-221.6-94.8-319.4c-16.2-26.2-37.5-48.3-66.1-61.1c-14.6-6.5-13.9-14.3-9.4-27c16.3-46.1,18.2-46.9,59.8-19.9
			c22,14.3,42.5,30.8,56.9,52.5c85,128,132.6,267.5,115,422.6c-19.4,170.8-144.7,288.7-317.2,308.3
			c-111.7,12.7-214.6-13.8-313.4-62.4c-42.5-20.9-83.3-45.1-122.1-72.4c-9.4-6.6-15.3-8.9-23.3,3
			c-63.9,94.5-155.4,141.6-266.8,154.9c-104.1,12.4-207,9.9-307.5-23.2c-44.6-14.7-86.2-35.8-119.5-69.4
			c-13.7-13.9-20.1-9.2-30.8,2.5c-67.7,73.6-150,121-250.5,131.8c-144.6,15.4-267.2-31.3-368.4-135.2c-5.6-5.7-11-11.7-16.5-17.5
			c-0.6-0.6-1.6-0.7-3.8-1.6c-53.1,82.7-127,138.5-222.8,163.6c-191.2,50.1-384.7-34.4-483.8-214.7c-96.6-175.8-82-351.8,8.1-525.5
			c17.7-34.2,40.3-65.3,63.8-95.9c9.3-12,15.5-15.7,29.1-3.7c33.2,29.5,33.3,28.1,7.9,63.9c-100.8,142.4-142,296.9-80.4,465.7
			c49.1,134.4,141.7,226.2,287.5,252.9c186,34.1,350-81.1,383-268.3c26.3-148.9-23.1-278-106.2-398.1c-4.8-6.9-18.8-14.2-8.2-23.9
			c13.5-12.5,27.1-26.3,45.4-31.6c2.7-0.8,8.8,7.7,12.3,12.5c7.9,10.8,15.4,21.9,22.9,33.1C779.9,1171.5,786.4,1181.9,794.3,1194.1z
			"/>
		<path class="st0" d="M1052.1,1260.6c-0.8-47.8,6.7-89.7,19-131c4.6-15.6,11.1-18.8,26.5-13c40.5,15.2,39.8,14.2,30.6,54.9
			c-29.1,127.6,2.3,238.1,94.8,331.1c6.1,6.1,21.2,10.6,14.1,21.9c-9.8,15.6-22.6,29.9-36.6,41.9c-4.3,3.7-13-7.3-18.7-12.7
			C1096.7,1472.8,1053.1,1373.7,1052.1,1260.6z"/>
		<path class="st0" d="M410,1306.9c2-66,10.8-125,26.8-183.1c4.7-17.1,10.1-23.1,28.7-16.5c39.9,14.3,40.6,13.4,29.5,54.9
			c-24.8,93.6-22.9,187.5-2.8,281.4c3.1,14.5,9.2,27.7,19,40.5c13.8,17.9,5.8,41.2,4.7,62c-0.5,8.4-10.2,3.8-15.7,2.5
			c-32.8-7.5-51.8-30.1-63.3-60c-11-28.5-16.3-58.6-19.9-88.6C413.1,1367.2,412,1334.1,410,1306.9z"/>
		<path class="st0" d="M2417,1185.7c0-7.9,0-10.6,0-13.3c0-47.4,8.5-53.1,55.4-40.6c15.4,4.1,10.2,14.7,10,23.2
			c-1.3,59.3,3.3,117.8,25.5,173.6c21.6,54.1,55.2,98.2,109.3,122.8c16.9,7.7,10.7,16.8,7.1,27.3c-15.5,45.8-15.9,46.6-57.2,20.9
			c-89.4-55.7-130.5-141-144.6-241.8C2419,1232.2,2415.6,1206.5,2417,1185.7z"/>
		<path class="st0" d="M1739.4,1221.9c0.8-24.2,2.4-48.2,4.8-72.2c1.4-13.9,6.1-19.1,19.8-16.7c6.1,1.1,12.4,0.9,18.7,0.8
			c22-0.1,30.5,8,27.2,32.3c-7.7,57.9-4.7,115.8,12,172.2c14.6,49.2,40.7,91.5,85.1,119.2c14.9,9.3,13.2,16.3,6.8,29.4
			c-21.3,43.3-21.2,44.1-59.3,14.4c-64.1-50-95.3-118.7-107.8-196.8C1742.4,1277.2,1741.8,1249.4,1739.4,1221.9z"/>
	</g>
</g>
</svg>
