<?xml version="1.0" encoding="utf-8"?>
<!-- Generator: Adobe Illustrator 23.0.0, SVG Export Plug-In . SVG Version: 6.00 Build 0)  -->
<svg version="1.0" xmlns="http://www.w3.org/2000/svg" xmlns:xlink="http://www.w3.org/1999/xlink" x="0px" y="0px"
	 viewBox="0 0 3000 3000" style="enable-background:new 0 0 3000 3000;" xml:space="preserve">
<style type="text/css">
	.st0{stroke:#000000;stroke-width:10;stroke-miterlimit:10;}
</style>
<g id="Layer_1">
</g>
<g id="Layer_2">
	<g>
		<path class="st0" d="M2374.9,1511.3c0,223.6,3.2,447.3-0.7,670.9c-6.8,393.1-293,722.1-682.1,776.6
			c-179.2,25.1-360.6,25.2-534.7-41.5c-316.5-121.3-517.3-416.3-517.9-763.3c-0.8-429.3-0.7-858.6,0-1287.9
			c0.6-374.9,235.4-688.5,588.1-787.4c60.5-17,122.2-26.6,184.9-28.1c133.7-3,267.1-6,397.5,34.3
			c311.3,96.2,536.8,377.2,561.7,701.6c5.7,74.2,3.3,148.5,3.5,222.7c0.5,167.3,0.2,334.7,0.2,502
			C2375.3,1511.3,2375.1,1511.3,2374.9,1511.3z M2293.7,677.7c1-2.2,1.6-2.9,1.5-3.6c-0.2-2.3-0.3-4.7-0.9-6.9
			C2208.4,376,2018.9,192.9,1722.6,123c-100.8-23.8-204-18.3-306.1-14.1c-250.2,10.4-447.4,121.4-590.4,326.1
			c-89.5,128.1-129,272.7-128.9,428.6c0.1,421.5,0,842.9,0.1,1264.4c0,28.9-0.1,58,2.6,86.7c28.3,305.5,184.1,520.3,464.4,642.5
			c166.4,72.5,343.9,69.2,517.2,44.3c272.7-39.1,464.6-194.8,577.3-446.4c30.3-67.6,47.4-138.9,54.4-216.5
			c-25.9,21.4-48.3,40.8-71.5,59.1c-148.2,117.1-308.6,210.3-496.1,248.4c-155,31.5-303.4,17.6-438.5-73
			c-103.2-69.1-169.3-167.6-216.8-279.4c-52.8-124-78.7-254.8-92-388.3c-15.8-157.6-16.1-315.3-4.5-473.1
			c7.6-102.8,21.5-204.9,35-307.1c15.3-115.8,39.3-229.5,84.5-337.6c62.2-148.7,159.8-264.3,314.1-323.5
			c106.1-40.7,216.1-47.9,327.7-29.9c195.9,31.5,360,120,486.6,274.5C2259.8,630.8,2276.1,654.3,2293.7,677.7z M1050.9,1368.3
			c-1.4,4.3-2.6,6.3-2.7,8.3c-10.6,189.4-7.9,378.3,28,565.3c24.3,126.5,62.5,248.1,136.1,356.3c73.2,107.6,172.9,174.8,301,197.5
			c105.5,18.7,208.7,4.4,309.6-28.8c186.3-61.4,343.3-170.1,485.3-302.7c7.6-7.1,9.6-15.1,9.6-25c-0.2-125.9-0.4-251.8,0.2-377.7
			c0.1-16.4-4.8-18.8-20.4-16.8c-154.6,19.6-309.1,16.1-462.6-9c-258.4-42.3-492.2-143.4-701.1-301.6
			C1106.2,1413.1,1079.4,1390.9,1050.9,1368.3z M2317.7,1047.1c0-55.5-0.3-111,0.2-166.5c0.1-16.8-3.2-32.4-9.5-47.8
			c-121.8-294.4-401.9-470.5-719-446.3c-151.1,11.5-274.7,78.2-360.6,207.1c-42,63-71.1,131.5-93.6,203.5c-5.9,18.9-3.1,31.7,9,46.4
			c46.2,56.3,94.9,110,150.7,157.1c294.4,248.4,630.3,325.8,1004.9,243.7c14-3.1,18.6-9.4,18.4-23.8
			C2317.3,1162.7,2317.7,1104.9,2317.7,1047.1z M1110.6,893.4c-14,56.2-19.5,109-27.5,161.5c-2.3,15.1,0.6,24,12.4,33.9
			c98.7,82.4,203.8,155.2,317.2,216c276.2,148.1,571.1,220.1,884.4,217.9c16.5-0.1,21.2-5.3,20.9-21.5
			c-0.8-60.2-0.7-120.4-0.1-180.6c0.2-16.3-2.5-21.7-21-17.4c-118.8,27.4-239.1,36.6-360.9,26.6
			c-265.5-21.8-496.6-122.7-695.2-299.7C1194.8,989,1152.6,944.3,1110.6,893.4z M1070.6,1143.2c-4.9,47.5-8.8,90.2-13.9,132.9
			c-1.7,14.2,3,23.4,13.8,32c35.4,28.2,69.2,58.7,105.6,85.6c329.4,243.2,698.8,338.1,1104.5,295.1c43.6-4.6,36.2,4.4,37.1-40.5
			c0.3-14.8-1-29.8,0.3-44.5c1.6-18.1-4.2-24.1-23.4-23.8c-94,1.9-187.6-5-280.5-18.2c-265.1-37.5-511.1-127.9-738.1-270.1
			C1205.8,1247.8,1139.7,1198.2,1070.6,1143.2z"/>
	</g>
</g>
</svg>
