<?xml version="1.0" encoding="utf-8"?>
<!-- Generator: Adobe Illustrator 23.0.0, SVG Export Plug-In . SVG Version: 6.00 Build 0)  -->
<svg version="1.0" xmlns="http://www.w3.org/2000/svg" xmlns:xlink="http://www.w3.org/1999/xlink" x="0px" y="0px"
	 viewBox="0 0 3000 3000" style="enable-background:new 0 0 3000 3000;" xml:space="preserve">
<style type="text/css">
	.st0{stroke:#000000;stroke-width:10;stroke-miterlimit:10;}
</style>
<g id="Layer_1">
</g>
<g id="Layer_2">
	<g>
		<path class="st0" d="M2433.8,1627.7c40.8,34.8,72.1,73.1,97,116.9c31.5,55.3,45.6,115.3,48.4,177.9
			c6.4,139.6,7.2,279.5-25.9,416.3c-31.6,130.5-80,254.9-165.5,360.5c-69.1,85.4-152.8,153.8-263.2,179
			c-99.9,22.8-196.9,57.1-299.1,70.6c-140.4,18.6-281,23.3-422.2,13.7c-102.1-6.9-202.1-24.1-299.6-55.9
			c-99.3-32.4-187.8-82.9-262.3-156.1c-63.7-62.5-137-89.3-226.1-72.7c-26.8,5-54.5,6.3-82.4,3.2c-100.1-11-139-90.8-134.8-166.9
			c6.2-111,74.8-187.7,192.6-216.5c56.2-13.7,113.7-17,171.2-15.8c17.4,0.4,22.8-6.3,24.6-21.5c5.6-48-5.2-62.5-52.7-69.5
			c-57.8-8.5-116.1-12.5-174.2-6.1c-67.6,7.4-119.4-14.9-151.8-75.2c-34.4-63.9-30.7-126.8,12.1-186c25.4-35,61.2-57.4,98.5-77.6
			c25.2-13.6,47.9-30.2,66.9-51.8c7-8.1,12-13.2-4.6-17.5c-89-23-136.8-85.6-152.1-171.9c-27.3-154.5,16-294.1,98.9-423.7
			c9.1-14.2,18.6-28.4,29.9-40.7c13.3-14.5,8.5-19.4-7.4-26.3c-70.6-31-132.3-74.3-178.8-136.7c-84.1-112.8-95.8-239.2-51.8-367.3
			c92.4-269,267.8-454.2,555-514.2c146.9-30.7,293.9-22.2,439.6,12.2c7.7,1.8,14.2,3.9,21.8-0.3c79-43.4,165.9-53.9,253.6-55
			c212.4-2.7,424.9-3.4,637,8.6c100.7,5.7,194.2,36.4,270.4,106.8c56.9,52.5,85.5,117.9,89.4,195.2c7,138.7,6.8,277.5,7.9,416.2
			c1.3,160.9-3.7,322-9.4,482.9c-2.7,75.8-14.2,151-43.4,222.3C2518.4,1541.3,2486.7,1591,2433.8,1627.7z M2185.3,1633.7
			c40.9-4.9,76.7-8.4,112.3-13.6c82.3-12,143.8-52.9,179.7-129.9c19.3-41.3,31.5-84.5,39.9-129.1c16.4-87.3,13.5-175.6,15.9-263.6
			c6.7-240,4.1-480-1.9-720c-2.2-86.5-40-152.4-112.6-199.1c-63.1-40.6-133.5-55.8-206.8-62.3c-79.6-7.1-159.4-4.7-239.1-4.8
			c-157.8-0.2-315.9-12.8-473.5,5.1c-100.4,11.4-184.6,53.4-246.5,135.5c-39.1,52-66.4,110.2-87.5,171.2
			c-33,95.4-62.9,192-97.3,286.9c-48.3,133.3-130.7,238.4-261.7,300.5c-18.6,8.8-36.6,19.4-53.9,30.6
			c-178,115.3-270.6,279-275.2,491.1c-1.1,49.7,9.1,97.6,39.4,139.1c36.4,49.8,99.9,67.1,148,40.2c46.7-26.1,75-21.7,107.5,21.5
			c22.8,30.3,51.3,41,86.4,33.4c36.6-7.8,64.1-28.3,75.7-66.1c16.5-53.6-7.4-121.6-56.9-162.2c-44.8-36.7-97.6-54.2-153.8-61.2
			c-21.8-2.7-29.2-10.8-24-31.4c0.7-2.9,0.6-6.1,0.7-9.2c0.4-14,5.9-20.3,21.4-17.8c59.5,9.6,117.2,23.9,167.8,58.6
			c69.2,47.5,107.8,111.5,105.9,197.3c-1.4,64.7-41,118.8-103.2,141c-48,17.1-117,15.7-161.1-43.7c-5.9-8-12.5-22.7-24.1-17.3
			c-18,8.4-42.3,10.5-51.2,30.5c-10.9,24.4-24.7,45.9-44.1,63.6c-10.4,9.5-11.3,13.8,2.8,19.7c35,14.7,66,35.8,93.5,61.9
			c42.2,40.2,87.2,79.5,110.5,133.9c36.1,84.5,39,172.1,10.9,260.4c-3.8,12-10.4,14.6-21.8,14.4c-34.9-0.5-69.9-1.7-104.7,0.3
			c-59.9,3.4-119.1,11-171.5,44.5c-59.5,37.9-81.7,93.4-74.7,161.4c4.7,46,35.7,74.8,81.5,79.5c25.3,2.6,50.6,0.9,75.6-3.3
			c93.7-15.8,176.1,7.3,247.2,70.5c26.4,23.4,52,47.8,80,69.1c98.4,75,213.4,109.3,332.9,129.6c165,28.1,331,25.6,497,8.6
			c46.3-4.7,92.4-12.1,141.8-24.4c-23.6-9.1-43.1-15.9-62-24.1c-152.8-66.5-241-186.9-282.7-344.1
			c-60.8-228.8-10.9-429.2,159.6-596.3c60.8-59.6,123.8-116.9,194.4-165.1c2.8-1.9,7.1-3.3,4.9-8.7c-54.2,3.7-108.4,7.6-162.7,11
			c-34.4,2.1-68.9,5.9-103.1-2c-27.4-6.4-48.1-21.9-54.4-49.9c-3.5-15.6-9.7-23.8-25.5-26.7c-10.3-1.9-20.3-6.9-29.8-11.7
			c-50.6-25.6-68.8-72.6-47.9-125.4c16.3-41.1,46.2-70.4,85.4-89.3c38.6-18.5,78.2-35.3,117.9-51.5c39.8-16.2,79.2-32.9,115.1-56.9
			c102.7-68.4,154.6-193.7,123.5-310.5c-31.2-117.1-109.8-188.8-227.1-216.6c-85.4-20.3-170.5-16.3-253.5,13.3
			c-14.3,5.1-20.9,3.2-24.3-11.3c-1.2-5.1-3.1-10.3-5.7-14.9c-9.2-16-4.2-23.1,13.1-28.7c92.6-30.1,186.2-35.9,281.1-13.9
			c266.7,61.6,370.1,363.4,194.9,568.2c-42.9,50.2-98.8,81.6-158.2,107.9c-50.4,22.3-102.8,39.8-152.1,64.9
			c-26.4,13.4-45.6,33.6-58,60c-10.3,21.9-5.9,36,13.9,49.4c10.2,6.9,21.7,11.1,33.3,15.2c12.9,4.5,22.7,3.8,32.9-6.8
			c14.5-15.2,34.1-23.1,53.4-30.7c73.6-29,142.5-67.2,211.1-106.3c121.6-69.2,184.2-178.2,196.8-311.9
			c18.2-192.5-48.9-354-203.3-474.9c-80.8-63.2-171.1-97.8-276-82.7c-72.9,10.5-134.7,43.9-190.9,89.7
			c-31.4,25.6-31.1,25.3-58.3-4.2c-7.3-7.9-8.2-12.3,0.1-20c132.4-121.7,297.3-166,464.1-85.5c226.8,109.5,357.8,349,315.2,615.8
			c-22.3,139.7-93.4,249.2-218.2,321.5c-71,41.2-142.7,80.5-219.4,110.3c-15,5.8-29.8,12.4-40.9,24.8
			c-15.9,17.5-12.1,30.7,10.5,35.4c8.2,1.7,16.8,2.3,25.1,1.9c118.7-5,237.1-14.2,355.3-27c20.1-2.2,36.9-11,50.3-28.2
			c39.2-50.2,75.7-102.2,108.5-156.8c111.7-186.2,162.1-389.6,163.4-605.1c1-164.2-64.9-298.5-195-400.2
			c-58-45.3-122.8-77.8-192.5-100.5c-14.6-4.8-19.2-10-12.1-24c2.4-4.7,4-10.1,4.5-15.4c1.9-19,11.3-19,26.9-13.9
			c53.2,17.7,104,40.4,151.4,70.2c134.7,84.3,225.5,200.7,260.2,357.8c23.3,105.4,12,210.8-2,315.6
			c-26.6,199.3-103.5,378.7-220,541.7C2198.2,1615.3,2193,1622.7,2185.3,1633.7z M2525.2,2042.7c0-28.6,0.1-56.2,0-83.8
			c-0.5-115.6-38.6-214.3-129.3-289.9c-10.4-8.7-18.9-12.5-32.7-7.2c-22.1,8.5-45.6,12.6-69.3,15.6c-58.4,7.2-117.6,10.3-173.8,29.8
			c-167.3,57.9-295.3,171.5-406.1,302.5c-120.2,142.2-139.9,310.1-90.8,487.3c37.5,135.3,112.4,241,243.8,299.1
			c125.7,55.6,248.6,53.2,364.2-27.4c68.1-47.4,123.5-106.9,164.5-179.9C2491.3,2418.8,2530.7,2235.5,2525.2,2042.7z M1261.4,154.4
			c-82.3-17.2-165.4-23.4-249-19.2c-117.8,5.9-230.8,31.7-332.9,93.2c-139.2,83.9-231.4,207.5-292.3,356
			c-30.8,75.2-44.5,153.5-27.4,233.9c28.5,134.5,122.6,208.6,242.8,257.4c15.1,6.1,19.3-8.9,27.9-14.9c9.5-6.7,2-13.8-1.8-19.8
			c-26-40.9-45.1-85.1-61.3-130.6c-81.9-230.3-14.8-461.3,178.2-604.8c129.6-96.4,276.8-134.5,437.2-121.5
			C1214.1,186.6,1244.3,192.6,1261.4,154.4z M1189.7,241.8c-5.8-0.9-9.3-1.7-12.9-1.9c-105.3-8.5-206.4,8-301.7,53.6
			c-269.6,129-372.9,414.6-202.3,713.8c5.8,10.1,10.3,12,20.9,4.6c19.4-13.5,39.8-25.9,60.8-36.7c16.8-8.6,20.8-15,9.9-33.8
			c-87.2-150.3-64.5-338.7,55.1-463.2c79.1-82.3,177.1-120.5,290.5-121.6c8.5-0.1,18.5,4.3,23.6-8
			C1148.7,311.9,1168.4,277.5,1189.7,241.8z M783.2,2144.1c-2-25.4-8-48.1-21.3-66.7c-44.7-62.8-94.9-120.4-165.8-155.3
			c-53.3-26.2-70.1-23.7-113.7,16.1c-39.3,35.8-51.2,85.6-31.5,131.4c21.2,49.1,45.5,61.2,108.5,58.5
			C633.7,2124.9,708,2124,783.2,2144.1z M768.4,737.4c-0.8,58.7,9.6,107.3,32.3,152.3c28,55.6,17.2,50,66.7,16.9
			c12.4-8.3,16.2-14.7,8.1-30.7c-79.7-157.1-13.2-336.4,149.1-405.4c19.8-8.4,40.1-15.1,61.2-19.3c16.8-3.4,18.9-19.4,18.6-30.6
			c-0.3-13.3-14.6-6.1-22.1-5.7C907.1,423.2,768.5,569.5,768.4,737.4z M1075,513.4c-144.4,41.3-224.1,201.5-148,334.9
			C1006.1,750.4,1035.2,631.6,1075,513.4z"/>
		<path class="st0" d="M1160.6,1455c-96.1,0-155.9-42.4-173.2-114.1c-15.5-63.8,16.6-108.4,81.9-112c82.5-4.6,165.6-3.1,246-26.7
			c30.8-9,61.3-19.1,92.2-27.6c23.9-6.6,49.4-13,68.4,9.6c19.4,23.1,12.3,49.2-2,70.8C1396.4,1371.9,1290.3,1443.4,1160.6,1455z
			 M1420.9,1231.3c-3.1,0.1-5.5-0.3-7.4,0.4c-109.8,40.8-224.2,52.3-340.2,53.5c-29,0.3-38.2,13.3-31.6,41.6
			c11.4,48.9,54,75.4,115.7,70.8c94.6-7.1,167.9-55.4,231.1-122.1C1400.8,1262.5,1414.3,1249.8,1420.9,1231.3z"/>
		<path class="st0" d="M2242.4,2225.2c-1.4,39.4-12.3,76.7-23.5,114.2c-15.1,50.3-49.1,86.3-88.5,116.6
			c-44.4,34.1-93.6,29.5-140.3,2.8c-48.2-27.5-71.1-71.1-60.9-125.5c13.6-72.2,39.4-140.2,95.5-191.8
			c41.8-38.4,90.3-54.4,146.1-35.9C2221.5,2122.4,2246.9,2166.2,2242.4,2225.2z M2185.6,2234.9c3.1-66.3-35.9-94.3-86.4-75.1
			c-12.3,4.7-22.9,12-32.9,20.4c-45.1,38.1-62.6,91.3-78.4,144.9c-11.9,40.4-1,66.8,30.1,84.8c35,20.3,64.6,15.4,95.9-12.4
			C2166.7,2350.5,2178.5,2287.3,2185.6,2234.9z"/>
	</g>
</g>
</svg>
