<?xml version="1.0" encoding="utf-8"?>
<!-- Generator: Adobe Illustrator 23.0.0, SVG Export Plug-In . SVG Version: 6.00 Build 0)  -->
<svg version="1.0" xmlns="http://www.w3.org/2000/svg" xmlns:xlink="http://www.w3.org/1999/xlink" x="0px" y="0px"
	 viewBox="0 0 3000 3000" style="enable-background:new 0 0 3000 3000;" xml:space="preserve">
<style type="text/css">
	.st0{stroke:#000000;stroke-width:10;stroke-miterlimit:10;}
</style>
<g id="Layer_1">
</g>
<g id="Layer_2">
	<g>
		<path class="st0" d="M2944.5,1538c0,153.3,0.9,306.7-0.4,460c-0.6,70.7-6,141.3-22.6,210.7c-47.8,199.4-168.9,332.8-358.6,408.1
			c-142,56.4-289.3,82.9-441.1,82.3c-161.5-0.6-322.3-13.9-480.3-50.2c-85.5-19.7-165.4-53-237-104.2c-11.5-8.2-16.8-7.8-25,3.8
			c-64.9,92-155.9,133.8-266.8,135.7c-155.1,2.7-310.2,9.1-465.1-4.1c-64.4-5.5-127.8-17.3-188.6-40.3c-60.8-23-101.8-62-108.8-130
			c-3.1-30.4-22.5-51.4-46.8-65.6c-93.8-55.1-139.1-141.5-159.8-243.8c-17.7-87.4-8.6-173.1,22.2-256.3c6.2-16.6,6.4-28.7-5.3-43.7
			c-45.4-57.9-60.9-127-68.1-198.1c-19.3-190.6-10.4-381.6-7-572.5c2.2-124.6,4.1-249.2,12.2-373.6c2.9-44.8,8.8-89.2,17.2-133.2
			c19.2-100.4,82-166.9,168.4-214.2c91.7-50.1,191.9-68.3,294.6-74.5c235.2-14.4,464,26.9,690.8,83c43.4,10.7,86.4,23.1,129.2,36
			c12.2,3.7,21.3,3.3,32.4-3.7C1541,380,1662,348.2,1792.8,349.3c165,1.4,330,0,495,0.5c315.9,0.9,577.5,213.5,642.9,522.1
			c10.3,48.4,13.9,97.5,13.9,147C2944.5,1191.9,2944.5,1364.9,2944.5,1538z M1174.8,1744.5c-1.8,0.5-3.6,1.1-5.4,1.6
			c0,76.9-0.9,153.8,0.2,230.7c1.8,123.3,32.6,239.4,93.9,346.2c91.3,159.1,232,249.6,409.1,287.6c109.8,23.6,221.4,33.6,333.1,40.6
			c187.1,11.7,370.2-6.4,545.8-78c150.9-61.5,259-163,310.8-320.3c28.1-85.4,36.8-173.3,36.9-262.3c0.4-324.6,0.2-649.2,0.1-973.8
			c0-37.7-2.9-75.1-8.2-112.5c-37.3-261.8-270.1-484.5-533.8-505.4c-163.7-13-328-2.9-492-4.9c-51-0.6-102.1-1-153.2,3.8
			c-263.1,24.7-492.5,239.6-533.2,500.6c-6.4,40.8-9.7,81.8-9.6,123.2c0.2,212.5,0,425,0.3,637.5c0,10.6-5.7,23.9,9.2,30.7
			c25.2,11.5,38.9,33.9,51.5,56.7c18.1,32.8,45.8,51.7,81.2,61.1c40.1,10.7,81.2,14.5,122.4,15.1c47.7,0.7,79.7-21,95-60.9
			c15.5-40.3,4-71.1-33-93.1c-17.3-10.2-9.5-17.4,3.6-23.3c24.8-11.2,54.2,1.8,68.8,30.2c33.2,64.5-5.8,156.6-75.8,181.8
			c-42.3,15.2-84.7,9.5-127.4,5.4c-77.9-7.4-145.2-32.2-182.6-108C1180.7,1751.1,1177.4,1747.9,1174.8,1744.5z M1369.2,492.2
			c-77-24.6-151.9-42.4-227-58.5c-198.7-42.4-398.8-71.1-602.7-51c-92.6,9.1-182.2,30.1-261.6,81.6c-61.7,40-106.1,92.9-119.1,168.1
			c-8.8,51.3-15.3,102.7-18,154.7c-6.9,131.6-9.5,263.4-11.3,395.1c-2.3,167.6-8.7,335.1,5.3,502.7
			c10.2,122.5,61.5,219.1,161.8,289.6c41.2,28.9,85.2,52.9,132.3,70.9c169.7,64.9,346.7,78.2,526,72.7
			c55.3-1.7,110.7-4.4,165.8-11.4c15.2-2,16.8-8.4,14.1-21.2c-8.5-39.6-9.7-79.9-9.6-120.3c0.4-203.5,0.1-407.1,0.3-610.6
			c0-14.5-0.4-27.9-10.7-40.1c-22.6-26.6-43.5-54.7-66.3-81.2c-15.1-17.6-31.4-34-53.9-43.3c-103.1-42.7-185.2-8-252.5,81.9
			c-11.3,15.1-1.7,21.1,9.8,25.6c16.1,6.3,33.5,5,50.5,5.6c110.5,3.8,210.2,96.8,220.9,205.8c11.5,116.3-53.2,204.9-174.7,229.9
			c-109,22.4-215.6,7.4-317.2-38.5c-64-28.9-103.5-78.9-117.7-147.5c-16.2-78.2-28-157.2-24.8-237.3
			c4.2-108.1,84.7-186.6,190.4-184.8c21.9,0.4,33.3-7.8,46.2-22.9c119.5-140.2,339.3-178.4,485.9-16.9c3.2,3.5,5.2,10,15.8,6.9
			C1107.5,858.4,1178.4,653.1,1369.2,492.2z M207.8,1959.9c-17.6,46.7-28,92.4-27.5,139.1c1.3,123.4,30.6,234.1,144.8,305.2
			c39.2,24.4,67.3,59.3,71.7,108.2c3.5,39.4,27.6,62.5,61.5,78c51.1,23.4,105.4,35.1,160.7,41.1c174.4,18.8,349.3,13,524,5.2
			c86.1-3.9,152.5-47,202.3-116.7c6.9-9.6,7.7-16.1-1.8-25c-98.1-91.1-159.4-203.8-193.2-332.4c-3-11.2-7.4-16.4-20.3-14.5
			c-98.6,15.1-197.9,19.1-297.3,14.8C606.9,2153.3,387.7,2120.9,207.8,1959.9z M1120.9,1252.3c15.7-53.6-7.5-88.6-36-122.9
			c-125.3-150.1-320-115.3-424,5.9c-3.5,4.1-12.9,10.1-6.2,15.2c28.6,21.7,41.7,53.4,55.5,86.8c57.4-67.2,121-114.9,211.2-110.8
			C1010.1,1130.6,1072.8,1177.9,1120.9,1252.3z M904,1450.8c11.1-9,23.8-15.8,31.1-26.2c7.7-10.9-6.7-16.5-12.9-22.5
			c-9.5-9.4-20.7-17-31.6-24.9c-17.5-12.8-26,4.1-35.9,12.4c-14,11.7,2.8,16,7.7,22c8.4,10.4,18.6,19.3,28.3,28.6
			C894.4,1443.7,898.7,1446.6,904,1450.8z M664.8,1640c-3.9-4.7-6.5-8.3-9.6-11.4c-10.8-10.7-22.5-20.6-32.6-31.9
			c-9-10.1-14.7-6.4-24.3-0.2c-19.1,12.5-23.8,23.8-4.2,39.8c7.5,6.1,12.8,14.9,19.7,21.8c4.6,4.6,8.3,14.3,16.9,8.7
			C642.5,1659.2,653,1649.5,664.8,1640z M576.6,1427.7c-9.8-10.3-19.6-20.7-29.4-30.9c-16.4-17-33.6-17.1-50.2,3.4
			c-12.4,15.4,8.7,18.6,14.5,27.1c5.9,8.6,15.3,14.8,22.5,22.7c5.8,6.2,11.5,8.6,17.9,1.9C559.6,1443.7,571.7,1440.1,576.6,1427.7z
			 M835,1506c8.6-7.4,20.2-14,27-24c5.6-8.3-6.8-12.7-11.6-18.3c-7-8.1-16.2-14.5-22.5-23.1c-12.5-17-22.1-12.7-36.4-0.8
			c-18.6,15.3-0.4,20.7,5.3,28.8c7.2,10.2,16.1,19.1,24.5,28.4C824.7,1500.8,827,1506.4,835,1506z M744,1478
			c-9.1,11.6-31.7,18-26.5,27.7c10.5,19.7,29.9,34.7,46.1,51.1c1.2,1.2,6.4-0.7,9.3-2.1c21.7-10.5,23.1-18.2,6.5-37.4
			C768.4,1504.6,756.9,1492.3,744,1478z M648.9,1370.9c0.1-5.7-34.4-42.1-37.6-39.8c-12.5,8.8-30,11-37.2,26.7
			c-1.5,3.3,37.3,41.8,40.5,40.4C628.5,1392.1,639.5,1382.1,648.9,1370.9z M731.8,1581.4c-17.5-15-33.8-32.1-53.1-44.2
			c-9.1-5.7-17.1,9.4-25.1,15.6c-9.8,7.7,0.8,11.9,4.8,16.1c11.1,11.5,23.1,22.3,34.4,33.6c5.7,5.7,11.2,8.9,17.9,1.7
			C716,1598.6,724.7,1596.1,731.8,1581.4z M896.3,1514.9c-9.8,8.1-21.7,17.3-32.6,27.5c-2.5,2.3,30.9,40.3,34.5,38.4
			c14.2-7.4,27.9-15.9,38.2-28.5C938.5,1549.7,904.1,1515.4,896.3,1514.9z M580.5,1294.6c-35-47.4-23.8-46.9-76.7-10.3
			C538.2,1324.1,538.2,1324.1,580.5,1294.6z M432.2,1335.4c-0.1,19.2,9.5,35.2,24.3,33.7c13.3-1.3,37-11,35.8-25.4
			c-1.1-13-16.6-32.2-33.6-33.4C447.7,1309.5,430.3,1317.7,432.2,1335.4z M646.3,1435.5c19.2,3.9,16.5,50.3,52,23.1
			c19.4-14.9,9-22.5-0.6-35.2C671.6,1389.1,663.5,1428.5,646.3,1435.5z M445.3,1428.2c-10.4,33.8,10.6,48.7,25,67.3
			c10.2,13.2,16.4,9.8,27,1.1c13.1-10.6,4-15.9-3-22.5C479.1,1459.7,463.7,1445.4,445.3,1428.2z M610.2,1463.1
			c-10.9,10.5-30.2,15.8-29,27c1.6,14.8,17.7,28.6,32.1,32c11.6,2.7,30.2-13.7,27.8-22.4C637.4,1486.2,621.7,1475.9,610.2,1463.1z
			 M574.9,1556c0.1-4.3-30.2-35.6-33.2-34.5c-11.7,4.2-28.1,12.8-25.6,22.4c3.7,14.2,16.3,30.3,31.4,33.4
			C556.4,1579.1,568.3,1565.9,574.9,1556z M826,1572.2c-10.2,6.4-19.9,11.2-25.3,20.7c-2.2,4,26.2,35.3,31.3,33.9
			c10.3-2.8,24.9-9,23.1-18.3C852.2,1593.3,836.8,1583.8,826,1572.2z M774.4,1395.4c1.4-5.3-23.6-35.4-29.7-35.9
			c-11.9-1-24.3,9.4-24,15.8c0.7,16.3,15.6,28,28.1,35.5C758.1,1416.5,766.2,1400.5,774.4,1395.4z M760.2,1624.9
			c-8.7,3.5-17.3,8.3-21.4,17.8c-1.8,4.4,26.8,31.6,31.2,29.3c7.6-4,14.9-9.5,20.7-15.8C793.5,1653.2,766.6,1625.1,760.2,1624.9z
			 M517.4,1217.3c-6-5.7-11.8-15.8-17.4-15.6c-17.5,0.6-25.7,16.4-36,28.2c-3.7,4.2-5.8,9-0.4,13.8c0.7,0.6,1.2,1.4,1.9,1.8
			c9.3,5.3,14.7-3.1,21.1-6.7C497.2,1232.9,509.1,1228.9,517.4,1217.3z M980.2,1523c-3.1-14.6-4.8-27.5-8.8-39.7
			c-2.1-6.4-0.2-19.4-11.4-17.2c-7.7,1.5-15.8,9-20.3,16c-4.9,7.6,5.1,11.8,9.6,16.1C958.1,1506.5,964.6,1517.8,980.2,1523z
			 M676.4,1290.6c-8.3,6.8-22.3,8.6-18.8,16.1c6.1,13.3,15.5,27.2,29.9,32.7c5.1,2,18.6-8.7,15.9-14.2
			C697.1,1312.4,685.8,1302,676.4,1290.6z M643.2,1255.3c-10.8-10-20.6-19-30.4-28.2c-8.8-8.2-19.3-1.2-18.6,4.2
			c1.8,14.5,14.6,24.1,24.9,33.4C629,1273.6,634,1261.4,643.2,1255.3z M471.8,1566.9c-0.4,23.1,8.2,34.2,16.3,45.4
			c3.7,5.1,7.9,10,15.2,4.1c7-5.6,4.5-10.5-0.2-15.6C494.2,1591.2,485.4,1581.7,471.8,1566.9z M906.7,1665
			c-5.8-6.6-8.2-18-18.2-17.2c-9.3,0.7-19.7,6.6-20.8,16.6c-0.8,7.1,7,15,15.4,14.6C892.3,1678.4,901.1,1674,906.7,1665z
			 M674.6,1694.5c17,2,32.4,7.9,50.2,5.5C699.4,1667.5,699.4,1667.5,674.6,1694.5z M969.1,1588.1c-12.2,8.3-21.7,14.6-30.9,21.3
			c-3.7,2.7-10.7,4.7-7,11.4c2.4,4.5,5.9,9.1,10.1,11.6c6.6,4,9-3.2,11.5-7C959.3,1615.4,966.8,1605.5,969.1,1588.1z"/>
		<path class="st0" d="M1763.4,1691.5c0.8-60.8,28.3-112.6,98.8-145.2c53-24.5,96.5-26.4,141.3,10.1c23.1,18.8,49,13.4,74.5,7.7
			c36.7-8.2,72.6-8.5,107.8,7.1c51.8,22.9,78.2,71.2,65.7,126.6c-28.7,127.6-168.5,261.5-352.6,210
			C1835,1890,1760.5,1784.7,1763.4,1691.5z M1976.5,1873.3c99.6,0,189-64.2,224.8-161.5c22.9-62.1-8.9-108.1-75-108.2
			c-12.4,0-24.8,1.2-37.1,4.4c-41.5,10.8-81.9,10.3-117.1-18.3c-27.1-22-54.2-23.4-83.3-4.5c-6.7,4.3-14.3,7.3-21.9,10.2
			c-29.3,11.2-44.6,33.3-53.3,62.7C1788.4,1742.7,1852.2,1885.2,1976.5,1873.3z"/>
		<path class="st0" d="M1474.1,1076.3c-0.2-84.2,65.1-150,149-150.3c84.6-0.3,152.8,67.3,152,150.8
			c-0.7,82.3-69.2,150.5-151.2,150.5C1541.4,1227.3,1474.2,1159.6,1474.1,1076.3z M1624.3,1180.4c60,0.2,105.3-45.2,105-105.5
			c-0.2-57.4-46.8-104.4-104.2-104.9c-58.5-0.5-106.5,46.8-106.7,105.3C1518.2,1134.5,1564.3,1180.3,1624.3,1180.4z"/>
		<path class="st0" d="M1689.4,2104.3c83.4,0.8,148,67.4,147.1,151.8c-0.8,82.5-69.8,149.9-151.9,148.6
			c-82.7-1.4-150-70-149.2-152.1C1536.2,2168.2,1603.3,2103.5,1689.4,2104.3z M1686.2,2358.9c59.2,0.1,106.5-47.1,106.1-105.7
			c-0.4-58.1-49.1-105.9-107.2-105.2c-57.7,0.6-103.8,47-104.3,104.9C1580.3,2312.1,1626.8,2358.9,1686.2,2358.9z"/>
		<path class="st0" d="M2427.2,1115.5c-83.6-0.1-150.1-66.4-150.2-149.6c-0.2-84,68.8-152.7,151.9-151.5
			c82.5,1.2,149.9,69.6,149.5,151.8C2578,1049,2510.6,1115.6,2427.2,1115.5z M2427.4,860.2c-58.4,0-106.7,48.3-106.1,106
			c0.6,58.2,49.4,105.8,107.5,105c57.4-0.8,104-47.7,104.5-105.1C2533.8,907.9,2486.1,860.2,2427.4,860.2z"/>
		<path class="st0" d="M2410.3,2363.1c-84.1,0.3-150.6-65.6-151-149.5c-0.4-83.5,66.4-151.4,149.4-151.8
			c82.7-0.4,150.8,67.2,151.5,150.2C2560.9,2294.8,2493.4,2362.8,2410.3,2363.1z M2514,2213.3c0.1-61.1-44-105.2-104.8-104.9
			c-60.3,0.3-105.5,45.6-105.1,105.4c0.4,57.9,46.1,103.8,104.2,104.6C2467.5,2319.1,2513.9,2273,2514,2213.3z"/>
		<path class="st0" d="M1095.2,872.3c-32.1-39.4-64.2-77.9-95.1-117.3c-8.5-10.8-13.3-12.4-24.9-3.3c-54.2,42.6-54.5,42.2-13.3,97
			c16.7,22.2,32.5,45.1,50,66.6c12.4,15.1,0.3,19.8-8.7,26.8c-9.2,7-16.8,16.4-27.9,0.7c-24.8-35.1-51.4-68.9-76.4-103.9
			c-8.7-12.3-14.9-13.1-26.8-3.3c-29.8,24.6-30.4,23.9-8.9,55.8c8.5,12.6,15.9,26.2,25.8,37.5c15.8,17.9,9.8,27.4-8.5,38.2
			c-12.8,7.6-18.2,5.1-25.2-6.2c-11.8-19-25.6-36.7-37.1-55.8c-8.2-13.6-15.2-15.2-26-3.3c-5.3,5.9-12.3,10.4-18.9,15.1
			c-10,7.1-15,14.4-4.4,25.4c10.7,11.1,7.6,20-5.6,27.1c-11.2,6-21.9,19.3-31.6-1.7c-4.9-10.5-11.3-8.3-18.5-1.7
			c-7.2,6.6-16.4,11.5-22.6,18.9c-16.9,20.3-27.8,12.7-40.5-5.2c-7.4-10.5-7.2-14.2,2.4-22.9c14.7-13.4,42.4-20.7,41.4-41.2
			c-0.8-17-19.3-33.2-30.2-49.6c-20-30.2-20.8-31-49.3-7.2c-16,13.3-25.9,17-39.6-3.5c-9.1-13.5-6.4-18.5,4.4-27.3
			c38.5-31.2,38.2-31.5,10.9-72.4c-15.4-23.1-30-46.8-46.5-69.1c-11.3-15.3-0.3-20,9.5-26.3c9.6-6.2,18.2-15.4,28.5,0.7
			c5.1,8,8.7,25.5,20.3,20.3c14.8-6.6,26.8-20.3,38.7-32.2c3.7-3.7-2-9.8-4.9-14.2c-10.9-16.4-21.3-33.2-33.1-48.9
			c-10.4-13.9-15.1-23,4.2-35.7c18.2-11.9,24.4-4.4,32.7,9.2c8.9,14.5,18.5,28.6,28.4,42.5c5.5,7.8,9.5,21.5,23.3,7.7
			c9.9-9.9,28.3-14.4,11.7-34.6c-22.7-27.7-42.1-58.1-64.9-85.7c-12.7-15.3-6.2-21.2,6.2-30.9c13.4-10.6,20.7-11.2,31.1,4
			c19.6,28.9,42.5,55.5,62,84.4c9.5,14,15.7,11.9,26.9,3.1c42.6-33.3,42.8-33,9.3-74.6c-19.6-24.3-18.5-28.9,6.9-44.5
			c8.1-4.9,12.4-4.2,17.8,2.6c8.8,11.3,19.8,21.3,26.8,33.5c12,20.8,22.7,15.9,36.7,2.4c13.5-13,29.5-23.4,42.9-36.6
			c14.5-14.3,21.8-6.4,31.2,5.8c8.3,10.8,15.7,17.9-1,29c-18.6,12.3-34.1,29.1-52.1,42.3c-12,8.7-11,15-2.7,25.7
			c27.3,35.4,27,35.7,61.4,8.8c18.4-14.3,37.9-27.5,54.6-43.5c15.7-15.1,21.7-6.2,32.9,5.5c14.4,15,6.8,21.8-5.2,30.9
			c-25,18.9-49.1,39-74.3,57.7c-10.2,7.6-11.1,13.5-2.7,23c16,18.1,28.3,47.7,47.3,52.6c20.4,5.3,37.5-25,56.6-39
			c9.4-6.8,18.9-13.8,27-22.1c16.1-16.5,26.5-12.7,39.3,5.3c8.9,12.6,5.7,17.7-4.2,25.4c-24,18.7-46.8,39.1-71.4,57
			c-14.8,10.8-16.5,18.8-4.2,33c25.2,29.1,47.2,61.1,73.5,89.1c18,19.2,18.1,31.6-4.6,44.3C1102.6,865.8,1099.4,869,1095.2,872.3z
			 M901.6,635.3c-3.2,1.7-5.7,2.6-7.7,4.2c-17.4,13.9-41.4,24.8-49.8,42.9c-6.4,13.8,18.4,29.5,28,45.1c4.2,6.8,9.7,12.8,14.1,19.5
			c6,9,10.5,10.1,20.6,2.9c57.6-40.9,58-40.5,12.5-94.8C913.7,648.3,907.6,641.9,901.6,635.3z M724.9,772.7c-1.5,0.9-3,2.1-4.6,2.8
			c-35.7,15-41.1,32.7-19.8,64.5c8.5,12.6,16.8,25.3,25.5,37.7c2.8,4,5.7,12.6,10.8,9.2c14.6-10,28.4-21.5,41.2-33.8
			C782.3,849.1,731.2,772.9,724.9,772.7z M820.9,819.8c10.2-8.4,23-16.9,33.1-27.9c8.6-9.3-3.1-15.9-7.7-22.6
			c-9-13.3-18.4-26.5-28.8-38.7c-5.2-6.1-7.7-20.6-18.1-15.7c-12.5,5.9-23.1,16.6-33.2,26.6C762.3,745.5,812.4,819.3,820.9,819.8z
			 M811.5,646c13.5-10.4,23.3-19.9,34.8-26.5c24-13.9,25-26.6,6.5-48.3c-15.5-18.3-25.5-20-41-3c-6.6,7.2-15.2,12.6-22.2,19.4
			c-5,4.8-16.2,7.6-8,18.5C791.5,619.1,801.3,632.3,811.5,646z M698.9,731c0.5-6.2-26-41.5-31.1-41.4c-4.5,0-43.4,32.5-41.9,35.7
			c7.2,15.4,15.9,30.1,28.4,41.7C657.4,769.8,698.5,736.1,698.9,731z M772.9,675.4c-0.2-9.8-31.3-46.9-34.7-44.3
			c-11,8.5-31.7,15.1-29,28c3.3,15.6,13.2,37.3,30.4,40.1C751.3,701.1,764.1,684.6,772.9,675.4z"/>
		<path class="st0" d="M280.7,1398.8c0.1-188.7,112.9-330.5,291.1-367.3c17.2-3.6,21.3,0.5,23.9,16.2c2.5,14.8,4.9,24.6-15.1,28.7
			c-204.5,41.6-278.1,221.7-248.3,394.4c30.7,177.7,147.7,275.1,310.9,326c24.6,7.7,13.6,20.3,13.1,31.9
			c-0.7,16.4-13.6,14.2-23.7,11.3C428.5,1782.4,283.6,1629.9,280.7,1398.8z"/>
	</g>
</g>
</svg>
