<?xml version="1.0" encoding="utf-8"?>
<!-- Generator: Adobe Illustrator 23.0.0, SVG Export Plug-In . SVG Version: 6.00 Build 0)  -->
<svg version="1.0" xmlns="http://www.w3.org/2000/svg" xmlns:xlink="http://www.w3.org/1999/xlink" x="0px" y="0px"
	 viewBox="0 0 3000 3000" style="enable-background:new 0 0 3000 3000;" xml:space="preserve">
<style type="text/css">
	.st0{stroke:#000000;stroke-width:10;stroke-miterlimit:10;}
</style>
<g id="Layer_1">
</g>
<g id="Layer_2">
	<g>
		<path class="st0" d="M283.7,1005.8c-19-4-38.7-2.9-57.6-8.3c-74.6-21.4-116.1-72.7-117.3-149.9c-0.8-53.2-8.9-106.6,3.9-159.7
			c8.3-34.3,18.5-67.7,33.7-99.4c43.4-90.5,136.7-127.4,230.5-91.2c49.2,19,98.3,38.3,131.6,86.3c27.8-57.9,68.4-96.5,132-98.1
			c62.5-1.6,109.3,28.5,139.2,84.2c41.8-39.3,88.8-61,146.2-51.1c48.4,8.3,83,36.2,106.6,78.6c3.6,6.5,4.6,17.1,16.9,6.9
			c85.5-71.3,185.4-94.3,294.7-90c77,3,154.2,0.9,231.3,1.5c100.9,0.8,201.2,7.5,298.5,37.1c36.7,11.2,72.1,25.8,99.7,53.7
			c10,10.1,14.8,11.4,26.2,0c63.3-63.1,138.8-78.3,223.1-51.9c35.2,11,60.7,34.2,78.2,68.3c18.5-18.6,35.1-37.4,55.1-52.5
			c128.6-97.1,346.3-100.8,479.3-9.3c73.2,50.3,106.1,122.9,114.2,207.4c14.7,152.2,13.4,305,12.3,457.7
			c-0.9,113.7-3,227.5-7.2,341.2c-7,190.1-20.1,379.7-73.7,563.7c-32,110.1-82,211.9-152.1,303c-98.8,128.5-252.2,181.2-407.4,137.5
			c-97.2-27.4-165.5-91.7-210-181.7c-3.4-6.8-6.4-13.7-10.6-22.7c-51.7,49.6-110.3,85.8-175.2,111.4
			c-148.1,58.5-300.8,94.7-461.1,89.4c-122-4-237.1-31.7-337.3-106.2c-84.9-63.2-137.8-149.5-178.7-244.7
			c-2.9-6.8-3.7-14.7-11.8-21.6c-18.9,34.5-38.3,68.1-63.8,97c-141.5,160.7-317.9,233-530.1,193
			c-149.9-28.2-231.1-132.9-265.8-276.5C58.9,2133.1,56,2056,58.9,1978.7c4.4-117.5,10.5-234.8,32-350.7
			c8.1-43.6,21.5-85.9,41-125.8c6.2-12.7,6.7-23.3,1.6-36.6c-21.6-56-34-114.3-33-174.4c2-118.2,55.8-206.7,157-267
			c8.5-5.1,17.2-9.9,25.7-15C283.5,1009,283.3,1007.9,283.7,1005.8z M1706.4,1898.7c2.2-1.2,3.2-1.3,3.5-1.9
			c3.2-6,6.2-12.1,9.4-18.2c37.2-70.5,92-121,168.2-146.6c48.1-16.2,97.2-17.3,147-8.9c7.6,1.3,19.4,8.8,21.3-6.9
			c2.1-16.6,5.5-33.8,3.5-50.1c-12.9-104.6-46.7-201.7-107.8-288.3c-23.8-33.7-51.5-63.9-85-88.8c-22.2,50.8-32.7,67.2-92,49.1
			c-17.4-5.3-26,8-24.6,23.2c4.6,50.2-24.6,64.9-66.3,74c-15.5,3.4-24.7,10.4-30.9,23.3c-4.6,9.6-9,19.4-11.8,29.6
			c-7.7,27.4-24.5,43.2-53.5,44.7c-5.2,0.3-11.1-0.9-13.5,5.7c-6.4,17.5-18.3,32.4-16.9,53.5c2.4,35,0.6,70.2-8.8,104.4
			c-5.8,21.2-16.9,38.1-39.9,42.4c-13,2.4-13.7,7.1-9.5,18.3c12.8,33.6-4.8,62.8-32.3,75c-27.8,12.3-61.2-0.7-74-27.4
			c-15-31.2-5.3-64.7,26.1-79.3c14.4-6.7,12.1-11.5,7-22.9c-15.5-34.8-17.3-72.2,4-103.2c20.7-30.1,7.6-59.1-5.5-77.4
			c-22.7-31.8-20.5-60.5-10.8-92.5c3.5-11.7,2.2-22.3,0.2-33.6c-6.9-39.1-21.5-75.1-39.3-110.6c-9-18-13.8-19.6-29.5-9
			c-104.4,70.5-154,173.9-176.9,293.2c-8.5,44.6-3.4,89.9-4.4,134.9c-1.4,62.4-29.8,101.2-88.8,121.8
			c-35.9,12.5-73.2,14.8-110.8,12.6c-15.2-0.9-22.3,1.6-21.2,18.9c1.2,19-1.1,38.1-1.1,57.2c-0.3,105.9,7.5,209.9,51.6,308.8
			c73.7,165.2,195.7,267.2,375.9,296.3c97.5,15.7,194.3,9.5,291.6-4.7c77.7-11.3,147.1-39.3,208-87.8c54.4-43.3,100.1-94,120.3-163
			c3.3-11.3,13-25.6,4.8-34c-6.7-6.8-20.8,4.1-31.9,5.7c-4.9,0.7-9.7,2.3-15.1,3.7c25.6,24.8,30.5,49.2,14.7,68.3
			c-13.7,16.6-38,20.2-55.7,7.9c-12-8.4-18.3-19.9-18.8-34.8c-0.5-15.1,9.8-25.5,18.4-37.9c-78.9-1.7-144-26.7-185.4-94.1
			c-40.1-65.4-40.8-137.2-24.9-210.8c-37.9,14-60.4,7.7-70.4-18.5c-8.4-22,1.9-44.2,25-53.9
			C1672.2,1856.9,1693.9,1869,1706.4,1898.7z M1923.4,2433.4c1.8,1,2.5,1.7,3.1,1.6c2.2-0.3,4.6-0.4,6.5-1.3
			c120.9-55.9,209.2-140.4,242.7-274.2c21.5-85.6,28.8-172.9,34.4-260.5c8.6-134.8,20.4-269.6,15.8-404.9
			c-2.5-71.9-9.3-143.6-39.1-210.2c-51.8-115.8-142.9-192.6-254.5-246.3c-297.3-143-680.7-50-880,213.4
			c-40.5,53.5-78,109.7-87.5,178.8c-16.2,118.3-12.7,237.7-20.2,356.5c-0.6,10.2,3.9,13.2,13.1,14.1c18.4,1.7,36.6,0.8,54.9-0.8
			c101.2-9.1,117.6-55.1,113.5-126.2c-3.4-58.9,2-116.7,18.2-174.2c91.5-324.4,439-392.2,647.9-299.3
			c95.4,42.4,168.5,109.9,218.9,200.5c58.8,105.5,97.3,216.3,81.6,340.6c-18.8,149-30.4,298.8-49.5,447.9
			c-9.4,73.4-29.4,141.8-79,198.8C1950.9,2403.1,1937.1,2418.1,1923.4,2433.4z M96.9,1977.4c-3.6,74.3,0.8,148.1,17,220.7
			c34.3,153.5,140.8,249.3,288.7,259.5c188.8,13,410.5-82.8,508.8-298.5c7.7-16.8,10.1-32.3,6.2-50.6c-6.6-30.5-9.1-61.8-11.8-93
			c-6.8-79.4-1.4-158.7,0.8-238c3-109.8,6.7-219.7,17.7-329c1.6-16.1-4-22.9-17-29.7c-103.9-54.1-213.2-90.9-330.5-99.8
			c-98.4-7.5-193.5,5.4-280.4,56.2c-100.7,58.8-147.3,153.4-168.5,262.9C106.2,1750.1,102.8,1863.9,96.9,1977.4z M2923.8,1242.1
			c-0.7-151.8,1.8-306.1-10.5-460c-9.4-117.8-69.8-194.9-183.8-230c-65.6-20.2-131.8-23.6-199.1-13.6
			c-164,24.3-262,141.9-253.9,304.3c0.3,5.9-2.1,13.7,4.8,16.4c7.3,2.9,10.1-5.3,13.8-9.4c32.7-37.3,66-74.1,103.2-107.2
			c47.5-42.3,97.3-81.4,159.3-100.7c75.3-23.4,137.5,0.3,178.9,67.5c20.6,33.4,34.2,69.8,44.1,107.6
			c34.1,130.7,34.8,264.6,34.1,398.1c-0.9,161-9.6,321.8-24,482.4c-11.7,130.9-27.9,260.9-60.7,388.4
			c-23,89.7-50.5,177.9-107.6,253.1c-42.9,56.6-97.2,93-171.6,86.8c-48.3-4.1-90.6-25.3-130.3-52.2
			c-45.2-30.6-84.8-67.5-121.1-107.9c-13.2-14.6-17.6-12.1-25.7,4c-9.5,19-21.8,36.8-34.5,53.8c-7,9.3-7.3,16.6-3.2,26.8
			c100,250.3,404.6,243.2,539.1,88.2c71.2-82,120.4-176.1,156.1-277.4c50.6-143.8,65.8-294.2,77.7-444.9
			C2921.2,1559.1,2919.1,1401.7,2923.8,1242.1z M2598.3,1462c0-18.3-0.8-36.7,0.1-54.9c6.8-131.2,9.1-262.5,3.1-393.8
			c-1.4-29.7-4.8-59.3-11.4-88.4c-2.4-10.7-6.8-17.4-18.9-19.2c-56.6-8.3-112.5-5.9-168.1,8.3c-14.6,3.7-18.4,10.6-14.5,24.5
			c5.2,18.1,14.5,33.6,26.9,47.3c13.9,15.2,28.2,30.1,42.2,45.2c23,24.6,38.9,53.3,42.7,86.9c4,35.6,4.9,71.6,0.4,107.4
			c-9.9,78.5-51,132.3-126.2,158.8c-31.2,11-63.5,17.4-96.6,15.5c-18.4-1.1-21.4,5.1-19.7,21.9c3.5,34.1,5.9,68.5,6.6,102.8
			c0.4,16.8,4.7,22.6,22.2,21.5c39.6-2.4,79.4-4.6,119-3.1c23.9,0.9,34.3-5.2,35.5-29.8c1-21.5,10.1-41.4,20.9-59.9
			c12.5-21.4,34.6-26.2,60.1-14.6c23.9,10.8,32.8,29.8,25.3,53.8c-5.3,17-14.6,31.8-25.2,45.8c-22.4,29.5-39,60.4-26.4,99.4
			c1.8,5.7,2.2,12.2-3.5,16.9c-5.6,4.6-57.5,7.4-62.9,3.2c-6.2-4.8-6.9-11.1-5.4-18.5c2.9-14.2,4.8-28.5,7.9-42.7
			c2.9-13.7-2.5-17.2-15.6-16.7c-44.2,1.7-88.5,3.4-132.8,3.2c-16.8,0-20.1,6.6-20.5,21.5c-0.9,44.2-0.3,88.5-4.6,132.7
			c-3.5,36.8-2.3,36.9,33.8,37.5c65.6,1.1,105.6,30.2,115.7,85.2c3.7,20.3,4.9,40.8,3.4,61.6c-4.2,57.2-12.7,113.7-27.7,169.1
			c-11.9,44.3,4.4,79.6,37.5,108.1c21.4,18.5,40.6,17.2,61.1-2c19.3-17.9,32.5-40.3,44.7-63.3c38.8-73.1,53.6-152.1,55.7-233.8
			C2587.1,1753.4,2584.2,1607.5,2598.3,1462z M1475.9,552.5c-59.5,0-119.1,0.3-178.6-0.1c-81.9-0.4-153.6,27-218.1,76.5
			c-35.5,27.3-58,62.6-67.1,105.8c-25.3,118.8,53.8,242.8,173.3,270.2c34.4,7.9,71,19.6,105.4,3.9c153.8-70.3,313.7-91.3,480.1-62.3
			c13.7,2.4,25.2,0.9,36.5-6.3c28.3-18,57-35.5,82.4-57.6c41.7-36.2,75.1-77.3,86.5-133.7c12.9-64-9.1-112.8-67.8-142.1
			c-31.6-15.8-65.5-24.8-99.9-31.8C1698.8,552.8,1587.4,552.4,1475.9,552.5z M165.4,1443.4c30.7-38.8,61.7-71.5,101.1-94.1
			c16.7-9.6,19.7-19.3,16.1-37.7c-23-117.6,32.4-204.5,150.2-228.1c99.3-19.9,200.5-19.5,300.8-6.6c68.8,8.9,122.1,42.4,142.7,114
			c10.2,35.4,6.4,70.7,0.5,106.5c-3.2,19.6-24.5,40.3-11.1,56.7c12.3,15,37.1,19.5,55.8,29.8c9.9,5.5,12.7,1.6,16-7
			c34.8-90.7,90.5-167.5,160.5-233.7c15-14.2,13.5-22.8,3.1-37.4c-43.2-60.4-106.4-87.9-174.8-104.4
			c-108.5-26.1-219.4-25.9-330.1-21.6c-79.4,3.1-158.1,13.3-233.8,39.1c-90.4,30.8-168.2,77.7-204.8,171.9
			C125.3,1274.1,138,1357,165.4,1443.4z M392.4,968.8c28.2-5.4,55.6-10.8,83-15.8c12.8-2.3,9.4-12,9.2-19.6
			c-2.3-81,2.6-161.5,12-242c6.1-51.6-14-93.8-58.2-123.4c-21.2-14.2-45.1-22.2-68.3-31.6c-86.6-34.8-158-3.3-195.9,81.7
			c-35.5,79.4-31.7,161.9-26.2,245c3.1,46.4,31.1,74.5,72.1,91.5c35.4,14.6,71.3,13.6,107.3,2.1c44.6-14.2,73.5-44.5,82.3-89.8
			c9-46.3-4.4-87.7-40.7-119.8c-13.4-11.9-29-18.1-46.2-9.2c-18.2,9.4-31.4,25.6-27.9,45.9c4,23-14.1,25.7-24.6,27.2
			c-15.9,2.4-13.7-15.4-13.9-25.2c-0.8-35.8,15.2-63.5,46.5-80.7c30.9-17,60.4-11.2,87.4,9.9c73.1,56.9,80.6,171.3,15.8,237.3
			C401.5,957,394.7,960,392.4,968.8z M1846.6,963.9c53.2,16,103.3,36.3,149.8,64.5c110,66.6,197.7,152.3,240.1,277.8
			c6.2,18.5,0.3,45,21.5,54c18.5,7.8,40.8,1.7,61.1-1.7c92.2-15.6,140.7-63.8,144.6-154.4c0.6-14.5,0.5-29,1.3-43.5
			c2.5-48.2-14.8-87.5-50.6-119.9c-20.4-18.4-38.3-39.4-51.5-63.9c-9.5-17.5-54.4-31.5-68.9-18.2c-28.8,26.6-65.5,31.6-100.2,41.4
			c-90.2,25.6-174.8,14-252.8-40.4c-15.1-10.5-25.8-34.2-44.5-30.7c-17.1,3.2-31.7,19.9-47.4,30.8
			C1848.5,960.1,1848.3,960.9,1846.6,963.9z M2644.2,1120.7c40.7-17.6,78.9-34.4,117.5-50.3c11.2-4.6,11.1-12.4,11-22
			c-0.5-55-6.4-109.6-16.4-163.6c-10.6-57.1-24.2-113.3-57.3-162.6c-25.7-38.3-60.9-56.7-107.3-50.1c-20.5,2.9-39.6,10.5-57.9,20.3
			c-90.6,48.6-158.5,122.8-225,198.6c-7.6,8.7-8.1,18.5,1.1,25.9c7.9,6.3,38,1.1,40-6.4c5.7-20.8,21.6-27.9,40.1-32.7
			c58.3-15.1,117.1-19.3,176.8-10.5c43.8,6.4,54,16.3,62.7,59.2C2642.3,989.7,2639.1,1054,2644.2,1120.7z M600.2,1108.3
			c-45.7,1.5-91.5,1.7-137.1,7.4c-102.9,12.9-158.3,77.8-146.2,172.4c3.9,30.3,3.9,30.3,33.4,20c9.4-3.2,18.8-6.4,28.3-9
			c134.5-36,266.1-20.2,396.2,22.1c55,17.9,55.7,18.2,65.8-39.7c15.9-91.2-20.1-155.7-117.2-167.4
			C682.5,1109.2,641.5,1107.1,600.2,1108.3z M2235.9,2248.6c44.8,47.9,90,87.5,143.9,115.9c84.6,44.5,156.2,27.3,212.5-49.6
			c20.4-27.8,37.1-57.7,50.9-89.2c31.1-70.9,50.9-145.2,66.8-220.6c7.3-34.6,7.4-34.6-29.2-34.3c-12.2,0.1-24.6,1.7-36.6,0
			c-22.3-3.2-29.9,5.9-32.8,27.6c-9.7,72.2-36.8,138.4-78,198.2c-44.8,65.2-106.3,67.4-151.3,17.2c-4.5-5-7.5-7.7-14.9-3.2
			C2328.5,2234.7,2286.5,2248.9,2235.9,2248.6z M755.9,753.7c2.9-52.5,5.7-92-0.8-131.6c-9.2-55.9-50.9-95.8-104.4-98.3
			C590.3,521,538,574.1,535.4,641.3c-0.9,22.9,1.3,46.1-1.8,68.6c-9.5,70.6-13.2,141.4-11,212.4c0.2,8.1-6.9,22.6,9.6,23.3
			c14.3,0.6,29.9,3.9,36.1-17.9c9.8-34.4,22.5-68,35.4-101.4c8.9-23,25.5-39.9,49.6-47.6c35.5-11.4,60.7,6.8,60.9,43.9
			c0.2,33.6,0.3,67.2-0.4,100.8c-0.2,11.3,0.4,18,15,18.5c14.8,0.5,17.5-5.1,18.4-18.1C751.3,862.9,755.5,802,755.9,753.7z
			 M2373.9,1904.1c2.8-66.2-22.2-93.6-91.2-92.2c-21.4,0.4-32.3,6.2-30.6,29.7c1,15.1-2.1,30.4-3,45.6c-5.7,99.8-12.1,199.5-41,296
			c-4.2,13.9,0.3,18.7,12.9,22.3c45.9,12.8,85.1-5.2,123.9-25.7c8.3-4.4,9.1-10,5.3-18.6c-11.5-26.3-9.9-53.4-3-80.7
			C2361.1,2025.7,2371.6,1970.4,2373.9,1904.1z M796.1,730.6c-3.3,65.6-6.1,121.9-8.8,178.2c-1.7,35.6-1.7,35.6,35.1,37.2
			c1.5,0.1,3.1,0,4.6,0.2c12.1,2.4,16-2.6,15.6-14.6c-0.8-28.2-0.9-56.4-0.4-84.6c1-59.5,30-107.9,87.4-122.9
			c39.8-10.4,58.6-32.1,73.1-65.8c5-11.6,6.7-20.7,1.4-32.1c-19-41.2-49.3-68-95.5-71.2c-45.3-3.2-81,16.5-108.7,51.7
			c-5,6.3-6.4,12.9-5.3,21.2C799.5,665.1,795.7,702.5,796.1,730.6z M2776,1214.8c-44.1,24.5-85.6,47.8-127.3,70.7
			c-6.5,3.6-7,9.4-7.2,15.5c-1.6,38-2.8,76.1-4.8,114.1c-0.6,11,3.7,13.3,13.5,10.9c36.1-8.9,72.2-17.9,108.4-26.2
			c9-2,12.6-5.8,13.3-15C2775.7,1329.4,2776.4,1274.1,2776,1214.8z M971.4,752.6c-53.9,5.8-87.7,38.7-90.8,88.9
			c-1.9,31.9,0.4,64-0.1,96c-0.2,12.8,5.5,16.1,17.3,18.4c23.9,4.5,47.8,10.1,70.7,18.1c15.7,5.5,18.7-1.2,19.3-13.5
			c0.9-18.3,2.3-36.6,1.6-54.8C987.3,854.2,960.3,806,971.4,752.6z M2691,1623c16.8,0,33.6-0.9,50.3,0.3c14.2,1,18.9-5.2,19.6-18.2
			c1.4-28.2,2.7-56.3,5.3-84.4c1.4-15.5-4.2-15.7-16.6-11.8c-34.8,11-69.7,21.5-105,30.9c-11.8,3.1-14.9,8.4-15.6,20.2
			c-3.7,63.1-4.1,63,59.7,63C2689.4,1623,2690.2,1623,2691,1623z M2683.9,1771.5c0,0.2,0,0.5,0,0.7c-6.9,0-13.7,0.1-20.6,0
			c-38.1-0.5-38.1-0.5-38.6,36.8c-0.6,48.9-0.6,48.9,48.8,48.9c66,0,65.7,0,70.3-66.1c1.1-15.1-1.3-22.8-18.9-20.6
			C2711.5,1772.9,2697.6,1771.5,2683.9,1771.5z M2645,1243.6c32.4-18.1,61.4-38.6,93.5-51.2c35.5-14,42-37.2,37.8-70.8
			c-1.9-14.9-6.7-13.4-16.5-9.1c-18,8-36.6,14.9-54.2,23.8c-20.6,10.5-51.1,11.3-60.1,31.8c-8.6,19.8-1.9,46.3-1.9,69.9
			C2643.6,1238.8,2644,1239.5,2645,1243.6z M2690,1660.9c-3.8,0-7.6,0-11.4,0c-57.5,0-57.1,0-54.9,57c0.5,11.8,4.3,16.3,16,16.1
			c32-0.4,63.9-0.2,95.9-0.5c4.4,0,10.6,0.9,11.9-4.2c5.3-20.7,10-43,4.8-63c-3.3-12.6-22.8-3.6-34.9-5.2
			C2708.4,1660,2699.1,1660.9,2690,1660.9z M1869.3,2200.2c-86.6-35.8-120.3-101.5-122.3-187.3c-1.9-82.2,24.3-152.6,86.9-208.5
			c-8.1,3.9-15.1,8.4-21,14.1c-74.4,71.7-103.5,158.1-81.6,259.6C1746.2,2146.6,1801.6,2196,1869.3,2200.2z M1671.3,1290.6
			c3.5,15.4,15.4,24.7,30.7,31.6c12.9,5.8,23.3,1.2,30.3-8.5c17.4-24.3,27.3-55.2,23.1-81.6c-2.9-18.3-37.6-15.5-57.9-22.4
			c-9-3.1-12.7,0.4-14,8.7C1679.6,1241.7,1675.6,1265,1671.3,1290.6z M1027.7,949.5c-1.9,12.1-2.4,21.9-5,31.2
			c-3,10.4,1.2,15.1,9.9,19.4c42.5,21,78.1,50.1,103.9,90.3c2.5,4,5,11.8,11.7,7.2c21.2-14.8,41.8-30.5,65.1-47.7
			C1134.3,1036.7,1097.7,1016.7,1027.7,949.5z M603.2,940.5c20.1,0,37.4-0.7,54.6,0.2c13.4,0.7,17-5.3,17.1-17.4
			c0.2-27.4,1.8-54.7,1.5-82.1c-0.1-8.9,6.1-22.8-5.9-26c-11.9-3.2-20,8.5-27.1,17.5c-1.9,2.4-3.7,5-4.7,7.8
			C627,873.2,615.5,906,603.2,940.5z M1520.6,1629.7c1.7-14.6-1.9-21.7-18.7-18c-6.9,1.5-15.3-0.1-22.2-2.6c-8.1-3-12.8-1.6-16.4,6
			c-11.2,23.8-12.9,48-2.6,72.5c6.3,15,20.1,13.7,32.9,14.5c13.3,0.8,16.5-8.5,18.3-18.7C1515,1665.6,1517.7,1647.6,1520.6,1629.7z
			 M1644,1221.4c1.2-18.2,1.2-18.2-10.3-20c-35.6-5.6-37.5-4.2-39.1,31.9c-0.8,17.6-2.2,35.2-8.1,51.7c-4.9,13.8-0.5,21.5,12.6,22.1
			c11.4,0.5,28.4,12.4,32.3-11C1635.9,1269,1640.5,1242.1,1644,1221.4z M1557.6,1222.1c5.1-19.8-7.2-19.1-26.9-16.6
			c-20.6,2.6-29.8,8.6-27.2,30.7c1.3,11.7-2.2,24.1-4.5,36c-3.2,16.4,4.2,26.8,18.5,31.9c14.9,5.4,23-4.9,27.9-16.7
			C1553.3,1268.3,1555.9,1247.8,1557.6,1222.1z M2633.5,1483c0,10.1-3.5,20.7,9.8,16.9c39.3-11.1,78.4-22.8,117.5-34.7
			c12.1-3.7,10-15,8.2-23c-2.1-9.5-10.1-2.8-15.1-1.6c-35.4,8-70.7,16.8-106.1,24.6C2635.5,1467.9,2631.7,1474.6,2633.5,1483z
			 M1559.9,1405.3c27.1,0.6,38.5-12.2,39.2-43.9c0.2-10.2-25.5-28.8-39.4-28.6c-13.6,0.2-26.9,24.2-27.8,51.2
			C1531.3,1403.7,1545.4,1405.1,1559.9,1405.3z M2672.4,1932.3c0-0.3,0-0.7,0-1c12.9,0,25.8-0.6,38.7,0.1
			c19.4,1.1,13.7-14.3,15.9-23.8c3.1-13.2-8-10.2-14.5-10.4c-23.5-0.8-47.1-0.2-70.5-1.6c-15-0.9-21.2,2.8-21.9,19.5
			c-0.8,17.8,8.1,17.8,20.6,17.3C2651.1,1931.9,2661.8,1932.3,2672.4,1932.3z M1499.4,1350.6c0.6-7.3-23.1-32.5-29.7-31.7
			c-16.9,1.9-30.2,20.4-26.5,36.8c2.7,11.8,7.3,23.5,8.1,35.4c1.2,18.6,11.3,15,21.2,9.5C1492,1390,1497.5,1371.1,1499.4,1350.6z
			 M1661.4,1399.8c14.1,0.7,26.9-4,39.5-9.9c7.9-3.7,11.8-9.3,10.9-18c-0.6-5.8-60.4-34.7-64.6-30.8c-14,12.8-11,31-11,46.7
			C1636.2,1402.2,1651,1399.3,1661.4,1399.8z M1554.9,1444.4c-6.2,2.8-24.6-11.7-19.9,12.1c2.5,12.5,35.8,38.3,48.4,38.8
			c10.5,0.4,16.8-4.6,19.7-15c3.8-13.9,8-27.7,15.8-40.1c2-3.2,4.2-6.8,1.3-10.4c-4.1-5-8.2-1.7-11.7,1
			C1593.1,1442.6,1575,1444,1554.9,1444.4z M1465,1222.3c-19.4,3.3-35.8,11.4-52.8,17.9c-8.7,3.3-11.9,8.3-8,17.5
			c3.5,8.4,5.7,17.3,9.2,25.7c6.2,15.2,16.3,16.2,28.9,7.3C1465.7,1274.2,1466.2,1250.1,1465,1222.3z M2139.9,757.8
			c14.1,0.6,46.9-25.7,47.6-36.8c0.3-4.7-33.9-29.8-40.3-29.6c-3.8,0.2-34.9,34.7-33.4,38.6C2119.1,742.9,2130.2,750.7,2139.9,757.8
			z M1470.4,1538.2c3.1,13.1,6.9,29.1,23,34.4c14.5,4.8,20.7-9.8,28.1-18.5c6.2-7.3,10.1-16.6,15-25.1c4.6-8,2.1-14.2-5.2-19.3
			c-24.3-17.1-32.5,22.1-54.3,15.4c-4.4-1.4-8.1,3.2-7.1,8.9C1470,1534.8,1470.1,1535.5,1470.4,1538.2z M1948.4,2118.2
			c-3.8-9.8-4.9-22.9-12-28.6c-6.7-5.3-14.9,6.5-22.5,10.7c-7.3,4.1-13.7,9.9-21.2,13.5c-23.1,10.8-11.6,27.8-4.8,39.7
			c6.9,12.1,15.8-1.8,23-5.1c10.3-4.6,19.7-11.4,29.4-17.5C1944.8,2128.2,1950.2,2125.7,1948.4,2118.2z M2236.4,817.3
			c2.9-25.9,5.5-48.6,8.4-74.6c-24.3,15.4-45.1,28.5-69.3,43.8C2198.8,794.1,2215.6,805.9,2236.4,817.3z M1461,1486.8
			c24.4,0.3,33.4-10.9,34.3-41.1c0.1-5,2.6-10.4-7.1-9.7c-33.9,2.4-43.2,9.3-44.3,33.2C1443.2,1483.1,1448.3,1489.2,1461,1486.8z
			 M1828.9,1274.2c1.1-20.4-20.5-28.3-27.8-25.9c-16.9,5.6-12.3,27.4-16.4,42.2c-5.2,19.2,16.8,16.3,22.3,15.9
			C1824.7,1305.1,1823.7,1286.7,1828.9,1274.2z M1875,1890.1c-15.9,10.4-30.7,21.3-46.7,30c-15,8.2-7.4,19-3.3,27.1
			c5.8,11.6,12.4,0,17.8-2.6c8.2-4,15-10.7,23.2-14.5C1885,1921.3,1887.7,1908.8,1875,1890.1z M2059.9,929.6
			c12.7,10.3,22.5,19.9,33.8,27.1c16.8,10.7,24.2-7.4,33-14.9c9.5-8-4.7-11.1-8.6-16C2098.6,901.2,2081.1,920.4,2059.9,929.6z
			 M1848.8,2019.8c17.1-11.6,32.3-22.9,48.5-32.6c12.4-7.5,5.3-16.3,2.3-23.6c-4.7-11.6-11.3-1.8-16.1,0.8
			c-9.3,5.1-17.3,12.6-26.8,17.1C1838.1,1990.3,1837.4,2002.5,1848.8,2019.8z M1910.3,2024.4c-15,10.7-32.9,22.3-49.1,35.8
			c-5.5,4.6,2.1,12.7,3.7,19.1c1.3,5.1,6,3.1,9.2,1.1c15.3-9.9,30.7-19.6,45.5-30.2c8.4-6,2.8-13.7,0.5-20.6
			C1919.1,2026.2,1918.6,2021.7,1910.3,2024.4z M2056.8,728.1c-3.4-2.7-10-8.8-17.5-13.6c-7.7-5-10.5,3.4-14.3,7.1
			c-14.7,14.9-9.3,35.8-15.1,53.4c-1.7,5.2,3.1,6,7.1,5.8C2021.1,780.5,2056.2,739.1,2056.8,728.1z M2169.9,662.1
			c17.5-2,23.7,29.9,42.1,10.1c5.2-5.7,22.1-16.8,6.9-29.4C2199.3,626.3,2194.7,628.2,2169.9,662.1z M2012,2080
			c-5.4-11.2,0.1-29.6-13.4-32.8c-7.9-1.9-24.9,7.1-24.6,20.8c0.2,11.7,1.1,29.1,13.1,32.9C1993.8,2103,2010.2,2095.3,2012,2080z
			 M1953.2,1839c-13.3,8.7-24.4,16.5-36,23.4c-11.4,6.8-2.1,14.7-1.5,21.8c0.3,3.4,1.6,8.2,8.4,7
			C1947.6,1887,1961.4,1864.2,1953.2,1839z M2048.7,1805.4c-21.3-4.9-38.6-8.3-54.3,6.6c-9.5,9-0.4,16.8-0.6,25.1
			c-0.1,4.3,4.2,6.2,8.2,3.3C2017.1,1829.8,2035.3,1823.2,2048.7,1805.4z M2112.9,669.6c-9.5-5-16.3-14.9-24.6-12.2
			c-11.2,3.7-20.9,14.5-22.4,25.8c-0.9,6.4,12,19.7,17.6,16.6C2094.6,693.6,2102.2,681.1,2112.9,669.6z M2254.7,938.4
			c-9.8-6.6-17.7-12.7-26.2-17.5c-12.3-6.9-17.1,6-24.9,10.6c-3.5,2.1-8.9,5.8-3.7,10.5c6.4,5.7,11.8,14.6,23.2,10.5
			C2233.1,948.9,2243.7,947,2254.7,938.4z M1984.5,1974.9c-8.8,5.7-17.5,11.6-26.4,17.1c-13.3,8.2-3.7,18.7-0.5,25.6
			c4.7,10.1,10.9-0.6,16.2-2.8C1993.7,2006.6,1996.1,1993.2,1984.5,1974.9z M1940,1957.4c10.1-6.9,19.9-13.8,29.9-20.3
			c8.9-5.8,3.7-13.5,3.1-20.4c-0.3-3.8-2.4-6.1-7.6-5.3C1944.1,1914.8,1931.2,1936.6,1940,1957.4z M2019.2,848.4
			c-9-10.5-17.9-18.3-29.4-23.8c-4.6,7-9.6,13.6-13.6,20.7c-2.2,4-8.8,7.3-4,13.4c4.4,5.5,10,6,16.2,3.3
			C1997.9,857.8,2007.5,853.6,2019.2,848.4z M2138.6,894.2c13.8,6.7,21.7,27.2,39,8.7c3.4-3.6,12.3-5.7,4-13.6
			C2166.9,875.2,2154.4,882.4,2138.6,894.2z M2037.6,1863.9c-10,6.4-19,11.3-26.9,17.6c-8.6,6.8-4.7,16,0.2,22.1
			c5.3,6.6,9.7-2.1,14.3-4.3C2039.4,1892.7,2040.2,1880.7,2037.6,1863.9z M2156.9,616.2c-1.3-9.4-9.3-11.6-14.7-12.2
			c-12.4-1.4-18.6,10.3-22.6,18.5c-4.2,8.6,8.5,12.8,13.6,13.4C2146.6,637.4,2148.3,622.1,2156.9,616.2z M1791.2,2057.3
			c14.7-5.7,26.6-11.5,17.7-29.7c-2.8-5.8-3.6-12-12.4-6.6C1779.4,2031.3,1788.4,2044.1,1791.2,2057.3z M2016.8,893.8
			c14.4,8.6,25,5.7,44.3-12.4C2046.8,877.4,2040,879.3,2016.8,893.8z M1831.4,2103c-2.8-5.5-1.3-15.4-8.2-16.3
			c-7.2-0.9-15.9,5.6-16.5,12.6c-0.5,6,3.7,15.6,12.9,15.3C1825.3,2114.4,1831.1,2110.7,1831.4,2103z M2035.8,652.7
			c6.2-5.2,14.1-10.4,14.9-18.5c0.6-6.3-7.8-9.7-13.5-8.6c-7.5,1.5-14.6,7.4-14.5,15.3C2022.8,646,2029,650.9,2035.8,652.7z
			 M1825.5,1875.8c14.8-9.5,24.2-15.5,33.7-21.5c4.6-2.9,5.8-7,3.1-11.5c-3.6-5.9-7.7-2.6-10.9,0.6
			C1843,1851.6,1833.1,1858.6,1825.5,1875.8z"/>
		<path class="st0" d="M1123.1,2239.7c26.7-35,52.3-71.2,80.8-104.9c16.5-19.4,16.6-32.2-1.5-50.7c-24.9-25.6-45.9-55-69.6-81.9
			c-9-10.2-7.4-16.2,2.6-23.5c9.3-6.8,16.3-15.8,27.7-1.1c21.9,28.3,46,55,68.3,82.9c10.2,12.8,16.2,17.6,28.6,0.4
			c37-51.2,76.3-100.9,114.5-151.3c7.9-10.5,13.1-17.8,28.1-6.3c14.7,11.3,12.7,17.5,2.8,30.2c-41.8,53.4-82,108-123.8,161.4
			c-8.5,10.8-7.7,16.7,0.8,26.7c35.2,41.1,68.8,83.5,104.3,124.3c11,12.7,3.6,17-4.6,24.7c-9.3,8.8-16.1,11.8-25.8-0.1
			c-32.2-39.7-65.6-78.3-97.6-118.1c-8.8-11-12.9-10.9-21,0.3c-20.6,28.3-42.4,55.8-63.8,83.6
			C1151.5,2265.5,1151.5,2265.5,1123.1,2239.7z"/>
		<path class="st0" d="M1754.2,1696.2c1.7-22.7,22.7-40.8,45-38.7c23.3,2.2,39.7,21.6,38.2,45.4c-1.5,23.1-21.9,40.7-44.8,38.7
			C1769.6,1739.5,1752.5,1719.3,1754.2,1696.2z"/>
		<path class="st0" d="M1663.1,2026.5c-0.3,24.1-18.2,41.8-41.5,40.9c-22-0.9-42.1-22.1-41.3-43.5c0.9-21.7,22.4-41.7,43.9-40.9
			C1647.6,1983.8,1663.4,2001.5,1663.1,2026.5z"/>
		<path class="st0" d="M1959.3,1650.5c-4.6,10.9-0.6,23.7-9.3,34c-16.1,19-44,21.4-62.6,4.2c-17.4-16.2-17.1-44.9,0.5-60.6
			c18.9-16.9,47.3-14.6,62.2,5.6c4,5.4,6.6,11.7,9.8,17.6L1959.3,1650.5z"/>
		<path class="st0" d="M1732,2311.7c-23.4-1.1-40.4-20.3-39-44c1.4-23.4,20.3-40,44.3-38.8c22.9,1.1,41.3,21.5,39.6,44.1
			C1775.1,2296.1,1755.7,2312.9,1732,2311.7z"/>
		<path class="st0" d="M1960,1651.2c1.7-15.1,2.3-30.5,15-41.7c18.6-16.3,45.3-14.7,61,3.9c14.6,17.4,11.9,45.1-5.9,59.2
			c-18.5,14.6-45.6,11-60.5-7.8c-3.7-4.6-3.5-11.9-10.2-14.4C1959.3,1650.5,1960,1651.2,1960,1651.2z"/>
		<path class="st0" d="M1623.7,2165.1c-24,0.4-42.6-17.1-43-40.3c-0.4-22.7,18.3-41.9,41.3-42.3c23.5-0.4,42.4,17.5,42.9,40.6
			C1665.4,2146.5,1647.5,2164.7,1623.7,2165.1z"/>
		<path class="st0" d="M1693.3,1835.4c-24.7-0.3-41.5-17.1-41.3-41.2c0.2-23.4,18.7-41.8,42-41.5c22.9,0.2,41.9,19.5,41.7,42.3
			C1735.5,1818.4,1717.4,1835.7,1693.3,1835.4z"/>
		<path class="st0" d="M1634.4,2271c-23.8-0.3-41.4-18.4-41-42.2c0.3-23.8,18.4-41.4,42.2-41.1c23.7,0.3,41.3,18.4,41,42.3
			C1676.4,2253.7,1658.3,2271.3,1634.4,2271z"/>
		<path class="st0" d="M1836.9,2261.1c24.1,0.1,41.6,17.6,41.6,41.6c0,23.9-17.8,41.6-41.7,41.6c-23.9,0-41.7-17.8-41.6-41.7
			C1795.2,2278.7,1813,2261,1836.9,2261.1z"/>
		<path class="st0" d="M805.6,1900.4c-2.5,46.8,4.9,105.7-4,164.2C783,2185.5,675.3,2279.1,553.2,2280c-44.1,0.3-88.5,4-132.1-6.7
			c-106.5-26.3-186.2-113.5-194.3-228.1c-7.8-109.4-9.9-219.9,1.8-329.2c13.1-123.2,124.1-218.9,248.2-220.1
			c38.1-0.3,76.3-3.3,114.2,3.5c123.6,22,212.7,126.1,214.6,251.9C806.1,1797,805.6,1842.8,805.6,1900.4z M263.6,1887.3
			c-0.4,0-0.7,0-1.1,0c0,43.5-0.6,87,0.1,130.5c1.6,108.2,69.6,195.5,170.3,218.9c42.9,10,86.8,8.1,130,5
			c107.1-7.6,193.7-89.4,201.7-196.4c7.8-104.9,7.4-210.6,0-315.6c-6.7-93.8-77.4-169.7-168.7-190.7c-40.7-9.3-82.1-7.4-123.1-5.2
			c-113,6-201,91.8-208.5,204.8C260.9,1787.9,263.6,1837.7,263.6,1887.3z"/>
		<path class="st0" d="M1435,823.8c-39.8,0.6-79.3-2.3-118.3-10.3c-2.2-0.5-4.6-0.3-6.8-1c-22.4-7.5-47.9-12.7-54.2-39.9
			c-6.5-28,12.1-45.5,31.9-61.1c61.3-48.1,134-64,209-71.9c48.1-5,96-2.8,143.2,9c36,9,45.1,20,45.8,57c1.3,65.4-24.7,94.6-89.2,104
			C1542.9,817.5,1489.2,823.6,1435,823.8z M1438.1,785.6c27,2,57.3-3.1,87.7-5.1c15.2-1,30.4-2.8,45.4-5.5
			c17.9-3.2,36.4-3.9,53.2-12.4c19.1-9.8,26.4-29.4,23.9-59.3c-1.7-21-18.6-17.6-30.4-20c-84.6-17.1-166.8-5.7-247,24
			c-24.4,9-47,22.2-66.4,39.8c-16.8,15.2-15.9,18.8,5.5,24.8C1350.7,783.4,1392.4,786.6,1438.1,785.6z"/>
		<path class="st0" d="M1435.4,888.2c-51.6,0.6-114.7-11-178.2-19.9c-19.5-2.7-12-14.5-11.9-25c0.1-14.1,6.7-15.2,19.2-13.3
			c63.3,9.7,126.4,20.2,190.9,20.2c79.7-0.1,154.5-16.6,221.6-60.9c17.3-11.4,18.7,4.1,25.3,10.9c9.8,10,4.4,16-5.6,22.7
			C1631.6,866.3,1544.8,889.5,1435.4,888.2z"/>
		<path class="st0" d="M1220.2,579.6c13.1,1.7,10.4,14.7,14.7,22.5c4.2,7.6,0.6,12.5-7.6,15.3c-15.1,5.3-29.9,11.2-44.7,17.3
			c-9.1,3.7-18.2,7.8-27,12.4c-83.3,43.9-109.7,110.4-78,198.9c6.9,19.3,16.2,37.8,26.1,55.8c11,20-9.2,18-16.3,24.8
			c-9.9,9.6-13.3,0.5-17.4-7c-20.2-37-37.4-74.9-41.9-117.6c-6.1-58.3,10.1-108.6,53-149.3C1120.4,615.4,1169.7,597,1220.2,579.6z"
			/>
		<path class="st0" d="M1905.2,739.6c-2,50.4-29.4,96-68.4,135.5c-16.5,16.8-36,30.6-52.7,47.2c-12.9,12.8-18.1,3.8-26.2-5.1
			c-9.3-10.3-9.1-16.9,2.1-25.7c37.3-29.2,72.9-60.2,93.6-104.5c31.3-66.8,6.6-129.7-62.9-154.9c-20.1-7.3-8-19.7-8-29.3
			c-0.1-13.1,10.4-9.8,18.6-7.7C1860.2,609.8,1906.2,670.5,1905.2,739.6z"/>
		<path class="st0" d="M1509.2,561.2c44.5,1,87.9,8.3,129.8,23.9c10.2,3.8,18.3,7.3,10.9,20.9c-5.6,10.5-6,22-24.9,15.4
			c-108.3-38.2-211.4-26.2-307.2,37.6c-19.3,12.9-18.5-6.1-25.9-11.7c-11.2-8.6-4.5-14.7,4.1-20.5
			C1360.4,583.1,1431.9,562.7,1509.2,561.2z"/>
		<path class="st0" d="M1763.6,751.7c-1.5-43.4-25.3-71.7-62-91.1c-14.7-7.8-17.8-27.7-6.4-39.3c5.3-5.4,10.2-1.1,14.3,0.8
			c51.5,24.2,87.2,61.4,91.8,120.7c4.4,56.7-25,95-71.6,122.7c-23.7,14.1-50.1,21.5-75.9,30.4c-14.2,4.9-16.9-3.6-19.2-14.1
			c-2.2-10-8.5-19.3,9.1-23.7c27.2-6.9,54.2-15.6,77.5-32.3C1746.5,807.6,1764.3,785,1763.6,751.7z"/>
		<path class="st0" d="M1084.9,777.1c0.4-39.2,21.2-70.3,54.7-94.2c20-14.3,43.2-22.3,65.5-32c14.7-6.4,17.5,1.8,20.4,11.9
			c2.5,8.9,12.5,19-6,24.5c-18.8,5.6-37.1,13.3-53.8,24.5c-43.3,28.9-54,68.2-30.2,114.7c12.7,24.8,31.7,44.7,51.2,64
			c9.4,9.3,4.5,14.6-2.6,19.7c-6.8,4.9-11.2,20.9-23.3,8.8C1122.3,880.3,1086.6,839.6,1084.9,777.1z"/>
		<path class="st0" d="M433.2,1221.1c-0.5-22.8,17.3-41.3,39.8-41.2c21.7,0.1,39.1,17.3,39.7,39.1c0.6,22.7-14.7,38.8-37.7,39.5
			C450,1259.4,433.8,1244.8,433.2,1221.1z"/>
		<path class="st0" d="M653.7,1258.8c-22.5-0.6-37.7-17.1-37-40.2c0.7-21.7,18.5-38.9,40.1-38.6c22.6,0.3,40,18.8,39.2,41.8
			C695.3,1244.9,678.8,1259.5,653.7,1258.8z"/>
		<path class="st0" d="M565.1,1258.1c-24.2,0.3-39.3-13.4-40.1-36.4c-0.8-23,16.6-41.5,39.2-41.8c22.5-0.3,40.5,18,40.2,40.8
			C604.1,1243.6,589.1,1257.8,565.1,1258.1z"/>
		<path class="st0" d="M502.1,2008.5c-79.7-0.6-145.6-67.5-144.5-146.7c1.1-79.4,65.7-143.5,145-143.7
			c80.1-0.3,145.8,65.4,145.6,145.3C647.9,1943.3,581.8,2009,502.1,2008.5z M503.7,1757.2c-60.3-0.1-106.5,44.9-107.1,104.6
			c-0.7,60.4,46.5,108,106.8,107.8c59.4-0.2,105.7-46.6,105.9-106.3C609.4,1803.6,563.4,1757.3,503.7,1757.2z"/>
	</g>
</g>
</svg>
