<?xml version="1.0" encoding="utf-8"?>
<!-- Generator: Adobe Illustrator 23.0.0, SVG Export Plug-In . SVG Version: 6.00 Build 0)  -->
<svg version="1.0" xmlns="http://www.w3.org/2000/svg" xmlns:xlink="http://www.w3.org/1999/xlink" x="0px" y="0px"
	 viewBox="0 0 3000 3000" style="enable-background:new 0 0 3000 3000;" xml:space="preserve">
<style type="text/css">
	.st0{stroke:#000000;stroke-width:10;stroke-miterlimit:10;}
</style>
<g id="Layer_1">
</g>
<g id="Layer_2">
	<g>
		<path class="st0" d="M777.3,1740.4c-0.5-172.5,14.1-344.1,25.5-516c8.3-124.9,20.6-249.3,40.9-372.9
			c30.2-184,96.8-353.9,194.9-512c18.6-30,38.4-59.2,60.3-87c58.3-74.3,133.6-124.3,223.1-151.3c125.8-37.9,254.1-61.6,386.4-53.8
			c64.3,3.8,126.5,16.6,184.4,47.1c48.1,25.4,78.2,63.3,89.4,116.5c16.5,78.5,24.6,157.1,2.1,236c-9.9,34.6-25.5,66-52.3,90.6
			c-9.9,9.1-10.5,16.5-5.1,28.5c39,86.8,62.7,177.6,64.3,273.1c1.5,87.9-4.7,175.2-33,259.3c-18.9,56-46.6,106.8-95.2,142.9
			c-11.4,8.5-6.7,15.4-2.7,24.1c38,83.4,60.9,170.3,58.3,262.6c-2.4,89-26,170-92.2,233.7c-9.8,9.5-4.7,13.9,1.5,21.1
			c66.3,77.5,109.3,165.3,117.6,268.1c9.2,114.6-23.6,216.7-93.9,306.9c-11.5,14.7-13.9,20,7.2,25.9c72,20.1,110,71.7,114.5,143.2
			c8.3,132.8-32.4,249.6-128.6,344.1c-25.8,25.3-58.7,39.8-93.4,47.7c-115.1,26-231.3,45.1-349.9,40.2
			c-107.4-4.5-208.4-30.5-293.4-100.4c-62-51-111.5-113-153.2-181.4c-82.2-134.7-128.2-281.5-150.6-437
			C780.2,2074.5,777.1,1907.6,777.3,1740.4z M831.3,1722.9c-2.5,241.5,7.1,396.7,35.3,562.2c27.8,163.8,88.9,313.6,191.4,445.4
			c62.4,80.2,139.2,139.2,240.7,161c62.3,13.4,125.2,17.5,188.8,13.2c65.4-4.4,130.1-14.6,194.6-25.7c47.9-8.3,98.5-15.6,132.9-53.4
			c78.9-86.9,117-189.4,102.6-307.8c-4.6-37.8-26.5-65-63.3-78.2c-32.7-11.8-66.5-18.3-101.4-19c-58.9-1.2-117.9-1.1-176.7-4.8
			c-139.5-8.8-167.6-53.7-197.9-151.4c-35.8-115.3-45.1-234-47.4-353.3c-4-211.3-5.5-422.7-8.4-634.1
			c-1.2-89.2-1.4-178.5,12.7-266.7c32.1-200.7,141.1-343.8,327.4-426.7c48.1-21.4,99.8-30.2,150.7-41.6
			c66.1-14.8,107-55.1,122.5-121.4c15.4-66.3,6.9-131.6-6.3-197c-7.9-39.3-30.8-65.5-65.8-83.2c-55.8-28.2-115.8-37.3-177.3-40
			c-115.8-5-227.8,18-338.3,49.3c-93.2,26.3-168.5,79.5-224.1,159.3C1029.4,444.8,958.8,592,919.6,753.2
			c-34.2,140.5-49.5,283.9-59.4,428C847.4,1367.1,832,1552.8,831.3,1722.9z M1671.6,1229.4c24.3,0,48.6,0.5,72.8-0.1
			c56.2-1.4,97.6-28.6,127.6-74.8c15.3-23.6,26.7-49.1,35.4-75.7c22.7-70,29.2-142.3,30-215.4c1.1-93.4-20-182.2-56.2-267.9
			c-5.2-12.4-10.1-16.9-24.2-10.7c-23.6,10.4-49.4,14.1-74.6,19.3C1620.3,637.4,1501.9,727.9,1430,877
			c-44.2,91.7-50.7,191-52.6,290.7c-0.2,12.5,8.3,13.6,16.7,16.4C1484.2,1213.6,1577,1227.3,1671.6,1229.4z M1500.2,1474.8
			c42,1.5,70.8-1.3,90.5-4.6c7.5-1.3,21.6-3.7,29.5,3.9c4.4,4.2,4.6,12.7,5.5,29.9c0.8,15.5-3.6,19.9-19.2,20.1
			c-69.2,0.8-138.3,3.4-207.5,4.3c-15.3,0.2-20.1,4.9-19.7,20.3c1.7,67.7,2.7,135.4,3,203.1c0.1,12.5,4.8,18,15.9,22.4
			c89.2,35,180.1,40.6,272,13.4c80.6-23.8,145.7-67.1,174.5-151c42.1-122.9,14.7-239.1-35.8-352.9c-4.3-9.7-10.7-7.4-18.2-5.8
			c-23.8,4.9-48,6.7-72.3,7c-110.4,1.5-218.7-11.6-324.4-44.2c-12.8-4-18.1-3.6-17.8,12.4c1.6,68.4,2.4,136.9,2.4,205.3
			c0,14.3,4.9,17.1,17.8,16.8C1431,1474.2,1465.6,1474.8,1500.2,1474.8z M1384.3,1827.6c-2.9,54.7,1,107.6,3.8,160.3
			c5,95.1,19,188.3,47.4,279.8c18.4,59.3,56.2,85.6,115,91.4c70.5,7,141.3,1.6,211.8,7.5c8.6,0.7,13.8-3.6,18.9-9.1
			c21-22.8,40.3-47,56.2-73.6c92.4-153.9,67.5-333.4-55-471c-8.7-9.8-15.2-7.1-24.6-2.5c-91.4,44.4-187.1,58.4-287.6,40.6
			C1441.1,1846,1413.8,1835.4,1384.3,1827.6z"/>
		<path class="st0" d="M1167.4,1083c9.3-133.1,19.5-178.3,35.9-242.1c38.5-149.2,132.3-257.3,256.6-341.7
			c92.5-62.8,195.4-101.6,303.7-127.2c15.9-3.8,20.2,0.4,22.8,15.7c5.5,32.9,6.3,32.1-25.9,40.9c-31.2,8.6-62.2,17.8-92.8,28.3
			c-130.9,45.2-243,117.5-329.4,227.7c-54.2,69.2-81.1,148.9-96.6,234c-21,114.9-24.7,231.3-29.3,347.4
			c-9.6,240.6-18.4,481.4-14.4,722.3c1.6,97.9,11.5,195.2,29.8,291.8c29.8,157.3,124.9,251.2,275.7,294.9
			c85.3,24.7,172.4,28.9,260.3,26.4c7.2-0.2,18.8-5.8,21,4.5c3.2,14.8,6.5,30.3,3,45.6c-0.4,1.7-6.4,2.9-9.8,3
			c-112.5,4.8-223.3-2.2-330.7-41.2c-159.6-58-245.7-174.2-276.2-337.6c-26.5-142-28.6-285.4-29.3-429
			c-0.4-83.2-0.1-166.4-0.1-249.6C1148.2,1387.5,1158.3,1213,1167.4,1083z"/>
		<path class="st0" d="M1657.2,1037.7c-57.2,0-101.4-44.7-102.9-101.8c-1.4-54.6,46.4-104.6,102.8-104
			c57.8,0.6,103.3,46,102.8,104.1C1759.5,993.1,1714.4,1037.7,1657.2,1037.7z"/>
		<path class="st0" d="M1598.3,1978.6c56.2,0.2,102.6,46.3,103.1,102.5c0.5,56.5-47.3,104.4-103.9,104.1
			c-55.7-0.3-102.9-47.2-103.5-102.6C1493.5,2026.2,1541.4,1978.4,1598.3,1978.6z"/>
	</g>
</g>
</svg>
