<?xml version="1.0" encoding="utf-8"?>
<!-- Generator: Adobe Illustrator 23.0.0, SVG Export Plug-In . SVG Version: 6.00 Build 0)  -->
<svg version="1.0" xmlns="http://www.w3.org/2000/svg" xmlns:xlink="http://www.w3.org/1999/xlink" x="0px" y="0px"
	 viewBox="0 0 3000 3000" style="enable-background:new 0 0 3000 3000;" xml:space="preserve">
<style type="text/css">
	.st0{stroke:#000000;stroke-width:10;stroke-miterlimit:10;}
</style>
<g id="Layer_1">
</g>
<g id="Layer_2">
	<g>
		<path class="st0" d="M2755.4,1521.5c0,238,6.5,476.3-1.6,714.1c-10.4,304.9-159.5,527.3-431.8,664.9
			c-103,52.1-214.3,72.6-329.6,72.5c-321.4-0.2-642.9,3.6-964.2-1.1c-315.7-4.7-545-154.4-686.8-436.2
			c-52.4-104.2-71.4-216.8-71.5-332.7c-0.3-455.3-0.7-910.5,0.1-1365.8c0.6-357.7,226.8-655.1,564.3-744.7
			c64.7-17.2,130.7-24.6,197.4-24.6c320.6-0.2,641.2-0.7,961.8,0.2c365.7,1,667.7,244,745.6,598.6c12.8,58.1,17.1,117.2,17.1,176.7
			c0,226,0,452,0,678.1C2755.8,1521.5,2755.6,1521.5,2755.4,1521.5z M2696.8,1520.8c0-223.6,0-447.1,0-670.7
			c0-52.9-3.6-105.5-12.8-157.7c-54.3-308.5-335.7-557.8-649.3-562.7c-345.3-5.5-690.7-2.1-1036.1-1.1c-91.6,0.3-180,21.5-262,62.2
			C466.9,324.9,330.9,544.5,329.7,845c-1.7,456-0.6,911.9-0.3,1367.9c0,93.9,17.2,184.5,52.8,271.7
			c105,256.6,360.2,428.5,637.6,428.5c328.5,0,657.1,0.4,985.6-0.2c185.9-0.3,346.1-67.2,478.8-195.8
			c142.3-137.8,211.6-308.4,212.3-506.3C2697.4,1980.8,2696.8,1750.8,2696.8,1520.8z"/>
		<path class="st0" d="M1457.8,1836c-144.3,0-260.5-117-260.3-262.1c0.2-144.5,116.6-261.4,261-262.1
			c144.3-0.7,263.9,118.6,263.5,262.9C1721.5,1719.8,1604.1,1836,1457.8,1836z M1459.3,1777.7c111.7-0.1,203.8-92.1,203.6-203.5
			c-0.2-112.7-92.3-203.4-206.1-203c-110.2,0.4-201,92.2-201,203.2C1255.8,1686.2,1347.5,1777.8,1459.3,1777.7z"/>
		<path class="st0" d="M2066.3,719.4c72.3-0.7,129.9,55.8,130,127.7c0.1,69.7-57,128.7-125.1,129c-76.2,0.4-131.8-53.2-134.4-126.5
			C1934.3,774.9,2004.9,711.5,2066.3,719.4z M2066.9,777c-39.5-0.2-70.4,30-70.7,69.2c-0.4,39.9,29.2,70.6,68.5,71.1
			c41.2,0.5,72.2-29.5,72.1-70C2136.8,808,2106.1,777.1,2066.9,777z"/>
		<path class="st0" d="M2032.6,2095.1c73.3,0.3,128.8,56.2,128.4,129.3c-0.4,69.2-57.1,128.1-123.1,127.9
			c-78.8-0.3-136.6-55.3-136-129.5C1902.5,2150.6,1959.6,2094.9,2032.6,2095.1z M2031.7,2293.8c39.5,0,70.1-30.2,70.3-69.6
			c0.2-40.3-31-71.4-71.4-71c-39.2,0.4-69.4,31.3-69.1,70.8C1961.7,2263.3,1992.3,2293.7,2031.7,2293.8z"/>
		<path class="st0" d="M975.6,976.5c-72.3-0.1-129.3-57.2-129.2-129.5c0.1-72,57.7-129.5,129.7-129.4c71,0.2,130.2,59.3,130.2,129.8
			C1106.2,918.1,1046.9,976.6,975.6,976.5z M976.5,917.2c39.2-0.2,70.2-31.2,70.2-70c0-38.6-31.5-70-70.3-70.2
			c-39.5-0.2-72.2,32.7-71.5,71.6C905.6,887,937.4,917.5,976.5,917.2z"/>
		<path class="st0" d="M976.4,2132.2c71.3,0.3,130.4,59.4,129.9,129.8c-0.5,70.8-59.7,129.3-130.8,129.1
			c-72.1-0.2-129.2-57.8-129-130.1C846.6,2189,904.2,2131.9,976.4,2132.2z M975.6,2331.9c39,0.1,70.5-30.8,71-69.5
			c0.5-38.8-30.4-70.3-69.4-70.7c-40.3-0.4-72.4,30.8-72.2,70.3C905.2,2300.3,937,2331.8,975.6,2331.9z"/>
	</g>
</g>
</svg>
