<?xml version="1.0" encoding="utf-8"?>
<!-- Generator: Adobe Illustrator 23.0.0, SVG Export Plug-In . SVG Version: 6.00 Build 0)  -->
<svg version="1.0" xmlns="http://www.w3.org/2000/svg" xmlns:xlink="http://www.w3.org/1999/xlink" x="0px" y="0px"
	 viewBox="0 0 3000 3000" style="enable-background:new 0 0 3000 3000;" xml:space="preserve">
<style type="text/css">
	.st0{stroke:#000000;stroke-width:10;stroke-miterlimit:10;}
</style>
<g id="Layer_1">
</g>
<g id="Layer_2">
	<g>
		<path class="st0" d="M1352.4,2975.4c-96.9-1.4-225,3.9-352.8-1.9c-241.6-10.9-459-206.7-497.2-445.6c-5.8-36.3-8.8-72.7-8.7-109.4
			c0.2-204,0.8-408.1-0.2-612.1c-0.6-114.3,25.4-220.5,89.2-316.2c7-10.6,3.3-17.3-1.3-26c-32.2-60.4-63.2-121.2-76.8-189.3
			c-17.8-89.5-0.6-169.1,65.4-234.7c11.2-11.1,3.5-16-2.6-23.1c-96.3-111.4-146.6-241.1-142.6-387.9
			c5.6-203.8,94.4-363.4,280.8-452.2c217.1-103.5,424.5-72.7,614.1,74.6c13.9,10.8,18.4,11.5,27.8-4.4
			c48.7-82.7,126.1-125.3,215.5-149.8c69.7-19.1,141.4-25.2,213.2-29.1c151.9-8.3,303.9-8.6,455.9,0.1c39.3,2.2,78.7,3.3,117.5,11.1
			c107.9,21.6,170.8,83.6,190.6,191.6c20.1,109.1,5.9,216.3-22.7,322c-43.1,159.2-116,305.6-196.1,448.8
			c-64.7,115.8-131.9,230.2-207.4,339.4c-6.6,9.6-5,14.9,2.6,22.6c109.2,111.4,160,245.4,159,401.1c-1.3,208.9,0.4,417.8-0.5,626.6
			c-1.1,259-177.6,476.8-429.8,532c-41.4,9.1-83.4,12.1-125.7,12.1C1607.4,2975.4,1495.4,2975.4,1352.4,2975.4z M1385.6,1293.6
			c-113.4,0-226.8-0.3-340.3,0.1c-105.1,0.3-202.5,27.3-288.4,88.9c-139.5,100-210.9,237.1-212.4,408.3
			c-1.8,207.5-0.3,414.9-0.5,622.4c0,34.7,2.7,69,7.9,103.3c34.8,226.4,245.4,407.1,474.5,407.2c238.6,0,477.2,0,715.8,0
			c10.4,0,20.8,0.1,31.1-0.9c258.8-25.1,450.7-235.2,451.3-494.9c0.5-212.3,0.1-424.6,0.1-636.9c0-41-4.7-81.4-14.5-121.2
			c-55-222.3-251.3-374.8-484.3-376C1612.5,1293.2,1499.1,1293.7,1385.6,1293.6z M2297.5,975.1c6.8-2.7,8.1-9.4,10.8-14.7
			c18.9-36.9,38.3-73.5,56.2-110.9c50.8-106.1,94.3-214.8,118.6-330.6c3.5-16.6,1-21.2-16.4-21.5c-76.7-1-153.5-2.8-230.2-5.4
			c-16.2-0.5-21.3,3.6-21.5,20.1c-0.9,62.2-3.2,124.4-5.2,186.6c-0.2,5.9,2.4,15.1-4.1,17c-14,4.1-29.3,2.8-42.8-1
			c-9-2.5-4.4-14.5-4.2-22.2c1.5-62.2,3.2-124.4,5.6-186.6c0.5-12.2-3.4-14.9-14.9-15.1c-60.2-0.8-120.3-2.7-180.4-3.8
			c-27.9-0.5-28.2-0.2-29.1,26.7c-2.1,61.5-4.6,123-5.1,184.5c-0.1,17.6-6,21.8-21.4,18.8c-3.4-0.6-7-0.9-10.3-0.5
			c-16.7,2.1-20.5-5.2-19.8-21.3c2.6-63.6,3-127.2,5.9-190.7c0.7-16.1-3.6-20.1-18.8-20.2c-62.2-0.6-124.5-1.9-186.7-3.9
			c-13.4-0.4-16.3,4.5-16.7,16.4c-1.4,43.5-3.6,87-5.5,130.6c-1.3,29.5-1.4,29.5-30.3,27.5c-1.4-0.1-2.8-0.4-4.1-0.3
			c-13.6,1.4-17.5-4.5-16.8-17.9c2.4-46.9,3.4-94,5.7-140.9c0.6-12-1.8-17.2-15.3-17.3c-80.2-0.9-160.4-2.3-240.6-4.4
			c-14.7-0.4-20.1,3-20.9,18.8c-3.3,65.5-4.7,131.3-15.3,196.2c-18.8,115.8-75.9,203.5-187.9,249c-45,18.3-92.2,29.3-140.5,34.1
			c-13.2,1.3-18.3,5.3-21.1,19.1c-25.3,126.5-98,212.5-221.4,253.2c-61.1,20.1-123.6,20.8-186.5,9.2c-7.5-1.4-15.7-5.9-12.6,8.8
			c12.7,60.8,39.6,115.6,68.6,170.5c3.2-2.4,5.1-3.3,6.4-4.8c117.6-130.5,265.3-188.6,439.6-186.2c123.1,1.7,246.2,0.2,369.3,0.5
			c12.1,0,21.2,1,18.7-16.8c-7.4-51.8-4.2-103.4,4.7-154.8c25.4-146.6,108.5-246.6,245.9-301.4c102.4-40.9,208.5-48.4,315.7-24.4
			C2152.7,774.6,2258.6,835.2,2297.5,975.1z M1232.2,796.8c-33-8.1-63.3-15-93.3-23.1c-177.4-47.4-337.2-129.6-480.7-244
			c-5.1-4.1-15.8-8.6-12.7-14.3c6.7-12.5,15.7-25.1,26.9-33.6c7.9-6,15,6.3,21.4,11.4c161.1,127.6,342.5,211,543.8,252.1
			c16.4,3.3,21.5-0.8,25.4-15.9c16.6-64.7,20.5-130.8,24-197.2c3.5-66.8,4.2-134.3,24.3-199c4.5-14.5,0.5-22.4-10-31.5
			C1183,198.9,1045.4,156.1,890.6,173.3C767.9,187,662.3,238.4,582.4,334.5c-95.9,115.4-123.2,249.4-98.8,395
			c16.4,97.7,59.2,183.5,125.3,257.5c5.6,6.2,9.8,15.4,21.8,8.8c86.6-47.8,182-57.3,278.1-65.1c72.3-5.9,144.6-13.2,212.7-41.5
			C1167.3,870.2,1204.4,840.8,1232.2,796.8z M1504.3,1181.3c0.8,12.4,2.6,24.9,2,37.3c-0.8,18.2,4.9,25,24.8,24.6
			c63.6-1.4,127.2-0.8,190.9-0.5c121.7,0.6,233.3,33.2,331.4,106.8c12.9,9.7,17.4,5.5,24.8-5.5c59.3-88.4,115.6-178.7,167.3-271.8
			c6-10.7,8.5-21.3,8-33.5c-3.5-98.4-52.7-166.4-139.6-208.7c-93.2-45.4-191.8-56.5-293.1-39.4
			C1610.9,826,1495.9,969.1,1504.3,1181.3z M2217,279.1c0,49.1,0.2,98.2-0.1,147.3c-0.1,9.3,0.2,15.3,12.6,15.5
			c83.7,1.3,167.3,3.2,251,5.1c8.8,0.2,13.8-1.2,14.7-11.9c5.4-63.1,6-125.9-13.3-187c-18.9-60.1-59.5-97.9-120.6-114.2
			c-40.5-10.8-82.2-10.4-123.3-14.8c-5.2-0.6-8.3,0.3-10.2,2.1c-4.1,3.8-3.1,11.1-2.9,12.9C2226.3,146,2223.1,199.7,2217,279.1z
			 M2174.5,277.2c0-47.7-0.7-95.4,0.4-143c0.3-14.7-4.4-19.1-18.3-19.2c-62.9-0.3-125.8-1-188.7-2.2c-12.2-0.2-15.1,5-15.5,15.8
			c-3,97.4-6.1,194.8-9.7,292.2c-0.4,11.7,3.1,15.7,14.9,15.8c64.3,0.9,128.5,2.2,192.8,4.2c6.4,0.2,10.5-0.8,13-3.3
			c4.3-4.2,3.6-11.2,3.4-13.2C2165.8,411.3,2169,356.1,2174.5,277.2z M1901,275.1c0-49-0.3-98,0.3-147.1c0.1-10.6-2-14.8-13.4-14.2
			c-64.1,3.3-128.3,5.2-192.3,11.4c-11.8,1.1-14.4,5.6-14.8,16.6c-3.2,89.7-6.7,179.5-11.1,269.1c-0.7,14.8,3.5,19.1,17.7,19.3
			c63.6,0.8,127.1,2.1,190.6,3.9c5.5,0.1,9.2-0.7,11.5-2.9c3.6-3.6,3.2-9.4,3.1-11C1892,409,1895.5,353.4,1901,275.1z M1624.5,280.9
			c0.2-84.3,2.3-120.4,5.2-130.6c0.5-1.7,2.8-9.4-0.5-13c-1.4-1.5-4.1-2.1-9.2-1.1c-146.5,28.7-251.2,96.1-272.2,270
			c-1.8,15.2,2.8,17.5,15.8,17.7c79.5,1.3,159,2.8,238.5,5.2c14.4,0.4,16.7-4.8,17-17.6C1620.1,367.9,1622.6,324.4,1624.5,280.9z
			 M923.5,981c-20.2,1.5-40.1,2.5-59.8,4.5c-81.6,8.2-161.7,22.2-231.7,69.2c-45.4,30.5-72.4,72.9-81.2,127.2
			c-2,12.2,0.8,17.1,13.2,19.8c45.8,10.1,91.7,11.5,137.9,3.7C817.2,1185.8,908.1,1094.6,923.5,981z"/>
		<path class="st0" d="M1404.5,1504.5c220.6,9.1,418.8,97.3,553.6,299.6c164.1,246.2,110.5,569.7-120.1,761.9
			c-225,187.7-553.2,216.9-811.1,67c-159.8-92.8-268-228.8-300.4-414.2c-38.1-217.8,34.1-399.6,197.8-544.5
			C1055.7,1558.1,1213,1507.1,1404.5,1504.5z M1695.9,2573.3c18.8-4,40.9,4.1,59.3-8.4c53.1-36,99.2-79.4,138-130.6
			c5.4-7.1,6.7-13.8,5.6-22.9c-17.1-139.7-150.1-251.5-256.4-252.6c-30.4-0.3-29.5-3.3-28.1-33.6c0.8-16.7,7.1-21.2,23-18.7
			c28,4.4,56.1,8,84.3,10.7c32.3,3.1,64.7,9.8,97.1,3.3c73.3-14.5,117.8-64.7,153.5-125.7c8.4-14.4,8.5-27.8,2.9-43.3
			c-49-135.9-138.3-237.6-262.5-309.5c-7-4.1-15.2-7.7-23.1-8.5c-127.7-12.7-229.4,51.1-269.8,169.1c-8.7,25.4-14.9,50.5,5.1,74.1
			c3.1,3.6,6.8,8.4-0.2,13.9c-25.9,20.3-39.7,17.9-55.7-10.9c-3-5.4-5.9-11-9.2-16.2c-74.4-117.4-176.2-190.7-318.9-198.9
			c-13-0.8-24.1,1.6-34.9,9.4c-65.9,47.5-121,104.9-163.2,174.6c-8.4,13.8-13.4,28.6-16.6,44.3c-11.6,57.6,1.2,111.6,27.2,162.4
			c26.4,51.7,69.7,81.4,128.4,85.7c31,2.3,62.2,1.4,93.1-3.3c4.5-0.7,11.9-4.6,13.2,0.1c3.9,13.8,7.9,28.4,6.9,42.4
			c-0.7,10.9-14.2,8-22.4,8.7c-22,2.1-44.1,4.1-66.2,4.3c-63.7,0.7-115.6,36-129.7,98.2c-16.7,73.7-15.7,145.6,49.4,201.1
			c22.6,19.2,43.5,40.5,67.6,58.1c37.5,27.3,75.9,53.4,122.2,63.5c70,15.2,135.8,11.3,184.9-49.8c41.4-51.5,79.9-104.9,83.1-174.7
			c0.4-9.9,5.4-13.4,14.4-13.5c6.9,0,13.9,0.5,20.7-0.3c12.6-1.6,18.3,2.9,16.3,16c-1.9,12.2,2.5,22.8,7.9,33.6
			C1495,2528.9,1579.3,2577.2,1695.9,2573.3z M1104.2,1619.1c109.4,22.2,195,81.6,266.1,169.5c36.6-104.4,106.9-170.3,210.2-202.2
			C1417.3,1539,1259.1,1547.5,1104.2,1619.1z M1414.3,2482.4c-39.9,73.3-81.1,143.2-161.8,179.4c93.6,32.4,336,7.5,384.6-38.2
			C1519.4,2594.7,1519.4,2594.7,1414.3,2482.4z M1940.4,2360.3c51.4-98.2,69.7-197.6,57.3-308c-49.2,63.7-103.8,110.8-185.1,121.4
			C1876.2,2223.2,1916.5,2283.8,1940.4,2360.3z M815.5,2329.2c7.3-59.7,27.8-111.8,76.3-149.5c11-8.6,4.1-11.1-3-15.3
			c-48.6-28.7-79.5-71.2-97.6-124.1c-3-8.9-3.6-19.7-13.7-27.3C757,2123.7,767.6,2228.7,815.5,2329.2z"/>
		<path class="st0" d="M1882,1201c-93.1-0.3-182.4-80.4-195.6-174.8c-1.3-9.3,1.2-12.7,9.9-13.1c3.4-0.2,6.8-1.1,10.2-1.9
			c18.8-4.5,29.4-2.7,34.9,21.5c15.3,67.1,74.9,115,138.7,117c65.3,2,130.3-46.7,154.3-114.8c3-8.5,0-23,11.6-24.1
			c12.5-1.3,25.9,2.7,38.5,6c9.3,2.4,4.2,10.4,3.2,15.8C2068.9,1124.8,1975.4,1201.3,1882,1201z"/>
	</g>
</g>
</svg>
