<?xml version="1.0" encoding="utf-8"?>
<!-- Generator: Adobe Illustrator 23.0.0, SVG Export Plug-In . SVG Version: 6.00 Build 0)  -->
<svg version="1.0" xmlns="http://www.w3.org/2000/svg" xmlns:xlink="http://www.w3.org/1999/xlink" x="0px" y="0px"
	 viewBox="0 0 3000 3000" style="enable-background:new 0 0 3000 3000;" xml:space="preserve">
<style type="text/css">
	.st0{stroke:#000000;stroke-width:10;stroke-miterlimit:10;}
</style>
<g id="Layer_1">
</g>
<g id="Layer_2">
	<g>
		<path class="st0" d="M1713.3,2619.1c-41.8,54.7-93.5,90.8-159.7,104c-70.5,14.1-136.4,1.6-197.2-36.3c-11.1-6.9-18.5-8-29.6,0.6
			c-34.9,26.9-76.4,36.9-119.1,42.6c-99.1,13-194.3,1.3-284.3-44.2c-5.8-2.9-10.1-4.3-15.9,1.3c-45,43.8-102.6,58.2-161.8,67.9
			c-42.4,7-85,6.1-127.4-2.9c-54.3-11.4-100.1-37-135.8-79.6c-8.3-9.9-12.6-9.9-21.8-1c-29.6,29-67,42-107.1,47.1
			c-43.3,5.6-86.2,1.5-128-11.7C137,2678.8,91.2,2614.2,75,2526c-22.8-123.8,12.9-230.5,97.9-321.7c6.6-7.1,7.2-11.5,1.8-19.5
			C95.5,2067.1,63,1934.9,52.7,1795.4c-6.5-88.3-1.6-175.6,16.2-262c25.7-124.4,94.8-221.8,191.2-301.7
			c30.6-25.3,62.7-48.4,95.2-72.9c-8.7,1.9-17.4,3.8-26.1,5.8c-89.9,20.9-136.6-14.9-147-107.4c-8.8-78-3.8-154.8,9.4-231.6
			c1.8-10.8,1-21.5-0.4-32.3c-10.3-77.6-5.5-155.5,4.9-232c12.2-90,65.1-157.7,140.5-207.2c83.6-55,175.8-82.1,275.8-83.5
			c49.4-0.7,98.6,1,147.8,5.6c33.8,3.1,66.8-6.9,100.1-11c89.6-10.8,179.1-20.9,269.5-23.6c55.8-1.7,110.2,7.5,164.8,16.2
			c26.6,4.3,53.8,3.6,78.3-6.7c71.4-30,146.1-32.7,221.6-30.3c77.2,2.4,153.4,12.5,228.2,31.9c42,10.9,78.4,29.8,88.8,76.9
			c3.8,17.5,4.1,35.8,4.9,53.8c2.1,47.4,4.9,94.7,4,141.8c4.2,1.6,5.4-1.1,6.5-3c60.1-102.3,152.6-162.6,261.6-200.8
			c112.8-39.6,226.6-36.1,340.2-3.6c129,36.8,238.7,103.2,321.6,210.7c47.8,62,69.4,133.8,80.9,209.6c11.9,78.7,16.4,158,17.9,237.4
			c3,155.8,7.2,311.6,0.3,467.5c-3.6,81.1-9.7,162-19.8,242.6c-14.7,118-28.7,236.2-45.7,353.9c-18.2,126.1-38.4,252.1-86.8,371.2
			c-34.6,85-85.6,157.4-165,206.4c-57.9,35.7-123.1,51.1-189,62c-138.2,22.9-277,41.5-416.6,53c-62.4,5.1-125,5.1-186.8-8.9
			C1781.1,2709.8,1735.3,2681.1,1713.3,2619.1z M813.7,2316.5c6.3,4.9,11.4,4.1,16,4.1c183.5,1.2,367,11.1,550.4-2.8
			c76.1-5.7,150.2-21.7,218.2-57.7c80.2-42.4,146.7-100.6,192.1-180.2c18.3-32.2,12.4-42.7-24.4-46c-51.1-4.6-102.1-1.8-152.7,7.9
			c-58.2,11.2-112.3,34.4-167.6,54.5c-105.3,38.2-214.3,47.4-325.3,38.1c-29.5-2.5-29.1-1.7-27.4-31.2c0.7-12,3.5-15.7,17-14.4
			c117.1,11.8,231.7,2.1,342-42.1c39-15.7,78.1-31.3,119.3-40.4c9.1-2,12.1-6.8,13.8-15.7c8.7-45.4,25.9-87.6,52-125.8
			c43.9-64.1,102.9-108.7,176.7-133.5c4.3-1.4,17.6,0.3,10-10.5c-11.2-15.8-26.9-27.4-43.7-37.2c-7-4.1-11.2,1.6-16,4.8
			c-18.5,12.3-36.5,25.6-55.5,37.1c-186.5,113.4-388.1,187.1-602.1,228c-31.9,6.1-31.5,5.8-37.5-25.4c-1.8-9.3-0.1-13.1,9.5-14.6
			c18.4-3,36.6-6.8,54.8-10.6c194-40.6,376.9-109.6,547.1-211.9c11.4-6.8,14.5-13,12.9-26.9c-12.2-105.5,21.8-192.8,106.4-258.9
			c9-7,19-12.7,28.4-19.1c12.1-8.2,0.6-14.6-2.4-20.9c-3.8-7.9-7.6-1.6-10.5,1.7c-70.7,78.2-158.8,132-252.3,177.5
			c-118.8,57.8-243.3,99.8-371.3,132c-25.5,6.4-24.5,6.8-32-18.3c-4.3-14.1-1.6-19.4,13.3-22.9c47.3-11.2,94.2-24.4,140.4-39.6
			c126.6-41.4,249.3-91.2,361-165.3c14.7-9.7,15.8-16.7,8.6-32.5c-50.8-110.4-46.6-219,14.8-324.5c8-13.7,17-26.9,26.7-42.1
			c-58.8-2.1-108.6,14.8-152.7,49.7c-4.2,3.3-5.6,7.3-6.1,12.3c-5.2,48.2-26.2,90-55.8,127.2c-52.4,65.9-113.6,119.7-201.3,131.9
			c-28.6,4-57.5,5.2-86.4,5.4c-119.2,0.8-238.2-2.8-357.1-10.1c-29.9-1.8-29.1-1.6-26.7-30.8c1-12.4,6-14.9,16.9-13.8
			c10.7,1.1,21.6,1,32.4,1.4c129.8,5.7,259.5,13.2,389.6,6.6c54.3-2.8,100.2-22.5,140.6-57.4c13.6-11.8,28.1-23.1,39-41.3
			c-29.4,8-56.4,13.6-84,14.8c-141.8,6.3-264.2-78.8-310.5-217.1c-5.2-15.4-11.9-18.8-26.5-16.9c-54.2,7.1-108.5,14.2-162.1,25
			c-154,30.9-302.6,77.3-441.7,151.6c-68.8,36.7-132.1,81.3-188.4,135.5c-88.8,85.4-131.8,191.8-143.5,312.6
			c-2,20.5-5.7,40.9-2.3,65.2c5.7-6.5,9-10.7,12.6-14.6c60.2-65.4,129.8-118.2,211-154.8c115.6-52.1,237-64.8,361.8-50.1
			c74.3,8.7,144.7,30,207.5,71.6c100.4,66.4,148.4,163.3,155.2,281.1c8.3,143.3-40,269.3-123.3,383.6
			C891.3,2242.8,854.7,2280.8,813.7,2316.5z M2906.7,1199.6c0-34.9,0.8-69.8-0.1-104.7c-3.1-115.4-3.7-230.9-18.3-345.8
			c-12.7-99.9-51.1-186.8-127.1-253.9c-134.3-118.4-290.8-176.5-469.8-151.6c-184.3,25.7-314.6,124.5-374.2,305.9
			c-39.8,120.9-47.2,244.9-33.5,370.8c0.7,6.7,3.4,10.7,8.8,14.4c80.8,54.6,204.9,19.3,244.9-69.6c14.3-31.8,18.1-65.8,21.2-100
			c3.9-42.6-2.6-85.4,2.4-128c5.1-43.6,30.8-75.9,74.2-84.3c93.4-18.1,181.8-3.1,262.7,47.6c64.1,40.1,100.8,97.5,105.9,174.7
			c3.4,50.6,2.5,101.1,2.3,151.6c-0.4,106.9-13.4,211.4-48.9,313.6c-66.8,191.9-260.2,321-462.5,304.4
			c-74.3-6.1-146.4-20.1-214.4-51.6c-7.9-3.7-12.6-3.2-18,4.3c-11.6,16.2-25.1,30.8-40.4,43.6c-8.8,7.4-8.9,11.2,0.9,18.3
			c34.3,25.2,59.3,57.9,73.3,98.3c3.4,9.8,8.7,13.9,18.9,15.8c68.3,13.3,136.4,11.5,204.2-2.5c123.4-25.4,232.2-82.8,335.9-152.4
			c60.6-40.7,102.6-93.8,130.3-161.3c42.7-104.3,70.7-211.9,81.6-324c9.7-100.4,9.5-200.6-10.8-299.8
			c-12.9-63.3-31.5-124.6-67.2-179.6c-83.7-128.9-233.8-174.1-373.7-111.5c-73.1,32.7-132.8,83.8-188.3,140.5
			c-10.9,11.1-17,23.6-18.8,39.4c-4.1,36-7.5,72-2.4,108c1.9,13.8-1.9,19.1-15.4,18.5c-3.5-0.1-7.3,0.6-10.6,1.8
			c-12.1,4.3-17.2,0.3-18.4-12.6c-4.2-46.4-2.9-92.8,5.9-138.4c29.1-150.5,111.8-256.5,261.1-302.4
			c175.9-54.1,434.6,11.3,536.5,259.8c37.1,90.4,52.1,185.1,53.7,281.8c3.7,215-3.4,429.6-28.7,643.3
			c-13.5,113.5-36.2,225.4-68.2,335.3c-39.9,137.1-124.8,234.1-256.5,288.9c-126.3,52.5-257,63.1-390.6,34.1
			c-89.5-19.5-170.4-58.1-242.4-114.7c-8.9-7-12.9-6.7-19.1,2.9c-18.8,28.9-41.7,54.5-66.9,77.9c-8.7,8.1-10.4,15.9-8.9,27
			c3.8,28,7,56.1,9.3,84.2c7.6,93.6,8.5,187.5,10.7,281.3c0.3,13.2,4.4,24.6,12,35.2c13.5,18.9,32.3,30.2,53.7,37.9
			c36.6,13.3,74.7,17.4,113.4,18.3c69.4,1.7,138.1-6.2,206.8-14.5c109.2-13.3,218.2-27.2,326.6-46.6
			c144.1-25.8,239.1-107.5,289.7-243.7c22.7-61,40.3-123.4,52.5-187.3c30.4-158.9,50-319.4,69.5-479.9
			C2902.5,1546,2910.6,1373.1,2906.7,1199.6z M847.9,946.3c33-3.2,64-7.1,95.1-8.9c14.8-0.8,19.9-5.7,22.2-20.6
			c10.2-66.5,32-129.3,77.5-179.7c95.5-105.7,215.9-136.8,351-100.9c82.6,21.9,134.5,80,148.6,166.3c9.6,58.6-1.4,114.8-26.3,168.6
			c-3.3,7.2-12.8,14.6-8,22c6.5,10,18.9,8.6,29.9,7.3c4.8-0.6,9.6-1,14.3-1.9c72.2-14.3,137.4-44.2,193.2-92.1
			c50.2-43,90.1-93.6,102-161.2c5.8-32.6,12.8-65,23.5-96.2c8.3-24.2,11.4-48.9,13.4-74.2c5.6-68.1-2.5-135.9-2.9-203.8
			c-0.4-58.3-17-70.9-69.5-86.3c-4.6-1.4-9.3-2.4-14-3.5c-72.8-17.4-146.8-26.3-221.6-27c-65.1-0.6-129.7,2-191.2,28.3
			c-32.2,13.7-67.2,13.4-101.4,7.8c-46.3-7.6-92.5-16-139.6-15.1c-107.2,1.9-213.4,15.1-320.4,29.4c18.1,49.5,19.1,100.2,13,151.4
			c-3,25-6.4,50.1-11.4,74.8c-5,24.6-18.8,44.5-43,58.8c78.5,37.9,103.3,99.3,95.7,178.7C872.2,827.9,870.6,888,847.9,946.3z
			 M658.2,2314.2c22.2,1.2,44.5,2,66.7,3.6c10.2,0.7,18.4-1.6,26.6-8c44.9-34.8,86.3-73.2,121.4-117.9
			c83-105.9,132.5-224,129.9-360.7c-2.6-137.4-74.2-242.3-202-292.6c-104.1-41-212.2-45.1-321.4-26.8
			c-157.4,26.4-279.7,110.1-376.5,234.4c-6,7.7-7.7,15.5-7.2,25c2,45.1,6.6,89.9,15.4,134.3c19.1,96.5,51.5,187.2,109.2,268.3
			c41.5,58.4,96,93.8,165.9,108.9C475.9,2302.1,566.9,2308.9,658.2,2314.2z M2562.9,955.5c-63.6,72.2-63.6,72.4-147.2,92.6
			c-8.1,2-6.9,5.1-5.5,11.3c15.3,65.2-1.6,124.3-38.2,177.7c-38.5,56.3-92.9,93.2-156.4,116.9c-6.1,2.3-14.1,1.5-14.8,12.3
			c-5.2,90.7-26.3,174.3-107.2,232.4c4.4,0.8,6.6,1.3,8.9,1.5c134.4,7.6,245.2-40.8,334.9-140.2c53.2-59,79.3-130.8,99.8-205.5
			C2564,1157.4,2560.1,1057.9,2562.9,955.5z M112.5,2453.1c1,14.6,1.4,27.2,2.9,39.8c6.4,55.1,20.8,107,67.2,142.6
			c45.2,34.6,98.1,43.4,153.6,40.5c73.1-3.8,119.8-42.8,135.7-114.4c13.3-59.9,18.9-121,28.3-181.5c5.1-32.5,4.2-32.6-29.8-36.9
			c-5.4-0.7-10.7-1.5-16-2.8c-9.7-2.3-15.4,0.5-19.2,10.4c-9.3,24.1-22,46.7-35,69c-15.2,26.1-31.2,51.7-61,64.1
			c-43.9,18.3-90.6-2.2-97.3-46.2c-7.6-49.5-4.2-98.8,26-141.9c6.3-8.9,3.5-11.5-3.7-16c-15.9-9.8-31.3-21-42.3-36.2
			c-10.9-14.9-18.6-12.7-27,1.3c-0.9,1.5-2.4,2.7-3.5,4.1C142.9,2309.3,111.3,2375.9,112.5,2453.1z M577.6,2354.4
			c-3.6-0.2-7.4,0.2-10.8-0.8c-14.7-4.2-19.4,2.1-21,16.3c-3.3,30.4-7.6,60.8-12.5,91c-8.2,50.9-10.9,102.9-31,151.3
			c-3.5,8.3,0.3,13.8,4.5,19.7c23.6,32.7,54.1,56.5,92.4,68.8c85.9,27.5,168.5,14.9,248.4-23.3c30.6-14.7,44.7-40,46.1-73.7
			c3.2-75.1,6.9-150.1,10.9-225.1c0.5-10.3-2.3-13.5-12.7-13.6c-31.9-0.1-63.7-0.8-95.6-2c-10-0.4-13.5,2.7-14.3,12.8
			c-2.9,35.9-7.2,71.7-10,107.7c-3.3,41.9-32.9,72-76.9,76.8c-46.8,5.1-80.7-16.4-93.2-58.3c-10.8-35.9-2.9-69.9,7.4-104.2
			c3.9-13,16.2-29.8,9.6-37.9C611.3,2350.7,591.9,2355.5,577.6,2354.4z M668.4,623.3c58.5,10.3,102.4,37.5,126.7,90.7
			c37.2,81.3,8.8,151.7-74.5,182.3c-102,37.5-204.6,73.4-302.8,120.3c-15.7,7.5-31.6,14.9-48.7,18.8c-32.8,7.4-51.6-2.4-64.1-33.6
			c-9.6-24-18.3-48.4-29-71.8c-17.1-37.6-12.8-72.3,10.6-105.6c9-12.8,17.7-25.9,26.5-38.8c-23.5,19.1-46.6,37.1-75.9,45.2
			c-7.5,2.1-9.1,8-10.9,14.8c-19.8,73.4-19.5,147.4-6.9,221.8c10.6,62.8,33.6,78.7,96,66c1.8-0.4,3.5-0.8,5.3-1.3
			c142.2-35.4,279.4-87.1,419.2-130.4c46.1-14.3,74.8-49.1,86.1-96.6c13-54.6,15.8-110.3,19.8-166.2
			C851.6,656.9,758.2,580.2,668.4,623.3z M1242.5,2369.5c9.1,26.1,14,52,9.6,78.7c-9,53.8-40,89.1-92,104.9
			c-49,14.9-94.9,1.3-125-36.8c-25.5-32.2-33.5-69.8-31.5-110.2c0.6-12.8,11.8-29.7,2.8-36.7c-8.9-6.9-26.6-2-40.3-3.3
			c-12.8-1.3-17,2-17.8,16.2c-4.8,82.2-5.4,164.7-13.8,246.7c-1.3,12.3,4.9,15.4,13.4,19.5c94.9,45.5,193.6,53.1,295.3,29.2
			c64.8-15.2,103.4-56.6,115.8-121.3c12.3-63.9-3-124.1-29.3-182.1c-2.9-6.4-6.9-8.8-14-8.4
			C1291.7,2367.4,1267.8,2368.3,1242.5,2369.5z M2696.5,1525.1c1.4-4.5,3-8.9,4.1-13.5c34.8-143.4,58.4-288.6,67.3-435.9
			c5.5-90,10.3-180.2-6.1-269.9c-16.3-88.9-45.2-172.4-104.4-242.1c-83-97.8-192.1-140-318-138.8c-120.9,1.2-216.7,52.2-282.3,155.7
			c-3.2,5.1-7.7,10-7.3,19.4c44.6-39.7,91.5-71.9,143.6-96.3c45.9-21.6,94.3-34.5,144.6-33.7c131.7,2.1,230.3,63.7,297.3,175.4
			c51.9,86.6,71.1,183.5,78.6,282.4c11.7,155.1-5.6,307.4-54,455.6c-2.6,8.1-2.4,14.8,0.8,22.4
			C2676.8,1444.1,2687.9,1483.9,2696.5,1525.1z M1844.9,2041.6c-0.5,7.3,0.2,11.9-1.2,15.6c-5.8,14.5,0.8,22.8,12.1,31.3
			c25.6,19.1,51.5,37.5,79.7,52.6c135.4,72.3,278,88.5,426.3,52.8c164.5-39.5,277.3-134.7,321.9-303.1
			c25.7-97.2,46.4-195.2,59.9-294.8c4.8-35.4,10.1-70.8,11.3-107.6c-2.2,1.2-3.1,1.4-3.2,1.8c-1.5,5.8-3,11.6-4.4,17.5
			c-41.2,167.4-104.9,324.4-210,463c-127.2,167.6-349.3,232.9-546.1,159.6C1937.7,2110.4,1890.5,2079.8,1844.9,2041.6z
			 M2503.4,1818.4c-1.9-48.2-16.3-93.3-32.7-138c-4.4-11.9-7.5-14.6-19.3-6.8c-54.7,36.3-111.9,68.1-172.7,93.1
			c-10.3,4.2-13.4,9.3-11.7,20.2c8.9,57.2,4.5,113.9-7,170.3c-6,29.5,0.6,44.5,30.7,51.4c48.5,11.2,97.9,10.8,140-20.2
			C2487.5,1946.5,2505.2,1886.2,2503.4,1818.4z M1695.5,2252.2c-16.3,10.7-29.7,19.8-43.3,28.4c-25.9,16.2-26,16.1-12.4,43.2
			c22.5,44.9,31.6,90.6,9.5,138.6c-29.2,63.2-136.1,110-197.6,27.6c-22.7-30.5-32.4-65.2-35.2-102.5c-2.2-29.8-2.6-29.5-32.5-25.8
			c-8.5,1-10,3.5-6.8,11.3c5.1,12.2,9.7,24.6,13.4,37.3c22.8,76.8,26.6,152.6-15.1,224.9c-5.9,10.2,0.6,12.3,6.8,16
			c110.4,66.5,267.2,36.6,326.2-117.6c1.7-4.4,2.4-9.4,2.4-14.1C1711.4,2431.1,1704.6,2343.1,1695.5,2252.2z M2262.2,1007.4
			c-37.2,0.1-68.1,11.1-89.1,35.9c-50.3,59.4-79.1,128.3-86.9,205.9c-1,10.4,1.7,14.6,12.3,16.8c25.6,5.4,50.6,14.9,67.7,34.8
			c13.7,15.9,25.9,16.1,42.9,8.5c82.7-36.9,145.8-90.4,161.1-185.7c9.7-60.3-17.8-100.6-77.5-113.3
			C2282.5,1008.1,2272.5,1007.1,2262.2,1007.4z M1153.3,986.6c-12,0-24-0.1-36,0c-11.1,0.1-15.6,1.9-10.9,15.8
			c51.5,153.1,221.9,223.1,372.3,154.1c32.4-14.8,41.7-38.8,42.9-69.6c1.1-27.5-17.4-49.9-44.7-54.5c-59.1-10-118.3-19.7-177.5-28.6
			C1250.9,996.6,1202.9,984.4,1153.3,986.6z M2007.9,1826.1c-9,0-18.2,1.2-27-0.3c-12.2-2-16,2.9-16.7,14.1
			c-4.2,65.4,5.9,128.1,35.1,187.3c5.4,10.9,12.8,18.8,24.5,22.2c26.6,7.8,53.4,14.3,81.2,15.6c41.3,1.9,72.5-14.5,90.2-52.8
			c30.4-65.7,35.4-135.2,30.5-206.2c-1-14.1-4.7-17.5-19.4-12.5C2141.9,1815.3,2075.7,1826,2007.9,1826.1z M2399.3,1003.8
			c42.5,0,78.3-13.8,100.1-39.1c32.3-37.3,43.9-81.9,42.8-130.2c-0.5-19.1-7.6-36.7-19.2-51.6c-19.5-24.9-42.8-46.4-77-41.6
			c-38.5,5.4-74.4,20.3-103.5,46.8c-49.1,44.4-54.3,99.9-37.9,160.4c3.7,13.7,8.7,23.5,24.1,26.7c11.7,2.4,22.8,8.3,31.9,16.1
			C2372.8,1001.7,2386.4,1005.9,2399.3,1003.8z M1938.2,1458.3c0.5,26,4.8,51.3,16.8,74.8c11.6,22.7,30.3,35.2,55.6,37.5
			c39.1,3.6,70.6-11.2,94.6-41.6c35.7-45.3,46.7-99.2,51.4-154.8c1.3-14.9-6-27.8-16.6-38.6c-43.3-43.6-123.9-40.1-162.7,7.3
			C1949.8,1376.5,1938.9,1415.6,1938.2,1458.3z M1865.2,1152c0.9-57.3-30.6-98.6-78.5-110.9c-7.3-1.9-11,0.7-15.4,5.5
			c-14.5,16.2-27,33.9-37.6,52.7c-50.6,90-54.4,182.3-12.7,276.7c5.1,11.6,9.4,13.3,18.5,3.8c16.6-17.4,34.8-33.3,50.5-51.4
			C1835.4,1275.7,1858.5,1213.5,1865.2,1152z M373,667.9c-2.9,0.3-5.9,0.4-8.7,1c-53.8,12.2-82.1-4-98.5-56.5
			c-3.6-11.5-6.5-23.1-7-35.2c-3.3-80.3,34.9-137,102.6-174.8c73.1-40.9,152.2-65.5,235.1-76.8c43.6-5.9,87.4-9.6,130.7,2.7
			c30.7,8.7,44.8,27.1,44.8,59.1c0.1,34.9-0.2,69.7-0.1,104.6c0,25.1-10.9,43.7-32.5,56.3c-13.6,7.9-28.1,13.8-43.3,17.6
			c-27.3,6.9-54.9,12.8-82.3,19.3c-38.1,9.1-76.3,18.2-112.2,34.8c11.3-1.3,22.2-3.8,33.2-6.4c73.7-17,149.1-26.3,221.2-50.3
			c18.3-6.1,30.4-17.5,34.1-36c11.9-59.7,21.3-119.6,10.6-180.7c-4.5-25.5-11.9-33.1-37.4-35.7c-46.7-4.8-93.5-7.8-140.5-7.1
			c-101.1,1.4-195.2,26.5-277.9,86C282,435.1,239,494.6,228.4,573.2c-3.5,25.5-3.1,51.6-4,77.4c-1.6,44.2-2.7,88.3-1.7,132.5
			c0.4,16.6,6.9,16.9,18.8,10.3c17.4-9.7,35-19.7,47.5-35.3C314.7,726.1,336.8,690.7,373,667.9z M1896.9,1413.6
			c4.8-15.4,8.2-28.6,13-41.2c21.2-55.7,57.6-95.6,118-108c12.3-2.5,13.8-8.9,14.5-18.5c4.3-55.4,20.7-107.2,45.9-156.4
			c1.9-3.8,6.9-7.2,3.1-13.2c-60.6,31.9-123.3,37.3-190.6,12.8c7.3,28.3,10.8,54.2,6.7,80.7c-7.7,49.9-23.9,96.7-50.1,139.8
			c-5,8.3-5.6,13.9,0,22.4C1873.7,1356.6,1886.7,1383,1896.9,1413.6z M1863.9,1822.7c-0.5-15.1-2.7-29.8-7.1-44.3
			c-2.6-8.6-6.1-11.8-15.4-9c-108.2,32.8-177.4,103.8-209.2,211.9c-2.9,9.9,0.2,12.5,10.3,11.5c23.9-2.5,47.9-4,71.9-5.8
			C1796.3,1980.8,1865.6,1904.6,1863.9,1822.7z M2634,1462.3c-8,6.9-9.3,15-12.1,22c-23.7,57.9-58.1,107.9-108.3,145.9
			c-9.3,7.1-10.7,12.6-6.2,23.6c20.1,49.1,35.5,99.5,39.9,152.8c1.4,17.3,0.1,34.7,1.4,52.2
			C2639.7,1740.4,2680.4,1611.7,2634,1462.3z M1296.1,655.8c-134.1,2.3-269.3,79.7-297.4,264.6c-1.8,11.8,1.8,14.4,12.8,14.9
			c13,0.5,12.6-7.7,13.8-16.2c13.3-93.7,64.9-161.2,144.6-208.5c73.2-43.4,173.6-32.5,239.2,24.4c63.5,55.1,80.9,137.6,47.1,221.9
			c-1.9,4.8-10.2,11.5,2.1,15.2c8.2,2.5,15.6,8.9,21.8-4.4c11.8-25.8,21.5-52.2,27.3-80c22.5-108.9-30.7-195.9-136.2-222.7
			C1346.5,658.9,1321.5,655.5,1296.1,655.8z M2179.2,981.9c22.8-9.5,43.1-17.8,64.8-17.6c17.1,0.2,17.4-5.9,14.1-20.2
			c-23.6-102.6,21.4-188.5,118.6-228.5c7.8-3.2,15.6-6.3,26.6-10.7c-39.3-12.1-76-15.7-113.3-15.4c-70,0.4-88.8,20.2-86.5,90.1
			C2205.8,847,2204.7,914.1,2179.2,981.9z M1617.5,2405.1c0.2-30.8-14.3-56.4-28.7-82.1c-3.8-6.9-8-5.9-13.3-3.8
			c-34,13.7-69.4,23-105.1,30.7c-5.2,1.1-8.8,2.4-9.2,8.6c-2.7,44.8,4.5,86.2,39.3,118.6c9.8,9.1,21.5,12.8,34.6,12.6
			C1581.5,2489,1618.2,2451.2,1617.5,2405.1z M1125.4,2368.9c0-0.2,0-0.5,0-0.7c-18.7,0-37.3,0.2-56-0.1c-7.4-0.1-12.5,1.3-14.9,9.3
			c-11,37.5-10.2,73.7,12.1,107.3c12.4,18.8,30,29.1,52.9,29.4c34.7,0.4,62.7-12.8,79.2-43.8c16.5-31,13.8-62.5-3.1-93.1
			c-3.8-6.9-8.9-8.6-16.1-8.4C1161.5,2369.1,1143.4,2368.9,1125.4,2368.9z M1738.3,1652c30.2-22,57.9-45.3,82.4-72.6
			c37.3-41.7,49.9-89.1,35.8-143.5c-2.3-8.9-3.9-12.1-13.9-6.5C1770.3,1469.9,1722.5,1569.8,1738.3,1652z M704.6,2361.3
			c-4.8-0.2-9.7,0.2-14.4-0.8c-15.9-3.4-24.1,2.6-28.1,18.5c-5.4,21.5-13.2,42.4-18.8,63.8c-4,15.2-3.9,30.8,1.1,46.2
			c7.2,22,19.7,30.1,43.8,27.9c23.3-2.2,37.6-15.1,39.6-36.4c2.7-28.1,5-56.2,7.5-84.3c0.9-10.7,6.5-24.9,1.7-31.3
			C730.9,2356.4,715.8,2363.1,704.6,2361.3z M1975.9,2075.3c-8-14.3-14.2-23.9-19.1-34.1c-31.4-66.1-41.8-135.9-36.4-208.5
			c0.4-5.3,4.1-13.4-5.6-14c-10.6-0.6-5.9,8.5-6.2,13.2c-3,43.1-17,81.8-42.9,116.5c-7.2,9.7-24,17.1-20.4,28.9
			c3.4,11.2,17,19.5,26.7,28.4C1902.2,2033.3,1935.7,2055.7,1975.9,2075.3z M395.5,2331.5c-22-6.6-43.2-11.3-63.1-19.4
			c-14.8-6.1-22.2-0.7-29.4,10.4c-19.4,29.9-20.5,63.5-19,97.4c1,23.1,15.5,31.8,37.2,23.6c7.3-2.8,13.8-7.4,18.8-13.6
			C363.6,2399.8,380.2,2366,395.5,2331.5z M1832.3,865.9c-20,23.7-40.3,46.1-63.6,65.7c-23.1,19.4-48.2,36-73.5,53.4
			c49.6-1,96.5,7.7,143.5,29.4C1833.2,963.2,1832.8,914.9,1832.3,865.9z M2088.6,2110.2c114.2,22.2,248.6-24.5,277.6-52.8
			c-2.9,0-5.3-0.1-7.7,0c-40.5,1.9-80.7,2.3-115.3-24.2c-9-6.9-9.7,2.7-12.2,6.9c-21.7,36.8-52.7,60.4-95.2,67
			C2121.7,2109.4,2107.2,2109.1,2088.6,2110.2z M620.1,894.9c-5.6-6.3-10.2-11.8-15-17.1c-40.5-44.1-40.5-44.1-92.4-13.9
			c-0.4,0.3-0.7,0.8-1.6,2c11.9,13.1,23.6,26.7,36.2,39.4c10.4,10.5,23.3,11.7,36.7,6C595.3,906.4,606.6,901,620.1,894.9z
			 M600.6,820.2c-1.8,2.2-3.6,4.4-5.3,6.6c13.7,11.6,29.7,21.4,40.7,35.1c15.1,19,30.7,21.7,50.7,10.7c1.6-0.9,3.3-1.6,5-2
			c8.3-2,9.2-5.7,3.9-12.5c-12.8-16.6-25.7-33.2-37.5-50.5c-6.5-9.5-12.6-10.5-22.1-5.1C624.6,809.1,612.4,814.4,600.6,820.2z
			 M474.1,953.5c14.2-5.9,30.9-12.2,47-19.9c6-2.9,0.5-7.1-2.2-9.8c-10.1-10.2-21-19.7-30.5-30.4c-8.6-9.7-16.9-11.5-28.1-4.9
			c-12.3,7.3-34.8,12.5-35.6,20.4c-1.4,13,17.9,21.2,28.1,31.7C457.9,946,462.3,953.3,474.1,953.5z M575.9,794.5
			c15.7-7.8,31.8-15.6,47.6-23.9c4.5-2.3,1.7-5.9,0-9.1c-17.8-33.2-23.8-35.3-56.9-19.2c-2.1,1-4.3,2-6.5,3
			c-24.7,11.6-24.9,11.7-5,31.7C561.3,783.2,565.9,791.4,575.9,794.5z M437.6,802.9c11.5,8.5,21.3,13.2,27.5,20.9
			c11.5,14.3,22,15.3,38.2,6.7c40.8-21.7,41.1-20.7,5.5-51.9c-4.8-4.2-8.4-5.6-14.2-2.8C478.1,783.9,461.5,791.6,437.6,802.9z
			 M446.7,854.7c-0.9-1.5-1.4-3.3-2.6-4.4c-10.3-10-20.6-19.9-31.1-29.7c-2.8-2.6-6.3-3.5-9.9-1.4c-14.2,8.2-38.7,9.5-41.4,23.4
			c-2.3,11.7,17.8,25.9,30.9,34.1c15.4,9.6,26.9-9.8,41.3-13C438.6,862.6,444.3,860.7,446.7,854.7z M602.2,541.6
			c11.2-1.3,18.5-1.3,25.4-3c7.1-1.8,16.5,3.1,21.3-5.9c11.3-21.2,22.4-42.6,34.6-65.7c-13.1,2.4-22.8,4.5-32.7,5.9
			c-7.7,1.2-16.1,0.5-20.2,9C621.4,500.7,612.6,519.6,602.2,541.6z M407.9,556.8c53.1,2.2,69.3-8.1,87.9-55.4
			C453.1,498.1,423.1,516,407.9,556.8z M590.5,484.9c-37.3-2.4-60.8,16.8-79.1,64c15.5-1.3,30.2-2.8,44.9-3.8
			c5.8-0.4,8.2-3.7,10.3-8.3C574.2,520.1,582,503.4,590.5,484.9z M527.9,651.8c-76.2,19.8-154.3,36.3-197.6,113.1
			C384.6,707,457.4,681.5,527.9,651.8z M381.4,927.8c-5.6,0.8-14.5,3.8-18.9,10.4c-4.3,6.4,5,10.8,8.4,15.9
			c5.6,8.4,12.4,16.1,18.1,24.5c4.8,7.1,10.2,8.4,18.3,5.5c29.6-10.7,30-11.4,8-33.9c-5.4-5.6-11.1-10.9-16.6-16.3
			C394.6,930,390.3,926.9,381.4,927.8z M749.4,703.9c-3.2-3.6-7-8.2-11.2-12.4c-19.8-19.8-25.6-20.2-49.4-6.7
			c-5.9,3.4-7.5,5.3-3.9,12c17.3,32.5,22.7,34.5,55,17.3c2.1-1.1,4.2-2.2,6.3-3.4C748.4,709.5,750.1,708,749.4,703.9z M574.3,697.5
			c0.5-8.5-16.3-18-27-14.3c-13,4.4-25.9,9.6-38.5,15c-6.3,2.7-16.9,2.5-16.9,10.9c0,7.5,8.8,12.3,14.4,17.6c2.8,2.7,6.4,3,10.1,1.3
			c17.4-8.1,34.8-16.2,52.1-24.4C571.2,702.3,573.9,700.9,574.3,697.5z M475.8,745.5c-0.7-1.9-0.9-3-1.4-4.1
			c-5.9-13.3-23.4-19.2-36.4-12.2c-8.9,4.8-17.8,9.9-26.6,14.9c-17.5,9.8-17.3,11.2-2.5,24.5c5.6,5,10.4,4.9,16.2,2.2
			c14.6-6.8,29.2-13.7,43.8-20.7C471.3,748.9,473.5,747,475.8,745.5z M442,591.8c-41-1.2-76.5-1.8-89.3,45.6
			C383,624.9,416,621.1,442,591.8z M1283.7,796.1c-10,3.6-12.6,12.3-17.7,18.6c-9.6,11.7-5.7,39.5,9.3,47.1
			c11.6,5.8,13.9-10.7,21.4-16.1c7.3-5.3,7.7-12.3,2.6-20.4C1293.5,816.3,1289.1,806.4,1283.7,796.1z M316.4,565.6
			c43.3-0.3,57.7-10.1,69.4-46.1C344.7,521.4,339.1,525.1,316.4,565.6z M768.8,812c7.5-16.3,7.4-30,6.1-43.7
			c-2.6-29.5-12.3-33.8-36.9-17.1c-5.6,3.8-8.5,7.7-3.3,14.4C745.9,780.2,756.5,795.1,768.8,812z M719.5,394.1
			c-44.8-1.2-58.7,7.6-65.3,41.5C697.1,436.8,707.2,430.4,719.5,394.1z M471.7,468.4c13.7-2.2,26.8-3.4,39.4-6.5
			c14.7-3.6,25.6-12.7,31.3-27.3c2.3-5.8,1.6-8.3-5.6-9.1C510.2,422.5,481,440.8,471.7,468.4z M747,841.4c-1.3-2-3-5.1-5.1-8
			c-12.6-17.4-25.2-34.7-37.8-52.1c-4.7-6.5-10.5-7-17.2-3.2c-3.6,2.1-5.6,4-2.4,8.2c15.5,20.5,30.9,41.2,46.4,61.8
			c3,4,6.7,4.9,10.9,2.5C744.7,849,748.3,847.3,747,841.4z M1232.6,859.2c-5.7,7.5-10,13.3-14.4,18.9c-13.6,17.2-13,27.2,2.2,42.3
			c2.3,2.2,3.9,3.8,7.4,2.4c16.4-6.2,25-28.6,16.6-44.3C1241.1,872.2,1237.1,866.4,1232.6,859.2z M689.7,529.3
			c36.3-3.3,49-19.5,46.1-56.3c-0.4-4.6,3.1-12.2-4.5-13.4c-6.3-1-8.3,5.8-10.8,10.5C710.5,489.2,700.6,508.3,689.7,529.3z
			 M1195.5,800.3c-7.7,9.9-16,19.3-22.7,29.6c-7.8,11.9,3.1,19.7,8.2,28.5c1.4,2.4,3.4,4.2,7.2,2.3
			C1210.7,849.4,1214.9,820,1195.5,800.3z M315.9,859c-0.7,0.1-5.7,1.8-9.3,6.2c-2.2,2.7-0.7,5.6,1.2,8.1
			c7.7,9.9,15.3,19.9,23.2,29.6c8.7,10.6,17.9,4.4,25.2-1.2c10.6-8.1-1.7-11.7-5.1-16.2c-5.1-6.6-11.4-12.2-17.5-17.9
			C329.8,864,327.3,858.3,315.9,859z M376.9,482.6c28.9,1.9,50-8.6,59.6-27.5c4.8-9.5,2-11.6-7.4-10.5
			C405.4,447.4,387.6,458.3,376.9,482.6z M1324.1,742.8c-14.1,11-19.6,22.2-10.5,37.1c3.1,5.1,6.2,10.3,8.4,15.9
			c4.7,12,10.1,11.2,17.7,2.3c5.7-6.7,8-12.9,3.2-21.1C1336.6,766.2,1330.8,755.1,1324.1,742.8z M1321.7,869.6
			c-5.2,5.9-9.5,10.6-13.8,15.4c-10.9,12.4-9.1,30.1,3.9,40.5c2,1.6,3.4,2.2,6,1.1c14.2-6,21.4-25.3,14.2-38.8
			C1329,882.3,1325.8,876.9,1321.7,869.6z M1249.7,735.5c-9.9,8.1-17.4,18.2-23.6,29.1c-5.8,10.4,2.1,18,7,26.1
			c1.8,3,3.7,3.6,7.2,1.6C1260.9,780.4,1265.2,756.5,1249.7,735.5z M1177.3,763.9c-3.4-4.1-2.9-15.6-15.1-8.5
			c-9.9,5.8-18.5,13.2-26,22c-4.7,5.6-2.3,10.1,1.5,14.3c3.4,3.8,4.8,10.2,11.3,10.4C1151.9,802.1,1177.2,768.9,1177.3,763.9z
			 M576.3,449.3c23.2,1.8,37.7-7.4,44.9-26.9c4.3-11.7-0.9-12.1-9.8-10.7C593.7,414.4,580.2,428.8,576.3,449.3z M1365.4,822.7
			c-7.9,5-14.8,9.7-16.5,18.6c-1.2,6.3,13.4,33.6,16.5,31.9c7.7-4.3,16.8-9.8,16-19.6C1380.5,841.8,1373.4,831.9,1365.4,822.7z
			 M523.6,393c23.5-7.1,51.1,1.4,62.2-30.6C560.3,364.2,536.7,364,523.6,393z M1146.2,914.3c7-5.8,14.8-11.1,13.8-20.1
			c-1.2-10.6-6.7-23.3-16.2-25.3c-6.8-1.4-17.5,10.7-16.1,19.7C1129.2,898.3,1136.9,907.2,1146.2,914.3z M674.3,743.2
			c0.5-4.5-24.6-37.1-28.8-36.5c-6.5,0.9-17.1,1.5-12.2,11.4c5.4,10.9,14.8,19.9,22.3,29.8c3.9,5,8.4,3.1,12.8,1.2
			C671.1,748,674.2,747,674.3,743.2z M1123,832.4c-3.5-8.4-8.6-20.4-15.6-19.7c-9.8,0.9-16.1,12.2-15.5,23c0.5,8.2,5.9,19.8,13.6,18
			C1113.2,852,1120.4,842.4,1123,832.4z M1408.8,826.5c18.5-14.3,18.9-17.9,3.7-37.6c-3.2-4.2-5.7-12.5-13.4-7.1
			c-6.1,4.3-9.7,10.6-5.2,18.6C1398.9,809,1403.8,817.7,1408.8,826.5z M1402.3,889.8c-20.4,14.1-22,19.1-12.7,34.9
			c3.2,5.4,5.5,8.8,12.1,4.1C1415.4,918.7,1415.9,912.1,1402.3,889.8z M328.8,956.5c-1.4,0.7-2.8,1.4-4.2,2.2
			c5.1,12.5,9.8,25.2,15.3,37.6c3.6,8,11.2,10.5,17.8,5.5c6.9-5.2-1.5-9.2-4.1-12.8C345.7,977.8,337.1,967.3,328.8,956.5z
			 M330.3,602.9c-11.4-0.5-24.1-8.2-29.3,3.8c-3.4,7.8,3.6,15.4,11,22.1C318.2,619.8,324.2,611.3,330.3,602.9z M341.8,805.9
			c0.5,0.8,1.1,1.6,1.6,2.4c9.5-4.2,19.1-8.3,28.4-12.8c3.8-1.8,10.8-3,6.2-9.7c-3.4-5-8.5-9.3-14.6-3.1
			C356,790.3,349,798.2,341.8,805.9z M625,673.6c-3.3-4.7-5.4-11.4-12.4-10.9c-5.3,0.3-14.1-0.9-14.2,6.5
			c-0.1,5.6,4.6,12.3,12.2,13.2C617,683.2,621.6,679.8,625,673.6z M1917.3,1559.4c-5-12.4-9.2-22.7-13.5-33.4
			C1889.3,1549.3,1889.8,1550.6,1917.3,1559.4z M1084.6,938c13.2,0.7,22.5,1.3,34.7,2c-6.6-9.1-9.6-17.3-17.5-22.8
			C1096.6,923.3,1091.8,929.2,1084.6,938z M310.9,494.7c21.9-8.2,26.6-13.3,31.9-32.1C325.9,465.7,322.1,480.9,310.9,494.7z
			 M437.1,406.6c27.1-0.5,32.8-3,41.5-18C464.4,393.2,451.3,396,437.1,406.6z M623.9,374.6c11.9-1.6,21.7-2.4,24.6-14.1
			c1.1-4.4-2.6-4.4-5.6-4.6C630.7,354.9,626.4,362.4,623.9,374.6z M1064.9,904.7c7.2-3.1,10.4-9.8,14.3-15.6
			c3.6-5.4,0.3-9.7-4.3-11.7c-4.5-1.9-5.9,2.7-6.8,6.1C1066.5,890.4,1062.2,896.8,1064.9,904.7z"/>
		<path class="st0" d="M392.3,1910.3c0.2-86.6,69.5-155.8,155.8-155.6c87.6,0.2,157.6,70,157.1,156.5
			c-0.5,86.3-69.8,155.6-156.2,156C462.2,2067.6,392.2,1997.5,392.3,1910.3z M547.3,2022.4c63.3,0.6,112.7-47.8,113.2-110.8
			c0.5-62.3-49.4-112.9-111.6-113.1c-61-0.2-111.7,49.5-112.8,110.7C435.1,1971.2,484.6,2021.7,547.3,2022.4z"/>
	</g>
</g>
</svg>
