<?xml version="1.0" encoding="utf-8"?>
<!-- Generator: Adobe Illustrator 23.0.0, SVG Export Plug-In . SVG Version: 6.00 Build 0)  -->
<svg version="1.0" xmlns="http://www.w3.org/2000/svg" xmlns:xlink="http://www.w3.org/1999/xlink" x="0px" y="0px"
	 viewBox="0 0 3000 3000" style="enable-background:new 0 0 3000 3000;" xml:space="preserve">
<style type="text/css">
	.st0{stroke:#000000;stroke-width:10;stroke-miterlimit:10;}
</style>
<g id="Layer_1">
</g>
<g id="Layer_2">
	<g>
		<path class="st0" d="M1668.8,2788.6c-207.1,11.7-414.2,23.2-621.8,16.4c-154.2-5.1-307.7-17.2-456.5-62.4
			c-294.3-89.4-466.7-287.8-524.2-588.4C42,2027,36.1,1898.4,39.9,1769.3c3.5-117.1,0.9-234.5,20.1-350.9
			c22.8-138.2,72.3-261.3,189.6-347.3c19-14,3.1-21.1-3.6-29.1c-70.8-84-120-179-136.3-287.9C84,581.9,111.4,422.9,243.4,296.7
			c80.3-76.8,180.1-117.8,288-134.6c238.2-37.1,476.6-39.8,713.3,13.8c45.4,10.3,88.9,27.1,129.9,49.6c9.6,5.3,18.1,7.7,29.9,4.8
			c274.3-69.3,554-74.4,834.5-68.7c138.5,2.8,277.4,6,413.1,37.7c108.7,25.4,196.1,86.2,265.7,172.3c42.9,53.1,61.6,116.4,62,183.9
			c0.5,83.4-4.7,166.7-18.6,249c-18.5,108.7-82.9,183.5-179.8,231.5c-19.5,9.7-21.7,14.3-5.6,30.2
			c79.8,79.3,111.2,181.6,134.7,287.7c42.5,191.8,47.4,386,40,581.2c-7.2,191.3-43.6,376.4-115.3,554.3c-3.3,8.1-7.1,15.9-10.2,24
			c-62.6,160-183,237.6-351.3,251.9c-161.6,13.7-323.5,10.8-485.3,14.9c-106.5,2.7-213.1,0.5-319.7,0.5
			C1668.8,2783.2,1668.8,2785.9,1668.8,2788.6z M2096.1,885.6c6.5,3.1,8.1,4.4,9.9,4.6c257.4,37.4,433,177.1,520.3,422.5
			c50.6,142.2,51.8,289.2,22.3,436c-49.1,243.6-164.9,447.4-366.9,597.3c-114.5,85-245.3,135.3-381.6,172.3
			c-166.9,45.3-335.7,72.5-508,36.1c-157.5-33.3-270.1-120.8-320.7-278.7c-23.1-72.1-30.2-145.9-23.8-221
			c1.8-20.6-1.8-32.7-21.1-44.1c-224.3-132.1-357.5-527.4-71-784.3c175.7-157.6,382.5-212.7,614.4-179.2c58,8.4,60.3,7.2,58-52.3
			c-2.3-59.8-35.7-95.2-93.2-97.7c-138.9-6-277,4.6-414.7,20.8c-143.2,16.9-285.8,38.7-429.1,54.7c-129.2,14.4-253,42-367.1,108.6
			c-86.8,50.7-147.9,119.9-182.3,213.9c-35.8,97.8-45.5,199.8-49.1,302.7c-6.6,190.8-13.8,381.8,26.1,570.5
			c45.1,213.1,157.2,376.7,354.3,476.4c112.1,56.7,233.2,82,356.9,96.2c209.7,24.1,419.9,21.1,630.1,9.9
			c217.8-11.6,435.7-19.2,653.8-21.4c128.9-1.3,257.7-2.1,386.1-17.2c123.4-14.5,214.6-73,266.3-187.9
			c14.3-31.7,28.6-63.6,40.6-96.2c60.8-165,90-335.8,96-511.4c7.4-216-1.9-429.9-61.8-639.3c-30.7-107.3-91.7-190.9-189.5-246.5
			c-92.5-52.6-191.7-87.2-295-111.1C2272.3,900.4,2187.4,887.9,2096.1,885.6z M1442.9,271.5c57.2,53.9,85.3,116.8,90.1,190.4
			c7.7,119.7,1.3,238.4-29.8,354.6c-7.4,27.7,0.5,32.2,25.6,32.2c42,0,80.9,12.6,110,44.3c12.6,13.7,23,15.5,39.9,9.9
			c171.5-57,347.3-78.9,527.2-58c173.8,20.2,340.1,65.3,491.1,157.3c7.3,4.5,14,10.2,24,6.6c67.3-24.2,123.6-62.2,161.6-126.9
			c-6-1.4-9.6-2.6-13.2-3.1c-179.2-25-358.4-50-537.7-74.8c-145.7-20.1-291.3-40.6-437.1-59.3c-26.9-3.4-21.5-16.9-20.4-34.6
			c1.5-23.6,15.7-16.5,28.4-14.8c134.2,18.6,268.3,37.4,402.4,56c175.4,24.2,350.9,47.4,526.2,72.6c79.1,11.4,78.3,13,88.2-65.7
			c2.1-16.7-1.8-22.2-18.3-24.1c-49-5.6-97.9-12.6-146.7-19.3c-163.9-22.5-327.8-45.3-491.7-67.8c-103.5-14.2-207-28.9-310.7-41.7
			c-27.3-3.4-18.7-19.9-18.6-35.1c0.2-21.6,14.1-15.7,26.4-14c36.4,5.1,72.9,10,109.3,15c146.7,20.1,293.3,40,440,60.3
			c131.3,18.1,262.7,36.3,393.9,55.1c17.3,2.5,24.9-1.1,25-20.2c0.2-29,1.6-58.2,5-87c3-25.3-7.2-33.7-31.3-36.1
			c-113.7-11-227.2-23.5-340.9-35.2c-210.9-21.8-421.8-43.6-632.7-65.1c-17.2-1.8-26.6-5.9-22.7-26.6c3.3-17.7,6.3-25.7,28.4-23.1
			c120.2,14.1,240.6,25.7,361,38.3c157.9,16.6,315.8,33.3,473.7,49.8c50.8,5.3,101.6,10.2,154.5,15.5c-5.8-32.7-16.5-59.5-34-83
			c-63-84.4-145.1-141.9-247.4-167.7c-74.4-18.7-150.9-24.6-227.3-29.6c-153-10.1-306.1-8.2-459.3-5.9
			C1783.9,213.3,1614.7,230.8,1442.9,271.5z M868.9,186.3c-124.4-0.2-230.9,2-335.8,24.4c-96,20.5-186.4,53.4-258.8,122.8
			c-81.9,78.4-117,176.8-123.4,288.8c-8.7,152.7,42.4,282.7,139.3,397.8c13,15.4,22.9,13.8,38.6,4.9
			c55.7-31.7,114.5-56.1,177.1-71.1c94.4-22.7,191.4-27.6,287-41.7c207.9-30.5,416-59,626.4-64.6c22.1-0.6,29.3-9.1,34.6-28.9
			c31.3-117.4,38-236.9,30.5-357.3c-3.7-60-27-112.4-73.8-152.8c-46.6-40.1-101.4-63.7-159.4-80.7
			C1120.4,189.9,986.1,185.3,868.9,186.3z M1675.1,1167.4c85.9,1,169.5,13.2,249.1,47.6c278.6,120.3,284.8,433.8,118.2,593.9
			c-47.3,45.5-101,81.4-161.3,107.1c-173.6,74.1-353,91.2-537.7,53.9c-108.2-21.8-211.7-55.8-301.1-123.3
			c-64.2-48.6-110.4-110.6-119.6-192c-13.9-122.3,25.6-229.6,105.2-321.7c61.4-71,137.9-104.4,234.2-94.9
			c70.2,6.9,141.3,5.2,212,7.2c45,1.2,82-14.1,105-54.5c15.3-26.9,26.7-55.6,32.3-88.3c-19.8-2.9-38.7-5.9-57.8-8.4
			c-197.3-25.4-377.2,15.4-534.3,141.7c-137.2,110.2-203.1,250.4-169.6,426.8c39.1,205.8,172.2,335.3,382,374.6
			c136.9,25.6,275.5,25.1,414.1,18.2c254.9-12.5,483.7-179.7,569.9-419.4c42.5-118.2,28.9-231.2-56.7-326.1
			C2027.9,1164.1,1859.8,1133.9,1675.1,1167.4z M1534,1795.4c115.3-3,240.2-43.9,334.3-156.7c97.7-117.1,92.4-278.4-13.4-388.6
			c-6.8-7.1-13.9-13.2-23.9-15.6c-29.3-6.9-58.9-11.3-88.9-13.5c-17.6-1.3-18.5,5.4-15.7,20.3c4.5,23.7,9,48,8.4,72
			c-2,88.1-34.2,154.1-142.3,148.5c-58.2-3-92.2-32-96.1-90.3c-1.3-20.2,0.3-40.7,0.4-61c0.1-8.7,1.2-16.7-12.3-17.8
			c-69.3-6-132.9,0.2-187.2,53.5c-52.2,51.2-84.4,110.7-95.7,181.4c-18.1,112.7,27.5,192.2,132.8,236.1
			C1390,1786.7,1448.1,1795.5,1534,1795.4z M1673.8,999.9c13.2,8,20.5,2.8,27.3,1c157.4-41.9,312.4-31.7,464.3,23.7
			c163.9,59.9,285.9,164.9,344.7,333.7c46,131.9,45.9,266.9,15.9,401.5c-62.8,282.1-216.8,494.1-486,612.4
			c-177.2,77.9-362.7,100.8-554,70.9c-92.3-14.4-182.9-35.5-259.9-93.1c-63.3-47.4-92.4-110.3-83.8-189.6
			c2.7-25.2,9.9-49.4,19.7-72.6c4.2-9.9,4.4-16.3-7.2-19.9c-19.1-6-38.1-12.3-57.9-18.8c-4.7,36.1-3.7,70.1-0.6,103.8
			c15.9,176.6,104.1,305.4,290.2,350.5c122,29.6,244.5,22.4,366.3-1.2c177.1-34.2,351.2-81.8,496.1-193.7
			c288.9-223,405.3-522.4,355.6-880.8c-29.3-211.3-149.2-366.3-349.1-448.8C2061.7,898.9,1869.1,929.7,1673.8,999.9z M1002,1729.4
			c23.3,43.8,70.7,89.9,134.4,119.6c251.7,117.6,505.5,126.9,758.9,5.6c70.8-33.9,131.1-83,169.9-153.5
			c26.6-48.5,40.5-100.4,37.3-159.7c-41.4,21.7-77.9,21.8-112.3-5.1c-16-12.6-14.6,3.2-17.1,10.7c-22.7,67.7-60.7,125.6-114.8,171.8
			c-138.6,118.3-299.3,146.7-473.7,110.9c-78.8-16.1-147.9-51.4-196.1-119.5c-14.6-20.6-22.2-44.7-33.5-70.2
			C1128.6,1727.3,1093.3,1747.7,1002,1729.4z M1289.5,1290.5c-94.2-14.6-151,0.9-206.6,54.6c-63,60.9-115,170.6-107.6,231.5
			c23.9-30.3,54.8-39.6,89.6-36.4c37.5,3.4,60.8,28.3,83.7,64.4C1148.1,1474.2,1188.2,1369.1,1289.5,1290.5z M1544.3,1321.7
			c0,21.6-1.1,35.3,0.3,48.7c1.4,13.5,5,27.3,17,35.7c33.6,23.5,102.5,2.3,115.6-36.3c15.1-44.8,8.6-89.9-1.3-134.8
			c-2.2-10.1-8.6-12.2-18.7-13.6c-35.4-4.9-52,22.9-76.6,38.4C1552.3,1277.5,1538.7,1297.1,1544.3,1321.7z M1983.8,2164
			c-22.1-12.2-33.9,4.9-44.7,27.3c-10.4,21.7-22.7,42.5-34.8,63.2c-7.3,12.5-8.8,19.5,9.3,23.2c44.2,9.2,88.1,20.3,131.9,31.1
			c18.1,4.5,24.5-4.5,26.9-20.5c4.8-31.4,9.3-62.9,15.6-94c2.8-14-1-19.5-14.6-20.8C2045.7,2170.9,2017.9,2167.7,1983.8,2164z
			 M1817,2305c-34.3-7.9-68.8-15.9-103.3-23.8c-5.9-1.4-11.5-0.6-15.9,4.3c-20.3,22.7-40.5,45.4-63.2,70.9
			c20.9,5.3,37.7,9.5,54.3,13.7c27.7,7.1,60,28.2,82,15.8c21.6-12.1,30.3-47.3,44.5-72.4C1816.4,2312,1816.2,2309.8,1817,2305z
			 M1903.1,2156.2c-18.5-2.6-32.7-5-47-6.4c-12.3-1.3-27.5-7.5-36.4,1.4c-26.5,26.6-50.7,55.6-77.7,85.7
			c32.1,7.8,58.2,14.2,84.3,20.6c11,2.7,20,2.8,26.5-9.8C1868.2,2217.9,1885,2188.9,1903.1,2156.2z M1649.6,2265.9
			c-31.1-5.7-60.2-25.2-84.2-14.5c-29.6,13.3-52.7,41.1-82.5,65.8c31.3,8.4,55.3,14.9,79.3,21.2c10.6,2.8,20.2,3.8,28.7-6.3
			C1609,2310.9,1627.8,2290.4,1649.6,2265.9z M1051.5,1688.2c28.8,0.2,49.7-19.6,50.5-47.8c0.8-30-19.7-51.4-49.5-51.6
			c-28.6-0.2-50,20-50.7,47.7C1001.1,1666.3,1022,1688,1051.5,1688.2z M2277.8,1934.2c0.2,47.9,0.2,47.9,42.6,43.2
			c13.4-1.5,26.9-4.4,40.3-3.9c21.6,0.7,24.7-8.9,18.2-26.5c-2-5.4-3.2-11.1-4.8-16.7c-14-46.6-13.8-45.2-61.1-36.4
			C2285.7,1899,2268.9,1907.7,2277.8,1934.2z M2229.9,2088.8c0-13.5,0-27,0-40.5c0-7.8-2.4-11.4-11.5-12.5
			c-45.2-5.3-57.2,3.5-63.7,49c-0.8,5.7-0.7,11.8-2.6,17.1c-8.7,24.8-1.2,34,25.9,34.8C2230.1,2138.3,2230,2139.8,2229.9,2088.8z
			 M2072.5,2124.6c9.1-2.8,24.3,9,28.2-9.2c4-18.8,5.8-38.1,8.7-57.2c0.8-5.2,0.4-10.9-6-10.4c-27.9,2.1-56.5,1.8-83.3,8.8
			c-16.6,4.3-19,27.4-28.5,41.6c-9.4,14.1-2.6,18.4,11.1,19.6C2025.7,2119.7,2048.7,2122.2,2072.5,2124.6z M1377.1,2203.3
			c-75.5-23-116.7-11.4-161.4,41.6C1282.4,2290.3,1324.8,2237.7,1377.1,2203.3z M2459.6,1443.2c-15.2-11.7-28.5-20-39.5-30.7
			c-37.8-36.7-37.3-36.7-78.9-4.8c-8.3,6.4-10.2,10.6-4.5,20.4c33.3,57.7,34.9,58.5,94.1,30.3
			C2437.6,1455.1,2444.3,1451.3,2459.6,1443.2z M2278.5,2137.3c39.5-32.6,67.5-70.9,94.5-115.8c-29.2,2.4-53,4.3-76.8,6.3
			c-10.8,0.9-18,4.5-17.8,17.5C2278.8,2075.9,2278.5,2106.6,2278.5,2137.3z M1508.8,2231.6c-34.2-3.6-59.2-23.4-86.2,0.2
			c-21,18.3-48.1,29.1-70.6,51.7c17.5,4.6,31.2,8.4,45,11.8c11.8,2.9,23.9,9.7,35.6,0.1C1456.1,2276,1479.3,2256.3,1508.8,2231.6z
			 M1759.5,2143c-51.5-14.6-109.7,14.4-137.3,66c17,4.2,33.9,8,50.6,12.6c9.4,2.6,16.6,1.2,23.2-6.5
			C1716.2,2191.6,1736.8,2168.6,1759.5,2143z M2465.5,1700c-30.1-62-31.5-62.6-91.6-41.6c-4.5,1.6-9,3.5-13.7,4.5
			c-17.4,3.8-12.1,16.9-7,24.2c7.5,10.9-3.4,36.7,22.1,32.6C2405.6,1714.9,2435.2,1706.8,2465.5,1700z M2139.9,1150.3
			c12.1,6,22.4,11.2,32.7,16.2c19.8,9.6,77.5-13.4,80.4-37.7c2.5-20.5-26.4-21.2-40.5-31.7c-9.6-7.1-17.8-2.5-25.3,5.3
			C2172.6,1117.7,2157.5,1132.5,2139.9,1150.3z M2490.4,1485.4c-21.1,9.3-38.2,18.4-56.3,24.4c-26.8,8.8-30,21.9-10.3,41
			c10.1,9.7,10.8,30.5,32.9,26.5c36.8-6.7,43.1-14.2,39.1-51.5C2494.5,1513.3,2492.5,1501,2490.4,1485.4z M1936.4,1275.6
			c17.6,35.8,33.3,62.7,38.9,93.3c4.3,23.9,9.4,39.2,36.9,18.7c9.8-7.3,24.9-7.3,40.2-11.4
			C2023.2,1334.8,1987.3,1303.3,1936.4,1275.6z M2479.4,1747.9c-31.9,6.7-59.9,12.4-87.7,18.7c-5,1.1-13.5,1.9-11.5,9.7
			c4.4,17.1,3.3,38.5,19.6,48.6c13.2,8.2,64.6-16,68.3-29.1C2472,1781.2,2475,1766.4,2479.4,1747.9z M2047,1427.9
			c-22.6,0.7-39.6,18.7-39,41.5c0.5,23.2,17.5,39,41.2,38.5c22.9-0.5,40.4-18.4,39.7-40.6C2088.2,1445.8,2068.5,1427.2,2047,1427.9z
			 M1504.4,2114.1c-54.3-15-103.1-13.1-141.4,31C1418.6,2178.1,1463.2,2157.3,1504.4,2114.1z M2149.8,1070.2
			c-23.7-7.7-41.8-14.2-60.3-19.3c-12.6-3.5-53.8,37.4-50.6,49.4c2.9,10.8,51.7,27.4,60.4,19.5
			C2115.5,1105,2130.7,1089.1,2149.8,1070.2z M2233.7,2191.6c-30.9-3.5-54.5-6.4-78.2-8.6c-7.2-0.7-16.2-2.4-18.1,8.9
			c-4.1,25.3-8.1,50.6-13.1,81.7C2164.2,2248.3,2197.6,2224.6,2233.7,2191.6z M1980.2,2343c-19.9-4.3-32.6-6.9-45.2-9.8
			c-68.1-15.8-68.1-15.8-99.3,45.8c-0.6,1.2,0.3,3.3,0.8,6.6C1883.5,2376.4,1929.4,2364.8,1980.2,2343z M2394.6,1316.1
			c9.9-6.3,22.3-9.9,27-18c9.7-16.8-7.6-27.4-15.8-38.4c-9.3-12.6-13.4-37-34.1-32.4c-33.8,7.4-38.7,30.1-15,53.8
			c8.9,8.8,17.6,17.8,26.7,26.4C2386.7,1310.6,2390.7,1313.1,2394.6,1316.1z M1505.5,2179.5c19.5,2.4,37.3,21.6,56.6,7.3
			c23.7-17.6,45.3-38,69.8-58.8C1571.9,2108.5,1545.3,2158.6,1505.5,2179.5z M2306.5,1372.5c11.1-11.9,33.5-12.2,39-32.3
			c1.3-4.8-52.5-53.9-55.7-51.8c-11.3,7.9-26.6,12.7-29.9,27.9C2258.2,1324.8,2299.1,1373.3,2306.5,1372.5z M2231.5,1948.6
			c-7.2-10.4,8.5-29.6-11.5-32.4c-12.8-1.8-32.3-1.3-37.9,13.4c-6.6,17.5-13.1,39.9-7.4,55.7c4.8,13.2,27.7,2.7,42.2,0.6
			C2242.6,1982.1,2223.8,1960.6,2231.5,1948.6z M2277.4,1822.4c5.7,7.3-10.4,29.3,11.2,26.4c18.5-2.4,47.5,2.6,53.1-19.7
			c3.1-12,2.5-42.5-21.9-46.3C2290.1,1778.3,2277.3,1792.2,2277.4,1822.4z M2049.8,2000.4c65.2,3,75-3.8,78.6-51.3
			c0.9-11.3-1.8-12.6-12.2-11.9C2080.6,1939.5,2064.1,1954.6,2049.8,2000.4z M1752.8,1106.6c32.4-5.1,63.9,11.2,80-24.3
			c3.5-7.8,16.1-17.7-1-21.7c-15.4-3.7-28.3-31.1-46.6-8.9C1773.2,1066.1,1765.7,1084.3,1752.8,1106.6z M2392.7,1597.5
			c0.4-11.6-32.8-52.3-38.6-49.6c-12.8,6-35.3,5.8-34.2,23.4c1,15.6,0.9,42.3,20.5,44.5C2357.5,1617.8,2378,1608,2392.7,1597.5z
			 M1330.4,2101.7c-36.5-5.8-69.7-10.9-102.9-16.6c-12.1-2.1-14.6,6.4-17.9,14.4c-2.2,5.3-4,9.1,3.7,13.5
			C1246.6,2132.3,1297.1,2129.1,1330.4,2101.7z M2248.7,1199.4c27.2,23.8,52.5,28.3,76.8-0.1c5-5.8,23.5-8.9,9.3-19.8
			c-11.5-8.8-19.1-33.9-40.7-19C2277.9,1171.7,2263.9,1186.2,2248.7,1199.4z M1949.6,1026c-17-3.1-32,11.9-24.5,19.2
			c15.5,15.2,38.5,25.6,60.1,30.6c13.9,3.2,19.5-18,28.8-28.2c9-9.8,3.8-15.4-7.8-16.5C1987.2,1029.2,1968.2,1027.6,1949.6,1026z
			 M1541.4,2385.1c-115.4-32.5-107.2-36.9-125.1-6.3C1486.4,2400,1520.9,2402.4,1541.4,2385.1z M1868.8,2098.8
			c55,18.5,67.6,12.9,82.6-37.6C1918.3,2062.4,1884.7,2060.7,1868.8,2098.8z M1731.7,1044.3c-15.1,3.5-24.3,5.3-33.3,7.8
			c-23.4,6.5-41.5,34.8-38.4,58.1c0.9,6.6,4.1,8.1,9.4,6.9c10.9-2.5,22.9-2.4,29.4-14.7C1708.2,1084.7,1718.5,1067.5,1731.7,1044.3z
			 M2230.7,1834.9c-6.5-8.8,9.6-26.8-10.5-29.6c-22.6-3.2-21.4,16.6-24.5,31.1c-0.8,3.7-1.2,7.7-0.8,11.4c0.7,6.7-9.2,15.8,2.2,19.6
			c10.3,3.4,22.7,0.3,29.5-7C2231.4,1855.5,2229.5,1844.3,2230.7,1834.9z M2243.8,1256.6c-18.8-7.4-35.2-31.6-56.7-6.5
			c-13.5,15.8,5.2,24.2,12.3,28.7C2222.9,1293.6,2228.3,1264.6,2243.8,1256.6z M1279.1,2322.6c48.5,38.4,72.4,42.3,96.2,17.2
			C1344.5,2335,1317.6,2319.9,1279.1,2322.6z M2276.7,1718.5c5.4,5-8.1,22.9,11.3,20.3c8.1-1.1,28.3,3.9,23.3-15.5
			c-3.2-12.5,2.3-34-19.5-34.8C2272.2,1687.7,2278.1,1704.8,2276.7,1718.5z M2282.9,1436.8c2.5,29.3,11.1,47.5,16,66.6
			c3.6,13.9,10.1,9.7,19,6.1c10.3-4.1,10.7-9.2,4.8-17.2C2310.9,1476.2,2299.5,1459.9,2282.9,1436.8z M1876.3,1109.8
			c27.1,5.3,52,10.1,82.7,16C1910.1,1088,1891.3,1084.4,1876.3,1109.8z M2444.5,1870.2c-40.3,0.8-41.8,4.8-19.2,48.7
			C2432,1902.1,2437.7,1887.4,2444.5,1870.2z M2459.9,1392.6c7.4-19.1,0.1-29.6-3.5-41.2c-2.7-8.8-7.4-12.5-16.7-6.3
			c-8.7,5.9-8.2,10.2-1.3,17.7C2446.5,1371.8,2452.8,1382.6,2459.9,1392.6z M1228.8,2169.5c-41-14.2-41.3-14-37.6,24.8
			C1205.8,2188.9,1217.4,2180.6,1228.8,2169.5z"/>
		<path class="st0" d="M915.9,880.3c-147.4,0-267.2-120.2-267.5-268.3c-0.3-145.3,119.8-269.5,260.8-269.7
			c158.9-0.3,279.8,116.5,279.6,269.9C1188.6,762.9,1069.1,880.4,915.9,880.3z M918.3,833.1c122.2,0.2,222.8-99.9,222.7-221.5
			c-0.1-121.2-99-220.4-220-220.6c-124.5-0.2-222.5,95.9-223.6,219.3C696.4,732.6,795.7,832.8,918.3,833.1z"/>
		<path class="st0" d="M1258.3,1574.6c0.1-48.9,37.1-86.6,85.4-87.3c48.3-0.7,89.4,39.9,89.1,88.1c-0.2,47-39.8,86.8-87,87.5
			C1296.9,1663.5,1258.2,1624.6,1258.3,1574.6z M1305.6,1574.8c-0.1,21.3,17.3,38.6,38.8,38.7c22.7,0.1,37.9-15.3,37.9-38.4
			c0.1-23.5-14.3-38.1-37.6-38.1C1322.5,1537,1305.7,1553.2,1305.6,1574.8z"/>
		<path class="st0" d="M1811.3,1574.7c0.1,49.6-39.3,88.9-88.2,88.1c-47.9-0.8-86.2-39.7-86.4-87.6c-0.1-49,40-88.8,88.8-87.9
			C1773.7,1488.1,1811.2,1526.3,1811.3,1574.7z M1723.3,1613.5c21.6,0.3,38.9-15.8,39.9-36.9c1-22.5-16.3-39.8-39.5-39.5
			c-22.5,0.2-37.7,15.4-37.8,37.8C1685.8,1597,1701.5,1613.2,1723.3,1613.5z"/>
		<path class="st0" d="M763.2,623.9c0-86.3,70.9-156.6,157.5-156.2c87.7,0.4,158,71.8,157.6,160.1c-0.4,86.6-70.6,157-157.2,157.6
			C832.5,786.1,763.2,715.2,763.2,623.9z M810.6,625.5c-0.4,62.1,47.9,110.6,110,110.5c60.8-0.2,108.6-47.6,109.2-108.4
			c0.6-61.8-48.1-110.7-110-110.5C858.9,517.3,811.1,564.9,810.6,625.5z"/>
	</g>
</g>
</svg>
