<?xml version="1.0" encoding="utf-8"?>
<!-- Generator: Adobe Illustrator 23.0.0, SVG Export Plug-In . SVG Version: 6.00 Build 0)  -->
<svg version="1.0" xmlns="http://www.w3.org/2000/svg" xmlns:xlink="http://www.w3.org/1999/xlink" x="0px" y="0px"
	 viewBox="0 0 3000 3000" style="enable-background:new 0 0 3000 3000;" xml:space="preserve">
<style type="text/css">
	.st0{stroke:#000000;stroke-width:10;stroke-miterlimit:10;}
</style>
<g id="Layer_1">
</g>
<g id="Layer_2">
	<g>
		<path class="st0" d="M433.4,1067.5c-56-31.5-104.3-70.4-140.1-123.4c-63.9-94.5-68.3-193.9-19.2-294.7
			c68.2-140.1,252.2-290.5,479.4-264.8c40.3,4.6,79.6,12.1,118.2,24.5c7.3,2.3,14.2,6.3,21-3.5c76.1-109.6,188.8-167.2,308.5-213.8
			c88.2-34.3,180.7-52.1,273.8-66.7c168.4-26.4,337.2-45.8,508.2-37.6c144.9,6.9,287.5,26.9,428.2,63.6
			c155.6,40.6,242.3,140.1,272.7,295.1c32,162.7,54.2,326.4,60.9,492.1c4.7,116.4,10.3,232.7,3.7,349.1
			c-5.5,97.1-19.3,192.6-58.7,282.9c-26.9,61.5-63.6,115.4-115.8,158c-9.4,7.7-11.5,12.9-4,24.2
			c105.9,159.1,151.7,334.3,137.9,524.7c-12.8,175.8-70.5,332.3-202.5,454.9c-87.5,81.3-191.8,129-308.8,151.4
			c-69,13.2-138,22.1-208.2,16.2c-69.9-5.9-137.6-19.1-192.4-67.8c-10.6-9.4-14.1,1.7-19,6c-77.7,68.7-187.8,76.4-272.5,18.9
			c-24.3-16.5-44.5-36.9-60.3-61.6c-6.4-10-9.5-13.1-19.9-1.9c-96.6,103.6-216.4,162.3-356.6,178c-97.7,11-196.1,14-294.4,8.8
			c-223.7-11.7-378.1-124.6-471.2-325.3c-53.2-114.7-70.2-235.2-65-361.6c6.8-165.3,31.8-326.4,84.5-483.1
			c3.6-10.7,2.1-14.6-8.7-19.2c-52-21.7-82.4-61.7-84.5-117.5c-2-55,25-96.7,74.1-122.5c9.2-4.8,11.2-8.2,6.2-18
			c-42.1-82.1-36.8-164.7-1.9-247.5c29.7-70.4,70.8-134.4,112.8-197.8C424.4,1081,428.9,1074.3,433.4,1067.5z M1893.1,1773.6
			c-8.1-3.7-15.4-6.8-22.6-10.3c-44.3-21.2-84.3-47.8-113.1-88.7c-45.3-64.6-57-135.2-37-211.2c18.6-70.8,68.5-109.6,134.7-132.6
			c30.4-10.6,60.1-23.5,87.4-41.1c156.1-100.6,217.9-307,142.1-476.8c-45.4-101.8-122.4-158.4-235.6-165
			c-83.9-4.9-166.8,3.2-249.3,15.2c-184,26.8-361.1,78.4-530.9,154.1c-20.4,9.1-23.6-1.1-29.5-14.9c-5.6-13.2-12.6-22.7,8.5-31.5
			c127.5-53.1,257.1-99.1,392.4-128.4c127.9-27.7,256.7-47.8,388-45.6c115.9,1.9,211,44.3,274.6,145.1
			c136.4,216.2,45.4,514.4-188.3,617.9c-24.6,10.9-49.7,20.4-74.3,31.3c-28,12.4-49.1,32-62.7,60.1
			c-38.2,78.8-10.1,186.1,61.7,236.5c30.6,21.5,63.8,37,99.4,47.9c89.5,27.6,182.1,34.3,274.8,40.4c63.4,4.2,126.7,2,188.4-14.3
			c133.1-35.2,215.3-123.3,258.3-251.5c35-104.2,42.1-212.1,41.8-320.7c-0.6-192.6-7.9-384.8-38.2-575.5
			c-12.1-76.3-23.2-152.9-48-226.5c-27.4-81.4-78.8-138.1-161-168.5c-94.8-35-193-52.4-292.2-67c-10.6-1.6-15.3,0.5-16.4,12.6
			c-9.9,105.1-20.5,210.2-31.1,315.2c-0.9,8.8,2.7,13.4,9.4,18.1c16.4,11.7,32.8,23.6,48.4,36.4
			c181.6,149.3,262.1,337.7,216.4,572.1c-50.3,258.2-266.8,400.5-513.5,390.8c-3.2-0.1-8.4-0.7-9.1-2.5c-5.2-13.7-2.6-27.9,0.8-41.4
			c2.5-10.1,12.5-5.4,19.2-5.3c87.1,1.6,170.3-14.6,246.4-57.9c118.8-67.7,186.3-171.6,209.9-305.1c25.9-145.8-0.7-280.3-91.2-398.9
			c-122.9-160.9-288.4-243.6-488.7-259.3c-154.9-12.1-304.1,15.7-449.8,66.3c-69.4,24.1-136.4,53.8-200.7,89.1
			c-14.6,8-21.6,5.8-27.2-8.5c-1.2-3.1-3.1-6-5-8.7c-9.1-12.4-6.8-19.3,7.7-26.7c56.3-28.9,113.4-56,172.6-78.3
			c11.4-4.3,15.1-9.9,15-21.8c-0.5-67.3-0.6-134.7,0-202c0.1-14.8-3.9-16.3-17.3-12.1c-84.8,26.8-163.3,65.6-235.2,117.9
			c-30.7,22.3-58.2,47.4-79.9,79C825.4,592.2,708.7,764.1,588.6,933.7c-66.5,93.9-135.2,186.2-192.6,286.2
			c-25.1,43.8-49.5,88.1-61,137.8c-15.2,65.8-5.1,127,37.7,180.7c16.4,20.6,39.8,25.1,63.5,14.2c17.9-8.2,33.2-20.4,48.3-32.7
			c31.8-25.9,62.3-53.6,99-72.8c61.7-32.2,123.3-33.5,185,0.8c27.8,15.5,51,37.2,77.5,54.6c39.8,26.1,70,22.4,101.4-13.3
			c25.8-29.3,41.3-64.4,54.7-100.5c13.2-35.5,12.9-35.3,48.4-22.3c6.7,2.5,9.9,3.6,7,12.1c-17.8,52.4-37,103.9-74.9,146.1
			c-44.2,49.2-104.8,57.9-159.7,21.9c-16.3-10.7-31.5-23-47.3-34.5c-28-20.3-56.6-37.7-93.1-39.3c-52.1-2.3-90.8,24.8-128.8,54.3
			c-21.8,16.9-42.6,35.1-64.7,51.5c-40.9,30.3-84.2,41.3-130.9,12.2c-5.7-3.5-10.8-3.7-17.1-1.9c-30.1,8.9-50.7,28.3-59.6,57.9
			c-9,30-1,57.1,21.2,79.5c27.8,28,63.3,30.4,98,24c144.7-26.5,290.3-42,437.3-44.7c137.5-2.5,274.6,1.6,409.8,30.2
			c94.9,20.1,183.1,53.5,252.2,126c72.9,76.6,118.2,163.6,114.1,272.9c-3.5,93.6-12.8,186.5-22.5,279.5c-4.9,46.7-7.2,94-21.2,139.3
			c-19.7,63.6-50.3,121.7-90.2,174.9c-5.5,7.3-9.1,12.9-4.3,23.2c47.3,101.2,196.9,126.4,272.5,45.5c5.1-5.4,7.8-9.7,3.9-17.5
			c-12.9-25.9-15.5-54.3-16.2-82.5c-3.8-146.1-3.7-292.2-2.6-438.2c0.4-61.2-3.2-122.8,7.4-183.4c15.5-89.1,54-168.6,106.5-241.6
			C1861.8,1813.6,1877.4,1794.2,1893.1,1773.6z M1015.6,2926.2c18.5-1.5,32-1.9,45.2-3.7c219.9-29.3,364.8-154.4,451.7-353.6
			c22.8-52.2,23.8-108.5,30-163.8c10.3-92.3,19.2-184.7,22.2-277.6c2-59.1-14.5-112.8-45.6-162.6
			c-70.1-112.6-177.2-164.2-303.2-185.2c-13.4-2.2-14.6,4.1-13.9,14.4c2.6,38.3,5.6,76.6,3.3,115c-3.7,64.4-33.4,112.5-91.8,141.5
			c-58.2,28.8-117.4,23.3-176.6,3.2c-10.2-3.5-17.7-4.7-27.8,1.9c-41.9,27.8-88,24.5-127-7.4c-41.6-34-55.7-80.8-61.6-131.6
			c-5.5-46.7-11.4-93.4-17.1-140.2c-1.2-9.8-4.2-15.1-16.5-14.1c-49.6,4-99,10-148.4,15.9c-50.7,6-100.3,19.9-151.5,21.7
			c-11.5,0.4-12.4,8-14.9,15.5c-18.7,54.8-34.8,110.2-47.4,166.7c-25.1,112.7-34.5,227.1-38.7,342.3
			c-4.8,130.1,26.3,250.3,88.4,363.6c7.1,13,12.7,15,26.1,7.1c126.4-75.1,203.6-184.8,232.7-328.7c6.9-34.2,7-33.9,41.1-29
			c8.8,1.3,14,3.8,11.5,14c-1.4,5.9-1.3,12.1-2.5,18c-31.3,160.1-115.5,283.4-256.2,366.8c-11.5,6.8-13.6,11.2-4.8,21.9
			c40.8,49.4,89.4,89.1,145.7,119.7c10.1,5.5,17,3,25.6-2.4c50.4-31.8,96-69.5,136-113.5c88.7-97.6,144-211.7,165.1-342
			c0.8-5,0.1-13.4,6.6-13c13.9,0.7,28.8,1.3,41.1,6.9c7.4,3.4,1.3,16.2-0.2,24.3c-23.1,126.4-75.5,239.2-158.4,337.6
			c-41.9,49.7-90.5,91.8-144.1,129.1c7.4,7.7,16.6,7.9,24.7,9.8c82,19.7,165.5,18.8,249,16.6c7.3-0.2,12.7-3.9,18.3-7.6
			c33.4-21.6,65.3-45.2,94.8-71.9c136.3-123.3,218.7-275.9,247.7-457.3c0.7-4.4-0.9-11.7,5.1-11.5c13.3,0.4,27.4,0.7,39.5,5.3
			c10.1,3.8,4.2,15.8,2.9,23.7c-26.3,153.5-90.1,289.4-192.5,406.9C1095.9,2857.1,1058.3,2890.6,1015.6,2926.2z M1783.3,2440.6
			c1.4,81.8-2.9,179.5,4,277c1.9,26.7,11.2,49,30.8,67.9c32.7,31.6,72.3,48.6,116,56.9c107.3,20.2,212.4,7.2,316.1-22.8
			c88.1-25.5,165.9-69.1,231.8-133.4c101.7-99.2,152.6-222.2,171.1-361.1c26.2-196.8-14-378.2-122.7-544.6
			c-7.5-11.5-13-13.1-25.2-6.4c-56.9,31.6-119.1,45.4-183.4,50.3c-112.3,8.5-223.5-4.1-333-26.1c-36.2-7.3-54.2,1.9-75,28.4
			c-84.6,107.6-136.3,225.7-130.9,365.8C1785.7,2270,1783.3,2347.5,1783.3,2440.6z M857.4,457.1c-4-1.5-6.4-2.5-8.9-3.3
			c-236.3-75.2-440.8,46.7-530.4,219c-44.9,86.5-36.4,172.7,22.4,252.5c29.3,39.7,67.5,68.9,108.5,95.1c9.5,6.1,14.6,4.5,21-4.8
			c27-39.3,54.7-78.1,82.3-117C655.3,753.3,756.6,606.9,857.4,457.1z M1848,260.2c0,37,0.5,74-0.3,111c-0.2,12.3,3,17.3,15.9,19.7
			c65,12.4,127.7,32.1,186.3,63.2c16.7,8.9,18.4,1.5,19.7-12.4c8.8-94.3,17.7-188.6,27.3-282.8c1.2-12.2-2.7-14.4-13.7-15.4
			c-73.1-6.7-146.3-8.2-219.7-8c-12.3,0-16.2,3.1-15.9,15.7C1848.5,187.5,1848,223.9,1848,260.2z M1798.9,259.4
			c0-35.7-0.2-71.3,0.1-107c0.1-9.4-1-14.9-13-14.4c-67.8,2.7-134.8,12.5-201.9,21.3c-8.7,1.1-11,4.6-11,12.8
			c0.2,65.9,0.2,131.9,0,197.8c0,8.8,2.6,11.3,11.8,10.3c65.7-7.1,131.6-8.4,197.4-1.4c14.5,1.6,17-3.8,16.8-16.5
			C1798.4,328,1798.9,293.7,1798.9,259.4z M1325.1,319c0,34.3,0.2,68.6-0.1,102.9c-0.1,11.1,2.9,13.9,14.2,10.3
			c56.4-18.1,113.7-32.5,172.2-41.9c9.1-1.5,12.5-5.4,12.5-14.5c-0.2-65.3-0.2-130.5,0-195.8c0-8.3-1.8-12.4-11.5-10.8
			c-58.3,9.8-116.7,18.7-174.4,32.2c-10.8,2.5-13.2,8.6-13.1,18.7C1325.3,253.1,1325,286,1325.1,319z M850.1,1755c0,0.8,0,1.6,0,2.4
			c-28.3,0-56.5,0-84.8,0c-10.8,0-14.8,3-13,15.6c7.8,53.9,14,108,21.3,161.9c2.5,18.8,9.7,36.3,19.8,52.5
			c29.3,46.9,77,49.5,110.8,6.1c14.2-18.2,24.2-38.6,30.7-60.8c16.3-55.5,11.5-112,8.2-168.4c-0.6-10.5-7.7-9.3-14.2-9.3
			C902.6,1754.9,876.3,1755,850.1,1755z M1156.9,1843.3c-1.3,0-2.6,0-3.9,0c0-19.5-0.6-38.9,0.2-58.4c0.5-11.6-2.4-16.6-15.1-17.4
			c-39.5-2.6-79-6.6-118.5-9.9c-28.4-2.4-28.2-2.4-26.2,26.6c5.2,73.7,4.7,146.6-33,213.7c-4.8,8.5-2.1,11.2,6.4,13.7
			c18.8,5.7,38.1,8.5,57.5,9.2c76.7,2.6,129.5-46.6,132.4-123.1C1157.5,1879.6,1156.9,1861.4,1156.9,1843.3z"/>
		<path class="st0" d="M1060.4,911.4c87.9,4.4,187.5,35.5,284.1,78.2c14.1,6.3,27.7,13.9,41.9,19.9c10.6,4.5,13.9,8.7,7.4,20.6
			c-16.6,30.5-16.3,31.6-47.1,15.1c-13.3-7.1-21.7-6.3-33.1,3.9c-42.9,38.1-89.4,71.2-140.6,97.5c-52.1,26.7-107,34.7-164.4,24.1
			c-29.8-5.5-56-19.2-77.6-40.5c-19.2-18.9-38.4-37.8-56.1-58.1c-45.3-51.8-33.5-104.7,29.8-132.7
			C948.2,920.2,994,910.6,1060.4,911.4z M1278.7,1015.6c-74.3-28.6-145.3-48.3-219.5-54.6c-46.5-4-91.2,5.4-133.8,23.4
			c-33.3,14-35.6,26.4-13.6,54.4c14.6,18.6,31.6,34.8,48.3,51.4c24.2,24,53.5,34.6,87.3,35.5
			C1141.9,1128.2,1206.3,1069.3,1278.7,1015.6z"/>
		<path class="st0" d="M393.4,2093c0.1-46.9,37.1-84.6,83.8-85.2c47-0.6,86,38.3,85.9,85.6c-0.1,46.5-37.8,84.6-84.3,85.2
			C431.8,2179.2,393.4,2140.7,393.4,2093z"/>
		<path class="st0" d="M1245.5,2030c-0.4-48.1,37.2-86,85-85.9c46.8,0.1,84.7,37.6,85.1,84.2c0.4,47.2-38.4,86.4-85.4,86.4
			C1283.8,2114.5,1245.9,2076.7,1245.5,2030z"/>
		<path class="st0" d="M931.8,2217.3c0,47.9-37.8,85.9-85.1,85.6c-46.6-0.3-85-38-85.4-84.4c-0.4-46.6,39.3-86.5,86-86.2
			C893.8,2132.6,931.5,2170.6,931.8,2217.3z"/>
		<path class="st0" d="M1222.8,2217.1c0.4,48-37.3,86-85.1,85.8c-46.6-0.1-85.1-38-85.5-84.3c-0.5-46.4,39.4-86.5,86-86.3
			C1184.6,2132.6,1222.5,2170.5,1222.8,2217.1z"/>
		<path class="st0" d="M2235.1,2362.1c-101.5-0.7-180.1-99.3-163.4-204.7c7.8-49.2,29.4-90.5,69.4-121
			c65-49.7,156.9-40.5,211.5,20.8c74.4,83.6,60.9,215.2-28.6,277.3C2297.3,2353.1,2267.7,2362.6,2235.1,2362.1z M2234,2054.5
			c-7.1,0.3-16.4,0.3-25.7,3.1c-45.4,13.7-72.7,45.1-83.9,89.7c-12.8,50.4-2.4,96.3,35.1,133.7c45.7,45.6,117.3,41.7,159-7.3
			c20.4-24,30-51.9,32.6-82.9C2357.1,2119.3,2303.2,2055.2,2234,2054.5z"/>
	</g>
</g>
</svg>
