<?xml version="1.0" encoding="utf-8"?>
<!-- Generator: Adobe Illustrator 23.0.0, SVG Export Plug-In . SVG Version: 6.00 Build 0)  -->
<svg version="1.0" xmlns="http://www.w3.org/2000/svg" xmlns:xlink="http://www.w3.org/1999/xlink" x="0px" y="0px"
	 viewBox="0 0 3000 3000" style="enable-background:new 0 0 3000 3000;" xml:space="preserve">
<style type="text/css">
	.st0{stroke:#000000;stroke-width:10;stroke-miterlimit:10;}
</style>
<g id="Layer_1">
</g>
<g id="Layer_2">
	<g>
		<path class="st0" d="M1165.7,2423c-174.6,0-349.1,0.4-523.7-0.3c-48.3-0.2-96.2-7.3-142.3-22.1
			c-119.3-38.1-226.3-98.1-317.8-184.3c-104.2-98.2-144.2-218.9-126-359.9c3.3-25.5,6.1-51.2,10.3-76.6c5.5-33.2-5.7-64.5-10.3-96.4
			c-28.5-198.7-27.5-397.1,12.4-593.8C99.1,938.2,179,812.6,289.5,705.5c187.9-182.2,415.6-287.3,667.7-344.7
			c111.6-25.4,225.4-34,339.3-39.8c206.9-10.5,413.9-20.4,621.1-17.2c152.9,2.4,304.8,12.8,454.8,47.4
			c213.7,49.3,365.1,177.8,475.3,361.5c71.8,119.8,106.1,252,120.9,389.3c18.2,169,17.7,338.8,13.6,508.6c-2,83.5-0.2,167-12.8,250
			c-29.7,195.6-135.6,331.7-317.7,408.4c-102.9,43.3-209.5,74.8-319.2,95c-91.8,16.9-184.9,25.3-277.7,34.6
			c-112.1,11.3-224.4,19.9-336.9,27c-17.6,1.1-35.3,0.9-52.9,0.9c-166.4,0.1-332.8,0-499.3,0
			C1165.7,2425.3,1165.7,2424.2,1165.7,2423z M2418.5,2293.5c99.9-26.5,193.5-55.6,280.5-102.7c29.4-15.9,55.8-36.2,80-59.1
			c101-95.7,143.5-216.1,148.9-352.3c5.8-145.3,7.3-290.5,4.5-435.9c-2.6-136.6-9.6-272.3-45.1-405.5
			c-45.3-169.9-137.1-309.4-271.5-420.3c-99.9-82.3-221.7-115-346.5-136.5c-139.6-24-280.8-28.8-422.2-28.3
			c-148.8,0.5-297.4,5.8-446,12.9c-131.5,6.3-263.4,10.7-393.1,36c-239.2,46.6-457.3,139.4-642.7,301.2
			c-102.4,89.4-183.2,194.3-228.2,324.3c-26.6,77-35.2,157.2-42.9,237.7c-14.3,148.3-7.9,295.5,16.2,442.4c2.8,16.8,7.5,14.6,18.8,9
			c84.6-42.3,162.9-94.4,239.2-150.4c55.4-40.6,99.2-89.1,129.3-150.6c9.8-20.1,20.8-39.6,32.1-59
			c110-189.1,278.6-301.8,482.1-367.9c100-32.5,204.4-35.3,308.3-36.1c243.1-1.8,486.3-3.8,729.1,11.8c85.4,5.5,170.1,15,250.6,47.8
			c81.7,33.3,164.2,64.8,235.1,119.4c106.9,82.2,161.7,189.3,156.7,325.4c-2.2,60-15.1,118.1-29.2,176.2
			c-38.7,159-85.3,315.4-150.4,465.8C2484.3,2163.5,2453.2,2226.7,2418.5,2293.5z M1412.4,1277.5c0-86.2-0.1-172.5,0.1-258.7
			c0-10.3,0.3-18.1-14.4-17.8c-90.3,1.5-181.3-2.5-270.2,13.7c-252.6,46-451.5,171-574.3,403.1c-31.9,60.2-66,118.6-121,161.6
			c-94.3,73.8-192.9,140.9-301.9,191.4c-10.6,4.9-14.7,11.3-16.3,22.8c-7.2,50.5-11.7,101.1-11.1,152.2
			c0.7,55.7,15.9,107,46.4,153.7c52.6,80.5,126.6,137,208.3,184.6c78.7,45.8,161.5,79.8,253.6,86.7c133.3,10,267.1-3.7,400.4,7.7
			c12.7,1.1,15.7-3.4,15.6-16c-1.4-142.8,16.5-283,61.7-418.8c55.6-167.1,152.9-301.7,311.1-386.5c11.6-6.2,12.1-14.2,12.1-24.8
			C1412.3,1447.3,1412.4,1362.4,1412.4,1277.5z M1946.5,2108.4c6.4-4.5,9.5-6.8,12.7-9c85.9-55.7,171.7-111.6,258-166.7
			c12.5-8,13.1-13.1,3.9-24.1c-31.7-37.7-67.7-70.2-109.3-96.8c-74.6-47.6-159-63.9-244.2-78.1c-12.9-2.2-19.1-0.2-24.6,12.3
			c-16.7,37.8-34.7,75-52.5,112.4c-14.3,30.1-28.9,60.1-45,93.3c-2.7-6.7-3.7-9.1-4.6-11.5c-25.7-69.9-51.4-139.8-76.9-209.8
			c-3.4-9.2-5.7-17.2-19-16c-47.4,4.5-94.5,9.6-139.5,26.5c-123.4,46.5-185.5,143.9-219.9,264.5c-3.5,12.3,3.3,15,12.5,18
			c41.9,13.4,83.7,27.1,125.5,40.7c50.1,16.3,100.2,32.7,153.1,50c-8.3,4.3-13.6,7.1-19,9.7c-90.9,44-181.7,88-272.8,131.6
			c-10.7,5.1-15,10.2-12.9,23c4.6,28.1,10.1,56,15.6,84c2.5,12.6,7.5,16.2,20.1,16.2c112.7-0.5,225.5-0.5,338.2,0
			c11.6,0,18.3-4,24.8-13.3c24.8-35.6,51-70.3,75.5-106.1c8.6-12.5,13.4-15.3,24.8-2.4c28.1,32.2,58,62.8,86.5,94.7
			c8.6,9.7,17.3,12.7,30.1,11.5c65.5-6.4,131.2-10.8,196.7-17.8c83.6-8.9,167.4-16.3,250.1-32.4c13.9-2.7,20.9-6.8,19.5-23.2
			c-3.2-37.2-8.5-74-14.9-110.7c-2.3-13.1-8.3-18.1-20.8-19.7c-63.9-8.2-127.7-16.8-191.5-25.6
			C2067.9,2125.6,2009.1,2117.2,1946.5,2108.4z M2398.9,2217.3c26.8-47.7,49.3-96.3,70.7-145.3c3.9-9-0.1-15.6-3.6-22.8
			c-28.3-57.8-61.2-113-98.8-165.2c-79.2-109.8-173.5-203.5-293.3-269c-150.9-82.5-311.9-103.2-479.4-72.6
			c-164.6,30-293.7,115.6-383.4,258.1c-61.4,97.5-95.8,204.8-113.2,317.9c-12.3,80.1-24.6,160.2-21,241.8c0.6,13.4,3,18.8,17.9,18.4
			c42.8-1.1,85.6-0.8,128.4-0.1c13.4,0.2,18.9-2.8,13.4-16.6c-1.2-3.1-1.5-6.6-2.2-9.9c-25.8-124.2-28.9-248.2,6.6-370.9
			c35.7-123.3,102.5-222.6,223.7-277.5c57.9-26.2,119.5-35.8,182.2-38.4c106-4.5,209.6,14.3,312.8,35.3
			c70.6,14.4,136.8,39.4,196.2,80.8c106.6,74.3,170.1,178.8,209.2,300.1C2379.4,2125.7,2389.1,2171.3,2398.9,2217.3z M2320.5,2109.4
			c-12.2-46.8-31.2-88.3-52.6-128.9c-6.5-12.3-11.5-14.7-23.9-6.3c-40.3,27.4-81.6,53.3-122.3,80c-10.2,6.7-22.3,11.2-32.1,23.6
			C2167.8,2088.4,2243.2,2098.8,2320.5,2109.4z M2413.8,1156.7c-1.4,0.8-2.6,1.4-3.8,2.1c-34.1,21-68.1,42-102.2,62.8
			c-7,4.3-4.1,8.7-1,13.4c13.4,20.4,27,40.7,39.9,61.4c5,8.1,8.9,9.5,17.3,3.7c31.3-21.4,63.1-42.3,95.1-62.7
			c8.7-5.5,8.4-10.1,3.1-17.5c-13.5-18.7-26.3-37.8-39.7-56.6C2420.4,1160.4,2419,1155.6,2413.8,1156.7z M1443.7,2123.1
			c-56.5-18.3-108-34.7-159.3-51.9c-9.2-3.1-12-1.2-13.2,7.7c-5.5,39.7-7.2,79.6-6.1,119.7c0.2,7.8,3.1,9.4,10.1,6
			C1329.8,2178,1384.6,2151.7,1443.7,2123.1z M2544.7,1339.4c-1.2-1.8-2.5-4.1-4-6.3c-12.3-17.8-25.1-35.2-36.8-53.4
			c-5.9-9.1-11-4.6-16.5-1c-32.2,21.1-64.3,42.4-96.6,63.4c-6.5,4.2-9.9,7.6-4.3,15.6c12,17.1,23.3,34.8,34.4,52.6
			c4.5,7.2,8.5,8.5,16,3.5c33.1-22.1,66.6-43.7,99.9-65.5C2540,1346.2,2544.4,1345.1,2544.7,1339.4z M2497.6,1519.1
			c3-1.7,6.5-3.7,10-5.7c19.9-11.7,40-22.9,59.5-35.3c16.9-10.8,46.7-17,47.7-32.9c1-16.7-20.8-34.5-32.1-52.2
			c-5-7.9-8.9-9.3-17.3-3.4c-21.1,14.8-43.2,28-64.8,42.1c-50.7,33.1-50.6,33.2-12.6,81C2490.4,1515.9,2491.6,1520.5,2497.6,1519.1z
			 M1510.2,1000.7c-9.5,0-19-0.5-28.5,0.2c-6.2,0.5-14.7-4-17.9,4.6c-2.7,7.2,2.7,12.6,7.4,17.8c18.2,20.1,36.5,40.1,54.2,60.6
			c38.6,44.8,38.5,44.9,90.3,17.9c0.6-0.3,1.1-0.8,1.8-1c10.3-3.3,9.7-8.4,3.5-15.9c-13.4-16.2-27.6-31.9-38.8-49.6
			C1565,1007.9,1543.7,992.4,1510.2,1000.7z M2187,1412.9c-0.8-1.7-1.4-3.7-2.5-5.3c-15.9-23.6-32.2-47-47.7-70.8
			c-5.4-8.3-9.8-3.9-14.9-0.7c-20.2,12.4-40.2,25.2-60.6,37.2c-7.9,4.7-10.6,8.2-4.1,16.9c15.8,21.2,30.6,43,45.4,64.9
			c5.2,7.7,9.4,11.6,18.9,4.7c18.6-13.5,38.1-25.8,57.2-38.6C2182.1,1419,2186.4,1418,2187,1412.9z M2309.5,1331.8
			c-0.9-1.7-1.7-3.6-2.8-5.2c-14.7-22.6-29.6-45.1-44.1-67.9c-4.5-7-8.7-3.9-13.3-1c-21.2,13.2-42.2,26.8-63.8,39.3
			c-8.8,5.1-9.4,9.3-3.8,17.2c14.4,20.4,28.4,41.2,41.9,62.2c5.7,8.7,10.7,9.7,19.3,3.6c18.8-13.2,38.3-25.3,57.4-38.1
			C2304,1339.3,2308.9,1337.6,2309.5,1331.8z M2385.6,1111.5c-3.1-6.7-7.4-12.6-14.3-16.2c-32.9-17-65.4-33-99.2-0.8
			c-8.6,8.1-20.5,12.9-31.3,18.4c-8.3,4.2-8.5,8.5-3.6,15.6c10.3,15,20.3,30.3,29.8,45.8c4.3,6.9,7.7,9.2,15.7,4.1
			c31.3-19.9,63.1-39.1,94.7-58.6C2380.7,1117.8,2385,1116.6,2385.6,1111.5z M1947.8,1224.3c0.6-0.2,1.3-0.3,1.9-0.7
			c25.5-15.2,51.1-30.4,76.6-45.6c-8.7-22.9-26.2-40.3-38.1-61.2c-4.2-7.4-9-8.5-16.5-4.4c-22.6,12.3-45.3,24.2-68.2,35.8
			c-8,4.1-8.9,7.8-3.4,15.3c12.9,17.4,24.7,35.5,37.3,53.1C1939.8,1220.2,1941.4,1225.7,1947.8,1224.3z M2638.7,1494.3
			c-38.3,22.5-73.6,43.6-109.3,64.1c-9.2,5.3-5.5,10.2-1.5,16.1c10.9,16.3,21.5,32.8,32.3,49.2c2.1,3.2,3.3,7.6,8.3,7.9
			c4.9,0.3,50.8-31.6,52.1-37C2628.4,1562.7,2635.7,1530.6,2638.7,1494.3z M2158,1099.8c-0.8-1.6-1.6-3.4-2.7-5.1
			c-11-17.1-22.2-34-32.8-51.2c-4.9-7.9-10-4.4-15.4-1.6c-23.4,12.2-46.5,24.9-70.1,36.4c-9.9,4.8-8.8,9.2-3.5,16.7
			c11,15.4,21.7,31,31.9,46.9c4.7,7.4,8.6,10.6,17.4,5.1c21.8-13.6,44.2-26.1,66.4-39.1C2152.6,1105.9,2156.7,1104.6,2158,1099.8z
			 M2101.5,1286.1c-1.1-2-2.2-4.5-3.6-6.7c-11.7-17.4-23.6-34.6-35.1-52.2c-4.5-6.9-8.8-6.2-15-2.5c-21.5,12.8-43,25.4-64.9,37.5
			c-8,4.4-8.6,8.5-3.5,15.6c12.3,17,24.4,34.1,35.9,51.6c4.7,7.2,8.8,8.5,16.2,3.8c21.1-13.5,42.5-26.4,63.7-39.5
			C2097.9,1291.9,2101.2,1290.6,2101.5,1286.1z M2185.3,1146.1c-1.4,0.5-2.8,0.8-4,1.5c-24.6,14.2-49.1,28.5-73.8,42.6
			c-7.6,4.3-3.7,8.6-0.7,13.1c11.4,16.8,22.9,33.5,34.1,50.5c4.1,6.2,7.7,7.6,14.5,3.2c21.6-13.9,43.5-27.5,65.6-40.5
			c7.4-4.4,9.3-7.8,3.9-15.5c-10.9-15.5-20.7-31.7-31.1-47.5C2191.7,1150.2,2190.4,1145.7,2185.3,1146.1z M2335.9,1379.3
			c-1.2,0.5-2.6,0.9-3.7,1.6c-22.1,14.5-44,29.2-66.3,43.5c-7.3,4.7-3.4,8.9-0.5,13.3c11.7,17.5,23.4,34.9,35.3,52.2
			c2.4,3.5,4.4,9.1,10.8,4.8c23.6-15.8,47.2-31.6,70.8-47.3c-7.1-21.5-23.3-37.7-34.1-57c-1.7-2.9-3.6-5.7-5.6-8.4
			C2341,1379.7,2339,1377.9,2335.9,1379.3z M2522.3,1658.3c-0.6-1.2-1.2-2.5-1.9-3.6c-12.8-19.8-25.7-39.6-38.6-59.4
			c-4.3-6.6-9.1-3.2-13.8-0.4c-19.1,11.4-38,23.2-57.6,33.8c-10.4,5.6-9.1,10.8-3.3,18.8c11.8,16.4,23.5,33,34.1,50.2
			c5.7,9.2,10.5,9.9,19.1,4.1c17.9-12.1,36.3-23.3,54.5-35C2518,1664.7,2522.3,1663.4,2522.3,1658.3z M2262.2,1522.8
			c-0.8-1.4-1.4-2.6-2.2-3.7c-12.6-18.5-25.2-37-37.6-55.6c-3.8-5.6-7.1-6.3-13-2.2c-20.1,13.8-40.6,27-61,40.3
			c-4.8,3.1-9.3,5.6-4.3,12.5c14.4,19.6,28.4,39.5,42.6,59.3c18.4-7,33.1-20.2,49.7-30.3c6.9-4.2,13.8-8.6,20.6-13.1
			C2259.5,1528.4,2263.1,1527,2262.2,1522.8z M2346.1,1773.8c2.6-1.4,4.5-2.3,6.2-3.4c16-10.1,31.8-20.5,47.9-30.3
			c6-3.7,4.3-7.2,1.4-11.5c-13.3-19.5-26.6-39-39.6-58.7c-3.9-5.9-7.4-8.4-14.5-4c-18.9,11.7-38,23.2-57.4,34c-8.9,5-7.5,8.7-1.4,15
			c16.6,16.9,32.5,34.4,48.8,51.5C2340.2,1769.2,2343.4,1771.5,2346.1,1773.8z M1898.6,1250.5c-1.4-2.4-2.5-4.9-4-7.2
			c-13.1-18.9-26.5-37.7-39.3-56.8c-5.4-8-10.6-8.2-18.5-3.6c-13.4,7.8-27.2,15.3-41.3,21.6c-11.2,5-9.6,10-3.1,17.9
			c14.6,17.8,28.5,36.1,42.9,54.2c2.4,3,5,9,8.8,7c17.9-9.4,35.3-19.8,52.8-30C1897.7,1253,1898.1,1251.5,1898.6,1250.5z
			 M1868.9,1109.6c13.9-7.2,28.3-14.5,42.6-22c44.2-23,44.2-23,14.6-62.2c-0.8-1.1-1.6-2.1-2.3-3.3c-3.4-5.5-7.9-6.5-13.7-3.7
			c-24.9,11.9-50,23.5-75,35.3c-4.7,2.2-8.3,4.6-4.1,10.5c9.8,13.7,19.3,27.6,28.9,41.4C1861.9,1108.6,1864.4,1110.6,1868.9,1109.6z
			 M2548.2,1705.3c-2.5,1.5-5.4,3.1-8.2,4.9c-17.1,10.9-33.7,22.5-51.3,32.5c-11.1,6.3-9.5,12.1-3.4,20.6
			c9.5,13.1,18.6,26.6,27.2,40.3c6,9.6,11.2,13.7,21.1,3.6c9-9.1,19.8-16.3,29.7-24.4c22.2-18.1,15.5-65.7-10.8-76.7
			C2551.4,1705.5,2550.1,1705.6,2548.2,1705.3z M2448,1544.2c-1.4-2.1-3.1-4.9-4.9-7.7c-8-12.5-16.4-24.8-23.8-37.6
			c-5-8.6-9-8.7-17.1-3c-18.1,12.9-37.2,24.5-56,36.4c-6.7,4.2-13.6,8.3-5.1,16.6c13.4,12.9,13.3,38.3,37.9,40.6
			c1.1,0.1,2.3-1.3,3.5-1.9c19.2-11.3,38.4-22.6,57.5-34C2443.1,1551.4,2447.6,1550.2,2448,1544.2z M1620.4,1413.1
			c-21.1-24.3-41.3-46.9-60.7-70.2c-6.9-8.3-12.6-9.2-22.2-4.1c-36.2,19.2-36.4,18.9-10.4,51.4c3.4,4.2,6.6,8.5,10,12.7
			C1571.5,1445.7,1571.6,1445.7,1620.4,1413.1z M2435.9,1776.3c-21.2,14-38.6,25.5-55.8,37.4c-0.4,0.3,2.1,5.8,3.9,8.4
			c13.6,19.3,27.6,38.4,41.1,57.8c4.3,6.2,7,7.2,14.2,2.5c46-30.2,46.2-29.9,15.7-75c-4.9-7.3-10-14.5-14.7-21.9
			C2438.4,1782.6,2437.3,1779.3,2435.9,1776.3z M1685,1263.5c20.4,23,40.4,45.1,59.9,67.5c4.8,5.6,8.8,5.9,15.5,2.7
			c40.4-19.7,40.5-19.4,12.2-55.3c-0.4-0.5-0.9-1-1.3-1.6C1736.7,1232.2,1736.7,1232.2,1685,1263.5z M2066.8,1492.1
			c-2.4-3.8-4.4-7.3-6.7-10.7c-10-14.4-20-28.9-30.2-43.2c-23-32.5-22.6-31.7-56.8-11c-12.4,7.5-10.2,12.5-3,21.3
			c14.2,17.2,29.1,34,41.2,52.6c11.5,17.7,22.6,19.7,37.7,6C2054.8,1501.9,2064,1500.6,2066.8,1492.1z M2325.3,1616
			c-1.9-3-4.1-6.5-6.3-9.8c-26.2-39-26.2-39-65.5-14.2c-41.4,26.2-41.1,26-10.8,64.8c5.2,6.7,9,8,16.3,3.5
			c19.5-12,39.5-23.4,59.2-35.2C2321.6,1623.2,2325.9,1621.8,2325.3,1616z M1620.7,1003.2c18,23.1,34.2,43.6,50.1,64.3
			c3.7,4.9,7.5,4.6,12.3,2.3c19.5-9.3,39.2-18.4,58.7-27.7c3.5-1.6,9.7-3.8,6.4-8c-9.1-11.4-11.4-30.7-31.3-30.9
			C1686.5,1003,1656,1003.2,1620.7,1003.2z M1756.6,1168.4c18.6-9.9,39.1-20.3,58.9-31.8c4.7-2.7-0.5-7.2-2.3-10.4
			c-27.8-49.2-27.9-49.2-78.6-25.1c-4.9,2.3-9.7,5.1-14.8,6.7c-12,3.9-9.8,9.9-3.6,17.5c9.9,12,19.3,24.5,29,36.6
			C1747.7,1165.1,1749.7,1169.1,1756.6,1168.4z M1926.9,1295.1c-3.6,2.1-7.6,4.5-11.7,6.7c-42.3,23.8-42.3,23.8-12.3,60.5
			c28.2,34.7,28,34.3,66,9.2c8.8-5.8,8.8-9.4,3.4-16.9c-12.3-16.9-24-34.3-36-51.5C1934,1299.9,1932.3,1295.9,1926.9,1295.1z
			 M1705.7,1193.1c-12.8-16.4-25.7-32.8-38.4-49.4c-3.8-4.9-7.7-7.3-13.8-4.3c-17.9,8.6-35.8,17.1-54.1,25.9
			c47.9,63.4,48.6,63.6,103.9,30.2C1703.8,1195.2,1704.2,1194.6,1705.7,1193.1z M1706.2,1364.4c-3.7-4.9-5.8-8.3-8.5-11.2
			c-12.5-14.3-24.9-28.7-37.9-42.5c-27.7-29.4-14.2-26.2-50.2-8.9c-0.6,0.3-1.2,0.6-1.9,0.8c-10.4,3.4-9.8,8.6-3.3,15.9
			c18.4,20.8,36.5,41.9,54.7,62.9c3.1,3.6,5.8,7.5,11.7,3.8C1682.3,1378.2,1693.9,1371.7,1706.2,1364.4z M1751,1824.2
			c16.9-36.1,31.7-67.7,46.9-100c-26.3-6.2-51.3-5.9-75.9-8.9c-9.8-1.2-10.7,4.5-8.4,10.6C1725.2,1757.3,1737.4,1788.4,1751,1824.2z
			 M1827.6,1352.6c-5.8,3.3-11.6,6.7-17.4,10c-25.1,14-25.1,14-6.5,34.5c7.7,8.5,15.2,17.2,22.8,25.8c22.2,25.1,21.9,24.7,49.6,6.1
			c8.7-5.8,8.4-9.3,2.1-16.8c-13.9-16.5-26.6-34-40.1-50.9C1835.3,1357.8,1833.3,1353.1,1827.6,1352.6z M1771,1481.1
			c3.1,0,7.8-0.3,12.5,0.1c6.7,0.6,13-1.7,16.1-6.6c4.4-6.8-3.6-10.5-7-14.6c-9-10.9-18.9-21.1-28.1-31.8
			c-24.3-28.3-25.3-28.5-56.2-6.7c-1.6,1.2-3.8,2-4.9,3.5c-0.9,1.3-1.6,4.1-0.9,5c12.5,15,25.1,30,38.1,44.5
			C1748.5,1483.3,1759.7,1478.7,1771,1481.1z M2498.1,2001.3c9.9-27.1,17.9-50.9,27.5-74c6.7-16.2-5.3-25-13.4-33
			c-6.7-6.7-13.1,5-19.1,9.2c-9.4,6.7-17.7,14.9-27.1,21.4c-6.7,4.6-6.5,8.5-2.7,14.9C2474.6,1959,2485.3,1978.6,2498.1,2001.3z
			 M1602.8,1246.9c-15.6-17.7-31-35.2-46.4-52.7c-3.3-3.7-6.3-5.2-12.1-3.6c-34.5,9.5-36.9,16.2-14.4,42c2.2,2.5,4.5,5,6.7,7.6
			C1564.5,1271.5,1564.5,1271.5,1602.8,1246.9z M1467.8,1396.6c-1.7,0.5-3.4,1-5,1.5c0,16.7-0.9,33.5,0.2,50.1
			c1.2,17.7-8.9,43.6,4.8,50.7c11.7,6.1,30.4-15,46.6-23c0.6-0.3,1.1-0.8,1.7-1.1c6.8-3.2,9-6.6,3.2-13.6
			C1501.8,1440,1484.9,1418.2,1467.8,1396.6z M2589.1,1312.5c11.1,0.8,21.9-14,17.7-22.9c-8.9-19.1-21.5-36-33.6-53.1
			c-9.2-13-15.6-2.8-23.4,0.9c-9.7,4.7-8.1,10.2-2.9,17.4c11.9,16.4,23.3,33.3,35,49.9C2584.3,1307.8,2585.7,1312.1,2589.1,1312.5z
			 M1467.9,1237.9c-1.7,0.3-3.4,0.6-5.1,0.9c0,11.9-0.8,23.8,0.2,35.7c1.1,13.8-7.2,32.7,6.2,39.8c10.9,5.9,23.1-10.4,35.6-14.8
			c9.6-3.4,11-7.8,3.5-15.8C1494.3,1268.9,1481.3,1253.2,1467.9,1237.9z M1727.6,2373.5c25.7,1.5,49.9-2.2,77.6-4.7
			c-13.5-15-24.8-27.3-35.8-39.8c-4.9-5.5-9.6-5.3-13.1,0.5C1747.4,2344.1,1734.6,2356.2,1727.6,2373.5z M1467.4,1094.7
			c-1.6,0.6-3.1,1.1-4.7,1.7c0,10.7-0.3,21.4,0.1,32.1c0.5,12.4-4.6,28,8.3,35.5c12.6,7.3,22.7-7.1,34.4-10.4
			c7.4-2,9.5-6.1,3.2-12.8C1494.7,1125.7,1481.2,1110.1,1467.4,1094.7z M2172.5,1028.7c9.9,15.1,18.2,27.3,25.9,39.8
			c3.6,5.8,7.4,7.2,13.2,3.7c12.5-7.5,25.1-14.9,40.4-24C2225,1038.4,2201,1031.8,2172.5,1028.7z M1955.1,1510.7
			c-8.6-11.3-16-19.1-21.1-28.3c-10.8-19.4-23.5-20.6-39.2-6.4c-3.7,3.3-11.3,3.8-9.7,10.9c1.3,5.6,6.5,8.6,11.8,10
			C1915,1501.4,1933.2,1505.6,1955.1,1510.7z M1679.1,1480.7c-8.3-9.5-13.8-15.4-18.9-21.7c-3.3-4.2-6.1-6.7-11.6-2.9
			c-14.6,10-31.9,16-44,32.4C1628.2,1486,1651.7,1483.6,1679.1,1480.7z M2136.1,1593.3c-3.8-6.8-4.6-8.6-5.7-10.2
			c-5.6-8.3-11.3-16.7-17-25c-17.8-25.8-17.8-25.8-42.7-2.2C2091.2,1567.6,2111.3,1579.1,2136.1,1593.3z M1979.8,1009.7
			c0.6,10.7,8.3,16.4,12.4,23.9c2.6,4.7,5.7,9.3,12.8,5.4c13.2-7.3,26.7-14,40-21c-0.5-1.4-0.9-2.7-1.4-4.1
			C2022.5,1012.5,2001.4,1011.1,1979.8,1009.7z M2483.2,1155.4c-1,1-1.9,1.9-2.9,2.9c8.6,12.3,17.6,24.4,25.7,37
			c5.9,9.1,11.2,3.9,16.5,0.1c9.7-6.8,0.3-10-3.3-12.9C2507.5,1173.1,2495.2,1164.4,2483.2,1155.4z"/>
		<path class="st0" d="M1753.5,1958.1c72.7-0.2,130.7,57.1,131.3,129.9c0.6,74.4-58.7,134.4-132.3,133.8
			c-72.9-0.6-132.3-60.5-131.9-132.9C1621.1,2015.7,1679.4,1958.3,1753.5,1958.1z M1752.7,2171.4c45.2,0.2,81.9-35.6,82.6-80.5
			c0.8-45.5-36.4-83.4-82-83.5c-45-0.1-81.5,35.8-82.2,80.9C1670.4,2134.7,1706.3,2171.2,1752.7,2171.4z"/>
	</g>
</g>
</svg>
