<?xml version="1.0" encoding="utf-8"?>
<!-- Generator: Adobe Illustrator 23.0.0, SVG Export Plug-In . SVG Version: 6.00 Build 0)  -->
<svg version="1.0" xmlns="http://www.w3.org/2000/svg" xmlns:xlink="http://www.w3.org/1999/xlink" x="0px" y="0px"
	 viewBox="0 0 3000 3000" style="enable-background:new 0 0 3000 3000;" xml:space="preserve">
<style type="text/css">
	.st0{stroke:#000000;stroke-width:10;stroke-miterlimit:10;}
</style>
<g id="Layer_1">
</g>
<g id="Layer_2">
	<g>
		<path class="st0" d="M1137.2,220.3c39.5-23,78.3-45.1,119.6-62.9c63.5-27.5,129.8-42.5,198.4-45.1c142.6-5.5,285.4-9.2,427.9,2.8
			c58.5,4.9,113.1,21.8,160.7,57c11.3,8.4,20.2,8.7,32.7,3c63.9-29.4,131.1-44.5,201.3-33.9c101.8,15.4,171.7,87.3,192.8,196.8
			c24.5,126.7-9.3,240-83.1,343c-7.3,10.1-9.3,16.1,0.3,26.7c77.4,84.8,102.4,186,89.3,297.8c-11.2,95.4-46.7,182.3-97.1,263.5
			c-6.7,10.7-9.3,20.2-6.5,33.5c23.2,110.9,28.4,222.9,16.6,335.6c-3.7,35.2-10.5,70.1-17.3,104.9c-2.1,10.8-0.7,19,4.3,28.4
			c24.6,46.6,41.7,95.4,47.1,148.3c7.3,70.8-11.9,132.8-60.9,184.4c-10.7,11.3-8.2,16.8-0.3,27.6c104,141.7,152.9,296.6,99.4,470.4
			c-65.1,211.5-246,343-467,343.9c-53.9,0.2-106.9-8.5-156.4-31.5c-66.9-31.1-113.8-81.2-140.2-150.2c-5-13-9.4-26.1-15.9-44.3
			c-3.5,15.6-5.7,26.3-8.2,37c-24.7,103.4-103.3,182.8-200.6,194.9c-97.3,12.1-174.5-29.3-236.3-102.4
			c-20.5-24.3-34.9-52.2-47.3-83.9c-20.7,28.4-40.2,55.4-65.5,77.6c-101.5,89.3-219.9,108-346,74.3
			c-178.1-47.6-301.7-158.7-349.3-339c-47.2-178.7,31.8-364.7,188.8-467.9c13.7-9,13.8-15.7,9.6-30.1
			c-37.1-129.7-9.7-244.7,81.8-344.1c32.4-35.2,70.2-63.9,111.7-91.8c-26.2-15.1-50.6-30-69.7-52c-65.3-75.3-64.4-189.7,6.8-270
			c21.6-24.3,24.3-42.4,15.4-72.6c-57-193.1-57.6-385.5,16-575.4c3.3-8.6,6.6-15-6.1-19.8C658.1,607.5,598.3,490.5,631.2,348
			c29.4-127.6,106.2-219.3,223.2-276c123.9-60.1,238.7-5.8,277.2,128.4C1133.3,206.7,1135.1,213,1137.2,220.3z M2116.3,2168.3
			c3.8,3.6,7.2,2.8,10.4,2c63.4-15.9,124.3-37.4,177.2-77.4c43.5-33,68.2-76.4,71.6-131.3c4.7-75.9-22.8-142.3-63.7-203.3
			c-83.9-125-203.2-203.3-342.8-253.5c-6.6-2.4-14.5-2.3-21.8-1.8c-96.9,6-193.8,12.2-290.7,18.4c-91.5,5.9-183.1,11.1-274.6,17.9
			c-82.5,6.2-165.6,4.4-246.8,27.3c-122.8,34.7-240.2,79.4-341.4,159.5c-86.3,68.3-136.8,154-132.7,267.8
			c3,85.8,44.7,146.9,125.3,174.9c53.9,18.7,109.8,30.1,166.3,36.6c75.5,8.7,126.6-21.3,151.5-84.7c9.9-25.3,15.1-51.6,15-78.4
			c0-14.9,5.2-18.8,18.5-16.8c5.3,0.8,10.7,1.2,16,1.2c10.7-0.1,15.6,3.6,14.7,15.5c-1.6,20-2.6,40.1-6.9,59.8
			c-9.4,42.5-28.5,79.9-61.5,111.1c117.7,54.9,238.4,87.1,366.2,89.9c133.2,3,264.5-14.7,395.4-36.9c26.9-4.6,53.1-13.4,79.8-19.8
			c95.4-22.9,140.1-89.1,154.9-181c4.9-30.3,4.7-29.8,35.8-26.7c12.9,1.3,16.7,5.2,14.9,18.7
			C2141.7,2095.9,2131.7,2133.1,2116.3,2168.3z M2431.2,978.7c-0.6-147.4-55-240.8-159.6-303.4c-107.9-64.5-223.7-71.6-343.1-36.7
			c-27.4,8-26.4,7.8-37-18c-6.5-15.8-2.4-21.6,13.3-26.5c73.4-22.9,147.9-30.3,224.3-20.4c13.4,1.7,29.5,12.3,39.6,2.9
			c9.6-9,4.9-26.8,5.9-40.7c10.5-149-74.9-282.9-195.2-345.3c-41.2-21.4-87.5-33.6-132-26.2c-33.5,5.5-55.8,39.7-78.6,65.9
			c-109.7,126-106.1,294.6,7.7,414.7c19.5,20.6,48.1,26.6,68,45.6c13,12.5,25.5,13,41.6,6.5c23-9.3,47.5-14,72.1-17.2
			c134.5-17.4,222.4,45.7,263,157.5c29.9,82.4,31.3,166.8,11.9,251.4c-34,148-117.8,254.3-262.9,308.1
			c-63,23.4-128.5,32.1-195.2,31.4c-20.7-0.2-14,12.3-15.5,22.1c-1.9,11.6,2.5,14.7,14.4,13.8c86.8-6.4,173.7-11.3,260.5-18.3
			c65.3-5.3,126.7-24.6,178.7-65.3C2351.1,1272.4,2416.2,1126.3,2431.2,978.7z M857.5,2559.8c0,22.8-0.3,45.6,0.1,68.4
			c0.2,9.2-2.6,13.9-12.5,13.1c-5.3-0.4-10.8-0.7-16.1,0.1c-16.2,2.4-22.1-3.1-21.6-20.4c1.3-43.5-0.2-87.1,0.8-130.7
			c0.3-14.5-3.1-23.4-17.3-29.4c-19.3-8.2-35.5-21.7-49.4-37.3c-53.8-60.2-68.5-131.3-51.5-207.9c6.3-28.6,3.1-47.2-19.9-64.7
			c-8.4-6.4-12.8-8.1-21.7-2.1c-32.5,21.7-62.5,46.4-87.2,76.7c-93.3,114.7-126.8,244.8-70.7,383.1
			c65.4,161.4,190.7,255,366.3,272.4c107.8,10.7,201.7-23.2,268-111c93.1-123.4,122.8-264.9,106.9-417.6c-3-28.8-13-46.7-43.5-50.9
			c-11.7-1.6-23-7.1-34-11.9c-9-3.9-12-2-15.6,7.4c-46.8,120.9-140.1,185-268.4,184.4c-10,0-12.9,2.4-12.7,11.9
			C857.9,2515.6,857.6,2537.7,857.5,2559.8z M2031.5,2628.5c0,22.1-0.5,44.3,0.2,66.3c0.4,11.7-3.9,15.8-15.1,14.5
			c-5.3-0.6-10.8-0.8-16.1,0c-15.1,2.3-19.6-3.6-19.2-18.7c1-38.8,0-77.7,0.5-116.6c0.2-12.1-2.2-17.4-16.1-18.3
			c-37-2.4-70.2-16.6-98.9-40.1c-53.1-43.4-78.5-100.6-80.9-168.3c-0.5-13.9-3.9-19-18.5-16.5c-19.7,3.3-39.6,5.8-59.5,7
			c-13.5,0.8-17.6,5.6-17.7,19.3c-0.5,61.8,4,123.2,13.1,184.2c9.5,63.4,14.7,127.7,35.1,189.2c25.3,76.1,74.9,127,151.7,150.5
			c65.7,20.2,131.8,17.3,198.7,5.2c208.6-37.8,343.1-232.1,345.3-413.3c1.4-119.8-45.2-222.6-113.5-317.6
			c-5.1-7.2-10.2-7.8-18.2-2.4c-20.6,13.9-42.2,26.5-65.9,33.9c-18.9,5.8-23.1,13.5-18.1,33.7c35.8,144.8-34.6,276.3-173.6,325.7
			c-11.2,4-14.2,9.2-13.8,20C2032,2586.9,2031.5,2607.7,2031.5,2628.5z M1360.9,1491.1c24.2-1.6,44.8-3,65.5-4.3
			c89.5-5.7,179.1-11.5,268.6-16.9c12.1-0.7,16-5.5,15.7-17.3c-0.8-29.5,0.8-59-1.1-88.4c-2.5-39.3-2-79.5-17.6-116.6
			c-18.8-44.8-45.2-80.3-95.8-97.6c-112.7-38.6-179.9-149.2-170.9-271.6c8.2-111.5,94.5-208.5,206.8-233c23.3-5.1,47.1-6.3,71.3-7.4
			c-108.7-176.4-74.2-333.2,64.6-481.8c-150.5,6.6-297.7-10.6-445.8,27.6c9.5,8.5,16,14.3,22.4,20c51.5,46.4,97.8,96.9,133.6,157
			c53.6,90.1,57.9,181.3,12.8,276c-29.2,61.4-69.7,115.7-105.5,173c-80.6,129.3-89.5,259.6-3.9,390.3c34.8,53.2,42.1,110,29.2,171.1
			C1402,1412.9,1382.8,1450.2,1360.9,1491.1z M1076,329.5c46.4,14,86.7,31.2,123.3,56.7c108.5,75.5,143.9,189.4,90.7,310.2
			c-48.1,109.2-117,204.3-213.3,277.1c-13.1,9.9-18.6,17.6-10.2,33.7c5.5,10.4,5.1,23.4,4.8,35.5c-0.9,34.1-2,68.3-2.3,102.4
			c-0.2,23.7,7.6,31.5,31.2,31.7c17.4,0.1,34.8-1.7,52.2-2.2c37.5-1.1,71.2,9.9,87.4,45.2c27.3,59.6,37.9,122.6,22.4,187.8
			c-9.1,38.5-34.5,65.3-72.9,88.3c35.4,2.7,64.5-0.7,93.6-0.5c12.1,0.1,19.6-3.9,25.8-14.3c14.8-24.7,28.9-49.8,39.8-76.5
			c26.3-64.5,27.9-126-13.6-186.9c-52.6-77.1-70.2-163.7-59-256.5c8.8-73.2,41.8-136.1,80.3-197.1c34.6-54.8,73.5-107.1,98.7-167.5
			c22.7-54.3,27-109.4,4-164.1c-38.1-90.8-105.9-158.2-179.3-220.6c-5.7-4.8-11-6.7-18.1-3.3C1195.3,239.9,1133.7,278,1076,329.5z
			 M1681.9,1048.7c-0.8,0-1.7,0-2.5,0c0,15.4,1.3,30.9-0.3,46.2c-2.1,18.9,4.8,24.4,23.1,22.7c87.3-8,149.9-51.9,184.3-131.7
			c35.3-81.9,18.2-159.3-38.2-224.7c-60.5-70.1-140.7-89.9-227.9-61c-86.7,28.8-135.6,93.1-145.8,184
			c-10.7,95,50.8,190.3,139.9,220.6c6.1,2.1,15.7,10.7,16-5.9c0.5-33.5,1.3-66.9,2.5-100.4c0.4-12.1-5.1-14.3-15.8-13.6
			c-18.2,1.3-34.6-3.9-47.5-17.3c-19.8-20.7-26.1-45.3-16.1-72.2c11.1-29.8,34.4-45.4,65.6-48.4c13.6-1.3,32.8,5.6,39.7-1.2
			c9.1-8.9,2-27.8,2.8-42.4c0.3-5.8-1-11.4,8-13.3c32.6-6.9,41-0.7,41.1,32.1c0,8.7,0.1,17.4,0,26.1c-0.3,33.9-23.7,54.5-57.4,50.7
			c-8.6-1-17.3-3.6-25.8-3.1c-14.1,0.7-27.9,5.4-28.8,22c-1,18.2,13,17.9,26.6,18.1c33.4,0.4,52.4,16.8,56,50.5
			C1683.6,1007,1681.9,1028,1681.9,1048.7z M1022.1,1092.4c0-17.4,0.2-34.8-0.1-52.2c-0.5-28.1-11-39.1-39.2-39.1
			c-35.9,0-64.2,17.1-86.9,43.5c-39.8,46.4-49.3,102.9-51,161.3c-2.7,94.6,24.3,174.9,109.1,228.8c69.5,44.2,140.1,52.8,214.7,15.5
			c25.5-12.7,41.8-33.1,47.8-61.1c9.6-44.8-0.7-87.9-13-130.4c-8.3-28.6-20.7-35.7-50.7-34.5c-22,0.9-44,4.3-66.1,1
			c-38.8-5.7-60.8-28-66-66.8C1017.6,1136.5,1021.4,1114.5,1022.1,1092.4z M1008.1,110.3c-40.6-18.6-78.7-18.7-123.3,1.9
			c-107.4,49.5-178.2,130.6-205.7,246.6c-27.1,114.3,18,206.7,118.5,249.1c14.8,6.2,19.9,2.8,26.2-10.8
			c60.8-131.9,141.5-248.7,259-337.1c7.4-5.6,10.4-11.9,8.2-20.6c-7.4-28.5-17.4-56-31.8-81.9c-7.9-14.2-14.2-12.8-25.6-3.9
			c-68.2,53.8-124.2,118-164.7,194.9c-9.2,17.5-17,23.1-33.4,10.8c-2.1-1.6-4.7-2.7-7.2-3.5c-13.3-4.2-14.7-10.4-7.8-23.2
			c39.8-73.9,90.5-139,154.1-193.8C985.1,129.6,995.8,120.8,1008.1,110.3z M800.1,1145.1c2.9-12.3,4.4-19.5,6.2-26.5
			c17.9-71.1,53.6-128.2,124.4-157.2c11.7-4.8,7.2-10.1,3.8-16.6c-11.2-21.4-21.6-43.1-27.6-66.6c-15-59.3,12.8-91.3,73.4-85
			c17.3,1.8,34.6,3.8,52,4.3c9.2,0.3,18.5-1.2,22.1-13.1c10.1-33.3-2.3-78.3-29.2-98.6c-15.1-11.4-29.1-23.7-24.8-44.3
			c4.5-22,24.5-26.3,42.9-31c1.9-0.5,4-0.4,6-0.9c33.1-7.8,67-12.8,99.2-24.5c19.5-7.1,28.5-20.8,27.6-41.6
			c-1.4-32.4-22.5-50.2-48.1-64.1c-47.3-25.5-98.3-28.1-150.5-24.2c-12.5,0.9-20.1,5.4-27.3,16.1c-38.5,57.5-70.7,118.3-98,181.7
			C784.7,809.9,762.8,971.8,800.1,1145.1z M1634.3,2681.1c-0.8-7.1-2.8-20.4-3.8-33.7c-0.9-11.3-4.2-14.7-16.3-10.7
			c-57,18.6-108.4,6.3-153.8-31.5c-9.6-8-15.1-8.2-24.8-0.4c-43.5,35-93.2,44-147.5,34c-12.2-2.3-24.6-16.5-34-9.4
			c-8.5,6.4-8.1,23.6-14.4,34.4c-18.5,31.8-12.6,62.7,0.6,94c27.4,65.1,73.7,111.1,140,135.5c73.8,27.2,148,6.7,197.8-52.6
			C1615.4,2796.4,1632.7,2744.8,1634.3,2681.1z M2101.5,217.9c4.3,5.1,7.6,9.2,11.1,13.1c90.7,100.7,126.9,218,106.6,352.1
			c-1.7,10.9,2.4,13.9,11,17.1c35.3,13.1,68.6,30.5,98.2,53.6c10.8,8.4,15.2,4.8,21.5-4.2c22.7-32.5,42.5-66.6,55.4-104.2
			c30-87.1,36.2-174-4.7-259.7c-22.9-48-59.7-80.1-112-92.6c-6.7-1.6-17.3-7-17.9,7.2c-1.4,36.2-1.9,72.3,4.3,108.2
			c1,5.8,4.4,14.2,11.6,9.8c19.4-12.1,30.4,3.9,44.4,10.9c11.7,5.9,10.1,12.1,1.7,19.4c-19.3,16.8-40.8,26-66.4,17.6
			c-26-8.5-36.9-29.1-41-54.6c-6-36.6-3.7-73.5-3.8-110.3c0-8.1-0.1-14.5-11.4-13C2172.9,193,2137,201.7,2101.5,217.9z M2178,2286.9
			c0.5-18.7-3.1-41.1-8.5-63.4c-2.3-9.6-6.4-11.5-15.5-9.2c-17.5,4.4-35.2,8-52.9,11.5c-24.6,4.9-24.6,4.7-17.9,29.8
			c17.7,65.6,3.5,96.6-57.7,126.7c-3,1.5-5.9,3.1-9,4.4c-29.2,12.7-55.6,5.1-73.6-21.5c-10-14.8-14.1-31.7-16-49.1
			c-1-9.5-3.3-14.1-15.1-10.8c-21.2,5.9-43.1,9.8-64.8,13.6c-10.2,1.8-17.9,7.1-14.9,16.7c4.8,15.5,3.4,31.5,7,47.1
			c22.1,97.4,113.7,149,201.6,113C2129.3,2459.6,2178.1,2386.8,2178,2286.9z M1003.6,405c10.4,0,19.5-0.3,28.5,0
			c51.3,1.9,99.3,15.2,141.3,45.1c39.2,27.9,58.2,66.4,50,114.8c-7.8,45.5-41.8,64-82.6,74.1c-23.6,5.8-47.1,11.6-71.2,17.6
			c34.7,49.2,40.2,71,33.9,131c-3,28.4-21.9,49.2-49.5,56.3c-28.3,7.3-56-0.3-83.8-2.6c-15.1-1.3-21,1.9-17.1,18
			c7.6,31,21.3,59.2,38.1,85.8c8.2,13,21.6,14.4,34.7,5c105.8-76,181-176.1,227.4-296.8c24.2-63,13.4-124.2-29.5-177.7
			c-41-51.1-96.3-79.7-158-97.4C1029.6,367.8,1027.1,369.1,1003.6,405z M2330.2,1338.2c-71.2,82.4-153.8,136.3-264,153.6
			c106.9,50.2,192.5,117.7,265.2,206.8C2352.1,1576.7,2351.4,1459.9,2330.2,1338.2z M1277.4,2328.2c11.4,76,10.1,148.6-3.8,220.9
			c-4.9,25.7,3.2,37.6,29.4,42.6c56.7,10.8,115.6-18.5,139.5-71.7c22.6-50.4,25.9-103.3,14.5-157.2c-1.4-6.5-3.2-11-11.2-11.2
			C1389.7,2349.6,1334.3,2340.7,1277.4,2328.2z M882.9,2432.5c99-2.6,175.7-58.6,209.9-152.2c4-10.9,2.1-15-7.6-20
			c-20.5-10.6-40.5-19.6-64.2-9.2c-7.1,3.1-15.8,3.9-23.7,3.6c-13.2-0.4-17.9,3.8-19,18c-3.7,47-35.9,75.9-80.8,74.4
			c-19.7-0.6-37.6-8-55.5-15.7c-24.4-10.5-34.5-29.1-36.4-55c-1.2-16.7,12.8-37.1-1.5-48.8c-13-10.7-33.8-11.4-50.5-18.3
			c-10.1-4.2-12.8-0.8-15,7.9c-6,23-6,46.5-4.8,69.9C738,2371.5,802.9,2434.6,882.9,2432.5z M808.6,1341.2
			c-71.7,64.9-90.4,210.9,47.1,263c15.5,5.9,28.1,5.6,43.2-2.4c46.8-24.6,96.3-43.2,146.5-59.7c6.5-2.1,15-1.5,19.2-9.8
			C950.7,1507.7,864.4,1446.1,808.6,1341.2z M1641.8,2402.2c0-14.1-0.4-28.1,0.1-42.2c0.4-9.9-1.6-14.1-13.3-13.2
			c-36.7,2.7-73.5,4.4-110.2,5.6c-11.9,0.4-12.1,4.9-10.4,14.9c10.5,61.6,3.6,121.4-23,178.2c-4.6,9.8-1.3,14.2,5.1,20.2
			c45.5,43.1,116,39.6,157.9-7.5c6.2-7,6.6-13.8,5.3-22.1C1646.5,2491.7,1643.4,2447,1641.8,2402.2z M2059.9,1169.7
			c-20.9,16.9-40,32.6-59.3,47.9c-6.1,4.8-8.2,9-4,16.7c11.5,21,22.4,42.4,33.1,63.9c4.3,8.8,8.6,10.2,16.6,3.9
			c16.9-13.2,33.1-27,47.6-42.9c3.5-3.8,7.6-6.9,4.1-13.7C2085.1,1220.9,2072.9,1195.8,2059.9,1169.7z M1898.7,1366.7
			c30.7-6.8,60.4-17,88.8-30.6c6.6-3.2,2.4-7.9,0.4-11.8c-9.7-19-19.9-37.8-29.4-56.9c-4-8.1-7.4-9.3-14.6-3
			c-13.5,11.9-28,22.8-41.8,34.3c-29,24.3-29,24.4-14.1,58.7c0.5,1.2,0.8,2.6,1.3,3.8C1890.9,1365.4,1893.9,1367.5,1898.7,1366.7z
			 M1983.3,900.1c2.9-2.6,5.4-4.8,7.7-7.1c10.5-10.3,20.9-20.6,31.4-31c28.2-27.8,28.2-27.8,10.6-64c-13.2-27.1-13.2-27.1-37-6.6
			c-15.7,13.5-39.2,24.5-44.7,41.3c-6,18.4,15.5,37.5,23.6,57c1,2.4,2.3,4.9,3.8,7C1979.7,898.1,1981.5,898.8,1983.3,900.1z
			 M2118.9,977.8c-13.1,11.2-24.8,21.1-36.4,31c-35.8,30.7-35.8,30.7-12.3,71.3c0.3,0.6,0.7,1.1,1,1.8c3.6,9.3,8.4,8,14.9,2.5
			c17.3-14.8,34.8-29.3,52.7-43.4c5.9-4.6,7-8.5,3.5-15.1C2134.4,1010.6,2127.2,994.9,2118.9,977.8z M2008.6,1072.1
			c-15.4,13-30.2,27.4-47,39.1c-17.1,11.9-18.5,22.8-7.9,40.7c16.6,28,15.3,28.8,40.9,7.2c45-37.9,45-37.9,16.7-84.8
			C2011.1,1073.7,2010.4,1073.5,2008.6,1072.1z M1928.6,1210.7c-2-4.3-3.7-7.9-5.4-11.4c-18.8-39.1-18.8-39.1-51.1-10.9
			c-33.2,29-33.2,29-17.8,68.5c0.2,0.6,0.6,1.2,0.7,1.8c1.8,10.8,6.4,9.2,13.2,3.6c17.8-14.9,36.1-29.4,54-44.1
			C1924.8,1216.1,1926.5,1213.3,1928.6,1210.7z M2133.5,1206.2c20.2-30.8,32.3-61.7,42.5-93.4c2.3-7.3,1.1-14.1-2.2-21.2
			c-3.7-7.9-6.7-10-14.2-3.6c-17.2,14.7-35,28.7-52.6,42.9c-4.4,3.5-7.8,7.1-4.6,13.4C2112.6,1164.3,2122.5,1184.4,2133.5,1206.2z
			 M2026.8,990.7c14.4-12.2,27.6-23.4,40.9-34.4c30.4-25.2,30.4-25.2,12.4-60.2c-0.6-1.2-1.4-2.3-1.9-3.5c-3.2-9.4-7.5-9.1-13.9-2.3
			c-10.1,10.7-20.8,20.7-31.2,31.1C2002.6,951.6,2002.6,951.6,2026.8,990.7z M1759.5,1351c18.9-15.3,35.3-28.7,51.7-41.9
			c4.9-4,5.5-8.8,3.6-14.3c-3.8-11.3-8-22.6-11.4-34c-2.7-9-6.2-7.5-12.6-3.1c-26,17.9-45.6,38.3-33.8,73.6
			C1758.6,1336.3,1758.4,1341.8,1759.5,1351z M1741.2,1235.2c12.5-10.6,23.2-19.6,33.7-28.7c3.9-3.4,7.2-6.2,6-13.2
			c-5.6-33.2-10.7-37.1-43-30.8c-6.5,1.3-13.2,2.3-19.8,2.8c-9.2,0.7-14.8,2.4-7.1,12.7C1723.4,1194.8,1732.1,1213.6,1741.2,1235.2z
			 M1985.2,1020.7c-4.5-9-9.5-19.2-14.8-29.1c-1.9-3.5-5-4.1-8-1c-18.4,19.1-40,35.4-53.9,58.7c-7.3,12.2,2.5,21.2,8.3,28.3
			c6.7,8.1,12.1-3.2,16.9-7.1c15-12.1,29.3-25.1,44-37.7C1981.2,1029.9,1985.7,1027.7,1985.2,1020.7z M2152.1,806.9
			c-42.7,29.9-43.3,33.7-25,74.3c7,15.6,12.2,14.4,23.4,4.6c29.4-25.6,29.8-25.2,12.3-59.8C2159.6,819.6,2155.7,813.3,2152.1,806.9z
			 M1991.1,730.7c-31.7-2.7-61.1,2.7-90.3,13.8c8.7,14,16.7,26.9,25.5,41C1948.5,766.8,1969.8,748.8,1991.1,730.7z M2192.5,917.9
			c-35.9,21.7-36.3,22.8-21.1,54.7c2.6,5.4,4.7,11.1,7.8,16.1c2.5,4,2.4,12.2,9.6,10.4c6.5-1.7,7.8-8.5,7.5-14.8
			C2195.1,963.1,2193.8,942.1,2192.5,917.9z M1825.1,1163.5c13.7-11.8,26-24.3,40.3-34c14.7-10,16.1-19.3,3.6-31.7
			c-12.3,9-23.8,19.8-37.3,26.6C1810.8,1134.9,1814.6,1147.4,1825.1,1163.5z M2058.9,736.3c9.1,19.4,16.9,35.5,24.1,51.8
			c3.9,8.7,7.9,6.9,13,1.4c3.6-3.9,7.2-8,11.5-11.3c10-7.6,10.6-13.8-0.9-20.9C2092.9,748.8,2079.5,740.3,2058.9,736.3z
			 M1805,1378.9c13.3-0.9,20.4-1.2,27.5-1.8c4.2-0.4,8-2.2,6.9-7.3c-0.8-3.8-1.8-8-4.1-10.9c-3.7-4.9-6.8,0.2-9.4,2.2
			C1820.3,1365.2,1815.1,1370.1,1805,1378.9z"/>
		<path class="st0" d="M1231.8,1820c-69.8,27.9-132.6,63.1-191.8,104.7c-27.9,19.6-54.2,41.5-80.5,63.2c-8.4,6.9-12.7,10.1-21.9,0.1
			c-23.9-26.2-24.6-25.7,2.4-48.3c154.6-129.2,330.9-210,531.9-230.6c267.4-27.4,505.8,47.5,716,214c7.4,5.8,14.6,11.7,21.8,17.8
			c24.9,21.3,24.3,20.7,2.4,45.4c-9.6,10.8-14.6,9.6-24.8,0.6c-97.8-85.9-208.7-149.1-332.4-190.1c-17.2-5.7-21.7-3.1-19.9,15.4
			c2.8,29.5-0.9,58.9-8,87.7c-19.4,78.1-80.8,119.8-159.6,103.4c-33.7-7-59.9-11.3-91.2,13.4c-35.3,27.8-76.9,13.6-112.2-10.3
			c-10.5-7.1-16.8-7-27.6-0.1c-36.8,23.6-75,22.8-111.7-0.4c-60.9-38.5-89.7-95.4-92.7-166.4
			C1231.6,1834.1,1231.8,1828.8,1231.8,1820z M1451.1,1828.9c0-17.4-0.2-34.8,0.1-52.1c0.2-11.8-2.8-15.9-16.3-13.8
			c-47.1,7.3-92.8,19.4-138.2,33.2c-11.3,3.4-14.3,10.4-15,20.4c-3.9,55.5,12,103,56.6,138.6c42,33.5,89.1,17.6,103.6-34.8
			C1450.1,1890.4,1449.7,1859.5,1451.1,1828.9z M1619.3,1806.2c-0.6-12-1.2-24-1.9-36c-0.6-11.5-4.3-18.5-18.1-17.7
			c-26.7,1.5-53.4,2-80.1,1.8c-15.7-0.1-19.6,5.6-18.9,21.3c2.7,58.8,3.1,117.7-16.9,174.3c-2.3,6.5-0.2,9.6,4.3,13.5
			c30.6,26.8,66.6,22.5,89.3-11.5C1606.4,1907.9,1620.5,1859.2,1619.3,1806.2z M1669.1,1807.4c-1,36.1-5,72.5-18.3,107.4
			c-12.9,33.8-12.7,34.3,23.5,40.3c11.1,1.8,22.8,2.4,33.9,1.3c30.2-3.2,53.5-17.6,64.1-47.2c13.7-38.4,18.4-77.8,10.7-118.4
			c-2.2-11.6-7.8-17-19.5-18.7c-21.2-3-42.1-7.7-63.2-10.9c-34.8-5.3-34.8-5-32.3,29.3C1668.3,1795.9,1668.7,1801.2,1669.1,1807.4z"
			/>
		<path class="st0" d="M1800.3,320.5c40.8,0.1,72.7,31.5,73.2,72c0.5,41.1-32.1,73.9-73.4,73.9c-41.3,0-73.9-33-73.3-74.1
			C1727.5,351.9,1759.8,320.4,1800.3,320.5z M1824.2,392.8c-1.6-14.6-9.7-23.7-24.7-23.3c-15.1,0.4-23.6,10.7-23,25
			c0.5,13.3,9,22.5,23.5,22.4C1815,416.7,1823,408.1,1824.2,392.8z"/>
		<path class="st0" d="M949.6,2620.8c0-36.7,29.2-66.7,65.6-67.4c36.9-0.7,68.1,30.1,68.2,67.2c0.1,37.2-31,68-67.9,67.4
			C978.9,2687.3,949.7,2657.5,949.6,2620.8z"/>
		<path class="st0" d="M664.5,2508c36.2,0.8,65.8,31.6,64.9,67.8c-0.9,37-31.8,66-69.6,65.3c-36.6-0.7-65.1-30.8-64.4-68
			C596.1,2535,625.7,2507.1,664.5,2508z"/>
		<path class="st0" d="M2202.2,2705.9c-37.9,0.2-65.8-27.5-65.8-65.3c0-36.5,29.4-66.9,65.6-67.8c36.4-0.9,67.8,30.4,67.8,67.6
			C2270,2678.7,2242,2705.7,2202.2,2705.9z"/>
		<path class="st0" d="M1878.9,2595.9c37.6,0.1,65.5,28.3,65.3,66c-0.2,36.4-30.3,66.9-66.3,67.2c-36.6,0.4-67.4-31-67.2-68.3
			C1811,2622.3,1838.8,2595.8,1878.9,2595.9z"/>
	</g>
</g>
</svg>
