<?xml version="1.0" encoding="utf-8"?>
<!-- Generator: Adobe Illustrator 23.0.0, SVG Export Plug-In . SVG Version: 6.00 Build 0)  -->
<svg version="1.0" xmlns="http://www.w3.org/2000/svg" xmlns:xlink="http://www.w3.org/1999/xlink" x="0px" y="0px"
	 viewBox="0 0 3000 3000" style="enable-background:new 0 0 3000 3000;" xml:space="preserve">
<style type="text/css">
	.st0{stroke:#000000;stroke-width:10;stroke-miterlimit:10;}
</style>
<g id="Layer_1">
</g>
<g id="Layer_2">
	<g>
		<path class="st0" d="M1910.1,2461.6c-78.8,3.1-157.7,4.8-236.5-0.4c-119.1-8-233.3-36.2-341.8-86c-40.1-18.4-76.1-43.6-106.9-75.2
			c-8.8-9.1-15-9.6-26.1-3.3c-110,62.8-227.1,107.7-351.3,133c-112.5,22.9-225.4,26.2-336.1-9.1
			c-155.2-49.4-256.5-156.2-315.8-305.2c-33.9-85-50.9-174.1-59.3-265c-13.6-146.1-7.1-292.2,2.5-438.1
			c6.1-92.3,10.9-184.7,24.1-276.3c11.6-80.3,29.8-159,61.2-234.4c51.1-122.5,133.3-217.8,247.5-285c142.8-84,297.5-128,463.1-126.2
			c173,1.8,329.5,58.2,470.8,157.2c10.9,7.7,17.3,7.1,28-0.3c137.3-95.9,290.1-154.1,454.1-184.4c117-21.6,234.7-28.2,353.3-16.3
			c126.4,12.6,247.7,43.6,358.8,106.9c168,95.7,270.3,238.2,304.8,429.4c15.9,88.2,21.3,177.1,24.9,266.3c4.4,110,8.3,220.1,4,330.2
			c-5.8,152.4-26.8,302.2-88.9,443.2c-37.8,86-85,166.7-147.7,237.6c-83.4,94.2-185.8,151.9-311.7,169
			c-105.5,14.3-211.4,19.9-317.5,25.6C2015.1,2457.4,1962.6,2459.3,1910.1,2461.6z M1983.6,1208.1c7.6,1.3,12.5-2.9,17.9-5
			c89.4-36.4,181.9-51.1,278.1-40.6c3.7,0.4,10.1-0.9,10.3,2.7c0.7,11.4,0.5,23.5-4.1,33.9c-3.2,7.1-11.8,3.1-17.8,2.5
			c-99-9.1-192.7,9.8-281.9,52.9c-7.2,3.5-12.3,7.6-15.1,15.8c-40.5,120.5-122.9,194.9-248.9,212.6
			c-120.2,16.9-217.8-28-290.2-125.9c-5-6.8-10.4-9.9-18.6-11.2c-41.3-6.8-82.9-8-124.5-5.1c-72.6,5-141.2,23.9-203.5,62.6
			c-58.1,36.1-99.2,85.4-116.7,152.6c-15.2,58.6-16.2,118-9.6,177.8c5.2,47.9,18.2,93,45.6,133.7c33.2,49.5,74.8,84.1,136.7,91.7
			c36.9,4.5,73.5,11.5,110.5,15c158.9,15.3,318.3,15.9,477.7,14.2c8.9-0.1,12.8-2.6,13.3-11.8c0.9-18,2.6-36,4-54
			c4.8-59.5,6.1-119.4,15-178.3c21.3-140.6,99.6-239.7,233-288.6c130.4-47.8,249.3-18.1,352.4,72.5c86.9,76.3,125.6,173,113.4,288.9
			c-7.8,73.8-35.1,141.2-72.4,204.2c-66.4,112.4-162.7,186.7-291.1,215c-75.6,16.7-152.6,22.8-230.1,21.2
			c-26.9-0.5-53.5-4.3-79.4-11.9c-105.5-30.8-175.5-101.4-219.8-199.5c-5.7-12.7-12.2-17.6-26.5-17.8
			c-134.8-1.8-269.4-5.9-402.5-29.6c-9.5-1.7-10,2.5-8.6,9.9c1.9,10.2,3.2,20.5,5,30.8c26.7,151.3,107.8,259.6,252.2,317
			c139.2,55.2,284.4,73,433.1,67.3c75-2.8,150-5,224.9-8.4c110.5-5,220.8-11.3,330.6-25.7c111.3-14.6,203.8-62.6,279.7-144.4
			c66-71.1,114.2-153.7,152.9-241.7c53.1-120.8,73.6-249.2,81.9-379.8c7.5-117.7,3.5-235.5-0.9-353.1
			c-3.5-93.5-8.4-186.9-24.9-279.5C2833.3,813,2739.1,680,2582.8,590.3c-107.4-61.6-224.2-92.5-346.3-103.8
			c-194-17.9-383.1,6.7-564,79.1c-313.1,125.2-513.6,346.9-574.5,684.7c-6,33.6-9.1,67.6-9.2,104c99.3-50.3,202.7-62.4,311.6-51.3
			c-35.1-95.4-32.7-187.5,19.4-274.4c52-86.7,129.8-136.6,230.7-147c82-8.5,156.7,13.3,220.7,65.9
			C1953.1,1014.7,1988.7,1103,1983.6,1208.1z M1118.8,1026.9c2.3-1.8,2.9-2,3.1-2.5c59.1-132.3,143.9-245,256.8-336.1
			c6.9-5.6,4.1-8.3-1.5-11.8c-19-11.9-37.6-24.5-57-35.8c-106.9-62.9-222.3-99.8-346-108.5c-136-9.6-265.4,19.1-390.2,71.8
			C416.5,674.6,298.6,792,242.3,967.2c-27.4,85.3-42.5,173.1-49.7,262.2c-12,147.9-23.4,295.9-23.8,444.5
			c-0.3,131.3,9.1,261.6,50.1,387.5c29.5,90.5,74.6,171.6,148,234.4c107.4,91.8,234.6,118.4,371.3,108.4
			c157.3-11.5,301-67.2,439.1-139.6c8.3-4.3,8.7-7.4,3.4-14.5c-56-74.3-83.7-159.1-91.5-251c-0.7-8.1-3.1-12.7-11.4-15.3
			c-14.1-4.3-28-10.1-39.4-19.8c-50.7-43.8-90.2-95.4-107.2-161.4c-18.1-70.3-20.3-141.5-10.3-213.4
			c11.4-81.4,47.2-148.5,112.9-198.6c9.9-7.6,13-15.4,13.4-27.3c0.4-13.8-3.8-14-14.7-9.5c-35.1,14.5-68.7,31.6-98.6,55.1
			c-42.8,33.5-77.4,73.2-86.5,129c-5.1,31.3-8.6,62.9-10.9,94.6c-8,107.5-16.1,215.1-22.2,322.7c-4.8,84-50.9,135.7-124.4,167.5
			c-52,22.5-106.8,28.3-162.5,22.6c-96.5-9.9-168.3-57.2-206.1-148.1c-62.1-149-5-326.2,131.3-412.6
			c67.2-42.6,141.2-60.6,220.3-59.6c7.2,0.1,14.6,2.9,16.3-9.5c7.2-50.8,23-99,48.7-143.7c3.9-6.9,2.7-9.7-5.1-10.5
			c-10.9-1.2-21.8-2-32.5-4.4c-93.3-21-158.4-73.1-179.5-169.7c-35.5-162.1,73.5-339.1,236.5-386.2
			c118.5-34.2,236.2,5.9,308.2,105.4C1091.6,941.9,1108.5,982,1118.8,1026.9z M1607,2031.1c32.1,85.1,119.6,171.3,233,183.9
			c56.1,6.3,111.5,0,167-5.4c44.1-4.3,88.1-10.5,129.9-26.1c122.3-45.7,202.8-133.3,251.5-252.6c22-53.7,37.8-108.7,34.6-167.3
			c-8.4-153.6-131.3-256.1-245.8-281.5c-187.1-41.6-369.5,100.3-377.8,292c-0.8,19.1-3.1,38.2-4.6,57.2
			c-3.9,46.9-7.5,93.8-11.8,140.6c-1.1,12.4,2.6,15.9,15.2,15.2c37.7-2.2,75.5-2.6,113.2-4.5c71.1-3.5,142.1-7.7,213.2-11.1
			c27.5-1.3,27.2-0.7,27.6,27.6c0.1,8.1-1.7,11.4-10.6,12c-171.6,10.8-343.4,17.6-515.4,18.4
			C1619.9,2029.6,1613.3,2028.2,1607,2031.1z M1679.4,1446.1c142.7,2,262.2-115,264.5-258.9c2.3-144.7-115.2-265.6-259.8-267.3
			c-145.5-1.7-263.7,113.7-266.3,260.1C1415.4,1325.9,1531.6,1444.1,1679.4,1446.1z M783.6,1799.8c1-8.5,1.8-13.9,2.2-19.3
			c4.7-73.7,9.3-147.4,17.5-220.9c5.6-49.7,20.9-94.6,54-133.1c41.2-48.1,91.2-84.7,150.6-104.7c35-11.8,50.5-29.9,48.8-65.7
			c-0.8-16.6,7.3-32.7,6.4-49.8C728.5,1257.7,657.7,1579,783.6,1799.8z M964.4,1036.1c-2.2-26.9-4.5-52.5-6.2-78
			c-0.4-6.4-3.4-8.1-9.1-8.9c-29.2-3.9-58.3-7.9-87.4-12.4c-9.6-1.5-10.9,1.9-10,10.5c2.2,20.6,3.7,41.3,4.7,62
			c0.4,8.7,4,12.4,12.1,14.3c28.1,6.5,56,13.5,84,20.3C960.4,1045.8,967.3,1046.7,964.4,1036.1z M973.6,1162.5
			c-1.7-21.4-3.6-42.6-5.1-63.9c-0.5-6.8-2.5-10.3-10.1-12c-28.8-6.4-57.3-13.6-85.9-20.9c-8.1-2.1-10.8-0.6-10,8.2
			c2.1,22.3,3.7,44.7,4.9,67.1c0.5,8.7,4.6,12.1,12.7,13.7c27.3,5.5,54.4,11.5,81.6,17.5C970.1,1173.9,976.4,1173.9,973.6,1162.5z
			 M568.3,1829.2c25.2,14.4,49.4,28,73.3,41.9c5,2.9,8.1,0.8,11.5-2.5c22.8-21.9,45.8-43.8,70-67c-26.5-13.5-51.7-26.3-76.8-39.2
			c-5-2.6-8.2,0.1-11.5,3.3C613.1,1786.4,591.4,1807.1,568.3,1829.2z M826.7,1130.6c-2.4-24.5-4.6-46.3-6.4-68.1
			c-0.5-6-1.3-10-8.4-11.6c-27.7-6.2-55.3-13-82.8-19.8c-7.4-1.8-9.9-0.5-8.6,7.7c3.6,23.8,7.1,47.6,9.4,71.5
			c1,10.1,5.7,13.9,14.6,15.6c22.5,4.4,45.1,8.6,67.3,14.3C824.2,1143.4,829.1,1141.2,826.7,1130.6z M596.1,1737.1
			c-18.5-9.3-41.7-20.7-64.7-32.8c-5.7-3-8.8-1.7-12.7,2.3c-17.4,18.1-34.8,36.2-52.5,54c-5.5,5.5-4.7,8.6,1.8,12.1
			c19.1,10.5,38.1,21.2,56.9,32.1c4.5,2.6,8.2,2.7,11.6-1.2C556.5,1781.4,576.4,1759,596.1,1737.1z M815.7,1000.6
			c-1.8-19.7-4.2-39.8-5.2-59.9c-0.4-8.2-2.9-11-11.1-12c-27.6-3.5-55-7.7-82.5-11.9c-8.9-1.4-13.4,0.5-11.8,10.8
			c2.6,16.7,4.8,33.4,6.7,50.2c0.7,5.9,3.8,8.7,9.1,10c28.6,6.9,57.1,13.7,85.7,20.5C812.8,1009.8,817.8,1009.8,815.7,1000.6z
			 M1083.5,1064.5c-1.9-20.6-5.9-38.7-11.4-56.5c-13.7-43.8-13.8-43.7-59.3-49.5c-1.1-0.1-2.2-0.3-3.2-0.6c-7.6-2.3-11-0.6-10.2,8.4
			c2.2,26.1,4.2,52.3,5.3,78.5c0.4,9.6,5,13.2,13.5,15c17.6,3.9,35.1,7.9,52.5,12.7C1080.6,1075.2,1085.8,1074.4,1083.5,1064.5z
			 M688.3,1103.8c-3.4-26-6.9-51.9-10.1-77.9c-0.6-5.2-3.4-7.7-8.1-8.9c-20.1-5-40.2-9.9-60.4-14.9c-7.2-1.8-9.7,0.1-8.4,8.3
			c4.4,25.8,8.1,51.7,11.8,77.7c1,6.8,3.6,10.8,10.8,12.1c18.7,3.6,37.5,7.4,56,11.9C688.8,1114.3,689.1,1110.1,688.3,1103.8z
			 M479.4,1913.6c25,14.1,48.3,27.1,71.4,40.5c5.6,3.3,9.3,2.9,14-1.8c14.3-14.2,29.1-28,44-41.6c5.7-5.2,7.2-8.3-0.9-12.7
			c-21.1-11.4-41.8-23.5-62.6-35.3c-3.9-2.2-7.5-4.5-11.7-0.4C515.8,1879.2,498,1896,479.4,1913.6z M954.8,901
			c-1.4-11.3-3.9-19.2-2.9-26.5c2.2-16.1-6.8-21.9-19.6-27c-24.6-9.9-49.9-15.8-76.2-18.7c-11.6-1.3-14.5,2.6-13.2,13.3
			c1.6,13.6,3,27.2,3.2,40.9c0.2,9.1,3.9,12.3,12.5,13.4c28.2,3.5,56.4,7,84.4,11.6C953.4,909.6,956.2,906.9,954.8,901z M607,1623.7
			c-5.1-1.2-7.7-0.4-9.7,1.7c-13,13.3-25.9,26.6-38.8,39.9c-5.6,5.8,0.4,7.2,3.7,9c9.6,5,19.4,9.7,29.2,14.6
			c13.6,6.8,27.3,18.8,40.9,18.8c14.4,0,22.4-18.8,34.2-28.2c0.4-0.3,0.9-0.7,1.3-1c25.8-23,25.8-23.1-6.1-35
			C642.8,1636.4,623.7,1629.8,607,1623.7z M835.8,1245c-1.2-15.5-2.7-32.4-3.8-49.3c-0.5-7.8-3.9-11.4-11.7-13
			c-24.1-4.7-48.2-9.8-72.1-15.4c-8.3-1.9-11,0-9.7,8.6c2.6,16.8,4.7,33.6,6.9,50.4c0.9,6.6,3.4,10.6,10.8,12.2
			c23.4,5.1,46.8,10.6,69.9,17C836.3,1258.5,837.3,1254.6,835.8,1245z M399.7,1995.4c21.1,11.7,44.4,24.7,67.7,37.8
			c5.3,3,9.3,3.4,14.2-1.5c12.3-12.4,25-24.4,38.1-36.1c6.8-6.1,7-9.4-1.5-13.9c-20.2-10.8-40.2-22-60-33.6
			c-6.7-3.9-11.6-4.4-17.1,1.7C427.7,1964.9,413.9,1979.7,399.7,1995.4z M500.7,1837.6c-22.7-12.9-43.1-24.4-63.4-36.1
			c-4.3-2.5-7.7-2.8-11.5,1.2c-16.5,17.3-33.2,34.3-50.7,52.3c21.1,11.9,40.7,22.8,60,34.1c5,2.9,8.5,2.9,12.9-1.4
			C464.8,1871.3,482,1855.3,500.7,1837.6z M510.1,2056.6c25.8,14.4,47.3,26.3,68.5,38.5c6.6,3.8,10.2,2.6,14.6-3.6
			c9.5-13.3,19.6-26.3,30.1-38.9c5.2-6.3,4.4-9.6-2.6-13.3c-18.3-9.7-36.3-27.4-54.5-27.7c-17-0.2-28.9,24-43.8,36.6
			C519.5,2050.8,516,2052.7,510.1,2056.6z M430.5,1652.9c-2.4,1.9-5.3,3.6-7.3,6c-9.5,10.6-19.4,20.9-27.9,32.3
			c-21.6,28.6-21.4,28.8,10.3,46.1c2.9,1.6,6.3,2.5,8.7,4.5c6.7,5.6,11.4,3.4,16.7-2.3c14.1-15.3,28-30.9,43.3-44.9
			c11.5-10.5,11.3-16-3.5-21.6c-10.2-3.9-19.6-9.6-29.4-14.5C437.9,1656.7,434.5,1655,430.5,1652.9z M704.6,1225.7
			c-2.8-21.6-5.4-40.4-7.7-59.3c-0.8-6.7-3.5-10.8-10.6-12.2c-17.6-3.4-35.3-6.9-52.7-11.1c-11.2-2.7-11.7,2.6-10.4,11
			c2.4,14.5,4.6,29,6.7,43.6c0.9,6.6,3.4,10.6,10.6,12.2C661.2,1214.6,681.7,1220,704.6,1225.7z M595.4,1979.1
			c18.7,10.4,35.6,19.3,52,29c5.6,3.3,8.3,2.3,12-2.6c11.7-15.8,23.7-31.4,36.1-46.7c4.8-6,3.6-9.2-2.6-12.5
			c-10.6-5.7-21.1-11.5-31.3-17.8c-5.5-3.3-9.5-3.5-14.4,1.3C630.8,1945.8,614,1961.4,595.4,1979.1z M1010.7,1120.4
			c1.1,14.7,2.6,29.4,3.2,44.2c0.3,7.9,4,8.8,10.6,7.7c14-2.3,28-4.4,42-6.2c5.7-0.7,8.9-3.3,10.1-8.9c1.9-8.5,4.3-16.9,6.2-25.5
			c2.3-10,0-16.3-11.8-18.2c-13.4-2.1-26.6-6.3-39.8-9.5C1010,1099,1010,1099,1010.7,1120.4z M694.9,872.8
			c34.8,5,64.9,8.9,94.9,13.9c14.4,2.4,18.6-2,15.2-16.1c-1.9-7.9-1.7-16.3-1.7-24.5c0-10.4-3.2-14.8-14.7-12.1
			C756.9,841.3,727.3,853.1,694.9,872.8z M690.5,1898c32,25.3,32,25.3,59.2-9.9c2.3-3,4.3-6.5,7.1-9c15.6-13.4,14-26.5,1.5-41.4
			c-5.1-6.1-7.2-8-12.9-1.6C727.1,1857,708.5,1877.7,690.5,1898z M715,1305.8c-3.2-36.5-3.2-36.5-37-44.9c-10-2.5-20.2-4.6-30-7.7
			c-8.6-2.7-8.7,1.2-8.4,7.9c1,23.7,8.5,41.8,35.1,46.4c9.6,1.6,18.8,5.4,28.1,8.3C713.4,1319.2,719.1,1317.4,715,1305.8z
			 M338.8,1902.4c1.8,11.3,3.3,22.7,5.6,33.9c1.9,9.1,4.8,17.9,7.4,26.8c2.5,8.6,6.5,10.4,13.5,3.4c12.4-12.3,25.1-24.4,38.1-36
			c6.9-6.2,6.7-9.8-1.6-14.1c-15-7.8-29.6-16.3-44.5-24.3c-4.1-2.2-7.7-7.4-13.1-4.3C338.9,1890.9,338.6,1896.6,338.8,1902.4z
			 M767.3,1992c-0.2-0.6-0.2-2.8-1.3-3.5c-8.8-5.3-17.3-12.3-26.9-14.9c-7.5-2-9.9,8.4-14.2,13.4c-8.1,9.5-14.6,20.5-23.2,29.4
			c-11.2,11.5-10.8,19.3,4.8,24.9c7.9,2.8,13.7,12.1,23.2,9.2C740.4,2047.2,767.9,2004,767.3,1992z M464.3,1624.6
			c16.5,8.4,30.9,15.8,45.3,23.2c3.7,1.9,7.2,2.5,10.4-0.8c12.6-13,25.3-25.9,37.4-38.4C519.5,1579.8,494.4,1607.8,464.3,1624.6z
			 M669.9,965.2c-2.5-17.9-4.4-32.5-6.8-47c-1.9-12.1-9.8-12.8-17.3-6.2c-13.2,11.5-23.8,25.6-33.9,39.9c-5.1,7.2-1.5,9.1,5.3,10.6
			c13.9,2.9,27.8,5.8,41.4,10C670.2,976,672.2,972.1,669.9,965.2z M553.9,1139.9c2.3,14,4,29.2,7.4,44c2.7,11.9,14.4,9.5,22.8,11.4
			c4.6,1,4.4-3.1,3.9-6.6c-2.7-17.2-4.9-34.5-8.2-51.5c-2.2-11.2-13.3-7.8-20.3-9.2C551.4,1126.4,555.8,1134.8,553.9,1139.9z
			 M340.7,1830.5c13.7-10.2,23.4-21.9,33.6-33c20.2-22,20.1-21.8-6.4-35.5c-7.2-3.8-10.1-3.1-12.7,4.9
			C348.7,1787,343.5,1807.4,340.7,1830.5z M631.9,1589.4c9.8,3.7,17.3,6.7,24.9,9.4c28.8,10.4,28.3,10.4,28.1-20.6
			c-0.1-10.1-3.8-12.1-12.9-13.6C651.8,1561.3,645.5,1578,631.9,1589.4z M796.3,1292.5c-3.3-4.8-7.4-4.1-11-5
			c-35.3-9-36-8.3-27.7,27.9c2.4,10.3,8.2,11.2,14.7,4.7C780.9,1311.4,788.5,1301.6,796.3,1292.5z M877,1228.6
			c12.6-6.7,25-13.2,37.4-19.9c1.2-0.6,1.8-2.2,3.6-4.4c-6.6-1.7-12.2-3.4-17.8-4.6C869.2,1193.2,867.5,1195.2,877,1228.6z
			 M671.5,1730c15.2,7.6,28.3,14.2,44,22.1c-5.6-17.6-10.2-31.9-15.2-47.3c-3,2.2-5.2,3.6-7.1,5.3
			C686.4,1716.3,679.7,1722.5,671.5,1730z M688.3,2078.7c-24.9-16.5-30.4-14.3-44.2,17.3C659.3,2091.1,673.7,2086.6,688.3,2078.7z
			 M1023.2,917.7c-8.7-10.9-16.4-20.5-27.8-28C993.3,915.6,993.3,915.6,1023.2,917.7z M403.1,2043.9c6.8,12.4,17.4,19.9,28.1,27.4
			c3.8,2.7,7.4,2.2,9.8-1.7c2.7-4.3-1.4-5.6-4-7.1C425.7,2056.2,414.4,2050.1,403.1,2043.9z M564.7,1053.4c-2,9.7-3.6,17.9-5.4,26
			c-1.2,5.9,1.9,7.7,7.1,8c6.2,0.4,5.7-3.4,4.7-7.4C569.2,1071.8,570.9,1062.7,564.7,1053.4z"/>
	</g>
</g>
</svg>
