<?xml version="1.0" encoding="utf-8"?>
<!-- Generator: Adobe Illustrator 23.0.0, SVG Export Plug-In . SVG Version: 6.00 Build 0)  -->
<svg version="1.0" xmlns="http://www.w3.org/2000/svg" xmlns:xlink="http://www.w3.org/1999/xlink" x="0px" y="0px"
	 viewBox="0 0 3000 3000" style="enable-background:new 0 0 3000 3000;" xml:space="preserve">
<style type="text/css">
	.st0{stroke:#000000;stroke-width:10;stroke-miterlimit:10;}
</style>
<g id="Layer_1">
</g>
<g id="Layer_2">
	<g>
		<path class="st0" d="M562.4,1612.2C507,1582.6,460,1547,418.6,1503.6c-60-63-90.4-138-98-224.2c-7.4-84-4.9-167.8-2.7-251.8
			c3-118.8,12.6-237.2,23.7-355.5c4.9-52.3,13-104.3,25.7-155.4c22.9-92.5,79.4-163.1,151.1-221c148.2-119.6,317.5-191.1,508-207.2
			c181.6-15.3,363.1-8.5,543.9,12.9c95.9,11.4,187.1,38.6,265.6,98.4c16.4,12.5,31.4,26.4,44.8,41.9c7.6,8.8,11.3,7.7,18.1-0.9
			c90.8-114.7,213.4-159.7,355.2-154.8c128.8,4.5,231.9,62.7,306.5,167.6c43.7,61.5,46.4,129-14.8,183.8
			c-10.7,9.5-2.9,15.6,1.2,22.5c42.9,72.3,72.4,149.7,88.1,232.3c7.8,41,11.4,82.6,10.2,124.3c-2.5,88.1-7.3,176-14.5,263.8
			c-2.9,35.4-4.6,70.8-13,105.5c-7,28.7-16.3,56.6-32.6,81.2c-10.7,16.2-11.7,29.9-4.4,48.3c26.3,66,35.7,134.2,17.1,204.3
			c-20.1,75.8-65.9,132.2-132.8,174.2c15.1,9.8,29.8,18.2,43.2,28.2c58.2,43.2,93.5,100.3,102.5,172.8c4.6,37.3-2.4,72.3-26.1,102.3
			c-6.5,8.2-6.7,14.7-3.3,24c16.9,46.5,29,96.2,7.3,141.6c-22.2,46.4-25.7,95.2-35.6,143.4c-25.4,123.7-83,230.4-171.2,320.5
			c-8.8,9-14.8,17.7-16.4,31.3c-3.1,28-19.6,50.3-36.9,71.9c-74.5,92.9-174,142.7-288.2,166.8c-81.7,17.2-164.7,23.5-247.8,28.8
			c-105.6,6.7-211.3,12.6-316.9,18.4c-96.9,5.3-193.9,4.7-290.8,1c-139.9-5.3-279.6-15-419.1-27.5c-80.9-7.3-161.4-17.6-239.5-41.3
			c-135.2-41-198.2-117.6-214.1-258.2c-12.4-109.5-10.6-219.6-14.7-329.4c-3.2-85.4-2.4-170.7,9.1-255.7
			c15.5-114.9,64.7-214.5,136.7-304.1C477.9,1686,517,1648.1,562.4,1612.2z M2511.6,2256.8c-58.5,31.6-118.1,40.6-177.4,49.7
			c-129.6,19.9-260,33.7-390.8,43.6c-71.5,5.4-143.2,8.3-214.8,12.8c-11.2,0.7-14.8-3.2-13.8-13.7c0.5-5.4,0.6-11-0.3-16.4
			c-2.7-15.9,3.5-21.1,19.6-21.7c54.6-2,109.2-5.2,163.7-8.4c90.7-5.2,181-14.9,271.3-24.6c11-1.2,13.7-3.8,10.5-15.1
			c-5-17.7-7.4-36.1-4.1-54.7c9.3-52.4,44.3-82.7,89.1-104.7c22.9-11.3,47.7-17,71.9-25.1c-4.3-1.1-8.4-1.3-12.5-1.1
			c-187.7,12.1-375.5,10.5-563.3,3.7c-5.3-0.2-13.6,2.2-15-3.1c-3.8-13.9-1.7-28.6,1.9-42.3c2.6-9.9,13-4.7,19.7-4.5
			c109.3,4,218.6,5.9,327.9,4.8c11.6-0.1,19.8,0.3,21.7-16c10.8-91.9,65.7-155.1,155.4-176.3c72.2-17,145.8-21.1,219.7-11.5
			c16.1,2.1,32.1,5.2,51.5,8.4c-23.7-50.2-60.1-82.2-106.9-103.1c-36.3-16.2-74.2-27.9-113.5-33.5c-144.2-20.7-288.4-20.6-432.7,0
			c-11.2,1.6-16.2,6.7-19.5,17.1c-11.3,35.5-29.4,67.5-53.5,96c-33.5,39.7-74.6,64.2-128,68.4c-36.9,3-73.7,2.9-110.5,4.2
			c-82.6,3.1-165.3,2.7-247.9,1.2c-5.9-0.1-14.7,2.5-16.9-3.7c-4.8-13.6-4-28.8,0-42.2c2.7-9.3,14.4-4.6,21.9-4.6
			c115.4,0.6,230.8,1.9,346.1-5.1c37.1-2.2,66.9-16.9,91.2-44.2c22-24.8,38.6-52.9,49.3-84.3c1.7-4.9,5.5-9.7,0.7-15.8
			c-6.3,1.8-12.8,3.6-19.2,5.6c-52.1,16.6-105.1,22.3-159.7,15.5c-107.7-13.4-184.3-85.9-199.1-192c-2.1-15.2-7.6-17.2-20.6-16.5
			c-53.9,2.9-107.8,5-161.7,7.4c-147.4,6.3-294.6,16-439.6,45.5c-74.4,15.2-148.2,34.4-210.4,80.8
			c-150.3,112.1-247.2,256.1-261.6,447.8c-3.6,48.7-6.9,97.5-3.7,147c8.5-1.8,10.7-8.2,14.4-12.6c26.5-31.4,54.4-61.5,85.9-87.8
			c178.8-149.6,384.5-192.8,610.3-150.2c90,17,169.8,56.6,230.9,126.9c87.3,100.5,107.9,220.1,91.1,347.5
			c-22.3,169.1-104.8,306.7-229.5,420.7c-4.5,4.1-12,6.5-11.7,15.1c49.9,3.1,99,4.4,148.2,5.1c147.7,2,294.9-8.7,442.2-18
			c82.4-5.2,165-9.3,246.8-21.9c13.4-2.1,17.8-7.9,21.2-19.5c31.2-105.2,99.4-175.1,202.8-211.2c5.2-1.8,11.6-1.7,15.7-9.1
			c-65.2-1.6-128.1,6.3-190.9,15.1c-89.9,12.6-178.9,30.2-267.7,48.8c-4.7,1-11.2,6.2-13.5-2.4c-3.4-13.1-9.5-27.3-7.2-39.7
			c2.1-10.9,18.4-7.2,28.3-10.2c1.3-0.4,2.6-0.9,3.9-1.1c129.8-26,259.4-52.8,392.1-59.4c12.2-0.6,15.8-5.5,17.6-17
			c5.6-36.1,18.1-70.1,39-100.3c63.5-91.9,153.5-124.2,261.6-114.6c8.9,0.8,16.1,2.5,18.3-9.1
			C2501.6,2305.5,2506.2,2283.6,2511.6,2256.8z M1040.1,1474.3c61-4.1,117.5-8.1,174.1-11.4c9.8-0.6,12.5-6.8,15.4-13.8
			c28.8-69.7,34.9-141.1,17.5-214.6c-2.7-11.4-7.8-17-20.3-18.3c-47.5-5.1-89.5-24.2-125.3-55.4c-76.3-66.7-104.6-151.3-80.5-249.1
			c24.4-98.9,90.5-159.3,189.6-183c9.3-2.2,16.3-3.7,18.8-14.7c12.9-56.6,23.4-113.6,26-171.7c1.5-33-13.2-58.2-41.3-74.9
			c-42.6-25.4-88.6-34.1-137.8-26.6c-36.1,5.5-63.5,21.3-78.6,56.9c-13.6,32-15.1,31.5-41.8,9.2c-5-4.2-15.6-6.2-10.7-16.7
			c18.4-39,40.3-75,84.7-89.3c72.9-23.4,143.2-16.3,208.9,22.9c45.1,26.8,68.4,67.4,66.4,121c-2.1,55.4-11.3,109.9-23.4,163.9
			c-2.5,11-1.3,15.5,11.3,17c30.7,3.6,60.6,12,86.8,28.6c14,8.9,24.4,7.5,38.7,0.5c90.9-44.3,186.4-65.6,287.9-51.1
			c66.3,9.5,125.3,35.3,176.5,83.7c45.2-129.6,71.4-258.3,30.4-391.3c-28.5-92.3-88.8-158.8-177.4-198.2
			c-66.1-29.3-136.1-44-207.7-51.7c-118.4-12.8-237.3-14-356.1-14.7c-100.6-0.5-200.4,7.8-298,35.3
			c-66.5,18.7-129.6,44.9-191.2,79.6c6.1,4.3,10.4,7.5,14.9,10.5c114.5,74.1,186.9,178,217.4,310.6
			c25.4,110.5,30.1,223.1,29.5,335.9c-0.5,93.8-12.3,186.4-32.4,279c6.5,0.4,11.9,0.8,17.2,1c79.7,4,124.4,40.9,143,118.6
			C1087,1362.4,1080.2,1419.6,1040.1,1474.3z M2536.9,1341.3c-8.1,1.9-11.1,7.7-15.2,12c-29.7,31.5-63.5,58-100.1,80.9
			c-30.7,19.2-29.8,18.7-48.1-11.6c-7.6-12.6-3.6-16.6,6.9-22.8c18.7-11.2,37.1-23.2,54.5-36.4c86.4-65.7,139.7-149.5,144.8-261
			c4-87.3,10.9-174.4,14.6-261.8c5.4-128.1-26.4-245.8-90.7-355.8c-6.6-11.3-12-14.9-25.2-9.9c-31.5,12.2-64.7,16.5-98.5,15.5
			c-9.6-0.3-25.5,4.5-20.6-14.3c3.4-13-10.9-36.7,20.9-35.8c43.7,1.3,85.7-7.6,122.6-32.9c42-28.8,51.3-68.3,25.5-112
			c-25.4-43.1-61.1-77-102.4-104.3c-83.2-54.8-175.2-66.8-271.1-48.1c-91.5,17.8-169.2,60-223.7,138.8c-6.1,8.9-7.8,15.7-1.9,25.7
			c43.2,74.4,56.3,155.8,53.9,240.5c-2.6,92.5-23.5,181-57.7,266.6c-3.5,8.8-7.2,16.7-0.6,26.7c27.2,41.5,39.4,88.6,44.4,137
			c15.4,147.6-3.3,290.1-68.5,424.8c-5.6,11.6-6.2,20.3,1.4,31.8c59.6,88.5,138.1,153.9,235.5,197.1c25.2,11.2,51,8.9,78.1,8.6
			c-1.6-3.2-2-4.6-2.9-5.4c-5.1-4.5-10.5-8.7-15.7-13.2c-75.4-65.9-131-143.5-151.4-244.1c-13.2-65.1-21.9-130.6-27-196.6
			c-12.1-156.2-11.5-312.6-8.3-469c1.3-64.9,4.6-129.6,15.9-193.8c13.4-76.3,49.1-136.4,118.2-175.1c40.1-22.4,83.3-33.4,128.3-39.5
			c37.5-5.1,36.8-5.4,37.2,31.8c0.1,12.9-4,15.9-16,16.6c-21.8,1.3-43.5,4.8-64.5,10.8c-68.5,19.6-123.2,55-144.7,127.9
			c-12.8,43.5-16.7,88.4-21,133.2c-1.2,12,3.2,15.9,14.7,15.1c27.9-1.8,55.9-3.8,83.9-4.5c89.8-2.4,146,42.4,163.7,130.4
			c2.8,14,5.4,28.3,6.1,42.5c3.6,77.5-6.2,152.1-59.1,213.5c-12.9,14.9-12.6,24.4-4,40.3c33.7,62.1,54.5,128,52.7,199.5
			c-2.5,101.5-52.8,166.5-144.8,187.2c-16.3,3.7-33.1,5.3-50.5,7.9c1.2,3.3,1.6,6.1,3,8.2c61,92.4,132.9,171,246.4,199.1
			c20.6,5.1,36.8,2,54.3-7.7C2544,1592.3,2586.4,1469,2536.9,1341.3z M349.7,2432.3c3.8,67.6,6.9,135,15.9,202.2
			c12.9,96.2,64.7,158,156.7,187.3c41.1,13.1,82.8,23,125.3,29.9c110.7,18,223,20.7,334.1,33.9c60.8,7.2,103-12.7,144.5-53.5
			c132.7-130.1,214.4-282,207.8-472.3c-5.7-164.2-101.9-283.3-261.2-323.2c-247.5-62.1-541.3,10.4-714.8,272.9
			c-5.9,9-8.7,17.8-8.5,28.5C350,2369.5,349.7,2400.9,349.7,2432.3z M1280.6,1458.5c8.3,0,15,0.2,21.7,0
			c107.8-3.6,215.7-9.3,323.6-4.5c53.9,2.4,107.8,6.6,159.1,25.5c11.8,4.3,14.5-2.7,18.8-9.2c104.8-155,138.8-326.2,111.2-509.3
			c-16.3-108.1-82-175.8-188.2-202.6c-49.7-12.5-100-12.1-150.4-3.1c-46.9,8.4-92,22.1-135,44.1c2.1,3.2,2.9,5.1,4.3,6.6
			c126.4,142.6,53.7,369.3-137,408.2c-16.6,3.4-12.8,12.4-10.6,21.9c8.9,38.3,10.5,76.9,7.4,116
			C1302.6,1388.2,1293,1422.8,1280.6,1458.5z M549.3,644.6c0-0.8,0-1.7,0-2.5c-45.7,0-91.5,0.5-137.2-0.3
			c-12.9-0.2-17.2,3.4-18.4,16.6c-11.4,120.9-22.1,241.9-25.1,363.4c-0.5,18.2,4.2,22.5,21.4,23.8c97.9,7.1,196.3,8.3,293.6,23.2
			c10,1.5,13.1-3.6,16.2-11.2c10.1-24.9,15.6-50.7,17.1-77.5c2.5-42.9-4.2-52.9-45.6-63.2c-22.7-5.6-44.6-12.1-63.4-26.8
			c-34.9-27.3-33.5-75.7,2.9-100.7c13.7-9.4,29.3-14.8,44.7-19.9c27-9,40.4-28.2,47.2-54.3c4.5-17.5,3.1-35.2,3.7-52.9
			c0.4-13-4.4-18.1-17.9-17.9C642.1,644.9,595.7,644.6,549.3,644.6z M741,1259.1c11.2,4.3,18.4,0.9,25.5-7.6
			c21-25.1,47-43.7,78-54.2c10.7-3.6,15-9.7,17.3-20c20.8-92.9,32.3-186.9,32.9-282c0.6-85.4-4.9-170.5-16.6-255.2
			c-19.4-141.4-80.7-258.4-203-337.6c-53.1-34.4-33.2-33-87.5,1.4c-13.3,8.4-14.2,13.5-2.1,24.9c71.5,67.3,122.8,148.1,151.5,241.9
			c16.5,53.9,28.3,109.2,45.1,163.2c6,19.3,8.3,40,10.2,60.3c9.3,99.5-22.2,192.4-48.4,286c-2.7,9.8-4.3,16.5,1.7,26
			c15.1,23.7,19.7,50,15.7,78.4C757.9,1210.6,749.6,1234.8,741,1259.1z M897,1363.8c11,7.6,21.6,15.1,32.3,22.2
			c6.5,4.3,7.5,8.1,2.3,14.7c-23.9,30.9-51.8,56.9-90.4,67.1c-50.5,13.4-87.3-3.7-109.9-43.5c-17.7-31.1-16.1-64.3-5.9-97.3
			c4.2-13.6,1.3-16.2-12.6-14.6c-103.5,11.6-183,62.2-242.7,146.4c-8,11.3-8.9,18.3,2.3,28.7c37.3,34.7,79.4,62.1,124.1,86
			c10,5.3,17.7,3.6,26.6-1.5c27.3-15.8,56.5-27.1,86.4-37c74.8-24.8,152.1-37.8,229.9-48.5c10-1.4,20-1.8,28.6-9
			c51.8-43.6,71.8-97.2,55.7-164.2c-10.7-44.4-33.3-72.9-81.7-78.3c-18.2-2-35.3-0.6-52.7,2c-60.4,8.9-112.7,62.7-120.4,123.3
			c-2.7,21.4,0.9,41.7,19.7,54.9c18.6,13,37.7,7,56.1-2.6C866.5,1401.2,881.8,1382.8,897,1363.8z M426.4,1431.8
			c2.6-2.9,5-5.2,6.9-7.9c59.4-81.5,137-135.3,236.7-155.5c6.8-1.4,12.8-3.5,16-10.9c10.5-24.4,21.7-48.5,25-75.3
			c5.5-44.8-3.3-57-47.9-65.7c-6.7-1.3-13.4-2.5-20.2-3c-87-6.1-174.1-11.8-261.1-18.5c-13.3-1-16.1,2.8-16.3,15.1
			c-0.8,65.5-0.2,130.9,9.4,195.9C381.7,1351.8,395.1,1394.9,426.4,1431.8z M2061.1,853.2c-0.4,0-0.8,0-1.2,0
			c0,49.2,0.1,98.3-0.1,147.5c-0.1,10.4,1.9,17.5,13.1,22.1c82.2,33.6,159.9,0,191.4-83.2c18.5-49,22.7-99.6,15.4-150.8
			c-11.1-76.7-48.1-106.3-125.8-102.6c-25.2,1.2-50.5,3.9-75.7,3.7c-14.3-0.1-17.3,5.6-17.2,17.9
			C2061.3,756.2,2061.1,804.7,2061.1,853.2z M1270.5,969.9c0,57.4,0,114.7,0,172.1c0,28.6,0.5,29,28.6,23.2
			c94.1-19.4,160.8-101.7,159.2-196.4c-1.6-97.7-70.9-176.8-167.7-193.3c-17.8-3.1-20.6,2.5-20.4,18.2
			C1270.9,852.5,1270.5,911.2,1270.5,969.9z M2064.1,1073.6c-0.3,4.5-0.9,7.9-0.8,11.2c4,86.7,9.7,173.2,26.3,258.5
			c13.5,69.2,21.2,73.1,89.9,52.4c45.6-13.7,74.4-42.9,85.1-90.3c17.3-76.3-3.6-145.5-35.9-213.4c-8-16.8-15.3-27.9-35.4-15.8
			c-5.6,3.3-13.1,3.5-19.7,5.1C2136.7,1089.9,2100.7,1082.2,2064.1,1073.6z M2254,2033.6c0-0.7,0-1.4,0-2.1
			c44.2-2.9,88.5-5,132.7-8.9c42.1-3.8,84-9.3,123.1-27.4c33.9-15.6,50.5-42,52.3-78.8c0.6-12.6-3-19.7-16.5-23.1
			c-88.6-21.8-177.4-20.2-265.4,0.2c-65.1,15.1-101.7,59.6-113,125.4c-2.1,12.5,1.2,15.3,13.2,14.9
			C2204.9,2032.9,2229.5,2033.6,2254,2033.6z M1219.7,971.3c0-58-0.5-116,0.3-174c0.2-15.6-2.5-20.2-19-15.1
			c-80.9,25.1-138.4,103.9-138,190.6c0.5,85.5,58.8,163.5,139.2,187.5c13.8,4.1,17.9,1.9,17.7-12.9
			C1219.4,1088.7,1219.7,1030,1219.7,971.3z M406.8,575.9c-5.4,15,1.9,15.3,9.3,15.4c87.4,0.8,174.8,1.5,262.2,2.5
			c10.2,0.1,13.4-2.7,9.9-13.1c-29.6-87.1-78.1-161.8-145.7-224.2c-5.8-5.3-10.4-7.4-17.2-0.8C461.3,417.7,414.5,488.8,406.8,575.9z
			 M1683,1665c48.1,0.2,101.1-11.5,139.7-28.2c11.4-5,14.6-11,12.9-23.4c-6.9-52.2-31-78.3-88.8-93.4
			c-79.7-20.7-161.1-17.7-242.3-17.1c-7.3,0.1-11.2,1.1-9.7,10.3c5,30,13.6,58.4,32.8,82.7C1569,1648.3,1626.6,1662.6,1683,1665z
			 M2441.6,2122.2c-14.3,0-28.7-1-42.9,0.2c-47.2,3.9-93.2,12.8-134,38.9c-37.3,23.8-47.6,54.1-34.8,94.7
			c3.8,11.9,9.1,14.2,20.6,12.2c26.1-4.5,52.6-7,78.8-11.3c54.4-9,109-17.4,158.4-44.5c28.2-15.5,47.7-37.6,56.5-69.1
			c2.7-9.6,1.2-13.2-8.9-14.6C2504.1,2124.2,2473,2121,2441.6,2122.2z M2442.1,2384.5c-105.4,0.2-188.6,64.8-212.2,163.6
			c-3.9,16.2,0.2,20,15.7,20.5c29.4,1,58.8,4.7,84.6,20c11,6.5,16.4,3.2,23.8-4.8c46-49.2,83.9-103.8,110.7-165.7
			C2479.1,2385.2,2486.2,2385.5,2442.1,2384.5z M2050,2842.5c113.1-27,203.7-81.8,265.4-182.9
			C2197.8,2652.2,2076.3,2736.1,2050,2842.5z M1864.7,1469.7c-8.3,12.4-14.9,22.7-22.1,32.7c-3.8,5.3-4.1,9.1,0.8,13.9
			c34.8,34.1,43.8,77.4,43.1,123.8c-0.2,10.5,1.5,14.4,13.5,12.3c19.4-3.5,39.2-5.2,58.9-7c25.3-2.4,50.6-4.3,81.3-6.8
			C1968.6,1591.4,1911.1,1537.9,1864.7,1469.7z M737,764.6c-20.3,34.4-50.4,47.8-82.1,59.1c-8.6,3.1-21.2,5-21.3,16.1
			c-0.1,11.3,11.7,15.6,21,19.8c3.7,1.7,7.7,2.6,11.6,3.7c24.5,7,50.4,10,73.1,29.1C745.3,849,746.5,809.5,737,764.6z M2445,2069.6
			c28.8,2.5,57.6,5.2,86.3,7.5c4.2,0.3,11.7,2.8,11.4-3.5c-0.5-9.9-3.5-19.9-6.9-29.3c-2.6-7.3-8.1-1.9-11.8-0.3
			C2498.6,2055.2,2471.9,2062.1,2445,2069.6z"/>
		<path class="st0" d="M1625.5,483.4c1.3,34.3-4.2,73.3-44.6,95.8c-39.6,22.1-82.6,21.4-125.3,11.4c-19.9-4.6-30.3-23.1-29.3-44
			c0.9-17.2,6.2-33.4,11.2-49.7c12.2-40.2,5.9-59.8-27.3-85.6c-10.8-8.4-22.2-16-32.1-25.3c-27.2-25.2-30.7-59.6-10-90.7
			c25.3-38,69.8-54.3,117-40.8c46.6,13.3,82.8,41.1,105.9,84.3C1613.2,380.4,1624.8,428.4,1625.5,483.4z M1575.5,480.5
			c-0.1-38.6-9.8-79.2-26-112.6c-15.5-31.9-40.6-52.5-73.6-63.8c-15.9-5.5-32.1-6.2-47.6,1.9c-26.8,14-29,32.9-6,51.4
			c10.1,8.1,20.9,15.3,30.7,23.8c32.6,28.1,46.4,63.2,37.9,106c-3,15.3-7.1,30.5-11,45.6c-1.4,5.3-4,9.5,4.5,12.1
			C1536.1,560.9,1575.6,533.1,1575.5,480.5z"/>
		<path class="st0" d="M1084.1,2489.8c0.2,106.7-84.9,192.6-191.6,193.4C785.6,2684,698.1,2597.1,698,2490
			c-0.2-108.6,86.7-197,194.4-195.3C1020.5,2296.7,1091.1,2406.5,1084.1,2489.8z M1034.4,2490.3c0.2-81.6-62-144.5-143.1-145.1
			c-78.6-0.5-143.5,64.1-143.7,143.2c-0.3,79,63.4,143.3,142.8,144.3C969.3,2633.6,1034.2,2569.5,1034.4,2490.3z"/>
	</g>
</g>
</svg>
