<?xml version="1.0" encoding="utf-8"?>
<!-- Generator: Adobe Illustrator 23.0.0, SVG Export Plug-In . SVG Version: 6.00 Build 0)  -->
<svg version="1.0" xmlns="http://www.w3.org/2000/svg" xmlns:xlink="http://www.w3.org/1999/xlink" x="0px" y="0px"
	 viewBox="0 0 3000 3000" style="enable-background:new 0 0 3000 3000;" xml:space="preserve">
<style type="text/css">
	.st0{stroke:#000000;stroke-width:10;stroke-miterlimit:10;}
</style>
<g id="Layer_1">
</g>
<g id="Layer_2">
	<g>
		<path class="st0" d="M850.3,1644.8c-85.4-42-160.4-93.9-224.8-160.6c-133.5-138.3-207.5-302.3-218.4-495
			c-6.5-114.4-4.4-227.6,24.9-339.2c76-289.7,337.9-520.4,632.4-557.6c51.1-6.5,102.3-9.6,153.7-9.6c225,0,449.9-0.3,674.9,0.2
			c188,0.4,358.4,54.5,503.3,176.2c171.4,143.9,267,327.4,279.5,552.8c6.1,110.2,5.7,219.9-22.5,327.4
			c-47.4,180.7-149.3,324.4-299.6,434.4c-7.9,5.8-18,9.3-24.2,22.3c40.6,13,79.7,28,115.8,50c187.9,114.7,257.8,349.5,160,546.7
			c-14.7,29.7-11.4,46,11.3,69.4c192.1,198,113.8,524.1-149.5,629.5c-88.3,35.3-180.6,49.4-274.5,55c-124.9,7.4-250.1,9.4-375,5
			c-125.7-4.5-252-4.3-376.3-28.4c-28.8-5.6-57.8-12.7-82.1-29.3c-22.8-15.6-44-16.5-70.6-10.5c-186.5,42.3-373.9,40.9-560.8,3
			c-73-14.8-138.9-46-193.4-100.1c-40.2-39.9-61.9-86.6-65.4-142c-6.8-109.6-13.2-219.3-18.7-329c-4.9-98.6-6.3-197.5-13.3-296
			c-8-113.7,48.6-192.1,132.7-256.3c75.3-57.4,163.6-86,254.4-107.8C832.1,1653.4,840.5,1654,850.3,1644.8z M1532.9,674.4
			c5.7-9.4,10.2-17.1,15.1-24.6c75.1-116,241.1-134.9,328.1-36.1c51,57.9,68,127.6,58.2,203c-3.1,24,4.9,30,25.7,32.8
			c46.9,6.3,93.7,13.5,140.3,21.6c167.3,29.3,329.8,76.3,488.7,135.9c14.3,5.4,29.2,14.7,29.1-13.6c-0.3-82.6,4.7-165.2-6.1-247.7
			c-42.4-323-336.5-594.5-661.3-600.8c-269.2-5.2-538.7-6.4-807.9,0C896,151,707.5,270.3,572.3,474.6
			c-122,184.4-120.6,390-98.9,598.6c2.2,20.7,12.2,20.5,28.9,12.4c188.6-91.5,385.4-159.8,590.9-201.5c28.7-5.8,37.9-18.2,35.5-47
			c-4.8-55.4,6-108.6,32.3-157.9c70.6-132.3,246.1-156.6,340.9-47.1C1512.8,644.7,1521.8,659.2,1532.9,674.4z M1539.9,1655.9
			c0,0.2,0,0.4,0,0.6c84.7,0,169.5,0.7,254.2-0.2c72.5-0.8,145.1,4.1,217.5-6.3c287.3-41.4,525.6-259.8,590.6-540.5
			c5.7-24.6-0.1-36.5-24-45.6c-304.5-116.1-619.6-177-945.4-179.5c-127-1-253.6,10.4-379.4,28.7c-256.5,37.4-500.3,115.3-734,226.6
			c-20.6,9.8-25.1,20.5-17.6,42.4c92.3,270.4,355.9,466.7,641.8,473.4C1275.6,1658.5,1407.8,1655.9,1539.9,1655.9z M1384.9,1722
			c-17.8-8.2-32-5-45.7-5.1c-106.7-0.8-213.9,4.7-319.4-17.2c-29.8-6.2-58.6-10.5-89.3-5.7c-115.5,18-227.8,45.1-325,114
			c-73.3,51.9-115.6,118.3-111,214.2c9.7,205.3,18.5,410.6,31.9,615.7c3.3,50.3,24.3,90.2,63.2,122.2
			c30.9,25.4,65.2,43.5,102.7,56.4c119.7,41.2,244,38.2,367.9,38.3c67.9,0,134.5-9.3,200.8-23c18.2-3.8,23.2-10.1,16.3-28.5
			c-12.6-33.8-14-69.4-5.6-104.3c17.9-74.7,14.8-147.6-12.9-219.5c-5.4-14-8.9-28.9-11.7-43.7c-8.9-46.1-4.7-90.6,20.6-131.1
			c8.2-13.1,8.2-22.6-0.2-35.4c-18.8-28.8-33-59.9-43.4-92.8c-14.9-47.2-27.6-55.5-77.8-51.1c-13,1.1-26,3.4-38.9,5.8
			c-103.7,20-175.1,123.2-151.3,218.5c15.5,62,61.6,103.4,130.9,111.5c30.8,3.6,29.1,23.9,28.3,43c-1.1,23.6-20,16.9-34.4,15.3
			c-130.7-15.3-212.7-135.8-178.9-262.9c32.5-122.3,143.7-197.2,278.9-186.3c19.1,1.5,25.6-2.8,25.7-21.6c0-20.1,0.5-40.5,4-60.2
			C1230.3,1876.4,1289.1,1789.2,1384.9,1722z M2388.8,2859.5c26.1-10.1,52.9-18.6,78.2-30.4c216.5-100.3,266.2-377.7,97.1-539.6
			c-10.2-9.8-20.2-18.4-35.9-19.9c-107.3-10-214.5-20.4-321.7-31.9c-18.2-2-26.3,1.5-32.7,19.8c-31.6,89.6-114.9,151.1-207.6,155.7
			c-103.8,5.1-194.5-47-235.3-137.6c-8.3-18.5-16.9-22.8-36.4-19.3c-111,20-222.3,38.3-333.5,57.7c-42.2,7.4-57.2,25.8-60,69.5
			c-3,47.8,18.5,90.3,28.1,135.4c5.6,26.1,17.9,33.8,43.7,33c119.9-3.7,239.8-5.7,359.8-8.1c11.1-0.2,26.6-6.2,28.3,12.6
			c1.7,18.3,13.1,20.3,27.3,20.2c99.8-0.3,199.7-0.7,299.5-0.4c19.1,0.1,25.9-7.2,28.2-26.2c4.9-40.2,27.2-70.8,59.7-94.3
			c33.5-24.3,72-36.4,112.1-42.6c123.9-19.3,212.8,56.2,218.6,181.6C2511.4,2702.5,2473.9,2789.5,2388.8,2859.5z M1738.3,1717.7
			c-51.4,0-102.8,0.2-154.3-0.1c-27.5-0.2-54,5.1-80.3,12.7c-211.7,60.8-309.1,318.8-191,504.7c12.6,19.9,25.6,27,49.6,21.2
			c37.1-9,75.2-14.6,113.1-19.7c20.1-2.7,28.3-8.9,23.7-31c-8.5-40.8-7-82.1,1.8-123c30.9-144.2,124.4-229.7,261.2-269.6
			c135.5-39.6,274.8-37.6,413.9-24.6c113.2,10.6,193.4,82.8,221.2,192.9c16.4,65,11.1,130.1,4.5,195.3c-1.7,16.8,2.7,23.7,20,24.9
			c27.1,1.9,54.1,5.5,81,9.6c19.6,2.9,32.1-3.5,41.8-21.1c32.8-59.8,49.4-124.4,47.3-191.6c-5.3-172.3-122.2-310.7-290.4-349.3
			c-34.2-7.9-66.1-8.5-99.4,7.9c-45.2,22.3-94.4,34.8-144.1,44.3C1952,1721.2,1845,1715.9,1738.3,1717.7z M2176.5,2888.7
			c-110.4-40.3-166.9-114.1-171.9-222.8c-1.4-31.2-12.6-33.3-37-32.9c-114.9,2-229.8,3-344.8,4c-17.6,0.1-37.7,3.6-41.5-23.2
			c-1.7-12.1-12.8-11.1-21.9-10.1c-63.3,6.6-126.9,4.3-190.4,4.8c-18.9,0.2-27.7,7.3-30.2,25.4c-3.9,27.9-9.4,55.6-12.6,83.6
			c-5.2,46.4,1.5,89.2,45,117c22.2,14.2,46.2,24.4,72,30.6c61.2,14.7,123.7,15.9,186,20.1
			C1809.3,2897.4,1989.4,2898.7,2176.5,2888.7z M2031.4,1839.5c-80.3-1-165.9,2.5-249,26.1c-159.1,45.3-245,167.9-228.1,321
			c3,27.4,14.5,34.6,39.5,29.4c29.6-6.1,59.2-12.2,89.2-15.9c20.9-2.6,30.2-12.8,31.9-32.9c2.7-32.8,13.2-63.3,31.7-90.3
			c57.4-84,139.2-119.4,237.8-104.8c101.5,15,171.2,72.9,195.8,176c5.8,24.5,17.5,32.5,41.2,33.6c32.1,1.4,64.1,5.8,96.1,10
			c16.3,2.1,25.6-3,26.8-19.8c3-42.1,9.8-84.2,5.7-126.6c-11.9-122.9-67.4-182-189.4-201.8
			C2119.6,1836.8,2078.3,1837.8,2031.4,1839.5z M2449.2,2613.9c-0.3-5.5-0.3-17.6-1.5-29.7c-6.1-59.9-40.7-104.3-88.1-113.9
			c-64.8-13-151.4,16.5-177,60.5c-2.5,4.3-4.8,8.9-6.5,13.6c-6.9,19.3-3.3,31.6,20.5,31.2c17.1-0.3,34.2,0.1,51.3,1.2
			c34,2,56.2,19.3,64.7,49.5c16.8,59.2-37,109.8-101.8,94.8c-36.3-8.4-66-28.1-78.5-64.3c-10.5-30.4-33.3-25.7-54.2-22.7
			c-23.9,3.5-15.8,24.9-15.2,39.4c3.4,87.1,73.9,157.8,160.8,162.7C2354.4,2843.6,2448.1,2753.8,2449.2,2613.9z M1950.4,2027
			c-2,0-4,0-6,0c-72.9,2.1-129,34.1-159.3,100.4c-27.4,59.9-18.6,119.2,26.5,168.6c50.8,55.6,115.1,70.5,187.4,53.1
			c11.1-2.7,21.1-6.9,15.6-22.9c-10.6-31.4-19-63.6-30-94.9c-6.1-17.3-15.7-34.9-37.9-32.9c-19.1,1.7-23.8,16.4-27.2,34.2
			c-3.8,20-25.1,23-40.7,23.7c-15.8,0.7-14.2-17.5-15.1-28.4c-2.9-33.3,18.1-66,49.1-79.9c46.2-20.7,97,1.4,121.7,53
			c11.8,24.7,16.6,51.7,23.9,77.8c2.6,9.5,4,22.2,14.5,24.9c11.8,3.1,16.3-9.8,21.9-17.5c37.6-51.7,45.4-107.7,16-164.9
			C2077.8,2057.2,2021.3,2029,1950.4,2027z M1185.8,811.8c0,8,0.4,16.1-0.1,24.1c-1.4,22,9.4,28.4,29.7,25
			c88.2-14.8,177.1-23.6,266.4-29.2c15.2-0.9,21.1-7.3,21.5-22.4c1-45.4-7.9-87.9-34.1-125.8c-46.4-67.2-138.6-84.4-205.1-36.8
			C1207.8,686.9,1188.2,745.6,1185.8,811.8z M1878.1,783.1c2.1-43.7-9.5-83.7-35-119.4c-40.9-57.3-115.4-70.1-173.3-45.3
			c-69,29.6-113,108.9-108.7,184.1c0.9,16.3,6.3,24.1,23.2,24c87.7-0.7,175.2,3.4,262.6,10.9c20.8,1.8,30-7.8,31.1-27.2
			C1878.6,801.2,1878.1,792.1,1878.1,783.1z"/>
		<path class="st0" d="M1477.1,1104.1c72.7-0.7,121.9,8.3,169.8,24.8c23.1,8,44,20.1,62,36.7c40.3,37.2,39.6,90.3-1.9,126.5
			c-36.2,31.7-80.6,44.8-126.7,52.5c-74.6,12.5-148.3,9.8-220.5-14.6c-9.5-3.2-19.1-6.6-28-11.2c-36.9-19.1-70.3-42.3-71.7-89.2
			c-1.5-47.8,31.8-71.9,68.7-90.7C1382.1,1112.1,1440.1,1105.4,1477.1,1104.1z M1499.7,1293.1c53.1,0.6,104.8-5.2,152.1-31.7
			c37.3-21,38.7-47.6,0-65.9c-101.5-48-204.9-48.1-306.2,0.6c-38.2,18.3-36,44.9,1.9,65.9
			C1394.9,1288.2,1446.7,1293.7,1499.7,1293.1z"/>
	</g>
</g>
</svg>
