<?xml version="1.0" encoding="utf-8"?>
<!-- Generator: Adobe Illustrator 23.0.0, SVG Export Plug-In . SVG Version: 6.00 Build 0)  -->
<svg version="1.0" xmlns="http://www.w3.org/2000/svg" xmlns:xlink="http://www.w3.org/1999/xlink" x="0px" y="0px"
	 viewBox="0 0 3000 3000" style="enable-background:new 0 0 3000 3000;" xml:space="preserve">
<style type="text/css">
	.st0{stroke:#000000;stroke-width:10;stroke-miterlimit:10;}
</style>
<g id="Layer_1">
</g>
<g id="Layer_2">
	<g>
		<path class="st0" d="M1422.2,2590.5c-253.1,3.6-506.2,0.3-758.5-22.3c-122.8-11-245.8-21.9-365.9-52
			c-160.5-40.3-241.8-138.4-247-303.7c-4.3-137.6-0.9-275.4,3-413.1c3.8-135.6,96.3-197.3,200-213c34.6-5.2,35-4.6,29.5-39
			c-5.6-35-3.6-69.8,4.9-103.8c3.8-15.4-0.6-18-14.3-19.1c-32.1-2.4-63.9-7.3-93.8-20.3c-53.9-23.6-91.9-62.6-96.9-121.9
			c-13.9-166.1-16.9-332.3,21.4-496.2c13.1-56.1,35.4-109,75.9-151.9c56.2-59.3,123.4-83.8,203.7-59.9c15.7,4.7,21.2-4.4,29.2-11.8
			c100.9-94.4,218.5-157.4,353.8-186c69.1-14.6,139.6-18.4,210.1-16.7c238.7,6,477.6,6.6,715.7,24.9c153.2,11.8,305,31.9,453,77.5
			c93,28.7,186.5,55.1,276.5,92.3c211.9,87.7,349.8,245.8,428.7,457.5c39.3,105.4,72.3,212.9,88,325
			c20.2,144.5,20.4,288.6-3.7,432.6c-16.7,99.4-33,199-62,295.8c-42.2,141.3-127,250.1-251.4,329.1
			c-114.4,72.7-239.6,117.9-369.6,153.4c-126.4,34.5-254.9,43.1-384.8,42.4C1719.1,2590,1570.7,2590.5,1422.2,2590.5z
			 M1467.7,2546.3c102.1,0,246,0.2,389.9-0.1c86.7-0.2,173.7,0,259.4-15.1c177.4-31.2,347-84.5,498.4-185.8
			c92.6-61.9,159.6-144.4,199.9-248.7c34.1-88.2,48.1-181.1,65.7-273c22.2-116.2,32.6-233.3,26.9-352
			c-7.6-156.3-46.2-305.3-101.2-450.3c-77.7-205-215.1-353-421.9-434.1c-261.4-102.4-532.3-155-812.5-165.4
			c-201.1-7.5-402.2-11.8-603.3-16.8c-186.8-4.6-355.3,43.5-498.4,167.5C406.4,628,342.7,683.5,314.8,768.8
			c-35.1,107.3-39.4,217.8-35,328.5c2.5,62.9,46.7,81.6,100.9,48.3c24.6-15.1,44.1-36.3,65.3-55.5c27.6-24.9,58.5-43.2,95.2-52.2
			c95.6-23.5,189-11.8,278.1,24c138,55.5,226.2,156,253.7,305.1c15.7,85.2,5.5,169.8-12.7,252.8
			c-46.6,213.2-249.7,345.4-466.8,308.3c-97-16.6-186.8-53.8-276.8-91c-9.8-4.1-20.1-7.6-30.5-9.6c-21.4-4.1-31.8,5.8-32.7,27.3
			c-1.1,24.4,2.5,48.2,8.9,71.5c52.4,191.4,125.4,375.7,197,560.4c4.6,11.9,12.4,16.1,24.1,17.2c89.8,8.8,179.5,20.1,269.4,26.4
			C977,2546.1,1201.4,2550.3,1467.7,2546.3z M357.3,612.2c-53.6-7.2-95,7.4-130.5,39.4c-45.1,40.7-67.1,94.4-80,151.7
			c-33.3,148.9-31.9,299.9-22,450.9c4.4,67.7,35.1,101.6,100.6,117.8c17.2,4.3,35.4,4.9,52.9,8.3c21.9,4.2,32.5-3.3,41.9-24.8
			c54.7-124.6,185-203.1,311.2-189.9c179.2,18.7,303.8,163.6,296.2,344.5c-6,142.9-108.8,270.2-243.7,301.9
			c-142.1,33.3-283.2-30.1-353.4-160.6c-9-16.8-18.9-24.2-37-22.7c-8.9,0.7-17.9,0.3-26.8,1c-103.5,9-166.2,75.4-168.6,178.8
			c-0.5,23.2-0.8,46.5-0.7,69.7c0.6,120.7-8.9,241.4,0.6,362.1c4.6,58.4,21.5,112.8,64.6,155c68.8,67.4,157.3,84.5,250.4,97.8
			c-3-8.7-4.7-13.8-6.6-18.7c-65.9-169.5-131.7-339-181.5-514.2c-10.8-37.9-19.7-76.3-14.7-116.2c5.5-44.6,39.5-69.3,83.4-61.3
			c21.3,3.9,40.6,13.2,60.4,21.4c95.8,39.9,191.6,78.5,297.2,85.3c137.3,8.8,282.2-76.2,339.8-201.1
			c35.7-77.5,43.6-160.6,43.6-243.6c0-143.1-63.2-252.3-190.1-321.8c-60.5-33.2-126.3-47.2-194.8-51.3
			c-78.4-4.6-146.6,16.3-200.1,76.4c-14.9,16.7-34,28.4-52.7,40.2c-69.4,44.1-146.2,9-160.3-71.5c-8.5-48.4-1.1-96.3,0.2-144.4
			C240.1,841.6,265.4,718.3,357.3,612.2z M548.2,1588.9c-2.3-42.5-2.3-42.3-41.1-37.6c-18.5,2.3-37.2,3.4-55.7,5.5
			c-6.8,0.8-15.4,0.9-14.4,11.4c1.7,17.6-0.4,37.6,7.5,52c5.8,10.7,24.3,0,37.2-1c14.2-1,28.3-4.3,42.4-3.9
			C545.4,1615.8,553.8,1607.6,548.2,1588.9z M539.9,1476.6c-3.5-36.1-3.5-36.3-36.1-34.4c-11.5,0.7-23,2.3-34.4,3.7
			c-43.4,5.3-42.7,5.3-38.4,49.4c1.4,14.6,7.6,17.9,20.4,16.5c20.3-2.2,40.6-5.4,60.9-5.1C537.1,1506.9,547.6,1498.6,539.9,1476.6z
			 M690.8,1472.7c-2.2-49.7-2.2-49.7-50.8-43.1c-3.5,0.5-7,1.2-10.6,1.4c-48.1,3.9-47.3,3.8-43.7,50.7c1.2,15,5.8,17.5,19.3,15.6
			c22.9-3.3,45.9-5.8,69-6.7C688.1,1490,694.4,1486.1,690.8,1472.7z M591.7,1569.8c0.7,37.4,0.7,37.3,34.5,33.6
			c11.5-1.3,23.1-1.3,34.5-2.8c41.9-5.7,41.4-5.8,35.6-48.8c-1.8-13-4.9-19-19.7-16.5c-19.2,3.2-38.8,5.3-58.3,5.6
			C595.6,1541.1,585.6,1549.8,591.7,1569.8z M822.3,1454.3c-1.4-41.3-1.4-41.5-40.1-38.8c-12.4,0.8-24.6,3.5-36.9,4.6
			c-8.1,0.7-12.1,2.7-12.8,12.4c-3,44.9,4.1,52.3,48,47.6c5.3-0.6,10.7-1,15.9-0.6C816.4,1480.9,827.4,1474.2,822.3,1454.3z
			 M532.1,1372.8c5.3-24.7-5.8-29.3-27.8-25.2c-20.9,3.9-42.4,5.1-63.7,6.4c-14.4,0.9-18.9,5.5-18.1,21.3c1.3,23.7,8.7,32.6,33.3,27
			c18.1-4.1,37.1-4.4,55.7-5.6C527.1,1395.6,538.1,1391.5,532.1,1372.8z M742,1554.6c0.7,36.1,0.7,36.1,32.6,32.8
			c11.5-1.2,23.1-2.6,34.7-3.1c16.7-0.6,22.4-6.9,20.3-25c-4.7-39.1-3.5-39.2-43.6-33.8c-5.3,0.7-10.7,2.5-15.9,2
			C747.3,1525.2,734.7,1531.7,742,1554.6z M601.8,1387.8c23.5-2.1,45.7-3.8,67.9-6.1c22.8-2.4,11-20.2,12.8-31.3
			c1.9-11.3-2-18.5-16.3-16.6c-22.1,2.9-44.3,5.8-66.5,5.7c-18.4-0.1-25.5,4.6-23.2,24.3C578.5,1381.3,581.3,1394,601.8,1387.8z
			 M447.7,1691.6c-6.4,23.3,5.7,24.2,24.7,20.6c21.8-4.2,44.2-5.8,66.4-7.9c24.5-2.4,13.5-20.5,14.6-32.7
			c1.4-15.5-9.2-13.6-19.7-12.2c-22.1,3-44.2,6.8-66.4,7.4C449.3,1667.3,442,1673,447.7,1691.6z M615.2,1694.7
			c25.5-3.5,51-7.1,76.6-10.3c21.6-2.7,10.4-18.5,11.4-28.8c1.5-14.6-8.2-14.5-19.3-13c-23.7,3.3-47.5,7.2-71.4,8.2
			c-19.7,0.8-14.8,13.1-14.5,23.9C598.3,1685.7,598.4,1697.4,615.2,1694.7z M727,1345.4c1.2,29.1,1.2,29.1,29.1,27
			c13.3-1,26.5-2.3,39.8-3c15.1-0.8,20.5-6.2,19.2-23.3c-1.6-22.3-8.8-29.5-30.9-23.9c-12.7,3.2-26.4,2.7-39.7,3.2
			C729.7,1325.9,723.1,1332.2,727,1345.4z M685.6,1731.1c-20.9,2.4-42.8,5.1-64.8,7.3c-12.4,1.2-19,5.4-17.6,19.9
			c1.3,13.7,6.5,18.1,20.1,17.4c24.1-1.2,47.3-6.4,70.3-12.9c11.9-3.4,17.8-9.3,15.6-22.7C706.5,1723.3,695.3,1731.5,685.6,1731.1z
			 M748.4,1658c2.6,4.2-5.5,19.3,10.7,18.3c19.4-1.1,38.9-3.9,58-7.9c16.4-3.4,19.5-16.6,17.2-31.2c-2.6-17.2-15.1-7.7-23.1-7.3
			c-15.9,0.7-31.8,4.7-47.7,4.6C747.9,1634.6,745.8,1642.2,748.4,1658z M334.9,1493.2c4.2,8.9-9.7,31.4,16.2,27.7
			c13.1-1.9,39.7,9.4,35.6-20.4c-2.1-15.5,11-41.5-16.2-45C339,1451.4,335,1457.9,334.9,1493.2z M451.4,1308.2
			c20.9-2.1,40.4-4.6,60-5.7c10.7-0.6,16.4-3,16.1-15.3c-0.3-12.5-7.9-12.2-16.1-11.6c-19.6,1.4-39.2,2.4-58.7,4.9
			c-13.4,1.7-36-6.2-34.2,17.7C420.4,1323.5,441.9,1301.1,451.4,1308.2z M639,1265.2c0-0.3-0.1-0.6-0.1-1
			c-18.6,1.9-37.1,4.3-55.7,5.6c-8.9,0.7-12.9,3.7-11.7,13c1,7.7,2.4,14.2,12.4,13.2c27.4-2.8,54.8-5.7,82.2-8.3
			c9.1-0.9,11.8-5.6,11.4-14.2c-0.4-10.5-7-10.7-14.7-10.1C654.9,1264.1,647,1264.6,639,1265.2z M393,1606.2
			c0-12.4,0.2-20.4-0.1-28.4c-0.2-5.1,0.5-12.5-6.4-12.7c-12.3-0.4-26.6-2.5-36.5,2.8c-9.8,5.3,1.1,17,2.9,25.7
			c1.2,6,4.6,11.5,6.9,17.3c4.8,11.8,9,23.5,26.3,19C405.8,1624.9,390.7,1610.9,393,1606.2z M780.2,1274.4
			c-13-18.1-28.2-20.8-46.1-16.9c-8,1.7-13.2,4-12,13.5c1,7.8,4.9,10.6,12.4,10C749.4,1279.8,764.6,1282.2,780.2,1274.4z
			 M377.6,1386.8c-4.5-4.7,4.4-24.7-5.9-23c-17,2.8-16.1,24.7-20.9,39c-3.3,9.7,6.9,6.7,12.5,7.2
			C378.2,1411.3,382.5,1404.2,377.6,1386.8z M649.3,1218.9c-22.6-10.2-45.6-9.5-68.7-7.8c-5.1,0.4-11.7,0.2-10.4,8.3
			c1,5.8,6.2,5.2,10.6,4.9C603.7,1222.6,626.5,1220.7,649.3,1218.9z M865.2,1412.6c0.7,16.5,1.3,33.1,2.3,49.6
			c0.3,4.5,2.3,9,7.8,8.8c6-0.3,6.5-5.4,6-9.8C879.6,1444.6,877.8,1428,865.2,1412.6z M512.3,1753c-0.3,1.6-0.6,3.3-1,4.9
			c11.6,3.6,23,7.7,34.7,10.8c5.6,1.5,12.9,3.6,13.2-6.6c0.3-7.6-0.4-14.8-10.7-13.8C536.5,1749.4,524.4,1751.3,512.3,1753z"/>
		<path class="st0" d="M1773.3,1526.9c-151-1.3-323.4-8-495.4-23.2c-20.4-1.8-29.3-5.8-27.1-29.4c2.5-26,19.6-16.7,30.9-15.6
			c225.6,21.5,451.7,26.4,678,20.5c210.2-5.5,419.5-22.2,627.7-52.4c8.8-1.3,18.2-0.5,26.5-3.1c15-4.7,21.4-0.1,22.5,15.3
			c1.1,14.7,4,26.9-18.2,30C2345.2,1506.5,2070.8,1526.2,1773.3,1526.9z"/>
	</g>
</g>
</svg>
