<?xml version="1.0" encoding="utf-8"?>
<!-- Generator: Adobe Illustrator 23.0.0, SVG Export Plug-In . SVG Version: 6.00 Build 0)  -->
<svg version="1.0" xmlns="http://www.w3.org/2000/svg" xmlns:xlink="http://www.w3.org/1999/xlink" x="0px" y="0px"
	 viewBox="0 0 3000 3000" style="enable-background:new 0 0 3000 3000;" xml:space="preserve">
<style type="text/css">
	.st0{stroke:#000000;stroke-width:10;stroke-miterlimit:10;}
</style>
<g id="Layer_1">
</g>
<g id="Layer_2">
	<g>
		<path class="st0" d="M1539.5,300.3c-37.6-68.9-92.5-109.7-169.8-120.4c-75.6-10.5-148.6,0.1-221.4,20.4
			C999.2,241.8,853.7,292,719.4,370.3C532.5,479.3,421.5,640.4,390.5,855c-14.9,103-8.3,206.4-3.4,309.8
			c6.8,145.2,18.7,290.1,36.6,434.3c19.5,157.2,57.8,309,150.9,441.4c39.7,56.5,87.9,104.7,144.5,144.6
			c87.5,61.5,187.3,92.9,288.7,121.8c167.2,47.6,337.6,71.1,510.9,69.7c157.9-1.3,315.6-9.5,472.8-27.1
			c134.7-15,268.8-33.7,401.9-59.4c52.3-10.1,104.4-21.5,156.6-32.4c25-5.2,37.3,6.1,34.4,31.6c-1.3,11.5-10.6,11.5-18.5,13.2
			c-30.6,6.8-61.2,13.2-93.2,20.1c2.4,9.2,9.3,13.2,14,18.4c70.9,77.4,112.5,166.2,105.5,273.4c-8.1,125.6-81.8,221.3-201.2,262.6
			c-78.9,27.3-161.1,38.5-243.2,50.2c-206.1,29.4-413.2,38.5-621.1,29.6c-173.2-7.4-345.5-24.1-517.2-48.8
			c-65.1-9.4-129.9-19.8-192.5-39.8c-138.5-44.4-237.6-130.9-271.2-276.5c-33.2-143.8,12.7-264.2,122.2-361.4
			c4.2-3.7,8.6-7.2,12.8-10.8c0.5-0.4,0.6-1.2,1.4-3.2c-36.2-28.7-71.6-59-102.5-94.1c-86.5-98.4-136.6-214.7-169.4-340
			c-26.6-101.8-39.4-205.5-46.8-310.2c-6.6-93.3-15.8-186.5-22.5-279.8c-9.7-136.3-12.9-272.6,16-407.2
			c41.1-191.6,152.1-334.2,314.3-439.7c98.7-64.2,207.9-105,318-143.8c77.1-27.1,154.5-53.1,235.6-65.6c65-10,129.5-9.6,193.4,7.4
			c67.1,17.8,115.1,60.8,152.7,117.2c3.7,5.6,7.6,11.2,12.6,18.5c20.6-28.6,41.2-54.9,65.9-77.7c72.6-66.7,161.7-97.9,255.8-117.1
			c215.3-43.9,416.4-8.3,602.4,110.1c14.7,9.3,16.5,16.5,7.1,29.2c-8.6,11.6-13.6,22.7-33.4,10.5
			c-224.7-138.5-459.7-161.3-704.8-59.4c-53.7,22.3-99,56.3-137.6,107.1c18.4-0.9,32.6-1,46.7-2.2
			c293.9-25.3,564.2,42.8,810.9,204.5c20.9,13.7,20.6,33.7-0.6,46.3c-11.1,6.6-18.7-2.7-26.2-7.9c-58.9-40.6-121.3-74.8-187-102.7
			c-209.2-89-426.5-119.1-652.1-88.4c-16.6,2.3-23.6,7.6-18.1,25.9c6.6,22.1,9.9,45.1,9.5,68.3c-0.2,11.3,4.7,19.9,11.7,28.2
			c40.7,48.3,95.9,67.7,155.5,78.6c74.9,13.6,150.6,6.2,226,8.3c44.8,1.2,89.5,5.2,133.2,14.5c120.8,25.6,172.8,121.1,135.7,245.6
			c-45.6,153.4-144.8,254.8-295.8,306.7c-130.6,44.9-264.1,65.3-402.1,50.1c-100.2-11-194.1-39.9-284.2-87.1
			c-171.4-89.7-156.4-343-12.8-433.6c49-30.9,102.9-49.9,156.1-70.7c29.4-11.5,58.1-24.2,83.6-42.8c36.7-26.7,48.6-62.6,36.4-106.2
			c-5.1-18.3-8.5-36.9-4.6-55.9c2.6-12.8-1.7-16.5-14.5-13.6c-219.7,50.5-411.4,146.3-532.8,345.9
			c-71.8,117.9-102.7,247.1-61.8,383.7c44.3,147.8,137.2,248.9,292.6,283.9c48.7,11,98.4,12.2,148,13.2
			c157.3,3.2,314.7,2.6,471.1-16c175-20.8,340.3-70.4,483.9-177.7c35.4-26.5,67.6-56.6,96.3-90.1c12.3-14.3,21.4-15.8,36-3.3
			c15.7,13.4,9.5,23.2-0.8,34.8c-89.7,100.2-200.3,168.7-325.3,215.4c-141.6,52.9-289.2,74.3-439.2,80c-132,5-264.1,5.6-396.2,0.8
			c-221.1-7.9-409.2-183.8-426-404.2c-15.2-199.5,61.1-362.7,206-496.2c119.7-110.4,263.5-173.9,420.1-211.5
			C1525.1,304.5,1531.7,302.5,1539.5,300.3z M2541.9,2572.7c-2.1-84.5-52.1-165.1-129.9-231.4c-7-6-13.8-4.3-21.5-2.8
			c-272.6,50.4-547.2,80.1-824.6,83.7c-155.6,2-310-7.2-461.9-44c-125.6-30.4-251.5-59.7-364.7-125.8c-9.1-5.3-14.2-0.8-20.2,3.7
			c-176.9,129.6-168.1,367.3-21.4,491.4c54.8,46.3,119.8,70.1,188.3,86.9c15,3.7,20.9,1.9,24.5-15.6
			c36.9-181.7,139.2-305.7,320.1-359.5c75.2-22.4,152.5-26.8,230.1-28.2c124.4-2.3,248.8-4.6,372,18.3
			c84.3,15.7,163.1,44.7,229.5,100.5c91.9,77.1,133.1,178.8,138.6,296.4c0.8,17.6,6.3,20.9,22.1,18c52.2-9.7,104.4-18.8,154.5-37.1
			C2482,2789,2541.1,2705.1,2541.9,2572.7z M1659,1116.1c142.3,1,258.3-26.8,369.5-75.7c97.5-42.8,160.9-117.9,198.9-215.9
			c8.1-21,6.4-23.3-15-22.9c-60.1,1.1-120.2,2.5-180.3,3.2c-10.6,0.1-16.7,1.5-17.1,14.3c-0.7,23.1-12.4,41.5-30.3,55.2
			c-16,12.2-32.9,23.8-50.5,33.6c-182,101.4-364.2,117.9-546.6,0.2c-19.6-12.7-41.7-20-65.3-20c-26.5,0.1-53.1,1.4-79.6,1.4
			c-12.2,0-16.1,3.9-13,16.4c8.3,33.9,22,64.4,48.2,88.8c28.6,26.7,62.1,44.9,97.6,60.1C1472.5,1096.4,1573.5,1117.7,1659,1116.1z
			 M2116.3,757.4c0-0.4,0-0.8,0-1.2c18.9,0,37.7,0.1,56.6,0c18.9-0.1,37.7-0.4,56.6-0.7c8.3-0.1,15.9,0.8,18.3-11.5
			c9-47.5-9.8-93.3-50.1-120.3c-25.1-16.7-53.2-24.3-82.4-28.4c-75.7-10.6-152-7.9-228.2-8.5c-98.2-0.7-192.5-15-269.9-83.3
			c-6.4-5.6-10.1-5.1-14.2,2.5c-27,49.8-72.7,75.6-122.9,95.8c-54.3,21.8-110.8,38.6-160.3,71.1c-55.5,36.4-86.9,87.4-93.8,153.5
			c-1.2,11.4,0.6,17,13.7,16.5c27.9-1,55.9-1.2,83.9-1.3c10.4,0,15.1-4,15.6-14.7c1.8-37.3,22.7-63.7,50.7-85.4
			c151.5-117.9,369.6-131,534.2-32.2c49.8,50.7,112.3,55,177.7,48.1C2106.5,757,2111.4,757.4,2116.3,757.4z M2150.2,2855.6
			c-4.2-98.8-34.2-186.6-108.2-255.4c-76.4-71.1-171.9-96.4-271.4-108.4c-113.8-13.6-228.3-12.5-342.7-8.6
			c-61.4,2.1-122.5,7.7-182.1,25c-163.3,47.5-253,159.8-286.2,322.7c-3,14.8,1.5,19.9,16,21.1c20.1,1.7,40.5,3.7,60,8.6
			c21.7,5.4,26-3.7,29.3-22.9c24.5-143.3,113-276.3,306.3-288.5c121.4-7.7,242.8-9.1,364.4-3c137.1,6.9,232.2,74.1,288.4,198.1
			c17.7,39,30.1,79.7,34.7,122.3c1.8,16.4,8.3,21.2,24.1,17.9c15.7-3.3,31.7-5.9,47.7-6.6
			C2146.5,2877.3,2154.6,2872.3,2150.2,2855.6z M1546.9,2751.8c0.3,0,0.5,0,0.8,0c0-46.1-0.6-92.2,0.3-138.3
			c0.3-14.6-3.8-19.2-18.7-18.8c-53.1,1.4-106.2,0.5-159.1,6.1c-62.2,6.6-120.3,22.7-167,68.6c-53.3,52.4-78.4,117.3-90.2,189.2
			c-2,11.9,4.5,12.8,12.6,13.7c134.6,15.9,269.5,27.7,405,33.9c13,0.6,16.8-2.9,16.6-16C1546.5,2844,1546.9,2797.9,1546.9,2751.8z
			 M1759.4,2907.5c78.3-1.1,156.3-7.1,234.4-13.3c14.4-1.1,17.1-5.7,15-19.3c-7.8-50.9-22.8-99.4-48.9-143.8
			c-31.3-53.2-73.7-94.6-133.2-115.6c-70.1-24.7-143.2-19.7-215.7-21.1c-11.7-0.2-11.2,7.7-11.3,15.5c-0.5,93.7-0.7,187.3-1.7,281
			c-0.1,12.9,4.2,16.9,16.7,16.8C1662.9,2907.2,1711.1,2907.5,1759.4,2907.5z M1670.8,944.3c16-1,32.2-0.7,48-3.3
			c83.6-13.5,157.6-51,228.1-95.6c30.5-19.3,30.4-37.5,3.4-61.6c-4.1-3.7-8.7-7-13.2-10.3c-107.8-79.5-227.5-102.1-357.3-72.7
			c-66.5,15.1-126.5,44.4-176.2,91.7c-28.4,27-25.6,51.4,5.7,75c3.9,2.9,8.1,5.4,12.2,8C1497.7,923.5,1581.8,942.4,1670.8,944.3z"/>
		<path class="st0" d="M1725.8,1984.5c176.4,3.4,352-3.4,523.7-50.3c106.8-29.2,206-74,297.5-136.1c9-6.1,17.9-14.9,30.3-9.6
			c18.9,8.1,21,29.4,4.2,41.5c-122.7,89.2-261.6,140.6-408.8,169.9c-159.8,31.9-321.8,37.3-484.2,32.2
			c-79.6-2.5-159.3-3.3-238.4-14.2c-151.6-21-241-110.6-259.6-262.6c-4.2-34.6-5.5-69.6-9.9-104.3c-2.3-17.9,4-22.3,20.3-20.2
			c47.1,6,94.3,11.3,141.7,14.5c244.2,16.4,484.2-8.7,719.8-74.3c141.7-39.5,277.6-93.9,408-161.9c26.5-13.8,30.8-12.5,49.9,9.2
			c37.3,42.8,51.4,92.2,41.2,147.9c-6.3,34.7-27,59.3-59,74c-38.8,17.8-79.7,25.7-122.3,22.4c-15.7-1.2-26.6,1.6-32.8,18.2
			c-7.5,20-24.8,31.6-42.7,41.6c-107,59.6-220.4,76.8-340.1,50.3c-36.3-8-36.3-8.2-57.3,21.2c-21.6,30.2-53.4,43.7-87.4,53.4
			c-92.9,26.6-186.5,27.5-279.3,1.7c-68.6-19.1-111.4-64.3-119.6-137.6c-1.4-12.4-8.3-16.8-19.5-16.9
			c-51.8-0.5-103.1-7.2-154.5-11.9c-13.6-1.3-19.6,1.7-17.1,16.8c4.4,26.1,6.6,52.7,11.6,78.7c20.4,106,83.8,167.7,189.7,189.2
			c74.5,15.1,149.9,15.2,225.3,17.3C1679.7,1985.1,1702.8,1984.5,1725.8,1984.5z M1661.9,1819.7c44.4,0.5,79.8-3,115-8.6
			c18.6-2.9,36.6-8.7,53.8-16.5c47.5-21.5,72.9-75.2,60-125.5c-3-11.7-11.3-8.8-18.2-7.5c-127.9,24.2-257,34.6-387,34.2
			c-18.8-0.1-21.1,9.1-17.4,23.8c8,31.4,26.5,54.4,54.5,70.8C1568.8,1817.5,1619.7,1818.1,1661.9,1819.7z M2058.5,1738
			c86.9,0.3,158.7-18.9,225.5-57.3c25.2-14.5,33.5-32.9,25.9-61.5c-4.3-16-11.3-31.4-17.6-46.8c-10.3-25.2-12.5-26.1-38.9-15.9
			c-87.2,33.6-176.4,61-267.5,81.9c-58.7,13.4-47.2,12.8-48.4,60.9c-0.4,15.4,6,20.8,19.4,24.2
			C1993.4,1732.9,2030.6,1737.8,2058.5,1738z M2392.4,1617.5c28.8-0.7,57-5,84-15.6c19.4-7.6,33.7-20.5,38.7-41
			c8.4-34.3,2.3-66.4-16.8-96.2c-6.2-9.8-13-11-22.7-6c-45.4,23.2-91.3,45.2-138.5,64.5c-9.7,4-12.2,9.5-7.2,19.6
			c7.1,14.4,13.2,29.2,18.7,44.3C2359,1615.5,2362.2,1618.1,2392.4,1617.5z"/>
		<path class="st0" d="M1593.1,927.1c-44.5-0.1-80.1-35.6-79.8-79.5c0.3-43.3,37.1-80.1,80.2-80.1c43.5,0,79.3,36.3,79.3,80.5
			C1673,892.8,1638.2,927.2,1593.1,927.1z M1626.6,848.4c0.1-18.5-14.4-33.5-32.7-33.8c-18.1-0.3-33.6,14.8-33.8,33
			c-0.2,18.1,15,33.4,33,33.5C1611.9,881.1,1626.5,866.9,1626.6,848.4z"/>
	</g>
</g>
</svg>
