<?xml version="1.0" encoding="utf-8"?>
<!-- Generator: Adobe Illustrator 23.0.0, SVG Export Plug-In . SVG Version: 6.00 Build 0)  -->
<svg version="1.0" xmlns="http://www.w3.org/2000/svg" xmlns:xlink="http://www.w3.org/1999/xlink" x="0px" y="0px"
	 viewBox="0 0 3000 3000" style="enable-background:new 0 0 3000 3000;" xml:space="preserve">
<style type="text/css">
	.st0{stroke:#000000;stroke-width:10;stroke-miterlimit:10;}
</style>
<g id="Layer_1">
</g>
<g id="Layer_2">
	<g>
		<path class="st0" d="M2619.6,1509.7c0,273.9,0.7,547.7-0.2,821.6c-1.1,348.4-290,636.8-639.3,638c-290,1.1-580,1.1-869.9,0.4
			c-368.3-0.9-652.4-281.7-653.8-649.6c-1.9-544.8-2-1089.6-0.6-1634.5c0.9-358.7,286.6-643.1,645.7-644.8
			c295.8-1.4,591.7-1.3,887.5,0.3c334.7,1.8,621.5,285.4,630.4,620.5c0.2,5.9,0.4,11.7,0.4,17.6c0,276.8,0,553.6,0,830.4
			C2619.8,1509.7,2619.7,1509.7,2619.6,1509.7z M510.6,1503c-0.2,0-0.3,0-0.5,0c0,272.5-1.1,545,0.3,817.5
			c1.7,329.5,262.5,591.3,592,593.6c290.1,2,580.2,2.2,870.2,0.6c326.4-1.8,590.5-263.3,591.8-589.7
			c2.1-546.5,1.5-1092.9-0.4-1639.4c-1.2-326.3-264.3-587.9-591.2-589.8c-291.5-1.7-583.1-1.5-874.6,0.3
			c-323.3,2.1-585.1,265-587.2,589.3C509.3,958,510.6,1230.5,510.6,1503z"/>
		<path class="st0" d="M2408.7,1486.3c0,142.1,0.6,284.2-0.1,426.2c-1.8,343.2-291,633-633.9,635.1c-123,0.8-246.1-0.7-369.1,0.6
			c-385.5,4.3-660.6-327.1-652.9-646.8c6.7-275.1-1.9-550.6-0.4-825.9c2-370,286.4-652.6,656.3-653.6c143-0.4,286.3-7.2,428.9,5.9
			c303.8,27.8,561.3,300.5,569.9,605.8c4.2,150.8,0.7,301.7,0.7,452.6C2408.3,1486.3,2408.5,1486.3,2408.7,1486.3z M808.1,1483.9
			c0,143.6-0.8,287.1,0.2,430.7c1.8,283.5,229.3,539.8,510.7,571c160.4,17.8,322.6,15.5,482.8,3.9
			c312.8-22.7,547.3-271.4,551.5-578.2c3.9-284.2,4.1-568.4,0-852.6c-4.6-317.3-262-572.7-578.8-578.9
			c-133.3-2.6-266.7-3.5-399.9,0.6c-313,9.6-565.6,272.5-566.4,586C807.8,1205.6,808.1,1344.8,808.1,1483.9z"/>
		<path class="st0" d="M896.2,1463.6c5-104.7-9.5-238.2,7.7-371c39-301.9,314.6-543.7,617.8-544.1c104-0.1,207.5-2.4,308,31.8
			c258.3,88.1,432.5,327.7,435.1,604.7c2,205,2.4,410.1-0.1,615.1c-4.2,350.7-275.7,625.5-626,635.2c-83.2,2.3-166.9,4.7-248.8-15.3
			c-293.5-71.9-488.3-324.1-493.4-611.7C894.6,1702.9,896.2,1597.4,896.2,1463.6z M2207.7,1362.9c-0.2,0-0.4,0-0.6,0
			c0-65.9,2.6-131.9-0.5-197.6c-10.3-217.9-114.7-379-300.8-489.3c-125.8-74.5-264.7-76.7-404.6-71.2
			c-277.9,11-522.5,244.6-544.3,521.5c-12,151.9-2.2,304.4-5.2,456.5c-0.5,24.3,8.8,27.9,31.3,27.3c104.3-2.7,187.6,38.9,245.9,126
			c27.6,41.3,51.9,84.8,77.1,127.6c27.7,47.2,65.3,82,118,99.5c178.9,59.3,332.4,0.4,421.6-164c45.4-83.7,111.8-138.4,205.3-156.6
			c38.6-7.5,78.4-10.5,117.8-11.1c29.6-0.5,40.7-9,39.8-40.2C2206.3,1515.2,2207.7,1439,2207.7,1362.9z M1332.1,2345.7
			c21.5-106.3,41.3-206.4,62.1-306.3c3.4-16.6,1.5-26.9-15.8-34.5c-61.9-27.1-101.5-76.8-133.4-134.3
			c-19.9-35.8-40.1-71.5-63.2-105.2c-46.4-67.6-111.3-100.6-194.1-99.3c-25.6,0.4-36.8,7.7-36.1,35.3c1.4,57-2.2,114.4,6.4,171
			C992,2098.5,1119.3,2251.5,1332.1,2345.7z M2207.6,1786.6c0-26.3-0.2-52.7,0.1-79c0.1-13.5-3.4-22.3-19.4-22.1
			c-126.3,1.7-232.3,18.7-295.3,145.2c-27.6,55.3-59.5,108-112,143.6c-19.2,13-11.6,25.9-6.5,41.5c29.6,90,60.2,179.8,87.1,270.7
			c10.1,34.1,21.5,36.4,50.1,18.9C2106,2186.7,2205,2014.3,2207.6,1786.6z M1596,2379.4c21.9,0,43.8-0.3,65.6,0.1
			c21.3,0.3,27.8-6.8,21.5-29.2c-27.2-96.5-52.6-193.6-79.2-290.3c-2.4-8.7-1.5-22-16.1-22.5c-18.4-0.6-15,15-16.9,25.1
			c-14.4,78.7-28.8,157.4-41.8,236.4C1515.8,2379.9,1516.5,2380,1596,2379.4z M1770,2361.8c6.6-17.1,58.5,10,43.9-38.3
			c-29.5-97.5-62.8-193.8-93.3-290.9c-7.6-24.1-21.5-17.1-37-12.8c-15.7,4.3-30.9,5.5-23.8,30.5c27.8,98,54,196.4,80.1,294.8
			C1743.5,2358.6,1748.8,2366.2,1770,2361.8z M1514.6,2055.1c7.6-19.5-11-19.8-27.2-21.5c-15.6-1.6-33-13.9-38.5,16.7
			c-17.5,96.1-37.1,191.8-57.9,287.2c-6.2,28.6,13.1,27.9,29,31.3c17.7,3.8,36.7,11.3,41.8-19.2
			C1477.9,2253.4,1496,2157.4,1514.6,2055.1z"/>
		<path class="st0" d="M1574.6,1194.4c-125.7,0.6-225.8-97.5-228.1-223.7c-2.3-126.4,102-231.2,231.3-232.5
			c123.9-1.2,227.3,104.2,226.7,231.1C1803.8,1097.5,1705.6,1193.7,1574.6,1194.4z M1404,970.2c0.6,52.8,21.1,96.4,61.3,130.2
			c8.8,7.4,21.6,22.3,27.8-3.1c16.3-66.6,58.1-120.4,90.1-179.1c14.1-25.8,25.9-52.1,32.5-80.8c6.5-28.1,0.4-42-33.1-42.4
			C1481.6,793.9,1403,869.5,1404,970.2z M1748.7,968c0.3-49.6-18.9-90.9-53.6-125.6c-12.5-12.5-21.5-14.4-25.3,7.4
			c-10.6,60.7-46.2,110.1-76.2,161.8c-17.7,30.4-35.1,60.9-45.4,94.7c-7.1,23.4-0.6,34,26.7,34.6
			C1667.3,1143.1,1748.3,1063.6,1748.7,968z"/>
	</g>
</g>
</svg>
